<?xml version="1.0" encoding="utf-8"?>
<!-- Generator: Adobe Illustrator 19.2.0, SVG Export Plug-In . SVG Version: 6.00 Build 0)  -->
<svg version="1.1" id="Layer_2" xmlns="http://www.w3.org/2000/svg" xmlns:xlink="http://www.w3.org/1999/xlink" x="0px" y="0px"
	 viewBox="0 0 900 600" style="enable-background:new 0 0 900 600;" xml:space="preserve">
<g>
	<path d="M195.6,549.8c0.2-0.1,0.5-0.2,0.6-0.4c0.1-1.1,0.5-2.2,0.3-3.2c-0.8-4.1,0.3-8.1,1.1-12c1.6-7.4,2.6-14.8,2.9-22.3
		c0-1,0-1.9,0-2.9c-0.4-6.5-0.3-13.1,0.4-19.6c0.2-1.5,0.4-3.1,0.1-4.6c-1.6-0.5-3.2-0.9-4.6-1.6c-3-1.5-4.6-3.8-4.3-7.2
		c0.2-2.2,0.5-4.5,0.9-6.7c2.1-10,5.8-19.4,10-28.7c0.9-2,2.2-4,3.3-5.9c-0.5-0.4-0.7-0.7-1-0.8c-8.7-3.8-17.5-7.5-26.2-11.3
		c-3.5-1.6-6.8-3.5-10.1-5.3c-2.2-1.2-4.1-2.8-5.7-4.6c-1.2-1.4-2.6-2.5-4.3-3.3c-3.5-1.7-6.4-4.1-9.1-6.7c-3-2.9-5.9-5.8-7.7-9.6
		c-0.4-0.9-1-1.6-1.6-2.4c-1.5-1.9-2.5-4.1-3.5-6.3c-3-7.3-3-14.6-0.1-21.9c0.6-1.6,1.3-3.1,2-4.6c0.9-1.7,1.8-3.3,3.3-4.7
		c1.5-1.4,2.6-3.2,4-4.7c6.8-8.2,15.6-13.6,26-16.5c3.6-1,7.2-1.7,10.9-2.6c7.1-1.7,14.2-3.5,21-6.1c3-1.2,5.3-3.1,6.5-6
		c1-2.3,2.6-4.3,3.2-6.8c0.3-1.1,0.4-2.1,0.3-3.1c-0.2-1.3-0.3-2.6-0.6-3.9c-1.1-4.1,0-7.9,1.8-11.7c0.4-0.8,0.6-1.6,1-2.3
		c0.4-0.8,0.6-1.7,1.2-2.2c2.1-1.4,2.6-3.7,3.7-5.7c2.9-5.1,6.6-9.5,12-12.4c1.2-0.6,2.4-1.1,3.8-1.3c1.8-0.2,3.6-0.8,5-2.1
		c2-1.7,4.4-2.6,7-3.3c1.4-0.4,2.7-0.5,4,0c2.8,1.1,5.7,1.5,8.7,2c1.7,0.3,3.4,0.7,5.2,1.1c0.7-0.9,0.3-2,0.1-3
		c-0.3-1.6-0.2-3.1,0.1-4.6c0.5-2,1.1-3.9,0.9-6c-0.1-0.9,0.7-1.1,1.5-1.3c-0.1,1.3-0.2,2.6,0.8,3.7c-0.5,0.1-0.9,0.2-1.4,0.3
		c-0.2,1.4-0.3,2.5-0.6,3.7c-0.6,2.1-0.4,4.2,0,6.4c0.3,1.5,1.2,2.9,1.6,4.3c0.8,3.6,2.8,6.9,2.6,10.7c1.3,6,2.6,8.4,10.4,8.9
		c0.7,0.1,1.5,0,2.2-0.1c3.5-0.8,7-1.6,10.5-2.5c0.6-0.1,1.2-0.4,1.7-0.8c2-1.3,3.9-2.5,5.8-3.8c2.4-1.7,4.5-3.7,5.7-6.4
		c1.1-2.5,2.7-4.7,4.5-6.8c0.7,0.4,1.2,0.7,1.7,1c0.4-0.5,0.9-0.9,1.2-1.3c0.4-0.5,0.6-1,0.9-1.5c1.8-0.3,3.1-1.4,4-2.8
		c0.7-1.1,1.4-2.2,2.1-3.3c0.2-0.4,0.7-0.7,0.2-1.2c-3.8,1.5-4.2,1.9-5.4,5.1c-0.3,0.8-0.6,1.5-0.8,2.3c-0.9-1.5-1.7-3-0.6-4.7
		c0.2-0.3,0.4-0.7,0.3-0.9c-1.1-2.2,0-4,1-5.8c0.2-0.2,0.5-0.5,0.7-0.7c0.3-0.2,0.5-0.5,0.8-0.7c0.1-0.1,0.2-0.2,0.2-0.2
		c0-0.2-0.1-0.3-0.2-0.5c0.7-0.6,1.3-1.2,2-1.9c0.4-0.5,0.8-1.1,1.1-1.6l-0.1,0.1c0.6-0.3,1.4-0.5,1.9-1c1.4-1.2,2.6-2.4,3.8-3.5
		c0.8-5.2,0.8-7.9-0.1-10.3c-1.5,1.1-2.9,2.2-4.4,3.3c-0.6,0.4-1.2,0.9-2,0.6l0.1,0.1c2.3-2,4.5-4,6.6-5.8c0.2-2.9-1-5.1-2.3-7.2
		c-0.2-0.3-0.9-0.3-1.3-0.5l0.1,0.1c0-0.5,0.3-1.2,0.1-1.6c-0.5-1.1-1.1-2.3-2-3c-0.7,0.1-1.3,0.2-1.9,0.3l0.1,0.1
		c0.1-0.2,0.1-0.4,0.2-0.6c0.8-1.4,0.7-1.4-0.9-1.5l0.1,0.1c0.1-1.9-1.4-2.6-2.6-3.4c-1.6-0.1-2.9,0.6-4.2,1.3
		c-3.6,1.9-7.4,3.5-11.3,4.8l0,0c1-2.1,2.9-3.2,4.8-4.2c1.8-1,3.8-1.7,5.7-2.6c0.4-0.2,0.9-0.3,0.7-1c-1.7-0.4-3.2,0.4-4.5,1.1
		c-2.6,1.4-5.1,3-7.6,4.5c-0.3,0.2-0.7,0.8-1.2-0.1c0.9-0.9,1.8-1.8,2.8-2.7c0.9-0.8,2.2-1.2,3-2.1c0.9-1,2.5-0.7,3.5-2.2
		c-1.5,0.1-2.6,0.2-3.7,0.3c-0.9,0.1-1.7,0.4-2.5,0.3c-1.9-0.2-3.4,0.4-4.9,1.4c-1.1,0.7-2.1,1.8-3.6,1.6l0.1,0.1
		c0.2-1.1,1.3-1.3,2-2c0.4-0.4,1.2-0.5,0.8-1.2c-3,0.6-12,3.6-14.2,5.1c-1.4,0.9-2.6,2.2-3.8,3.4c-0.7,0.7-0.8,1.7-0.5,2.7
		c-1.1-0.4-1.1-0.4-1.5,0.7c-1,1.5-1.9,3-3.1,4.3c-0.8,0.9-1.2,1.8-1.4,2.8c-0.3,1.6-0.6,3.3-0.6,4.9c0,2.8-0.9,5.3-1.9,7.9
		c-0.3,0.7-0.6,1.3-0.9,2c1.1,1.9,2,3.9,4.1,5c0.5,0.3,1,0.8,1.3,1.3c0.8,1.6,2.1,2.7,3.4,3.7c1,0.8,1.3,1.7,1,2.9
		c-0.2,0.9-0.3,1.9-0.7,2.8c-1,1.9-2.1,3.8-3.2,5.6c-0.3,0.5-0.7,0.8-1.1,1.3c0.4-2,1.1-3.9,1.8-5.7c0.7-1.9,1.5-3.8,1.2-5.6
		c-0.9-0.9-1.7-0.9-2.6-0.5c-1.5,0.7-2.7,0.2-3.6-1c-0.4-0.5-0.8-1.2-1.2-1.7c1.6-0.3,2.9,1.4,4.6,0.6c-1.1-2-2.7-3.3-5.3-4.1
		c-1.2-2.2-1.2-2.2-0.4-4.9c0.9-3.5,1.7-6.9,2-10.5c0.2-1.9,0.7-3.7,1.4-5.5c0.9-2.2,2-4.4,3.1-6.5c0.8-1.3,1.8-2.6,2.8-3.8
		c1.4-1.5,3-2.8,4.1-4.6c0.6-0.9,1.6-1.5,2.6-2c2-1,4.1-1.7,6.2-2.6c1.4-0.5,2.8-0.7,4.3,0c1.2,0.6,2.7,0.3,3.9,0.1
		c0.2-0.4,0.3-0.8,0.4-1c2.7-0.3,5.4-0.5,8.1-0.8c-0.2,0.3-0.3,0.6-0.5,0.9c0.6,0.5,1.1,0.3,1.6-0.1c1.2-1,2.4-2,3.6-3.1
		c3.2-2.8,6.6-3.1,10.7-1.8c4.7,1.5,7.1,4.4,8.1,8.9c0.8,3.5,0.9,7.1,0.6,10.6c-0.1,0.7-0.1,1.5-0.5,2.1c-0.8,1.5-0.9,3.2-1,4.9
		c-0.4,10.3-1.3,20.7-0.6,31c0.2,2.4,0.1,4.7-0.7,7.1c-0.5,1.3-0.5,2.8-0.8,4.2c-1.3,5.8-3.6,11.3-6.8,16.5
		c-0.3,0.4-0.5,0.8-0.7,1.3c-0.2,0.5-0.4,1.1-0.7,1.8c1.5,1.3,2.9,2.6,4.4,3.9c1.3,1.1,2.5,2.3,3.5,3.7c1.4,2.1,3.2,3.9,4.5,5.6
		c0.4,1.8,0.7,3.3,1,4.8c0.6,2.3,1.2,4.6,1.8,6.9c0.3,1.4,0.2,2.9-0.4,4.2c-1.8,4-3.3,8.2-5.9,11.9c-1.9,2.7-4.2,5-6.3,7
		c-0.8,3.6-1.5,6.8-2.3,10.1c-1.1,4.5-3.3,8.4-6.8,11.7c-2.1,2-4,4.2-6.4,6c-1.1,0.9-2.2,1.9-2.5,3.4c-0.1,0.7-0.7,1.3-1.1,1.8
		c-2.9,3.7-5.7,7.5-8.6,11.2c-0.3,0.4-0.7,0.8-0.8,1.2c-1.1,2.8-2.2,5.6-3.3,8.3c-0.7,1.8-1.4,3.5-2.2,5.5c0.5,0.3,0.9,0.7,1.4,1
		c8.3,4.4,15.9,9.8,22.2,16.7c1.7,1.9,3.6,3.6,5.3,5.5c1.3,1.4,2.3,3,3.5,4.5c0.1,0.2,0.3,0.5,0.2,0.7c-0.4,1.5,0.6,2.5,1.3,3.5
		c1.2,1.8,1.5,3.6,0.7,5.8c-0.6,1.6-0.7,3.5-1,5.3c-0.4,3.3-1.2,6.6-3,9.5c-0.2,0.3-0.6,0.7-0.5,0.9c0.4,2.2-1.2,3.5-2.6,4.8
		c-1.2,1.2-1.9,2.7-2.3,4.3c-1.3,4.7-3,9.3-5.8,13.5c-1.4,2.1-2.6,4.3-3.9,6.5c-1.9,3.2-4,6.3-6.4,9.2c-1.4,1.7-2.4,3.6-3.6,5.4
		c-0.7,1.1-1.3,2.3-2.1,3.4c-3.7,5.6-6.4,11.6-8.3,17.9c-0.2,0.8-0.4,1.6-0.6,2.6c1.3,0.5,2.5,1,3.8,1.4c1.3,2,0.3,4.3,1.2,6.6
		c1.8,1,3.8,2.2,5.8,3.4c0.5,0.3,1.2,0.6,1.5,1c1.7,2,4,3.2,6,4.8c1.4,1.2,2.9,2.3,4,3.7c1.5,1.8,3.5,2.6,5.8,2.9
		c2.3,0.4,4.6,0.9,7,1.2c1.3,0.2,2.7,0.2,4.1,0.4c0.7,0.1,1.6,0.3,2,0.8c1.6,2,3,4.1,2.8,6.8c0,0.2-0.2,0.4-0.4,0.7
		c-1.7-0.4-2-1.8-2.7-3c-0.6-1.2-1.1-2.4-1.7-3.5c-4.9-0.6-9.7-1.2-14.9-1.8c-0.2,0.1-0.7,0.4-1.2,0.7c-0.1-0.2-0.4-0.4-0.3-0.6
		c0.2-0.8,0.4-1.6-0.6-2.1c-0.5-0.3-1.1-0.5-1.8-0.9c-0.6,0.6-1.2,1.2-1.7,1.8c-0.6,0.6-1.2,1.3-2.3,1c-1.3-2.1,0.9-3.3,1.7-5.2
		c-0.6-0.5-1.3-1.1-2-1.7c-2.1,1.2-3.1,3.2-4.7,4.5c-0.9-0.1-1.3-0.5-1.3-1.1c-0.1-1.1,0.5-2.1,1.3-2.9c0.7-0.8,1.5-1.5,2.3-2.4
		c-0.5-0.5-0.9-0.9-1.4-1.4c-2.4,2.1-4.5,4.4-7.7,5.5c-1-1.8-0.1-3.2,1-4.3c1.1-1.1,2.3-2.1,3.7-3.3c-0.8-0.7-1.8-1.2-2.9-1.8
		c-2.3,2.5-4.6,4.8-6.9,7.3c-1.8-1.8-0.4-3.5,0.3-4.9c0.7-1.4,2.1-2.6,3.3-4.1c-0.2-0.9-0.6-2.1-0.7-3.4c-0.2-1.2-0.1-2.3-0.2-3.5
		c-1.7-0.6-3.3-0.2-4.7-0.3c-1,0.6-0.8,1.4-0.9,2.1c-0.6,3.6-2.6,6.1-6.3,7.2c-2.4,0.7-4.6,1.7-6.8,2.9c-1.6,0.9-3.5,1.3-5.3,1.8
		c-1.7,0.4-3.1-0.2-4.3-1.4c-2.9-2.9-2.9-2.8-1.9-7.2c-0.2-0.1-0.3-0.4-0.5-0.4c-0.7-0.1-1.5-0.1-2.3-0.2c-1.1,1.9-1.9,3.7-1.6,5.8
		c0.3,2.2,0.3,4.2-1,6.2c-0.4,0.6-0.4,1.4-0.5,2.1c-0.2,3-0.4,5.9-0.7,8.9c-0.2,1.5-0.5,3-0.8,4.6c1.6,1.5,3.5,2.4,5.7,2.5
		c5.8,0.1,11.7,0.7,17.5,0.1c1.6-0.2,3.2-0.3,4.8-0.6c2.8-0.4,5.5-0.2,8.1,0.5c2.6,0.7,5.3,1.4,7.9,2c3.9,1,7.8,1.4,11.8,1.5
		c1.7,0,3.5-0.1,5.2-0.4c5.5-1,10.9-2.2,16.3-3.8c1.2-0.4,2.3-1.3,3.5-2c0.9,0.6,1.2,1.3,0.6,2.1c-0.7,1.1-1.9,1.5-3.1,1.9
		c-2.5,0.7-5,1.5-7.5,2.1c-2.7,0.6-5.3,1.2-8,1.7c-4.1,0.8-8.1,0.8-12.2,0.3c-3.9-0.5-7.5-1.4-11.3-2.3c-2.5-0.6-5.1-1.2-7.7-1.4
		c-2.5-0.2-5-0.1-7.3,0.9c-1.6,0.7-3.3,1.2-5,1.3c-2.7,0.1-5.5,0.3-8.2,0.3c-4,0-7.5-1.5-11-3.1c-1.8-0.8-2.5-2.8-1.8-4.5
		c0.6-1.4,0.9-2.6,0.4-4.1c-0.2-0.7,0.1-1.6,0.2-2.5c0.2-1.7,0.5-3.3,0.5-5c0-1.5,0.2-2.8,1.1-4.1c0.9-1.4,1-2.8,0.8-4.4
		c-0.4-2.5,0.5-4.9,1.4-7.3c0.3-0.8,1.1-1.4,2.1-1.2c1.1,0.1,2.2,0.4,3.5,0.6c0.2-0.4,0.7-1,0.9-1.6c2.5-6.7,5-13.4,6.9-20.4
		c0.1-0.5,0.3-0.9,0.5-1.3c1.7-2.7,2.2-5.8,3.1-8.7c1.1-3.5,2.2-7.1,3.2-10.6c0.4-1.4,0.7-2.8,0.8-4.2c0.2-2.7,0.9-5.4,1.5-8.1
		c0.6-2.4,1.7-4.5,3-6.5c3.5-5.4,7-10.7,10.4-16c0.1-0.1,0-0.2,0.1-0.5c-0.6-1.1-1.7-1.9-2.8-2.6c-1.2-0.9-2.4-1.7-3.6-2.5
		c-0.6-0.4-1.3-0.7-2-0.9c-5.5-1.6-10.9-3.2-16.6-4.8c-1.6,1.3-2.7,3.2-3.7,5.1c-0.3,0.4,0,1.1,0,2c0.6-0.3,1.1-0.4,1.4-0.7
		c1.7-1.2,3.5-1.3,5.3-0.5c1.7,0.7,3.3,1.7,4.9,2.6c0.8,0.5,1.2,1.3,1.2,2.1c0.1,1.5,0.4,3.1,0.2,4.6c-0.4,3.1-0.8,6.1-1.7,9.1
		c-2.9,10.2-6.5,20.2-11.8,29.6c-1.4,2.5-3.2,4.8-4.9,7.1c-1.7,2.4-4.2,3-6.9,2c-1.7-0.6-3.4-1.5-4.9-2.5c-1.1-0.8-1.7-1.9-1.4-3.4
		c0.5-2.9,0.8-5.9,1.1-8.9c0-0.3-0.1-0.6-0.2-1c-1.2,0.3-1.5,1.4-1.7,2.3c-0.8,3-2.2,5.8-3.6,8.6c-3.4,6.5-5.8,13.4-8.2,20.3
		c-0.3,1-0.4,2.1-0.4,3.1c0.1,1.7-0.2,3.3-0.7,4.9c-1.1,3.2-2.1,6.4-3.1,9.5c-0.8,2.7-1.6,5.5-1.5,8.6c1.9,0.3,3.7,0.5,5.4,0.7
		c1.4,2.5,1.4,2.5,1.6,8.7c2.6,2.3,5.2,4.6,7.7,6.8c0.5,0.5,1.2,1,1.5,1.6c2,3.5,5.5,5.4,8.6,7.8c3.1,2.4,6.7,3.6,10.7,3.7
		c1.3,0,2.4,0.3,3.5,0.9c1,0.6,2.4,0.7,3.6,0.7c2.2,0,3.5,1.1,4.1,3c0.8,2.8,1.6,5.5,0.1,8.3c-0.3,0.5-0.5,1.2-1,1.5
		c-2.1,1.3-3.8,3-6.2,3.9c-2.2,0.8-4.3,1.9-6.5,2.8c-7.2,2.8-14.7,3.6-22.3,3.7c-0.5,0-1.1,0.1-1.5-0.1c-2.1-1.2-4.3-0.7-6.5-0.7
		c-1.6,0-3.2-0.4-4.8-0.8c-2.8-0.7-5.5-1.6-8.2-2.4c-3.5-1-3.5-0.9-5.4-3.8c-4.2,0.1-8.4,1.1-12.5-0.1c-3.5-1.1-7.2-1.9-10.3-4
		c-0.5-0.3-0.8-0.9-1.3-1.5c0.8-0.5,1.5-1,2.5-1.6c-0.1,0.1,0.1,0,0.2-0.2c0.5-1.5,1-2.9,1.1-4.5c0.1-1.4,0.9-2.7,1.1-4.1
		c0.9-4.6,1.6-9.1,1.3-13.8c-0.2-3,1.3-5.6,3.4-7.7c0.7-0.7,1.9-1.1,2.9-1.5C194.9,548.6,195.4,549.1,195.6,549.8
		c-0.2,0.3-0.4,0.6-0.7,0.8c-0.6,0.1-1.4,0-1.7,0.3c-2,1.7-3.4,3.7-3.3,6.5c0.2,8.3-0.9,16.3-3.6,24.2c-0.1,0.3,0,0.7,0,1
		c0.5,0.3,0.9,0.5,1.4,0.7c2.8,1,5.6,1.9,8.4,2.8c0.7,0.2,1.5,0.2,2.2,0.2c1.4,0,2.9,0.2,4.1-0.2c3-1.1,5.3,0.4,7.7,1.6
		c0.5,0.3,1,0.7,1.5,1c0.6,0.4,1.2,0.9,1.9,1.1c2.4,0.8,4.7,1.5,7.1,2.1c1.8,0.5,3.6,0.9,5.5,0.3c0.9-0.3,2-0.1,3-0.1
		c1.9-0.1,3.7-0.3,5.6-0.4c3.2-0.2,6.4-0.8,9.6,0.1c0.5,0.2,1.2,0,1.8-0.1c7.2-1.5,13.9-4.4,19.7-8.7c0.4-2.5,0.1-4.7-0.6-6.9
		c-0.3-1-1-1.6-2.1-1.8c-2.9-0.5-5.9-1.1-8.8-1.4c-3.4-0.4-6.5-1.6-9.3-3.4c-1.2-0.8-2.4-1.6-3.6-2.5c-0.5-0.3-1-0.5-1.6-0.8
		c-0.3-1.3-1.5-1.8-2.4-2.2c-4.4,1.2-8.7,2.4-13,3.6c-0.2,0-0.4-0.2-0.8-0.4c0.2-0.5,0.2-1.1,0.5-1.5c0.9-1.5,2.3-2.5,4-3
		c2-0.6,4.1-1.1,6.3-1.6c-0.3-0.5-0.6-0.8-0.8-1.1c-1.5,0.4-2.8,0.6-4.1,1c-3.2,1-6.4,2-9.5,3c-0.1,0-0.3,0-0.4-0.1
		c-0.1-0.1-0.2-0.2-0.4-0.4c0.1-1.8,1.1-3.2,2.9-4.1c1.4-0.7,2.9-1.2,4.5-1.7c1.4-0.5,2.8-0.7,4.1-1.1c0.2-1-0.4-1.2-1-1.4
		c-5.1,1.5-10.4,2.3-14.7,5.4c-1-0.5-1-1.2-0.8-1.9c0.6-1.6,1.8-2.9,3.4-3.6c1.7-0.7,3.5-1.3,5.2-1.9c1.3-0.4,2.6-0.7,4-1.1
		c-1-2.7-0.3-5.6-1.8-8.2c-2.1,0-4.2,0-6.3-0.1c-1.4-0.1-2.4,0.3-3.3,1.3c-1.6,1.7-2.7,3.7-3.3,5.9c-0.5,1.5-1.1,2.9-2.2,4.1
		c-1.6,1.5-3.1,3.1-4.9,4.3c-2.2,1.6-4.8,2.4-7.7,2c-1.8-0.3-2.8-1.1-2.9-2.8c-0.1-1.6,0.1-3.3,0.2-4.9c0.1-1,0.2-2.1,0.4-3.1
		C195.4,550.5,195.7,550.3,195.6,549.8z M319,259.2l-0.2,0.1l0.1-0.2c0.5-0.1,0.9-0.2,0.7-0.8c1.1,0.2,1.9-0.1,2.3-1.2
		c-1.1-0.1-1.7,0.5-2.2,1.3C319.5,258.7,319.3,259,319,259.2z M218.1,457.8c-0.2,0.2-0.3,0.5-0.1,0.2
		C217.9,458.3,218,458,218.1,457.8c0-0.1,0.1-0.1,0.2-0.1c0,0,0.1-0.1,0.1-0.2C218.3,457.6,218.2,457.7,218.1,457.8z M328.1,222.7
		c0,0.2,0,0.4,0.1,0.6c0,0.1,0.1,0.2,0.2,0.3c0.1-0.2,0.3-0.4,0.2-0.5C328.4,222.9,328.2,222.9,328.1,222.7c-0.8-2.6-0.8-2.6-2.8-3
		C325.8,221.1,326.5,222.3,328.1,222.7z M326.5,250.6c-1.4,1.1-2.3,2.5-3.5,4.2c0.9,0,1.5,0,2.2,0
		C326,253.5,326.8,252.2,326.5,250.6c0.5-0.2,0.7-0.5,0.2-1C326.7,250,326.6,250.3,326.5,250.6z M221.1,376.3
		c-3.1-0.3-5.9-1.7-8.9-1.7c-0.7,0.8-1.2,1.4-2,2.2c-0.2-1.2-0.4-2-0.5-2.6c-2.7-1-5.2-2-8-3.1c0.4,2.5,1.4,4.4,3,6
		c-2-1.1-4-2.3-6.1-3.5c-0.7,0.2-1.4,0.4-2.3,0.1c-3.7-1.2-7.5-1.8-11.4-1.5c-8.6,0.7-16.4,3.6-23.7,8c-0.5,0.3-1.1,0.6-1.5,1.1
		c-2,2.7-4.4,5.1-5.7,8.3c-1,2.3-1.9,4.6-2.9,6.9c-0.4,1-0.8,2-0.4,3.5c2.9,2.6,5.9,5.6,10,7.4c0.6,0.2,1.1,0.6,1.5,1
		c3,3.3,6.9,5.4,10.9,7.5c0.7,0.3,1.5,0.6,1.9,1.1c1,1.7,2.9,2.2,4.5,3c3,1.4,6.1,2.7,9.1,4.1c5.1,2.3,10.4,4,15.2,6.7
		c1.2,0.7,2.7,1.2,4.2,1.2c1.2-1.5,2.4-2.9,3.4-4.2c-0.3-0.6-0.5-1.1-0.7-1.5l-0.1,0.1c4.4-0.2,8.4,0.9,12.4,3
		c-0.7-7.2-1.4-14.2-2.1-21.2c-0.5-5-1-9.9-1.4-14.9c-0.1-1.8-0.7-3.2-2.1-4.4c-2.1-1.8-4.2-3.7-6.3-5.6c-1.9-1.7-3.9-3.4-5.8-5.1
		c-0.3-0.3-0.5-0.8-0.7-1.2c2.3,0.6,4.3,1.4,6.2,2.9c2.1,1.6,4.3,3.2,6.5,4.8c0.6-0.3,1.3-0.7,1.8-1.1c0.3-0.2,0.6-0.5,0.6-0.8
		C220.2,380.6,221.4,378.6,221.1,376.3c0-0.1,0.1-0.1,0.2-0.1c0,0,0.1-0.1,0.1-0.2C221.3,376.1,221.2,376.2,221.1,376.3z
		 M220.4,445.6c0,0.4,0.1,0.9,0.1,1.3c1.3-0.1,1.5-1,1.7-1.7c0.2-0.5-0.2-0.8-0.9-0.8c-0.3,0.4-0.7,0.9-1.1,1.4
		c0.4-2.6,0.8-5.2,1.1-7.7c0.2-1.9,0.4-3.8,0.2-5.7c-0.2-2.2-2.2-3.6-4.7-3.4c0.7,3.3,0,6.6-0.6,9.9c-2.4,11.4-6.4,22.2-11.8,32.6
		c-1.9,3.6-4,7.1-7.1,10c-0.1,0.1-0.1,0.4-0.2,0.8c1,0.8,2.2,0.8,3.2,0.8c1.4-0.4,1.2-2.1,2.6-2.1c1.4-0.1,2.2-1.1,2.8-2.2
		c1.9-3.2,3.9-6.4,5.5-9.7c3.2-6.3,5.6-12.9,7.6-19.7C219.3,447.9,219.9,446.8,220.4,445.6z M196.5,480.1c-0.5-0.2-1.1-0.4-1.6-0.6
		c0-0.8,0-1.4,0-2.1c0.5,0.2,0.9,0.4,1.4,0.7c2.8-2.9,4.9-6.2,6.5-9.9c2-4.5,3.9-9,5.7-13.5c2.5-6.3,4.3-12.9,5.5-19.6
		c0.3-1.6,0.3-3.1-0.7-4.4c-0.5-0.7,0-1.1,0.2-1.6c0.3,0.1,0.6,0.2,1,0.3c0.1,0,0.3-0.2,0.4-0.2c-0.1-0.1-0.3-0.4-0.4-0.4
		c-0.3,0.1-0.6,0.3-0.9,0.5c-0.6,0.2-1.3,0.3-1.7,0.6c-1.1,1-2,2.1-2.4,3.6c-0.2,0.9-0.5,1.7-1.6,2.2c-0.6,0.2-0.9,1.1-1.3,1.7
		c-0.7,1.3-1.2,2.6-1.9,3.9c-4.4,8.3-7.5,17.1-9.6,26.1c-0.7,2.9-1,5.9-1.4,8.8c-0.2,1.6,0.1,3,1.1,4.6c0.6-0.2,1.1-0.4,1.7-0.6
		C196.5,480,196.5,480,196.5,480.1z M195.6,369.2c-0.5-0.7-0.9-1.4-1.4-2.1l-0.1,0.1c0.5-0.1,1-0.1,1.6-0.2c0,0.1,0.1,0.2,0.1,0.2
		c0,0,0.1,0,0.2,0.1c-0.1-0.1-0.2-0.2-0.4-0.2c-1.6-2-3.4-3.7-5.4-5.2c-1.8-1.3-3.3-2.9-4.6-4.7c-4.3-6-8-12.3-10.1-19.4
		c-0.3-1-0.7-2-1-2.9c-0.5,0-0.8,0-1,0c-0.4,0.1-0.7,0.1-1.1,0.2c-7.2,2.1-13.4,5.6-18.9,10.5c-2.6,2.3-5.2,4.8-7.8,7.2
		c-1.7,1.5-2.9,3.2-4,5.1c-5.3,9.7-4.7,19.5-0.3,29.2c0.1,0.3,0.4,0.6,0.6,0.9c0.8,1.2,1.5,2.5,2.3,3.7c1,1.5,2,3,3.1,4.5
		c0.3,0.5,0.7,1,1.5,0.7c2-4.2,4-8.4,6.1-12.6c0.3-0.6,0.8-1.2,1.3-1.7c6.1-5.7,13.1-9.8,21.5-11.6c5.8-1.2,11.6-1.7,17.3,0
		c0.3,0.1,0.6,0,1,0c-0.1-0.5-0.3-0.8-0.4-1.1c0.3-0.1,0.6-0.2,1.1-0.4C196.2,369.3,195.9,369.3,195.6,369.2z M289.2,449.8
		c-0.9,0.2-1.4,0.8-1.9,1.5c-2.3,3.5-4.6,7-6.9,10.5c-1.3,2-2.8,3.9-3.9,6c-1.8,3.4-2.4,7.2-3,11c-0.4,2.7-0.9,5.4-1.5,8
		c-0.4,2.1-1.1,4.1-1.9,6.1c-1,2.6-1.6,5.2-2.4,7.9c-1.6,5.2-4,10.2-5,15.6c-0.2,0.8-0.6,1.6-0.9,2.4c-0.5,1.5-1.1,2.9-1.6,4.4
		c-0.2,0.8-0.2,1.6-0.3,2.4c-0.6,0.2-0.8,0.4-0.2,1c0.1-0.4,0.1-0.7,0.2-1.1c0.4,0,0.9-0.1,1.3-0.1c0,1.9-0.8,2.9-2.7,3
		c-0.6,1.3-1.3,2.6-1.9,3.9c0.6,0.9,1,1.9,2.5,2.2c-0.2-1.5-0.3-2.9-0.6-4.6c1.9,1.5,2.2,3.4,3.4,5.1c1.7-0.4,3.4-0.7,4.9-1.6
		c1.7-1,3.5-1.7,5.4-2.3c2.6-0.8,4-2.6,4.4-5.2c0.1-0.7,0.5-1.3,0.8-1.9c0.8-1.4,2.4-2,3.3-2.5c2-5.1,3.7-9.8,5.6-14.4
		c2.4-5.8,5.3-11.2,9.9-15.8c1.1-1.1,1.9-2.5,2.7-3.8c2.7-4.6,5.3-9.1,7.9-13.7c1.2-2.2,2.3-4.5,3.4-6.7c0.3-0.6,0.7-1.4,0.6-2
		c-0.2-1.2,0.5-2,0.8-3c0.2-0.7,0.4-1.3,0.6-2c0.3-0.2,0.5-0.5,0.8-0.7c2.7-1.7,4.4-4.1,5.1-7.1c0.9-3.7,2.1-7.3,2.6-11.1
		c0.3-2,1-3.9,1.6-6.2c-0.9-2.8-2.5-5.5-4.9-7.9c-1.9-1.9-3.9-3.8-4.9-6.2c-0.4-1.1-1-1.8-1.9-2.5c-0.9-0.7-1.8-1.3-2.5-2.1
		c-5.3-5.3-11.7-9.2-18.1-13.1c-0.6-0.4-1.3-0.6-2-0.9c-0.8,1.3-1.4,2.4-2.1,3.6c-1.7,2.9-3.2,5.9-5.7,8.3c-0.8,0.7-1.3,1.7-1.9,2.6
		c-1.4,1.8-2.6,3.8-4.2,5.4c-3.5,3.7-6.6,7.7-9.8,11.7c-0.4,0.5-0.7,1.1-1.2,1.9c1,0.3,1.7,0.5,2.4,0.7c6.4,1.6,12.5,3.8,18.4,6.9
		C286.8,444.5,288.6,446.7,289.2,449.8L289.2,449.8z M277.2,378.4c1.3,0.1,2.1-0.6,2.8-1.4c0.5-0.5,1-1,1.6-1.5c0.1-0.1,0.4,0,1,0
		c-1.4,1.8-2.8,3.3-4.4,4.6c-5.1,4.4-8.7,9.8-11.2,15.8c-2.1,5-4.8,9.7-7.7,14.2c-4.3,6.6-8.4,13.2-12.8,19.7
		c-1.8,2.7-4,5.1-6.1,7.7c-0.4,0.5-1.1,1-1.7,1.3c-2.8,1.5-5.7,2.9-8.6,4.3c-0.9,0.4-1.8,0.8-2.7,1.2c-0.4,1.1-0.6,2.2-1,3.1
		c-0.4,0.9-1,1.7-2.2,1.5c-0.7-0.1-1.2,0.1-1.6,0.6c-0.9,0.8-1.9,1.5-2.8,2.3c-0.7,0.6-0.9,1.4-0.2,2.3c0.6,0,1.3,0,2,0
		c0.2,1.3-0.5,2.2-0.9,3.2c-0.3,0.6-0.6,1.3-0.6,2c0.1,3.5-1.5,6.4-3.7,9.3c0.2,0.7,0.5,1.6,0.8,2.7c1.6-0.4,3-0.8,4.5,0
		c1.4,0.8,1.8,2.2,2.3,3.2c1.9,1.6,4.2,1.4,6.4,1.8c1.7,0.3,1.8,0.6,2,2.4c0.1,0.6,0.2,1.2,0.5,1.6c0.7,0.8,1.5,1.6,2.7,1.6
		c1.1-0.4,2-1,2.5-2c0.2-0.3,0-0.8-0.1-1.3c-1,0.2-1.7,0.3-2.5,0.4c-0.5-0.9-2-0.8-2.3-2.2c1.1-1.2,2,0.3,3,0.2c1.1-0.1,2.2,0,3.4,0
		c0.5-1,1-1.9,1.5-2.7c2.5,0,3.4-1.3,3.9-3.2c1-4.3,2.1-8.5,3.1-12.8c0.2-0.8,0.4-1.7,0.8-2.3c1.7-2.5,2.1-5.5,3.4-8.3
		c-0.7,0.3-1.2,0.4-1.7,0.6c0.8-3,2.5-6.3,4.4-8.4c-0.1,1-0.1,2-0.2,3.1c-0.1,0-0.2,0-0.3,0c-0.1,0-0.1,0.1-0.1,0.2
		c0.1-0.1,0.2-0.2,0.3-0.3c0.3-0.4,0.7-0.7,0.9-1.1c1.5-3,3.6-5.7,5.8-8.3c4.8-5.9,9.5-11.9,14.4-17.8c2.7-3.2,4.4-7.1,7.2-10.3
		c0.2-0.2,0.2-0.4,0.3-0.6c3-6,6.3-11.9,9-18c2.4-5.2,5.7-9.8,9.5-14c1.8-2,3.6-4,5.3-5.9c1.3-1.4,2.5-3,4-4.2
		c2.8-2.5,4.9-5.3,5.9-8.9c1-3.4,2.7-6.7,3.5-10.1c0.6-2.4,1.8-4.3,3.2-6.3c1.8-2.4,3.6-4.9,5.2-7.4c2.3-3.7,4.1-7.6,3.5-12.1
		c0-0.4,0-0.7,0-1.1c0.1-4.7-1.9-8.8-3.9-12.9c-0.2-0.3-0.4-0.6-0.6-0.9c-2.9-3.3-6-6.3-10.1-8.3c-0.6-0.3-1.2-0.8-1.7-1.4
		c-0.6-0.7-1.1-1.6-1.6-2.4c-0.3-0.5-0.5-1.1-1.4-0.8c-0.1,1-0.1,2.1-0.3,3.2c-0.7,4.7-1.3,9.4-2.3,14.1c-1.1,5.1-2.5,10.2-3.8,15.3
		c-0.1,0.5-0.6,1.1,0.2,1.8c0.7-0.1,1.5-0.3,2.4-0.4c0.6-0.1,0.9,0.2,1,0.9c-1.3,1.7-3.4,2.6-5.5,3.6c-0.7,4.7-3.1,9-3.9,13.8
		c-0.2,1.4-0.8,2.7-1.3,4.1c-1.8,4.8-4.9,8.5-10.2,10.2c-1.2,0.4-1.9,1.1-2.4,2.1c-3.3,6.3-6.5,12.6-9.8,18.9
		C277.1,377.6,277.3,378.1,277.2,378.4c0,0.1-0.2,0-0.3,0c-0.1,0-0.1,0.1-0.1,0.2C276.9,378.6,277.1,378.5,277.2,378.4z M262.2,352
		c2.1,0.8,4.2,1.5,6.2,2.3c4.4,1.7,8.9,2.3,13.5,1.5c1.1-0.2,2.2-0.6,3.3-0.5c1.7,0.2,2.9-0.4,4.2-1.1c0.9-0.5,1.7-1,2.6-1.4
		c3-1.5,5.2-3.6,6.1-6.8c0.7-2.8,1.5-5.5,2.4-8.2c1.4-4.1,2.6-8.2,3.3-12.4c0.4-2,0.7-4,1.1-6c0.9-4.3,1.9-8.6,2.9-12.9
		c0.5-2,0.9-4,1.8-5.8c0.7-1.3,1-2.6,1.2-4c0.5-3.2,0.4-6.4,1.7-9.5c-0.9-1.5-1.6-3-3.1-4.3c-0.6,1.8-0.7,3.4-0.9,5.1
		c-0.6,6.1-1.9,12-4.2,17.7c-0.6,1.6-1.1,3.2-1.5,4.8c-1.4,5.7-2.9,11.3-5.2,16.7c-0.4,1-0.7,2-0.9,3.1c-1.2,6.5-4.7,11.7-9.9,15.9
		c-0.6,0.5-1.1,1.2-1.7,1.9c-1-0.1-2.1-0.3-3.2-0.4c-3.9-0.6-7.9-0.9-11.7-2c-6.1-1.8-11.2-5-15.4-9.7c-0.6-0.7-1.2-1.6-1.5-2.5
		c-0.5-1.8-0.9-3.7-1-5.6c-0.6-6.9,1.5-13.2,5.4-18.9c0.2-0.2,0.6-0.3,0.9-0.4c0.8,0.8,0.2,1.4-0.1,2c-1,2.3-2.1,4.6-2.9,6.9
		c-1.3,3.9-1.5,7.9-1.8,12c-0.2,2.3,0.6,3.9,2.3,5.4c1.5,1.3,3,2.5,4.5,3.7c2,1.5,4.6,2.8,6.5,3.2c1.2-1.8,2-3.8,2.4-5.9
		c0.5-2.4,1.1-4.9,1.6-7.3c0.1-0.5,0.2-1,1.1-1c0,1.4,0,2.7,0,4.2c1.9-0.7,3.4-1.3,5.1-1.8c0.6-0.2,1.2,0,1.9,0
		c-2.5,1.8-4.9,3.5-7.3,5.2c-0.3,1.2-0.6,2.5-1.1,3.7c-0.5,1.3-1.3,2.5-2,4c4.6,1.8,9.1,3.4,13.8,4.1c0.8-0.8,1.4-1.5,2.2-2.1
		c3.3-2.8,6-6,8.1-9.7c1.7-3.1,3.1-6.2,4.1-9.6c1.2-3.9,2.2-7.8,3.4-11.7c2.9-8.9,5.1-17.9,6.3-27.1c0.2-1.7,0.1-3.6,1-5.2
		c0.2-0.4-0.2-0.9-1-0.9c-0.6,0.6-1.3,1.2-1.9,1.9c-2.5,2.9-5,5.9-7.5,8.8c-1.8,2-3.6,4-6,5.3c-0.3,0.1-0.6,0.1-1.2,0.1
		c2.6-3.6,5.8-6.3,8.7-9.7c-0.7,0-1.1,0-1.4,0.1c-2.8,0.7-5.6,1.3-8.2,2.3c-3.3,1.3-6.5,1.2-9.8,0.1c-1.4-0.5-2.8-0.9-4.2-1.5
		c-0.6-0.3-1.3-0.8-1.6-1.4c-0.8-1.5-1.4-3.1-2-4.5c-2.2,4.8-4.4,9.8-6.8,14.6c-1.4,2.8-3.2,5.3-4.8,8l0.1,0.1
		c-0.2-1.6,0.6-3,1.2-4.4c1.1-2.6,2.4-5.2,3.5-7.8c1.5-3.4,2.9-6.8,4.3-10.2c0.3-0.7,0.4-1.4,0.7-2c0.3-0.6,1-1,1.4-1.4
		c-0.8-4.1-1.2-8.1-3.5-11.8c-0.8,1.1-1,2.2-1.3,3.4c-0.4,1.9-0.8,3.7-1.5,5.5c-2.5,6.7-5.7,13.1-9,19.5c-0.5,1-0.9,2.2-2.1,2.8
		l0.1,0.1c0.1-0.6,0.1-1.2,0.3-1.7c1.5-3.8,3-7.5,4.5-11.2c0.2-0.6,0.2-1.4,0.4-2l-0.1,0.1c0.5-0.8,1.3-1.5,1.6-2.4
		c1.8-4.6,3.5-9.1,5.2-13.6c-1.2-1.6-2.9-1.5-4.5-1.8c-2.9-0.6-5.9-0.6-8.7-1.7c-0.7-0.3-1.7-0.1-2.6,0c-1.2,0.3-2.4,0.6-3.5,1.1
		c-3.2,1.3-6.3,2.9-9.5,4.1c-3.2,1.2-5.9,3.1-8.2,5.5c-1.9,1.9-3.5,4.1-4.7,6.4c-1.8,3.4-3.6,6.8-5.4,10.2c-0.8,1.6-1.4,3.3-2.1,5
		c-0.6,1.6-0.9,3.2-0.6,4.9c0.6,3.2,0.9,6.4,1.8,9.5c1.1,3.9,1.9,7.9,2.3,11.9c0.3,3.2,1.8,6.5,0.3,9.8c-0.2,0.5,0,1.2,0,1.8
		c0,2.9,0,5.7,0,8.6c0,2.6-0.3,5.2,1,7.7c0.2,0.3,0.2,0.7,0.2,1c0.8,3.9,1.6,7.7,2.3,11.6c0.3,1.6,0.3,3.3,0.3,5
		c0,0.5-0.1,1.2-1,1.3c-1.3-0.5-1.7-1.6-2-2.8c-1-4.3-2.1-8.6-2.3-13c-0.2-5.9-0.2-11.9-0.3-17.8c0-1.8,0-3.6-0.1-5.4
		c0-1.1-0.4-2.2-1.3-2.9c-1.9-1.5-2.8-3.6-3.7-5.7c-0.4-0.8-0.8-1.6-1.3-2.7c-0.5,0.6-1,0.9-1.1,1.3c-0.6,2.2-2.2,3.4-4.1,4.4
		c-5.1,2.6-10.4,4.6-16.2,5.2c-4.9,0.5-9.4,2.2-14,3.6c-0.2,0.1-0.4,0.3-0.7,0.6c0.3,2,0.8,4.1,1.9,6c4.1,7.1,8.6,13.9,13.5,20.5
		c0.3,0.4,0.6,0.7,1,1.1c4.3,3.8,9.2,6.9,14.7,9.1c3,1.2,6,2.2,9.1,3.2c1.6,0.5,3.3,1.2,5.2,0.6c0.4-1.3,0.8-2.6,1.2-4.1
		c0.4,0.3,0.9,0.5,0.9,0.7c0.1,0.7,0.1,1.4,0,2.1c-0.5,2.3-1.1,4.6-1.7,6.9c-0.5,1.8-1.2,3.7-1.4,5.5c-0.2,2,0.3,4,0.4,6
		c0.3,5.7,1.5,11.3,3.1,16.8c0.3,0.9,0.6,1.8,0.7,2.8c0.3,1.5,0.9,3-0.3,4.4c-0.2,0.2-0.2,0.7-0.1,1c0.6,4.5,0.9,9,1.8,13.4
		c0.7,3.5,1.4,6.9,0.9,10.5c0,0.3,0.2,0.6,0.4,1.1c1.7-0.6,3.2-1.2,4.6-2.4c1.6-1.3,3.3-2.5,5-3.7c2.3-1.6,3.9-3.6,4.1-6.5
		c0.1-2.4,0.4-4.7,0.6-7.1c0.3-4.9,0.4-9.8,1-14.6c0.9-6.8,2.2-13.6,3.4-20.4c0.2-1.3,0.2-2.6,0-3.9c-0.5-2.7-1.1-5.4-1.6-8
		c-0.7-3.5-0.7-3.5,0.4-6.5c0-0.1,0.2-0.2,0.3-0.4c0.1,2.6,1.6,8.7,2.7,11.2c0.5,0.1,1.2,0.4,1.7,0.3c1.1-0.2,1.9,0.2,2.8,0.6
		c4.6,2.1,9.2,4.3,13.8,6.4c0.6,0.3,1.3,0.5,2.1,0.8c0.7-1,1.3-1.9,2-2.7c0.4-0.6,0.9-1.2,1.5-1.6c1.9-1.1,2.6-2.7,2.9-4.7
		c1-5.6,3.6-10.6,6.9-15.3c1.1-1.5,1.6-3.1,2.1-5c-3,0-5.8,0-8.7,0c-2.9,0-5.5-1.3-8.1-2.2c-1.8,1.4-3.5,2.6-5.1,3.9
		c-2.8,2.2-5.8,3.6-9.5,3.8c-0.6,0-1.2,0.2-1.7,0.5c-1.6,0.6-3.2,1.3-4.9,2.1c-0.7-2.7,0.1-5.3,0-7.8c-0.1-2.6,0.3-5.2,0.4-7.8
		s0.2-5.2,0.2-7.8c0-2.6,0-5.2,0-7.9c0-2.6-0.3-5.2-0.3-7.8c0-2.6-0.9-5.1-0.7-7.8c0.2-2.6-0.5-5.2-0.8-7.6c-0.8-0.6-1.3-1-1.9-1.5
		c0.5-1.3,0.8-2.6,1.3-3.8c0.5-1.1,1-2.2,1.7-3.2c0.8-1.2,1.1-1.4,2.8-2.2c0,1.1-1.6,1.9-0.9,3.2c1.7-0.9,2.4-2.7,4.5-3.5
		c0.1,0.6,0.4,1.1,0.3,1.4c-0.3,0.7-0.8,1.5-1.3,2.1c-1.2,1.4-2.4,2.7-3.5,3.9c-0.1,2.7-0.3,5.2-0.4,7.7c0,1.9,0,3.8,0.4,5.7
		c1.1,4.7,1.7,9.4,1.7,14.1c0.1,5.3-0.1,10.7-0.2,16c0,0.3,0.2,0.7,0.3,1.1c3.9,1.2,7.8,2.3,12,2c0.7-0.1,1.4,0.3,2.1,0.5
		c0.6,0.1,0.8-0.3,0.9-0.8C263.8,353.8,263,352.9,262.2,352L262.2,352z M209.7,476.2c-1.9,2.3-3.5,4.3-5.1,6.3
		c-0.4,0.5-0.6,1.3-0.7,2c-0.1,1.4,0,2.9-0.1,4.3c-0.2,1.5-0.7,3-0.7,4.5c0,3.4,0.1,6.9,0.5,10.3c0.2,1.7,0.3,3.3,0.3,5
		c0,1.3-0.1,2.6-0.2,3.9c-0.4,7.6-1.1,15.2-3.2,22.6c-0.7,2.6-0.9,5.4-1.2,8.1c-0.2,1.6,0,3.3,0.6,4.9c0.8,2.2,0.5,4.5,0.1,6.7
		c-0.1,0.3-0.4,0.5-0.6,0.7c-1.5-0.3-0.2-2-1.5-2.6c-0.5,1.9-0.9,3.6-1.3,5.3c-0.2,0.7,0.6,1.5,1.3,1.4c2.5-0.3,4.9-0.9,6.8-2.6
		c0.6-0.6,1.2-1.2,2-1.6c1.7-1,2.7-2.4,3.2-4.2c0.3-0.9,0.5-1.8,0.9-2.7c0.5-1.1,0.9-2.2,1.6-3.2c0.8-1,2-1.8,2.8-2.9
		c0.9-1.2,2.4-0.2,3.3-0.9c0.6-2.8,1.1-5.5,1.7-8.1c0.5-1.8,1.3-3.6,1.1-5.5c-0.1-0.8,0.4-1.6,0.6-2.4c0.4-1.1,0.8-2.3,1.1-3.4
		c1.8-6.1,4-12,6.3-17.9c0.8-2,1.7-4,2.1-6.1c0.3-1.4,0.8-2.7,1.5-4c1.5-2.9,3-5.7,4.4-8.6c0.2-0.5,0.3-1.1,0.4-1.7
		c-3,0.3-4.8-2.1-7.4-2.2c-0.5,0.3-1,0.6-1.5,0.9c-2.9-0.2-5.7-0.4-7.9-2.5c-0.9,0.5-1.5,1.1-2.3,1.4c-0.9,0.3-1.9,0.6-2.9,0.6
		c-1.5,0-3-0.3-3.2-2.2c0-0.4-1.2-0.7-1.6-1.2C210.3,477.9,210.2,477.2,209.7,476.2z M267.6,389.2c-1.1-1-2.1-1.3-3.2-1.5
		c-3.5-0.6-6.7-1.8-9.8-3.3c-1.6-0.7-3.2-1.4-4.8-2c-0.1,0-0.3,0.1-0.5,0.2c0.2,0.4,0.4,0.9,0.6,1.2c-0.4,0.3-0.7,0.6-1.1,1
		c0.6,2,1.3,4-0.6,5.7c-0.1,0.1-0.1,0.5-0.1,0.7c-1.2,5.6-1.6,11.3-2,17c0,0.3,0.1,0.7,0.2,1.1c1.2,0.9,2.4,1.7,3.5,2.6
		c1.1,0.9,2.2,1.7,3.5,2.7c1-1.3,1.9-2.5,3-3.7c3-3.4,5.3-7.2,6.8-11.3C264.4,396,266.1,392.7,267.6,389.2z M254.7,465.8
		c0,0.8,0.1,1.4,0,2c-0.5,2.1-1.1,4.1-1.8,6.2c-0.2,0.7-0.7,1.3-1,1.9c-0.1,0.2-0.3,0.4-0.5,0.6c-1.2,1.4-2.7,2.1-4.6,1.2
		c-0.5-0.2-1.1-0.3-1.8-0.5c-0.5,1-1.1,1.8-1.4,2.7c-0.6,2.3-1.2,4.6-1.7,6.9c-0.6,2.7-0.8,5.4-0.6,8.2c0.1,0.8,0.2,1.7,1.3,1.9
		c1.4-0.5,2.2-1.5,3-2.6c1.2-1.5,2.4-3.1,3.3-4.8c2.2-4.2,4.5-8.5,6.4-12.9c3.4-7.9,6-16.1,7.2-24.6c0.3-1.9,0.2-3.8,0.2-5.7
		c0-0.6-0.6-1.2-0.9-1.8c-1.8,0.5-2.7,1.7-3.5,2.8c-2.1,2.8-4,5.7-6,8.6c-0.3,0.5-0.6,1.1-0.7,1.6c-0.6,2.2-1.2,4.3-1.9,6.7
		C251.4,464.7,252.9,465.2,254.7,465.8z M244.3,498.1c3.1,1.7,4.8,1.7,6.6-0.6c1.9-2.3,3.7-4.8,5.2-7.4c2.1-3.8,3.9-7.7,5.6-11.6
		c3.3-7.4,5.5-15,6.9-22.9c0.4-2.3,0.3-4.7,0.3-7.1c0-0.9-0.4-1.6-1.1-2.2c-0.9-0.7-1.8-1.6-3.3-1.3c0,0.9,0.1,1.7,0,2.5
		c-0.2,2.1-0.2,4.3-0.6,6.4c-1.9,10.3-5.5,20.2-10.1,29.7C251.4,488.9,248.7,494,244.3,498.1z M323.1,266.8c1,0.9,1.3,2.1,1.1,3.4
		c-0.6,3.2-1.2,6.3-1.7,9.5c-0.1,0.6-0.2,1.1-0.4,2.1c1.5-1.6,1.8-3.2,2.2-4.7c0.2-0.7,0.2-1.5,1-1.8c0.9-0.4,1.1-1.2,1.2-2.1
		c1.2-6,1.6-12,2.2-18.1c0-0.5,0.1-1,0-1.4c-0.1-0.5,0.3-1.1-0.4-1.5c-1.8,2.4-3,4.9-2.5,7.5c-0.9,1.3-1.6,2.2-2.3,3.2
		c-1,1.2-1.8,2.6-3,3.6c-1.1,1-2.4,1.6-3.2,2.9c-0.5,0.7-1.3,1.1-2.2,1.2c-0.6,0.1-1.2,0.2-1.9,0.3c-0.1,1.8-0.1,3.5-0.2,5.1
		c0,0.1-0.2,0.2-0.5,0.4c-0.2-0.5-0.3-1-0.5-1.4c-0.2-0.4-0.5-0.7-0.9-1.5c0,3.1,0,5.7,0,8.4c0.8,1.1,1.6,2.2,2.8,3.7
		c0.9-4.4,1.1-8.4,2-13c0.3,2.6,0,4.6-0.3,6.5c0.5,0.2,0.8,0.4,1.3,0.5c0.3,2.7-1,5.3-1.1,8.1c0.8,1.1,1.9,2,3.4,3
		c0.4-0.9,0.7-1.6,1-2.3c-0.6-0.7-1.2-1.3-1.9-2.1c0.9-3.2,1.9-6.3,2.7-9.6C321.7,273.5,322.3,270.1,323.1,266.8z M322.2,216.1
		c1.2-2.2,2.1-4.4,5.2-4.9c-3.1,2.9-3.7,4.1-3.2,6.7c3.1,0.7,3.8,1.3,5.2,3.9c0.4,0.8,0.8,1.7,1.4,2.9c0.1-0.9,0.3-1.4,0.3-1.9
		c-0.1-3.5-0.8-6.8-1.7-10.2c-0.2-0.9-0.7-1.8-1.1-2.6c-0.8-1.5-2-1.9-3.7-1.2c-2.3,1-4.1,2.6-5.4,4.8
		C320.2,214.5,321.1,215.2,322.2,216.1z M247.5,362.1c3.5-0.7,6.8-1.4,10.1-2.1c1.5-0.3,2.6-1.3,3.5-2.6c-2.2-0.2-4.2-0.2-6.1-0.5
		c-1.9-0.3-3.8-0.9-5.9-1.4C248.6,357.7,248.1,359.8,247.5,362.1z M249.8,475.9c1.4-0.8,2-2.3,2.4-3.7c0.5-1.6,1.5-3.3,0.9-5.1
		c-1.4-0.7-2.8-1-4.4-0.2c-0.2,0.7-0.3,1.4-0.5,2c-0.2,0.7-0.4,1.4-0.7,2c-0.3,0.8-0.8,1.5-1.2,2.2c-0.3,0.6-1.2,0.8-0.9,1.8
		C246.9,475.2,248.3,475.5,249.8,475.9z M245.5,425.9c0.9-1.2,1.9-2.4,2.7-3.7c1-1.4,1.9-2.7,2.7-4c-1.2-2.4-2.7-4.1-5.2-5.4
		C245,417.1,244.9,421.3,245.5,425.9z M213.3,476.7c0.5,0.7,0.8,1.4,1.3,1.9c1.6,1.7,2.6,1.6,4.1-0.2c0.2-0.3,0.3-0.7,0.6-0.8
		c1.9-0.9,2-2.7,2.5-4.3c-1.1-1.1-2.2-1.4-3.4-0.6c-0.9,0.6-1.9,1.1-2.7,1.8C214.9,475.1,214.1,475.9,213.3,476.7z M213.6,316.7
		c0.8,1.8,1.3,3.2,2,4.7c0.7,1.5,1.1,3,2.3,4.5c0.7-4.1-0.3-9-2.4-12.2C214.8,314.7,214.2,315.7,213.6,316.7z M320.6,206.3
		c-1.3,0.3-1.7,1.6-2.9,1.7c-0.3-0.7-0.5-1.2-0.7-1.9c-0.7,0.2-1.4,0.4-2,0.6c0.4,1.5,0.7,2.7,1,3.9c0.1,0.6,0.2,1.2,0.8,1.3
		c2.4-1.5,4.7-3,7.1-4.6c-0.7-0.3-1.4-0.6-2.1-0.8C321.4,206.3,320.9,206.3,320.6,206.3z M214.3,468.2c-0.3,0-0.5,0-0.6,0.1
		c-1.3,1.4-1.9,3.2-2.6,4.9c-0.4,1,0.1,1.8,1.3,2.2c0.7-0.9,1.5-1.8,2.2-2.7c-0.1-0.8-0.2-1.4-0.2-2.1
		C214.4,469.8,214.4,469,214.3,468.2z M230.8,477.7c-4.9,1.4-3.8,1.4-7.7,0c1,1.9,1.7,2.6,2.9,2.5
		C227.9,480,229.6,479.5,230.8,477.7z M309.9,277.2c-0.2-0.1-0.3-0.2-0.5-0.3c-0.5,0.6-1,1.2-1.6,1.9c0.5,0.3,0.8,0.5,1.3,0.9
		C309.4,278.7,309.6,277.9,309.9,277.2z M314.4,209c-2,1.5-2,1.5-0.7,2.3C314,210.5,314.2,209.7,314.4,209z M329.9,227.5
		c0.2-0.7,0.3-0.9,0.3-1.2c0-0.1-0.2-0.2-0.4-0.3c-0.1,0.1-0.2,0.2-0.2,0.2C329.7,226.6,329.7,226.8,329.9,227.5z M324.6,280.1
		l0.1-0.3l-0.2,0L324.6,280.1z M218.9,385.8c-0.1,0-0.2-0.1-0.3-0.1c0,0-0.1,0.2-0.1,0.2c0.1,0,0.2,0.1,0.3,0.1
		C218.9,386,218.9,385.9,218.9,385.8z M327.7,247.8c0-0.1,0-0.2-0.1-0.3c-0.1,0-0.2,0.1-0.2,0.1c0,0.1,0,0.2,0,0.3
		C327.6,247.9,327.7,247.9,327.7,247.8z"/>
	<path d="M678.8,49.9c-1.8,0.8-3.6,1.5-5.3,2.4c-1.7,0.9-3.4,1.4-5.2,1.8c-0.8,0.1-1.6,0.6-2.4,0.9c-3.9,1.5-7.9,2.9-11.8,4.4
		c-3.3,1.2-6.2,3-8.9,5.1c-2,1.6-3.9,3.3-5.8,5c-1.1,1-2.1,2-2.9,3.2c-1,1.6-2.4,2.6-4.1,3.5c-3.2,1.8-6.3,3.8-9.5,5.6
		c-2.7,1.5-5.5,2.9-8.1,4.4c-3.6,2.1-7.2,4.3-10.6,6.6c-2.7,1.8-5.7,2.9-8.9,3.4c-6.8,1.1-13.2,3.3-19.5,5.8
		c-5.2,2.1-9.7,5.3-14.2,8.5c-0.3,0.2-0.6,0.4-0.8,0.7c-1,2-3,2.8-4.9,3.6c-2.4,1-4.8,1.9-7.1,3c-4.7,2-8.4,5.1-11.1,9.2
		c-2.7,4-5.5,7.9-6.8,12.6c-0.6,2-1.9,3.9-2.3,6c-0.4,1.9,0.1,4,0.1,6c0,5.1,0,10.2-0.1,15.3c0,1.8,0.3,3.5,0.8,5.3
		c0.6,2,1.9,3.2,3.8,4c5.6,2.6,11.4,3.2,17.4,2c0.8-0.2,1.7-0.3,2.6-0.4c0.1,0,0.2,0.1,0.4,0.2c-3.4,1.8-7.1,1.9-10.8,2
		c-3.8,0.1-7.2-1.4-10.6-2.6c-0.7,0.7-0.3,1.3-0.1,1.8c1.4,3,2.8,6.1,4.3,9.1c0.6,1.2,1.4,2.3,1.3,3.7l0.1-0.1c-1.8-1.3-2.9-3.2-4-5
		c-2.5-4.1-4.6-8.4-6.1-13c-1.6-5-2.3-10-0.8-15.1c0.3-1,0.4-2.1,0.4-3.2c0.1-4.2-0.3-8.3,0.5-12.4c0.1-0.3,0.1-0.7,0-1.1
		c-0.8-6,0.1-11.9,1.4-17.7c0.1-0.5,0.3-0.9,0.3-1.4c0.1-5.6,0.4-11.2-1.7-16.6c-0.4-1-0.8-2-0.6-3.1c0.1-0.6-0.2-1.2-0.4-1.7
		c-0.8-1.8-1.6-3.5-2.4-5.2c-0.8-1.5-1.9-2.8-3.6-3.4c-2.3-0.9-4.4-2.2-6.5-3.5c-1.7-1.1-3-2.4-4-4.1c-0.8-1.3-1.3-2.8-3.1-3.9
		c0.4,4.6,0.5,8.9,1.4,13.1c0.9,4.3,1.9,8.6,2.3,13c0.4,4.4,0.2,8.8,0.1,13.2c-0.1,7.1-1.8,13.9-4.8,20.4c-2.3,4.9-4.2,9.9-5.1,15.5
		c-0.3-0.8-0.5-1.3-0.8-2.1c-1.2,1.6-2.3,3.1-3.6,4.9c-0.2-0.7-0.4-1-0.3-1.2c0.7-1.6,1.3-3.4,2.3-4.9c2.5-3.9,3.1-8.2,3.2-12.7
		c0-7.5,0-15,0.1-22.5c0-2.3,0.1-4.5,0.1-6.8c0-1.1,0-2.1-0.1-3.2c-0.1-0.9-0.2-1.8-0.4-3.2c0.6,0.5,1,0.6,1.1,0.8
		c0.6,2.8,1,5.6,0.9,8.5c-0.2,7.1,0,14.3,0,21.4c0,0.2,0.1,0.4,0.3,0.8c0.9-1.2,0.7-2.6,0.9-3.9c0.2-1.4,0.3-2.8,0.3-4.3
		c0.1-1.5,0-3.1,0-4.6c0-1.4-0.1-2.9-0.2-4.3c-0.1-1.4-0.2-2.8-0.4-5c1.7,3.4,1.9,6.3,2.1,9.1c0.2,2.6,0.1,5.2,0.1,7.8
		c0,1.2,0,2.4,0.2,3.6c0.8-1.2,1.2-2.5,1.2-3.9c0.4-6.9,1.1-13.8,0.6-20.7c-0.3-4.5-0.7-9-1.3-13.5c-0.4-3-0.1-6.1-0.7-9.2
		c-0.3-1.3-0.4-2.6-0.5-3.9c-0.1-1.4-0.2-2.8-0.2-4.2c0-2.9-0.4-5.6-2-8.6c-0.8,2.4-1.2,4.6-1.6,6.7c-0.8-3.9,1-7.6,1.2-11.7
		c0.7-0.1,1.5-0.4,2.1-0.2c4.4,1.7,9,2.7,13.7,3.5c0.7,0.1,1.4,0.4,2.9,0.9c-4.4,0.1-7.8-0.9-11.3-1.5c2.2,2.1,5.6,3.2,13,4.3
		c-1.6,0.2-2.9,0.4-4.3,0.4c-1.4,0.1-2.7,0-4.3,0c0.4,0.8,1.2,1,1.9,1.3c0.7,0.3,1.3,0.6,2,0.9c0.8,0.3,1.7,0.5,2.5,0.8
		c0.7,0.2,1.4,0.5,2.8,0.9c-1.4,0-2.1,0.1-2.7,0c-1.6-0.3-3.1-0.7-4.7-1.1c-4.1-1.2-7.3-3.4-9.6-6.9c-0.6-1-1-2.2-2.6-2.7
		c-0.1,2.2,0.3,4.1,1.6,5.8c0.4,0.6,0.9,1.1,1.2,1.8c1.2,3,2.9,5.8,4.5,8.6c1.7,3.1,4.1,5.3,7.3,6.9c1.4,0.7,3,1.1,4.5,1.7
		c1.1,0.4,2.4,0.6,3.4,1.8c-0.2,0.4-0.4,0.9-0.7,1.6c1.1,2.1,2.2,4.4,2.3,6.9c0.1,1.5,0.7,3,1.3,4.5c1.5,4,2,8.1,1.5,12.3
		c-0.1,0.8,0,1.6,0,2.5c0.3-0.1,0.6-0.1,0.8-0.2c3.4-3.7,8.3-4.6,12.9-5.8c0.6-0.2,1.2-0.1,1.9-0.1c1.1,0,1.4,0.7,1.7,1.5l-0.3,0.1
		l0.2-0.1c1-0.7,2.1-1.3,3-2c1-0.8,2.1-1.2,3.3-0.5c1.3-1.1,2.5-2.1,3.7-3.2c0.4-0.3,0.6-0.7,1.1-1.2c-0.2-2.5,0.1-5.1,0.9-7.6
		c1.1-3.5,3.7-5.2,7.1-6.1c2.4-0.7,4.8-1.2,7.2-1.9c2-0.6,2.7-1.7,1.9-3.6c-1-2.3-1.6-4.4-0.8-6.8c0.3-0.9-0.3-1.9-1.7-2.1
		c-0.6,0.4-1.2,0.9-2,1.3c-0.5,0.3-1.2,0.4-1.7-0.1c-0.3-0.3,0-1,0.7-1.4c0.9-0.4,1.8-0.8,2.7-1.3c0.6-0.4,1-0.9,1.7-1.5
		c-0.6-1.1-1.2-2.1-1.7-3c-1-0.3-1.8-0.5-2.6-0.7c0.2-0.4,0.2-0.6,0.4-0.7c2.2-1.1,4.4-2.1,6.5-3.7c-0.1-0.6-0.2-1.1-0.3-1.7
		l-0.1,0.1c0.7,0,1.3,0.1,1.5,0.8c0.1,0.5,0.1,1.3-0.2,1.7c-1,1-2.2,1.9-3.4,2.9c-1,1.7,0.9,2.7,1.4,4.2c-0.3,0.7-0.7,1.4-1.1,2.2
		c0.5,0.9,1.4,1.7,1.6,2.7c0.2,1-0.2,2.1-0.4,3.4c0.7,1.6,1.8,3.3,1.9,5.3c-1.1,2.3-3.1,3.5-5.3,4.3c-1.9,0.7-3.8,1.3-5.6,1.9
		c-0.9,0.3-1.9,0.7-2.7,1.1c-1.3,0.6-2.1,1.7-2.4,3.1c-0.3,1.4-0.5,2.8-0.8,4.2c0.8,0.4,1.1-0.3,1.5-0.6c7.9-6.3,17.1-9.5,27-11.5
		c2.3-0.5,4.6-0.9,6.9-0.3c1.2-1,2.3-2,3.5-2.7c5.3-3.1,9.3-7.4,13.4-11.8c3.3-3.7,7-7.1,10.8-10.3c2.1-1.8,4.7-3.1,7.6-3.7
		c1.7-0.4,3.3-1,4.9-1.8c3.6-1.7,7.1-3.5,10.7-5.1c1.9-0.9,3.9-1.6,5.9-2.2c4.2-1.2,8.4-2.3,12.5-3.5c1.1-0.3,2.1-0.7,3.1-1.3
		c3.7-2.4,7.4-4.8,11.1-7.3c0.2-0.1,0.3-0.4,0.5-0.6c-0.4-0.9-0.8-1.9-1.1-2.9c-2.8-8.9-2.2-17.3,3-25.4c1.7-2.7,4.1-4.7,7-6.3
		c3.9-2.1,8-3.2,12.5-3.1c1.6,0,3.2-0.1,4.9-0.1c1.9,0,3.7,0.1,5.2,1.4c2.4-0.9,4.5-2,6.8-2.4c2.3-0.4,4.7,0.1,7,0.1
		c5.6-0.1,10.5,1.8,14.7,5.2c2.9,2.3,5.3,5.1,6.7,8.4c1,2.3,2,4.6,3,6.9c1.4,3.3,1.9,6.6,0.7,10.1c-0.2,0.7-0.5,1.4-0.5,2.1
		c0.2,4.2-1.8,7.7-4.1,10.9c-4,5.7-9.4,10-16.7,11.1c-6.1,0.9-12.2,0.6-17.8-2.4c-0.5-0.3-1.1-0.6-1.7-0.9c-1.6,0.7-3.3,0.9-5.1,0.4
		c-0.7-0.2-1.5,0-2.2-0.1c-2.2-0.1-4.4-0.2-7-0.4c-2,1.3-3.8,3.5-5.9,5.4c-1.2,1.2-2.3,2.5-4,3.2c-0.4,0.2-0.8,0.6-1.1,0.9
		c-2.7,2.4-5.5,4.8-8.2,7.3c-1.5,1.3-2.9,2.6-4.2,4c-2.4,2.6-5.3,4.7-8.2,6.8c-0.5,0.4-1,0.7-1.6,0.9c-3.9,1.9-7.8,3.7-11.7,5.6
		c-1.1,0.5-2.1,0.6-3-0.1c-1.3,0.5-2.6,0.9-3.9,1.5c-1.1,0.5-2.2,1-2.5,2.4c-0.2,0.7-1,1.3-1.7,1.9c-2.2,2-4.3,4-6.5,5.8
		c-2.2,1.9-4.5,3.8-7,5.4c-4.9,3.3-9.9,6.4-14.9,9.5c-1.9,1.2-3.9,2.2-5.9,3c-1.9,0.8-3.4,2-4.6,3.5c-1.2,1.5-2.4,3-3.8,4.4
		c-2.3,2.5-4.9,4.7-8,6.5c-0.4,1-0.8,2.1-1.3,3.3c0.7,0.4,1.3,0.8,2,1.1c0.8,0.3,1.7,0.4,2.4,0.9c4.8,2.8,9.8,5.2,14.1,8.6
		c2.6,2,4.4,4.6,6.2,7.1c0.2,0.3,0.4,0.6,0.4,1c0.7,4.7,1.6,9.4,0.2,14.2c-0.3,1.1-0.5,2.3-0.8,3.7c-1.9,1.6-4,3.3-6,5
		c-0.1,6.2,0.2,8.4,1.9,14.4c0.5,1.6,1,3.2,1.5,4.8c0.9,2.7,1.7,5.4,1.6,8.4c0,2,0.5,4,0.8,6c0.5,3.7,1.1,7.3,1.6,11
		c0.2,1.4,0.7,2.8,0.6,4.2c-0.2,6.1,0.9,8.2,2.1,12.8c0.6,2.4,0.9,4.9,1.2,7.4c0.3,3,0.5,5.9,0.7,8.9c0.1,0.8,0.3,1.6,0.4,2.4
		c0.1,0.8-0.2,1.5,0.4,2.3c0.7,0.8,0.3,1.8,0.2,2.8c-0.4,3.3-1.3,6.5-1,9.9c0.1,1.6,0.4,3.2,1,4.8c1,2.7,1.4,5.5,1.9,8.3
		c0.8,5.1,1.9,10,3.7,14.9c1.4,3.8,2.3,7.8,3.5,11.6c0.1,0.3,0.3,0.8,0.2,1c-1.2,2.9,0.1,5.6,0.6,8.4c0.7,4.8,1.3,9.7,1.4,14.5
		c0,2.6,0.4,5.2,0.3,7.8c-0.1,7.7-0.4,15.5-1.8,23.1c-0.5,2.8-1.1,5.6-1.6,8.4c-0.2,1.3-0.3,2.6-0.3,3.9c-0.2,8.3-2.5,16.2-5.4,23.9
		c-0.3,0.8-0.8,1.4-1.6,2.1c0.1-0.6,0-1.3,0.2-1.9c1.1-4.8,2.2-9.5,3.2-14.3c0.4-2,0.7-4,1.1-6c0.5-2.8,1.1-5.6,1.5-8.4
		c1-8.9,2.1-17.7,2.2-26.7c0.1-5.7,0.1-11.4,0-17.1c0-2-0.1-4-1.1-6c-3,2.7-6.4,4.3-10.1,5.5c-4.2,1.4-8.4,2.9-12.9,3.7
		c-2.2,0.4-4.4,0.6-6.7,0.5c-2-0.1-4-0.1-6.2-0.2c0.4-0.3,0.6-0.5,0.7-0.4c4.1,0.3,7.9-0.8,11.7-1.9c5.1-1.6,10.1-3.3,15.2-5
		c1.5-0.5,3-1.2,4.4-1.9c1.3-0.7,2.5-1.6,3.8-2.4c-0.8-4.7-1.5-9.4-2.3-14.1c-0.4-2.5-1-4.9-2-7.2c-1.6-3.9-2.4-8-3.2-12.1
		c-0.9-4.9-1.9-9.7-2.2-15c-0.7,0.8-1.2,1.3-1.9,2.1c0.6-4,1.1-7.7,1.6-11.5c0.2-1.5,0.3-3.1,0.3-4.6c0-0.5-0.3-1.1-0.5-1.7
		c-1.7,0.1-3.3,0.3-4.9,0.4c-1.5,0.1-3,0.2-4.5,0.2c-1.9,0-3.7,0-5.6-0.1c-1.2-0.1-2.5-0.1-3.4-1.2c-0.3-0.4-1.1-0.5-1.7-0.6
		c-5.9-0.9-11.8-1.8-17.7-2.6c-4.4-0.6-8.9-1.1-13.3-1.6c-0.7-0.1-1.5-0.2-2.2-0.4c-1.7-0.7-3.4-0.6-5.3-0.1c-1,1.5-2,3.1-3.1,4.7
		c-1.2,1.7-2.4,3.3-3.6,5c-0.7,1-1.3,2-2,3c-1,1.6-2,3.3-3.2,4.8c-3.6,4.5-7.3,9-11,13.5c-0.4,0.5-0.8,0.9-1.2,1.3
		c-0.6-0.7,0-1.2,0.2-1.7c1.4-3.3,3.7-6.2,5.8-9.1c1.5-2,3.1-4,4.7-6c1.7-2.2,3.4-4.4,4.7-6.8c1.8-3.2,3.7-6.5,6-9.4
		c1.8-2.3,2.7-4.8,3.1-7.5c0.6-3.3,1-6.6,1.1-9.9c0.2-5.4-1.6-10.3-5.1-14.6c-3.4-4.1-6.6-8.3-10.4-12.2c-2.7-2.8-4.9-6-6.7-9.4
		c-0.6-1.1-1.1-2.4-1.7-3.7c0.6-0.3,1-0.5,1.5-0.7l-0.1-0.1c1,4.2,3.2,7.6,7.4,9.7c1.4-0.7,2.8-1.4,4.2-2.2c6-3.2,12.6-5,19.2-6.7
		c2.3-0.6,4.5-1.3,6.6-2.3c8.4-4.4,17.5-5.3,26.8-4.7c0.6,0,1.2,0.2,1.8,0.3c0.5,0.1,0.9,0.4,1.2,0.6c0.3,1.1-0.3,1.5-1.1,1.5
		c-2.5,0.1-5,0-7.5,0.1c-5.3,0-10.4,0.9-15.5,2.1c-5.1,1.2-9.9,3.2-14.6,5.3c-1.5,0.7-2.9,2-4.8,1.2c-0.4-0.1-0.9,0.2-1.4,0.3
		c-4.8,1.7-9.3,4-13.6,6c-0.4,1.1,0.3,1.6,0.7,2.1c4.6,5.3,9.2,10.7,13.8,16c1.5,1.7,3.2,3.3,4.2,5.3c-0.5,0.6-0.9,0.3-1.3,0
		c-0.8-0.6-1.5-1.2-2.2-1.9c-0.6,0.8,0,1.4,0.1,2.1c0.1,0.7,0.4,1.4,0.5,2.1c0.7,2.9,1.1,5.9,0.4,8.8c-0.6,2.2-1.2,4.4-1.7,6.6
		c-0.3,1.3-0.5,2.5-0.8,4c0.8,0.1,1.4,0.3,2,0.3c1.6,0,3.1,0.3,4.7,0.9c1.6,0.7,3.6,0.8,5.4,0.9c7.4,0.5,14.5,2,21.7,3.4
		c0.2,0,0.5,0.1,0.7,0.2c4.9,1.7,9.9,2,15.1,1.7c2.3-0.1,4.7-0.1,7.2-0.2c0.4-1.7,0.2-3.3,0-4.7c-0.9-6.4-0.7-13.1-3.1-19.7
		c-0.2,1.3-0.3,2.2-0.5,3.1c-0.8-3.2-1.9-6.4-0.1-9.5c0.3-0.5,0.2-1.2,0.1-1.7c-0.2-1.4-0.4-2.8-0.8-4.2c-1.7-6.2-2.8-12.5-2.9-19
		c0-1.4-0.5-2.8-0.9-4.2c-0.9-3.1-1.9-6.2-2.7-9.3c-0.6-2.5-1-5.1-1.5-7.7c-0.2-0.9-0.4-1.8-0.7-2.8c0.3-1.3,1.6-2.1,2.6-2.8
		c1.4-1.1,2.3-2.4,3-4c1.3-3,2-6.1,2.3-9.3c0.3-3.4-0.4-6.8-2.7-9.4c-2.7-3.1-6.1-5.6-9.7-7.7c-1.3-0.8-3-1-4.5-1.6
		c-4.3-1.5-8.6-3.3-12.5-5.5c-0.4-0.2-0.9-0.3-1.6-0.5c0,0.6-0.1,1.1,0,1.5c0.7,2.4,1.6,4.7,2.2,7.2c1.8,7.2-0.3,13.4-5.5,18.7
		c-3,3.1-6.4,5.6-10.4,7.5c-3.2,1.5-6.4,3-9.5,4.5c-0.8-0.5-0.7-0.9-0.3-1.2c0.4-0.3,0.8-0.5,1.3-0.7c7.2-2.6,13-7,17.9-12.5
		c4-4.6,5.5-10.1,4.5-16c-0.2-1.2-0.5-2.3-0.7-3.4c-0.9,0-1,0.4-1,0.9c-0.1,1.3-0.1,2.6-0.6,3.9c-0.1-0.5-0.3-0.9-0.3-1.4
		c0.2-3.4,0.4-6.9,0.7-10.3c0.2-2.2,1.3-4.1,3.1-5.5c4.5-3.4,9-6.8,14.3-9c1.6-0.6,3.4-1,4-2.8c1.7-0.8,2.7-2.8,5-2.8
		c0.8,0,1.6-0.7,2.3-1.1c5.7-3.6,11.5-7.1,17.2-10.8c3.1-2,6.2-4,9.2-6.1c2.1-1.5,4.1-3.1,6.1-4.7c0.3-0.3,0.7-0.8,0.7-1.2
		c-0.1-0.8,0.4-1.1,0.9-1.4c2-1,3.9-2,6-3.1c0.3,0.1,0.8,0.3,1,0.5c2.3-0.8,4.5-1.6,6.7-2.4c0.2-0.1,0.6-0.1,0.7-0.2
		c2.2-2.2,5.4-2.9,7.7-4.9c1.1-0.9,2.4-1.7,3.1-3c0.4-0.8,1.4-1.4,2.1-2c6.2-5.2,12.4-10.3,18.5-15.6c3.3-2.9,6.3-6.1,9.9-8.7
		c1.6-1.1,3.2-2.2,4.7-3.3c-0.2-1.4-1.1-0.6-1.7-0.6c-0.1-0.2-0.3-0.5-0.2-0.6c0.5-0.9,0.8-1.7,0.2-2.7c-0.4-0.7-0.6-1.6-1-2.3
		c-0.8-1.4-1.1-2.9-1-4.5c0-0.3-0.2-0.6-0.3-1.1c-0.5,0.3-1.1,0.4-1.4,0.7c-1.3,1.6-3.1,2.3-4.8,3.2c-3.9,2.1-7.9,4.1-11.7,6.2
		c-0.9,0.5-1.7,1.2-2.6,1.9l0.1-0.1c-0.1,0.1-0.2,0.2-0.2,0.3C678.7,49.6,678.8,49.8,678.8,49.9L678.8,49.9z M597.4,125.8
		c-0.2,0.2-0.5,0.5-0.7,0.7c-0.4,0-0.8-0.1-1.1,0.1c-4.2,2.6-8.3,5.2-12,8.3c-0.5,0.4-0.8,1.1-1.3,1.8c0.7,0.4,1.2,0.8,1.7,1
		c0.5,0.2,1.1,0.3,1.7,0.5c0.7-1.8,1.8-3,3.1-4.1c2.8-2.3,5.6-4.7,7.6-7.7C596.8,126.1,597.1,125.9,597.4,125.8
		c0.1-0.1,0.1-0.1,0.2-0.2C597.5,125.6,597.4,125.7,597.4,125.8z M711.7,10c-0.5,0-0.9,0.1-0.7,0.7c-0.5,0.1-1,0.1-1.3,0.4
		c-1.3,1.2-2.7,2.4-3.8,3.9c-7,9.7-7.6,20-2.4,30.6c1.6,3.4,3.9,6.3,7.1,8.5c0.6,0.4,1.3,0.5,2,0.8c0.2,0.3,0.4,0.6,0.7,0.8
		c0.2,0.1,0.5,0.2,0.3,0.1c0.2,0-0.1,0-0.4,0c0.2-0.5-0.1-0.8-0.7-0.8c-0.6-0.7-1.2-1.5-1.9-2.1c-1.8-1.8-3.4-3.8-4.6-6
		c-2.3-4.2-3.5-8.7-3.7-13.3c-0.3-8,2-15.3,7.7-21.4c0.4-0.4,0.7-1,1-1.4C711.4,10.6,711.7,10.4,711.7,10c0.4-0.1,0.8-0.3,0.6-0.9
		c0.3,0,0.6-0.1,0.4,0c0.2-0.1-0.1,0-0.3,0.1C712.2,9.4,712,9.7,711.7,10z M590.6,140.5l0.1,0.2L590.6,140.5
		c-0.6-0.1-1.1-0.3-1.6-0.5c0-1.1-0.7-1.3-2.3-1.2c0.8,0.5,1,0.7,1.4,0.8c0.3,0.1,0.7,0.2,1.1,0.3
		C589.6,140.1,590.1,140.3,590.6,140.5z M545.8,117.2c-0.5,0-1-0.2-1.5-0.1c-2.9,1-5.9,1.9-8.6,3.3c-2.6,1.3-4.5,3.3-5.1,6.2
		c-0.7,3.1-1.3,6.3-1.3,9.5c0,0.1,0.1,0.1,0.3,0.4c0.9-1.6,1.7-3.2,2.5-4.8C535.2,125.5,539.2,120.3,545.8,117.2
		c-0.1-0.2,0-0.2,0-0.3C545.9,117,545.8,117.1,545.8,117.2z M639.2,65.7c-3.9,0.4-7.3,2-10.8,3.6c-0.7,0.3-1.3,0.8-1.8,1.3
		c-3.3,3.4-6.6,6.7-9.9,10.2c-0.2,0.3-0.9,0.6-0.2,1.2c2.3-1,4.7-2,7.1-3c1.5-0.6,2.9-1.2,4-2.5c1.1-1.3,2.7-2,4.4-2.6
		c0.8-0.3,1.6-0.5,2.4-0.7c0.8-3.1,0.8-3.1,3-5.2C638,67.1,638.5,66.3,639.2,65.7c0.1-0.2,0.8,0,0.2-0.5
		C639.4,65.3,639.3,65.5,639.2,65.7z M726.8,58.5c5.3-0.1,10-1.6,13.9-5.1c3.7-3.2,6.5-7,8-11.8c1.6-4.8,2.3-9.4,1.2-14.3
		c-1.1-4.9-2.8-9.6-6.3-13.5c-8.1-9.2-21.4-10.9-31.4-2.2c-1,0.9-1.9,1.9-2.8,2.9c-8.5,10.6-8,26.6,1.2,36.7
		C714.9,55.8,720.3,58.2,726.8,58.5z M685.8,41.8c4.5-2.8,9.7-3.9,13.3-7.8c-1-9.3,2.6-17.1,9.4-24.1c-1.5-0.1-2.7-0.1-3.9-0.3
		c-4-0.6-7.6,0.7-11,2.5c-1.5,0.8-2.8,2-4.2,2.9c-1.9,1.2-2.9,2.8-3.8,4.7c-2.3,5.1-2.8,10.3-2,15.7
		C683.8,37.5,684.1,39.7,685.8,41.8z M698,8.8c-1.4-0.4-2.3-0.4-3.2,0.1c-1.2,0.6-2.5,1.2-3.7,1.6c-2.4,0.9-4.3,2.4-5.7,4.4
		c-6.1,8.5-6.9,17.6-2.9,27.1c0.2,0.4,0.6,0.6,1.1,1.1c0.2-0.6,0.5-0.9,0.5-1.2c-0.2-0.9-0.6-1.8-0.8-2.7c-2-7-1.6-13.8,1.5-20.5
		c1.8-4.1,4.9-6.8,9.2-8.3C695.1,9.8,696.4,9.4,698,8.8z M699.4,54.6c2.6,0.7,5.1,1.2,7.7,1c0.6,0,1.3,0.1,1.5-0.8
		c-1.2-1.4-2.5-2.8-3.8-4.4C703,51.8,700.7,52.5,699.4,54.6z M710,8.9c-0.2-0.2-0.4-0.5-0.7-0.6c-0.3-0.1-0.6,0-1,0
		c0.1,0.2,0.2,0.4,0.4,0.6C709.1,9.2,709.5,9.3,710,8.9z M703.7,8.2c-0.1,0-0.1-0.1-0.2-0.1c-0.1,0-0.2,0-0.3,0
		c0.1,0.1,0.1,0.2,0.2,0.2C703.5,8.3,703.6,8.2,703.7,8.2z"/>
	<path d="M596.5,322c0.3,1.1-0.4,1.8-0.9,2.6c-1.6,3-3.2,5.9-4.7,8.9c-0.4,0.8-0.8,1.8-0.9,2.7c-0.9,5.3-1.6,10.6-2.5,15.8
		c-0.2,1.3-0.5,2.6-0.8,3.9c-1.3,5.4-2.7,10.9-4,16.3c-0.2,1-0.4,2.2-0.2,3.2c1.1,5.2,2.3,10.5,3.6,15.7c0.5,2.1,1.7,4,2.1,6.1
		c0.4,2,0.3,4,0.4,6c0.4,5.1,0.7,10.2,1.1,15.3c0.3,3.2,0.7,6.4,2.2,9.3c1.3,2.5,2.6,5.1,3.9,7.7c0.4,0.8,0.8,1.7,0.1,2.9
		c-0.7-1.3-1.3-2.3-1.9-3.4c-1,0.3-1.1,0.9-1.1,1.5c0,3.1,0,6.2-0.1,9.3c-0.1,5.4-0.3,10.7-0.3,16.1c0,2.2,0.1,4.6,0.6,6.7
		c1.3,5.2,2.9,10.3,5.4,15.2c1.3,2.6,2.8,5,4.2,7.5c0.8,1.4,1.4,2.8,1.4,4.6c-0.1,1.9,0.8,3.9,1.3,5.9c0.8,2.6,1.3,5.3,1.6,8
		c0.7,5.1,1.5,10.1,2.3,15.2c0.1,0.4,0.4,0.9,0.8,1.8c0.3-1.4,0.5-2.4,0.7-3.8c1.5,2.7,1.9,5.1,1.8,7.6c0,1.4-1.4,1.4-2.5,2
		c0.9,2.3,1.5,4.7,3.5,6.6c1.9,0.2,3.4-0.5,4.4-2c1.1-1.5,2.1-2.9,2.7-4.7c0.4-1.3,1.3-2.5,2.1-3.8c0.7-1,1.5-1.9,2.4-3
		c0.6-0.1,1.4-0.3,2.2-0.4c0.1-0.3,0.3-0.5,0.2-0.7c-1.8-8.3-2.1-16.7-2.5-25.2c-0.1-1.9-0.3-3.8-0.4-5.7c-0.4-8.3-0.7-16.6-1-25
		c-0.1-3.2-0.4-6.4-0.5-9.6c0-0.5-0.2-1,0-1.4c1.3-4.5,0.2-9-0.4-13.4c-0.5-4.2-1.5-8.4-2.3-12.5c-0.6-0.4-1.1-0.7-1.7-1.2
		c0.5-1.2,0.7-2.5,1.4-3.4c0.9-1.3,1.2-2.6,1.3-4c0.3-4.5,0.5-9,0.8-13.5c0-0.7,0.1-1.4,0.6-2.1c0.1,0.5,0.3,1,0.3,1.5
		c0,1.4,0.3,2.8,0.6,4.2c0.4,1.6,0.3,3.3,0.3,4.9c-0.1,1.7-0.5,3.3-0.6,5c-0.1,2.4-0.6,4.7-2,6.6c1.7,5.2,3.5,10.3,3.8,15.7
		c0.2,3.7,0.3,7.4,0.5,11.1c0.2,4.8,0.5,9.5,0.7,14.3c0.1,2.9,0.3,5.7,0.3,8.6c0.1,6.7,0.1,13.3,0.3,20c0.2,5.6,0.7,11.2,1.6,16.7
		c0.5,2.7,0.8,5.4,1.3,8.1c0.1,0.6,0.4,1.1,0.5,1.6c2.2,1.3,3.9-0.3,6-0.6c0.4,0.4,1.2,0.8,1.4,1.4c0.8,2.5,2.3,4.7,3.4,7.1
		c0.9,1.8,1.8,3.6,2.6,5.5c1.8,4.1,4.9,7.1,9,9.2c1.7,0.8,3.4,1.5,5.1,2.3c0.8,0.4,1.8,0.5,2.3,1.1c1.9,2.1,4.4,2.2,6.9,2
		c3-0.3,5.3,0.9,7.5,2.6c0.4,0.3,0.8,0.6,1.1,1c2.4,3.7,4.1,7.6,3.3,12c-0.9,0.7-1.2-0.2-1.8-0.4c-2.9,2.2-6.5,3.2-10.1,3.9
		c-3.4,0.7-6.8,1.4-10.1,2.3c-4.3,1.2-8.6,1.4-12.9,0.2c-2.4-0.6-4.9-1-7.3-1.6c-1.9-0.5-4-0.8-4.5-3.2c-0.1-0.3-0.5-0.5-0.8-0.7
		c-1.6-1.1-3.3-2.1-4.9-3.1c-2.5,0.4-5,0.8-7.4,1.2c-3.9,0.7-7.7,0.2-11.4-0.8c-0.8-0.2-1.7-0.5-2.5-0.6c-3-0.4-5.2-2-6.7-4.1
		c1.1-3.2,2.4-6,3.1-9c0.9-3.8,1.2-7.8,0.7-11.7c-0.3-2.5-0.1-5,0.5-7.4c0.1-0.3,0.7-0.5,1.3-0.9c0.3,1.9,0.6,3.3,0.7,4.9
		c0.1,3.8,0.3,7.6-0.1,11.4c-0.3,3.8-1.4,7.5-2.7,11.1c-0.2,0.6-0.9,1.1-1.3,1.6c0.6,1,1.3,1.9,2.5,1.8c1.5-0.2,2.7,0.4,3.9,0.9
		c3.1,1.5,6.5,1.7,9.9,1.5c2.1-0.1,4.1-1,6.1-1.4c1.7-0.4,3.3-1.1,5.3-0.7c0.4,0.5,0.8,1.3,1.4,1.8c0.5,0.5,1.2,0.8,1.9,1.2
		c2.9,1.7,5.7,3.5,8.7,4.9c1.9,0.9,3.9,1.6,6,1.8c2.9,0.4,5.9,0.3,8.9-0.4c4.4-1.1,8.9-2.1,13.4-3.2c2.9-0.8,5.8-1.6,8.1-3.7
		c-0.4-2.8-1.5-5.5-2.8-8c-0.9-2-2.7-3-5.1-2.9c-1.2,0-2.5,0.1-3.7,0c-2.2-0.1-4.2-0.6-5.9-1.9c-2.1-1.6-4.6-2.4-7.1-3
		c-1,0.6-2,1.4-3.2,1.9c-1.1,0.5-2.3,0.7-3.6,0.9c-0.6,0.1-1.3-0.2-1.4-0.9c-0.1-0.7,0.2-1.2,0.8-1.5c0.9-0.5,1.8-0.8,2.7-1.3
		c0.4-0.2,0.8-0.5,1.3-0.9c-0.4-0.5-0.6-0.9-0.9-1.2c-0.5-0.5-1.1-1-1.5-1.4c-3.8,0.3-7.1,2.7-11,1.9c1.1-2.3,1.1-2.3,8.3-4.5
		c0.2-0.8-0.3-1.1-0.9-1.1c-0.6,0-1.2,0.3-1.8,0.4c-2.3,0.4-4.6,0.9-7,1.3c-0.6,0.1-1.2,0.2-1.8,0.3c-0.6,0.1-1,0.7-1.9,0.5
		c1.1-1.9,2.4-3.2,4.4-3.8c1.2-0.3,2.4-0.6,3.6-0.9c1.2-0.3,2.4-0.6,3.8-1c-0.5-0.8-0.9-1.4-1.2-1.9c-6.3,0.3-11.3,3.2-16.2,6
		c-1-0.9-0.7-1.8-0.1-2.4c1.2-1.2,2.6-2.2,4-3.2c1.2-0.8,2.8-1,3.8-2.2c0.2-0.3,0.9-0.3,1.4-0.3c1.8-0.3,3.7-0.5,5.7-0.8
		c-0.7-2.9-2.1-5.2-3.1-7.9c-2.1,1-4.1,1.9-6.2,2.9c-0.4-0.3-0.8-0.8-1.4-1.3c-1-0.7-1.9-0.8-2.6,0.1c-1.4,1.5-2.7,3-3.2,5.1
		c-0.7,2.6-2.5,4.7-4.5,6.4c-1.5,1.3-3.5,1.6-5.7,1.3c-1.1-1.8-2.5-3.6-3.3-5.5c-0.8-1.9-0.9-4.1-2-5.9c-1.9,0.2-0.6,2.4-2.3,2.7
		c-1.3-1-0.6-2.5-1.1-4c1.2-0.2,2.1-0.3,3-0.5c0.1-0.2,0.3-0.4,0.3-0.6c-0.8-5.7-1.7-11.3-2.5-17c-0.2-1.4-0.6-2.8-0.1-4.2
		c0.2-0.5,0-1.2-0.1-1.8c-1.2-3.9-2.3-7.8-3.6-11.6c-0.7-2-1.6-4-2.7-5.9c-3-5.5-5.1-11.4-6.8-17.4c-0.8-2.9-1.7-6-0.6-9.1
		c0.2-0.6,0-1.4,0-2.1c-0.1-4-0.3-8.1-0.4-12.1c-0.1-4.4,0.1-8.8,0-13.2c-0.1-1.8-0.4-3.6-1-5.2c-1.3-3.4-1.7-7-2-10.5
		c-0.5-5.8-1-11.6-0.9-17.5c0-1-0.2-2.2-0.6-3.1c-2.2-5.1-3.3-10.5-4.3-15.9c-0.1-0.7-0.3-1.4-0.4-2.1c-0.9,0-1.1,0.6-1.2,1.2
		c-1.5,4.8-3.6,9.4-5.7,14c-0.7,1.5-1.2,3.1-1.1,4.8c0,1.1-0.3,2.4-0.8,3.4c-2.8,6.6-6.8,12.4-12.4,17.2c-1.7,1.5-2.9,3.1-3.3,5.4
		c-0.5,2.6-1.5,5-2.3,7.5c-0.2,0.7-0.5,1.4-1,1.9c-2.8,2.7-4.4,6.3-7.6,8.8c-1.3,1-2.3,2.5-3,4c-0.9,1.9-1.5,4.1-1.8,6.1
		c-1.1,7-2.6,13.8-4.9,20.5c-0.7,1.9-1.1,3.9-1.2,5.9c-0.1,1.6-0.5,3.3-1.1,4.9c-2.3,6.8-4.8,13.5-7.1,20.3
		c-0.8,2.2-1.5,4.6-1.7,6.9c-0.5,5.6-1.4,11.1-1.1,16.7c0.2,3.8,0.4,7.6,0.7,11.3c2,1.8,3.8,3.6,5.6,5.3c0.4,0.4,0.8,0.9,1.2,1.4
		c2.2,3.3,4.4,6.6,6.6,9.9c1.2,1.8,2.3,3.7,3.3,5.6c0.8,1.6,2,2.7,3.5,3.7c1.6,1,3.2,1.8,4.8,2.7c0.8,0.5,1.6,1.1,2.4,1.6
		c0.6,0.4,1.3,0.7,2,0.9c3.7,1,7.4,2.2,11.1,2c3.8,2.9,5.5,6.7,6.5,10.8c0.4,1.7,0.6,3.5-0.2,5.1c-0.7,0.7-1.3,0.1-2.1,0.1
		c-0.8,0.4-1.7,1-2.7,1.5c-3,1.8-6.2,3.1-9.5,4.2c-2.9,0.9-5.8,1.6-8.8,1.3c-4.5-0.4-9-0.2-13.4,0c-3.3,0.2-6.5,0-9.6-1.1
		c-0.6-0.2-1.2-0.4-1.8-0.4c-4.6-0.5-8.6-2.3-12.3-4.9c-4.3,0.9-8.6,0.7-12.9-0.1c-2.8-0.5-5.5-1.6-8-3c-1.2-0.7-2.3-1.5-2.8-2.8
		c-0.2-0.5-0.2-1.1-0.2-1.7c0.9-0.3,1.5-0.5,2.3-0.7c0.4-2.8,1.5-5.4,1.5-8.4c0-1,0.3-2.2,0.9-3c1.3-1.9,1.4-3.8,0.9-5.8
		c-0.5-2.5-0.4-4.9,0.6-7.3c0.5-1.3,0.2-2.8,0.5-4.2c0.4-1.3,1.6-2.4,1.6-3.9c1.3-0.6,2.6-0.2,4-0.1c0.8-0.4,0.8-1.3,0.9-2.1
		c0.4-4.6,0.8-9.2,1.2-13.9c0.1-0.8-0.1-1.7-0.1-2.5c-0.4-5.9-0.7-11.9-1-17.8c-0.1-2.4-0.3-4.7-0.4-7.1c-0.1-1.3-0.2-2.6,0-3.9
		c0.5-3,0.2-5.9-0.3-8.9c-0.2-1.5-0.4-3.1,0.4-4.5c0.2-0.4,0.2-0.9,0.2-1.4c0-2.3,0.1-4.5-0.1-6.8c-0.5-4.7,0.2-9.3,0.9-13.9
		c0.5-3.4,1.1-6.8,1.7-10.2c0.8-4.6,2.6-8.9,4.9-13c0.8-1.5,1.5-3,2.3-4.5c1.6-3.1,2.9-6.3,4.7-9.3c3.7-6.1,6.7-12.5,9.9-18.8
		c0.8-1.6,1.4-3.3,2.1-5c0.4-0.9,0.8-1.8,1.1-2.6c0.4-1.1,0.9-2.2,1.3-3.3c0.2-0.4,0.1-1,0.3-1.4c1.3-2.9,1.2-6,1.2-9.1
		c0-6.1,0.5-12.1,1.1-18.2c0.4-3.4,0.6-6.9,0.8-10.3c0.4-5,1.3-9.9,2.7-14.7c0.8-2.8,0.9-5.9,1.2-8.8c0.2-1.4,0.3-2.8,0.9-4.1
		c0.8-1.8,0.7-3.7-0.7-5.4c-2.1-2.5-3.8-5.3-4.9-8.4c-2.3-7-2.7-14-1.1-21.1c0.4-1.6,0.9-3.2,1.4-4.8c0.2-0.7,0.6-1.3,1.3-1.8
		c0,0.4,0.1,0.9,0,1.3c-0.3,1.3-0.7,2.5-1.1,3.8c-2.9,10.4-1,20,5.6,28.8c0.2,0.3,0.4,0.6,0.7,0.9c1.2,1.2,1.7,2.6,1.2,4.3
		c-0.2,0.7-0.2,1.4-0.3,2.3c2.7,0.1,5.3,0.3,7.9,0.4c9.8,0.4,19.6,1.2,29.2,3.7c2.9,0.7,5.7,1.6,8.6,2.3c0.6,0.1,1.2,0.1,2,0.2
		c0.6-1.7,1.2-3.2,1.7-4.8c1.2-4.1,3.6-7.5,6.4-10.8C595.7,322.5,596.2,322.3,596.5,322L596.5,322z M517.3,560.5L517.3,560.5
		c0.5-2.4,2.4-3.8,4.3-5c2.2-1.3,4.6-2.3,7-3.4c0.5-0.2,1.3-0.1,1.5-1.1c-0.8-2.7-3.5-4.3-4.6-6.8c-3.5,0.5-7,0.1-10,2.1
		c-0.2,0.7-0.5,1.5-0.8,2.3c-1.8,5.9-1.8,5.9-6.2,10.2c-0.2,0.2-0.3,0.4-0.5,0.5c-1.9,1.4-3.7,2.7-6.2,3.3c-0.8-1-1.7-1.9-2.3-2.9
		c-0.9-1.5-1.3-2.9-0.4-4.7c0.8-1.7,1.1-3.6,1-5.6c-1.9,0-2.7,1.2-3.5,2.4c-0.9,1.3-1.5,2.7-1.3,4.3c0.4,3.2,0.6,6.4,0.9,9.6
		c0.1,1.4,0.1,2.8-0.8,3.8c-1.3,1.5-1.4,3.2-1.8,4.9c-0.7,3-0.9,6.1-2.1,9c1.8,1.4,3.9,2.3,6.1,2.6c4.5,0.6,9.1,1.5,13.7,0.2
		c1.3-0.4,2.5,0,3.3,1.1c0.9,1.2,2.3,1.8,3.6,2.4c3.3,1.6,6.8,2.2,10.3,2.9c2.1,0.4,4.2,0.7,6.3,0.5c3.6-0.2,7.2-0.4,10.8-0.6
		c1.1,0,2.3-0.1,3.3,0.3c1.3,0.4,2.4,0.4,3.6,0.1c3.9-1,7.6-2.2,11.1-4.1c0.9-0.5,1.7-1,2.6-1.4c1-0.4,2-0.7,3.1-1.1
		c-0.2-0.5-0.3-1.2-0.6-1.4c-0.5-0.3-1.2-0.4-1.7-0.3c-1.6,0.5-3.3,1.1-4.8,1.9c-1.9,1.1-3.7,2.4-5.5,3.6c-0.3,0.2-0.6,0.9-1,0.2
		c3.2-5.3,3.9-5.8,11.8-9.2c0-2.5-1.6-4.4-2.7-6.5c-5.8,0.1-11.1-1.5-15.9-4.5c-0.8-0.5-1.8-0.9-2.8-1.3c-1.3,1.4-3,2.2-4.9,2.2
		c-1,0-2,0-3,0c-0.9,0.1-1.9,0.2-3.1,0.4c1.3-3.6,4.9-3.5,7.6-5c-0.6-0.5-1.1-0.8-1.5-1.1c-2.9,1.6-9.5,3.3-12.7,3.2
		c0.2-0.5,0.2-0.9,0.4-1.3c1.3-1.6,3-2.8,5.1-3.5c1.4-0.4,2.9-0.8,4.3-1.2c0.2-0.1,0.3-0.3,0.5-0.6c-0.3-0.3-0.6-0.7-1-1.2
		c-3.5,0.9-7,1.7-10.4,2.6c-1.2,0.3-2.2,1-3.4,1.5c-0.5,0.3-1,0.7-1.6,0.9c-0.4,0.1-0.8-0.1-1.7-0.3c2.1-2.2,4.2-3.8,6.2-5.6
		c2.1-1.9,5-2.4,7.8-3.8c-0.7-0.4-1-0.9-1.4-0.9c-1,0-2,0.1-3,0.3c-3.8,0.8-7.4,2-10.8,3.8C518.9,560.1,518.1,560.3,517.3,560.5z
		 M538.3,453.5c-0.5,0.6-1.1,1.2-1.6,1.9c-0.4,0.6-0.8,1.2-1.2,1.8c-0.4,0.6-0.7,1.4-1.9,1.8c0.7-3.2,1.6-5.8,3-8.3
		c0.1-0.3,0.6-0.3,0.8-0.5c0.7,0.1,1,1,2,0.4c0.3-0.8,0.8-1.8,1-2.8c0.3-1.6,1.1-2.9,2.2-4.1c3.4-3.5,5.9-7.7,9-11.4
		c1.9-2.3,3-4.9,3.6-7.7c0.2-0.7,0.2-1.4,0.4-2.1c0.2-0.5,0.5-1.2,0.9-1.5c1.4-0.7,2.1-2,2.9-3.2c2.1-3,4.2-5.9,6.2-8.9
		c1.1-1.7,2.2-3.5,3.1-5.3c1-2.1,1.5-4.6,2.8-6.6c1.8-2.7,2.3-5.7,3-8.7c0.6-2.2,1-4.4,1.6-6.6c2.2-8.9,4.6-17.8,6.7-26.7
		c0.7-2.8,1.4-5.5,2.7-8.1c0.7-1.3,1.1-2.7,1.5-4c0.2-0.6,0.1-1.3,0.2-2c-1.4-0.5-2.7-0.6-3.7-1.3c-1.5-1-3.2-1.4-4.8-1.8
		c-8.6-2-17.2-3.6-26.1-3.9c-3-0.1-6-0.4-8.9-0.6c-1.5-0.1-3-0.3-4.5,0.2c-0.2,0.9-0.3,1.7-0.4,2.5c-0.7,5.1-1.5,10.1-2,15.2
		c-0.8,7.4-1.5,14.9-2.2,22.4c-0.5,5.9-0.8,11.9-2.1,17.7c-0.5,2.1-0.7,4.2-1,6.3c-0.2,1.9-0.1,3.8-1.4,5.4
		c-0.5,0.6-0.5,1.6-0.7,2.4c-0.4,1.5-0.8,3-1.3,4.4c-1.9,5.1-4.6,9.8-7.9,14.1c-0.5,0.7-1.1,1.3-1.4,2.1c-1.2,3-3,5.7-4.7,8.5
		c-1.3,2-2.9,3.9-3,6.4c0,0.4-0.4,0.9-0.6,1.3c-1.8,3.2-3,6.6-3.7,10.1c-0.8,3.6-1.3,7.3-1.9,10.9c-0.8,5.3-1.7,10.6-1.8,15.9
		c-0.1,5-0.3,10,0.1,15c0.2,2.4,0.4,4.7,0,7.1c-0.2,1-0.2,2.1-0.1,3.2c0.3,4.4,0.8,8.8,0.9,13.2c0.1,6.5,0.8,13.1,0.2,19.6
		c-0.3,3.2-0.1,6.4-0.2,9.6c-0.5,0.4-0.7,0.8-0.2,1.5c0-0.6,0.1-1.1,0.1-1.6c1.4-0.8,1.5-2.6,2.9-3.6c0,3.1-0.6,6-1.4,8.8
		c-0.2,0.6-0.7,1.2-1.1,1.7c-0.7-0.1-1.3-0.2-2-0.3c-0.6,0.8-1.1,1.6-1.7,2.4c0.3,0.7,0.6,1.3,0.9,2c0.3,0.6,0.6,1.2,1,2
		c4.2-1.8,6.5-5.3,9.6-7.8c0-0.5-0.1-0.7-0.1-0.9c-0.6-5,0.6-7,5.4-8.7c0.8-0.3,1.7-0.4,2.5-0.6c0.6-0.2,1.2-0.4,1.9-0.7
		c-0.1-2.8-0.2-5.5-0.3-8.2c0-3.2-0.1-6.4,0.1-9.6c0.4-5.8,1.7-11.5,2.8-17.2c0.1-0.7,0.3-1.5,0.7-2c0.9-1.2,1.1-2.6,1.4-4
		c0.7-4,1.7-7.9,3.3-11.7c2.4-5.7,3.5-11.7,4.7-17.6c0.9-4.2,1.6-8.4,2.9-12.5C537.8,456.7,537.9,455.1,538.3,453.5
		c0.1-0.3,0.2-0.5,0.1-0.3C538.4,452.9,538.4,453.2,538.3,453.5z"/>
	<path d="M518.8,44.9c0,1.2-1.1,1.5-1.8,2.1c-2.9,2.4-5.9,4.8-8.7,7.3c-2.3,2-4.1,4.4-4.9,7.4c-0.2,0.6-0.2,1.2-0.3,1.7
		c-0.6,0.3-1.1,0.6-1.9,1c-1,3.9-1.9,7.9-3,12.2c-0.6-4.8,1.5-8.9,2-13.1c-1-0.8-1.7-0.4-2,0.3c-1,2.1-2.3,4.3-2.9,6.5
		c-2.1,7.4-3.4,14.8-2.5,22.5c0.3,2.1,0.4,4.2,0.7,6.4l0.1-0.1c-0.3-0.3-0.7-0.6-0.8-1c-1.4-5.6-2-11.2-1.2-16.9
		c0.7-5,1.8-10,3.4-14.8c0-0.1,0.1-0.1,0.1-0.2c0,0.1,0,0.2,0,0.3c-0.4,0.2-0.9,0.4-1.1,0.7c-1.3,2.3-2.6,4.6-4,6.9
		c-0.4-1.2,0.3-2.4,0.7-3.4c0.4-1.2,1.1-2.4,1.8-3.5c0.7-1.1,1.5-2.2,2.4-3.2c0.9-0.9,1.9-1.7,3.2-2.8c-2.7-0.1-4.8,0.9-7.1,1.2
		c-1.8,1.9-2.9,4.3-3.4,6.9c-1.1,5.6-2,11.3-2.2,17c-0.1,3.7-0.2,7.3,0.7,11c0.9,3.8,0.6,7.8,0.8,11.7c0.1,1.3,0.1,2.7,0.6,3.8
		c0.5,1.2,1.7,2.1,1.6,3.7c-0.1,1.3,0.2,2.6,0.3,4.1c0.3-0.5,0.6-0.9,0.9-1.3c0.6,5.3-0.7,10.5,0.1,15.7c0.4-1.7,1.1-3.4,1.3-5.1
		c0.4-5.3,1.9-10.5,2.5-15.8c0.2-1.5,0.2-3.1,0.3-4.6c0-1.3,0-2.6,0-3.9c0.9-0.1,1.1,0.3,1.1,0.8c-0.1,2.3-0.2,4.5-0.4,6.7
		c-0.2,2.8-0.5,5.7-0.8,8.5c-0.3,2.7-0.8,5.4-1.1,8.1c-0.1,0.8-0.2,1.7-0.1,2.5c0.1,3,0.3,5.9,0.4,8.9c0,0.3,0.2,0.7,0.3,1.1
		c2.1-6.2,4.3-20.4,3.9-24.5c0.8-0.5,1.3,0.1,1.4,0.6c0.2,1.1,0.3,2.4,0.2,3.5c-1.1,9.1-2.9,18.1-5.2,27c-1.3,4.7-2.4,9.5-4.5,13.9
		c-0.8,1.6-1.7,3.2-2.6,4.7c-0.2,0.4-0.7,0.6-1.3,1.2c0-2,1.1-3.3,1.5-4.7c0.4-1.5,1.1-2.9,1.5-4.4c0.5-1.5,0.8-3,1.2-4.5
		c0.4-1.6,0.8-3.2,1.2-4.9c0.3-1.5,0.7-3,0.8-4.6c0.2-1.5,0.2-3.1,0.3-4.6c0-1.5,0-3.1,0-5.1c-1.2,1-1,2.3-1.6,2.9
		c-1.4,1.4-1.3,3.2-1.6,4.9c-0.7,4.8-1.5,9.6-2.3,14.5c-0.1,0.6-0.3,1.2-1.2,1.4c-0.9-3.2,0.7-6.4,0.4-10.3
		c-1.4,4.7-2.5,8.7-3.7,12.7c-0.5,1.7-1.3,3.3-2,5c-0.2,0.4-0.6,0.6-1.3,1.2c-0.1-0.9-0.2-1.3-0.1-1.7c0.7-3.1,1.3-6.3,2.2-9.4
		c2.1-7,3.5-14.1,4.9-21.2c0.5-2.4,0.6-4.9,0.5-7.5c-0.7-8.7-1.4-17.3-1.8-26c-0.2-4.4-0.7-8.7-1.3-13.1c-0.9-6.6-0.7-13.3,0.7-19.9
		c0.3-1.5,0.9-3,1.5-4.4c1.3-3.3,3.9-5.1,7.4-5.9c2.6-0.5,5.2-0.8,7.8-0.3c1,0.2,1.7,0,2.5-0.9c0.1-2.8,1.2-5.3,3.2-7.5
		c1-1.1,1.6-2.4,2.4-3.6c1.3-2,2.9-3.9,5-5.2c3.8-2.5,7.6-5,11.9-6.7c1.8-0.7,3.7-1.5,5.4-2.5c1.1-0.7,2.3-1,3.5-1
		c3.2,0,6.5,0,9.7,0.1c1.1,0,2.2,0.3,3.3,0.6c2,0.6,4,1.4,6,2.1c1.7,0.6,3,1.6,4.1,2.9c1.1,1.3,2.3,2.5,3.3,3.8
		c1.6,2.1,3.1,4.3,4.7,6.4c0.5,0.7,0.7,1.5,1.2,2.2c1.6,2.1,2.4,4.4,2.2,7c-0.2,1.6,0.4,3,1.7,4.2c1.5,1.4,3,2.9,4.4,4.4
		c1,1.1,2.7,1.7,3,3.5l0.1-0.1c-0.5,0-1.1,0.1-1.4-0.2c-3-1.9-5.6-4.3-7.9-7c-1.1-1.3-1.6-2.9-1.5-4.7c0-0.7,0.1-1.4,0.1-1.9
		c-1.4-2.4-2.7-4.5-3.9-6.7c-1.6-2.8-3.6-5.4-5.7-7.8c-3.2-0.6-3.2-0.6-4.2-0.1c-6.1-3.7-12.9-4.4-20-3.3c-0.6,0.1-1.2,0.1-1.8,0.2
		l0.1,0.1c1-1,2.2-1.4,3.6-1.7c2.8-0.6,5.7-0.6,8.5-0.3c0.6,0.1,1.2,0.2,1.9-0.1c-2-0.8-3.9-1.6-5.9-2.3c-0.4-0.2-1,0-1.5,0
		c-3.6,0.4-7.1,1.3-10.2,3.1c-4.1,2.4-8.3,4.7-12.3,7.3c-4.1,2.6-7,6.4-9.5,10.4c0.9,0.5,1.2-0.2,1.5-0.5c2.9-2.8,6.2-5.2,9.5-7.5
		C517.7,45.3,518.3,45.2,518.8,44.9L518.8,44.9z M549.4,35c0.3,0.1,0.5,0.2,0.2,0.1C549.9,35.1,549.6,35.1,549.4,35
		c-0.1,0,0-0.2,0-0.3c-0.6-1.1-1.7-1.2-2.7-1.6c-1.1-0.4-2.2-0.6-3.6-0.1C545.4,33.8,547.4,34.4,549.4,35z"/>
	<path d="M532.3,74.1c0.9,0.8,1.7,1.6,2.7,2.5c-0.2,0.7-0.5,1.5-0.7,2.3c0.5,0.5,1,1,1.6,1.7c-0.5,0.8-1,1.6-1.4,2.4
		c-0.3,0-0.6,0.1-0.7-0.1c-1.1-0.9-2.3-1.4-3.7-1.6c-1.4-1.1-1.9-2.7-2.4-4.3c0.2-0.2,0.4-0.4,0.2-0.3c0.1-0.2,0,0.1-0.1,0.3
		c-0.9,0.6-0.7,1.4-0.4,2.2c0.5,1.1,1.2,2,2.7,1.9c0,0.2,0,0.5,0.1,0.6c0.9,0.8,2,1.5,2.8,2.3c0.7,0.8,1.1,1.8,1.8,2.9
		c0.5-1,0.9-1.8,1.4-3c0.4,0.7,0.8,1,0.9,1.4c0.2,1-0.2,1.9-0.8,2.6c-0.6,0.7-1.7,0.9-2.3,0.2c-0.5-0.5-1.1-1.1-1.4-1.7
		c-1-2.2-3-2.9-5.2-4.1c0,1.1,0,1.9,0,2.6c-1-1.8-2.6-2.9-4.1-4.1c-0.4-0.3-0.5-0.8-0.8-1.1l-0.1,0.1c1.5-0.1,2.1,1.5,3.5,1.7
		c0.1-0.2,0.3-0.5,0.2-0.6c-1.2-1.6-1-3.3-0.1-5c0.8-1.5,1.5-3,2.3-4.6c0.8,0.1,1.6,0.1,2.2,0.4c3.7,1.2,3.7,1.2,7.3,0.6
		c0.3,0.9-0.2,1.5-1,2.2C535.4,74.5,533.8,74.4,532.3,74.1c-0.3-0.7-1-0.7-1.7-0.6c-0.3-0.2-0.6-0.5-0.9-0.7
		c-0.1,0.2-0.3,0.4-0.4,0.7c-0.4,0.2-0.8,0.4-0.3,1c0.1-0.4,0.1-0.7,0.2-1.1c0.5,0,1,0,1.5,0C531.1,74.2,531.7,74.2,532.3,74.1z
		 M530.9,74.5c-1,1.8-2,2.8-1.6,4.1c0.5,1.3,1.7,1.9,3.1,2c0.1-0.8,0-1.4,0.3-2c0.2-0.6,0.7-1.1,1-1.6c-1-1.4-1.9-0.1-2.8-0.3
		C530.9,76.2,530.9,75.8,530.9,74.5z"/>
	<path d="M539,59.9c0,1.1-0.8,1.8-1.6,2.5c-0.6,0.5-1.4,0.8-1.4,1.8l0.1-0.1c-2.4,1.6-5.4,1.6-8.1,2.1c-1.5,0.3-3,0.3-4.4,0.5
		c-2.5,0.3-5,0-8.2-0.9c1.9,0,3,0,4-0.1c2.1-0.1,4.2-0.1,6.3-0.4c3.1-0.5,6-1.6,8.4-3.7c0,1.2,0,1.2-0.9,2.1
		c0.4,0.6,0.8,0.3,1.1-0.1c0.8-1.2,1.9-2.2,1.7-3.8l-0.1,0.1C537,60.7,538,60.8,539,59.9L539,59.9z"/>
	<path d="M620.8,299.7c0,0.1,0.1,0.3,0,0.3c-5.2,4.5-10.4,9.1-15.7,13.6c-0.1-0.2-0.3-0.5-0.2-0.6c3.9-5,8.3-9.5,13.8-12.9
		C619.4,299.8,620,299.1,620.8,299.7z"/>
	<path d="M559.3,65c-0.6,0.1-1.2,0.2-1.7,0.3c1.2-2.6,2.5-4.2,4.6-5.5c1.1-0.7,2.2-1.4,3.4-2.1c0.3,1.4-1,2.1-1.6,3.1
		c0,1,0,1.9,0,2.8c0,0.8,0,1.5,0,2.5C562.3,65.8,560.6,66.1,559.3,65c1.7-0.6,1.7-0.6,1-1.9c-0.3,0.2-0.7,0.4-0.8,0.6
		C559.3,64.1,559.3,64.5,559.3,65z"/>
	<path d="M549.5,95.1c-0.7,0.4-1.2,0.6-1.8,0.9c0.5,1.8,2.1,3.1,2.3,5c-2.3-1.9-3.6-4.4-4.8-6.9c-3.2-1.8-6.8-3.4-6-8.3
		C541.7,90.1,545,93.1,549.5,95.1z"/>
	<path d="M603.3,174.9c1.4-4.9,2-9.9,2.2-15l-0.1,0.1c0.8-0.1,1.5,0.1,1.7,1c0.1,0.5,0.2,0.9,0.1,1.4c-0.3,2.8-0.6,5.7-1,8.5
		c-0.2,1.3-0.7,2.5-1.7,3.5C604.2,174.6,603.7,174.7,603.3,174.9L603.3,174.9z"/>
	<path d="M595.7,235c0.3,0.3,0.7,0.6,0.9,1c0.7,2.1,1.5,4.3,1.9,6.5c0.5,2.9,0.7,5.9,0.9,8.8c0.1,0.7-0.1,1.4-0.9,1.7
		c-0.2-0.2-0.4-0.4-0.4-0.5c-0.3-5.3-0.7-10.6-2.1-15.8C595.8,236.1,595.9,235.5,595.7,235L595.7,235z"/>
	<path d="M543.1,150.9c-2.8-1.2-4.4-3.8-7.1-5.1c-0.7-0.3-1.2-1.2-1.6-1.9c-1.2-2-1.7-4.2-1.2-6.8c0.4,0.5,0.8,0.8,0.9,1.1
		c0.2,0.9,0.2,1.9,0.4,2.8c0.3,1.1,0.7,2.3,1.2,3.3c0.5,1,1.3,1.7,2.7,1.5c0.3,0,0.7,0.1,1.3,0.2c1.1,1.5,2.3,3.2,3.5,4.8
		C543.2,150.7,543.1,150.9,543.1,150.9z"/>
	<path d="M527.5,88.1c-0.9,0.4-1.5-0.2-2-0.5c-3.9-2.8-8.2-4.8-12.3-7.2c-0.9-0.5-1.9-1-2.5-2.5c1.3,0.4,2,1.1,2.8,1.5
		c1.4,0.7,2.9,1.3,4.3,2c0.4,0.2,0.9,0.3,1.3,0.6c2.7,1.8,5.4,3.7,8.1,5.5C527.4,87.7,527.4,87.9,527.5,88.1z"/>
	<path d="M666.9,568.8c-0.1-0.4-0.3-0.9-0.2-1c2-1.6,4-3.2,6.6-3.6c0.2,0,0.5,0,0.7,0c0.8,0,1.7,0.6,1.6,1.2
		c-0.1,0.5-0.4,1.1-0.9,1.4c-0.5,0.3-1.1,0.5-1.7,0.6C671,567.8,669,568.3,666.9,568.8z"/>
	<path d="M538.2,54.8c0.3,0.2,0.6,0.3,0.9,0.5c-0.4,1.5-1.4,2.1-2.1,3c-0.4,0.5-0.7,1.1-1.1,1.7l0.1-0.1c-0.3,0.1-0.7,0.2-1.1,0.3
		c-0.8-0.9,1-1.3,0.3-2.2c-2-0.1-4.3-0.2-6.6-0.3c0-0.1,0-0.2,0-0.3c1.1-0.1,2.1-0.3,3.2-0.4c2.4-0.3,4.7-0.6,6-3.2
		C538,54.3,538.2,54.6,538.2,54.8l-0.1,0.2L538.2,54.8z"/>
	<path d="M597.9,105.3c-0.8,3.5-1.5,7.1-4.3,10.4c0.5-3.6,1.2-6.7,2.2-9.7C596.1,105.1,596.5,105,597.9,105.3z"/>
	<path d="M551.5,40.8c-1.4,2-3.3,0.6-5.3,0.6c0.6,0.7,1,1.1,1.5,1.6c-0.3,0.1-0.6,0.3-0.8,0.2c-1.4-0.6-2.9-1.3-4.4-2
		C546.3,39.5,549.5,39.4,551.5,40.8z"/>
	<path d="M613.7,412.7c0.6,0.7,0.9,1.4,0.3,2.2c-0.9,1.2-2.3,1.7-3.8,1.9c-1.3,0.2-2.7,0.3-3.7-1c0.3-0.2,0.5-0.6,0.8-0.6
		c0.6-0.2,1.2-0.3,1.8-0.2C611.1,415,612.6,414.2,613.7,412.7L613.7,412.7z"/>
	<path d="M520.3,47.7c-0.1,0.2-0.2,0.5-0.4,0.6c-1.7,1.2-3.5,2.2-5.2,3.5c-1.7,1.2-3.2,2.5-4.9,3.9c0.4-1.5,0.4-1.6,1.3-2.3
		C513.8,51,516.5,48.5,520.3,47.7L520.3,47.7z"/>
	<path d="M556,56.8c3-2.6,6.1-4.4,8.9-3.2C558.6,56.7,558.1,56.9,556,56.8z"/>
	<path d="M614.5,295c1.5-0.5,1.6-2.3,2.9-3.1c0,0.4,0.2,0.8,0.1,1.1c-1.8,3.2-3.8,6.3-6.3,9.1c-0.1,0.1-0.2,0.1-0.4,0.1l-0.1-0.1
		c0.3-0.6,0.5-1.3,0.8-1.9c1-1.8,2-3.5,3-5.2L614.5,295z"/>
	<path d="M558.9,317.1c0.5,3.8,1,7.6,1.5,11.5c-0.8,0.1-0.9-0.5-1.1-1C558.4,324.4,558.2,321.2,558.9,317.1z"/>
	<path d="M532.5,50.3c-0.3-0.3-0.6-0.6-0.9-1c2,0,3.9,0,5.9,0c-0.5,1.3-1.4,1.9-2.7,2c-1.3,0-2.6,0-3.9-0.3
		C531.4,50.8,531.9,50.6,532.5,50.3z"/>
	<path d="M530.1,46c6.6-0.9,10.9-0.8,13.4,0.4C541.7,46.8,534.6,46.6,530.1,46z"/>
	<path d="M622.3,96.7c-0.2,2.3-0.2,3.9-0.8,5.4c-0.1,0.3-0.3,0.7-0.6,0.9c-0.2,0.2-0.8,0.4-0.9,0.3c-0.3-0.2-0.8-0.7-0.7-1
		C619.7,100.3,620.6,98.7,622.3,96.7z"/>
	<path d="M608.6,455.5c-0.1,0-0.3,0-0.4-0.1c-1-1.6-2.4-5.2-2.8-7.4c0.2,0,0.6-0.1,0.6-0.1C607.6,450.2,608.6,452.7,608.6,455.5
		L608.6,455.5z"/>
	<path d="M539.3,67.3c-0.1,2-0.8,2.8-1.8,3.5c-1.2,0.8-2.5,1.6-4.3,1c1.2-0.7,2.2-1.2,3.2-1.9C537.2,69.3,537.9,68.5,539.3,67.3z"/>
	<path d="M532.4,70c-0.1-1.1,1-1.4,1.6-2.1c0.9-1.2,2.2-2.1,2.1-3.8l-0.1,0.1c0.4,0.1,0.9,0.3,1.5,0.5
		C536.6,67.3,535.2,69.2,532.4,70L532.4,70z"/>
	<path d="M614.6,432c-0.1-1.4,0.6-2.5,1.7-3.3c0.1-0.1,0.5-0.1,0.7,0c0.2,0.1,0.4,0.4,0.4,0.6C617,430.8,616.3,431.9,614.6,432
		L614.6,432z"/>
	<path d="M610.5,510.5c-1.2-1.3-1.2-1.3-0.2-3.6C611.8,509,611.8,509.2,610.5,510.5z"/>
	<path d="M599.3,176.6c0.1,0.4,0.3,0.9,0.1,1c-0.9,1.1-2,1.9-4.1,2.3C596.6,178.3,597.8,177.3,599.3,176.6z"/>
	<path d="M594.1,223.1c0.2,2.1,0.3,3.8,0,6.1C593.2,226.9,592.8,225.3,594.1,223.1z"/>
	<path d="M614.5,411.3c0.8-1.7,1.5-3.4,2.3-5.2c0.2,0,0.3,0.1,0.5,0.1c-0.1,0.5,0,1-0.2,1.4C616.3,408.9,616.2,410.7,614.5,411.3
		L614.5,411.3z"/>
	<path d="M524.7,89.3c0.2,0,0.5-0.1,0.7-0.1c0.6,0.3,1.3,0.7,1.8,1.1c0.6,0.5,1.6,0.7,1.8,1.6C526.9,91.6,526.9,91.6,524.7,89.3
		L524.7,89.3z"/>
	<path d="M614.6,294.9c-0.6-0.3-0.9-0.8-0.9-1.4c0-0.6,0.1-1.2,0.2-1.7c0.2-0.7,0.5-1.3,0.7-2c0.9,0.4,0.7,1,0.6,1.5
		c-0.2,1.3-0.5,2.5-0.8,3.8L614.6,294.9z"/>
	<path d="M611,512.1c0.5,1.6,1,2.6,0.3,3.8C609.9,514.9,609.9,514.9,611,512.1z"/>
	<path d="M611.1,521.9c-0.7-1.2-0.5-2.2,0-3.2C612.5,520.6,612.5,520.6,611.1,521.9z"/>
	<path d="M487.8,105.8c0,1.3,0,2.7,0,4c-0.1,0-0.1,0-0.2,0c0-1.3,0-2.7,0-4C487.7,105.8,487.8,105.8,487.8,105.8z"/>
	<path d="M591.9,116.8c0.6,1.2,0.1,2-0.8,2.8C590.6,118.4,590.6,118.4,591.9,116.8z"/>
	<path d="M535.7,53c0.7-0.7,1.4-1.3,2-2C537.8,52.2,537.1,52.8,535.7,53z"/>
	<path d="M650.8,83.8c-0.1,1-0.3,1.8-1.6,2.3C649.4,84.9,649.6,84.2,650.8,83.8z"/>
	<path d="M698.6,49.1c-0.2,1-0.9,1.6-1.7,2.2c-0.1-0.4-0.3-0.7-0.2-0.8C697.4,49.1,697.5,49.2,698.6,49.1z"/>
	<path d="M614.8,247.2c0.7,1.7,0.2,2.9,0.2,4.1C614.4,250,614.4,248.8,614.8,247.2z"/>
	<path d="M532.3,60c-1.3,0.9-2.8,0.3-4.2,0.1C529.5,60.1,530.9,60.1,532.3,60L532.3,60z"/>
	<path d="M514.2,84.3c1.4,0.2,2.5,0.7,3,2.1l0.1-0.1C516,86.1,515,85.3,514.2,84.3L514.2,84.3z"/>
	<path d="M623.2,92c0.6,1.1-0.4,1.7-0.5,2.8C622,93.3,622,93.3,623.2,92z"/>
	<path d="M569.2,273c0.8,0,1.7,0,2.5,0c0,0,0,0,0,0.1C570.8,273.1,570,273.1,569.2,273C569.1,273.1,569.2,273,569.2,273z"/>
	<path d="M519.5,87.8c0.5,0.1,1.1,0.2,1.6,0.3c0.7,0.1,1.3,0.2,2,0.3l-0.1-0.1c-0.2,0.3-0.3,0.7-0.5,0.8
		C521.3,89.3,520.1,89.2,519.5,87.8L519.5,87.8z"/>
	<path d="M586.5,122.6c0.8-0.6,1.1-0.9,1.6-1.1c0.3-0.1,0.7,0,1,0C589,122.7,588.2,122.8,586.5,122.6z"/>
	<path d="M610.2,464.2c0-1-0.1-2-0.2-3.4C611,462.1,610.7,463.2,610.2,464.2z"/>
	<path d="M605.5,159.9c-1.2-0.7-0.8-2-1.8-3.5C605.9,157.6,605.6,158.8,605.5,159.9L605.5,159.9z"/>
	<path d="M545.2,155.1c-0.8-0.9-0.8-0.9-0.6-2.5c0.3,0.7,0.6,1,0.7,1.4C545.3,154.3,545.2,154.7,545.2,155.1z"/>
	<path d="M621.1,305.4c0,0.2,0,0.5-0.1,0.6c-0.8,0.7-1.7,1-2.8,0.8l0.1,0.1C619.2,306.5,620.2,306,621.1,305.4L621.1,305.4z"/>
	<path d="M547.2,161.5c0.6,0.7,0.1,1.3-0.2,1.9C546.5,162.3,546.5,162.3,547.2,161.5z"/>
	<path d="M615.9,283.3c0,0.8,0,1.5,0,2.4C614.9,284.8,615.5,284,615.9,283.3z"/>
	<path d="M614.7,243.6c0-0.5,0-1.1,0-1.6c0.1,0,0.2,0,0.3,0c0,0.5,0,1.1,0,1.6C614.9,243.6,614.8,243.6,614.7,243.6z"/>
	<path d="M602.5,318.4c-0.5,0.8-1.2,1.3-2.2,1.4l0.1,0.1C600.8,319,601.6,318.6,602.5,318.4L602.5,318.4z"/>
	<path d="M544.2,43.5c-0.8-0.1-1.6-0.2-2.4-0.3C542.7,42.7,543.7,42.3,544.2,43.5L544.2,43.5z"/>
	<path d="M521,43.5c-0.6,0.8-1.1,1.5-2.3,1.4l0.1,0.1c0.4-1,1.2-1.4,2.3-1.3L521,43.5z"/>
	<path d="M517.3,86.4c1.2-0.1,1.9,0.4,2.3,1.4l0,0C518.4,87.8,517.7,87.3,517.3,86.4L517.3,86.4z"/>
	<path d="M593.4,179.6c-0.3,0.2-0.5,0.5-0.8,0.6c-0.1,0.1-0.4,0-0.6-0.1c0.1-0.1,0.1-0.2,0.2-0.3c0.3-0.2,0.6-0.4,0.8-0.6
		C593.2,179.3,593.3,179.5,593.4,179.6z"/>
	<path d="M611.8,475.8c0.7,0.7,0.8,1.4,0.2,2.1C611.3,477.3,611,476.6,611.8,475.8z"/>
	<path d="M595.2,232.6c-0.9-0.8-0.9-0.8-0.7-2.4C594.8,231.4,595,232,595.2,232.6L595.2,232.6z"/>
	<path d="M609.2,304.1c0,1-0.6,1.7-1.5,2.1l0.1,0.1C607.8,305.3,608.2,304.6,609.2,304.1L609.2,304.1z"/>
	<path d="M609.3,304.2c-0.1-1.1,0.4-1.8,1.4-2.2l0.1,0.1C610.8,303.1,610.3,303.8,609.3,304.2L609.3,304.2z"/>
	<path d="M611.1,469.9C611.1,470.4,611.1,470.2,611.1,469.9C611.1,470.2,611.1,470.4,611.1,469.9z"/>
	<path d="M598.2,441.5c0-0.4,0-0.8-0.1-1.2c0.1,0,0.2,0,0.4,0c0.1,0.4,0.2,0.8,0.2,1.2C598.6,441.5,598.4,441.5,598.2,441.5z"/>
	<path d="M539.1,60c0-0.5,0.1-1.1,0.2-1.8C539.9,59,539.5,59.5,539.1,60L539.1,60z"/>
	<path d="M595.8,234.9c-0.9-0.6-0.7-1.5-0.6-2.3l-0.1,0.1C595.3,233.4,595.5,234.2,595.8,234.9L595.8,234.9z"/>
	<path d="M493.4,99.2c0.2,0.5,0.4,0.9,0.7,1.4c-0.1,0-0.3,0.1-0.4,0.1C493.6,100.1,493.5,99.6,493.4,99.2L493.4,99.2z"/>
	<path d="M603.1,416.9c-0.1-0.1-0.2-0.3-0.3-0.4c0.2,0,0.4-0.1,0.6,0c0.1,0,0.2,0.1,0.3,0.2C603.5,416.7,603.3,416.8,603.1,416.9z"
		/>
	<path d="M621.2,305.5c0.2-0.1,0.4-0.2,0.6-0.3c0.1,0,0.2,0,0.3,0c-0.1,0.1-0.2,0.3-0.3,0.3C621.5,305.5,621.3,305.5,621.2,305.5
		L621.2,305.5z"/>
	<path d="M531.6,37.1c-0.2,0.1-0.5,0.2-0.4,0.2C531.1,37.3,531.4,37.2,531.6,37.1L531.6,37.1z"/>
	<path d="M520.3,47.8c0.1-0.2,0.2-0.4,0.4-0.5c0,0,0.2,0,0.3,0.1C520.8,47.5,520.5,47.6,520.3,47.8L520.3,47.8z"/>
	<path d="M597.3,321.3c0.2-0.7,0.9-0.7,1.5-0.7l-0.1-0.1C598.5,321.3,597.9,321.4,597.3,321.3L597.3,321.3z"/>
	<path d="M598.8,320.6c0.3-0.7,1-0.7,1.6-0.7l-0.1-0.1C600,320.5,599.4,320.5,598.8,320.6L598.8,320.6z"/>
	<path d="M608.4,314.8c-0.2,0.7-0.8,0.7-1.4,0.7l0.1,0.1C607.6,315.4,608,315.1,608.4,314.8L608.4,314.8z"/>
	<path d="M608.5,314.9c0.2-0.1,0.5-0.3,0.3-0.1C609,314.7,608.7,314.7,608.5,314.9L608.5,314.9z"/>
	<path d="M608.5,455.6c0.1,0.2,0.3,0.4,0.1,0.2C608.7,456,608.7,455.7,608.5,455.6L608.5,455.6z"/>
	<path d="M606.9,306.9c-0.2,0.5-0.4,1-0.6,1.5l0.1,0.1c0.2-0.5,0.4-0.9,0.6-1.4L606.9,306.9z"/>
	<path d="M613.8,412.8c0-0.6,0-1.2,0.7-1.5l-0.1-0.1C614.6,411.9,614.5,412.4,613.8,412.8L613.8,412.8z"/>
	<path d="M507.6,59.2c0.5-0.2,1-0.5,1.4-0.7l-0.1-0.1c-0.2,0.8-0.8,0.7-1.4,0.7L507.6,59.2z"/>
	<path d="M509,58.5c0.3-0.1,0.5-0.2,0.3-0.1C509.5,58.3,509.2,58.3,509,58.5L509,58.5z"/>
	<path d="M688.5,58.5c-0.2,0.1-0.4,0.2-0.6,0.4C688.2,58.8,688.4,58.7,688.5,58.5L688.5,58.5z"/>
	<polygon points="539,195.6 539.1,195.5 538.9,195.6 	"/>
	<polygon points="532.3,69.9 532.1,70 532.4,70 	"/>
	<path d="M524.1,88.4c0.2,0.3,0.4,0.6,0.6,0.9l0.1-0.1C524.6,88.9,524.4,88.6,524.1,88.4L524.1,88.4z"/>
	<path d="M524.2,88.3c-0.4,0-0.7,0-1.1,0l0.1,0.1C523.5,88.4,523.8,88.4,524.2,88.3L524.2,88.3z"/>
	<path d="M513.6,83.5c0.2,0.3,0.4,0.5,0.7,0.8l0.1-0.1C514.1,83.9,513.9,83.7,513.6,83.5L513.6,83.5z"/>
	<path d="M513.7,83.4c-0.1,0-0.2-0.1-0.3-0.1C513.5,83.4,513.5,83.5,513.7,83.4L513.7,83.4z"/>
	<path d="M522.6,79.9c-0.2-0.3-0.4-0.5-0.7-0.8l-0.1,0.1C522.1,79.5,522.3,79.7,522.6,79.9L522.6,79.9z"/>
	<polygon points="521.9,79.1 521.6,79.1 521.8,79.2 	"/>
	<polygon points="537.4,192 537.6,192.2 537.5,192 	"/>
	<polygon points="601.7,176.3 601.6,176.5 601.8,176.4 	"/>
	<path d="M601.8,176.4c0.2-0.3,0.5-0.5,0.7-0.8l-0.1-0.1C602.2,175.8,602,176.1,601.8,176.4L601.8,176.4z"/>
	<path d="M602.5,175.6c0.3-0.3,0.5-0.5,0.8-0.8l-0.1-0.1C603,175.1,602.7,175.3,602.5,175.6L602.5,175.6z"/>
	<path d="M607,307c0.3-0.2,0.6-0.4,0.9-0.7l-0.1-0.1c-0.1,0.4-0.3,0.7-0.9,0.6L607,307z"/>
	<path d="M618.1,306.9c0,0.1,0,0.2,0,0.3C618.2,307.1,618.2,307,618.1,306.9L618.1,306.9z"/>
	<polygon points="606.3,308.4 606.2,308.5 606.4,308.5 	"/>
	<path d="M606.4,316.3c0.2-0.2,0.5-0.5,0.7-0.7l-0.1-0.1C606.8,315.8,606.5,316,606.4,316.3L606.4,316.3z"/>
	<polygon points="606.3,316.3 606.1,316.4 606.4,316.3 	"/>
	<path d="M602.6,318.5c0.1-0.1,0.2-0.3,0.3-0.4c0,0.1,0,0.1-0.1,0.2C602.7,318.4,602.6,318.4,602.6,318.5L602.6,318.5z"/>
	<path d="M596.6,322c0.3-0.2,0.5-0.5,0.8-0.7l-0.1-0.1C597.3,321.8,597.1,322.1,596.6,322L596.6,322z"/>
	<path d="M693.9,53.6c0.1-0.2,0.1-0.3,0.2-0.5C694.5,53.5,693.9,53.3,693.9,53.6L693.9,53.6z"/>
	<path d="M539.7,53.5c0,0.1-0.1,0.2-0.1,0.3C539.6,53.7,539.7,53.6,539.7,53.5L539.7,53.5z"/>
	<path d="M539.8,53.6c0-0.1,0.1-0.2,0.1-0.2C539.8,53.4,539.7,53.4,539.8,53.6L539.8,53.6z"/>
	<path d="M693.2,54.3c-0.1-0.5,0.2-0.7,0.7-0.7l-0.1-0.1C693.5,53.7,693.3,53.9,693.2,54.3L693.2,54.3z"/>
	<path d="M693.1,54.2C692.9,54.4,693.2,54.2,693.1,54.2L693.1,54.2z"/>
	<path d="M678.8,49.2c0.5,0.2,0.8,0.5,0,0.7l0.1,0.1C678.9,49.7,678.9,49.4,678.8,49.2L678.8,49.2z"/>
	<path d="M613.8,432.7c0.2-0.2,0.5-0.5,0.7-0.7l-0.1-0.1C614.2,432.2,614,432.4,613.8,432.7L613.8,432.7z"/>
	<path d="M507.5,59.1c-0.1,0.1-0.1,0.3-0.2,0.4c0-0.1,0-0.1,0-0.2c0.1-0.1,0.2-0.1,0.3-0.2L507.5,59.1z"/>
	<path d="M613.7,432.6c0,0.1-0.1,0.2-0.1,0.3C613.7,432.9,613.8,432.8,613.7,432.6L613.7,432.6z"/>
	<polygon points="532.3,60 532.4,59.8 532.3,60 	"/>
	<path d="M544.2,43.5c0.1,0.1,0.3,0.1,0.4,0.2c-0.1,0-0.2,0-0.2,0C544.3,43.7,544.3,43.6,544.2,43.5L544.2,43.5z"/>
	<path d="M521.7,42.7c-0.2,0.3-0.5,0.5-0.7,0.8l0.1,0.1C521.3,43.3,521.6,43.1,521.7,42.7L521.7,42.7z"/>
	<path d="M521.8,42.8C521.8,42.8,521.7,42.8,521.8,42.8L521.8,42.8z"/>
	<path d="M688.6,58.6c0-0.1,0-0.2,0.1-0.3C688.6,58.4,688.6,58.5,688.6,58.6L688.6,58.6z"/>
	<path d="M274.9,300.7c2.2,0.3,3.5,2.1,5.1,3.3c0.3,0.2,0.5,0.7,0.5,0.9c-0.5,1.2,0.8,2.1,0.9,3.2c-1.1,0.7-1.6-0.2-2-0.6
		c-1.5-1.9-2.8-3.9-4.2-5.8C274.9,301.3,275,300.9,274.9,300.7L274.9,300.7z"/>
	<path d="M259.2,283.5c-0.3-0.2-0.7-0.3-0.9-0.5c-1.8-2.1-3.5-4.2-4.8-6.6c0.6-0.7,1-0.2,1.2,0c1.4,1.5,2.8,3,4.1,4.5
		c0.7,0.8,0.9,1.7,0.3,2.6L259.2,283.5z"/>
	<path d="M301.3,305.4c-1.4,0.2-2.9,0.8-4.3,0.6c-1.8-0.3-3.6,0.6-5.6-0.4c0.4-0.3,0.6-0.7,0.9-0.7c1-0.1,2-0.2,3-0.1
		c1.5,0.2,2.9,0.2,4.3-0.5C300.2,304.1,301.1,304.2,301.3,305.4z"/>
	<path d="M237,387.8c-0.1-2,0.1-3.6,1.5-4.8c0.2-0.1,0.7,0,1,0.1c0.2,0.1,0.4,0.4,0.3,0.6C239.1,385.1,238.6,386.5,237,387.8z"/>
	<path d="M242.5,369c1.3,2.2,1.3,2.2-1,5.1C241.8,372.3,242.1,371,242.5,369z"/>
	<path d="M284.3,307.1c1.9-1.4,3.3-1.5,5.1-1.4C287.4,307.2,287.1,307.2,284.3,307.1z"/>
	<path d="M249.1,296.1c-0.8-1.7,0-2.9,0.9-4.6C250.4,293.5,250.4,294.8,249.1,296.1z"/>
	<path d="M215.2,365.7c1.1-0.9,2.2-1.6,4-1.4C218.1,365.9,216.5,365.4,215.2,365.7L215.2,365.7z"/>
	<path d="M258.9,351.3c-2-0.3-2.8-1-3.8-1.9C256.7,349.2,257.7,349.8,258.9,351.3z"/>
	<path d="M250.4,273.2c-0.1,0.1-0.2,0.3-0.3,0.2c-0.4-0.1-0.9-0.2-1.3-0.4c0,0,0.1-0.4,0.2-0.6c0.4,0.1,0.8,0.3,1.2,0.4
		C250.4,272.9,250.4,273.1,250.4,273.2z"/>
	<path d="M268.5,293.5c0.1,0,0.3,0,0.3,0.1c0.2,0.3,0.3,0.5,0.4,0.8c-0.2,0.1-0.5,0.2-0.6,0.1c-0.2-0.2-0.3-0.5-0.4-0.8
		C268.3,293.7,268.5,293.6,268.5,293.5z"/>
	<path d="M259.3,306.3c0.1-0.5-0.1-1.2,0.7-1.4l-0.1-0.1C259.7,305.3,259.5,305.8,259.3,306.3L259.3,306.3z"/>
	<path d="M253.3,299.9c0-0.6-0.1-1.2,0.7-1.4l-0.1-0.1C254,299,253.9,299.5,253.3,299.9L253.3,299.9z"/>
	<path d="M215.1,365.6c-0.2,0.1-0.3,0.3-0.5,0.4c-0.1,0.1-0.2,0-0.3,0.1c0.1-0.1,0.1-0.3,0.2-0.3C214.8,365.7,215,365.7,215.1,365.6
		L215.1,365.6z"/>
	<path d="M240.2,378.6c0.1,0.1,0.2,0.2,0.2,0.2c-0.1,0.2-0.2,0.3-0.3,0.5c-0.1-0.1-0.2-0.2-0.2-0.2
		C239.9,378.9,240.1,378.8,240.2,378.6z"/>
	<polygon points="259.2,306.2 259.1,306.4 259.3,306.3 	"/>
	<path d="M262.3,352c-0.2-0.1-0.4-0.1-0.6-0.2C262.2,351.2,262.1,351.8,262.3,352L262.3,352z"/>
	<polygon points="253.2,299.8 253.1,300 253.3,299.9 	"/>
	<polygon points="275,300.6 274.8,300.5 274.9,300.7 	"/>
	<path d="M238.6,463.5c0,0.9,0,1.8,0,2.7c0.1,2.1-0.5,4-2.2,5.4c-0.5,0.4-1.1,0.4-1.5-0.4c0.7-1.3,1.5-2.6,2-4
		c0.5-1.3,0.8-2.6,1.2-3.9C238.2,463.4,238.4,463.4,238.6,463.5z"/>
	<path d="M318.7,301.2c-1.5,0.7-3,1.3-4.7,1.4c-0.2,0-0.7-0.3-0.7-0.6c0-0.3,0.2-0.7,0.4-0.8C315.3,300.4,316.9,300.6,318.7,301.2z"
		/>
	<path d="M260,431.3c-0.5,1.2-0.9,2.4-1.4,3.6c-0.4,1-0.9,2-1.9,2.5c-0.1-0.1-0.3-0.2-0.3-0.3c0.4-2.1,1.3-4,2.7-5.6
		C259.2,431.4,259.7,431.5,260,431.3L260,431.3z"/>
	<path d="M228.9,466.3c-0.5,1-0.8,2.3-2.1,2.7C226.9,467.7,226.9,467.7,228.9,466.3z"/>
	<path d="M260.8,430.6c0.3-0.7,0.6-1.4,1.1-2.4C262.3,429.6,262.3,429.6,260.8,430.6L260.8,430.6z"/>
	<polygon points="239.4,461.1 239.3,460.8 239.6,460.8 	"/>
	<polygon points="240.9,457.4 240.8,457.2 241,457.3 	"/>
	<path d="M260.7,430.5c-0.2,0.3-0.5,0.6-0.7,0.8l0.1,0.1C260.3,431.1,260.5,430.9,260.7,430.5L260.7,430.5z"/>
	<path d="M295.5,481.4c1.7-3.7,3.5-7.3,5.3-10.6c1.2,0.1,1.3,0.6,1.2,1C300.6,475.5,298.9,478.9,295.5,481.4z"/>
	<path d="M297.9,441.4c2,0,3.8-0.4,5.8-0.1C301.2,442.8,300.3,442.8,297.9,441.4z"/>
	<path d="M294.8,483.1c-0.4,1.6-1.5,2.6-3.2,4c0.2-1.9,0.8-3.1,1.9-4.1c0.2-0.1,0.5-0.2,0.7-0.2C294.4,482.8,294.6,483,294.8,483.1z
		"/>
	<path d="M315.6,434.5c-0.1-1.1-0.1-2.3-0.2-3.7c1.9,1.3,1.4,2.5,1,3.7C316.1,434.5,315.8,434.5,315.6,434.5z"/>
	<path d="M271.1,507.2c0.1,1.7-0.5,2.5-1.4,3.6C269.3,509.1,269.9,508.2,271.1,507.2z"/>
	<path d="M290.3,487.5c-0.7,1.6-1.3,2.2-2.7,2.7C287.9,488.7,288.7,488.2,290.3,487.5z"/>
	<path d="M303.7,461.1c0.4,1.3,0.3,2.3-0.7,3.3C302.3,463,303.3,462.2,303.7,461.1z"/>
	<path d="M263.7,520.5c0.2,1,0.1,1.9-1.3,2.8C262.5,522,262.5,521,263.7,520.5L263.7,520.5z"/>
	<path d="M266.4,515.6c0.5,1,0.2,1.5-0.8,1.8C265,516.5,265.2,515.9,266.4,515.6z"/>
	<path d="M283.2,494.2c-0.1-0.7,0.1-1.3,0.9-1.6C284.3,493.5,283.7,493.8,283.2,494.2L283.2,494.2z"/>
	<path d="M284.2,437.9c0.2,0.1,0.3,0.1,0.5,0.2c-0.1,0-0.2,0.1-0.3,0.1c-0.2,0-0.3-0.1-0.5-0.2C284,438,284.1,438,284.2,437.9z"/>
	<path d="M296,452.2c0.2,0,0.4-0.2,0.6-0.1c0.2,0.1,0.2,0.3,0.3,0.5c-0.2,0-0.4,0.2-0.6,0.1C296.2,452.7,296.1,452.4,296,452.2z"/>
	<path d="M289.1,449.9c0.8,0.2,0.6,0.6,0.2,1.1C289.3,450.6,289.2,450.2,289.1,449.9L289.1,449.9z"/>
	<path d="M310.7,460.5c0,0.1,0,0.2-0.1,0.3c0.1-0.1,0.1-0.1,0.2-0.2L310.7,460.5z"/>
	<path d="M313.1,459.2c-0.3,0-0.6,0-0.9,0C312.5,459.2,312.8,459.2,313.1,459.2z"/>
	<path d="M312.3,459.1c0,0.3,0,0.5,0,0.8c-0.3,0-0.6-0.1-0.8-0.1l0.1,0.1C311.8,459.6,312.1,459.3,312.3,459.1z"/>
	<path d="M310.8,460.6c0.3-0.2,0.5-0.5,0.8-0.7l-0.1-0.1c0.1,0.6-0.3,0.7-0.8,0.7L310.8,460.6z"/>
	<path d="M263.7,520.6c0.1-0.1,0.2-0.2,0.3-0.4c0,0.1,0,0.2,0,0.3C263.9,520.5,263.8,520.5,263.7,520.6L263.7,520.6z"/>
	<path d="M283.2,494.1c-0.1,0.1-0.1,0.2-0.2,0.3C283.1,494.3,283.2,494.2,283.2,494.1L283.2,494.1z"/>
	<path d="M202.1,422.4c1.2,0,1.5-0.1,1.8,0c0.2,0.1,0.2,0.4,0.3,0.7c-0.2,0-0.5,0.1-0.6,0.1C203.3,423.1,203,422.9,202.1,422.4z"/>
	<path d="M210.7,426.2c-0.2,0-0.4,0-0.6-0.1c-0.1,0-0.2-0.1-0.3-0.1c0.2-0.1,0.4-0.2,0.5-0.2C210.4,425.9,210.5,426.2,210.7,426.2
		L210.7,426.2z"/>
	<path d="M294.4,223.5c-2.2,2.4-4.3,4.8-5.8,7.7c0.8,0.5,1.2-0.1,1.6-0.4c2.3-1.1,4.5-2.3,6.9-3.4c0.7-0.3,1.6-0.3,2.5-0.4l-0.1-0.1
		c-0.1,0.9-1,0.9-1.6,1.2c-1.8,1-3.8,1.5-5.1,3.2l0.1-0.1c-1.2,0.6-2.4,1.3-3.5,2c-1.3,0.8-2.6,1.7-3.8,2.5
		c-1.1-0.2-1.1-0.8-1.1-1.4c0.2-2.8,2.8-7.4,5.3-9.4c0,0-0.1-0.1-0.1-0.1c0,0.5,0.1,1,0.1,1.5l-0.2,0.1l0.1-0.2
		c0.9-0.6,1.7-1.3,2.6-1.8C293.1,224.1,293.8,223.9,294.4,223.5L294.4,223.5z"/>
	<path d="M288.6,259.9c2.7,2.7,6.5,1.3,9.7,3.4c-1.5-0.1-2.4-0.2-3.2-0.2c-1.1,0-2.2-0.1-3.3,0.2c-1.7,0.4-2.9,0-3.9-1.4
		c-1-1.4-2.1-2.6-3.5-3.6c-0.3-0.2-0.3-0.6-0.6-1.1c0.6,0,1.2-0.2,1.5,0c3,1.6,6.2,1.8,9.4,1.4c3.2-0.4,6.1,0.8,9,1.6
		c0.1,0.7-0.1,1-0.7,0.9c-0.6-0.1-1.2-0.2-1.8-0.4C297.2,259.2,293.1,259.9,288.6,259.9z"/>
	<path d="M277.9,224.1c0.3,0.3,0.7,0.6,1.2,1.1c0.1-0.7,0.2-1.2,0.3-1.7c0.4-0.5,0.8-0.9,1.2-1.4c0.2,0.3,0.3,0.6,0.5,0.9
		c0.2,0,0.4,0,0.6-0.1c0.9-0.8,1.7-1.6,2.6-2.4c0.3-0.3,0.8-0.3,1.3-0.4l-0.1-0.1c-0.6,1.4-1.3,2.8-1.9,4.3
		c-0.7,1.6-1.6,3.2-1.8,5.1c1.6,0.1,1.5-1.7,2.5-1.9c0.1,0.2,0.3,0.4,0.3,0.5c-0.5,1.6-1.1,3.1-1.7,4.5c-0.9,0.2-1.1-0.2-1.3-0.7
		c-0.6-1.9-1.1-3.8-0.5-5.9c-0.4,0.1-0.6,0.1-0.6,0.2c-0.2,1.3-0.4,2.5-0.5,3.8c-0.9,0.3-1.2-0.3-1.3-0.8
		C278.4,227.4,278.1,225.7,277.9,224.1z"/>
	<path d="M295.8,233.5c2.3-1.1,4.6-2.3,6.9-3.3c2.3-1,4.7-2,7.1-2.9c0.5-0.2,1.2-0.2,1.8-0.2l-0.1-0.1c-0.3,1-1.3,1-2,1.4
		c-3.4,1.9-6.8,3.8-10.2,5.6c-0.5,0.3-1,0.7-1.3,0.9c0.3,0.9,0.5,1.6,0.7,2.3l0.1-0.1c-2.1-0.9-4.3-0.6-6.5-0.6
		c0.8-1.6,0.8-1.6,2.8-3l-0.1-0.1C295.3,234,295.6,233.8,295.8,233.5L295.8,233.5z"/>
	<path d="M313,247.8c2.3-0.2,4.1-1.5,5.9-2.7c1.6-1.1,3.1-2.3,4.7-3.4c0.7-0.5,1.3-1.1,2.3-1l-0.1-0.1c-0.2,1.3-1.1,2.1-2.1,2.9
		c-3.7,3-7.8,5.5-11.7,7.9c-1.4-0.4-2.5-0.8-3.6-1.1c0.1-0.4,0.2-0.8,0.3-1.1l-0.1,0.1c1.1-0.1,2.3,0.2,3.1-0.8l-0.2,0.1
		c0.7-0.1,1.4,0,1.7-0.8L313,247.8z"/>
	<path d="M308.6,249.1c-0.9-0.4-1.9-0.6-2.3-1.6c0.2-0.7,0.8-0.4,1.2-0.4c3,0,5.5-1.1,7.8-2.7c1.8-1.3,3.6-2.7,5.7-4.2
		c0,0.5,0.1,0.9,0,1.1c-0.7,1.6-2.2,2.5-3.6,3.4c-1.5,0.9-3.4,1.4-4.3,3.1l0.1-0.1c-0.7,0-1.3,0.1-1.7,0.8l0.2-0.1
		c-1.2-0.4-2.4-0.4-3.1,0.8L308.6,249.1z"/>
	<path d="M275.1,274.1c-0.9-1.2-1.7-2.2-1.5-3.9c0.4,0.5,0.7,0.8,0.9,1c0.8,1.5,2.1,1.9,3.7,1.8c1.4-0.1,2.7-0.2,4-0.2
		c1.5-0.8,0.7-2.2,1-3.2c1.5,2,1.5,2.1-0.2,4.6C280.5,274.1,277.9,274.1,275.1,274.1z"/>
	<path d="M313,231.2c-0.2,0.3-0.2,0.7-0.5,0.8c-3.5,2.3-6.9,4.5-10.4,6.7c-0.2,0.1-0.4,0.1-0.8,0.1c0.1-0.4,0.1-0.7,0.3-0.9
		C304.8,235,308.7,232.8,313,231.2L313,231.2z"/>
	<path d="M292.8,231.3c1-0.2,2.1-0.4,3.1-0.6l0-0.1c-2.2,1.7-3.8,4-6.2,5.9c-0.1-0.7-0.4-1.1-0.2-1.3c0.5-0.7,1-1.3,1.6-2
		c0.6-0.7,1.3-1.4,1.9-2.1L292.8,231.3z"/>
	<path d="M323.6,247c0.1-0.3,0.1-0.7,0.3-1c1.2-1.9,2.5-3.7,3.8-5.6c0.7,0.2,0.5,0.9,0.3,1.3C327.1,244,325.8,245.9,323.6,247
		L323.6,247z"/>
	<path d="M274.9,281c1.8,0.5,3,1,4.3,1.3c1.2,0.3,2.4,0.4,4.2,0.6c-2.6,1.1-4.5,0.5-6.3,0C276.3,282.7,275.3,282.5,274.9,281z"/>
	<path d="M280.9,279.2c-1.8,0.8-3.3,0.2-4.7-0.9c-0.6-0.4-1.1-1-1.6-1.4c0.5-0.6,0.9-0.4,1.3-0.1c1.1,1,2.6,1.3,4,1.7
		C280.3,278.5,280.8,278.7,280.9,279.2L280.9,279.2z"/>
	<path d="M313.7,243.4c-0.2,0.2-0.3,0.4-0.5,0.5c-2.6,0.5-5.3,0.6-7.6,1.8c-0.8-0.6-0.4-1.1,0-1.3c1.1-0.4,2.3-0.9,3.5-1
		C310.6,243.3,312.2,243.5,313.7,243.4L313.7,243.4z"/>
	<path d="M313.8,237.7c-1.4,0.6-2.8,1.3-4.2,1.9c-1.1,0.5-2.1,1.3-3.4,1l0.1,0.1c0-0.3,0-0.5,0-0.8l-0.1,0.1
		c0.5-0.3,1.1-0.5,1.6-0.8l-0.1,0.1c0.5-0.3,1.1-0.5,1.6-0.8l-0.1,0.1c1.2-0.6,2.3-1.2,3.5-1.8c0.5-0.2,1.1-0.3,1.7-0.4l-0.1-0.1
		c0,0.3,0,0.5,0,0.8l0.1-0.1c-0.3,0.3-0.6,0.5-0.8,0.8L313.8,237.7z"/>
	<path d="M321.2,229.2c1.2-0.7,2.5-1.4,3.9-2.1c0,0.3,0.1,0.7,0,0.8c-1.8,1.4-3.6,2.8-5.4,4.1c-0.1,0.1-0.5,0-0.7,0l0.1,0.1
		c-0.3-0.8,0.3-1.1,0.8-1.5l-0.1,0.1c0.3-0.3,0.6-0.5,0.8-0.8l-0.1,0.1c0.3-0.3,0.6-0.5,0.9-0.8L321.2,229.2z"/>
	<path d="M314.6,253.8c-1.9,0.4-3,0.2-4.1-0.6c0.1-0.3,0.3-0.6,0.5-1C312.2,252.1,313.1,252.8,314.6,253.8z"/>
	<path d="M280.8,279.2c2.1,0,4.1,0,6.2,0c-0.1,0.4-0.1,0.7-0.2,0.8C285.8,280.2,282.4,279.7,280.8,279.2L280.8,279.2z"/>
	<path d="M314.8,256c0.8,2.6,0.8,2.6-1,3.7C314,258.3,313.5,257,314.8,256z"/>
	<path d="M321.3,220.6c-1,1.6-2.6,2.4-4.5,2.9l0.1,0.1C318,221.8,319,221.2,321.3,220.6L321.3,220.6z"/>
	<path d="M318.2,234.1c-0.5,1.9-2,2.2-3.7,2.2l0.1,0.1c0.2-0.4,0.4-0.9,0.7-1.1C316.2,234.8,317.3,234.5,318.2,234.1L318.2,234.1z"
		/>
	<path d="M298.7,237.2c1.3-0.8,2.1-2.3,3.8-2.4l0.2,0.2c-0.9,0.9-1.8,1.8-2.8,2.6c-0.4,0.3-0.9,0-1.1-0.5L298.7,237.2z"/>
	<path d="M295.1,215.6c-0.9,1.4-2,2.5-3.8,2.8l0.1,0.1C292.3,217.1,293.5,216.1,295.1,215.6L295.1,215.6z"/>
	<path d="M314.5,224.9c-0.1,1.8-1.5,2.1-3,2.1l0.1,0.1C312.5,226.3,313.2,225.1,314.5,224.9L314.5,224.9z"/>
	<path d="M323.6,234.2c0.5-1.4,1.5-2.2,3.1-2l-0.1-0.1C325.8,233.1,325.2,234.4,323.6,234.2L323.6,234.2z"/>
	<path d="M306.4,239.8c-0.6,0-1.2,0-1.9,0c1.3-1.2,1.3-1.2,3.4-1.3l-0.1-0.1c0,0.3,0,0.5,0,0.8l0.1-0.1c-0.6,0.1-1.3,0.1-1.6,0.8
		L306.4,239.8z"/>
	<path d="M323.5,247c-0.3,0.8-0.5,1.5-0.8,2.3l0.1-0.1c-0.4-0.1-0.8-0.2-1.6-0.4C322.1,248.1,322.8,247.6,323.5,247L323.5,247z"/>
	<path d="M304.8,233.4c-0.4,0.9-1.1,1.4-2.1,1.5l-0.2-0.2C303,233.9,303.8,233.6,304.8,233.4L304.8,233.4z"/>
	<path d="M321.3,235.6c0.6-0.7,1.2-1.4,2.3-1.4l-0.1-0.1c-0.4,1.1-1.1,1.6-2.3,1.3L321.3,235.6z"/>
	<path d="M318.3,219.9c0.6-0.8,1.2-1.4,2.4-1.3l-0.1-0.1c-0.7,0.6-1.3,1.4-2.4,1.3L318.3,219.9z"/>
	<path d="M301.8,226.3c-0.6,0.8-1.3,0.9-2.2,0.7l0.1,0.1C300.1,226,301,226.4,301.8,226.3L301.8,226.3z"/>
	<path d="M316.8,223.4c-0.3,0.8-0.9,0.8-1.6,0.6l0.1,0.1C315.7,223.6,316.1,223.3,316.8,223.4L316.8,223.4z"/>
	<path d="M316.1,239.2c-0.2,0.2-0.3,0.3-0.5,0.5c-0.1,0.1-0.2,0-0.3,0c0.1-0.1,0.1-0.4,0.2-0.4C315.7,239.2,315.9,239.3,316.1,239.2
		L316.1,239.2z"/>
	<path d="M313.8,243.5c0.1-0.6,0.5-0.5,0.9-0.2C314.4,243.3,314.1,243.4,313.8,243.5L313.8,243.5z"/>
	<path d="M319,232c-0.2,0.2-0.4,0.4-0.5,0.6c-0.1-0.1-0.2-0.3-0.3-0.4C318.5,232.2,318.8,232.1,319,232L319,232z"/>
	<path d="M307.8,238.5c0.5-0.6,1-0.5,1.5,0l0.1-0.1C308.8,238.4,308.3,238.4,307.8,238.5L307.8,238.5z"/>
	<path d="M301.9,226.4c0.2-0.4,0.4-0.8,1-0.3C302.5,226.2,302.1,226.2,301.9,226.4L301.9,226.4z"/>
	<path d="M285.5,220c0-0.1,0-0.2,0-0.3C285.5,219.8,285.4,219.9,285.5,220L285.5,220z"/>
	<path d="M291.3,218.4c0,0.2-0.1,0.4-0.1,0.6C290.6,218.5,291.3,218.6,291.3,218.4L291.3,218.4z"/>
	<path d="M322.9,227.1c0.2-0.2,0.4-0.5,0.7-0.7l-0.1-0.1C323.2,226.5,323,226.8,322.9,227.1L322.9,227.1z"/>
	<path d="M324.2,225.6c-0.3,0.2-0.5,0.5-0.8,0.7l0.1,0.1C323.8,226.1,324,225.9,324.2,225.6L324.2,225.6z"/>
	<path d="M324.3,225.7c0.3-0.2,0.5-0.5,0.8-0.7l-0.1-0.1C324.7,225.1,324.5,225.3,324.3,225.7L324.3,225.7z"/>
	<path d="M315.2,224c0.1,0.6-0.2,0.7-0.7,0.8l0.1,0.1c0.2-0.3,0.5-0.5,0.7-0.8L315.2,224z"/>
	<path d="M290.7,224.2c-0.3,0.2-0.6,0.4-0.8,0.6c0,0,0.1,0.1,0.1,0.1C289.9,224.4,290.2,224.2,290.7,224.2L290.7,224.2z"/>
	<path d="M290.8,224.3C290.7,224.3,290.9,224.1,290.8,224.3L290.8,224.3z"/>
	<polygon points="294.5,223.6 294.5,223.4 294.4,223.5 	"/>
	<polygon points="316.7,221.3 316.7,221.5 316.8,221.4 	"/>
	<path d="M302.6,221.3c-0.1,0.2-0.1,0.4-0.2,0.6c-0.1-0.1-0.2-0.2-0.3-0.3C302.2,221.5,302.4,221.4,302.6,221.3L302.6,221.3z"/>
	<path d="M316.8,221.4c0.2-0.3,0.5-0.5,0.7-0.8l-0.1-0.1C317.2,220.8,317,221.1,316.8,221.4L316.8,221.4z"/>
	<path d="M317.6,220.7c0.3-0.3,0.5-0.5,0.8-0.8l-0.1-0.1C318.3,220.3,318,220.5,317.6,220.7L317.6,220.7z"/>
	<path d="M306.3,240.5c-0.1,0.2-0.1,0.3-0.2,0.5C305.6,240.5,306.2,240.7,306.3,240.5L306.3,240.5z"/>
	<polygon points="325.8,240.7 325.9,240.5 325.7,240.6 	"/>
	<path d="M311.5,239.9c0,0.1-0.1,0.2-0.1,0.3C311.4,240.1,311.5,240,311.5,239.9L311.5,239.9z"/>
	<path d="M311.6,240C311.9,239.6,311.6,239.8,311.6,240L311.6,240z"/>
	<path d="M321.9,238.3c0,0.1,0,0.2,0,0.3C321.9,238.6,322,238.5,321.9,238.3L321.9,238.3z"/>
	<path d="M316.1,239.3c-0.2-0.5,0.2-0.7,0.6-0.8l-0.1-0.1C316.8,238.9,316.5,239.1,316.1,239.3L316.1,239.3z"/>
	<polygon points="313.8,238.5 313.6,238.6 313.9,238.6 	"/>
	<path d="M318.3,254.1c0,0.3,0,0.6,0,0.8C318.3,254.7,318.3,254.4,318.3,254.1z"/>
	<path d="M319.1,253.4c0,0.3,0,0.6,0,0.8c-0.3,0-0.6,0-0.8,0C318.5,253.9,318.8,253.7,319.1,253.4z"/>
	<path d="M319.8,252.7c0,0.3,0,0.6,0,0.8c-0.3,0-0.6,0-0.9,0C319.3,253.2,319.5,252.9,319.8,252.7z"/>
	<path d="M313,231.3C313.3,231,312.9,231.4,313,231.3L313,231.3z"/>
	<polygon points="297.4,231.3 297.6,231.1 297.3,231.2 	"/>
	<path d="M319.8,230.6c-0.1-0.1-0.2-0.3-0.3-0.4c0,0,0.2-0.1,0.3-0.2l-0.1-0.1C319.7,230.1,319.8,230.4,319.8,230.6L319.8,230.6z"/>
	<polygon points="295.9,230.8 296,230.5 295.9,230.7 	"/>
	<path d="M319.8,229.9c0.2-0.2,0.5-0.5,0.7-0.7l-0.1-0.1c0,0.3,0,0.5,0,0.8l0.1-0.1c-0.3,0-0.6,0-0.9,0L319.8,229.9z"/>
	<path d="M321.2,228.4c0,0.3,0,0.5,0,0.8l0.1-0.1c-0.3,0-0.6,0-0.9,0l0.1,0.1C320.8,229,321.1,228.7,321.2,228.4L321.2,228.4z"/>
	<path d="M322,227.7c-0.3,0.2-0.5,0.5-0.8,0.7l0.1,0.1C321.6,228.3,321.8,228,322,227.7L322,227.7z"/>
	<path d="M322.1,227.8c0.3-0.2,0.5-0.5,0.8-0.7l-0.1-0.1C322.5,227.2,322.2,227.5,322.1,227.8L322.1,227.8z"/>
	<path d="M316.7,238.4c0.1-0.1,0.1-0.1,0.2-0.2C316.9,238.3,316.8,238.3,316.7,238.4L316.7,238.4z"/>
	<path d="M314.5,237.7c-0.2,0.3-0.5,0.5-0.7,0.8l0.1,0.1c0-0.3,0-0.6-0.1-0.9l-0.1,0.1c0.3,0,0.6,0,0.9,0L314.5,237.7z"/>
	<path d="M314.5,237c0.1,0.2,0.2,0.3,0.3,0.5c0,0-0.2,0.2-0.3,0.2l0.1,0.1C314.6,237.5,314.6,237.2,314.5,237L314.5,237z"/>
	<path d="M321.2,235.5c-0.1,0.2-0.1,0.3-0.2,0.5c0-0.1,0-0.2,0-0.2c0.1-0.1,0.2-0.1,0.3-0.2L321.2,235.5z"/>
	<path d="M318.3,234.2c0.1-0.1,0.2-0.2,0.4-0.3c0,0.1-0.1,0.2-0.1,0.2C318.4,234.1,318.3,234.1,318.3,234.2L318.3,234.2z"/>
	<path d="M304.9,233.5c0.1-0.1,0.1-0.2,0.2-0.3C304.9,233.3,304.8,233.4,304.9,233.5L304.9,233.5z"/>
	<path d="M295.1,233.5c0.3-0.2,0.5-0.5,0.8-0.7l-0.1-0.1c0,0.3,0,0.5,0,0.8l0.1-0.1C295.6,233.4,295.3,233.4,295.1,233.5
		L295.1,233.5z"/>
	<path d="M295.9,232.8c0.2-0.2,0.5-0.5,0.7-0.7l-0.1-0.1C296.3,232.2,296,232.5,295.9,232.8L295.9,232.8z"/>
	<path d="M326.6,232.2C326.6,232.2,326.6,232.1,326.6,232.2L326.6,232.2z"/>
	<path d="M296.6,232.1c0.3-0.3,0.5-0.5,0.8-0.8l-0.1-0.1C297.1,231.5,296.8,231.7,296.6,232.1L296.6,232.1z"/>
	<path d="M239.8,566.2c0.5,0.2,1,0.5,1.5,0.7c0.2,1.6-0.4,2.7-2.1,3.3c-2.8,1-5.7,1.3-8.6,1.5c-0.7-0.6-0.4-1.1-0.1-1.6
		c0.7-1.2,1.9-1.9,3.2-2.3C235.7,567.3,237.8,566.8,239.8,566.2z"/>
	<path d="M202.8,541.7c0.6,1.9,0.7,3.6-0.9,5.2C201.3,544.2,201.4,543.6,202.8,541.7z"/>
	<path d="M202.6,539.9c-0.2-2-0.4-3.2,1-4.2C204.2,537.2,203.9,538.3,202.6,539.9z"/>
	<path d="M204,533.8c-0.4-2-0.3-3,1.1-3.8C205.8,531.3,205.2,532.3,204,533.8z"/>
	<path d="M232.3,487.3c0,1.6-0.8,2.6-1.7,3.6C230.9,488.9,230.9,488.9,232.3,487.3z"/>
	<path d="M228.7,495.9c0.1-0.7,0.1-1.2,0.3-1.5c0.1-0.2,0.4-0.3,0.6-0.4c0.1,0.3,0.2,0.6,0.1,0.8
		C229.6,495.2,229.3,495.4,228.7,495.9z"/>
	<path d="M233.4,484.6c-0.3,0.3-0.5,0.5-0.8,0.7c-0.1-0.1-0.2-0.2-0.2-0.3c0-0.2,0.1-0.4,0.2-0.6
		C232.9,484.4,233.1,484.5,233.4,484.6z"/>
	<path d="M162.1,362.4c4.7,0,9.4-0.6,14.1,0.2c0.7,0.1,1.6,0.2,2.2,0c1.4-0.7,2.7-0.2,3.9,0.3c3.6,1.3,7,2.9,10.3,4.9
		c0.3,0.2,0.4,0.5,0.7,0.9c-0.5,0.1-0.9,0.2-1.2,0.1c-1.3-0.6-2.6-1.4-3.9-2c-1.6-0.7-3.1-2.1-5.1-1.3c-2.6-1.3-5.5-1.2-8.3-1.6
		c-1.2-0.2-2.5-0.2-3.7-0.3c-1.6-0.2-3.2-0.5-4.7-0.7C165,362.6,163.6,362.5,162.1,362.4z"/>
	<path d="M171.1,357c1.9-0.1,3.6,0.6,5.3,1.2c2.2,0.8,4.3,1.7,6.8,2.7c-0.7,0.3-1,0.6-1.2,0.5c-3.6-1.3-7.1-2.6-10.6-3.9
		C171.2,357.4,171.2,357.1,171.1,357L171.1,357z"/>
	<path d="M177,355.6c3.8,0.6,6.6,2.8,9.1,5.7c-0.7,0.2-1,0.3-1.1,0.2c-1.8-1.9-4-3.1-6.2-4.4C178.1,356.7,177.1,356.6,177,355.6
		L177,355.6z"/>
	<path d="M159.7,365.6c-1,1.8-0.9,3.6,0.1,5.3c0.3,0.6,0.8,1.2,0.3,2.1c-1.2-0.9-1.7-2.2-2.1-3.5
		C157.3,367.4,157.5,367.1,159.7,365.6L159.7,365.6z"/>
	<path d="M159.1,362.6c-1.2-0.7-0.8-1.9-0.8-2.9c0-1.7,1.2-3.5,3.3-4.8c0,1-0.6,1.6-1.1,2.2C159,358.8,158.5,360.6,159.1,362.6
		L159.1,362.6z"/>
	<path d="M169.6,345.7c0.6-1.5,2.1-1.4,3.3-2C172.2,345,171,345.5,169.6,345.7L169.6,345.7z"/>
	<path d="M159.9,364c-0.7-0.3-0.7-0.8-0.8-1.4l-0.1,0.1C159.3,363.2,159.5,363.6,159.9,364L159.9,364z"/>
	<path d="M159.8,364.1c0.3,0.5,0.8,1-0.1,1.5l0.1,0.1C159.9,365.1,159.9,364.6,159.8,364.1L159.8,364.1z"/>
	<path d="M171.1,356.9c-0.2,0-0.5,0-0.7-0.1C170.6,356.9,170.8,356.9,171.1,356.9L171.1,356.9z"/>
	<path d="M177,355.5c-0.7,0.1-1.2,0.1-1.4-0.7l-0.1,0C176.1,355,176.8,354.9,177,355.5L177,355.5z"/>
	<path d="M169.5,345.6c-0.2,0.2-0.4,0.3-0.2,0.1C169,345.8,169.3,345.7,169.5,345.6L169.5,345.6z"/>
	<polygon points="175.6,354.8 175.4,354.8 175.5,354.9 	"/>
	<path d="M194.2,367C194.2,367.1,194.2,367.1,194.2,367L194.2,367z"/>
	<path d="M195.7,369.1c0,0.3,0,0.6,0,0.9c-0.1-0.2-0.2-0.4-0.2-0.6C195.5,369.3,195.6,369.2,195.7,369.1z"/>
	<path d="M207.8,450.4c-0.1,0.5-0.1,1.4-0.4,2.1c-0.9,2.5-1.8,4.9-2.8,7.3c-0.4,0.9-0.9,1.7-1.6,2.4c-0.4,0.4-1.1,0.6-1.6,0.5
		c-0.8-0.1-1.1-0.9-1.1-1.6c0-0.4,0-0.7,0.1-1.1c0.7-3.6,2-7.1,3.8-10.3c0.1-0.2,0.3-0.4,0.4-0.6c0.8-1.1,1.7-1.6,2.4-1.2
		C207.6,448.3,207.9,448.9,207.8,450.4z M202.4,459.8c0.2-0.2,0.4-0.4,0.6-0.7c0,0-0.1-0.2-0.2-0.3c-0.1,0.1-0.4,0.2-0.4,0.3
		C202.3,459.4,202.4,459.7,202.4,459.8c0,0.1-0.1,0.1-0.2,0.1c0,0,0,0.1-0.1,0.2C202.2,460,202.3,459.9,202.4,459.8z M206,450.2
		c-0.4,0.5-0.6,0.8-0.7,1.1c-0.1,0.1,0.1,0.4,0.2,0.5c0.2-0.1,0.5-0.2,0.5-0.3C206,451.2,206,450.8,206,450.2z M204.2,453.3
		c0,0.1-0.1,0.2-0.1,0.3c0,0,0.1,0.1,0.2,0.1c0-0.1,0.1-0.2,0.1-0.3C204.4,453.4,204.3,453.3,204.2,453.3z M203.6,455.7
		c0-0.1,0.1-0.2,0.1-0.3c0,0-0.1-0.1-0.2-0.1c0,0.1-0.1,0.2-0.1,0.3C203.4,455.7,203.5,455.7,203.6,455.7z"/>
	<path d="M325.8,216.3c1.1-0.6,1.1-0.6,2.5-0.2C327.4,216.1,326.6,216.2,325.8,216.3L325.8,216.3z"/>
	<path d="M325.7,216.2c0,0.1,0,0.2-0.1,0.3C325.7,216.4,325.7,216.4,325.7,216.2L325.7,216.2z"/>
	<path d="M708,42.7c-1.7-1.3-2-3.3-2.2-5c-1.3-9.4,1.4-17.7,8.4-24.5c1.9-1.8,4-3.1,6.4-4.2c4.1-1.9,8.2-1.9,12.3-0.2
		c2.3,0.9,4.6,1.9,6.4,3.7c0.3,0.3,0.5,0.8,0.8,1.1l0.1-0.1c-0.9,0.1-1.4-0.5-1.9-0.9c-2.7-2.3-6.2-3-9.5-3.8
		c-1.7-0.4-3.4-0.2-5.1,0.4c-3.9,1.4-7.4,3.4-10,6.5c-6.2,7.5-8.6,15.9-5.8,25.3C707.9,41.6,707.9,42.2,708,42.7L708,42.7z"/>
	<path d="M737.1,35.6c0.1,1.2-0.2,2.3-1.5,2.8l0.1,0.1c-0.1-0.5-0.1-1-0.2-1.5c0,0,0.1,0.1,0.1,0.1c-0.8,0.7-1.5,1.4-2.3,2.2
		l0.2-0.1c-2,0-4.1,0-6.1,0l0.1,0.1c-0.1-0.9-0.9-1.2-1.6-1.5l0,0.1c-0.9-1.7-1.6-3.4-1.5-5.4c0.1-1.5,0.5-2.8,1.5-4
		c1-1.3,2.4-2.1,4.1-2.1c1.1,0,2.2,0.1,3.3,0.2l-0.1-0.1c0.3,0.3,0.5,0.6,0.8,0.8c0.3,0.2,0.6,0.4,0.9,0.6l0.1,0.2l-0.2-0.1
		c-0.3-0.2-0.6-0.4-0.9-0.6c0.1-0.3,0.1-0.6,0.2-0.9l-0.1,0.1c1.8,0.1,2.6,1.3,3,2.8l0.1,0c-0.3,0.3-0.8,0.6-0.8,0.9
		c0,1.5,0.1,3,0.2,4.5C736.6,34.9,737,35.3,737.1,35.6L737.1,35.6z M729,28.4c-2.3,0.7-2.9,2.5-3,4.4c-0.1,1.9,0.8,3.5,2.4,4.5
		c1.3,0.9,2.8,0.9,4.2,0c3.4-2.1,3.1-7.6-0.5-9.2c-1.1-0.5-2.4-0.9-3.3,0.3L729,28.4z"/>
	<path d="M734.8,39.2c0,0.1,0,0.3,0,0.3c-2.2,1.8-4.6,2-7.3,0.7c-0.1,0,0-0.2-0.1-0.3l-0.1,0.1c1.6,0,3.1,0,4.7,0
		c0.6,0,1.2-0.1,1.4-0.8l-0.2,0.1C733.8,39.2,734.4,39.2,734.8,39.2L734.8,39.2z"/>
	<path d="M713.9,51.3c-1.5-1.2-3.1-2.3-3.7-4.3l-0.1,0.1C712.1,48.4,713.1,49.7,713.9,51.3L713.9,51.3z"/>
	<path d="M737.1,29.2c1.2,1.9,0.9,4,0.5,6c0,0.2-0.4,0.3-0.5,0.4l0.1,0.1C737.2,33.5,737.2,31.3,737.1,29.2L737.1,29.2z"/>
	<path d="M709.6,45.5c-1.4-0.5-1.6-1.6-1.5-2.8l-0.1,0.1C708.9,43.5,709.2,44.5,709.6,45.5L709.6,45.5z"/>
	<path d="M716.2,52.7c-0.5-0.2-1-0.4-1.5-0.6l-0.1,0.1C715.1,52.4,715.6,52.6,716.2,52.7L716.2,52.7z"/>
	<path d="M709.5,45.6c0.6,0.4,0.8,0.9,0.6,1.5l0.1-0.1C709.4,46.8,709.4,46.2,709.5,45.6L709.5,45.6z"/>
	<polygon points="724.3,55.9 724.6,56 724.3,56 	"/>
	<path d="M743,16.5c0.1,0.1,0.3,0.2,0.4,0.2c-0.1,0-0.2,0-0.2-0.1C743.2,16.6,743.2,16.5,743,16.5L743,16.5z"/>
	<path d="M742.3,15.8c0.3,0.2,0.5,0.5,0.8,0.7l0.1-0.1C742.9,16.1,742.6,15.9,742.3,15.8L742.3,15.8z"/>
	<path d="M741.5,15c0.6-0.1,0.8,0.2,0.7,0.7l0.1-0.1c-0.2-0.2-0.5-0.5-0.7-0.7L741.5,15z"/>
	<path d="M741.6,14.9c-0.2-0.2-0.5-0.5-0.7-0.7l-0.1,0.1c0.6-0.1,0.8,0.2,0.7,0.7L741.6,14.9z"/>
	<path d="M740.9,14.2c-0.5-0.1-0.8-0.3-0.7-0.8l-0.1,0.1C740.6,13.5,740.9,13.7,740.9,14.2L740.9,14.2z"/>
	<path d="M733.4,26.4c0.2-0.5,0.5-0.7,0.7,0l0.1-0.1C733.9,26.3,733.6,26.3,733.4,26.4L733.4,26.4z"/>
	<polygon points="716.1,52.8 716.3,52.9 716.2,52.7 	"/>
	<path d="M713.8,51.4c0.6,0,0.8,0.3,0.8,0.8l0.1-0.1C714.4,51.8,714.2,51.6,713.8,51.4L713.8,51.4z"/>
	<path d="M727.5,39.9c-0.2-0.1-0.4-0.2-0.5-0.3c0.2-0.1,0.4-0.3,0.5-0.4l-0.1-0.1C727.4,39.4,727.4,39.7,727.5,39.9L727.5,39.9z"/>
	<path d="M735.6,38.5c0.1,0.5-0.2,0.8-0.8,0.7c0,0,0.1,0.1,0.1,0.1C734.9,38.8,735.2,38.5,735.6,38.5L735.6,38.5z"/>
	<polygon points="725.9,37.7 725.8,37.9 725.9,37.7 	"/>
	<path d="M516.2,438.7c0.3,0.6,0.7,1,0.6,1.3c-0.2,1-0.4,2.1-0.8,3.1c-0.7,1.8-1.4,3.5-2.2,5.3c-0.7,1.6-1.4,3.2-2.2,5
		c-0.7-3.3,0.2-6.2,1.4-9C513.8,442.4,514.1,440.2,516.2,438.7z"/>
	<path d="M551.1,412.8c-0.2-1,0.8-1.4,1.3-1.9c2-2.1,4.3-3.9,6-6.3c0.2-0.2,0.6-0.3,0.9-0.5c1.1,0.6,0.8,1.5,0.5,2.2
		c-1.2,2.6-3.3,4.4-5.9,5.6C553,412.3,552,412.5,551.1,412.8L551.1,412.8z"/>
	<path d="M534.8,444.1c-0.8-1.8-1-3.7-0.6-6.2c1.5,2.1,1.8,3.8,1.6,5.8c0,0.2-0.3,0.3-0.5,0.4C535.1,444.1,535,444.1,534.8,444.1z"
		/>
	<path d="M511.1,458.3c0.1,0.9,0.2,1.2,0.1,1.5c-0.3,1-0.6,2-1.2,3.6C509.7,461.3,509.3,459.8,511.1,458.3z"/>
	<path d="M508.8,470.4c-0.2-0.3-0.4-0.4-0.4-0.5c0.6-1.2,1.1-2.4,2-4.2c0.1,1.1,0.3,1.6,0.1,2C510.1,468.6,509.4,469.4,508.8,470.4z
		"/>
	<path d="M540,416.8c0.4-1.2,1.4-1.5,2.4-1.7c0.2,0,0.5,0.1,0.6,0.3c0.1,0.1,0.1,0.5,0,0.6C542.2,416.6,541.4,417.3,540,416.8z"/>
	<path d="M508,527.2c0.5,0.9,0.6,1.7-0.3,2.4c-0.1,0.1-0.3,0-0.3,0C506.7,529.2,506.9,528.6,508,527.2z"/>
	<path d="M531.9,467.3c0.6,1.2-0.1,1.9-0.9,2.9C530.6,468.9,530.8,468,531.9,467.3z"/>
	<path d="M546.5,414.9c0.2-1.1,1-1.4,1.9-1.6c0.6,0.6,0.2,1.1-0.3,1.3C547.6,414.8,547,414.8,546.5,414.9L546.5,414.9z"/>
	<path d="M531.4,430.6c-1-1.1-0.9-1.9-0.4-2.8C531.7,427.9,531.8,428.6,531.4,430.6z"/>
	<path d="M532.5,435.4c-0.1-0.7-0.2-1.3-0.3-2.2C533.4,434.3,533.4,434.3,532.5,435.4z"/>
	<path d="M530.1,474.9c-0.3,0.8-0.7,1.5-1.1,2.4C528.3,476.1,529,475.4,530.1,474.9z"/>
	<path d="M507.8,534.4c-0.2,0.4-0.2,0.8-0.5,1c-0.2,0.1-0.7,0.1-0.9-0.1c-0.4-0.6,0.1-1.6,0.7-1.5
		C507.4,533.8,507.6,534.1,507.8,534.4z"/>
	<path d="M558.4,416.2c0.1-0.8,0.1-1.6,0.2-2.7C559.8,414.6,559.3,415.4,558.4,416.2z"/>
	<path d="M507.4,539.3c-0.1,0.2-0.2,0.6-0.4,0.8c-0.1,0.1-0.4,0.1-0.5,0.1c-0.1,0-0.2-0.2-0.1-0.3c0.1-0.3,0.2-0.6,0.4-0.9
		c0.1-0.1,0.4-0.1,0.5-0.1C507.3,539,507.3,539.2,507.4,539.3z"/>
	<path d="M508.5,477c-0.1-0.7-0.1-1-0.1-1.3c0-0.2,0.2-0.3,0.4-0.4c0.1,0.2,0.3,0.4,0.2,0.6C509,476.1,508.8,476.3,508.5,477z"/>
	<path d="M551,412.7C550.9,412.9,551.1,412.8,551,412.7L551,412.7z"/>
	<path d="M546.4,414.8c-0.1,0.1-0.2,0.2-0.3,0.3c0-0.1,0-0.2,0.1-0.2C546.3,414.9,546.4,414.9,546.4,414.8L546.4,414.8z"/>
	<path d="M517.3,560.5c-0.1,0.2-0.2,0.4-0.3,0.6C516.5,560.6,517,560.6,517.3,560.5L517.3,560.5z"/>
	<path d="M728.2,31.3c0.3-1,0.6-2,0.8-3l-0.1,0.1c1.1,0.5,2.2,0.9,3.3,1.4c0.6,0.3,0.4,1,0.4,1.6l0.1-0.1c-0.3-0.2-0.5-0.4-0.8-0.6
		c-1-0.7-1.9-0.7-2.8,0.1C728.7,31,728.4,31.1,728.2,31.3L728.2,31.3z"/>
	<path d="M732.5,31.4c0.2,0.1,0.3,0.1,0.5,0.2c-0.1,0-0.1,0-0.2,0c-0.1-0.1-0.1-0.2-0.2-0.3L732.5,31.4z"/>
	<path d="M728.1,31.3c0,0.2-0.1,0.3-0.1,0.5C727.4,31.4,728.1,31.5,728.1,31.3L728.1,31.3z"/>
</g>
</svg>
