<?xml version="1.0" encoding="utf-8"?>
<!-- Generator: Adobe Illustrator 19.2.0, SVG Export Plug-In . SVG Version: 6.00 Build 0)  -->
<svg version="1.1" id="Layer_2" xmlns="http://www.w3.org/2000/svg" xmlns:xlink="http://www.w3.org/1999/xlink" x="0px" y="0px"
	 viewBox="0 0 900 600" style="enable-background:new 0 0 900 600;" xml:space="preserve">
<g>
	<path d="M333.6,379.6c0.8,1.4,1,3,1.3,4.6c1.4,8.9,2.8,17.8,4.2,26.7c0.1,0.7,0.1,1.4,0.4,2c1.5,3.2,1.4,6.6,0.7,9.9
		c-0.4,1.7-0.1,3,1.5,3.9c2.6-2.7,1.2-6.2,2.1-9.9c0.3,0.9,0.6,1.3,0.6,1.7c0,1.8,0.1,3.5-0.2,5.2c-0.4,2.2,0.2,3.9,2.2,5.2
		c3.1,0,6-1.3,8.7-2.9c1.1-0.6,1.7-1.6,1.6-2.9c0-0.6,0-1.2-0.1-1.8c-0.3-2.5-0.2-4.9,0.8-7.2c0.3-0.8,0.2-1.6,0-2.4
		c-0.7-2.8-1.3-5.7-2.1-8.5c-0.4-1.7-0.8-3.4-0.5-5.2c0.1-0.8,0-1.6,0-2.4c-0.3-5.5-0.1-11,0.3-16.5c0.2-3,0.3-6.1,0.2-9.1
		c-0.1-5.7-0.4-11.5-0.6-17.2c0-1.2-0.2-2.3-0.2-3.5c0-0.5-0.2-1,0-1.4c1.1-2.1,0.3-3.7-0.8-5.5c-0.8-1.4-1.9-2.9-1.4-4.9
		c0.5,0.6,1,1,1.5,1.6c0.2-2,0.5-3.9,0.7-5.7c0.1-0.8,0.1-1.7-0.2-2.4c-1.5-3-1.5-6.3-1.9-9.6c-0.2-1.7-0.2-3.5-1.3-5
		c-0.6-0.8-0.7-2-1.1-3.2c-1.7-1.3-3.8-2.3-6.1-3c-1.5-0.4-2.9-0.8-4.3-1.4c-3.4-1.3-6.8-1.3-10.4-1.2c-7.5,0.3-14.8,1.8-22.2,2.7
		c-3,0.4-5.9,1.3-8.9,2.1c-2.5,0.6-5,1.4-7.4,2c-8.4,2.1-16.4,5.5-24.5,8.6c-0.9,0.3-1.7,0.8-2.5,1.2c-0.6,1.5-1.1,2.9-1.6,4.3
		c0.2-1,0.3-2.1-0.4-3.2c-0.9,0.3-1.9,0.6-2.9,0.9c-1.1,0.3-1.8-0.1-2-1.4c-3,0-5.6,0.9-8.3,1.5c-2.6,0.6-5.1,1.3-8.4,2.1
		c1.1-1.1,1.7-1.6,2.3-2.2l-0.1,0.1c1.6-0.3,3.2-0.6,4.8-1c3.1-0.7,6.2-1.3,9.4-1.1c0.7,0,1.4,0.1,1.8-0.7c-0.2-0.7-0.8-0.8-1.4-0.8
		c-1.9,0-3.7,0-5.6,0.1c-3,0.2-6.1,0.3-9.1-0.1c-1.5-0.2-3-0.4-4.7,0.2c-0.2,0.6-0.5,1.3-0.5,1.9c-0.3,3.6-0.5,7.2-0.7,10.9
		c0,0.6,0,1.2-0.1,1.7c-1,3.8-0.4,7.7-0.6,11.5c0,0.5,0,0.9,0.1,1.4c0.5,3.1,0.9,6.2,1.4,9.5c2.9,2.5,4.4,6.4,7.2,9.1
		c0.8,0.1,1-0.5,1.2-1c1.2-3.1,1.5-6.3,2.3-9.5c0.2-0.7,0.1-1.4,0.1-2.1c0-3.3,1.1-4.5,4.5-5.1c0.3-0.1,0.7-0.2,1.2-0.3
		c0.4-1,1-2,1.4-3.1c1.6-4.6,3.2-9.3,4.6-14c0.4-1.3,0.4-2.8,0.6-4.1c0.1-1.2,0.9-1.6,2-1.4c0,3.4-1.3,6.4-2.3,9.5
		c-1.4,4.2-2.9,8.4-4.3,12.6c-0.1,0.2,0,0.4,0,0.8c0.4,0.1,0.8,0.2,1.3,0.3c1.3,0.2,2.2,0.9,2.7,2c0.7,1.6,1.4,3.2,1.8,4.9
		c1.2,4.9,2.3,9.8,2.5,14.9c0,0.4,0.2,0.8,0.4,1.3c0.5-0.1,0.8,0,1.1-0.1c4.1-1.6,8.2-3.4,12-5.7c5.4-3.3,11-6.3,16.7-8.9
		c3.5-1.6,6.9-3.5,10.2-5.4c0.9-0.5,1.7-1.2,2.5-1.9c4.2-3.4,8.8-6.2,13.7-8.5c1.6-0.7,3.3-1.2,4.9-1.8c1.3-0.5,2.8-0.6,4-1.7
		c0-0.7,0-1.5,0-2.2c-0.4-0.1-0.6-0.2-0.8-0.2c-1.7,0.3-3.4,0.7-5.1,1c-0.2,0-0.5-0.3-1-0.7c3.4-0.9,6.2-2.5,9.1-3.9
		c0.3-0.2,0.6-0.4,1-0.4c0.3,0,0.7,0.1,0.9,0.3c0.1,0.2,0.1,0.7,0,0.9c-0.6,0.6-1.2,1.1-1.9,1.6c-1.1,8-2.6,16.1-2.7,24.3
		c-0.1,3.3,0.3,6.5,1.4,9.7c0.7,2.3,1.8,4.6,1.6,7.1c-0.3-0.3-0.7-0.6-0.9-1c-1.7-3.4-2.8-6.9-3.3-10.7c-0.5-3.3,0.1-6.5,0.2-9.7
		c0-1.4,0.2-2.8,0-4.2c-0.3-3,0-5.8,1-8.6c0.1-0.4,0-0.9,0-1.5c-1,0.4-1.7,0.6-2.5,1c-2.2,1.1-4.3,2.4-6.5,3.5
		c-3.9,2.1-7.8,4.3-11.2,7.1c-1.6,1.3-3.4,2.5-5.3,3.5c-4.6,2.5-9.4,4.8-14,7.3c-5.4,2.8-10.7,5.8-16.5,7.8c-1,0.4-1.9,0.9-2.8,1.4
		c-0.9,0.5-1.8,1-2.6,1.4c0.1,0.7,0.2,1.1,0.2,1.6c0,0.6,0,1.2-0.1,1.7c0,0.7-0.2,1.4-0.1,2.1c0.9,5.6,0.1,11.2-0.8,16.8
		c-1.6,9.5-4.8,18.6-7.7,27.7c-1.5,4.7-3,9.3-4.3,14.1c-0.3,1.1-0.6,2.3-0.9,3.4c-0.2,0.7-0.5,1.3-0.8,1.9c-0.8,1.4-1.7,2.8-2.5,4.1
		c0.6,1.6,0.5,3.1,0.1,4.6c-0.6,2-1.2,4-1.7,6.1c-0.9,3.7-2.6,6.7-5.7,8.8c-0.3,1.4-0.7,2.7-0.9,3.9c-0.4,3.1-1.1,6.2-1.1,9.4
		c-0.1,4.4-0.6,8.6-1.8,12.8c-1.4,5.2-3.2,10.3-5.2,15.3c-0.5,1.3-1,2.7-1.1,4c-0.3,4.2-0.6,8.4-0.6,12.6c-0.1,3.7,0.1,7.5,0.3,11.2
		c0,0.7,0.3,1.3,0.5,2.1c1.6,0,3.1,0,4.8,0c0.5,2.1,2,3.4,3.6,4.6c0.9,0.7,1.8,1.5,2.7,2.3c1.9,1.8,3.9,3.4,4.7,6
		c0.4,1.1,1.4,1.5,2.3,2c2.7,1.2,5.4,2.3,8.2,3.6c1.9-0.7,4-0.3,6.1,0.2c2.3,0.5,4.6,0.9,6.9,0.4c0.5-0.1,1.1,0.1,1.6,0.1
		c1,1.9,1.9,3.6,2.7,5.4c1.1,2.5,0.7,4.8-0.8,6.9c-0.6,0.8-1.4,1.6-2.2,2.3c-5.4,4.9-12,6.6-19,7c-5.1,0.3-9.9-1.1-14.6-3.1
		c-1.6-0.7-3.3-1.2-4.9-1.8c-0.8,0.5-1.6,0.9-2.2,1.4c-1.9,1.4-4,2.4-6.2,3.2c-1.4,0.6-2.8,0.9-4.4,0.4c-0.7-0.3-1.6-0.2-2.4-0.1
		c-3.2,0.4-6.2-1-9.4-0.5c-0.2,0-0.4-0.1-0.7-0.2c-2.5-1-5-1.9-7.5-2.9c-0.5-0.2-0.8-0.7-1.5-1.2c1.9-1.6,2.5-3.6,3-5.7
		c0.5-2.4,1-4.8,2.3-6.9c0.3-0.6,0.3-1.3,0.4-2c0.4-3.4,1.3-6.7,2.5-9.8c0.9-2.4,2.2-4.6,4.6-5.7c0.1-1.3,0.3-2.3,0.4-3.4
		c0.1-1.6,0.3-3.3,0.1-4.9c-0.5-4.7-0.4-9.3-0.1-14c0.3-4.1-0.2-8.2-0.9-12.2c-0.5-3-1.1-6-1.4-9c-0.4-3.8-0.5-7.7-0.6-11.6
		c-0.1-1.5,0.1-3,0.2-4.5c0.2-2,0.5-3.9,0.8-5.9c0.2-1.6,0.4-3.2,0.7-4.9c0.3-2.1,1.1-4.1,0.9-6.2c0-0.6,0.1-1.2,0.3-1.7
		c1.3-4.3,3.1-8.3,4.9-12.4c0.2-0.4,0.4-0.9,0.7-1.2c2.2-1.9,2.9-4.5,3-7.2c0.1-2.6,0-5.1,0-7.7c0-0.7,0-1.5-0.3-2
		c-0.9-1.3-0.7-2.7-0.8-4.1c-0.2-3-0.4-6.1-0.7-9.1c-1-8.5-2-17-1.5-25.6c0-0.4-0.1-0.8-0.3-1.8c-0.8,3.5-1.4,6.3-2,9.1
		c-0.3,1.4-1.1,2.4-2.4,2.8c-1.4,0.5-2.9,0.7-4.4,0.9c-2.6,0.2-4.6-0.9-5.5-3.4c-0.6-1.6-1.2-3.3-1.6-5c-1.2-5.1-1.9-10.4-2.1-15.6
		c-0.2-4.7-0.3-9.3-0.5-14c0-0.2,0-0.5,0.1-0.7c0.4-3.2,0.7-6.5,1.3-9.7c0.3-1.6,0.9-3.1,1.4-4.7c0.4-1.2,1.2-2,2.5-2.2
		c0.9-0.2,1.8-0.5,2.7-0.8c0.2-0.7,0.3-1.3,0.4-1.8c1.2-6,2.7-11.9,5.4-17.4c0.5-1,0.9-2.1,2-2.8c1-0.6,1-1.7,0.9-2.8
		c-0.4-2.8-0.8-5.6-1-8.4c-0.3-3.7-0.4-7.5-0.4-11.2c0-1.9,0.1-3.7,0.2-5.6c0.1-2-0.2-4,0.7-5.9c0.5-1,0.5-2,0.5-3
		c-0.2-2.2-0.6-4.5-0.3-6.6c0.4-2.6,0.1-5.1-0.2-7.6c-0.1-1-0.4-2.1-0.8-3c-3-6-4.5-12.3-4.2-19c0.1-2.2,0.2-4.5-1.2-6.4
		c-0.3-0.4-0.2-1.1-0.3-1.7c-0.2-1.4-0.4-2.8-0.6-4.2c-0.9-4.8-0.3-9.6,0.9-14.2c0.5-2.1,1.2-4.3,2.8-6c0.5-0.5,0.7-1.2,0.9-1.9
		c1.3-3.9,3.1-7.6,5.4-11c1.5-2.2,2.4-4.6,2.8-7.1c0.6-4.6,1-9.3,0.3-14c-0.1-0.9-0.3-1.9-0.1-2.8c0.5-2.1-0.4-3.5-1.9-4.9
		c-3.1-2.9-5.7-6.2-6.4-10.6c-0.1-0.3-0.3-0.6-0.5-0.9c-1.8,4.1-2.8,10.4-2.4,14.7c0.2,1.5,0.2,3-0.1,4.5c-0.2,0.9-0.2,1.9-0.3,2.8
		c-0.4,4.4-1.1,8.8-2.6,13c-0.9,2.5-1.7,5.1-1.2,7.9c0,0.2-0.2,0.4-0.3,0.7c-0.3,0-0.7,0-1.1-0.1c-0.4,0.8-0.8,1.6-1.2,2.4
		c-0.3,0.7-0.5,1.6-0.9,2.3c-0.4,0.7,0.2,1.8-1,2.2c0.2-1.3,0.4-2.6,0.5-3.9c0.1-2.3,0.2-4.7,0.1-7c-0.1-2.1-0.4-4.2-0.4-6.3
		c0-4.4,0.1-8.9,0.1-13.3c0-1.6,0.1-3.2-0.6-4.8c-0.4,7.7-0.8,15.4-1.2,23.1c-0.3-2.1-0.4-4.2-0.5-6.2c-0.2-2.3-0.4-4.6-0.5-7
		c1.2-2.2,1.2-4.7,1.3-7.1c0.1-4,0.1-7.9,0.1-11.9c0-1.8,0-3.7-0.4-5.5c-0.1,0.8-0.1,1.5-0.2,2.3c-0.1,2.1-0.3,4.2-0.4,6.3
		c-0.1,2.1-0.3,4.2-0.3,6.3c-0.1,3.3,0,6.5-0.1,9.8c-1.3-1.4-1.3-3.2-1.4-5c-0.2-2.9-0.3-5.9-0.1-8.8c0.5-6,0.6-11.9,0.7-17.9
		c0-0.7,0-1.4,0.1-2.1c0.5-2.9,0.7-5.8,1.5-8.6c1.2-4.3,4.4-6.3,8.8-5.6c1.9,0.3,3.8,1.1,5.7,1.7c0.6,0.2,1.3,0.3,1.6,0.3
		c1.3-1.6,2.3-3,3.6-4.2c1.4-1.3,3-2.3,4.5-3.4c1.8-1.4,3.8-2.3,6-2.9c3.2-0.9,6.4-1.5,9.6-1.8c2.4-0.2,4.9-0.7,7.3-0.4
		c2.4,0.3,4.6,1.5,7,2.3c3.4,1.2,5.8,3.9,8.4,6.2c0.5,0.4,0.8,1.2,1,1.8c1.5,4.3,3.2,8.5,3.7,13.1c0.2,1.9,0.4,3.7-0.4,5.5
		c-0.6,1.5-0.6,3,0.1,4.4c0.6,1.3,1.1,2.6,1.7,3.9c0.6,1.4,1.3,2.7,2,4.1c0.2,0.5,0.3,1.1,0.3,1.5c-1.1,1.7-2.9,1.2-4,2.1
		c-0.7,1-0.4,1.9-0.2,2.8c0.2,1.3-1.2,1.7-1.3,2.8c1.1,1.7,0.2,3.1-0.9,4.4c0,1.6,0,3.2,0,4.7c-1.6,1.7-3.6,2-5.6,2.1
		c-1.8,0-3.5-0.1-5.3,0c-1.2,0-2.5,0-3.3,0.9c-1.5,1.6-2.9,3.5-3.4,5.7c-0.5,2.1-0.5,4.4-0.7,6.2c0.8,1.1,1.5,1.9,2,2.8
		c1.1,2.1,2.1,4.2,3,6.3c0.6,1.4,1.5,2.3,2.6,3.2c2.1,1.5,4.2,3,6.2,4.6c1.3,1,2.5,2.1,3.9,3c3.3,2,6.3,4.4,9.4,6.7
		c2.9,2.1,4.7,4.8,6,8c1.4,3.3,2.1,6.7,2.3,10.2c0.3,4.8-1.2,9-5.5,11.8c-0.7,0.4-1.3,0.9-2,1.4c-0.1,0.6-0.2,1.2-0.1,1.8
		c0.3,5.4-0.1,10.7-2.4,15.8c-0.5,1.2-1,2.4-1.3,3.6c-1.6,5.4-3.6,10.6-4.2,16.3c-0.4,3.8-0.9,7.7-1.4,11.5c0,0.1,0.1,0.2,0.3,0.5
		c0.4-0.1,0.8-0.2,1.2-0.4c4.1-1.6,8.2-3.3,12.4-4.9c4.3-1.6,8.7-2.9,13.2-3.5c5.3-0.6,10.6-1.6,15.9-2.3c6.5-0.9,12.9-2.2,19.4-3
		c3.3-0.4,6.6-0.4,9.8,0.4c3.5,0.9,7,2,10.4,3.1c2,0.6,3.2,2.2,4.2,4c0.5,1,1,2.1,1.5,3.2c0.6,1.4,1.2,2.8,1.1,4.3
		c-0.2,3,0.7,6,0.4,9.1c0,0.3,0.2,0.6,0.3,1c0.2,0.5,0.5,1.1,0.4,1.6c-0.3,3.8,0.7,7.4,0.9,11.2c0.2,3.1,1,6.3,0,9.4
		c-0.1,0.4,0,0.9,0,1.4c0.1,1.6,0.2,3.3,0.2,4.9c-0.1,6.5-0.3,13.1-0.3,19.6c0,6.9,0.2,13.8,0.3,20.7c0,0.5,0.1,0.9,0.2,1.4
		c0.9,3.4,1.7,6.8,2.6,10.3c0.7-0.2,1.5-0.3,2.2-0.5c1.8,2.3,3.4,4.4,5.1,6.5c0.8,1,1.5,2.1,1.6,3.5c-1.2-1.2-2.5-2.4-3.7-3.7
		c-1.3-1.4-2.4-2.8-3.8-4.4c-0.7,0.5-1.5,0.7-1.7,1.2c-0.9,1.9-1.6,3.8-1,6c0.4,1.5,0.1,3.2,0.1,4.9c-1.5,1.1-2.9,2.2-4.4,3.2
		c-2.4,1.6-5.2,2.1-8,2.3c-1.8,0.1-3.5-0.5-4.7-1.9c-1.3-1.5-2.6-3-3.8-4.5c-0.9,0.1-0.6,0.9-0.8,1.3c-0.3,0.5-0.8,0.8-1.1,1.3
		c-0.2,0.4-0.4,0.8-0.5,1.3c-0.1,0.6,0,1.2,0,1.7c0,3.9-0.4,5.2-2.8,8.4c0,1.9,0.2,3.9-0.1,5.9c-0.3,1.9-1.1,3.8-1.6,5.7
		c0.3,0.7,0.9,0.5,1.5,0.6c1.8,0.3,3.7,0.7,5.5,1c1.7,0.2,3.5,0.4,5.2,0.5c1,0.1,2-0.1,3-0.5c1.4-0.6,2.9-0.7,4.4-0.9
		c1.3-0.2,2.5-0.3,3.6-1.2c1.7-1.4,3.9-1.4,5.7-0.6c2.7,1.2,5.5,1.2,8.2,1.6c2.2,0.3,4.4,0.2,6.7,0.3c1.2,0.1,2.5-0.4,3.7,0.7
		c0.3,0.3,1.1,0.2,1.7,0.1c2.7-0.3,5.3-0.7,8-1.1c2.1-0.4,4.2-0.8,6.1-1.5c3.7-1.3,7.4-2.8,10.3-6c-0.6-1.4-1.1-2.8-1.7-4.2
		c-0.6-1.4-1.4-2.7-1.9-3.8c-2.8-0.2-5.2-0.3-7.6-0.4c-2.4-0.1-4.2-2-6.6-2.2c-1.3,0.4-1.5,2.6-3.5,2c-0.5-1.2,0.8-2.2,0.4-3.4
		c-0.8-1.3-2-2.2-3.8-2.4c-1.1,1.6-1.1,3.9-3.5,5c-0.2-0.6-0.4-1-0.3-1.4c0.4-1.3,0.9-2.6,1.4-3.9c-0.3-1.4-1.7-1.3-2.4-2
		c-0.4,0.3-0.7,0.4-0.9,0.7c-0.9,1.5-1.6,3.1-3.2,3.9c-1-0.6-0.6-1.3-0.3-1.9c0.6-1.4,1.3-2.7,2.1-4.2c-1-0.6-1.9-1.1-2.8-1.5
		c-0.3,0.1-0.6,0.2-0.7,0.3c-0.8,1-1.5,2.1-2.3,3.1c-0.9,1.2-1.9,2.4-3.5,2.8c-0.7-0.3-0.3-0.8-0.1-1.1c1.7-2.5,3.3-5.1,5.7-7
		c0.3,0,0.8,0,1,0.1c2.6,1.8,5.6,2.9,8.4,4.2c3.1,1.4,6.1,2.9,9,4.6c3.4,2,7.1,3.6,11.3,2.9c1.4-0.2,2.8-0.2,4.2,0.2
		c2.1,3.2,3.7,6.6,3.6,10.5c-2.2,3.3-5.4,4.8-9.1,5.3c-2.1,0.3-3.4,1.6-5.5,2.7c4.1,1.1,7.2,3.2,10.2,5.4c1.7,1.2,3,2.7,2.3,5
		c-0.1,0.2,0,0.5,0,0.7c0.9,5.9-0.8,11.6-0.6,17.5c0,0.1,0,0.2,0,0.3c-0.2,1.4-0.9,2.1-2.3,2.3c-0.8,0.1-1.6,0.1-2.4,0.1
		c-2.8-0.2-5.6-0.6-8.4-0.7c-5.7-0.2-11.4-0.2-17.2-0.2c-0.5,0-1.1,0.2-1.8,0.3c-0.1,5.9,0.5,11.6,0.6,17.3c0.1,5.8,0,11.6,0.8,17.3
		c3.8,0.5,7.4,1.1,10.9,1.5c1.3,0.1,2.6-0.1,3.8-0.2c0.9,0,1.9-0.2,2.8-0.1c2.3,0.1,4.7,0.4,7,0.6c0.7,0.1,1.3,0.2,2.1,0.3
		c0.7,1.5,1.3,2.8,1.9,4.1c-0.6,4.3-0.3,8.5-0.9,12.6c-1.7,0.5-3.2,1.2-4.9,1.1c-6.4-0.2-12.9-0.2-19.3-0.3c-1.2,0-2.3,0-3.4,0.7
		c-0.1,0.4-0.2,0.7-0.2,1c-0.4,5.6-0.8,11.2-1.2,16.8c-0.1,0.8-0.1,1.6,0,2.4c0.5,3.4,0.5,6.8,0.5,10.2c0,1.6-0.1,3.3,0.3,4.6
		c1.8,0.1,3.4,0,5,0.3c7.7,1.2,15.4,1.3,23.1,0.6c4-0.4,7.9-0.5,11.9-0.6c2.6-0.1,5.1,0.3,7.7,0.2c1.6,0,3,0.2,4.3,1
		c0.1,0.4,0.3,0.7,0.4,1c0.7,5.6,1.2,11.2,0.3,16.8c-0.2,1-0.2,2.1-0.1,3.1c0.2,1.5-0.5,2.5-1.6,3.3c-1.8,1.4-3.9,1.9-6,1.4
		c-2-0.5-4-0.4-5.9-0.3c-2.1,0.1-4.2-0.2-6.2-0.3c-0.7,0-1.4-0.1-2.1-0.1c-4,0.1-8,0.1-11.9,0.2c-6.3,0.2-12.6,0.1-18.9-0.6
		c-2.3-0.3-4.7-0.2-7-0.2c-7.4,0.2-14.7,0.3-22.1-0.6c-2.8-0.3-5.6-0.6-8.4-0.7c-6.2-0.3-12.4-0.5-18.6-0.8
		c-3.4-0.1-6.8-0.1-10.2-0.3c-2-0.1-4-0.3-6-0.4c-1.5-0.1-2.3-0.9-2.7-2.3c1.3,0.1,2.6,0.2,3.8,0.2c7.5,0,15-0.1,22.4,0.1
		c6.3,0.2,12.6,0.7,18.9,1c6.1,0.3,12.1,0.7,18.2,0.8c7.6,0.1,15.2,0.1,22.8,0.1c1.7,0,3.4-0.2,5.2,0.6c0.9,0.4,2.1,0.2,3.1,0.1
		c3-0.1,6.1-0.2,9.1-0.2c3.7,0.1,7.4,0.4,11.2,0.4c2.5,0,4.9,0.2,7.3,0.8c0.5-0.3,1.2-0.6,1.7-1c0.6-0.4,1.1-0.9,1.7-1.3
		c0.4-1.6,0.5-3.2,0.4-4.9c-0.3-4-0.6-7.9-0.9-11.9c-0.1-0.7-0.2-1.4-0.2-2c-1.4-0.4-1.3,1.2-2.5,1.5c-1.9-0.3-4.2,0.8-6.5,0.1
		c-4,0.7-8.1,0.4-12.2,1c-2.4,0.4-4.9,0.5-7.2-0.8c-0.5-0.3-1.1-0.2-1.7-0.3c-5.1-1.1-10.2-0.7-15.3-0.1c-2,0.2-3.9,0.5-5.9-0.2
		c-0.6-0.2-1.3,0-2,0c-0.1,0-0.1,0.1-0.3,0.4c3.2,0.9,6.5,0.4,10.2,1.1c-3.8,1.8-7.3,0.2-10.6,0.8c-0.9-1.5-1.5-3-0.8-4.7
		c0-0.1,0.1-0.2,0.1-0.3c-0.7-5.1,0.8-10,1-15l-0.1,0.1c0.2,0.5,0.6,1,0.6,1.6c0,2-0.2,4-0.3,5.9c-0.2,2.3-0.5,4.7,0,7
		c0.1,0.3,0.5,0.6,1,1.1c0.2-0.9,0.4-1.4,0.5-2c0-1.2,0-2.3,0-3.5c-0.2-6.1,0.1-12.1,0.5-18.2c0.4-6.3,0.5-12.6,0.5-18.9
		c0-7.7-0.3-15.4-0.4-23.2c-0.1-3-0.1-6.1-0.2-9.1c-0.1-2.8-0.3-5.6-0.3-8.4c0-2.8,0.2-5.6,0.2-8.4c0-0.9-0.3-1.1-1.7-1
		c-0.5,1.8-0.2,3.7,0,5.5c0.4,4.6,0.4,9.1,0.2,13.7c-0.1,2.5-0.3,4.9-0.5,7.4c0,0.4-0.2,0.9-0.4,1.3c-0.6-4.7,0-9.3,0-14
		c0-4.7-0.2-9.3-0.5-14.1c-3,0-5.7,0-8.4-0.1c-2.6-0.1-5.1-0.2-7.9-0.4c-0.1,0.7-0.3,1.3-0.2,2c0.3,4,0.9,7.9,1.1,11.9
		c1,16.5,1,33,0.9,49.5c0,3.4-0.3,6.8-0.4,10.2c0,0.5,0,1-0.1,1.4c-1.5,4.2-1.2,8.5-1.4,12.8c-0.2,3-0.8,5.7-1.7,8.4
		c-4.1,1.9-7.6,2.1-13.4,0.7c-0.1-0.7,0.5-0.7,0.9-0.7c1.4,0,2.8,0,4.2,0c2.6,0,5.1-0.2,7.6-1.3c0-0.4,0-0.9,0-1.4
		c-0.3-0.1-0.7-0.3-1-0.3c-1.9-0.1-3.7,0-5.6-0.2c-3.3-0.2-6.5-0.2-9.8,0.1c-5.6,0.4-11.2,0-16.8-0.4c-4.2-0.3-8.4-0.3-12.6-0.5
		c-1.9-0.1-3.1,0.7-3.9,2.3l0.1-0.1c-0.8,1-0.8,2.1-0.8,3.3c0,2.3,0.1,4.7,0,7c-0.1,2.2-0.5,4.4-0.7,6.6c-0.3-0.1-0.7-0.1-1.3-0.2
		c-0.4-2.9,0-5.7,0.2-8.6c0.1-2.9,0-5.8,0-8.9c0.8-0.8,1.7-1.5,2.5-2.4c0.7-0.8,1.5-1.1,2.5-1.1c0.6,0,1.2-0.1,1.8-0.1
		c6.4,0.2,12.9,0.5,19.3,0.7c3.2,0.1,6.3,0.2,9.5-0.1c4-0.4,7.9-0.4,11.9,0c1.6,0.2,3.2,0.1,4.9,0.1c0.1-0.6,0.2-1.1,0.3-1.5
		c0.4-4.9,0.7-9.8,1.1-14.7c0.2-3.2,0.6-6.3,0.7-9.4c0.1-3.1,0.1-6.3,0-9.4c0-0.5-0.2-1.1-0.3-1.8c-8.8,0-17.4,0-26.2,0
		c-0.4-1.7-1.7-3.1-1.7-4.9c0-2.8,0.1-5.6,0.6-8.4c0.3-1.8,1.6-2.8,2.6-4c0.3-0.4,1.3-0.5,1.9-0.4c1.2,0.3,2.3,0.1,3.5,0.1
		c2.2,0,4.4,0.2,6.7,0.2c3.5,0.1,7,0.2,10.5,0.2c0.6,0,1.1-0.2,1.8-0.3c0.4-1.5,0.2-2.9,0.2-4.3c-0.3-10.1-0.6-20.1-1-30.2
		c0-0.7,0.3-1.4-0.6-2.2c-0.5-0.1-1.3-0.2-2.1-0.3c-0.9-0.1-1.9,0-2.8-0.1c-4.5-0.3-9.1-0.8-13.6-1.1c-3.3-0.2-6.5-0.3-9.8,0.3
		c-1.7,0.3-3.2-0.1-4.7-1.3c-0.3-1.9-0.8-3.8-0.8-5.8c-0.1-2.1,0.3-4.2,0.4-6.3c0.1-0.8,0.3-1.7,0.1-2.4c-0.7-2.4,0.5-4.1,2.1-5.6
		c0.7-0.6,1.8-1,2.1-1.8c0.7-1.6,2.1-2.1,3.4-2.9c1.9-1.1,3.8-2.3,5.3-3.2c0.6-1.8,0.9-3.3,1.6-4.7c1-2,1.4-4,1-6.1
		c-0.3-1.5,0-2.7,0.6-4.1c0.8-1.9,1.7-3.9,1.6-6.1c-0.2-3.1,0.9-5.7,3-7.9c0.9-0.9,1.9-1.5,2.9-2.3c0.3-1.3-0.1-2.5-0.5-3.7
		c-0.7-2.2-1.2-4.5-1.7-6.8c-0.5-2.6-0.9-5.3-1.3-8c-0.7-4.9-1.8-9.7-1.7-14.6c0-0.8-0.2-1.6-0.4-2.4c-0.5-2.2-1.1-4.3-1.6-6.4
		C332.1,378.9,332.8,379.2,333.6,379.6z M254.1,142.6c-3.1-1.8-6.6-2.4-10-1.9c-4.6,0.7-9.2,1.5-13.7,2.7c-3.5,0.9-6.7,2.6-9.2,5.4
		c-0.1,0.1-0.2,0.2-0.3,0.3c0.1,0,0.2-0.1,0.2-0.1c0-0.1,0-0.2,0-0.3c0.7-0.1,1.3-0.2,2-0.4c1.9-0.6,3.7-1.4,5.6-2
		c0.7-0.2,1.6-0.2,2.4-0.3l-0.1-0.1c-0.3,0.3-0.7,0.6-1,0.8c-2.2,0.9-4.3,1.7-6.5,2.5c-3.3,1.3-6.3,3.1-8,6.6
		c-1.9-0.3-3.7-0.5-5.5-0.8l0.1,0.1c0.1-0.2,0.2-0.5,0.4-0.5c0.5-0.2,1.2-0.2,1.7-0.5c0.3-0.2,0.4-0.8,0.7-1
		c0.3-0.2,0.9-0.2,1.5-0.3c-1.3-0.3-2.5-0.6-3.6-0.8c-1-0.1-2.1-0.1-3.1,0c-1.3,0.1-2.2,0.8-2.5,2.1c-0.7,3.1-1.4,6.1-2,9.2
		c-0.3,1.3-0.4,2.5-0.5,3.8c-0.1,0.8-0.3,1.7-0.1,2.4c0.7,1.7,0.4,3.5,0.2,5.2c-0.3,2,0,3.9,0.1,5.9c0.4,5.5,1.1,10.9,0.6,16.4
		c-0.4,4.1-0.2,8.2-0.2,12.3c0,0.2,0.2,0.4,0.3,0.5c0.1-0.2,0.2-0.4,0.2-0.6c0.4-6.4,1.1-12.8,1.1-19.3c0-1.6,0.1-3.2,0.9-4.7
		c-0.2,9.6-0.4,19.1-1.8,28.8c1.2-2.3,1.2-2.3,1.3-4.8c0-1.8,0.4-3.5,1.4-5l-0.1,0.1c0.2-0.6,0.5-1.3,0.6-1.9c0.2-1,0.1-2.1,0.4-3.1
		c0.4-1.4,0.3-2.7-0.1-4.1c-1.5-6.5-1.2-12.9,0.5-19.3c0.1-0.4,0.5-0.7,0.7-1.1l-0.1-0.1c-0.1,1.2-0.1,2.3-0.3,3.5
		c-0.3,2.5-0.7,5.1-0.9,7.6c-0.1,0.8,0.1,1.6,0.3,2.4c0.3,1.3,0.8,2.7,1.5,4c0.1-1.8,0.1-3.6,0.2-5.4c0.2-6.3,0.9-12.5,3.6-18.4
		c1-2.2,1.1-4.5,1.3-6.8c0.1-1.2,0-2.6,0.9-3.7c0.4,0,0.8-0.1,1,0.1c2.1,1.5,4.3,2.7,5.9,4.7l-0.1,0.1c-0.5,0-0.9,0-1.4,0
		c-0.1-0.2-0.2-0.3-0.3-0.5c-0.3,0.6,0.1,0.4,0.4,0.4c-0.2,0.7,0.3,1.1,0.7,1.4c1.7,1.3,3.4,2.7,5.1,4c-1.7,0.6-2.9-1.1-4.5-1.1
		c-0.3-0.3,0.1,0,0.1-0.1c-0.1,0.8,0.5,1.2,0.9,1.7c0.8,0.9,1.7,1.8,2.5,2.6l0.1-0.1c-0.2,0-0.5,0.1-0.7,0c-3.9-2-6.7-5-7.7-9.4
		c-0.2-1,0-2.2-1.3-2.9c-0.6,1.5-0.8,2.9-0.6,4.4c0.2,1.3,0.4,2.5,0.6,3.8c0.5,2.9,0.8,5.8,1.4,8.6c0.3,1.6,1.1,3.1,2.3,4.3
		c1.1,1.1,2.2,2.1,3.3,3.2c0.8,0.7,1.6,1.4,2.5,2.2c-0.4,0.5-0.8,0.9-1,1.4c-0.1,0.5,0,1.1,0,1.7c0.2,6.3,0.8,12.6-0.7,18.8
		c-0.4,1.8-0.7,3.6-1,5.6c1.8,0.1,3.5,0,5.2-0.1c1.3-0.1,2.6,0,3.8,0.1c0.3,0,0.5,0.6,1,1.2c-4.1,0.2-7.8,0.2-11.6,1.1
		c-0.7,0.9-1.6,1.8-2.4,2.9c-0.7,0.9-1.2,2-1.7,3c1,0.8,1.3-0.2,1.8-0.4c0.6-0.3,1.2-0.7,1.9-1c0.7-0.3,1.5-0.6,2.3-0.9
		c0.7-0.2,1.3-0.5,2-0.7c0.7-0.2,1.3-0.3,2-0.4l-0.1-0.1c0,0.3,0,0.7,0,1.2c-0.8,0.3-1.7,0.7-2.6,1c-2,0.8-3.9,1.6-5.6,2.8
		c-1,0.7-2.3,1.1-3.5,1.6c-2.9,5.6-4.1,11.6-4.4,17.8c0,0.5,0,0.9,0.1,1.4c1.5,5.7,1.9,11.5,2.5,17.3c0.2,2.2,0.5,4.4,1.1,6.5
		c0.9,3.6,2.2,7.2,3.2,10.7c0.4,1.4,1.5,2.8,0.3,4.3c-0.2,0.2,0,0.7,0,1c0.6,4.9,0.8,9.8,0.6,14.7c0,0.9,0.3,1.8,0.5,2.8
		c-0.4-0.1-0.7-0.2-1-0.3c-0.1,0.2-0.3,0.4-0.3,0.5c0,6.7-0.2,13.3,0.1,20c0.2,5.1,0.9,10.3,1.5,15.4c0.2,1.5,0.2,3,1.3,4.3
		l-0.1-0.1c0.1,1.5-0.2,3.1,1.4,4.1c0.8,2.5,1.5,5.1,1.5,7.8c-0.8,0.9-0.5,1.6,0,2.5c0.4,0.7,0.6,1.5,0.8,2.3c0.3,1.1,0.6,2.2,1,3.6
		c-0.4,0.8-1.9,1-2.1,2.3c-0.2,1-0.5,2-0.7,3c-0.4,1.9-0.8,3.9-1.1,5.9c-0.2,1.4-0.2,2.8-0.1,4.2c0.1,1.5,0.4,3,0.5,4.5
		c0.1,1.4,0.3,2.9,0,4.2c-0.6,2.6,0.7,4.5,2.1,6.3c0.1,0.1,0.4,0.1,0.7,0.2c0.7-1.5-0.9-2.6-0.8-4.1c0.3-0.4,0.7-0.3,1,0.2
		c0.5,0.8,1,1.6,1.3,2.5c0.5,1.4,1.4,2.4,3.1,3.1c0.6-0.2,1.3-0.4,2-0.6c0.1-0.4,0.2-0.7,0.1-0.8c-0.6-1.4-1.3-2.7-1.9-4
		c0.6-0.8,1.1-0.6,1.5-0.1c0.9,1.5,1.8,3,2.6,4.6c0.3,0.5,0.4,1,0.7,1.7c1.4-0.5,2.9-0.2,4.2-1.4c-0.5-1.6-0.9-3.1-1.4-4.6
		c0.6-0.6,1.2-0.2,1.4,0.3c0.7,1.6,1.2,3.3,1.7,4.9c1.4,0.8,2.6-1.2,4-0.1c-1.6,2-2.6,2.3-5.1,1.3c-0.9,0.4-1.9,0.9-2.9,1.1
		c-0.8,0.2-1.7,0.2-2.4-0.1c-0.6-0.2-0.9-1-1.5-1.6c-0.7,0.2-1.4,0.5-2.2,0.5c-0.8,0-1.5-0.5-2.3-0.7c-1.6-0.2-3.2-0.3-4.9-0.5
		c-0.9,2.6-1.1,5.1-1.3,7.7c-0.2,2.4,0.1,4.9,0.2,7.4c0.1,3.5,0.3,7,0.4,10.5c0.1,3.3,0.2,6.5,0.4,9.8c0.1,1.2,0.8,2.4,0.9,3.7
		c0.3,4,0.5,7.9,0.8,11.9c0,0.7,0,1.4,0,2c1.8,1.1,1.7,1.9-0.5,3.9c1.1,0.4,1.5,1.3,1.5,2.4c0,2.1-0.3,4.2-0.7,6.7
		c-1.1-2.6-0.9-5-1.3-7.9c-0.6,1.4-1,2.2-1.3,3.1c-1.4,3.6-2.5,7.3-4.1,10.8c-2.2,4.8-3.5,9.9-4.5,15c-0.7,3.6-0.9,7.2-0.6,10.8
		c0.3,3.6,0.4,7.2,0.7,10.9c0.2,2.4,0.4,4.9,0.9,7.3c1.3,5.9,1.6,11.8,1.8,17.8c0.1,3.9,0.2,7.7,0.3,11.6c0,3.3-0.1,6.5-0.2,9.8
		c0,0.5-0.5,1-0.7,1.5c1.2,1.5,2.5,3,3.7,4.6c0.6,0.8,1.3,1.3,2.3,1.5c1.7,0.3,3.4,0.8,5.3,1.2c1.1-1.1,2.2-2.3,3.3-3.5
		c1.1-1.2,2.3-2.4,3.5-3.6c-0.4-0.9-0.8-1.7-1.1-2.5c-0.2-0.8-0.2-1.6-0.4-2.5c-0.5-0.1-0.9-0.1-1.4-0.2c0-1.3,0-2.7,0-4.1
		c-0.1-3.4-0.1-6.8-0.3-10.2c-0.5-6.4,0.4-12.6,1.2-18.9c0.2-1.2,0.4-2.3,1.4-3.1c0.5-0.4,0.7-1.2,0.9-1.9
		c1.5-6.1,3.7-12.1,4.8-18.3c0.7-4,0.7-8.2,1.4-12.2c0.3-1.5,0.6-3,0.7-4.5c0.1-0.6-0.2-1.3-0.4-2.2c3.7-4.7,7.8-9.5,8.2-16.6
		c-1,0.9-1.9,1.6-3.1,1.4c-0.5-0.1-1.2,0.7-1.7,1.1l0.1,0.1c0.1-1.9,1.1-3,3.1-3c3.1-4.2,5.3-8.8,6.5-13.8c1.1-4.5,2.3-9.1,3.1-13.7
		c0.8-4.7,2.3-9.3,3.8-13.9c0.6-1.9,1.3-3.7,1.5-5.9c-0.4,0.2-0.8,0.2-1,0.4c-2.3,2.7-5.3,2.7-8.4,2.1c-1-0.2-1.7-0.8-2.1-1.7
		c-1-2.1-2-4.2-2.4-6.6c-0.5-3.1-1-6.2-1.5-9.3c-0.1-0.9-0.3-1.6-1.6-1.4c-0.3,0.8-0.5,1.7-0.8,2.7c-0.4-0.2-0.9-0.2-1-0.4
		c-0.5-2.5-1-5-1.3-7.6c-0.2-1.8,0.5-3.5,1.4-5c0.7-1.1,1.4-2.1,2.1-3.1c-0.5-2.2-2-3.5-3-5.2c-0.4-0.7-1-1.3-1.4-2
		c-1.4-2.1-3-4.2-5.1-5.2c-0.5-2.7-1-5.1-1.4-7.5c-0.2-0.9-0.3-1.8-0.4-2.8c-0.3-7.6-0.4-15.2,0.2-22.8c0.1-1.3,0.3-2.6,0.9-3.7
		c1-1.7,0.9-3.4,0.7-5.1c-0.3-2.3-0.9-4.6-1.3-6.9c-0.2-0.8-0.3-1.6-0.4-2.4c-0.1-1.6-0.2-3.3-0.8-4.8c-0.4-1.1-0.4-2.3,0.1-3.4
		c1.2-2.6,1.8-5.3,2.3-8.1c0.1-0.5,0.1-0.9,0.3-1.4c1.9-4.5,1.9-9.4,2-14.1c0.3-9.2,0.9-18.5,1.6-27.7c0.2-2,0-3.9,1-5.7
		c0.6-1.2,1.1-2.6,2.5-3.2l-0.1-0.1c0.5,1.5-0.2,2.7-0.7,4c-0.9,2.5-1.5,7.4-1.3,10.3c1.7-0.3,3-0.9,4.3-1.8
		c2.6-1.7,4.3-4.3,6.1-6.7c0.4-0.5,0.7-1.3,0.7-2c0.1-4,0.3-8-1.7-11.7c-0.3-0.6-0.6-1.3-1-1.8c-1.8-1.9-2.4-4.5-3.9-6.5
		c-0.1-0.1,0-0.4-0.1-0.8c0.3,0.1,0.8,0,0.9,0.2c1.4,2,3.1,3.8,5,5.4c3.7,3,4.9,9.1,3.2,13.5c-1.1,2.8-2.5,5.5-4.2,8
		c-2.1,3.2-4.9,5.3-8.6,6.1c-0.3,0.1-0.6,0.2-0.9,0.3c-0.8,3.5-1.1,14.7-0.5,18.9c0.6,0.6,1.3,0.3,2,0.2c1.7-0.2,3.5-0.4,5.2-0.6
		c2,1,3.8,0,5.7-0.4c4.1-0.9,8.3-1.4,12.5-1.6c2.3-0.1,4.7-0.2,7-0.8c0.1-1.2,0.2-2.3,0.4-3.4c0.2-0.8,0.5-1.6,1.1-2.1
		c1.8-1.5,2.7-3.8,4.8-5.1c1-0.6,1.2-2,1.3-3.1c0.1-1.4,0.3-2.8,0.1-4.2c-0.7-4.7-1.8-9.2-4.3-13.3c-0.9-1.5-2.1-2.7-3.7-3.6
		c-4-2.4-8-4.9-12-7.3c-1.2-0.7-2.3-1.6-2.8-3c-0.3-0.7-1-1.3-1.6-1.8c-1.8-1.3-3.5-2.9-5.5-3.7c-3.4-1.3-6.1-3.8-9.3-5.5
		c-0.6,0.6,0.1,0.8,0.2,1.2c0.2,0.4,0.4,0.8,0.6,1.2c-0.5,0.6-0.8,0.1-1.1-0.1c-1.3-1-2.6-2-3.8-3.1c-1.4-1.3-3-1.7-4.8-1.8
		c-0.6,0-1.2,0.2-1.6-0.4c3-1.5,4-1.7,6.4-0.7c2.4,1.1,4.8,2.4,7.2,3.7c1,0.5,2,1.2,3.1,1.9c0.5-1.3-0.4-2.1-0.7-3
		c-0.3-1-0.7-2-1.1-3c-0.4-0.9-1-1.8-1.7-3c0.2-0.6,0.4-1.6,0.7-2.6c0.3-0.9,0.7-1.7,0.9-2.6c0.2-1.6,1-2.9,1.8-4.2
		c2-3.3,4.9-4.5,8.7-3.9c1.6,0.2,3.3,0.4,4.9,0.4c1.9,0,2.5-0.7,2.7-2.5c0-0.3,0-0.7,0-1c-0.3-1.4,0.1-2.5,0.9-3.6
		c0.6-0.9,0.9-1.9,0.1-2.8c-1.2-0.5-2.3,1-3.6-0.2c0.3-0.3,0.5-0.7,0.9-0.8c0.8-0.2,1.6-0.1,2.4-0.3c0.6-0.2,1.2-0.6,1.6-0.9
		c0.4-2.1-0.7-3.2-2.2-4.3c2.3-0.7,4.6-0.5,6.8-1.7c-0.3-0.5-0.5-0.9-0.7-1.3c-1.1-2-2.4-4-3.4-6.1c-1.1-2.2-1.4-4.4-0.3-6.7
		c0.5-1,0.5-2-0.5-2.8l0.1,0.1c0-4.1-0.9-8.1-2.4-12c-0.9-0.4-1.6-1.5-2.9-1.4c-0.3,0-0.8-0.4-1.1-0.8c-3.3-3.9-7.8-5.8-12.6-6.9
		c-0.9-0.2-1.8-0.3-2.5-0.4c3.1-0.9,6.1,0,9.1,1.3c0.5,0.2,1.1,0.3,1.7,0.4c0.1,0.1,0.2,0.2,0.3,0.3c0,0-0.1-0.1-0.1-0.1
		c-0.1,0-0.2-0.1-0.3-0.1c-0.2-0.5-0.5-1-0.7-1.5c0.5,0,1,0,1.6-0.1c0.2,1.6,1.9,1.7,2.7,2.6c-0.6-1.2-1.4-2.2-2.8-2.5
		C255.3,142.6,254.7,142.6,254.1,142.6z M259.1,403.2c0.2,0.8-0.3,1.4-0.9,1.9c0.7,0.3,1.3,0,1.5-0.5c0.6-1.4,1.2-2.8,1.4-4.3
		c0.5-3.2,1-6.5,1.2-9.7c0.3-3.6,0.1-7.2-0.1-10.8c-0.2-4.5-0.4-9.1-1.1-13.6c-0.6-3.7-1.3-7.4-2.9-10.8c-2.4,1.7-2.5,1.7-3,4.1
		c-0.2,0.9-0.4,1.8-0.5,2.8c-0.9,8.4-0.9,16.8,0,25.2c0.4,3.5,0.5,7,1.4,10.4c0.4,1.5,1,2.9,1.4,4.3
		C257.8,402.9,258.6,402.9,259.1,403.2L259.1,403.2z M238.9,288.8c-0.8,1.6-1.2,3.5-1.6,5.3c-0.8,3.1-1.6,6.1-2.3,9.2
		c-0.2,0.9-0.4,1.9-0.3,2.7c0.7,5,1.5,9.9,2.2,14.9c0,0.1,0.1,0.2,0.3,0.5c0.4,0,1-0.1,1.5-0.1c2.5,0,4.9-0.1,7.4,0.1
		c2.3,0.2,4.6,0.6,7,0.1c1.5-0.3,3-0.2,4.6-0.1c0.8,0,1.5,0.4,2.3,0.6c0.8,0.2,1.5,0.2,2.4,0.4c0.8-1.5,0.9-3.1,1.2-4.5
		c0.7-3.1,1.3-6.2,1-9.4c-0.2-1.8,0.2-3.5,0.7-5.2c2.1-6.1,3.7-12.3,6.1-18.3c1-2.5,1.5-5.1,1.2-8.1c-1.8,0.1-3.5,0.3-5.2,0.4
		c-5,0.2-10,0.8-15,1.7c-3,0.5-6,0.9-9,1.2c-1.3,0.1-2.5,0.5-3.8,1.2c-0.1,1.4-0.3,2.9-0.4,4.4c0.8,0.8,1.5,1.5,2.2,2.3
		c0.5,0.5,1,1,0.8,1.8l0.1-0.1C240.9,290.5,240.2,289,238.9,288.8z M345.6,453.6c-3,0.5-6.1,0.4-9.1-0.3c-1.6-0.4-3.3-1-4.8-0.8
		c-1.5,0.2-2.9,1.4-4.3,2.2c-0.7,0.4-1.4,0.8-2.2,1.1c-1.2,0.5-2.2,1.2-3.1,2.2c-1.1,1.2-2.5,2-4,3.1c-0.1,1.6-0.4,3.2-0.3,4.8
		c0.1,2.9,0.1,5.8-0.4,8.7c-0.2,1.2-0.1,2.3,0.6,3.6c0.4,0.1,1,0.3,1.6,0.2c5.4-0.4,10.7-0.1,16.1,0.3c2.1,0.2,4.2,0.1,6.3,0.3
		c11.1,0.8,22.2,0.8,33.3,0.6c3.7-0.1,7.5-0.2,11.2,0.6c0.8,0.2,1.6,0,2.4,0c3.6,0.2,7.2,0.3,11,0.5c0.9-6.7,2-13.6,1.3-20.7
		c-4.9-2.4-9.9-4.9-14.9-7.4c-7,1-22.5,0-28-1.7C354.1,451.9,349.9,452.9,345.6,453.6z M208.5,577.3c0.1,0,0.2,0,0.3,0
		c4.7,1.7,9.7,1.4,14.6,1.8c2.2,0.1,3.8-1,5.6-1.7c0.2-0.1,0.4-0.3,0.4-0.5c0.1-1,0.6-1.8,1.6-2.1c1.9-0.5,3.8-1.3,5.8-0.7
		c1.3,0.4,2.6,1,3.9,1.4c2.2,0.8,4.4,1.7,6.6,2.3c2.6,0.7,5.3,1.1,8,0.4c0.8-0.2,1.6-0.3,2.4-0.2c3.6,0.2,6.9-0.7,10-2.7
		c0.8-0.5,1.6-0.9,2.4-1.4c2.3-1.3,4.3-2.8,5.2-5.4c-1.2-2.4-2.4-4.8-3.6-7.3c-2.6-0.1-5.3-0.2-8.2-0.4c-0.6,0.4-1.3,1.2-2.3,1.6
		c-0.8,0.4-1.8,0.4-2.9,0.6c0-0.8-0.1-1.3-0.1-2c-1-0.5-2.1-1.1-3.2-1.7c-1.2,0.8-1.7,2.5-3.3,2.5c-1.3-1.4,0.1-2.7,0-4.2
		c-0.9-0.8-2.1-1.1-3.3-1.7c-0.8,1-1.4,1.9-2.2,2.8c-0.3,0.3-0.8,0.5-1.2,0.5c-0.3,0.1-0.6-0.2-1-0.3c-0.8-2.4,1.6-3.8,1.9-5.9
		c-0.6-0.6-1.2-1.3-1.8-1.9c-0.3,0.2-0.5,0.2-0.6,0.4c-0.5,1.2-0.9,2.4-1.5,3.6c-0.3,0.6-0.8,1.2-1.6,1.1c-0.5-0.1-0.7-1-0.3-1.8
		c0.3-0.8,0.7-1.5,0.9-2.3c0.3-1,0.4-2.1,0.6-3.1c-1.5-2-3-4-4.4-5.9c-1-1.4-2.3-1.9-3.9-1.1c0.2,0.9,0.4,1.8,0.5,2.7
		c0.4,2.3,0.4,2.3,1.7,4c0,1.4-0.8,2.4-1.8,3.3c-1.9,1.7-3.8,3.5-6.2,5.8c-1.6,0.6-4,0.8-6.5,0c-1.2-0.4-2.2-1-3-2.2
		c-1.1-1.9-2.6-3.6-4.5-4.9c-0.4-0.2-0.6-0.6-1-0.9c0.4-0.5,0.8-1,1.1-1.4c-0.3-0.1-0.6-0.3-0.7-0.2c-1.5,1.2-2.8,2.5-3.1,4.4
		c-0.5,2.6-1.1,5.3-1.6,7.9c-0.3,1.3-0.6,2.5-1,3.7c-1.2,3.9-2.4,7.7-3.7,11.6C205.3,576.6,206.8,577.4,208.5,577.3z M324.7,534
		c2.7,0.4,21.5,0.6,25.3,0.2c0.1-0.7,0.2-1.5,0.2-2.3c0-2.6-0.2-5.3-0.3-8.1c-0.7-0.2-1.2-0.4-1.8-0.5c-2-0.1-4-0.3-5.9-0.2
		c-4.8,0.3-9.5-0.2-14.2-1.3c-1-0.2-2-0.3-3-0.5C324.2,524.8,324.1,530.8,324.7,534z M214.8,406c0.5-1.5,1.2-3.1,1.4-4.7
		c0.5-3.1,0.8-6.2,1.1-9.4c0.1-1,0-2.1-0.8-3c-0.3,0-0.6-0.1-0.9-0.1c-2.4,0-3.4-0.4-4-2.4c-1-3.3-0.8-6.6,0.3-9.9
		c0-0.1,0.2-0.1,0.4-0.3c1,0,2.2,0,3.6,0c0.3-0.5,0.8-1.1,0.9-1.7c0.1-2.1,0.4-4.3,0-6.3c-0.7-3.4-1.8-6.8-2.9-10.1
		c-0.3-1.1-0.7-2.3-2.2-2.8c-0.4,0.5-0.9,0.9-1.2,1.5c-1.1,2.4-1.5,4.9-1.8,7.4c-1.4,11.4-0.9,22.8,1.3,34.1c0.5,2.3,1.3,4.5,2,6.7
		c0.3,0.9,0.7,1.8,1.9,2.2C214.1,406.8,214.6,406.5,214.8,406z M398.4,524.3c-0.6-0.1-1.3-0.3-1.9-0.3c-2.6,0-5.1,0.1-7.7,0
		c-2.9,0-5.8-0.2-8.7-0.9c-1.6-0.4-3.4-0.1-5.1-0.1c-0.8,0-1.6,0-2.6,0c-0.2,0.4-0.7,1-0.6,1.4c0.8,2.8,0.2,5.6,0.4,8.4
		c0,0.6,0.1,1.1,0.1,1.9c8.2,0,16.4,0,24.6,0C398.6,531.1,399,528.3,398.4,524.3z M256.2,405.9c-2.5-5.5-3.5-11.4-4-17.3
		c-0.6-6.7-1.1-13.5-0.6-20.3c0.3-3.3,0.7-6.5,1.2-9.7c0.3-1.8,1-3.6,1.5-5.4c-3.2-0.3-4.2,0.3-5.1,2.8c-0.9,2.3-1.4,4.7-1.5,7.2
		c0,1.6-0.3,3.2-0.4,4.9c-0.1,0.9-0.2,1.9-0.2,2.8c0.1,8.2-0.1,16.3,1.5,24.4c0.6,2.9,1.1,5.7,2.3,8.4c0.4,1,0.9,1.9,2,2.4
		c1.1,0.5,2.2,0.8,3.3,0.3C256.2,406.1,256.3,405.9,256.2,405.9z M206.9,387.7c-0.7-7.5-0.7-14.9,0-22.4c0.3-3.4,1-6.7,2.2-10
		c-0.9-0.6-1.7-0.6-2.6-0.3c-0.9,0.3-1.7,0.8-2.1,1.7c-0.4,1-0.7,2-1,3c-1,4-1.3,8.1-1.5,12.1c-0.3,8.6,0,17,1.6,25.5
		c0.5,2.8,1.1,5.5,2.3,8.1c0.4,1,1,1.8,2,2.4c0.8,0.4,1.1,0.4,3.5,0C208.3,401.4,207.6,394.6,206.9,387.7z M210.2,352.7
		c0.2,0.2,0.4,0.5,0.6,0.5c2.4,0.4,3.6,2,4.4,4.1c1.4,3.8,2.5,7.8,3.1,11.8c0.2,1.8,0,3.7,0,5.6c0,0.5,0.2,1.1,0.4,2.1
		c0.5-0.7,0.9-1,0.9-1.3c0.6-3.6,1.1-7.1,1.6-10.7c0.1-0.8,0.3-1.6,0.4-2.4c0.1-1,0.3-2.1,0.1-3.1c-0.8-5.9-1.7-11.8-3.1-17.5
		c-0.8-3-1.9-6-1.1-9.3C213.5,338.8,211.5,345.6,210.2,352.7z M213.1,377.6c-1.2,0.7-1,1.5-1,2.3c0,2.2-0.4,4.4,0.9,6.5
		c1,0.1,1.9,0.2,2.9,0.4c0.9,0.1,1.8,0.3,2.7,0.4c0.8,0,1.7-0.7,1.6-1.5c-0.2-2.2,0.3-4.4-0.7-6.5
		C217.3,378.6,215.2,377.7,213.1,377.6z M372.4,520.9c8.3,1.3,16.5,0.7,24.8,1.5c-0.2-1.2-0.8-1.7-1.7-1.7c-3.5-0.1-7-0.3-10.5-0.1
		c-3.3,0.2-6.5-0.7-9.8-0.8c-0.8,0-1.5-0.5-2.8-0.9C372.4,519.8,372.4,520.4,372.4,520.9z M245.7,383.5c-0.1-1.5,0.1-3-0.3-4.3
		c-0.9-0.6-1.5-0.5-1.9,0.2c-0.7,1.8-0.7,3.6-0.2,5.4c0.2,0.7,0.6,0.9,2.3,1.4C245.7,385.3,245.8,384.4,245.7,383.5z M395.1,577.1
		c1.9,0.6,3.9,0.4,5.9,0.3c1.4-0.1,2.8-0.4,4.2-0.4c1.5-0.1,3-0.1,4.5,0.1c1.5,0.2,2.7,0.1,4-0.8
		C407.5,575.4,401.3,576.4,395.1,577.1z M377.2,575.8c-1.4-0.7-2.9-1.2-4.5-1.3c-0.6,0-1.1,0.2-0.9,1.1
		C373.6,576.3,375.4,576.2,377.2,575.8z M338.2,520.3c-2.7-0.4-5.4-0.8-8.2-0.1C332.8,520.6,335.5,520.8,338.2,520.3z M264,381.8
		c0,1,0.1,2,0.2,3.8c0.7-1.7,1.2-2.6,1.2-3.8c0-0.4-0.1-0.5-1.1-1C264.1,381.1,264,381.5,264,381.8z M349.8,521.5
		c0.3-0.8,0.1-1.3-0.5-1.4c-0.6-0.1-1.2,0.1-1.9,0.2c0,0.2,0,0.4-0.1,0.6C348.2,521.1,349,521.3,349.8,521.5z M264.5,391.9
		c0.1-1.4,0.2-2.7,0.3-4.1C263.8,389,264,390.4,264.5,391.9z M264,377.4c-0.2,0.4,0,1,0.5,1c0.3,0,0.8-0.4,0.9-0.7
		c0.1-0.3-0.1-0.8-0.3-1.5C264.5,376.8,264.1,377.1,264,377.4z M263.6,396.1C263.6,396.1,263.7,396.1,263.6,396.1
		c0.1-0.6,0.1-1.3,0.2-1.9c-0.1,0-0.1,0-0.2,0C263.6,394.8,263.6,395.5,263.6,396.1z M245.8,370.6c-0.1-0.1-0.5,0.1-0.5,0.2
		c-0.3,0.7,0.1,1,0.7,1.1C246.4,371.4,246.4,371,245.8,370.6z M256.7,354.2c0,0-0.1-0.4-0.1-0.5c-0.2,0.2-0.5,0.4-1,0.9
		C256.2,354.4,256.5,354.3,256.7,354.2z M218.6,389.5l0.2,0l-0.1-0.2L218.6,389.5z"/>
	<path d="M625.1,420.7c0-3.4,0-6.8,0.1-10.2c0.1-4.1,0.5-8.2,0.5-12.3c0-2,0.4-3.7,1.9-4.7c0.3-3.5,0.6-6.8,0.9-10.1
		c0.4-4.8,0.5-9.6,2.3-14.1c0.2-0.5,0.3-1.1,0.4-1.7c0.4-2.4,0.7-4.9,1.2-7.3c0.5-2.3,0.2-4.6,1.1-6.9c0.9-2.4-0.2-4.9,0.1-7.3
		c0.1-0.5,0.1-0.9,0.1-1.4c0.1-1.6,0.2-3.3,0.3-4.9c0.1-1,0.1-2.1,0.2-2.9c0.8-1.1,2.4-1.4,1.6-3c0.8-1.2,1.5-2.4,2.3-3.5
		c2-2.8,3.7-5.7,4.5-9.1c0.3-1.4,0.9-2.6,1.5-3.9c0.1-0.3,0.5-0.6,1.1-1.3c-0.1,1-0.1,1.4-0.2,1.9c-0.7,2.6-1.5,5.2-2.1,7.8
		c-0.9,3.6-2.6,6.5-5.6,8.3c-1.2,3.1-1.4,6.1-1.5,9.1c-0.1,2.3-0.1,4.7-0.4,7c-0.9,6.8-2,13.6-3,20.5c-0.5,3.4-1.4,6.7-1.6,10
		c-0.2,3.5-0.5,7-0.8,10.5c-0.3,4.4-0.8,8.9-1.7,13.2c-0.3,1.2-0.3,2.5-0.3,3.8c0,1.2-0.4,2.5,0.1,3.9c1.5,0,2.8,0,4.1,0
		c0.6,1.8,1.6,3,2.8,4.1c0.9,0.7,1.9,1.4,2.7,2.2c1.9,1.7,4,3.3,5,5.8c0.7,1.7,1.9,2.6,3.5,3.2c2.5,1,4.9,2.2,7.6,3.3
		c1.8-0.6,3.7-0.4,5.7,0.1c2.6,0.6,5.2,1.2,7.9,0.3c0.3-0.1,0.7,0.1,1,0.2c0.9,1.7,1.7,3.3,2.5,5c1.5,3.1,0.9,6-1.4,8.4
		c-1.5,1.5-3.2,2.7-4.9,3.9c-1.2,0.9-2.6,1.6-4.1,2.5c0.8,0.4,1.4,0.6,2,1c2.5,1.5,5,3.1,7.4,4.7c1,0.7,1.7,1.6,1.7,2.9
		c0.1,2.2,0.2,4.4,0.1,6.6c-0.2,4.6-0.6,9.1-0.9,13.7c0,0.4-0.2,0.9-0.3,1.2c-1.1,1-2.2,1.3-3.4,1.2c-1.3-0.1-2.6-0.1-3.9-0.2
		c-2.8-0.2-5.6-0.3-8.4-0.5c-2.1-0.1-4.2-0.4-6.3-0.4c-3,0-6,0.1-9,0.1c-0.1,0-0.2,0.1-0.4,0.4c0,0.4-0.2,0.9-0.1,1.5
		c0.3,10.5,0.7,21.1,1.1,31.6c0,0.5,0.3,1.1,0.3,1.4c3.5,0.4,6.7,0.9,10,1.2c1.2,0.1,2.4,0.3,3.5,0.1c2.7-0.4,5.4,0,8,0.1
		c1.7,0.1,3.4,0.4,5.1,0.6c0.4,0.7,0.6,1.2,0.9,1.8c0.2,0.5,0.5,1.1,0.7,1.6c0.1,0.5,0.3,1.1,0.2,1.7c-0.2,3.8-0.5,7.7-0.8,11.4
		c-2.1,1.1-4.1,1.4-6.2,1.3c-6.1-0.2-12.2-0.2-18.3-0.3c-1,0-2.1-0.1-3.2,0.7c-0.1,0.6-0.2,1.3-0.2,1.9c-0.2,4.1-0.4,8.2-0.7,12.3
		c-0.2,2.9-0.4,5.8-0.1,8.8c0.2,2.2,0.2,4.4,0.2,6.7c0,1.9,0.1,3.7,0.5,5.6c2.1-0.5,4-0.3,6,0c8.3,1.6,16.5,0.9,24.8,0.3
		c3.4-0.3,6.8-0.3,10.2-0.4c2.1,0,4.2,0.3,6.3,0.2c1.7-0.1,3.2,0.1,4.7,1.1c0.2,0.7,0.5,1.3,0.5,2c0.2,4.9,1,9.8,0.3,14.7
		c-0.2,1.4-0.2,2.8-0.2,4.2c0.1,1.5-0.6,2.4-1.6,3.3c-1.8,1.4-3.9,1.8-6,1.4c-2.2-0.4-4.4-0.1-6.6-0.3c-1.2-0.1-2.3,0-3.5,0
		c-2.1-0.1-4.2-0.4-6.3-0.4c-3,0-6.1,0.2-9.1,0.4c-7.4,0.4-14.7-0.2-22.1-0.9c-1.2-0.1-2.3-0.2-3.5-0.1c-8.1,0.8-16.1,0.2-24.2-0.5
		c-4.5-0.4-9.1-0.8-13.6-1c-8.3-0.4-16.6-0.5-24.9-0.8c-0.9,0-1.9,0-2.8-0.2c-0.7-0.1-1.4-0.3-2-0.6c-0.3-0.2-0.5-0.6-0.8-1
		c0.3-0.3,0.5-0.5,0.7-0.5c4.1-0.1,8.2-0.5,12.3-0.3c8.7,0.4,17.3,0.3,26,1c7.1,0.6,14.3,0.6,21.4,0.9c4.7,0.2,9.3,0.4,14,0.5
		c2.8,0.1,5.6,0,8.4-0.1c1.6,0,3.3-0.1,4.9-0.1c0.6,0,1.3-0.1,1.7,0.1c2.1,1.3,4.3,0.7,6.5,0.6c1.6-0.1,3.3-0.3,4.9-0.2
		c4.4,0.1,8.9,0.3,13.3,0.6c2.6,0.1,5.1,0.3,8.1,0.5c0.8-0.4,2.1-1.1,3.1-2.5c0.1-1.2,0.3-2.8,0.2-4.3c-0.1-2.2-0.4-4.4-0.6-6.6
		c-0.2-2.5-0.4-5.1-0.6-8.1c-0.9,0.9-1.4,1.5-1.9,1.9c-1.6,0.3-3.1,0.9-4.5,0.7c-1.8-0.2-3.4,0-5.1,0.1c-3.4,0-6.8,0.4-10.1,0.7
		c-2.2,0.2-4.4,0.5-6.5-0.9c-0.5-0.4-1.3-0.3-2-0.4c-1.5-0.2-3-0.3-4.5-0.4c-1.4-0.1-2.8-0.3-4.2-0.2c-4.7,0.5-9.3,1.1-14,0.1
		c-0.1,0-0.3,0.5-0.6,1.1c1.9,0,3.5-0.1,5.1,0c1.6,0.1,3.3,0.1,4.9,1c-3.2,0.6-7,0.6-10.9,0.1c-0.5-1.3-1-2.5-0.6-4
		c0.2-0.8,0.1-1.6,0.1-2.4c0.1-1.9,0.1-3.7,0.3-5.6c0.1-1.9,0.4-3.7,0.5-5.6c0.1-0.8,0.1-1.6,0.2-2.4c0.4,1.4,0.6,2.8,0.5,4.2
		c-0.1,1.9-0.1,3.8-0.4,5.6c-0.3,1.8-0.2,3.5,0.2,5.2c0.1,0.6,0.5,1.1,1.4,0.6c0-0.7,0.1-1.5,0.1-2.3c0-7.3-0.1-14.5,0.5-21.7
		c0.4-5.1,0.3-10.3,0.3-15.4c0-8.9-0.2-17.8-0.3-26.7c-0.1-8-0.3-15.9-0.4-23.9c0-0.6,0.1-1.2-0.1-1.7c0-0.2-0.5-0.6-0.7-0.6
		c-0.3,0-0.7,0.3-0.8,0.5c-0.1,1-0.1,2.1-0.1,3.1c0.3,6.2,0.3,12.4,0.1,18.6c-0.1,2.1-0.1,4.2-1.1,6.2c0.2-9.5,1.1-19-0.5-28.5
		c-5.5-0.1-10.8-0.3-16.1-0.4c-0.1,0.3-0.3,0.6-0.3,0.7c1.1,5.8,1.4,11.6,1.6,17.5c0.7,18.3,1.2,36.5,0.3,54.8
		c0,0.8,0.1,1.7-0.3,2.4c-1.1,2.1-1,4.3-1.1,6.5c-0.2,4.8-0.3,9.6-2,14.3c-4.6,2.4-9.4,1.5-14.2,0.4c4.5-0.7,9.3,0.4,13.9-1.9
		c-0.2-0.6-0.4-1-0.6-1.5c-1.6,0-3,0.1-4.4,0c-4-0.5-7.9-0.4-11.9-0.1c-2.6,0.2-5.1,0.3-7.7,0.2c-5.8-0.3-11.7-0.7-17.5-1
		c-1.5-0.1-3-0.1-4.6-0.1c-1.4,0-2.4,0.7-3,2.2c0.8,0.4,1.5,1.1,2.2,1.1c1.5,0.1,3-0.1,4.5-0.2c0.9-0.1,1.8-0.2,3.2-0.3
		c-2.2,1.4-4.1,1.6-6,2.1c-1.9,0.4-3.6,0.3-5-1.9c0,0.9,0,1.4,0.1,1.8c0.6,4.2,0.2,8.4-0.3,12.6c-0.1,0.8-0.2,1.6-1.2,1.9
		c-1-1.2-0.7-2.5-0.6-3.7c0.2-3.9,0.3-7.7,0.4-11.6c0-0.8,0-1.6,0-2.4c0.7-0.7,1.5-1.3,2.1-2c0.9-1.3,2.2-1.7,3.7-1.7
		c4.2,0.1,8.4,0.2,12.6,0.3c5.6,0.1,11.2,0.4,16.8,0.3c4.2-0.1,8.4-0.2,12.6,0.1c1.5,0.1,3,0,4.6,0c0.1-0.7,0.1-1.3,0.2-1.9
		c0.3-4,0.5-7.9,0.8-11.9c0.5-6.6,1.3-13.3,0.9-20c-0.1-1,0.3-2.1-0.9-3.1c-8.3,0-16.8,0-25.6,0c-0.5-1.4-1.3-2.9-1.5-4.4
		c-0.5-3.3,0.1-6.5,0.8-9.7c0.3-1.4,1.6-2.2,2.5-3.2c0.8-0.9,2-0.3,3-0.1c0.4,0.1,0.9,0,1.4,0c2.5,0,4.9,0,7.4,0.1
		c2.8,0.1,5.6,0.2,8.4,0.2c1.4,0,2.8,0.1,4.2-0.6c0.1-6-0.2-12-0.5-17.9c-0.2-6-0.4-12.1-0.5-18.3c-1.1-0.2-2.1-0.4-3.2-0.5
		c-2-0.1-4-0.1-6-0.3c-6.8-0.7-13.5-1-20.3-0.5c-1.5,0.1-3-0.1-4.2-1.4c-0.1-0.6-0.1-1.3-0.3-2c-0.6-1.9-0.6-3.9-0.3-5.9
		c0.3-1.9,0.2-3.9,0.3-6c-0.6-0.3-1.1-0.7-1.6-0.9c-5.7-2.5-10.7-5.8-14.4-10.9c-0.5-0.7-1.4-1.2-2.2-2c-0.9-3.7-2.4-7.6-2.5-11.6
		c-0.4-0.3-0.7-0.5-0.9-0.7c-3.7-2.5-7-5.5-9.8-9c-1.3-1.6-2.2-3.4-1.9-5.5c0.2-1-0.3-1.8-0.6-2.7c-0.7-2-1.4-3.9-1.8-6.1
		c0.7-0.3,1.3-0.7,1.9-0.9c1.8-0.6,3.4-1.4,4.4-3.3c0.7-1.3,1.8-2.1,3.2-2.6c1.1-0.4,2.2-0.7,3.4-0.9c3.1-0.6,5.8-1.8,7.8-4.3
		c0.8-1,1.7-1.9,2.7-2.9c1.1-0.1,2.2-0.2,3.5-0.3c0.6-2.6,1.3-5.1,1.6-7.6c0.4-3.4,1.2-6.7,2.1-9.9c0.5-1.8,0.8-3.7,1-5.5
		c0.2-1.7,0.1-3.5,0.2-5.2c0.1-1.4,0.3-2.8,0.2-4.2c-0.3-8.1,0.5-16.1,1.5-24.1c0.1-0.7,0.1-1.5,0.4-2c1.3-2,1.7-4.3,2.3-6.6
		c0.6-2.3,1.5-4.4,2.6-6.5c1-1.9,2.5-3.7,2.4-6.1c0-0.4,0.3-0.9,0.6-1.2c0.9-1.2,1.7-2.5,2.8-3.6c1.9-1.8,3.4-3.8,4.9-6
		c0.8-1.2,1.3-2.5,2.1-3.6c2-2.6,2.7-5.4,2.3-8.5c-0.1-0.6-0.1-1.2-0.1-1.7c-0.4-5.7-0.9-11.4-1.3-17.2c-0.1-1.5-0.4-3-0.9-4.4
		c-0.8-2-1.4-4-1.9-6c-1.9-7.8-2.3-15.8-2.2-23.7c0-2.9-0.4-5.8,0.1-8.7c0.4-2.5,0.5-5.1,0.6-7.7c0.1-3.4-0.1-6.8,1.5-10
		c0.2-0.3,0.1-0.7,0.2-1c0.6-2.9,1.5-5.6,2.7-8.3c0.3-0.7,0.7-1.5,0.7-2.3c-0.1-1.2,0.5-2,1.1-2.9c1.2-1.6,2.5-3.1,3.6-4.7
		c1.7-2.6,3.9-4.6,5.9-7.1c-0.4-4-0.8-8.2-1.1-12.4c-0.2-2.1-0.4-4.2-0.1-6.3c0.3-2.2,0.4-4.4,0.4-6.6c0-1.5,0.2-3,0.3-4.6
		c1.4-1.5,0.7-3.3,0.7-5c0-2.7-0.6-5.4,0.3-8c0.1-0.3,0-0.7-0.1-1c-0.3-3.3-0.6-6.5-2.5-9.4c-0.3-0.5-0.4-1.1-0.7-1.6
		c-1.7-4.5-2.5-9.2-2.3-14.1c0.1-2.5-0.1-5.1-1.2-7.5c-0.7-1.5-0.4-3.5-0.8-5.2c-1.1-4.6-0.5-9.1,0.5-13.6c0.4-2,1.1-4.1,2.2-5.9
		c1-1.7,1.9-3.5,2.6-5.3c0.5-1.3,1.1-2.6,1.7-3.8c0.8-1.5,1.8-3,2.6-4.5c1.9-3.2,3.3-6.4,3.2-10.2c0-1.2,0.2-2.3,0.3-3.5
		c0.1-1.2,0.2-2.3,0.1-3.5c-0.3-2.8-0.7-5.6-0.4-8.4c0.1-1.1-0.3-2.1-1.2-2.8c-0.4-0.4-0.9-0.8-1.3-1.2c-3-3.1-5.5-6.4-6-10.8
		c0-0.2-0.2-0.4-0.3-0.7c-0.2,0.3-0.4,0.6-0.5,0.9c-1.3,4.2-2.2,8.4-2,12.8c0.3,5-0.5,9.8-1.2,14.6c-0.3,2.2-1.1,4.3-1.6,6.4
		c-0.2,0.8-0.4,1.6-0.6,2.4c-0.6,2.3-0.9,4.5-0.7,6.8c-0.8,0.2-1.5-0.1-1.9,0.8c-0.9,1.7-1.3,3.7-2.3,5.4l0.1,0.1
		c0-1.4,0-2.7,0.1-4.1c0.2-3.3,0.4-6.6,0.6-9.9c0.8-1,0.6-2.2,0.6-3.4c0.3-6.2,0.6-12.3,0.9-18.5c0-0.2,0.1-0.4,0.2-0.6
		c0.6,2.3,0.7,6.2,0.2,14c-0.3,4.6-0.8,9.2-1,13.9c0.7-1.6,1-3.4,1.1-5.1c0.1-1.3,0.1-2.5,1-3.6c0.5-0.5,0.3-1.5,0.5-2.3l-0.1,0.1
		c0.1-0.1,0.2-0.1,0.3-0.2c0.5-2.5,1-4.9,0.4-7.5c-1.3-6.2-1-12.3,0.5-18.4c0.1-0.6,0.4-1.1,0.8-2.1c0,1.1,0.1,1.8,0,2.4
		c-0.3,2.2-0.8,4.4-1,6.6c-0.3,2.8-0.2,5.5,1.2,8.3c0.2-0.4,0.5-0.6,0.5-0.9c0.1-1,0.1-2.1,0.1-3.1c-0.2-4.5,0.6-8.8,1.5-13.2
		c0.4-1.8,1.1-3.6,1.8-5.3c0.7-1.6,1.1-3.3,1.2-5.1c0.1-2,0.4-3.9,0.7-5.9l-0.1,0.1c0.5-0.2,1-0.6,1.6-0.1c3.2,2.3,6.3,4.6,9.5,6.9
		c0.1,0,0,0.2,0,0.3l0.1-0.1c-1-0.5-2-1-3-1.4c-0.6-0.3-1.2-0.5-1.9-0.7c-0.2-0.2-0.4-0.5-0.6-0.7l-0.2-0.1l0.3,0
		c-0.2,0.5,0,0.8,0.6,0.8c-0.2,0.7,0.3,1.1,0.8,1.4c1.6,1.3,3.3,2.5,5.3,4.1c-1-0.2-1.5-0.2-2.1-0.4c-0.9-0.3-1.7-0.6-2.6-0.9
		c-0.1-0.1-0.2-0.2-0.4-0.3c0,0.1,0.1,0.2,0.1,0.2c0.1,0,0.2,0,0.3,0c0.2,0.5,0.4,1,0.6,1.4c0.2,0.5,0.5,0.9,0.7,1.4l-0.1,0.1
		c-3.5-1.4-5.2-4.4-6.3-7.8c-0.3-1.1-0.6-2.2-1-3.8c-0.5,0.7-0.8,1-0.9,1.4c-0.2,1.4-0.3,2.7,0.2,4.1c0.4,1.2,0.3,2.5,0.4,3.8
		c0.1,2,0.3,3.9,1.4,5.7l0.1-0.1c-0.1,0.4-0.5,0.8-0.4,1.2c0.5,2.3,1.5,4.4,3.3,6c1,1,2.1,1.9,3.1,2.8c0.6,0.5,1.2,1.1,1.8,1.7
		c-0.2,1.2-0.9,2.1-0.8,3.3c0.3,2.6,0.4,5.3,0.4,8c0,2.8-0.2,5.6-0.6,8.3c-0.3,2.6-1,5.2-1.5,7.9c1.7,0.3,3.4,0.1,5.2,0
		c1.3,0,2.6,0,3.8,0c0.9,0,1,0.8,1.2,1.5c-3.8,0-7.7-0.3-11.5,0.8c-1.7,1.3-2.8,3.1-3.7,5c-0.2,0.4-0.1,0.9-0.1,1.3
		c-0.1,0-0.2,0-0.2,0c0.1,0,0.1-0.1,0.2-0.1c3.2-1.7,6.5-3,10-4.2c-0.9,1.8-0.8,1.9-1.8,2.2c-2.6,1-5.3,1.9-7.5,3.7
		c-0.1,0.1-0.2,0.2-0.3,0.2c-2.3,0.3-2.9,1.9-3.8,3.9c-2.1,4.7-2.8,9.6-3.1,14.7c0,0.5-0.2,1,0,1.4c1,2,0.6,4.1,1.1,6.2
		c0.9,4,1.2,8.1,1.4,12.2c0.1,2,0.6,3.9,1.2,5.8c1.3,4.5,2.7,9,3.9,12.8c-0.1,1.8-0.4,3.1-0.2,4.3c0.6,4.4,0.6,8.9,0.5,13.3
		c0,1,0.2,2,0.3,3c-0.3,0.1-0.6,0.2-0.9,0.3c-0.1,0.2-0.3,0.4-0.3,0.6c-0.1,4.9-0.3,9.8-0.3,14.7c0,2.2,0.3,4.4,0.5,6.6
		c0.4,4.5,0.9,9.1,1.4,13.6c0.2,1.7,0.3,3.5,1.5,4.9l-0.1-0.1c-0.1,1.2-0.3,2.3,1,3c0.3,0.2,0.4,0.8,0.5,1.2c0.4,1.7,0.7,3.4,1,5.2
		c0,0.1,0.1,0.2,0.1,0.3c-1,3.4,1.4,6.2,1.6,9.5c-1.7,1.1-2.4,2.8-2.7,4.8c-0.3,2.2-0.6,4.4-1.1,6.6c-0.3,1.3-0.3,2.5-0.1,3.8
		c0.2,2,0.5,3.9,0.6,5.9c0.1,1.3-0.1,2.6-0.2,3.8c-0.2,2.3,0.9,4,2.4,5.5c0.1,0.1,0.4-0.1,0.6-0.2c0.5-1.5-1.4-2.7-0.8-4.3
		c1.4,0.7,1.6,2,2.3,3.1c0.5,0.8,1,1.6,1.6,2.2c1.1,1.1,2.3,0.9,3.5,0c0.1-1.8-1.5-2.9-1.8-4.5c0.3-0.8,0.9-0.7,1.3-0.3
		c1.5,1.7,2.3,3.7,3.1,5.9c1.6,0.4,3-0.1,4.4-0.8c0-1.8-1.3-3.3-1.1-5.4c2.4,1.4,1.8,4,3,5.8c0.6,0.5,1.1,0,1.6-0.1
		c0.4-0.1,0.8-0.3,1.4-0.5c-0.4-1.9-0.8-3.7-1-5.6c-0.4-2.9-0.8-5.8,1-8.6c0.6-0.2,1.3-0.3,1.9-0.5c0.1-0.2,0.3-0.4,0.4-0.6
		c0.3-1.6-0.1-3-1-4.3c-1.8-2.7-3.7-5.4-5.7-8c-0.8-1-2-1.6-3.1-2.5c-0.6-2.5-0.3-5.3-1.9-7.6c0-1,0.2-2,0.1-3
		c-0.5-7.7-0.3-15.4,0.3-23.1c0.1-0.9,0.3-1.9,0.7-2.7c1-1.6,1.1-3.3,0.8-5.1c-0.3-1.8-0.7-3.7-1-5.5c-0.3-1.6-0.5-3.2-0.8-4.8
		c-0.3-1.5-0.6-3-1-4.4c-0.2-0.8-0.2-1.6,0.1-2.4c1.2-2.9,2-6,2.5-9.1c2.7-6.6,2-13.6,2.5-20.4c0.5-6.7,0.7-13.3,1.1-20
		c0.1-1.6,0.1-3.2,0.3-4.8c0.3-2.7,1.5-5.1,3.7-6.9l-0.1-0.1c0.4,1.5-0.2,2.8-0.7,4.1c-1.3,3.5-1.7,7.2-1.9,11.2
		c2.2-0.6,3.9-1.6,5.4-2.8c0.7-0.6,1.5-1.2,2.1-1.9c1.5-1.9,3.7-3.4,4.1-6c0.5-3.1,0.3-6.3-0.7-9.4c-0.4-1.3-0.9-2.7-1.8-3.8
		c-1.6-2-2.4-4.5-4-6.5c-0.2-0.3-0.2-0.8-0.4-1.8c0.8,0.6,1.2,0.8,1.4,1.2c1.2,1.8,2.6,3.3,4.3,4.6c3.5,2.6,5.7,9.2,3.5,14
		c-1.1,2.4-2.2,4.9-3.7,7.2c-2.4,3.8-5.5,6.2-9.9,7.1c-1,3.8-1.4,14.8-0.7,19.3c3,0,6.1-1.4,9.3-0.2c5.2-1.7,10.7-2.4,16.3-2.6
		c2.2-0.1,4.4-0.4,6.8-0.7c0.1-0.7,0.1-1.2,0.1-1.8c0.1-1.8,0.6-3.3,2-4.7c1.6-1.5,3-3.2,4.9-5.3c0.9-2.3,1-5.3,0.2-8.3
		c-0.6-2.4-1.2-4.8-2-7.1c-0.6-1.6-1.5-3.1-2.4-4.7c-0.7-1.3-1.8-2.1-3-2.9c-3.9-2.3-7.8-4.8-11.7-7.1c-1.4-0.9-2.8-1.7-3.5-3.4
		c-0.3-0.6-0.8-1.2-1.3-1.6c-1.9-1.4-3.7-3.1-5.8-3.9c-3.1-1.3-5.6-3.3-8.4-4.9c-0.5-0.3-1.1-0.2-1.7-0.2c0,0,0-0.1,0-0.1
		c0.6,0.6,1.5,1.1,1.4,2.2c-0.2,0-0.5,0.1-0.6,0c-2.2-1.7-4.3-3.5-6.4-5.2c0.1,0,0.2,0,0.2,0c-0.1,0-0.1,0.1-0.2,0.1
		c-1.2,0-2.5,0-3.7,0c0-1.5,1.5-0.5,1.9-1.3c-0.1-0.2-0.2-0.6-0.3-0.9c4.3,0.6,8.1,2.6,11.8,4.9c1,0.6,1.7,1.6,3,1.5
		c0.1,0.2,0.1,0.3,0.2,0.5c0.4-0.5,0-0.4-0.3-0.4c-0.5-3-1.6-5.8-3.4-8.3c0.1-0.6-0.1-1.5,0.3-2c1.5-2.2,0.9-5.1,2.7-7.1
		c0.2-0.3,0.4-0.6,0.6-0.9c1.7-2.8,4.3-3.8,7.4-3.6c1.9,0.1,3.7,0.3,5.6,0.4c0.7,0,1.4-0.1,1.9-0.2c1-0.9,1.2-1.9,1.1-3
		c-0.3-1.6,0.1-3,1.1-4.3c0.6-0.8,0.7-1.7-0.2-2.4c-1.1-0.6-2.4,1.3-3.6-0.4c1.4-1.1,3.3-0.4,4.8-1.6c0.6-1.7,0.4-3.2-2.1-4.3
		c1.6-0.4,2.7-0.6,3.8-0.9c1.1-0.2,2.4,0,3.1-1.2c-1.1-1.9-2.4-3.8-3.4-5.7c-1.6-3-2.5-6.1-0.5-9.1c-1.3-4.7-1.2-9.5-3.3-13.8
		c-0.9-0.3-1.5-1.6-2.9-1.3c-0.2,0-0.6-0.3-0.8-0.5c-2.9-3.8-7.1-5.6-11.5-7c-0.5-0.2-1.1-0.2-2.1-0.5c0.8-0.3,1-0.6,1.3-0.5
		c1.7,0.4,3.4,0.7,5.1,1.2c1,0.3,2,0.7,2.9,1.1l0.2,0.2l-0.2-0.1c-0.2-0.5-0.4-1-0.7-1.5c0.5,0,1,0,1.5,0c0.3,1.4,1.8,1.6,2.6,2.6
		c-0.8-1.7-0.8-1.7-2.6-2.5c-0.3-0.8-0.9-0.7-1.5-0.6c-0.1-0.2-0.2-0.3-0.2-0.5c0,0.1,0,0.2,0,0.2c0.1,0.1,0.2,0.1,0.3,0.2
		c0,0.3,0,0.5,0.1,0.8c-1.2-0.1-1.7-1.1-2.2-1.8c-4.7-1.6-9.3-1.2-13.9,0.1c-2,0.6-4.1,0.9-6.2,1.3c-3.8,0.6-7,2.5-10,4.7
		c-0.1,0.1-0.1,0.4-0.2,0.6c-0.5,0.2-1,0.4-1.4,0.6l-0.1,0.1l0-0.2c0.6,0.1,1.2,0.3,1.5-0.6c0.7-0.1,1.3-0.2,2-0.4
		c2.1-0.7,4.1-1.4,6.2-2.1c0.7-0.2,1.6-0.2,2.4-0.3l-0.1-0.1c-0.4,0.2-0.7,0.6-1.1,0.7c-2.7,1-5.5,1.9-8.2,3.1
		c-3.3,1.4-6.3,3.1-7.8,6.7c-1.9-0.3-3.7-0.5-5.7-0.8c1-0.5,1.7-0.9,2.3-1.2c0.3-1.1-0.1-1.7-1.1-1.8c-0.7-0.1-1.4-0.2-2.1-0.2
		c-2.7,0-3.6,0.6-4.3,3.2c-1.2,4.3-1.8,8.7-2.2,13.1c0,0.2-0.1,0.5,0,0.7c1.1,2.3,0.1,4.6,0.1,6.9c0,1.5-0.2,3,0.3,4.5
		c0.3,1,0.3,2.1,0.3,3.1c0,6.9,0,13.8,0.1,20.7c0,1.4,0.1,2.8,0.2,4.2c-1.1-0.9-0.9-2.1-0.9-3.2c0-5.1,0-10.3,0-15.4
		c0-1.5-0.1-3-0.2-4.5c-0.1,0-0.2,0-0.3,0c-0.5,8.1-0.9,16.2-1.4,24.2c-0.7-1-0.7-2.3-0.8-3.6c-0.1-2.9-0.1-5.8-0.2-8.8
		c0.8-0.6,0.7-1.4,0.7-2.2c0.3-5.1,0.8-10.2,0.6-15.3c-0.1-2.5,0-5.1-0.3-7.6c-0.1,0.4-0.3,0.9-0.2,1.3c0.2,3.3-0.5,6.5-0.7,9.7
		c-0.2,4.8,0,9.5,0,14.3c-0.9-0.1-1.2-0.7-1.3-1.4c-0.2-3.7-0.5-7.5-0.5-11.2c0-4.3,0.4-8.6,0.6-13c0.2-3,0.2-6.1,0.4-9.1
		c0.2-2.8,0.6-5.6,1.7-8.2c1.5-3.5,4.2-5,7.8-4.7c2.2,0.2,4.4,0.8,6.3,1.9c0.5,0.3,1,0.4,1.4,0.5c0.4-0.3,0.6-0.4,0.7-0.6
		c1-2.1,2.4-3.7,4.5-4.8c0.5-0.3,0.9-0.7,1.4-1.1c2.5-2.4,5.6-3.8,9-4.5c1.9-0.4,3.9-0.9,5.9-1.1c3-0.4,6-0.7,9-1
		c2.6,0.9,5.3,1.8,7.9,2.8c3.4,1.2,5.7,4,8.2,6.4c0.4,0.4,0.6,1,0.8,1.5c0.8,2.1,1.7,4.1,2.3,6.2c0.7,2.5,1,5,1.6,7.5
		c0.3,1.4,0.2,2.7-0.3,4.1c-1.2,3.6-0.9,2.6,0.1,5.7c0.4,1.2,1,2.4,1.6,3.5c0.8,1.7,1.6,3.3,2.4,4.8c-0.9,2.2-3.2,1.7-4.4,2.8
		c-0.8,1,0.2,1.9,0,2.7c-0.2,0.8-0.8,1.6-1.3,2.6c0.7,1,0.7,2.3-0.2,3.4c-0.6,0.7-0.6,1.4-0.6,2.3c0.1,0.8,0,1.6,0,2.5
		c0,0.9-0.5,1.5-1.2,2c-1.2,0.8-2.6,1-4,1c-1.9,0-3.7,0-5.6,0c-1.3,0-2.7,0.1-3.6,1.1c-1.6,1.9-3.1,3.8-3.5,6.4
		c-0.3,1.8-0.3,3.7-0.4,5.4c0.7,1,1.4,1.7,1.9,2.6c1.1,2,2.1,3.9,2.9,6c0.7,1.7,1.8,2.9,3.3,4c2.9,2.1,5.8,4.4,8.7,6.5
		c0.5,0.4,0.9,0.7,1.5,1c3.8,2.1,7.1,5,10.5,7.6c0.8,0.6,1.5,1.5,2.1,2.4c3.3,5,4.7,10.7,4.7,16.6c0,1.1-0.3,2.3-0.6,3.4
		c-0.8,3-2.7,5.2-5.3,6.7c-1.4,0.8-2.1,1.9-1.7,3.4c0.4,1.4,0.2,2.8,0,4.2c-0.2,1.3-0.4,2.6-0.4,3.8c0,1.7-0.4,3.2-1,4.8
		c-0.4,1-0.7,2-1.1,2.9c-1.6,3.8-2.4,7.8-3.7,11.7c-0.9,2.7-1.5,5.4-1.7,8.2c-0.2,4-0.9,7.9-1.8,11.8c-0.6,2.5-0.5,5.1-0.2,7.7
		c0.5,4.4,0.9,8.8,1,13.3c0,2.8,0.3,5.6,0.5,8.4c0.4,4,0.7,7.9,1,11.9c0.4,6.1-0.3,12.2,0.7,18.2c0.1,0.7,0.1,1.4,0,2.1
		c-0.3,3.8-0.5,7.7-0.9,11.5c-0.2,2.1-0.5,4.2-0.9,6.2c-1.8,9.1-4.9,17.8-7.6,26.6c-1.3,4.3-2.7,8.5-3.9,12.8
		c-0.8,3-1.8,5.8-3.6,7.9c-1,0.2-1.7,0.3-2.4,0.5c-1.1,0.4-2.1,1-3.2,1.5c-0.4,0.1-0.8,0-1.6,0c0.9-1,1.6-1.6,2-2.4
		c1.3-2.1,3.1-3.4,5.7-3.4c0.3-0.8,0.6-1.4,0.8-2.1c1.1-4.3,2.3-8.6,3.4-12.9c0.5-1.8,0.9-3.6,1.4-5.4c1.3-4.4,2.6-8.7,3.8-13.1
		c0.1-0.4,0.1-0.8,0.2-1.4c-0.4,0.2-0.7,0.2-0.8,0.3c-2,2.3-4.6,2.5-7.4,2.1c-1.4-0.2-2.5-0.9-3.2-2.3c-1.5-3.2-2.4-6.6-3-10.1
		c-0.4-2.3-0.7-4.6-1-6.7c-0.9-0.4-1.4-0.3-1.6,0.4c-0.6,1.4-1.9,1.7-3.1,1.9c-0.7,0.1-1.5-0.4-2.2-0.5c-1.1,0.4-2.1,0.8-3.3,1.1
		c-1.1,0.3-2.1,0.1-2.7-1.1c-0.2-0.3-0.4-0.5-0.7-0.9c-1.4,0.8-2.7,0.7-4.3,0.2c-2.5-0.8-5.2-1-7.8-1.5c-0.3,0-0.6,0.2-0.8,0.3
		c-0.1,0.3-0.3,0.5-0.2,0.8c0.3,3.7-0.5,7.3-1,10.8c-0.8,4.6-0.6,9,1,13.4c0.3,0.9,0.5,1.8,0.6,2.7c0.5,3,0.9,6,1.7,8.9
		c0.6,2.3,1,4.6,1,6.9c0,4.4,0,8.9-0.1,13.3c0,0.8-0.2,1.6-0.4,2.4c-0.9,3.2-1.8,6.3-2.7,9.4c-0.4,1.5-0.5,3-1.1,4.4
		c-1.7,4.4-3.4,8.7-5.4,13c-1.7,3.7-2.1,7.6-2.1,11.6c0,1.2,0,2.3,0.1,3.5c0.3,3.7,0.1,7.5,0.9,11.2c0.6,3,1.2,6,1.1,9
		c0,0.6,0,1.2,0.2,1.7c0.9,3.4,1.2,6.9,1.5,10.4c0.3,4.7,0.8,9.3,1,14c0.2,2.6,0.1,5.1,0.2,7.7c0,0.7,0.1,1.4,0.1,2.1
		c0.2,2.3,0.4,4.6,0.6,7c0.8,0.9,1.7,1.8,2.4,2.9c1.2,2,3,2.8,5.2,3.1c1.1,0.1,2.3,0.4,3.4,0.7c2.3-2.5,4.6-4.8,6.8-7.2
		c-0.4-0.8-0.8-1.4-1-2c-0.3-0.6-0.1-1.5-1-1.7C625.3,418.9,626.2,420.3,625.1,420.7L625.1,420.7z M653,275c0-0.2,0.1-0.3,0.1-0.5
		c0.8-0.1,1.2-0.8,1.4-1.4c0.5-1.9,1.1-3.8,1.4-5.8c1.1-7.7,1.2-15.4,0.5-23c-0.4-4.4-1.1-8.8-1.8-13.2c-0.3-1.7-0.9-3.4-1.4-5
		c-0.2-0.5-0.5-1-0.8-1.5c-1.7,1.2-2.6,2.7-2.8,4.7c-0.1,0.7-0.3,1.4-0.4,2.1c-0.5,6.6-1.1,13.2-0.4,19.9c0.4,3.9,0.6,7.9,1,11.9
		c0.3,3.2,1.2,6.1,2.4,9.2c0.5,0,1,0,1.6,0c-0.2,0.8-0.4,1.6-0.5,2.4c-0.3,0-0.5,0-0.8,0c-0.2-0.2-0.5-0.5-0.7-0.7l-0.1-0.2l0.2,0.1
		c0.2,0.2,0.5,0.5,0.7,0.7C652.7,274.7,652.8,274.9,653,275z M650.1,224.2c0.1-0.1,0.1-0.1,0.2-0.2c0.2-0.1,0.4-0.1,0.5-0.2
		c-0.1-0.1-0.2-0.2-0.3-0.2c-0.1,0.2-0.1,0.4-0.2,0.5C650.3,224.2,650.2,224.2,650.1,224.2z M597.9,228.7
		c-2.7,13.8-2.4,27.6,0.5,41.3c0.4,1.9,1.1,3.8,1.9,5.6c0.9,2,2.2,2.4,5.1,1.8c-0.5-1.3-1.1-2.5-1.5-3.9c-0.7-2.8-1.5-5.6-1.9-8.5
		c-1.5-10.2-2-20.5-0.7-30.7c0.3-2.6,1.1-5.2,1.6-7.9c0.1-0.6,0.2-1.1,0.3-1.7l0.2,0l-0.1,0.1C600,224.3,598.7,224.7,597.9,228.7z
		 M633.5,154.5c-0.7,1.4-1,2.9-1.4,4.3c-0.9,3.4-1.7,6.8-2.6,10.2c-0.5,1.8-0.2,3.5,0,5.2c0.5,3.7,1.2,7.4,1.7,11.1
		c0.2,1.5,0.1,3,0.2,4.5c0,0.9,0,1.8,0,2.9c2.5,0.6,4.9,1.1,7.3,1.6c5.3,1.2,10.6,2.8,15.8,4.6c0.8,0.3,1.6,0.5,2.3,0.7
		c0.2,0,0.4-0.2,0.8-0.3c0-0.5,0.1-1,0-1.6c-0.9-5.2,0-10.2,0.8-15.3c0.4-2.6,0.9-5.3,0.7-8c-0.1-1.6,0.2-3.3,0.7-4.8
		c1.5-5.1,3.2-10.2,4.9-15.3c0.6-2,1.3-4,2-6c0.6-1.7,0.6-3.4,0.5-5.4c-0.7,0-1.4-0.2-2-0.1c-4.1,0.4-8.2,0.6-12.2,1.2
		c-4.5,0.6-9,1.4-13.5,2.1c-1.7,0.3-3.5,0-5.2,1.3c-0.2,1.3-0.4,2.8-0.7,4.7c0.5,0.4,1.3,0.8,1.8,1.4c0.8,0.7,1.6,1.4,1.6,2.6
		l0.1-0.1C635.6,156.2,634.9,154.6,633.5,154.5z M597.9,312.4c-1.6,2.4-3.8,4.5-4.3,7.5c0,0.2-0.2,0.4-0.3,0.6
		c-2.7,4.8-5.4,9.5-8.1,14.4c-0.8,1.5-1.5,3.1-2.2,4.8c-0.3,0.6-0.4,1.4-0.4,2c-0.1,3.1-0.1,6.3-0.3,9.5c-0.2,2.8-0.6,5.6-0.9,8.4
		c-0.4,3.6-0.9,7.2-1.2,10.8c-0.1,0.9-0.1,1.9,0.2,2.8c0.6,1.6,0.5,3.2,0.3,4.8c-0.5,3.7-1.3,7.4-1.6,11.1c-0.3,3.4-1,6.7-1.7,10
		c-0.4,1.7-0.8,3.4-1.9,4.8c-1.3,1.6-1.1,3.5-0.5,5.4c0.4,1.3,1.1,2.6,1.6,3.9c0.5,1.2,1.1,2.4,0.2,3.5c3.3,2.8,6.8,4,10.9,1.9
		c0.3-1-0.5-2.1,0.4-3.2c0.4-0.5,0.3-1.6,0.4-2.4c0.1-2.9,0.1-5.9,0.2-8.8c0.1-2.4,0.4-4.9,0.7-7.3c0-0.3,0.1-0.7,0.3-1
		c1.4-1.5,1.4-3.5,1.7-5.3c0.5-3.7,1.7-7.1,3.4-10.3c1-1.9,1.8-3.8,2.2-5.9c1.1-5.1,3.2-9.8,5.1-14.6c0.4-1.1,0.8-2.2,0.7-3.4
		c-0.4-3.4,0.3-6.8,1.4-10c1.7-5.1,3.4-10.2,5.5-15.1c3-6.8,5.1-13.8,6.3-21.1c0.1-0.8,0.2-1.6,0.1-2.4c-0.8-6-1.6-12.1-2.6-18.1
		c-0.6-3.8-1.5-7.6-2.3-11.3c-0.1-0.3-0.3-0.6-0.5-1c-2.3,0.9-4.6,1.6-7.2,1.5c-0.1,0.8-0.4,1.5-0.4,2.1c0.1,5,0.2,10.1,0.2,15.1
		c0,2.8-0.3,5.6-0.5,8.4c-0.1,1.9-0.7,3.6-2,5.1l0.1-0.1C599.7,310.6,598.6,311.4,597.9,312.4z M669.3,459.1
		c-3.7-1.8-7.5-3.7-11.3-5.6c-1.6-0.8-3.2-1-5.1-0.6c-4.4,0.8-8.9,0.6-13.2-0.8c-1.9-0.6-3.7-1.4-5.6-2.1c-0.8-0.3-1.5-0.6-2.3-0.9
		c-1.7-0.6-3.1-0.5-4.6,0.7c-1.5,1.3-3.4,2.1-5.2,2.9c-1.9,0.8-3.6,1.4-5.7,0.6c-0.8-0.3-1.9,0-2.8-0.1c-2-0.1-4-0.1-5.9-0.5
		c-1.4-0.3-2.7,0.6-4.1-0.3c-1-0.7-2.4-0.9-3.8-1.3c-4.5,2.7-9,5.7-13.4,8.8c-0.5,1.9-0.8,3.7-0.6,5.6c0.4,3.9-1,7.9,0.1,11.9
		c0.6,0.1,1,0.3,1.4,0.2c3.7-0.6,7.4-0.5,11.2-0.1c0.5,0.1,0.9,0.1,1.4,0.1c8.4,0.3,16.8,0.5,25.2,1c6.9,0.4,13.8-0.3,20.7-0.1
		c1.9,0.1,3.7,0.3,5.6,0.4c2,0.1,4,0.1,5.9,0.3c3.1,0.2,6.3,0.5,9.4,0.7c0.3,0,0.7,0,1.2,0C669,472.9,669.8,466.2,669.3,459.1z
		 M626.3,446.8c2.5-0.8,4.8-0.8,7.2,0.2c1.9,0.8,3.9,1.6,5.9,2.3c1.7,0.6,3.4,1,5.1,1.3c0.8,0.2,1.7,0.4,2.4,0.2
		c3.7-0.7,7.5-0.3,11.1-1.3c2.3-0.6,9-4.4,10.5-6.1c0.7-0.8,1.2-1.7,1.7-2.5c-1.3-2.7-2.6-5.2-3.9-7.8c-2.6,0-5.2,0-8.2,0
		c-1,0.8-2.4,2.2-4.7,2c-0.1-0.5-0.3-1.2-0.5-2c-0.8-0.5-1.9-1-2.9-1.6c-1.5,0.3-1.7,2.6-3.7,2.3c-0.8-1.3,0-2.4,0.3-3.7
		c-0.8-1.1-2.1-1.2-3.4-1.9c-0.5,0.7-1,1.3-1.5,1.9c-0.4,0.4-0.7,0.9-1.2,1.3c-0.5,0.4-1.1,0.5-1.6,0c-0.3-0.3-0.5-0.8-0.4-1.2
		c0.1-0.7,0.4-1.3,0.8-1.9c0.4-0.8,0.9-1.6,1.4-2.5c-0.3-0.5-0.5-0.9-0.8-1.2c-0.3-0.4-0.7-0.6-1-0.9c-0.3,0.1-0.6,0.2-0.6,0.3
		c-0.7,1.3-1.2,2.8-2,4.1c-0.4,0.7-1.2,0.7-1.8-0.2c0.4-1,0.8-2,1.1-3.1c0.3-1.1,0.5-2.3,0.7-3.3c-1.6-2.1-3.1-4.1-4.5-6
		c-1-1.4-2.3-1.9-4-1.3c0.3,1.6,0.5,3.2,0.8,4.7c0.1,0.4,0.3,0.9,0.6,1.2c1.2,0.8,0.8,1.8,0.4,2.8c-0.3,0.5-0.7,1-1.1,1.4
		c-1.6,1.7-3.3,3.4-4.9,5c-2.4,2.4-8.8,1.8-10.7-1c-0.7-1.1-1.5-2.1-2.3-3.1c-0.4-0.5-1-1.1-1.6-1.3c-1.3-0.4-1.7-1.4-1.7-2.7
		c-1.7,1-2.4,2.4-2.7,4.1c-0.3,1.6-0.6,3.2-0.9,4.8c-0.7,3.1-1.5,6.1-2.6,9.1c-1.1,2.8-1.7,5.8-2.5,8.9c0.8,0.9,2,1.5,3.2,1.5
		c1.6,0,3,0.7,4.5,0.9c2.2,0.3,4.4,0.6,6.6,0.8c1.7,0.2,3.5,0.2,5.3,0.3c0.7,0,1.4,0,2-0.3c1.2-0.4,2.4-0.9,3.9-1.6
		C624,447.9,625,447.3,626.3,446.8z M587.4,451.5c0.5-0.3,1.1-0.6,1.8-1.1c0-1.4,0-2.9,0-4.6c-0.6-0.2-1.1-0.4-1.6-0.6
		c-0.5-0.2-1-0.4-1.9-0.7c1.2-1,2-1.7,3-2.5c0.4-1.5,0.1-2.9-0.4-4.2c-1.8-0.5-3.8,0.5-5.1-1.5c0.9-2,3.1-1.7,4.8-2.6
		c0.2-0.6,0.4-1.3,0.7-2.1c-0.4-0.1-0.7-0.2-0.8-0.2c-1,0.2-2,0.6-3.1,0.7c-1.1,0.2-2.1,0.1-2.8-0.9c1.5-1.3,1.5-1.3,3.8-2
		c1.5-0.4,2.9-0.8,4.6-1.3c0.2-0.5,0.7-1.1,0.8-1.8c0.4-1.7,0.7-3.4,1-5.1c0.1-0.4-0.1-0.9-0.2-1.4c0-0.2-0.3-0.3-0.6-0.7
		c-0.9,0.4-1.8,0.9-2.7,1.2c-1,0.3-2,0.6-3,0.8c-3.8,0.9-7.2-0.2-10.3-2.4c-2.2-1.6-3.3-3.9-2.3-6.7c0.1-0.4,0.2-0.9,0.1-1.3
		c-0.9-2.7-0.5-5.3,0.6-7.8c-0.6-0.7-1.3-0.7-1.9-0.2c-0.3,0.2-0.5,0.5-0.7,0.8c-2.8,3.5-6.6,5.1-10.8,5.9c-1.9,0.4-3.5,1-4.6,2.8
		c-1.8,2.8-1.9,2.8-5.1,4.2c0.2,0.8,0.2,1.7,0.5,2.6c0.5,1.9,1.2,3.8,1.2,5.8c0,1.3,0.7,2.2,1.5,3.1c2,2,3.8,4.1,6,5.9
		c3,2.5,4.9,5.6,5.7,9.4c0.7,3.3,2.1,6.2,4.1,8.8c0.7,0.8,1.2,1.8,1.8,2.6c0.5,0.6,1,1.4,1.6,1.8c2.9,2,5.8,3.9,9.2,5.1
		c0.2,0.1,0.4,0,0.9,0c0.8-1.7,2.2-3.1,3.8-4.3c1.2-0.9,1.9-2.2,3-3.5C589,452.8,587.3,453.2,587.4,451.5z M601,369.3
		c-2.1,5-4.1,9.9-6.1,14.9c-0.9,2.1-1.4,4.2-1.8,6.4c-0.5,2.6-1.1,5.3-1.9,7.8c-0.5,1.8-0.8,3.6-0.8,5.5c0.1,4.2,0,8.4,0,12.7
		c0.6,0.4,1,0.7,1.5,0.9c1,0.6,1.5,1.5,1.5,2.6c-0.1,2-0.1,4-0.5,5.9c-0.4,2-1.1,4.1-1.9,6c-0.9,2.2-1.1,4.4-0.6,6.8
		c0.6,3,0.7,6,0.9,9.1c0.1,2.3,0.1,2.3,1.7,4.2c1.2-0.6,2.4-1.3,3.7-2c-0.4-0.5-0.7-0.9-1.2-1.5c0.1-0.3,0.3-0.8,0.5-1.1
		c1.5-1.7,2-3.7,2.3-5.8c0.2-1.7,0.7-3.2,1.5-4.6c0.7-1.2,1-2.6,1.2-4c0.5-3.8,1.4-7.6,3.2-11c0.8-1.6,1.7-3.1,3.6-3.6
		c0.4-1.2,0.5-2.5,0.2-3.8c-1.7-7.6-2.2-15.3-2.2-23c0-3.2-0.2-6.3-0.4-9.4c-0.2-2.9-0.8-5.7-1.3-8.6c-0.2-1.3-0.6-2.5-0.8-3.8
		c-0.2-1.1-0.3-2.3-0.4-3.4c-0.2,0-0.4,0-0.7-0.1C601.9,367.4,601.4,368.4,601,369.3z M633.1,217.8c-0.3,0.7-0.6,1.4-1,2.1
		c1.5,1.5,3.6,1.3,5.4,2.6c-2-0.3-3.8-0.6-5.5-0.9c-1.3,1.5-0.9,3-0.6,4.4c2.1,1.5,3.1,3.8,4.6,5.7c1.4,1.9,3.2,3.5,4.5,5.8
		c0.1-0.4,0.2-0.8,0.2-1.2c0.2-1.9,0.3-3.7,0.6-5.6c0.3-1.7,0.7-3.4,0.6-5.2c0-2.4,1.9-4.2,4.3-4.3c1.4-0.1,2.8,0,4.2,0.1
		c1.4,0.1,2.5,0.8,3,2.1c0.7,1.6,1.3,3.2,1.8,4.9c2,7.3,2.8,14.7,2.8,22.2c0,2.1-0.2,4.2,0.4,6.2c0.7,0.2,1-0.1,1.1-0.6
		c0.1-0.3,0.1-0.7,0.2-1c0.6-5.8,1.2-11.7,1-17.5c-0.2-7.4-0.7-14.7-1.9-22c-0.5-3.1-0.9-6.2-0.8-9.4c0.1-1.4-0.3-2.8-0.4-4.3
		c-4.3-1.5-8.8-2.3-13.1-3.5c-4.2-1.3-8.6-2.2-12.7-3.1c-1,0.5-0.9,1.3-1,2c-0.1,2,0.2,4-0.3,6c-0.9,4-0.4,7.9-0.6,11.9
		c-0.1,1.4,0.2,2.8,1.1,4.3c0.5-2.3-0.1-4.7,1.5-6.5c0.7,0,0.8,0.4,0.9,0.9c0,0.7,0,1.4,0,2.3c1.2,0.6,2.4,1.3,3.7,2
		c0,0.1-0.1,0.2-0.1,0.4C635.7,218.2,634.5,218,633.1,217.8z M601.2,223.2c0.8-1.6,0.8-3.6,2.7-4.7c0,1.4,0,2.6,0,4.1
		c0.5,0.1,1,0.4,1.5,0.5c1.8,0.3,2.9,1.4,3.6,3c0.4,1,0.8,1.9,1.1,2.9c1.4,4.7,2.5,9.5,2.9,14.4c0.1,0.7,0.1,1.4,0.3,2.1
		c0.1,0.3,0.5,0.4,0.9,0.8c0.1-1,0.3-1.8,0.1-2.6c-0.6-2.9,0-5.8,0.5-8.6c0.5-2.6,1-5.3,1.4-7.9c0.1-0.5,0-0.9,0-1.4
		c-0.6-4-1.2-8.1-1.8-12.1c-0.4-2.3-1-4.6-1.6-6.8c-0.6-2.2-0.8-4.3-0.7-6.6c0.1-1.3,0.1-2.6-1.1-3.5c-0.9,0-1.1,0.8-1.3,1.3
		c-1.6,4.6-4.5,8.5-6.5,12.8c-1.8,3.8-3.2,7.8-4.8,11.6c-0.1,0.3-0.1,0.7-0.1,1.5C599.6,223.7,600.5,223.4,601.2,223.2z
		 M610.3,271.7c1-4.2,2.1-8.4,1.4-12.9c-1.4-0.2-2.8-0.3-4.1-0.5c-1.2-0.7-1.9-1.8-2.1-3.1c-0.5-3-0.3-6,0.3-8.9
		c1.6-1,3.4,0.1,4.9-0.7c1.2-5.5-0.5-10.6-1.9-15.7c-0.5-1.8-1-3.6-2.4-4.8c-1,0-1.3,0.7-1.6,1.3c-1.2,2.7-1.6,5.6-2,8.5
		c-1.2,11.1-0.8,22.2,1.4,33.1c0.4,2.3,1.3,4.5,2,6.7c0.3,0.9,0.7,1.7,1.9,2.3C609.7,275.4,609.9,273.4,610.3,271.7z M609.9,522
		c-4.9,0.3-9.8-0.1-14.6-1.3c-0.7-0.2-1.4-0.2-2.2-0.3c-1.2,4.1-0.8,8.1-0.8,12.3c0.6,0.2,1,0.4,1.4,0.4c7.4,0.1,14.7,0.1,22.1,0.2
		c0.7,0,1.3-0.1,2-0.1c0.5-2.8,0.5-6.7,0-10.4C615,521.9,612.4,521.9,609.9,522z M640.2,533.6c1.7,0.2,3.3,0,4.9,0
		c1.6,0,3.3-0.1,4.9-0.1c1.6,0,3.3,0,4.9,0c1.6,0,3.3,0.1,4.9,0.1c1.6,0,3.2,0,5.1,0c2.2-3,1.6-6.5,1.7-10.1c-0.8-0.2-1.4-0.5-2-0.5
		c-1.4-0.1-2.8-0.1-4.2,0c-3,0.3-6.1,0-9.1-0.2c-0.5,0-1,0-1.4-0.1c-3.2-1.1-6.4-0.4-10.2-0.7C640.4,526,639.9,529.7,640.2,533.6z
		 M646.8,261.1c-0.8-5.5-0.9-11-1-16.5c-0.1-5.3,0.2-10.5,1.1-15.7c0.4-2,1.1-4,1.6-6.1c-1.1-0.6-2.2-0.1-3.3,0.3
		c-1,0.4-1.4,1.2-1.7,2.1c-0.4,1-0.7,2-0.9,3c-0.5,2.8-1.1,5.5-1.4,8.3c-0.1,1.4,0.2,2.8,0.4,4.2c0.2,1.5,0.4,3-0.1,4.5
		c-0.3,0.8-0.3,1.6-0.3,2.4c0.2,6.9,0.7,13.8,2.3,20.5c0.4,1.5,0.8,2.9,1.3,4.4c1.2,3.1,2,3.5,6,3.3
		C648.3,271.1,647.5,266.1,646.8,261.1z M614.3,248.4c-1.5-0.2-2.8-0.3-4-0.6c-1.1-0.3-2.2-0.8-3.4-0.4c-1.2,2.9-1.1,5.5,0.3,8.7
		c2.8-0.2,5.4,1.3,8.6,0.3C615,253.7,615.5,250.7,614.3,248.4z M664.5,520c-0.4-0.2-0.9-0.3-1.4-0.2c-3.7,0.2-7.4-0.5-11.2-0.1
		c-1.1,0.1-2.3-0.2-3.5-0.3c-0.8-0.1-1.6-0.3-2.4-0.3c-1.8,0-3.5-0.2-5-1.1c-1,0.5-0.7,1.2-0.5,2c2.7,0.2,5.4,0.4,8.2,0.5
		c2.7,0.2,5.4,0.3,8,0.4c2.7,0.1,5.5,0.4,8.6,0.2C664.9,520.5,664.7,520.1,664.5,520z M680.1,574.7c-5.4-0.3-10.7,0.7-16,1
		c-0.2,0-0.3,0.3-0.5,0.5c0.1,0.1,0.2,0.3,0.4,0.3c1.4,0,2.8,0.1,4.2,0c3.5-0.4,6.9-0.8,10.4-0.4c0.8,0.1,1.6-0.1,2.4-0.2
		c0.3-0.1,0.5-0.4,0.9-0.9C681.1,574.9,680.6,574.7,680.1,574.7z M639.1,244.6c-0.7-0.2-1.1,0.2-1.2,0.8c-0.2,0.7-0.2,1.4-0.2,2.1
		c-0.1,2.6,0.5,5.4,1.9,8.3C640.1,253.4,639.9,248.1,639.1,244.6z M603.1,519.7c2,0,4,0,5.9-0.1c2.9-0.1,5.8-0.1,8.7,0.8
		c0.1-0.4,0.1-0.7,0.2-1.2c-3.3,0-6.6,0.1-9.8,0c-3.2-0.1-6.5-0.5-10.5-0.8C599.8,519.5,601.4,519.7,603.1,519.7z M640.1,573.7
		c-0.1,0-0.2,0.4-0.3,0.7c2,1.2,4.2,0.7,6.3,0.6C644.2,574.3,642.3,573.1,640.1,573.7z M658.9,258.8c-0.3,0.3-0.7,0.5-0.7,0.7
		c-0.1,1.1,0,2.2,0,3.3C658.7,261.5,659.6,260.4,658.9,258.8z M657.8,266.1c0,0-0.1,0-0.1,0c0,0.3,0,0.6,0.1,0.9c0.1,0,0.1,0,0.2,0
		C657.8,266.7,657.8,266.4,657.8,266.1z M608,18.4c0,0.1,0,0.2,0,0.3c0.4,0,0.7,0,1.1,0.1c0-0.1,0-0.2,0-0.3
		C608.7,18.4,608.4,18.4,608,18.4z"/>
	<path d="M635.1,518.6c0.2,3.9,0.6,7.9,0.6,11.8c0,3.9-0.3,7.9-0.4,11.8C636.8,534.3,636.5,526.4,635.1,518.6z"/>
	<path d="M624,350c0.3-1.2,0.5-2.1,0.8-3c0.8-2.4,0.3-4.8,0.1-7.3c0-0.3-0.5-0.7-0.7-0.7c-0.4,0.1-1,0.4-1,0.7
		c-0.1,1-0.2,2.1-0.1,3.1C623.3,345.1,623.7,347.4,624,350z"/>
	<path d="M615.9,426.5c-0.1-3.2,0.4-5.8-0.2-8.8c-0.4,0.7-0.9,1.1-1,1.6c-0.3,1.5-0.5,3-0.8,4.5
		C613.8,424.9,614.3,425.7,615.9,426.5z"/>
	<path d="M599.1,578.7c-0.3-0.9-0.9-1.1-1.4-1.1c-2.8-0.2-5.6-0.3-8.2,0.7c-0.1,0.2-0.1,0.2-0.1,0.3c0.1,0,0.2,0.1,0.3,0.1
		c1,0,2.1,0,3.1,0.1C594.9,578.7,597,578.7,599.1,578.7z"/>
	<path d="M632.2,330.4c1.4-2.4,1.5-4.2,0.7-6.3c-0.6,0-0.8,0.4-0.8,0.8C632.1,326.8,632.1,328.6,632.2,330.4z"/>
	<path d="M623.4,353.3c-0.7,0.9-0.4,1.9-0.1,2.9C624.8,355.3,624.8,354.4,623.4,353.3z"/>
	<path d="M615,405.6c0-0.9,0-1.7,0-2.9C614.1,404.1,614.1,404.1,615,405.6z"/>
	<path d="M635.6,316.9c-0.2,0.4-0.5,0.7-0.6,1.1c-0.1,0.4-0.5,0.8,0.1,1.4c0.4-0.8,0.8-1.5,1.2-2.2C636,317.1,635.8,317,635.6,316.9
		z"/>
	<path d="M622.6,368.9c-1.1,0.5-1.1,1.3-0.7,2.3C622.7,370.6,623.2,370,622.6,368.9z"/>
	<path d="M596.6,75.2c0,0.9,0,1.7,0,2.6c0,0,0.1,0,0.1,0c0-0.9,0-1.7,0-2.6C596.7,75.2,596.7,75.2,596.6,75.2z"/>
	<path d="M630.5,577.1c0.1-0.2,0.3-0.5,0.4-0.7c-0.2-0.1-0.5-0.4-0.7-0.3c-0.2,0.1-0.4,0.4-0.5,0.7
		C629.8,576.8,630,576.9,630.5,577.1z"/>
	<path d="M625.1,420.7c-0.2,0.5-0.4,0.9-0.8,1.8C625.3,421.8,624.9,421.2,625.1,420.7L625.1,420.7z"/>
	<path d="M614.7,411.9c0.2-0.3,0.5-0.4,0.5-0.5c-0.1-0.3-0.2-0.5-0.4-0.8c-0.1,0.1-0.2,0.2-0.2,0.2
		C614.5,411.2,614.6,411.5,614.7,411.9z"/>
	<path d="M624.1,335.4c0-0.2,0.1-0.3,0.1-0.4c0,0-0.1-0.1-0.2-0.1C624,335.1,624,335.2,624.1,335.4z"/>
	<path d="M623.4,576.2c-0.2-0.1-0.4-0.2-0.6-0.2c-0.1,0-0.2,0.3-0.3,0.4c0.2,0.1,0.4,0.2,0.6,0.2
		C623.1,576.6,623.2,576.4,623.4,576.2z"/>
	<path d="M622.5,361c0.1,0.2,0.2,0.3,0.2,0.5c0.1-0.1,0.2-0.2,0.2-0.2c-0.1-0.2-0.2-0.3-0.2-0.5C622.6,360.8,622.6,360.9,622.5,361z
		"/>
	<path d="M597,87.8c-0.2,0.1-0.4,0.2-0.5,0.4c0,0.1,0.1,0.3,0.2,0.5c0-0.1,0.1-0.2,0.1-0.3C596.9,88.1,596.9,87.9,597,87.8L597,87.8
		z"/>
	<polygon points="632.6,338.2 632.4,338.1 632.4,338.4 	"/>
	<path d="M234.5,173.5c0-0.5,0.1-1,0.1-1.5c-0.5,0.1-0.8-0.2-0.8-0.7c-0.7,0-1.5,0-2.2,0l-0.1,0.2l0.1-0.1c0.3-0.3,0.7-0.6,1.1-1
		c0.4,0.4,0.7,0.7,1,1c0.3,0.2,0.5,0.5,0.8,0.7c0.9,0.5,1.7,1.1,2.7,1.5c0.9,0.4,1.5,0,1.8-1c-0.8-1.1-2.5,0-3.1-1.3l0.1,0.1
		c-0.3-0.3-0.5-0.5-0.8-0.8l0,0.1c-0.9-0.5-1.8-1.1-2.7-1.6c-1.6,1-2.8,2.3-3.9,3.6c-0.9,1-0.9,2.1-0.5,3.4
		c-0.5,0.1-0.9,0.2-1.4,0.3l0.1-0.1c0.3,1,0.6,1.9,0.9,3c0.3-0.5,0.5-0.9,0.7-1.3c2,1.5,2.1,1.7,2.7,3.7c0.3,1,0.4,2,1.4,3
		c0.5-0.2,1.2-0.4,1.6-0.8c0.6-0.5,0.9-1.3,0.7-2c-1.3-0.6-1.1,1.1-2.1,0.9c0,0-0.2-0.1-0.3-0.3c-0.3-1.3-0.6-2.7-0.9-4l0.1,0.1
		c-0.5,0-0.8-0.3-0.8-0.8l0.1,0.1c-0.3-0.3-0.5-0.5-0.8-0.8l0.1,0.1c-0.8-1.2-1.3-2.4,0-3.6l-0.1,0.1c0.2,0,0.5,0,0.7-0.1l0,0
		c0.6-0.2,1.2-0.4,1.9-0.6c-0.1,0.4-0.1,0.7-0.2,1.2C233.4,173.8,233.9,173.7,234.5,173.5L234.5,173.5z"/>
	<path d="M277.4,262c-0.9-0.1-1.8-0.1-2.5,0.9c-1.6,2.2-3.8,3.8-5.9,5.4c-1,0.8-2.1,1.5-3.4,1.7c-0.3,0-0.5,0.4-0.8,0.6
		c2.5,0.5,3.7,0.3,6.2-1.2C273.9,267.7,276.6,265.6,277.4,262C277.3,261.9,277.4,262,277.4,262z"/>
	<path d="M256.9,171.3c0.7,0,1.3,0,2,0c0.4,1-0.6,0.9-1.1,1.6c0.8,0.7,1.7,1.5,2.9,1.5c0.8-1.9,0.8-4.1,3.2-5.2
		C260.8,168.7,259.5,169.1,256.9,171.3L256.9,171.3z"/>
	<path d="M231.6,178.3c0.6,0.4,1.3,0.8,1.9,1.3c1.7-1.3,1.7-1.3,1.1-2.9c0.4-0.7,0.8-1.4,1.3-2.2c-0.5-0.4-1-0.7-1.4-1l0,0
		c0,0.7,0.3,1.3-0.4,1.9c-0.6,0.5-1,1.2-1.5,1.8c-1.8-0.6-1.8-2.1-1.6-3.7l0,0c-0.2,0-0.5,0-0.7,0.1l0.1-0.1c0,1.2,0,2.4,0,3.6
		l-0.1-0.1c0.3,0.3,0.5,0.5,0.8,0.8c0,0-0.1-0.1-0.1-0.1c0.3,0.3,0.5,0.5,0.8,0.8L231.6,178.3z"/>
	<path d="M240.8,161.5c1.7-0.4,3.5-0.8,4.2-2.7l0.1,0.1c-0.5-0.2-1.2-0.7-1.5-0.5c-1.6,0.7-3.2,0.5-4.8,0c-0.5-0.1-1.1-0.1-1.7,0.1
		c1.4,0.6,2.8,1.2,4.2,1.8C241.1,160.7,241,161.1,240.8,161.5L240.8,161.5z"/>
	<path d="M218.3,171.3c-0.1,0.9,0.6,1.4,1.1,2.1c1.8,2.3,3.6,4.5,5.4,6.8c0.4,0.5,0.9,1,1.3,1.6c0.7-0.7,0.1-1-0.1-1.4
		c-1.1-1.6-2.2-3.3-3.4-4.9C221.5,173.9,220.1,172.4,218.3,171.3L218.3,171.3z"/>
	<path d="M228.2,162.9c0,0.1,0.1,0.3,0.1,0.3c2.9,1.2,5.8,2,9,1.8l-0.1,0.1c0.5-0.3,1-0.5,1.5-0.8l-0.1,0.1c0.2-0.8,0.9-0.7,1.5-0.8
		l-0.1,0.1c-0.4-0.2-0.8-0.7-1.1-0.7c-3.2,1-6.3,0.7-9.5-0.1C229.1,162.8,228.6,162.9,228.2,162.9L228.2,162.9z"/>
	<path d="M232.7,486.7c1.1-2.8,1.8-5.6,1.7-8.9c-0.5,0.3-0.9,0.4-0.9,0.6C232.8,481.1,232.3,483.8,232.7,486.7z"/>
	<path d="M221.9,306.7c-0.1-1.6-0.2-2.9-0.3-4.1c-0.2-1.2-0.4-2.5-0.6-3.6c-0.8-0.2-1.1,0.1-1.2,0.6
		C219.5,301.9,220,303.8,221.9,306.7z"/>
	<path d="M209.2,167.2c-0.2,0.1-0.4,0.2-0.5,0.4c-1.8,3.2-2.9,6.6-3.8,10.9c0.7-0.9,0.9-1.2,1.1-1.5c0.2-0.4,0.4-0.8,0.6-1.3
		c0.9-2.5,1.7-5.1,2.5-7.6C209.2,167.9,209.1,167.5,209.2,167.2L209.2,167.2z"/>
	<path d="M207.1,162.2c1.9-1.9,4.4-2.9,6.9-4.3c-0.4-0.4-0.6-0.7-0.9-1c-2,0.9-3.8,1.9-5.2,3.6C207.4,161,207,161.5,207.1,162.2
		L207.1,162.2z"/>
	<path d="M238.6,191.1c0.3-0.9-0.3-1.5-0.6-2.3c-0.6-1.6-1.3-3.2-1.9-4.9c-0.6,0.5-0.9,1.3-0.7,2.2
		C235.9,188.1,236.6,190,238.6,191.1L238.6,191.1z"/>
	<path d="M220.2,547.4c-0.6,1.6-0.8,3.3-0.7,5c0,0.6,0.7,1.1,1,1.6c0.3-0.3,0.6-0.4,0.6-0.6c-0.1-2-0.1-4-0.2-6
		C220.7,547.4,220.5,547.4,220.2,547.4z"/>
	<path d="M254.1,150.2c0.7,0.4,1.4,0.8,2.2,1.1c0.7,0.3,1.5,0.5,2.4-0.3c-1.9-2-4.2-2.1-6.7-2.1c0.2,0.9,0.7,1.3,1.5,1.3l-0.1,0
		C253.7,150.3,253.9,150.3,254.1,150.2L254.1,150.2z"/>
	<path d="M265.5,164.4c-0.5-0.1-0.9,0-1.4-0.2c-2.3-0.9-4.5,0-7.2,0.5c0.7,0.4,0.9,0.7,1.1,0.7c2.2-0.1,4.4-0.3,6.5-0.5
		C264.9,164.9,265.2,164.5,265.5,164.4L265.5,164.4z"/>
	<path d="M238.7,191c-0.3,2.3,0.1,4.5,1.4,6.5c-0.1-1.2-0.3-2.4-0.4-3.7c0.4-0.1,0.9-0.3,1.5-0.4C240.5,192.3,239.8,191.4,238.7,191
		L238.7,191z"/>
	<path d="M235.8,171.3c1.5,0,3,0.1,4.4-0.7c0.5-0.3,0.8-0.7,1.3-1.1c-0.9-0.9-1.4,0-2,0.1c-0.8,0.1-1.6,0.3-2.4,0.5
		c-0.7,0.2-1.3,0.3-2,0.5l0-0.1c0.5,0,0.8,0.3,0.8,0.8L235.8,171.3z"/>
	<path d="M232.3,148.1c-2.9-0.1-5.5,0.7-8.1,2c-0.4,0.2-0.7,0.6-1,0.9l-0.1-0.1c0.5,0,0.9,0,1.4-0.1c2.3-0.7,4.7-1.4,7-2.1
		C231.8,148.6,232,148.3,232.3,148.1L232.3,148.1z"/>
	<path d="M243.8,150.1c0.1,0.3,0.2,0.7,0.4,0.8c2.1,0.9,4.2,1.8,6.4,2.7c0.5-0.7-0.1-0.9-0.4-1C248.1,151.5,246,150.7,243.8,150.1
		L243.8,150.1z"/>
	<path d="M213.8,243.5c0.4-2.9,0.3-3.6-1-5.7C212.5,239.9,212.4,241.7,213.8,243.5z"/>
	<path d="M243.7,163.1c-0.3,0-0.7,0.1-1-0.1c-1.2-0.7-1.9,0-2.6,0.7l0.1-0.1c-0.5,0.3-1,0.5-1.5,0.8l0.1-0.1c-0.5,0.3-1,0.5-1.5,0.8
		l0.1-0.1c0.2,0.5,0.6,0.7,1.1,0.6C240.2,164.9,242.1,164.4,243.7,163.1L243.7,163.1z"/>
	<path d="M240.9,153.8c0.1,0.2,0.2,0.4,0.4,0.5c0.8,0.3,1.7,0.6,2.6,0.9c0.6-0.3,1.2-0.6,2-1c-1.3-0.3-2.5-0.7-3.6-1l0.1-0.1
		C241.8,153.3,241.3,153.6,240.9,153.8L240.9,153.8z"/>
	<path d="M236.6,168.5c2,0.3,3.2-0.8,4.4-2.4C239,166.7,238.6,166.9,236.6,168.5L236.6,168.5z"/>
	<path d="M220.5,538.3c-0.6,1.7-0.6,1.7,0.4,3c0-1.2,0.1-2,0.1-2.9c0-0.1-0.1-0.2-0.2-0.3C220.7,538.1,220.6,538.2,220.5,538.3z"/>
	<path d="M237,469.6c0-1.7,0.9-3.4-0.1-5.2C235.9,466.3,237.2,468,237,469.6z"/>
	<path d="M237.5,249.7c1.1-1.5,2.2-2.4,1.9-4.1C238,247,238,247,237.5,249.7z"/>
	<path d="M231.7,490.6c-1,1-1,1-0.9,2.7C231.7,492.4,231.7,492.4,231.7,490.6z"/>
	<path d="M225.3,165.1c-0.8-1.3-2-2-3.4-2.2l-0.1,0.1C222.6,164.2,223.8,164.9,225.3,165.1L225.3,165.1z"/>
	<path d="M224.4,466.1c0.9-0.7,0.8-1.3,0.2-1.9C223.9,464.7,224.1,465.3,224.4,466.1z"/>
	<path d="M226.4,378.8c0.6-1,0.2-1.5-0.7-1.8C225.2,378,225.5,378.5,226.4,378.8z"/>
	<path d="M220.4,340.6c0.2,0.1,0.4,0.3,0.5,0.4c0.2,0.1,0.3,0.3,0.6,0.5c0.1-0.3,0.3-0.6,0.3-0.8c-0.1-0.4-0.4-0.7-0.7-1
		c-0.2,0.3-0.4,0.7-0.6,1L220.4,340.6z"/>
	<path d="M258.8,269.4c0.9,0.5,1.6,0.6,2.2-0.3c0-0.1,0-0.2,0-0.3C260.7,268.2,260.2,268.4,258.8,269.4z"/>
	<path d="M231,256.3c0.3-0.1,0.7-0.2,0.9-0.3c0.5-0.4,0.8-0.8,0.2-1.4C231.2,254.9,230.9,255.5,231,256.3L231,256.3z"/>
	<path d="M235.7,387.3c-1.1-0.5-1.6,0-2.2,0.8C234.5,388.5,235.2,388.5,235.7,387.3z"/>
	<path d="M225.8,384.9c0.5,1.5,1.2,1.5,2.7,1.4C227.4,385.7,226.8,385.4,225.8,384.9z"/>
	<path d="M228.1,162.9c-0.5-0.9-1.4-1-2.3-1.2C226.3,162.9,227.2,163,228.1,162.9L228.1,162.9z"/>
	<path d="M220.9,543.9c-0.3,0.4-0.5,0.6-0.7,0.9c-0.1,0.2-0.1,0.5,0,0.6c0.1,0.1,0.4,0.2,0.6,0.2c0.2-0.1,0.3-0.4,0.3-0.6
		C221.1,544.7,221,544.4,220.9,543.9z"/>
	<path d="M225.4,171.3c0.4,0.4,0.8,0.9,1.4,1.6C226.6,171.6,226,171.4,225.4,171.3L225.4,171.3z"/>
	<path d="M225.4,183.3c-0.1,0.9,0.4,1.4,1.2,2C226.6,184.1,226.2,183.5,225.4,183.3L225.4,183.3z"/>
	<path d="M206.3,204.5c0-0.7,0-1.4,0-2C205.9,203.1,205.8,203.8,206.3,204.5L206.3,204.5z"/>
	<path d="M218.3,171.4c0.2-0.9-0.3-1.3-1-1.9C217.1,170.6,217.5,171.1,218.3,171.4L218.3,171.4z"/>
	<path d="M239.2,459.6c0.3-0.4,0.5-0.7,0.9-1.2C239.2,458.8,239.2,458.8,239.2,459.6z"/>
	<path d="M218.3,175.6c0.2,0.9,0.5,1.7,1.4,2l-0.1,0.1C219.5,176.8,219.2,176,218.3,175.6L218.3,175.6z"/>
	<path d="M221,179.9c0.2-1.1-0.5-1.7-1.4-2.2l0.1-0.1C219.8,178.6,220.3,179.3,221,179.9L221,179.9z"/>
	<path d="M221.9,180.5c0,0.7,0.4,0.9,1,0.8C222.8,180.5,222.3,180.5,221.9,180.5L221.9,180.5z"/>
	<path d="M208.5,174.9c0.7-0.3,0.5-0.9,0.2-1.5C208.6,173.9,208.6,174.4,208.5,174.9L208.5,174.9z"/>
	<path d="M225.8,435.5c-0.1,0-0.2,0.1-0.2,0.1c0,0.2,0.1,0.4,0.1,0.6c0.1,0,0.2-0.1,0.2-0.1C225.8,435.9,225.8,435.7,225.8,435.5z"
		/>
	<path d="M233.1,145.3c0.5-0.1,1-0.1,1.7-0.2C233.9,144.7,233.5,144.9,233.1,145.3L233.1,145.3z"/>
	<path d="M233.2,145.4c-0.8,0-1.7-0.3-2.2,0.7l-0.1-0.1C231.7,146.1,232.6,146.2,233.2,145.4L233.2,145.4z"/>
	<path d="M243.7,150.2c-0.5-0.2-0.9-0.8-1.7-0.1C242.7,150.1,243.2,150.1,243.7,150.2L243.7,150.2z"/>
	<path d="M221.1,153.5c0.3,0,0.5,0,0.8,0c0,0,0-0.1,0-0.1C221.6,153.4,221.3,153.4,221.1,153.5C221.1,153.4,221.1,153.5,221.1,153.5
		z"/>
	<path d="M229,496.3c0,0.4,0,0.8,0,1.1c0.1,0,0.2,0,0.3,0c0-0.4,0-0.8,0-1.1C229.2,496.3,229.1,496.3,229,496.3z"/>
	<path d="M221.1,534.5c0.1-0.1,0.3-0.3,0.4-0.4c0,0-0.1-0.2-0.1-0.2C221.4,534.1,221.3,534.3,221.1,534.5L221.1,534.5z"/>
	<path d="M226.5,380.6c-0.1,0-0.2,0-0.2,0c0,0.1,0,0.2-0.1,0.3c0.1,0,0.2,0,0.3,0C226.5,380.7,226.5,380.6,226.5,380.6z"/>
	<path d="M254.5,267.2c0.1,0,0.2,0.1,0.2,0.1c0.1-0.1,0.1-0.2,0.2-0.3c-0.1,0-0.2-0.1-0.3,0C254.6,267.1,254.6,267.2,254.5,267.2z"
		/>
	<path d="M224.8,181.8c0,0.6-0.1,1.2,0.6,1.5l-0.1,0.1C225.4,182.7,225.2,182.3,224.8,181.8L224.8,181.8z"/>
	<path d="M240.8,153.1c-0.3,0.1-0.5,0.2-0.9,0.3c0.4,0.1,0.7,0.2,1,0.3l-0.1,0.1c0-0.3,0-0.5,0-0.8L240.8,153.1z"/>
	<path d="M226.1,174.8c-0.1,0.6-0.1,1.2,0.6,1.5l-0.1,0.1C226.8,175.7,226.7,175.2,226.1,174.8L226.1,174.8z"/>
	<path d="M218.2,175.7c-0.1-0.3-0.1-0.6-0.1-0.3C218,175.2,218.2,175.4,218.2,175.7L218.2,175.7z"/>
	<path d="M245.1,156c-0.4,0-0.7,0-1.4,0C244.5,156.6,244.8,156.2,245.1,156L245.1,156z"/>
	<path d="M257,171.4c-0.3,0.1-0.6,0.2-1.1,0.3C256.6,172,257,172.2,257,171.4L257,171.4z"/>
	<path d="M236.4,160.4c0,0.1,0.1,0.1,0.1,0.2c0.1-0.1,0.1-0.2,0.2-0.2C236.6,160.4,236.5,160.4,236.4,160.4z"/>
	<path d="M244.3,162.2c0.1-0.2,0.3-0.4,0.1-0.2C244.5,161.7,244.5,162,244.3,162.2L244.3,162.2z"/>
	<path d="M236.6,168.6c-0.2,0-0.4,0-0.6,0c-0.1,0-0.2,0.1-0.3,0.1c0.2,0.1,0.4,0.3,0.5,0.2C236.3,168.9,236.4,168.7,236.6,168.6
		L236.6,168.6z"/>
	<polygon points="204.7,166.6 204.7,166.3 204.5,166.3 	"/>
	<path d="M209.8,165.7c-0.2,0.5-0.4,1-0.6,1.5l-0.1-0.1C209.9,166.9,209.7,166.2,209.8,165.7L209.8,165.7z"/>
	<path d="M225.3,165c0.3,0.8,0.9,0.7,1.5,0.6l-0.1,0.1C226.3,165.5,225.8,165.3,225.3,165L225.3,165z"/>
	<path d="M254.2,143.3c0-0.3,0-0.5,0-0.8c-0.3,0.1-0.6,0.2-0.8,0.2C253.6,142.9,253.9,143.1,254.2,143.3z"/>
	<path d="M250.5,150.4c0-0.4,0-0.7-0.5-0.6C250.2,150,250.4,150.2,250.5,150.4L250.5,150.4z"/>
	<path d="M252,151c-0.3-0.8-0.9-0.7-1.6-0.5l0.1-0.1C251,150.8,251.5,151.1,252,151L252,151z"/>
	<path d="M242.9,243c0.2-0.2,0.4-0.4,0.5-0.6c0,0-0.1-0.2-0.2-0.2c-0.1,0.1-0.2,0.2-0.2,0.2C243,242.6,243,242.8,242.9,243
		L242.9,243z"/>
	<path d="M232.2,148.1c0.3,0,0.6,0,0.3,0C232.8,147.9,232.6,148,232.2,148.1L232.2,148.1z"/>
	<path d="M254.2,150.9c0.1,0.3,0.1,0.5,0.2,0.8c0.1-0.1,0.2-0.2,0.4-0.3C254.5,151.3,254.3,151.2,254.2,150.9L254.2,150.9z"/>
	<path d="M226.7,217.7c0.2,0,0.4,0,0.6,0c0.1,0,0.2-0.2,0.3-0.3c-0.1,0-0.2-0.1-0.3-0.1C227.1,217.4,227,217.6,226.7,217.7
		L226.7,217.7z"/>
	<path d="M215.4,248c0-0.2,0.1-0.5,0-0.7c0-0.2-0.2-0.3-0.3-0.4c0,0.2-0.2,0.4-0.1,0.6C215.1,247.6,215.3,247.7,215.4,248L215.4,248
		z"/>
	<path d="M242.2,153.1c-0.5-0.6-0.9-0.6-1.4,0l-0.1-0.1C241.3,153,241.8,153,242.2,153.1L242.2,153.1z"/>
	<path d="M243,455.9c0.2-0.3,0.4-0.5,0.7-0.8l0.1,0.1C243.5,455.4,243.3,455.7,243,455.9L243,455.9z"/>
	<path d="M243,455.9c-0.1,0.1-0.1,0.1-0.2,0.2C242.9,456,242.9,456,243,455.9L243,455.9z"/>
	<polygon points="221.2,534.6 221,534.7 221.1,534.5 	"/>
	<path d="M224.7,181.9C224.3,181.5,224.8,182,224.7,181.9L224.7,181.9z"/>
	<path d="M221.1,179.8c0.2,0.2,0.5,0.5,0.7,0.7l-0.1,0.1C221.8,180,221.6,179.7,221.1,179.8L221.1,179.8z"/>
	<path d="M226.1,174.9c-0.1-0.2-0.2-0.3-0.3-0.5C225.5,174.9,225.9,174.8,226.1,174.9L226.1,174.9z"/>
	<polygon points="215.5,247.9 215.7,248.1 215.4,248 	"/>
	<polygon points="231.1,256.4 230.9,256.5 231,256.3 	"/>
	<path d="M278,261.2c0.1,0,0.2-0.1,0.3-0.1C278.2,261.2,278.2,261.3,278,261.2L278,261.2z"/>
	<path d="M278.1,261.3c-0.5,0-0.7,0.2-0.7,0.7c0,0-0.1-0.1-0.1-0.1C277.8,262,278,261.7,278.1,261.3
		C278,261.2,278.1,261.3,278.1,261.3z"/>
	<path d="M240.9,161.5c-0.1,0.1-0.2,0.2-0.3,0.2c0.1,0,0.1,0,0.2-0.1C240.7,161.6,240.7,161.5,240.9,161.5L240.9,161.5z"/>
	<path d="M225.3,373.8c0-0.1,0-0.2,0-0.3C225.3,373.5,225.3,373.6,225.3,373.8L225.3,373.8z"/>
	<path d="M225.3,373.7c0.1,0.1,0.2,0.3,0.3,0.4C225.9,373.6,225.5,373.7,225.3,373.7L225.3,373.7z"/>
	<path d="M245.7,158c-0.2,0.3-0.4,0.6-0.6,0.9l-0.1-0.1C245.2,158.5,245.4,158.2,245.7,158L245.7,158z"/>
	<polygon points="245.6,158 245.8,157.9 245.7,158 	"/>
	<polygon points="209.9,155.2 209.7,155.4 209.9,155.1 	"/>
	<path d="M245,155.9c0.1-0.1,0.2-0.3,0.3-0.4c-0.1,0-0.2,0.1-0.2,0.1C245.1,155.8,245.1,155.9,245,155.9L245,155.9z"/>
	<path d="M223.3,151c-0.2,0.1-0.3,0.2-0.5,0.3C223.3,151.6,223.2,151.2,223.3,151L223.3,151z"/>
	<path d="M252.1,150.9c0,0.2,0.1,0.4,0.1,0.5C252.8,151,252.1,151.1,252.1,150.9L252.1,150.9z"/>
	<path d="M254.1,151c0-0.3,0-0.5,0-0.8l0.1,0.1c-0.3,0-0.5,0-0.8,0l0.1,0C253.4,150.8,253.6,151,254.1,151
		C254.2,150.9,254.1,151,254.1,151z"/>
	<path d="M226.8,165.6c0,0.1,0,0.2,0.1,0.2C226.8,165.8,226.8,165.7,226.8,165.6L226.8,165.6z"/>
	<polygon points="209.7,165.7 210,165.6 209.8,165.7 	"/>
	<polygon points="206.4,163 206.2,163.1 206.3,162.9 	"/>
	<path d="M206.3,162.9c0.3-0.2,0.5-0.5,0.8-0.7l0.1,0.1C206.9,162.5,206.7,162.8,206.3,162.9L206.3,162.9z"/>
	<path d="M243.6,163c0.2-0.3,0.5-0.5,0.7-0.8l0.1,0.1C244.2,162.5,243.9,162.8,243.6,163L243.6,163z"/>
	<path d="M342.9,350.9c-0.3,0.8-0.6,1.1-0.5,1.4c0.7,2.4,0,5,1.3,7.6C344.4,355.3,344.2,353.4,342.9,350.9z"/>
	<path d="M348,331.2c0.9,1.4,1.5,2.3,2,3c1-0.1,1.2-0.5,0.8-1.2C350.4,332.2,349.8,331.6,348,331.2z"/>
	<path d="M343.3,314.7c-0.3-1.3-0.6-2.6-2.2-2.9c-0.1,0-0.2,0.1-0.2,0.2C340.7,313.9,342.3,314.1,343.3,314.7L343.3,314.7z"/>
	<path d="M341.6,346.3c0.6-1.2,0-2.2-0.5-3.3C339.8,344.5,341.6,345.2,341.6,346.3z"/>
	<path d="M343.6,414.8c-0.1-0.9-0.3-1.8-0.4-3.2C342.1,413.1,342.4,414,343.6,414.8z"/>
	<path d="M335.2,325c-0.8-0.4-1.3,0.2-1.8,0.5C334.6,325.8,334.6,325.8,335.2,325z"/>
	<path d="M313.8,341.7c-0.9-0.7-1.5,0.2-2.1,0.6C312.7,342.6,312.7,342.6,313.8,341.7z"/>
	<path d="M343.4,371.5c0.1,0.5,0.1,1,0.2,1.5c0.1,0,0.2,0,0.3,0c0-0.5,0-1,0-1.6C343.8,371.5,343.6,371.5,343.4,371.5z"/>
	<path d="M322.2,329c0,0-0.1,0.1-0.1,0.1c0.1,0,0.2-0.1,0.3-0.1C322.4,329,322.3,329,322.2,329z"/>
	<path d="M317.4,340.6c0.2,0,0.4-0.1,0.6-0.1c0.1,0,0.2-0.2,0.2-0.2c0-0.1-0.2-0.2-0.2-0.2C317.8,340.3,317.6,340.5,317.4,340.6
		L317.4,340.6z"/>
	<path d="M343.5,364.6c0.1,0.1,0.2,0.2,0.3,0.4c0.1-0.2,0.1-0.4,0.1-0.6c0-0.1-0.1-0.2-0.2-0.2C343.6,364.3,343.5,364.5,343.5,364.6
		z"/>
	<path d="M342.3,406.9c-0.1,0.2-0.2,0.4-0.2,0.6c0,0.1,0.1,0.2,0.2,0.2c0.1-0.2,0.2-0.4,0.2-0.6C342.5,407.1,342.4,407,342.3,406.9z
		"/>
	<path d="M343.4,314.7c0.2,0.2,0.5,0.5,0.7,0.7l-0.1,0.1C344.1,314.9,343.8,314.7,343.4,314.7L343.4,314.7z"/>
	<polygon points="344,315.4 344.2,315.5 344,315.4 	"/>
	<path d="M317.5,340.7c-0.1,0-0.2,0-0.3,0.1C317.2,340.7,317.3,340.7,317.5,340.7L317.5,340.7z"/>
	<path d="M367.2,521.3c0.2,2.9,0.5,5.8,0.7,8.7c0.1,1-0.1,2.1-0.2,3.1c-0.4,3-0.4,6,0,9.1c0.1-0.8,0.1-1.7,0.2-2.5
		c0.1-1.9,0.3-3.7,0.4-5.6c0.1-1.3,0.1-2.6,0.1-3.9c-0.1-2.6-0.4-5.1-0.6-7.7C367.7,522.1,367.4,521.7,367.2,521.3L367.2,521.3z"/>
	<path d="M298.5,576.7c-0.5,0.8-0.3,1.6,0.4,2.1c0.9,0.7,1.9,0.8,3,0.6c1.1-0.2,2.3-0.4,3.4-0.7c1-0.3,1.9-0.7,3.4-1.2
		c-1.3-0.1-2.1-0.1-2.9-0.1c-1,0-2.1,0.1-3.1,0.2C301.2,577.8,299.8,577.4,298.5,576.7L298.5,576.7z"/>
	<path d="M331.2,579.1c-3.3-1-6.3-0.3-9.8-0.1C324,579.8,328.5,579.8,331.2,579.1z"/>
	<path d="M367.2,521.3c0-1.1,0-2.3,0-3.4C366.8,519.1,366.5,520.2,367.2,521.3L367.2,521.3z"/>
	<path d="M354.2,577.5c0.1,0.1,0.3,0.4,0.4,0.4c0.4,0.1,1-0.5,0.9-0.8c0-0.1-0.2-0.2-0.3-0.2C354.7,576.7,354.2,577,354.2,577.5z"/>
	<path d="M362.3,577c-0.2,0.2-0.4,0.5-0.6,0.7c0.2,0.1,0.4,0.3,0.5,0.3c0.2-0.1,0.4-0.4,0.6-0.6C362.7,577.3,362.6,577.2,362.3,577z
		"/>
	<path d="M367.9,560c0-0.3-0.1-0.5,0-0.3C367.7,559.4,367.8,559.7,367.9,560L367.9,560z"/>
	<path d="M346.1,462.6c2.8,1.2,4.3,1.2,17.6,0.8c1.6,2.9,3.3,5.8,5,8.8c0.1-0.1,0.2-0.1,0.4-0.2c-1.3-2.8-2.5-5.6-3.9-8.6
		c0.7-0.4,1.2-0.7,1.8-1c0.1-0.6-0.3-0.8-0.8-0.9c-0.7,0-1.4-0.1-2.1,0c-4.4,0.6-8.8,0.6-13.3,0.6
		C349.5,462.2,348.1,462.1,346.1,462.6z"/>
	<path d="M387.7,463c-0.4-0.3-0.4-0.4-0.5-0.4c-0.1-0.1-0.2-0.1-0.3-0.1c-4.9,0.9-9.9,0.3-14.9,0.7c4.2,1.3,8.4,1.5,12.7,1.1
		C385.8,464.2,386.8,464.1,387.7,463z"/>
	<path d="M389.4,463.8c-0.5,0.1-0.9,0-0.9,0.1c-0.2,0.7-0.5,1.3-0.5,2c0.1,3.3,0.3,6.5,0.4,10.2
		C390.1,471.9,389.3,467.9,389.4,463.8z"/>
	<path d="M345.5,470.3c-0.2-2.9-2.5-4.6-2.8-7.4c-1.8-0.2-3.8-0.3-5.9,0.5c1.4,0.1,2.7,0.3,4.2,0.4
		C342.6,465.9,344,468.1,345.5,470.3z"/>
	<path d="M328.6,462.2c-0.7-0.1-1.4-0.1-2-0.4c-1.2-0.5-2.4-0.3-4,0c2.2,1.2,4,1.4,5.9,0.3L328.6,462.2z"/>
	<path d="M396.2,462.6c0.1,0.2,0.2,0.5,0.3,0.6c0.5,0.1,1.1,0.1,1.6,0.1c0-0.2,0-0.6-0.1-0.6c-0.5-0.1-1.1-0.2-1.6-0.3
		C396.5,462.4,396.3,462.5,396.2,462.6z"/>
	<path d="M376.8,466.7c-0.5,0.7,0,1.2,0.6,2C377.5,467.8,377.6,467.1,376.8,466.7z"/>
	<path d="M393,463.3c0,0.1,0.1,0.2,0.1,0.3c0.4,0.5,1.1,0.7,1.4,0.3c0.1-0.1,0.1-0.2,0.1-0.3c-0.1-0.5-0.7-0.7-1.4-0.4
		C393.2,463.2,393.1,463.2,393,463.3z"/>
	<path d="M332.3,463.5c-0.2,0.2-0.4,0.4-0.7,0.6c0.1,0.1,0.3,0.4,0.4,0.4c0.3-0.1,0.5-0.3,0.7-0.5
		C332.6,463.9,332.5,463.8,332.3,463.5z"/>
	<path d="M328.5,462.1c0.4,0,0.9-0.1,1.4-0.1c-0.7-0.7-1-0.1-1.3,0.2L328.5,462.1z"/>
	<path d="M347.6,473.5c0.1,0.2,0.1,0.4,0.2,0.6C347.7,473.9,347.6,473.7,347.6,473.5L347.6,473.5z"/>
	<path d="M346.9,472.1c0.2,0.5,0.5,0.9,0.7,1.4l-0.1,0.1C347.3,473.1,347.1,472.6,346.9,472.1L346.9,472.1z"/>
	<polygon points="346.9,472.2 346.8,471.9 346.9,472.1 	"/>
	<path d="M263.2,295.6c2.5-1.9,4.6-4.1,5.6-7.2c0.1-0.3,0.1-0.7,0.1-1c0-0.1-0.1-0.2-0.2-0.3c-0.7-0.2-1,0.3-1.3,0.8
		c-1,1.9-1.8,4-3.5,5.5C263.4,293.8,263.5,294.9,263.2,295.6L263.2,295.6z"/>
	<path d="M260.9,315.8c0.4-2.4-0.2-3.9-1.5-5.9C259.2,312.7,259.2,312.7,260.9,315.8z"/>
	<path d="M241.4,298.6c0.1-1.4-0.9-1.6-2-2.3c0,0.5-0.1,0.9,0.1,1C240.1,297.8,240.8,298.1,241.4,298.6L241.4,298.6z"/>
	<polygon points="259.5,307.1 259.5,306.8 259.4,306.8 	"/>
	<polygon points="260.1,303.2 260.1,303.5 260.2,303.5 	"/>
	<path d="M260.6,301.2c0.1,0.2,0.1,0.3,0.2,0.5c0.1-0.1,0.2-0.2,0.2-0.2c0-0.2-0.1-0.3-0.2-0.5C260.7,301,260.6,301.1,260.6,301.2z"
		/>
	<path d="M242.9,299.2c-0.5-0.2-1-0.4-1.5-0.6l0.1-0.1C241.8,299.3,242.4,299,242.9,299.2L242.9,299.2z"/>
	<path d="M263.3,295.7c-0.2,0.5-0.4,1-0.6,1.5l-0.1-0.1C262.8,296.6,263,296.1,263.3,295.7L263.3,295.7z"/>
	<polygon points="243,299.1 243,299.3 242.9,299.2 	"/>
	<path d="M242.2,290c0.1,0.1,0.2,0.2,0.2,0.3c0-0.1,0-0.1-0.1-0.2C242.3,290.1,242.2,290.1,242.2,290L242.2,290z"/>
	<path d="M247.3,293.3c0.1,0.1,0.2,0.1,0.2,0.2c0.1-0.1,0.2-0.2,0.2-0.2c0-0.1-0.1-0.1-0.2-0.2C247.4,293.2,247.3,293.3,247.3,293.3
		z"/>
	<path d="M262.7,297.2c-0.1,0-0.2,0-0.3,0.1C262.5,297.2,262.6,297.1,262.7,297.2L262.7,297.2z"/>
	<path d="M242.1,326.7c0.5-0.6,1-1.1,1.5-1.6c-1.1,0.3-1.1,0.3-2.3,1.2c0.3,0.1,0.6,0.2,1,0.3L242.1,326.7z"/>
	<path d="M259.7,385.4c-0.1,0.6-0.2,1.2-0.5,1.7c-0.2,0.4-0.7,0.7-1,0.8c-0.4,0-0.9-0.2-1.2-0.5c-0.3-0.4-0.6-1-0.7-1.6
		c-0.5-3-0.8-6-0.6-9c0-0.7,0.2-1.4,0.4-2.1c0.2-0.7,0.5-1.4,1.3-1.5c0.8-0.1,1.3,0.5,1.5,1.2c0.3,1,0.6,2,0.7,3.1
		c0.2,1.3,0.2,2.5,0.3,4C259.9,382.6,259.9,384,259.7,385.4z M257.7,385.3c0.3-0.2,0.5-0.3,0.5-0.4c0-0.3-0.1-0.6-0.1-0.9
		c-0.1,0-0.2,0-0.3,0C257.8,384.4,257.8,384.7,257.7,385.3z M258.1,376.6c-0.1-0.1-0.2-0.3-0.4-0.4c0,0-0.2,0.1-0.2,0.2
		c0,0.2,0.1,0.3,0.2,0.5C257.8,376.9,258,376.8,258.1,376.6z"/>
	<path d="M259.1,403.2c0.2-0.1,0.4-0.2,0.5-0.4c0-0.1-0.2-0.3-0.3-0.4c-0.1,0.1-0.2,0.2-0.2,0.3
		C259.1,402.9,259.1,403.1,259.1,403.2L259.1,403.2z"/>
	<path d="M671.4,127.8c-0.8-0.2-1.4,0-1.8,0.6c-1.6,2.2-3.7,3.8-5.9,5.4c-1.2,0.8-2.6,1.5-4,2.3c-0.1,0.4,0.2,0.6,0.8,0.6
		c4.2-0.3,7.4-2.6,10-5.7C671.2,130,671.8,129,671.4,127.8L671.4,127.8z"/>
	<path d="M616.3,171.9c-0.1-2.4,0-4.8-0.8-7.1c0-0.1-0.4-0.2-0.7-0.3C613.9,167.3,614.7,169.7,616.3,171.9z"/>
	<path d="M607.8,103.3c-0.3,0.6-0.7,0.9-0.7,1.3c0.1,1.6,0.1,3.2,1.3,4.6C608.9,107.1,608.9,107.1,607.8,103.3z"/>
	<path d="M632.2,115.2c1-1.1,1.7-2.3,2.1-3.9c-0.5,0.1-0.8,0-0.9,0.1C632.6,112.6,631.9,113.7,632.2,115.2L632.2,115.2z"/>
	<path d="M653.5,135.1c1.2,0.3,1.2,0.3,2.2-0.3C654.7,134,654.7,134,653.5,135.1z"/>
	<path d="M625.8,121.9c0.2-0.1,0.5-0.1,0.6-0.3c0.2-0.3,0.4-0.7,0.5-1.1c-0.2-0.1-0.5-0.3-0.6-0.2c-0.3,0.4-0.6,0.9-0.9,1.4
		C625.6,121.7,625.7,121.8,625.8,121.9z"/>
	<path d="M630.2,253.1c-0.1-0.1-0.2-0.2-0.3-0.2c-0.8-0.2-1.5,0.1-1.7,0.6c0,0.1,0,0.2,0.1,0.3c0.4,0.4,1.2,0.2,1.7-0.4
		C630.2,253.3,630.2,253.2,630.2,253.1z"/>
	<path d="M622.8,251.8c-0.8-0.4-1.3-0.7-2.1-1.1C621.3,252,621.3,252,622.8,251.8z"/>
	<path d="M615.2,207.2c0.4-0.2,0.8-0.3,1.2-0.5c0-0.7-0.1-1.2-1-1.4c0,0.7,0,1.3-0.1,2L615.2,207.2z"/>
	<path d="M620.4,242.5c-0.1,0.5-0.3,0.8-0.2,1.1c0.1,0.3,0.4,0.5,0.6,0.7c0.1-0.3,0.3-0.6,0.3-0.8
		C621,243.2,620.7,242.9,620.4,242.5z"/>
	<path d="M671.4,127.7c0.3-0.1,0.7-0.1,1-0.3c0.1-0.1,0.2-0.3,0.3-0.6C671.9,126.9,671.7,127.4,671.4,127.7L671.4,127.7z"/>
	<path d="M619.9,238.8c-0.1,0-0.2,0-0.2,0c0,0.1,0,0.2-0.1,0.3c0.1,0,0.3,0,0.4,0C620,239,620,238.9,619.9,238.8z"/>
	<path d="M609.7,113.1c0.1,0.1,0.2,0.2,0.3,0.2c0-0.2,0.1-0.4,0.1-0.6c0-0.1-0.1-0.1-0.2-0.2C609.9,112.7,609.8,112.9,609.7,113.1z"
		/>
	<polygon points="629.6,117.5 629.6,117.7 629.7,117.7 	"/>
	<polygon points="632.3,115.2 632,115.3 632.2,115.2 	"/>
	<path d="M637.6,108.1c0.1-0.1,0.3-0.1,0.4-0.2c-0.1,0-0.2,0-0.2,0C637.8,108,637.8,108.1,637.6,108.1L637.6,108.1z"/>
	<path d="M629.4,37.8c1,0.5,2,1.1,3,1.6c0.4-0.4,0.8-0.6,1.1-0.9c-0.2-0.3-0.2-0.5-0.4-0.6c-0.6-0.3-1.4,0-1.7-0.8l0.1,0.1
		c-0.6,0-1.4,0.1-1.6-0.8l0.1,0.1c-1-0.6-1.9-1.2-2.9-1.8c-1.3,0.8-2.2,1.7-3.2,2.7c-1,1.1-2,2.3-1.4,4c0,0.1-0.6,0.5-1,0.7l0.1-0.1
		c0.1,0.8,0.1,1.6,0.2,2.5c0.5-0.4,0.9-0.7,1.2-0.9c2.1,1.6,2.1,1.7,2.6,3.7c0.2,1,0.3,2.1,1.3,2.7c1,0.2,1.6-0.4,2-1.1
		c0.3-0.5,0.5-1,0.2-1.6c-1-0.5-1,0.8-1.8,0.8c-0.6-1.6-1.1-3.2-1.7-4.8l0.1,0.1c-0.3-0.3-0.5-0.5-0.8-0.8l0.1,0.1
		c-0.3-0.5-0.5-1-0.8-1.5l0.1,0.1c-0.7-1.4-0.7-1.4,0.6-2.8c0.2-0.2,0.5-0.4,0.7-0.7l0.1-0.2l-0.2,0.1c-0.3,0.2-0.5,0.4-0.8,0.7
		c0.1,0.5,0.1,1,0.2,1.4l-0.1-0.1c0.5-0.2,1-0.4,1.5-0.6c0.2-0.2,0.4-0.5,0.7-0.7c0-0.1,0.1-0.2,0.2-0.2c0,0,0.1,0,0.2,0
		c-0.1,0-0.3,0.1-0.4,0.1c0.2,0.6-0.1,0.8-0.7,0.7c1,0.9,1.9,0.1,2.9,0l-0.1,0.1C629.3,38.8,629.4,38.3,629.4,37.8
		c-0.4,0-0.7-0.3-0.6-0.8c-0.5,0-0.7-0.2-0.8-0.7c-0.3,0-0.5-0.1-0.8-0.1c0.1,0,0.2-0.2,0.2-0.1c0.2,0.1,0.3,0.3,0.5,0.4
		c0.3,0.2,0.5,0.5,0.8,0.7C628.9,37.4,629.1,37.6,629.4,37.8z"/>
	<path d="M658.1,34.4c-1.4,0.3-2.8,0.5-4.1,0.8c-0.6,0.2-1.3,0.5-1.5,1.3l-0.1-0.1c0.4,0.2,0.8,0.3,1.2,0.5c-0.3,1.2-1.2,0.9-1.9,1
		l0.1-0.1c0.9,1.1,2,1.8,3.4,2.1c0.4-1.2,1-2.2,1.1-3.2C656.5,35.5,658.2,35.6,658.1,34.4L658.1,34.4z"/>
	<path d="M621.6,28c0.4,1,1.4,1.1,2.2,1.3c2.4,0.6,4.9,1,7.4,1.6c1.2,0.3,2.3,0.2,3.3-0.3c1.1-0.6,2.5-0.6,3.1-1.9l0.1,0.1
		c-0.5-0.1-1.1-0.3-1.8-0.5c-0.5,0.3-1.1,0.7-1.7,1.2l0.1-0.1c-1.1,0.9-1.1,0.9-2.2,0l0.1,0.1C628.5,29.5,625,28.8,621.6,28
		L621.6,28z"/>
	<path d="M625.7,43.4c0.7,0.5,1.4,1.1,2.2,1.7c1.4-0.7,1.4-0.7,1.5-2.5c0-0.6,0.5-1.2,0.7-1.8c0.3-0.8,0-1.3-0.9-1.5l0.1-0.1
		c-0.2,0.5-0.2,1.1-0.5,1.6c-0.4,0.7-1,1.4-1.6,2.1c-1.4-0.4-1.6-1.8-2.2-2.9l0.1,0.1c-0.7,0.3-0.7,0.9-0.7,1.4l-0.1-0.1
		c0.3,0.5,0.5,1,0.8,1.5l-0.1-0.1c0.3,0.3,0.5,0.5,0.8,0.8L625.7,43.4z"/>
	<path d="M613.2,37.1c-0.2,0.8,0.4,1.3,0.8,1.8c1.8,2.3,3.7,4.7,5.6,7c0.3,0.4,0.9,0.7,1.3,1.1l-0.1,0.1c0-0.1,0.1-0.3,0.1-0.3
		c-1.2-2.7-3-5-4.9-7.2C615.2,38.7,614.1,38,613.2,37.1L613.2,37.1z"/>
	<path d="M636.3,26.6c0.8-0.4,1.7-0.6,2.5-1.1c0.8-0.5,0.6-1.2,0-2c-0.7,0.3-1.3,0.7-2.1,0.8c-0.8,0.1-1.6-0.1-2.4-0.2
		c-0.8-0.1-1.5-0.2-2.7-0.4C633.3,25.2,635.4,25.1,636.3,26.6L636.3,26.6z"/>
	<path d="M633.5,56.8c-0.3-0.9-0.5-1.8-0.9-2.6c-0.8-1.6-1.4-3.2-1.4-5.1c-1,0.4-1.2,1.1-1.2,1.8C630.2,53.6,631.1,55.7,633.5,56.8
		L633.5,56.8z"/>
	<path d="M604,32.3c-2.4,3.6-3.8,7.6-3.9,11.1c0.5-0.8,0.9-1.3,1.1-1.9c0.9-2.6,1.8-5.2,2.6-7.9C603.9,33.1,603.9,32.7,604,32.3
		L604,32.3z"/>
	<path d="M617.9,16.7c3.3-1,6.6-2,10-3C624.3,13.9,620.8,14.4,617.9,16.7z"/>
	<path d="M602.6,26.6c1.5-0.8,3-1.6,4.5-2.3c0.6-0.3,1.3-0.4,1.9-0.6l-0.1,0.1c-0.4-0.4-0.7-0.9-1.2-1.4c-1.7,0.8-3.2,1.5-4.5,2.7
		C602.9,25.6,602.4,26,602.6,26.6C602.6,26.7,602.6,26.6,602.6,26.6z"/>
	<path d="M635.6,58.9c-0.4-1-1.1-1.7-2.1-2.1l0.1-0.1c-0.2,0.4-0.5,0.9-0.5,1.2c0.3,1.9,0.4,3.9,1.4,5.7c1.1-1.5-0.6-2.9,0-4.5
		C634.8,59.1,635.3,59,635.6,58.9L635.6,58.9z"/>
	<path d="M646,15.3c0.7,0.3,1.5,0.5,2.2,0.8l-0.1,0.1c0.3-0.3,0.6-0.5,0.8,0l-0.1-0.1c0.7,0.3,1.4,0.7,2.2,0.9
		c0.6,0.2,1.3,0.4,1.9-0.3c0-0.1,0-0.3,0-0.3c-1.9-1.6-4-2-6.4-1.5c-0.2,0-0.3,0.3-0.5,0.5L646,15.3z"/>
	<path d="M652,30.6c1.3,0.8,2.5,0.3,3.6,0.3c1.2,0,2.3,0,4.1,0c-0.9-0.6-1.2-1-1.6-1.2C656,29.1,654.1,29.7,652,30.6z"/>
	<path d="M635.7,18.2c-0.3,0.3-0.5,0.7-0.8,1c1.1,1.3,2.9,1,4.3,1.7l-0.1,0.1c0.2-0.4,0.5-0.7,0.8-1.3
		C638.6,19.1,637.1,18.6,635.7,18.2L635.7,18.2z"/>
	<path d="M638.5,16c2.2,1.5,4,2.3,6.7,2.8C642.7,17,641.5,16.5,638.5,16L638.5,16z"/>
	<path d="M631.4,37.1c1.7-0.4,3.5-0.3,4.6-2.1c-0.9,0-4.9,1-6,1.5l-0.1-0.1c0.7,0,1.2,0.1,1.6,0.8L631.4,37.1z"/>
	<path d="M635.1,31.5c-1.5,0.8-2.9,1.6-4.8,2.7c0.8,0,1.3,0.2,1.7,0.1C633.4,33.9,634.6,33.2,635.1,31.5z"/>
	<path d="M618.9,46.9c0.7,2.4,0.7,2.4,2.3,4c0-0.2,0.2-0.5,0.1-0.6C620.4,49.2,619.6,48.1,618.9,46.9L618.9,46.9z"/>
	<path d="M614.7,19.5c0.6,0,1.2-0.1,1.8-0.1c0-0.1,0-0.1,0-0.2c-0.6,0-1.3,0-1.9,0C614.7,19.3,614.7,19.4,614.7,19.5z"/>
	<path d="M646.9,16.8c-0.3-0.5-0.5-1-0.8-1.5l0.1,0.1c-0.3,0.1-0.6,0.2-1.2,0.4C645.6,16.3,646,16.9,646.9,16.8L646.9,16.8z"/>
	<path d="M614.6,43.4c-0.2,1.1,0.4,1.7,1.3,2.2l-0.1,0.1C616,44.6,615.3,44,614.6,43.4L614.6,43.4z"/>
	<path d="M613.1,37.2c-0.3-0.6-0.5-1.2-0.9-2C612,36.4,612,36.4,613.1,37.2L613.1,37.2z"/>
	<path d="M620.1,37.2c-0.4-0.8-1-1.4-2-1.5l-0.1,0.1C618.4,36.8,619.2,37.1,620.1,37.2L620.1,37.2z"/>
	<path d="M652.5,36.5c-0.7,0.3-1.4,0.6-2.5,1.1c0.9,0.1,1.3,0.2,1.8,0.3l-0.1,0.1C651.9,37.4,652.2,36.9,652.5,36.5L652.5,36.5z"/>
	<path d="M621.5,42.1c-0.1-0.9-0.4-1.8-1.5-2l0.1-0.1C620.4,40.9,620.6,41.8,621.5,42.1L621.5,42.1z"/>
	<path d="M620.2,37.1c0.2,0.7,0.7,1,2.1,1.1C621.2,37.7,620.6,37.5,620.2,37.1L620.2,37.1z"/>
	<path d="M627.1,11.1c0.5,0,1.1-0.1,1.8-0.1C628.1,10.4,627.6,10.5,627.1,11.1L627.1,11.1z"/>
	<path d="M601.1,68.2c0-0.5-0.1-1-0.1-1.5c-0.1,0-0.2,0.1-0.3,0.1C600.9,67.2,601,67.7,601.1,68.2L601.1,68.2z"/>
	<path d="M632.2,26.2c-0.3,0-0.6,0-0.9,0c0,0.1,0,0.2,0.1,0.2c0.3,0,0.5,0,0.8,0C632.2,26.3,632.2,26.3,632.2,26.2z"/>
	<path d="M618.8,47c-0.6-0.6-1.4-0.7-2.2-0.7l0.1-0.1c0.1,0.5,0.5,0.7,0.9,0.6C618,46.9,618.5,46.9,618.8,47L618.8,47z"/>
	<path d="M603.9,37.2c-0.2,0.4-0.3,0.9-0.5,1.3c0.1,0,0.2,0.1,0.4,0.1C603.8,38.1,603.8,37.6,603.9,37.2L603.9,37.2z"/>
	<path d="M638.4,16.1c-0.5-0.9-1.4-0.5-2.1-0.7l0.1-0.1C637,16,637.7,16.1,638.4,16.1L638.4,16.1z"/>
	<path d="M648.3,16.1c0,0.7,0.1,1.3,1.1,1.2c-0.2-0.4-0.3-0.8-0.5-1.2l0.1,0.1C648.8,16.1,648.5,16.1,648.3,16.1L648.3,16.1z"/>
	<path d="M634.2,29.5c-0.9-1-1-1-2.1,0l-0.1-0.1C632.8,29.4,633.5,29.4,634.2,29.5L634.2,29.5z"/>
	<path d="M621.6,28c-0.2-0.7-0.8-0.6-1.4-0.7l0.1-0.1C620.4,28.2,621,28,621.6,28L621.6,28z"/>
	<path d="M621.5,31.5c-0.4-0.6-0.9-0.7-1.5-0.6l0.1-0.1C620.4,31.5,621,31.4,621.5,31.5L621.5,31.5z"/>
	<path d="M599.1,32.2c0.1-0.2,0.2-0.4,0.2-0.3C599.3,31.8,599.2,32,599.1,32.2L599.1,32.2z"/>
	<path d="M613.2,41.3c-0.1,0.6,0,1.1,0.6,1.5l-0.1,0.1C613.8,42.3,613.7,41.8,613.2,41.3L613.2,41.3z"/>
	<path d="M620,40.1c0-0.3-0.1-0.6,0-0.3C619.9,39.6,620,39.8,620,40.1L620,40.1z"/>
	<path d="M636.3,15.4c-0.2-0.1-0.3-0.3-0.5-0.4c0.1,0.1,0.2,0.1,0.3,0.2C636.2,15.3,636.3,15.3,636.3,15.4L636.3,15.4z"/>
	<path d="M639.2,21.7c0.3-0.1,0.5-0.2,1-0.4c-0.5-0.1-0.8-0.2-1.1-0.2l0.1-0.1C639.2,21.2,639.2,21.5,639.2,21.7L639.2,21.7z"/>
	<path d="M639.2,21.8c-0.2,0-0.5,0-0.7,0c-0.1,0-0.2,0.2-0.2,0.4c0.1,0,0.3,0,0.3,0C638.8,22.1,639,21.9,639.2,21.8L639.2,21.8z"/>
	<polygon points="630.6,10.1 630.5,10.2 630.8,10.1 	"/>
	<path d="M636.4,26.7c-0.6-0.1-1.2,0-1.5,0.6l-0.1-0.1C635.5,27.4,636,27.3,636.4,26.7L636.4,26.7z"/>
	<path d="M620.2,27.3c-0.2-0.1-0.4-0.2-0.6-0.3C619.8,27.1,620.1,27.2,620.2,27.3L620.2,27.3z"/>
	<path d="M614.6,43.5c-0.1-0.4-0.3-0.7-0.8-0.6l0.1-0.1C613.9,43.2,614.1,43.5,614.6,43.5L614.6,43.5z"/>
	<path d="M613.1,41.4c-0.1-0.1-0.2-0.2-0.4-0.3c0,0.1,0.1,0.2,0.1,0.2C613,41.3,613.1,41.3,613.1,41.4L613.1,41.4z"/>
	<path d="M615.9,45.6c0,0.5,0.2,0.7,0.7,0.7l-0.1,0.1C616.6,45.8,616.4,45.6,615.9,45.6L615.9,45.6z"/>
	<path d="M620.8,47c0.1,0.1,0.3,0.3,0.4,0.4C621.5,46.8,621.1,47,620.8,47L620.8,47z"/>
	<polygon points="635.7,58.8 635.7,59.1 635.6,58.9 	"/>
	<polygon points="600.5,29.4 600.6,29.3 600.6,29.5 	"/>
	<path d="M637.6,28.7c0.2-0.2,0.5-0.5,0.7-0.7l0.1,0.1C638.2,28.3,638,28.6,637.6,28.7L637.6,28.7z"/>
	<path d="M601.9,27.4c-0.1,0.1-0.2,0.2-0.4,0.3c0.1,0,0.2,0,0.2-0.1C601.8,27.5,601.8,27.4,601.9,27.4L601.9,27.4z"/>
	<polygon points="634.9,27.3 634.8,27.4 634.9,27.2 	"/>
	<path d="M639.2,27.4c-0.2,0.2-0.5,0.4-0.7,0.7l-0.1-0.1C638.6,27.8,638.8,27.6,639.2,27.4L639.2,27.4z"/>
	<path d="M601.8,27.3c0.5,0,0.7-0.2,0.7-0.7c0,0,0.1,0.1,0.1,0.1C602.1,26.6,601.9,26.9,601.8,27.3
		C601.9,27.4,601.8,27.3,601.8,27.3z"/>
	<polygon points="639.1,27.4 639.2,27.2 639.2,27.4 	"/>
	<polygon points="635.6,18.3 635.5,18.1 635.7,18.2 	"/>
	<path d="M646.9,16.7c0,0.1,0,0.2,0,0.3C646.9,16.9,646.9,16.8,646.9,16.7L646.9,16.7z"/>
	<polygon points="611.8,39.1 611.8,39.4 611.7,39.2 	"/>
	<polygon points="603.9,37.1 604.1,37.1 603.9,37.2 	"/>
	<path d="M658,34.3c0.1-0.1,0.3-0.1,0.4-0.2c-0.1,0-0.2,0-0.2,0C658.2,34.2,658.1,34.3,658,34.3L658,34.3z"/>
	<polygon points="599.2,32.3 599,32.4 599.1,32.2 	"/>
	<path d="M603.9,32.2c0.1,0,0.2-0.1,0.3-0.1C604.1,32.2,604.1,32.2,603.9,32.2L603.9,32.2z"/>
	<polygon points="621.6,31.4 621.7,31.6 621.5,31.5 	"/>
	<polygon points="600.6,29.5 600.4,29.6 600.5,29.4 	"/>
	<path d="M578,403.5c-1.8,1.3-2.3,3-2.7,4.9c0.3,0.2,0.6,0.4,0.9,0.5c0.2,0.1,0.4-0.1,0.8-0.2C576.9,407,578.2,405.6,578,403.5z"/>
	<path d="M592.8,360.4c1.8-0.9,3-2.4,4.1-3.8c-0.4-1-1-0.8-1.5-0.5C594,357.1,593.2,358.6,592.8,360.4L592.8,360.4z"/>
	<path d="M597,324.5c0.2-0.1,0.5-0.1,0.6-0.2c1-1.5,1.7-3.2,1.8-5c0-0.1-0.2-0.1-0.2-0.2c-0.2,0.1-0.5,0.2-0.5,0.3
		C598.1,321.1,597.6,322.8,597,324.5L597,324.5z"/>
	<path d="M600.6,309.7c-0.4,1.5-0.3,3,0,4.5c1.4-1.7,1.4-1.7,0.9-4.3c-0.3,0-0.7-0.1-1-0.1L600.6,309.7z"/>
	<path d="M578.9,401.5c0.4-0.3,0.7-0.5,0.8-0.7c0.1-0.3,0.1-0.6,0.2-1C579,400,578.7,400.5,578.9,401.5z"/>
	<path d="M585.7,364.5c-0.2-0.2-0.3-0.3-0.5-0.4c-0.2,0.2-0.4,0.5-0.6,0.7c0.1,0.1,0.2,0.2,0.3,0.2
		C585.2,364.9,585.4,364.7,585.7,364.5z"/>
	<path d="M595.5,353.9c1-0.1,0.6-0.8,0.7-1.4l0.1,0.1C596,353.1,595.8,353.5,595.5,353.9L595.5,353.9z"/>
	<polygon points="597.1,324.6 596.8,324.7 597,324.5 	"/>
	<path d="M596.1,352.5c0.1-0.1,0.3-0.1,0.4-0.2c-0.1,0-0.1,0-0.2,0C596.3,352.4,596.3,352.5,596.1,352.5L596.1,352.5z"/>
	<path d="M595.6,354c-0.1,0.1-0.2,0.2-0.3,0.4c0.1,0,0.2-0.1,0.2-0.1C595.5,354.1,595.5,354,595.6,354L595.6,354z"/>
	<polygon points="592.9,360.4 592.7,360.4 592.8,360.4 	"/>
	<path d="M634.9,467.1c-0.5-1.5-0.9-3.1-1.5-4.7c0.5-0.3,1-0.7,1.6-1.2c-0.3-0.2-0.5-0.5-0.7-0.5c-2.9,0.1-5.8,0.3-8.7,0.4
		c-2.2,0.1-4.4,0.1-6.6,0.1c-1.5,0-3-0.1-4.7,0.6c0.9,0.7,1.8,0.6,2.7,0.7c1,0.1,2.1,0.2,3.1,0.2c0.9,0,1.9,0.1,2.8,0
		s1.9-0.1,2.8-0.2c1,0,2.1-0.1,3.1-0.1c0.9,0,1.8,0,2.8,0c0.8,1.3,1.5,2.6,2.3,3.9C634.2,466.6,634.6,466.8,634.9,467.1L634.9,467.1
		z"/>
	<path d="M640,461.7c2.3,1.6,5,1.3,7.6,1.7c2.4,0.4,4.9-0.2,7.2-0.7c0.3-0.1,0.5-0.4,0.8-0.6c-1.5-0.6-1.5-0.6-3.9-0.3
		c-1.3,0.2-2.5,0.2-3.8,0.3c-1.4,0-2.8,0-4.2,0C642.6,462,641.3,461.8,640,461.7z"/>
	<path d="M613.7,469.2c-0.1-2-1.3-3.4-2.3-5c-0.6-0.9-0.5-1.6-0.3-2.6c-2,0-3.9,0-5.9,0c0,0.8,0.5,0.9,1,0.9
		c0.9,0.1,1.8,0.1,2.7,0.2C610.6,465,612.2,467.1,613.7,469.2L613.7,469.2z"/>
	<path d="M656.8,474.9c0.8-4.1,0.8-8.2,0.4-13c-0.6,1.1-1.1,1.5-1.1,2c-0.1,1.5-0.1,3,0,4.5C656.3,470.5,656.6,472.7,656.8,474.9z"
		/>
	<path d="M595.8,461.1c-1.8-0.6-3.5-0.9-5.4,0.1C592.3,461.4,594,462.4,595.8,461.1z"/>
	<path d="M600.1,463.8c0.3-0.3,0.5-0.5,0.8-0.7c-0.3-0.2-0.5-0.4-0.8-0.5c-0.1,0-0.5,0.3-0.5,0.4
		C599.7,463.2,599.9,463.4,600.1,463.8z"/>
	<path d="M666.5,461.6c-0.9-0.1-1.6-0.1-2.2-0.2C664.9,462.3,665.6,462.5,666.5,461.6z"/>
	<path d="M645.3,467.2c0-0.5,0-1,0-1.5c-0.1,0-0.2,0-0.3,0c0,0.5-0.1,1.1-0.1,1.6C645,467.2,645.1,467.2,645.3,467.2z"/>
	<path d="M597.7,460.3c-0.1,0.1-0.2,0.3-0.4,0.4c0.2,0.1,0.4,0.2,0.5,0.3c0,0,0.2-0.2,0.2-0.2C598,460.6,597.9,460.5,597.7,460.3z"
		/>
	<path d="M663,462.3c-0.7,0-1.3,0-2.1,0C661.7,463,662.2,463.2,663,462.3z"/>
	<path d="M635.6,468.5c0-0.6,0-1.2-0.7-1.4l0.1-0.1C634.9,467.7,634.9,468.3,635.6,468.5L635.6,468.5z"/>
	<path d="M636.3,469.9c0,0.2,0,0.4,0,0.6c0,0.1,0.2,0.2,0.3,0.3c0-0.2,0.1-0.4,0-0.6C636.7,470.2,636.4,470.1,636.3,469.9
		L636.3,469.9z"/>
	<path d="M636.3,470c0-0.6,0.1-1.2-0.7-1.5l0.1-0.1C635.6,469.1,635.6,469.7,636.3,470L636.3,470z"/>
	<polygon points="613.8,469.2 614,469.4 613.7,469.2 	"/>
	<path d="M658,160.7c2.8-1.5,4.4-4,5.4-6.9c0.1-0.4,0-0.8,0-1.3c-1.2,0.1-1.5,0.9-1.9,1.7c-0.8,1.7-1.5,3.4-3,4.6
		C658.2,159.2,658.3,160.1,658,160.7L658,160.7z"/>
	<path d="M653.5,176.7c0.4,1.4,0.9,2.7,1.3,4.1c1.1-0.3,0.9-0.9,0.8-1.4c-0.3-1.1-0.3-2.5-1.5-3.1
		C653.9,176.4,653.7,176.5,653.5,176.7z"/>
	<path d="M636.2,164.4c-0.1-1.4-1-1.9-2.3-2.3C634.6,163.5,634.6,163.6,636.2,164.4L636.2,164.4z"/>
	<path d="M655.5,166.6c-1.1,0.6-0.6,1.3-0.6,1.9C655.1,168,655.3,167.4,655.5,166.6z"/>
	<path d="M641.7,159.1c0.2,0.1,0.4,0.2,0.6,0.2c0,0,0.1-0.1,0.2-0.2c-0.2-0.1-0.4-0.2-0.5-0.2C641.8,158.9,641.7,159,641.7,159.1z"
		/>
	<path d="M658.1,160.8c-0.2,0.5-0.4,1-0.6,1.5l-0.1-0.1C657.6,161.7,657.8,161.2,658.1,160.8L658.1,160.8z"/>
	<path d="M636.3,164.3c0.3,0.7,0.9,0.5,1.5,0.6l0,0.1C637.2,164.8,636.7,164.6,636.3,164.3L636.3,164.3z"/>
	<path d="M637.1,155.8c0,0.1,0,0.1,0.1,0.2C637.1,156,637,155.9,637.1,155.8L637.1,155.8z"/>
	<polygon points="637.7,164.9 637.8,165.1 637.7,165 	"/>
	<path d="M657.5,162.3c-0.1,0-0.2,0.1-0.3,0.1C657.3,162.3,657.3,162.2,657.5,162.3L657.5,162.3z"/>
	<path d="M633,208.3c0,0.4,0,0.8-0.1,1.2c0.1,0,0.2,0,0.3,0c0-0.4,0-0.8,0.1-1.2C633.3,208.3,633.2,208.3,633,208.3z"/>
	<path d="M605.4,215c-0.2,0.2-0.4,0.4-0.5,0.6c0,0,0.1,0.1,0.2,0.2c0.1-0.1,0.2-0.1,0.2-0.2C605.4,215.3,605.4,215.1,605.4,215
		L605.4,215z"/>
	<path d="M607.2,211c-0.1,0.2-0.2,0.4-0.2,0.6c0,0.1,0.2,0.1,0.2,0.2c0.1-0.2,0.2-0.4,0.2-0.6C607.4,211.2,607.2,211.1,607.2,211z"
		/>
	<path d="M605.4,214.9c0.1-0.1,0.2-0.2,0.3-0.3c-0.1,0-0.2,0-0.2,0.1C605.4,214.7,605.5,214.9,605.4,214.9L605.4,214.9z"/>
	<path d="M650.1,250c0-0.5,0-0.9,0-1.4c0.1-1.4,0.1-2.8,0.3-4.2c0.1-1,0.9-1.8,1.5-1.7c0.8,0.1,1.2,0.7,1.4,1.4
		c0.2,0.4,0.3,0.9,0.4,1.3c0.5,3.4,0.7,6.7,0.2,10.1c-0.2,1.3-0.8,2.1-1.5,2c-1-0.1-1.4-0.9-1.5-1.7c-0.4-1.9-0.6-3.9-0.9-5.9
		C650,250,650,250,650.1,250z M651.9,246.7c0.1,0,0.2,0,0.3,0c0-0.4,0-0.7,0-1.1c-0.1,0-0.2,0-0.3,0
		C651.9,246,651.9,246.3,651.9,246.7z M652,253.9c0.1,0.3,0.1,0.5,0.2,0.8c0.1-0.1,0.2-0.2,0.2-0.3c0-0.2-0.1-0.4-0.1-0.6
		C652.2,253.9,652.1,253.9,652,253.9z"/>
</g>
</svg>
