<?xml version="1.0" encoding="utf-8"?>
<!-- Generator: Adobe Illustrator 19.1.0, SVG Export Plug-In . SVG Version: 6.00 Build 0)  -->
<svg version="1.2" baseProfile="tiny" id="Layer_2" xmlns="http://www.w3.org/2000/svg" xmlns:xlink="http://www.w3.org/1999/xlink"
	 x="0px" y="0px" width="900px" height="600px" viewBox="144 97 900 600" xml:space="preserve">
<g>
	<path d="M398.8,173.2c0-1.1,0-2.2-0.1-3.4c-0.1-0.9-0.3-1.7-0.3-1.9c-0.3-1.6,0.9-1.2,1-2.5c-0.8-4.4-3.1-9.1-2.2-14.4
		c0.8,3.7,1.4,7.5,2.4,11.1c1,3.7,1.2,7.8,3.4,11.1c-0.6-7.7-3.2-15-3.5-23c-2.8-3.1-4-6.8-1.5-11l-0.1,0.1c1.4-0.9,2.8-1.4,4.5-1.6
		c2.5-0.2,4.9-0.8,7-2.2c0.4-0.3,0.8-1.1,1.5-0.1c-1.9,2.8-5.1,2.7-8,3.4c2.3,0.7,4.6,0,6.9-0.3c-0.4,2.2-2.5,1.1-3.3,2.4
		c1,0.9,2,1.8,3.3,3c-2.1,0.4-3.8-0.9-5.4,0.1c0.4,2,0.4,4,2.2,5.6c0.7,0.6,0.5,1.8-0.6,2.6c-1.4-1.2-1.3-3.4-2.8-3.9
		c-0.3-1.2,0.6-1.9,0.3-2.8c-1.2-0.6-1.5,1.8-2.6,0.8c-0.7-1.2,1.6-2.1,0.3-3.3c-1.3,0.5-0.9,2.6-2.6,2.4c0.2-1.6,1.2-3.1,0.7-4.8
		c1,0.2,2,0.5,3.4,0.8c-1.2-1.5-2.1-2.5-3.3-0.7c-0.9,1.4-2.1,2.8-0.7,4.6c0.9,4.9,4.2,7.6,8.3,9.6c0.8,0.9,1.5-1.2,2.2-0.1
		c0,0.4,0,0.6,0,0.9l0.1-0.1c-1,0.4-2,0.7-2.9,1.1c1.4,4.9,1.2,9.8,1,14.6c-0.1,5-2.1,9.4-4.5,13.6c1,1.2,1.3,2.4,1.7,3.6
		c1.8,5.4,3.1,10.9,3.4,16.6c0.3,6.2,2.6,12.2,2.9,18.4c0,0.2,0.2,0.4,0.6,1.2c7.8,4.1,16.1,8.2,25.7,9.5c0-1.8-1-3.2-0.1-4.8
		c1.6,1.2,1.3,3.3,2.4,4.8c3.8,0.2,7.6-0.3,11.3-1.4c2.7-0.8,4-2.5,4.2-5.4c0.2-4.5-0.7-8.6-2.6-12.7c-3-6.3-6.3-12.4-8.5-19.1
		c-0.2-0.7-0.5-1.4-1.2-1.9c-4-2.6-4.6-7.2-6.4-11.1c-0.5-1.1-0.6-2.5-0.6-3.7c0.1-2,0.2-4.1,1.7-6.2c0.9,1.7,1.7,2.7,1.2,4.2
		c-0.3,0.8-0.2,1.7,0,2.6c0.9,3.4,1.7,6.7,2.6,10c3.1,2.5,6,4.8,8.9,7.1c0.9,0.3,1.6-0.9,2.5-0.3c2.3,1.6,5.1,2,7.6,3
		c10.3,4,16.9,11.3,19.3,22.1c1.7,7.4,2.6,15,2.2,22.7c-0.1,2-0.2,4,0.2,5.9c1,6.2,1.5,12.3,1.4,18.6c-0.1,4.5,0.6,8.9,1.6,12.8
		c4.4,5.2,7.3,10.7,8.8,16.8c1.7,6.6,2.4,13.3,2.8,20c0.4,6.1,0.6,12.2,1.5,18.3c1.4,10.1,2.4,20.3,3.4,30.5
		c0.2,2.5-0.6,4.9,0.1,7.4c1.1,0.5,2.2,1,3.2,1.4c1.2,0.5,2.2,1.2,3.1,2.1c8.4,7.1,11.8,16.3,10.5,27c-0.8,6.7-4,12.4-10,15.9
		c-3.8,2.3-8.1,3.6-12.7,4.4c-3.6,5.2-9.5,7-14.8,8.7c0,11.9,0,23.3,0,34.6c0,3.1-0.3,6.2-0.8,9.3c-0.8,5.3-1.7,10.6-1.7,16
		c0,6.6,0.4,13.2,0,19.8c-0.4,6.3,0.1,12.4,1.5,18.5c1.8,8,3.6,16.1,3.7,24.4c0.1,8.4-0.1,16.7-0.5,25.1c-0.7,13.3-1.4,26.7-0.9,40
		c0.1,2.2-0.3,4.5,0.9,6.4c1.9,0.9,3.9-0.1,5.6,1.1c0.7,0.6,1.2,1.4,1,2.3c-0.6,3.8,1.5,6.7,3.6,9.5c1,1.3,2,2.6,2.7,4
		c3.4,6.9,8.4,12.3,14.4,16.9c2,1.6,3.4,3.5,4.4,5.9c1.3,3.1,0.3,6.5,1.7,9.2c-2,3.1-4.7,4.1-7.8,4.6c-3,0.4-5.9,0.8-8.9,0.9
		c-3.5,0.1-7.3,0.7-10.4-0.6c-3.8-1.6-7.9-2.2-11.7-3.7c-2.5-1-4.5-2.1-4.3-5.1c-3.6-1.2-7.2-1.7-10.7-2.4c-3.6-0.7-7.1-1.6-9.4-4.9
		c1-5.2,1.5-10.6,4.2-15.3c0.5-0.9,0.6-1.9,0.6-2.9c-0.2-3.3,0.9-6.4,1.9-9.5c0.3-0.8,0.8-1.5,0.7-2.5c-0.8-5.8-1.6-11.6-2.3-17.4
		c-0.5-4.2-2.5-8-3.6-12.1c-1.8-6.9-3.3-13.9-6.4-20.3c-1.6-3.4-2.9-6.8-4.1-10.4c-3.7-11.1-3.5-22.1-0.4-33.1
		c1.2-4.2,1.6-8.3,0.2-12.5c-0.3-0.8-0.5-1.7-0.7-2.5c-1-4.6-2.7-9.2-2.8-13.9c-0.1-7.2-1.2-14.4-1.4-21.6c0-1.2-0.2-2.5-0.5-3.7
		c-1.6-7.2-3.6-14.3-6-21.2c-3-8.5-5.8-17-7.9-25.7c-0.6-2.6-1.5-5.2-2.4-8.4c-1.2,2.4-3.3,2.5-4.8,3.3c-2.2,6-4.2,11.9-5.5,18
		c-1.7,8.2-3.8,16.3-5.5,24.5s-4.2,16.2-5,24.5c-0.2,1.6-0.6,3.3-1.3,4.6c-2.8,5-3.9,10.5-5.6,15.8c-1.6,5.1-2.8,10.1-1.3,15.4
		c0.2,0.6,0.1,1.2,0.1,1.9c0.4,15-1.7,29.6-7.7,43.5c-0.5,1.1-0.8,2.4-1.1,3.6c-1.5,6.7-3.1,13.4-4.5,20.1c-0.7,3.2-1.2,6.4-1.7,9.6
		c-0.8,6.4-1,12.9-2.3,19.6c1.5,0.8,1.4,2.4,1.4,3.9c0,3.3,1.1,6.3,2.1,9.4c1.3,4.2,3.9,7.9,4.6,12.2c0.9,5.6,2.8,10.8,5.5,15.8
		c0.9,1.6,1.6,3.4,2.4,5.1c0.8,1.9,1.3,3.8,0.4,5.7c-1.9,1.7-4.1,2.4-6.5,2.6c-4.8,0.4-9.7,0-14.5,0.9c-1,0.2-2,0-3-0.2
		c-4.3-0.7-8.5-1.7-12.9-1.8c-3.4-0.1-5.8-2.1-7-5.4c-0.2-0.7-0.2-1.5-0.8-2c-1.9-0.3-4-0.3-5.5-1.9c-0.6-2.8-1.5-5.6-0.6-8.5
		c1-3.4,1.6-6.8,2-10.3c0.3-2.9,1.3-5.5,2.8-8c1.2-1.9,1.8-4.1,2.2-6.3c0.5-2.1,1-4.1,1.6-6.2c0.7-2.3,2-4.3,4.3-5
		c0.8-2.3,0.7-4.3,0.5-6.5c-0.7-10.5-3.3-20.7-3.7-31.2c-0.2-5.5-1.1-11-0.8-16.4c0.4-5.7,0.7-11.5,0.5-17.2
		c-0.3-6.5,0.2-13,0.9-19.4c0.1-1,0-2.2,0.8-2.8c1.5-1.1,1.8-2.7,2.1-4.3c1.1-5.4,3.1-10.4,4.5-15.7c0.9-3.3,1.7-6.5,1.9-9.9
		c0.2-2.7,0.4-5.5,1-8.2c1.3-6.5,1.7-13.1,1.5-19.7c-0.4-11.7-1.3-23.4-0.1-35.1c0.3-2.5-0.3-4.9-0.9-7.4c-0.9,0.1-1.7,0.1-2.4,0.3
		c-6.7,1.5-9.8-0.1-13.3-6c-0.7-1.2-1.4-2.4-1.9-3.6c-3.9-10.2-5.4-20.7-3.7-31.6c0.4-2.8,1.3-5.6,2.7-8.1c1.1-1.9,2.6-3.6,4.8-3.8
		c4.6-0.5,9.4-1.4,14,1.1c0.5-3.8,0.9-7.4,1.7-10.9c0.3-1.2-0.1-2.5-0.4-3.7c-0.8-2.5-1.5-5-2.4-7.5c-4.7-13.2-8.6-26.6-11.5-40.2
		c-1-4.5-1.6-9.1-0.8-13.7c0.7-4.6,1-9.3-0.1-14c-3.2-13.9-2.7-27.7,0-41.6c0.7-3.8,1.4-7.7,0.8-11.5c-0.8-4.7-1-9.3-0.5-14.1
		c0.8-7.8,3.2-14.8,8.5-20.7c1-1.1,1.9-2.3,2.8-3.5c3.9-5.3,8.4-9.7,14.9-11.8c0.5-0.2,1-0.3,1.3-0.7c2.2-2.5,5.2-3.3,8.1-4.4
		c5.3-2.1,10-5,14.4-8.6c1.2-1,2.3-1.9,2.6-3.7c-1.8-2.3-2-5.4-3.1-8L398.8,173.2z M496.7,421.7c7.9-14.8,0.3-35.8-16.7-40.7
		c-0.3-0.1-0.7,0-1.2,0c0.5,0.3,0.9,0.6,1.3,0.8c15,5.3,23.2,27,14.8,41.3c-0.2,0.3-0.1,0.7-0.2,1.1c-0.3,0.2-0.6,0.4-0.8,0.6
		c-0.2,0.3-0.4,0.6-0.6,1c1-0.2,1.5-0.7,1.3-1.6C495.9,423.8,496.2,422.6,496.7,421.7z M390.8,687.7c0.6-0.8,0.7-1.7,0.1-2.4
		c-3.2-4.1-4.9-8.9-7.4-13.3c-5.6,1.7-11.4,0.8-17.1,0.1c-0.7-0.1-0.7-0.2-2.1-1.9c0.6-1.7,2.1-1.7,3.4-1.5c5,0.7,9.9-0.2,15,0.7
		c-0.3-1.4-0.5-2.5-0.8-4c-2,0.9-3.9,1.1-5.9,1.1c-3.7-0.1-7.5-0.1-11.2,0.2c-2.1,0.2-2.1,0.1-3.6-1.7c0.1-1.6,1.4-2.1,2.6-2.3
		c5.8-1.1,11.6-1.2,17.4,0.7c0.6-0.9,0.2-1.8-0.2-2.5c-6.4,0.4-12.7,0-19-0.1c-0.6,0-1.2-0.5-1.5-1.4c0.2-1.5,1.5-1.8,2.9-2.1
		c5.5-1.1,11-1.3,16.5,0.8c-0.1-1.2-1-1.7-1.3-2c-6-2-11.5,0.2-17.1-0.3c-0.1,0-0.2-0.4-0.3-0.6c2.4-2.8,3.5-3.1,15.5-3.4
		c-1-2.8-2.1-5.6-2.1-8.6c0-1.2-0.8-2.3-2-3.3c-3.6-0.8-6.9,0.6-10.1,2.4c-1.3,3.2-1.8,6.8-3.8,9.6c-5.4,0.4-5.4,0.4-7.6-2.2
		c-3.4,7.4-5.9,15.1-6.5,23.6c1.5,1.7-0.4,4.1,0.3,6.5c1.5,0.8,3.1,1.8,4.7,2.7c0.3,0.7,0.7,1.3,0.9,1.9c1,3,3.2,4.3,6.3,4.4
		c3.1,0.1,6.2,0.2,9.2,0.9c6.7-3.4,13.8-4.5,21.1-4c1.4,0.1,2.9,0.3,2.6,2.3c-5.1-0.2-10.2-0.5-15.2,0.8c-0.8,0.2-1.7,0.4-2.8,1.6
		c5.3-1.5,10.1-0.5,14.9-1c1.1-0.1,2.5,0.1,3.1-1.5C390.1,687.7,390.4,687.7,390.8,687.7z M471.3,225.9c2.2,4.1,4.8,7.8,6.4,12.2
		c0.1,0.2,0.4,0.2,0.8,0.4c0.6-1.2,0.3-2.4,0-3.5c-0.9-4.2-2-8.3-2.5-12.5c-1-7.9-5.6-13.1-12-17.1c-3-1.9-6.3-3.3-9.8-5.2
		c-0.2,3.5,2.7,5.4,3,8.2c-1.6-0.6-1.9-2.2-2.7-3.4c-2.7-4.5-2.7-4.5-8.4-7.8c2.7,5.4,5.2,10.7,7.8,15.8c2,3.9,3.5,8,3.4,12.5
		c0,1.6-0.2,3.2-0.8,4.8c-0.8,2.2-2.2,3.8-4.7,4.3c-8.9,2.1-17.8,2.1-26.5-1.2c-4-1.5-7.9-3.2-11.6-5.2c-3.3-1.8-6.2-4.3-5.9-8.7
		c-2.9-10.3-3.2-21.2-6.3-31.4c-0.1-0.2-0.3-0.3-0.5-0.5c-0.8,0.2-0.8,0.8-0.6,1.4c1.6,5,2.5,10.1,3.4,15.3c0.8,4.5,0.3,9-0.7,13.4
		c-1,4.1-2.2,8.2-3.9,12.1c-0.2,0.5-0.3,1-0.6,1.4c-4,4.9-6.9,10.7-11.6,15.1c-1.4,1.3-2.5,2.8-3.8,4.6c1,3.7-0.6,7.9,0.7,12.1
		c-0.7,0.8-0.7,2-0.9,3.2c-0.3,2.9-0.4,5.8-1.1,8.5c-0.8,3.1-0.5,5.9,0.7,8.8c0.7,1.8,1,3.8,2.1,5.6c6.9-1.4,13.8-2.7,20.6-4.1
		c3.3-0.7,6.7-0.8,10-1c5.4-0.3,10.7-0.7,16-1.3c10.8-1.2,21.1,0.5,31.3,4.1c1.5-0.8,1.2-2.4,1.7-3.6c1.8-3.9,4.4-7.2,7.1-10.5
		c2.6-3.2,5.2-6.4,7.1-10c1-1.9,1.8-3.9,1.7-6.1c-0.2-6.6-1.6-12.9-4.9-18.9c-3.9-7.1-8.8-13.5-12.2-20.9
		C466.4,219.2,469.3,222.1,471.3,225.9z M376.4,424c2.4-2.5,0.6-6.3,2.7-9.2c1.2,1.6,0.7,3.1,0.5,4.5c-0.1,1.4-0.2,2.7-0.4,4.1
		c1.4,0.7,2.7,0.8,4.3,0.5c1.2-2.7,0.8-5.8,1.8-8.7c1.6,2.3,1.5,3.6-0.2,10c-2.2,1.8-4.4,0.7-6.7-0.2c-1.7,1.1-3.5,2.9-5.8,0.9
		c-2.8,12.9-2.8,12.9-6.7,16.8c0,3.9-0.3,7.8,0.1,11.6c0.6,5.9-0.3,11.7-0.1,17.5c0,1.7,0.1,3.5,0.4,5.2c0.5,2.7,0.9,5.4,0.4,8.2
		c-0.2,1.1-0.2,2.3,0,3.4c1.2,10.2-0.8,20-3.5,29.9c-3,11.1-6.1,22.1-8.9,33.3c-0.8,3.2-0.9,6.5-1,9.7c-0.4,10.8-0.6,21.7,0.7,32.5
		c1.4,11,2.8,22,3.6,33.1c0.4,5.8,0.1,11.4-1.1,17c-0.3,1.4-0.3,2.9-0.5,4.8c2-1.1,2.5-2.7,3-4.3c0.7-2,0.4-4.5,2.6-5.6
		c3-1.4,5.9-3.4,9.6-2.4c0.7,0.2,1.5,0.4,2.2,0c0.5-0.5,0.5-1.1,0.6-1.7c0.5-7,1.6-13.8,2-20.8c0.2-3,0.8-6.1,1.9-9.1
		c0.8-2.2,1-4.6,1.5-6.9c1.5-7.1,3.8-14,4.6-21.2c0.2-2,1.6-3.3,2.1-5.1c2.4-9,4.1-18,3.2-27.4c-0.3-3.5-0.9-7-0.6-10.4
		c0.4-4.5,1.3-9.1,2.9-13.4c0.7-1.9,1.3-3.7,1.4-5.8c0.1-1.7,0.7-3.5,1.9-4.8c1.4-1.7,2-3.7,2.5-5.8c1-4.1,2.4-8.1,2.6-12.4
		c0-0.5,0.1-1,0.4-1.4c3.4-6.1,4-13.1,5.6-19.7c2.5-10.5,5.1-21.1,6.8-31.8c0.1-0.5,0.1-1,0.2-1.5c-0.2-0.2-0.3-0.6-0.5-0.6
		c-4.2,0-6.8-2.4-8.9-5.8c-1.8-2.9-2.8-6.1-4.3-9.2c-1.6,0.4-3,1.7-4.7,0.5c0.7-1.7,2.6-1.7,4-3.1c0.5-2.6,1-5.7,1.6-8.8
		c2.1,1.1,0.5,2.9,1.5,4.4c1.4-0.1,2.9-0.3,4.4-0.5c1.2-2.5,0.5-4.5-0.6-6.7c-1.6,0.1-3.2,0.2-4.8,0.4c-1,0.2-0.6,1.7-1.9,1.8
		c-1.2-3.2-2.5-6.4-3.9-10c-4.4-3.4-7.9-8.2-13.1-12.1c-0.1-0.3-0.1-1.2-0.1-2c0-8.3-1.5-16.3-3.4-24.4c-1.3-5.6-2.2-11.2-1.1-17
		c0.7-3.7-0.1-7.4-0.6-11.1c-1-6.9-2.9-13.7-4.7-20.4c-1.3-4.7-0.5-9.1,0.6-13.6c2.2-8.3,4.3-16.6,6-25.1c0.2-0.8,0.2-1.7,0.1-2.6
		c-0.7-4.6-0.1-9.2,1-13.7c1.1-4.3,1.2-8.6,1.9-12.9c0.7-4.3,3-7.6,5.7-10.7c0.5-0.6,0.9-1.5,2.2-1.7c-0.7,4.5-4.2,7.7-5.5,12
		c1.4,0.1,1.7-0.8,2.2-1.4c3.2-4,5.7-8.5,9.4-12.1c0.4-0.4,0.8-1,1-1.5c2.1-5.9,4.7-11.7,4.9-18c0.1-6,0.4-12.2-1.3-18.1
		c-0.3-1.1-0.6-2.1-1-3.4c-4.4,2.5-8.6,5-13,7.2c-2.7,1.4-5.6,2.9-8.5,3.8c-3.6,1.1-6.7,3.2-8.9,5.9c-4.2,5.1-9.4,9.8-10.7,16.3
		c-0.7,1.2-1.6,0.2-1.6,0.1c-5,8-4.4,16.2-4.3,24.3c0.1,7.1-0.4,14.2-1.3,21.2c-0.5,3.9-0.5,7.7-0.4,11.6c0.1,6.1,0.4,12.2,0.5,18.3
		c0,1.6,0,3.2-0.5,4.9c2.8,3.9,3.4,8.7,5.2,13c-1.8-0.9-1.8-3.2-3.5-4.5c-0.9,7.8-0.2,15.2,1.6,22.6c2.4,9.6,5.5,18.9,8.4,28.3
		c1.8,5.9,3.1,12.1,4.6,18.1c0.3,1.3,0.7,2.6,1.1,4c0.8,2.4,1.6,4.8,1.1,7.3c-0.9,5.6,0.9,10.7,2.4,15.7c1.4,4.6,2.4,9,1,13.8
		c-0.1,0.3,0,0.7,0,1.3C373.6,424.2,374.8,425.1,376.4,424z M453.1,420c-9.5,0.4-18.5,4-27.9,5.5c-0.3,1.8-0.2,3.4,0.2,4.9
		c2.1,9.4,4.4,18.7,7.7,27.7c2.9,7.8,5.2,15.8,7.2,23.9c1.6,6.4,1.6,12.8,2.5,19.2c0.9,6.1,0.3,12.2,1.6,18.2
		c1.2,5.3,1.7,10.8,3.9,16.1c-1.8,10.6-2.8,21.5-2.4,32.5c0.1,3.6,1.6,6.8,2.9,10c3.4,8.5,6,17.1,8.6,25.9
		c1.8,6.1,2.8,12.4,4.3,18.6c0.5,1.9,0.9,3.9,1.4,5.8c0.9,3.6,0.9,3.6-1.1,7c0.4,2.1,0.4,2.1-0.2,4.6c0.7,1.5,1.3,3.2,3.6,3.4
		c1.8-2.3,3-5,4.4-7.7c2.2-1.5,5-2.4,6.2-5.5c0.5-1.3,2.4-1.6,4.1-1.9c-0.7-2-0.8-3.9-0.7-5.9c0.3-7-0.5-14-0.5-20.9
		c-0.1-7.5,0.7-14.9,1.1-22.4c0.7-12.7,1.5-25.4-0.9-38.1c-0.6-2.9-1.2-5.9-1.8-8.8c-1.4-6.1-2-12.1-1.5-18.4
		c0.4-4.9,0.4-9.9-0.4-14.9c-0.7-4.5-0.1-8.9,0.2-13.4c0.4-4.8,0.8-9.7,1.3-14.5c0.2-2.1,0-4.3,1.5-6c0.3-0.3,0.2-1,0.2-1.4
		c0.4-9.5-0.5-18.9-1.8-28.6C466.1,434.1,458.4,429,453.1,420z M380.4,354.8c4,2.2,8.4,2.1,13.2,2.5c2.7,1.9,2.7,1.9,6.5,2.2
		c0.5-1.3-1.4-1.9-1-3.5c1.9,0.7,3,2.4,4.7,3.6c8.5,0.6,17.1,2.6,25.9,2.4c7.9-0.2,15.7-1,23.4-2.8c1.9-0.4,3.4-1.4,4.8-2.2
		c3.8,1.2,6.9-0.9,10.4-1.2c-0.9-7.4-1.6-14.5-3.4-21.5c-2.3-9.1-4-18.3-3.9-27.7c0.1-5.9,1.1-11.6,2-17.7c-5-1.7-10.3-2.6-15.6-3.3
		c-7.2-0.9-14.4-0.4-21.6,0.4c-3.1,0.3-6.2,0.5-9.3,0.5c-7.7,0.1-15.1,1.3-22.7,3.2c0.6,2.1,2.7,2.8,3.9,4.7
		c-2.6-0.7-3.9-2.2-5.2-4.2c-2.3-0.1-4.5,0.6-6.5,1.2c-0.7,0.9-0.3,1.5-0.1,2c3.2,7.1,2.7,14.6,2.4,22.1c-2.1,4.4-2.2,9.4-4.8,13.7
		c-1.7,2.7-2.7,5.8-4.3,9.2C379.5,343.7,378.7,349.3,380.4,354.8z M384.2,385.9c1.7,2.7,4.8,5.2,6.6,9c2.3-0.2,3.7,1.4,5.4,3.2
		c0.4-1.6,0.7-2.9,0.9-4.1c0.3-1.9,1-3.6,1.9-5.2c1.1-1.9,2.7-3.2,5.1-3.3c1.2-0.1,2.5-0.2,3.7-0.3c4.8-0.5,8.1,1.6,10.5,5.6
		c3,5.1,4.8,10.7,5.9,16.4c1,5.3,1.6,10.6,1.2,16.3c8.7-3,17.3-4.9,26.1-6.4c-2.8-6.4-2-12.8-0.6-19.1c1.9-8.5,7.1-14.4,15.6-17
		c1.3-0.4,2.6-0.9,4-1.3c-0.8-7.1-1.5-14.1-1.8-20.9c-1.4-0.9-2.3-0.3-3.3-0.1c-6.7,1.9-13.5,3.7-20.4,4.8
		c-11,1.8-22.1,1.7-33.1-0.2c-4.7-0.8-9.4-0.9-14.1-1.6c-5.6-0.9-11.2-1.9-17.1-3C381.9,367.6,383,376.4,384.2,385.9z M470.9,276.8
		c-1.4,1.6-2.4,3.6-3.8,5.3c-1.4,1.7-0.5,4.4-1.9,6.3c0.4,0.8,0.9,1.4,1,2.1c0.6,8.7,4,16.7,5.3,25.2c1.3,8.1,3.6,15.7,6.9,23.2
		c2.1,4.7,3.5,9.6,5.8,14.2c2.8,5.7,3.4,12,4.3,18.1c0.4,2.9-0.6,5.7-1.9,8.3c-0.3,0.7-0.6,1.4-0.8,2c0.6,1.1,1.8,1.4,2.7,2.1
		c5.9,4.4,10.1,9.9,11.4,17.3c0.3,1.7,0.7,3.4,1.5,5.2c2.3-0.7,2.6-2.9,4.1-4.4c-1.6-4.3-3-8.7-4.7-13c-1.4-3.6-1.8-7.2-1.7-11
		c0-4-0.3-7.9-0.7-11.9c-1.4-12.6-3-25.3-4.2-37.9c-0.5-5.4-0.4-10.9-0.8-16.4c-0.7-8.6-2.8-16.7-8.4-23.5c-3.1-3.8-4-8.5-4.4-13.3
		c-0.2-2.6-0.1-5.2-1.1-8C476.4,270.2,473.7,273.5,470.9,276.8z M460.3,426.4c5.6,5.5,12.6,8.2,20.6,6.2c8.2-2.1,13-7.8,15-15.7
		c2.8-11.2-0.2-21-8.5-29c-5.2-5-11.5-7.5-18.8-6.1c-8.6,1.7-15,8.5-16.5,17.2c-0.3,1.9-0.9,3.9-0.5,6.1
		C451,413.6,454.4,420.7,460.3,426.4z M498.6,655.4c-0.2-1.4-1.3-1.2-2.3-1.2c-4.2,0.2-8.5,0.5-12.7,0.7c-1.3,0.1-2.8,0.5-3.4-1.2
		c2.3-2.8,8.1-3.6,15-2.2c0.3-0.1,0.3-0.3,0.1-0.6c-0.3-0.7-0.7-1.3-1.4-1.7c-3.2-0.4-6.4,0.2-9.6,0.5c-3,0.3-6,2-9.4,0.7
		c2.4-3.5,9.7-5.4,17.4-4.8c0.2-1.1-0.6-1.1-1.3-1.3c-3.3-0.7-6.5-0.1-9.6,0.5c-1.8,0.3-3.7,0.7-5.5,1c-0.7,0.1-1.2,0-1.5-0.7
		c2.1-2.8,4.8-3.5,15.3-4c-1.7-2.7-2.9-5.5-3.4-8.7c-2.2-1.2-4.4-0.6-6.8-0.7c-2.2,2.2-4.5,4.5-7.5,5.9c-1.5,0.7-1.8,2.6-2.5,4.1
		c-0.3,0.7-0.6,1.4-0.8,2.1c-1.2,3-2.3,3.6-5.4,2.6c-0.7-0.2-1.4-0.6-2.6-1.1c1.3,5.6-2.8,9.6-3.3,14.5c-0.2,2.1-0.7,4.1-1,6.4
		c5.7,1.7,11.3,2.9,17.2,3.9c-0.7-2.3-3.1-2.3-3.6-4.2c3.7-0.6,5,0.6,6.4,8.2c5.5,1.6,11.1,4,17.5,3.6c0.9,1.2,2.3,2.1,4.2,1.9
		c3.8-0.4,7.7-0.8,11.5-1.3c1.5-0.2,3-0.5,4-2.5c-3-0.7-5.7,0-8.4,0.4c-2.8,0.4-5.6,1-8.2,2.2c2.1-2.8,2.1-2.8,14.7-5.3
		c1-4.1-0.4-7.3-4-9.5c-1.5-0.9-2.8-2-4.4-3.3c-2.6,1-5.4,2.1-8,1.2c-1-1.3,0-1.7,0.2-2.4c-2.6-1.2-5.8,1.7-8.4-1.1
		C489,655.7,489.7,655.7,498.6,655.4z M480,379.2c1.6-1.2,3.5-2.7,5.3-4c0.6-1.7,0.4-3.3,0.1-4.9c-1.5-8.3-4-16.2-7.8-23.7
		c-1.1-2.1-2.8-4.1-2-6.9c0.2-0.6-0.7-1.6-1-2.3c-2.4-5.2-4.3-10.6-5.2-16.3c-0.3-2.1-1-4.1-1.6-6.1c-1.5-5-2.9-10-3.3-15.3
		c-0.8,0-0.9,0.5-0.9,0.9c-0.3,4.2-0.2,8.4-0.1,12.7c0.3,10.5,3.9,20.3,5.3,30.5c1,7,1.9,14.1,2.8,21.1c0.6,4.7,1.2,9.4,1.8,14.4
		C475.7,379.2,477.7,379.2,480,379.2z M348.5,437.6c1,1.6,2.1,3.1,3.6,4.3c2.3,1.7,4.4,1.4,6.2-0.7c2.2-2.6,3-5.8,3.5-8.9
		c1.6-10.6,0.4-20.9-3.6-30.8c-1.2-2.9-2.7-5.6-5-7.8c-2.8-2.6-5.3-2.3-7.5,0.9c-1.8,2.6-2.6,5.7-3,8.8c-0.4,2.7-0.8,5.4-0.7,8.2
		C342.5,420.6,343.7,429.5,348.5,437.6z M415.8,428c2.1-12.2-0.1-23.8-5.3-34.8c-1-2.1-2.4-4.1-4.4-5.5c-2-1.5-3.6-1.2-5.2,0.7
		c-0.2,0.3-0.4,0.6-0.6,0.9c-2.6,4.4-3.1,12.2-1.1,17.4c2.1,0.5,4.1-0.7,6.2-0.4c2.8,2.7,3.2,5,1.4,8.6c-0.8,0.6-1.8,0.7-2.8,0.9
		c-0.9,0.1-1.7,0.2-2.5,0.3c-2.6,6.2,4,18.5,10.4,19.1C414.6,433.3,415.4,430.7,415.8,428z M373.4,309.1c-0.1,2.3,0.5,4.5,1.1,6.6
		c1.5,5.4,3.2,10.7,3.9,16.6c1.1-0.7,1.5-1.6,1.5-2.3c0.2-3.1,2-5.6,3.1-8.3c0.8-2.1,1.7-4.2,2.4-6.3c1.7-4.6,1.8-9.3,0.3-14
		c-1.5-4.6-2.6-9.4-4.3-13.9c-0.5-1.3-0.7-2.6-1.2-4.7C375.8,291.7,373.7,300.2,373.4,309.1z M502.3,386.4c1.4,4.1,2.9,8.2,4.3,12.3
		c0.4,1.1,0.7,2.1,0.6,3.3c-1,3-3.1,5-5.9,6.5c-0.2,5.2-1.5,10.1-3.8,15.1c4.6-0.7,8.1-2.5,11-5.6c4.1-4.3,5.9-9.5,6.1-15.3
		c0.2-7.2-2.1-13.7-6.7-19.3c-1.6-2-3.5-3.5-6.4-4.2C501,381.9,501.5,384.1,502.3,386.4z M362.9,434.4c-0.5,3-1.8,5.7-3.8,8.1
		c7.1-0.8,8.9-2,10.4-8.6c2.9-12.9,1.1-25.3-5.1-37c-2.4-4.5-6.1-6.3-10.9-5.5C363.7,404.2,365.5,418.8,362.9,434.4z M423.4,426.6
		c2-11.6-0.3-22.5-5-33.1c-0.4-0.8-0.8-1.5-1.3-2.3c-2.8-4.4-4.4-5.2-9.7-5c9.4,11.9,11.7,25.6,10.2,40.3c-0.3,2.9-1.3,5.5-3.1,8.3
		C420.5,434.3,422.3,432.8,423.4,426.6z M508.4,382c1.8,2.3,3.5,4.6,4.7,7.2c1.2,2.7,2.2,5.6,2.6,8.6c0.4,2.9,0.3,5.7-0.1,8.6
		c-0.4,3-1.5,5.7-3.2,8.7c4.7-3.2,6.7-15.5,3.2-24.2c-3.2-7.9-9.1-13.9-14.7-14C503.5,379,506.6,379.6,508.4,382z M404.3,169.5
		c0-5.6-2.4-10.7-2.9-16.2C401.2,158.8,403,164.1,404.3,169.5z M353.9,640.2c-2.2,6-2.2,6.3,0.4,8.1
		C354.6,645.5,354,642.9,353.9,640.2z M365.8,387.6c-0.4,3-1.4,5.6-0.1,9.1C367.1,393.3,367.6,390.6,365.8,387.6z M481.6,379.7
		c1.7,0.8,1.7,0.8,2.5-1.8C483,378.2,482.2,378.8,481.6,379.7z M401.2,173.2c0,2.3,0.9,3.8,2.1,5.1
		C403.2,176.5,402.4,175,401.2,173.2z M403.5,154.6c-0.7,0.9-0.4,1.6,0.1,2.5C404.3,156.2,404.6,155.5,403.5,154.6z"/>
	<path d="M726.2,208.3c-1.2-2.2-2.5-4.3-3.8-6.4c-1.7-2.7-3.4-5.5-5.1-8.3c-1.6-0.5-3.1-1-5.3-1.7c1.3,2.6,2.4,4.7,3.9,6.6
		c0.9,1.1,1.6,2.2,2.1,3.5c1.9,4.2,3.9,8.4,6,12.5c2,3.9,3.1,8.2,2.6,12.6c-0.5,4.8-1.9,6.7-6.5,7.8c-9.1,2.1-18.1,1.7-26.8-1.9
		c-3.3-1.4-6.7-2.8-9.8-4.6c-3.3-1.9-5.4-4.3-6.3-8.5c-2.3-10.6-3-21.5-6.2-31.8c-0.1-0.2-0.3-0.3-0.5-0.4c-0.6,0.1-0.8,0.6-0.7,1.1
		c1.4,4.5,2.1,9.2,3.1,13.8c0.8,4,0.8,7.9,0.2,11.9c-0.8,5.3-2.4,10.4-4.5,15.4c-0.2,0.5-0.3,1-0.6,1.3c-4,4.9-6.9,10.7-11.6,15.1
		c-1.4,1.3-2.5,2.8-3.8,4.6c1.1,3.7-0.8,7.9,0.7,12.1c-0.8,0.8-0.9,2.1-0.9,3.3c-0.1,3-0.5,6-1.2,8.9c-0.6,2.5-0.5,4.9,0.4,7.3
		c0.7,2.1,1.5,4.2,2.3,6.6c2.7-0.5,5.4-0.8,8-1.4c8-1.9,16-3.6,24.3-3.9c4.9-0.2,9.7-0.6,14.5-1.1c10.8-1.2,21.1,0.5,31.4,4.1
		c1.3-1,1.2-2.7,1.8-4c1.9-3.8,4.4-7.2,7.1-10.4c2.6-3.1,5-6.2,6.9-9.8c1-1.9,1.8-3.9,1.7-6.1c-0.2-6.6-1.6-12.9-4.9-18.9
		c-3.9-7.1-8.9-13.5-12.2-20.9c0.3,0.1,0.7,0.2,1,0.4c3.9,4,7.5,8.3,9.9,13.5c0.3,0.7,0.5,1.7,1.7,2.1c0.6-3.8,1.6-7.5,3.3-10.9
		c0.6-1.2,1.2-2.2,2.4-2.8c9-4.9,17.1-11,25.1-17.4c5-3.9,9-8.7,11.4-14.6c0.7-0.2,1.7-0.1,2.1-0.6c2.2-2.6,5.2-4.3,7.1-7.1
		c4.7-6.6,8.3-13.6,9.5-21.7c0.4-2.8,0.9-5.7,1.3-8.5c0.3-2.3,1.5-4.2,3-5.8c1.1,0,2.1,0.2,3.3-0.3c0.2-1.4,2-1.8,2.7-3.6
		c-0.1-2.2,0.6-4.8,0-7.2c-0.7-0.2-1.1-0.3-1.5-0.4c0.1-1,1.3-0.8,1.5-1.6c-2.7-7.7-2.7-7.7-1.7-9.5c1.8,3.5,3.2,9.4,3.5,14
		c0.3,5.5-1.8,8.9-6.9,11c-0.3,0.5-0.6,1-0.8,1.6c-1.7,4.8-3,9.8-3.7,14.8c-0.8,5.1-2.3,9.9-5.2,14.3c-2.1,3.2-5.3,5.2-7.8,8
		c-1.7,1.8-3.3,3.7-5.6,4.8c-2.7,6.6-7.1,11.6-12.7,15.6c-1.6,1.2-3.2,2.4-4.5,3.9c-2.5,2.8-5.2,5.7-8.8,6.9
		c-4.4,1.5-7.6,4.6-11.3,6.6c-1.2,4.8-2.9,9.1-4.8,13.6c5.1,6.7,5.5,15,6.5,23.3c-1.2,1.6-2.5,3.4-3.2,5.3
		c-1.6,4.3-4.2,7.9-7.6,10.8c-2.3,2-2.7,5.3-5.3,7c-0.4,0.3-0.5,1.1-0.6,1.7c-0.8,4.2-1.8,8.5-2.4,12.8c-1.4,10.1-1,20.1,1.1,30.1
		c1.5,6.9,3.3,13.8,4.1,20.9c1.7,14.3,3.7,28.4,7.8,42.2c2.6,8.7,3.3,17.7,3.8,26.6c0.6,11.9,1.2,23.9,0.3,35.8
		c-0.4,5.8-0.5,11.7-0.2,17.6c0.1,2.7-0.4,5.4-0.8,8.2c-0.8,5.3-1.7,10.6-1.7,16c0,6.7,0.3,13.5,0,20.2c-0.3,5.9,0,11.7,1.3,17.4
		c1.9,8.5,3.9,17.1,4,25.9c0.1,8.1-0.1,16.2-0.6,24.3c-0.7,13.3-1.4,26.7-0.9,40c0.1,2.2-0.3,4.5,0.9,6.4c1.9,0.9,4-0.1,5.4,0.9
		c1,0.7,1.4,1.6,1.3,2.4c-0.5,4,1.5,6.9,3.8,9.8c0.8,1,1.5,2,2.1,3.1c3.5,7.2,8.7,13,15,17.8c1.8,1.4,3,3.1,4,5.3
		c1.4,3.2,0.6,6.7,1.8,9.7c-1.9,3-4.6,4-7.7,4.5c-3,0.4-6,0.8-8.9,0.9c-3.5,0.1-7.3,0.6-10.4-0.6c-3.8-1.5-7.9-2.2-11.7-3.7
		c-2.5-1-4.5-2.1-4.4-5.1c-3.6-1.2-7.2-1.7-10.7-2.4c-3.6-0.7-7.1-1.6-9.5-4.9c0.9-5.2,1.4-10.6,4.2-15.3c0.5-0.9,0.6-1.9,0.6-2.9
		c-0.2-3.3,0.9-6.4,1.9-9.5c0.4-1.1,0.8-2,0.6-3.2c-1.2-7.1-1.5-14.4-3.3-21.4c-0.5-2-1.9-3.5-2.2-5.5c-0.9-5.3-2.8-10.3-4.2-15.5
		c-0.7-2.6-1.5-5.3-2.9-7.7c-1.8-3-2.5-6.2-3.6-9.4c-3.8-11-3.5-22.1-0.4-33.1c1.2-4.2,1.6-8.3,0.2-12.5c-0.3-0.8-0.5-1.7-0.7-2.5
		c-1-4.7-2.8-9.4-2.8-14.3c0-5.8-1.1-11.4-1.1-17.2c0-2.6-0.3-5.3-0.8-7.8c-1.5-7.2-3.5-14.3-6-21.2c-3-8.5-5.8-17-7.9-25.7
		c-0.6-2.6-1.5-5.2-2.3-8.1c-1.4,1.9-3.2,2.3-4.8,3c-2.2,6-4.2,11.9-5.5,18c-1.7,8.1-3.7,16-5.4,24.1c-1.7,8.3-4.2,16.4-5.1,24.9
		c-0.2,1.6-0.6,3.3-1.3,4.6c-2.8,5-3.9,10.5-5.6,15.8c-1.6,5.1-2.8,10.1-1.3,15.4c0.2,0.6,0.1,1.2,0.1,1.9c0.4,6,0.1,12-0.9,17.9
		c-1.3,7.9-2.5,15.8-5.8,23.2c-1.1,2.4-1.9,4.9-2.5,7.4c-1.4,6.2-2.8,12.4-4.2,18.6c-0.7,3.2-1.2,6.4-1.7,9.6
		c-0.8,6.4-1,12.9-2.3,19.5c1.5,1.1,1.4,2.7,1.4,4.3c0,3.1,1,5.8,1.9,8.7c1.3,4.3,4,8.1,4.7,12.5c0.9,5.6,2.8,10.8,5.5,15.8
		c0.9,1.6,1.6,3.4,2.4,5.1c0.8,1.9,1.3,3.8,0.4,5.7c-1.9,1.7-4.1,2.5-6.5,2.6c-5,0.3-10,0.2-14.9,1c-0.8,0.1-1.7,0-2.6-0.2
		c-4.3-0.7-8.5-1.7-12.9-1.8c-3.4-0.1-5.8-2.1-7-5.4c-0.3-0.7-0.2-1.5-0.8-2c-1.9-0.3-4-0.3-5.6-2c-0.4-2.7-1.4-5.5-0.6-8.4
		c1-3.4,1.6-6.8,2-10.3c0.3-2.9,1.3-5.5,2.8-8c1.2-1.9,1.8-4.1,2.3-6.3c0.5-2.1,1-4.1,1.6-6.2c0.7-2.3,2-4.3,4.3-5
		c0.7-2.1,0.7-4.1,0.6-6.1c-0.7-10.6-3.4-20.9-3.8-31.6c-0.2-5.5-1.2-11-0.8-16.4c0.4-6,0.7-12,0.4-17.9c-0.3-6.4,0.3-12.7,1-19
		c0.1-0.8,0-1.9,0.7-2.4c1.5-1.1,1.8-2.7,2.1-4.2c1.1-5.4,3.1-10.4,4.5-15.7c0.9-3.3,1.7-6.5,1.9-9.9c0.2-2.7,0.4-5.5,1-8.2
		c1.3-6.5,1.7-13.1,1.5-19.7c-0.3-11.7-1.3-23.4-0.1-35.1c0.3-2.5-0.3-4.9-0.9-7.4c-0.9,0.1-1.7,0.1-2.4,0.3
		c-6.8,1.5-9.9-0.2-13.3-5.9c-0.7-1.2-1.4-2.4-1.9-3.6c-3.9-10.2-5.4-20.7-3.7-31.6c0.4-2.8,1.3-5.6,2.7-8.1c1.2-2,2.8-3.7,5.2-3.9
		c4.5-0.4,9.1-1.3,13.6,1.2c0.5-3.8,0.9-7.4,1.7-10.9c0.3-1.2-0.1-2.5-0.4-3.7c-0.8-2.5-1.5-5-2.4-7.5c-4.7-13.2-8.6-26.6-11.5-40.2
		c-1-4.5-1.6-9.1-0.8-13.7c0.8-4.7,1-9.3-0.1-14c-3.2-13.9-2.7-27.7,0-41.6c0.7-3.8,1.4-7.7,0.8-11.5c-0.8-4.7-1-9.3-0.5-14.1
		c0.8-7.8,3.2-14.8,8.5-20.7c1-1.1,1.9-2.3,2.8-3.5c3.9-5.3,8.4-9.8,14.9-11.8c0.5-0.2,1-0.3,1.3-0.7c2.2-2.5,5.2-3.3,8.1-4.4
		c5.3-2.1,10-5,14.4-8.6c1.2-1,2.3-1.9,2.6-3.9c-2-2-1.9-5.2-3.2-7.9l0.1,0.1c0.1-2,0-4-0.4-5.4c-0.3-1.5,1-1,1.1-2.1
		c-0.8-4.6-3.1-9.3-2.3-14.6c0.8,3.7,1.4,7.5,2.4,11.1c1,3.7,1.2,7.8,3.4,11.1c-0.6-7.7-3.2-15-3.5-23c-2.8-3.1-4-6.8-1.5-11
		l-0.1,0.1c1.4-0.9,2.8-1.4,4.5-1.6c2.5-0.2,4.9-0.8,7-2.2c0.4-0.3,0.8-1.1,1.5-0.1c-1.9,2.8-5.1,2.7-7.9,3.4c2.3,0.8,4.6,0,6.9-0.3
		c-0.4,2.2-2.5,1.1-3.3,2.3c1,0.9,2,1.8,3.7,3.3c-2.5-0.2-4.2-1.1-5.8-0.2c0.4,2,0.5,4,2.3,5.6c0.7,0.6,0.6,1.8-0.6,2.5
		c-1.4-1.1-1.3-3.3-2.3-3.7c-1-1.4,0.3-2-0.2-2.9c-1.1-0.6-1.4,1.8-2.7,0.8c0.4-1.1,0.5-2.2,0.2-3.4c-0.9,0.9-0.9,2.7-2.5,2.6
		c0.3-1.6,1.2-3.1,0.7-4.8c1,0.2,2,0.5,3.1,0.7c-0.3-1-0.9-1.4-1.6-1.6c-0.7,0-1.1,0.4-1.4,1c-0.9,1.4-2,2.8-0.7,4.6
		c0.9,4.8,4.2,7.6,8.3,9.7c0.8,0.2,1.5-1,2.2-0.4c0,0.5,0,0.7,0,1l0.1-0.1c-1,0.4-2,0.7-2.7,1c1.5,9.9,2,19.5-3.7,28.2
		c0.9,1.2,1.3,2.4,1.7,3.6c1.8,5.4,3.1,10.9,3.4,16.6c0.3,6.2,2.6,12.2,2.9,18.4c0,0.2,0.2,0.4,0.3,0.7c5.9,4.5,20.1,9.8,25.9,9.7
		c0.3-1.4-0.9-2.9,0-4.4c1.6,1.1,1.3,3.2,2.3,4.6c3.6,0.3,8.4-0.2,11.4-1.2c2.7-0.9,4.2-2.4,4.2-5.4c0-2.7,0.3-5.5-0.8-8.1
		c-2.9-7-5.6-14.2-9.9-20.5c-3.3-4.8-5.7-9.9-7.7-15.3c-1.3-3.5-1.2-6.9,0.5-10.4c1.3,0.8,1.9,2,1.6,3c-0.8,3.3,0.8,6.1,1.3,9.1
		c0.5,2.8,2.4,4.3,5,4.9c3.3,0.7,6.5,1.4,9.7,3.3c10.6-7.3,22.2-12.1,35-14.2c4.8-6.4,11.7-9.8,18.4-13.2c0.3-0.9,0.5-1.5,0.7-2.1
		c0.2-0.7,0.7-1.3,0.2-2c-8.3-0.6-10.5-2.4-13.5-10.3c-0.3-0.7-0.5-1.4-0.6-2.1c-2.3-8.4-2.6-17-1.2-25.6c0.7-4.3,1.8-8.5,4.2-12.3
		c1.4-2.2,3.1-4,5.8-4.2c2-0.2,4,0,6,0.1c5.4,0.2,8.8,2.9,10.7,7.9c0.5,1.4,1.1,2.7,1.8,4.5c1.6-2.5,3.9-2.5,6.2-2.4
		c2.5-3.3,5-3.6,7.7-0.8c0.3,0.3,0.6,0.7,1,1.1l-0.1-0.1c-0.3,0.4-0.6,0.8-1.3,0.9c-1.5-0.7-2.4-3.1-5.1-1.6
		c-0.5,0.3-0.4,1.8-1.9,2.3c-1.4,0.3-3.3-0.8-4.7,0.8c-0.6,1.3-0.3,2.9-0.5,4.5c2,2.4,2,5.7,3.1,8.5c1.2,2.8,3.5,4.9,4.8,7.9
		c-1.9-0.2-2.7-1.7-4.3-1.7c-1.1,0.3-2.4,0.7-3.4,1.7c-0.3,1.5-0.5,2.9,0,4.4c3.3,0.3,6.3,0.2,8.2-2.9c0.1-0.1,0.4,0,0.7,0l-0.1-0.1
		c0.2,1.3-0.3,2.4-0.9,3c-3,1.8-5.8,1.7-8.6,1.8c-0.9,2.7-1.4,5.3-2.6,7.6c-1.7,3.3-3.7,6.3-8,6.3c-0.4,0.6-0.9,1.1-1,1.7
		c-0.7,4.1-3.6,5.7-7.2,7.2c-6.3,2.6-11.5,6.8-14.6,12.6c-1.2,1.4-2.7,0.6-3.9,1.5c-0.5,0.5-1,1.2-1.7,1.8c-3.4,3.1-6.2,6.4-7.3,11
		c-0.4,1.6-1.3,3.3-3.4,4.9c0.7-2.2,1.2-3.5,1.5-5c0.8-3.4,2.4-6.2,5.1-8.4c1.6-1.4,3.1-3,4.1-4.9c-10.3,2.4-19.5,6.8-28.3,12.2
		c-1.2-0.4-2.2-1.6-3.5-0.6c-0.1,0.7,0.1,1.2,0.5,1.8c4,6.3,5.8,13.7,10.2,19.8C729.2,214.9,727.8,211.4,726.2,208.3z M660.2,687.7
		c0.6-0.8,0.7-1.7,0.1-2.5c-3.2-4.1-4.9-8.9-7.4-13.3c-5.6,1.8-11.4,0.8-17.1,0.1c-1-0.1-1.9-0.7-2.1-1.9c0.6-1.7,2.1-1.7,3.4-1.5
		c4.9,0.7,9.9-0.2,15,0.7c-0.3-1.4-0.5-2.5-0.8-4c-2,0.9-3.9,1.1-5.9,1.1c-3.7-0.1-7.5-0.1-11.2,0.2c-2.1,0.2-2.1,0.1-3.6-1.7
		c0.1-1.6,1.4-2.1,2.6-2.3c5.8-1.1,11.6-1.2,17.4,0.6c0.6-0.9,0.2-1.8-0.2-2.5c-6.4,0.4-12.7,0-19.1-0.1c-0.6,0-1.2-0.4-1.5-1.5
		c0.2-1.4,1.6-1.7,2.9-2c5.5-1.1,11-1.3,16.5,0.8c0.1-1.1-0.9-1.5-1.5-2.2c-2.9-0.4-5.8-0.8-8.8-0.6c-2.8,0.3-5.6,1.1-8.8,0.4
		c2.8-3.4,3.8-3.6,16-4c-1.1-2.8-2.1-5.5-2.1-8.6c0-1.2-0.8-2.3-2-3.3c-3.6-0.8-6.9,0.6-10.1,2.4c-1.2,3.2-1.8,6.7-3.7,9.6
		c-5.5,0.4-5.5,0.4-7.6-2.2c-3.3,7.4-5.9,15.1-6.5,23.7c1.5,1.7-0.4,4.1,0.2,6.4c1.6,0.9,3.2,1.9,4.8,2.7c0.3,0.7,0.7,1.3,0.9,1.9
		c1,3,3.2,4.3,6.3,4.4c3.1,0.1,6.2,0.2,9.1,0.9c6.8-3.4,13.8-4.5,21.1-4c1.4,0.1,2.9,0.3,2.6,2.3c-5.1-0.2-10.2-0.5-15.2,0.8
		c-0.8,0.2-1.7,0.4-2.8,1.6c5.3-1.5,10.1-0.5,14.9-1c1.1-0.1,2.5,0,3.1-1.5C659.5,687.7,659.9,687.7,660.2,687.7z M645.9,424
		c2.3-2.5,0.5-6.2,2.8-9.3c1.4,3.2-0.5,6.1,0.2,8.9c1.2,0.5,2.5,0.7,4,0.4c1.3-2.7,0.7-5.8,2.2-8.5c1.6,3.4-0.1,6.6-0.4,9.7
		c-3,1.4-3,1.4-7,0c-1.6,1.2-3.4,2.6-5.9,0.9c-1,6.2-1.1,12.7-6.6,16.7c0,3.5-0.3,6.9,0.1,10.3c0.7,6.5-0.1,12.9,0,19.4
		c0,0.6-0.2,1.3,0,1.9c1,4.8,0.6,9.7,0.9,14.5c0.7,9.5-0.2,18.7-3,27.7c-2.6,8.3-3.9,17-6.7,25.3c-2.8,8.2-3.8,16.7-3.9,25.4
		c0,6.6-0.7,13.3,0.2,19.8c1,7.7,1.4,15.4,2.8,23c1,5.4,0.6,11,1.5,16.4c1.1,6.2,0.3,12.1-1,18.1c-0.3,1.3-0.6,2.7-0.3,4.3
		c1.8-1.2,2.3-2.8,2.8-4.6c0.6-1.9,0.4-4.2,2.5-5.2c2.8-1.3,5.5-3.1,8.8-2.5c0.9,0.2,1.9,0.6,2.9,0.1c0.5-0.5,0.5-1.1,0.6-1.8
		c0.5-7,1.6-13.8,2-20.8c0.2-3,0.6-6.2,1.9-9.1c0.7-1.5,0.6-3.2,0.9-4.8c1.7-7.9,4.1-15.7,5.2-23.7c0.3-1.9,1.6-3.3,2.1-5.1
		c2.3-9,4-18,3.1-27.4c-0.3-3.3-1.1-6.9-0.5-10c0.5-2.3,0-4.6,0.7-6.8s1.4-4.4,2.1-6.6c0.6-1.9,1.3-3.8,1.4-5.8
		c0.1-1.5,0.6-3,1.5-4.2c3.5-4.7,3.8-10.4,5.1-15.8c0.3-1.3,0.1-2.9,0.7-4c3.2-6,3.9-12.6,5.4-19c2.6-10.9,5.3-21.8,7-32.9
		c0.1-0.5,0.1-1,0.2-1.4c-0.2-0.2-0.4-0.5-0.5-0.5c-4.1,0-6.6-2.3-8.7-5.5c-1.9-3-2.9-6.3-4.5-9.4c-1.6,0.2-3,1.7-4.7,0.4
		c0.7-1.7,2.7-1.6,4.1-3.1c0.5-2.6,1-5.6,1.6-9c1.9,1.4,0.5,3.1,1.4,4.6c1.4,0.1,3-0.2,4.5-0.6c1-2.3,0.4-4.4-0.8-6.6
		c-1.7,0.1-3.3,0.2-4.4,0.3c-1.2,0.5-1.2,1.4-1.9,2.2c-1.9-3.2-2.5-6.8-4.7-10.6c-3.8-3-7.5-7.5-12-11.1c-0.9-0.7-0.7-1.7-0.7-2.7
		c0-8.2-1.5-16.1-3.3-24c-1.3-5.7-2.4-11.5-1.2-17.4c0.7-3.2,0.2-6.5-0.4-9.7c-1-5.3-1.7-10.6-3.4-15.7c-0.9-2.6-1.4-5.3-2-8
		c-0.9-3.8-0.1-7.5,0.9-11.1c2.3-8.3,4.3-16.6,6.1-25c0.1-0.6,0.4-1.3,0.3-1.8c-1.1-6.6,0.4-12.9,1.6-19.2c0.6-3.1,0.8-6.2,1.3-9.2
		c0.9-5.1,4-8.6,7.6-11.9c-0.5,4.5-4,7.7-5.5,12.6c2.6-1.6,3.6-3.6,4.9-5.4c2.2-2.9,4.1-5.9,6.7-8.5c0.5-0.5,1-1.2,1.3-1.8
		c2-5.8,4.7-11.5,4.8-17.6c0.2-7.2,0.5-14.6-2.4-21.9c-7.9,4.7-15.7,9.2-24.2,12.4c-2.6,1-4.9,3-6.7,5.2c-2.6,3-4.9,6.3-7.3,9.5
		c-1.5,2-2.4,4.4-2.7,6.3c-0.9,1.1-1.5,0.4-2.1,0.6c-0.1,0.2-0.3,0.3-0.4,0.6c-3.9,7.3-3.7,15.2-3.5,23c0.2,7.1-0.3,14.2-1.3,21.3
		c-0.5,4.1-0.6,8.2-0.4,12.3c0.2,4.6,0.4,9.2,0.5,13.8c0.1,3,0,6-0.5,9.1c2.7,3.8,3.4,8.6,5.1,12.9c-1.7-1-1.8-3.2-3.4-4.6
		c-0.8,7.8-0.2,15.2,1.6,22.7c2.4,9.6,5.5,18.9,8.4,28.3c1.8,5.9,3.1,12.1,4.6,18.1c0.3,1.3,0.7,2.6,1.1,3.9
		c0.8,2.4,1.5,4.8,1.1,7.3c-0.9,5.7,1,10.9,2.6,16.1c1.3,4.3,2.3,8.6,0.8,13c-0.1,0.4,0,1,0,1.6C643.1,424.3,644.3,425.1,645.9,424z
		 M748.3,434.2c-1-6-0.5-12.4-1.6-18.8c-4.1-0.9-7.8,0.2-11.6,1c-3.5,0.7-6.9,2.2-10.5,2.6c-4.7,0.6-9.3,2-14.1,2.6
		c-3.5,0.5-7,1.8-10.5,2.7c-1.8,0.4-3.6,0.7-5.5,1.1c-0.3,1.7-0.2,3.4,0.2,4.9c2.1,9.4,4.4,18.7,7.7,27.7c2.9,7.8,5.2,15.8,7.2,23.9
		c1.6,6.4,1.6,12.8,2.5,19.2c0.9,6.1,0.3,12.2,1.6,18.2c1.2,5.3,1.7,10.8,3.9,16c-1.8,10.6-2.8,21.5-2.4,32.5
		c0.1,3.9,1.8,7.5,3.2,11.1c5.7,14.4,9.9,29.3,12.7,44.5c0.3,1.6,0.7,3.2,1.2,4.7c0.9,2.6,0.7,4.9-1.3,7.2c1,1.4,0.7,2.9-0.2,4
		c0.9,1.9,1.5,3.6,3.8,3.8c1.8-2.3,3-5.1,4.4-7.7c2.2-1.5,5-2.4,6.2-5.4c0.4-1.1,2.2-1.9,4.1-1.7c-0.8-2.2-0.9-4.1-0.8-6.1
		c0.3-7-0.5-14-0.5-20.9c-0.1-7.5,0.7-14.9,1.1-22.4c0.7-12.7,1.5-25.4-0.9-38.1c-0.6-2.9-1.2-5.9-1.8-8.8c-1.4-6.1-2-12.1-1.5-18.4
		c0.4-4.9,0.4-9.9-0.4-14.9c-0.7-4.6,0-9.2,0.3-13.8c0.3-4.6,1.1-9.2,1.3-13.8c0.1-2.2,0.1-4.4,1.5-6.5c0.6-0.8,0.3-2.2,0.3-3.3
		c0.2-8.7-0.7-17.4-1.7-26C746.7,434.7,747.5,434.8,748.3,434.2z M673,359.4c6.6,0.8,13.1,1.9,19.7,2.3c10.3,0.7,20.4-0.5,30.5-2.7
		c1.6-0.4,2.9-1.4,3.8-1.9c4,0.9,7.1-0.9,10.6-1.3c-0.9-7.6-1.8-15-3.6-22.2c-2.2-9-4-18.1-3.7-27.4c0.1-5.7,1.1-11.4,2-17.2
		c-2.1-1-4.3-1.4-6.5-1.9c-9.7-2.2-19.5-2.5-29.4-1.3c-4.3,0.5-8.7,0.5-13.1,0.7c-6.8,0.3-13.6,1.3-20.4,3.2c0.7,2,2.6,2.7,4,4.6
		c-2.6-0.7-3.9-2.3-5.2-4.2c-2.3,0-4.6,0.6-6.5,1.3c-0.6,0.8-0.4,1.3-0.2,1.7c3.3,7.1,3.4,14.7,2.3,22c-0.7,4.5-2,9.2-4.3,13.4
		c-1.7,3.1-3,6.3-4.6,9.6c0.4,5.2-0.4,10.8,1.2,16.5c3.8,2.3,8.2,2.1,13.5,2.8c1.1,0.9,3.3,2.3,6.1,1.9c0.4-1.4-1.4-2-1-3.9
		C670.2,357,671.6,358.2,673,359.4z M741.3,381c-1.5-5.3-2.1-10.6-2.8-16c-0.3-2.2,0.5-4.5-0.7-6.6c-1-0.6-1.9,0-2.9,0.2
		c-6.7,1.9-13.5,3.7-20.4,4.8c-11,1.8-22.1,1.7-33.1-0.3c-4.9-0.9-9.9-0.9-14.9-1.7c-5.4-0.9-10.7-1.9-16.3-2.8
		c1.1,9,2.2,17.9,3.4,27.3c1.8,2.8,4.8,5.3,6.7,9c2.2-0.1,3.8,1.2,5.3,3.5c0.4-2,0.7-3.2,1-4.5c0.3-1.9,1-3.6,1.9-5.2
		c0.8-1.3,1.8-2.4,3.3-2.9c6.9-2.5,13-0.4,16.6,6c3.5,6.3,5.2,13.2,6.1,20.3c0.4,3.7,0.8,7.4,0.3,11.6c7.9-3.2,15.9-4.1,23.5-6.4
		c8.9-2.8,17.9-4.5,27.2-4.5c0.3,0,0.7-0.2,1.2-0.4C745.4,401.5,744.1,391.1,741.3,381z M760.4,644.1c-3.4-0.7-6.7,0-10,0.7
		c-2.1,0.4-4.2,1.1-6.4,0.6c-0.5-1.2,0.2-1.6,0.9-1.9c3.4-1.8,7.1-2.1,10.9-2.4c1.1-0.1,2.2,0.3,3.4-0.3c-1.8-2.6-2.9-5.5-3.4-8.5
		c-2.3-1.2-4.5-0.7-6.8-0.6c-2.3,2.1-4.3,4.4-7.3,5.7c-1.7,0.7-2.1,2.7-2.8,4.3c-2.5,5.8-2.5,5.8-8.7,3.7c1.1,5.4-2.8,9.4-3.4,14.4
		c-0.2,2.1-0.6,4.1-1,6.3c5.7,1.8,11.3,2.7,16.9,4c0-1.7-1.1-2-1.8-2.5s-1.5-0.9-1.6-1.9c2.6-0.2,5,1,5.3,3.2
		c0.2,1.7,1.2,3.1,0.8,5.1c5.9,1.6,11.4,4.1,17.8,3.6c0.9,1.3,2.1,2.1,3.9,1.9c4.1-0.4,8.2-0.6,12.3-1.3c1.4-0.2,2.5-0.8,3.9-2.5
		c-6.3-0.5-11.7,0.9-17.5,2.8c3.7-3.7,4.3-3.9,15-5.3c1.1-4.6,0.4-6.7-3.3-9.3c-1.6-1.1-3.4-2.1-4.7-3.7c-2.9,1-5.6,2.4-8.4,1
		c-0.7-1.1,0.3-1.6,0.4-2.3c-2.7-0.9-5.6,1.5-8.2-0.6c1.4-2.3,1.4-2.3,11.5-2.9c-0.5-1.5-1.7-1.2-2.8-1.1c-4.1,0.2-8.2,0.5-12.3,0.7
		c-1.2,0.1-2.5,0.4-3.4-1.5c1.7-2.6,4.6-2.2,7.1-2.5c2.7-0.3,5.4-0.2,8.1,0.6c0.2-1.1-0.6-1.6-1.2-2.4c-3.2-0.6-6.4,0.1-9.6,0.4
		c-3.1,0.3-6.1,1.8-9.5,1c1.6-3.7,8.3-5.5,17.3-5.2C761.9,644.4,761.2,644.3,760.4,644.1z M627.7,401.6c-1.1-2.7-2.4-5.2-4.4-7.3
		c-3.3-3.6-6.2-3.3-8.6,0.9c-1.4,2.4-2.1,5.1-2.6,7.8c-1.7,10.6-0.2,20.8,3.8,30.7c1.1,2.7,2.5,5.2,4.6,7.2c3,3,5.7,2.7,8-0.8
		c1-1.5,1.6-3.1,2-4.8c1.2-4.6,1.5-9.3,1.4-14.1C631.6,414.5,630.3,407.9,627.7,401.6z M779.8,155.2c2-3.7,2.9-7.7,3.5-11.8
		c1-8,0.9-15.9-1.3-23.7c-0.8-3-1.9-5.9-3.9-8.4c-2.7-3.5-5.6-3.5-8.2,0.1c-2.8,3.7-4,8-4.8,12.4c-1.6,8.8-1.1,17.6,1.4,26.2
		c0.7,2.4,1.7,4.7,3.1,6.8c1.2,1.8,2.7,3.2,5.1,3.4C777.2,159.5,778.6,157.4,779.8,155.2z M681.1,435.2c2.1-0.9,2.9-2.9,3.6-4.9
		c1.5-4.5,1.6-9.1,1.3-13.7c-0.4-7.4-2-14.5-5-21.3c-1.1-2.5-2.5-4.9-4.5-6.8c-2.8-2.7-5.2-2.4-6.8,1c-2.5,5.4-3.3,11.1-1.3,17.1
		c2.3,0.7,4.5-0.8,6.8-0.2c2.5,2.5,2.5,5.3,1.4,8.1c-2,1.6-4.2,1-6.2,1.7C669.1,423.6,675.1,434.4,681.1,435.2z M642.8,309.1
		c-0.1,2.1,0.5,4.2,1,6.3c1.5,5.5,3.3,10.9,4,16.7c1.2-0.2,1.4-1.2,1.4-1.7c0.5-4,2.6-7.2,4.2-10.7c2.8-6.4,3.8-12.8,1.4-19.6
		c-1.9-5.4-3.3-10.9-5.2-17C645.3,291.7,643.2,300.2,642.8,309.1z M784.3,122.9c1.5,7.9,1.5,15.9,0,23.8c-1,4.9-2.4,9.7-6.3,13.4
		c6.7,0.3,8.9-1.1,11.3-6.9c2.2-5.5,2.9-11.4,3-17.2c0.1-5.4-0.6-10.7-2-15.9c-0.5-1.7-1.1-3.3-1.7-4.9c-1.9-4.6-5.3-6.7-10.8-6.3
		C781.8,113,783.3,117.8,784.3,122.9z M632.3,434.3c-0.5,3-1.8,5.7-3.7,8.1c0.3,0.1,0.5,0.2,0.8,0.2c6.6-0.4,9.2-4.7,10.1-10.5
		c1.9-11.4,0.4-22.4-4.3-32.9c-0.4-0.8-0.8-1.5-1.3-2.3c-3.1-5-4.8-5.9-10.9-5.5C633.1,404.1,634.9,418.8,632.3,434.3z M686.9,411.8
		c0.5,3.4,0.9,6.9,0.6,10.4c-0.4,4.3-0.8,8.6-3.5,12.4c5.9-0.4,7.7-1.9,8.8-7.4c1.3-6.3,0.9-12.7-0.3-19c-0.8-4.4-1.9-8.8-3.8-12.9
		c-0.8-1.7-1.8-3.3-2.7-4.9c-2.1-3.7-5.4-4.7-9.8-4.4C683.5,393.5,685.6,402.5,686.9,411.8z M670.8,153.2
		c-0.2,5.6,1.8,10.9,2.9,16.3C673.7,163.9,671.3,158.7,670.8,153.2z M623.7,639.9c-2.5,3.8-2.5,6.4,0,8.5
		C624.2,645.6,623.3,643,623.7,639.9z M635.7,388c-1.2,2.8-1.4,5.1-0.5,8.6c0.7-1.9,1.1-3.3,1.6-4.7
		C636.3,390.4,636,389.2,635.7,388z M793.7,136.5c1,0.8,1.9,0.6,2.9,0.3c-1-2.3-1.9-4.5-2.9-6.8c-0.1,0-0.2,0-0.3,0.1
		C793.5,132.3,793.6,134.4,793.7,136.5z M671,173.6c0,2.5,0,2.5,2.2,5.2C672.7,176.5,671.8,175.2,671,173.6z M673,154.6
		c-0.7,1-0.3,1.6,0,2.6C674,156.1,673.9,155.4,673,154.6z"/>
	<path d="M703.7,110.5l-0.2,0.2c-2.1-0.1-3-2.1-5.5-2.8c2.2-0.7,3,0.8,4.3,0.6c-2-2.8-4.9-3.7-10.5-3.3c0.7,0.8,1.7,0.9,2.7,1.2
		c0.8,0.2,1.7,0.5,2.4,1.1c-0.4,0.2-0.8,0.5-1.2,0.8c2.5,1.4,5.4,2.2,7.2,4.6c-0.7-0.4-1.1,1.1-1.9,0.3c-1.1-1.1-2.5-0.7-3.5-0.3
		c-2.1-0.7-3.6-2.3-5.5-1.9c-1.9,0.3-3.4-0.2-5.1-0.5c-3.3-0.6-6.6-1.2-9.8-1.8c-1.1-0.2-2.2-0.3-2.8,1.2c1.3,0.7,2.5,1.5,3.8,2.2
		c3.3-1.1,6,1,9.1,1.3c-0.3,1.2-0.6,2.1-1.9,2.1c0.2-0.4,0.3-0.9,0.5-1.4c-2.4-0.9-2.7,1.9-4.4,2.1c1.8,1.3,2.5-1,4-0.8
		c-0.3,0.8-0.5,1.5-0.8,2.3c-2.8,1.1-5.4-0.2-8.1-0.8c-2.8-0.6-5.4-1.3-7.3-3.8c-1.2,1.8-2.5,3.2-3,5c1.1,1.1,2.2,1.8,3.6,2.3
		c2.2-0.8,4.6-0.8,6.9-0.6c2.2,0.2,4.8-1.3,7.2,1.6c-4.3-0.8-7.5,2-11.6,1.1c1.9-0.8,3.9,0,5-1.7c-3.9-1-7.9,1.7-11.5-1.2
		c-0.9,3.4-0.4,4.2,3.1,5.4c0.3,0.5,0.5,1.1,0.8,1.6c-1.7,0-3-1-4.3-2c-1,0.8-0.3,1.6-0.3,2.5c1.4,0.9,2.8,1.9,4.3,2.9
		c-1.7,0.7-2.6-0.9-4-1.1c-0.9,1.2-0.2,1.9,0.8,2.5c3,1.7,6.7,1.7,10.5,0c-1.9-0.8-3.8,1.3-5.9-0.3c2.5-0.6,4.7-1.2,7.3-1.8
		c-3-1.2-5.9-0.1-8.6-0.9c0-0.7,0-1.3,0-1.9c2.1,1.3,4.2,1.1,6.9,0.3c-2.7-1.5-5.3-1.3-7.7-1.7c0.5-0.7,1.2-0.7,2-0.7
		c2.8,0,5.4-0.7,8-1.4c0.5-0.1,1.2-1.1,1.8-0.1c-0.5,0.9-1.5,0.8-2.2,1.3c-0.6,0.4-1.6-0.2-1.9,0.8c1.6,1,3.1,0.4,4.6-0.3
		c0.3,0.4,0.6,0.7,0.7,0.9c1.2,0.2,1.4-1.6,2.6-0.9c-0.9,1.3-1.8,2.5-2.7,3.8c0.6,0.7,1.3-0.3,2,0.9c-0.6,0.5-1.4,1.1-2.2,1.7
		c-0.9,0.5-1.7,1-2.6,1.4c-2.1-0.3-3.8,0.8-5.7,1.6l0.2-0.1c-2.5,0.3-4.9-0.8-7.5-1.2c-0.3,2.5,0.8,4.5,1.4,6.5l0.1-0.1
		c-2.1,0.1-1.7-2.5-3.5-3.3c-0.1,2.3-0.5,4.3-0.4,6.4c0.6,9.8,1.1,19.6,3.7,29.2c0.2,0.6,0.2,1.2,0.9,1.5l-0.1-0.1
		c-0.2,0.4,0.1,1-0.7,1.1c-0.2-0.4-0.5-0.8-0.6-1.3c-3.1-9.2-4.3-18.8-4.7-28.5c-0.1-2.1,0.2-4.2,0.5-6.3c0.8-5.1,0.8-10.2,0-15.3
		c-0.7-4-0.5-8-0.4-11.9c0.1-3.2,1.4-5.8,4.2-7.5c4.3-2.5,8.7-2.8,13.1-0.3c0.6,0.4,1.2,0.8,1.8,1.2c9.5-1.8,18.5-1.1,27.1,3.3
		c1.6,0.8,2.9,1.8,4,3.3c3.6,4.8,5.7,10.2,7.2,15.9c0.5,1.8,1.4,3.5,0.8,5.4c-0.9,2.9-0.2,5.6,0.7,8.4c1.8,6.1,1.9,12.3-0.5,18.3
		c-0.7,1.7-1.1,3.6-1.5,5.4c-0.7,3-1.3,6.1-3.7,8.6c-2,0.3-4,1.6-6.3,0.7c0.4-0.7,1-0.9,1.6-0.9c4.3,0,5.9-2.8,6.5-6.3
		c0.7-3.8,1.9-7.5,2.9-11.2c1.7-6.5,0.6-12.8-2-19.4c-0.6,1.8-1,3.1-2.8,3.4c-1.4-0.6-1.5-2.6-3.2-3.1c1.8-2,3.9-2.1,6-1.7
		c0.3-1.6,1.1-2.8,0.8-4.2c-1.3-0.6-2.5-0.5-3.6,0c-1.2,0.5-2.4,0.6-3.6,0.3l0.1,0.1c0-0.4,0-0.7,0-1.2c2.2-0.7,4.3-1.1,6.7-1.3
		c-1.8-4.2-3-8.4-5.1-12.2c-0.7-1.3-1.5-3-2.8-3.4c-2.2-0.6-3.5-2.2-5-3.5c-1.1,0.5,0.4,1.4-0.5,1.9c-0.3-0.1-0.7-0.1-1-0.2
		L703.7,110.5z M671.6,103.1c0.1,0.4,0.3,0.8,0.4,1.3c-4.5-0.4-6.6,0.8-7.8,5c-1,3.3-1,6.7-0.7,10.2c1.1-2.3,2.2-4.6,3.3-7
		c2.3-0.9,4.1-2.6,5.9-4.1c0.1-0.9-0.7-1.1-0.9-1.8c0.8-0.1,1.7-0.1,2.5-0.2c-0.4-1.3-2.1-1-2.4-2.2c1.9-0.6,3,1.3,4.6,1.5
		c0.9-0.5,0.4-1.2,0.5-1.7c0.8,0,1.1,1.5,2.2,0.6c-0.5-1-1.3-0.9-2.1-0.6C675.4,103.3,673.8,102,671.6,103.1z M680.6,116.4
		c-1.5-1.5-3.4-0.9-5.1-0.8c1.1-2.3,3.4-1.4,5.9-2.2c-4,0.5-6.3-2.4-9.6-2.7c-0.2,1.9,1.6,1.7,1.9,2.7c-0.8,0.7-1.5-0.8-2.5,0.1
		c1.1,1.4,2.6,1.9,4.3,1.9C677.2,116.5,678.9,116.4,680.6,116.4z M692.5,107.8c-4.1-2.6-8.7-2.8-14.3-0.7c2,1.5,2.2,1.5,8.7-0.7
		C688.8,106.8,690.4,107.2,692.5,107.8z"/>
	<path d="M398,139.4c-2.1,0.1-1.7-2.5-3.4-3.3c-0.2,2.2-0.5,4.3-0.4,6.4c0.6,9.9,1.2,19.9,3.8,29.6c0.1,0.5,0.3,0.9,0.8,1.2
		l-0.1-0.2c-0.2,0.4,0.1,1-0.7,1.1c-0.8-1.1-1.1-2.4-1.6-3.7c-1.6-4.8-2.3-9.7-2.7-14.7c-0.2-2.7-1.7-5.2-1.4-8.1
		c0.3-3.3,0.2-6.7,0.8-10c0.5-3.1,0.5-6.2,0.4-9.3c-0.2-5.2-1.3-10.4-1-15.6c0.3-6.5,2.6-9.5,8.9-11.1c3.2-0.8,5.9,0.3,8.6,1.5
		c0.7,0.3,1.2,0.8,1.8,1.1c9.5-1.8,18.5-1.1,27.1,3.3c1.6,0.8,2.9,1.8,4,3.3c3.6,4.8,5.7,10.2,7.2,15.9c0.5,1.8,1.4,3.5,0.8,5.4
		c-0.9,2.9-0.2,5.6,0.6,8.4c1.8,6.1,1.9,12.3-0.5,18.3c-0.7,1.7-1.1,3.6-1.5,5.4c-0.7,3-1.3,6.1-3.6,8.6c-2,0.3-4,1.6-6.3,0.7
		c0.2-0.2,0.4-0.5,0.6-0.6c0.3-0.2,0.7-0.4,1.1-0.3c4.3,0.1,5.9-2.7,6.6-6.3c0.7-3.7,1.8-7.2,2.8-10.8c1.8-6.7,0.8-13-1.9-19.7
		c-0.6,1.8-1,3.1-2.7,3.3c-1.7-0.4-1.6-2.7-3.3-3.1c1.8-2,3.9-2.1,6-1.7c0.3-1.6,1.1-2.8,0.8-4.3c-1.2-0.4-2.4-0.4-3.6,0.1
		s-2.4,0.7-3.6,0.3l0.1,0.1c0-0.4,0-0.7,0-1.2c2.2-0.7,4.3-1.1,6.7-1.3c-1.8-4.2-3-8.4-5.1-12.2c-0.7-1.3-1.5-3.1-2.8-3.4
		c-2.3-0.5-3.5-2.2-4.9-3.4c-1.6,0.4,0.4,1.3-0.6,1.8c-0.3-0.1-0.7-0.1-1-0.2l-0.3-0.2l-0.2,0.2c-2.1-0.2-3.2-1.9-5-2.9
		c1.7-0.5,2.5,1,3.8,0.7c-2-2.8-4.8-3.6-10.4-3.3c1.4,1.4,3.6,1,5,2.3c-0.4,0.2-0.8,0.5-1.2,0.7c2.5,1.4,5.4,2.2,7.2,4.6
		c-0.7-0.4-1.1,1.1-1.9,0.3c-1.1-1.2-2.5-0.5-3.6-0.2c-1.9-0.7-3.5-2.3-5.4-1.9s-3.4-0.2-5.1-0.5c-3.3-0.6-6.6-1.2-9.8-1.8
		c-1.1-0.2-2.2-0.3-2.7,1.2c1.3,0.7,2.6,1.5,3.8,2.2c3.3-1.1,6,1,9.1,1.3c-0.3,1.1-0.6,2.1-1.9,2.1c0.2-0.4,0.3-0.9,0.5-1.4
		c-2.4-0.9-2.7,1.9-4.4,2.1c1.8,1.3,2.5-1,4-0.8c-0.2,0.7-0.5,1.5-0.8,2.3c-2.2,1.2-4.6,0.1-6.9-0.1l0.1,0.1
		c-0.3-0.5-0.7-0.6-1.2-0.7c-2.8-0.4-5.6-1.1-7.4-3.8c-1.2,1.8-2.4,3.2-3,4.9c0.8,1.3,2.1,1.8,3.4,2.5c2.2-0.7,4.7-0.9,6.9-0.6
		c2.3,0.3,4.9-1.3,7,1.2c-2,0.7-3.9,0.1-5.7,0.9c-1.7,0.8-3.5,1.1-5.6,0.6c1.7-0.8,3.8,0,4.9-1.7c-3.8-1-7.9,1.7-11.5-1.2
		c-0.9,3.4-0.4,4.2,3.1,5.4c0.3,0.5,0.5,1.1,0.8,1.6c-1.7,0-3-1.1-4.3-2c-1.3,0.7,0.1,1.6-0.5,2.2c1.6,1.1,3.1,2.1,4.7,3.1
		c-1.8,0.6-2.7-0.8-4-1.2c-1.1,1.5,0,2.3,1.1,2.7c3.3,1.4,6.7,2,10.2-0.2c-2-0.7-3.9,1.2-6.1-0.2c2.7-0.7,4.9-1.2,7.4-1.9
		c-2.8-1.1-5.4-0.2-7.8-0.7c-0.8-0.5-0.7-1.3-0.8-2c2,1.4,4.2,1,6.9,0.4c-2.6-1.6-5.2-1.4-7.7-1.8c0.5-0.7,1.2-0.7,2-0.7
		c2.8,0,5.4-0.7,8-1.4c0.5-0.1,1.2-1.1,2,0.1c-0.8,0.4-1.6,0.7-2.4,1c-0.6,0.3-1.6-0.2-2,0.8c1.6,1,3.1,0.4,4.6-0.3
		c0.3,0.4,0.6,0.7,0.8,1.1c1-0.2,1.4-1.5,2.6-1.1c-1,1.4-1.9,2.6-2.7,3.8c0.6,0.7,1.3-0.3,1.7,0.4c-0.2,1.1-1.5,1.2-1.9,2.2
		c-0.9,0.5-1.7,1-2.6,1.4c-2.1-0.3-3.8,0.8-5.7,1.6l0.2-0.1c-2.5,0.3-4.9-0.8-7.5-1.2C396.3,135.5,397.4,137.4,398,139.4L398,139.4z
		 M402.2,103.1c0.1,0.4,0.3,0.8,0.4,1.3c-4.5-0.4-6.7,1-7.9,5.3c-0.9,3.2-0.9,6.5-0.6,9.9c1.1-2.3,2.2-4.6,3.3-7
		c2.2-0.9,4-2.7,5.9-4c0.3-1-0.6-1.2-1.1-1.7c0.9-0.6,1.9,0.2,2.6-0.5c-0.4-1.2-2-0.9-2.4-2.1c1.9-0.6,3.1,1.2,4.5,1.6
		c0.9-0.5,0.5-1.2,0.6-1.7c0.8,0,1.1,1.5,2.2,0.6c-0.5-1.1-1.3-0.9-2.1-0.6C405.9,103.3,404.3,102,402.2,103.1z M412,116.5
		c-2.4-1.6-4.2-1-5.9-0.9c1.1-2.3,3.4-1.4,5.2-2.1c-3.3,0.5-5.6-2.8-8.9-2.6c-0.2,1.7,1.7,1.5,1.9,2.6c-0.8,0.7-1.5-0.8-2.5,0.1
		c1.1,1.4,2.6,1.9,4.3,1.9C407.7,116.4,409.4,116.7,412,116.5z M408.3,107.2c1.1,1.2,2.3,1.2,3.5,0.9c1.9-0.5,3.7-1.5,5.6-1.6
		c1.8-0.1,3.5,0.7,5.3,1.1C418.1,105.2,413.4,105,408.3,107.2z"/>
	<path d="M806.8,117.8c-0.1-1.6,1-2.1,2.6-2.7c3,2.5,7.4,2.7,10.7,5.7c1-3.2,1.7-6.2,3.3-8.7c1-1.6,2.3-3.3,4.3-3.3
		c9.2-0.3,12.6,0.1,16.1,9c0.2,0.5,0.4,0.9,0.5,1.4c3.4,11.2,3.8,22.5,0.7,33.9c-0.7,2.7-2.1,5.3-4.7,6.4c-3.6,1.5-7.6,1.6-11.3,0.4
		c-1.7-0.6-3.1-1.8-4.1-3.6c-1.3-2.4-2.5-4.9-3.2-7.5c-0.5-1.8-1-3.6-1.4-5.3c-0.8-0.2-1.7,0.4-2.1-0.8c3.2-4.3,3.7-9,1.6-14
		c-0.5-1.1-0.8-2.4-1.1-3.6c-0.6-2.3-1.6-4.4-3.8-6.3c-1.8-0.1-3.8-0.7-5.4-1.8C808.3,117,807.7,118.1,806.8,117.8L806.8,117.8z
		 M828.2,138.5c-2.1,0.6-4.4,0-6.7,0.4c-0.1,0.3-0.5,0.7-0.4,1c0.7,4.2,1.5,8.3,3.1,12.3c0.4,1,0.9,2.1,1.5,3
		c1.1,1.8,2.2,3.8,4.7,3.8c2.5-0.1,3.5-2.2,4.4-4c1.3-2.5,1.9-5.1,2.4-7.9c1.5-9,0.9-17.9-1.5-26.7c-0.9-3.3-2.1-6.4-4.5-8.9
		c-1.9-1.9-4-2.1-5.5-0.1c-3.9,5.3-5.5,11.3-4.1,17.7c2.4,0.9,4.6,0,6.9,0.8C830.7,133.5,830.6,135.4,828.2,138.5z M843.6,151.8
		c3.2-11.5,2.6-22.9-1.5-34.1c-2.2-6-3.4-6.7-9.9-7.9c8,12.3,8.6,25.7,6.1,39.5c-0.6,3.4-1.8,6.7-4.7,9.7
		C840.5,158.7,841.9,157.8,843.6,151.8z M821.9,136.9c2.1,1.4,4.2,0.2,6.2,0.6c0.7-2.5,0.6-4.5,0-6.6c-1.9-0.8-3.6-0.1-5.5-0.4
		C821.8,132.9,822.9,134.9,821.9,136.9z"/>
	<path d="M427,135.7c1.6-0.3,3.3,0,5.1-0.9c-0.9-0.4-1.4-0.7-2-1c1-0.3,2-0.1,3,0.1c0.2,1.2,0.5,2.4,0.7,3.7
		c-0.9-0.1-1.1-0.9-1.8-0.7c-0.6,0.6,0.5,1.1,0.1,1.7c-0.9,0.8-1.8,1.6-3.1,1.4c-1.5-0.5-1.6-1.8-2.2-2.7c-1,0-1.5,1.2-2.5,0.6
		c-0.1-0.3-0.2-0.5-0.2-0.7C425.2,136.8,425.8,135.7,427,135.7z"/>
	<path d="M696.5,135.7c1.6-0.3,3.3,0,5.1-0.9c-0.9-0.4-1.4-0.7-2.1-1.1c1.2-0.1,2.2-0.1,3.1,0.2c0.2,1.2,0.5,2.4,0.7,3.7
		c-0.9-0.1-1.1-0.9-1.8-0.7c-0.6,0.6,0.5,1.1,0.1,1.9c-0.8,0.6-1.7,1.5-3,1.3c-1.4-0.5-1.6-1.8-2.2-2.7c-1,0-1.5,1.2-2.5,0.6
		c-0.1-0.3-0.2-0.5-0.2-0.7C694.6,136.8,695.3,135.7,696.5,135.7z"/>
	<path d="M802.3,142.5c-0.2-1.8,1.7-2.9,1.6-4.8c-0.2-4.3-0.1-8.6-2.8-12.4c-0.6-0.8-1.7-2-0.6-3.6c4.2,6.3,5.8,12.9,4.4,20
		c-0.4,0.3-0.6,0.5-0.8,0.5C803.5,142.3,802.9,142.4,802.3,142.5L802.3,142.5z"/>
	<path d="M809.8,141c0-0.9-0.1-1.7-0.1-2.6c0.4-5.4,0.2-10.6-2.8-15.4c-0.4-0.6-1.3-1.7,0.1-2.8c1.4,1.8,1.7,4.1,2.5,6
		c1.5,3.6,2.4,7.3,1.7,11.2C810.9,138.6,811.2,140.1,809.8,141L809.8,141z"/>
	<path fill="none" d="M433.9,112.7l-0.2,0.2h-0.3c-1.8-2.4-4.7-3.2-7.2-4.6c0.4-0.3,0.8-0.5,1.2-0.7c-1.5-1.4-3.7-1-5-2.3
		c5.6-0.3,8.4,0.6,10.4,3.3c-1.3,0.3-2.1-1.3-3.8-0.7c1.8,1,2.9,2.8,5,2.9C434,111.4,433.9,112,433.9,112.7z"/>
	<path fill="none" d="M703.3,112.7l-0.2,0.2h-0.3c-1.8-2.4-4.7-3.2-7.2-4.6c0.4-0.3,0.8-0.5,1.2-0.8c-0.7-0.6-1.6-0.9-2.4-1.1
		c-0.9-0.3-1.9-0.4-2.7-1.2c5.6-0.3,8.4,0.6,10.5,3.3c-1.3,0.2-2.1-1.3-4.3-0.6c2.5,0.7,3.4,2.7,5.5,2.8
		C703.4,111.4,703.4,112,703.3,112.7z"/>
	<path d="M710.9,156.1c2.1-0.4,4.8-0.9,6.7,1.3c-4.5-0.5-8.6,1.8-12.9,1.5c-0.6,0-1.3-0.1-1.8-1.7
		C705.8,157.7,708.3,156.6,710.9,156.1z"/>
	<path d="M441.8,156c1.5-0.5,3.4,0,5.1,0.2c0.6,0.1,1.6,0.2,1,1.7c-3.2-0.6-6.4,0.3-9.6,1c-1.6,0.3-3.4,0.7-5.1-1.3
		C436.4,157.5,439.1,156.8,441.8,156z"/>
	<path d="M702.4,130.8c-4.1-0.6-8.1-0.9-11.8,3c0.7-2.7,2-3.6,3.7-4.2c4.1-1.4,8-0.3,11.9,0.6C705,131.5,703.6,131,702.4,130.8z"/>
	<path d="M423.4,130.1c3-1.8,10.1-1.7,13.5,0.4c-1.5,1-2.9,0.4-4.3,0.2c-4-0.6-7.8-0.8-11.1,2.4
		C421.7,131.8,422.3,130.8,423.4,130.1z"/>
	<path d="M412.7,132.5c-1.9,1.9-4.5,2.4-7,3c-3.5,0.9-5.4,0.8-7.3,0.1c1.6-1.4,4,0.1,5.5-1.4l-0.2,0.1c2,0,4-0.2,5.7-1.6
		c0.9-0.5,1.7-1,2.6-1.4C412.6,131.5,412.9,131.8,412.7,132.5z"/>
	<path d="M682.2,132.4c-3.7,2.8-10.8,4.4-14.3,3.2c1.7-1.3,4,0.1,5.6-1.4l-0.2,0.1c2,0,4-0.2,5.7-1.6c0.9-0.5,1.7-1,2.6-1.4
		C682.1,131.5,682.3,131.8,682.2,132.4z"/>
	<path d="M430.9,211.1c-0.1,1.3-0.8,1.6-1.5,1.5c-3.1-0.3-5.1-2.5-7.1-4.7C425.3,208.9,427.8,210.8,430.9,211.1z"/>
	<path d="M691.5,207.7c3.4,0.9,5.7,3.3,9.3,3.5C698.1,213.4,695.3,212.3,691.5,207.7z"/>
	<path d="M447.5,160.4c-3.3,2.9-5.8,3.2-8.8,0.8C441.9,161.2,444.5,160.9,447.5,160.4z"/>
	<path d="M716.5,160.9c-3.3,2.4-5.2,2.6-7.8,0.8C710.6,161.1,714.9,160.7,716.5,160.9z"/>
	<path d="M432.7,172.9c-3.5,0.7-6.9,0-10.2-1.8C426.2,171,429.4,172.5,432.7,172.9z"/>
	<path d="M691.8,170.9c3.9,0.7,7.2,1.3,10.4,1.9C697.9,173.5,696.5,173.2,691.8,170.9z"/>
	<path d="M440.2,206.6c-2.1,1.8-4.4,3.4-7.3,3.8c2.1-1.9,4.5-3.2,6.8-4.4C440.3,206.3,440.4,206.5,440.2,206.6z"/>
	<path d="M709.7,206.3c-2.2,1.8-4.3,3.9-7.4,4.1C704.6,208.7,706.9,207,709.7,206.3z"/>
	<path d="M678.7,155.8c1.7,2.1,2.6,4.4,3.1,7c-1.5-2.1-4-3.9-3-7.1L678.7,155.8z"/>
	<path d="M442.8,149.3c-1.3,1.6-3.1,1.5-4.5,2.1c-0.5-0.3-0.8-0.4-1.1-0.7c-0.2-0.2-0.3-0.6-0.5-0.9
		C438.8,151.8,440.5,147.5,442.8,149.3z"/>
	<path d="M706.2,149.5c2.1,1.6,3.7-1.3,6.4-0.5C708.7,151.7,707.9,151.7,706.2,149.5z"/>
	<path d="M409.3,155.8c1.7,2.1,2.6,4.4,3.1,7c-1.5-2.1-4-3.9-3-7.1L409.3,155.8z"/>
	<path d="M408.3,117.6c0.3,0.4,0.6,0.7,1.1,1.4c-2.8,0.1-5.3-0.1-8.3-1.1c2.8-0.4,5,0.3,7.2-0.2L408.3,117.6z"/>
	<path d="M440.6,135.8c2,2.4,3.1,5.2,4.3,8C442.9,141.4,440.8,139.1,440.6,135.8L440.6,135.8z"/>
	<path d="M710.1,135.8c2,2.4,3.1,5.2,4.3,8C712.2,141.5,710.3,139.1,710.1,135.8L710.1,135.8z"/>
	<path d="M671.1,117.9c2.5,0,5.1-0.3,7.4,0.8C675.9,119.2,673.5,118.8,671.1,117.9z"/>
	<path d="M446,145.2c1.8,2,0.5,3.2,0.4,4.5c-0.9,0.4-1.6,0.9-2.8,0.5C444.5,148.5,446.5,147.7,446,145.2z"/>
	<path d="M712.9,150c1.3-1.5,2.7-2.5,2.8-4.6c1.3,1.9,0.2,3,0.1,4.2C714.9,150,714.2,150.5,712.9,150z"/>
	<path d="M762.2,196.7c1.8-1.2,3.2-2.5,5.5-3.2C765.5,196.1,764.8,196.5,762.2,196.7z"/>
	<path d="M423.8,136.4c1-1.3,2.4-1.9,4.5-2.3c-0.7,0.9-1,1.2-1.3,1.6c-1.2,0-1.8,1-2.8,1.4C423.8,137.1,423.5,136.7,423.8,136.4z"/>
	<path d="M416,176.4c-0.7-1.7-1.9-3.2-1.4-5.2C415.6,172.8,416.1,174.5,416,176.4z"/>
	<path d="M685.4,176.3c-0.7-1.6-1.7-3.1-1.4-5.1C685,172.8,685.7,174.4,685.4,176.3z"/>
	<path d="M693.2,136.4c1.1-1.3,2.4-1.9,4.4-2.2c-0.6,0.9-1.2,1-1.2,1.6c-1.2,0-1.8,1-2.8,1.4C693.3,137.1,693,136.7,693.2,136.4z"/>
	<path d="M440.7,135.7c-1.1-2.6-0.9-3.2,1.5-5.2l-0.1-0.1C441.6,132.2,441.1,134,440.7,135.7L440.7,135.7z"/>
	<path d="M710.1,135.7c-1.1-2.6-0.9-3.2,1.5-5.2l-0.1-0.1C711.1,132.2,710.6,134,710.1,135.7L710.1,135.7z"/>
	<path d="M772.1,190.9c1-1.2,2.2-2,4.5-2.9c-1.2,2.3-2.6,2.8-4.1,3.3C772.4,191.2,772.2,191.1,772.1,190.9z"/>
	<path d="M809.7,140.9c-1.3,2.3-1.3,2.3-3.8,1.5C807.4,141.9,808.6,141.4,809.7,140.9L809.7,140.9z"/>
	<path d="M702,192.4c0.4-1.8,0.6-3.2,1.1-5.2C703.5,189.4,703.3,190.8,702,192.4z"/>
	<path d="M432.5,192.4c0.4-1.8,0.7-3.2,1.1-5.2C434,189.4,433.8,190.8,432.5,192.4z"/>
	<path d="M743.2,207.9c1,0.7,1,1.6,1.2,3.1C743.1,210.1,742.7,209.2,743.2,207.9z"/>
	<path d="M703.7,110.5l0.3,0.2c-0.1,0.9,0.8,1.3,1,2.1c-0.6,0-1.1-0.1-1.7-0.1c0.1-0.6,0.1-1.3,0.2-1.9L703.7,110.5z"/>
	<path d="M434.3,110.5l0.3,0.2c-0.1,0.9,0.8,1.3,1,2.1c-0.6,0-1.1-0.1-1.7-0.1c0.1-0.7,0.1-1.3,0.2-2L434.3,110.5z"/>
	<path d="M799.6,131.3c0.6-0.5,1.1-1.2,2,0C800.8,132.1,800.3,132,799.6,131.3z"/>
	<path d="M797.4,141.7c0.6,0.6,0.6,1.2,0.1,1.9C796.3,142.5,796.3,142.5,797.4,141.7z"/>
	<path d="M704.3,224.7c-0.3-0.3-0.7-0.7,0-1.2c0.5,0.2,1,0.3,1,1.1C704.9,224.9,704.6,225,704.3,224.7z"/>
	<path d="M435.8,224.7c-1,0.5-1.3,0-1.3-1.4C435.3,223.8,435.9,223.9,435.8,224.7z"/>
	<path d="M745.8,218.1c0.2,0.5,0.2,1-0.1,1.6C745.6,219.1,745.4,218.6,745.8,218.1z"/>
	<path d="M713.5,133.1c-0.4,0.2-0.6,0.7-1.1,0.6C712.5,133,712.8,132.7,713.5,133.1z"/>
	<path d="M444.2,133.3c-0.6-0.1-0.7,0.7-1.5,0.2C443.2,133.3,443.3,132.6,444.2,133.3z"/>
	<path d="M772.5,191.3c-0.5,0.6-1.1,1.2-2,0.9c0.4-0.7,1-1.1,1.7-1.2C772.2,191.1,772.4,191.2,772.5,191.3z"/>
	<path d="M689.2,168.8c0.5,0.2,1,0.5,1.4,1.5C689.7,169.8,688.9,169.8,689.2,168.8z"/>
	<path d="M419.3,168.9c1,0,1.4,0.3,1.7,0.9C420,170.2,419.9,169.5,419.3,168.9z"/>
	<path fill="none" d="M372.2,421.8c1.5-4.7,0.4-9.2-1-13.8c-1.5-5.1-3.4-10.2-2.4-15.7c0.4-2.5-0.4-4.9-1.1-7.3
		c-0.4-1.3-0.8-2.6-1.1-4c-1.5-6-2.7-12.2-4.6-18.1c-2.9-9.4-6-18.7-8.4-28.3c-1.9-7.4-2.5-14.8-1.6-22.6c1.7,1.3,1.7,3.6,3.5,4.5
		c-1.9-4.3-2.5-9.1-5.2-13c0.5-1.7,0.6-3.3,0.5-4.9c-0.1-6.1-0.4-12.2-0.5-18.3c-0.1-3.9-0.1-7.7,0.4-11.6c0.9-7,1.4-14.1,1.3-21.2
		c-0.1-8.1-0.7-16.3,4.3-24.3c0,0,0.9,1.1,1.6-0.1c1.3-6.6,6.5-11.2,10.7-16.3c2.2-2.7,5.3-4.8,8.9-5.9c3-0.9,5.8-2.3,8.5-3.8
		c4.3-2.3,8.6-4.8,13-7.2c0.4,1.3,0.7,2.3,1,3.4c1.7,5.9,1.4,12.1,1.3,18.1c-0.1,6.3-2.8,12.1-4.9,18c-0.2,0.6-0.6,1.1-1,1.5
		c-3.6,3.7-6.2,8.1-9.4,12.1c-0.5,0.6-0.9,1.5-2.2,1.4c1.3-4.3,4.8-7.5,5.5-12c-1.3,0.2-1.6,1.1-2.2,1.7c-2.8,3.1-5,6.4-5.7,10.7
		s-0.9,8.7-1.9,12.9c-1.1,4.5-1.7,9.1-1,13.7c0.1,0.8,0.1,1.8-0.1,2.6c-1.7,8.4-3.9,16.8-6,25.1c-1.2,4.5-1.9,8.9-0.6,13.6
		c1.8,6.7,3.7,13.5,4.7,20.4c0.5,3.7,1.3,7.5,0.6,11.1c-1.1,5.8-0.2,11.5,1.1,17c1.9,8,3.4,16.1,3.4,24.4c0,0.9-0.1,1.8,0.1,2
		c5.2,3.9,8.8,8.7,13.1,12.1c1.4,3.6,2.6,6.8,3.9,10c1.3-0.1,0.9-1.6,1.9-1.8c1.6-0.1,3.2-0.2,4.8-0.4c1.1,2.2,1.8,4.3,0.6,6.7
		c-1.5,0.2-3,0.3-4.4,0.5c-0.9-1.5,0.7-3.2-1.5-4.4c-0.6,3.2-1.1,6.2-1.6,8.8c-1.4,1.4-3.4,1.4-4,3.1c1.7,1.2,3.2-0.1,4.7-0.5
		c1.5,3.1,2.6,6.3,4.3,9.2c2.1,3.4,4.7,5.8,8.9,5.8c0.2,0,0.3,0.3,0.5,0.6c-0.1,0.5-0.1,1-0.2,1.5c-1.7,10.7-4.2,21.3-6.8,31.8
		c-1.6,6.6-2.2,13.6-5.6,19.7c-0.2,0.4-0.3,1-0.4,1.4c-0.2,4.3-1.7,8.3-2.6,12.4c-0.5,2.1-1.1,4.1-2.5,5.8c-1.1,1.4-1.7,3.1-1.9,4.8
		c-0.1,2-0.7,3.9-1.4,5.8c-1.6,4.3-2.5,8.9-2.9,13.4c-0.3,3.4,0.3,7,0.6,10.4c0.8,9.4-0.9,18.4-3.2,27.4c-0.5,1.8-1.9,3.2-2.1,5.1
		c-0.8,7.2-3.1,14.1-4.6,21.2c-0.5,2.3-0.7,4.7-1.5,6.9c-1,3-1.7,6.1-1.9,9.1c-0.4,7-1.6,13.9-2,20.8c0,0.6,0,1.3-0.6,1.7
		c-0.7,0.3-1.5,0.1-2.2,0c-3.6-1-6.6,0.9-9.6,2.4c-2.2,1.1-2,3.6-2.6,5.6c-0.5,1.6-1,3.2-3,4.3c0.2-1.9,0.2-3.4,0.5-4.8
		c1.2-5.6,1.5-11.1,1.1-17c-0.9-11.1-2.2-22.1-3.6-33.1c-1.4-10.9-1.1-21.7-0.7-32.5c0.1-3.2,0.2-6.5,1-9.7
		c2.8-11.1,5.9-22.2,8.9-33.3c2.7-9.9,4.6-19.6,3.5-29.9c-0.1-1.1-0.2-2.3,0-3.4c0.5-2.8,0.1-5.5-0.4-8.2c-0.3-1.7-0.3-3.5-0.4-5.2
		c-0.2-5.8,0.7-11.7,0.1-17.5c-0.4-3.8-0.1-7.7-0.1-11.6c3.9-3.9,3.9-3.9,6.7-16.8c2.3,1.9,4.1,0.2,5.8-0.9c2.3,0.9,4.5,2,6.7,0.2
		c1.7-6.4,1.8-7.8,0.2-10c-1,2.9-0.5,6.1-1.8,8.7c-1.6,0.3-2.9,0.2-4.3-0.5c0.1-1.4,0.2-2.7,0.4-4.1c0.1-1.4,0.7-2.9-0.5-4.5
		c-2.1,3-0.3,6.7-2.7,9.2c-1.6,1.1-2.8,0.2-4.2-0.9C372.1,422.6,372,422.2,372.2,421.8z M391,421.6c-1.2,1.2-3.1,1.2-4.4,2.4
		c2.4,1.5,5.2,1,6.4-1.6c1.4-2.9,1.2-6,0.7-9.2C391.3,415.6,392.8,419,391,421.6z M386.5,509.6c-2.3,1.4-2.5,4.5-5.1,6.5
		c6.2-1.8,8.3-5.7,6.3-11.1C385.9,506.4,386.8,508.1,386.5,509.6z M368.5,310.8c0.2-3.8-0.9-8.2-2.9-10.6
		C365.7,304.1,367.2,307.2,368.5,310.8z M385,405.8c-0.4,1.6,1.2,2,1.7,3c0.6,1.2-0.8,3.1,1.1,4C388.4,409.3,387.8,407.7,385,405.8z
		 M382.9,533.5c-2.3,1.5-2.3,3.5-2.1,6.3C382,537.4,383.3,535.9,382.9,533.5z M379.1,544.9c-1.6,1.6-1.6,3-0.8,5.2
		C379.4,548.2,379.4,546.7,379.1,544.9z M373.8,507c-0.7-0.7-1.2-0.5-1.4,0.3c-0.2,1.5-0.4,3.1-0.6,5.3
		C373.5,510.5,373.3,508.6,373.8,507z M368.9,316.9c0.5-2.5,0.5-2.5-0.2-4.6C367.6,313.9,369.1,315.4,368.9,316.9z M356.6,317.9
		c-1,2.3-1,2.3,1.1,5.2C357.4,320.7,357.5,319.2,356.6,317.9z M379.8,243.4c-2.1,0.3-2.8,2.3-4.1,3.6
		C377.9,246.6,379,245.2,379.8,243.4z M394.3,408.9c-0.7,1.9-0.7,1.9,2.1,3.6C395.9,410.7,395.2,409.8,394.3,408.9z M370.7,389
		c1-2-0.3-2.5-1.7-2.9C369.1,387.3,369.2,388.5,370.7,389z M393.5,407.3c-0.6-1.4-1.2-2.7-1.8-4.1
		C391.4,405.1,391.7,406.6,393.5,407.3z M379.1,411.9c1,0.2,0.5-0.4,0.3-0.8c-0.1-0.2-0.3-0.4-0.6-0.7
		C378.6,411.2,378.5,411.8,379.1,411.9z"/>
	<path fill="none" d="M478.7,463.4c0,0.5,0,1.1-0.2,1.4c-1.5,1.8-1.3,4-1.5,6c-0.5,4.8-0.9,9.7-1.3,14.5c-0.4,4.5-1,8.9-0.2,13.4
		c0.8,5,0.8,10,0.4,14.9c-0.5,6.3,0.1,12.3,1.5,18.4c0.7,2.9,1.3,5.8,1.8,8.8c2.4,12.6,1.5,25.4,0.9,38.1
		c-0.4,7.5-1.1,14.9-1.1,22.4c0.1,7,0.8,14,0.5,20.9c-0.1,2,0,3.9,0.7,5.9c-1.7,0.3-3.6,0.6-4.1,1.9c-1.1,3.1-3.9,4-6.2,5.5
		c-1.4,2.7-2.6,5.4-4.4,7.7c-2.3-0.1-2.9-1.8-3.6-3.4c0.6-2.5,0.6-2.5,0.2-4.6c2-3.4,2-3.4,1.1-7c-0.5-1.9-0.9-3.9-1.4-5.8
		c-1.4-6.2-2.5-12.5-4.3-18.6c-2.6-8.7-5.2-17.4-8.6-25.9c-1.3-3.2-2.7-6.5-2.9-10c-0.4-11,0.6-21.9,2.4-32.5
		c-2.2-5.3-2.8-10.8-3.9-16.1c-1.3-6-0.7-12.2-1.6-18.2c-0.9-6.4-0.9-12.8-2.5-19.2c-2.1-8.1-4.4-16.1-7.2-23.9
		c-3.3-9-5.6-18.4-7.7-27.7c-0.4-1.6-0.5-3.2-0.2-4.9c9.4-1.5,18.4-5.1,27.9-5.5c5.3,9,12.9,14.1,23.8,14.9
		C478.2,444.5,479.1,453.9,478.7,463.4z M457.4,509.6c-0.1-1.6,1.1-2.9,1-4.7c-2-0.3-2.6,0.9-2.3,2.3c0.3,1.6-0.3,2.9-0.7,4.3
		c1,3.4,2.4,6.5,4.4,9.9C461.6,516.7,458.2,513.4,457.4,509.6z M462.5,548.9c0.7-3.3,0.9-3.4-0.1-6.5c-0.5-1.6,0.2-4-2.7-5
		C460.2,541.5,461.5,544.9,462.5,548.9z M463.9,560c-0.7-2.6-0.3-4.8-2.1-7.5C461.2,555.7,461.4,557.9,463.9,560z M470.5,509.2
		c0.1,2,0.3,3.7,0.4,5.7C472.6,511.6,472.6,511.3,470.5,509.2z M466.4,616.6c0.8-3,0.8-3,0-4.4C466.3,613.7,465.8,615.2,466.4,616.6
		z M467.5,620.5c-1.4,1.3-1.5,2.5-0.2,3.8C467.4,623.2,467.4,622,467.5,620.5z M462.7,565.3c-0.6,1.2-0.5,2.1,0.7,2.8
		C463.9,567.1,463.9,566.2,462.7,565.3z M466.7,629.3c0.7-0.8,0.7-0.8-0.1-1.8C466.1,628.1,466,628.7,466.7,629.3z"/>
	<path fill="none" d="M383.3,329.2c2.6-4.3,2.6-9.3,4.8-13.7c0.3-7.5,0.8-15-2.4-22.1c-0.2-0.5-0.6-1.1,0.1-2c2-0.6,4.2-1.3,6.5-1.2
		c1.2,1.9,2.6,3.4,5.2,4.2c-1.2-1.9-3.3-2.6-3.9-4.7c7.6-1.9,15.1-3.1,22.7-3.2c3.1,0,6.2-0.2,9.3-0.5c7.2-0.8,14.4-1.3,21.6-0.4
		c5.3,0.7,10.5,1.5,15.6,3.3c-0.9,6.1-1.9,11.8-2,17.7c-0.1,9.4,1.7,18.6,3.9,27.7c1.7,7,2.5,14.1,3.4,21.5
		c-3.5,0.3-6.6,2.4-10.4,1.2c-1.4,0.8-2.9,1.7-4.8,2.2c-7.7,1.8-15.5,2.6-23.4,2.8c-8.8,0.2-17.3-1.9-25.9-2.4
		c-1.7-1.1-2.8-2.9-4.7-3.6c-0.4,1.6,1.5,2.2,1,3.5c-3.8-0.2-3.8-0.2-6.5-2.2c-4.8-0.4-9.2-0.2-13.2-2.5c-1.7-5.5-0.8-11-1.3-16.4
		C380.6,335,381.6,331.9,383.3,329.2z M432.5,331.8c-1.1,0.3-1.4,1.5-2.4,2.1c0.2,0.4,0.3,0.8,0.6,1c1.6,0.9,3,0.5,4.6-0.4
		C434.9,332.4,433.9,332,432.5,331.8z M417.8,329.8c0.3-4.3,1.3-8.5-0.2-12.8C417.9,321.3,416.9,325.6,417.8,329.8z M450.6,333.6
		c1.1-2.2,0.4-3.7,0.5-5.2C450,329.8,450.4,331.3,450.6,333.6z M449.2,350.5c0.8-1.2,1.5-2.1,0.9-3.9
		C449.8,348.1,448.9,348.9,449.2,350.5z M417.2,339.4c-0.8,0.6-1,1.4-0.9,2.5C417.2,341,417.3,340.3,417.2,339.4z"/>
	<path fill="none" d="M457.1,208.3c1.2,3.4,3,6.4,6.1,8.4l-0.1-0.1c3.4,7.4,8.2,13.9,12.2,20.9c3.4,6,4.7,12.2,4.9,18.9
		c0.1,2.1-0.7,4.1-1.7,6.1c-2,3.7-4.5,6.9-7.1,10c-2.7,3.3-5.3,6.6-7.1,10.5c-0.5,1.2-0.3,2.8-1.7,3.6c-10.1-3.6-20.5-5.2-31.3-4
		c-5.3,0.6-10.7,0.9-16,1.3c-3.4,0.2-6.7,0.3-10,1c-6.8,1.5-13.6,2.7-20.6,4.1c-1.1-1.7-1.4-3.7-2.1-5.6c-1.1-2.8-1.4-5.7-0.7-8.8
		c0.7-2.8,0.8-5.7,1.1-8.5c0.1-1.2,0.2-2.5,0.9-3.2c-1.3-4.2,0.3-8.4-0.7-12.1c1.3-1.8,2.4-3.3,3.8-4.6c4.7-4.4,7.6-10.2,11.6-15.1
		c0.3-0.4,0.4-0.9,0.6-1.4c1.6-3.9,2.9-8,3.9-12.1c1-4.4,1.5-8.9,0.7-13.4c-0.9-5.1-1.8-10.3-3.4-15.3c-0.2-0.6-0.2-1.2,0.6-1.4
		c0.2,0.2,0.4,0.3,0.5,0.5c3.2,10.3,3.5,21.1,6.3,31.4c-0.3,4.5,2.6,6.9,5.9,8.7c3.7,2,7.6,3.7,11.6,5.2c8.7,3.3,17.5,3.2,26.5,1.2
		c2.5-0.6,3.8-2.1,4.7-4.3c0.6-1.5,0.8-3.1,0.8-4.8c0.1-4.5-1.4-8.6-3.4-12.5c-2.6-5.2-5.1-10.4-7.8-15.8c5.7,3.4,5.7,3.4,8.4,7.8
		C455.2,206.1,455.6,207.7,457.1,208.3L457.1,208.3z M411.6,271.7c-3.7,0.7-7.8,0.1-11.7-0.8c-4.9-1.2-9.8-2.4-14.4-5.2
		c-0.1,1.6,0.9,2,1.7,2.5c3.7,2,7.6,3.7,11.6,5c2.2,0.7,4.4,1,6.6,0.7c5.8-0.8,11.6-1.4,17.1-3.3c2.2-0.8,4.4-1.7,6.3-3.2
		c0.5-0.4,1.2-0.9,1.3-2.5C424.2,269,417.9,270.6,411.6,271.7z"/>
	<path fill="none" d="M397.9,361.6c4.7,0.7,9.4,0.8,14.1,1.6c11,2,22.1,2.1,33.1,0.2c6.9-1.1,13.7-2.9,20.4-4.8
		c0.9-0.3,1.9-0.8,3.3,0.1c0.3,6.8,1,13.8,1.8,20.9c-1.4,0.5-2.7,0.9-4,1.3c-8.5,2.6-13.8,8.5-15.6,17c-1.4,6.3-2.2,12.7,0.6,19.1
		c-8.9,1.5-17.4,3.4-26.1,6.4c0.4-5.8-0.2-11.1-1.2-16.3c-1.1-5.8-2.8-11.3-5.9-16.4c-2.4-4-5.7-6.2-10.5-5.6
		c-1.2,0.1-2.5,0.3-3.7,0.3c-2.4,0.1-4,1.4-5.1,3.3c-0.9,1.6-1.6,3.4-1.9,5.2c-0.2,1.3-0.6,2.5-0.9,4.1c-1.8-1.8-3.1-3.5-5.4-3.2
		c-1.8-3.7-4.9-6.2-6.6-9c-1.2-9.5-2.2-18.3-3.4-27.3C386.7,359.6,392.3,360.7,397.9,361.6z M428.9,404.9c-1.9,0.8-2.9,1.5-3.5,2.8
		C426.8,407.5,427.7,406.6,428.9,404.9z M391.3,364c-0.9-0.6-1.6-1.1-2.7-1C389.2,364,390.1,364.1,391.3,364z"/>
	<path fill="none" d="M480.5,274.7c0.4,4.8,1.3,9.5,4.4,13.3c5.6,6.9,7.6,15,8.4,23.5c0.5,5.5,0.3,11,0.8,16.4
		c1.2,12.7,2.8,25.3,4.2,37.9c0.4,3.9,0.7,7.9,0.7,11.9c0,3.8,0.3,7.4,1.7,11c1.7,4.3,3.1,8.6,4.7,13c-1.5,1.5-1.8,3.7-4.1,4.4
		c-0.9-1.8-1.2-3.5-1.5-5.2c-1.3-7.4-5.5-12.9-11.4-17.3c-0.9-0.7-2-1-2.7-2.1c0.3-0.6,0.5-1.3,0.8-2c1.3-2.6,2.3-5.4,1.9-8.3
		c-0.8-6.2-1.5-12.4-4.3-18.1c-2.2-4.6-3.7-9.5-5.8-14.2c-3.3-7.5-5.6-15.1-6.9-23.2c-1.3-8.5-4.7-16.6-5.3-25.2
		c0-0.7-0.6-1.3-1-2.1c1.4-1.9,0.5-4.6,1.9-6.3c1.4-1.7,2.4-3.7,3.8-5.3c2.8-3.2,5.6-6.6,8.5-10.1
		C480.4,269.5,480.3,272.1,480.5,274.7z M478.4,293.5c-2.1,1.6-2.3,2.3-1.3,5.1C477.6,297,478,295.3,478.4,293.5z M472.4,297
		c0.1-1.5-1.1-0.9-1.9-1.3C470.8,296.8,471.4,297.1,472.4,297z M480.8,287.4c-0.5-0.4-0.9-0.2-1,0.3c-0.1,0.3,0,0.7,0,1.1
		C480.5,288.5,480.8,288,480.8,287.4z"/>
	<path fill="none" d="M452,399.1c1.5-8.7,8-15.6,16.5-17.2c7.3-1.4,13.6,1,18.8,6.1c8.3,8,11.2,17.9,8.5,29c-2,7.9-6.8,13.6-15,15.7
		c-8,2-14.9-0.7-20.6-6.2c-5.9-5.7-9.3-12.9-8.8-21.3C451,403,451.6,401,452,399.1z M476.4,406.8c-1.4-3.5-4.4-5-8-3.9
		c-1,0.3-2.1,0.6-3.1,0.9c-0.9,1.2-1.5,2.4-1.8,3.9c0.5,0.4,0.9-0.1,1.5,0c0.2,1.3,0.3,2.6,0.5,3.9c-0.9-0.2-0.6-1.3-1.4-1.9
		c-0.1,3.6,2.1,5.4,4.5,7c2.2,1.4,4.7,0.8,7.2-1.3c-0.4-0.5-0.9-0.1-1.4-0.2C476.7,412.8,477.7,410.1,476.4,406.8z M495.1,406.7
		c-1.6-10.1-7.2-17.6-16.8-21.8c-3.3-1.5-6.9-2.4-10.6-1.4c-5.3,1.4-9.3,4.6-11.5,9.7c-1.2,1.1-2,2.4-2,4.7c0.9-1.9,2-3,2.3-4.4
		c1.8-2.5,3.9-4.8,6.5-6.6c2.7-1.9,5.5-2.7,8.8-2.3c11,1.3,21.1,11.7,22.1,22.7c0.4,4.3,0.2,8.5-1.8,12.4c-0.4,0.7-0.6,1.4-0.4,2.1
		c-0.9,0.1-1,0.9-1.3,1.5c0.9-0.1,1.3-0.7,1.2-1.6C495.3,417.4,495.9,412,495.1,406.7z"/>
	<path fill="none" d="M495.4,659c-0.1,0.7-1.1,1.1-0.2,2.4c2.6,0.9,5.4-0.2,8-1.2c1.5,1.3,2.9,2.4,4.4,3.3c3.6,2.1,5,5.3,4,9.5
		c-12.5,2.5-12.5,2.5-14.7,5.3c2.6-1.2,5.4-1.8,8.2-2.2c2.7-0.4,5.4-1.1,8.4-0.4c-1.1,1.9-2.6,2.3-4,2.5c-3.8,0.5-7.7,0.8-11.5,1.3
		c-1.9,0.2-3.3-0.7-4.2-1.9c-6.5,0.4-12-2-17.5-3.6c-1.3-7.5-2.7-8.8-6.4-8.2c0.5,1.8,2.9,1.9,3.6,4.2c-5.9-0.9-11.5-2.1-17.2-3.9
		c0.4-2.3,0.8-4.3,1-6.4c0.5-4.9,4.5-8.9,3.3-14.5c1.2,0.5,1.9,0.9,2.6,1.1c3.1,1,4.2,0.4,5.4-2.6c0.3-0.7,0.5-1.4,0.8-2.1
		c0.7-1.4,1-3.4,2.5-4.1c3-1.4,5.2-3.7,7.5-5.9c2.4,0,4.6-0.6,6.8,0.7c0.5,3.2,1.8,6,3.4,8.7c-10.5,0.4-13.2,1.1-15.3,4
		c0.3,0.7,0.9,0.8,1.5,0.7c1.8-0.3,3.7-0.7,5.5-1c3.2-0.6,6.4-1.2,9.6-0.5c0.7,0.2,1.5,0.2,1.3,1.3c-7.8-0.6-15,1.3-17.4,4.8
		c3.4,1.3,6.4-0.4,9.4-0.7c3.2-0.3,6.4-0.9,9.6-0.5c0.7,0.4,1.1,1.1,1.4,1.7c0.2,0.3,0.1,0.5-0.1,0.6c-7-1.4-12.7-0.6-15,2.2
		c0.6,1.7,2.1,1.3,3.4,1.2c4.2-0.2,8.5-0.5,12.7-0.7c0.9,0,2-0.2,2.3,1.2c-8.9,0.3-9.7,0.3-11.7,2.4
		C489.6,660.6,492.8,657.8,495.4,659z"/>
	<path fill="none" d="M389.8,687.8c0.2-2-1.3-2.2-2.6-2.3c-7.3-0.5-14.4,0.5-21.1,4c-2.9-0.6-6-0.8-9.2-0.9c-3-0.1-5.3-1.4-6.3-4.4
		c-0.2-0.6-0.5-1.1-0.9-1.9c-1.5-0.9-3.2-1.9-4.7-2.7c-0.8-2.4,1.2-4.8-0.3-6.5c0.6-8.5,3.1-16.2,6.5-23.6c2.2,2.6,2.2,2.6,7.6,2.2
		c2-2.8,2.5-6.4,3.8-9.6c3.2-1.8,6.5-3.2,10.1-2.4c1.2,1,2,2.1,2,3.3c0,3,1,5.8,2.1,8.6c-12.1,0.3-13.2,0.6-15.5,3.4
		c0.1,0.2,0.2,0.6,0.3,0.6c5.5,0.5,11.1-1.7,17.1,0.3c0.3,0.2,1.2,0.7,1.3,2c-5.5-2.1-11-1.9-16.5-0.8c-1.3,0.3-2.7,0.5-2.9,2.1
		c0.3,0.9,0.9,1.4,1.5,1.4c6.3,0.1,12.6,0.5,19,0.1c0.5,0.7,0.8,1.6,0.2,2.5c-5.8-1.8-11.6-1.7-17.4-0.7c-1.2,0.2-2.4,0.7-2.6,2.3
		c1.5,1.8,1.5,1.9,3.6,1.7c3.7-0.3,7.5-0.4,11.2-0.2c2,0.1,3.9-0.2,5.9-1.1c0.3,1.5,0.5,2.6,0.8,4c-5.1-0.9-10.1,0-15-0.7
		c-1.3-0.2-2.8-0.2-3.4,1.5c1.4,1.7,1.4,1.8,2.1,1.9c5.7,0.7,11.5,1.6,17.1-0.1c2.5,4.4,4.2,9.3,7.4,13.3c0.6,0.8,0.5,1.6-0.1,2.4
		C390.4,687.7,390.1,687.7,389.8,687.8L389.8,687.8z M372.2,673.9c2.4,3.7,6.2,4.1,11.3,1.1C379.9,674.4,376.3,673.1,372.2,673.9z
		 M348,671.7c-0.2,3.1,0.4,5.4,1.5,7.7C350.5,676.7,350.2,674.3,348,671.7z"/>
	<path fill="none" d="M471.5,364.8c-0.9-7-1.8-14.1-2.8-21.1c-1.4-10.2-5-20-5.3-30.5c-0.1-4.2-0.1-8.5,0.1-12.7
		c0-0.4,0.1-1,0.9-0.9c0.4,5.2,1.8,10.3,3.3,15.3c0.6,2,1.3,4.1,1.6,6.1c0.9,5.7,2.8,11.1,5.2,16.3c0.4,0.8,1.2,1.7,1,2.3
		c-0.8,2.8,0.9,4.8,2,6.9c3.8,7.5,6.3,15.4,7.8,23.7c0.3,1.6,0.4,3.2-0.1,4.9c-1.8,1.4-3.7,2.8-5.3,4c-2.3,0-4.3,0-6.7,0
		C472.7,374.2,472.1,369.5,471.5,364.8z"/>
	<path fill="none" d="M342.6,403.3c0.5-3.1,1.3-6.1,3-8.8c2.1-3.2,4.6-3.5,7.5-0.9c2.3,2.1,3.9,4.9,5,7.8c4,9.9,5.2,20.2,3.6,30.8
		c-0.5,3.2-1.3,6.4-3.5,8.9c-1.8,2.2-4,2.4-6.2,0.7c-1.5-1.1-2.6-2.6-3.6-4.3c-4.8-8.1-6-17-6.6-26.1
		C341.8,408.7,342.2,406,342.6,403.3z M357.2,440.3c-0.9-0.8-1.5,1.1-2.5,0.3c-2.3-2.7-4.1-5.9-5.8-9.3c-2.4-4.8-2.6-10.1-3.2-15.2
		c-0.1-1.1-0.2-2.3-0.4-3.3c-1.5-6.2,0.4-11.8,3.3-17.2c0.5-0.9,1.3-1.3,1.9-1.9c-1.4-0.8-2.5-0.3-3.2,1c-2.1,3.8-3.8,7.8-4.1,12.3
		c-0.4,6.3,0.8,12.4,1.9,18.5c1,5.2,3.7,9.7,6.5,14.1c0.8,1.2,1.9,1.9,3.2,2.5C355.8,441.7,356.6,441.1,357.2,440.3z M357.5,419.9
		c-1.1-3.3-0.8-7.5-4.9-9.2c-1.3-0.2-2.1,0.8-3,0.8c-2.6,4.3-2.1,8.6,1.5,12.8c1.4,0.1,2.8-0.4,4.2,0.1
		C356.8,422.9,358.1,421.7,357.5,419.9z"/>
	<path fill="none" d="M401.4,416c0.8-0.1,1.7-0.2,2.5-0.3c1-0.1,2-0.2,2.8-0.9c1.8-3.6,1.5-5.9-1.4-8.6c-2.1-0.3-4.1,0.9-6.2,0.4
		c-2-5.2-1.5-13,1.1-17.4c0.2-0.3,0.4-0.6,0.6-0.9c1.6-2,3.2-2.2,5.2-0.7c2,1.4,3.3,3.4,4.4,5.5c5.3,11.1,7.4,22.6,5.3,34.8
		c-0.5,2.7-1.3,5.4-4,7.2C405.5,434.5,398.8,422.2,401.4,416z"/>
	<path fill="none" d="M381.4,287.5c1.8,4.6,2.8,9.3,4.3,13.9c1.5,4.7,1.4,9.3-0.3,14c-0.8,2.1-1.6,4.2-2.4,6.3
		c-1.1,2.7-2.9,5.2-3.1,8.3c-0.1,0.7-0.5,1.5-1.5,2.3c-0.7-5.9-2.4-11.2-3.9-16.6c-0.6-2.2-1.2-4.3-1.1-6.6
		c0.4-8.9,2.5-17.4,6.8-26.2C380.7,284.9,380.9,286.3,381.4,287.5z"/>
	<path fill="none" d="M508,383.4c4.6,5.6,6.9,12.1,6.7,19.3c-0.2,5.8-2,11-6.1,15.3c-2.9,3-6.4,4.9-11,5.6c2.3-5.1,3.6-9.9,3.8-15.1
		c2.8-1.5,4.9-3.5,5.9-6.5c0-1.1-0.2-2.2-0.6-3.3c-1.5-4.1-2.9-8.2-4.3-12.3c-0.8-2.2-1.3-4.5-0.8-7.1
		C504.4,379.9,506.3,381.5,508,383.4z"/>
	<path fill="none" d="M364.4,396.9c6.1,11.7,7.9,24.1,5.1,37c-1.5,6.6-3.3,7.8-10.4,8.6c1.9-2.4,3.2-5.1,3.8-8.1
		c2.6-15.6,0.9-30.2-9.3-43C358.4,390.6,362.1,392.4,364.4,396.9z"/>
	<path fill="none" d="M417.5,426.6c1.4-14.7-0.8-28.5-10.2-40.3c5.3-0.2,6.9,0.6,9.7,5c0.5,0.7,0.9,1.5,1.3,2.3
		c4.7,10.6,7,21.5,5,33.1c-1.1,6.2-2.9,7.7-9,8.2C416.2,432.1,417.3,429.5,417.5,426.6z"/>
	<path fill="none" d="M463.2,216.7c-1.6-3.1-3.6-5.9-6.1-8.4l0.1,0.1c-0.3-2.8-3.1-4.7-3-8.2c3.5,1.8,6.8,3.3,9.8,5.2
		c6.4,4,11,9.2,12,17.1c0.5,4.2,1.7,8.3,2.5,12.5c0.2,1.2,0.6,2.3,0,3.5c-0.4-0.2-0.7-0.2-0.8-0.4c-1.6-4.4-4.3-8.1-6.4-12.2
		c-2-3.7-5-6.7-8.3-9.3L463.2,216.7z"/>
	<path fill="none" d="M399.5,150.4c0.2,8,2.9,15.4,3.5,23c-2.2-3.4-2.4-7.4-3.4-11.1c-1-3.7-1.6-7.4-2.4-11.1
		c-0.8,5.3,1.4,10,2.2,14.4c0,1.3-1.3,0.8-1,2.5c0,0.1,0.2,1,0.3,1.9c0.1,1.1,0.1,2.2,0.1,3.3c-0.5-0.2-0.7-0.7-0.8-1.2
		c-2.6-9.7-3.2-19.6-3.8-29.6c-0.1-2,0.2-4.1,0.4-6.4c1.7,0.8,1.3,3.4,3.4,3.3C395.5,143.6,396.7,147.3,399.5,150.4z"/>
	<path fill="none" d="M494.6,424.1c0-0.4,0-0.8,0.2-1.1c8.5-14.3,0.2-36-14.8-41.3c-0.4-0.1-0.8-0.4-1.3-0.8c0.5,0,0.9-0.1,1.2,0
		c17,4.9,24.6,25.9,16.7,40.7C496.2,422.6,495.9,423.8,494.6,424.1L494.6,424.1z"/>
	<path fill="none" d="M515.7,390.8c3.5,8.6,1.4,21-3.2,24.2c1.6-3,2.7-5.7,3.2-8.7c0.4-2.9,0.4-5.7,0.1-8.6c-0.4-3-1.3-5.8-2.6-8.6
		c-1.2-2.6-2.9-4.9-4.7-7.2c-1.9-2.4-5-3.1-7.5-5.2C506.6,377,512.5,383,515.7,390.8z"/>
	<path fill="none" d="M389.7,687.8c-0.5,1.5-1.9,1.3-3.1,1.5c-4.8,0.5-9.6-0.5-14.9,1c1.1-1.3,2-1.4,2.8-1.6
		C379.6,687.3,384.7,687.7,389.7,687.8L389.7,687.8z"/>
	<path fill="none" d="M404.3,169.5c-1.2-5.4-3-10.6-2.9-16.2C401.8,158.7,404.3,163.9,404.3,169.5z"/>
	<path fill="none" d="M353.9,640.2c0.1,2.7,0.7,5.3,0.4,8.1C351.6,646.5,351.6,646.1,353.9,640.2z"/>
	<path fill="none" d="M365.8,387.6c1.8,3,1.2,5.7-0.1,9.1C364.4,393.2,365.4,390.6,365.8,387.6z"/>
	<path fill="none" d="M481.6,379.7c0.6-0.9,1.4-1.5,2.5-1.8C483.3,380.5,483.3,380.5,481.6,379.7z"/>
	<path fill="none" d="M401.2,173.2c1.2,1.8,2,3.3,2.1,5.1C402,177,401.2,175.5,401.2,173.2z"/>
	<path fill="none" d="M399.3,140.8c0.5,1.7-0.5,3.2-0.7,4.8l0.1-0.1c-1.4-1.8-0.2-3.1,0.7-4.6L399.3,140.8z"/>
	<path fill="none" d="M399.4,140.9c1.3-1.8,2.1-0.7,3.3,0.7c-1.4-0.4-2.4-0.6-3.4-0.8L399.4,140.9z"/>
	<path fill="none" d="M403.5,154.6c1.1,0.8,0.7,1.5,0.1,2.5C403.1,156.2,402.9,155.5,403.5,154.6z"/>
	<path fill="none" d="M494.6,424.1c0.1,0.9-0.3,1.5-1.3,1.6c0.2-0.4,0.3-0.7,0.6-1C494,424.5,494.4,424.3,494.6,424.1L494.6,424.1z"
		/>
	<path fill="none" d="M641.6,421.5c1.5-4.5,0.4-8.7-0.8-13c-1.5-5.2-3.5-10.4-2.6-16.1c0.4-2.5-0.4-4.9-1.1-7.3
		c-0.4-1.3-0.8-2.6-1.1-3.9c-1.5-6-2.7-12.2-4.6-18.1c-2.9-9.4-6-18.7-8.4-28.3c-1.9-7.4-2.5-14.8-1.6-22.7c1.6,1.4,1.7,3.6,3.4,4.6
		c-1.7-4.4-2.4-9.1-5.1-12.9c0.5-3.1,0.6-6.1,0.5-9.1c-0.2-4.6-0.4-9.2-0.5-13.8c-0.1-4.1-0.1-8.2,0.4-12.3c0.9-7,1.5-14.1,1.3-21.3
		c-0.2-7.8-0.4-15.8,3.5-23c0.1-0.2,0.3-0.4,0.4-0.6c0.6-0.2,1.2,0.6,2.1-0.6c0.4-1.9,1.2-4.3,2.7-6.3c2.4-3.2,4.7-6.5,7.3-9.5
		c1.9-2.1,4.1-4.2,6.7-5.2c8.5-3.2,16.3-7.6,24.2-12.4c2.9,7.2,2.5,14.7,2.4,21.9c-0.1,6.1-2.8,11.9-4.8,17.6
		c-0.2,0.7-0.7,1.3-1.3,1.8c-2.5,2.6-4.5,5.6-6.7,8.5c-1.3,1.7-2.2,3.8-4.9,5.4c1.4-4.9,4.9-8.1,5.5-12.6c-3.6,3.3-6.7,6.8-7.6,11.9
		c-0.6,3.1-0.7,6.2-1.3,9.2c-1.2,6.3-2.7,12.7-1.6,19.2c0.1,0.6-0.1,1.2-0.3,1.8c-1.8,8.4-3.9,16.7-6.1,25c-1,3.6-1.7,7.3-0.9,11.1
		c0.6,2.7,1.2,5.4,2,8c1.7,5.1,2.4,10.5,3.4,15.7c0.6,3.1,1,6.5,0.4,9.7c-1.2,5.9-0.1,11.7,1.2,17.4c1.8,7.9,3.3,15.9,3.3,24
		c0,1-0.1,2,0.7,2.7c4.5,3.6,8.2,8.1,12,11.1c2.2,3.8,2.7,7.4,4.7,10.6c0.7-0.8,0.7-1.7,1.9-2.2c1.2-0.1,2.8-0.2,4.4-0.3
		c1.2,2.2,1.8,4.2,0.8,6.6c-1.5,0.3-3.1,0.7-4.5,0.6c-0.9-1.4,0.5-3.1-1.4-4.6c-0.6,3.3-1.1,6.3-1.6,9c-1.4,1.5-3.4,1.4-4.1,3.1
		c1.7,1.3,3.1-0.2,4.7-0.4c1.6,3.1,2.6,6.5,4.5,9.4c2.1,3.3,4.6,5.5,8.7,5.5c0.2,0,0.3,0.3,0.5,0.5c-0.1,0.5-0.1,1-0.2,1.4
		c-1.8,11.1-4.5,22-7,32.9c-1.5,6.4-2.3,13-5.4,19c-0.6,1.1-0.4,2.7-0.7,4c-1.3,5.4-1.7,11.1-5.1,15.8c-0.9,1.2-1.4,2.7-1.5,4.2
		c-0.1,2-0.8,3.9-1.4,5.8c-0.7,2.2-1.5,4.4-2.1,6.6c-0.7,2.2-0.2,4.5-0.7,6.8c-0.7,3.2,0.1,6.7,0.5,10c0.9,9.3-0.8,18.4-3.1,27.4
		c-0.5,1.8-1.8,3.2-2.1,5.1c-1.1,8.1-3.5,15.8-5.2,23.7c-0.3,1.6-0.2,3.2-0.9,4.8c-1.3,2.9-1.8,6.1-1.9,9.1c-0.4,7-1.6,13.9-2,20.8
		c0,0.6,0,1.3-0.6,1.8c-1,0.4-1.9,0-2.9-0.1c-3.4-0.7-6,1.2-8.8,2.5c-2.1,1-2,3.3-2.5,5.2c-0.5,1.8-1.1,3.4-2.8,4.6
		c-0.4-1.6,0-3,0.3-4.3c1.3-6,2.1-11.9,1-18.1c-1-5.4-0.5-11-1.5-16.4c-1.4-7.6-1.7-15.4-2.8-23c-0.9-6.6-0.2-13.2-0.2-19.8
		c0-8.7,1-17.2,3.9-25.4c2.8-8.3,4.1-17,6.7-25.3c2.8-9,3.7-18.2,3-27.7c-0.3-4.8,0.1-9.7-0.9-14.5c-0.1-0.6,0-1.2,0-1.9
		c-0.1-6.5,0.7-12.9,0-19.4c-0.3-3.3-0.1-6.7-0.1-10.3c5.5-4.1,5.7-10.5,6.6-16.7c2.6,1.6,4.3,0.3,5.9-0.9c3.9,1.5,3.9,1.5,7,0
		c0.3-3.1,2-6.3,0.4-9.7c-1.5,2.7-0.8,5.8-2.2,8.5c-1.5,0.4-2.8,0.1-4-0.4c-0.7-2.8,1.1-5.6-0.2-8.9c-2.3,3.1-0.5,6.8-2.8,9.3
		c-1.6,1.2-2.8,0.3-4.3-0.8C641.6,422.5,641.5,422,641.6,421.5z M656,423.9c2.4,1.7,5.6,0.9,6.6-1.8c1.1-2.8,1.1-5.9,0.6-8.9
		c-2.6,2.4-0.8,6.1-3,8.7C658.9,422.5,657.5,423.2,656,423.9z M655.9,509.6c-2.4,1.3-2.4,4.5-5.3,6.5c6.4-1.8,8.5-5.7,6.4-11.1
		C655.4,506.4,656.2,508.1,655.9,509.6z M637.9,311.1c0.4-3.7-0.7-8.1-2.5-10.3C635.3,304.2,636.7,307.2,637.9,311.1z M657.1,412.8
		c0.9-3.2,0.4-4.7-2.6-7.2c-0.5,1.6,1,2.1,1.7,3.3C656.6,410.2,655.5,411.8,657.1,412.8z M652.3,533.5c-2.3,1.5-2.3,3.5-2.1,6.3
		C651.5,537.4,652.7,535.9,652.3,533.5z M647.8,550c1.1-1.8,0.9-3.3,0.9-5.2C646.9,546.5,647,547.9,647.8,550z M642.9,506.7
		c-1.7,1.5-1.1,3.5-1.4,5.3C642.9,510.4,642.9,508.5,642.9,506.7z M638.6,311.6c-1.5,2.3-0.2,3.9,0.3,5.4
		C638.8,315.4,638.8,313.8,638.6,311.6z M649.3,243.5c-2,0.4-2.9,2.1-4.1,3.6C647.4,246.7,648.3,245,649.3,243.5z M626.7,322.9
		c0.3-2,0.2-3.6-1-5.4C625,319.6,625.3,321.1,626.7,322.9z M663.7,409c-0.6,2-0.6,2,2.1,3.5C665.3,410.7,664.7,409.7,663.7,409z
		 M638.4,386.1c0.2,1.1,0.2,2.3,1.7,2.9C641.1,387,639.8,386.6,638.4,386.1z M662.7,407.7c0.4-1.9-1.5-2.8-1.6-4.4
		C661.1,405.8,661.1,405.8,662.7,407.7z M648.9,412c0.5-0.7-0.4-0.9-0.6-1.4C648.1,411.4,647.9,412,648.9,412z"/>
	<path fill="none" d="M748.2,461.5c0,1.1,0.2,2.5-0.3,3.3c-1.4,2-1.4,4.3-1.5,6.5c-0.2,4.6-0.9,9.2-1.3,13.8
		c-0.3,4.6-1,9.2-0.3,13.8c0.8,5,0.7,10,0.4,14.9c-0.5,6.3,0.1,12.3,1.5,18.4c0.7,2.9,1.3,5.8,1.8,8.8c2.4,12.6,1.5,25.4,0.9,38.1
		c-0.4,7.5-1.1,14.9-1.1,22.4c0,7,0.8,14,0.5,20.9c-0.1,2,0,3.9,0.8,6.1c-1.9-0.2-3.7,0.5-4.1,1.7c-1.2,3.1-3.9,4-6.2,5.4
		c-1.5,2.7-2.6,5.4-4.4,7.7c-2.3-0.1-2.9-1.9-3.8-3.8c0.9-1.2,1.1-2.7,0.2-4c2.1-2.3,2.2-4.6,1.3-7.2c-0.5-1.5-0.9-3.1-1.2-4.7
		c-2.8-15.2-7-30.1-12.7-44.5c-1.4-3.6-3.1-7.1-3.2-11.1c-0.4-11,0.6-21.9,2.4-32.5c-2.2-5.2-2.8-10.7-3.9-16
		c-1.3-6-0.7-12.2-1.6-18.2c-0.9-6.4-0.9-12.8-2.5-19.2c-2.1-8.1-4.4-16.1-7.2-23.9c-3.3-9-5.6-18.4-7.7-27.7
		c-0.4-1.6-0.5-3.2-0.2-4.9c1.8-0.4,3.7-0.6,5.5-1.1c3.5-0.9,6.9-2.2,10.5-2.7c4.7-0.7,9.3-2,14.1-2.6c3.6-0.5,7-1.9,10.5-2.6
		c3.7-0.8,7.5-1.9,11.6-1c1.1,6.4,0.6,12.7,1.6,18.8c-0.9,0.6-1.6,0.4-1.9,1.3C747.5,444.1,748.4,452.8,748.2,461.5z M726.9,508.9
		c0.2-0.7,0.7-2.2,1.1-3.8c-2.2-0.8-2.7,0.5-2.5,1.9c0.3,1.7-0.4,3.1-0.8,4.4c1,3.5,2.5,6.4,3.9,9.5c0.1,0.3,0.4,0.3,0.8-0.2
		C730.9,516.7,727.7,513.5,726.9,508.9z M732.2,548.4c0.6-3.9-0.7-7.3-2.4-10.6C729.8,541.5,730.9,545,732.2,548.4z M732.9,559.4
		c0-3.7-0.2-4.5-1.6-6.1C730.6,556.8,730.7,557.1,732.9,559.4z M739.9,515.1c2.2-2.7,2.2-4,0.2-5.7
		C739.8,511.2,740.5,512.8,739.9,515.1z M735.8,616.5c0.9-2.2,0.9-2.2,0.3-4.2C735.7,613.6,735.3,615,735.8,616.5z M736.8,620.6
		c-1.2,1.2-1.3,2.3-0.3,4.5C736.9,623.2,737.1,622,736.8,620.6z M732.4,565.5c-0.8,0-0.6,0.6-0.6,1.1c0,0.6,0.1,1.3,1,1.5
		C733.3,567.1,733.3,566.3,732.4,565.5z M736.1,627.5c-0.7,0.5-0.5,1.1,0.1,2C737.1,628.6,737.3,628,736.1,627.5z"/>
	<path fill="none" d="M669.4,359.5c-2.8,0.3-5-1-6.1-1.9c-5.4-0.7-9.8-0.5-13.5-2.8c-1.6-5.7-0.8-11.2-1.2-16.5
		c1.6-3.3,2.9-6.6,4.6-9.6c2.3-4.2,3.6-8.9,4.3-13.4c1.1-7.4,1-14.9-2.3-22c-0.2-0.4-0.4-0.9,0.2-1.7c1.9-0.7,4.1-1.3,6.5-1.3
		c1.3,1.8,2.6,3.5,5.2,4.2c-1.3-1.9-3.3-2.6-4-4.6c6.8-1.9,13.6-2.9,20.4-3.2c4.4-0.2,8.7-0.2,13.1-0.7c9.9-1.2,19.7-0.9,29.4,1.3
		c2.2,0.5,4.4,0.9,6.5,1.9c-0.9,5.8-1.9,11.5-2,17.2c-0.2,9.3,1.5,18.4,3.7,27.4c1.8,7.3,2.7,14.6,3.6,22.2
		c-3.5,0.4-6.6,2.3-10.6,1.3c-0.9,0.5-2.2,1.5-3.8,1.9c-10,2.3-20.2,3.5-30.5,2.7c-6.6-0.5-13.1-1.5-19.7-2.3
		c-1.4-1.2-2.9-2.3-4.7-3.8C668.1,357.4,669.9,358,669.4,359.5z M699.4,334.1c1.7,1.8,3.3,1.2,5.1,0.4c0.2-1.9-1-2.4-2.8-2.8
		C700.9,332.5,700.2,333.3,699.4,334.1z M687.3,317c-0.6,2.3-0.6,10.1,0.1,13.7C687.5,325.6,688.6,321.3,687.3,317z M720.2,333.3
		c0.9-1.9,0.3-3.3,0.2-4.9C719.6,329.8,719.6,331.3,720.2,333.3z M719.8,347c-1,0.9-0.9,2.1-1.2,3.1
		C719.4,349.3,719.9,348.4,719.8,347z M686.6,340.4c0.1-0.3,0-0.7,0-1.8c-0.6,1.5-1.2,2.1-0.7,3.5
		C686.3,341.2,686.5,340.8,686.6,340.4z"/>
	<path fill="none" d="M732.5,216.6c3.3,7.4,8.2,13.9,12.2,20.9c3.4,6,4.7,12.2,4.9,18.9c0.1,2.1-0.7,4.1-1.7,6.1
		c-1.9,3.5-4.3,6.7-6.9,9.8c-2.7,3.2-5.3,6.6-7.1,10.4c-0.6,1.3-0.5,3-1.8,4c-10.2-3.6-20.6-5.3-31.4-4.1c-4.8,0.5-9.7,1-14.5,1.1
		c-8.3,0.3-16.3,1.9-24.3,3.9c-2.6,0.6-5.3,1-8,1.4c-0.8-2.3-1.5-4.4-2.3-6.6c-0.8-2.4-1-4.8-0.4-7.3c0.7-2.9,1.1-5.9,1.2-8.9
		c0-1.3,0.1-2.5,0.9-3.3c-1.5-4.2,0.4-8.3-0.7-12.1c1.3-1.8,2.4-3.3,3.8-4.6c4.7-4.4,7.6-10.2,11.6-15.1c0.3-0.4,0.5-0.9,0.6-1.3
		c2.1-5,3.7-10.1,4.5-15.4c0.6-3.9,0.6-7.9-0.2-11.9c-0.9-4.6-1.7-9.3-3.1-13.8c-0.1-0.5,0.1-1,0.7-1.1c0.2,0.1,0.4,0.2,0.5,0.4
		c3.2,10.4,3.9,21.3,6.2,31.8c0.9,4.2,3.1,6.7,6.3,8.5c3.1,1.8,6.5,3.2,9.8,4.6c8.7,3.6,17.7,4,26.8,1.9c4.6-1.1,6.1-3,6.5-7.8
		c0.5-4.5-0.6-8.7-2.6-12.6c-2.1-4.1-4.1-8.2-6-12.5c-0.6-1.3-1.3-2.4-2.1-3.5c-1.5-1.9-2.5-4-3.9-6.6c2.2,0.7,3.7,1.2,5.3,1.7
		c1.7,2.8,3.4,5.6,5.1,8.3c1.3,2.1,2.6,4.2,3.8,6.4c1.6,3.1,3.1,6.6,6.5,8.4L732.5,216.6z M654.9,265.8c0,1.6,1,2,1.8,2.4
		c3.4,1.8,6.9,3.4,10.6,4.6c3.7,1.2,7.3,1.2,11.1,0.5c3.6-0.7,7.4-1,11-2.1c2.5-0.8,5-1.5,7.3-2.9c1.1-0.7,2.3-1.4,2.7-2.9
		c-5.9,3.6-12.6,4.8-18.4,6.6C671.5,271.7,662.9,270.2,654.9,265.8z"/>
	<path fill="none" d="M745.5,412.6c-9.3,0-18.3,1.8-27.2,4.5c-7.6,2.4-15.6,3.3-23.5,6.4c0.5-4.2,0.1-7.9-0.3-11.6
		c-0.8-7.1-2.6-14-6.1-20.3c-3.6-6.4-9.7-8.6-16.6-6c-1.5,0.5-2.5,1.6-3.3,2.9c-0.9,1.6-1.6,3.4-1.9,5.2c-0.2,1.3-0.6,2.6-1,4.5
		c-1.5-2.3-3.1-3.6-5.3-3.5c-1.8-3.7-4.9-6.2-6.7-9c-1.2-9.4-2.2-18.3-3.4-27.3c5.6,1,10.9,1.9,16.3,2.8c4.9,0.8,9.9,0.8,14.9,1.7
		c11,2,22.1,2.1,33.1,0.3c6.9-1.1,13.7-2.9,20.4-4.8c0.9-0.3,1.9-0.8,2.9-0.2c1.2,2.1,0.5,4.4,0.7,6.6c0.6,5.4,1.2,10.7,2.8,16
		c2.9,10.1,4.2,20.5,5.4,31.3C746.2,412.4,745.8,412.6,745.5,412.6z M721.8,410.3c2.7-0.1,4.4-1.9,4.2-4.6c-0.1-2.4-2-4-4.5-3.9
		c-2.7,0.2-4.3,2-4.1,4.7c0.1,1.1,0.8,2.1,0.2,3.7C719.5,409.9,720.6,410.4,721.8,410.3z M737.1,401.1c-1.7,2-1,3.5,0.6,4.9
		c-0.3,0.9-0.6,1.7-0.9,2.4c0.4,0.5,0.7,0.4,1.1,0.2c1.2-0.5,1.2-2.3,2.6-2.5c1.5,0,0.6,2.1,2.3,2.3c1-2.6,0.2-5.2,0.1-7.7
		C740.6,400.1,738.8,400.7,737.1,401.1z M732.3,409.4c2.1-0.5,3.4-2.2,3.3-4.3c-0.1-1.8-1.5-3.4-3.4-3.8c-2.6-0.5-4.2,0.6-5.7,4.2
		C728.3,409.2,729.6,410.1,732.3,409.4z M694.1,408.2c2.1-0.6,2.9-1.6,3.6-2.7C696.3,405.7,695.4,406.5,694.1,408.2z M660.5,363.8
		c-0.9-0.1-1.3-1.2-2.5-0.7C658.7,363.9,659.5,364.1,660.5,363.8z"/>
	<path fill="none" d="M744.6,650.6c3.4,0.8,6.4-0.7,9.5-1c3.2-0.3,6.4-0.9,9.6-0.4c0.5,0.7,1.3,1.2,1.2,2.4
		c-2.7-0.8-5.4-0.9-8.1-0.6c-2.6,0.3-5.5-0.1-7.1,2.5c0.9,1.9,2.2,1.5,3.4,1.5c4.1-0.2,8.2-0.5,12.3-0.7c1.1-0.1,2.3-0.4,2.8,1.1
		c-10.1,0.6-10.1,0.6-11.5,2.9c2.6,2.1,5.6-0.3,8.2,0.6c-0.1,0.7-1.1,1.1-0.4,2.3c2.8,1.4,5.5,0,8.4-1c1.3,1.6,3.1,2.6,4.7,3.7
		c3.6,2.6,4.3,4.7,3.3,9.3c-10.7,1.4-11.3,1.6-15,5.3c5.8-1.9,11.2-3.3,17.5-2.8c-1.3,1.7-2.5,2.2-3.9,2.5c-4.1,0.8-8.2,1-12.3,1.3
		c-1.8,0.2-3.1-0.6-3.9-1.9c-6.4,0.5-11.9-1.9-17.8-3.6c0.4-1.9-0.7-3.4-0.8-5.1c-0.2-2.2-2.6-3.4-5.3-3.2c0.1,1,1,1.4,1.6,1.9
		c0.7,0.6,1.8,0.8,1.8,2.5c-5.7-1.3-11.3-2.2-16.9-4c0.3-2.1,0.7-4.2,1-6.3c0.6-4.9,4.5-9,3.4-14.4c6.2,2.1,6.2,2.1,8.7-3.7
		c0.7-1.6,1.1-3.6,2.8-4.3c2.9-1.3,5-3.6,7.3-5.7c2.3-0.1,4.5-0.6,6.8,0.6c0.4,3,1.6,5.9,3.4,8.5c-1.2,0.5-2.3,0.2-3.4,0.3
		c-3.7,0.3-7.5,0.6-10.9,2.4c-0.7,0.4-1.3,0.8-0.9,1.9c2.1,0.4,4.2-0.2,6.4-0.6c3.3-0.6,6.6-1.3,10-0.7c0.8,0.1,1.5,0.2,1.5,1.3
		C752.9,645.1,746.2,646.9,744.6,650.6z"/>
	<path fill="none" d="M659.2,687.8c0.2-2-1.3-2.2-2.6-2.3c-7.3-0.5-14.4,0.5-21.1,4c-2.9-0.7-6-0.8-9.1-0.9c-3-0.1-5.3-1.4-6.3-4.4
		c-0.2-0.6-0.5-1.1-0.9-1.9c-1.5-0.9-3.2-1.8-4.8-2.7c-0.6-2.4,1.3-4.7-0.2-6.4c0.6-8.5,3.1-16.2,6.5-23.7c2.2,2.6,2.2,2.6,7.6,2.2
		c2-2.9,2.5-6.4,3.7-9.6c3.3-1.8,6.5-3.2,10.1-2.4c1.2,1,2,2.1,2,3.3c0,3,1,5.8,2.1,8.6c-12.2,0.4-13.2,0.6-16,4
		c3.2,0.7,6-0.2,8.8-0.4c3-0.3,6,0.2,8.8,0.6c0.6,0.7,1.5,1.1,1.5,2.2c-5.4-2.1-10.9-1.8-16.5-0.8c-1.3,0.3-2.7,0.5-2.9,2
		c0.3,1.1,0.9,1.5,1.5,1.5c6.3,0.1,12.6,0.5,19.1,0.1c0.5,0.7,0.8,1.6,0.2,2.5c-5.8-1.8-11.6-1.7-17.4-0.6c-1.2,0.2-2.4,0.7-2.6,2.3
		c1.5,1.8,1.5,1.9,3.6,1.7c3.7-0.3,7.5-0.4,11.2-0.2c2,0.1,3.9-0.2,5.9-1.1c0.3,1.5,0.5,2.6,0.8,4c-5.1-0.9-10.1,0-15-0.7
		c-1.3-0.2-2.8-0.2-3.4,1.5c0.2,1.2,1.1,1.8,2.1,1.9c5.7,0.7,11.5,1.7,17.1-0.1c2.5,4.4,4.2,9.3,7.4,13.3c0.6,0.8,0.5,1.6-0.1,2.5
		C659.9,687.7,659.5,687.7,659.2,687.8L659.2,687.8z M653.3,675.5c-1.8-1.7-4-1.2-5.9-1.5c-1.8-0.3-3.8-1.2-6,1
		C645.6,677.8,649.2,677.4,653.3,675.5z M618.8,679.3c1.2-2.6,1-4.3-1.3-7.5C617.5,675,617.9,677.1,618.8,679.3z"/>
	<path fill="none" d="M630.5,435.3c-0.4,1.7-1,3.3-2,4.8c-2.3,3.5-5,3.8-8,0.8c-2.1-2.1-3.5-4.6-4.6-7.2c-4-9.9-5.5-20.1-3.8-30.7
		c0.4-2.7,1.2-5.4,2.6-7.8c2.4-4.2,5.3-4.5,8.6-0.9c2,2.1,3.3,4.7,4.4,7.3c2.6,6.3,3.9,12.9,4.2,19.6
		C632,426,631.7,430.7,630.5,435.3z M616.7,394.8c-2.1,4.1-3.8,8.3-4,13.1c-0.3,5.8,0.9,11.4,1.8,17c0.9,5.5,3.8,10.2,6.7,14.8
		c0.7,1.1,1.8,1.7,3,2.2c1-0.1,1.7-0.8,2.5-1.7c-0.9-0.6-1.5,0.9-2.3,0.5c-0.5-0.4-1.2-0.6-1.4-1.1c-2.1-3.9-4.7-7.6-6-12
		c-0.6-2-1.1-4-1.3-6.2c-0.2-3.3-0.7-6.7-1.2-10c-1.1-6.2,1.1-11.5,4.1-16.7c0.3-0.5,0.9-0.7,1.5-1.1
		C618.3,392.9,617.3,393.6,616.7,394.8z M624.7,424.3c1.4-1.2,2.6-2.5,2.2-4.5c-1-5.6-1.9-7.1-5.1-9.1c-4,1.2-5.5,3.6-4.4,7.4
		c0.6,2.1,0.8,4.5,2.9,6.2C621.9,424.3,623.3,424.3,624.7,424.3z"/>
	<path fill="none" d="M769.5,156.8c-1.4-2.1-2.4-4.4-3.1-6.8c-2.4-8.6-3-17.4-1.4-26.2c0.8-4.4,2-8.8,4.8-12.4
		c2.7-3.5,5.5-3.5,8.2-0.1c1.9,2.5,3.1,5.4,3.9,8.4c2.2,7.8,2.3,15.8,1.3,23.7c-0.5,4.1-1.5,8.1-3.5,11.8c-1.2,2.2-2.6,4.3-5.2,5
		C772.2,160,770.7,158.6,769.5,156.8z M777.7,156.4c-1.5,0.7-2.4,1.2-3.3,1.6c-0.9-0.2-1.5-0.7-1.8-1.4c-2.8-6.6-5.7-13.3-4.9-20.8
		c0.3-2.5,0.1-5-0.1-7.5c-0.4-5.2,1.2-9.8,4.1-14.1c0.7-1,1.4-2,1.9-2.8c0.8-0.7,1.4,0.4,2-0.3c-0.3-1.3-1.4-1-2.6-1.3
		c-3.4,3.9-5.8,8.3-6.7,13.4c-0.7,4-0.7,8.1-0.6,12.2c0.1,7.2,1.7,14,5,20.4c0.7,1.4,1.6,2.5,3.2,3
		C775.5,158.6,776.4,157.9,777.7,156.4z M771.8,128.4c-3.8,4.1-1.9,8.3-0.5,12.3c1.8,1.1,3.5,0.3,4.8,1c1.3-0.7,2.1-1.6,2.9-3
		c-0.9-3.6,0.4-8.2-4.2-11.1C773.7,127.9,772.8,128.1,771.8,128.4z"/>
	<path fill="none" d="M676.7,414.5c1.1-2.8,1.1-5.7-1.4-8.1c-2.4-0.6-4.5,0.9-6.8,0.2c-2-5.9-1.2-11.6,1.3-17.1c1.6-3.4,4-3.7,6.8-1
		c2,1.9,3.4,4.3,4.5,6.8c3,6.8,4.6,13.9,5,21.3c0.3,4.6,0.1,9.2-1.3,13.7c-0.7,2-1.5,4-3.6,4.9c-5.9-0.8-12-11.5-10.6-18.9
		C672.5,415.5,674.7,416.1,676.7,414.5z"/>
	<path fill="none" d="M654.8,300c2.4,6.8,1.4,13.2-1.4,19.6c-1.5,3.5-3.7,6.8-4.2,10.7c-0.1,0.5-0.2,1.5-1.4,1.7
		c-0.6-5.7-2.5-11.2-4-16.7c-0.6-2-1.1-4.1-1-6.3c0.4-8.9,2.5-17.4,6.8-26.2C651.4,289.1,652.9,294.6,654.8,300z"/>
	<path fill="none" d="M788.5,115.1c0.6,1.6,1.3,3.2,1.7,4.9c1.4,5.2,2.1,10.5,2,15.9c-0.1,5.9-0.8,11.7-3,17.2
		c-2.4,5.8-4.6,7.2-11.3,6.9c4-3.7,5.4-8.4,6.3-13.4c1.5-7.9,1.5-15.9,0-23.8c-1-5.1-2.5-9.9-6.6-14.1
		C783.1,108.5,786.6,110.5,788.5,115.1z"/>
	<path fill="none" d="M633.9,396.9c0.5,0.7,0.9,1.5,1.3,2.3c4.7,10.5,6.2,21.5,4.3,32.9c-0.9,5.8-3.5,10.1-10.1,10.5
		c-0.2,0-0.5-0.1-0.8-0.2c1.9-2.4,3.2-5.1,3.7-8.1c2.6-15.6,0.8-30.2-9.3-42.9C629.1,391.1,630.8,391.9,633.9,396.9z"/>
	<path fill="none" d="M686,390.6c0.9,1.6,1.9,3.2,2.7,4.9c1.9,4.1,3,8.5,3.8,12.9c1.2,6.3,1.5,12.6,0.3,19c-1.1,5.5-2.9,7-8.8,7.4
		c2.7-3.8,3.2-8.1,3.5-12.4c0.3-3.5-0.1-7-0.6-10.4c-1.4-9.3-3.5-18.3-10.7-25.6C680.6,385.9,684,386.8,686,390.6z"/>
	<path fill="none" d="M668.9,150.4c0.2,8,2.9,15.4,3.5,23c-2.2-3.4-2.4-7.4-3.4-11.1c-1-3.7-1.6-7.4-2.4-11.1
		c-0.8,5.3,1.4,10,2.3,14.6c-0.1,1.1-1.3,0.6-1.1,2.1c0.4,1.4,0.6,3.4,0.4,5.4c-0.7-0.3-0.7-0.9-0.9-1.5c-2.6-9.6-3.1-19.4-3.7-29.2
		c-0.1-2,0.2-4.1,0.4-6.4c1.8,0.8,1.3,3.4,3.5,3.3C665,143.6,666.1,147.3,668.9,150.4z"/>
	<path fill="none" d="M659.1,687.8c-0.5,1.5-1.9,1.3-3.1,1.5c-4.8,0.5-9.6-0.5-14.9,1c1.1-1.3,2-1.4,2.8-1.6
		C649,687.3,654.1,687.7,659.1,687.8L659.1,687.8z"/>
	<path fill="none" d="M670.8,153.2c0.5,5.5,2.9,10.7,2.9,16.3C672.5,164.1,670.6,158.8,670.8,153.2z"/>
	<path fill="none" d="M623.7,639.9c-0.4,3.1,0.5,5.7,0,8.5C621.2,646.3,621.1,643.7,623.7,639.9z"/>
	<path fill="none" d="M635.1,396.6c-0.9-3.5-0.7-5.9,0.5-8.6c0.3,1.3,0.7,2.4,1.1,3.9C636.3,393.3,635.8,394.7,635.1,396.6z"/>
	<path fill="none" d="M793.8,130c1,2.2,1.9,4.5,2.9,6.8c-1,0.3-1.9,0.6-2.9-0.3c-0.1-2.1-0.2-4.3-0.3-6.4
		C793.6,130.1,793.7,130.1,793.8,130z"/>
	<path fill="none" d="M671,173.6c0.9,1.5,1.8,2.9,2.2,5.2C671,176.1,671,176.1,671,173.6z"/>
	<path fill="none" d="M668.2,145.5c-1.3-1.8-0.2-3.2,0.7-4.6l-0.1-0.1C669.3,142.5,668.3,144,668.2,145.5L668.2,145.5z"/>
	<path fill="none" d="M668.9,140.9c0.3-0.6,0.7-0.9,1.4-1c0.7,0.2,1.3,0.6,1.6,1.6C670.8,141.2,669.8,141,668.9,140.9L668.9,140.9z"
		/>
	<path fill="none" d="M673,154.6c0.9,0.8,1,1.5,0,2.6C672.7,156.2,672.3,155.5,673,154.6z"/>
	<path fill="none" d="M671.9,104.2c0.4,1.2,2,0.9,2.4,2.2c-0.9,0.1-1.7,0.1-2.5,0.2c0.2,0.7,1,0.9,0.9,1.8c-1.8,1.5-3.6,3.1-5.9,4.1
		c-1.1,2.4-2.2,4.7-3.3,7c-0.3-3.5-0.3-6.9,0.7-10.2c1.2-4.1,3.3-5.4,7.8-5L671.9,104.2z"/>
	<path fill="none" d="M669.6,126.6c0,0.6,0,1.2,0,1.9c2.7,0.8,5.6-0.3,8.6,0.9c-2.6,0.6-4.8,1.2-7.3,1.8c2.1,1.6,4-0.5,5.9,0.3
		c-3.8,1.8-7.4,1.8-10.5,0c-1-0.6-1.8-1.3-0.8-2.5c1.4,0.2,2.2,1.8,4,1.1c-1.5-1-3-2-4.3-2.9c-0.1-0.9-0.7-1.7,0.3-2.5
		c1.3,1,2.6,2,4.3,2L669.6,126.6z"/>
	<path fill="none" d="M675.6,115.5c-1.7,0-3.2-0.5-4.3-1.9c1-0.9,1.7,0.6,2.5-0.1c-0.3-1.1-2.1-0.8-1.9-2.7c3.2,0.3,5.6,3.2,9.6,2.7
		C678.9,114.2,676.6,113.3,675.6,115.5L675.6,115.5z"/>
	<path fill="none" d="M678.1,107.1c5.6-2.1,10.2-2,14.3,0.7c-2.1-0.5-3.7-0.9-5.6-1.4C680.4,108.6,680.2,108.6,678.1,107.1z"/>
	<path fill="none" d="M669.7,126.8c-0.3-0.5-0.5-1.1-0.8-1.6l-0.1,0.1c2.4,0.4,5,0.3,7.7,1.7c-2.7,0.8-4.9,1-6.9-0.3L669.7,126.8z"
		/>
	<path fill="none" d="M672,104.3c-0.1-0.4-0.3-0.9-0.4-1.3c2.2-1,3.8,0.2,5.4,1.1l-0.1-0.1c-0.1,0.5,0.3,1.2-0.5,1.7
		c-1.5-0.2-2.7-2.1-4.6-1.5L672,104.3z"/>
	<path fill="none" d="M685.4,115.4c-1.4-0.2-2.2,2.1-4,0.8c1.7-0.2,2-3,4.4-2.1c-0.2,0.5-0.4,1-0.5,1.4L685.4,115.4z"/>
	<path fill="none" d="M675.5,115.6c1.8-0.1,3.6-0.7,5.1,0.8C678.9,116.4,677.2,116.5,675.5,115.6L675.5,115.6z"/>
	<path fill="none" d="M679,132.7c-1.7,1.4-3.6,1.6-5.7,1.6C675.2,133.5,676.9,132.4,679,132.7z"/>
	<path fill="none" d="M677.1,104.1c0.8-0.3,1.6-0.5,2.1,0.6C678.1,105.5,677.8,104.1,677.1,104.1L677.1,104.1z"/>
	<path fill="none" d="M402.5,104.2c0.4,1.2,2,0.9,2.4,2.1c-0.7,0.7-1.7-0.2-2.6,0.5c0.4,0.5,1.4,0.7,1.1,1.7c-2,1.3-3.7,3.1-5.9,4
		c-1.2,2.4-2.2,4.7-3.3,7c-0.3-3.4-0.3-6.7,0.6-9.9c1.2-4.3,3.4-5.7,7.9-5.3L402.5,104.2z"/>
	<path fill="none" d="M400.2,126.6c0.1,0.7,0,1.5,0.8,2c2.4,0.5,5-0.4,7.8,0.7c-2.5,0.6-4.7,1.2-7.4,1.9c2.3,1.3,4.1-0.5,6.1,0.2
		c-3.5,2.2-6.9,1.6-10.2,0.2c-1.1-0.5-2.2-1.2-1.1-2.7c1.3,0.4,2.2,1.8,4,1.2c-1.6-1.1-3-2-4.7-3.1c0.6-0.7-0.8-1.6,0.5-2.2
		c1.3,0.9,2.6,2,4.3,2L400.2,126.6z"/>
	<path fill="none" d="M406.1,115.5c-1.7,0-3.2-0.5-4.3-1.9c1-0.9,1.7,0.6,2.5-0.1c-0.3-1.1-2.1-0.8-1.9-2.6c3.3-0.2,5.6,3.1,8.9,2.6
		C409.4,114.2,407.1,113.3,406.1,115.5L406.1,115.5z"/>
	<path fill="none" d="M417.4,106.5c-1.9,0.1-3.7,1.1-5.6,1.6c-1.1,0.3-2.3,0.3-3.5-0.9c5.1-2.1,9.8-1.9,14.4,0.5
		C420.9,107.2,419.1,106.4,417.4,106.5z"/>
	<path fill="none" d="M400.3,126.8c-0.3-0.5-0.5-1.1-0.8-1.6l-0.1,0.1c2.4,0.4,5,0.2,7.7,1.8C404.4,127.7,402.2,128,400.3,126.8
		L400.3,126.8z"/>
	<path fill="none" d="M402.6,104.3c-0.1-0.4-0.3-0.9-0.4-1.3c2.1-1,3.7,0.2,5.4,1.1l-0.1-0.1c-0.1,0.5,0.3,1.2-0.6,1.7
		c-1.4-0.3-2.6-2.1-4.5-1.6L402.6,104.3z"/>
	<path fill="none" d="M416,115.4c-1.4-0.2-2.1,2.1-4,0.8c1.7-0.2,2-3,4.4-2.1c-0.2,0.5-0.4,1-0.5,1.4L416,115.4z"/>
	<path fill="none" d="M406,115.6c1.8-0.1,3.6-0.7,5.9,0.9C409.4,116.7,407.7,116.4,406,115.6L406,115.6z"/>
	<path fill="none" d="M409.6,132.7c-1.7,1.4-3.6,1.6-5.7,1.6C405.7,133.5,407.4,132.4,409.6,132.7z"/>
	<path fill="none" d="M407.6,104.1c0.8-0.3,1.6-0.5,2.1,0.6C408.7,105.5,408.3,104.1,407.6,104.1L407.6,104.1z"/>
	<path fill="none" d="M821.8,129c-1.4-6.5,0.2-12.4,4.1-17.7c1.5-2.1,3.6-1.9,5.5,0.1c2.4,2.5,3.6,5.7,4.5,8.9
		c2.4,8.8,3,17.7,1.5,26.7c-0.5,2.7-1.1,5.4-2.4,7.9c-1,1.9-1.9,4-4.4,4c-2.5,0.1-3.6-2-4.7-3.8c-0.6-0.9-1.1-2-1.5-3
		c-1.6-3.9-2.4-8.1-3.1-12.3c0-0.3,0.3-0.6,0.4-1c2.3-0.4,4.5,0.2,6.7-0.4c2.4-3.1,2.5-5,0.4-8.7C826.4,129.1,824.2,129.9,821.8,129
		z"/>
	<path fill="none" d="M838.3,149.3c2.5-13.9,1.9-27.3-6.1-39.5c6.5,1.1,7.8,1.9,9.9,7.9c4,11.2,4.7,22.6,1.5,34.1
		c-1.7,6-3.1,7-10,7.3C836.5,156,837.7,152.8,838.3,149.3z"/>
	<path fill="none" d="M828.1,131c0.5,2,0.7,4.1,0,6.6c-2-0.4-4,0.8-6.2-0.6c1-2-0.1-4,0.7-6.4C824.5,130.8,826.2,130.2,828.1,131z"
		/>
	<path d="M393,422.3c-1.2,2.6-4,3.2-6.4,1.6c1.3-1.2,3.2-1.2,4.4-2.4c1.7-2.5,0.3-5.9,2.6-8.4C394.2,416.3,394.3,419.5,393,422.3z"
		/>
	<path d="M381.4,516.1c2.6-2,2.7-5.1,5.1-6.5c0.3-1.5-0.5-3.2,1.2-4.6C389.7,510.4,387.6,514.3,381.4,516.1z"/>
	<path d="M368.5,310.8c-1.3-3.7-2.8-6.7-2.9-10.6C367.6,302.6,368.8,307,368.5,310.8z"/>
	<path d="M386.7,408.8c-0.5-1-2.1-1.4-1.7-3c2.8,2,3.4,3.5,2.8,7C385.9,411.8,387.3,410,386.7,408.8z"/>
	<path d="M382.9,533.5c0.4,2.5-0.9,4-2.1,6.3C380.5,536.9,380.6,535,382.9,533.5z"/>
	<path d="M379.1,544.9c0.2,1.8,0.3,3.2-0.8,5.2C377.6,547.9,377.5,546.5,379.1,544.9z"/>
	<path d="M372.4,507.3c0.1-0.8,0.6-1,1.4-0.3c-0.5,1.6-0.3,3.5-2,5.5C372,510.4,372.2,508.8,372.4,507.3z"/>
	<path d="M368.9,316.9c0.1-1.6-1.3-3-0.2-4.6C369.4,314.4,369.4,314.4,368.9,316.9z"/>
	<path d="M356.6,317.9c0.9,1.4,0.8,2.9,1.1,5.2C355.6,320.2,355.6,320.2,356.6,317.9z"/>
	<path d="M379.8,243.4c-0.9,1.7-2,3.2-4.1,3.6C377.1,245.8,377.8,243.8,379.8,243.4z"/>
	<path d="M394.3,408.9c1,0.8,1.6,1.8,2.1,3.6C393.6,410.9,393.6,410.9,394.3,408.9z"/>
	<path d="M370.7,389c-1.5-0.6-1.5-1.8-1.7-2.9C370.3,386.6,371.6,387,370.7,389z"/>
	<path d="M393.5,407.3c-1.8-0.7-2.1-2.1-1.8-4.1C392.3,404.6,392.9,405.9,393.5,407.3z"/>
	<path d="M379.4,411.1c0.2,0.4,0.6,1-0.3,0.8c-0.5-0.1-0.5-0.7-0.3-1.5C379.1,410.8,379.2,410.9,379.4,411.1z"/>
	<path d="M455.3,511.4c0.4-1.4,1-2.7,0.7-4.3c-0.2-1.4,0.3-2.6,2.3-2.3c0.2,1.8-1.1,3.1-1,4.7c0.8,3.8,4.2,7.1,2.3,11.8
		C457.7,518,456.3,514.8,455.3,511.4z"/>
	<path d="M462.3,542.5c1,3.1,0.8,3.2,0.1,6.5c-0.9-4.1-2.3-7.4-2.8-11.5C462.5,538.5,461.8,540.9,462.3,542.5z"/>
	<path d="M463.9,560c-2.5-2.1-2.7-4.2-2.1-7.5C463.6,555.2,463.2,557.4,463.9,560z"/>
	<path d="M470.5,509.2c2.1,2.1,2.1,2.4,0.4,5.7C470.8,512.9,470.7,511.2,470.5,509.2z"/>
	<path d="M466.4,616.6c-0.6-1.5-0.2-2.9,0-4.4C467.3,613.6,467.3,613.6,466.4,616.6z"/>
	<path d="M467.5,620.5c-0.1,1.5-0.1,2.7-0.2,3.8C466,623,466.1,621.8,467.5,620.5z"/>
	<path d="M462.7,565.3c1.2,0.8,1.1,1.7,0.7,2.8C462.2,567.4,462.2,566.5,462.7,565.3z"/>
	<path d="M466.7,629.3c-0.7-0.6-0.6-1.2-0.1-1.8C467.4,628.4,467.4,628.4,466.7,629.3z"/>
	<path d="M430.6,334.8c-0.3-0.2-0.4-0.6-0.6-1c1-0.5,1.4-1.8,2.4-2.1c1.4,0.2,2.5,0.7,2.7,2.6C433.6,335.3,432.1,335.7,430.6,334.8z
		"/>
	<path d="M417.8,329.8c-0.9-4.2,0.1-8.5-0.2-12.8C419.1,321.3,418.1,325.6,417.8,329.8z"/>
	<path d="M450.6,333.6c-0.2-2.3-0.5-3.8,0.5-5.2C451,329.9,451.6,331.4,450.6,333.6z"/>
	<path d="M449.2,350.5c-0.3-1.6,0.6-2.4,0.9-3.9C450.6,348.3,450,349.3,449.2,350.5z"/>
	<path d="M417.2,339.4c0.1,0.9,0,1.7-0.9,2.5C416.2,340.7,416.4,339.9,417.2,339.4z"/>
	<path d="M428.9,267.2c-1.9,1.5-4,2.4-6.3,3.2c-5.5,2-11.4,2.5-17.1,3.3c-2.2,0.3-4.5,0-6.6-0.7c-4.1-1.2-7.9-3-11.6-5
		c-0.8-0.4-1.8-0.8-1.7-2.5c4.6,2.9,9.5,4,14.4,5.2c3.9,1,8,1.5,11.7,0.8c6.3-1.1,12.7-2.7,18.6-7
		C430,266.4,429.4,266.8,428.9,267.2z"/>
	<path d="M457.1,208.3c2.5,2.5,4.5,5.3,6.1,8.4C460.1,214.7,458.3,211.7,457.1,208.3z"/>
	<path d="M428.9,404.9c-1.2,1.7-2.1,2.5-3.5,2.8C425.9,406.5,426.9,405.8,428.9,404.9z"/>
	<path d="M391.3,364c-1.2,0.1-2,0-2.7-1C389.6,362.9,390.4,363.4,391.3,364z"/>
	<path d="M478.4,293.5c-0.4,1.8-0.9,3.5-1.3,5.1C476.1,295.8,476.4,295.2,478.4,293.5z"/>
	<path d="M472.4,297c-0.9,0.1-1.5-0.2-1.9-1.3C471.3,296.1,472.5,295.4,472.4,297z"/>
	<path d="M479.8,287.7c0.2-0.5,0.5-0.7,1-0.3c-0.1,0.6-0.3,1.1-1,1.4C479.8,288.4,479.7,288,479.8,287.7z"/>
	<path d="M456.2,393.2c2.3-5.1,6.2-8.4,11.5-9.7c3.6-0.9,7.2,0,10.6,1.4c9.5,4.2,15.2,11.7,16.8,21.8c0.8,5.2,0.2,10.6-3.5,15.1
		l0.1,0.1c-0.1-0.8,0.1-1.5,0.4-2.1c2-3.9,2.2-8.1,1.8-12.4c-1-11.1-11.1-21.4-22.1-22.7c-3.3-0.4-6.1,0.5-8.8,2.3
		c-2.6,1.8-4.7,4-6.5,6.6C456.4,393.4,456.3,393.3,456.2,393.2z"/>
	<path d="M474.5,415.1c-1.6,0-2.9,1.2-4.6,0.8c-2.1-0.8-3.5-2.3-4.4-4.3c-0.2-1.3-0.3-2.6-0.5-3.9c-0.5-0.1-0.9,0.5-1.5,0
		c0.2-1.5,0.9-2.7,1.8-3.9c1.1-0.3,2.1-0.6,3.1-0.9c3.6-1.1,6.6,0.4,8,3.9c1.3,3.3,0.3,6-2.1,8.4L474.5,415.1z M473.2,405.1
		c-2.5-2.1-5.5-1.1-6.4,2.1c-0.9,3.4,0.7,5.8,5,7.1C475.9,411.9,476.5,407.8,473.2,405.1z"/>
	<path d="M474.5,415.1l-0.1,0.1c0.5,0.1,1-0.3,1.4,0.2c-2.5,2.1-5,2.7-7.2,1.3c-2.4-1.6-4.7-3.4-4.5-7c0.9,0.6,0.5,1.7,1.4,1.9
		c0.9,2,2.3,3.5,4.4,4.3C471.6,417.1,473.1,416.4,474.5,415.1z"/>
	<path d="M456.5,393.5c-0.3,1.5-1.4,2.6-2.3,4.4c0-2.3,0.8-3.6,2-4.7C456.3,393.3,456.4,393.4,456.5,393.5z"/>
	<path d="M491.6,421.8c0,0.9-0.3,1.4-1.2,1.6C490.7,422.8,490.8,422,491.6,421.8L491.6,421.8z"/>
	<path d="M372.2,673.9c4.1-0.7,7.6,0.6,11.3,1.1C378.5,677.9,374.6,677.6,372.2,673.9z"/>
	<path d="M348,671.7c2.3,2.6,2.5,5,1.5,7.7C348.4,677.1,347.8,674.8,348,671.7z"/>
	<path d="M351.7,439.6c-2.8-4.4-5.5-8.9-6.5-14.1c-1.1-6.1-2.3-12.2-1.9-18.5c0.3-4.5,2-8.4,4.1-12.3c0.7-1.3,1.7-1.8,3.2-1
		c-0.7,0.6-1.5,1-1.9,1.9c-2.9,5.4-4.8,10.9-3.3,17.2c0.2,1.1,0.3,2.2,0.4,3.3c0.6,5.2,0.9,10.4,3.2,15.2c1.6,3.3,3.4,6.5,5.8,9.3
		c1.1,0.7,1.6-1.1,2.5-0.3c-0.6,0.9-1.4,1.4-2.3,1.8C353.6,441.5,352.4,440.8,351.7,439.6z"/>
	<path d="M351,424.4c-3.6-4.3-4.1-8.5-1.5-12.8c1,0,1.8-1,3-0.8c4.1,1.7,3.8,5.9,4.9,9.2c0.6,1.8-0.7,3-2.3,4.5
		C353.8,424,352.3,424.5,351,424.4z M350.8,418.2c0.2,0.3,0.3,0.6,0.5,0.8c-0.1,0.8-1.1,0.8-1,1.6c0.4,1.2,1.2,2,2.4,2.5
		c3.2-3.2,2.8-8.4-0.9-11.1c-2.6,0.9-1.5,3.3-2,5.1C350.2,417.5,350.5,417.8,350.8,418.2z"/>
	<path d="M663.2,413.2c0.5,3,0.5,6.1-0.6,8.9c-1.1,2.7-4.2,3.5-6.6,1.8c1.5-0.7,2.9-1.4,4.3-2C662.4,419.3,660.6,415.6,663.2,413.2z
		"/>
	<path d="M650.6,516.1c2.8-2,2.9-5.2,5.3-6.5c0.3-1.6-0.5-3.2,1.2-4.6C659.1,510.4,657,514.3,650.6,516.1z"/>
	<path d="M637.9,311.1c-1.1-3.8-2.6-6.8-2.5-10.3C637.2,303,638.3,307.3,637.9,311.1z"/>
	<path d="M654.5,405.6c3,2.5,3.5,4,2.6,7.2c-1.6-1-0.5-2.5-0.9-3.9C655.5,407.7,654,407.3,654.5,405.6z"/>
	<path d="M652.3,533.5c0.4,2.5-0.8,4-2.1,6.3C650,536.9,650.1,535,652.3,533.5z"/>
	<path d="M647.8,550c-0.8-2.1-0.9-3.6,0.9-5.2C648.7,546.8,648.9,548.2,647.8,550z"/>
	<path d="M642.9,506.7c0,1.9,0,3.8-1.4,5.3C641.7,510.1,641.2,508.1,642.9,506.7z"/>
	<path d="M638.6,311.6c0.1,2.3,0.2,3.9,0.3,5.4C638.4,315.4,637.1,313.9,638.6,311.6z"/>
	<path d="M649.3,243.5c-1,1.6-2,3.2-4.1,3.6C646.4,245.6,647.3,243.9,649.3,243.5z"/>
	<path d="M626.7,322.9c-1.4-1.7-1.8-3.2-1-5.4C626.9,319.3,627.1,320.8,626.7,322.9z"/>
	<path d="M663.7,409c1,0.8,1.7,1.7,2.1,3.5C663.1,410.9,663.1,410.9,663.7,409z"/>
	<path d="M638.4,386.1c1.4,0.4,2.7,0.9,1.7,2.9C638.6,388.4,638.6,387.2,638.4,386.1z"/>
	<path d="M662.7,407.7c-1.6-2-1.6-2-1.6-4.4C661.2,404.9,663.1,405.8,662.7,407.7z"/>
	<path d="M648.9,412c-1,0-0.9-0.6-0.6-1.4C648.5,411,649.4,411.2,648.9,412z"/>
	<path d="M728.7,520.9c-1.4-3-2.9-6-3.9-9.5c0.4-1.3,1-2.7,0.8-4.4c-0.2-1.3,0.4-2.7,2.5-1.9c-0.5,1.6-0.9,3.1-1.1,3.8
		c0.8,4.6,4,7.7,2.6,11.7C729,521.2,728.8,521.2,728.7,520.9z"/>
	<path d="M732.2,548.4c-1.3-3.4-2.4-6.8-2.4-10.6C731.4,541,732.8,544.5,732.2,548.4z"/>
	<path d="M732.9,559.4c-2.2-2.4-2.3-2.7-1.6-6.1C732.7,554.9,732.9,555.8,732.9,559.4z"/>
	<path d="M739.9,515.1c0.7-2.3,0-3.9,0.2-5.7C742,511.1,742.1,512.3,739.9,515.1z"/>
	<path d="M735.8,616.5c-0.5-1.5-0.1-2.9,0.3-4.2C736.7,614.3,736.7,614.3,735.8,616.5z"/>
	<path d="M736.8,620.6c0.3,1.4,0.1,2.5-0.3,4.5C735.5,623,735.6,621.8,736.8,620.6z"/>
	<path d="M731.8,566.6c0-0.4-0.2-1,0.6-1.1c0.9,0.7,0.8,1.6,0.4,2.5C731.9,567.9,731.9,567.2,731.8,566.6z"/>
	<path d="M736.1,627.5c1.1,0.5,0.9,1.1,0.1,2C735.6,628.6,735.4,628,736.1,627.5z"/>
	<path d="M704.5,334.5c-1.7,0.7-3.4,1.4-5.1-0.4c0.8-0.9,1.5-1.6,2.3-2.4C703.5,332.1,704.7,332.6,704.5,334.5z"/>
	<path d="M687.3,317c1.2,4.4,0.2,8.6,0.1,13.7C686.7,327.1,686.8,319.3,687.3,317z"/>
	<path d="M720.2,333.3c-0.5-2-0.5-3.4,0.2-4.9C720.5,329.9,721.1,331.4,720.2,333.3z"/>
	<path d="M719.8,347c0.2,1.4-0.3,2.4-1.2,3.1C718.8,349,718.8,347.9,719.8,347z"/>
	<path d="M686.6,338.6c0,1.1,0.1,1.5,0,1.8c-0.1,0.4-0.3,0.9-0.7,1.7C685.5,340.7,686.1,340,686.6,338.6z"/>
	<path d="M699.4,265.4c-0.4,1.6-1.6,2.2-2.7,2.9c-2.3,1.4-4.8,2.2-7.3,2.9c-3.6,1.1-7.3,1.3-11,2.1c-3.8,0.8-7.4,0.7-11.1-0.5
		c-3.7-1.2-7.2-2.8-10.6-4.6c-0.8-0.5-1.8-0.8-1.8-2.4c8,4.4,16.6,5.9,26.1,6.2C686.8,270.2,693.5,269,699.4,265.4z"/>
	<path d="M717.5,406.6c-0.2-2.7,1.4-4.5,4.1-4.7c2.5-0.1,4.4,1.5,4.5,3.9c0.1,2.6-1.5,4.5-4.2,4.6c-1.2,0-2.4-0.5-4.2-0.1
		C718.3,408.6,717.5,407.7,717.5,406.6z M719.3,406.8c0.7,0.6,1.3-0.5,2-0.1c1.1,0.5-0.3,1.4,0.5,2c1,0.2,1.8-0.4,2.3-1.3
		c0.8-1.7,0.1-2.9-2.4-4C720,403.9,718.8,404.8,719.3,406.8z"/>
	<path d="M742.7,408.4c-1.7-0.2-0.7-2.3-2.3-2.3c-1.4,0.2-1.4,2-2.6,2.5c-0.3,0.1-0.7,0.3-1.1-0.2c0.3-0.7,0.6-1.5,0.9-2.4
		c-1.6-1.4-2.3-3-0.6-4.9c1.7-0.3,3.5-1,5.7-0.4C742.9,403.2,743.7,405.8,742.7,408.4z M738,402.9c-0.1,1.4,0.8,1.7,1.8,1.6
		c1.2-0.1,1.7-0.8,1.3-2.3C739.8,401.9,738.8,402,738,402.9z"/>
	<path d="M732.2,401.3c1.9,0.4,3.4,2,3.4,3.8c0.1,2.1-1.2,3.8-3.3,4.3c-2.7,0.7-4-0.2-5.9-3.9C728,401.8,729.6,400.7,732.2,401.3z
		 M733.7,404.6c-0.3-1.2-1.3-1.9-2.5-1.9s-2.2,0.6-2.5,1.8c-0.5,1.9,0.4,3.1,2.5,3.6C733.1,407.6,734.2,406.5,733.7,404.6z"/>
	<path d="M694.1,408.2c1.3-1.7,2.2-2.5,3.6-2.7C697,406.6,696.3,407.6,694.1,408.2z"/>
	<path d="M660.5,363.8c-1,0.3-1.8,0.1-2.5-0.7C659.1,362.6,659.6,363.7,660.5,363.8z"/>
	<path d="M647.4,674c1.9,0.3,4.1-0.2,5.9,1.5c-4.1,1.9-7.7,2.3-11.9-0.5C643.6,672.7,645.6,673.6,647.4,674z"/>
	<path d="M618.8,679.3c-0.9-2.2-1.3-4.3-1.3-7.5C619.8,675.1,620.1,676.7,618.8,679.3z"/>
	<path d="M618.6,394.8c-3,5.1-5.2,10.5-4.1,16.7c0.6,3.3,1,6.7,1.2,10c0.1,2.2,0.7,4.2,1.3,6.2c1.3,4.4,3.8,8.1,6,12
		c0.3,0.5,0.9,0.8,1.4,1.1c0.9,0.4,1.4-1.1,2.3-0.5c-0.8,0.9-1.5,1.6-2.5,1.7c-1.2-0.5-2.3-1.1-3-2.2c-2.9-4.6-5.8-9.4-6.7-14.8
		c-0.9-5.6-2.1-11.2-1.8-17c0.2-4.8,1.9-9,4-13.1c0.6-1.2,1.5-2,3.4-1.1C619.5,394.1,618.8,394.4,618.6,394.8z"/>
	<path d="M617.4,418.1c-1.1-3.8,0.4-6.2,4.4-7.4c3.3,1.9,4.1,3.5,5.1,9.1c0.4,2-0.7,3.3-2.2,4.5c-1.4,0-2.9,0-4.4,0
		C618.2,422.6,618,420.2,617.4,418.1z M619.3,417c0.5,0.7,1,1.2,1.4,1.7c0.3,1-1.1,1-0.9,1.9c0.5,1.2,1.2,2.1,2.5,2.5
		c3.2-3.4,2.7-8.6-1.1-11.1C618.6,413,619.8,415.3,619.3,417z"/>
	<path d="M770.7,156c-3.3-6.4-5-13.2-5-20.4c0-4.1-0.1-8.1,0.6-12.2c0.9-5.2,3.3-9.5,6.7-13.4c1.2,0.3,2.3,0,2.6,1.3
		c-0.6,0.7-1.1-0.5-2,0.3c-0.5,0.7-1.2,1.7-1.9,2.8c-2.9,4.2-4.4,8.8-4.1,14.1c0.2,2.5,0.3,5,0.1,7.5c-0.8,7.5,2.1,14.1,4.9,20.8
		c0.3,0.6,0.9,1.2,1.8,1.4c0.8-0.4,1.7-0.8,3.3-1.6c-1.3,1.5-2.2,2.3-3.7,2.7C772.4,158.5,771.4,157.4,770.7,156z"/>
	<path d="M779,138.7c-0.7,1.4-1.5,2.3-2.9,3c-1.3-0.7-3,0.1-4.8-1c-1.3-4-3.2-8.1,0.5-12.3c1-0.2,1.9-0.5,3-0.8
		C779.5,130.4,778.1,135,779,138.7z M771.7,133.9c0.2,0.9,1.2,1.1,1.1,2c-0.3,0.4-0.7,0.8-1.1,1.3c0.3,1.2,0.9,2.3,2.3,2.9
		c2.3-1,2.4-3.3,2.6-5.3c0.2-2.1-0.1-4.4-2.1-6C771.6,129.7,771.9,132,771.7,133.9z"/>
	<path fill="none" d="M466.9,407.2c0.8-3.2,3.9-4.2,6.4-2.1c3.2,2.7,2.7,6.8-1.4,9.1C467.5,412.9,465.9,410.6,466.9,407.2z
		 M469.9,406.7c1.6-0.7,2.1,0.9,3.7,1c-0.9-1.3-1.6-2.2-2.8-2.8c-1.6,0.6-2.8,1.6-2.6,4.3C469.2,408,469.2,406.8,469.9,406.7z"/>
	<path fill="none" d="M474.5,415.1c-1.3,1.4-2.8,2-4.6,0.8C471.5,416.2,472.9,415.1,474.5,415.1z"/>
	<path fill="none" d="M351.8,412c3.7,2.7,4.1,7.9,0.9,11.1c-1.2-0.5-2-1.3-2.4-2.5c-0.1-0.8,0.9-0.8,1-1.6c-0.1-0.2-0.3-0.5-0.5-0.8
		c-0.3-0.4-0.6-0.7-1-1.1C350.3,415.3,349.2,412.9,351.8,412z"/>
	<path fill="none" d="M724.1,407.4c-0.5,0.9-1.3,1.5-2.3,1.3c-0.8-0.6,0.6-1.5-0.5-2c-0.7-0.4-1.3,0.7-2,0.1c-0.5-2,0.7-2.9,2.4-3.4
		C724.2,404.5,724.9,405.7,724.1,407.4z"/>
	<path fill="none" d="M739.8,404.5c-1.1,0.1-2-0.1-1.8-1.6c0.8-0.9,1.8-1,3.1-0.7C741.6,403.7,741,404.4,739.8,404.5z"/>
	<path fill="none" d="M728.7,404.5c0.3-1.2,1.3-1.8,2.5-1.8s2.2,0.7,2.5,1.9c0.4,1.9-0.6,3-2.5,3.6
		C729.1,407.6,728.2,406.4,728.7,404.5z"/>
	<path fill="none" d="M622.2,423.1c-1.2-0.4-2-1.3-2.5-2.5c-0.2-0.9,1.2-0.9,0.9-1.9c-0.4-0.5-0.9-1.1-1.4-1.7c0.5-1.7-0.6-4,1.9-5
		C624.9,414.5,625.4,419.7,622.2,423.1z"/>
	<path fill="none" d="M776.6,134.8c-0.2,2-0.3,4.2-2.6,5.3c-1.4-0.6-2-1.6-2.3-2.9c0.4-0.5,0.8-0.9,1.1-1.3c0.1-1-1-1.2-1.1-2
		c0.2-1.9-0.1-4.2,2.8-5C776.5,130.4,776.8,132.7,776.6,134.8z"/>
	<path d="M470.8,404.8c1.2,0.6,1.9,1.5,2.8,2.8c-1.6-0.1-2.1-1.6-3.7-1c-0.7,0.1-0.7,1.3-1.7,2.5
		C468.1,406.4,469.2,405.4,470.8,404.8z"/>
</g>
</svg>
