<?xml version="1.0" encoding="utf-8"?>
<!-- Generator: Adobe Illustrator 20.0.0, SVG Export Plug-In . SVG Version: 6.00 Build 0)  -->
<svg version="1.2" baseProfile="tiny" id="Layer_2" xmlns="http://www.w3.org/2000/svg" xmlns:xlink="http://www.w3.org/1999/xlink"
	 x="0px" y="0px" viewBox="0 0 900 600" xml:space="preserve">
<g>
	<path d="M189.7,91.4c-1.1,0.7-0.7,2.2-1.5,3.1c-0.3,0.3-0.6,0.6-1.3,1.2c0-1-0.1-1.6,0-2.1c1.1-6.5,1-13,1.2-19.6
		c0.2-7.3-1.1-14.4-2.4-21.5c-0.4-2.4-1.1-4.8-1.5-7.2c-1.1-6.3-1.2-12.5-0.3-18.8c0.4-3.3,1.7-6.2,4.1-8.7c1.9-1.9,3.5-4.1,5.2-6.1
		c0.4-0.5,1-1.1,1.6-1.3c3.9-1.4,7.7-1.8,11.4,0.5c1.3,0.8,2.5,1.7,3.5,2.5c3.3,0.2,6.4,0.2,9.6,0.5c7,0.6,13.4,3.2,19.1,7.2
		c1.1,0.8,2.1,1.8,2.9,3c3,4.4,3.9,9.4,5.1,14.4c0.6,2.4,0.8,4.8,1.1,7.2c0.1,0.8-0.2,1.6-0.4,2.4c-0.3,1.7-0.8,3.4-0.9,5.1
		c-0.1,1.6,0.4,3.2,0.6,4.9c0.7,6,0,11.8-2.8,17.4c-1.2,2.3-2.1,4.7-3.1,7.1c-1.2,2.8-2.2,5.7-4.6,7.9c-1.7,0.2-3.6,0.4-5.5,0.6
		c-0.6,4.6,0.1,8.9,2.2,12.9c0.5,0.9,1.2,1.8,2,2.3c3.5,2.5,7,5.1,10.7,7.2c2.3,1.3,4.8,2.4,7.2,3.4c0.9,0.4,2,0.5,3,0.7
		c4.1,0.6,7.2,2.6,9.1,6.3c1.2,2.3,2.8,4.3,3.5,6.8c1.1,3.6,2.1,7.2,1.2,11c0.5,0.7,1,1.3,1.5,2c4.7,6.1,6.1,13,5.4,20.5
		c-0.3,3-1,5.8-2.5,8.3c-0.5,0.8-1,1.4-1.9,2c-1.9,1.3-3.7,2.8-5.6,4.4c0,0.8,0,1.7,0,2.7c0,3,0.1,6.1,0.1,9.1
		c0,5.5,0.6,11,1.6,16.4c0.4,2.2,0.7,4.4,0.4,6.6c-0.1,0.9,0.2,1.8,0.4,2.7c1,3,2,6,3,9c0.4,1.4,1.5,2.7,0.3,4.2
		c-0.2,0.3,0,0.9,0.1,1.4c1.3,8,1.4,16,0.1,24.1c-0.6,3.7-0.1,7.5,0.7,11.1c0.9,4.6,1.9,9.1,2.7,13.8c0.5,3.2,0.8,6.5,1.2,9.7
		c0.3,2.2,0.5,4.4,1.6,6.5c1.3-0.5,2.5-0.9,3.7-1.4c2.9-1.3,5.8-1.6,8.9-0.9c0.7,0.1,1.4,0.3,2.1,0.4c5,0.7,8.6,3.5,11.4,7.5
		c4.3,6.2,6.1,13.3,6.1,20.8c0,0.6-0.1,1.2,0,1.7c0.3,6.1-1,11.9-3,17.5c-2.3,6.4-6,11.9-12.2,15.3c-2.6,1.4-5.2,2.6-8.3,2.2
		c-1.4-0.1-2.8,0.3-4.2,0.2c-5-0.3-9.2-2.3-12.4-6.3c-0.9-1.1-1.7-2.2-2.5-3.2c-1,0.4-0.8,1.2-0.9,1.8c-1.4,10.7-3.1,21.3-6.4,31.5
		c-1.9,6-4,12-6,17.9c-1,3-1.8,6-1.4,9.2c0.2,2.2-0.3,4.4-1.1,6.5c-1,2.5-1.8,5.1-1.6,7.8c0,0.1,0,0.2,0,0.3
		c-1.6,7.8-0.8,15.6-0.7,23.4c0,2,0.1,4,0,5.9c-0.3,5.7-0.6,11.4-0.9,17.1c-0.2,4-0.9,7.9-1.9,11.7c-0.6,2.4-1.2,4.7-1.3,7.2
		c0,0.9-0.2,1.9-0.4,2.8c-1.3,7.1-2.2,14.3-3,21.5c-0.5,4.8-1.3,9.5-1.4,14.3c0,0.8,0.1,1.6,0.2,2.6c1.9-0.8,3.6-1.6,5.3-2.3
		c1.4-0.6,2.6-0.2,3.3,1.1c0.6,1.1,0.9,2.4,1.2,3.6c0.2,1.1,0.2,2.2,1.1,3.2c0.5,0.5,0.4,1.5,0.5,2.3c0.1,1.8,1.1,3,2.7,3.8
		c2.1,1,4.2,2.1,6.2,3.3c2.1,1.2,4.2,2.5,6.3,3.9c1.5,0.9,2.4,2.2,1.9,4.1c4,3,8.6,4.8,13,7.1c0.2,1.2-0.1,2.8,1.2,3.7
		c0.2,0.2,0.3,0.6,0.4,0.9c0.5,2.3,1,4.6,1.3,6.9c0.3,2-0.3,2.9-2.2,3.9c-4.1,2.1-8.3,3.1-12.9,2.4c-1-0.1-2.1,0.1-3.1,0.2
		c-5.6,0.6-11.1,1.3-16.8,1.2c-1.5,0-2.9-0.2-4.4-1c-1.6-0.9-3.4-1.5-5.3-0.8c-0.5,0.2-1.1,0-1.9,0c-0.5,2.7-2.7,4.2-3.9,6.5
		c-0.6,1.2-1.7,1.9-3,2.4c-2.5,0.9-5.1,1.8-7.6,2.6c-0.9,0.3-1.9,0.3-2.8,0.2c-4.8,0-9.6,0-14.4-0.1c-4.3-0.1-8.5-1-12.5-2.9
		c-3.3-1.6-6.7-2.8-10.1-4.1c-1.3-0.5-2.6-0.7-4.1-0.4c-4.5,0.9-8.9,0-13-1.7c-2.4-1-4.5-2.8-6.8-4.3c0.4-0.8,0.7-1.4,1.1-1.9
		c1.6-1.9,2.1-4.4,3.2-6.6c0.3-0.6,0.3-1.4,0.3-2.1c0.3-3.7,0.7-7.4,1-11.2c0-0.2,0.1-0.5,0-0.7c-0.7-3.3,0.3-6.2,1.4-9.2
		c0.3-0.8,0.5-1.5,0.7-2.2c1.9-0.5,1.9-0.5,4.2,0.1c0.1-0.3,0.3-0.7,0.2-1c-1.6-5.9-2-12-3.1-17.9c-0.8-4.4-2-8.7-3.5-12.8
		c-2.4-6.6-4.4-13.3-5.3-20.3c-0.2-1.2-0.4-2.5-1.3-3.5c-0.5-0.5-0.6-1.5-0.8-2.3c-0.9-5.1-1.8-10.1-2.6-15.2
		c-0.5-3.2-1.3-6.4-1.4-9.7c-0.1-3.1,0.2-6.3,0.6-9.4c0.7-6.3,1.1-12.6,2.8-18.7c1.4-4.8,3.2-9.5,5.3-14.1c2.4-5,4.2-10.1,5.6-15.5
		c1.2-4.7,1.5-9.4,0.6-14.2c-0.8-4.5-1.1-9-0.9-13.6c0.1-2.7-0.2-5.4-0.9-8c-0.5-1.7-0.8-3.4-1.1-5.1c-0.2-1.6-0.9-2.8-1.8-4.1
		c-1-1.4-1.9-2.9-2.8-4.4c-1-1.8-1.8-3.8-1.9-5.9c0-0.8-0.5-1.5-0.8-2.5c-1.5,3-3.6,5.2-5.6,7.5c-2.3,2.6-5.4,4-8.4,5.6
		c-0.2,0.1-0.4,0.2-0.7,0.2c-3.4,0.1-6.7,0.9-10.1,0.5c-4.7-0.5-8.3-3-11.1-6.7c-2.7-3.5-4.4-7.5-5.2-11.8c-1.9-9.6-1.2-19,2.4-28.2
		c1.1-2.7,2.6-5.2,4.4-7.5c2.9-3.9,6.8-6.4,11.4-7.8c1.7-0.5,3.7-0.5,5.5-0.6c0.8,0,1.6,0.1,2.4,0.3c2.1,0.5,4.6,0.5,6.3,2
		c1.8,1.6,3.2,3.7,4.3,5.9c0.2,0.5,0.5,1,0.7,1.5c0.2-0.2,0.3-0.2,0.4-0.3c0.8-3.6,1.6-7.2,1.1-11c-1.3-9.7-2.3-19.5-1.9-29.3
		c0.1-1.4-0.1-2.8-0.2-4.2c-0.1-2.4-0.4-4.9-0.3-7.3c0.2-4.4,0.7-8.8,0.9-13.3c0.2-4,0-7.9-0.6-11.9c-0.1-1-0.3-2.1-0.2-3.1
		c0.4-5,1-10,2.2-14.9c0.9-3.7,0.9-7.4,0-11.1c-0.6-2.1-0.8-4.4-1.3-6.5c-1.1-5.7-2.3-11.4-3.4-17.2c-0.8-4.1-1.3-8.3-1.2-12.5
		c0-2.2,0-4.4,0-6.7c0.1-2.7-0.3-5.3-1.1-7.9c-0.7-2.3-1-4.8-0.9-7.3c0.4-10,4.4-18.3,11.7-25c0.8-0.7,1.6-1.4,2.5-1.9
		c2.8-1.4,5.6-2.9,8.5-4c4.4-1.7,8.3-4.1,12.4-6.4c1-0.6,1.8-1.4,2.6-2.3c0.5-0.5,0.9-1.2,1-1.8C189.1,97.4,189.3,94.4,189.7,91.4
		c0.1-0.3,0.2-0.5,0-0.3C189.8,90.9,189.7,91.1,189.7,91.4z M206.4,12.9c-0.1-0.1-0.1-0.1-0.2-0.2C206.3,12.7,206.4,12.8,206.4,12.9
		c0.2,0.2,0.2,0.6,0.4,0.7c0.2,0.1,0.5-0.1,0.8-0.1c-0.1-0.2-0.1-0.5-0.3-0.5C207.1,12.9,206.7,12.9,206.4,12.9z M182.5,212.8
		c0-0.5-0.1-0.9-0.1-1.4c-0.1,0-0.2,0.1-0.4,0.1C182.3,211.9,182.4,212.3,182.5,212.8c0.3,1.1,0.4,2.2,0.6,3.3
		c0.6,3.7,1.7,7.4,0.9,11.3c-0.2,0.9,0.1,1.8,0.2,3.4c0.5-1,0.9-1.5,0.9-2c0.3-3.9,0.6-7.9-0.9-11.7
		C183.7,215.7,183.7,214,182.5,212.8z M199.5,21.2c-0.6-0.1-1.2-0.3-1.8-0.4c-0.1,0.2-0.2,0.4-0.2,0.6c0,0.2-0.1,0.4-0.1,0.6
		c-0.4-0.2-0.8-0.3-1.4-0.6c-1.6,2-3.2,4-3.5,6.8l0.1-0.1c-0.5,1.1-1.1,2.1-1.4,3.2c-1.4,5.1-1.6,10.4-2,15.6
		c-0.1,0.8,0.2,1.5,0.4,2.5c1.2,0,2.1,0,3,0c0.2,0.5,0.3,1.1,0.4,1.1c1,0,2-0.3,2.8-0.9c-0.1-0.5-0.2-1-0.4-1.6
		c0.9-0.2,1.7-0.3,2.5-0.5c-1.2-0.3-2.4-0.2-3.5-0.3c-1.1-0.1-2.2-0.5-3.3-0.9c-0.2-0.1-0.3-0.5-0.5-0.8c3.5,0.1,6.9,0.9,10.1-0.5
		c-0.3-0.7-0.9-1.1-0.7-1.9c-1.9,0.3-3.7,0.4-5.4-0.6c-0.6-0.3-1.4-0.1-2.1-0.2c-0.5-0.3-1-0.5-1.5-0.8c-0.1-0.5-0.2-1-0.4-1.6
		c0.9,0.1,1.8,0.1,2.6,0.1c0.1,0.1,0.2,0.1,0.2,0.2c-0.1,0-0.2-0.1-0.3-0.1c0.4-0.1,0.9-0.5,1.2-0.4c1,0.3,1.9,0.7,2.9,1.2
		c-0.2,0.4-0.4,0.7-0.6,1.1c1.3,0.4,2.5-0.2,3.7-0.4c1.2-0.2,2.4-1,3.9-0.6c-0.7,0.6-1.2,1-1.8,1.5c1.2,0.7,1.9-0.9,2.9-0.5
		c-0.3,1-0.3,1-3.4,2.7c0.4,0.3,0.8,0.5,1.2,0.9c-1.1,0.5-2,0.9-3,1.3c0.6,0.2,1.3,0.4,2.1,0.6c-0.4,0.6-0.7,1.3-1.1,1.5
		c-0.9,0.5-2,0.7-2.9,1.1c-0.1,0-0.2,0.3-0.2,0.3c0.2,0.6,1.2,0.4,1,1.4c-1.1,0.1-2.2,0.3-3.3,0.4c1.3,0.5,2.6,0.6,4,0.7
		c0.1,0,0.2,0.2,0.3,0.3c-0.4,0.3-0.8,0.5-1.2,0.7c0.3,0.5,0.5,0.9,0.8,1.3c-1.6,0.8-1.7-1.6-3.2-1.1c-0.1,0.1-0.3,0.4-0.5,0.6
		l0.1-0.1c-1.1,0.6-2.2,1.1-3.4,1.7c0,0.9-0.1,2,0,3c0.1,1.5,0.6,3,1.8,4c1.1,1,2.3,1.9,3.5,2.9c0.7-0.1,1.3-0.3,2-0.4
		c1.2,2.8,2.1,5.6,2.8,8.7c-0.7-0.2-1.1-0.3-1.6-0.5c-0.1,0.3-0.2,0.5-0.2,0.7c0.3,4.6-0.5,9.1-1,13.6c-0.1,1.1-0.6,2.3-1.2,3.2
		c-1.8,2.7-3.7,5.3-5.7,8c-0.5,0.6-1,1.3-1.4,1.9c0.1,0.5,0.2,0.8,0.3,1.1c3.1,7.5,5.6,15.1,7.4,23c1.1,4.7,2.8,9.1,5.1,13.4
		c1.6,3,3.8,5.6,6.5,7.7c3.3,2.6,7,4.6,11,6.1c3.5,1.3,7,2.6,10.5,3.9c0.4,0.2,0.9,0.2,1.4,0.2c4.5,0.2,8.9,0.1,13.1-1.7
		c1.3-0.5,2.6-1.1,3.9-1.5c1.5-0.5,2.4-1.4,2.9-2.8c0.4-1.2,0.9-2.5,0.8-3.7c-0.2-3.5-0.3-7-1-10.4c-1.5-8.1-6.1-14.5-10.7-20.9
		c-2.1,0.1-3.9,0.3-5.8,0.4c-0.5,0-0.9-0.2-0.7-0.9c1.5-0.8,3.4-0.3,5-1.3c-0.7-1.3-1.5-2.4-2.7-3.2c-1.5-1.1-3.1-2.1-4.5-3.3
		c-0.7-0.6-1.5-1.1-2-1.9c-2.7-4-4.1-8.3-3.5-13.2c0.1-0.5,0-1.1,0-1.6c-0.8-0.3-1.4-0.5-2.1-0.7c0,0,0-0.2,0.1-0.3
		c1.5-0.6,3.1-0.6,4.7-0.6c4.4,0.1,5.4-0.6,7.2-4.6c0.1-0.2,0.2-0.4,0.3-0.6c1.5-3.8,3-7.6,4.6-11.4c2.9-6.7,2.6-13.5,0.9-20.6
		c-0.8,0.9-1.5,1.7-2.2,2.4c-0.6,0.5-1.5,0.3-2.1-0.4c-0.9-0.9-0.9-2.4-1.9-3.2c1.9-1.7,3.9-1.4,6.1-0.6c0.9-1.5,1.6-2.9,1.6-4.6
		c-1.1-0.6-2.1-0.7-3.2-0.5c-0.8,0.1-1.6,0.4-2.4,0.4c-0.8,0-1.6-0.1-2-1.3c0.4-0.2,0.8-0.5,1.2-0.5c1.5-0.1,3-0.1,4.5-0.1
		c0.5,0,1.1-0.1,1.6-0.2c-0.7-3-1.3-5.9-2.1-8.7c-0.5-1.8-1-3.6-1.8-5.3c-0.7-1.6-1.3-3.3-3.1-4c0-0.1,0-0.2,0-0.3
		c0-0.1-0.1-0.1-0.2-0.1c0.1,0.1,0.2,0.2,0.3,0.3c-0.1,0.4-0.2,0.8-0.5,1.6c-0.7-1.3-1.2-2.2-1.8-3c-0.5-0.8-0.9-1.8-2.2-2.2
		c0.1,0.9,0.1,1.6,0.2,2.2l0,0c-0.5-0.3-0.9-0.5-1.4-0.8c-0.7-0.4-1.5-0.9-2.2-1.3l0.1,0.1c0-0.3,0-0.6,0-0.9l-0.1,0.1
		c0.3-0.1,0.6-0.2,1-0.3c-2.4-3.3-6.6-5.2-11.6-5.1c0.7,0.4,1.2,0.8,1.7,1c1.3,0.7,2.7,1.4,4,2.1c0.1,0.1,0.1,0.4,0.1,0.6
		c-0.6,0.1-1.3-0.8-1.8,0c1.1,0.7,2.2,1.3,3.2,2.1c1.3,0.9,2.5,2,3.8,2.9c0.1,0.1,0.2,0.4,0.2,0.6c-0.5,0.2-1,0.5-1.5,0.7
		c-1.9-1.3-1.9-1.3-4.6-1.2c-0.4-0.3-0.9-0.6-1.4-0.9c-1.7-1.1-3.3-2.2-5.4-1.9c-0.7,0.1-1.6-0.4-2.3-0.7c-3.8-1.4-7.7-2.5-11.5-3.9
		c-1.3-0.4-2.2-0.1-3,1c1.4,1,2.7,2,3.6,2.7c1.6,0.2,2.9,0.1,3.8,0.6c1.5,0.8,3.1,1.1,4.6,1.7c0.5,0.2,1,0.5,1.7,0.9
		c-0.6,0.3-0.8,0.4-1.1,0.6c-0.3-0.2-0.5-0.6-0.8-0.7c-0.8-0.3-1.6-0.2-2.3,0.4c-1.3,1.1-2.6,1.2-4.2,0.6c-1.5-0.6-3.2-0.7-4.7-1
		c0.5-0.2,1-0.6,1.5-0.7c1.4-0.2,2.8-0.2,4-0.3c-1-0.4-2-0.8-3-1.3c-1.5-0.8-2.9-1.9-4.5-2.7c-0.5-0.3-1.1-0.1-1.4,0.6
		C199.1,20.2,199.3,20.7,199.5,21.2L199.5,21.2z M267.5,138.9C267.4,138.8,267.8,139.3,267.5,138.9c-0.9-3.8-1.9-7.6-3.5-11.2
		c-1.7-3.6-4.4-6.3-7.8-8.2c-0.9-0.5-1.8-1.1-3.1-0.5c0.6,0.8,1.2,1.5,1.7,2.2c0.9,1.2,1.7,2.5,2.6,3.7c0.8,1.3,1.5,2.6,2.4,3.8
		C262.3,132.1,264.9,135.5,267.5,138.9z M198.1,17.7c1.1-0.2,2-0.6,2.6-1.6c-0.3-0.5-0.6-1-1-1.5c1-0.5,2,1,3-0.3
		c-1-0.7-2-1.2-2.9-1.9c-1.6-1.3-3.3-1.1-4.9-0.1c-1,0.7-2.1,1.6-2.7,2.6c-1.1,1.7-2,3.4-2.7,5.3c-1.4,3.9-1.9,7.9-2.1,12
		c-0.1,2.8-0.4,5.6-0.9,8.3c-0.5,3.1-0.4,7.3,0.9,10.9c0.1-2.5,0.2-4.7,0.3-6.9c0.1-2.7,0.2-5.4,0.5-8c0.7-5,1.9-9.8,4.9-14.1
		c0.5-0.7,0.8-1.6,1.1-2.2C195.7,19.3,196.9,18.4,198.1,17.7L198.1,17.7z M138.4,298.2c-5.1,1-8.9,3.9-12,7.8
		c-2.1,2.7-3.7,5.7-4.8,8.9c-1.7,5.1-3.1,10.3-2.8,15.8c0.2,2.7,0.2,5.4,0.7,8c0.8,4.4,2.2,8.6,4.8,12.3c1.5,2.1,3.3,3.9,5.6,5.2
		c1.6,0.9,3.3,1.7,5.7,1.5c-0.8-0.6-1.2-0.9-1.7-1.3c-2.1-1.4-3.7-3.2-5.1-5.2c-3.9-5.7-5.3-12.2-5.6-18.8c-0.3-6,0.7-11.9,2.6-17.5
		c2.1-6.2,5.4-11.6,11.1-15.3C137.5,299.2,137.9,298.6,138.4,298.2c0.2-0.1,0.5-0.2,0.2-0.1C138.9,297.9,138.7,298,138.4,298.2z
		 M285,295.4c-0.6,0-1.2-0.1-1.7,0.1c-3.9,1.4-7.4,3.4-10,6.8c-1.8,2.3-3.1,4.9-4.3,7.6c-1,2.1-1.9,4.3-2.6,6.5
		c-0.6,2.1-0.9,4.3-1.3,6.5c-0.8,4.3-1,8.6,0.4,12.8c0.2,0.5,0.2,1.1,0.4,1.7c0.8,2.9,1.4,5.9,2.3,8.8c1.4,4.3,4.2,7.5,8,9.8
		c1.7,1,3.5,1.8,5.8,1.8c-0.4-0.5-0.6-0.8-0.8-0.9c-3.8-2.4-6.3-5.8-8.2-9.8c-3.3-6.7-4-13.9-3.7-21.1c0.4-8.8,3.2-16.9,8.5-24
		c1.6-2.1,3.3-3.9,5.5-5.3C284,296.3,284.4,295.8,285,295.4c0.1-0.1,0.4,0,0.6-0.1c0.1,0,0.2-0.2,0.3-0.3c-0.2,0-0.4-0.1-0.6-0.1
		C285.2,295,285.1,295.2,285,295.4z M170.7,312.3c0-0.2-0.1-0.5,0-0.7c2.1-3.8,4.6-7.3,8.6-9.3c0.3-0.2,0.6-0.3,0.9-0.5
		c0.2-0.1,0.3-0.3,0.8-0.7c-2.7,0.3-4.7,1.3-6.6,2.4c-1.5,0.9-2.7,2.1-4.5,2.5c0.5-0.9,1.1-1.7,1.7-2.8c-0.9-1.5-1.2-3.2-0.7-5.1
		c0.4,0,0.7,0.1,1.2,0.1c0.2-2.1,0.6-4,0.5-6c-0.3-4.9,0.3-9.8,1.1-14.6c1.3-8.2,2.8-16.3,4.2-24.5c0.3-2,0.6-3.9,1-5.9
		c0.5-2.4,0.9-4.8,1.5-7.2c1.4-5.1,1.5-10.4,1.6-15.6c0-1.7-0.1-3.5-0.4-5.2c-0.8-4.5-1.8-8.9-2.7-13.4c-0.8-3.8-1-7.6-0.3-11.5
		c0.3-1.6,0.3-3.3,0.3-4.9c-0.1-3.1-0.2-6.3-0.7-9.4c-0.5-3.9-0.6-7.7-0.2-11.5c0.3-3.4,0.2-6.8-0.6-10.1c-0.3-1.2-0.3-2.6-0.1-3.8
		c0.3-2,0.9-3.9,1.4-5.8c0.1-0.4,0.5-0.6,1-1.1c0.6,1.6,0.6,3,0.3,4.4c-0.4,1.6-0.3,3.3-0.1,4.9c0.3,2.9,0.5,5.8,1.6,8.7
		c1.7-1,2.7-2.5,3.8-3.8c1.1-1.2,2.2-2.5,3-3.9c0.9-1.5,1.4-3.1,2.1-4.6c0.5,0.2,0.9,0.3,1.4,0.4c1.5-3.7,2.2-7.5,2.8-11.3
		c0.1-0.9,0-1.9-0.1-2.8c-0.9-8-3-15.8-5.6-23.5c-0.4-1.1-0.9-2.1-1.2-3c-2.7-0.8-2.7-0.8-3.8-1.8c0.7-0.9,2,0.2,2.8-0.8
		c-0.6-1.2-0.9-2.4-2.3-3.2c-1.8,0.8-3.6,1.6-5.4,2.4c-1,0.4-1.9,0.9-2.8,1.4c-3.1,1.4-6.1,2.9-9.2,4.3c-1.9,0.9-3.6,2.2-4.8,4
		c-1.1,1.7-2.1,3.4-3.3,4.9c-2.9,3.6-4.3,7.7-5.3,12.1c-0.7,3.2-0.9,6.4,0.1,9.7c0.5,1.5,0.8,3.2,1.2,4.7c0.6,0.1,1.1,0.2,1.7,0.2
		c0.2,1.3,0.4,2.4,0.7,4.3c-0.9-1.1-1.3-1.5-1.8-2c-0.8,0.5-1.4,1.2-1.2,2.3c0.1,0.7,0,1.4-0.3,2c-0.5,1-0.5,2-0.5,3.1
		c0.1,1.9,0.1,3.7,0.2,5.6c0.2,2.8,0,5.6,1.3,8.2c0.3,0.6,0.3,1.4,0.3,2.1c0.7,7.4,2.3,14.5,4.5,21.6c0.6,2.1,1.3,4.3,0.9,6.5
		c-0.7,4.5-0.4,9.1-2.2,13.4c-0.2,0.5-0.2,1.1-0.3,1.7c-0.2,4.5-0.5,9.1-0.7,13.6c0,0.8,0,1.6,0.1,2.4c0.2,1.5,0.7,3,0.8,4.5
		c0.1,1.6-0.2,3.2-0.2,4.8c0,2.9,0.1,5.8,0.1,8.8c0,3.3-0.1,6.5-0.1,9.8c0,1.9,0.1,3.7-0.5,5.6c-0.2,0.6-0.1,1.4-0.1,2.1
		c0.2,2.4,0.6,4.9,0.8,7.3c0.6,5.5,1.3,10.9,1.6,16.4c0.2,3.8,0,7.7-1.9,11.5c1,2.5,0.5,5.3,0,8.1c-0.2,1.1-0.2,2.3-0.4,3.5
		c-0.5,2.8-0.5,5.7-1.7,8.5c-0.9,1.9-0.9,4.3-1.3,6.5c0,0.3,0.2,0.6,0.2,0.6c1.3,1,2.3,1.8,3.4,2.5c0.4,0.3,0.9,0.1,1.1-0.4
		c0.1,0.2,0.3,0.4,0.3,0.6c0.7,3.8,1.3,7.6,2.1,11.3c0.3,1.6,0.9,3.1,1.5,4.6c1.7,4.3,4.9,7.3,8.7,9.8c1.5,1,3.7,1.5,5.8,1.3
		c-2.9-1.6-5.2-3.6-7.1-6.3c-4.2-5.9-5.8-12.6-6.3-19.7c-0.2-3.6,0.1-7.2,0.6-10.8c0.7-4.9,2.2-9.5,4.7-13.8c0.2-0.4,0.6-0.6,1-0.9
		c-0.2,0.7-0.3,1.4-0.6,2c-2.4,4.6-3.7,9.6-4.3,14.7c-0.8,6.6-0.5,13.3,1.7,19.7c1.4,4.2,3.5,8.1,6.8,11.2c5.7,5.4,13.3,4.3,17.6,1
		c4.5-3.3,7.6-7.6,9.6-12.6c2.3-5.7,3.7-11.5,3.6-17.7c0-6.1-0.9-12.1-3.4-17.7c-1.2-2.8-2.9-5.3-5.1-7.4
		c-4.8-4.5-10.9-5.8-17.2-1.7c-2.8,1.8-5.1,4-7,6.8C172,311,171.7,312,170.7,312.3z M261.8,550.5l0.1,0.1c-1-1.9-2.8-2.6-4.4-3.9
		c-0.8,2.2-0.8,2.3-2.7,3.3c-2.5,1.3-4.9,2.7-7,4.5c-0.4,0.4-1,0.5-1.4,0.8c-1.9-1.4-2.2-2.2-1.4-3.7c0.2-0.4,0.5-0.8,0.8-1.1
		c2.6-2.2,5.3-4.1,8.9-4.4c0.3,0,0.9,0.4,1-0.4c-0.5-0.8-1.2-1.5-2-1.1c-1.1,0.6-1.7-0.6-2.6-0.4c-0.3,0.2-0.6,0.4-0.9,0.5
		c-3.2,1.4-6.3,3.1-8.4,6c-0.1,0.2-0.3,0.3-0.5,0.5c-1.2,1-3,0.3-3.2-1.3c-0.1-0.8,0.1-1.7,0.5-2.3c0.9-1.2,1.9-2.3,3.1-3.3
		c2.6-2,5.5-3.3,8.7-3.8c0.5-0.9,0.3-1.6-0.5-1.8c-1.4-0.3-1.9-1.3-2-2.5c-0.1-1.2-0.1-2.3-0.2-3.5c0-0.5,0.2-1.2-0.6-1.5
		c-2.2,0.5-3.9,1.8-5.5,3.5c0,1,0,1.9-0.2,2.8c-0.1,0.5-0.4,1-0.6,1.3c-1.4-0.2-2.5-0.3-3.6-0.4c-0.2-1.3,0.4-2.3,1.1-3.2
		c0.8-1,1-2.1,1-3.3c0-0.8,0-1.6-0.1-2.4c-0.4-3,0-6.1,0.3-9.1c1.2-9.4,2.3-18.8,3.5-28.1c0.3-2.7,0.4-5.4,1.4-7.9
		c0.3-0.6,0.3-1.4,0.4-2.1c0.6-3,1.3-5.9,1.8-8.9c0.4-2.2,0.8-4.4,0.8-6.6c0.1-10.3,0.1-20.6,0.2-30.8c0-2.1,0.1-4.2,0.2-6.3
		c0.1-1.7,1-3.4-0.2-5c-0.2-0.3,0-0.9,0-1.4c0-1.8,0.6-3.4,1.2-5.1c0.7-1.9,1.5-3.7,1.8-5.7c0.7-5.4,2-10.5,3.4-15.7
		c1.7-6.3,3.3-12.7,5-19c1.2-4.5,2.2-9.1,2.9-13.7c0.7-5.4,1.5-10.9,2.2-16.3c0.6-4.4,1.3-8.8-0.1-13.2c-0.1-0.4-0.1-0.9-0.1-1.4
		c0-3.7,0-7.5-0.1-11.2c0-0.4-0.1-0.9-0.3-1.4c-2.7-0.1-5.3,0.2-7.7,0.7c-4.8,1-9.5,2.2-14.3,3.4c-3.7,0.9-7.4,2.1-11.9,2.2
		c1.2-0.7,1.9-1.3,2.7-1.6c10.2-4,20.7-7.3,31.8-7.4c1.1-2,1.3-4.1,1.3-6.2c-0.1-11.1-0.2-22.2-0.3-33.3c0-0.6,0-1.2,0-1.8
		c0-1.4-0.3-2.7-0.9-4.1c-1.8-4.1-2.8-8.4-2.7-12.9c0-1.7,0.1-3.5-0.2-5.2c-0.8-4.7-1.7-9.4-2.6-14.1c-0.3-1.6-0.9-3.1-1.7-4.6
		c-0.8-1.3-1.3-2.7-1.7-4.2c-0.6-2-0.9-4.1-1.4-6.1c-0.2-0.7-0.2-1.5-0.6-2c-1-1.3-0.8-2.6-0.7-4c1-7.6,2.1-15.3,3.8-22.8
		c0.4-1.8,1-3.6,0.8-5.4c-1.2-1-2.5-1.4-4-1.4c-0.7,0-1.4-0.1-2.1-0.2c-8.7-1.5-17.5-1-26.2-0.2c-3.5,0.3-7,0.5-10.5,0.5
		c-3,0-6.1-0.1-9.1,0.3c-8,1-15.8,3-23.5,5.3c-0.5,0.2-1,0.4-1.7,0.7c0.9,2.2,1.9,4.2,2.6,6.3c1.4,3.9,3,7.9,4.1,11.9
		c2.3,8.5,2.5,17.1-0.5,25.5c-0.5,1.4-1,2.9-1.7,4.2c-1.4,3.1-2.9,6.1-4.3,9.2c-0.3,0.6-0.3,1.3-0.5,2.1
		c11.7,3.4,22.9,7.9,34.6,10.6c0.2,0,0.4-0.1,0.8-0.3c-0.2-1.6-0.9-3-1.5-4.5c-0.5-1.4-1.2-2.8-1.7-4.2c-0.6-1.5-1.7-2.7-1.7-4.5
		c1.7,0.5,1.8,0.5,2.3,1.5c1.1,2.3,2.2,4.6,3.2,7c0.8,1.9,1.4,3.9,2.1,5.8c0.4,0.2,0.5,0.4,0.8,0.4c3.5,1,6.9,2.1,10.4,3.1
		c0.4,0.1,0.9,0.2,1.4,0.1c3.1-0.6,6.3-0.3,9.4-0.2c5.8,0.3,11.4-0.4,16.7-3c0.9-0.5,1.9-0.8,2.9-1.1c0.9-0.2,1.6,0.1,1.8,1.3
		c-0.3,0.3-0.7,0.8-1.2,1c-2.4,1-4.8,1.9-7.2,2.8c-1.1,0.4-2.2,0.6-3.4,0.8c-1.1,0.2-2.3,0.4-3.5,0.5c-1.3,0.1-2.6,0.1-3.9,0
		c-1.2,0-2.4,0.1-3.5-0.2c-1.3-0.5-1.8,1-3.1,0.8c-5.1-1-10.3-1.8-15.5-2.7c-0.5-0.1-1.1-0.2-1.4-0.2c-0.9,0.4-0.6,1.6-1.8,1.3
		c-0.3-0.6-0.6-1.4-0.9-2.1c-0.6-0.2-1.1-0.5-1.7-0.6c-6.7-1.3-13.1-3.5-19.4-5.9c-4.4-1.7-8.8-3.1-13.2-4.7
		c-0.7-0.3-1.5-0.7-2.5-0.3c-0.1,0.3-0.4,0.7-0.4,1.2c-0.5,3-1.1,6-1.6,9c-1.2,7.4-2.4,14.8-3.7,22.1c-0.6,3.2-0.5,6.3-0.2,9.4
		c0.1,0.6,0.5,1.2,0.7,1.9c1.3-0.5,2.3-0.9,3.4-1.4c0.2-1.1,0.4-2,0.6-2.9c0.1-0.5,0.3-0.9,1-0.6c0,0.9,0.1,1.7,0.1,2.8
		c3.5-0.6,6.7-0.2,9.9,0.5c3.4,0.7,6.1,2.3,8.4,4.7c3.2,3.3,5.2,7.2,6.5,11.5c0.6,1.9,1.1,3.8,1.6,5.6c6.5,1.6,12.8,3.2,19.2,4.8
		c0.6-1.6,0.3-3.6,2-4.6c0.1,0,0.1-0.2,0.1-0.3c0.7-2.8,2-5.2,4.3-7c0.5-0.4,0.8-1.1,1.3-1.7c1-1.3,2-2.6,3.1-3.8
		c0.4-0.5,1.1-0.8,1.6-1.2c0.7,0.9,0.2,1.5-0.2,2c-1.9,2.5-3.6,5.2-5.7,7.5c-1.4,1.5-2.4,3.1-2.8,5.1c-0.2,1.2-1.3,1.2-1.8,1.8
		c-0.7,4.3-1.2,8.5-2.3,12.7c-0.9,3.6-1.6,7.3-2.2,11c-1.1,6-1.6,12.1-3.5,17.9c-1.7,5.3-2.3,10.7-2,16.2c0,0.2,0,0.5,0,0.7
		c0.1,5.1,0.9,10,2.6,14.8c0.6,1.9,1.3,3.8,0.4,5.8c-0.2,0.4-0.1,0.9-0.1,1.4c0,3.9,0,7.7,0.9,11.5c0.3,1.3,0.4,2.5,0.7,3.8
		c0.3,1.2,0.2,2.3-0.5,3.4c-0.1,0.1,0.1,0.4,0.1,0.6c0.5,0.2,1.1,0.3,1.7,0.5c0.6,2,1.3,4,1.8,6c0.1,0.3-0.1,0.8-0.2,1.7
		c-0.8-1-1.3-1.6-1.7-2.3c-0.4-0.7-0.7-1.6-1.1-2.3c-0.8,2.8-1.5,5.5-2.3,8.2c-1.3,4.4-2.8,8.7-4,13c-0.7,2.3-1.3,4.8-1.4,7.2
		c-0.2,6.2-0.1,12.4,1.5,18.4c0.9,3.3,1.6,6.6,2,10c0.4,3.7,0.4,7.4,0.6,11.2c0.2,3,0.3,6.1,0.7,9.1c1.1,8.1,2.3,16.2,3,24.3
		c0.1,1.2,0.2,2.3,0.3,3.5c0.1,1,0.3,2.1,0.5,3.1c0.2,0.9,0.3,1.9,0.6,3.4c0.8-2.2,0.6-3.9,0.8-5.5c0.2-1.5-0.2-3.2,1.1-4.5
		c0.2,0.2,0.4,0.3,0.4,0.4c1,3.1,0.9,9-0.2,12c-0.1,0.1-0.4,0.2-0.7,0.4c-0.5-0.5-1-1-1.5-1.5c-0.7,0.5-1.2,0.9-1.9,1.4
		c0.6,1,1,2,1.6,2.9c0.8,1.2,2.7,1.3,3.6,0.2c0.7-0.9,1.3-1.9,1.9-2.9c0.6-1,1.1-2.1,2.5-2.7c0.7,0.8,1.6,0.7,2.7,0.4
		c1.3-0.5,2.7-0.7,4.1-1.1c0,0.1,0.1,0.2,0.1,0.3c0.8,2,0.5,2.7-1.4,2.7c-0.6,0-1.2-0.1-1.7-0.1c-2,0-3.6,0.8-4.8,2.5
		c-0.6,0.9-1.2,1.7-1.9,2.5c-0.8,1-1.8,1.4-3.1,1.1c-0.9-0.2-1.8-0.4-2.9-0.7c-0.5-0.8-1.1-1.7-1.7-2.5c-0.6-1-1.3-1.9-1.8-3
		c-0.4-0.9-0.7-1.8-1.1-2.8c-1.4,1.3-1.5,1.3-1.6,2.3c-0.2,2.2-0.4,4.4-0.5,6.6c-0.2,2.8-1.3,5.2-3.1,7.1c-1.1-1.1-1.2-1.2-0.6-2.3
		c1.5-2.5,1.8-5.3,2.1-8.1c0.2-2,0.5-3.9,0.8-5.9c0.2-1.4,1-2.1,2.4-2.1c0.7,0,1.3-0.1,2.2-0.1c0-0.8,0-1.3,0-1.9
		c-0.3-5.4-0.6-10.7-1-16.1c-0.2-2.4-0.2-4.9-0.6-7.3c-0.9-5.8-1.4-11.6-1.7-17.4c-0.3-6.3-1.3-12.5-3-18.6c-0.4-1.4-0.8-2.6,0.2-4
		c0.3-0.4,0.2-1.1,0.1-1.7c-0.3-3.3-0.7-6.5-1-9.8c-0.2-2.1-0.3-4.2-0.1-6.3c0.4-3.8,0.6-7.7,3-11c0.4-0.6,0.5-1.3,0.8-1.9
		c0.8-2.3,1.6-4.6,2.3-7c0.7-2.2,1.4-4.4,1.5-6.8c0-1,0.4-2,0.6-3c-0.3-1.1-0.6-2.2-0.9-3.4c-1.5-5.8-1.6-11.8-1.2-17.7
		c0.1-1.7-0.1-3.2-0.5-4.8c-0.8-2.7-1.3-5.4-1.8-8.2c-0.4-2.1-0.5-4.3-0.8-6.7c-0.9,0.9-1,2-1.4,3c-1.7,4.8-3.8,9.6-6.2,14.1
		c-0.7,1.4-1.6,2.5-2.9,3.4c-0.5,0.3-1,0.7-1.2,1.2c-0.9,2.6-2.8,4.9-2.3,7.9c0.1,0.3-0.1,0.7-0.2,1c-2.3,5.4-3.2,11.2-4.9,16.8
		c-0.2,0.6-0.1,1.4-0.1,2.1c0,2.5,0.1,4.9,0,7.4c-0.1,3-0.3,6.1-0.4,9.1c-0.1,1.6,0,3.3,0,4.9c-0.1,4.6-0.3,9.1-0.5,13.6
		c-0.1,2.3-0.3,4.7-0.6,7c-0.6,4.9-1.1,9.7-0.8,14.7c0.4,6.2,0.1,12.4-0.3,18.6c-0.2,4.1-0.5,8.2-0.1,12.2c0.4,3.6,0.4,7.2,0.3,10.8
		c0,1.5-0.2,3,0.6,4.5c0.5,0.1,0.9,0.2,1.4,0.2c4.1-0.1,7,2.3,9.6,5c1.2,1.3,1.6,2.8,0.7,4.5c-0.3,0.6-0.5,1.3-0.4,2
		c0.3,3.4,1.4,6.3,4.7,8.1c2.2,1.2,4.4,2.7,6.4,4.3c2.9,2.4,5.8,4.6,9.3,6.2c0.5,0.2,1.1,0.5,1.5,0.9c1.2,1.2,2.8,1.7,4.4,2
		c1.2,0.2,2.1,0.7,3.1,1.4c2.1,1.4,3.4,3.2,4.1,5.5c0.3,0.8,0.6,1.5,1.6,1.6c0.6-0.4,1.1-0.7,1.8-1.1c2.2,0.9,4.3,1.8,6.5,2.6
		c0.9,0.3,1.8,0.5,2.7,0.5c2.8-0.1,5.6-0.4,8.4-0.3c5.5,0,10.9-1.3,16.3-1.9c2.8-0.3,5.1-1.4,6.5-4c0.2-0.3,0.3-0.6,0.4-1
		c-0.5-2-0.9-4.1-1.4-6.1c-0.2-0.6-0.5-1.2-0.9-2.1c-3.5,1.2-5.8-0.8-8.2-2.9c-3-2.6-6-5.2-8.5-8.3
		C263.3,551.2,262.5,550.9,261.8,550.5z M174.7,546.1c1,0.7,0.9,1.8,1.1,2.8c0.2,1.3,1.2,1.9,2.2,1.4c2.4-1.2,4.8-2.4,7.1-3.8
		c0.5-0.3,1-1,1.2-1.6c0.8-2.1,1.9-4,3.5-5.6c1.3-1.4,1.4-3,1.2-4.8c-0.4-3.7-1.4-7.4-0.2-11.1c0.1-0.4,0-0.9,0-1.4
		c-0.1-2.4-0.4-4.9-0.3-7.3c0.3-7.9,0.2-15.9-0.1-23.8c0-1.3,0-2.6-0.2-3.8c-0.5-3.3-0.1-6.5,0.2-9.8c0.4-3.8,1.2-7.6,1.8-11.4
		c0.1-0.9,0.1-1.9,0.1-2.8c-0.1-2.3-0.4-4.7-0.4-7c0.1-5,0.4-10,0.6-15c0.1-1.9,0.1-3.7,0.3-5.6c0.2-2.6-0.4-5.4,1.8-7.6
		c0.1-0.1,0.1-0.4,0.2-0.7c0.4-3,1.7-5.8,1.3-9c-0.1-0.4,0.1-0.9,0.2-1.4c2-7,4.2-13.9,8.5-19.9c1.2-1.7,2.1-3.6,2.6-5.7
		c0.8-3.2,1.8-6.3,2.7-9.4c2.9-9.6,5.9-19.2,8.1-29c1.4-6.2,3-12.2,5-18.2c0.7-2,1.3-4,2-6.2c-6-1.3-11.8-2.5-17.6-3.7
		c-0.3-0.1-0.6,0.2-1,0.3c0,0.5-0.1,1-0.1,1.4c0.1,4.7-0.2,9.3-1.2,13.9c-1.1,4.9-2.5,9.7-5.5,13.9c-1.1,1.6-2.4,3.2-3.7,4.6
		c-1.9,2.1-4.3,3.7-6.9,4.8c-2.1,0.9-4.3,1.8-6.7,1.2c-0.4-0.1-0.9,0-1.4,0.2c-1.3,0.4-2.5,0.3-3.8,0c-1.8-0.4-3.6-0.8-5.3-1.2
		c-0.1,0.2-0.2,0.3-0.2,0.4c0,0.5,0.1,0.9,0.2,1.4c0.8,4.6,1.3,9.2,1,13.9c-0.1,2,0,4,0.1,6c0.2,3.6,0.6,7.2,0.8,10.8
		c0.1,1.7,0,3.5-0.4,5.2c-1.3,5.6-2.7,11.1-5.7,16.1c-0.8,1.3-1.3,2.7-1.9,4.1c-2.5,6-4.3,12.3-5.7,18.7c-2.2,9.3-2.6,18.7-1.4,28.2
		c1.3,10,3.5,19.7,6.7,29.3c1,3.1,1.8,6.3,2.6,9.5c0.2,0.7,0.5,1.5,0.3,2c-0.5,1.6,0.2,3,0.6,4.4c2.2,7.2,4.4,14.3,6.5,21.4
		c0.2,0.6,0.4,1.1,0.6,1.7c0.4-1.8,0.4-3.6,0.4-5.3c0.1-3.1,0.1-3.1,1.2-4.7c0.2,0.3,0.4,0.6,0.5,0.9c0.8,4.5,0.5,9.1,0.2,13.6
		c0,0.3-0.2,0.8-0.4,0.9c-0.7,0.4-1.3,0.8-1.7,1.7C175.9,544.9,175.2,545.5,174.7,546.1z M259.7,187.6c0.4-2,0.6-3.6,1-5.2
		c0.3-1.5,1-2.8,2.4-3.7c1.8-1.2,3.6-2.6,5.2-4.1c1.3-1.1,2.5-2.4,3.7-3.7c1.1-1.1,1.6-2.5,1.9-4c0.7-4,0.7-7.9,0.1-11.9
		c-0.7-4.3-2.4-8.1-5.2-11.3c-3.3-3.8-6.6-7.5-9.4-11.7c-2.2-3.2-4.5-6.3-6.7-9.4c-1.4-2.1-2.8-4.3-4-6.2c-1.5-0.5-2.7-0.8-4.5-1.4
		c1.1,1.3,1.8,2,2.4,2.8c1.3,1.5,2.6,3,3.8,4.6c3.9,5.3,6.4,11.1,7.1,17.7c0.4,3.4-0.6,6.7-0.7,10.1c0,0.4-0.3,0.9-0.6,1.3
		c-0.9,1.2-1.7,2.5-2.8,3.6c-0.6,0.6-1.5,1.1-2.3,1.4c-1.9,0.7-3.8,1.2-5.7,1.8c-5.3,1.6-10.7,1.5-15.8-0.7c-2.4-1-4.8-1.8-7.2-2.7
		c-3-1.1-5.9-2.3-8.7-3.6c-5.8-2.7-9.9-7-12.2-12.9c-1.4-3.5-2.6-7-3.5-10.6c-2-7.7-4.4-15.3-6.9-22.8c-0.2-0.5-0.4-1-0.7-1.7
		c-1.6,1-2.8,2-3.8,3.3c1.2,2.2,2.6,4.3,3.5,6.5c1.5,3.8,2.8,7.7,4,11.6c1.1,3.8,2.2,7.6,1.9,11.7c-0.1,0.7,0.1,1.4,0.1,2.1
		c0.1,1.9,0.3,3.7,0.3,5.6c-0.1,1.9,0,3.8-0.7,5.5c-1.2,3.4-2.9,6.7-5.4,9.3c-2.6,2.7-4.7,5.8-7.4,8.4c-1.1,1.1-1.4,2.2-1.3,3.8
		c0.5,7.4,0.7,14.7-0.9,22c0,0.2,0.2,0.4,0.4,0.8c1-0.4,2.1-0.7,3.2-1.1c5.7-2.1,11.5-3.8,17.5-5.1c5.4-1.2,10.9-1.2,16.4-1.4
		c2.3-0.1,4.7-0.2,7-0.4c9.1-0.7,18.2-1,27.2,0.8C254.7,186.9,257,187.2,259.7,187.6z M236,575.5c-0.2-0.7-0.5-1.5-0.8-2.2
		c-0.5-1.6-1.6-2.5-3.3-2.8c-2.8-0.4-5.3-1.7-7.7-3.3c-1.5-1.1-3.1-2-4.9-2.1c-1.7,0.6-3.2,1.2-4.7,1.8c-1.6,0.6-3.1,1.7-4.8,1.7
		c-0.9-0.7-0.7-1.5-0.3-2.3c0.5-1,1.4-1.6,2.4-2c1.4-0.6,2.8-1.1,4.2-1.6c0.1-0.1,0.2-0.4,0.3-0.6c-0.3-0.3-0.6-0.6-1-0.9
		c-0.3-0.3-0.7-0.5-1-0.7c-0.7,0.7-1.3,1.4-1.9,1.7c-2.1,1-4.2,1.9-6.4,2.9c-0.9,0.4-1.8,0.2-2.2-0.5c-0.5-0.8-0.5-1.6,0-2.3
		c0.6-0.7,1.3-1.4,2.1-1.8c1.6-0.8,3.2-1.3,4.8-2c0.2-0.1,0.3-0.3,0.4-0.6c-0.6-0.4-1.1-0.7-1.6-1.1c-0.3,0.2-0.6,0.3-0.7,0.4
		c-2.6,2.3-6,3-8.9,4.7c-0.8,0.5-2-0.1-2.4-0.9c-0.5-0.9-0.3-2.1,0.6-2.8c0.5-0.4,1.1-0.8,1.7-1.2c2.1-1.3,4.5-1.9,7.4-2.5
		c-1-0.6-1.6-0.8-2.1-1.2c-0.6-0.5-1.2-1-1.8-1.5c-1.3,0.6-2.5,1.1-3.8,1.7c-2.5,1-4.9,2.1-6.2,4.8c-0.3,0.7-1.3,0.9-1.8,0.6
		c-0.7-0.4-1-1-0.9-1.7c0.1-1.4,0.9-2.5,1.9-3.2c1.4-1,3-1.9,4.6-2.5c1.9-0.8,3.9-1.3,5.9-1.9c-0.2-2.5-0.4-5.1-0.6-8.1
		c-1.7-1.4-3.7-3.1-5.8-4.9c-0.6,0-1.4,0.1-2.1,0.1c-1.5,2.4-3,4.6-4.2,7c-1.1,2.2-2.4,3.9-4.7,4.9c-2.3,1.1-4.5,2.5-6.9,3.5
		c-2.5,1.1-4.3,0.2-5.2-2.4c-0.4-1.1-0.7-2.2-1-3.3c-0.1-0.2-0.3-0.3-0.6-0.6c-0.7,0.3-1.5,0.7-2.2,1c-0.5,1.4-1,2.5-0.6,3.9
		c0.3,1.1,0.1,2.3-0.1,3.5c-0.6,2.7-0.6,5.3-0.5,8c0,1.2,0,2.3,0.2,3.5c0.2,2.3-0.4,4.3-1.8,6.2c-1,1.4-2.1,2.7-2.5,4.4
		c0.2,0.3,0.3,0.5,0.5,0.6c1.4,0.7,2.9,1.1,4.1,2c3,2.3,6.3,2.1,9.7,2c0.7,0,1.4-0.1,2.1-0.2c2.4-0.4,4.6-0.3,6.8,1
		c0.4,0.2,0.9,0.4,1.3,0.5c3.1,1.2,6.4,2.2,9.4,3.9c0.8,0.5,1.8,0.6,2.7,0.8c2.7,0.6,5.5,0.9,8.3,0.9c3.9,0,7.7-0.1,11.6,0
		c3.9,0.1,7.3-1.5,10.8-2.8c1.5-0.6,2.3-1.9,2.4-3.5c0-0.6,0-1.2,0-1.8C234.2,577.5,234.2,577.5,236,575.5z M270.3,328.2
		c-0.2,4.6,0.8,10.2,2,14.1c1.4,4.4,3.5,8.4,7,11.5c4.7,4.3,11.3,5.3,17.3,1.1c3.8-2.7,6.6-6.2,8.7-10.3c2.2-4.3,3.4-8.9,4.3-13.6
		c0.8-4.4,0.7-8.8,0.1-13.2c-0.6-4.1-1.6-8-3.3-11.7c-1.6-3.4-3.8-6.4-7-8.5c-4.6-3.1-9.3-3.1-14.2-0.5c-4.5,2.5-7.6,6.2-9.8,10.6
		C272,314.1,270.6,321,270.3,328.2z M155.7,320.7c0.4-2,0.7-3.8,1-5.5c0.1-0.3,0.1-0.7,0-1c-0.6-4.5-2-8.6-5.2-12
		c-0.9-1-1.8-2.1-3-3.4c-4.1-1.4-8.2-0.3-11.8,2.4c-4.4,3.3-7.3,7.8-9.3,12.9c-2.8,7.2-3.7,14.7-2.7,22.4c0.7,5,2.1,9.8,5,14
		c1.6,2.4,3.6,4.3,6.1,5.7c2.4,1.4,5,1.9,7.8,1.4c4.2-0.8,7.6-2.9,10.3-6.1c2.3-2.7,4.2-5.6,5.8-8.8c-0.1-0.5-0.1-1.1-0.2-1.7
		c-0.1-0.6-0.2-1.1-0.3-1.6c-1.4-0.9-2.2-2.3-4-2.1c-0.8,0.1-1.5-0.6-1.8-1.4c-0.2-0.5-0.4-1-0.6-1.7c-2,0-3.9,0-5.7,0
		c-1.6,0-2.8-0.5-3.4-1.9c-1-2.2-1.7-4.5-0.9-7.1c1.1-3.6,3.4-5.5,7.1-5.2C151.6,320.2,153.5,320.4,155.7,320.7z M264.6,180.5
		c-1.2,0.1-1.8,0.5-2,1.5c-0.2,2.1-0.7,4.2-0.6,6.3c0.1,1.5-0.2,2.8-0.9,4c-0.7,1.3-1.1,2.6-1.3,3.9c-1.2,7-2.4,14-3.5,21.1
		c-0.2,1.2-0.2,2.6,0.1,3.8c1.6,6.4,2.7,13,5.1,19.3c0.6,1.5,1,3.1,1.3,4.7c1.2,5.7,2.3,11.5,1.3,17.4c-0.1,0.8,0,1.6,0.2,2.4
		c0.3,1.3,0.6,2.5,1,3.7c2.2,6.2,3.3,12.6,3.5,19.2c0.2,4.9,0.3,9.8,0.5,14.7c0,0.6,0.2,1.3,0.3,2.1c1.4-0.7,1.8-1.9,2.6-2.7
		c0.9-0.9,1.8-1.8,2.7-2.8c0.8-0.8,1.6-1.7,2.2-2.4c-0.5-1.8-1-3.4-1.4-5c-0.3-1.6-0.5-3.2-0.7-4.8c-0.7-6-1.4-12.1-2.6-18
		c-0.9-4.7-1.6-9.4-1.5-14.2c0.1-7,0.1-14-0.1-21c-0.1-4.7-0.7-9.3-2.2-13.8c-1.2-3.9-2-7.9-2.8-11.9c-1.5-7.4-1.7-14.8-1.4-22.3
		C264.7,184,264.6,182.4,264.6,180.5z M192.5,96.4c1.1,0,1.5-0.7,1.6-1.6c0.1-1.6,0-3.3,0.2-4.9c1-7,1-14,0.9-21
		c0-1.5,0.2-3.1-1.8-3.7c-0.2-0.1-0.3-0.3-0.4-0.5c-1.2-1.9-2.4-3.7-3.6-5.6c-0.3-0.4-0.3-1.1-1.3-0.9c0.2,1.1,0.3,2.3,0.6,3.4
		c0.9,3.7,1.3,7.4,0.9,11.1c-0.6,4.5-0.3,9-0.4,13.9c1.5-3.1,1.4-6.1,2.1-8.9c0.7-2.8-0.3-5.7,0.8-9.1c0.3,1,0.4,1.4,0.5,1.9
		c0.6,5.2,0.8,10.5,0.6,15.7c0,1.5-0.3,3-0.5,4.5C192.5,92.7,192.3,94.5,192.5,96.4z M152.9,332.8c0.8-3.7,1.5-7.1,2.2-10.7
		c-1.4-0.1-2.6-0.1-3.9-0.2c-1.3-0.1-2.5-0.2-3.7-0.3c-1.7,0.8-3,1.8-3.2,3.6c-0.2,2.2-0.9,4.6,0.7,6.8
		C147.8,331.5,150.4,331.8,152.9,332.8z M196,88.1c0.2,0.1,0.4,0.1,0.5,0.2c0.2-0.5,0.6-1,0.7-1.5c0.7-3.6,1.5-7.3,2-10.9
		c0.3-1.9,0-3.7-1-5.4c-0.3-0.6-0.9-1-1.5-1.6c-0.9,3.5,0.3,6.5,0,9.6C196.5,81.6,196.3,84.8,196,88.1z M220.6,18.4
		c0.1-0.2,0.2-0.5,0.2-0.7c-4.7-2.3-9.6-3.5-15.1-1.7c0.9,1.3,2.2,1.8,3.4,1.5c1.6-0.5,3.2-0.3,4.7-0.8c0.8-0.3,1.5-0.3,2.3,0
		C217.6,17.3,219.1,17.8,220.6,18.4z M186.7,22c-1.4,1.9-1.9,4.1-2,6.3c-0.1,3.8-0.1,7.7-0.1,11.5c0,0.8,0.2,1.6,0.3,3
		c0.7-2,0.6-3.5,0.5-5c-0.3-4.2-0.2-8.4,0.6-12.5C186.3,24.3,186.5,23.2,186.7,22z M189.8,50.8c-0.6,2.2-0.3,4.4,0.9,6.5
		c0.7-1.9,1.4-3.7,2.1-5.5C191.9,51.2,191.1,50.4,189.8,50.8z M199.5,10.9c1.6,1.1,2.9,1.9,4.1,2.8c0.8,0.6,1.8,0.8,1.8,0.3
		c0-0.5-0.3-1-0.5-1.5c-0.8-1.5-2.1-2.1-3.8-1.8C200.7,10.7,200.3,10.7,199.5,10.9z M191.5,95.3c-1,2.3-1,2.3-0.6,3.6
		C192,98,191.8,96.9,191.5,95.3z M213.1,18.8c-0.1-0.1-0.2-0.1-0.3-0.1c-0.1,0-0.2,0-0.3,0.1c0.1,0.1,0.2,0.1,0.3,0.1
		C212.9,18.9,213,18.9,213.1,18.8z M214.9,19.4l-0.3,0.1l0.3,0.1L214.9,19.4z"/>
	<path d="M590.8,441.5c-2.3-0.1-4.3,0.3-5.9,1.1c-0.7,0.3-1.5,0.7-2.3,0.8c-8,0.9-16.1,1.1-24.1,0.3c-4.3-0.4-8.6-0.9-12.9-1.5
		c-4.8-0.6-9.3-2.1-13.6-4.5c-0.4-0.2-0.8-0.3-1.2-0.4c-0.6,1-0.1,1.7,0.1,2.5c0.8,2.9,1.7,5.8,2.5,8.8c0.6,2,1.1,4,1,6.2
		c0,1.6,0.4,3.2,0.5,4.9c0.2,3.4,0.7,6.8,0.4,10.1c-0.3,3.8-1.1,7.6-1.7,11.4c-0.5,2.8-1,5.5-1.6,8.3c-0.1,0.5-0.2,0.9-0.2,1.4
		c-0.2,6.3-1.6,12.5-2.1,18.8c-0.1,0.7-0.1,1.4-0.2,2.1c-1.1,4.2-0.3,8.3,0.9,12.4c0.1,0.2-0.1,0.4-0.1,0.7
		c-0.5,0.5-0.8,0.1-1.2-0.2c-0.3-0.2-0.5-0.5-0.6-0.9c-0.6-3.2-2-6.2-1.8-9.6c0.2-3.1,0.5-6.3,0.9-9.4c1-6.7,2-13.4,2.5-20.2
		c0.2-3.2,0.7-6.3,1.7-9.3c0.6-2,0.6-3.9,0.4-5.9c-0.2-1.9-0.3-3.7-0.4-5.6c-0.4-8.2-1.2-16.3-3.6-24.2c-1.5-5.1-2.2-10.2-2.2-15.6
		c0.1-6.1-0.1-12.2,1.2-18.1c0.1-0.2,0.1-0.5,0.1-0.7c-0.7-4.4,1.1-8.3,2.4-12.2c1.4-4.2,3.3-8.2,5.5-12.1c2.4-4.3,4.9-8.5,7.4-12.7
		c2.7-4.5,5.4-9,7.3-13.9c0.3-0.9,0.6-1.6,0.3-2.7c-0.3-1.2,0.1-2.5,0.3-3.8c-1.7,0.3-3.2,0.8-4.8,0.9c-1.6,0.1-3.2-0.2-5-0.3
		c-2.3-3.5-5.5-6.5-7-10.7c-0.2-0.6-0.8-1.2-1.2-1.7c-2.1-3.1-3.8-6.4-4.5-10.2c-0.2-1-0.6-2-1.1-2.9c-1.7-3-2.8-6.1-3.9-9.4
		c-1-3-1.6-6.1-1.4-9.3c0.5-7.2-0.9-14.2-2.3-21.2c-0.1-0.7-0.3-1.4-0.4-2.1c-0.5-2.7-1.3-5.2-2.4-7.6c-3.1-6.4-4.2-13.1-2.5-20.1
		c0.5-2,0.9-4.1,1-6.2c0-2,0.9-3.9,2-5.6c0.8-1.3,1.6-2.6,2.6-3.8c0.9-1.1,1.9-2.1,2.8-3.1c0.5-2.2,1-4.3,1.5-6.5
		c0.9-3.9,2.7-7.4,4.9-10.8c3-4.6,7.3-7.6,12.4-9.2c2.8-0.9,5.8-0.8,8.7-0.2c1.1,0.2,2.3,0.4,3.5,0.7c0.9-1.3,1.1-2.7,1.2-4
		c0.1-1.6,0.2-3.3,0.3-4.9c0.1-3,0-6.1,0.1-9.1c0.4-8.7-0.8-17.3-2.9-25.7c-1.8-7.2-2-14.6-1.4-21.9c0.3-3.9,1.5-7.5,4.4-10.4
		c1.9-1.9,3.5-4,5.2-6.2c0.5-0.7,1.2-1.1,2-1.4c4.5-1.6,8.7-1.2,12.6,1.7c0.7,0.5,1.2,1.1,2,1.7c4-0.3,8,0,12.1,0.6
		c6.5,1.1,12.3,3.7,17.5,7.6c0.7,0.6,1.3,1.3,1.8,2.1c1.7,2.6,2.7,5.3,3.5,8.3c1,3.6,1.8,7.2,2.3,10.9c0.4,2.8,0,5.3-0.6,7.9
		c-0.4,1.9-0.4,3.7-0.1,5.5c1.2,6.8,0.5,13.2-2.7,19.4c-1,2-1.8,4.1-2.7,6.1c-0.6,1.5-1.3,3-2,4.5c-0.7,1.5-1.6,2.9-2.9,3.9
		c-1.7,0.2-3.4,0.4-5.2,0.5c-0.5,1.1-0.2,2.1-0.3,3.1c-0.1,1,0,2.1,0,3.1c1.7,1.3,3.2,2.6,4.7,3.8c1,0,1.1-0.8,1.5-1.4
		c0.6-0.9,1.1-1.8,1.7-2.7c2.9-4.3,7-7.2,11.9-8.8c2.7-0.9,5.5-1.1,8.3-0.4c0.3,0.1,0.7,0.2,1,0.2c5.4,0.3,7.8,4,9.7,8.3
		c1.6,3.5,2.4,7.3,2.7,11.3c1,0.4,1.9,0.8,3,1.3c1.1-2.1,2.2-3.9,3.2-5.9c1.7-3.6,4.3-6.5,7.4-8.7c4.6-3.2,9.7-5.1,15.5-3.6
		c2.1,0.6,4.4,0.8,6.3,2c2.6,1.5,4.7,3.5,6.3,6c4.2,6.3,6,13.3,5.9,20.9c0,0.5,0,0.9,0,1.4c0.3,6.1-1,11.9-3,17.5
		c-2.3,6.4-6,11.9-12.2,15.3c-2.6,1.4-5.2,2.5-8.3,2.3c-2-0.2-4.1,0.2-6.3,0.3c0.1,5.2,0.3,10.3,1.1,15.4c0.6,3.5,0.9,7,1.3,10.4
		c0.5,3.4,1,6.7,1.5,10.1c0.9,7.4-0.1,14.4-3.1,21.2c-0.5,1.1-0.8,2.2-0.8,3.4c0,0.8-0.1,1.6-0.1,2.4c-0.2,1.6-0.8,2.9-2.1,3.9
		c-2.3,1.8-4.6,3.6-6.9,5.3c-2.3,1.7-3.6,1.6-6-0.1c-0.3-0.2-0.5-0.5-0.8-0.6c-3.4-1.5-5.2-4.5-7-7.6c-1-1.7-1.9-3.5-2.9-5.2
		c-0.2-0.4-0.4-0.9-0.7-1.2c-1.4-0.9-1.8-2.4-2.1-3.9c-0.8-3.4-1.5-6.8-2.1-10.3c-0.2-1.1-0.3-2.3-0.6-4.1c-0.6,1.4-0.6,2.3-0.8,3.1
		c-0.2,0.9-0.4,1.8-0.5,2.8c-0.6,4-1.3,8.1-1.9,12.1c-0.2,1.5-0.2,3,0.1,4.5c1.1,4.3,2.1,8.6,3.1,12.9c0.2,0.9,0.5,1.8,0.8,2.7
		c2.1,5.6,3.3,11.4,3.9,17.4c0.2,1.5,0.5,3,1.2,4.4c0.5,1.1,0.9,2.2,1.2,3.3c0.3,1.6,1.3,2.4,2.7,2.9c2.1,0.7,4.2,1.4,6.3,2
		c0.5,0.2,1.2,0.2,1.7,0c1.5-0.5,3,0,4,0.8c1.2,1,2.5,1,3.9,1.3c6.6,1.4,13.1,3.5,19.4,5.9c6.3,2.4,12.6,4.9,18.9,7.5
		c4.9,2,9.1,5.1,13,8.8c0.7,0.7,1.7,1.3,2.5,1.9c2.8,1.7,5.5,3.5,8.3,5.1c1,0.6,1.9,1.3,2.4,2.4c0.4,0.8,1,1.6,1.5,2.4
		c1.1,1.8,1.8,3.8,1.8,6c0,3.3,0,6.5,0,9.8c0,0.9,0,1.9-0.2,2.8c-1.1,6.9-0.5,13.8-0.5,20.6c0,2.1-0.2,4.2-0.3,6.3
		c0,0.2,0,0.5-0.1,0.7c-1.6,2.2-1.3,4.9-1.8,7.4c-1.7,9.2-3.7,18.3-7.5,26.9c-0.6,1.4-1.3,2.8-2,4.1c-1.9,3.7-3.4,7.7-4.5,11.7
		c-1.4,5.3-2.8,10.6-4.3,15.9c-0.3,1.1-0.7,2.2-1.1,3.3c-0.2,0.6-0.5,1.5-1,1.8c-1.8,1.3-2.2,3.2-2.5,5.4c1.6,0.1,3.2,0.2,4.9,0.3
		c0.3,0.7,0.6,1.4,0.7,2c0.2,2.2,0.6,4.4,0.5,6.6c-0.1,2.7,1.2,4.7,3,6.4c1.3,1.3,2.8,2.4,4.4,3.5c2.8,2,5.4,4,7.4,6.8
		c1.2,1.7,2.9,3,4.9,3.8c0.2,0.1,0.5,0.1,0.6,0.3c3.2,2.5,7.1,3.4,10.9,4.6c0.2,0.1,0.4,0.2,0.8,0.4c0.4,0.6,0.8,1.2,1.2,1.9
		c1.7,2.9,2,5.9,0.5,9c-0.3,0.6-0.7,1.4-0.6,1.9c0.6,1.8-0.5,2.6-1.8,3.3c-1.5,0.8-3.2,1.3-4.9,1.8c-4.1,1.3-8.3,1-12.5,1.1
		c-6.3,0-12.3-1.2-18.1-3.4c-0.9-0.3-1.7-0.8-2.7-0.5c-1.7,0.5-3.3,0-4.7-0.9c-1.6-0.9-3.2-1.4-5-1.2c-1.4,0.1-2.8-0.1-4.2-0.1
		c-0.9,0-1.9,0-2.8,0.2c-2.9,0.7-5.8,0.6-8.7,0.1c-3.5-0.5-6.9-1.3-10.3-2.1c-1.9-0.5-3.7-1.4-5.2-2.8c-0.3-1.3-0.4-2.6,0.1-3.8
		c1.4-3,1.7-6.3,3-9.3c1.3-3,1.6-6.3,2.2-9.5c0.6-3.6,1.3-7.1,2.2-10.6c0.5-2.3,1.8-3.2,4.3-3.3c1.3,0,2.6,0,3.8,0
		c1.7-2.9,3.5-8.8,3.7-11.9c0.5-5.6,0.6-11.2,0.3-16.8c-0.2-4.3-0.2-8.6-0.3-13c0-1.4-0.1-2.8-0.5-4.2c-1.5-6.4-1.7-13-1.5-19.5
		c0.1-1.6,0-3.3,1.8-4.2c0.3-0.2,0.4-0.8,0.6-1.2c1.3-3,2.6-6,3.8-9.1c1.5-3.7,2.8-7.4,4.2-11.1c1.2-3.2,2.3-6.4,3.4-9.6
		c0.3-0.8,0.5-1.5,0.8-2.4c-0.8-0.9-1.8-1.5-3-1.4c-1.7,0.2-3.2-0.2-4.8-0.8c-0.6-0.3-1.4-0.4-2-0.4c-4,0-8-0.2-11.9,0.4
		c-1.5,0.2-3,0.6-4.4,1c-7.9,2.7-16,3.3-24.2,2.9c-3-0.2-6.1-0.1-9.1-0.2c-8-0.2-15.8-1.6-23-5.4c-1.9-1-4.1-0.7-6.1-1.7
		c-1.4,1.8-2,3.8-2.7,5.8c-3.9,11-6.7,22.4-9,33.8c-1.1,5.3-2.3,10.5-3.5,15.7c0,0.1,0,0.2-0.1,0.3c-1.8,6.2-3.5,12.3-5,18.6
		c-0.5,2.3-1.4,4.4-2.4,6.6c-1.5,3.3-3.5,6.3-6.4,8.6c-0.9,0.7-1.7,1.6-2.4,2.6c-1.6,2.4-3.7,4.2-6.1,5.7c-2.5,1.5-5,3-7.1,5.1
		c-0.8,0.8-1.8,1.1-2.9,1.1c-5,0.1-10.1,0.1-14.8-2c-5.8-2.6-11.9-3.9-18.3-4c-3.8,0-7.7-0.6-11.4-1.7c-1-0.3-2-0.6-3.1-0.2
		c-0.5,0.2-1.4,0.1-2-0.2c-1.8-0.8-3.6-1.6-5.3-2.6c-4.7-2.8-9.6-4.8-14.8-6.1c-0.3-0.1-0.7-0.1-0.9-0.1c-1.3,1.3-2.5,2.5-3.8,3.7
		c0.2,0.5,0.7,1,0.8,1.6c0.2,0.7,0.2,1.4,0.2,2.1c-0.1,2.9-0.1,5.8-0.3,8.8c-0.2,2.5,0.1,4.8,1.2,7.1c1.2,2.4,1.8,5,3.6,7.2
		c0.4,0.5,0.4,1.3,0.5,2c0.1,1.3,0.2,2.6,0.3,3.9c-0.2,0.3-0.3,0.6-0.5,0.9c-2.1,4.4-5.9,5.8-10.3,5.9c-7.7,0.2-15.1-1-22.2-4.1
		c-3.5-1.5-5.3-4-5.2-7.9c0-0.9,0.1-1.9,0.1-2.8c0.3-4.2,1-8.3,0.5-12.5c-0.1-1,0.2-2.1,0.2-3.1c0-1.6,0-3.2,0-4.8
		c-1.1-0.5-2.2-0.9-3.1-1.5c-0.8-0.6-1.5-1.5-2.1-2.3c-1-1.4-1.8-3.1-1.6-4.9c0.3-3.7,0.6-7.4,2-11c1.1-2.9,2.9-5,5.3-6.6
		c2.3-1.6,4.3-3.5,6.9-4.7c1.1-0.5,2-1.6,2.9-2.5c0.8-0.9,1.8-1.6,3-1.7c4.6-0.5,9.1-0.9,12.9,2.8c3-0.4,6.1-0.7,9-1.3
		c3.9-0.7,7.8-1.6,11.7-2.4c1.1-0.3,2.2-0.6,3.3-1.1c2.5-1,5.1-1.6,7.9-1.5c5,0.1,10,0.3,15,0.5c1,0.1,2.1,0.4,3,0.9
		c3.2,1.7,6,4.1,8.5,6.7c0.3,0.3,0.3,0.7,0.6,1.4c-0.7-0.1-1-0.1-1.3-0.3c-2.3-1.6-4.6-3.2-6.9-4.8c-1.5-1-3.1-1.5-4.9-1.5
		c-3.5,0-7,0-10.5-0.1c-4.7-0.2-9.3,0.8-13.8,1.8c-4.9,1.1-9.8,2.1-14.7,3.1c-0.3,0.1-0.7,0.2-1,0.1c-3.4-0.1-6.7,0.1-10.1,0.6
		c-0.4,0.1-0.9-0.2-1.6-0.4c0.4-0.5,0.7-0.9,1-1c0.6-0.2,1.3-0.3,2.1-0.5c-0.5-0.4-0.7-0.6-1-0.8c-2.6-1.3-5.5-0.7-8.2-0.8
		c-0.7,0-1.6,0.6-2.1,1.1c-1.8,1.9-3.6,3.6-6.2,4.4c-0.4,0.1-0.8,0.5-1.1,0.8c-1.7,1.7-3.6,2.9-5.9,3.8c-1.9,3.4-3.4,6.9-3.4,10.9
		c0,0.9-0.2,1.9-0.3,2.8c-0.3,1.9,0.3,3.5,1.4,4.9c0.3,0.4,0.9,0.8,1.4,0.9c2.6,0.7,3.8,2.5,4,5.1c0.1,2,0.1,4,0.2,6
		c0.1,1.3,0.1,2.6,0.3,3.8c0.2,1.7,0.3,3.3-0.6,4.8c-0.1,0.2-0.3,0.4-0.3,0.6c-0.1,3.9-0.7,8,1.5,11.8c0.9,0.3,1.8,0.7,2.8,1.1
		c4.3,1.3,8.7,2.8,13.2,3.2c3.4,0.3,6.7,0.4,10.1-0.2c2.6-0.5,4.5-1.7,5.6-4.1c0.6-3.9-0.6-7.2-2.6-10.3c-1.4-2.1-2-4.4-2.1-6.9
		c-0.2-4.1-0.5-8.1-0.8-12.3c-2.4,0.3-4.8,0.7-7.2,0.9c-2.3,0.2-4.7,0.3-7,0.3c-1.3,0-2.5-0.4-3.7-0.8c-0.5-0.2-1-0.6-1.4-1
		c-0.6-0.6-0.8-1.4-0.5-2.2c0.3-0.7,1.1-1.3,2-1.1c1.3,0.2,2.5,0.5,4,0.8c0.3-0.3,0.7-0.6,1.3-1.1c1.2,1,2.7,1.2,4.2,1.1
		c1.4-0.1,2.8,0,4.2-0.1c3.1-0.2,5.9-1.2,8.4-3.4c-1.1-0.8-2.2-0.4-3.1-0.8c-3-1.3-6.3-1.9-8.9-3.9c-0.8-0.6-1.7-0.7-2.7-0.5
		c-2.9,0.7-5.5-0.6-8.2-1.2c-1-0.2-1.6-1-1.6-2.1c0-2.1,0-4.2,0.1-6.3c0.1-1.2,0.5-2.3,1.3-3.2c0.6-0.7,1.1-1.5,1.7-2.2
		c1.8-2.3,4.1-3.3,7.1-2.8c0.2,0,0.3,0.3,0.5,0.4c0.2,0.7-0.2,1.2-0.8,1.3c-0.7,0.2-1.4,0.2-2.1,0.4c-2,0.6-3.3,1.7-4.3,3.7
		c-1.4,2.9-1.2,5.8-1,8.9c2.1,1,4.4,0.8,6.6,0.8c2.1-0.1,3.8,0.3,5.6,1.5c1.7,1.2,3.8,1.8,5.7,2.7c0.2,0.1,0.4,0.2,0.7,0.2
		c5.9,0,11.1,2.2,16.4,4.3c1.6,0.6,3.2,1.5,4.7,2.3c5.6,3.1,11.8,4.3,18.1,4.9c3.5,0.3,7,0.4,10.5,0.6c3,0.1,5.8,0.8,8.5,2
		c4.1,1.8,8.4,2.8,12.7,4c1.9,0.5,3.7,0,5.5-0.2c0.5-0.1,1-0.6,1.5-0.9c2.2-1.6,4.3-3.2,6.5-4.7c1.5-1,2.7-2.1,3.7-3.6
		c1.7-2.4,3.5-4.7,5.4-6.9c3-3.7,5-7.8,6.5-12.3c2.6-7.7,4.2-15.5,6-23.4c2.6-11.6,5.6-23.2,9.5-34.4c0.9-2.5,1.9-5,2.8-7.6
		C590.5,442.8,590.6,442.1,590.8,441.5z M599.1,137.7c0-0.1-0.1-0.2-0.1-0.3c0,0-0.1,0-0.2-0.1C598.9,137.4,599.1,137.5,599.1,137.7
		c0.1,0.4,0.3,0.6,0.7,0.6c0.2,0.7,0.4,1.4,0.6,2.1l0.1-0.1c-1.3-0.2-2.5-0.1-3.5,0.8c-1-0.8-1.8-1.8-3.1-1.5
		c-1.2,0.3-2-0.2-2.9-0.8c-0.9-0.6-1.8-1.1-2.7-1.6c-0.5-0.3-1.2-0.6-1.6-0.4c-1.1,0.5-2-0.1-3-0.4c-3.9-1.4-7.9-2.7-11.9-4
		c-1.4-0.5-2.4-0.3-3.3,1c1.4,1.1,2.7,2,4,2.9c1.8-0.1,3.3,0.1,4.8,1c1.4,0.9,3.4,0.6,4.5,1.9c-0.6,1.9-3.2,1.8-3.1,3.8
		c-2,0.6-3.7-0.4-5.5-0.5l0.1,0.1c-1.6-1.3-3.6-1.6-5.4-2.3c-1.5-0.6-3-1.1-3.7-2.9c-0.2-0.4-0.8-0.7-1.2-1c-2.7,3.5-3,4.1-3.4,6.9
		c1.3,0.7,2.6,1.5,3.9,2.2c0.8,0.5,1.7,0.7,2.7,0.4l0.1,0.3l-0.2-0.2c-1-0.8-2.1-1.5-3-2.3c-0.3-0.2-0.9-0.5-0.3-1.1
		c1.6,0.8,3.1,1.7,4.7,2.2c1.9,0.7,3.8,1.5,6,0.2c1.3-0.8,2.6,0,3.7,1.4c-1.2,0.3-2.3,0.3-3.2,0.7c-0.9,0.4-1.8,1.1-2.4,2
		c-0.5,0.8-0.5,1.9-0.7,2.9c-0.7,0.7-1.5,1.6-2.1,2.2c-1.9-0.2-3.7-0.2-5.4-0.5c-2.2-0.3-3.1-0.9-4.4-2.3c0.5-0.6,1.1-0.2,1.6,0
		c2.1,1,4.3,1,6.5,0.8c0.7-0.1,1.5-0.2,1.9-0.7c0.5-0.5,0.7-1.3,1.2-2.3c-3.6-0.3-7,0.6-10.6-0.8c2.2-0.5,4.2,0.1,6.3-0.6
		c-1.1-0.4-1.9-0.7-2.6-1c-0.8-0.4-1.6-1-2.4-1.4c-0.6-0.4-0.9-1.5-1.9-1.1c-2.1,5.8-3.2,16-2.2,20c0.9,0,1.8,0,2.7,0
		c0.2,0.5,0.4,0.9,0.6,1.4c1-0.3,2-0.6,2.8-0.9c0.3-0.8-0.8-1.1-0.1-1.8c0.6-0.1,1.4-0.3,2.5-0.5c-2.9-0.3-5.6,0.3-8.2-2.1
		c1,0.1,1.4,0.1,1.8,0.1c2.9,0.2,5.8,0.7,8.6-0.4c0.1-0.1,0.2-0.3,0.3-0.4c-0.8-0.2-0.8-1-1.2-1.6c-1.6,0.2-3.2,0.4-4.7-0.5
		c-0.6-0.3-1.6-0.6-1.8,0.7c-1,0.4-1.8,0.1-2.4-0.9c0.3-0.3,0.6-0.7,0.9-1c0,0.1,0,0.2,0,0.3c0,0.1,0,0.1,0.1,0.2
		c-0.1-0.1-0.1-0.2-0.2-0.3c-0.3-0.4-0.9-0.8-0.4-1.8c1,0.6,2.1,1,3.2,0c1.1,0.4,2.1,0.8,3.2,1.2c-0.2,0.5-0.4,0.8-0.6,1.3
		c1.6-0.3,3.1-0.6,4.5-0.9c0.8-0.2,1.6-0.5,2.4-0.5c0.3,0,0.7,0.5,1.1,0.7c-0.8,0.2-1.7,0.5-3.2,0.9c2.1,0.1,2.1,0.1,3.1-1
		c0.3,0.3,0.6,0.6,1.1,1.1c-1.4,0.7-2.6,1.3-3.8,2c0.4,0.4,0.7,0.6,1,0.9c-0.9,0.5-1.8,0.9-2.6,1.3c0.6,0.2,1.2,0.4,1.8,0.6
		c-0.5,2.4-2.9,1.8-4.1,2.9c0.4,0.4,0.9,0.8,1.6,1.4c-1.5,0.2-2.6,0.4-3.7,0.5c0,0.1,0,0.2,0,0.3c1.3,0.1,2.7,0.3,4,0.4
		c-1.8,0.4,0,1.8-0.9,2.7c-0.7-0.5-1.4-1.1-2.5-1.9c0.5,2.5-0.4,4.7,1.5,6.5c0.8,0.8,0.5,1.5-0.7,2.8c-0.6-0.6-1.3-1.1-1-2.3
		c0.3-1-1.4-1.1-1.5-2.6c0.2-0.5,0.5-1.4,0.7-2.2c0-0.2-0.2-0.4-0.3-0.7c-0.9,0.5-1.7,1.1-2.5,1.6c0,1.4-0.1,2.5,0,3.7
		c0.1,1.1,0.5,2.1,1.3,2.8c1.3,1.1,2.6,2.2,3.9,3.3c0.7-0.2,1.3-0.4,1.9-0.5c0.3,0.8,0.8,1.5,0.9,2.2c0.6,2.4,1.9,4.5,1.7,7.1
		l0.1-0.1c-0.4-0.2-0.7-0.7-1.4-0.3c0,0.4-0.1,0.8-0.1,1.2c-0.2,2.8-0.3,5.6-0.6,8.4c-0.4,3.8-2.1,7.1-3.6,10.5
		c-0.4,0.9-1.3,1.6-2,2.4c-0.7,0.9-1.8,1.5-2.1,3.1c0.6,1.4,1.3,3.2,2,4.9c0.9,2.2,1.7,4.3,1.7,6.7c0,0.2,0.2,0.4,0.4,0.7
		c0.8,0,1.7-0.1,2.6-0.1c0.9-1.7,1.8-3.2,2.6-4.7c2.9-5.2,6.7-9.4,12.6-11.5c2.8-1,5.6-1.6,8.5-1.2c0.7,0.1,1.3,0,1.9,0
		c0.8-1.2,0.4-2.7,1.2-3.7c2.2,1.3-0.2,2.8,0.4,4.2c0.4,0.1,1,0.2,1.6,0.3c0.6-1.8,0.3-3.5,0.2-5.2c-1.1-0.2-2.1-0.4-3.7-0.6
		c1.1-0.5,1.6-1,2.1-1c1.2-0.1,2.3-0.2,3.5-0.1c5.6,0.3,6.2,0.1,8.7-5.5c1.5-3.3,2.6-6.8,4.1-10c3.1-7,3.1-14.1,1.3-21.5
		c-1.8,2.1-1.8,2.1-3.8,2.5c-0.8-1.2-1.6-2.5-2.4-3.9c1.9-1.7,4-1.4,6.2-0.7c0.9-1.5,1.6-2.9,1.6-4.6c-1.5-0.7-2.8-0.5-4.2-0.3
		c-0.8,0.1-1.6,0.2-2.4,0.1c-0.6-0.1-1-0.5-0.6-1.4c1-0.1,2.2-0.3,3.3-0.3c1.1-0.1,2.3,0,3.7,0c-1.3-4.2-1.8-8.5-3.3-12.6
		c-0.8-2.1-1.8-4.1-3.3-5.7c-0.1-0.1-0.4-0.1-0.3,0c-0.7,0.3,0.4,1.3-0.8,1.2c-0.5-0.8-0.9-1.6-1.4-2.4c-0.6-0.9-1.2-1.7-1.8-2.5
		c-0.8,0.8-0.4,1.4,0,1.9c0.8,1.2,0.8,1.2,1,2.1c-1.2-0.4-1.5-2.1-3-2.2C599.6,138.1,599.3,137.9,599.1,137.7z M580.9,134.1
		c0.2,0.1,0.5,0.3,0.3,0.2C581.3,134.3,581,134.2,580.9,134.1c-0.3-0.1-0.5-0.2-0.3-0.1C580.3,133.9,580.6,134,580.9,134.1z
		 M557,206.2c0.2-0.4,0.3-0.8,0.5-1.2c-0.1,0-0.1,0-0.2-0.1C557.2,205.4,557.1,205.9,557,206.2l0,0.2L557,206.2z M567.6,136.8
		c-0.6-0.2-1.3-0.4-1.9-0.7c-0.4-0.2-0.8-0.9-1.5,0.1c0.8,0.7,1.5,1.4,2.3,2c0.9,0.8,2,1.2,3.2,0.6c0.3,0.4,0.6,1.1,1,1.3
		c1.4,0.5,2.9,0.9,4.3,1.2c2.3,0.5,3.9-0.1,5.4-2.2c-1-0.5-1.8-0.1-2.6,0.5c-0.8,0.7-1.8,1-2.9,0.7c-1.8-0.5-3.6-0.9-5.4-1.4
		c0.4-0.2,0.7-0.6,1.1-0.7c1.5-0.2,2.9-0.2,4.4-0.3c-1.2-0.3-2.2-0.5-3.2-1.2c-1.4-1-2.9-1.9-4.4-2.8c-0.6-0.4-1.3-0.3-1.6,0.7
		C566.4,135.5,567,136.2,567.6,136.8L567.6,136.8z M553.6,137c-0.9,1.2-1.2,2.5-1.4,3.9c-0.8,4.5-0.6,9.1-0.5,13.6
		c0,1.2,0.4,2.3,1,3.8c0-2.4,0.1-4.2,0-6.1c-0.2-4.2-0.2-8.4,0.7-12.5C553.5,138.8,553.4,137.8,553.6,137c0.1-0.2,0.2-0.3,0.4-0.5
		c0,0,0-0.2-0.1-0.3C553.8,136.5,553.7,136.7,553.6,137z M592.9,134c-0.5,0.1-1.1,0.2-1.6,0.3c1.9,1.4,3.7,2.9,5.6,4.3
		c0.4,0.3,1.1,0.3,1.6,0.4c0.1,0.2,0.1,0.3,0.2,0.5c0.1-0.1,0.2-0.2,0.3-0.3c-0.2-0.1-0.3-0.1-0.5-0.2c-0.2-1.4-1-2.5-2.3-3.2
		c-0.4-0.2-1-0.7-0.5-1.4c2,1.1,2,1.1,3.3,1.2c-1-1.6-2.3-2.7-4-3.2c-2.4-0.8-4.7-1.8-8.1-1.7c1.4,0.7,2.1,1,2.8,1.4
		C590.8,132.7,592.1,132.9,592.9,134L592.9,134z M618.8,204.3c-1.1-0.2-2.1,0-3,0.5c-5.7,2.5-9.5,6.8-12,12.4
		c0.5,0.8,0.9,1.6,1.3,2.2c0.3,0.5,0.6,1,1.3,0.7c0.1-0.1,0.2-0.2,0.2-0.3c0.2-0.5,0.5-1.1,0.7-1.6c2.2-5.5,5.6-10.1,10.7-13.4
		C618.3,204.8,618.5,204.5,618.8,204.3c0.2-0.2,0.5-0.3,0.9-0.4C619.1,203.8,619.1,203.8,618.8,204.3z M566.1,126.4
		c-3.7,0-6.1,1.8-7.8,5c-1.2,2.2-2.2,4.4-2.6,6.8c-0.6,3.2-0.9,6.4-1.3,9.7c-0.2,2,0,4-0.5,5.9c-0.9,3.6-0.5,7.2-0.3,10.8
		c0,0.2,0.3,0.4,0.7,1c0.4-2.7,0.5-4.9,0.4-7.1c-0.1-4.2,0.5-8.4,1.5-12.4c0.7-2.8,1.8-5.5,3.4-8c0.6-1,1.1-2,1.8-3.2
		c1-0.6,2.5-0.7,3.2-2.2l-0.1,0.1c1.1-0.3,2.3-0.5,2.9-1.6c0-0.7-1.1-0.9-0.7-1.7c1.3,0.3,1.3,0.3,2.8,0c-0.9-0.6-1.7-1.1-2.4-1.7
		C566.9,127.3,566.5,126.8,566.1,126.4c1.8,0.2,3.3,1.3,4.7,2.5c0.5,0.4,1,0.6,1.6,0c-0.5-1.2-1.1-2.5-2.5-2.9
		C568.7,125.4,567.3,125.3,566.1,126.4z M543.1,209.3c-0.5,0-0.9,0-1.4,0.1c-5,1.3-8.7,4.3-11.7,8.4c-4,5.5-5.8,11.9-6.7,18.6
		c-0.5,3.7-0.4,7.4,0,11.2c0.6,4.3,1.8,8.4,3.8,12.3c1.7,3.1,4,5.8,7.1,7.5c1.5,0.8,3.1,1.6,5.3,1.3c-0.7-0.6-1.1-0.9-1.6-1.3
		c-2-1.4-3.6-3.2-5-5.3c-3.6-5.3-5-11.3-5.4-17.5c-0.4-6.4,0.5-12.6,2.5-18.6c2.2-6.5,5.7-12,11.6-15.7
		C542.1,209.9,542.5,209.5,543.1,209.3c0-0.2,0.1-0.2,0.1-0.3c0,0,0-0.1,0-0.2C543.2,209,543.2,209.1,543.1,209.3z M660.8,207.1
		c-4.6,0.5-8.2,2.8-11,6.2c-4.3,5.2-7,11.2-8.4,17.8c-0.4,1.8-0.7,3.7-0.8,5.5c-0.2,2.9-0.3,5.8,0.2,8.7c0.5,2.5,1.3,5,1.6,7.5
		c0.6,4.4,2.7,7.9,5.4,11.2c1.5,1.8,3.3,3.3,5.5,4.2c1.7,0.8,2.7,0.9,4.4,0.7c-1.3-1-2.6-2-3.8-3.1c-4.4-4.3-6.6-9.8-7.9-15.7
		c-0.7-3.2-0.8-6.5-0.8-9.7c-0.1-9.8,2.5-18.7,8.3-26.6c1.7-2.3,3.6-4.3,6.1-5.7C660,207.8,660.4,207.4,660.8,207.1
		c0.1-0.1,0.4,0,0.6-0.1c0.1,0,0.2-0.2,0.3-0.3c-0.2,0-0.4-0.1-0.6-0.1C661,206.7,660.9,206.9,660.8,207.1z M585.1,212
		c-4.9,0.9-9,3.1-12.1,7c-3.9,5-6.6,10.7-7.9,16.9c-0.4,2.1-0.8,4.1-1,6.2c-0.1,2.7-0.2,5.4,0.1,8c0.3,2.6,1.4,5.2,1.7,7.8
		c0.5,4.1,2.4,7.5,4.9,10.7c2.8,3.5,6.4,5.7,11.5,6.2c-0.9-0.7-1.4-1.1-2-1.4c-1.8-1.1-3.3-2.6-4.6-4.2c-3.2-4.1-5-8.9-6.1-14
		c-0.7-3.2-0.7-6.5-0.8-9.7c-0.1-4.9,0.7-9.8,2.1-14.5c0.4-1.3,1-2.6,1.6-3.9c0.1-0.3,0.5-0.4,0.8-0.6c-0.2,0.8-0.2,1.6-0.5,2.4
		c-1.9,5.8-3.3,11.7-3,17.8c0.1,1.9,0.4,3.7,0.5,5.6c0.3,4,1.6,7.8,3.3,11.4c1.5,3.2,3.6,6,6.5,8.1c5.1,3.9,11.8,3.1,16,0.1
		c3.8-2.7,6.7-6.2,8.7-10.3c2.2-4.3,3.3-8.9,4.3-13.6c1-5.1,0.7-10.2-0.2-15.3c-0.8-4.5-2.3-8.8-4.8-12.7c-2.3-3.6-5.5-6-9.4-7.4
		c-1.6-0.6-3.2-0.7-4.8-0.4c-4.1,0.6-7.4,2.8-10.3,5.6c-2.1,2.1-3.7,4.5-5,7.1c-0.4,0.7-0.4,1.6-1.4,1.9c0.1-0.6,0-1.2,0.3-1.7
		c0.9-1.6,1.8-3.2,2.8-4.7c2-3.3,4.7-5.9,8.2-7.7C584.7,212.5,584.8,212.1,585.1,212l0.2-0.1L585.1,212z M532.4,318.4L532.4,318.4
		c-0.4-2.5,0.4-4.7,2-6.7c1.8-2.3,3.6-4.6,5.6-6.7c2.3-2.5,4.6-4.9,7.1-7.3c2.3-2.2,3.5-5,4.9-7.6c0.2-0.4,0.4-0.9,0.3-1.3
		c-0.2-3.3-0.3-6.5-0.6-9.8c-0.2-2.4-1.2-4.7-1.3-7.4c1.8,0.6,1.8,2.3,2.8,3.3c1.8-2.2,3-4.8,4.2-7.3c0.4-0.8,0.9-1.6,0.5-2.8
		c-0.5,0.3-0.9,0.5-1.2,0.7c-2,1.2-4,2.4-6,3.6c-0.6,0.3-1.3,0.6-1.9,0.6c-1.8,0.2-3.7,0.2-5.6,0.4c-6.6,0.6-11.6-2-15.3-7.3
		c-2.8-4-4.4-8.4-5.2-13.2c-0.5-3-0.7-6-0.7-9.1c0-0.5,0.3-1.2-0.5-1.4c-2,2.2-3.5,4.6-4,6.5c-0.4,1.6-0.8,3.2-1.2,4.8
		c-0.6,2.3-0.8,4.6-0.5,6.9c0.4,3.9,1.2,7.6,2.3,11.3c1.2,4.3,2.4,8.5,3.6,12.8c1.7,6.2,2.8,12.5,2.2,19c-0.4,4.7,0.5,9.3,2.1,13.7
		c1,2.6,2,5.2,2.9,7.9c0.5,1.4,1,2.8,0.9,4.4c-0.1,0.8,0.2,1.6,0.6,2.3c0.8,1.6,1.7,3.1,2.7,4.5c0.7,1,1.2,2,1.8,3
		c1,1.8,2.1,3.6,3.4,5.3c1.4,1.7,3,3.2,4.6,4.8c3.3,0.8,6.2,0,9.3-2c3.1-6.1,6.4-12.6,9.5-19.1c1.1-2.3,2.1-4.7,2.8-7.2
		c1.5-5,2.7-10.1,4-15.2c0.1-0.6,0.3-1.1,0.4-1.7c0.5-3.6,1.2-7.1,2.1-10.6c1.2-4.6,2.3-9.3,3.9-13.8c0.3-0.7,0.3-1.6,0.4-2.1
		c-1.9-1.8-3.6-3.3-5.2-5c-1.7-1.8-2.9-4-3.8-6.3c-0.8-2.1-1.3-4.3-1.9-6.4c0.1,4.2-1.7,8.1-1.2,12.2c0.1,0.6-0.1,1.2-0.2,1.7
		c-0.9,3.5-1.6,7.1-2.8,10.5c-1.7,5-4.3,9.6-7.9,13.5c-5.8,6.3-11.4,12.6-17.2,18.9c-1.1,1.2-1.9,2.3-2.1,3.9
		C533,318,532.6,318.2,532.4,318.4z M605.5,419.5L605.5,419.5c-0.1,1.8-0.2,3.7-0.3,5.5c-0.1,4.2,0.5,8.1,2.8,11.8
		c1,0.3,2,0.6,3.1,0.7c5.9,0.5,11.9,1.1,17.8,1.4c5.9,0.2,11.9,0.2,17.9,0c2.5-0.1,5.2-0.3,7.6-0.9c6.6-1.6,13.3-2.2,20.1-2.1
		c0.7,0,1.4,0,2.1,0.2c1.3,0.4,2.6,1,4.1,0.4c0.5-0.2,1.4,0.2,2,0.5c1.1,0.6,2.2,1.3,3.3,2c0.5,1.9-0.2,3.5-0.7,5.2
		c-1.4,4.5-2.7,8.9-4.2,13.4c-0.9,2.7-1.7,5.4-3,7.8c-2.3,4.2-4,8.7-5.9,13.1c-0.3,0.7-0.7,1.5-0.7,2.3c-0.2,4.2-0.2,8.4,0.8,12.6
		c0.7,3.1,1,6.2,1.2,9.4c0,0.7,0,1.4,0.1,2.1c0.1,0.5,0.2,1.2,0.6,1.6c0.7,0.7,0.6,1.4,0.5,2.3c-0.9,5.8-0.6,11.6-0.3,17.5
		c0,0.2,0.2,0.4,0.3,0.6c0.5,0,0.9,0.1,1.5,0.1c-0.2,1.7,0.1,3.3-1.2,4.6c-0.4,0.4-0.5,1-0.5,1.6c-0.1,5.1-1.9,9.8-3.7,14.4
		c-1.3,0.7-2.5,1.4-3.7,2.1c0.1,0.2,0.2,0.6,0.3,0.9c1.5,2.4,2.8,2.8,5.3,1.7c1.4-0.6,2.7-1.4,4-2.2c1.3-0.7,2.6-1.7,4-2.1
		c2.1-0.6,4-1.3,5-3.3c0.1-0.3,0.6-0.3,0.9-0.5c0.9,0.9,1.2,1.3,0.9,1.7c-0.5,0.9-1,1.9-1.6,2.7c-0.4,0.5-1.2,0.9-1.8,0.9
		c-2-0.2-3.6,0.6-5.2,1.7c-1.2,0.8-2.4,1.4-3.6,2.1c-2.4,1.4-5,1.9-7.7,1.5c-2-2.6-3.5-5.3-2.7-8.9c-0.8,0.1-1.6,0-2.1,0.3
		c-0.4,0.2-0.9,0.8-1,1.3c-1.1,4.7-2.1,9.3-2.2,14.1c0,1.4-0.3,2.8-0.8,4.1c-1.4,4-2.9,7.9-4.3,11.8c-0.2,0.6-0.4,1.3-0.5,1.9
		c1.7,1.4,3.6,1.6,5.4,1.9c0.9,0.2,1.9,0.2,2.8,0.4c5.3,1.4,10.6,1.8,16,1.1c2.4-0.3,4.9-0.3,7.3-0.4c0.7,0,1.4,0.1,2,0.4
		c1.9,0.6,3.7,1.4,5.6,1.9c6.5,1.9,13,3.7,19.9,3.3c0.6,0,1.2,0,1.7,0.1c4.2,1,8.1-0.1,12-1.2c1.5-0.4,3.1-1,4.2-2.4
		c-0.2-1.8-0.3-3.5-0.4-5.3c-0.1-1.8-0.1-3.5-1.3-5.2c-3.7-1.6-7.5-3.2-11-4.6c-1.7,0.1-3,2.1-4.4-0.1c0.5-0.7,1-1.3,1.6-2
		c-0.4-0.5-0.8-0.9-1.2-1.4c-0.4-0.4-0.8-0.8-1.1-1.1c-2.5,1.2-4.3,3.1-6.8,4.1c-0.4-0.5-0.8-0.9-0.9-1.4c-0.1-0.4,0.1-1,0.3-1.3
		c0.5-0.6,1.2-1.2,1.8-1.6c0.7-0.5,1.6-1,2.6-1.6c-1-1.1-2-2.1-2.8-3.1c-2.6,2.1-6.2,2.2-8.3,5c-0.5-0.6-1.1-1-1.2-1.4
		c-0.1-0.6,0-1.5,0.3-2c0.5-0.7,1.3-1.4,2.1-1.7c1.4-0.6,2.8-1,4.3-1.5c0.2-0.1,0.3-0.3,0.5-0.5c-0.5-0.5-1-0.9-1.5-1.4
		c-3.1,1.2-5.9,2.5-8.3,4.6c-0.5,0.5-1.2,0.7-1.9,0.2c-0.6-0.5-0.7-1.3-0.5-1.9c0.3-0.7,0.6-1.6,1.2-2.1c1.1-0.9,2.3-1.6,3.5-2.3
		c0.8-0.5,1.7-0.7,2.7-1.1c-0.3-0.5-0.6-0.8-1-1.4c-2.4,1-4.8,1.9-6.7,3.7c-0.5,0.5-1,1-1.6,1.4c-0.3,0.2-1,0.3-1.3,0.1
		c-0.4-0.3-0.9-0.9-0.8-1.4c0.1-0.8,0.3-1.7,0.8-2.2c0.8-1,1.8-1.8,2.9-2.5c1.6-1,3.3-1.7,5.1-2.5c0.1-0.7,0.4-1.4,0.3-2.1
		c-0.3-2.2-0.8-4.3-1.3-6.7c-0.9-0.2-1.9-0.4-2.3-0.5c-1.8,0.7-3.1,1.1-4.2,1.8c-1.1,0.7-1.8,2.1-3.5,2c0-0.5-0.1-0.9,0-1.1
		c0.5-0.7,0.9-1.4,1.6-1.9c1.6-1,2.2-2.6,2.7-4.3c1.7-5,3.5-9.9,5.3-14.8c1.2-3.3,2.7-6.5,3.9-9.8c2.6-7.5,5.1-15,7.8-22.5
		c2-5.6,3.5-11.4,4.8-17.2c1.1-5,2-10.1,3.1-15.1c0.7-2.9,1-5.7,1-8.7c-0.1-4.4-0.1-8.9,0.8-13.3c0.4-2.1,0.6-4.2,0.5-6.3
		c-0.2-3.1-0.8-6.2-1.1-9.4c-0.2-3.4-2.3-5.7-4.8-7.4c-4.1-2.7-7.9-5.8-11.9-8.7c-1.5-1.1-3.1-2-4.7-3c-2.6-1.5-5.3-3-7.9-4.4
		c-0.6-0.3-1.3-0.6-1.9-0.8c-3.6-1.3-7.3-2.6-10.9-3.9c-8.7-3.3-17.5-6.5-26.7-8.4c-3.7-0.8-7.4-0.8-10.8,1.2c-1.8,1.1-3.7,2-5.6,3
		c-3,1.7-5.5,3.9-7.5,6.7c-0.5,0.7-1.1,1.4-1.7,2.2c-0.8-0.3-1.4-0.5-2-0.7c-3.4,4.4-6.1,8.9-8.3,13.9c-0.2,0.5-0.4,1.1-1.4,1
		c0.1-0.8,0-1.6,0.2-2.3c1-3,2.4-5.8,4-8.5c2.9-4.8,6.3-9.3,10.3-13.2c0.5-0.5,1-1.1,1.8-0.5c-0.1,0.6-0.2,1.1-0.3,1.7
		c-0.1,0.1-0.2,0.1-0.2,0.2c0,0,0,0.1,0,0.2c0.1-0.1,0.1-0.3,0.2-0.4c0.5-0.2,1.1-0.2,1.6-0.5c1.8-1.1,3.6-2.2,5.4-3.3
		c1.5-0.9,3.1-1.5,4.7-2.3c0.5-0.2,1-0.5,0.7-1.4c-3.4,0-5.8-2-7.7-4.6c-1.1-1.5-2.2-2.9-3.3-4.5c-0.3,0.2-0.6,0.2-0.9,0.5
		c-2.7,2.2-5.7,3.6-9,4.6c-3.5,1-6.9,2-10.4,3c-0.7,0.2-1.4,0.2-2.1,0.3c-3.5,0.2-7,0.6-10.5,0.6c-4.5,0-9.1-0.2-13.6-0.4
		c-5.4-0.2-10.7-1.1-15.9-2.2c-6.6-1.4-12.7-3.8-17.8-8.4c-0.1-0.1-0.4-0.2-0.7-0.3c-0.3,0.5-0.6,0.9-0.9,1.4
		c-1.2,2.1-2.3,4.4-3.5,6.5c-4.1,6.8-7.5,14-10.3,21.4c-2.3,5.8-3.8,11.8-3.7,18c0,3.4-0.1,6.8,0.1,10.2c0.1,2.2,0.5,4.4,0.7,6.6
		c0.1,1.3,0.8,2.1,1.8,2.8c2.3,1.4,4.8,2.4,7.4,3.2c0.5,0.2,1.1,0.1,1.8,0.2c0.2-1.4,0.3-2.7,0.5-4c0.1-0.4,0.1-0.9,0.9-0.8
		c0,1.7,0,3.4,0,5.2c0.6,0.2,1,0.3,1.4,0.4c5.7,1.2,11.5,1.8,17.4,2.1c4.7,0.2,9.3,0.3,14,0.6c4.1,0.3,8.1,0.2,12.1-1.3
		c1.7-0.7,3.5-1.1,5-1.5c1.3-2.6,2.4-4.9,3.6-7.2c0.9-1.8,2.2-3.3,3.7-4.6c0.3-0.2,0.7-0.7,1.2,0.2c-0.6,0.9-1.2,1.9-1.7,2.9
		c-0.5,1-1.3,1.8-1.5,3.1c2.7,0.9,5.2,1.8,7.7,2.7c0.1,0,0.2,0,0.3,0c0.1,0,0.2-0.2,0.3-0.3c-0.1-0.4-0.3-0.8-0.5-1.2
		c-2.1-4.8-1.4-9.6,0.4-14.3C604.9,419.9,605.2,419.7,605.5,419.5z M569.2,308.2c0.3,1.2,1.2,1.8,2,2.4c0.9,0.7,1.8,1.4,2.7,2.2
		c0.2,0.1,0.2,0.5,0.4,1.3c-1.2-0.8-2-1.3-2.7-1.8c-0.9-0.6-1.8-1.3-3.2-1.2c-0.9,3-2,5.9-1.9,8.9c0.5,1,1.8,1.6,1.4,3.1
		c-0.6-0.3-1.2-0.5-1.8-0.7c-0.2,0.1-0.3,0.2-0.4,0.3c-0.2,0.4-0.4,0.8-0.5,1.3c-1.8,5.4-4.1,10.7-7.4,15.4c-1,1.5-1.8,3.3-2.2,5.1
		c-1.3,6-3.5,11.6-6.2,17c-0.8,1.6-1.4,3.4-2,5.2c1.2,0.8,2.3,1.5,3.4,2.2c2.8,1.9,5.9,3.2,9.2,4.1c6.5,1.6,13.1,2.7,19.7,3.1
		c7.9,0.5,15.9,0.7,23.8,1c0.7,0,1.4,0.1,2.1-0.1c4.7-1.2,9.6-2,14.1-4c2-0.9,3.9-2.1,5.8-3.2c1.6-0.9,2.2-2.3,1.8-4.2
		c-0.9-4.8-1.8-9.6-2.7-14.5c-0.3-1.4-0.9-2.6-1.6-3.9c-0.7-1.3-1.3-2.8-1.7-4.2c-0.5-1.9-0.9-3.9-1.3-5.8c-0.2-0.8-0.3-1.7-0.7-2.3
		c-0.7-1.1-0.7-2.2-0.5-3.4c0.4-2.8,0.7-5.6,1.2-8.3c0.9-5.1,1.8-10.1,2.7-15.2c0.3-1.5,0.5-2.9,0.8-4.3c-1.2-1.1-2.4-1.4-3.7-1.6
		c-2-0.2-4-0.3-5.9-0.6c-5.1-0.8-10.3-0.6-15.4-0.3c-6.8,0.4-13.5,1.2-20.3,0.9c-1.9-0.1-3.7,0.1-5.6,0.3c-0.7,0-1.3,0.2-2.1,0.4
		C570.2,304.6,569.7,306.4,569.2,308.2z M625.6,299.6c0.4-2,0.7-3.7,1-5.4c0.3-1.3,0.9-2.4,2-3.2c1.7-1.2,3.3-2.5,5-3.9
		c1.2-1,2.2-2,3.3-3.1c0.9-0.8,1.3-1.9,1.5-3.1c0.5-2.9,0.8-5.8,0.7-8.7c-0.1-2.2-0.3-4.4-0.1-6.6c0.2-3.2-1.7-5.1-3.6-6.8
		c-2.7,1.7-5.2,3.2-7.6,4.7c-1,0.6-2.1,0.9-3.3,0.9c-2.7,0.1-5.3,0.4-8,0.6c-0.5,0.5-0.9,0.9-1.3,1.3c-1.5,1.5-3.3,2.1-5.4,2.2
		c-2.8,0-5.6,0-8.3,0.1c-2.3,2.3-4.6,4.3-7.4,5.6c-2.2,1-4.3,2.3-7,1.6c-0.5-0.1-1.2,0-1.7,0.1c-1.6,0.5-3.2,0.2-4.8-0.1
		c-1.1-0.2-2.2-0.3-3.2-0.5c-0.2,0.3-0.4,0.4-0.4,0.5c-1.8,6.5-3.6,13-5.3,19.6c-0.3,1.1-0.6,2.3,0.4,3.4c4.7-0.7,9.5-0.6,14.3-0.7
		c0.9,0,1.9,0,2.8-0.2c7.7-1,15.4-0.9,23.1-0.4c0.9,0.1,1.8,0.2,2.8,0.4C618.5,298.4,621.9,299,625.6,299.6z M646.1,239.9
		c-0.1,4.8,0.6,9.5,2.1,14.1c1.4,4.4,3.5,8.4,7,11.5c4.7,4.3,11.3,5.3,17.3,1c3.8-2.7,6.6-6.2,8.7-10.3c2.2-4.3,3.4-8.9,4.2-13.6
		c0.8-4.4,0.7-8.8,0.1-13.2c-0.6-4.1-1.6-8-3.4-11.7c-1.6-3.3-3.7-6.2-6.8-8.3c-4.7-3.3-9.5-3.4-14.5-0.6c-4.5,2.4-7.6,6.2-9.8,10.6
		C647.8,225.8,646.4,232.7,646.1,239.9z M644.9,342.3c0.4-0.2,0.9-0.3,1.3-0.5c2.4-1.8,4.8-3.7,7.2-5.6c0.9-0.7,1.3-1.6,1.4-2.7
		c0.1-0.8,0.1-1.6,0.1-2.4c0.1-1.4,0.2-2.7,1.3-3.9c0.5-0.6,0.7-1.5,0.8-2.3c0.4-1.5,0.6-3,0.9-4.5c1.6-6.7,1.5-13.4,0.2-20.1
		c-1-5-1.7-10.1-2.4-15.2c-0.3-2.3-0.5-4.6-0.5-7c0-2.7-0.2-5.3-1.1-8.1c-2.2-1-4.4-2.3-6.3-4.1c-1.9-1.9-3.2-4.3-4.6-6.6
		c-1.4-2.2-1.3-4.9-2.4-7.3c-0.4,0.3-0.7,0.4-1,0.6c0.7,2.1,1.1,4.3,1.2,6.5c0.3,8.1,0,16.1-1.4,24.1c-0.4,2.4-1,4.8-1.5,7.2
		c-0.8,4.1-1.5,8.3-3.3,12.1c-0.4,0.8-0.5,1.8-0.7,2.7c-0.5,3.3-1,6.7-1.5,10c-0.1,0.5-0.3,0.9-1.1,0.6c-0.2-1.4-0.2-2.9,0-4.4
		c0.4-4.1,1.1-8.1,2.6-11.9c1.2-3.2,1.9-6.5,2.6-9.8c0.1-0.5,0.1-1.1,0.1-2.1c-3,2.1-5.6,3.9-8.1,5.7c-0.9,4.2-1,8.3-0.7,12.3
		c0.4,3.9,1.1,7.9,1.7,11.8c0.5,2.8,1.2,5.5,1.5,8.3c0.3,2.5,1.3,4.7,2.9,6.6c1.2,1.4,2.4,2.9,3.7,4.2
		C640,338.7,642,340.9,644.9,342.3z M552.8,209.9c-4-1.4-8.5-0.7-12,2.1c-2.9,2.3-5.3,4.9-7,8.2c-5.8,10.9-7,22.4-3.4,34.2
		c1.2,4,3.2,7.8,6.5,10.6c4.5,3.9,9.4,5.1,15.8,1.7c2.9-1.5,4.8-4,6.9-6.3c1.7-2,2.4-4.2,2.2-6.8c-0.2-3.1-1-5.9-2.9-8.4
		c-2.7,0-5.2-0.1-7.8,0c-1.9,0.1-3.1-0.7-3.8-2.4c-0.3-0.9-0.6-1.8-0.8-2.7c-0.9-3.9,1-7.6,4.5-8.8c1-0.3,2.1-0.4,3.1-0.3
		c2.3,0.2,4.3-0.7,6.4-1.5c0.5-0.2,0.8-0.8,1.2-1.2c-0.6-2.4-1.2-4.6-1.7-6.9c-0.7-3.4-2.5-6.2-4.9-8.8
		C554.5,211.8,553.7,210.9,552.8,209.9z M634.6,239c-1.7-2.1-0.9-4.2-1.2-6.2c0.9-0.9,1.7-1.5,2.3-2.3c0.7-0.9,1-1.9,0-2.8
		c-2.7-0.7-4.2,1.9-6.4,2.1c-0.8,3.1-0.9,6-0.9,8.9c0,0.7,0.3,1.6-0.5,2.2c-2.6-1.1-4.3-2.7-4.9-5.5c-0.4-1.8-0.1-3.5,0.3-5.2
		c0.7-2.6,2.5-3.9,4.9-4.4c0.9-0.2,1.8,0.1,2.8,0.1c0.8,0,1.7,0.2,2.3-0.6c1-1.4,2.6-1.3,3.8-1.6c0.7-1.2,0.5-2.2,0.3-3.3
		c-0.4-1.5-0.8-2.9-1.1-4.4c-0.7-3.2-2.3-5.8-4.4-8.2c-1-1.1-2-2.2-3-3.3c-5.6-1.1-9-0.2-13.2,3.5c-4.5,4-7.3,9-8.7,14.3
		c1,3.7,2.1,6.9,2.7,10.2c1.1,6.1,1,12.3-0.4,18.4c-0.6,2.5,0.1,4.3,1.5,6.1c0.8,1,1.7,2,2.6,2.8c4.7,4.3,10.3,4.5,15.9,1.6
		c3.4-1.8,5.5-4.8,7.7-8c-0.5-0.8-1-1.7-1.6-2.3c-2-2.1-4-4.2-6-6.3c-0.6-0.6-1.3-1.2-1.3-2.3c1.2,0.8,2.2,1.6,3.3,2.3
		c1,0.6,1.9,1.2,2.5,2.3c0.5,0.9,1.4,1.5,2.2,2.2c0.8,0.6,1.2,1.7,2.5,1.8c0.6-0.9,1.2-1.7,1.7-2.5c-0.1-1.6-0.3-3-0.4-4.3
		c-0.1-0.5-0.1-1.1-0.4-1.3c-1.4-1.1-1-2.7-1.3-4.1C637,238.3,635.9,238.2,634.6,239z M558.7,184c1,1.4,1,1.4,1,2.2
		c0.3,6.6,1.1,13.2,0.2,19.9c-0.2,1.3-0.1,2.6-0.1,3.8c0,0.3,0.2,0.5,0.3,0.9c1.2-0.7,1-1.9,1.1-2.9c1-8,1.1-16,1.2-24.1
		c0-0.7-0.1-1.4-0.2-2.1c-0.1-0.6-0.3-1.1-1-1.3c-0.4-0.1-0.8-0.5-1-0.8c-1.3-2-2.6-4.1-3.9-6.2c-0.2-0.4-0.5-0.6-1.1-1.3
		c0,1.9,0.5,3.4,0.8,4.8c0.7,3.3,1.3,6.7,0.8,10c-0.5,3.8-0.4,7.7-0.4,11.5c0,0.7,0.1,1.4,0.2,2c0.6-1.8,0.9-3.7,1.3-5.5
		c0.4-1.8,0.6-3.7,0.6-5.5C558.5,187.8,558.3,186,558.7,184z M563.3,249.9c0.5-2.4-0.1-4.6,0-6.8c0.1-2.2,0.5-4.4,0.6-6.6
		c0.1-2.2,1.4-4.1,1.4-6.3c-2.1,0.3-1.3,2.4-2.6,3.3c-0.4-0.7-0.7-1.4-1-2c-2-0.1-1.4,1.9-2.3,2.6c-0.2-0.1-0.5-0.2-0.6-0.3
		c-0.4-0.7-0.9-1.1-1.6-0.7c-0.7,0.4-0.8,1.1-0.7,1.8c0,0.3,0.2,0.7,0.3,1C558.8,240.5,561,245.2,563.3,249.9z M555.5,233.2
		c-1-0.2-1.6-0.3-2.1-0.5c-1.7-0.5-2.9,0.4-4,1.6c-0.2,0.3-0.5,0.6-0.5,0.9c-0.4,2.5-1,5,0.3,7.6c1,0,1.9,0,2.8,0
		c1-0.1,2.1-0.2,3.1-0.3c0.9,0,1.7,0,2.9,0c-0.5-1.2-0.9-2.2-1.4-3.1C555.6,237.5,554.8,235.6,555.5,233.2z M554.4,285.4
		c0.5-0.7,0.8-0.9,0.9-1.2c1.6-3.5,3-7.1,4.6-10.6c1.8-3.9,1.4-7.9,1.3-12.1c-1.5,1-1.6,1-1.4,2.1c0.4,2.4-0.2,4.7-1.3,6.8
		c-1.4,2.8-3,5.5-4.6,8.6C554.1,280.7,554.2,282.8,554.4,285.4z M563.6,183.6c-0.3,1.6-0.2,2.9-0.1,4.3c0.1,1.5,0.4,3,0.4,4.5
		c-0.1,2.8-0.4,5.6-0.7,8.3c-0.1,1.2-0.4,2.4-0.2,4c1.3-2.1,1.7-4,2-5.9c0.3-1.8,0.8-3.6,1-5.5c0.2-1.8,0.3-3.7,0.2-5.6
		C566.1,186.1,565.3,184.6,563.6,183.6z M637.7,225.2c0.3,4.5,0.3,4.5-2.4,7.8c-0.3,0.4-0.6,1.1-0.5,1.6c0.3,0.9,0.7,1.7,1.3,2.4
		c0.3,0.3,1,0.3,1.7,0.4c0.4-2.4,0.6-4.5,1.1-6.6c0.5-2.2,1.4-4.3,2.1-6.7C639.6,223.7,638.8,224.4,637.7,225.2z M626.9,237.6
		c0.3-2.2,0.5-3.8,0.8-5.4c0.1-0.9,0.1-1.9,0.5-2.7c0.3-0.7,1-1.3,1.6-1.9c-1.3-0.5-2.2-0.1-3.1,0.5c-0.9,0.7-1.5,1.5-1.6,2.6
		c-0.1,1.6-0.2,3.2-0.2,4.8c0,0.4,0.1,1,0.4,1.3C625.6,237.2,626.2,237.3,626.9,237.6z M587.8,133.4c-4-3.4-10.9-4.3-14.9-2.2
		c0.9,1.1,2.2,1.6,3.4,1.3c1.5-0.4,3-0.3,4.4-0.8c1.1-0.4,2-0.3,3,0.1C585,132.4,586.4,132.9,587.8,133.4z M615.4,263
		c-1.3-1.1-2.5-2.1-3.7-3.2c-1.1-1.1-2.1-2.4-3.1-3.7c-0.9,1.1-1.2,2.2-1.1,3.3C610.6,262.4,612.5,263.3,615.4,263z M607,265.4
		c2.5,1,4.4,0.8,6.6-0.7c-1.2-0.6-2.3-1.1-3.4-1.7c-1.1-0.6-2.1-1.3-3.8-2.5C606.8,262.5,606.9,264,607,265.4z M556.7,165.9
		c-0.5,3-0.1,4.5,1.4,6.4c0.1-1,0.1-1.9,0.4-2.7c0.3-0.9,0.9-1.8,1.3-2.7C558.9,166.1,558,165.2,556.7,165.9z M605.2,265
		c-0.1-0.2-0.1-0.4-0.2-0.6c-0.3,0.3-0.6,0.5-0.9,0.8c-0.1,0.1,0.1,0.5,0.2,0.5C604.9,265.8,605.2,265.5,605.2,265z M666.2,547.3
		c0.7-0.1,0.9-0.6,0.7-1.2c0-0.1-0.4-0.3-0.6-0.2C665.6,546.3,665.9,546.8,666.2,547.3z M574.7,128.4c-0.2-0.3-0.4-0.5-0.7-0.7
		c-0.1-0.1-0.5-0.1-0.6,0c-0.3,0.2,0,0.9,0.6,1C574.2,128.7,574.4,128.5,574.7,128.4z M638.9,256.4c-0.3-0.3-0.5-0.6-0.8-0.9
		c0,0-0.2,0.1-0.2,0.2c-0.2,0.5-0.2,0.9,0.3,1.2c0.1,0.1,0.3,0.1,0.3,0.1C638.5,256.9,638.6,256.7,638.9,256.4z M558,212.5
		c0.8-0.6,0.8-1.1,0-1.7C558,211.4,558,211.9,558,212.5z M555.8,209.5l0.2,0.1l0-0.2L555.8,209.5z"/>
	<path d="M465.6,530.9c1-0.1,2.1-0.3,3.1-0.3c0.6,0,1.1,0.2,1.7,0.5c0.5,0.2,0.6,1.2,0.1,1.5c-0.6,0.4-1.2,0.8-1.8,0.9
		c-4,0.7-8,1.4-12.1,1.9c-0.6,0.1-1.4-0.1-2-0.3c-1-0.4-1.2-2.1-0.3-2.6c0.7-0.4,1.5-0.7,2.3-0.8c3-0.4,6-0.6,9-0.9
		C465.6,530.8,465.6,530.8,465.6,530.9z"/>
	<path d="M463.7,540.1c1.2,0.1,2.3,0.1,3.5,0.2c0.3,0,0.7,0.4,0.8,0.6c0.1,0.4,0,1-0.3,1.2c-0.4,0.5-1.1,0.8-1.7,1.3
		c0.6,0.4,1.2,0.7,1.7,1.2c0.6,0.5,0.5,1.4-0.1,1.8c-1.6,0.9-3.3,0.9-5.1,0.5c-0.4-0.1-0.9-0.7-0.8-1c0.2-1.3-0.5-1.8-1.5-2.4
		c-1-0.6-0.7-2,0.4-2.5c0.6-0.2,1.4-0.2,2-0.4c0.4-0.1,0.8-0.4,1.2-0.6L463.7,540.1z"/>
	<path d="M463.8,540c-1.7,0-3.5,0.1-5.2,0.1c-1.4,0-2.2-0.7-2.3-1.7c-0.1-1,0.8-1.7,2.4-1.9c1.5-0.2,3-0.4,4.5-0.5
		c1-0.1,2.1-0.2,3.1-0.2c0.8,0,1.7,0.1,2.1,0.9c0.3,0.6-0.3,1.4-1.5,2c-1,0.5-2.1,1-3.1,1.4L463.8,540z"/>
	<path d="M520.9,515.3c-4.3,1.1-8.2,0.8-11.9,0.1c-2.5-0.4-3.4-0.9-5.6-2.7c1.2,0.1,2.2,0.1,3,0.3c3.4,0.9,6.9,1.2,10.4,1.2
		C518.8,514.1,518.8,514.2,520.9,515.3z"/>
	<path d="M522,503.2c-1.2-0.8-2.5-1.6-3.6-2.3c0.3-0.9,0.8-0.6,1.1-0.4C520.5,501,521.7,501.6,522,503.2z"/>
	<path d="M557.7,528.3c-1.8,1.4-2.8,2.6-4.7,2.5C554.6,528.5,554.6,528.4,557.7,528.3z"/>
	<path d="M459.9,504c-1,0.7-2,1.5-3.3,0.8c-0.1-1.1,0.6-1.4,1.4-1.6C458.7,502.9,459,503.1,459.9,504z"/>
	<path d="M464.1,502.9c0.2,0.1,0.4,0.3,0.7,0.4c-0.2,0.2-0.5,0.5-0.7,0.5c-0.2,0-0.4-0.4-0.6-0.6C463.7,503.1,463.8,503,464.1,502.9
		z"/>
	<path d="M556.7,520.5c0.3,0.1,0.5,0.2,0.7,0.3c-0.2,0.3-0.4,0.5-0.6,0.7c0,0-0.4-0.2-0.4-0.3C556.5,521,556.6,520.8,556.7,520.5z"
		/>
	<path d="M514.9,498.6c0.2,0.1,0.3,0.3,0.5,0.4c-0.2,0.1-0.4,0.2-0.4,0.1c-0.1-0.1-0.2-0.3-0.3-0.4
		C514.7,498.6,514.8,498.6,514.9,498.6z"/>
	<path d="M556.2,525.4c-0.1,0.1-0.3,0.1-0.4,0.2c0-0.2-0.1-0.4,0-0.6c0-0.1,0.2-0.1,0.3-0.1C556.1,525,556.2,525.2,556.2,525.4z"/>
	<path d="M468.4,503.3c-0.2,0.1-0.4,0.2-0.6,0.2c-0.1,0-0.2-0.2-0.3-0.4c0.2-0.1,0.4-0.2,0.5-0.2C468.1,503,468.3,503.2,468.4,503.3
		z"/>
	<polygon points="473.2,503.4 473.1,503.2 473.4,503.2 	"/>
	<path d="M234.1,469.8c-0.6-1.2-0.9-1.5-1-1.9c-0.5-3.2-1-6.4-1.5-9.7c-0.2-1.1-0.3-2.3-0.3-3.5c0-0.7,0-1.4,0.2-2.1
		c0.2-0.7,0.7-1.3,1.5-1.3c0.7,0,1.3,0.4,1.6,1.1c0.2,0.5,0.4,1.1,0.5,1.7c0.3,4.2,0.4,8.4,0,12.6
		C234.9,467.5,234.6,468.3,234.1,469.8z"/>
	<path d="M240.9,241.1c-0.2-0.5-0.6-1-0.6-1.5c-0.1-1-0.1-2.1-0.1-3.1c0-3.5,0.1-7,0-10.5c0-1.6,0-3.3-0.4-4.9
		c-0.8-3.1-0.5-6.2-0.3-9.4c0-0.2,0.2-0.3,0.4-0.7c0.1,0.6,0.2,1.1,0.2,1.5c-0.1,2.4,0.2,4.6,1.2,6.8c0.6,1.3,0.9,2.9,0.9,4.4
		c0.1,5.1,0,10.2,0,15.4C242.1,239.9,242.2,240.8,240.9,241.1z"/>
	<path d="M179.5,290.2c-0.8-6.1,1-19.4,3-23.9c0.6-0.1,1,0.2,1,0.7c0,1.4,0.1,2.8-0.2,4.1c-1.2,5.3-2.3,10.7-3,16.1
		C180.1,288,179.8,288.9,179.5,290.2z"/>
	<path d="M240,420.9c-1.2-1-1.7-2.2-1.9-3.4c-0.3-1.5-0.5-3-0.5-4.5c0-0.6,0.3-1.4,0.7-1.9c0.7-1,2.3-1,3.1-0.1
		c0.3,0.3,0.6,0.8,0.7,1.2c0.5,2.9,0.6,5.8-1.2,8.4C240.7,420.7,240.5,420.7,240,420.9z"/>
	<path d="M215,211c-0.4-0.7,0-1.1,0.3-1.4c1.6-1.8,3.2-3.7,4.9-5.4c3.4-3.3,7-6.5,10.5-9.8c0.2-0.1,0.4-0.2,0.6-0.3
		c0.7,0.4,0.6,1,0.2,1.4c-1,1.1-2,2.3-3.1,3.3c-4.1,3.8-8.2,7.6-12.4,11.4C215.8,210.5,215.4,210.7,215,211z"/>
	<path d="M240.9,406c-0.2-1.4,0.6-2,1.1-2.7c1.4-1.9,2.9-3.7,4.3-5.5c1.1-1.4,2-2.9,2.3-4.7c0-0.3,0.4-0.5,0.5-0.7
		c0.7,0,1,0.5,0.9,0.9c-0.1,0.9-0.1,1.9-0.5,2.7c-1.9,3.8-4.5,7.1-7.7,9.8C241.6,405.8,241.4,405.8,240.9,406z"/>
	<path d="M243.2,252.4c-1,0.5-1.8,0.1-2.5-0.5c-0.7-0.5-0.8-1.4-0.8-2.2c0.1-2.2,1-3,4.2-4.1c0,0.7,0.2,1.4,0,1.9
		C243,250.2,242.9,250.2,243.2,252.4z"/>
	<path d="M207.5,201.7c-0.2,0.1-0.4,0.3-0.4,0.2c-2.3-1.3-4.7-2.4-6.5-4.4c-0.5-0.6-1-1.3-0.3-2.3c1.1,0.6,1.6,1.7,2.4,2.4
		c0.8,0.6,1.7,1.1,2.5,1.8C206.1,200,207.1,200.6,207.5,201.7z"/>
	<path d="M246.1,196c1.9,0.5,2.5,2.1,3.2,3.5c0.5,1.1,1.1,2.2,0.3,3.9c-1.4-2.5-2.6-4.6-3.8-6.8C245.8,196.6,245.9,196.4,246.1,196z
		"/>
	<path d="M240.5,304.9c-0.8-0.3-0.9-0.9-0.8-1.4c0.6-2,1.3-4,3.3-5c0.6,0.3,0.7,0.7,0.4,1.1c-0.7,1.6-1.5,3.1-2.2,4.7
		C241.1,304.5,240.7,304.7,240.5,304.9z"/>
	<path d="M211,220.3c-0.1-3.3,0.4-4.7,2.3-6.8c0.1,0.2,0.3,0.4,0.2,0.5c-0.7,2.1-1.5,4.1-2.3,6.1C211.3,220.2,211.1,220.2,211,220.3
		z"/>
	<path d="M197.7,207.9c-1.5-0.1-2.1-0.9-2.4-1.9c-0.1-0.3,0-0.8,0.2-0.9c0.4-0.3,0.9,0,1.1,0.4C197.1,206.3,197.4,207.1,197.7,207.9
		z"/>
	<path d="M198.3,208.8c2.3,0.3,2.6,1.4,3.1,2.4c-0.5,0.7-0.9,0.4-1.2,0.1C199.6,210.6,199.2,210,198.3,208.8z"/>
	<path d="M232,477.4c-0.8-1.4-0.4-2.5-0.2-3.9c0.5,0.2,0.9,0.2,1,0.4C233.3,475.2,233,476.3,232,477.4z"/>
	<path d="M225.8,508.7c-1.1-1.9-1.1-1.9,0-3.2C226.4,506.6,226.3,507.5,225.8,508.7z"/>
	<path d="M206.9,243.1c1.2,1.2,1.3,2.6,1.6,4.5C207.2,245.6,207.2,245.6,206.9,243.1z"/>
	<path d="M230.4,442.7c-1.5-2.1-1.5-2.1-0.4-2.9C230.9,440.5,231.1,441.4,230.4,442.7z"/>
	<path d="M225.4,520.7c0.5,1.1,0.2,1.9-0.3,3C224.8,521.8,224.8,521.8,225.4,520.7z"/>
	<path d="M239.7,205.9c1.1,0.8,1.1,1.4,0.2,2.1c-0.1-0.3-0.3-0.5-0.3-0.8C239.5,206.9,239.6,206.6,239.7,205.9z"/>
	<path d="M253.2,376.3c0,0.5,0.2,0.8,0.1,1.1c-0.1,0.2-0.5,0.4-0.7,0.5c-0.1-0.3-0.2-0.6-0.2-0.9
		C252.5,376.8,252.9,376.6,253.2,376.3z"/>
	<path d="M251.2,386.6c-0.1,0.2-0.2,0.5-0.3,0.5c-0.2,0.1-0.5,0.1-0.8,0.1c0-0.3-0.1-0.7,0.1-0.9c0.2-0.2,0.5-0.3,0.8-0.3
		C251,386.1,251.1,386.4,251.2,386.6z"/>
	<path d="M204.6,237.5c0.5,1,0.5,1,0.4,2.3C204.4,238.8,204.4,238.8,204.6,237.5z"/>
	<path d="M209.6,223.5c0.1,0.4,0.2,0.5,0.2,0.5c-0.2,0.3-0.5,0.6-0.7,1c-0.1-0.1-0.2-0.1-0.2-0.2c-0.2-0.5-0.1-0.8,0.3-1.1
		C209.3,223.6,209.4,223.6,209.6,223.5z"/>
	<path d="M230.5,482.5c-0.1-0.5-0.2-0.9-0.2-1.2c0.1-0.2,0.4-0.4,0.6-0.6c0.1,0.3,0.3,0.6,0.2,0.9
		C231.1,481.8,230.8,482,230.5,482.5z"/>
	<path d="M234.9,408.8c-0.2,0.2-0.3,0.3-0.5,0.4c-0.1-0.2-0.2-0.3-0.3-0.5c0-0.1,0.2-0.2,0.2-0.2
		C234.5,408.6,234.7,408.7,234.9,408.8z"/>
	<path d="M227.5,434c-0.2,0.3-0.3,0.4-0.4,0.6c-0.2-0.2-0.4-0.5-0.6-0.7c0.1-0.1,0.2-0.2,0.3-0.2C226.9,433.7,227.2,433.8,227.5,434
		z"/>
	<path d="M229.3,490.2c0,0.3,0,0.6,0,0.9c0,0-0.1,0-0.1-0.1c0-0.3,0-0.5,0-0.8C229.2,490.2,229.3,490.2,229.3,490.2z"/>
	<path d="M244.7,295.2c0,0.4,0,0.8,0,1.1c-0.1,0-0.2,0-0.3,0c0-0.4,0.1-0.8,0.1-1.1C244.6,295.2,244.7,295.2,244.7,295.2z"/>
	<path d="M225.7,516.6c-0.1-0.1-0.2-0.2-0.2-0.2c0-0.4,0.1-0.8,0.1-1.2c0.1,0,0.2,0,0.2,0c0,0.4,0.1,0.8,0.1,1.2
		C225.9,516.5,225.8,516.5,225.7,516.6z"/>
	<path d="M191,403.5c0.2-0.4,0.3-0.8,0.6-1.2c2.2-2.8,4.5-5.6,6.7-8.4c0.1-0.1,0.2-0.1,0.4-0.1c0.7,0.2,0.9,0.7,0.8,1.3
		c0,0.5-0.1,1-0.3,1.3c-1.7,3.1-4,5.7-7.2,7.4c-0.2,0.1-0.4,0-0.6,0C191.3,403.8,191.2,403.7,191,403.5z"/>
	<path d="M170.1,435.7c0.1,0.9,0.3,1.4,0.2,1.8c-0.7,3.5-0.6,7.1-1.8,11c-0.5-0.7-0.9-1-0.9-1.3c-0.1-3.6,0.2-7.2,1.6-10.6
		C169.2,436.4,169.4,436.3,170.1,435.7z"/>
	<path d="M190.5,442.7c-1.2-1.5-0.7-2.9-1-4c-0.3-1.2-0.6-2.5-0.9-3.7c-0.3-1.2-1.1-2.3-0.9-3.8c1.5,0.4,1.8,1.5,2.3,2.5
		C191.2,436.6,191.4,439,190.5,442.7z"/>
	<path d="M187.5,416.3c-1.2-1.7-1.3-3.3-0.9-5.1c0.1-0.6,0.6-1,1.2-1c0.4,0,0.9,0.4,1.1,0.7c0.6,0.9,0.4,2,0.2,3
		C189,414.9,188.9,415.9,187.5,416.3z"/>
	<path d="M177.5,517.8c0.4,1.2,0.5,2.4,0,3.8C176.2,519.5,176.2,518.7,177.5,517.8z"/>
	<path d="M200.8,391.5c0.4-1.8,0.9-2.6,2.3-2.8C202.7,390.2,202.7,390.2,200.8,391.5z"/>
	<path d="M183.8,423.8c0.7,0.7,1,1.4,0.3,2.4c-0.3-0.2-0.7-0.4-0.7-0.6c-0.1-0.5-0.1-1-0.1-1.6C183.2,423.9,183.6,423.8,183.8,423.8
		z"/>
	<path d="M168.2,459c0-0.7,0-1.4,0-2.2C169.2,457.6,169.2,457.6,168.2,459z"/>
	<path d="M175.3,511.3c1.4,0.6,0.9,1.6,0.6,2.6C174.6,513.3,174.8,512.4,175.3,511.3z"/>
	<path d="M189.5,405.4c-0.4,0.5-0.9,1-1.6,1.8C187.6,405.7,188.2,405.2,189.5,405.4z"/>
	<path d="M181.3,418.3c0.8,0.7,0.7,1.4,0.3,2.2C181,419.9,180.8,419.2,181.3,418.3z"/>
	<path d="M168.4,468c-0.1-0.2-0.3-0.3-0.3-0.5c-0.1-0.4-0.1-0.9,0.5-1c0.2,0,0.5,0.2,0.5,0.3c-0.1,0.4-0.2,0.8-0.4,1.1
		C168.7,468,168.5,468,168.4,468z"/>
	<path d="M168.4,475.3c-0.1-0.2-0.3-0.4-0.3-0.5c0.2-0.2,0.4-0.3,0.6-0.4c0,0.2,0.2,0.4,0.1,0.5
		C168.8,475.1,168.5,475.2,168.4,475.3z"/>
	<path d="M174.3,503.8c0.1,0.1,0.3,0.3,0.4,0.4c-0.1,0.1-0.3,0.2-0.4,0.3c0,0-0.2-0.2-0.2-0.2C174.1,504.1,174.2,504,174.3,503.8z"
		/>
	<path d="M185.1,407.9c-0.2,0.1-0.4,0.2-0.6,0.2c0,0-0.1-0.2-0.2-0.3c0.2-0.1,0.4-0.2,0.6-0.2C184.9,407.7,185,407.8,185.1,407.9z"
		/>
	<path d="M192.5,28.2c1.9,1.1,3.6,2.5,6.4,3c-1.4-1.2-2.4-2.1-3.4-3c0.6-0.8,1.1-0.2,1.5,0c2.1,1,4.1,2.3,6.5,2.5
		c0.9,0.1,1.7,0.1,2.7-0.4c1.6-0.9,2.3-0.5,3.7,1.2c-0.9,0.7-2.4,0-3.1,1.2c-1.8,0.1-2.6,1.5-2.6,2.8c0,1.6-1.2,2.3-1.8,3.4
		c-0.1,0.2-0.3,0.3-0.5,0.5c-7.7-0.6-8.4-0.8-9.7-2.8c0.9-0.6,1.6,0.1,2.3,0.4c2.2,1,4.4,0.5,6.5,0.4c0.9-0.1,1.2-0.5,2-2.7
		c-1.1-0.7-2.2-0.2-3.3-0.2c-1-0.1-2.1,0-3.1,0c-1.2,0-2.3-0.1-3.5-0.9c2.1-0.4,4,0.1,6.3-0.5c-2.5-0.7-4.6-1.6-6.1-3.2
		c-0.4-0.5-0.7-0.9-0.5-1.6L192.5,28.2z"/>
	<path d="M223.1,53.4c-1.2-0.8-1.6-1.9-1.6-3.3c-0.8,0.2-1.6,0.3-2.4,0.5c-0.3-0.6-0.7-1.2-1-1.8c2.2-1.4,2.2-1.4,4.6-1.5
		c-1,0.6-1.8,1-3.1,1.7c2.6-0.2,4.8-0.3,7-0.5c0.5-0.9-0.8-0.6-0.7-1.3c0.6,0.1,1.3,0.2,2.1,0.3c0.1,0.8,0.1,1.4,0.2,2.1
		c0.1,0.5,0.2,1.1,0.4,1.9c-0.7-0.3-1.2-0.5-1.7-0.7c-0.8,0.4,0.1,1-0.3,1.5C225.7,53.1,224.6,53.7,223.1,53.4z"/>
	<path d="M223.6,116.5c-0.5,0.1-0.8,0.3-1.1,0.2c-0.7-0.2-1.4-0.4-1.9-0.7c-2.5-1.6-4.9-1.6-7.7-0.7c-4.8,1.6-9.6,1.5-14.8-1.3
		c1.1,0.1,1.6,0,2,0.1c4.1,1.3,8.2,1.3,12.4,0.1c0.8-0.2,1.6-0.5,2.4-0.6c1.1-0.1,2.4-0.3,3.4,0c1.7,0.5,3.2,1.3,4.8,2
		C223.3,115.7,223.4,116.1,223.6,116.5z"/>
	<path d="M238.2,142.5c-0.2,2.6-1.2,4.4-2.3,6.2c1,2.5,3.6,4.4,2.6,7.8c-0.4-0.3-0.8-0.4-0.9-0.6c-0.3-2.4-1.7-4.3-3.1-6.2
		c-1.1-1.4-2.1-2.8-3.2-4.2c-0.2-0.3-0.7-0.7-0.2-1.4c1.2,1.1,2.4,2.1,3.6,3.2C236.1,145.9,235.7,143.5,238.2,142.5z"/>
	<path d="M241.3,73.9c-0.7,0.5-1.2,0.9-1.4,0.8c-3.1-1.1-6.2-0.6-9.3-0.3c-1.7,0.2-3.2-0.2-4.7-0.8c-0.2-0.1-0.3-0.5-0.6-1.1
		c0.8-0.1,1.5-0.3,2.1-0.2c1.6,0.5,3.2,0.4,4.8-0.2c1.5-0.6,2.9-0.6,4.4,0c0.4,0.2,0.9,0.2,1.4,0.2
		C239.1,72.4,239.9,73.3,241.3,73.9z"/>
	<path d="M232.6,44.1c-0.1,0.8-0.6,1-1.2,0.8c-1.9-0.4-3.9-0.8-5.8-1.4c-2-0.7-3.9-0.5-5.9-0.2c-0.6,0.1-1.2,0.6-1.8,1
		c-0.6,0.3-1.2,0.7-1.9,1.1c0.7-1.9,1.4-2.7,2.8-3.1c2.4-0.7,4.8-0.9,7.2-0.2c1.3,0.4,2.7,0.6,4.1,1C231.1,43.2,232,43.2,232.6,44.1
		z"/>
	<path d="M202.3,24c0.5,0.5,0.9,1.1,1.5,1.3c1.6,0.6,3.3,1.1,5,1.3c1.1,0.1,2.2-0.4,3.3-0.6c-0.1,0.7-0.3,1.3-0.4,2.1
		c-1.5,0.1-3.1,0.2-4.6-0.5c-0.4-0.2-0.9-0.1-1.4-0.1l0.1,0.1c-0.7-1-1.9-1.1-2.9-1.6c-1.7-0.7-3.4-1.3-5.2-2.1
		c0.1-0.6,0.2-1,0.2-1.4c0.6,0.3,1.2,0.6,1.7,1C200.5,24,201.3,24.4,202.3,24z"/>
	<path d="M205.2,86.8c0.3-0.5,0.9-0.6,1.2-0.2c0.8,1,1.6,2,2,3.2c0.8,2.4,1.3,4.9,2,7.6C208.6,95.2,205.9,89.7,205.2,86.8z"/>
	<path d="M239.5,59.7c-0.4-0.2-0.9-0.4-1-0.7c-1.5-2.8-2.6-5.7-3.1-8.8c-0.3-1.8,0.3-2.9,2-4.3c0.1,0.1,0.3,0.2,0.2,0.2
		c-0.5,1.3-1,2.5-1.6,3.9c0.9,2.4,1.8,4.9,2.7,7.4C239.1,58.2,239.2,59,239.5,59.7L239.5,59.7z"/>
	<path d="M239.2,77.3c-0.7,1.7-2.1,1.7-3.2,1.9c-1.9,0.3-3.9,0.2-5.4-1.4c0.2-0.2,0.3-0.5,0.5-0.5C233.7,77.3,236.3,77.3,239.2,77.3
		z"/>
	<path d="M195.9,54.9c0.6,0,1,0.3,0.9,0.8c-0.3,1.7,0,3.1,1.2,4.5c1,1,0.3,2.1-0.7,3.1c-0.4-0.5-0.6-0.9-0.9-1.2
		c-0.8-0.6,0.6-1.5-0.3-2.2c-0.5-0.4-1-0.9-1.5-1.4C195.1,57.2,195.5,56,195.9,54.9L195.9,54.9z"/>
	<path d="M212.1,85c3.4,1.1,6.7,2.2,10.3,3.3c-0.3,0.3-0.6,0.7-0.7,0.6c-3.1-0.7-6.3-1.4-9-3.3c-0.3-0.2-0.4-0.5-0.5-0.8L212.1,85z"
		/>
	<path d="M239.4,59.8c1.9,1.8,1.7,3.9,0.4,6c-0.7,0.5-1.5,0.6-2.5,0.4c0.4-1.6,2.2-1.7,2.7-3.1C239.8,61.9,239.7,60.8,239.4,59.8
		L239.4,59.8z"/>
	<path d="M229.4,64.3c1.1,0.5,1.6,0.8,2.2,1.1c1.4-0.3,2.7-1.5,4.4-0.4c-0.3,0.3-0.5,0.8-0.8,0.9c-1.1,0.3-2.2,0.5-3.4,0.6
		c-0.5,0-1.1-0.3-1.5-0.6C229.9,65.6,229.8,65.1,229.4,64.3z"/>
	<path d="M205.8,27.5c-0.2,0.2-0.3,0.4-0.5,0.5c-2.5,0.4-4.7-0.1-6.8-1.5C200.9,26.8,203.4,27.2,205.8,27.5L205.8,27.5z"/>
	<path d="M228.7,116.3c-1.1,1.6-2.5,2-4.3,1.5C225.4,116.7,226.4,116.3,228.7,116.3z"/>
	<path d="M225.5,96.2c-0.2-1.9-0.1-3.2,0.7-5c0.4,1,0.7,1.3,0.7,1.7C227.1,93.9,227,93.9,225.5,96.2z"/>
	<path d="M231.1,21.1c-1.3,0.3-2.2,0-2.8-1.5C229.7,19.8,230.4,20.4,231.1,21.1L231.1,21.1z"/>
	<path d="M209.2,83c0.5,0.2,1.1,0.3,1.5,0.6c0.5,0.4,1,0.9,1.5,1.4l0.1-0.1C210.7,85,209.9,84.1,209.2,83L209.2,83z"/>
	<path d="M191.1,41.5c0.5,0.2,1,0.5,1.4,0.7c0.1,0.3,0.3,0.6,0.4,0.9c-1.1,0.2-1.1,0.2-2.4-0.5C190.7,42.2,190.9,41.9,191.1,41.5z"
		/>
	<path d="M232.4,24.1c0.5,0.5,1.1,1,1.9,1.8C232.8,25.7,232.4,25,232.4,24.1L232.4,24.1z"/>
	<path d="M215.3,104.5c-0.3-0.4-0.6-0.6-0.8-1c0-0.1,0-0.3,0-0.3c0.2,0,0.4-0.1,0.6,0C215.5,103.5,215.7,103.9,215.3,104.5z"/>
	<path d="M212,26.2c0.4-1,1.3-1.2,2.2-1.5C213.9,25.8,213.2,26.4,212,26.2z"/>
	<path d="M235.2,24.8c0.2,0.2,0.5,0.3,0.7,0.5c0.1,0.1-0.1,0.3-0.2,0.5c-0.1,0-0.3-0.1-0.3-0.1C235.4,25.3,235.3,25,235.2,24.8
		C235.2,24.7,235.2,24.8,235.2,24.8z"/>
	<path d="M235.5,68.7c0.1,0.2,0.3,0.4,0.3,0.5c0,0.2-0.2,0.3-0.3,0.5c-0.1-0.2-0.3-0.4-0.3-0.5C235.2,69.1,235.4,68.9,235.5,68.7z"
		/>
	<path d="M242.9,48.5c-0.2-0.1-0.5-0.2-0.3-0.1C242.5,48.3,242.7,48.5,242.9,48.5L242.9,48.5z"/>
	<path d="M239.6,48.3c-0.1,0-0.2,0.1-0.3,0.1c0,0-0.1-0.1-0.1-0.2c0.1,0,0.2-0.1,0.3-0.1C239.5,48.1,239.5,48.2,239.6,48.3z"/>
	<path d="M213.5,101.1c-0.2-0.1-0.3-0.2-0.5-0.4c0,0,0.1-0.2,0.1-0.3C213.2,100.7,213.3,101,213.5,101.1L213.5,101.1z"/>
	<path d="M231.7,23.3c-0.2-0.2-0.5-0.4-0.7-0.6l-0.1,0.1C231.4,22.7,231.7,22.9,231.7,23.3L231.7,23.3z"/>
	<path d="M231,22.7c-0.3-0.3-0.7-0.5,0.1-0.7l-0.1-0.1C231,22.2,230.9,22.5,231,22.7L231,22.7z"/>
	<path d="M197.3,21.9c0.5,0,0.8,0.3,0.8,0.8C197.6,22.7,197.4,22.4,197.3,21.9z"/>
	<path d="M213.4,101.2c0.1,0,0.2,0.1,0.3,0.1C213.7,101.2,213.6,101.2,213.4,101.2L213.4,101.2z"/>
	<path d="M242.8,48.6c0.1,0.1,0.3,0.2,0.4,0.2c-0.1,0-0.2,0-0.2-0.1C243,48.7,243,48.6,242.8,48.6L242.8,48.6z"/>
	<path d="M208.6,82.3c0.4,0,0.7,0.3,0.6,0.7l0.1-0.1C209.1,82.7,208.8,82.5,208.6,82.3L208.6,82.3z"/>
	<path d="M208.6,82.2C208.3,82,208.5,82.2,208.6,82.2L208.6,82.2z"/>
	<path d="M232.5,24c-0.3-0.2-0.5-0.5-0.8-0.7l-0.1,0.1C232.1,23.4,232.3,23.6,232.5,24L232.5,24z"/>
	<path d="M234.5,24.1c0.5-0.1,0.7,0.2,0.7,0.7c0,0,0.1-0.1,0.1-0.1C234.7,24.8,234.5,24.5,234.5,24.1
		C234.5,24,234.5,24.1,234.5,24.1z"/>
	<polygon points="232,115.4 232.1,115.6 231.9,115.6 	"/>
	<path d="M170.1,305.8c-0.3,0.6-0.6,1.2-1,1.8c-1.4,2.1-2.8,4.2-4.2,6.4c-2.4,4-3.7,8.5-4.4,13.1c-0.4,3-0.7,6-1,9
		c-0.9-1.7-0.7-3.6-0.5-5.4c0.5-7.3,2.8-14,6.7-20.2c1-1.6,2.3-2.9,3.5-4.3C169.3,305.9,169.8,305.9,170.1,305.8z"/>
	<path d="M173.6,229.2c-1.5-3.1-2.7-5.5-3.4-8c0-0.1,0.2-0.4,0.3-0.6C172.5,222.5,174,226.1,173.6,229.2z"/>
	<path d="M170.5,116.1c1.8-1,2.3-0.9,4.7,0.8C173.8,117.3,173.8,117.3,170.5,116.1z"/>
	<path d="M181.3,155.7c-0.8-1.9-1.2-3-0.5-4.2c0.1-0.1,0.4-0.1,0.7-0.1C182.1,152.5,182,153.7,181.3,155.7z"/>
	<path d="M158.9,154.5c1.5,1.5,1.8,2.9,2.5,4.3C159.2,158.1,159,157.9,158.9,154.5z"/>
	<path d="M165.6,213c-0.6-0.7-0.5-1.4-0.1-2.1C166.7,212.2,166.6,212.3,165.6,213z"/>
	<path d="M181.9,118.7c-0.8-0.3-1.9,0.2-2.3-1c1.8-0.7,1.8-0.7,2.2,1.1L181.9,118.7z"/>
	<path d="M181.8,118.8c0.2,0,0.5,0,0.7,0c0.7,0,1.3,0.3,1.4,1.1c0,0.1-0.1,0.2-0.1,0.3c-0.8,0.3-1.2-0.3-1.5-0.9
		c-0.1-0.2-0.2-0.4-0.3-0.6L181.8,118.8z"/>
	<path d="M168.5,216.9c-0.2,0.3-0.3,0.4-0.4,0.6c-0.2-0.2-0.5-0.3-0.7-0.6c-0.1-0.1,0.3-0.4,0.4-0.6
		C168.1,216.5,168.4,216.7,168.5,216.9z"/>
	<path d="M180.1,143.9c0-0.4,0-0.9,0-1.3c0,0,0.1,0,0.1,0c0,0.4,0,0.9,0,1.3C180.2,143.9,180.1,143.9,180.1,143.9z"/>
	<path d="M169.8,284.1c0,0.2,0.1,0.5,0.1,0.7c-0.1,0.4-0.3,0.4-0.4,0.1c-0.1-0.2,0-0.4,0.1-0.7C169.6,284.1,169.7,284.1,169.8,284.1
		z"/>
	<path d="M184,155.1c-0.1,0.4-0.2,0.7-0.3,1.1c-0.1-0.1-0.2-0.2-0.2-0.3c0-0.3,0.1-0.6,0.2-0.9C183.8,155.1,183.9,155.1,184,155.1z"
		/>
	<path d="M170.4,293.5c-0.1-0.4-0.3-0.6-0.3-0.8c0-0.1,0.2-0.3,0.3-0.4c0.1,0.2,0.2,0.4,0.2,0.6C170.6,293,170.5,293.1,170.4,293.5z
		"/>
	<path d="M169.8,288.6c0,0.1,0.1,0.2,0.1,0.3c-0.1,0-0.2,0.1-0.4,0.1c0-0.1,0-0.2,0-0.3C169.6,288.7,169.7,288.7,169.8,288.6z"/>
	<path d="M261.8,550.5c0.5,1.9,0.5,2.4-0.7,3c-2.1,1.1-4.2,2.1-6.3,3.1c-0.7,0.3-1.4,0.2-1.9-0.4c-0.5-0.6-0.6-1.5-0.1-2.3
		c0.3-0.5,0.7-1,1.2-1.3c2.4-1.6,4.9-2.8,7.9-2.1L261.8,550.5z"/>
	<path d="M264.9,556.1c-0.2,0.5-0.2,0.9-0.4,1.2c-1.2,1.3-2.7,2.2-4.5,2.5c-0.6,0.1-1.3-0.1-1.4-0.7c-0.1-0.5-0.1-1.3,0.2-1.6
		c1.4-1.4,3.1-2.1,5-2C264.2,555.5,264.5,555.9,264.9,556.1z"/>
	<path d="M269.6,559.6c-0.5,0.4-0.8,0.9-1.3,1c-0.5,0.1-1-0.1-1.5-0.2c-0.1,0-0.2-0.4-0.2-0.6c0.3-0.8,1.3-1.3,2.2-1.1
		C269,558.9,269.2,559.2,269.6,559.6z"/>
	<path d="M192.4,166.4c0.3,0,0.7,0.1,1.1,0.1c1,4.7,4.2,7.6,8.1,10c2.3,1.4,4.8,2.3,7.4,3.1c1.8,0.5,3.6,1,5.4,1.5
		c0.5,0.2,1,0.5,1.9,1c-1,0.2-1.4,0.4-1.7,0.4c-6.8-0.1-12.8-2.3-17.7-7C194.2,173.1,192.5,170.1,192.4,166.4L192.4,166.4z"/>
	<path d="M220,182c1.6-0.9,3.1-1.9,5.3-1.6C223.6,182.2,221.9,182.7,220,182z"/>
	<path d="M260.5,177.2c-1.5,0.9-2.7,0.8-3.9,0.3C258,176.4,258,176.4,260.5,177.2z"/>
	<path d="M192.8,162.4c0.1,0.2,0.2,0.4,0.2,0.6c0,0.1-0.1,0.2-0.2,0.2c-0.1-0.2-0.2-0.4-0.2-0.6
		C192.6,162.6,192.7,162.5,192.8,162.4z"/>
	<polygon points="226.9,179.3 227.2,179.2 227.2,179.4 	"/>
	<path d="M192.5,166.3c-0.1-0.1-0.2-0.2-0.3-0.3c0.1,0,0.1,0,0.2,0.1C192.4,166.2,192.4,166.3,192.5,166.3L192.5,166.3z"/>
	<path d="M221.7,568.8c-0.8,1.1-1.9,1.7-3.2,2c-0.3,0-0.7-0.2-0.9-0.4c-0.2-0.2-0.3-0.7-0.1-0.9c0.6-1.1,2.1-1.7,3.5-1.4
		C221.4,568,221.5,568.5,221.7,568.8z"/>
	<path d="M198.8,310.8c-1.4-0.6-2.2-2-3.2-3c-2.4-2.4-5.3-3.7-8.8-3.5c-1.8,0.1-3.4,0.6-4.9,1.6c-2.2,1.4-4,3.2-5.5,5.3
		c-2.3,3-4,6.3-5.1,9.9c-1.6,5.2-2.7,10.6-2.6,16.1c0.1,5.1,1.3,9.9,3.3,14.5c0.4,0.8,1.1,1.6,0.8,2.6l0.1-0.1
		c-1-0.3-1.3-1.3-1.7-2.1c-2-4.1-3.2-8.4-3.4-13.1c-0.3-5.2,0.2-10.3,1.5-15.2c1.7-6.5,4.9-12.3,9.6-17.2c0.8-0.8,1.8-1.4,2.8-2.1
		c3.2-2.5,6.7-2.2,10.3-1c0.7,0.2,1.4,0.8,2.1,1.3c1.9,1.4,3.2,3.3,4.7,5.1C198.8,310,198.7,310.5,198.8,310.8L198.8,310.8z"/>
	<path d="M194.7,335.4c-1.2,0.1-1.5,1.3-2.3,1.9c-1.7,1.2-3.3,1.3-4.8-0.1c-0.7-0.7-1.5-1.6-1.8-2.5c-1.1-3.1-1-6.2,0.5-9.1
		c0.2-0.4,0.5-0.8,0.8-1.2c2.2-2.8,5.7-2.5,7.5,0.5c0.3,0.6,0.6,1.3,0.9,2c0.3-0.1,0.6-0.1,0.9-0.2c0.1,0,0.2,0.1,0.3,0.2
		c0.3,3.1,0.6,6.3-0.8,9.3c-0.7,1.5-1.9,2.8-3.5,3.2c-1.5,0.4-3.2,0.7-4.6-0.5l-0.1,0.1c0.7-0.1,1.4-0.2,2-0.2
		C192.2,339,193.8,337.9,194.7,335.4c0.8-0.6,0.5-1.4,0.6-2.2c0.1-0.2,0.3-0.4,0.2-0.3c0-0.2,0,0.1-0.1,0.3
		C194.5,333.9,194.5,334.6,194.7,335.4z M186.4,331.3c-0.1,1.6,0.5,3.1,1.6,4.4c1.1,1.2,2.4,1.3,3.7,0.3c1-0.7,1.6-1.7,2-2.8
		c0.7-2.1,0.6-4.1,0-6.2c-0.2-0.7-0.5-1.3-0.9-1.9c-1.1-1.5-2.9-1.6-4.3-0.3c-0.9,0.9-1.6,2-1.8,3.3
		C186.6,329.1,186.6,330.2,186.4,331.3z"/>
	<path d="M179.8,360.6c-2.1-0.5-3.8-1.6-4.8-3.6l-0.1,0.1C176.8,357.9,178.5,358.9,179.8,360.6L179.8,360.6z"/>
	<path d="M202.7,338.1c-0.2,1-0.4,1.9-0.7,3.4C201.5,340,201.8,339,202.7,338.1z"/>
	<path d="M200.1,313.7c1.3,0.7,1.3,1.9,1.3,3.4C200.5,315.9,200.1,314.8,200.1,313.7L200.1,313.7z"/>
	<path d="M202.4,321.9c-0.9-0.8-0.5-1.9-0.4-2.8C202.1,320,202.2,321,202.4,321.9L202.4,321.9z"/>
	<path d="M179.7,360.7c0.7,0,1.5,0.1,2.2,0.1C181.2,361.4,180.4,361.3,179.7,360.7L179.7,360.7z"/>
	<path d="M172.8,354.3c0.9,0.4,1.4,1.1,1.4,2.1l0.1-0.1C173.2,356.1,172.8,355.3,172.8,354.3L172.8,354.3z"/>
	<path d="M202.3,322c0.6,0.6,0.7,1.3,0.5,2.2C202,323.5,202.4,322.7,202.3,322L202.3,322z"/>
	<path d="M203.3,328.1c0,0.3,0,0.6,0,1c-0.1-0.3-0.2-0.6-0.2-0.9C203.2,328.1,203.3,328.1,203.3,328.1z"/>
	<path d="M188.2,360.6c-0.4,0.5-0.9,0.6-1.8,0.1C187.3,360.7,187.8,360.7,188.2,360.6L188.2,360.6z"/>
	<path d="M184.1,360.8c0.1,0,0.2,0.1,0.3,0.1c-0.1,0.1-0.3,0.2-0.4,0.3c0,0-0.1-0.1-0.2-0.2C184,360.9,184.1,360.8,184.1,360.8z"/>
	<polygon points="203.4,333.9 203.3,334.1 203.3,333.9 	"/>
	<path d="M200.2,313.6c-0.7-0.2-0.7-0.8-0.7-1.4l-0.1,0.1C200.3,312.4,200.2,313,200.2,313.6L200.2,313.6z"/>
	<path d="M199.5,312.2c-0.7-0.2-0.8-0.8-0.7-1.4l-0.1,0C199.6,311,199.5,311.6,199.5,312.2L199.5,312.2z"/>
	<path d="M195.5,324.8c0.1,0,0.2,0.1,0.2,0.1c0,0.1,0,0.2-0.1,0.3c-0.1,0-0.2-0.1-0.2-0.1C195.4,325,195.5,324.9,195.5,324.8z"/>
	<polygon points="191.6,321.6 191.9,321.7 191.6,321.8 	"/>
	<polygon points="188.3,360.7 188.4,360.4 188.2,360.6 	"/>
	<path d="M174.2,356.4c0.2,0.2,0.5,0.5,0.7,0.7l0.1-0.1C174.5,357.1,174.2,356.9,174.2,356.4L174.2,356.4z"/>
	<path d="M187.6,338.9c-0.2-0.3-0.5-0.5-0.7-0.8l-0.1,0.1C187,338.5,187.3,338.7,187.6,338.9L187.6,338.9z"/>
	<path d="M186.1,337.5c0.5,0,0.7,0.2,0.7,0.7l0.1-0.1C186.4,338.1,186.2,337.9,186.1,337.5L186.1,337.5z"/>
	<path d="M186.2,337.4c-0.1-0.1-0.2-0.1-0.3-0.2C186,337.4,186,337.4,186.2,337.4L186.2,337.4z"/>
	<path d="M299.7,319.2c0.1,0.5,0.2,0.9,0.2,1.4c0.9-0.2,1.6,0.2,1.7,1c0.2,2.8,0.1,5.6-0.9,8.2c-0.7,1.8-2.1,3.1-3.9,3.7
		c-1.7,0.6-3.4,0.5-4.8-1l-0.1,0.1c0.6,0,1.1-0.1,2.2-0.2c-2.5-1.4-3.7-3.1-4.1-5.4c-0.5-2.7-0.3-5.3,1.2-7.7
		c0.5-0.8,1.1-1.5,1.8-2.1c1.7-1.3,3.5-1.2,5.1,0.2C298.7,318,299.2,318.7,299.7,319.2L299.7,319.2z M299.6,328.2
		c0.6-0.6,0.6-0.6,0.3-1.3C299.9,327.4,299.8,327.9,299.6,328.2c-0.1,0.6-0.4,1.1-0.6,1.5c-1.2,0.9-2.3,1.9-3.5,2.8
		c-0.1,0-0.2,0-0.3,0.1c0,0,0,0.1-0.1,0.2c0.1-0.1,0.2-0.2,0.3-0.3c2.4-0.1,2.8-0.4,3.5-2.8C299.9,329.5,299.7,328.8,299.6,328.2z
		 M299.3,324c-0.4-1.5-0.6-3.1-1.2-4.4c-1.1-2.2-3.3-2.3-4.9-0.5c-1.9,2.1-2.6,6.7-1.2,9.2c0.2,0.4,0.5,0.8,0.8,1.2
		c1,1.3,2.7,1.6,4,0.4c0.6-0.5,1.2-1.2,1.5-1.9C298.7,326.8,298.9,325.4,299.3,324z"/>
	<path d="M278.7,350c-1.1-0.4-1.3-1.5-1.9-2.4c-1.8-2.8-2.9-5.8-3.6-9c-1-4.5-1.3-9-0.4-13.5c0.3-1.3,0.2-2.6,0.4-3.8
		c0.6-4.5,2.5-8.5,4.4-12.5c0.2-0.4,0.7-0.6,1-0.8l0,0c-0.2,0.6-0.3,1.3-0.6,1.9c-3.6,7.6-5.1,15.7-4.5,24.1
		c0.3,4.3,1.5,8.4,3.4,12.3C277.7,347.5,278.5,348.7,278.7,350L278.7,350z"/>
	<path d="M282.1,303c1.7-3.5,4.9-5.3,8.4-6.2c2.4-0.6,5.2-0.1,7.4,1.4c3.2,2.1,7.8,7.4,8.4,13.2c-0.4-0.6-0.8-0.9-0.9-1.2
		c-0.9-3.3-2.8-5.8-5.1-8.2c-3.9-4.1-10.3-5.2-15.1-1c-1,0.8-2,1.6-3,2.4L282.1,303z"/>
	<path d="M282.3,303.2c-1,1.8-1.9,3.6-3.6,4.8l0,0c0.3-2.2,1.7-3.7,3.4-5L282.3,303.2z"/>
	<path d="M280.1,351.5c1.3,0.2,2.4,0.7,2.8,2.1l0.1-0.1C281.6,353.4,280.6,352.7,280.1,351.5L280.1,351.5z"/>
	<path d="M307.3,332.3c0,0.7,0,1.5,0,2.2c-0.1,0-0.2,0-0.3,0.1c-0.1-0.4-0.2-0.8-0.2-1.2c0-0.4,0.2-0.7,0.3-1.1
		C307.1,332.2,307.2,332.2,307.3,332.3z"/>
	<path d="M282.9,353.6c1.2,0,2.1,0.4,2.7,1.5l0.1-0.1C284.5,355,283.4,354.8,282.9,353.6L282.9,353.6z"/>
	<path d="M306.7,312.7c0.1,0.3,0.2,0.6,0.4,0.9c-0.1,0-0.2,0.1-0.2,0.1c-0.2-0.3-0.3-0.6-0.4-0.9
		C306.5,312.8,306.5,312.8,306.7,312.7z"/>
	<path d="M307.5,317.7c-0.6-0.6-0.8-1.2-0.3-2.3C307.3,316.4,307.3,317.1,307.5,317.7L307.5,317.7z"/>
	<path d="M285.6,355.1c0.5,0,1.1,0,1.8,0C286.6,355.9,286.1,355.5,285.6,355.1L285.6,355.1z"/>
	<path d="M291.3,354.9c0.5-0.4,1-0.8,1.9-0.1C292.4,354.8,291.8,354.8,291.3,354.9L291.3,354.9z"/>
	<path d="M307.9,321.9c0,0.3,0,0.6,0,1c-0.1,0-0.1,0-0.2,0c0-0.3,0-0.6,0-1C307.8,321.9,307.9,321.9,307.9,321.9z"/>
	<path d="M289.2,355.4c-0.1,0-0.2-0.1-0.3-0.1c0.1-0.1,0.2-0.2,0.3-0.2c0.1,0,0.1,0.1,0.2,0.2C289.4,355.3,289.3,355.4,289.2,355.4z
		"/>
	<path d="M307.4,317.8c0.1,0.1,0.3,0.3,0.4,0.4c0,0.1-0.1,0.3-0.2,0.4c0-0.1-0.1-0.2-0.1-0.3C307.5,318.2,307.5,317.9,307.4,317.8
		L307.4,317.8z"/>
	<polygon points="308.4,326.4 308.4,326.1 308.6,326.1 	"/>
	<polygon points="291.3,354.8 291.2,355.1 291.3,354.9 	"/>
	<path d="M299.8,319.3c0.1-0.1,0.2-0.3,0.3-0.4c0,0.1,0,0.2-0.1,0.2C299.9,319.1,299.8,319.2,299.8,319.3L299.8,319.3z"/>
	<path d="M280.2,351.4c-0.2-0.2-0.5-0.5-0.7-0.7l-0.1,0.1C279.6,351,279.8,351.3,280.2,351.4L280.2,351.4z"/>
	<path d="M278.7,350.1c0.6-0.1,0.7,0.2,0.7,0.7l0.1-0.1C278.9,350.8,278.7,350.5,278.7,350.1L278.7,350.1z"/>
	<path d="M291.3,331.9c0.2,0.2,0.4,0.5,0.7,0.7l0.1-0.1C291.8,332.3,291.6,332,291.3,331.9L291.3,331.9z"/>
	<path d="M291.4,331.8c-0.2-0.2-0.5-0.4-0.7-0.7l-0.1,0.1C290.8,331.4,291.1,331.7,291.4,331.8L291.4,331.8z"/>
	<polygon points="290.7,331.1 290.5,331 290.6,331.2 	"/>
	<path d="M264,221.9c-0.3-2.9,0.3-5.1,1.1-7.5c0.5,0.4,1,0.7,1.1,1C266.4,217.1,265.6,219.5,264,221.9z"/>
	<path d="M262.3,224.6c0.8,1.4,0.8,1.4-0.7,2.7C261,226.3,261.8,225.7,262.3,224.6z"/>
	<path d="M198.2,17.6c-1,0.1-1.8-0.2-2.5-1C197,15.9,197.5,17,198.2,17.6L198.2,17.6z"/>
	<path d="M199.4,21.3c0.6,0.2,1.1,0.5,1.7,0.7C200.3,22.2,199.6,22.2,199.4,21.3L199.4,21.3z"/>
	<path d="M691.2,447.1c0.5-0.9,1.1-1.1,1.6-0.7c0.5,0.4,1.1,0.9,1.3,1.5c1.7,3.7,2.8,7.6,2.4,11.8c0,0.2-0.2,0.4-0.3,0.8
		c-1.1-1.4-1.3-3-1.9-4.5c-0.5-1.4-0.9-2.9-1.4-4.3C692.4,450.2,691.8,448.7,691.2,447.1z"/>
	<path d="M548.1,393.3c0-0.8-0.2-1.1-0.1-1.4c1.7-5.3,3.4-10.6,5.1-15.9c0.1-0.2,0.3-0.3,0.5-0.5c0.1-0.1,0.2-0.1,0.5-0.2
		c0.2,0.3,0.5,0.7,0.5,1.1c0,0.7-0.2,1.4-0.4,2c-1.3,4.6-3,9-5.1,13.3C549,392.3,548.6,392.6,548.1,393.3z"/>
	<path d="M614.6,390.8c-0.3-0.9,0.2-1.6,0.7-2.2c2.5-2.9,5-5.9,7.6-8.7c1.8-2,3.8-3.8,5.9-5.8c0.1,0.4,0.2,0.8,0.1,0.9
		c-4.6,5.1-9.2,10.3-13.8,15.4C615,390.6,614.8,390.6,614.6,390.8L614.6,390.8z"/>
	<path d="M707,416.5c0.4,0.3,0.9,0.5,1.1,0.8c0.8,1.3,1.5,2.6,2.2,4c0.6,1,1.1,2,1.6,3.1c0.1,0.2,0,0.8-0.2,0.9
		c-0.3,0.2-0.8,0.3-1.2,0.2c-0.4-0.1-0.8-0.4-1.2-0.7c-1.7-1.8-2.8-4-3.3-6.4c-0.1-0.3,0-0.7,0.2-1C706.3,417,706.6,416.9,707,416.5
		z"/>
	<path d="M630.5,377.2c-1.2,2.6-3.4,4.9-9.2,10.2C622.6,384.4,625.7,380.8,630.5,377.2z"/>
	<path d="M544.4,404.8c0.1,0.6,0.1,1.1,0.2,1.7c1,0.7,2.1,1,3.3,1.2c1,0.2,2,0.2,3.1,1.2c-1.4-0.2-2.4-0.3-3.4-0.5
		c-1-0.2-2-0.4-3.2-0.7c-0.5,0.9-0.9,1.7-1.4,2.6l0.1,0.1c0-0.8,0.1-1.6,0-2.4c-0.1-0.5-0.4-1-0.7-1.4
		C543,406,543.7,405.4,544.4,404.8L544.4,404.8z"/>
	<path d="M695.3,469.9c0-2.1-0.2-3.7,0.9-5.4c0.4,0.4,0.8,0.7,0.9,1C697.3,467.3,697.1,467.6,695.3,469.9z"/>
	<path d="M554.9,401c-2.5,0-5.1,0-7.6,0c0-0.1,0-0.2,0-0.2c2.5,0,5.1,0,7.6,0C554.9,400.8,554.9,400.9,554.9,401z"/>
	<path d="M675.8,524.5c-0.5-0.9-0.4-1.7,0.5-2.3c0.1,0,0.2,0,0.3,0C677.1,523.2,676.7,523.9,675.8,524.5z"/>
	<path d="M605.5,419.5c-0.2-1,0-1.8,0.8-2.5C606.3,418.2,606.3,418.2,605.5,419.5L605.5,419.5z"/>
	<path d="M678.2,512.2c0.4,0.2,0.7,0.4,0.7,0.4c-0.1,0.4-0.3,0.8-0.5,1.2c-0.1,0.1-0.4,0.1-0.5,0.1c-0.1,0-0.2-0.2-0.2-0.2
		C677.8,513.1,678,512.6,678.2,512.2z"/>
	<path d="M692.8,480.8c0.7,0.8,0.5,1.4,0,2C692.1,482.1,692.3,481.5,692.8,480.8z"/>
	<path d="M545.2,400.4c-0.5,0-1-0.1-1.5-0.1c0-0.1,0-0.2,0-0.3c0.5,0,1,0.1,1.5,0.1C545.2,400.2,545.2,400.3,545.2,400.4z"/>
	<path d="M542.1,399.6c-0.7-0.1-0.9-0.1-1.2-0.1c0.2,0,0.3-0.1,0.5-0.1C541.5,399.4,541.6,399.4,542.1,399.6z"/>
	<path d="M694.4,475.2c0,0.4,0,0.8-0.1,1.2c-0.1,0-0.2,0-0.3,0c0-0.4,0-0.8,0-1.2C694.1,475.2,694.2,475.2,694.4,475.2z"/>
	<path d="M677.3,518.8c0,0.1,0.1,0.2,0.1,0.3c0,0.1-0.1,0.2-0.1,0.2c0-0.1-0.1-0.2-0.1-0.3C677.2,518.9,677.3,518.9,677.3,518.8z"/>
	<path d="M543,410.3c-0.1,0.3-0.1,0.5-0.1,0.4C542.8,410.8,542.9,410.5,543,410.3L543,410.3z"/>
	<path d="M544.5,404.8c0-0.2-0.1-0.4,0-0.6c0-0.1,0.2-0.2,0.3-0.4C545,404.3,544.9,404.6,544.5,404.8L544.5,404.8z"/>
	<path d="M614.6,390.7c-0.1,0.1-0.2,0.2-0.3,0.2c0-0.1,0.1-0.1,0.1-0.2C614.4,390.8,614.5,390.8,614.6,390.7L614.6,390.7z"/>
	<path d="M606,323.4c0,0.4,0.2,0.9,0.1,1.3c-0.1,1.8,0.2,3.4,1,5.1c1,2,1.4,4.2,1.4,6.5c0,4.5-0.1,9.1-0.2,13.6
		c0,0.7-0.3,1.3-0.5,1.9c-0.8,0.1-1.1-0.2-1.1-0.7c-0.1-1-0.2-2.1-0.2-3.1c0-2.9,0-5.8,0.1-8.8c0.1-3.1-0.2-6.1-0.9-9
		C605.2,327.9,605.7,325.7,606,323.4z"/>
	<path d="M598.4,306.4c-0.4,0.6-0.6,1.2-1.1,1.7c-1.5,1.8-13.8,12.9-15.6,14.2c0.1-0.4,0-0.8,0.2-1c1.5-1.8,3-3.6,4.6-5.2
		c3.3-3.2,6.8-6.4,10.2-9.5c0.3-0.3,0.7-0.4,1.1-0.6C598.1,306.1,598.3,306.3,598.4,306.4z"/>
	<path d="M577.4,363.1c0.9,0.4,1.4,0.5,1.6,0.8c1.6,1.7,3.5,6,4.6,10.1c-0.6,0.9-1.2,0.4-1.7,0c-0.3-0.2-0.4-0.6-0.5-0.9
		c-1.2-2.8-2.4-5.5-3.6-8.3C577.6,364.5,577.6,364.1,577.4,363.1z"/>
	<path d="M610.5,356c-0.1,1.3,0.1,2.1-0.2,2.5c-1.1,1.4-1.4,2.8-0.7,4.5c-2.6,0.2-3.7-0.8-3.4-3c0.2-1.1,0.6-2,1.6-2.6
		C608.4,357,609.2,356.7,610.5,356z"/>
	<path d="M611.7,308.1c0.7,0,1.1-0.1,1.3,0c1.2,0.6,1.8,1.8,2.3,2.9c0.5,1.1,1.1,2.3,0.7,3.6c-0.3-0.1-0.6-0.1-0.7-0.2
		C614.2,312.4,613.1,310.4,611.7,308.1z"/>
	<path d="M580.2,324.8c0.4,1.1-0.4,1.7-0.6,2.4c-0.2,0.7-0.4,1.3-0.6,2c-0.2,0.7-0.4,1.5-0.7,2.6c-1-1.5-0.4-2.6-0.1-3.6
		C578.5,327,578.8,325.6,580.2,324.8z"/>
	<path d="M572.1,351c-1-0.7-1-1.6-0.8-2.7C572.2,349.1,572.2,349.1,572.1,351z"/>
	<path d="M575.1,358.2c-0.9-1.3-1.3-2.3-1-3.9C574.9,355.6,575.3,356.6,575.1,358.2z"/>
	<path d="M606.5,320c-0.7-0.8-0.9-1.5,0.1-2.7c0.1,0.9,0.2,1.3,0.2,1.7C606.7,319.3,606.6,319.6,606.5,320z"/>
	<path d="M575.6,335.5c0.2-0.2,0.5-0.4,0.7-0.6c0.1,0.2,0.3,0.4,0.3,0.5c-0.1,0.2-0.4,0.4-0.6,0.6
		C575.9,335.9,575.8,335.7,575.6,335.5z"/>
	<path d="M586.4,164.3c2.4-0.3,4.8-0.6,7.2-0.9c0.4-0.8-0.8-0.5-0.9-1c0.2-0.1,0.4-0.2,0.5-0.2c0.6,0.1,1.1,0.2,1.9,0.3
		c0.1,1.2,0.2,2.4,0.3,3.7c-0.7-0.1-1.2-0.3-1.8-0.4c0.1,0.5,0.1,1,0.2,1.4c-0.5,0.8-2.4,1.5-3.4,1.3c-0.8-0.2-1.3-0.9-2.2-3.2
		c-0.8,0.1-1.5,0.3-2.5,0.5c0.3-0.7,0.5-1.1,0.7-1.5L586.4,164.3z"/>
	<path d="M608.3,189.1c-0.6,0.3-1,0.8-1.3,0.7c-3.2-1.1-6.4-0.6-9.7-0.3c-1.6,0.1-3.2-0.1-4.7-1c-0.2-0.1-0.2-0.4-0.3-0.6
		c0.4-0.8,1.2-0.7,1.8-0.5c1.9,0.7,3.7,0.4,5.4-0.3c1.1-0.4,2.2-0.4,3.4,0c0.6,0.2,1.3,0.3,2,0.4C606.2,187.6,607.2,188,608.3,189.1
		z"/>
	<path d="M604.7,160.9c-0.1,1.5-1.2,2.5-1.4,3.9c0.9,4.4,3,8.5,4.8,12.9c-0.3,0.9-0.7,2-1.1,3.1c-0.5,0.1-0.9,0.3-1.4,0.3
		c-0.4,0.1-0.9,0.4-1.4-0.1c0.5-1.4,2.2-1.6,2.9-2.9c0.1-1.4-0.7-2.6-1.4-3.8c-1.5-2.8-2.6-5.7-3.1-8.8c-0.3-1.7,0.1-3.2,1.3-4.5
		C604,160.9,604.3,161,604.7,160.9z"/>
	<path d="M583,160c0.8-2.1,2.5-3,4.5-3.3c1.9-0.3,3.9-0.5,5.8,0.3c1.2,0.5,2.5,0.6,3.7,0.9c0.9,0.2,1.7,0.6,2.5,0.8
		c0.1,1.1-0.4,1.3-1,1.1c-1.9-0.4-3.9-0.7-5.7-1.4c-2-0.7-3.9-0.5-5.8-0.2c-0.7,0.1-1.4,0.7-2.1,1.1
		C584.3,159.8,583.7,160.1,583,160L583,160z"/>
	<path d="M576.9,211.6c-0.9-1-2-1.9-2.6-3.1c-0.6-1.1-0.8-2.4-1.2-3.6c-0.3-1-0.7-2-1-2.9c0.5-0.7,0.9-0.8,1.5-0.3
		c0.2,0.1,0.3,0.3,0.4,0.5c1.1,3,2.2,6,3.4,9C577.3,211.4,577.1,211.5,576.9,211.6z"/>
	<path d="M606.6,192.4c-1.7,1.7-3.1,1.9-4.6,1.9c-1.6,0.1-3.2-0.2-4.5-1.6c0.4-0.2,0.6-0.5,0.8-0.5c1.3,0,2.5,0.2,3.8,0.2
		C603.4,192.4,604.6,192.4,606.6,192.4z"/>
	<path d="M580.2,200.7c0.9,0.1,1.8,0.1,2.7,0.4c2.1,0.6,4.1,1.4,6.3,2.1c-0.2,0.2-0.4,0.7-0.5,0.7c-2.8-0.7-5.6-1.1-8.1-2.8
		C580.5,201.1,580.4,200.8,580.2,200.7L580.2,200.7z"/>
	<path d="M603.3,180.1c-1.7,1.2-3.3,1.1-4.9,1.3c-0.5,0-0.9-0.4-1.8-1.7c0.9,0.2,1.6,0.6,2.3,0.5c0.6,0,1.3-0.5,1.9-0.7
		C601.6,179.4,602.4,179.1,603.3,180.1z"/>
	<path d="M573.2,142.6c-0.2,0.1-0.4,0.3-0.6,0.4c-2.6,0.5-5-0.1-7.2-1.3C568.1,141.5,570.6,142.8,573.2,142.6L573.2,142.6z"/>
	<path d="M586.5,164.2c-0.4,0-0.8-0.1-1.6-0.2c1.6-1.2,2.9-2,4.7-1.7c-1.2,0.7-2.2,1.4-3.3,2L586.5,164.2z"/>
	<path d="M578.1,199.2c-1.4,0.1-1.8-1.1-2.4-2C576.7,197.7,577.7,198.2,578.1,199.2L578.1,199.2z"/>
	<path d="M610.8,163.9c-0.3,0-0.6,0.1-0.7,0.1c-0.2-0.1-0.4-0.4-0.4-0.8C610,163.3,610.4,163.6,610.8,163.9z"/>
	<path d="M606.2,163.1c0.2,0,0.4,0,0.6,0c0,0.1,0,0.2,0,0.2c-0.2,0-0.4,0-0.6,0C606.2,163.3,606.2,163.2,606.2,163.1z"/>
	<path d="M602.6,184.5c-0.2-0.1-0.4-0.2-0.5-0.3c0-0.2,0.1-0.4,0.2-0.6c0.2,0.1,0.4,0.2,0.5,0.3
		C602.8,184.1,602.6,184.3,602.6,184.5z"/>
	<path d="M580.3,200.7c-0.5-0.2-0.9-0.5-1.4-0.7l-0.1,0.1C579.2,200.3,579.7,200.5,580.3,200.7L580.3,200.7z"/>
	<path d="M578.9,200c-0.4,0-0.8-0.2-0.7-0.7l-0.1,0.1C578.3,199.6,578.5,199.8,578.9,200L578.9,200z"/>
	<polygon points="569.6,190.2 569.8,190.3 569.6,190.2 	"/>
	<polygon points="583,160 582.9,160.1 583,160 	"/>
	<path d="M600.5,140.4c0.1,0.1,0.2,0.2,0.3,0.3c-0.1,0-0.2,0-0.2-0.1C600.6,140.6,600.6,140.4,600.5,140.4
		C600.6,140.3,600.5,140.4,600.5,140.4z"/>
	<path d="M534.3,277.4c0.4-2.5,1.7-3.5,3.2-4.4c0.1-0.1,0.5,0,0.6,0.1c0.2,0.3,0.4,0.7,0.3,0.9C537.6,275.6,536.4,276.6,534.3,277.4
		z"/>
	<path d="M541.2,329.7c0.4,1.6,0.2,2.6-0.7,3.6C540.1,332,540.1,332,541.2,329.7z"/>
	<path d="M531.2,284.5c-0.5,0.4-0.8,0.6-1.2,0.9c-0.2-0.4-0.4-0.7-0.5-1.1c0-0.2,0.3-0.5,0.5-0.7
		C530.4,283.9,530.7,284.1,531.2,284.5z"/>
	<path d="M532.4,318.4c0,0.7,0,1.4,0,2.1c0,0.3-0.2,0.6-0.4,1.2C531.8,320.3,531.6,319.3,532.4,318.4L532.4,318.4z"/>
	<path d="M569.9,276.1c0-0.4,0-0.8,0-1.2c0.1,0,0.2,0,0.3,0c0,0.4,0,0.8,0,1.2C570.1,276.1,570,276.1,569.9,276.1z"/>
	<path d="M532.7,281.3c-0.2,0.1-0.3,0.3-0.5,0.4c-0.1-0.3-0.2-0.5-0.2-0.8c0,0,0.3-0.1,0.5-0.2C532.6,280.9,532.6,281.1,532.7,281.3
		z"/>
	<polygon points="542.6,322.9 542.6,322.6 542.7,322.7 	"/>
	<path d="M575.1,289.6c2-0.9,3.6-0.8,5.2-0.9c2.1-0.1,4.2-0.1,6.3-0.3c5.1-0.4,9.8-1.9,13.8-5.6c0.2,0.4,0.5,0.7,0.4,0.9
		c-0.2,0.5-0.6,1-1,1.4c-1.7,1.8-3.9,3-6.2,3.7c-5.6,1.9-11.4,2.1-17.3,1.5C576.1,290.4,575.8,290.1,575.1,289.6z"/>
	<path d="M626,289.6c-1.1,0.7-2.2,0.5-3.4,0.1C624,288.4,624.3,288.4,626,289.6z"/>
	<path d="M601.9,281c0.6-0.7,1.1-1.3,1.6-1.9c0.2,0.2,0.5,0.4,0.4,0.5C603.4,281.3,603.3,281.4,601.9,281z"/>
	<path d="M576.7,264.5c-0.8-0.1-1.1-0.8-1.4-1.4c-0.7-1.7-1.6-3.4-2.1-5.2c-1.4-5.2-2.1-10.5-1-15.9c0.2-1.1,0.2-2.3,0.4-3.5
		c1.3-7.5,4.4-14.2,9.5-19.9c1.1-1.2,2.4-2.2,3.7-3.2c3.2-2.4,6.7-2.2,10.3-1c0.5,0.2,1.1,0.5,1.5,0.8c2.1,1.6,3.9,3.7,5.4,5.9
		c0.2,0.3,0.2,0.9,0.2,1.3l0.1-0.1c-1.5-0.9-2.3-2.5-3.6-3.7c-2.5-2.4-5.3-3.7-8.8-3.5c-1.8,0.1-3.4,0.6-4.9,1.5
		c-2.5,1.6-4.5,3.7-6.2,6.1c-3.1,4.4-4.8,9.3-5.9,14.4c-1,4.4-1.3,8.8-1,13.2c0.2,4.1,1.4,8,3,11.8
		C576.3,263,576.4,263.8,576.7,264.5L576.7,264.5z"/>
	<path d="M597.6,249c0-0.5,0-0.9,0-1.4c1.1-0.3,1.3-1.1,1.5-2c0.3-0.5,0.8-1,0.1-1.8c0,0.8,0,1.3,0,1.9c-1.1,0.2-1.4,1-1.5,2
		c-0.1,0-0.3,0-0.3,0c-3,1.8-2.3,1.8-6,0.6l0.1,0.1c-0.3-0.3-0.6-0.6-0.8-0.8l0.1,0.1c-0.6-1.7-1.4-3.4-1.5-5.3
		c-0.1-2.3,0.3-4.4,1.5-6.3c1.9-3,4.5-3.4,7.3-1.1c0.3,0.3,0.7,0.4,1.1,0.6c0.1,0,0.2,0.1,0.3,0.1c0.5,0.5-1.2,1.9,0.8,1.9
		c0.3,0,0.8,0.9,0.8,1.4c0.1,2.3,0,4.7-0.6,6.9c-0.4,1.4-0.9,2.9-2.7,3.3L597.6,249z M590.7,241.9c-0.2,1.8,0.3,3.3,1.4,4.6
		c1.1,1.4,2.6,1.5,4,0.4c2.8-2.3,3.2-8.6,0.7-11.2c-0.9-0.9-2.2-1.1-3.2-0.5c-0.6,0.4-1.1,0.9-1.5,1.4
		C590.9,238.2,590.7,240.1,590.7,241.9z"/>
	<path d="M580.9,269.5c0.4,0.1,0.9,0.2,1.3,0.4c1.3,0.7,2.6,1.5,3.8,2.2c-0.9,0.5-1.8,0-2.5-0.5C582.5,271,581.2,270.7,580.9,269.5
		L580.9,269.5z"/>
	<path d="M577.3,266c1.5,0.9,2.6,2.1,3.6,3.5l0.1-0.1C579.1,268.9,577.8,267.8,577.3,266L577.3,266z"/>
	<path d="M597.8,249.2c-0.3,0.9-1,1.2-1.8,1.3c-1.1,0.2-2.3,0.1-3.9-0.3c2.2-0.5,3.9-0.8,5.6-1.2L597.8,249.2z"/>
	<path d="M605.5,227.3c-1-0.9-1.3-2.2-1.4-3.4l-0.1,0.1c0.3,0.2,0.6,0.3,0.8,0.5C605.3,225.3,605.6,226.3,605.5,227.3L605.5,227.3z"
		/>
	<path d="M606.2,251.9c0-1,0-2,0-3C606.8,250,607.1,251,606.2,251.9L606.2,251.9z"/>
	<path d="M592.6,271.2c-0.5,1-1.1,0.7-1.6,0.8C591.5,271.4,591.9,271.4,592.6,271.2z"/>
	<path d="M606.9,234.3c-0.9-0.5-0.8-1.2-0.4-2.3C606.7,233,606.7,233.7,606.9,234.3L606.9,234.3z"/>
	<path d="M607.1,240c0-0.4,0-0.9,0-1.3c0.1,0,0.1,0,0.2,0c0,0.4,0.1,0.9,0.1,1.3C607.3,240,607.2,240,607.1,240z"/>
	<path d="M591.4,248.3c-0.1,0.3-0.3,0.6-0.4,0.9c-0.2-0.1-0.4-0.2-0.5-0.4c-0.4-0.5,0.1-0.8,0.3-1.1l-0.1-0.1c0,0.6,0.3,0.8,0.8,0.8
		L591.4,248.3z"/>
	<path d="M606.8,234.3c0.3,0.4,0.7,0.8,0.1,1.7C606.9,235.3,606.9,234.8,606.8,234.3L606.8,234.3z"/>
	<path d="M603.3,222.5c0.9,0.2,0.8,0.8,0.7,1.5l0.1-0.1C603.4,223.6,603.2,223.1,603.3,222.5L603.3,222.5z"/>
	<path d="M606.2,230.1c-0.1-0.1-0.3-0.2-0.4-0.4c0,0,0.1-0.2,0.1-0.2C605.9,229.7,606,230,606.2,230.1L606.2,230.1z"/>
	<path d="M588.2,271.9c0.2-0.1,0.4-0.1,0.5-0.1c0.1,0,0.1,0.1,0.2,0.2c-0.2,0.1-0.4,0.1-0.5,0.1C588.3,272.1,588.2,272,588.2,271.9z
		"/>
	<path d="M576.7,264.5c0.8,0.2,0.7,0.8,0.6,1.5l0.1-0.1C576.7,265.7,576.6,265.1,576.7,264.5L576.7,264.5z"/>
	<path d="M605.4,227.4c0.1,0.1,0.2,0.2,0.3,0.3c-0.1,0-0.2,0-0.2-0.1C605.5,227.5,605.5,227.4,605.4,227.4L605.4,227.4z"/>
	<path d="M606.1,230.2c0.1,0,0.2,0.1,0.3,0.1C606.3,230.2,606.2,230.2,606.1,230.2L606.1,230.2z"/>
	<polygon points="606.1,251.8 606,252 606.2,251.9 	"/>
	<path d="M667.8,244.3c0.6,0,1.1-0.1,2.2-0.2c-2.5-1.4-3.7-3.1-4.1-5.4c-0.5-2.7-0.3-5.3,1.2-7.7c0.5-0.8,1.1-1.5,1.8-2.1
		c1.7-1.3,3.5-1.2,5.1,0.2c0.6,0.5,1.1,1.2,1.6,1.8l-0.1-0.1c0.1,0.5,0.2,0.9,0.2,1.4c0.9-0.2,1.6,0.2,1.7,1
		c0.2,2.8,0.2,5.6-0.9,8.2c-0.8,1.9-2.2,3.3-4.2,3.8c-1.6,0.5-3.2,0.3-4.4-1.1L667.8,244.3z M675.4,239.9c0.5-0.6,0.5-0.6,0.3-1.3
		c-0.1,0.5-0.1,1-0.2,1.4c-0.6,0.3-0.7,0.9-0.7,1.5c-1.2,0.9-2.3,1.9-3.5,2.8c-0.1,0-0.2,0-0.3,0.1c0,0,0,0.1-0.1,0.2
		c0.1-0.1,0.2-0.2,0.3-0.3c2.4-0.1,2.8-0.4,3.5-2.8C675.7,241.2,675.5,240.5,675.4,239.9z M667.1,236.5c-0.2,1.5,0.2,2.9,1.1,4.3
		c1.3,2,3.4,2.1,5,0.3c2-2.2,2.3-7.4,0.6-9.9c-0.2-0.3-0.4-0.6-0.7-0.8c-0.9-0.9-2.1-1.1-3.2-0.3c-0.6,0.5-1.2,1.1-1.6,1.8
		C667.4,233.2,667.1,234.8,667.1,236.5z"/>
	<path d="M654.5,261.7c-1.1-0.4-1.3-1.5-1.9-2.4c-1.8-2.8-2.9-5.8-3.6-9c-1-4.5-1.3-9-0.4-13.5c0.3-1.3,0.2-2.6,0.4-3.8
		c0.6-4.5,2.5-8.5,4.4-12.5c0.2-0.4,0.7-0.6,1-0.8l0,0c-0.2,0.7-0.3,1.3-0.6,1.9c-3.6,7.6-5.1,15.7-4.5,24.1
		c0.3,4.3,1.5,8.4,3.4,12.3C653.5,259.2,654.4,260.3,654.5,261.7L654.5,261.7z"/>
	<path d="M657.9,214.6c1.7-3.5,4.9-5.3,8.4-6.2c2.4-0.6,5.3-0.2,7.4,1.4c4.3,3.2,7.3,7.3,8.2,12.9c-0.2-0.3-0.6-0.6-0.7-0.9
		c-0.9-3.3-2.8-5.8-5.1-8.2c-3.9-4.1-10.3-5.2-15.1-1c-1,0.8-2,1.6-3,2.4L657.9,214.6z"/>
	<path d="M654.5,219.7c0.3-2.2,1.7-3.7,3.4-5l0.2,0.2C657.1,216.6,656.2,218.4,654.5,219.7L654.5,219.7z"/>
	<path d="M655.9,263.2c1.3,0.2,2.4,0.7,2.8,2.1l0.1-0.1C657.4,265,656.4,264.4,655.9,263.2L655.9,263.2z"/>
	<path d="M658.7,265.3c1.2,0,2.1,0.4,2.7,1.5l0.1-0.1C660.3,266.6,659.2,266.4,658.7,265.3L658.7,265.3z"/>
	<path d="M682.5,246.2c0-0.4,0-0.8,0-1.3c0-0.3,0.1-0.6,0.2-1C683.6,244.7,683.2,245.4,682.5,246.2z"/>
	<path d="M683.3,229.4c-0.6-0.6-0.8-1.2-0.3-2.3C683.1,228.1,683.2,228.8,683.3,229.4L683.3,229.4z"/>
	<path d="M682.5,224.3c0.1,0.3,0.2,0.7,0.3,1c-0.1,0-0.2,0-0.3-0.1c-0.1-0.3-0.2-0.6-0.3-0.8C682.3,224.4,682.4,224.3,682.5,224.3z"
		/>
	<path d="M683.5,234.5c0-0.3,0-0.6,0-1c0.1,0,0.1,0,0.2,0c0,0.3,0,0.6,0,1C683.7,234.5,683.6,234.5,683.5,234.5z"/>
	<path d="M661.4,266.7c0.5,0,1.1,0,1.8,0C662.4,267.5,661.9,267.2,661.4,266.7L661.4,266.7z"/>
	<path d="M667.1,266.6c0.5-0.4,1-0.8,1.9-0.1C668.2,266.5,667.6,266.5,667.1,266.6L667.1,266.6z"/>
	<path d="M683.2,229.5c0.1,0.1,0.3,0.3,0.4,0.4c0,0.1-0.1,0.3-0.2,0.4c0-0.1-0.1-0.2-0.1-0.3C683.3,229.8,683.3,229.6,683.2,229.5
		L683.2,229.5z"/>
	<path d="M665.2,267c-0.1,0-0.2,0.1-0.3,0.1c0-0.1,0-0.2-0.1-0.3c0.1,0,0.2,0,0.3,0.1C665.2,266.8,665.2,266.9,665.2,267z"/>
	<polygon points="684.2,237.8 684.4,237.8 684.3,238.1 	"/>
	<path d="M675.6,230.9c0.1-0.1,0.2-0.3,0.3-0.4c0,0.1,0,0.2-0.1,0.2C675.7,230.8,675.6,230.8,675.6,230.9L675.6,230.9z"/>
	<polygon points="666.4,242.7 666.3,242.6 666.3,242.8 	"/>
	<path d="M667.2,243.4c-0.2-0.2-0.5-0.5-0.7-0.7l-0.1,0.1C666.6,243,666.8,243.3,667.2,243.4L667.2,243.4z"/>
	<path d="M667.9,244.2c-0.2-0.2-0.5-0.5-0.7-0.7l-0.1,0.1c0.2,0.3,0.5,0.5,0.7,0.8L667.9,244.2z"/>
	<path d="M654.5,261.8c0.5-0.1,0.7,0.2,0.7,0.6l0.1-0.1C654.7,262.5,654.5,262.2,654.5,261.8L654.5,261.8z"/>
	<path d="M656,263.1c-0.5,0-0.7-0.3-0.7-0.7l-0.1,0.1C655.4,262.7,655.7,262.9,656,263.1L656,263.1z"/>
	<polygon points="667.1,266.5 667,266.7 667.1,266.6 	"/>
	<path d="M650.2,330.5c1.1-2.5,2.1-4.9,3.2-7.4c0.6,3.2-0.7,5.6-2.6,7.8C650.6,330.7,650.4,330.6,650.2,330.5z"/>
	<path d="M632.3,319.2c0.5,1.8,0.5,1.8,0.2,3.2C631.8,321.5,631.8,320.6,632.3,319.2z"/>
	<path d="M646.5,269.2c-0.2-0.2-0.5-0.4-0.6-0.6c-0.1-0.1-0.1-0.4,0-0.6c0.1-0.1,0.4-0.2,0.5-0.1c0.1,0.1,0.2,0.4,0.3,0.6
		C646.7,268.7,646.6,268.9,646.5,269.2z"/>
	<path d="M646.4,273.1c0.1,0.2,0.1,0.4,0.2,0.6c0,0.1-0.1,0.1-0.2,0.2c-0.1-0.2-0.2-0.4-0.2-0.6
		C646.2,273.3,646.3,273.2,646.4,273.1z"/>
	<path d="M654.2,319.7c0,0.1,0.1,0.2,0.1,0.3c-0.1,0-0.2,0.1-0.3,0.1c0-0.1,0-0.2,0.1-0.3C654.1,319.7,654.2,319.7,654.2,319.7z"/>
	<path d="M564.8,132.7c-0.7-0.3-1.3-0.6-2.4-1.1C564.1,131.6,564.1,131.6,564.8,132.7L564.8,132.7z"/>
	<path d="M592.8,134.1c0.1,0.1,0.2,0.2,0.3,0.3c-0.1,0-0.2,0-0.2-0.1C592.9,134.2,592.9,134.1,592.8,134.1L592.8,134.1z"/>
	<path d="M567.5,136.9c0.2,0.1,0.3,0.2,0.5,0.2C567.5,137.5,567.7,137.1,567.5,136.9L567.5,136.9z"/>
	<path d="M189,333.1c-0.3-1.2-0.7-2.4-0.8-3.6c-0.2-1.2,0.3-2.3,1.3-3.1c0.6-0.5,1.1-0.5,3.3,0.3c0.5,1.2,0.3,2.4,0.1,4.3
		c-0.2-1-0.3-1.4-0.4-1.8c-0.1-0.4-0.2-0.9-0.3-1.5c-0.7,0.1-1.2,0-1.7,0.2c-0.3,0.2-0.7,0.7-0.7,1.1c0,1,0.1,2.1,0.2,3.1
		C190.1,332.7,189.8,333.1,189,333.1z"/>
	<path d="M294.7,327.9c-1.8-2.6-2.3-4.6-1-6.7c0.9-1.6,2.6-1.6,3.9,0c0.1,0.1,0,0.2,0,0.5c-0.3,0.1-0.6,0.2-0.9,0.2
		c-1.5,0-2.1,0.4-2.1,1.6C294.7,324.6,294.7,325.9,294.7,327.9z"/>
	<path d="M298,324.9c-0.1,0.1-0.3,0.1-0.4,0.2c0-0.1-0.1-0.2-0.1-0.2c0.1-0.1,0.3-0.2,0.4-0.2C297.9,324.7,298,324.8,298,324.9z"/>
	<path d="M297.9,323.1c-0.1,0-0.2,0.1-0.3,0.1c0-0.1-0.1-0.3-0.1-0.4c0.1,0,0.2,0,0.3,0C297.9,323,297.9,323.1,297.9,323.1z"/>
	<path d="M597.1,239.2c-0.2-0.1-0.4-0.2-0.6-0.2c-1.6-0.5-2.3-0.1-2.4,1.3c0,0.8,0.1,1.6,0.1,2.4c0,0.5-0.1,1-0.2,2.2
		c-1-1.8-1.7-2.9-1.6-4.4c0.1-1.2,0.4-2.3,1.3-3.1c0.6-0.5,1.2-0.5,3.4,0.2c0,0.5,0,1.1,0,1.6L597.1,239.2z"/>
	<path d="M597,239.3c0.1,0.3,0.3,0.5,0.4,0.8c0,0-0.3,0.2-0.5,0.3c0,0-0.2-0.2-0.1-0.2c0.1-0.3,0.2-0.6,0.3-0.9L597,239.3z"/>
	<path d="M597.3,241.6c0,0.1-0.1,0.2-0.1,0.2c-0.1,0-0.2,0-0.3-0.1c0-0.1,0.1-0.2,0.1-0.2C597.1,241.6,597.2,241.6,597.3,241.6z"/>
	<path d="M673.3,233.5c-0.5-0.1-0.8-0.2-1.1-0.2c-1.1,0.1-1.6,0.5-1.6,1.4c0,1.4,0,2.8,0,4.3c-2.1-2.2-2.3-4.6-0.8-6.5
		c1-1.2,2.6-1.1,3.7,0.4C673.5,232.9,673.4,233.1,673.3,233.5z"/>
	<path d="M673.7,236.7c-0.2,0-0.3,0-0.5,0c0-0.1,0-0.2,0.1-0.3c0.1-0.1,0.2-0.1,0.3-0.2C673.7,236.4,673.7,236.6,673.7,236.7z"/>
	<path d="M673.7,234.6c0,0.1,0,0.2,0,0.2c-0.1,0.1-0.2,0-0.3,0.1c0-0.1,0-0.3,0-0.4C673.5,234.6,673.6,234.6,673.7,234.6z"/>
</g>
</svg>
