<?xml version="1.0" encoding="utf-8"?>
<!-- Generator: Adobe Illustrator 19.1.0, SVG Export Plug-In . SVG Version: 6.00 Build 0)  -->
<svg version="1.2" baseProfile="tiny" id="Layer_2" xmlns="http://www.w3.org/2000/svg" xmlns:xlink="http://www.w3.org/1999/xlink"
	 x="0px" y="0px" width="900px" height="600px" viewBox="144 97 900 600" xml:space="preserve">
<g>
	<path d="M745.6,673.4c0.1-0.4,0.1-1.1,0.7-1.2c4-0.5,8.2-2.1,11.6,1.6c0.6-1.1,0.6-2.1,0.3-3c-1.9-5-1.7-10.3-1.7-15.5
		c-0.1-6.1-0.7-12.2-0.9-18.2c-0.2-5.4-0.4-10.7-0.4-16.1c0-4.4-0.4-8.7-1.2-13.1c-1.5-8.8-1.8-17.7-0.7-26.6
		c0.6-5.7,0.8-11.4,1.9-17.1c0.2-1.3,0.2-2.7,0.1-4c-0.3-5.7,0-11.4,0.2-17.2c0-0.5,0.2-1-0.6-1.6c-5.5,3.4-11.8,2.1-17.9,2.4
		c-1.3,0.1-2.5-0.2-3.5-0.9c-2.2-1.6-4.5-3-6.3-4.9c-2.4-2.6-5-5-7.6-7.5c-3.2,0.4-6.3,1.4-9.5,2c-8.3,1.4-16.5,3.1-24.9,3.6
		c-1.8,0.1-3.3,0.8-4.9,1.5c-4.6,2.2-9.1,4.7-13.9,6.4c-5.3,1.9-10.1,4.8-15,7.5c-3.7,2-7.6,3.2-11.7,3.8c-3,0.4-5.6,1.3-7.3,4.1
		c-0.6,1-1.8,1.6-2.8,2.3c-4.3,3.3-9,5.8-13.5,8.7c-10.2,6.3-21.5,9.6-32.8,13c-6.1,1.8-12.3,2.9-18.2,5.4c-2.2,0.9-4.8,0.9-7.2,1.1
		c-5.9,0.5-11.8,1.3-17.8,1.6c-3.3,0.2-6.5,1-9.8,1.6c-0.3,1.5-1.6,2-2.9,2.4c-1.9,0.7-3.9,1.2-5.9,1.8c-1.5,0.4-3.1,0.5-4.4,1.6
		c-0.9,0.8-2.1,0.6-3.2,0.8c-4,0.5-8.1,0.6-11.9,1.7c-4.4,1.3-8.6,0.9-13,0.6c-1.3-0.1-2.3-0.6-3-1.7c-3.5,1.4-6.9,2.6-10.2,4.2
		c-4.4,2.2-9.2,3.3-14,4.2c-13.6,2.8-26.7,7.3-40,11.5c-12.2,3.9-24.1,8.5-36.6,11.3c-2.4,0.5-3.5,2.5-5.2,3.9
		c3.1,5.5-1.2,9.1-3.4,13.5c0.4,1.4,0.8,3,1.4,4.6c1,2.7,2.8,4.8,5.7,5.7c1.9,0.5,3.7,1.2,5.5,1.8c3.6,1.2,5.5,4.3,4.7,8
		c-0.5,2.4-1.2,4.7-1.9,7.2c-5.4,4.3-11.4,2.8-17.5,1.6c1.3,1.9,3.4,2.6,4.4,4.4c0.6,5.5-4.3,10.7-9.4,12.7
		c-1.4,0.6-2.9,0.5-4.3,0.2c-2-0.4-4.1-0.7-6-1.4c-5.1-1.9-10.2-4-15.3-6c-2.7-1.1-4.5-3.2-5.7-5.9c-2-4.6-2.7-9.4-2.2-14.3
		c0.4-3.7-0.4-7.3-1.4-10.8c-0.6-2.2-1.9-3.7-4.1-4.8c-4.3-2.2-6.2-6.4-7.4-10.8c-1.2-4.8-2.9-9.6-3.5-14.5
		c-0.2-1.2-0.5-2.3-1.1-3.7c3.2-1,6.2-2,9.5-3.1c-0.9-3.4-1.2-6.7-0.2-10c1-3.2,1.8-3.9,5-4.3c5.2-0.8,10.4-1.5,15.6-0.5
		c1,0.2,2,0,2.8-0.6c2.8-1.8,6-2.7,9.1-3.6c1.8-0.6,3.7-1.2,5.3-2.4c0.5-0.4,1.1-0.4,1.6-0.3c0.6,1.4-1.1,2.2-0.5,3.7
		c2.4-1,4.9-1.9,7.3-3c8.2-3.5,16.6-6.3,24.6-10.2c5.2-2.6,10.1-5.7,15-9c11.9-8,24.1-15.5,38.3-18.9c10.4-2.5,20.6-5.8,31.5-5.8
		c3.3,0,6.5-0.5,9.8-1.1c4.3-0.8,8.6-1.6,12.4-4.1c1.3-0.9,2.9-1.3,4.4-1.9c4.8-1.8,9.7-3.1,14-6.1c0.2-0.1,0.4-0.2,0.7-0.3
		c14.1-5.1,27.1-12.8,40.9-18.6c4.8-2,8.4-5.6,10.7-10.4c0.6-1.2,1.2-2.4,2-3.5c7.4-10.1,17-17.3,28.9-21.4c2.5-0.8,5.1-0.7,7.6-0.7
		c8-0.2,15.8,0.9,23.5,2.9c1.3,0.3,2.6,0.7,3.9,0.8c3.6,0.2,7.3,0.2,10.9,0.8c2.6,0.5,5.3,0.2,8-0.6c7.6-2.2,14.9-5.2,22-8.9
		c0.6-0.3,1.3-0.7,1.8-1.4c0-1.5-0.8-2.9-1.3-4.4c-4.7-12.5-6.2-25.5-5.6-38.8c0.1-3.1-0.3-6.1-0.6-9.1c-0.4-4-0.5-8-0.4-12
		c0.1-3.8,1-7.4,3-11.2c3.6,0.5,7.1-1.1,10.9-0.6c3.4,0.5,6.7,1.3,9.6,3.2c3.3,2.1,6.8,3.7,10.4,5.3c8.7,3.9,16.7,9,23.6,15.7
		c3.5,3.4,7.5,6.3,11.3,9.3c0.8,0.7,1.9,1.1,3,1.4c8.5,2.3,16,6.5,22.7,12.2c1.3,1.1,2.6,1.7,4.3,1.7c4.8,0,9.4,1.4,13.9,3
		c3.5,1.2,7.1,1.8,10.8,1.1c2.4-0.5,4.9-0.1,7.3-1c0.2-5,0.8-9.8,2.5-14.4c0.5-1.4,0.4-2.9,0.2-4.4c-1.1-7.6,1.2-14.5,4.8-21
		c2.9-5,11.3-8.5,16.9-7.2c1,0.2,1.8,0.7,2.4,1.5c2.3,3.1,4.8,6.1,5.4,9.9c8,0.2,15.2,2.2,21.5,7c4.4,3.4,8,7.5,11.6,11.7
		c4.9,5.6,6.4,12.3,6,19.5c-0.1,2.8,0.2,5.7-1.5,8.2c-1.8,2.7-3.7,5.4-5.6,8.1c-2.1,2.9-4.9,5-7.3,7.7c-1,1.1-2.5,1.5-3.9,1.8
		c-1.9,0.4-3.2,1.5-4.4,3c-2.3,2.9-3.5,6.4-5.4,9.5c-0.5,0.8-0.7,1.9-2,2.2c-2-0.1-3.2-2.1-4.8-3c-2,0.2-2.4,2.2-4.1,2.9
		c-0.8,0.4-1.5-0.5-2.5-0.4c-1,2.6-3.4,2.9-6.2,2.7c-0.4,4-0.1,7.9-1.9,11.5c0.2-3,0.7-6,0.5-9.1c-1.1-0.1-1.7,0.4-2.3,1.4
		c0.6,6.1,0.9,12.4-0.4,19c-0.4-6.6-0.8-12.8-1.1-18.7c-0.8-1.2-1.8-1.4-2.9-1.6c-0.3,2.5,0.8,4.7,1.1,7.1c0.2,2.5,1,5.1,0.9,7.6
		c-0.1,2.3,2,4.4,0.5,7c-3.1-1.2-4.3-3.6-5.3-6.1c-2.5-6-4.6-12-5.6-18.5c-0.1-0.8-0.3-1.7-0.5-2.8c-2.6,6.9-0.4,13.5,0.2,20
		c-1.6,0.2-1.7-0.8-1.9-1.5c-1.4-7-3.6-13.9-3.1-21.2c0.1-1.2,0-2.4-0.5-3.6c-4.2-0.4-8.3-2.2-12.7-0.3c-0.3,0.4-0.5,0.9-0.9,1.2
		c-4.4,4-4.7,8.9-3.4,14.3c0.8,3.4,0.1,6.8-0.7,10.1c-1.2,5.1-2.7,10.2-5,14.9c-2.4,4.9-3.3,10.1-3.6,15.5c-0.2,5-0.4,10-1.5,14.9
		c-0.5,2-0.9,4-1.4,6c-1.2,5.2-1.2,10.3,0.4,15.5c0.8,2.8,0.8,5.7,0.8,8.7c-0.2,10.6-3,21-3.6,31.6c-0.2,3.8-0.7,7.5-0.8,11.3
		c-0.4,9.7-0.7,19.5-1,29.3c1.6,2,3.9,2.9,6.2,3.7c1,0.4,2.1,0.7,3.1,1c3.1,0.9,5.2,2.6,5.4,6.1c0.1,1,0.3,2,1.7,2
		c1.3-1-0.1-2.6,1.2-4.1c3.5-0.6,7.5,0.5,11.8-0.5c2.9,5.9,2.9,12.1,2.3,18.2c-4.9,2.2-9.6,2.2-14.7,0.5c-0.5-0.9,0.2-2.4-0.3-4
		c-2.2,0.4-4.5,0.6-6.7,0.3c-1.4-0.5-1.5-3.1-2.7-2.6c-2.3,0.8-4-2.1-6.1-0.4c-0.9,0.6-0.5,1.8-0.9,2.6c0.5,1.2,1.4,1.6,2.7,2
		c1.5-0.5,3-1.3,4.3-2.6c1.6,1.7,3.3,3.1,6,2c-1.3,3-1.8,3-6.2,0.7c-2.1,1.1-4.2,2.7-6.7,0.8c-0.2-0.2-0.8-0.2-1,0
		c-1.7,1.1-3,0-4.4-0.7c-1.3,0.3-2.6,0.7-3.8,1c-2-0.7-2.3-2.6-3.1-4.5c-1.7,0.8-3.4,0.6-5.3,0c-0.2,2-0.4,3.8-0.5,5.5
		c-2.9,1.1-7.1,1.1-13.4-0.2c-1.1-6-0.7-12.3-0.8-18.2C744.7,672.6,745.2,673.2,745.6,673.4c-0.5,2.7-0.1,5.5,0,8.3
		c0.1,2.7-0.4,5.5,0.4,8.4c3.3-0.9,6.6,0.7,10-0.3c-0.4-3.3,0.1-6.6-0.6-9.8c-2.4-0.2-4.3,1-6.4,1.3c-0.7-0.4-1.4-0.6-1.6-1.6
		c0.6-0.9,1.2-1.9,2.5-2.3c1.9-0.1,3.8,0.8,5.7,0c-0.2-1.3,0.3-2.6-1-3.7C751.9,673.2,748.7,674.3,745.6,673.4z M766.9,682.1
		c0.8,1.7-1.8,1.9-1.6,3.5c0.3,1.2,1,2.4,2.1,3.2c1.3-0.1,2-0.7,2.2-1.5c0.3-1.5-1.1-2.6,0.1-4C768.6,682.8,767.7,682.5,766.9,682.1
		c-1.2-1.3-3.5-1.3-4.2-3.1c0.9-0.7,1.7-0.4,2.5,0c5.2,2.7,10.6,4.2,16.5,4.2c2.6,0,4.8,0.9,5,4.2c2.4-1.3,3.1-2.1,2.8-3.9
		c-0.6-3.6-0.8-7.3-2.6-10.9c-4.1-1.8-8.7-2.9-12.5-5.8c-0.7-1.3-0.9-2.8-0.9-4.2c0-7.8,0.1-15.6,0.5-23.4
		c0.5-9.3,2.2-18.4,2.8-27.6c0.3-5.3,0.9-10.5,1.8-15.8c0.6-3.9,0.8-7.9-0.5-11.6c-1.7-5-0.8-10,0.1-14.8c1.1-6.4,1.6-12.8,2-19.2
		c0.3-4.6,0.7-9.3,2.3-13.6c2-5.5,3.2-11.2,5.2-16.7c2.1-6,1.3-12.2,1.8-18.4c-4.6,7.1-9.4,13.9-14.5,20.5
		c-5.1,6.6-11.7,12-17.4,18.2c0.2,5.5-0.5,11-0.1,16.5c0.3,3.4,0.3,6.8-0.5,10.2c-0.6,2.3-1.5,4.6-0.1,7c0.3,0.5-0.1,1.4-0.2,2.1
		c-1.8,8.7-1.8,17.5-1,26.2c0.6,6,1.5,12,1.7,18.1c0.3,10.3,1.3,20.7,1,31c-0.1,2.4,0.2,4.9,0.5,7.3c0.8,6.1,1.5,12.3,2.5,18.3
		c0.1,0.5,0.1,1-0.3,1.3c-1.2,0-1.1-2-2.8-1.6c-0.6,2-0.5,4,0.3,6.4C761.2,682.2,764.2,683.9,766.9,682.1z M859.6,434.4
		c-1.3-0.3-2.3-1.3-3.4-2.1c-3.1-2.3-6.3-4.5-9.7-6.5c-3.8-2.2-7.7-4.1-12.1-3c-1.4-1.1-0.9-2.5-0.9-3.6c0-1.1-0.8-2.1-0.3-3.3
		c1.4,1.2,1,3,2.1,4.3c0.8-0.1,1.7,0.1,2.1-1.1c-1.3-2.7-2.9-5.4-5.1-7.6c-11.4-1.3-18,4.4-20.6,18.5c1.5,1.1,1,3.1,2,5.5
		c1.1-3.1,0.1-5.7,1.2-8.2c1,1.5,1,3,1.5,5.1c0-7.1,1.2-13.1,6-17.8c-3.4,5.7-4.8,11.9-5.1,18.6c1.8-0.3,2.5-1.2,2.5-2.6
		c0-2.4,0.5-4.8,1.1-7.2c0.1-0.5-0.4-1.2,0.4-1.9c0.5-0.4,1.3-1,2.3-1c2.4,0.5,3.4,2.5,4.8,4.1c2-1.5,2.1-1.5,1.9-3.1
		c-0.3-2.8-0.4-5.7-2.3-8.9c2.1,0.9,2.7,2.1,3,3.3c0.4,1.5,0.6,3.1,0.9,4.6c1,4.9,0.3,9.9,0.7,14.8c0.1,2.2,0,4.5,0,7.4
		c-1.6-3.9-1.2-7.5-1.8-10.9c-1.9,3.6-0.6,7.6-1.2,11.6c-2-1.8-1-4.5-2.4-6.4c-1.1,3.4-0.9,6.7-1.4,9.9c-1.2-3.8-0.9-7.6-0.2-11.4
		c0.7-4.1,4-6.6,6.3-10.1c-2.9-0.2-3.4,1.7-3.9,2.9c-4.8,2.5-8.4,5.5-11.3,9.5c-1,0-1.4,0.9-1.8,1.6c-1.7,2.6-3.6,5.1-4.8,8.4
		c1,2.3,0.1,4.9-0.3,7.4c1,0.2,1.7,0.1,2.2-0.3c1-1.3,1.1-3.1,2.6-4c-0.3,2.9-1.3,5.6-2.8,7.8c-7.8-1-15.3,1.2-22.8-0.5
		c2.1,5.4,2,10.6,0.4,15.9c-0.2,0.7-0.6,1.4-0.7,2.1c-0.4,5.9-3.2,10.7-6.9,15c-4.7,5.6-8.2,12-11.7,18.5c-2.1,3.9-2.9,8.2-3.3,13.2
		c4-4,8.2-6.9,11.3-11.1c4.9-6.8,10.2-13.3,15.8-19.6c0.9-1,0-2.1,0.5-2.5c7.8-1.2,15.2-1,22.3,0.3c2.9,4.8,4.5,9.8,8.6,13.1
		c1.7-0.1,2.8-0.5,3.7-1.4c1.2-1.4,2.7-1.9,4.5-1.8c1.4,0.1,2.5-0.6,3-1.8c-0.3-2-3.6-1.8-2.6-4.5c2.5,0.7,3.1,3.6,5.6,4.2
		c1.2-0.6,2.1-1.7,3-2.7c0-1.1-1.1-2,0-2.9c2.3,1.7,3.7,4.7,6.8,5.7c0.9-3.1,2.3-5.8,3.7-8.5c1.9-3.7,4.4-6.5,8.9-6.5
		c1.7-2.6,3.9-4.5,6-6.5c2.2-2.1,4-4.6,5.9-7.3c-1.3-1,0.8-3.2-1.5-3.9c2.5-6.5,1-15.4-3.9-23.5c5,3.5,5.4,9.1,7.2,14.5
		c0.4-2.6,0.6-4.5,0.9-6.2c-1.9-5.5-5.3-9.7-9.6-13.3c-2.3-1.8-4.4-3.8-6.5-5.9c-4.3-4.3-9.7-6.1-15.4-7.6
		c5.2,3.4,10.6,6.7,15.1,11.1C859.8,434.2,859.7,434.3,859.6,434.4z M570.4,530.6c-5.7,3-11.2,5.8-17,8.1c-5.9,2.4-11.6,5-17.2,8
		c-4.8,2.6-9.3,5.7-14.3,7.9c-6.8,3-13.5,6.1-20.9,7.6c-0.5,0.1-1,0.1-1.4,0.4c-4.9,2.6-10.1,3.4-15.5,3.3
		c-3.9-0.1-7.8-0.1-11.5,1.3c-1.3,0.5-2.9,0.6-4.3,0.6c-8.4-0.3-16.4,1.3-24,4.8c-0.7,0.3-1.4,0.5-2.1,0.7
		c-5.5,1.6-10.5,4.4-15.4,7.4c-4.7,3-9.1,6.5-13.8,9.6c-9.7,6.4-19.8,12.4-30.2,17.8c-1.1,0.6-2.3,0.7-3.4,1.1
		c-7.6,2.4-15.1,5.4-22.9,7.5c0.3,3.9-0.7,7-3.2,9.6c-1.1,1.2-1.5,2.8-0.6,4.5c6.2,4.8,13.3,7,21,6.9c1.8-1.5,3.3-2.7,4.7-4.1
		c1.4-1.5,3.1-2.4,4.9-3.1c5.9-2.2,11.9-4.3,17.9-6.3c6.9-2.3,14-4.1,20.8-6.6c10.2-3.7,20.7-6.3,31.2-9.2
		c11.6-3.2,23.4-5.9,34.8-10c0.5-0.2,0.9-0.4,1.4-0.1c0.5,0.8-1,1-0.5,1.7c4.1,0.9,8,0,12-0.9c0.7-0.4,0.7-1.6,1.7-1.8
		c1.1-0.5,2.4,0.3,3.4-0.4c0-0.7-0.7-1.4,0.2-2.1c1.9-0.2,1.5,1.9,2.9,2.7c7,1.1,13.2-2.1,20-4c-0.9-1.1-2-0.2-2.5-0.9
		c0.1-0.6,0.6-0.6,1.1-0.8c4.7-1.7,9.7-2.3,14.7-2.7c4.6-0.4,9.3-0.2,13.8-1.2c10.4-2.4,20.9-4.8,31-8.4c5.1-1.8,10.2-3.9,15-6.2
		c-0.1-1-0.8-1.1-1.3-1.4C586.8,561.1,575.2,548.6,570.4,530.6z M737.1,434.2c-4.9-6.5-11.7-10.9-18.5-15.2
		c-6.9-4.4-14.5-7.4-21.6-11.5c-1.3-0.7-2.7-1.1-4.2-1.1c-2.2-0.1-4.4-0.3-6.6-0.5c-1.8-0.2-3.6-0.2-5.2,0.4
		c-1.8,3.7-1.9,7.4-1.8,11.2c0.2,3.9,0.2,7.8,0.2,11.7c0,5.5,0.5,10.9,0.7,16.4c0.6,11.8,3.4,23.1,7.2,34.2c1.5,4.5,1.7,9.1,2,13.7
		c0.1,1.7-0.2,3.4-0.8,5c-1.8,5.2-0.3,10.3,0.7,15.4c0.1,0.4,0.4,0.9,0.7,1.3c1.5,1.8,2.6,3.8,3.8,5.8c0.7,1.3,1.6,2.3,3.4,2.3
		c0.3-2-1.6-3.4-1-5.5c3,1.2,2.2,4.5,4,6.2c1,0.3,2.1,0.9,3.4,0.7c0.2-3-2.2-5.2-1.7-8.5c2.7,2.5,2.7,5.8,3.9,8.5
		c1.4,0.9,2.9,1.5,4.8,0.6c-0.4-1.7-0.7-3.2-1-4.7c-0.3-1.5-1-3.1,0.1-5.4c1.8,3.7,2.4,7,3.3,10.3c1.7,0,3.2,0,4.7,0
		c0.7-0.6,1.1-1.2,1.3-2c-1.8-4.9-3.5-9.8-2.1-15.5c1.5,1.1,0.5,2.7,1.7,3.6c1.3,0.2,2.7,0.1,4.2-0.2c0.7-2.1,1.4-4.3,2.2-6.6
		c4.2,0,8.3,0.4,12.4,1.4c2.6,0.6,3.9,2,4.2,4.7c0.4,5.4-0.1,10.7-1.4,15.9c-0.4,1.7-0.4,3.7-1.9,5.2c-1.7,1-3.9,0.9-5.8,1.4
		c-2.1,0.6-4.2-0.6-6.3-0.5c-0.6,1.7,0.4,2.3,1.2,3.1c2.3,2.3,5.2,3.4,8.1,4.6c6.9,2.9,13.1,1.4,19-2.4c5.2-3.3,9.1-8,12.8-12.8
		c-0.4-0.8-1.4-0.2-1.9-1.1c-1.3-2.6-0.7-5.6,0.2-8.3c3.3-9.3,6.9-18.5,13.6-26c4.7-5.3,7.4-11.4,8.5-18.2c0.8-5,1.5-9.9-2-14.4
		c-1-0.4-2-1.1-3.4-0.8c0.3,0.6,0.5,1,0.8,1.4c4.3,6.8,4.1,13.5-0.5,20.1c-0.8,1.2-1.8,2.3-2.8,3.4c-0.8,0.9-1.4,1.9-2.1,3
		c-4.7,7.6-11.6,12.3-20.2,14.5c-0.9,0.2-2.2,0.5-2.9,0.1c-2.7-1.6-5.9-1.5-8.8-2.1c-8.5-1.7-14.9-6.4-20.1-13
		c-0.4-0.6-1-1.2-1.1-1.9c-0.5-5.1-1.9-10.1-0.8-15.2c0.4-2.1,1.3-4.2,1.1-6.3c-0.7-0.8-1.3-1.6-2.4-1.9c-6.4,4-11.9,9.1-18.2,13.4
		c0.1,1.9,0.2,3.6,0.4,5.3c0.4,4,1.1,8,1.3,12c0.2,4.1,1.8,7.2,4.8,9.8c2.4,2.1,5.1,3.7,7.9,5.2c2.5,1.4,3.4,3.3,2.7,5.7
		c-1.9-0.4-1.7-2.6-3-3.5c-1.5-0.8-3.2-1.6-4.7-2.6c-5.7-3.7-9.8-8.3-9.9-15.6c0-2.1-0.4-4.1-0.6-6.2c-0.8-7.3-2-14.5-1-21.8
		c0.3-2.5,1-5,1-7.6c0-3.7,0.4-7.3,1.5-10.8c1.5-5,2.1-10,0.5-15.1c-0.1-0.3,0.1-0.7,0.4-1.7c3.5,5,2.4,10.2,2.3,15.2
		c3.1,4,6.5,7.8,10.7,10.8c7.5,5.4,12.3,13,17.3,20.5c1.1,1.7,1,1.8,1,4c-2.7-5.2-6.5-9.3-10.2-13.6c-1.9,4.3-1.9,7,0,20.1
		c5.7,7.2,13.2,11.3,21.9,13.8c4.6,1.3,8.8,1.1,13.1-0.8c8.2-3.6,14.3-9.5,18.8-17.2c4.5-7.7,4.5-15.2-1.3-22.5
		c-2.3-0.7-4.8-1.3-7.1-1.3c-3.7-2.6-7-5.3-10.8-7.4c-4-2.1-8.1-4-12.1-6c-0.4-0.2-0.9-0.6-1.3-0.5c-1.9,0.4-3-0.9-4.2-1.8
		c-1.5-1.1-2.9-2.2-4.2-3.5C738.9,434,738,434.2,737.1,434.2z M603.7,572.9c9.3-4,18-8.3,25.6-14.5c2.3-1.9,4.8-3.3,6.4-4
		c7.2-0.4,11.8-4.1,16.9-6.4c-0.1-16.5-4.3-39.6-12.8-55.6c-9.1-2-18.5-3.9-28.2-3.1c-1.7,0.1-3.4,0.7-4.9,1.3
		c-8.9,3.5-16.8,8.3-22.8,15.8c-2.5,3.1-5,6.3-7.4,9.5c-1.4,1.8-2.6,3.7-4.8,4.8c-1.1,0.6-2,1.7-2.4,3.1c0.8,1.1,0.7,2.6,1.8,3.5
		c2-1,3.9-1.9,6.4-3.1c-1.2,2.9-4.2,3.3-5.3,5.5c0.8,2.6,1.7,5.1,2.9,7.5c1.4,3,3.1,5.8,4.9,8.5
		C586.8,555.7,595.5,563.9,603.7,572.9z M320.9,624.9c-0.5,1.5,0.2,2.9,0.6,4.2c1,3.6,2.3,7.2,3,10.9c0.8,3.9,2.8,6.7,6.1,8.6
		c4.3,2.4,6.9,6,7.7,10.9c0.8,4.7,1.5,9.4,2.2,14.1c0.1,0.4,0.2,0.9-0.5,1c-1-1.1-0.6-2.9-2-3.8c0.6,7.8,3,12.6,7,14.6
		c0.4-0.3,0.4-0.9,0.4-0.9c8.1,4.8,16.1,8.3,25.3,8.6c2.1-3.2,5.3-5.5,5.6-9.7c-2.7-2.4-5.3-4.6-8-7c0.2-1.4-1.6-2.5-1.6-4
		c0.8-1,1.5,0.4,2.4-0.6c0.1-2-2.2-3.7-1.5-5.9c-2.9-0.5-2.9-0.5-4.2-2c0.5-1.7,2-2,3.4-2.3c1.2-0.2,1.9-0.7,1.7-2.1
		c-5.2-0.2-6.2-1.2-4.7-4.4c2.2-0.7,4.5-0.2,6.8-0.4c0.7-0.5,0.9-1.2,1.2-1.9c0.1-0.3,0-0.5-0.3-0.6c-6,1.2-7.3,0.9-8.7-2.5
		c3.5-1.5,7.3-1.2,11-1.4c2-2.8,4.1-5.4,5.2-8.7c0.1-0.3,0.1-0.7-0.3-1c-0.9,0.4-1.7,0.8-2.8,1.2c-1.7-1-3.6-1.1-5.6-0.5
		c-1.3,0.4-2.7,0.1-4-0.1c-3.7-0.5-7-1.9-10.1-4c-1-0.6-1.8-1.8-3.2-0.9c-0.5-0.4-0.9-0.8-1.4-1.2c-2.7-2.5-3.1-5-1.2-8.1
		c0.5-0.8,1.1-1.6,1.7-2.4c1.1-1.6,1.8-3.4,1.1-5.2c-0.5-1.2-0.2-2.4-1-3.7c-0.6-0.4-1.4-1.2-2.8-1.3c-4.8,2.6-10.4,3.8-14.6,7.8
		c-0.8,0.8-2.2,1.2-3.3,1.4C328,622.5,324.5,623.7,320.9,624.9z M642.6,492.7c1,2.1,1.7,3.7,2.5,5.3c3.1,6.3,5.3,12.8,6.5,19.7
		c1.5,8.5,3,17,2.9,25.8c0,1-0.5,2.2,0.7,2.9c4.9-2.6,10.1-4.6,13.6-9.1c0.2-0.3,0.4-0.3,0.5,0c0.2,1.1-1.4,1.6-0.9,3
		c5.6-2.7,11.4-4.6,17.3-7c0.8,1.3,2,0.6,3.2,0.3c5.5-1.3,10.9-2.4,16.5-2.9c2.4-0.2,5.1-0.2,7.1-2.2c2.8,1.3,5.6,0.8,7.6-0.8
		c1.1-0.9,2,0.4,2.8-0.4c-0.3-1.3-0.3-2.7-1-3.8c-0.5,0.1-0.9,0.1-1.2,0.3c-0.5,0.2-0.7,0.6-0.8,1.1c-0.5,2.4-2.1,3-4.3,3
		c-1.4,0-2.9,0.2-4-0.6c-3.5,1.7-4.4,1.5-7.8-1.5c-2.5,2.2-4.6-0.8-7.1-0.6c-2.9,0.2-4.1-2.6-5.8-4.6c-0.9,0.7-2,0.1-2.9,0.5
		c-0.7,2.1-1.3,4.1-1.3,6.6c-5,2.1-9.8,0.1-14.4-0.1c-3.7-7.1-3.4-20.4,0.4-27.1c4.3-2.3,9,0.2,14-1.2c1.1-5.2-0.6-10.5-1.3-15.8
		c-2.8,1-5.1,2.3-7.5,3.6c-4.6,2.4-9.4,4.5-14.4,6.2c-3.2,1.1-6.5,1.5-9.7,0.4C650.4,492.4,646.8,492.8,642.6,492.7z M363.8,611.7
		c12-4.1,22.9-9,32.8-15.7c15.3-10.5,31.1-19.9,48.3-26.8c5.5-2.2,11-3.9,17-3.9c2.3,0,4.6-0.3,6.9-0.5c6.2-0.4,12.3-1.6,18.5-1.3
		c4,0.2,8-0.8,11.8-2.2c4.4-1.7,9-3.1,13.4-4.8c5.4-2.1,11-4.2,15.8-7.5c8.8-6,18.1-10.9,28-14.7c4.4-1.7,8.7-3.8,13-5.7
		c-0.9-1.6-1.7-2.8-2.5-4.1c-3.7,1.6-7,3.5-10.3,5.2c-6.5,3.4-12.9,6.7-19.5,9.9c-3.1,1.5-6.4,2.3-9.5,3.7
		c-5.1,2.4-10.2,4.5-15.5,6.5c-2.2,0.8-4.4,1.5-6.4,2.7c-4.2,2.7-8.9,3.4-13.6,3.8c-9.5,0.8-18.9,2-28.2,3.8
		c-10.7,2-21.1,4.8-30.6,10.3c-6.3,3.7-12.6,7.4-18.6,11.5c-5.2,3.6-10.6,7.1-16.6,9.5c-8.6,3.4-17,7.4-25.6,10.6
		c-2.4,0.9-4.8,1.6-7,3.2C364.5,607,364.2,609,363.8,611.7z M375.3,651c-1.7,4-3.1,7.3-4.5,10.5c0.3,0.7,0.7,1.3,1,1.9
		c-1.3,3.4-0.8,7.7,1.2,11.5c7.9,2.4,12.9,2.6,17.2,0.4c-0.6-3.5,3.4-7,0.6-10.6c-3.2-1.3-5.9-2.5-8.8-3.6c-2.9-1.2-4.7-3.4-5.6-6.3
		C376,653.8,375.8,652.8,375.3,651z M331.5,619.8c6.4-4.3,13-7.1,19.5-9.5c2.8,0.5,3.9,2.4,5.1,4.3c1.8-0.9,3.7-1,5.2-2.4
		c0.1-3.7,1.6-7.1,2.7-10.9c-4.4,1.8-8.6,2.6-12.1,5.2c-1.3,1-3,1.1-4.6,0.8c-5.7-1.3-11,0.9-16.6,1.4
		C330.1,612.3,329.8,615.8,331.5,619.8z M725.8,517.3c3.3-2.7,6.7-1,10.1-0.5c0-2.8,0.9-5.5,1.6-8.4c-3.6-0.6-7.2-1.1-10.8-1.7
		c-3.5,7.6-1.8,15.1-1,22.5c3.8,2.5,7.6,2.4,11.2-0.3c-1.3-3.1-1.2-6.6-1.4-10c-1.7,0.3-2.5,1.8-4,1.9c-1.3,0-1.6-1.5-2.7-1.6
		C727.6,519.2,726.6,519,725.8,517.3z M707.4,442.9c-1.8,8.5-3.1,16.6-2.5,25.3c5.8-3.9,11.2-7.4,16.7-11.1
		C716.5,452.7,711.7,448.3,707.4,442.9z M794.5,690.5c2.2,0.1,4,0.3,5.8,0.4c1.8,0.1,3.6-0.2,5.5-1.2c-0.5-5,0.2-10-1.9-15
		c-3.2,1.4-6.3,0.8-9.3,1.2c0,1.5-0.3,2.8,0.5,4.2c1.4,0.1,2.8,0.2,3.5,1.7c2.1-1.3,2.9-0.2,4.2,1.7c-1.8,0-3.1,0.2-4.4-0.1
		c-1.4-0.3-2.6-0.4-3.6,0.8C794.8,686.2,794.7,688.2,794.5,690.5z M672.6,510.6c3.1,0,6.1-0.1,8.7,2.4c0.4-3.8,1-7.2,2-10.7
		c-3.2-0.7-6.2-0.5-9.1-1.3C673,504.1,672.8,506.9,672.6,510.6z M673.1,515.4c-0.1,3.3,0.1,6.4,1,9.6c2.8,0.5,5.5,1.1,8.5,0.6
		c-1.1-3.5-1.3-7-1.4-10.6c0-0.2-0.2-0.3-0.4-0.5c-1,0.5-1.7,1.6-3.1,1.6C676.5,515.6,674.9,515.7,673.1,515.4z M689.6,519.1
		c-2.6-3-0.8-7.2-4.2-9.2c1.5-2.6,1.4-3.3-0.8-5.9c-1.1,4.8-1.1,9.4-0.1,14.4C686,518,687.3,518.7,689.6,519.1z M722.2,522
		c-0.1-3.3,0.1-5.9,0.4-8.5c-1.6-0.2-2.8-0.4-4.5-0.7C719.1,516.1,718,519.8,722.2,522z M823.7,518.7c-0.3-5.2-1.8-10.2-2.2-15.4
		c0-0.5-0.1-0.5-1.9-1.7C820.6,507.5,820.9,513.4,823.7,518.7z M739.6,509c-2,5.4-2.2,12.9-0.6,16.2
		C739,519.9,740.3,514.9,739.6,509z M817.1,505.1c0.4-1.8-0.1-3.2-0.1-4.6c0.5-0.8,1.5-1.4,1-3.1c-1.5-1.1-1.1-3.9-3.3-5.4
		C816.3,496,814.9,500.7,817.1,505.1z M821.7,423.9c0,2.3,0,4.4,0,7c1.8-1.5,2.9-3,3.8-4.4c-0.1-1.3-0.5-2.1-1.2-2.8
		C823.5,423.8,822.8,423.8,821.7,423.9z M774,688.9c-0.1-1.3,1.5-2.3,0.6-4c-1.1-0.5-2.4-0.8-4.8-0.9c2.4,1.4,1.8,3.2,2.1,4.6
		C772.5,688.8,772.9,689.1,774,688.9z M812.3,498.1c1-3.4,1-3.4,0.3-6.4c-1.2-0.2-2,0.2-2,1.4C810.7,494.7,810.4,496.5,812.3,498.1z
		 M790.4,680c0.6,1.8,1.1,3.8,1.9,6.2c0.9-3.5,0.9-4.1,0.1-7.1C791.6,678.9,791,679.2,790.4,680z M876.6,459.9c1.7-4,1.6-4.3,0-7.4
		C876.6,455.1,876.6,457.5,876.6,459.9z M684.2,519.7c0.3,1.6,0.6,2.9,0.9,4.5c1-1.2,1.5-2.2,1.3-3.4
		C685.9,520.1,685.4,519.8,684.2,519.7z"/>
	<path d="M839,189c-1.7-0.8-3-2-4.3-3.2c-1.8,0.2-2.4,1.7-3.5,2.6c-1,0.6-2,0.2-3.1-0.1c-1.3,2.1-3,3.5-6.1,2.3
		c-0.9,4.1,0,8.2-2.2,12.3c0-3.6,0.9-6.6,0.4-9.7c-0.9,0.1-1.4,0.6-2.2,1.4c0.6,6,1,12.3-0.4,18.9c-0.4-6.5-0.8-12.7-1.2-18.5
		c-0.9-1.3-1.8-1.4-2.9-1.4c-0.1,2.6,0.9,4.8,1.1,7.2c0.2,2.4,1,4.9,0.8,7.2c-0.2,2.3,2.2,4.4,0.4,6.9c-2.7-0.7-3.8-2.8-4.7-4.9
		c-2.5-5.6-4.6-11.3-5.7-17.3c-0.3-1.4-0.5-2.9-0.9-4.7c-1.5,3.5-1.3,6.8-1.1,10.1c0.2,3.2,1.3,6.4,1.3,9.6
		c-1.5,0.2-1.7-0.8-1.8-1.6c-1.4-7-3.6-13.9-3.1-21.2c0.1-1.2,0-2.4-0.4-3.4c-5.6-2-11-0.7-16.6,0.1c0.2,3.2,0.3,6.6,0,10
		c-0.3,3.8-1.1,7.5-2.7,10.9c-2.4,4.8-4.8,9.6-7.3,14.3c-0.8,1.6-1,3.1-1.1,4.9c-0.4,7.8,0.5,15.6-0.4,23.3
		c-0.5,4.5-1.5,8.9-3.3,13.1c-1.7,3.9-1.6,7.8-0.8,11.8c0.4,1.8,0.7,3.6,1.2,5.3c1.9,6.8,1.1,13.5-0.4,20.2c-0.5,2.4-1.3,4.7-2.2,7
		c-2.6,6.5-4.1,13.2-4.6,20.2c-0.5,8.4-1.5,16.7-2.2,25.1c-0.1,0.8-0.4,1.7,0.4,2.7c1.1,0.4,2.5,0.4,3.8,0.3
		c0.9-1.3-0.1-2.6,1.1-4.1c3.5-0.6,7.5,0.6,11.7-0.4c3,6,2.7,12.2,2.4,18.3c-4.9,2-9.5,2.1-14.5,0.6c-0.5-1-0.1-2.6-0.2-4.4
		c-2.2,0.6-3.8,1.7-4.9,3.5c2.9,3.1,7,4.3,10.7,5.9c4.9,2.1,7.4,5.3,6.8,10.7c-0.2,1.5,0.6,3.1-0.7,4.3c0.6,0.7,1.2,0.8,2.2,0.3
		c-0.3-5.1,0.6-10.4,0.9-15.9c4.5-0.8,9.1,1.1,13.2-1c1.8,0.4,2.6,1.6,2.9,3.1c1,6.3,1.7,12.6,0.5,18.9c-0.1,0.3-0.3,0.6-0.5,0.9
		c-5.5,1.2-11,1.6-16.5,0.3c-0.5-1.9,0.1-3.6-0.8-5.2c-1.1-0.3-1.6,0.3-2.1,1.1c-1.5,2.4-3.8,3.3-6.6,3.1c-2.3-0.2-4.6,0.6-6.8-0.4
		c-3.5,2.1-7-1.1-10.5-0.2c-1.4,0.4-2.4-1-2.9-2c-2.4-0.2-4.6-0.3-6.6-0.5c-1.1,1.3,0,2.4-0.2,4c-5.6,1.1-11,0.7-16.3-1.1
		c-1.7-11.3-1.5-15.6,0.6-20.5c3.2-2.4,6.9-2,10.7-2.1c0-4,0-8,0-12.2c-0.8-0.5-1.7-1.1-2.5-1.8c-2.8-2.3-4.7-4.9-5-8.9
		c-0.2-3.2-1.3-6.4-1.4-9.6c-0.2-3.4-0.3-6.8-0.4-10.2c-0.3-9-0.9-18-1.1-27c-0.2-7.1-0.6-14.1-1.8-21.1c-1.1-6.9-0.9-13.8-0.4-20.8
		c0.6-8.2,1.5-16.2,3.1-24.3c0.2-1.2,0.5-2.4,0.8-3.8c-1.7-0.9-3.4-1.7-5.1-2.7c-1.6-0.9-3-2-4.9-2.5c-2.4-0.6-3.7-2.6-5.2-4.5
		c-4.7,1.5-9.4,2.6-14.3,3.4c-7.4,1.2-14.9,2.7-22.4,3.3c-1.9,0.1-3.6,0.6-5.2,1.4c-4.6,2.2-9.2,4.6-13.9,6.5
		c-5.3,2.1-10.4,4.7-15.3,7.6c-3.5,2-7.3,3.2-11.4,3.8c-3.1,0.4-5.8,1.3-7.7,4.2c-0.8,1.3-2.4,2.1-3.7,3
		c-6.3,4.4-12.8,8.5-19.7,11.9c-5.1,2.5-10.6,4.3-16,6.1c-6.5,2.1-13,4-19.7,5.5c-1.2,0.3-2.4,0.5-3.5,1c-5.3,2.6-11,2.7-16.7,3.3
		c-7.5,0.8-15.1,0.7-22.6,2.9c-2.5,2.9-6.3,3.3-9.9,4.3c-1.2,0.3-2.3,0.4-3.3,1.3c-0.8,0.7-2,0.8-3.1,1c-4.8,0.6-9.6,1-14.4,2.2
		c-3.8,0.9-7.8,0.2-11.6-0.1c-1.1-0.1-1.6-1.1-2.5-1.5c-3.2,1.2-6.4,2.3-9.4,3.9c-4.3,2.2-8.9,3.3-13.6,4.2
		c-14.2,2.9-27.9,7.6-41.7,12c-11,3.6-21.9,7.6-33.1,10.3c-3.2,0.8-5.7,1.9-7.8,4.7c1.7,2.1,1.4,4.5,0.3,7c-1,2.2-2.5,4.2-3.6,6.2
		c2.6,10.6,4.6,9.4,11.8,12.1c4.9,1.8,6.6,4.3,5.2,9.4c-0.5,1.9-1,3.8-1.4,5.5c-3.2,3.5-7.6,3.7-17.1,2.4c0.9,1.8,3.2,2.3,4,4.4
		c-0.3,5.9-3.9,9.5-9,12.1c-1.2,0.6-2.6,0.5-4,0.4c-3.6-0.2-7-1.1-10.2-2.5c-3.3-1.5-6.7-2.9-10.2-4.1c-4.3-1.4-6.8-4.4-8.3-8.6
		c-1.3-4-1.9-8.1-1.4-12.2c0.4-3.7-0.4-7.3-1.4-10.8c-0.6-2.2-1.8-3.8-4-4.9c-4.4-2.3-6.3-6.5-7.6-11c-1-3.6-1.9-7.3-2.8-11
		c-0.6-2.2-0.4-4.5-1.6-6.9c3-1.6,6.3-2,9.5-3.3c-1-3.4-1.2-6.8-0.2-10.2c0.9-3,1.7-3.7,4.8-4.1c1.4-0.2,2.9-0.3,4.3-0.7
		c2.5-0.7,5.1-0.8,7.6-0.3c3.2,0.6,6.3,0.6,9-1.5c0.5-0.4,1.1-0.6,1.7-0.8c4-1.3,8.2-2.2,11.7-4.7c1.3,1.8-0.9,2.7-0.2,4.2
		c4.3-1.8,8.7-3.6,13-5.4c8.9-3.6,18-6.8,26.3-11.8c1.8-1.1,3.5-2.2,5.2-3.4c9.3-6.6,19-12.5,29.6-17c4.7-2,9.6-3.5,14.6-4.4
		c3.7-0.7,7.3-2,10.9-2.9c6.1-1.4,12.3-2,18.5-2.2c5.2-0.2,10.1-1.4,15.1-2.4c0.7-0.1,1.4-0.4,2-0.8c3.7-2.4,7.9-3.8,12-5.2
		c3.2-1.1,6.4-2.2,9.3-4.2c0.5-0.3,1.1-0.6,1.6-0.8c14.1-5.1,27.1-12.8,40.9-18.5c4.6-1.9,8.3-5.4,10.5-10.2
		c0.6-1.3,1.3-2.6,2.1-3.8c7.4-10,16.9-17.2,28.6-21.2c2.9-1,6-1,9-0.9c7.4,0.2,14.8,1,22,3c1.7,0.5,3.3,0.7,5,0.9
		c3.4,0.3,6.8,0.2,10.2,0.8c2.9,0.6,5.8-0.1,8.6-0.9c7.1-2.2,14-5,20.6-8.4c2.7-1.4,5-3.4,7.6-4.9c10-5.9,19.6-12.3,29.3-18.6
		c3.7-2.4,7.6-4.3,11.5-6.3c2.7-1.4,5.7-2.1,8.8-2.3c6.9-0.4,13.9-0.6,20.7,0.5c8.7,1.5,17.7,1.9,26.1,4.8c6.9,2.4,13.6,2.3,20.5,1
		c0.8-1.3,0.5-2.8,0.7-4.2c0.2-1.7,0.1-3.5,0.7-5.1c1.7-4.5,1.8-9,1.5-13.7c-0.4-6.3,1.9-12.2,5.3-17.2c3.6-5.2,9.2-7.9,15.9-7.1
		c1.2,0.1,2.3,0.6,3.1,1.6c2.4,3.1,4.8,6.2,5.5,10c7.9,0,15,2.2,21.3,6.9c4.4,3.3,8,7.5,11.6,11.6c4.9,5.6,6.4,12.3,6.1,19.5
		c-0.1,1.5-0.2,2.9-0.3,4.4c-0.1,1.4-0.5,2.6-1.2,3.8c-3.5,5.9-7.7,11.2-12.8,15.8c-1.1,1-2.5,1.5-3.9,1.8c-2,0.4-3.4,1.6-4.6,3.3
		c-2.2,3-3.5,6.4-5.3,9.5C840.7,187.8,840.4,188.8,839,189z M805,141.1L805,141.1c-0.5,2.6-1.3,5-2.8,7.3c-0.8-0.3-1.6-0.9-2.1-0.7
		c-3.8,1.3-7.8,0-11.6,0.6c-3.4,0.5-6.8,0.5-10.1-1.3c0.2,1,0.8,1.2,1.3,1.4c2.9,1.6,4.2,4.3,4.8,7.4c0.6,3.1,0.8,6.3,0.7,9.5
		c0,4.5-0.8,8.9-1.1,13.3c1.6,0.5,3,0.6,4.5,0.2c5.8-1.2,11.5-0.2,17.3,0.3c1,0.1,1.7,0.8,2.2,1.8c0.8,1.6,1.6,3.3,2.5,4.9
		c1.6,2.6,2.8,5.4,5.5,6.9c1.4-0.3,2.6-0.5,3.5-1.5c1.2-1.4,2.6-2,4.5-1.8c1.4,0.1,2.5-0.5,2.9-1.8c-0.5-1.8-3.3-1.8-2.7-4.2
		c2.8,0.2,3.2,3.8,6,3.9c1-0.7,2-1.6,2.7-2.6c0.1-1-1.2-2,0.1-2.9c2,2,3.7,4.5,6.7,5.9c0.8-2.9,2-5.4,3.3-7.8c2-4,4.4-7.4,9.2-7.3
		c3.9-5,9-8.4,12-14c-1.5-0.9,0.8-3.2-1.6-4c1.5-2.3,1.4-4.8,1.3-7.2c-0.2-4-1.1-8-2.7-11.7c-0.3-0.6-1.2-1.3-0.3-2.3
		c3.2,3.2,3.4,7.7,5,12.3c0.4-2.6,0.6-4.5,0.9-6.1c-1.7-4.6-4.2-8.4-7.8-11.5c-2.8-2.4-5.5-4.8-8.1-7.4c-2.2-2.2-4.7-3.8-7.5-5.1
		c-2.6-1.2-5.2-2.5-8.1-2.5c5.8,3.4,11.2,7.3,16.1,11.9c-1.5-0.5-2.8-1.3-4.1-2.3c-3.4-2.5-6.9-5-10.6-7.1c-3.7-2.1-7.5-3.9-12-2.8
		c-1.5-2.2-0.3-4.6-1.8-7.3c2.1,1.6,1.7,3.5,2.7,4.7c0.8,0,1.5,0,2.1-0.9c-1.1-3-3-5.6-5.3-8.1c-1.4,0-2.7-0.2-4,0
		c-5.8,1-10.7,3.1-13.2,9c-1.3,3-2.5,6.1-3.1,9.8c1.8,0.9,0.9,3.1,1.7,4.9c1.6-1.1,0.8-2.4,0.9-3.5c0.2-1.2-0.3-2.5,0.6-3.6
		c1,1.1,0.8,2.6,1.4,4.1c0-6.8,1.3-12.7,6-17.4c-4.1,8.7-5.6,14.7-4.5,18.7c1-0.3,1.9-0.9,1.9-2c0-3.2,1-6.2,1.2-9.4
		c0.8-0.5,1.6-1.4,2.8-1.2c2.4,0.4,3.3,2.7,4.8,4.2c2.9-1.5,1.5-3.8,1.5-5.8c0-2.2-0.8-4.2-2.3-6.4c2.1,0.7,2.8,1.9,3.2,3.2
		c1.2,3.6,1.4,7.4,1.6,11.1c0.1,2.6,0,5.3,0.1,8c0,2.4,0,4.8,0,7.8c-1.6-3.6-1.1-7.1-1.9-10.3c-1.5,4.5-0.9,9-0.2,13.6
		c-2.1-2.6-2.1-5.7-3.1-9.1c-1.3,3.8-1,7.2-1.5,10.5c-0.8-2.6-1.1-5.1-0.8-7.8c0.3-2.7,0.8-5.3,2.1-7.7c1.2-2.3,3.6-3.7,4.7-6.4
		c-2.7,0.1-3.5,1.7-3.9,3c-8.4,4.8-14.3,11.1-18,19.5c1,2.6,0.1,5.1-0.3,7.5c1,0.4,1.7-0.1,2.3-0.7C803.8,143.5,803,141.3,805,141.1
		z M739.1,195.8c0.6,3,3.4,3.6,5.6,5.4c0.6-3,1.1-5.7,1.7-8.7C743.8,193.9,741.8,195.7,739.1,195.8c2.1-2.2,5.2-3.2,7.4-5.7
		c0.2-1.5-0.4-3.4,0.9-5c1.4,2.2,0.5,4.4,0.4,6.5c-0.1,6-0.7,11.9-2.2,17.7c-3,12.3-4.4,24.7-3.7,37.3c0.4,7.4-0.3,14.8,0.4,22.2
		c0.4,4.5-0.5,9.2-1.4,13.8c-1.4,6.4-2.3,13-2.7,19.5c-0.9,14.6-1,29.2,0.5,43.8c0.2,2.4,0.5,4.9,0.1,7.3c-0.8,4.1-0.4,8.3-0.5,12.4
		c-0.1,3.2,1.1,5.6,3.6,7.6c2.8,2.2,5.2,4.8,6.8,8c0.6,1.2,1.5,1.2,2.4,1.8c-0.4,1.4-0.7,2.8-1.1,4.1c1.5,1.6,1.5,1.6,3.7,1.7
		c1.3-2.6,1.4-5.7,4.4-8.2c-0.4,3.4-2.7,5.6-2.3,8.8c1.7,0.2,3.3,0.4,4.6-0.4c1.3-2.6,0.4-5.6,2.9-8.2c0.3,3.4-1.1,6-0.9,8.8
		c1.5,0,2.6,0,3.7,0c1.7-9,1.7-9,3.3-10.3c-0.2,3.8-2.4,7.5-0.3,11.8c1.5-1.7,3.4-2.4,4.4-4.1c0-2.9-0.4-5.9,0.3-8.6
		c-0.4-2.4-1.9-3.7-3.8-4.8c-2.7-1.5-5.3-3-7.8-4.7c-2.7-1.9-5.3-3.8-8.8-3.8c-0.1,0-0.2-0.4-0.3-0.6c1.3-1.1,3.1,0.1,4.6-0.8
		c-1-2.4-1.1-5-1.4-7.5c-0.3-2.7-0.4-5.3-0.2-8c0.3-3.1,0.9-6.3,0.8-9.5c-0.2-10.6,1.3-20.8,4.4-30.9c0.4-1.4,1-2.7,1.5-4.1
		c2.6-6.8,5.5-13.6,3.4-21.2c-0.6-2.1-0.6-4.3-0.8-6.5c-0.9-8.2-0.8-16.3,1.1-24.3c0.8-3.6,1.7-7.1,1.8-10.8
		c0.1-4.1,0.3-8.3,0.8-12.4c0.3-3,0.2-6.1,0.9-9c1.5-5.8,4-11.2,6.7-16.5c3.1-6.1,4.3-12.6,3.8-19.5c-0.3-4.7-1.7-9.3-1.5-14
		c0-0.5-0.2-1-0.2-1.4c-0.8-5.4-2.6-10.4-6.4-15c-4.2-2.1-9.2-3.1-14.4-3c-7.2,0.2-14.2,1.6-20.4,5.8c0.1,0.5,0.1,1.1,0.2,1.7
		c-3.4,2.1-5.3,5.3-6.6,8.9c-1.4,3.7-1.6,7.6-1.2,11.5c0.6,5.5,2,10.8,5.2,15.4C736.3,194.6,737.1,196.2,739.1,195.8z M560.9,220.1
		c-5,2.7-10,5.1-15,7.3c-8.8,3.9-17.5,7.6-25.7,12.8c-5.5,3.5-11.7,6-17.8,8.3c-3.9,1.5-8.1,2-11.9,3.5c-5.4,2.2-10.8,3.5-16.6,3.2
		c-3.6-0.2-7,0.1-10.4,1.3c-1.7,0.6-3.6,0.8-5.4,0.7c-7.7-0.4-15,1-22,4.2c-1.7,0.8-3.4,1.2-5.2,1.8c-4,1.4-7.9,3.3-11.5,5.6
		c-5.1,3.3-10.3,6.5-15.1,10.3c-4.9,4-10.8,6.6-16.2,9.9c-7.1,4.4-14.2,8.7-22.5,11c-5.1,1.4-10.1,3.6-15.3,5
		c-1.1,0.3-2.4,0.4-3.4,1.6c0.3,3.4-0.8,6.5-3.3,9.1c-1.1,1.1-1.4,2.6-0.8,4.3c6,5,13.3,7,21.1,7.3c1.7-1.5,3.3-2.8,4.8-4.2
		c1.3-1.4,2.9-2.3,4.6-2.9c4.9-1.9,9.8-3.7,14.8-5.3c11.1-3.7,22.1-7.4,33.3-10.8c9.9-3,19.9-5.6,29.9-8.2
		c8.6-2.2,17.1-4.5,25.4-7.4c1-0.3,1.9-1.1,3.1-0.5c-0.2,0.4-0.4,0.8-0.8,1.4c2,0.2,3.8,0.6,5.6,0.4c2.3-0.2,4.5-0.9,6.9-1.4
		c0.3-0.7,0.6-1.5,1.6-1.8c0.9-0.5,2.2,0.3,3-0.6c-0.1-0.7-0.3-1.5,0.6-1.7c1.6,0.2,1.3,2,2.2,2.6c4.8,1.4,13.9-1.6,19.8-3.9
		c0.1,0,0.1-0.4,0.2-0.6c-0.8-0.5-1.6,0.7-2.5-0.1c0-0.4,0.3-1.1-0.8-1.5c-3.5-1.1-7.6-0.7-12-2.2c7.8-0.5,12,0.3,14.4,2.5
		c1.8-0.4,3.6-0.9,5.3-1.3c4.5-0.9,9.2-1.2,13.8-1.6c3.4-0.3,6.9-0.2,10.2-1c8.8-2.3,17.8-4.2,26.5-7.1c6.3-2.1,12.5-4.6,18.5-7.5
		c-0.6-1.1-1.6-1.4-2.3-2C576.9,249.9,565.4,237.8,560.9,220.1z M630.5,182c-8.2-2.2-16.7-3.4-25.4-3.4c-2.5,0-5.1,0.4-7.5,1.4
		c-8.6,3.4-16.5,7.9-22.4,15.2c-2.6,3.2-5.1,6.5-7.7,9.7c-1.6,2-2.7,4.3-5.2,5.4c-1.1,0.5-1.8,1.6-2.3,2.9c0.5,1.2,1,2.4,1.6,3.7
		c2.1-1,4.1-2,6.8-3.2c-1.5,2.8-4.1,3.4-5.5,5.4c1.9,7,5.5,13.2,9.7,19c6.4,8.7,14.1,16.1,21.4,24c0.1,0.2,0.4,0.2,0.7,0.2
		c9.2-4,18.2-8.6,26.1-15c2.5-2,5.2-4.5,9-3.5c4.8-1.7,9.3-4,13.6-6.5C642.2,218.1,639.3,199.7,630.5,182z M713.8,216.2
		c3.1,4.7,3.1,4.8,5,5.5c3.9,1.6,7.9,3.1,12,4.2c3.6,1,6.7,0.2,9.5-2c1.3-6.8,2.6-13.4,3.9-20.3c-3.8-1.5-6.9-3.8-9.1-7.1
		c-1.9-3-3.8-6-5.4-9.1c-3.9-7.9-4.4-15.9-0.3-23.9c1.2-2.4,2.6-4.7,4-7c2-3.2,5.4-4.3,8.6-5.8c9.5-4.2,19.1-4.5,28.8-0.8
		c1,0.4,2.1,0.8,2.9,1.5c3.3,3.4,6.3,7,7.1,12c0.4,2.5,0.6,5.1,1.3,7.7c0.8-4.2,0.5-8.4,0.1-12.6c-0.6-6.3-5.7-12.2-11.8-13.7
		c-3.7-0.9-7.4-1.5-11.1-1.9c-8.8-1.1-17.5-2.4-26.5-1.4c-6.4,0.7-12.4,2.8-18.1,5.5c-3.6,1.7-6.7,4.8-9.9,7.3
		c-5.9,4.7-12,9.1-18.8,12.5c-0.6,0.3-1.5,0.4-1.5,1.5c4.3,5.9,7.3,12.5,9.3,19.6c1.3,4.6,2.4,9.2,3.7,13.7
		c1.7,6.1,3.6,12.1,7.6,17.3C708,218.3,711.1,218.2,713.8,216.2z M702,219.3c-2.9-4.5-4.8-9-5.9-13.8c-2.1-9.3-5.7-18.1-9.1-26.9
		c-1.3-3.4-3-6.5-5-9.7c-1.7,0.9-3.3,1.6-4.7,2.6c-6.5,4.3-13.6,7.5-20.8,10.4c-4.5,1.8-9.2,2.3-13.9,0.9c-3.1-0.9-6.2-0.5-9.6-0.4
		c1.9,4.5,4.4,8.5,5.7,12.9c1.4,4.4,2.9,8.8,3.6,13.4c0.6,4.6,1.3,9.2,2,13.7c0.7,4.5,0.1,9.1,0.9,13.8c5.1-2.5,9.9-4.7,13.7-8.6
		c0,0,0.2,0.2,0.3,0.3c-0.3,0.6-0.6,1.2-1.1,2.4c8-3.8,15.8-6.9,24.2-7.8c3.3-0.3,6.4-1.4,9.7-1.7C695.3,220.5,698.4,220,702,219.3z
		 M358.8,365.8c0.9-1.6-2.2-2.4-1.3-4.2c0.8-0.4,1.4,0.9,2.1,0.1c0.5-2.3-2.1-3.8-1.1-6.2c-1.8-0.5-3.9,0.2-4.5-2
		c0.6-2.9,4.9-1.1,5.4-4.2c-5.3-0.4-6-0.9-5.3-4.4c2.3-1.2,5-0.2,7.4-0.7c0.4-0.8,1.2-1.4,0.7-2.5c-3.2,0.8-6.5,2.1-9.3-1.9
		c3.8-2.4,7.8-1.1,11.5-1.9c1.5-1.9,2.9-3.9,4.1-6c0.5-0.9,0.8-1.8,1.2-2.7c0.1-0.3-0.1-0.6-0.2-1c-1,0.4-1.8,0.8-3,1.4
		c-1.3-1.2-3-1-4.7-0.7c-3.3,0.5-6.5-0.2-9.7-1.2c-3-1-5.4-3.2-8.6-4.1c-3.3-1-4.2-5.1-2.5-8.3c0.6-1.1,1.4-2,2.1-3
		c2.1-2.9,0.7-5.8,0.2-8.5c-0.8-0.9-1.7-1.4-2.7-1.7c-2.5,1.1-5,2.3-7.6,3.4c-2.7,1.1-5.2,2.5-7.4,4.6c-0.5,0.5-1.3,0.8-2,0.9
		c-4.1,1-8.2,1.9-12.2,3.4c-0.2,1.2,0.1,2.4,0.5,3.5c1.1,3.7,2.4,7.4,3.1,11.2c0.8,4.1,3,7.1,6.6,9.1c4,2.2,6.4,5.6,7.3,10
		c0.8,4.2,1.3,8.4,2,12.6c0.2,1.1,0.8,2.2,0,3.5c-1.2-1.3-0.8-3.2-2.2-4.3c0.4,7.2,2.9,12.6,6.8,14.7c0.6,0.1,0.6-1.2,1.3-0.5
		c7.6,4.4,15.4,8.1,24.8,8.2c1.8-3.1,5.2-5.3,5.4-9.6C364.3,370.7,361.8,368.5,358.8,365.8z M737.5,353c-0.6-7.1-1.2-13.7-1.6-20.4
		c-0.3-4.1-0.2-8.3-0.6-12.4c-0.8-7.5-0.5-14.9,0.6-22.2c1-6.6,2.4-13.2,3.5-19.8c0.5-3.1,1.3-6.3,0.8-9.3
		c-0.6-3.7-0.7-7.3-0.6-10.9c0.1-4.1,0.8-8.3,0.5-12.4c-0.4-5.5-0.4-11-0.3-16.4c0-0.6,0.2-1.2-0.6-1.7c-2.9,1.9-6.2,2.3-9.6,1.6
		c-0.9,5.1-1.7,9.9-2.6,14.7c-0.1,0.6-0.5,1.3,0,1.7c1.3,1,0.6,2.2,0.4,3.4c-1.5,8.2-1.9,16.4-1.1,24.7c0.7,7.5,2.1,14.9,1.9,22.5
		c0,1,0.2,1.9,0.2,2.9c0.3,7.4,0.8,14.9,0.8,22.3c0,4.6,0.2,9.2,0.7,13.8c0.3,3.4,1.6,6.7,1.3,10.1c-0.2,2.8,1.1,4.4,3,5.8
		C735.2,351.6,736.2,352.1,737.5,353z M354.1,301.3c12.1-4.1,23.1-9.1,33-15.8c14.2-9.6,28.7-18.6,44.6-25.2
		c6.5-2.7,13-5.2,20.3-5.4c4.8-0.1,9.7-0.3,14.5-1.3c2.9-0.6,5.8-0.7,8.7-0.5c5.1,0.3,10-0.6,14.7-2.4c4.1-1.5,8.3-2.8,12.4-4.4
		c6.1-2.4,12.2-4.9,17.7-8.5c6.5-4.3,13.1-8.4,20.4-11.3c5.7-2.2,11.2-4.7,16.8-7.2c0.8-0.4,1.9-0.5,2.4-1.6
		c-1.2-0.9-1.2-2.5-2.5-3.6c-1.7,0.8-3.4,1.5-4.9,2.4c-7.5,4.4-15.5,7.6-23,11.9c-2.1,1.2-4.4,2-6.7,2.8c-1.6,0.5-3.2,1.1-4.8,1.8
		c-4.8,2.3-9.8,4.4-14.8,6.2c-2.2,0.8-4.4,1.5-6.4,2.7c-4.2,2.5-8.8,3.6-13.5,4c-10.3,0.9-20.6,2.1-30.7,4.3
		c-7.8,1.6-15.5,3.2-22.6,6.9c-8.3,4.3-16.5,8.9-24.2,14.3c-5.3,3.8-10.8,7.3-17,9.7c-8.6,3.4-17,7.3-25.6,10.6
		c-2.5,0.9-5.1,1.6-7.4,3.5C355.2,296.8,354.8,298.6,354.1,301.3z M362.2,352.8c-1.5,4-0.4,7.8,0.8,11.7c5.8,2,11.5,2.8,17.8,0.9
		c-1.1-4,3.4-7.5,0.2-11.1c-3-1.2-5.7-2.4-8.4-3.4c-3.2-1.3-5-3.6-6-6.9c-0.3-0.9-0.2-2-1.1-3c-1.5,3.6-3,7-4.4,10.3
		C361.6,351.8,361.9,352.3,362.2,352.8z M351.8,302.1c-0.2-4,1.6-7.4,2.6-11.4c-3.4,1.8-6.9,1.9-9.5,3.9c-2.9,2.1-6,2.7-9.3,2
		c-5-1-9.5,1.4-14.2,1.5c-1.1,5.1-0.8,7.7,1,11.1c5.9-4.4,12.7-6.8,19.1-9.4c2.8,0.6,3.9,2.5,5.1,4.3
		C348.3,303.4,349.9,302.8,351.8,302.1z M726.4,390c4.8-0.2,9,1,13.4,0.3c-0.2-3.6,0.1-7-0.5-10.2c-3-0.2-5.9,0.7-8.7-0.4
		c2.7-1.3,5.9-1,8.6-2.7c0.1-1.5-0.7-3.1,0.5-4.3c-0.7-1-1-2-2-2.6c-3.3,0.6-6.8,0.4-10.4,0.4C725.8,377.1,726.8,383.4,726.4,390z
		 M793.8,390c-0.4-3.2-0.3-6.3-0.4-9.3c-0.1-3.1,0.2-6.2-1-9.1c-4.1,0.2-8,0.6-11.7,0.4c-0.9,4.4-0.8,14.9,0.2,18.4
		C785,390.7,789.2,390.9,793.8,390z M765.5,363.9c4,0.1,7.7,1.1,11.7-0.9c-0.9-4.8-0.2-9.8-1.9-14.7c-3.3,0.6-6.4,1.3-9.8,0.5
		c0.2,1.7-0.1,3.2,0.8,4.6c1.3,0.3,2.9,0.2,3.5,1.6c2.2-0.5,2.2-0.5,3.5,1.3c-2.3,1.3-5-0.8-7.1,0.9
		C766,359.4,765.8,361.4,765.5,363.9z M741.6,385.2c2.2,1.1,4.5,0.4,6.7,1.6c-0.4-3.4-3.8-8.6-8.1-12.5
		C741.7,378.2,741,381.7,741.6,385.2z M810,190.9c1.1,6.1,1.3,12.1,4.2,17.3c-0.6-5.3-1.7-10.4-2.4-15.7
		C811.8,191.9,811.2,191.3,810,190.9z M807.6,194.5c0.5-1.5-0.1-2.9-0.1-4.4c0.3-0.9,1.6-1.5,1.1-3.2c-1.3-1.3-1.2-3.9-3.3-5.4
		c0.9,2.1,0.5,4.2,0.9,6.3C806.5,190.1,806.1,192.4,807.6,194.5z M812.2,113.4c0,2.4,0,4.4,0,7c1.8-1.5,2.9-3,3.8-4.4
		c-0.1-1.2-0.5-2.1-1.4-2.7C813.9,113.3,813.2,113.4,812.2,113.4z M763.5,359.3c0.4-2.3,0.9-4.6,0.1-7.1c-0.9,0.6-2,0-2.8,1
		C761.4,355.3,763.1,356.9,763.5,359.3z M801.6,181.4c-0.8,3.1-0.5,4.6,1.5,5.9c0.6-2,0.7-4,0.3-5.8
		C802.8,181.1,802.3,181.2,801.6,181.4z M761.6,357.5c-0.7-1.2-1.1-2.6-2.8-3.9c0.4,2.8,0.7,4.7,1,7
		C761.1,359.8,761.2,358.7,761.6,357.5z M867.2,141.9c0,3,0,5.4,0,7.9C868.3,147.3,869,144.9,867.2,141.9z"/>
	<path d="M720.8,351c1.8-0.2,3.6,0.2,5.5,0.4c1-1.2,0.4-2.5,0.3-3.6c-3.1-1.4-6.5,0.7-10.1-1.7c4.3-0.8,7.8-1.8,11.2,0.1
		c1.6,3.3,0.7,6.7,1.4,9.7c1.9,1,4.1-0.6,5.7,1.4c-1.2,2.4-3.7,1.2-5.6,2c-0.2,2-0.3,4-0.5,6.3c-4.4,0.6-8.5,0.3-12.7-0.3
		c-1.5-3-1.9-15.8-0.6-18.8c1.1,0,1,0.9,1,1.6c0.1,3.9,0.2,7.8,0.2,11.7c0,1.2,0.1,2.4,0.2,3.7c3.4,0,6.7,0,10.2,0
		c0.2-3.2-0.2-6.5-0.4-9.9c-2.4-0.2-4.3,1-6.3,1.3c-0.8-0.2-1.4-0.5-1.7-1.3C719,352.3,719.7,351.5,720.8,351z"/>
	<path fill="none" d="M570.4,530.6c4.8,18,16.4,30.5,30.2,41.4c0.4,0.3,1.1,0.4,1.3,1.4c-4.8,2.4-9.9,4.4-15,6.2
		c-10.1,3.6-20.5,6-31,8.4c-4.5,1-9.2,0.9-13.8,1.2c-5,0.4-9.9,1-14.7,2.7c-0.4,0.2-0.9,0.2-1.1,0.8c0.6,0.8,1.6-0.1,2.5,0.9
		c-6.8,1.9-13,5.1-20,4c-1.3-0.8-1-2.9-2.9-2.7c-0.9,0.6-0.2,1.3-0.2,2.1c-1.1,0.7-2.3-0.1-3.4,0.4c-1,0.2-1,1.4-1.7,1.8
		c-4,0.9-7.9,1.7-12,0.9c-0.5-0.7,1-0.9,0.5-1.7c-0.5-0.3-0.9,0-1.4,0.1c-11.4,4.2-23.2,6.8-34.8,10c-10.4,2.9-20.9,5.5-31.2,9.2
		c-6.8,2.4-13.9,4.3-20.8,6.6c-6,2-12,4.1-17.9,6.3c-1.8,0.7-3.5,1.6-4.9,3.1c-1.3,1.4-2.9,2.6-4.7,4.1c-7.7,0.1-14.8-2.2-21-6.9
		c-0.9-1.8-0.5-3.3,0.6-4.5c2.5-2.6,3.5-5.7,3.2-9.6c7.8-2.1,15.3-5.1,22.9-7.5c1.1-0.4,2.4-0.5,3.4-1.1
		c10.4-5.4,20.4-11.4,30.2-17.8c4.6-3.1,9.1-6.6,13.8-9.6c4.8-3.1,9.9-5.8,15.4-7.4c0.7-0.2,1.4-0.4,2.1-0.7
		c7.6-3.6,15.6-5.1,24-4.8c1.4,0,3-0.1,4.3-0.6c3.8-1.4,7.6-1.4,11.5-1.3c5.4,0.2,10.6-0.7,15.5-3.3c0.4-0.2,0.9-0.3,1.4-0.4
		c7.3-1.5,14.1-4.5,20.9-7.6c5-2.2,9.5-5.3,14.3-7.9c5.6-3,11.3-5.6,17.2-8C559.2,536.4,564.7,533.6,570.4,530.6z M356.8,623.1
		c-0.5,1.9-1,4-1.6,6.2c2.7-0.6,2.8-0.8,3.3-5.1c0-0.9,1.5-0.7,1.3-2C358.7,622.1,357.7,622.1,356.8,623.1z M526.8,591.5
		c0-0.3,0.1-0.5,0.1-0.8c-4.1-1.6-8.4-1.7-12.8-1C518.3,590.3,522.5,590.9,526.8,591.5z M468.2,585.2c-2.6,1-5.3,1.9-7.9,2.9
		C463.2,588,466.1,587.7,468.2,585.2z M499,591.9c2,0,3.6-0.7,5.8-1.6C502.2,589.8,500.5,590.5,499,591.9z M374.1,615.1
		c-1.2-0.3-1.9,0.4-3,1.4C372.6,616.5,373.6,616.4,374.1,615.1z M492.5,591.6c-1.3,0.1-2.1,0.3-2.4,1.5
		C491.4,593.3,491.9,592.6,492.5,591.6z M364,618.8c0.2,0.1,0.3,0.3,0.5,0.4c0.7-0.1,1.3-0.4,1.7-1.1c-0.8-0.6-1.5-0.4-2.1,0.3
		C364.1,618.5,364.1,618.7,364,618.8z M386,609.9c-1.1-0.4-1.8-0.2-2.3,1C384.8,611.1,385.5,610.8,386,609.9z M381,612.2
		c-0.8-0.4-1.2-0.3-1.6,0.1c-0.3,0.3-0.9,0.4-0.5,1C379.9,613.6,380.3,612.9,381,612.2z"/>
	<path fill="none" d="M737.1,434.2c1,0,1.8-0.3,2.7,0.6c1.2,1.3,2.7,2.5,4.2,3.5c1.2,0.9,2.3,2.2,4.2,1.8c0.4-0.1,0.9,0.3,1.3,0.5
		c4,2,8.1,3.9,12.1,6c3.8,2,7.1,4.8,10.8,7.4c2.3,0.1,4.8,0.6,7.1,1.3c5.8,7.3,5.9,14.8,1.3,22.5c-4.5,7.7-10.6,13.6-18.8,17.2
		c-4.3,1.9-8.5,2.1-13.1,0.8c-8.7-2.5-16.2-6.6-21.9-13.8c-2-13.1-2-15.8,0-20.1c3.7,4.2,7.5,8.4,10.2,13.6c0.1-2.2,0.2-2.3-1-4
		c-5-7.5-9.8-15.1-17.3-20.5c-4.2-3-7.6-6.8-10.7-10.8c0.1-5.1,1.2-10.2-2.3-15.2c-0.2,1.1-0.5,1.5-0.4,1.7c1.6,5.1,1,10.1-0.5,15.1
		c-1.1,3.5-1.5,7.1-1.5,10.8c0,2.6-0.7,5.1-1,7.6c-0.9,7.3,0.2,14.6,1,21.8c0.2,2.1,0.6,4.1,0.6,6.2c0,7.3,4.2,11.9,9.9,15.6
		c1.5,1,3.2,1.7,4.7,2.6c1.3,1,1.1,3.1,3,3.5c0.8-2.4-0.1-4.3-2.7-5.7c-2.8-1.5-5.5-3.2-7.9-5.2c-3-2.6-4.7-5.7-4.8-9.8
		c-0.2-4-0.9-8-1.3-12c-0.2-1.7-0.2-3.4-0.4-5.3c6.2-4.3,11.8-9.4,18.2-13.4c1.1,0.2,1.7,1.1,2.4,1.9c0.2,2.2-0.7,4.2-1.1,6.3
		c-1.1,5.2,0.2,10.2,0.8,15.2c0.1,0.7,0.6,1.3,1.1,1.9c5.3,6.6,11.7,11.3,20.1,13c2.9,0.6,6,0.4,8.8,2.1c0.7,0.4,1.9,0.1,2.9-0.1
		c8.6-2.3,15.5-6.9,20.2-14.5c0.6-1,1.3-2,2.1-3c1-1.1,1.9-2.2,2.8-3.4c4.6-6.6,4.8-13.3,0.5-20.1c-0.3-0.4-0.5-0.8-0.8-1.4
		c1.4-0.3,2.4,0.4,3.4,0.8c3.5,4.5,2.8,9.5,2,14.4c-1.1,6.9-3.8,13-8.5,18.2c-6.7,7.5-10.3,16.7-13.6,26c-1,2.7-1.5,5.7-0.2,8.3
		c0.5,0.9,1.5,0.3,1.9,1.1c-3.8,4.8-7.7,9.5-12.8,12.8c-5.9,3.8-12.1,5.3-19,2.4c-3-1.2-5.8-2.4-8.1-4.6c-0.8-0.7-1.8-1.4-1.2-3.1
		c2-0.1,4.1,1.1,6.3,0.5c2-0.5,4.1-0.4,5.8-1.4c1.5-1.5,1.5-3.5,1.9-5.2c1.2-5.2,1.8-10.5,1.4-15.9c-0.2-2.7-1.5-4.1-4.2-4.7
		c-4.1-1-8.1-1.4-12.4-1.4c-0.8,2.3-1.5,4.5-2.2,6.6c-1.5,0.4-2.9,0.4-4.2,0.2c-1.2-0.9-0.2-2.5-1.7-3.6c-1.4,5.6,0.3,10.6,2.1,15.5
		c-0.2,0.8-0.6,1.4-1.3,2c-1.4,0-3,0-4.7,0c-0.9-3.3-1.5-6.6-3.3-10.3c-1.2,2.3-0.4,3.9-0.1,5.4c0.3,1.5,0.7,3.1,1,4.7
		c-1.8,0.9-3.3,0.3-4.8-0.6c-1.2-2.7-1.2-6-3.9-8.5c-0.5,3.3,1.8,5.5,1.7,8.5c-1.2,0.1-2.3-0.4-3.4-0.7c-1.8-1.7-1-5-4-6.2
		c-0.6,2.2,1.3,3.6,1,5.5c-1.7,0.1-2.6-1-3.4-2.3c-1.2-2-2.3-4-3.8-5.8c-0.3-0.4-0.6-0.8-0.7-1.3c-1.1-5.1-2.5-10.2-0.7-15.4
		c0.6-1.6,0.9-3.3,0.8-5c-0.3-4.6-0.5-9.2-2-13.7c-3.8-11.1-6.6-22.4-7.2-34.2c-0.3-5.5-0.7-10.9-0.7-16.4c0-3.9,0-7.8-0.2-11.7
		c-0.2-3.8,0-7.5,1.8-11.2c1.6-0.6,3.3-0.5,5.2-0.4c2.2,0.2,4.4,0.4,6.6,0.5c1.5,0.1,2.9,0.4,4.2,1.1c7.1,4.1,14.7,7,21.6,11.5
		C725.3,423.4,732.1,427.7,737.1,434.2z M752.3,479.3c-2.3-1.3-4.4-2.2-6.3-3.4c-1.8-1.1-2.9-3.2-5.5-4.2
		C743.5,476.4,748.2,479.4,752.3,479.3z M738.6,477.5c-0.4,4-0.4,4,0.9,6.3C739.9,481.4,739.4,479.4,738.6,477.5z M739.1,484.6
		c-0.6,2.3-0.6,2.3,0.6,3.8C739.9,487.2,740.1,486.1,739.1,484.6z M691.8,490.4c-0.1,1.2-0.9,2.7,0.9,3.7
		C693.2,492.5,692.6,491.4,691.8,490.4z M695,414.6c1.7-1.1,2.8-1.4,3-3C696.3,411.7,695.8,412.7,695,414.6z M758.6,481.5
		c-1.2-0.9-2-1.8-3.3-0.8C756.2,481.6,757.1,482,758.6,481.5z M769.6,458.1c0.3,1,0,2.4,1.3,3c0-0.4,0.2-0.7,0.1-0.9
		C770.6,459.5,770.1,458.8,769.6,458.1z M761.2,481.2c0.9,0.7,1.5,0.7,2.1,0C762.7,480.7,762.1,480.4,761.2,481.2z M690.4,481.9
		c-0.4,0.9-0.5,1.6,0.1,2.3C691.7,483.3,691.5,482.7,690.4,481.9z M702.2,511.9c0.3-1.2-0.1-1.4-0.9-1.2c0.1,0.3,0.1,0.6,0.2,0.7
		C701.6,511.6,701.9,511.7,702.2,511.9z"/>
	<path fill="none" d="M603.7,572.9c-8.3-9-17-17.2-23.7-27.1c-1.8-2.7-3.5-5.5-4.9-8.5c-1.1-2.4-2.1-4.9-2.9-7.5
		c1.1-2.2,4.1-2.6,5.3-5.5c-2.4,1.2-4.4,2.1-6.4,3.1c-1-0.9-1-2.4-1.8-3.5c0.4-1.4,1.3-2.5,2.4-3.1c2.1-1.1,3.4-3,4.8-4.8
		c2.4-3.2,4.9-6.4,7.4-9.5c6-7.5,14-12.4,22.8-15.8c1.6-0.6,3.3-1.1,4.9-1.3c9.7-0.9,19.1,1.1,28.2,3.1c8.5,16,12.6,39.1,12.8,55.6
		c-5.1,2.2-9.7,6-16.9,6.4c-1.6,0.7-4.2,2.2-6.4,4C621.7,564.6,613,568.9,603.7,572.9z M578.6,522.1c6.2-12.2,15.3-21.5,27.4-28.4
		C598,494.4,579.9,513.3,578.6,522.1z M634.2,540.4c0.6,3.7,0.5,7.6,2.1,11.1C636.2,547.7,635.7,544,634.2,540.4z M621,510.8
		c1.2,0.4,2.1,0.5,3.1-0.6C622.7,509.4,621.9,510.1,621,510.8z M610,491.8c0.8,0.1,1.2,0,1.5-1.2C610.7,491,610.2,491,610,491.8z"/>
	<path fill="none" d="M816.6,437.9c2.9-4,6.5-7,11.3-9.5c0.5-1.2,1-3.1,3.9-2.9c-2.3,3.5-5.6,6-6.3,10.1c-0.7,3.8-1,7.6,0.2,11.4
		c0.5-3.2,0.3-6.5,1.4-9.9c1.5,2,0.4,4.6,2.4,6.4c0.6-4-0.7-8,1.2-11.6c0.5,3.5,0.2,7,1.8,10.9c0-2.9,0.1-5.1,0-7.4
		c-0.3-4.9,0.3-9.9-0.7-14.8c-0.3-1.5-0.4-3.1-0.9-4.6c-0.4-1.2-0.9-2.4-3-3.3c1.9,3.1,2,6,2.3,8.9c0.1,1.6,0.1,1.6-1.9,3.1
		c-1.4-1.6-2.4-3.7-4.8-4.1c-1.1,0-1.8,0.6-2.3,1c-0.8,0.7-0.3,1.4-0.4,1.9c-0.6,2.4-1.1,4.7-1.1,7.2c0,1.4-0.7,2.2-2.5,2.6
		c0.3-6.7,1.7-12.9,5.1-18.6c-4.8,4.7-6,10.7-6,17.8c-0.5-2-0.5-3.5-1.5-5.1c-1.1,2.5,0,5.1-1.2,8.2c-1-2.4-0.4-4.4-2-5.5
		c2.5-14.1,9.1-19.8,20.6-18.5c2.2,2.1,3.8,4.8,5.1,7.6c-0.4,1.2-1.3,1-2.1,1.1c-1-1.3-0.7-3.2-2.1-4.3c-0.5,1.2,0.3,2.2,0.3,3.3
		c0,1.2-0.5,2.5,0.9,3.6c4.4-1.1,8.3,0.8,12.1,3c3.4,2,6.6,4.2,9.7,6.5c1.1,0.8,2.1,1.7,3.4,2.1c0.6,0.9,1.5,1.4,3.1,2
		c-1-1.3-1.7-2.1-2.8-2.4c-4.5-4.4-9.9-7.6-15.1-11.1c5.7,1.5,11.1,3.4,15.4,7.6c2.1,2.1,4.2,4.1,6.5,5.9c4.4,3.5,7.7,7.7,9.6,13.3
		c-0.2,1.7-0.5,3.6-0.9,6.2c-1.8-5.4-2.1-11-7.2-14.5c4.9,8.1,6.4,17,3.9,23.5c2.3,0.7,0.1,2.9,1.5,3.9c-1.9,2.7-3.7,5.2-5.9,7.3
		c-2.1,2-4.4,3.9-6,6.5c-4.5,0.1-7,2.9-8.9,6.5c-1.4,2.7-2.8,5.4-3.7,8.5c-3.1-1-4.5-4-6.8-5.7c-1,0.9,0,1.8,0,2.9
		c-0.9,1-1.8,2.1-3,2.7c-2.5-0.6-3.1-3.5-5.6-4.2c-1,2.7,2.2,2.6,2.6,4.5c-0.5,1.2-1.6,1.9-3,1.8c-1.9-0.1-3.3,0.4-4.5,1.8
		c-0.8,1-2,1.3-3.7,1.4c-4-3.2-5.7-8.3-8.6-13.1c-7.1-1.3-14.5-1.5-22.3-0.3c-0.5,0.4,0.4,1.5-0.5,2.5c-5.6,6.3-10.9,12.8-15.8,19.6
		c-3,4.2-7.2,7.1-11.3,11.1c0.4-5,1.2-9.3,3.3-13.2c3.5-6.4,7-12.8,11.7-18.5c3.7-4.3,6.5-9.1,6.9-15c0.1-0.7,0.4-1.4,0.7-2.1
		c1.6-5.3,1.7-10.5-0.4-15.9c7.5,1.8,15-0.5,22.8,0.5c1.5-2.2,2.4-4.9,2.8-7.8l-0.1,0.2c0.4-0.1,0.7-0.5,0.6-0.8
		c-0.9-1.9-0.5-3.7,0.2-5.5c0.6-1.6,1.1-3.2,1.7-4.7C817.2,439.2,817.3,438.5,816.6,437.9L816.6,437.9z M856.4,447.4
		c-0.4-0.3-0.7-0.9-1.4-0.8c0.4,4.2,0.8,4.7,4.2,6.2c-0.8-1.5-1.7-3-1.8-4.7C857.3,447.6,857,447.2,856.4,447.4c0.2-0.9,0.4-1.8,0-3
		C856.4,445.6,856.4,446.5,856.4,447.4z M847.4,454.1c-0.6,0-1.2-0.1-1.6-0.1c-2.1-3-5.2-4.9-6.8-8.1c-1.6-3.3-2-7-4-11
		c0.1,1.4,0.1,2,0.1,2.6c0.6,4.8,2.9,9,4.7,13.3c1.8,4.2,5.4,5.5,9.3,6.7c0.6,0.2,1.2,0.2,1.7-0.8c-1.4-0.2-2.9,0.1-4.1-1
		c0.2-0.5,0.3-1.1,0.5-1.6c1.8,0.1,3.3,1.3,5.1,1.6c0.7-0.4,1.6-0.7,1.3-2c-4.3-0.8-3.8-5.4-6.2-8.2c-0.1,2.9,1.2,5.1,1.9,7.6
		c-1,0.1-1.7-0.9-2.5-0.2C847.1,453.2,847.2,453.7,847.4,454.1z M834.2,453.9c0.4,4,3,6.3,6.1,5c-2.8-1-4.4-3.1-6.2-4.9
		c-0.9-1.2,0.1-2.9-1-4.2c-2.7-0.6-5.3-1.3-8.8-0.7c-0.6,0-0.7,1.9-2.4,1.8c0.4-2.1,1.9-3.6,1.8-5.9c-2.3,2.5-2.5,5.9-5.1,7.8
		c1.2,1,1.9-1.3,2.9-0.2c0.1,3.7-2.9,5.8-4.5,8.4c2.4,2.5,2.9,2.5,5.2,0.4c-0.8-1.6-2.2,0.6-3.4-1c2.9-1,3.5-3.7,4.4-6.2
		c0.1-0.4,0.3-0.7,0.7-0.7l-0.1-0.1c-0.3,1.9,0.3,3.9-1.2,5.6c1.2,0.4,2.1,0.7,2.8,0.9c1.2-0.3,1.2-1.4,1.7-2.1c1,0.3,2.1,0.7,3-0.2
		c0.9-2,1.2-4.1,1.6-6.2c0.7,2.7-0.8,5.5,0.8,8.1c0.7,0.2,1.4,0.7,2.3,0.1c0-1.2-1.1-1.8-1.4-2.8
		C833.3,455.6,832.8,454.5,834.2,453.9z M847.5,475.7c0.1,2.3,2.9,1.5,3.4,3.1c-1.2,1.7-1.8-0.9-2.9-0.1c0.4,1.5,0.1,3.1,1,4.6
		c1.5-1.4,3.7-1,5.1-2.1c1.3,0.4,2.2,1.8,3.7,0.8C854.9,479,851.7,476.9,847.5,475.7z M822,434c-2,2.7-6.1,16.7-5.9,20
		C818.9,447.8,820.4,441.3,822,434z M820.6,467c-6.6,3-8.5,12.4-3.3,16.7c-0.5-3.2-1.8-6.1-1.2-9.1
		C816.6,471.5,818.2,469.1,820.6,467z M871.3,464c0.6-3.5-0.6-6.7-3.4-9.4c0.3,2.1-0.5,3.9-0.7,5.8c0.4,0,0.5,0,0.6,0
		c0.4-0.4,0.8-0.9,1.2-1.3C869.5,461.8,869.5,461.8,871.3,464z M860,444.3c0.6,4.5,1.6,8.9,3.4,13.2
		C863.5,452.7,861.8,448.5,860,444.3z M855.7,435.8c0.2-0.2,0.3-0.4,0.5-0.6c-3.3-3.6-6.9-6.8-11.7-8.5c0.8,1.6,2.5,2.1,3.7,3.1
		c1.2,1,2.5,1.9,3.8,2.9C853.2,433.7,854.4,434.8,855.7,435.8z M861.9,480.4c-0.6-4.2-3-7-6.7-8.1
		C857.2,475.4,859.9,477.5,861.9,480.4z M835.9,452.6c2,3.3,4.3,4.4,7.3,3.6C840.8,454.8,838,454.3,835.9,452.6z M866.1,457.5
		c1.3-1.8,0.8-3.4-0.4-5.7C865.8,454.3,866,455.9,866.1,457.5z M857.1,453.7c-0.7-1.6-2.1-2-4.2-2.8
		C854.3,452.7,855.6,453.3,857.1,453.7z M845,445.8c-0.2,1.7-0.1,3.3,1.6,4.2C846,448.6,845.5,447.2,845,445.8z M811.4,475.4
		c1.2-0.5,2-0.9,2.1-2.1C812.1,473.4,811.6,473.9,811.4,475.4z M838.6,424.9c1,1.5,1.5,2.4,3,2.6
		C840.9,426.3,840.3,425.4,838.6,424.9z M809.9,479.2c-0.9-0.5-1.2,0.1-1.6,0.4c-0.3,0.4-1,0.6-0.6,1.4
		C808.8,480.7,809.5,480.1,809.9,479.2z"/>
	<path fill="none" d="M766.9,682.1c-2.8,1.8-5.7,0.1-8.6,0.8c-0.8-2.4-0.9-4.4-0.3-6.4c1.7-0.4,1.6,1.6,2.8,1.6
		c0.3-0.3,0.3-0.8,0.3-1.3c-1-6.1-1.7-12.2-2.5-18.3c-0.3-2.4-0.5-4.9-0.5-7.3c0.3-10.4-0.7-20.7-1-31C757,614,756,608,755.5,602
		c-0.8-8.8-0.8-17.5,1-26.2c0.1-0.7,0.5-1.6,0.2-2.1c-1.4-2.4-0.5-4.8,0.1-7c0.8-3.4,0.8-6.8,0.5-10.2c-0.4-5.5,0.3-11,0.1-16.5
		c5.7-6.2,12.3-11.5,17.4-18.2c5.1-6.6,9.9-13.5,14.5-20.5c-0.6,6.2,0.3,12.5-1.8,18.4c-2,5.5-3.2,11.2-5.2,16.7
		c-1.6,4.4-2,9-2.3,13.6c-0.4,6.4-0.9,12.8-2,19.2c-0.8,4.8-1.7,9.8-0.1,14.8c1.2,3.7,1.1,7.8,0.5,11.6c-0.8,5.2-1.4,10.5-1.8,15.8
		c-0.6,9.2-2.3,18.4-2.8,27.6c-0.4,7.8-0.4,15.6-0.5,23.4c0,1.5,0.2,2.9,0.9,4.2c3.8,2.9,8.5,4.1,12.5,5.8c1.9,3.6,2,7.3,2.6,10.9
		c0.3,1.8-0.5,2.6-2.8,3.9c-0.2-3.2-2.4-4.2-5-4.2c-5.9,0-11.3-1.5-16.5-4.2c-0.8-0.4-1.6-0.8-2.5,0
		C763.5,680.8,765.7,680.8,766.9,682.1L766.9,682.1z M771.9,580.7c-0.1-2.2-1.1-3.9-2.7-5.4C769.2,577.6,769.7,579.6,771.9,580.7z
		 M757.2,604.8c0.8,2.8,1.3,3.2,3.5,3C759.8,606.5,759.4,604.7,757.2,604.8z M768.6,564.2c0.1,0.4-0.3,1,0.7,1.1
		C769.5,564.7,769.1,564.4,768.6,564.2z"/>
	<path fill="none" d="M320.9,624.9c3.6-1.2,7.1-2.4,10.8-3c1.2-0.2,2.5-0.6,3.3-1.4c4.2-4,9.8-5.2,14.6-7.8c1.3,0.1,2.1,0.8,2.8,1.3
		c0.9,1.3,0.5,2.6,1,3.7c0.7,1.7,0,3.6-1.1,5.2c-0.6,0.8-1.2,1.5-1.7,2.4c-1.9,3.1-1.5,5.6,1.2,8.1c0.4,0.4,0.9,0.8,1.4,1.2
		c1.4-0.9,2.3,0.2,3.2,0.9c3.1,2.1,6.4,3.5,10.1,4c1.3,0.2,2.7,0.5,4,0.1c1.9-0.6,3.8-0.5,5.6,0.5c1-0.4,1.9-0.8,2.8-1.2
		c0.3,0.3,0.4,0.7,0.3,1c-1.1,3.3-3.2,6-5.2,8.7c-3.7,0.2-7.5-0.1-11,1.4c1.4,3.4,2.7,3.8,8.7,2.5c0.3,0.1,0.4,0.3,0.3,0.6
		c-0.2,0.7-0.5,1.4-1.2,1.9c-2.2,0.2-4.5-0.3-6.8,0.4c-1.5,3.3-0.5,4.2,4.7,4.4c0.2,1.3-0.5,1.8-1.7,2.1c-1.4,0.3-2.9,0.5-3.4,2.3
		c1.4,1.5,1.4,1.5,4.2,2c-0.7,2.2,1.5,3.9,1.5,5.9c-0.9,0.9-1.6-0.4-2.4,0.6c0.1,1.5,1.8,2.6,1.6,4c2.8,2.4,5.3,4.7,8,7
		c-0.3,4.1-3.5,6.5-5.6,9.7c-9.2-0.3-17.2-3.8-25.3-8.6c0,0-0.1,0.6-0.4,0.9c-4.1-2-6.4-6.8-7-14.6c1.4,0.9,1,2.7,2,3.8
		c0.7-0.1,0.5-0.7,0.5-1c-0.7-4.7-1.4-9.4-2.2-14.1c-0.8-4.9-3.4-8.5-7.7-10.9c-3.3-1.9-5.3-4.7-6.1-8.6c-0.7-3.7-2-7.3-3-10.9
		C321.1,627.8,320.5,626.4,320.9,624.9z M352.6,665.8c1.3-0.4,2.4-0.6,3.4-1c2.2-0.9,3-3.2,2.1-5.4c-0.8-2-3.1-3-5.1-2.2
		c-2.2,0.8-3.2,3.1-2.2,5.4C351.1,663.7,351.9,664.6,352.6,665.8z M350.9,656.5c2.5-0.4,3.8-1.8,4.2-4.1c-1.1-3.3-2.3-4.5-4.5-4.3
		c-1.9,0.1-3.4,1.6-3.6,3.5C346.6,654,347.6,655.3,350.9,656.5z M347.4,646.8c1.5,0.3,3.2,1,4.1-0.8c1.1-2.1-0.3-3.8-1.3-5.8
		c-2.5,0.9-5.1,1.2-6.9,3.2c0.8,1.7,2.2-0.5,2.9,1.1c0.2,1.2-1,1.9-1.3,3.1c-0.1,0.4,0.2,0.7,0.5,0.8
		C346.4,648.2,346.5,647,347.4,646.8z"/>
	<path fill="none" d="M642.6,492.7c4.2,0,7.9-0.4,11.4,0.8c3.2,1,6.5,0.6,9.7-0.4c5-1.7,9.8-3.8,14.4-6.2c2.4-1.2,4.7-2.6,7.5-3.6
		c0.7,5.4,2.4,10.6,1.3,15.8c-4.9,1.4-9.6-1-14,1.2c-3.9,6.7-4.1,20-0.4,27.1c4.6,0.2,9.4,2.3,14.4,0.1c0-2.5,0.6-4.6,1.3-6.6
		c0.9-0.4,1.9,0.2,2.9-0.5c1.6,2,2.9,4.8,5.8,4.6c2.5-0.2,4.6,2.8,7.1,0.6c3.3,3,4.3,3.2,7.8,1.5c1.1,0.8,2.6,0.6,4,0.6
		c2.2,0.1,3.9-0.6,4.3-3c0.1-0.5,0.3-0.9,0.8-1.1c0.3-0.1,0.7-0.2,1.2-0.3c0.7,1.2,0.7,2.5,1,3.8c-0.8,0.9-1.7-0.5-2.8,0.4
		c-2,1.7-4.8,2.1-7.6,0.8c-2,2-4.6,2-7.1,2.2c-5.6,0.5-11.1,1.6-16.5,2.9c-1.1,0.3-2.3,1-3.2-0.3c-5.9,2.4-11.7,4.3-17.3,7
		c-0.5-1.3,1.1-1.9,0.9-3c-0.2-0.3-0.3-0.2-0.5,0c-3.5,4.5-8.7,6.5-13.6,9.1c-1.2-0.7-0.7-2-0.7-2.9c0.1-8.7-1.5-17.2-2.9-25.8
		c-1.2-6.9-3.4-13.4-6.5-19.7C644.3,496.5,643.5,494.8,642.6,492.7z M672.1,533.4c1.2-0.1,1.2-0.1,1.5-1.5c-0.3,0.2-0.6,0.4-0.9,0.6
		C672.4,532.7,672.2,533.1,672.1,533.4z"/>
	<path fill="none" d="M363.8,611.7c0.4-2.7,0.7-4.7,1.6-6.5c2.2-1.5,4.6-2.3,7-3.2c8.7-3.2,17-7.2,25.6-10.6
		c6.1-2.4,11.4-5.9,16.6-9.5c6-4.2,12.3-7.9,18.6-11.5c9.5-5.5,19.9-8.3,30.6-10.3c9.3-1.8,18.7-2.9,28.2-3.8
		c4.7-0.4,9.4-1.2,13.6-3.8c1.9-1.2,4.2-1.9,6.4-2.7c5.2-1.9,10.4-4.1,15.5-6.5c3.1-1.4,6.5-2.2,9.5-3.7c6.6-3.2,13-6.5,19.5-9.9
		c3.3-1.7,6.6-3.6,10.3-5.2c0.8,1.3,1.5,2.6,2.5,4.1c-4.4,1.9-8.6,4-13,5.7c-9.9,3.8-19.2,8.8-28,14.7c-4.8,3.3-10.4,5.4-15.8,7.5
		c-4.4,1.7-9,3.1-13.4,4.8c-3.7,1.4-7.8,2.5-11.8,2.2c-6.2-0.3-12.3,0.9-18.5,1.3c-2.3,0.1-4.6,0.5-6.9,0.5c-6,0-11.5,1.7-17,3.9
		c-17.2,6.9-33,16.3-48.3,26.8C386.7,602.7,375.8,607.6,363.8,611.7z M496.9,556.9c-3.2,0.3-3.2,0.3-5.4,2.3
		C493.2,558.5,495.2,558.4,496.9,556.9z"/>
	<path fill="none" d="M375.3,651c0.5,1.7,0.7,2.8,1,3.8c0.9,2.9,2.7,5.1,5.6,6.3c2.8,1.1,5.6,2.3,8.8,3.6c2.9,3.6-1.2,7.1-0.5,10.6
		c-4.4,2.2-9.3,2-17.2-0.4c-2-3.9-2.4-8.1-1.2-11.5c-0.3-0.6-0.6-1.2-1-1.9C372.2,658.3,373.6,655.1,375.3,651z"/>
	<path fill="none" d="M331.5,619.8c-1.6-4-1.4-7.5-0.8-11.2c5.6-0.5,10.9-2.7,16.5-1.4c1.6,0.4,3.3,0.2,4.6-0.8
		c3.5-2.6,7.7-3.4,12.1-5.2c-1.1,3.8-2.6,7.2-2.7,10.9c-1.5,1.3-3.4,1.5-5.2,2.4c-1.2-1.8-2.3-3.8-5.1-4.3
		C344.5,612.7,337.8,615.5,331.5,619.8z"/>
	<path fill="none" d="M725.8,517.3c0.8,1.7,1.8,1.8,3,1.9c1.2,0.1,1.5,1.6,2.7,1.6c1.5-0.1,2.3-1.7,4-1.9c0.2,3.4,0,6.8,1.4,10
		c-3.6,2.7-7.4,2.8-11.2,0.3c-0.8-7.4-2.5-14.9,1-22.5c3.7,0.6,7.2,1.1,10.8,1.7c-0.6,2.9-1.5,5.6-1.6,8.4
		C732.5,516.3,729.1,514.6,725.8,517.3z M735.3,513c-2.3-1-2.3-1-4.7,0.3C732.3,513.2,733.7,513.6,735.3,513z"/>
	<path fill="none" d="M707.4,442.9c4.4,5.4,9.2,9.8,14.1,14.2c-5.5,3.7-10.9,7.2-16.7,11.1C704.3,459.5,705.5,451.4,707.4,442.9z"/>
	<path fill="none" d="M745.6,673.4c3.1,0.9,6.3-0.3,9.2,0.3c1.3,1.1,0.8,2.4,1,3.7c-2,0.8-3.9-0.1-5.7,0c-1.3,0.3-1.9,1.4-2.5,2.3
		c0.1,1,0.9,1.3,1.6,1.6c2.1-0.3,4-1.5,6.4-1.3c0.7,3.2,0.2,6.5,0.6,9.8c-3.4,1-6.7-0.6-10,0.3c-0.8-2.8-0.4-5.6-0.4-8.4
		C745.5,678.9,745.2,676.2,745.6,673.4L745.6,673.4z M748.1,684.3c0.1,0.4,0.4,0.6,0.7,0.5c0.1,0,0.3-0.3,0.3-0.5
		c0-0.4-0.3-0.6-0.7-0.4C748.3,683.9,748.2,684.2,748.1,684.3z"/>
	<path fill="none" d="M794.5,690.5c0.1-2.2,0.3-4.3,0.4-6.4c1-1.1,2.2-1.1,3.6-0.8c1.2,0.3,2.6,0.1,4.4,0.1c-1.2-1.9-2.1-3-4.2-1.7
		c-0.7-1.5-2.1-1.6-3.5-1.7c-0.8-1.3-0.6-2.7-0.5-4.2c3-0.4,6.1,0.2,9.3-1.2c2.1,5,1.4,10.1,1.9,15c-1.9,1-3.7,1.3-5.5,1.2
		C798.5,690.8,796.7,690.6,794.5,690.5z"/>
	<path fill="none" d="M672.6,510.6c0.1-3.7,0.4-6.5,1.7-9.5c2.9,0.9,5.9,0.6,9.1,1.3c-0.9,3.5-1.6,6.8-2,10.7
		C678.7,510.5,675.7,510.6,672.6,510.6z M675.6,506c0.9,2.1,1.8,2.6,3.3,2C678.6,506.7,677.6,506.4,675.6,506z"/>
	<path fill="none" d="M673.1,515.4c1.8,0.3,3.4,0.1,4.7,0.7c1.4,0,2.1-1.1,3.1-1.6c0.1,0.2,0.4,0.3,0.4,0.5c0,3.5,0.2,7,1.4,10.6
		c-3,0.6-5.7,0-8.5-0.6C673.2,521.9,673,518.7,673.1,515.4z"/>
	<path fill="none" d="M689.6,519.1c-2.3-0.4-3.6-1.1-5.2-0.7c-1-5-0.9-9.6,0.1-14.4c2.2,2.6,2.3,3.3,0.8,5.9
		C688.8,511.9,687,516,689.6,519.1z"/>
	<path fill="none" d="M814.5,451c-1.5,0.9-1.5,2.7-2.6,4c-0.5,0.4-1.2,0.6-2.2,0.3c0.4-2.5,1.3-5.1,0.3-7.4c1.1-3.3,3-5.8,4.8-8.4
		c0.4-0.7,0.8-1.6,1.8-1.6l-0.1-0.1c0.4,0.8-0.3,1.3-0.6,2c-1.4,2.8-2.6,5.7-3,8.8c0.5,0.9,0.9,1.7,1.4,2.5L814.5,451z"/>
	<path fill="none" d="M722.2,522c-4.3-2.2-3.1-5.9-4.1-9.2c1.7,0.3,2.9,0.4,4.5,0.7C722.3,516.1,722.1,518.7,722.2,522z"/>
	<path fill="none" d="M823.7,518.7c-2.8-5.3-3.1-11.2-4.1-17.1c1.8,1.2,1.9,1.2,1.9,1.7C821.9,508.5,823.3,513.4,823.7,518.7z"/>
	<path fill="none" d="M739.6,509c0.7,5.8-0.6,10.9-0.6,16.2C737.3,521.9,737.6,514.5,739.6,509z"/>
	<path fill="none" d="M766.8,682.2c0.9,0.3,1.8,0.7,2.9,1.1c-1.1,1.4,0.2,2.5-0.1,4c-0.2,0.8-0.9,1.4-2.2,1.5
		c-1.1-0.8-1.8-2-2.1-3.2C765.2,683.9,767.7,683.8,766.8,682.2L766.8,682.2z"/>
	<path fill="none" d="M817.1,505.1c-2.2-4.4-0.8-9-2.4-13.2c2.2,1.4,1.8,4.3,3.3,5.4c0.4,1.8-0.5,2.3-1,3.1
		C817,501.8,817.5,503.3,817.1,505.1z"/>
	<path fill="none" d="M821.7,423.9c1.1-0.1,1.8-0.1,2.6-0.2c0.7,0.7,1.1,1.5,1.2,2.8c-0.8,1.5-2,2.9-3.8,4.4
		C821.7,428.3,821.7,426.2,821.7,423.9z"/>
	<path fill="none" d="M774,688.9c-1.1,0.2-1.5-0.1-2-0.4c-0.3-1.4,0.3-3.1-2.1-4.6c2.4,0.1,3.6,0.4,4.8,0.9
		C775.6,686.6,773.9,687.6,774,688.9z"/>
	<path fill="none" d="M812.3,498.1c-1.9-1.6-1.7-3.4-1.7-5c0-1.2,0.8-1.6,2-1.4C813.3,494.6,813.3,494.6,812.3,498.1z"/>
	<path fill="none" d="M790.4,680c0.7-0.8,1.3-1.1,2-0.9c0.7,3,0.7,3.7-0.1,7.1C791.5,683.7,790.9,681.8,790.4,680z"/>
	<path fill="none" d="M876.6,459.9c0-2.4,0-4.8,0-7.4C878.3,455.5,878.3,455.9,876.6,459.9z"/>
	<path fill="none" d="M684.2,519.7c1.2,0.1,1.7,0.4,2.2,1.1c0.2,1.2-0.3,2.2-1.3,3.4C684.8,522.7,684.5,521.4,684.2,519.7z"/>
	<path fill="none" d="M560.9,220.1c4.5,17.7,16,29.9,29.3,40.8c0.7,0.6,1.7,0.9,2.3,2c-6,2.9-12.2,5.4-18.5,7.5
		c-8.7,2.9-17.6,4.8-26.5,7.1c-3.3,0.8-6.8,0.7-10.2,1c-4.6,0.4-9.2,0.6-13.8,1.6c-1.8,0.4-3.5,0.9-5.3,1.3
		c-2.5-2.2-6.6-2.9-14.4-2.5c4.4,1.5,8.5,1.2,12,2.2c1.1,0.4,0.8,1.1,0.8,1.5c0.9,0.8,1.7-0.4,2.5,0.1c-0.1,0.2-0.1,0.5-0.2,0.6
		c-5.9,2.3-15.1,5.3-19.8,3.9c-0.9-0.6-0.6-2.4-2.2-2.6c-0.9,0.2-0.7,1-0.6,1.7c-0.9,1-2.1,0.2-3,0.6c-1,0.3-1.3,1.1-1.6,1.8
		c-2.4,0.5-4.6,1.2-6.9,1.4c-1.8,0.2-3.6-0.3-5.6-0.4c0.4-0.6,0.6-1,0.8-1.4c-1.1-0.6-2.1,0.1-3.1,0.5c-8.4,2.9-16.9,5.2-25.4,7.4
		c-10,2.6-20,5.2-29.9,8.2c-11.2,3.4-22.2,7.1-33.3,10.8c-5,1.6-9.9,3.4-14.8,5.3c-1.7,0.6-3.3,1.5-4.6,2.9
		c-1.4,1.5-3.1,2.8-4.8,4.2c-7.8-0.3-15-2.3-21.1-7.3c-0.6-1.7-0.3-3.2,0.8-4.3c2.5-2.6,3.6-5.7,3.3-9.1c1-1.2,2.3-1.3,3.4-1.6
		c5.2-1.4,10.1-3.6,15.3-5c8.2-2.2,15.3-6.6,22.5-11c5.4-3.3,11.2-6,16.2-9.9c4.8-3.8,9.9-7,15.1-10.3c3.6-2.3,7.4-4.2,11.5-5.6
		c1.7-0.6,3.5-1.1,5.2-1.8c7-3.2,14.3-4.7,22-4.2c1.8,0.1,3.7-0.1,5.4-0.7c3.4-1.2,6.9-1.5,10.4-1.3c5.8,0.3,11.2-0.9,16.6-3.2
		c3.8-1.6,8-2.1,11.9-3.5c6.2-2.3,12.4-4.8,17.8-8.3c8.2-5.2,16.9-9,25.7-12.8C551,225.2,555.9,222.8,560.9,220.1z M346,318.7
		c2.8-0.6,2.7-3,2.8-4.8c0.5-1,1.6-1.1,1.8-2.1c-1.3-0.6-2.3,0.1-3.4,0.9C346.9,314.6,346.4,316.5,346,318.7z M450.1,278
		c3.1-0.5,6.2-0.7,8.5-2.9c-2.5,0.5-4.9,1.3-7.2,2.2C451,277.4,450.6,277.8,450.1,278z M494.9,279.3c-2.3,0.6-4.1,0.6-5.8,2.2
		c1.3,0.2,2.1-0.1,2.8-0.5C492.8,280.6,493.9,280.9,494.9,279.3z M354,308.6c1.5,0.1,2.4,0,2.8-1.2
		C355.7,306.9,355.1,307.4,354,308.6z M483.2,280.9c-1,0.3-1.4,0.4-1.8,0.7c-0.4,0.3-1,0.6-0.5,1.3
		C481.9,282.8,482.4,282.2,483.2,280.9z M376.6,299.3c-1.2-0.4-1.7,0.2-2.6,1.2C375.3,300.4,376.1,300.4,376.6,299.3z M361.9,306.1
		c1.3-0.1,2.2-0.3,2.9-1.8C363.5,304.7,362.6,304.8,361.9,306.1z M371.4,301.6c-0.5-0.5-0.9-0.1-1.3,0.1c-0.4,0.3-1.2,0.5-0.7,1.4
		C370.3,302.9,371.2,302.7,371.4,301.6z"/>
	<path fill="none" d="M739.1,195.8c-2,0.4-2.8-1.2-3.7-2.4c-3.2-4.6-4.6-9.9-5.2-15.4c-0.4-3.9-0.3-7.8,1.2-11.5
		c1.4-3.6,3.2-6.8,6.6-8.9c-0.1-0.6-0.1-1.1-0.2-1.7c6.2-4.1,13.2-5.6,20.4-5.8c5.1-0.1,10.2,0.9,14.4,3c3.8,4.7,5.6,9.7,6.4,15
		c0.1,0.5,0.2,1,0.2,1.4c-0.2,4.8,1.1,9.3,1.5,14c0.5,6.8-0.7,13.4-3.8,19.5c-2.7,5.3-5.1,10.8-6.7,16.5c-0.8,3-0.6,6-0.9,9
		c-0.5,4.1-0.7,8.3-0.8,12.4c-0.1,3.7-1,7.2-1.8,10.8c-1.9,8-2,16.2-1.1,24.3c0.2,2.2,0.2,4.4,0.8,6.5c2.2,7.6-0.8,14.4-3.4,21.2
		c-0.5,1.4-1.1,2.7-1.5,4.1c-3.1,10.1-4.7,20.3-4.4,30.9c0.1,3.1-0.5,6.3-0.8,9.5c-0.3,2.7-0.1,5.3,0.2,8c0.3,2.5,0.5,5.1,1.4,7.5
		c-1.5,0.9-3.3-0.4-4.6,0.8c0.1,0.2,0.2,0.6,0.3,0.6c3.5,0,6.1,1.9,8.8,3.8c2.5,1.7,5.2,3.2,7.8,4.7c1.9,1.1,3.4,2.3,3.8,4.8
		c-0.7,2.7-0.3,5.6-0.3,8.6c-1.1,1.7-2.9,2.4-4.4,4.1c-2.1-4.3,0.2-8,0.3-11.8c-1.6,1.3-1.6,1.3-3.3,10.3c-1.1,0-2.3,0-3.7,0
		c-0.2-2.8,1.2-5.4,0.9-8.8c-2.4,2.6-1.5,5.7-2.9,8.2c-1.4,0.8-3,0.6-4.6,0.4c-0.5-3.2,1.9-5.4,2.3-8.8c-3,2.4-3.1,5.6-4.4,8.2
		c-2.2-0.1-2.2-0.1-3.7-1.7c0.3-1.4,0.7-2.7,1.1-4.1c-0.9-0.6-1.9-0.6-2.4-1.8c-1.6-3.2-4-5.8-6.8-8c-2.5-1.9-3.7-4.4-3.6-7.6
		c0.1-4.1-0.3-8.2,0.5-12.4c0.4-2.3,0.2-4.9-0.1-7.3c-1.5-14.6-1.4-29.2-0.5-43.8c0.4-6.6,1.3-13.1,2.7-19.5c1-4.5,1.9-9.2,1.4-13.8
		c-0.7-7.4,0-14.8-0.4-22.2c-0.7-12.6,0.7-25,3.7-37.3c1.4-5.8,2.1-11.7,2.2-17.7c0-2.1,0.9-4.3-0.4-6.5c-1.3,1.6-0.7,3.5-0.9,5
		C744.4,192.6,741.2,193.5,739.1,195.8L739.1,195.8z M754.7,232.8c0.2-2.8,0.2-2.8-3-5.8c-0.9-1.7-0.3-3.9-2.7-5.5
		C748.6,226.9,752.4,229.5,754.7,232.8z M757.4,284.1c-1-5.3-2.4-7-5.6-7.5c-0.1,0.3-0.4,0.7-0.3,1
		C752.6,280.5,755.9,281.4,757.4,284.1z M766.3,209.6c0.1,1.8,0.1,3.7,1.7,5.1C767.8,212.9,767.7,211,766.3,209.6z M757.6,239.5
		c-0.3,1-0.3,1.7,0.8,2.3C758.9,240.7,759,239.8,757.6,239.5z M745.3,274c0.4-1.2,0.2-1.9-0.8-2.4
		C743.9,272.7,744.4,273.2,745.3,274z"/>
	<path fill="none" d="M630.5,182c8.8,17.7,11.8,36,12.9,55.2c-4.3,2.5-8.8,4.8-13.6,6.5c-3.8-1-6.5,1.5-9,3.5
		c-8,6.4-16.9,11-26.1,15c-0.3-0.1-0.6-0.1-0.7-0.2c-7.3-7.9-15-15.3-21.4-24c-4.3-5.8-7.8-12-9.7-19c1.4-2,4-2.6,5.5-5.4
		c-2.7,1.2-4.7,2.2-6.8,3.2c-0.6-1.3-1.1-2.5-1.6-3.7c0.5-1.2,1.2-2.4,2.3-2.9c2.5-1.2,3.6-3.5,5.2-5.4c2.6-3.2,5.1-6.5,7.7-9.7
		c6-7.3,13.8-11.8,22.4-15.2c2.4-1,5-1.4,7.5-1.4C613.7,178.6,622.3,179.8,630.5,182z M593.5,184.1c-6.2,3.2-12.5,8.6-13.5,11.8
		c3.6-3.6,7.6-6.6,11.6-9.5C592.4,185.8,593.6,185.4,593.5,184.1c1.2,0.3,2.3,0,3.3-1.2C595.3,182.6,594.4,183.3,593.5,184.1z
		 M568.6,211.2c0.2,0.2,0.4,0.3,0.6,0.5c1.5-2.5,3.1-4.9,4.5-7.5c1.4-2.6,3.9-4.4,4.9-7.3C573.7,200.6,570.6,205.5,568.6,211.2z
		 M626.7,241.1c0.1-3.2-0.4-6.4-1.4-9.5C624.9,234.9,625.9,238,626.7,241.1z M614.5,199.7c-2,0-2,0-3.2,1.1
		C612.3,200.9,613.3,200.8,614.5,199.7z M601.9,180.8c-0.6-0.3-1.1-0.4-1.4,0.4C601.1,181.6,601.5,181.3,601.9,180.8z"/>
	<path fill="none" d="M805,141.1c-2,0.2-1.2,2.4-2.5,3.2c-0.6,0.6-1.3,1-2.3,0.7c0.3-2.5,1.3-4.9,0.3-7.5c3.7-8.4,9.6-14.7,18-19.5
		c0.4-1.2,1.1-2.8,3.9-3c-1.1,2.7-3.5,4.1-4.7,6.4c-1.2,2.4-1.8,5-2.1,7.7c-0.3,2.7,0,5.3,0.8,7.8c0.4-3.3,0.2-6.7,1.5-10.5
		c1,3.3,1,6.5,3.1,9.1c-0.7-4.6-1.2-9.1,0.2-13.6c0.7,3.3,0.2,6.7,1.9,10.3c0-2.9,0-5.3,0-7.8c0-2.7,0.1-5.4-0.1-8
		c-0.2-3.7-0.4-7.5-1.6-11.1c-0.4-1.3-1.1-2.4-3.2-3.2c1.5,2.2,2.2,4.3,2.3,6.4c0,2,1.5,4.4-1.5,5.8c-1.5-1.5-2.4-3.8-4.8-4.2
		c-1.2-0.2-2,0.6-2.8,1.2c-0.2,3.3-1.2,6.3-1.2,9.4c0,1.1-0.8,1.7-1.9,2c-1.1-4,0.4-10,4.5-18.7c-4.7,4.7-6,10.7-6,17.4
		c-0.6-1.5-0.4-2.9-1.4-4.1c-1,1.1-0.5,2.4-0.6,3.6c-0.2,1.1,0.6,2.4-0.9,3.5c-0.7-1.8,0.1-4-1.7-4.9c0.6-3.7,1.8-6.7,3.1-9.8
		c2.5-5.9,7.4-8.1,13.2-9c1.3-0.2,2.7,0,4,0c2.3,2.5,4.2,5.1,5.3,8.1c-0.6,0.9-1.3,0.9-2.1,0.9c-1-1.2-0.6-3.1-2.7-4.7
		c1.5,2.7,0.3,5.1,1.8,7.3c4.5-1.1,8.3,0.7,12,2.8c3.7,2.1,7.2,4.6,10.6,7.1c1.2,0.9,2.6,1.7,4.1,2.3c-4.9-4.5-10.2-8.5-16.1-11.9
		c3,0.1,5.5,1.4,8.1,2.5c2.8,1.2,5.3,2.9,7.5,5.1c2.6,2.6,5.4,5,8.1,7.4c3.6,3.1,6,7,7.8,11.5c-0.2,1.7-0.5,3.5-0.9,6.1
		c-1.6-4.6-1.7-9.1-5-12.3c-1,1,0,1.6,0.3,2.3c1.6,3.7,2.4,7.6,2.7,11.7c0.1,2.4,0.2,4.9-1.3,7.2c2.4,0.8,0,3.1,1.6,4
		c-3,5.6-8.1,9-12,14c-4.7-0.1-7.2,3.3-9.2,7.3c-1.2,2.5-2.5,4.9-3.3,7.8c-3-1.4-4.7-3.8-6.7-5.9c-1.4,0.9-0.1,1.9-0.1,2.9
		c-0.7,1.1-1.7,2-2.7,2.6c-2.8,0-3.2-3.7-6-3.9c-0.7,2.5,2.2,2.4,2.7,4.2c-0.4,1.3-1.5,2-2.9,1.8c-1.9-0.2-3.3,0.4-4.5,1.8
		c-0.8,1-2.1,1.2-3.5,1.5c-2.7-1.5-3.9-4.4-5.5-6.9c-0.9-1.5-1.7-3.2-2.5-4.9c-0.5-0.9-1.1-1.7-2.2-1.8c-5.8-0.5-11.5-1.5-17.3-0.3
		c-1.5,0.3-2.9,0.2-4.5-0.2c0.3-4.4,1.1-8.9,1.1-13.3c0-3.2-0.1-6.3-0.7-9.5c-0.6-3.1-1.9-5.8-4.8-7.4c-0.5-0.3-1-0.5-1.3-1.4
		c3.3,1.8,6.7,1.8,10.1,1.3c3.9-0.5,7.8,0.7,11.6-0.6c0.5-0.2,1.3,0.4,2.1,0.7C803.7,146.1,804.5,143.6,805,141.1
		c0.3-0.4,0.7-0.9,0.4-1.3c-1.1-1.9-0.4-3.7,0.2-5.6c0.6-2,1.3-3.9,2-5.9c-2.4,2.8-3.5,5.8-4.2,10.1C804,139.2,804.8,140,805,141.1z
		 M844.3,144.7c0.6,0.3,0.8,1.2,1.9,1C845.8,144.5,845,144.8,844.3,144.7c0-0.4,0.2-0.8-0.2-1.5c-4.1-0.9-3.8-5.4-6.1-8.4
		c0,2.9,1.2,5.1,1.8,7.5c-1,0.8-1.9-1-2.7,0.1c1.3,1.4,3.2,1.6,4.7,2.5C842.8,145.5,843.4,144.9,844.3,144.7z M839.3,167.3
		c-1.4,2-0.3,3.8,0.2,5.8c1.6-1.8,3.8-1.2,5.2-2.3c1.8,0.8,1.8,0.8,3.5,0.6c-5.7-4.7-6.4-5.1-10.2-5.8
		C838,166.5,839,166.6,839.3,167.3L839.3,167.3z M817.2,140.4c-1,1-2.2,1.9-3,3.5c0.3,1.3,0,2.9-0.8,4.5c1.2,0.3,2,1.2,3.8,0.5
		c0.3-0.1-0.1-1.1,0.6-1.6c1,0,2.1,0.7,3.1-0.4c0.4-1.6,1.3-3.4,1.1-4.8c-0.4-1.3-1.3-1-1.7-1.5c0.8,0.1,1.8-0.4,2.5,0.7
		c-0.1,2.4-1,5,0.2,7.5c0.9,0.5,1.6,0.9,2.7,0.1c-3.1-2.5-1.2-6-1.8-9.3c-1.9-0.7-4-0.7-6-1.2c-2.2-0.6-3.6,1.1-5.6,2.2
		c0.5-2.3,1.8-3.7,1.8-5.8c-1.1,0.8-1.6,1.8-1.9,2.7c-0.7,1.9-1.6,3.5-3.2,4.7c-0.2,0.2-0.1,0.5,0.1,0.6c1,0.2,1.5-1.3,2.6-0.8
		c0.5,3.9-3.1,5.8-4.3,8.7c2.6,2.3,3.4,2.3,5.1,0.1c-0.8-1-2.1,0.4-3.1-0.8c2.6-1.4,3.5-3.9,4.3-6.5
		C814.3,141.7,815.2,140.4,817.2,140.4z M841.1,146.6c-3.1-0.8-3.1-0.8-5.5-4.1c-0.3-0.4-0.6-0.8-0.9-1.1c-4.3-3.1-6.1-7.6-7.4-12.5
		c-0.3-1.1-0.1-2.6-1.6-3.3c0,0.4,0,0.8,0,1.1c0.5,5,2.8,9.5,5,13.9C832.5,144.5,836.9,147,841.1,146.6z M812,124.3
		c-1.9,1.6-2.2,4-2.6,6.1c-0.5,2.4-1.1,4.7-1.8,7c-1.4,4.8-1.4,4.8-0.8,6.2C809.4,137.5,810.9,130.9,812,124.3z M811,156.6
		c-6.5,3.2-8.2,11.8-3,17c-0.7-3.5-1.9-6.4-1.4-9.4C807.1,161.1,808.8,158.7,811,156.6z M861.7,153.2c1-2.8-0.2-6.3-3.5-9.2
		c0.8,2.3-0.5,4-0.3,5.8c1.2,0.4,0.9-1.2,1.9-0.9C859.8,150.7,860,152.3,861.7,153.2z M847.4,126.3c-3.2-4.9-9.2-9.5-12.7-9.6
		C839.4,119.3,843.3,123,847.4,126.3z M849.8,132.9c1.2,4.8,2.4,9.5,3.6,14.3c0.3-0.1,0.6-0.2,0.9-0.3
		C854,142,852.1,137.4,849.8,132.9z M852.3,170.6c0.4-3.6-1.7-6.3-6.7-9.1C847.5,165,850.6,167.1,852.3,170.6z M847.8,136.7
		c-1.1,0.7-1.6-0.6-2.6-1c1,5.1,1.2,5.5,4.2,6.3C848.6,140.2,847.8,138.6,847.8,136.7z M826.1,141.9c2.5,3.7,5,4.8,7.8,3.6
		C830.9,144.6,828.3,143.6,826.1,141.9z M830.7,148.6c-2.5-0.8-3.9-2.9-5.9-4.7C825.6,147.6,827.1,149,830.7,148.6z M856.2,142.4
		c0.1,1.6,0.2,3.2,0.4,4.8C858,145.5,857.4,144,856.2,142.4z M837.3,139.9c-0.7-1.5-1.3-3.1-2-4.6
		C835.3,137.1,835.3,138.9,837.3,139.9z M829.9,114.7c-0.2,0.2-0.4,0.4-0.5,0.5c1.1,1.1,2.3,2.3,3.4,3.4
		C832.3,116.9,831.4,115.5,829.9,114.7z M847.6,143.2c-1-1.5-2.5-2.1-4.1-2.6C844.5,142,845.9,142.9,847.6,143.2z M800.9,165.9
		c1.1-0.9,2.6-1.3,3.2-3.2C801.9,163.1,801.6,164.7,800.9,165.9z M797.8,170.8c1.5-0.5,2.3-1.1,2.7-2.6
		C799.1,168.7,798.5,169.4,797.8,170.8z M806.1,115.6c-0.1-0.8,0.3-1.3-0.3-2C805.8,114.3,805.5,114.8,806.1,115.6z"/>
	<path fill="none" d="M713.8,216.2c-2.7,2-5.8,2.1-8.8,2.8c-4-5.2-5.9-11.2-7.6-17.3c-1.3-4.6-2.4-9.2-3.7-13.7
		c-2-7.1-4.9-13.7-9.3-19.6c0-1.1,0.9-1.2,1.5-1.5c6.8-3.4,12.9-7.8,18.8-12.5c3.2-2.6,6.3-5.6,9.9-7.3c5.7-2.7,11.7-4.8,18.1-5.5
		c8.9-1,17.7,0.4,26.5,1.4c3.8,0.5,7.5,1,11.1,1.9c6.1,1.5,11.2,7.5,11.8,13.7c0.4,4.2,0.7,8.4-0.1,12.6c-0.7-2.5-0.8-5.1-1.3-7.7
		c-0.9-5-3.8-8.6-7.1-12c-0.7-0.7-1.9-1.2-2.9-1.5c-9.7-3.7-19.3-3.3-28.8,0.8c-3.2,1.4-6.6,2.6-8.6,5.8c-1.4,2.3-2.8,4.6-4,7
		c-4.1,8-3.6,16,0.3,23.9c1.6,3.2,3.4,6.2,5.4,9.1c2.2,3.3,5.3,5.7,9.1,7.1c-1.3,6.8-2.6,13.5-3.9,20.3c-2.8,2.2-6,3-9.5,2
		c-4.1-1.2-8.1-2.6-12-4.2C716.9,221,716.9,220.9,713.8,216.2z"/>
	<path fill="none" d="M702,219.3c-3.7,0.7-6.7,1.2-9.9,1.5c-3.3,0.3-6.4,1.3-9.7,1.7c-8.4,0.9-16.2,4-24.2,7.8
		c0.6-1.2,0.8-1.8,1.1-2.4c-0.1-0.1-0.3-0.3-0.3-0.3c-3.8,3.9-8.6,6.1-13.7,8.6c-0.8-4.7-0.3-9.3-0.9-13.8c-0.7-4.6-1.4-9.2-2-13.7
		c-0.6-4.6-2.2-9-3.6-13.4c-1.4-4.4-3.8-8.4-5.7-12.9c3.4-0.1,6.5-0.6,9.6,0.4c4.8,1.5,9.4,1,13.9-0.9c7.2-2.9,14.3-6.1,20.8-10.4
		c1.4-0.9,3-1.6,4.7-2.6c2,3.1,3.7,6.3,5,9.7c3.4,8.9,7,17.7,9.1,26.9C697.3,210.3,699.1,214.8,702,219.3z M662.6,223.4
		c1.3-0.3,1.4-1,1.8-2C663.2,221.8,662.7,222.3,662.6,223.4z"/>
	<path fill="none" d="M358.8,365.8c3,2.6,5.5,4.9,8.2,7.2c-0.2,4.3-3.6,6.4-5.4,9.6c-9.4-0.2-17.2-3.9-24.8-8.2
		c-0.7-0.6-0.7,0.6-1.3,0.5c-3.9-2.1-6.4-7.5-6.8-14.7c1.4,1.1,1,3,2.2,4.3c0.7-1.2,0.1-2.4,0-3.5c-0.6-4.2-1.2-8.4-2-12.6
		c-0.8-4.4-3.3-7.8-7.3-10c-3.6-2-5.7-5-6.6-9.1c-0.8-3.8-2.1-7.5-3.1-11.2c-0.3-1.2-0.7-2.3-0.5-3.5c4-1.5,8.1-2.4,12.2-3.4
		c0.7-0.2,1.5-0.5,2-0.9c2.2-2,4.7-3.4,7.4-4.6c2.6-1.1,5.1-2.3,7.6-3.4c1,0.3,1.8,0.8,2.7,1.7c0.5,2.7,1.9,5.6-0.2,8.5
		c-0.7,1-1.5,1.9-2.1,3c-1.7,3.2-0.8,7.4,2.5,8.3c3.2,0.9,5.5,3.1,8.6,4.1c3.2,1,6.3,1.7,9.7,1.2c1.7-0.2,3.4-0.5,4.7,0.7
		c1.2-0.5,2.1-0.9,3-1.4c0.1,0.3,0.3,0.7,0.2,1c-0.3,0.9-0.7,1.8-1.2,2.7c-1.1,2.2-2.5,4.2-4.1,6c-3.7,0.8-7.7-0.5-11.5,1.9
		c2.8,4,6.1,2.6,9.3,1.9c0.6,1.1-0.3,1.6-0.7,2.5c-2.4,0.6-5-0.5-7.4,0.7c-0.7,3.5,0,4,5.3,4.4c-0.5,3.1-4.8,1.2-5.4,4.2
		c0.6,2.2,2.7,1.5,4.5,2c-1,2.4,1.6,3.9,1.1,6.2c-0.7,0.8-1.3-0.5-2.1-0.1C356.6,363.5,359.7,364.2,358.8,365.8z M344,358.3
		c1-1.1,2.2-0.8,3.2-1.3c2.2-0.9,3-3.2,2.1-5.5c-0.8-2-3.1-3-5.1-2.2c-2.2,0.8-3.2,3.1-2.3,5.4C342.4,355.8,343.1,356.7,344,358.3z
		 M346.4,344.5c-1.3-3.5-2.6-4.6-4.8-4.3c-2.1,0.3-3.4,1.9-3.4,4c0,2.1,1.3,3.7,3.3,4.2C343.6,348.9,345,347.8,346.4,344.5z
		 M338.8,338.8c1.5,0.7,3.1,0.8,3.9-0.8c1.1-2.1-0.3-3.8-1.3-5.8c-2.5,0.9-5.1,1.2-6.9,3.2c0.8,1.7,2.2-0.4,2.9,0.9
		c0.5,1.5-1.7,2.4-1,4C337.6,340.6,337.7,339.1,338.8,338.8z"/>
	<path fill="none" d="M737.5,353c-1.4-0.9-2.3-1.5-3.2-2.1c-1.9-1.4-3.2-3-3-5.8c0.3-3.4-1-6.7-1.3-10.1c-0.4-4.6-0.6-9.2-0.7-13.8
		c0-7.4-0.5-14.9-0.8-22.3c0-1-0.2-1.9-0.2-2.9c0.2-7.6-1.2-15-1.9-22.5c-0.8-8.3-0.3-16.5,1.1-24.7c0.2-1.1,0.9-2.3-0.4-3.4
		c-0.5-0.4-0.1-1.1,0-1.7c0.8-4.8,1.7-9.6,2.6-14.7c3.5,0.7,6.7,0.3,9.6-1.6c0.7,0.5,0.6,1.2,0.6,1.7c-0.1,5.5-0.1,10.9,0.3,16.4
		c0.3,4.1-0.4,8.3-0.5,12.4c-0.1,3.6,0,7.2,0.6,10.9c0.5,3-0.3,6.3-0.8,9.3c-1.1,6.6-2.5,13.2-3.5,19.8c-1.1,7.4-1.4,14.8-0.6,22.2
		c0.4,4.1,0.4,8.3,0.6,12.4C736.4,339.3,736.9,346,737.5,353z M728.6,278c-0.2,2.5-0.1,2.6,3.2,3.7
		C731.2,279.9,730.4,278.6,728.6,278z"/>
	<path fill="none" d="M354.1,301.3c0.6-2.6,1.1-4.5,1.5-6.3c2.3-1.8,4.9-2.5,7.4-3.5c8.7-3.3,17-7.2,25.6-10.6
		c6.2-2.4,11.6-6,17-9.7c7.7-5.4,15.8-10,24.2-14.3c7.1-3.7,14.9-5.2,22.6-6.9c10.1-2.1,20.4-3.3,30.7-4.3c4.8-0.4,9.3-1.4,13.5-4
		c2-1.2,4.2-1.9,6.4-2.7c5-1.8,10-3.9,14.8-6.2c1.5-0.7,3.1-1.3,4.8-1.8c2.3-0.8,4.6-1.6,6.7-2.8c7.5-4.3,15.6-7.5,23-11.9
		c1.6-0.9,3.3-1.6,4.9-2.4c1.2,1.1,1.3,2.7,2.5,3.6c-0.6,1.2-1.6,1.3-2.4,1.6c-5.6,2.4-11.1,4.9-16.8,7.2c-7.3,2.9-13.9,7-20.4,11.3
		c-5.5,3.6-11.6,6.2-17.7,8.5c-4.1,1.6-8.3,2.9-12.4,4.4c-4.7,1.8-9.6,2.7-14.7,2.4c-2.9-0.2-5.8-0.1-8.7,0.5
		c-4.8,1-9.7,1.1-14.5,1.3c-7.3,0.2-13.8,2.7-20.3,5.4c-15.9,6.6-30.4,15.6-44.6,25.2C377.2,292.2,366.2,297.2,354.1,301.3z
		 M481.6,248.7c1.9-0.5,3.8-0.8,5.3-2.1C484.7,246.4,483.1,247.5,481.6,248.7z"/>
	<path fill="none" d="M362.2,352.8c-0.3-0.5-0.6-1-0.9-1.6c1.4-3.3,2.8-6.6,4.4-10.3c0.8,1,0.8,2.1,1.1,3c0.9,3.2,2.8,5.6,6,6.9
		c2.7,1.1,5.4,2.2,8.4,3.4c3.2,3.6-1.3,7.1-0.2,11.1c-6.3,1.9-12,1.1-17.8-0.9C361.8,360.6,360.8,356.8,362.2,352.8z"/>
	<path fill="none" d="M351.8,302.1c-1.9,0.7-3.5,1.3-5.3,2c-1.2-1.8-2.3-3.7-5.1-4.3c-6.3,2.6-13.2,5-19.1,9.4
		c-1.9-3.4-2.1-6-1-11.1c4.7-0.1,9.2-2.5,14.2-1.5c3.3,0.7,6.4,0.1,9.3-2c2.7-2,6.2-2.1,9.5-3.9
		C353.4,294.7,351.6,298.1,351.8,302.1z"/>
	<path fill="none" d="M726.4,390c0.4-6.5-0.5-12.8,0.9-19.4c3.6,0,7.1,0.2,10.4-0.4c1,0.6,1.3,1.6,2,2.6c-1.2,1.2-0.4,2.8-0.5,4.3
		c-2.7,1.6-5.9,1.3-8.6,2.7c2.9,1.1,5.7,0.2,8.7,0.4c0.5,3.2,0.3,6.6,0.5,10.2C735.3,391,731.1,389.8,726.4,390z"/>
	<path fill="none" d="M793.8,390c-4.6,0.8-8.8,0.7-13,0.4c-1-3.5-1.1-14-0.2-18.4c3.8,0.3,7.6-0.1,11.7-0.4c1.2,2.9,0.9,6.1,1,9.1
		C793.5,383.7,793.3,386.8,793.8,390z M787.8,380.2c1.5-0.1,3,1.2,5.1,0C790.9,378.2,789.4,379.5,787.8,380.2z"/>
	<path fill="none" d="M765.5,363.9c0.3-2.5,0.5-4.5,0.7-6.7c2.2-1.7,4.9,0.5,7.1-0.9c-1.4-1.8-1.4-1.8-3.5-1.3
		c-0.7-1.4-2.2-1.3-3.5-1.6c-0.9-1.4-0.6-2.9-0.8-4.6c3.4,0.7,6.5,0.1,9.8-0.5c1.7,4.9,1,9.9,1.9,14.7
		C773.2,365,769.5,364,765.5,363.9z"/>
	<path fill="none" d="M741.6,385.2c-0.6-3.4,0-7-1.3-10.9c4.3,3.9,7.7,9.1,8.1,12.5C746.2,385.6,743.8,386.3,741.6,385.2z"/>
	<path fill="none" d="M739,195.9c2.8-0.1,4.7-2,7.4-3.4c-0.6,3-1.1,5.7-1.7,8.7C742.5,199.4,739.7,198.8,739,195.9L739,195.9z"/>
	<path fill="none" d="M810,190.9c1.2,0.4,1.8,1,1.9,1.6c0.6,5.3,1.8,10.4,2.4,15.7C811.3,203,811.1,197.1,810,190.9z"/>
	<path fill="none" d="M807.6,194.5c-1.4-2-1.1-4.4-1.5-6.7c-0.4-2.1,0-4.3-0.9-6.3c2.1,1.4,2,4.1,3.3,5.4c0.6,1.8-0.8,2.3-1.1,3.2
		C807.5,191.6,808.1,193,807.6,194.5z"/>
	<path fill="none" d="M812.2,113.4c1.1-0.1,1.8-0.1,2.3-0.2c1,0.7,1.3,1.5,1.4,2.7c-0.9,1.5-2,2.9-3.8,4.4
		C812.2,117.8,812.2,115.8,812.2,113.4z"/>
	<path fill="none" d="M763.5,359.3c-0.3-2.4-2.1-4-2.8-6.1c0.8-1,1.9-0.5,2.8-1C764.3,354.7,763.9,357,763.5,359.3z"/>
	<path fill="none" d="M801.6,181.4c0.7-0.2,1.2-0.3,1.8,0.2c0.4,1.8,0.3,3.8-0.3,5.8C801.1,186,800.8,184.5,801.6,181.4z"/>
	<path fill="none" d="M761.6,357.5c-0.3,1.2-0.4,2.3-1.8,3.1c-0.3-2.2-0.6-4.2-1-7C760.5,354.9,760.8,356.2,761.6,357.5z"/>
	<path fill="none" d="M867.2,141.9c1.9,3,1.1,5.4,0,7.9C867.2,147.3,867.2,144.9,867.2,141.9z"/>
	<path d="M356.8,623.1c0.9-1,1.9-1.1,3.1-1c0.2,1.3-1.3,1.1-1.3,2c-0.5,4.3-0.6,4.5-3.3,5.1C355.7,627.1,356.3,625,356.8,623.1z"/>
	<path d="M526.8,591.5c-4.2-0.6-8.5-1.2-12.7-1.8c4.4-0.7,8.7-0.6,12.8,1C526.8,591,526.8,591.3,526.8,591.5z"/>
	<path d="M468.2,585.2c-2.1,2.5-5,2.9-7.9,2.9C462.9,587.1,465.5,586.1,468.2,585.2z"/>
	<path d="M499,591.9c1.5-1.3,3.3-2.1,5.8-1.6C502.6,591.1,500.9,591.9,499,591.9z"/>
	<path d="M374.1,615.1c-0.6,1.3-1.5,1.4-3,1.4C372.2,615.5,372.9,614.8,374.1,615.1z"/>
	<path d="M492.5,591.6c-0.6,1-1.1,1.7-2.4,1.5C490.4,592,491.2,591.8,492.5,591.6z"/>
	<path d="M364,618.8c0-0.1,0.1-0.2,0.1-0.4c0.6-0.7,1.3-0.9,2.1-0.3c-0.4,0.7-1,1-1.7,1.1C364.4,619,364.2,618.9,364,618.8z"/>
	<path d="M386,609.9c-0.6,0.9-1.2,1.2-2.3,1C384.3,609.7,385,609.5,386,609.9z"/>
	<path d="M381,612.2c-0.7,0.7-1.1,1.4-2.1,1.1c-0.3-0.6,0.3-0.8,0.5-1C379.8,612,380.2,611.8,381,612.2z"/>
	<path d="M752.3,479.3c-4.1,0-8.8-2.9-11.8-7.5c2.6,0.9,3.7,3,5.5,4.2C747.9,477.2,750,478,752.3,479.3z"/>
	<path d="M738.6,477.5c0.8,1.9,1.3,3.9,0.9,6.3C738.2,481.4,738.2,481.4,738.6,477.5z"/>
	<path d="M739.1,484.6c1,1.5,0.8,2.6,0.6,3.8C738.5,486.9,738.5,486.9,739.1,484.6z"/>
	<path d="M691.8,490.4c0.8,1,1.4,2.1,0.9,3.7C690.8,493.1,691.7,491.6,691.8,490.4z"/>
	<path d="M695,414.6c0.8-1.9,1.3-2.8,3-3C697.8,413.2,696.7,413.5,695,414.6z"/>
	<path d="M758.6,481.5c-1.6,0.5-2.4,0-3.3-0.8C756.6,479.7,757.4,480.7,758.6,481.5z"/>
	<path d="M769.6,458.1c0.5,0.7,0.9,1.4,1.4,2.1c0.1,0.2,0,0.4-0.1,0.9C769.6,460.4,769.9,459.1,769.6,458.1z"/>
	<path d="M761.2,481.2c0.9-0.9,1.5-0.5,2.1,0C762.7,482,762.1,481.9,761.2,481.2z"/>
	<path d="M690.4,481.9c1.1,0.9,1.2,1.5,0.1,2.3C689.9,483.4,690,482.8,690.4,481.9z"/>
	<path d="M702.2,511.9c-0.4-0.2-0.6-0.3-0.7-0.5c-0.1-0.2-0.1-0.4-0.2-0.7C702.1,510.5,702.5,510.7,702.2,511.9z"/>
	<path d="M578.6,522.1c1.2-8.9,19.4-27.8,27.4-28.4C593.9,500.6,584.8,510,578.6,522.1z"/>
	<path d="M634.2,540.4c1.5,3.6,2,7.3,2.1,11.1C634.7,548,634.8,544.1,634.2,540.4z"/>
	<path d="M621,510.8c0.9-0.7,1.7-1.4,3.1-0.6C623.1,511.3,622.2,511.2,621,510.8z"/>
	<path d="M610,491.8c0.2-0.8,0.7-0.8,1.5-1.2C611.2,491.8,610.7,492,610,491.8z"/>
	<path d="M824,453.3c-0.4,0.1-0.5,0.4-0.7,0.7c-0.9,2.5-1.5,5.1-4.4,6.2c1.2,1.6,2.7-0.6,3.4,1c-2.3,2.1-2.8,2.1-5.2-0.4
		c1.6-2.7,4.6-4.7,4.5-8.4c-1-1-1.6,1.2-2.9,0.2c2.6-1.9,2.8-5.3,5.1-7.8c0.1,2.3-1.4,3.8-1.8,5.9c1.7,0.1,1.8-1.7,2.4-1.8
		c3.4-0.6,6.1,0.2,8.8,0.7c1.1,1.3,0.1,3,1,4.2l0.1-0.1c-1.4,0.6-0.9,1.7-0.6,2.8c0.3,1,1.4,1.6,1.4,2.8c-0.9,0.6-1.6,0.1-2.3-0.1
		c-1.6-2.7-0.2-5.5-0.8-8.1c-0.4,2.1-0.8,4.2-1.6,6.2c-0.9,0.9-2,0.5-3,0.2c-0.6,0.7-0.5,1.8-1.7,2.1c-0.7-0.2-1.6-0.5-2.8-0.9
		C824.2,457.1,823.6,455.1,824,453.3c1-0.9,2-1.7,3.1-2.5C825.3,450.9,823.8,451.3,824,453.3z M826.4,452.7
		c-1.2,1.3-1.6,2.5-1.3,4.2c0.7-0.4,1.1-0.8,1.6-1c1-0.3,1.5,1.3,2.5,0.6c1.7-1.3-1.4-1.7-0.6-2.9c0.6,0.1,1.3,0.8,1.3-0.6
		C828.8,452.4,827.7,452.6,826.4,452.7z"/>
	<path d="M847.3,454c-0.2,0.6-0.4,1.1-0.5,1.6c1.2,1.1,2.7,0.8,4.1,1c-0.4,1-1.1,1-1.7,0.8c-3.9-1.1-7.5-2.4-9.3-6.7
		c-1.9-4.3-4.2-8.5-4.7-13.3c-0.1-0.6-0.1-1.2-0.1-2.6c2,4,2.4,7.7,4,11c1.6,3.3,4.7,5.1,6.8,8.1c0.4,0,1,0.1,1.6,0.1L847.3,454z
		 M841.5,451.9c0.8,0.9,1,1.8,2.1,1.1C843.2,452.6,842.9,452,841.5,451.9z"/>
	<path d="M847.5,475.7c4.1,1.2,7.4,3.3,10.3,6.3c-1.5,0.9-2.4-0.5-3.7-0.8c-1.4,1.1-3.5,0.7-5.1,2.1c-0.9-1.5-0.6-3.1-1-4.6
		c1.1-0.8,1.7,1.7,2.9,0.1C850.4,477.3,847.7,478,847.5,475.7z"/>
	<path d="M822,434c-1.5,7.3-3,13.9-5.9,20C815.9,450.7,819.9,436.6,822,434z"/>
	<path d="M820.6,467c-2.4,2.1-4,4.5-4.5,7.6c-0.5,3,0.8,5.9,1.2,9.1C812.1,479.4,814,470,820.6,467z"/>
	<path d="M847.4,454.1c-0.2-0.4-0.4-0.9-0.5-1.3c0.8-0.7,1.6,0.3,2.5,0.2c-0.7-2.5-1.9-4.7-1.9-7.6c2.4,2.8,1.9,7.4,6.2,8.2
		c0.2,1.3-0.6,1.6-1.3,2c-1.8-0.3-3.2-1.5-5.1-1.6L847.4,454.1z"/>
	<path d="M871.3,464c-1.9-2.2-1.9-2.2-2.3-4.9c-0.4,0.4-0.8,0.9-1.2,1.3c-0.1,0.1-0.2,0-0.6,0c0.2-1.9,1-3.7,0.7-5.8
		C870.8,457.3,872,460.5,871.3,464z"/>
	<path d="M860,444.3c1.8,4.2,3.5,8.5,3.4,13.2C861.7,453.2,860.6,448.8,860,444.3z"/>
	<path d="M855.7,435.8c-1.2-1-2.4-2.1-3.7-3.1c-1.2-1-2.5-1.9-3.8-2.9c-1.3-1-2.9-1.5-3.7-3.1c4.7,1.7,8.4,4.9,11.7,8.5
		C856,435.4,855.8,435.6,855.7,435.8z"/>
	<path d="M814.4,451.2c-0.5-0.8-0.9-1.6-1.4-2.5c0.4-3.2,1.6-6,3-8.8c0.3-0.6,1-1.1,0.6-2c0.7,0.7,0.7,1.4,0.3,2.3
		c-0.7,1.5-1.2,3.1-1.7,4.7c-0.7,1.8-1.1,3.6-0.2,5.5C815.1,450.7,814.7,451,814.4,451.2z"/>
	<path d="M861.9,480.4c-1.9-2.9-4.7-5-6.7-8.1C858.9,473.4,861.2,476.2,861.9,480.4z"/>
	<path d="M856.4,447.4c0.6-0.2,0.9,0.2,1,0.7c0.2,1.7,1.1,3.1,1.8,4.7c-3.5-1.5-3.8-2-4.2-6.2C855.7,446.5,856,447.1,856.4,447.4
		L856.4,447.4z"/>
	<path d="M834.1,454c1.8,1.8,3.4,3.9,6.2,4.9c-3.1,1.3-5.7-1-6.1-5L834.1,454z"/>
	<path d="M835.9,452.6c2.1,1.7,4.8,2.1,7.3,3.6C840.3,457,838,455.9,835.9,452.6z"/>
	<path d="M866.1,457.5c-0.1-1.6-0.2-3.3-0.4-5.7C866.9,454.2,867.4,455.8,866.1,457.5z"/>
	<path d="M857.1,453.7c-1.5-0.4-2.8-1-4.2-2.8C855,451.7,856.4,452.2,857.1,453.7z"/>
	<path d="M845,445.8c0.5,1.4,1,2.8,1.6,4.2C844.9,449,844.7,447.5,845,445.8z"/>
	<path d="M811.4,475.4c0.2-1.4,0.7-2,2.1-2.1C813.4,474.5,812.7,474.9,811.4,475.4z"/>
	<path d="M838.6,424.9c1.7,0.5,2.3,1.4,3,2.6C840.1,427.3,839.6,426.4,838.6,424.9z"/>
	<path d="M859.9,434.1c1.1,0.3,1.7,1,2.8,2.4c-1.6-0.6-2.5-1.1-3.1-2C859.7,434.3,859.8,434.2,859.9,434.1z"/>
	<path d="M809.9,479.2c-0.5,0.9-1.1,1.5-2.1,1.9c-0.5-0.8,0.2-1.1,0.6-1.4C808.7,479.2,809.1,478.7,809.9,479.2z"/>
	<path d="M856.4,447.4L856.4,447.4c0-0.9,0-1.8,0-3C856.8,445.6,856.6,446.5,856.4,447.4z"/>
	<path d="M771.9,580.7c-2.3-1.2-2.7-3.2-2.7-5.4C770.8,576.8,771.8,578.5,771.9,580.7z"/>
	<path d="M757.2,604.8c2.2-0.1,2.6,1.7,3.5,3C758.4,608,757.9,607.6,757.2,604.8z"/>
	<path d="M768.6,564.2c0.5,0.2,0.8,0.5,0.7,1.1C768.3,565.2,768.7,564.6,768.6,564.2z"/>
	<path d="M352.6,665.8c-0.7-1.2-1.4-2.2-1.9-3.3c-1-2.2,0.1-4.5,2.2-5.4c2-0.8,4.3,0.2,5.1,2.2c0.9,2.2,0.1,4.6-2.1,5.4
		C355,665.3,353.9,665.5,352.6,665.8z M355.3,663.4c1.1-0.7,2.2-1.6,1.5-3.4c-0.5-1.4-1.7-1.7-3-1.3c-1.5,0.5-2.4,1.5-1.8,3.2
		c0.9,0.8,1.5-0.9,2.4,0.1C354.7,662.3,354.1,663.2,355.3,663.4z"/>
	<path d="M350.9,656.5c-3.3-1.3-4.3-2.5-4-4.9c0.2-1.9,1.7-3.3,3.6-3.5c2.2-0.2,3.4,1,4.5,4.3C354.7,654.8,353.4,656.1,350.9,656.5z
		 M350.7,654.9c1.7-0.5,2.9-1.2,2.7-3c-0.1-1.2-0.9-2-2.1-2.1c-1.3-0.1-2.4,0.4-2.8,1.8C348,653.4,348.9,654.4,350.7,654.9z"/>
	<path d="M347.4,646.8c-0.9,0.3-0.9,1.5-1.9,1.5c-0.4-0.2-0.6-0.5-0.5-0.8c0.3-1.1,1.5-1.9,1.3-3.1c-0.8-1.5-2.2,0.6-2.9-1.1
		c1.8-1.9,4.4-2.2,6.9-3.2c0.9,1.9,2.4,3.6,1.3,5.8C350.6,647.8,348.9,647.1,347.4,646.8z M349.2,645.5c2.1-0.8,1-2,0.2-3.4
		c-0.7,0.4-1.4,0.4-1.9,1.1C347.8,644.1,347.9,645.1,349.2,645.5z"/>
	<path d="M672.1,533.4c0.2-0.3,0.3-0.7,0.6-0.9c0.2-0.2,0.6-0.4,0.9-0.6C673.3,533.2,673.3,533.2,672.1,533.4z"/>
	<path d="M496.9,556.9c-1.7,1.5-3.7,1.6-5.4,2.3C493.7,557.2,493.7,557.2,496.9,556.9z"/>
	<path d="M735.3,513c-1.6,0.6-3,0.2-4.7,0.3C733,512,733,512,735.3,513z"/>
	<path d="M748.1,684.3c0.1-0.1,0.2-0.4,0.3-0.5c0.4-0.1,0.7,0.1,0.7,0.4c0,0.2-0.2,0.5-0.3,0.5C748.4,684.9,748.1,684.7,748.1,684.3
		z"/>
	<path d="M675.6,506c2,0.4,3,0.7,3.3,2C677.4,508.6,676.5,508.1,675.6,506z"/>
	<path d="M346,318.7c0.3-2.2,0.8-4.1,1.2-6.1c1.1-0.8,2.1-1.4,3.4-0.9c-0.1,1-1.3,1.1-1.8,2.1C348.7,315.8,348.9,318.1,346,318.7z"
		/>
	<path d="M450.1,278c0.4-0.2,0.8-0.6,1.2-0.7c2.4-0.8,4.8-1.6,7.2-2.2C456.3,277.3,453.3,277.5,450.1,278z"/>
	<path d="M494.9,279.3c-1,1.6-2.2,1.3-3,1.7c-0.7,0.4-1.5,0.7-2.8,0.5C490.8,279.9,492.6,279.9,494.9,279.3z"/>
	<path d="M354,308.6c1.1-1.2,1.7-1.7,2.8-1.2C356.4,308.6,355.5,308.7,354,308.6z"/>
	<path d="M483.2,280.9c-0.8,1.4-1.3,1.9-2.2,1.9c-0.6-0.7,0-1,0.5-1.3C481.8,281.3,482.2,281.2,483.2,280.9z"/>
	<path d="M376.6,299.3c-0.5,1.1-1.3,1.1-2.6,1.2C374.9,299.5,375.4,298.8,376.6,299.3z"/>
	<path d="M361.9,306.1c0.7-1.3,1.6-1.5,2.9-1.8C364.1,305.9,363.2,306.1,361.9,306.1z"/>
	<path d="M371.4,301.6c-0.2,1.1-1.1,1.3-2,1.5c-0.4-0.9,0.3-1.1,0.7-1.4C370.5,301.4,370.9,301.1,371.4,301.6z"/>
	<path d="M754.7,232.8c-2.4-3.3-6.2-5.9-5.7-11.4c2.4,1.6,1.8,3.8,2.7,5.5C754.9,230,754.9,230,754.7,232.8z"/>
	<path d="M757.4,284.1c-1.4-2.7-4.8-3.7-5.9-6.5c-0.1-0.2,0.2-0.6,0.3-1C755,277.1,756.4,278.8,757.4,284.1z"/>
	<path d="M766.3,209.6c1.4,1.5,1.5,3.3,1.7,5.1C766.3,213.3,766.3,211.4,766.3,209.6z"/>
	<path d="M757.6,239.5c1.4,0.3,1.2,1.2,0.8,2.3C757.3,241.2,757.3,240.5,757.6,239.5z"/>
	<path d="M745.3,274c-0.9-0.7-1.4-1.3-0.8-2.4C745.5,272.1,745.8,272.8,745.3,274z"/>
	<path d="M568.6,211.2c1.9-5.7,5.1-10.5,10-14.2c-0.9,2.9-3.5,4.7-4.9,7.3c-1.4,2.5-3,5-4.5,7.5C569,211.5,568.8,211.3,568.6,211.2z
		"/>
	<path d="M593.4,184c0.2,1.4-1,1.8-1.8,2.4c-4,2.9-8,5.9-11.6,9.5C581,192.7,587.2,187.3,593.4,184L593.4,184z"/>
	<path d="M626.7,241.1c-0.8-3.2-1.8-6.2-1.4-9.5C626.3,234.7,626.8,237.9,626.7,241.1z"/>
	<path d="M614.5,199.7c-1.2,1.1-2.1,1.2-3.2,1.1C612.5,199.7,612.5,199.7,614.5,199.7z"/>
	<path d="M593.5,184.1c0.9-0.9,1.8-1.5,3.3-1.2C595.8,184.1,594.7,184.4,593.5,184.1L593.5,184.1z"/>
	<path d="M601.9,180.8c-0.4,0.5-0.8,0.8-1.4,0.4C600.8,180.4,601.3,180.4,601.9,180.8z"/>
	<path d="M817.2,140.4c-2.1,0-2.9,1.3-3.4,3c-0.7,2.6-1.6,5.1-4.3,6.5c1.1,1.2,2.3-0.2,3.1,0.8c-1.6,2.2-2.5,2.2-5.1-0.1
		c1.3-2.9,4.9-4.8,4.3-8.7c-1.1-0.4-1.6,1-2.6,0.8c-0.2-0.1-0.4-0.4-0.1-0.6c1.5-1.3,2.5-2.9,3.2-4.7c0.3-0.9,0.8-1.9,1.9-2.7
		c0,2.1-1.3,3.5-1.8,5.8c2-1.1,3.4-2.8,5.6-2.2c2,0.5,4.1,0.5,6,1.2c0.6,3.3-1.4,6.8,1.8,9.3c-1.1,0.8-1.8,0.4-2.7-0.1
		c-1.2-2.4-0.3-5.1-0.2-7.5c-0.7-1.1-1.7-0.6-2.5-0.7c0.4,0.5,1.3,0.2,1.7,1.5c0.2,1.4-0.7,3.2-1.1,4.8c-1.1,1.2-2.1,0.5-3.1,0.4
		c-0.7,0.5-0.3,1.6-0.6,1.6c-1.8,0.7-2.6-0.2-3.8-0.5c0.8-1.6,1.1-3.2,0.8-4.5C815,142.3,816.2,141.4,817.2,140.4z M815.4,146.3
		c1,0.1,1.2-0.9,1.9-1c0.9-0.3,1.5,1.4,2.5,0.5c1-1.2-0.8-1.5-0.8-2.4c0.4-0.5,1.2,0.1,1.5-0.9c-1.1-0.5-2.2-0.8-3.4-0.4
		C815.6,143.2,815.4,144.7,815.4,146.3z"/>
	<path d="M841.1,146.6c-4.2,0.5-8.6-2.1-10.5-5.9c-2.2-4.5-4.5-8.9-5-13.9c0-0.4,0-0.7,0-1.1c1.4,0.7,1.3,2.1,1.6,3.3
		c1.3,4.9,3.1,9.4,7.4,12.5c0.4,0.3,0.7,0.7,0.9,1.1C838,145.8,838,145.8,841.1,146.6z"/>
	<path d="M839.2,167.3c-0.2-0.7-1.2-0.9-1.2-1.7c3.8,0.7,4.5,1.1,10.2,5.8c-1.7,0.1-1.7,0.1-3.5-0.6c-1.4,1.1-3.6,0.5-5.2,2.3
		C839,171,837.9,169.2,839.2,167.3c0.5,1.1,0.9,2.1,2.4,1.1C841.1,167.3,840.2,167.3,839.2,167.3z"/>
	<path d="M812,124.3c-1.1,6.6-2.6,13.2-5.3,19.3c-0.6-1.4-0.6-1.4,0.8-6.2c0.7-2.3,1.3-4.7,1.8-7C809.9,128.3,810.1,125.9,812,124.3
		z"/>
	<path d="M811,156.6c-2.1,2.2-3.9,4.5-4.4,7.6c-0.5,3,0.7,5.9,1.4,9.4C802.8,168.4,804.5,159.8,811,156.6z"/>
	<path d="M844.3,144.7c-0.9,0.2-1.6,0.8-2.7,0.2c-1.5-0.9-3.4-1.1-4.7-2.5c0.9-1.1,1.8,0.7,2.7-0.1c-0.6-2.3-1.8-4.5-1.8-7.5
		c2.4,3,2.1,7.5,6.1,8.4C844.6,143.9,844.3,144.3,844.3,144.7L844.3,144.7z"/>
	<path d="M861.7,153.2c-1.7-1-1.9-2.6-1.9-4.3c-1-0.4-0.7,1.3-1.9,0.9c-0.1-1.8,1.2-3.5,0.3-5.8C861.5,147,862.7,150.4,861.7,153.2z
		"/>
	<path d="M847.4,126.3c-4.2-3.3-8-7-12.7-9.6C838.3,116.8,844.3,121.4,847.4,126.3z"/>
	<path d="M849.8,132.9c2.3,4.5,4.2,9,4.5,14c-0.3,0.1-0.6,0.2-0.9,0.3C852.2,142.4,851,137.7,849.8,132.9z"/>
	<path d="M852.3,170.6c-1.8-3.5-4.8-5.6-6.7-9.1C850.7,164.3,852.7,167,852.3,170.6z"/>
	<path d="M805,141.1c-0.2-1.1-1-1.9-1.5-2.6c0.7-4.4,1.8-7.3,4.2-10.1c-0.7,2-1.4,3.9-2,5.9c-0.6,1.8-1.3,3.6-0.2,5.6
		C805.7,140.2,805.3,140.7,805,141.1L805,141.1z"/>
	<path d="M847.8,136.7c0,2,0.8,3.6,1.6,5.2c-3-0.8-3.2-1.2-4.2-6.3C846.2,136,846.7,137.4,847.8,136.7z"/>
	<path d="M826.1,141.9c2.2,1.7,4.8,2.6,7.8,3.6C831.1,146.8,828.6,145.6,826.1,141.9z"/>
	<path d="M830.7,148.6c-3.6,0.4-5.1-1-5.9-4.7C826.8,145.7,828.2,147.7,830.7,148.6z"/>
	<path d="M856.2,142.4c1.2,1.5,1.7,3.1,0.4,4.8C856.5,145.6,856.3,144,856.2,142.4z"/>
	<path d="M837.3,139.9c-2-1-2-2.8-2-4.6C836,136.8,836.6,138.3,837.3,139.9z"/>
	<path d="M829.9,114.7c1.5,0.8,2.3,2.2,2.9,4c-1.1-1.1-2.3-2.3-3.4-3.4C829.6,115,829.7,114.9,829.9,114.7z"/>
	<path d="M847.6,143.2c-1.8-0.3-3.1-1.2-4.1-2.6C845.1,141.1,846.7,141.7,847.6,143.2z"/>
	<path d="M800.9,165.9c0.7-1.2,1-2.8,3.2-3.2C803.5,164.7,802,165.1,800.9,165.9z"/>
	<path d="M797.8,170.8c0.6-1.4,1.3-2.1,2.7-2.6C800.1,169.7,799.3,170.3,797.8,170.8z"/>
	<path d="M806.1,115.6c-0.6-0.8-0.3-1.3-0.3-2C806.4,114.3,806.1,114.9,806.1,115.6z"/>
	<path d="M844.2,144.8c0.8,0,1.6-0.3,2,0.9C845.2,145.9,844.9,145,844.2,144.8L844.2,144.8z"/>
	<path d="M662.6,223.4c0.1-1.1,0.6-1.6,1.8-2C664,222.4,663.9,223.1,662.6,223.4z"/>
	<path d="M344,358.3c-0.9-1.5-1.6-2.5-2.1-3.6c-0.9-2.2,0.1-4.5,2.3-5.4c2-0.8,4.3,0.2,5.1,2.2c0.9,2.2,0.1,4.5-2.1,5.5
		C346.2,357.4,345,357.2,344,358.3z M345.9,355.7c1.9-0.8,2.6-1.8,2-3.5c-0.5-1.4-1.7-1.7-3-1.3c-1.5,0.5-2.4,1.5-1.7,3.2
		c0.9,0.8,1.5-0.9,2.3,0C345.6,354.5,345.8,355,345.9,355.7z"/>
	<path d="M346.4,344.5c-1.3,3.3-2.7,4.4-4.9,3.9c-2-0.4-3.3-2-3.3-4.2c0-2.1,1.3-3.7,3.4-4C343.7,340,345,341.1,346.4,344.5z
		 M342,347c1.6-0.5,2.9-1.2,2.6-3c-0.2-1.2-0.9-1.9-2.2-2c-1.3-0.1-2.4,0.5-2.7,1.8C339.3,345.5,340.2,346.5,342,347z"/>
	<path d="M338.8,338.8c-1.1,0.3-1.2,1.7-2.5,1.6c-0.7-1.7,1.6-2.5,1-4c-0.7-1.3-2.1,0.8-2.9-0.9c1.8-1.9,4.4-2.2,6.9-3.2
		c1,1.9,2.4,3.6,1.3,5.8C341.9,339.6,340.4,339.5,338.8,338.8z M340.4,337.7c2.1-0.8,1-2.1,0.4-3.2c-0.9,0-1.5,0.3-2,0.9
		C339,336.2,339.1,337.2,340.4,337.7z"/>
	<path d="M728.6,278c1.8,0.6,2.6,1.9,3.2,3.7C728.5,280.5,728.4,280.5,728.6,278z"/>
	<path d="M481.6,248.7c1.6-1.2,3.2-2.4,5.3-2.1C485.4,248,483.4,248.2,481.6,248.7z"/>
	<path d="M787.8,380.2c1.6-0.7,3.2-2,5.1,0C790.8,381.4,789.3,380,787.8,380.2z"/>
	<path fill="none" d="M826.4,452.7c1.3-0.1,2.4-0.3,3.5,0.3c0.1,1.4-0.7,0.6-1.3,0.6c-0.9,1.2,2.3,1.5,0.6,2.9
		c-1,0.8-1.5-0.9-2.5-0.6c-0.4,0.3-0.9,0.6-1.6,1C824.8,455.2,825.2,454,826.4,452.7z"/>
	<path fill="none" d="M824,453.3c-0.2-2.1,1.3-2.4,3.1-2.5C826,451.6,825,452.5,824,453.3L824,453.3z"/>
	<path fill="none" d="M841.5,451.9c1.4,0.1,1.7,0.7,2.1,1.1C842.5,453.7,842.3,452.8,841.5,451.9z"/>
	<path fill="none" d="M355.3,663.4c-1.1-0.2-0.5-1.1-0.9-1.4c-0.9-1-1.5,0.7-2.4-0.1c-0.6-1.6,0.3-2.6,1.8-3.2c1.3-0.4,2.4,0,3,1.3
		C357.4,661.8,356.4,662.7,355.3,663.4z"/>
	<path fill="none" d="M350.7,654.9c-1.8-0.5-2.7-1.5-2.2-3.3c0.4-1.3,1.4-1.9,2.8-1.8c1.3,0.1,2,0.9,2.1,2.1
		C353.6,653.7,352.4,654.5,350.7,654.9z"/>
	<path fill="none" d="M349.2,645.5c-1.3-0.4-1.4-1.4-1.6-2.3c0.4-0.8,1.2-0.7,1.9-1.1C350.1,643.5,351.3,644.7,349.2,645.5z"/>
	<path fill="none" d="M815.4,146.3c0.1-1.6,0.2-3.1,1.7-4.1c1.2-0.4,2.4-0.1,3.4,0.4c-0.3,0.9-1.1,0.4-1.5,0.9
		c0,0.9,1.7,1.1,0.8,2.4c-1,0.9-1.6-0.7-2.5-0.5C816.6,145.4,816.4,146.5,815.4,146.3z"/>
	<path fill="none" d="M839.2,167.3c1-0.1,1.9,0,2.4,1.1C840.1,169.5,839.7,168.4,839.2,167.3L839.2,167.3z"/>
	<path fill="none" d="M345.9,355.7c-0.2-0.7-0.3-1.1-0.4-1.6c-0.8-0.9-1.4,0.8-2.3,0c-0.7-1.7,0.2-2.7,1.7-3.2
		c1.3-0.4,2.4-0.1,3,1.3C348.6,353.8,347.8,354.9,345.9,355.7z"/>
	<path fill="none" d="M342,347c-1.8-0.5-2.7-1.5-2.3-3.2c0.3-1.4,1.4-1.9,2.7-1.8c1.2,0.1,2,0.9,2.2,2
		C344.9,345.8,343.7,346.5,342,347z"/>
	<path fill="none" d="M340.4,337.7c-1.3-0.4-1.4-1.4-1.6-2.4c0.5-0.6,1.1-0.9,2-0.9C341.4,335.6,342.5,336.8,340.4,337.7z"/>
</g>
</svg>
