<?xml version="1.0" encoding="utf-8"?>
<!-- Generator: Adobe Illustrator 20.0.0, SVG Export Plug-In . SVG Version: 6.00 Build 0)  -->
<svg version="1.2" baseProfile="tiny" id="Layer_2" xmlns="http://www.w3.org/2000/svg" xmlns:xlink="http://www.w3.org/1999/xlink"
	 x="0px" y="0px" viewBox="0 0 900 600" xml:space="preserve">
<g>
	<path d="M680.9,108.8c0.5,0,0.9,0,1.6,0c0.2,0.2,0.6,0.5,0.8,0.9c0.8,1.5,2.1,2.5,3.8,3c4.4,1.3,7.6,4.3,9.5,8.3
		c1.3,2.7,3.2,4.9,5.4,6.9c3.3,3,6.5,6.1,9.8,9.1c2.7,2.5,5,5.3,7.2,8.2c1.8,2.3,2.6,5,2.8,7.9c0.2,2.9,0.2,5.9,0.1,8.8
		c-0.1,4.2-2,7.6-5.4,10.3c-2.5,1.9-5.1,3.4-8.2,4.1c-0.9,1.4-1,3-0.8,4.4c0.6,3.8,0.6,7.7,0.9,11.6c0.1,1.9,0.5,3.8,0.3,5.6
		c-0.3,2.6,0.3,5.5-2,7.6c-0.5,0.5-0.8,1.4-1,2.2c-1.1,3.8-2.3,7.7-3.3,11.5c-0.2,0.7-0.2,1.4-0.2,2.1c0,2,0.1,4,0,6
		c-0.3,5.7-0.3,11.3,0.9,16.9c0.3,1.1,0.5,2.4,0.3,3.5c-0.3,1.8,0.1,3.5,0.6,5.2c0.2,0.6,0.3,1.2,0.5,1.7c2.1,4.1,2.9,8.7,4,13.1
		c1.2,4.4,2.5,8.8,3.7,13.2c0.6,2.3,0.9,4.6,1.1,6.9c0.3,3.1,1,6.3,1.7,9.3c0.3,1.2,1.1,2.3,1.9,3.3c3,3.7,4.7,7.8,5.3,12.5
		c0.2,1.7,0.8,3.5,1.5,5c1.5,3.4,0.9,6.9,0.4,10.4c-0.1,0.5-0.5,1-0.9,1.5c-1.6,1.9-2.9,3.9-3.6,6.4c-0.4,1.5-1.2,2.8-3,3.1
		c-1.4,0.3-2.6,0.4-3.2-1c-1.4-0.4-2.7,0.8-3.8-0.5c0.8-0.2,1.7-0.1,2.3-0.8c2-2.3,3.9-4.7,4.6-7.7c-0.6-1.2-1.1-2.2-1.6-3.3
		c-0.4-1,0-2.4-1.6-3.1c-0.4,2.6-1.3,5,0.2,7.4c-2.7,1.8-3.6,4.4-3.7,7.5c-1.2-0.1-0.7-1.7-2-2c-0.3,0.9-0.6,1.9-0.9,2.9
		c-1.1,4.2-2.2,8.4-3.2,12.6c-0.5,2.1-0.7,4.2-1,6.3c-1.1,7.6-2.5,15.1-4.4,22.5c-0.8,3.2-1.7,6.4-3,9.4c-1,2.5-1.5,4.9-1.6,7.5
		c-0.1,2.8,0.1,5.6,0.2,8.5c0.1,1.3,0.2,2.5-1,3.6c-0.4,0.4-0.6,1.3-0.7,1.9c-0.7,3.3-1.9,6.3-3.7,9.1c-0.7,1-1.1,2.1-1.1,3.3
		c-0.2,4.3-0.3,8.7,0.1,13c0.9,8.4,2.1,16.8,2,25.3c0,3.9-0.2,7.8-0.9,11.6c-0.8,4.5-1.5,9-2.2,13.6c-0.3,2.3-0.4,4.7-0.3,7
		c0.2,7.7,0.5,15.3,0.7,23c0.1,5.2,1.1,10.3,1.8,15.4c0.3,2,0.7,3.9,2,5.8c1.6,0.1,2.9-1.3,4.9-1.3c1.4,0.9,2.8,2.1,4,3.5
		c2.8,3.2,5.6,6.4,8.3,9.6c0.5,0.6,1.2,1.2,1.5,1.9c1,2.3,2.9,3.6,4.8,5c2.3,1.7,4.5,3.4,6.7,5.1c2.7,2.1,5.7,3.2,9.2,3.1
		c2.4,0,4.7,0.5,7,1.5c1.6,3,2.6,6.2,3,9.6c0.1,0.8,0,1.6,0,2.5c-0.1,0.9-0.8,1.6-1.6,1.6c-3.1-0.1-5.8,1.5-8.8,2.3
		c-5.8,1.6-11.5,3.5-17.6,3c-2.1-0.2-4.3-0.3-6.3-0.9c-5.1-1.5-10.1-3.1-14.7-5.9c-2.2-1.4-4.5-1.9-7.1-1.3
		c-4.2,0.8-8.4,1.2-12.6,0.9c-2-0.2-4-0.1-6,0.1c-2.3,0.2-4.4-0.1-6.6-0.7c-2.9-0.7-5.2-2.2-7.1-4.6c0.3-0.8,0.7-1.6,0.9-2.5
		c0.1-0.6-0.6-1.5-0.3-2c1.3-2.2,1.2-4.7,2.2-7c1.8-4.2,2.9-8.7,3.5-13.3c0.4-2.9,1.4-5.4,2.9-7.9c0.7-0.2,1.4-0.3,2.1-0.5
		c0.1-0.3,0.3-0.7,0.3-1c0.8-6.1,0.3-12.2-0.5-18.3c-0.5-3.5-0.8-7-1.2-10.5c-0.2-2.3-0.6-4.6-1.3-6.9c-1.1-3.7-2.1-7.5-3.2-11.2
		c-0.7-2.2-1-4.6-3-6.3c-0.6-0.5-0.8-1.4-1.2-2.2c-1.9-4-2.8-8.2-2.9-12.7c-0.1-2.6,0-5.2,0-7.8c0-2.2,0.1-4.4-0.2-6.7
		c-0.2-2.2,0.2-4.5,0.6-6.7c2-10.4,4.1-20.8,6.1-31.2c0.4-2,0.5-3.9,0.2-5.9c-0.8-4.8-1.3-9.6-1.9-14.3c-0.6-4.9-1.2-9.8-1.8-14.7
		c-0.7-5-0.6-10.1-0.3-15.2c0-0.5,0-0.9,0-1.4c0-0.1-0.1-0.2-0.4-0.4c-0.3,0.5-0.7,0.9-1,1.4c-3.9,6.6-7.8,13.1-11.8,19.7
		c-1,1.7-1.9,3.5-2.5,5.4c-0.9,2.8-1.8,5.6-2.8,8.4c-0.7,1.9-1.5,3.7-2.5,5.5c-1,1.9-2.2,3.6-4.3,4.5c-0.3,0.1-0.6,0.4-0.9,0.6
		c-6.1,4.9-12.1,9.7-18.2,14.6c-1.3,1-2.3,2.4-3.3,3.6c-1.6,1.9-3,3.9-4.7,5.7c-3.8,3.9-7.2,8.1-10.3,12.6
		c-6.5,9.4-14.1,17.9-21.3,26.8c-0.7,0.8-1.4,1.7-2.2,2.3c-2.3,1.9-3.9,4.3-5.2,7c-2,4-4.2,7.9-6.3,11.8c-0.9,1.7-1.5,3.4-1.9,5.3
		c-0.8,3.4-1.9,6.8-2.9,10.4c0.8,0.4,1.6,0.7,2.5,1.2c0.5,4.4-0.4,8.5-3,12.2c-2.1,3.2-3.7,6.5-3.5,10.5c0.1,2.2-0.2,4.5-0.8,6.6
		c-0.2,0.8-0.3,1.6-0.4,2.4c-0.1,1.3,0.2,2.5,1.1,3.6c1.2,1.5,2.2,3.1,3.9,4c0.9,0.4,1.3,1.3,1.6,2.2c0.6,2.3,1.1,4.6,1.2,6.9
		c0,2-0.9,3.6-2.8,3.9c-1.9,0.4-3.5,1.2-5.1,2.2c-1.3,0.9-2.9,0.9-4.5,0.7c-2.4-0.4-4.8-0.9-7.3-1.4c-1-0.2-2.1-0.6-3.1-0.5
		c-3.8,0.2-7-1.4-9.5-4c-3.7-3.8-7.3-7.6-10.4-12c-1.6-2.3-2.5-4.7-2.3-7.6c0.2-3.1,0.1-6.1,0.3-9.2c0.1-1.7-0.2-3.3-1-4.8
		c-1-2-2-4-3-6c-0.9-1.8-1.8-3.6-2.6-5.4c-0.4-1-0.6-2-0.8-3.1c-0.4-1.8,0.3-3.5,0.7-5.2c-0.9-1.8-0.9-3.6-0.6-5.5
		c0.2-1.7,0.4-3.5,0.8-5.2c0.5-2.1,1.1-4.1,1.7-6.1c0.5-1.7,1.7-2.7,3.4-2.4c3.6,0.6,6.6-0.9,9.8-2c1.2-0.4,2.4-0.9,3.7-1.1
		c2-0.3,3.8-1,5.4-2.3c1-0.8,2.1-1.5,3.3-2c0.9-0.5,2-0.7,3.1-1c1.1,0.7,2.2,1.3,3.5,2.1c0.4-0.5,1-1,1.3-1.5
		c2.4-3.8,4.9-7.5,7.2-11.3c0.6-1,1-2.1,1.3-3.3c2.1-8,4.7-15.8,7.8-23.4c0.5-1.2,0.9-2.4,1.2-3.7c1.5-6.2,4.5-11.6,8.2-16.7
		c1.1-1.5,2.3-3,3.6-4.4c6-6.5,12.1-12.9,19.5-17.8c2.7-1.8,4.9-4,6.4-6.9c2-3.6,4.3-7,6.3-10.6c1.8-3.2,2.7-6.6,2.9-10.4
		c0.3-8.5,1.5-16.9,3.5-25c-0.4-0.7-0.8-0.5-1.3-0.4c-2.9,0.8-5.8,0.7-8.7-0.2c-1.8-0.6-3.2-1.7-3.5-3.6c-0.5-2.4-0.9-4.9-1.1-7.3
		c-0.3-4.9,0.2-9.9,0.7-14.8c0.7-6.1,2.1-12.1,3-18.1c0.9-6.1,3.5-11.7,5.4-17.4c0.5-1.6,1.8-3,2.9-4.4c0.9-1.2,2.3-1.7,3.7-1.7
		c1.6,0,3.2,0.2,4.9,0.2c0.4-1.6,0.6-3.2,1.1-4.7c0.5-1.4,1.2-2.8,1.8-4.2c0.7-1.5,1.5-2.9,2.3-4.3c-0.5-3.9-1.1-7.9-1.5-11.9
		c-0.3-3.2-0.5-6.3-0.5-9.5c-0.1-5.8,0-11.5,0.1-17.3c0-1.6,0.1-3.3,0.4-4.9c0.7-4.9,1.1-9.8,1-14.8c-0.1-2.9-0.1-5.9,0.5-8.8
		c0.2-1,0.2-2.1,0-3.2c-1.1-6.9-1.5-13.8-1.4-20.8c0.1-6.6,0.4-13.2,0.5-19.8c0-2.6-0.2-5.2,0.1-7.7c0.1-0.9-0.3-1.8-0.5-2.8
		c-1.2-4.5-1-9.1-0.1-13.6c1.1-5.1,2-10.1,2.9-15.2c1-5.5,3.9-9.8,8.1-13.3c1.7-1.4,3.6-2.6,5.2-4.3c0.8-0.9,2.1-1.5,3.2-2.1
		c2.9-1.7,5.5-3.6,8-5.8c1.2-1.1,2.2-2.4,2.7-4c0.6-1.7,1.1-3.3,1.7-5c0.3-1.1,0.4-2.2,0.3-3.4c-0.2-2,0-4-0.1-6
		c-0.1-2.1-0.5-2.3-2.6-1.5c-0.6-0.8,0.4-1.2,0.5-1.9c-0.3-0.2-0.5-0.4-0.9-0.8c0.9-2.4-0.4-4.3-1.7-6.8c-0.1,1.3-0.2,2.1-0.3,3.1
		c-1.8-2-1.5-4.7-3-7c-0.4,1.2-0.3,2.2-0.3,3.2c0,1.2,0,2.4,0,3.5c0,1.1,0,2.1,0.1,3.2c0.2,2,0.4,4,0.7,6c0.3,1.9,0.2,3.6-0.5,5.5
		c-0.8,2-0.8,4.4-1.3,6.6c-0.6,2.9-1.9,5.6-3.5,8c-0.3,0.5-0.9,0.7-1.3,1.1c0,0,0.1,0.1,0.1,0.1c0.4-2.3-0.1-4.6-0.3-6.9
		c-0.2-2.2-0.6-4.5-0.5-6.7c0.2-9.3,0.5-18.6,0.7-27.9c0-0.3,0.2-0.7,0.5-1.8c0.1,2,0.2,3.3,0.2,4.6c0.1,6.6,0.1,13.2,0.2,19.8
		c0.1,3.3,0.4,6.6,0.7,9.9c0.1,0.8,0.4,1.5,0.8,2.7c0.8-1.6,1.2-2.8,0.9-4.1c-1.5-8.1-1.1-16.2-1-24.3c0-2.6,0.4-5.1,1.1-7.7
		c0.1,0.4,0.2,0.9,0.3,1.3c0,0.6,0,1.2,0,1.8c0,5.9-0.1,11.8-0.1,17.7c0,2.2,0.2,4.5,0.3,6.7c0.9-0.2,0.9-0.8,0.9-1.3
		c0-2.5,0.2-5,0-7.4c-0.4-4.5-0.4-8.9,0.1-13.4c0.1-0.7,0.1-1.4,0.2-2.1c0.3-2.2,0-4.2-0.8-6.2c-1.5-3.5-1.7-7.3-1.9-11
		c-0.1-1.5-0.1-3-0.2-4.7c-1.1,1.9-1.2,2-1.1,6.2c0,2,0.4,3.9,0.7,6.3c-1.2-2.1-1.1-2.1-1.3-5.1c-0.1-1.7-0.1-3.5-0.3-5.1
		c-1,0-1.2,0.6-1.5,1.1c-2.2,3.9-2.9,8.2-3.2,12.5c-0.1,1.4,0,2.8,0,4.2c0.1,3.4,0.3,6.8,0.4,10.2c0,1,0,1.9,0.8,2.6
		c0.7,0.6,0.8,1.4,0.8,2.2c0,0.8,0.1,1.6,0.1,2.5c0.1,5.4,0.2,10.8,0.1,16.2c-0.1,2.8-0.5,5.6-0.9,8.4c-0.1,1.2-0.2,1.1-2,2.5
		c-0.1-0.5-0.4-0.9-0.4-1.2c0.1-1.6,0.3-3.3,0.5-4.9c0.4-2.2,0.4-4.4,0.3-6.9c-1.5,3.3-2.6,7.2-3.1,10.5c-0.3,2-0.3,2-1.3,3.8
		c-0.3-0.6-0.4-1.1-0.7-1.9c-0.5,0.9-0.9,1.6-1.4,2.4c-0.1-0.1-0.4-0.3-0.4-0.4c0.3-1.7,0.5-3.5,1-5.2c1.2-3.7,1.1-7.4,0.6-11.2
		c-0.4-2.6-0.5-5.2-0.8-7.7c-0.5-3.5-1-7-1.6-10.5c-0.3-1.7-0.8-3.4-1.5-5c-0.6-1.3-1-2.9-1.1-4.4c-0.5-8.1,0.4-16,3.1-23.6
		c1.7-4.9,4.2-9.2,7.8-12.9c0.8-0.8,1.5-1.8,2.5-2.9c2.8-0.3,5.9,0.5,9.1,0.6c2.8-2.3,5.6-4.5,8.3-7c1.2-1.1,2.4-1.9,3.8-2.4
		c0.8-0.3,1.6-0.6,2.4-0.7c4.5-0.9,9-1.4,13.6-0.9c4.5,0.5,8.9,1.2,13.1,2.8c0.4,0.2,0.9,0.4,1.3,0.4c4,0.3,6.9,2.7,9.7,5.4
		c0.8,0.8,1.5,1.8,2,2.9c1.1,2.1,2,4.3,3,6.4c0.8,1.8,1.6,3.7,2.4,5.5c1.1,2.4,1.3,5,1,7.6c-0.1,0.7-0.4,1.3-0.7,2
		c-0.4,0.7-0.9,1.4-1.4,2.1c0.6,0.4,1.1,0.6,1.6,1c-0.5,0.5-1,0.9-1.6,1.5c0.7,2.5,1.3,5.1,3.3,7.1c0.4,0.4,0.7,0.9,1,1.4
		c0.9,1.8,0.6,3.4-0.9,4.7c-0.6,0.5-1.3,0.9-2.1,1.5c0.1,0.8,0.1,1.6,0.3,2.4c0.6,1.7,0.5,3.2-1,4.3c0.3,1.1,0.8,2.1,0.8,3.1
		c0,0.7-0.6,1.4-1.1,2.3c0.2,0.7,0.5,1.6,0.7,2.5c0.6,2.4-0.4,4.5-2.6,5.5c-1.1,0.5-2.2,1-3.3,1.1c-3.5,0.3-7,0.7-10.5-0.5
		c-0.3-0.1-0.7,0-1.1,0c-0.1,0.4-0.4,0.9-0.4,1.3c-0.1,0.8-0.2,1.7,0,2.5c0.9,4.7,0.2,9.4-0.2,14c-0.2,3.3-0.2,6.6-0.4,9.9
		c-1.8-0.3-2.1-1.7-2.2-3.2c-0.2-3.1,0.1-6.1,0.7-9.1c0.5-2.2,0.5-4.4,0.2-6.6c-0.3-2.3-0.4-4.7-0.3-7c0.1-2,1.1-3,3.1-3.1
		c1.6-0.1,3.4-0.4,4.9,0c2.8,0.8,5.3-0.1,8-0.6c1.5-0.3,2.2-1.4,2.3-2.8c0.1-0.8-0.2-1.6-0.4-2.4c-0.2-0.6-0.5-1.3-0.8-1.9
		c0.8-0.9,1.4-1.7,2.1-2.5c-0.7-1.4-1.6-2.1-3.1-2c-1.2,0.1-2.3,0-3.5-0.2c-0.4-0.1-0.8-0.5-0.4-1.2c1.2,0,2.4,0,3.7,0
		c1.5,0,2.8-0.4,3.5-1.8c-0.5-1.5-1-3.1-1.5-4.5c-0.6-0.4-1.5,0.3-1.9-0.7c0.7-1.2,1.7-2,3.1-1.3c1.3,0.6,2.1,0,2.8-0.8
		c0.6-0.7,0.1-1.6-0.4-2.3c-0.3-0.4-0.6-0.7-0.9-1.1c-1.6-2.5-2.9-5.1-3.6-8c-0.5-2.1-0.6-4.1,1.7-5.6c1.4-0.9,1.6-1.9,0.8-3.4
		c-1.2-2.3-1.7-4.9-2.5-7.3c-0.4-1.1-0.7-2.2-1-3.4c-0.5-1.9-1.6-3.4-3.8-3.9c-0.5,1.2-1.4,0.7-2.3,0.3l-0.1-0.2
		c0,0,0.2,0.1,0.2,0.1c-0.9,0.5-1.7,1-2.5,1.4c-1.1-0.5-1.9-1.1-2.9-1.4c-0.6-0.2-1.3,0.1-2,0.1c0.2-0.4,0.4-0.8,0.7-1.3
		c-3.8-1.9-7.4-3.7-11.4-4.9c-0.7-0.2-1.4-0.4-1.9,0.3c-0.7-0.8-1.4-1.5-2.6-1.5c-1.3,0-2.6-0.2-3.9-0.1c-2.8,0.1-5.5-0.3-8.6-0.6
		c0.9-0.4,1.4-0.6,1.9-0.9c0-0.5,0-0.9,0-1.4c-3.7-0.2-5.3,0.5-6.3,2.9c4.3,0.8,8.5,1.7,12.8,2.5c0.6,0.1,1.2,0.4,1.7,0.3
		c0.5,0,1-0.4,1.6-0.6c0,0-0.1,0.1-0.1,0.1c0.8,0,1.5,0,2.3,0c0.6,0,1.1-0.2,1.1-0.9c1.3,0.5,2.5,1.2,3.8,1.6c3.1,1.1,6.3,2.1,9,4.3
		c-0.3,0.4-0.5,0.8-0.9,1.1c-0.7,0.4-1.2,0.6-2.1,0.1c-1.8-0.9-4-0.9-5.7,0c-1.4,0.7-2.5,0.9-3.9,0.5c-0.5-0.1-1.1,0-1.9,0
		c0.3,0.5,0.4,0.9,0.7,0.9c2.2,0.5,4.5,1.1,6.8,0.2l-0.1-0.1c0.9,3.2-0.5,6.2-1.1,9.3c-0.5,0.7-1.6,0.8-1.8,2
		c-0.1,0.9-1,1.7-0.3,2.9c-2.2,1.6-4.5,3.1-6.6,4.7c-0.9,0.7-1.7,1.7-2.7,2.3c-0.9,0.6-2,0.8-3.3,1.2c0.6,0.1,1,0.2,1.3,0.2
		c1,0,2-0.1,3.1-0.2c-1.3,2-2.3,2.5-4,2c-1.5-0.5-2.7-1.5-3.7-2.6c-0.5-0.6-1-1.3-1.6-1.9c-1.2-1.1-2.5-1.1-3.8-0.1
		c-1.8,1.5-2.9,3.4-3,5.8c0,0.3,0.2,0.6,0.3,0.9c0.2-0.1,0.3-0.2,0.4-0.3c0.3-0.6,0.5-1.3,0.8-2c0.3-0.8,0.7-1.5,1.1-2.2
		c0.5-0.9,1.6-1.2,2.5-0.6c1,0.6,1.9,1.4,2.8,2.1c1.4,1.1,1.7,2.5,1.3,4.1c-0.1,0.5-0.4,1-0.5,1.5c0.9,1.1,2.4,1.1,2.6,2.6
		c-0.4,1-0.9,2-2.4,2.4c-0.7-1.8-1.4-3.5-2.1-5.2c0.5-0.9,0.9-1.7,1.4-2.5c-0.5-0.5-0.8-0.9-1.2-1.5c-0.8,1.1-1.6,2-2.2,2.8
		c0,1.7,0.4,3.1,1.4,4.3c0.3,0.4,0.6,0.8,0.7,1.2c0.1,0.3,0.1,0.8,0,1c-0.3,0.3-0.9,0.5-1.2,0.4c-1.5-0.4-2.3-1.5-2.8-2.9
		c-0.3-0.8-0.3-1.6-0.4-2.4c-2-0.6-2-0.6-2.7,0c0.1,0.2,0.1,0.5,0.2,0.6c2.2,3.1,4.4,6.1,6.6,9.2c0.6,0.9,1.5,1.5,2.8,1.6
		c0.3-0.3,0.6-0.6,1-0.8c0.3-0.2,0.4-0.9,1-0.5c0.4,1.7,0.1,2.6-1,2.9c-1.1,0.3-2.2,0.5-3.4,0.7c-0.9-1.3-1.7-2.4-2.3-3.1
		c-2.8-0.9-5.1-1.7-7.4-2.5c-0.1,0-0.1-0.1-0.2-0.1c0.1,0,0.2,0,0.3,0c0.4,3.2,0.8,4,2.5,4.7c-0.1-0.4-0.1-0.8-0.2-1.5
		c0.9,0.4,1.6,0.7,2.4,0.9c0.9,0.2,1.8,0.2,2.8,0.3c0.4,2.6-2.4,2.3-3.3,4.1c0.1,1.3,0.2,2.9,0.5,4.6c0.3,2.2,0.3,4.4-0.1,6.6
		c-0.6,3-1.6,5.9-3.1,8.7c2.8,2.1,5.5,4.3,8.3,6.1c6.4,4.2,11.7,9.5,15.9,15.8c2.2,3.3,4.7,6.2,7.7,8.7c4.5,3.9,9.2,7.7,13.8,11.6
		c2.2,1.8,4.4,3.5,6.1,5.8c0.6,0.8,1.7,1.2,2.6,1.7c0.6,0.3,1.3,0.6,2.1-0.1c-0.2-0.6-0.4-1.2-0.7-1.8c-0.4-0.7-0.8-1.4-1.3-2.1
		c-0.4-0.6-0.9-1.1-1.3-1.7c-0.4-0.6-1.3-0.9-1.2-2c1.4,0.3,2.2,1.1,2.9,2c0.8,1,1.5,2.1,2.1,3.2c0.6,1,1.1,2,1.5,2.9
		c1.1-0.1,0.8-1.7,2.1-1.3c0.1,0.8,0.2,1.6,0.2,2.4c0,0.9-0.7,1.5-1.6,1.5c-0.6,0-1.2-0.1-1.7-0.3c-2.9-0.8-5.6-2.1-7.5-4.4
		c-1.7-1.9-3.7-3.2-5.7-4.6c-6.8-4.7-13.1-10-18-16.8c-3.2-4.5-7-8.6-10.8-12.5c-2-2-4.2-3.8-6.4-5.6c-2.7-2.2-5.5-4.4-8.3-6.5
		c-0.5-0.4-1.1-0.7-1.8-1.1c-0.7,0.9-1.2,1.6-1.8,2.4c-4.3,3.7-8.8,7.1-13.5,10.2c-1.2,0.8-2.3,1.7-3.3,2.6
		c-3.1,2.8-5.5,6.1-6.6,10.2c-1.7,6.3-2.9,12.6-3.6,19.1c-0.3,3.3-0.1,6.6,0.6,9.8c0.4,1.7,0.8,3.4-0.1,5.2
		c-0.3,0.5-0.1,1.1-0.2,1.7c-0.2,11.8-0.6,23.5,0.5,35.3c0.2,2.3,0.1,4.7,0.6,7c0.4,1.7,0.4,3.2,0.1,4.8c-0.7,3.7-1.2,7.4-0.4,11.2
		c0.1,0.3-0.1,0.7-0.1,1c-0.1,1.2-0.2,2.3-0.3,3.5c-0.1,0.8,0,1.6-0.1,2.4c-0.8,5.1-1.5,10.2-1.1,15.4c0.2,2.3,0.1,4.7,0.2,7.1
		c0.2,5.1,0.4,10.1,0.8,15.2c0.1,1.6,0.8,3.2,1,4.8c0.3,2.4,0.5,4.9,0.8,7.4c0.7,6.4,1.4,12.9,2,19.3c0.1,1.3,0.4,2.7,0,3.8
		c-0.6,1.6-0.5,3.2-0.4,4.8c0.1,4.3,0.6,8.7-1.5,12.7c-0.2,0.4-0.2,0.9-0.3,1.4c-0.6,3.1-1.2,6.2-1.8,9.4c-0.4,2,0.4,3.7,1.4,5.3
		c1,1.4,2.4,2.1,4.1,1.5c1.2,1.2,2.2,2.3,3.3,3.3c1.7,1.5,2.6,2,4.3,2.4c-0.6-1.2-1.1-2.2-1.6-3.2c-0.2-0.4-0.4-0.8,0.4-1.2
		c0.7,0.9,1.4,1.8,2.1,2.7c1,1.2,1.9,2.4,2.9,3.5c0.3,0.4,0.8,0.5,1.2-0.2c-0.6-1.5-1.3-3.1-1.9-4.7c0-0.1,0.1-0.2,0.3-0.4
		c3,1.4,3.1,5,5.1,7.2c0.7,0,1.4,0,2.1,0c2,0,3.1-0.9,3.3-2.9c-0.7-0.7-1.5-1.4-1.1-2.7c1.2,0.2,2.3,0.4,3.3-0.7
		c0.2-1.2,0.4-2.4,0.6-3.7c0.2-1.4,0.7-2.7,0.3-4.2c-1.2-0.4-2.3-0.6-3.5-0.5c0.4-1,1.1-1.5,2.2-1.5c0.8,0,1.6-0.1,2.3-0.2
		c1.1-2.7,0.9-5-1.2-6.9c-0.7-0.6-1.3-1.3-2-2c-0.6-0.7-1.3-1.4-1.8-2.2c-2.3-3.7-4.2-7.6-5-11.9c-0.3-1.7-0.4-3.6-1.2-5.1
		c-1.9-3.8-2.3-7.9-2.3-12c-0.1-5.8,0.3-11.5,1.2-17.2c0.5-3.4,0.6-6.8,1.1-10.2c1.4-9,1.2-18.1,0.1-27.1c-0.7-6.1-0.3-12,1.7-17.7
		c2-5.8,3.5-11.7,4.7-17.7c1.3-6.3,2.8-12.6,4.2-18.9c1.4-6.4,2.7-12.9,4.1-19.3c0.2-0.8,0.4-1.6,0.7-2.3c0.6-1.5,1.3-3,1.8-4.6
		c0.8-2.7,1.5-5.4,2.3-8.2c0.2-0.5,0.2-1.3,1.2-1.4c-0.4,2.3-0.8,4.4-1.2,7c1.1-0.9,2-1.5,2.8-2.2c0,0-0.1-0.1-0.1-0.1
		c-0.1,0.5-0.1,1.2-0.4,1.6c-0.6,0.8-1.4,1.5-2.1,2.3c-0.5,0.5-1,1-1.3,1.6c-0.8,1.6-1.5,3.2-2.1,4.8c-0.4,0.9-0.6,1.9,0,3.1
		c3.3-1.8,6.5-3.6,9.7-5.3c1.8-1,2.8-2.4,3.4-4.3c0.8-2.6,1.4-5.2,1.4-7.9c0.1-9.2-2.4-17.6-8.4-24.8c-0.5-0.6-1-1.3-1.6-1.9
		c-3.8-4.5-7.8-8.8-12.4-12.4c-0.7-0.6-1.6-1-1.7-2.1c1.5,0.2,2.5,1.2,3.6,2.1c2.8,2.3,5.6,4.6,8.4,7c1.4,1.2,2.8,2.5,4.1,3.9
		c8.1,8.4,11.3,18.6,10.2,30.1c-0.5,5.5-2.7,10.2-8.2,12.7c-2,0.9-3.9,2.2-5.9,3.3c-1.1,0.6-2.3,1.1-3.5,1.8
		c-1.4,6.8-3.1,13.7-4,20.7c-0.3,2.8-0.3,5.6-1.4,8.3c0,0.1,0.2,0.4,0.4,0.7c1.1-0.4,2.1-1,3.2-1.1c2.5-0.2,4.8-1,7.2-1.8
		c4-1.5,8.2-2.1,12.5-2c4.4,0.1,8.7-0.5,13-1.1c4.4-0.7,8.9-1,13.3,0.3c0.8,0.2,1.6,0.2,2.4-0.1c1.7-0.6,3.2,0.2,4.5,1.3
		c0.1,0.1,0,0.4,0,0.6c0,0.1-0.2,0.2-0.2,0.2c-0.3,0-0.7,0.1-1,0c-1.2-0.4-2.4-1-3.7-1.1c-4.2-0.3-8.5-0.7-12.7,0.1
		c-5.3,1-10.7,1.5-16.1,1.4c-4.4-0.1-8.7,0.7-12.8,2.1c-1.3,0.5-2.7,1-4.1,1.2c-2.2,0.2-4,1.1-6.1,1.7c-0.3,1.3-0.5,2.4-0.7,3.6
		c-0.9,5.5-2,10.9-4.6,15.9c-0.6,1.1-0.9,2.4-1.1,3.7c-1.7,8.6-1.9,17.3-0.4,26c0.2,1.3,0.4,2.6,0.4,3.9c-0.1,2.7-0.3,5.4-0.5,8.1
		c0,0.7,0,1.3,0,2.1c1.2,0.3,2.2,0.6,3.2,0.8c4.9,1.1,9.9,2,14.8,3.3c9.7,2.6,19.5,5.5,29.1,8.3c2.4,0.7,4.6,0.6,6.8-0.5
		c2.2-1.1,4.4-2.2,6.6-3.4c1-0.6,2.1-1.1,2.7-2.3c-0.6-4.1-1.2-8.3-1.8-12.5c-0.1-0.7-0.2-1.4-0.2-2.1c-0.3-5.5-0.2-11.1,0.3-16.6
		c0.1-0.8,0.1-1.7-0.1-2.4c-0.4-1.3-0.1-2.5,0.1-3.8c1.1-5.1,2.5-10,4.3-14.9c0.5-1.5,0.8-2.9,0.8-4.5c0.1-4.8,0.2-9.6,0.4-14.5
		c0-1-0.1-1.8-0.5-2.7c-0.6-1.4-0.7-3-0.2-4.5c0.4-1.1,0.8-2.2,1.2-3.3l-0.1,0.1c1.9,0,3.6-0.9,5.3-1.7c3.2-1.5,5.3-3.8,6-7.3
		c1.1-5.2,1.3-10.5,0.6-15.8c-0.3-2.6-1.5-4.6-3.6-6.2c-3.6-2.7-6.8-5.9-9.5-9.4c-3.6-4.7-8.3-8.3-12.7-12.2c-0.2-0.2-0.6-0.2-1-0.3
		c0-0.5-0.2-0.7-0.7-0.7c0-0.1-0.1-0.2-0.1-0.3c0,0-0.1,0-0.2,0c0.1,0.1,0.3,0.1,0.4,0.2c-0.1,0.5,0.1,0.8,0.7,0.7
		c-0.1,1.2,0.8,1.6,1.5,2.2c2.8,2.7,5.7,5.3,8.5,8c1.7,1.6,3.3,3.4,4.4,5.5c0.2,0.4,0.5,0.8-0.1,1.1c-0.1,0-0.2-0.1-0.3-0.1
		c-5.3-5.3-10.7-10.6-15.9-16.1c-3-3.2-5.6-6.7-8.3-10.1C681.2,111.1,680.5,110.1,680.9,108.8z M664.6,296.7
		c0.3-0.2,0.5-0.4,0.8-0.6c0.7-0.3,1.4-0.5,2.1-0.8c-0.2,0.7,0.4,1.6-0.1,2.1c-0.6,0.1-1.2,0-1.4,0.2c-1.5,1.5-2.4,3.5-3,5.5
		c-2.3,7-4.2,14.1-5.3,21.4c-0.7,4.5-1.3,9-1.8,13.6c-0.5,4.8-0.7,9.6,0,14.4c0.2,1,0.1,2.1,1.2,2.7c0,0-0.2,0.6-0.3,1
		c-0.5-0.3-0.9-0.5-1.3-0.7c-0.1-0.3-0.1-0.6-0.2-1c-0.4,0.5-0.2,0.8,0.3,0.9c0,0.3,0.1,0.7,0.1,1.1c1.2,0.5,2,0.2,2.7-0.8
		c1.8-2.7,3-5.6,4-8.6c3.5-11,5.8-22.3,6.6-33.9c0.1-1.2-0.1-2.4,0.1-3.5c0.7-4,0.1-8-0.4-11.9c-0.1-0.9-0.3-1.9-1.3-2.3
		c0.3-0.8-0.1-1.1-0.8-0.9c-0.8,0.2-1.4,0.7-1.2,1.7C665.2,296.4,664.9,296.5,664.6,296.7l-0.1,0.2L664.6,296.7z M633.6,24.8
		c-0.5-0.1-0.8,0.1-0.7,0.7c-0.5-0.1-0.8,0.1-0.7,0.7c-0.3,0-0.8,0-1,0.2c-2.9,3.2-5.1,6.7-5.3,11.1c-0.4,0.2-0.7,0.3-0.3,0.8
		c0.1-0.3,0.1-0.6,0.2-0.9c0.1-0.2,0.4-0.3,0.4-0.5c1.2-3.4,3-6.4,5.3-9.2c0.3-0.4,0.5-1,0.7-1.5c0.5,0,0.7-0.2,0.7-0.7
		C633,25.2,633.2,24.9,633.6,24.8c0-0.1,0-0.2,0.1-0.3C633.6,24.6,633.6,24.7,633.6,24.8z M670.9,19.1c0.5,0.2,0.9,0.7,1.7,0.1
		C671.9,19.2,671.3,19.2,670.9,19.1c-0.3-0.6-0.6-0.9-1.4-0.3C670,18.9,670.5,19,670.9,19.1z M681.6,17.6c0.3,0.7,0.8,0.8,1.5,0.6
		c0,1,1,1.2,1.4,1.8c0.5,0.7,1,1.5,1.6,2.1c0.3,0.3,0.9,0.2,1-0.7c-1.4-0.8-2-2.8-4.1-3.1c-0.3-0.7-0.9-0.7-1.5-0.6
		c-0.3-0.8-0.9-1.2-1.8-0.9C680.3,17.1,680.9,17.3,681.6,17.6z M642.7,58.6c0-0.3,0.1-0.7-0.4-0.3C642.4,58.4,642.5,58.5,642.7,58.6
		c-0.1,0.6,0.2,1,0.9,1.2c0.4,0.1,0.9,0.1,1.4,0.1c-0.1,0.6,0.2,1.1,0.7,1.5c1.6,1,3.2,1.6,5.2,1.8c0-1.4-0.9-1.9-1.7-2.5
		c-0.1-1.3-1-2.1-1.6-3.1c-0.6-0.9-1.2-1.7-1.7-2.7c-0.2-0.5-0.5-1.3-0.2-1.7c0.9-1.5,0.7-3.2,0.9-4.8c0.3-2.6,2-4.2,4.1-5.3
		c0.5-0.3,1.1-0.3,1.7-0.2c0.7,0.1,1.3,0.4,2,0.5c0.6,0.1,1.3,0,1.4-1.1c-4.4-0.5-8.5-2.1-12.9-2.3c-1.5-0.1-2.9-0.8-4.4-1.2
		c-0.4-0.1-0.8-0.5-1.3,0.2c0.3,1.4,1.3,2.4,2.5,3.1c1.2,0.7,2.5,1.3,3.8,1.9c0.5,0.3,1.1,0.6,1.6,0.8c-3.1,0.4-5.3-1.4-7.7-2.8
		c-0.1,0.3-0.4,0.5-0.3,0.7c0.7,2,2.4,3,4.1,4.2c-1.4,0.9-2.3-1-3.6-0.6c0.5,3.4,2.4,5.7,4.8,7.7c0.6,0.5,1.3,1,1.9,1.6
		c0.1,0.1,0,0.4,0.1,0.6c-0.4,0-0.8,0-1.6,0c1.9,2.2,4.1,3.5,6.5,4.4c-0.4,0.2-0.8,0.5-1.1,0.4c-1.1-0.3-2.2-0.7-3.2-1
		C644.3,59.4,643.8,58.4,642.7,58.6z M672.3,12c0.5,0.1,1,0.2,1.5,0.3c0-0.1,0-0.2,0-0.3C673.3,12.1,672.8,12.1,672.3,12
		c-0.2-0.5-0.6-0.6-1.1-0.6c-1.1,0-2.1,0-3.2,0c-0.4-0.2-0.8-0.6-1.2-0.6c-3.3-0.3-6.6-0.2-9.9,0.5c3.7,0,7.4,0,11.1,0.1
		C669.4,12.2,670.9,11.7,672.3,12z M650.5,52.3c1.2-0.7,2.1-1.6,2.8-3.2c-0.6-0.1-1.1-0.4-1.3-0.3C650.9,49.7,650.2,50.8,650.5,52.3
		c0,0.1-0.1,0.2-0.2,0.2C650.3,52.4,650.4,52.3,650.5,52.3z M688.7,115.1c-0.1,0-0.1,0-0.2-0.1C688.6,115.1,688.7,115,688.7,115.1
		c0.1,0.2,0.1,0.7,0.3,0.8c1.4,1.3,2.9,2.6,4.4,3.8c0.2,0.2,0.6,0.1,1,0.2l0,0.2l-0.1-0.1C693,117.7,691.3,115.9,688.7,115.1z
		 M666.8,32.4c-0.7-0.4-1.3-1-2.4-0.1C665.4,32.3,666.1,32.3,666.8,32.4c0.5,0.2,0.8,0.6,1.2,0.6c1.9,0.1,3.7-0.4,5.3-1.4
		c0.3-0.2,0.3-0.7,0.5-1.1c-2-0.1-2.1-0.1-2.8,0.3C669.6,31.6,668.4,32.5,666.8,32.4z M710.6,330.7c1.2-1.6,1.2-3.5,1.3-5.4
		c0.1-1.2-0.3-2.6,1-3.5c0.2-0.2,0.3-0.6,0.3-1c-0.2-2-0.4-4-1.5-5.7c-0.2-0.4-0.5-0.8-1.3-0.5c-0.4,1.4-0.3,2.8-0.2,4.2
		c0.6,0.3,1.1,0.6,1.7,0.9c-0.3,0.3-0.5,0.5-0.8,0.7c-0.4,0.3-0.8,0.5-1.2,0.7c-0.3,2.6-0.6,5.2-0.9,7.5c0.7,0.9,1.2,1.5,1.7,2.1
		c-0.7-0.2-1.4-0.2-1.9,0.3c-0.4,0.5-0.7,1.1,0.1,1.7C709.4,332.1,710,331.4,710.6,330.7z M617.2,307.3c0.2-0.1,0.5-0.3,0.5-0.4
		c0.2-1.9,0.5-3.7,1.1-5.5c0.3-0.8,0.1-1.9-0.2-2.8c-0.6-1.7-0.6-3.5-0.6-5.2c0.1-2.7,0.3-5.4,0.4-8.1c0.2-4.6-0.4-9.1-1.1-13.6
		c0-0.1-0.2-0.1-0.6-0.2c-1.6,3.7-3.2,7.4-3.5,11.4c2.2,2.2,2.6,2.9,3.1,5.5c0.2,1,0.3,2.1,0.3,3.2c0.1,3.8,0.8,7.5,0.5,11.2
		C617,304.3,617.2,305.8,617.2,307.3c-0.4,0.4-0.6,0.9-0.2,1.7C617.1,308.3,617.1,307.8,617.2,307.3z M647,28.3
		c-1.1-0.4-1.1-0.4-0.8-1.6c0.9,0.3,1.8,0.5,2.6,0.9c2.9,1.4,5.9,2.4,9,3.1c1.1,0.3,2.3,0.4,3.5,0.2c2.2-0.3,4.4-0.8,6.5-1.4
		c1.4-0.4,2.6-0.8,4.1-0.5c0.7,0.1,1.5-0.2,2.4-0.4c0-0.9,0-1.5,0-2.3c-3.2,1.8-6.4,2.2-9.8,1.6c0-0.7,0.1-1.1,0.1-1.6
		c0.5-0.2,1.1-0.4,1.7-0.7c-2.2-1.1-4.4-1.7-6.7-2c-4.5-0.6-8.9-2.3-13.5-1.9c-0.3,0-0.9-0.5-0.9-0.8c-0.1-0.4,0.3-0.9,0.6-1.1
		c0.8-0.6,1.7-0.7,2.7-0.5c2.3,0.4,4.6,0.8,6.9,1.2c2.4,0.5,4.8,1.2,7.2,1.7c0.8,0.2,1.7,0.5,2.1-0.6c0,0-0.1,0.1-0.1,0.1
		c2.4,0.2,4.8,0.3,7.4,0.5c-0.7-0.6-1.3-1-1.8-1.4c0.1-0.1,0.2-0.2,0.2-0.2c0-0.2-0.1-0.3-0.2-0.5c-0.8-1-2.1-1.4-3.1-1.4
		c-2.1,0-4.1-0.5-6.2-0.7c-4.5-0.5-9.1-0.7-13.9-1.1c-2.2,1.8-4.7,3.5-6.4,6.2c0.6,0.5,1,0.9,1.4,1.3c-0.7-0.1-1.5-0.1-1.6,1
		c1,1.3,2.5,2,4,2.7c1.6,0.7,3.2,1.3,4.8,2.1c1.4,0.6,3,0.7,4.5,2.1c-1-0.1-1.6-0.1-2.1-0.2c-4.2-0.8-8-2.6-11.6-4.9
		c-0.2-0.1-0.4,0-0.8,0c-0.2,0.4-0.4,0.8-0.6,1.4c0.7,0.6,1.4,1.3,2.1,1.8c1.4,0.9,2.8,1.7,4.3,2.5c1,0.6,2.1,1,3.3,1
		c1.5,0,3,0.4,4.3,1.3c-0.6,0.1-1.1,0.1-1.8,0.2c0.7,1,2,0.9,2.3,2l0.1-0.1c-0.5-0.1-1-0.1-1.4-0.2c-4.3-1.7-8.4-3.5-12.2-6.2
		c-0.3-0.2-0.8-0.4-1.3-0.7c-0.7,2-0.8,3.8-0.7,5.6c1.3,1.3,2.8,2.1,4.5,2.7c0.2-0.5,0.3-0.9,0.4-1.2c3.6,1.1,6.9,2.1,10.3,3.1
		c2.3,0.6,4.6,1,6.8-0.2c0.7-0.4,1.6-0.4,2.4-0.6c1.8-0.5,3.6-1,5.4-1.6c0.5-0.1,1.1-0.3,0.9-1.1c-1.9,0.3-3.7,0.8-5.5,1
		c-1,0.1-2.3,0.2-3-0.3c-1.3-0.8-2.6-0.9-4-1.3c-1.1-0.4-2.4-0.2-3.2-1.2c1.4,0,2.8,0.1,4.2,0.1c2.4,0.1,3.7-0.2,6.8-1.5
		c-1.3-0.3-2.3-0.8-3.3-0.8c-3.1-0.3-5.8-1.6-8.6-2.7C650.1,29.7,648.5,28.9,647,28.3c0-0.2,0-0.3,0.1-0.3
		C647,28.1,647,28.2,647,28.3z M637.9,24.1c-1.4-0.2-2.5,0.4-3.4,1.5c-3.2,3.8-5.9,7.9-7.3,12.7c-1.3,4.3-2,8.7-2.1,13.2
		c-0.2,5.6-0.4,11.3-0.7,16.9c0,0.7-0.2,1.4-0.3,2c-0.5-3.1-0.6-6.1-0.9-9.1c-0.7-6.1-0.7-12.2-0.2-18.3c0.6-6.7,2.7-12.9,7.5-17.9
		c0.3-0.3,0.5-0.7,0.7-1c-0.4-0.6-0.7-0.9-1.2-0.5c-2.2,1.9-3.7,4.3-4.9,6.8c-4.5,10.1-6.1,20.7-3.9,31.7c1.2,6.2,2.5,12.4,2.7,18.8
		c0,1.1,0.4,2.2,0.5,3.3c1.5-6.1,2.3-12.3,1.9-18.5c-0.1-2-0.4-4.1,0.1-6c0.4-1.9,0.3-3.7,0.2-5.6c-0.2-6.2,0.5-12.2,4.8-17.2
		c0.6-0.7,0.8-1.4,0.8-2.2c0-2.9,1.3-5.2,3.4-7.1C636.7,26.6,637.3,25.4,637.9,24.1c0.4-0.9,1.1-1.7,1-2.8c-1-0.6-1.7-0.3-2.4,0.4
		C637,22.6,637.5,23.4,637.9,24.1z M719.1,310.2c0.2-0.2,0.6-0.5,0.6-0.7c0.1-1-0.4-1.8-0.9-2.6c-1.7-2.8-3.3-5.7-4.8-8.6
		c-0.5-1-1-2.2-1.2-3.3c-0.6-3.5-1-7-1.5-10.5c-0.1-0.8-0.1-1.7-0.3-2.4c-0.9-2.7-1.9-5.3-3.2-8.6c0.1,2.1,0.3,3.5,0.3,4.9
		c0,1.4,0.2,2.9-0.1,4.2c-0.4,1.8-0.3,3.5-0.1,5.3c0.8,7.2,2.1,14.4,2.1,21.8c0,1.1,0.3,2.1,1.2,2.9c1.7,1.6,2.6,3.6,3,5.9
		c0.5,2.6,1.5,4.9,2.5,7.3c0.7,1.6,1.7,2.7,3.1,3.5c1-0.5,1.2-1.3,1-2.1c-0.3-1.1-1-2.3-1-3.3c0.1-2.3-0.6-4.4-1-6.6
		c-0.3-1.2-0.2-2.6-0.1-3.9c0-0.2,0.3-0.5,0.8-1c0.2,2.9,0.3,5.5,1.2,7.9c-0.4,2.8,1.3,5.1,1.6,7.7c0.5-1,0.9-2,1-3
		c0.1-1.4,0-2.8-0.3-4.2c-0.5-2.2-1.2-4.3-1.7-6.5C720.8,312.7,720,311.4,719.1,310.2C719.1,310.2,719.1,310.2,719.1,310.2z
		 M533.2,496.1C533.2,496.1,533.1,496,533.2,496.1c-0.3,0.6-0.4,1.3-0.8,1.8c-1.2,1.9-2.4,3.7-3.7,5.7c0.2,1,0.4,2,0.7,3.1
		c2.9,1.6,5.7,3.3,8.7,4.7c3.1,1.4,6.4,2.2,9.8,1.5c0.9-0.9,0.7-1.9,0.7-2.8c0-2.7,0.7-5.4,1.7-7.9c2.8-7.3,6.3-14.2,10.7-20.6
		c0.9-1.3,1.7-2.5,2.7-3.7c1.9-2.1,3.9-4.1,5.7-6.2c3.2-3.7,6.4-7.5,9.6-11.3c1.5-1.8,2.9-3.7,4.3-5.6c4.7-6.5,9.1-13.2,14.9-18.8
		c0.7-0.6,1.2-1.4,1.8-2.1c3.1-3.8,6.4-7.2,10.3-10.1c1-0.8,2-1.6,2.9-2.6c2.7-3,5.8-5.5,8.9-8c1.4-1.1,2.8-2.2,4.2-3.2
		c2.7-2.1,4.6-4.7,5.7-7.9c1-2.8,2-5.5,3-8.3c1.1-3,2.5-5.9,4.4-8.4c1-1.4,2.1-2.8,3-4.4c3.5-6.7,7-13.3,10.4-20
		c0.3-0.5,0.3-1.1,0.5-1.8c-1.2-0.3-2.2-0.5-3.2-0.7c-2.4-0.6-3.9-2.1-4.4-4.5c-0.1-0.6-0.2-1.2-0.3-1.7c-0.9-5-0.6-10.1-0.2-15.1
		c0.1-0.8,0.1-1.5,0.2-2.6c-0.7,0.8-1.1,1.4-1.6,1.8c-0.5,0.4-1.3,0.8-1.9,0.8c-1.9-0.1-3.7,0-5.6-0.5c-2-0.5-3.7-1.4-5.6-1.9
		c-2.1-0.6-3.8-1.7-5.4-3.1c-0.5-0.5-1-1.1-1.7-1.2c-1.3-0.3-2.2-1.3-3.4-1.8c-2.1-1.1-4.3-2.4-7-1.5c-0.5,1.3-0.7,2.7-1,4.1
		c-0.2,1.4-0.5,2.8-1.1,4.1c-1.5,3.4-2.8,6.9-3.2,10.7c-1.2,9.1-2.8,18.1-3.5,27.3c-0.2,3-0.9,6-1.4,9.1c-0.1,0.8-0.4,1.8-0.9,2.2
		c-1.1,0.9-1.4,2.1-1.9,3.3c-2.6,6-6.2,11.3-11.7,15.2c-1.4,1-2.9,2.1-4,3.4c-0.9,1.1-2,2-3,2.9c-1.9,1.6-3.8,3.1-5.6,4.8
		c-8.5,8.1-16.2,16.8-19.4,28.4c-0.7,2.6-1.9,5.1-2.8,7.6c-2,6-4.4,11.9-5.3,18.2c-0.1,0.6-0.3,1.1-0.5,1.7
		c-0.8,2.1-1.6,4.2-2.5,6.2c-0.3,0.7-0.7,1.6-1.3,2c-1.2,0.8-1.7,1.9-2.4,3c-1,1.5-2,2.9-3,4.4c-1,1.3-2.2,2.6-3.7,3.1
		c-2.2,0.7-3.1,2.5-4,4.2c-0.9,1.9-1.5,3.9-2.2,5.9c-0.2,0.5-0.2,1-0.4,2.3c1.4-1.8,2.3-3,3.3-4.2
		C532,496.6,532.3,495.9,533.2,496.1z M682.3,304.6C682.3,304.6,682.2,304.5,682.3,304.6c-0.3,0.5-0.4,1.1-0.7,1.5
		c-1.1,1.1-2.2,2.1-3.5,3.2c-0.9,2.7-1.9,5.6-2.8,8.5c-2.2,6.8-4.6,13.6-7.7,20.1c-0.7,1.5-1.3,3-1.7,4.6c-1.4,4.7-3.1,9.4-5.4,14
		c-3.1,1.2-4.3,4.3-5.8,7c-0.3,0.5-0.4,1.1-0.4,1.7c0.1,3.9,0.1,7.8,0.3,11.6c0.4,6.4,1.7,12.6,2.7,18.9c1.1,6.9,2,13.8,1.8,20.7
		c0,0.9-0.1,1.9-0.2,2.8c-0.4,2.2-0.8,4.4-1.1,6.6c-1.2,7.7-2.2,15.4-3.7,23c-1,4.9-1.4,9.8-1.4,14.7c0,2,0.1,4,0.1,6
		c0,4.2,0.9,8.2,2.4,12c1.4,3.7,3,7.4,4.5,11.1c1.8,4.6,3.4,9.3,3.5,14.3c0.2,4.9,1.2,9.6,2,14.3c1.4,7.7,2.1,15.4,0.9,23.2
		c-0.5,3.1,0.6,5.8,2.3,8.3c0.5,0.7,1.2,1.1,2.1,1c4-0.4,7.8-1.6,11.7-2.8c0.4-1.4,1-2.8,1.2-4.1c0.3-1.8,1.2-3.3,2.4-4.7
		c0.9-1,1.9-2,2.9-3.1c-1.3-3.3-1.7-6.7-2-10.1c-0.2-2.2-0.7-4.4-1-6.6c-0.4-2.7-0.9-5.4-1-8c-0.1-7.7,0-15.3,0-23
		c0-0.9,0.1-1.9,0.2-2.8c0.7-6.7,1.4-13.3,2-20c0.8-8.3,0.7-16.7,0.1-25c-0.4-5-1-10.1-0.8-15.2c0.2-4.5,0.7-8.8,2.6-13
		c2.3-5.2,3.7-10.6,3.8-16.4c0-1.3-0.1-2.5-0.9-3.5c0.5-1.3,1-2.3,1.3-3.4c3.3-9.6,5.5-19.5,7.3-29.4c1.1-6.1,2.2-12.3,3.3-18.4
		c0.3-1.6,0.5-3.3,0.6-4.9c0.2-4.6,0.9-9.1,1.4-13.7c0.5-4.4,0.7-8.9,1-13.4c0-0.7-0.2-1.3-0.4-2c-1.6,0-3-0.1-4.4,0
		c-3.2,0.2-6.3,0.5-9.5,0.6c-4.2,0.1-8.5,0.2-12.6,1.2c-0.1,0-0.2-0.1-0.3-0.2c0-0.1-0.1-0.3-0.1-0.3c0.2-0.2,0.4-0.6,0.7-0.7
		c2.2-0.9,4.6-1,6.9-1.2c3.8-0.3,7.5-0.5,11.3-0.9c2.1-0.2,4.2-0.5,6.3-0.8c0.7-0.1,1.3-0.2,1.9-0.3c0.1-0.5,0.2-0.9,0.2-1.2
		c0.3-6.7,0.1-13.4-0.5-20.1c-0.2-3-0.6-6.1-0.4-9.2c0.3-4.4-0.1-8.7-0.4-13c-0.1-1.6-0.6-3.1-1.4-4.5c-3.3,1.3-6.3,2.6-9.4,3.6
		c-0.9,0.3-0.8,1.4-1.8,1.6c-1.5-0.1-3.1-0.3-4.7-0.4c-2.1-0.2-4.1-0.7-6.2-1.4c-3.6-1.3-7.4-2.4-11.1-3.5
		c-4.3-1.2-8.6-2.4-12.9-3.5c-5.5-1.4-10.9-2.8-16.4-4.2c-0.7-0.2-1.4-0.1-2.3-0.2c-0.3,1.9-0.6,3.6-0.8,5.3c-0.7,4.5-1.7,9-2,13.6
		c-0.6,7.6,0.2,15,2.8,22.2c0.5,1.3,0.7,2.7,1,4.1c0.4,1.9,0.6,3.9,1,5.9c3.5,0.5,6.8,0.9,10.4,1.4c0.3-0.6,0.6-1.2,0.8-1.8
		c0.9-2.1,1.7-4.1,2.6-6.2c0.6-1.2,1.3-2.3,2.1-3.3c1.3-1.6,3-2.2,5-1.8c1.4,0.3,2.7,0.6,4.1,0.9c2.4,0.4,3.8,1.8,4.3,4.1
		c0.4,1.8,0.7,3.7,0.8,5.6c0.2,2.6,0.1,5.2,0.2,8c1.6,0.3,3,1.1,4.7,1.2c0.6-1.3,1.1-2.5,1.6-3.6c1,0.1,1.7-0.3,2.3-0.9
		C680.5,305.6,681,304.5,682.3,304.6z M546.5,528.1c-1.1,0-1.9,0-2.7,0c-3,0.1-5.8-0.6-8.6-1.7c-0.6-0.3-1.3-0.6-1.8-1.1
		c-0.3-0.3-0.4-0.9-0.3-1.3c0.1-0.6,0.7-1,1.3-0.9c0.6,0.1,1.2,0.2,1.7,0.4c3.3,1.4,6.8,1.9,10.3,2.1c0.7,0,1.3-0.2,2.2-0.3
		c-0.3-3.3,2-5.9,1.8-9.2c-0.8-0.3-1.6-0.9-2.2-0.7c-3,0.5-5.6-0.5-8.2-1.5c-3.4-1.4-6.6-3-9.9-4.5c-0.9-0.4-1.8-1-2.7-1.6
		c-0.3-1-0.5-2-0.7-2.9c-0.8-2.8-1.1-5.5,0.9-8.1c0.4-0.5,0.5-1.3,0.8-1.9c0.7-1.6,1.4-3.3,2.1-4.9c0.6-1.3,1.4-2.4,2.9-2.8
		c0.6-0.2,1.1-0.5,1-1.2c-0.8-1.1-1.9-1.5-3.1-0.8c-1.5,0.7-2.9,1.6-4.2,2.5c-1.5,1-2.9,2.2-4.7,2.2c-2,0-3.6,0.8-5.4,1.5
		c-3.2,1.2-6.3,2.6-9.9,1.9c-0.5-0.1-1.1,0.2-1.6,0.4c-0.5,1.9-1.2,3.7-1.3,5.6c-0.1,1.9-0.2,3.8-0.5,5.6c-0.6,4.7-0.1,9.4,0.8,14
		c0.4,2,2,3.4,2.9,5.2c0.4,0.8,0.9,1.6,1.4,2.5c1,1.8,1.4,3.7,1.4,5.8c0.1,3.2,0.3,6.4,0.3,9.5c0,3.2,1.1,6,3.1,8.4
		c1.4,1.8,2.9,3.4,4.4,5.1c1.3,1.5,2.6,3,3.9,4.6c0.8,1.1,1.9,1.7,3.1,2.2c1.4,0.6,3.3,0.5,4,2.4c0.1,0.3,0.8,0.4,1.3,0.5
		c5.8,1.4,11.5,2.3,17.3-0.2c0.5-0.2,1.1-0.3,1.7-0.4c0.9-1.5,1.4-3,1.5-4.7c0.2-1.7-0.5-3.2-2-3.8c-1.4-0.6-2-1.5-2.6-2.7
		c-0.5-0.9-1.1-1.8-1.6-2.8c-0.5-1-0.9-2.1-1.2-2.9c-1.3,0-2.4,0.1-3.4,0c-0.6-0.1-1.1-0.5-0.8-1.2c1.3-1.1,2.9,0,4.4-0.4
		c0-0.8,0-1.5,0-2.2c-0.9,0.2-1.6,0.3-2.3,0.4c-1.3,0.1-2.6,0.1-3.8-0.4c-1.2-0.6-1.7-1.5-1.3-2.9c0.1-0.4,0.5-0.8,0.8-1.3
		c-0.8-0.1-1.5-0.1-2.2-0.3c-0.6-0.1-1.2-0.3-1.6-0.7c-0.4-0.4-0.6-1-0.6-1.5c0-0.3,0.5-0.9,0.9-1c1-0.2,2.1-0.3,3.1-0.4
		c2.5-0.2,4.9-0.3,7.4-0.6c0.7-0.1,1-0.6,0.5-1.4c-0.6,0-1.3,0-2,0c-2.5,0.2-4.9-0.2-7.4-0.7c-0.9-0.2-1.8-0.6-2.5-1.1
		c-1.1-0.9-0.7-2.7,0.7-3.1c0.6-0.2,1.4-0.2,2.1-0.1c2.4,0.4,4.9,0.9,7.3,1.3c1,0.2,2.1,0.2,3.2,0.4
		C546,529.3,546.2,528.8,546.5,528.1z M653.3,573.1c0.5,0.4,0.9,0.8,1.4,1.1c2.5,1.4,5.2,2.1,8.1,2.3c2.1,0.2,4.2,0.4,6.3,0.5
		c1.5,0.1,3.1,0.1,4.6,0c3.1-0.1,6-0.9,9-1.5c2.5-0.5,5.2-0.9,7.7,0c2.4,0.9,4.7,2.2,6.9,3.4c0.5,0.3,0.8,1.1,1.3,1.7
		c1.6,0.4,3.3,0.9,5.1,1.2c5.7,1.2,11.4,1.4,17.1-0.1c1.4-0.4,2.7-0.8,4.1-0.9c3.4-0.4,6.6-1.7,9.8-2.7c0.5-0.2,1-0.5,1.6-0.8
		c0.3-3.1,0.5-6.1-0.9-9.3c-4.9-0.9-9.8-1.8-14.8-2.8c-0.5,0.4-0.9,0.8-1.4,1.1c-0.6,0.4-1.2,0.7-2.1,1.1c-0.1-0.7-0.4-1.2-0.2-1.4
		c0.5-0.7,1.2-1.4,1.9-2.1c-0.7-1.4-1.8-2.2-3-2.9c-0.9,0.7-1.7,1.3-2.6,2c-0.5,0.4-0.9,0.7-1.4,1.1c-0.9,0.6-1.7,0.6-2.2,0
		c-0.6-0.6-0.4-1.6,0.6-2.4c0.6-0.5,1.4-0.9,2-1.4c0.5-0.4,1.1-0.7,1.7-1.2c-1-1.1-1.8-2.1-3-2.6c-0.3,0.5-0.4,1-0.7,1.4
		c-1.3,1.4-2.6,2.7-3.9,4c-0.2,0.2-0.4,0.4-0.6,0.4c-0.4,0-1,0.1-1.3-0.1c-0.3-0.2-0.6-0.8-0.6-1.2c0.1-0.7,0.4-1.4,0.8-1.9
		c0.9-1.4,2.2-2.5,3.7-3.2c0.2-0.1,0.2-0.3,0.5-0.9c-0.3-0.3-0.7-0.7-1-1c-2.5,1-4.3,2.2-5.4,4.3c-0.3,0.5-0.6,1-1,1.4
		c-0.5,0.6-1.1,0.8-1.9,0.6c-0.7-0.2-1.4-1-1.4-1.8c0-0.5,0.1-0.9,0.2-1.4c0.6-2.1,1.9-3.7,3.8-4.9c0.7-0.4,1.4-0.8,2.3-1.2
		c-0.4-0.5-0.7-0.8-0.9-1.1c-1.5,0.3-2.4,1.2-3.3,2.1c-1.3,1.3-2.6,2.8-3.8,4.1c-0.6,0.6-1.1,1.2-1.7,1.7c-0.3,0.2-1,0.1-1.2-0.1
		c-0.3-0.2-0.5-0.8-0.4-1.2c0.1-0.5,0.5-1.1,0.8-1.5c1.8-2.5,3.9-4.7,6.5-6.4c0.6-0.4,1.1-0.8,1.7-1.2c-1.5-2.6-2.8-5-4.3-7.4
		c-0.3-0.6-0.9-1-1.4-1.5c-1.2,0.5-2.3,0.8-3.4,1.4c-0.8,0.4-1.5,1.1-2.2,1.7c-0.6-0.1-1.1-0.2-1.7-0.3c-2.7,3.6-4.7,7.4-5.9,11.4
		c-2.7,0.8-5.2,1.5-7.7,2.2c-2.5,0.8-5.1,0.9-7.6,0.4c-2.7-3.8-3-4.4-3.8-8.6c-0.2-1.1-0.4-2.3-0.6-3.4c-0.1-0.3-0.5-0.6-0.9-1
		c-1.4,2.4-1.8,4.9-2.1,7.3c-0.2,1.1-0.1,2.5-0.8,3.4c-0.8,1.1-0.9,2.1-0.9,3.3c0,2.6-0.5,5.1-1.7,7.5c-0.5,0.9-0.5,2-0.8,3
		c-0.3,0.9-0.5,2-1.1,2.5C653.7,570.3,653.6,571.7,653.3,573.1z M612.6,285.1c-1.6,0.5-2.3,2-2.9,3.3c-1.3,2.9-2.7,5.8-3.6,8.8
		c-2.9,9.1-4.8,18.4-5.7,27.9c-0.4,4.2-0.6,8.4-0.7,12.7c0,2.2,0.3,4.5,0.6,6.7c0.2,1.2,0.4,2.6,1.7,3.5c0.5-0.3,1.1-0.5,1.4-0.9
		c0.8-1,1.5-2.1,2.1-3.3c2.6-5.2,4.1-10.7,5.3-16.4c0.1-0.4,0-0.9,0-1.6c-0.7,0.1-1.1,0.2-1.5,0.2c-2.5,0.3-3.6-0.3-4.4-2.5
		c-0.5-1.4-0.6-2.8-0.3-4.2c0.6-2.6,1.3-5.2,2.1-7.8c0.1-0.5,0.6-0.9,1-1.5c1.9,0.5,3.7,0.9,5.5,1.3c0.2-0.3,0.4-0.5,0.5-0.7
		c1.2-4.8,2.3-9.6,1.4-14.6c-0.1-0.7,0-1.4-0.1-2.1c-0.2-2-0.4-4-0.7-5.9C614.1,287,613.9,285.8,612.6,285.1z M599.2,348.1
		c-0.4-1.6-0.8-3-1-4.4c-0.2-1.4-0.3-2.8-0.3-4.2c-0.1-5.2,0.2-10.3,0.8-15.5c0.9-8.1,2.4-16,4.6-23.8c1-3.5,2.2-6.9,3.6-10.3
		c0.8-2,2.1-3.9,3.1-5.8c-3.2-1.2-5.4-0.8-6.9,1.9c-1.4,2.4-2.5,5-3.5,7.7c-3.3,9.2-5.1,18.8-6.3,28.5c-0.6,5.4-1,10.8-0.7,16.2
		c0.1,1.8,0.3,3.5,0.6,5.2C593.9,347.1,595.2,348,599.2,348.1z M653.5,357.7c-0.4-2.3-0.8-4.1-1-6c-0.8-6.1-0.2-12.2,0.5-18.3
		c0.6-5.3,1.4-10.5,2.6-15.7c1.9-8.5,3.8-17,8.8-24.3c-3.5-1.3-5.3-0.8-7,2c-0.7,1.2-1.4,2.5-1.9,3.8c-1.7,3.8-2.9,7.7-3.9,11.7
		c-0.5,1.9-1,3.8-1.2,5.9c-0.1,1.9-1,3.8-1.4,5.8c-0.4,2.1-0.7,4.2-1,6.3c-1,6.8-1.4,13.6-1,20.4c0.1,1.6,0.4,3.3,0.8,4.9
		c0.3,1.5,1.3,2.5,2.8,2.9C651.4,357.2,652.3,357.4,653.5,357.7z M606.3,323.1c0.5,0.1,0.8,0.1,1.1,0.2c2.7,0.1,5.4,0.1,7.7,1.6
		c0.2,0.1,0.6-0.1,1-0.2c-0.3-1.8-0.9-3.5-0.9-5.2c-0.1-1.8,0.3-3.7,0.4-5.6c-2-0.5-3.9-1.1-5.8-1.5c-0.6-0.1-1.3,0-2.1,0
		C606.7,316,605.3,319.4,606.3,323.1z M669.1,327.2c1.4-2.4,5.3-12.2,5.9-15c-1.2-0.7-2.5-0.9-3.9-0.7
		C670.4,316.9,669.8,322,669.1,327.2z M651.1,305.4c-3.1-0.2-5.7-1-8.4-0.6c0.5,1.9,0.4,1.9,1.1,2.6c1.5,1.3,3,2.6,3.9,4.4
		c0.1,0.2,0.6,0.3,1,0.5C650.2,310.4,650.1,307.9,651.1,305.4z M718,330.8c-0.8,2.4-3.4,4.3-2.5,7.4c1,0.2,1.6-0.4,2-1.1
		c1-1.7,1.9-3.4,2.9-5.2c0.2-0.3,0.2-0.6,0.3-1.1C719.7,330.8,718.9,330.8,718,330.8z M676.4,11.8c1.6,0.7,3.2,1.4,4.8,2.1
		c0.2,0.1,0.4-0.1,0.9-0.3C680.5,12,678.4,11.8,676.4,11.8z M544.3,537.9c-1,0.4-1.8,0.7-2.6,1c-0.2,0.1-0.2,0.4-0.4,0.7
		c1,0,1.9,0.6,3,0.6C544.3,539.4,544.3,538.8,544.3,537.9z M667.9,13.8c0-0.1,0-0.1-0.1-0.2c-1.7,0-3.4,0-5.1,0c0,0.1,0,0.1,0,0.2
		C664.5,13.8,666.2,13.8,667.9,13.8z M661.8,45c-1.1-0.5-1.9-0.3-2.8,0C659.9,45,660.8,45,661.8,45z M659.3,310.8
		C659.3,310.8,659.3,310.8,659.3,310.8c0.1-0.2,0.1-0.5,0.1-0.7c0,0-0.1,0-0.1,0C659.3,310.3,659.3,310.6,659.3,310.8z M634.5,21.2
		c0.2-0.1,0.4-0.2,0.5-0.3c-0.1-0.1-0.2-0.2-0.3-0.2c-0.2,0-0.4,0.1-0.6,0.1C634.2,20.9,634.3,21,634.5,21.2z M654.5,339.6
		c-0.1-0.1-0.1-0.2-0.2-0.4c0,0.1-0.1,0.2,0,0.3c0,0.1,0.1,0.2,0.2,0.4C654.4,339.8,654.4,339.7,654.5,339.6z M655,333.5
		c0,0,0.1,0,0.1,0c0-0.3,0-0.5,0-0.8c0,0-0.1,0-0.1,0C655,333,655,333.3,655,333.5z M671.5,23.7c0.1,0,0.2,0.1,0.3,0.1
		c0,0,0.1-0.1,0.1-0.2c-0.1,0-0.2-0.1-0.3-0.1C671.5,23.5,671.5,23.6,671.5,23.7z M674.7,11c0,0-0.1-0.1-0.1-0.1c-0.1,0-0.2,0-0.3,0
		c0,0,0.1,0.1,0.1,0.1C674.5,11,674.6,11,674.7,11z M657.9,315.7l-0.1,0.2l0.1,0L657.9,315.7z M616.3,310.6c-0.1,0-0.2,0-0.2,0.1
		c0,0.1,0,0.2-0.1,0.3c0.1,0,0.2-0.1,0.4-0.1C616.3,310.8,616.3,310.7,616.3,310.6z M671.9,10.2c-0.1-0.1-0.1-0.2-0.2-0.2
		c-0.1,0-0.2,0-0.3,0c0.1,0.1,0.1,0.2,0.2,0.3C671.7,10.4,671.8,10.3,671.9,10.2z M677.4,17.2l-0.3,0.1l0.3,0.1L677.4,17.2z
		 M626.9,83.3l-0.1,0.2l0.1,0L626.9,83.3z"/>
	<path d="M320.5,336.4c-0.7-0.1-0.9-0.7-1-1.2c-0.3-1.1-1.1-1-1.9-0.9c1.2-1.7,2.5-3.3,3.7-5c1.1-1.5,1.2-3.3,1.3-5.1
		c0.1-1,0.2-2.1,0.4-3.1c1.4-0.9,0.9-2.2,0.7-3.5c-0.3-2.3-1.2-4.2-3-5.8c-1.9-1.7-3.2-3.7-4-6.1c-0.4-1.3-0.8-2.6,0-4.6
		c0.3,1.1,0.5,1.6,0.7,2.1c0.8,2.9,2.2,5.4,4.4,7.5c1.8,1.7,2.8,3.8,3.2,6.1c0.5,2.7,1.6,5.2,2.6,7.6c0.6,1.5,1.7,2.4,2.9,3.2
		c1.2-0.5,1.2-1.3,1-2.1c-0.3-1.1-1-2.3-1-3.3c0.1-2.3-0.6-4.4-1-6.5c-0.2-1.2-0.2-2.6-0.1-3.9c0-0.2,0.4-0.5,0.8-1
		c0.2,2.9,0.2,5.5,1.2,7.9c-0.4,2.7,1.3,5,1.5,8c1.5-2.6,1.4-5.1,0.9-7.5c-0.5-2.2-1.2-4.3-1.8-6.5c-0.4-1.5-1.1-2.8-2-4.1l-0.1,0
		c0.2-0.2,0.6-0.5,0.6-0.7c0.1-1-0.4-1.8-0.9-2.6c-1.7-2.8-3.3-5.7-4.8-8.6c-0.6-1.1-1.1-2.4-1.3-3.6c-0.6-3.6-1-7.2-1.5-10.8
		c-0.1-0.8-0.2-1.7-0.5-2.4c-1.5-3.2-2.2-6.7-3-10.1c-1.5-6-2.7-12.1-4.6-18.1c-0.1,2.9-0.1,5.8-0.4,8.6c-0.4,4.1-1,8.2-1.6,12.2
		c-1.1,7.6-1.5,15.2-0.8,22.9c0.5,5.7,0.6,11.5-0.2,17.3c-0.1,0.8-0.3,1.7-0.2,2.5c0.1,0.7,0.3,1.5,0.8,1.9c2.1,1.6,4.3,2.9,7.1,2.5
		l-0.1-0.1c0,2.8,0,5.5,0,8.3c1.2,0.5,2.5,0.5,3,1.8c-1.2,0-2.3-0.1-3.5,0c-0.9,0-1.6,0.8-1.5,1.6c0.1,0.9,0.3,1.8,0.5,2.7
		c0.1,0.2,0.5,0.3,0.8,0.5c-0.4,0.1-1,0.5-1.2,0.4c-0.8-0.6-1.4-1.5-2.3-2c-0.9-0.5-2-0.6-3-0.9c-0.8-1.7-1.4-3.4-1.5-5.2
		c-0.1-1.6,0.8-3.2-0.1-5.1c-0.3,0.5-0.6,0.8-0.6,1.2c-1.1,4.2-2.3,8.4-3.3,12.6c-0.3,1.3-0.2,2.8-0.2,4.2c0,12.5-0.7,24.9-1.6,37.4
		c-0.2,2.5,0,4.9,0,7.4c0,2.1,0.1,4.2,0,6.4c-0.1,3.2-0.2,6.3,0.2,9.5c0.4,3.7,0.5,7.5,0.8,11.3c0.1,2-0.5,4-1.1,5.9
		c-1.1,3.2-2.4,6.4-3.7,9.6c-0.7,1.8-1.3,3.5-1.5,5.4c-0.8,8.8-0.9,17.6-0.3,26.5c0.4,6.6,1.3,13.1,1.1,19.7c0,0.4-0.1,0.7,0,1.1
		c1,2.9,0.6,5.8,0.6,8.7c-0.1,4.9,0.9,9.6,1.9,14.3c1.8,8.4,3.5,16.8,5.3,25.2c0.3,1.6,1,3.1,1.8,4.6c1.6,3,3.3,6,5,9
		c1.6,0.6,3.3,1.2,4.9,1.7c1.1,0.4,1.8,1,2.4,1.9c2.2,3,4.9,5.4,7.9,7.5c1.5,1.1,3.1,2.1,4.6,3.3c0.9,0.7,1.8,1.5,2.4,2.5
		c0.6,1,1.4,1.5,2.4,2c5.5,2.8,11.3,4.7,17.2,6.4c1.7,0.5,3.7,0.2,5.6,0.2c0.9,0,1.9-0.4,2.9,0.5c0.4,2.1,0.9,4.4,1.3,6.7
		c0.3,1.9-0.3,3.8-0.8,5.5c-0.3,0.9-1.2,1.7-2,2.4c-1.5,1.3-3.2,2.4-4.8,3.6c-4.1,3-8.7,4.5-13.8,4.6c-3.5,0.1-7.1-0.3-10.6,0.4
		c-6-0.3-12-0.6-17.6-3.3c-2.5-1.2-5.4-1.6-8.2-1.5c-5.3,0.2-10.6,0.4-15.9,0.4c-4.3,0-8.4-0.7-12.3-2.8c-0.2-0.1-0.4-0.3-0.6-0.5
		c-0.5-1.6-1-3.3-1.5-5.1c0.4-0.7,0.7-1.5,1.1-2.1c0.8-1.1,1.1-2.3,1.1-3.6c0-0.8,0.1-1.6,0.4-2.4c1.2-4,1.4-8.1,1.4-12.2
		c0-2.2,0.1-4.5,0.3-6.7c0.1-1.6,0.5-3,2.3-3.7c0.3-3.8,0.3-7.5-0.7-11.2c-1.9-6.4-3.8-12.9-5.7-19.3c-1.2-4.1-2.2-8.2-3.9-12.1
		c-1.7-3.9-3.6-7.7-5.1-11.6c-1.8-4.7-3.7-9.4-5.5-14.1c-0.2-0.5-0.4-1.1-0.7-1.6c-1.7-2.6-2.3-5.6-2.8-8.7c-0.5-3.3-1-6.5-1.2-9.8
		c-0.3-5.2,0.4-10.3,1.7-15.4c1.1-4.1,2.3-8.2,3.4-12.3c0.4-1.4,0.7-2.7,0.9-4.1c0.2-1.1,0.5-2.3-0.1-3.6c-0.5,0.4-1,0.7-1.4,1.1
		c-1.8,1.8-3.7,3.7-5.5,5.5c-1.6,1.6-3.1,3.2-4.8,4.7c-1.7,1.5-3.1,3.2-4.2,5.2c-2.5,4.2-5.6,7.8-8.9,11.4c-4,4.5-7.7,9.2-10.8,14.4
		c-1.1,1.8-2.4,3.5-3.7,5.1c-3.6,4.5-7.5,8.8-10.9,13.4c-4.4,6-8.5,12.1-12.6,18.3c-2.9,4.4-4.9,9.4-6.6,14.5
		c1.4,1.3,2.6,2.8,2.9,4.8c-1.5,2.1-2,4.7-2.4,7.2c-0.5,3.7-0.9,7.5-1.4,11.2c-0.2,1.9-0.6,3.7-0.8,5.6c-0.5,6.8,0.5,7.2,5,9.6
		c0.9,0.5,1.9,0.8,2.9,1.3c0.7,0.4,1.3,0.9,1.9,1.4c-0.3,2.5-0.5,4.9-0.7,7.2c-0.1,1-0.5,1.8-1.3,2.4c-1.4,0.9-2.8,1.8-4.2,2.5
		c-1.1,0.6-2.2,0.7-3.4,0.4c-2.1-0.4-4.2-0.7-6.3-1.1c-2.3-0.5-4.6-0.7-7-0.6c-3.4,0.1-6.4-1.4-9-3.7c-2-1.8-3.8-3.9-5.6-5.8
		c-0.2-0.2-0.3-0.4-0.4-0.6c-1.2-2.9-2.5-5.8-3.4-8.8c-1.1-3.4-1.6-6.9-1.6-10.4c0-2.5-0.6-4.6-2-6.6c-1.6-2.5-3.1-5-4.5-7.6
		c-1.5-2.8-2.9-5.6-4.2-8.5c-0.6-1.4-1-2.9-1.2-4.4c-0.5-4.2-0.6-8.4,0.6-12.6c1.5,0.1,2.9,0.3,4.3,0.4c1.5,0.1,3,0.1,4.1-1.4
		c0.4-0.6,1.4-0.9,2.1-1.1c1.9-0.7,3.8-1.3,5.6-2.1c2-0.8,3.9-1.6,5.6-3c1-0.8,1.9-0.8,2.9-0.1c0.6,0.4,1.1,0.8,1.7,1.3
		c4-2.9,7.5-6.1,10.7-9.8c1.2-1.3,2.1-2.8,2.7-4.5c0.6-1.7,1.3-3.3,1.9-4.9c4-10.7,8.5-21.2,13.2-31.6c0.9-1.9,1.8-3.8,2.8-5.7
		c1.3-2.4,2.6-4.7,3.4-7.3c1.1-3.3,3.2-6,5.6-8.5c4.4-4.5,9.1-8.6,14.2-12.1c1.3-0.9,2.2-2,2.9-3.4c2.4-4.7,4.8-9.5,7.2-14.1
		c0.8-1.5,1.1-3.1,1.2-4.7c0.4-5.8,0.8-11.5,1.3-17.3c0.7-8.3,2.3-16.5,4-24.7c0.3-1.4,0.6-2.8,0.7-4.2c0.2-1.5,0.3-3,1.5-4.2
		c-1-1.4-2.3-1.9-3.6-2.2c-1.5-0.3-2.7-0.9-3.7-1.9c-2.3-2.2-5.4-3.2-8-4.9c-1.7-1.1-3.2-1.1-5.1-1c-0.9,1.2-1.1,2.6-1.2,3.9
		c-0.1,1.8-0.7,3.5-1.5,5c-0.4,0.7-0.7,1.5-1,2.3c-1,3-2.4,5.9-3.7,8.8c-0.9,2-2.4,2.9-4.4,2.9c-1.9,0-3.8-0.2-5.6-0.4
		c-2.4-0.4-4.1-1.8-4.6-4.3c-0.4-2.2-0.8-4.4-1-6.6c-0.3-4.9,0.1-9.9,0.7-14.8c0.7-6.2,2.1-12.3,3-18.5c0.9-6.1,3.5-11.7,5.5-17.4
		c0.5-1.6,1.8-3,2.9-4.4c0.9-1.2,2.3-1.6,3.7-1.8c1.5-0.2,3,0.1,4.5,0.6c1,0.3,1.9,1.1,3.1,0.6c0.7-3.6,1.5-7.3,3.6-10.5
		c-0.1-0.9-0.1-1.7-0.4-2.5c-2.3-7.1-2.8-14.5-2.9-21.9c-0.1-6,0-12,0.1-18c0-1.5,0.1-3.1,0.4-4.6c0.8-5,1.1-10,1-15.1
		c-0.1-2.9-0.1-5.9,0.5-8.8c0.2-0.9,0.2-1.9,0-2.8c-1.6-10.2-1.6-20.4-1.3-30.7c0.1-3.4,0.4-6.8,0.4-10.2c0-2.5-0.2-4.9,0.1-7.4
		c0.1-0.9-0.2-1.9-0.5-2.8c-1.3-4.7-1.1-9.3-0.1-14c1.1-4.9,2-9.9,2.9-14.9c1-5.6,3.9-10,8.2-13.6c1.6-1.3,3.4-2.4,4.9-4
		c0.9-0.9,2.1-1.5,3.2-2.1c2.9-1.7,5.5-3.6,8-5.8c1.4-1.3,2.5-2.8,3.1-4.6c0.5-1.6,1-3.1,1.5-4.7c0.3-1,0.4-2,0.3-3.1
		c-0.2-1.7,0-3.5-0.1-5.3c0-0.9-0.2-1.8-0.4-2.9c-0.9,0.1-1.7,0.1-2.6,0.2c0.3-0.7,0.5-1.2,0.7-1.7c0-0.1,0.1-0.1,0.1-0.2
		c0,0.1,0,0.2-0.1,0.3c-0.3-0.3-0.9-0.6-0.9-0.9c-0.2-3.4-0.1-3.4-1.7-6.1c-0.1,1.1-0.3,1.9-0.5,3.5c-1.1-3.1-1.9-5.4-3-8.6
		c-0.2,4.3-0.3,7.8,0.1,11.3c0.2,2.1,0.6,4.2,0.8,6.3c0.2,1.5,0,2.9-0.6,4.5c-0.8,2.1-0.8,4.4-1.4,6.5c-0.8,3.4-2.1,6.7-4.4,9.4
		c-0.9-0.3-0.4-0.8-0.3-1.1c0-0.8,0.2-1.6,0.1-2.4c-1.1-6.1-1.1-12.2-0.9-18.3c0.2-6,0.4-12,0.6-18c0-0.8,0.1-1.6,0.6-2.4
		c0.1,1.3,0.1,2.6,0.2,3.8c0.1,6.7,0.1,13.4,0.2,20.1c0.1,3.2,0.4,6.3,0.7,9.5c0.1,0.7,0.4,1.3,0.6,2.1c1.2-2.2,1.3-2.2,1-3.9
		c-1.4-8.4-1-16.9-0.9-25.4c0-2.2,0.4-4.3,0.9-6.4c0.5,9.1-0.2,18.1,0.5,27.2c0.9-0.2,0.9-0.8,0.9-1.4c0-2.5,0.2-5,0-7.4
		c-0.4-4.2-0.4-8.5,0.1-12.7c0.1-0.8,0.1-1.7,0.2-2.5c0.3-2.2,0-4.2-0.8-6.2c-1.5-3.6-1.8-7.5-2-11.3c-0.1-1.5-0.1-3-0.2-4.7
		c-1,2-0.9,2-1.2,6.2c-0.1,2.1,1.1,4.1,0.4,6.5c-1.4-3.4-0.7-6.8-1.3-10c-0.8-0.3-1.1,0.3-1.4,0.8c-2.3,3.9-3,8.1-3.3,12.5
		c-0.1,1.5,0,3.1,0,4.6c0.1,3.3,0.3,6.6,0.4,9.9c0,1.1,0.1,2.1,1,2.9c0.4,0.4,0.5,1,0.6,1.6c0.1,0.8,0.1,1.6,0.1,2.5
		c0.1,5.6,0.2,11.3,0.1,16.9c-0.1,2.8-0.6,5.6-0.9,8.4c-0.1,1-0.7,1.7-1.7,2c-0.7-0.2-0.6-0.9-0.6-1.4c0.1-1.5,0.4-3,0.5-4.6
		c0.2-2.1,0.3-4.2,0.2-6.4c-1.4,2-1.7,4.4-2.5,6.6c-0.8,2.3-0.1,4.9-1.8,7.4c-0.3-0.9-0.5-1.5-0.7-2.2c-0.5,0.9-1,1.7-1.6,2.7
		c-0.5-1.8,0.1-3.2,0.5-4.5c1.5-4.5,1.6-9,0.7-13.6c-0.4-2.3-0.4-4.7-0.7-7c-0.5-3.6-1.1-7.2-1.7-10.8c-0.3-1.4-0.9-2.7-1.3-4
		c-0.4-1.5-1-2.9-1.1-4.4c-0.6-8.1,0.4-16,3-23.6c1.7-5,4.3-9.4,8-13.2c0.8-0.8,1.5-1.7,2.4-2.7c3-0.2,6.2,0.1,9.2,0.6
		c3.1-2.7,6-5.5,9.1-8c1.1-0.9,2.7-1.5,4.1-2c3.4-1.1,6.9-1.4,10.4-1.4c5.8,0,11.5,0.7,17,2.8c0.8,0.3,1.6,0.6,2.4,0.7
		c5.5,1,9.3,4.3,11.7,9.2c1.7,3.6,3.3,7.3,4.9,10.9c1,2.3,1.4,4.8,0.9,7.3c-0.3,1.4-1.2,2.8-1.8,4.3c0.4,0.1,0.9,0.3,1.6,0.6
		c-0.6,0.6-1.1,1.1-1.7,1.6c0,0.2-0.1,0.5,0,0.7c0.8,2.5,1.4,5,3.4,6.8c0.4,0.4,0.7,1,0.9,1.5c0.7,1.5,0.4,3.1-0.8,4.2
		c-0.7,0.6-1.5,1.1-2.2,1.6c-0.5,1.7,0.4,3.1,0.5,4.8c-0.4,0.6-0.9,1.4-1.3,2.2c1.1,2.8,1.1,2.8-0.3,5.2c0.2,0.7,0.5,1.5,0.7,2.3
		c0.7,2.7-0.4,5-3,6c-1.2,0.5-2.5,0.6-3.8,0.8c-1,0.2-2.1,0.4-3.1,0.4c-2.1-0.1-4.2-0.2-6.2-0.8c-0.4-0.1-0.9-0.2-1.4-0.2
		c-0.8,1.4-0.7,2.9-0.5,4.2c0.8,4.4,0.2,8.7-0.1,13c-0.3,3.3-0.4,6.6-0.5,9.8c0.8,0.8,2.1,0.6,2.6,1.9c0.6,1.5,1.9,2.3,3.5,2.7
		c4.7,1.4,7.9,4.6,10,8.9c1.1,2.2,2.5,3.9,4.3,5.5c3.3,3,6.5,6.2,9.8,9.1c2.9,2.6,5.4,5.6,7.8,8.6c1.9,2.5,2.8,5.4,3,8.5
		c0.2,2.2,0.1,4.5,0.2,6.7c0.1,7.6-3.6,12.1-11.2,15.4c-0.8,0.4-1.8,0.6-2.8,0.9c-0.2,1.5-0.4,3-0.6,4.5c-0.1,1-0.5,1.8-1.8,1.9
		c0.2,2.1,0.4,3.9,0.6,5.8c0.2,2.2,0.4,4.5,0.5,6.7c0.2,3.7-0.7,7.2-2.4,10.5c-0.8,1.6-1.6,3.2-2.4,4.7c-1.8,3.4-2.8,7-3.5,10.7
		c-0.3,1.6-0.4,3.2-0.1,4.9c0.3,1.6,0.2,3.3,0.3,4.9c0.2,3.2,0.3,6.3,0.5,9.5c0,0.5,0.1,0.9,0.1,1.4c-0.5,3.5,0.6,6.7,1.5,10
		c1.5,5.4,2.8,10.9,4.3,16.4c0.8,3,1.7,5.9,2.5,8.8c0.9,3.2,1.5,6.4,1.7,9.7c0.2,3,1,6,1.7,9c0.3,1.2,1.1,2.3,1.9,3.3
		c3,3.7,4.7,7.8,5.3,12.5c0.2,1.7,0.8,3.5,1.5,5.1c1.5,3.4,0.9,6.9,0.4,10.4c-0.1,0.5-0.5,1-0.8,1.5c-1.6,1.9-2.9,3.9-3.6,6.4
		c-0.4,1.5-1.2,2.7-3,3.1c-1.4,0.3-2.6,0.2-3.3-1.1c-1.3-0.4-2.7,0.9-3.7-0.5c0.8-0.2,1.7-0.1,2.3-0.8c2-2.3,3.9-4.7,4.6-7.7
		c-0.6-1.2-1.1-2.2-1.6-3.3c-0.4-1,0-2.4-1.6-3.1c-0.4,2.6-1.3,5,0.2,7.4C321.5,330.7,320.6,333.4,320.5,336.4z M279.5,296.8
		c0.2-0.5,0.4-1,0.5-1.5c0.7,0.1,1.3,0.2,2.1,0.3c0.1,0.6,0.1,1,0.1,1.3c-0.7,0.3-1.4,0.4-1.8,0.9c-1.3,1.4-2,3.1-2.6,4.9
		c-2.3,7-4.2,14.2-5.4,21.5c-0.7,4.5-1.3,9.1-1.8,13.6c-0.5,4.8-0.7,9.6,0,14.4c0.2,1,0.1,2.1,1.2,2.8c0.1,0,0,0.6-0.1,0.6
		c-0.3,0.1-0.6,0.1-0.9,0.1c-0.2,0-0.4-0.1-0.7-0.1c0-0.5-0.1-1-0.1-1.7c-0.6,0.9-0.2,1.3,0.2,1.7c0.6,1.5,1.4,1.8,2.1,0.7
		c1-1.3,1.9-2.7,2.6-4.2c2.8-5.7,4.4-11.9,5.7-18.1c1.8-8.3,3-16.6,3.4-25.1c0.2-3.7,0-7.3-0.5-10.9c-0.2-1.5-0.5-3-2-4.1
		c-0.6,0.6-1,1-1.5,1.5C280,295.8,279.8,296.3,279.5,296.8l-0.1,0.1L279.5,296.8z M292.2,16.9c-0.1-0.1-0.2-0.1-0.3-0.2
		c-0.1,0-0.2,0-0.3,0C291.9,16.8,292.1,16.8,292.2,16.9c0.3,0,0.4,0.1,0.6,0.2C292.6,17.1,292.4,17,292.2,16.9z M240.7,36.8
		c-0.5,0.3-0.7,0.7-0.3,1.4c0.1-0.6,0.1-1,0.2-1.5c0.8-0.5,0.8-1.4,0.7-2.2c0.3-0.2,0.6-0.3,0.8-0.6c1.6-3.4,3.9-6.3,6.3-9.2
		c0.1-0.1,0-0.4-0.1-0.7c-0.8,0.6-1.6,1.1-2.2,1.8c-2.3,2.5-4.3,5.2-4.7,8.7C240.4,35.1,240.7,36,240.7,36.8z M295.7,16.9
		c0.5,0.2,1,0.4,1.5,0.6c0.3,1,1.1,1.3,2.1,1.4c0.2,0.3,0.5,0.5,0.7,0.8c0.2,0.6,0.2,1.2,0.5,1.7c0.3,0.6,0.9,0.6,1.5,0.1
		c-0.3-1-1-1.5-2-1.7c0.1-0.5-0.2-0.8-0.7-0.8c-0.3-1.1-1.1-1.4-2.1-1.4C296.8,16.9,296.2,17.1,295.7,16.9c-0.2-1-0.8-1.1-2.1-1.1
		C294.5,16.4,295.1,16.7,295.7,16.9z M291.4,11.3c-0.2-0.6-0.5-0.7-1-0.2C290.8,11.1,291.2,11.2,291.4,11.3c1.3,1.1,2.9,1.4,4.4,2.2
		c0.3,0.1,0.6,0.1,1.2,0.2c-0.3-0.5-0.3-0.9-0.5-1C294.9,11.9,293.3,11,291.4,11.3z M309.1,120.2l0.2,0L309.1,120.2
		c-0.7-3.2-3.1-4.4-5.8-5.3C305,116.8,307,118.5,309.1,120.2z M260.4,28.2c2.3,1.8,4.9,2.6,7.8,2.8c0.1,0.4,0.2,0.8,0.3,1.3
		c-5.2-0.6-9.7-2.7-14-5.4c-0.8,1.5-0.9,1.9,0,2.5c1.7,1.2,3.6,2.2,5.4,3.3c1.1,0.7,2.3,1.1,3.6,1.1c0.9,0,1.9-0.1,2.6,0.8
		c-0.3,0.1-0.6,0.2-1,0.3c0.4,0.2,0.7,0.3,1,0.4c0.3,0.3,0.6,0.5,0.9,0.8c0.2,0.2,0.3,0.5,0.5,0.7l0.1-0.1c-0.5,0-1,0-1.4-0.1
		c-4.1-1.6-8-3.4-11.5-5.9c-0.4-0.3-0.7-0.7-1.4-0.3c-0.7,1.6-0.7,3.4-0.6,5.4c1.3,0.8,2.5,1.6,3.8,2.4c0.5-0.4,0.8-0.7,1.2-1
		c0.4,0.1,0.8,0.3,1.3,0.4c3.5,1,7,2.1,10.5,3c1.2,0.3,2.7,0.4,3.8,0c1.5-0.6,3.1-0.9,4.7-1.3c1.5-0.4,2.9-0.8,4.4-1.3
		c0.4-0.2,1.1-0.3,1-1.2c-2.1,0.4-4.2,0.7-6.2,1.1c-1.1,0.2-2.1,0.2-2.9-0.7c-0.4-0.4-1-0.5-1.6-0.7c-1.6-0.4-3.2-0.8-4.8-1.2
		c-0.5-0.1-1.2,0.1-1.7,0.1c0-0.3,0-0.6,0-0.9c2,0.2,4,0.5,6,0.6c2.2,0.1,4.4-0.4,6.8-1.6c-2.1-0.4-3.7-1.2-5.2-1
		c-2,0.2-3.2-1.5-5-1.4c-0.1,0-0.2,0-0.4,0c-2.1-1.7-4.6-2.3-7.2-2.9C260.8,28.1,260.5,28.2,260.4,28.2c0.1-0.1,0.2-0.3,0.4-0.4
		c0.6-0.4,0.6-0.8-0.1-1.2c-0.2-0.1-0.3-0.3-0.4-0.5c1,0.3,2,0.6,3,1c3.2,1.6,6.5,2.6,10,3.4c0.8,0.2,1.7,0.3,2.4,0.2
		c2.5-0.5,5-1.1,7.6-1.7c1.1-0.3,2.2-0.7,3.4-0.3c0.7,0.2,1.5-0.1,2.4-0.2c0.1-0.9,0.1-1.5,0.2-2.4c-3.4,1.5-6.6,2.2-10,1.7
		c0.5-1.4,0.5-1.4,1.7-2.6c-2.1-0.9-4.3-1.4-6.4-1.8c-2.8-0.5-5.6-1-8.3-1.5c-1.7-0.3-3.4-1-5.2-0.2c-0.2,0.1-0.9-0.4-1-0.7
		c-0.1-0.3,0.1-1,0.4-1.2c0.6-0.3,1.3-0.6,1.9-0.6c1.2,0,2.4,0.1,3.5,0.4c3.2,0.7,6.4,1.5,9.6,2.2c1.3,0.3,2.7,0.9,4.1,0.7
		c0-0.4-0.1-0.7-0.1-0.8c2.4,0.1,4.7,0.2,7,0.2l0.1,0.2l-0.2-0.2c-0.6-0.3-1.2-0.5-1.7-0.8c-0.3-0.2-0.6-0.5-0.9-0.7l-0.1,0.1
		c0.5-0.1,1-0.1,1.8-0.2c-1.9-1.2-3.6-1.8-5.6-1.6c-0.8,0.1-1.6-0.1-2.4-0.2c-4.6-1-9.3-0.7-14-1.4c-1.1-0.2-2.1,0.1-2.9,0.9
		c-1.6,1.5-3.2,3.1-4.8,4.6c-0.1,0.1-0.1,0.4-0.1,0.7c0.2,0.3,0.3,0.6,0.5,0.9c-0.4,0.4-0.7,0.8-1.1,1.1
		C257.3,27.2,257.7,27.5,260.4,28.2z M280.2,17c3.1,0.1,6.2,0.1,9.2,1.4c2.1,1,4.2,1.9,6.3,2.8c0.7,0.3,1.4,0.9,2.3,0.5
		c-0.9,0.7-1.6,1.8-2.9,2.1c-2-1.3-4.3-1-6.4-0.4c-1.6,0.5-3.2,0.6-4.8,0.6c-0.4,0-1-0.2-0.9,0.7c1.2,0.3,2.4,0.7,3.6,0.8
		c1.2,0.1,2.5-0.2,3.6-0.3c0.5,3.2-0.7,6.1-1.2,9.1c-1.8,1.1-2.4,2.7-2.1,4.9c-1.9,1.3-3.9,2.7-5.9,4.2c-0.4,0.3-0.7,0.6-1,0.9
		c-1.5,1.8-3.4,2.6-6.2,2.4c2.4,0.9,2.4,0.9,5.1,0.6c-0.2,1.1-1,1.7-1.9,1.9c-0.9,0.2-2,0.2-2.7-0.2c-1.2-0.7-2.2-1.7-3.3-2.6
		c-0.5-0.5-0.9-1.1-1.4-1.6c-1.3-1.2-2.4-1.2-3.8-0.1c-1.7,1.3-2.6,3-3,5c-0.1,0.6,0.1,1.2,0.2,2c1.4-2.1,1.3-4.7,3.6-5.8
		c1.8,0.4,2.8,1.7,4.1,2.7c1.3,1,1.5,2.3,1.2,3.8c-0.1,0.5-0.4,1.1-0.5,1.5c0.7,1.2,2.6,1.1,2.6,2.8c-1,1.7-1,1.7-2.4,2.2
		c-0.7-1.7-1.4-3.4-2.1-5.1c0.4-1.2,2.2-2.3,0.2-3.7c-1,0.8-1.7,1.9-2.2,2.6c-0.3,2.7,1.6,4.2,2.3,6c-0.5,1.1-1.2,1.3-2,0.8
		c-1.7-1-2.4-2.5-2.5-4.4c0-0.3-0.2-0.6-0.3-0.9c-0.8-0.2-1.5-0.4-2.6-0.7c0.2,0.9,0.2,1.5,0.5,1.9c2,2.9,4.1,5.7,6.2,8.6
		c0.7,1,1.6,1.8,2.9,1.7c0.8-0.1,0.9-1.5,2-1.1c0.1,0.3,0.3,0.7,0.3,1c-0.1,0.4-0.3,0.9-0.5,1.3c-0.2,0.3-0.5,0.5-0.8,0.6
		c-1.1,0.3-2.2,0.7-3.6,0.4c-0.8-1.1-1.6-2.2-2.1-2.8c-2.5-0.8-4.5-1.5-6.5-2.2c-0.4-0.1-0.8-0.6-1.2,0.1c0.6,1.3,1.3,2.7,2,4.1
		c0.1,0.2,0.6,0.2,0.9,0.3c0-0.5,0-1,0-1.5c0.8,0.3,1.5,0.6,2.3,0.8c0.9,0.2,1.8,0.2,2.7,0.2c0.5,2.7-2.3,2.5-3.3,4.1
		c0.2,1.5,0.3,3.2,0.5,5c0.3,2,0.3,4-0.1,6c-0.6,3.1-1.6,6.1-3.2,9.1c2.9,2.1,5.6,4.3,8.6,6.3c6.3,4.2,11.5,9.4,15.6,15.6
		c2.3,3.5,5,6.5,8.2,9.2c4.3,3.7,8.7,7.2,13,10.9c2.2,1.9,4.7,3.6,6.4,6c0.9,1.4,2,1.7,4.8,2c-0.3-0.8-0.6-1.6-0.9-2.3
		c-0.3-0.6-0.7-1.2-1.1-1.8c-0.5-0.7-1-1.3-1.5-1.9c-0.6-0.7-0.6-0.7-0.9-2c1.7,0.6,2.7,1.9,3.6,3.3c0.9,1.5,1.7,3.1,2.6,4.6
		c0.1,0.2,0.4,0.2,0.4,0.2c1,0,0.6-1.7,2-1.1c0,1,0,2,0,3c-1.2,1.1-2.5,0.7-3.7,0.3c-2.7-0.8-5.3-2.1-7.2-4.3
		c-1.5-1.8-3.3-3-5.1-4.2c-6.9-4.7-13.4-10.1-18.3-16.9c-3.1-4.3-6.8-8.1-10.3-12.1c-1.3-1.4-2.6-2.7-4.1-3.9
		c-4.1-3.3-8.3-6.5-12.5-9.8c-0.1-0.1-0.2,0-0.4-0.1c-0.8,0.5-1.5,1-1.5,1.9c5.2,4.3,10.5,8.2,15.1,12.9
		c8.3,8.4,11.5,18.7,10.7,30.3c-0.3,3.6-1.7,6.8-3.9,9.7c-0.7,0.9-1.7,1.7-2.7,2.3c-3.7,2.1-7.4,4-11.1,6.1c-1,4.9-2.1,9.7-2.9,14.5
		c-0.8,4.8-1.5,9.7-2.2,14.7c0.5,0,0.9,0,1.3-0.1c0.7-0.2,1.3-0.5,2-0.7c2.3-0.6,4.6-1,6.8-1.8c4.5-1.6,9.1-2.2,13.9-2.2
		c4.6,0,9.2-0.5,13.7-1.2c4-0.7,8-0.6,11.9,0.6c0.5,0.2,1.3,0.4,1.7,0.2c1.6-0.9,2.9-0.2,4.4,0.4c0.9,0.4,1.6,1.3,2.8,1
		c0.4-2,0.9-3.9,1.2-5.6c-0.7-1.3-2.4-0.6-2.9-1.9c0.2-0.2,0.3-0.4,0.4-0.3c1,0.3,2,0.7,3,1c0.5,0.2,1.2,0.3,1.7,0.2
		c4.7-1.4,8.6-3.6,9.8-9c0.6-2.9,0.7-5.8,0.8-8.8c0.1-2.1,0-4.2-0.2-6.3c-0.2-2.7-1.4-4.9-3.6-6.6c-3.7-2.8-6.9-6.1-9.8-9.7
		c-2.2-2.7-4.5-5.1-7.1-7.3c-2.1-1.8-4.1-3.6-6.2-5.3c-0.3-0.2-0.6-0.9-1.2-0.1c0.9,0.9,1.8,1.9,2.7,2.8c2.5,2.4,5,4.7,7.5,7
		c2,1.9,3.9,3.8,5.2,6.2c0.2,0.4,0.3,0.8,0.6,1.9c-0.9-0.7-1.2-1-1.5-1.2c-2.5-2.5-5-5-7.5-7.5c-3-3-6.1-5.9-8.9-9.1
		c-3.3-3.8-6.9-7.4-8.9-12.2c-1.7-1.2-1.7-3-1.6-4.8c0.2-2.8,0.4-5.6,0.9-8.4c0.3-1.8,0.3-3.5,0.1-5.2c-0.3-2.4-0.4-4.9-0.4-7.4
		c0.1-2.2,1.1-3.2,3.3-3.4c1.4-0.2,2.9-0.4,4.2,0c2.8,0.8,5.3,0.1,8-0.2c2.4-0.3,3.4-2.8,2.7-4.8c-0.3-0.8-0.7-1.5-1.1-2.3
		c0.7-1,1.4-1.9,2.2-2.9c-0.8-0.7-1.4-1.3-2-1.9c-1.9,0.3-3.8,1-5.4-0.7c0.3-0.3,0.6-0.6,0.8-0.6c1.1,0,2.1,0.2,3.2,0.1
		c1.6,0,3.1-0.3,3.6-1.8c-0.5-1.7-0.9-3.1-1.4-4.6c-0.6-0.1-1.2-0.3-2.2-0.5c1-1.3,1.8-2.3,3.3-1.6c1.4,0.6,2.2,0.1,3-0.8
		c0.2-1.1-0.4-1.9-0.9-2.6c-1.9-2.6-3.3-5.5-4-8.6c-0.5-2.1-0.7-4.1,1.6-5.6c1.4-0.8,1.6-2,0.8-3.4c-1.3-2.5-1.9-5.3-2.7-8
		c-0.3-1-0.7-2-0.9-3c-0.5-1.8-1.5-3.2-3.4-3.6c-1.6,1.1-3.7,0.2-4.9,1.5c-1.5-0.6-2.8-1.2-4.1-1.7c-0.4-0.4-0.6-1.1-1.1-1.3
		c-3.9-1.7-7.7-4.1-12.1-4.5c-0.2,0-0.5,0-0.7-0.2c-1.4-1.4-3.3-1-5-1.1c-3.4-0.1-6.8-0.1-10.2-0.2c-0.2,0-0.3-0.1-0.5-0.2
		c0.8-0.7,2,0.2,2.7-0.9c-0.7-0.2-1.4-0.3-2.1-0.5c1-0.2,1.9-0.4,3.3-0.7c-3.4-0.8-5.8-0.3-7.6,2.3c0.5,0.2,0.8,0.5,1.1,0.5
		c3.8,0.7,7.6,1.5,11.4,2.2c0.8,0.1,1.6,0.2,2.4,0.2C279.8,17.6,280,17.2,280.2,17L280.2,17z M264.1,59.9c-0.5,0.9-1.3,0.9-2.1,0.6
		c-0.7-0.2-1.3-0.9-2.4-0.2c1.8,1.6,3.8,2.4,6.4,2.5c-0.8-1.1-1.4-2-2.1-2.8c-0.6-1-1.3-1.9-1.9-2.9c-0.5-0.8-1.1-1.6-1.4-2.4
		c-0.2-0.5-0.5-1.3-0.2-1.7c0.9-1.5,0.7-3.2,0.9-4.8c0.2-2.1,1.5-3.6,3.2-4.8c1.5-1.1,3-1.1,4.6-0.4c0.2,0.1,0.5,0.1,0.7,0
		c0.4-0.2,0.7-0.5,1.1-0.9c-2.6-0.5-5-1-7.4-1.5c-1.6-0.3-3.2-0.8-4.8-0.9c-2-0.1-3.9-0.6-5.7-1.4c-0.1-0.1-0.4,0.1-0.8,0.3
		c0.4,1.4,1.3,2.4,2.5,3.1c1.3,0.8,2.7,1.4,4.1,2.1c0.7,0.3,1.3,0.7,1.9,1c-1.2,0.2-2.2,0-3.2-0.3c-0.9-0.3-1.7-0.7-2.5-1.2
		c-0.9-0.5-1.7-1-2.7-1.6c0.3,2,0.4,2.2,4.7,5.6c-1.8-0.6-3-1-4.2-1.4l-0.2-0.1l0.3,0c0,0.5-0.1,0.9,0,1.4c0.6,2.8,2.4,4.7,4.5,6.5
		c0.7,0.6,1.8,1,2.2,2.1c-0.5,0.1-1,0.2-1.6,0.3c1.6,1.9,3.4,3,5.4,3.8C263.4,60,263.8,59.9,264.1,59.9z M252.7,23.4
		c-1.2,0.4-2.4,0.9-3.3,1.9c-3.2,3.8-5.9,7.9-7.3,12.7c-1.3,4.3-2,8.7-2.1,13.2c-0.2,5.5-0.4,11-0.6,16.6c0,0.7-0.2,1.5-0.3,2.2
		c-0.5-2.8-0.5-5.6-0.9-8.4c-0.8-6-0.7-12-0.3-18c0.5-7.1,2.6-13.6,7.6-18.9c0.3-0.3,0.5-0.7,0.7-1.1c-1.1-0.4-1.2-0.4-1.6-0.1
		c-2,1.9-3.4,4.2-4.5,6.7c-4.5,10.2-6,20.7-3.9,31.7c1.2,6.1,2.5,12.2,2.7,18.5c0,1.3,0.4,2.5,0.6,3.9c0.2-0.2,0.3-0.2,0.3-0.3
		c1.2-6.1,2-12.3,1.5-18.6c-0.1-2-0.3-4.1,0.1-6c0.4-1.9,0.3-3.7,0.2-5.6c-0.2-6.2,0.5-12.2,4.8-17.2c0.6-0.7,0.8-1.4,0.8-2.2
		c0-2.9,1.4-5.2,3.4-7.1c1.2-1.1,2.1-2.3,2.1-3.9c0.9-0.5,1.2-1.4,1.2-2.3c-1.2-0.3-1.2-0.3-2.5,0.5
		C251.8,22.1,252.2,22.7,252.7,23.4z M246.1,438.2c0.8-0.8,1.6-1.7,2.4-2.5c0.8-0.9,1.4-2.1,2.4-2.5c1.6-0.8,2.5-2.1,3.6-3.2
		c2.6-2.7,5.3-5.3,8-8c0.7-0.7,1.4-1.3,1.9-1.8c0.6-4.7,0.5-5.9-0.3-7.8c-0.8,0.6-1.5,1.2-2.2,1.8c-0.8,0.6-1.4,1.6-2.8,1.2
		c0.5-1.5,1.6-2.2,2.5-3c1-0.8,2-1.6,3.2-2.4c-0.1-3.9,0.1-7.8-0.7-11.6c-1.3-5.9-2.9-11.6-5.2-17.2c-4.8-11.7-8-23.9-9.3-36.5
		c-0.1-1.1-0.5-2.3-0.9-4.1c-1.2,8.2-2.2,15.6-3.2,23c-0.7,5.5-1.4,11-1.9,16.5c-0.3,2.6-0.6,5.1-0.6,7.7c0,2.3-0.3,4.9-2.1,6.9
		c-0.5,0.6-0.8,1.5-1.1,2.2c-1.4,2.9-2.7,5.7-4.1,8.6c-1,2.1-2.2,4.2-3.9,5.8c-0.5,0.5-1.1,1.2-1.7,1.2c-1.7,0.1-2.8,1.2-3.9,2.2
		c-1.6,1.4-3.2,2.8-4.8,4.2c-4.4,4-8.3,8.2-10.7,13.8c-1.5,3.5-3.4,6.7-4.8,10.2c-4.6,10.9-9.2,21.9-13.8,32.9
		c-0.3,0.8-0.5,1.6-0.8,2.3c-0.3,0.9-0.6,1.8-1.1,2.6c-1.2,2.2-2.5,4.3-3.7,6.4c-0.3,0.5-0.6,1.2-1.1,1.4c-2.6,1.1-4.2,3.4-6.4,5
		c-0.9,0.7-1.8,1.4-2.7,2.2c1.1,3.1,0.5,6-0.6,8.8c-1.4,3.3-0.5,6.2,0.8,9.2c0.3,0.6,0.7,1.3,1.3,1.7c2.1,1.5,4.2,3,6.5,4.3
		c0.6,0.4,1.6,0.5,2.3,0.4c2.5-0.6,5-1.3,7.3-2.8c0.4-6.5,3.5-12.1,6.9-17.5c0.8-1.3,1.7-2.6,2.5-3.8c3.4-4.9,6.8-9.9,10.2-14.8
		c0.9-1.4,1.9-2.7,2.9-4c5.3-6.7,10.7-13.4,16-20.2c4.3-5.5,8.5-11,12.7-16.5c0.5-0.6,0.7-1.4,1.1-2.1
		C246.2,438.1,246.1,438.2,246.1,438.2z M273.9,140L273.9,140c-0.5,0.6-0.8,1.5-1.4,2c-1.9,1.5-3,3.5-3.8,5.8
		c-0.2,0.7-0.6,1.3-1,1.9c-0.5,1-0.6,2-0.3,3c0.2,0,0.3,0.1,0.4,0c2.3-1.2,4.6-2.4,6.8-3.6c5.2-2.8,6-3.9,7-9.7
		c0.1-0.7,0.3-1.4,0.3-2.1c0.4-9-1.3-17.3-6.8-24.7c-5-6.7-10.7-12.8-17.3-17.8c-4.9,3.6-9.8,7.1-14.6,10.6
		c-0.5,0.3-0.9,0.7-1.4,1.1c-3.7,3.3-6.5,7.2-7.5,12.1c-1,4.5-1.9,9-2.7,13.5c-0.8,4.9-1.2,9.8,0.2,14.7c0.4,1.4,0.6,3-0.2,4.5
		c-0.3,0.7-0.2,1.6-0.2,2.4c0,2,0,4-0.1,6c-0.5,11.2,0.1,22.4,0.9,33.5c0.1,0.9,0.1,1.9,0.4,2.8c0.4,1.1,0.4,2,0.2,3.1
		c-0.4,2.2-0.7,4.4-0.9,6.6c-0.1,1.5-0.2,3.1,0.1,4.6c0.4,1.6-0.6,3-0.3,4.5c0,0.2,0,0.5,0,0.7c-0.1,1.2-0.2,2.3-0.3,3.5
		c-0.2,3.5-1.2,7-1,10.5c0.3,7.4,0.4,14.8,0.7,22.2c0.1,1.9,0.2,3.8,0.6,5.6c0.5,2.3,0.8,4.6,1,6.9c0.5,5.6,1.2,11.2,1.8,16.8
		c0.2,2.1,0.5,4.2,0.7,6.3c0.1,1.4,0.3,2.9-0.1,4.2c-0.4,1.3-0.5,2.5-0.4,3.8c0.4,3.4,0.1,6.8-0.2,10.2c0,0.3-0.1,0.7-0.2,1
		c-2.3,4.3-2.4,9.1-3.2,13.6c-0.5,2.7,1.3,5.2,4,6.4c0.4,0.2,1-0.2,1.5-0.3c1.7,2.1,3.7,3.9,6,5.4c0.5,0.4,1,0.6,1.6,0
		c-0.5-1-1.1-2.1-1.6-3.1c-0.1-0.1,0.1-0.4,0.2-0.6c1.2,0.4,1.6,1.6,2.4,2.5c1,1.2,1.9,2.4,2.9,3.5c0.4,0.4,0.8,0.3,1.2-0.4
		c-0.6-1.2-1.2-2.4-1.8-3.7c-0.1-0.3,0-0.8,0.1-1.3c0.6,0.3,1,0.4,1.2,0.6c1.3,2.1,2.6,4.2,3.9,6.4c1.1,0.4,2.4,0.3,3.7,0.1
		c0.5-0.1,1.1-0.5,1.4-1c0.4-0.6,0.5-1.3,0.6-1.5c-0.6-1-1.1-1.7-1.4-2.4c-0.4-0.9-0.4-1.9-1-2.6c-1.6-2.1-1.2-4.1-0.5-6.4
		c0.7-0.2,1.4-0.4,2-0.7c2.8-1.4,2.8-1.4,4.9-1.5c1.1-2.4,1-4.7-1.1-6.7c-0.6-0.6-1.1-1.3-1.7-1.8c-1.3-1.2-2.4-2.6-3.2-4.2
		c-1.8-3.4-3.5-6.9-4.1-10.8c-0.3-1.6-0.4-3.4-1.1-4.8c-1.7-3.5-2.2-7.2-2.3-11c-0.1-6,0.2-12,1.1-17.9c0.5-3.5,0.6-7,1.1-10.5
		c1.3-8.8,1.3-17.6,0.2-26.4c-0.9-6.9-0.1-13.6,2.2-20.1c1.1-3.2,2-6.5,2.9-9.8c0.9-3.5,1.5-7.1,2.2-10.7c1.1-4.8,2.2-9.6,3.3-14.5
		c1.4-6.4,2.7-12.9,4.1-19.3c0.2-0.8,0.5-1.6,0.8-2.3c0.5-1.4,1.2-2.8,1.7-4.3c0.8-2.7,1.5-5.4,2.3-8.2c0.2-0.5,0.5-1,0.9-2
		c0.5,1.6-0.2,2.7-0.2,3.8c0,1.1-0.9,2.2-0.5,3.4C272.4,141.3,272.7,139.8,273.9,140z M298.5,305.9c-1.4-0.1-2.8-0.2-4.2-0.3
		c-2.7-0.3-5.3-0.7-8.2-0.4c-0.1,0.9-0.2,1.7-0.3,2.5c-0.2,2.5-0.2,5-0.5,7.4c-0.7,5.1-1.5,10.2-2.3,15.4
		c-1.4,8.9-3.9,17.4-7.9,25.5c-0.7,0.5-1.5,0.8-2.1,1.3c-1.5,1.4-3.4,1.5-5.3,1.4c-0.6-0.1-1.2-0.2-1.7-0.3c-3.5-0.6-5-1.9-5.6-5.4
		c-0.4-2.2-0.7-4.4-0.7-6.7c0-3.9,0.2-7.7,0.3-11.8c-0.5,0.6-1,1-1.4,1.5c-0.6,0.6-1.3,0.9-2.2,0.9c-2.1,0-4.1,0-6.4,0
		c0.6,2.9,1,5.7,1.6,8.5c4.1,16.6,8.7,33,13.8,49.3c1.5,4.8,2.4,9.6,2.3,14.6c-0.1,3.1,0,6.1-0.1,9.2c-0.1,1.8-0.2,3.5-0.5,5.3
		c-1.5,6.9-3,13.8-4.7,20.6c-1.6,6.4-1.7,12.8-1.8,19.3c0,0.8,0.2,1.6,0.3,2.4c0.6,3.6,1.9,7,3.3,10.4c2.2,5.4,4.6,10.8,6.9,16.3
		c0.3,0.6,0.5,1.5,1,1.8c1.1,0.8,1.3,1.9,1.6,3c0.6,2.9,1.7,5.6,2.8,8.3c2.3,5.7,4.7,11.3,6.1,17.3c0.8,3.3,1.7,6.6,2.3,10
		c0.7,3.5,1.2,7,1.6,10.5c0.3,2-0.3,4.2,1.4,6c0.1,0.1,0.1,0.5,0.1,0.7c0.5,3.6,3,6,5.3,8.5c0.9,1,2.2,1.3,3.6,1.2
		c3.6-0.3,6.9-3,7.7-6.6c0.6-2.5,1.9-4.5,3.5-6.4c0.8-0.9,1.6-1.7,2.4-2.5c-0.2-0.6-0.4-1-0.6-1.4c-1.7-3.8-3.1-7.6-3.9-11.7
		c-0.2-1.2-0.5-2.3-0.8-3.4c-2.4-7.3-3.8-14.8-5.1-22.3c-0.9-5.1-1.8-10.2-1.6-15.4c0-0.8-0.1-1.7-0.3-2.4
		c-0.9-3.6-1.3-7.2-1.4-10.8c-0.1-3.5-0.1-7.1-0.1-10.6c0-1.2,0-2.4-0.1-3.5c-0.3-4.3-0.5-8.7-0.8-13c-0.1-0.8-0.1-1.6-0.2-2.4
		c-0.4,0-0.8-0.1-1.1-0.1c-0.3-1.5-0.7-3-1-4.4c-0.3-1.4-1.1-2.7-1-4.4c0.4,0.3,0.7,0.3,0.8,0.5c0.7,2,1.4,4.1,2.2,6.3
		c0.6-1.5,0.5-2.9,0.5-4.3c0-6.7,1.5-13.1,3.8-19.3c0.9-2.3,1.7-4.6,2.5-7c0.8-2.6,0.9-5.4,0.1-8c-0.4-1.4-0.7-2.7-0.8-4.1
		c-0.5-4.2-0.1-8.5,0-12.7c0.3-11.8,0.6-23.5,0.8-35.3c0.1-6.8,0.1-13.7,0-20.5c-0.1-6.9-0.7-13.9-1.6-20.8
		c-0.8-5.8-1.5-11.7-2.3-17.5c-0.1-0.7-0.1-1.4-0.1-2.1c0-0.7,0.1-1.3,0.2-2c0.1,0,0.3,0,0.4,0c2,11.8,4.1,23.6,6.1,35.2
		c2.7-6.7,4.3-15.8,3.4-20.9c-0.9,0-1.8-0.1-2.7-0.1c-1-0.1-2.1,0.4-3.2-0.4c1.8-2,4.4-0.2,6.2-1.3c0.1-0.4,0.2-0.8,0.2-1.1
		c0-4.9,0-9.9-0.1-14.8c0-2.8-0.1-5.7,0-8.5c0.2-4.4,0.9-8.7,1.9-12.9c0.2-0.9,0.6-1.8-0.1-2.6c-1,0.1-1.9,0.3-2.8,0.3
		c-1.8-0.1-3.5-0.2-5.3-0.4c-1.6-0.2-3.3-0.4-4.8-0.9c-5.4-2.1-10.9-3.6-16.5-5.1c-6.7-1.8-13.4-3.7-20.1-5.5
		c-2.4-0.6-4.8-1.3-7.4-1.3c-0.2,0.6-0.4,1.1-0.5,1.6c-0.2,1.4-0.4,2.8-0.6,4.2c-0.7,4.5-1.6,9-1.9,13.6c-0.5,7.4,0.3,14.6,2.8,21.6
		c1,2.8,1.8,5.6,1.7,8.6c0,1.1,0.4,2.1,1.4,2.6c3.5-0.5,7-0.6,10.2-2.2c0.8-1.8,1.5-3.5,2.4-5.2c0.6-1.3,1.3-2.5,2.2-3.6
		c1.4-1.7,3.1-2.4,5.3-1.8c1.4,0.4,2.7,0.7,4.1,0.9c2.1,0.3,3.4,1.6,3.9,3.6c0.4,1.5,0.6,3,0.9,4.5c0.1,0.8,0.2,1.6,0.4,2.4
		c1.5,0.3,2.9,0.5,4.3,0.9c2.4,0.6,4.8,1.3,7.1,2C298,305.2,298.5,305.4,298.5,305.9L298.5,305.9z M261.2,186.2
		c-0.3,1.7-0.6,3.1-0.8,4.5c-0.9,4.6-1.6,9.3-3.8,13.5c-1,2-1.7,4.1-2,6.3c-0.3,2.1-0.7,4.2-0.8,6.3c-0.3,3.8-0.7,7.5-0.3,11.3
		c0.4,2.8,0.7,5.6,1.1,8.4c0.1,1,0.2,2.1,0.1,3.2c-0.1,2.7-0.3,5.4-0.5,8.1c0,0.6,0.1,1.1,0.1,1.7c0.8,0.2,1.5,0.4,2.2,0.5
		c3,0.6,6,1.2,9,1.9c12.2,2.8,24.1,6.4,36,10.1c3.4,1.1,6.4,0.6,9.6-0.7c0.3-1.9,0.8-3.7,1-5.6c0.1-2.3,0-4.7-0.1-7
		c-0.2-8.5-0.9-16.9-0.6-25.4c0.1-2.8,0.5-5.4,1.5-7.9c0.7-1.8,1.4-3.5,2.3-5.1c2.4-4.3,3.5-9,3.6-13.9c0.2-4.2,0.1-8.5,0.2-12.7
		c0-0.6-0.2-1.1-0.2-1.6c-2.6-1.4-5.1-1.9-7.9-2.2c-3.3-0.3-6.5-0.4-9.8,0.1c-5.8,0.9-11.6,1.8-17.5,1.6c-3.9-0.2-7.7,0.5-11.4,1.8
		c-1.7,0.6-3.4,1.1-5.1,1.5C265.2,185.4,263.3,185.7,261.2,186.2z M281.1,582.1c0.8,0.3,1.6,0.6,2.5,0.9c2.7,0.8,5.6,0.7,8.4,0.8
		c3.2,0.1,6.3,0.3,9.5,0.4c1,0,2.1-0.1,3.2-0.2c4.3-0.5,8.4,0,12.5,1.5c1.9,0.7,3.8,1.4,5.7,1.7c7.4,1.3,14.9,1.8,22.5,0.8
		c6.1-0.8,11-3.8,15.9-7.2c0.2-0.1,0.4-0.3,0.5-0.5c0.7-0.7,1.1-1.4,1.1-2.5c-0.1-2.4,0-4.7-0.1-7.1c0-0.5-0.3-1.1-0.4-1.8
		c-2.2,0-4.4-0.3-6.4,0.1c-1.9,0.3-3.5,0-5.1-0.6c-1.8-0.6-3.5-1.3-5.1-2c-0.8,0.6-1.3,1.2-2,1.6c-0.5,0.3-1.1,0.2-1.4-0.7
		c0.5-0.5,1-1.1,1.5-1.7c-1-0.9-1.9-1.5-3.2-1.6c-0.4,0.5-0.8,0.9-1.1,1.4c-0.5,0.8-0.8,1.7-1.3,2.5c-0.2,0.3-0.8,0.6-1.1,0.6
		c-0.6-0.1-1-0.7-0.9-1.3c0-0.6,0.2-1.2,0.4-1.7c0.4-0.8,0.9-1.6,1.4-2.5c0.1-0.2,0.1-0.4,0.1-0.7c-0.7-0.8-1.4-1.5-2.8-1.5
		c-0.8,1.1-1.7,2.2-2.5,3.3c-0.4,0.6-0.8,1.2-1.2,1.7c-0.4,0.5-1,0.8-1.5,0.5c-0.4-0.3-0.8-0.8-1-1.4c-0.3-1,0.1-1.9,0.6-2.7
		c1-1.3,2-2.5,3.1-3.8c-0.5-0.7-1.2-1.3-1.6-1.3c-2.5,2.3-4.7,4.3-6.9,6.3c-0.3,0.3-0.7,0.6-1.1,0.9c-0.6,0.4-1.5,0-1.8-0.6
		c-0.4-0.9-0.3-1.8,0.2-2.7c0.8-1.3,2-2.3,3.3-3.1c1.2-0.8,2.3-1.5,3.8-2.4c-1.1-1-2-1.8-3.1-2.9c-1.8,2.3-3.5,4.4-5.1,6.5
		c-0.8,1-1.7,1.9-2.7,2.7c-0.4,0.3-1,0.3-1.5,0.4c-1.1-1.8-0.3-3.2,0.5-4.5c1.3-2.2,3-4.2,5-5.9c0.5-0.4,1-0.9,1.5-1.3
		c-1.8-2.4-3.4-4.7-5.2-7.1c-0.8-0.2-1.7-0.5-2.5-0.7c-1,1-1.8,2.1-2.8,2.8c-1.4,1-2.4,2.3-3.3,3.6c-1.8,2.4-3.4,4.8-3.7,7.6
		c-1.4,1.1-2.5,1.9-3.5,2.8c-3.2,2.7-7.5,2.8-10.6,0.1c-0.7-0.6-1.3-1.4-2-1.9c-1.1-0.8-1.8-1.8-2.2-3.1c-0.5-1.4-1.1-2.8-2.6-3.7
		c-0.4-0.2-0.5-0.9-0.8-1.4c-1,1-0.8,2.3-0.7,3.4c0.2,2.4,0.3,4.7-0.2,7c-0.1,0.5-0.1,0.9,0,1.4c0.5,3.5,0.1,6.8-1.7,9.9
		c-0.1,0.2-0.2,0.5-0.2,0.7c0.2,2.1-1.2,3.8-1.8,5.4C279.9,579.2,280.5,580.6,281.1,582.1z M173.4,496.2c-0.6-1,0.9-2.5-0.9-3.1
		c-0.2,0.1-0.5,0.1-0.7,0.2c-3.5,2.7-7.4,4.6-11.6,5.7c-0.6,0.1-1.1,0.4-1.6,0.8c-2,1.5-4.3,1.8-6.7,1.4c-0.5-0.1-1.1-0.3-1.8,0.4
		c-0.1,0.7-0.2,1.7-0.3,2.6c-0.5,4.2-0.2,8.2,1.4,12.1c0.2,0.5,0.3,1.1,0.5,1.7c0.5,1.3,0.9,2.7,1.6,3.9c0.9,1.5,1.9,3,2.9,4.4
		c1.6,2.2,3.2,4.3,4.8,6.5c0.5,0.7,0.9,1.3,0.9,2.2c-0.1,4.8,0.6,9.9,1.6,13.9c0.7,2.6,1.5,5.2,3.6,7.1c-0.6,2.4,0.5,4,2.2,5.3
		c2.9,2.3,6.2,4,9.8,4.6c5.3,0.9,10.7,1.5,16.1,2.3c1.1,0.2,2-0.2,3-0.7c3-1.6,3.5-4.6,2.6-8.4c-0.1-0.4-0.6-0.7-0.9-1
		c-0.1-0.1-0.2-0.1-0.3-0.1c-2.2,0.3-3.3-1.5-4.7-2.7c-1.8-1.5-3.1-3.2-3.2-5.6c0-0.2-0.3-0.3-0.3-0.3c-1.3,0.1-2.4,0.2-3.6,0.2
		c-0.3,0-0.8-0.5-0.9-0.9c-0.1-0.3,0.3-0.9,0.6-1.1c1.2-0.8,2.5-0.6,3.7,0.1c0.1,0.1,0.3-0.1,0.6-0.2c0-0.5-0.1-1.1-0.1-1.7
		c-1.3-0.2-2.5-0.3-3.6-0.6c-0.7-0.2-1.2-0.8-1.2-1.6c0-0.8,0.6-1.3,1.3-1.5c0.5-0.2,1.2-0.2,1.7-0.2c0.8-0.1,1.6-0.1,2.3-0.1
		c0.6-1.2,0.3-2.2-0.1-3.3c-0.4,0-0.7,0.1-1,0.1c-0.5,0.1-0.9,0.3-1.4,0.4c-0.7,0.1-1.4,0.1-2.1-0.1c-0.8-0.1-1.5-1-1.4-1.8
		c0.1-0.8,0.5-1.3,1.2-1.6c1.4-0.4,2.7-0.7,4.2-0.3c0.3,0.1,0.7-0.1,1.1-0.2c-0.1-1,0.7-2-0.4-3c-0.9,0.1-1.8,0.3-2.7,0.3
		c-1.2,0-2.3-0.2-3.5-0.4c-0.3-0.1-0.8-0.6-0.8-1c0-0.3,0.5-0.8,0.8-0.9c0.8-0.2,1.6-0.1,2.5-0.1c1.5,0,3,0.2,4.5-0.5
		c0.6-1.9,1.2-3.8,1.8-5.7c0.1-0.2,0.2-0.4,0.2-0.7c0.2-1.2,0.3-2.3-0.9-3.3c-2.9,1-6.3,0.6-8.6,2.9c-1.7-0.3-3.1-1-4.3-1.9
		c-1.4-1-2.8-2.2-4.3-3.1c-2-1.2-2.8-3-3.1-5.2c-0.2-1.5-0.7-2.9-1.2-5c0.2-0.8,0.7-2.3,1.1-3.7c0.6-2.1,1.3-4.3,0.7-6.6
		C174.3,496.8,173.8,496.5,173.4,496.2z M227.4,284.7c-1.6,0.9-2.4,2.3-3,3.7c-1.3,2.8-2.5,5.6-3.4,8.5c-3,9.3-4.9,18.9-5.8,28.6
		c-0.4,4.4-0.8,8.9-0.6,13.4c0.1,2.6,0.3,5.2,1.3,7.6c0.2,0.5,0.7,0.8,1.2,1.4c0.8-0.8,1.5-1.4,2-2.2c3-4.6,4.4-9.8,5.8-15
		c0.4-1.5,1-3.1,0.7-5c-0.9,0.1-1.5,0.2-2.2,0.2c-2.1,0-2.9-0.6-3.6-2.7c-0.5-1.4-0.6-2.8-0.3-4.2c0.6-2.6,1.3-5.2,2.1-7.8
		c0.1-0.5,0.7-0.9,1-1.2c2,0,3.7,1.4,5.7,0.8c0.1-0.3,0.3-0.6,0.4-0.9c1.3-4.7,2-9.4,1.3-14.3c-0.1-0.7,0-1.4-0.1-2.1
		c-0.2-1.8-0.3-3.5-0.6-5.2C229,287,228.8,285.6,227.4,284.7z M224.9,283.7c-4.3-1.1-5.7-0.7-7.5,2.9c-1.1,2.2-2.1,4.5-2.9,6.8
		c-3.3,9.2-5.1,18.8-6.3,28.5c-0.7,5.6-1,11.2-0.7,16.9c0.1,1.9,0.5,3.7,0.8,5.6c0.2,1.2,0.9,2.2,2.1,2.7c1.1,0.6,2.3,0.9,3.7,1
		c-0.4-2.1-0.9-3.9-1.1-5.7c-0.5-5.4-0.3-10.8,0.2-16.2c0.9-8.8,2.4-17.5,4.8-26c1.1-3.8,2.2-7.7,4-11.3
		C222.8,287.2,223.9,285.5,224.9,283.7z M268.2,357.3c0.1-0.3,0.2-0.4,0.2-0.5c-1.4-5-1.5-10.2-1.2-15.4c0.3-7,1.3-13.8,2.6-20.6
		c1.9-9.7,4-19.3,9.5-28c-0.8-0.1-1.5-0.3-2.1-0.3c-2.3-0.2-4.1,0.6-5.2,2.8c-1.1,2.3-2.2,4.7-3.2,7.1c-0.8,2.1-1.4,4.2-2,6.4
		c-0.6,2.1-1.4,4.3-1.4,6.5c0,2.4-1.4,4.2-1.5,6.5c-0.1,2.2-0.7,4.4-1,6.6c-1,6.5-1.4,13.1-1,19.7c0.1,1.9,0.5,3.7,0.8,5.6
		c0.2,1.2,1,2.2,2.1,2.7C265.8,356.9,267,357.2,268.2,357.3z M221.4,322.8c1.3,0.1,2.3,0.2,3.4,0.2c1.2-0.1,2.3,0.2,3.4,0.7
		c0.9,0.4,1.7,1.2,2.9,0.8c-0.4-1.8-0.9-3.5-1-5.2c-0.1-1.8,0.3-3.7,0.5-5.7c-2.5-0.6-5-1.2-7.4-1.8
		C221,315.3,220.4,319.3,221.4,322.8z M232.4,275.7c-1.1,4.1-2,8.2-1.2,12.5c0.3,1.8,0.3,3.7,0.4,5.6c0.2,2,0.3,4,0.6,5.9
		c0.1,0.7,0.6,1.4,1.1,2.5c0.5-1.7,0.5-2.9,0.1-4.2c-0.3-1.3-0.5-2.8-0.6-4.1c0-2.1,0.1-4.2,0.2-6.3
		C233.4,283.6,233.4,279.6,232.4,275.7z M257.5,305.3c0.4,0.6,0.7,1.3,1.2,1.7c1.4,1.4,3,2.6,3.9,4.4c0.1,0.3,0.7,0.4,1.1,0.6
		c1.2-2.6,2-5.9,2-7.9C262.9,304.1,260.2,303.3,257.5,305.3z M260.7,329.8c0.3-2.7,1.1-5.3,1.1-8.1c-1-0.2-1.9-0.4-2.8-0.6
		c-1,1.2-2,2.2-2.2,3.9c-0.1,2.1,0.5,3.8,1.5,5.8C259.2,330.4,260,330.1,260.7,329.8z M312.2,319.3c-1.1,2.8-1.1,5.6-1.2,8.4
		c0,0.7,0.3,1.4,0.7,2c0.5,0.9,1.3,1.2,2.2,1.2c0-1.9,0-3.7,0-5.4c0-1.7,1.1-3.3,0.6-5.2C313.8,319.9,313,319.7,312.2,319.3z
		 M325.8,334.7c0.1,0.6,0.2,1.4,0.3,2.5c0.8-0.6,1.5-0.8,1.8-1.3c1.2-1.9,2.2-3.8,3.2-5.8c0.1-0.1,0-0.4-0.1-0.7c-0.8,0-1.5,0-2.4,0
		C327.7,331.1,326.8,332.8,325.8,334.7z M315.6,321.3c-0.1,2-0.8,4.1-0.7,6.3c0,0.6,0.1,1.2,0.9,1.3c1.9-2.1,1.8-4.7,1.5-7.3
		C317.2,321,316.5,320.8,315.6,321.3z M284.4,10.7c-2.6-0.2-5.3-0.4-7.9-0.6c-0.4,0-0.9,0-0.7,0.8C278.7,11.1,281.5,11.3,284.4,10.7
		z M282.7,32.4c1.9,0.2,3.7,0,5.3-1c0.5-0.3,0.8-0.8,0.1-1.5C286,29.8,284.7,31.7,282.7,32.4z M267,48.2c-1.1,1.1-1.6,2.3-1.7,3.8
		c1.2-0.8,2.2-1.5,2.8-3C267.7,48.7,267.4,48.4,267,48.2z M232.3,304.8c-0.5,1.2-0.7,2.2-0.6,3.7
		C232.2,307.1,233.2,306.2,232.3,304.8z M276.1,12.9c0,0.1,0,0.1,0.1,0.2c0.7,0,1.5,0,2.2,0c0-0.1,0-0.1,0-0.2
		C277.7,12.9,276.9,12.9,276.1,12.9z M273.7,11c0-0.1,0-0.2,0.1-0.3c-0.7,0-1.3,0-2,0c0,0.1,0,0.2,0,0.3C272.4,11,273,11,273.7,11z
		 M286.5,11.4c0,0.1,0,0.3,0,0.4c0.6,0,1.3-0.1,2-0.1c0-0.1,0-0.2,0-0.3C287.8,11.4,287.2,11.4,286.5,11.4z M257.3,57.5
		c0.5,1.7,0.5,1.7,1.6,1.3C258.4,58.4,257.8,58,257.3,57.5z M276.5,44.8c-1-0.1-1.2-0.2-1.4-0.2c-0.2,0-0.4,0.1-0.6,0.2
		c0.2,0.1,0.4,0.2,0.6,0.2C275.4,45,275.6,44.9,276.5,44.8z M279.4,32.2c0.8-0.1,1.1-0.1,1.4-0.2c0.1,0,0.1-0.3,0.2-0.5
		c-0.1,0-0.2-0.1-0.3-0.1C280.3,31.5,280.1,31.7,279.4,32.2z M269.1,339.9c0,0,0.1,0,0.1,0c0-0.4,0-0.9,0-1.3c0,0-0.1,0-0.1,0
		C269.1,339,269.1,339.4,269.1,339.9z M272.7,315.1c0,0.3,0,0.5,0,0.8c0-0.1,0.1-0.1,0.1-0.2C272.8,315.5,272.8,315.3,272.7,315.1z
		 M231.2,310.1c-0.1,0-0.2,0-0.3,0c0.1,0.3,0.2,0.6,0.2,0.9C231.1,310.7,231.2,310.4,231.2,310.1z M286.6,18.8c0-0.1,0-0.1,0-0.2
		c-0.4,0-0.7,0-1.1,0c0,0.1,0,0.1,0,0.2C285.9,18.8,286.2,18.8,286.6,18.8z M270,332.2C269.9,332.2,269.9,332.2,270,332.2
		c-0.1,0.3-0.1,0.5-0.1,0.8c0,0,0.1,0,0.1,0C270,332.7,270,332.4,270,332.2z M286.8,10.1c0.5,0.2,0.6,0.3,0.7,0.3
		c0.2,0,0.3-0.1,0.5-0.2C287.7,10.2,287.4,10.1,286.8,10.1z M274.8,307.3l0.1,0.3l0.1-0.3L274.8,307.3z M248.8,20.8
		c0.2,0.1,0.4,0.2,0.6,0.2c0.1,0,0.2-0.1,0.2-0.2c-0.1-0.1-0.2-0.2-0.2-0.2C249.2,20.6,249,20.7,248.8,20.8z M274.2,309.9
		c0,0.1-0.1,0.2-0.1,0.3c0,0.1,0,0.2,0.1,0.3c0.1-0.1,0.1-0.2,0.1-0.3C274.3,310.1,274.2,310,274.2,309.9z"/>
	<path d="M632.8,96.8C632.9,96.8,632.9,96.8,632.8,96.8L632.8,96.8z"/>
	<path d="M700.6,168.8c-0.1,0.3-0.2,0.7-0.4,0.9c-6.6,4.3-13.8,5.7-21.5,4c-0.5-0.1-1-0.5-2-1c1-0.2,1.4-0.3,1.8-0.3
		c2,0,4,0.1,6,0.2c4.8,0.3,9.3-0.8,13.6-2.9C698.9,169.3,699.6,168.6,700.6,168.8C700.7,168.9,700.6,168.8,700.6,168.8z"/>
	<path d="M692.8,43.5c-2.1,1.8-2.9,3.3-2.2,5.6c-1.1-0.2-1.9-0.2-2.6-0.5c-0.6-0.3-1-1-1.5-1.3c-0.6-0.2-1.4-0.1-2.1-0.2
		c-0.2,0-0.3-0.3-0.6-0.7c1.3-1,2.7-1.6,4.1-2.4c0.6-0.3,1.3-0.6,2-0.7C690.6,43.3,691.3,43.4,692.8,43.5z"/>
	<path d="M673.1,76.3c-2.3,0.2-4.4-0.5-6.5-1.3c-0.9-0.3-1.7-0.7-2.6-1c-1.7-0.6-2.8-1.7-3.3-3.4c-0.3-1-0.6-2-0.7-3.1
		c0-0.3,0.4-0.7,0.6-1.1c1.1,0.8,1.1,2,1.3,2.9c0.3,1.3,0.9,2.2,2.1,2.7c1.5,0.7,3,1.3,4.5,1.9C670.1,74.6,671.8,75,673.1,76.3
		L673.1,76.3z"/>
	<path d="M682.3,41.7c1-2.3,3.2-2.6,5.2-2.7c2.3-0.1,4.6,0.6,6.5,2.1c0.1,0.1,0.2,0.4,0.2,0.6c-0.1,0.6-0.6,0.7-1,0.6
		c-1-0.3-2-0.6-3-1c-2-0.9-4-1-6,0.1C683.7,41.7,682.9,41.5,682.3,41.7L682.3,41.7z"/>
	<path d="M685.8,211.3c0.5-0.8,0.9-1.6,1.5-2.3c2.8-3.3,5.6-6.6,8.5-9.8c0.1-0.2,0.4-0.2,0.6-0.3c0.1,0.2,0.3,0.4,0.2,0.5
		c-2.7,4.3-6,8-9.6,11.6C686.7,211.1,686.1,211.1,685.8,211.3L685.8,211.3z"/>
	<path d="M670.5,240.2c1.3,3.4,2.5,6.3,2.7,10.3C671.1,247,670.2,244,670.5,240.2z"/>
	<path d="M693,232.4c0,2.1,0,3.8,0,5.6c-0.3,0-0.8,0.1-0.9,0c-1.4-1.9-1.5-3.6-0.1-5.3C692.2,232.5,692.6,232.5,693,232.4z"/>
	<path d="M657.6,185c1.3,2.2,2.2,3.8,3.1,5.5c-0.4,0.6-0.9,0.2-1.3-0.2C658.2,189,657.2,187.6,657.6,185z"/>
	<path d="M667.8,80.3c-0.8-0.9-1.5-1.7-2.3-2.6c-0.4-0.4-0.6-0.9-1.1-1.7c0.6,0.1,1,0,1.1,0.2C666.7,77.2,667.6,78.5,667.8,80.3z"/>
	<path d="M669.1,185c1,1.3,1.8,2.2,2.5,3.1c-0.3,0.7-0.7,0.6-1.1,0.3C669.6,187.6,668.8,186.8,669.1,185z"/>
	<path d="M707.1,174.5c-1.3,0.1-2.7,0.2-4-1.3C704.9,173.1,706.1,173.4,707.1,174.5L707.1,174.5z"/>
	<path d="M670.2,169.7c1.2-0.1,1.8,0.9,2.6,1.5C671.6,171.1,671.6,171.1,670.2,169.7L670.2,169.7z"/>
	<path d="M678.8,219.1c0.1-1.3,0.8-2.1,2.1-2.1l-0.1-0.1C680.4,217.9,679.8,218.7,678.8,219.1L678.8,219.1z"/>
	<path d="M697.2,197.9c0.2-0.7,0.3-1,0.5-1.2c0-0.1,0.4,0.1,0.6,0.1C698,197.1,697.8,197.3,697.2,197.9z"/>
	<path d="M672.3,89.1c-0.2-0.3-0.7-0.6-0.1-1.4C672.2,88.4,672.2,88.7,672.3,89.1L672.3,89.1z"/>
	<path d="M677.1,226.4c-0.1,0-0.2,0.1-0.2,0.1c-0.1-0.1-0.1-0.2-0.1-0.3c0.1,0,0.3-0.1,0.4-0.1C677.1,226.2,677.1,226.3,677.1,226.4
		z"/>
	<path d="M675,231.8c0,0.1-0.1,0.2-0.1,0.3c-0.1-0.1-0.2-0.2-0.2-0.3c0-0.1,0.1-0.2,0.2-0.2C674.9,231.6,674.9,231.7,675,231.8z"/>
	<path d="M682.4,215.6c0-0.2,0-0.4,0.1-0.7C682.4,215.1,682.3,215.3,682.4,215.6L682.4,215.6z"/>
	<path d="M666.8,195.3c0,0.1,0,0.2,0,0.2c-0.1,0-0.2,0.1-0.3,0.1c-0.4-0.1-0.4-0.3,0-0.4C666.6,195.2,666.7,195.2,666.8,195.3z"/>
	<path d="M673,76.3c0.2,0,0.5,0,0.7,0c0.1,0,0.2,0.2,0.3,0.3c-0.2,0-0.4,0.1-0.6,0.1C673.3,76.7,673.2,76.4,673,76.3
		C673.1,76.3,673,76.3,673,76.3z"/>
	<path d="M677.9,219.6c0,0.1,0,0.2,0,0.3C677.9,219.9,678,219.8,677.9,219.6L677.9,219.6z"/>
	<polygon points="672.2,89.1 672.4,89.1 672.3,89.1 	"/>
	<polygon points="670.3,169.6 670.2,169.5 670.2,169.7 	"/>
	<path d="M700.7,168.9c0.1-0.2,0.2-0.3,0.3-0.5C701.4,169,700.9,168.8,700.7,168.9C700.6,168.8,700.7,168.9,700.7,168.9z"/>
	<polygon points="704.5,164.8 704.6,165 704.4,165 	"/>
	<polygon points="663.9,192.8 663.7,192.7 663.8,192.9 	"/>
	<path d="M663.8,192.9c0.2,0,0.3,0.1,0.5,0.1c-0.1,0.1-0.2,0.2-0.3,0.3C664,193.2,664,193,663.8,192.9L663.8,192.9z"/>
	<path d="M685.7,211.2c-0.1,0.1-0.1,0.3-0.2,0.4c0-0.1,0-0.2,0-0.2C685.6,211.3,685.7,211.3,685.7,211.2
		C685.8,211.3,685.7,211.2,685.7,211.2z"/>
	<path d="M681.6,216.3c0-0.6,0.2-0.7,0.8-0.7l-0.1-0.1C682,215.7,681.8,216,681.6,216.3L681.6,216.3z"/>
	<path d="M681.5,216.2c-0.2,0.2-0.5,0.5-0.7,0.7l0.1,0.1C680.8,216.4,681.1,216.2,681.5,216.2L681.5,216.2z"/>
	<path d="M678.7,219c0,0.5-0.2,0.8-0.8,0.6l0.1,0.1C678.1,219.3,678.3,219,678.7,219L678.7,219z"/>
	<path d="M682.2,41.6c0,0.1,0,0.2-0.1,0.3C682.2,41.8,682.2,41.7,682.2,41.6C682.3,41.7,682.2,41.6,682.2,41.6z"/>
	<path d="M675.2,25.4C675.5,25.1,675,25.5,675.2,25.4L675.2,25.4z"/>
	<path d="M641.1,265.4c-1.6,3.1-0.8,6.5-2,9.8c-0.9-2.6-0.8-3.4,0.5-9.6c-0.3-0.4-0.6-0.9-1-1.3c1.8-1.3,1.8-1.3,2.1-2.9
		c0.2-1.1,0.5-2.2,0.9-3.7c0.3,0.9,0.5,1.4,0.7,2.1c1.7,0.4,3.5,0.8,5.4,1.3c-1,0.8-1.9,0.2-2.8,0.2c-0.9-0.1-1.8-0.3-2.9-0.4
		c-0.3,0.9-0.6,1.6-0.8,2.4c0.4,0.3,0.7,0.6,1,0.6c2.3,0.4,4.6,0.8,6.9,1.3c1.9,0.4,3.9,1,5.8,1.6c1.2,0.4,2.4,0.9,3.5,1.8
		c-0.6,0-1.2,0-1.8-0.1c-4.7-1.2-9.3-2.3-14.1-2.9C642,265.3,641.5,265.4,641.1,265.4z"/>
	<path d="M673.6,458.8c-0.3-0.1-0.5-0.1-0.5-0.2c-0.2-0.3-0.4-0.6-0.4-0.9c-0.8-5.7-1.6-11.3-2.4-17c-0.1-0.4,0-0.9,0.1-1.8
		c0.5,0.5,0.9,0.8,1,1.1c1.2,5.6,2.4,11.2,2.5,16.9C673.8,457.5,673.6,458.1,673.6,458.8z"/>
	<path d="M669,544.4c0.4-0.8,0.8-1.5,1-2.2c0.2-0.8,0.1-1.6,0.2-2.7c0.9,1.6,0.9,1.6,0.8,4.5c1.1,1.9,2.2,3.7,3.2,5.6
		c0.3,0.5,0,0.9-0.6,1.1c-0.2-0.2-0.6-0.3-0.7-0.5C671.5,548.3,670,546.5,669,544.4z"/>
	<path d="M682.5,398.8c0.1-0.3,0.1-0.7,0.2-0.9c1.9-2.8,3.7-5.6,5.6-8.4c1,0.1,1,0.7,0.8,1.3C687.6,393.9,685.5,396.7,682.5,398.8z"
		/>
	<path d="M690.1,287.7c-1.9,4.2-3.7,8.3-5.6,12.5c-0.1,0.2-0.3,0.3-0.6,0.5c0-0.4-0.2-0.8-0.1-1c1.4-3.9,3-7.6,5.3-11.1
		C689.3,288.2,689.8,288,690.1,287.7L690.1,287.7z"/>
	<path d="M700.6,288.9c-0.2,0.2-0.4,0.6-0.7,0.7c-2.1,0.8-4.2,1.5-6.3,2.2l0.1,0.1c0-0.1,0-0.3,0-0.3C695.7,290,698,289,700.6,288.9
		C700.7,289,700.6,288.9,700.6,288.9z"/>
	<path d="M683.3,429.4c-1.1-1.1-1.3-2.2-0.9-4.1C683.1,426.9,683.8,428,683.3,429.4z"/>
	<path d="M677.3,405.6c0.2-1.5,1-1.5,2.2-1.8C679.1,405,678.5,405.3,677.3,405.6z"/>
	<path d="M680.4,421.6c-0.1-0.7-0.2-1.4-0.3-2.4C680.9,420.1,680.9,420.1,680.4,421.6z"/>
	<path d="M696.5,295.1c0.5-0.4,1-0.7,1.4-1.1c0.1,0.1,0.2,0.2,0.3,0.4c-0.2,0.3-0.5,0.6-0.8,0.8c-0.2,0.2-0.6,0.2-0.8,0.2
		C696.7,295.3,696.6,295.2,696.5,295.1z"/>
	<path d="M673.2,467.3c0-0.7,0-1.2,0-2.1C673.7,466.1,673.8,466.6,673.2,467.3z"/>
	<path d="M699.9,281.9c0.5-0.4,0.9-0.8,1.4-1.2C701.2,281.6,700.6,282,699.9,281.9C699.8,281.8,699.9,281.9,699.9,281.9z"/>
	<path d="M682.2,401.5c-0.1,0.1-0.2,0.1-0.2,0.2c0-0.2-0.1-0.3-0.1-0.5c0-0.1,0.2-0.1,0.2-0.2C682.1,401.2,682.2,401.4,682.2,401.5z
		"/>
	<path d="M690.5,298.8c-0.1,0.2-0.3,0.3-0.4,0.5c-0.1-0.1-0.3-0.3-0.3-0.3c0.1-0.2,0.3-0.3,0.5-0.5
		C690.4,298.6,690.5,298.7,690.5,298.8z"/>
	<path d="M691.8,384c0-0.4,0-0.7,0-1.1c0.1,0,0.2,0,0.3,0c0,0.4,0,0.7,0,1.1C691.9,384,691.8,384,691.8,384z"/>
	<path d="M690.2,287.8c0-0.3,0-0.6,0-0.4C690.3,287.1,690.2,287.4,690.2,287.8C690.1,287.7,690.2,287.8,690.2,287.8z"/>
	<path d="M672.2,479.2c-0.1,0-0.1,0.1-0.2,0.1c0-0.1,0.1-0.3,0.1-0.4C672.1,479,672.2,479.1,672.2,479.2z"/>
	<path d="M669.8,534.8c0.1,0,0.1,0,0.2,0c0,0.1,0,0.2,0.1,0.3c-0.1,0-0.2,0-0.3,0C669.8,535,669.8,534.9,669.8,534.8z"/>
	<path d="M693.6,291.8c-0.1,0.2-0.2,0.4-0.3,0.5c-0.1,0-0.3-0.1-0.5-0.2c0.1-0.1,0.2-0.2,0.3-0.2
		C693.2,291.9,693.4,291.9,693.6,291.8L693.6,291.8z"/>
	<path d="M700.7,289c0.1-0.2,0.2-0.4,0.4-0.5c0.1,0,0.4,0.1,0.5,0.2c-0.1,0.1-0.2,0.1-0.3,0.1C701,288.9,700.8,288.9,700.7,289
		C700.6,288.9,700.7,289,700.7,289z"/>
	<path d="M699.8,281.8c0,0.2-0.1,0.3-0.1,0.5c0-0.1,0-0.1,0-0.2C699.8,282,699.8,281.9,699.8,281.8L699.8,281.8z"/>
	<path d="M684.5,302.5c0-0.1,0-0.2,0-0.2C684.5,302.3,684.4,302.3,684.5,302.5C684.4,302.4,684.5,302.5,684.5,302.5z"/>
	<path d="M684.4,302.4c-0.2,0.2-0.5,0.5-0.7,0.7l0.1,0.1C683.8,302.7,684,302.5,684.4,302.4L684.4,302.4z"/>
	<path d="M683.1,303.9c-0.1-0.6,0.2-0.8,0.7-0.7l-0.1-0.1C683.5,303.4,683.2,303.6,683.1,303.9L683.1,303.9z"/>
	<path d="M682.3,304.6c0-0.6,0.2-0.8,0.8-0.7l-0.1-0.1C682.9,304.3,682.7,304.6,682.3,304.6L682.3,304.6z"/>
	<path d="M619.9,131.8c0,3.6,0,6.9,0,10.3c-0.6,0.3-0.9-0.2-1-0.5c-0.6-3.2-0.7-6.4,0.3-9.6C619.3,132,619.4,132,619.9,131.8z"/>
	<path d="M651.2,104.1c-1.8-0.1-3.4-0.2-5-0.1c-1.5,0.1-3,0.3-4.8,0.5C644.8,102.2,648.4,102.1,651.2,104.1z"/>
	<path d="M643.4,321.4c0,0.1,0,0.3,0,0.3c-1.4,2.1-1.7,4.4-1.4,6.9c-0.8-0.5-1.6-1.1-1.6-2.1c0-1.3,0-2.7,0.4-4
		C641.2,321.3,642.5,321.6,643.4,321.4z"/>
	<path d="M635.7,294.4c-2.3-1.5-2.9-3.1-2.5-6.5C634.9,289.9,635,292.2,635.7,294.4z"/>
	<path d="M634.5,219.8c-1.5-2.5-1.8-4-1.3-6.2c1.2,0.5,1.1,1.7,1.5,2.6C635,217.3,635.3,218.4,634.5,219.8z"/>
	<path d="M628.6,318.8c1.8,2.1,1.7,4.6,0,6.5C628.1,323.1,628.4,321.1,628.6,318.8z"/>
	<path d="M655.8,121.7c0.6,2,0.5,3.4-0.2,5.4C655.2,125,655.3,123.6,655.8,121.7z"/>
	<path d="M628.9,317.4c-0.9-1.3-0.9-1.3,0-2.5C629.4,315.8,629.4,316.6,628.9,317.4z"/>
	<path d="M623.3,319.7c0-0.6,0-1.2,0-1.9c1.3,0.5,0.7,1.3,0.7,2C623.7,319.7,623.5,319.7,623.3,319.7z"/>
	<path d="M623.6,149.2c-0.1,0.3-0.2,0.5-0.3,0.7c-0.3-0.3-0.6-0.5-0.8-0.8c0,0,0.3-0.4,0.4-0.4C623.2,148.8,623.4,149,623.6,149.2z"
		/>
	<path d="M631.9,208.9c-0.1-0.2-0.2-0.4-0.2-0.6c0-0.1,0.4-0.3,0.5-0.2c0.1,0.1,0.2,0.4,0.2,0.5
		C632.3,208.8,632.1,208.9,631.9,208.9z"/>
	<path d="M621.9,145.3c-0.3-0.6-0.5-0.9-0.6-1.2c0-0.1,0.1-0.3,0.1-0.3c0.2,0,0.5,0.1,0.5,0.1C622,144.3,621.9,144.6,621.9,145.3z"
		/>
	<path d="M632,279.6c-0.1,0.1-0.2,0.2-0.4,0.3c0-0.2-0.1-0.4-0.1-0.6c0-0.1,0.1-0.2,0.2-0.2C631.9,279.2,632,279.4,632,279.6z"/>
	<path d="M627.8,311c0.9,0.3,0.9,0.9,0.2,1.8C628,312,627.9,311.4,627.8,311C627.9,310.9,627.8,311,627.8,311z"/>
	<path d="M641.9,328.5c1,0.5,0.7,1.5,0.8,2.3C641.8,330.2,642,329.3,641.9,328.5z"/>
	<path d="M632.7,283.3c0,0.1-0.1,0.2-0.1,0.3c-0.1-0.1-0.2-0.2-0.2-0.3c0,0,0.1-0.1,0.2-0.2C632.6,283.1,632.6,283.2,632.7,283.3z"
		/>
	<path d="M631.7,204.6c-0.1-0.2-0.2-0.4-0.2-0.6c0-0.1,0.1-0.2,0.2-0.3c0.1,0.1,0.2,0.2,0.2,0.3
		C631.9,204.2,631.8,204.4,631.7,204.6z"/>
	<path d="M656.8,118.7c0.1,0,0.2,0.1,0.2,0.1C657,118.8,657,118.7,656.8,118.7L656.8,118.7z"/>
	<polygon points="656.9,118.7 656.7,118.6 656.8,118.7 	"/>
	<path d="M658.9,139.9c0.1-0.2,0.2-0.3,0.3-0.5C659.5,140,659.1,139.8,658.9,139.9C658.8,139.8,658.9,139.9,658.9,139.9z"/>
	<path d="M627.9,310.9c-0.1,0-0.2-0.1-0.3-0.1C627.7,310.8,627.8,310.9,627.9,310.9C627.8,311,627.9,310.9,627.9,310.9z"/>
	<path d="M623.1,390.4c1.8-2.2,4.1-3.5,6.7-4.2c0.6-0.2,1.1,0,1.4,0.7C628.7,388.9,625.3,390.4,623.1,390.4z"/>
	<path d="M597,435.7c0.1-3.2,1.7-7.6,3.6-10c0.1,0.2,0.3,0.4,0.3,0.5c-1,3-2,6-3.1,9C597.7,435.3,597.3,435.5,597,435.7z"/>
	<path d="M579.9,427.6c0.1-0.4,0-1,0.2-1.3c1.3-2.3,3.7-4.5,6.6-6.1c0,0.4,0.1,0.8,0,0.9C584.4,423.2,582.1,425.4,579.9,427.6
		L579.9,427.6z"/>
	<path d="M636.1,381.9c-1,1.4-2.1,2.3-3.6,3.2C633.7,382.9,633.7,382.9,636.1,381.9z"/>
	<path d="M535.6,492.8c-0.1-1.5,0.3-2,1.4-2.1C537,491.6,536.4,492,535.6,492.8z"/>
	<path d="M576.6,432c0.4,0.7-0.1,1-0.5,1.4C575.6,432.7,576.2,432.4,576.6,432z"/>
	<path d="M617.1,396.4c-0.2,0.2-0.5,0.3-0.7,0.5c-0.1-0.2-0.3-0.4-0.3-0.5c0.2-0.2,0.4-0.4,0.6-0.6
		C616.8,396,616.9,396.1,617.1,396.4z"/>
	<path d="M620.6,393.5c-0.3-0.4-0.5-0.6-0.4-0.7c0.2-0.2,0.4-0.4,0.7-0.6c0,0,0.4,0.3,0.3,0.4C621,392.9,620.8,393.2,620.6,393.5z"
		/>
	<path d="M570.4,444.2c-0.1,0.2-0.2,0.4-0.2,0.5c-0.1-0.1-0.2-0.2-0.2-0.2c0-0.2,0.1-0.4,0.2-0.5
		C570.3,444.1,570.4,444.1,570.4,444.2z"/>
	<path d="M540.2,486.2c-0.1,0.1-0.1,0.2-0.2,0.3C540.1,486.4,540.2,486.3,540.2,486.2L540.2,486.2z"/>
	<path d="M533.2,496.1c0.1-0.2,0.1-0.3,0.2-0.5C533.8,496.1,533.3,496,533.2,496.1L533.2,496.1z"/>
	<path d="M579.8,427.5C579.5,427.8,580,427.4,579.8,427.5L579.8,427.5z"/>
	<path d="M543.8,481.2c0.1-0.1,0.2-0.2,0.3-0.3c0,0.1,0,0.1-0.1,0.2C543.9,481.1,543.8,481.1,543.8,481.2L543.8,481.2z"/>
	<polygon points="543.7,481.1 543.6,481.3 543.8,481.2 	"/>
	<polygon points="540.2,486.3 540.3,486.1 540.2,486.2 	"/>
	<path d="M664.7,321.9c-0.2,4.2-0.8,7.5-1.9,10.8c-0.3,0.9-0.7,1.8-1.2,2.5c-0.3,0.4-1,0.8-1.4,0.8c-0.5,0-1.1-0.6-1.2-1
		c-0.3-1-0.6-2.1-0.5-3.1c0.3-3.8,0.8-7.5,2-11.1c0.3-0.9,0.8-1.7,1.4-2.4c0.6-0.8,2-0.5,2.3,0.4
		C664.5,320.1,664.6,321.4,664.7,321.9z M662.6,325.1c-0.8,1.5-0.8,1.5-0.2,3.8C662.4,327.3,662.4,326.2,662.6,325.1
		c0.1-0.3,0.2-0.6,0-0.3C662.6,324.5,662.6,324.8,662.6,325.1z M661.4,331.2c-1.3,0.3-1.3,1-0.7,2.2
		C661.1,332.4,661.2,331.8,661.4,331.2z M663,321.9c0-0.2-0.1-0.4-0.1-0.6c-0.3,0.1-0.6,0.2-0.7,0.5c-0.1,0.2-0.1,0.6,0,0.9
		c0,0.1,0.5,0.2,0.5,0.1C662.7,322.5,662.8,322.2,663,321.9z"/>
	<path d="M668,299.8c-0.1,0.1-0.1,0.2-0.2,0.2c-0.1-0.2-0.2-0.4-0.2-0.5c0-0.1,0.1-0.2,0.2-0.2C667.8,299.5,667.9,299.6,668,299.8z"
		/>
	<polygon points="719.1,310.2 718.9,310.1 719.1,310.2 	"/>
	<path d="M670.3,20.4c0,0.3,0,0.5,0,0.8c-0.9-0.2-2.1,0.2-2.7-0.9l-0.1,0.1C668.4,20.4,669.4,20.4,670.3,20.4z"/>
	<path d="M667.6,20.4c-0.5,0-1-0.1-1.7-0.1C666.6,19.7,667,20.1,667.6,20.4L667.6,20.4z"/>
	<path d="M649.7,25.4c-0.5-0.1-1-0.2-1.5-0.3C648.9,24.7,649.3,25,649.7,25.4L649.7,25.4z"/>
	<path d="M646.3,26.9c-0.5-0.3-1-0.5-1.5-0.8C645.3,26.2,646,26.2,646.3,26.9z"/>
	<path d="M649.6,25.5c0.2,0,0.4,0,0.6,0.1c0.1,0,0.2,0,0.3,0c-0.1,0.1-0.3,0.2-0.4,0.2C650,25.7,649.9,25.5,649.6,25.5L649.6,25.5z"
		/>
	<path d="M644.9,26.2c-0.5-0.3-1-0.5-1.5-0.8C643.9,25.5,644.6,25.4,644.9,26.2z"/>
	<path d="M643.5,25.4c-0.5-0.3-1-0.5-1.5-0.8C642.4,24.9,642.9,25.2,643.5,25.4z"/>
	<path d="M664.6,21.9C664.3,21.6,664.6,22,664.6,21.9L664.6,21.9z"/>
	<path d="M655.4,38.1c-0.8-0.1-1.6,0.1-2.1-0.7l-0.1,0.1C654,37.4,654.8,37.4,655.4,38.1L655.4,38.1z"/>
	<path d="M655.3,38.2c0.2,0,0.5,0,0.7,0.1c0.1,0,0.2,0.1,0.3,0.1c-0.2,0.1-0.4,0.3-0.5,0.2C655.7,38.5,655.5,38.3,655.3,38.2
		C655.4,38.1,655.3,38.2,655.3,38.2z"/>
	<path d="M666.1,17.6c-0.1,0-0.3-0.1-0.4-0.1c0.1,0,0.1,0,0.2,0C665.9,17.5,666,17.6,666.1,17.6C666,17.7,666.1,17.6,666.1,17.6z"/>
	<path d="M261.8,260.7c-1.5,0-3,0-4.7,0c-0.7,1-0.7,1-0.8,2.5c5.9,1.1,12,1.9,18.2,5.1c-1.4-0.2-1.9-0.2-2.5-0.3
		c-4.3-0.9-8.5-1.8-12.8-2.7c-1.1-0.2-2.3-0.5-3.4-0.1c-1.4,3.1-0.9,6.5-2,9.6c-1.1-3.3,0.2-6.5,0.5-9.7c-0.4-0.4-0.9-0.8-1.3-1.2
		c2.1-1,2.1-1,2.5-2.9c0.2-1,0.5-2,0.8-3.4c0.5,1.1,0.7,2,1.8,2.2c0.8,0.1,1.6,0.2,2.4,0.5C261,260.2,261.3,260.6,261.8,260.7
		L261.8,260.7z"/>
	<path d="M289.9,545.7c0.4,1.2,0.8,2.5,1.3,3.9c2.2,1.9,4.7,3.4,6.7,5.5c-0.2,0.9-0.8,1.1-1.4,0.9c-3.1-1-5.7-2.8-6.8-6
		c-0.4-1.1-0.6-2.2-0.9-3.4c0-0.2,0.3-0.5,0.5-0.8C289.3,545.7,289.5,545.7,289.9,545.7z"/>
	<path d="M275.2,440.1c-0.3,6.1,0.2,11.9,0.8,17.7c-1.1,0.1-1.2-0.6-1.2-1.1c-0.3-1.9-0.7-3.7-0.7-5.6c0-3.2,0.3-6.3,0.5-9.5
		C274.7,441.1,275,440.6,275.2,440.1z"/>
	<path d="M297.2,404.2c0-0.5,0-1,0.1-1.4c1-2.5,2-4.9,3.1-7.6c0.1,0.6,0.3,0.9,0.2,1.2c-0.6,2.7-1.6,5.3-3.2,7.6
		C297.4,404.1,297.2,404.1,297.2,404.2C297.1,404.1,297.2,404.2,297.2,404.2z"/>
	<path d="M302.4,294.9c-0.1-2.8,0.6-5.5,1.6-8.7C304.4,289.7,303.4,292.3,302.4,294.9z"/>
	<path d="M255.9,284.1c0,1.4,0,2.4,0,3.5C255.4,286.5,255.2,285.5,255.9,284.1z"/>
	<path d="M275.8,463.4c0-0.9,0-1.5,0-2.1c0-0.1,0.3-0.4,0.5-0.4c0.2,0,0.5,0.2,0.5,0.3C277,462,277.1,462.7,275.8,463.4z"/>
	<path d="M289,543.7c-0.8-1-0.8-1.9,0-2.9C289.7,541.8,289.8,542.7,289,543.7z"/>
	<path d="M305.7,272.9c0-1.2,0-1.7,0-2.7C306.5,271.1,306.3,271.7,305.7,272.9z"/>
	<path d="M305.5,278.6c-1.1-0.7-0.5-1.3-0.5-2C306.1,277.3,305.6,277.8,305.5,278.6z"/>
	<path d="M295.6,407.9c-0.3,0.1-0.5,0.2-0.8,0.3c0-0.2-0.2-0.5-0.1-0.6c0.2-0.2,0.5-0.3,0.8-0.4
		C295.4,407.4,295.5,407.6,295.6,407.9z"/>
	<path d="M289.7,432.6c-0.4-0.5-0.6-1,0-1.4C290.3,431.7,290.4,432.1,289.7,432.6z"/>
	<path d="M288.4,426.8c0,0.1,0,0.2-0.1,0.3c-0.2-0.2-0.4-0.3-0.7-0.5c0.1-0.1,0.2-0.2,0.2-0.2C288,426.5,288.2,426.6,288.4,426.8z"
		/>
	<path d="M291.5,413.7c-0.2,0.1-0.5,0.2-0.8,0.2c-0.1-0.2-0.2-0.5-0.1-0.6c0.2-0.2,0.5-0.3,0.7-0.4
		C291.4,413.2,291.4,413.4,291.5,413.7z"/>
	<path d="M289.1,535.2c0.1,0.3,0.2,0.6,0.2,1c0,0.1-0.2,0.3-0.4,0.4c-0.1-0.1-0.2-0.2-0.2-0.3c0-0.4,0-0.7,0.1-1.1
		C288.9,535.2,289,535.2,289.1,535.2z"/>
	<path d="M261.7,260.8c0.2,0,0.4,0,0.7,0c0.1,0,0.2,0.1,0.3,0.1c-0.1,0.1-0.3,0.3-0.4,0.2C262.1,261.1,261.9,260.9,261.7,260.8
		L261.7,260.8z"/>
	<path d="M278.6,471.3c-0.1,0.2-0.2,0.4-0.3,0.5c-0.1-0.1-0.2-0.2-0.2-0.2c0.1-0.2,0.2-0.4,0.3-0.6
		C278.5,471.1,278.5,471.2,278.6,471.3z"/>
	<path d="M258.2,298.3c0.2,0.2,0.4,0.3,0.6,0.5c0,0-0.1,0.2-0.2,0.2c-0.1-0.1-0.2-0.1-0.2-0.2C258.3,298.6,258.3,298.4,258.2,298.3
		L258.2,298.3z"/>
	<path d="M297.1,404.1c0,0.1-0.1,0.2-0.1,0.3C297.1,404.4,297.1,404.3,297.1,404.1C297.2,404.2,297.1,404.1,297.1,404.1z"/>
	<path d="M298.4,306c0.1,0,0.2,0,0.2,0C298.6,306,298.6,306,298.4,306L298.4,306z"/>
	<polygon points="258.3,298.2 258.2,298.1 258.2,298.3 	"/>
	<path d="M234.8,141.8c-0.5-0.2-0.8-0.3-0.9-0.4c-1-2.2-0.5-4.6-0.4-6.9c0-1-0.2-2.1,0.8-3c0.2,0.3,0.4,0.4,0.4,0.6
		c0.1,0.3,0.1,0.7,0.1,1C234.8,136,234.8,138.7,234.8,141.8z"/>
	<path d="M256.9,103.9c0.1-0.2,0.2-0.5,0.3-0.6c2.5-1.2,5.2-1.2,7.8-0.5c0.3,0.1,0.6,0.3,1.6,1C262.7,103.8,259.8,103.8,256.9,103.9
		L256.9,103.9z"/>
	<path d="M250.5,294.7c-2.3-2.1-2.9-4.3-2.7-6.8c0.3,0.1,0.7,0.1,0.7,0.2C249.5,290.1,250.4,292,250.5,294.7z"/>
	<path d="M249.4,219.7c-1.4-2.4-1.7-4-1.5-6.5C249.5,214.7,250,216.4,249.4,219.7z"/>
	<path d="M243.6,325.3c-0.5-3.6-0.5-3.9,0.1-6.4c0.7,0.1,0.9,0.7,1,1.2C244.8,321.8,245.1,323.4,243.6,325.3z"/>
	<path d="M238.3,317.5c1.1,0.6,0.7,1.3,0.5,2C237.6,318.9,238,318.3,238.3,317.5z"/>
	<path d="M270.6,126.2c-0.7-1.5-0.3-2.8-0.2-4.4C271.2,123.6,271.2,123.6,270.6,126.2z"/>
	<path d="M244,314.6c0,0.8,0,1.5,0,2.5C242.8,315.6,242.8,315.6,244,314.6z"/>
	<path d="M243.2,312.4c-0.4-0.7-0.6-1-0.7-1.3c0-0.2,0.1-0.4,0.1-0.6c0.2,0.1,0.5,0.2,0.5,0.3C243.3,311.2,243.2,311.5,243.2,312.4z
		"/>
	<path d="M247.3,208.2c-0.1,0.2-0.2,0.4-0.3,0.6c-0.2-0.1-0.5-0.1-0.5-0.3c0-0.1,0.1-0.4,0.2-0.6C247,208,247.1,208.1,247.3,208.2z"
		/>
	<path d="M236.5,143.6c0.1,0.2,0.3,0.3,0.3,0.5c0,0-0.2,0.2-0.3,0.3c-0.1-0.2-0.2-0.4-0.3-0.6C236.2,143.8,236.4,143.7,236.5,143.6z
		"/>
	<path d="M247.6,282.9c-0.1,0.2-0.1,0.4-0.2,0.6c-0.1-0.1-0.2-0.2-0.1-0.3c0-0.2,0.1-0.4,0.2-0.6
		C247.5,282.7,247.5,282.8,247.6,282.9z"/>
	<path d="M238,149.7c-0.2-0.4-0.4-0.8-0.5-1.1c0.2-0.1,0.5-0.2,0.6-0.2C238.5,148.8,238.5,149.2,238,149.7z"/>
	<path d="M246.5,204.3c0-0.4,0-0.8,0-1.2c0.1,0,0.2,0,0.2,0c0,0.4,0,0.8,0,1.2C246.6,204.3,246.6,204.3,246.5,204.3z"/>
	<path d="M246.6,278.7c0.1,0.2,0.2,0.4,0.2,0.6c0,0.1-0.1,0.1-0.2,0.2c-0.1-0.2-0.1-0.4-0.2-0.6
		C246.4,278.9,246.6,278.8,246.6,278.7z"/>
	<path d="M250.7,106.3c0,0.1-0.1,0.1-0.1,0.1c-0.1,0-0.2,0-0.3-0.1c0-0.1,0.1-0.2,0.1-0.2C250.5,106.2,250.6,106.2,250.7,106.3z"/>
	<polygon points="271.9,118.4 271.6,118.4 271.6,118.2 	"/>
	<path d="M273.9,140c0-0.2-0.1-0.4-0.1-0.6c0-0.1,0.3-0.2,0.4-0.2c0,0.1,0.1,0.2,0,0.3C274.1,139.6,274,139.8,273.9,140
		C273.8,139.9,273.9,140,273.9,140z"/>
	<path d="M256.8,103.8c0,0.1-0.1,0.2-0.1,0.3C256.8,104,256.8,103.9,256.8,103.8C256.9,103.9,256.8,103.8,256.8,103.8z"/>
	<path d="M315.8,168.4c-4.8,5.3-18,7.1-23.4,4.2c0.1-0.7,0.6-0.6,1-0.6c1.9,0.1,3.7,0.2,5.6,0.3c4.9,0.3,9.5-0.9,13.9-3
		c0.8-0.4,1.7-0.7,2.6-1.1C315.6,168.2,315.7,168.4,315.8,168.4z"/>
	<path d="M288.6,76.3c-3.7-0.2-7-1.5-10.4-2.9c-1.2-0.5-2-1.2-2.4-2.4c-0.4-1.2-0.8-2.4-1.1-3.7c-0.1-0.3,0.3-0.8,0.5-1.2
		c1.2,0.6,1.2,1.6,1.3,2.4c0.3,1.8,1.3,2.9,2.9,3.6c1.3,0.5,2.6,1,3.9,1.5C285.3,74.3,287.2,74.9,288.6,76.3L288.6,76.3z"/>
	<path d="M305.7,48.6c-2.7-0.1-2.7-0.1-4-1.7c-0.9-0.2-2.1,0.7-2.9-0.5c1.2-1.1,4.1-3,5.3-3.2c1-0.2,2.1-0.4,3.2,0.3
		C306.1,44.9,304.3,46.1,305.7,48.6z"/>
	<path d="M296.5,41.5c2-2.2,4-3.1,6.6-2.8c1.7,0.1,3.2,0.5,4.7,1.3c1.1,0.6,1.7,1.4,1.3,1.7c-0.7,0.6-1.3,0.2-2,0
		c-0.3-0.1-0.7-0.2-1-0.4c-2.7-1.3-5.4-1.5-8,0.2C297.8,41.6,297.4,41.5,296.5,41.5z"/>
	<path d="M283,79.8c-1.7-0.7-2.5-2.3-3.4-3.6c0.5-0.6,0.9-0.4,1.2,0C281.6,77.3,282.9,78.2,283,79.8L283,79.8z"/>
	<path d="M287.3,88.2c-0.3-0.2-0.6-0.3-0.8-0.5c-0.1-0.1,0.1-0.3,0.1-0.5c0.1,0,0.3,0,0.3,0.1C287,87.6,287.1,88,287.3,88.2
		L287.3,88.2z"/>
	<path d="M286.6,170.2c-0.3-0.1-0.6-0.1-0.9-0.2c-0.2-0.1-0.2-0.3-0.4-0.6C286.1,169.2,286.4,169.7,286.6,170.2
		C286.5,170.3,286.6,170.2,286.6,170.2z"/>
	<path d="M286.5,170.3c0.2,0,0.5,0,0.7,0.1c0.2,0.1,0.3,0.3,0.4,0.5c-0.3,0-0.6,0-0.9,0C286.6,170.8,286.6,170.4,286.5,170.3
		L286.5,170.3z"/>
	<path d="M318.9,164.5c0,0.1,0,0.2,0,0.3C318.9,164.8,319,164.7,318.9,164.5L318.9,164.5z"/>
	<path d="M319,164.6c0.1-0.1,0.2-0.2,0.4-0.3c0,0.1-0.1,0.1-0.1,0.2C319.1,164.5,319,164.5,319,164.6L319,164.6z"/>
	<polygon points="287.2,88.3 287.4,88.5 287.3,88.2 	"/>
	<path d="M282.9,79.9c0.1,0,0.2,0,0.2,0.1C283.1,79.9,283,79.8,282.9,79.9L282.9,79.9z"/>
	<path d="M288.6,76.3c0.1,0.1,0.3,0.1,0.4,0.2c-0.1,0-0.2,0-0.2,0C288.7,76.4,288.7,76.3,288.6,76.3L288.6,76.3z"/>
	<path d="M300.7,211c1.9-3.2,9.1-11.4,10.8-12.6C310.2,201.5,304.1,208.7,300.7,211z"/>
	<path d="M287.7,249.4c-1.7-2.8-2.7-5.9-2.5-10C286.6,243.1,287.8,246.1,287.7,249.4z"/>
	<path d="M308.1,231.9c-0.1,1.2-0.3,2.2-0.4,3.2c0,0.9,0.2,1.8,0.3,2.9c-0.6-0.2-1.1-0.2-1.1-0.4c-0.4-0.9-0.8-1.9-1-2.9
		c-0.1-0.9,0.3-1.8,1-2.5C307.2,232.1,307.5,232.1,308.1,231.9z"/>
	<path d="M272.6,185.1c1.2,1.9,2.3,3.6,3.4,5.5c-1.2,0.1-1.9-0.6-2.5-1.5C272.8,188,271.9,186.9,272.6,185.1z"/>
	<path d="M293,219.8c-0.3-0.8,0.1-1.3,0.6-1.8c1.1-1.1,2.3-2.1,3.5-3.2c0,0-0.1-0.1-0.1-0.1c-0.2,0.5-0.3,1.1-0.7,1.5
		C295.3,217.5,294.1,218.6,293,219.8L293,219.8z"/>
	<path d="M286.1,188.5c-1.4-0.8-2.3-1.8-2.3-3.6C286.1,187,286.2,187.1,286.1,188.5z"/>
	<path d="M281.9,195.2c0,0.1,0,0.2,0,0.2c-0.2-0.1-0.5-0.3-0.7-0.4c0.1-0.1,0.2-0.2,0.2-0.2C281.6,194.9,281.7,195,281.9,195.2z"/>
	<path d="M279.3,192.6c-0.1,0.1-0.2,0.3-0.4,0.4c-0.1-0.2-0.3-0.3-0.4-0.5c0.1-0.1,0.2-0.2,0.3-0.2
		C279,192.4,279.1,192.5,279.3,192.6z"/>
	<path d="M291.8,225.6c0.1,0.1,0.2,0.2,0.2,0.2c-0.1,0.2-0.2,0.3-0.3,0.5c0-0.2-0.1-0.4-0.1-0.5
		C291.6,225.7,291.8,225.7,291.8,225.6z"/>
	<path d="M289.8,231.8c-0.1,0-0.2,0.1-0.2,0.1c0-0.1-0.1-0.2-0.1-0.3c0.1,0,0.2-0.1,0.3-0.1C289.8,231.6,289.8,231.7,289.8,231.8z"
		/>
	<path d="M292.9,219.7C292.6,220.1,293.1,219.7,292.9,219.7L292.9,219.7z"/>
	<path d="M312.7,196.4c0-0.1,0.1-0.2,0.1-0.3c0,0,0.1,0,0.2,0C312.9,196.2,312.7,196.3,312.7,196.4L312.7,196.4z"/>
	<path d="M312.6,196.3c0,0.2-0.1,0.4-0.1,0.6C311.9,196.5,312.5,196.5,312.6,196.3L312.6,196.3z"/>
	<path d="M297.1,214.8C297.4,214.4,297,214.8,297.1,214.8L297.1,214.8z"/>
	<path d="M234.7,429.6c0.4,3.6-0.6,6.2-1.7,8.7c-1.2,2.7-2.3,5.5-5.2,7.9c0.3-2,1.2-3.1,1.8-4.3c0.6-1.3,1.3-2.5,1.9-3.8
		c0.6-1.3,1.1-2.6,1.6-3.9C233.7,432.9,234.1,431.6,234.7,429.6z"/>
	<path d="M182.1,500.7c-0.8,1.6-1.4,2.8-1.8,3.7c0.1,1.4,0.2,2.6,0.2,3.7c0,0.9-0.6,1.6-1.1,1.5c-0.7-0.2-0.8-0.7-0.8-1.4
		c0-1.8,0.1-3.5,1.2-5C180.2,502.4,180.4,501.3,182.1,500.7z"/>
	<path d="M243.6,396.6c-0.5-1.8,0.1-2.7,0.3-3.7c0.2-1,0.3-2.1,0.5-3.1c0.9-0.2,1,0.4,1,1C245.2,392.6,244.8,394.4,243.6,396.6z"/>
	<path d="M246.2,438.1c-0.3-0.2-0.7-0.4-0.7-0.7c-0.3-1.7,0.3-3.5,2-5.5c0.1,2.4-1,4.2-1.4,6.2L246.2,438.1z"/>
	<path d="M242.6,406.5c0.6,0.5,0.1,1-0.1,1.5c-0.1,0.1-0.4,0.3-0.5,0.2c-0.1,0-0.3-0.3-0.3-0.5C241.8,407.3,241.9,406.7,242.6,406.5
		z"/>
	<path d="M224.3,451.5c0.2-0.6,0.5-1.2,0.7-1.8C225.4,450.6,225.3,451.4,224.3,451.5L224.3,451.5z"/>
	<path d="M248.7,426.1c-0.2,0.1-0.3,0.3-0.5,0.4c-0.1-0.2-0.2-0.3-0.3-0.5c0-0.1,0.2-0.3,0.2-0.3C248.3,425.8,248.5,426,248.7,426.1
		z"/>
	<path d="M243.8,402.8c-0.1,0-0.1,0.1-0.2,0.1c0-0.1-0.1-0.2-0.1-0.3c0,0,0.1-0.1,0.2-0.1C243.8,402.6,243.8,402.7,243.8,402.8z"/>
	<path d="M187.2,492.2c-0.1,0.1-0.2,0.2-0.3,0.1c-0.1-0.1-0.2-0.2-0.2-0.3c0.1,0,0.2-0.1,0.3,0C187.1,492,187.2,492.1,187.2,492.2z"
		/>
	<path d="M223.7,453c-0.1-0.6,0-1.2,0.6-1.5l-0.1-0.1C224.4,452.1,224.3,452.6,223.7,453L223.7,453z"/>
	<path d="M182.2,497c0.1,0.1,0.4,0.2,0.4,0.3c-0.1,0.2-0.2,0.3-0.3,0.5c-0.1-0.1-0.2-0.2-0.2-0.2C182.1,497.4,182.2,497.2,182.2,497
		z"/>
	<path d="M223.6,452.9c-0.1,0.1-0.2,0.2-0.3,0.3c0-0.1,0-0.2,0.1-0.2C223.5,453,223.6,453,223.6,452.9
		C223.7,453,223.6,452.9,223.6,452.9z"/>
	<path d="M318.5,319.5c-0.1-0.3-0.2-0.6-0.3-1c1.9-0.6,1.9-0.6,4.4-0.3c-0.5,0.4-0.8,0.8-1.2,0.8c-1,0.2-2,0.2-3,0.3L318.5,319.5z"
		/>
	<path d="M315.9,288.4c0.6,1.7,1.1,2.9,0.9,4.5c-0.4-0.3-0.7-0.4-0.8-0.6C315.4,291.2,315.2,290,315.9,288.4z"/>
	<path d="M315.5,306.6c-0.2,0.6-0.5,1.2-0.9,2.1C314.1,307.5,314.8,307,315.5,306.6z"/>
	<path d="M314.9,317.1c-0.2-0.1-0.3-0.2-0.5-0.2c0.1-0.1,0.2-0.2,0.2-0.2c0.2,0.1,0.4,0.2,0.5,0.3C315,317,314.9,317,314.9,317.1z"
		/>
	<polygon points="329.7,308.7 329.5,308.7 329.7,308.8 	"/>
	<path d="M278.1,317.5c0.4,0.5,0.9,1,1.2,1.6c0.2,0.4,0.2,0.9,0.2,1.4c0.1,4.5-0.7,8.9-2.2,13.1c-0.6,1.7-1.5,2.4-2.4,2.1
		c-1.2-0.4-1.3-1.6-1.4-2.6c-0.1-1-0.1-2.1,0.1-3.2c0.3-2.3,0.7-4.7,1.2-6.9c0.3-1.4,0.9-2.7,1.4-4c0.2-0.4,0.6-0.7,0.9-1
		C277.2,317.7,277.6,317.7,278.1,317.5z M278,320.9c-0.2,0-0.5-0.1-0.7-0.1c-0.2,0.5-0.6,1.2-0.5,1.4c0.6,1,0.5,1.9,0.1,2.9
		c-0.3,0.9-0.5,1.9,0.2,3.5C277.4,325.6,277.7,323.2,278,320.9z M276.6,330.2c-1.6,0.8-1.5,1.4-0.9,2.7
		C276,331.9,276.2,331.3,276.6,330.2z"/>
	<path d="M282.8,299.5c-0.1,0.1-0.1,0.1-0.2,0.2c-0.1-0.2-0.2-0.3-0.2-0.5c0,0,0.1-0.1,0.2-0.2C282.7,299.2,282.7,299.4,282.8,299.5
		z"/>
	<polygon points="282.5,301.4 282.7,301.3 282.6,301.5 	"/>
	<path d="M283.8,20.3c-0.7,0-1.5-0.1-2.5-0.1C282.4,19.5,283.1,20,283.8,20.3C283.8,20.4,283.8,20.3,283.8,20.3z"/>
	<path d="M257.6,24.7c-0.5-0.3-1-0.5-1.5-0.8C256.6,24.2,257.1,24.5,257.6,24.7z"/>
	<path d="M262.5,24.5c-0.1,0-0.2-0.1-0.3-0.1c0.1,0,0.2-0.1,0.3-0.1c0.1,0,0.2,0.1,0.3,0.1C262.6,24.4,262.6,24.4,262.5,24.5z"/>
	<path d="M259,25.4c-0.5-0.3-1-0.5-1.5-0.8C258.1,24.8,258.7,24.8,259,25.4z"/>
	<path d="M264.6,25.2c-0.1-0.1-0.2-0.1-0.3-0.2c0.1,0,0.2-0.1,0.3-0.1c0.1,0,0.2,0.1,0.3,0.2C264.8,25.1,264.7,25.2,264.6,25.2z"/>
	<path d="M260.4,26.2c-0.5-0.3-1-0.5-1.5-0.8C259.5,25.5,260.2,25.4,260.4,26.2z"/>
	<path d="M270.9,38.1c-1.3-0.3-2.5-0.5-3.5-1.5l-0.1,0.1C268.8,36.7,269.9,37.3,270.9,38.1L270.9,38.1z"/>
	<path d="M270.8,38.2c0.3,0,0.6,0.1,0.4,0C271.4,38.4,271.1,38.3,270.8,38.2L270.8,38.2z"/>
	<polygon points="280.2,16.9 280.1,16.8 280.2,17 	"/>
</g>
</svg>
