<?xml version="1.0" encoding="utf-8"?>
<!-- Generator: Adobe Illustrator 20.0.0, SVG Export Plug-In . SVG Version: 6.00 Build 0)  -->
<svg version="1.2" baseProfile="tiny" id="Layer_2" xmlns="http://www.w3.org/2000/svg" xmlns:xlink="http://www.w3.org/1999/xlink"
	 x="0px" y="0px" viewBox="0 0 900 600" xml:space="preserve">
<g>
	<path d="M312.3,301.7c1.9,0.9,3.1,2.5,3.9,4.4c1.8,4.3,3.1,8.7,3.3,13.3c0.2,5.9-0.1,11.8-1.7,17.5c-2,7-5.2,13.4-10.9,18.3
		c-5.1,4.3-10.8,5.6-17.2,3.3c-1.4-0.5-2.9-1.2-4.4-1.3c-2.2-0.2-3.8-1.3-5.1-2.8c-3.2-3.8-6-7.9-7-12.9c-0.1-0.4-0.3-0.8-0.6-1.6
		c-1.4,2.1-2.3,3.7-2.4,6c-0.1,5-0.5,9.9-1.6,14.8c-0.2,0.8-0.3,1.6-0.3,2.5c-0.2,7.1-1.2,14.1-2.2,21.1c-0.8,5.6-1.6,11.2-2.6,16.8
		c-0.5,2.8-0.7,5.6-2.5,8c-0.3,0.3-0.3,0.9-0.4,1.3c-0.3,3-1.3,6-0.9,9.1c0.1,1.1-0.3,2.4-0.8,3.4c-2.8,5.5-4.9,11.2-8.1,16.5
		c-0.5,0.9-0.6,2-0.9,3c-1.5,6.8-2.9,13.6-4.6,20.4c-0.5,2.2-1.6,4.2-2.3,6.3c-0.6,1.8-1.2,3.6-1.7,5.4c-1.4,5-2.6,10.1-4.8,14.8
		c-1.8,4-3.8,7.9-5.6,11.9c-1.6,3.5-3.1,7.1-4.8,10.6c-3.1,6.4-6.2,12.7-9.4,19.1c-1,2-1.9,4-2.4,6.2c-0.5,2-1,3.9-1.5,5.9
		c0.9,0.8,1.8,1.5,2.5,2.4c0.6,0.8,0.8,1.9,1.2,2.9c0.4,1.1,0.9,2.2,1.2,3.3c0.7,2.2,1.7,4.1,3.1,5.9c1.3,1.7,2.6,3.4,4,5
		c2.1,2.3,4.5,4.2,7.2,5.7c1.4,0.8,2.9,1.6,3.5,3.4c0.1,0.4,0.5,0.8,0.9,1c2.9,2,5.8,4.1,9.6,4.3c0.4,0,0.7,0.2,1.1,0.1
		c2.3-0.1,3.4,1.2,3.9,3.3c0.4,1.8,0.8,3.7,1.1,5.5c0.2,1.4,0.3,2.8,0.5,4.4c-0.4,0.3-0.8,0.9-1.4,1.2c-2.3,1.2-4.7,2.2-7.4,2.2
		c-1.2,0-2.3,0.2-3.5,0.5c-3.6,0.7-7.2,1.4-10.8,2.1c-4.4,0.8-8.7,0.3-13-0.7c-4.2-1-8.1-2.7-11.4-5.5c-1.7-1.4-3.3-1.7-5.2-0.9
		c-2.1,0.9-4.3,1-6.6,0.6c-2.2-0.4-4.4-0.6-6.8-0.9c-1,0.4-2,1-3.1,1.1c-1.1,0.1-2.3-0.2-3.5-0.4c-4.3-1-8.1-3.1-11.7-5.7
		c1.2-2.3,1.9-4.7,3.7-6.5c0.4-0.4,0.6-1,0.8-1.6c0.8-2.3,1.7-4.7,2.5-7c0.1-0.3,0.2-0.7,0.2-1c0.1-5.9,1.4-11.7,2.7-17.5
		c0.6-2.7,1.6-3.5,4.4-3.4c1,0,2.1,0,3.1,0c1.7-3.8,3.3-7.5,4.9-11.2c0.2-0.5,0.5-1.1,0.4-1.7c-0.2-2.8,0.7-5.4,1.4-8
		c2.7-9.7,5.4-19.3,8.2-28.9c1.3-4.5,1.8-9,1.6-13.7c-0.4-7.9-0.2-15.8,1.7-23.6c0.5-0.3,1-0.5,1.6-0.8c3.2-10.1,7.4-19.8,13.7-28.6
		c-0.1-0.7-0.1-1.4-0.2-2.1c-0.1-0.7-0.2-1.3-0.3-2.2c-1.8,0.5-2.9,1.5-3.9,2.6c-2.3,2.4-5.2,3-8.3,3.4c-1.3,0.2-2.6,0.2-3.9,0.1
		c-1.8-0.2-3.5,0.3-5.1,1c-6.1,2.4-12.4,4.7-18.8,6.1c-4.6,1-9.3,1.8-13.9,2.7c-3.6,0.7-7.2,1.4-10.8,2.1c-0.6,0.1-1.4,0.2-1.6,0.6
		c-0.8,1.4-2,1.5-3.4,1.5c-1.7,0-3.2,0.6-4.7,1.4c-1.6,0.8-3.1,1.7-4.7,2.5c-2.5,1.4-5.1,2.5-7.8,3.2c-1.9,0.5-3.5,1.3-5.1,2.3
		c-5.6,3.6-10.9,7.5-15.2,12.6c1.3,6-1.6,10.2-5.2,14c-0.7,2.6-1.2,4.9-1.9,7.1c-1.6,5.1-3.3,10.1-5,15.1c-0.3,0.8-0.4,1.6-0.5,2.4
		c-0.3,2-0.5,4-0.8,6c-0.6,4.1-2.4,7.6-4.6,11c-0.6,0.9-1.4,1.5-2,2.2c-3.8,0.7-7.3,0-10.8-0.7c-1.6-0.3-3.2-0.8-4.7-0.3
		c-1.4-0.7-2-1.9-2.7-3c-2-2.7-3.9-5.3-5.8-8c-1.6-2.3-2.3-4.9-2.8-7.6c-1-4.8-0.6-9.6,0.4-14.4c1-4.8,2.5-9.4,4.6-13.7
		c1.2-2.4,1.7-4.9,1.5-7.5c-0.1-1.4,0-2.8-0.1-4.2c0-0.5-0.2-1.3-0.6-1.6c-1.2-0.8-1.2-2-1-3.2c0.5-5.7,2-11.2,4.5-16.3
		c1-1.9,2.3-3.6,4.1-4.8c1.5-1,3.1-1.7,4.9-1.7c2.6,0,5.2-0.1,7.8-0.1c1.6,0,2.9-0.4,4.1-1.6c1.8-1.7,4.1-2.3,6.5-2.2
		c0.9,0,1.9,0.2,2.8,0.2c1.7,0,2.9,1,3.8,2.3c0.2,0.3,0.2,0.9,0.2,1.3c0,1.4,0.3,1.7,1.5,1.6c3.7-0.3,7.1-1.6,10.1-3.8
		c3.4-2.5,6.8-5.1,10.3-7.5c3.2-2.3,6.2-4.7,9.1-7.3c6.5-5.7,13.1-11.3,20.1-16.2c0.6-0.4,1.2-0.8,1.6-1.4c1.4-1.6,3.1-2.5,5.1-2.9
		c3.1-0.7,6.2-1.4,9.4-1.8c3-0.4,6.1-1,9.2-0.7c1.8,0.2,3.5-0.6,5.2-1.6c0.3-3.3,0.9-6.7-1-9.8c-2.4-4-3.6-8.4-4.9-12.9
		c-0.7-2.5-1.2-5-2.5-7.3c-0.5-0.8-0.5-1.8-0.6-2.7c-1.4-9-2.7-18-4.2-26.9c-0.8-4.7-2.2-9.2-5-13.1c-1.6-2.3-2.6-5-3.4-7.8
		c-1.4-5-2.6-10-3.7-15.1c-0.4-2.1-0.5-4.2-0.5-6.3c-0.2-12,2.5-23.2,8.5-33.6c1.9-3.3,3.8-6.5,5.7-9.8c-0.8-1.9-1.5-3.6-2.2-5.3
		c-0.4-1.2-0.9-2.4-0.9-3.7c0-1-0.5-2-1-3c-2.9-5.8-5.1-11.9-7.3-18c-0.5-1.3-1-2.6-0.7-4.1c0.2-1-0.5-2.2-0.9-3.3
		c-2.8-6.9-5.1-14-6.8-21.2c-0.4-1.7-1-3.4,0.1-5.1c0.2-0.4,0-1.1-0.1-1.7c-0.6-2.9-1.2-5.8-1.8-8.7c-0.6-2.8-0.7-5.6-0.5-8.5
		c0.1-2-0.1-4-0.4-6c-0.1-0.4-0.2-0.7-0.2-1c-0.5-8.6-1.7-17.2-0.3-25.8c0.4-2.5,1.3-5,1.9-7.5c0.4-1.6,1.6-2.9,1-4.7
		c0.8-1.6,1.4-3.3,2.5-4.7c1.3-1.6,3-3,4.6-4.4c0.5-0.4,1.2-0.7,1.9-0.9c0.7-0.3,1.4-0.4,2-0.6c2.2-0.7,4.2-1.6,5.1-4
		c0.3-0.7,0.9-1.4,1.3-1.9c0-0.4,0.1-0.7,0-0.9c-1.7-5-2.2-10.1-2-15.4c0.1-2.1,0.1-4.3,0.2-6.4c1.9-3.3,1-6.9,1.2-10.3
		c0.2-3.4,0-6.8-0.2-10.3c-0.3,4-0.6,7.9-0.9,11.9c-0.1,0.7,0.1,1.5-0.2,2.1c-1.6,3.9-1.4,8.1-1.8,12.2c-0.3,2.9-0.9,5.8-2.1,8.5
		c0.1-0.9,0.3-1.8,0.3-2.7c0-0.8-0.4-1.6-0.4-2.4c-0.2-2.3,0.1-4.7,0.4-7c0.4-4,0.5-8,0.7-12c0.1-2.2-0.1-4.4-0.8-6.6
		c-1.3-4.2-2.1-8.5-3-12.7c-0.9-4.3-1.8-8.5-2-12.9c-0.2-5.5-0.3-10.9,1.7-16.1c0.4-1.2,0.4-2.6,0.8-3.8c0.7-2.1,1.3-4.3,2.3-6.3
		c0.6-1.4,1.7-2.6,2.7-3.7c1.4-1.6,3.2-2.2,5.4-1.8c3.5,0.6,6.1,1.4,9.2,3.4c-0.7,0-1.2,0.1-1.5,0c-1.9-0.6-3.8-1.3-5.7-1.8
		c-2.7-0.8-4.9,0.1-6.5,2.3c-0.7,0.9-1.5,1.8-1.6,3.1l0.1-0.1c0,0.3,0,0.6,0,0.8l-0.1-0.1c-0.1,0.4-0.1,1-0.3,1.3
		c-2.3,3.4-3.3,7.3-3.9,11.3c-0.1,0.7-0.2,1.4-0.3,2.1c-1.2,0.1-0.9,1.1-1,1.8c-0.1,0.7,0,1.4,0,2.1c0,0.8,0,1.7,0,2.5
		c0,0.7,0,1.4,0.1,2.1c0,0.8,0.1,1.6,0.2,2.5c0.1,0.7,0.2,1.4,0.3,2.1c0.1,0.8,0.2,1.6,0.3,2.5c0.1,0.7,0.3,1.4,0.4,2.1
		c0.9,4.4,1.9,8.7,3.2,13.3c0.5-2.7-0.3-5.1-0.6-7.6c0.6,0,1.1-0.1,1.7-0.1c0-4.7,0-9.4,0-14.1c0.5,1.2,0.5,2.5,0.5,3.7
		c0,1.4,0.1,2.8,0.2,4.2c0.1,1.4,0.2,2.8,0.4,4.2c0.1,1.4,0.3,2.8,0.7,4.2c0.1-4.4,0.2-8.9,0.3-13.3c0.1,0,0.3,0,0.4,0
		c0.3,1,0.6,1.9,0.8,2.9c0.8,6.1,1.6,12.2,1.7,18.3c0.1,7.4,0.3,14.9,0.6,22.3c0.2,4.7,1.4,9.3,2.9,13.9c1.2-0.3,1.7-1,2-2.2
		c-1.5-1.8-1.7-4.1-2-6.4c-1.4-9.8-0.9-19.6-0.6-29.4c0.1-2.1,0.6-4.2,0.9-6.9c0.4,1.8,0.2,3.1,0.1,4.4c-0.8,9.9-0.8,19.8,0.6,29.7
		c0.2,1.5,0.4,3,0.7,4.5c0,0.1,0.1,0.2,0.2,0.3c0.7,0.3,1.1,0,1.2-0.7c0-0.1,0-0.2,0-0.4c-1-8.4-0.5-16.7-0.3-25.1
		c0-0.8,0.1-1.7,0.2-2.5c0.4-2.3,0.5-4.4-0.6-6.6c-0.3-0.5-0.3-1.1-0.3-1.7c-0.2-3.2-1.7-6.1-1.6-9.3c-1.9-3.5-1.1-7.4-1.2-11.1
		c-0.1-3.8,0.1-7.5,1.1-11.2c0.4-1.5,0.6-3,1-4.5c2.6-0.9,2.5-3.2,2.9-5.2c-0.7-0.7-1.3-0.5-1.8-0.2c-0.9,0.7-1.9,1.4-2.6,2.3
		c-1.6,2-2.4,4.3-2.8,6.8c-0.3,1.3-0.5,2.5-1.2,3.8c-0.1-0.6-0.3-1.2-0.3-1.8c-0.2-3.4,0.5-6.6,1.9-9.6c0.6-1.4,1.3-3.1,3.2-3.4l0,0
		c0,0.2,0,0.4,0,0.7l-0.1,0.2l0-0.3c0.6,0,1.3,0.2,1.6-0.6l-0.1,0.1c1.4,0.2,2.8,0.4,4,0.6c2.7-1.9,5.6-3.4,7.8-5.6
		c3.6-3.5,7.9-3.7,12.4-4.1c5.5-0.5,10.8,0.4,16.1,1.8c1.8,0.5,3.6,1.2,5.4,1.8c1.3,0.4,2.7,0.8,4,1.3c0.8,0.3,1.6,0.5,2.3,0.9
		c4.1,2.3,7.4,5.4,9.1,10c1.4,3.9,2.9,7.7,4.4,11.6c1,2.5,1,5.1,0.5,7.7c-0.1,0.7-0.5,1.3-0.8,1.9c-0.5,0.8-1.1,1.5-1.7,2.4
		c0.6,0.3,1.1,0.5,1.6,0.7c0.1,1.1-1.2,0.9-1.5,1.6c0,0.2-0.1,0.5-0.1,0.7c0.5,2.8,1.7,5.4,3.3,7.8c1.9,2.8,1.5,4.7-1.2,6.5
		c-0.5,0.3-1,0.6-1.4,0.8c-0.7,1.8,0.3,3.4,0.2,5.2c-0.5,0.6-1,1.4-1.7,2.3c0.7,1.7,1.8,3.7-0.6,5.1c0.3,1,0.5,1.8,0.7,2.5
		c0.7,3.2-0.6,5.6-3.8,6.5c-3.2,0.9-6.4,1.6-9.7,0.4c-1.6,0.9-1.8,2.5-2.1,4c-0.5,3-0.9,6.1-1.3,9.1c-0.3,2.2-0.6,4.4-0.9,6.7
		c-0.1,0.9,0,1.8,0.1,2.8c2.9,1.4,5.6,2.8,8.6,4.2c0.3,0.7,0.7,1.7,1.2,2.6c0.5,0.8,1.2,1.4,1.8,2.2c0.9,1.2,2,2.4,2.7,3.7
		c0.8,1.4,1.7,2.5,2.9,3.5c1.3,1,2.6,2,3.9,3c1,0.7,1.8,1.4,2.2,2.6c0.2,0.7,1,1.3,1.6,1.8c2.8,2.2,5.7,4.2,8.5,6.4
		c2.9,2.4,5.7,5,8.4,7.6c2.1,2,3.4,4.5,4.1,7.3c0.4,1.5,0.5,3,0.3,4.6c-0.4,2.6-0.5,5.2-0.9,7.7c-0.9,5.6-2.9,10.7-7.6,14.3
		c-0.4,0.3-0.7,0.6-1.2,1.1c0.4,3,0.8,6,1.2,9c0.6,5.3,1.4,10.5,1.2,15.9c0,0.8,0.1,1.7,0.4,2.4c1.3,2.5,2.6,5,4,7.5
		c0.4,0.7,1,1.3,1.9,2.3c1.5,4.8,2.1,10.3,2.8,15.8c0.8,6.3,0.9,12.7,0.9,19.1c0,2.7,0.3,5.4,0.8,8.1c1,4.9,2.3,9.6,3.4,14.5
		c0.8,3.4,1.7,6.9,2.9,10.2c0.2,0.7,0.5,1.4,0.5,2.1c0.3,3.4,1.1,6.7,2.4,9.9c0.8,0.2,1.1-0.6,1.5-1.1c2.6-3,5.9-4.2,9.8-4
		c2.1,0.1,4.3,0.1,6.3,0.6c2.9,0.7,5.3,2.6,7.3,4.8c0.6,0.6,0.8,1.6,1.2,2.5c-1.1-0.1-1.5-1-2.1-1.7c-1.3-1.2-2.4-2.5-4.4-2.6
		c0-0.1,0-0.2-0.1-0.3c0,0-0.2,0-0.2-0.1c0.1,0.1,0.3,0.2,0.4,0.3c0.3,0.5,0.5,1,0.8,1.5c3.2,3.6,5.1,7.9,6.2,12.5
		c1.3,5.5,1.2,11,0.7,16.5c-0.6,6.5-2.6,12.7-6,18.3c-2.9,4.8-6.6,8.9-12.1,10.9c-0.4,0.2-0.8,0.5-1.4,1c0.9,0,1.3,0.1,1.7,0.1
		c5.9-0.3,10.2-3.3,13.7-7.8c4-5.1,6.4-10.9,7.7-17.3c1.4-6.5,1.2-12.9,0.1-19.3c-0.7-3.6-2-7-4-10.1
		C312.9,303.2,312.6,302.5,312.3,301.7z M261.3,289.7l-0.2-0.1L261.3,289.7c0.3,0.2,0.5,0.5,0.6,0.8c1.8,2,3.7,4,4.9,6.5
		c4.5,9.3,5.6,19,3.5,29c-0.9,4.6-0.5,9.1-0.1,13.7c0,0.1,0.2,0.1,0.3,0.1c0.2-0.1,0.5-0.2,0.5-0.3c0.9-2.3,1.9-4.6,2.7-6.9
		c1.7-5.5,2.1-11.1,1.9-16.8c-0.2-8.9-3.5-16.5-9.6-22.9c-1.1-1.2-2.3-2.4-4.2-2.2C261.7,290.3,261.5,290,261.3,289.7z M239.9,21.8
		l0.2,0.1L239.9,21.8c-0.3-0.2-0.5-0.5-0.8-0.7l-0.1-0.2l0.1,0.1C239.5,21.2,239.7,21.5,239.9,21.8z M227.1,17.6c0-0.1,0-0.2,0-0.3
		c0-0.1-0.1-0.1-0.2-0.1C227.1,17.3,227.2,17.4,227.1,17.6c0.5,0.4,0.9,0.8,1.6,0.5c0.2,0.3,0.4,0.5,0.6,0.8
		c0.4,0.5,0.8,0.8,1.5,0.6c0.1,1.1,1.2,1.3,1.7,2c0.6,0.8,1.1,1.7,1.7,2.5c0.3,0.4,0.8,0.3,1.2-0.4c-1-1.1-1.9-2.5-3.2-3.4
		c-0.4-0.3-1-0.4-1.6-0.6c-0.2-0.9-0.9-0.7-1.5-0.6c0.1-0.5-0.2-0.7-0.6-0.8C228.4,17.4,227.8,17.5,227.1,17.6z M224.5,569.8
		c0.5-0.2,0.9-0.5,1.4-0.7c1,0,2,0,3.2,0c-0.3-0.5-0.4-0.8-0.7-1c-0.3-0.3-0.7-0.5-1-0.7c-0.8,0.5-1.7,0.8-1.6,1.8
		C225.3,569.1,224.7,569,224.5,569.8c-0.5,0.3-1,0.5-1.5,0.7c-1.6,0.2-2.8,1.8-4.8,1.2c-0.5-1.3-0.1-2.3,1-3
		c1.4-0.9,2.9-1.5,4.4-2.3c0.7-0.4,1.4-0.7,2.3-1.1c-1-1-1.7-1.9-2.6-2.8c-0.7,0.4-1.2,0.7-1.6,1c-2,1.5-4,3-6,4.4
		c-1,0.7-2,1.6-3.3,1.4c-0.2-0.3-0.4-0.5-0.4-0.7c-0.4-1.6,0.3-2.7,1.4-3.8c1.8-1.9,4.1-3.1,6.5-4.3c0.1-0.1,0.2-0.4,0.3-0.6
		c-0.5-0.9-0.9-1.9-2-2.2c-3.4,2.1-5.9,5.6-10,6.4c-1.2-1.6-1.3-1.9-1.3-2.6c0-1,0.2-1.9,0.9-2.6c0.8-0.9,1.6-1.7,2.6-2.4
		c1.8-1.3,3.7-2.5,5.7-3.8c-0.8-1.7-1-3.6-2.2-5.3c-1.3,0.1-2.5,0.4-3.8,0.1c-2.1-0.5-3.9,0.4-4.9,2.5c-0.5,1.1-1.1,2.1-1.8,3.1
		c-0.6,0.9-1.3,1.7-2,2.4c-0.7,0.8-1.7,0.8-2.7,0.3c-2.6,2-5.4,3.3-8.7,3.3c-0.4,0-0.9,0.3-1.3,0.4c-1.8,0.6-2.7,0.4-3.5-1.2
		c-0.7-1.6-1.2-3.3-1.5-5c-0.3-1.5-0.3-3-0.8-4.4c-1.3-0.1-1.9,0.5-2.1,1.5c-0.7,4.1-1.5,8.1-2.2,12.2c-0.3,1.7-0.4,3.6-1.1,5.2
		c-1.1,2.4-1.8,4.9-2.4,7.4c-0.4,1.6-0.9,3.1-2.2,4.4c-0.9,0.9-1.6,2-1.4,3.6c3.4,1.5,6.9,2.3,10.4,3.1c0.6,0.1,1.2,0,1.8,0
		c1.9,0.1,3.8,0.1,5.6,0.2c3.5,0.2,7.1,0.2,10.5-0.8c1-0.3,2.1-0.4,3.1-0.4c0.9,0,2,0.1,2.7,0.6c0.6,0.5,0.8,1.5,1.3,2.4
		c4.5,2.8,9.4,4.8,14.8,5.4c5.5,0.6,11,0.8,16.5-0.6c2.3-0.6,4.6-0.9,7-1.2c1.8-0.2,3.2-0.8,4.3-2.4c-0.1-3.1,0.7-6.4-1-9.4
		c-0.5-0.1-0.8-0.3-1.2-0.3c-4.3-0.2-7.9-2.1-10.9-5.2c-0.4-0.4-0.8-0.9-1.3-1.2c-0.7-0.5-1.4-0.9-2.1-1.3l0.1,0.1
		c-0.6-1-1.6-1.6-2.5-2c-2.1,1.3-4.1,2.6-6,3.8c-0.4,0.2-0.9,0.3-1.3,0.4c-0.7,0.1-1.4-0.7-1.2-1.3c0.3-0.9,0.7-1.7,1-2.5
		C223.4,570.2,223.9,570,224.5,569.8z M207.4,284.1l-0.1-0.1L207.4,284.1c0.3,0.6,0.9,0.7,1.5,0.6c-0.1,0.7,0.5,0.9,0.9,1.3
		c1.2,1.3,2.6,2.4,3.6,3.9c3.7,5.4,6.2,11.4,7.1,17.9c0.3,2.2,0.3,4.5,0.4,6.7c0.4,7.3-0.8,14.3-3.7,21c-2.5,5.6-6,10.4-11.6,13.3
		c-0.4,0.2-0.7,0.5-1.4,0.9c5-0.1,8.8-2.1,12-5.3c5.1-5.3,7.5-11.9,8.8-18.9c1-5.6,0.9-11.2,0.1-16.9c-1.2-8.8-5.3-16-11.9-21.8
		c-1.2-1.1-2.6-2-4.4-2.1C208.4,284.5,207.9,284.3,207.4,284.1z M218.1,19.6c-0.2-0.2-0.3-0.3-0.5-0.5c-0.1-0.1-0.2,0-0.3,0
		c0.1,0.1,0.1,0.3,0.2,0.4C217.7,19.6,217.9,19.5,218.1,19.6c0.2,0.4,0.4,0.7,1,0.2C218.7,19.8,218.4,19.7,218.1,19.6z M223.7,11.8
		c-0.2-0.1-0.5-0.2-0.3-0.1C223.3,11.7,223.5,11.7,223.7,11.8c0.2,0.1,0.2,0.4,0.4,0.5c1.9,1,3.7,2,5.6,2.9c0.2,0.1,0.6-0.2,1.2-0.4
		C228.6,13,226.3,12.2,223.7,11.8z M220.9,12.5c0.4,0.6,0.8,0.7,1.8,0.2C221.8,12.7,221.3,12.6,220.9,12.5c-0.2-0.1-0.3-0.4-0.5-0.4
		c-2.2-0.5-4.3-1.1-6.5-1.5c-3.1-0.5-6.2-0.4-10,0c1,0.2,1.3,0.3,1.6,0.3c2.7,0.2,5.4,0.4,8,0.7C216,11.9,218.4,12.2,220.9,12.5z
		 M229.4,21.8c-0.9-0.3-1.8-0.6-2.6-1c-2.4-1.1-4.7-2.2-7-3.3c-1-0.5-2-0.6-3-0.6c-1.4-1.7-3.4-1.4-5.2-1.6c-3.5-0.3-7-0.6-10.5-0.8
		c0-0.1,0-0.2,0-0.3c0.7-0.2,1.5-0.3,2.2-0.5c-0.1-0.4-0.2-0.6-0.2-0.8c0.3-0.2,0.6-0.5,1-0.8c-4.7-0.4-5.9,0-7.5,2.5
		c0.3,0.1,0.6,0.3,1,0.4c4.1,1,8.2,2.1,12.3,3.1c0.5,0.1,1,0.4,1.4,0.2c1.9-0.9,3.7,0.1,5.5,0c0.8,0,1.6,0.1,2.4,0.4
		c3.5,1.2,6.8,2.6,9.9,4.7c0.6,0.4,1.2,0.7,2,0.4c-0.9,0.9-1.7,2-3.3,2.2c-0.7-0.9-1.7-1.3-3-1.2c-1.3,0.1-2.7-0.6-3.8,0.4
		c-0.8,0.8-2.4,0.3-2.8,1.8c1,0.2,1.8,0.4,3.1,0.7c-0.9,0.5-1.4,1-1.9,1.1c-2.8,0.5-5.6,1-8.6,0.4c0.3-0.6,0.5-1.2,0.9-1.5
		c0.4-0.4,1.1-0.5,1.9-0.9c-0.8-0.4-1.2-0.6-1.6-0.8c-1.7-0.6-3.3-1.2-5-1.6c-1.7-0.5-3.4-0.8-5.1-1.2c-1.7-0.4-3.4-0.8-5.1-1.3
		c-1.7-0.6-3.4-0.4-4.9-0.2c-0.8-0.9-0.7-1.5-0.1-2c0.4-0.3,1.1-0.6,1.6-0.6c1.3,0.1,2.6,0.2,3.8,0.5c3.5,0.9,7,2,10.5,3
		c0.9,0.3,1.8,0.5,2.7,0.7c0.6,0.1,1.1-0.1,1.4-0.7l-0.1,0.1c2.4,0.3,4.8,0.7,7.2,1c-0.3-0.6-0.7-0.9-1.2-1.1
		c-1.1-0.4-2.3-0.5-3-1.5l-0.1,0.1c1,0.1,2,0.3,3.3,0.5c-2.6-1.9-2.6-1.8-5-1.9c-0.7,0-1.5,0-2.1-0.2c-3.5-1.4-7.2-1.3-10.8-2
		c-1.7-0.3-3.5-0.5-5.3-0.7c-0.7-0.1-1.5-0.1-2,0.3c-2.3,1.6-4.6,3.2-6.4,5.3c0.2,0.7,0.4,1.1,0.6,1.5c-0.4,0.3-0.8,0.7-1.3,1.1
		c1.9,2.1,4.3,3.3,6.5,4.5c2.3,1.2,4.9,2.1,7.3,3.2c-1.9,0.3-3.5-0.2-5.1-0.8c-1.7-0.7-3.4-1.5-5.1-2.4c-1.5-0.8-2.9-1.8-4.4-2.7
		c-0.9,1.5-1,1.8-0.1,2.5c2,1.5,4,2.8,6,4.2c0.9,0.6,1.8,0.9,2.9,1c1.6,0.1,3.2,0.6,4.6,1.6c-0.6,0-1.1,0-1.9,0
		c1,1.3,2.3,1.6,3.3,2.2c0.7,0.4,1.6,0.4,1.9,1.3l0.1-0.1c-0.6-0.1-1.2-0.1-1.7-0.4c-5.3-2.2-10.5-4.7-15.1-8.3
		c-0.4-0.3-0.7-0.9-1.6-0.6c-0.7,1.7-0.8,3.5-1,5.3c2.2,2.3,3.8,3.3,4.6,3.2c0.2-0.4,0.4-0.7,0.5-1.1c3.9,1.8,7.7,3.2,11.7,4.3
		c2.1,0.6,4.1,0.9,6.2-0.1c0.7-0.4,1.6-0.3,2.4-0.5c2-0.4,3.9-0.8,5.9-1.2c0.5-0.1,0.9-0.6,2-1.3c-1.6,0.2-2.4,0.2-3.2,0.3
		c-1.6,0.2-3.3,0.4-4.9,0.5c-0.8,0-1.7-0.2-2.3-0.6c-1-0.9-2.1-1.1-3.2-1.4c-1.4-0.3-2.7-0.6-3.8-1.6c0.9,0,2-0.1,2.8,0.1
		c3,1,5.8,0,8.6-0.4c0-0.3,0-0.5-0.1-0.5c-0.6-0.3-1.3-0.6-1.9-0.8c-1.6-0.4-3.3-0.6-4.8-1.1c-1.6-0.6-3.2-1.5-4.8-2.3
		c-2.1-1-4.3-2-6.2-2.9c-0.3-0.9-0.5-1.5-0.8-2.1c1.5,0.7,3,1.3,4.4,2.2c2.9,1.7,6,2.6,9.2,3.7c0.7,0.2,1.4,0.3,2.1,0.3
		c2.6-0.3,5.2-0.6,7.7-1.1c1.5-0.3,2.9-0.8,4.5-0.3c0.7,0.2,1.5-0.2,2.4-0.3c0.1-1,0.2-1.8,0.3-2.6c0.1-0.5,0.4-0.8,1-0.6
		c0.6,3.4-1.5,6.3-1.8,9.5c-2.4,0.8-2.5,2.9-2.7,4.9c-2.8,2.5-6.2,3.9-9,6.3c-0.7,0.6-1.7,0.8-2.6,1c-0.8,0.2-1.7,0.2-2.7,0.2
		c1.7,1.8,3.6,0.6,5.4,0.7c-0.4,1.3-1.3,1.9-2.4,2c-0.9,0.1-2,0.1-2.7-0.4c-1.2-0.7-2.2-1.8-3.2-2.8c-0.6-0.6-0.9-1.4-1.5-2
		c-1.3-1.4-2.6-1.4-4.1-0.3c-2,1.5-3.2,3.5-3.6,5.9c-0.1,0.3-0.2,1,0.7,0.9c0.2-0.4,0.3-0.8,0.5-1.2c0.5-1,0.9-1.9,1.4-2.9
		c0.9-1.5,1.9-1.7,3.2-0.7c0.9,0.7,1.8,1.5,2.7,2.3c1.3,1.2,1.5,2.6,1,4.2c-0.2,0.5-0.5,1-0.7,1.4c0.7,1.4,2.5,1.4,2.7,3.2
		c-0.5,0.9-1.2,2-2.7,2.2c-0.7-1.9-1.3-3.6-2-5.5c0.4-0.6,1-1.2,1.3-1.9c0.4-0.9,0.1-1.6-1-2c-0.8,0.8-1.6,1.7-2,2.2
		c-1.4,3.2,1.7,4.8,1.8,7.3c-1.3,0.6-1.6,0.6-2,0.4c-1.2-0.7-2-1.7-2.3-3c-0.2-0.9-0.2-1.8-0.4-2.8c-0.6-0.2-1.1-0.4-1.7-0.6
		c-0.8-0.4-1,0.2-1.3,0.8c2.2,3.4,4.4,6.9,6.6,10.4c0.7,1,1.5,1.8,2.9,1.9c0.6-0.4,1.3-0.9,2.2-1.5c0,0.9,0.2,1.7-0.1,2.2
		c-0.3,0.6-1,1.1-1.6,1.3c-0.9,0.3-1.8,0.2-3,0.4c-0.2-0.5-0.3-1-0.5-1.6c-0.4-1.1-1.1-1.9-2.2-2.2c-1.4-0.4-2.9-0.7-4.9-1.2
		c1.7,2.5,4.1,3.5,5.3,5.2c0.1,1.6-0.1,3,0.3,4.2c0.6,1.9,0.3,3.7,0,5.6c-0.9,5.2-2.6,10-6,14.1c-1.6,1.9-2.7,4.1-3.9,6.4
		c1.2,0.6,2.2,1.2,3.3,1.7c2.8,1.3,5.6,2.4,8.3,3.9c2.6,1.5,5.4,2.4,8.2,3.1c2.8,0.7,5.6,1,8.3-0.2c1.2-0.5,2.5-0.6,3.8-0.2
		c0.7,0.2,1.3,0.6,0.9,1.7c-0.6,0.1-1.3,0.2-2,0.2c-0.8,0.1-1.7-0.1-2.5,0.2c-2,0.7-4,0.5-6,0.4c-0.8,0-1.6,0-2.5,0
		c-0.1-0.2-0.2-0.3-0.4-0.5c0,0-0.2,0.1-0.3,0.1c0.2,0.1,0.5,0.2,0.7,0.3c-0.1,1.1,0.8,1.4,1.4,1.9c8.4,7.5,17.3,14.3,26.3,21
		c0.8,0.6,1.5,1.1,2.2,1.8c2.4,2.4,5.4,3.2,8.5,3.7c0.1,0,0.2-0.1,0.4-0.3c-0.4-0.5-0.9-1.1-1.3-1.6c-0.4-0.4-0.8-0.9-1.2-1.3
		c-0.5-0.5-1-1-1.5-1.5c-0.5-0.5-1-1-1.5-1.5c-0.4-0.4-0.9-0.8-1.2-1.3c-0.4-0.5-1.1-0.7-1-1.7c1.8,0.5,3.1,1.5,4.3,2.6
		c1.9,1.9,3.7,4,5.5,6c0.5,0.5,1,0.9,1.5,1.4c0.6-0.4,1-0.6,1.3-0.9c1.5-1.3,1.7-1.9,1-3.7c-0.5-1.3-3.4-5.7-4.6-6.6
		c-5.6-3.9-8.9-9.6-12.3-15c-2.2-1.2-4.2-2.4-6.3-3.6c-0.2,0.2-0.6,0.4-0.9,0.7c-0.2-0.2-0.4-0.3-0.5-0.5c-1.1-3-1.8-6.1-1.7-9.4
		c0.3-5.8,0.5-11.6,2.1-17.2c0.2-0.5,0.4-1,0.6-1.6c0.9,0.3,1.5,0.5,2.2,0.6c0.7,0.1,1.5,0,2.1,0.3c2.9,1.3,5.8,0.3,8.7-0.1
		c0.6-0.1,1.3-0.6,1.7-1.1c0.8-1.1,1.1-2.3,0.6-3.7c-0.3-0.7-0.7-1.5-1-2.3c0.8-0.9,1.6-1.8,2.4-2.8c-0.6-0.8-1.1-1.5-1.6-2.1
		c-2.1-0.3-4.3,0.7-6-1.3c0.5-0.3,0.8-0.6,1.2-0.6c1.2,0.1,2.3,0.4,3.5,0.4c1.4,0,2.8-0.2,3.5-1.9c-0.3-0.6-0.7-1.2-0.8-1.9
		c-0.2-0.8-0.1-1.6-0.2-2.4c0-0.2-0.2-0.3-0.4-0.6c-0.3,0-0.7,0.1-1,0c-0.3,0-0.6-0.2-0.9-0.3c1.8-2.3,1.9-2.3,4.3-1.1
		c0.2-0.1,0.5-0.1,0.7-0.2c1.9-0.8,2.2-1.5,1.3-3.1c-0.1-0.2-0.3-0.4-0.4-0.6c-1.9-2.9-3.1-6.1-3.8-9.5c-0.5-2.3-0.4-4.4,2.1-5.8
		c1.6-0.9,1.6-1.8,1.1-3.7c-0.7-2.2-1.3-4.5-2-6.8c-0.4-1.6-0.8-3.2-1.1-4.8c-0.4-2-1.5-3.4-3.5-4.2c-0.3,0.2-0.8,0.7-1.1,0.6
		c-1.6-0.5-2.9,0.4-4,0.8c-1.6-0.8-3-1.4-4.3-2.1C230.3,23.2,229.8,22.5,229.4,21.8l0.1-0.2L229.4,21.8z M181.9,46.6l-0.1-0.1
		L181.9,46.6c0,3,1.1,5.4,3.3,7.5c0.8,0.7,1.6,1.4,2.3,2.2c0.4,0.4,0.7,0.8,1.3,1.4c-1-0.1-1.6-0.1-2.4-0.2c1.6,2.5,4,3.4,6.3,5.4
		c-2,0.1-3.1-1.1-4.4-1.3c-1.2-1.6-1.2-1.6-2.7-2.2c0.4,1.4,1.1,2.3,2.8,2.1c0,0.7,0.3,1.3,1,1.8c1.5,1.1,3.2,1.8,5.4,2.3
		c-0.2-0.7-0.3-1.2-0.5-1.5c-1.3-2.1-2.6-4.2-3.9-6.3c-0.6-0.9-1.3-2-0.8-3c1-1.8,1-3.8,1.4-5.8c0.5-2.1,2-3.4,3.7-4.5
		c1.5-0.9,2.9-0.7,4.4,0.1c0.9,0.5,1.6,0.1,2.3-0.7c-0.4-0.2-0.8-0.5-1.2-0.6c-1.7-0.4-3.5-0.7-5.2-1.2c-2.7-0.8-5.4-1.5-8.2-1.9
		c-1.2-0.2-2.4-0.9-3.6-1.3c-0.4-0.1-0.7-0.7-1.3-0.2c0,0.3-0.1,0.7,0,0.9c0.5,1.2,1.3,2.3,2.5,2.9c1.7,1,3.5,1.9,5.3,2.8
		c0.3,0.2,0.9,0.3,0.5,1c-3.4-0.4-6.1-2.3-8.9-4.6c0,0.7-0.2,1.2,0,1.6c0.2,0.5,0.7,0.9,1.1,1.4c0.3,0.4,0.5,0.8,0.8,1.1
		c0.4,0.4,1,0.7,1.4,1c0.3,0.2,0.6,0.5,1.2,1C184,48.1,183,47.1,181.9,46.6z M252.8,286.2c0-0.1-0.1-0.2-0.2-0.3c0,0-0.1,0-0.2,0
		C252.6,286,252.7,286.1,252.8,286.2c0.3,0.3,0.4,0.8,0.7,1c4.4,3.7,7.1,8.5,8.7,13.9c3.2,11.4,3,22.6-1.7,33.6
		c-2.2,5.2-5.6,9.6-10.7,12.3c-0.3,0.1-0.5,0.4-1,0.8c0.9,0,1.5,0,2.1-0.1c3.9-0.7,7-2.8,9.5-5.7c3-3.4,5-7.5,6.3-11.8
		c2.7-9.1,2.7-18.4,0-27.5c-0.7-2.4-1.8-4.6-2.8-6.8c-1-2.1-2.4-4.1-4.3-5.6c-1.9-1.5-4-2.8-6.1-4.1
		C253.3,286.1,253,286.2,252.8,286.2z M100.2,491.2c0.9-1.5,2.2-2.9,0.9-5c-4.7,1.3-8.8-0.5-12.9-2.4c-0.9-0.5-1.8-1.1-2.6-1.9
		c-0.9-0.8-0.9-2-0.3-2.9c0.6-0.9,1.5-1.2,2.5-1c0.9,0.2,1.8,0.6,2.6,1c2.6,1.2,5.1,2.4,7.7,3.6c1.3,0.6,2.6,1.1,3.9,1.2
		c1-2.1,0.9-2.1,3.1-3.8c3-2.3,4.5-5.4,4.9-8.9c-1.3-1.4-2.5-2.7-3.8-3.9c-2.2-2-4.4-4.2-7.7-2.4c-0.1,0.1-0.2,0-0.3,0
		c-0.8,0-1.7-0.1-2.5,0.1c-0.8,0.3-1.5,0.9-2.5,1.4c-2.2-2.3-3.1-5.1-4.2-7.8c0.3-1.1,0.9-2.1,0.7-3.4c-0.6-4.2,1-7.6,4.3-10.3
		c2.4-2,5.3-3,8.1-4.2c0.2-0.1,0.4,0.1,0.8,0.3c-0.2,0.6-0.4,1.3-0.5,1.9c-2.4,0.6-4.5,1.9-6.8,2.9c-0.5,0.2-0.8,1-1.2,1.7
		c1.9,0.6,3.7-0.4,5.3,0.6c-2.3,2.9-3.7,3.2-6.6,1.7c-1.4,2.4-1.6,5.1-2.1,7.8c0,0.2,0,0.5,0.1,0.7c1,1.8,1.5,4,3.8,4.9
		c1.7-1.6,3.9-1.6,6-1.5c3.5,0.1,5.8,1.2,9.4,4.2c1-1,2.1-1.9,3-2.9c1.3-1.6,2.9-2.7,4.6-3.8c2.1-1.3,4-2.9,6.1-4.3
		c0.9-0.6,1.7-1.3,2.7-1.7c2.7-1.1,5.3-2.5,8.2-3.2c1.4-0.3,2.6-1.1,3.9-1.7c1.2-0.6,2.3-1.3,3.4-1.9c2-1.1,4-2.1,6.3-2.1
		c0.5,0,1.2-0.3,1.6-0.6c1.6-1.2,3.4-1.7,5.2-2.1c3.9-0.8,7.9-1.6,11.8-2.2c8.4-1.4,16.7-3.1,24.8-5.8c1.7-0.5,3.4-0.9,4.9-2
		c0.6-0.5,1.5-0.6,2.3-0.7c2.1-0.2,4.2-0.5,6.3-0.6c3-0.2,5.7-1,8.2-3c2.2-1.8,4.5-3.4,6.9-4.9c2.7-1.8,4.5-4.1,5.4-7.2
		c1.4-5,2.8-10,4.2-15c0.2-0.7,0.5-1.4,0.5-2.1c0.5-5.6,0.8-11.3,0.6-17c-0.2-7.2-0.2-14.4-0.3-21.6c-0.1-5.2-0.2-10.4-0.4-15.6
		c0-1.1-0.3-2-1-2.9c-1.8-2.2-3.1-4.7-4.1-7.4c-0.1-0.4-0.5-0.7-0.8-1.2c-0.8,1.8-1.4,3.4-2.2,5c-1.4,3.1-3.4,6-5.8,8.4
		c-2.9,2.9-6.4,4.6-10.6,5.3c-3.4,0.6-6.5-0.9-9.8-0.6c-0.2,0-0.4-0.2-0.7-0.2c-5.5-2.3-9.8-6-12.8-11.2c-2.7-4.7-4.3-9.7-4.8-15.1
		c-0.2-1.9-0.4-3.8-0.6-5.6c-0.1-0.5-0.2-1.1-0.4-1.8c-2,0.8-3.9,1.5-5.2,3.2c0.8,1.8,1.7,3.5,2.4,5.2c1.5,3.6,3.2,7.1,4.2,10.9
		c1.3,5,2.2,10.1,2.7,15.3c0.2,2-0.2,4.3,1.5,6c0.3,0.3,0.3,0.9,0.3,1.4c0.1,3,1.1,5.8,1.9,8.6c2,6.8,4.9,13.3,6.7,20.1
		c0.9,3.4,1,6.7,0.7,10.2c-0.1,1.4-0.6,2.6-2.5,2.1c-0.3-0.1-0.7,0.2-1,0.3c-2.5,1.7-5.3,2-8.1,1.9c-4.9-0.1-9.6,0.9-14.3,2
		c-2.5,0.6-5,1.4-6.6,3.7c-0.3,0.5-0.9,0.8-1.3,1.2c-5.7,4.5-11.5,9.1-17.2,13.6c-0.7,0.6-1.5,1.2-2.2,1.8c-1.2,1.1-2.3,2.4-3.6,3.4
		c-4.4,3.5-8.9,7-13.4,10.4c-2.9,2.2-6.2,3.8-9.7,5.1c-0.5,0.2-1.3,0.5-1.7,0.3c-1.2-0.7-2.1,1.3-3.2,0.2c-1.2,0.2-2.3,0.4-3.5,0.5
		c-0.6,0.1-1.1-0.1-1.7-0.2c0-0.5-0.1-0.8-0.1-1.2c0.6-0.2,1.2-0.2,1.7-0.5c0.6-0.2,1.5-0.1,1.7-1c-0.3-1.4-2.5-2-1.7-3.9
		c-3-0.1-5.8,0.4-8.2,2c-0.9,0.6-1.9,1.1-2.9,1.2c-2.8,0.3-5.6,0.7-8.4,0.6c-2.5-0.1-4.3,0.8-6.1,2.3c-1.1,0.9-2.1,1.8-2.6,3.2
		c-1.4,4.4-2.8,8.8-3.4,13.4c-0.1,0.8,0,1.6,0.1,2.4c0.3,2.9,0.7,5.9,1,8.8c0.2,1.6,0,3-0.7,4.5c-1.3,3.1-2.6,6.3-4,9.5
		c-0.3,0.8-0.7,1.5-0.8,2.3c-0.8,5.1-1.4,10.3-1,15.5c0.5,5.4,1.8,10.5,5.8,14.5c1.1,1.1,2,2.3,3,3.5c1.2,1.5,2.7,2.4,4.5,2.5
		c3.1,0.2,6.1,0.2,9.2,0.2c0.8,0,1.7-0.4,2.2-0.9c1.8-1.9,3.6-3.8,4.2-6.4c0.7-2.9,1.1-5.8,1.5-8.7c0.1-0.4,0.1-1-0.1-1.4
		c-1-1.7-0.5-3.5,0-5.1c0.6-2.3,1.4-4.5,2.1-6.8c0.3-1.1,0.6-2.3,0.9-3.4L100.2,491.2z M260.5,405.3l0.1,0.1L260.5,405.3
		c0.8-1.1,1-2.5,1.2-3.9c0.2-2,0.4-4,0.7-6c0.9-6.5,2-13.1,2.9-19.6c0.1-0.7,0.3-1.5,0-2.1c-0.7-1.5-0.3-3-0.2-4.5
		c0.6-4.8,1-9.6,0.8-14.5c-0.2-5-0.4-9.9-0.6-14.9c0-0.4,0.2-0.9-0.6-1.3c-0.2,0.3-0.6,0.6-0.8,0.9c-1,1.3-1.9,2.7-3,3.9
		c-3.7,4.1-8.3,6.2-13.8,5.9c-1.4-0.1-2.8-0.5-4.2-0.7c-1.6-0.2-3.3-0.2-4.9-0.6c-1.5-0.4-2.9-1.3-4.6-2.1c0,0.6,0,1,0,1.5
		c0.3,3.5,0.7,7.1,0.8,10.6c0.2,6.4,0.3,12.8,0.3,19.1c0,2.4-0.2,4.7-0.3,7.1c-0.2,2.2-0.9,4.4-0.1,6.6c0.2,0.5-0.1,1.2-0.2,1.7
		c-0.2,1-0.4,2.1-0.7,3.1c-1.9,7.1-3.7,14.2-5.6,21.2c-0.8,3-2.2,5.8-5.8,6.4c-0.5,2.1-0.2,4.1-0.2,6.1c0,1.6,0.1,3.3-1.5,4.4
		c-0.3,0.2-0.4,0.8-0.7,1.2c-3,6.2-5.9,12.4-8.3,18.8c-1.4,3.7-2.7,7.3-5,10.5c-0.6,0.9-0.9,1.9-1,3c-0.6,6.6-0.5,13.2-0.4,19.8
		c0,2.1,0.7,4.2-0.8,6.1c-0.2,0.2-0.1,0.7-0.2,1c-1.2,6.5-2.4,13-4.8,19.2c-0.3,0.9-0.5,1.8-0.8,2.7c-1.2,4-2.4,7.9-3.7,11.8
		c-0.5,1.5-0.9,2.9-0.8,4.5c0.1,1-0.2,2.1-0.6,3.1c-1.7,4.4-3.5,8.8-5.3,13.1c-0.2,0.5-0.6,1.1-1,1.4c-0.4,0.3-0.9,0.4-1.4,0.5
		c0.3,2.4,0.2,4.7,1.9,6.4c3.5-0.1,6.7-0.8,9.6-2.5c1.2-0.7,2.6-1,4.3-1.7c0.6-1.2,1.4-2.6,2.1-4.1c1-2,2.5-3.4,4.7-4
		c0.8-0.2,1.6-0.4,2.5-0.7c0.7-2.4,1.3-4.8,2-7.2c1.2-4.2,2.5-8.4,4.8-12.2c2.3-3.9,4.1-8,5.9-12.1c2.7-6.2,5.2-12.4,8.9-18.1
		c1.6-2.4,2.6-5,3.3-7.7c0.2-0.6,0.3-1.1,0.5-1.7c2.4-7.7,4.3-15.5,7.2-23c0.5-1.3,0.8-2.7,1.1-4.1c0.4-2,0.8-3.9,1.2-5.9
		c1.2-5.2,2.3-10.4,3.6-15.8c0.6-0.5,1.6-1.1,2.1-2.3c1.6-3.8,3.6-7.4,5.9-10.9c0.4-0.7,0.9-1.5,0.8-2.3c-0.1-3.9,1.1-7.7,1.6-11.6
		C259.5,408,259.4,406.4,260.5,405.3z M187.3,165.9c0.2,2.7,0.4,5.8,0.7,8.8c0.2,1.8,0.2,3.6,0.6,5.3c1.2,4.8,1.7,9.7,1.9,14.7
		c0.1,2,0.1,4,0,6c0,1.4,0.2,2.8,0.9,4.1c1.2,2.1,1.9,4.4,1.8,6.8c0,1.5,0.6,2.7,1.5,3.9c2.1,3,3.8,6.3,4.9,9.8
		c0.3,0.9,0.6,1.8,1,2.7c1.9,4.2,3.5,8.5,4.8,12.9c0.5,1.7,1.4,2.9,3,3.6c2.6,1.1,5.1,2.4,7.8,3.5c8.9,3.6,18,6.5,27.1,9.3
		c3.8,1.2,7.5,1,11.5-0.9c0-1.1,0.2-2.3,0-3.4c-0.9-3.2-0.8-6.6-1.1-9.8c-0.4-4.8-0.5-9.7,0.1-14.5c0.5-4.2,0.8-8.5,1.1-12.7
		c0.4-6.7,0.8-13.4,1.2-20.2c0-0.7,0-1.4,0-2c-7.9-2.7-30.5-2.7-41.2-0.1c0.1,0.9,0.1,1.2-0.3,1.9c-0.8-0.7-1.6-1.4-2.3-2
		c-1.6,0.2-3.2,0.6-4.7,0.6c-3.2,0.1-6.3,1-9.3,2c-1.2,0.4-2.4,0.9-3.7,1.2c-0.4,0.1-0.9,0.2-1.4,0c-0.3-0.1-0.5-0.5-0.6-0.8
		c-0.1-0.2,0.1-0.5,0.3-0.6c0.3-0.2,0.6-0.4,0.9-0.5c3.7-1.1,7.5-2.1,11.4-2.6c3-0.4,6.1-1,9.1-1.4c4.9-0.6,9.8-1.4,14.8-1.7
		c3.9-0.3,7.8-0.1,11.7,0c5,0.1,9.9,0.6,14.7,2c0.3,0.1,0.7,0,1.2,0c0.9-3.3,1.8-6.5,2.7-9.8c1.1-0.5,2.2-0.9,3.2-1.5
		c0.7-0.4,1.4-1,1.7-1.6c2-3.8,4.1-7.5,5.2-11.6c0.4-1.5,0.9-3,0.8-4.5c-0.4-4.8-1.5-9.4-4.4-13.3c-2-2.7-4.4-5.3-6.7-7.8
		c-1.5-1.6-3.3-2.9-5.1-3.9c-0.5,1.4-0.7,2.9-1.5,3.7c-1.8,1.8-4,2.7-6.7,2c-6.6-1.9-12.5-5.1-17.7-9.4c-3.6-3-7.2-6.1-11-8.9
		c-1.9-1.4-3.7-2.9-5.5-4.5c-2.8-2.4-5.5-4.8-8.3-7.2c-2.1-1.8-4.3-3.3-6.8-4.5c-3.4-1.7-6.7-3.6-10-5.3c-0.4-0.2-0.9-0.3-1.2-0.4
		c-1.5,1.4-2.8,2.7-4.3,4.1c0.6,0.4,1.1,0.7,1.5,1c1.6,1,3.3,1.8,4.9,2.8c6.7,4.2,10.6,10.2,11.6,18.1c0.4,3.3,0.3,6.6,0,9.9
		c-0.1,1-0.3,2.2,0,3.1c0.8,2.8,0.1,5.4-1,7.9c-0.9,1.9-1.9,3.8-3.1,5.5C192.6,159,190.1,162.1,187.3,165.9z M178.6,288.4
		c0.4,3.6,0.4,7.3,1.4,11.1c0.4-0.6,0.8-0.9,0.9-1.3c1.2-3.4,3-6.4,5.3-9.1c3.6-4.3,7.9-7,13.7-7.1c0.5,0,0.9,0,1.4-0.1
		c5.4-0.6,9.9,1.5,13.9,4.9c5.1,4.4,8.3,9.9,9.7,16.4c0.3,1.4,0.6,2.8,0.9,4.1c0.3,1.6,0.7,3.2,0.9,4.8c0.2,1.7,0.5,3.5,0.5,5.2
		c0,1.6-0.4,3.2-0.6,4.9c0,0.4-0.3,0.9,0.5,1.2c2.2-2,3.5-4.9,6.1-7.1c0,1,0.2,1.6,0,2c-1,1.6-2.1,3.2-3.2,4.7
		c-1.3,1.8-2.6,3.6-3.9,5.5c-0.4,0.5-0.3,1.1,0.5,1.5c1.2-0.2,2.4-0.4,3.8-0.7c3-4.9,6-9.9,9-14.8c0.9-1.5,0.8-2.9-0.5-4.2
		c-0.6-0.6-1-1.4-1.7-1.8c-1.5-0.9-2.4-2.2-3.4-3.6c-1.5-2.1-2.8-4.4-4.2-6.5c-0.5-0.8-0.9-1.7-1.6-2.3c-1.7-1.7-2.8-3.8-3.7-6
		c-0.9-2.2-1.8-4.3-3.5-6.1c-0.7-0.7-1.1-1.6-1.6-2.4c-5.2-8.4-8.8-17.5-12-26.7c-3.1-8.9-6-17.9-8.9-26.9c-0.7-2.2-1.8-4.1-3.1-5.9
		c-2.6-3.5-5-7.1-7.5-10.7c-0.4-0.6-0.7-1.2-1.1-2c1-1.1,0.6-2.4,0.3-3.7c-0.3-1.4-0.6-2.8-0.6-4.2c0-4,0-8,0.2-12
		c0.2-3.7,0-7.3-0.4-11c-0.9-7.4-1.5-14.8-1.2-22.3c0.1-2.3-0.2-4.7,1.4-6.7c0.3-0.3,0.2-0.9,0.3-1.4c0.5-1.3,0.9-2.7,1.5-4
		c0.1-0.3,0.6-0.5,1.1-1c0.5,3.3-0.8,6.1-0.9,9c0.6,0.3,1.2,0.6,0.7,1.2c-0.7,0.9-1.6,1.7-2.5,2.6c0,0.7-0.1,1.6,0,2.4
		c0.1,0.8-0.3,1.6,0.5,2.3c0.3-0.2,0.7-0.3,0.9-0.6c2.4-2.7,4.8-5.6,6.7-8.7c1.3-2.2,2.9-4.3,2.1-7.2c0.7-5,0-9.9-0.6-14.8
		c-0.8-7-4.2-12.4-9.9-16.5c-2.3-1.6-4.5-3.3-6.9-5c-1.4,1.3-3,2.3-4.2,3.7c-0.7,0.9-1.8,1.6-2.9,2c-2.8,0.9-4.9,2.6-6.8,4.8
		c-0.4,0.4-0.9,0.8-1.3,1.2c-0.3,0.3-0.7,0.7-0.9,1.1c-2,4.4-4.2,8.7-5.1,13.5c-1,5.2-1.3,10.5-1.5,15.8c-0.2,6,0.2,12,1.3,18
		c0.2,0.8,0.4,1.8,0.1,2.4c-0.9,2-0.5,4,0,5.9c1.1,4.7,2.2,9.4,3.3,14.1c0.5,2.3,1.2,4.6,1.2,7c0,1.8,0.4,3.5,0.9,5.2
		c1.5,4.7,3.2,9.4,4.4,14.2c0.9,3.7,2.3,7.2,3.5,10.8c0.2,0.7,0.5,1.3,0.8,2c1.5,4.1,3.2,8.1,4.5,12.3c1.5,4.7,3.5,9,6.1,13.1
		c0.9,1.5,1.6,3.1,3.4,3.9c0.5,0.2,0.8,0.9,1.2,1.3c1.7,2,3.4,3.9,5.1,5.9c3.8,4.4,7.6,8.7,11.4,13.1c0.3,0.4,0.5,0.9,0.8,1.5
		c-2,0.7-3.5,0.2-4.6-1.3c-0.8-1-1.6-2-2.4-3.1c-2.1-2.6-4.1-5.2-6.6-7.4c-4.2-3.5-7.3-8-10.1-12.7c-0.5-0.9-1.1-1.8-1.7-2.9
		c-0.4,0.5-0.7,0.8-0.9,1.2c-1.8,3.5-3.6,6.9-5.3,10.4c-2.3,4.6-3.9,9.4-4.8,14.4c-2.1,10.7-1.7,21.4,1,32c0.4,1.6,1,3.1,1.5,4.8
		c2.4-1.3,4.6-2.5,6.9-3.8c0.1-1,0.3-2,0.4-3c0.1-0.9,0-1.9,0.3-2.8c1-3,0.7-6,0.2-9.1C178.1,294.7,178.1,291.5,178.6,288.4z
		 M261.6,184.2c-0.8,0.9-1.1,1.1-1.2,1.3c-0.6,2.3-0.7,4.7-1.7,6.9c-0.1,0.3-0.1,0.7,0,1c0.4,1,0,1.8-0.2,2.8
		c-0.4,1.6-0.7,3.2-1,4.9c-0.9,5.7-1.2,11.5-1.3,17.3c0,1.9,0,3.8-0.3,5.7c-0.6,4.1-0.5,8.2-0.4,12.4c0,0.6,0,1.5,0.3,1.6
		c1.3,0.6,1,1.8,1,2.8c0,4.2,0,8.5,0,12.7c0,2.9-0.3,6,0.3,8.8c0.6,3,2,5.8,3.3,8.6c1.8,4.1,2.9,8.5,5.6,12.2c0.2,0.3,0.2,0.7,0.4,1
		c1.1,2.4,1.7,4.9,1.8,7.5c0,0.9,0.2,1.7,1.3,2c0.1-1.2,0.2-2.3,0.4-3.4c0.1-0.5,0.3-0.9,1.1-0.7c0.1,1.7,0.3,3.5,0.2,5.2
		c0,1.4,0.2,2.5,1,3.6c2.1,2.9,2.8,6.5,3.6,9.9c0.6,2.9,1,5.8,1,8.8c0.1,3.3,0.1,6.6-0.7,9.8c-0.4,1.6-0.6,3.2-0.9,5.3
		c1.6-1.2,2.6-2,3.8-2.8c1.2-0.8,2-2.2,3.6-2.6c0.1,0.4,0.2,0.7,0.1,0.9c-2.3,3.4-5.9,5.3-8.9,8.2c2,0.4,3.4-0.1,4.7-1.3
		c1.4-1.4,3-2.7,4.4-4.1c1.7-1.6,3.4-3.3,4.4-5.2c-0.8-5.5-1.6-10.7-2.2-16c-0.4-3.5-0.8-7.1-2.2-10.3c-1.2-2.7-1.3-5.4-1-8.3
		c0.1-0.9,0-1.9-0.3-2.8c-1-3-2.2-6-3.1-9c-2.4-7.9-4-16-4.1-24.3c0-1.1-0.1-2.1-0.2-3.2c-0.9-8.7-1.9-17.4-2.8-26
		c-0.3-2.6-0.9-5-2.4-7.2c-3.1-4.6-5.3-9.7-5.8-15.4c-0.3-3.1-0.6-6.1-0.9-9.2C262.4,190.6,262,187.8,261.6,184.2z M178.9,315.5
		c0,6.2,0.9,12.2,3,18c1.7,4.7,4.5,8.8,8.4,12c2.7,2.2,5.7,3.3,9.1,3.3c4.8-0.1,8.5-2.5,11.6-5.9c5-5.7,7.4-12.6,8.3-19.9
		c0.5-4.2,0.9-8.4,0.2-12.7c-0.5-3-0.9-6.1-1.8-9c-1.9-6.1-4.9-11.5-10.3-15.2c-4.1-2.8-8.4-3.6-13-1.5c-1.6,0.7-3.1,1.7-4.5,2.8
		c-3.8,3-6.1,7.1-7.8,11.6C180,304.2,179,309.8,178.9,315.5z M274.3,337.5c0,0.8-0.1,1.4,0,1.9c0.5,4.6,2.9,8.5,5.6,12.1
		c1.8,2.4,4.5,3.8,7.3,4.8c3.3,1.1,6.5,0.5,9.6-1c3.1-1.5,5.6-3.9,7.7-6.6c2.7-3.6,4.7-7.6,6-11.9c1.8-5.9,2.9-11.9,2.1-18.1
		c-0.1-0.9-0.2-1.9-0.3-2.8c-0.7-5.9-2.7-11.2-6.5-15.8c-0.9-1.1-1.9-2.1-3.3-2.6c-1.8-0.6-3.6-1.2-5.4-1.7c-0.6-0.2-1.4,0-2.1,0.2
		c-4,1-6.8,3.5-8.8,7.3c0.8,5.1,1.7,10.3,2.5,15.6c1.7,0.1,3.5,0.2,5.2,0.3c1.4,0.1,2.4,0.8,3.2,1.9c1,1.5,1.7,3.1,1.1,5
		c-0.4,1.4-0.7,2.7-1.2,4c-1.1,2.8-3.4,4.1-6.4,3.8c-0.8-0.1-1.6-0.3-2.5-0.3c-0.9-0.1-1.8,0-2.6,0c-0.6-0.4-1-0.8-1.5-1.2
		c-0.1,0-0.2,0-0.5,0.1c-1.3,1.1-2.9,2.2-4.2,3.5C278,337.1,276.4,338,274.3,337.5z M226.6,331.1c0.1,0.7,0.1,1.1,0.2,1.4
		c0.7,2.4,2.1,4.4,3.5,6.5c2.3,3.5,5.2,6,9.2,7.3c2.2,0.8,4.3,0.9,6.6,0.4c3.8-0.9,6.8-3.1,9.2-6.1c4.7-5.8,6.7-12.7,7.5-19.9
		c0.6-5,0.3-10.1-0.9-15.1c-1.4-5.9-3.7-11.3-7.8-16c-3.1-3.5-7-3.4-10.9-4.1c-0.2,0-0.5,0-0.7,0.1c-2.1,0.7-4,1.6-5.3,3.3
		c-2.2,2.9-4.4,5.8-5.6,9.4c0.2,0.4,0.4,1,0.7,1.2c1.7,1,2.7,2.6,3.9,4.1c1,1.2,2,2.3,3,3.5c1.1,1.4,2.4,2,4.3,2
		c2.8,0,4.9,2,5.3,4.7c0.3,2.4-0.1,4.7-1.1,6.9c-0.7,1.5-1.7,2.9-3.5,3.3c-2.3,0.4-4.7-0.3-7,0.5c-0.2,0.1-0.4-0.2-0.7-0.2
		c-0.2,0-0.4,0-0.9,0.1c-0.6,1.2-1.5,2.5-1.9,4c-0.5,1.5-1.3,2.4-2.2,2.8C229.7,331.1,228.3,331.1,226.6,331.1z M252.2,281.1
		c0.7-3.7,1.6-7.2,1.9-10.8c0.3-3.6,1.1-7.2,0.3-11c-0.7,0.1-1.3,0.1-1.8,0.2c-2.3,0.7-4.6,0.5-7,0.1c-4-0.7-7.8-1.7-11.6-3
		c-9.1-3-18.1-6.2-26.4-10.9c-0.1,0-0.2,0-0.3,0c-0.1,0.1-0.2,0.2-0.2,0.3c1,4.6,2.1,9.2,4.1,13.5c2.8,5.9,5.5,11.8,8.3,17.6
		c0.3,0.6,0.7,1.2,1.1,1.8c3.1,4.6,6.2,9.2,9.3,13.8c0.3,0.4,0.7,0.8,1.2,1.4c1.4-1.9,2.7-3.6,4-5.3c2.2-3.1,5.2-4.7,8.9-4.9
		c1.5-0.1,3-0.2,4.6-0.3c0.4-0.6,0.8-1.2,1.1-1.8c0.3,0.5,0.5,1,0.8,1.5c1.2,0.4,2.4,0.9,3.9,1.3c-0.1-1.5-0.1-2.6-0.2-3.8
		c0-0.1-0.3-0.3-0.4-0.4C253.2,280.6,252.8,280.8,252.2,281.1z M185.9,97.4c2.3-3.4,3.8-6.3,5.3-9.2c0.9-1.7,1.4-3.4,1.4-5.4
		c0-1.1,0.4-2.3,0.5-3.5c0.3-2.4-0.1-4.8-1.7-6.6c-1-1.1-2.3-1.8-3.7-2.8c-0.3,1-0.6,1.8-0.7,2.6c-0.6,4.8-1.2,9.6-1.8,14.3
		C184.6,90.1,185,93.3,185.9,97.4z M256.7,267.6c-0.3,2.2-0.4,3.5-0.7,4.7c-1.2,4.4-0.2,8.6,0.5,12.9c0.1,0.7,0.6,1.3,1.3,1.5
		c2.8,0.9,5.6,1.8,7.9,3.7c0.6-2.5,0.6-3-0.5-4.4c-1.5-1.9-2.5-4-3.4-6.2c-1.4-3.4-2.7-6.7-4.1-10.1
		C257.6,269.3,257.3,268.8,256.7,267.6z M294.8,330.7c1.7-2.9,2.5-5.7,0.6-8.8c-1.5,0.4-2.9-0.1-4.3-0.7c-0.6-0.3-1.3-0.5-2,0.2
		c0,0.5-0.1,1.1,0,1.6c0.5,2-0.2,3.7-1.4,5.2c-0.6,0.8-1.2,1.6-1.8,2.3C288.8,332.7,291.7,331.9,294.8,330.7z M237.5,321.3
		c2.7,1.6,3,1.6,8.3-0.7c1.5-3.1,1.7-6.1-0.4-8.9c-0.9,0.2-1.8,0.4-2.8,0.6c-0.3,0.9-0.5,2-0.9,2.9c-0.4,0.9-1.1,1.8-1.7,2.7
		C239,319,238.3,320.1,237.5,321.3z M177.1,97.6c-0.7,2.6-0.9,5.3,0.1,7.8c0.1,0.2,0.3,0.3,0.7,0.5c0.5-0.5,1-1.1,1.5-1.5
		C178.5,102,177.8,99.8,177.1,97.6z M213.7,34.3c2,0.5,3.3,0.2,4.7-0.1c0.6-0.1,1.1-0.3,1.6-0.7c0.3-0.2,0.7-0.7,0.7-1.1
		c0-0.6-0.6-0.6-1.1-0.5c-0.5,0.1-0.9,0.2-1.3,0.4C216.9,32.8,215.5,33.5,213.7,34.3z M184.8,65.6c-0.2,3.5-0.3,6.4,0.1,9.3
		c0.6-1.8,0.9-3.5,1.4-5.3C186.7,68.1,186.2,67.1,184.8,65.6z M198.1,50.7c-0.4-0.3-0.6-0.5-0.8-0.6c-0.2-0.1-0.5-0.1-0.6,0.1
		c-1.1,0.9-1.5,1.8-1.9,4C196,53.2,197.2,52.3,198.1,50.7z M214.9,25.5c0.1,0.3,0.1,0.4,0.2,0.5c0.5,0.5,1.2,0.7,1.8,0.3
		c0.1-0.1,0.3-0.4,0.3-0.5c-0.3-0.7-0.9-0.5-1.4-0.5C215.5,25.3,215.3,25.4,214.9,25.5z M190.8,210c0.1-1.4,0.1-1.4-0.8-2
		C189.5,208.9,190,209.5,190.8,210z M211.6,13.7c0,0,0-0.1,0-0.1c-0.5,0-0.9,0-1.4,0c0,0,0,0.1,0,0.1
		C210.7,13.7,211.2,13.7,211.6,13.7z M206.3,47c0.2-0.1,0.3-0.1,0.5-0.2c-0.2-0.1-0.4-0.2-0.6-0.2c-0.1,0-0.2,0.1-0.3,0.1
		C206,46.8,206.1,46.9,206.3,47z M213.1,33.5c-0.8-0.2-1.1-0.3-1.4-0.3c-0.1,0-0.2,0.2-0.3,0.4c0.1,0.1,0.2,0.2,0.3,0.2
		C211.9,33.7,212.3,33.6,213.1,33.5z M216,14.3C216.4,14.3,216.2,14.3,216,14.3C216.2,14.3,216.4,14.3,216,14.3z M219.2,10.6
		c0.2,0.2,0.3,0.3,0.3,0.3c0.2-0.1,0.5-0.2,0.7-0.2C219.9,10.7,219.6,10.6,219.2,10.6z"/>
	<path d="M750.5,179.8c0.1-0.7,0.3-1.4,0.3-2.1c0.1-1.2,0.5-2.5,0.1-3.5c-0.8-2.4-0.3-4.6,0.1-7c0.4-2.1,0.7-4.2,1.1-6.3
		c0.8-4.5,2.5-8.6,4.3-12.7c2.7-0.5,3.1-2.8,3.8-4.8c-0.9-0.7-1.8-0.6-2.5-0.1c-1.1,0.7-2.1,1.5-3,2.4c-1.5,1.5-2.5,3.4-3.2,5.4
		c-0.4,1.1-0.8,2.2-1.4,3.6c-0.6-0.8-0.5-1.4-0.5-2c0.5-3.6,2-6.8,4-9.7c1.4-1.9,2.8-2.6,5.1-2.7c-0.4,0.5-0.8,0.9-1.2,1.3
		c-0.2,0.1-0.4,0.2-0.7,0.3c0.2-0.1,0.4-0.3,0.6-0.4c1.7-0.2,3.2,0.3,4.4,1.1c3.1-1.4,6-2.8,8.9-4.1c0.1,0,0.2-0.1,0.3-0.1
		c3.1-2.6,6.8-2.5,10.4-2.2c5.9,0.4,11.6,2,17,4.5c1.9,0.9,3.8,2,5.6,3c1.4,0.7,2.7,1.3,4.1,2.1c1.1,0.7,2.3,1.3,3.2,2.2
		c2.9,2.8,5.2,6,5.9,10.2c0.7,4.2,1.6,8.3,2.4,12.5c0.4,2.4,0.2,4.7-0.7,7c-0.3,0.7-0.8,1.4-1.3,2.1c-0.6,0.7-1.3,1.3-2,2
		c0,1,1.2,0.6,1.5,1.4c-0.7,0.4-1.4,0.7-2.2,1.1c-0.5,3.3,0.6,6.2,2,9.1c0.6,1.2,0.7,2.2,0.2,3.4c-0.3,0.9-0.9,1.7-1.8,2.1
		c-0.9,0.4-1.7,0.7-2.8,1.1c-0.1,0.8-0.2,1.6-0.2,2.3c0,2.7,0,2.7-2,4.5c0.1,1,0.3,2,0.2,3.1c0,1.2-1.4,1.5-1.9,2.5
		c0.1,0.8,0.3,1.6,0.3,2.4c0.1,2.9-1.7,5.1-4.5,5.4c-3.7,0.5-7.3,0.4-10.7-1.3c-0.9-0.5-1.7-1.2-2.7-1.9c-2.2,1.5-3.3,3.9-5.2,5.6
		c-1.9,1.6-3.6,3.3-5.2,5.4c0.4,0.4,0.8,0.7,1.1,0.9c2.8,2.3,4.6,5.2,5.7,8.8c2,6.5,1.9,13,0.4,19.6c-0.3,1.3-0.7,2.5-1.2,3.7
		c-1.4,3.3-2.8,6.5-4.2,9.8c-0.2,0.5-0.4,1.1-0.8,1.6c-1.2,1.7-1.8,3.3-1.3,5.6c0.4,1.8-0.1,3.8-0.5,5.6c-0.9,4.6-1.7,9.3-3,13.8
		c-1.4,5.1-3.5,9.8-6.2,14c-0.1,2.6-0.2,5.1-0.3,7.6c-0.1,4.6-0.1,9.2-0.3,13.8c-0.1,2.4-0.2,4.7-0.5,7.1c-0.3,2.7-0.8,5.3-2.3,7.7
		c-0.7,1.3-1,2.9-1.3,4.4c-0.7,3.6-1.7,7.1-3.1,10.5c-1.9,4.5-2.6,9.3-3.3,14.1c-0.7,4.4-1.2,8.9-1.7,13.3c-0.6,4.9-1,9.9-1.6,14.8
		c-0.4,3.1-1,6.3-1.6,9.4c0.5,0.6,1.1,0,1.5-0.2c2.3-0.9,4.6-0.8,7-0.6c1.2,0.1,2.3,0.2,3.5,0.4c0.7,0.1,1.4,0.3,2,0.6
		c1.8,1,3.5,2.1,4.8,3.6c0.8,0.9,1.6,1.8,1.4,3.1l0.1-0.1c-0.8-0.7-1.5-1.4-2.3-2.1c-1-0.9-1.9-2.1-3.4-2.1c0-0.1-0.1-0.2-0.1-0.3
		c0,0-0.2,0-0.2,0c0.1,0.1,0.3,0.2,0.4,0.2c0.2,0.5,0.3,1.1,0.7,1.5c2.7,3.3,4.4,7,5.2,11.1c2.2,11.7,0.5,22.8-5.7,33
		c-2.5,4.1-5.9,7.4-10.5,9.2c-0.5,0.2-0.9,0.6-1.7,1.1c4.6,0.3,8.1-1.3,11.2-3.8c2.3-1.9,4.1-4.2,5.6-6.8c5.4-9.3,6.9-19.2,5.2-29.7
		c-0.5-2.9-1.5-5.7-2.8-8.3c-0.4-0.7-0.6-1.5-0.8-2.3l0,0c1.2,0,1.6,0.9,2,1.7c1.5,2.7,2.3,5.7,2.9,8.7c0.7,3.6,0.8,7.3,0.5,10.9
		c-0.3,3.4-0.8,6.8-1.8,10.1c-1.9,6.5-4.9,12.3-10.1,16.7c-4.8,4.1-10.2,5.1-16.2,2.9c-1.2-0.5-2.4-1.1-3.7-1.2
		c-2.8-0.2-4.4-2-5.9-4c-2.7-3.6-5-7.5-5.6-12.6c-0.6,0.9-1,1.3-1.2,1.7c-1.5,2.6-3.1,5-5.2,7.2c-4.2,4.3-9.1,6.7-15.2,6
		c-0.9-0.1-1.9-0.2-3.1-0.4c-0.9,1-1.8,2.2-2.9,3.3c-3.6,3.9-7.9,5.9-13.2,5.7c-0.9,0-1.9-0.2-2.8-0.4c-1.7-0.3-3.5-0.9-5.2-0.9
		c-2.1,0-3.7-0.8-5.1-2.1c-2.4-2.3-4.8-4.6-6.5-7.4c-0.3-0.6-0.8-1.1-1.4-1.9c-0.9,4-1.7,7.5-2.5,11c-1.2,5.3-2.4,10.6-3.7,15.9
		c-0.2,0.7-0.4,1.4-0.4,2.1c-0.6,7.6-2.3,14.9-4.2,22.2c-0.9,3.8-1.6,7.6-2.5,11.4c-0.8,3.7-1.7,7.4-2.5,11
		c-0.2,0.8-0.4,1.6-0.6,2.3c0.5,1.1,1.5,0.7,2.2,0.8c2.1,0.4,3.7,1.2,4.4,3.5c1,2.9,2.3,5.7,3.4,8.5c0.4,0.9,0.3,2.2,1.9,2
		c0.2,0,0.4,0.5,0.6,0.8c1.3,1.7,2.5,3.4,4,5c3.5,3.7,7.1,7.2,11.4,9.9c0.9,0.5,1.7,1.3,2.3,2.1c1.2,1.7,2.8,2.6,4.7,3
		c1.8,0.3,2.9,1.3,3.8,2.9c1.3,2.4,2.3,4.1,1.8,8.5c0.5,0.4,1.1,0.8,1.5,1.1c-0.4,1.9-1.5,2.4-2.8,2.7c-3.2,0.7-6.5,1.5-9.8,1.5
		c-2.7,0-5.4,0.3-8.1,0.5c-3.4,0.4-6.8,0.1-10.3,0.1c-1.5,0-3.1-0.1-4.6-0.1c-5.7,0.2-10.4-1.8-14.4-5.7c-1.1-1.1-2.1-2.2-3-3.2
		c-0.3-0.1-0.4-0.1-0.5-0.1c-4.8,2-9.7,1.6-14.6,0.4c-1.7-0.4-3.4-0.9-5.1-1.3c-2.8-0.7-5.2-2.1-7.1-4.8c0.2-0.7,0.3-1.7,0.6-2.5
		c1.2-2.9,2.5-5.8,3.7-8.8c0.3-0.7,0.3-1.6,0.2-2.4c-0.5-2.9,0.4-5.4,2.2-7.6c2.3-2.8,3.8-5.9,4.2-9.6c0-0.3,0.2-0.7,0.4-1.2
		c0.7-0.1,1.5-0.3,2.3-0.4c0.7-0.1,1.4,0,1.9,0c0.8-5.9,1.6-11.7,2.3-17.4c0.2-1.4,0.2-2.8,0.2-4.2c-0.1-6,0.1-12,0.7-18
		c0.2-1.7-0.1-3.2-0.7-4.8c-2.8-7-4.5-14.2-4.3-21.7c0-0.6,0-1.2,0-1.8c0-2.1,0.3-4.3,0-6.4c-0.2-2.2-2.1-3.6-3.1-5.5
		c-3-5.4-4.2-11.2-4.7-17.3c-0.4-4-0.1-8,0.2-12c0.2-2.4,0.7-4.9,1.5-7.3c1.4-4.4,3.2-8.6,6.2-12.3c1.7-2.1,3.6-4,6-5.4
		c0.5-0.3,0.9-0.7,1.4-1c-0.1-3.8-0.2-7.4-0.4-11.1c-0.1-1-0.5-2-0.9-3c-2.6-6.5-5.2-12.9-7.7-19.4c-4.3-11.1-7.9-22.5-10.4-34.2
		c-0.8-3.7-1.5-7.4-2.1-11.1c-0.6-4.2-0.5-8.5-0.1-12.7c0-0.3,0.2-0.6,0.4-1.2c1.1,2.7,0.6,5.2,1.1,7.7c2.6,1.2,5.2,2.1,8,2.8
		c4.3,1.2,8.8,1.8,13.2,2.3c5.9,0.7,11.8,0.3,17.7,0.8c1.4,0.1,2.8-0.2,4.1-0.4c0.8-1.8,1.4-3.4,2.1-5c0.1-0.2,0.2-0.5,0.2-0.7
		c-0.5-2.8,0.8-5.3,1.4-7.9c0.2-1,0.4-2.1,0.5-3.1c0.6-6.5,1-12.9,1.8-19.4c0.6-5.3,2-10.4,3.7-15.5c0.5-1.5,1.1-3.1,1.7-4.7
		c-2.1-3.3-4.3-6.5-6.4-9.8c-3.3-5.3-5.7-10.9-5.4-17.3c0-1.1,0.4-2.3-0.3-3.5c-0.3,0.1-0.7,0.2-1,0.4c-2.4,2.1-5.2,3.2-8,4.5
		c-2.8,1.2-5.7,1.6-8.7,1.4c-0.5,0-1,0-1.4-0.2c-2.1-1-4.3-1.2-6.5-1.4c-2.1-0.2-4.1-0.8-6.2-1.2c-1.5,1.2-2.5,2.7-3.3,4.3
		c-1.6,3.4-2.9,7-3.1,10.8c-0.4,5.1-0.3,10.1,0.9,15.1c0.4,1.6,0.9,3.2,1.9,4.5c3.9,5.6,8.4,10.5,14.5,13.8c3.7,2,7.5,3.4,11.5,4.6
		c2,0.6,4.1,1.2,6.1,1.7c1.6,0.4,3.2,0.5,4.9,0.7c1.2,0.2,1.3,0.1,2.8,1.6c-0.5,0.3-0.9,0.9-1.3,0.9c-1.2,0.2-2.4,0.3-3.5,0.1
		c-5.3-1.1-10.6-2-15.7-4.1c-6.7-2.8-12.2-7.1-16.3-13.1c-1.3-1.9-2.4-4-4.4-5.5c-0.5-0.4-0.8-1.2-1.1-1.8
		c-1.4-3.7-2.4-7.4-2.5-11.4c-0.1-5.3,0.1-10.6,2.2-15.7c1.1-2.7,2.4-5.1,4.5-7.1c0.3-0.3,0.6-0.7,1-1.2c-0.7-0.4-1.3-0.7-1.9-1
		c-5.1-1.9-10.4-1.9-15.7-1.2c-1.5,0.2-3.1,0.6-4.6,0.5c-1.8-0.1-3.2,0.5-4.7,1.3c-7.5,4.5-14.9,9.1-21.5,14.9
		c-3.8,3.3-7.5,6.8-11.5,10.3c-2,6.2-2.2,12.5-0.2,18.9c2.5,7.6,6.5,14.4,11.4,20.7c1.1,1.4,2.4,2.5,4.1,3.3
		c1.4,0.7,2.7,1.5,4.1,2.2c0.8-0.4,1.7-0.7,2.5-1.2c3.8-2.5,8.1-3.1,12.5-3.2c2.9-0.1,5.7,0.3,8.3,1.3c3.3,1.3,6.5,2.7,9.9,3.6
		c0.2,0,0.3,0.2,0.9,0.7c-4.4-0.8-8.5-0.6-12.1-2.7c-2.6-0.5-5.1-0.8-7.7-0.6c-4.4,0.4-8.5,1.5-12.5,3.6c-2.5,1.3-5,2.6-7.5,3.9
		c-3.3,1.6-6.7,2.9-10.3,3.7c-8.5,1.9-17.1,3.4-25.7,4.8c-5,0.8-10,1.8-15,2.6c-2.7,0.4-5.4,0.4-8.1,0.5c-0.8,0-1.7,0-2.2-0.9
		l-0.1,0.1c1.5-0.1,3.1,0,4.6-0.3c3.2-0.7,6.4-1.5,9.6-2.3c3.7-0.8,7.3-1.8,11.1-2.5c7.8-1.5,15.6-2.7,23.3-4.3
		c4.6-0.9,9.2-2.3,13.5-4.1c0.6-0.3,1.4-0.3,1.4-1.3c-0.4-0.4-0.9-0.7-1.4-1.1c-3.9-3.3-7.3-7-10-11.4c-2.9-4.7-4.6-9.8-6.2-15
		c-1.8-5.8-1.8-11.6,0-17.4c0.2-0.6,0.7-1.3-0.1-2.1c-0.5,0.2-1.2,0.3-1.8,0.6c-3.4,1.5-6.1,3.9-9.2,6c-7.5,5-15,9.9-22.6,14.6
		c-5.8,3.6-12.1,6.3-18.3,9.1c-2.9-2-6-3.6-9.3-4.6c-4.3-1.3-8.6-2.4-12.9-3.8c-2.3-0.8-4.4-0.7-6.5,0.3c-3.1,1.5-6.4,2.4-9.7,3.4
		c-2,0.6-4,1.5-6,2.2c-1.1,0.4-2.2,0.8-3.4,1.1c-3.9,1-7.8,1.8-11.6,3c-4,1.2-7.9,0.8-11.9,0.7c-0.4,0-0.7-0.5-1.5-1.2
		c1.9,0,3.2,0,4.4,0c1.3,0,2.6,0,3.9-0.3c2.8-0.8,5.6-1.7,8.4-2.6c0.4-1.1,0.6-2.2,0-3.1c-1.9-2.8-4.2-5.2-8-4.9
		c-2.7,0.2-5.4,0.6-8,1.2c-1.3,0.3-2.7,0.7-3.8,1.8c-1.5,1.4-3,2.6-4.6,3.9c-1.1,0.9-1.7,1.9-1.4,3.4l0.1-0.1
		c-1.9,2-4.1,3.5-6.6,4.7c-0.5,0.2-1.2,0.5-1.5,0.9c-1.6,2.1-3.9,3-6.2,4c-2.5,1-4.8,2.5-7.5,3.1c-1.3,0.3-2.3,1.2-3.1,2.2
		c-1.7,2.3-3.2,4.6-4.1,7.4c-1.4,4.3-3.2,8.4-4.2,12.8c-0.3,1.1-0.7,2.2-1.3,4c-0.3-1.3-0.5-1.8-0.5-2.3c0-2.6,0.6-5.1,1.4-7.6
		c0.4-1.2,0.6-2.5,0.9-3.8c0.3-1.3,0.5-2.6,1-3.7c1.1-2.2,2.4-4.3,3.8-6.4c1.1-1.6,2.6-2.7,4.3-3.6c2.8-1.3,5.5-2.7,8.3-4.1
		c2.4-1.2,4.8-2.5,7.2-3.8c0.3-0.2,0.7-0.4,0.8-0.6c1-2.7,3.9-3.7,5.5-5.9c1.5-2.1,3.6-3.7,5.5-5.5c0.3-0.2,0.5-0.5,0.8-0.7
		c3.9-1.5,7.7-3.6,12-3.8c3.4-0.2,6.3,0.8,8.4,3.6c0.2,0.3,0.5,0.5,0.7,0.8c2,2.5,2,2.6,1.9,5.8c4.8-1.2,9.7-2,14.3-3.9
		c3.5-1.5,7.2-2.4,10.8-3.5c0.3-0.1,0.7-0.2,1-0.2c4,0.1,8-0.3,11.9,0.9c2.1,0.7,4.3,1.3,6.4,2.1c3.7,1.3,7.3,2.8,10.1,5.7
		c4.9-3.9,10.2-6.7,15.5-9.5c2-1.1,3.9-2.3,5.8-3.5c7.4-4.7,15-9,22.2-13.9c2.2-1.5,4.7-2.7,7.2-3.7c2.2-0.9,4.1-2.3,5.8-3.9
		c2.5-2.3,5.1-4.6,8.1-6.3c1.5-0.8,2.7-2.3,4.1-3.4c1.5-1.3,3.1-2.6,4.7-3.7c3.6-2.4,7.4-4.7,11.1-7c3.5-2.1,7.4-3.1,11.4-3.3
		c2-0.1,4-0.1,6-0.2c4-0.2,7.7,0.8,11.4,2.2c3.9,1.5,7.8,2.8,11.6,4.2c3.6,1.3,7.2,0.7,10.8-0.3c5.7-1.7,10.4-4.9,14.4-9.3
		c3.2-3.5,6.3-7,9.5-10.5c7.1-7.7,15.2-14.2,24.7-18.6c3.3-1.5,6.7-3.1,10.5-2.8c5.5-1.3,11-0.7,16.6-0.6c1,0,2.1-0.2,3.3-0.4
		c0.5-1.1,1.2-2.1,1.5-3.2c0.8-3.2,1.5-6.4,2.2-9.7c0.1-0.5,0.2-1,0.1-1.4c-0.7-3.2-0.4-6.6-0.6-9.8c-0.3-3.3-0.4-6.6-0.5-9.9
		c-0.3-5.8,0.7-11.5,2-17.2c0.6-2.8,5.3-13.2,6.8-15.5c1.2-1.8,2.6-3.4,4.4-4.5c1.6-1,3.2-1.4,5-0.7c2.4,0.9,4.9,1.9,7,3.4
		c0.6,0.4,1,0.9,1.6,1.4c-0.5,0.6-0.9,0.3-1.3,0.1c-1.9-1-3.8-2-5.7-2.9c-2.2-1.1-4.1-0.6-5.9,0.9c-0.7,0.6-1.4,1.3-2,1.9
		c-0.6,0.6-0.3,1.2-0.2,1.9c-0.7,0.9-1.6,1.7-2.2,2.7c-1.1,1.6-2.1,3.1-3,4.8c-1,1.9-1.3,4.1-2.8,5.9c-0.7,0.8-0.7,2.2-1,3.3
		c-1.3,5.9-1.6,11.9-1.2,18c0.2,3.3,0.5,6.6,0.8,10.7c0.6-3.3,0.8-5.7,0.6-8.4c0.7,0.3,1.2,0.5,1.7,0.7c1.2-4.9,1.2-10,2.8-14.8
		c-0.3,2.8-0.7,5.6-0.9,8.4c-0.2,1.9-0.2,3.8-0.3,5.6c-0.8,0.9-0.6,1.8-0.2,2.9c0-1,0.1-2,0.1-2.9c0.2-0.4,0.6-0.7,0.7-1.1
		c0.6-3.1,1.2-6.2,1.8-9.9c0.6,1.6,0.5,2.8,0.5,4c0,7.1-0.7,14.1-1.9,21.1c-0.7,4.4-1.4,8.8-2.1,13.4c0.5,0.1,0.9,0.1,1.5,0.2
		c0-0.7,0.1-1.3,0.1-1.9c0-1.3,0.2-2.6,1.1-3.7c0.8-1,0.9-2.1,1.2-3.3c0.9-4,1.9-8,2.9-12c0.1-0.4,0.5-0.8,0.7-1.1l-0.1-0.1
		c0,0.7,0,1.4-0.2,2.1c-0.9,4.5-1.8,9-2.8,13.5c-0.2,0.9-0.5,1.8-0.9,2.6c-0.6,1.1-0.5,2.2-0.3,3.4c1.1,0.4,1.9,0.3,2.7-0.6
		c0.1-1.1,0-2.4,0.4-3.4c1.5-3.5,1.8-7.3,3-10.9c0.3-1.1,0.5-2.3,0.3-3.5c-0.2-1.5-0.2-3-0.1-4.6
		C751.1,181.7,751.4,180.6,750.5,179.8L750.5,179.8z M802.9,150c0,0.5,0.2,0.7,0.7,0.7c0.2,0.2,0.5,0.5,0.7,0.7
		c1.1,1.8,3.2,3,3.4,5.5c0,0.4,0.8,0.8,1.5,0.1c-0.6-1.1-1.1-2.3-1.8-3.2c-0.8-1-1.5-2.4-3.2-2.3c0-0.5-0.2-0.8-0.7-0.8
		C803.7,150.3,803.4,150,802.9,150c0-0.5-0.3-0.6-0.8-0.7c-0.1-0.1-0.2-0.1-0.2-0.2c0.1,0,0.2,0.1,0.3,0.1
		C802.5,149.5,802.7,149.8,802.9,150z M800.1,150c0.2,0.3,0.5,0.5,0.7,0.8l0.1,0.1l-0.2,0C800.5,150.6,800.2,150.4,800.1,150
		C800,150.1,800,150,800.1,150z M728.5,408.9l-0.2-0.2L728.5,408.9c0.3,0.2,0.5,0.5,0.7,0.7c1.2,1.6,2.6,3.1,3.5,4.8
		c2.3,4.4,3.8,9.2,4.2,14.2c0.7,10.4-1.2,20.2-6.9,29.1c-2.8,4.5-6.5,8.1-11.6,9.9c-0.3,0.1-0.5,0.3-0.9,0.6
		c3.1,0.5,5.6-0.2,8.1-1.4c3.7-1.9,6.4-4.8,8.6-8.2c4.7-7.2,6.7-15.2,7-23.8c0-1.5,0.1-3.1-0.1-4.6c-0.8-7-3.5-13.2-8.2-18.4
		c-1-1.1-2-2.4-3.8-2.1C728.9,409.4,728.7,409.1,728.5,408.9z M813.5,155l0.1,0.1L813.5,155l-0.1-0.1L813.5,155z M793.1,149.9
		c0.2,0.3,0.4,0.6,0.6,0.9c0.2,0.1,0.4,0.3,0.2,0.1c0.2,0-0.1,0-0.3,0C793.4,150.6,793.2,150.3,793.1,149.9c-0.2,0-0.4-0.2-0.6-0.3
		c-0.1-0.1-0.2,0-0.3,0c0.1,0.1,0.1,0.3,0.3,0.4C792.7,150,792.9,149.9,793.1,149.9z M795.1,143c-0.3-0.7-0.9-0.7-1.5-0.7
		c-0.4-0.3-0.7-0.6-1.1-0.8c-3.3-1.6-6.9-2.2-10.5-2.7c-0.3,0-0.6,0.1-1.2,0.2c3.6,1,6.9,1.9,10.1,2.7c0.9,0.2,1.8,0.3,2.7,0.5
		C794,143,794.6,142.9,795.1,143c0.8,0.9,1.8,1.1,3.2,1.2C797.2,143.2,796.2,142.9,795.1,143z M800,143.8c0-0.1,0-0.2,0-0.3
		c0,0-0.1-0.1-0.2-0.1C799.9,143.5,800,143.6,800,143.8c1.8,1.3,3.4,2.7,5.1,4c0.2,0.2,0.6,0.2,1.2,0.3c-0.3-0.7-0.4-1.2-0.7-1.4
		C803.9,145.5,802.4,143.9,800,143.8z M742,191.3c-1.1,1.5-1.2,3.3-1.7,5c-0.6,2-0.6,4.2-1.9,6c-0.5,0.8-0.4,2-0.4,3.1
		c0,0.5,0.2,0.9,0.8,1c0.4-1.1,0.8-2.2,1.1-3.3C740.9,199.1,742,195.3,742,191.3c0.7-0.6,0.7-1.4,0.2-2.5
		C742.1,189.8,742.1,190.6,742,191.3z M768.8,162.9c0-0.1,0-0.2,0-0.3c0-0.1-0.1-0.1-0.2-0.1C768.7,162.6,768.8,162.7,768.8,162.9
		c0.9,0.7,1.8,1.4,2.6,2.2c0.4,0.4,1,0.6,0.9,1.4l0.1-0.1c-4.9-2.5-9.1-5.9-12.9-9.7c-0.8-0.7-1.5-1.5-2.3-2.4
		c-1.5,1.6-1.8,3.6-2.4,5.5c1.2,1.6,2.3,3.1,4.2,3.8c0.1,0.1,0.1,0.1,0.2,0.2c-0.1,0-0.2-0.1-0.2-0.1c0.2-0.4,0.1-1,0.8-1
		c0.2,0.1,0.4,0.2,0.6,0.3c3.3,1.9,6.7,4,10.1,5.8c1.9,1,3.9,1.7,6.1,1c0.6-0.2,1.4-0.2,2.1-0.1c2.4,0.4,4.7-0.2,7-0.4
		c0.4,0,1-0.1,0.7-0.8c-2.9-0.2-5.8-0.5-8.4-0.7c-0.5-0.4-0.7-0.5-0.9-0.7c-0.5-0.5-0.9-1.3-1.4-1.4
		C773.2,164.9,771.4,162.9,768.8,162.9z M756,186.3c0.2-1.3-0.8-2-1.8-2.9c-0.2,1.7,0.5,2.4,1.9,2.8c1.3,2.8,3.4,4.3,6,4.5
		c-1-3.7-3.3-7-3.7-11.1c1.8-1,1.9-2.9,2.5-4.6c0.7-2.4,2.5-3.6,4.6-4.5c1.9-0.8,3.4,0,4.9,1c0.2,0.1,0.4,0,0.8,0.1
		c0.3-0.2,0.7-0.4,1.2-0.8c-1.4-0.6-2.6-1.1-3.8-1.6c-1.2-0.5-2.3-1.1-3.5-1.6c-1.6-0.7-3.2-1.6-4.9-2.1c-2.1-0.6-3.9-1.5-5.6-3
		c-0.1-0.1-0.4,0-0.8,0.1c-0.1,1.6,0.6,2.9,1.7,4c1.1,1,2.3,2,3.5,3c0.6,0.5,1.5,0.7,1.8,1.6c-2.6-0.4-3.1-0.7-7.9-5.2
		c-0.7,0.6-0.4,1.2,0,1.8c0.3,0.5,0.4,1.1,0.8,1.6c0.4,0.6,0.9,1.1,1.3,1.6c0.4,0.5,1.2,0.6,1,1.7c-1.2-0.7-2.3-1.4-3.4-2l-0.1-0.2
		l0.1,0.1c-0.5,3.1,0.4,5.8,2.2,8.2c0.5,0.7,1,1.3,1.5,1.9c0.3,0.4,0.6,0.9,1,1.6c-0.8,0-1.3-0.1-2.1-0.1c0.7,1.3,1.5,2.3,2.4,3.2
		c0.8,0.9,2,1.4,2.9,3.1C758.6,187.6,757.3,187,756,186.3z M785.9,151.5c1.3,0.6,2.7,1.2,4.1,1.7c0.7,0.3,1.5,0.3,2.3,0.4
		c0.1,0.2,0.3,0.3,0.4,0.5c0.1,0.1,0.2,0,0.3,0c-0.1-0.1-0.1-0.4-0.2-0.4c-0.2-0.1-0.4,0-0.6,0c-0.2-0.5-0.5-1-0.7-1.5
		c0.3-0.1,0.6-0.2,1.1-0.4c-0.5-0.1-0.8-0.2-1.1-0.3c-0.1-0.2-0.1-0.5-0.2-0.6c-1-0.9-1.9-1.7-3.4-1.6c-1.8,0-3.2-1.4-4.9-1.9
		c-4.1-1.4-8.3-2.6-12.5-4c-1.2-0.4-2.3-0.3-3.4,0.4c-1.7,1-3.5,2-5.2,3c-0.4,0.2-0.6,0.7-1,1.1c1.1,1.1,2,2.1,3,3.1
		c-0.8-0.5-1.6-0.9-2.4-1.4c-0.6-0.3-1.1-0.3-1.5,0.7c0.6,0.7,1.3,1.5,2,2.2c0.8,0.7,1.6,1.4,2.4,2.1c0.9,0.7,1.9,1.4,2.8,2.1
		c0.9,0.6,1.8,1.1,2.7,1.7c1.4,0.9,1.4,0.9,2.3,2.2c-1.9-0.7-3.4-1.5-4.9-2.4c-1.6-1-3.1-2.1-4.6-3.3c-1.3-1.1-2.6-2.3-3.8-3.4
		c-0.4,0.3-0.6,0.4-0.7,0.6c-0.1,0.2-0.2,0.4-0.4,0.8c1.8,3,4.6,5.2,7.3,7.3c0.2,0.1,0.5,0.1,0.7,0.2c0.9,0.3,1.8,0.5,2.6,1
		c2.1,1.3,4.6,1.9,6.9,2.8c1.4,0.6,4.2,0.4,6.7-0.2c-1.9-1.1-3.6-2-5.5-2.7c-0.7-0.2-1.3-0.5-1.9-0.9c-2.5-1.7-5-3.5-7.5-5.3
		c-0.6-0.4-1.5-0.9-1.5-1.4c-0.1-1.4-1.5-1.8-1.8-3c0.7,0.4,1.4,0.8,2,1.3c3.5,2.8,7.1,5.5,11.2,7.4c0.9,0.4,2,0.9,3,1
		c2.2,0.2,4.5,0.3,6.7,0.2c1.9-0.1,3.7-0.5,5.5,0.5c0.4,0.3,1.1,0.1,1.8,0.1c0.3-0.8,0.6-1.5,0.9-2.5c-4,0.9-7.6,0.6-11.2-0.6
		c0.4-0.5,0.7-1.1,1.2-1.4c0.5-0.3,1.1-0.5,1.8-0.7c-5-3.6-10.7-5.1-15.8-7.7c-1.4-0.7-3.1-0.8-4.6-1.2c-0.5-0.8-0.2-1.5,0.5-1.8
		c0.6-0.3,1.4-0.4,2-0.2c1.4,0.3,2.7,0.8,4,1.4c3.1,1.5,6.1,3,9.2,4.5c1.1,0.6,2.2,1.2,3.5,1.4C785.8,152.1,785.9,151.7,785.9,151.5
		L785.9,151.5z M702.1,415.4c0-0.2-0.1-0.3-0.1-0.5c0,0.1,0,0.1,0,0.2C702.1,415.1,702.1,415.2,702.1,415.4
		c4.1,3.2,7.1,7.2,8.9,12.1c2.3,5.9,3,12.1,3.1,18.4c0,1.3-0.4,2.6-0.4,3.9c0,4.8-1.4,9.3-3.2,13.7c-2.4,5.5-5.8,10.2-11.4,13
		c-0.1,0.1-0.2,0.3-0.3,0.6c2.8,0.1,5.2-0.8,7.4-2.2c2.5-1.6,4.5-3.8,6.1-6.3c3.6-5.5,5.4-11.5,6-17.9c0.2-2.1,0.5-4.3,0.2-6.3
		c-0.4-2.5-0.6-5.1-0.9-7.6c-0.5-4.5-2.1-8.7-4.5-12.6c-1.6-2.7-3.7-4.9-6.2-6.7C705.5,416.1,704.1,415,702.1,415.4z M658.2,413.9
		c0-0.3,0.2-0.6-0.3-0.4c0.1,0.1,0.3,0.2,0.4,0.4c3.8,2.8,6.4,6.6,8.3,10.8c2.2,4.7,3.7,9.7,4.1,14.9c0.7,8.9-0.2,17.5-3.9,25.6
		c-2.4,5.3-5.7,9.8-11,12.5c-0.4,0.2-0.8,0.6-1.6,1.2c3.6-0.2,6.5-1.2,9-3c2.2-1.6,4.1-3.6,5.6-5.9c3.3-5,5.1-10.6,6.1-16.5
		c0.6-3.9,0.5-7.8,0.4-11.7c-0.2-5.9-1.8-11.4-4.5-16.6c-0.5-0.9-0.8-1.9-2.1-2.2c-0.3-0.1-0.7-0.6-0.8-1c-0.2-0.9-0.6-1.8-1.3-2.5
		c-1.3-1.3-2.6-2.8-4-4C661.4,414.6,660,413.5,658.2,413.9z M720.8,462.6c-0.3,0.3-0.6,0.7-0.9,0.9c-1.2,0.6-2.4,1-3.6,1.6
		c-0.6,0.3-1.3,0.7-0.8,1.7c0.3,0,0.7,0.1,1,0c2.8-0.7,5.3-2,7.5-3.9c5.3-4.6,8.2-10.6,10.2-17.1c1.7-5.5,2-11.1,1.5-16.8
		c-0.2-2.2-0.5-4.5-1-6.6c-1.1-4.6-3.2-8.6-6.8-11.8c-3.4-3.1-7.2-4.4-11.7-3.1c-4.1,1.2-7.4,3.6-9.8,7.1c-0.1,0.1,0.2,0.4,0.2,0.6
		c0.9,0.1,1.2-0.6,1.6-1.1c1.9-2.1,4.2-3.7,6.8-5c0.6-0.3,1.3-0.6,2-0.7c3.7-0.3,7.1,0.1,9.6,3.3c0.9,1.1,1.9,2.1,2.5,3.4
		c1.1,2.3,2.3,4.7,3,7.2c2.9,10.4,2.2,20.5-2.3,30.4c-1.7,3.8-4.4,7-7.5,9.8c-0.4,0.3-1.1,0.4-1.6,0.5c0.2-0.3,0.3-0.6,0.6-0.8
		c5.1-4.7,8.3-10.5,10-17.1c1.1-4.3,1.4-8.6,1.3-13c-0.1-4.4-0.9-8.7-2.6-12.7c-1.1-2.5-2.5-4.8-4.5-6.7c-2.2-2.1-4.9-2.9-7.8-2.5
		c-4,0.6-7.1,2.7-9.7,6c1,1.5,1.9,2.8,3.2,3.8c1,0.8,1.9,1.8,2.6,2.9c1,1.6,1.8,3.3,2.6,5c0.5,0.9,0.8,2,1.5,2.8
		c1.6,2.1,2,4.4,1.8,7c-0.2,2.1,0,4.2,0,6.3c0,0.9,0.2,1.9,0.2,2.8c-0.4,5.6-1,11.3-3.2,16.5c-0.1,0.2,0.1,0.4,0.2,0.7
		C718.1,463.3,719.4,463,720.8,462.6z M673.9,464.2c-0.4,0.6-0.8,1.1-1.1,1.7c-0.9,1.6-1.7,3.4-2.8,4.9c-3.1,4.6-7,8-12.5,9.1
		c-0.3,0.1-0.6,0.3-1,0.5c-0.1,0.4-0.3,0.9-0.4,1.3c-0.2,0.4-0.4,0.8-0.9,1.9c-0.1-1.5-0.2-2.4-0.3-3.3c-2.9,0.3-5.4-1.2-8.2-0.7
		c-0.2,0-0.5-0.1-0.7-0.2c-1.7-0.9-3.4-1.7-5-2.6c-0.8-0.4-1.5-1-2.3-1.4c-0.3,0.3-0.5,0.4-0.7,0.6c-1.2,1.6-0.4,3.4-0.3,5.1
		c0.4,6.9,2.8,13.4,4,20.1c1.1,1.7,1,3.6,0.9,5.5c0,1.7-0.1,3.3-0.2,5c-0.4,4.2-0.5,8.5-0.2,12.7c0.1,1.5,0,3.1,0,4.6
		c0,1.4-0.3,2.8-0.2,4.2c0,3.3-0.6,6.6-1.3,9.8c-0.5,2.2-1.3,4.3-3,5.9c0,1.7,0,3.3,0,5c0,0.7,0.3,1.3,0.4,1.9
		c1.7,0.5,2.9,0,4.1-0.8c1.4-0.9,2.7-1.9,4.2-2.6c1.5-0.7,2.5-1.6,3.3-3.1c0.3-0.5,0.6-1,1-1.5c2.2-3,2.2-3,5.9-4
		c0.2-0.1,0.4-0.3,0.6-0.5c0.6-1.7,1.1-3.5,1.7-5.3c0.6-1.7,0.9-3.4,1.1-5.2c0.3-3.9,0.6-7.8,1.3-11.6c1.5-8,2.9-16,5.9-23.7
		c0.3-0.9,0.6-1.8,0.7-2.7c0.5-2.7,0.8-5.4,1.3-8c1.3-6.2,2.7-12.5,3.9-18.7C673.6,466.9,673.6,465.5,673.9,464.2l0.1-0.2
		L673.9,464.2z M788.1,147.2c1.2,0.4,2.4,1.1,3.6,1.2c0.9,0.1,1.5,0.3,2.2,0.7c0.8,0.5,1.6,1,2.4,1.5c2.8,1.7,5.4,3.7,7.8,6.3
		c-1,0.4-1.8,0.8-2.7,1.2c-0.9-1.2-2-1.6-3.3-1.9c-1.6-0.3-3.2-0.7-4.8,0.1c-0.5,0.2-1.2,0.1-1.7,0.1c-0.7-1.1-1.7-1.2-3.4-1.3
		c0.6,0.6,0.8,1.1,1.1,1.2c0.8,0.1,1.6,0,2.3,0.1c0,0.4,0.1,0.8,0.1,1.4c1.6,0.2,3,0.3,4.6,0.4c-0.5,1.7-0.9,3.3-1.5,4.7
		c-0.6,1.5-1.5,2.9-2.5,4.6c-0.5,0.3-1.7,0.1-2.1,1.5c-0.3,0.9-1.3,1.5-0.9,2.8c-2.7,1.1-5.6,2-8.1,3.5c-2.1,1.2-4.3,1.8-6.7,1.8
		c-0.2-0.1-0.4-0.3-0.2-0.1c-0.2,0,0,0,0.3,0c0.8,1.3,2.1,1.2,3.4,1.1c0.4,0,0.9-0.3,1.1,0.5c-0.8,0.9-1.8,1.4-3.1,1.3
		c-1.1,0-2.1-0.5-2.8-1.3c-0.8-1-1.5-2.1-2.2-3.2c-0.4-0.7-0.7-1.5-1.2-2.1c-0.9-1.2-2.1-1.5-3.5-0.8c-2.2,1.1-3.9,2.7-4.7,5.1
		c-0.1,0.3,0.1,0.8,0.2,1.4c1.2-1.6,2.1-2.9,3.2-4.2c0.7-0.8,1.8-0.9,2.5-0.1c1,1.1,2.1,2.3,2.9,3.6c0.8,1.3,0.8,2.7-0.1,4
		c-0.3,0.5-0.6,0.9-0.9,1.3c0.7,1.3,2.4,1.7,2.1,3.3c-1.2,1.3-1.2,1.3-3,1.9c-0.3-1.9-0.6-3.8-1-6.2c0.6-0.4,1.4-0.8,2.2-1.3
		c-0.3-1-0.6-1.6-0.9-2.4c-1.2,1-2.2,1.7-3.1,2.4c-0.4,1.5-0.4,2.7,0.2,4c0.3,0.8,0.6,1.5,0.7,2.3c0.1,0.4-0.3,0.9-0.6,1.1
		c-0.2,0.2-0.7,0.1-1,0c-1.2-0.6-1.9-1.7-2.1-3.1c-0.1-1,0-2.1,0-3.2c-0.7-0.5-1.4-0.9-2-1.3c-1.1,0.4-0.9,1.1-0.6,1.8
		c1.4,3.4,2.8,6.7,4.2,10.1c0.5,1.2,1.2,2.3,2.7,2.8c0.7-0.4,1.4-0.7,2.3-1.2c0.1,0.5,0.4,1,0.2,1.4c-0.4,1.1-1.2,1.8-2.4,1.8
		c-0.9,0-1.8-0.2-2.7-0.2c-1-3.9-2.7-5.3-6.5-5.5c1,1.9,2.5,3.3,4.5,4.5c-0.4,1.2-0.8,2.3-1.2,3.4l0.1-0.1c-0.3,0.2-0.6,0.3-0.8,0.6
		c-3.1,3.7-7.5,5.2-11.6,7.1c-0.6,0.3-1.4,0.3-2.1,0.4c-1.5,0.3-3,0.5-4.7,0.8c0.2,0.7,0.3,1.2,0.4,1.8c0.4,1.4,0.8,2.7,1.1,4.1
		c1.7,7.4,1.3,14.8,0.3,22.2c-0.7,5.2-2.2,10.1-3.6,15.1c-1.3,5.1-2,10.2-1.8,15.4c0.1,2.4,0.6,4.7,1.6,6.9c0.2,0.5,0.6,0.9,0.9,1.4
		c1.3-1.3,1.9-2.7,2.3-4.2c0.8-2.5,1.5-5,2.3-7.4c0.1-0.4,0.3-0.9,0.9-0.8c1,1,0.3,2.5,0.9,3.6c0.7,0,1.4,0,2.8,0
		c-2.9,1.7-4.2,3.8-5,6.4c-0.2,0.8-0.8,1.5-1.1,2.2c-0.2,0.4-0.3,0.8-0.4,1.3c0.5,0.2,0.9,0.3,1.2,0.3c0.5,0,1,0,1.4-0.1
		c3.2-1.5,6.4-3,8.5-6.1c1.9-3,3.8-6,5.8-8.9c5.6-8,9-17.1,12.4-26.1c0.1-0.3,0-0.7,0-1.2c-0.9,0.4-1.5,0.7-2.7,1.2
		c0.8-1.6,1.8-2.4,2.8-3.2c2.3-1.8,4.4-3.9,6.2-6.2c1.1-1.5,2.5-2.8,3.8-4.2c1.1-1.2,2.4-2.3,3.5-3.5c1.2-1.5,2.6-2.7,4.3-3
		c1.4,0.5,2.8,0.8,3.8,1.5c2.8,1.8,5.9,1.3,8.9,1.4c1,0,1.8-0.6,2.3-1.4c0.6-1.1,0.8-2.2,0.5-3.4c-0.2-0.7-0.3-1.3-0.4-2
		c1-0.8,1.9-1.6,2.9-2.4c-0.5-0.9-1-1.7-1.4-2.3c-1.1-0.2-2.1-0.2-3-0.5c-0.8-0.2-1.5-0.6-2.2-1.1c-0.5-0.3-0.3-0.8,0.3-1.3
		c1.1,0.3,2.3,0.8,3.5,1.1c1.7,0.4,3.3,0.4,4.4-1.4c-1.2-1.4-0.7-3.1-0.5-4.4c-0.5-1-1.9,0-2-1.4c1.8-1.3,1.9-1.4,3.7-0.5
		c1.1,0.6,2.1,0.4,2.9-0.3c0.7-0.6,0.4-1.5,0.1-2.3c-0.2-0.5-0.5-1.1-0.7-1.6c-1.1-2.9-1.7-5.9-1.7-9c-0.1-2.4,0.5-4.4,3.2-5.3
		c1.6-0.6,2-1.4,1.6-3.1c-0.7-2.7-0.6-5.4-0.8-8.1c-0.1-1.3-0.3-2.6-0.3-3.9c0-2.2-0.8-3.9-2.7-5.1c-0.5,0.2-1,0.4-1.5,0.7
		c-0.5-0.4-0.9-0.8-1.1-0.9c-1.2,0.3-2,0.6-2.9,0.9c-1.1-1-2.3-1.8-3.2-2.9c-3-3.6-7-5.9-10.8-8.5c-0.7-0.4-1.8-0.3-2.2-0.9
		c-1.4-1.7-3.5-1.9-5.3-2.5c-2.4-0.7-4.8-1.2-7.2-1.8c-0.8-0.2-1.6-0.6-2.5-1c1.3-0.5,2.2-0.9,3.4-1.3c-3.1-1.9-5.7-1.3-8.3,0.5
		c0.2,0.2,0.4,0.5,0.6,0.6c4.4,2,8.8,3.9,13.3,5.9c0.3,0.1,0.7,0.4,1,0.3C787.4,147.8,787.8,147.4,788.1,147.2L788.1,147.2z
		 M692.4,323c0.1,1.9,0.2,3.8,0.4,5.6c0.4,4,1.1,8,0.7,12c-0.4,4.2-0.9,8.4-1.4,12.7c-0.3,2.3-0.6,4.7-1,7c-0.8,5-1.8,10-2.6,15
		c-0.4,2.2-0.7,4.4-1,6.6c-0.3,2.1-0.7,4.2-0.7,6.3c-0.1,8.7,0,17.5,0,26.2c0,0.1,0.1,0.2,0.1,0.4c1.9-0.6,3.7-1.5,5.6-1.9
		c2.1-0.4,4.3,0,6.3-0.4c2.2-0.4,3.8,1.1,5.6,1.2c1.3-1.2,2.4-2.2,3.5-3.3c5.5-5.3,12-6,19.1-4c2.8,0.8,5,2.6,7.1,4.5
		c0.6,0.5,0.9,1.5,2.1,1.2c0.3-0.6,0.6-1.2,0.9-1.8c1.4-3.9,2-8,2.1-12.1c0.1-5.5-0.1-11.1,0-16.7c0.1-7.7,0.4-15.3,0.5-23
		c0.1-7.2,0-14.4,0.6-21.6c0.5-6.5,1.3-12.9,5-18.6c0.3-0.5,0.5-1.1,0.8-1.6c0.9-1.8,2.2-3.5,2.7-5.3c0.6-2,0.5-4.2,0.6-6.3
		c0.1-1.5,0.3-3,0.1-4.6c-0.4,0-0.8,0-1.1,0.1c-3,1.2-6.2,1.2-9.4,1.2c-2.7,0-5.1-0.7-7.4-2c-0.9-0.5-1.9-1-2.7-1.7
		c-1.6-1.3-3.4-1.5-5.3-1c-3.3,0.9-6.5,0.8-9.5-0.4c-2.8,0.5-5.3,1-7.7,1.5c-1.3,2.1-2.4,4-3.6,5.9c-3.3,5.4-6.5,11-9.1,16.8
		c-0.3,0.7-0.9,1.4-1.3,2c0.2-1,0.2-2.1,0.6-3.1c2.4-6.2,4.9-12.2,8.5-17.9c3.7-5.9,7.1-12,8.1-19.1c0-0.2,0.1-0.5,0.2-0.7
		c1.2-1.6,1.3-3.5,1.7-5.3c0.4-2.4,1.4-4.8,0.9-7.3c-0.1-0.4,0.2-0.9,0.5-1.3c1.5-2.3,3.1-4.5,5.4-6.1c1.5-1,2.7-2.2,3.7-3.7
		c1-1.3,1.8-2.8,2.7-4.1c0.4-0.6,1-1.4,1.5-1.4c0.9,0.1,1.3-0.4,1.7-0.9c3.1-4.8,5.2-10,6-15.7c0.7-5.4,0.7-10.8,0.4-16.3
		c-0.2-3.9-1-7.7-2.7-11.2c-0.5-0.1-0.8-0.2-1.1-0.2c-3.9,0-7.8-0.2-11.7,0.1c-3.5,0.3-7,1-10.2,2.5c-4.9,2.4-9.8,4.7-14.6,7.1
		c-1.1,0.6-2.2,1.3-3.2,2.2c-2.4,2.1-4.7,4.3-7,6.5c-0.6,0.6-1.2,1.2-1.4,2c-2.8,7.4-2.8,14.5,2,21.2c0.4,0.6,0.9,1.2,1.6,2.1
		c-0.7-0.1-1.1-0.1-1.3-0.2c-0.9-0.9-2-1.7-2.7-2.7c-1.9-2.7-2.9-5.7-2.9-9c0-2.6,0.1-5.2,0.2-7.8c0.4,0,0.6,0,0.2-0.5
		c-0.1,0.2-0.1,0.3-0.2,0.5c-0.5,0.3-1.1,0.4-1.4,0.8c-3,3.5-6.1,6.9-9.6,9.6c-0.5,3.5-0.5,8.3,0.1,11.1c0.3,1.3,0.6,2.5,1.1,3.7
		c1.5,3.2,3,6.4,5.2,9.2c1.2,1.6,2.3,3.2,3.5,4.8c0.1,0.2,0.4,0.2,0.7,0.3c0.2-0.2,0.5-0.5,0.7-0.8c2.4-5.4,4.9-10.7,7.3-16.1
		c1-2.2,1.5-4.4,1.5-6.8c0-3.2,0.4-6.4,1.4-9.4c0.1-0.3,0-1,0.8-0.8c0,1.5,0.1,3,0,4.6c-0.2,2.5-0.1,5-0.8,7.4
		c-0.5,1.8-0.8,3.7-1.6,5.4c-0.8,1.7-1.4,3.5-2.2,5.2c-2.1,5-4.2,10-6.3,15c-1.8,4.5-3.3,9.1-3.9,13.9c-0.6,4.6-1,9.1-1.5,13.7
		c-0.6,5.8-1.2,11.5-3,17c-0.4,1.1-0.6,2.3-0.8,3.4c-0.2,1-0.1,2.1-0.4,3.2c-0.2,1.1-0.7,2.2-1.1,3.3c-0.2,0.6-0.3,1.1-0.4,1.7
		c-0.6,5.4-1.1,10.8-1.7,16.2c-0.1,1.4-0.1,2.9-0.5,4.2c-0.9,3.1-0.7,6.3-0.7,9.5c0.1,4,0.4,8,0.4,12c0.1,6.1,0.7,12.2,1.7,18.3
		c0.8,4.7,1.1,9.4,2,14c0.9,4.8,1.5,9.6,1.4,14.4c0,0.9,0.3,1.6,0.6,2.3c1.3,3,2.7,6,3.4,9.3c0.5,2.2,1.1,4.3,1.5,6.5
		c0.3,1.5,0,3.1,0.3,4.6c0.3,1.5,0.4,2.9,0.1,4.4c-0.1,0.2,0.3,0.6,0.6,1.1c1.3-0.7,2.5-1.4,3.7-2c1.4-0.7,2.8-1.3,4.2-1.9
		c0.3-0.1,0.8,0.2,1.5,0.4c-2.6,3.5-6.9,4.5-9.5,7.9c0.5,0.4,1,0.9,1.4,0.9c2.2-0.2,4.5-0.6,6.1-2.5c1.5-1.7,3-3.4,4.3-5.2
		c0.5-0.7,0.7-1.7,0.8-2.7c0.1-1,0.1-2.1,0-3.2c-0.3-2.7-0.8-5.3-1.7-7.9c-1-3-1.7-6.1-2.4-9.2c-0.7-3.1-1.8-6.1-1-9.4
		c0.1-0.4-0.2-0.9-0.2-1.4c-0.1-1.3-0.3-2.6-0.3-3.9c0-9,0.2-17.9,1.5-26.8c0.2-1.2,0.4-2.3-0.2-3.5c-0.1-0.3-0.1-0.7-0.1-1
		c0.5-3.6,0.8-7.3,1.4-10.9c0.8-5.2,1.8-10.5,2.8-15.7c0.5-2.4,1-4.9,1.8-7.2c0.7-2,1-3.9,0.7-5.9c-0.4-3.5-0.8-7-1.2-10.6
		C690.9,326.1,690.8,324.4,692.4,323z M751.9,298.9c-0.2,1.8-0.4,3.4-0.4,5.1c-0.1,2.4-0.2,4.7-0.3,7.1c-0.1,1.2-0.2,2.4-1.4,3.1
		c-1.8,3-3.9,6-4.7,9.4c-0.7,3-1.3,6-1.7,9c-0.4,3.6-0.5,7.3-0.8,10.9c-0.1,0.8,0,1.8-0.5,2.4c-0.6,0.9-0.6,1.7-0.6,2.7
		c-0.1,12-0.3,24.1-0.4,36.1c0,1.4,0,2.8,0.1,4.2c0.1,3.4,0.2,6.8,0.2,10.3c0,1-0.1,2.1-0.4,3.1c-0.3,1.2-0.3,2.3-0.4,3.5
		c-0.3,3.1-0.5,6.4-3.6,8.7c2.2,2.9,3.7,6.1,4.2,9.6c0.6,3.8,1.2,7.7,1.2,11.6c0,3.7-0.4,7.5-1.6,11.1c-0.1,0.2,0.1,0.4,0.2,0.8
		c0.4-0.3,0.8-0.4,1.1-0.7c1.6-1.6,3.2-3.1,4.8-4.7c0.3-0.3,0.6-0.8,1.3-0.1c-0.7,2.2-2.5,3.7-4.2,6c1.2-0.2,2-0.1,2.5-0.4
		c2.5-1.6,4.6-3.6,6.4-6.1c1.2-1.7,1.7-3.3,0.9-5.3c-1-2.3-1-4.8-0.8-7.3c0.3-4.1,0.5-8.2,0.2-12.4c-0.1-1-0.4-2.1-0.3-3.1
		c0.1-1.2,0.5-2.3,0.8-3.4c1.8-6,2.6-12.2,2.6-18.5c0-1.3,0-2.6,0.2-3.9c0.4-3.8,0.8-7.5,1.4-11.2c0.8-5.3,1.6-10.5,3.5-15.5
		c1-2.7,1.7-5.4,2.3-8.2c0.5-2.3,1.2-4.6,1.7-6.9c1.2-5,3-9.9,3.3-15.2c0.2-3.5,0.7-7.1-0.1-10.6c-0.1-0.7-0.1-1.4,0.1-2.1
		c0.4-1.7,1-3.3-0.1-4.9c-0.2-0.3-0.1-0.9,0.1-1.4c0.4-1,0.9-1.9,1.4-2.9c3.1-5.6,4.8-11.8,6.6-17.9c0.1-0.5,0.2-0.9,0.3-1.4
		c0.6-3.5,1.2-7,1.8-10.5c0.2-1.3,0.6-2.5-0.1-3.8c-0.5-1-0.1-1.8,0.3-2.7c1.2-2.4,2.2-5,3.6-7.3c2.3-3.9,3.4-8.1,4-12.4
		c0.7-4.5,0.4-8.9-1.1-13.3c-1.3-3.6-3.2-6.8-5.4-9.9c-0.1-0.1-0.4-0.1-0.7-0.2c-0.1,0.3-0.3,0.7-0.2,0.9c0.7,3.4,0.6,6.8,0.6,10.2
		c0,3.9-0.7,7.7-1.9,11.5c-0.9,2.7-2.1,5.2-4.1,7.3c-1.9,2.1-3.4,4.5-3,7.6c0,0.3,0,0.7-0.1,1.1c0,0.2-0.2,0.3-0.3,0.5
		c-0.5-0.2-0.9-0.5-1.4-0.7c-2,3.2-3.8,6.3-5.6,9.3c-0.2,0.3-0.3,0.6-0.4,1c-1.4,3.9-2.9,7.7-4.3,11.6
		C757,293.3,755,296.3,751.9,298.9z M623.1,328.8c0,0.9-0.1,1.6,0,2.3c0.6,4.3,1.5,8.6,2.6,12.8c2.9,10.6,6.1,21.1,10.1,31.3
		c2.3,5.8,4.5,11.7,6.9,17.5c1.8,4.4,2.9,9,4.1,13.5c0.2,0.9,0.6,1.8-0.1,2.8c-0.5-0.7-1-1.3-1.7-2.2c-0.2,1.7-0.3,3.1,0.4,4.7
		c2.5-0.8,5.1-0.3,7.6-1.2c-0.3-1.4-0.5-2.7-0.7-3.9c-0.1-0.5,0.1-0.9,0.8-0.8c1.1,1.6,1.1,3.9,2.7,5.2c1.7,0.6,3.4,1.1,5.1,1.6
		c0.9,0.3,1.7,0.7,2.4,1.5c1.3,1.4,2.7,2.7,4,4c0.4,0.4,0.9,0.7,1.7,1.3c0-1.8,0.4-3.3,0-4.6c-0.8-2.6-1.2-5.3-1.5-8
		c-1.1-10.2-2.5-20.4-3.2-30.6c-0.6-8.5-0.5-17-0.3-25.5c0-0.7,0.1-1.5,0.5-2c0.6-0.9,0.6-1.7,0.5-2.7c0-1.2,0.1-2.4,0.1-3.5
		c0.1-1.2,0.2-2.4,0.3-3.5c0.1-1.1,0.2-2.3,0.3-3.6c-1.4,0-2.6-0.1-3.7-0.1c-5.5-0.1-11.1,0-16.6-0.7c-7.2-0.9-14.2-2.2-20.8-5.3
		C624.2,329,623.7,329,623.1,328.8z M709.9,289.8c3.3,4.2,7.4,5.5,12.1,5.5c1.1,0,2.1-0.1,3.2-0.1c1.4,0,2.8,0.1,4.2,0.1
		c0.1,0.6,0.2,0.9,0.2,1.2c6.9,2.5,9.6,2.8,14.8,1.8c2.5-0.5,4.8-1.2,6.3-3.4c0.3-0.4,0.7-0.6,1.1-0.9c1.4-1,2.2-2.4,2.9-3.9
		c2-4.4,4-8.8,6.2-13.1c2.2-4.3,4-8.7,6.8-12.7c2.4-3.4,4.3-7,6.7-10.4c1.1-1.5,1.7-3.1,2.1-4.8c1.2-5.2,1-10.6,1-15.9
		c0-0.5-0.3-1-0.4-1.6c-1.6,0.5-1.8,1.6-2,2.8c-2.3,10.6-6.4,20.5-12.9,29.3c-1.8,2.5-3.7,4.9-5.6,7.3c-1,1.3-2.1,2.5-3.4,3.6
		c-5.2,4.7-6.1,4.4-11.5,3.5c-0.1,0-0.2-0.1-0.4-0.1c-2.2-2.3-3.3-5.2-3.7-8.2c-0.5-3.9-0.4-7.8,0.4-11.6c0.9-4.4,2-8.7,2.8-13.2
		c1.3-7.3,2.3-14.7,2.2-22.2c-0.1-3.5-0.6-7.1-1-10.6c-0.1-1.3-0.4-2.6-1.7-3.5c-2.2,0.2-4.5,0.3-6.9,0.5c0.2,0.7,0.3,1.1,0.5,1.5
		c3.2,7.1,3.4,14.7,2.5,22.2c-0.6,5.4-2,10.6-5,15.3c-1.7,2.7-3.1,5.6-4.7,8.3c-0.7,1.2-1.5,2.4-2.4,3.5c-0.9,1.1-1.6,2.4-3.3,2.2
		c-0.3,0-0.7,0.5-1.1,0.8c-2.6,1.6-3.9,4.3-5.6,6.7c-0.4,0.5-0.5,1.3-0.6,2c-1.1,5.2-2.2,10.4-3.3,15.6
		C710.2,288.1,710.1,289,709.9,289.8z M653.9,547.3c-1.1,1.6-2.2,3.3-3.4,4.9c-0.5,0.7-1,1.7-1.6,1.8c-2,0.3-3.2,1.8-4.7,3
		c-1.3,1.1-2.8,1.7-4.5,1.6c-0.9-0.1-1.9,0.1-2.8,0.1c-1.2,0.1-1.9-0.4-1.9-1.5c-0.1-1.9-0.3-3.8,0.4-5.6c0.4-0.8,0.5-1.8,0.8-2.7
		c-0.5-0.1-0.8-0.2-1.1-0.2c-0.2,0-0.4,0.2-0.7,0.3c-0.1,0.3-0.2,0.6-0.2,0.9c0.5,4-0.8,7.4-3.1,10.6c-1.2,1.6-2,3.5-2.3,5.5
		c-0.1,0.8-0.5,1.6-0.7,2.3c-0.5,1.6-1.2,3.1-1.5,4.7c-0.4,2.3-1,4.6-2.2,6.7c1.8,1.1,3.6,1.6,5.4,2c2.2,0.5,4.4,0.8,6.5,1.6
		c3.3,1.2,6.5,1.1,9.7,0.4c1.4-0.3,2.8-0.3,4.2-0.5c0.9,1,1.6,2,2.6,2.7c3.4,2.4,7,4.4,11.3,4.6c1.1,0.1,2.1,0.3,3.2,0.4
		c4.9,0.8,9.8,1.1,14.8,0.2c0.8-0.2,1.6-0.1,2.5,0c4,0.2,8-0.1,11.9-1c0.6-0.2,1.2-0.5,1.9-0.8c-1.1-1.7-1.1-1.7-1.2-3.4
		c-0.1-2.1,0.1-4.3-1.1-6.2c-1.7-0.9-3.4-1.6-5-2.6c-1.7-1-3.3-2.3-4.8-3.4c-2.1,0.8-4,1.4-5.9,2.1c-0.8,0.3-1.6,0.5-2.4,0.6
		c-0.3,0-0.8-0.2-0.9-0.4c-0.1-0.4-0.1-0.9,0.1-1.3c0.6-1,1.7-1.2,2.7-1.5c1.3-0.3,2.7-0.6,4.4-1c-1.5-1.2-2.2-2.6-3.8-3.2
		c0,1.5-0.8,2.4-2,2.8c-2,0.7-4,1.4-6,2c-0.3,0.1-1-0.2-1.2-0.5c-0.2-0.3-0.2-1,0-1.3c0.3-0.6,0.8-1.2,1.4-1.5c0.9-0.5,2-0.7,3-1
		c1.2-0.4,2.4-0.2,3.8-0.9c-1.3-1-2.2-2.2-3.7-2.8c-2.3,1.1-4.7,2.2-6.8,3.7c-0.8,0.6-1.8,1.3-3,0.5c-0.5-1.5,0.1-2.7,1.2-3.7
		c1.5-1.4,3.4-2.1,5.4-2.5c0.5-0.1,1.2,0.1,1.5-0.8c-0.7-1.1-1.1-2.4-2.2-3.5c-1,0.6-1.8,1.2-2.8,1.6c-2,1-4,2-6,3
		c-1.1,0.5-2.2,0.8-3.3,0c-0.5-2,0.3-3.3,1.8-4.3c1.8-1.2,3.7-2.1,5.9-2.3c0.5-0.1,1.1-0.2,1.7-0.3c-1.2-2.1-1.4-2.2-3-1.7
		c-1.3,0.5-2.6,1.1-3.9,1.7c-2.1,1.1-4.2,2.2-6.2,3.3c-0.4,0.2-0.8,0.5-1.2-0.3c2.7-4.5,7.3-5.9,11.9-7.4c-0.4-2.8-1.3-5.1-3-7.8
		c-2.6-0.7-2.7-0.8-3.4-0.3C658.6,546.4,656.4,546.6,653.9,547.3z M669.7,446.1c0-5.5-0.6-10.8-2.2-16.1c-1-3.4-2.5-6.6-4.7-9.5
		c-1.6-2.1-3.1-4.1-5.8-5c-0.4-0.1-0.8-0.5-1.2-0.8c-2.7-2.4-5.9-2.8-9.3-2c-4.2,1-7.4,3.5-10,6.8c-3.2,4-5.2,8.7-6.4,13.7
		c-1.9,7.8-2,15.6-0.2,23.5c1.6,6.8,4.3,13,9.8,17.6c2.9,2.5,6.2,3.7,10.1,3.5c3.1-0.1,5.7-1.4,8.1-3.2c3.8-3,6.3-6.9,8.2-11.3
		C668.5,457.8,669.6,452,669.7,446.1z M691.2,438c1,0,1.7-0.1,2.4,0c0.9,0.2,1.9,0.4,2.6,0.9c1.5,1.2,2.5,2.8,2.5,4.9
		c-0.1,3.5-0.8,6.8-4,9c-2.9,0.2-5.8,0.4-8.2,0.6c-1.7,1.2-2.9,2.3-4.2,2.9c-1.5,0.6-3.1,0.6-4.7,0.9c-0.1,1.2-0.1,2.3-0.3,3.3
		c-0.3,1.4-0.1,2.6,0.6,3.8c0.7,1.3,1.7,2.5,2.5,3.8c2.1,3.6,5.2,6,9.2,7.4c2.2,0.8,4.4,0.9,6.6,0.3c3.7-0.9,6.6-3.1,9-5.9
		c4.9-5.9,6.8-12.9,7.7-20.2c0.8-6.3,0-12.5-1.9-18.5c-1.6-5.2-4.1-9.8-8.1-13.5c-1.4-1.3-3-2.2-5-2.3c-0.9-0.1-1.9-0.1-2.8-0.4
		c-1.5-0.5-2.8-0.2-4.1,0.5c-1.5,0.7-2.9,1.6-4.1,3.1c0,1.1-0.2,2.4,0,3.7c0.6,3.5,1.2,7,2.7,10.2C690.3,434,691,435.7,691.2,438z
		 M740.3,448.7c-1.1,1.7-1.3,3.2-1,4.9c0.4,3.1,1.2,5.9,2.8,8.7c1.7,3.1,3.8,5.7,7,7.3c2.5,1.3,5,1.8,7.8,1.2c3-0.7,5.5-2.1,7.7-4.2
		c5.4-5.1,8.1-11.5,9.8-18.5c1-4.2,1.2-8.4,0.9-12.7c-0.5-5.9-2-11.3-5.5-16.2c-2.3-3.3-5.9-3.6-9.2-4.6c-0.4-0.1-0.9,0-1.4,0.2
		c-1.5,0.5-2.9,1-4,2.1c-0.3,2.4-0.4,12.5-0.1,14.9c0.2,1.3,0.5,2.5,0.7,3.8c0.7,0.3,1.3,0.7,1.8,0.6c1.3,0,2.3,0.4,3.1,1.4
		c0.8,1,1.4,2.2,1.4,3.5c0,2.3-0.7,4.5-1.9,6.3c-1.3,2-3.2,3.1-5.8,2.4c-1.1-0.3-2.3-0.2-3.5-0.4c-0.8-0.1-1.5-0.5-2.4-0.8
		C745.9,450.5,743.2,449.8,740.3,448.7z M759.2,438.9c-0.9,0-2,0-3,0c-1.3,3.1-3,5.9-5.9,7.9c2.8,1.9,5.5,1.2,8.1,0.1
		C760.1,444.4,760.8,441.8,759.2,438.9z M689,451.1c2.8,1,4.6-0.9,6.6-1.5c1.2-3.2,1.8-6.1-0.5-8.8c-1.1,0.1-2,0.3-3.2,0.4
		c0,1.6,0,3.2-0.1,4.7c-0.1,1.6-0.5,3-1.8,4.1C689.7,450.3,689.5,450.7,689,451.1z M751.4,204.1c2.7-1.4,5-2.6,6.7-4.6
		c-0.5-2.4-2.7-3.3-3.9-5.6C752.9,197.4,751.3,200.2,751.4,204.1z M750.6,199.3c1.1-2.4,1.9-4.1,2.5-5.8c0.5-1.3,0.1-2.4-1-3.6
		C751.5,192.9,750.6,195.6,750.6,199.3z M793.6,163c-0.7-0.3-1-0.6-1.3-0.6c-1.8,0.3-3.6,0.7-5.4,1.1c-0.1,0-0.2,0.3-0.3,0.5
		C790.2,164.8,791.5,164.6,793.6,163z M763.9,179.2c2.4-0.4,2.4-0.4,3.6-2c-0.2-0.7-0.8-0.9-1.3-0.5
		C765.4,177.5,764.7,178.4,763.9,179.2z M708,295.6c1.1,0.6,1.9,0.2,2.8-0.1c0.1,0,0.2-0.3,0.4-0.6c-0.8-0.4-1-1.6-2.3-1.3
		C708.5,294.1,708.2,294.9,708,295.6z M776.6,174.9c0-0.2,0.1-0.3,0.1-0.5c-0.5,0-1-0.1-1.5-0.1c0,0.1,0,0.2,0,0.4
		C775.7,174.7,776.1,174.8,776.6,174.9z M783.8,162.2c0,0.2-0.1,0.4-0.1,0.6c0.5,0,1,0,1.5,0c0-0.1,0-0.3,0-0.4
		C784.7,162.3,784.3,162.3,783.8,162.2z M790.9,144.1c0,0,0-0.1,0-0.1c-0.3,0-0.5,0-0.8,0c0,0,0,0.1,0,0.1
		C790.3,144.1,790.6,144.1,790.9,144.1z M785.8,142.5l0,0.2l0.3-0.1L785.8,142.5z M788.1,143.2c-0.1,0-0.2,0-0.3,0.1
		c0.1,0,0.2,0.1,0.4,0.1C788.1,143.3,788.1,143.3,788.1,143.2z M743.1,187c0-0.1,0-0.2,0-0.3c0,0.1-0.1,0.1-0.1,0.2
		c0,0.1,0,0.2,0,0.3C743,187.1,743,187,743.1,187z M795.6,141.3l-0.2-0.1l0,0.2L795.6,141.3z"/>
	<path d="M525,333.6c-4-0.1-8-0.1-12,0.7c-1.7-0.6-3.5-1.3-5.2-2c-0.9-0.3-1.8-0.6-2.6-1.2c-2.4-1.9-5.3-3-8.1-4.4
		c-1.2-0.6-2.6-1.1-4-1.3c-4.5-0.7-9.1-1.2-13.7-1.8c-2.5-0.3-4.9-0.6-7.4-1c-4.2-0.8-8.3-1.8-12.5-2.2c-2.1-0.2-4.2-0.4-6.4-0.2
		c-1.7,2.8-4.3,4.6-6.6,6.8c-2.2,2-5,3.7-6.1,6.7c-0.3,0.9-1.1,1.6-2,1.9c-1.3,0.5-2.1,1.5-2.8,2.6c-0.2,0.4-0.5,0.8-0.7,1.2
		c-2.4,4.8-6.3,8.2-10.8,10.9c-2.5,1.5-5.2,2.5-7.9,2.8c-3,0.4-6.1,0.4-8.5-2.1c-1.1-1.1-2.4-1.9-3.5-3c-1.7-1.5-2-2-2.8-4.6
		c0.3-0.2,0.7-0.4,1.1-0.6c0.3-0.2,0.6-0.3,0.9-0.4c1.1,2.7,1.1,2.7,3.6,4.6c1,0.8,2.1,1.5,3.1,2.3c2.4,1.9,5,2.2,7.9,1.1
		c3.9-1.5,7.4-3.7,10.6-6.2c1.6-1.3,2.6-3,3.7-4.7c0.7-1.1,1.4-2.2,2-3.4c0.9-1.6,2.9-2.1,3.9-3.5c1-1.4,1.8-3,3.2-4.2
		c2.1-1.9,4-3.9,6.1-5.8c0,0,0-0.2,0-0.3c0.3,0,0.6-0.1,0.3,0c0.2-0.1,0,0-0.3,0.1c-1.1,0.3-2.2,0.7-3.4,0.9
		c-1.6,0.4-3.2,0.7-4.8-0.2c-0.3-0.2-0.7-0.2-1-0.1c-2,0.2-2.7-1.1-3.3-2.6c-0.2-0.4-0.3-0.9-0.3-1.4c0-3.1,0-6.1,0.1-9.2
		c0-1.7,0.7-3.2,1.6-4.6c0.6-0.9,0.6-1.7,0.5-2.7l-0.1,0.1c2.6-1.2,5.9-1.3,9.5-0.4c-0.3,0.5-0.6,1.2-1,1.4
		c-1.6,0.7-3.3,1.3-4.9,1.9c-0.1,0-0.4-0.2-0.7-0.4c0.4-0.6,0.7-1.1,1.2-1.8c-0.5-0.1-0.9-0.1-1.3-0.1c-1.7,2.6-3.4,5.1-3.4,8.2
		c0,3-0.2,6.1,0.8,9c3.3,1.2,6.5,2.2,9.5-0.2c0.4-0.3,0.9-0.3,1.3-0.6c2.5-1.8,5.4-1.5,8.2-1.2c2,0.2,4,0.6,5.9,1.1
		c3.2,0.8,6.5,1.3,9.8,1.5c3.1,0.2,6.1,0.4,9.2,0.7c5.6,0.5,11.2,1.4,16.6,3.2c1.9,0.6,4,1,5.6,2.1c3.1,2.3,6.8,3.1,10.2,4.8
		c0.6,0.3,1.4,0.3,2.1,0.3c0.8,0,1.6-0.2,2.5-0.3c2.3-0.1,4.7-0.4,7,0.9C525,333,525,333.4,525,333.6L525,333.6z"/>
	<path d="M421.7,318.8c0.1,0.3,0.4,0.5,0.5,0.9c1.4,3.7,4.3,6.1,7.6,8.1c0.7,0.4,1.4,0.9,1.9,1.5c0.3,0.3,0.4,0.9,0.3,1.3
		c-0.1,0.6-0.7,1-1.3,1c-0.9,0-2,0-2.7-0.4c-4.2-2.2-6.9-5.6-7.7-10.4C420.1,320,420.2,319.9,421.7,318.8z"/>
	<path d="M426.1,316.6c0.5,0.8,1,1.5,1.5,2.1c1.7,2.3,3.5,4.4,5.9,5.9c0.7,0.4,1.3,0.9,2,1.4c0.5,0.4,0.8,1,0.3,1.5
		c-0.3,0.3-0.8,0.5-1.2,0.5c-0.4,0-0.9-0.1-1.3-0.3c-4.2-2.2-6.7-5.7-8-10.2c0-0.2,0.1-0.4,0.2-0.6
		C425.5,316.9,425.6,316.9,426.1,316.6z"/>
	<path d="M420.1,334.4c-0.4-1.6-1.8-2.6-2.5-4.1c-0.4-0.9-0.8-1.9-1.2-2.9c-0.1-0.2,0.3-0.6,0.5-0.8c0.1-0.1,0.4,0,0.7,0
		c0.2,0.1,0.4,0.2,0.6,0.3c1.9,1.8,3.9,3.7,5.8,5.6c0.3,0.2,0.6,0.5,0.6,0.8c0.1,0.5,0.3,1.2,0.1,1.6c-0.3,0.7-1,0.9-1.8,0.8
		c-0.8-0.2-1.5-0.5-2.3-0.8l0.1,0.1c0-0.6-0.2-0.9-0.8-0.8L420.1,334.4z"/>
	<path d="M420.7,335c0,0.5,0.1,0.9,0,1.4c-0.1,1.3-1.1,2-2.2,1.5c-2.1-1.1-3.5-2.8-4.1-5.1c0-0.2,0.1-0.5,0.2-0.6
		c0.1-0.2,0.4-0.3,0.6-0.4c1.2,0.1,2,1,3,1.7c0.6,0.4,1.2,0.6,1.8,0.9l-0.1-0.1c0,0.6,0.2,0.9,0.8,0.8L420.7,335z"/>
	<path d="M413.3,336.8c1.7,0.7,3.1,1.4,4.1,2.9c0.3,0.5,0.5,1.1,0,1.6c-0.4,0.4-1,0.8-1.5,0.8c-1.8-0.1-3.5-2-3.5-3.8
		C412.4,337.8,413,337.3,413.3,336.8z"/>
	<path d="M625.9,313.2c-3.8-0.1-7.5-0.7-11.5-2.7c1.1,0,1.6-0.1,2,0c2.4,0.6,4.8,1.2,7.2,1.9C624.4,312.6,625.1,312.9,625.9,313.2z"
		/>
	<path d="M638.4,318.4c-2.5,0.6-4.8-0.2-7.6-0.4C633.9,317.3,634.5,317.3,638.4,318.4z"/>
	<path d="M615.7,261.4c-2.3,0-4.7,0-7.8,0c3-0.8,5.4-1,7.4-0.5C615.5,261,615.5,261.3,615.7,261.4L615.7,261.4z"/>
	<path d="M669.1,296.9c-2-0.6-3.2-0.6-4.2-1.2c-0.1-0.8,0.3-0.9,0.7-0.9C666.8,294.7,667.8,295.2,669.1,296.9z"/>
	<path d="M639.7,308c0.2,0.7-0.1,1.1-0.7,1.4c-0.8,0.4-1.7,0.6-2.6,1l0.1,0.1c-0.1-1,0.6-1.3,1.4-1.6
		C638.5,308.6,639.1,308.3,639.7,308L639.7,308z"/>
	<path d="M657.5,312.4c-0.6,1-1.4,0.8-2.7,0.2C656,312.5,656.8,312.5,657.5,312.4L657.5,312.4z"/>
	<path d="M636.4,310.3c-0.7,0.2-1.5,0.4-2.2,0.6l0.1,0.1C634.9,310.3,635.7,310.3,636.4,310.3L636.4,310.3z"/>
	<path d="M749.8,182c0.2-0.7-0.1-1.6,0.7-2.2l-0.1-0.1c-0.1,0.8-0.1,1.6-0.7,2.2L749.8,182z"/>
	<path d="M749.1,184.2c0.1-0.8-0.1-1.6,0.7-2.2l-0.1-0.1C749.5,182.7,749.9,183.6,749.1,184.2L749.1,184.2z"/>
	<path d="M615.6,261.5c0.6,0,1.1,0,1.9,0C616.7,262.3,616.2,261.9,615.6,261.5L615.6,261.5z"/>
	<path d="M648.4,314.1c0.1,0,0.2,0,0.3,0.1c-0.1,0.1-0.2,0.1-0.4,0.2c0,0-0.1-0.1-0.2-0.1C648.2,314.1,648.3,314.1,648.4,314.1z"/>
	<path d="M181.2,16.8c0.2-0.9,0.8-0.7,1.4-0.6l-0.1-0.1c0,0.3,0,0.5,0,0.8l0.1-0.1C182.1,16.7,181.6,16.8,181.2,16.8L181.2,16.8z"/>
	<path d="M643.4,306c0.5-0.2,1-0.4,1.5-0.6l-0.1-0.1C644.3,305.5,643.8,305.7,643.4,306L643.4,306z"/>
	<path d="M641.3,307.5c0.3-0.6,0.8-0.7,1.4-0.7l-0.1-0.1C642.2,307,641.7,307.2,641.3,307.5L641.3,307.5z"/>
	<path d="M588.1,267c0.2-0.1,0.3-0.3,0.5-0.4c0,0,0.1,0.1,0.2,0.1C588.5,266.8,588.3,266.8,588.1,267L588.1,267z"/>
	<path d="M632.8,311.7c0.5-0.2,1-0.4,1.5-0.6l-0.1-0.1C633.9,311.7,633.2,311.4,632.8,311.7L632.8,311.7z"/>
	<path d="M641.2,307.4c-0.3,0.8-0.9,0.7-1.6,0.6l0.1,0.1C640.3,307.9,640.8,307.7,641.2,307.4L641.2,307.4z"/>
	<path d="M775.2,420.9c0.5-0.1,0.8,0.1,0.8,0.7l0,0C775.4,421.6,775.3,421.3,775.2,420.9L775.2,420.9z"/>
	<polygon points="182.6,16.2 182.7,16 182.5,16.1 	"/>
	<path d="M588,266.9c0,0.1,0,0.2,0,0.3C588,267.1,588,267.1,588,266.9L588,266.9z"/>
	<path d="M171.9,18.2c0.2,0.2,0.3,0.3,0.5,0.5c-0.2,0.1-0.3,0.1-0.5,0.2L172,19C172,18.7,172,18.4,171.9,18.2L171.9,18.2z"/>
	<polygon points="657.6,312.5 657.7,312.3 657.5,312.4 	"/>
	<polygon points="632.7,311.6 632.6,311.8 632.8,311.7 	"/>
	<path d="M643.3,305.9c-0.2,0.3-0.4,0.6-0.7,0.8l0.1,0.1C643,306.6,643.2,306.3,643.3,305.9L643.3,305.9z"/>
	<path d="M644.9,305.5c0.2-0.3,0.4-0.5,0.6-0.8l-0.1,0C645.2,304.9,645,305.1,644.9,305.5L644.9,305.5z"/>
	<polygon points="645.5,304.7 645.6,304.5 645.4,304.6 	"/>
	<path d="M241.7,177c-0.6,1.7-1.3,2.5-2.7,2.7c-4.7,0.4-9.2,2-14,1.7c-3.7-0.2-7.2-1-10.4-3c-4-2.4-7.1-5.6-9.7-9.4
		c0.6-0.7,1-0.3,1.3,0c1.5,1.3,3,2.7,4.6,3.9c3.7,2.7,7.9,4.2,12.4,4.7c3.7,0.4,7.5,0.6,11.3,0.8C237,178.6,239.4,178.4,241.7,177z"
		/>
	<path d="M218.6,232.6c0.2,0,0.4,0,0.4,0.1c1.9,4.2,3.5,8.4,4.4,13c0.2,0.9,0.1,1.9,0.1,2.8c0,0.3-0.2,0.7-0.4,1.1
		c-0.5-0.6-0.7-0.8-0.7-1c-0.1-3.6-1.4-6.9-2.5-10.2c-0.5-1.5-0.9-3.1-1.4-4.7C218.4,233.3,218.6,232.9,218.6,232.6z"/>
	<path d="M243.7,226.7c0.4,0.1,0.7,0.1,0.8,0.3c1.4,1.7,1.9,3.8,2.2,5.9c0.1,1.2-0.6,1.9-1.8,2.2c-0.2-0.3-0.5-0.5-0.4-0.6
		c0.6-1.5,0.3-3-0.3-4.4c-0.3-0.7-0.6-1.3-0.7-2C243.4,227.6,243.6,227.2,243.7,226.7z"/>
	<path d="M246.5,204.4c0-1.7,0-3.4,0-5.2c0.1,0,0.2,0,0.3,0c0.1,0.8,0.1,1.6,0.1,2.4c0,0.9,0,1.9,0,2.8
		C246.8,204.4,246.6,204.4,246.5,204.4z"/>
	<path d="M208,198.3c0.5,0.7,1,1.4,1.7,2.5C208,199.9,208,199.9,208,198.3z"/>
	<path d="M224.1,212.1c-0.4-1.2-0.4-1.9,0.9-2.7C224.6,210.4,224.4,211.1,224.1,212.1z"/>
	<path d="M245.6,211.5c0,0.8,0,1.6,0,2.5c-0.1,0-0.2,0-0.3,0c0-0.8,0-1.6,0-2.5C245.3,211.5,245.5,211.5,245.6,211.5z"/>
	<path d="M216.8,196.7c0.1-0.1,0.2-0.2,0.2-0.2c0.3,0.2,0.5,0.5,0.7,0.7c-0.2,0-0.5,0.2-0.6,0.1C217,197.2,216.9,196.9,216.8,196.7z
		"/>
	<path d="M218.9,220.6c0-0.4,0-0.8,0-1.3c0.1,0,0.2,0,0.3,0c0,0.4,0,0.8,0,1.3C219.1,220.6,219,220.6,218.9,220.6z"/>
	<path d="M218.7,226.1c0,0.1-0.1,0.2-0.1,0.3c-0.1-0.1-0.2-0.2-0.3-0.3c0,0,0.1-0.1,0.2-0.2C218.6,225.9,218.6,226,218.7,226.1z"/>
	<path d="M244.8,175c-0.1,0.1-0.2,0.2-0.2,0.2c-0.1-0.2-0.2-0.4-0.2-0.6c0-0.1,0.1-0.2,0.2-0.2C244.7,174.6,244.8,174.8,244.8,175z"
		/>
	<path d="M221.2,214.9c0,0.1,0.1,0.2,0.1,0.3c0,0.1-0.1,0.2-0.2,0.3C221.2,215.2,221.2,215,221.2,214.9z"/>
	<path d="M174.1,415.4c3-1.5,6.3-2.2,10.2-3.4C182.3,414.2,178,415.5,174.1,415.4z"/>
	<path d="M198.5,428.7c-1.9,0.8-3.7,1-5.7,0.2c0.3-0.3,0.5-0.7,0.7-0.7c1.3,0,2.6,0,3.9,0C197.7,428.3,198.1,428.5,198.5,428.7z"/>
	<path d="M196.9,397.1c-0.9-1.9-0.9-3-0.2-4.3C197.5,394.3,197.5,394.3,196.9,397.1z"/>
	<path d="M165.2,419.2c1.8-0.5,2.8-0.9,4.4-1.4C167.7,419.2,167.7,419.2,165.2,419.2z"/>
	<path d="M111.1,445.9c0-0.7,0.5-0.9,1.1-0.8c0.2,0,0.5,0.3,0.7,0.4c-0.1,0.2-0.2,0.4-0.4,0.5C112,446.3,111.5,446.4,111.1,445.9z"
		/>
	<path d="M106.8,446.8c0.8-0.7,1.4-0.6,2.2,0C108.3,447.3,107.7,447.5,106.8,446.8z"/>
	<path d="M103.4,448.4c0.2-0.1,0.4-0.2,0.5-0.1c0.1,0.1,0.2,0.3,0.3,0.5c-0.2,0.1-0.4,0.2-0.6,0.1
		C103.5,448.9,103.5,448.6,103.4,448.4z"/>
	<path d="M195.9,389.6c0,0.1-0.1,0.2-0.1,0.3c-0.1-0.1-0.2-0.2-0.2-0.4c0,0,0.1-0.1,0.2-0.1C195.8,389.4,195.8,389.5,195.9,389.6z"
		/>
	<path d="M227.7,452c0.4,2.4,0.3,3.6-1.2,7.4c-1.4,3.8-3.1,7.5-6.4,10.4c-0.1-0.4-0.3-0.7-0.3-0.8c2.4-5.6,5.2-11,7.2-16.7
		c0-0.1,0.2-0.1,0.3-0.2C227.4,452,227.6,452,227.7,452z"/>
	<path d="M255.1,401c1,2.1,0.4,3.6-0.3,5.1c-1.1,2.5-3,4.5-5.3,5.8c0-0.4-0.1-0.8,0-1c0.6-1,1.3-2,2-2.9c1.3-1.8,2.5-3.7,2.9-6
		C254.4,401.8,254.7,401.6,255.1,401z"/>
	<path d="M192.3,544c0.7,2.3,0.9,4.6,0.5,6.9c-0.1,0.5-0.2,0.9-0.4,1.3c-0.2,0.3-0.6,0.5-0.8,0.5c-0.3,0-0.7-0.4-0.7-0.6
		c0-2.5-0.2-5.1,0.8-7.6C191.8,544.4,192,544.2,192.3,544z"/>
	<path d="M228.2,444.2c-0.6-1.6,0.1-2.7,0.9-4.2C229.2,442.2,229.2,442.2,228.2,444.2z"/>
	<path d="M245.1,436.6c-0.5-0.5-0.8-0.6-0.9-0.9c-0.3-0.6-0.4-1.3-0.7-2c0.4,0,0.6,0,0.7,0C244.9,434.4,245.2,435.3,245.1,436.6z"/>
	<path d="M201.5,523.6c0.1,1.3-0.2,1.9-1.2,2.1C200.2,524.4,200.2,524.4,201.5,523.6z"/>
	<path d="M216.8,474.7c0-0.5-0.1-0.8,0-1.1c0.1-0.2,0.5-0.3,0.7-0.5c0,0.3,0.2,0.6,0.1,0.8C217.5,474.3,217.2,474.4,216.8,474.7z"/>
	<path d="M195,539.1c-0.8-0.7-0.4-1.3-0.2-2.3C195.6,537.7,195.3,538.3,195,539.1z"/>
	<path d="M196.8,532.1c0.3-0.4,0.5-0.8,0.9-1.3C198.2,531.7,197.6,532,196.8,532.1z"/>
	<path d="M247.3,415.6c-0.3,0.1-0.5,0.3-0.9,0.5c-0.1,0-0.4-0.1-0.5-0.2c0,0,0-0.3,0-0.3c0.2-0.2,0.5-0.5,0.8-0.7
		C246.8,415,246.9,415.2,247.3,415.6z"/>
	<path d="M257,396.8c0,0.1-0.1,0.2-0.1,0.3C256.9,397,257,396.9,257,396.8L257,396.8z"/>
	<polygon points="257,396.9 257.1,396.7 257,396.8 	"/>
	<path d="M157.8,142.7c1.5,1.6,1.2,2.9,1.4,4.1c0.2,1.1,0.4,2.2,0.8,3.9C157.3,148.4,157.5,146,157.8,142.7z"/>
	<path d="M176.8,215c-1.5,0.4-1.8-0.5-2.2-1.1c-0.5-0.8-0.9-1.6-0.1-2.6C176,211.9,176.1,213.5,176.8,215z"/>
	<path d="M231.7,308.1c1.3,1.5,1.8,2.6,1.5,4.2C231.8,310.8,231.8,310.8,231.7,308.1z"/>
	<path d="M183.3,277c1,0,2,0,3,0.1c0.4,0,0.7,0.4,1.1,0.6l0.1-0.1C186.1,277.6,184.6,278,183.3,277L183.3,277z"/>
	<path d="M187.4,277.8c1.2,0,2.5,0,3.7,0C189.9,278.4,188.7,278.6,187.4,277.8L187.4,277.8z"/>
	<path d="M188.3,272c0.9,0.1,1.8,0.2,2.8,0.2C190.1,272.7,189.1,272.9,188.3,272L188.3,272z"/>
	<path d="M228.4,304c0.1,0.3,0.2,0.7,0.2,1c0,0.2-0.2,0.4-0.2,0.5c-0.2-0.1-0.4-0.2-0.5-0.4C227.5,304.6,227.5,304.6,228.4,304z"/>
	<path d="M188.4,271.9c-0.7,0-1.5,0-2.6,0C187,271.3,187.7,271.5,188.4,271.9L188.4,271.9z"/>
	<path d="M189.4,138.7c0,0.5,0.1,0.9,0.1,1.4c-0.1,0-0.2,0-0.4,0c-0.1-0.5-0.1-0.9-0.2-1.4C189.1,138.7,189.2,138.7,189.4,138.7z"/>
	<path d="M178.5,217.6c0.5,0.1,0.7,0.2,1,0.3c0,0,0.1,0.3,0,0.3c-0.1,0.1-0.4,0.2-0.5,0.1C178.9,218.1,178.8,217.9,178.5,217.6z"/>
	<path d="M183.4,276.9c-0.2,0-0.4-0.1-0.7-0.1C182.9,276.9,183.1,276.9,183.4,276.9L183.4,276.9z"/>
	<path d="M181.1,221.7c-0.1-0.1-0.2-0.1-0.3-0.2c0,0,0-0.1,0-0.2C180.9,221.5,181,221.6,181.1,221.7L181.1,221.7z"/>
	<polygon points="189.3,134 189.4,134.2 189.2,134.2 	"/>
	<path d="M181,221.8c0.1,0,0.3,0.1,0.4,0.1c-0.1,0-0.1,0-0.2,0C181.2,221.8,181.2,221.8,181,221.8L181,221.8z"/>
	<path d="M218.4,80.9c-4.1-0.6-7.9-2.1-11.6-4c-0.7-0.4-1.4-1-1.7-1.7c-0.6-1.5-0.9-3.2-1.2-4.8c-0.1-0.3,0.4-0.7,0.6-1.3
		c1.2,1,1.2,2.2,1.3,3.3c0.2,1.3,0.8,2.2,1.9,2.8c1.3,0.8,2.7,1.5,4.1,2C214.2,78.3,216.3,79.5,218.4,80.9z"/>
	<path d="M230.4,49.5c1.8-0.8,3.5-1.7,5.3-2.6c1.1-0.5,2.3-0.2,3.4,0c0.4,1.5-1.4,1.4-1.5,2.5c-0.1,1-0.4,2-0.7,3.2
		c-1.6,0.1-2.7-0.4-3.2-2C232.8,49.9,231.1,51.6,230.4,49.5z"/>
	<path d="M242.3,45.4c-1,0.1-1.6,0.4-2,0.2c-1.6-0.5-3.1-1.2-4.6-1.8c-1.2-0.5-2.3-0.5-3.4,0c-1.2,0.4-2.3,1.1-3.7,1
		C231.1,40.5,238.5,41.3,242.3,45.4z"/>
	<path d="M213.6,87c-0.8-1.6-1.4-3.2-1.3-4.9c0-0.3,0.3-0.7,0.6-0.7c0.3,0,0.8,0.2,0.8,0.4C214.2,83.6,214.3,85.3,213.6,87z"/>
	<path d="M221.9,112.6c1.3-0.3,2,0.4,2.8,1.1C223.4,113.7,223.4,113.7,221.9,112.6z"/>
	<path d="M215.4,91.9c-0.4-0.4-0.7-0.6-0.8-0.8c0-0.2,0.2-0.5,0.3-0.8c0.2,0.1,0.5,0.2,0.5,0.4C215.5,91,215.4,91.3,215.4,91.9z"/>
	<path d="M189.7,25.3c-1.2,0-2.1-0.7-3-1.5C188,23.9,189.1,24.2,189.7,25.3z"/>
	<path d="M195.3,25.4c0.5,0,0.9,0.1,1.7,0.2C196.1,26,195.7,25.7,195.3,25.4L195.3,25.4z"/>
	<path d="M191.2,26c-0.7,0-1.3-0.1-1.6-0.8C190.2,25.3,190.9,25.4,191.2,26z"/>
	<path d="M195.4,25.3c-0.5-0.1-1.2,0-1.3-0.8l-0.1,0.1C194.5,24.7,195.1,24.6,195.4,25.3L195.4,25.3z"/>
	<path d="M194.1,24.5c-0.3,0-0.6,0-0.3,0C193.5,24.3,193.8,24.5,194.1,24.5L194.1,24.5z"/>
	<path d="M214.6,21c-0.2,0-0.4,0-0.6,0c-0.1,0-0.1-0.2-0.2-0.3c0.1,0,0.2,0,0.3,0C214.2,20.7,214.4,20.9,214.6,21L214.6,21z"/>
	<path d="M211.7,22.5c-0.1,0-0.2-0.1-0.3-0.1C211.4,22.4,211.5,22.5,211.7,22.5L211.7,22.5z"/>
	<path d="M226.4,114.9c-0.1,0.1-0.1,0.2-0.2,0.2c-0.1-0.1-0.2-0.2-0.2-0.2c0-0.1,0.1-0.1,0.2-0.2
		C226.2,114.8,226.3,114.9,226.4,114.9z"/>
	<path d="M104,479.5c-0.7,0.2-1.3,0.6-1.8,0.6c-4.7-0.3-9-1.5-12.9-4.1c-0.9-0.6-1.7-1.3-2-2.3c-0.2-0.8-0.1-1.5,0.4-1.9
		c0.5-0.4,1.2-0.6,1.9-0.6c0.4,0,0.9,0.2,1.3,0.5c3.4,2.4,7.1,4.1,10.9,5.8c0.5,0.2,1.1,0.5,1.5,0.9
		C103.6,478.4,103.7,478.9,104,479.5z"/>
	<path d="M100.3,491.1c-1.5,0.3-3,0.6-4.4,0.9c-3.4,0.7-6.2-0.6-8.8-2.5c-0.3-0.2-0.5-0.5-0.7-0.8c-0.4-0.6-0.5-1.4,0-2
		c0.4-0.7,1.2-0.7,1.9-0.6c0.4,0.1,0.9,0.3,1.3,0.5c3,1.9,6.3,2.5,9.7,2.8c0.3,0,0.7,0.2,1.1,0.3c-0.1,0.5-0.1,0.9-0.2,1.3
		L100.3,491.1z"/>
	<path d="M88.9,492.8c1.8,0.4,3.6,0.7,5.4,1.2c0.4,0.1,1,0.8,1,1.2c0,0.4-0.5,1.1-0.9,1.3c-2.2,1-4.5,1.1-6.8,0.2
		c-0.2-0.1-0.4-0.2-0.6-0.3c-0.7-0.4-1.2-1.3-1-2.1c0.2-0.8,0.7-1.2,1.4-1.4C87.9,492.9,88.4,492.8,88.9,492.8z"/>
	<path d="M91.5,504.4c-1.3-0.2-2.7-0.4-3.8-1.4c-0.3-0.3-0.6-0.7-0.8-1.1c-0.6-1.2,0.2-2.5,1.5-2.5c0.9,0,1.9,0.2,2.8,0.4
		c0.8,0.2,1.6,0.5,2.3,0.8c0.7,0.3,1.2,0.8,1.2,1.6c0.1,0.7-0.5,1.5-1.4,1.8c-0.3,0.1-0.7,0.2-1,0.3
		C92.1,504.4,91.9,504.4,91.5,504.4z"/>
	<path d="M232.9,571.8c0.3,1.4-0.1,2.5-1.5,3.2c-0.6,0.3-1.3,0.7-1.9,0.8c-0.4,0.1-1-0.1-1.2-0.4c-0.2-0.3-0.3-1-0.1-1.3
		c0.7-1.3,1.9-2,3.4-2.2c0.5-0.1,0.9,0,1.4,0L232.9,571.8z"/>
	<path d="M262.3,216.6c0.2-1.9,0.4-3.6,0.6-5.3c1.3,0.3,1.1,1.2,1.1,2C264,215.2,263.7,215.6,262.3,216.6z"/>
	<path d="M270.4,282.7c0.1,0.3,0.4,0.5,0.4,0.8c0,0.2-0.2,0.5-0.3,0.7c-0.2-0.1-0.4-0.2-0.5-0.4c-0.1-0.3,0-0.6,0-0.9
		C270.1,282.9,270.3,282.8,270.4,282.7z"/>
	<path d="M270.2,279.1c0,0.3,0.1,0.6,0.1,0.8c0,0.1-0.4,0.2-0.4,0.1c-0.1-0.1-0.3-0.4-0.2-0.6C269.6,279.4,269.9,279.3,270.2,279.1z
		"/>
	<path d="M260,224.9c-0.1,0-0.1-0.1-0.2-0.1c0.1-0.1,0.1-0.2,0.2-0.2c0.1,0,0.2,0.1,0.3,0.2C260.1,224.8,260,224.8,260,224.9z"/>
	<path d="M261.8,219.8c-0.1,0.1-0.2,0.2-0.2,0.3c-0.1-0.2-0.2-0.4-0.2-0.6c0-0.1,0.1-0.2,0.2-0.3
		C261.7,219.4,261.7,219.6,261.8,219.8z"/>
	<path d="M184,299.6c-0.1-1.4,0.4-2.6,1-3.7c1.9-3.6,4.4-6.6,7.7-9.1c1.6-1.2,3.3-1.7,5.2-2c3.3-0.5,5.9,0.6,8.5,2.6
		c3.1,2.4,5,5.6,6.7,9c2.7,5.4,4.4,11.1,4.6,17.3c0.2,4.1,0.2,8.3-0.5,12.3c-0.9,4.5-2.4,8.8-5,12.7c-0.8,1.2-1.6,2.3-2.5,3.4
		c-0.3,0.4-0.9,0.6-1.4,0.8l0,0c0.2-0.5,0.4-1.1,0.7-1.5c3.5-4.3,5.6-9.3,6.8-14.7c0.9-4.1,1.4-8.4,0.7-12.7
		c-0.5-2.8-0.6-5.6-1.2-8.4c-0.8-4-2.2-7.7-4.5-11.1c-1.2-1.8-2.6-3.3-4.1-4.9c-4.1-4.4-11.2-3.6-15.1-0.2c-2.6,2.3-4.8,4.8-6.1,8.1
		C185,298.3,184.4,298.9,184,299.6L184,299.6z"/>
	<path d="M199.6,325.1c-0.6,1-1.7,1.3-2.7,1.2c-1.1-0.1-2.3-0.4-3.3-0.9c-1.7-1.1-3-2.7-3.1-4.8c-0.1-2.4-0.1-4.9,0.1-7.3
		c0.1-0.8,0.9-1.6,1.4-2.4c0.1,0.3,0.2,0.5,0.3,0.8c0.1-0.2,0.1-0.4,0.2-0.7l0.2-0.1l-0.1,0.2c-0.2,0-0.5-0.1-0.7-0.1
		c0.2-0.4,0.2-1.1,0.5-1.3c1.5-0.6,2.9-1.3,4.5-1.6c1.6-0.3,3,0.5,4,1.8c1,1.2,1.5,2.6,1.7,4.2c0.3,2.6,0,5.2-1.1,7.6
		c-0.2,0.4-0.3,0.9-0.4,1.3l0.1-0.1c-0.5,0-0.8,0.3-0.8,0.8l0.1-0.1c-0.8,0.4-1.6,0.7-3,1.3C198.5,325.1,199.1,325.2,199.6,325.1
		L199.6,325.1z M193.9,323.8c0-0.5-0.2-0.8-0.8-0.7c0-0.6-0.1-1.1-0.7-1.4c-0.1-0.3-0.1-0.7-0.2-1.1c-0.5,0.6-0.1,0.8,0.3,1
		c0.2,0.5,0.4,0.9,0.7,1.4C193.3,323.4,193.4,323.8,193.9,323.8c-0.1,0.5,0.3,0.6,0.7,0.7c0.4,0.4,0.8,0.8,1.6,0.2
		c-0.7-0.1-1.2-0.1-1.7-0.1C194.7,324,194.4,323.8,193.9,323.8z M193.9,313.8c-1.1,0.9-0.7,2.1-0.8,3.2c-0.1,1.3,0.1,2.6,0.8,3.7
		c0.4,0.6,0.8,1.2,1.3,1.6c0.9,0.8,2.3,0.8,3.2,0c0.5-0.5,1-1,1.4-1.6c1.6-3,1.5-6.1,0-9.1c-0.3-0.7-1.1-1.2-1.7-1.7
		c-0.7-0.5-1.5-0.4-2.3,0.1c-1.5,0.9-1.9,2.3-2,3.9L193.9,313.8z"/>
	<path d="M208.1,342.9c-2.1,2.6-4.9,3.8-8.1,4.2c-0.5,0.1-0.9-0.1-1-0.7l-0.1,0.1c2.4-0.3,4.6-1.2,6.7-2.6
		C206.3,343.3,207.1,342.7,208.1,342.9L208.1,342.9z"/>
	<path d="M183.9,299.5c0.4,2.7-0.8,4.9-1.6,7.4c-0.2-0.3-0.4-0.4-0.3-0.4C182.3,304.1,182.9,301.8,183.9,299.5L183.9,299.5z"/>
	<path d="M181.5,324.8c-0.6-1.8-0.7-3.2-0.5-4.9C182,321.4,182,321.4,181.5,324.8z"/>
	<path d="M180.6,316.2c0-0.8-0.1-1.5-0.1-2.5C181.5,314.6,180.8,315.4,180.6,316.2z"/>
	<path d="M195.5,346.3c-0.7-0.3-1.4-0.5-2.4-0.9C194.4,344.8,195.1,345.3,195.5,346.3z"/>
	<path d="M181.7,309.2c0,0.7,0,1.3,0,2c-0.1,0-0.2,0-0.3,0c0-0.7,0-1.3,0-2C181.4,309.2,181.6,309.2,181.7,309.2z"/>
	<path d="M199,346.3c-0.6,0-1.3,0.1-2.3,0.1C197.8,345.6,198.4,345.8,199,346.3L199,346.3z"/>
	<path d="M201,323.1c0.7,0.9,0.6,1.2-0.7,1.4l0.1,0c0-0.3,0-0.5,0-0.8l-0.1,0.1c0.3-0.3,0.6-0.6,0.8-0.8L201,323.1z"/>
	<path d="M197,307.3c-0.3,0-0.6,0-0.9,0.1c0-0.2,0-0.3,0-0.5c0.3,0.1,0.6,0.1,0.9,0.2C197,307.1,197,307.2,197,307.3z"/>
	<polygon points="194.1,307.8 194.4,307.7 194.4,308 	"/>
	<path d="M200.3,324.4c0.1,0.6-0.2,0.7-0.7,0.7l0.1,0.1C199.6,324.7,199.8,324.4,200.3,324.4L200.3,324.4z"/>
	<path d="M240.4,274.7c-0.7-2.9-0.7-9.9,0-12.6c0.3,0.2,0.8,0.3,0.8,0.5C241.7,266.6,241.6,270.5,240.4,274.7z"/>
	<path d="M237.4,282.8c0-0.4,0-0.7,0-1c0.1,0.3,0.2,0.5,0.2,0.8C237.7,282.6,237.5,282.7,237.4,282.8z"/>
	<path d="M201.6,39.5c0.3,0.1,0.5,0.1,0.3,0C202.1,39.8,201.9,39.6,201.6,39.5L201.6,39.5z"/>
	<path d="M677.6,330.8c0.7,0.6,1.4,1.2,2,1.8c-0.2,0.3-0.3,0.5-0.3,0.5c-1-0.5-2.4-0.3-2.9-1.6c-1-2.8-1.5-5.6-0.6-8.5
		c0-0.1,0.4-0.2,0.7-0.3C677,325.4,676.5,328.3,677.6,330.8z"/>
	<path d="M681.2,338.5c-1.3-0.6-1.2-1.5-1.5-2.7C681.1,336.5,681.3,337.3,681.2,338.5z"/>
	<path d="M692.3,233c-0.1,0.7-0.1,1.4-0.2,2.7C691.4,234.3,691.2,233.5,692.3,233L692.3,233z"/>
	<path d="M696.2,228.7c-0.4,0.2-0.8,0.4-1.1,0.6c0,0-0.2-0.1-0.2-0.2c0.3-0.3,0.7-0.5,1-0.8C695.8,228.3,696,228.4,696.2,228.7z"/>
	<path d="M728.3,243.6c0,0.1-0.1,0.2-0.1,0.3c-0.1-0.1-0.2-0.3-0.2-0.4c0,0,0.1-0.1,0.2-0.2C728.2,243.5,728.3,243.6,728.3,243.6z"
		/>
	<path d="M692.3,233.1c0.1-0.1,0.2-0.2,0.3-0.4c0,0.1,0,0.2,0,0.2C692.5,233,692.4,233,692.3,233.1L692.3,233.1z"/>
	<path d="M525,329.1c-1.6,1.4-3.1,1.2-4.6,0.7c-1.5-0.6-2.6-1.4-2.5-3.5c1.3,0.7,2.4,1.3,3.5,1.8C522.5,328.4,523.7,328.7,525,329.1
		z"/>
	<path d="M499.7,305c1.2-0.6,2-0.1,2.9,0.2c2,0.7,4.2,1.3,6.2,3c-0.5,0.1-0.8,0.3-1,0.3c-1.9-0.7-3.7-1.3-5.5-2.1
		C501.3,306,500.6,305.5,499.7,305z"/>
	<path d="M445.7,308.5c-1.2,0.3-2.2,0.7-3.2,0.8c-0.3,0-0.9-0.3-1-0.7c-0.1-0.3,0.3-0.9,0.6-1C443.3,307.3,444.5,307.2,445.7,308.5z
		"/>
	<path d="M456.1,297.8c-1.4,1.5-2.7,2.4-4.3,2.9c-0.2-0.2-0.3-0.4-0.3-0.4C452.5,299,453.1,298.7,456.1,297.8z"/>
	<path d="M449.5,307.6c0.5,0,1.1,0,1.6,0.1c0,0.1,0,0.2,0,0.3c-0.5,0-1.1,0-1.6,0C449.5,307.8,449.5,307.7,449.5,307.6z"/>
	<path d="M514.4,323.4c0,0.1-0.1,0.2-0.1,0.2c-0.1,0-0.2,0-0.3-0.1c0-0.1,0.1-0.2,0.1-0.2C514.2,323.3,514.3,323.4,514.4,323.4z"/>
	<path d="M495.2,304.7c0.2,0,0.4,0,0.6,0.1c0.1,0,0.2,0.1,0.3,0.1c-0.2,0.1-0.4,0.3-0.5,0.2C495.5,305,495.4,304.8,495.2,304.7
		L495.2,304.7z"/>
	<path d="M491.2,303.5c0,0.1,0,0.1,0.1,0.2c-0.1,0-0.2-0.1-0.3-0.1C491,303.5,491.1,303.5,491.2,303.5z"/>
	<polygon points="495.3,304.6 495.1,304.5 495.2,304.7 	"/>
	<path d="M750.4,235.1c0.7,0.5,1.3,0.9,2,1.4c1.4,1.1,2.8,2.1,4.2,3.2c1.3,1,2.1,2.2,2.3,3.9c1.6,0.4,3.1,0.7,4.6,1.1
		c-1.1,1.9-2.8,0.4-4.1,0.7c-0.3,0.5-0.6,1-0.8,1.5c-1.1-0.4-1-1.4-1.1-2.1c-0.1-1.7-0.9-2.8-2.2-3.8c-1.6-1.2-3.1-2.6-4.6-3.9
		c-0.5-0.5-0.9-1.2-0.2-1.8L750.4,235.1z"/>
	<path d="M771.1,196.7c1,1.8,0.4,3.5,0.8,5.1c1,1.8,2.6,2.9,4.4,3.9c2.3,1.4,4.5,3,6.5,4.8c-0.5,0.6-0.8,0.3-1.2,0.1
		c-0.8-0.5-1.6-1-2.5-1.3c-2.6-1-4.6-2.8-6.9-4.3c-1.1-0.7-1.7-1.6-1.9-2.9c-0.1-1.4-0.2-2.8-0.1-4.2
		C770.3,197.5,770.8,197.2,771.1,196.7z"/>
	<path d="M806.3,185.9c-2.3-0.1-3.1-1.3-3.5-2.8c-1.9-0.3-1.9-0.3-2.7-1.2c0.1-0.2,0.2-0.5,0.4-0.5c1.8-0.5,3.6-1,5.4-1.5
		c0.3-0.1,0.7,0,1,0.1c0.8,0.2,1.5,0.5,2.6,0.8C807.7,182.2,805.8,183.3,806.3,185.9z"/>
	<path d="M798.7,176.8c1.7-2.1,3.8-2,5.7-2.1c2.3-0.1,5.2,1.8,7.4,4.3c-0.1,0.8-0.6,1-1.2,0.7c-1.2-0.6-2.3-1.2-3.3-2
		c-1.8-1.4-3.7-1.8-6-1.1C800.7,176.9,799.9,176.8,798.7,176.8z"/>
	<path d="M761.7,199.7c0.3,0,0.7,0.1,1,0.1c0.1,2.5-0.5,4.8-2.2,7c0-0.8-0.1-1.3,0-1.8c0.4-1.8,0.9-3.6,1.3-5.4L761.7,199.7z"/>
	<path d="M755.7,221.4c-0.1-0.5-0.2-0.9-0.1-1.1c0.1-0.2,0.5-0.3,0.7-0.4c0.1,0.2,0.2,0.4,0.1,0.6
		C756.3,220.7,756.1,220.9,755.7,221.4z"/>
	<path d="M769.4,238.5c-0.4,0.3-0.7,0.6-1,0.8c-0.1,0-0.3-0.2-0.4-0.4c0.3-0.3,0.6-0.6,0.9-0.8C768.9,238.1,769.2,238.3,769.4,238.5
		z"/>
	<path d="M757.1,217.1c0.1,0,0.1,0.1,0.2,0.1c-0.1,0.1-0.2,0.1-0.2,0.2C757.1,217.3,757.1,217.2,757.1,217.1z"/>
	<path d="M750.5,235.2c0.1-0.3,0.1-0.6,0.2-1c0.4,0.6,0.3,0.9-0.3,0.9L750.5,235.2z"/>
	<polygon points="748,231.8 748.1,232 747.9,232 	"/>
	<polygon points="788.1,147.2 787.9,147.1 788.1,147.2 	"/>
	<path d="M752.3,318.5c-1.3-1.4-1.3-1.4-0.7-4.3C753,315.5,752.3,316.9,752.3,318.5z"/>
	<path d="M753.7,326.4c1,1.3,1,2.3,0.6,3.4C753.1,329.1,753.1,328.1,753.7,326.4z"/>
	<path d="M771.3,271.6c-0.3-0.1-0.7-0.2-0.7-0.3c0-0.3,0.1-0.6,0.2-0.9c0.2,0.1,0.6,0.1,0.6,0.3
		C771.4,270.9,771.3,271.2,771.3,271.6z"/>
	<path d="M752.2,322c0.1,0.2,0.1,0.4,0.2,0.6c0,0.1-0.1,0.1-0.2,0.2c-0.1-0.2-0.1-0.4-0.2-0.6C752,322.2,752.1,322.1,752.2,322z"/>
	<path d="M737.2,291.4c0.3-0.3,0.6-0.6,0.9-0.8c0.1,0,0.3,0,0.3,0.1c0.1,0.2,0.1,0.4,0,0.5C738.2,291.4,737.9,291.9,737.2,291.4z"/>
	<path d="M734.6,293.4c0,0.2,0,0.3,0,0.3c-0.3,0.1-0.6,0.2-1,0.2c-0.1,0-0.3-0.2-0.3-0.2c0.1-0.2,0.2-0.4,0.3-0.4
		C733.9,293.3,734.3,293.4,734.6,293.4z"/>
	<path d="M632.8,433c0.1-5.3,2.4-9.7,5.9-13.6c1.2-1.3,2.6-2.4,3.9-3.5c1.4-1.2,3.1-1.6,4.9-1.9c5.3-0.9,8.9,1.9,11.7,5.7
		c5.1,6.9,7.8,14.7,8.3,23.3c0.2,4.3,0.2,8.5-0.7,12.7c-1,4.6-2.7,9-5.4,12.9c-1.8,2.6-4,4.6-6.8,6c-1.3,0.7-2.8,1.1-4.3,1.5
		c-0.7,0.2-1.4,0.1-1.9-0.7l-0.1,0.1c3.5-0.2,6.2-2,9-3.8c0.9-0.6,1.6-1.7,2.3-2.6c5.1-7.5,7.2-15.8,6.6-24.8
		c-0.2-3.5-0.6-7-1.5-10.5c-0.9-3.6-2.3-6.9-4.2-10.1c-1.2-1.9-2.7-3.6-4.3-5.1c-4-3.9-10.6-3.5-14.6-0.3c-4.3,3.5-7,7.9-8.1,13.2
		C633.4,432,633.4,432.7,632.8,433L632.8,433z"/>
	<path d="M649,454.1c-0.3,0.3-0.5,0.8-0.8,0.9c-3.7,1.2-6.5-1.2-7.4-3.8c-1.4-4.2-1.4-8.5,1.3-12.4c0.1-0.1,0.4-0.2,0.6-0.2
		l-0.1-0.1c0.3,0.5,0.6,0.4,0.8,0l-0.1,0.1c0.5-0.5,1-1,1.5-1.6l-0.1,0.1c4.5-0.3,6.4,1.2,7.4,5.5c0.7,3.4,0,6.5-1.8,9.4l0.1-0.1
		c-0.3,0.3-0.5,0.6-0.8,0.8l0.1-0.1c-0.3,0.3-0.5,0.6-0.8,0.8l0.1-0.1c-0.5,0.1-1.1,0.2-1.6,0.3c0,0.1,0,0.2,0,0.3
		C648,454.1,648.6,454.2,649,454.1L649,454.1z M642.1,449.8c0.1,0.6-0.1,1.3,0.6,1.6c0.2,1.2,0.6,2.3,2.1,2c0.1,0.5,0.4,0.8,0.9,0.3
		c-0.4-0.1-0.7-0.2-1-0.2c-0.7-0.7-1.4-1.4-2.1-2.1C642.4,450.9,642.2,450.4,642.1,449.8c-0.2-0.4-0.3-0.8-0.4-1.2
		c-0.1,0-0.1,0.1-0.2,0.1C641.7,449.1,641.9,449.4,642.1,449.8z M644.2,441.4c-1.1,1.5-1.3,3.2-1.3,4.9c0.1,1.1,0.4,2.3,0.9,3.4
		c0.5,1.2,1.4,2.2,2.8,2.3c1.5,0.1,2.3-0.9,3.1-2c0.3-0.4,0.5-0.8,0.6-1.3c0.5-2.4,0.7-4.9-0.2-7.2c-0.4-1.1-1.1-2.1-2.3-2.5
		c-0.5-0.2-1.2-0.3-1.7-0.1c-1.1,0.5-2,1.2-2.1,2.6L644.2,441.4z"/>
	<path d="M631.1,448.9c0.7,1.5,0.4,2.8,0.6,4.6C630.5,451.5,630.5,451.5,631.1,448.9z"/>
	<path d="M631,441.1c-0.3-1.2-0.3-2.1,0.5-3C631.9,439.1,631.5,439.9,631,441.1z"/>
	<path d="M650.4,452.1c0.3,0.2,0.6,0.3,0.9,0.5c-0.5,1-1.1,1.8-2.4,1.6l0.1,0.1c0-0.3,0-0.5,0-0.8l-0.1,0.1c0.3-0.3,0.5-0.6,0.8-0.8
		l-0.1,0.1C650,452.6,650.3,452.3,650.4,452.1L650.4,452.1z"/>
	<path d="M632.7,432.9c0.1,1.2,0,2.3-1.1,3.4C631.7,434.9,631.6,433.7,632.7,432.9L632.7,432.9z"/>
	<path d="M630.2,445.1c0-0.7,0-1.5,0-2.2c0.1,0,0.2,0,0.3,0c0,0.7,0,1.5,0,2.2C630.4,445.1,630.3,445.1,630.2,445.1z"/>
	<path d="M648.4,475.4c-1.1-0.1-2.2-0.1-3.3-0.2c-0.1,0-0.2-0.3-0.3-0.5l-0.1,0.1c0.8,0,1.6,0,2.4,0.1
		C647.6,474.9,648,475.3,648.4,475.4L648.4,475.4z"/>
	<path d="M644.9,474.7c-0.6,0-1.1,0-1.9,0C643.9,474.1,643.9,474.1,644.9,474.7L644.9,474.7z"/>
	<path d="M646.3,435.9c0.1,0.1,0.2,0.2,0.4,0.3c-0.2,0.1-0.4,0.1-0.6,0.2c-0.1,0-0.2-0.1-0.3-0.2C646,436.1,646.2,436,646.3,435.9z"
		/>
	<path d="M644.9,437.1c-0.2,0-0.4,0-0.7,0c-0.1,0-0.2-0.1-0.3-0.1c0.2-0.1,0.4-0.3,0.5-0.3c0.2,0.1,0.3,0.3,0.4,0.5L644.9,437.1z"/>
	<path d="M642.7,438.7c0.2,0,0.5,0,0.7,0l0.1-0.1C643.2,438.6,642.9,438.6,642.7,438.7L642.7,438.7z"/>
	<path d="M641.3,472.6c0.1,0.1,0.2,0.2,0.2,0.3C641.5,472.8,641.5,472.7,641.3,472.6L641.3,472.6z"/>
	<polygon points="641.4,472.6 641.1,472.5 641.3,472.6 	"/>
	<path d="M646,536.4c0.3,4.7-1.1,8.4-2.2,12.1c-0.2,0.7-0.5,1.6-1.5,1.8c-0.1-0.2-0.4-0.4-0.4-0.5c0.9-3.5,1.8-7.1,2.7-10.6
		C644.9,538.4,645.3,537.8,646,536.4z"/>
	<path d="M648.7,519.7c0.1,0.3,0.2,0.4,0.2,0.5c0.1,0.5,0.1,1-0.5,1.1c-0.1,0-0.5-0.2-0.5-0.3c0-0.3,0.1-0.6,0.3-0.9
		C648.3,519.9,648.4,519.9,648.7,519.7z"/>
	<path d="M648,524.8c0,0.4,0,0.8,0,1.1c-0.1,0-0.2,0-0.3,0c0-0.4,0-0.8,0-1.1C647.9,524.8,647.9,524.8,648,524.8z"/>
	<path d="M646.3,532.4c0-0.4,0.1-0.8,0.1-1.2c0.1,0,0.3,0,0.4,0c0,0.4,0,0.8-0.1,1.2C646.6,532.4,646.5,532.4,646.3,532.4z"/>
	<path d="M770.3,152.2c-0.9-0.2-1.8-0.4-2-1.5l-0.1,0.1C769,151.1,769.9,151.3,770.3,152.2L770.3,152.2z"/>
	<path d="M788.7,150.9c0.6-0.1,1.1,0,1.4,0.6l0.1-0.1C789.6,151.5,789.1,151.4,788.7,150.9L788.7,150.9z"/>
	<path d="M791.6,151.4c0,0.3,0,0.5,0,0.8c-0.6-0.1-1.3,0-1.4-0.8l-0.1,0.1C790.6,151.5,791.1,151.5,791.6,151.4z"/>
	<path d="M770.2,152.3c0.3,0.1,0.5,0.2,0.8,0.3c-0.1,0-0.2,0.1-0.3,0.1C770.6,152.5,770.4,152.3,770.2,152.3L770.2,152.3z"/>
	<path d="M768.3,150.6c-0.3,0-0.5,0-0.3,0C767.8,150.5,768,150.6,768.3,150.6L768.3,150.6z"/>
	<path d="M788.8,150.8c-0.1-0.1-0.2-0.1-0.3-0.2C788.5,150.7,788.6,150.8,788.8,150.8L788.8,150.8z"/>
	<polygon points="786,151.4 785.8,151.4 785.9,151.5 	"/>
	<path d="M773.9,167c-0.6,0.1-1.1-0.1-1.5-0.6l-0.1,0.1C772.9,166.3,773.5,166.4,773.9,167L773.9,167z"/>
	<polygon points="773.8,167.1 774,167.3 773.9,167 	"/>
	<path d="M193.8,314c0.4-0.6,0.7-1.2,1.1-1.8c0.2-0.1,0.4-0.3,0.6-0.3c2.6-0.2,3.8,0.7,3.9,3.1c0.1,1.9-0.7,3.4-1.7,4.7
		c-0.8,0.1-0.8-0.5-0.7-0.9c0.1-1.2,0.4-2.3,0.5-3.5c0.1-1-0.2-1.2-1.9-1.6c-0.3,1-0.7,2.1-1.1,3.3c-0.7-0.4-0.4-1-0.5-1.5
		c0-0.6-0.1-1.2-0.1-1.7L193.8,314z"/>
	<path d="M644.1,441.5c0.4-0.2,0.8-0.5,1.3-0.6c2.3-0.5,3.6,0.5,3.9,2.8c0.2,1.9-0.3,3.7-1.7,5c-0.7-0.2-0.6-0.7-0.5-1.1
		c0.1-1,0.4-2.1,0.5-3.1c0-0.4-0.1-1-0.4-1.3c-0.4-0.3-1-0.4-1.7-0.6c-0.3,1.2-0.5,2.2-0.8,3.3c-0.2-0.1-0.4-0.2-0.4-0.3
		c0-1.4,0-2.8,0.1-4.2L644.1,441.5z"/>
</g>
</svg>
