<?xml version="1.0" encoding="utf-8"?>
<!-- Generator: Adobe Illustrator 20.0.0, SVG Export Plug-In . SVG Version: 6.00 Build 0)  -->
<svg version="1.2" baseProfile="tiny" id="Layer_2" xmlns="http://www.w3.org/2000/svg" xmlns:xlink="http://www.w3.org/1999/xlink"
	 x="0px" y="0px" viewBox="0 0 900 600" xml:space="preserve">
<g>
	<path d="M641.5,259.2c-0.5,0-1,0.1-1.5-0.1c-2.6-1.1-5.3-1.3-8.2-1.6c-1.6,2-2.4,4.5-4.3,7c0.3-3,2-4.9,2.6-7.1
		c-1.1-1.1-2.6-1.2-3.9-1.8c-1.9,2.1-3.7,4.1-5.3,6.3c-0.6,0.8-0.9,1.8-1,2.8c-0.5,3.1-0.9,6.2-1.3,9.3c-0.2,1.6-0.2,3.2-0.2,4.9
		c0,1.6,0.3,3.2-0.6,4.7c-0.4,0.7-0.3,1.7-0.3,2.6c0,3.9,0,7.8-0.1,11.6c0,2.2-0.2,4.5-0.4,6.7c-0.4,7,0.8,13.7,3.6,20.1
		c0.1,0.2,0.4,0.3,0.6,0.5c0.8-0.4,1.8-0.8,2.6-1.4c1.7-1.1,3.6-1.7,5.6-2c8.9-1.1,16.6,1,22.3,8.5c3.2,4.3,5.4,9,6.9,14.1
		c1.4,4.8,2,9.8,2,14.8c0,5.5-0.6,11-2,16.4c-1.2,4.5-3.3,8.6-6,12.4c-0.4,0.6-0.9,1.2-1.3,1.8c-0.1,0.1,0,0.2,0,0.4
		c6.2,3.4,13,3.8,20,4.3c1.2-1.5,1.7-3.3,2.1-5.1c0.9-3.5,1.6-7.1,2.3-10.6c0.5-2.4,1.2-4.5,2.4-6.7c1.2-2.3,2.1-4.8,3-7.3
		c2.1-5.8,4.1-11.6,6.1-17.3c0.3-0.9,0.7-1.9,1.2-2.8c0.9-1.7,1.2-3.5,1.2-5.4c0-2.4,0.2-4.7,1.4-6.8l-0.1-0.1c0,3.4-1,6.7-0.6,10.1
		c0.1,0.4-0.2,1-0.4,1.4c-2.7,5.7-4.4,11.7-6.4,17.6c-0.8,2.3-1.4,4.6-2.2,6.8c-0.6,1.6-1.3,3.3-2.2,4.8c-1,1.8-1.7,3.6-1.8,5.7
		c-0.1,1.5-0.3,3-0.4,4.5c-0.1,3.9-0.6,7.7-2,11.4c-0.2,0.5-0.1,1.2-0.2,1.8c-2.4,0-4.9-0.1-7.4-0.1c-6.2-0.1-12.1-1.5-17.6-4.7
		c-0.9,0.7-1.8,1.4-2.6,2.1c0.1,2.9,0.2,2.9-1.3,5c-3.8,5.5-8.4,10.2-14.8,13.1c-0.6,1.1-1.2,2.2-1.7,3.3c-1.1,2.6-2.9,4.7-5.2,6.3
		c-2.4,1.8-5,3.4-7.5,5c-0.5,0.3-1.1,0.5-1.7,0.7c-3,0.9-5.8,2.3-7.5,5.1c-0.1,0.1-0.2,0.2-0.3,0.3c-4.5,3.6-7.3,8.5-10.4,13.3
		c-6.6,10.1-13.7,19.7-20.9,29.4c-2.5,3.4-5.5,6.5-8.1,9.9c-1.4,1.8-2.7,3.6-3.9,5.5c-1.1,1.7-2,3.5-2.9,5.3
		c-1.7,3.2-3.2,6.6-4,10.1c-1,4.7-2.8,9.1-4.8,13.4c-0.5,1-0.9,2-1.4,3.2c0.7,0.6,1.4,1.1,2.1,1.8c-0.2,0.9-0.4,1.8-0.5,2.8
		c-0.1,0.9,0.1,1.8,0.1,2.6c-0.1,4.2-0.2,8.5-1.9,12.5c-0.7,1.7-1,3.6-1.4,5.4c-0.5,2-0.4,4.2-2.2,5.8c-0.6,0.5-0.4,1.9-0.5,2.6
		c1.9,2.3,4,3.5,6.5,4.1c1,0.3,1.9,0.6,2.8,1c0.4,0.2,0.9,0.8,0.8,1.1c-0.4,1.3,0.5,2.1,1.1,3c0.9,1.5,1,3.1,0.7,4.7
		c-0.3,2.3-1.7,3.4-4,3.7c-1.4,0.2-2.7,0.5-4,0.7c-1.8,0.3-3.7,0.6-5.6,0.9c-1,0.2-2,0.3-2.9,0.5c-6.9,1.8-13.7,1-20.3-1.3
		c-1.1-0.4-2.1-0.8-3.2-1.1c-1.5-0.3-2.5-1.1-3.3-2.3c-1.3-1.8-2.6-3.7-3.6-5.7c-0.5-0.9-0.5-2.2-0.5-3.3c-0.1-3.9,0.8-7.7,2.2-11.4
		c1.1-2.7,1.1-5.3-0.2-8.1c-2.7-0.4-4.5-2.4-6.1-4.5c-2.2-2.9-4.3-5.8-5.9-9.1c-1.2-2.6-1.7-5.2-1.4-8c0.5-4.4,1.3-8.7,2.8-12.8
		c1.3-1,2.9-0.8,4.4-0.8c2,0.1,3.9-0.2,5.8-1.1c2.3-1,4.6-1.9,6.8-3.2c1.2-0.7,2.5-1.1,3.8-1.7c0.6-0.3,1.4-0.6,1.8-1.2
		c1.7-2.3,4-2.9,6.7-2.4c0.5,0.1,1,0.1,1.5,0.2c1.8-2.2,3.3-4.4,4.1-7.1c1-3.3,2.3-6.6,3.5-9.9c2.2-5.9,4-11.9,5.5-17.9
		c0.7-3,1.6-6,2.6-9c0.9-2.8,1.5-5.6,1.9-8.4c1.8-12.1,7.5-21.9,17.7-28.8c1.1-0.8,2.3-1.5,3.4-2.3c3.8-2.6,7.6-5.2,11-8.5
		c3-2.8,6.3-5.3,9.6-7.9c1-0.8,1.4-1.7,1.4-3.1c-0.7-0.2-1.4-0.5-2.1-0.4c-1.7,0.2-3.5,0.5-5.2,0.9c-5.9,1.3-11.1,0-15.8-3.8
		c-3.5-2.8-5.9-6.5-7.8-10.5c-1.8-3.6-3-7.5-3.5-11.4c-0.6-4.3-1.5-8.6-0.7-13.1c0.5-2.9,0.6-6,1-8.9c0.8-4.9,2.8-9.3,5.4-13.5
		c1-1.7,2.2-3.3,4.4-3.7c-0.5,0.7-0.9,1.5-1.4,2.1c-2.1,2.7-3.8,5.6-5,8.8c-2.4,6.6-3.6,13.5-3.3,20.6c0.1,1.5,0.2,3,0.4,4.5
		c0.9,6.5,2.8,12.7,6.4,18.3c2.1,3.2,4.7,5.9,8.1,7.7c2.2,1.2,4.5,1.8,7.5,1.8c-0.8-0.5-1.1-0.9-1.6-1.1c-2.7-1.4-4.9-3.4-6.9-5.7
		c-5.1-6.2-7.5-13.5-8.5-21.3c-0.8-6-0.5-12,0.6-17.9c1.5-8.2,4.6-15.6,11.2-21.1c0.3-0.3,0.5-0.8,0.8-1.2c0,0,0.4-0.3,0.1,0.1
		c-2.1,0.1-3.7,1.3-5.3,2.4c-1,0.7-2,1.4-3,2.1c0.3-1.6,1.3-2.6,2.5-3.5c1.9-1.5,4-2.5,6.3-3.3c1-0.4,2.1-0.6,3.3-0.3
		c1.4,0.4,3,0.3,4.5,0.2c3.3-0.1,6.1,0.9,8.7,2.9c0.3,0.2,0.6,0.4,1,0.6c0.1,0,0.2,0,0.4,0c0.1-0.3,0.2-0.7,0.2-1
		c-0.5-7-0.6-14-2.1-20.9c-1.2-5.4-1.9-10.8-2.9-16.3c-0.2-1.4-0.4-2.8-0.8-4c-2.4-6.9-2.3-14-1.9-21.2c0.2-3.2,0.5-6.5,0.2-9.8
		c-0.4-3.8-0.4-7.4,0.2-11.2c0.3-2,0.1-4,0.2-6c0.1-1.6-0.5-3.2,0.6-4.7c0.2-0.3,0.1-0.7,0-1.1c-0.7-5-0.2-10,0.1-15
		c0.3-5.2,0.1-10.2-1.6-15.2c-1.7-4.9-2-10-1.6-15.2c0.2-3.2-0.1-6.5,0.7-9.7c0.7-3.2,1.6-6.3,2.9-9.3c0.5-1.2,0.9-2.4,2.1-2.6
		c0.4-3.9,0.7-7.6,1.1-11.2c0.2-1.9,0.6-3.7,1-5.5c0.4-2.2,0.9-4.4,1.2-6.6c0.2-1.8,0.7-3.4,1.5-5c1.5-2.8,3.5-5.2,5.6-7.5
		c3-3.2,6.7-5.2,10.5-7.1c0.9-0.5,1.8-0.9,2.2-1.9c1.1-2.3,3-4,4.9-5.6c1.8-1.6,3.5-3.2,5.4-4.7c1.7-1.3,3.4-2.5,5.2-3.7
		c3.7-2.6,7.5-5,11-7.8c1.9-1.5,3.2-3.5,3.3-6.1c0.1-1.3,0.1-2.5,0.2-3.8c0.1-1.6-0.2-3.4,0.4-4.8c1.8-4.1-0.4-7.8-0.9-11.7
		c-0.2-1.6-0.9-3.1-1.6-4.6c-0.8-1.6-1.4-3.1-0.8-5c0.4-1.1-0.2-2.1-0.8-3.2c-2.9-4.7-3.4-9.6-1.2-14.7c0.3-0.7,0.4-1.4,0.5-2.2
		c0.3-2.1,0.1-4.3,1.9-5.9c0.2-1.3,0.4-2.6,0.7-4.1c0.5,0.1,1.3,0.1,2.5,0.3c-0.7,1.2-1.3,2-1.8,2.9c1.2,0.5,1.5-0.5,2-0.8
		c1.4-0.8,2.8-1.2,4.2-0.1c0.2,0.1,0.5,0.1,0.7,0.1c0.8-0.5,1.3-1.1,0.6-2.3c-0.8,0.2-1.6,0.4-2.7,0.6c-0.4-0.6-0.9-1.3-1.3-1.9
		c-1.3,0.2-2.2,0.3-3.1,0.4c-0.1-0.4-0.3-0.7-0.2-0.8c0.3-0.7,0.9-1.4,0.8-2c-0.2-1.3,0.8-1.7,1.4-2.5c-0.2-1.4-2.2-1.7-2-3.3
		c0.2-0.2,0.4-0.4,0.6-0.4c0.7,0,1.5,0,2.1,0c1.2,0.9,2.2,1.6,3.1,2.3c3.7-0.3,6.5-1.9,8.6-4.8c0.3-0.5,0.9-0.6,1.3-0.3
		c0.2,0.2,0.4,0.6,0.4,1c0,0.3-0.1,0.7-0.1,1c0.9,0.5,1.5,0.1,2-0.5c0.6-0.6,1-1.4,1.4-2.1c4-0.3,7.8-0.7,11.7-0.9
		c0.7,0,1.3,0.5,1.9,0.7c2.3-0.8,4.5-1.7,6.8-2.3c0.9-0.3,2,0,3,0c0,0.7,0.1,1.3,0.1,2c1.8-1,2.9-2.5,4-3.8c1-0.1,1.3,0.4,1.4,1
		c0.1,1.7,0.1,3.4,0.2,5.2c0.8,0.4,0.9-0.5,1.4-0.7c1-0.4,2-0.9,3.1-1.1c0.3-0.1,0.8,0.5,1.1,0.8c0.1,0.2,0,0.8-0.3,1
		c-1,0.7-2,1.4-3.2,2.2c0.9,0.7,1.7,0.1,2.5,0.1c0.7,0,1.5,0,2.4,0c0.1,1.4,0.1,2.7,0.2,4c-2.1,2.4-5.5,3.2-7.3,6.4
		c0.5,3,1,6.4,1.5,9.7c0.1,0.6,0.2,1.3,0.6,1.8c1.2,1.5,1,3.1,0.6,4.7c-0.4,1.9-0.8,3.9-1.3,5.9c-2.2,0.6-4.1,2-6.6,0.8
		c-0.2,1.5-0.4,2.7-0.6,3.9c-2.4-3.8-0.2-7.7,3.3-9.2c1.1-0.5,2.3-1.1,3.6-1.7c0.2-0.7,0.5-1.5,0.8-2.5c-3-3.5-2.5-8.2-3.7-12.4
		c-1.7,0.5-3.2,1.1-4.8,1.2c-1.5,0.1-3-0.4-4.5-0.5c-0.5-0.1-1,0.1-1.5,0.1c-0.5,0.1-1.1,0.4-1.4,0.3c-2.5-0.9-4.9,0.1-7.3,0.5
		c-0.1,0.6-0.1,1.1-0.2,1.7c0,0.1-0.2,0.1-0.5,0.3c-1-2.6-3.4-3.3-5.9-4.4c-0.7,0.7-1.4,1.5-2.3,2.4c1.6,0,3,0,4.5,0
		c0.6,1.1,1.2,2.2,1.8,3.3c-0.1,0.9-0.7,1.4-1.5,1.5c-1.1,0.1-0.7,1.1-1.2,1.4c-0.5,0.3-1.3,0-1.8,0.2c-0.5,0.2-1.1,0.7-1.4,1.2
		c-0.4,0.6-0.6,1.4-0.8,2.1c-0.5,1.8-1.3,3.5-2.6,5c-1.2,1.4-1.7,3-2.1,4.7c-0.6,2.6-1.5,5.1-2.3,7.5c-0.3,0.8-0.5,1.7-1.7,2
		c-0.1-0.8-0.2-1.6-0.4-2.3c-0.3-0.9-0.8-1.8-1.2-2.8c-0.3-0.8-0.4-1.7-0.8-2.5c-0.2-0.6-0.5-1.2-0.9-1.6c-0.6-0.6-1.3-0.8-2,0
		c-0.2,2.1,1.7,2.8,3,4.2c-0.1,1.7-0.2,3.5-0.4,5.5c-0.8,0.2-1.6,0.5-2.6,0.7c0.4,0.8,0.7,1.5,1.1,2.2c0.8,0.1,1.5,0.1,2.2,0.2
		c0,0.4,0.2,0.7,0.1,0.8c-1.2,1.4-1.7,3-1.9,4.8c-0.1,1.1-0.5,2.2-0.6,3.3c-0.3,3.2-0.6,6.4-1.5,9.5c-0.7,2.3-0.5,5-0.6,7.2
		c-0.9,1-1.8,1.7-2.3,2.7c-1.5,3.1-4,5.4-6.5,7.7c-0.6,0.6-1.3,1.2-1.9,1.7c9.4,8.8,17.2,18.7,24.5,29.1c1.8,2.6,3.4,5.2,5.1,7.9
		c4.1,6.4,9.3,11.8,16.1,15.5c2.1,1.1,4,2.6,6.5,3.3c1.2-4.1-0.2-7.9-0.8-11.8c2.3,3.5,2.4,7.4,2.5,11.2c0.9,0.8,1.7,0.6,2.3,0.2
		c3.4-2,5.8-4.8,6.1-8.9c0.4-4.9-0.3-9.5-3.5-13.5c-0.8-1-1.2-2.2-1.6-3.4c-0.9-2.9-1.8-5.7-2.6-8.6c-0.5-1.7-1.2-3.3-2.5-4.5
		c-2.1-2-3.8-4.3-5.5-6.6c-1.2-1.5-1.7-3-1.6-4.8c0.3-3.6,0.6-7.2,0.9-10.9c0.1-1.5,0-3,0-4.5c-3.2-1.2-6.5-1.7-9.9-3
		c0.6-0.4,0.9-0.8,1.1-0.8c3.5,0.8,7,1.6,11.3,2.7c-0.6,0-0.4,0-0.1,0c3.3-0.6,4.7-3,5.5-5.9c0.6-2.3,1.4-4.5,2-6.8
		c0.3-1,0.5-1.9,0.5-2.9c0.1-2,0.1-4,0.1-6c0-2.6,0.1-5.3,1.1-7.8c0.4-1,0.4-1.9,0.3-2.9c-0.1-1.8-0.2-3.7-0.3-5.9
		c0.5,0.5,0.9,0.6,1,0.9c0.5,2.2,1.1,4.4,1.4,6.6c0.1,1.1-0.1,2.3-0.5,3.3c-0.8,1.9-1.1,3.8-1.1,5.9c0,1.8-0.1,3.5-0.3,5.2
		c-0.2,1.6-0.5,3.2-1,4.8c-0.8,3-1.9,6-2.6,9c-0.4,1.8-1.4,2.9-3,3.6c-0.8,0.3-1.6,0.6-2.5,1c-0.1,1.1-0.1,2.1-0.2,3.1
		c-0.1,2,0,4-0.6,6c-0.3,1-0.1,2.2-0.2,3.4c-0.1,2-0.1,4-0.2,6.3c0.8,1,2.1,1.6,3.4,2.3c2,1.3,3.9,2.5,5,4.9c0.7,1.5,2.2,2.7,3.3,4
		c0.9,1,2.1,1.7,2.6,3.1c0.2,0.6,1.1,1,1.7,1.4c2.2,1.7,4.5,3.2,6.5,5c2.7,2.3,4.1,5.3,4.6,8.8c0.4,2.7,1,5.4,1.5,8.1
		c0.1,0.4,0.3,0.7,0.2,1.1c-0.4,4.5,0.9,9,0.9,13.5c0.1,3.8-0.3,7.5-1.6,11.1c-0.7,1.8-0.7,3.6-0.2,5.5c1.6,5.6,1.9,11.4,2.2,17.1
		c0.2,3.5,0.2,7,0.4,10.5c0.1,1.9,0.2,3.8,0.5,5.6c0.1,0.7,0.4,1.4,0.8,2c3.5,4.7,5.9,9.9,8,15.3c1.4,3.6,2.2,7.4,1.7,11.4
		c-0.2,1.7,0.2,3.5,0.4,5.2c1.3,9.9,2.8,19.9,4,29.8c0.4,3.4,0.6,6.7,0.7,10.1c0.3,5.2,1.8,10,3.7,14.9c1.6,4.2,3.2,8.4,5.2,12.4
		c-0.2,2.2,1.4,3.3,2.5,4.8c1.3,2,2.4,4.1,3.4,6.2c0.3,0.6,0.3,1.6,0,2.2c-1.3,2.5-1.1,5.1-1.2,7.7c0,1,0.1,2,0,3
		c-0.1,1.4-0.4,2.8-1.4,3.8c-2.1,2.4-4.3,4.9-6.7,7.5c-0.2,3.4-0.2,7.2-0.1,10.9c0,1.1,0.1,2.3-0.1,3.4c-0.7,5.2-1.5,10.4-2.3,15.6
		c-0.2,1.4-0.2,2.9-0.8,4c-1.1,2.2-0.7,4.3-0.3,6.6c0.7,3.8,1.3,7.7,1.9,11.5c0.2,1.6,0,3.2-0.3,4.8c-0.8,4.1-1.2,8.2-1.7,12.3
		c-0.1,1.1,0,2.3-0.4,3.3c-1.1,3-0.6,5.9-0.2,8.9c0.9,7,1.8,13.9,2.6,20.9c0.2,2,0.6,4,0.3,6c-0.4,3-1,5.9-1,8.9
		c-2.6,9.8-2.6,19.9-2.9,29.9c-0.2,8,0.2,16,0.5,24c0.1,3.4-0.2,6.7-1.3,10c0.6,0.3,1.3,0.6,2,0.8c1.6,0.6,2.5,1.7,3.2,3.3
		c1,2.4,2.7,4.5,4.1,6.7c0.8,1.1,1.8,2.1,2.7,3.2c1.8,2.1,1.8,2.1,1.4,5c4.1,3.6,8.3,7.3,12.4,10.9c0.7,0.6,1.4,1,2.3,1.2
		c2,0.4,3.9,1,5.8,1.5c1.3,0.3,2.7,0.7,3.8,1c1.6,2.5,3.1,4.7,4.6,7c1.2,1.8,1.9,3.8,2,6c0.1,1,0.2,2,0.3,3.2
		c-2.3,1.5-4.6,3.2-7.5,3.7c-4.5,0.8-8.9,1.2-13.5,1c-0.5,0-1.1,0.1-1.5-0.1c-2.3-1.1-4.7-0.8-7-0.7c-7.3,0.4-14.2-1.3-20.8-4.2
		c-2.2-1-4.3-1.3-6.6-0.6c-0.6,0.2-1.2,0.2-1.9,0.2c-5-0.4-10-0.3-15-1.4c-3.2-0.7-6.3-1.5-9.1-3.4c1.1-3.4,2.3-6.7,3.4-10
		c0.7-2,0.7-4.1,0.4-6.3c-1-6.5,0.4-12.6,3.4-18.7c0.9,0.6,1.5,1.2,2.2,1.4c0.8,0.2,1.7,0.1,2.6,0.1c0.7-1.2-0.5-2.1-0.3-3.2
		c0.1-1.1,0.1-2.3,0.1-3.4c0-4.4-0.1-8.8-0.1-13.2c0-1-0.2-2.1,0.1-3c0.6-1.9,0.2-3.7-0.1-5.6c-1.4-7.5-2.1-15.1-2.7-22.8
		c-0.1-1.8-0.6-3.4-1.4-5c-2.3-4.9-4.4-9.8-6.6-14.7c-0.9-2.1-1.4-4.3-1.4-6.6c0.1-3.4,0-6.8,0.4-10.1c0.9-9.6,2.3-19.2,4.6-28.5
		c0.5-2.1,0.5-4.1-0.1-6.2c-0.9-3-1.3-6.1-1.7-9.2c-0.6-4.4-1.8-8.6-2.9-12.8c-0.3-1.1-0.8-2.1-1.4-3c-1.4-2-3.1-3.9-4.5-6
		c-1.4-2-2.7-4.2-4-6.4c-0.8-1.1-3.4,0.4-3-2.5c3.4-0.7,6.5-2.8,10.3-2.7c0.7,0,1.5-0.2,2.1-0.5c1.5-0.8,3.1-0.9,4.7-1
		c7-0.1,14-0.4,21-0.4c4.9,0,9.8,0.1,14.9,0.2c0.2-0.5,0.4-1.2,0.6-1.9c0.6-2.8,1.2-5.6,1.7-8.5c0.2-0.9,0.2-1.7,0.2-2.6
		c0.1-3.8,0.1-7.5,0.1-11.3c0-2.3-0.2-4.5-0.7-6.7c-0.9-3.9-1.6-7.9-2.3-11.8c-0.4-2.1-1-4.1-2-6c-2.3-4.4-3.5-9.1-3.3-14.1
		c0.1-1.8-0.5-3.7-0.9-5.5c-0.9-3.6-2-7.3-3-10.9c-0.5-1.7-0.5-3.5-1.9-4.8c-2.7-7.7-6.7-14.9-8.3-22.9c-0.5-2.5-1.8-4.1-4-5
		c-2.1-0.8-4-2-6.3-2.1c-2.1,0-4.2-0.2-6.3,0.5c-2.7,0.8-9.4,0.5-12.2-0.1c0.1-2.2,0.2-4.4,0.3-6.6c0.8,0,1,0.4,1.1,1
		c0.2,1.6-0.4,3.2,0.2,4.8c1.6,0.3,1.6,0.3,2.9-0.2c-0.2-2.2-0.3-4.4-0.5-6.8c-2.1-0.9-4.3-0.8-6.6-0.8c-2.2,0-4.4-0.2-6.9-0.4
		c0.1,1.2,0.2,2.3,0.3,3.5c-1.1-1-1.1-1-1.3-3.7c-0.5-0.2-1-0.4-1.5-0.6c-0.2,0.3-0.5,0.5-0.5,0.7c0,1.9,0,3.8,0,5.6
		c0,0.4-0.2,0.9-0.5,1.7c-1.3-2.9-0.3-5.6-0.7-8.3c-2.6-1-5.3-2-8-3c-1-0.4-1.1,0.6-1.5,1.3c-1.8-0.1-3.6-0.2-5.5-0.3
		c-1.1,1.7-0.1,3.6-0.8,5.5c-0.4-0.7-0.8-1.1-0.8-1.6c-0.1-1.1-0.1-2.2-0.1-3.4c0-0.4-0.3-0.5-1.7-0.6c0.2,1.6,0.4,3.2,0.6,5
		c-1.7-1.4-1.1-3.3-1.8-5.1c-0.5-0.1-1.2-0.2-2-0.4c0,2.1,0,3.9,0,6c-1.8-1.9-1-4-1.4-6.1c-0.4-0.1-1-0.3-1.7-0.5
		c-0.1,1.1-0.2,1.9-0.2,2.8c-0.1,0.8-0.2,1.7-0.7,2.5c-0.1-1.7-0.2-3.4-0.3-5.1c-1.5-1.2-3.2-0.8-4.7-1.4c-1.3,1.4,0,3-0.8,4.6
		c-0.4-0.6-0.8-1-0.9-1.5c-0.2-1.2-0.3-2.4-0.5-3.8c-1.4-0.6-2.7-1.3-4.5-1.5c0,1.7,0,3.3,0,5.5c-0.7-0.7-1.2-1-1.3-1.3
		c-0.2-1.1-0.1-2.2-0.2-3.4c0-0.6-0.1-1.2-0.2-1.7c-0.9-0.1-1,0.3-1,0.8c0.1,0.9,0.3,1.7,0.3,2.6c0,0.4-0.5,0.7-1,1.4
		c-0.2-1.6-0.3-2.7-0.4-4c-0.3,0.1-0.6,0.2-1,0.4c-0.6-0.2-0.3-0.7-0.4-1.1c-0.1-0.5-0.1-0.9-0.3-1.8c-1.5,2.7-0.6,5.3-1.2,7.7
		c1.4,1.2,3.1,1.3,4.6,1.8c2.4,0.7,4.8,1.3,7.3,1.9c1.2,0.3,2.4,0.8,3.1,1.9L641.5,259.2z M680.6,26.2c-0.2,0.1-0.4,0.2-0.6,0.2
		c0.1,0.1,0.3,0.2,0.4,0.3C680.4,26.5,680.5,26.3,680.6,26.2c0-0.1,0.2,0,0.2-0.1c0.1,0,0.1-0.2,0.1-0.2
		C680.8,25.9,680.7,26.1,680.6,26.2z M651.3,45.8c-0.2,0.1-0.3,0.3-0.5,0.4c-0.1,0.1,0,0.2,0,0.3c0.1-0.1,0.3-0.1,0.3-0.2
		C651.2,46.1,651.2,45.9,651.3,45.8c0-0.2,0-0.2,0.1-0.3C651.4,45.6,651.3,45.7,651.3,45.8z M741.5,555.6c0.6,0,1.3,0,2.7,0
		C742.7,554.8,742.1,554.7,741.5,555.6c-0.2,0.2-0.5,0.2-0.3,0.2C741,556,741.3,555.8,741.5,555.6z M708.4,142
		c0-0.1-0.1-0.2-0.1-0.3c0,0-0.1,0-0.2-0.1C708.3,141.8,708.4,141.8,708.4,142c0,0.9,0.6,1.6,1.5,2.9
		C709.9,143.1,709.4,142.4,708.4,142z M656.5,26.1c0.7-0.1,1.5,0,2.1-0.3c0.4-0.2,1.1-0.7,0.5-1.5C658.1,24.5,657.3,25.3,656.5,26.1
		l-0.1,0.2C656.4,26.2,656.5,26.1,656.5,26.1z M627.3,324.9c-2.1-0.4-3.7,0.7-5.1,1.9c-3,2.5-5.8,5.2-7.9,8.5
		c-2.8,4.3-4.8,9.1-5.6,14.2c-0.6,3.9-0.8,7.9-1,11.9c-0.1,1.7,0.3,3.5,0.5,5.2c0.1,0.9,0.5,1.7,0.5,2.6c0.2,4.5,1.6,8.6,3.5,12.6
		c2.1,4.6,4.9,8.7,9.1,11.7c2.9,2,6.1,3.1,10.1,3.2c-1.2-0.7-2-1.1-2.7-1.7c-1.8-1.4-3.7-2.6-5.2-4.2c-4.2-4.2-6.7-9.4-8.4-14.9
		c-2.1-6.9-2.6-14-2.2-21.1c0.4-7,2.4-13.5,5.6-19.7c2.1-4.1,4.8-7.6,8.6-10.3c0-0.2,0.7-0.1,0.2-0.5
		C627.4,324.5,627.3,324.7,627.3,324.9z M741.5,561c-1.3,0.3-2.6,0.6-3.8,0.9c-1.2-0.7-1.4-1.6-1-2.7c0.2-0.5,0.5-0.8,0.8-1.3
		c0.2-0.4,1-0.6,0.9-1.3c-2.7,0.4-4.9,1.5-7.2,2.4c-1,0.4-1.8,0.2-2.4-0.5c-0.6-0.8-0.6-1.6-0.3-2.5c0.5-1.1,1.4-1.8,2.4-2.3
		c2-1,4.2-1.6,6.5-1.9c1-0.1,2-0.2,3-0.3c0.6-1.5,0.4-2.5-0.7-3.2c-2,0.5-3.8,0.9-5.7,1.3c-2.5,0.4-4.9,1-7.1,2.3
		c-0.6,0.4-1.4,0.6-2.1,0.8c-1,0.2-2-0.5-2.1-1.6c-0.1-1.1,0-2.1,0.7-2.8c0.7-0.8,1.6-1.6,2.5-2.2c2.2-1.2,4.6-1.9,7.2-1.9
		c1.2,0,2.4-0.1,4-0.1c-0.8-1.4-1.3-2.5-2-3.5c-0.7-1.2-1.4-2.4-2-3.5c-0.8-0.3-1.5-0.6-2.2-0.8c-0.7-0.2-1.5-0.2-1.9-0.3
		c-1.9,1.4-3.6,2.7-5.3,4c-1.5,1.1-2.9,2.4-4.1,3.8c-2.9,3.4-6.7,5.1-11.3,4.5c-1.7-0.2-3.5-0.5-5.2-0.7c-0.8-0.1-1.7,0-2.7,0
		c-1.6,4.2-2.4,8.5-1.4,12.9c0.4,1.5,0.5,2.9-0.1,4.4c-0.3,0.8-0.3,1.7-0.5,2.6c-0.5,2.7-1.1,5.4-1.6,8.1c-0.2,0.8-0.8,1.6-0.3,2.6
		c1,0.2,2.1,0.6,3.2,0.8c7.2,1,14.4,1.6,21.7,1.3c2.7-0.1,5,0.6,7.1,2c1.5,1.1,3,1.7,4.8,2.1c3.6,0.8,7.2,1.2,10.8,1.3
		c3.5,0.1,7,0,10.5,0.4c3,0.4,6,0.2,9-0.4c3-0.6,6.1-1.1,9.5-3c-1.8-0.3-2.8,0.1-3.8,0.2c-1.2,0.1-2.5,0.5-3.7,0.7
		c-1.1,0.2-2.1,0.4-4.1,0.8c3.5-3.2,7.5-2.1,10.8-3.4c-0.5-3.1-1.6-5.8-3.6-8.4c-2.3-0.2-4.4-0.9-6.3-2.2c-2.2-1.5-4.6-2.5-7-3.5
		c-1-0.4-1.8-0.7-2.9-0.4c-0.7,0.2-1.6-0.2-2.9-0.4c0.9-0.9,1.5-1.4,2.1-2c-0.5-0.6-1-1.1-1.5-1.6c-2.2,0.6-4.3,1.2-6.3,1.7
		c-0.9,0.2-1.7,0.1-2.4-0.9C741.5,562.6,741.5,561.7,741.5,561c0.2-0.2,0.5-0.2,0.7-0.3c-0.1,0-0.2-0.1-0.2-0.1
		C741.8,560.7,741.7,560.8,741.5,561z M597.8,437.5c1.4,0.1,1.6-1.5,2.6-1.8c2.1-0.7,3.3-2.2,4.4-3.9c1-1.6,2.3-2.6,3.8-3.5
		c4.9-3.1,9.7-6.3,14.6-9.3c3.3-2,5.3-4.8,5.7-8.6c2.1-1.1,4.2-2.1,6-3.3c4.2-2.9,7.7-6.5,10.5-10.6c0.2-0.4,0.8-0.8,0-1.3
		c-1.4,0.6-2.9,1.2-4.3,2c-1.7,0.9-3.5-0.1-5.1,0.6c-0.1,0-0.3,0-0.4,0.1c-1.7,0.7-3.4,0.6-5.2,0.4c-1.5-0.2-3-0.2-4.4,0.4
		c-1.6,0.7-3.4,0.8-5.2,0.6c-0.5-0.1-1-0.2-0.9-1c1-0.4,2.2-0.8,3.7-1.4c-5.2-2.9-8.7-6.9-11.3-11.3c-2.3-0.8-4.3-1.5-6.5-2.2
		c-2.4,4.2-5.9,7.5-9.3,10.7c-0.4,1.4-0.6,2.6-1.1,3.8c-0.2,0.7-0.6,1.4-1.1,1.9c-3.3,3-6.4,6.4-10.2,8.9c-0.6,0.4-1.2,0.9-1.8,1.4
		c-4.6,4.1-9.6,7.6-14.8,10.9c-1.5,1-2.8,2.1-3.9,3.5c-5,6.1-8.6,12.9-9.8,20.8c-0.2,1-0.5,1.9-0.7,2.9c-0.9,3.4-1.9,6.7-2.9,10.1
		c-0.2,0.8-0.6,1.7-0.6,2.5c0,2.3-0.5,4.5-1.2,6.6c-2,6.2-4,12.4-6,18.6c-1.2,3.7-3,7.1-5,10.5c-1.2,2-2.3,4.2-3.4,6.3
		c-0.4,0.8-0.4,1.6,0.4,2.5c0.7-1,1.4-1.9,2-2.8c1.1-1.4,1.1-1.4,2.9-2.3c-1,3.4-3.1,5.8-4.8,8.5c1.1,3.3,3.1,5.7,5.7,7.8
		c1.4,1.2,3,2.2,3.7,4.2c0.3,1,1.4,1.4,2.3,1.7c1.1,0.5,2.2,0.6,3.1-0.1c0.9-1.7,1.8-3.4,2.6-5.1c0.3-0.7,0.7-1.4,0.8-2.1
		c0.4-3.5,1.5-6.8,2.6-10.2c2.4-7.6,6-14.5,11.4-20.5c1.2-1.3,2.2-2.8,3.2-4.2c5.3-7.5,10.6-14.9,15.8-22.4c1.3-1.8,2.6-3.7,3.7-5.6
		c2.1-3.6,4.1-7.2,6.1-10.9c-0.1-0.3-0.5-0.9-0.4-1.3c0.6-2.8,1.3-5.6,2.1-8.4c0.2-0.9,0.4-1.9,1.2-3c0.2,0.9,0.5,1.3,0.4,1.7
		c-0.2,1.6-0.5,3.2-0.8,4.8C598.1,435.9,598,436.7,597.8,437.5c-0.1,0.2-0.2,0.4-0.4,0.5c0,0,0.1,0.2,0.1,0.3
		C597.6,438.1,597.7,437.8,597.8,437.5z M734.6,318.1c0.1,0,0.3,0,0.4,0.1c2.2,1.9,3.1,4.6,3.2,7.3c0.1,2.3,0.3,4.1,2.3,5.4
		c0.2,0.1,0.2,0.7,0.3,0.9c-0.6,0.6-1,1.1-1.5,1.6c0.7,1.4,1.4,2.6,2,3.8c0.1,0.2,0,0.5,0,0.9c-0.6,0.4-1.2,0.9-1.8,1.4
		c0.1,3.2,0.1,3.2-1,5.9c-0.5,1.2-0.9,2.3-1.3,3.5c-0.1,0.3,0.1,0.7,0.2,1.3c0.6-0.4,1.2-0.7,1.6-1.1c1-1,1.8-2.1,2.8-3
		c1.2-1.1,1.9-2.3,1.8-3.9c-0.1-1,0.1-2,0.1-3c-0.1-3.2,0.1-6.3,1.6-9.2c-0.5-1-1-2-1.6-3c-1.4-2.1-2.9-4.1-4.2-6.2
		c-0.8-1.4-1.5-2.9-2.1-4.4c-1.2-3.3-1.7-6.8-3.9-9.7c-0.5-0.7-0.6-1.6-0.8-2.5c-0.3-1.3-0.6-2.7-0.9-4c-0.6-3.6-0.9-7.2-1.7-10.7
		c-1.5-5.9-2.3-11.8-3.2-17.7c-1.2-8.2-2.3-16.4-2.7-24.6c-0.1-2.4,0.1-4.8-0.4-7.1c-0.5-2.3-1.7-4.4-2.6-6.6
		c-0.8-1.9-1.2-4.1-3.3-5.3c-0.5-0.3-0.7-1-0.9-1.6c-0.5-1.4-1.1-2.8-1.5-4.3c-1.3-6.1-2.9-12.2-3.2-18.5c-0.2-3.8-0.2-7.5-0.4-11.3
		c-0.1-2.5-0.4-5-0.7-7.5c0-0.3-0.4-0.5-0.7-0.8c-0.9,0.6-1.7,1.2-2.7,1.9c-0.4-0.7-0.7-1.3-1.2-2c2.1-1.3,2.8-3.3,3.4-5.3
		c0.6-2,1.3-4.1,1.8-6.1c0.9-3.3,1.2-6.6,0.8-10.1c-0.3-2.1-0.4-4.2-0.6-6.4c-0.4-3.3-1.2-6.3-3.2-9.1c-2.3-3.3-4.5-6.6-6.7-10
		c-1.1-1.8-2.1-3.7-3.3-5.6c-1.7-0.1-2.6-2.1-4.7-2.5c0.5,1.6,0.9,2.9,1.2,4.2c0.7,2.8,1.7,5.5,3.3,7.9c1.5,2.2,2.3,4.7,2.6,7.4
		c0.7,5.4-1,9.9-5.3,13.3c-1.7,1.4-3.7,2.1-6,1.6c-1-0.2-2-0.3-3-0.4c-4.7-0.1-8.4-2-11.7-5.2c-3.7-3.6-6.9-7.6-9.3-12.2
		c-0.6-1.2-1.3-2.4-2.2-3.5c-5.9-7-11-14.6-16.4-22c-2.7-3.7-5.8-7.2-8.8-10.8c-0.9-1-1.8-2.1-3.4-2.5c-1.7,1-3.5,1.9-5.1,3
		c-0.6,0.3-0.9,1-1.4,1.6c5.3,1.6,8.3,3.1,11.1,5.8c6.7,6.6,11.9,14.2,14.5,23.4c1.4,4.9,1.5,9.9,1.7,14.9
		c0.2,8.8-2.4,16.8-6.7,24.3c-0.4,0.6-0.7,1.3-1.2,2c1.5,1.3,3.1,1.8,4.8,2.3c1.6,0.5,3.1,0.9,4.7,1.4c0.5,0.1,0.9,0.5,0.7,1.1
		c-0.8,0.8-1.8,0.7-2.8,0.6c-2.7-0.2-5.1-1.1-7.5-2.4c-1-0.5-2-1-2.9-1.5c-1.5,0.8-2.8,1.6-4.1,2.3c-1.4,0.8-2.8,1.7-4.1,2.5
		c-0.8,3.8-1.7,7.5-2.4,11.1c-1.3,6.8-3.3,13.4-6.9,19.4c-0.3,0.4-0.4,0.9-0.7,1.6c0.5,1.9,1,4,1.6,6c0.6,1.9,1.5,3.8,0.2,5.7
		c-0.2,0.3-0.1,0.7-0.1,1.1c0.2,3.9,0.4,7.7,0.6,11.5c0.5,0.3,0.8,0.6,1.2,0.7c3.8,1.6,7.9,2.4,11.9,3.5c0.5,0.1,1.2,0.4,1.6-0.4
		c-2.3-2.6-2.3-2.6-2.8-4.8c0.8,0.7,1.4,1.4,2.1,1.9c1.9,1.4,3.9,2.7,5.8,4.1c3.7,0.7,7.4,1.3,11,2c2.3-1,4.4-0.1,6.6,0.5
		c5.1,1.4,10.2,2.4,15.5,2.9c3.7,0.3,7.1,0.4,10.7-0.7c2.8-0.9,5.8-1.4,8.6-2.3c2.1-3.6,3.4-7.3,3.1-11.6c-1.2-1-1.5-2.4-1.5-4
		c-0.1-6,0.3-12,1-18c0.2-1.4,0.1-2.7,0.1-4.1c0-1.6-0.2-3.2-0.3-4.9c-0.2-7.4,0.8-14.7,1.4-22.1c0-0.2,0.3-0.4,0.5-0.8
		c0.3,0.4,0.8,0.8,0.8,1.2c0.1,1.9,0.1,3.8,0,5.6c-0.1,4.3-0.3,8.5-0.3,12.8c0,3.4,0.5,6.7,0.4,10.1c-0.1,7.4-0.4,14.8-0.6,22.2
		c0,0.7,0,1.5,0.2,2.2c1.2,4.7,0.6,9.2-1.5,13.5c-0.6,1.2-0.8,2.3-0.8,3.6c0.1,1.5,0.1,3-0.7,4.6c-0.8-0.2-1.6-0.3-2.4-0.5
		c0,0.5,0,1,0,1.5c1.4,0.8,2.9-0.3,4.3,0.7c1.3,0.8,3.1,0.9,4.6,1.4c3,0.9,4.6,2.8,5.4,6c1.3,5.3,3.2,10.5,4.8,15.8
		c0.2,0.8,0.7,1.3,1.7,1.2c0.4,1.4,0.7,2.9,1.1,4.3c0.3,1.3,0.7,2.7,1,4c0.4,1.5,0.7,2.9,1.2,4.3c0.5,1.3,0.6,2.8,1.8,3.8
		c0.3-0.8,0.5-1.3,0.7-1.9c0.4,1.2,0.5,2.5,0.5,3.7c0.1,1,0,2,0.3,2.9c0.9,2.5,1.1,5.1,1,7.8c-0.1,2.4,0.3,4.7,0.8,7.1
		c0.1,0.6,0.3,1.4,0.7,1.7c1.7,1.1,1.9,2.8,2.2,4.5c0.2,1.1,0.5,2.2,0.8,3.3c0.9,0.6,1.8,1.1,2.6,1.6c0.8,0.5,1.3,1.4,2.7,1.5
		c-0.5-1.2-0.7-2.2-1.1-3c-0.8-1.7-1.3-3.6-1.2-5.5C737.1,324.9,735.8,321.5,734.6,318.1L734.6,318.1z M590.4,193.8
		c0.1,0.7,0.2,1.4,0.4,2.1c1,3.8,2.1,7.5,3,11.3c0.4,1.7,0.4,3.5,0.5,5.2c0,0.7-0.2,1.7-0.6,2.1c-1.1,0.9-1.2,2.2-1.2,3.4
		c-0.1,2-0.1,4-0.2,6c-0.1,2.8,0.4,5.5,1.4,8.1c0.3,0.7,0.4,1.4,0.6,2.1c-0.8,0.4-1.4,0.7-2,1c-0.3,4-0.6,7.8-0.9,11.7
		c-0.2,2.5-0.6,5,0.1,7.5c0.1,0.5,0.1,1,0.1,1.5c0.1,3.5,0.7,7-0.3,10.5c0,5.3-0.1,10.5,1.2,15.7c2.2,9.1,4.2,18.3,5.3,27.7
		c0.5,4.2,0.8,8.5,1.2,12.7c0.2,2.2,0.4,4.5,0.7,6.7c0.4,2.4-0.5,4.7-0.8,7c-0.2,1.9-0.6,3.7-1,5.5c-0.8,3.7-1.6,7.3-2.4,11
		c-0.8,3.8-0.2,7.2,2.6,10.1c0.1,0.1,0.2,0.2,0.2,0.3c0.8,1.1,1.5,2.3,2.3,3.4c1.5,2.1,3.5,3,6.5,2.7c-2.5-3.3-3.6-7.2-6.9-9.6
		c-0.2-0.1-0.2-0.6-0.2-0.9c1.4,0.1,2.4,0.6,2.9,1.6c0.7,1.5,2.1,2.3,3.3,3.5c0.2-0.4,0.5-0.6,0.4-0.8c-0.4-1.5,0.1-2.9,0.1-4.3
		c0-5,1.3-9.7,2.5-14.4c1.5-5.5,3.9-10.5,8.1-14.6c0.8-0.8,1.4-1.7,2.1-2.5c-0.3-0.8-0.4-1.4-0.8-1.9c-1.2-1.7-1.7-3.6-2-5.6
		c-0.7-4.3-1.2-8.7-0.8-13.1c0.1-1.4,0.1-2.8,0-4.1c-0.1-3-0.2-6-0.2-9c0-4.8,0.1-9.5,0.2-14.3c0-2.1,0.1-4.3,0.4-6.4
		c0.9-6.2,1.9-12.4,2.9-18.6c0.6-3.6,0.9-7.2,0.8-10.9c0-1.3-0.2-2.4-0.5-3.7c-1-3.6-1.5-7.3-1.4-11.4c1.6-0.1,2-1.5,2.7-2.7
		c1.2-2.1,2.3-4.2,3.8-6.1c3.1-3.7,4.8-7.9,5.5-12.6c0.1-0.7,0.3-1.5,0.5-2.2c1.2-6.8,2.5-13.5,4.8-20.1c0.7-2,0.9-4.2,1.2-6.3
		c0.2-1,0.1-2,0.4-3c0.5-1.7,0.3-3.4-0.2-4.9c1.1-2.5,2.1-4.8,3-7.1c1-2.3,2.1-4.6,2.2-7.1c0-0.3,0.2-0.8,0.5-1
		c0.2-0.2,0.6-0.3,1-0.3c0.2,0,0.6,0.2,0.6,0.3c0.2,1,0.5,2,0.4,2.9c-0.6,4.8-1.9,9.4-5.7,12.6c-0.2,4.5-0.3,8.9-0.5,13.3
		c0,0.1,0.1,0.2,0.1,0.4c0.1,0.1,0.2,0.1,0.4,0.3c1.7-0.8,3.5-1.6,5.2-2.4c0.2-0.8,0.4-1.3,0.5-1.9c1.1,0.3,2,0.6,2.9,0.9
		c1.2-1.1,1.6-2.4,2.1-3.7c4.2-10.5,5-21.4,3.3-32.5c-1.4-9.2-5.6-17.1-11.5-24.1c-2.4-2.8-5.2-5.1-8.6-6.6c-1-0.5-2.1-0.8-3.2-1
		c-1.6-0.4-2.9,0-4.1,1.1c-1.8,1.7-3.7,3.4-5.5,5.1c-1.4,1.3-2.6,2.7-4.6,3c-1,0.2-2,1-2.9,1.7c-1.5,1.2-2.9,2.4-4.3,3.7
		c-4.7,4.2-8,9.3-9.4,15.5c-1.1,5-1.9,10.1-1.2,15.3c0.2,1.4,0.2,2.7,0.3,4.1c0,1.8-0.5,2.3-2.5,2.5c-0.5,0.1-0.9,0.1-1.4,0.1
		c-2.2,5.5-3.5,11.1-4.4,16.8c-0.1,0.6-0.1,1.3-0.1,1.9c0.3,1.8,0.6,3.7,0.8,5.1c0.9,0.9,1.6,1.4,2,2c1.5,2.3,3,4.6,4.4,7
		c0.2,0.4,0.7,0.7,0.1,1.4C593.5,198.6,592.3,195.9,590.4,193.8z M729.6,533.7c-0.1-2.6-0.2-4.8-0.3-7.1c0-4.3,0-8.5,0-12.8
		c0-6.3,0-12.5,0-18.8c0-6.5,0.9-13,2.5-19.3c0.5-2.1,0.7-4.2,0.8-6.3c0.1-4.1,0.3-8.3,0.4-12.4c0-1.4,0-2.7-0.1-4.1
		c-0.5-4.7-1.2-9.4-1.7-14.2c-0.4-3.2-0.9-6.5-0.7-9.7c0.3-6.5,0.9-13,2.4-19.4c0.4-2,0.5-4,0.2-6c-0.4-2.5-0.7-5-1.1-7.4
		c-0.7-4-0.8-7.9,0.4-11.9c0.2-0.7,0.3-1.5,0.3-2.2c0-0.6-0.1-1.2-0.1-1.9c-1,0-1.7-0.1-2.4-0.1c-3,0-6,0.1-9,0.1
		c-8,0.2-16,0.4-24,0.7c-1.1,0-2.3,0.1-3.3,0.6c-1.4,0.7-2.8,0.9-4.3,0.9c-1.9,0-3.6,0.7-5.1,2.1c1.8,3.2,3.7,6.1,6,8.7
		c1.9,2.1,3,4.5,4,7.1c1.6,4.2,2.6,8.6,3.8,12.9c0.7,2.5,1.3,5.1,1.9,7.6c0.4,1.8,0.5,3.7-0.3,5.5c-0.4,0.9-0.4,1.9-0.6,2.9
		c-0.5,3.3-1.1,6.7-1.6,10c-0.3,2-0.6,4-0.8,5.9c-0.2,2-0.2,4-0.6,6c-0.9,4.9-1.4,9.9-1.3,14.9c0.1,2.4,0.4,4.7,1.2,7
		c1.8,5.2,3.4,10.5,6.5,15.1c0.2,0.3,0.4,0.6,0.5,1c1,2.2,1.4,4.6,1.1,6.9c-0.2,1.5-0.1,3,0.1,4.5c1.3,7.5,2.6,15.1,3.8,22.6
		c0.7,4.2,0.8,8.5-0.2,12.7c-0.3,1.3-0.3,2.7,0.3,4.1c0.4,0,0.8,0.1,1.2,0c0.4-0.1,0.7-0.3,1.1-0.4c0.4-2.9-0.7-5.8,0.8-9.3
		c0.8,3.5,0.4,6.3,0.4,9.1c0.4,0.2,0.6,0.4,0.8,0.4c5.7,0.3,8.6-0.6,12.8-4.1c0.7-0.6,1.2-1.3,1.6-1.8
		C727.8,534,728.5,533.9,729.6,533.7z M659.4,358.9c0-1.8,0.2-3.5,0-5.3c-0.2-2.1-0.8-4.2-1.2-6.3c-1.2-6.2-3.8-11.9-7.8-16.9
		c-2.2-2.7-5-4.8-8.4-6.2c-4.7-1.9-9.2-1.1-13.3,1.5c-3.5,2.2-6.3,5.3-8.4,8.9c-1.9,3.4-3.4,7-4.3,10.8c-1.6,7.3-2.6,14.6-0.8,22
		c0.1,4.2,1.4,8.1,3,11.9c2.1,5,5,9.5,9.5,12.8c6.1,4.5,13.1,4.3,18.8,0c3.7-2.8,6.6-6.5,8.5-10.8
		C658.3,374.4,659.5,366.8,659.4,358.9z M504.1,509c-1.5,4.7-2.2,9-2.5,13.4c-0.1,1-0.1,2.1,0.2,3c1.4,4.1,3.4,7.8,7,10.4
		c1.4,1,2.9,2.1,4.2,3.2c1.8,1.6,3.6,3.3,3.7,5.9c0.1,2.4,0.1,4.8,0,7.1c0,0.7-0.4,1.7-0.8,2c-1.6,0.7-1.6,2.1-1.8,3.4
		c-0.3,1.5-0.4,3-0.5,4.5c-0.2,4.9,2.3,8.4,6.9,9.9c3.5,1.1,7.1,1.7,10.7,2c4.9,0.4,9.7-0.3,14.6-0.1c2.5,0.1,5.1-1,7.7-1.5
		c1.5-0.3,2.3-1.4,2.6-2.8c0.7-3-1-6.5-3.8-7.8c-0.9-0.4-1.9-0.7-2.8-1.1c-0.6,0.5-1.1,0.9-1.7,1.4c-2.3-0.6-2.4-2.8-3.2-4.1
		c-1.2-0.5-2.5-0.7-3.3-1.4c-1-0.9-1.9-1.9-3.2-2.5c-0.7-0.3-1.1-1-1-1.9c0.1-1,0.8-1.7,1.7-1.8c1.3-0.2,2.7-0.2,4.1-0.1
		c1.1,0.1,2.1,0.5,3.5,0.8c0.1-0.8,0.2-1.4,0.2-1.9c0-0.2-0.3-0.3-0.5-0.6c-0.7,0.1-1.4,0.1-2.2,0.3c-1.8,0.4-3.5,0.1-5.2-0.3
		c-0.6-0.1-1.2-0.4-1.7-0.8c-0.9-0.5-1.2-1.5-0.9-2.2c0.3-0.8,1-1.1,1.8-1.1c0.6,0,1.2,0.2,1.9,0.2c2.2,0.2,4.5,0.3,6.7,0.4
		c0.2,0,0.4-0.2,0.8-0.4c0.1-0.5,0.1-1,0.2-1.8c-1.1,0.1-2,0.3-2.8,0.4c-1.6,0.1-3.3,0.1-4.9,0.1c-1,0-2-0.5-2.6-1.3
		c-0.5-0.6-0.8-1.3-0.5-2.1c0.3-0.8,0.9-1.3,1.7-1.2c1.7,0.1,3.5,0.3,5.2,0.4c1.6,0.1,3.2,0.3,4.9,0.4c0.5,0,1-0.2,1-1.1
		c-0.8-0.1-1.6-0.1-2.4-0.2c-3.1-0.1-6.3,0.1-9.3-0.8c-0.8-0.2-1.6-0.7-2.3-1.2c-0.8-0.6-0.3-2.2,0.7-2.4c0.6-0.1,1.2-0.1,1.8,0
		c1.2,0.1,2.5,0.4,3.7,0.5c2.6,0.2,5.2,0.4,7.9,0.6c0.4,0,0.7-0.1,1.1-0.2c0.9-1.4,0.6-2.9,0.7-4.4c0.1-1.6,0.2-3.2,0.4-4.9
		c-0.6-0.1-1.2-0.4-1.7-0.4c-2,0.2-4,0.5-6,0.8c-2.5,0.3-5,0.7-7.5,0.2c-2,0.9-3.4-0.2-4.7-1.4c-0.8-0.7-1.6-1.6-2.4-2.4
		c-2.5-2.4-2.9-5.4-2.3-8.7c0.2-0.9,0.4-1.7,0.8-2.5c1.4-3.6,2.7-7.1,4.2-10.8c-1.3-1-2.6-0.8-3.8,0.2c-1.3,1-2.4,2.1-4,2.8
		c-2,0.9-4,2-6,3.1c-3.1,1.8-6.4,2.9-10,2.9C507,509,505.6,509,504.1,509z M596.9,331.9c-0.4-0.6-0.7-1.2-1.2-1.7
		c-2.8-3-5.8-5.5-10.4-4c-0.6,0.2-1.2,0.1-1.9,0.2c-2.3,0.2-4.2,1.2-5.9,2.9c-4.6,4.4-7.4,9.7-9,15.8c-1.5,5.7-2.3,11.5-1.8,17.4
		c0.5,7.4,2.4,14.3,6.1,20.7c2.1,3.6,4.9,6.7,8.6,8.7c2.7,1.4,5.6,2.3,8.7,1.7c3.2-0.6,6.3-1.8,8.8-4c1.7-1.5,3.3-3.1,4.1-5.3
		c0.5-1.4,0.9-2.8,1.3-4.3c0.8-2.7,1.7-5.4,1.3-8.5c-3-0.6-5.6-1.6-7.5-4c-3.4,1.7-6.8,0.9-10.1,0.8c-0.7,0-1.5-0.4-2-0.9
		c-3.2-2.8-3.8-6.6-3.5-10.6c0.1-1.7,1.2-3,2.5-4.1c1.1-1,2.4-1.1,3.9-0.9c0.7,0.1,1.5-0.1,2.2-0.1c0.7,0.1,1.4,0.3,2.1,0.4
		C594.7,347,596.8,336,596.9,331.9z M625,253.6c0-1.9-0.1-3.5,0-5.1c0.1-1.4,0.1-3,1.8-3.8c0.3-0.1,0.5-0.6,0.5-0.9
		c0.1-1,0.3-2.1,0-2.9c-1.3-2.9-1-5.9-1-8.8c0-3.6-0.1-4.1-2-8.4c-1.6,2.4-3.3,4.8-5.1,7.3c0.4,2,0.7,4.2,1.2,6.4
		c0.8,3.9,1.2,7.8,0.7,11.8c-0.3,2.6-1,5.1-0.5,7.9C622.1,256,623.5,254.8,625,253.6z M596.7,365.6c-1-2.1-1.9-3.7-2.5-5.4
		c-0.7-1.8-0.2-4-1.4-6c-2.2,0.7-4.5,1.1-6.5,0.5c-2.7,3.3-2,6.6-0.4,10C589.2,365.9,592.7,366.1,596.7,365.6z M531.7,506.7
		c-1.7,3.7-2.6,7.5-3.2,11.4c2.1,3.3,5.6,4.5,8.5,6.7c2.2,0.2,4.3-0.2,6.8-1.3C536.4,520,532.8,514.3,531.7,506.7z M692.5,256.6
		c-0.7-0.1-1.1-0.2-1.6-0.2c-1.3,0.1-1.8,0.7-1.7,1.9c0.2,1.8,0.4,3.6,0.7,5.4c1.4,0.8,2.5,0.8,3.6,0
		C693.1,261.4,692.8,259.2,692.5,256.6z M696.8,263.5c0-2.3,0-4.4,0-6.5c0-0.2-0.3-0.4-0.6-0.7c-0.8,0.1-1.7,0.3-2.8,0.4
		c-0.2,2.2,0.5,4.1,1,6c0.1,0.4,0.6,0.8,1,1C695.8,263.9,696.3,263.6,696.8,263.5z M606.1,381.4c1.8,0.3,3,0.5,4.5,0.8
		c-0.6-1.8-1-3.4-1.6-4.9c-0.2-0.6-0.2-1.4-1.3-1.6C607.2,377.5,606.7,379.3,606.1,381.4z M707.1,545.5c3.7,1.1,6,0.7,8.6-1.6
		c-0.6,0-1-0.1-1.5-0.1c-1.9,0-3.7-0.1-5.6,0C707.5,543.8,707,544.4,707.1,545.5z M647.2,63.1c0.4-1.1,0.8-2.2,1.2-3.4
		c-0.6-0.5-1.3-1.1-1.9-1.6C644.4,59.9,644.5,60.3,647.2,63.1z M699.2,262.9c0.1-2.6,0.6-4.8-0.1-7.4c-0.6,0.6-1.1,1-1.1,1.3
		C698.1,258.7,697.4,260.8,699.2,262.9z M736.5,338.6c-0.5,2-0.5,3.7,0.5,5.5c1.1-1.3,1.2-1.3,1-1.8
		C737.7,341,738.2,339.4,736.5,338.6z M695.3,25c0.2,0.7,0.4,1.5,0.8,2.6c1-1.2,1.7-2.1,2.1-3.3C697.2,24.1,696.3,24.4,695.3,25z
		 M661,30.5c-3.1,2.7-3.1,2.7-3.4,4.4C659.8,33.6,660.5,32.8,661,30.5z M682,32.6c-1.9-1.4-1.9-1.4-4-1.6
		C679.1,32.4,680.7,32.2,682,32.6z M675.9,22.6c-2.4-0.4-2.5-0.2-2.6,2.5C674.5,24.5,675.3,23.8,675.9,22.6z M663.3,41.1
		c-1.4-0.8-1.8-0.7-2,0c-0.1,0.6-0.2,1.2-0.3,2.4C662,42.5,662.5,42,663.3,41.1z M648.8,49.5c0.2-1.3,0.4-2.6,0.6-4
		c0-0.1-0.2-0.2-0.3-0.3C648,46,648,46,648.8,49.5z M657.3,47.1c-0.4-0.3-0.6-0.5-0.8-0.5c-0.9,0.1-1.3,0.7-1.4,1.5
		c0,0.3,0.2,0.6,0.5,1.1C656.3,48.4,656.8,47.8,657.3,47.1z M652.2,48.3c0.7-0.6,1.4-1,2-1.5C652.7,45.8,652.4,46.1,652.2,48.3z
		 M690.5,18.5c-0.7,1-1.1,1.7-0.4,2.7C690.6,20.3,691.7,19.8,690.5,18.5z M691.7,52.7c0,0.2,0,0.4,0,0.6c0.6,0,1.2,0.2,1.7,0
		c0.5-0.1,0.8-0.5,0.2-1.1C693,52.4,692.4,52.5,691.7,52.7z M656.2,56c-0.4,0.8-1.3,1.1-0.8,2.2C656.1,57.7,656.6,57.2,656.2,56z
		 M676.4,31.1c-0.3-0.4-0.5-0.8-0.7-0.9c-0.2-0.1-0.6,0-0.9,0.1c0.2,0.3,0.3,0.6,0.5,0.7C675.5,31.1,675.8,31,676.4,31.1z
		 M649.4,63.4c0.2,0.1,0.4,0.2,0.7,0.3c0.1-0.2,0.2-0.4,0.2-0.6c0-0.1-0.4-0.3-0.5-0.2C649.6,62.9,649.6,63.2,649.4,63.4z
		 M650.7,24.9c-0.3,0.1-0.4,0.2-0.6,0.3c0.1,0.2,0.2,0.5,0.4,0.6c0.1,0.1,0.4,0,0.6-0.1C651,25.5,650.8,25.2,650.7,24.9z
		 M657.2,43.1c-0.5,0.8-0.7,1-0.8,1.3c0.2,0,0.4,0.1,0.5,0.1C656.9,44.2,657,43.9,657.2,43.1z M683.3,30.9c0,0.1,0,0.2,0.1,0.2
		c0.1,0.1,0.2,0,0.3,0.1c0-0.1-0.1-0.3-0.1-0.4C683.5,30.9,683.4,30.9,683.3,30.9z M688.5,32.4c-0.2,0-0.4-0.2-0.6-0.1
		c-0.4,0.1-0.4,0.3,0,0.4c0.2,0.1,0.4,0,0.6-0.1C688.5,32.6,688.5,32.5,688.5,32.4z M677.5,29.1c-0.1-0.2-0.1-0.4-0.2-0.5
		c-0.1,0-0.2,0.1-0.3,0.1c0,0.2,0,0.4,0,0.6C677.1,29.2,677.3,29.1,677.5,29.1z M656.9,30.3c-0.1,0.2-0.2,0.4-0.3,0.6
		c0,0.1,0.1,0.2,0.2,0.2c0.1-0.2,0.2-0.4,0.2-0.6C657.1,30.5,657,30.4,656.9,30.3z M681,22.7c-0.1,0-0.2-0.1-0.3-0.1
		c0,0.1,0,0.3-0.1,0.4c0.1,0,0.2,0,0.3-0.1C681,22.9,681,22.8,681,22.7z M667.7,20.9c-0.2,0.1-0.3,0.2-0.5,0.3
		c0.1,0.1,0.2,0.2,0.2,0.2c0.2,0,0.4-0.1,0.6-0.2C668,21.2,667.9,21.1,667.7,20.9z M544.2,555.3c-0.1-0.1-0.2-0.2-0.2-0.2
		c-0.2,0-0.4,0.1-0.6,0.2c0.1,0.1,0.2,0.2,0.2,0.2C543.8,555.4,544,555.3,544.2,555.3z M669.8,25.4c0-0.1-0.1-0.2-0.1-0.3
		c-0.1,0.1-0.1,0.2-0.2,0.3c0,0.1,0.1,0.2,0.1,0.3C669.7,25.6,669.8,25.5,669.8,25.4z M655,60.5c-0.1-0.1-0.2-0.2-0.3-0.2
		c-0.1,0.2-0.2,0.4-0.2,0.6c0,0.1,0.1,0.2,0.2,0.2C654.8,60.9,654.9,60.7,655,60.5z M643.5,55.6c-0.1,0.1-0.2,0.1-0.2,0.2
		c0.1,0.1,0.1,0.2,0.2,0.2c0.1,0,0.2-0.1,0.2-0.2C643.6,55.7,643.5,55.7,643.5,55.6z"/>
	<path d="M240.5,29.8c1.1,0.2,2.1,0.5,3.5,0.8c0.4,0.8,1,1.9,1.6,2.9c-0.1,0.9-0.7,1.4-1.5,1.5c-1,0.1-0.8,1-1.2,1.4
		c-0.4,0.3-1.2,0.1-1.8,0.3c-0.4,0.2-0.9,0.5-1.1,1c-0.4,0.6-0.7,1.3-0.9,2.1c-0.5,2-1.4,3.7-2.8,5.3c-1,1.2-1.5,2.5-1.8,4
		c-0.7,2.7-1.5,5.3-2.4,7.9c-0.2,0.7-0.5,1.4-1.6,1.5c-0.2-1.9-0.7-3.7-2.1-5.2c0.2-2-0.2-3.6-2.6-4.4c-0.1,0.6-0.4,1.1-0.3,1.4
		c0.5,1.5,1.5,2.5,3.1,2.9c-0.2,2-0.4,3.9-0.7,6.1c-0.8,0.1-1.6,0.3-2.4,0.4c-0.2,0.9,0.5,1.6,1.1,2.1c0.5,0.4,1.3,0.4,2.1,0.6
		c-0.5,1.5-1.2,2.9-1.6,4.4c-0.4,1.6-0.6,3.2-0.9,4.8c-0.1,0.5-0.4,1.1-0.3,1.5c0.8,2.1-0.2,3.9-0.9,5.8c-0.3,0.8-0.3,1.7-0.4,2.6
		c-0.2,2-0.3,4-0.5,6c-0.7,0.7-1.4,1.3-2,2.1c-0.7,0.9-1.1,2-1.7,2.9c-0.6,0.8-1.3,1.5-2,2.2c-0.8,0.8-1.6,1.6-2.4,2.4
		c-0.7,0.7-1.4,1.3-2.2,2c9.2,8.8,17,18.5,24.2,28.8c1.6,2.4,3.1,4.8,4.7,7.2c4.1,6.3,9.1,11.6,15.8,15.2c1.6,0.8,3,1.8,4.6,2.6
		c0.5,0.3,1.1,0.3,1.8,0.4c0.9-3.9-0.4-7.3-0.9-10.9c2.4,3.2,2.1,6.9,2.2,10.4c1,0.9,1.9,0.6,2.6,0.2c3.2-2,5.5-4.8,5.7-8.8
		c0.3-4.6-0.4-9-3.3-12.8c-0.7-1-1.2-2.2-1.6-3.3c-0.9-2.9-1.9-5.7-2.6-8.6c-0.4-1.6-1.1-3.1-2.3-4.2c-2.2-2-3.9-4.5-5.8-6.9
		c-0.8-1.1-1.3-2.1-1.2-3.4c0.1-2.6,0.2-5.3,0.5-7.9c0.3-2.6,0.4-5.2,0.4-7.9c-1.7-0.6-3.4-1.2-5-1.8c-1.4-0.6-3.3,0.2-4.7-1.7
		c0.8-0.1,1.4-0.3,1.9-0.1c2.8,1.1,5.9,0.8,8.7,2.2c1.4,0.7,4.3-0.8,5.2-2.2c0.1-0.2,0.3-0.4,0.3-0.7c1.7-5.5,3.9-10.8,3.7-16.7
		c-0.1-2.2-0.3-4.6,0.4-6.7c0.9-2.7,0.6-5.4,0.6-8.1c0-0.8,0.1-1.6,0.6-2.5c0.2,0.5,0.6,1.1,0.7,1.6c0.4,1.6,0.7,3.2,0.9,4.8
		c0.3,1.5,0.1,3-0.6,4.4c-0.7,1.4-1,2.9-0.9,4.4c0.3,5.2-1,10.2-2.6,15.1c-0.4,1.3-0.9,2.6-1.1,4c-0.2,1.8-1.2,3-2.8,3.7
		c-0.8,0.4-1.6,0.7-2.5,1.1c-0.4,6-1.4,11.9-1.2,18.2c0.9,1,2.4,1.7,3.8,2.5c1.7,1.1,3.3,2.2,4.2,4.1c0.7,1.4,2,2.5,3,3.8
		c1,1.2,2.5,2.1,3.1,3.7c0.2,0.6,1.1,0.9,1.7,1.4c2.1,1.6,4.2,3.1,6.2,4.8c2.5,2.2,4,5.1,4.3,8.5c0,0.2,0,0.5,0.1,0.7
		c0.6,2.7,1.4,5.4,1.7,8.1c0.3,2.7,0.2,5.5,0.6,8.2c0.9,5.8,0.5,11.5-1.5,17c-0.9,2.5-2,4.6-4.1,6.1c-0.5,0.4-0.9,0.8-1.6,1.5
		c-0.1,2.2-0.3,4.5-0.4,6.9c0,4.6,0,9.3,0,13.9c0,0.7,0.1,1.5,0.3,2.2c0.9,2.5,1.8,4.9,2.8,7.4c0.3,0.8,0.5,1.7,0.9,2.5
		c2.2,5.3,3,10.8,3.2,16.5c0.1,4.1,0.7,8.3,0.5,12.4c-0.7,12.4-0.2,24.8-0.4,37.2c-0.1,5.7,0.5,11.5,1.8,17.2c0.6,2.6,1,5.2,1.3,7.8
		c0.1,1.2-0.1,2.5-0.4,3.7c-0.4,1.1-0.3,2,0.1,2.9c1.8,3.9,2.8,8,5,11.7c2.3,3.9,2.3,8.9,0.4,13c-1.1,2.5-1.5,5-1.6,7.7
		c0,0.7-0.1,1.5-0.2,2.2c-1.6,2.2-3,4.4-5.4,5.7c-0.9,0.5-1.8,0.9-2.7,1.3c-1.3,0.7-2.6,1.5-4,2c-1.3,0.4-2.7,0.3-4,0.8
		c-1.6,0.6-3.1,0.9-5,0.4c-0.3,2.1,0.2,3.9,0.4,5.7c0.5,3.1,1.2,6.1,1.8,9.2c0.2,1.2,0.6,2.4,0.9,3.7c-0.3,0.4-0.6,0.9-1.1,1.6
		c0.6,3.8,1.4,7.7,1.9,11.7c0.7,5.4,0.8,10.7-1,16c-0.3,0.8-0.4,1.7-0.4,2.6c-0.1,3.5-0.1,7-0.1,10.5c0,1.4-0.1,2.7-1.2,3.8
		c-0.5,0.5-0.6,1.3-0.9,2c-0.5,1-0.7,2.2-1.4,3.1c-3,3.9-4.5,8.7-7.7,12.4c-0.6,0.7-1,1.8-1.2,2.7c-0.9,4.3-2.1,8.5-2,13
		c0,1.6-0.3,3.2-0.5,4.9c-1.1,7.9-1.3,16-3,23.8c-0.7,3.2-1.4,6.4-2.4,9.5c-1.5,4.7-2.2,9.5-2.2,14.4c0,3.1,0,6.3,0,9.4
		c0,2-0.3,4-0.3,6c0,3.2,0.6,6.5,1.3,9.7c0.5,2.3,1.5,4.5,2.3,6.8c-1,1-2.1,1.6-3.6,1.1c-1.5-0.4-2.7,0.4-3.5,1.6
		c-1.7,2.5-2.8,5.3-3.6,8.2c-0.6,1.9-0.9,3.9-2.4,5.6c-0.5-0.4-1-0.7-1.4-1.1c-6,2.6-8.6,3.3-13.4,3.4c-2-1.7-3.8-3.6-4-6.4
		c0.7-0.9,1.4-0.2,2.2-0.5c-0.1-0.4,0-1-0.3-1.2c-0.7-0.6-0.7-0.5-2.9,0c-1.5,1.7-1.5,3.9-1.9,5.9c-0.7,4.3-1.1,8.7,0,13
		c0.9,3.4-0.1,6.6-1.6,9.4c-1.1,2.1-1.5,4.2-2,6.6c1.1,0.3,2.1,0.7,3.2,0.9c1.2,0.2,2.5,0.4,3.7,0.5c5.1,0.4,10.2,0.9,15.3,1.1
		c2.6,0.1,5.3,0.1,7.8-0.6c1.2-0.3,2.4-0.1,3.6,0.4c1.7,0.7,3.6,1.2,5.4,1.6c1.6,0.3,3.1,0.7,4.5,1.7c0.7,0.5,1.9,0.7,2.8,0.7
		c2.1,0.1,4.3,0.1,6.4,0c4.2-0.3,8.5-0.6,12.7-1.1c3.8-0.4,7.2-1.9,10.5-3.8c2.4-1.4,4.8-2.7,7.2-4c1.3-0.7,2.5-1.5,3.8-2.3
		c0-2.6-0.1-5-0.7-7.3c-0.3-1.2-0.6-2.7-1.4-3.4c-1.3-1-2.5-2.2-4.5-2.4c-2.9-0.2-5.7-0.9-8.5-1.4c-0.7-0.1-1.4-0.4-2.2-0.6l0.1,0.1
		c0-0.8,0.5-1.2,1.1-1.3c0.6-0.1,1.2-0.1,1.9-0.1c2.3,0.1,4.5,0.4,6.7,0.4c5,0,8.4,3.5,9.7,7.5c0.8,2.6,1,4.6,0.5,9.3
		c-0.7,1.2-1.9,1.9-3.1,2.6c-1.6,0.9-3.3,1.7-5,2.6c-1.9,0.9-3.9,1.7-5.7,2.8c-4.6,2.9-9.6,4.2-15,4.4c-5.4,0.2-10.8,0.3-16.2,0.2
		c-2,0-3.9-0.7-5.8-1.3c-1.3-0.4-2.6-0.9-3.8-1.6c-2.7-1.6-5.6-1.6-8.7-1.4c-8,0.6-16,0.2-24-1.1c-1.6-0.3-3.1-0.8-4.6-1.4
		c-1.1-0.4-1.5-1.6-0.8-2.5c2.2-3.2,2.8-6.9,3.9-10.5c0.3-0.9,0.2-2,0.2-3c0-3.4,0.1-6.8,0.1-10.1c0-1.8,0-3.5-0.1-5.3
		c-0.1-1.5,0.1-3,1-4.3c0.6-0.8,0.9-1.8,1.3-2.7c1.5-1.3,3.4-0.4,5.3-1c0.2-1,0.6-2.1,0.5-3.1c-0.1-1.9-0.4-3.7-0.7-5.6
		c-1.1-8.7-2.3-17.4-3.3-26.1c-0.6-5.6-0.7-11.3-1-16.9c-0.1-1.6-0.3-3.2-1-4.7c-1.4-3.3-1.7-6.8-2.1-10.3c-0.3-2.6-0.5-5.2-0.9-7.8
		c-0.8-4.6-0.7-9.2,0-13.8c0.1-0.4,0-0.8,0.2-1.1c1.6-4.1,2.1-8.5,4.4-12.3c1.3-2.2,2-4.6,2.5-7c1.4-5.7,3.1-11.4,6.2-16.5
		c1.8-3,2.2-6,2.3-9.7c-0.6,0.5-1.1,0.7-1.3,1c-3.2,4.3-7.3,7.5-11.7,10.5c-1.1,0.7-2,1.5-2.5,2.7c-0.8,1.7-2.1,3.1-3.6,4.3
		c-0.4,0.3-0.9,0.5-1.2,0.9c-2.1,3.4-4.5,6.6-5.7,10.5c-0.4,1.2-0.7,2.4-1.4,3.5c-1.6,2.6-3.2,5.1-5,7.5
		c-4.6,6.1-9.2,12.2-13.9,18.3c-1.2,1.6-2.6,3.1-3.8,4.6l0.1,0.1c-0.3-0.5-0.6-0.5-0.9,0l0.1-0.1c-0.7,0.7-1.5,1.3-2.1,2.1
		c-1.8,2.7-3.6,5.4-5.4,8.2c-1.4,2.1-2.8,4.1-4.2,6.2c-0.9,1.4-1.7,2.8-2.4,4.2c-1.9,4.2-3.8,8.4-5.6,12.7c0.1,0,0.3,0.1,0.5,0.2
		c2.1,0.8,2.8,2,2.1,3.9c-0.4,1.2-0.8,2.4-1.4,3.4c-2.1,3.7-4.3,7.4-6.5,11c-0.5,0.9-1.2,1.6-1.7,2.5c-4.6,7.3-4.9,10.5-3.9,19.7
		c0.3,2.8,0.5,5.5,0,8.2c-0.2,1.3-0.3,2.7-0.4,4.3c-0.4,0.2-1,0.5-1.5,0.7c-2.2,0.4-4.4,0.9-6.6,1.2c-1,0.1-2,0.1-3-0.2
		c-5.1-1.7-9.6-4.4-13.2-8.4c-1.9-2.1-3.1-4.8-4.7-7.2c-0.5-0.7-0.8-1.6-1.4-2.2c-1.3-1.3-1.6-2.8-1.5-4.5c0.2-2.1,0.5-4.2,0.8-6.3
		c0.2-1.6,0.4-3.2,0.8-4.8c0.7-2.8,1.3-5.6,2.3-8.3c1-2.8,1.2-5.6,0.9-8.5c-0.2-1.8-0.8-3.3-2.5-4.4c-1.7-1-2.6-2.8-2.8-4.7
		c-0.2-2-0.2-4-0.2-6c-0.1-2.9,0.9-5.7,0.3-8.6c-0.1-0.3,0.1-0.8,0.2-1.1c1.6-3,3.2-6,4.8-8.9c0.3-0.5,0.9-0.9,1.4-1.3
		c1.7,0.5,3.4,1,5.1,1.6c1.2,0.4,2.4,0.6,3.7,0.3c2.3-0.5,4.7-0.5,7.1-0.3c2,0.2,3.9,0,5.7-1.3c0.9-0.7,2.3-0.7,4-1.2
		c0.1-0.2,0.6-0.8,0.9-1.4c2.2-4.1,4.4-8.2,6.6-12.3c2.4-4.4,4.1-9.1,4.9-14.1c0.5-2.9,1.6-5.8,2.3-8.7c0.5-1.9,1.1-3.9,1.5-5.8
		c0.7-3.2,1.8-6.3,3.3-9.2c1.7-3.3,3.4-6.7,5.2-10.1c0.4,0,0.8,0.1,1.5,0.2c1.1-0.8,1.8-2.2,2.8-3.3c2.5-2.8,4.9-5.7,7.7-8.2
		c2-1.8,4.3-3.3,5.3-6c0.2-0.4,0.5-1,0.9-1.1c2-0.7,2.3-2.5,2.9-4.1c1-2.7,2.3-5.3,1.7-8.2c-2.3-1.9-4.6-3.7-6.6-5.7
		c-2.2-2.1-3.7-4.7-5.1-7.4c-1.3-2.5-2.3-5.1-3.7-7.8c-0.5,1.8-1.1,3.6-1.4,5.4c-0.4,2.3-1.3,4.2-3,5.9c-1.4,1.4-2.6,3-4.1,4.4
		c-1.7,1.7-3.6,3-6.3,2.9c-1.7-0.1-3.5,0.5-5.2,0.9c-6.9,1.6-12.6-0.5-17.4-5.4c-2.3-2.3-4.1-5.1-5.5-8c-2.2-4.8-3.9-9.8-4.1-15.1
		c0-1.1-0.4-2.2-0.4-3.4c-0.1-9.4,0.9-18.5,5.8-26.8c1.1-1.9,2.3-3.6,4.3-4.6c0.3-0.2,0.7-0.2,1.1-0.3c-0.3,0.4-0.5,0.9-0.8,1.2
		c-3.5,3.9-5.8,8.5-7.1,13.5c-1.8,6.6-2.5,13.3-1.6,20.1c0.8,6.3,2.5,12.3,5.9,17.7c2,3.2,4.5,6,7.9,7.9c2.2,1.3,4.5,2,7.8,2
		c-1-0.7-1.5-1-2-1.3c-2.5-1.4-4.7-3.3-6.5-5.6c-4.7-5.8-7.1-12.7-8-20c-0.6-4.6-1.2-9.2-0.1-13.8c0.7-2.9,0.9-6,1.6-8.8
		c1.7-6.4,4.9-12.1,10.3-16.2c0.2-0.2,0.3-0.5,0.6-0.9c-2.3,0.4-3.9,1.4-5.5,2.7c-0.8,0.6-1.6,1.1-2.4,1.7c-0.1-1.2,0.6-1.9,1.3-2.5
		c2.2-1.9,4.8-3.2,7.5-4.1c0.6-0.2,1.2-0.2,1.8-0.2c1.4,0,2.8,0.1,4.1,0.1c3.5-0.1,6.7,0.8,9.5,2.9c0.3,0.2,0.7,0.3,1.2,0.6
		c0.1-1.1,0.2-2.1,0.1-3c-0.1-7-1-14-2.4-20.8c-0.9-4.4-1.5-8.9-2.3-13.3c-0.3-1.8-0.7-3.7-1.3-5.5c-1.1-3.8-1.7-7.6-1.5-11.5
		c0.1-3.8,0.3-7.5,0.4-11.3c0.2-3.1,0.1-6.2-0.4-9.3c-0.2-1.2-0.1-2.5,0.1-3.7c0.5-3.5,0.7-7,0.6-10.5c0-1.2-0.2-2.4,0.5-3.7
		c0.3-0.6,0-1.4,0-2.2c-0.1-1.7-0.3-3.5-0.2-5.2c0.1-4.8,0.4-9.5,0.5-14.3c0-1.4,0-2.8-0.4-4.1c-2.4-7.2-3.2-14.6-2.9-22.2
		c0.2-5.7,1.4-11.1,3.6-16.4c0.4-0.9,1-1.7,1.8-2.9c0.4-3.6,0.8-7.7,1.4-11.8c0.2-1.4,0.6-2.7,0.8-4c0.3-1.8,0.7-3.7,0.9-5.5
		c0.5-4.6,2.8-8.2,5.8-11.5c2.6-2.9,5.4-5.5,9.1-7.1c1.3-0.5,2.4-1.3,3.9-2c1.4-2.9,3.8-5.2,6.5-7.4c1.2-0.9,2.3-2,3.4-3
		c1.8-1.7,3.9-3.1,6-4.5c3.7-2.4,7.3-4.9,10.7-7.6c1.8-1.4,3-3.4,3.1-5.8c0.1-1.4,0.1-2.8,0.2-4.1c0.2-2.6,0.3-5.3,1.4-7.7
		c-0.8-3.3-1.6-6.6-2.4-9.8c-0.2-0.7-0.4-1.5-0.8-2.1c-1.1-1.8-1.8-3.5-1.1-5.7c0.3-0.9-0.3-1.9-0.8-2.8c-2.8-4.6-3.4-9.3-1.1-14.3
		c0.4-0.8,0.5-1.7,0.6-2.5c0.2-1.9,0.2-3.8,1.7-5.2c-0.3-1.3,1.4-2.5,0.1-4.1c0.6-0.1,1.1-0.2,1.5-0.2c0.5,0.3,0.9,0.7,1.4,1
		c-1,1.3-1,1.3-1.2,2.6c0.7-0.4,1.2-1,1.9-1.2c0.7-0.3,1.4-0.5,2.1-0.4c0.7,0,1.4,0.4,2.1,0.6c0.1,0,0.2-0.1,0.3-0.1
		c0.5-0.5,1.1-1,0.3-2c-0.7,0.1-1.5,0.3-2.3,0.5c-0.8-0.7-1.5-1.3-2.3-1.9c-0.9,0.4-1.7,0.7-2.5,1.1c0-0.6,0-1.2,0.1-1.8
		c0.1-0.6,0.7-1.1,0.7-1.6c-0.1-1.3,0.8-1.7,1.4-2.4c-1.6-2-1.6-2-1.9-3.4c2.6-0.1,2.6-0.1,5.6,2c3.8-0.3,6.7-2.3,8.8-5.1
		c1.6,0.2,1,1.4,1.5,2.1c0.7,0.4,1.2,0,1.6-0.4c0.6-0.7,1-1.4,1.5-2.1c3.7-0.3,7.3-0.6,11-0.8c0.6,0,1.2,0.3,1.8,0.4
		c0.3,0.1,0.7,0.2,1,0.1c1.6-0.5,3.3-1.1,4.9-1.7c1.3-0.5,2.7-0.6,4.1-0.3c0.2,0.6,0.3,1,0.4,1.5c-0.2,0-0.7-0.2-0.4,0.4
		c0.1-0.2,0.2-0.3,0.3-0.5c1.8-0.5,2.5-2.3,3.8-3.4c1.1,1,1.1,1,1.3,6.4c0.7-0.5,1.2-0.9,1.8-1.2c0.5-0.3,1.2-0.5,1.8-0.7
		c0.7-0.2,1.3-0.1,1.6,0.5c0.4,0.7,0.1,1.2-0.5,1.6c-0.8,0.6-1.7,1.1-2.8,1.8c1.7,0.9,3.3-0.5,5,0.4c0,1.2,0,2.5,0,3.8
		c-2,2.2-5.3,3-6.8,5.8c0.2,5.2,1.2,10.3,2.9,13.6c-0.5,2.5-1.1,5.2-1.6,7.8c-3.6,1.7-3.6,1.7-6.6,1.6c-0.2,1-0.3,2.1-0.5,3.1
		c-0.3-0.1-0.6-0.1-0.6-0.2c-0.9-4.9-0.1-6.4,4.3-8.7c1-0.5,2-1,3-1.5c0.5-1.1,0.9-2.2,0.1-3.2c-1.8-2.4-1.9-5.4-2.4-8.2
		c-0.2-1-0.3-1.9-0.4-3.2c-3.1,1.5-6.2,1.7-9.3,0.8c-2,0.5-3.9,0.3-5.9-0.1c-0.7-0.1-1.4,0.5-2.1,0.6c-0.6,0.1-1.2,0.1-1.7,0.2
		c-0.1,0.8-0.1,1.4-0.2,2c-0.4,0-0.8,0.1-0.8,0c-0.5-1.5-1.5-2.5-3-3c-0.8-0.3-1.6-0.7-2.6-1.2C241.3,28.7,240.9,29.3,240.5,29.8
		c-0.1,0.1-0.3,0.2-0.5,0.3c0.1,0.1,0.2,0.2,0.3,0.3C240.4,30.2,240.5,30,240.5,29.8z M218.7,40.3C218.7,40.3,218.7,40.4,218.7,40.3
		l-0.1,0.3C218.6,40.6,218.7,40.3,218.7,40.3z M263.9,27.6c0.1,0.1,0.1,0.1,0.2,0.2C264,27.7,263.9,27.7,263.9,27.6
		c-0.1-0.1-0.2-0.3-0.3-0.4c-0.1,0.1-0.2,0.2-0.3,0.3C263.5,27.5,263.7,27.5,263.9,27.6z M232.3,51c-0.2,0.2-0.5,0.5-0.6,0.8
		c0,0.1,0.2,0.3,0.4,0.5c0.1-0.1,0.2-0.2,0.2-0.3C232.2,51.6,232.2,51.2,232.3,51c0-0.1,0.1-0.1,0.2-0.1c0.1,0,0.1-0.1,0.1-0.2
		C232.5,50.8,232.4,50.9,232.3,51z M283.4,134.5c0-0.1,0-0.2,0-0.3c0-0.1-0.1-0.1-0.2-0.1C283.3,134.2,283.4,134.3,283.4,134.5
		c0.4,0.6,0.7,1.3,1.3,2.5C284.5,135.3,284.5,135.3,283.4,134.5z M278.9,342.1c-1.7,0.3-3,1.3-4.6,2.2c0.3,0.7,0.5,1.2,0.8,1.7
		c-0.2,0.6-0.4,1.3-0.8,2.5c2.5-2,4.7-3.4,7.2-4c0.7-0.2,1.3-1.1,2-1.7c-1.2-1.1-2.2-2-3.2-2.9c-0.9-1.2-1.5-2.5-1.5-4.5
		c-1.2,1.1-2.1,2-3,2.8c-1.2,1-1.2,2.3-1,4c2.1-0.9,3.9-1.6,5.7-2.4c0.2,0.8,0.4,1.6,0.5,2.4c-2.6,2.8-2.6,2.8-6.1,3.9
		c0.4-1.1,1.6-1.5,2.4-2.1C278,343.4,279,343.1,278.9,342.1c0-0.1,0.2,0,0.3-0.1c0.1,0,0.1-0.2,0.2-0.2
		C279.2,341.9,279,342,278.9,342.1z M204.4,311.9c-3,0.8-5.5,2.4-7.5,4.7c-0.9,1-1.9,2-2.8,3c-4.4,4.9-6.7,10.8-7.8,17.2
		c-0.5,2.8-0.3,5.8-0.8,8.6c-0.5,2.8-0.1,5.5,0.4,8.2c0.1,0.7,0.5,1.5,0.5,2.2c0.1,4.6,1.8,8.8,3.7,12.9c2,4.2,4.7,8,8.6,10.7
		c2.7,1.9,5.7,3,9.5,3.1c-0.7-0.6-1-0.9-1.4-1.1c-6-3.1-9.6-8.2-12.3-14.2c-2.1-4.7-3.3-9.7-3.8-14.8c-0.9-8.9-0.2-17.5,3.3-25.8
		c2.3-5.4,5-10.4,9.9-13.9C204.1,312.6,204.1,312.2,204.4,311.9c0.2-0.1,0.5-0.2,0.3-0.1C204.9,311.7,204.6,311.8,204.4,311.9z
		 M270,121.6l-0.2-0.1L270,121.6c0.1,0.6-0.1,1.4,0.1,2.1c1,3.5,1.9,7,4,10.1c1.1,1.7,1.8,3.9,2.2,5.9c1.1,5.5-0.4,10.2-4.9,13.7
		c-1.7,1.4-3.7,2.1-5.9,1.6c-1-0.2-2-0.3-3-0.3c-4.4-0.1-8-1.9-11.1-4.9c-3.6-3.5-6.7-7.4-9.2-11.9c-0.7-1.3-1.4-2.7-2.4-3.8
		c-5.4-6.3-10-13.2-14.8-19.9c-2.8-3.8-5.9-7.5-8.9-11.2c-1-1.2-2.1-2.5-3.7-3.1c-4.6,2.1-4.8,2.2-6.4,4.4c0.5,0.2,0.9,0.4,1.3,0.6
		c4.7,1.4,8.6,4,11.8,7.7c1.2,1.4,2.4,2.9,3.6,4.4c8.8,11.5,11.1,24.4,9,38.4c-0.8,5.5-3,10.6-5.8,15.4c-0.4,0.7-0.8,1.5-1.1,2.1
		c2.9,2.8,7.1,1.9,10.2,4.5c-1,0.4-1.7,0.8-2.4,0.8c-3.9-0.1-7.2-1.8-10.6-4c-2.7,1.6-5.4,3.1-8.1,4.6c-0.1,0.5-0.3,1-0.4,1.5
		c-1.3,5.6-2.3,11.3-3.8,16.8c-1.5,5.6-3.7,10.9-7.8,15.2c-1,1.1-1.3,2.3-1.1,3.8c0.3,2.7,0.7,5.5,0.6,8.2c-0.1,2.7,0.6,5.2,1.7,7.6
		c0.6,1.3,0.9,2.7,1.5,4.2c3.3,1,13.9,2.8,16.6,2.8c-4.8-3.8-5.6-4.9-6-7.9c0.6,0.5,1.1,0.8,1.5,1.2c1.9,1.8,3.7,3.7,5.6,5.5
		c0.2,0.2,0.5,0.4,0.5,0.5c-0.2,1.5,0.9,1.6,1.9,1.8c4.7,0.9,9.2,2.2,13.7,4c0.7,0.3,1.4,0.5,2.1,0.6c1.6,0.3,3.2,0.6,4.8,0.9
		c3.1,0.7,6.1,1.4,9.1,2.2c3,0.7,6.1,1.1,9,2.5c1.8,0.8,3.8,1.2,5.9,1.1c0.6,0,1.1-0.3,1.9-0.5c-0.9-2-0.5-3.8,0-5.7
		c0.6-2,1.1-4.1,1.5-6.2c0.5-2.5,0.9-4.9,0.8-7.4c-0.1-3.9,0-7.8,0-11.7c0-0.9,0.2-1.7,0.3-2.6c0.1-1.1,0.4-2.2,0.4-3.3
		c0.2-4.3,0.8-8.5,2.2-12.6c0.7-2.2,1-4.4,1-6.6c0-3.9,0.1-7.8,0-11.7c0-3.3,0.7-6.2,3.8-7.9c0.3-0.2,0.6-0.5,0.9-0.7
		c1.2-0.8,1.9-1.9,2.3-3.3c0.8-2.6,1.8-5.2,2.3-7.9c0.5-2.4,0.7-5,0.8-7.4c0-2.2-0.4-4.5-0.6-6.7c-0.3-4.1-1.5-7.7-3.9-11.2
		c-3.2-4.6-6.6-9.1-8.8-13.9C272.7,123.3,271.3,122.5,270,121.6z M260,306.9c1.1,0.2,1.1,1.3,1.4,2c1.8,4.1,3.5,8.3,5.9,12.2
		c0.8,1.3,1.4,2.6,1.4,4.2c0,0.6,0.5,1.1,1,2c0.3-4.9,0.7-9.3,0.9-13.6c0.2-4.3-0.1-8.6,0.5-13c0.2,0.4,0.4,0.7,0.4,1.1
		c0,7.4,0,14.8-0.1,22.2c0,1.7-0.4,3.5-0.8,5.2c-0.3,1.1-0.3,2.1-0.1,3.3c0.5,3.2,1,6.4,1.2,9.7c0.2,2.4,0,4.9,0,7.4
		c0.8-1.8,1.2-3.6,1.4-5.4c0.3-3,0.4-6,0.6-9c0.2-2.5,0.4-5,0.6-7.5c0.3-2.7,0.8-5.5,1-8.2c0.6-7.4,0.9-14.8,1.5-22.1
		c0.4-3.9,0.2-7.6-0.7-11.5c-1.2-5.1-1.6-10.4-1.4-15.7c0.1-2.3-0.4-4.2-1.8-5.9c-0.2-0.3-0.5-0.6-0.8-0.9c-1.1-0.2-2.3-0.4-3.7-0.6
		c1.1-0.4,2-0.7,3.1-1.1c0-2.3,0-4.4,0-6.5c0-0.1-0.1-0.3-0.2-0.3c-0.1,0-0.2,0-0.2,0c-1.3,1.7-1,4-2.3,6c-1.1-2.5,0.7-4.4,0.8-6.5
		c-0.8,0-1.4,0-1.8,0c-1.2,2-0.5,4.4-2,6.2c-1.2-2.2,0.6-4.2,0.4-6.3c-1.1-1-2.2-1.1-3.6-0.8c-0.2,1.6-0.4,3.1-0.6,4.6
		c0,0-0.2,0.1-0.5,0.1c-0.7-1.8,0.6-3.7-0.5-5.5c-0.8-0.7-1.8-1.2-3.3-0.5c-0.2,2.1-0.5,4.3-0.7,6.6c-0.2-0.1-0.4-0.2-0.4-0.2
		c-0.9-2.3,0.2-4.7-0.3-7.2c-1.6-0.5-3.1-1.3-4.8-1.2c-0.9,1.7,0,3.7-1.7,5.1c-0.2-2.2-0.5-4.1-0.7-6.1c-9.8-4-20-5.9-30.4-7.6
		c-0.4,1.8-0.7,3.4-1,4.9c-0.2,0-0.3,0-0.5-0.1c0-1.7,0-3.4,0-5.2c-1.6-0.4-2.9-0.7-4.2-1c-1.4-0.3-2.8-0.7-4.2-0.7
		c-1,1.7,0,3.7-1.3,5.3c-1.6-2,0.3-4-0.3-5.8c-0.5-0.1-1-0.2-1.5-0.4c-1,2,0.3,4.2-1,6.3c-1.2-1.1-0.7-2.3-1-3.3
		c0-0.1-0.2-0.2-0.3-0.3c-0.5,0.5,0.1,1.5-1.2,1.7c0.1-1.2,0.1-2.3,0.2-3.1c0.5-0.9,1.8-0.4,1.4-1.8c-0.6-0.1-1.3-0.1-2-0.2
		c-1.2,1.2-0.8,2.8-1.4,4c-0.5,0.1-0.9,0.3-1.4,0.4c-0.3,0.9-0.6,1.9,0,2.8c4.7,1,9.2,1.8,13.9,2c1.6,0.1,3.2,0.4,4.8,0.7
		c0.6,0.1,1.4,0.3,1.3,1.2c-1.4-0.2-2.8-0.4-4.1-0.5c-1.4-0.1-2.8,0-4.1-0.1c-1.4-0.1-2.7-0.3-4.1-0.4c-1.4-0.1-2.7-0.2-4.1-0.4
		c-1.3-0.2-2.5-0.8-4-0.7c-0.3,1.7-0.5,3.2-0.7,4.7c-0.3,2.2-0.5,4.5-1,6.7c-0.8,3.7-1.3,7.4-0.8,11.2c0.1,0.6,0.1,1.6-0.2,1.8
		c-0.9,0.6-0.8,1.5-0.8,2.3c-0.2,6.8,0.1,13.5-0.4,20.3c-0.4,5.9,0.9,11.7,3.1,17.2c0.2,0.5,0.6,1,1.1,1.7c1.8-1.6,4.4-1.7,5.5-4
		c1.7,0.8,1.7,0.8,2.8,0.5c1.7-0.5,3.5-0.4,5.2-0.2c0.9,0.1,1.7,0.3,2.6,0.3c2.1,0,3.9,0.7,5.7,1.6c2.9,1.4,5.2,3.4,7.3,5.9
		c5.3,6.3,7.7,13.7,8.8,21.6c0.7,4.8,0.8,9.7,0.1,14.6c-0.7,5.1-1.3,10.2-3.9,14.8c-0.3,0.5-0.6,1.1-0.1,1.7
		c6.5,0.9,15.6,1.1,18.1,0.4c-0.4-0.4-0.7-0.8-1-1.1c-2.8-2.8-5.7-5.7-8.5-8.5c-1.1-1.2-2.1-2.5-3-3.8c-0.4-0.5-0.4-1.2,0.6-1.6
		c5.9,4.1,11.4,8.7,14.4,15.6c5.8,0.7,18.3,0.9,21.7,0.4c-1.7-6.8-3.5-13.6-5.1-20.4c-0.6-2.7-1.1-5.4-1.4-8.1
		c-0.6-5.6-0.9-11.2-1.4-16.9c-0.1-1.5-0.6-2.9-1.2-4.3c-1.3-2.8-2.6-5.7-3.8-8.6C261.2,310.9,260.7,308.8,260,306.9L260,306.9z
		 M180.3,348.1c1.1-0.1,1.5,0.7,2.1,1.3c0.3,0.4,0.7,0.8,1.4,0.2c-0.1-0.7-0.6-1.6-0.4-2.3c0.7-2.1,0.3-4.2,0.6-6.3
		c0.1-1.1,0.3-2.2,0.5-3.3c0.5-2.2,1.1-4.4,1.7-6.5c1.5-5.1,3.5-9.9,7.4-13.7c0.9-0.9,1.7-1.8,2.6-2.8c-0.3-0.8-0.4-1.6-0.8-2.2
		c-1.1-1.6-1.5-3.4-1.9-5.3c-0.7-4.2-1.2-8.4-0.8-12.7c0.1-1.4,0.1-2.8,0-4.1c-0.1-2.9-0.2-5.8-0.2-8.6c0-4.6,0.1-9.3,0.2-13.9
		c0-2,0.1-4,0.4-6c0.9-6.1,2-12.1,2.8-18.2c0.5-3.5,0.6-7,0.9-10.5c0.1-1.4-0.2-2.7-0.5-4c-0.9-3.5-1.5-7.1-1.4-10.6
		c1.8-1.4,1.8-1.4,2.6-2.8c1.3-2.2,2.4-4.5,4-6.4c2.9-3.5,4.4-7.5,5.1-11.9c0.3-1.6,0.5-3.2,0.9-4.8c0.9-4,1.6-8.1,2.7-12.1
		c1.3-4.3,2.5-8.6,2.9-13.2c0.2-2,0.5-3.9-0.2-5.6c0.5-1.1,0.9-1.9,1.2-2.7c1.5-3.8,3.7-7.4,4.1-11.6c0-0.1,0.1-0.3,0.2-0.3
		c0.3-0.2,0.6-0.5,0.9-0.5c0.3,0,0.7,0.3,0.8,0.6c0.2,0.6,0.5,1.2,0.4,1.8c-0.5,4.5-1.5,8.9-4.9,12.3c-0.3,0.3-0.6,0.8-0.8,1
		c-0.1,4.5-0.2,8.9-0.3,13.6c2.1-1,3.9-1.8,5.5-2.6c0.1-0.8,0.2-1.3,0.4-2c1.1,0.5,2,0.8,3,1.2c1.4-1.8,2-3.9,2.7-5.9
		c2.7-7.5,3.5-15.3,3.1-23.3c-0.5-10.4-4-19.6-10.3-27.7c-1.7-2.2-3.7-4.1-5.8-5.9c-2-1.8-4.4-2.9-7-3.6c-1.6-0.4-2.9-0.2-4.2,0.9
		c-1.7,1.6-3.5,3.2-5.3,4.8c-1.5,1.4-2.8,2.8-4.9,3.3c-0.9,0.2-1.8,0.9-2.6,1.5c-1.8,1.5-3.7,3.1-5.4,4.7c-2.9,2.8-5.4,6-6.8,9.8
		c-2.8,7.8-3.8,15.8-1.9,23.9c2.4,1.2,2.7,1.6,3,3.9c-1.3-1.1-2.4-2-3.2-2.7c-1.5,0.3-2.7,0.5-3.9,0.8c-2,4.9-3.8,11.6-4.3,16.3
		c-0.1,0.6-0.1,1.3,0,1.9c0.2,1.7,0.6,3.4,0.8,5.2c1.5,1,1.5,1,2.6,3c0.6,1.1,1.3,2.2,2,3.2c1.5,2.3,1.6,2.2,1.6,3.5
		c-2.7-0.9-3.7-3.5-5.7-6.2c0.3,1.6,0.3,2.4,0.5,3.1c0.7,2.7,1.5,5.3,2.2,8c0.5,2.1,0.9,4.2,1.2,6.3c0.2,1.5,0,2.9-1.1,4.2
		c-0.6,0.7-0.8,1.8-0.8,2.8c-0.3,5.1-0.6,10.3,1.7,15.1c0,0.1,0,0.2-0.1,0.6c-0.6,0.4-1.3,0.8-1.7,1.1c-0.5,4.8-0.9,9.4-1.3,14
		c-0.1,1,0.1,2,0.2,3c0.2,3.5,0.8,7,0.5,10.5c-0.6,6.4-0.6,12.7,1.1,19c3.9,15.1,5.5,30.5,6.8,46c0.1,0.9,0.1,1.8-0.1,2.6
		c-1,4.9-2.2,9.7-3.2,14.6c-0.5,2.4-0.6,5-1,7.4c-0.3,2.1,0.4,3.9,1.7,5.6c1.3,1.8,2.9,3.4,3.9,5.5c0.5,1.1,1.9,1.6,3.1,2
		c0.8,0.2,1.6,0.6,2.4-0.2c-0.7-1.2-1.5-2.4-2.1-3.6C181.2,350.4,180.3,349.4,180.3,348.1L180.3,348.1z M222.7,380.5
		c4.5,5.4,7.9,11.1,12.2,16.1c0.3-0.4,0.5-0.7,0.8-1.1c1.4,1.2,2.2,2.7,2.6,4.4c0.2,0.9,0.2,1.7-0.6,2.4c-0.3,0.3-0.6,0.8-0.8,1.1
		c0,3,0.1,5.9,0,8.8c-0.1,1.7-0.7,3.4-1,5.1c-1.8,1.9-2.4,4.4-3.3,6.7c-1.2,3.3-2.4,6.6-3.3,10c-0.5,2-1,3.9-1.8,5.7
		c-1.6,3.8-3.3,7.6-4.9,11.4c-1.1,2.7-1.5,5.5-1.4,8.5c0.2,3.9,0.3,7.8,0.5,11.6c0.1,1.4,0.2,2.8,0.3,4.1c0.1,0.6,0.2,1.3,0.6,1.7
		c1.1,1.1,1.3,2.4,1.5,3.8c0.3,2.1,0.6,4.2,0.8,6.3c0.5,6,0.9,12,1.4,18c0.5,5.7,1.1,11.5,2.3,17.1c0.8,3.8,1.1,7.7,1.6,11.5
		c0.2,1.4,0.3,2.9,0.8,4.3c0.5-0.2,0.8-0.4,1.4-0.6c0,0.6,0.1,1.2,0.1,1.8c0,2,0,4,0,6c0,0.6,0.3,1.1,0.4,1.8
		c3.9-0.3,7.5-1.9,11.4-1.2c1.7-4.5,4.1-8.4,8.4-10.8c-0.2-2.6-0.3-5.1-0.5-7.6c-0.1-2.1-0.2-4.3-0.2-6.4c0.2-6,0.4-12,0.7-18
		c0.2-3.4,0.5-6.7,1-10.1c0.3-2.4,0.9-4.7,1.3-7c1.7-9.9,3.4-19.7,5.1-29.6c0.2-1,0.2-2,0.3-3c0.5-5.8,1.6-11.4,3.1-17
		c0.1-0.5,0.3-1.2,0.6-1.3c2.1-0.9,1.9-3,2.8-4.6c0.5-1,0.7-2.2,1.4-3c1.7-1.9,2.4-4,3-6.4c0.2-1,0.6-1.9,1.1-2.8
		c1.1-2.2,1.5-4.5,1.5-6.9c0-1.2,0-2.6,0.4-3.7c0.5-1.5,0-2.6-0.8-3.6c0.4-1.6,0.9-2.9,1.2-4.2c0.5-2.1,1.1-4.1,1.2-6.3
		c0.5-6.5-0.4-13-1.5-19.4c0-0.1-0.2-0.2-0.4-0.3c-0.2,0-0.6-0.1-1-0.1c-10.4,0.5-20.8-0.2-31.1-1.3c-3.6-0.4-7.2-0.5-11.1-0.4
		C228.6,375.2,226,378.1,222.7,380.5z M219.8,381.8c-1.8,1.9-4.2,1.6-6.5,1.7c-0.1,0-0.3,0-0.4,0.1c-2.7,1-5.4,0.6-8.2,0.1
		c-0.7-0.1-1.5-0.4-2.3,0.5c-0.1,0.7-0.1,1.7-0.2,2.7c-0.1,0.6,0,1.4-0.4,1.8c-1.5,1.6-1.7,3.9-2.6,5.8c-0.6,1.2-1,2.8-2.2,3.4
		c-1.8,0.8-2.1,2.3-2.7,3.8c-0.4,1.1-0.4,2.5-1.7,3.2c-0.4-0.5-0.8-1-1.2-1.6c-1.9,2-3.6,3.8-5.2,5.7c-2,2.4-4.2,4.7-6.8,6.5
		c-0.6,0.4-1.1,1-1.5,1.6c-2,3.9-3.9,7.8-6,11.8c1.4,1.9,0.8,3.9,0.2,5.8c-1.6,4.9-3.1,9.8-4.8,14.6c-1.5,4.5-3.1,9-4.6,13.5
		c-0.7,2.1-1,4.4-3.1,5.8c-0.3,0.2-0.4,0.6-0.5,1c-1.6,3.1-3.2,6.3-4.7,9.4c-0.2,0.4-0.6,0.9,0.2,1.5c0.4-0.1,1-0.4,1.6-0.5
		c0.5-0.1,1-0.9,1.6,0.1c-1.4,1.8-2.8,3.7-4.3,5.7c1.3,6.3,6.1,11.9,11.6,13.3c0.2-0.4,0.4-0.9,0.6-1.3c1.7-4.6,4.2-8.8,7.2-12.7
		c1.4-1.9,2.7-3.9,4-5.9c3.3-5.1,7-9.7,11.5-13.8c0.5-0.5,1.1-1,1.5-1.6c3.5-5.5,7.7-10.5,11.8-15.6c1.2-1.5,2-3.1,2.9-4.8
		c2.2-4,4.2-8,6.4-11.9c1-1.7,2.1-3.4,3.4-5c1.2-1.6,2.7-3,3.5-4.9c0.2-0.4,0.5-0.9,0.9-1.1c1.9-1.4,3.8-2.9,5.7-4.2
		c4.1-2.8,7.4-6.3,10.7-10.1c-0.7-1-0.1-2.6-1.8-3.2c-1,0.9-2.1,1.8-3.1,2.6c-1.3,1-2.8,1.7-4.5,1.8c-0.6,0-1.3,0-1.4-1
		c2.9-1.5,5.9-3.1,7.9-5.7c-2.1-6-6.1-10.5-9.6-15.4C221.9,384.1,221.3,382.8,219.8,381.8z M191.4,346.9c0.3,2.3,0.7,5.3,1.1,8.3
		c0.9,7.4,3.7,14,8.4,19.8c1.7,2.1,3.8,3.6,6.1,4.9c5.5,3.1,12.5,1.4,16.5-2c4.3-3.6,7.2-8,9-13.2c2.4-6.9,3.6-14,3-21.4
		c-0.6-7.2-2.1-14.1-5.7-20.4c-2.4-4.3-5.6-8-10.2-10.2c-5.2-2.5-10.2-1.8-14.9,1.5c-4.5,3.1-7.4,7.4-9.6,12.3
		C192.6,332.7,191.9,339.4,191.4,346.9z M151.6,476.7c-0.8,0.4-1.5,0.5-1.8,0.9c-1.1,1.5-2.7,1.7-4.3,1.8c-2.5,0.1-5,0.3-7.5,0.4
		c-1.6,0.1-3.2-0.1-4.8-0.6c-1.9-0.6-3.8-1-5.9-1.6c-1.9,3.2-4,6.2-4.1,10c0,0.9-0.3,1.7-0.4,2.6c-0.1,2.6-0.2,5.2-0.2,7.9
		c0,1.6,0.5,3.1,1.6,4.5c1.3,1.7,2.2,3.6,3.4,5.4c0.8,1.2,1,2.4,1.1,3.8c0.3,3.2-0.3,6.2-1.7,9.1c-0.4,0.8-0.6,1.7-0.8,2.5
		c-0.7,2.4-1.6,4.7-2.2,7.2c-0.9,3.6-1.2,7.1,0.3,10.7c1.6,3.8,3.7,7.1,7,9.6c1.4,1.1,2.6,2.3,3,4c3.5,1.5,6.9,2.7,10.5,3.4
		c2.2,0.4,4.1,0.4,6.1-0.8c0.6-2.3,1.2-4.6,1.1-7c-0.1-1.4-0.4-2.7-0.4-4.1c-0.1-1.5,0-3,0-4.7c-1,0.1-1.8,0.3-2.7,0.4
		c-0.7,0-1.5-0.1-2.2-0.3c-0.9-0.3-1.5-1.4-1.3-2.1c0.3-0.8,0.9-1.2,1.8-1.2c1.4,0.1,2.7,0.2,4.1,0.3c0.2,0,0.4-0.2,0.6-0.3
		c-0.1-0.7-0.1-1.5-0.2-2.2c0-0.2-0.2-0.5-0.3-0.8c-0.7,0.1-1.4,0.4-2.1,0.3c-1.1-0.1-2.3-0.2-3.2-0.6c-1.6-0.7-1.7-2.4-0.4-3.7
		c0.3-0.3,0.8-0.6,1.3-0.9c-0.3-0.2-0.6-0.4-0.8-0.7c-0.9-0.7-1.2-1.6-0.8-2.7c0.4-1.1,1.3-1.5,2.3-1.5c1,0,2,0,3.6,0
		c-1.5-0.8-2.5-1.2-3.3-1.9c-1.5-1.1-1.5-2.9-0.1-4.2c0.4-0.4,0.9-0.7,1.4-1.1c-0.3-0.5-0.6-0.7-0.8-1.1c-0.9-1.6-0.9-2.5-0.2-3.1
		c1-0.8,2-0.4,2.8,0.1c3.4,2,7.1,1.9,10.8,2.5c0.9-1.3,1.7-2.4,2.4-3.6c0.9-1.6,1.2-3.2,0.3-4.9c-0.5-0.1-0.9-0.2-1.2-0.2
		c-4.7-0.4-8.7-2.4-12.1-5.4c-2.7-2.4-4-5.4-3.5-9.1c0.4-2.6,0.7-5.2,1.2-7.8c0.3-1.8,0.7-3.7,1-5.3
		C151,479.9,151.9,479,151.6,476.7z M183.2,357.9c-3-0.6-5.6-1.5-7.4-4c-3.3,1.7-6.7,0.9-10.1,0.8c-0.7,0-1.4-0.5-1.9-1
		c-3.1-2.8-3.6-6.5-3.2-10.3c0.1-1.5,1.2-2.8,2.3-3.8c1.1-0.9,2.3-1.4,3.8-0.9c1.4-0.8,2.9,0.3,4.4,0.2c0.9-4,1.8-7.9,2.7-11.8
		c0.4-1.8,0.4-3.7,0.8-5.5c0.5-2-0.4-3.5-1.7-4.7c-2.7-2.4-5.5-4.5-9.4-3.1c-0.7,0.2-1.5,0.2-2.2,0.3c-2.1,0.1-3.8,1.1-5.3,2.6
		c-4.2,4-7,8.8-8.6,14.3c-1.6,5.6-2.6,11.2-2.2,17c0.4,7.5,2.2,14.6,5.9,21.1c2.2,3.9,5.2,7.1,9.3,9c2.9,1.4,6,2,9.1,1
		c1.4-0.5,2.8-1,4.2-1.7c3-1.5,5.3-3.8,6.7-6.8c0.7-1.6,1.2-3.3,1.6-5C182.6,363.2,183.4,360.9,183.2,357.9z M287.8,341.8
		c-0.2,0.2-0.3,0.3-0.4,0.4c-0.2,0.1-0.4,0.3-0.7,0.4c-3.8,1.1-4.9,4.2-5.9,7.5c-0.2,0.5,0.7,1.2,1.3,1c0.4-0.1,0.8-0.2,1-0.4
		c1.9-1.7,4.1-2.8,6.5-3.7c2.6-1,4-2.9,4.1-5.7c0.1-2.4,0.7-4.7,1.3-7c1.1-4,1.8-8.1-0.4-12.1c-0.6-1.1-0.8-2.4-1.2-3.5
		c-0.2-0.6-0.3-1.3-0.7-1.7c-1.4-1.3-1.7-3-2-4.7c-1-5.3-1.8-10.6-2.8-15.9c-0.8-4-0.9-8-0.8-12c0.1-2.8,0.1-5.5-0.1-8.3
		c-0.5-8.9-0.5-17.8,0-26.7c0.1-2.7,0.2-5.5,0-8.3c-0.3-7-0.8-14-1.2-21c-0.1-1-0.2-2-0.5-2.9c-1.2-4.1-2.5-8.1-3.7-12.2
		c-0.9,0-1.6-0.2-1.7-1.1c-0.2-1.1-0.3-2.1-0.6-3.6c-1.3,2.4-1.5,4.6-1.9,6.8c-0.6,3.2-0.8,6.5-1.6,9.6c-0.7,3-0.9,5.9-0.8,8.9
		c0,1.8,0.1,3.5,0,5.3c-0.1,4.1,0,8.3-0.8,12.4c-0.7,3.2-1.4,6.3-1.9,8.6c0.5,1.9,0.9,2.9,1.1,4c0.2,1,0.3,2,0.1,3
		c-0.4,2.2,0.2,3.9,2.1,4.9c0.2,4.7,0.3,9.2,0.6,13.7c0.3,4.7,1.7,9.1,3,13.6c0.5,0,1,0,1.5,0c0.7,1.6,0.5,2.9-1,4.1
		c1.4,3-0.2,6.2,0.4,9.3c1.4,0,1.6-1.8,3.1-1.4c-0.1,0.4,0,0.8-0.2,1c-0.7,1-1.5,2-2.2,3c-0.4,0.6-1,1.3-1,1.9
		c-0.1,2.9-1.4,5.5-2.5,8.1c0.8,2.7,1.9,5,3.3,7.3c0.4,0.7,1.1,1.6,1,2.3c-0.1,4,0.5,8-0.2,12c1.4,1,2.7,2.3,4.7,1.2
		c0.2-1.5,0.1-3.1,0.7-4.4c1.2-2.8,1.6-5.7,2-8.7c0.3-2.3,1.1-4.4,2.2-6.3c0.2-0.4,0.7-0.6,1.4-1.2c-0.1,1.1,0,1.7-0.2,2.2
		c-0.5,1.7-1.2,3.3-1.8,4.9c-0.1,0.2,0.1,0.5,0.2,0.7c0.6,0.9,2.1,0.7,2.5,1.9c-1.1,1.3-2.2-0.3-3.4,0.5c-0.6,3.5-0.8,7.1,0.7,10.9
		c-0.9-0.4-1.6-0.6-2.2-0.9C288.1,340.5,287.9,341.2,287.8,341.8z M150.6,485.5c-0.6,2-1.2,4.1-1.6,6.1c-0.6,2.8-0.2,5.4,1.9,7.6
		c1.6,1.6,3.4,2.9,5.4,3.9c1.7,0.8,3.3,1.7,4.1,3.4c0.9,0,1.7,0,2.5,0c0.1-0.9,0.2-1.8,0.4-2.6c0.2-0.8,0.5-1.6,0.8-2.6
		c-3.3-1.5-6.1-3.6-8.3-6.3C153.5,492.2,152.2,488.9,150.6,485.5z M163.8,351.3c3.4,1.2,6.8,1.4,10.5,1c-0.3-2-1.6-3.4-2.3-5.1
		c-0.7-1.8,0-4-1.3-5.8c-0.8,0.1-1.5,0.2-2.2,0.3c-0.7,0.1-1.5,0.3-2.2,0.4c-0.7,0-1.4-0.2-2-0.3
		C161.7,344.7,162.2,347.8,163.8,351.3z M199.6,239.8c0.8-5.5,0-10.3,0.3-15c0.1-2-0.2-4-0.3-5.9c0-0.2-0.3-0.3-0.4-0.4
		c-0.9,0.8-1.7,1.7-2.8,2.7c0.5,2.2,1,4.6,1.4,7.1c0.2,0.9,0.4,1.7,0.4,2.6C198.1,233.6,198.8,236.3,199.6,239.8z M276.1,326.4
		c-1,4-1.1,6.5-0.6,9.7c0.7-0.5,1.2-0.9,1.8-1.4c0.6-0.5,1.3-1,2-1.5C278.1,331,278,328.5,276.1,326.4z M231.9,552.6
		c1.5-0.3,2.7-0.4,3.9-0.7c1.3-0.4,2.6-0.8,3.8-1.4c1-0.5,2.2-0.9,3-2.4c-3.6,0.9-6.8,1.8-10.2,2.7
		C232.3,551.1,232.2,551.7,231.9,552.6z M279.5,346.8c-1.4,0.7-2.5,1.1-3.6,1.7c-0.4,0.2-0.8,0.6-1,1.1c-0.2,0.5-0.2,1.2,0,1.7
		c0.1,0.3,0.8,0.6,1.2,0.6c0.7,0,1.4-0.3,2.2-0.4c0.1-0.8,0.2-1.5,0.4-2.2C278.9,348.6,279.2,348,279.5,346.8z M223.6,57.4
		c0.4-1.1,0.8-1.9,1.1-2.9c0.1-0.2-0.1-0.5-0.1-0.8c-0.5-0.4-1-0.8-1.6-1.3C221,54.2,221,54.4,223.6,57.4z M279.4,328.3
		c1-0.3,0.9-1,0.8-1.6c-0.3-0.8-0.7-1.6-1-2.4c-0.7-1.4-1.3-2.8-2.4-5C276.5,323.3,278.4,325.6,279.4,328.3z M280,180.1
		c-0.9,1-0.9,1-0.7,5.4C280.4,183.4,280.5,182.7,280,180.1z M233.6,30.1c1.7-0.9,2.9-2.2,3.7-3.8c0.1-0.1-0.2-0.4-0.4-0.6
		C234.3,27.9,234.3,27.9,233.6,30.1z M251.7,17.8c-1-0.9-1.7-0.2-2.3,0.3c-0.4,0.4-0.4,1.1-0.5,1.7c0,0.1,0.4,0.3,0.5,0.3
		C250.4,19.6,251.2,18.9,251.7,17.8z M270.1,19.9c1,1,0.3,2.1,1.6,2.3c1.7-2.3,1.7-2.3,1.2-2.7C272.3,19.5,271.7,19.6,270.1,19.9z
		 M148.6,531c1.7,0.7,2.6,1.2,3.6,1.3c0.6,0.1,1.1-0.4,0.7-1.3C151.8,531,150.6,531,148.6,531z M155.6,527.5c0.3-0.7,0.4-1,0.6-1.6
		c-1.2-0.1-2.2-0.1-3.2-0.1c-0.2,0-0.3,0.2-0.5,0.3C153.4,526.4,154.3,526.8,155.6,527.5z M236,19c-1.7,1.1-2.7,1.7-3.8,2.4
		C233.8,21.6,235.1,21.5,236,19z M160.1,520.4c-1.4,0.1-2.2,0.2-3.3,0.2C158.8,522,158.8,522,160.1,520.4z M254.3,26.3
		c1,0.2,1.7,1.8,3.1,0.9C256.4,26.4,255.4,26,254.3,26.3z M225,44.4c0.4-1.8,0.6-2.8,0.8-3.9c0-0.2-0.2-0.4-0.3-0.6
		C224.5,40.7,224.5,40.7,225,44.4z M237.2,37.6c0.2,0.1,0.4,0.1,0.6,0.2c0.4-0.5,0.8-0.9,1.1-1.4c0.4-0.7,0.2-0.9-1.2-1.2
		C237.5,36.1,237.3,36.9,237.2,37.6z M265.6,13.8c-0.2,0.7-0.5,1.4-0.7,2.1c0,0,0.4,0.3,0.5,0.3C266.7,15.6,266.7,14.8,265.6,13.8z
		 M231.1,41.1c-2.4-0.2-2.4-0.2-2.3,1.5C229.4,42.2,230,41.8,231.1,41.1z M232.1,43.6c0.4-0.7,0.8-1.1,1-1.6
		c0.1-0.1-0.1-0.5-0.2-0.6c-0.1-0.1-0.5-0.1-0.6,0C231.6,41.9,231.2,42.4,232.1,43.6z M266.6,47.4c0,0.2,0.1,0.4,0.1,0.6
		c0.7,0,1.4-0.1,2.1-0.1c0.1,0,0.3-0.4,0.3-0.6c0-0.2-0.3-0.4-0.5-0.4C267.9,47,267.3,47.2,266.6,47.4z M256.7,21.3
		c-0.5-0.5-0.9-0.3-1.2,0.2c-0.1,0.1,0,0.4,0.1,0.6c0,0,0.3,0.1,0.3,0C256.3,21.8,256.5,21.6,256.7,21.3z M250.4,25.6
		c0.3,0.1,0.6,0.3,0.9,0.4c0.1,0,0.3-0.4,0.3-0.4c-0.2-0.2-0.5-0.4-0.8-0.6C250.7,25.1,250.6,25.3,250.4,25.6z M244.1,16.7
		c-0.1-0.2-0.2-0.4-0.4-0.5c-0.1-0.1-0.4,0.1-0.6,0.1c0.1,0.2,0.2,0.5,0.3,0.5C243.6,16.9,243.9,16.8,244.1,16.7z M232.4,26.9
		c0.5-0.6,0.8-0.8,1-1.1c-0.2-0.1-0.5-0.2-0.6-0.1C232.7,25.9,232.7,26.2,232.4,26.9z M226.5,20.4c0.1,0.2,0.2,0.4,0.4,0.5
		c0.1,0.1,0.4,0,0.6,0.1c-0.1-0.2-0.2-0.5-0.4-0.7C227,20.2,226.7,20.4,226.5,20.4z M232.4,39.8c0.6-0.7,0.8-1,1-1.2
		c-0.2-0.1-0.4-0.1-0.6-0.2C232.7,38.7,232.6,39,232.4,39.8z M252.6,24.4c0.2-0.1,0.5-0.2,0.5-0.3c0.1-0.2-0.1-0.4-0.1-0.7
		c-0.2,0.1-0.4,0.2-0.5,0.4C252.5,24,252.6,24.3,252.6,24.4z M227.5,41.1c0-0.1-0.1-0.2-0.1-0.3c-0.1,0.1-0.2,0.1-0.2,0.2
		c0,0.1,0.1,0.3,0.2,0.4C227.5,41.3,227.5,41.2,227.5,41.1z M259,25.9c-0.1,0.1-0.1,0.1-0.2,0.2c0,0.1,0.1,0.2,0.1,0.3
		c0.1-0.1,0.1-0.1,0.2-0.2C259.2,26,259.1,25.9,259,25.9z M229.8,542.2c0-0.1,0-0.2,0.1-0.3c-0.1,0-0.2,0.1-0.4,0.1
		c0,0.1,0.1,0.2,0.1,0.3C229.6,542.3,229.7,542.2,229.8,542.2z M245.6,20.7l-0.2,0l0.1,0.3L245.6,20.7z M229.8,552.3l0.3,0.1l0-0.2
		L229.8,552.3z M256.7,18.2c-0.1-0.1-0.2-0.2-0.2-0.2c-0.2,0-0.4,0.1-0.6,0.2c0.1,0.1,0.2,0.2,0.2,0.2
		C256.4,18.4,256.5,18.3,256.7,18.2z M219.8,49.9c0,0.1-0.1,0.2-0.1,0.3c0.1,0,0.2,0,0.4,0c0-0.1,0-0.2-0.1-0.3
		C220,49.9,219.9,49.9,219.8,49.9z M231.4,54.7c-0.1-0.1-0.1-0.2-0.2-0.3c-0.1,0.2-0.2,0.4-0.3,0.6c0,0.1,0.1,0.2,0.2,0.3
		C231.2,55.1,231.3,54.9,231.4,54.7z M226.7,57.4c-0.1-0.1-0.2-0.3-0.2-0.3c-0.2,0-0.4,0.2-0.6,0.2c0.1,0.1,0.2,0.3,0.2,0.3
		C226.3,57.6,226.5,57.5,226.7,57.4z"/>
	<path d="M268.4,553.5c-2.8,0.5-5.1,2-7.5,3.3c-0.8,0.4-1.5,0.9-2.3,1.2c-0.4,0.1-1.2,0-1.4-0.2c-0.3-0.4-0.5-1.1-0.4-1.7
		c0.2-1.2,1.1-2,2.1-2.5c2-1.1,4-2.1,6-3c1-0.5,2-0.8,3-1.1c-0.2-1-0.8-1.3-1.4-1c-3.5,1.6-7.1,3.2-10.2,5.5
		c-0.8,0.6-1.6,1.2-2.5,1.7c-0.4,0.2-1,0.1-1.4-0.1c-0.5-0.2-0.7-1.2-0.3-1.7c0.6-0.8,1.3-1.6,2.1-2.1c2.4-1.5,4.9-3,7.4-4.3
		c1.2-0.7,2.5-1.1,3.8-1.7c-0.3-1.6-1.4-2.7-2.1-4c-0.7-1.3-1.4-2.7-2.2-4.2c-0.7-0.3-1.6-0.7-2.6-1.1c1.8-0.8,1.8-0.8,4.5,0.6
		c0.9,1.3,1.6,2.4,2.4,3.3c2,2.2,4.2,4.3,6.3,6.5c1.7,1.7,3.2,3.6,3.8,5.9c0.6,2,1.9,3.5,3.8,4.4c1.7,0.8,3.3,1.7,5.1,2.4
		c1.6,0.6,3.1,1.5,4.4,2.6l-0.1-0.1c-0.5,0.1-1,0.3-1.4,0.2c-0.9-0.2-1.6,0.1-2.4,0.6c-1.5,0.9-3.2,1.4-4.8,2
		c-0.3,0.1-0.9-0.1-1-0.3c-0.2-0.4-0.2-1.1,0-1.3c0.7-0.8,1.6-1.5,2.4-2.3c-0.1-0.1-0.1-0.4-0.3-0.5c-0.4-0.3-0.9-0.5-1.4-0.7
		c-2.7,2-5.4,3.7-8.9,4.4c-0.3-0.5-0.7-1-0.8-1.5c0-0.4,0.3-1,0.7-1.2c1-0.6,2-1,3.1-1.4c1.1-0.5,2.3-0.8,3.4-1.9
		c-1.1-1-2.1-1.9-3.2-2.9c-2.1,1.3-4.1,2.5-5.7,4.2c-0.6,0.6-1.2,1.3-2,1.7c-0.5,0.2-1.3,0.2-1.7-0.1c-0.4-0.3-0.8-1.2-0.6-1.6
		c0.4-1,0.9-2,1.6-2.9C266.6,555.1,267.5,554.3,268.4,553.5c0.6-0.1,1.2,0,1.5-0.8c0.2-0.1,0.8,0.1,0.3-0.4
		c-0.1,0.2-0.2,0.3-0.2,0.5C269.3,552.7,268.6,552.6,268.4,553.5z"/>
	<path d="M257.6,48.1c-1.5,0.5-3.4,0.4-3.7,2.5c-1.6,0.1-3.1,0.3-4.6,0.4c-1.5,0.1-3,0-4.4,0c-0.4-1,0.2-1.5,0.7-1.5
		c1.7-0.2,3.4-0.7,5-1.3c0.6-0.2,1.4,0,2.1,0c0.3-0.9-0.3-0.9-0.7-1c-1.7-0.3-3.4-0.5-5.1-0.8c-1.6-0.2-2.5,2-4.6,1.3
		c1.7-1.5,3.2-2.9,5.3-3c2.2-0.1,4.4,0,6.6,0.1C256.1,44.8,257.4,45.6,257.6,48.1z"/>
	<path d="M668.3,56.5c0.6-0.7,0.9-1.3,1.2-1.3c2.5-0.6,5.1-1.1,7.8-1.6c-0.4-0.3-0.8-0.8-1.2-0.9c-1.7-0.3-3.4-0.5-5.1-0.8
		c-1.6,0-2.5,2-4.8,1.5c1.9-1.4,3.3-3.1,5.4-3c2.4,0,4.9-0.5,7.3,0c2,0.4,2.1,0.5,3,3.1c-2.9,1.2-2.9,1.2-4,2.7
		C674.9,56.9,671.9,56.4,668.3,56.5z"/>
	<path d="M713.4,318.3c0.8,0.7,0.6,1.2,0.4,1.6c-0.7,1-1.5,2-2.4,2.9c-2.1,2-4.2,3.9-6.4,5.7c-2.5,2.1-4.9,4.3-6.8,7
		c-0.2,0.3-0.5,0.5-0.8,0.7c-0.6-0.6-0.3-1.3-0.1-1.8c0.7-2.1,2-3.8,3.7-5.1c2-1.7,4.1-3.2,6.2-4.8
		C709.4,322.7,711.7,320.9,713.4,318.3z"/>
	<path d="M705.6,318.8c-0.2-1.2,0.6-2.1,1.1-3.1c1.6-3,3.2-5.9,4.8-8.9c1.9-3.5,3.2-7.3,4.4-11.1c0.2-0.7,0.4-1.5-0.6-1.9l0.1,0.1
		c0.5-1.8,1-3.6,1.6-5.6c0.6,3.1,0.6,4.8,0.1,7C714.9,304,711,311.8,705.6,318.8L705.6,318.8z"/>
	<path d="M649.7,266.4c-0.2,0.7-0.3,1.3-0.5,1.9c-1.4,4.3-2.7,8.6-4.1,12.8c-0.1,0.2-0.3,0.4-0.5,0.5c-0.1,0.1-0.2,0.1-0.5,0.3
		c-0.2-0.5-0.7-1-0.7-1.5c0.1-4.8,1.3-9.4,4.1-13.4C647.8,266.4,648.3,265.7,649.7,266.4z"/>
	<path d="M252.6,116.7c-0.7,0.4-1.1,0.8-1.3,0.8c-0.7-0.2-1.5-0.5-2-0.9c-1.7-1.4-3.6-1.7-5.6-1.7c-3.5,0-7,0-10.5-0.1
		c-1,0-2-0.1-2.9-0.2c-0.2-0.9,0.2-1.1,0.7-1.1c4.6,0,9.3-0.2,13.9,0c2.1,0.1,4.1,1,6.1,1.7C251.5,115.4,251.9,116,252.6,116.7z"/>
	<path d="M694.1,350.4c10.4-0.7,20.3-1.1,30.2-0.6c-9.8,1.1-19.6,1.4-29.4,1.6C694.8,351.4,694.6,351.1,694.1,350.4z"/>
	<path d="M230.7,68.9c1.1,2.8,1.9,4.8,2.8,7c3.6,2,7.4,3.9,10.9,7.2c-0.9,0.1-1.4,0.3-1.7,0.1c-3.8-2.4-7.6-4.8-11.3-7.2
		C230.9,73.8,229.7,71.9,230.7,68.9z"/>
	<path d="M668,89.5c-2.4-0.4-8.6-4.2-13-7.6c-0.4-2-1.6-4-0.4-6.6c0.9,2.4,1.7,4.4,2.6,6.8C661,84.1,664.8,86.3,668,89.5z"/>
	<path d="M676.5,124.3c-0.3,0.1-0.7,0.4-1,0.4c-0.5,0-1-0.2-1.4-0.5c-2.1-1.9-4.7-2.1-7.4-2.1c-3.5,0-7-0.1-10.5-0.2
		c-0.8,0-1.6-0.2-2.5-0.8c0.5-0.2,1.1-0.4,1.6-0.4c4.3-0.1,8.5-0.1,12.8-0.1c2.4,0,4.7,0.8,6.9,1.7
		C675.7,122.6,675.7,122.7,676.5,124.3z"/>
	<path d="M646,260.9c5.5-0.1,10.9,0.5,16.4,1.3c1.1,0.1,2.2,0.2,3.5,0.3c0.1-0.8,0.1-1.5,0.2-2.2c0.1-1.7-0.4-3.4,0.6-5.4
		c0.2,0.9,0.3,1.4,0.3,1.9c0.1,0.9,0,1.7,0.1,2.6c0.2,2.8,0.3,3,2.8,4.7l0.1-0.1c-2.8-0.3-5.7-0.7-8.5-1c-2.1-0.2-4.2-0.4-6.3-0.7
		c-2.7-0.3-5.4-0.6-8.2-0.9c-0.3,0-0.6-0.4-0.9-0.6L646,260.9z"/>
	<path d="M690.8,78.4c-3.8,0.5-7.6,1.1-11.4,1.6c-0.2,0-0.5,0-0.7-0.1c-0.3-0.2-0.7-0.4-0.7-0.7c-0.1-0.3,0.2-0.6,0.5-0.9
		c0.1-0.2,0.5-0.3,0.7-0.2c3.4,0.3,6.7-0.8,10-1.1c0.5,0,1-0.1,1.4,0.1C691.2,77.3,691.1,77.8,690.8,78.4z"/>
	<path d="M689.5,83.1c-1.2,1.6-3,1.3-4.5,1.6c-1.3,0.3-1.4,0.2-3.2-0.8c0.5-1.5,1.4-2.7,3.1-2.7C686.6,81.2,688.4,81.2,689.5,83.1z"
		/>
	<path d="M264.8,76.8c-1,1.7-2.7,1.1-4.1,1.5c-1.1,0.4-2.2,0.3-3.3-0.7c0.5-1.4,1.2-2.6,3-2.6C262.1,75,263.9,74.8,264.8,76.8z"/>
	<path d="M266.9,71.7c-0.5,0.4-0.8,0.7-1.1,0.8c-3.3,0.4-6.7,0.9-10,1.2c-0.7,0.1-1.4-0.2-2.5-0.3c0.6-0.6,0.9-1.2,1.2-1.2
		c3.8,0,7.4-0.9,11.1-1.3C265.8,70.7,266.2,71.2,266.9,71.7z"/>
	<path d="M670.3,266.3c0.5,1.9-0.3,3.8-0.7,5.6c-0.4,2.1-0.8,4.2-1.3,6.2c-0.4,1.9-0.9,3.9-1.6,6.6c-0.4-2.9,0.2-5,0.5-7.1
		c0.6-3.8,1.5-7.6,2.3-11.4C669.8,266.3,670,266.3,670.3,266.3z"/>
	<path d="M709.9,301.4c0,0.2,0.1,0.5,0,0.7c-2,3.3-4.5,6.3-7.3,8.9c-0.6,0.6-1.4,1-2.2,1.4c-0.6,0.3-1.2,0.3-1.7-0.5
		c0.2-1,1.2-0.3,1.7-0.8c0.5-0.4,1-0.7,1.5-1.1c0.6-0.5,1.1-1,1.6-1.6c0.4-0.4,0.9-0.9,1.3-1.4c0.5-0.6,1-1.1,1.5-1.7
		c0.4-0.5,0.8-1,1.2-1.4C708.2,303.1,708.6,301.8,709.9,301.4L709.9,301.4z"/>
	<path d="M642.2,264.6c0,0.6,0.1,1.3-0.2,1.8c-2,4.6-3.6,9.3-4.6,14.4c-0.8-1.4-0.4-2.5-0.2-3.5c0.9-4.3,2.5-8.3,4.5-12.2
		C641.8,264.9,642.1,264.8,642.2,264.6L642.2,264.6z"/>
	<path d="M649.4,100.8c0.6-0.1,1-0.2,1-0.1c0.8,1.2,1.6,2.5,2.3,3.8c0.9,1.8,0.8,1.9,0.8,4.2c-0.6,0.1-0.9-0.4-1.1-0.8
		C651.1,105.7,650.1,103.5,649.4,100.8z"/>
	<path d="M694,300.1c1.3,0.8,0.8,2.3,1.1,3.4c0.9,3.5,0.8,7.2,0.5,10.8c-0.1,1.1-0.5,2.1-0.9,3.3c-0.8-0.9-0.1-1.6-0.1-2.3
		c0.3-3.5,0.3-7-0.2-10.4C694.3,303.2,694.3,301.6,694,300.1C694.1,300,694,300.1,694,300.1z"/>
	<path d="M665.7,100.3c-2.6-1.9-3.9-4.7-5.3-7.4c0.5-0.6,1-0.6,1.3-0.1C663.3,95.1,664.7,97.6,665.7,100.3z"/>
	<path d="M225.7,93.8c0.8,0.2,1.3,0.2,1.4,0.4c1.4,2.3,2.8,4.6,3,7.3c-0.8,0.5-1.1-0.1-1.3-0.4C227.5,99,226.5,96.7,225.7,93.8z"/>
	<path d="M265.1,63.2c0.4,1.3-0.4,1.8-1.3,1.8c-1.2,0-2.4-0.2-3.4,0.7c-0.1,0.1-0.6-0.2-0.8-0.5c-0.1-0.1-0.1-0.5,0-0.7
		c0.2-0.3,0.4-0.7,0.7-0.8C261.8,63,263.4,62.7,265.1,63.2z"/>
	<path d="M242,93.4c-3.3-2.5-4.9-5.2-5-7.4c0.2,0.1,0.5,0.1,0.6,0.2c1.3,2,2.5,4,3.8,6C241.6,92.5,241.8,93,242,93.4z"/>
	<path d="M683.7,70.7c0.6-0.5,1-1.2,1.7-1.4c1.2-0.3,2.4-0.4,3.6-0.4c0.3,0,0.8,0.4,0.8,0.6c0,0.4-0.3,0.9-0.6,1.2
		c-0.4,0.3-1,0.4-1.4,0.3c-1.1-0.3-1.9,0-2.7,0.6C684.4,72.2,684.1,71.4,683.7,70.7z"/>
	<path d="M675.3,286.4c0,4.1-1.3,7.9-1.9,11.9c-0.5-2.5,0.6-4.9,0.7-7.4c0.1-1.2,0.4-2.4,0.7-3.7C674.9,287,675.2,286.8,675.3,286.4
		C675.4,286.5,675.3,286.4,675.3,286.4z"/>
	<path d="M691.5,284.6c0-3.9,0-7.7,0-11.6C692.1,276.9,691.7,280.8,691.5,284.6z"/>
	<path d="M255.2,96.1c0.2-1.7,1-2.4,2-2.8C257.9,94.6,257.9,94.7,255.2,96.1z"/>
	<path d="M681.7,100c0.1,0.3,0.5,0.7,0.4,0.9c-0.4,0.9-1,1.7-2.1,1.8C679.9,101.4,679.9,101.4,681.7,100z"/>
	<path d="M712.2,298.5c-0.5,1.2-0.9,2.5-2.3,3l0.1,0.1C710.3,300.2,710.8,298.9,712.2,298.5L712.2,298.5z"/>
	<path d="M255.5,119.1c-0.6-0.3-1.2-0.6-1.8-1c-0.1,0-0.1-0.2,0-0.3c0-0.1,0.2-0.2,0.3-0.2c0.6,0.3,1.3,0.6,1.9,0.8
		C255.7,118.6,255.6,118.9,255.5,119.1z"/>
	<path d="M680.2,125.9c-1.3,0.5-1.9,0.1-2.3-0.7C678.8,124.7,679.3,125.4,680.2,125.9z"/>
	<path d="M677.6,275.8c0.1-1,0.2-1.9,0.3-2.9C678.3,274,678.4,274.9,677.6,275.8L677.6,275.8z"/>
	<path d="M675.4,286.5c0-1,0-2,0.1-3c0-0.3,0.4-0.5,0.7-0.8l-0.1-0.1C676,284,676.3,285.3,675.4,286.5L675.4,286.5z"/>
	<path d="M676.2,282.8c0-1.3-0.5-2.7,0.7-3.8l-0.1-0.1C676.7,280.2,677.1,281.6,676.2,282.8L676.2,282.8z"/>
	<path d="M694.1,300c-0.6-0.9-0.6-1.8-0.3-3.7C693.9,298.1,694,299.1,694.1,300L694.1,300z"/>
	<path d="M672.8,301.6c0,0.4,0,0.9,0,1.3c0,0-0.1,0-0.1,0c0-0.4,0-0.9,0-1.3C672.7,301.6,672.7,301.6,672.8,301.6z"/>
	<path d="M712.3,298.5c-0.1-1.2,0.4-1.9,1.5-2.2l-0.1-0.1C713.5,297.1,713.1,297.9,712.3,298.5L712.3,298.5z"/>
	<path d="M692.4,291.7c0,0.5,0,1,0,1.4c-0.1,0-0.1,0-0.2,0c0-0.5,0-0.9-0.1-1.4C692.2,291.7,692.3,291.7,692.4,291.7z"/>
	<path d="M643,260.1c1,0.2,2.2-0.3,3,0.8l0.1-0.1C645,260.7,643.9,261.1,643,260.1L643,260.1z"/>
	<path d="M669.9,264c0.7,0,1.5,0,2.8,0C671.3,264.5,670.7,264.2,669.9,264L669.9,264z"/>
	<path d="M677.5,275.7c0,1.1,0.3,2.3-0.7,3.2l0.1,0.1C676.9,277.9,676.7,276.7,677.5,275.7L677.5,275.7z"/>
	<path d="M686.7,143.9c0.1,0.2,0.3,0.3,0.4,0.5c-0.1,0.1-0.3,0.2-0.4,0.2c-0.1-0.2-0.2-0.4-0.2-0.6
		C686.5,144,686.7,143.9,686.7,143.9z"/>
	<path d="M642.3,264.7c0-0.5,0-0.9,0.1-1.5C642.7,263.9,642.7,263.9,642.3,264.7L642.3,264.7z"/>
	<path d="M683.6,139.8c0.3,0.1,0.6,0.2,0.8,0.4c0.1,0.1,0.1,0.4,0.1,0.6c-0.2,0-0.5,0-0.6-0.1C683.8,140.4,683.7,140,683.6,139.8
		L683.6,139.8z"/>
	<path d="M658.5,116.7c-0.2,0.1-0.4,0.3-0.4,0.3c-0.2-0.2-0.4-0.4-0.6-0.7c0,0,0.1-0.2,0.2-0.3C658,116.2,658.2,116.4,658.5,116.7z"
		/>
	<path d="M233.6,106.2c-0.2,0.1-0.5,0.2-0.6,0.1c-0.2-0.1-0.2-0.4-0.3-0.6c0.2-0.1,0.5-0.2,0.6-0.1
		C233.5,105.7,233.5,106,233.6,106.2z"/>
	<path d="M691.2,332.4c0.1-0.3,0.1-0.6,0.1-0.4C691.4,331.8,691.3,332.1,691.2,332.4C691.1,332.3,691.2,332.4,691.2,332.4z"/>
	<path d="M244.2,96.6c0,0.1-0.1,0.2-0.1,0.3c-0.1-0.1-0.2-0.2-0.3-0.4c0,0,0.1-0.2,0.2-0.2C244.1,96.4,244.1,96.5,244.2,96.6z"/>
	<path d="M668.4,103.4c-0.1,0.2-0.1,0.4-0.2,0.6c-0.1-0.1-0.2-0.2-0.2-0.3c0-0.2,0.1-0.4,0.2-0.6
		C668.2,103.2,668.3,103.3,668.4,103.4z"/>
	<path d="M234.2,109.9c-0.1-0.2-0.3-0.3-0.3-0.5c0-0.1,0.2-0.2,0.3-0.3c0.1,0.1,0.2,0.2,0.2,0.2
		C234.4,109.5,234.3,109.7,234.2,109.9z"/>
	<path d="M714.3,294.6c0.1,0.6,0,1.2-0.6,1.6l0.1,0.1C713.7,295.6,713.8,295.1,714.3,294.6L714.3,294.6z"/>
	<path d="M259.3,132.2c0.2,0.2,0.4,0.3,0.7,0.5c-0.1,0.1-0.3,0.2-0.4,0.3C259.5,132.7,259.5,132.4,259.3,132.2
		C259.4,132.2,259.3,132.2,259.3,132.2z"/>
	<path d="M262.4,136.6c-0.2-0.1-0.4-0.2-0.5-0.3c0-0.1,0.1-0.3,0.2-0.5c0.1,0.1,0.1,0.2,0.2,0.3
		C262.3,136.3,262.3,136.5,262.4,136.6L262.4,136.6z"/>
	<path d="M643.1,260c-0.6-0.1-1.4,0.1-1.5-0.8l-0.1,0.1C642,259.6,642.5,259.8,643.1,260L643.1,260z"/>
	<path d="M184.9,472.9c-0.3,0-0.5,0-0.8,0l-0.1,0.1C184.4,473,184.7,473,184.9,472.9L184.9,472.9z"/>
	<polygon points="704.6,319.4 704.5,319.6 704.7,319.5 	"/>
	<path d="M704.7,319.5c0.3-0.2,0.6-0.5,0.9-0.7c0,0-0.1-0.1-0.1-0.1c-0.3,0.2-0.6,0.5-0.9,0.7C704.6,319.4,704.7,319.5,704.7,319.5z
		"/>
	<path d="M657.2,113c0,0.1-0.1,0.2-0.1,0.2c-0.1-0.1-0.2-0.2-0.4-0.3c0.1-0.1,0.2-0.2,0.3-0.2C657,112.7,657.1,112.9,657.2,113z"/>
	<path d="M259.4,132.2c-0.2-0.1-0.4-0.1-0.5-0.2C259.4,131.5,259.3,131.8,259.4,132.2L259.4,132.2z"/>
	<path d="M714.4,294.7c0.3-0.2,0.6-0.5,0.9-0.7c0,0-0.1-0.1-0.1-0.1C714.9,294.1,714.6,294.4,714.4,294.7L714.4,294.7z"/>
	<polygon points="262.3,136.7 262.5,136.8 262.4,136.6 	"/>
	<path d="M683.6,139.7c-0.1-0.1-0.2-0.2-0.3-0.3c0.1,0,0.2,0,0.2,0.1C683.6,139.6,683.6,139.7,683.6,139.7L683.6,139.7z"/>
	<path d="M659.4,186.3c1.2-0.4,1.6-0.6,2-0.7c2.7-0.5,5.4-0.9,8.1-1.3c0.7-0.1,1.5-0.1,2.2,0c0.4,0.1,0.7,0.5,1.1,0.8
		C669.1,187.8,664.7,188.3,659.4,186.3z"/>
	<path d="M682.8,185c-0.9,0.1-1.5,0.1-2.1,0.3c-0.6,0.2-1.1,0.7-1.7,0.8c-1.6,0.5-3.2,0.6-4.8-0.1c0.2-0.4,0.2-0.9,0.4-1
		c2.4-0.8,4.8-1.2,7.3-0.7C682.1,184.4,682.3,184.6,682.8,185z"/>
	<path d="M690.7,225.5c-0.5-0.3-0.7-0.3-0.7-0.4c-0.2-2.6,0.2-5.1,0.7-7.7c0.3,0.1,0.7,0.2,0.7,0.3
		C692.1,220.4,692,222.9,690.7,225.5z"/>
	<path d="M649.7,203.7c1.7,0.1,3.4,0.2,4.9,1.2c1.1,0.7,2.5,0.9,3.8,1.3c0.8,0.3,1.6,0.5,2.4,0.9c-0.3,0.3-0.5,0.5-0.6,0.5
		c-1.8-0.3-3.4-1.3-5.4-1.2c-0.6,0-1.2-0.4-1.7-0.7C652,205,650.9,204.3,649.7,203.7L649.7,203.7z"/>
	<path d="M687.8,235.2c-0.1-0.2-0.3-0.5-0.3-0.7c0.2-2.1,1.5-3.3,3.3-4.1c0.2-0.1,0.8,0.1,0.9,0.3c0.2,0.2,0.3,0.8,0.2,1
		c-0.5,0.7-1,1.4-1.7,2C689.5,234.3,688.9,235.2,687.8,235.2z"/>
	<path d="M712.5,231.5c-0.4-3.9-0.1-5.1,1.5-6.2C714.7,228.1,714.5,229,712.5,231.5z"/>
	<path d="M649.8,203.6c-0.2,0-0.5,0.1-0.7,0c-2.3-1.4-3.1-3.6-3.1-6.7c0.7,0.5,1.1,0.7,1.3,1.1C648.2,199.9,648.9,201.8,649.8,203.6
		C649.7,203.7,649.8,203.6,649.8,203.6z"/>
	<path d="M698.2,184.2c-2.9-1-4.1-2.5-5.1-4.7C695,180.2,696.2,181.3,698.2,184.2z"/>
	<path d="M691,204.9c0.9,2.3,0.6,3.9,0.7,5.5c-0.8,0.4-1-0.1-1.1-0.5C690.3,208.4,690,207,691,204.9z"/>
	<path d="M644.1,212.9c1.7,1,3.5,2,5.3,3c-1.7,0.3-3.4-0.1-4.9-1.4C644,214.2,643.5,213.8,644.1,212.9z"/>
	<path d="M689.9,245.4c0.7,2.5,1,5-0.6,7.5c-0.1-0.5-0.3-0.7-0.2-0.9C689.3,249.8,689.6,247.6,689.9,245.4z"/>
	<path d="M687.5,182.1c0.6-1.4,0.8-2.7,1.9-3.7C689.3,181.3,689.3,181.3,687.5,182.1z"/>
	<path d="M734.7,318c-0.8-0.9-0.6-2-0.1-3C734.6,316,734.6,317.1,734.7,318L734.7,318z"/>
	<path d="M727.5,300c0-0.5,0-1.1,0-1.6c0.1,0,0.1,0,0.2,0c0,0.5,0,1.1,0,1.6C727.7,300,727.6,300,727.5,300z"/>
	<path d="M725.8,294.4c0.2-0.2,0.3-0.3,0.4-0.5c0.2,0.3,0.3,0.6,0.4,0.9c0,0-0.2,0.1-0.2,0.2C726.3,294.9,726,294.6,725.8,294.4z"/>
	<path d="M636.3,236.4c0.2,0.3,0.3,0.6,0.5,1c0,0-0.2,0.2-0.2,0.2c-0.2-0.3-0.5-0.5-0.7-0.8C635.9,236.7,636,236.6,636.3,236.4z"/>
	<path d="M653.3,218c-0.2,0.1-0.5,0.3-0.5,0.3c-0.3-0.3-0.6-0.6-0.9-0.9c0.2-0.1,0.4-0.3,0.6-0.3C653,217.2,653.4,217.4,653.3,218z"
		/>
	<path d="M639.7,242.7c-0.3-0.8-0.4-1.1-0.4-1.4c0-0.1,0.2-0.2,0.4-0.4c0.1,0.1,0.2,0.2,0.2,0.3
		C639.8,241.6,639.8,241.9,639.7,242.7z"/>
	<path d="M711.5,235c0-0.4-0.1-0.8-0.1-1.3c0-0.1,0.2-0.3,0.2-0.2c0.2,0.1,0.4,0.2,0.4,0.3c0,0.4-0.1,0.8-0.1,1.2
		C711.8,235,711.6,235,711.5,235z"/>
	<path d="M691.9,197.3c-0.1,0.2-0.2,0.4-0.3,0.7c-0.1-0.1-0.2-0.2-0.2-0.3c0.1-0.2,0.2-0.4,0.3-0.6
		C691.7,197.2,691.8,197.3,691.9,197.3z"/>
	<path d="M635.2,233c-0.1,0-0.2,0.1-0.2,0.1c-0.1-0.1-0.1-0.2-0.1-0.3c0.1,0,0.3-0.1,0.4-0.1C635.3,232.8,635.2,232.9,635.2,233z"/>
	<path d="M600.2,238.8c-1.7-0.6-2.4-2-2.7-3.4c-0.6-2.4-0.7-4.9,0-7.3c0.9-0.3,1.3,0.1,1.5,0.7c0.1,0.5,0.2,1,0.2,1.5
		c0,2.5,0.2,5,1.3,7.3C600.5,237.9,600.3,238.3,600.2,238.8z"/>
	<path d="M623.5,207.8c-0.7-1.7-0.9-4.9-0.5-9c1.2,0.9,1.2,2.2,1.3,3.4C624.5,205.2,624.4,206.1,623.5,207.8z"/>
	<path d="M615,323c-1.4-2.2-2.5-6.2-2.5-9.4c1.6,1.3,1.6,3.1,2.1,4.6C615.2,319.8,615.8,321.3,615,323z"/>
	<path d="M614.1,126.6c0.4-1.9,0.8-2.7,2.2-3.1c1.8-0.5,3.6-0.7,5.5,1c-1.7,0.2-3.1,0.1-4.4,0.4C616.3,125.3,615.3,126,614.1,126.6z
		"/>
	<path d="M596.3,250c-1.7-2.4-1.7-4.7,0-6.9C596.9,245.4,596.4,247.5,596.3,250z"/>
	<path d="M596.1,259.5c0.4,0.3,0.7,0.4,0.7,0.6c0.1,0.3,0.2,0.7,0.2,1.1c0,0.9-0.6,1.8-1.1,1.6c-0.5-0.2-1-1.2-0.8-1.9
		C595.3,260.3,595.8,259.9,596.1,259.5z"/>
	<path d="M600.8,167.5c-1.3-0.7-2.4-1.4-3-2.8c-0.1-0.2,0-0.5,0.2-0.6c0.1-0.1,0.5-0.2,0.6-0.2C599.9,164.7,600.3,165.4,600.8,167.5
		z"/>
	<path d="M632.5,126.7c2.5-0.5,2.5-0.5,3.5,1.4C634.8,127.7,633.7,127.9,632.5,126.7z"/>
	<path d="M612.2,129.2c0.5,1.7-0.7,1.9-1.4,2.7c-0.7-0.3-0.5-0.8-0.2-1.2C611,130.1,611.6,129.7,612.2,129.2z"/>
	<path d="M595.4,252.8c0.6,1.3,0.5,2.6,0.1,3.9C594.1,255.1,594.1,254.7,595.4,252.8z"/>
	<path d="M616.9,224.1c1.2,1.3,1.4,1.7,0.8,2.4c-0.1,0.1-0.2,0.1-0.3,0.1C616.7,226.5,616.6,226,616.9,224.1z"/>
	<path d="M610.1,171.3c-0.5-0.4-1-0.8-1.4-1.2c-0.1-0.1,0-0.5,0.1-0.6c0.1-0.2,0.4-0.3,0.6-0.3C610.3,169.3,610.5,169.9,610.1,171.3
		z"/>
	<path d="M621.2,192c0.2,0.8,0.4,1.6,0.6,2.3c-0.6,0.6-0.7,0-0.8-0.2c-0.2-0.3-0.3-0.7-0.4-1c-0.1-0.3,0-0.7,0-1
		C620.8,192,621,192,621.2,192z"/>
	<path d="M605.9,248.7c0.4,0.8,0.7,1.4,1.1,2.3c-0.6,0-1,0.1-1.2,0C605.2,250.4,605,249.7,605.9,248.7z"/>
	<path d="M598,265.9c-0.2,0.8-0.5,1.1-1,0.9c-0.5-0.2-0.8-0.6-0.6-1.1c0.2-0.3,0.6-0.5,1-0.8C597.7,265.3,597.9,265.7,598,265.9z"/>
	<path d="M611.5,309.8c0-1.1,0-2.1,0-3.9C612.3,307.7,612,308.7,611.5,309.8z"/>
	<path d="M601.8,206.2c-0.2,0.4-0.2,0.7-0.3,0.8c-0.4,0.3-1-0.2-1.1-0.9c0-0.2,0.3-0.5,0.3-0.5C601.2,205.7,601.5,206,601.8,206.2z"
		/>
	<path d="M603.6,245.4c1,0.5,1.2,1.2,0.8,2.2C603.6,247,603,246.4,603.6,245.4z"/>
	<path d="M601.6,351.6c-0.4,0.4-0.7,0.7-1,0.9c-0.2-0.2-0.6-0.5-0.6-0.7c0.1-0.4,0.4-0.7,0.6-1C600.9,351,601.2,351.2,601.6,351.6z"
		/>
	<path d="M601.3,348.5c-0.6-0.8-0.1-1.3,0.6-1.6C602.5,347.7,602.1,348.2,601.3,348.5z"/>
	<path d="M620,189.8c-0.1,0-0.2,0-0.3-0.1c-0.7-0.4-0.9-1.1-0.5-1.5c0.1-0.1,0.2-0.2,0.3-0.1c0.5,0,0.9,0.8,0.8,1.5
		C620.2,189.6,620.1,189.7,620,189.8z"/>
	<path d="M598.3,200.8c0.3,0.4,0.7,0.7,0.9,1.1c0.1,0.1-0.1,0.5-0.2,0.6c-0.1,0.1-0.5,0-0.6-0.1
		C597.9,201.9,597.6,201.5,598.3,200.8z"/>
	<path d="M602.7,243.3c-0.4-0.6-0.7-1-1.2-1.7C602.9,242,602.9,242,602.7,243.3z"/>
	<path d="M602.2,209.2c0.2,0.1,0.4,0.2,0.6,0.3c-0.1,0.2-0.2,0.4-0.3,0.6c-0.2-0.1-0.5-0.1-0.6-0.3
		C601.9,209.6,602.1,209.4,602.2,209.2z"/>
	<path d="M616.5,220.9c-0.7-0.1-1.4-0.4-0.7-1.2C616,220.1,616.2,220.5,616.5,220.9z"/>
	<path d="M616.8,183.9c0.3,0.3,0.6,0.4,0.6,0.5c-0.1,0.3-0.2,0.6-0.4,0.8c-0.1-0.1-0.2-0.2-0.2-0.3
		C616.7,184.7,616.7,184.4,616.8,183.9z"/>
	<path d="M611.8,300c0,0.2,0.1,0.5,0.1,0.7c-0.1,0.4-0.3,0.4-0.4,0c-0.1-0.2,0-0.5,0.1-0.7C611.6,300,611.8,300,611.8,300z"/>
	<path d="M608.1,294.9c0.1,0,0.2-0.1,0.3-0.1c0,0.1,0.1,0.3,0.1,0.4c-0.1,0-0.2,0-0.3-0.1C608.1,295.1,608.1,295,608.1,294.9z"/>
	<path d="M606.5,291.9c-0.1-0.8-0.2-1.1-0.3-1.4c0.2,0,0.4,0,0.5,0C606.7,290.7,606.7,291,606.5,291.9z"/>
	<path d="M602.8,344.8c0.1,0.2,0.1,0.4,0.2,0.6c0,0.1-0.1,0.1-0.2,0.2c-0.1-0.1-0.2-0.2-0.2-0.2
		C602.6,345.1,602.7,344.9,602.8,344.8z"/>
	<path d="M707.1,432.5c2.3,1.9,3.2,4.3,4.3,6.5c2,3.9,2.6,6.4,2.7,10.2c-0.4-0.6-0.7-1-0.9-1.4c-1.3-4.1-3.3-7.8-5.3-11.5
		c-0.4-0.7-0.7-1.3-1-2C706.8,433.8,707,433.3,707.1,432.5z"/>
	<path d="M728.1,386c0.5,0.3,1,0.4,1.1,0.7c0.2,0.4,0.3,0.9,0.3,1.4c-0.2,4.2-1.9,7.8-5.2,11.5c0-1.1-0.1-1.6,0-2
		c0.5-1.4,1.1-2.8,1.6-4.2c0.7-1.7,1.3-3.5,1.4-5.4C727.5,387.4,727.8,386.8,728.1,386z"/>
	<path d="M716.2,410.3c0.2,0.1,0.5,0.1,0.6,0.3c1,2.5,0.7,5.1,1,7.7c0,0.3-0.3,0.6-0.5,0.9c-1.3-2.1-2-4.3-2-6.6
		C715.3,411.8,715.2,410.8,716.2,410.3z"/>
	<path d="M726.4,425.8c1.7,2.4,2.2,5.3,3,8.6c-1.3-0.8-1.4-1.8-1.7-2.5c-0.4-1-0.8-2.1-1.2-3.1c-0.3-0.9-0.6-1.8-0.9-2.7
		C725.9,426,726.2,425.9,726.4,425.8z"/>
	<path d="M719.2,404.5c0.9-1.9,1.9-2.7,3.3-3.8c0,0.8,0.2,1.3,0,1.6c-0.4,0.7-1,1.4-1.6,2C720.6,404.5,720.1,404.4,719.2,404.5z"/>
	<path d="M726.9,526.2c1.5,1.4,0.9,3.1,1.2,4.9c-0.2-0.2-0.5-0.3-0.6-0.6C727.2,529.1,727.1,527.7,726.9,526.2z"/>
	<path d="M714.5,455.8c1.3,0.8,1.2,2,1.3,3.1c0,0.4-0.2,0.8-0.5,1.8C714.3,458.7,714.2,457.3,714.5,455.8z"/>
	<path d="M711.3,524.1c0,0.5,0,1,0,1.6c-0.1,0-0.2,0-0.2,0c0-0.5,0-1,0-1.6C711.1,524.1,711.2,524.1,711.3,524.1z"/>
	<path d="M709.3,514.5c0-0.8,0-1.4,0-2.4C710,513.1,710.1,513.7,709.3,514.5z"/>
	<path d="M718.1,404.6c-0.3,0.2-0.6,0.4-0.9,0.5c-0.1,0-0.3-0.3-0.4-0.5c0.3-0.2,0.5-0.4,0.8-0.6
		C717.8,404.2,717.9,404.4,718.1,404.6z"/>
	<path d="M714.8,464.8c0-0.4,0-0.8,0-1.2c0.1,0,0.2,0,0.4,0c0,0.4,0,0.8-0.1,1.2C715,464.8,714.9,464.8,714.8,464.8z"/>
	<path d="M715.5,470.9c0-0.4,0-0.8,0-1.2c0.1,0,0.2,0,0.2,0c0,0.4,0,0.8,0,1.2C715.7,470.9,715.6,470.9,715.5,470.9z"/>
	<path d="M715.6,476.1c0-0.2-0.1-0.4,0-0.6c0-0.1,0.3-0.2,0.3-0.1c0.1,0.1,0.2,0.3,0.3,0.4C716,475.9,715.8,476,715.6,476.1z"/>
	<path d="M577.6,426.3c0.2-0.6,0.1-1.3,0.5-1.7c2.7-2.9,5.5-5.7,8.2-8.6c0,0,0.2,0.1,0.3,0.1c0.4,0.5,0,1-0.3,1.3
		c-2.7,2.9-5.4,5.8-8.1,8.7C578.1,426.3,577.7,426.2,577.6,426.3L577.6,426.3z"/>
	<path d="M538.8,498.4c-0.3-1.4,0.2-2,1.1-2.4C540.1,497,540.1,497,538.8,498.4z"/>
	<path d="M600.2,418.5c0.3-0.4,0.5-0.7,0.6-0.9c0.2,0.3,0.4,0.5,0.4,0.8c0,0.2-0.2,0.4-0.2,0.7C600.8,419,600.6,418.8,600.2,418.5z"
		/>
	<path d="M545.6,486.3c-0.7-1.1,0.2-1.3,0.9-2.1C546.3,485.6,546.3,485.6,545.6,486.3z"/>
	<path d="M549,479.7c-0.2-0.9,0-1.5,1-1.9C550.1,478.8,550,479.5,549,479.7L549,479.7z"/>
	<path d="M605.1,411c0,0.6,0,1.2,0,1.7c-0.1,0-0.2,0-0.3,0c0-0.6,0-1.2,0-1.7C604.9,411,605,411,605.1,411z"/>
	<path d="M599.4,425.6c0-0.6,0-1.3,0-1.9c0.1,0,0.3,0,0.4,0c0,0.6,0,1.3,0,1.9C599.7,425.6,599.5,425.6,599.4,425.6z"/>
	<path d="M542.2,492.5c-0.2-0.7,0-1.2,0.7-1.4c0.1,0,0.5,0.3,0.5,0.3C543.2,492,542.9,492.6,542.2,492.5L542.2,492.5z"/>
	<path d="M569,441.8c-0.3,0.3-0.6,0.5-0.9,0.7c-0.1-0.2-0.3-0.4-0.3-0.5c0.2-0.2,0.4-0.4,0.7-0.6C568.6,441.5,568.8,441.7,569,441.8
		z"/>
	<path d="M572.5,435.8c-0.1,0.2-0.3,0.3-0.4,0.5c-0.1-0.1-0.2-0.3-0.3-0.4c0.2-0.1,0.3-0.2,0.5-0.3
		C572.4,435.6,572.5,435.7,572.5,435.8z"/>
	<path d="M629.8,406.3c0-0.1-0.1-0.2-0.1-0.3c0-0.1,0.2-0.1,0.3-0.2c0,0.1,0.1,0.2,0,0.3C630,406.2,629.9,406.3,629.8,406.3z"/>
	<path d="M612.9,402.3c0.1-0.2,0.3-0.3,0.4-0.5c0,0,0.2,0.1,0.3,0.1C613.4,402,613.1,402.1,612.9,402.3L612.9,402.3z"/>
	<path d="M575.2,430c0,0.2,0,0.4,0,0.6c0,0.1-0.2,0.2-0.4,0.2c0-0.1,0-0.2,0-0.3C574.9,430.4,575.1,430.2,575.2,430L575.2,430z"/>
	<polygon points="548.9,479.6 548.8,479.9 549,479.7 	"/>
	<path d="M542.2,492.5c-0.1,0.2-0.1,0.3-0.2,0.5C541.5,492.5,541.8,492.5,542.2,492.5L542.2,492.5z"/>
	<path d="M575.3,430.1c0.1-0.1,0.1-0.2,0.2-0.3C575.4,429.9,575.3,429.9,575.3,430.1C575.2,430,575.3,430.1,575.3,430.1z"/>
	<path d="M577.5,426.3c-0.1,0.1-0.2,0.2-0.3,0.4c0-0.1,0-0.2,0-0.2C577.4,426.3,577.5,426.4,577.5,426.3
		C577.6,426.3,577.5,426.3,577.5,426.3z"/>
	<path d="M612.8,402.2c0,0.2-0.1,0.4-0.1,0.6c-0.1-0.1-0.2-0.2-0.3-0.3C612.6,402.4,612.7,402.3,612.8,402.2L612.8,402.2z"/>
	<path d="M641.4,392.4c-3.7,1.5-6.7,1.5-9.9-0.1c-4.4-2.1-7.2-5.6-9.7-9.7c-2-3.4-3.2-7.1-4.2-10.8c-0.7-2.8-0.9-5.7-1-8.6
		c-0.1-4.3,0-8.6,0.9-12.7c1.2-5.5,3-10.9,6-15.7c0.5-0.7,1-1.4,1.4-2.2c1.5-2.6,3.7-4.4,6.1-6c2-1.4,4.2-1.8,6.7-1.6
		c3.7,0.3,6.5,1.9,9.2,4.4c4.3,4,6.8,8.8,8,14.5c0.3,1.2,0.8,2.4,1.1,3.6c0.2,0.7,0.3,1.4,0.2,2.1c-1.1-1.5-1.6-3.3-2-5.1
		c-1.2-6.2-4.3-11.1-9.3-14.9c-4.7-3.6-11.3-3.6-15.6,0.3c-2.1,1.9-3.8,4-5.3,6.3c-2.5,4.1-4.1,8.6-5,13.3c-1,5.9-1.5,11.9-0.8,18
		c0.9,6.9,3.3,13.1,7.2,18.7c1,1.4,2.1,2.8,3.8,3.5c0.9,0.4,1.7,1,2.6,1.6c1.5,1.1,3.2,1.3,5,1.4C638.5,392.6,640,392.5,641.4,392.4
		L641.4,392.4z"/>
	<path d="M646.7,348.9c1.9,0.9,2.6,2.8,2.8,4.4c0.4,2.5,0.2,5.2,0.1,7.8c-0.1,2.4-1.6,4.1-3.4,5.5c-1.1,0.9-2.5,1-3.9,1
		c-1.3,0-2.4-0.3-3.1-1.5c0,0-0.1,0.1-0.1,0.1c0.5,0,1-0.1,1.5-0.1c0-0.2,0-0.5,0-0.5c-2.4-1.2-3.5-3.3-4.1-5.9
		c-0.6-3-0.7-5.9,0.8-8.7c0.6-1.1,1.4-2,2.4-2.8c1.8-1.4,3.7-1,5.6-0.1c0,0-0.1-0.1-0.1-0.1c0.3,0.3,0.6,0.6,0.9,0.9l-0.1-0.1
		c0.3,0.5,0.6,0.9,0.9,0L646.7,348.9z M646,364.7c-0.6,0-0.8,0.2-0.7,0.8c-0.2,0-0.5,0-0.7,0.1c-0.1,0-0.2,0.1-0.3,0.2
		c0.2,0.1,0.4,0.3,0.6,0.2c0.2-0.1,0.3-0.3,0.4-0.5C645.8,365.4,646,365.2,646,364.7c0.2-0.3,0.5-0.5,0.8-0.8
		c0.2-0.5,0.4-1.1,0.6-1.6c0.6-0.3,0.9-0.8,0.3-1.5c-0.1,0.6-0.1,1.1-0.2,1.6c-0.7,0.3-0.7,1-0.6,1.6
		C646.3,363.8,646.1,364.1,646,364.7z M645.2,351.7l0.1,0.1c-0.3-1.6-1.4-2.4-2.9-2.4c-1.4-0.1-2.3,0.8-3.1,1.9
		c-0.1,0.1-0.1,0.2-0.2,0.3c-1.6,3.4-1.6,6.8,0.1,10.1c0.6,1.3,1.6,2.2,3.2,2.2c1.8,0,2.7-1.2,3.4-2.6c0.3-0.7,0.6-1.4,0.7-2.1
		C646.9,356.6,646.8,354,645.2,351.7z"/>
	<path d="M656.9,369.2c-0.6-2.3-0.6-3.9-0.1-6C657.7,365.3,657.4,366.8,656.9,369.2z"/>
	<path d="M657.5,360.1c0-1,0-2.1,0-3.6C658.2,358,657.8,359.1,657.5,360.1z"/>
	<path d="M644.4,390.9c-0.5,1.4-1.6,1.7-3,1.5l0.1,0.1c0.2-0.3,0.3-0.7,0.6-0.8c0.8-0.3,1.6-0.5,2.4-0.7L644.4,390.9z"/>
	<path d="M657.1,351.9c0,0.8,0,1.6,0,2.3c-0.1,0-0.2,0.1-0.3,0.1c-0.1-0.3-0.2-0.7-0.3-1c0-0.4,0-0.9,0-1.3
		C656.7,352,656.9,351.9,657.1,351.9z"/>
	<path d="M638.5,365.4c-0.3-0.1-0.7-0.2-1-0.3c-0.1,0-0.1-0.2-0.1-0.3c0.2-0.1,0.5-0.2,0.5-0.1C638.1,364.8,638.3,365.1,638.5,365.4
		L638.5,365.4z"/>
	<path d="M645.3,348.2c-0.1-0.4-0.2-0.8-0.3-1.2c0.8,0,0.7,0.7,0.9,1.1l0.1-0.1c-0.3,0-0.6,0-0.9,0L645.3,348.2z"/>
	<path d="M643.4,346.3c-0.2,0.1-0.4,0.2-0.6,0.2c-0.1,0-0.2-0.2-0.2-0.2c0.2-0.1,0.4-0.2,0.6-0.2C643.2,346,643.3,346.2,643.4,346.3
		z"/>
	<path d="M644.5,391c0.1-0.1,0.2-0.3,0.3-0.3c-0.1,0-0.2,0.1-0.4,0.2L644.5,391z"/>
	<path d="M638.4,365.4c0.6-0.1,0.9,0.1,0.7,0.8c0,0,0.1-0.1,0.1-0.1C638.7,366.2,638.4,365.9,638.4,365.4
		C638.5,365.4,638.4,365.4,638.4,365.4z"/>
	<path d="M645.9,348.1c0.3,0.3,0.5,0.5,0.8,0.8l0.1-0.1c-0.3,0-0.6,0-0.9,0c0,0,0.1,0.1,0.1,0.1c0-0.3,0-0.6,0-0.9L645.9,348.1z"/>
	<path d="M543.7,560.5c-1.6,0.5-2.8,0.6-4.2-0.5C541.8,559.3,541.8,559.3,543.7,560.5z"/>
	<path d="M175.6,218.1c0.3,0.2,0.7,0.3,0.8,0.6c0.2,0.7,0.3,1.5,0.3,2.2c0,2.2,0.3,4.2,1.2,6.2c0.1,0.3,0.1,0.7,0.1,1
		c-0.6,0.7-1.1,0.3-1.3-0.1c-0.6-0.9-1.4-1.9-1.5-2.9c-0.2-2.1-0.1-4.2-0.1-6.3C175.1,218.5,175.4,218.3,175.6,218.1z"/>
	<path d="M198.5,117.3c-1.4,0.1-2.6,0.1-3.8,0.4c-1.1,0.3-2.2,0.9-3.4,1.5c0.6-2.2,1.1-2.7,2.7-3.1
		C195.8,115.6,196.8,115.8,198.5,117.3z"/>
	<path d="M200.1,198.1c0-2.7,0-5.4,0-8.4c1.1,0.8,1.1,1.9,1.2,2.8C201.6,195.2,201.4,196.6,200.1,198.1z"/>
	<path d="M190,301.8c1.4,2.8,2.9,5.6,2.3,9.6C190.4,307,189.9,304.8,190,301.8z"/>
	<path d="M173.5,239.1c-0.8-1.9-0.7-3.7-0.3-5.5c0.1-0.3,0.4-0.5,0.9-1C174.5,235,174.6,237.1,173.5,239.1z"/>
	<path d="M173.6,246.2c-1.2-0.3-1.4-1-1.4-1.8c0-0.8-0.2-1.8,1-2.2c0.1,0.3,0.3,0.6,0.3,1C173.6,244.2,173.6,245.2,173.6,246.2z"/>
	<path d="M180.4,348c-1.5-0.2-2.2-1.3-3.1-2.5C179.5,345.4,179.8,345.7,180.4,348L180.4,348z"/>
	<path d="M174.1,252.1c-1.6-1.4-1.6-1.6-0.1-3.2C175.3,249.9,174.8,250.9,174.1,252.1z"/>
	<path d="M193.8,213.6c1.3,1.3,1.8,2.1,1.1,3.1c0,0.1-0.2,0.1-0.3,0.1C193.4,216.1,194,215.1,193.8,213.6z"/>
	<path d="M213.1,120.9c-1.6-0.6-2.5-0.8-3.5-1.2C211.1,118.4,211.3,118.5,213.1,120.9z"/>
	<path d="M183.9,240.8c-1.3-0.6-1.4-1.4-0.9-2.5C184.4,238.9,184.2,239.8,183.9,240.8z"/>
	<path d="M174.8,256.1c-0.2-0.2-0.7-0.6-0.7-0.9c0-0.4,0.4-0.9,0.7-1c0.5-0.2,0.9,0.3,0.9,0.8C175.8,255.5,175.7,256,174.8,256.1z"
		/>
	<path d="M189.5,121.7c-0.1,1.6,0,1.6-1.3,2.6c-0.1-0.3-0.4-0.7-0.3-0.8C188.4,122.9,189,122.3,189.5,121.7z"/>
	<path d="M198,182.4c0.4,1.2,0.7,1.9,1,2.9C197.9,184.6,197.9,184.6,198,182.4z"/>
	<path d="M186.8,160.7c0.8,0.2,1.2,0.8,1,1.4c-0.1,0.2-0.3,0.4-0.5,0.4c-0.7,0-1.3-0.6-1.1-1.2C186.2,161,186.6,160.9,186.8,160.7z"
		/>
	<path d="M189.2,294c0,1.6,0,2.6,0,3.7C188.6,296.7,188.5,295.6,189.2,294z"/>
	<path d="M178.6,337.9c0.1,0.2,0.3,0.4,0.3,0.6c-0.1,0.4-0.4,0.7-0.6,1.1c-0.2-0.2-0.7-0.5-0.7-0.6c0.1-0.4,0.4-0.7,0.7-1.1
		C178.3,337.8,178.5,337.9,178.6,337.9z"/>
	<path d="M180,232.7c-0.2-0.3-0.5-0.5-0.6-0.8c-0.1-0.1,0.1-0.4,0.2-0.6c0,0,0.3,0,0.3,0c0.3,0.2,0.5,0.5,0.7,0.8
		c0.1,0.1-0.1,0.4-0.2,0.6C180.3,232.8,180.1,232.7,180,232.7z"/>
	<path d="M196.4,179.1c1.1,0.2,1,0.9,0.8,1.9C196.4,180.1,196.4,180.1,196.4,179.1z"/>
	<path d="M177.1,192.6c-0.3,0.2-0.5,0.5-0.6,0.5c-0.3-0.1-0.6-0.3-0.8-0.5c-0.1-0.1-0.2-0.4-0.2-0.6c0.1-0.1,0.5-0.3,0.6-0.3
		C176.5,192,176.8,192.3,177.1,192.6z"/>
	<path d="M178.5,196.2c0.3,0.2,0.7,0.3,0.8,0.6c0.1,0.2-0.2,0.5-0.3,0.8c-0.2-0.2-0.5-0.4-0.7-0.7
		C178.2,196.8,178.4,196.5,178.5,196.2z"/>
	<path d="M181.4,235.4c0.7,0.4,1,1,0.4,1.7C181,236.7,180.9,236.1,181.4,235.4z"/>
	<path d="M192.9,210c0.5,0.4,1,0.7,0.6,1.4C193,211.1,192.4,210.8,192.9,210z"/>
	<path d="M179.1,334.1c0.3,0.2,0.6,0.4,0.5,0.5c-0.1,0.3-0.3,0.6-0.5,0.9c-0.1-0.1-0.3-0.2-0.3-0.2
		C178.9,334.9,179,334.5,179.1,334.1z"/>
	<path d="M184.5,279.3c-0.2,0.1-0.3,0.2-0.5,0.3c-0.1-0.2-0.3-0.5-0.4-0.7c0.2-0.1,0.4-0.2,0.5-0.2
		C184.3,278.8,184.4,279.1,184.5,279.3z"/>
	<path d="M185.5,283.1c0.1-0.1,0.2-0.2,0.2-0.2c0.2,0.1,0.3,0.2,0.4,0.4c0,0-0.1,0.2-0.2,0.3C185.8,283.4,185.6,283.3,185.5,283.1z"
		/>
	<path d="M180.3,200.2c-0.1,0.1-0.3,0.1-0.4,0.2c0-0.2-0.1-0.4-0.1-0.6c0-0.1,0.2-0.1,0.2-0.2C180.1,199.8,180.2,200,180.3,200.2z"
		/>
	<path d="M180.3,332.4c-0.1,0.1-0.1,0.2-0.2,0.2c0-0.2,0.1-0.4,0.1-0.5C180.2,332.2,180.2,332.3,180.3,332.4z"/>
	<path d="M189,288.2c0.1,0.2,0.1,0.4,0.2,0.6c0,0.1-0.1,0.2-0.2,0.3c-0.1-0.2-0.1-0.4-0.2-0.6C188.8,288.4,189,288.3,189,288.2z"/>
	<path d="M194.3,177.1c-0.2-1-0.2-1.3-0.3-1.6c0.2,0,0.3,0,0.5,0C194.4,175.8,194.4,176.1,194.3,177.1z"/>
	<path d="M196,274.2c5.7,12.1,11.4,23.9,19.8,34.3c-0.6,0.6-0.9,0-1.2-0.3c-1.7-2-3.5-3.9-4.9-6.2c-3.1-5-5.9-10.2-8.8-15.3
		c-0.7-1.3-1.6-2.5-2.3-3.8c-0.3-0.5-0.7-1.1-0.9-1.6c-0.6-1.9-1.2-3.8-1.8-5.7C195.9,275.2,196,274.7,196,274.2z"/>
	<path d="M265.8,276.2c-0.7,0.6-1.2,0.2-1.7-0.1c-1.4-1-2.1-2.5-2.6-4c-1.3-3.4-2-7-2.2-10.6c1.6-0.5,2.2-0.3,2.3,1
		c0.2,3.2,0.9,6.2,2.1,9.1C264.2,273.2,265.1,274.7,265.8,276.2z"/>
	<path d="M248.7,345.2c0.4,0.1,0.8,0,1,0.2c4,3.6,8,7.2,12,10.8c0.5,0.5,0.8,1.2,1.3,1.8c-0.3,0.2-0.5,0.4-0.7,0.5
		c-0.2,0-0.5-0.1-0.7-0.2c-4.2-4.3-8.4-8.5-12.6-12.8C248.9,345.3,248.9,345.2,248.7,345.2L248.7,345.2z"/>
	<path d="M204,305.8c-0.9-4.9-2.5-9.5-4.5-13.9c-0.7-1.4-1.4-3-0.8-4.5c0.9,2.2,1.9,4.4,2.8,6.7c0.9,2.2,1.8,4.4,2.6,6.6
		C204.7,302.3,204.6,304,204,305.8z"/>
	<path d="M248,275c-2.7-4.4-3.9-12.4-2.9-16.9c1,0,0.8,0.8,0.8,1.3c-0.1,4,0.4,8,1.4,11.9C247.5,272.6,247.7,273.8,248,275z"/>
	<path d="M207.6,258.2c-0.2-2.8,0.5-5.2,0.8-8.3c1.7,1.5,1.4,2.8,1.3,3.9C209.5,255.4,209.4,257,207.6,258.2z"/>
	<path d="M249.6,257.8c0.9,0,1.7,0.1,2.7,0.2c0.6-1.8-0.4-4.1,1.7-5.9c0.3,2.2-0.5,4-0.6,6c0.3,0.4,0.7,1,1.1,1.5
		C253.9,260.1,251.7,259.3,249.6,257.8L249.6,257.8z"/>
	<path d="M258.5,294.8c1,0.3,1.1,1.3,1.3,2.1c0.6,1.9,1,3.8,1.5,5.7c0,0.1-0.2,0.3-0.5,0.8c-0.4-1.6-0.7-3-1-4.4
		C259.4,297.6,259,296.2,258.5,294.8C258.6,294.7,258.5,294.8,258.5,294.8z"/>
	<path d="M267,272.7c-0.1-0.1-0.3-0.1-0.3-0.2c-0.7-2.6-0.7-5.3,0-7.9c0-0.1,0.2-0.1,0.5-0.3c-0.1,1.5-0.2,3-0.2,4.4
		C266.9,270.1,266.9,271.5,267,272.7L267,272.7z"/>
	<path d="M214.9,251c0.7,2.1-0.3,3.2-0.9,4.4c-0.7,0-1.1-0.3-1-0.8C213.2,253.2,213.2,253.2,214.9,251z"/>
	<path d="M221.8,242.7c0.9,1.5,0.8,2.5,0.2,3.5C221.1,245.3,221.1,245.3,221.8,242.7z"/>
	<path d="M226,247.9c-0.9-1.4-0.4-2.5-0.2-4.1C226.7,245.4,226.3,246.5,226,247.9z"/>
	<path d="M229.6,244.8c0.8,1.1,0.5,1.9,0.2,2.8c-0.6,0.2-0.9-0.2-0.9-0.7C228.9,246.2,229.1,245.5,229.6,244.8z"/>
	<path d="M232.4,262.2c-1.3-0.6-0.4-2.1-1.3-2.9C232.4,260,232.1,261.2,232.4,262.2L232.4,262.2z"/>
	<path d="M232.9,264.7c1,1,1.6,2.2,1.5,3.7l0.1-0.1C233.6,267.3,233,266.1,232.9,264.7L232.9,264.7z"/>
	<path d="M266.2,311.1c-1.1-0.8-0.7-1.9-0.8-2.9l-0.1,0.1c0.9,0.8,0.8,1.9,0.8,2.9L266.2,311.1z"/>
	<path d="M220.1,255.4c-0.4,0.2-0.7,0.4-0.7,0.4c-0.3-0.4-0.5-0.8-0.7-1.2c0.2-0.1,0.5-0.3,0.5-0.3
		C219.6,254.7,219.8,255,220.1,255.4z"/>
	<path d="M236.9,272c-1.3-0.1-1.4-1.1-1.7-2.1l-0.1,0.1C236.3,270.2,236.5,271.2,236.9,272L236.9,272z"/>
	<path d="M237.4,273.7c1.2,0.3,1.6,1.1,1.5,2.2l0.1-0.1C238.1,275.4,237.7,274.6,237.4,273.7L237.4,273.7z"/>
	<path d="M232.3,262.3c0.8,0.6,0.7,1.5,0.7,2.4l0.1-0.1C232.1,264,232.3,263.1,232.3,262.3L232.3,262.3z"/>
	<path d="M249.6,257.8c-0.9,0.1-1.7,0.1-2.3-0.7l-0.1,0.1C248.1,257.2,249.1,256.8,249.6,257.8L249.6,257.8z"/>
	<path d="M262.7,300c0-0.2-0.1-0.4-0.1-0.6c0,0,0.1-0.1,0.2-0.1c0,0.2,0.1,0.4,0.1,0.6C262.9,299.9,262.8,299.9,262.7,300z"/>
	<path d="M266.8,313.6c0.6,0.4,0.8,0.9,0.3,1.8C267,314.6,266.9,314,266.8,313.6L266.8,313.6z"/>
	<path d="M265.4,308.2c-1.1-0.4-0.6-1.4-0.8-2.2l-0.1,0.1c0.9,0.5,0.7,1.4,0.8,2.2L265.4,308.2z"/>
	<path d="M260.1,306.8c-0.3-0.5-0.6-0.9-0.2-2.4C259.9,305.8,260,306.3,260.1,306.8C260,306.9,260.1,306.8,260.1,306.8z"/>
	<path d="M263.7,303.9c1,0.5,0.7,1.4,0.8,2.2l0.1-0.1C264.4,305.3,264.1,304.5,263.7,303.9L263.7,303.9z"/>
	<path d="M263.8,303.8c-0.2-0.5-0.8-1-0.1-1.9C263.7,302.7,263.7,303.3,263.8,303.8L263.8,303.8z"/>
	<path d="M266.9,272.8c0.2,0.4,0.4,0.8,0.9,1.9C266.8,273.8,267,273.2,266.9,272.8L266.9,272.8z"/>
	<path d="M266.1,311.2c1,0.6,0.6,1.5,0.7,2.4l0.1-0.1c-0.9-0.6-0.6-1.5-0.7-2.4L266.1,311.2z"/>
	<path d="M235.3,269.9c-0.2-0.5-0.5-1.1-0.7-1.6l-0.1,0.1C235.4,268.6,235.3,269.3,235.3,269.9L235.3,269.9z"/>
	<path d="M237.5,273.6c-0.8-0.3-0.9-0.9-0.6-1.7l-0.1,0.1C237.4,272.5,237.6,273,237.5,273.6L237.5,273.6z"/>
	<polygon points="261.9,297 262,296.8 262,297 	"/>
	<path d="M258.6,294.7c-0.1-0.3-0.2-0.5-0.2-0.3C258.4,294.2,258.5,294.5,258.6,294.7L258.6,294.7z"/>
	<polygon points="242.1,255.1 242.1,255.2 241.8,255.2 	"/>
	<path d="M244.3,255.8c0.1,0,0.2,0.1,0.3,0.1c-0.1,0.1-0.3,0.2-0.4,0.2c0,0-0.1-0.1-0.2-0.2C244.1,255.9,244.2,255.8,244.3,255.8z"
		/>
	<path d="M247.4,257c-0.3,0-0.7-0.1-1.1-0.2c0.6-0.6,0.9-0.3,1,0.3L247.4,257z"/>
	<path d="M246.6,342.8c0.2,0.3,0.4,0.5,0.7,0.8l0.1-0.1C247.1,343.2,246.9,343,246.6,342.8L246.6,342.8z"/>
	<path d="M246.7,342.7c-0.1,0-0.2,0-0.4-0.1C246.4,342.7,246.5,342.8,246.7,342.7L246.7,342.7z"/>
	<polygon points="239.8,276.6 240,276.8 239.9,276.5 	"/>
	<path d="M239.9,276.5c-0.3-0.2-0.6-0.5-0.9-0.7l-0.1,0.1c0.3,0.2,0.6,0.5,0.8,0.7L239.9,276.5z"/>
	<path d="M248.8,345.1c-0.2-0.3-0.5-0.5-0.7-0.8l-0.1,0.1C248.5,344.4,248.8,344.6,248.8,345.1L248.8,345.1z"/>
	<path d="M248.1,344.3c-0.2-0.3-0.5-0.6-0.7-0.8l-0.1,0.1C247.5,343.9,247.8,344.1,248.1,344.3L248.1,344.3z"/>
	<path d="M248.6,176.3c-1.5,1.9-3.7,1.8-5.7,2.3c-2.2,0.6-4.4,0.3-6.5-0.7c-0.2-1,0.5-1.1,1.1-1.2c2.8-0.5,5.6-0.9,8.4-1.4
		C246.9,175.1,247.9,175.2,248.6,176.3z"/>
	<path d="M266.4,206.1c0-5.3,0-10.3,0-15.4c0.8-0.2,1,0.3,1,0.8c0.1,3.6,0.1,7.3,0.1,10.9C267.6,203.7,267.3,204.9,266.4,206.1z"/>
	<path d="M265.5,210.8c1.1,3,0.7,6.1,0.9,9.1c0,0.1-0.4,0.3-0.6,0.5c-0.8-0.7-1-1.7-1-2.6C264.8,215.5,264.5,213.1,265.5,210.8z"/>
	<path d="M257.1,175.8c-3.3,2.1-4.5,2.2-7.1,1c0.2-0.3,0.4-0.7,0.7-0.8c1.8-0.3,3.7-0.5,5.5-0.7
		C256.5,175.3,256.8,175.7,257.1,175.8L257.1,175.8z"/>
	<path d="M222.8,188.1c1.6,0.5,1.2,2.1,1.9,3.1c0.6,1,1.1,2.1,1.8,3.3c-1.4-0.1-2.2-0.9-2.7-1.9C223,191.3,222,189.9,222.8,188.1z"
		/>
	<path d="M269.3,170.7c1.3,1.3,2.6,2.5,4.2,4.1c-0.8,0-1.3,0.2-1.6,0C270.4,174,269.2,172.9,269.3,170.7z"/>
	<path d="M220.1,203c2.4,1.4,4.1,2.4,6.1,3.6C222.7,206.5,221.5,205.9,220.1,203z"/>
	<path d="M232.5,196.5c-2,0.7-3.3-0.2-4.8-2C229.9,194.8,231.1,195.8,232.5,196.5z"/>
	<path d="M263.1,173c0.4-1,0.7-1.9,1.2-3.2C264.9,171.7,264.9,171.7,263.1,173z"/>
	<path d="M236.9,198.3c-0.9-0.3-1.8-0.6-2.9-0.9c0.3-0.3,0.5-0.5,0.6-0.4c0.5,0,1,0.1,1.4,0.3c0.4,0.1,0.7,0.5,1.1,0.7
		C237,198.1,237,198.2,236.9,198.3z"/>
	<path d="M227.9,207.6c0.6,0,1-0.1,1.2,0c0.2,0.1,0.3,0.5,0.5,0.8c-0.3,0-0.7,0.2-0.9,0.1C228.4,208.4,228.3,208,227.9,207.6z"/>
	<path d="M208.9,223.3c1.1-0.1,1.5,0.5,1.4,1.8c-0.4-0.2-0.8-0.3-0.9-0.5C209.2,224.1,209.1,223.6,208.9,223.3L208.9,223.3z"/>
	<path d="M266,222.9c0,0.1-0.1,0.2-0.1,0.3c-0.1-0.2-0.2-0.3-0.2-0.5c0-0.1,0.1-0.2,0.1-0.3C265.9,222.6,265.9,222.8,266,222.9z"/>
	<path d="M265.1,229c0,0.4,0,0.9,0,1.3c-0.1,0-0.2,0-0.3,0c0-0.4,0.1-0.9,0.1-1.3C264.9,229,265,229,265.1,229z"/>
	<path d="M257,175.9c0.2,0,0.4-0.1,0.6-0.1c0.2,0,0.4,0.2,0.6,0.3C257.7,176.6,257.4,176.5,257,175.9L257,175.9z"/>
	<path d="M209,223.2c-0.2-0.1-0.4-0.2-0.5-0.3C209,222.5,209,222.9,209,223.2L209,223.2z"/>
	<path d="M239.3,430.2c0.8,0.8,0.2,1.6-0.1,2.4c-1.3,3.2-2.4,6.5-3,10c-0.1,0.7-0.3,1.4-0.6,2.9c-1.1-5.3-0.1-9.4,1.8-13.4
		C237.9,430.9,237.9,430.9,239.3,430.2z"/>
	<path d="M256.7,449.6c-0.5-0.5-0.8-0.6-0.8-0.8c-0.7-4.5-1.3-9.1-2-14.1c0.6,0.4,1,0.5,1.1,0.7c1.3,4.2,2.1,8.4,2.1,12.8
		C257.2,448.6,256.9,449,256.7,449.6z"/>
	<path d="M256.1,391.7c-0.8-1.2-0.7-2,0-2.4c3.5-2,5.4-5.3,7.2-8.7c0-0.1,0.2-0.1,0.3-0.2c0.8,0.1,0.9,0.7,0.8,1.4
		c-0.6,2.2-1.9,4-3.6,5.5c-0.8,0.7-1.9,1.2-2.7,2C257.4,390,256.9,390.8,256.1,391.7z"/>
	<path d="M264.5,415.4c-1.6-1.9-1.7-3.8-1-5.8c0.9,0,1,0.6,1,1C264.6,412.2,264.5,413.8,264.5,415.4z"/>
	<path d="M233.4,468.3c-1-2.8,0.8-4.7,1.6-7.5C235,463.7,234.5,466,233.4,468.3z"/>
	<path d="M250.7,535c-1.1-2.7-1.3-5.2-1.1-8.1C250.8,529.9,251.1,531.8,250.7,535z"/>
	<path d="M233.1,532.6c0-1.7,0-3.4,0-5.6c0.5,0.7,0.9,1,1,1.4C234.4,529.8,234.5,531.3,233.1,532.6z"/>
	<path d="M234.8,457.1c-0.8-1.7-0.6-3.1-0.2-4.5c0.1-0.3,0.6-0.6,1.3-1.3C235.7,453.5,235.7,455.2,234.8,457.1z"/>
	<path d="M233.5,520.8c1,1.3,0.8,2.6,0,4.5C232.9,523.5,233,522.1,233.5,520.8z"/>
	<path d="M253.7,395.4c-1.4-1.6-1.2-2.2,0.7-2.7c0,0.4,0.1,0.7,0,1C254.2,394.2,253.9,394.8,253.7,395.4z"/>
	<path d="M234.1,513.8c-0.4-1-0.7-2,0-3.1C235.2,511.5,235.2,511.5,234.1,513.8z"/>
	<path d="M253,399.5c-0.3,0.4-0.6,0.8-0.9,1.1c-0.3,0.2-1-0.4-0.9-0.9c0.1-0.5,0.3-1,0.9-0.9C252.3,398.7,252.6,399.1,253,399.5z"/>
	<path d="M233.6,473.2c-0.1,0.7,0,1-0.2,1.3c-0.1,0.2-0.4,0.2-0.6,0.4c-0.1-0.2-0.2-0.4-0.1-0.6
		C232.9,474.1,233.2,473.8,233.6,473.2z"/>
	<path d="M251.7,423.6c0,0.4,0,0.8,0,1.3c-0.1,0-0.2,0-0.3,0c0-0.4,0-0.8,0-1.3C251.5,423.6,251.6,423.6,251.7,423.6z"/>
	<path d="M232.5,390.1c0.1,0,0.2,0,0.2,0c0,0.1,0.1,0.2,0.1,0.3c-0.1,0-0.2,0-0.4,0C232.5,390.3,232.5,390.2,232.5,390.1z"/>
	<path d="M227.7,379.7c-0.1-0.2-0.3-0.4-0.4-0.6c0-0.1,0-0.2,0-0.3c0.1,0.1,0.3,0.2,0.3,0.3C227.7,379.3,227.6,379.5,227.7,379.7
		C227.6,379.8,227.7,379.7,227.7,379.7z"/>
	<polygon points="233.4,480.7 233.5,480.9 233.3,480.9 	"/>
	<path d="M227.6,379.8c0.1,0,0.2,0,0.3,0C227.8,379.8,227.8,379.7,227.6,379.8L227.6,379.8z"/>
	<path d="M202.8,416.9c0.9,1.8,0.2,2.8,0,3.9c-1.2,4.4-2.7,8.6-5.1,12.5c-1,1.6-2.3,3-3.5,4.4c-0.3,0.3-0.8,0.5-1.2,0.7
		c-0.4-1.1,0.4-1.5,0.7-2.1c0.4-0.7,0.8-1.3,1.2-1.9c0.5-0.7,0.9-1.5,1.4-2.3c0.4-0.7,0.7-1.3,1.1-2c0.3-0.7,0.7-1.3,1-2
		c0.3-0.7,0.6-1.4,0.9-2.1c0.3-0.7,0.6-1.4,0.8-2.1c0.3-0.8,0.6-1.6,0.9-2.5c0.2-0.7,0.5-1.4,0.7-2.1
		C201.9,418.7,202.2,418.1,202.8,416.9z"/>
	<path d="M189,443.9c0.4-1.4,1-2.6,2.6-3.9C191.1,442,190.2,443.1,189,443.9z"/>
	<path d="M204.7,410.8c0-1.2,0-2,0-3.1c0.5,0.3,0.9,0.5,0.9,0.7C205.7,409.2,206.2,410.1,204.7,410.8z"/>
	<path d="M179,450.8c0.2-0.1,0.3-0.4,0.6-0.4c0.6-0.1,1.2-0.3,1.5,0.5c0.1,0.2-0.1,0.5-0.3,0.6c-0.5,0.4-1.1,0.5-1.6,0
		C179,451.3,179,451,179,450.8z"/>
	<path d="M184.9,447.4c0.3-0.4,0.5-0.8,0.8-1.1c0.2-0.2,0.6-0.2,1.5-0.5c-0.9,1-1.4,1.5-1.9,2C185.3,447.7,185.1,447.6,184.9,447.4z
		"/>
	<path d="M216.2,385.2c0.4,0.9,0.2,1.7-0.7,2.2C215.1,386.5,215.5,385.8,216.2,385.2z"/>
	<path d="M161.9,475c-0.4,0.3-0.7,0.6-1.1,0.8c-0.1,0-0.3-0.2-0.5-0.3c0.2-0.3,0.4-0.6,0.7-0.8C161.2,474.6,161.5,474.8,161.9,475z"
		/>
	<path d="M216.4,406.3c0.6-0.7,1.3-0.6,2.1,0.1C217.7,406.8,217,407.2,216.4,406.3z"/>
	<path d="M163.4,471.7c-0.1-0.2-0.2-0.5-0.2-0.6c0.1-0.1,0.4-0.2,0.6-0.3c0.1,0.2,0.2,0.4,0.1,0.5
		C163.8,471.5,163.5,471.6,163.4,471.7z"/>
	<path d="M222.5,406.5c-0.8,0.1-1.1,0.2-1.5,0.2c-0.2,0-0.3-0.3-0.5-0.4c0.2-0.1,0.5-0.3,0.7-0.3
		C221.6,406.1,221.9,406.2,222.5,406.5z"/>
	<path d="M166.6,466.9c-0.1,0.1-0.2,0.1-0.2,0.2c-0.1-0.2-0.2-0.4-0.2-0.5c0-0.1,0.1-0.1,0.2-0.2
		C166.5,466.6,166.6,466.8,166.6,466.9z"/>
	<path d="M230.1,327.7c-0.9-0.1-1.2-0.9-1.4-1.5c-1.4-3.5-3.7-6.2-6.6-8.5c-3.1-2.5-6.5-3.6-10.5-2.8c-1.8,0.4-3.3,1.1-4.7,2.2
		c-2.5,2-4.4,4.4-6,7.2c-3.2,5.5-4.7,11.6-5.3,17.9c-0.4,3.6-0.4,7.2-0.1,10.9c0.7,7.7,3.5,14.6,8.1,20.7c0.4,0.5,0.5,1.1,0.8,1.6
		l0,0c-0.7,0.2-1.2-0.3-1.6-0.7c-3-3.9-5.5-8-7-12.7c-2.6-8.2-2.6-16.5-1-24.8c1.2-6.5,3.8-12.7,8-18c1-1.3,2.3-2.3,3.4-3.4
		c3.2-3.1,7.1-3.2,11.2-2.4c0.6,0.1,1.2,0.3,1.7,0.7c5,3.2,8.8,7.4,10.8,13C230.1,327,230,327.4,230.1,327.7
		C230,327.8,230.1,327.7,230.1,327.7z"/>
	<path d="M216.5,351.8c-3.7-3.1-4.2-7.2-3.2-11.5c1-4.4,3.1-5.9,7.7-5.7l-0.1-0.1c0.6,0.6,1.1,1.6,1.8,1.7c2.7,0.4,3,2.7,3.4,4.5
		c0.4,2,0.3,4.2,0.2,6.3c-0.1,2.5-1.3,4.5-3.2,6c-2.4,1.9-5.7,1.5-8-0.9c-0.1-0.1,0-0.2,0-0.4l-0.1,0.1c0.6-0.1,1.1-0.1,1.7-0.2
		c-0.2,0.6,0,0.9,0.6,0.9c0.2,0.1,0.4,0.3,0.2,0.1c0.3,0,0,0-0.3,0C217,352.4,216.7,352.1,216.5,351.8z M224.1,348.9
		c-0.7,0.3-0.8,0.9-0.7,1.5c-1.1,0-1.5,0.9-2.4,1.9c1.6-0.7,1.6-0.7,2.3-2c0.2-0.5,0.5-1,0.7-1.5c0.2-0.2,0.4-0.3,0.5-0.5
		c0.1-0.1,0-0.2,0-0.3c-0.1,0.1-0.3,0.1-0.3,0.2C224.1,348.5,224.1,348.7,224.1,348.9z M219,336.3c-2.5,0.5-3.6,2.3-4,4.4
		c-0.3,1.7-0.2,3.5-0.1,5.2c0.1,1.5,0.9,2.8,2.1,3.8c1.2,1,3,1.1,4-0.1c0.6-0.7,1.2-1.6,1.5-2.5c1-2.4,0.5-4.9-0.2-7.3
		C221.9,338,220.9,336.8,219,336.3z"/>
	<path d="M214.1,378.8c-0.2,0.2-0.4,0.7-0.7,0.7c-3.1,0.1-6.7-1.7-9-4.4l0,0c0.8,0.3,1.7,0.3,2.4,0.8c2.2,1.6,4.7,2.5,7.4,2.9
		L214.1,378.8z"/>
	<path d="M230,327.8c0.3,0.6,0.8,1.3,1,2c0.6,2,1.2,4.1,1.7,6.1c0.1,0.3,0,0.7,0,1.7C231,334,230.1,331,230,327.8L230,327.8z"/>
	<path d="M233.4,350.4c0.4,1.8,0.5,3.2-0.5,4.8C232.5,352.5,232.5,352.5,233.4,350.4z"/>
	<path d="M233.4,341.5c-0.9-0.7-1-1.6-0.8-2.6C233.4,339.8,233.4,339.8,233.4,341.5z"/>
	<path d="M233.7,346.4c0-0.6,0-1.1,0-1.5c0-0.3,0-0.7,0.1-1c0.9,0.1,0.6,0.7,0.5,1.1C234.2,345.5,234.5,346,233.7,346.4z"/>
	<path d="M217.4,378.6c0.7-0.9,1.5-1.4,2.8-0.9C219.3,378.3,218.6,378.8,217.4,378.6z"/>
	<path d="M214.2,378.9c0.6-0.7,1.2-0.9,2.3,0c-1.1-0.1-1.7-0.1-2.4-0.1C214.1,378.8,214.2,378.9,214.2,378.9z"/>
	<path d="M222.5,375.9c-0.2,0.1-0.4,0.3-0.6,0.4c0.1-0.1,0.2-0.1,0.3-0.2C222.3,376.1,222.4,376.1,222.5,375.9
		C222.5,376,222.5,375.9,222.5,375.9z"/>
	<path d="M220,333.4c-0.2,0.1-0.3,0.3-0.5,0.3c-0.1,0-0.2-0.2-0.4-0.3c0.1-0.1,0.2-0.2,0.3-0.2C219.6,333.2,219.8,333.3,220,333.4z"
		/>
	<path d="M221,334.6c0.2-0.2,0.3-0.4,0.5-0.5c0.1-0.1,0.2,0,0.3,0c-0.1,0.1-0.1,0.3-0.2,0.4c-0.2,0.1-0.5,0-0.7,0
		C220.9,334.5,221,334.6,221,334.6z"/>
	<path d="M222.5,376C222.4,376.1,223,375.5,222.5,376L222.5,376z"/>
	<path d="M215,351.8c-0.2-0.1-0.4-0.1-0.6-0.2c0.1-0.1,0.2-0.2,0.3-0.3C214.8,351.5,214.9,351.7,215,351.8L215,351.8z"/>
	<path d="M281.9,286.2c0,1.6,0,2.4,0,3.9C281.1,288.6,281,287.8,281.9,286.2z"/>
	<path d="M282.2,278.7c0-0.7,0-1.3,0-2c0.1,0,0.1,0,0.2,0c0,0.7,0,1.3,0,2C282.3,278.7,282.3,278.7,282.2,278.7z"/>
	<path d="M645.2,351.7c0.1,1.8,0.3,3.7,0.4,5.5c0,0.1-0.2,0.1-0.4,0.3c-0.9-1-0.3-2.4-0.9-3.4c-0.5-0.5-1.1-0.7-1.6-0.2
		c-0.4,0.4-0.8,1-0.9,1.5c-0.1,0.7,0.3,1.5,0.4,2.2c0.1,0.7,0.1,1.5,0.1,2.2c0,0.2-0.2,0.4-0.4,0.8c-1.9-2-2.5-4.2-1.8-6.8
		c0.5-1.6,1.5-2.3,3-2.1c0.7,0.1,1.5,0.2,2.2,0.2L645.2,351.7z"/>
	<path d="M220.4,340.6c-0.4,0.1-1.1,0.1-1.5,0.4c-0.3,0.2-0.5,0.9-0.5,1.3c0.1,1,0.3,2,0.4,3c0,0.6-0.1,1.1-0.2,2
		c-1.6-1.5-2.2-3-2.3-4.8c0-1.4,0.3-2.8,1.5-3.6c1.2-0.8,2.4-0.4,3.7,0.3c0.1,0.7,0.4,1.6,0.4,2.4c0,0.8,0.7,1.6-0.1,2.4
		C220.6,343.2,221.5,341.7,220.4,340.6z"/>
</g>
</svg>
