<?xml version="1.0" encoding="utf-8"?>
<!-- Generator: Adobe Illustrator 19.1.0, SVG Export Plug-In . SVG Version: 6.00 Build 0)  -->
<svg version="1.2" baseProfile="tiny" id="Layer_2" xmlns="http://www.w3.org/2000/svg" xmlns:xlink="http://www.w3.org/1999/xlink"
	 x="0px" y="0px" width="900px" height="600px" viewBox="144 97 900 600" xml:space="preserve">
<g>
	<path d="M417.5,120.8c1.9,2.2,4.5,1.2,6.8,1.7c1.5-0.5,2.4-1.6,3.6-2.7c-2.3-0.9-2.8,1.6-5.2,1.6
		C421.5,121,419.5,120.8,417.5,120.8c0.3-1.2,1.9-0.3,2.6-1.6c-1.9-1-3.8-1.9-5.5-2.8c-0.9,0.2-1.1,0.9-1.5,1.3l-0.1,0.2
		c-0.7,0.3-0.7,1-0.6,1.6c-0.4-0.1-0.7-0.2-1.2-0.3c-1.2,1.4-2.5,2.8-2.9,4.9c1.1,0.8,2,1.6,3.2,1.9c4.6-0.1,9.2-1.4,13.7,0.1
		c0,0.3,0,0.5,0.1,0.8c-1.8,0.2-3.7,0.3-5.5,0.5l0.1,0.1c-1.4-1.5-3.2-1-4.8-0.8c-2.6,0.3-5,0.3-7.2-1.4c-1,1.9-0.6,3.2,0.8,4.5
		c0.8,0.7,2.1,0.9,2.3,2.1c-1.4,0.4-2.3-1.2-3.6-1.2c0.1,1.8,0.1,1.8,3.4,4.7c-1.4,0.6-2.1-1-3.3-1c-0.4,1.2-0.1,2.2,1.1,2.6
		c3.1,1.2,6.1,2.5,9.3,0.3c-1.4-1-3,0.7-4.8-0.6c2.2-0.5,4.1-1,6.3-1.6c-2.5-1.7-5.2-0.3-7.5-1.2c-0.4-0.7-0.7-1.4-1.1-2.1
		c1.4-0.2,1.9,1.5,3.6,1.5c1.1,0,2.5-0.2,4.2-1.2c-2.5-0.5-4.5-0.9-6.5-1.3c3.5-0.8,6.9-1.5,10.7-2.8c-1.4,2-3.5,1.5-4.8,2.8
		c1.7,0.8,3.4-0.2,5-0.3c-0.1,0.6-0.2,1-0.3,1.3c-1-0.1-1.8,0.2-2.5,1.1c1.3,0.4,1.9-0.3,2.4-1.2c1.5,0.3,2-1.5,3.8-1.9
		c-1.3,1.8-2.3,3.1-3.3,4.5c0.7,0.9,1.3-0.8,2,0.2c-0.9,1.6-2.7,2.1-4,3.2c-1.4,0-2.8,0.2-3.7,1.5c-3.1-0.2-6.4,0.6-9.6-1.5
		c0.2,1.1-0.3,2,0.8,3.2c2.6-1.2,5.9-0.4,8.8-1.8c1.5,0.2,2.7-0.4,3.7-1.5c0.7,0.2,1.5-0.4,2,0.3c-0.3,1.2-1.7,1-2,1.9
		c-1.8-0.3-3.3,0.7-5,1c-2.5,0.3-5,0.8-7.5,0.3c-0.4,1.4,0.1,2.1,0.7,2.8c0.2,0,0.5,0.2,0.7,0.1c1.6-0.9,3.5-0.9,5.3-1.3
		c2.1-0.5,4.6-0.5,5.7-3c0.3,0.4,0.6,0.7,0.9,1.1c-1.5,2.2-3.9,2.5-6.3,2.9c1.9,1.2,3.6-0.1,5.7,0.2c-1.5,2-3.5,1.5-5.2,2.1
		c2.5-0.5,3.2,1.7,5.3,3c-2.4,0.4-4.1-0.9-5.8,0c0.5,1.9,0.3,4.1,2.3,5.5c0.7,0.6,0.5,1.8-0.5,2.7c-0.8-0.6-1.3-1.1-1.2-2.3
		c0-0.7-1.7-0.8-1.7-2.1c-0.3-0.9,1.1-1.6,0.3-2.6c-1.1,0.1-1.3,1.9-2.7,1.3c0.3-1.2,0.6-2.2,0.9-3.3c-0.2-0.1-0.5-0.2-0.7-0.3
		c-0.5,1.3-1.3,2.5-2.1,3.4c2.3,5,3.4,6.2,8.2,8.7c0.8,0.5,1.1-1,2.1-0.3c0,0.4,0,0.9,0,1.3l0.1-0.1c-0.9,0.2-2-0.1-2.7,0.5
		c1.5,9.7,2.1,19.1-3.5,27.6c3.1,5.6,4.6,11.7,4.9,17.7c0.4,7.1,2.9,13.8,2.9,21.1c8.2,4.4,16.3,8.4,25.4,9.7
		c0.6-1.1,0.1-1.7,0.1-2.4s-0.4-1.5,0.3-2.2c1.6,1.3,1.1,3.4,2.4,4.6c3.9,0.1,7.8-0.1,11.6-1.5c2.2-0.8,3.4-2.2,3.5-4.6
		c0.2-4.1-0.2-8-2-11.8c-3.1-6.6-6.7-13-8.9-20.1c-0.2-0.6-0.5-1.2-1-1.5c-3.6-2.3-4.3-6.3-5.9-9.8c-0.6-1.3-1-2.8-0.9-4.3
		c0-2.1,0-4.2,1.6-6.2c1.1,1.3,1.7,2.4,1.2,3.9c-0.3,1.1-0.1,2.2,0.2,3.3c0.8,3,1.5,5.9,2.3,9c2.9,2.3,5.8,4.7,8.6,6.9
		c1.1,0.4,1.8-0.7,2.7-0.1c2.1,1.5,4.7,1.9,7.1,2.8c10.4,3.9,17,11.3,19.3,22.1c1.5,7.2,2.5,14.5,2.1,21.8c-0.1,1.8-0.2,3.7,0.1,5.5
		c1.2,6.4,1.5,12.8,1.4,19.3c-0.1,3.4,0.5,6.8,1.2,10.2c0.2,0.9,0.4,1.8,1.1,2.6c4.1,4.5,6.6,10,8,15.8c1.6,6.3,2.2,12.8,2.7,19.2
		c0.4,5.9,0.7,11.7,1.4,17.6c1.6,13.2,4,26.4,3.2,39.8c0,0.3,0.1,0.7,0.2,1.2c2.6,0.6,5.2,1,7.6,2.3c11.6,6.7,17.4,23.8,6.8,37.2
		c-4.5,5.7-10.5,8.1-17.7,7.8c-3.7-0.2-7.2-1.2-10.4-3.1c-2.8,0.9-5.7,0-8.5,0.7c0,2.8,0,5.4,0,8.1c0.2,0.8,1.3,0.9,1.6,2.3
		c-0.4,7.4,0.5,15.4,0.4,23.5c0,2.9-0.2,5.9-0.1,8.8c0.1,3.4-0.3,6.8-0.8,10.2c-0.8,5.2-1.7,10.4-1.7,15.6c0,6.5,0.3,13,0,19.4
		c-0.3,5.9,0,11.7,1.3,17.5c1.9,8.3,3.7,16.7,3.9,25.3c0.1,7.5-0.1,14.9-0.5,22.4c-0.7,13.3-1.4,26.6-1,40c0.1,2.3-0.1,4.6,0.8,6.7
		c1.9,0.9,4.1,0,5.8,1.4c0.2,0.2,0.4,0.5,0.5,0.9c0.1,0.3,0.3,0.7,0.3,1c-0.5,3.9,1.4,6.8,3.6,9.6c0.8,1.1,1.7,2.1,2.3,3.3
		c3.4,6.9,8.4,12.5,14.5,17.2c1.8,1.4,3,3,3.9,5.2c1.4,3.3,0.7,6.7,1.8,9.8c-1.9,2.5-4.2,3.7-7,4.1c-3.3,0.4-6.6,1-9.8,1.1
		c-3.2,0.1-6.7,0.5-9.4-0.7c-3.8-1.6-7.7-2.2-11.5-3.6c-2.6-1-4.7-2.1-4.4-5.3c-3.5-0.7-6.8-1.3-10-2c-3.7-0.7-7.3-1.5-9.8-4.9
		c0.9-5.1,1.4-10.3,4.1-15c0.4-0.8,0.7-1.6,0.6-2.5c-0.2-4.1,1.2-7.9,2.5-11.7c-0.2-1.5-0.3-3-0.5-4.4c-0.9-5.9-1.3-11.9-2.8-17.7
		c-0.6-2.5-1.9-4.7-2.5-7.2c-1.6-6.9-3.2-13.9-6.3-20.3c-1.8-3.7-3.2-7.4-4.2-11.3c-1.1-4.3-2.1-8.5-2.4-13
		c-0.4-6.5,1.2-12.6,2.5-18.8c0.6-2.6,1.5-5.2,0.8-7.9c-0.5-2-1-4-1.5-6.1c-1-4.7-2.7-9.2-2.8-14c-0.1-6.2-1.1-12.4-1.2-18.6
		c0-2.1-0.1-4.2-0.6-6.2c-2.1-8.4-4.3-16.8-7.4-24.9c-3.5-9-5.6-18.5-7.9-27.8c-0.8-3.4-0.9-6.9-3-10.2c0,3.7-1.3,6.9-2.3,10.1
		c-0.5,1.5-1.5,3.1-1.3,4.5c0.4,3.3-1.2,5.9-2.1,8.8c-0.7,2.2-1.4,4.4-1.9,6.7c-1.8,7.9-3.7,15.7-5.3,23.6c-1.7,8.1-4.2,16.1-5,24.4
		c-0.1,1.4-0.5,3-1.2,4.2c-2.8,5.1-4,10.7-5.7,16.2c-1.5,4.7-2.6,9.4-1.2,14.4c0.2,0.7,0.1,1.5,0.1,2.2c0.4,6.1,0.1,12.2-0.9,18.3
		c-1.1,6.5-2,13.1-4.6,19.2c-2.4,5.6-4,11.3-5.2,17.2c-1.5,7.8-3.5,15.5-4.3,23.4c-0.5,5.2-0.5,10.5-2,15.7c0.6,1.2,1.4,2.4,1.4,4
		c-0.2,5.7,2.4,10.7,4.5,15.7c1,2.4,2,4.7,2.4,7.3c0.6,4.3,2.1,8.3,4.1,12.1c1.2,2.3,2.2,4.6,3.3,7c0.8,1.7,1.1,3.5,0.4,5.4
		c-2.1,2-4.8,2.7-7.7,2.8c-2.8,0.1-5.7-0.3-8.4,0.2c-3.7,0.6-7.3,0.6-10.9-0.2c-2.4-0.5-4.8-0.8-7.2-0.8c-4.8-0.1-8.2-2.1-9.3-7.1
		c0-0.2-0.3-0.3-0.5-0.5c-1.8-0.2-3.6-0.2-5.2-1.7c-0.6-2.8-1.4-5.6-0.6-8.5c0.9-3.2,1.5-6.4,1.8-9.7c0.3-3,1.2-5.7,2.8-8.2
		c1.1-1.8,1.6-3.8,2.1-5.8c0.5-2.1,1-4.3,1.6-6.4c0.7-2.2,1.8-4,4.1-4.6c0.7-2,0.7-3.9,0.6-5.9c-0.6-10.4-3.3-20.5-3.7-30.9
		c-0.2-5.4-1.2-10.8-0.8-16.1c0.4-6.1,0.7-12.2,0.4-18.3c-0.3-6,0.3-12,0.9-17.9c0.1-0.8,0.1-2,0.7-2.4c2-1.7,2.3-4.1,2.7-6.2
		c0.8-5,3-9.5,4.1-14.4c0.6-3,1.4-6,1.6-9c0.1-2.6,0.5-5.1,0.9-7.6c0.8-4.5,1.7-8.9,1.6-13.5c-0.2-9-0.6-18.1-0.8-27.1
		c-0.1-1.7,0.1-3.4,0.2-5.1c0.2-3.4,0.9-6.8,0.3-10.2c-0.4-2.1-0.4-4.1-0.4-6.2c0-4.4,0-8.8,0-13.2c-2.7-1-5.4-1.4-7.6-3.1
		c-2.8,1-5.7,0.9-8.4,0.5c-6.9-0.8-12.8-3.5-15.5-10.5c-2.3-5.9-3-12.1-1.5-18.4c1.1-4.9,3.4-9.1,8.2-11.4c-0.2,1.3-1.5,1.7-2.2,2.7
		c-1.3,1.7-3,3.1-3.1,5.5c-1.4,1.6-1.8,3.7-2,5.7c-0.5,5-0.2,10,1.5,14.8c1.2,3.3,2.4,4.9,5.2,6.7c0.7-0.5,0.1-0.8-0.2-1.1
		c-5.9-5.7-6.5-12.8-5.5-20.3c0.2-1.9,0.8-3.8,1.2-5.7c1.2-0.9,1.5-2.4,2.4-3.4c0.8-0.9,1.2-2.4,2.7-2.6c0.1,0.7-0.4,1.1-0.7,1.6
		c-3.5,4.6-5,9.6-4.5,15.4c0.3,3.2,0.2,6.3,1.6,9.3c3,6.4,10,10.9,16.6,10.6c0.7,0,1.5,0,2.2-1c-2.3-2.5-4.7-5-5.9-8.4
		c-0.4-0.1-0.8-0.3-1.1-0.3c-3.4,0.1-5.1-1.9-5.9-4.9c-0.3-1.2-1.5-1.6-1.9-2.7c-0.1-6.4,2.4-12.8,1-19.3c-0.6-0.1-1-0.1-1.3-0.1
		c0-0.8,1-1.5,0.1-2.3c0.5-1.2,1.4-2.2,1.4-3.6c0.1-3.4,0.5-6.8,0.8-10.3c-1.8-1.4-1.6-3.4-1.5-5.4c0.6-6.9,0.7-13.9,0.6-20.9
		c-0.1-8.9,0.8-17.8,2-26.7c1.2-8.4,3.5-16.5,7-24.3c-0.6-0.7-0.9-1.5-0.9-2.4c-0.1-9.5-0.4-19.1,1.8-28.5c0.9-3.9,1.5-8,0.9-12
		c-0.6-4.5-1-8.9-0.5-13.4c0.8-7.8,3.1-14.8,8.4-20.7c1-1.1,1.8-2.3,2.7-3.5c3.8-5.2,8.3-9.5,14.6-11.6c0.5-0.2,1.1-0.2,1.3-0.6
		c2-2.6,5.1-3.2,7.9-4.4c5-2,9.6-4.8,13.8-8.2c1.2-1,2.5-2,2.8-3.9c-2.9-4.1-2.6-9.2-3.6-13.9c0.4-0.3,0.8-0.6,1.2-0.9
		c-0.9-4.9-3.1-9.6-2.6-14.8c2,7.6,3.5,15.4,5.7,23c-0.6,0-0.8-0.7-1.5-1.1c0.3,2.2,1.1,3.7,2.2,5.8c0.7-2.1-1.2-3.3-0.8-4.7
		c0.9-0.6,0.8-1.5,0.6-2.3c-0.3-1.8-0.8-3.6-1.1-5.4c-0.8-5.2-2.5-10.2-2.4-15.6c-2.3-3.1-4.2-6.3-1.8-10.1c-0.6-0.8-1-1.4-1.5-1.9
		s-0.2-1.8-1.7-1.6c-0.7,12.1,1,24,3.3,35.8c-0.5-0.6-1-1.2-1.1-1.9c-2.2-8.8-4-17.6-4-26.7c0-1.8,0.2-3.6,0.5-5.5
		c0.8-5.1,0.8-10.3,0-15.3c-0.7-3.9-0.5-7.8-0.4-11.7c0.1-3.7,2-6.4,5.5-7.9c4.9-2.2,9.3-1.3,13.3,1.6c9.5-2,18.4-0.9,26.9,3.4
		c1.3,0.7,2.4,1.6,3.3,2.8c3.6,4.8,5.7,10.2,7.2,15.9c0.4,1.6,1.3,3.2,0.8,5c-0.9,3-0.1,5.8,0.7,8.6c1.6,5.9,1.8,11.8-0.5,17.6
		c-0.7,1.8-1.2,3.7-1.6,5.6c-0.6,2.9-1.3,5.7-3.4,8.1c-2,0.5-4,1.6-6.6,0.6c2.1-0.9,4.2-0.7,5.9-1.7c1.4-1.4,2.1-3.3,2.5-5.2
		c0.6-3.4,1.6-6.6,2.6-9.9c1.9-6.6,1-13-1.5-19.4c-1.1,1-1.2,3-3.1,2.6c-1-0.5-1.3-1.6-2-2.5c-0.5,0.1-0.9,0.3-1.4,0.4l0.1,0.1
		c1.2-2.7,3.5-3,6.1-2.7c0.4-1.4,1.2-2.6,0.9-4c-2.4-1.8-4.8,2-7.3-0.5c2.1-1.4,4.6-1,6.9-1.6c-2.6-5.7-3.7-11.8-8.4-16.1
		c-0.9,0.4,0.2,1.3-0.8,1.7c-1.1-1.5-2-3.3-4-4.4c0,1.8,1.6,2.2,1.8,3.6c-1.4-0.3-1.9-2.1-3.5-1.6c-1.3-0.8-2.7-1.6-4.2-2.4
		c1.3-1.3,2.2,0.9,3.4-0.1c-3.1-3.4-7.3-2.5-11.5-3.6c1.7,2,3.9,1.3,5.2,2.7c-0.4,0.3-0.7,0.5-1.2,0.9c3.2,0.6,5.3,3.2,8.3,3.7
		c-0.4,0.8-1.2,1-1.9,1.3c-0.6-0.3-1.3-0.8-1.7-0.7c-2.3,0.6-4.2-0.6-6.1-1.3c-0.6-0.2-1.1-0.7-1.7-0.4c-1.6,0.8-3.1,0.1-4.6-0.3
		c-3.3-0.9-6.7-0.9-9.9-1.8c-1.3-0.4-2,0.1-2.7,1.3c1.4,0.8,2.7,1.5,3.9,2.2c3.3-0.5,6.1,0.7,9,1.4c-0.3,2-2.7,2.2-2.3,4.2
		c-1.7,0.6-3.5,0.3-5.3,0.3l0.1,0.1c-1.5-1-3.4-1.2-5.1-1.7c-1.3-0.3-3-0.4-3.4-2.2C414.4,120.1,415.7,121.6,417.5,120.8z
		 M414.1,147.2c-0.3-1.1-1-1.7-1.9-2c-0.9,0.1-1.2,0.6-1.2,1.4c-1.4,0.7-1.4,1.9-1.2,3.4c1.2-1,1.1-2.3,1.1-3.5
		C412,145.8,412.8,146.9,414.1,147.2z M412.6,157.8c-0.3,2.8-0.1,5.4,1.2,7.9c0.3,2.9,0.6,5.8,1.8,8.5c0.2-3-0.3-5.8-1.9-8.4
		C414.1,163,413.3,160.4,412.6,157.8z M406,116.1c-0.5,3-1.1,6.1-0.8,10c1.3-2.9,2.4-5.2,3.4-7.3c1.2-1.3,3.2-1.3,3.8-3l-0.1,0.1
		c1-0.3,1.8-0.7,2.3-1.5c0.3-0.5-0.1-0.7-0.4-0.9c-0.3-0.2-0.5-0.5-0.8-0.8c0.9-0.7,1.8,0.7,2.7-0.1c0-0.2,0-0.4-0.1-0.5
		c-0.8-1-2.5-0.9-3.1-2.2c2.1-0.1,3.7,1.4,5.9,2.3c-0.3-2-1.3-2.8-2.7-3.4c-1.1,0-2.3,0-3.1,1.2C409,110.1,406.7,112.3,406,116.1z
		 M491.3,386.1c0.3-1.5,1.6-2.7,1.9-4.6c-2.1,0.2-4.2,0.8-5.9,0c-1.4,0.5-2.5,0.9-3.5,1.9c0.4,4.5,0.8,8.9,1.3,13.6
		c0.5,0.7,1.8-0.5,2.3,0.8c-1.2,0.3-2,1-2.1,2.9c1.3-1,2.4-1.4,2-2.9C488.1,393.6,490.6,390.2,491.3,386.1z M361.3,401.4
		c-0.9,8.4,1.1,16,7.8,21.8c8.5,7.4,20.6,4.7,26.3-4.3c6.5-10.1,5.3-22.4-3.1-30.9c-5.8-5.9-14.3-6.8-20.8-2.9
		c-1.1,0.7-2.2,1.5-3.4,2.2c0-0.5,0-1,0-1.5c-0.9-0.1-1.5,0.4-1.6,1.3c0.6,0,1.2,0,1.8,0C364.4,391.2,361.9,395.9,361.3,401.4z
		 M494.9,385.3c-9,10.1-8.7,25.1,0.1,34.2c0.8,0.9,1.5,1.9,3.4,2.3c-5.5-5.4-8.2-11.5-8.4-18.9c-0.2-7.4,2.2-13.6,7.4-18.9
		c-0.5-0.1-0.9-0.2-1.4-0.3c1.8-3.3,5.2-3.6,8.4-4.4c1.2-0.3,2.4,0,3.5-0.5c0.7-0.6,0.7-1.4,0.6-2.1c-0.8-8.1-1.6-16.3-2.5-24.4
		c-0.8-7.9-1.9-15.8-2.5-23.7c-0.4-4.9-0.5-9.7-0.7-14.6c-0.3-5.7-1.8-11.1-3.7-16.4c-0.8-2.2-2.1-4.2-3.6-5.9
		c-3.4-4.2-4.9-8.9-5.3-14.2c-0.2-2.5-0.2-5.1-0.9-8.1c-0.8,0.9-1.6,1.6-2.1,2.4c-1.7,2.6-4.3,4.4-5.8,6.9c-2,3.1-5.6,5.5-5.3,9.9
		c0,0.6-0.5,1.3-0.8,1.9c-0.1,0.9,0.7,1.4,0.8,2.1c0.6,8.4,3.8,16.2,5.1,24.4c1.3,8.3,3.7,16.1,7.1,23.8c1.9,4.2,3.2,8.7,5.3,12.9
		c2.7,5.7,3.4,12,4.3,18.1c0.3,2.1-0.5,4.1-1,6.1c-0.5,1.8-1.2,3.4-1.9,5.2c0.3,0.2,0.6,0.4,0.9,0.5
		C496.1,384.5,495.3,384.8,494.9,385.3z M464.9,209.1c-1.5-3.9-4.8-5.8-8.8-8.3c3.5,5.6,5.3,11,8.1,16c2.2,3.9,3.5,8.1,3.4,12.6
		c-0.1,1.9-0.4,3.7-1.2,5.3c-0.8,1.6-1.9,2.7-3.8,3.2c-8.6,2.1-17.1,2.1-25.6-0.7c-4.2-1.4-8.1-3.4-12-5.4c-3.1-1.7-5-4.1-6-8.1
		c-2.4-10.5-2.7-21.5-6.4-31.8c-0.8,0.1-1,0.7-0.8,1.3c1.5,4.8,2.4,9.7,3.3,14.6c0.8,4.5,0.4,9-0.6,13.5c-1.6,6.8-3.7,13.3-8.4,18.9
		c-3,3.5-5.3,7.6-8.9,10.7c-0.9,0.8-1.5,1.9-2.3,3.1c1.1,3.7-0.7,7.7,0.7,11.5c-1.3,3.7-0.7,7.8-1.8,11.5c-1,3.2-0.5,6.2,0.7,9.3
		c0.6,1.6,1.1,3.2,1.7,5c2.3-0.4,4.6-0.7,6.8-1.1c4.9-1,9.8-2.1,14.7-3.1c1.2-0.2,2.4-0.5,3.6-0.6c8.8-0.2,17.5-1.4,26.3-1.8
		c7.5-0.3,14.8,1,22,3.2c1.1,0.4,2.3,0.7,3.6,1.1c1.6-5.9,5.3-10.5,9.1-14.9c2.2-2.6,4.2-5.4,5.9-8.4c1-1.9,1.8-3.8,1.8-5.9
		c0-5.9-0.7-11.7-3.7-17c-3.7-6.4-7.3-13-11.4-19.2c-1.1-1.6-2.1-3.2-3.4-4.7c-1.4-1.6-3-3.2-3.3-5.6c1.6,0.8,2.1,2.5,3.2,3.8
		c2,2.3,3.8,4.7,6,6.9c4.6,4.7,7.1,10.8,10,16.5c0.2,0.4,0.3,0.9,1.2,1c0.6-1.1,0.2-2.2,0-3.3c-0.8-3.9-1.9-7.9-2.4-11.9
		c-1-8.5-6.2-13.8-13.1-17.9c-2.5-1.5-5.2-2.6-7.9-4c-0.8,1.2,0,2.1,0.4,3c0.5,1.2,1.7,2.1,1.4,3.6
		C465.6,211,465.2,209.9,464.9,209.1z M397.3,293.8c-0.4,0.8-0.1,1.4,0.1,2c3,6.8,3,14.1,2.2,21.2c-0.4,4-1.7,8.2-3.6,11.8
		c-3,5.5-4.3,11.4-5.5,17.4c-0.6,3.1-1.3,6.2-2.3,9.7c5.5,0.9,10.9,2.1,17.1,2.6c2.6,1.8,2.6,1.8,6,1.7c0.4-0.9-0.5-1.3-0.7-1.9
		c-0.3-0.5-0.6-1-0.5-2c1.5,1.2,3.1,2.5,4.7,3.8c16,2.8,32.1,4,48.2,0.1c2.3-0.6,4.3-1.7,6.2-3.1c0.7,0.3,0.2,0.8,0.2,1.4
		c1.6,0.1,3-0.5,4.4-0.9c1.4-0.3,2.9-0.2,4.4-1.2c-0.7-6.9-1.6-13.9-3.3-20.8c-2.2-9-4-18.1-3.8-27.5c0.1-5.6,1.1-11.1,1.9-17
		c-4.1-1.5-8.4-2.3-12.7-2.9c-8.8-1.4-17.6-0.6-26.3,0.2c-6.3,0.6-12.7,0.1-19,1.4c-3.7,0.7-7.5,0.8-10.8,2.9l0.1-0.1
		C401.7,292.2,399.4,293,397.3,293.8z M438.2,438.4c2.5,10.5,6.2,20.6,9.8,30.7c1,2.9,1.4,5.9,2.3,8.9c2.1,7.1,2.3,14.4,3.1,21.7
		c0.7,5.8,0.2,11.8,1.5,17.5c1.2,5.2,1.6,10.6,3.8,15.7c-1.7,10.3-2.7,20.7-2.4,31.2c0.1,2.1,0.5,4.1,1.2,6.1
		c2.6,7.2,5.3,14.5,7.7,21.8c2.4,7.3,4.2,14.8,5.7,22.4c0.6,3.1,1.2,6.2,2.1,9.3c0.8,2.8,0.9,5.3-1.5,7.6c1.9,1.3,0.2,2.7,0.2,4
		c0.8,1.5,1.3,3.3,3.6,3.3c1.7-2.3,2.9-5,4.4-7.6c2.1-1.4,4.7-2.2,5.8-5.1c0.5-1.3,2.3-2,4.3-2.1c-1.1-2-0.9-4-0.8-5.9
		c0.2-6.8-0.5-13.7-0.5-20.5c-0.1-7.4,0.7-14.6,1.1-22c0.6-12.4,1.4-24.9-0.9-37.3c-0.5-2.6-1.1-5.3-1.7-7.9
		c-1.4-6.2-2.1-12.3-1.6-18.8c0.4-4.8,0.4-9.7-0.4-14.6c-0.7-4.4-0.1-8.8,0.3-13.1c0.3-4.6,1.1-9.2,1.3-13.9c0.1-2,0-4.1,1.4-6
		c0.4-0.6,0.4-1.6,0.4-2.5c0-3.3,0-6.6-0.1-9.9c0-1.7-0.2-3.4-1.2-4.9c-0.8-1.2-0.8-2.5-0.8-3.9c-0.2-7.9-1.2-15.8-1.8-23.7
		c-0.1-1.3-0.2-2.7-1.1-3.9c-2.6,1.2-5.4,1.1-8.1,1.5c-4.2,0.6-8.4,1-12.4,2.8c-3.1,1.3-6.7,1.1-10,1.9c-5.9,1.4-11.8,3-17.9,4.5
		C436.2,430.2,437.2,434.3,438.2,438.4z M371.4,639.1c0.5-1.6,0.4-3.7,2.1-4.5c2.4-1.2,4.6-2.8,7.5-2.7c1.4,0,2.9,0.2,4.3,0.3
		c0.9-0.9,0.7-1.9,0.8-2.8c0.4-6.4,1.7-12.8,1.8-19.3c0.1-2.5,0.8-5.1,1.4-7.5c2.3-9.4,4.7-18.7,6.3-28.2c0.4-2.3,1.7-4.2,2.3-6.5
		c2.7-9.6,3.9-19.4,2.9-29.4c-0.2-2.3-0.7-4.7-0.4-6.9c0.5-4.6,1.2-9.1,2.9-13.5c0.7-1.7,1.2-3.4,1.3-5.3c0.1-1.8,0.7-3.6,2-5
		c1.3-1.5,1.8-3.2,2.2-5c0.9-4.2,2.5-8.2,2.7-12.5c0-0.6,0.2-1.2,0.5-1.8c3.5-6.4,4-13.5,5.6-20.4c1.6-6.6,3-13.4,4.7-20
		s2.5-13.4,5-19.8c-4.6-1.9-9.3-1.2-13.8-1.7c-6.2-0.7-12.4-1.5-18.4-3.1c-0.5-0.1-1-0.1-1.5-0.2c-4.2,4-9.3,5.6-14.8,5.5
		c-0.2,0.5-0.4,0.7-0.4,0.9c0.3,9.6-0.8,19.3,0.1,28.9c0.4,3.9-0.4,8-0.4,12.1c0,1.6,0,3.1,0.3,4.7c0.5,2.8,0.9,5.5,0.5,8.4
		c-0.2,1.1-0.1,2.2,0,3.3c1.1,9.8-0.5,19.2-3.2,28.6c-3.2,11-5.9,22.2-8.9,33.3c-0.8,3.1-0.9,6.3-1,9.5c-0.3,10.6-0.6,21.2,0.7,31.9
		c1.4,10.8,2.6,21.6,3.6,32.4c0.6,6.5-0.5,12.6-1.4,18.8c-0.1,0.7-0.2,1.4-0.3,2.9C370.3,642.5,370.9,640.9,371.4,639.1z
		 M381.9,381.3c8.8,2,14.5,7.4,17.4,15.6c3,8.3,1.3,16.1-3.4,23.5c4.4,1.6,8.8,2,13.1,2.6c3.4,0.5,6.8,0.8,10.2,1.2
		c1.3,0.2,2.6,0.4,3.9-0.2c1.5-0.7,3,0.3,4.6,0.8c1.7-2.9,2-6.3,4.3-8.5c0.6-0.5,1,0,1.3,0.1c2.1-2.1,4.1-4.2,6.2-6.2
		c0.2,0.2,0.4,0.4,0.6,0.6c-1.4,4.1-4.2,7-7.9,9.2c-0.2,0.9-0.2,1.7,0.4,2.5c0.3,0.1,0.6,0.3,0.9,0.2c3.6-0.5,7.2-1.4,10.7-2.3
		c5.3-1.3,10.7-2.7,16.1-3.5c4.1-0.6,7.9-2.6,12.1-3c3.6-0.4,7-1.8,11-0.7c-2-17.5-4.2-34.9-4.6-52.3c0-0.7-0.1-1.5-0.9-2.2
		c-2.9,0.8-5.9,1.6-8.9,2.4c-11.2,3.1-22.5,4.7-34.1,4.1c-4.7-0.2-9.2-1.1-13.8-1.6c-7.9-0.9-15.8-1.7-23.6-3.3
		c-3.2-0.7-6.5-1.2-10.2-1.8C385.5,366.2,383.7,373.6,381.9,381.3z M367.5,384.4c-1-3.7-0.9-7.3-0.2-10.9c0.4-1.9,0.6-3.9,0.4-5.8
		c-0.4-4,0.4-7.8,1.3-11.6c3-13,7-25.7,10.6-38.5c0.4-1.5,0.9-3.1,0.9-4.7c0.2-5,1.8-9.8,2.4-14.8c0.5-3.3,2.4-6.2,3.7-9.1
		c0.7-1.7,1.5-3.3,1.9-5.1c0.9-4.3,2.3-8.4,1.4-13c-0.4-2.3,0-4.9,0.6-7.3c1.3-5.1,1.7-10.4,2.5-15.5c0.7-4.5,3-7.9,6-11
		c0.4-0.4,0.7-0.9,1.3-1.2c-0.1,4.5-3.9,7.5-4.9,11.9c1.2-0.2,1.6-0.9,2.1-1.5c3.1-3.9,5.6-8.3,9.2-11.9c0.4-0.4,0.8-1,1-1.5
		c2.1-5.7,4.7-11.5,4.8-17.6c0.1-5.9,0.4-11.9-1.3-17.7c-0.3-1-0.6-2.1-1-3.4c-2.9,1.7-5.7,3.3-8.5,4.9c-3.7,2.1-7.5,4.2-11.5,5.6
		c-3.3,1.2-6.4,2.6-8.7,5.1c-4.6,5.1-9.6,10.1-11.8,17.3c-0.3,0.6-1.1,0.2-1.9,0.4c-2.3,4.7-3.7,9.6-3.7,15
		c-0.1,6.2,0.3,12.4-0.2,18.7c-0.3,3.3-0.5,6.6-1,9.8c-0.6,4.3-0.6,8.5-0.4,12.8c0.3,6.4-0.4,12.7-2.3,18.8
		c-1.5,4.5-2.5,9.2-3.8,13.8c-0.7,2.4-0.8,4.8-0.9,7.3c-0.8,10.6-1.3,21.2-1.3,31.9c0,2.2-0.1,4.4-0.3,6.6c-0.2,2.5-0.3,5,0.2,7.6
		c0.8,4.2,0.2,8.5-0.2,12.8c-0.1,1.1-0.5,2.3-0.2,3.3c1.9,5.6-0.3,11-0.6,16.5c-0.1,2.9,0.4,5.6,1.6,8.2c0.6,1.3,1.5,2.2,3.3,2.6
		C356.1,401.7,357.5,391.6,367.5,384.4z M520.8,667.6c1-4-0.3-7.2-3.9-9.3c-1.5-0.9-2.8-2-4.2-3.1c-2.7,0.5-5.4,2.2-8,0.9
		c-1.1-1.2,0.5-1.6,0.2-2.5c-2.7-0.2-5.4,1.2-8.1-0.4c1.9-2.6,3.4-2.9,11.5-2.8c-0.3-1.1-1.2-1.1-2.1-1c-4.2,0.2-8.3-0.1-12.5,0.5
		c-1.3,0.2-2.7,0.6-3.7-1.2c1.4-2.9,4.5-2.3,6.9-2.7c2.5-0.4,5.1-0.2,7.6,0.5c-0.7-2.2-0.7-2.2-2.3-2.3c-4.2-0.2-8.3,0.5-12.4,1.3
		c-1.5,0.3-3.1,1-4.7-0.2c0.1-2.1,1.8-2.5,3.2-2.9c3.5-1.1,7.1-1.8,10.8-1.8c0.8,0,1.7,0.3,2.5-0.2c0.1-1.1-0.7-1.1-1.4-1.2
		c-3.3-0.3-6.6,0-9.8,0.8c-2,0.5-4,1-6,0.5c-0.4-1.3,0.5-1.6,1.2-2c3.4-1.7,7.1-1.9,10.7-2.2c0.8-0.1,1.7,0,2.9,0
		c-1.5-2.9-2.8-5.5-3.3-8.5c-2.1-1.1-4.3-0.9-6.7-0.6c-2.2,2-4.4,4.4-7.3,5.7c-1.3,0.6-1.7,2.3-2.3,3.7c-0.4,1-0.8,2-1.2,3.1
		c-0.9,2.1-1.8,2.6-4,2.1c-1.1-0.2-2.1-0.7-3.6-1.2c1.3,5.2-2.4,8.9-3.1,13.5c-0.3,2.2-0.7,4.3-1.1,6.8c5.5,1.6,11.1,2.8,17.2,3.9
		c-1.1-2.3-3.4-2.5-4.1-4.4c3.5-0.3,4.9,0.2,6.5,8.3c5.5,1.4,10.9,4,17.2,3.4c0.7,1.4,2.1,1.7,3.6,1.7c4.1,0,8-0.6,12-1.1
		c1.3-0.2,2.6-0.5,3.5-2.2c-3-0.8-5.7-0.1-8.5,0.2c-2.8,0.4-5.3,1.4-8,2C510,668.3,515.5,668.6,520.8,667.6z M524.5,417.4
		c7.2-10.2,7-23.1-2.7-32.4c-9.1-8.6-20.7-5.5-26.6,3.3c-6,8.9-5.7,18.3-0.5,27.3c3.3,5.7,8.5,9,15,9.2
		C516.1,424.7,521.1,422.2,524.5,417.4z M397.5,679.7c1.4,0,2.9,0.1,4.1,2c-6,0.5-11.8-0.2-17.2,2.2c5-0.7,10,0.3,15-0.6
		c1.3-0.2,2.3-0.8,3.5-2c-2.6-4.9-5.5-9.7-7.7-14.7c-5.4,1.4-10.7,0.6-16,0.3c-1.2-0.1-2.5-0.4-2.9-1.8c0.1-1.3,0.9-1.7,2-1.6
		c5.2,0.3,10.5-0.3,16,0.5c-0.2-1.3-0.5-2.5-0.7-3.7c-6.2,1.8-12.5,0.6-18.7,1.1c-0.8,0.1-1.4-0.5-1.7-1.4c0.1-2,1.8-2.2,3.3-2.6
		c3.9-0.9,12.2-0.5,16.3,0.8c0.6-0.8,0.3-1.6-0.3-2.6c-3.4,1.3-6.8,0.2-10.3,0c-3.3-0.2-6.7,1.1-9.7-0.7c0-1.7,0.9-2.1,1.9-2.3
		c5.7-1.3,11.3-1.5,17.2,0.5c-0.1-1.2-1-1.7-1.9-2.4c-2.8-0.3-5.6-0.3-8.4-0.3c-2.7,0-5.2,1.2-7.9,0.7c-0.6-2,0.8-2.4,1.9-2.8
		c3-1.1,6.2-1.5,9.4-1.5c1.2,0,2.4,0,3.8,0c-1.1-2.8-2.1-5.3-2-8.1c0-1.4-0.8-2.5-2-3.6c-3.6-0.9-6.8,0.5-10,2.3
		c-1.2,3.3-1.8,6.8-3.9,9.7c-2.7-0.3-5.8,0.8-7.4-2.9c-0.9,3.9-2.3,7-3.7,10.1c-0.9,2-1.2,4.5-1.4,6.8c-0.2,2.2-0.8,4.3-1.3,6.5
		c1.7,2,0.1,4.3,0.6,6.6c1.4,0.8,3,1.7,4.7,2.6c0.1,0.1,0.3,0.5,0.3,0.8c1.1,4.3,4.4,5.6,8.4,5.6c2.6,0,5.1,0.1,7.3,0.8
		C384.4,680.5,390.9,679.6,397.5,679.7z M383.5,318.9c-0.7,0.5-1.7,1-1.9,2.4c-0.7,5.5-2.8,10.6-4.7,15.8c-3,8.3-5.4,16.9-6.3,25.6
		c-0.6,6-1.4,12.1-0.7,18.3c0.1,0.6,0.2,1.2,0.3,1.9c2.4-0.5,4.8-0.9,7.5-1.4c0.6-2.5,1.1-5.1,1.8-7.6c1.9-6.8,3.8-13.7,5.8-20.5
		c0.4-1.3,0.6-2.6,0.8-3.9c0.8-7.3,3.5-14,6.2-20.6c1.6-3.9,3.7-7.7,5-11.8c1.3-4.3,1.6-8.6,0.2-13c-1.4-4.5-2.5-9.2-4.2-13.7
		c-0.5-1.3-0.8-2.7-1.4-4.7C386.5,296.3,384.5,307.3,383.5,318.9z M493.3,380.1c1.9-3,2.4-6.2,1.8-9.6c-1.6-8.5-4.3-16.5-8.3-24.1
		c-0.8-1.5-2-3-1.3-5.1c0.2-0.6-0.5-1.6-0.9-2.3c-2.4-5.2-4.3-10.6-5.2-16.3c-0.1-0.6-0.2-1.2-0.4-1.8c-1.7-6.4-4.1-12.7-4.5-20.3
		c-1.1,1.8-1,3.1-1.1,4.2c-0.5,10.1,0.7,19.9,3.2,29.7c2.6,10.1,3.5,20.4,4.8,30.7c0.7,5.1,1.3,10.1,2,15.5
		C487,379.8,490.1,378.9,493.3,380.1z M365.5,388.2c-8.5,5.7-10.2,25.6-0.3,33.3C358.2,410.4,357.9,399.5,365.5,388.2z M490.1,414.8
		c-1.1-2.5-1.9-5.1-3.1-7.6c0.4,4.8,1.1,9.6,1.3,14.4c2.4,1,4.6,1.4,6.9-0.1C493.3,419.3,491.2,417.4,490.1,414.8z M422.6,114.1
		c1.7-0.9,3.6-1.2,5.4-1.7c1.5-0.4,3.4,0.6,5.2,0.8c-4.5-2.3-9-2.2-13.8-0.1C420.5,114.3,421.7,114.6,422.6,114.1z M366.3,635.6
		c-0.8,2.6-3.2,5.3-0.5,7.8c0.3-0.1,0.6-0.1,0.9-0.2C366.6,640.7,366.4,638.2,366.3,635.6z M509.5,653c0.3,1,0.9,0.6,1.4,0.6
		C510.7,652.4,510.2,652.6,509.5,653z M487.1,401c-1,1-0.6,1.8-0.4,2.7C487.5,402.8,487,402,487.1,401z M415.3,160
		c-1.6,0.4-0.2,1.3-0.6,1.9C415.6,161.4,415.4,160.7,415.3,160z M419.8,110.2c-0.1,0.6,0.3,0.8,1,0.9
		C420.8,110,420.4,109.8,419.8,110.2z M367.5,424.2c0.3,0.2,0.6,0.3,0.9,0.5c0.1-1.1-0.7-1.1-1.2-1.4
		C366.9,424,367.3,424.1,367.5,424.2z"/>
	<path d="M639.4,191.5c-2.3,2.1-3.9,4.7-4.4,8.2c1.3-1.5,2.2-2.8,3.3-4c3.1-3.1,7-4.8,11.2-5.8c9.8-2.3,19.1-0.7,28,3.9
		c2.7,1.4,4.9,3.6,6.8,6.1c-0.4-3-1.7-5.7-4.2-7.1c-10.3-5.9-21-9.9-33.1-5.7c-2.3,0.8-4.1,2.5-6.6,2.8c0.3-1.4,1.7-1.7,2.7-2.2
		c7.4-3.3,15-4.9,23.1-2.5c2.7,0.8,5.3,1.8,7.9,2.8c4.6,1.8,8.4,4.5,10.8,8.9c0.1,0.2,0.4,0.2,0.8,0.3c5.1-3.5,11.3-5.7,14.7-11
		c-2.1-5.4-4.3-10.3-2.6-15.9c0.2-0.8-0.2-1.7-0.4-2.5c-0.9-3.3-1.8-6.6-2.2-10c-0.1-0.6-0.5-1.5,0.9-2.1c0.2,2.1,0.5,4.1,1,6
		c1.3,5.4,2.5,10.9,3.7,16.4c-0.3-0.1-0.7-0.2-1.2-0.3c0.2,1.9,1,3.6,2.2,5.5c0.6-2.3-1.5-3.5-1.2-5.3c0.4,0.1,0.8,0.2,1.2,0.3
		c-1.1-7.7-3.4-15-3.7-22.7c-3.4-5.4-3.4-5.5-1.9-10.3c-0.8-1.2-1.7-2.4-3-4.2c-0.9,13.1,0.9,25.2,3.5,37.3
		c-0.5-0.5-0.9-1.1-1.1-1.7c-2.8-7.6-3-15.7-4.4-23.6c-0.5-2.6,0.1-5.3,0.4-8c0.6-4.6,1.1-9.2,0.5-13.9c-0.6-4.3-1.2-8.7-0.9-13.1
		c0.3-4.5,1.8-8,6.4-9.7c4.7-1.8,8.8-0.9,12.6,1.9c9.2-2.1,18.7-0.9,26.9,3.3c1.3,0.7,2.4,1.5,3.3,2.7c3.6,4.8,5.8,10.2,7.2,15.9
		c0.5,1.9,1.2,3.7,0.7,5.7c-0.7,2.7,0,5.3,0.8,7.9c1.4,4.8,2,9.6,0.5,14.4c-1.2,4.1-2.4,8.2-3.5,12.3c-0.5,1.8-1.2,3.4-2.6,4.8
		c-2.1,0.5-4,1.5-6.6,0.4c2.2-0.7,4.2-0.7,6-1.6c1.5-1.6,2.1-3.5,2.6-5.6c0.5-2.4,1-4.8,1.8-7.1c1.6-5.1,2.4-10.2,1.1-15.5
		c-0.5-2.1-1.1-4.2-1.8-6.5c-1.2,0.8-1.2,2.6-2.8,2.7c-2-0.1-1.6-2.7-3.5-2.8c1.7-2.1,4.1-2,6.2-2.6c0.4-1.2,0.8-2.3,0.3-3.4
		c-2.4-1.3-4.7,1.9-7.2-0.2c2.1-1.7,4.5-1.2,6.7-1.6c-2.3-8.2-4.8-13.1-7.9-15.6c-0.5,0.1-0.2,0.9-0.9,0.9c-1.2-1.2-1.8-3-3.5-3.8
		c-0.9,0.7,0.6,1.3-0.1,1.9c-0.4,0-0.8,0.1-1.1,0.1c-0.4-0.2-0.8-0.5-1.3-0.7c-1.5-0.5-2.6-1.6-4-2.4c1.2-1.1,2.1,0.8,3.1-0.1
		c-2.5-2.3-4.8-2.9-10.6-2.9c1.6,1.6,4.1,1.1,5.6,2.6c-0.4,1.1-1.4-0.6-1.7,0.6c2.7,0.8,4.9,2.7,7.6,3.8l-0.1-0.1
		c0.1,0.9-0.8,1-1.3,1.7c-1.3-1.5-2.9-1.4-4.5-0.8c-2.5-1.4-5-1.7-7.7-2c-4.4-0.6-8.8-1.4-13.1-2.4c-0.6,0.3-1.4,0.4-1.6,1.4
		c1.2,0.7,2.4,1.4,3.7,2.1c3.2-0.2,6.2,0,8.9,2c-2.3-1.4-3.4,1-5.2,1.7c-1.6,0-3.3-1.1-5.4-0.3c3.1,1.6,5.9,1.4,8.7,0.1
		c-0.1,0.7-0.3,1.4-0.4,2.2c-2.4,0.3-4.7,0.8-7.1,0.9c-2.4,0.1-4.9,0.4-7.4-1.2c2.9-0.4,5.5,1.2,8.4,0.1c-3.2-1.3-6.9-0.9-9-4.6
		c-1.1,2.1-2.6,3.3-2.9,5.4c1.1,0.8,2,1.6,3.4,2c2.1-0.3,4.5-0.8,6.7-0.6c2.2,0.2,4.8-0.9,6.7,1.3c-4.1-0.5-7.6,2.5-12,1.7
		c2.1-0.5,3.9-1,6.4-1.6c-4.4-1-8.4,1.2-11.8-1.7c-0.8,3.5-0.2,4.2,3.5,5.8c0.4,1,1.3,1.3,2,2.1c1.7,0.3,3.3-0.1,5.4-1
		c-2.8-0.6-5-1.4-7.4-1c0.2-0.3,0.5-0.7,0.7-0.8c3.6-0.4,7.1-1.2,10.9-2.3c-1.5,1.9-3.6,1.5-5,2.7c1.8,0.7,3.4,0,5-0.3
		c0.2,0.5,0.3,0.8,0.4,1.1c1.1-0.2,1.5-1.5,3.1-1.7c-1.2,1.7-2.2,3-3.1,4.3c0.6,0.9,1.3-0.8,1.9,0.3c-0.3,1.1-1.8,1.2-2,2.4
		c-1.2,0.1-2.4,0.5-3.9,1.3c1.8,0,2.9-0.3,3.8-1.3c0.4,0.2,1-0.1,1,0.5c-0.5,1.2-2,1.3-2.5,2.5l0.1-0.1c-1.4-0.2-2.6,0.5-3.9,0.8
		c-3,0.5-5.9,1.2-9,0.6c-0.4,1.3,0.2,2.1,0.8,3.1c1.3,0,2.5-1.4,3.9-0.7l-0.1-0.1c2.5,1.5,5.2,0.7,8,0.5c-0.9,1.9-2.6,1.5-4.2,2.3
		c2,0.2,2.3,1.9,3.5,2.9c-1.7,0-3.3-0.5-4.9-0.1c0,0.3-0.1,0.7-0.1,1l0.1-0.1c-1.5-0.2-1.9,1.8-3.6,1.6c-0.2-1.2,0.9-1.8,1.1-2.6
		c0.1-0.5-0.3-0.9-1-1c-0.5,0.7-0.5,1.9-1.6,2.3c-0.2-2.1-0.2-2.1,0.9-4c0.5-0.4,1.4,0.4,1.7-0.5c-0.5-0.7-0.9-1-1.6-0.8
		c-3.8,4.7-0.9,10.9,6.8,15c0.7,0.1,1.3-1.3,2.2-0.3c-0.3,0.5-0.5,0.9-0.7,1.3l0.1-0.1c-0.7,0.1-1.5-0.1-2.1,0.4
		c1,9.5,2.2,19-3.7,27.6c1.8,3.3,2.8,6.8,3.6,10.4c0.8,3.6,1.4,7.3,1.6,11.1c0.3,5.2,2.3,10.2,2.5,15.5c0,0.6,0.3,1.2,0.5,2.1
		c7.4,3.9,15.1,7.6,23.6,9.3c0.6,0.1,1.2,0.2,1.7-0.3c0.3-1.4-0.9-2.8-0.2-4.4c1.8,1.1,1.4,3.3,2.5,4.7c2.1,0.3,4.2,0.1,6.2-0.1
		c1.3-0.1,2.7-0.4,3.9-0.8c4.2-1.2,5.1-2.4,5.2-6.8c0.1-3.5-0.6-6.8-2-10c-3-6.8-6.9-13.2-9-20.4c-0.3-0.9-0.9-1.4-1.6-2
		c-4.1-3.5-5.2-8.4-6.2-13.2c-0.5-2.1,0.4-4.2,1.2-6.6c1.4,1.2,1.9,2.3,1.6,3.7c-0.2,1.4-0.1,2.7,0.2,4c0.7,2.8,1.5,5.7,2.3,8.5
		c2.8,2.3,5.7,4.6,8.5,6.8c1,0.5,1.7-0.5,2.7-0.1c0.7,0.8,1.5,1.6,2.8,1.9c3.1,0.7,6.1,1.8,9.2,2.4c2,0.4,3.7,1.3,5.3,2.3
		c2.5,1.5,4.6,3.6,6.8,5.7c0.7-4.4,1.7-6.5,4.8-9.8c1.7-1.9,3.7-3.6,5.7-5.1c6.9-5.1,14.4-9,23-10.8c5.1-1.1,8.2,0,10.9,4.2
		c0.9,1.4,1.7,3,2.3,4.6c1,2.4,0.6,4.5-0.7,6.6c-1.7,2.7-3.8,5.1-6.2,7.2c-0.9,0.8-2.1,1.3-2.4,2.6c1.6,0.6,3.2,0.2,4.5,0.4
		c1.9,0.9,1.9,2.5,1.8,3.9c1.8,0.9,3.3,0,4.7,0c1.7,1.2,1.7,2.7,1.3,4.5c2.2,0.1,3.7,1.6,3.7,3.4c-0.1,1.9,1.2,2.8,1.9,3.8
		c0.4,1.8,0.1,3.3-0.5,5c1.5-0.1,2.7-0.2,3.9-0.3c4.7-0.5,8.3,1.2,10.6,5.5c0.4,0.8,0.9,1.5,1.3,2.2c2.3,3.9,2.5,7.8-0.4,11.6
		c-0.5,0.7-1,1.4-1.6,2c-8.4,8.8-18.6,14.1-30.5,16.2c-2.3,0.4-4.6,0.5-6.9,0.1c-2.5-0.5-4.4-1.7-5.6-4.1c-1.5-3.1-2.7-6.2-3.6-9.6
		c-1,0.7-1.3,1.8-1.8,2.8c-3.3,5.8-7.2,11.2-12.7,14.9c-3.5,2.3-6,5.3-8.5,8.4c-0.1,0.1-0.4,0.1-0.9,0.1c1.5-5,5.3-7.8,8.9-10.8
		c0.1-5.4-0.5-10.6-1.2-15.8c-0.7-5.1-1.6-10.1-1.2-15.3c0.7-8.1-1.6-15.8-4.6-23.1c-1.8-4.5-5.2-7.9-9.8-9.8
		c-3.1-1.3-6.4-1.4-9.5-2.6c-1.2-0.5-2.4-1.1-4-1c2.4,5.9,6,10.6,9.5,15.4c-1.7-0.2-2.5-1.5-3.3-2.7c-1.7-2.5-3.6-5-4.9-7.7
		c-1.9-3.9-4.9-6.4-9.1-8.9c3.1,5.1,4.8,10.2,7.4,14.8c1.8,3.2,3.2,6.6,3.7,10.3c0.2,1.1,0.3,2.2,0.2,3.3c-0.2,5.7-1.8,8.1-7.4,9.1
		c-7.9,1.5-15.8,1.4-23.5-1.3c-4-1.4-7.9-3.3-11.7-5.3c-3.3-1.7-5.6-4.2-6-8.5c-0.4-4.2-2.1-8.3-2.5-12.5
		c-0.5-5.9-2.1-11.5-3.4-17.2c-0.1-0.6-0.2-1.2-0.9-1.6c-0.9,0.7-0.4,1.5-0.2,2.2c1.4,4.8,2.1,9.8,3.1,14.7
		c0.7,3.8,0.1,7.6-0.6,11.3c-0.9,4.3-1.8,8.7-3.9,12.6c-3.7,6.6-7.8,13-13.7,18c-2.7,2.3-5.5,4.9-9,6.3c-0.6,0.2-1.1,0.6-1.8,0.5
		c-0.8-0.1,0-1.2-0.9-1.5c-1.7,0.8-1,2.2-0.3,3.2c1.3,2,1.8,4.3,2.8,6.3c3.6,7.3,5.5,15.1,7.5,22.9c0.2,0.8,0.5,1.6,0.8,2.6
		c4.2-0.5,8.1-1.4,12.2-2.3c6.7-1.5,13.4-2.7,20.3-2.8c4.5-0.1,9-0.6,13.5-1.1c9.4-0.9,18.5,0.1,27.5,3c1.1,0.4,2.3,0.7,3.6,1.1
		c1.3-5.5,4.7-9.7,8.1-13.9c2.5-3,4.9-6.1,6.8-9.5c1-1.9,1.8-3.8,1.7-5.9c0-6.7-1.4-12.9-4.9-18.9c-3.7-6.2-7.4-12.3-11.1-18.6
		c-0.4-0.6-0.4-1.4-0.5-2.1c3.7,4.2,7.7,8,10.2,13.3c3.9,8.3,8.4,16.3,8.7,25.8c0,0.5,0.2,0.9,0.2,0.8c-1,6.5-4.1,11.4-8.1,15.4
		c-2.7,2.8-4.8,6-7.1,9c-1.6,2.1-3.1,4.9-3.3,8c-0.1,2.1-0.7,4.1-1,5.8c1.6,4.6,5.2,7.2,8.6,10.1c2.4,2,5.2,2.7,8.1,3.1
		c2.2,0.3,4.2-0.2,5.8-2.1c1.6-2,3.6-3.6,5.3-5.6c2.9-3.3,6.4-6.3,8-10.4c2.4-6,5.9-11.5,8.1-17.6c0.3-0.8,0.6-1.9,1.8-2
		c0.8,0.8,0.2,1.6-0.1,2.4c-2.2,6-4.5,11.9-7.6,17.4c-4.6,8-10.7,14.5-17.6,20.5c-1.1,1-2.3,1.1-3.7,0.6c-4.7-1.8-8.9-4.4-12.8-7.6
		c-1.4-1.1-2.6-2.4-3.9-3.5c-1.1,3-0.3,5.9,0.1,8.7c0.9,5.4,0.6,11,2,16.4c1.5,5.9,2.9,11.9,3.7,17.9c1.6,12.1,3.3,24.2,4.6,36.3
		c0.6,5.1,1.5,10.2,0.9,15.3c-0.2,2.1-0.1,4.4,1.1,6.4c0.5,0.9,0.5,1.9,0.6,2.8c0.7,7.9,2.4,15.7,2.7,23.7c0,0.4,0,0.9,0.2,1.1
		c2.1,1.5,1.2,3.8,1.3,5.7c0.1,2.8,0,5.6,0.1,8.4c0.4,8.1,0.1,16.1,0.1,24.2c0,2.1-0.3,4.1-0.7,6.2c-0.9,5.1-1.7,10.1-1.7,15.3
		c0,7.1,0.2,14.2-0.1,21.3c-0.2,5.3,0.2,10.4,1.3,15.6c1.8,8.3,3.9,16.7,3.9,25.3c0,10.7-0.4,21.5-1,32.2
		c-0.6,11.6-0.9,23.2-0.3,34.8c0,0.9,0.1,1.7,0.9,2.4c1.6,0.8,3.8-0.1,5.4,1.1c0.7,0.6,1,1.3,0.9,2c-0.4,4,1.5,7,3.9,9.9
		c0.8,0.9,1.5,2,2,3.1c3.4,6.9,8.5,12.5,14.5,17.2c1.9,1.5,3.1,3.2,4,5.5c1.3,3.2,0.7,6.5,1.7,9.4c-1.9,2.4-4.1,3.7-6.7,4
		c-3.5,0.5-7,1-10.6,1.2c-3,0.1-6.4,0.4-9.1-0.7c-3.8-1.6-7.7-2.2-11.5-3.6c-2.7-1-4.5-2.3-4.6-5.4c-3.3-0.7-6.4-1.3-9.5-1.9
		c-3.8-0.7-7.5-1.6-10.1-4.9c0.9-5.2,1.6-10.6,4.3-15.4c0.4-0.7,0.6-1.7,0.6-2.5c-0.2-3.5,0.8-6.8,2-10c0.3-0.7,0.5-1.4,0.4-2.1
		c-0.7-5.4-1.4-10.9-2.1-16.3c-0.6-4.6-2.7-8.8-3.8-13.3c-1.7-6.5-3-13.2-6.1-19.2c-1.9-3.8-3.2-7.6-4.3-11.6
		c-1.9-6.6-3-13.4-1.9-20.3c0.7-4.2,1.3-8.5,2.5-12.6c0.8-2.7,0.9-5.5,0-8.3c-1-3.3-1.7-6.6-2.3-10c-0.5-3.1-1.7-6.1-1.6-9.4
		c0.1-7.2-0.9-14.4-1.4-21.6c-0.1-1.5-0.5-2.9-0.8-4.3c-2.2-8.6-4.6-17.2-7.9-25.6c-1.1-2.7-1.8-5.6-2.6-8.4
		c-2.6-8.8-4.4-17.8-7-26.7c-0.4,5.1-2.9,9.5-3.9,14.3c-0.1,0.4-0.4,0.7-0.3,1c0.5,3.3-1.4,6.1-2.2,9.1c-0.3,1.2-0.8,2.3-1,3.5
		c-1.9,8.3-3.9,16.7-5.7,25c-1.7,8.3-4.2,16.4-5.1,24.8c-0.2,1.7-0.6,3.4-1.4,4.9c-3.6,6.6-5,14-7,21.2c-0.6,2.1-0.5,4.3-0.1,6.5
		c1.5,8.3,0.6,16.6-0.8,24.8c-1.1,6.4-2.1,12.8-4.8,18.8c-1.5,3.3-2.5,6.6-3.3,10.1c-2.2,10-4.7,20-5.7,30.2
		c-0.5,4.8-0.3,9.8-1.9,14.7c1.3,1,1.4,2.4,1.4,3.9c0,1.7,0.1,3.4,0.7,5.1c1.3,3.6,2.2,7.2,3.9,10.6c0.9,1.9,1.8,3.8,2,5.9
		c0.7,5.3,2.5,10.2,5.1,14.8c0.9,1.7,1.8,3.5,2.5,5.3s1.5,3.7,0.3,5.7c-2.2,2-4.8,2.6-7.7,2.7c-3.9,0.1-7.8-0.1-11.7,0.5
		c-1.8,0.3-3.6,0-5.5-0.2c-3-0.4-5.9-1.2-9-1.2c-5.8-0.1-7.9-1.9-9.7-7.5c-1.9-0.3-3.9-0.2-5.3-1.5c-1.4-4.1-1.4-8.1,0-12
		c0.3-1,0.4-2.2,0.6-3.2c0.5-2.6,0.2-5.5,1.5-7.9c2.5-4.4,3.9-9.2,5-14.1c0.7-2.9,1.9-5.5,4.9-6.6c0.5-2,0.4-3.8,0.4-5.7
		c-0.4-9.8-3-19.3-3.5-29.1c-0.3-6.3-1.4-12.7-0.8-19c0.5-5.5,0.8-11,0.4-16.5c-0.5-7,0.3-13.9,1.3-21c1.3-0.5,1.6-1.8,2.1-3.1
		c1.5-4,1.9-8.3,3.4-12.3c1.6-4.3,2.8-8.9,3.1-13.6c0.2-3.1,0.6-6.1,1.1-9.1c0.8-4.5,1.5-8.9,1.5-13.5c-0.2-11.5-1.1-22.9-0.4-34.4
		c0.3-4.3-0.4-8.5-0.4-12.8c0-6,0.5-12,0.4-17.9c-0.1-8.4-0.2-16.9,0.9-25.3c1.4-11.1,1.4-22.4,5.4-33.2c2.5-6.7,4.2-13.7,5.3-20.9
		c1.2-8,4.9-15.3,8.2-22.7c2.6-5.8,4.4-11.6,2.7-18.1c-1.8-6.7-4.2-13.2-5.6-20.1c-1.6-7.7-5.8-14.5-7.9-22.2
		c-1,3.2-1.8,6.4-2.6,9.5c-0.9,3.3-1.4,6.7-1.4,10.1c0.1,7.2-1.9,14-4.5,20.7c-0.7,1.8-1.5,3.6-2.9,5.2c-2.5,1.3-5.2,2.5-7.9,3.5
		c-1.3,0.5-2.4,0.7-2.9-1c1.9-1.2,4-1.9,6.1-2.6c2.3-0.8,3.8-2.3,5.1-4.5c3.2-5.6,4.1-11.7,4.8-17.9c0.3-2.5,0.3-5.1,0.1-7.7
		c-0.2-4.7,1.1-9.2,3.1-13.4c1.1-2.2,1.4-4.3,1.2-7c-3,0.6-5.8,1.2-8.5,1.7c-0.9,4.1,0.6,7.9,0.7,12.4c-1.9-2.1-1.9-4.2-2.4-6
		c-0.5-2-0.2-4.1-1-6.3c-5.5-0.2-11-1-16.4-3.1c-1.2,1.5-0.9,3.3-1.3,4.9c-1.2,5-2.8,9.9-3.6,14.9c-0.9,5.7-1.2,11.4,1.1,17
		c1.3,3.3,1.9,6.8,1.7,10.4c1.6,2.3,3.6,3.9,6.2,5c1.2,0.5,2.6,0.8,3.3,2.2c-1.6,0-3.1,0-4.6,0c-2.8-1.6-4.6-4-6.7-6
		c0.1-5.5-1.2-10.7-3.4-15.6c-1-2.3-1.2-4.7-1.1-7.2c0.3-5.4,1.9-10.6,3.9-15.6c1.5-3.7,1.2-7.6,2.3-11.2
		c-15.9-7.1-15.2-28.1,2.4-34.5c-0.1-1.3-0.4-2.5-1.4-3.6c-1.2-1.2-2.2-2.6-3.3-3.9c-3.2-3.9-4.4-8.4-3.7-13.3
		c0.6-4.3,2.3-7.9,6.6-9.7C640.7,190.7,639.9,191,639.4,191.5z M702.6,173.8c0.7-2.4,0.2-4.6-1.1-6.7c-0.2-3.2-0.6-6.4-1.7-9.4
		c0,3.2,0.1,6.4,1.8,9.3C701.1,169.4,702.2,171.6,702.6,173.8z M721.2,113.4c-1.8-1.3-3.4-1.5-5.1-1.3c-3.3-1.7-6.2,0.2-9.4,0.8
		c1.2,1.5,2.5,1.5,3.8,1.1c1.9-0.6,3.7-1.3,5.6-1.9C717.6,113,719.1,113.3,721.2,113.4z M684.7,293.8c-0.3,0.8-0.2,1.4,0,2
		c2.9,6.1,3,12.6,2.4,19c-0.5,5.4-2.2,10.7-4.7,15.6c-1.3,2.6-2.4,5.3-3.1,8.2c-1.4,5.6-2,11.3-3.9,17.2c5.6,0.8,10.9,2.2,17.1,2.5
		c1.3,1.2,3.5,2.4,6.3,1.7c-0.6-1.1-1.2-2.1-1.8-3.1c0.2-0.2,0.3-0.3,0.5-0.5c1.4,1.2,2.9,2.4,4.3,3.6c13.3,2,26.6,3.7,40.1,1.5
		c2.9-0.5,5.8-1.1,8.6-1.6c2-0.4,3.6-1.6,5.2-2.5c0.7-0.1,0.6,0.6,1.1,1c2.6-0.6,5.3-1.1,8.1-1.7c0.6-1.5,0.2-3,0-4.3
		c-0.8-5.9-1.5-11.8-3.1-17.6c-2-7.6-3.2-15.3-3.7-23.1c-0.4-6,0.7-11.9,1.6-17.9c0.1-0.8,0.5-1.7,0.1-2.8
		c-5.3-1.9-10.9-2.7-16.6-3.3c-5.4-0.5-10.8-0.4-16.1,0.2c-8.3,1-16.6,0.4-24.8,1.9c-3.5,0.6-7.3,0.7-10.4,2.8l0.1-0.1
		C689.4,292.3,686.9,292.8,684.7,293.8z M723.1,429.5c2.2,6.4,3.3,13,5.3,19.4c2,6.6,4.5,12.9,6.6,19.4c0.8,2.6,1.3,5.2,2,7.8
		c1.9,6.8,2.8,13.8,3.4,20.9c0.8,9.5,0.8,19,3.4,28.3c0.7,2.4,0.8,5,2,6.8c-0.4,8.6-2.9,16.7-2,25.1c0,0.4,0,0.7,0,1.1
		c-1,6.2,0.7,11.8,3,17.5c4.7,11.8,8.4,24,11,36.4c0.9,4.2,1.5,8.4,2.8,12.5c0.8,2.3,0,4.3-1.5,6.3c1.4,1.3,0.1,2.6,0,4.1
		c0.7,1.5,1.3,3.2,3.5,3.4c1.9-2.3,2.9-5,4.8-7.8c1.8-1.2,4.5-2.1,5.6-5.1c0.4-1.1,2.2-1.9,4.1-1.9c-0.8-1.9-0.8-3.7-0.8-5.5
		c-0.1-7.8-0.4-15.6-0.5-23.5c-0.1-5.4,0.5-10.7,0.9-16.1c0.6-8.8,1.2-17.6,0.9-26.4c-0.3-8.6-2-17-3.9-25.3c-1-4.3-1.6-8.8-1-13.3
		c0.6-4.8,0.5-9.6,0-14.2c-0.8-7.5,0-14.9,0.7-22.3c0.2-2.4,0.4-4.9,0.6-7.3c0.2-2,0-4.1,1.3-6c0.4-0.6,0.4-1.6,0.4-2.5
		c0-3.2,0-6.4,0-9.5c0-2-0.1-3.9-1.3-5.6c-0.8-1.1-0.8-2.5-0.8-3.9c-0.3-5.1-0.4-10.3-0.9-15.4c-0.4-4-0.5-8-1.6-11.9
		c-3,1.1-6.2,1.1-9.2,1.5c-3.8,0.6-7.7,0.7-11.3,2.7c-1.5,0.8-3.5,0.9-5.4,1.1c-6.7,0.8-13.1,3-19.6,4.5c-0.9,0.2-1.9,0.3-2.7,1
		C722.6,427.1,722.7,428.4,723.1,429.5z M658.7,639.1c0.5-1.6,0.4-3.6,2.1-4.5c2.3-1.3,4.7-2.8,7.5-2.7c1.4,0,2.9,0.2,4.4,0.3
		c1.3-3.8,0.9-7.8,1.5-11.7c0.7-4.4,0.8-9,1.7-13.4c1.8-9.1,4.1-18.1,6-27.2c1-4.8,2.5-9.4,3.8-14c2.6-9.4,3.5-19,2.2-28.7
		c-0.5-4.4,0.3-8.7,0.6-13c0.1-1.4,1.2-2.8,1.6-4.3c0.7-2.8,1.9-5.5,2.1-8.5c0.1-0.9,0.5-1.9,1.1-2.7c3.6-5.1,4.2-11.1,5.3-16.9
		c0.3-1.4,0.3-2.9,1.1-4.2c1.9-3.3,2.6-7.1,3.4-10.8c2.1-9.4,3.9-18.9,6.4-28.2c1.8-6.7,2.5-13.7,5.1-20.2c-4.6-2-9.2-1.3-13.8-1.8
		c-6.8-0.7-13.6-1.8-20.2-3.3c-4.7-1.1-9.4-1-14-2.2c-0.8,1-0.5,2-0.4,3c0.1,7.5-0.1,14.9-0.7,22.3c-0.1,1.7-0.2,3.4,0,5.1
		c0.6,6.7,0.1,13.4,0,20.1c0,0.5-0.1,1,0,1.5c1.3,5.4,0.6,11,1,16.4c0.6,8.9-1,17.5-3.4,26c-2.9,10.6-5.6,21.3-8.6,31.9
		c-1.1,3.8-1.1,7.7-1.3,11.6c-0.2,3.4-0.2,6.8-0.3,10.3c-0.5,12.1,1.5,23.9,3,35.8c0.8,6.1,0.8,12.2,1.6,18.3
		c0.7,5.1,0.3,9.9-0.7,14.8c-0.4,1.6-0.4,3.4-0.6,5.6C657.9,642.4,658.3,640.7,658.7,639.1z M748.3,363.2
		c-10.9,2.3-21.8,3.1-32.8,1.5c-9.2-1.3-18.5-1.8-27.6-3.7c-4.3-0.9-8.6-1.5-12.9-2.2c-1,1.2-0.9,2.6-1.3,3.8
		c-3.4,11.7-4.9,23.6-5.9,35.7c-0.3,3.8-1,7.5-1.7,11.2c-0.4,2.7-0.3,5.3-0.1,7.8c0.5,1,1.3,1.1,1.9,1.2c6.6,0.9,13.1,2.8,19.8,3.3
		c6.2,0.5,12.3,1.9,18.5,2.4c1.4,0.1,2.8,0.4,4.3-0.2c1.4-0.6,2.9,0.1,4.3,0.9c1.9-2.6,2.1-6.1,3.8-7.8c1.1-1.2,1.6-0.8,2.3-0.6
		c2-1.8,3.6-4.1,6.6-6.1c-1.6,4.9-4.5,7.6-8.1,9.7c0,0.9,0,1.8,0.5,2.5c0.2,0.1,0.5,0.2,0.7,0.2c6.5-0.7,12.5-3.1,18.9-4.1
		c8.6-1.4,16.8-4.4,25.4-5.4c1.7-0.2,3.4-0.6,5,0.1c0.6-0.2,0.6-0.7,0.5-1.2c-1.9-17.7-4.1-35.3-4.4-53.5
		C759.6,360.3,754,362,748.3,363.2z M780.5,639.5c-3,0.5-5.8,1.7-9,1.1c1.6-2.9,4.4-3.7,14.9-4.4c-1.4-2.7-2.7-5.4-3.1-8.3
		c-2.2-1.2-4.4-0.9-6.8-0.6c-2.1,2.1-4.3,4.3-7.3,5.7c-1.3,0.6-1.7,2.4-2.3,3.7c-0.5,1-0.8,2.1-1.2,3.1c-0.9,2-1.9,2.5-4.1,2
		c-0.6-0.1-1.2-0.4-1.7-0.6c-0.4-0.2-0.9-0.3-1.7-0.7c-0.3,2.4,0.3,4.8-0.9,6.9c-1.1,1.9-1.7,4-2.2,6.2c-0.5,2.4-0.9,4.7-1.2,7.3
		c4.8,1.9,10,2.2,14.9,3.8c0.5,0.2,1.2,0,2,0c-0.6-2.1-3.2-2.3-3.9-4.2c3.8-0.6,5.2,1.2,6.7,8.2c5.5,1.5,10.9,3.9,17.1,3.4
		c0.8,1.1,1.9,1.6,3.3,1.6c4.2,0,8.3-0.6,12.4-1.2c1.3-0.2,2.6-0.6,3.5-2.2c-3-0.8-5.7-0.2-8.5,0.3c-2.7,0.4-5.4,1.1-7.9,2.3
		c2.6-3.5,4.4-4.1,14.6-5.3c0.6-3.6,0-6.7-3.3-8.8c-1.7-1.1-3.5-2.1-4.8-3.6c-3.1,0.5-5.8,2.4-8.5,0.7c-0.5-1,0.6-1.4,0.4-2.2
		c-2.4-0.2-4.7,0.6-7,0.1c-0.3-0.1-0.5-0.4-1-0.8c1-2.5,3.3-1.9,5.2-2.3c2-0.4,4.1-0.5,6.2,0.1c-1-1.4-1-1.5-2-1.4
		c-4.3,0.2-8.6-0.1-12.8,0.6c-1.3,0.2-2.7,0.4-3.4-1.3c2.2-2.7,7.1-3.4,15.1-2.2c-0.4-0.9-0.6-1.6-1.6-2.1c-3-0.2-6.1,0-9.3,0.4
		c-2.9,0.4-5.8,1.6-8.9,1.1c-0.2-2.4,1.4-2.8,2.7-3.2c3.6-1.2,7.3-1.9,11.2-1.9c0.8,0,1.7,0,3.1,0
		C787.3,639,784.6,638.8,780.5,639.5z M637.1,229.3c-4,2.6-7.1,6-7,11.3c0.1,3.8,1.9,6.8,4.5,9.3c4.7,4.4,10.5,6.4,16.7,7.6
		c6.4,1.2,12.6,0.3,18.7-1.6c3.8-1.2,7.1-3.3,9.6-6.4c3.1-3.9,3.5-8.2,1.2-12.6c-1.9-3.6-4.9-6-8.4-7.9c-5-2.7-11.6-4.3-18-4.3
		C648.6,224.8,642.5,225.8,637.1,229.3z M644.7,674c1.5,1,3.3,1.6,4.8,3c0,0.1,0.2,0.3,0.3,0.5c1.3,4.5,4.6,5.7,8.8,5.6
		c2.5,0,4.9,0.1,7.1,0.8c5.8-4,19.1-5.5,23.5-2.3c-6,0.6-11.8-0.3-17.1,1.9c-0.1,0.6,0.3,0.5,0.6,0.5c3.3-0.5,6.6-0.4,9.9-0.4
		c1.6,0,3.2-0.2,4.7-0.5c1.3-0.3,2.6-0.8,3-2.4c-3-4.6-5.3-9.5-7.6-14.1c-5.5,1.2-10.8,0.5-16.1,0.2c-1.2-0.1-2.5-0.4-2.9-1.9
		c0.2-1.5,1.3-1.7,2.4-1.6c5.1,0.3,10.2-0.2,15.5,0.5c0.1-1.3-0.3-2.4-0.8-3.9c-2.4,1.4-5.1,1.2-7.7,1.2c-3.1,0-6.1,0.1-9.2,0.1
		c-1.3,0-2.8,0.2-3.4-1.6c0.5-2.2,2.6-2.5,4.3-2.6c5.2-0.4,10.5-0.9,15.5,1c0.8-1-0.3-1.6,0.1-2.9c-3.8,1.5-7.2,0.3-10.7,0.2
		c-3.3-0.1-6.7,1.1-10.4-1.1c2.9-3.2,6.5-2.7,9.7-2.8c3.4-0.1,6.8-0.2,10.3,1.8c-0.6-1.6-1.4-2.2-2.2-2.9c-2.8-0.3-5.6-0.2-8.4-0.3
		c-2.7-0.1-5.2,1.4-8,0.5c-0.4-1.8,0.9-2.2,2-2.6c2.8-1,5.7-1.4,8.6-1.5c1.3,0,2.7,0,4.3,0c-0.2-2.2-1.7-3.9-1.6-5.9
		c0.2-2.2-0.4-4.1-2.2-5.7c-3.6-0.9-6.6,0.5-9.9,2.2c-1.4,3.1-1.8,6.8-3.9,9.6c-5.2,0.1-5.2,0.1-7.8-2.2c-0.6,3.2-1.6,6.2-3.2,8.9
		c-1.1,2-1.1,4.2-1.4,6.4c-0.4,2.5-0.7,5.1-1.6,7.5C645.6,669.4,644.7,671.6,644.7,674z M652.5,205.5c1.6-0.2,3.2,0,4.7-0.4
		c3.8-1.1,6.4,0.1,8.4,3.4c0.5,0.8,1,1.6,2.1,1.8c-1.3-4.6-1.3-4.6-4.5-7.8c-5.6-0.4-10.9,1.5-16.1,1.7c-0.8,1.2,0.8,1.5-0.2,2.5
		c-0.8,0.6-2.2-0.1-3.3,0.4c-0.7,1.3-0.3,2.4,0,3.5c0.8,1,2,0.3,2.9,0.9c-0.3,1-1.5,0.4-2,1.2c0.1,2.3-0.6,4.7,0.9,7.1
		c6.2-1.6,12.5-1.2,19,0.2c0.4-1-0.4-1.6-0.7-2.3c-4.9-2.6-10.3,0.1-16-1.4c4.3-1.1,11-1.2,14-0.8c2.4,0.3,3.7,1.6,4.4,3.8
		c0.2,0.5,0,1.3,0.8,1.4c0.2,0,0.5,0,0.7,0c-0.4-4.7-3.3-7.4-8-7.2c-3.3,0.1-6.6,0.2-9.8-0.7c-0.8-0.2-1.7-0.3-1.9-1.6
		c1.8-0.2,3.4,0.5,5,0.6c1.9,0.2,3.9,0.1,5.9,0.1c5,0,8.9,2.6,10.8,7.1c0.1,0.3,0.3,0.6,0.5,0.9c3.1-0.3,6-1.2,8.6-2.9
		c9-6.2,8.5-15.8-0.4-21.1c-9.1-5.5-19.2-7.8-29.9-4.4c-4.6,1.5-8.8,3.6-11.5,7.9c-1.9,3.1-2.2,6.1-0.2,9.3c1.6,2.6,3.1,5.2,5.6,7.4
		c1.6-3.4-1.5-6.4,0-9.8c2.1-0.3,3.2-2.4,4.8-3.5c5.7,0.2,10.9-2.1,16.6-1.6c0.8,0.3,1.5,1,2.1,1.8c0.5,0.7,1,1.4,1.5,2.1
		c1.4-0.2,2.9-0.7,4.2,0.1c1,0.5,1.6,1.5,2.2,2.4c1.4,2.5,0.9,4.8-1.7,6.2c-0.9,0.5-1.8,1-2.9,2.2c0.2-2.2-0.7-3.3-2-4.4
		c-1.3-1.1-2.6-2.2-3.7-3.5c-1.4-1.6-2.9-2-4.9-1.5c-3.2,0.7-6.5,0.7-10.5,0.6C649.8,205.4,651.2,205.6,652.5,205.5z M682,248.9
		c2.4-1.7,4.4-3.1,5.4-5.3c1.4-3.1,3.4-5.6,5.7-8c1.3-1.4,2.1-2.9,2.7-4.7c1.6-4.3,2.9-8.6,3.8-13c0.1-0.6,0.4-1.2,0.3-1.8
		c-0.2-7.3,0.4-14.8-2.4-21.9c-3.8,1.8-6.9,4.7-11.2,5.6c0.8,5.2,0.4,10.2-3.1,14.5c-3.3,4-7.8,6.1-13.4,7.4
		C685.1,229.1,685.7,238.7,682,248.9z M779.7,227.8c1.6,5,1.6,10.1,1.8,15.2c0.3,5.7,0.4,11.4,1.7,17.1c0.7,3.1,0.2,6.5,1.4,9.7
		c6.8-7.1,13.1-16.9,15.5-25c-1-3.3-2.1-6.5-3.7-9.5c-1.6-3-3.8-5.7-4.6-9.2c0.2-1,0.5-2,0.8-3.2c-2.4-1.1-4.5,0.5-6.7,0.3
		c-2.2-0.1-4.3-0.1-6.8-1.1C779.3,224.2,779.1,226.1,779.7,227.8z M840.6,242c-2.9-0.2-5.8,0-8.7,0.7c-9.3,2.3-17.6,6.5-24.7,13
		c-2.1,1.9-3.9,4.1-5.1,6.7c-1.7,3.8-0.5,6.1,3.6,6.9c3.1,0.6,6.1,0.3,9.1-0.3c9.6-2.2,18.1-6.6,25.3-13.3c3.5-3.2,4.6-5.1,5.9-9.3
		C845.4,243.2,843.2,242.3,840.6,242z M796,211.4c0.8-2.8,3.1-3.7,5.5-4.3c1.3-0.3,2.3,0.4,3,1.6c0.7,1.4,1.5,2.8,2.4,4.4
		c5.6-2.9,10.2-6.8,12.9-12.4c1.7-3.4,0.4-5.4-3.4-5.8c-2.3-0.2-4.6,0-6.9,0.5c-9.7,2.4-18.1,7.2-25.3,14c-2.5,2.4-4.6,5.1-5.4,8.6
		c0.3,2.3,1.8,3.2,4,3.4c3.1,0.3,6.1,0.1,9.2-1.1c0.2-1.3-0.2-2.9,1.3-3.8c1.6-1,3.1-0.4,5.2,0.1C797.5,214.7,796.8,213,796,211.4z
		 M805.3,245.4c-0.5-0.4-0.9-0.7-1.4-1c1.3-2,4.1,0.1,5.3-2.4c-0.6-1.6-1.4-3.4-2.2-5.4c1.5-1.6,2.9-3.2,3.9-5.2
		c1.5-2.8,4.3-3.8,7.4-4.1c2.7-0.2,5.3-0.5,7.9-0.7c-0.2-3.3-0.6-3.8-3.2-3.6c-2.3,0.2-4.6,0.5-6.9,0.7c-1.4,0.2-2.4,1-3.5,1.8
		c-1.9,1.4-3.6,2.9-5.2,4.6c-2.3,2.4-2.5,3.7-1,6.8c-1.1,0.5-1.9,0.1-2.2-1c-0.7-2.1-0.4-4.2,1.1-5.8c1.5-1.7,3.3-3.3,5-4.8
		c2.4-2.2,5.2-3.6,8.6-3.4c1.3,0.1,2.7-0.3,3.8-0.4c0.9-0.9,0.4-1.7,0.4-2.3c-0.8-0.8-8-0.4-12.3,0.5c-1.7,2-3.3,4.3-5.5,6
		c-1.6,1.3-1.3,3.6-2.6,5.8c-0.4-2.1-1.7-3-2.4-4.2c-0.5-1.6,0.2-3,0.4-4.9c-1.3,0.5-2,1.6-3.2,1.6c-1.1-0.1-2.2-0.1-3.4-0.2
		c-1.3,2.5-0.2,4.7,1.1,6.8s3.1,3.8,4.1,6.1c0.9,2.3,1.8,4.5,2.8,7c-0.4,1.7-0.8,3.6-1.4,5.9C802.4,247.9,803.7,246.7,805.3,245.4z
		 M841.8,237.8c-1.4-2.2-3.4-3.1-5.9-3.1c-3.2,0-6.2,0.7-9.3,1.4c-6.1,1.5-11.4,4.2-16.5,7.5c-3.8,2.4-7.2,5.4-9.9,9.1
		c-2.6,3.5-2,7-0.1,10.8c4.3-12.7,30.7-26.4,44.1-22.2C843.1,239.8,842.5,238.8,841.8,237.8z M817,190.8c-1.1-1.7-2.7-2.4-4.6-2.4
		c-2.6-0.1-5.1,0.4-7.6,1.1c-8.6,2.5-16.2,6.8-22.8,12.9c-0.7,0.7-1.4,1.4-2,2.1c-4.2,5-4.5,6.9-2.5,12.1
		c6.6-11.7,17.4-17.6,29.5-21.8c3.7-1.3,7.6-1.8,12.2-0.7C818.2,192.6,817.6,191.7,817,190.8z M674.2,225.2
		c-7.8-4.8-16.4-6.1-25.3-4.9c-2.2,0.3-4.3,0.9-6.4,1.5c-6.4,2-8.6,4.2-11.4,11c7.1-7.7,16.2-9.7,26.1-9.1c10,0.6,18.9,3.7,25,12.4
		C681.2,231.2,678.3,227.7,674.2,225.2z M813.1,236.1c3.4-2.4,9.9-4.4,13.6-4.1c-1.2,1.4-2.8,1.5-4.2,2.1c-1.3,0.6-2.9,0.3-4.1,1.1
		c-0.2,0.8-0.1,1.3,0.9,1.8c2.1-0.8,4.4-1.5,6.6-2.4c2.3-1,2.8-2.9,2.2-6.4c-3.8,0.1-7.7,0.5-11.4,1.2c-2.9,0.6-4.6,2.5-5.1,5.3
		C811.8,235.5,812.3,236,813.1,236.1z M816.1,214.4c-2.3,0-4.8,0-7.5,0c-1.9,2-3.3,4.6-5.5,6.6c-1.7,1.6-2.2,4-1.4,7.1
		c1.7-3,4.2-4.6,5.7-7c1.7-2.7,4-3.7,7-3.9c0.7,0,1.4-0.2,2-0.3C816.9,216,816.7,215.4,816.1,214.4z M695.8,118.9
		c0.9-1.4,2.7-1.3,3.4-2.7c-0.1-0.9-1.5-0.5-1.6-1.6c1.2-0.7,1.6,0.9,3.5,0.7c0,0,0.6-0.6,1.1-1.2c-0.2-0.4-0.3-0.7-0.5-1.1
		c0.6-0.2,1.1-0.3,2-0.5c-1.3-1.6-3-1.9-4.4-2.5c-3.4,0.7-5.1,2.7-5.9,5.7c-0.9,3.2-0.7,6.4-0.5,9.7
		C693.6,122.9,695.1,120.9,695.8,118.9z M805.7,214.8c-0.2-2.4-1.5-4.4-2.8-6.4c-3.1,0.3-3.4,0.5-5.6,2.9c1,3.2,3.4,5.7,4.5,8.8
		c0.1-0.1,0.2-0.1,0.4-0.2C803.2,218.4,804.4,216.7,805.7,214.8z M700.4,136.7c1.9-0.5,3.8-0.9,6-1.5c-2.4-1.9-5.1-0.3-6.8-1.1
		c-1.5-0.5-0.1-1-0.7-1.3c-1.3-0.9-2.9-1.4-4.2-2.6c-0.6,1.1-0.4,1.8-0.1,2.4c1.2,1.4,3.2,1.6,4.4,3.2c-1.9,0.4-2.8-1.3-4.4-1.6
		c-0.3,1.6,0.3,2.4,1.6,3c3.7,1.6,7.2,1.7,11.1-0.8C704.5,136.6,702.5,137.6,700.4,136.7z M813.5,238c-1.5-0.5-2.4-3-4.7-1.2
		c0.4,1.6,1,3.1,2.1,4.7c2.2-1.4,4.5-2.3,6.7-4.3C815.3,235.5,814.7,237.6,813.5,238z M795.8,219.2c-0.5-0.9,0.8-1.1,0.7-1.9
		c-1.3-0.8-2.1,0.2-2.9,1c-0.3,1.3,0.6,2.3,0.6,3.6c2.3,0.7,4.3,0.9,5.5-1.4c0.2-1.1-0.5-1.7-0.9-2.4
		C797.7,218.2,797.1,219.5,795.8,219.2z M701.1,116.6c-0.4,1.6,1.1,1.6,1.4,2.4c-0.8,0.9-1.4-0.6-2.4,0c0.7,1.2,1.7,1.8,3.1,2.1
		c1.5-0.1,2.6-1.5,4.3-1.3C705.5,118.3,703.6,117,701.1,116.6z M668.2,206c-0.1,2.6,2.2,4.1,1.9,6.4c1.4,0.4,1.9-0.5,2.9-1
		c-0.6-1.7-1.2-3.2-1.8-4.7C669.9,205.9,669.1,206.2,668.2,206z M653.7,635.6c-2.2,2.9-2.3,5.4,0,8.1
		C654.1,640.8,653.6,638.3,653.7,635.6z M695.9,138.6c-0.8,0.7-1,1.3-0.2,2.2c2.6-0.3,5.3-0.7,8.1-1.1
		C701.1,139.3,698.3,139.3,695.9,138.6z M700.8,109.5c0.9,0.4,1.8,0.8,2.6,1.1c0.8,0.3,1.3,1.1,2.6,1.1
		C704.6,108.5,704.1,108.3,700.8,109.5z M701.9,159.5c-0.7,1.2,0,1.9,0.6,3C702.9,161.2,703.3,160.3,701.9,159.5z M798.2,653.3
		c-0.5-1-1-1-1.5,0.1C797.2,653.9,797.7,653.9,798.2,653.3z M707.8,133c0.9,0.4,1.3-0.2,1.9-0.9C708.5,132,708,132.4,707.8,133z"/>
	<path fill="none" d="M760.7,220.1c0.2,0.7,0.2,1.5,0.5,2.1c3.7,6.2,7.4,12.3,11.1,18.6c3.5,6,4.8,12.2,4.9,18.9
		c0,2.1-0.7,4-1.7,5.9c-1.9,3.5-4.3,6.5-6.8,9.5c-3.4,4.1-6.8,8.3-8.1,13.9c-1.3-0.4-2.4-0.7-3.6-1.1c-9-2.9-18.1-3.9-27.5-3
		c-4.5,0.4-9,1-13.5,1.1c-6.9,0.1-13.6,1.3-20.3,2.8c-4,0.9-8,1.8-12.2,2.3c-0.3-1-0.5-1.8-0.8-2.6c-2-7.8-4-15.6-7.5-22.9
		c-1-2.1-1.5-4.4-2.8-6.3c-0.7-1-1.3-2.4,0.3-3.2c0.9,0.3,0.1,1.3,0.9,1.5c0.7,0.1,1.2-0.2,1.8-0.5c3.4-1.4,6.2-4,9-6.3
		c5.8-4.9,10-11.4,13.7-18c2.1-3.9,3.1-8.2,3.9-12.6c0.7-3.7,1.3-7.5,0.6-11.3c-1-4.9-1.7-9.9-3.1-14.7c-0.2-0.7-0.7-1.6,0.2-2.2
		c0.7,0.3,0.8,1,0.9,1.6c1.2,5.7,2.9,11.4,3.4,17.2c0.3,4.3,2.1,8.4,2.5,12.5c0.4,4.3,2.7,6.8,6,8.5c3.8,2,7.6,3.9,11.7,5.3
		c7.7,2.8,15.6,2.8,23.5,1.3c5.6-1.1,7.2-3.4,7.4-9.1c0-1.1-0.1-2.2-0.2-3.3c-0.5-3.7-1.9-7.1-3.7-10.3c-2.6-4.6-4.3-9.7-7.4-14.8
		c4.2,2.4,7.2,4.9,9.1,8.9c1.3,2.7,3.2,5.2,4.9,7.7C758.3,218.7,759.2,220,760.7,220.1L760.7,220.1z M709.8,274.6
		c-9.2-0.3-17.5-1.8-25.3-6.1c-0.2,1.2,0.5,1.7,1.2,2.1c4.2,2.3,8.5,4.2,13.1,5.4c1.9,0.5,3.9,0.7,5.8,0.3c5-0.9,10.1-1.4,15-2.9
		c4.3-1.4,6.3-2.5,8.4-5.4C722.3,271.8,715.6,272.9,709.8,274.6z"/>
	<path d="M724.1,141.5c2-0.2,3.9-1,6-0.9c-0.1-1-1.2-0.4-1.4-1.2c0.8-0.3,1.6-0.2,2.7,0.3c-0.3,1,0.7,2,0.6,3.1
		c-0.8,0.4-1.1-0.8-1.8-0.1c0.1,0.5,0.2,0.9,0.3,1.4c-1.1,0.5-1.9,1.5-3.9,1c-0.8-0.1-0.7-1.6-1.3-2.5c-0.8,0.3-1.4,0.6-2.1,0.9
		c0,0-0.1-0.2-0.3-0.4c0-0.5,0.1-1.1,0.2-1.6C723.3,141.4,723.7,141.5,724.1,141.5z"/>
	<path fill="none" d="M444.7,117.8c-3.1-0.5-5.1-3.1-8.3-3.7c0.6-0.4,0.9-0.6,1.2-0.9c-1.3-1.4-3.5-0.7-5.2-2.7
		c4.2,1.1,8.4,0.2,11.5,3.6c-1.2,1-2.1-1.2-3.4,0.1c1.5,0.9,2.8,1.6,4.2,2.4C444.6,117.1,444.7,117.5,444.7,117.8z"/>
	<path d="M734.7,163.9c-1,0.1-2.4,0.1-3.2-1.1c0.5-0.3,0.8-0.7,1.1-0.6c2.2,0.3,4.2-0.5,6.3-1c2.3-0.6,4.9-0.8,7.2,1.2
		C742.1,162.2,738.5,163.4,734.7,163.9z"/>
	<path d="M447.9,163.9c-1.1,0.2-2.6,0.2-3.5-0.9c0.2-0.8,0.7-1,1.2-0.9c2.1,0.4,4-0.5,6-1c2.3-0.5,4.9-0.9,7.1,1.1
		C454.9,162.3,451.4,163.2,447.9,163.9z"/>
	<path d="M437.2,142c0.2-0.9,1.5-0.4,1.7-1.4l-0.1,0.1c1.3,0,2.6,0,3.8,0c0.1-1-0.8-0.7-0.9-1.3c0.8-0.3,1.6-0.3,2.5,0.2
		c-0.5,1,0.5,1.9,0.4,2.9c-0.7,0.6-1.3-0.9-1.9,0c0.1,0.5,0.3,0.9,0.4,1.4c-1.1,0.7-2,1.5-3.3,1.2c-1.6-0.4-1.3-2.2-2.4-3
		C437.3,142.2,437.3,142.1,437.2,142z"/>
	<path d="M452.7,142.1c-0.4,1.4,0.6,2.3,1.2,3.3c1.2,2.1,2.5,4.2,3.7,6.2c-0.3,1.2-0.3,2.3-1.1,3.3c-0.5,0.1-1.1,0.3-1.7,0.4
		c-0.1,0-0.3-0.3-0.4-0.4c0.4-1.2,1.9-1.6,2.1-3c-0.3-1.4-1.3-2.5-2.1-3.7c-1.5-2.2-2.7-4.6-3.5-7.2c-0.6-1.9-0.1-3.4,1.7-4.5
		c-0.4,1.2-0.7,2.4-1.2,3.9c0.6,0.4,0.4,1.6,1.5,1.8L452.7,142.1z"/>
	<path d="M441.2,135.9c-2.2-0.6-4.1,0.2-6.1,0.7c-0.9,0.2-1.3,1.7-2.6,1.7c0.4-2.1,1.9-2.9,3.5-3.4c3.7-1.1,7.4-0.4,11.1,0.3
		c0.1,0,0.2,0.4,0.6,1C445.3,136.5,443.2,136.5,441.2,135.9z"/>
	<path d="M728.8,136c-2-0.5-3.8,0.2-5.7,0.4c-1.3,0.1-1.7,1.9-3.3,1.9c2.5-4.1,9.1-5.2,15.7-2.3C732.8,136.7,730.7,136.5,728.8,136z
		"/>
	<path fill="none" d="M412.4,119.6c-0.1-0.6-0.1-1.3,0.6-1.6c0.6,1,1.4,1.4,3,1.5c-1.1-0.8-1.7-1.7-2.8-1.6c0.3-0.5,0.5-1.1,1.5-1.3
		c1.7,0.8,3.6,1.8,5.5,2.8c-0.7,1.3-2.4,0.3-2.7,1.7l0.1-0.1c-1.7,0.8-3.1-0.7-4.7-0.8C412.6,119.9,412.5,119.8,412.4,119.6z"/>
	<path d="M744.1,150.9c-3.2-2.8-4.9-6.4-6.1-10.4c-0.5-1.5,0-3,1.4-4.2c0.6,1.6-0.8,2.7-0.4,4.6c0.6,1.9,2,4.2,3.4,6.5
		C743.1,148.6,744.1,149.5,744.1,150.9L744.1,150.9z"/>
	<path d="M745.6,164.7c-3.3,3.4-5.7,3.7-8.9,1.5C739.6,165.5,742.4,166.2,745.6,164.7z"/>
	<path d="M433.1,211.6c3.2,1.2,5.6,3.2,8.6,3.8C438.7,216.9,436.6,215.9,433.1,211.6z"/>
	<path d="M725,213.9c1.3,0.6,3,0.4,4.3,1.6c-3,1.5-3.7,1.3-8.9-3.4C722.7,211.6,723.6,213.2,725,213.9z"/>
	<path d="M449.5,166.4c2.7-1,5.5-0.1,8-1.1C454.7,168.1,452.8,168.4,449.5,166.4z"/>
	<path d="M703,150.2c0.8,1.9,1.3,3.9,2.8,5.3c-0.2,0.9-0.3,1.6-1.3,1.9c-1-1.4-1.5-3.1-2.8-4C702.1,152.1,702.3,151,703,150.2
		L703,150.2z"/>
	<path fill="none" d="M714.1,121.4c-2.8,1.3-5.6,1.5-8.7-0.1c2.1-0.9,3.8,0.3,5.4,0.3c1.8-0.7,2.9-3.1,5.2-1.7
		C715.2,120.3,714.4,120.6,714.1,121.4z"/>
	<path d="M738.4,210c-2,2.1-4.5,3.5-7.4,4.4C733.1,212.4,735.6,210.9,738.4,210z"/>
	<path d="M442.9,214.2c2.9-1.6,5.4-3,7.8-4.4C448.4,212.8,445.7,214.3,442.9,214.2z"/>
	<path d="M700.8,143.7c0.5-0.9,1.5-0.5,2.3-0.7c2.2-0.6,4.5-0.9,5.9-3l-0.1,0.1c0.3,0.3,0.7,0.7,0.5,1.3
		C706.9,143.8,703.9,144.1,700.8,143.7L700.8,143.7z"/>
	<path d="M721.3,176c3.6,0,6.4,0.9,9.2,1.7C727.6,178.1,724.7,177.6,721.3,176z"/>
	<path d="M707.3,161.3c0.3,0,0.9-0.1,1,0.1c1.2,1.8,2.2,3.7,2.7,6.5c-2.1-2.1-3.3-4.2-3.6-6.6H707.3z"/>
	<path d="M443.5,177.8c-3.3,0.3-5.9-0.2-8.4-1.7C437.7,176.2,441.5,176.9,443.5,177.8z"/>
	<path d="M453.2,154.3c-3,2.2-3.8,2.3-5.7,0.4C449.5,156.7,451,152.6,453.2,154.3z"/>
	<path d="M734.7,154.8c0.8-0.6,1.1,0.7,1.8,0.5c1.2-0.6,2.1-1.7,4-1.1C737.8,156.6,736.5,156.7,734.7,154.8z"/>
	<path d="M420.4,161.2c2,1.4,2.4,3.6,2.7,5.7c-1.6-1.6-3.3-3.2-2.6-5.8L420.4,161.2z"/>
	<path d="M421.2,123.8c-3,1.4-6,0.7-8.9-0.5C415.3,123.5,418.3,123.7,421.2,123.8L421.2,123.8z"/>
	<path d="M744,151c1.6,1.3,0,2.5,0.1,4c-1-0.2-1.6,0.8-2.5,0C742.2,153.6,744.2,152.9,744,151L744,151z"/>
	<path d="M769.4,290.5c0.5-1.4,0.4-3.1,2-4C771.2,288.2,770.6,289.5,769.4,290.5z"/>
	<path d="M714.2,180.6c-0.9-1.6-1.4-3.1-1.6-5.2C714.3,177.9,714.3,178,714.2,180.6z"/>
	<path d="M419.7,127.5c-1.8,1.1-3.8,1.6-6.4,1.2C415.7,128,417.6,127.3,419.7,127.5L419.7,127.5z"/>
	<path d="M425.7,176c0.7,1.2,1.6,2.3,1,4.3C425.9,178.7,425.3,177.5,425.7,176z"/>
	<path d="M732.2,192.2c-0.3,1.2-0.6,2.4-0.9,3.6C731.1,194.5,730.8,193.1,732.2,192.2z"/>
	<path d="M429.6,186.9c0.1,0.1,0.2,0.1,0.3,0.2c0.3,0.6,0.7,1.3,0.4,2.2c-0.5-0.8-0.9-1.4-0.9-2.2
		C429.5,187.1,429.5,187,429.6,186.9z"/>
	<path d="M433,175.6c-0.9-0.2-1.5-0.7-2.4-2.2C431.9,174.3,432.9,174.4,433,175.6z"/>
	<path d="M438.8,140.6c-0.8,0-1.5,0-2.3,0l0.1,0.1c0.5-1,1.5-1,2.3-1.1c-0.1,0.5-0.1,0.8-0.2,1.1L438.8,140.6z"/>
	<path d="M725.5,140.1c-0.5,0.5-1,0.9-1.4,1.3c-0.4,0-0.8,0-1.2,0C723.3,140.2,724.2,139.9,725.5,140.1z"/>
	<path d="M733.2,118.4c-0.8,0.2-1.2-0.4-1.7-0.5l0.1,0.1c0-0.5,0-1,0-1.5c0.4,0.2,0.9,0.5,1.3,0.7C733,117.5,733.1,118,733.2,118.4z
		"/>
	<path d="M454.8,138.2c0.7-0.5,1.4-0.2,2.2,0C456.3,138.2,455.6,138.2,454.8,138.2z"/>
	<path d="M444.3,192c0.6,0.8,0.2,1.5-0.1,2.7C443.8,193.6,443.8,192.8,444.3,192z"/>
	<path d="M445.3,227.5c0.9-0.4,1.3-0.2,1.3,1C445.5,228.6,445.2,228.2,445.3,227.5z"/>
	<path d="M436.5,140.7c0.3,0.8-0.7,0.9-0.7,1.5l0.1-0.1c-0.5,0.1-0.9,0.2-1.3-0.3C435.1,141.1,435.6,140.6,436.5,140.7L436.5,140.7z
		"/>
	<path d="M718.8,174.3c-0.7,0.1-1-0.4-1.8-1.3C718.1,173.5,718.6,173.6,718.8,174.3z"/>
	<path d="M744.2,138.1c-0.6,0.3-1.1,0.2-1.7,0.1C743,137.7,743.6,138,744.2,138.1z"/>
	<path d="M435.8,142.2c0.5-0.1,0.9-0.1,1.4-0.2c0.1,0.1,0.2,0.2,0.2,0.3c-0.5,0.7-1,1.3-2,1.1C435.2,142.8,435.6,142.5,435.8,142.2
		L435.8,142.2z"/>
	<path fill="none" d="M452.9,421.2c3.3-0.8,7-0.6,10-1.9c4.1-1.7,8.2-2.1,12.4-2.8c2.7-0.4,5.5-0.2,8.1-1.5c0.9,1.2,1,2.6,1.1,3.9
		c0.6,7.9,1.6,15.8,1.8,23.7c0,1.4,0.1,2.7,0.8,3.9c1,1.5,1.2,3.2,1.2,4.9c0.1,3.3,0.1,6.6,0.1,9.9c0,0.8,0.1,1.9-0.4,2.5
		c-1.4,1.8-1.3,3.9-1.4,6c-0.2,4.7-0.9,9.2-1.3,13.9c-0.3,4.4-1,8.8-0.3,13.1c0.8,4.9,0.8,9.8,0.4,14.6c-0.5,6.4,0.1,12.6,1.6,18.8
		c0.6,2.6,1.2,5.2,1.7,7.9c2.4,12.4,1.5,24.8,0.9,37.3c-0.4,7.3-1.1,14.6-1.1,22c0,6.9,0.7,13.7,0.5,20.5c-0.1,1.9-0.3,3.8,0.8,5.9
		c-2,0.1-3.8,0.8-4.3,2.1c-1.1,2.9-3.7,3.7-5.8,5.1c-1.5,2.6-2.6,5.3-4.4,7.6c-2.4,0-2.9-1.8-3.6-3.3c0-1.4,1.7-2.7-0.2-4
		c2.4-2.3,2.3-4.8,1.5-7.6c-0.9-3-1.5-6.2-2.1-9.3c-1.5-7.6-3.3-15-5.7-22.4c-2.4-7.3-5.1-14.5-7.7-21.8c-0.7-2-1.2-4-1.2-6.1
		c-0.3-10.5,0.7-21,2.4-31.2c-2.2-5.1-2.6-10.5-3.8-15.7c-1.3-5.7-0.8-11.7-1.5-17.5c-0.8-7.3-1-14.6-3.1-21.7
		c-0.9-2.9-1.3-6-2.3-8.9c-3.5-10.1-7.3-20.2-9.8-30.7c-1-4.1-2.1-8.2-3.2-12.7C441.2,424.1,447,422.6,452.9,421.2z M469.8,518.9
		c0.5-0.7,0.7-1.7,1-2.8c-1-2.9-2.1-5.8-3.2-9c0.3-1.2,0.8-2.5,1.2-3.9c-2.1-0.3-2.6-0.1-2.4,1.7c0.2,1.7-0.3,3.1-0.7,4.5
		C466.6,512.9,468.1,515.9,469.8,518.9z M472.7,545.4c0.7-3.8-0.4-8.4-2.8-11C470.3,538.8,471.8,542,472.7,545.4z M472.4,550.3
		c-1.2,3-1,3.9,1.7,6.6C473.3,554.4,473.7,552.2,472.4,550.3z M480.5,506.5c0.1,2.4,0.2,4.1,0.3,5.8
		C482,510.6,482.8,508.9,480.5,506.5z M477.4,616c-1.3,1.6-1.3,2.8,0,4.2C477.4,618.9,477.4,617.7,477.4,616z M476.8,613
		c0.1-2.1,0.8-3.3,0.2-4.7C476.3,609.6,476,610.9,476.8,613z M476.6,624.9c0.8-1,0.8-1,0.1-2C476,623.6,476.3,624.2,476.6,624.9z
		 M473.4,564.7c0.6-1,0.4-1.8-0.5-2.6C472.3,563.2,472.4,563.9,473.4,564.7z"/>
	<path fill="none" d="M368.6,641.4c0.9-6.2,1.9-12.3,1.4-18.8c-1-10.8-2.2-21.6-3.6-32.4c-1.3-10.6-1.1-21.2-0.7-31.9
		c0.1-3.1,0.2-6.3,1-9.5c3-11.1,5.7-22.2,8.9-33.3c2.7-9.4,4.3-18.8,3.2-28.6c-0.1-1.1-0.2-2.2,0-3.3c0.4-2.8,0.1-5.6-0.5-8.4
		c-0.3-1.6-0.3-3.1-0.3-4.7c0-4,0.8-8.1,0.4-12.1c-0.9-9.7,0.2-19.3-0.1-28.9c0-0.2,0.2-0.4,0.4-0.9c5.5,0.1,10.6-1.5,14.8-5.5
		c0.6,0.1,1.1,0.1,1.5,0.2c6,1.6,12.2,2.4,18.4,3.1c4.5,0.5,9.2-0.2,13.8,1.7c-2.5,6.4-3.3,13.2-5,19.8c-1.7,6.6-3.1,13.3-4.7,20
		c-1.6,6.9-2.2,14-5.6,20.4c-0.3,0.5-0.4,1.2-0.5,1.8c-0.2,4.3-1.8,8.4-2.7,12.5c-0.4,1.8-0.9,3.5-2.2,5c-1.2,1.4-1.9,3.2-2,5
		c-0.1,1.9-0.6,3.6-1.3,5.3c-1.7,4.3-2.4,8.9-2.9,13.5c-0.3,2.3,0.2,4.6,0.4,6.9c1,10-0.2,19.7-2.9,29.4c-0.6,2.2-1.9,4.1-2.3,6.5
		c-1.6,9.5-4.1,18.8-6.3,28.2c-0.6,2.5-1.3,5-1.4,7.5c-0.2,6.5-1.4,12.8-1.8,19.3c-0.1,0.9,0.1,2-0.8,2.8c-1.4-0.1-2.8-0.3-4.3-0.3
		c-2.8-0.1-5.1,1.5-7.5,2.7c-1.7,0.9-1.6,2.9-2.1,4.5c-0.5,1.8-1.1,3.4-3.2,5.2C368.4,642.8,368.5,642.1,368.6,641.4z M399.4,503.2
		c-2.1,0.9-0.9,2.7-1.4,4.3c-2,1.2-2.4,3.8-4.3,6.1C399.2,512,401,508.5,399.4,503.2z M395,530.8c-2.6,1.5-2.5,3.3-2.3,5.2
		C394,534.7,394.6,533.2,395,530.8z M385.3,504.4c-1.7,1.5-0.7,3.5-1.4,5.2C385.3,508,385.4,506.2,385.3,504.4z M391.2,542.5
		c-1.7,1.5-1.7,1.5-0.9,4.6C391.1,545.2,391,544,391.2,542.5z"/>
	<path fill="none" d="M408.1,296c-1.2-1.3-1.8-3.2-4-3.2c3.3-2.2,7.2-2.2,10.8-2.9c6.3-1.3,12.7-0.8,19-1.4
		c8.8-0.9,17.5-1.6,26.3-0.2c4.3,0.7,8.6,1.5,12.7,2.9c-0.8,5.8-1.8,11.4-1.9,17c-0.2,9.4,1.6,18.5,3.8,27.5
		c1.7,6.9,2.5,13.8,3.3,20.8c-1.4,1-3,0.8-4.4,1.2c-1.4,0.4-2.9,1-4.4,0.9c0-0.6,0.5-1.1-0.2-1.4c-1.9,1.3-3.8,2.5-6.2,3.1
		c-16.1,3.9-32.3,2.7-48.2-0.1c-1.6-1.3-3.1-2.5-4.7-3.8c-0.1,1,0.3,1.5,0.5,2c0.3,0.6,1.1,1,0.7,1.9c-3.4,0.1-3.4,0.1-6-1.7
		c-6.2-0.4-11.6-1.7-17.1-2.6c1-3.5,1.7-6.6,2.3-9.7c1.2-6,2.5-11.8,5.5-17.4c1.9-3.6,3.2-7.8,3.6-11.8c0.8-7.1,0.8-14.4-2.2-21.2
		c-0.2-0.6-0.5-1.1-0.1-2c2.1-0.8,4.4-1.5,6.9-1.1C405,294.4,406.3,295.5,408.1,296z M443.3,333.1c-1,0.8-1.8,1.4-2.7,2.1
		c2.5,2,2.6,2,5.2,0.3C445.8,333.6,444.2,333.6,443.3,333.1z M428.9,331.4c0.1-4.2,1.4-8.3-0.3-12.4
		C428.9,323.1,428,327.2,428.9,331.4z M461.6,332.2c0-0.7,0-1.4-0.3-2.1c-0.9,1.3-0.7,2.6,0.2,3.8
		C461.6,333.4,461.6,332.8,461.6,332.2z M428.3,341.6c0-0.4,0-0.7-0.3-1.1c-0.2,0.8-0.5,1.5-0.8,2.6
		C428.1,342.5,428.2,342.1,428.3,341.6z M408.1,354.9c0.2,0.2,0.5,0.1,0.5-0.2c0-0.5-0.2-0.9-1-1.2
		C407.5,354.2,407.8,354.5,408.1,354.9z"/>
	<path fill="none" d="M397.6,360.4c7.8,1.6,15.7,2.4,23.6,3.3c4.6,0.5,9.2,1.4,13.8,1.6c11.6,0.6,22.9-1,34.1-4.1
		c3-0.8,6.1-1.6,8.9-2.4c0.8,0.8,0.9,1.5,0.9,2.2c0.3,17.5,2.6,34.8,4.6,52.3c-4-1.1-7.4,0.3-11,0.7c-4.2,0.4-8,2.4-12.1,3
		c-5.5,0.8-10.8,2.1-16.1,3.5c-3.5,0.9-7.1,1.8-10.7,2.3c-0.3,0-0.7-0.2-0.9-0.2c-0.6-0.8-0.6-1.7-0.4-2.5c3.7-2.2,6.5-5.2,7.9-9.2
		c-0.2-0.2-0.4-0.4-0.6-0.6c-2.1,2.1-4.1,4.1-6.2,6.2c-0.4,0-0.7-0.6-1.3-0.1c-2.3,2.2-2.6,5.6-4.3,8.5c-1.5-0.6-3-1.5-4.6-0.8
		c-1.3,0.6-2.6,0.4-3.9,0.2c-3.4-0.4-6.8-0.7-10.2-1.2c-4.3-0.6-8.7-1.1-13.1-2.6c4.7-7.5,6.4-15.2,3.4-23.5
		c-3-8.2-8.6-13.7-17.4-15.6c1.9-7.8,3.6-15.1,5.5-22.7C391.1,359.3,394.3,359.8,397.6,360.4z M463.1,404.8c-1.4-1.1-2.9-1-4.4-0.2
		c-1.4,0.8-1.9,2.2-1.4,4.1c0.2,0.8,0.6,1.5,0.9,2.3c5.3,0,6-0.5,6.3-4.7c0.4,0.7,0.8,1.5,1.4,2.1c1.5,1.6,4.1,1.5,5.4-0.1
		c1.2-1.4,1-3.7-0.4-4.9c-1.5-1.4-4.2-1.1-5.4,0.7c-0.5,0.7-0.6,1.6-0.9,2.3C464,405.9,463.6,405.3,463.1,404.8z M476.6,406.4
		c0.9,0,0.7,1.5,2,1.4c0.1-2.1-0.2-4.2-1.1-6.1c-3.4,0.3-3.4,0.3-5,2.1c-0.2,1.2,0.6,1.8,1.3,2.5c0.8,0.7-0.5,1.7,0.5,2.2
		C475.7,408.4,475.3,406.6,476.6,406.4z M401.6,364.3c-0.4-0.4-0.8-0.7-1.5-0.4C400.5,364.6,401,364.6,401.6,364.3z"/>
	<path fill="none" d="M466.6,211.1c0,1.1,0.4,2,1.6,2.3l-0.1-0.1c0.3,2.3,1.8,4,3.3,5.6c1.3,1.5,2.4,3.1,3.4,4.7
		c4.2,6.2,7.7,12.7,11.4,19.2c3,5.2,3.8,11,3.7,17c0,2.1-0.8,4-1.8,5.9c-1.7,3-3.7,5.8-5.9,8.4c-3.8,4.5-7.4,9-9.1,14.9
		c-1.3-0.4-2.4-0.7-3.6-1.1c-7.2-2.2-14.5-3.6-22-3.2c-8.8,0.4-17.5,1.6-26.3,1.8c-1.2,0-2.4,0.3-3.6,0.6c-4.9,1-9.8,2.1-14.7,3.1
		c-2.2,0.5-4.5,0.8-6.8,1.1c-0.6-1.8-1.1-3.5-1.7-5c-1.2-3-1.6-6-0.7-9.3c1.1-3.7,0.5-7.8,1.8-11.5c-1.4-3.8,0.4-7.8-0.7-11.5
		c0.9-1.1,1.4-2.3,2.3-3.1c3.5-3.1,5.9-7.2,8.9-10.7c4.7-5.5,6.8-12.1,8.4-18.9c1.1-4.4,1.5-9,0.6-13.5c-0.9-4.9-1.7-9.8-3.3-14.6
		c-0.2-0.6-0.1-1.2,0.8-1.3c3.7,10.3,4,21.2,6.4,31.8c0.9,4,2.9,6.5,6,8.1c3.9,2.1,7.8,4,12,5.4c8.5,2.8,17,2.8,25.6,0.7
		c1.9-0.5,3-1.6,3.8-3.2c0.8-1.7,1.1-3.5,1.2-5.3c0.1-4.5-1.2-8.7-3.4-12.6c-2.8-5-4.6-10.4-8.1-16c3.9,2.6,7.3,4.5,8.8,8.3
		C465.1,209.9,465.4,211,466.6,211.1L466.6,211.1z M398.2,270.5c4.5,2.5,9.1,4.6,14.2,5.7c1.4,0.3,2.9,0.4,4.4,0.2
		c5.9-0.9,11.9-1.5,17.5-3.6c2.5-1,5.1-2,6.6-4.7c-5.9,3.6-12.6,4.8-18.3,6.5c-9.2-0.2-17.5-1.9-25.5-6.1
		C397.3,269.8,397.7,270.2,398.2,270.5z"/>
	<path fill="none" d="M354.8,410.4c-1.2-2.6-1.7-5.3-1.6-8.2c0.2-5.5,2.5-10.9,0.6-16.5c-0.3-1,0.1-2.2,0.2-3.3
		c0.3-4.3,0.9-8.6,0.2-12.8c-0.5-2.6-0.4-5.1-0.2-7.6c0.2-2.2,0.3-4.4,0.3-6.6c0-10.6,0.5-21.3,1.3-31.9c0.2-2.4,0.3-4.9,0.9-7.3
		c1.3-4.6,2.3-9.2,3.8-13.8c2-6.1,2.6-12.4,2.3-18.8c-0.2-4.3-0.2-8.5,0.4-12.8c0.5-3.3,0.7-6.6,1-9.8c0.5-6.2,0.1-12.5,0.2-18.7
		c0.1-5.4,1.4-10.3,3.7-15c0.8-0.2,1.6,0.2,1.9-0.4c2.1-7.3,7.1-12.2,11.8-17.3c2.3-2.6,5.4-4,8.7-5.1c4-1.4,7.8-3.5,11.5-5.6
		c2.8-1.6,5.5-3.2,8.5-4.9c0.4,1.3,0.7,2.4,1,3.4c1.7,5.8,1.4,11.9,1.3,17.7c-0.1,6.1-2.7,11.9-4.8,17.6c-0.2,0.6-0.6,1.1-1,1.5
		c-3.5,3.6-6.1,8-9.2,11.9c-0.5,0.6-0.9,1.3-2.1,1.5c1.1-4.4,4.8-7.4,4.9-11.9c-0.6,0.3-0.9,0.8-1.3,1.2c-3,3.1-5.3,6.5-6,11
		c-0.8,5.2-1.2,10.4-2.5,15.5c-0.6,2.3-1,5-0.6,7.3c0.9,4.6-0.5,8.7-1.4,13c-0.4,1.8-1.1,3.4-1.9,5.1c-1.3,3-3.2,5.8-3.7,9.1
		c-0.7,4.9-2.2,9.7-2.4,14.8c-0.1,1.6-0.5,3.1-0.9,4.7c-3.6,12.8-7.6,25.5-10.6,38.5c-0.9,3.8-1.7,7.6-1.3,11.6
		c0.2,1.9-0.1,3.9-0.4,5.8c-0.7,3.6-0.8,7.3,0.2,10.9c-10,7.2-11.4,17.3-9.4,28.6C356.4,412.6,355.4,411.7,354.8,410.4z
		 M371.9,294.2c-0.3,2.5,0.5,4.8,2.8,8.1C374.4,299.4,373.8,296.8,371.9,294.2z M392.2,246.2c-2.6,0.9-3.5,2.6-4.6,4.1
		C389.5,249.8,390.8,248.5,392.2,246.2z M362.1,375.5c-1,1.8-0.8,3.4,0.5,5.4C363.2,378.6,362.4,377.1,362.1,375.5z M367.2,255.1
		c0.7-1.8,0.5-2.9-0.4-4.3C366,252.5,366.5,253.5,367.2,255.1z M361.9,373.6c0.5-1.2,0.8-2-0.3-2.9
		C360.9,371.8,360.9,372.6,361.9,373.6z M373.5,310.1c1.7-1,1.6-2.3,1.5-3.4C373.9,307.4,373.9,308.5,373.5,310.1z M405.4,226.6
		c-0.8-0.2-0.8,0.3-1.2,1.4C405.1,227.4,405.5,227.2,405.4,226.6z M361.3,367.6c0.7-0.5,0.3-1.2,0.3-2.4
		C360.8,366.4,360.9,367,361.3,367.6z"/>
	<path fill="none" d="M496.1,383.6c-0.3-0.2-0.6-0.3-0.9-0.5c0.6-1.7,1.3-3.4,1.9-5.2c0.6-2,1.4-4,1-6.1c-0.9-6.2-1.6-12.4-4.3-18.1
		c-2-4.2-3.4-8.6-5.3-12.9c-3.4-7.7-5.8-15.5-7.1-23.8c-1.3-8.2-4.5-16-5.1-24.4c-0.1-0.7-0.9-1.2-0.8-2.1c0.2-0.6,0.8-1.2,0.8-1.9
		c-0.3-4.4,3.3-6.8,5.3-9.9c1.5-2.5,4.2-4.3,5.8-6.9c0.5-0.8,1.3-1.5,2.1-2.4c0.7,2.9,0.7,5.5,0.9,8.1c0.4,5.2,1.9,10,5.3,14.2
		c1.5,1.8,2.8,3.7,3.6,5.9c1.9,5.3,3.4,10.7,3.7,16.4c0.2,4.9,0.3,9.8,0.7,14.6c0.6,7.9,1.7,15.8,2.5,23.7
		c0.9,8.1,1.7,16.3,2.5,24.4c0.1,0.7,0.1,1.5-0.6,2.1c-1.1,0.5-2.4,0.2-3.5,0.5c-3.1,0.8-6.5,1.1-8.4,4.4L496.1,383.6z M488,295.9
		c-1.9,2-2,2.4-1,4.7C487.1,299,488.2,297.7,488,295.9z M480.7,298c0.3,0.9,0.7,1.6,1.8,0.9C482.1,298.2,481.6,297.8,480.7,298z
		 M490.4,289.4c-1-0.1-1,0.6-0.8,1.6C490.3,290.6,490.8,290.3,490.4,289.4z"/>
	<path fill="none" d="M514.1,670.7c2.8-0.4,5.5-1.1,8.5-0.2c-0.9,1.7-2.3,2-3.5,2.2c-4,0.6-8,1.2-12,1.1c-1.5,0-2.9-0.3-3.6-1.7
		c-6.3,0.6-11.6-2-17.2-3.4c-1.7-8.2-3-8.6-6.5-8.3c0.7,1.9,3,2.1,4.1,4.4c-6.1-1.1-11.7-2.3-17.2-3.9c0.5-2.5,0.8-4.7,1.1-6.8
		c0.6-4.6,4.4-8.3,3.1-13.5c1.6,0.5,2.6,1,3.6,1.2c2.1,0.5,3.1,0,4-2.1c0.4-1,0.8-2.1,1.2-3.1c0.6-1.3,1-3.1,2.3-3.7
		c3-1.3,5.1-3.7,7.3-5.7c2.4-0.3,4.5-0.6,6.7,0.6c0.5,3,1.7,5.7,3.3,8.5c-1.2,0-2-0.1-2.9,0c-3.6,0.3-7.3,0.5-10.7,2.2
		c-0.8,0.4-1.6,0.7-1.2,2c2,0.5,4,0,6-0.5c3.2-0.8,6.5-1.1,9.8-0.8c0.7,0.1,1.5,0.1,1.4,1.2c-0.8,0.5-1.7,0.2-2.5,0.2
		c-3.7,0-7.3,0.7-10.8,1.8c-1.4,0.4-3.1,0.8-3.2,2.9c1.6,1.2,3.2,0.4,4.7,0.2c4.1-0.8,8.2-1.5,12.4-1.3c1.7,0.1,1.7,0.1,2.3,2.3
		c-2.6-0.7-5.1-0.9-7.6-0.5c-2.4,0.4-5.5-0.3-6.9,2.7c0.9,1.8,2.4,1.4,3.7,1.2c4.1-0.6,8.3-0.4,12.5-0.5c0.9,0,1.7-0.1,2.1,1
		c-8.1-0.1-9.6,0.3-11.5,2.8c2.7,1.6,5.5,0.2,8.1,0.4c0.3,0.8-1.3,1.3-0.2,2.5c2.6,1.3,5.3-0.4,8-0.9c1.5,1.1,2.8,2.2,4.2,3.1
		c3.5,2.1,4.8,5.2,3.9,9.3c-5.2,1-10.8,0.7-14.7,5.1C508.8,672.1,511.3,671.1,514.1,670.7z"/>
	<path fill="none" d="M494.7,415.7c-5.2-9.1-5.5-18.4,0.5-27.3c5.9-8.8,17.5-11.9,26.6-3.3c9.7,9.2,9.9,22.2,2.7,32.4
		c-3.4,4.8-8.4,7.3-14.7,7.5C503.3,424.6,498,421.4,494.7,415.7z M499.1,418.5c-1.1-2.5-2.3-4.1-3.8-5.4c-1.1-4.1-2.1-8.2-1.4-12.5
		c1.2-7.5,4.5-13.5,11.6-17c2.8-1.4,5.5-1.6,8.4-0.4c1.3,0.5,2.8,0.8,4.1,1.2c0.4,1.2,1.4,1.8,2.8,2.4c-0.7-1.6-1.4-2.4-2.9-2.4
		c-3.5-3.4-7.7-4-12-2.3c-7.2,2.7-11.1,8.5-12.9,15.7c-1.2,4.6-1.3,9.2,0.9,13.6c0.3,0.6,0.4,1.5,1.3,1.6
		C496.1,415.6,496.1,415.6,499.1,418.5z M510.4,408.8c3.2,2.9,6.8,0.9,8.9-4.9c-1.3-1.9-1.5-2.6-1.1-4.6c-0.3-1-1.1-1.6-2-2.2
		c-0.5,0.1-1.1,0.2-1.6,0.2c-3.8,0-5.2,0.8-6.3,3.7c-1,2.7-0.2,4.9,2.3,7c0.3,0.2,0.5,0.5,0.8,0.7l0.1-0.1
		C511.1,408.7,510.7,408.7,510.4,408.8z"/>
	<path fill="none" d="M368.1,387.3c1.1-0.7,2.2-1.5,3.4-2.2c6.6-3.9,15.1-3,20.8,2.9c8.4,8.6,9.5,20.8,3.1,30.9
		c-5.7,8.9-17.8,11.7-26.3,4.3c-6.7-5.8-8.6-13.4-7.8-21.8c0.6-5.5,3.1-10.2,6.9-14.2L368.1,387.3z M385.9,411.3
		c1.8-1.3,3.3-2.8,3.5-5.2c-1.7-1.3-1.7-3.1-1.4-4.9c-2.4-1.7-6-1.9-7.8-0.4c-2,1.6-2.8,4.7-1.7,7.3c0.3,0.8,0.9,1.5,1.3,2.2
		c-0.5,1.2,0.2,1.7,1.2,2c0.7,0.2,1.4,0.3,2,0.5C383.7,411.7,385.4,412.7,385.9,411.3z M393.5,391.7c-0.8-1.7-2-3-3.8-3.7
		c-5.5-5.1-11.6-5-16-2.2c-5.8,3.7-9.1,8.9-10.7,15.5c-1.3,5.9-0.2,11.1,2.8,16.1c0.3,0.4,0.6,0.8,0.9,1.2c0.1,0.1,0.4,0.1,0.6,0.2
		c0.3-1-0.6-1.6-1-2.2c-5.1-8.1-2.5-21.3,4.7-27.5c5.9-5,10.3-5.3,17.4-1.3c0.3,0.2,0.7,0.3,1,0.4
		C390.4,389.8,392.2,390.4,393.5,391.7z M370.8,422.4c-0.4-0.8-0.8-1.2-1.6-1.6C369.3,421.8,369.9,422.1,370.8,422.4z"/>
	<path fill="none" d="M370.9,683.1c-4,0-7.2-1.3-8.4-5.6c-0.1-0.3-0.3-0.7-0.3-0.8c-1.7-0.9-3.3-1.8-4.7-2.6
		c-0.5-2.3,1.1-4.7-0.6-6.6c0.5-2.2,1.1-4.2,1.3-6.5c0.2-2.3,0.4-4.7,1.4-6.8c1.4-3.1,2.8-6.2,3.7-10.1c1.7,3.8,4.7,2.7,7.4,2.9
		c2.1-2.8,2.7-6.4,3.9-9.7c3.2-1.9,6.4-3.2,10-2.3c1.2,1,2,2.2,2,3.6c-0.1,2.8,0.9,5.2,2,8.1c-1.4,0-2.6,0-3.8,0
		c-3.2,0-6.4,0.4-9.4,1.5c-1.1,0.4-2.4,0.8-1.9,2.8c2.6,0.5,5.2-0.7,7.9-0.7c2.8,0,5.6,0,8.4,0.3c0.8,0.7,1.8,1.2,1.9,2.4
		c-5.9-2-11.5-1.7-17.2-0.5c-1,0.2-1.9,0.7-1.9,2.3c3,1.8,6.5,0.6,9.7,0.7c3.5,0.2,6.9,1.3,10.3,0c0.5,1,0.9,1.8,0.3,2.6
		c-4.1-1.3-12.4-1.8-16.3-0.8c-1.5,0.4-3.2,0.6-3.3,2.6c0.3,0.9,0.9,1.5,1.7,1.4c6.2-0.5,12.5,0.7,18.7-1.1c0.2,1.2,0.4,2.4,0.7,3.7
		c-5.5-0.8-10.8-0.2-16-0.5c-1,0-1.9,0.4-2,1.6c0.5,1.4,1.8,1.8,2.9,1.8c5.3,0.3,10.6,1.2,16-0.3c2.2,5,5.1,9.8,7.7,14.7
		c-1.3,1.2-2.2,1.8-3.5,2c-5,0.9-10-0.2-15,0.6c5.4-2.4,11.2-1.7,17.2-2.2c-1.2-1.9-2.7-2-4.1-2c-6.6-0.1-13.1,0.8-19.3,4.2
		C376,683.2,373.4,683.1,370.9,683.1z M395.6,669.8c-1.9-1-3.8-1.3-5.6-1.2c-1.8,0.1-3.8-1.5-5.7,0.6
		C387.3,672.2,390.7,672.3,395.6,669.8z M360.3,666.3c0.1,3.1,0.3,5.6,1.9,8.5C362.7,671.4,362.8,668.8,360.3,666.3z"/>
	<path fill="none" d="M393.3,290.2c1.7,4.5,2.8,9.1,4.2,13.7c1.4,4.4,1.1,8.7-0.2,13c-1.2,4.1-3.4,7.8-5,11.8
		c-2.7,6.7-5.4,13.4-6.2,20.6c-0.1,1.3-0.4,2.6-0.8,3.9c-2,6.8-3.9,13.6-5.8,20.5c-0.7,2.6-1.2,5.2-1.8,7.6c-2.6,0.5-5,1-7.5,1.4
		c-0.1-0.7-0.3-1.3-0.3-1.9c-0.7-6.1,0.1-12.2,0.7-18.3c0.8-8.7,3.3-17.3,6.3-25.6c1.9-5.2,3.9-10.3,4.7-15.8
		c0.2-1.4,1.2-1.9,1.9-2.4c1-11.5,3-22.5,8.4-33.4C392.5,287.5,392.8,288.9,393.3,290.2z"/>
	<path fill="none" d="M481.5,365.3c-1.4-10.3-2.3-20.6-4.8-30.7c-2.5-9.8-3.7-19.6-3.2-29.7c0.1-1.2,0-2.4,1.1-4.2
		c0.4,7.5,2.8,13.8,4.5,20.3c0.2,0.6,0.3,1.2,0.4,1.8c0.9,5.7,2.8,11.1,5.2,16.3c0.4,0.8,1.1,1.7,0.9,2.3c-0.8,2.1,0.5,3.6,1.3,5.1
		c4,7.6,6.7,15.7,8.3,24.1c0.6,3.4,0.1,6.5-1.8,9.6c-3.2-1.1-6.3-0.3-9.8,0.6C482.8,375.4,482.1,370.3,481.5,365.3z M492,378.8
		c1.4-2.4,0.5-4.1,0-6.3C491,374.8,491.4,376.5,492,378.8z M491.9,371.1c0.4-1.1,0.8-2-0.4-2.8C490.9,369.4,490.8,370.2,491.9,371.1
		z M491.1,365.3c0.8-1.1,0.6-1.7,0.3-2.4C490.6,363.6,491,364.2,491.1,365.3z"/>
	<path fill="none" d="M349.9,388.2c0.4,0,0.7,0.1,1.3,0.1c1.5,6.5-1.1,12.9-1,19.3c0.4,1.1,1.6,1.5,1.9,2.7c0.8,3,2.5,4.9,5.9,4.9
		c0.3,0,0.7,0.2,1.1,0.3c1.2,3.3,3.6,5.9,5.9,8.4c-0.7,1-1.5,0.9-2.2,1c-6.6,0.4-13.6-4.2-16.6-10.6c-1.4-3-1.3-6.1-1.6-9.3
		c-0.5-5.8,1-10.8,4.5-15.4c0.4-0.5,0.8-0.9,0.7-1.6L349.9,388.2z"/>
	<path fill="none" d="M468.2,213.4c0.1-1.2-0.6-1.9-1.6-2.3l0.1,0.1c0.3-1.5-1-2.4-1.4-3.6c-0.4-0.9-1.2-1.8-0.4-3
		c2.7,1.4,5.4,2.5,7.9,4c6.9,4.1,12.1,9.4,13.1,17.9c0.5,4,1.6,7.9,2.4,11.9c0.2,1.1,0.6,2.3,0,3.3c-0.8-0.1-0.9-0.6-1.2-1
		c-3-5.7-5.4-11.8-10-16.5c-2.1-2.2-4-4.6-6-6.9c-1.1-1.3-1.6-3-3.2-3.8L468.2,213.4z"/>
	<path fill="none" d="M487.3,397.7c-0.4-1.2-1.8-0.1-2.3-0.8c-0.4-4.6-0.8-9.1-1.3-13.6c1-1,2.1-1.4,3.5-1.9c1.8,0.8,3.8,0.2,5.9,0
		c-0.3,1.9-1.6,3.1-1.9,4.6C490.6,390.2,488.1,393.6,487.3,397.7L487.3,397.7z M487.6,389c-0.6,0.9,0.1,1.5,0.5,2.1
		c0.1,0.1,0.2,0.1,0.3,0.1c0.1,0,0.2-0.2,0.2-0.3C488.7,390.1,488.4,389.5,487.6,389z"/>
	<path fill="none" d="M410.4,114.4c0.4,1.4,1.3,1.2,2,1.3c-0.6,1.7-2.6,1.7-3.8,3c-1,2.1-2,4.4-3.4,7.3c-0.3-3.8,0.2-6.9,0.8-10
		c0.7-3.8,3-6,7-6.2l-0.1-0.1c0.6,1.3,2.3,1.2,3.1,2.2c0.1,0.1,0.1,0.4,0.1,0.5c-0.9,0.8-1.8-0.6-2.7,0.1c0.3,0.3,0.5,0.6,0.8,0.8
		c0.3,0.2,0.6,0.4,0.4,0.9c-0.5,0.8-1.4,1.2-2.3,1.5C412.1,114.8,411.3,114.7,410.4,114.4z"/>
	<path fill="none" d="M496,383.7c0.4,0.1,0.9,0.2,1.4,0.3c-5.2,5.3-7.6,11.5-7.4,18.9s2.9,13.5,8.4,18.9c-1.9-0.3-2.6-1.4-3.4-2.3
		c-8.8-9.2-9.2-24.1-0.1-34.2c0.5-0.5,1.2-0.8,1.2-1.7L496,383.7z"/>
	<path fill="none" d="M365.5,388.2c-7.6,11.2-7.4,22.2-0.3,33.3C355.3,413.8,357,393.9,365.5,388.2z"/>
	<path fill="none" d="M488.3,421.6c-0.2-4.8-1-9.5-1.3-14.4c1.2,2.5,2.1,5.1,3.1,7.6c1.1,2.6,3.3,4.5,5.1,6.7
		C492.8,423,490.7,422.6,488.3,421.6z"/>
	<path fill="none" d="M410.8,131.8c0.3,0.7,0.7,1.4,1.1,2.1c2.3,0.9,5-0.5,7.5,1.2c-2.2,0.6-4.1,1-6.3,1.6c1.7,1.3,3.4-0.4,4.8,0.6
		c-3.2,2.2-6.2,0.9-9.3-0.3c-1.2-0.5-1.6-1.4-1.1-2.6c1.2,0,1.9,1.6,3.3,1c-3.3-2.9-3.3-2.9-3.4-4.7c1.3,0.1,2.2,1.6,3.6,1.2
		L410.8,131.8z"/>
	<path fill="none" d="M344.9,394.1c-0.4,1.9-1,3.8-1.2,5.7c-0.9,7.5-0.4,14.6,5.5,20.3c0.3,0.3,0.9,0.6,0.2,1.1
		c-2.8-1.8-4-3.4-5.2-6.7c-1.7-4.8-2-9.8-1.5-14.8c0.2-2,0.6-4.1,2-5.7L344.9,394.1z"/>
	<path fill="none" d="M421.1,139.9c-1.1,2.5-3.6,2.5-5.7,3c-1.8,0.4-3.6,0.4-5.3,1.3c-0.2,0.1-0.4-0.1-0.7-0.1
		c-0.7-0.7-1.2-1.5-0.7-2.8c2.5,0.5,5,0,7.5-0.3C417.9,140.7,419.4,139.7,421.1,139.9L421.1,139.9z"/>
	<path fill="none" d="M433.3,113.2c-1.8-0.2-3.7-1.2-5.2-0.8c-1.8,0.5-3.7,0.8-5.4,1.7c-0.9,0.5-2.2,0.2-3.2-1
		C424.2,111.1,428.8,110.9,433.3,113.2z"/>
	<path fill="none" d="M365.8,643.4c-2.7-2.5-0.3-5.2,0.5-7.8c0.1,2.5,0.3,5.1,0.4,7.6C366.4,643.3,366.1,643.3,365.8,643.4z"/>
	<path fill="none" d="M417.4,120.9c2.1-0.1,4.1,0.1,5.3,0.5c2.4,0,2.9-2.5,5.2-1.6c-1.2,1.1-2.1,2.2-3.6,2.7
		C422,122.1,419.3,123,417.4,120.9L417.4,120.9z"/>
	<path fill="none" d="M417.4,139.2c-2.9,1.4-6.2,0.6-8.8,1.8c-1.1-1.2-0.6-2-0.8-3.2C411.1,139.9,414.4,139.1,417.4,139.2
		L417.4,139.2z"/>
	<path fill="none" d="M350,385.8c0.9,0.8,0,1.5-0.1,2.3l0.1-0.1c-1.5,0.2-1.9,1.6-2.7,2.6c-0.9,1.1-1.2,2.6-2.4,3.4l-0.2-0.2
		c0.1-2.4,1.8-3.8,3.1-5.5C348.5,387.5,349.8,387.1,350,385.8L350,385.8z"/>
	<path fill="none" d="M413.7,165.8c1.7,2.6,2.2,5.4,1.9,8.4C414.4,171.5,414,168.6,413.7,165.8L413.7,165.8z"/>
	<path fill="none" d="M413,109.9c0.8-1.1,2-1.2,3.1-1.2c1.4,0.6,2.5,1.4,2.7,3.4C416.5,111.2,415,109.7,413,109.9L413,109.9z"/>
	<path fill="none" d="M413.8,165.7c-1.3-2.5-1.5-5.2-1.2-7.9C413.3,160.4,414.1,163,413.8,165.7L413.8,165.7z"/>
	<path fill="none" d="M413.8,178.8c-0.4,1.5,1.4,2.6,0.8,4.7c-1.1-2.1-1.9-3.6-2.2-5.8C413.1,178.1,413.3,178.9,413.8,178.8
		L413.8,178.8z"/>
	<path fill="none" d="M410.9,146.6c0-0.8,0.3-1.4,1.2-1.4c0.9,0.3,1.6,0.8,1.9,2C412.8,146.9,412,145.8,410.9,146.6L410.9,146.6z"/>
	<path fill="none" d="M410.8,146.5c-0.1,1.2,0.1,2.4-1.1,3.5C409.5,148.6,409.5,147.4,410.8,146.5L410.8,146.5z"/>
	<path fill="none" d="M366.5,387.2c0.2-0.9,0.7-1.4,1.6-1.3c0,0.5,0,1,0,1.5l0.1-0.1C367.7,387.2,367.1,387.2,366.5,387.2z"/>
	<path fill="none" d="M417.5,139.3c0.9-1.3,2.3-1.5,3.7-1.5l-0.1-0.1C420.1,138.8,419,139.4,417.5,139.3L417.5,139.3z"/>
	<path fill="none" d="M487.2,397.6c0.4,1.5-0.7,2-2,2.9C485.3,398.7,486.1,398,487.2,397.6L487.2,397.6z"/>
	<path fill="none" d="M422.6,131.8c-0.5,0.8-1.1,1.5-2.4,1.2c0.7-0.8,1.5-1.2,2.5-1.1L422.6,131.8z"/>
	<path fill="none" d="M509.5,653c0.7-0.5,1.2-0.6,1.4,0.6C510.3,653.7,509.8,654.1,509.5,653z"/>
	<path fill="none" d="M487.1,401c0,1,0.4,1.8-0.4,2.7C486.4,402.7,486.1,401.9,487.1,401z"/>
	<path fill="none" d="M415.3,160c0.1,0.7,0.3,1.4-0.6,1.9C415.2,161.4,413.7,160.4,415.3,160z"/>
	<path fill="none" d="M419.8,110.2c0.7-0.4,1-0.2,1,0.9C420.1,110.9,419.7,110.8,419.8,110.2z"/>
	<path fill="none" d="M368.4,424.7c-0.3-0.2-0.6-0.3-0.9-0.5c-0.2-0.2-0.6-0.3-0.3-0.9C367.7,423.7,368.5,423.7,368.4,424.7z"/>
	<path fill="none" d="M725.6,424.9c6.5-1.6,12.9-3.7,19.6-4.5c1.8-0.2,3.8-0.2,5.4-1.1c3.6-1.9,7.5-2.1,11.3-2.7
		c3.1-0.5,6.2-0.5,9.2-1.5c1,3.9,1.2,7.9,1.6,11.9c0.5,5.1,0.7,10.2,0.9,15.4c0.1,1.4,0.1,2.8,0.8,3.9c1.2,1.7,1.3,3.7,1.3,5.6
		c0,3.2,0.1,6.4,0,9.5c0,0.8,0.1,1.9-0.4,2.5c-1.3,1.8-1.1,3.9-1.3,6c-0.2,2.4-0.4,4.9-0.6,7.3c-0.7,7.4-1.5,14.8-0.7,22.3
		c0.5,4.7,0.7,9.5,0,14.2c-0.6,4.5,0,8.9,1,13.3c1.9,8.3,3.6,16.8,3.9,25.3c0.3,8.8-0.3,17.6-0.9,26.4c-0.4,5.4-1,10.7-0.9,16.1
		c0.1,7.8,0.4,15.6,0.5,23.5c0,1.8,0,3.6,0.8,5.5c-1.9,0-3.7,0.8-4.1,1.9c-1.1,3-3.8,3.9-5.6,5.1c-1.9,2.8-2.9,5.6-4.8,7.8
		c-2.3-0.2-2.8-1.9-3.5-3.4c0.2-1.4,1.5-2.8,0-4.1c1.5-2,2.3-4,1.5-6.3c-1.3-4.1-2-8.3-2.8-12.5c-2.6-12.5-6.3-24.6-11-36.4
		c-2.3-5.6-3.9-11.3-3-17.5c0.1-0.4,0.1-0.7,0-1.1c-0.9-8.4,1.5-16.5,2-25.1c-1.2-1.9-1.3-4.4-2-6.8c-2.7-9.3-2.6-18.9-3.4-28.3
		c-0.6-7.1-1.5-14.1-3.4-20.9c-0.7-2.6-1.2-5.2-2-7.8c-2.1-6.5-4.6-12.9-6.6-19.4c-2-6.4-3.1-13.1-5.3-19.4
		c-0.4-1.1-0.6-2.4-0.3-3.6C723.7,425.2,724.6,425.1,725.6,424.9z M755.1,507.6c-0.3-1.8,1.3-3.1,0.5-4.9c-1.9,0.2-2.1,1.4-2,2.8
		c0.2,1.4-0.3,2.6-0.7,3.8c0.9,3.5,2.6,6.5,4.1,9.6C758.5,515.9,758.5,515.9,755.1,507.6z M759.9,545.8c0.8-4.8-0.2-9-2.6-11.1
		C757.5,538.7,759,541.9,759.9,545.8z M759.7,550.2c-1.3,2.6-1.1,3.5,1.3,6.1C760.9,554.1,760.9,552.1,759.7,550.2z M768.2,512.4
		c1.6-3.4,1.6-3.5-0.8-5.6C768,509.1,768.4,510.7,768.2,512.4z M764,612.5c0.6-1.6,0.7-2.9,0.3-5C763.7,609.6,762.9,610.7,764,612.5
		z M760.7,562.4c-0.5-0.1-0.8,0.1-0.8,0.5c0,0.8,0.1,1.6,0.9,2.1C761.2,564,761.1,563.2,760.7,562.4z M764.3,620.4
		c0.5-1.4,0.5-2.6,0.2-3.7C763.6,617.8,763.7,619,764.3,620.4z M764.1,624.7c1.1-0.5,0.7-1.1,0.2-1.7
		C763.5,623.5,763.6,624.1,764.1,624.7z"/>
	<path fill="none" d="M656.3,638.2c1.1-4.9,1.4-9.7,0.7-14.8c-0.8-6-0.8-12.2-1.6-18.3c-1.5-11.9-3.5-23.7-3-35.8
		c0.2-3.4,0.1-6.9,0.3-10.3c0.2-3.9,0.3-7.8,1.3-11.6c3-10.6,5.6-21.3,8.6-31.9c2.4-8.6,4-17.1,3.4-26c-0.3-5.5,0.4-11-1-16.4
		c-0.1-0.5,0-1,0-1.5c0.1-6.7,0.6-13.4,0-20.1c-0.1-1.7-0.1-3.4,0-5.1c0.6-7.4,0.8-14.9,0.7-22.3c0-0.9-0.4-2,0.4-3
		c4.5,1.2,9.3,1.1,14,2.2c6.7,1.5,13.4,2.6,20.2,3.3c4.5,0.5,9.2-0.3,13.8,1.8c-2.6,6.5-3.3,13.4-5.1,20.2
		c-2.5,9.3-4.3,18.8-6.4,28.2c-0.8,3.7-1.4,7.4-3.4,10.8c-0.8,1.3-0.8,2.8-1.1,4.2c-1.1,5.8-1.7,11.8-5.3,16.9
		c-0.5,0.8-1,1.8-1.1,2.7c-0.2,3-1.4,5.7-2.1,8.5c-0.4,1.5-1.5,2.9-1.6,4.3c-0.2,4.3-1.1,8.6-0.6,13c1.2,9.7,0.4,19.3-2.2,28.7
		c-1.3,4.7-2.9,9.2-3.8,14c-1.8,9.1-4.1,18.1-6,27.2c-0.9,4.4-1,8.9-1.7,13.4c-0.6,3.8-0.2,7.8-1.5,11.7c-1.5-0.1-3-0.3-4.4-0.3
		c-2.8-0.1-5.1,1.4-7.5,2.7c-1.6,0.9-1.6,2.9-2.1,4.5s-0.8,3.3-3,4.7C655.9,641.5,656,639.8,656.3,638.2z M686.9,508.9
		c0.4-1.9,1.5-3.9-0.3-5.8c-1.1,1.7-1.1,1.7-1.1,4.3c-2.2,1.6-2.5,4.7-5.3,6.9C683.7,513.2,686.2,512,686.9,508.9z M679.5,536.6
		c2-1.8,2.4-2.9,2.3-5.6C679.7,532.4,679.8,534.5,679.5,536.6z M672.8,504.4c-1.4,1.2-1.4,1.2-1.2,5.3
		C672.4,508,673.1,506.4,672.8,504.4z M678.3,542c-1.6,1.7-1.3,3.2-0.6,4.6C678,545.2,678.7,543.9,678.3,542z M661.4,625.7
		c-0.8,0.5-1,1,0,1.8C661.8,626.8,661.9,626.2,661.4,625.7z"/>
	<path fill="none" d="M770.6,412.2c0,0.4,0.1,1-0.5,1.2c-1.7-0.7-3.3-0.3-5-0.1c-8.6,1-16.8,4-25.4,5.4c-6.4,1-12.4,3.5-18.9,4.1
		c-0.2,0-0.4-0.1-0.7-0.2c-0.5-0.7-0.6-1.6-0.5-2.5c3.6-2.1,6.5-4.8,8.1-9.7c-2.9,2-4.6,4.3-6.6,6.1c-0.7-0.2-1.2-0.7-2.3,0.6
		c-1.7,1.7-1.9,5.2-3.8,7.8c-1.5-0.8-2.9-1.5-4.3-0.9c-1.5,0.6-2.9,0.3-4.3,0.2c-6.2-0.5-12.3-2-18.5-2.4
		c-6.7-0.5-13.2-2.4-19.8-3.3c-0.7-0.1-1.5-0.3-1.9-1.2c-0.2-2.5-0.3-5.1,0.1-7.8c0.6-3.7,1.3-7.5,1.7-11.2
		c1-12.1,2.5-24.1,5.9-35.7c0.4-1.3,0.3-2.7,1.3-3.8c4.3,0.7,8.7,1.3,12.9,2.2c9.1,1.9,18.4,2.4,27.6,3.7c11,1.6,21.9,0.9,32.8-1.5
		c5.7-1.2,11.3-2.9,17.9-4.5C766.5,376.9,768.7,394.5,770.6,412.2z M751.5,405.6c-1.4-1.1-2.9-1-4.4-0.2c-1.4,0.8-1.9,2.2-1.4,4.1
		c0.2,0.8,0.6,1.5,0.9,2.3c5.2,0,5.9-0.5,6.3-4.7c0.4,0.7,0.8,1.5,1.4,2.1c1.5,1.6,4.1,1.5,5.4-0.1c1.2-1.4,1-3.7-0.4-4.9
		c-1.5-1.4-4.2-1.1-5.4,0.7c-0.5,0.7-0.6,1.6-0.9,2.3C752.4,406.6,752,406,751.5,405.6z M765.8,402.3c-1.9,0.4-4.2-0.1-4.9,2.7
		c0.5,1.5,2.2,2.4,1.5,4.3c1.7-0.2,1.3-2,2.6-2.2c0.9,0.1,0.8,1.4,2.5,1.8C766.8,406.4,767.1,404.3,765.8,402.3z M715.2,400.8
		c0.5,2.5,1.7,4.9,3.6,7C718.4,405.1,716.8,403,715.2,400.8z"/>
	<path fill="none" d="M694.6,295.4c-0.6-1.2-1.3-2.3-2.7-2.8c3.2-2.1,6.9-2.2,10.4-2.8c8.2-1.5,16.6-0.8,24.8-1.9
		c5.4-0.7,10.7-0.8,16.1-0.2c5.7,0.6,11.3,1.4,16.6,3.3c0.4,1.1,0.1,1.9-0.1,2.8c-0.9,5.9-1.9,11.9-1.6,17.9
		c0.5,7.8,1.6,15.6,3.7,23.1c1.6,5.8,2.2,11.7,3.1,17.6c0.2,1.4,0.6,2.8,0,4.3c-2.8,0.6-5.5,1.2-8.1,1.7c-0.5-0.4-0.3-1.1-1.1-1
		c-1.7,0.9-3.2,2.1-5.2,2.5c-2.9,0.5-5.8,1.1-8.6,1.6c-13.5,2.2-26.8,0.5-40.1-1.5c-1.5-1.2-2.9-2.4-4.3-3.6
		c-0.2,0.2-0.3,0.3-0.5,0.5c0.6,1,1.2,2,1.8,3.1c-2.9,0.7-5-0.6-6.3-1.7c-6.3-0.4-11.5-1.8-17.1-2.5c1.9-5.9,2.5-11.7,3.9-17.2
		c0.7-2.9,1.8-5.6,3.1-8.2c2.5-4.9,4.2-10.2,4.7-15.6c0.6-6.4,0.5-13-2.4-19c-0.3-0.5-0.3-1.2,0-2c2.3-1,4.7-1.5,7.3-1.2
		C691.8,294.5,693.3,294.9,694.6,295.4z M746.6,351.6c1.2-0.6,1.1-1.5,1.2-2.4c0.9-0.6,0.4-1.4,0.5-2.1c-0.5,0.7-0.5,1.4-0.4,2.2
		C746.8,349.7,746.8,350.6,746.6,351.6z M716.3,318.6c-0.5,1.5-0.7,10-0.2,12.3C716.8,326.9,717.3,322.9,716.3,318.6z M727.9,335.3
		c1.6,2.1,3.2,1.3,4.9,0.9c-0.2-2.1-0.2-2.1-2.3-3.1C729.5,333.9,728.7,334.6,727.9,335.3z M748.9,335.2c0-2.2,0-3.6,0-5.1
		C747.6,331.5,747.7,333,748.9,335.2z M715.4,348.4c0.8-0.6,0.6-1.3,0.4-2C715.5,346.9,715.1,347.4,715.4,348.4z M695.2,353.8
		c-0.3,0.9,0.1,1.2,0.8,1.4C696.4,354.4,695.9,354,695.2,353.8z M714.8,342.1c0,0.2,0.1,0.4,0.2,0.6c0.6-0.5,0.2-1.1,0-1.6
		C714.9,341.5,714.8,341.8,714.8,342.1z"/>
	<path fill="none" d="M649.5,310.4c-0.7-1.3-2.1-1.7-3.3-2.2c-2.6-1-4.6-2.7-6.2-5c0.2-3.6-0.4-7.1-1.7-10.4c-2.2-5.6-2-11.2-1.1-17
		c0.8-5.1,2.4-10,3.6-14.9c0.4-1.6,0.1-3.4,1.3-4.9c5.4,2,10.9,2.9,16.4,3.1c0.9,2.2,0.6,4.3,1,6.3c0.4,1.9,0.5,3.9,2.4,6
		c-0.1-4.5-1.6-8.3-0.7-12.4c2.8-0.6,5.6-1.1,8.5-1.7c0.2,2.7-0.1,4.8-1.2,7c-2.1,4.2-3.3,8.7-3.1,13.4c0.1,2.6,0.1,5.1-0.1,7.7
		c-0.7,6.2-1.6,12.3-4.8,17.9c-1.2,2.1-2.7,3.7-5.1,4.5c-2.1,0.7-4.2,1.4-6.1,2.6H649.5z M663.4,282.2c1.4-2.3,1-4.8-1.4-9.4
		C661.9,275.9,662.9,278.9,663.4,282.2z M640.1,293.9c0.9-1.6,0.5-2.9,0.1-4.3C639.6,290.9,639.3,292.2,640.1,293.9z"/>
	<path fill="none" d="M786.5,640.6c-3.8,0-7.5,0.8-11.2,1.9c-1.3,0.4-2.9,0.9-2.7,3.2c3.1,0.6,6-0.7,8.9-1.1
		c3.2-0.4,6.3-0.6,9.3-0.4c1,0.5,1.2,1.2,1.6,2.1c-8.1-1.2-12.9-0.4-15.1,2.2c0.6,1.7,2,1.5,3.4,1.3c4.2-0.7,8.5-0.4,12.8-0.6
		c0.9,0,0.9,0,2,1.4c-2.1-0.6-4.2-0.5-6.2-0.1c-1.8,0.4-4.2-0.3-5.2,2.3c0.5,0.4,0.7,0.8,1,0.8c2.3,0.5,4.6-0.3,7-0.1
		c0.2,0.7-0.9,1.1-0.4,2.2c2.7,1.8,5.4-0.2,8.5-0.7c1.2,1.5,3,2.4,4.8,3.6c3.3,2.2,3.9,5.3,3.3,8.8c-10.2,1.2-12,1.8-14.6,5.3
		c2.5-1.2,5.2-1.8,7.9-2.3c2.8-0.4,5.5-1.1,8.5-0.3c-0.9,1.6-2.3,2.1-3.5,2.2c-4.1,0.6-8.2,1.2-12.4,1.2c-1.5,0-2.6-0.5-3.3-1.6
		c-6.2,0.5-11.6-2-17.1-3.4c-1.4-7.1-2.9-8.9-6.7-8.2c0.7,1.8,3.2,2,3.9,4.2c-0.8,0-1.5,0.2-2,0c-4.9-1.6-10-1.9-14.9-3.8
		c0.3-2.5,0.6-4.9,1.2-7.3c0.5-2.2,1.2-4.3,2.2-6.2c1.2-2.1,0.6-4.5,0.9-6.9c0.8,0.3,1.2,0.5,1.7,0.7c0.6,0.2,1.1,0.4,1.7,0.6
		c2.1,0.5,3.2,0,4.1-2c0.4-1,0.8-2.1,1.2-3.1c0.6-1.3,0.9-3.1,2.3-3.7c3-1.4,5.2-3.6,7.3-5.7c2.4-0.3,4.6-0.6,6.8,0.6
		c0.4,2.9,1.7,5.6,3.1,8.3c-10.5,0.7-13.3,1.5-14.9,4.4c3.2,0.6,6-0.6,9-1.1c4.1-0.7,6.8-0.4,9.1,1.1
		C788.2,640.6,787.3,640.6,786.5,640.6z"/>
	<path fill="none" d="M672.5,228.9c3.5,1.9,6.5,4.3,8.4,7.9c2.3,4.4,1.9,8.8-1.2,12.6c-2.5,3.1-5.8,5.2-9.6,6.4
		c-6.1,1.9-12.3,2.8-18.7,1.6c-6.2-1.2-12-3.2-16.7-7.6c-2.7-2.5-4.5-5.5-4.5-9.3c-0.1-5.3,3-8.6,7-11.3c5.4-3.5,11.5-4.5,17.4-4.7
		C660.9,224.6,667.5,226.2,672.5,228.9z M639.1,230.3c2.7-0.8,5.3-1.7,8-2.2c9.5-1.9,18.3,0,26.5,5.1c1.4,0.9,2.7,2.1,3.8,3.4
		c3.4,3.9,3.3,8.7-0.2,12.5c-0.7,0.8-1.7,1.3-2.2,2.4c-1.8,0.9-3.6,1.8-5.4,2.6c2.3,0.1,4.1-0.9,5.7-2.3c3.1-1.9,5.5-4.3,5.9-8.3
		c0.2-2.1-0.2-3.8-1.3-5.5c-1.5-2.4-3.5-4.4-5.9-5.9c-9.8-5.9-20.2-7.5-31.2-3.9C641.4,228.5,639.8,228.7,639.1,230.3
		c-2.6,0.4-4.1,2.1-5.2,4.3c-1.4,0.9-1.9,2.4-1.7,4.1c0.7-1.3,1.3-2.5,2-3.8C635.4,232.9,637.6,232,639.1,230.3z M664.7,245.8
		c-1.3-3.4-3.2-4.6-6.8-4.9c-3.2-0.3-5.2,1.9-7.7,3.6c-0.5,5.1,1.4,6.4,10.1,6.3C662.3,249.4,664,248,664.7,245.8z M649,255
		c0.5,1,1.3,1,2.8,0.5C650.3,255.2,649.7,255.1,649,255z M632.1,243.9c0.4-0.6,0.4-0.6-0.1-1.3C631.8,243.1,631.8,243.5,632.1,243.9
		z"/>
	<path fill="none" d="M645.7,659.9c0.3-2.1,0.3-4.4,1.4-6.4c1.6-2.8,2.7-5.7,3.2-8.9c2.6,2.3,2.6,2.3,7.8,2.2
		c2.1-2.9,2.5-6.5,3.9-9.6c3.2-1.7,6.3-3.1,9.9-2.2c1.8,1.5,2.3,3.5,2.2,5.7c-0.2,2.1,1.4,3.8,1.6,5.9c-1.7,0-3,0-4.3,0
		c-3,0.1-5.9,0.5-8.6,1.5c-1.1,0.4-2.4,0.8-2,2.6c2.8,0.9,5.3-0.6,8-0.5c2.8,0.1,5.6,0,8.4,0.3c0.9,0.6,1.7,1.3,2.2,2.9
		c-3.5-2-7-1.9-10.3-1.8c-3.2,0.1-6.8-0.3-9.7,2.8c3.6,2.2,7.1,1,10.4,1.1c3.5,0.1,6.9,1.3,10.7-0.2c-0.3,1.3,0.8,1.9-0.1,2.9
		c-5-2-10.3-1.4-15.5-1c-1.7,0.1-3.8,0.3-4.3,2.6c0.6,1.8,2,1.6,3.4,1.6c3.1-0.1,6.1-0.1,9.2-0.1c2.6,0,5.3,0.2,7.7-1.2
		c0.5,1.5,0.9,2.6,0.8,3.9c-5.3-0.7-10.4-0.2-15.5-0.5c-1.1-0.1-2.2,0.2-2.4,1.6c0.4,1.4,1.7,1.8,2.9,1.9c5.3,0.4,10.6,1.1,16.1-0.2
		c2.3,4.6,4.6,9.5,7.6,14.1c-0.4,1.6-1.7,2.1-3,2.4c-1.5,0.3-3.2,0.5-4.7,0.5c-3.3-0.1-6.6-0.1-9.9,0.4c-0.3,0-0.7,0.1-0.6-0.5
		c5.3-2.2,11.1-1.3,17.1-1.9c-4.4-3.3-17.7-1.8-23.5,2.3c-2.2-0.7-4.7-0.8-7.1-0.8c-4.1,0.1-7.5-1.1-8.8-5.6
		c-0.1-0.2-0.2-0.4-0.3-0.5c-1.5-1.4-3.3-2.1-4.8-3c0-2.4,0.9-4.6-0.5-6.6C645,664.9,645.3,662.4,645.7,659.9z M671.3,668.5
		c2.7,3.6,6.2,3.9,12.2,1.1C679.1,668.6,675.5,668.1,671.3,668.5z M649.3,674.8c1.2-3.5,0.3-5.8-1.4-8
		C647.9,669.4,648.1,671.8,649.3,674.8z"/>
	<path fill="none" d="M658.4,206.4c2-0.4,3.6-0.1,4.9,1.5c1.1,1.3,2.4,2.5,3.7,3.5s2.2,2.2,2,4.4c1.1-1.1,2-1.7,2.9-2.2
		c2.6-1.4,3.1-3.7,1.7-6.2c-0.5-1-1.2-1.9-2.2-2.4c-1.4-0.7-2.8-0.3-4.2-0.1c-0.5-0.7-1-1.5-1.5-2.1c-0.6-0.8-1.3-1.5-2.1-1.8
		c-5.7-0.5-10.9,1.8-16.6,1.6c-1.6,1.1-2.7,3.2-4.8,3.5c-1.5,3.4,1.6,6.5,0,9.8c-2.5-2.1-4-4.8-5.6-7.4c-2-3.2-1.7-6.2,0.2-9.3
		c2.7-4.3,6.9-6.4,11.5-7.9c10.7-3.4,20.8-1.1,29.9,4.4c8.9,5.3,9.4,15,0.4,21.1c-2.6,1.8-5.4,2.6-8.6,2.9c-0.2-0.3-0.4-0.6-0.5-0.9
		c-1.9-4.5-5.9-7.2-10.8-7.1c-2,0-3.9,0.1-5.9-0.1c-1.6-0.1-3.2-0.8-5-0.6c0.2,1.3,1.2,1.4,1.9,1.6c3.2,0.9,6.5,0.8,9.8,0.7
		c4.7-0.1,7.6,2.6,8,7.2c-0.2,0-0.5,0-0.7,0c-0.8-0.2-0.6-0.9-0.8-1.4c-0.7-2.2-2-3.4-4.4-3.8c-3-0.4-9.7-0.3-14,0.8
		c5.7,1.4,11.1-1.2,16,1.4c0.3,0.7,1,1.3,0.7,2.3c-6.4-1.4-12.7-1.8-19-0.2c-1.4-2.3-0.8-4.8-0.9-7.1c0.5-0.8,1.7-0.1,2-1.2
		c-0.9-0.6-2.1,0.1-2.9-0.9c-0.4-1-0.7-2.2,0-3.5c1.1-0.5,2.4,0.2,3.3-0.4c1-0.9-0.6-1.3,0.2-2.5c5.2-0.2,10.5-2.1,16.1-1.7
		c3.2,3.2,3.2,3.2,4.5,7.8c-1.1-0.2-1.7-1-2.1-1.8c-2-3.3-4.6-4.5-8.4-3.4c-1.5,0.4-3.2,0.3-4.7,0.4c-1.3,0.1-2.7-0.1-4.5,1.5
		C652,207.1,655.2,207.1,658.4,206.4z"/>
	<path fill="none" d="M683.3,214.2c3.5-4.2,3.9-9.2,3.1-14.5c4.3-0.9,7.4-3.9,11.2-5.6c2.8,7.1,2.1,14.5,2.4,21.9
		c0,0.6-0.2,1.2-0.3,1.8c-0.9,4.4-2.2,8.7-3.8,13c-0.6,1.8-1.4,3.3-2.7,4.7c-2.2,2.4-4.3,5-5.7,8c-1,2.2-3,3.6-5.4,5.3
		c3.8-10.2,3.2-19.7-12.1-27.3C675.5,220.3,680,218.2,683.3,214.2z"/>
	<path fill="none" d="M785.9,223.1c2.2,0.1,4.4-1.4,6.7-0.3c-0.3,1.2-0.6,2.3-0.8,3.2c0.8,3.5,3,6.2,4.6,9.2s2.7,6.2,3.7,9.5
		c-2.4,8-8.7,17.9-15.5,25c-1.2-3.2-0.7-6.5-1.4-9.7c-1.2-5.6-1.4-11.4-1.7-17.1c-0.2-5.1-0.2-10.2-1.8-15.2
		c-0.5-1.7-0.4-3.6-0.6-5.8C781.6,223,783.8,223,785.9,223.1z"/>
	<path fill="none" d="M840.1,255.6c-7.3,6.7-15.7,11.1-25.3,13.3c-3,0.7-6,0.9-9.1,0.3c-4.1-0.8-5.3-3.1-3.6-6.9
		c1.2-2.6,3-4.8,5.1-6.7c7.1-6.5,15.4-10.7,24.7-13c2.9-0.7,5.8-0.9,8.7-0.7c2.6,0.2,4.8,1.2,5.3,4.3
		C844.7,250.5,843.5,252.4,840.1,255.6z M803,264.4c-0.1,0.5-0.3,0.8-0.3,1.1c0.1,1.8,1.5,2.1,2.9,2.2c4.5,0.3,8.9,0.3,13.3-1.2
		c5.5-1.9,10.4-4.8,15.2-7.8c4-2.5,7.1-6.3,9.8-10.2c0.7-1,0.8-2,0.7-3.1c-0.6-1.1-1.6-1.5-2.7-2c0.2,1.2,1.5,1.3,1.7,2.6
		c-0.6,2.3-2.7,3.7-4.2,5.6c-2.8,3.4-6.1,6.2-10.2,8.1c-2.8,1.2-5.5,2.6-8.1,4.2c-3.8,2.2-7.9,3-12.3,2.5c-1.6-0.2-3.1-0.3-4.7-0.4
		C803.7,265.4,803.4,265,803,264.4z M830.2,254.6c-0.5-1.2-1.1-2.6-1.6-4c-1-0.4-2-0.8-3.2-1.3c-3,2.5-7.4,3.5-8,8.1
		c0.5,1.4,1.3,2.1,2,2.8C824.2,260.9,827.6,259.2,830.2,254.6z"/>
	<path fill="none" d="M793.3,216.6c-1.5,0.9-1.1,2.5-1.3,3.8c-3.1,1.2-6.1,1.4-9.2,1.1c-2.2-0.2-3.7-1.1-4-3.4
		c0.8-3.5,2.9-6.2,5.4-8.6c7.2-6.8,15.7-11.6,25.3-14c2.3-0.6,4.6-0.8,6.9-0.5c3.7,0.3,5,2.4,3.4,5.8c-2.8,5.6-7.3,9.5-12.9,12.4
		c-0.9-1.6-1.6-3-2.4-4.4c-0.6-1.2-1.6-1.9-3-1.6c-2.4,0.6-4.7,1.5-5.5,4.3c0.8,1.7,1.5,3.3,2.5,5.4
		C796.3,216.3,794.8,215.7,793.3,216.6z"/>
	<path fill="none" d="M802,243.5c-1-2.4-1.9-4.7-2.8-7c-0.9-2.3-2.8-4-4.1-6.1s-2.4-4.2-1.1-6.8c1.2,0.1,2.3,0.1,3.4,0.2
		c1.2,0.1,1.9-1.1,3.2-1.6c-0.2,1.9-1,3.3-0.4,4.9c0.7,1.2,2,2.1,2.4,4.2c1.4-2.2,1.1-4.5,2.6-5.8c2.2-1.8,3.8-4.1,5.5-6
		c4.3-0.9,11.5-1.3,12.3-0.5c0,0.6,0.5,1.4-0.4,2.3c-1.2,0.1-2.5,0.5-3.8,0.4c-3.4-0.2-6.2,1.2-8.6,3.4c-1.7,1.5-3.5,3.1-5,4.8
		c-1.4,1.6-1.8,3.7-1.1,5.8c0.4,1.1,1.1,1.5,2.2,1c-1.6-3.1-1.4-4.4,1-6.8c1.6-1.7,3.4-3.2,5.2-4.6c1.1-0.8,2.1-1.7,3.5-1.8
		c2.3-0.3,4.6-0.5,6.9-0.7c2.6-0.2,3.1,0.3,3.2,3.6c-2.6,0.2-5.3,0.5-7.9,0.7c-3.1,0.3-5.9,1.3-7.4,4.1c-1,2-2.5,3.6-3.9,5.2
		c0.8,2,1.6,3.8,2.2,5.4c-1.2,2.5-4,0.4-5.3,2.4c0.5,0.3,0.9,0.6,1.4,1c-1.5,1.3-2.9,2.5-4.6,4C801.2,247.1,801.6,245.2,802,243.5z"
		/>
	<path fill="none" d="M800,263.5c-1.9-3.9-2.5-7.3,0.1-10.8c2.7-3.7,6.1-6.7,9.9-9.1c5.1-3.3,10.5-6,16.5-7.5
		c3.1-0.7,6.1-1.4,9.3-1.4c2.5,0,4.5,0.9,5.9,3.1c0.7,1,1.3,2,2.3,3.5C830.7,237.2,804.3,250.9,800,263.5z"/>
	<path fill="none" d="M806.9,194.7c-12.1,4.2-22.9,10.1-29.5,21.8c-2-5.2-1.7-7.1,2.5-12.1c0.6-0.7,1.3-1.4,2-2.1
		c6.6-6,14.2-10.4,22.8-12.9c2.5-0.7,5-1.2,7.6-1.1c2,0.1,3.5,0.8,4.6,2.4c0.6,0.9,1.2,1.8,2.2,3.2
		C814.5,193,810.7,193.5,806.9,194.7z"/>
	<path fill="none" d="M657.2,223.7c-9.9-0.6-19,1.4-26.1,9.1c2.7-6.8,4.9-8.9,11.4-11c2.1-0.7,4.2-1.2,6.4-1.5
		c9-1.2,17.5,0.1,25.3,4.9c4.1,2.5,7,6,8,10.9C676.1,227.4,667.2,224.3,657.2,223.7z"/>
	<path fill="none" d="M640.5,189.9c2.5-0.3,4.3-2,6.6-2.8c12.1-4.2,22.8-0.2,33.1,5.7c2.5,1.4,3.8,4.1,4.2,7.1
		c-1.9-2.5-4.1-4.7-6.8-6.1c-8.8-4.6-18.2-6.2-28-3.9c-4.2,1-8.1,2.8-11.2,5.8c-1.1,1.1-2.1,2.4-3.3,4c0.5-3.6,2.1-6.1,4.4-8.2
		C639.9,191,640.7,190.7,640.5,189.9L640.5,189.9z"/>
	<path fill="none" d="M816.5,229.3c3.8-0.7,7.6-1.1,11.4-1.2c0.7,3.5,0.1,5.4-2.2,6.4c-2.2,1-4.5,1.7-6.6,2.4
		c-0.9-0.5-1.1-1-0.9-1.8c1.2-0.8,2.7-0.5,4.1-1.1c1.4-0.6,3-0.7,4.2-2.1c-3.7-0.3-10.2,1.7-13.6,4.1c-0.8-0.1-1.3-0.6-1.6-1.5
		C811.9,231.8,813.7,229.9,816.5,229.3z"/>
	<path fill="none" d="M814.5,217.2c-3,0.2-5.3,1.2-7,3.9c-1.5,2.4-4,4-5.7,7c-0.8-3.1-0.3-5.5,1.4-7.1c2.1-2.1,3.6-4.6,5.5-6.6
		c2.6,0,5.2,0,7.5,0c0.7,0.9,0.9,1.6,0.4,2.5C815.9,217,815.2,217.2,814.5,217.2z"/>
	<path fill="none" d="M693.4,115.6c0.8-3,2.5-5,5.9-5.7c1.4,0.6,3.1,0.9,4.4,2.5c-0.8,0.2-1.4,0.4-2,0.5c0.1,0.4,0.3,0.7,0.5,1.1
		c-0.5,0.6-1.1,1.2-1.1,1.2c-1.8,0.2-2.3-1.3-3.5-0.7c0.1,1,1.5,0.7,1.6,1.6c-0.7,1.4-2.4,1.3-3.4,2.7c-0.7,2-2.2,4-3,6.3
		C692.7,122,692.5,118.8,693.4,115.6z"/>
	<path fill="none" d="M801.7,220.2c-1.1-3.2-3.4-5.7-4.5-8.8c2.3-2.5,2.6-2.6,5.6-2.9c1.3,2,2.6,4,2.8,6.4c-1.3,1.8-2.4,3.6-3.5,5.2
		C801.9,220.1,801.8,220.2,801.7,220.2z"/>
	<path fill="none" d="M696.1,137.2c-1.3-0.6-1.9-1.4-1.6-3c1.6,0.3,2.6,2,4.4,1.6c-1.2-1.6-3.2-1.8-4.4-3.2
		c-0.3-0.7-0.5-1.3,0.1-2.4c1.2,1.2,2.8,1.7,4.2,2.6c0.6,0.3-0.8,0.8,0.7,1.3c1.7,0.7,4.5-0.9,6.8,1.1c-2.2,0.5-4.1,1-6,1.5
		c2.2,0.9,4.1,0,6.8-0.3C703.3,138.9,699.8,138.8,696.1,137.2z"/>
	<path fill="none" d="M724.1,114.2c0.4-1.2,1.3,0.5,1.7-0.6c-1.5-1.5-4-1-5.6-2.6c5.8,0,8.1,0.6,10.6,2.9c-1,1-2-1-3.1,0.1
		c1.4,0.8,2.5,1.9,4,2.4c0,0.5,0,1,0,1.5C729,116.9,726.7,115,724.1,114.2z"/>
	<path fill="none" d="M696.8,144.3c-0.6-1-1.2-1.7-0.8-3.1c3.1,0.6,6-0.1,9-0.6c1.3-0.2,2.5-1,3.9-0.8c-1.4,2.1-3.7,2.4-5.9,3
		c-0.8,0.2-1.7-0.2-2.3,0.7C699.3,142.9,698.1,144.3,696.8,144.3z"/>
	<path fill="none" d="M810.8,241.4c-1.1-1.6-1.6-3.1-2.1-4.7c2.3-1.7,3.2,0.8,4.7,1.2c1.2-0.4,1.8-2.5,4-0.8
		C815.4,239.1,813.1,240,810.8,241.4z"/>
	<path fill="none" d="M799.7,220.5c-1.2,2.2-3.2,2-5.5,1.4c0-1.3-0.9-2.3-0.6-3.6c0.8-0.9,1.5-1.8,2.9-1c0.1,0.9-1.2,1-0.7,1.9
		c1.3,0.3,1.9-1,3-1.2C799.2,218.8,799.9,219.4,799.7,220.5z"/>
	<path fill="none" d="M703.3,121.1c-1.4-0.3-2.4-0.9-3.1-2.1c1-0.6,1.6,0.9,2.4,0c-0.3-0.8-1.9-0.7-1.4-2.4c2.5,0.4,4.4,1.6,6.4,3.1
		C705.8,119.6,704.7,121,703.3,121.1z"/>
	<path fill="none" d="M672.9,211.4c-0.9,0.5-1.5,1.4-2.9,1c0.3-2.3-2-3.8-1.9-6.4c0.9,0.2,1.8-0.1,2.9,0.6
		C671.7,208.2,672.3,209.7,672.9,211.4z"/>
	<path fill="none" d="M716.1,112.1c-1.9,0.7-3.7,1.4-5.6,1.9c-1.3,0.4-2.6,0.5-3.8-1.1C709.9,112.4,712.8,110.4,716.1,112.1
		L716.1,112.1z"/>
	<path fill="none" d="M653.7,635.6c-0.1,2.7,0.4,5.2,0,8.1C651.4,641,651.5,638.5,653.7,635.6z"/>
	<path fill="none" d="M695.7,140.7c-0.8-0.9-0.7-1.5,0.2-2.2c2.5,0.8,5.2,0.8,7.9,1.1C701.1,140,698.3,140.4,695.7,140.7z"/>
	<path fill="none" d="M698.5,131.2c2.4-0.4,4.7,0.3,7.4,1c-2.1,0.9-3.7,1.3-5.4,1C699.9,132.5,698.9,132.1,698.5,131.2L698.5,131.2z
		"/>
	<path fill="none" d="M703.4,110.6c-0.8-0.4-1.7-0.7-2.6-1.1c3.3-1.2,3.8-1,5.2,2.3C704.7,111.7,704.2,110.9,703.4,110.6z"/>
	<path fill="none" d="M701.5,167.1c-1.7-2.9-1.8-6.1-1.8-9.3C700.8,160.8,701.3,163.9,701.5,167.1L701.5,167.1z"/>
	<path fill="none" d="M701.5,167.1c1.4,2.1,1.8,4.3,1.1,6.7C702.2,171.6,701.1,169.4,701.5,167.1L701.5,167.1z"/>
	<path fill="none" d="M700.7,178.1c-0.3,1.8,1.8,3,1.2,5.3c-1.2-1.9-2-3.6-2.2-5.5c0.5,0.1,0.8,0.2,1.2,0.3L700.7,178.1z"/>
	<path fill="none" d="M716.1,112.1c1.7-0.2,3.3,0,5.1,1.3C719.1,113.3,717.6,113,716.1,112.1L716.1,112.1z"/>
	<path fill="none" d="M701.9,159.5c1.4,0.8,1,1.7,0.6,3C702,161.4,701.2,160.7,701.9,159.5z"/>
	<path fill="none" d="M710.3,137c-0.9,1-2,1.4-3.8,1.3C708,137.5,709.1,137.1,710.3,137L710.3,137z"/>
	<path fill="none" d="M798.2,653.3c-0.5,0.6-1,0.5-1.5,0.1C797.1,652.3,797.6,652.3,798.2,653.3z"/>
	<path fill="none" d="M707.8,133c0.3-0.7,0.7-1,1.9-0.9C709,132.8,708.7,133.4,707.8,133z"/>
	<path d="M719.8,273.5c-4.9,1.6-10,2.1-15,2.9c-1.9,0.3-3.9,0.2-5.8-0.3c-4.6-1.2-8.9-3.2-13.1-5.4c-0.7-0.4-1.4-0.9-1.2-2.1
		c7.8,4.3,16.1,5.8,25.3,6.1c5.7-1.7,12.5-2.8,18.4-6.6C726.1,271,724.1,272.1,719.8,273.5z"/>
	<path fill="none" d="M436.5,140.7c0.8,0,1.5,0,2.3,0c-0.1,1-1.4,0.5-1.7,1.4c-0.5,0.1-0.9,0.1-1.4,0.2
		C435.8,141.6,436.8,141.4,436.5,140.7z"/>
	<path d="M413.2,117.8c1.2,0,1.8,0.8,2.8,1.6c-1.6-0.1-2.4-0.5-3-1.5L413.2,117.8z"/>
	<path d="M466.3,505c-0.2-1.8,0.4-2,2.4-1.7c-0.4,1.4-0.8,2.8-1.2,3.9c1.1,3.1,2.2,6.1,3.2,9c-0.2,1.1-0.5,2.1-1,2.8
		c-1.8-3-3.2-6-4.2-9.5C466,508.1,466.5,506.6,466.3,505z"/>
	<path d="M472.7,545.4c-0.9-3.4-2.4-6.6-2.8-11C472.2,536.9,473.4,541.6,472.7,545.4z"/>
	<path d="M472.4,550.3c1.3,2,0.9,4.1,1.7,6.6C471.4,554.2,471.2,553.2,472.4,550.3z"/>
	<path d="M480.5,506.5c2.3,2.3,1.5,4.1,0.3,5.8C480.7,510.6,480.6,508.9,480.5,506.5z"/>
	<path d="M477.4,616c0,1.7,0,2.9,0,4.2C476.1,618.8,476.2,617.6,477.4,616z"/>
	<path d="M476.8,613c-0.8-2.1-0.5-3.4,0.2-4.7C477.6,609.7,476.8,610.9,476.8,613z"/>
	<path d="M476.6,624.9c-0.3-0.7-0.5-1.4,0.1-2C477.4,624,477.4,624,476.6,624.9z"/>
	<path d="M473.4,564.7c-1.1-0.8-1.1-1.5-0.5-2.6C473.8,563,474,563.7,473.4,564.7z"/>
	<path d="M398,507.6c0.6-1.6-0.7-3.5,1.4-4.3c1.5,5.2-0.3,8.7-5.7,10.4C395.7,511.4,396,508.7,398,507.6z"/>
	<path d="M395,530.8c-0.4,2.4-1,3.9-2.3,5.2C392.5,534.1,392.4,532.3,395,530.8z"/>
	<path d="M385.3,504.4c0.1,1.8,0,3.6-1.4,5.2C384.7,507.9,383.6,505.8,385.3,504.4z"/>
	<path d="M391.2,542.5c-0.2,1.5-0.1,2.8-0.9,4.6C389.5,544,389.5,544,391.2,542.5z"/>
	<path d="M440.6,335.2c0.9-0.7,1.7-1.3,2.7-2.1c1,0.5,2.5,0.6,2.5,2.4C443.2,337.1,443.1,337.1,440.6,335.2z"/>
	<path d="M428.9,331.4c-0.9-4.1,0-8.3-0.3-12.4C430.3,323.1,428.9,327.2,428.9,331.4z"/>
	<path d="M404.1,292.8c2.2,0,2.8,1.9,4,3.2c-1.8-0.5-3.1-1.6-3.9-3.3L404.1,292.8z"/>
	<path d="M461.4,330.1c0.3,0.7,0.3,1.4,0.3,2.1c0,0.6-0.1,1.1-0.1,1.7C460.6,332.7,460.5,331.4,461.4,330.1z"/>
	<path d="M428,340.5c0.3,0.4,0.3,0.8,0.3,1.1c-0.1,0.5-0.2,1-1.1,1.5C427.5,342,427.7,341.2,428,340.5z"/>
	<path d="M408.7,354.7c0,0.3-0.3,0.4-0.5,0.2c-0.3-0.3-0.6-0.7-0.5-1.4C408.4,353.7,408.7,354.2,408.7,354.7z"/>
	<path d="M464.4,406.3c-0.3,4.1-1,4.6-6.3,4.7c-0.3-0.7-0.7-1.5-0.9-2.3c-0.5-1.9,0-3.3,1.4-4.1c1.5-0.8,3-0.9,4.4,0.2
		c0.6,0.4,0.9,1.1,1.4,1.6V406.3z M458.7,407.8c0.4,0.9,1.1-0.1,1.5,0.3c0.9,0.3-0.1,1.4,0.8,1.7c2.6-2.2,2.5-3-0.6-4.7
		C459,405.7,458.5,406.6,458.7,407.8z"/>
	<path d="M473.9,406.4c-0.7-0.6-1.5-1.3-1.3-2.5c1.6-1.8,1.6-1.8,5-2.1c0.9,1.9,1.2,4,1.1,6.1c-1.3,0.1-1.1-1.4-2-1.4
		c-1.3,0.2-1,2-2.3,2.2C473.4,408,474.7,407,473.9,406.4z M476.6,404.8c0.5-0.6,0.2-1.1,0-1.6c-1.3-0.5-2,0-2.5,1.1
		C474.8,405.4,475.7,405.3,476.6,404.8z"/>
	<path d="M464.5,406.4c0.3-0.8,0.5-1.7,0.9-2.3c1.2-1.8,3.9-2,5.4-0.7c1.4,1.2,1.6,3.5,0.4,4.9c-1.4,1.6-3.9,1.7-5.4,0.1
		c-0.6-0.6-0.9-1.4-1.4-2.1L464.5,406.4z M468.6,403.7c-1.5,0.7-1.5,0.7-2.4,1.9c0.1,1.4,0.7,2.5,2.2,2.9
		C471.1,406.6,471.1,405.9,468.6,403.7z"/>
	<path d="M401.6,364.3c-0.6,0.3-1.1,0.3-1.5-0.4C400.8,363.6,401.2,363.9,401.6,364.3z"/>
	<path d="M422.5,274.6c5.8-1.7,12.4-2.9,18.3-6.5c-1.4,2.7-4,3.7-6.6,4.7c-5.6,2.2-11.6,2.7-17.5,3.6c-1.4,0.2-3,0.1-4.4-0.2
		c-5-1.1-9.7-3.3-14.2-5.7c-0.5-0.3-1-0.7-1.2-2C405.1,272.8,413.3,274.4,422.5,274.6z"/>
	<path d="M466.6,211.1c1,0.5,1.7,1.1,1.6,2.3C467,213.1,466.6,212.3,466.6,211.1z"/>
	<path d="M371.9,294.2c1.8,2.6,2.5,5.2,2.8,8.1C372.4,299,371.7,296.7,371.9,294.2z"/>
	<path d="M392.2,246.2c-1.4,2.3-2.7,3.6-4.6,4.1C388.8,248.8,389.6,247.1,392.2,246.2z"/>
	<path d="M362.1,375.5c0.2,1.6,1.1,3.1,0.5,5.4C361.3,378.9,361.1,377.3,362.1,375.5z"/>
	<path d="M367.2,255.1c-0.7-1.6-1.2-2.6-0.4-4.3C367.7,252.2,367.9,253.3,367.2,255.1z"/>
	<path d="M361.9,373.6c-1-1-1-1.8-0.3-2.9C362.7,371.5,362.4,372.4,361.9,373.6z"/>
	<path d="M373.5,310.1c0.5-1.5,0.4-2.7,1.5-3.4C375.1,307.8,375.2,309.1,373.5,310.1z"/>
	<path d="M405.4,226.6c0.1,0.6-0.3,0.8-1.2,1.4C404.6,226.9,404.7,226.3,405.4,226.6z"/>
	<path d="M361.3,367.6c-0.4-0.6-0.5-1.2,0.3-2.4C361.6,366.5,362,367.1,361.3,367.6z"/>
	<path d="M488,295.9c0.2,1.8-0.8,3.1-1,4.7C486,298.3,486.1,297.9,488,295.9z"/>
	<path d="M480.7,298c0.8-0.1,1.4,0.2,1.8,0.9C481.4,299.6,481,298.9,480.7,298z"/>
	<path d="M490.4,289.4c0.4,0.9-0.2,1.1-0.8,1.6C489.5,290,489.5,289.4,490.4,289.4z"/>
	<path d="M513.7,409.2c-0.7-0.8-1.6-0.2-2.3-0.5c-0.2-0.2-0.5-0.5-0.8-0.7c-2.5-2.1-3.3-4.3-2.3-7c1-2.9,2.5-3.7,6.3-3.7
		c0.6,0,1.2-0.1,1.6-0.2c1,0.6,1.7,1.2,2,2.2c-0.4,2-0.3,2.6,1.1,4.6c-2.2,5.8-5.7,7.8-8.9,4.9c0.4-0.1,0.7-0.1,1.1-0.2
		C512,409.4,512.8,409.5,513.7,409.2z M509.3,403.3c0.1,1.7,1.4,3.4,2.9,3.9c1.3,0.4,2.5,0.1,3.3-1c1.2-1.5,1.6-3.3,0.8-5.1
		c-0.8-1.8-2.1-2.5-4-2l0.1-0.1C510.2,400,509.2,401.4,509.3,403.3z"/>
	<path d="M518.1,384.4c-1.4-0.4-2.8-0.7-4.1-1.2c-2.9-1.2-5.6-0.9-8.4,0.4c-7.1,3.5-10.4,9.5-11.6,17c-0.7,4.3,0.3,8.4,1.4,12.5
		l0.1-0.1c-0.9-0.2-1-1-1.3-1.6c-2.2-4.4-2.1-9-0.9-13.6c1.8-7.2,5.7-13,12.9-15.7C510.4,380.5,514.5,381.1,518.1,384.4L518.1,384.4
		z"/>
	<path d="M495.3,413.1c1.5,1.3,2.7,2.9,3.8,5.4C496.1,415.6,496.1,415.6,495.3,413.1L495.3,413.1z"/>
	<path d="M518,384.5c1.4,0,2.2,0.8,2.9,2.4C519.5,386.2,518.5,385.6,518,384.5L518,384.5z"/>
	<path d="M389.5,388.2c-0.3-0.1-0.7-0.3-1-0.4c-7.1-4-11.5-3.7-17.4,1.3c-7.3,6.1-9.8,19.3-4.7,27.5c0.4,0.7,1.3,1.2,1,2.2
		c-0.2-0.1-0.5-0.1-0.6-0.2c-0.3-0.4-0.6-0.8-0.9-1.2c-3-5-4.2-10.2-2.8-16.1c1.5-6.7,4.8-11.8,10.7-15.5c4.4-2.8,10.5-2.9,16,2.2
		L389.5,388.2z"/>
	<path d="M380.8,410.9c-0.3-0.2-0.7-0.4-1-0.6c-0.4-0.7-1-1.4-1.3-2.2c-1.1-2.6-0.4-5.7,1.7-7.3c1.8-1.5,5.4-1.3,7.8,0.4
		c-0.4,1.8-0.3,3.6,1.4,4.9c-0.2,2.4-1.7,3.9-3.5,5.2C384.2,411.2,382.5,411,380.8,410.9z M383.1,410c3.6-1.6,4.7-5.2,2.3-7.6
		c-1.2-1.2-2.5-1.9-4-0.3l0.1-0.1C378.1,404.9,378.7,407.9,383.1,410z"/>
	<path d="M389.7,388c1.8,0.7,3,2,3.8,3.7c-1.3-1.2-3-1.9-4-3.5L389.7,388z"/>
	<path fill="none" d="M383,412.8c-0.1-1.4-1.8-0.9-2.2-1.9c1.7,0.1,3.4,0.3,5.1,0.4C385.4,412.7,383.7,411.7,383,412.8z"/>
	<path d="M381,412.3c-1-0.3-1.7-0.8-1.2-2c0.3,0.2,0.7,0.4,1,0.6c0.4,1,2.1,0.5,2.2,1.9C382.3,412.6,381.6,412.5,381,412.3z"/>
	<path d="M370.8,422.4c-0.9-0.3-1.5-0.6-1.6-1.6C370,421.1,370.4,421.6,370.8,422.4z"/>
	<path d="M390,668.6c1.8-0.1,3.7,0.2,5.6,1.2c-4.9,2.5-8.2,2.4-11.3-0.6C386.1,667.2,388.1,668.7,390,668.6z"/>
	<path d="M360.3,666.3c2.5,2.5,2.4,5.1,1.9,8.5C360.6,671.8,360.4,669.3,360.3,666.3z"/>
	<path d="M492,378.8c-0.6-2.4-1-4,0-6.3C492.5,374.8,493.4,376.4,492,378.8z"/>
	<path d="M491.9,371.1c-1-0.9-1-1.7-0.4-2.8C492.7,369.1,492.3,369.9,491.9,371.1z"/>
	<path d="M491.1,365.3c-0.1-1.1-0.4-1.7,0.3-2.4C491.6,363.6,491.8,364.2,491.1,365.3z"/>
	<path d="M488.4,391.2c-0.1,0-0.2,0-0.3-0.1c-0.4-0.6-1.2-1.1-0.5-2.1c0.8,0.5,1.1,1.1,1.1,1.9C488.6,391,488.5,391.1,488.4,391.2z"
		/>
	<path d="M412.4,115.7c-0.8-0.1-1.7,0.1-2-1.3C411.3,114.7,412.1,114.8,412.4,115.7L412.4,115.7z"/>
	<path d="M752.9,509.3c0.4-1.1,0.9-2.4,0.7-3.8s0.1-2.6,2-2.8c0.8,1.8-0.8,3.1-0.5,4.9c3.4,8.3,3.4,8.3,1.9,11.3
		C755.5,515.8,753.8,512.8,752.9,509.3z"/>
	<path d="M759.9,545.8c-0.9-4-2.5-7.2-2.6-11.1C759.7,536.8,760.7,541,759.9,545.8z"/>
	<path d="M759.7,550.2c1.2,1.9,1.2,3.9,1.3,6.1C758.6,553.7,758.4,552.8,759.7,550.2z"/>
	<path d="M768.2,512.4c0.2-1.7-0.3-3.2-0.8-5.6C769.8,508.9,769.8,509,768.2,512.4z"/>
	<path d="M764,612.5c-1.1-1.8-0.3-3,0.3-5C764.7,609.7,764.6,610.9,764,612.5z"/>
	<path d="M759.8,562.9c0-0.3,0.3-0.6,0.8-0.5c0.4,0.8,0.5,1.7,0,2.6C759.9,564.5,759.8,563.7,759.8,562.9z"/>
	<path d="M764.3,620.4c-0.6-1.4-0.7-2.5,0.2-3.7C764.8,617.8,764.8,619,764.3,620.4z"/>
	<path d="M764.1,624.7c-0.5-0.6-0.5-1.2,0.2-1.7C764.8,623.6,765.1,624.2,764.1,624.7z"/>
	<path d="M685.4,507.3c0-2.5,0-2.5,1.1-4.3c1.8,1.9,0.7,4,0.3,5.8c-0.6,3.1-3.2,4.3-6.8,5.3C683,512,683.2,508.9,685.4,507.3z"/>
	<path d="M679.5,536.6c0.3-2.1,0.2-4.2,2.3-5.6C681.9,533.6,681.4,534.7,679.5,536.6z"/>
	<path d="M672.8,504.4c0.2,2-0.4,3.6-1.2,5.3C671.5,505.6,671.5,505.6,672.8,504.4z"/>
	<path d="M678.3,542c0.4,1.8-0.3,3.1-0.6,4.6C677,545.2,676.7,543.7,678.3,542z"/>
	<path d="M661.4,625.7c0.5,0.5,0.4,1,0,1.8C660.4,626.7,660.6,626.2,661.4,625.7z"/>
	<path d="M752.8,407.1c-0.3,4.1-1,4.6-6.3,4.7c-0.3-0.7-0.7-1.5-0.9-2.3c-0.5-1.9,0-3.3,1.4-4.1c1.5-0.8,3-0.9,4.4,0.2
		C752,406,752.4,406.6,752.8,407.1L752.8,407.1z M748.9,405.9c-1.5,0.4-2.1,1.3-1.7,2.9c0.5,0.5,1.2-0.3,1.6,0.2
		c0.5,0.4-0.2,1.2,0.7,1.7C751.9,408.1,751.9,407.6,748.9,405.9z"/>
	<path d="M765.1,407.2c-1.3,0.2-1,2-2.6,2.2c0.8-1.9-1-2.9-1.5-4.3c0.7-2.8,3-2.3,4.9-2.7c1.3,2,1,4.1,1.7,6.7
		C765.9,408.6,766,407.2,765.1,407.2z M765,405.5c0.4-0.6,0.2-1.1-0.1-1.6c-1.1-0.4-1.9-0.1-2.5,1.1
		C763.3,406.1,764.1,406,765,405.5z"/>
	<path d="M752.9,407.2c0.3-0.8,0.5-1.7,0.9-2.3c1.2-1.8,3.9-2,5.4-0.7c1.4,1.2,1.6,3.5,0.4,4.9c-1.3,1.6-3.9,1.7-5.4,0.1
		c-0.6-0.6-0.9-1.4-1.4-2.1L752.9,407.2z M757,409.2c2.5-2.1,2.5-2.8-0.2-4.8c-1.3,0.1-1.9,0.9-2.2,2.1
		C754.9,407.9,755.4,409,757,409.2z"/>
	<path d="M715.2,400.8c1.6,2.2,3.3,4.2,3.6,7C716.8,405.8,715.7,403.3,715.2,400.8z"/>
	<path d="M716.3,318.6c1,4.3,0.5,8.3-0.2,12.3C715.6,328.6,715.8,320.1,716.3,318.6z"/>
	<path d="M732.8,336.2c-1.7,0.4-3.3,1.2-4.9-0.9c0.8-0.7,1.6-1.4,2.6-2.2C732.6,334.1,732.6,334.1,732.8,336.2z"/>
	<path d="M748.9,335.2c-1.2-2.2-1.3-3.6,0-5.1C748.9,331.5,748.9,333,748.9,335.2z"/>
	<path d="M691.9,292.7c1.4,0.4,2.1,1.5,2.7,2.8C693.3,294.9,691.8,294.5,691.9,292.7L691.9,292.7z"/>
	<path d="M715.4,348.4c-0.3-0.9,0-1.5,0.4-2C716,347,716.2,347.7,715.4,348.4z"/>
	<path d="M747.7,349.2c0,0.9,0.1,1.9-1.2,2.4C746.8,350.6,746.8,349.7,747.7,349.2L747.7,349.2z"/>
	<path d="M747.8,349.3c-0.1-0.8-0.1-1.5,0.4-2.2C748.1,347.8,748.6,348.6,747.8,349.3L747.8,349.3z"/>
	<path d="M695.2,353.8c0.8,0.2,1.2,0.5,0.8,1.4C695.3,355.1,694.8,354.7,695.2,353.8z"/>
	<path d="M715,342.8c-0.1-0.2-0.2-0.4-0.2-0.6c0-0.3,0.1-0.7,0.2-1C715.2,341.6,715.6,342.2,715,342.8z"/>
	<path d="M663.4,282.2c-0.5-3.2-1.5-6.2-1.4-9.4C664.4,277.4,664.8,279.9,663.4,282.2z"/>
	<path d="M640.1,293.9c-0.7-1.7-0.5-3,0.1-4.3C640.6,291,640.9,292.3,640.1,293.9z"/>
	<path d="M675,251.5c0.4-1.1,1.5-1.6,2.2-2.4c3.5-3.8,3.6-8.6,0.2-12.5c-1.1-1.3-2.4-2.5-3.8-3.4c-8.2-5.2-17-7-26.5-5.1
		c-2.7,0.5-5.3,1.5-8,2.2l0,0c0.7-1.5,2.3-1.7,3.6-2.2c11-3.5,21.4-2,31.2,3.9c2.4,1.5,4.4,3.5,5.9,5.9c1.1,1.7,1.5,3.5,1.3,5.5
		c-0.4,3.9-2.7,6.4-5.9,8.3C675.1,251.7,675,251.6,675,251.5z"/>
	<path d="M650.2,244.4c2.5-1.7,4.5-3.9,7.7-3.6c3.6,0.3,5.5,1.5,6.8,4.9c-0.7,2.2-2.4,3.7-4.4,5
		C651.6,250.9,649.7,249.6,650.2,244.4z M663.3,245.5c-0.7-2.5-2.8-3.2-5-3.3c-2.4-0.2-4.6,0.2-5.9,3
		C655.4,249.8,660.7,249.9,663.3,245.5z"/>
	<path d="M639.1,230.3c-1.5,1.7-3.7,2.7-4.9,4.6c-0.1-0.1-0.2-0.2-0.3-0.3C635,232.4,636.5,230.6,639.1,230.3L639.1,230.3z"/>
	<path d="M675.2,251.7c-1.6,1.5-3.4,2.5-5.7,2.3c1.8-0.9,3.6-1.8,5.4-2.6C675,251.6,675.1,251.7,675.2,251.7z"/>
	<path d="M634.1,234.8c-0.7,1.3-1.3,2.5-2,3.8c-0.2-1.7,0.2-3.1,1.7-4.1C633.9,234.7,634,234.8,634.1,234.8z"/>
	<path d="M649,255c0.7,0.1,1.3,0.2,2.8,0.5C650.3,256,649.6,256,649,255z"/>
	<path d="M632.1,243.9c-0.3-0.4-0.3-0.9-0.1-1.3C632.6,243.4,632.6,243.4,632.1,243.9z"/>
	<path d="M671.3,668.5c4.2-0.4,7.8,0.1,12.2,1.1C677.5,672.4,674,672.1,671.3,668.5z"/>
	<path d="M649.3,674.8c-1.2-3-1.4-5.4-1.4-8C649.5,669,650.5,671.3,649.3,674.8z"/>
	<path d="M808.8,266.4c4.4,0.5,8.4-0.3,12.3-2.5c2.6-1.5,5.4-2.9,8.1-4.2c4.1-1.8,7.5-4.7,10.2-8.1c1.5-1.8,3.6-3.3,4.2-5.6
		c-0.2-1.3-1.5-1.4-1.7-2.6c1.1,0.5,2.1,0.9,2.7,2c0.2,1.1,0,2.1-0.7,3.1c-2.8,3.9-5.8,7.7-9.8,10.2c-4.8,3-9.7,5.9-15.2,7.8
		c-4.5,1.5-8.8,1.5-13.3,1.2c-1.4-0.1-2.7-0.4-2.9-2.2c0-0.3,0.2-0.7,0.3-1.1c0.4,0.6,0.7,1,1,1.6
		C805.6,266.1,807.2,266.2,808.8,266.4z"/>
	<path d="M817.4,257.4c0.6-4.6,5-5.6,8-8.1c1.2,0.5,2.2,0.9,3.2,1.3c0.6,1.4,1.1,2.7,1.6,4c-2.6,4.6-6,6.4-10.8,5.6
		C818.7,259.5,817.9,258.8,817.4,257.4z M818.8,257.8c1.7,2.1,3.5,0.5,5.2,0.3c0.7-0.6,0.3-1.6,1.1-1.9c0.7-0.6,1.3,0.7,1.9,0.2
		c0.9-0.9,1.5-1.7,1.4-2.9C824.9,251.4,820.3,253.5,818.8,257.8z"/>
	<path fill="none" d="M461,409.8c-0.9-0.3,0-1.4-0.8-1.7c-0.5-0.3-1.2,0.6-1.5-0.3c-0.2-1.3,0.2-2.1,1.7-2.7
		C463.5,406.8,463.6,407.7,461,409.8z"/>
	<path fill="none" d="M476.6,403.2c0.2,0.5,0.5,1,0,1.6c-0.9,0.5-1.7,0.6-2.5-0.5C474.5,403.2,475.3,402.7,476.6,403.2z"/>
	<path fill="none" d="M466.2,405.6c0.9-1.2,0.9-1.2,2.4-1.9c2.5,2.2,2.5,2.8-0.1,4.8C466.9,408.2,466.3,407.1,466.2,405.6z"/>
	<path fill="none" d="M511,401.4c0.8,0.3,1.1-0.6,1.7-0.7c0.8-0.3,1.2,1.1,2.2,0.6c-0.3-1.5-1.9-1.4-2.7-2.2c1.9-0.5,3.2,0.2,4,2
		s0.5,3.6-0.8,5.1c-0.8,1-2,1.4-3.3,1c-1.4-0.4-2.7-2.2-2.9-3.9c-0.1-1.9,0.8-3.3,3-4.3C512.1,399.9,510.8,400.2,511,401.4z"/>
	<path fill="none" d="M511.4,408.7c0.7,0.3,1.7-0.3,2.3,0.5C512.8,409.5,512,409.4,511.4,408.7L511.4,408.7z"/>
	<path fill="none" d="M381.6,403.2c0.8,0.5,1.7,0.2,2.6,0.2c0-0.2,0-0.4-0.1-0.6c-0.7-0.9-1.7-0.7-2.6-0.7c1.4-1.6,2.8-0.9,4,0.3
		c2.5,2.4,1.4,6-2.3,7.6c-4.5-2.1-5.1-5.1-1.6-8C381.6,402.4,381.6,402.7,381.6,403.2z"/>
	<path fill="none" d="M748.8,409c-0.5-0.6-1.1,0.3-1.6-0.2c-0.4-1.6,0.2-2.5,1.7-2.9c2.9,1.8,3,2.2,0.6,4.8
		C748.7,410.2,749.3,409.4,748.8,409z"/>
	<path fill="none" d="M764.9,403.9c0.3,0.5,0.5,1,0.1,1.6c-0.9,0.5-1.7,0.6-2.6-0.5C763,403.8,763.8,403.5,764.9,403.9z"/>
	<path fill="none" d="M756.9,404.4c2.6,2,2.7,2.7,0.2,4.8c-1.6-0.2-2.2-1.3-2.4-2.7C755,405.3,755.6,404.5,756.9,404.4z"/>
	<path fill="none" d="M658.3,242.2c2.2,0.2,4.3,0.9,5,3.3c-2.6,4.4-7.9,4.3-10.9-0.4C653.7,242.4,655.9,242,658.3,242.2z
		 M657.5,247.6c3,0.2,3,0.2,4.1-2.1c-2-2.5-2.7-2.6-6-0.7c1.3,1.2,3.5-0.8,4.5,1.3C659.5,247.6,658.2,247,657.5,247.6z"/>
	<path fill="none" d="M827.1,256.5c-0.6,0.4-1.2-0.8-1.9-0.2c-0.8,0.3-0.4,1.3-1.1,1.9c-1.7,0.2-3.5,1.8-5.2-0.3
		c1.4-4.3,6-6.4,9.6-4.3C828.6,254.7,828,255.6,827.1,256.5z"/>
	<path d="M512.2,399.1c0.8,0.8,2.4,0.7,2.7,2.2c-0.9,0.6-1.3-0.8-2.2-0.6c-0.6,0.1-1,1-1.7,0.7C510.8,400.2,512.1,399.9,512.2,399.1
		L512.2,399.1z"/>
	<path d="M381.4,402.1c0.9,0,1.9-0.3,2.6,0.7c0.1,0.1,0.1,0.4,0.1,0.6c-0.9,0.1-1.8,0.3-2.6-0.2c0-0.5,0-0.8,0-1.2L381.4,402.1z"/>
	<path d="M655.5,244.7c3.4-1.8,4-1.8,6,0.7c-1.1,2.3-1.1,2.3-4.1,2.1c0.7-0.6,2.1,0,2.6-1.6C659,243.9,656.8,245.9,655.5,244.7z"/>
</g>
</svg>
