<?xml version="1.0" encoding="utf-8"?>
<!-- Generator: Adobe Illustrator 19.1.0, SVG Export Plug-In . SVG Version: 6.00 Build 0)  -->
<svg version="1.2" baseProfile="tiny" id="Layer_2" xmlns="http://www.w3.org/2000/svg" xmlns:xlink="http://www.w3.org/1999/xlink"
	 x="0px" y="0px" width="900px" height="600px" viewBox="144 97 900 600" xml:space="preserve">
<g>
	<path d="M681.6,646.5c0.7,0,1.3-0.1,1.9-0.1c1.8-1.7,1.7-3.8,1.5-5.8c-0.1-0.7-0.5-1.2-0.4-2c1.3-7.2-0.8-14.2-1-21.4
		c0-0.9-0.2-1.8-0.5-2.7c-2.2-6.6-3.2-13.5-3.4-20.4c-0.2-5.4-0.7-10.8-0.3-16.3c0.3-3.7,1.2-7.2,2.4-10.6c3.2-9,6.8-17.8,9.6-26.9
		c2.4-7.8,3.2-15.8-0.2-23.7c-3.1-7.3-5-14.9-6.5-22.6c-1.3-6.9-2.3-13.9-1.8-21c0.4-5.4-0.5-10.7-1.7-15.9c-1.1-4.9-2-9.8-2.7-14.7
		c-0.9-6.6-0.9-13.3,1.6-19.8c1.3-3.5,2-7.2,2.9-10.9c1.7-6.5,4.1-12.6,7.7-18.4c3.1-5.1,5.9-10.4,7.9-16.2c2-5.7,2.7-11.6,3.5-17.5
		c0.1-1,0.2-2.1-0.2-3c-2.9-6.9-4.2-14.4-7.8-21.1c-0.9-1.6-1.4-3.3-2.9-4.5c-0.7-0.6-1.1-1.7-1.5-2.6c-3.3-8.3-6.3-16.6-6.9-25.6
		c-0.2-3.5-1.3-6.9-2.7-10.2c-1-2.2-1.9-4.4-2.9-6.5c-3.3-7.2-3.9-14.4-0.4-21.7c2.9-6,3.9-12.5,4.3-19.1c0.1-2.5,0.6-5,1.4-7.3
		c0.6-1.7,0.5-3.3-0.2-4.9c-0.6-1.4-1-3-1.5-4.5c-1.3-4.1-0.8-7.9,1.6-11.4c1-1.4,1.7-3,2.3-4.6c1-2.6,2.4-4.9,5.1-6
		c1-3,1.4-5.9,1-9c-0.6-5.5,1-10.8,2.3-16.1c2.5-11,6.4-21.5,10.1-32.1c0.6-1.7,0.9-3.5,1.5-5.2c1.2-3,0.4-5.5-1.2-8
		c-1.6-2.5-3.4-4.9-4.5-7.6c-2.3-1-2.3-1-5.4-0.6c-0.4,1.4-0.7,3-1.3,4.4c-1.1,2.9-2.6,3.8-5.7,3.8c-1.8,0-3.6,0-5.5,0.1
		c-3.4,0.1-5.9-1.5-7.5-4.4c-1.2-2.2-1.9-4.6-1.9-7.2c0-3.3,0-6.6,0.7-9.8c0.4-1.8,0.9-3.5,2.4-5c2.3-1,4.8-0.4,7.3-0.7
		c2.3-0.3,4.8-0.4,7.2,0c2.7,1.5,2.7,4.6,3.9,6.9c0.8-0.6,0.2-1.6,0.8-2.2c0.7-0.7,1.6-0.8,2.5-0.9c1.5-0.2,2.9-0.4,4.4-0.7
		c1.7-0.4,3.4-0.4,5,0.1c1,0.3,2,0.4,3,0c2.1-0.8,4-0.2,5.6,0.3c1.1,0.8,0.5,2,1.4,2.7c1,0.3,2.2,0.2,3.5-0.3
		c0.5-1.6,0.9-3.3,1.4-4.9c0.7-2.2,2.1-3.3,4.6-3.2c3.9,0.2,7.7-0.5,11.6-0.1c2.8,1.8,2.8,5,4,7.7c4.4,0.4,8.7-0.7,13.1-0.1
		c2.9,1.9,2.9,5.4,4,8.3c1.2,0.6,2.3,0.1,3.3-0.1c2-1.4,3.2-3.8,6.4-4.2c-1.2,2.4-3.3,3.3-4.9,4.8c0.5,1,1.1,2.1,0.9,3.9
		c2.2-1.7,1.2-4.1,2.8-5.4c1.4-1.2,2.7-2.7,3.9-3.9c1.2-0.3,1.5,0.8,2.4,1c2.6-1.8,5.6,0.1,8.2-0.4c1.3,0.4,1.9,1.5,3,2.4
		c0.9-1.4,0.9-2.7,1.2-4c1.1-3.7,2-4.4,5.8-4.4c3.6,0,7.3-0.5,10.9-0.1c1.8,1.1,2.5,3,3,4.8c1.5,5.6,1.6,11.2,0.3,16.9
		c-1,4.1-2.4,5-6.7,5.2c-3.1,0.1-6.1,0.3-9.1,0.4c-2-0.9-2.7-2.8-3.8-4.5c-1.8,2.1-1.7,4.8-2.4,7.3c-1.4-0.5-1.5-1.3-1.2-2.2
		c1-2.3,1.1-4.9,2.5-7c0.4-0.6,0.5-1.3,0.1-1.9c-2.2-0.8-6.1-0.7-9.8,0.2c-2-1-4.1-0.9-6-0.6c-0.8,1.1,0.5,1.9-0.2,3.2
		c-1.9-3.8-5.6-4.6-8.6-6.7c-0.2-1.2,2.4-0.6,1.5-2.5c-1.1-0.6-2.2,0.1-3.5,0.5c-0.3,3.1,1.2,6,0.5,9.2c4.2,3,9.5,4.6,12.5,9.9
		c1.6,13.4,0.3,27.1-4.1,41c0.9,1.6,0.3,3.6-0.2,5.5c-1.6,7-2.4,14.1-1.6,21.3c0.1,0.7,0,1.4-0.1,2c0,0.2-0.3,0.3-0.5,0.6
		c-0.9-0.3-1-1.1-1.1-1.8c-0.2-1.5-0.7-2.9-0.7-4.4c0-7.1-1-14.5,1.5-21.3c3.5-9.5,4.4-19.2,4.9-29.1c0.2-3.5,0.2-7,0.5-10.6
		c0.2-3.5-1.6-5.8-4.3-7.5c-2.4-1.5-4.9-2.7-7.4-4c-0.9,0.6-0.9,1.6-1.3,2.4c-1.1,2-2.6,3-5,2.9c-1.6-0.1-3.2,0-4.8,0
		c-4.8,0.1-7.3-1.4-9.3-5.8c-0.2-0.5-0.4-1-0.7-1.6c-4.2-0.8-8.4,0-12.2,0.1c-3.3-1.9-3.7-5.1-4.6-7.9c-0.7-0.3-1.3-0.3-1.8,0.1
		c-0.7,1,0.7,2.2-0.5,3.2c2.8,1.8,2.3,4.3,1.7,6.7c-1.6,6.5-3.7,12.9-4.1,19.6c-0.1,1.5-0.4,2.9-0.3,4.4c0.3,8.2-1.1,16.3-2.4,24.4
		c-0.8,4.7-1.2,9.4-3,14.2c2.8-0.7,5.3-1.3,7.9-1.6c5.8-0.6,11.3,0.1,16.8,1.8c1.4,0.4,2.9,0.7,4.2,1.1c3.7,1.3,6.9,3.5,8.7,7.2
		c1.6,3.5,3.3,7,4.7,10.6c1.3,3.2,1.4,6.4-1.1,9.1c0.1,1.1,1,0.3,1.3,0.8c0.3,1.2-1.4,0.7-1.3,1.7c0.5,2.7,1.7,5,4,7.6
		c2.6-7.6,4.9-14.8,9.2-21.1c0.8,0.1,0.7,0.8,0.5,1.5c-0.1,0.3-0.2,0.7-0.4,0.9c-4.7,8.4-6.9,17.7-10.4,26.6
		c-0.5,1.3-0.9,2.6-2.9,2.9c1.1,1.8,1.4,3.4,0,4.6c1.7,5.6,0.9,6.6-6.4,8.6c-2.3,3.2-5.7,5.7-7.6,9.3c-0.2,0.3,0.1,0.9,0.1,0.9
		c4.6,4,8.5,8.2,13.2,11.9c0.9-1.9,0.4-4,1.3-6.3c1.1,2.9,1,5.3,0.1,7.9c1.1,1,2.2,1.9,3.5,3c1.7-3.3,4.5-6,5.9-9.6
		c0.5-1.3,1.1-2.5,1.8-3.7c7.4-13.5,10.6-28.2,13.5-43.1c0.7-3.7,1.6-7.3,3.1-11c0.8,1,0.5,1.9,0.4,2.7c-1.4,11.4-3.8,22.6-7.6,33.5
		c-2.7,7.9-5.8,15.5-10,22.7c-1,1.8-1.9,3.6-3.3,5.2c-1.4,1.6-2.1,3.5-2.6,5.6c1.5,3.2,4.3,5.1,7.2,6.9c5,3.1,8.7,7.6,12.6,11.9
		c1.4,1.5,2.1,3.5,2.5,5.5c0.7,3.4,0.6,6.8,0.4,10.2c-0.1,3.1-2.1,5.5-4.1,7.7c-2.3,2.5-3.4,5.6-5,8.4c-1.8,3.2-1.4,6.9-1.5,10.3
		c-0.3,6.3-2.4,12-5.2,17.5c-1.1,2.1-1.8,4.1-1.9,6.4c-0.1,1.7-0.1,3.4-0.1,5.1c0.1,5.5,0.1,10.9-1.3,16.3c-0.8,3.2-0.6,6.5-0.4,9.7
		c0.2,3.3-0.1,6.7,1.3,10c0.7,1.6,0.7,3.6,0.6,5.4c-0.1,3.4,0.7,6.5,1.6,9.7c0.9,2.8,1.5,5.7,1.9,8.7c0.8,6.3,1.7,12.6,2.8,18.8
		c2.2,12.1,1.6,24.2,0,36.3c-0.6,4.3-1.3,8.5-2.3,12.7c-0.8,3.3-1,6.7-1.4,10.1c-0.2,2-0.7,4-1.5,6.2c1.2,0.9,1,2.2,0.9,3.6
		c-0.2,3.6-0.6,7.2-1.3,10.8c-0.2,1-0.4,2-0.2,3c0.5,2.6-0.8,4.5-2.5,6.8c-0.6-2.8,1.4-4.6,1.7-7c-0.6-1.1-0.6-2.5-0.5-4
		c0.3-4.8,0.9-9.6,0.4-14.4c-0.3-3.2,0.4-6.4,1.1-9.5c1.9-8.4,3.4-17,4.1-25.6c0.8-8.9,1.1-17.9-0.7-26.8c-0.2-1.1-0.2-2.3-0.3-3.4
		c-0.1-0.8,0-1.6-0.2-2.4c-0.1-0.7-0.1-1.4-0.4-1.7c-11.7,2.4-23,5.6-34.7,7.2c-0.1,0.3-0.3,0.6-0.2,0.9c0.3,8.1,0.2,16.1,0.3,24.2
		c0.1,6.7,0,13.4-0.8,20.1c-0.2,1.7,0,3.4,0.4,5.1c2.6,9.1,3.8,18.5,4.9,27.8c0.4,3,2.2,7.9,3.9,9.8c0.1,1.6,0.4,3.2,0,5.2
		c-2.1-1.4-1-3.8-2.1-5.5c-1.1,0-1.5,0.8-1.8,1.6c-4.2,11.1-7,22.5-7.8,34.4c-0.3,4.6,0.2,9,1.3,13.5c1.1,4.6,1.1,9.2,1,13.9
		c-0.2,9.7-1.6,19.2-3.1,28.8c-0.2,1.1-1.1,1.7-1.2,3c0.7,1.7,2.2,2.9,4.1,4c4.8-3.3,11.2-4.5,13.5-11.9c0-5.5,1.8-11.7,3.2-17.8
		c0.8-3.7,1.7-7.3,2.6-10.9c0.4-1.8,0.5-3.6,1.8-5.1c0.2-0.2,0.3-0.6,0.3-1c0.4-5.7,3.2-10.8,4.5-16.3c1.2-5,1.9-10.2,2-15.5
		c0.2-6.8,0.1-13.6,2-20.2c1,0.2,1.1,0.8,1,1.6c-0.9,7.1-0.6,14.3-0.9,21.4c-0.2,4.4-0.5,8.9-1.8,13.1c-1,3.5-2,7-3.5,10.3
		c-0.4,0.8-0.7,1.7-0.9,2.6c-2.3,11.4-4.5,22.7-6.8,34.1c-0.1,0.4-0.1,0.9-0.1,1.6c2.5,0.7,3.6,2.8,4.3,5.2c0.4,1.2,1.2,2.1,2.1,3
		c2.5,2.5,4.9,5,7.3,7.6c0.8,0.8,1.4,1.8,2.2,2.9c3.1,1.1,6.4,2.3,9.7,3.6c0.9,0.3,1.8,0.4,2.7,0.3c3-0.3,5.9,0.6,8.8,1
		c3.6,0.5,5.1,2.9,4.8,6.6c-0.1,0.9-0.3,1.8-0.2,2.7c0,0.7,0.4,1.5,0.7,2.3c-2.8,2.9-5.9,4.7-9.6,6.2c-8.5,3.4-16.9,2.1-25.5,0.7
		c-2.6-0.4-5.1-1.7-8-1.2c-0.9,0.2-1.9-0.7-2.3-1.7c0.3-0.9,1-0.7,1.7-0.8c2.6-0.2,5.3,0.1,7.8,0.7c3.3,0.9,6.7,1,10.1,0.6
		c2.8-0.3,5.7-0.4,8.5-0.1c4.8,0.6,9-0.8,12.8-3.6c1-0.7,2-1.5,3-2.2c-0.6-2.5-1.2-4.9-1.9-7.4c-3.2-1.1-6.4-1.5-9.7-1.6
		c-2.2,0-4.2-0.5-6.3-1.3c-2.8-1.1-5.5-2.8-8.5-2.2c-1.2-0.3-1-1.4-1.5-1.8c-2-0.1-3.9,2.2-5.7,0.1c0.3-2.1,2.3-1.6,3.4-2.4
		c0.3-1-0.7-1-0.8-1.5c-2.5-0.3-4.9,2.1-7.2-0.2c0.9-2.4,3.1-1.5,4.7-2c0.1-1.2-0.9-1.7-1.6-2.4c-2.2,0.9-4.2,1.8-6.3,2.7
		c-1.5-2.6-1-3.1,4.9-4.6c-2-1.7-3.1-3.9-4.3-6.5c-2.1,1.9-4.5,3.2-4.8,6.4c-3.4,2.1-6.8,4.2-10.3,6.3c-1.7,1-3.3,0.8-4.7-0.4
		c-2-1.7-3.9-3.6-3.6-6.9c-1.4,0.7-2,1.8-2.1,2.7c-0.5,3-2.5,5-4.8,7.3c2.7,1.2,3.8,3.3,5,5.5c0.2,0.4,0.4,0.9,0.7,1.2
		c3.5,3.3,6.5,7.3,11.2,9.2c1.2,0.5,2.4,0.7,3.6,0.9c1.6,0.3,3.2,0.4,4.5,1.2c2.5,7-0.7,12.4-7.8,13.5c-3.3,0.5-6.5,1.1-9.7,1.9
		c-6.1,1.5-12.2,0.7-18.3,0.1c-0.8-0.1-1.6-0.4-2.3-0.4c-4.3-0.3-8.4-1-11.2-4.3c-8.9,0.5-11.2,0.3-21.7-3.8
		c1.8-3.7,1.2-7.9,2.9-11.7c1.8-4.1,2.9-8.6,4.4-12.9c0.7-1.9,0.6-4,1.5-5.9c0.7-1.5,1.7-2.7,3.2-3.4c0.8-0.4,1.3,0,1.7,0.6
		C683.6,645.4,681.8,645.3,681.6,646.5c-1.3,1.6-1.9,3.3-1.6,5.3c0.3,2.4-0.5,4.6-1.8,6.4c-1.1,1.6-1.6,3.2-2,4.9
		c-0.3,1.2-0.5,2.5-1,3.6c-1.2,3.1-1.4,6.4-2.1,9.5c5.2,2.2,10.3,3.3,15.6,2.7c0.3-0.9-1.2-0.9-0.7-1.8c1.9-1,3.2,0.1,4.5,1.3
		c1.9,1.6,3.6,3.8,6.1,4.1c3.8,0.4,7.6,1.4,11.4,1.7c6.4,0.5,12.7-0.6,19-1.6c3.9-0.6,7.4-2.1,10.2-5.1c0.9-0.9,1.8-1.8,0.8-3.3
		c-2.1,1.3-4.5,2-6.7,3.3c-2.1,1.2-3.5,3.5-6.2,3.7c2.2-1.5,3.6-3.7,5.5-5.4c2.1-1.8,5-2.1,7.5-3.5c-1.4-1.7-3.4-1.4-5-1.7
		c-2.4-0.5-4.6-0.9-6.6-2.5c-1.8-1.5-3.9-2.6-5.9-3.9c-6.2,2.5-7.8,2.6-9.8,0.7c2.4-2,5.5-1.6,8.4-2.3c-0.5-1.6-1.5-2.6-2.4-3.6
		c-10,2.7-10,2.7-11.7,1.7c0.8-2.6,3.8-2.1,5.5-3.8c-3.2-0.1-5.8,2.1-9.3,1c2.5-3.9,6.8-3.1,9.9-4.8c-2.4-1.5-2.4-1.6-4.7-0.8
		c-2.6,0.9-5.2,1.9-7.8,2.9c-0.1-0.3-0.3-0.5-0.4-0.8c1.9-3.3,6.1-3.1,9-5.1c-1-1.5-2.3-2.7-2.9-4.4c-0.5-1.6-0.6-3.4-2.2-4.5
		c-3.1,0.7-5.3,2.6-7.3,4.8c-2.8,3.1-5.5,6.2-8.8,8.9c-1,0.9-1.9,2-3.4,2.2c-0.7-0.1-1.6-0.5-1.6-1.1
		C683.1,652.4,681.1,649.7,681.6,646.5z M711.7,217.5c-0.9-0.8-1.9-1.6-3.2-1.2C709.5,217,710.4,217.8,711.7,217.5
		c0.2,0.3,0.4,0.7,0.6,1.1c-1.5,0.5-2.9-1.4-4.4-0.1c-0.1,0.9,0.5,1.2,1.1,1.5c0.9,0.4,2,0.2,2.8,0.9c-0.5,0-1.1-0.2-1.5,0.3
		c0.3,0.7,1.5,0.6,1.5,1.8c-1.3-0.5-2.5-0.9-4-1.5c-0.2,0.9-0.9,1.6-0.1,2.8c2.5,0.8,5.2,1.4,8.2,1.7c2.8-1.7,6.6-1.1,9.3-3.6
		c-4.8,2.1-9.2,0.5-13.4-1.5c3-0.1,6.2,0.7,9.2-1.1C717.8,218.6,714.6,218.6,711.7,217.5z M708.4,242.6c-1.3,1.8-2.4-1-3.9,0
		c1.7,1.3,3.4,2.3,5.7,2.2C709.7,243.7,709.1,243.1,708.4,242.6c-0.4-2.3-3-3.4-3-6.2c0.7-1,0.7-2.5,0.8-3.9c0.3-3.5,3-5.4,6.3-4.7
		c0.7,0.1,1.3,0.5,1.6-0.5c-2.2-1-4.6-0.8-7.1-1.7c-0.8,5.1-3,9.8-2.5,15c0.5,0.4,1,0.7,1.5,1C706.8,241.9,707.6,242.2,708.4,242.6z
		 M756.7,132.9c0.2-0.4,0.7-0.8,0.6-1.2c-0.4-2.4-0.3-4.9-1.4-7.1c-0.9-0.3-1.5,1.1-2.3,0.1c0-2,2.1-1.7,3.1-2.5
		c-0.7-4.2-1.2-5.2-3.4-6.5c-4.6,4.9-4,19.6,0.8,23.8C756.4,137.8,756.8,136.7,756.7,132.9L756.7,132.9z M711.7,248.2
		c0-1.1-0.5-1.8-1.5-1.8c-2-0.1-3.8-0.9-6.1-2.3c1,2,1.3,3.5,2.5,4.7c0.3-0.5,0.5-0.8,0.7-1.2C708.7,248.2,710.2,248.3,711.7,248.2
		c-0.2,1.9-2,2.5-3.3,3.5c0.6,5,0.7,10-0.9,14.7c-0.6,1.1-2.3,0.5-2.8,1.9c1.1,1.3,2,2.9,3.6,3.8c4.4,5.2,7.6,10.9,8.7,17.7
		c1.3,8.1,0.9,15.9-3.3,23.1c-1.4,2.4-3,4.9-4.7,7.1c-3.8,5-7.9,9.7-15.1,10.3c3.7,6.8,6,13.8,8.5,20.7c4.6-2.6,16.1-7.7,22.9-8.8
		c1.5-0.2,2.9-0.8,4.4-0.6c2.5,0.3,5-0.1,7.5-0.4c4.8-0.5,9.7-1.2,14.6-1.5c5.4-0.4,10.6,0.4,15.5,2.6c0.8-0.4,0.9-1.1,1.2-1.7
		c1.2-2.4,2-5.3,3.9-7c8.1-7.5,6.3-20.8-1.6-27.1c-4.4-3.5-8.9-7.1-12.9-11.1c-0.4,1.1-0.2,2.5-1.4,3.1c-2.7,1.4-5.7,2.9-8.7,1.8
		c-3.9-1.4-7.9-2.8-11.1-5.8c-3.6-3.3-7.3-6.5-11-9.7c-5.4-4.7-11.1-9-17.1-12.8c0.3-0.8-1.4-1.6,0.2-2.4c0.7,0.5,1.4,1,2.1,1.5
		c7.7,4.7,14.9,10,21.5,16.2c5,4.7,10.7,8.3,17,11.4c0.5-0.7,1.7-0.3,2.1-1.3c-0.1-1.5-1.4-2.6-1.7-4.3c2.3,1.2,2.7,3.4,4.2,4.9
		c0.5-0.1,1-0.1,1.4-0.3c0.3-0.1,0.4-0.5,0.6-0.7c-0.4-1.2-1.3-1.9-2-2.8c-4.9-6-10.3-11.5-14.7-17.9c-0.7-1.1-1.9-1.5-2.8-2.1
		c-1.2-4.6-2.6-9.1-1.4-13.5c2-2.2,4.5-1.8,6.4-1.4c3,0.7,5.6-0.1,8-0.7c2.3-2.1,0.8-3.9,0.2-5.5c0.3-1.3,1.7-1.6,1.6-2.5
		c-1.3-3.1-4.7-0.1-6.3-2.5c1.1-0.9,2.2-0.3,3.3-0.4c1.2-0.1,2.5,0,3.4-1.6c-0.6-1.1-1.3-2.4-1-3.4c-0.6-1-1.6,0-1.9-1.1
		c0.7-0.9,1.4-1.8,2.8-1.1c1.3,0.6,2.1-0.1,2.8-1.1c-2.4-4-5.5-7.7-4.6-12.6c0.8-1.3,2.4-1.5,2.6-3.4c-1.6-2.9-2.3-6.5-3.4-9.9
		c-0.5-1.7-1.2-3.2-3.1-3.6c-1.4,1-3.3,0.3-4.3,1.3c-3-1.1-5-3.7-8.1-4c-4-2.3-8.2-3.5-12.8-3.4c-2,0-4,0.2-5.7-0.3
		c-0.6-0.9,0.3-1.3,0.1-1.8c-2.6-1.8-4.2,1.5-6.6,1.2c-0.1-0.5-0.2-0.8-0.2-1.1c0.9-5.8,1.9-11.7,2.9-17.5c0.7-3.9,1.8-7.8,1.7-11.8
		c-0.2-6.6,0.3-13.2,1.4-19.7c0.5-3.1,0.9-6.4,2-9.3c0.8-2.2,1.7-4.4,2.5-6.6c0.5-1.6,0.9-3.4-0.1-4.6c-2.5-3.3-3.9-7.5-7.8-9.4
		c-0.9-2.7-1.4-5.2,0.5-7.5c1.2,0,2.3,1.1,3.7,0c-2.3-2.1-4.6-2-7.2-0.9c-0.8,1.9-0.2,4.4-2.8,5.6c-0.3-1.2,0.4-2.1,0.4-3.1
		c0.1-1,1-2-0.3-3.2c-0.8,2.7-1.4,5.1-2.2,7.9c-2.6-3,0.1-5.2,0.3-7.8c-1.1,0.4-2.1,0.5-3,1.4c-0.2,1.5-0.4,3.2-0.5,4.5
		c-0.5,1-1.2,0.7-1.6,1.1c-0.6,2.3-0.1,3.9,1.5,5.8c3,3.5,6.4,6.8,7.9,11.3c0.8,0.1,1.3-1.1,2.2-0.3c-0.5,0.7-1.3,1.2-1.3,2.2
		c-0.4,6.3-2.5,12.3-5.1,17.9c-2.7,5.9-4.8,11.9-6.1,18.3c-1.8,8.9-4.3,17.7-4.1,26.9c0,0.9,0,1.8,0,2.7c-0.3,0-0.7,0.1-1.2,0.1
		c0.4,1.6,0.1,3.1-0.3,4.6c-1.1,4.3-1.6,8.7-2.6,13c-0.6,3-0.7,6-1.7,9c-2.5,7.2-3.5,14.7-5.2,22.1c-0.1,0.4-0.2,1-0.1,1.3
		c0.6,1.3,0,2.5-0.5,3.6c-1.2,2.6-1.5,5.4-2,8.2c-1.4,8.4-0.3,16.5,3.1,24.3c1.8,4,2.8,8.2,3.1,12.5c0.1,0.9-0.1,2.1,0.4,2.6
		c1.6,1.9,1.5,4.2,2.1,6.3c1.3,5,2.6,10.1,5.1,14.7c3.1,0,5.9-0.7,8-2.8c6.9-6.6,12.7-14,13.8-24c1.1-10.8-1-20.5-9-28.4
		c-1.3-1.3-2.5-2.7-3.4-4.2c-1.3-2.2-2.9-4.4-3-7.1c-0.3-5,0.8-9.9,1.3-14.7c0.8-7.5,2.5-15,3.6-22.5c0.8-5.4,1.3-10.8,2-16.2
		c0.1-1,0.2-2,1.3-2.6c0.7,0.9,1.2,2.1,2.5,2.2c4.4,0.5,8.6,3.1,13.3,1.9c0.6-0.1,1.3,0.2,2,0.3s1.5,0.5,2.1-0.2
		c-0.6-0.6-0.7-0.7-1-1.6c-0.7-0.1-1.4-0.1-2-0.6c-2.8,0.2-5.3-0.9-8-1.2c-2.6-0.3-5.5,0.2-8.1-1.3c0.4-0.5,0.5-0.8,0.7-0.9
		c0.2-0.1,0.4-0.2,0.6-0.1c5.1,0.6,10.1,2.3,15.3,2c2.7-0.1,5.2,0.8,7.8,1.5c1.2,1.2,3.2,1.3,4.1,2.8c-0.2,0.6-0.7,0.9-1.2,1.1
		c-2.6-1-5.2-1-7.3,0.4c-1.5,0.4-2.6-0.9-3.9,0.4c2.4,0.9,4.7,0.9,6.8,0.3c0.8,4.7-2.2,8.2-3.4,12.5c-1.4,0.9-3,2.4-4.8,3.6
		c-1.8,1.3-3.3,2.9-6,2.9c1.6,0.8,2.9,0.4,4.5-0.1c-2,2.4-2.9,2.7-4.8,1.7c-1-0.5-1.9-1.2-2.5-2.2c-0.7-1.1-1.6-1.9-2.9-2
		c-3.2,1.9-4.1,3.4-3.6,6.5c1.1-1.8,1-4,3.2-4.9c1.4,0.8,2.6,1.7,3.7,2.9c1.3,1.4,0.4,2.9,0.1,4.3c0.8,0.8,2.1,0.9,2.3,2.3
		c-0.5,0.7-0.8,1.7-2.1,2.1c-0.6-1.6-1.3-3.1-1.8-4.4c0.1-1,1.2-1.4,1-2.2c-0.2-0.5-0.3-0.9-0.9-1.2c-0.6,0.8-1.3,1.7-1.7,2.1
		c-0.9,2.7,2.4,3.9,1.4,6.2c-1.1,0.3-1.7-0.3-2.2-0.9c-1.1-1.1-1.3-2.5-1.3-4.3c-0.9,0.6-1.5-0.4-2.4,0.4c1.5,3.1,4,5.6,5.8,8.5
		c0.5,0.8,1.2,1.3,2,1.5c1,0.1,1.2-1.4,2.3-1.1c-0.3,2.4-0.3,2.4-3.7,3C712.6,249.1,712.5,248.2,711.7,248.2z M722,347
		c-6.4,1.3-12.7,3.2-18.4,6.1c0.1,2.2,1.6,3.3,2.4,4.5c0.3,5.9-1.3,13.1-4,18.6c-2.8,5.7-5.7,11.4-8.5,17.1
		c-0.4,0.8-1.2,1.5-0.6,2.6c7.4,0.7,14.6,3,22.1,4.5c0.1-1.8-0.9-3-0.2-4.5c1.4,1.4,1.2,3.4,2.1,5.1c5,1.4,10,2.9,15,4.3
		c1.6,0.4,3,0.9,3.6,2.6c6.9,0.2,13.7,0.6,20.3,0.3c1-1.7,1.2-3.3,1.5-4.9c1.4-7.2,1.4-14.5,1.2-21.7s1.1-13.7,5.2-19.6
		c1.2-1.7,1.9-3.6,2.2-5.7c0.5-3.6,1.1-7.2,1.6-10.7c-3-2.2-7.3-0.8-9.9-3.9c-8.5,0.3-16.9,1.3-25.2,2.4
		C728.8,344.7,725.2,345.5,722,347L722,347z M727,452.6c-4.1-2.5-8.5-3.4-13.1-3.8c-6.3-0.5-12.4,0.2-18.6,1.1
		c-4,0.6-8,1.5-11.7,3.2c0.6,4.8,1.2,9.4,1.9,14c0.3,2.4,0.9,4.7,0.6,7.1c-0.9,6.8,0.1,13.4,1.7,19.9c2.2,9,4.5,18.1,6.7,27.1
		c0.8,3.4,1.1,7,0.7,10.5c-0.8,7.6-3.7,14.7-5.5,22c-1,4.3-2.7,8.4-4.2,12.6c-3.8,10.1-3.7,20.4-2.9,30.9c0.4,4.6,1.5,8.9,2.3,13.4
		c1.6,9.1,2.3,18.3,2.5,27.5c0.1,3.9,0.1,8-2.2,11.4c0.3,0.9,0.1,1.8,0.8,2.4c0.9-0.5,1.6-1.2,2.2-2.1c0.4-0.6-0.8-1.2-0.1-1.9
		c1-0.4,1.5,1.1,2.5,0.8c3.4-3.6,6.1-8.1,11.4-10.2c-1.1-2.3-0.5-4.6-0.7-6.9c-0.2-2.5,1-4.6,1-7c0.1-3.3,0.2-6.6,0.7-9.9
		c1-8.2,1.5-16.5,3-24.6c0.1-0.7,0.1-1.4,0.1-2c-0.2-1.9,0.2-3.6,0.7-5.4c2.3-8.7,5.5-17.1,7.5-25.8c0.2-0.8,0.4-1.6,1-2.1
		c1.6-1.4,2.1-3.3,2.1-5.2c0-2.8,1.1-5.1,2.4-7.3c0.9-1.6,2-3.2,2.1-5c0.2-4,1.3-7.8,1.8-11.7c-0.4-0.6-1.3-0.6-1.2-1.5
		c4-11.1,5.3-22.5,4.9-34.2c-0.3-9.3-0.2-18.6-0.1-28C727.4,458.9,727.5,455.7,727,452.6z M756,410.5c-4.8,0-9.5-0.1-14.3,0
		c-4.4,0.1-8.6-0.6-12.6-2.4c-9.9-4.4-20.5-6.5-31-9c-2.1-0.5-4.2-1-6.5-0.7c-0.9,3.4-2.7,6.4-3.8,9.7c-1.6,5.1-3.2,10.2-4.5,15.3
		c-0.8,3.1-2.1,6.1-2,9.3c0.2,5.8,1.1,11.5,2.1,17.1c1.3,0.1,2.1-0.5,3.1-0.7c2.5-0.4,4.6-2.1,7-2.7c7.1-1.9,14.2-0.5,21.3-0.1
		c4.1,0.2,7.9,1.7,11.5,3.1c2.1-0.9,1-3.6,3-4.5c0.4,3,0.4,3-0.7,5.3c0.4,2.9,0.9,5.7,1.3,8.4c0.7,0.4,1.2,0.2,1.8,0.1
		c6.4-1.5,12.8-3.1,19.2-4.4c4.6-1,9.1-2.2,13.9-2c-0.9-8.8-4.9-16.8-6.8-25.2c1.9-2,1.5-4,0.8-5.8c-0.8-0.8-1.8,0-2.2-0.9
		c3.1-1.6,3.2-3,0.3-6.3C756.3,412.9,757.1,411.4,756,410.5z M728.3,512.2c-0.6,1.8-1.7,3.7-1.6,5.5c0.1,4.7-0.9,9.3-1.7,13.8
		c-0.8,4.8-1.7,9.6-4.4,13.8c-1,1.5-1.4,3.3-1.7,5.1c-0.3,1.5-0.2,3.1-0.8,4.6c-4.5,11.3-6.9,23.2-9.3,35.1c-2.3,11-2.9,22.3-4,33.5
		c-0.4,4.6-1.1,9.2-1.6,13.8c0,0.2,0.1,0.4,0.1,0.7c0.9,0.4,2-0.1,3.2,0.9c1.2,1.2,1.9,3.2,2.5,5.1c1,3,2.4,5.5,5.3,7.1
		c1.6-2.5,3.7-4.3,4.5-7.3c0.5-1.8,1.9-3.6,3.6-4.8c0.8-0.4,1.2,0.7,2,0.2c1.2-7.2,2-14.6,2.2-21.9c0-1.9-0.8-3.8-0.4-5.7
		c0.6-3.2-0.7-6.5,0.4-9.8c0.2-0.6-0.2-1.3-0.4-2c-1.2-5.3-1.9-10.7-1.6-16.2c0.3-6.8,1.2-13.5,3.5-20c2-5.8,4.1-11.5,6.5-17.1
		c-0.2-0.4-0.3-0.7-0.5-1c-2.2-3.2-3.5-6.7-2.3-10.6c0.2-0.7-0.1-1.3-0.2-2c-0.9-3.9-1.3-7.8-1.3-11.8
		C730.2,518.2,729.4,515.2,728.3,512.2z M799.3,137.5c-3.3-7.8-3.2-15.7-1-23.6c-3.4-0.5-6.6,0.9-9.8,0c-4.3,5.5-3.9,18.9,0.5,23.6
		C792.5,137.5,795.9,137.5,799.3,137.5z M687.1,134.3c-3.4-7.9-3.5-15.7-0.8-23.8c-3.5-0.1-6.9,0.9-10.1,0.3c-1,0.9-1.3,1.7-1.6,2.6
		c-1.6,5.3-1.5,10.7-0.3,16.1c0.1,0.5,0.4,1.1,0.7,1.6c1.4,2.6,3.4,4.2,6.5,3.8C683.2,134.7,685,134.9,687.1,134.3z M734.7,132.1
		c-3.4-8-3.5-15.8-0.9-23.8c-3.5-0.4-6.8,1-10,0.1c-4.1,5.7-3.8,18.3,0.6,23.7C727.6,132.1,731,132.1,734.7,132.1z M750.9,115.8
		c-3.3,0.3-6.3,0.5-9.5,0.8c0.3,3.1,0.5,6-0.1,8.9c2.1,0.1,3.7-0.9,5.5-0.6c0.9,1.4,0.1,2.2-0.8,3c-1.5,0.1-3.1,0.2-4.8,0.3
		c-0.7,1.9-1.6,3.7-2.6,5.2c1.6,6.5,5.1,8.4,13.1,6C748.3,131.7,748.4,124,750.9,115.8z M688.5,110.1c-3.5,4.5-3,9.8-2.6,14.9
		c0.2,3.4,0.6,6.9,3.6,9.5c2.3-1.8,2.4-4.1,2.8-6c-0.4-1.3-2.1-0.5-2.4-2.2c2.1-0.5,4.3,0.9,6.2-0.6c-1.7-2.3,0.3-5.4-1.6-7.7
		c-1.9,0.6-3.7,1.2-5.5,1.9c-0.1-2.4,2.2-1.9,3-3.1C691.4,112.8,690.9,111.9,688.5,110.1z M800.8,113.3c-3.2,4.4-3.2,9.3-2.8,14.1
		c0.3,3.7,0.5,7.6,3.8,10.4C806.5,132.4,806,117.6,800.8,113.3z M736.5,108c-4.8,4.8-4.2,19.9,0.7,24
		C741.8,127.7,741.5,112.5,736.5,108z M773,129.5c0.9-3.2,1.7-6,2.6-9.1c1.9,2.1-0.7,3.9,0.2,5.7c0.2,1.1,1.6,0.4,2.1,1.3
		c-0.3,2.3-2,1.1-3.8,1.1c3.8,2.3,7,1.6,10.3,0.8c0-2,0-4,0-6.2c-1.3,0.1-2.4,0.2-3.1,0.3c-1.5,0.8-1.2,2.8-3.6,2.9
		c1-1.8,0.8-3.6,1.9-4.4c1.4-0.7,2.2,0.7,3.1-0.3c-1.5-2.4-3.3-1.6-5-0.6c-0.9-0.3-0.3-1.2-1-1.5c-5,0.9-7.1,4.7-5.3,9.9
		C771.9,129.3,772.4,129.4,773,129.5z M708.3,214c2,1.5,4.2,1.9,6.2,2.5c1.4,0.4,2.8,0.9,4.3,0.7c3.8-0.6,7.4-2,11.1-2
		c0.1-0.4,0.2-0.6,0.2-0.8c0-0.3-0.1-0.6-0.2-0.9c-3.6,1.4-5.4,1.6-8.1,0.8c-0.4-1,1.3-0.9,0.9-2c-4.4-1.7-9.1-2-13.7-2.9
		C707.9,211.1,709.8,212.7,708.3,214z M687.8,214.1c-5.2,1.8-6.9,10.4-3.6,17.7C686.2,226.1,687.4,220.2,687.8,214.1z M715.1,124.4
		c1.6-0.2,3.1-0.4,4.6-0.6c0-2.2,0-4.2,0-6.5c-2.9,1.1-5.7-0.9-8.4,0.3c-0.6,1.5-0.1,2.9,0.3,4.6
		C712.8,122.5,713.6,123.7,715.1,124.4z M706.2,252.6c-2.4,2.2-2.9,2.8-2.6,4.7c0.4,3,1,6,1.5,9
		C706.3,261.9,707.4,257.6,706.2,252.6z M771.9,119.5c-2.2-0.7-2.2,1.2-3.1,1.8c-2.3,1.8-2.2,4.3-1.8,6.8c0.2,1.3,1,1.6,2.3,1.2
		c0.2-1.8-0.3-3.4-0.5-5.1C769.7,122.7,770.7,121.2,771.9,119.5z M736.7,266.8c1.9-2,2.1-5.1,5.3-5.2c-1.9-0.3-3.5-1.2-5.3-0.9
		C736.1,262.6,736.3,264.5,736.7,266.8z M725.2,200.2c-3.2-0.9-6.6-0.5-10,0C718.6,200.2,721.9,200.2,725.2,200.2z M730,216.9
		c-2.4-0.5-3.7,1.1-5.3,2C726.5,218.6,728.4,218.9,730,216.9z M697.4,118.6c0.7-1.5,0.7-2.7,0.5-4c-1-0.1-1.6,0.2-2.1,0.9
		C696.2,116.5,696.4,117.6,697.4,118.6z M703.1,247.6c-0.3,2.1-0.5,3.9-0.1,5.7c0.9-0.1,1.5-0.9,1.4-1
		C703.3,250.9,705.2,249.1,703.1,247.6z M732.6,200.6c1.3,1,2.7,1.8,5,2.2C735.9,201,734.3,200.6,732.6,200.6z M712,232.2
		c-2.1,0.8-2.2,2.1-2.4,3.3C710.6,234.9,711.6,234.2,712,232.2z M752.5,244.6c0.7-0.6,0.7-1.3,0.7-2.1c0-0.3-0.3-0.5-0.8-0.3
		C751.8,242.9,751.8,243.7,752.5,244.6z M749.4,285.5c1.3,2,1.3,2,2.6,2.4C751.4,286.9,750.7,286.3,749.4,285.5z M723.1,202.2v-0.1
		c-0.9,0-1.8,0-2.7,0v0.1C721.3,202.2,722.2,202.2,723.1,202.2z M741.3,209.7c-0.2-1.1-0.6-1.4-1.5-1.3
		C739.7,209.4,740.2,209.8,741.3,209.7z M729,200.7c-0.5-0.3-1-0.3-1.6,0C727.9,200.9,728.4,201,729,200.7z M739,207.1
		c-0.5-0.4-0.7-0.7-0.9-0.8c-0.3-0.2-0.6-0.5-0.9,0.1C737.6,206.6,737.9,207.1,739,207.1z M715.8,656.5c0.5-0.1,1.5,0.7,1.2-0.7
		C716.4,655.7,716.1,656.1,715.8,656.5z M718.7,229.3c-0.5-0.3-1-0.2-1.5,0C717.7,229.6,718.2,229.6,718.7,229.3z"/>
	<path d="M392.9,646.5c0.7,0.1,1.3,0.1,1.9,0.2c2.1-1.7,1.8-3.9,1.6-6.1c-0.1-0.8-0.3-1.5-0.2-2.3c1.1-7.4-0.6-14.7-1.4-22
		c-0.4-4-2.2-7.9-2.7-11.9c-1.2-9.3-1.7-18.5-1-27.9c0.2-3.1,1.2-6,2.2-8.9c3.2-9,6.8-17.8,9.6-26.9c2.4-7.8,3.2-15.8-0.1-23.7
		c-3.1-7.4-5-15.1-6.5-22.9c-1.4-7.5-2.2-15-1.7-22.7c0.3-4.7-0.6-9.3-1.7-13.8c-1.2-4.9-2-9.8-2.7-14.7c-0.9-6.5-1-13,1.4-19.4
		c1.3-3.5,2-7.2,2.9-10.8c1.6-6.6,4.1-12.8,7.7-18.8c3.3-5.5,6.7-11.1,8.3-17.5c0.2-0.7,0.3-1.3,0.4-2.1c-2-2-3.8-4.2-5.4-6.5
		c-1.5-2.1-2.9-4.1-3.3-6.9s-1.8-5.4-2.6-8.1c-1.1-3.7-2.5-7.3-2.6-11.3c0-0.8-0.4-1.5-0.7-2.3c-3.4-7.6-4.9-15.8-8.1-23.5
		c-0.2-0.5-0.4-1.1-0.5-1.6c-0.9-8.6-1.2-17.2,1.3-25.6c1.7-5.5,5-9.6,10.3-12c0.8-0.4,1.7-0.7,2.2-1c1-1.1,0.7-2.1,0.8-3.1
		c0.1-1,0-2,0-3.3c-1.7,1.3-0.6,3.6-2.4,4.8c-0.6-1.5-0.2-2.9,0.1-4.2c1.7-6.6,0.9-13.1-1.5-19.4c-1.1-2.9-1.8-5.9-2.3-8.9
		c-0.4-2.5-1-4.8-2.1-7.1c-0.8-1.6-1.2-3.4-1.8-5.2c-1.3-4-0.8-7.8,1.6-11.4c1.2-1.7,1.9-3.6,2.7-5.5c1.5-3.9,4.3-5.7,8.5-5.3
		c2.4,0.2,4.7,0.4,7.3,0.6c2-2.7,5.1-4.4,7.5-6.8c1.3-1.3,3.1-1.8,4.9-2.1c6.1-1.3,12.2-1,18.2,0.3c2.5,0.6,5,1.4,7.5,2.2
		c3.7,1.1,6.7,3.5,8.4,7.1c1.6,3.5,3.2,7,4.7,10.6c1.3,3.2,1.4,6.5-1.2,9.1c-0.1,1.1,1,0.5,1.2,1.1c-0.4,0.4-0.8,0.9-1.2,1.4
		c0.5,3.1,2.3,5.5,4,7.6c0.7,2.8-1.1,3.9-2.8,4.9c-0.7,2.1,2,4.4-0.9,5.9c0.4,1,0.7,1.7,0.9,2.2c0.1,1.3-0.9,1.8-1,2.7
		c0.3,0.8,0.6,1.6,0.7,2.3c0.4,2.4-0.7,4-3.2,4.9c-3.5,1.4-7.1,1.1-10.7,0.2c-0.4-0.1-0.9-0.3-1.7,0.1c-0.4,4.7,0.7,9.4,1.4,14.1
		c4.8,1.3,8.8,3.3,11,7.6c3.2,0.7,6.4,1.3,9,3.8c0.1,2.4,2.6,4.2,2.8,7.1c-3.6-2.4-4.7-7-9.3-8.6c3.3,4.8,7,8.6,11.7,12
		c1.2-4.7,1.4-9.6,5.3-13.3c4.6,0.2,9.3,0.8,13.8,1.6c3.1,2.5,2,6.2,3.1,9.4c2.6-0.8,4.1-2.5,5.5-4.2c1.3-0.2,2.2,0.4,3.2,0.7
		c0.2-0.1,0.6-0.2,0.8-0.4c1.1-1.1,2.4-1.2,3.7-0.4c1.2,0.7,1.5,1.9,1.4,3.2c-0.2,1.2-0.3,2.5-0.6,3.7c-0.3,1.3-0.6,2.7-0.2,3.7
		c0.9,1.6,3.5,0,3.3,2.7c2.4-0.5,4.5-0.6,6.3,1.1c1.1-2.6,1-4.8,1.5-7.6c-2.6,1.9-5.6,2-7.2,4.8c-0.6-1.3,0.5-1.8,0.6-3.1
		c-0.5-1.4-0.9-3.3-0.7-5c-0.7-1-1.8-0.3-2.3-1.2c-0.2-0.4,0.2-0.6,0.4-0.7c0.9-0.7,1.9-0.6,2.9,0c0.8,0.5,0.4,1.5,1.1,2.2
		c2.4-1.8,4.1-0.8,5.2,1.9c1.3-1.1,1.2-2.6,1.9-3.9c1.6-2.9,2.3-3.4,5.7-3c3.7,0.5,7.5,0.6,11.1,1.7c1.9,2.1,2.2,4.8,2.3,7.4
		c0.1,4.6-0.7,9.1-2.3,13.3c-1.1,2.9-2,3.7-5,5c-3.7-0.6-7.4-1.4-10.6-1.4c-1.9-0.5-2.1-1.9-3.2-2.5c-3.2,6-4.7,12.5-5.6,19.2
		c-1.7,11.5-4.2,22.8-9.3,33.3c-3.1,6.5-6.5,12.8-10.8,18.5c-0.7,0.9-1.1,2-2.9,1.8c-0.9-1.7-2.8-2-4.6-2.6
		c-1.2-0.4-2.3-0.9-3.5-1.3c-2.5-1-4.5-2.3-5.6-5.1c-0.9-2.4-2.7-4.4-4.4-6.5c-1.4,1.3-1.6,2.9-1.8,4.5c-0.3,2.5-0.3,5-0.2,7.5
		c0.1,5.1,0.1,10.3-1.2,15.2c-0.9,3.5-0.2,6.9-0.4,10.4c-0.3,4.8,1.9,9.1,1.9,13.7c0,4.5,1,8.8,2.4,13c0.6,1.8,0.8,3.8,1.1,5.7
		c1.3,9,2.5,18,3.9,26.9c1.2,7.8,0.2,15.6-0.3,23.5c-0.7,10.2-3.7,20.1-4.6,30.3c-0.1,1.3-0.7,2.6-1.1,4.2c0.3,0.8,1.1,1.6,1,2.9
		c-0.4,3.6-0.6,7.3-1.3,10.8c-0.3,1.4-0.5,2.8-0.2,4.3c0.3,2.3-1.2,4.3-2.5,6.3c0.1,0.5,0.6,1.1,0.5,1.5c-1.2,5-0.1,10.2-0.8,15.3
		c-0.6,4.1-0.1,8.4-0.6,12.6c-0.6,5.3-2,10.3-3.8,15.2c-1.2,3.2-2,6.5-2.7,9.8c-1.6,7.2-2.9,14.5-4.4,21.7c-0.6,3-1.1,6-1.7,9.3
		c2.7,0.8,3.8,2.8,4.5,5.2c0.3,1,0.9,1.8,1.6,2.6c2.5,2.5,5.3,4.8,7.3,7.6c2.3,3.3,5.5,4.4,9,5.6c2.8,1,5.5,1.8,8.6,1.7
		c2.2-0.1,4.5,0.5,6.7,1c3.6,0.8,5.1,3.2,4.5,6.8c-0.2,1.6-0.7,3.1,0.7,4.5c-3.1,3-6.2,4.9-9.9,6.4c-8.5,3.4-17,2-25.5,0.7
		c-2.6-0.4-5.1-1.7-8-1.2c-1,0.2-1.8-0.7-2.3-1.7c0.3-0.9,1-0.8,1.7-0.8c2.5-0.2,5,0.1,7.4,0.7c3.7,1,7.3,0.9,11.1,0.6
		c2.3-0.2,4.6-0.4,6.8-0.1c7.1,1,11.9-1.6,16.8-5.9c-0.6-2.3-1.2-4.7-1.9-7.3c-3.1-1.2-6.4-1.5-9.6-1.6c-2.3-0.1-4.4-0.5-6.6-1.4
		c-2.7-1.1-5.3-2.6-8.1-2.1c-1.3-0.2-0.9-1.5-1.7-1.7c-1.9-0.1-3.8,1.9-5.6,0.1c0.4-2.3,2.5-1.7,3.5-2.6c-0.1-0.9-0.6-1.3-1.4-1.5
		c-2.1,0.1-4.4,1.8-6.7,0c0.9-2.6,3.1-1.7,4.7-2.2c0-1.2-0.8-1.7-1.7-2.3c-2.1,0.8-4,2.1-6.2,2.5c-1.5-2.5-1.1-2.9,4.8-4.5
		c-1.9-1.8-3-4-4.2-6.4c-2.1,1.2-3,3.2-4.6,4.4c-0.3,0.7,0.4,1.3-0.2,1.9c-0.1,0.1-0.4,0.3-0.6,0.5c-3.1,1.9-6.2,3.8-9.3,5.7
		c-2.2,1.3-3.3,1.2-5.3-0.4c-2-1.7-3.8-3.5-3.7-6.7c-2.5,3.2-2.7,7.6-6.8,9.8c2.7,1.4,4,3.4,5,5.5c0.2,0.5,0.5,1.1,0.9,1.5
		c3.5,3.3,6.5,7.3,11.3,9.1c1,0.4,1.9,0.6,2.9,0.8c1.8,0.3,3.6,0.4,5.2,1.4c0.7,1.2,1.1,2.5,0.6,3.9c-0.2,0.7-0.5,1.5-0.2,2.3
		c0.4,1.2-0.3,2.3-1,3.1c-2.1,2-4.2,4-7.5,4.2c-3.1,0.2-6.3,1-9.4,1.8c-6.3,1.6-12.6,0.7-19,0c-0.6-0.1-1.1-0.3-1.7-0.4
		c-6.7-1-6.7-1-11.8-4.3c-7.1,0.9-14.2-0.5-21-3.9c-0.2-1.5,1.2-2.9,1.1-4.6c0-1.7,0.2-3.4,0.8-5c1.4-4.1,2.9-8.1,4.3-12.2
		c0.6-1.7,1.1-3.4,1.3-5.2c0.3-2.5,1.3-5.1,3.8-6.6c0.8-0.4,1.5-0.6,2,0.5C394.9,645.5,393.5,645.6,392.9,646.5
		c-0.9,2-1.7,3.8-1.5,6.2c0.2,2.2-0.7,4.5-2.1,6.4c-0.5,0.6-1.1,1.1-1.2,2c-0.4,2.8-1.5,5.5-2.2,8.2c-0.7,2.4-1.1,4.8-1.2,7.4
		c5,2.2,10,3.2,15.4,2.6c0.3-0.8-0.8-1-0.8-1.7c1.8-1.1,3.2-0.3,4.5,0.9c2.1,1.9,4,4,7.1,4.4c2.7,0.3,5.4,1,8.1,1.2
		c3.4,0.2,6.8,0.9,10.2,0.4c3.8-0.5,7.6-1.1,11.5-1.7c4-0.6,7.6-2.2,10.3-5.4c0.7-0.8,1.3-1.6,0.4-2.8c-2.1,1.1-4.4,1.7-6.4,3
		c-2,1.2-3.5,3.4-6.4,3.9c3.8-4.2,7.4-7.8,13-8.5c-0.5-1.8-1.8-1.7-2.9-1.7c-5.1-0.3-9.2-2.8-13.1-5.8c-0.4-0.3-0.9-0.7-1.3-1
		c-6.2,2.4-7.6,2.6-10.1,0.9c2.5-2,5.5-1.8,8.4-2.5c-0.3-1.6-1.4-2.5-2.3-3.6c-10,2.6-10,2.6-11.7,1.6c0.9-2.7,4.1-2,5.8-3.8
		c-3.2-0.2-6,2.2-9.6,1.1c2.7-3.8,6.6-3.4,10-4.6c-0.6-0.9-1.5-1.4-2.5-1.5c-3.5,0.6-6.6,2.5-10.3,3c1.9-3.4,5.8-3.6,9.1-5.5
		c-3.2-2-3.1-5.9-5.1-8.6c-3.5,0.3-5.6,2.4-7.6,4.6c-2.8,3.1-5.5,6.3-8.8,8.9c-1.1,0.9-2.1,2.2-3.7,2.3c-0.6-0.3-1.4-0.7-1.4-1.3
		C394.5,652.3,392.6,649.6,392.9,646.5z M449,206.6c0.6,0.7,1.2,1.3,2.1,1.3c0,1,0,2,1.6,2c-0.1-1.2-0.9-1.5-1.7-1.9
		C450.7,206.9,450.1,206.3,449,206.6c-0.1-1-0.9-1-2.2-1.3C447.8,206,448.3,206.5,449,206.6z M436.7,200.4c1.1,0.8,2.2,0.5,3.3,0.1
		C438.9,200.5,437.7,200.5,436.7,200.4c-3.1-1.5-6.3-0.3-9.4,0C430.4,200.4,433.6,200.4,436.7,200.4z M415.6,242
		c-0.2-0.9-0.9-1.2-1.7-1.4C414.2,241.4,414.4,242.4,415.6,242c1.3,2.3,3.6,2.7,6,3.1c-0.3-1.3-1-1.9-1.9-2.5
		c-0.2-2.2-2.7-3.3-2.9-5.9c0.6-1.1,0.7-2.7,0.9-4.3c0.4-3.5,3-5.3,6.4-4.6c0.9,0.2,1.4,0.1,1.8-0.7c-5.5-1.1-10.8-2.1-16.4-3.2
		c1.4,3.3,4.6,3.9,7.6,5.6c-3.3,0.5-5.2-1.7-8-2.9c0.8,2.5,2.8,3.3,4.3,4.8c-1.4,0.4-2.2-0.9-3.4-0.7c0.5,3.9,3.4,5.8,6,8.1
		c-0.4,0.3-0.7,0.6-1.1,0.9c1.4,1.3,3,2.4,4.8,2.9c-0.3,0.9-0.9,0.7-1.5,0.5C417.3,242.8,416.4,242.4,415.6,242z M424.4,218.1
		c-1.5-1.5-3.5-1.8-5.4-2.6c-1.1-0.5-2.1-0.8-2.2-2.2c1.5,0.2,2.7,1.2,4.1,1.7c2.7,1.1,5.5,2.4,8.5,2.4c4.1-0.1,7.9-2.1,12-2
		c0.1-0.8,0.3-1.3-0.2-1.8c-1.2,0.7-2.5,1.2-4,1.2c-1.3-0.1-2.8,1.1-3.8-0.4c0-1.2,1-0.9,1.5-1.8c-6-1.8-12-2.9-18.3-3.3
		c-0.5-1.2,0.4-1.7,1.2-1.9c0.9-0.2,1.8-0.1,2.7,0.1c3.2,0.7,6.4,1.4,9.6,2.2c1,0.2,2.1,0.9,2.9,0.3c1-0.7,1.9-0.4,2.9-0.2
		c0.9,0.2,1.9,0.5,2.9-0.1c-0.7-0.4-1.6-0.6-1.7-1c-0.6-1.7-1.7-1.9-3.2-1.4c-0.5,0.2-1.1,0.1-1.7-0.1c-4.6-1.2-9.4-1.1-14-1.6
		c-2.2,1.6-4,3.2-5.6,5.1c1.3,1.5,3.3,1.4,4.4,2.8c-1.7,0.3-2.9-1.7-5.2-1C415.8,215.6,419.9,217.2,424.4,218.1
		c-0.5,0.6-1,0.8-1.8,0.6c-2.3-0.7-4.6-1-6.7-2.2c-1.4-0.8-2.9-1.6-4.4-2.4c-0.2,5,13.8,8.8,20.7,5.8
		C429.7,218.8,427,218.9,424.4,218.1z M408.7,275.4c-4,7.2-0.6,15.3,6.9,16.1c-2.9-3.7-3.6-7.8-2.8-12.2c-1.1-0.8-2.1-1.5-3.1-2.2
		c-0.7-0.5-1.2-1-1.1-1.9c1.7,1,3.7-0.1,5.4,0.8c1.6-2.8,3.9-4.4,6.6-6C414.2,269.5,411.3,270.8,408.7,275.4z M423.8,222.9
		c-1,0.2-1.7-0.2-2.6-0.5c-3.7-1.4-7.1-3.3-10.6-5.6c-0.6,1.8-0.7,3.3-0.5,4.9c0.8,0.8,1.8,1.4,3,1.9c0.9-0.3,1.8-0.5,3-0.1
		c2.9,1,5.9,1.7,8.8,2.4c1,0.3,2,0.6,3,0c1.2-0.8,2.6-0.6,3.9-1.1c1.7-0.6,3.7-0.4,5.4-2.4c-1.3,0.3-2.2,0.5-3,0.6
		c-2.2,0.5-4.2,0.9-6.5-0.4c-1.3-0.7-3.1-1.2-5-1C423.1,222.1,423.4,222.5,423.8,222.9L423.8,222.9z M399.9,212.6
		c0,0.5-0.3,0.9-0.8,1c-2.2,0.9-3.2,2.8-4,4.8c-1.2,2.8-1.6,5.7-1,8.7c0.5,2.7,1.1,5.3,2.1,7.9c0.8,2.1,1.9,4.2,2.1,6.4
		c0.4,4.6,2.8,8.5,4,12.8c0.2-6.3-2.5-12.2-1.9-19.3c3.6,12.4,4.3,24.4,3.7,36.5c1.3-7.5,1.4-15.1,0.5-23.3c1.4,2.9,1.2,5.4,1.8,7.8
		c0.4-2.6,0.5-5.2-0.2-7.8c-2-7.5-2.5-15.2-2.2-23c0.2-4.3,1.4-8.2,4.6-11.4c0.7-0.7,1.3-1.5,1.4-2.6c0.7-0.6,1.1-1.4,1.1-2.6
		c-3.1-0.1-6.1-1-9.3,0.3c-0.8,1.1-2.2,1.8-2.8,3.4C399.5,212.5,399.7,212.6,399.9,212.6z M502.3,301.4c-1.5-1.1-3.6-1.3-5-3
		c1.7-0.7,3.9,0.5,4.7-1.7c0.4-1.2-0.2-2.2-1.5-2.7c-1.4,0.9-2.8,1.8-4.2,2.7c-0.9,2.7-0.8,5.5-1.2,8.2c-0.3,1.8,0.6,3.2,2.2,3.8
		c3.8,1.5,5.8,4.4,7.2,8.3c-3.3,6.8-4,14.6-7.4,21.4c-0.2,0.4-0.4,0.9-0.4,1.3c0.1,1.4-0.7,2.4-1.5,3.3c-2.2,2.5-4.2,5.1-6.9,7
		c-1.1,0.8-1.6,1.7-1.8,3.1c-0.2,1.1-0.3,2.4-1.7,3.1c0.2-3.2,1.5-6.1,2.5-9.1c-1.5-2.8-2.1-6-3.9-8.8c-1.8,2.7-2.8,5.3-3,8.6
		c-0.4,6-0.5,12.1-3.3,17.6c-0.6,1.1-1,2.3-1.6,3.5c2.4,3.2,4.8,6.3,6.3,9.6c3.9,2.4,8.4,2.3,11.7,5c0.8-0.8,1.5-1.5,2.1-2.3
		c1.1-1.3,2.6-2.6,2.9-4.1c0.5-2.4,1.9-4.1,2.9-6c1.3-2.5,2.9-4.9,4-7.5c2.1-4.8,4.1-9.7,4.7-14.9c0.7-6,1.8-11.9,3-17.8
		c0.3-1.7,0.6-3.4,1.7-4.8c0.9-1.1,1.3-2.4,1.6-3.7c0.9-4.1,2.4-8,4.7-11.6c-0.2-1.3-0.4-2.7-0.5-3.9c-2.5-1.2-5-1.5-7.6-0.7
		c-1.3-0.7-2.5-1.6-4-1.3c-0.2,0.4,0.1,1-0.7,1.2c-1.1-1-2.4-1.8-4-2.1C503.3,302.8,502.5,302.3,502.3,301.4c0.9,0,1.9,0.1,3.1,0.2
		c-0.7-1.8-2.3-1.6-3.8-2.6C501.9,300.2,502.1,300.8,502.3,301.4z M432.1,231.2c0.4,0.3,0.7,0.7,0.4,1.1c-0.6,0.9-1.5,1.3-2.6,1.3
		c-3.6,0.2-4.1-5-7.6-4.7c-3.2,2.6-3.6,3.4-3.1,6.1c1.2-1.4,0.9-3.8,3-4.5c4.7,2.9,5.1,3.5,3.9,7c0.6,0.9,2.2,0.9,2.3,2.4
		c-0.4,0.8-0.8,1.8-2.1,2.1c-0.7-1.6-1.3-3.1-1.8-4.4c0.1-1.1,1.2-1.4,1-2.4c-0.2-0.3-0.5-0.7-0.7-1.1c-0.9,0.8-1.6,1.7-2.1,2.5
		c-0.1,2.2,1.5,3.6,2.2,5.1c-0.5,0.9-0.9,1.1-1.5,0.8c-2-1-2.4-2.8-2.6-4.7c-0.9-0.1-1.6-0.9-2.4,0.3c2.8,3.1,4.3,7.2,7.5,9.5
		c1.5,0.2,1.7-1.1,2.6-1c0.1,2.5,0.1,2.5-3.4,3.1c-0.9-0.1-1-1.3-1.9-1.4c0.1-0.8-0.3-1.3-1-1.5c-1.1-0.3-2.2-0.4-3.3-0.8
		c-1-0.3-1.9-0.8-2.8-1.2c0.8,1.4,0.6,3.2,2,4.1c0.2-0.4,0.4-0.7,0.7-1.3c1.3,1.1,2.8,1,4.4,0.7c0.1,2.1-1.9,2.6-3.3,3.7
		c1.2,5.5,0.1,10.9-0.9,16.6c5.9,1,11.4,2.3,14.5,7.8c1.3-0.3,2,0.7,3.1,0.5c3.5-1.9,3.5-1.9,11.1-2.2c-0.8-4.7-2.8-9.3-1.2-13.9
		c2-1.9,4.3-1.7,6.1-1.2c3,0.8,5.6-0.1,8.1-0.6c2.2-2,1-3.9,0.2-5.4c0.1-1.4,1.6-1.7,1.6-2.9c-0.5-0.6-0.9-1.3-1.7-1.5
		c-1.5,0.1-3.3,1-4.6-1.1c2.2-1,5,1.1,6.6-1.8c-0.9-1-0.9-2.5-1.1-3.7c-0.7-0.5-1.7,0.5-1.8-0.7c1-2.7,4.4,0.7,5.3-2.4
		c-2.3-3.9-5.5-7.7-4.5-12.5c1-1.3,2.3-1.5,2.6-3.1c-1-2.6-2.1-5.5-2.8-8.4c-0.3-1.2-0.8-2.4-1.3-3.5c-0.4-1.1-1.7-1.9-2.3-1.6
		c-1.5,0.8-3.3-0.3-4.4,1.3c-1.3-0.6-2.2-1.7-3.6-1.5c-0.1-0.7-0.5-1.2-1.2-1.5c-3.1-1.3-6.1-3.1-9.7-3.3c3.7,1.4,7.2,3.3,10.9,4.7
		c-0.8,0.6-1.4,1.5-2.5,1.7c-1.7-1.4-3.7-1.1-5.4-0.4c-1.2,0.5-2.2,0.8-3.5,0.4c-0.5-0.1-1.3-0.4-1.8,0.6c2.3,1,4.5,0.9,6.8,0.3
		c0.7,4.6-2,8.1-3.6,12.7c-1.6,1.9-5,3.1-7.2,5.7c-1.1,0.2-2.1,0.3-3.4,0.5C429.8,232,431,232.4,432.1,231.2z M406.6,351.1
		L406.6,351.1c0-3.1,0.8-6.2,1.9-9.2c1.8-4.5,3.4-9.1,5.2-13.7c0.6-1.5,1.2-3,1.2-4.6c-0.1-3.5,0.8-6.8,1.5-10.1
		c0.6-2.7,1.2-5.3,0.4-8c-0.1-0.3,0.1-0.6,0.2-0.9c0.7-0.1,0.7,1,1.5,0.6c3.9-7.6,3.9-7.6,3.3-9.9c-2.7,0-4.9-1.6-7.5-2.1
		c-5.1-1-8.7-6.6-8.6-11.4c0-1.8,0.2-3.5,0.7-5.5c-3.6,0.4-6.2,2.1-9,3.3c-1.3,0.5-2.2,1.5-3,2.7c-4.6,7.2-5.8,15.2-5.3,23.5
		c0.2,2.6,0.5,5.2,0.8,7.8c0.1,0.8,0.1,1.7,0.4,2.3c2.3,4.5,3.3,9.4,5.2,14c2.1,5.3,4,10.6,4.9,16.3c0.6,4.1,2.1,7.9,3.1,11.8
		c1.8,7.1,5.9,12.4,11.2,17.1c0.7,0.6,1.2,1.4,2.3,1.3c0.7-0.8,1.5-1.6,2.3-2.5c4.8-4.9,8.7-10.1,10.4-17.1
		c1.7-7.1,3.1-14.1,2.9-21.5c-0.3-8.8,0.7-17.5,1.9-26.1c0.4-2.9,2-5.3,3.8-7.5c0.3-0.4,0.9-0.8,1.6,0c-0.4,1.8-2,3-3.1,4.7
		c-1.3,8.3-1.7,16.8-1.7,25.3c9.2,2.5,18,4.3,27,0.5c0.7-0.3,1.3-0.4,1.9,1c-4.4,2.5-9.2,3.4-14.2,3.3s-9.7-1.4-14.7-3.4
		c0.2,3.3-0.2,6.1-0.4,8.9c0.6,0.1,0.9,0.3,1.2,0.3c4.5-0.4,9.1-0.8,13.6-1.2c4.7-0.5,9.5-1.1,14.2-1.4c5.2-0.4,10.3,0.7,15.1,2.7
		c2.3-3.9,3.6-8,6.7-11.1c1.1-1.2,1.8-2.8,2.5-4.4c2.8-7-0.7-16.6-6.5-20.7c-1.5-1.1-2.8-2.3-4.3-3.4c-2.9-2.3-5.6-4.8-8.3-7.4
		c-0.7,3.1-0.8,3.2-3.3,4c-2.8,1-5.8,1.1-8.7,0.7c-3.2,2.8-7.1,3-11,2.6c-2.1-0.2-3.8-1.6-5.8-1.9c-5.1-0.7-9.1-7-9.2-12.1
		c0-3.9,1.2-7.2,3.6-10.6c-1.9-0.2-3.5-0.2-4.5-1.3c-1.3-0.2-2.2,0.8-3.2,0.5c-0.6-0.1-0.5-1-1.4-1c-0.8,1.1-2.4,0.8-3.3,1.5
		c-0.6,1-0.4,1.7-0.2,2.5c0.5,2.3,1.2,4.6,1.5,7c0.6,3.9,1.8,7.9-0.3,11.7c-1.9,3.5-2.6,7.5-3.5,11.3c-1.3,5.4-1.6,11-3.3,16.4
		c-1.3,4.1-2.8,8.2-4.2,12.2c-1.3,3.7-2.3,7.6-4.1,11.2C407.7,350.9,407.4,351.3,406.6,351.1z M395,453.2c0.8,5.8,1.6,11.4,2.4,17
		c0.2,1.6,0.4,3.1,0.2,4.7c-0.6,4.5-0.5,9.1,0.5,13.5c2.3,10.5,4.8,21,7.6,31.4c1,3.8,1.4,7.6,1.1,11.5c-0.5,7.8-3.6,15-5.5,22.4
		c-1.3,5.1-3.5,10.1-4.9,15.2c-1.5,5.3-3,10.7-2.7,16.4c0.4,8.5,0.8,17,2.7,25.4c2,9,2.3,18.2,2.6,27.4c0.1,3.2,0.1,6.7-1.3,9.7
		c-0.7,1.6-0.9,2.9-0.2,4.7c0.8-1.1,1.9-1.6,2.2-2.3c0.3-1-0.8-1.6,0.2-2.2c1-0.1,1.3,1.3,2.5,0.9c3.2-3.8,6.2-8,11.2-10.2
		c-0.9-2-0.8-4-0.6-5.9c0.5-5.6,1-11.2,1.6-16.9c0-0.3,0.1-0.7,0.2-1c1-8.1,1.6-16.2,2.9-24.3c0.1-0.4,0.1-0.9,0.1-1.4
		c-0.3-3,0.6-5.8,1.4-8.7c2.1-7.7,4.9-15.1,6.7-22.9c0.2-1.1,0.6-2.1,1.4-3c1.2-1.2,1.8-3,1.8-4.6c-0.1-2.9,1.1-5.3,2.5-7.7
		c0.9-1.7,2.1-3.4,2.1-5.3c0.1-3.8,1.2-7.4,1.7-11.2c0-0.7-1-0.3-1.2-1.1c0.9-3.4,1.9-7,2.8-10.7c1-4,2-8,2-12.1
		c0.1-13.7,0.1-27.5,0-41.2c0-2.8,0.2-5.7-0.5-8.4c-2.2-0.9-4.2-2.1-6.5-2.5c-6-1.2-12-1.4-18.2-0.7C407.5,450,401.3,451,395,453.2z
		 M441.8,461.2c0,7.8-0.2,15.5,0.1,23c0.3,6.8-0.7,13.6-0.4,20.4c0,0.2,0,0.5-0.1,0.7c-0.8,2.3-0.4,4.5,0.3,6.7
		c2.6,8.9,3.5,18,4.8,27.1c0.5,3.5,1.2,7.1,3.9,10c0,1.6,0.4,3.3-0.2,5.1c-2-1.4-0.7-4-2-5.5c-1.2,0.2-1.5,1.1-1.8,1.9
		c-4,10.6-6.8,21.4-7.6,32.7c-0.3,5-0.2,10,1.1,14.9c0.9,3.2,1.1,6.5,1.1,9.8c0,9.7-1.1,19.3-2.5,28.8c-0.3,2.4-0.4,5-2.1,6.9
		c1.1,1.9,2.3,3.3,4.3,4.1c3.6-2,7.1-4,10.8-6.1c-0.1-2.2,2-3.2,2.8-5.1c-0.1-2.1,0.2-4.2,0.5-6.3c1.2-7.3,3.3-14.4,4.9-21.6
		c0.4-1.8,0.6-3.7,1.4-5.2c0.9-1.7,1.3-3.3,1.6-5.1c0.4-2.5,0.5-5.1,1.7-7.3c3.5-6.2,3.8-13.1,4.2-19.8c0.6-10,0.5-19.9,4.3-29.6
		c-0.3-1.2-0.7-2.5-0.6-3.9c0.4-4.8,1-9.5,0.5-14.4c-0.3-3.4,0.5-6.8,1.2-10.1c2.3-11,4.4-22.1,4.5-33.4c0.1-5,0.2-10-0.5-15
		c-0.4-2.8-1.1-5.6-1-8.4c0-1,0.2-2.3-0.8-3.1C472.8,455.4,452.2,459.9,441.8,461.2z M440.9,444.9c0.5,2.1,0.2,3.8-0.9,5.4
		c0.5,3,1,5.8,1.5,9c3.4-0.7,6.5-1.4,9.6-2.1c7.2-1.7,14.3-3.5,21.6-4.7c1.1-0.2,2.2-0.1,3.5,0.2c-0.7-9.1-4.9-17.1-6.7-25.6
		c1.9-2,1.4-3.9,0.8-5.8c-0.9-0.7-1.8,0.4-2.4-0.9c0.6-0.6,1.8-0.2,2.2-1.1c1.1-2.4-0.4-3.8-1.6-4.9c-0.7-1.5,0-2.9-1.1-4
		c-4.5,0-9-0.1-13.6,0c-4.7,0.2-9.2-0.7-13.6-2.4c-4.8-1.8-9.4-4-14.4-5c-4.7-1-9.3-2.3-13.9-3.3c-2.8-0.6-5.7-1.4-8.8-1.2
		c-0.8,3.5-2.6,6.5-3.8,9.8c-2.5,7.2-4.2,14.6-6.2,22c-0.4,1.3-0.4,2.7-0.2,4c0.6,4.5,1.1,9,1.6,13.5c0.1,0.7-0.1,1.6,0.9,2.2
		c0.9-0.3,1.8-0.7,2.8-0.8c2.5-0.3,4.3-2.3,6.7-2.6c11.3-1.7,22.3-1,33.2,3C439.9,448.7,438.9,446,440.9,444.9z M467.1,408.4
		c1-1.8,1.3-3.5,1.6-5.1c1.3-7.6,1.3-15.3,1.2-23c-0.1-6.1,1-11.7,4.5-16.8c1.9-2.8,3-5.9,3.4-9.2c0.4-2.9,0.7-5.8,1-8.6
		c-3.2-2-7.2-1-10-3.7c-11.5,0.6-22.9,2.1-34.4,3.3c-0.8,4.2-2.1,7.9-2.5,11.7c-0.5,4.1-1.9,7.6-3.9,11c-2.7,4.5-6.8,7.7-11,10.6
		c-1.9-0.2-2.8-1.9-4.5-2.6c-1.5,7.4-5.9,13.2-8.6,20c7.8,0.7,15,3,22.4,4.6c0.5-1.7-0.9-3.1-0.2-4.6c1.6,1.4,1.4,3.4,2.1,5.1
		c5.1,1.5,10.2,3,15.3,4.4c1.5,0.4,2.7,1,3.3,2.5C453.7,408.6,460.5,408.3,467.1,408.4z M435.8,639.8c1.2-7.3,2.1-14.6,2.2-22
		c0-2-0.8-3.8-0.4-5.7c0.7-3.3-0.6-6.7,0.4-10.1c0.2-0.7-0.3-1.5-0.4-2.3c-0.6-3.5-1.5-6.9-1.6-10.4c-0.1-9.8,1-19.5,4.7-28.7
		c1.8-4.6,3.5-9.3,5.3-14.1c-2.2-3.6-4.2-7.3-2.7-11.8c0.1-0.3,0-0.7-0.1-1c-1.2-4.5-1.3-9.2-1.6-13.8c-0.2-2.6-0.5-5.1-1.7-8
		c-0.7,2.2-1.9,3.9-1.8,5.8c0.2,4.6-0.8,9-1.6,13.5c-0.9,4.9-1.7,9.8-4.5,14.1c-0.7,1.1-1.4,2.4-1.5,3.8c-0.3,3.2-1.2,6.1-2.2,9.1
		c-3.9,11.3-6.6,22.9-8.6,34.6c-2.6,15-3.2,30.1-5,45.2c3.1,0.4,3.4,0.5,4.7,3.3c0.5,1,0.7,2.1,1.2,3.2c1.1,2.7,2.4,5.3,5.4,6.7
		c1.4-2.7,3.6-4.4,4.4-7.4c0.5-1.8,1.9-3.6,3.4-4.7C434.7,639,435,640,435.8,639.8z M449.9,301.4c1.4,0.1,2.9-0.4,4.3-1.1
		c7.4-4.1,8.5-15.5,1.5-20.8c-3.4-2.5-7.3-2.6-10.8-0.2c-6.8,4.6-7.1,15.1-0.9,20.1C445.7,300.6,447.6,301.4,449.9,301.4z
		 M489,345.8c3.3-2.2,4.8-3.7,5.4-5.5c2.8-8,5.3-16.1,8.4-23.6c-1.3-5.3-6.6-5.5-9.7-9.1c-0.8,2.1-2.6,2.6-4.1,3.8
		c2.4,4,1.6,8.4,1.8,12.7c0.2,4.7-3.6,7.6-5.7,11.2C487.1,338.6,486.8,342.7,489,345.8z M533.6,314.5c-1.7-8.3-0.8-15.9,3-23.3
		c-3.6-0.1-6.8-0.4-9.9-1.2c-4.7,5-6.3,16.9-3,22.8C526.8,313.3,530,313.9,533.6,314.5z M480.3,284.6c-3.4,3.8-4,8.5-4.6,13.2
		c4.3,3,7.3,7.1,11.4,10.5c-1.5-8.1-0.5-15.4,3.3-22.4C486.8,285.7,483.6,285.6,480.3,284.6z M415.5,276.7c-3.6,7.9-0.2,16,6.8,16.5
		c-0.5-4-1.1-7.8-2.2-11.6c-0.5-1.9-0.8-3.8,0.9-5.2c3-2.4,6.6-0.6,10.2-0.9c-4.3-4.7-7.5-5.1-12.7-2.1c-0.2,0.7,0.7,0.7,0.8,1.4
		C418.4,276,417.4,277.2,415.5,276.7z M535.9,314.7c1.6-0.4,2.1-1.6,2.7-2.7c2.7-5.5,3.1-11.3,2.3-17.3c-0.2-1.2-0.4-2.8-2.1-3.2
		C533.8,295.8,532,309.2,535.9,314.7z M447.1,276.4c-8.9-2.3-14,4.6-14.6,10.2c-0.6,5.7,2.7,12.8,8.9,12.4c-1.2-2-2.4-3.8-2.9-6.1
		c-0.5-2.3-0.4-4.5,0.1-6.7c-1.5-0.6-2.4-1.6-3.6-2.7c1.8-0.7,3.5,0.1,4.9-0.9C441.5,279.9,443.8,278,447.1,276.4z M495,295.6
		c-1.2-1.4-2.4,0.1-3.3-0.5c0.1-2.2,2.3-1.3,3.4-2.3c-0.5-2.2,0-4.7-2.5-6.8c-3.3,2.9-4.1,6.9-4.6,10.8c-0.6,4.3-1.3,8.8,1.9,12.9
		c2.3-1.8,3.2-3.9,3.3-6.3c-0.5-0.7-1.8-0.1-1.7-1.1c0.6-1.6,1.5-0.2,2.2-0.7C494.1,299.7,493.6,297.5,495,295.6z M411.9,269.7
		c1-0.1,1.1-0.8,1.2-1.5c0.3-2.6-0.1-5.1-0.8-7.6c-1.9-6.5-3.7-13-6.2-19.4c2.9,10.3,3.1,20.8,2.1,32c3-2.5,2-5.6,3.2-7.9
		C412.1,266.6,410.9,268.3,411.9,269.7z M461.4,285.7c1.1,4.7-0.1,8.5-2,12.2c3.6,0.4,5.8,0.2,7.9-0.8c-0.8-2-1.3-4.1-2.7-5.7
		C463.1,289.9,463.5,287.5,461.4,285.7z M436.3,203.7c-3.7,0-7.4,0-11,0c-0.1-0.7,0.3-0.8,0.5-1.1c0.3-0.3,0.6-0.7,0.3-1.2
		c-3.2-0.4-3.2-0.4-5.5,2.3c5.7,0.7,11,2.8,16.8,1.9C437.3,205.1,436.9,204.7,436.3,203.7z M505.9,292.1c-0.2,2.8-0.8,5.8,0.4,8.6
		c1.4-0.1,2.2-0.4,2.8-1.6c-0.4-2.1,0.3-4.4,0.4-6.6C508.5,290.4,507.2,291.4,505.9,292.1z M412,245.5c-0.5-4.3-1.7-7.7-3-11.1
		c-0.4-1.1-0.6-2.3-0.8-3.5c-0.6-3.1-0.5-6.3-1.2-9.4C406.5,229.7,406.9,237.7,412,245.5z M416.6,266.3c1.3-3.9,1.7-7.8,1.5-11.8
		c0-0.7-0.3-1.3-1.3-1.4c-1.4,1.1-2.1,2.6-1.8,4.4C415.5,260.4,416.2,263.3,416.6,266.3z M501.4,292.9c2.3,1.2,1.2,3.7,2.1,5.6
		c0.7-2.1,0.7-4.3,0.5-6.3C502.9,291.3,502.1,291.4,501.4,292.9z M414.4,253.6c2.5-1.1,1-2.9,1.2-4.1c0.2-1.3-0.7-2.8-1.8-3.9
		C414.2,248.1,414.1,250.7,414.4,253.6z M406.5,265.2c-0.4,2.9-1,5.7-1.6,8.6c0.9,0.2,1.5-0.2,1.6-0.6
		C406.9,270.5,407.1,267.9,406.5,265.2z M435.9,218.8c3.1,0.3,3.9,0,5.2-2C438.9,216.7,437.6,218.2,435.9,218.8z M516.5,297.2
		c2.5,0.3,3.1-0.6,2.8-2.5C517.2,294.3,517.2,295.9,516.5,297.2z M443.6,200.7c1.6,0.8,3,1.9,4.9,1.9
		C447.2,201.2,445.5,200.6,443.6,200.7z M421,235.6c2.2-1.8,2.2-1.8,1.6-3.2C421.6,233.3,421.1,234.3,421,235.6z M509.9,301.9
		c-1-0.8-1.3-0.3-1.7,0.4C508.9,302.7,509.4,302.8,509.9,301.9z M430.8,229.4c-0.9-0.3-1.6-0.3-2.2-0.1
		C429.2,229.7,429.8,229.6,430.8,229.4z M429.1,656.4c-1-0.7-1.4-0.2-1.9,0.2C427.7,656.7,428.3,656.9,429.1,656.4z"/>
	<path d="M780,219.4c0.1-5,0.8-9.3,1.4-13.5c1.3-9.2,1.2-18.3,1.2-27.5c0-7.7-0.3-15.5,0.2-23.2c0.3-3.8,1-7.6,0.6-11.5
		c1.3-0.2,1.2,0.7,1.2,1.3c0.3,6.9,1.2,13.8,0.4,20.8c-0.2,1.6-0.2,3.2-0.2,4.8c0,6.6-0.1,13.2-0.5,19.7c-0.3,3.6,0.3,7.2-0.2,10.8
		c-0.5,3.8-0.7,7.7-1.5,11.5C782.3,214.8,781.7,216.9,780,219.4z"/>
	<path d="M729.6,642c0.7,0.8,1.8,1.2,2,2.3c0,0.6-0.2,1.1-0.9,1.3c-1.2-0.3-1.9-1.4-2.8-1.9c0.1-4,1.5-7.5,3.1-11.5
		C731.8,636,728.9,638.6,729.6,642z"/>
	<path d="M775.9,142.8c0,0.5,0,1.3,0,2.1s-0.1,1.6-0.4,2.4c-0.9-1.5-0.8-3.2-0.6-4.9c-1.2-1.2-3.7-1.2-3.9-4.1c2.6,1.6,5,2.5,7.7,2
		C778.5,142,776.5,141.3,775.9,142.8z"/>
	<path d="M741.9,572.8c0.2-3-1.5-5.7-0.2-8.6C743.5,566.1,743.6,569.2,741.9,572.8z"/>
	<path d="M759.1,526.5c-1.5,2.2-2.6,4.5-5.4,5.6C756.3,527.4,756.8,526.9,759.1,526.5z"/>
	<path d="M741.8,576.2c0.3,1.6-0.2,6.4-1,9c-1-1.1-0.3-2.1-0.1-3c0.2-1,0.3-2,0.1-3C740.5,578,740.6,577,741.8,576.2z"/>
	<path d="M755.4,540.1c1.2,1.7,0.3,3.3,0.3,5.4c-1.6-1-0.6-2.1-0.9-2.9C754.5,541.7,753.7,540.8,755.4,540.1z"/>
	<path d="M756.9,533.9c-0.8,1.5-1.6,3.1-2.6,5c-0.6-2.8,0.3-4.3,2-5.5C756.6,533.6,756.7,533.7,756.9,533.9z"/>
	<path d="M740.4,559.4c-1.2-1.4-1.5-2.4-1.5-3.8C740.5,556.4,740.5,557.5,740.4,559.4z"/>
	<path d="M775.9,149c0.9,0.9,0.7,1.9,0.6,3.5C775.5,151.1,775.5,150.1,775.9,149z"/>
	<path d="M747.8,532.2c1.2-0.4,2.1-0.9,3.3-0.3C749.5,532.9,749.5,532.9,747.8,532.2z"/>
	<path d="M767.8,214.2c0.3-1.3,0.9-1.9,1.6-2.4c0.1,0.1,0.4,0.3,0.4,0.4C769.6,213.2,769.4,214,767.8,214.2z"/>
	<path d="M775.5,160.5c0.9,1,0.9,1.4,0.7,1.8C775.4,162.1,775.5,161.6,775.5,160.5z"/>
	<path d="M760.2,263.8c-0.1-0.9,0.2-1.7,1.1-2.5C761.2,262.5,761,263.2,760.2,263.8L760.2,263.8z"/>
	<path d="M775.9,154.7c0.7,1.2,0.7,1.7,0.3,2.3C775.5,156.5,775.9,155.9,775.9,154.7z"/>
	<path d="M760.1,263.8c0,0.6,0.2,1.3-0.8,2C759.5,264.9,759.4,264.2,760.1,263.8L760.1,263.8z"/>
	<path d="M733.9,621.4c-0.1,0.1-0.3,0.4-0.4,0.4c-0.4,0-0.5-0.3-0.3-0.6c0.1-0.1,0.3-0.2,0.5-0.2C733.8,621,733.9,621.3,733.9,621.4
		z"/>
	<path fill="none" d="M727,452.6c0.5,3.1,0.4,6.3,0.4,9.5c-0.1,9.3-0.2,18.6,0.1,28c0.4,11.7-1,23.1-4.9,34.2
		c-0.1,0.9,0.8,1,1.2,1.5c-0.4,3.9-1.6,7.7-1.8,11.7c-0.1,1.8-1.2,3.4-2.1,5c-1.3,2.3-2.4,4.6-2.4,7.3c0,1.9-0.5,3.8-2.1,5.2
		c-0.6,0.5-0.8,1.4-1,2.1c-2,8.7-5.2,17.1-7.5,25.8c-0.5,1.8-0.9,3.5-0.7,5.4c0.1,0.7,0.1,1.4-0.1,2c-1.5,8.1-2,16.4-3,24.6
		c-0.4,3.3-0.6,6.6-0.7,9.9c0,2.4-1.3,4.5-1,7c0.2,2.2-0.4,4.5,0.7,6.9c-5.3,2.1-8,6.5-11.4,10.2c-1.1,0.3-1.5-1.2-2.5-0.8
		c-0.7,0.6,0.5,1.2,0.1,1.9c-0.6,0.9-1.3,1.6-2.2,2.1c-0.7-0.6-0.5-1.5-0.8-2.4c2.3-3.4,2.2-7.5,2.2-11.4
		c-0.2-9.2-0.9-18.4-2.5-27.5c-0.8-4.5-1.9-8.9-2.3-13.4c-0.8-10.5-0.9-20.8,2.9-30.9c1.5-4.1,3.2-8.3,4.2-12.6
		c1.8-7.4,4.7-14.4,5.5-22c0.4-3.5,0.1-7.1-0.7-10.5c-2.2-9-4.5-18.1-6.7-27.1c-1.6-6.5-2.6-13.1-1.7-19.9c0.3-2.4-0.3-4.7-0.6-7.1
		c-0.6-4.6-1.2-9.2-1.9-14c3.8-1.8,7.7-2.6,11.7-3.2c6.2-0.9,12.3-1.7,18.6-1.1C718.5,449.3,722.9,450.1,727,452.6z M712.8,541.7
		c-0.4,2.1-2,3.3-2.5,5.2c2.9-0.7,3.2-1.1,4.2-5.1c-1.6-2-0.3-4.6-1-7.5C710.9,536.9,711.9,539.3,712.8,541.7z M698.8,558
		c-2.1,2-3.8,11.3-2.8,14.9C696.9,567.9,697.9,562.9,698.8,558z M688.8,646.4c0.4-4.3,2.5-8.5,0.4-13
		C688.5,636.2,687.9,644.7,688.8,646.4z M708.6,522.4c-0.1,1.8-0.1,3.6-0.7,5.3c-0.4,1.1-0.1,2.1,1.6,3.2
		C708.1,527.8,710.6,525.1,708.6,522.4z M698.5,545.2c-1.5,1.8-1.5,3.2,0.1,7C698.9,549.6,698.8,547.5,698.5,545.2z M691.5,475.2
		c-0.4,1.9-0.3,3.8,0.9,5.7C692.9,478.8,691.9,477.1,691.5,475.2z M694.3,487.9c-0.3,0.6-0.6,1.2,0.3,1.7
		C695.1,488.9,695.3,488.4,694.3,487.9z M689.5,628c-0.6,0.8-0.5,1.5,0,2.4C690,629.5,690,628.7,689.5,628z M690.2,616.4
		c0.5-0.7,0.3-1.2-0.5-1.5C689.2,615.6,689.3,616.1,690.2,616.4z"/>
	<path fill="none" d="M726.5,208c0.3,0.9,0.4,1,1,1.6c-0.7,0.6-1.4,0.2-2.1,0.2c-0.7-0.1-1.4-0.5-2-0.3c-4.7,1.1-8.8-1.5-13.3-1.9
		c-1.3-0.1-1.8-1.3-2.5-2.2c-1.2,0.7-1.2,1.7-1.3,2.6c-0.7,5.4-1.2,10.8-2,16.2c-1.1,7.5-2.8,15-3.6,22.5c-0.5,4.9-1.6,9.8-1.3,14.7
		c0.2,2.7,1.7,4.9,3,7.1c0.9,1.5,2.2,2.9,3.4,4.2c8,7.9,10.2,17.7,9,28.5c-1.1,10-6.9,17.3-13.8,24c-2.1,2-4.9,2.8-8,2.8
		c-2.5-4.6-3.8-9.7-5.1-14.7c-0.6-2.1-0.4-4.5-2.1-6.3c-0.5-0.6-0.4-1.7-0.4-2.6c-0.3-4.3-1.4-8.5-3.1-12.5
		c-3.5-7.8-4.5-15.9-3.1-24.3c0.5-2.8,0.8-5.6,2-8.2c0.5-1.1,1.1-2.3,0.5-3.6c-0.2-0.4,0-0.9,0.1-1.3c1.7-7.4,2.7-14.9,5.2-22.1
		c1-2.9,1.1-6,1.7-9c0.9-4.3,1.5-8.7,2.6-13c0.4-1.5,0.8-3,0.3-4.6c0.6-0.1,0.9-0.1,1.2-0.1c0-0.9,0-1.8,0-2.7
		c-0.2-9.2,2.3-18,4.1-26.9c1.3-6.4,3.4-12.4,6.1-18.3c2.6-5.6,4.6-11.6,5.1-17.9c0.1-1,0.9-1.5,1.3-2.2c-0.9-0.8-1.5,0.4-2.2,0.3
		c-1.5-4.6-5-7.8-7.9-11.3c-1.6-1.9-2.2-3.6-1.5-5.8c0.4-0.4,1.1-0.1,1.6-1.1c0.1-1.2,0.3-2.9,0.5-4.5c0.9-0.8,1.9-1,3-1.4
		c-0.3,2.6-2.9,4.8-0.3,7.8c0.8-2.8,1.5-5.2,2.2-7.9c1.4,1.2,0.4,2.2,0.3,3.2c-0.1,1-0.7,1.9-0.4,3.1c2.6-1.2,2-3.7,2.8-5.6
		c2.6-1.1,4.9-1.2,7.2,0.9c-1.4,1.2-2.5,0-3.7,0c-1.9,2.3-1.4,4.8-0.5,7.5c3.9,1.9,5.3,6.1,7.8,9.4c0.9,1.2,0.6,3.1,0.1,4.6
		c-0.7,2.2-1.7,4.4-2.5,6.6c-1.1,2.9-1.5,6.2-2,9.3c-1,6.5-1.6,13.1-1.4,19.7c0.1,4-1.1,7.9-1.7,11.8c-1,5.8-1.9,11.6-2.9,17.5
		c0,0.3,0.1,0.6,0.2,1.1c2.4,0.3,4-2.9,6.6-1.2c0.2,0.5-0.7,0.8-0.1,1.8c1.7,0.5,3.7,0.4,5.7,0.3c4.6-0.1,8.9,1.1,12.8,3.4
		c-0.1,0.1-0.2,0.2-0.3,0.3c-2.5-0.7-5.1-1.6-7.8-1.5c-5.2,0.2-10.2-1.4-15.3-2c-0.2,0-0.5,0-0.6,0.1c-0.2,0.1-0.3,0.3-0.7,0.9
		c2.6,1.5,5.5,0.9,8.1,1.3c2.7,0.3,5.3,1.4,8,1.2c-0.3,0.1-0.6,0.1-0.6,0.6C724.7,208.7,725.6,208.5,726.5,208z M701.9,280.6
		c-1.2-3.6-0.3-7.7-2.5-11.2C699.4,273.3,700.2,277,701.9,280.6z M704.5,291.5c0.3,3.5-1.5,6.9-0.9,10.8
		C705.7,297,706,294.1,704.5,291.5z M702.6,204.1c-0.7-1.8-2.3-1.8-4.3-2.2C699.7,203.4,701,204.1,702.6,204.1z M704,306.2
		c-1.2,2-1.2,2-1.2,5.5C703.4,309.4,704.6,308.1,704,306.2z"/>
	<path fill="none" d="M721.9,347.1c3.3-1.6,6.9-2.4,10.4-2.8c8.3-1.1,16.6-2.1,25.2-2.4c2.6,3,6.9,1.6,9.9,3.9
		c-0.5,3.5-1,7.1-1.6,10.7c-0.3,2.1-1,4-2.2,5.7c-4.1,5.9-5.4,12.4-5.2,19.6s0.2,14.5-1.2,21.7c-0.3,1.5-0.5,3.1-1.5,4.9
		c-6.6,0.3-13.4-0.1-20.3-0.3c-0.6-1.7-2.1-2.2-3.6-2.6c-5-1.4-10-2.9-15-4.3c-0.9-1.6-0.6-3.7-2.1-5.1c-0.7,1.5,0.3,2.7,0.2,4.5
		c-7.4-1.5-14.6-3.8-22.1-4.5c-0.5-1.1,0.3-1.8,0.6-2.6c2.8-5.7,5.6-11.4,8.5-17.1c2.7-5.5,4.3-12.7,4-18.6
		c-0.8-1.3-2.3-2.3-2.4-4.5C709.4,350.2,715.6,348.3,721.9,347.1c0.2,3,2.8,3.1,5,3.6C725.3,349.5,723.6,348.3,721.9,347.1z
		 M749,393.8c1.6-2.7-1-5.7,1.5-7.8C747.2,387.3,746.6,390.1,749,393.8z M739.4,359.8c-1.8,2.8-2.1,5.1-1.2,8.4
		C739.1,365.4,739.1,362.6,739.4,359.8z M737.2,376.3c-1.8,3.2-2.2,6.7-0.9,10.8C736.1,383.1,736.6,379.7,737.2,376.3z M724.3,359.3
		c-2.1-1.2-3.4-2.4-5.8-2.9C720.2,358.5,721.6,359.4,724.3,359.3z M754.3,362.8c0.1-1.4,0.2-2.9,0.3-4.9
		C752.9,359.8,753.3,361.3,754.3,362.8z M751.3,381c0.8-0.3,0.5-1,0.6-1.4s0.3-1-0.3-1.3C751.3,379.2,750.6,380,751.3,381z
		 M720.5,366c-1-0.5-1.5-1.4-2.5-0.8C718.5,366.2,719.2,366.4,720.5,366z M753.7,367.1c0.3-0.8,0.7-1.3,0-1.9
		C753.4,365.8,753.3,366.3,753.7,367.1z M729.6,360.2c0.2,0.4,0.3,0.6,0.4,0.7c0.3,0.3,0.9,0.7,1,0.2
		C731.2,360.6,730.6,360.1,729.6,360.2z"/>
	<path fill="none" d="M756,410.5c1,1,0.3,2.4,0.9,3.7c2.8,3.3,2.8,4.7-0.3,6.3c0.4,0.9,1.5,0.1,2.2,0.9c0.7,1.8,1.1,3.8-0.8,5.8
		c1.9,8.4,5.9,16.4,6.8,25.2c-4.8-0.2-9.3,1.1-13.9,2c-6.4,1.4-12.8,2.9-19.2,4.4c-0.5,0.1-1.1,0.3-1.8-0.1
		c-0.4-2.7-0.9-5.5-1.3-8.4c1.1-2.4,1.1-2.4,0.7-5.3c-1.9,0.9-0.8,3.6-3,4.5c-3.6-1.3-7.4-2.8-11.5-3.1c-7.1-0.4-14.2-1.8-21.3,0.1
		c-2.4,0.6-4.5,2.3-7,2.7c-1,0.2-1.9,0.8-3.1,0.7c-1-5.7-1.9-11.4-2.1-17.1c-0.1-3.2,1.2-6.2,2-9.3c1.3-5.2,2.9-10.3,4.5-15.3
		c1.1-3.3,2.9-6.3,3.8-9.7c2.4-0.3,4.5,0.2,6.5,0.7c10.5,2.4,21.1,4.6,31,9c4,1.8,8.2,2.5,12.6,2.4
		C746.5,410.4,751.3,410.5,756,410.5z M735.3,436.3c-2.5,1.4-3.1,4-3.8,6.5C733.5,441.1,733.8,438.4,735.3,436.3z M730.5,448.6
		c3,0.5,5-0.9,7.2-0.9C735.5,447.9,733.2,447,730.5,448.6z M725.6,437.3c0.7,3.4,1.2,4.1,3.1,4.8
		C727.5,439.2,727.5,439.2,725.6,437.3z M712.3,408.1c1.7,1.1,3.6,1.7,5.7,1.3C716.1,408.6,714.3,408,712.3,408.1z M702.9,411.6
		c-2.8-0.6-4.8-1.5-6.9-0.6C698.1,411.1,700,412.2,702.9,411.6z M730.1,433.4c0.2-0.1,0.4-0.2,0.6-0.4c-0.3-1.9-1.9-2.8-3.5-3.8
		C728.2,430.7,729.2,432,730.1,433.4z"/>
	<path fill="none" d="M708.4,272c6,3.8,11.7,8.2,17.1,12.8c3.7,3.2,7.4,6.4,11,9.7c3.2,2.9,7.2,4.3,11.1,5.8c3,1.1,6-0.4,8.7-1.8
		c1.1-0.6,1-1.9,1.4-3.1c4.1,4.1,8.5,7.6,12.9,11.1c7.9,6.3,9.7,19.6,1.6,27.1c-1.9,1.7-2.6,4.6-3.9,7c-0.3,0.6-0.4,1.3-1.2,1.7
		c-4.9-2.2-10.1-3-15.5-2.6c-4.9,0.4-9.7,1-14.6,1.5c-2.5,0.3-4.9,0.7-7.5,0.4c-1.5-0.2-2.9,0.4-4.4,0.6c-6.8,1.1-18.3,6.3-22.9,8.8
		c-2.5-6.9-4.8-13.9-8.5-20.7c7.2-0.6,11.3-5.3,15.1-10.3c1.7-2.2,3.3-4.7,4.7-7.1c4.2-7.2,4.6-15,3.3-23.1
		c-1.1-6.8-4.4-12.5-8.7-17.7L708.4,272z M728.9,332.9c-0.8,2.1,0.5,2.2,1.4,2.5c6.9,1.9,13.6,1.6,20.3-1.1c0.8-0.3,1.7-0.6,2-2.5
		C744.7,334.7,736.8,335.2,728.9,332.9z M756.5,330.4c-0.9-0.3-1.4,0-1.7,0.9C755.8,331.6,756.3,331.4,756.5,330.4z"/>
	<path fill="none" d="M708.3,272.1c-1.7-0.9-2.5-2.5-3.6-3.8c0.5-1.4,2.2-0.8,2.8-1.9c1.6-4.8,1.5-9.7,0.9-14.7
		c1.4-1,3.1-1.6,3.4-3.5l0,0c0.8,0,0.9,1,1.6,1.2c3.4-0.6,3.4-0.6,3.7-3c-1.1-0.3-1.3,1.2-2.3,1.1c-0.8-0.2-1.5-0.7-2-1.5
		c-1.8-2.9-4.3-5.4-5.8-8.5c0.9-0.8,1.4,0.3,2.4-0.4c0,1.8,0.2,3.2,1.3,4.3c0.6,0.6,1.1,1.1,2.2,0.9c1-2.3-2.3-3.5-1.4-6.2
		c0.4-0.5,1-1.3,1.7-2.1c0.6,0.3,0.8,0.7,0.9,1.2c0.1,0.9-0.9,1.2-1,2.2c0.6,1.3,1.2,2.9,1.8,4.4c1.3-0.3,1.6-1.3,2.1-2.1
		c-0.2-1.3-1.4-1.5-2.3-2.3c0.3-1.4,1.2-2.9-0.1-4.3c-1.1-1.1-2.4-2.1-3.7-2.9c-2.2,0.8-2.1,3.1-3.2,4.9c-0.4-3.2,0.4-4.6,3.6-6.5
		c1.4,0.1,2.2,0.9,2.9,2c0.6,1,1.5,1.7,2.5,2.2c1.9,1,2.7,0.8,4.8-1.7c-1.6,0.5-2.9,0.8-4.5,0.1c2.6-0.1,4.2-1.7,6-2.9
		c1.7-1.2,3.3-2.7,4.8-3.6c1.3-4.3,4.2-7.8,3.4-12.5c-2.1,0.6-4.4,0.5-6.8-0.3c1.4-1.3,2.5,0,3.9-0.4c2.1-1.4,4.7-1.3,7.3-0.4
		c0.5-0.2,1-0.5,1.2-1.1c-1-1.5-2.9-1.6-4.1-2.8c0.1-0.1,0.2-0.2,0.3-0.3c3.1,0.4,5,3,8.1,4c1-1.1,2.9-0.3,4.3-1.3
		c1.9,0.4,2.6,1.9,3.1,3.6c1.1,3.5,1.8,7,3.4,9.9c-0.2,1.8-1.8,2.1-2.6,3.4c-0.9,4.9,2.2,8.6,4.6,12.6c-0.7,1.1-1.4,1.8-2.8,1.1
		c-1.4-0.6-2.1,0.2-2.8,1.1c0.3,1.1,1.3,0.1,1.9,1.1c-0.2,1,0.4,2.3,1,3.4c-0.8,1.6-2.1,1.5-3.4,1.6c-1,0.1-2.2-0.5-3.3,0.4
		c1.6,2.4,5-0.7,6.3,2.5c0,1-1.3,1.3-1.6,2.5c0.5,1.6,2.1,3.4-0.2,5.5c-2.4,0.6-5,1.4-8,0.7c-1.9-0.4-4.3-0.8-6.4,1.4
		c-1.2,4.4,0.2,8.8,1.4,13.5c1,0.6,2.1,1,2.8,2.1c4.4,6.4,9.8,11.9,14.7,17.9c0.7,0.9,1.6,1.6,2,2.8c-0.2,0.2-0.3,0.6-0.6,0.7
		c-0.4,0.2-0.9,0.2-1.4,0.3c-1.5-1.4-1.9-3.7-4.2-4.9c0.3,1.7,1.6,2.8,1.7,4.3c-0.4,1-1.6,0.6-2.1,1.3c-6.2-3.1-12-6.7-17-11.4
		c-6.5-6.2-13.8-11.5-21.5-16.2c-0.8-0.5-1.5-1-2.1-1.5c-1.6,0.8,0.1,1.6-0.2,2.4L708.3,272.1z M718.3,247.4
		c-0.5,3.3,0.2,5.6,2.2,6.4c3.1,1.4,6.3,2.5,10.1,3c-3.4-2.7-7.7-2.6-10.5-5.3C719.2,250.5,719.5,248.9,718.3,247.4z M738.5,230.7
		c2.3-0.6,3.3,2.6,5.7,2c-0.6-2,0.5-3.3,1.6-4.7C742.6,227.2,740.8,229.3,738.5,230.7z M741.5,225.4c1.6,0.5,3.3,1.1,5,1.6
		c0.6,0.2,1.1,0,1-0.8c-4.6-3-8.4-2.7-10.7,0.8C738.4,226.5,739.7,225.5,741.5,225.4z M725.1,259.8c-0.6-1.6-1.5-3-3-3.8
		C722.5,257.7,723.7,258.9,725.1,259.8z"/>
	<path fill="none" d="M728.3,512.2c1.2,3,1.9,6,2,9.1c0.1,4,0.4,7.9,1.3,11.8c0.1,0.6,0.4,1.3,0.2,2c-1.1,3.9,0.1,7.4,2.3,10.6
		c0.2,0.3,0.3,0.6,0.5,1c-2.5,5.6-4.5,11.3-6.5,17.1c-2.3,6.5-3.2,13.2-3.5,20c-0.3,5.5,0.4,10.9,1.6,16.2c0.1,0.7,0.5,1.4,0.4,2
		c-1.1,3.2,0.3,6.5-0.4,9.8c-0.4,2,0.5,3.8,0.4,5.7c-0.2,7.4-1,14.7-2.2,21.9c-0.8,0.4-1.3-0.7-2-0.2c-1.7,1.2-3.1,2.9-3.6,4.8
		c-0.8,2.9-2.9,4.8-4.5,7.3c-2.9-1.6-4.4-4.2-5.3-7.1c-0.6-2-1.3-3.9-2.5-5.1c-1.1-1-2.3-0.5-3.2-0.9c-0.1-0.3-0.2-0.5-0.1-0.7
		c0.5-4.6,1.2-9.2,1.6-13.8c1.1-11.2,1.7-22.4,4-33.5c2.4-11.9,4.8-23.8,9.3-35.1c0.6-1.5,0.5-3.1,0.8-4.6c0.3-1.8,0.7-3.6,1.7-5.1
		c2.7-4.2,3.6-9,4.4-13.8c0.8-4.6,1.8-9.1,1.7-13.8C726.6,515.8,727.7,514,728.3,512.2z"/>
	<path fill="none" d="M681.6,646.5c-0.5,3.1,1.5,5.8,1.6,8.9c0,0.6,0.9,1,1.6,1.1c1.4-0.2,2.3-1.3,3.4-2.2c3.2-2.7,6-5.8,8.8-8.9
		c2-2.2,4.2-4.1,7.3-4.8c1.6,1.1,1.7,2.9,2.2,4.5c0.6,1.7,1.9,2.8,2.9,4.4c-2.9,1.9-7.1,1.7-9,5.1c0.1,0.3,0.3,0.5,0.4,0.8
		c2.6-1,5.2-2,7.8-2.9c2.3-0.8,2.3-0.7,4.7,0.8c-3.1,1.6-7.4,0.9-9.9,4.8c3.5,1.1,6.1-1.2,9.3-1c-1.7,1.7-4.7,1.2-5.5,3.8
		c1.7,1,1.7,1,11.7-1.7c0.9,1,1.9,2.1,2.4,3.6c-2.9,0.7-5.9,0.2-8.4,2.3c2,2,3.5,1.8,9.8-0.7c1.9,1.3,4,2.4,5.9,3.9
		c2,1.6,4.2,2,6.6,2.5c1.6,0.3,3.6,0,5,1.7c-2.5,1.4-5.4,1.7-7.5,3.5c-2,1.6-3.4,3.9-5.5,5.4c2.7-0.2,4.2-2.5,6.2-3.7
		c2.2-1.3,4.6-2,6.7-3.3c1,1.5,0.1,2.4-0.8,3.3c-2.7,3-6.3,4.5-10.2,5.1c-6.3,1-12.5,2.1-19,1.6c-3.9-0.3-7.6-1.2-11.4-1.7
		c-2.6-0.3-4.3-2.5-6.1-4.1c-1.3-1.2-2.6-2.2-4.5-1.3c-0.5,0.9,1,0.9,0.7,1.8c-5.3,0.6-10.4-0.5-15.6-2.7c0.7-3.2,0.8-6.5,2.1-9.5
		c0.5-1.1,0.7-2.4,1-3.6c0.4-1.8,0.9-3.4,2-4.9c1.3-1.8,2-4.1,1.8-6.4C679.8,649.8,680.4,648.1,681.6,646.5L681.6,646.5z
		 M706.8,670.5c-0.2-1.1,0.2-1.9,0.3-2.8c0.4-2.6-1.2-4.4-3.8-4.5c-2.2-0.1-3.9,1.4-4,3.6c-0.1,2.5,1.6,4.2,4.3,4.1
		C704.5,670.9,705.5,670.7,706.8,670.5z M688.7,666.9c1.5-2,1.5-2,0.5-4.5c-1.6-0.1-3.2-0.9-5.2-0.2c-0.4,2.2-0.5,4.3-0.3,6.5
		c0,0.3,0.4,0.5,0.8,0.5c1.1-0.3,0.3-1.9,1.5-2c1.6,0,1.4,2.7,3.4,2.3C689.6,668.5,688.7,667.9,688.7,666.9z M698.8,666.5
		c-1.2-3.2-2.6-4.3-4.9-3.9c-1.9,0.3-3.3,1.8-3.4,3.6c0,1.9,1.2,3.4,3.1,3.9C696.1,670.7,697.4,669.8,698.8,666.5z M723.5,667.6
		c-2.2,0-4.6-0.9-7.1,0.7C719.2,669.9,721.4,669,723.5,667.6z"/>
	<path fill="none" d="M799.3,137.5c-3.4,0-6.8,0-10.2,0c-4.4-4.8-4.8-18.1-0.5-23.6c3.1,0.9,6.4-0.5,9.8,0
		C796.1,121.9,796,129.7,799.3,137.5z M793.9,122.6c-1,0.5-2.3,0.8-2.9,2c0.3,1.1,0.9,1.8,2,1.8c1.1-0.4,2-1,2.4-2.2
		C795.2,123.4,794.9,122.8,793.9,122.6z M790.5,124.5c-1.5-1.4-2.7-1.2-3.8,0.1C788.8,126,788.8,126,790.5,124.5z"/>
	<path fill="none" d="M687.1,134.3c-2,0.6-3.8,0.4-5.6,0.6c-3.2,0.3-5.1-1.2-6.5-3.8c-0.3-0.5-0.5-1-0.7-1.6
		c-1.2-5.4-1.3-10.8,0.3-16.1c0.2-0.9,0.6-1.7,1.6-2.6c3.2,0.6,6.6-0.3,10.1-0.3C683.6,118.5,683.7,126.4,687.1,134.3z M673.8,121.8
		c3,0.6,5.3,1.2,7.7,0.4c0.9-0.9,1.6-1.8,0.2-2.9C679,119.5,676.8,120.6,673.8,121.8z"/>
	<path fill="none" d="M734.7,132.1c-3.7,0-7.1,0-10.4,0c-4.3-5.4-4.7-18-0.6-23.7c3.2,0.9,6.5-0.4,10-0.1
		C731.3,116.4,731.3,124.2,734.7,132.1z M726.5,119c-0.1,1.3,0.6,1.9,1.9,2c1-0.4,1.9-1,2.3-2.2c-0.1-0.9-0.5-1.5-1.5-1.6
		C728.2,117.6,727.1,117.9,726.5,119z M725.6,119c-1.2-1.4-2.3-1.1-3.5,0.1C724.3,120.7,724.3,120.7,725.6,119z"/>
	<path fill="none" d="M750.9,115.8c-2.5,8.1-2.5,15.9,0.7,23.6c-8,2.5-11.5,0.6-13.1-6c1-1.6,1.9-3.4,2.6-5.2
		c1.7-0.1,3.3-0.2,4.8-0.3c1-0.8,1.8-1.6,0.8-3c-1.7-0.3-3.4,0.7-5.5,0.6c0.6-2.9,0.4-5.8,0.1-8.9
		C744.6,116.4,747.6,116.1,750.9,115.8z"/>
	<path fill="none" d="M688.5,110.1c2.4,1.7,2.9,2.6,3.5,6.5c-0.7,1.2-3.1,0.7-3,3.1c1.9-0.6,3.7-1.2,5.5-1.9
		c1.9,2.3-0.1,5.4,1.6,7.7c-1.9,1.5-4.1,0.1-6.2,0.6c0.3,1.7,2,0.9,2.4,2.2c-0.4,1.9-0.5,4.2-2.8,6c-3-2.5-3.4-6.1-3.6-9.5
		C685.5,119.9,685,114.7,688.5,110.1z"/>
	<path fill="none" d="M800.8,113.3c5.2,4.3,5.7,19.1,1,24.4c-3.3-2.7-3.5-6.7-3.8-10.4C797.5,122.6,797.6,117.7,800.8,113.3z"/>
	<path fill="none" d="M736.5,108c5,4.4,5.3,19.7,0.7,24C732.2,127.9,731.7,112.8,736.5,108z"/>
	<path fill="none" d="M756.8,132.9c0,3.9-0.4,4.9-2.6,6.8c-4.9-4.2-5.4-19-0.8-23.8c2.2,1.3,2.7,2.3,3.4,6.5c-1,0.9-3.1,0.5-3.1,2.5
		c0.8,1,1.4-0.5,2.3-0.1c1.1,2.1,1,4.7,1.4,7.1C757.3,132.1,756.9,132.6,756.8,132.9c-0.7-1.5-0.7-1.5-2-0.5
		c0.1,0.2,0.2,0.4,0.4,0.4C755.6,132.8,756.2,132.8,756.8,132.9z"/>
	<path fill="none" d="M773,129.5c-0.6-0.1-1.2-0.1-1.7-0.2c-1.8-5.2,0.3-9,5.3-9.9c0.7,0.2,0.1,1.1,1,1.5c1.7-1,3.5-1.8,5,0.6
		c-0.9,1-1.7-0.4-3.1,0.3c-1.1,0.8-0.9,2.6-1.9,4.4c2.4-0.1,2.1-2.1,3.6-2.9c0.7-0.1,1.8-0.2,3.1-0.3c0,2.2,0,4.2,0,6.2
		c-3.2,0.9-6.4,1.5-10.3-0.8c1.9,0,3.5,1.2,3.8-1.1c-0.4-0.8-1.8-0.2-2.1-1.3c-0.9-1.8,1.7-3.6-0.2-5.7
		C774.8,123.5,773.9,126.3,773,129.5z"/>
	<path fill="none" d="M708.3,214c1.5-1.3-0.4-2.9,0.7-4.6c4.6,0.8,9.3,1.2,13.7,2.9c0.3,1.1-1.3,1-0.9,2c2.7,0.8,4.5,0.6,8.1-0.8
		c0.1,0.3,0.2,0.6,0.2,0.9c0,0.2-0.1,0.4-0.2,0.8c-3.8,0-7.4,1.4-11.1,2c-1.5,0.3-2.9-0.2-4.3-0.7
		C712.5,215.9,710.3,215.6,708.3,214z"/>
	<path fill="none" d="M687.8,214.1c-0.3,6.1-1.6,12-3.6,17.7C680.9,224.5,682.6,215.8,687.8,214.1z"/>
	<path fill="none" d="M715.1,124.4c-1.5-0.7-2.3-1.9-3.6-2.1c-0.3-1.7-0.9-3.1-0.3-4.6c2.7-1.3,5.5,0.7,8.4-0.3c0,2.3,0,4.3,0,6.5
		C718.2,124,716.7,124.2,715.1,124.4z"/>
	<path fill="none" d="M711.7,220.8c4.3,2,8.6,3.6,13.4,1.5c-2.7,2.6-6.5,1.9-9.3,3.6c-2.9-0.3-5.7-1-8.2-1.7
		c-0.8-1.2-0.1-1.9,0.1-2.8c1.4,0.5,2.7,1,4,1.5c0-1.2-1.2-1.1-1.5-1.8C710.6,220.6,711.2,220.8,711.7,220.8L711.7,220.8z"/>
	<path fill="none" d="M708.4,242.6c-0.8-0.4-1.6-0.7-2.4-1.2c-0.5-0.3-0.9-0.6-1.5-1c-0.6-5.2,1.6-9.8,2.5-15c2.5,0.9,5,0.7,7.1,1.7
		c-0.2,1-0.9,0.7-1.6,0.5c-3.4-0.7-6,1.2-6.3,4.7c-0.1,1.5-0.1,2.9-0.8,3.9C705.4,239.2,708,240.4,708.4,242.6L708.4,242.6z"/>
	<path fill="none" d="M706.2,252.6c1.2,5,0.1,9.3-1.1,13.6c-0.5-3-1.1-6-1.5-9C703.3,255.4,703.8,254.8,706.2,252.6z"/>
	<path fill="none" d="M711.7,217.5c2.9,1.2,6.1,1.2,9.2,2.3c-3,1.8-6.2,1-9.2,1.1l0.1,0.1c-0.8-0.7-1.9-0.5-2.8-0.9
		c-0.6-0.3-1.2-0.5-1.1-1.5c1.4-1.3,2.9,0.5,4.4,0.1C712.1,218.2,712,217.8,711.7,217.5L711.7,217.5z"/>
	<path fill="none" d="M771.9,119.5c-1.1,1.7-2.1,3.2-3.1,4.6c0.2,1.8,0.7,3.4,0.5,5.1c-1.3,0.4-2.1,0.1-2.3-1.2
		c-0.3-2.5-0.5-5,1.8-6.8C769.7,120.7,769.7,118.8,771.9,119.5z"/>
	<path fill="none" d="M736.7,266.8c-0.4-2.3-0.5-4.1-0.1-6.1c1.9-0.2,3.5,0.6,5.3,0.9C738.7,261.6,738.6,264.8,736.7,266.8z"/>
	<path fill="none" d="M711.8,248.1c-1.6,0.2-3.1,0.1-4.5-0.6c-0.2,0.4-0.4,0.8-0.7,1.2c-1.2-1.2-1.5-2.7-2.5-4.7
		c2.3,1.3,4.1,2.1,6.1,2.3C711.2,246.4,711.8,247.1,711.8,248.1L711.8,248.1z"/>
	<path fill="none" d="M725.2,200.2c-3.3,0-6.7,0-10,0C718.6,199.7,722,199.4,725.2,200.2z"/>
	<path fill="none" d="M730,216.9c-1.5,2-3.5,1.7-5.3,2C726.2,218,727.5,216.4,730,216.9z"/>
	<path fill="none" d="M708.3,242.7c0.8,0.4,1.4,1,1.8,2.1c-2.3,0.1-3.9-0.9-5.7-2.2C706,241.6,707.1,244.4,708.3,242.7L708.3,242.7z
		"/>
	<path fill="none" d="M697.4,118.6c-1-1-1.2-2.1-1.6-3c0.5-0.8,1.1-1.1,2.1-0.9C698.1,115.9,698.2,117.1,697.4,118.6z"/>
	<path fill="none" d="M703.1,247.6c2.1,1.5,0.2,3.3,1.3,4.7c0.1,0.2-0.5,0.9-1.4,1C702.6,251.5,702.8,249.7,703.1,247.6z"/>
	<path fill="none" d="M732.6,200.6c1.7,0,3.3,0.4,5,2.2C735.3,202.5,733.9,201.6,732.6,200.6z"/>
	<path fill="none" d="M712,232.2c-0.4,1.9-1.4,2.6-2.4,3.3C709.8,234.3,709.9,233,712,232.2z"/>
	<path fill="none" d="M752.5,244.6c-0.7-0.9-0.7-1.7,0-2.4c0.4-0.2,0.7,0,0.8,0.3C753.3,243.3,753.2,244,752.5,244.6z"/>
	<path fill="none" d="M711.8,217.4c-1.3,0.4-2.3-0.4-3.3-1.1C709.9,215.9,710.8,216.7,711.8,217.4L711.8,217.4z"/>
	<path fill="none" d="M749.4,285.5c1.3,0.7,2.1,1.4,2.6,2.4C750.7,287.5,750.7,287.5,749.4,285.5z"/>
	<path d="M726.5,208c-0.9,0.5-1.8,0.7-2.6,0c0-0.5,0.3-0.5,0.6-0.6C725.1,207.9,725.8,207.9,726.5,208z"/>
	<path fill="none" d="M723.1,202.2c-0.9,0-1.8,0-2.7,0v-0.1c0.9,0,1.8,0,2.7,0C723.1,202.1,723.1,202.1,723.1,202.2z"/>
	<path fill="none" d="M741.3,209.7c-1.2,0.1-1.6-0.3-1.5-1.3C740.7,208.3,741.1,208.6,741.3,209.7z"/>
	<path fill="none" d="M729,200.7c-0.5,0.3-1.1,0.3-1.6,0C727.9,200.4,728.4,200.4,729,200.7z"/>
	<path fill="none" d="M739,207.1c-1.1,0-1.4-0.4-1.8-0.8c0.3-0.5,0.6-0.3,0.9-0.1C738.4,206.4,738.6,206.6,739,207.1z"/>
	<path fill="none" d="M715.8,656.5c0.3-0.5,0.6-0.8,1.2-0.7C717.3,657.2,716.3,656.5,715.8,656.5z"/>
	<path fill="none" d="M718.7,229.3c-0.5,0.3-1,0.2-1.5,0C717.7,229.1,718.2,229,718.7,229.3z"/>
	<path fill="none" d="M395,453.2c6.3-2.3,12.4-3.2,18.6-3.9c6.1-0.7,12.1-0.5,18.2,0.7c2.3,0.4,4.2,1.6,6.5,2.5
		c0.7,2.7,0.5,5.6,0.5,8.4c0.1,13.7,0.1,27.5,0,41.2c0,4.1-1,8.1-2,12.1c-0.9,3.6-1.9,7.2-2.8,10.7c0.2,0.8,1.2,0.4,1.2,1.1
		c-0.5,3.8-1.5,7.4-1.7,11.2c-0.1,1.9-1.2,3.6-2.1,5.3c-1.3,2.4-2.5,4.8-2.5,7.7c0,1.7-0.6,3.4-1.8,4.6c-0.9,0.9-1.2,1.9-1.4,3
		c-1.7,7.8-4.6,15.2-6.7,22.9c-0.8,2.9-1.7,5.6-1.4,8.7c0,0.4,0,0.9-0.1,1.4c-1.3,8-1.9,16.2-2.9,24.3c0,0.3-0.1,0.7-0.2,1
		c-0.5,5.6-1,11.2-1.6,16.9c-0.2,1.9-0.2,3.8,0.6,5.9c-5,2.2-8,6.4-11.2,10.2c-1.2,0.4-1.6-1-2.5-0.9c-1,0.6,0.1,1.2-0.2,2.2
		c-0.3,0.7-1.4,1.2-2.2,2.3c-0.8-1.8-0.6-3.1,0.2-4.7c1.4-3,1.4-6.5,1.3-9.7c-0.4-9.2-0.6-18.4-2.6-27.4c-1.9-8.4-2.3-16.9-2.7-25.4
		c-0.3-5.7,1.2-11,2.7-16.4c1.5-5.1,3.6-10.1,4.9-15.2c1.9-7.4,4.9-14.6,5.5-22.4c0.3-3.9-0.1-7.7-1.1-11.5
		c-2.8-10.4-5.2-20.9-7.6-31.4c-1-4.5-1.1-9-0.5-13.5c0.2-1.6,0.1-3.2-0.2-4.7C396.6,464.6,395.8,459,395,453.2z M421.9,547.1
		c2.9-0.8,4.5-3.2,3.6-5.9c-0.5-1.7-0.6-3.3-0.2-5c0.1-0.6,0.3-1.1-0.7-1.4c-2.4,2.3-1.2,4.8-0.3,7.4c-0.4,0.7-0.8,1.5-1.2,2.3
		C422.7,545.3,421.7,545.9,421.9,547.1z M400.1,646.5c1.5-4.1,1.7-8.5,0.5-12.9c-0.5,4-0.9,7.9-1.3,11.9
		C399.3,646,399.5,646.5,400.1,646.5z M410.2,558.2c-2,1.9-3.6,10.4-3.2,14.5c0.5-0.1,0.7-0.6,0.8-1
		C408.6,567.2,409.4,562.7,410.2,558.2z M420.4,530.5c-1.1-2.6,1.8-5.3-0.4-7.8C421,525.3,418,528,420.4,530.5z M410,545.4
		c-1.4,2.5-1.3,3.7,0,6.3C410,549.6,410,547.5,410,545.4z M402.9,475.3c-0.3,3-0.3,3,0.9,5.4C404.1,478.7,403.5,477,402.9,475.3z
		 M405.8,488.1c-0.3,1.1-0.3,1.1,0.5,1.6C406.6,489,406.8,488.4,405.8,488.1z M400.9,630.6c0.4-1,0.7-1.8-0.1-2.4
		C400.4,628.9,400.4,629.6,400.9,630.6z M401.1,615.1c-0.4,0.7-0.2,1.2,0.5,1.4C402,615.8,402,615.2,401.1,615.1z"/>
	<path fill="none" d="M441.8,461.2c10.4-1.3,31-5.9,34.4-7.6c1,0.8,0.9,2.1,0.8,3.1c-0.1,2.9,0.6,5.6,1,8.4c0.7,5,0.5,10,0.5,15
		c-0.1,11.3-2.2,22.4-4.5,33.4c-0.7,3.3-1.5,6.7-1.2,10.1c0.5,4.8-0.1,9.6-0.5,14.4c-0.1,1.4,0.2,2.7,0.6,3.9
		c-3.8,9.6-3.7,19.6-4.3,29.6c-0.4,6.7-0.7,13.6-4.2,19.8c-1.2,2.2-1.3,4.8-1.7,7.3c-0.3,1.8-0.7,3.5-1.6,5.1
		c-0.8,1.5-1,3.5-1.4,5.2c-1.6,7.2-3.7,14.3-4.9,21.6c-0.4,2.1-0.6,4.3-0.5,6.3c-0.8,1.9-2.9,2.8-2.8,5.1c-3.6,2.1-7.2,4.1-10.8,6.1
		c-2-0.8-3.2-2.2-4.3-4.1c1.7-2,1.7-4.5,2.1-6.9c1.4-9.6,2.5-19.2,2.5-28.8c0-3.3-0.3-6.6-1.1-9.8c-1.3-4.9-1.4-9.8-1.1-14.9
		c0.8-11.3,3.6-22.2,7.6-32.7c0.3-0.9,0.6-1.7,1.8-1.9c1.3,1.5,0,4.1,2,5.5c0.6-1.8,0.2-3.5,0.2-5.1c-2.6-2.9-3.4-6.5-3.9-10
		c-1.3-9.1-2.3-18.3-4.8-27.1c-0.6-2.2-1-4.4-0.3-6.7c0.1-0.2,0.1-0.4,0.1-0.7c-0.3-6.8,0.7-13.6,0.4-20.4
		C441.6,476.7,441.8,469.1,441.8,461.2z M442.4,632.4c-1.5,4.1-3.1,7.5-3,11.5c1,0.6,1.7,1.6,3.1,2c1.7-2.3-1.1-2.8-1.4-3.8
		C440.3,638.7,443.3,636.3,442.4,632.4z M453.4,564.3c-1.6,2.7,0,5.4,0.1,8C454.9,569.7,454.8,567,453.4,564.3z M451.9,585.4
		c0.9-1.5,1.7-7.3,1.4-8.9c-0.5,0-0.9,0.3-0.9,0.8C452.6,580,451.8,582.7,451.9,585.4z M469.9,526.6c-2.3,1.1-3.2,3.2-4.4,5.2
		C467.9,530.9,469.2,529,469.9,526.6z M466,538.8c0.7-1.5,1.5-3,2.2-4.5c0.1-0.1-0.1-0.4-0.3-0.7C466,534.8,465.2,536.5,466,538.8z
		 M466.8,545.3c0.5-1.7,1.2-3.5-0.2-5.5C465.4,542,466.6,543.6,466.8,545.3z M450.6,555.9c0,1.6,0,1.6,1,2.9
		C452,557.6,451.9,556.6,450.6,555.9z M459.1,532.4c1.4,1.1,2.3,0.8,3.5-0.5C461.3,531.9,460.4,531.8,459.1,532.4z M465.8,548.2
		c-0.2-0.1-0.3-0.3-0.5-0.3c-0.4,0-0.6,0.3-0.5,0.6c0,0.2,0.3,0.4,0.4,0.4C465.5,548.8,465.8,548.6,465.8,548.2z M443.4,628.6
		c-0.5,1.1-0.8,1.6-0.3,2.2C443.8,630.5,444,629.9,443.4,628.6z M445.4,617.7c0.2-0.1,0.4-0.1,0.5-0.3c0.1-0.1,0-0.5-0.1-0.5
		c-0.3-0.2-0.6-0.1-0.7,0.3C445.1,617.3,445.3,617.5,445.4,617.7z"/>
	<path fill="none" d="M406.6,351.1c0.8,0.3,1.1-0.1,1.5-0.9c1.8-3.6,2.7-7.5,4.1-11.2c1.4-4.1,2.9-8.1,4.2-12.2
		c1.7-5.3,2-10.9,3.3-16.4c0.9-3.8,1.6-7.8,3.5-11.3c2.1-3.8,0.9-7.8,0.3-11.7c-0.3-2.4-1-4.7-1.5-7c-0.2-0.8-0.4-1.6,0.2-2.5
		c0.9-0.7,2.5-0.4,3.3-1.5c0.9,0,0.8,0.9,1.4,1c1.1,0.3,1.9-0.7,3.2-0.5c1,1.1,2.6,1.1,4.5,1.3c-2.4,3.3-3.6,6.7-3.6,10.6
		c0,5.1,4.1,11.4,9.2,12.1c2,0.3,3.7,1.7,5.8,1.9c3.9,0.4,7.8,0.2,11-2.6c3,0.4,5.9,0.3,8.7-0.7c2.5-0.8,2.6-1,3.3-4
		c2.7,2.7,5.4,5.2,8.3,7.4c1.4,1.1,2.8,2.3,4.3,3.4c5.8,4.1,9.2,13.8,6.5,20.7c-0.6,1.6-1.3,3.2-2.5,4.4c-3.1,3.1-4.5,7.2-6.7,11.1
		c-4.8-2-9.9-3.1-15.1-2.7c-4.8,0.3-9.5,1-14.2,1.4c-4.5,0.4-9,0.8-13.6,1.2c-0.3,0-0.6-0.1-1.2-0.3c0.2-2.8,0.6-5.6,0.4-8.9
		c5,2,9.7,3.4,14.7,3.4c5,0.1,9.8-0.9,14.2-3.3c-0.5-1.4-1.2-1.2-1.9-1c-9,3.8-17.8,2-27-0.5c0-8.5,0.4-17,1.7-25.3
		c1.1-1.7,2.6-2.9,3.1-4.7c-0.7-0.8-1.3-0.5-1.6,0c-1.8,2.2-3.4,4.6-3.8,7.5c-1.2,8.7-2.2,17.4-1.9,26.1c0.3,7.3-1.2,14.4-2.9,21.5
		c-1.7,7-5.6,12.2-10.4,17.1c-0.8,0.8-1.5,1.7-2.3,2.5c-1.1,0.1-1.7-0.7-2.3-1.3c-5.2-4.7-9.4-10-11.2-17.1c-1-3.9-2.5-7.8-3.1-11.8
		c-0.8-5.6-2.8-11-4.9-16.3c-1.8-4.6-2.9-9.6-5.2-14c-0.3-0.7-0.3-1.5-0.4-2.3c-0.3-2.6-0.7-5.2-0.8-7.8c-0.5-8.3,0.6-16.3,5.3-23.5
		c0.8-1.2,1.7-2.1,3-2.7c2.8-1.2,5.4-2.9,9-3.3c-0.5,1.9-0.7,3.7-0.7,5.5c-0.1,4.8,3.5,10.4,8.6,11.4c2.5,0.5,4.8,2,7.5,2.1
		c0.6,2.3,0.6,2.3-3.3,9.9c-0.7,0.4-0.8-0.7-1.5-0.6c-0.1,0.3-0.3,0.6-0.2,0.9c0.7,2.7,0.2,5.3-0.4,8c-0.8,3.3-1.6,6.6-1.5,10.1
		c0,1.6-0.6,3.1-1.2,4.6c-1.7,4.6-3.4,9.2-5.2,13.7C407.4,344.9,406.6,347.9,406.6,351.1c-0.3,0.4-1,0.4-1,1.2c0.2,0.4,0.1,1,1,1.1
		C406.6,352.6,406.6,351.8,406.6,351.1z M395.7,317c0.9,2.6-0.9,5.6,0.9,8.2C397.7,322.3,396.6,319.7,395.7,317z M434.2,304.7
		c-1.4,1.5-1.4,1.5-0.6,3.5C433.9,307,434.8,306,434.2,304.7z M430.3,323.5c1-2.1,1-2.1,0.5-3.9c-0.6,0.7-0.6,1.7-0.8,2.5
		C429.9,322.5,429.8,322.9,430.3,323.5z M406.3,356.4c-0.2,1.1-0.5,2,0.7,2.6C407.4,358,407.1,357.2,406.3,356.4z M429.4,330
		c0.4-0.7,0.7-1.1,0.8-1.4c0.2-0.4,0.4-0.9-0.2-1.3C429.4,327.8,429.1,328.5,429.4,330z M432.4,312c-0.6,0.9-0.8,1.6-0.2,2.5
		C432.7,313.7,433,313,432.4,312z M466,331.7c1-0.1,1.8,0,2.1-1.2C467,330.3,466.4,330.5,466,331.7z M426.7,281.8
		c0.5,0,0.5-0.3,0.6-0.6c0.1-0.4,0.2-0.9-0.5-0.8C426.4,280.8,426.4,281.3,426.7,281.8z"/>
	<path fill="none" d="M440.9,444.9c-2,1.1-1,3.8-2.9,4.8c-10.9-3.9-21.9-4.6-33.2-3c-2.4,0.4-4.3,2.3-6.7,2.6
		c-1,0.1-1.9,0.6-2.8,0.8c-1-0.6-0.8-1.4-0.9-2.2c-0.6-4.5-1.1-9-1.6-13.5c-0.2-1.4-0.1-2.7,0.2-4c1.9-7.4,3.7-14.7,6.2-22
		c1.1-3.3,3-6.3,3.8-9.8c3.1-0.2,6,0.5,8.8,1.2c4.6,1.1,9.2,2.3,13.9,3.3c5,1.1,9.7,3.2,14.4,5c4.4,1.7,8.9,2.6,13.6,2.4
		c4.5-0.2,9.1,0,13.6,0c1.2,1,0.4,2.5,1.1,4c1.2,1.1,2.8,2.5,1.6,4.9c-0.4,0.9-1.6,0.6-2.2,1.1c0.6,1.2,1.6,0.2,2.4,0.9
		c0.7,1.8,1.1,3.8-0.8,5.8c1.9,8.5,6.1,16.5,6.7,25.6c-1.3-0.3-2.3-0.4-3.5-0.2c-7.3,1.2-14.5,3-21.6,4.7c-3.1,0.7-6.2,1.4-9.6,2.1
		c-0.5-3.1-1-6-1.5-9C441.1,448.7,441.5,446.9,440.9,444.9z M442.9,442.8c1.4-1.3,3.2-4.9,3.5-6.7
		C444.2,437.9,443.7,440.4,442.9,442.8z M407.3,411.2c2.5,0.4,5,0.8,7.6,1.1C412.5,411.2,410,410.5,407.3,411.2z M442.5,448.6
		c2.5,0.6,4.7-0.9,7.2-0.8C447.2,447.8,444.7,447.4,442.5,448.6z M423.7,408.2c1.8,1,3.6,1.8,6,1.4
		C427.6,408.5,425.6,408.3,423.7,408.2z M440,442.3c-0.6-2-1.4-3.8-3.2-4.9C437.6,439.2,437.8,441.4,440,442.3z M441.9,434
		c-0.4-2.9-0.6-3.1-3.5-4.7C439.6,430.8,440.7,432.2,441.9,434z"/>
	<path fill="none" d="M467.1,408.4c-6.7,0-13.5,0.3-20.4-0.5c-0.6-1.5-1.8-2.1-3.3-2.5c-5.1-1.4-10.2-2.9-15.3-4.4
		c-0.8-1.7-0.6-3.7-2.1-5.1c-0.6,1.6,0.7,2.9,0.2,4.6c-7.4-1.6-14.6-3.8-22.4-4.6c2.6-6.8,7-12.6,8.6-20c1.7,0.7,2.6,2.4,4.5,2.6
		c4.2-2.9,8.2-6.1,11-10.6c2-3.4,3.4-6.9,3.9-11c0.4-3.8,1.7-7.5,2.5-11.7c11.5-1.2,22.9-2.7,34.4-3.3c2.8,2.7,6.8,1.7,10,3.7
		c-0.3,2.8-0.6,5.7-1,8.6c-0.4,3.3-1.5,6.4-3.4,9.2c-3.4,5.1-4.6,10.7-4.5,16.8c0.1,7.7,0.1,15.4-1.2,23
		C468.4,404.9,468.1,406.6,467.1,408.4z M460.1,393.8c2-2,0.3-4,0.7-5.9c0.2-0.6,1.1-1,0.8-2C458.6,387.8,458.3,389.6,460.1,393.8z
		 M465.8,358.1c-1.3,2.1-1.3,3.5,0,5.5C465.8,361.6,465.8,360.2,465.8,358.1z M463,381.5c0.4-1.2,0.6-2.2,0.1-3.4
		C462.6,379.3,462.3,380.3,463,381.5z M465,367c0.5-0.2,0.5-0.7,0.6-1.1s0.4-0.8-0.1-1.3C464.8,365.3,464.6,366.1,465,367z
		 M436.5,356.9c-0.5-0.1-0.6-1-1.4-0.4C435.4,357.1,435.7,357.4,436.5,356.9z"/>
	<path fill="none" d="M435.8,639.8c-0.8,0.2-1.1-0.8-2.1-0.5c-1.5,1.1-2.9,2.9-3.4,4.7c-0.8,2.9-3,4.7-4.4,7.4c-3-1.4-4.2-4-5.4-6.7
		c-0.4-1-0.7-2.2-1.2-3.2c-1.2-2.7-1.5-2.9-4.7-3.3c1.8-15,2.4-30.2,5-45.2c2-11.7,4.8-23.3,8.6-34.6c1-3,1.9-6,2.2-9.1
		c0.1-1.4,0.8-2.7,1.5-3.8c2.8-4.3,3.6-9.3,4.5-14.1c0.8-4.5,1.8-8.9,1.6-13.5c-0.1-1.9,1.1-3.6,1.8-5.8c1.2,2.8,1.5,5.4,1.7,8
		c0.3,4.6,0.4,9.3,1.6,13.8c0.1,0.3,0.2,0.7,0.1,1c-1.5,4.5,0.4,8.2,2.7,11.8c-1.8,4.7-3.5,9.4-5.3,14.1c-3.7,9.2-4.8,18.8-4.7,28.7
		c0,3.5,1,7,1.6,10.4c0.1,0.8,0.6,1.6,0.4,2.3c-1,3.3,0.3,6.7-0.4,10.1c-0.4,1.9,0.5,3.8,0.4,5.7C437.9,625.3,437,632.6,435.8,639.8
		z"/>
	<path fill="none" d="M431.8,230.9c2.2-2.6,5.6-3.8,7.2-5.7c1.6-4.6,4.3-8.2,3.6-12.7c-2.2,0.6-4.4,0.7-6.8-0.3
		c0.5-1,1.3-0.7,1.8-0.6c1.3,0.4,2.3,0.1,3.5-0.4c1.7-0.7,3.7-1,5.4,0.4c1.1-0.2,1.7-1,2.5-1.7l-0.1,0.1c1.4-0.2,2.3,0.9,3.6,1.5
		c1-1.6,2.9-0.5,4.4-1.3c0.6-0.3,1.9,0.5,2.3,1.6c0.4,1.2,1,2.3,1.3,3.5c0.7,3,1.8,5.8,2.8,8.4c-0.3,1.5-1.6,1.8-2.6,3.1
		c-1,4.8,2.2,8.6,4.5,12.5c-0.9,3.1-4.3-0.3-5.3,2.4c0,1.2,1,0.2,1.8,0.7c0.2,1.2,0.2,2.6,1.1,3.7c-1.6,3-4.5,0.9-6.6,1.8
		c1.3,2.1,3,1.1,4.6,1.1c0.9,0.2,1.3,0.9,1.7,1.5c0,1.3-1.4,1.5-1.6,2.9c0.7,1.5,2,3.4-0.2,5.4c-2.5,0.5-5.1,1.4-8.1,0.6
		c-1.8-0.5-4.1-0.7-6.1,1.2c-1.6,4.6,0.4,9.2,1.2,13.9c-7.6,0.3-7.6,0.3-11.1,2.2c-1.1,0.2-1.8-0.9-3.1-0.5
		c-3.1-5.5-8.5-6.8-14.5-7.8c0.9-5.6,2-11.1,0.9-16.6c1.5-1.1,3.4-1.6,3.3-3.7l0,0c0.9,0.1,1,1.2,1.9,1.4c3.5-0.6,3.5-0.6,3.4-3.1
		c-0.9-0.1-1,1.2-2.6,1c-3.1-2.3-4.7-6.4-7.5-9.5c0.8-1.2,1.5-0.4,2.4-0.3c0.2,1.9,0.7,3.7,2.6,4.7c0.6,0.3,1.1,0.1,1.5-0.8
		c-0.6-1.6-2.3-2.9-2.2-5.1c0.5-0.8,1.2-1.7,2.1-2.5c0.3,0.4,0.5,0.8,0.7,1.1c0.1,1-1,1.3-1,2.4c0.5,1.3,1.2,2.8,1.8,4.4
		c1.3-0.3,1.7-1.2,2.1-2.1c-0.1-1.5-1.7-1.4-2.3-2.4c1.2-3.4,0.9-4.1-3.9-7c-2.1,0.7-1.9,3.1-3,4.5c-0.5-2.6,0-3.5,3.1-6.1
		c3.6-0.3,4,4.9,7.6,4.7c1.1,0,2-0.4,2.6-1.3c0.3-0.4,0-0.8-0.4-1.1C432,231.1,431.9,231,431.8,230.9z M429.7,248.2
		c-0.5,2.4-0.1,4.6,2.1,5.8c3,1.5,6.3,2.7,10.1,3c-3.4-2.6-7.6-2.6-10.4-5.1C430.8,250.5,430.9,249.1,429.7,248.2z M452.5,231.3
		c0.5,1.2,1.4,1.9,3.1,1.6c-0.5-1.8,0.1-3.3,1.9-4.6c-3.3-1-5.3,1-7.5,2.1c-0.3,0.1-0.3,0.4,0,0.6C450.8,232,451.7,231,452.5,231.3z
		 M459.3,227c-3.9-3.7-8.1-3.7-11.3-0.1c2,0.2,3.4-1.7,5.3-1.3C455.1,226,456.8,227.2,459.3,227z M433.4,256.2
		c0.8,1.5,1.4,3,3.5,4.1C436,258.2,434.9,257,433.4,256.2z"/>
	<path fill="none" d="M502.2,301.3c0.3,1,1.1,1.4,2,1.6c1.6,0.3,2.9,1.1,4,2.1c0.8-0.2,0.5-0.8,0.7-1.2c1.5-0.3,2.7,0.6,4,1.3
		c2.6-0.8,5.1-0.5,7.6,0.7c0.2,1.3,0.4,2.6,0.5,3.9c-2.3,3.6-3.8,7.5-4.7,11.6c-0.3,1.3-0.6,2.6-1.6,3.7c-1.1,1.3-1.4,3.1-1.7,4.8
		c-1.2,5.9-2.3,11.8-3,17.8c-0.6,5.2-2.5,10.1-4.7,14.9c-1.2,2.6-2.7,5-4,7.5c-1.1,2-2.5,3.7-2.9,6c-0.3,1.5-1.9,2.8-2.9,4.1
		c-0.6,0.8-1.4,1.5-2.1,2.3c-3.3-2.7-7.8-2.6-11.7-5c-1.5-3.3-3.9-6.4-6.3-9.6c0.5-1.2,1-2.4,1.6-3.5c2.8-5.5,2.9-11.6,3.3-17.6
		c0.2-3.2,1.2-5.9,3-8.6c1.9,2.8,2.4,6,3.9,8.8c-1,3-2.3,5.9-2.5,9.1c1.4-0.7,1.5-2,1.7-3.1c0.2-1.3,0.7-2.3,1.8-3.1
		c2.7-1.9,4.7-4.6,6.9-7c0.8-0.9,1.6-1.9,1.5-3.3c0-0.4,0.2-0.9,0.4-1.3c3.4-6.9,4.1-14.6,7.4-21.4c-1.4-3.9-3.3-6.8-7.2-8.3
		c-1.6-0.6-2.5-2.1-2.2-3.8c0.4-2.7,0.3-5.4,1.2-8.2c1.3-0.9,2.8-1.8,4.2-2.7c1.2,0.6,1.9,1.5,1.5,2.7c-0.8,2.2-3,1-4.7,1.7
		C498.6,300.1,500.7,300.3,502.2,301.3L502.2,301.3z M510.6,316.1c-1.8,2.1-2.2,4-2.1,6.1C509.7,320.6,511.1,319.1,510.6,316.1z
		 M516.2,315.7c-0.5-1.4-1.5-2-2.8-2.2C514.1,314.5,514.5,315.9,516.2,315.7z M483.8,370.9c-0.1-0.6-0.1-1.3-0.3-1.9
		c-0.1-0.3-0.4-0.5-0.6-0.8C482.6,369.7,482.6,369.7,483.8,370.9z M507.1,324.1c-0.9,0.4-1.1,0.9-0.5,1.7
		C507.3,325.4,507.8,325,507.1,324.1z M505.5,327.9c-1,0.5-1.6,0.9-1,1.8C505.2,329.4,505.5,329,505.5,327.9z M508.6,314
		c0.5,0.3,0.8,0.2,1-0.1c0.1-0.3,0-0.6-0.4-0.6C508.8,313.2,508.6,313.5,508.6,314z M492.8,377.7c0.9,0.5,1.3,0.4,1.6-0.4
		C493.8,377,493.3,377,492.8,377.7z M484.8,359.5c-0.1-0.1-0.2-0.4-0.3-0.4c-0.2,0-0.4,0.1-0.5,0.3c-0.2,0.3,0,0.6,0.4,0.6
		C484.6,359.9,484.7,359.7,484.8,359.5z"/>
	<path fill="none" d="M392.9,646.5c-0.3,3.1,1.5,5.8,1.6,8.9c0,0.7,0.8,1,1.4,1.3c1.7-0.1,2.6-1.4,3.7-2.3c3.3-2.6,6-5.8,8.8-8.9
		c2-2.2,4.1-4.3,7.6-4.6c2,2.7,1.9,6.6,5.1,8.6c-3.3,1.9-7.2,2.1-9.1,5.5c3.6-0.4,6.8-2.4,10.3-3c1.1,0.2,1.9,0.6,2.5,1.5
		c-3.4,1.2-7.4,0.8-10,4.6c3.6,1.1,6.4-1.3,9.6-1.1c-1.7,1.8-4.9,1.1-5.8,3.8c1.7,1,1.7,1,11.7-1.6c0.9,1,2,2,2.3,3.6
		c-2.8,0.7-5.9,0.4-8.4,2.5c2.5,1.7,3.9,1.6,10.1-0.9c0.4,0.3,0.8,0.7,1.3,1c3.9,3,8,5.5,13.1,5.8c1.1,0.1,2.3,0,2.9,1.7
		c-5.6,0.7-9.2,4.4-13,8.5c2.9-0.5,4.4-2.7,6.4-3.9c2.1-1.2,4.3-1.9,6.4-3c1,1.2,0.3,2-0.4,2.8c-2.7,3.2-6.3,4.8-10.3,5.4
		c-3.8,0.6-7.6,1.2-11.5,1.7c-3.4,0.5-6.8-0.2-10.2-0.4c-2.7-0.1-5.4-0.8-8.1-1.2c-3.1-0.4-5-2.5-7.1-4.4c-1.4-1.2-2.7-2.1-4.5-0.9
		c0,0.7,1.1,0.8,0.8,1.7c-5.3,0.5-10.4-0.5-15.4-2.6c0-2.5,0.5-5,1.2-7.4c0.8-2.7,1.8-5.4,2.2-8.2c0.1-0.9,0.7-1.4,1.2-2
		c1.4-1.9,2.3-4.1,2.1-6.4C391.2,650.3,392,648.5,392.9,646.5L392.9,646.5z M417.4,670.5c-0.2-1.1,0.1-1.9,0.3-2.8
		c0.3-2.6-1.2-4.4-3.8-4.5c-2.2-0.1-3.9,1.4-4,3.6c-0.1,2.5,1.6,4.2,4.3,4.1C415.1,670.9,416.1,670.7,417.4,670.5z M409.5,666.5
		c-1.2-3.1-2.7-4.2-5-3.9c-1.9,0.3-3.3,1.9-3.3,3.7c0,1.9,1.2,3.4,3.2,3.8C406.8,670.6,408.1,669.7,409.5,666.5z M394.6,669.1
		c1.8-0.1,0.8-2.1,2.3-2c0.7,0.1,1,0.8,1.4,1.3c0.4,0.6,0.8,1.1,1.6,1c0.7-1-0.7-1.6-0.4-2.6c1.3-1.2,2-2.6,0.4-4.4
		c-1.6-0.3-3.2-0.9-5-0.4C394.3,664.4,394.1,666.7,394.6,669.1z M435,667.6c-2.2,0.4-4.6-0.5-7.4,0.8
		C430.6,669.8,432.9,669.3,435,667.6z"/>
	<path fill="none" d="M449.9,301.4c-2.4,0-4.2-0.8-5.9-2.1c-6.2-5-5.9-15.4,0.9-20.1c3.5-2.4,7.4-2.3,10.8,0.2
		c7,5.3,5.9,16.7-1.5,20.8C452.9,301,451.3,301.5,449.9,301.4z"/>
	<path fill="none" d="M489,345.8c-2.2-3.1-2-7.2-4-10.4c2.1-3.6,5.9-6.5,5.7-11.2c-0.2-4.3,0.5-8.7-1.8-12.7
		c1.6-1.2,3.4-1.7,4.1-3.8c3.1,3.5,8.4,3.8,9.7,9.1c-3.1,7.5-5.5,15.6-8.4,23.6C493.9,342.1,492.4,343.6,489,345.8z"/>
	<path fill="none" d="M410.1,211.3c0,1.1-0.6,1.9-1.4,2.6c-3.2,3.1-4.5,7-4.6,11.4c-0.3,7.7,0.2,15.4,2.2,23
		c0.7,2.6,0.6,5.2,0.2,7.8c-0.5-2.4-0.3-4.9-1.8-7.8c0.9,8.2,0.8,15.7-0.5,23.3c0.6-12.1-0.1-24.1-3.7-36.5c-0.6,7,2,13,1.9,19.3
		c-1.1-4.3-3.6-8.2-4-12.8c-0.2-2.2-1.3-4.3-2.1-6.4c-1-2.6-1.6-5.2-2.1-7.9c-0.6-3-0.2-5.9,1-8.7c0.8-2,1.8-3.9,4-4.8
		c0.4-0.2,0.8-0.5,0.8-1l-0.1,0.1c1.7-0.2,3.1-1.8,4.8-1.3C406.5,211.9,408.3,211.3,410.1,211.3L410.1,211.3z M400.3,227.7
		c0.2-2.7,0-5.3,0.6-7.8c0.6-2.6,2.4-4.6,3.6-7C399.7,216.7,398.2,222.3,400.3,227.7z"/>
	<path fill="none" d="M533.6,314.5c-3.5-0.6-6.7-1.1-9.9-1.6c-3.3-5.9-1.7-17.8,3-22.8c3.1,0.8,6.3,1.2,9.9,1.2
		C532.7,298.6,531.9,306.1,533.6,314.5z M529.3,302.7c2.8-1.5,2.8-1.5,1.6-3.5c-1.3,0.2-2.6,0.4-3.4,1.6
		C527.7,301.8,528.2,302.3,529.3,302.7z M523.3,299.9c1.3,1.6,2.3,2.1,3.7,0.7C526.2,298.8,525,299.1,523.3,299.9z"/>
	<path fill="none" d="M480.3,284.6c3.3,1,6.5,1.1,10.1,1.3c-3.7,7-4.8,14.4-3.3,22.4c-4.1-3.4-7.1-7.5-11.4-10.5
		C476.3,293.1,476.9,288.4,480.3,284.6z M477.3,295.1c2.2,0.7,4.3,2.1,6.8,1.4c0.7-0.6,1.3-1.2,0.8-2.4
		C482.3,293.1,479.8,294.3,477.3,295.1z"/>
	<path fill="none" d="M417,213.4c-1.1-1.3-3.1-1.3-4.4-2.8c1.6-2,3.5-3.6,5.6-5.1c4.6,0.6,9.4,0.4,14,1.6c0.5,0.1,1.2,0.2,1.7,0.1
		c1.5-0.5,2.6-0.3,3.2,1.4c0.2,0.5,1.1,0.7,1.7,1c-1,0.6-2,0.2-2.9,0.1c-1-0.2-1.9-0.5-2.9,0.2c-0.9,0.6-2-0.1-2.9-0.3
		c-3.2-0.7-6.4-1.5-9.6-2.2c-0.9-0.2-1.8-0.2-2.7-0.1c-0.9,0.2-1.7,0.7-1.2,1.9c6.2,0.4,12.2,1.5,18.3,3.3c-0.4,0.9-1.5,0.6-1.5,1.8
		c1,1.4,2.5,0.3,3.8,0.4c1.5,0.1,2.8-0.4,4-1.2c0.5,0.6,0.3,1,0.2,1.8c-4.1-0.1-7.9,1.9-12,2c-3,0-5.7-1.3-8.5-2.4
		C419.6,214.5,418.4,213.6,417,213.4L417,213.4z M421,212.4c-1.3-0.4-2-0.6-3-0.9C418.7,212.5,419.4,212.6,421,212.4z"/>
	<path fill="none" d="M415.5,276.7c2,0.5,2.9-0.7,3.7-2c0-0.7-1-0.7-0.8-1.4c5.1-3,8.4-2.5,12.7,2.1c-3.6,0.3-7.1-1.4-10.2,0.9
		c-1.6,1.4-1.4,3.3-0.9,5.2c1.1,3.8,1.7,7.7,2.2,11.6C415.3,292.7,411.9,284.6,415.5,276.7z"/>
	<path fill="none" d="M475.9,314.7c-3.9-5.5-2.2-18.9,2.9-23.2c1.7,0.4,1.9,1.9,2.1,3.2c0.8,6,0.4,11.8-2.3,17.3
		C478.1,313.1,477.5,314.3,475.9,314.7z"/>
	<path fill="none" d="M447.1,276.4c-3.3,1.6-5.7,3.5-7.1,6.2c-1.4,1.1-3.1,0.2-4.9,0.9c1.2,1.1,2.1,2.1,3.6,2.7
		c-0.5,2.2-0.5,4.4-0.1,6.7c0.5,2.3,1.7,4.2,2.9,6.1c-6.2,0.4-9.5-6.8-8.9-12.4C433.1,281,438.3,274.1,447.1,276.4z"/>
	<path fill="none" d="M495,295.6c-1.4,1.8-0.8,4.1-1.3,6.1c-0.7,0.5-1.6-0.9-2.2,0.7c-0.1,0.9,1.3,0.3,1.7,1.1
		c-0.1,2.4-1,4.4-3.3,6.3c-3.1-4.1-2.4-8.6-1.9-12.9c0.5-3.9,1.3-7.9,4.6-10.8c2.5,2.1,2,4.6,2.5,6.8c-1.1,1-3.3,0.1-3.4,2.3
		C492.6,295.7,493.8,294.2,495,295.6z"/>
	<path fill="none" d="M419.7,242.6c-1.9-0.5-3.4-1.6-4.8-2.9c0.4-0.4,0.7-0.6,1.1-0.9c-2.6-2.2-5.5-4.2-6-8.1c1.2-0.2,2,1.1,3.4,0.7
		c-1.5-1.5-3.5-2.3-4.3-4.8c2.8,1.2,4.6,3.4,8,2.9c-3-1.7-6.3-2.3-7.6-5.6c5.5,1.1,10.9,2.1,16.4,3.2c-0.4,0.8-0.9,0.9-1.8,0.7
		c-3.5-0.7-6,1.1-6.4,4.6c-0.2,1.6-0.3,3.1-0.9,4.3C417,239.4,419.4,240.5,419.7,242.6L419.7,242.6z"/>
	<path fill="none" d="M423.7,222.9c-0.3-0.4-0.7-0.8-1.1-1.4c1.9-0.2,3.7,0.3,5,1c2.3,1.3,4.3,0.9,6.5,0.4c0.8-0.2,1.7-0.4,3-0.6
		c-1.6,2-3.7,1.8-5.4,2.4c-1.3,0.4-2.7,0.3-3.9,1.1c-0.9,0.6-2,0.3-3,0c-3-0.8-6-1.4-8.8-2.4c-1.2-0.4-2.1-0.2-3,0.1
		c-1.2-0.5-2.1-1.1-3-1.9c-0.2-1.6,0-3.1,0.5-4.9c3.5,2.3,6.9,4.2,10.6,5.6C422,222.6,422.8,223.1,423.7,222.9
		c0.7,0.9,1.8,0.9,2.8,1.1C425.7,223.3,424.8,222.9,423.7,222.9z"/>
	<path fill="none" d="M411.9,269.7c-1-1.4,0.3-3.1-0.6-4.5c-1.2,2.4-0.2,5.5-3.2,7.9c1-11.2,0.9-21.7-2.1-32
		c2.5,6.4,4.3,12.9,6.2,19.4c0.7,2.6,1.1,5,0.8,7.6C413,268.9,412.8,269.6,411.9,269.7z"/>
	<path fill="none" d="M408.7,275.3c-0.1,0.9,0.4,1.4,1.1,1.9c1,0.7,2,1.4,3.1,2.2c-0.9,4.4-0.1,8.5,2.8,12.2
		c-7.5-0.8-10.8-8.9-6.9-16.1L408.7,275.3z"/>
	<path fill="none" d="M461.4,285.7c2,1.8,1.7,4.2,3.1,5.7s2,3.7,2.7,5.7c-2.1,1-4.2,1.2-7.9,0.8
		C461.3,294.2,462.5,290.4,461.4,285.7z"/>
	<path fill="none" d="M424.4,218.1c2.5,0.7,5.2,0.7,7.8,1.7c-6.9,3-20.9-0.8-20.7-5.8c1.5,0.8,3,1.6,4.4,2.4
		c2.1,1.2,4.5,1.6,6.7,2.2C423.4,218.9,424,218.7,424.4,218.1L424.4,218.1z"/>
	<path fill="none" d="M408.7,275.4c2.5-4.6,5.5-6,11.9-5.3c-2.7,1.6-5,3.2-6.6,6c-1.7-0.9-3.7,0.2-5.4-0.8L408.7,275.4z"/>
	<path fill="none" d="M436.3,203.7c0.6,0.9,1,1.3,1,2c-5.8,0.9-11.1-1.2-16.8-1.9c2.4-2.7,2.4-2.7,5.5-2.3c0.3,0.5,0,0.8-0.3,1.2
		c-0.2,0.2-0.6,0.4-0.5,1.1C428.9,203.7,432.6,203.7,436.3,203.7z"/>
	<path fill="none" d="M505.9,292.1c1.3-0.7,2.6-1.7,3.7,0.3c-0.1,2.2-0.8,4.5-0.4,6.6c-0.7,1.2-1.4,1.5-2.8,1.6
		C505.1,297.9,505.7,295,505.9,292.1z"/>
	<path fill="none" d="M412,245.5c-5.2-7.7-5.5-15.8-5-24c0.7,3.1,0.6,6.3,1.2,9.4c0.2,1.2,0.4,2.4,0.8,3.5
		C410.3,237.8,411.5,241.2,412,245.5z"/>
	<path fill="none" d="M416.6,266.3c-0.4-3-1.1-5.9-1.6-8.9c-0.3-1.7,0.4-3.3,1.8-4.4c1,0.1,1.3,0.7,1.3,1.4
		C418.4,258.5,417.9,262.5,416.6,266.3z"/>
	<path fill="none" d="M424.4,218.1c-4.5-0.9-8.6-2.5-12.7-5.7c2.4-0.7,3.5,1.3,5.2,1l-0.1-0.1c0,1.4,1.1,1.7,2.2,2.2
		C420.9,216.3,422.9,216.7,424.4,218.1L424.4,218.1z"/>
	<path fill="none" d="M399.9,212.6c-0.2-0.1-0.4-0.1-0.9-0.3c0.6-1.5,2-2.3,2.8-3.4c3.2-1.3,6.3-0.4,9.3-0.3c0.1,1.2-0.4,2-1.1,2.6
		h0.1c-1.8-3.4-4.8-1.8-7.5-1.9c-0.9,1.2-2.4,1.8-2.8,3.3L399.9,212.6z"/>
	<path fill="none" d="M423.1,248.1c-1.5,0.3-3.1,0.4-4.4-0.7c-0.3,0.6-0.5,0.9-0.7,1.3c-1.4-0.9-1.2-2.7-2-4.1
		c0.9,0.4,1.8,0.9,2.8,1.2c1.1,0.3,2.2,0.5,3.3,0.8C422.8,246.8,423.2,247.4,423.1,248.1L423.1,248.1z"/>
	<path fill="none" d="M501.4,292.9c0.7-1.5,1.5-1.6,2.6-0.7c0.2,2,0.1,4.1-0.5,6.3C502.7,296.5,503.7,294,501.4,292.9z"/>
	<path fill="none" d="M449,209.9c-3.7-1.4-7.2-3.3-10.9-4.7c3.6,0.2,6.6,2,9.7,3.3C448.5,208.7,448.9,209.2,449,209.9L449,209.9z"/>
	<path fill="none" d="M414.4,253.6c-0.3-2.9-0.2-5.5-0.6-8.1c1.1,1.1,2,2.6,1.8,3.9C415.4,250.7,416.9,252.5,414.4,253.6z"/>
	<path fill="none" d="M406.5,265.2c0.6,2.6,0.4,5.3,0,7.9c-0.1,0.5-0.7,0.8-1.6,0.6C405.4,271,406.1,268.1,406.5,265.2z"/>
	<path fill="none" d="M419.6,242.7c0.9,0.5,1.6,1.2,1.9,2.5c-2.4-0.5-4.7-0.9-5.9-3.2l-0.1,0.1c0.9,0.4,1.8,0.7,2.6,1.1
		C418.8,243.4,419.4,243.5,419.6,242.7L419.6,242.7z"/>
	<path fill="none" d="M435.9,218.8c1.7-0.6,3-2.2,5.2-2C439.8,218.8,439,219.1,435.9,218.8z"/>
	<path fill="none" d="M436.7,200.4c-3.1,0-6.2,0-9.4,0C430.4,200.1,433.6,198.9,436.7,200.4L436.7,200.4z"/>
	<path fill="none" d="M516.5,297.2c0.7-1.3,0.7-2.9,2.8-2.5C519.6,296.6,519,297.5,516.5,297.2z"/>
	<path fill="none" d="M443.6,200.7c1.9-0.1,3.6,0.5,4.9,1.9C446.6,202.6,445.2,201.4,443.6,200.7z"/>
	<path fill="none" d="M502.3,301.4c-0.2-0.6-0.4-1.2-0.7-2.5c1.5,1,3.1,0.8,3.8,2.6C504.2,301.5,503.2,301.4,502.3,301.4
		L502.3,301.4z"/>
	<path fill="none" d="M421,235.6c0.1-1.3,0.6-2.3,1.6-3.2C423.2,233.8,423.2,233.8,421,235.6z"/>
	<path fill="none" d="M436.6,200.5c1.1,0,2.2,0,3.4,0C438.9,200.9,437.7,201.1,436.6,200.5L436.6,200.5z"/>
	<path fill="none" d="M432.1,231.2c-1.1,1.1-2.3,0.8-3.7,0.2c1.3-0.2,2.4-0.4,3.4-0.5C431.9,231,432,231.1,432.1,231.2z"/>
	<path fill="none" d="M451,207.9c0.8,0.4,1.6,0.7,1.7,1.9C451.2,209.8,451.1,208.9,451,207.9L451,207.9z"/>
	<path fill="none" d="M509.9,301.9c-0.5,0.9-1,0.8-1.7,0.4C508.6,301.6,508.9,301.1,509.9,301.9z"/>
	<path fill="none" d="M430.8,229.4c-1,0.2-1.6,0.3-2.2-0.1C429.2,229.2,429.9,229.1,430.8,229.4z"/>
	<path fill="none" d="M429.1,656.4c-0.8,0.5-1.3,0.3-1.9,0.2C427.7,656.2,428.1,655.7,429.1,656.4z"/>
	<path fill="none" d="M415.6,241.9c-1.3,0.4-1.5-0.5-1.8-1.4C414.6,240.8,415.3,241.1,415.6,241.9L415.6,241.9z"/>
	<path fill="none" d="M449,206.6c-0.7,0-1.1-0.6-2.2-1.3C448.1,205.6,448.9,205.5,449,206.6L449,206.6z"/>
	<path fill="none" d="M448.9,206.6c1.2-0.4,1.8,0.3,2.1,1.3l0.1-0.1C450.1,207.9,449.5,207.3,448.9,206.6L448.9,206.6z"/>
	<path d="M712.8,541.7c-0.9-2.3-1.9-4.7,0.7-7.4c0.7,2.8-0.5,5.4,1,7.5c-1,4.1-1.3,4.5-4.2,5.1C710.8,545,712.4,543.8,712.8,541.7z"
		/>
	<path d="M698.8,558c-0.9,5-1.9,9.9-2.8,14.9C695,569.3,696.7,559.9,698.8,558z"/>
	<path d="M688.8,646.4c-0.9-1.8-0.3-10.2,0.4-13C691.3,637.9,689.2,642.1,688.8,646.4z"/>
	<path d="M708.6,522.4c2,2.7-0.5,5.4,0.9,8.6c-1.7-1.1-2-2.1-1.6-3.2C708.5,526,708.5,524.2,708.6,522.4z"/>
	<path d="M698.5,545.2c0.3,2.3,0.3,4.5,0.1,7C697.1,548.4,697.1,547,698.5,545.2z"/>
	<path d="M691.5,475.2c0.3,1.9,1.4,3.6,0.9,5.7C691.2,479.1,691.1,477.2,691.5,475.2z"/>
	<path d="M694.3,487.9c1,0.4,0.8,1,0.3,1.7C693.7,489.1,694.1,488.5,694.3,487.9z"/>
	<path d="M689.5,628c0.5,0.8,0.5,1.5,0,2.4C689,629.5,688.9,628.7,689.5,628z"/>
	<path d="M690.2,616.4c-0.8-0.3-0.9-0.8-0.5-1.5C690.5,615.2,690.7,615.7,690.2,616.4z"/>
	<path d="M701.9,280.6c-1.7-3.6-2.6-7.3-2.5-11.2C701.6,272.9,700.8,276.9,701.9,280.6z"/>
	<path d="M704.5,291.5c1.5,2.6,1.2,5.4-0.9,10.8C703,298.5,704.8,295.1,704.5,291.5z"/>
	<path d="M702.6,204.1c-1.6,0-2.9-0.7-4.3-2.2C700.3,202.3,701.9,202.3,702.6,204.1z"/>
	<path d="M704,306.2c0.6,1.9-0.6,3.3-1.2,5.5C702.9,308.1,702.9,308.1,704,306.2z"/>
	<path d="M749,393.8c-2.4-3.7-1.8-6.5,1.5-7.8C748,388.1,750.6,391,749,393.8z"/>
	<path d="M739.4,359.8c-0.3,2.8-0.4,5.6-1.2,8.4C737.3,364.9,737.6,362.6,739.4,359.8z"/>
	<path d="M737.2,376.3c-0.6,3.4-1.1,6.8-0.9,10.8C735,383,735.4,379.5,737.2,376.3z"/>
	<path d="M721.9,347.1c1.7,1.2,3.3,2.4,5,3.6C724.7,350.2,722.2,350.1,721.9,347.1L721.9,347.1z"/>
	<path d="M724.3,359.3c-2.7,0-4.2-0.9-5.8-2.9C721,356.9,722.2,358.2,724.3,359.3z"/>
	<path d="M754.3,362.8c-0.9-1.5-1.3-3.1,0.3-4.9C754.4,360,754.4,361.4,754.3,362.8z"/>
	<path d="M751.3,381c-0.7-1,0-1.8,0.3-2.8c0.6,0.4,0.4,0.9,0.3,1.3C751.9,380.1,752.2,380.7,751.3,381z"/>
	<path d="M720.5,366c-1.4,0.4-2,0.2-2.5-0.8C719,364.6,719.5,365.5,720.5,366z"/>
	<path d="M753.7,367.1c-0.4-0.8-0.3-1.3,0-1.9C754.4,365.8,754,366.3,753.7,367.1z"/>
	<path d="M729.6,360.2c1,0,1.6,0.4,1.5,0.9c-0.2,0.5-0.7,0.1-1-0.2C729.8,360.7,729.8,360.5,729.6,360.2z"/>
	<path d="M735.3,436.3c-1.5,2.1-1.8,4.8-3.8,6.5C732.2,440.3,732.7,437.7,735.3,436.3z"/>
	<path d="M730.5,448.6c2.8-1.6,5-0.7,7.2-0.9C735.5,447.7,733.5,449.1,730.5,448.6z"/>
	<path d="M725.6,437.3c1.9,1.9,1.9,1.9,3.1,4.8C726.8,441.4,726.3,440.7,725.6,437.3z"/>
	<path d="M712.3,408.1c2-0.1,3.9,0.5,5.7,1.3C715.8,409.8,714,409.2,712.3,408.1z"/>
	<path d="M702.9,411.6c-2.9,0.6-4.8-0.5-6.9-0.6C698.1,410.1,700.1,411,702.9,411.6z"/>
	<path d="M730.1,433.4c-0.9-1.4-1.9-2.7-2.8-4.1c1.6,0.9,3.2,1.9,3.5,3.8C730.5,433.2,730.3,433.3,730.1,433.4z"/>
	<path d="M728.9,332.9c7.9,2.4,15.7,1.9,23.7-1.2c-0.3,2-1.2,2.2-2,2.5c-6.6,2.7-13.4,2.9-20.3,1.1
		C729.4,335.1,728.1,334.9,728.9,332.9z"/>
	<path d="M756.5,330.4c-0.2,1.1-0.8,1.2-1.7,0.9C755.1,330.4,755.6,330,756.5,330.4z"/>
	<path d="M718.3,247.4c1.3,1.5,0.9,3.1,1.8,4.2c2.9,2.7,7.1,2.6,10.5,5.3c-3.8-0.5-7-1.6-10.1-3C718.5,253,717.7,250.8,718.3,247.4z
		"/>
	<path d="M738.5,230.7c2.3-1.4,4.2-3.6,7.4-2.7c-1.2,1.4-2.2,2.7-1.6,4.7C741.8,233.3,740.8,230.2,738.5,230.7z"/>
	<path d="M741.5,225.4c-1.8,0.1-3.1,1.2-4.7,1.5c2.2-3.5,6.1-3.8,10.7-0.8c0.2,0.8-0.4,1-1,0.8C744.8,226.4,743.1,225.9,741.5,225.4
		z"/>
	<path d="M725.1,259.8c-1.4-0.9-2.6-2.1-3-3.8C723.7,256.8,724.5,258.2,725.1,259.8z"/>
	<path d="M706.8,670.5c-1.3,0.2-2.3,0.3-3.3,0.4c-2.7,0.1-4.4-1.6-4.3-4.1c0.1-2.2,1.8-3.7,4-3.6c2.6,0.1,4.1,1.9,3.8,4.5
		C706.9,668.6,706.6,669.5,706.8,670.5z M703.4,667.8c0.6-0.9,1.4,0.7,2-0.2c-0.5-3.2-1.6-3.7-4.4-1.8c-0.3,1.6-0.3,3.1,1.8,3.7
		c0.2,0,0.4-0.1,0.5-0.2C703.8,668.8,702.8,668.3,703.4,667.8z"/>
	<path d="M688.7,666.9c0,1,0.9,1.6,0.6,2.5c-2,0.4-1.7-2.3-3.4-2.3c-1.2,0.2-0.4,1.8-1.5,2c-0.4,0-0.7-0.2-0.8-0.5
		c-0.2-2.1-0.1-4.3,0.3-6.5c2-0.6,3.6,0.2,5.2,0.2C690.2,664.9,690.2,664.9,688.7,666.9z M685.5,663.6c-0.3,1.3,0.1,1.9,1.2,2
		c1,0.1,1.8-0.1,1.7-1.4C687.7,663.4,686.8,663.2,685.5,663.6z"/>
	<path d="M698.8,666.5c-1.5,3.2-2.8,4.1-5.2,3.5c-1.9-0.5-3.1-2-3.1-3.9c0-1.8,1.5-3.3,3.4-3.6C696.3,662.2,697.7,663.4,698.8,666.5
		z M694.5,663.8c-1.5,0.6-2.6,1.3-2.2,3c0.3,1.2,1.2,2,2.4,2c1.1,0,1.9-0.7,2.2-1.8C697.3,665.2,696.3,664.4,694.5,663.8z"/>
	<path d="M723.5,667.6c-2.1,1.4-4.3,2.2-7.1,0.7C718.9,666.7,721.3,667.6,723.5,667.6z"/>
	<path d="M793.9,122.6c1,0.3,1.3,0.8,1.4,1.6c-0.4,1.2-1.2,1.8-2.4,2.2c-1.1,0-1.6-0.6-2-1.8C791.6,123.4,792.9,123.1,793.9,122.6z"
		/>
	<path d="M790.5,124.5c-1.8,1.5-1.8,1.5-3.8,0.1C787.9,123.3,789,123.1,790.5,124.5z"/>
	<path d="M673.8,121.8c3-1.2,5.3-2.3,7.9-2.5c1.4,1.1,0.7,2-0.2,2.9C679,123.1,676.8,122.4,673.8,121.8z"/>
	<path d="M726.5,119c0.6-1.1,1.7-1.3,2.7-1.8c1,0.1,1.4,0.7,1.5,1.6c-0.4,1.2-1.3,1.8-2.3,2.2C727.1,120.8,726.4,120.3,726.5,119z"
		/>
	<path d="M725.6,119c-1.4,1.7-1.4,1.7-3.5,0.1C723.3,117.9,724.4,117.6,725.6,119z"/>
	<path d="M756.8,132.9c-0.5,0-1.1,0-1.6-0.1c-0.2,0-0.3-0.3-0.4-0.4C756.1,131.4,756.1,131.4,756.8,132.9L756.8,132.9z"/>
	<path d="M421.9,547.1c-0.2-1.2,0.8-1.8,1.2-2.6c0.4-0.8,0.8-1.6,1.2-2.3c-0.9-2.6-2.1-5.1,0.3-7.4c0.9,0.3,0.8,0.9,0.7,1.4
		c-0.4,1.7-0.3,3.3,0.2,5C426.4,543.8,424.8,546.2,421.9,547.1z"/>
	<path d="M400.1,646.5c-0.6-0.1-0.8-0.5-0.7-0.9c0.3-4,0.7-8,1.3-11.9C401.8,638,401.6,642.4,400.1,646.5z"/>
	<path d="M410.2,558.2c-0.8,4.5-1.6,9-2.4,13.5c-0.1,0.4-0.3,0.9-0.8,1C406.5,568.6,408.1,560.1,410.2,558.2z"/>
	<path d="M420.4,530.5c-2.4-2.5,0.6-5.2-0.4-7.8C422.2,525.2,419.3,527.9,420.4,530.5z"/>
	<path d="M410,545.4c0,2.1,0,4.2,0,6.3C408.7,549.1,408.6,548,410,545.4z"/>
	<path d="M402.9,475.3c0.6,1.8,1.2,3.5,0.9,5.4C402.6,478.3,402.6,478.3,402.9,475.3z"/>
	<path d="M405.8,488.1c0.9,0.3,0.7,1,0.5,1.6C405.6,489.2,405.6,489.2,405.8,488.1z"/>
	<path d="M400.9,630.6c-0.5-1-0.5-1.7-0.1-2.4C401.6,628.8,401.3,629.5,400.9,630.6z"/>
	<path d="M401.1,615.1c0.9,0.2,0.9,0.7,0.5,1.4C400.9,616.2,400.7,615.8,401.1,615.1z"/>
	<path d="M442.4,632.4c0.9,3.8-2,6.3-1.4,9.7c0.4,1,3.2,1.5,1.4,3.8c-1.4-0.4-2.1-1.4-3.1-2C439.3,639.9,440.8,636.5,442.4,632.4z"
		/>
	<path d="M453.4,564.3c1.3,2.7,1.5,5.3,0.1,8C453.4,569.7,451.8,567,453.4,564.3z"/>
	<path d="M451.9,585.4c-0.1-2.7,0.7-5.4,0.5-8.1c0-0.4,0.4-0.8,0.9-0.8C453.5,578,452.8,583.9,451.9,585.4z"/>
	<path d="M469.9,526.6c-0.7,2.4-2,4.3-4.4,5.2C466.7,529.8,467.6,527.6,469.9,526.6z"/>
	<path d="M466,538.8c-0.8-2.3,0-4,1.9-5.3c0.2,0.4,0.4,0.6,0.3,0.7C467.5,535.8,466.7,537.3,466,538.8z"/>
	<path d="M466.8,545.3c-0.2-1.7-1.3-3.3-0.2-5.5C468,541.8,467.2,543.6,466.8,545.3z"/>
	<path d="M450.6,555.9c1.2,0.7,1.3,1.7,1,2.9C450.6,557.6,450.6,557.6,450.6,555.9z"/>
	<path d="M459.1,532.4c1.2-0.6,2.2-0.6,3.5-0.5C461.5,533.2,460.6,533.5,459.1,532.4z"/>
	<path d="M465.8,548.2c0,0.4-0.2,0.6-0.6,0.7c-0.1,0-0.3-0.2-0.4-0.4c-0.1-0.4,0.1-0.6,0.5-0.6C465.5,547.9,465.6,548.1,465.8,548.2
		z"/>
	<path d="M443.4,628.6c0.5,1.3,0.3,1.9-0.3,2.2C442.6,630.2,442.9,629.7,443.4,628.6z"/>
	<path d="M445.4,617.7c-0.1-0.2-0.3-0.4-0.2-0.5c0.1-0.3,0.4-0.5,0.7-0.3c0.1,0.1,0.2,0.4,0.1,0.5S445.6,617.6,445.4,617.7z"/>
	<path d="M395.7,317c0.9,2.7,2,5.3,0.9,8.2C394.8,322.6,396.6,319.6,395.7,317z"/>
	<path d="M434.2,304.7c0.6,1.3-0.3,2.3-0.6,3.5C432.8,306.2,432.8,306.2,434.2,304.7z"/>
	<path d="M430.3,323.5c-0.5-0.6-0.3-1-0.3-1.4c0.2-0.8,0.2-1.7,0.8-2.5C431.3,321.4,431.3,321.4,430.3,323.5z"/>
	<path d="M406.3,356.4c0.8,0.8,1.1,1.6,0.7,2.6C405.8,358.4,406,357.5,406.3,356.4z"/>
	<path d="M406.6,351.1c0,0.8,0,1.5,0,2.3c-0.9-0.1-0.8-0.7-1-1.1C405.6,351.5,406.4,351.5,406.6,351.1L406.6,351.1z"/>
	<path d="M429.4,330c-0.3-1.5,0-2.2,0.7-2.8c0.6,0.4,0.3,0.9,0.2,1.3C430.1,328.9,429.8,329.3,429.4,330z"/>
	<path d="M432.4,312c0.7,1,0.4,1.7-0.2,2.5C431.6,313.7,431.8,312.9,432.4,312z"/>
	<path d="M466,331.7c0.4-1.2,1.1-1.3,2.1-1.2C467.7,331.6,467,331.6,466,331.7z"/>
	<path d="M426.7,281.8c-0.3-0.5-0.3-1,0.1-1.4c0.7-0.1,0.6,0.4,0.5,0.8C427.2,281.4,427.1,281.8,426.7,281.8z"/>
	<path d="M442.9,442.8c0.8-2.4,1.3-4.9,3.5-6.7C446.2,437.9,444.4,441.5,442.9,442.8z"/>
	<path d="M407.3,411.2c2.7-0.8,5.2,0,7.6,1.1C412.3,412,409.8,411.6,407.3,411.2z"/>
	<path d="M442.5,448.6c2.3-1.2,4.7-0.8,7.2-0.8C447.2,447.7,445,449.2,442.5,448.6z"/>
	<path d="M423.7,408.2c1.9,0.1,3.9,0.3,6,1.4C427.2,410,425.4,409.3,423.7,408.2z"/>
	<path d="M440,442.3c-2.1-1-2.4-3.1-3.2-4.9C438.6,438.6,439.4,440.4,440,442.3z"/>
	<path d="M441.9,434c-1.3-1.8-2.3-3.2-3.5-4.7C441.4,430.9,441.6,431.1,441.9,434z"/>
	<path d="M460.1,393.8c-1.9-4.2-1.5-6,1.5-7.9c0.3,1-0.6,1.3-0.8,2C460.5,389.8,462.2,391.8,460.1,393.8z"/>
	<path d="M465.8,358.1c0,2.1,0,3.4,0,5.5C464.4,361.6,464.5,360.3,465.8,358.1z"/>
	<path d="M463,381.5c-0.6-1.3-0.4-2.2,0.1-3.4C463.6,379.4,463.4,380.3,463,381.5z"/>
	<path d="M465,367c-0.4-0.9-0.2-1.7,0.5-2.4c0.5,0.4,0.2,0.9,0.1,1.3S465.5,366.8,465,367z"/>
	<path d="M436.5,356.9c-0.8,0.5-1.1,0.1-1.4-0.4C435.9,355.9,436,356.8,436.5,356.9z"/>
	<path d="M429.7,248.2c1.2,1,1.1,2.4,1.8,3.7c2.8,2.5,7,2.5,10.4,5.1c-3.8-0.3-7.1-1.5-10.1-3C429.6,252.8,429.2,250.5,429.7,248.2z
		"/>
	<path d="M452.5,231.3c-0.8-0.2-1.8,0.7-2.5-0.2c-0.2-0.3-0.2-0.5,0-0.6c2.2-1.1,4.2-3.1,7.5-2.1c-1.9,1.2-2.4,2.8-1.9,4.6
		C454,233.2,453.1,232.5,452.5,231.3z"/>
	<path d="M459.3,227c-2.6,0.2-4.2-1-6.1-1.4s-3.3,1.4-5.3,1.3C451.3,223.3,455.4,223.2,459.3,227z"/>
	<path d="M433.4,256.2c1.5,0.8,2.6,2,3.5,4.1C434.9,259.1,434.2,257.6,433.4,256.2z"/>
	<path d="M510.6,316.1c0.5,2.9-0.9,4.5-2.1,6.1C508.4,320.1,508.8,318.2,510.6,316.1z"/>
	<path d="M516.2,315.7c-1.7,0.2-2.1-1.2-2.8-2.2C514.7,313.7,515.7,314.4,516.2,315.7z"/>
	<path d="M483.8,370.9c-1.1-1.2-1.1-1.2-0.9-2.7c0.3,0.3,0.6,0.5,0.6,0.8C483.6,369.6,483.7,370.3,483.8,370.9z"/>
	<path d="M507.1,324.1c0.8,0.9,0.3,1.3-0.5,1.7C505.9,325,506.2,324.5,507.1,324.1z"/>
	<path d="M505.5,327.9c0,1.2-0.4,1.5-1,1.8C503.9,328.7,504.5,328.4,505.5,327.9z"/>
	<path d="M508.6,314c0-0.5,0.3-0.8,0.6-0.8c0.4,0,0.5,0.3,0.4,0.6C509.4,314.2,509.1,314.2,508.6,314z"/>
	<path d="M492.8,377.7c0.5-0.7,1-0.8,1.6-0.4C494.1,378.1,493.7,378.2,492.8,377.7z"/>
	<path d="M484.8,359.5c-0.1,0.1-0.2,0.4-0.4,0.4c-0.4,0-0.5-0.2-0.4-0.6c0.1-0.1,0.3-0.3,0.5-0.3
		C484.6,359.1,484.7,359.4,484.8,359.5z"/>
	<path d="M417.4,670.5c-1.3,0.2-2.3,0.4-3.3,0.4c-2.7,0.1-4.4-1.6-4.3-4.1c0.1-2.2,1.8-3.7,4-3.6c2.5,0.1,4.1,1.9,3.8,4.5
		C417.6,668.6,417.2,669.4,417.4,670.5z M414,669.6c0.4-0.8-0.6-1.6,0.3-2c0.6-0.5,1.2,0.8,1.8,0.1c-0.5-3.2-1.5-3.7-4.4-1.9
		C411.2,667.6,411.4,669.1,414,669.6z"/>
	<path d="M409.5,666.5c-1.4,3.2-2.7,4.2-5.1,3.6c-1.9-0.4-3.2-1.9-3.2-3.8c0-1.8,1.4-3.4,3.3-3.7
		C406.8,662.2,408.3,663.3,409.5,666.5z M405.3,663.9c-1.4,0.4-2.5,1-2.4,2.5c0.1,1.4,1,2.2,2.4,2.5c1.4-0.2,2.3-1,2.4-2.4
		C407.8,665,406.8,664.3,405.3,663.9z"/>
	<path d="M394.6,669.1c-0.4-2.4-0.3-4.7,0.3-7c1.8-0.5,3.4,0.1,5,0.4c1.6,1.8,0.9,3.2-0.4,4.4c-0.3,1,1.1,1.6,0.4,2.6
		c-0.8,0-1.2-0.4-1.6-1c-0.3-0.6-0.7-1.2-1.4-1.3C395.4,667,396.3,669,394.6,669.1z M396.2,663.6c-0.3,1.3,0.1,1.9,1.2,2
		c1,0.1,1.8-0.1,1.7-1.6C398.3,663.6,397.4,663.1,396.2,663.6z"/>
	<path d="M435,667.6c-2.1,1.7-4.3,2.2-7.4,0.8C430.4,667.1,432.7,668,435,667.6z"/>
	<path d="M399.8,212.7c0.4-1.5,2-2.1,2.8-3.3c2.7,0.1,5.7-1.5,7.5,1.9c-1.8-0.1-3.6,0.6-5.5,0.1
		C402.9,210.9,401.5,212.5,399.8,212.7z"/>
	<path d="M400.3,227.7c-2.2-5.3-0.6-11,4.2-14.8c-1.2,2.3-3,4.3-3.6,7C400.4,222.4,400.5,225,400.3,227.7z"/>
	<path d="M469.3,302.7c-1-0.4-1.6-0.9-1.7-1.9c0.8-1.2,2.1-1.4,3.4-1.6C472.1,301.2,472.1,301.2,469.3,302.7z"/>
	<path d="M523.3,299.9c1.7-0.8,2.9-1.1,3.7,0.7C525.6,302,524.6,301.5,523.3,299.9z"/>
	<path d="M477.3,295.1c2.6-0.7,5-1.9,7.6-1c0.6,1.2-0.1,1.8-0.8,2.4C481.5,297.2,479.5,295.8,477.3,295.1z"/>
	<path d="M421,212.4c-1.6,0.1-2.3,0.1-3-0.9C419,211.9,419.7,212.1,421,212.4z"/>
	<path d="M423.7,222.9c1.1,0,2,0.3,2.8,1.1C425.5,223.8,424.5,223.9,423.7,222.9L423.7,222.9z"/>
	<path fill="none" d="M703.4,667.8c-0.6,0.5,0.4,1-0.1,1.5c-0.1,0.1-0.4,0.2-0.5,0.2c-2.1-0.5-2.1-2-1.8-3.7
		c2.9-1.9,3.9-1.4,4.4,1.8C704.8,668.5,704,666.9,703.4,667.8z"/>
	<path fill="none" d="M685.5,663.6c1.2-0.3,2.1-0.2,2.9,0.6c0.1,1.3-0.7,1.5-1.7,1.4C685.6,665.5,685.2,664.9,685.5,663.6z"/>
	<path fill="none" d="M694.5,663.8c1.8,0.5,2.9,1.3,2.4,3.2c-0.3,1.1-1.1,1.8-2.2,1.8c-1.3,0-2.1-0.7-2.4-2
		C691.9,665.2,693,664.4,694.5,663.8z"/>
	<path fill="none" d="M414,669.6c-2.5-0.5-2.7-2-2.3-3.8c2.8-1.8,3.9-1.4,4.4,1.9c-0.6,0.8-1.2-0.5-1.8-0.1
		C413.3,668,414.3,668.8,414,669.6z"/>
	<path fill="none" d="M405.3,663.9c1.5,0.4,2.5,1.1,2.3,2.6c-0.1,1.4-1,2.2-2.4,2.4c-1.4-0.3-2.3-1-2.4-2.5
		C402.8,664.9,403.8,664.3,405.3,663.9z"/>
	<path fill="none" d="M396.2,663.6c1.3-0.5,2.1,0,2.9,0.4c0.1,1.4-0.7,1.7-1.7,1.6C396.2,665.5,395.9,664.9,396.2,663.6z"/>
</g>
</svg>
