<?xml version="1.0" encoding="utf-8"?>
<!-- Generator: Adobe Illustrator 19.1.0, SVG Export Plug-In . SVG Version: 6.00 Build 0)  -->
<svg version="1.2" baseProfile="tiny" id="Layer_2" xmlns="http://www.w3.org/2000/svg" xmlns:xlink="http://www.w3.org/1999/xlink"
	 x="0px" y="0px" width="900px" height="600px" viewBox="144 97 900 600" xml:space="preserve">
<g>
	<path d="M772.7,112.2c0.1-0.9,0.7-1.3,1.4-1.7c0.7-0.3,1.3-0.7,2.1-1.1c-0.5-1.6-1.6-1.5-3-1.3c-3.3,0.7-6.7,1.5-10.1,1.7
		c-4.3,0.3-8.2,2.2-12.4,2.2c-0.7,0-1.4,0.6-2.1,1c-1-0.7-2-1.5-2.4-2.7c-1.1,0-1.5,1.1-2.6,1.5c0.1-1.5,1.9-2,1.6-3.7
		c-1.7,1-2.5,2.5-3.6,3.8c-0.8,0.2-0.5-0.6-1-1c-4.9,4.3-5.9,10.6-8.6,16.4c2.3,0.4,4.6,0.6,6.7,1.4c0,0.4,0.1,0.8,0.1,1.2l0.1-0.1
		c-1.3,0.3-2.5,0.2-3.7-0.3s-2.5-0.7-3.7,0.1c-0.2,1.3,0.6,2.4,0.7,3.8c2.1,0.5,4.4-0.1,5.8,1.9c-1,1.1-1.4,2.9-3.2,3.2
		c-1.6-0.2-1.7-1.8-2.6-2.7c-3,7.1-3.6,14.3-1.1,21.7c0.8,2.4,1.4,4.9,1.9,7.4c0.4,2.3,1,4.5,2.7,6.2c1.8,0.9,3.7,1,6.2,1.6
		c-3,1.2-5,0-6.9-0.3c-1.2-1.4-2-2.7-2.4-4.2c-1.3-4.7-2.6-9.3-3.9-14c-1.3-4.7-0.6-9.4,0.7-14c0.8-2.7,1.5-5.5,0.8-8.3
		c-0.6-2.2,0.4-4,0.9-6c1.4-5.6,3.6-10.9,7.1-15.6c1-1.4,2.3-2.4,3.8-3.1c8.6-4.4,17.6-5.1,27.2-3.4c0.7,0,1.2-0.9,2-1.3
		c3.1-1.4,6.2-2.2,9.6-1.1c5.3,1.8,7.2,4.6,7.7,10.1c0.5,5.7-1,11.2-1.1,16.8c-0.1,2.7,0.1,5.4,0.4,8c0.4,3.4,0.7,6.9,0.9,10.3
		c0.1,1.8-0.1,3.5-0.7,5.3c-1.1,2.8-0.8,5.8-1.3,8.7c-0.7,4.4-1.5,8.7-3.7,12.7c2.6-12.3,4.3-24.7,3.6-37.4
		c-1.3,0.3-1.2,1.2-1.7,1.8s-0.9,1.2-1.3,1.8c1.3,5.2,1.3,5.2-2.1,10.7c-0.2,7.8-2.7,15.3-3.7,23c-0.6,0.1,0.2,0.7,0.1,0.2
		c0,0,0.2-0.1,0.3-0.2c0.2-0.1,0.5-0.1,0.7-0.2c0.4,1.8-1.8,3.1-1.2,5.4c1.3-1.9,2-3.6,2.3-5.5c-0.5,0.1-0.8,0.2-1.2,0.3
		c1.7-7.5,3.5-15,5.3-23c0.9,2,0.2,3.6,0.1,5.1c-0.1,1.4-0.5,2.8-0.9,4.1c-0.7,2.7-1.2,5.1-0.9,8.1c0.5,3.7-0.4,7.6-2.1,11.2
		c-0.4,0.8-0.8,1.6-1.1,2.2c1.8,5.2,6,7.6,10.4,10c2.6-1,5.4-2.1,7.9-3.6c3.1-1.9,6.4-3.2,10-3.7c2.5-0.3,5-1.1,7.4-2
		c8.4-3.1,17.2-4.8,26.7-6c4.2-3.2,9.5-5.9,13.8-10c1.8-1.6,3.9-2.8,6.3-3.6c3.7-1.2,7.5-1.8,11.2-2.5c1.4-0.3,2.9-0.4,4.2,0.1
		c2.8,1.2,5.5,0.8,8.2,0c3.8-1.1,7.4-0.1,10.8,1.5c1.7,0.8,3.3,1.8,4,3.9c0.5,1.4,1.8,2.5,2.7,3.7c-0.2,5.3-1.7,10.2-4.4,14.5
		c-3.5,5.6-9.3,8.1-15.5,9c-5,0.8-9.6,2.5-14.1,4.5c-2.1,1-3.8,2.6-6.1,3.6c2.8,5.7,4.4,11.6,5,17.7c0.8,7.4,0.7,14.8-2,22
		c-0.1,0.2-0.2,0.5-0.3,0.7c-2,5.4-5.9,8.1-11.6,8.3c-2.9,0.1-5.9-0.2-8.8-0.6c-2-0.3-3.4-1.6-4.7-3.1c-3.4-3.8-5.1-8.5-6.3-13.4
		c-0.4-1.8-0.8-3.7-1.1-5.5c-1.8-0.6-3.2,0.5-4.9,0.3c-0.3,2.3,0.3,4.7-2,6.1c-1.5,0.2-2.8-0.7-3.3-2c-1.9-5.1-3.7-10.3-5.4-15.5
		c-0.1-0.3,0.1-0.7,0.4-2c2.4,5.1,4.2,9.6,5.2,14.4c0.5,0.8,1.5,0.1,2.1,0.5c-0.1,0.9-1.3,0.5-1.2,1.2c0,0.8,0.5,1.1,0.9,1.3
		s0.9,0.4,1.5,0.6c1.4-2.9,0.5-5.7-0.2-8.2c-0.4-1.7-1.1-3.3-1.1-5.2c0-1.7-0.5-3.2-1.4-4.5c1.2-2.4,3.7-3.8,4.2-6.5
		c0.4-2.3,0.3-4.7,1-7c1.4,2.4,1.3,4.9,1.2,7.5c-0.1,3-1.9,4.6-4.1,6c0.4,0.8,0.6,1.5,0.9,2.2c2.7,1.1,4-1.2,5.6-2.2
		c1-4.3,1.2-8.7,3.1-12.7c1.8-3.8,4.3-6.2,8.5-7c5.7-1,11.4-1.3,17.2-1.7c3.5-0.2,6.9-0.4,10.3-0.9c3-0.4,6.1-0.6,9.2-0.9
		c6-0.7,11.3-2.9,15.5-7.5c2.8-2.9,2.9-6.7,4-10.2c0.3-1.1,0.3-2.3,0.5-3.5c-2.2-2.7-3.9-6-7.5-7.4c-2.1-0.8-4.1-1.3-6.3-0.8
		c-4.6,1.1-9.4,0.6-14.1,1c-3.3,0.3-6.6,1-9.8,2c-2,0.6-3.7,1.6-5.3,2.9c-2,1.6-4.2,3-6.3,4.4c-1.1,0.7-2.2,1.3-3.2,2.2
		c-6.3,5.8-13.8,9.6-21.5,13.1c-3.1,1.4-6.2,3.1-9.2,4.9c-2.7,1.6-4.7,3.7-5.9,6.7c-1.7,4.1-4.7,7.6-7.3,11.2
		c-1.5,2.2-3.1,4.4-4.6,6.5c1.6,5.5,3.6,10.5,4.7,15.9c1.9,0.8,3.6,1.1,5.5,1c-1.4-5.9-5.1-10.7-6.8-16.3c4.8,4.4,5.4,10.9,9,16.1
		c2.1,1.3,4.6,1.6,7.4,2c-1.3,2.1-2.9,0.6-4.1,0.8c-5.6,5.8-6.6,13.5-7.9,20.8c-1.4,8.1-2.8,16.1-5.7,23.8c-2.6,7-4.3,14.4-6.5,21.7
		c-1.6,5.3-1,10.5,1.3,15.4c3.1,6.6,5.3,13.5,8,20.2c3.5,8.6,7,17.3,8.8,26.5c1,5,3.2,9.6,3.8,14.8c1.1,9.8,2.3,19.6,1.7,29.5
		c-0.6,8.6-0.1,17.2-0.3,25.7c-0.1,4.5,0,9-0.4,13.4c-0.1,1.1-0.4,2.2,0.6,3.2c0.8,0.8,0.4,1.9,0.4,2.9c0.1,4.9-0.7,9.7-0.9,14.6
		c-0.2,6.7-0.3,13.3-0.6,20c-0.3,5.9,0.7,11.7,1.6,17.6c0.4,2.1,0.8,4.3,0.9,6.5c0.2,6.2,2,12.1,3.9,17.9c0.6,1.8,1.1,3.6,1.4,5.5
		c0.5,2.6,0.9,5.6,3,7.7c0.7,0.7,0.6,1.7,0.7,2.5c0.8,6.5,1.5,12.9,1,19.5c-0.4,5.6,0.1,11.3,0.4,16.9c0.3,4.8-0.3,9.7-0.5,14.6
		c-0.5,11-3,21.8-3.9,32.8c-0.2,2.4-0.6,4.9,0.6,7.4c2.7,0.9,3.8,3.3,4.6,6c1,3.2,1,6.7,2.7,9.6c2.6,4.7,3.9,9.7,4.2,14.9
		c0,0.5,0.2,1,0.4,1.5c1.4,4.1,1.5,8.2,0,12.5c-1.5,1.2-3.5,1.3-5.3,1.6c-2.4,6-4.5,7.7-10.8,7.6c-2.9,0-5.5,0.9-8.3,1.2
		c-2.7,0.3-5.3,0.4-8-0.1c-3.2-0.6-6.4-0.2-9.6-0.3c-3-0.1-5.8-0.9-8-2.8c-1-2.3-0.3-4.2,0.6-6.1c1.1-2.4,2.3-4.8,3.5-7.2
		c1.7-3.3,3-6.8,3.6-10.5c0.5-3.3,1.8-6.3,3-9.4c2-5.1,4.6-10.1,4.2-15.8c-0.1-1.3,0.5-2.2,1.4-3.2c-1.6-5.1-1.4-10.6-2-15.9
		c-1.1-10.5-3.7-20.6-6-30.9c-0.7-3.1-1.7-6.1-3-9.1c-3.1-7.2-4.3-15-5.5-22.7c-1.2-7.9-1.5-15.8-0.1-23.7c0.3-1.9,0.1-3.9-0.5-5.7
		c-1.5-5.4-2.8-11-4.9-16.1c-2.1-5.1-3.4-10.4-4.5-15.8c-3.2-15.8-6.9-31.5-10.6-47.2c-1.3-5.6-3.3-11-5.2-16.5
		c-1.5-4.2-1-8.7-2.7-12.9c0.5,9.2-3.2,17.6-5.2,26.2c-1.6,6.9-4.3,13.4-6.4,20.1c-2.9,9.1-6.5,18.2-6.7,27.9c-0.2,6-1.2,12-1.1,18
		c0,5-1.8,9.8-2.8,14.7c-0.3,1.3-0.5,2.5-0.9,3.7c-1.2,3.6-0.5,7,0.3,10.6c1.4,6.2,3.2,12.4,2.6,18.9c-0.8,8.3-2.3,16.4-6.3,23.9
		c-1.5,2.7-2.5,5.6-3.2,8.6c-1.3,4.9-3,9.8-4.1,14.8c-0.5,2.3-1.7,4.5-2.4,6.8c-1.7,6.5-1.7,13.2-2.9,19.7c-0.2,1.2,0,2.2,0.4,3.3
		c1.1,3.1,2.1,6.3,1.9,9.7c-0.1,0.9,0.1,1.8,0.6,2.6c2.8,4.9,3.4,10.4,4.4,15.7c-2.7,3.7-6.7,4.3-10.7,5.1c-3.1,0.7-6.2,1.3-9.6,1.9
		c0.2,3.3-1.8,4.3-4.4,5.3c-3.8,1.5-7.8,2.2-11.7,3.6c-3.6,1.3-7.8,0.9-11.8,0.6c-2.2-0.2-4.3-0.4-6.5-0.7c-3.3-0.4-6.2-1.3-8.5-4.3
		c0.8-3.2,0.3-6.6,1.7-10c0.9-2.3,2.2-4,4.1-5.4c6.1-4.8,11.2-10.4,14.7-17.4c0.6-1.1,1.3-2.2,2.1-3.2c2.4-2.9,4.4-6,4-10
		c-0.1-1,0.4-1.7,1.2-2.4c1.6-0.9,3.5-0.1,5.1-0.8c1.1-0.8,1-2,1.1-3.2c0.6-11.1,0.4-22.3-0.2-33.4c-0.6-11-1-22-1.1-33
		c-0.1-9.4,2.1-18.5,4.1-27.7c1.1-5,1.5-10.1,1.3-15.2c-0.2-7.2-0.1-14.3-0.1-21.5c0-5.4-0.9-10.7-1.7-16c-0.3-2.1-0.7-4.3-0.7-6.5
		c-0.1-7.5-0.1-15.1,0.1-22.6c0.1-8.7,0.5-17.4,0.1-26.1c-0.3-6.8,1.2-13.5,1.9-20.2c0.4-3.2,0.6-6.4,1.2-9.5
		c0.6-2.9,1.6-5.8,2.5-8.7c2-6.2,2.7-12.5,3.4-18.8c1.6-13.9,3.7-27.6,6.9-41.2c1.8-7.9,1.9-16,1.1-24.1c-0.2-2.4-0.6-4.8-0.2-7.2
		c0.3-1.5-0.6-3-1.2-4.4c-0.6-1.3-1.2-2.5-1.3-4c-0.2-1.8-0.8-3.2-2.4-4.5c-1.7-1.4-1.9-4-3.9-5.5c-2.6-2-4.3-5-6.3-7.6
		c-3-4-3.9-8.7-3.5-13.5c0.4-4.3,0.9-8.7,3-12.6c-2-4.3-1.6-9.3-3.9-13.9c-0.3,12.2-1.5,23.8-6.7,34.4c-3.2,3.1-7,3.2-10.9,2.8
		c-3.3-0.4-5.4-2.1-6.4-5.2c-1.2-3.8-1.6-7.8-1.8-11.7c-0.1-1.4,0.3-2.8-0.4-4.4c-1.5-0.1-3-0.3-4.2-0.4c-2.6,1.3-3.8,3.7-5.4,5.5
		c-2.4-0.1-3.1-2.5-5.1-2.9c-0.7,0.3-1.6,0.7-2.6,1.2c-2.2-0.7-4.2-2.1-6.8-1.7c0.9-0.6,1.8-1.2,2.8-1.8c1.2-4.2,2.7-8.4,3.5-12.8
		c1.3,0,1.2,0.9,1.1,1.6c-0.7,2.7-1.3,5.5-2.1,8.2c-0.4,1.2-0.9,2.4-0.4,3.7c1.9,1.6,3.3,0,4.7-0.8c2-3.8,1.6-8.3,3.9-12.5
		c1.3,2.8,0,4.9-0.4,6.9c-0.4,2.3-1.2,4.4-1.9,6.8c3.2,0.9,5.3-0.7,7.3-2.9c0.1-2,0.3-4.1,0.2-6.1c0-2.7,0.2-5.3,1.1-7.9
		c0.7-1.8,0.1-3.6-0.7-5.5c-2.1-4.9-5.4-9.3-6.6-14.6c-0.5-2.1-1.9-3.9-3.2-5.6c-1.6-2.2-3.2-4.3-3.5-7.1c2.1-0.5,0.5-2.7,1.7-3.6
		c1,1.9,1,3.9,0.7,6.1c2.7,3.6,6.1,6.9,7,11.7c4.6,2.4,10.1,2,14.4,4.7c0.5-0.4,0.7-0.5,0.8-0.7c2-5,5.9-5.9,10.7-4.9
		c1.4,0.3,2.7,0.7,4.2,0.4c-0.1-0.7-0.2-1.5-0.3-2.1c0.2-0.3,0.4-0.3,0.7-0.2c0.8,0.4,1.8,0.8,2.1,1.6c1.5,3.5,4.3,6.3,6,9.8
		c0.2,0.3,0.4,0.7-0.3,1.1c-1.5-0.5-2.2-2.4-4.1-3.3c0.8,4.3,0.8,8.5,2.9,12.4c1.8,3.3,2.6,7.2,3.1,11.2
		c7.3-14.1,16.1-27.1,25.6-40.2c-6.3-2.6-12.5-5.5-19.2-6.9c-5.1-1-10.4-1.2-15.5-2.4c-3.1-0.7-6.4-0.3-9.6,0.1
		c-2.1,0.3-4,0.1-5.9-0.9c-2.6-1.4-5.6-1.7-8.5-2c-3.6-0.4-7.1-0.7-10.7-0.8c-2-0.1-3.9-0.3-5.6-1.2c-3.3-1.8-6.7-2-10.3-1.2
		c-1.5,0.3-3,0.2-4.6,0c-2.5-0.3-5.1-0.5-7.6,0.3c-0.2,0.2-0.4,0.3-0.6,0.5c-2,1.2-0.5,4.2-2.4,5.3c-1.7,0.9-3.5,1.6-4.5,3.5
		c-0.5,3-0.3,6,2.6,8.7c5.5,0.1,9.5,2.7,9.9,8.9c1.6,0.7,3,1.4,4.3,1.9c1.1-0.7-0.5-1.4,0.2-2c1.3,0.7,1.3,0.7,1.6,3.2
		c0.5,0,1,0.1,1.6,0.1c-0.2,3.1-2.2,5.8-1.9,8.8c0.6,0.9,1.2-0.2,2.2,0.5c-0.7,2.8-1.5,5.8-1.8,8.9c-0.3,3.1-0.7,6.3-1,9.3
		c0.8,1.6,2.1,1.8,3.5,1.8c1-4.9,0.3-9.9,2-14.6c1.5,0.6,1.1,1.4,0.9,2.1c-0.7,3.2-1.5,6.5-1.4,9.8c0,1.3,0.1,2.5,0.9,3.6
		c-5.5,0.9-6.5,0.3-7.7-4.2c-0.5-0.5-1.2-0.5-1.8-0.5s-1.3,0-2.3,0c0.2,6.9-3.2,12.5-6,18.6c-4.2,1.8-8.6,1.7-12.9,0
		c-2.3-0.9-3-3.1-3.6-5.2c-1.2-4.4-1.6-8.8-1.6-13.3c0-6,0.9-12,1.5-18c0.5-5,2.4-9.6,4.1-14.3c0.9-2.7,3-4.7,5.9-5.7
		c-0.3-0.9-0.5-1.6-0.8-2.3c-2.3-5.3-0.4-9.4,3.6-12.9c0.9-0.8,1.9-1.3,2.5-2.3c1.4-2.6,3.8-3.2,6.5-3.1c3.8,0,7.6,0.3,11.5-0.3
		c3-0.4,6.4,0.6,9.3,1.9c1.4,0.6,2.6,0.8,4.1,0.8c6.6,0.1,13,1.3,19.2,3.4c1.3,0.4,2.5,0.6,3.7,0.5c9.7-0.7,19.2,0.7,28.6,2.5
		c3.2,0.6,6.1,1.8,9,3.3c3.6,1.9,7.6,3,11.3,4.5c3.1-2.5,5.9-4.8,9.3-7.5c0.3-4.2,3-8.2,2.2-13c-0.2-1.2,0.4-2.2,1.6-3.2
		c1.6,3.1,2.1,6.1,1,9.2c-1.5,4.1-2.4,8.7-6.4,11.4c-0.5,0.3-0.9,1-1.1,1.6c-2.3,7.2-6.1,13.8-9.2,20.7c-1.7,3.7-2.3,7.5-2.1,11.6
		c0.1,2.6,1.3,4.2,3.8,5.1c3.8,1.3,7.7,1.6,11.7,1.4c1.2-1.4,0.8-3.6,2.5-4.8c1,1.5-0.4,2.9-0.1,4.4c1.1,0.6,2.2,0.2,3.3,0
		c7.2-1.6,13.8-4.7,20.3-7.9c2.8-1.4,4.3-3.6,4.6-7c0.4-5.8,1.5-11.4,5-16.3c0.4-0.5,0.6-1.1,0.7-1.7c0.6-4.3,1.7-8.5,2.8-12.9
		c-8.6-9-7.8-19.9-6.3-31.1c-0.7-0.7-2.6-0.2-2.6-2.1c0.9-0.6,1.6,0.8,2.5,0.4c3.7-2.1,7-4.6,7.7-9.3c1.8-2.6,0.4-4.4-1.3-6
		c-1.2,0.2-1.7,0.9-2.2,1.8c0.9,0.4,1.6-0.8,2.5-0.3c1,1.3,1.3,2.9,1.1,4.6c-1-0.7-1.4-1.9-2-3c-2.1,1.5,1.2,2.4,0,3.7
		c-1.2,0.6-1.5-1.1-2.4-1.1c-0.7,1,0.4,1.8,0.2,2.9c-1.6,0.7-1.5,2.9-2.9,4.1c-1-0.8-1.4-2-0.6-2.6c1.8-1.5,1.7-3.5,2.2-5.5
		c-1.5-1.3-3.3,0.4-5.5-0.3c1.7-0.9,1.9-2.6,3.8-2.9c-1.3-0.9-3.1-0.2-3.7-2.2c1.7-0.5,3.1,0.9,5,0.2c-2.1-1.4-5-1.1-5.9-3.9
		c3.8,2.7,8.5,2.1,12.7,3.9c1-2.1,2.2-4,1.4-6.4c0-0.3-0.1-0.6-0.1-0.9c0.8-0.8,1.6-1.5,0.8-2.8c-1.4,0.2-2.4,1.7-4.1,1.3
		c1.5-2.1,5.2-1.9,4.6-5.6c-1.6,0.7-2.7,2-4.3,1.9l0.1,0.1c0.1-1.5,1.6-1.5,2.4-2.2c1.5-1.4,1.6-1.5,1.2-4.7
		c-3.3,2.6-7.3,0.7-11.3,1.7c1.9,1.1,4,0.4,5.3,1.9c-4.1,0-7.7-2.1-11.8-2.4c4.5-1.8,9.1-0.9,13.7-0.4c1.2-0.5,2.4-1.2,3.5-2.4
		c-0.6-1.8-1.8-3.2-3.1-5c-1.7,2.4-4,3.3-6.6,3.7c-1.2,0.2-2.6,0.3-3.5,1.4l0.1-0.1c-1.8-0.2-3.7,0.6-5.5-0.4
		c-0.2-0.7-0.1-1.3,0.2-2l-0.1,0.1c2.7,1.1,5.4,1.4,8.3-0.5c-2.2-0.5-3.9,0.3-5.4,0.5c-1.8-0.6-2.6-2.6-4.5-2.3l0.1,0.1
		c2.7-1.2,5.5-2.6,8.5-0.9c-0.2,0.3-0.3,0.6-0.6,1.1c1.4,0.5,2.8,1,3.9,1.4c1.6-0.2,2.6-0.9,3.4-2c-1.7-0.1-0.2-2.2-1.9-2.5
		C776.1,110.6,774.7,112,772.7,112.2z M685.2,221.4c-1.3,0.8-0.5,2.1-0.7,3.1c-1,0.8-0.7,1.8-0.4,2.9c0.1-1,0.2-2,0.3-3
		C685.1,223.5,685.2,222.5,685.2,221.4c0.7-0.7,1-1.4,0.1-2.5C685.2,219.9,685.2,220.7,685.2,221.4z M780.5,109.2L780.5,109.2
		c-0.1,2.1,2.5,1.7,3.3,3.1c1,2.3,2.1,4.5,3.4,7.4c0.1-4,0-7.3-0.8-10.5c-1.5-5.6-5.1-7-10-4c-0.3,0.2-0.3,0.4-0.1,0.6
		c0.5,0.5,1.5-0.2,2,0.5c-0.2,0.5-0.9,0.6-0.7,1.5C778.3,108.6,779.3,109.1,780.5,109.2z M687.6,261.5c2.2-1.5,3-3.8,3.7-6.1
		c4.4-12.8,5.6-25.9,3.7-39.3c-0.3-2-0.8-4-1.9-5.8c-0.5-0.8-1.1-1.8-2.4-0.9c0.1,0.8,1.2,0.6,1.2,1.5c-2.3,1.5-3.5,3.9-4.2,6.4
		c-3.3,10.9-4.2,22.1-3.9,33.3c0.1,3.2,0.8,6.3,2.4,9c0.8,0.1,1.2-0.8,1.9-0.2c-0.2,0.6-0.5,1.2-0.7,1.7c-1.2,0.7-1.7-0.8-3-1.3
		C685.9,262.2,685.9,262.2,687.6,261.5z M788.1,289.8l0.1,0.1c-0.6-1-1.7-1.2-2.6-1.4c-3-0.6-6-1.2-9-1.7
		c-8.4-1.4-16.9-0.7-25.2-1.9c-8.3-1.1-16.6-0.5-24.8,1.1c-2.7,0.5-5.5,1.1-7.9,2.1c-0.4,0.8-0.2,1.4-0.1,2.1
		c0.9,5.4,1.8,10.9,1.8,16.4c-0.1,9.5-1.9,18.8-4.2,28c-1.7,6.7-2.3,13.5-3.1,20.5c3.1,0.7,5.9,1.3,8.8,2c0-0.6,0.1-1.1,0.1-1.8
		c1.8,1.2,3.3,2.6,5.3,3c10.8,2.4,21.7,3.6,32.8,2.5c7.2-0.7,14.4-2.3,21.8-2c1.5,0.1,3-0.4,4.4-1.2c1.5-1.7,2.7-3.6,4.9-4.9
		c0.2,1.9-1.6,2.5-1.8,3.8c6.1-0.3,11.7-1.9,17-5.3c-2.8-7.3-5.5-14.8-8.6-22.1c-2-4.6-3.2-9.5-4.5-14.2c-1.2-4.1-0.6-8.6-0.2-13
		c0.4-3.8,1.2-7.5,3-11C793.1,289.9,790.7,289.3,788.1,289.8z M824.6,648c0.2-0.5,0.3-0.6,0.3-0.7c0-0.6-0.1-1.3-0.2-1.9
		c-0.9-6.4-2-12.6-1.4-19.3c1.1-11.3,2.4-22.6,3.7-33.9c1.3-11.3,1.1-22.5,0.4-33.7c-0.2-2.5-0.2-5.1-0.8-7.6
		c-2.8-11-5.5-22.1-8.9-32.9c-4-12.6-3.9-25.2-3.4-38c0.2-4.7,0.7-9.4,0.7-14.1c0-2.2-0.6-4.3-0.4-6.5c0.9-12.3,0.9-24.5,0.7-36.8
		c0-1.6,0.2-3.3-0.6-4.9c-6.6-0.9-13.2-1.4-19.9-0.9c-7.7,0.6-15.2,1.9-22.2,5.4c-2.5,1.2-5,2.4-7.7,2.6c-0.4,1.3,0,2.3,0.3,3.2
		c0.9,2.9,2.3,5.8,2.8,8.8c1.8,11.2,4.5,22.3,7.1,33.4c1.6,6.7,2.3,13.6,5.6,19.8c0.5,0.9,0.3,2.3,0.6,3.4
		c1.3,5.7,1.8,11.6,5.3,16.6c0.7,1,1.2,2.3,1.3,3.6c0.2,2.3,0.8,4.5,1.6,6.7c1.7,4.2,2.2,8.6,2.8,13c0.3,2.2-0.3,4.6-0.5,6.9
		c-0.9,10.2,0.1,20.2,2.8,30c0.6,2.2,2.1,4,2.4,6.4c0.7,6.1,2.5,12,3.9,18s3.2,11.9,3.8,17.9c0.6,6.1,1.7,12.2,1.8,18.3
		c0,1.7,0.5,3.5,0.7,5.3c1.7-0.1,3.1-0.3,4.5-0.3c5.1,0,8.7,2.7,10,7.5C822.3,644.9,823,646.5,824.6,648z M719.4,638.9
		c-1.3-1.3,0.2-3.3-0.7-4.7c-1.7-2.6-1.3-5.1-0.4-7.7c0.3-1,0.6-2,0.7-3c2.9-15.5,7.1-30.6,12.9-45.3c1.8-4.5,3.6-9,3.2-14.1
		c-0.2-2.8,0-5.6,0-8.4c-0.1-7.2-1.9-14.2-2.2-21c1.8-5.5,3-10.8,3.7-16.2c1-7.3,1.6-14.7,1.9-22.1c0.3-6.7,1.8-13.1,3.4-19.6
		c0.6-2.2,0.9-4.6,1.7-6.7c4.7-12.8,9.1-25.8,11.9-39.2c0.4-1.9,0.6-3.9,0.9-6c-2-0.5-3.8-0.5-5.6-0.9c-5.5-1.3-10.8-3.1-16.4-3.8
		c-5.7-0.7-11.1-3.1-16.9-3.2c-3.7-0.1-7.4-0.5-11.1-0.7c-0.3,0-0.7,0.3-1.3,0.5c0.4,3.9-0.9,7.7-0.8,11.7c0.1,3.8-0.2,7.7-0.7,11.5
		c-0.8,5.7-1,11.5-1.2,17.2c-0.1,3.1-0.3,6.4,1.4,9.3c0.5,0.8,0.4,2,0.4,3c0.1,5.1,0.9,10.2,1.4,15.3c0.4,4.5,0.9,8.9,0.2,13.4
		c-0.4,2.4-0.4,4.8-0.4,7.3c-0.1,4.4,0.2,8.7,0.4,13c0.1,3.2-0.4,6.6-1.1,9.8c-2.1,9.1-4.1,18.3-4.1,27.7c0,8.2,0.2,16.4,0.9,24.6
		c1.4,15.7,0.5,31.4,0.1,47.1c1.5,0.3,3.3,0.8,3.8,2.1c1,3,3.7,3.6,6,5.2c1.4,2.5,2.6,5.3,4.5,7.8
		C717.8,642.2,718.6,640.8,719.4,638.9z M705.1,413.3c17.4,1.8,34.6,3.6,50.9,9.6c2-5.9,3.9-11.5,2.7-17.7c0.8,1.3,1.7,2.5,2.3,3.4
		c0.8,4.8,0.7,9.4,4.6,12.9c5-2.7,10.6-3.1,15.4-6c1.4-0.8,3.2-1.2,4.8-1.2c7.4-0.2,14.7-2,22.2-0.8c2.2,0.4,4.5,0.6,6.5,0.7
		c0.9-0.9,0.5-1.9,0.7-2.8c1.4-5,1.5-10.1,1-15.1c-0.5-5.3-1.8-10.6-2.1-16c-0.2-2.5-0.7-5.1-1.7-7.5c-0.7-1.7-1.1-3.4-1.4-5.2
		c-0.7-4.3-1.8-8.4-3.7-12.5c-0.9,0.2-1.7,0.3-2.3,0.6c-6.4,3.2-13.5,3.7-20.4,5c-5.3,1-10.7,1-16,1.9c-10.8,1.9-21.7,1.9-32.5,0.2
		c-7.1-1.1-14-3-20.9-4.9c-0.8-0.2-1.7-0.7-2.7,0c-0.5,1.1-0.5,2.4-0.6,3.7c-0.4,9.3-1.2,18.6-3.5,27.7
		C706.5,397,706.3,405,705.1,413.3z M771.7,224.1c-4.9,4.3-10.3,6.3-15.6,8.5c-8.1,3.3-16.5,3.4-24.9,1.8c-5.8-1.1-7.5-3.7-7.6-9.7
		c0-1.1,0.1-2.3,0.3-3.4c0.5-3.3,1.8-6.4,3.4-9.3c2.6-5.1,5-10.2,7.7-15.7c-4.1,2.4-7.4,4.8-9.1,8.9c-0.3,0.8-1,1.5-1.4,2.3
		c-2.1,4.2-5.4,7.4-7.9,11.3c-4.1,6.5-7.9,13.1-11.8,19.7c-3,5.3-4,11.1-4,17c0,5,2.9,8.9,5.8,12.7c4.3,5.6,9.4,10.7,11.3,17.9
		c1.7-0.5,3-1,4.4-1.4c7-2.1,14.2-3.5,21.6-3.1c8.9,0.5,17.9,1.2,26.8,1.8c1.5,0.1,3,0.4,4.5,0.7c7,1.4,14,2.8,21.2,4.2
		c4.5-11.3,6.9-23,8.2-35.1c-2.5-1.2-5.2-2.1-7.1-4.1c-4,2.8-8.2,2.8-12.7,2.6c-4.8-0.2-7.2-3.1-9-7
		C772.9,238.4,772,231.7,771.7,224.1z M682.3,654.6c10,0.1,10.2,0.2,11.5,3c-2.5,1.2-5.1-0.1-7.6,0.4c-0.4,0.6,0.7,1.4-0.5,2.4
		c-2.5,1.4-5.2-0.5-8.1-1c-1.2,1.3-2.7,2.3-4.2,3.2c-3.7,2.1-4.8,5.4-4.1,9.4c12.5,2.4,12.5,2.4,15.4,5.8c-3.2-1.4-5.8-2.2-8.6-2.6
		c-2.8-0.4-5.6-1.1-8.8-0.3c1.3,1.6,2.7,2.2,4.2,2.3c3.8,0.4,7.6,0.8,11.4,1.3c2,0.2,3.4-0.7,4.4-1.9c6.4,0.5,11.8-2,17.3-3.5
		c1.7-8.6,3.4-8.8,6.6-8.4c-0.7,1.8-3.1,2-4,4.3c6.1-1.2,11.6-2.2,17.3-4c-0.3-2-0.7-3.8-0.8-5.7c-0.5-5.2-4.6-9.4-3.4-15.1
		c-2.6,0.8-4.7,2.3-7.2,0.5c-0.8-1.9-1.6-3.9-2.5-5.8c-0.5-1-0.9-2.2-2-2.7c-3-1.1-4.9-3.6-7.3-5.6c-2.3,0.1-4.6-0.6-6.8,0.8
		c-0.3,3.1-1.8,5.7-3.2,8.6c1.5,0,2.6-0.1,3.8,0c3.6,0.3,7.1,0.7,10.4,2.4c0.7,0.4,1.3,0.9,0.8,2c-3,0.4-5.9-0.9-8.9-1.2
		s-6.2-1-9,0.8c11.3,0.6,15.2,1.6,17.2,4.9c-0.9,1.5-2.2,0.8-3.4,0.6c-4.4-0.8-8.8-1.7-13.3-1.6c-1.4,0-2.9-0.1-3,1.9
		c0.9,0.6,1.8,0.1,2.6,0c2.8-0.3,5.6-0.1,8.4,0.4c1.5,0.3,3.4,0.3,3.7,2.5c-1,1.8-2.5,1.2-3.8,1.1c-4-0.4-7.9-0.6-11.9-0.6
		C684.1,653.4,683,653,682.3,654.6z M791.4,686.2c4.4-3,17.1-1.5,23.5,2.5c2.2-0.6,4.6-0.9,7.1-0.8c4.4,0.2,7.8-1.3,9.1-5.9
		c0.1-0.2,0.2-0.4,0.4-0.7c1.6-0.9,3.2-1.9,4.8-2.8c-0.1-2.4-1-4.7,0.4-6.7c-0.8-2.6-1.2-5.1-1.6-7.6c-0.4-2.2-0.4-4.6-1.6-6.7
		c-1.6-2.8-2.7-5.8-3.3-9c-1.2,0.6-1.5,2.2-2.9,2.4c-1.6,0-3.3,0-4.9,0c-2.3-3-2.6-6.7-4.1-9.9c-3.3-1.7-6.5-3.2-10.1-2.1
		c-1.8,1.7-2.1,3.7-2.1,5.8s-1.4,3.8-1.7,5.8c14.1,1.1,14.1,1.1,15.4,4.1c-2.8,0.9-5.5-0.3-8.3-0.4c-2.8-0.1-5.6,0.1-8.5,0.4
		c-0.8,0.6-1.6,1.1-1.7,2.4c5.5-1.9,11.1-1.8,16.6-0.6c1.3,0.3,2.6,0.5,2.6,2.6c-3.1,1.8-6.6,0.5-9.9,0.7c-3.5,0.2-7,1.3-10.4-0.1
		c-0.6,1.1-0.9,1.9-0.2,2.6c5.3-1.6,10.7-1.5,16-0.8c1.6,0.2,3.4,0.3,3.8,2.6c-0.3,1.2-1.1,1.7-2.2,1.6c-6.2-0.5-12.4,0.7-18.9-1.2
		c0.6,1.5-0.7,2.6-0.1,3.8c5.3-0.7,10.6-0.1,15.8-0.5c0.5,0,1,0.1,1.5,0.3c0.3,0.1,0.5,0.5,0.7,0.7c0.2,1.2-0.5,1.9-1.4,2.1
		c-5.9,1.2-11.8,1.5-17.8,0.2c-2.3,5-5,10-7.9,14.8c2.5,2,3,2.4,5.7,2.5c4.4,0.3,8.8-0.2,13.3,0.3C803,686.2,797.1,687,791.4,686.2z
		 M866.3,225.6c-0.3-5.2-0.6-9.5-1.5-13.7c-1.1-5.5-3-10.9-7-15.1c-3.6-3.8-7.3-3.5-10.1,0.9c-1.9,2.9-2.9,6.2-3.5,9.6
		c-1.2,6.7-1.1,13.5,0.2,20.2c1.1,5.4,2.7,10.7,5.9,15.2c4.5,6.2,9.4,5.7,12.6-1.2C865.6,236.2,866.2,230.4,866.3,225.6z
		 M799.8,212.3c-0.9-4.3-2.4-8-5.1-11c-2.6-2.9-5.2-2.8-7.7,0.3c-0.8,1-1.4,2.1-1.9,3.3c-2.4,4.9-3,10.3-3.2,15.6
		c-0.3,7.9,0.6,15.6,3.9,22.8c0.8,1.8,1.7,3.4,3.1,4.8c2.5,2.5,5,2.4,7.2-0.2c0.8-1,1.5-2.1,2.1-3.2c1.8-3.6,2.7-7.4,3-11.4
		c0.1-1.5,0.7-3-0.3-4.6c-2.5-0.6-5,0.7-7.4,0c-2.7-1.7-2.6-4.4-2.3-6.9c0.2-1.6,1.2-2.4,2.8-2.6c1.4-0.2,2.8,0.2,4.2-0.7
		C797.9,216.2,798.2,214.1,799.8,212.3z M630.7,202.8c-2.4,1-3.2,2.6-4.1,4.2c-1.3,2.4-2.1,4.9-2.8,7.5c-2,7.7-3.1,15.6-3.1,23.5
		c0,4.5,0.3,9,1.4,13.3c0.5,1.9,1,4,3,5c4-2.7,7.5-11.5,7.4-18.2c-0.9-0.7-2-0.4-3-0.5c-2.5-0.2-3.9-1.2-4.3-3.6
		c-0.6-3.5,0.3-6.7,2-9.9c2.4,0.2,4.3,1.2,6.4,0.7C634.9,217.4,635.3,209.9,630.7,202.8z M852.8,247.3c-4.1-3.2-6.2-7.1-7.7-11.3
		c-3.1-8.7-3.9-17.7-2.8-26.8c0.7-5.4,2.1-10.4,6-14.6c-7,0.2-9.5,1.9-11.8,7.9c-0.3,0.8-0.6,1.7-0.8,2.5
		c-2.8,11.7-2.2,23.2,2.7,34.1C842.2,247.6,844.8,247.8,852.8,247.3z M835.2,179.3c-2,0.3-3.1,0.4-4.2,0.7c-4.5,1-9.2,1.4-13.3,3.4
		c-3.4,1.6-6.8,2.8-10.4,3.4c-1.7,0.2-3.3,0.5-4.8,1.3c-4.3,2.1-8.6,4.4-13.6,5.4c0.3,1.7-0.4,3.2,0.4,4.8c3.5-0.7,5.9,1,7.8,3.6
		c1.2,1.6,2.1,3.5,2.9,5.4c0.3,0.7,0.1,1.9,1.7,1.9c2.7-4.8,6.8-8.8,9.2-13.9c1.1-2.4,2.8-4.2,5.1-5.5c3.9-2.1,7.8-4.4,11.9-6.2
		C830.3,182.4,832.6,181.4,835.2,179.3z M688.6,208.5c-2.3-1.1-4.3-0.5-6.2,0c-1.7,1.4-2.6,3.2-3.4,5.1c-3.9,9.5-5,19.5-5.2,29.6
		c-0.1,4.5,0.3,8.9,1.4,13.3c1.3,5,2.7,6,8.1,6C677.6,248.3,680.3,219.8,688.6,208.5z M627.3,202.3c-5.9-0.7-7.1,0-9.3,4.8
		c-0.7,1.6-1.4,3.3-1.9,5c-3.2,11-4.1,22.3-3.1,33.8c0.2,1.9,0.6,3.8,1.2,5.6c1.3,4.2,2.8,5.2,7.6,5
		C615.9,243.3,619.6,212.1,627.3,202.3z M789.1,250.4c-4.3-3.9-6-8.6-7.3-13.4c-1.4-5.5-1.8-11.1-1.6-16.8
		c0.3-7.5,1.3-14.7,6.6-20.8c-7.2,1.2-9.3,2.9-11.4,9.2c-0.2,0.5-0.3,1-0.4,1.5c-1.9,7.2-2.1,14.4-1.2,21.7
		c0.6,4.8,1.8,9.5,4.2,13.9c1.7,3.1,4.1,4.9,7.7,4.8C786.6,250.4,787.5,250.4,789.1,250.4z M676.4,214.8c-1.8-1.6-4-1.7-6.1-2.2
		c-2.2-0.5-4.3-1.1-6.8-1.8c1.1,3.5,2.6,6.5,4.6,9c1.8,2.3,2.1,4.5,1.1,7.1c-0.3,0.6-1,1.3-0.4,2.1c1.6,1.1,3.1,0.4,4.6-0.5
		C673.7,223.8,675,219.3,676.4,214.8z M627.8,236c3.6-1,7.4,0,11.4-0.1c0.4-2.8,0.7-5.4,1.2-8.5c-4.3,0.5-8.2-1.3-12.3-1.5
		C626.1,230.6,626.1,232.4,627.8,236z M805.4,250.7c1.9-5.9,2.2-11.9,7.7-16.2c-3.9-0.1-7,0.1-10.1-1.3c-0.6,4.8-1.8,9.1-3.8,13.4
		C801.4,248.1,803.1,249.3,805.4,250.7z M782.3,188.6c-1.1,3.7-2.1,7.1-2.3,10.9c2.3-0.6,4.4-1.1,6.5-1.6c0.2-2.2,0.4-4.1,0.6-6.3
		C785.2,191.1,783.4,190.5,782.3,188.6z M793.2,227.1c4.3,0.6,4.7,0.5,7.5-1.2c-0.6-1.7-0.8-3.7-2-5.3c-1.9-0.1-3.8-0.3-5.9,0.2
		C792.6,223,792.3,225,793.2,227.1z M667.6,231.6c0.8,3-0.9,5.9,0.4,8.7c1.3,0.3,2.5,0.6,3.9,0.4c0.3-3.3,0.6-6.4,0.9-10
		C671,231.8,669.5,230.8,667.6,231.6z M636.6,213.1c0.5,4.3-0.2,8.3-0.1,12.3c1.5,0.6,2.7,0.8,4.3,0c-1.9-3.6-1.1-7.4-0.3-11.2
		C639.2,213.7,638.3,213,636.6,213.1z M827.9,224.3c1.7,0.1,3.1,0.2,4.8-0.4c-0.6-2.2,0.2-4.5-0.6-6.7c-1.9,0-3.6,0.2-5.1,0.8
		C826,220.4,827.5,222.1,827.9,224.3z M861.7,198.3c3.5-1.7,6.6-3.3,9.8-4.9c-4.3,0.7-8.7,0.4-13.3,0.9
		C859.5,195.9,860.5,197.1,861.7,198.3z M751.1,107.1c0.1,0.1,0.3,0.2,0.3,0.2c-0.6,1.4-2.8,1.3-3,3.3c2.5,0,3.9-2.4,6.4-2.7
		c-0.6-0.5-0.9-0.7-0.7-1.2c1.2-1,3.1-0.8,4.9-2.4c-4.3,0.6-8.3,0.1-11.3,3.7C749.2,108.3,750,107,751.1,107.1z M772.6,106.5
		c-5.7-2-8.7-1.9-13.8,0.2c3.8-1.4,7.4-0.4,11,0.9C770.6,107.9,771.8,107.9,772.6,106.5z M777,168.8c1-5.6,2.9-11.1,2.9-16.8
		c-1.2,4.3-1.5,8.8-3,13.1C776.4,166.3,776.6,167.6,777,168.8z M827.1,639.4c-0.1,2.6-0.8,5.3-0.2,8.2
		C829.3,645.1,829.3,645.1,827.1,639.4z M682.3,251.9c0.1,0,0.2-0.1,0.3-0.1c0-4.9,0-9.8,0-14.7c-0.1,0-0.2,0-0.3,0
		C682.3,242,682.3,246.9,682.3,251.9z M773.7,104.9c2.9-0.9,3.2-1.1,4.7-2.6C774.9,102.1,774.9,102.1,773.7,104.9z M777,156.9
		c1-0.9,1.4-1.8,0.8-2.9C776.4,154.7,776.7,155.7,777,156.9z M680.9,657.6c-0.5-0.9-0.9-1-1.4,0C680,658,680.5,657.9,680.9,657.6z
		 M683.3,229.8c-0.3,0.5-0.3,1,0,1.7C683.3,230.8,683.3,230.3,683.3,229.8z"/>
	<path d="M419.1,157.1c-0.1-0.4-0.2-0.7-0.2-1.1c0.8-1.1,1.5,0.6,2.3,0.2c4.3-2.1,7.4-5.3,8.5-10.1c0.4-1.6,0.6-3.3-1.3-4.2
		c0-0.6-0.4-0.9-0.9-0.9c-1.1,0.2-1.6,0.9-2.1,2c1.1-0.4,2.2-0.8,3.2-1.2c0,1.5,1.4,2.8,0.5,4.4c-1.3,0-0.9-2.1-2.3-2
		c-1.1,1.5,1.7,2,0.6,3.4c-1.1,0.5-1.4-0.9-2.3-1.1c-1,0.9,0.5,1.8-0.1,3c-1.7,0.3-1,3.1-3,3.7c-1.9-2.2,0.4-3.2,1.1-4.3
		c0.5-1.5,0.1-2.7,0.6-3.8c-1.7-1.1-3.3,0.5-5.1-0.5c1.5-0.3,1.6-2.2,3.2-2.5c-0.8-1.3-2.7-0.5-3.5-2.3c2.4-0.1,4.7,0.8,7.1-0.1
		c-3.1-0.3-6.1-0.5-8-3.1c0.1-1,0.7-0.8,1.1-1l-0.2-0.1c1.1,2.5,3.7,2.6,5.8,3c2.2,0.5,4.5,0.9,6.6,1.7l-0.1-0.1
		c0,0.1-0.1,0.3,0,0.4c1.6,4.1,0.9,7.7-2,10.8c0,7.6-2.7,14.7-3,22.1c1.3-2.1,1.8-4.3,2.2-6.7c0.4-2.5,1.3-4.9,1.7-7.5
		c0.4-2.5,1.1-4.9,1.9-8c0.8,2.4,0.2,4-0.1,5.7c-0.2,1.5-0.8,3-1.1,4.5c-0.5,2.3-0.9,4.5-0.6,7c0.4,3.8-0.4,7.9-2.1,11.5
		c-0.3,0.7-0.7,1.4-1.1,2.2c1.6,3.3,3.8,6,7.1,8.1c9.7,6.1,20.2,10.5,30.7,14.9c8.3,3.4,13,9.9,14.8,18.3c0.9,4.6,0.6,9.5-0.1,14.1
		c-0.7,4.4,0,8.6,0.9,12.9c1.7,8.2,4.5,16.3,4.7,24.8c0.1,3.7,0.1,7.4,0.2,11.1c0.1,2.7,0.3,5.3,1.2,7.9c0.8,2.4,0.6,5.1-0.1,7.6
		c-2.8,10.5-5.2,21.1-8.7,31.4c-2.2,6.6-5.1,12.8-8.3,18.9c-2.2,4.1-4.5,8.1-6,12.4c-0.4,1.2-0.8,2.4-0.6,3.7
		c1.2,8.1,2.4,16.2,2.8,24.4c0,0.2,0.3,0.4,0.7,1c0.3-1.4,0.5-2.6,0.7-3.7c2.3,0.5,0,2.5,1.2,3.4c1.3,0.3,1.4-0.6,1.5-1.5
		c0.2-3.6,0.9-7.1,1.7-10.6c0.5-2.2,1.2-4.5,2.3-6.5c0.5-1,1.1-2.1,1.9-2.9c3.6-3.7,13.5-1.9,15.6,2.9c0.8,1.7,1.3,3.6,1.7,5.5
		c2.2,12.3,1.7,24.5-1,36.6c-0.6,2.6-1.6,5.1-2.7,7.4c-3.1,3-6.7,3.8-10.7,3.3c-3.2-0.4-5.4-2-6.5-5.1c-1.1-2.9-1.7-5.9-2.1-9
		c-0.3-2.1-0.5-4.3-0.7-6.3c-1-0.7-1.8-0.7-2.6-0.3c-0.5,0.6-0.5,1.2-0.4,1.9c0.5,10.4,0.3,20.7,0.2,31.1c0,2.4-0.2,4.9-0.2,7.3
		c0,1.6-0.5,3.2,0.7,4.8c0.5,0.6,0.3,2,0.3,3c-0.3,4.7-0.7,9.4-0.9,14.2c-0.2,5.9-0.2,11.8-0.5,17.7c-0.4,6.8,0.4,13.5,1.6,20.2
		c0.4,1.9,0.8,3.8,0.8,5.7c0.1,4.7,1.2,9.1,2.4,13.6c1.1,4.2,2.7,8.2,3.5,12.4c0.4,2,0.7,4.3,2.6,5.8c0.5,0.4,0.5,1.4,0.6,2.2
		c0.9,6.6,1.4,13.2,1,19.9c-0.4,5.5,0.1,11,0.4,16.5c0.3,4.8-0.3,9.7-0.5,14.6c-0.5,11-3,21.8-3.9,32.8c-0.2,2.4-0.5,4.9,0.5,7.4
		c2.6,0.8,3.7,3,4.5,5.5c0.6,2,1.1,4,1.5,6s1,4,2.1,5.8c1.5,2.7,2.6,5.5,2.9,8.6c0.4,3.3,1,6.5,1.8,9.8c0.8,2.9,0.1,5.8-0.7,8.6
		c-1.5,1.5-3.5,1.4-5.6,1.8c-1,3.9-3,7-7.5,7.4c-1.5,0.1-3,0.6-4.6,0.3c-0.4-0.1-0.8-0.2-1.1-0.1c-7.4,2.9-15,0.8-22.4,0.9
		c-3.5,0.1-6-0.3-9-2.9c-0.9-1.9-0.4-3.7,0.4-5.5c0.7-1.6,1.4-3.3,2.3-4.9c2.8-5.1,4.8-10.4,5.6-16.2c0.7-4.3,3.3-8,4.6-12.2
		c1-3.2,2.2-6.3,2.1-9.7c-0.1-1.5,0.2-2.8,1.4-3.7c-1.6-5.2-1.5-10.5-2.1-15.7c-1.2-10.6-3.8-20.9-6-31.3c-0.6-2.9-1.5-5.7-2.7-8.4
		c-3.2-7.2-4.5-14.9-5.7-22.6c-0.9-5.7-1.4-11.4-1-17.2c0-0.6-0.1-1.3,0.1-1.9c2.4-11-2.5-20.6-6-30.4c-0.8-2.2-1.9-4.2-2.1-6.5
		c-1-8.3-3.3-16.3-5-24.4c-1.5-7.4-3.4-14.7-4.9-22.1c-1.6-7.8-4.3-15.3-6.8-22.8c-1.4-4.2-1.1-8.6-2.7-13.2c-0.4,4,0,7.6-1.2,11
		c-1.2,3.6-2,7.4-3,11.1c-0.9,3.6-1.8,7.2-2.9,10.8c-1.1,3.5-2.4,7-3.6,10.5c-2.8,7.8-5,15.9-7,23.9c-0.4,1.7-0.6,3.6-0.6,5.3
		c-0.2,6.5-1.2,13-1.2,19.5c0,5-1.6,9.8-2.9,14.6c-1.4,5.4-1.8,10.6-0.2,16.2c3.1,10.6,3,21.2-0.5,31.7c-1.2,3.5-2.4,7-4,10.3
		c-3,6-4.4,12.6-6.1,19c-1.3,4.9-3.5,9.6-4.2,14.7c-0.7,5.5-1.4,10.9-2.1,16.4c-0.1,0.6,0.2,1.3,0.4,1.8c1.3,3.4,2.3,6.8,2.1,10.5
		c0,0.7,0.2,1.6,0.5,2.2c2.7,4.9,3.4,10.4,4.4,15.7c-2.4,3.4-6,4.3-9.8,5c-3.4,0.6-6.8,1.1-10.4,2.4c0.3,3.3-2.1,4.2-4.8,5.2
		c-3.7,1.4-7.6,2.1-11.3,3.5c-3,1.2-6.8,0.7-10.2,0.6c-3.1-0.1-6.1-0.6-9.2-0.9c-2.9-0.3-5.4-1.5-7.4-4c0.8-3.3,0.3-6.9,1.8-10.3
		c0.7-1.7,1.6-3.2,3-4.3c2.4-1.9,4.5-4.2,6.8-6.1c3.8-3.1,5.9-7.4,8.4-11.3c0.8-1.3,1.5-2.7,2.5-3.9c2.4-3,4.3-6,4-10
		c-0.1-1.8,1.1-2.8,2.9-2.9c1.1-0.1,2.3-0.1,3.2-0.2c1.2-0.8,1.3-1.8,1.3-2.8c0.1-6.3,0.5-12.5,0.3-18.8c-0.3-9.9-0.9-19.7-1.2-29.5
		c-0.2-6.4-0.6-12.8-0.4-19.2c0.2-9.1,2.2-18,4.1-26.9c1.1-5,1.5-10.1,1.4-15.2c-0.2-7.3-0.1-14.6-0.1-21.9c0-5.4-0.9-10.7-1.8-16
		c-0.3-1.9-0.6-3.8-0.6-5.7c0-7.8,0-15.6,0-23.4c0-3.6,0.2-7.2,0.1-10.8c-0.1-5.6,0.6-11.2,0.9-16.9c0.1-1.9-0.1-3.8-0.7-5.6
		c-1.1-3.4-1.9-6.9-1.9-10.5c0-1.3,0.3-2.8-0.6-3.9c-1-0.1-1,0.9-2.1,1.1c-1.4-3.6-1.7-7.4-1.6-11.1c1.3-1.7,3.1-0.1,4.5-1
		c0.7-0.5,0.7-1.3,0.6-1.9c-0.3-1.3-1.8-0.6-2.1-1.7c-1.3-4.5-2.8-8.9-5.7-12.8c-1.2-1.7-0.8-4-1.6-5.9c-0.3-0.9-1.4-0.5-1.9-1.1
		c-0.6-1.4-1.2-2.8-1-4.5c1,0.3,1.3,1.2,1.9,1.8c0.1-0.2,0.2-0.3,0.2-0.5c-0.8-5.9,0-11.8,0.6-17.6c1.3-12.3,4.1-24.4,4.6-36.9
		c0.3-8.6,1.9-17,5.8-24.8c2-4,3.6-8.2,4.7-12.5c-0.1-1.1-0.9-1.6-1.4-2.3c-4.4-4.9-5.5-10.7-4.9-17.1c0.6-7.6,4.5-13.7,8-20.2
		c5.1-9.5,11.3-18.2,16.7-27.5c-1-0.7-1.7,0.1-2.5,0.4c-2.7,0.9-5.3,1.8-8.1,2.4c-10,2-16,8.1-17.9,18.1c-0.7,3.9-1.4,7.8-2,11.7
		c-0.8,5.2-2,10.3-4.4,15c-5.5,10.9-8.3,22.5-8.8,34.7c-0.2,4.5-0.9,8.9-2.6,13.1c-4,9.4-4.9,19.1-4.4,29.3c0.4,8.1,1,16.1,2.2,24
		c1,6.4-0.2,12.8-0.7,19.1c-0.4,3.9-0.7,8-2.1,11.7c-2.2,5.7-0.2,11,0.4,16.5c0.1,1.3,0.8,2.1,2.6,2.2c-0.5-3.3-0.5-6.5-1.1-9.8
		c3,2.6,2.2,6.3,3,9.8c0.7,1.2,2.8,0.9,3.7,2.6c-2.6,1.7-4.4-2.6-6.6-0.7c-2-1.1-3-2.8-4.3-4.8c-1.1,2.1-1.7,4-2.3,5.9
		c-1.3,4-2.8,8-5.4,11.4c-0.8,1.1-1.7,1.8-2.8,2.5c-6.5,3.5-17.1,0.3-19.7-6.3c-1.2-3.1-1.6-6.7-1.8-10.1
		c-0.7-8.4,0.4-16.7,3.4-24.5c4.1-10.7,7.9-12.3,19.2-11.1c2.2,0.2,3.7,1.6,5,3.3c1.5,2.1,2.4,4.5,3,7c0.2,1.1,0.4,2.3,1.5,3.3
		c2.1-2.4,2.1-5.4,2.1-8.1c0-5-0.3-10-0.4-15c0-0.4-0.1-0.8-0.1-1.2c0.3-8.1-1.1-16.1-2.1-24.1c-0.7-5.8,0.3-11.5,0.9-17.2
		c0.4-4.1,0.9-8.2,2.6-12c3.6-8.2,4.4-17,5.4-25.8c0.7-5.7,2.4-11.3,3.3-17c0.3-1.7,1.1-3.4,2-5c4.7-8,6.2-16.9,8-25.9
		c1-5.2,2.8-10.3,5.4-15.1c1.5-2.9,3.8-5.1,6.8-6.5c3.1-1.5,6.2-2.9,9.7-3.6c3.5-0.7,6.9-1.9,10.2-3.4c3.4-1.5,6.6-3.2,9.4-5.9
		c2-1.9,4.4-3.6,6.9-5.7c0.5-4.2,3.2-8.5,2.4-13.4c-0.1-0.8,0-0.8,1.7-3c1.5,3.1,2,6.2,0.9,9.3c-1.6,4.1-2.4,8.7-6.4,11.4
		c-0.5,0.3-0.8,1-1,1.6c-2.3,7.2-6.1,13.8-9.2,20.7c-1.6,3.6-2.2,7.3-2.1,11.2c0.1,3,1.5,4.8,4.3,5.6c3.7,1.1,7.5,1.5,11.2,1.4
		c1.2-1.5,0.7-3.8,2.6-4.8c0.8,1.4-0.2,2.7-0.2,4.3c1.6,0.5,3.2,0,4.7-0.4c6.5-1.6,12.5-4.5,18.5-7.3c3.7-1.7,5.2-5.1,6.6-8.6
		c1.8-4.7,2.8-9.6,3.7-14.5c0.9-5,2-10,3.4-15.2c-8.8-9-7.8-20.1-6.4-31.3c-0.7-0.5-1.6-0.2-2.5-0.5L419.1,157.1z M480.5,383.8
		c0.8-0.6,0.9-1.3,0.3-2.3C480.8,382.4,480.7,383.1,480.5,383.8c-0.8,0.8-0.7,1.7,0,2.6C480.5,385.5,480.5,384.6,480.5,383.8z
		 M425.2,163.1c1.8-3,1.9-6.3,2-9.7C425.9,156.6,425.6,159.9,425.2,163.1c-1.2,2.2-1.7,4.5-1.1,7.5
		C424.7,167.8,425.7,165.6,425.2,163.1z M484.4,425.3c1.1,0.1,1.5-0.9,2-1.6c1.2-2,2-4.2,2.6-6.4c2.7-10.4,3.1-21,2.1-31.7
		c-0.3-3.6-0.9-7.1-2.5-10.4c-0.6-1.3-1.1-2.9-3-2.9c-0.4,1.2,1.1,1,0.9,1.9c-2.2,1.9-2.9,2.7-3.5,5.2c-1,4.2-1.9,8.5-2.3,12.8
		c-0.7,6.5-0.5,13-0.2,19.6c0.1,2.7,0.7,5.3,1.3,7.9C482.4,421.9,484.3,423.2,484.4,425.3c-0.6-0.4-1.3-0.8-2.3-1.6
		C483.3,425.5,483.3,425.5,484.4,425.3z M438.4,688.2c0.2,1.3,1.4,1.5,2.3,1.5c2.5,0.2,5.1,0.3,7.6,0.1c2.6-0.2,5.1,0.9,8,0.5
		c-1.4-0.8-2.7-1.1-3.9-1.4C447.7,687.8,443,688.3,438.4,688.2c0.2-2.6,2.4-2.1,4-2.2c6.9-0.3,13.5,0.9,19.4,4
		c2.5,0,4.7-0.8,7.1-0.6c4.6,0.3,8-1.3,9.3-6.1c0.1-0.2,0.2-0.4,0.2-0.4c1.7-0.9,3.1-2,4.7-2.5c-1-20.5-0.5-14.9-6.3-30.4
		c-1.5,3.7-4.6,2.3-7.3,2.6c-2.2-2.9-2.6-6.6-4-10c-3.2-1.4-6.4-3.2-10-2.1c-1.9,1.6-2.3,3.6-2.3,5.7c0.1,2.2-1.4,3.9-1.7,6.1
		c11.8,0.4,13.6,0.9,15.8,4.2c-2.9,1-5.6-0.4-8.3-0.4c-2.9,0-5.9,0.1-9,0.3c-0.6,0.8-1.7,1.2-1.9,2.6c5.9-2.4,11.7-2,17.5-0.7
		c1,0.2,2,0.6,1.9,1.9c-0.2,0.7-0.7,1.3-1.4,1.3c-6.4,0.1-12.7,0.5-19.1,0.1c-0.4,0.7-0.8,1.5,0,2.3c3.2-1,6.6-1.2,9.9-1.2
		c2.3,0,4.6,0.2,6.9,0.6c1.6,0.3,3.4,0.8,2.9,2.9c-0.5,0.8-1.1,1.2-1.7,1.1c-6.2-0.6-12.5,0.6-18.8-1c-0.3,1.1-0.5,2.3-0.9,3.8
		c5.2-1.1,10.1-0.1,14.9-0.7c1.3-0.2,2.9-0.2,3.6,1.5c-0.6,1.9-2.2,2-3.7,2.2c-3.2,0.6-6.4,0.1-9.6,0.5c-2.1,0.2-4,0.2-5.7-1.2
		c-2.9,4.6-4.4,9.7-7.7,13.8C436.5,686.8,436.3,688.4,438.4,688.2z M451.5,410.7c-0.6,0.6-0.7,1.9-1.8,1.7c-3.1-0.4-6.2,0.6-9.3,0.1
		c-0.6-0.1-1.1-0.5-1.6-0.8c-1.1-2.2-0.9-4.9-2.5-6.9c-1.8,0-3.5-0.6-5.5,0.5c1.3,3.7-0.6,7.1-1.5,10.7c11.1-1,21.8-2.5,32.5-0.3
		c0.6-1.7,0.5-3,0.4-4.3c-2.2-1.1-3.9,0.1-5.3,0.7c-2.2,0-3.8-0.8-5.5-1.3c-1.7-3.4-2.8-7-3.6-10.7c3,2.4,2.4,6.7,4.7,9.4
		c1.1-0.1,1.8-1.2,3.3-0.7c0,0.4-0.7,1-0.2,1.5c0.9,0.3,1.7,0.1,2.4-0.6c-2.7-5.2-3.5-8.1-2.7-10.8c0.8,2.4,1.8,4.3,2.2,6.4
		c0.4,2.1,2.4,2.8,3.3,4.4c1.4-0.5,2-1.3,2.3-2.6c-2.5-3.7-3.5-7.8-3.2-12.3c0.4-5.9,0.2-11.7-1.9-17.3c-1.4-3.6-1.9-7.6,0-11.2
		c1.8-3.7,3.4-7.4,5.7-10.9c1.7-2.6,3.2-5.2,4.8-7.9c5.4-9.3,7.7-19.7,10.8-29.9c0.9-3.1,1.1-6.5,2.7-9.2c2.8-4.7,2.3-9.7,1.5-14.5
		c-0.6-3.8-1.4-7.5-1.3-11.4c0.2-10-1.3-19.6-4.4-29.1c-1.5-4.6-2.5-9.5-1.6-14.3c0.9-4.9,0.4-9.7,0.1-14.5
		c-0.5-7.9-4.3-13.6-11.5-16.8c-6-2.6-11.6-5.9-17.8-8.1c-3.2-1.2-6.2-3-9-4.4c-4,19.6-0.7,37.8,9.3,55.5c1.3-5.9-0.6-10.8-1.5-15.9
		c2,2.5,4.1,5.1,4.2,8.3c0.1,4.4,1,8.6,1.4,13c0.2,3.1,1.7,5.9,1.8,9c0,4.5,0.8,8.9,1.4,13.4c0.7,5.3,3.7,9.7,5.5,14.5
		c1.1-0.3,0.5-1.7,2-1.5c0.7,1.6,0.2,3.3-0.2,5.1c-1.3,5.6-3.2,11-4.8,16.6c-3.7,12.5-5.3,25.5-9.2,38c-1.3,4.3-2,8.7-4.4,12.6
		c-1.2,2-2.1,4.4-2.2,6.9c-0.2,5.8-1.7,11.3-3.3,16.9c-1.4,4.9-2.5,9.9,0.3,14.8c0.9,1.5,1,3.4,1.5,5.1c0.3,1,0.2,2.1,1.2,2.8
		c1.2,0.2,2.4,0.2,3.6-0.2c-0.8-2.5-1.6-4.8-2.4-7.1c-0.2-0.7-0.6-1.5,0.8-1.7c1.1,2.9,2.3,5.9,3.4,8.7
		C448,411.2,449.7,410.8,451.5,410.7z M412,425.8c-0.3,1.5,0.2,3.1,0.8,4.7c0.8,2.4,2,4.8,2.4,7.3c1.8,11,4.3,21.8,6.9,32.7
		c1.7,6.9,2.4,14.1,5.7,20.6c0.5,0.9,0.4,2,0.6,3c1.1,6,1.9,12.1,5.4,17.4c0.7,1,1.2,2.4,1.3,3.6c0.1,3.5,1.7,6.7,2.6,10
		c0.5,1.8,1.7,3.6,1.1,5.3c-0.7,2.1,0.9,3.5,0.7,5.5c-0.5,5.3-0.8,10.7-0.7,16.1c0,7.1,1.4,14,3.5,20.8c0.6,2,1.9,3.9,2.1,6.1
		c0.2,2.4,0.8,4.8,1.4,7.2c1.8,7.4,3.8,14.9,5.2,22.4c1.5,7.9,2.1,15.9,2.8,24c0.1,1.8,0.2,3.5,1.1,5.2c0.8-0.1,1.4-0.1,2-0.2
		c3.6-1,6.5,0.9,9.5,2.3c2.3,1.1,2.1,3.6,2.8,5.6c0.5,1.6,1.1,3.1,3.1,4.6c-0.3-2.3-0.4-3.8-0.7-5.3c-1.1-5.5-1.5-10.9-1-16.6
		c0.9-11.7,2.4-23.4,3.9-35.1c1.2-10.1,0.8-20.2,0.5-30.3c-0.1-3.3-0.1-6.6-1-9.9c-3-11.2-5.7-22.6-9-33.7
		c-2.9-9.6-4.1-19.2-3.5-29.2c0.3-4.8-0.1-9.7,0.9-14.5c0.2-0.9,0-1.8,0-2.7c-0.1-4.1-0.6-8.2-0.3-12.2c0.8-12.8,0.9-25.6,0.5-38.4
		c0-0.9,0.1-1.8-0.7-2.9c-11.4-1.8-22.9-1.5-34.3,1.5c-0.9,3.8-3.5,4.7-6.7,4.8c-1.9,0.1-3.8,0.3-5.7-0.1
		C414,425,413.1,424.9,412,425.8z M379.8,536.2c2.2-5.3,3.1-10.9,3.9-16.4c1.1-7.3,1.7-14.7,2-22.1c0.3-6.7,1.8-13.1,3.4-19.6
		c0.5-2.2,0.9-4.6,1.7-6.7c4.4-12,8.5-24.1,11.3-36.6c0.6-2.8,1.4-5.6,1.3-8.5c-9.3-1.5-18.1-5-27.6-5.5c-0.5,0.7-0.9,1.3-1.4,1.9
		c-2.3,2.9-5.1,4.4-8.9,4.3c-4.7-0.1-9.2-1.1-13.6-2.9c-0.5,1.9-0.4,3.7-0.4,5.5c0.1,4.2-0.5,8.4-0.9,12.6c-0.7,6.7-1.3,13.5-1,20.3
		c0.1,1.3-0.1,2.6,0.7,3.7c0.9,1.3,1,2.9,1.1,4.4c0.1,5.3,0.9,10.4,1.4,15.7c0.4,4.3,0.8,8.7,0.2,13c-0.7,6-0.8,12-0.2,18
		c0.4,4.1,0,8.2-1,12.1c-3.5,13.9-4.8,27.9-3.9,42.2c0.7,11.4,1.9,22.7,1.4,34.1c-0.3,7.6-0.4,15.3-0.6,23.1c1.2,0.3,3.1,0.8,3.6,2
		c1.2,3,3.8,3.9,6,5.3c1.5,2.7,2.7,5.3,4.4,7.7c2.4,0,3-1.7,3.8-3.5c-0.3-1.3-1.5-2.7-0.1-4c-2.2-3.8-2.2-3.8-1.1-7.8
		c0.3-1.2,0.6-2.5,0.9-3.7c2.9-15.5,7.1-30.6,12.9-45.3c1.4-3.5,3.1-7.1,3.2-11C382.5,557.6,381.6,546.8,379.8,536.2z M442.5,356.6
		c0.6-2,0.8-4.2,2-5.8c2.5-3.3,2.9-7.3,4.1-11c1.5-4.4-0.2-7.9-2.8-11.3c-2.9-3.7-4.8-8.1-5.4-12.5c-1.1-7.3-0.9-14.8,2.2-21.9
		c0.3-0.6,0.5-1.2-0.1-1.9c-2-0.7-4.2-1.3-6.5-1.3c-1.2,1.5-2.2,3.1-4.5,3.8c0.7-1.9,2.7-2.4,3.1-4.2c-7.1-2-14.1-2.9-21.3-3.2
		c-3.7-0.1-7.4-0.2-11.1-0.6c-6.9-0.7-13.8-1.2-20.7-0.4c-5.5,0.6-10.9,1.5-16.1,3.4c0.4,2.6,0.6,5,1,7.4c1.7,9.2,0.8,18.3-0.8,27.5
		c-1,5.8-2.7,11.5-3.7,17.3c-0.8,4.9-1.6,9.7-1.8,14.8c3.1,0.7,5.9,1.3,8.5,1.8c0.7-0.6-0.3-1.1,0.5-1.5c1.7,1,3.3,2.4,5.3,2.9
		c11.3,2.6,22.8,3.5,34.3,2.3c6.7-0.7,13.4-2,20.2-1.9c2.5,0.1,4.4-0.9,5.9-3c0.9-1.2,1.9-2.5,3.7-3.1c-0.4,1.9-2,2.7-2.3,4.6
		C438.6,357.6,440.7,357.7,442.5,356.6z M429.6,189.9c-1.9,5.3-2.4,10.4-3.4,15.4c-0.8,4.4-1.6,8.8-3.3,13c-1.9,4.6-4.4,8.7-9,11
		c-1.9,1-3.9,1.9-5.9,2.8c-9.4,4.8-19.3,5.5-29.5,3.7c-5.4-1-7-3-7.6-8.5c-0.2-1.5,0-3.1,0.2-4.6c0.6-3.6,2.1-6.8,3.7-10
		c2.3-4.6,4.5-9.3,6.8-13.9c-2.8,1.2-5.1,2.7-7.3,3.8c-4.6,7.8-9.3,15-14.5,22c-1.5,2-2.6,4-3.3,6.4c-0.7,2.6-1.8,5.1-3.4,7.2
		c-3.9,5.3-4.7,11.5-5.1,17.8c-0.2,2.7,0.7,5.3,2.1,7.6c1.5,2.5,3.1,5,5,7.3c4.1,4.9,8.2,9.7,10,16.1c1.7-0.5,3.2-0.9,4.6-1.3
		c7.9-2.5,16-3.5,24.2-2.9c5.1,0.4,10.2,1,15.3,1.1c9.1,0.3,18,1.9,26.9,4.1c2.4,0.6,4.9,0.9,7.5,1.3c2.1-5.7,3.5-11.4,5.3-17
		c1.5-4.6,0.5-9.2-1.3-13c-2.3-5.1-4.4-10.3-6.7-15.5c-3.7-8.3-6.1-17-6.8-26.2c-0.6-8.1-0.1-16.1,0.9-24.1
		C433.8,192,431.6,191.5,429.6,189.9z M442,359.7c-5.7,1.6-10.8,2.8-16,3c-4.2,0.2-8.4,1-12.6,1.6c-11.5,1.7-22.9,1.4-34.4-1
		c-5.1-1.1-10.2-2.4-15.3-3.7c-1.3-0.3-2.6-1-4.3-0.6c-0.2,4-0.4,7.8-0.7,11.8c3.1,0.1,5.9,0.1,8.7,0.1c4.7,0,7.7,2.4,9.7,6.3
		c0.8,1.6,1.5,3.3,2,5c2.9,10.4,2.5,20.7-0.3,31.1c-0.4,1.5-0.9,2.9-1.4,4.5c8.9,1.7,17.6,3.4,25.8,6.6c1.7-6,4.2-11.8,1.7-18.2
		c0.8,0.2,1.3,0.3,1.9,0.4c0-1.6,0-3.2,0-4.7c0-9.4,0.4-18.6,3.6-27.6c1.8-5.1,5.5-7.6,10.9-6.7c0.8,0.1,1.5,0.5,2.2,0.5
		c2.6,0.2,4.3,1.7,5.2,4c1.8,5,3.7,10.1,3.1,15.6c-0.1,1.4-0.3,2.8,0.4,4.1c0.9,0.5,1.7,0.5,2.4,0c2.4-9.1,3.7-18.3,5.3-27.5
		c-0.6-0.5-1.6,0.6-2.4-0.1C440.6,363,440.6,363,442,359.7z M355.9,371.8c0.1-1,0.3-1.6,0.3-2.3c1.4-13,2.9-25.9,6-38.6
		c0.8-3.2,1.7-6.5,2-9.8c0.7-7.5,1.1-15,0.2-22.6c-0.1-0.8-0.4-1.6-0.2-2.3c0.7-3-0.6-5.4-1.5-8.1c-1-3.1-2-6-4.1-8.7
		c-1.4-1.8-2.7-3.7-4.6-5.5c-0.5,5.5-2.4,10.3-4.4,15c-3,7-6.3,14-5.2,22c0.1,0.7-0.1,1.5-0.2,2.3c-0.8,12.8-3.7,25.3-5.1,38
		c-0.5,5-1.1,9.9-0.1,14.9c1.3,7.1,5.9,12.8,8.4,19.5C349.1,380.4,351.2,375.4,355.9,371.8z M341.8,658.5c-3.5,2.2-6.3,0.4-8.9,0.9
		c-0.1,0.8,1.1,1.2,0.2,2.6c-2.6,0.9-5.4,0-8.1-1.2c-1.4,1.3-2.7,2.4-4.3,3.3c-3.6,2.1-4.9,5.3-4.2,9.5c5.2,1.1,11,0.7,15,5.2
		c-2.7-0.7-5.3-1.6-8-2c-2.9-0.4-5.7-1-8.7-0.4c3.4,3.6,16,4.7,20,1.9c6.1,0.4,11.5-2.1,17-3.5c1.6-7.5,2.6-8.7,6.5-8.4
		c-0.5,1.9-3,2-3.8,4.4c6-1.3,11.6-2.2,17.2-4.1c-0.4-2.4-0.7-4.6-1.1-6.9c-0.7-4.6-4.5-8.5-3-13.8c-0.9,0.3-1.4,0.5-1.9,0.6
		c-0.6,0.2-1.2,0.5-1.8,0.7c-2.2,0.5-3.3,0-4.2-2.1c-0.5-1.1-0.8-2.2-1.3-3.2c-0.6-1.4-1-3.2-2.4-3.8c-3.1-1.3-5.1-3.8-7.6-5.9
		c-2.1,0.2-4.3-0.5-6.5,0.7c-0.5,3-1.7,5.9-3.3,8.6c5.5,0.5,10.9,0.2,15.4,3.5c-0.4,1.2-1,1.4-1.7,1.3c-1.8-0.3-3.5-0.6-5.3-0.9
		c-3.1-0.6-6.3-1.1-9.5-0.7c-0.9,0.1-1.7,0.3-1.8,1.4c9.3-0.3,15.6,1.4,17.2,4.8c-1.4,1.3-2.9,0.5-4.3,0.2
		c-4.2-0.8-8.3-1.5-12.6-1.4c-2,0.1-2,0.1-3.1,2.2c5.2-0.5,10.5-1.4,15.2,1.8c-0.6,2.1-1.9,1.9-3.2,1.8c-4.3-0.3-8.7-0.4-13-0.7
		c-1.1-0.1-2,0-2.6,1.2C333.4,656.1,337.5,655.5,341.8,658.5z M379,397c0.4-4.1,0-7.6-0.7-11.1c-0.8-3.8-2-7.4-4.4-10.5
		c-3-3.9-6.2-4-9.6-0.4c-2,2.2-3.4,4.8-4.4,7.6c-3.1,8.3-3.8,16.9-2.7,25.7c0.6,4.9,1.7,9.6,4.5,13.7c3,4.5,6.8,4.7,10.3,0.6
		c2.3-2.6,3.7-5.8,4.7-9.1C378.5,407.9,379.5,402.3,379,397z M315.9,389.7c0-1.2,0.3-2.2-0.1-2.9c-1.4-2.7-1.3-5.7-2.2-8.5
		c-0.5-1.7-1.1-3.4-1.9-5c-2.6-5.1-6.2-5.4-9.7-0.8c-1.4,1.7-2.5,3.6-3.3,5.6c-3.2,8.2-4.6,16.8-3.8,25.6c0.3,4.1,1,8.1,2.8,11.9
		c2.7,5.3,6.3,5.7,10,1.1c2.7-3.4,4.2-7.3,5.2-11.4c0.4-1.7,1.4-3.3,0.7-5.1c-2.5-1.3-5.2-0.4-7.5-1.2c-2.8-3.5-2.6-6.6,0.7-9.4
		C309.6,389.9,312.5,390,315.9,389.7z M449.6,331.5c0.9-2.3,1.1-4.2,1.2-6.1c0.2-3.4,1.2-6.5,2.4-9.6c2.4-6.4,4.9-12.9,6.4-19.5
		c-4.3-6.6-6.1-14-8.5-22.1c-3.5,11-6.9,21-9.5,31.4c-0.5,2.1-0.4,4.3,0,6.5C442.9,319,446.3,324.9,449.6,331.5z M429,391.9
		c1.3-11.2-0.4-19-4.6-21.9c-2.4,1.9-2.8,2.5-4.1,6.2c-1.9,5.5-2.7,11.2-3.1,16.9c-0.6,8.4-0.4,16.9,1.9,25.1
		c0.6,2.1,1.2,4.2,3.3,5.3c4-2.8,7.3-13.1,6.1-18.7c-0.9-0.4-1.8-0.1-2.6-0.2c-2.8-0.1-4.3-1.2-4.7-4c-0.4-3.2-0.1-6.3,1.6-9.3
		C424.9,391.6,426.8,391.7,429,391.9z M361.8,425.4c-3.1-4-4.6-8.3-5.6-12.8c-1.4-6.4-1.4-13-0.6-19.5c0.6-4.7,1.8-9.3,3.8-13.6
		c1.3-2.9,3.3-5.2,5.4-7.7c-2.2,1-4.5,0.1-6.8,1.1c-3.9,1.8-5.7,4.9-7.2,8.5c-2.6,6.2-3.5,12.8-3.5,19.5c0,6.2,0.6,12.3,3.4,17.9
		c1.1,2.3,2.4,4.6,5.2,5.3C357.8,424.7,359.8,425,361.8,425.4z M482.9,371.7c-5.8-0.4-6.9,0.2-8.8,5c-0.5,1.2-0.9,2.4-1.2,3.6
		c-2.1,7.3-2.7,14.9-2.7,22.4c0,5.8,0.4,11.5,2.1,17.1c1.5,4.9,2.5,6.8,8.7,6.3C474.3,415,475.5,383.2,482.9,371.7z M419.4,423.8
		c-4.5-8.9-4.5-18.3-4.1-27.6c0.3-9.3,1.2-18.5,6.3-26.8c-5.9-0.4-7.1,0.3-9,5.2c-0.7,1.9-1.3,3.9-1.8,5.9c-1.5,6.2-2.1,12.6-2.1,19
		c0,6.3,0.3,12.5,2.2,18.6C412.4,423.1,413.7,424,419.4,423.8z M302.7,369.1c-5.8-0.8-9.5,2.2-11.8,7.4c-0.8,1.9-1.6,3.8-2.2,5.7
		c-2.8,9.6-3.7,19.4-1,29.1c1.8,6.4,3.8,8.2,10.9,8.2c-0.9-1.4-2.2-2.6-2.7-4.2s-1.2-3.1-1.5-4.7C291.7,395.7,293,381.5,302.7,369.1
		z M436.1,402.6c-1.7-2.9-1.7-5.7-1.2-8.8c-4.1,0.8-7.8-1.6-11.8-0.4c-0.5,3.3-2,6.5,0.8,9.5C427.8,402,431.6,402.2,436.1,402.6z
		 M315.7,391.9c-3-0.3-6-0.7-9.1-1c-0.6,2.4-1.6,4.5-0.3,6.7c3.5,1.3,7,0,10.4,0.7C317.1,395.9,316.5,394,315.7,391.9z M461.6,396.2
		c-0.6,3.3,1.8,5.6,1.5,8.6c1.8,0.5,3.3,0.6,5.2,0.3c0-3.3,0-6.4,0-9.5C466,395.8,463.9,396,461.6,396.2z M474.1,649.4
		c2.3-3.2,2.1-5.6-0.4-9.1C474.3,643.6,473.4,646.2,474.1,649.4z M343.7,392.5c0.3,2.5-1.2,5,1.2,7.4c1-2.6,1-4.9,1-7
		C345.3,392.3,344.8,392.5,343.7,392.5z M478.8,401c-0.1,0-0.1,0-0.2,0c0,3,0,6,0,9c0.1,0,0.1,0,0.2,0
		C478.8,407,478.8,404,478.8,401z M426.6,174.5c-0.8,1.9-2,3-1.8,5.1C426.1,178.1,426.8,176.8,426.6,174.5z M424.1,158
		c1.1-0.6,1.3-1.4,0.8-2.5C423.4,156,423.8,157,424.1,158z M479.7,388.8c-0.1-0.1-0.2-0.1-0.4-0.2c0,1,0,1.9,0,2.9
		c0.1,0,0.1,0,0.2,0C479.6,390.6,479.6,389.7,479.7,388.8z M479.5,415.9c0.3-1.6,0.4-2.6,0-3.7C479,413.2,479.3,414.2,479.5,415.9z
		 M478.7,396.8L478.7,396.8c0.1-0.7,0.1-1.4,0.2-2.1c-0.1,0-0.1,0-0.2,0C478.7,395.4,478.7,396.1,478.7,396.8z"/>
	<path d="M428.3,126.3c3.8-1.3,4.3-2.1,3.6-5.5c-1.3,0-2.1,1.4-3.5,1l0.1,0.1c0.4-1.4,2.3-1.4,2.9-3c-1.1-1.6-1.4-3.9-3.8-4.6
		c-0.8-0.9-1.5-1.7-2.4-2.7c-2,1-3.8,1.9-5.7,2.8c1.6,0.4,2.6,1.9,4.2,2c1.1-0.5,2.3-1.1,3.4-1.6c-0.2,1.5-1.3,2-2.6,2.3
		c-1.5,0.4-2.9,0.7-5,1.2c2.5,0.9,4.6,0.1,6.7,0.5c-1.7,0.5-6,1.4-6.6,0.9c-2-1.7-4.5,0.4-6.6-1.3c-0.2-0.5-0.5-1.2-0.7-2
		c1.4-0.3,2.2,2.1,4.5,0.8c-2.1-0.5-2.6-2.9-4.9-2.1c0.2,0.6,0.3,1,0.5,1.5c-1.1,0-1.5-0.8-1.8-1.6c5.2-2.1,5.8-2.2,9-1.7
		c0.6-0.3,1.2-0.8,1.9-1.1c0.7-0.4,1.3-0.7,2.1-1.1c-0.6-1.3-1.6-1.5-2.8-1.3c-3.1,0.6-6.2,1.2-9.3,1.7c-1.8,0.3-3.6,1.3-5.5,0.5
		c-0.2-0.1-0.6-0.1-0.7,0c-2.9,1.9-6.4,1.4-9.6,2.5c-0.4-0.5-0.8-1-1.1-1.5c3-0.6,5-3,7.9-3.7c-0.4-0.6-1.2-0.3-1.1-1
		c1.5-1.1,3.5-0.8,5.1-2.4c-3,0-5.7,0.5-8.3,1.3c-1.7,0.5-2.9,1.6-3.3,3.4c-0.1,0.1-0.2,0.2-0.2,0.4c0,0.3,0,0.6,0,1
		c-0.9-0.3-2.4,0.4-2.5-1.5c-1.6,0.8-2.4,2.3-3.2,3.5c-0.8,0.3-1.1-0.2-1.8-0.6c-4.3,4.2-5.2,10.2-7.9,15.7c2.4,0.7,5-0.1,7.1,1.8
		c-2.6,2.1-5.1-1.5-7.4,0.2c-0.5,1.4,0.7,2.6,0.5,4.3c2.3-0.5,4.3-0.4,5.9,1.4c-1.1,1-1.5,2.7-2.8,3.4c-1.7-0.1-2.1-1.4-2.9-2.9
		c-2.6,6.1-3.6,11.9-2.2,18c0.9,4.1,2.2,8.2,3.1,12.3c0.8,3.6,2.4,6.2,6.6,6.2c0.4,0,0.7,0.2,1.1,0.4c0.2,0.1,0.3,0.4,0.5,0.6
		c-2.3,1-4.2-0.5-6.2-0.7c-1.5-1.5-2.3-3.2-2.8-5.1c-1.1-4.1-2.2-8.1-3.4-12.2c-1.6-5-1-10.1,0.5-15.1c0.8-2.7,1.5-5.5,0.7-8.3
		c-0.6-2.2,0.4-4,0.9-6c1.4-5.6,3.6-10.9,7.1-15.6c1-1.4,2.3-2.3,3.8-3.1c8.4-4.2,16.9-5.3,27.2-3.3c1.4-1.2,3.3-2,5.3-2.5
		c7.4-1.9,13.5,2.9,14,10.4c0.4,5.7-1,11.2-1.1,16.8c0,2.6,0.1,5.1,0.3,7.7c0.4,3.5,0.7,7.1,1,10.7c0.1,0.9,0.2,1.9-0.1,2.7
		c-1.8,5.1-1.4,10.6-2.8,15.8c-0.7,2.8-1.3,5.6-2.9,8.1c2.7-12.4,4.4-24.8,3.7-37.7c-1.8,0.5-1.4,2.8-3.1,3l0.1,0.1
		c-0.3-2.3,1.5-4.3,1-6.9c-2.6,1.6-5.4,1.4-8.4,1.7c2.3,1,4.9-0.2,6.8,1.7c-1.6,0.5-2.9,0.3-4.3,0.1c-2.5-0.4-5-0.9-7.5-1.3l0.2,0.1
		c-0.4-1.1-2.1-0.8-2.2-2.2c0.7-0.6,1.4-0.2,2.1-0.2c1,0.8,2,1.8,3.7,1.3c-1.2-1-2.4-1.4-3.8-1.2c-1.2-1.4-3.3-1.6-4.1-3.4
		c0.6-0.9,1.1,0.3,1.8-0.3c-0.9-1.3-1.9-2.7-3.1-4.4c1.8,0.4,2.4,2.3,4,1.8c0.4,1,0.9,1.8,2.3,1.2c-0.8-0.7-1.5-1.1-2.4-1.1
		c-0.1-0.3-0.3-0.7-0.5-1.3c1.8,0.2,3.4,1.1,5.3,0.2c-1.2-0.9-2.8-0.6-4.2-2.5C421.4,125.2,425.1,124.8,428.3,126.3
		c-2.4-0.3-4.6,0.8-7.9,0.9c2.9,1.6,5,1.9,7.2,0.6c0.2,0.4,0.4,0.9,0.6,1.3c-2.5,1.1-5.3-0.4-8,1.3c2.2,0.6,4.1,1.1,6.6,1.8
		c-2.1,0.7-3.5-0.2-4.9,0.4c3.2,2.4,6.3,0.8,9.3-0.3c1.2-0.5,1.5-1.5,1.2-2.9c-1.5,0.5-2.6,1.9-4.3,1.7c4.2-3.7,4.4-4,4.2-5.5
		c-1.6,0.8-3,2.1-4.8,2.2C427.5,127.2,428.4,127,428.3,126.3z M409.9,107.1c2,0.2,3.9,0.8,5.7,1.6c1.5,0.7,2.8,0.6,4.4-0.7
		C416.5,107,413.4,105.3,409.9,107.1c-1.4-0.1-3-0.1-4.7,1.5C407.2,108,408.6,108,409.9,107.1z M427.7,111.1l-0.1-0.1
		c0.4,1.7,2.4,1.4,3.5,3c0.8,1.7,1.9,4,3,6.3c0.3-3.3,0.3-6.6-0.5-9.8c-0.8-3.1-2.6-5.2-6-5.8c-1.4,0.7-3.2,0.9-4.3,2.4
		c0.9,0.9,1.8-0.4,2.5,0.4c-0.2,0.7-1.2,0.9-0.9,1.6C425.6,110.2,426.8,110.4,427.7,111.1z M420.4,107.1c2.3-1.1,3.7-2.1,5.6-2.6
		C422.8,103.1,422.4,103.2,420.4,107.1z M416.4,116.7c1.9,1.4,3.1,0,4.4,0C419.5,116,418.2,116.2,416.4,116.7z"/>
	<path d="M784.2,131.1c0,0.3,0.1,0.6,0.1,0.9c-2,0.8-4.1,1.4-6.2,1.6l0.2,0.1c-1.2-1.1-2.7-0.5-4-0.9l0.2,0.1
		c-1.3-1.3-2.9-1.6-4.6-1.4c-0.3-0.3-0.6-0.6-0.8-0.9c-0.3-0.4-0.6-0.8-0.8-1.2c0.3-0.5,0.5-0.9,0.8-1.3c-0.4-0.9-1.4-1.2-1.4-2.3
		c0.2-0.5-0.4-0.1,0.1-0.3c0.6-0.3,1.4-0.4,1.8-1.2c1.5,0.4,2.9,1.4,4.8,0.2c-1.3-1.2-3.3-0.5-4.1-2.3c3.5,0.7,7,1.8,11.2,1.7
		c-2.4,1.9-5.1,0.8-7.1,2.3c2.5,1.2,4.8,0.7,7.1-0.2l-0.1-0.1c-0.2,0.7-0.5,1.4-0.7,2.1c-2.6,0.5-5.2-0.3-8,0.7
		c2.5,0.7,4.8,1.2,7.2,1.9c-2.1,1.6-3.9-0.6-5.8,0.3c1.3,0.8,2.6,1.2,4,1.3C780.1,132.5,782.1,131.5,784.2,131.1z"/>
	<path d="M330.8,405.1c1.4,1.9,3.1,1.5,5.1,0.8c-0.2-2.2-1-4.4-0.1-7c2.1,2.1,0.1,5.1,2,6.9c2.3,1.2,3.7-0.3,5.1-2.4
		c1.5,3.8-2.7,3.6-2.8,5.5c-1.9,0.6-2.7-0.8-4.1-1.2c-1.2,0.2-2.6,0.4-4,0.6c-2.2-1.2-3.3-3.1-3.4-5.6c-0.1-2.4-0.6-4.5-2.6-6.4
		c2.8-0.7,3.5,1,3.9,2.8C330.3,401.2,330.5,403.2,330.8,405.1z"/>
	<path d="M403.7,137.1c0.1,0.6,0.1,1.3-0.3,1.9c-0.8-0.3-1.5-0.6-2.3-1c-0.4,1.1-0.6,2.2-1.9,2.8c-2.2,0.5-3.2-1.9-5-2.6
		c0.3-1.1,0.6-2.2,0.9-3.2c0.7-0.3,1.3-0.4,1.9-0.1c-0.1,0.3-0.2,0.7-0.3,1.1c1.5,0.1,3,0.2,4.5,0.3
		C402,136.5,402.6,138,403.7,137.1z"/>
	<path d="M756.3,136.7c-0.6,2.3-1.5-1-2.2,0.3c-0.9,0.6-0.9,2.2-2.6,2.5c-0.9,0-1.8-0.7-2.8-1.4c-0.5-0.5,0.6-1.1,0-1.7
		c-0.7-0.2-0.8,1-1.7,0.5c0.2-1,0.5-2.2,0.8-3.3c0.8-0.7,1.7-0.3,2.9-0.5c-0.5,0.5-0.9,0.8-1.4,1.3c1.8,0.3,3.5,0.7,5.2,1
		C755.5,135.3,755.8,136.2,756.3,136.7z"/>
	<path d="M823.8,233.2c-3.4,0.9-3.4,0.9-8.7-2.9c-1.6-4.6-3.7-9.1-4.7-14.1c1.4,0,1.5,0.8,1.8,1.5c0.9,2.5,2.1,5,2.4,7.6
		c0.6,4.5,3.5,6.4,7.5,7.5C822.3,232.8,822.7,232.9,823.8,233.2z"/>
	<path fill="none" d="M394.5,111.7c0-0.3,0-0.7,0-1c1.5,0.2,2.5-0.7,4-1.9c-1.9-0.1-2.8,0.7-3.8,1.5c0.4-1.8,1.6-2.9,3.3-3.4
		c2.6-0.8,5.3-1.2,8.3-1.3c-1.6,1.6-3.6,1.2-5.1,2.4c-0.1,0.7,0.6,0.4,1.1,1c-2.9,0.7-4.9,3.1-7.9,3.7
		C394.4,112.5,394.5,112.1,394.5,111.7z"/>
	<path d="M394.8,158.8c-2.8,2.1-5.2,0.8-7.6,0.3s-4.8-0.4-7.1-0.6c-0.1-1,0.5-1.4,1.1-1.4c2.6,0,5.3-1.1,7.8,0.6
		C390.6,158.9,392.7,157.3,394.8,158.8z"/>
	<path d="M744.2,129.8c6-3,12.8-1.9,16,3c-2.2-0.8-3.2-2.6-5.1-2.9c-2.5-0.4-4.8,0-7.2,0.2C746.6,130.3,745.4,130.9,744.2,129.8z"/>
	<path d="M732.9,156.8c1.7-2.3,4.3-1.7,6.2-1.5c2.7,0.4,5.4,1.6,8.8,1.5c-1.7,2-3.5,1.7-4.9,1.4
		C739.6,157.5,736.4,156.8,732.9,156.8z"/>
	<path d="M406.5,133.7c-3-2.4-6.2-3-9.9-2.2c-1.6,0.4-3.4,0.7-5.2-0.1C396.4,128.3,404,129.4,406.5,133.7z"/>
	<path d="M428.3,121.7c-0.4,0.7-1,0.6-1.6,0.4c-2.1-0.7-4.2-0.5-6.5-0.2c1.6,1.3,3.5,1.2,5.6,1.8c-4.3,0.8-7.7-1.9-11.7-1.3
		c1.5-1.7,1.5-1.8,6.9-1.6C423.4,121,426,120.6,428.3,121.7L428.3,121.7z"/>
	<path fill="none" d="M427,114.7c-1.1,0.5-2.3,1-3.4,1.6c-1.6-0.1-2.6-1.6-4.2-2c1.9-0.9,3.7-1.8,5.7-2.8c0.9,1,1.6,1.9,2.4,2.7
		C427.3,114.3,427.2,114.5,427,114.7z"/>
	<path d="M740.5,135.3c-0.6,4.2-3.8,7.1-5.5,10.5c0,1.9,2,2.2,2.2,3.7c-1,0.5-1.7-0.2-2.6-0.6c-0.2-0.9-0.4-1.9-0.6-2.7
		c0.2-0.5,0.3-0.9,0.5-1.2c1.7-3.1,3.9-6,5.2-9.3C739.8,135.3,740.2,135.2,740.5,135.3L740.5,135.3z"/>
	<path d="M397.3,206.6c-3.7-0.4-7.2,0.1-10.5-0.8c4.2-0.4,8.5-1.4,12.7,0.7c1.5,0.8,1.6,0.6,4.4,0.2
		C401.6,209.2,401.1,209.2,397.3,206.6z"/>
	<path d="M768.9,130.6c0.3,0.3,0.6,0.6,0.8,0.9c1.6,0.3,2.8,1.8,4.6,1.4l-0.2-0.1c1.1,1.2,2.7,0.6,4,0.9l-0.2-0.1
		c1.3,1.4,3.3,0,5,1.7c-5.6,0.3-10.4-0.5-14.7-3.2C768.2,131.3,768.4,130.9,768.9,130.6z"/>
	<path d="M335.1,295.7c2.1,1.8,2.7,4.1,2.3,8.8C335.4,301.8,334.6,298.6,335.1,295.7z"/>
	<path d="M749.9,210.9c1.2-1.4,3.1-0.8,4.5-1.7c1.3-0.8,2.4-2.4,4.3-1.8C753.9,212.2,752.6,212.7,749.9,210.9z"/>
	<path d="M381.1,161.3c2.6,0.8,5.3,0.2,8.4,0.9C386,164.3,384.4,164.1,381.1,161.3z"/>
	<path d="M742,160.7c-2.6,2.2-4.5,2-8.6-0.9C736.6,160.2,739.2,160.4,742,160.7z"/>
	<path d="M702.6,218.9c2.9,0.6,3.6,3,4.5,5.3C704.6,223.4,703.9,220.9,702.6,218.9z"/>
	<path d="M382.2,146.3c0.1-0.5,0-1,0.3-1.4c1.7-2.8,3.5-5.7,5.2-8.5l-0.1-0.1C387.1,140.4,385,143.5,382.2,146.3L382.2,146.3z"/>
	<path d="M741.1,205.2c2.4,1.4,4.8,2.8,7.2,4.2c-0.1,0.2-0.3,0.5-0.4,0.7c-2.8-0.7-5.1-2.5-7.4-4.2
		C740.7,205.6,740.9,205.4,741.1,205.2z"/>
	<path d="M758,170.5c-2.8,2.1-6.1,2-9.4,2C751.7,171.4,754.8,170.7,758,170.5L758,170.5z"/>
	<path d="M403,172.2c-2.2,2.3-4.9,1.8-7.5,1.3C398,173.1,400.5,172.7,403,172.2z"/>
	<path d="M391.2,150.8c-2.1,2-3.9,0.6-6-0.6c1.4-1.2,2.5-0.5,3.3,0.1C389.5,151.1,390.3,150.7,391.2,150.8z"/>
	<path d="M419,157c-0.2,3.1-0.6,3.8-3.3,6.5c0.8-2.3,1-4.9,3.4-6.4L419,157z"/>
	<path d="M768.5,162.2c0.6-2.3,1.5-4.4,3.2-6.9C772,158.8,770.3,160.5,768.5,162.2z"/>
	<path d="M829.4,198.6c2.2-2,2.2-2.1,5-1.3C832.5,198.7,832.5,198.7,829.4,198.6z"/>
	<path d="M744.2,149c0,1.1-0.7,1.5-1.5,1.5c-1.6-0.2-3.3-0.4-4.4-1.8c1.3-0.9,2.3-0.4,3.2,0.3C742.4,149.8,743.3,149,744.2,149z"/>
	<path d="M771.1,117.7c3-0.2,6-0.5,9.1-0.7C777.2,118.2,774.3,119,771.1,117.7L771.1,117.7z"/>
	<path d="M382.2,146.3c-0.6,2.2,1.4,3,2.4,4.5c-1,0.7-1.7,0.1-2.7-0.2C381.6,149.2,380.3,147.7,382.2,146.3L382.2,146.3z"/>
	<path d="M655.4,223.1c-1,2-1.5,3.6-4,3.9C652.2,225.1,653.1,224,655.4,223.1z"/>
	<path d="M412.1,177.1c0.1-1.8,0.2-3.7,1.8-5.8C413.9,173.9,413.1,175.5,412.1,177.1z"/>
	<path d="M825.3,196c0.9-2.2,2.2-1.1,3.5-1.2C827.6,196.2,827.6,196.2,825.3,196z"/>
	<path d="M756.3,136.7c-0.6-0.5-0.8-1.4-1.8-1.4c-0.5-0.4-0.9-0.8-1.7-1.4c2.2-0.2,3.3,0.8,4.4,1.7
		C757.2,136.2,756.8,136.5,756.3,136.7z"/>
	<path d="M387.7,136.4c-0.5-1.4-1-2.8-1.6-4.5C388.3,133.6,388.4,133.7,387.7,136.4L387.7,136.4z"/>
	<path d="M740.6,135.4c-0.4-1.9-1.6-3.6-1.6-5.6l-0.1,0.1C740.8,131.2,741.8,132.9,740.6,135.4L740.6,135.4z"/>
	<path d="M335.2,394.7c1.3,0,2.6-1,4.1,0C337.8,396.1,336.5,395.5,335.2,394.7z"/>
	<path d="M766.4,170.7c0.4,1.5-0.2,2.8-1.1,4.3C764.8,173.1,765.6,171.9,766.4,170.7z"/>
	<path d="M323.6,387.4c1.3,1.4,1.3,2.5,0.6,3.8C322.6,390.2,323.2,389.1,323.6,387.4z"/>
	<path d="M875.2,164.9c0.8-1.2,1.7-2.1,3.7-2.5C878,164.3,876.7,164.7,875.2,164.9z"/>
	<path d="M808.8,210.7c0.9,0.7,1.6,1.5,1,2.9C808.6,212.9,808.4,211.9,808.8,210.7z"/>
	<path d="M403.7,137.1c-1.2,0.9-1.7-0.6-2.6-0.7c-0.3-0.4-0.6-0.7-1.4-1.7C401.6,135.5,403.1,135.5,403.7,137.1z"/>
	<path d="M333.7,352c-1.1-1.2-1.4-2.1-1.1-3.3C334.2,349.5,333.6,350.6,333.7,352z"/>
	<path d="M657.9,225.9c-0.2-1.3,0.9-1.1,1.5-1.4c0.8,0.8,0.3,1.3-0.2,1.7C658.8,226.5,658.4,226.5,657.9,225.9z"/>
	<path d="M871.6,167.8c-0.9,1-1.7,1.4-2.7,1.2c-0.4-0.2-0.5-0.4-0.2-0.6C869.5,167.8,870.3,167.1,871.6,167.8z"/>
	<path d="M338.2,309.7c-1.2-0.8-1.5-1.7-0.7-3.2C338.4,308.2,338.4,308.2,338.2,309.7z"/>
	<path d="M746.9,187.5c1.4,0.6,1,1.8,0.9,2.9C747.5,189.4,747.2,188.5,746.9,187.5z"/>
	<path d="M334.8,292.1c0.5,0.8,0.8,1.5-0.3,2.2C333.6,293.4,333.9,292.8,334.8,292.1z"/>
	<path d="M334.2,358.1c1,0.9,1.2,1.6,0.7,2.5c-1,0.3-1-0.4-1.1-1C333.7,359.1,333.8,358.6,334.2,358.1z"/>
	<path d="M866.3,170.6c-0.5,1.1-1.4,0.9-2.4,1c-0.4-1,0.6-0.8,1-1.1C865.2,170.2,865.7,169.9,866.3,170.6z"/>
	<path d="M765.9,115.2c-1.7,0.5-1.9-1-2.9-1.9c0.7-0.1,1-0.2,1.4-0.3l-0.1-0.1C764.3,114,765.5,114.3,765.9,115.2L765.9,115.2z"/>
	<path d="M394.3,188.9c1,0.7,0.6,1.7,0.9,2.8C394.1,190.9,394.7,189.8,394.3,188.9z"/>
	<path d="M330.3,388.5c1.5,1.3,1.3,2.3,1.1,3.6C330.2,391.1,330.4,390.1,330.3,388.5z"/>
	<path d="M384.3,206c-0.6,0-1.2,0-2,0C383.1,205.5,383.7,205.7,384.3,206z"/>
	<path d="M815,209.3c0.9,0.6,0.7,1.1-0.3,1.5C814,210.2,814.1,209.7,815,209.3z"/>
	<path d="M381.5,133.5c0.7,0,1.5,0,2.2,0v0.1c-0.7,0-1.5,0-2.2,0V133.5z"/>
	<path d="M325.1,394.4c-1,1.2-1.4,0.5-2-0.2C323.8,393.5,324.4,393.8,325.1,394.4z"/>
	<path d="M817.4,229.7c-0.1-1.6,0.8-1.5,1.8-2.4C819,229,818.5,229.4,817.4,229.7z"/>
	<path d="M333.5,354.3c0.9,0.6,1.1,1.3,0.7,2.4C333.7,355.9,333,355.4,333.5,354.3z"/>
	<path d="M411.3,205.4c-0.5,1-1.3,0.8-2.3,0.5C409.9,205.7,410.6,205.6,411.3,205.4L411.3,205.4z"/>
	<path d="M411.4,205.5c0.9-0.7,2-0.5,3.1-0.8l-0.1-0.1C413.5,205.7,412.3,205.3,411.4,205.5L411.4,205.5z"/>
	<path d="M414.5,204.7c0.7-0.5,1.5-0.8,2.6-0.3C416,204.5,415.2,204.6,414.5,204.7L414.5,204.7z"/>
	<path d="M690.7,200.9c0.9,0.4,1.4,0.8,1.1,1.8C690.4,202.6,690.5,201.9,690.7,200.9z"/>
	<path d="M774.5,201c-0.1,0.9-0.6,1.2-1.5,0.8C773.2,201.1,773.7,200.8,774.5,201z"/>
	<path d="M760.5,169.1c0.1-0.8,0.8-1,1.5-1.2C761.7,168.7,761.2,169.1,760.5,169.1L760.5,169.1z"/>
	<path d="M760.4,169c-0.4,1.2-1.4,1.4-2.4,1.5l0.1,0.1C758.8,170,759.3,169,760.4,169L760.4,169z"/>
	<path d="M661.8,241.7c-0.6,0.8-1.1,1-1.6,0.2C660.5,241.1,661,241.2,661.8,241.7z"/>
	<path d="M324.6,382.9c-1.4-0.9-0.9-1.6-0.9-2.3C325.1,381.2,324.1,381.9,324.6,382.9z"/>
	<path d="M324.1,384.8c0.7,0.8,0.5,1.2-0.5,1.3C323,385.4,323.4,385,324.1,384.8z"/>
	<path d="M328,394.1c0.7-0.5,1.3-0.6,1.9,0.4C329.2,395,328.5,395.1,328,394.1z"/>
	<path d="M882.2,172.2c-0.3,0.8-0.8,0.7-1.5,0.5C881.1,172,881.5,171.7,882.2,172.2z"/>
	<path d="M392.5,225.7c-0.4-1.1,0.4-1.1,1-1.5C393.9,225.4,393.3,225.6,392.5,225.7z"/>
	<path d="M746.4,222.9c0.2,1.1-0.3,1.3-0.9,1.4C745,223.3,745.6,223.1,746.4,222.9z"/>
	<path d="M408,170.6c-0.4,0.3-0.9,0.7-1.7,1.3C406.5,170.6,407.1,170.5,408,170.6z"/>
	<path d="M338.1,314.3c-0.1-0.2-0.3-0.5-0.3-0.6c0.1-0.4,0.4-0.6,0.8-0.3c0.1,0.1,0.2,0.5,0.1,0.6
		C338.7,314.2,338.4,314.2,338.1,314.3z"/>
	<path fill="none" d="M824.6,648c-1.6-1.5-2.3-3.1-2.7-4.9c-1.3-4.8-4.9-7.5-10-7.5c-1.4,0-2.8,0.2-4.5,0.3
		c-0.3-1.8-0.7-3.6-0.7-5.3c-0.2-6.1-1.2-12.2-1.8-18.3c-0.6-6-2.4-12-3.8-17.9c-1.4-6-3.2-11.9-3.9-18c-0.3-2.3-1.8-4.2-2.4-6.4
		c-2.7-9.9-3.6-19.9-2.8-30c0.2-2.3,0.8-4.6,0.5-6.9c-0.6-4.4-1.2-8.8-2.8-13c-0.9-2.1-1.5-4.3-1.6-6.7c-0.1-1.2-0.6-2.5-1.3-3.6
		c-3.5-5-4-10.9-5.3-16.6c-0.2-1.1,0-2.4-0.6-3.4c-3.4-6.2-4.1-13.2-5.6-19.8c-2.6-11.1-5.3-22.1-7.1-33.4c-0.5-3-1.9-5.8-2.8-8.8
		c-0.3-0.9-0.7-1.9-0.3-3.2c2.7-0.2,5.2-1.4,7.7-2.6c7-3.5,14.5-4.8,22.2-5.4c6.7-0.5,13.2,0,19.9,0.9c0.8,1.6,0.6,3.3,0.6,4.9
		c0.3,12.3,0.2,24.6-0.7,36.8c-0.2,2.1,0.4,4.3,0.4,6.5c0,4.7-0.5,9.4-0.7,14.1c-0.5,12.8-0.6,25.4,3.4,38
		c3.4,10.8,6.1,21.9,8.9,32.9c0.6,2.5,0.6,5.1,0.8,7.6c0.7,11.2,0.9,22.4-0.4,33.7c-1.3,11.3-2.7,22.6-3.7,33.9
		c-0.6,6.7,0.5,12.9,1.4,19.3c0.1,0.6,0.1,1.3,0.2,1.9C824.9,647.4,824.8,647.5,824.6,648z M793.3,504.1c-1.7,5.9,0.1,9.1,6.5,11.4
		c-2.6-2.1-2.8-5.3-5.2-6.8C794.2,507.2,795.1,505.6,793.3,504.1z M800.3,538.9c0.2-2.8,0-4.7-2.3-6.3
		C797.8,535.1,798.9,536.7,800.3,538.9z M807.6,505.1c-0.1,3.6-0.1,3.6,1.5,5.7C808.4,509.1,809.5,507.1,807.6,505.1z M802.4,544.4
		c-0.3,0.1-0.6,0.1-0.9,0.2c0.2,1.3,0.5,2.6,0.8,4.6C803.7,547,803.1,545.7,802.4,544.4z M819.2,631.3c0.5-0.8,0.6-1.4-0.1-1.9
		C818.7,630,818.7,630.5,819.2,631.3z"/>
	<path fill="none" d="M719.4,638.9c-0.8,1.9-1.6,3.4-3.6,3.7c-1.9-2.5-3.1-5.3-4.5-7.8c-2.2-1.6-4.9-2.3-6-5.2
		c-0.4-1.3-2.3-1.9-3.8-2.1c0.3-15.7,1.3-31.4-0.1-47.1c-0.7-8.1-1-16.4-0.9-24.6c0.1-9.4,2.1-18.5,4.1-27.7
		c0.7-3.2,1.2-6.5,1.1-9.8c-0.1-4.3-0.5-8.7-0.4-13c0.1-2.4,0.1-4.8,0.4-7.3c0.7-4.5,0.2-8.9-0.2-13.4c-0.4-5.1-1.3-10.2-1.4-15.3
		c0-1,0-2.2-0.4-3c-1.7-3-1.5-6.2-1.4-9.3c0.2-5.8,0.4-11.5,1.2-17.2c0.6-3.8,0.9-7.6,0.7-11.5c-0.1-4,1.1-7.8,0.8-11.7
		c0.6-0.3,1-0.6,1.3-0.5c3.7,0.2,7.4,0.7,11.1,0.7c5.8,0.1,11.2,2.5,16.9,3.2c5.6,0.7,11,2.5,16.4,3.8c1.7,0.4,3.5,0.4,5.6,0.9
		c-0.3,2.1-0.5,4.1-0.9,6c-2.8,13.4-7.1,26.4-11.9,39.2c-0.8,2.1-1.1,4.5-1.7,6.7c-1.6,6.4-3.1,12.9-3.4,19.6
		c-0.3,7.4-0.9,14.8-1.9,22.1c-0.7,5.4-1.9,10.8-3.7,16.2c0.3,6.8,2.1,13.8,2.2,21c0,2.8-0.2,5.6,0,8.4c0.4,5.1-1.4,9.6-3.2,14.1
		c-5.9,14.7-10,29.8-12.9,45.3c-0.2,1-0.4,2-0.7,3c-0.9,2.6-1.3,5.1,0.4,7.7C719.6,635.6,718.1,637.6,719.4,638.9z M723.6,508.7
		c-0.9,2.5-1.7,5-2.6,7.4c-0.7,1.7-0.5,3,0.6,4.1c1.7-2.9,3-6,4.2-9.5c-0.6-1.3-0.9-2.9-0.8-4.6c0.1-1.3-0.5-2.1-2.2-2
		C722.5,505.7,723.6,506.9,723.6,508.7z M720.4,536.3c-1.7,3.7-2.6,7.2-2,10.9c1.1-2.9,1.9-5.8,2.7-8.7
		C721.2,538,721.4,537.5,720.4,536.3z M717.5,558.8c2.5-2.9,2.7-3.8,1.2-6.4C717.8,554.5,717.5,556.5,717.5,558.8z M710.5,508.8
		c-0.3,0-0.6-0.1-1-0.1c-1.2,1.7-0.6,3.4,0.6,5.2C710.3,512.1,710.4,510.5,710.5,508.8z M717.9,564.6c-0.5,0.8-1.1,1.6,0.1,2.5
		c0.5-0.5,0.8-1,0.8-1.7C718.8,565.1,718.6,564.8,717.9,564.6z M713.7,624.1c1.3-1.8,1.2-2.9,0-4.3
		C713.7,621.2,713.7,622.3,713.7,624.1z M713.9,611.4c-0.5,1.7,0.1,2.7,0.7,3.9C715.2,613.9,715,612.8,713.9,611.4z M714.2,628.7
		c0.8-0.9,1.1-1.4,0-1.9C713.3,627.2,713.4,627.8,714.2,628.7z"/>
	<path fill="none" d="M788.1,289.8c2.6-0.5,5,0.1,7.8,1.3c-1.8,3.5-2.7,7.2-3,11c-0.4,4.4-1,8.9,0.2,13c1.3,4.8,2.6,9.6,4.5,14.2
		c3.1,7.3,5.8,14.7,8.6,22.1c-5.3,3.4-11,5-17,5.3c0.1-1.4,2-1.9,1.8-3.8c-2.1,1.3-3.4,3.2-4.9,4.9c-1.4,0.7-2.8,1.2-4.4,1.2
		c-7.3-0.3-14.5,1.2-21.8,2c-11.1,1.1-22-0.2-32.8-2.5c-2-0.4-3.6-1.8-5.3-3c0,0.7-0.1,1.1-0.1,1.8c-2.9-0.6-5.7-1.3-8.8-2
		c0.8-7,1.4-13.8,3.1-20.5c2.3-9.2,4.1-18.5,4.2-28c0.1-5.5-0.8-11-1.8-16.4c-0.1-0.6-0.4-1.2,0.1-2.1c2.4-1,5.2-1.6,7.9-2.1
		c8.2-1.5,16.5-2.2,24.8-1.1c8.4,1.1,16.9,0.4,25.2,1.9c3,0.5,6,1.1,9,1.7c1,0.2,2.1,0.3,2.6,1.4c-2.1,0.1-2.8,2-4,3.3
		C786,292.6,787.5,291.7,788.1,289.8z M745.8,333.7c1.9,0.9,3.6,1.5,5.3-0.4c-0.9-0.8-1.7-1.5-2.4-2.2
		C747.3,331.2,746.1,331.6,745.8,333.7z M731.8,349.6c0.1-1.7-0.5-2.6-1.1-3.7C730.3,347.3,731,348.2,731.8,349.6z M730.1,332.2
		c0.6-2.2,0.6-2.2,0-4.3c-0.6,0.6-0.4,1.4-0.4,2.2C729.7,330.8,729.5,331.6,730.1,332.2z M795.2,349.1c-1,0.3-1.6,0.8-1.4,2.2
		C794.7,350.7,795.4,350.4,795.2,349.1z"/>
	<path fill="none" d="M705.1,413.3c1.2-8.3,1.4-16.4,3.4-24.2c2.3-9.1,3.1-18.4,3.5-27.7c0.1-1.3,0.1-2.6,0.6-3.7
		c1-0.7,1.8-0.2,2.7,0c6.9,1.9,13.8,3.8,20.9,4.9c10.8,1.7,21.7,1.7,32.5-0.2c5.3-0.9,10.7-1,16-1.9c6.9-1.3,14-1.7,20.4-5
		c0.7-0.3,1.4-0.4,2.3-0.6c1.9,4.1,3.1,8.3,3.7,12.5c0.3,1.8,0.7,3.5,1.4,5.2c1,2.4,1.5,4.9,1.7,7.5c0.4,5.4,1.6,10.6,2.1,16
		c0.5,5.1,0.4,10.2-1,15.1c-0.2,0.8,0.2,1.8-0.7,2.8c-2.1-0.1-4.4-0.4-6.5-0.7c-7.5-1.2-14.8,0.6-22.2,0.8c-1.6,0-3.4,0.4-4.8,1.2
		c-4.8,2.9-10.4,3.3-15.4,6c-3.9-3.5-3.7-8.1-4.6-12.9c-0.6-0.9-1.4-2.1-2.3-3.4c1.2,6.2-0.7,11.9-2.7,17.7
		C739.7,416.9,722.5,415.2,705.1,413.3z M733.5,412c-0.8-1.2,0.1-2.2,0.1-3.3c0.2-2.8-1.4-4.7-4.1-4.9c-2.7-0.2-4.7,1.6-4.7,4.2
		c0,2.7,1.8,4.4,4.6,4.4C730.7,412.4,731.9,412.2,733.5,412z M707.7,410.4c1.9,0.1,0.8-2.2,2.4-2.3c1.5,0.1,1.5,2,2.6,2.5
		c0.3,0.2,0.7,0.3,1,0c0.3-1-0.8-1.6-0.7-2.6c1.3-1.4,2.3-2.9,0.6-5c-1.7-0.5-3.6-1-5.9-0.5C707.5,405.1,706.8,407.7,707.7,410.4z
		 M724.5,407.6c-1.5-3.7-3.1-5-5.7-4.5c-1.9,0.3-3.5,2-3.7,3.8c-0.2,2.1,1.1,3.9,3.2,4.5C721,412.2,722.5,411.3,724.5,407.6z
		 M752.8,404.7c0.7,1.2,1.4,2.2,3.2,2.5C755.2,405.6,754.1,405.1,752.8,404.7z"/>
	<path fill="none" d="M771.7,224.1c0.3,7.6,1.1,14.3,4,20.5c1.8,3.9,4.3,6.8,9,7c4.4,0.2,8.7,0.2,12.7-2.6c2,2,4.6,2.9,7.1,4.1
		c-1.2,12.1-3.7,23.7-8.2,35.1c-7.2-1.4-14.2-2.8-21.2-4.2c-1.5-0.3-3-0.6-4.5-0.7c-8.9-0.7-17.9-1.4-26.8-1.8
		c-7.4-0.4-14.5,1-21.6,3.1c-1.3,0.4-2.7,0.8-4.4,1.4c-1.9-7.2-7-12.3-11.3-17.9c-2.9-3.8-5.9-7.6-5.8-12.7c0.1-5.9,1-11.7,4-17
		c3.8-6.6,7.7-13.3,11.8-19.7c2.5-3.9,5.8-7.1,7.9-11.3c0.4-0.8,1.1-1.5,1.4-2.3c1.7-4.1,5-6.5,9.1-8.9c-2.7,5.5-5.1,10.6-7.7,15.7
		c-1.5,3-2.9,6-3.4,9.3c-0.2,1.1-0.3,2.3-0.3,3.4c0.1,6,1.8,8.5,7.6,9.7c8.4,1.6,16.8,1.5,24.9-1.8
		C761.5,230.4,766.9,228.5,771.7,224.1z M771.1,271.2c0.3,1.5,1.2,1.5,1.9,1.6c2.7,0.6,5.3,0.6,8-0.1c4.6-1.2,8.9-3.2,13-5.4
		c0.7-0.4,1.3-0.9,1.5-2.2C787.7,269.2,779.6,271.1,771.1,271.2z M751.1,264.5c2.6,4.3,12.6,8,19.3,7.2
		C763.7,269.3,756.8,268.6,751.1,264.5z"/>
	<path fill="none" d="M682.3,654.6c0.7-1.6,1.8-1.2,2.8-1.2c4,0,7.9,0.2,11.9,0.6c1.3,0.1,2.9,0.7,3.8-1.1c-0.3-2.2-2.2-2.2-3.7-2.5
		c-2.8-0.5-5.6-0.7-8.4-0.4c-0.9,0.1-1.7,0.5-2.6,0c0.1-2,1.6-1.9,3-1.9c4.5-0.1,8.9,0.9,13.3,1.6c1.2,0.2,2.5,0.9,3.4-0.6
		c-2-3.3-5.9-4.3-17.2-4.9c2.8-1.9,5.9-1.1,9-0.8c3,0.3,5.9,1.6,8.9,1.2c0.5-1.1,0-1.6-0.8-2c-3.3-1.7-6.8-2.1-10.4-2.4
		c-1.1-0.1-2.3,0-3.8,0c1.4-2.9,2.9-5.6,3.2-8.6c2.2-1.3,4.6-0.7,6.8-0.8c2.4,2.1,4.4,4.5,7.3,5.6c1.1,0.4,1.6,1.6,2,2.7
		c0.9,2,1.7,4,2.5,5.8c2.5,1.7,4.5,0.3,7.2-0.5c-1.2,5.7,2.9,9.9,3.4,15.1c0.2,1.9,0.5,3.7,0.8,5.7c-5.7,1.7-11.3,2.8-17.3,4
		c0.9-2.3,3.3-2.5,4-4.3c-3.2-0.4-4.9-0.2-6.6,8.4c-5.5,1.5-10.9,3.9-17.3,3.5c-1,1.2-2.4,2.1-4.4,1.9c-3.8-0.5-7.6-0.8-11.4-1.3
		c-1.5-0.2-2.9-0.8-4.2-2.3c3.2-0.8,6-0.1,8.8,0.3c2.8,0.3,5.4,1.2,8.6,2.6c-2.9-3.4-2.9-3.4-15.4-5.8c-0.7-4,0.4-7.3,4.1-9.4
		c1.6-0.9,3-2,4.2-3.2c2.9,0.5,5.6,2.4,8.1,1c1.2-1,0.1-1.8,0.5-2.4c2.5-0.6,5.1,0.8,7.6-0.4C692.5,654.8,692.3,654.7,682.3,654.6z"
		/>
	<path fill="none" d="M791.4,686.2c5.7,0.8,11.7,0,17.1,2.5c-4.4-0.5-8.8,0-13.3-0.3c-2.7-0.2-3.2-0.5-5.7-2.5
		c2.9-4.8,5.6-9.8,7.9-14.8c6,1.3,11.9,1,17.8-0.2c0.9-0.2,1.6-0.9,1.4-2.1c-0.2-0.2-0.4-0.6-0.7-0.7c-0.5-0.2-1-0.4-1.5-0.3
		c-5.2,0.4-10.5-0.2-15.8,0.5c-0.6-1.2,0.7-2.3,0.1-3.8c6.5,1.9,12.7,0.6,18.9,1.2c1.1,0.1,1.9-0.5,2.2-1.6
		c-0.4-2.2-2.3-2.4-3.8-2.6c-5.4-0.7-10.7-0.8-16,0.8c-0.7-0.7-0.3-1.5,0.2-2.6c3.4,1.4,6.9,0.3,10.4,0.1c3.3-0.2,6.8,1.1,9.9-0.7
		c0-2.1-1.3-2.4-2.6-2.6c-5.5-1.1-11.1-1.3-16.6,0.6c0.1-1.3,1-1.8,1.7-2.4c2.8-0.3,5.6-0.5,8.5-0.4c2.7,0.1,5.4,1.4,8.3,0.4
		c-1.3-2.9-1.3-2.9-15.4-4.1c0.3-2,1.8-3.7,1.7-5.8c0-2.1,0.3-4.1,2.1-5.8c3.6-1.1,6.8,0.4,10.1,2.1c1.5,3.2,1.8,6.9,4.1,9.9
		c1.6,0,3.2,0,4.9,0c1.3-0.3,1.7-1.8,2.9-2.4c0.7,3.2,1.7,6.2,3.3,9c1.2,2.1,1.2,4.4,1.6,6.7c0.4,2.5,0.8,5.1,1.6,7.6
		c-1.5,2-0.5,4.3-0.4,6.7c-1.6,0.9-3.2,1.8-4.8,2.8c-0.1,0.2-0.3,0.4-0.4,0.7c-1.3,4.6-4.7,6.1-9.1,5.9c-2.5-0.1-4.9,0.2-7.1,0.8
		C808.4,684.7,795.8,683.2,791.4,686.2z M797.5,674.1c4.9,2.9,8.5,2.7,11.3-0.7C804.8,671.8,801.2,673.8,797.5,674.1z M832.9,671.4
		c-2,2.2-2.6,4.5-1.5,7.9C832.8,676.3,832.8,673.8,832.9,671.4z"/>
	<path fill="none" d="M866.3,225.6c-0.2,4.8-0.8,10.6-3.3,15.9c-3.3,7-8.2,7.4-12.6,1.2c-3.3-4.6-4.9-9.8-5.9-15.2
		c-1.3-6.7-1.4-13.5-0.2-20.2c0.6-3.4,1.6-6.7,3.5-9.6c2.8-4.4,6.5-4.7,10.1-0.9c4,4.2,5.8,9.6,7,15.1
		C865.7,216.1,866,220.4,866.3,225.6z M857.3,246c1.6-0.8,2.7-1.9,3.4-3.6c2-5.1,3.8-10.1,3.8-15.8c0.1-6.5-0.5-12.8-2.1-18.9
		c-1.4-5.2-4.6-9.2-8.7-12.4c-1.4,0.2-2.3,0.5-2.7,1.7c0.8,0.8,1.6-0.8,2.4,0c5.7,5.3,8.9,11.8,8.9,19.6c0,0.5,0.2,1,0.2,1.5
		c1.2,8.8-0.3,17.3-3.9,25.3c-0.3,0.6-0.7,1-0.6,0.9c-1.6,0.8-2.5-0.3-3.3,0.5C855.3,245.3,856.1,245.9,857.3,246z M857,227.1
		c0.4-2.1,1.3-4.4,1.2-6.8c-0.1-1.4,0-2.8-0.7-4.1c-0.8-1.3-1.5-2.8-3.4-2.5c-1.8,0.2-3,1.3-3.5,3.1c-0.9,3.2-0.5,6.3,1.5,9.1
		C853.2,227.3,854.7,228.3,857,227.1z"/>
	<path fill="none" d="M799.8,212.3c-1.6,1.9-1.9,4-1.7,6.2c-1.3,0.9-2.8,0.6-4.2,0.7c-1.6,0.2-2.7,1.1-2.8,2.6
		c-0.3,2.6-0.4,5.2,2.3,6.9c2.4,0.7,4.9-0.7,7.4,0c1,1.6,0.4,3.1,0.3,4.6c-0.3,4-1.2,7.8-3,11.4c-0.6,1.1-1.3,2.2-2.1,3.2
		c-2.2,2.7-4.7,2.7-7.2,0.2c-1.4-1.4-2.3-3-3.1-4.8c-3.2-7.3-4.1-15-3.9-22.8c0.2-5.4,0.8-10.7,3.2-15.6c0.5-1.1,1.2-2.3,1.9-3.3
		c2.5-3.1,5.1-3.2,7.7-0.3C797.4,204.3,798.8,208,799.8,212.3z"/>
	<path fill="none" d="M630.7,202.8c4.6,7.1,4.2,14.6,3,22.2c-2.1,0.6-4-0.4-6.4-0.7c-1.7,3.1-2.6,6.4-2,9.9c0.4,2.3,1.8,3.3,4.3,3.6
		c1,0.1,2.1-0.2,3,0.5c0.1,6.7-3.4,15.5-7.4,18.2c-2-1-2.5-3.1-3-5c-1.1-4.4-1.4-8.8-1.4-13.3c0-8,1.1-15.8,3.1-23.5
		c0.7-2.6,1.5-5.2,2.8-7.5C627.5,205.4,628.3,203.8,630.7,202.8z"/>
	<path fill="none" d="M852.8,247.3c-8,0.4-10.6,0.3-14.4-8.2c-4.9-11-5.6-22.5-2.7-34.1c0.2-0.9,0.5-1.7,0.8-2.5
		c2.3-6,4.9-7.7,11.8-7.9c-3.9,4.2-5.4,9.3-6,14.6c-1.1,9.1-0.3,18.1,2.8,26.8C846.6,240.2,848.7,244.2,852.8,247.3z"/>
	<path fill="none" d="M687.2,261.1c0.2-0.6,0.5-1.2,0.7-1.7c-0.7-0.6-1.1,0.3-1.9,0.2c-1.6-2.7-2.3-5.8-2.4-9
		c-0.2-11.3,0.7-22.5,3.9-33.3c0.8-2.6,1.9-4.9,4.2-6.4c0-0.9-1.1-0.7-1.2-1.5c1.2-0.8,1.9,0.1,2.4,0.9c1.1,1.7,1.6,3.8,1.9,5.8
		c2,13.4,0.7,26.5-3.7,39.3c-0.8,2.3-1.6,4.6-3.7,6.1C687.5,261.4,687.3,261.2,687.2,261.1z M689.1,244.6c2.8-3.7,2.8-7.9,2.7-12.1
		c-0.1-1.5-0.3-3.1-2.8-3.5c-3.1,2.9-2.7,7-2.9,10.8C686,241.6,686.1,243.7,689.1,244.6z"/>
	<path fill="none" d="M835.2,179.3c-2.7,2.1-4.9,3.2-7.3,4.1c-4.1,1.7-8,4-11.9,6.2c-2.3,1.3-4,3.1-5.1,5.5
		c-2.4,5.1-6.5,9.1-9.2,13.9c-1.6,0-1.4-1.2-1.7-1.9c-0.8-1.9-1.7-3.7-2.9-5.4c-2-2.6-4.3-4.3-7.8-3.6c-0.8-1.6,0-3.1-0.4-4.8
		c5-1,9.3-3.2,13.6-5.4c1.5-0.7,3.1-1,4.8-1.3c3.7-0.5,7-1.8,10.4-3.4c4.1-1.9,8.8-2.4,13.3-3.4
		C832.1,179.7,833.2,179.6,835.2,179.3z"/>
	<path fill="none" d="M688.6,208.5c-8.3,11.3-11,39.8-5.3,54c-5.4,0-6.8-1-8.1-6c-1.1-4.4-1.5-8.8-1.4-13.3
		c0.3-10.1,1.3-20.1,5.2-29.6c0.8-1.9,1.7-3.7,3.4-5.1C684.3,208,686.3,207.3,688.6,208.5z"/>
	<path fill="none" d="M627.3,202.3c-7.7,9.8-11.4,41-5.5,54.2c-4.8,0.2-6.4-0.8-7.6-5c-0.6-1.8-1-3.7-1.2-5.6
		c-1-11.4-0.1-22.7,3.1-33.8c0.5-1.7,1.2-3.4,1.9-5C620.2,202.2,621.4,201.6,627.3,202.3z"/>
	<path fill="none" d="M789.1,250.4c-1.6,0-2.5,0-3.4,0c-3.6,0.1-6-1.7-7.7-4.8c-2.4-4.3-3.6-9-4.2-13.9c-0.9-7.3-0.7-14.6,1.2-21.7
		c0.1-0.5,0.3-1,0.4-1.5c2.1-6.2,4.3-8,11.4-9.2c-5.3,6.1-6.3,13.3-6.6,20.8c-0.2,5.6,0.2,11.3,1.6,16.8
		C783.1,241.8,784.8,246.5,789.1,250.4z"/>
	<path fill="none" d="M676.4,214.8c-1.4,4.5-2.6,9-3.1,13.8c-1.6,0.9-3,1.6-4.6,0.5c-0.6-0.9,0.2-1.5,0.4-2.1
		c1.1-2.6,0.7-4.8-1.1-7.1c-2-2.6-3.5-5.5-4.6-9c2.5,0.7,4.7,1.4,6.8,1.8C672.3,213.1,674.5,213.3,676.4,214.8z"/>
	<path fill="none" d="M627.8,236c-1.7-3.6-1.6-5.4,0.3-10c4.1,0.1,8,2,12.3,1.5c-0.4,3.1-0.8,5.7-1.2,8.5
		C635.2,236,631.4,235,627.8,236z"/>
	<path fill="none" d="M805.4,250.7c-2.2-1.5-4-2.7-6.1-4c1.9-4.3,3.1-8.7,3.8-13.4c3.1,1.4,6.1,1.2,10.1,1.3
		C807.6,238.8,807.3,244.9,805.4,250.7z"/>
	<path fill="none" d="M780.5,109.2c-1.2-0.1-2.2-0.6-2.8-1.4c-0.2-0.9,0.5-1,0.7-1.5c-0.5-0.7-1.5,0-2-0.5c-0.2-0.2-0.2-0.4,0.1-0.6
		c4.9-3,8.5-1.7,10,4c0.9,3.2,0.9,6.5,0.8,10.5c-1.3-2.9-2.4-5.2-3.4-7.4C783.1,110.9,780.5,111.4,780.5,109.2
		c0.7-0.2,1.5,0,1.8-1.2C781.3,108.1,780.5,107.9,780.5,109.2z"/>
	<path fill="none" d="M782.3,188.6c1.1,1.9,2.9,2.5,4.7,3.1c-0.2,2.1-0.4,4.1-0.6,6.3c-2.1,0.5-4.2,1-6.5,1.6
		C780.2,195.7,781.2,192.3,782.3,188.6z"/>
	<path fill="none" d="M793.2,227.1c-0.9-2.2-0.6-4.1-0.4-6.3c2.1-0.5,3.9-0.3,5.9-0.2c1.2,1.6,1.4,3.6,2,5.3
		C797.9,227.7,797.5,227.7,793.2,227.1z"/>
	<path fill="none" d="M667.6,231.6c1.9-0.8,3.4,0.2,5.2-0.8c-0.3,3.6-0.6,6.7-0.9,10c-1.4,0.2-2.6-0.1-3.9-0.4
		C666.7,237.6,668.4,234.6,667.6,231.6z"/>
	<path fill="none" d="M636.6,213.1c1.7-0.1,2.6,0.6,3.9,1.2c-0.8,3.8-1.6,7.5,0.3,11.2c-1.6,0.7-2.8,0.6-4.3,0
		C636.3,221.4,637.1,217.3,636.6,213.1z"/>
	<path fill="none" d="M784.2,131.1c-2.1,0.4-4.1,1.4-6.3,1.2c-1.4-0.1-2.7-0.5-4-1.3c1.9-0.9,3.7,1.2,5.8-0.3
		c-2.5-0.6-4.7-1.2-7.2-1.9c2.8-1,5.5-0.2,8-0.7c0.2-0.7,0.5-1.4,0.7-2.1c1.7,0.1,2.7-1.2,4.3-1.9c0.6,3.7-3.1,3.5-4.6,5.6
		c1.7,0.4,2.7-1.1,4.1-1.3C785.8,129.6,784.9,130.3,784.2,131.1z"/>
	<path fill="none" d="M827.9,224.3c-0.5-2.2-1.9-3.9-0.9-6.3c1.5-0.6,3.2-0.8,5.1-0.8c0.8,2.3,0,4.5,0.6,6.7
		C831,224.5,829.7,224.4,827.9,224.3z"/>
	<path fill="none" d="M861.7,198.3c-1.1-1.3-2.1-2.4-3.6-4c4.7-0.5,9-0.2,13.3-0.9C868.3,195,865.2,196.6,861.7,198.3z"/>
	<path fill="none" d="M751.1,107.1c-1.1-0.1-1.9,1.2-3.5,0.9c3.1-3.6,7-3.1,11.3-3.7c-1.8,1.6-3.7,1.4-4.9,2.4
		c-0.2,0.6,0.2,0.7,0.7,1.2c-2.5,0.3-3.8,2.6-6.4,2.7c0.2-2,2.5-1.9,3-3.3C751.4,107.3,751.2,107.2,751.1,107.1z"/>
	<path fill="none" d="M772.6,106.5c-0.8,1.4-2,1.3-2.8,1.1c-3.6-1.2-7.1-2.2-11-0.9C763.9,104.6,766.9,104.6,772.6,106.5z"/>
	<path fill="none" d="M772.7,112.2c1.9-0.2,3.4-1.6,4.9-2.1c1.6,0.4,0.2,2.5,1.9,2.5c-0.8,1-1.8,1.8-3.4,2c-1.1-0.4-2.5-0.9-3.9-1.4
		C772.5,112.7,772.6,112.4,772.7,112.2L772.7,112.2z"/>
	<path fill="none" d="M777,168.8c-0.4-1.2-0.6-2.6-0.1-3.7c1.6-4.2,1.9-8.8,3-13.1C779.9,157.8,777.9,163.2,777,168.8z"/>
	<path fill="none" d="M827.1,639.4c2.2,5.7,2.2,5.7-0.2,8.2C826.3,644.7,827,642.1,827.1,639.4z"/>
	<path fill="none" d="M682.3,251.9c0-4.9,0-9.9,0-14.8c0.1,0,0.2,0,0.3,0c0,4.9,0,9.8,0,14.7C682.4,251.8,682.4,251.8,682.3,251.9z"
		/>
	<path fill="none" d="M765.8,115.3c-0.3-1-1.5-1.3-1.6-2.4c1.9-0.3,2.7,1.7,4.5,2.3c1.5-0.1,3.1-0.9,5.4-0.5
		C771.2,116.7,768.5,116.4,765.8,115.3z"/>
	<path fill="none" d="M773.7,104.9c1.2-2.8,1.2-2.8,4.7-2.6C777,103.8,776.6,104,773.7,104.9z"/>
	<path fill="none" d="M782,145.3c0.2-1.7-0.1-3.2-1.1-4.6c-0.9-0.5-1.6,0.7-2.5,0.3c0.5-0.9,1-1.6,2.2-1.8
		C782.4,140.9,783.7,142.6,782,145.3L782,145.3z"/>
	<path fill="none" d="M778.8,173c0.4-0.1,0.7-0.2,1.2-0.3c-0.2,1.9-0.9,3.7-2.3,5.5c-0.6-2.3,1.6-3.6,1.2-5.4L778.8,173z"/>
	<path fill="none" d="M687.6,261.5c-1.7,0.7-1.7,0.7-3.4-1.7c1.3,0.5,1.8,2,3,1.3C687.3,261.2,687.5,261.4,687.6,261.5z"/>
	<path fill="none" d="M777,156.9c-0.3-1.2-0.6-2.2,0.8-2.9C778.4,155.1,778,155.9,777,156.9z"/>
	<path fill="none" d="M684.3,224.5c-0.1,1-0.2,2-0.3,3c-0.3-1-0.6-2,0.4-2.9L684.3,224.5z"/>
	<path fill="none" d="M680.9,657.6c-0.5,0.3-0.9,0.4-1.4,0C680,656.6,680.5,656.7,680.9,657.6z"/>
	<path fill="none" d="M683.3,229.8c0,0.6,0,1,0,1.7C683,230.8,682.9,230.3,683.3,229.8z"/>
	<path fill="none" d="M685.1,221.3c0.1,1.1,0,2.2-0.7,3.1l0.1,0.1C684.6,223.5,683.9,222.2,685.1,221.3L685.1,221.3z"/>
	<path fill="none" d="M685.2,221.4c0-0.7,0.1-1.5,0.1-2.5C686.2,220,685.8,220.7,685.2,221.4L685.2,221.4z"/>
	<path fill="none" d="M412,425.8c1-1,2-0.9,3-0.7c1.9,0.3,3.8,0.2,5.7,0.1c3.2-0.2,5.8-1.1,6.7-4.8c11.4-3,22.9-3.2,34.3-1.5
		c0.7,1.1,0.6,2,0.7,2.9c0.3,12.8,0.2,25.6-0.5,38.4c-0.2,4.1,0.2,8.2,0.3,12.2c0,0.9,0.2,1.8,0,2.7c-1,4.8-0.6,9.7-0.9,14.5
		c-0.6,10,0.7,19.6,3.5,29.2c3.3,11.1,6,22.5,9,33.7c0.9,3.3,0.9,6.6,1,9.9c0.3,10.1,0.7,20.2-0.5,30.3c-1.4,11.7-2.9,23.3-3.9,35.1
		c-0.5,5.7-0.1,11.1,1,16.6c0.3,1.5,0.4,3,0.7,5.3c-2-1.5-2.6-3-3.1-4.6c-0.7-2-0.4-4.6-2.8-5.6c-3-1.4-5.9-3.3-9.5-2.3
		c-0.6,0.2-1.3,0.2-2,0.2c-0.8-1.7-0.9-3.4-1.1-5.2c-0.7-8-1.2-16.1-2.8-24c-1.5-7.5-3.4-14.9-5.2-22.4c-0.6-2.4-1.2-4.7-1.4-7.2
		c-0.2-2.2-1.5-4-2.1-6.1c-2-6.8-3.4-13.7-3.5-20.8c0-5.4,0.2-10.8,0.7-16.1c0.2-2-1.4-3.4-0.7-5.5c0.6-1.8-0.6-3.6-1.1-5.3
		c-0.9-3.3-2.5-6.4-2.6-10c0-1.2-0.6-2.6-1.3-3.6c-3.5-5.3-4.3-11.4-5.4-17.4c-0.2-1-0.2-2.1-0.6-3c-3.4-6.5-4-13.7-5.7-20.6
		c-2.7-10.8-5.1-21.7-6.9-32.7c-0.4-2.5-1.5-4.9-2.4-7.3C412.3,428.9,411.8,427.4,412,425.8z M440.4,505.6c-1.3,3.2-0.7,5.7,0.8,8.2
		c0.9,1.5,2.1,2.4,4.2,2.1c-1.3-2.1-1.8-4.4-3.7-5.6C441.4,508.7,442.2,507.2,440.4,505.6z M445.4,534.6c-0.1,2,0.5,3.6,2.1,5.5
		C447.7,537.5,447.4,535.8,445.4,534.6z M456,512.5c-0.5-1.8,0.8-3.9-1.3-5.8C454.2,509,455.1,510.8,456,512.5z M449.6,546
		c-0.3,0-0.6,0-0.9,0.1c0.2,1.3,0.4,2.7,0.7,4.8C450.8,548.6,450.3,547.3,449.6,546z"/>
	<path fill="none" d="M379.8,536.2c1.8,10.7,2.7,21.5,2.4,32.4c-0.1,3.9-1.8,7.5-3.2,11c-5.8,14.7-10,29.8-12.9,45.3
		c-0.2,1.3-0.6,2.5-0.9,3.7c-1.1,4-1.1,4,1.1,7.8c-1.4,1.3-0.2,2.7,0.1,4c-0.8,1.8-1.4,3.5-3.8,3.5c-1.7-2.4-2.9-5-4.4-7.7
		c-2.2-1.4-4.9-2.3-6-5.3c-0.5-1.2-2.4-1.7-3.6-2c0.2-7.8,0.3-15.5,0.6-23.1c0.5-11.4-0.7-22.8-1.4-34.1
		c-0.9-14.3,0.4-28.3,3.9-42.2c1-3.9,1.4-8,1-12.1c-0.7-6-0.6-12,0.2-18c0.5-4.3,0.1-8.7-0.2-13c-0.5-5.2-1.3-10.4-1.4-15.7
		c0-1.5-0.2-3.1-1.1-4.4c-0.8-1.1-0.7-2.5-0.7-3.7c-0.3-6.8,0.3-13.6,1-20.3c0.4-4.2,1-8.4,0.9-12.6c0-1.8-0.1-3.6,0.4-5.5
		c4.4,1.8,8.9,2.7,13.6,2.9c3.9,0.1,6.6-1.4,8.9-4.3c0.5-0.6,0.9-1.2,1.4-1.9c9.5,0.5,18.2,4,27.6,5.5c0.1,2.9-0.7,5.7-1.3,8.5
		c-2.8,12.5-6.9,24.6-11.3,36.6c-0.8,2.1-1.1,4.5-1.7,6.7c-1.6,6.4-3.1,12.9-3.4,19.6c-0.3,7.4-0.9,14.8-2,22.1
		C382.9,525.3,382,530.9,379.8,536.2z M370.7,510.1c-0.9,2.5-1.7,5.1-2.7,7.5c-0.6,1.6-0.5,2.9,0.6,3.9c2-2.8,3.1-6.1,4.3-9.6
		c-2.2-1.5,0.9-5.2-2.6-6.6C369.1,507,371,508.3,370.7,510.1z M367.8,538.5c-1.8,3.1-2.9,6.4-2.2,10.1
		C366.7,545.3,368.2,542.1,367.8,538.5z M364.3,560.4c2.8-2.9,3.1-4.1,1.3-6.9C365.2,555.9,364.8,557.9,364.3,560.4z M357.4,509.6
		c-1.7,2.8-1.7,3.4,0.4,6.1C357,513.4,357.9,511.8,357.4,509.6z M360.9,625.4c1-2.2,1-2.2-0.2-4C360.8,622.8,360.8,624,360.9,625.4z
		 M362,616.9c0.3-1.3,0.2-2.5-0.7-3.7c-0.5,0.8-0.4,1.3-0.2,1.8C361.3,615.5,361.1,616.4,362,616.9z M364.8,568.5
		c0.6-0.1,0.9-0.5,1-1c0.2-0.6,0.2-1.2-0.7-1.3C364.3,566.9,364.5,567.7,364.8,568.5z M361.2,629.8c1.1-0.6,0.9-1-0.1-1.5
		C360.8,628.9,360.4,629.4,361.2,629.8z"/>
	<path fill="none" d="M442.5,356.6c-1.8,1.1-3.9,1-6.1,2.1c0.3-2,1.9-2.7,2.3-4.6c-1.8,0.6-2.8,1.9-3.7,3.1c-1.5,2.1-3.4,3-5.9,3
		c-6.8-0.1-13.5,1.2-20.2,1.9c-11.6,1.2-23,0.2-34.3-2.3c-2-0.5-3.6-1.9-5.3-2.9c-0.8,0.4,0.2,0.9-0.5,1.5c-2.6-0.5-5.4-1.2-8.5-1.8
		c0.2-5,1-9.9,1.8-14.8c1-5.8,2.7-11.5,3.7-17.3c1.6-9.1,2.4-18.2,0.8-27.5c-0.4-2.4-0.7-4.8-1-7.4c5.2-1.9,10.6-2.7,16.1-3.4
		c6.9-0.8,13.8-0.3,20.7,0.4c3.7,0.4,7.4,0.4,11.1,0.6c7.2,0.3,14.2,1.3,21.3,3.2c-0.5,1.8-2.4,2.3-3.1,4.2c2.2-0.7,3.2-2.2,4.5-3.8
		c2.3,0,4.4,0.5,6.5,1.3c0.6,0.8,0.3,1.4,0.1,1.9c-3.1,7-3.3,14.5-2.2,21.9c0.6,4.4,2.6,8.8,5.4,12.5c2.6,3.4,4.3,6.9,2.8,11.3
		c-1.2,3.7-1.6,7.6-4.1,11C443.3,352.3,443.1,354.6,442.5,356.6z M378.3,349.3c0.1-0.8,0-1.5-0.4-2.4
		C377.6,347.9,377.4,348.7,378.3,349.3c0.1,0.6-0.1,1.4,0.9,1.7C378.9,350.5,379.4,349.5,378.3,349.3z M395.6,332.4
		c-1.3,0.6-3,0.9-2.2,3c1.8,0.8,3.4,1.3,5.1-0.7C397.5,333.9,396.7,333.3,395.6,332.4z M377,333.6c0.8-1.4,1.1-2.9,0-5.1
		C377,330.6,377,332.1,377,333.6z M440.9,352.4c1.1,0,1.4-0.6,1.6-1.5C441.3,350.8,440.8,351.3,440.9,352.4z"/>
	<path fill="none" d="M429.6,189.9c2,1.6,4.2,2.1,5.6,3.9c-0.9,8.1-1.4,16.1-0.9,24.1c0.6,9.2,3.1,17.9,6.8,26.2
		c2.3,5.1,4.4,10.3,6.7,15.5c1.8,3.8,2.8,8.4,1.3,13c-1.8,5.6-3.2,11.3-5.3,17c-2.5-0.4-5.1-0.7-7.5-1.3c-8.8-2.2-17.7-3.8-26.9-4.1
		c-5.1-0.2-10.2-0.8-15.3-1.1c-8.3-0.6-16.3,0.4-24.2,2.9c-1.4,0.5-2.9,0.8-4.6,1.3c-1.8-6.4-6-11.3-10-16.1c-1.9-2.3-3.5-4.7-5-7.3
		c-1.4-2.4-2.3-5-2.1-7.6c0.4-6.3,1.2-12.5,5.1-17.8c1.6-2.2,2.7-4.7,3.4-7.2c0.6-2.4,1.8-4.4,3.3-6.4c5.2-7,9.9-14.3,14.5-22
		c2.2-1.1,4.5-2.6,7.3-3.8c-2.2,4.6-4.4,9.3-6.8,13.9c-1.6,3.2-3.1,6.4-3.7,10c-0.3,1.5-0.4,3.1-0.2,4.6c0.6,5.5,2.2,7.5,7.6,8.5
		c10.2,1.8,20.1,1,29.5-3.7c1.9-1,3.9-1.8,5.9-2.8c4.6-2.4,7.1-6.5,9-11c1.7-4.2,2.5-8.6,3.3-13
		C427.1,200.3,427.7,195.2,429.6,189.9z M397.6,266.3c2.3,3,5.5,4.1,8.7,5.2c5.1,1.7,10.5,2.3,15.7,3.1c1.9,0.3,3.8,0.2,5.7-0.3
		c4.7-1.2,9.2-3.2,13.4-5.5c0.8-0.4,1.5-0.8,1.4-2.2c-4.9,3-10.3,4.2-15.6,5.5c-3.4,0.8-7.2,1.1-10.4,0.5
		c-6.2-1.1-12.5-2.7-17.9-6.5C398.6,266,398.2,266.1,397.6,266.3z M444.2,263.9c1.2-0.4,1.7-0.9,1.5-2
		C444.8,262.2,444.3,262.7,444.2,263.9z"/>
	<path fill="none" d="M348.5,412.7c-1.8,0.1-3.6,0.6-5.5-0.4c-1.1-2.8-2.2-5.8-3.4-8.7c-1.4,0.2-1,1-0.8,1.7
		c0.8,2.3,1.5,4.6,2.4,7.1c-1.2,0.4-2.4,0.4-3.6,0.2c-1-0.7-0.9-1.8-1.2-2.8c-0.5-1.7-0.6-3.6-1.5-5.1c-2.8-4.9-1.8-9.9-0.3-14.8
		c1.6-5.5,3.1-11.1,3.3-16.9c0.1-2.5,1-4.9,2.2-6.9c2.4-4,3.1-8.3,4.4-12.6c3.8-12.5,5.5-25.5,9.2-38c1.6-5.5,3.5-10.9,4.8-16.6
		c0.4-1.7,0.9-3.4,0.2-5c-1.5-0.3-0.8,1.2-2,1.5c-1.8-4.8-4.8-9.2-5.5-14.5c-0.6-4.4-1.4-8.8-1.4-13.4c0-3.1-1.5-5.9-1.8-9
		c-0.3-4.3-1.3-8.6-1.4-13c-0.1-3.2-2.2-5.8-4.2-8.3c0.9,5.1,2.8,10,1.5,15.9c-10-17.7-13.3-36-9.3-55.5c2.9,1.4,5.8,3.2,9,4.4
		c6.2,2.2,11.8,5.5,17.8,8.1c7.2,3.2,11,8.9,11.5,16.8c0.3,4.8,0.8,9.6-0.1,14.5c-0.8,4.8,0.1,9.7,1.6,14.3
		c3.1,9.5,4.6,19.1,4.4,29.1c-0.1,3.8,0.7,7.6,1.3,11.4c0.8,4.8,1.3,9.7-1.5,14.5c-1.6,2.7-1.8,6.1-2.7,9.2
		c-3.1,10.1-5.4,20.6-10.8,29.9c-1.5,2.6-3.1,5.3-4.8,7.9c-2.3,3.4-3.9,7.2-5.7,10.9c-1.8,3.7-1.3,7.6,0,11.2
		c2.1,5.7,2.3,11.5,1.9,17.3c-0.3,4.5,0.7,8.6,3.2,12.3c-0.3,1.2-0.9,2.1-2.3,2.6c-0.9-1.6-2.9-2.2-3.3-4.4c-0.4-2.1-1.4-4-2.2-6.4
		c-0.8,2.7,0,5.6,2.7,10.8c-0.7,0.7-1.5,0.9-2.4,0.6c-0.5-0.6,0.1-1.1,0.2-1.5c-1.4-0.5-2.1,0.7-3.3,0.7c-2.3-2.8-1.7-7-4.7-9.4
		c0.8,3.7,1.9,7.3,3.6,10.7L348.5,412.7z M373,300.5c3-3.4,3.6-7.5,1.2-10.2c-0.4,3.7-0.7,7-1.1,10.3c-1.9,0-1.9,1.2-2.1,2.7
		C372.5,302.7,372.9,301.7,373,300.5z M349.1,243.2c-0.4-1.5-0.8-3.1-3-3.9C346.4,241.5,347.6,242.5,349.1,243.2z M378.1,299.4
		c-0.5,2.2-0.4,3.7-0.2,5.3C379,302.1,379,302.1,378.1,299.4z M338.6,226.8c0,1.3,0.6,2.1,1.6,2.6c0,0,0.2-0.2,0.4-0.4
		C340.3,228.1,340,227.2,338.6,226.8z M338.6,400.1c0.6,1.2,1.4,1.4,2.8,0.6C340.5,400,339.9,399.2,338.6,400.1z M351.6,210.6
		c0.8-0.8,1.8-0.7,1.9-1.9C352.3,208.6,351.8,209.1,351.6,210.6z M341.9,395.5c-0.6,0.9-1.3,1.6-0.2,2.7
		C342.3,397.3,342.6,396.6,341.9,395.5z M340.6,231.5c0.5,1.1-0.5,2.1,1.1,2.3C342.4,233,342.3,232.5,340.6,231.5z M347.8,391.7
		c-0.2,0.1-0.5,0.2-0.6,0.3c-0.2,0.3,0,0.5,0.2,0.6c0.4,0.2,0.7,0,0.7-0.4C348.2,392.1,347.9,391.9,347.8,391.7z M352.1,396.8
		c-0.2-0.8-0.6-1.2-1.3-0.5C351,397.1,351.4,397.3,352.1,396.8z M375.8,311.6c0.3-0.4,1.1-0.6,0.4-1.3
		C375.9,310.6,375.4,311,375.8,311.6z"/>
	<path fill="none" d="M442,359.7c-1.4,3.2-1.4,3.2-4.4,4.6c0.8,0.7,1.7-0.4,2.4,0.1c-1.6,9.2-2.9,18.4-5.3,27.5
		c-0.7,0.5-1.5,0.5-2.4,0c-0.6-1.3-0.5-2.7-0.4-4.1c0.6-5.5-1.4-10.6-3.1-15.6c-0.8-2.3-2.5-3.8-5.2-4c-0.8-0.1-1.5-0.4-2.2-0.5
		c-5.3-0.9-9.1,1.6-10.9,6.7c-3.2,9-3.6,18.3-3.6,27.6c0,1.5,0,3.1,0,4.7c-0.6-0.1-1.1-0.2-1.9-0.4c2.5,6.4,0,12.2-1.7,18.2
		c-8.3-3.1-16.9-4.9-25.8-6.6c0.5-1.6,1-3.1,1.4-4.5c2.9-10.3,3.3-20.7,0.3-31.1c-0.5-1.7-1.2-3.4-2-5c-2-3.9-4.9-6.3-9.7-6.3
		c-2.8,0-5.6,0-8.7-0.1c0.2-4,0.4-7.9,0.7-11.8c1.7-0.3,3,0.3,4.3,0.6c5.1,1.4,10.1,2.6,15.3,3.7c11.4,2.4,22.8,2.6,34.4,1
		c4.2-0.6,8.3-1.3,12.6-1.6C431.2,362.5,436.3,361.3,442,359.7z M399.7,406c1.1,1.5,1.8,2.5,3.6,2.6
		C402.4,407.2,401.5,406.6,399.7,406z"/>
	<path fill="none" d="M355.9,371.8c-4.7,3.5-6.8,8.6-8.5,13.9c-2.4-6.8-7-12.4-8.4-19.5c-0.9-5-0.4-9.9,0.1-14.9
		c1.4-12.7,4.3-25.2,5.1-38c0-0.8,0.3-1.5,0.2-2.3c-1.1-8,2.2-15,5.2-22c2-4.7,3.9-9.5,4.4-15c1.9,1.8,3.2,3.7,4.6,5.5
		c2.2,2.7,3.1,5.6,4.1,8.7c0.9,2.7,2.2,5.1,1.5,8.1c-0.2,0.7,0.1,1.5,0.2,2.3c0.9,7.5,0.6,15.1-0.2,22.6c-0.3,3.3-1.2,6.5-2,9.8
		c-3.1,12.7-4.6,25.7-6,38.6C356.2,370.2,356,370.8,355.9,371.8z"/>
	<path fill="none" d="M341.8,658.5c-4.3-3-8.4-2.3-12.5-2.4c0.6-1.2,1.5-1.2,2.6-1.2c4.3,0.3,8.7,0.4,13,0.7
		c1.3,0.1,2.6,0.3,3.2-1.8c-4.7-3.3-10-2.3-15.2-1.8c1.1-2.1,1.1-2.1,3.1-2.2c4.3-0.2,8.4,0.6,12.6,1.4c1.4,0.3,3,1,4.3-0.2
		c-1.7-3.3-7.9-5.1-17.2-4.8c0.2-1.1,0.9-1.3,1.8-1.4c3.2-0.4,6.4,0.1,9.5,0.7c1.7,0.4,3.5,0.6,5.3,0.9c0.7,0.1,1.3-0.1,1.7-1.3
		c-4.5-3.3-9.9-3-15.4-3.5c1.6-2.8,2.8-5.6,3.3-8.6c2.2-1.2,4.4-0.5,6.5-0.7c2.5,2.1,4.6,4.6,7.6,5.9c1.5,0.6,1.8,2.4,2.4,3.8
		c0.5,1,0.8,2.1,1.3,3.2c0.9,2.1,2,2.7,4.2,2.1c0.6-0.1,1.2-0.4,1.8-0.7c0.5-0.2,0.9-0.3,1.9-0.6c-1.4,5.3,2.3,9.2,3,13.8
		c0.4,2.2,0.7,4.5,1.1,6.9c-5.6,1.9-11.3,2.8-17.2,4.1c0.8-2.5,3.2-2.6,3.8-4.4c-3.9-0.4-4.9,0.9-6.5,8.4c-5.6,1.5-11,3.9-17,3.5
		c-4,2.8-16.7,1.7-20-1.9c3.1-0.6,5.9,0,8.7,0.4c2.7,0.4,5.3,1.4,8,2c-4-4.6-9.7-4.1-15-5.2c-0.7-4.2,0.6-7.4,4.2-9.5
		c1.6-0.9,2.9-2,4.3-3.3c2.7,1.2,5.5,2.1,8.1,1.2c0.9-1.3-0.3-1.8-0.2-2.6C335.5,658.9,338.3,660.7,341.8,658.5z"/>
	<path fill="none" d="M438.4,688.2c-2.1,0.3-1.9-1.3-1.2-2.1c3.3-4.1,4.9-9.2,7.7-13.8c1.7,1.4,3.7,1.4,5.7,1.2
		c3.2-0.3,6.4,0.1,9.6-0.5c1.5-0.3,3.1-0.3,3.7-2.2c-0.7-1.7-2.2-1.7-3.6-1.5c-4.8,0.6-9.7-0.4-14.9,0.7c0.3-1.5,0.6-2.7,0.9-3.8
		c6.3,1.6,12.6,0.4,18.8,1c0.6,0.1,1.2-0.3,1.7-1.1c0.4-2.1-1.3-2.6-2.9-2.9c-2.3-0.4-4.6-0.6-6.9-0.6c-3.3,0-6.6,0.2-9.9,1.2
		c-0.8-0.8-0.5-1.6,0-2.3c6.4,0.4,12.8,0,19.1-0.1c0.6,0,1.1-0.5,1.4-1.3c0.1-1.3-0.9-1.7-1.9-1.9c-5.8-1.3-11.6-1.7-17.5,0.7
		c0.1-1.4,1.3-1.9,1.9-2.6c3.1-0.2,6-0.2,9-0.3c2.7,0,5.4,1.4,8.3,0.4c-2.2-3.3-4-3.7-15.8-4.2c0.3-2.1,1.8-3.9,1.7-6.1
		c-0.1-2.1,0.3-4.1,2.3-5.7c3.7-1.1,6.8,0.8,10,2.1c1.4,3.4,1.8,7.1,4,10c2.7-0.2,5.8,1.2,7.3-2.6c5.9,15.5,5.3,9.9,6.3,30.4
		c-1.6,0.5-3,1.6-4.7,2.5c0,0-0.2,0.2-0.2,0.4c-1.3,4.8-4.7,6.4-9.3,6.1c-2.4-0.2-4.6,0.6-7.1,0.6c-6-3.2-12.6-4.3-19.4-4
		C440.8,686,438.6,685.6,438.4,688.2L438.4,688.2z M455.9,675c-3.7-1.2-9.2-0.5-11.2,1.2C450.2,678.4,453.1,678.1,455.9,675z
		 M478.5,680.1c1.4-2.9,1.7-4.8,1.5-7.7C477.9,674.8,477.7,677.4,478.5,680.1z"/>
	<path fill="none" d="M379,397c0.4,5.3-0.5,10.9-2.3,16.5c-1.1,3.3-2.4,6.5-4.7,9.1c-3.6,4.1-7.3,3.9-10.3-0.6
		c-2.8-4.1-3.9-8.9-4.5-13.7c-1.1-8.7-0.3-17.3,2.7-25.7c1-2.8,2.4-5.4,4.4-7.6c3.4-3.7,6.5-3.5,9.6,0.4c2.4,3.1,3.6,6.8,4.4,10.5
		C379,389.3,379.5,392.9,379,397z M369.2,374.9c5.3,6.2,7.6,13.2,6.6,21.3c-0.2,1.9-0.3,3.8-0.4,5.7c-0.3,7.2-3.3,13.6-6.7,19.7
		c-0.4,0.8-1.2,1.4-1.5,1.4c-1.9,0-2.7-1.3-4.2-1.7c1,1.9,2.6,2.5,4,3.2c1.1-0.7,2.2-1,2.9-2c3-4.2,5.3-8.8,6.4-13.8
		s1.3-10.1,1.3-15.2c0-6.8-1.9-12.8-6-18.2c-0.5-0.6-1-1.2-1.8-1.5c-1-0.1-2-0.2-2.6,0.9c0.1,0.1,0.1,0.3,0.2,0.3
		C368.1,375,368.7,375,369.2,374.9z M369.9,392.6c-3-0.6-4.2-0.4-5.2,1.3c-1.9,3.1-1.8,6.3-0.4,9.5c0.8,1.8,2.1,3.2,4.4,2.7
		C372,400.9,372.3,397.1,369.9,392.6z"/>
	<path fill="none" d="M315.9,389.7c-3.4,0.3-6.3,0.2-9.1-0.1c-3.3,2.8-3.5,5.8-0.7,9.4c2.4,0.8,5.1-0.1,7.5,1.2
		c0.7,1.8-0.3,3.4-0.7,5.1c-1,4.1-2.5,8.1-5.2,11.4c-3.7,4.6-7.3,4.2-10-1.1c-1.9-3.7-2.5-7.8-2.8-11.9c-0.7-8.8,0.7-17.3,3.8-25.6
		c0.8-2,1.9-3.9,3.3-5.6c3.6-4.5,7.1-4.2,9.7,0.8c0.8,1.6,1.4,3.3,1.9,5c0.8,2.8,0.7,5.8,2.2,8.5
		C316.2,387.5,315.9,388.5,315.9,389.7z"/>
	<path fill="none" d="M449.6,331.5c-3.3-6.6-6.7-12.5-7.9-19.4c-0.4-2.2-0.5-4.3,0-6.5c2.5-10.4,6-20.4,9.5-31.4
		c2.4,8.1,4.1,15.6,8.5,22.1c-1.5,6.6-4,13-6.4,19.5c-1.2,3.1-2.1,6.3-2.4,9.6C450.7,327.3,450.5,329.2,449.6,331.5z"/>
	<path fill="none" d="M429,391.9c-2.1-0.2-4-0.3-6.2-0.5c-1.7,3-2,6.1-1.6,9.3c0.4,2.8,1.9,3.9,4.7,4c0.9,0,1.8-0.2,2.6,0.2
		c1.2,5.6-2.1,15.9-6.1,18.7c-2.1-1.1-2.7-3.2-3.3-5.3c-2.4-8.2-2.6-16.7-1.9-25.1c0.4-5.7,1.2-11.4,3.1-16.9
		c1.3-3.7,1.7-4.3,4.1-6.2C428.6,373,430.2,380.8,429,391.9z"/>
	<path fill="none" d="M361.8,425.4c-2-0.4-4-0.7-5.9-1.2c-2.7-0.7-4-3-5.2-5.3c-2.8-5.7-3.4-11.8-3.4-17.9c0-6.7,0.9-13.3,3.5-19.5
		c1.5-3.6,3.3-6.7,7.2-8.5c2.3-1,4.5-0.1,6.8-1.1c-2.1,2.5-4.1,4.8-5.4,7.7c-2,4.3-3.2,8.9-3.8,13.6c-0.8,6.5-0.8,13,0.6,19.5
		C357.2,417.1,358.7,421.4,361.8,425.4z"/>
	<path fill="none" d="M484.5,425.4c-0.2-2.2-2.1-3.5-2.7-5.7c-0.6-2.6-1.2-5.2-1.3-7.9c-0.4-6.5-0.5-13,0.2-19.6
		c0.4-4.3,1.3-8.6,2.3-12.8c0.6-2.5,1.3-3.3,3.5-5.2c0.1-0.9-1.4-0.7-0.9-1.9c1.9,0,2.4,1.6,3,2.9c1.5,3.3,2.1,6.9,2.5,10.4
		c1,10.6,0.7,21.2-2.1,31.7c-0.6,2.2-1.3,4.4-2.6,6.4C485.9,424.5,485.6,425.4,484.5,425.4L484.5,425.4z M484.9,392.1
		c-2.9,3.5-2.7,7.6-2.4,11.6c0.1,1.7,0.1,4,3.2,4.2c2.5-2.8,2.1-6.3,2.1-9.6C487.7,396.1,488,393.8,484.9,392.1z"/>
	<path fill="none" d="M482.9,371.7c-7.4,11.5-8.6,43.2-2,54.5c-6.2,0.4-7.2-1.5-8.7-6.3c-1.7-5.6-2-11.3-2.1-17.1
		c0-7.6,0.6-15.1,2.7-22.4c0.4-1.2,0.7-2.5,1.2-3.6C476,372,477.1,371.4,482.9,371.7z"/>
	<path fill="none" d="M419.4,423.8c-5.6,0.2-7-0.6-8.5-5.7c-1.9-6.1-2.2-12.3-2.2-18.6c0-6.4,0.6-12.8,2.1-19c0.5-2,1-4,1.8-5.9
		c1.9-5,3.1-5.6,9-5.2c-5.1,8.3-5.9,17.5-6.3,26.8C414.9,405.5,414.9,414.8,419.4,423.8z"/>
	<path fill="none" d="M302.7,369.1c-9.7,12.4-11.1,26.6-8.3,41.6c0.3,1.6,1,3.2,1.5,4.7c0.6,1.6,1.8,2.8,2.7,4.2
		c-7.1-0.1-9.1-1.8-10.9-8.2c-2.7-9.8-1.8-19.5,1-29.1c0.6-2,1.4-3.9,2.2-5.7C293.2,371.3,296.9,368.3,302.7,369.1z"/>
	<path fill="none" d="M451.4,410.8c1.7,0.5,3.3,1.3,5.5,1.3c1.4-0.6,3.1-1.8,5.3-0.7c0.1,1.2,0.2,2.6-0.4,4.3
		c-10.8-2.2-21.5-0.6-32.5,0.3c0.9-3.6,2.8-6.9,1.5-10.7c2-1,3.7-0.4,5.5-0.5c1.6,2,1.4,4.7,2.5,6.9c0.5,0.3,1,0.7,1.6,0.8
		c3.1,0.6,6.2-0.5,9.3-0.1c1.1,0.1,1.2-1.1,1.8-1.7L451.4,410.8z"/>
	<path fill="none" d="M436.1,402.6c-4.5-0.4-8.3-0.7-12.1,0.3c-2.8-2.9-1.3-6.2-0.8-9.5c4-1.2,7.7,1.1,11.8,0.4
		C434.4,396.9,434.4,399.7,436.1,402.6z"/>
	<path fill="none" d="M315.7,391.9c0.7,2.1,1.4,4,1,6.4c-3.4-0.7-6.8,0.6-10.4-0.7c-1.3-2.2-0.4-4.3,0.3-6.7
		C309.7,391.2,312.7,391.5,315.7,391.9z"/>
	<path fill="none" d="M461.6,396.2c2.3-0.2,4.4-0.4,6.6-0.6c0,3.1,0,6.2,0,9.5c-1.8,0.3-3.4,0.2-5.2-0.3
		C463.5,401.8,461.1,399.6,461.6,396.2z"/>
	<path fill="none" d="M418.3,135.5c2.5,0.4,5,0.9,7.5,1.3c1.4,0.2,2.8,0.4,4.3-0.1c-1.9-1.9-4.5-0.7-6.8-1.7c3-0.3,5.8-0.1,8.4-1.7
		c0.6,2.6-1.3,4.6-1,6.9c-2.1-0.8-4.4-1.3-6.6-1.7C422,138.1,419.4,138,418.3,135.5z"/>
	<path fill="none" d="M438.3,688.3c4.7,0.1,9.4-0.4,14,0.7c1.2,0.3,2.5,0.5,3.9,1.4c-2.9,0.4-5.4-0.7-8-0.5c-2.5,0.2-5.1,0-7.6-0.1
		C439.8,689.6,438.6,689.5,438.3,688.3L438.3,688.3z"/>
	<path fill="none" d="M474.1,649.4c-0.7-3.2,0.2-5.8-0.4-9.1C476.3,643.8,476.4,646.2,474.1,649.4z"/>
	<path fill="none" d="M343.7,392.5c1.1,0,1.6-0.2,2.2,0.5c0,2.1,0,4.3-1,7C342.5,397.5,344.1,395,343.7,392.5z"/>
	<path fill="none" d="M425.2,163.2c0.4-3.3,0.6-6.6,1.9-9.7C427,156.8,427,160.1,425.2,163.2L425.2,163.2z"/>
	<path fill="none" d="M478.8,401c0,3,0,6,0,9c-0.1,0-0.1,0-0.2,0c0-3,0-6,0-9C478.7,401,478.7,401,478.8,401z"/>
	<path fill="none" d="M425.2,163.1c0.5,2.5-0.5,4.7-1.1,7.5C423.5,167.6,424,165.3,425.2,163.1L425.2,163.1z"/>
	<path fill="none" d="M426.6,174.5c0.2,2.3-0.5,3.6-1.8,5.1C424.5,177.5,425.7,176.4,426.6,174.5z"/>
	<path fill="none" d="M424.1,158c-0.3-1-0.7-2,0.8-2.5C425.4,156.6,425.2,157.4,424.1,158z"/>
	<path fill="none" d="M428.4,141.7c-1,0.4-2,0.8-3.2,1.2c0.5-1.1,1.1-1.8,2.1-2C427.9,140.8,428.3,141.1,428.4,141.7L428.4,141.7z"
		/>
	<path fill="none" d="M479.7,388.8c-0.1,0.9-0.1,1.8-0.2,2.8c-0.1,0-0.1,0-0.2,0c0-1,0-1.9,0-2.9
		C479.5,388.7,479.6,388.7,479.7,388.8z"/>
	<path fill="none" d="M479.5,415.9c-0.2-1.7-0.5-2.7,0-3.7C479.8,413.3,479.8,414.3,479.5,415.9z"/>
	<path fill="none" d="M484.4,425.3c-1.2,0.1-1.2,0.1-2.3-1.6C483.2,424.5,483.8,425,484.4,425.3L484.4,425.3z"/>
	<path fill="none" d="M478.7,396.8c0-0.7,0-1.4,0-2.1c0.1,0,0.1,0,0.2,0C478.8,395.4,478.8,396.1,478.7,396.8L478.7,396.8z"/>
	<path fill="none" d="M480.6,383.8c0.1-0.7,0.1-1.4,0.2-2.3C481.4,382.5,481.3,383.2,480.6,383.8L480.6,383.8z"/>
	<path fill="none" d="M480.5,383.8c0,0.9,0,1.8,0,2.6C479.9,385.5,479.7,384.6,480.5,383.8L480.5,383.8z"/>
	<path fill="none" d="M427.7,111.1c-0.9-0.7-2.1-0.9-2.9-1.9c-0.3-0.8,0.7-0.9,0.9-1.6c-0.6-0.7-1.6,0.5-2.5-0.4
		c1.1-1.4,2.9-1.7,4.3-2.4c3.5,0.5,5.2,2.7,6,5.8c0.8,3.2,0.8,6.5,0.5,9.8c-1.1-2.3-2.2-4.6-3-6.3c-1.1-1.7-3.1-1.4-3.5-3
		c0.6-0.4,1.1-0.8,1.9-1.4C428.1,109.4,427.5,109.8,427.7,111.1z"/>
	<path fill="none" d="M427.5,127.9c1.9-0.2,3.2-1.4,4.8-2.2c0.2,1.6,0,1.8-4.2,5.5c1.7,0.3,2.7-1.1,4.3-1.7c0.3,1.3,0,2.4-1.2,2.9
		c-3,1.1-6.1,2.7-9.3,0.3c1.4-0.7,2.8,0.3,4.9-0.4c-2.5-0.7-4.4-1.2-6.6-1.8c2.6-1.7,5.5-0.3,8-1.3
		C428,128.8,427.8,128.3,427.5,127.9L427.5,127.9z"/>
	<path fill="none" d="M410,107.2c3.4-1.9,6.5-0.2,10,0.8c-1.6,1.3-2.9,1.4-4.4,0.7C413.8,107.9,411.9,107.3,410,107.2L410,107.2z"/>
	<path fill="none" d="M428.3,126.3c0.2,0.8-0.8,1-0.8,1.7l0.1-0.1c-2.2,1.3-4.3,1-7.2-0.6C423.7,127.1,425.9,126,428.3,126.3
		L428.3,126.3z"/>
	<path fill="none" d="M420.4,107.1c2-3.8,2.3-4,5.6-2.6C424.1,104.9,422.7,106,420.4,107.1z"/>
	<path fill="none" d="M412.3,116.4c-0.2-0.5-0.3-0.9-0.5-1.5c2.2-0.8,2.8,1.6,4.9,2.1c-2.3,1.3-3.1-1-4.5-0.8L412.3,116.4z"/>
	<path fill="none" d="M416.4,116.7c1.8-0.5,3.1-0.7,4.4,0C419.6,116.8,418.4,118.2,416.4,116.7z"/>
	<path fill="none" d="M409.9,107.1c-1.3,0.9-2.7,0.9-4.7,1.5C407,107,408.5,107.1,409.9,107.1L409.9,107.1z"/>
	<path d="M394.7,110.4c1-0.8,1.9-1.6,3.8-1.5c-1.5,1.2-2.5,2.1-4,1.9C394.6,110.6,394.6,110.5,394.7,110.4z"/>
	<path fill="none" d="M418.2,133.3c1.4-0.2,2.6,0.2,3.8,1.2C420.4,135,419.3,134.1,418.2,133.3L418.2,133.3z"/>
	<path fill="none" d="M416.8,127.1c0.9,0.1,1.7,0.5,2.4,1.1c-1.4,0.6-1.9-0.2-2.3-1.2L416.8,127.1z"/>
	<path fill="none" d="M774.3,133c-1.8,0.3-3-1.2-4.6-1.4C771.5,131.4,773.1,131.7,774.3,133z"/>
	<path fill="none" d="M778.2,133.7c-1.3-0.3-2.9,0.4-4-0.9C775.5,133.2,777,132.6,778.2,133.7z"/>
	<path d="M793.3,504.1c1.8,1.4,1,3.1,1.3,4.6c2.3,1.5,2.5,4.6,5.2,6.8C793.4,513.2,791.6,510,793.3,504.1z"/>
	<path d="M800.3,538.9c-1.4-2.1-2.5-3.7-2.3-6.3C800.3,534.2,800.5,536.1,800.3,538.9z"/>
	<path d="M807.6,505.1c1.9,2,0.8,4,1.5,5.7C807.5,508.7,807.5,508.7,807.6,505.1z"/>
	<path d="M802.4,544.4c0.7,1.3,1.3,2.6,0,4.7c-0.4-1.9-0.6-3.2-0.8-4.6C801.8,544.5,802.1,544.4,802.4,544.4z"/>
	<path d="M819.2,631.3c-0.6-0.7-0.5-1.3-0.1-1.9C819.8,629.9,819.8,630.5,819.2,631.3z"/>
	<path d="M723.6,508.7c0-1.8-1.1-2.9-0.7-4.5c1.6-0.1,2.2,0.7,2.2,2c-0.1,1.7,0.1,3.3,0.8,4.6c-1.2,3.5-2.5,6.6-4.2,9.5
		c-1.2-1.1-1.3-2.4-0.6-4.1C721.9,513.7,722.7,511.1,723.6,508.7z"/>
	<path d="M720.4,536.3c1,1.2,0.8,1.7,0.7,2.2c-0.8,2.9-1.6,5.9-2.7,8.7C717.8,543.5,718.7,540.1,720.4,536.3z"/>
	<path d="M717.5,558.8c0-2.3,0.3-4.3,1.2-6.4C720.2,555,720,555.9,717.5,558.8z"/>
	<path d="M710.5,508.8c-0.1,1.7-0.2,3.4-0.4,5.1c-1.2-1.8-1.8-3.5-0.6-5.2C709.9,508.7,710.2,508.7,710.5,508.8z"/>
	<path d="M717.9,564.6c0.7,0.2,0.9,0.5,0.8,0.9c0,0.6-0.3,1.2-0.8,1.7C716.9,566.2,717.4,565.4,717.9,564.6z"/>
	<path d="M713.7,624.1c0-1.7,0-2.8,0-4.3C714.9,621.2,715,622.3,713.7,624.1z"/>
	<path d="M713.9,611.4c1,1.4,1.3,2.5,0.7,3.9C714.1,614.1,713.5,613.1,713.9,611.4z"/>
	<path d="M714.2,628.7c-0.8-0.8-0.9-1.4,0-1.9C715.3,627.2,715,627.8,714.2,628.7z"/>
	<path d="M745.8,333.7c0.3-2,1.4-2.4,3-2.6c0.7,0.7,1.5,1.4,2.4,2.2C749.4,335.2,747.8,334.6,745.8,333.7z"/>
	<path d="M788.1,289.8c-0.6,1.9-2.1,2.9-3.9,3.4c1.2-1.3,1.9-3.2,4-3.3L788.1,289.8z"/>
	<path d="M731.8,349.6c-0.8-1.3-1.4-2.3-1.1-3.7C731.3,346.9,731.9,347.9,731.8,349.6z"/>
	<path d="M730.1,332.2c-0.6-0.6-0.4-1.4-0.4-2.2c0-0.7-0.2-1.6,0.4-2.2C730.7,330,730.7,330,730.1,332.2z"/>
	<path d="M795.2,349.1c0.2,1.3-0.5,1.6-1.4,2.2C793.6,349.9,794.2,349.4,795.2,349.1z"/>
	<path d="M733.5,412c-1.6,0.2-2.8,0.5-4.1,0.5c-2.8,0-4.6-1.8-4.6-4.4s2-4.4,4.7-4.2c2.7,0.2,4.3,2.1,4.1,4.9
		C733.6,409.8,732.7,410.8,733.5,412z M731.8,408.9c0.4-2.2-0.7-3.1-2.5-3.6c-2.5,1.2-3.3,2.5-2.4,4.2c0.5,0.9,1.3,1.5,2.4,1.2
		c0.6-0.6-0.7-1.5,0.3-2C730.4,408.2,730.9,409.2,731.8,408.9z"/>
	<path d="M707.7,410.4c-0.8-2.7-0.2-5.3,0.1-7.9c2.3-0.4,4.1,0.1,5.9,0.5c1.7,2.1,0.7,3.6-0.6,5c-0.1,1.1,1,1.7,0.7,2.6
		c-0.3,0.4-0.7,0.2-1,0c-1.2-0.6-1.1-2.4-2.6-2.5C708.5,408.1,709.6,410.4,707.7,410.4z M712.8,405c-1-1-2-1.2-3.1-0.9
		c-0.6,0.7-0.6,1.4,0.2,2.2C710.9,406.4,712.1,407,712.8,405z"/>
	<path d="M724.5,407.6c-2,3.8-3.4,4.7-6.2,3.9c-2.1-0.6-3.4-2.4-3.2-4.5c0.2-1.8,1.7-3.5,3.7-3.8C721.3,402.6,723,403.9,724.5,407.6
		z M719.5,410.2c1.9-0.3,2.8-1.3,2.8-2.9c0-1.7-1.2-2.4-2.8-2.7c-1.3,0.4-2.6,1-2.6,2.7C716.9,408.9,717.9,409.7,719.5,410.2z"/>
	<path d="M752.8,404.7c1.3,0.3,2.4,0.9,3.2,2.5C754.2,406.9,753.4,405.9,752.8,404.7z"/>
	<path d="M771.1,271.2c8.5-0.1,16.5-2,24.4-6.1c-0.2,1.3-0.8,1.9-1.5,2.2c-4.2,2.2-8.5,4.2-13,5.4c-2.6,0.7-5.3,0.7-8,0.1
		C772.3,272.7,771.5,272.7,771.1,271.2z"/>
	<path d="M751.1,264.5c5.7,4,12.6,4.7,19.3,7.2C763.6,272.5,753.6,268.8,751.1,264.5z"/>
	<path d="M797.5,674.1c3.7-0.3,7.3-2.3,11.3-0.7C806,676.8,802.4,677,797.5,674.1z"/>
	<path d="M832.9,671.4c-0.1,2.5-0.1,5-1.5,7.9C830.3,675.9,830.9,673.5,832.9,671.4z"/>
	<path d="M857.3,246c-1.2-0.1-2-0.6-2.7-1.1c0.8-0.9,1.7,0.3,3.3-0.5c-0.1,0.2,0.3-0.3,0.6-0.9c3.6-8.1,5.1-16.5,3.9-25.3
		c-0.1-0.5-0.2-1-0.2-1.5c0-7.9-3.1-14.3-8.9-19.6c-0.7-0.8-1.5,0.7-2.4,0c0.4-1.1,1.4-1.4,2.7-1.7c4,3.2,7.3,7.3,8.7,12.4
		c1.7,6.2,2.2,12.5,2.1,18.9c-0.1,5.7-1.8,10.7-3.8,15.8C860,244,858.9,245.2,857.3,246z"/>
	<path d="M857,227.1c-2.3,1.2-3.8,0.2-4.9-1.3c-2-2.7-2.4-5.8-1.5-9.1c0.5-1.7,1.7-2.8,3.5-3.1c1.9-0.3,2.6,1.2,3.4,2.5
		c0.7,1.3,0.7,2.7,0.7,4.1C858.3,222.7,857.5,225,857,227.1z M855.6,216.9c-0.7,0.3-1.3,0.5-1.8,0.8c-1.1-0.6,1.6-1.8-0.3-2.3
		c-2.4,4.2-1.9,7.6,1.4,10.9C857.5,223.3,856.4,220.2,855.6,216.9z"/>
	<path d="M689.1,244.6c-3.1-0.9-3.1-3-3-4.8c0.2-3.8-0.2-7.9,2.9-10.8c2.4,0.4,2.7,2,2.8,3.5C692,236.7,692,240.9,689.1,244.6z
		 M689.3,231.6c0.4,3.4-0.3,6.8-0.8,10.2C690.1,238.6,690.9,235.2,689.3,231.6z"/>
	<path d="M780.5,109.2c-0.1-1.3,0.8-1.1,1.7-1.2C781.9,109.2,781.1,109,780.5,109.2L780.5,109.2z"/>
	<path d="M440.4,505.6c1.7,1.6,0.9,3.1,1.3,4.7c1.9,1.1,2.4,3.5,3.7,5.6c-2.2,0.4-3.4-0.6-4.2-2.1
		C439.8,511.3,439.2,508.8,440.4,505.6z"/>
	<path d="M445.4,534.6c2,1.2,2.3,2.9,2.1,5.5C445.9,538.2,445.2,536.6,445.4,534.6z"/>
	<path d="M456,512.5c-0.9-1.7-1.9-3.4-1.3-5.8C456.8,508.6,455.5,510.7,456,512.5z"/>
	<path d="M449.6,546c0.7,1.3,1.2,2.6-0.2,4.8c-0.3-2.1-0.5-3.4-0.7-4.8C449.1,546.1,449.3,546.1,449.6,546z"/>
	<path d="M370.7,510.1c0.3-1.8-1.6-3.1-0.3-4.8c3.5,1.4,0.4,5.1,2.6,6.6c-1.2,3.6-2.3,6.8-4.3,9.6c-1.1-1.1-1.2-2.4-0.6-3.9
		C369,515.2,369.8,512.6,370.7,510.1z"/>
	<path d="M367.8,538.5c0.4,3.6-1.1,6.8-2.2,10.1C364.9,544.9,366,541.6,367.8,538.5z"/>
	<path d="M364.3,560.4c0.5-2.5,0.9-4.5,1.3-6.9C367.4,556.3,367.2,557.5,364.3,560.4z"/>
	<path d="M357.4,509.6c0.5,2.2-0.4,3.8,0.4,6.1C355.7,513,355.7,512.5,357.4,509.6z"/>
	<path d="M360.9,625.4c-0.1-1.4-0.1-2.6-0.2-4C361.9,623.2,361.9,623.2,360.9,625.4z"/>
	<path d="M362,616.9c-0.9-0.5-0.6-1.3-0.9-2c-0.2-0.4-0.3-0.9,0.2-1.8C362.2,614.4,362.2,615.5,362,616.9z"/>
	<path d="M364.8,568.5c-0.3-0.8-0.5-1.6,0.3-2.3c0.9,0.1,0.8,0.7,0.7,1.3C365.7,568,365.4,568.5,364.8,568.5z"/>
	<path d="M361.2,629.8c-0.8-0.4-0.4-0.9-0.1-1.5C362.1,628.8,362.3,629.2,361.2,629.8z"/>
	<path d="M395.6,332.4c1.1,0.9,2,1.6,2.8,2.3c-1.6,2-3.3,1.5-5.1,0.7C392.6,333.2,394.3,333,395.6,332.4z"/>
	<path d="M377,333.6c0-1.5,0-3,0-5.1C378.1,330.7,377.8,332.3,377,333.6z"/>
	<path d="M440.9,352.4c-0.1-1.1,0.4-1.5,1.6-1.5C442.3,351.8,442,352.4,440.9,352.4z"/>
	<path d="M378.3,349.3c1.1,0.2,0.6,1.1,0.9,1.7C378.2,350.7,378.4,349.9,378.3,349.3L378.3,349.3z"/>
	<path d="M378.4,349.3c-1-0.5-0.8-1.3-0.5-2.3C378.3,347.8,378.4,348.5,378.4,349.3L378.4,349.3z"/>
	<path d="M397.6,266.3c0.6-0.2,0.9-0.4,1-0.3c5.4,3.8,11.7,5.3,17.9,6.5c3.3,0.6,7,0.3,10.4-0.5c5.3-1.3,10.7-2.4,15.6-5.5
		c0.2,1.4-0.6,1.8-1.4,2.2c-4.3,2.4-8.7,4.3-13.4,5.5c-1.9,0.5-3.8,0.6-5.7,0.3c-5.3-0.8-10.6-1.4-15.7-3.1
		C403.2,270.4,400,269.3,397.6,266.3z"/>
	<path d="M444.2,263.9c0.1-1.2,0.6-1.7,1.5-2C445.8,263,445.4,263.5,444.2,263.9z"/>
	<path d="M476.1,298.6c0.4-3.3,0.7-6.6,1.1-10.3c2.4,2.8,1.8,6.8-1.2,10.2L476.1,298.6z"/>
	<path d="M452.1,241.2c-1.5-0.7-2.7-1.7-3-3.9C451.4,238.1,451.7,239.7,452.1,241.2z"/>
	<path d="M481.1,297.4c1,2.7,1,2.7-0.2,5.3C480.6,301.1,480.6,299.6,481.1,297.4z"/>
	<path d="M476,298.5c-0.1,1.2-0.5,2.2-2,2.8c0.1-1.5,0.2-2.8,2.1-2.7L476,298.5z"/>
	<path d="M441.6,224.8c1.4,0.4,1.7,1.3,2,2.1c-0.2,0.3-0.4,0.5-0.4,0.4C442.2,226.8,441.6,226.1,441.6,224.8z"/>
	<path d="M441.6,398.1c1.2-0.9,1.9-0.1,2.8,0.6C443.1,399.5,442.3,399.3,441.6,398.1z"/>
	<path d="M454.6,208.6c0.2-1.5,0.7-2,1.9-1.9C456.4,208,455.4,207.9,454.6,208.6z"/>
	<path d="M444.9,393.5c0.6,1.2,0.3,1.9-0.2,2.7C443.6,395,444.3,394.4,444.9,393.5z"/>
	<path d="M443.6,229.5c1.7,1,1.8,1.6,1.1,2.3C443.1,231.6,444.1,230.6,443.6,229.5z"/>
	<path d="M450.8,389.7c0.1,0.2,0.4,0.4,0.4,0.6c0,0.4-0.3,0.6-0.7,0.4c-0.3-0.1-0.4-0.4-0.2-0.6
		C450.3,389.9,450.6,389.8,450.8,389.7z"/>
	<path d="M455.1,394.8c-0.6,0.5-1,0.3-1.3-0.5C454.5,393.5,454.8,393.9,455.1,394.8z"/>
	<path d="M478.8,309.6c-0.4-0.6,0.1-0.9,0.4-1.3C479.9,309,479.1,309.2,478.8,309.6z"/>
	<path d="M399.7,406c1.9,0.6,2.7,1.2,3.6,2.6C401.4,408.5,400.8,407.5,399.7,406z"/>
	<path d="M455.9,675c-2.8,3.2-5.7,3.4-11.2,1.2C446.7,674.5,452.1,673.8,455.9,675z"/>
	<path d="M478.5,680.1c-0.8-2.7-0.6-5.2,1.5-7.7C480.2,675.2,479.9,677.2,478.5,680.1z"/>
	<path d="M369.2,374.9c-0.6,0-1.1,0.1-1.7,0.1c0,0-0.1-0.2-0.2-0.3c0.6-1.1,1.7-1,2.6-0.9c0.8,0.3,1.3,0.9,1.8,1.5
		c4,5.4,6,11.4,6,18.2c0,5.1-0.2,10.3-1.3,15.2c-1.1,5-3.4,9.6-6.4,13.8c-0.7,1-1.8,1.3-2.9,2c-1.4-0.7-3-1.3-4-3.2
		c1.5,0.4,2.2,1.7,4.2,1.7c0.4,0,1.1-0.6,1.5-1.4c3.4-6.2,6.4-12.5,6.7-19.7c0.1-1.9,0.2-3.8,0.4-5.7
		C376.8,388.2,374.5,381.1,369.2,374.9z"/>
	<path d="M369.9,392.6c2.4,4.6,2.1,8.4-1.2,13.4c-2.3,0.5-3.5-0.9-4.4-2.7c-1.5-3.2-1.5-6.4,0.4-9.5
		C365.7,392.2,366.9,391.9,369.9,392.6z M368,394.1c-3.5,2-3.7,7-0.7,10.3c2.3-2.9,2.5-3.8,1.6-8.8c-0.7-0.4-1.3,0.9-2,0
		C367.3,395.2,367.7,394.6,368,394.1z"/>
	<path d="M484.9,392.1c3.2,1.7,2.9,4.1,2.9,6.1c0,3.3,0.4,6.9-2.1,9.6c-3.1-0.1-3-2.5-3.2-4.2C482.1,399.6,482,395.6,484.9,392.1z
		 M484.8,405.6c1.7-3.6,1.8-7.6,0.3-10.8c-1.1,1.9,0.3,3.7,0.3,5.5C485.4,402.1,483.7,403.6,484.8,405.6z"/>
	<path d="M427.7,111.1c-0.2-1.3,0.3-1.7,1.8-1.5c-0.8,0.5-1.4,1-1.9,1.4L427.7,111.1z"/>
	<path fill="none" d="M731.8,408.9c-0.9,0.3-1.3-0.7-2.1-0.2c-1,0.4,0.3,1.3-0.3,2c-1.1,0.3-1.9-0.3-2.4-1.2c-0.9-1.7-0.2-3,2.4-4.2
		C731,405.8,732.2,406.7,731.8,408.9z"/>
	<path fill="none" d="M712.8,405c-0.7,2-1.9,1.4-2.9,1.3c-0.8-0.8-0.9-1.5-0.2-2.2C710.7,403.7,711.8,403.9,712.8,405z"/>
	<path fill="none" d="M719.5,410.2c-1.6-0.4-2.6-1.3-2.6-2.9c0-1.7,1.3-2.3,2.6-2.7c1.6,0.3,2.8,1.1,2.8,2.7
		C722.3,408.8,721.4,409.8,719.5,410.2z"/>
	<path fill="none" d="M855.6,216.9c0.8,3.2,1.9,6.4-0.6,9.3c-3.4-3.3-3.8-6.7-1.4-10.9c1.9,0.5-0.8,1.7,0.3,2.3
		C854.3,217.5,854.8,217.2,855.6,216.9z"/>
	<path fill="none" d="M689.3,231.6c1.6,3.7,0.9,7-0.8,10.2C689,238.4,689.7,235,689.3,231.6z"/>
	<path fill="none" d="M368,394.1c-0.3,0.5-0.7,1-1,1.5c0.7,0.9,1.3-0.4,2,0c0.8,5,0.7,5.9-1.6,8.8
		C364.3,401.1,364.5,396.2,368,394.1z M366.4,398.9c0.8-0.2,1.3-0.5,0.7-1.4C366.1,397.5,366,398.1,366.4,398.9z"/>
	<path fill="none" d="M484.8,405.6c-1.1-2,0.6-3.5,0.6-5.4c0-1.8-1.4-3.5-0.3-5.5C486.6,398,486.5,402,484.8,405.6z"/>
	<path d="M366.4,398.9c-0.4-0.8-0.3-1.4,0.7-1.4C367.7,398.4,367.2,398.7,366.4,398.9z"/>
</g>
</svg>
