<?xml version="1.0" encoding="UTF-8"?>
<!DOCTYPE svg PUBLIC "-//W3C//DTD SVG 1.1//EN" "http://www.w3.org/Graphics/SVG/1.1/DTD/svg11.dtd">
<!-- Creator: CorelDRAW X7 -->
<svg xmlns="http://www.w3.org/2000/svg" xml:space="preserve" width="2.83333in" height="3.16666in" version="1.1" style="shape-rendering:geometricPrecision; text-rendering:geometricPrecision; image-rendering:optimizeQuality; fill-rule:evenodd; clip-rule:evenodd"
viewBox="0 0 2833 3167"
 xmlns:xlink="http://www.w3.org/1999/xlink">
 <defs>
  <style type="text/css">
   <![CDATA[
    .str0 {stroke:#FEFEFE;stroke-width:13.8858}
    .fil1 {fill:none}
    .fil0 {fill:#FEFEFE}
   ]]>
  </style>
   <clipPath id="id0">
    <rect x="707" y="3240" width="1420" height="260"/>
   </clipPath>
 </defs>
 <g id="Layer_x0020_1">
  <metadata id="CorelCorpID_0Corel-Layer"/>
  <g style="clip-path:url(#id0)">
   <image x="707" y="3240" width="1420" height="260" xlink:href="dlogo_stick_Images/dlogo_stick_ImgID1.png"/>
  </g>
  <path class="fil0" d="M2796 1256c-3,-1 -8,-1 -14,-2 -12,-1 -29,-4 -52,-8 -22,-3 -49,-8 -79,-15 -16,-3 -32,-7 -49,-11 -9,-2 -17,-5 -26,-7 -5,-1 -9,-2 -14,-3 -4,-1 -9,-3 -14,-4 -4,-1 -9,-3 -14,-4 -4,-1 -9,-3 -14,-4 -9,-3 -19,-6 -29,-9 -20,-6 -40,-12 -61,-19 -21,-7 -42,-15 -63,-23 -6,-2 -11,-4 -17,-6 -2,-1 -5,-2 -8,-3 -2,-1 -5,-2 -8,-3 -5,-2 -11,-4 -16,-7 -6,-2 -11,-4 -17,-6 -44,-19 -88,-39 -132,-61 -3,-2 -6,-3 -9,-5 -2,-1 -5,-3 -8,-4 -5,-3 -11,-6 -16,-9 -3,-1 -6,-3 -9,-4 -2,-2 -5,-3 -8,-5 -2,-1 -5,-3 -8,-4 -3,-2 -5,-3 -8,-5 -6,-3 -11,-6 -16,-9l-9 -4 -8 -5c-5,-3 -10,-7 -16,-10 -5,-3 -10,-6 -16,-10l-8 -5c-2,-1 -5,-3 -7,-4 -6,-4 -11,-7 -16,-11l-8 -5c-3,-1 -5,-3 -8,-5 -5,-3 -10,-7 -15,-10 -5,-4 -10,-7 -15,-11 -5,-3 -10,-7 -15,-10 -5,-4 -10,-8 -15,-11 -3,-2 -5,-4 -8,-6 -2,-1 -4,-3 -7,-5 -39,-29 -75,-60 -109,-90 -34,-31 -65,-62 -93,-93 -4,-4 -7,-8 -10,-11 -2,-2 -4,-4 -6,-6 -1,-2 -3,-4 -5,-6 -6,-7 -13,-15 -19,-22 -1,-2 -3,-4 -5,-6 -1,-2 -3,-4 -4,-5 -3,-4 -6,-8 -9,-11 -6,-8 -12,-15 -17,-22 -11,-14 -21,-28 -31,-41 -1,-2 -2,-4 -3,-5 -1,-2 -3,-3 -4,-5 -2,-3 -4,-7 -6,-10 -3,-3 -5,-6 -7,-9 0,-1 -1,-2 -1,-2 -1,-1 -1,-2 -2,-3 -1,-1 -2,-3 -3,-4 -8,-13 -15,-24 -22,-35 -3,-5 -6,-10 -9,-15 -1,-1 -2,-2 -2,-3 -1,-1 -1,-2 -2,-2 0,-1 0,-1 -1,-2 -1,-2 -2,-4 -3,-7 -5,-8 -10,-16 -13,-22 -5,-8 -8,-15 -11,-20 -6,-11 -9,-16 -9,-16l-93 -168 -93 168c0,0 -4,5 -9,16 -3,5 -7,12 -11,20 -4,6 -8,14 -13,22 -2,3 -3,5 -4,7 0,1 -1,1 -1,2 0,0 -1,1 -1,2 -1,1 -2,2 -2,3 -3,5 -7,10 -10,15 -6,11 -14,22 -22,35 -1,1 -2,3 -3,4 0,1 -1,2 -1,3 -1,0 -1,1 -2,2 -2,3 -4,6 -6,9 -3,3 -5,7 -7,10 -1,2 -2,3 -3,5 -2,1 -3,3 -4,5 -10,13 -20,27 -31,41 -5,7 -11,14 -17,22 -3,3 -6,7 -9,11 -1,1 -3,3 -4,5 -2,2 -3,4 -5,6 -6,7 -13,15 -19,22 -2,2 -3,4 -5,6 -2,2 -4,4 -5,6 -4,3 -7,7 -11,11 -28,31 -59,62 -93,93 -33,30 -70,61 -109,90 -2,2 -5,4 -7,5 -3,2 -5,4 -8,6 -4,3 -9,7 -14,11 -5,3 -10,7 -15,10 -5,4 -10,7 -16,11 -5,3 -10,7 -15,10 -3,2 -5,4 -8,5l-8 5c-5,4 -10,7 -15,11 -3,1 -5,3 -8,4l-8 5c-5,4 -11,7 -16,10 -5,3 -11,7 -16,10l-8 5 -8 4c-6,3 -11,6 -17,9 -2,2 -5,3 -8,5 -2,1 -5,3 -8,4 -3,2 -5,3 -8,5 -3,1 -6,3 -8,4 -6,3 -11,6 -17,9 -3,1 -5,3 -8,4 -3,2 -6,3 -8,5 -45,22 -89,42 -133,61 -5,2 -11,4 -16,6 -6,3 -11,5 -17,7 -2,1 -5,2 -8,3 -3,1 -5,2 -8,3 -5,2 -11,4 -16,6 -22,8 -43,16 -64,23 -20,7 -41,13 -61,19 -9,3 -19,6 -29,9 -5,1 -9,3 -14,4 -5,1 -9,3 -14,4 -5,1 -9,3 -14,4 -4,1 -9,2 -13,3 -9,2 -18,5 -27,7 -17,4 -33,8 -48,11 -31,7 -58,12 -80,15 -22,4 -40,7 -52,8 -6,1 -10,1 -14,2 -3,0 -4,0 -4,0 0,0 1,0 4,1 4,0 8,0 14,0 12,1 30,1 53,1 23,0 50,-1 82,-3 16,-1 33,-2 51,-3 8,-1 18,-2 27,-2 5,-1 9,-1 14,-2 5,0 10,-1 15,-1 4,-1 9,-1 14,-2 5,0 10,-1 15,-2 11,-1 21,-2 31,-3 21,-3 43,-6 65,-10 23,-4 45,-8 69,-13 5,-1 11,-2 17,-3 3,-1 6,-2 9,-2 3,-1 6,-2 9,-2 6,-1 12,-3 18,-4 6,-1 12,-3 18,-4 48,-12 98,-25 147,-41 4,-1 7,-2 10,-3 3,-1 6,-2 9,-3 6,-2 13,-5 19,-7 3,-1 6,-2 9,-3 3,-1 7,-2 10,-3 3,-1 6,-2 9,-4 3,-1 6,-2 9,-3 7,-2 13,-5 19,-7l10 -3 9 -4c6,-3 12,-5 19,-7 6,-3 12,-6 18,-8l10 -4c3,-1 6,-3 9,-4 6,-3 12,-5 18,-8l10 -4c3,-1 6,-3 9,-4 6,-3 12,-6 18,-9 6,-2 12,-5 18,-8 6,-3 12,-6 18,-9 6,-3 12,-6 18,-9 3,-2 6,-3 9,-5 3,-1 6,-3 9,-4 47,-25 93,-52 136,-80 43,-28 83,-57 121,-86 4,-4 9,-8 13,-11 3,-2 5,-4 7,-6 2,-2 5,-4 7,-5 9,-8 18,-15 26,-22 2,-2 4,-4 6,-6 2,-2 5,-4 7,-5 4,-4 8,-8 12,-11 8,-7 16,-15 23,-22 16,-14 30,-28 44,-42 1,-1 3,-3 4,-5 2,-1 4,-3 5,-5 2,-1 3,-3 5,-4 1,1 3,3 4,4 2,2 3,4 5,5 1,2 3,4 5,5 13,14 28,28 43,42 8,7 15,15 23,22 5,3 9,7 13,11 2,1 4,3 6,5 2,2 4,4 6,6 9,7 18,14 26,22 3,1 5,3 7,5 2,2 5,4 7,6 5,3 9,7 14,11 37,29 78,58 121,86 43,28 88,55 135,80 3,1 6,3 9,4 3,2 6,3 9,5 6,3 12,6 18,9 6,3 12,6 18,9 6,3 12,6 18,8 6,3 13,6 19,9 3,1 6,3 9,4l9 4c6,3 12,5 19,8 3,1 6,3 9,4l9 4c6,2 12,5 19,8 6,2 12,4 18,7l10 4 9 3c6,2 13,5 19,7 3,1 6,2 9,3 3,2 6,3 10,4 3,1 6,2 9,3 3,1 6,2 9,3 7,2 13,5 19,7 3,1 6,2 9,3 4,1 7,2 10,3 50,16 99,29 148,41 6,1 12,3 18,4 6,1 11,3 17,4 3,0 6,1 9,2 3,0 6,1 9,2 6,1 12,2 18,3 23,5 46,9 68,13 22,4 44,7 65,10 11,1 21,2 31,3 5,1 10,2 15,2 5,1 10,1 15,2 5,0 10,1 14,1 5,1 10,1 14,2 10,0 19,1 28,2 18,1 34,2 50,3 32,2 60,3 82,3 23,0 41,0 53,-1 6,0 11,0 14,0 3,-1 5,-1 5,-1 0,0 -2,0 -5,0z"/>
  <g id="_2060492380224">
   <path class="fil0" d="M1985 844c-5,-27 -11,-54 -19,-79 0,5 1,9 2,14 0,2 2,3 2,4 3,21 9,41 15,61z"/>
   <path class="fil0" d="M1966 765c8,25 14,52 19,79 4,10 8,21 12,31 1,-8 2,-15 3,-22 -8,-50 -22,-98 -40,-143 0,12 1,24 3,36 1,6 2,13 3,19z"/>
   <path class="fil0" d="M1960 710c18,45 32,93 40,143 2,-12 4,-23 7,-34 -11,-50 -27,-98 -48,-143 0,12 0,23 1,34z"/>
   <path class="fil0" d="M1959 676c21,45 37,93 48,143 2,-10 4,-19 7,-28 -13,-50 -31,-97 -53,-142 -1,9 -1,18 -2,27z"/>
   <path class="fil0" d="M1961 649c22,45 40,92 53,142 2,-8 4,-16 7,-24 -14,-49 -34,-97 -58,-141 -1,7 -1,13 -2,20 0,1 0,2 0,3zm84 246c-1,-7 -1,-14 -2,-22 -1,9 -2,17 -3,25l0 0c2,-1 4,-2 5,-3z"/>
   <path class="fil0" d="M1963 626c24,44 44,92 58,141 2,-7 5,-14 7,-21 -15,-50 -36,-97 -62,-141 -1,7 -2,14 -3,21zm80 247c1,8 1,15 2,22 4,-3 8,-6 12,-9 -2,-20 -4,-38 -8,-57 -2,15 -5,29 -6,44z"/>
   <path class="fil0" d="M1966 605c26,44 47,91 62,141 3,-7 5,-14 8,-20 -17,-49 -39,-97 -66,-141 -1,7 -2,13 -4,20zm83 224c4,19 6,37 8,57 3,-3 5,-5 8,-7 2,-1 3,-2 4,-3 -3,-27 -7,-53 -13,-79 -3,10 -5,21 -7,32z"/>
   <path class="fil0" d="M1970 585c27,44 49,92 66,141 2,-6 4,-12 7,-18 -18,-50 -41,-96 -68,-140 -1,4 -3,8 -4,12 0,2 0,4 -1,5zm86 212c6,26 10,52 13,79 5,-3 9,-6 13,-9 -5,-33 -11,-65 -19,-97 -3,9 -5,18 -7,27z"/>
   <path class="fil0" d="M1975 568c27,44 50,90 68,140 2,-6 5,-12 7,-17 -18,-50 -42,-97 -71,-140 -1,5 -3,11 -4,17zm88 202c8,32 14,64 19,97 2,-2 4,-4 6,-6 2,-2 4,-3 5,-4 -5,-38 -13,-75 -24,-111 -1,3 -2,6 -3,10 -1,2 -1,6 -2,8 0,2 -1,4 -1,6z"/>
   <path class="fil0" d="M1979 551c29,43 53,90 71,140l1 -1c2,-5 5,-11 7,-16 -20,-49 -45,-96 -74,-140 -2,6 -3,11 -5,17zm90 195c11,36 19,73 24,111 4,-4 8,-6 12,-9 -6,-42 -16,-83 -28,-122 -3,6 -5,13 -8,20z"/>
   <path class="fil0" d="M1984 534c29,44 54,91 74,140l0 0c3,-5 5,-10 8,-15 -21,-49 -46,-96 -76,-140 -1,2 -1,4 -2,5 -1,4 -3,7 -4,10zm93 192c12,39 22,80 28,122l1 -1c4,-3 7,-6 11,-9 -7,-45 -18,-89 -33,-132 -2,7 -5,13 -7,20z"/>
   <path class="fil0" d="M1990 519c30,44 55,91 76,140 3,-5 5,-9 8,-14 -21,-50 -48,-96 -78,-140 -2,5 -4,10 -6,14zm94 187c15,43 26,87 33,132 4,-3 8,-6 12,-9 -8,-49 -21,-96 -37,-141 -3,6 -6,12 -8,18z"/>
   <path class="fil0" d="M1996 505c30,44 57,90 78,140 3,-5 6,-9 8,-14 -22,-50 -49,-97 -80,-140 -2,3 -3,6 -5,9 0,2 -1,3 -1,5zm96 183c16,45 29,92 37,141 4,-4 7,-7 11,-10 -9,-51 -23,-100 -41,-147 -2,5 -5,11 -7,16z"/>
   <path class="fil0" d="M2002 491c31,43 58,90 80,140 3,-4 6,-9 9,-13 -23,-50 -51,-97 -83,-140 -2,4 -4,8 -6,13zm97 181c18,47 32,96 41,147 4,-3 8,-6 12,-10 -10,-53 -25,-104 -45,-153 -3,5 -5,10 -8,16z"/>
   <path class="fil0" d="M2008 478c32,43 60,90 83,140 3,-4 5,-9 8,-13 -23,-50 -52,-97 -84,-141 -2,3 -3,6 -4,9 -1,1 -2,3 -3,5zm99 178c20,49 35,100 45,153 4,-3 7,-6 11,-9 -11,-55 -27,-109 -48,-159 -3,5 -5,10 -8,15z"/>
   <path class="fil0" d="M2015 464c32,44 61,91 84,141 3,-4 6,-8 9,-12 -24,-50 -53,-97 -86,-141 -3,4 -5,8 -7,12zm100 177c21,50 37,104 48,159 4,-4 8,-7 12,-10 -12,-57 -29,-112 -52,-164l0 1c-3,4 -5,9 -8,14z"/>
   <path class="fil0" d="M2022 452c33,44 62,91 86,141 3,-4 6,-8 9,-12 -25,-50 -54,-97 -88,-141 0,1 -1,3 -2,4 -2,3 -4,5 -5,8zm101 174c23,52 40,107 52,164 4,-3 7,-6 11,-10 -13,-58 -31,-114 -55,-167 -2,4 -5,9 -8,13z"/>
   <path class="fil0" d="M2029 440c34,44 63,91 88,141 3,-4 5,-8 8,-12l0 0c-25,-50 -55,-97 -89,-142 -2,3 -4,6 -5,9 -1,1 -1,3 -2,4zm102 173c24,53 42,109 55,167 4,-3 8,-6 11,-9 -13,-60 -32,-117 -57,-171 -3,4 -6,8 -9,13z"/>
   <path class="fil0" d="M2036 427c34,45 64,92 89,142 3,-3 7,-7 10,-11 -26,-50 -56,-98 -91,-142 -3,4 -5,8 -8,11zm104 173c25,54 44,111 57,171 4,-4 8,-7 12,-10 -14,-61 -35,-119 -60,-174 -3,4 -6,8 -9,13z"/>
   <path class="fil0" d="M2044 416c35,44 65,92 91,142 3,-3 6,-7 9,-10 -26,-51 -57,-99 -92,-143 -1,1 -2,3 -3,4 -2,3 -3,5 -5,7zm105 171c25,55 46,113 60,174 3,-3 7,-6 11,-10 -15,-61 -36,-120 -63,-176 -3,4 -6,8 -8,12z"/>
   <path class="fil0" d="M2052 405c35,44 66,92 92,143 3,-4 6,-7 9,-11 -27,-50 -58,-98 -93,-143 -3,4 -5,7 -8,11zm105 170c27,56 48,115 63,176 3,-3 7,-6 11,-9 -16,-63 -37,-122 -65,-179 -3,4 -6,8 -9,12z"/>
   <path class="fil0" d="M2060 394c35,45 66,93 93,143 3,-3 6,-7 10,-10 -28,-51 -59,-99 -95,-144l-3 4c-1,2 -3,5 -5,7zm106 169c28,57 49,116 65,179 3,-4 7,-7 11,-10 -16,-63 -39,-123 -67,-180 -3,4 -6,8 -9,11z"/>
   <path class="fil0" d="M2068 383c36,45 67,93 95,144 2,-2 4,-4 6,-6 1,-1 2,-3 3,-4 -27,-51 -59,-99 -95,-144l-9 10zm107 169c28,57 51,117 67,180 3,-3 7,-7 11,-10 -17,-63 -40,-123 -68,-180 -1,0 -1,1 -1,1 -1,1 -3,2 -4,3 -1,2 -3,4 -5,6z"/>
   <path class="fil0" d="M2077 373c36,45 68,93 95,144 3,-3 7,-6 10,-9 -28,-51 -60,-100 -97,-145 -1,1 -1,2 -1,3l-7 7zm108 169c28,57 51,117 68,180l2 -2c3,-3 6,-5 9,-8 -17,-63 -41,-124 -70,-181 -3,4 -6,7 -9,11z"/>
   <path class="fil0" d="M2085 363c37,45 69,94 97,145 3,-3 7,-6 10,-9 -28,-52 -61,-101 -98,-146 -3,3 -6,6 -9,9 0,0 0,1 0,1zm109 168c29,57 53,118 70,181 3,-3 7,-7 11,-10 -18,-63 -42,-124 -71,-181 -4,3 -7,7 -10,10z"/>
   <path class="fil0" d="M2094 353c37,45 70,94 98,146 3,-3 7,-6 10,-9 -29,-52 -62,-101 -99,-147 -3,3 -6,7 -9,10zm110 168c29,57 53,118 71,181 3,-3 7,-6 10,-10 -18,-63 -42,-123 -72,-181 -3,3 -6,7 -9,10z"/>
   <path class="fil0" d="M2103 343c37,46 70,95 99,147 3,-3 7,-5 10,-8 -29,-53 -62,-102 -100,-148 -3,3 -6,6 -9,9zm110 168c30,58 54,118 72,181 4,-3 8,-6 11,-10 -18,-63 -43,-123 -73,-180 -3,3 -6,6 -10,9z"/>
   <path class="fil0" d="M2112 334c38,46 71,95 100,148 4,-3 7,-6 11,-9 -30,-52 -64,-102 -102,-149 -3,3 -6,6 -9,10zm111 168c30,57 55,117 73,180 4,-3 7,-6 11,-9 -19,-63 -44,-124 -74,-181 -3,3 -7,7 -10,10z"/>
   <path class="fil0" d="M2121 324c38,47 72,97 102,149 3,-2 7,-5 10,-8 -30,-53 -64,-103 -102,-150 -4,3 -7,6 -10,9zm112 168c30,57 55,118 74,181 3,-4 7,-7 10,-10 -19,-63 -44,-123 -74,-180 -2,2 -4,3 -5,5 -2,1 -4,3 -5,4z"/>
   <path class="fil0" d="M2131 315c38,47 72,97 102,150 4,-2 7,-5 11,-8 -30,-53 -65,-104 -104,-151 -3,3 -6,6 -9,9zm112 168c30,57 55,117 74,180 4,-4 8,-7 11,-11 -19,-61 -45,-121 -75,-177 -3,3 -7,6 -10,8z"/>
   <path class="fil0" d="M2140 306c39,47 74,98 104,151 3,-2 7,-5 10,-7 -30,-54 -65,-106 -105,-153 -3,3 -6,6 -9,9zm113 169c30,56 56,116 75,177 4,-3 7,-6 11,-10 -20,-61 -45,-120 -76,-176 -3,3 -6,6 -10,9z"/>
   <path class="fil0" d="M2149 297c40,47 75,99 105,153l2 -2c3,-1 3,-4 6,-6 1,0 2,-1 2,-1 -30,-54 -66,-106 -105,-153 -3,3 -6,6 -10,9zm114 169c31,56 56,115 76,176 3,-3 6,-6 10,-10 -20,-61 -45,-120 -76,-175 -3,3 -6,6 -10,9z"/>
   <path class="fil0" d="M2159 288c39,47 75,99 105,153 4,-3 7,-6 11,-9 -31,-54 -67,-105 -106,-153 -4,3 -7,6 -10,9zm114 169c31,55 56,114 76,175 3,-3 7,-7 10,-10 -20,-61 -46,-119 -76,-175 -3,4 -6,7 -10,10z"/>
   <path class="fil0" d="M2169 279c39,48 75,99 106,153 3,-3 6,-6 10,-9 -31,-54 -67,-105 -107,-153 -3,3 -6,6 -9,9zm114 168c30,56 56,114 76,175 4,-4 7,-7 11,-11 -21,-60 -47,-118 -77,-173 -3,3 -7,6 -10,9z"/>
   <path class="fil0" d="M2178 270c40,48 76,99 107,153 3,-3 6,-6 10,-9 -32,-54 -67,-105 -107,-153 -3,3 -6,6 -10,9zm115 168c30,55 56,113 77,173 1,-2 3,-3 4,-5 2,-2 3,-4 5,-6l0 -1c-21,-59 -46,-117 -77,-171 -3,3 -6,7 -9,10z"/>
   <path class="fil0" d="M2188 261c40,48 75,99 107,153 3,-3 6,-6 9,-9 -31,-54 -67,-105 -106,-152 -3,3 -7,6 -10,8zm114 167c31,54 56,112 77,171 4,-3 7,-7 10,-11 -21,-59 -47,-116 -78,-170 -3,3 -6,7 -9,10z"/>
   <path class="fil0" d="M2198 253c39,47 75,98 106,152 3,-3 7,-6 10,-10 -32,-53 -67,-104 -106,-151 -3,3 -7,6 -10,9zm113 165c31,54 57,111 78,170 4,-3 7,-7 10,-11 -21,-59 -48,-116 -78,-170 -3,4 -6,7 -10,11z"/>
   <path class="fil0" d="M2208 244c39,47 74,98 106,151 3,-3 6,-6 9,-10 -31,-52 -66,-103 -105,-149 -4,3 -7,5 -10,8zm113 163c30,54 57,111 78,170 3,-4 7,-8 10,-12 -22,-58 -49,-115 -79,-169 -3,4 -6,8 -9,11z"/>
   <path class="fil0" d="M2218 236c39,46 74,97 105,149 3,-3 6,-7 9,-10 -31,-52 -66,-102 -104,-148 -4,3 -7,6 -10,9zm112 160c30,54 57,111 79,169 3,-4 6,-8 9,-12 -22,-58 -49,-114 -80,-168 -3,4 -6,8 -8,11z"/>
   <path class="fil0" d="M2228 227c38,46 73,96 104,148 3,-4 6,-7 9,-11 -31,-51 -66,-100 -104,-145 -3,2 -6,5 -9,8zm110 158c31,54 58,110 80,168 3,-4 6,-8 9,-12 -22,-58 -49,-114 -80,-167 -3,4 -6,8 -9,11z"/>
   <path class="fil0" d="M2237 219c38,45 73,94 104,145l0 -1c1,-1 3,-2 4,-2 2,-3 3,-5 5,-7 -31,-51 -65,-99 -103,-144l-1 1 -9 8zm110 155c31,53 58,109 80,167 3,-4 6,-9 9,-13 -22,-58 -50,-113 -81,-165 -3,4 -5,7 -8,11z"/>
   <path class="fil0" d="M2247 210c38,45 72,93 103,144 3,-4 6,-7 9,-11 -31,-50 -65,-97 -102,-141 -3,2 -6,5 -10,8zm108 153c31,52 59,107 81,165 3,-5 6,-9 9,-13 -23,-57 -50,-112 -82,-164 -2,4 -5,8 -8,12z"/>
   <path class="fil0" d="M2257 202c37,44 71,91 102,141 2,-4 5,-8 8,-12 -30,-48 -63,-94 -99,-138l-11 9zm106 149c32,52 59,107 82,164 3,-5 6,-10 9,-14 -24,-57 -51,-111 -83,-163 -2,5 -5,9 -8,13z"/>
   <path class="fil0" d="M2268 193c36,44 69,90 99,138 0,0 1,-1 1,-2 2,-3 5,-6 7,-10 -30,-47 -62,-92 -97,-134l-10 8zm103 145c32,52 59,106 83,163 2,-5 5,-9 8,-14 -24,-56 -52,-110 -83,-161 -3,4 -5,8 -8,12z"/>
   <path class="fil0" d="M2278 185c35,42 67,87 97,134 2,-4 5,-7 8,-11 -29,-46 -61,-90 -95,-131l-10 8zm101 141c31,51 59,105 83,161 2,-3 4,-7 5,-10 1,-1 2,-3 3,-5 -24,-55 -52,-108 -84,-159 -2,5 -5,9 -7,13z"/>
   <path class="fil0" d="M2288 177c34,41 66,85 95,131l0 -1c1,-1 1,-2 2,-4 2,-3 3,-6 5,-8 -28,-44 -59,-87 -92,-127 -4,3 -7,6 -10,9zm98 136c32,51 60,104 84,159 3,-5 5,-10 8,-15 -25,-54 -53,-107 -84,-157 -3,5 -5,9 -8,13z"/>
   <path class="fil0" d="M2298 168c33,40 64,83 92,127 3,-5 5,-9 8,-13 -28,-42 -58,-83 -90,-122 -4,3 -7,6 -10,8zm96 132c31,50 59,103 84,157 2,-5 4,-11 7,-16 -25,-53 -53,-105 -84,-154 -3,4 -5,9 -7,13z"/>
   <path class="fil0" d="M2308 160c32,39 62,80 90,122 2,-4 5,-8 7,-13 -27,-41 -56,-80 -87,-117 -3,2 -7,5 -10,8zm93 127c31,49 59,101 84,154 2,-5 4,-11 6,-16 -24,-53 -52,-104 -84,-152 -2,5 -4,9 -6,14z"/>
   <path class="fil0" d="M2318 152c31,37 60,76 87,117 2,-4 5,-8 7,-13 -26,-39 -54,-77 -84,-113 -3,3 -7,6 -10,9zm89 121c32,48 60,99 84,152 3,-6 5,-12 7,-18 -25,-51 -53,-101 -84,-148 -2,5 -5,9 -7,14z"/>
   <path class="fil0" d="M2328 143c30,36 58,74 84,113 2,-4 4,-9 7,-13 -25,-38 -52,-74 -81,-108 -3,3 -7,6 -10,8zm86 116c31,47 59,97 84,148 2,-6 4,-12 5,-18 -24,-50 -52,-98 -83,-144 -2,4 -4,9 -6,14z"/>
   <path class="fil0" d="M2338 135c29,34 56,70 81,108 2,-5 4,-9 6,-14 -24,-35 -50,-70 -77,-102 -3,2 -7,5 -10,8zm82 110c31,46 59,94 83,144 2,-6 4,-13 5,-19 -24,-49 -52,-95 -82,-140 -2,5 -4,10 -6,15z"/>
   <path class="fil0" d="M2348 127c27,32 53,67 77,102 2,-5 4,-10 6,-14 -23,-34 -47,-66 -73,-97 -3,3 -6,6 -10,9zm78 103c30,45 58,91 82,140 2,-6 4,-13 5,-20 -25,-47 -52,-92 -82,-135 -2,5 -3,10 -5,15z"/>
   <path class="fil0" d="M2358 118c26,31 50,63 73,97l1 -2c0,1 -1,1 -1,2 30,43 57,88 82,135 1,-6 3,-13 4,-20 -42,-78 -92,-152 -148,-220 -4,3 -7,6 -11,8z"/>
   <path class="fil0" d="M2369 110c56,68 106,142 148,220 1,-4 1,-8 2,-11 0,-2 0,-4 0,-5 0,-2 0,-4 1,-6 -41,-73 -88,-142 -141,-206 -4,3 -7,5 -10,8z"/>
   <path class="fil0" d="M2379 102c53,64 100,133 141,206 1,-8 1,-15 2,-23 -39,-68 -83,-131 -133,-191 -3,2 -6,5 -9,7l-1 1z"/>
   <path class="fil0" d="M2389 94c50,60 94,123 133,191 1,-8 1,-16 1,-24 -37,-62 -78,-120 -124,-175 -3,2 -7,5 -10,8z"/>
   <path class="fil0" d="M2399 86c46,55 87,113 124,175 0,-8 0,-17 0,-26 -34,-55 -72,-108 -113,-157 -4,2 -7,5 -11,8z"/>
   <path class="fil0" d="M2410 78c41,49 79,102 113,157 -1,-7 -1,-15 -2,-22 0,-2 0,-4 0,-5 -31,-48 -65,-94 -101,-138 -3,2 -7,5 -10,8z"/>
   <path class="fil0" d="M2420 70c36,44 70,90 101,138 -1,-5 -1,-10 -1,-15 -1,-4 -2,-9 -2,-14 -27,-40 -56,-80 -87,-117 -4,3 -7,5 -11,8z"/>
   <path class="fil0" d="M2431 62c31,37 60,77 87,117 -2,-10 -4,-21 -6,-31 -22,-33 -46,-64 -71,-94 -3,3 -7,5 -10,8z"/>
   <path class="fil0" d="M2441 54c25,30 49,61 71,94 -2,-8 -3,-15 -5,-22 -2,-5 -3,-10 -5,-15 -16,-22 -33,-43 -50,-64 -4,2 -7,5 -11,7z"/>
   <path class="fil0" d="M2452 47c17,21 34,42 50,64 -4,-14 -9,-27 -15,-41 -8,-10 -16,-21 -25,-31 -3,2 -7,5 -10,8z"/>
   <path class="fil0" d="M2462 39c9,10 17,21 25,31 -5,-12 -10,-25 -16,-37 -3,2 -6,4 -9,6z"/>
  </g>
  <g>
   <path class="fil1 str0" d="M627 2056c-38,-13 -73,-23 -104,-29 -32,-8 -56,-11 -73,-11 -13,0 -23,3 -31,9 -8,5 -12,13 -12,23 0,15 8,27 24,35 15,8 38,12 66,12 19,0 39,-3 61,-10 21,-6 45,-16 69,-29zm1499 -209c-22,22 -44,46 -67,72 -11,13 -20,22 -27,29 -1,4 -5,9 -10,15 -7,9 -24,26 -49,53 -35,34 -65,59 -91,74 -27,15 -52,23 -76,23 -29,0 -53,-12 -72,-36 -19,-24 -29,-55 -29,-92 0,-8 1,-16 2,-24 1,-8 3,-17 5,-26 -6,8 -10,14 -14,18 -2,2 -4,5 -7,9 -7,8 -22,24 -45,48 -39,40 -69,68 -90,82 -20,14 -38,21 -54,21 -19,0 -35,-7 -46,-20 -12,-14 -18,-32 -18,-55 0,-30 27,-86 82,-168 6,-10 11,-17 14,-23 -22,22 -44,46 -67,72 -24,27 -38,40 -42,40 -1,0 -2,0 -3,-1 -1,0 -1,-1 -1,-3 0,-5 13,-22 39,-52 26,-30 63,-70 111,-119l85 -6 -118 184c-25,40 -41,66 -47,80 -7,13 -10,24 -10,32 0,6 2,11 6,15 4,5 8,7 14,7 15,0 32,-8 54,-23 21,-16 49,-42 84,-80 7,-7 15,-17 26,-28 10,-12 18,-20 23,-24 2,-2 3,-4 5,-6 8,-10 19,-23 34,-39 36,-39 73,-70 110,-91 37,-21 72,-31 106,-31 20,0 35,5 47,15 12,10 18,23 18,39 0,33 -21,65 -65,95 -43,30 -100,54 -173,70 -2,15 -3,25 -4,31 -1,7 -1,12 -1,17 0,17 4,30 12,40 8,9 20,14 35,14 20,0 41,-7 64,-20 23,-13 50,-35 81,-66 14,-13 27,-28 42,-45 8,-9 15,-16 19,-20 10,-14 31,-38 64,-72 46,-47 79,-85 98,-115l52 -77 -58 0 10 -16 58 0 72 -115 77 -6 -76 121 136 0 -9 16 -137 0 -177 282c-19,30 -33,54 -42,73 -9,18 -13,31 -13,39 0,6 2,11 6,15 4,5 9,7 14,7 14,0 31,-7 51,-22 20,-14 49,-41 88,-81 8,-8 18,-19 29,-32 13,-15 21,-22 25,-22 2,0 3,0 5,1 1,2 2,3 2,5 0,3 -4,9 -10,17 -7,8 -21,24 -44,48 -40,40 -70,68 -91,82 -20,14 -38,21 -54,21 -19,0 -34,-7 -46,-20 -12,-14 -18,-32 -18,-55 0,-30 27,-86 82,-168 6,-10 11,-17 14,-23zm-349 128c52,-12 98,-35 135,-68 38,-34 57,-66 57,-96 0,-6 -2,-12 -6,-16 -4,-5 -9,-7 -15,-7 -25,0 -56,18 -90,54 -35,36 -62,80 -81,133zm-98 -382c0,-13 5,-25 16,-36 10,-12 21,-17 33,-17 10,0 17,3 23,9 6,6 9,15 9,24 0,14 -5,26 -15,37 -9,11 -20,17 -32,17 -10,0 -18,-3 -24,-10 -7,-6 -10,-15 -10,-24zm-936 418c73,12 134,21 181,27 48,6 87,9 117,9 102,0 187,-31 254,-92 67,-62 100,-137 100,-227 0,-61 -17,-120 -52,-176 -36,-57 -87,-109 -155,-158 -44,51 -93,126 -147,226 -54,100 -95,169 -123,207 12,1 23,3 34,3 10,1 19,2 27,2 51,0 96,-12 137,-35 40,-23 69,-54 87,-92 3,-7 7,-17 11,-29 5,-18 12,-28 19,-28 2,1 4,2 6,4 1,2 2,5 2,8 0,10 -4,24 -12,43 -9,19 -19,36 -31,52 -27,35 -62,63 -107,83 -45,21 -93,31 -144,31 -6,0 -14,0 -24,0 -10,-1 -21,-2 -35,-3 -19,26 -39,50 -63,74 -24,24 -51,47 -82,71zm142 -194c21,-35 52,-85 91,-151 82,-137 145,-231 190,-283 -44,-30 -90,-51 -138,-66 -48,-15 -98,-22 -148,-22 -72,0 -128,19 -169,58 -41,38 -61,91 -61,158 0,68 21,130 65,186 43,57 99,97 170,120zm-29 42c-75,-20 -136,-57 -181,-111 -44,-54 -67,-117 -67,-188 0,-92 32,-167 95,-227 63,-59 145,-89 243,-89 48,0 94,7 138,21 45,14 90,36 135,65 33,-26 54,-43 64,-50 10,-7 17,-10 22,-10 3,0 5,1 7,2 2,2 3,4 3,6 0,4 -9,14 -27,28 -18,14 -34,27 -47,39 64,52 111,105 142,160 31,55 47,114 47,178 0,51 -11,102 -32,152 -21,50 -51,94 -90,134 -45,45 -99,80 -163,106 -64,25 -131,38 -200,38 -27,0 -60,-4 -99,-10 -39,-7 -100,-20 -184,-40 -31,17 -61,30 -89,38 -27,8 -55,12 -81,12 -33,0 -60,-6 -80,-19 -20,-13 -30,-30 -30,-50 0,-22 10,-38 29,-49 20,-11 48,-17 86,-17 25,0 54,2 89,7 36,5 79,12 130,23 28,-20 53,-42 76,-67 24,-24 45,-52 64,-82z"/>
   <path id="1" class="fil0" d="M627 2056c-38,-13 -73,-23 -104,-29 -32,-8 -56,-11 -73,-11 -13,0 -23,3 -31,9 -8,5 -12,13 -12,23 0,15 8,27 24,35 15,8 38,12 66,12 19,0 39,-3 61,-10 21,-6 45,-16 69,-29zm1499 -209c-22,22 -44,46 -67,72 -11,13 -20,22 -27,29 -1,4 -5,9 -10,15 -7,9 -24,26 -49,53 -35,34 -65,59 -91,74 -27,15 -52,23 -76,23 -29,0 -53,-12 -72,-36 -19,-24 -29,-55 -29,-92 0,-8 1,-16 2,-24 1,-8 3,-17 5,-26 -6,8 -10,14 -14,18 -2,2 -4,5 -7,9 -7,8 -22,24 -45,48 -39,40 -69,68 -90,82 -20,14 -38,21 -54,21 -19,0 -35,-7 -46,-20 -12,-14 -18,-32 -18,-55 0,-30 27,-86 82,-168 6,-10 11,-17 14,-23 -22,22 -44,46 -67,72 -24,27 -38,40 -42,40 -1,0 -2,0 -3,-1 -1,0 -1,-1 -1,-3 0,-5 13,-22 39,-52 26,-30 63,-70 111,-119l85 -6 -118 184c-25,40 -41,66 -47,80 -7,13 -10,24 -10,32 0,6 2,11 6,15 4,5 8,7 14,7 15,0 32,-8 54,-23 21,-16 49,-42 84,-80 7,-7 15,-17 26,-28 10,-12 18,-20 23,-24 2,-2 3,-4 5,-6 8,-10 19,-23 34,-39 36,-39 73,-70 110,-91 37,-21 72,-31 106,-31 20,0 35,5 47,15 12,10 18,23 18,39 0,33 -21,65 -65,95 -43,30 -100,54 -173,70 -2,15 -3,25 -4,31 -1,7 -1,12 -1,17 0,17 4,30 12,40 8,9 20,14 35,14 20,0 41,-7 64,-20 23,-13 50,-35 81,-66 14,-13 27,-28 42,-45 8,-9 15,-16 19,-20 10,-14 31,-38 64,-72 46,-47 79,-85 98,-115l52 -77 -58 0 10 -16 58 0 72 -115 77 -6 -76 121 136 0 -9 16 -137 0 -177 282c-19,30 -33,54 -42,73 -9,18 -13,31 -13,39 0,6 2,11 6,15 4,5 9,7 14,7 14,0 31,-7 51,-22 20,-14 49,-41 88,-81 8,-8 18,-19 29,-32 13,-15 21,-22 25,-22 2,0 3,0 5,1 1,2 2,3 2,5 0,3 -4,9 -10,17 -7,8 -21,24 -44,48 -40,40 -70,68 -91,82 -20,14 -38,21 -54,21 -19,0 -34,-7 -46,-20 -12,-14 -18,-32 -18,-55 0,-30 27,-86 82,-168 6,-10 11,-17 14,-23zm-349 128c52,-12 98,-35 135,-68 38,-34 57,-66 57,-96 0,-6 -2,-12 -6,-16 -4,-5 -9,-7 -15,-7 -25,0 -56,18 -90,54 -35,36 -62,80 -81,133zm-98 -382c0,-13 5,-25 16,-36 10,-12 21,-17 33,-17 10,0 17,3 23,9 6,6 9,15 9,24 0,14 -5,26 -15,37 -9,11 -20,17 -32,17 -10,0 -18,-3 -24,-10 -7,-6 -10,-15 -10,-24zm-936 418c73,12 134,21 181,27 48,6 87,9 117,9 102,0 187,-31 254,-92 67,-62 100,-137 100,-227 0,-61 -17,-120 -52,-176 -36,-57 -87,-109 -155,-158 -44,51 -93,126 -147,226 -54,100 -95,169 -123,207 12,1 23,3 34,3 10,1 19,2 27,2 51,0 96,-12 137,-35 40,-23 69,-54 87,-92 3,-7 7,-17 11,-29 5,-18 12,-28 19,-28 2,1 4,2 6,4 1,2 2,5 2,8 0,10 -4,24 -12,43 -9,19 -19,36 -31,52 -27,35 -62,63 -107,83 -45,21 -93,31 -144,31 -6,0 -14,0 -24,0 -10,-1 -21,-2 -35,-3 -19,26 -39,50 -63,74 -24,24 -51,47 -82,71zm142 -194c21,-35 52,-85 91,-151 82,-137 145,-231 190,-283 -44,-30 -90,-51 -138,-66 -48,-15 -98,-22 -148,-22 -72,0 -128,19 -169,58 -41,38 -61,91 -61,158 0,68 21,130 65,186 43,57 99,97 170,120zm-29 42c-75,-20 -136,-57 -181,-111 -44,-54 -67,-117 -67,-188 0,-92 32,-167 95,-227 63,-59 145,-89 243,-89 48,0 94,7 138,21 45,14 90,36 135,65 33,-26 54,-43 64,-50 10,-7 17,-10 22,-10 3,0 5,1 7,2 2,2 3,4 3,6 0,4 -9,14 -27,28 -18,14 -34,27 -47,39 64,52 111,105 142,160 31,55 47,114 47,178 0,51 -11,102 -32,152 -21,50 -51,94 -90,134 -45,45 -99,80 -163,106 -64,25 -131,38 -200,38 -27,0 -60,-4 -99,-10 -39,-7 -100,-20 -184,-40 -31,17 -61,30 -89,38 -27,8 -55,12 -81,12 -33,0 -60,-6 -80,-19 -20,-13 -30,-30 -30,-50 0,-22 10,-38 29,-49 20,-11 48,-17 86,-17 25,0 54,2 89,7 36,5 79,12 130,23 28,-20 53,-42 76,-67 24,-24 45,-52 64,-82z"/>
  </g>
  <path class="fil0" d="M1001 2300c-11,1 -22,4 -31,8 -32,9 -57,28 -76,56 -8,16 -11,31 -11,43 0,9 2,16 5,22l18 13 26 8 31 0 16 0c8,0 13,0 16,0l10 -2 8 -2 3 16 3 18c0,7 -1,11 -3,14l-3 10 -6 7 -11 0 -34 0c-16,3 -27,5 -34,7 -14,5 -25,8 -32,11 -40,17 -60,41 -60,72 0,21 7,37 20,49l23 12c9,2 20,3 32,3l20 0 21 -4 30 -6 18 -9 24 -11 26 -13 24 -14 2 -2 8 -26c3,-11 8,-26 14,-43 5,-18 12,-38 21,-61l33 -83 39 -93 -190 0zm-585 0c-18,0 -34,-16 -34,-36 0,-20 16,-36 34,-36l413 0 0 0 259 0 48 0 241 0 0 0 47 0 524 0 1 0 298 0c19,0 34,16 34,36 0,20 -15,36 -34,36l-527 0c24,43 36,85 36,126 0,51 -16,95 -48,134 -32,38 -75,58 -128,58 0,74 20,120 61,139 7,3 14,5 21,6 8,2 17,2 29,2l9 0 5 0c20,0 37,-3 52,-10l8 -5 10 -6 17 -14 17 -5 12 3c4,0 8,3 11,7l8 12 2 15c0,7 -1,12 -3,17 -2,4 -7,10 -15,17l-32 20 -22 9 -19 6 -22 4 -21 0c-55,0 -102,-18 -143,-54 -36,-32 -54,-80 -54,-145 -7,0 -11,2 -13,4l-25 0 -25 0 -8 0 -5 0c-32,-5 -55,-19 -72,-41 -7,-8 -12,-19 -17,-33 -6,-14 -8,-27 -8,-39 0,-18 3,-36 10,-55 13,-35 38,-60 76,-76 20,-7 39,-11 56,-11 21,0 37,3 49,8 39,11 59,41 59,92l0 8 -3 7 0 9 0 7 0 15c0,5 -2,8 -5,9 14,0 28,-3 43,-10 42,-20 63,-57 63,-110l0 -17 -5 -13 -10 -31c-8,-19 -22,-37 -42,-55l-3 -4 -358 0 -34 79 -47 121 -36 104 -23 83c0,5 0,9 0,12l0 7 0 17 10 12 16 6 21 3 13 0c7,0 11,-1 13,-3l10 -2 7 -1 12 3c4,0 7,3 11,7l8 12 2 14c0,19 -9,30 -28,36l-28 6 -27 0c-18,0 -33,-1 -45,-4 -11,-4 -23,-10 -34,-21 -23,-17 -35,-43 -35,-77l0 -14 0 -1c-34,15 -68,26 -104,32l-41 3c-44,0 -79,-11 -105,-33 -28,-24 -42,-57 -42,-100 0,-36 17,-69 52,-99l22 -14 33 -15c-11,0 -17,0 -20,0l-13 -4c-9,-5 -17,-13 -24,-25 -6,-11 -9,-23 -9,-36 0,-30 10,-55 30,-77l12 -12 19 -15 4 -4 -452 0zm1091 257l4 -15 4 -20 0 -17c0,-11 0,-17 0,-21l-7 -15c-1,-5 -5,-8 -12,-10l-16 -3c-18,0 -34,7 -47,23l-19 27 -4 25c0,19 9,32 29,38l9 0 17 0 8 0 21 -4 12 -1 1 -7z"/>
 </g>
</svg>
