<svg xmlns="http://www.w3.org/2000/svg" width="27.745" height="25.737" viewBox="0 0 27.745 25.737"><g transform="translate(0 -0.199)"><g transform="translate(1.626 3.176)"><path d="M34.931,68.5H30.813a.813.813,0,1,0,0,1.626h4.118a.813.813,0,1,0,0-1.626Z" transform="translate(-30 -68.5)" fill="#667acd"/></g><g transform="translate(1.626 9.679)"><path d="M34.931,188.5H30.813a.813.813,0,1,0,0,1.626h4.118a.813.813,0,1,0,0-1.626Z" transform="translate(-30 -188.5)" fill="#667acd"/></g><g transform="translate(0 6.428)"><path d="M4.931,128.5H.813a.813.813,0,0,0,0,1.626H4.931a.813.813,0,0,0,0-1.626Z" transform="translate(0 -128.5)" fill="#667acd"/></g><g transform="translate(10.621 5.614)"><path d="M211.5,118.355h-4.931V115.1a1.628,1.628,0,0,0-2.776-1.149l-6.5,6.5a1.625,1.625,0,0,0,0,2.3l3.728,3.728-4.54,4.54a1.625,1.625,0,0,0,2.3,2.3l5.69-5.69a1.625,1.625,0,0,0,0-2.3l-3.728-3.728,2.578-2.578v.953a1.626,1.626,0,0,0,1.626,1.626H211.5a1.626,1.626,0,0,0,0-3.251Z" transform="translate(-196 -113.477)" fill="#667acd"/></g><g transform="translate(8.182 1.957)"><path d="M158,46.279a1.626,1.626,0,0,0-2.051.2l-4.471,4.471a1.625,1.625,0,1,0,2.3,2.3l3.528-3.528,1.189.856,1.588-1.588a3.233,3.233,0,0,1,.922-.633Z" transform="translate(-150.999 -46.006)" fill="#667acd"/></g><g transform="translate(0.867 14.575)"><path d="M25.893,280.317a3.222,3.222,0,0,1-.832-1.467l-8.586,8.586a1.625,1.625,0,0,0,2.3,2.3l8.268-8.268Z" transform="translate(-16 -278.85)" fill="#667acd"/></g><g transform="translate(20.044 0)"><g transform="translate(0 0)"><ellipse cx="2" cy="3" rx="2" ry="3" transform="translate(0.297 0.199)" fill="#667acd"/></g></g></g></svg>