<svg xmlns="http://www.w3.org/2000/svg" width="27.609" height="33.092" viewBox="0 0 27.609 33.092"><path d="M95,15.941a7.712,7.712,0,0,0,5.636-2.335,7.712,7.712,0,0,0,2.335-5.635,7.713,7.713,0,0,0-2.335-5.635,7.969,7.969,0,0,0-11.271,0A7.712,7.712,0,0,0,87.032,7.97a7.712,7.712,0,0,0,2.335,5.636A7.714,7.714,0,0,0,95,15.941Zm0,0" transform="translate(-81.407 0)" fill="#667acd"/><path d="M27.542,256.778a19.687,19.687,0,0,0-.268-2.091,16.476,16.476,0,0,0-.514-2.1,10.385,10.385,0,0,0-.864-1.961,7.4,7.4,0,0,0-1.3-1.7,5.746,5.746,0,0,0-1.872-1.176,6.47,6.47,0,0,0-2.39-.432,2.426,2.426,0,0,0-1.3.549c-.388.253-.842.546-1.349.87a7.734,7.734,0,0,1-1.746.769,6.78,6.78,0,0,1-4.271,0,7.715,7.715,0,0,1-1.745-.769c-.5-.321-.957-.614-1.351-.871a2.422,2.422,0,0,0-1.295-.549,6.462,6.462,0,0,0-2.39.433,5.741,5.741,0,0,0-1.872,1.176,7.4,7.4,0,0,0-1.3,1.7,10.4,10.4,0,0,0-.864,1.961,16.515,16.515,0,0,0-.514,2.1,19.618,19.618,0,0,0-.268,2.092c-.044.633-.066,1.29-.066,1.954a5.5,5.5,0,0,0,1.632,4.157,5.875,5.875,0,0,0,4.205,1.534H21.771a5.874,5.874,0,0,0,4.205-1.534,5.492,5.492,0,0,0,1.632-4.157c0-.667-.023-1.324-.067-1.955Zm0,0" transform="translate(0 -231.332)" fill="#667acd"/></svg>