<svg height="512pt" viewBox="-4 0 511 512" width="512pt" xmlns="http://www.w3.org/2000/svg"><path d="m394.132812 216.847656c-18.628906-37.085937-22.472656-79.867187-10.753906-119.679687l12.914063-27.550781c10.160156-21.804688 15.429687-45.5625 15.4375-69.617188h-320c.035156 24.058594 5.332031 47.820312 15.523437 69.617188l12.910156 27.550781c11.71875 39.8125 7.875 82.59375-10.753906 119.679687-30.097656 66.257813-46.972656 137.757813-49.679687 210.480469v84.671875h176v-112h32v112h176v-84.671875c-2.679688-72.71875-19.527344-144.214844-49.597657-210.480469zm0 0" fill="#ecce93"/><path d="m235.730469 144h32v32h-32zm0 0" fill="#e5bd76"/><path d="m65.042969 104.878906-26.621094-17.757812-37.921875 56.878906 37.921875 56.878906 26.621094-17.757812-15.421875-23.121094h50.109375v-32h-50.109375zm0 0" fill="#e76e54"/><path d="m465.042969 87.121094-26.621094 17.757812 15.421875 23.121094h-50.113281v32h50.113281l-15.421875 23.121094 26.621094 17.757812 37.921875-56.878906zm0 0" fill="#e76e54"/><path d="m203.730469 32h32v32h-32zm0 0" fill="#fff"/><path d="m267.730469 32h32v32h-32zm0 0" fill="#fff"/><path d="m427.570312 312.960938-159.839843 87.039062h-32l-159.839844-87.039062c7.757813-33.15625 19.023437-65.390626 33.601563-96.160157 1.441406-2.878906 2.71875-5.761719 4-8.800781h276.480468c1.28125 3.039062 2.558594 5.921875 4 8.800781 14.578125 30.769531 25.839844 63.003907 33.597656 96.160157zm0 0" fill="#c09fde"/></svg>