<svg height="511pt" viewBox="1 -17 511.99969 511" width="511pt" xmlns="http://www.w3.org/2000/svg"><path d="m470.65625.5h-186.175781c-22.832031 0-41.34375 18.511719-41.34375 41.34375v98.140625c0 22.835937 18.511719 41.34375 41.34375 41.34375h32.523437l-9.488281 50.035156c-.839844 4.429688 4.238281 7.554688 7.8125 4.804688l71.328125-54.839844h84c22.832031 0 41.34375-18.507813 41.34375-41.34375v-98.140625c0-22.832031-18.511719-41.34375-41.34375-41.34375zm0 0" fill="#a5dffa"/><path d="m314.074219 196.777344-6.558594 34.585937c-.839844 4.429688 4.238281 7.554688 7.8125 4.804688l71.328125-54.839844h-52.492188zm0 0" fill="#6fccf7"/><path d="m470.65625.5h-52.492188c22.835938 0 41.34375 18.511719 41.34375 41.34375v98.140625c0 22.835937-18.507812 41.34375-41.34375 41.34375h52.492188c22.832031 0 41.34375-18.507813 41.34375-41.34375v-98.140625c0-22.832031-18.511719-41.34375-41.34375-41.34375zm0 0" fill="#6fccf7"/><path d="m270.082031 236.96875h-108.421875c-53.667968 0-97.222656-43.40625-97.40625-97.070312l-.164062-48.335938h206.480468zm0 0" fill="#ffc648"/><path d="m333.207031 333.582031c-1.246093-21.226562-14.722656-38.527343-34.78125-47.921875-24.550781-11.492187-83.601562-28.886718-83.601562-28.886718-6.460938-1.199219-11.148438-6.835938-11.148438-13.410157v-38.21875h-72.6875v38.21875c0 6.574219-4.6875 12.207031-11.148437 13.410157 0 0-59.050782 17.394531-83.601563 28.886718-20.0625 9.394532-33.539062 26.695313-34.785156 47.921875l-1.453125 120.386719c-.152344 12.679688 10.085938 23.042969 22.769531 23.042969h289.125c12.679688 0 22.917969-10.359375 22.765625-23.042969zm0 0" fill="#ffe5d0"/><path d="m333.207031 333.582031c-1.246093-21.226562-14.722656-38.527343-34.78125-47.921875-24.550781-11.492187-83.601562-28.886718-83.601562-28.886718-6.460938-1.199219-11.148438-6.835938-11.148438-13.410157v-38.21875h-52.488281v58.71875c0 6.570313 4.683594 12.207031 11.144531 13.40625 0 0 59.050781 17.394531 83.605469 28.890625 20.054688 9.390625 33.535156 26.691406 34.777344 47.921875l1.453125 120.382813c.011719.863281-.027344 1.710937-.113281 2.546875h29.839843c12.679688 0 22.917969-10.363281 22.765625-23.042969zm0 0" fill="#f9b87f"/><path d="m92.582031 110.503906-10.476562-1.0625c-3.792969-.382812-7.417969.542969-10.421875 2.414063-5.21875 3.25-7.976563 9.328125-7.496094 15.453125l.039062 12.8125c.042969 14.617187 13.828126 25.382812 27.984376 21.730468.242187-.0625.371093-.097656.371093-.097656zm0 0" fill="#f9b87f"/><path d="m220.574219 34.734375c-12.492188-11.546875-30.050781-21.628906-53.242188-21.90625-23.195312.277344-40.753906 10.359375-53.246093 21.90625-15.933594 14.734375-24.5625 36.609375-24.5625 59.1875l.019531 55.765625c.441406 21.945312 12.894531 47.230469 26.054687 60.28125 12.113282 12.007812 28.539063 26.722656 51.734375 27.003906 23.191407-.28125 39.621094-14.996094 51.730469-27.003906 13.160156-13.050781 25.617188-38.335938 26.054688-60.28125l.023437-55.765625c0-22.578125-8.632813-44.453125-24.566406-59.1875zm0 0" fill="#ffe5d0"/><path d="m220.574219 34.734375c-12.492188-11.546875-30.050781-21.628906-53.242188-21.90625-9.589843.113281-18.203125 1.921875-25.902343 4.796875 10.929687 4.082031 20.015624 10.335938 27.339843 17.109375 15.933594 14.734375 24.566407 36.609375 24.566407 59.1875l-.023438 55.765625c-.4375 21.945312-12.894531 47.230469-26.054688 60.28125-7.003906 6.945312-15.460937 14.792969-25.828124 20.230469 7.554687 3.964843 16.125 6.652343 25.902343 6.769531 23.191407-.277344 39.621094-14.992188 51.730469-27 13.160156-13.050781 25.617188-38.335938 26.054688-60.28125l.023437-55.765625c0-22.578125-8.632813-44.453125-24.566406-59.1875zm0 0" fill="#f9b87f"/><path d="m333.207031 333.582031c-1.246093-21.226562-14.722656-38.527343-34.78125-47.917969-12.066406-5.648437-32.460937-12.722656-50.089843-18.457031v1.09375c0 35.863281-29.070313 64.9375-64.9375 64.9375h-32.136719c-35.863281 0-64.9375-29.074219-64.9375-64.9375v-1.09375c-17.625 5.734375-38.023438 12.808594-50.085938 18.457031-20.0625 9.390626-33.539062 26.691407-34.785156 47.917969l-1.453125 120.386719c-.152344 12.679688 10.085938 23.042969 22.769531 23.042969h289.125c12.679688 0 22.917969-10.359375 22.765625-23.042969zm0 0" fill="#ff87b1"/><path d="m298.425781 285.664062c-12.066406-5.648437-32.464843-12.722656-50.089843-18.457031v1.09375c0 12.707031-3.664063 24.550781-9.972657 34.558594 2.765625 1.140625 5.316407 2.246094 7.570313 3.300781 20.058594 9.390625 33.535156 26.691406 34.78125 47.921875l1.453125 120.382813c.007812.863281-.03125 1.710937-.113281 2.546875h29.835937c12.683594 0 22.921875-10.363281 22.765625-23.042969l-1.453125-120.386719c-1.242187-21.226562-14.71875-38.527343-34.777344-47.917969zm0 0" fill="#ff579a"/><path d="m270.179688 81.335938c-.863282-43.003907-35.972657-77.414063-78.984376-77.414063h-47.703124c-43 0-78.105469 34.394531-78.984376 77.390625l-.398437 19.535156c-.175781 3.113282 2.796875 4.386719 6.765625 4.710938.265625-.1875.53125-.375.808594-.546875 3.007812-1.871094 6.628906-2.800781 10.425781-2.414063l7.417969.753906c.933594-13.375 3.132812-24.351562 5.730468-33.144531 4.292969-14.535156 22.050782-19.863281 33.628907-10.082031 41.945312 35.445312 88.613281 53.09375 116.246093 55.175781l-.015624 34.386719c-.4375 21.949219-12.890626 47.230469-26.054688 60.28125-4.492188 4.457031-9.582031 9.28125-15.390625 13.609375l.03125 30.214844c.039063 34.15625 25.773437 62.289062 58.90625 66.109375 4.125.476562 7.722656-2.820313 7.726563-6.972656zm0 0" fill="#ffc648"/><path d="m270.179688 81.335938c-.863282-43.003907-35.972657-77.414063-78.984376-77.414063h-47.703124c-.628907 0-1.25.03125-1.878907.046875 42.148438.988281 76.253907 34.996094 77.105469 77.367188l.019531 28.726562c9.890625 2.933594 18.851563 4.667969 26.394531 5.238281l-.015624 34.386719c-.4375 21.945312-12.890626 47.230469-26.054688 60.28125-.082031.082031-.171875.167969-.257812.253906l.058593 85.808594c10.679688 12.980469 26.171875 21.84375 43.746094 23.871094 4.125.476562 7.722656-2.820313 7.726563-6.972656zm0 0" fill="#fd9e28"/><g fill="#fff"><path d="m341.921875 95.445312c0-.441406-.089844-.882812-.265625-1.144531l-18.265625-31.59375c-.179687-.441406-.265625-.882812-.265625-1.148437 0-2.824219 4.5-4.765625 7.589844-4.765625 1.851562 0 2.734375.703125 3.527344 2.292969l13.414062 25.503906 13.503906-25.503906c.792969-1.5 1.585938-2.292969 3.441406-2.292969 3.089844 0 7.589844 1.941406 7.589844 4.765625 0 .265625 0 .707031-.265625 1.148437l-18.179687 31.59375c-.175782.261719-.351563.703125-.351563 1.144531v22.238282c0 2.382812-2.824219 3.621094-5.738281 3.621094-2.824219 0-5.734375-1.238282-5.734375-3.621094zm0 0"/><path d="m404.492188 95.445312c0 7.5-4.238282 7.855469-8.207032 7.855469h-17.914062v1.324219c0 5.117188 4.148437 8.472656 10.324218 8.472656 5.824219 0 8.207032-3.355468 10.851563-3.355468 2.648437 0 4.324219 3.265624 4.324219 5.03125 0 3-6.085938 7.324218-15.53125 7.324218-12.53125 0-21.355469-7.234375-21.355469-18.09375v-7.5c0-9.53125 8.558594-17.648437 19.328125-17.648437 9.707031 0 18.179688 6.796875 18.179688 16.589843zm-13.238282 1.148438c1.855469 0 2.558594-.441406 2.558594-2.382812 0-4.148438-3.527344-6.972657-7.765625-6.972657-3.96875 0-7.675781 2.648438-7.675781 6.882813v2.472656zm0 0"/><path d="m431.058594 109.652344c0-7.765625-20.917969-2.910156-20.917969-17.648438 0-6.265625 3.972656-13.148437 15.796875-13.148437 7.148438 0 14.03125 2.46875 14.03125 5.734375 0 1.589844-1.5 5.472656-4.148438 5.472656-2.117187 0-4.851562-2.558594-9.707031-2.558594-4.410156 0-6.175781 2.207032-6.175781 3.972656 0 6.441407 21.179688 2.027344 21.179688 17.734376 0 7.855468-5.824219 12.886718-16.238282 12.886718-9 0-15.972656-3.707031-15.972656-7.589844 0-1.855468 1.589844-5.03125 3.796875-5.03125 2.558594 0 4.5 3.972657 11.910156 3.972657 5.207031 0 6.445313-2.03125 6.445313-3.796875zm0 0"/></g><path d="m173.394531 169.019531h-5.113281c-5.609375 0-10.167969-4.558593-10.167969-10.167969v-15.519531c0-4.269531 3.457031-7.726562 7.726563-7.726562 4.265625 0 7.726562 3.457031 7.726562 7.726562v10.238281c4.1875.089844 7.554688 3.511719 7.554688 7.722657 0 4.269531-3.460938 7.726562-7.726563 7.726562zm0 0" fill="#f9b87f"/><path d="m167.21875 202.707031c-12.539062 0-23.9375-5.699219-29.738281-14.871093-2.285157-3.605469-1.210938-8.378907 2.394531-10.660157 3.609375-2.28125 8.378906-1.207031 10.660156 2.394531 2.953125 4.667969 9.503906 7.683594 16.683594 7.683594 7.183594 0 13.734375-3.015625 16.6875-7.683594 2.28125-3.605468 7.050781-4.675781 10.660156-2.394531 3.605469 2.28125 4.675782 7.054688 2.394532 10.660157-5.804688 9.171874-17.199219 14.871093-29.742188 14.871093zm0 0" fill="#f2905f"/><path d="m202.753906 143.691406c-4.265625 0-7.726562-3.460937-7.726562-7.726562v-7.070313c0-4.269531 3.460937-7.726562 7.726562-7.726562 4.269532 0 7.726563 3.457031 7.726563 7.726562v7.070313c0 4.265625-3.457031 7.726562-7.726563 7.726562zm0 0" fill="#726a63"/><path d="m131.683594 143.691406c-4.269532 0-7.726563-3.460937-7.726563-7.726562v-7.070313c0-4.269531 3.457031-7.726562 7.726563-7.726562 4.265625 0 7.722656 3.457031 7.722656 7.726562v7.070313c0 4.265625-3.457031 7.726562-7.722656 7.726562zm0 0" fill="#726a63"/><path d="m73.453125 477.011719v-83.964844c0-4.269531-3.457031-7.726563-7.726563-7.726563-4.265624 0-7.726562 3.457032-7.726562 7.726563v83.964844zm0 0" fill="#ff579a"/><path d="m278.90625 477.011719v-83.964844c0-4.269531-3.457031-7.726563-7.726562-7.726563-4.265626 0-7.726563 3.457032-7.726563 7.726563v83.964844zm0 0" fill="#ff579a"/></svg>