<?xml version="1.0" encoding="utf-8"?>
<!-- Generator: Adobe Illustrator 19.2.0, SVG Export Plug-In . SVG Version: 6.00 Build 0)  -->
<svg version="1.1" id="Layer_2" xmlns="http://www.w3.org/2000/svg" xmlns:xlink="http://www.w3.org/1999/xlink" x="0px" y="0px"
	 viewBox="0 0 900 600" style="enable-background:new 0 0 900 600;" xml:space="preserve">
<g>
	<path d="M498.9,551.3c0.6,0,1.2,0,1.9,0c2.2-2,2.1-4.6,1.8-7.2c-0.2-1.1-0.4-2.2-0.2-3.3c0.5-4.6,0.5-9.1-0.3-13.6
		c-0.6-3.3-0.6-6.6-0.9-10c-0.2-1.6-0.3-3.2-0.8-4.7c-2.3-7-3.6-14.1-3.9-21.4c-0.1-4.1-0.4-8.1-0.7-12.2
		c-0.6-9.7,0.9-18.9,4.4-27.9c2.3-5.7,4.2-11.6,6.3-17.4c0.8-2.3,1.7-4.7,2.6-6.9c2-4.7,2.9-9.7,3.5-14.7c0.5-4.1,0.5-8.1-0.3-12.2
		c-0.3-1.6-0.8-3.1-1.3-4.6c-0.9-2.6-1.9-5.1-2.8-7.6c-2.2-5.8-3.8-11.7-4.4-17.9c-0.1-1-0.3-2-0.6-2.9c-1.5-5.4-3-10.7-4.5-16.1
		c-1.3-4.8-2.4-9.6-3.4-14.4c-0.3-1.4-0.2-2.9-0.2-4.4c0-0.7,0-1.5-0.2-2.2c-0.8-3.4-1.8-6.7-3.3-9.8c-0.7-1.6-1.2-3.2-1.8-4.9
		c-2.9-8.9-2.5-18-1.6-27.2c0.5-4.9,1.6-9.8,3.2-14.4c0.9-2.6,2-5,3.5-7.4c0.7-1,1.2-2.2,1.7-3.3c1.1-2.1,2.1-4.2,3.2-6.3
		c3-5.6,7-10.5,10.7-15.5c2.2-3,4.1-6.2,5.6-9.6c0.8-1.8,1.5-3.7,1.9-5.6c1.3-5.7,2.5-11.3,3.4-17.1c1.1-7,0.4-14-1.3-20.9
		c-0.2-0.8-0.6-1.6-1-2.4c-2.2-4.4-4.2-8.9-6.7-13.2c-6.1-10.5-9.6-21.9-10.9-34c-0.3-2.4-1-4.8-1.4-7.3c-1.1-6.8-1.2-13.5,0.6-20.2
		c0.8-3.2,1.3-6.6,2.7-9.6c0.1-0.3,0.3-0.7,0.2-1.1c-0.4-1.8,0.3-3.4,0.8-5c1-3.1,1.1-6.3,0.8-9.5c-0.6-5.5-1.2-11.1-2-16.5
		c-0.5-3.5-1-7.1-2.7-10.3c-0.6-1.2-0.8-2.6-0.8-4c-0.6-8.7,0.5-17.3,3.5-25.5c1.7-4.7,4.2-8.9,7.7-12.5c1-1.1,1.9-2.2,3.1-3.5
		c3.1,0.2,6.4,0.5,9.6,0.8c3.1-2.8,6.2-5.4,9.2-8.1c0.6-0.5,1.2-0.9,1.9-1.2c1.1-0.5,2.3-1,3.5-1.3c4.8-1,9.7-1.6,14.7-1.1
		c4.7,0.5,9.3,1.3,13.7,2.9c0.5,0.2,0.9,0.4,1.4,0.4c4.1,0.3,7.1,2.7,9.9,5.4c1,0.9,1.8,2.1,2.4,3.3c1.4,2.9,2.6,5.9,3.9,8.8
		c0.4,1,0.9,2,1.4,3c1.4,2.6,1.7,5.4,1.4,8.3c-0.1,0.8-0.4,1.7-0.8,2.4c-0.4,0.8-0.9,1.4-1.4,2.2c0.6,0.4,1.1,0.7,1.7,1
		c-0.5,0.5-1,1-1.7,1.6c0.7,2.6,1.4,5.4,3.4,7.5c0.4,0.4,0.8,1,1.1,1.5c1,1.9,0.7,3.6-1,5c-0.7,0.5-1.4,1-2.3,1.5
		c0.1,0.8,0.1,1.7,0.3,2.5c0.6,1.8,0.6,3.4-1,4.5c0.3,1.2,0.9,2.2,0.9,3.3c0,0.8-0.7,1.5-1.1,2.4c0.2,0.8,0.6,1.7,0.8,2.6
		c0.6,2.5-0.4,4.7-2.7,5.8c-1.1,0.5-2.3,1-3.5,1.1c-3.7,0.3-7.4,0.7-11-0.5c-0.3-0.1-0.7,0-1.2,0c-0.2,0.7-0.4,1.4-0.4,2.1
		c0,1.7,0.1,3.5,0.3,5.2c0.1,1.6,0.4,3.1,0.1,4.8c-0.3,1.7,0.6,2.6,2.3,2.5c3.1-0.1,6.2-0.2,9.3-0.5c2.1-0.2,4.1-0.6,6.2-1.1
		c2.3-0.5,4.5-1.2,6.9-1.1c0.8,0,1.7-0.4,2.4-0.7c2.7-1.1,5.4-2.4,8.2-3.5c5.4-2.2,11.1-3.2,17-3.2c8.9-0.1,17.8-0.1,26.7-0.8
		c1.1-0.1,2.2-0.2,3.3-0.3c2.8-0.2,5.7-0.5,8.5-0.5c1.8,0,3.2-0.6,4.7-1.6c2.7-1.9,5.7-3.5,9.2-3.6c4.6-0.2,9-1.4,13.3-3
		c3.6-1.3,7.2-2.6,10.8-3.8c0.7-0.2,1.4-0.4,2.2-0.5c2.1,0,4.2-0.1,6.2-0.8c1.7-0.5,3.2,0,4.4,1.3c1.5,1.6,3.1,3.2,5.2,3.8
		c1,1.5,1.4,3.1,2.7,4.1c0.9,0,1.8-0.9,2.8-0.2c1.2,0.8,2.1,1.8,2.4,3.2c0.5,2.6,0.7,5.2-0.4,7.6c-0.4,1-0.7,1.9,0.3,2.8
		c4.3-1.2,9-1,13.3-2.5c0.8-0.3,1.6-0.3,2.3-1c0.4-0.4,1.1-0.5,1.6-0.7c1.3-0.4,2.6-0.8,3.8-1.3c1.6-0.6,3-1.5,4.3-2.7
		c1.9-1.8,4.1-3.2,6.2-4.7c1-0.7,2-1.3,3-2.2c1.3-1.2,3-1.6,4.5-0.7c1.8,1.1,3.6,1.4,5.5,1.4c1.6,1.2,2.3,2.7,2.5,4.6
		c-0.4,0.3-0.8,0.5-1.4,0.9c0.6,1.6,1.2,3,2.8,4c0,0.5,0,1,0,1.5c0,1.1,0.4,1.9,1.4,2.3c0,1.3,0,2.6,0,3.9c0.5-1.3,1-2.6-0.1-3.8
		c0.1-1.5-0.7-2.6-1.5-3.8c-0.2-1.2-0.5-2.4-0.7-3.6c0-0.2,0.2-0.5,0.4-0.6c0.2-0.1,0.4,0,0.9-0.1c0.3,0.8,0.6,1.8,1,2.6
		c0.5,1,0.9,2,1.6,2.9c1.8,2.4,1.9,5,1.4,7.8c-0.2,0.9-0.8,1.9-1.5,2.4c-2,1.6-3.2,3.7-3.9,6.1c-0.9,3-2.2,5.8-4.2,8.2
		c-0.8,0.9-1.4,2.1-1.9,3.2c-2.5,5.1-4.9,10.2-7.4,15.4c-1.5,3.2-3,6.5-4.5,9.8c-0.5,1-0.9,2.3-1.7,2.8c-1.7,1.2-2.1,3-2.8,4.7
		c-12.2,32.1-24.4,64.2-36.5,96.3c-25.3,66.9-50.7,133.8-76,200.7c-13.1,34.7-26.3,69.3-39.4,104c-0.7,1.7-1.4,3.4-2.1,5.2
		c1,1.3,2,2.8,3.2,4.2c0.4,0.5,1.1,1,1.7,1.3c3.7,1.4,7.4,2.8,11.1,4.1c1.1,0.4,2.4,0.4,3.7,0.3c3.4-0.2,6.6,1,9.9,1.1
		c0.4,0,0.7,0.3,1.1,0.3c4,0.9,5.3,4.3,4.9,8c-0.4,3.3-0.4,3.3,0.3,5.9c-3,3.1-6.4,5.9-10.9,7.1c-0.7,0.2-1.5,0.2-2.1,0.6
		c-3.1,1.9-6.5,2-10,2.2c-8.3,0.4-16.5-0.9-24.6-2.8c-1.4-0.3-2.7-0.9-4.3-0.4c-1.4,0.4-2.4-0.7-3.2-2.3c0.6-0.2,1-0.5,1.4-0.6
		c2.7-0.1,5.4-0.2,8.1,0.5c0.6,0.1,1.2,0.2,1.8,0.3c2.1,0.4,4.1,1.1,6.2,1.2c2.1,0.1,4.1-0.3,6.2-0.4c3.7-0.1,7.4-0.1,11.1-0.1
		c1.1,0,2.2,0,3.3,0.1c2,0.1,3.9-0.5,5.7-1.3c3.5-1.4,6.4-3.6,9.6-5.9c-0.8-2.9-1.5-5.9-2.3-8.9c-0.8-0.3-1.6-0.9-2.4-0.9
		c-3.8-0.3-7.5-1.6-11.4-1.3c-1.5,0.1-2.9-0.2-4.3-0.9c-0.4-0.2-0.9-0.4-1.4-0.6c-3.5-1.4-7-3.1-11-2.6c-0.4-0.8-0.8-1.4-1.2-2.1
		c-0.3,0-0.7-0.1-1,0c-1,0.2-1.9,0.6-2.9,0.8c-0.6,0.1-1.2,0.2-1.8,0.1c-0.4-0.1-0.9-0.5-1-0.9c-0.1-0.4,0.1-1,0.4-1.3
		c0.4-0.4,1-0.6,1.6-0.9c0.7-0.3,1.4-0.5,2-0.7c0-1.2-0.8-1.6-1.7-2.1c-1.3,0.3-2.7,0.7-4.2,0.9c-0.8,0.1-1.7,0.2-2.6,0.1
		c-0.5-0.1-1.2-0.7-1.3-1.1c-0.1-0.4,0.4-1.3,0.8-1.5c1.5-0.5,3.1-0.8,4.6-1.2c-0.4-1.3-0.4-1.3-1.9-2.6c-0.8,0.4-1.7,0.8-2.6,1.1
		c-1.2,0.5-2.5,1.1-3.8,1.6c-1.1,0.4-1.9,0.2-2.2-0.6c-0.3-0.7-0.1-1.7,0.8-2.2c0.9-0.6,2-1,3-1.3c0.9-0.3,1.9-0.3,3.1-0.5
		c-0.6-1.7-2.1-2.6-2.9-3.9c-0.9-1.3-0.8-3.2-2.4-4.1c-2.4,1.3-3.6,3.7-5.4,5.3c0,0.7,0.1,1.3,0.1,2.1c-2.2,1.3-4.2,2.6-6.3,3.9
		c-2,1.2-4,2.4-6,3.6c-2.4,1.5-4.3,1.4-6.4-0.4c-2.2-1.8-4.2-3.9-4.2-7.1c0-0.3-0.3-0.6-0.6-1.3c-1,1.5-2,2.7-2.3,4.2
		c-0.4,2.4-1.7,4.1-3.2,5.7c-0.7,0.7-1.3,1.4-2.2,2.3c2.9,1.6,4.6,4.1,6,6.9c0.6,1.3,1.8,2.4,2.8,3.4c1.5,1.6,3.1,3.2,4.7,4.7
		c0.8,0.8,1.7,1.5,2.6,2c1.5,0.9,3,1.7,4.6,2.4c1,0.4,2.1,0.6,3.2,0.8c2.2,0.6,4.7,0.5,6.7,1.8c1,1.8,1.2,3.6,0.5,5.4
		c-0.4,0.8-0.3,1.5,0,2.4c0.2,0.6,0,1.5-0.4,2.1c-2.3,3.3-5.1,5.9-9.4,6.4c-3.8,0.5-7.5,1.3-11.3,2.1c-5.4,1.2-10.7,1.4-16.2,1
		c-4.6-0.4-9.1-1.2-13.6-1.6c-1.6-0.2-3.1-0.7-4.7-1.1c-0.6-0.1-1.2-0.5-1.8-0.5c-2.5,0.1-4.6-0.9-6.7-1.9c-1.3-0.7-2.7-1.2-4.2-1.1
		c-4.6,0.1-9.1-1-13.4-2.6c-1.6-0.6-3.2-1.1-5.1-1.8c0-0.5-0.2-1.3,0-1.9c0.8-2.2,1.3-4.5,1.4-6.8c0.1-1.6,0.8-3.1,1.3-4.6
		c1-2.9,1.9-5.9,2.9-8.8c0.8-2.3,1.7-4.6,2.5-7c0.4-1,0.7-2.1,0.7-3.2c0.1-2.3,1-4.4,2.1-6.3c0.6-1,1.6-1.8,2.5-2.6
		c0.3-0.3,0.9-0.5,1.4-0.4c0.4,0,1,0.3,1.1,0.7c0.1,0.3,0,1.1-0.3,1.2C499.8,550,499.1,550.3,498.9,551.3c-0.2,0.3-0.5,0.6-0.8,0.8
		c-1.3,2-1.8,4.1-1.6,6.6c0.2,2.8-0.9,5.6-2.7,7.9c-0.8,1-1.3,2-1.5,3.3c-0.4,2.6-1.1,5-2,7.5c-0.9,2.4-1.7,7.6-1.8,10.6
		c5.2,2.1,10.5,3.7,16.4,3.1c0.5-1.2,1-2.2,1.4-3.2c1.9-4.8,3.8-9.6,5.6-14.5c3.3-8.4,6.5-16.8,9.7-25.2c0.2-0.6,1-1.2-0.1-2.1
		c-1,0.8-2.1,1.5-3,2.5c-2.2,2.4-4.8,4.6-6.5,7.5c-0.2,0.3-0.4,0.6-0.7,0.8c-2.9,2.2-5.9,4.4-8.8,6.6c-2.2-0.9-2.5-1.1-2.5-2.7
		c0-0.6,0.3-1.4,0-1.8c-1.4-2.2-1.2-4.8-2-7.1C498.3,551.7,498.6,551.5,498.9,551.3z M516.7,19.5c-0.5-0.1-0.8,0.2-0.7,0.7
		c-0.5-0.1-0.8,0.1-0.8,0.7c-0.3,0.1-0.8,0-1,0.2c-3.1,3.3-5.3,7-5.6,11.7c-0.4,0.2-0.8,0.4-0.3,0.9c0.1-0.4,0.1-0.7,0.2-1
		c0.2-0.2,0.4-0.3,0.5-0.5c1.3-3.5,3.1-6.8,5.5-9.7c0.4-0.4,0.5-1,0.7-1.6c0.5,0,0.7-0.3,0.7-0.7C516.2,19.9,516.4,19.7,516.7,19.5
		c0-0.2,0-0.2,0.1-0.3C516.8,19.3,516.8,19.4,516.7,19.5z M719.2,80.2l0.1,0.1L719.2,80.2c-0.3-0.3-0.6-0.8-1-1.4
		C717.8,80.2,718.4,80.3,719.2,80.2z M556,13.5c-0.3-0.6-0.8-0.8-1.8-0.3c0.8,0.1,1.4,0.2,1.9,0.2c0.4,0.5,0.8,0.8,1.6,0.3
		C557,13.6,556.5,13.6,556,13.5z M567.1,12c0.3,0.7,0.9,0.9,1.6,0.7c0,1,1,1.2,1.5,1.9c0.6,0.7,1,1.6,1.7,2.2c0.3,0.3,0.9,0.2,1-0.6
		c-1.4-1.1-2.2-3-4.3-3.4c-0.3-0.7-0.9-0.7-1.6-0.7c-0.3-0.8-0.9-1.2-1.9-0.9C565.8,11.4,566.5,11.7,567.1,12z M526.3,55.1
		c0-0.4,0.1-0.8-0.5-0.4C526,54.8,526.2,54.9,526.3,55.1c-0.1,0.7,0.2,1.1,0.9,1.2c0.5,0.1,0.9,0.1,1.4,0.2c0.2,0.4,0.2,1,0.5,1.3
		c1.6,1.3,3.5,1.9,5.7,2.1c0-1.5-1-2-1.8-2.6c-0.1-1.3-1-2.2-1.7-3.2c-0.6-0.9-1.3-1.8-1.8-2.8c-0.3-0.5-0.5-1.4-0.2-1.8
		c1-1.6,0.7-3.3,0.9-5c0.3-2.8,2.1-4.4,4.3-5.6c0.5-0.3,1.2-0.3,1.8-0.3c0.7,0.1,1.4,0.4,2.1,0.5c0.7,0.1,1.4,0,1.5-1.1
		c-4.6-0.5-8.9-2.2-13.5-2.5c-1.6-0.1-3.1-0.8-4.6-1.3c-0.4-0.1-0.9-0.5-1.4,0.2c0.4,1.4,1.3,2.5,2.6,3.3c1.3,0.7,2.6,1.4,3.9,2
		c0.6,0.3,1.1,0.6,1.7,0.9c-3.2,0.4-5.6-1.5-8.1-2.9c-0.1,0.3-0.4,0.6-0.3,0.7c0.7,2.1,2.6,3.2,4.3,4.4c-1.5,0.9-2.4-1-3.7-0.6
		c0.6,3.5,2.5,6,5,8.1c0.7,0.5,1.3,1.1,2,1.7c0.1,0.1,0,0.4,0.1,0.6c-0.4,0-0.9,0-1.4,0c2.1,2.6,2.4,2.8,6.5,4.6
		c-0.4,0.2-0.8,0.5-1.2,0.5c-1.2-0.3-2.3-0.7-3.4-1.1C528,55.8,527.6,54.8,526.3,55.1z M557.4,6.1c0.5,0.1,1.1,0.2,1.6,0.4
		c0-0.1,0-0.2,0-0.3C558.5,6.2,557.9,6.2,557.4,6.1c-0.2-0.5-0.6-0.7-1.2-0.7c-1.1,0-2.2,0-3.3,0c-0.4-0.2-0.8-0.6-1.2-0.6
		c-3.5-0.3-6.9-0.2-10.4,0.5c3.9,0,7.8,0,11.7,0c0.5,0.2,1,0.5,1.6,0.6C555.5,6,556.5,6,557.4,6.1z M534.5,48.4
		c1.3-0.7,2.2-1.7,3-3.3c-0.6-0.1-1.2-0.5-1.4-0.3C535,45.7,534.2,46.9,534.5,48.4c0,0.1-0.1,0.2-0.2,0.2
		C534.4,48.5,534.5,48.4,534.5,48.4z M551.6,27.5c-0.7-0.4-1.4-1.1-2.5-0.1C550.1,27.5,550.9,27.5,551.6,27.5
		c0.5,0.2,0.8,0.6,1.2,0.7c2,0.1,3.8-0.4,5.5-1.4c0.3-0.2,0.4-0.7,0.6-1.2c-2.1-0.1-2.2-0.1-3,0.3C554.6,26.7,553.3,27.6,551.6,27.5
		z M557.4,454.8c0.2-0.1,0.5-0.3,0.5-0.5c2.6-6.6,5.2-13.3,7.8-20c0.2-0.4,0.2-0.9,0.3-1.4c0-0.2-0.2-0.5-0.4-0.6
		c-0.2-0.1-0.5-0.1-0.7,0c-0.9,0.4-1.2,1.2-1.5,2c-1.6,4.9-3.4,9.8-4.9,14.7C558,451,557.2,452.9,557.4,454.8
		c-0.5,0.3-0.7,0.6-0.2,1.1C557.3,455.5,557.4,455.2,557.4,454.8z M554.5,11.2c-0.7-0.8-1.5-1.6-2.7-1.6c-1.4,0-2.7-0.2-4.1-0.1
		c-2.9,0.1-5.8-0.3-9.1-0.6c0.9-0.4,1.4-0.6,2-0.9c0-0.5,0-0.9,0-1.4c-1.8-0.5-3.5-0.2-4.9,0.9C535,7.9,534,8.3,534,9.5
		c4.5,0.9,9,1.8,13.5,2.7c0.6,0.1,1.2,0.4,1.8,0.4c0.6,0,1.1-0.4,1.6-0.6l-0.1,0.1c0.8,0,1.6,0,2.4,0c0.6,0,1.1-0.2,1.2-0.9
		c1.3,0.6,2.6,1.2,3.9,1.7c3.3,1.2,6.6,2.2,9.4,4.5c-0.3,0.4-0.5,0.8-0.9,1.1c-0.7,0.5-1.2,0.6-2.2,0.1c-1.9-1-4.2-0.9-6,0
		c-1.5,0.8-2.6,0.9-4.1,0.5c-0.6-0.1-1.2,0-2,0c0.3,0.5,0.5,0.9,0.7,1c2.4,0.5,4.7,1.1,7.1,0.2l-0.1-0.1c0.9,3.4-0.6,6.5-1.1,9.8
		c-0.5,0.8-1.7,0.9-1.9,2.1c-0.1,1-1.1,1.8-0.3,3c-2.3,1.6-4.7,3.2-6.9,4.9c-1,0.7-1.8,1.7-2.8,2.4c-1,0.6-2.2,0.8-3.5,1.3
		c0.6,0.1,1,0.2,1.4,0.2c1.1,0,2.1-0.2,3.3-0.2c-1.4,2.1-2.4,2.6-4.2,2.1c-1.6-0.5-2.8-1.5-3.9-2.7c-0.6-0.6-1.1-1.4-1.7-2
		c-1.3-1.2-2.6-1.2-4-0.1c-1.9,1.6-3,3.6-3.2,6c0,0.3,0.2,0.6,0.3,0.9c0.2-0.1,0.3-0.2,0.4-0.3c0.3-0.7,0.5-1.4,0.8-2.1
		c0.4-0.8,0.7-1.6,1.1-2.3c0.5-0.9,1.7-1.2,2.6-0.6c1,0.7,2,1.5,2.9,2.2c1.5,1.1,1.8,2.6,1.4,4.3c-0.1,0.6-0.4,1.1-0.6,1.5
		c0.9,1.1,2.5,1.1,2.7,2.6c-0.9,1.7-0.9,1.7-2.5,2.6c-0.7-1.8-1.5-3.6-2.2-5.3c0.5-0.9,1-1.7,1.5-2.6c-0.5-0.6-0.8-1-1.3-1.5
		c-0.9,1.1-1.6,2.1-2.3,3c0,1.8,0.4,3.3,1.5,4.5c0.3,0.4,0.6,0.8,0.8,1.2c0.1,0.3,0.1,0.9,0,1c-0.3,0.3-0.9,0.5-1.3,0.4
		c-1.6-0.4-2.5-1.6-2.9-3.1c-0.3-0.8-0.3-1.7-0.5-2.5c-1,0.1-1.9-1.4-2.8-0.1c0.1,0.3,0.1,0.6,0.3,0.8c2.3,3.2,4.6,6.4,6.9,9.6
		c0.7,0.9,1.6,1.5,2.7,1.6c1.2,0.3,1-1.7,2.3-1.4c0.4,1.8,0.1,2.7-1,3.1c-1.1,0.4-2.3,0.5-3.5,0.8c-1-1.3-1.8-2.5-2.6-3.6
		c-1.4-0.3-2.6-0.5-3.8-0.8c-1.3-0.4-2.5-0.9-3.8-1.4c-0.1,0-0.1-0.1-0.2-0.1c0.1,0,0.2,0,0.3,0c0.4,3.4,0.9,4.2,2.6,4.9
		c-0.1-0.4-0.1-0.9-0.3-1.6c1,0.4,1.7,0.8,2.5,1c0.9,0.2,1.9,0.2,2.9,0.3c0.5,2.7-2.5,2.4-3.4,4.3c0.1,2,0.4,4.3,0.5,6.6
		c0,2.3-0.1,4.7-0.4,7c-0.3,2.3-1,4.5-1.5,6.6c0.3,0.2,0.4,0.4,0.5,0.3c5.7-0.7,11.3-0.1,16.9,1.1c3.2,0.7,6.5,1.2,9.6,2.6
		c2.2,1,4.7,1.1,7.4,0.5c-0.2-1.4-0.4-2.6-0.6-3.7c-0.5-2.9-0.9-5.9-0.5-8.8c0.2-2,1.1-3,3-3.2c1.8-0.2,3.8-0.4,5.5,0
		c2.9,0.8,5.6-0.1,8.4-0.6c1.4-0.3,2.1-1.3,2.3-2.5c0.1-0.8-0.1-1.7-0.3-2.5c-0.2-0.8-0.6-1.5-1-2.3c0.8-1,1.5-1.9,2.2-2.7
		c-0.7-1.5-1.7-2.2-3.3-2c-1.1,0.1-2.2,0-3.3-0.1c-0.6-0.1-1.2-0.4-0.8-1.4c1.3,0,2.6,0,3.9,0c1.6,0,2.9-0.4,3.7-1.9
		c-0.5-1.6-1.1-3.2-1.6-4.7c-0.6-0.4-1.6,0.3-2-0.7c0.7-1.3,1.8-2.1,3.3-1.3c1.3,0.6,2.2,0,2.9-0.8c0.6-0.7,0.1-1.6-0.4-2.4
		c-0.3-0.4-0.6-0.8-0.9-1.2c-1.7-2.6-3-5.4-3.7-8.4c-0.5-2.2-0.6-4.3,1.8-5.9c1.5-0.9,1.6-2,0.8-3.6c-1.3-2.4-1.8-5.1-2.7-7.7
		c-0.4-1.2-0.7-2.4-1-3.6c-0.5-2-1.6-3.5-3.8-4.1c-0.8,0.8-1.7,0.9-2.6,0.3l-0.1-0.2l0.2,0.1c-0.9,0.5-1.8,1-2.6,1.5
		c-1.1-0.6-2.1-1.2-3.1-1.5c-0.6-0.2-1.4,0.1-2.1,0.1c0.2-0.4,0.5-0.8,0.7-1.3c-3-1.7-6.1-3-9.1-4.2c-1.1-0.4-2.3-0.8-3.5-1.1
		C555.4,10.6,554.9,11,554.5,11.2z M530.9,23.2c-1.1-0.4-1.1-0.4-0.8-1.7c0.9,0.3,1.9,0.5,2.8,1c3,1.5,6.2,2.5,9.4,3.2
		c1.2,0.3,2.5,0.4,3.6,0.2c2.3-0.3,4.6-0.9,6.8-1.5c1.4-0.4,2.8-0.8,4.3-0.6c0.8,0.1,1.6-0.2,2.5-0.4c0-0.9,0-1.6,0-2.4
		c-3.3,1.9-6.7,2.3-10.3,1.7c0-0.7,0.1-1.2,0.1-1.7c0.6-0.2,1.1-0.4,1.8-0.7c-2.3-1.1-4.6-1.8-7-2.1c-4.7-0.7-9.3-2.4-14.2-2
		c-0.3,0-0.9-0.5-1-0.8c-0.1-0.4,0.3-0.9,0.6-1.2c0.8-0.7,1.8-0.7,2.8-0.5c2.4,0.4,4.9,0.8,7.3,1.3c2.5,0.5,5,1.3,7.5,1.8
		c0.8,0.2,1.7,0.5,2.2-0.6l-0.1,0.1c2.5,0.2,5,0.4,7.8,0.6c-0.8-0.6-1.3-1-1.9-1.4c0.1-0.1,0.2-0.2,0.2-0.2c0-0.2-0.1-0.3-0.2-0.5
		c-0.8-1.1-2.2-1.4-3.3-1.4c-2.2,0-4.4-0.5-6.5-0.8c-4.8-0.6-9.6-0.8-14.6-1.2c-2.3,1.9-4.9,3.7-6.7,6.5c0.6,0.5,1,1,1.5,1.4
		c-0.8-0.1-1.5-0.1-1.7,1.2c1.1,1.1,2.6,2,4.2,2.7c1.7,0.7,3.4,1.4,5.1,2.2c1.4,0.7,3.1,0.7,4.7,2.2c-1.1-0.1-1.7-0.1-2.2-0.2
		c-4.4-0.8-8.4-2.7-12.2-5.1c-0.2-0.1-0.4,0-0.8,0c-0.2,0.4-0.4,0.8-0.6,1.4c0.8,0.6,1.4,1.4,2.2,1.9c1.4,0.9,3,1.8,4.5,2.6
		c1.1,0.6,2.2,1,3.5,1c1.6,0,3.1,0.4,4.5,1.4c-0.6,0.1-1.2,0.1-1.9,0.2c0.7,1,2.1,0.9,2.4,2.1l0.1-0.1c-0.4,0-0.8,0-1.1-0.1
		c-4.5-1.7-8.9-3.7-12.9-6.4c-0.5-0.3-1-0.6-1.7-1c-0.8,2.2-0.9,4-0.7,6.2c1.1,0.7,2.2,1.4,3.4,2.1c0.4,0.2,0.8,0.4,1.3,0.5
		c0.3-0.5-0.1-1.2,0.4-1.2c3.7,1.1,7.2,2.2,10.8,3.2c2.4,0.6,4.8,1,7.2-0.3c0.7-0.4,1.7-0.4,2.5-0.6c1.9-0.5,3.8-1.1,5.7-1.6
		c0.5-0.2,1.2-0.3,0.9-1.2c-1,0.2-1.9,0.4-2.9,0.6c-1,0.2-1.9,0.5-2.9,0.5c-1.1,0-2.4,0.2-3.2-0.4c-1.3-0.9-2.8-0.9-4.1-1.4
		c-1.1-0.4-2.5-0.2-3.4-1.2c1.5,0.1,3,0.1,4.4,0.2c2.5,0.1,3.9-0.2,7.1-1.6c-1.3-0.4-2.4-0.8-3.4-0.9c-3.2-0.3-6.1-1.7-9.1-2.9
		C534.1,24.7,532.4,23.9,530.9,23.2c0-0.2,0-0.3,0.1-0.3C530.9,23,530.9,23.1,530.9,23.2z M521.3,18.8c-1.5-0.2-2.6,0.5-3.5,1.5
		c-3.4,4-6.2,8.3-7.7,13.4c-1.3,4.5-2.1,9.1-2.2,13.8c-0.2,5.9-0.4,11.8-0.7,17.8c0,0.7-0.2,1.4-0.3,2.1c-0.6-3.2-0.6-6.4-1-9.6
		c-0.7-6.4-0.8-12.8-0.2-19.2c0.6-7,2.8-13.5,7.9-18.8c0.3-0.3,0.5-0.8,0.7-1.1c-0.4-0.7-0.7-1-1.2-0.5c-2.3,1.9-3.9,4.5-5.1,7.2
		c-4.8,10.6-6.4,21.7-4.1,33.2c1.3,6.5,2.7,13.1,2.9,19.8c0,1.2,0.4,2.3,0.6,3.5c1.6-6.4,2.4-12.9,2-19.5c-0.1-2.1-0.4-4.3,0.1-6.3
		c0.5-2,0.3-3.9,0.2-5.8c-0.2-6.5,0.5-12.8,5-18.1c0.6-0.7,0.9-1.4,0.9-2.4c0-3,1.4-5.5,3.6-7.4C520.1,21.4,520.7,20.2,521.3,18.8
		c0.4-1,1.1-1.8,1-2.9c-1.3-0.2-1.3-0.2-2.4,0.5C520.4,17.2,520.8,18,521.3,18.8z M705,114.3c0.8-0.1,1.7,0,2.5-0.2
		c7.2-2.3,14.2-4.9,20.9-8.5c3.6-1.9,7.4-4,11.8-3.7c0.9,0.1,1.6-0.6,1.7-1.6c0.1-0.7-0.1-1.4-0.2-2.3c-1.7,0.5-3,1-4.5,1.4
		c-0.5,0.1-1,0-2,0c2.4-1.7,5-1.6,6.9-3.1c0.1-2.6,0-5,0.8-7.4c0.1-0.2-0.2-0.6-0.4-1.1c-0.6,0.5-1.2,0.8-1.5,1.2
		c-0.5,0.6-1.1,0.9-1.9,1c-4.6,1.1-9.1,2.1-13.7,3.2c-1,0.2-1.9,0.5-2.9,0.1c-1.3-0.5-2,0.1-2.7,1.2c-1.4,2.2-2.7,4.4-4.3,6.5
		c-2.5,3.3-5.3,6.5-7.9,9.8C706.8,111.9,706,113.2,705,114.3c0.1,0.1,0,0.2,0,0.3C705,114.4,705,114.4,705,114.3z M525.6,537.2
		c0.3-0.6,0.8-1.2,1-1.9c7.8-20,15.6-40,23.3-60.1c0.4-1.1,0.7-2.4,0.9-3.6c0.7-4.1,1.3-8.3,1.9-12.4c0.2-1.5,0.3-3,0.8-4.3
		c2.1-6,4.4-12.1,6.6-18.1c0.9-2.4,1.9-4.8,2.8-7.2c-0.5-0.9-1-1.6-1.4-2.3c-1.9-3.6-3.3-7.2-2-11.3c0.2-0.8,0.1-1.7-0.1-2.5
		c-1.1-4.5-1.5-9-1.6-13.6c-0.1-4.1-0.9-8-2.1-12.6c-1.2,3.4-2.6,6.1-2.6,9.3c0.1,6.1-1.4,12-2.5,17.9c-0.1,0.7-0.5,1.4-0.5,2.1
		c-0.1,3.4-1.5,6.5-3.1,9.4c-1.5,2.8-3,5.6-3.2,9c-0.2,2.8-1.1,5.5-2.1,8.1c-1.8,4.7-3.5,9.5-4.4,14.5c-0.5,2.9-1.2,5.8-1.9,8.7
		c-1.4,5.7-3.4,11.3-4,17.3c-0.3,2.7-0.9,5.3-1.3,8c-0.7,5.8-1.4,11.5-2,17.3c-0.6,6.3-1.1,12.5-1.7,18.8c-0.1,0.6-0.1,1.2-0.2,1.8
		C525.4,532.1,525.4,534.7,525.6,537.2l-0.1,0.1L525.6,537.2z M689.5,90c-0.2-1,0-1.9,0.3-2.9c0.4-1,0.8-2.1,1.1-3.1
		c0.5-1.9,0-2.9-1.8-3.9c-0.7-0.4-1.5-0.8-2.1-1.1c-1.6,0.8-2.1,2.2-2.5,3.7c-0.2,1.1-0.4,2.1-0.7,3.2c-0.4,1.6,0,2.6,1.5,3.3
		c1.4,0.7,2.8,0.9,4.3,0.8c-0.4,1-1.4,0.9-2.2,1c-1.2,0.2-2.4-0.4-3.8,0c-0.2,2.4,0,4.6,0.2,6.7c0.7,9.6,1.8,19.2,1.9,28.8
		c0,0.2,0,0.5,0,0.7c0.2,1.6,0.9,2.8,2.6,3.2c0.6,0.1,1.1,0.5,1.6,0.7c-0.8,1.9-1.6,3.5-2.2,5.2c-2,5.2-4,10.4-6,15.6
		c-24.8,64.5-49.5,128.9-74.3,193.4c-1.5,4-2.7,7.9-2.7,12.2c0,2-0.3,3.9-0.5,5.9c-0.7,6.5-1.4,13-3.2,19.3
		c-0.3,1.2-0.4,2.4-0.6,3.6c-0.7,5.5-1.1,11.1-2.9,16.6c1.1,1,1.1,2.5,1.1,4c-0.2,4.7-0.8,9.4-1.7,14c-0.2,1.2-0.6,2.3-0.1,3.6
		c0.3,0.9,0,2.2-0.4,3.2c-0.7,1.7-1.6,3.3-2.4,5c0.1,0.8,0.6,1.6,0.4,2.4c-0.8,3-0.5,6.1-0.6,9.2c-0.1,2.8-0.3,5.7-0.3,8.5
		c-0.1,2.6-0.1,5.2-0.1,7.8c0,0.7,0.1,1.5,0,2.2c-0.4,3.6-0.8,7.1-1.4,10.7c-0.2,1.6-0.6,3.2-1.1,4.7c-1.3,4-2.8,7.9-4.1,11.9
		c-0.6,1.8-1,3.6-1.4,5.4c-0.3,1.2-0.4,2.4-0.7,3.6c-1,4.7-2.1,9.4-3,14.1c-1.3,6.4-2.5,12.9-3.7,19.3c-0.2,1.3-0.7,2.6-0.2,3.9
		c3,1.8,3.6,2.2,4.4,4.8c1,3.6,3.7,5.7,6.3,8c0.3-0.4,0.6-0.7,0.7-1c50.9-133.8,101.7-267.7,152.5-401.5c0-0.1,0.1-0.2,0.1-0.4
		c0-0.1,0-0.2-0.1-0.4c-0.7-0.7-2.3-0.6-2.1-2.3c0.5-0.4,1-0.9,1.6-1.5c0.2-12.4,0.3-24.9,0.5-37.4c0-0.4-0.2-0.7-0.3-1.3
		c-0.8,0.3-1.6,0.6-2.4,0.9c-1.3,0.4-2.5,1-3.9,1.2c-2.2,0.3-4.3,1.1-6.2,2.2c-4.8,2.6-9.8,4.8-15,6.3c-3.1,0.9-6.2,1.8-9.3,2.5
		c-1.5,0.3-2.5,1-3.3,2.2c-1.5,2.1-3,4.2-4.6,6.3c-0.5,0.7-1,1.5-1.6,2c-1.4,1-2.9,1.9-4.4,2.7c-0.2,0.1-0.7,0-1,0
		c0-0.2-0.1-0.4-0.1-0.4c0.2-0.3,0.4-0.7,0.6-0.9c2.4-1.9,4.4-4.3,6.1-6.9c1.9-2.7,4-5.3,6.1-7.9c4.1-5.1,8.3-10.1,12.4-15.3
		c1.4-1.8,2.6-3.9,3.9-5.9c0.3-0.5,0.7-1.1,0.1-1.6c-1.6,0.7-3.2,1.5-4.8,2c-1.9,0.6-3.1,1.8-4,3.6c-0.8,1.7-1.6,3.3-2.6,4.9
		c-1.2,1.9-2.5,3.7-3.9,5.4c-3.1,4-6.4,7.9-9.5,11.9c-1.7,2.2-3.7,4.3-4.2,7.3c0,0.1-0.1,0.2-0.3,0.3c-0.2,0.1-0.4,0.3-0.6,0.3
		c-0.2,0-0.5-0.2-0.6-0.4c-0.2-0.6-0.3-1.2-0.3-1.8c0.1-3.1,0.3-6.2,0.4-9.2c0.1-7.5,0.4-15.1,1.1-22.6c0-0.5,0.2-1,1-0.9
		c0.3,0.6,0.5,1.3,0.9,2c2.3-0.3,4.6-0.7,7.1-1c0.4-0.9,1.2-1.9,1.3-2.9c0.2-2-0.1-3.9-0.1-5.9c0-2.5-2.4-3.6-3.3-5.4
		c0.5-0.8,1-0.6,1.4-0.3c1.7,1.3,3.3,2.7,3.6,5c0.5,2.8,1.4,5.6-0.4,8.3c-0.2,0.3-0.2,0.8-0.3,1.3c0.5,0.1,0.7,0.3,0.9,0.2
		c0.4-0.1,0.8-0.2,1-0.4c2.2-2.1,4-4.3,3.5-7.7c-0.2-1.6-0.4-3.2-1.2-4.6c-0.5-0.8-0.9-1.8-1.1-2.7c-0.1-0.3,0.1-0.8,0.3-1.7
		c2,2.6,3.3,4.7,3.6,7.6c0.3,3.6,0.1,6.9-3.2,9.4c1.9,0.1,1.9,0.1,5-1.6c0.6-2.1,1.2-4.2,1.7-6.3c0.1-0.4,0.2-0.7,0.3-1.1
		c0.4-1.7,0.1-3.1-1-4.5c-0.9-1-1.6-2.2-2.2-3.4c-0.2-0.3,0-0.9,0.1-1.4c1.7,0.2,2,1.6,2.8,2.5c1.9,2.2,2.6,5.3,1.9,8.2
		c-0.5,2-1,4.1-1.5,6.2c-0.5,0.5-1.1,1.2-1.6,1.8c-0.8-0.2-1.6-0.1-1.9,0.7c-0.4,1.1-1.2,1.5-2.3,1.6c-1.2,0.2-2.4,0.4-3.7,0.4
		c-2.2,0-4.4,0-6.6,0c-1.3,0-2.7-0.1-3.9,0.5c-1.1,4.7-1,17.1,0,21.6c1.2,0.2,1.7-0.7,2.3-1.5c2.2-2.8,4.4-5.6,6.4-8.5
		c3.4-4.8,7.2-9.4,9.4-14.9c2.8-0.2,4-2.6,5.9-4.2c0-0.9-0.1-1.6,0-2.3c0.2-2.1,0.1-4.2-1-6.1c-0.2-0.4-0.4-1-0.3-1.4
		c0.4-1.6-0.3-2.9-0.6-3.5c-2.4-1.9-4.3-3.3-6.1-4.7c-1.1-0.9-2.2-1.2-3.5-0.7c-1.8,0.7-3.6,0.9-5.4,0.9c-0.7,0-1.5,0.3-2.2,0.4
		c-5,1.1-9.3,4-14.2,5.3c-0.2,0.1-0.5,0.2-0.6,0.4c-1.5,1.8-3.6,2-5.7,2.4c-2.7,0.4-5.3,1.1-7.9,2c-3,1.1-6.1,2.1-9.3,2.5
		c-8.6,1-17.2,1.8-25.9,1.5c-5.9-0.3-11.8-0.1-17.8,0.6c-3.3,0.4-6.6,0.9-9.8,2c-3.4,1.1-6.7,2.4-10.1,3.6c-1.2,0.4-2.3,0.7-3.5,1.1
		c-1.3,0.3-2.7,0.5-3.9,0.9c-3.4,1.1-6.9,2-10.5,2.1c-4.2,0.1-8.4,0.2-12.6,0c-2.5-0.1-4.9-0.6-7.3-1c-1.3-0.2-2.2-0.9-2.9-1.9
		c-2-0.2-3.8-0.3-5.6-0.6c-6.4-0.9-12.8-1.2-19.2-0.9c-2.1,0.1-4.1,0.6-6.1,1.3c-2.7,1-5.3,2.2-8,2.8c-2.3,0.6-4,1.8-5.6,3.3
		c-2.3,2.2-4,4.7-5.1,7.7c-0.5,1.4-0.8,2.8-1.8,4c-1.1,1.3-0.2,3.2-0.8,4.7c-1.5,3.6-1.1,7.3-0.7,11c0.6,4.6,1.8,9.2,2.7,13.8
		c0.3,1.6,0.6,3.1,0.8,4.7c0.6,5.4,2.3,10.6,4.5,15.3c1.7,0.3,3.2,0.5,4.6,0.7c0.7,0.1,1.5,0.3,2.2,0.2c4.6-0.6,8.9-1.9,12.6-4.9
		c5.4-4.5,9.3-10.1,11.4-16.9c0.2-0.5,0.5-0.9,0.8-1.4c0.5,0.3,0.8,0.5,1.2,0.8c1.7-3.5,2.3-7.3,2.2-11.1c0-0.6-0.3-1.1-0.6-1.8
		c-2.6,0.4-5,0.7-7.5,1.1c-2.3,0.4-4.6,0.8-6.9,1.1c-2.3,0.3-4.6,1.2-7.6,0.4c1.9-0.7,3.2-1.4,4.6-1.8c1.8-0.5,3.6-0.8,5.4-1.1
		c8.5-1.8,17.1-2.4,25.8-1.8c2.3,0.2,4.7,0,7-0.5c13-2.9,26.2-5,39.5-6.4c0.6-0.1,1.2-0.2,1.8-0.3c6.4-1.2,12.7-3.3,18.9-5.3
		c8.1-2.5,16.1-5.6,24.1-8.5c0.7-0.2,1.3-0.6,2-0.9c2.6-1.1,5.2-2.3,7.9-3.3c6.4-2.4,12.7-4.7,19.1-7c1-0.4,2.1-0.7,3.3-1.1
		c0.1-1.1,0.5-2.3,0.4-3.5c-0.1-2.3,0.5-4.4,1.7-6.3c1.1-1.8,2.5-3,4.6-3.2c2.1-0.2,4.1,0,6.1,0.7c0.2,0.1,0.3,0.4,0.5,0.7
		c-0.5,0.4-0.9,0.7-1.4,1.1c0.7,3.8,0.7,3.8-1.4,8.9c0.8,0,1.5,0.1,2.2,0.1c1.2-0.1,2.5-0.3,3.7-0.3c0.4,0,0.8,0.3,1.4,0.6
		c-0.5,0.4-0.7,0.8-1,0.9C695.4,90.2,692.5,90.5,689.5,90z M553.5,313.6c-6.4-2.4-10.1-2.2-14.9-1.6c-6.9,0.9-13.7,1.9-20.5,2.8
		c-3.9,0.6-7.7,1.7-11.3,3.5c-1.6,0.8-3.4,1.5-5,2.4c-2.3,1.2-4.4,2.7-5.8,4.5c0.3,1.8,0.6,3.2,0.7,4.7c0.2,2.6,1.2,5,1.6,7.6
		c0.6,3.2,1.5,6.2,2.4,9.3c1.4,4.4,2.8,8.7,4,13.1c1.3,4.8,2.2,9.6,3.3,14.4c1.3,5.4,2.6,10.8,3.9,16.2c0.4,1.6,0.8,3.1,1.2,4.7
		c2,6.6,2.8,13.3,1.4,20.1c-1,4.7-2.1,9.4-3.7,14c-0.6,1.7-1.3,3.5-1.4,5.4c-0.1,1.7-0.6,3.1-1.2,4.6c-1.2,3.1-2.4,6.2-3.6,9.4
		c-2.3,6.5-3.7,13.3-5.1,20.1c-0.6,2.8-0.8,5.6-0.6,8.5c0.3,4.2,0.3,8.4,0.6,12.6c0.3,4.1,0.7,8.1,1.6,12.1
		c0.9,4.4,1.8,8.7,2.3,13.1c0.2,2.5,0.4,4.9,0.3,7.4c-0.1,3.6-0.4,7.2-0.5,10.7c-0.1,1.7,0,3.5,0.3,5.1c0.8,4.4,0.5,8.9,0.4,13.3
		c0,0.8-0.5,1.6-0.7,2.5c-0.4,1.9-0.3,3.8,0.3,5.9c2.2-0.9,3.8-2.2,4.9-4.1c0.6-0.9,1.1-1.9,1.8-2.8c1.5-1.8,3.2-3.5,4.7-5.2
		c1.9-2.1,4.1-3.9,6.7-5.3c0.5-0.3,1-0.7,1.3-0.9c-0.7-5-0.9-9.8,0.7-14.5c0.2-0.6,0.2-1.2,0.2-1.8c-0.2-8.2,1.3-16.2,2.1-24.4
		c0.3-3.3,0.8-6.6,1.1-9.9c0.1-1.2,0.2-2.4,0.4-3.7c0.3-2.3,0.8-4.6,0.9-7c0-2.4,0.3-4.7,1-6.9c1.7-5.7,3.5-11.3,5.1-17
		c1.2-3.9,2.2-7.8,3.3-11.7c0.6-2.1,0.7-4.4,2.8-5.8c0.3-0.2,0.3-0.7,0.4-1c0.8-1.7,1.3-3.5,1.2-5.4c-0.1-1.5,0.3-2.9,1-4.3
		c0.9-1.8,1.8-3.5,2.7-5.3c1.1-2.1,2-4.2,1.8-6.7c-0.1-0.8,0.2-1.7,0.3-2.6c0.6-3.2,1.1-6.3,1.7-9.5c-0.5-0.4-0.9-0.8-1.4-1.3
		c0.1-0.6,0.1-1.2,0.3-1.8c2-6.7,3.8-13.6,4.8-20.5c0.4-2.3,0.6-4.7,0.6-7c0.1-5.9,0.1-11.9,0.1-17.8c0-0.3,0.1-0.7,0.2-1
		c0.5-0.1,0.9-0.3,1.3-0.4c0.9-4.8,1-9.5,0.9-14.2c-0.2-5.9-1-11.8-1.9-17.7C554.5,319.8,554,316.8,553.5,313.6z M611.4,137.8
		c0.7,0.9,1.2,1.5,1.6,2c2.3,2.9,3.9,6,4.1,9.7c0.2,3.3,0.5,6.7,0.3,10c-0.1,1.6-0.8,3.4-1.6,4.9c-1.2,2.1-2.8,4.1-4.2,6.1
		c-0.4,0.6-1,1.1-1.4,1.7c-1.3,2.4-2.5,4.8-4,7.1c-1.2,1.9-1.7,3.8-1.8,5.9c-0.1,2.6-0.2,5.2-0.3,7.8c-0.1,3-0.3,5.9-1.2,8.8
		c-1.3,3.9-2.6,7.8-4.7,11.3c-2,3.3-2.5,6.9-2.7,10.6c-0.1,1.5,0,3,0,4.4c0.1,6.7-0.5,13.3-1.5,19.9c-0.4,2.9-1.6,5.8-0.3,8.7
		c0.1,0.3,0,0.7,0,1.1c0,2.6,0,5.2,0,7.8c0,0.7,0.1,1.5,0.4,2.2c1.6,4,1.9,8.1,1.9,12.4c0,0.9-0.1,1.8,0.1,2.6
		c0.6,2.5,1.3,5,1.9,7.5c0.6,2.4,1.3,4.8,1.7,7.2c0.8,4.2,1.4,8.5,2,12.8c0.9,6.2,1.6,12.5,2.5,18.7c0.1,1,0.1,2.2,1.2,3.1
		c26.2-67.5,52.3-134.9,78.3-201.9c-0.7-2.7-1.3-4.9-1.9-7.1c-0.4,0.1-0.7,0-0.9,0.1c-1.9,1.7-4.4,2.1-6.8,2.7
		c-1.8,0.5-3.5,1.1-5.3,1.7c-0.6,0.2-1.3,0.4-1.6,0.8c-1.1,2-3.2,2.2-5,2.7c-7.3,2.3-14.7,4.3-22.2,5.8c-7.7,1.5-15.4,2.2-23.2,1.2
		C615.3,138.1,613.6,138,611.4,137.8z M553.7,304.5c1.2,4.6,1.9,9.2,3.3,13.7c1.7-0.3,3.3-0.5,4.8-0.8c7.5-1.7,15.1-2.7,22.7-3.3
		c3.6-0.3,7.2,0,10.7,0.4c0.7,0.1,1.5,0.2,2.2,0.3c0.7,0.1,1.3,0.2,2.3,0.4c-0.1-1.3-0.2-2.5-0.4-3.5c-1.1-4.9-2.2-9.9-3.9-14.7
		c-1.1-2.9-1.9-5.9-2.9-8.8c-0.3-1.1-0.6-2.2-0.7-3.2c-0.1-0.6,0.1-1.2,0.3-1.7c1.2-2.5,1.3-3.8-0.1-6.4c-0.9-0.1-1.7-0.2-2.9-0.3
		c1.2-0.6,2.1-1,2.9-1.3c0.9-2.1,0.9-4-0.9-5.4c-1-0.8-1.2-1.8-1.4-2.9c-0.1-1.1,0-2.2-0.9-3c-0.3-0.1-0.5-0.2-0.8-0.2
		c-6.4,0.1-12.8,0.3-19.3,0.3c-1,0-2-0.1-2.9-0.3c-5-0.9-9.9-1.9-14.9-2.9c-4.7-0.9-9-2.6-13.3-4.5c-7-3.2-14.4-5-21.9-6.6
		c-0.7-0.2-1.5-0.2-2.2-0.3c-2.6-0.5-5.1-0.1-7.3,1.5c-0.6,1.1-1.1,2.3-1.8,3.2c-2.6,3.6-4.6,7.6-6.3,11.7c-0.4,0.9-0.6,2-1.3,2.6
		c-1.8,1.5-2.1,3.6-2.4,5.6c-0.6,3.5-1.2,7.1-1.7,10.6c-0.4,2.4-0.6,4.9-0.8,7.4c-0.2,2.3-0.3,4.7-0.6,7c-1,7.3,0.2,14.3,2.3,21.2
		c0.2,0.7,0.7,1.3,1,2c1.7-0.9,3.2-1.7,4.7-2.5c7-3.6,14.2-7,22.1-8.4c4.9-0.8,9.8-1.4,14.7-2.1c3.2-0.5,6.2-0.8,9.4,0.4
		c2.2,0.9,4.8,1,7.3,1.4C553.4,308.9,551.9,306.5,553.7,304.5z M589,261.1c0.2-0.8,0.4-1.2,0.5-1.7c1.4-4.8,2.1-9.7,2.3-14.6
		c0.2-4.4,0.2-8.9,0.3-13.3c0.1-2.6,0-5.2-0.1-7.8c0-4.4,0.7-8.6,2.7-12.5c1-1.9,1.9-3.8,3.1-5.5c2.7-3.8,3.3-8.2,4-12.5
		c0.3-2.1,0.5-4.2,0.7-6.2c0.1-0.7,0-1.4,0-2.2c-0.9-0.3-1.6-0.7-2.5-0.9c-1.7-0.4-3.4-0.9-5.1-1.1c-1.6-0.2-2.8-0.7-3.6-2.2
		c-3.8,0.1-7.4-0.1-11.1,0.5c-5,0.8-10.1,1-15.1,1.6c-6,0.7-12,1.4-18,2.1c-1,0.1-2.1,0.3-2.9,0c-1-0.5-1.9-0.3-2.8,0
		c-4,1.1-8.1,2.2-12.1,3.4c-1.5,0.5-3,1-4.6,0.4c-0.8-0.3-1.5,0.5-1.5,1.2c0,0.6,0.1,1.2,0.2,1.8c0.4,2.4,0.8,4.9,1.1,7.3
		c0.3,2.1,0.3,4.2-0.2,6.3c-0.5,1.9-0.8,3.9-1,5.8c-0.9,7-2.4,13.9-4.5,20.6c-0.8,2.5-1.8,4.8-3.5,6.9c-1.7,2.2-2.7,4.9-3.8,7.7
		c1.1,0.1,1.9,0.2,2.8,0.3c2.8,0.5,5.6,1,8.4,1.6c0.7,0.1,1.6,0.3,2,0.8c1,1.3,2.4,1.6,3.9,1.9c4.3,1.1,8.5,2.6,12.5,4.4
		c1.3,0.6,2.7,1,3.7,2.3c0.7,1,1.9,1.1,3.1,0.4c-0.3-2-0.7-3.9-1-5.8c-0.3-2-1.2-3.8-1.1-6.7c0.7,1.4,1.2,2,1.3,2.7
		c0.5,2.8,1,5.6,1.4,8.4c0.1,0.7-0.3,1.5,0.7,2.2c3.1,0.3,6.5,0.9,10,1c1.7,0,3.4,0.2,5.1,0.6c1.9,0.5,3.9,0.8,5.8,0.9
		c5.6,0.1,11.1,0.1,16.7,0.1C587.5,261.3,588.1,261.2,589,261.1z M603,181c1.3-2.4,2.6-4.7,3.9-7.1c0.1-0.2,0.3-0.5,0.3-0.7
		c-0.1-1.6,1.1-2.4,2-3.3c4.1-4.1,6.3-9.1,6.1-15c-0.3-7.3-3.2-13.4-9-18c-4.9-3.9-9.9-7.7-14.3-12.3c-0.2-0.2-0.4-0.2-0.7-0.3
		c-0.6,1-0.9,2.4-1.8,3c-1.6,1-3.5,2-5.4,2.2c-3.9,0.4-7.9,0.2-11.7-1.2c-2.5-0.9-5.3-0.9-7.8-2.1c-0.5-0.3-1.2-0.2-1.8-0.2
		c-4.6,0-9.1,0-13.7,0c-0.6,0-1.1,0.1-1.9,0.2c-0.1,1.3-0.1,2.4-0.1,3.5c-0.2,5.4-2,10.2-5.2,14.4c-1.7,2.2-3.1,4.4-4,7
		c-0.2,0.6-0.6,1.1-0.8,1.6c-1.4-0.2-2.1,0.8-2.8,1.6c-2.2,2.5-4.7,4.7-7.7,6.2c-4.4,2.2-8.9,3.6-13.9,2c-0.3-0.1-0.6,0.2-1,0.3
		c1.2,3.4,4.3,9,6.5,12c0.4,0.5,0.6,1.1,0.9,1.6c1.3,2.4,2.3,4.9,2.9,7.6c0.2,0.9,0.6,1.8,1,2.6c3.3-0.9,6.4-1.8,9.5-2.5
		c4.3-1.1,8.6-2.2,13.1-2.6c7-0.6,14-1.3,21-2c2.9-0.3,5.9-0.6,8.8-0.9c2.3-0.2,4.7-0.5,7-0.7c5.1-0.4,10.1-0.4,15.1,1.1
		C599.3,179.8,601.1,180.4,603,181z M573,540c-0.1-5.5,1-10.4,2.1-15.4c1.8-7.8,3.6-15.6,5.5-23.5c0.2-0.9,0.5-2,1.1-2.7
		c0.7-0.9,1-2,1.2-3.1c0.1-1,0.3-1.9,0.5-2.9c0.7-3.6,0.9-7.4,3.3-10.5c0.4-0.4,0.3-1.2,0.5-1.8c1.6-4.6,2-9.4,2.8-14.2
		c0.5-3,1.1-6.1,0.5-9.2c-0.1-0.5-0.1-1,0-1.5c1-7.4,0.3-15.1,2.6-22.4c0-0.1,0.1-0.2,0.1-0.4c0-2.2,0.7-4.1,1.6-6
		c0.7-1.5,1-3,0.5-4.7c-0.2-0.8-0.2-1.7-0.2-2.6c0.2-3.2,0.4-6.4,0.6-9.6c0.1-1.9,0.8-3.9-0.3-5.8c-0.2-0.4,0-1,0-1.4
		c-0.2-4.7,0.8-9.3,1.8-13.9c1.6-7.4,2.8-14.8,3.9-22.3c0.2-1.2,0.5-2.4-0.1-4c-0.5,1.3-0.9,2.2-1.2,3.1c-2.1,5.4-4.2,10.8-6.3,16.3
		c-3.4,8.9-6.8,17.8-10.2,26.6c-0.5,1.3-1.1,2.5-0.4,4c-1.5,0.6-2,2-2.5,3.4c-3,7.8-6,15.7-9,23.5c-0.6,1.5-1.3,2.9-1.3,4.6
		c0,0.5-0.2,1-0.5,1.3c-1.2,1.2-1.5,2.8-2.1,4.3c-2.2,5.8-4.4,11.5-6.7,17.3c-2,5.2-4,10.4-6,15.6c-0.6,1.5-0.9,3-0.4,4.7
		c0.6,2.1,0.9,4.4,1.3,6.5c0.9,4.4,1.4,8.8,1.1,13.3c-0.2,3.7-0.3,7.4-0.5,11.1c-0.2,3.1-0.5,6.2-0.8,9.2c-0.3,2.8-0.7,5.6-1.1,8.5
		c-0.5,3.2-1,6.3-1.5,9.5c-0.1,0.5-0.3,1-0.6,1.3c-1.2,1.1-0.9,2.2,0,3.2c0.7,0.8,1.6,1.6,2.4,2.3c1,1,2.1,1.1,3.4,0.3
		c1.4-0.8,2.8-1.6,4.2-2.4c2.5-1.4,4.9-2.8,7-4c0.7-1.4,1.2-2.4,1.8-3.3C571.5,541.7,572.3,540.9,573,540z M557.5,320.1
		c0.1,1,0.1,2,0.3,2.9c1.4,7.9,2.2,15.9,1.8,24c-0.2,3.3-0.8,6.6-1.2,9.9c-0.1,1.1-0.2,2.2-0.4,3.3c-0.7,5.5-0.5,11.1-0.6,16.7
		c0,0.7,0,1.5-0.2,2.2c-0.9,3.1-0.3,6.1,0.4,9.1c1.2,4.8,2.7,9.5,3.3,14.4c0.3,2.5,0.6,4.9,1,7.3c0.5,3.7,1,7.3,1.5,11
		c0.1,0.6,0.1,1.2,0.3,1.8c0.7,2.2,1.4,4.5,2.1,6.7c0.2,0.5,0.6,0.9,1.1,1.8c0.7-1.6,1.2-2.9,1.7-4.1c7.3-18.9,14.7-37.8,22-56.7
		c3.6-9.2,7.1-18.4,10.7-27.6c1-2.5,1.5-4.9,1.1-7.6c-0.4-2.4-0.7-4.9-1-7.3c-0.3-2.3-1-4.6-0.7-7c0.2-1.4-0.5-3.1-1.2-4.4
		c-3.1,1.4-6.3,2.9-9.9,1.8c-0.2-0.1-0.5,0-0.7,0c-5.7,0-11.4,0-17,0.1c-0.5,0-1,0-1.5,0.1C566.3,319,562,319.5,557.5,320.1z
		 M681.3,101.8c-2.3-0.4-4.1,0.5-6,1c-8.9,2.4-17.9,3.3-27.1,3.2c-1.5,0-2.9,0.2-4.3,0.7c-4.8,1.8-9.7,3.8-14.6,5.4
		c-6.1,2-12.3,3.7-18.4,5.6c-0.8,0.2-1.7,0.3-2.5,0.5c-2.3,0.4-4.6,0.9-7,1.4c-0.9,2.3-1.7,4.4-2.6,6.7c1.9,1.7,3.7,3.2,5.3,4.8
		c1.7,1.6,3.3,3.3,5,4.9c2.2,0,4.3-0.2,6.4,0c4.8,0.5,9.6,0.2,14.4-0.3c6.6-0.6,13.1-2.2,19.6-3.6c0.6-0.1,1.2-0.3,1.7-0.7
		c1.3-1.3,3-1.6,4.7-2.1c4.8-1.3,9.5-2.5,14.1-4.4c3.9-1.6,7.8-2.9,11.7-4.3C682.2,117.4,681.9,105.8,681.3,101.8z M521.4,560.8
		c0.7-0.9,1.7-1.8,2.2-2.9c1.5-3.7,2.8-7.4,4.2-11.1c0.3-0.9,0.6-1.9,1-2.8c0.7-1.7,1.5-3.4,2.2-5.1c3.8-9.9,7.6-19.8,11.5-29.7
		c18.9-49.2,37.8-98.5,56.7-147.7c24.8-64.7,49.7-129.4,74.5-194.1c4-10.4,8-20.8,12-31.1c0.4-1,0.8-2.1,1-3.2
		c0.2-0.7-0.3-1.1-1.4-0.9c-59.3,152.9-118.7,306-178,458.9c1.6,2,1.6,2.1,3.1,2.1c1-2.8,1.9-5.6,3-8.3c2.5-6.7,5.1-13.4,7.7-20.1
		C521.7,563,521.7,563,521.4,560.8z M513.1,591.1c2.4,3,5.2,4.3,8.6,4.7c2,0.2,3.9,0.5,5.9,0.8c5.4,0.9,10.8,1.3,16.2,0.6
		c4.9-0.6,9.8-1.5,14.6-2.3c5-0.9,8.8-3.6,12-7.6c-0.1-0.7-0.2-1.4-0.4-2.2c-4,1.6-7.7,3.2-11,5.7c-0.9,0.7-1.7,1.5-2.6,2.1
		c-0.7,0.4-1.4,1.1-2.4,0.5c1-0.9,2.2-1.7,3-2.7c2.7-3.2,5.9-5.6,10-6.7c0.5-0.1,0.9-0.3,1.4-0.5c0.4-0.2,0.8-0.5,1.1-0.7
		c-0.2-1.1-1-1.3-1.7-1.4c-2.3-0.4-4.6-0.8-6.9-1.2c-1.2-0.2-2.4-0.5-3.4-1.2c-2.9-2.1-5.9-4-8.9-6.1c-1,0.4-2,1-3.1,1.3
		c-2.1,0.5-4.3,1-6.5,1.3c-0.8,0.1-1.8-0.1-2.1-1.1c-0.2-0.6,0.4-1.4,1.6-1.7c1.2-0.3,2.4-0.6,3.6-0.9c1.6-0.3,3.1-0.5,4.8-0.8
		c-0.3-1.9-1.8-3-2.8-4.4c-2.5,0.6-4.9,1.2-7.2,1.8c-1.8,0.4-3.6,0.9-5.4,1.3c-0.6,0.1-1.2-0.1-1.5-0.8c-0.3-0.7,0.1-1.3,0.5-1.6
		c1-0.7,2.1-1.3,3.2-1.8c0.9-0.4,1.9-0.6,3.2-1.7c-1.4,0.3-2.1,0.4-2.8,0.5c-2.2,0.5-4.3,1.1-6.5,1.6c-0.6,0.1-1.2,0.1-1.6-0.5
		c-0.4-0.5-0.2-1.5,0.5-1.9c1-0.6,2.1-1.3,3.3-1.7c2.4-0.8,4.9-1.4,7.5-2.1c-1.2-1.6-2.7-2.1-4.6-1.5c-1.5,0.5-3,1.1-4.5,1.6
		c-3.8,1.3-3.2,1.1-4.6,4.6c-2.1,5.4-4.2,10.8-6.2,16.3C515.8,584.2,514.4,587.6,513.1,591.1z M744.7,144.2
		c-0.4,1.2-0.8,2.3-1.2,3.3c-17.9,47-35.7,94-53.6,141c-32.9,86.6-65.8,173.2-98.7,259.8c-0.3,0.8-0.7,1.6-0.9,2.4
		c-0.2,0.8,0,1.4,1.3,1.5c51.8-136.8,103.7-273.6,155.5-410.3c0-1.3-0.2-2.5-0.1-3.7c0.3-3.4,0.7-6.9,1-10.3
		c0.7-8.2,1.6-16.5,3.2-24.6c0.2-1,0.4-1.9,0.5-2.6c-0.3-1.2-1.8-0.6-1.8-2c0.7-0.3,1.4-0.6,2.1-0.9c-2.9-0.1-5.6-0.7-8.3-2.3
		c-0.1,7.9,0,15.4,0.2,22.9c0.3,7.5,0.6,15.1-0.3,22.6C743.6,142,744,143,744.7,144.2z M550.5,543.2c1.4-7.8,2.3-15.6,2.6-23.5
		c0.2-4.6-0.7-9.1-0.1-13.7c0.1-0.7-0.2-1.4-0.3-2.2c-0.1-1-0.3-2,0-2.9c0.9-3.2,0.3-6.3-0.8-9.5c-1.3,0.8-1.4,2.2-1.8,3.3
		c-5.5,14.3-11,28.6-16.5,42.9c-0.8,2.1-1.6,4.2-2.4,6.2c-0.4,1-0.5,1.9-0.1,2.9c0.3,0.8,0.4,1.7,0.8,2.5c1.1,2.7,2.4,5.2,4.7,7
		c0.5,0.4,1.2,0.6,1.6,0.8c1.2-1.5,2.3-2.7,3.2-3.9c0.5-0.7,1.2-1.4,1.3-2.2c0.5-3.1,2.7-5.2,4.3-7.6c0.3-0.4,0.8-0.6,1.2-0.9
		C549,542.6,549.7,542.9,550.5,543.2z M515.6,33.2c-0.5,0.3-0.9,0.5-1,0.7c-0.9,1.9-1.8,3.8-2.5,5.8c-1.2,3.9-1.5,8-1.3,12.1
		c0.1,3.7,0.3,7.4,0.4,11.1c0,0.7,0,1.7,0.4,2.1c1.5,1.4,1.3,3.1,1.3,4.8c0,7.5,0,15.1-0.1,22.6c0,0.3,0.2,0.6,0.4,1.1
		c1-0.4,1.8-0.8,2.9-1.3c-1.4-6.9-1.2-13.8-1.1-20.7c0.1-7,0.2-13.9,1.1-20.9c0.2,1.5,0.3,2.9,0.3,4.4c0.1,7,0.1,14.1,0.2,21.1
		c0.1,3.3,0.4,6.7,0.7,10c0.1,0.7,0.5,1.3,0.8,2.2c1-1.7,1-3.2,0.8-4.9c-1.4-10.3-1.3-20.7-0.4-31c0.1-0.6,0.3-1.2,0.4-1.8
		c0.5,9.7-0.1,19.3,0.6,28.9c0.9-0.3,0.9-0.9,1-1.5c0.1-2.3,0.3-4.7,0-7c-0.6-5.3-0.4-10.6,0.1-15.9c0.1-0.9,0.2-1.7,0.2-2.6
		c-0.1-1.2-0.2-2.5-0.6-3.6c-0.8-2.6-1.9-5-1.9-7.8c0-1.8-0.4-3.7-0.5-5.5c-0.1-1.4-0.2-2.9-0.3-4.5c-1.1,2.2-1,2.2-1.2,6.6
		c-0.1,2.1,1.1,4.1,0.4,6.8C515.7,40.5,516.5,36.8,515.6,33.2z M764,97.5c0.1-1.3,0.1-2.3,0.3-3.2c1.3-5.6,0.4-5.9-2.4-9.4
		c-1-1.2-1.7-2.7-2.5-4.1c-0.2-0.3,0-0.8,0.1-1.5c0.5,0.4,0.9,0.6,1.1,0.9c1.3,1.7,2.4,3.5,3.8,5c2.1,2.3,2.5,5,2,7.9
		c-0.3,1.7-0.7,3.4-1,5c-1.1,0.9-2.1,1.7-3.1,2.6c0.4,0.4,0.6,0.7,0.9,1c1.5-0.8,3.1-1.5,4.5-2.5c0.7-0.4,1.5-1.2,1.6-1.9
		c0.8-3.5,1.1-7.1-1-10.4c-0.8-1.2-1.6-2.5-2.3-3.8c-0.6-1.2-1.3-2.4-1.4-3.7c0.3-0.5,0.6-0.9,1-1.4c-2.1-0.2-4-0.1-5.7-1.4
		c-0.7-0.6-1.7-0.2-2.4,0.4c-0.7,0.5-1.2,1.2-1.9,1.7c-2.1,1.4-4.3,2.8-6.5,4.2c-0.5,0.3-0.8,0.8-1.5,1.5c3-0.1,5.4,0.4,7.3,2.1
		c0.2,0.2,0.7,0.1,1,0.3c0.6,0.2,1.2,0.4,1.6,0.8c1.3,1.3,2.3,2.9,2.4,4.9c0.1,1.8-0.3,3.4-1.8,4.6c-0.2,0.1-0.2,0.4-0.3,0.9
		c0.5,0.4,1,0.9,1.6,1.1C761.4,99.7,762.6,98.5,764,97.5z M518.9,90.9c0.5,0.1,0.9,0.4,1.1,0.3c1.6-0.6,3.2-1.3,4.8-1.9
		c3.7-1.4,5.4-4.4,5.8-7.9c0.4-3.4,0.2-6.9,0.1-10.3c0-1.4-0.6-1.5-2.3-0.9c-0.1,0-0.3-0.2-0.7-0.3c0.3-0.5,0.6-1,0.8-1.6
		c-0.5-0.5-1.2-0.8-0.9-1.7c0.2-0.5,0.3-1.2,0.1-1.8c-0.5-1.4-1.1-2.7-2-4.6c-0.2,1.6-0.3,2.5-0.4,3.6c-1.9-2.2-1.5-5.1-3.3-7.5
		c-0.3,5.7-0.1,11,0.7,16.2c0.3,2.2,0.7,4.4-0.6,6.4c-0.2,0.3-0.2,0.7-0.2,1.1C521.5,83.6,520.9,87.4,518.9,90.9z M681.4,91.7
		c-5,1.9-9.5,3.8-14.1,5.5c-4.2,1.5-8,3.8-12,5.5c-0.1,0-0.1,0.2-0.2,0.5c9.1,0.1,17.8-1.9,26.5-4.7c0-1,0.1-2,0.1-3
		C681.5,94.3,681.4,93.1,681.4,91.7z M751,85.5c-1.1,0.2-2.1,0.3-3.1,0.5c-1.7,0.4-2.6,1.5-2.8,3.1c-0.3,2.8-0.5,4.8,3.2,6.7
		c0.6,0.3,1.4,0.5,1.9,0.7c2.8-1.1,3.3-3.7,5.2-6.3c-0.1,1.3,0,2-0.3,2.4c-0.5,1.1-1.2,2.1-1.8,3.2c-0.4,0.7-0.4,1.4,0.4,1.8
		c1.8-0.2,3.1-1.1,3.7-2.7c0.7-1.7,0.1-3.4-0.9-4.9c-0.3-0.4-0.6-0.8-0.9-1.1C754.2,87.8,752.7,86.7,751,85.5z M749.8,136.6
		c1.6-1,2.1-2.6,2.8-4c3.4-7.9,7.4-15.6,11.9-23c1.2-1.9,2-4,2.8-6c0.3-0.8,0-1.5-1-1.6c-0.9,0.5-1.8,1.1-2.6,1.6
		c-0.6,2.9-0.7,2.9-2.7,5.1c-0.5,0.5-0.8,1.2-1.1,1.9c-2.9,6.3-5.6,12.6-7.6,19.3c-0.4,1.3-1.1,2.5-1.5,3.7
		C750.3,134.5,750.1,135.6,749.8,136.6z M752.3,107.5c-0.9,4.1-1.6,13-1.3,18.6c2.6-6,5-11.6,7.4-17.2
		C756.3,108.4,754.3,107.9,752.3,107.5z M761.4,103.2c-2.9-0.4-5-2.3-7.4-3.8c-1.6,1.7-1.5,3.6-1.3,5.5c2.7,1.7,5.3,1.8,8.2,0.9
		C761.1,104.9,761.2,104.2,761.4,103.2z M571,125c3,1.3,5.9,1.9,8.8,2.1c0.9,0.1,2,0.3,2.9-0.6c-0.3-1.6-1.7-2.5-2.5-3.9
		C577,123.3,574,123.6,571,125z M581.8,122c1.2,1.7,2.4,3.3,3.5,4.8c1.4,0.2,2.7,0.5,3.5-1.2c-0.6-1.5-1.2-2.9-1.8-4.4
		C585.1,120.8,583.6,121.8,581.8,122z M597.3,124.9c1-1.8,1.6-3.3,1.7-5.3c-2.1,0-4.1,0-6.1,0.1c-0.4,0-0.8,0.3-1.4,0.6
		C593.4,122.1,594.9,123.7,597.3,124.9z M528.9,550.8c-1.2,1.9-1.8,3.8-2.4,5.7c0,0.1,0.2,0.4,0.4,0.7c0.9-0.3,1.8-0.5,2.7-1
		c0.8-0.4,1.9-0.3,2.6-1.4C531.1,553.6,530.1,552.3,528.9,550.8z M507.7,95.7c1.4,0.2,2.1-0.3,2.3-1.4c0.6-2.9,0.9-5.8,0.3-8.8
		C509.6,88.9,507.5,92,507.7,95.7z M561,5.3c4.8,2.6,4.9,2.6,6.8,2.5C565.9,6.1,563.8,5.8,561,5.3z M547.5,7.8
		c0,0.1-0.1,0.2-0.1,0.3c1.7,0,3.4,0,5.1,0c0.1,0,0.1,0,0.9-0.3C550.9,7.8,549.2,7.8,547.5,7.8z M543.6,40.5c0,0.1,0,0.1,0,0.2
		c0.9,0,1.8,0,2.7,0c0-0.1,0-0.1,0-0.2C545.4,40.5,544.5,40.5,543.6,40.5z M541.6,563.5c-0.1-0.3-0.1-0.5-0.2-0.8
		c-0.6,0.2-1.2,0.5-2.4,1C540.3,563.6,541,563.6,541.6,563.5z M518.3,15.4c-0.1-0.1-0.1-0.2-0.2-0.2c-0.2,0-0.5,0-0.7,0.1
		c0.1,0.1,0.2,0.4,0.2,0.4C517.9,15.6,518.1,15.5,518.3,15.4z M556.7,18.5c0.1,0,0.2-0.1,0.3-0.1c-0.1-0.1-0.2-0.1-0.3-0.2
		c-0.1,0-0.2,0.1-0.3,0.1C556.6,18.3,556.6,18.4,556.7,18.5z M556.6,4.1c-0.1,0-0.2,0.1-0.3,0.1c0.1,0.1,0.1,0.2,0.2,0.2
		c0.1-0.1,0.3-0.1,0.4-0.2C556.9,4.1,556.7,4.1,556.6,4.1z M562.5,11.6l0.3,0.1l0-0.2L562.5,11.6z M559.9,5c0,0-0.1-0.1-0.1-0.1
		c-0.1,0-0.2,0-0.3,0c0,0.1,0.1,0.1,0.1,0.1C559.7,5.1,559.8,5,559.9,5z M509.6,81l0.1,0.3L509.6,81L509.6,81z"/>
	<path d="M136.9,549c1.5,0.5,2,0.4,2.4-0.6c0.9-2,1.6-4.2,0.9-6.4c-0.7-2.6-0.3-5.1,0.6-8c1.2,5,1,9.7,1.1,14.4c0,1-0.1,2.1-0.6,2.9
		c-1,1.8-0.6,3.6-0.3,5.6c2.2-0.4,4-1.4,5.3-3.1c2.4-2.9,4.8-5.9,7.4-8.8c1-1.1,1.8-2.3,2.1-3.8c2.2-10.8,4.5-21.5,6.7-32.3
		c0.3-1.7,0.4-3.4,0.6-5.2c0.5-4,1.2-8.1,1.5-12.1c0.3-3.3,0.6-6.6,1.2-9.9c0.2-1,0.2-2,0.2-3c-0.2-2.4,0.3-4.7,1-6.9
		c2-6.8,3.8-13.6,6-20.2c1.1-3.4,2.1-6.8,2.9-10.3c0.3-1.3,0.7-2.6,1.6-3.7c0.5-0.6,0.8-1.5,1-2.3c2.5-11.3,4.9-22.7,7.3-34.1
		c1.9-8.7,3.7-17.4,5.6-26.1c0.2-1.1,0.5-2.2,0.5-3.3c0-6.3,0.4-12.6,0.1-18.9c-0.2-4.6-0.1-9.1-0.1-13.7c0-1.9-0.2-3.7-0.7-5.5
		c-1.2-4.7-2.3-9.4-3.3-14.1c-0.6-2.8-1-5.6-1.5-8.9c-1.4-1.3-3.7-1.3-5.9-1.2c-2.2,0.1-4.4,0.5-6.6,0.8c-6.4,0.9-12.7,1.8-19.1,2.7
		c-3.7,0.5-7.2,1.7-10.5,3.5c-1.5,0.8-3,1.6-4.6,2.2c-2.4,0.9-4.1,2.7-6.1,4.5c0.3,1.1,0.7,2.2,0.9,3.4c0.2,1.2,0.2,2.5,0.4,3.7
		c0.2,1.2,0.5,2.4,0.8,3.6c0.1,0.5,0.5,0.9,0.5,1.4c0.8,6.6,3.6,12.6,5.3,18.9c0.6,2.1,1.1,4.3,1.6,6.5c0.8,3.4,1.6,6.7,2.4,10.1
		c1.5,6.5,3.1,13,4.6,19.5c0.2,1,0.6,1.9,0.8,2.8c2.2,7.3,2.9,14.7,1,22.3c-1,4-2,7.9-3.2,11.8c-0.7,2.2-0.8,4.6-1.5,6.8
		c-0.9,2.8-2,5.6-3.3,8.2c-0.7,1.3-1.3,2.7-1.6,4.1c-1.8,7.3-3.5,14.7-5.2,22c-0.3,1.3-0.4,2.7-0.4,4c0,2.8,0.1,5.7,0.3,8.5
		c0.2,3.9,0.4,7.9,0.8,11.8c0.2,2.6,0.7,5.1,1.3,7.7c1.8,7.5,2.9,15,2.3,22.8c-0.2,2.8-0.2,5.7-0.3,9.4c-1-3.7-1.3-6.6-1.7-9.6
		c-0.2-1.6-0.3-3.2-0.4-4.8c-0.3-3.6-0.8-7-1.9-10.5c-2.1-6.9-3-14-3.2-21.2c-0.1-3.6-0.4-7.1-0.6-10.7c-0.5-9.7,1.1-18.9,5.3-27.7
		c0.3-0.6,0.4-1.1,0.6-1.7c1.6-4.8,3.2-9.6,4.8-14.4c0.8-2.5,1.7-4.9,2.7-7.3c1.8-4.2,2.8-8.7,3.3-13.2c0.6-4.9,0.8-9.9-0.4-14.7
		c-0.3-1.2-0.6-2.4-1-3.5c-0.9-2.6-1.8-5.1-2.9-7.6c-1.9-4.7-3.3-9.6-4-14.6c-1.1-8.1-3.8-15.8-5.8-23.7c-1.2-4.7-2.2-9.4-3.3-14.1
		c-0.1-0.5-0.2-1-0.1-1.5c0.6-4.5-0.9-8.6-2.8-12.5c-2.3-5-3.2-10.4-4.4-15.6c-0.1-0.4-0.1-0.7-0.1-1.1c-0.2-10.1,0.3-20,3.4-29.7
		c1-3.2,2.3-6.3,4.1-9.1c0.4-0.6,0.8-1.3,1.1-1.9c2.8-6.9,6.9-13.1,11.5-18.9c3.7-4.7,6.9-9.7,9.3-15.1c1.2-2.7,1.5-5.3,0.6-8.2
		c-1.6-5.1-2.8-10.3-4.3-15.3c-2.5-8-5.1-16-7.8-24c-2.7-8.2-5.4-16.4-8.1-24.6c-1-3-1.7-6.2-3.2-9.1c-0.9-1.8-1-3.8-1.2-5.8
		c-0.5-8.4,0.8-16.5,3.5-24.4c0.8-2.4,1.8-4.6,3.3-6.6c1.9-2.6,3.8-5.2,6.5-7c1.1-0.8,2.1-1.7,3.3-2.4c2.8-1.8,4.7-4.3,6-7.3
		c0.5-1.2,0.7-2.3,0.5-3.6c-1.2-6.6-1.3-13.2-0.9-19.9c0.3-6,0.3-12.1,0.4-18.2c0-1,0.1-1.9,0.5-2.9c0.1,1,0.2,1.9,0.2,2.9
		c0.2,8,0.4,16.1,0.6,24.1c0.1,2.2,0.1,4.5,0.3,6.7c0.1,1.5,0.5,2.9,0.9,4.9c0.5-1,1-1.5,1.1-2.1c0.1-1.3,0-2.7-0.1-4.1
		c-0.2-3.6-0.7-7.1-0.7-10.7c-0.1-6.1,0.1-12.1,0.3-18.2c0-0.9-0.2-2,1-2.8c0.4,1.4,0.1,2.7,0,3.9c-0.1,1.5-0.2,3-0.2,4.4
		c0,1.4,0,2.7,0,4.1c0,1.4,0,2.7,0,4.1c0,1.4,0,2.7,0,4.1c0,1.5,0,3,0.2,4.4c0.1,1.3,0.4,2.7,0.9,4c0.1-0.7,0.3-1.4,0.3-2.1
		c0-3.7,0.1-7.4-0.2-11.1c-0.3-4.1,0.1-8.1,0.4-12.2c0.2-2.3,0.2-4.4-0.7-6.5c-0.9-2-1.4-4.1-1.5-6.3c-0.1-2.1-0.5-4.2-0.7-6.2
		c-0.2-1.5-0.3-2.9-0.4-5c-0.9,4.1-0.8,9.3,0,13.8c-0.5,0.6-0.5-0.1-0.7-0.3c-0.2-0.3-0.4-0.6-0.5-1c-0.1-1.5,0-3-0.2-4.4
		c-0.1-1.7,0.1-3.4-1.1-5.1c-1.8,2.2-2.6,4.7-3.3,7.2c-0.9,3.2-1,6.6-1,9.9c0,2.5,0.2,4.9,0.2,7.4c0,2.3,0,4.7,0,6.9
		c0.6,0.8,1.6,1.1,1.6,2.4c0,2.2,0.3,4.4,0.4,6.7c0.1,3.7,0,7.4,0.1,11.1c0.2,3.7-0.4,7.4-0.9,11.1c-0.2,1.4-0.6,2.6-2.1,3.2
		c-0.7-1.9-0.6-1.9-0.4-3.5c0.3-2.3,0.5-4.7,0.7-7c0.1-0.7-0.1-1.4-0.3-2.9c-0.8,2.6-1.3,4.3-2,6c-0.6,1.8-0.9,3.6-1,5.4
		c0,1.2-0.4,2.4-1.4,3.8c-0.2-1.1-0.4-1.8-0.6-2.8c-0.6,1.1-1,1.9-1.5,2.8c-0.2-0.2-0.5-0.4-0.5-0.5c0.3-1.6,0.5-3.2,1-4.7
		c1.4-4.2,1.2-8.5,0.6-12.8c-0.1-1.1-0.3-2.2-0.4-3.3c-0.2-5.5-1.1-10.8-2.3-16.1c-0.3-1.4-1-2.8-1.4-4.2c-0.4-1.2-0.8-2.4-0.9-3.6
		c-0.6-8.7,0-17.3,2.9-25.6c1.9-5.3,4.6-10.1,8.6-14.1c0.5-0.5,1-1.1,1.5-1.6c0.2-0.3,0.4-0.6,0.6-1.1c3.3-0.4,6.6,0,9.9,0.6
		c1.6-1.4,3.1-2.8,4.7-4.2c1.6-1.4,3.1-2.9,4.8-4.1c1.3-0.9,2.8-1.6,4.3-2.1c3.7-1.2,7.5-1.6,11.3-1.6c6.1,0,12.1,0.8,17.8,3
		c0.7,0.3,1.4,0.5,2.1,0.7c5.9,1.1,10,4.5,12.5,9.9c1.8,3.8,3.5,7.6,5.1,11.5c0.9,2.2,1.1,4.5,1,6.9c-0.1,2-1.4,3.4-2.3,5
		c0.6,0.3,1.1,0.5,1.8,0.9c-0.6,0.5-1.1,1-1.7,1.5c0,0.2-0.1,0.5-0.1,0.7c0.9,2.7,1.6,5.5,3.8,7.5c0.4,0.4,0.7,1,0.9,1.6
		c0.6,1.6,0.2,3.3-1.1,4.3c-0.7,0.5-1.4,1-2,1.4c-0.6,1.1-0.3,2,0.1,3c0.6,1.7,0.4,3.2-1.1,4.3c0.3,1,0.8,2,0.8,2.9
		c0,0.9-0.6,1.8-0.9,3c0.2,0.8,0.6,1.8,0.8,2.9c0.4,2.4-0.7,4.4-2.9,5.4c-0.9,0.4-1.9,0.7-2.8,0.9c-1.8,0.3-3.7,0.4-5.5,0.6
		c-1.9,0.2-3.9-0.5-5.8-0.9c-0.4-0.1-0.7-0.2-1.3-0.3c-0.3,0.6-0.7,1.3-0.7,1.9c-0.1,1.1,0,2.2,0,3.3c0.1,2.3,0.2,4.7,0.5,7
		c0.2,1.7,0.8,3.3,1.3,5c0.4,1.4,1.5,2.5,1.8,4c0.2,1,1.4,1.3,2.3,1.6c1.3,0.3,2.7,0.5,4,0.8c2.3,0.5,4.2,1.9,6.1,3.3
		c5.1,3.9,8.5,8.9,10.7,14.8c0.4,1,1,2,1.6,2.9c0.2,0.4,0.5,1,0.9,1.1c2.3,0.6,3.3,2.8,5,4.1c1.9,1.4,3.5,3.1,5.2,4.8
		c1.6,1.5,3.1,3.2,4.7,4.7c4.2,4.1,6.4,9,6.2,14.9c0,1.7,0,3.5,0.1,5.2c0.1,2.4-0.4,4.7-1.7,6.7c-0.9,1.5-1.7,3-2.9,4.3
		c-2.5,2.8-4.1,6.2-5.9,9.3c-1,1.8-1.6,3.9-2.4,5.8c0.6,0.8,1.3,1.5,1.7,2.3c0.4,0.8,0.4,1.7,0.6,2.5c0.9,3.5,1.7,6.9,4.4,9.6
		c0.7,0.8,1.1,1.9,1.6,2.9c1.4,3.3,2.9,6.6,4.2,9.9c0.7,1.7,1.3,3.4,1,5.4c-0.1,0.9,0.2,1.9,0.4,2.9c2.6,10.2,5,20.4,7.8,30.5
		c0.9,3.3,1.7,6.7,2.5,10c1.3,5.5,3.1,10.9,5.2,16.2c0.9,2.2,1.9,4.3,2.5,6.6c0.7,2.9,2.4,4.8,4.9,6.2c1,0.6,1.8,1.3,2.8,1.8
		c2.9,1.5,4.7,4.3,7.3,6.2c0.5,0.3,0.8,0.9,1.1,1.5c0.6,1.1,0.4,1.7-0.7,3.5c-3.6-5.1-8.1-9.2-13.1-12.8c-0.6,0-1.2,0.1-1.9,0.1
		c-0.5-0.8-1.1-1.6-1.4-2.5c-3.2-7.9-6.6-15.8-8.2-24.2c-0.8-4.3-2.1-8.4-3.6-12.4c-2.8-8.1-4.6-16.4-6.4-24.7
		c-0.8-3.5-1.7-7-1.5-10.6c0-0.8-0.4-1.6-0.7-2.4c-1.4-3.3-2.9-6.5-4.3-9.8c-0.2-0.6-0.3-1.2-0.7-1.7c-2.4-3.3-3.4-7.1-4.3-11
		c-0.1-0.6-0.4-1.2-0.6-2.1c-0.8,2.5-0.7,4.8-0.9,7c-0.3,5.4-2.3,10.3-4.5,15.2c-0.7,1.5-1.4,2.9-2.2,4.3c-1,1.8-1.6,3.6-1.7,5.6
		c-0.1,2.5-0.2,4.9-0.2,7.4c0,2.5,0.1,4.9,0,7.4c-0.1,1.9,0.3,3.7,1.3,5.3c2.8,4.7,5.5,9.4,8.4,14c4.8,7.6,9.8,15.2,14.7,22.7
		c0.3,0.4,0.5,0.8,0.8,1.2c0.6-0.2,1-0.3,1.6-0.6c0,0.7,0.2,1.4,0,1.9c-0.8,1.3-0.3,2.4,0.4,3.4c0.7,0.9,1.3,1.8,1.5,2.9
		c0.1,0.5,0.4,1.1,0.2,1.4c-1.2,2,0,3.8,0.2,5.7c0.3,2.1,0.6,4.1,0.9,6.2c0.1,0.5-0.1,0.9-0.1,1.3c-1.2,0.9-1.6-0.6-2.6-0.6
		c-1.9,0.8-3.1,2.4-3.7,4.6c-0.5,2-0.7,4,0.4,5.8c2,3,2.8,6.3,3.7,9.6c1.5,5.4,2.9,10.7,4.4,16.1c1.1,4,2.4,8.1,3.6,12.1
		c0.2,0.7,0.6,1.3,1.1,2.1c0.7-0.7,1.4-1.1,1.7-1.6c0.5-1,0.7-2.1,1-3.2c2.1-6.7,4.3-13.4,7.5-19.7c1.4-2.9,3-5.6,4.6-8.5
		c0.9,0.5,0.6,1.1,0.4,1.6c-0.4,1-0.9,2-1.4,3c-3.4,6.9-6,14.1-8.1,21.5c-0.5,1.9-1.1,3.8-1.6,5.7c-0.2,0.8-0.4,1.8-0.9,2.4
		c-1.5,1.7-1.8,3.7-2.2,5.8c-4.4,21.8-8.8,43.6-13.2,65.4c-4.1,20.3-8.2,40.7-12.3,61c-4.3,21.4-8.6,42.9-12.9,64.3
		c-0.4,2.2-0.9,4.4-1.3,6.6c1,1.4,1.9,2.8,3,4.5c3.9,1.5,8.1,3,12.3,4.5c0.9,0.3,2,0.3,2.9,0.3c3.8-0.3,7.3,1.1,11,1.3
		c0.4,0,0.7,0.3,1.1,0.3c3.1,0.8,4.4,3,4.6,6c0.1,1.1-0.1,2.2-0.2,3.3c-0.2,1.7-0.2,1.7,0.7,4.1c-0.5,0.6-0.9,1.3-1.6,1.9
		c-3.2,2.7-6.5,5.4-10.9,6c-0.2,0-0.5,0.1-0.7,0.3c-3,2.1-6.6,2.1-10,2.3c-6.1,0.3-12.1-0.2-18.1-1.4c-2.5-0.5-5.1-1.1-7.6-1.6
		c-0.9-0.2-1.9-0.2-2.9-0.2c-1.9,0-1.9,0-3.6-2.2c0.6-0.2,1.1-0.6,1.7-0.7c3.2-0.4,6.4,0.3,9.6,0.8c0.1,0,0.2,0.1,0.4,0.1
		c4.5,1.3,9,1.1,13.6,0.6c3-0.3,6.2-0.4,9.2,0c5.5,0.8,10.2-1,14.7-3.9c1.4-0.9,2.8-2,4.1-2.9c0.7-1.9-0.7-3.2-0.9-4.8
		c-0.1-1.5-0.6-2.9-0.9-4.2c-1.6-0.9-3.1-1.3-4.7-1.5c-3.4-0.4-6.8-1-10.3-0.9c-0.9,0-1.9-0.4-2.8-0.8c-2.1-0.8-4.2-1.6-6.2-2.4
		c-1.7-0.7-3.4-1.3-5.4-0.9c-1.2,0.2-1.8-0.5-2.1-1.6c0-0.2-0.3-0.3-0.7-0.6c-1,0.3-2.2,0.7-3.4,0.9c-0.7,0.2-1.5,0.2-2.2,0.1
		c-0.4-0.1-0.9-0.6-1-1c-0.1-0.4,0.2-1.1,0.5-1.3c1.2-0.6,2.5-1.1,3.7-1.6c-1.3-2.1-1.3-2.1-3.3-1.7c-1.4,0.3-2.9,0.5-4.4,0.7
		c-0.5,0.1-1-0.1-1.4-0.3c-0.7-0.2-0.9-1.5-0.3-1.9c0.6-0.4,1.2-0.8,1.9-1c1.1-0.2,2.2-0.2,3.4-0.4c-0.1-0.4-0.1-0.8-0.3-1.1
		c-0.4-0.6-1-1.1-1.5-1.7c-2.9,0.4-5.2,2.5-8.2,2.9c-0.3-0.4-0.7-0.9-0.8-1.4c-0.1-0.4,0.1-1.1,0.4-1.3c0.7-0.6,1.6-1.2,2.5-1.5
		c1.3-0.4,2.6-0.6,4.1-1c-1.1-1.4-2.2-2.6-3-3.9c-0.8-1.2-1.3-2.6-2.1-4c-2.2,1-3.2,3-4.7,4.3c-1,0.9-0.9,1.9-1.1,3.3
		c-1.4,0.9-2.9,1.9-4.5,2.8c-2.6,1.6-5.3,3.2-7.9,4.8c-2.2,1.3-3.7,1.3-5.8-0.3c-2.7-2.1-5-4.5-4.6-8.6c-1.7,0.9-1.8,2.5-2.7,3.6
		c-0.3,3.7-2.9,5.8-5.4,8.4c0.4,0.4,0.7,0.9,1.2,1.2c1.8,1.2,3.1,2.9,3.9,4.8c0.9,2.1,2.4,3.7,4.1,5.2c1.4,1.3,2.6,2.6,3.9,3.9
		c0.6,0.6,1.2,1.3,1.9,1.7c3.2,1.8,6.4,3.7,10.2,4.1c1.3,0.1,2.7,0.5,4,0.9c1.1,0.3,1.7,1.1,1.8,2.1c0.1,1.1,0.1,2.2,0,3.3
		c-0.1,1.1-0.9,2,0,3.2c0.2,0.2,0,1-0.3,1.4c-2.3,3.7-5.3,6.5-9.9,6.9c-0.7,0.1-1.5,0.2-2.2,0.4c-5.7,1.2-11.4,2.4-17.2,2.9
		c-1,0.1-2,0.1-2.9,0.1c-2.3-0.1-4.7-0.2-7-0.4c-1.2-0.1-2.5-0.2-3.7-0.4c-2.7-0.4-5.4-0.7-8.1-1.1c-1-0.1-2-0.3-2.9-0.6
		c-2.3-0.8-4.6-1.7-7.1-1.9c-0.8-0.1-1.7-0.5-2.4-1c-1.2-0.9-2.4-1.1-3.8-1.1c-5.1,0.1-10-1-14.8-2.8c-1.5-0.6-3-1.1-4.7-1.7
		c0-0.4-0.3-1-0.1-1.5c0.9-2.3,1.5-4.7,1.5-7.2c0-1.6,0.8-3.1,1.3-4.6c0.9-2.9,1.9-5.9,2.9-8.8c0.8-2.3,1.8-4.6,2.6-6.9
		c0.4-1.2,0.7-2.4,0.8-3.6c0.2-2.2,1-4.1,2-5.9c0.7-1.3,1.8-2.3,3.2-2.9c0.7-0.3,1-0.2,2.1,0.9C138.9,548.1,136.7,547.6,136.9,549
		c-0.2,0.3-0.5,0.6-0.7,0.9c-1.7,1.6-2.3,3.6-2.1,6c0.2,3.3-0.7,6.4-2.8,9c-0.7,0.8-1,1.6-1.2,2.6c-0.5,2.3-0.9,4.6-1.8,6.8
		c-1.5,3.7-1.6,7.7-2.5,11.7c2.3,0.8,4.5,1.6,6.7,2.3c3.8,1.3,7.8,0.5,11.7,1.3c0.4,0.1,1.1-0.6,1.3-1c0.4-0.9,0.5-1.9,0.7-2.9
		c2.1-9.7,4.1-19.3,6.2-29c0.5-2.2,0.9-4.3,1.4-6.5c-1.7,1-3.2,2-4,3.7c-0.6,1.3-1.6,2.2-2.7,3c-1.3,0.9-2.7,1.8-4.1,2.5
		c-0.9,0.4-1.7,0.8-2.3,1.7c-0.5,0.7-1.3,0.6-2,0.1c-0.8-0.7-1.4-1.4-1.1-2.6c0.2-0.6,0.3-1.2-0.1-1.8c-1.5-2.2-1.6-4.6-1.5-7.1
		C136.4,549.6,136.6,549.3,136.9,549z M154,18c-0.6-0.1-0.8,0.2-0.8,0.7c-0.9-0.2-1.4,0.4-1.9,0.9c-2.8,3.2-4.6,6.9-5.3,11.1
		c0.3-0.3,0.6-0.6,0.7-1c1.4-3.4,3.2-6.6,5.6-9.5c0.4-0.4,0.5-1.1,0.8-1.6C153.7,18.7,153.9,18.4,154,18c0-0.2,0.7-0.1,0.2-0.5
		C154.1,17.7,154.1,17.8,154,18z M188.1,25.4c-0.3,0.1-0.6,0.2-0.8,0.3c0.1,0,0.3,0.2,0.3,0.1C187.7,25.7,187.9,25.5,188.1,25.4
		c0-0.2,0.1-0.2,0.1-0.3C188.2,25.2,188.1,25.3,188.1,25.4z M202.9,9.1c-0.1-0.2-0.2-0.4-0.4-0.5c-0.1,0-0.3,0.1-0.5,0.2
		c0.1,0,0.2,0.1,0.3,0.1C202.5,9,202.8,9,202.9,9.1c0.3,0.9,1,0.6,1.6,0.6c0.2,1.1,1,1.5,2.1,1.6c0.6,1.3,2,2,2.5,3.4
		c0.2,0.5,1,0.5,1.6-0.3c-0.9-0.9-1.8-1.9-2.8-2.7c-0.3-0.3-0.9-0.2-1.3-0.3c-0.2-1.2-1.3-1.2-2.1-1.6
		C203.9,9.5,203.4,9.3,202.9,9.1z M192.5,11.3c-0.2-0.2-0.5-0.4-0.2-0.2C192,11,192.3,11.1,192.5,11.3c0.5,0.5,0.9,0.7,1.9,0.2
		C193.6,11.4,193.1,11.4,192.5,11.3z M194,2.4l-0.1-0.1L194,2.4c0.7,0.6,1.3,0.6,2.6,0.3C195.4,2.6,194.7,2.5,194,2.4z M163.5,52.9
		c0-0.1,0-0.2,0-0.3c0-0.1-0.1-0.1-0.1-0.1C163.4,52.6,163.5,52.7,163.5,52.9c0.6,1.4,0.6,1.5,2.3,1.3c0.3,0.3,0.5,0.5,0.8,0.8
		c0,0.1-0.1,0.3,0,0.4c1.5,1.9,3.6,2.3,6.1,2.5c-1.9-3.7-4.9-6.3-6.1-10.3c1.5-1,1.3-2.7,1.3-4.3c0-2.9,1.6-4.8,4-6.2
		c0.7-0.4,1.6-0.5,2.5-0.5c0.7,0,1.4,0.5,2.1,0.6c0.6,0,1.2-0.3,1.4-1.2c-1.2-0.2-2.4-0.3-3.6-0.5c-3.9-0.8-7.7-1.9-11.6-2.1
		c-1-0.1-1.9-0.6-2.8-0.9c-0.4-0.1-0.8-0.7-1.5,0c0.2,0.4,0.3,1,0.6,1.5c1.1,1.6,2.8,2.4,4.5,3.2c1.2,0.6,2.4,1.1,4.4,2
		c-4.1,0-6.7-1.9-9.4-3.4c-0.3,0.3-0.4,0.4-0.4,0.5c0.7,2.3,2.8,3.3,4.4,4.9c-0.7,0-1.3-0.2-1.8-0.4c-0.6-0.2-1.2-0.5-2-0.9
		c0.5,3.6,2.2,6,4.6,8.1c0.9,0.8,1.8,1.7,2.6,2.5l0.1-0.1c-0.5,0.1-0.9,0.3-1.5,0.5c1.3,2.3,3.8,2.9,6.2,4.8c-1.7-0.3-2.9-0.5-4-0.7
		c-0.3-0.3-0.5-0.5-0.8-0.8C165.2,53.4,164.6,52.7,163.5,52.9z M200,3.8c-0.5-0.4-0.9-0.8-1.9-0.1C198.9,3.7,199.5,3.7,200,3.8
		c1.7,1.5,3.4,2.3,5.4,2.3C203.7,4.5,203.3,4.4,200,3.8z M193.2,3.9c1,0.7,2,0.8,3.1,0.1C195.2,4,194.2,4,193.2,3.9
		c-0.4-0.1-0.6-0.5-1-0.5c-2.1-0.3-4.2-0.5-6.3-0.7c-0.7-0.1-1.5,0-2.2,0.1c-0.1,0-0.3,0.3-0.6,0.7C186.6,3.9,189.9,3.7,193.2,3.9z
		 M204.4,12.8c-0.1,0-0.3,0-0.4,0c-4.2-1.3-8-3.8-12.5-4.2c-1.5-1.5-3.5-1-5.3-1.1c-3.4-0.1-6.9-0.2-10.4-0.2
		c-0.1,0-0.2-0.1-0.4-0.3c1.1-0.2,2-0.4,2.9-0.5c0-0.1,0-0.2,0-0.4c-0.9-0.2-1.9-0.3-3.1-0.5c1.5-0.2,2.7-0.4,4.4-0.6
		c-3.6-1-6.2-0.5-8.3,2.1c0.5,0.9,1.4,0.8,2.1,0.9c3,0.6,6.1,1.1,9.1,1.7c0.4,0.1,0.8,0.5,1.2,0.7c-3.2-0.1-6.4-0.2-9.6-0.4
		c-1.5-0.1-2.9-0.3-4.4-0.3c-0.6,0-1.3,0.1-1.7,0.4c-2.2,1.7-4.5,3.4-6.2,5.9c0.7,0.7,1.2,1.3,1.8,1.8c-0.7-0.2-1.4-0.5-2,0.2
		c0.1,0.2,0,0.5,0.2,0.7c4,3.5,9.2,4.5,13.8,6.8c-5.5-0.3-10.3-2.6-14.8-5.4c-1.1,0.8-1.2,1.7-0.3,2.3c2,1.4,4.1,2.7,6.2,3.9
		c0.9,0.6,1.9,0.9,3.1,0.9c1.1,0,2.5,0,3.5,1c-0.8,0-1.4,0.2-0.8,1.2c0,0.1,0,0.2-0.1,0.3l0.1-0.1c-0.7-0.1-1.5-0.1-2.1-0.4
		c-3.1-1.6-6.1-3.2-9.2-4.8c-0.6-0.3-1-1.1-2-0.7c-0.3,1.8-1,3.7-0.5,5.7c1.6,1,2.9,2.4,4.9,2.4l0.1,0.2l-0.1-0.1
		c0.1-0.3,0.2-0.6,0.3-0.9c4.1,1.2,8.1,2.3,12.1,3.4c1.9,0.5,3.8,0.6,5.7-0.4c0.6-0.4,1.4-0.4,2.1-0.6c2-0.5,4-1.1,6-1.7
		c0.4-0.1,0.8-0.5,1.5-1.1c-0.9,0-1.3-0.1-1.8,0c-1.9,0.3-3.9,0.8-5.8,1c-0.7,0.1-1.6,0-2-0.4c-1.1-1.1-2.4-1.2-3.7-1.4
		c-1.6-0.4-3.3-0.6-4.7-1.6c1.1,0.1,2.3,0,3.3,0.3c2.6,0.7,5.1,0.1,7.6-0.5c0.6-0.1,1.1-0.5,2.2-1.1c-2.9-0.4-5-0.8-7.2-1.1
		c-0.5-0.1-0.9-0.2-1.4-0.4c-1.2-0.5-2.4-1.2-3.7-1.7c-2.1-0.9-4.2-1.7-6.4-2.5c0.4-0.5,0.7-0.9,1.1-1.2c3.8,1.6,7.5,3.1,11.5,4
		c0.8,0.2,1.7,0.4,2.5,0.2c2.7-0.5,5.3-1.1,7.9-1.8c1.3-0.3,2.5-0.7,3.9-0.3c0.6,0.2,1.4-0.1,2-0.2c0.3-0.9,0.9-1.7,0-2.5
		c-3.2,1.6-9.4,2.5-10.4,1.4c0.6-0.8,1.2-1.6,1.9-2.5c-2.3-1.1-4.6-1.5-6.9-2c-2.9-0.6-5.8-1-8.7-1.6c-1.7-0.3-3.3-0.9-5.1-0.2
		c-0.2,0.1-0.8-0.2-0.9-0.4c-0.1-0.4-0.2-1.1,0.1-1.3c0.5-0.4,1.2-0.9,1.9-0.9c1.3,0,2.7,0.1,4,0.4c4.2,0.9,8.4,1.9,12.6,2.9
		c0.6,0.1,1.3,0.5,2-0.1c-0.1-0.3-0.1-0.5-0.2-0.9c1.1,0.2,2.2,0.4,3.3,0.5c1,0.1,2,0.4,3.2-0.2c-1-0.5-1.7-0.9-2.4-1.3l-0.1,0.1
		c0.6-0.1,1.2-0.1,2.2-0.2c-1.8-1.1-3.1-1.8-5-1.7c-1.6,0-3.4,0.3-4.8-1.1c1.7-0.1,3.3,0.2,5.1-0.4c1.4-0.4,3.2-0.3,4.7,0.1
		c3.8,1,7.5,2.2,10.9,4.3c0.5,0.3,1.1,0.3,1.7,0.5c-0.6,1-1.3,1.8-2.5,2.1c-2.3-1.2-4.8-1-7.1-0.3c-1.2,0.4-2.4,0.6-3.6,0.5
		c-0.7,0-1.4-0.3-2,0.3c1.8,1,4.1,1.3,7.5,1c0.9,3.3-1,6.2-1.3,9.5c-2.1,1.1-2.3,3-2.3,5.3c-2,1.4-4.1,2.9-6.2,4.4
		c-0.4,0.3-0.8,0.6-1.1,1c-1.6,1.9-3.8,2.7-6.3,2.6c0.9,0.3,1.8,0.6,2.7,0.7c0.9,0.2,1.7-0.8,2.7-0.3c-0.5,1.3-1.4,1.9-2.6,2.1
		c-1.1,0.2-2.2,0-3.2-0.7c-1-0.7-1.9-1.6-2.8-2.4c-0.5-0.5-0.9-1.2-1.5-1.7c-1.4-1.3-2.5-1.2-4-0.1c-1.8,1.5-2.9,3.4-3.2,5.7
		c-0.1,0.5,0,1,0.7,1c0.5-1.1,0.9-2.3,1.4-3.4c1.1-2.3,2-2.5,4-1.1c0.9,0.7,1.8,1.3,2.6,2.1c1,1.1,1.6,2.5,0.9,4.1
		c-0.2,0.4-0.4,0.9-0.5,1.2c0.1,0.2,0.2,0.4,0.3,0.4c0.2,0.2,0.4,0.3,0.6,0.4c2.3,1.5,2.4,2,0.7,3.9c-0.2,0.3-0.6,0.4-1.1,0.7
		c-1.3-1.7-1.4-3.9-2.5-5.5c0.6-1,1.1-1.8,1.5-2.6c-0.4-0.7-0.5-1.4-1.5-1.3c-0.7,0.9-1.4,1.8-2,2.5c-0.5,2.9,1.8,4.4,2.6,6.8
		c-0.7,0.2-1.3,0.6-1.8,0.5c-1.3-0.3-2.1-1.3-2.6-2.5c-0.4-1-0.6-2.1-0.9-3.3c-0.7-0.2-1.5-0.3-2.6-0.6c0.1,0.7,0,1.2,0.2,1.5
		c1.4,2,2.9,4,4.3,6c0.9,1.3,1.8,2.7,2.8,3.9c0.5,0.6,1.4,1,2.2,1.2c0.8,0.2,1.2-0.7,1.8-1.1c0.2-0.1,0.4,0,0.9-0.1
		c0,0.6,0.2,1.2,0,1.7c-0.2,0.5-0.7,1.1-1.3,1.3c-1.1,0.4-2.3,0.7-3.7,0.4c-0.8-1.1-1.7-2.3-2.5-3.4c-1.3-0.2-2.4-0.4-3.4-0.7
		c-1.1-0.3-2.1-0.8-3.1-1.2c-0.4-0.1-0.8-0.6-1.2,0.2c0.8,1.1,0.7,2.7,2.1,3.6c0.3,0.7,0.7,0.9,0.6,0.4c0-0.2-0.4-0.3-0.6-0.4
		c0.4-0.2,0.9-0.6,1.3-0.6c1.5,0.3,3,0.8,4.6,1.2c0,0.1,0.1,0.3,0.1,0.5c0,0.2,0,0.5-0.1,0.7c-0.1,0.2-0.2,0.4-0.4,0.6
		c-0.9,0.6-1.8,1.2-2.6,1.7c0,3.9,0,7.6,0,11.3c0,4.4-1.1,8.5-3.8,12.2c-0.3,0.4-0.4,0.9-0.7,1.5c1.4,0.9,2.8,1.7,4.1,2.5
		c1.3,0.9,2.7,1.8,3.9,2.8c1.3,0.9,2.2,2.3,3.6,2.8c3.1-0.2,5.9-0.6,8.7-0.6c3.1,0,6.2,0.4,9.2,0.6c3.1,0.2,5.8,1.1,7.4,4.1
		c0.3,0.6,1.3,0.9,0.7,1.9c-0.8,0.2-1.1-0.4-1.4-0.8c-2.6-3.6-2.8-3.3-7.1-3.6c-0.5,0-1,0-1.5,0c-4.2-0.2-8.4-0.5-12.6-0.7
		c-0.7,0-1.4,0-2.6,0c1,1,1.6,1.5,2.2,2.1c4.4,4.3,9.2,8.3,12.5,13.6c1.4,2.2,3.3,4.1,5.8,5.1c2.2,0.9,3.7,2.4,5,4.2
		c1,1.4,2.1,2.4,3.5,3.2c1.6,0.9,3.2,1.9,4.9,2.7c4,1.9,8.1,2.9,12.5,2.8c0.4,0,0.8-0.2,1.5-0.4c-0.9-1.4-2-2.2-3.1-3
		c-1.2-0.9-2.4-1.7-3.7-2.5c-1.9-1.3-1.9-1.3-2.7-2.6c0.9-0.4,1.7,0,2.4,0.4c4.1,1.9,7.4,4.8,10.6,8.1c0.8-0.3,1.6-0.4,2-0.9
		c1.2-1.5,1.9-3.2,1.5-5.2c-1.2-1.3-2.6-2.6-3.2-4.4c-0.3-0.8-1.4-1.3-2.2-1.9c-1-0.8-2.3-1.3-2.9-2.3c-0.9-1.6-2.3-2.5-3.7-3.5
		c-2-1.5-3.8-3.1-5.7-4.7c-0.9-0.8-1.8-1.7-2.8-2.4c-3.2-2.3-5.6-5.2-7.4-8.7c-1.1-2-2-4-2.3-6.2c-0.4-3.2-0.9-6.4-1.2-9.5
		c-0.2-1.6-0.1-3.2,0-4.8c0.1-1.9,1.3-2.9,3.1-3.2c1.7-0.2,3.6-0.5,5.1,0c3.1,0.9,5.9,0,8.8-0.5c1.2-0.2,2-1.1,2.1-2.3
		c0.1-0.9,0-1.9-0.2-2.9c-0.1-0.7-0.5-1.3-0.8-2.1c0.7-0.8,1.3-1.6,1.9-2.4c0.1-0.2,0.1-0.5,0.1-0.9c-0.6-0.5-1.3-1.2-1.9-1.7
		c-2.1,0.2-4.1,1-5.8-1.1c0.7-0.2,1.1-0.5,1.5-0.4c1,0,2,0.2,3,0.2c1.5-0.1,3-0.3,3.7-2.1c-0.3-0.7-0.8-1.4-1.1-2.2
		c-0.3-0.8-0.3-1.6-0.4-2.4c-0.8-0.2-1.4-0.3-2.3-0.5c1.1-1.3,1.9-2.4,3.5-1.7c1.4,0.7,2.3,0,3.4-1.1c-0.4-0.7-0.6-1.6-1.1-2.2
		c-2.2-2.9-3.6-6.2-4.5-9.7c-0.6-2.2-0.5-4.1,1.8-5.5c0.7-0.4,1-1.3,1.3-1.7c-1.3-4-2.4-7.6-3.6-11.2c-0.3-0.8-0.5-1.6-0.8-2.5
		c-0.6-1.9-1.7-3.2-3.7-3.5c-0.5,0.2-0.7,1-1.5,0.6c-0.4-0.2-0.9-0.2-1.3,0c-0.8,0.3-1.5,0.8-2.2,1.1c-1.6-0.8-2.9-1.9-4.6-1.8
		c0.2-0.6-0.1-1-0.6-1.4C204.9,13.4,204.6,13,204.4,12.8c0-0.1,0.1-0.2,0.1-0.2C204.5,12.7,204.4,12.8,204.4,12.8z M165.8,66.2
		c-0.2-0.4-0.6-0.8-0.6-1.2c0-0.6,0.5-1.3,0.4-1.7c-0.6-1.6-1-3.4-2.5-5c0.1,1.6,0.2,2.9,0.3,4.1c-0.1,0-0.3,0.1-0.4,0.1
		c-0.9-2.5-1.8-5-2.7-7.7c-0.2,0.4-0.4,0.6-0.4,0.8c-0.2,4.7-0.3,9.4,0.5,14c0.4,2.2,0.6,4.4,0,6.6c-0.4,1.5-0.8,3.1-1.1,4.7
		c-0.5,1.9-0.7,3.9-1.4,5.7c-1.1,2.7-2.6,5.3-3.8,8c-0.2,0.4-0.7,0.8,0.1,1.3c2-1.2,4.2-2.4,6.2-3.8c4.3-2.9,7-7,7.9-12
		c0.6-3.3,0.3-6.9,0.3-10.3c0-0.4-0.1-0.7-0.3-1.1c-0.3-0.6-0.8-0.9-1.5-0.7c-0.4,0.2-0.8,0.5-1.2,0.1
		C165.6,67.3,165.6,66.7,165.8,66.2c0-0.1,0.1-0.1,0.2-0.1c0.1,0,0.1-0.1,0.1-0.2C166,66,165.9,66.1,165.8,66.2z M174,562.5
		c-1.3-0.3-2.4,0-3.6,0.3c-1.8,0.5-3.6,0.9-5.4,1.2c-0.5,0.1-1.2-0.2-1.6-0.6c-0.4-0.3,0-1.4,0.7-1.9c1.1-0.6,2.2-1.2,3.3-1.6
		c2.3-0.8,4.7-1.4,7.4-2.2c-1.1-0.8-2-1.4-3-2c-4.1,1.5-8.1,2.9-12.1,4.4c-0.8-0.7-0.7-1.5-0.1-1.9c1.3-0.9,2.7-1.7,4.1-2.4
		c2-0.9,4.1-1.7,6.1-2.5c-0.2-0.4-0.2-0.7-0.4-0.9c-2-1.8-3.1-4.1-3.8-6.7c-0.2-0.7-0.5-1.4-0.8-2.1c-0.3-0.7-0.8-1.3-1.7-1.2
		c-0.9,0.1-1.7,0.4-1.9,1.4c-0.2,0.7-0.4,1.4-0.6,2.2c-2.9,13.5-5.8,27-8.7,40.6c-0.2,1.1-0.3,2.2-0.5,3.1c2,3.2,5.1,3.7,8.1,4.2
		c1.3,0.2,2.7,0.2,4,0.5c4.7,1.1,9.6,1,14.4,1.3c1,0.1,2-0.1,2.9-0.2c4.3-0.6,8.6-1.2,12.8-2c2.9-0.5,5.9-1,8.4-2.8
		c2.1-1.5,4.2-3,5.8-5.3c-0.1-0.6-0.2-1.2-0.4-2.1c-4.8,1.9-9.3,4-13,7.3c-0.8,0.7-1.7,1.3-3.2,1.3c1.9-1.9,3.5-3.4,5.1-5.1
		c1.7-1.8,3.7-3.2,6.2-4c1.5-0.5,3-1.1,4.5-1.7c-0.1-1.1-0.8-1.5-1.7-1.7c-2.7-0.5-5.4-0.9-8-1.4c-0.8-0.2-1.7-0.5-2.4-0.9
		c-1.5-0.9-2.9-1.9-4.3-2.9c-1.5-1-3-2.1-4.6-3.2c-1,0.4-2,0.8-3.1,1.2c-2.2,0.8-4.5,1.4-6.9,1.3c-1.1,0-2-0.6-2-1.3
		c0.1-0.9,0.8-1.2,1.5-1.5c0.5-0.2,1-0.3,1.4-0.3c2.3-0.4,4.6-0.8,7-1.2c-0.1-2-1.8-3-2.8-4.5c-2.9,0.8-5.7,1.5-8.4,2.2
		c-1.4,0.4-2.9,0.7-4.4,0.9c-0.4,0.1-1-0.3-1.2-0.6c-0.4-0.6-0.2-1.3,0.3-1.6c0.9-0.7,1.8-1.2,2.8-1.7
		C171.7,563.4,172.8,562.9,174,562.5c0.2-0.2,0.4-0.3,0.3-0.2C174.4,562.2,174.2,562.4,174,562.5z M210.6,538c0.1-1.5,0.1-2.8,0.3-4
		c0.5-3.4,0.9-6.9,1.7-10.2c1.9-8.3,3.9-16.6,5.8-24.9c0.1-0.6,0.2-1.3,0.6-1.7c1.5-1.6,1.5-3.6,1.9-5.5c0.8-4,0.8-8.2,3.5-11.6
		c0.1-0.2,0.2-0.5,0.2-0.7c0.6-2.4,1.6-4.7,1.9-7.2c0.7-6,2.3-11.9,1.7-18c-0.1-0.9,0-1.7,0.1-2.6c0.2-3.7,0.5-7.4,0.7-11.1
		c0.1-2.5,1.1-6.7,2.2-9.1c0.8,0.2,0.9,0.9,0.8,1.4c-1,3.8-0.6,7.6-0.7,11.4c0,2.6-0.1,5.2-0.3,7.8c-0.2,2.3-0.6,4.7,0,7
		c0.1,0.6,0,1.2-0.1,1.8c-0.2,1.6-0.4,3.2-0.6,4.8c-0.4,2.8-0.6,5.7-1.3,8.4c-0.9,3.7-2.1,7.4-3.5,10.9c-1.3,3.5-2.4,7-3,10.7
		c-0.7,4-1.8,7.9-2.6,11.9c-1.6,8.2-3.2,16.5-4.7,24.8c-0.1,0.7-0.1,1.4-0.1,2.1c2.6,0.9,4.1,2.6,4.8,5c1,3.7,3.9,5.8,6.7,8.2
		c1.2-2.2,1.2-4.5,1.7-6.6c3.9-19,7.8-38,11.6-57c3.8-18.8,7.6-37.5,11.4-56.3c3.6-17.7,7.2-35.4,10.8-53c1.6-7.7,3.1-15.5,4.8-23.2
		c0.5-2.1,0.2-4.1-0.5-6.1c-1.2-3.5-2.2-7.1-3.1-10.7c-2-7.7-3.8-15.3-5.8-23c-0.2-0.8-0.5-1.6-0.9-2.4c-2.5-4.5-1.4-9.1,2.8-12
		c0.5-0.3,1-0.6,1.6-1c-0.7-3.1-1.3-6.1-1.9-9.2c-0.3-1.8-0.4-3.6-0.7-6.1c-7.1-13.3-16.4-26.2-24.4-39.8c-0.1-0.2-0.4-0.2-0.6-0.3
		c-0.1,0-0.2,0.1-0.3,0.1c-0.8,4.7-2.5,9.2-1.6,14.2c0.5,2.6,0.1,5.4,0.1,8.1c0,0.8,0,1.8,0.4,2.5c1.7,3.6,2,7.4,2,11.2
		c-0.1,3.7,0.9,7.1,1.8,10.5c0.7,2.9,1.6,5.7,2.2,8.6c0.7,3.6,1.1,7.3,1.6,11c1,7.6,2.1,15.2,3.1,22.8c0.4,3.4,0.6,6.9,0.8,10.3
		c0.3,6.4-0.5,12.8-1.1,19.2c-0.7,7.3-1.4,14.5-3.5,21.6c-0.4,1.4-0.5,2.9-0.7,4.4c-0.6,5.3-1.1,10.6-2.8,15.7c1,0.9,1.3,2,1.2,3.3
		c-0.3,4.8-0.8,9.6-1.8,14.3c-0.2,1-0.6,2.1-0.3,2.9c0.6,1.6,0.3,2.9-0.3,4.3c-0.6,1.4-1.1,3-2.8,4.4c-0.2-3.4,1.9-5.7,2.3-8.7
		c-1.1-1.9-0.7-4.3-0.6-6.6c0.2-2.7,0.5-5.4,0.6-8.1c0.1-1.5,1-3.2-0.5-4.6c-0.1-0.1,0-0.5,0-0.7c0.2-5.2,0.8-10.3,2-15.4
		c0.5-1.9,1-3.8,1.3-5.8c1.7-10.6,3.8-21.2,3.9-32c0-5.6-0.1-11.1-0.1-16.7c0-0.4-0.1-0.7-0.1-1.1c-0.5-4.2-1.2-8.3-1.6-12.5
		c-0.4-4.5-1.2-9-2.4-13.5c-1.2-4.4-2.5-8.8-4-13.1c-0.8-2.2-1.5-4.5-2.1-6.7c-0.2-0.9-0.3-2-0.1-2.9c0.1-0.6,0.8-1.1,1.3-1.6
		c-0.2-1.9,0-3.8-1-5.4c-1-0.2-1.7-0.3-3-0.5c0.8-0.3,1.2-0.5,1.5-0.5c1-0.1,1.5-0.8,1.8-1.7c0.4-1.5,0.2-3.1-1-4.1
		c-1.4-1-1.7-2.3-1.8-3.8c0-0.9,0-1.8-0.9-2.3c-6.2,0-12.4-0.1-18.5,0c-4,0.1-7.9-0.6-11.6-1.9c-0.9-0.3-1.8-0.8-3-0.7
		c0.7,2.7,1,5.4,2.8,7.6c0.4,0.5,0.7,1,0.9,1.6c1.5,5.7,4.2,10.8,6.6,16.1c1.1,2.3,2.9,4,5.5,4.6c0.8,0.2,1.6,0.6,2.4,0.9
		c2.8,1,5.5,2.1,8.3,3.1c0.7,0.3,1.7,0.4,2,0.9c0.9,1.6,2.8,2,3.6,3.6c0.3,0.7,0.6,1.4,0.6,2.1c0,1.6,0.2,3.3-0.2,4.8
		c-0.9,3.3,0.2,6.3,0.5,9.7c2-0.4,3.8-0.7,5.6-1c1.1-0.2,2.2-0.4,3.3-0.3c0.6,0,1.3,0.5,2.1,0.8c-1.7,2.2-4,2.3-6.1,2.8
		c-2.2,0.6-4.6,0.7-6.9,1.4c0.1,2.1-0.6,3.8-1.5,5.4c-1.2,2-2.4,4-3.8,5.9c-4.1,5.7-8.6,11.1-13.5,16.2c-1.4,1.5-2.4,3.1-2.7,5.1
		c-0.1,0.7-0.4,1.4-0.5,2.2c-2.1,9.9-4.2,19.8-6.4,29.7c-0.4,1.9-0.5,3.6,0,5.5c0.8,3.1,1.7,6.2,2.3,9.4c1,5.6,1.9,11.2,2.4,16.9
		c0.4,4.4,1.6,8.5,2.8,12.6c0.3,1.1,0.6,2.1,1.7,2.8c0.4,0.2,0.7,0.8,0.8,1.2c0.3,2,0.5,4-0.1,6.5c-1.9-2.3-1.4-4.8-2.1-6.9
		c-1.4-0.2-1.9,0.6-2.2,1.6c-1.4,4-2.7,7.9-4.1,11.9c-3.1,9.2-4.6,18.7-5.3,28.3c-0.4,5.2-0.9,10.4,0.6,15.4c0.1,0.5,0.2,1,0.3,1.4
		c1.3,5.8,2.2,11.7,1.5,17.6c-0.1,0.6,0,1.2-0.1,1.9c-0.3,5.6-0.3,11.1-1.1,16.6c-0.5,3.3-0.9,6.6-1.4,9.9c-0.3,1.8-0.7,3.6-1,5.5
		c-0.2,1.9-0.8,3.8-1.9,5.3c1.2,2.3,2.9,3.9,5.2,5.1c2.1-1.2,4.3-2.4,6.4-3.6c2.3-1.3,4.5-2.6,6.8-3.9
		C207.2,541.1,209.7,540.1,210.6,538z M222.4,297.3c-2.5-0.8-4.7-1.1-6.7-2.1c-3.2-1.5-6.4-3.2-9.4-5.1c-3.1-1.9-5.5-4.5-6.9-7.9
		c-3-7.4-6-14.9-8.9-22.3c0-0.1-0.1-0.2-0.1-0.4c-3-8.8-4.6-17.9-5.9-27.1c-0.6-4.4-1.3-8.8-2.2-13.1c-0.7-3.5-2-6.8-3.8-10
		c-1.3-2.2-2.1-4.7-3.1-7.1c0.5-2-0.5-3.9-0.7-5.8c-0.9-7.6-1.8-15.2-2.8-22.8c-0.5-3.8-0.9-7.6-1.8-11.3c-0.9-3.5-1.9-6.9-2.2-10.5
		c-0.4-4.5-0.8-9.1-1.1-13.7c-0.1-0.8-0.1-1.9,0.4-2.5c1-1.2,0.8-3.1,2.4-4.2c1.2,1.6-0.1,3.2,0.2,4.7c0.4,1.5,0.3,3.2,0.4,4.8
		c0.1,1.6,0.2,3.2,0.3,4.8c0.2,1.5-0.2,3.2,1,4.7c1.5-2.4,3.1-4.6,4.3-7c1.2-2.4,2.1-4.9,3.2-7.6c0.3,0.6,0.6,1,0.9,1.6
		c3.1-6.5,3.4-13,0.7-19.5c-1.1-2.6-2.6-5-4.1-7.4c-2.2-3.6-5-6.7-8-9.6c-1.8-1.7-3.9-3-6.2-4c-0.9-0.4-1.8-0.4-2.4,0.3
		c-1.2,1.2-2.6,1.7-4.3,1.6c-0.6,0-1.2,0.4-1.7,0.7c-1.4,0.7-2.9,1.4-4.2,2.3c-5.9,3.8-10.4,8.7-13,15.2c-1.7,4.2-2.7,8.7-3.2,13.3
		c-0.2,1.6,0,3.2,0.1,4.8c0.1,1.3,0.5,2.7,0.5,4c0,3,0.2,6,1.2,8.8c1,2.7,0.7,5.9,3,8.2c0.2,0.2,0.2,0.5,0.2,0.7
		c0.5,4.1,2.2,7.8,3.7,11.6c3.8,9.8,7.3,19.7,10.1,29.8c0.6,2.1,1.3,4.3,1.4,6.5c0.2,3.1,1.1,6.1,1.9,9c0.8,2.8,1.6,5.7,2.4,8.6
		c0.3,0.9,0.6,1.9,0.5,2.9c-0.1,1.9,0.4,3.7,1.1,5.4c2.3,5.5,4.6,10.9,6.9,16.4c1.4,3.3,2.7,6.6,4.1,9.9c0.4,1,0.8,2.1,1.4,3
		c2.4,4,4.9,8,7.3,12c0.5,0.8,1.4,1.7,1.3,2.6c-0.1,1.8,0.9,3,1.6,4.4c1.1,1.9,2.2,3.9,3.2,5.8c1.8,3.6,3.5,7.3,5.3,11
		c0.4,0.8,0.8,1.6,1.4,2.1c2.1,1.7,4.3,3.4,6.6,4.7c1.2,0.6,2,1.3,2.7,2.3c1.2,1.7,2.2,3.5,2.6,5.7c-0.6,2-1.3,3.9-3.6,4.7
		c-0.5,0.2-1,0.2-1.2-0.6c1.3-1.6,3.4-2.9,2.9-5.5c-1-1.3-2-2.5-3-3.7c0.7,3.3-0.5,6-2.3,8.5c0.7,1.5,1.4,2.8,2,4.2
		c3.1,0.3,6,0,9.1-0.6c1.6-4.2,2.7-8.5,4.9-12.5c0.6,0.2,1.1,0.4,1.7,0.6c-2.2,3.9-3.5,7.8-4.6,11.9c0,0.2,0.2,0.4,0.4,0.7
		c0.9-0.3,1.8-0.5,2.7-0.8c1.2-4.2,2.9-8,4.7-11.8c0.2-0.5,0.5-1.1,1.4-0.8c0.3,1.5-0.1,2.9-0.7,4.3c-0.9,2-1.8,4.1-2.7,6.1
		c-0.3,0.8-0.4,1.6,0.3,2.3c3.5-2.2,3.5-2.2,4-5.8c0.3-2.1,0.7-4.1,1.1-6.2c0.2-1.2,1.1-1.9,2.4-2C224,301.3,224,299.1,222.4,297.3z
		 M176.5,184.6c-0.1,0.7-0.2,1-0.1,1.2c0.9,5,1.4,10,1.4,15.1c0,0.9,0.5,1.9,1,2.7c1,1.7,2.5,3.1,1.9,5.4c-0.1,0.5,0.3,1.2,0.6,1.7
		c2.7,6.2,4.1,12.7,5.3,19.2c1.3,6.7,2.5,13.4,3.8,20c0.3,1.4,0.4,3,1.6,4.3c1.8,0.6,3.8,1.3,5.8,1.7c1.7,0.4,2.9,1.1,3.5,2.7
		c4.4,0.9,8.6,0.5,12.8,0.6c4.2,0.1,8.3,0.7,12.5-0.2c0.3-0.7,0.6-1.3,0.7-1.9c0.6-3.3,1.2-6.6,1.7-9.8c0.3-1.6,0.6-3.2,0.6-4.8
		c0.1-7.2,0.1-14.3,0.1-21.5c0-4.7,1.2-9.1,3.5-13.1c1.1-1.8,2.2-3.6,3.2-5.4c0.8-1.5,1.6-3.1,2-4.8c1.3-4.9,1.4-9.9,2.2-14.9
		c-2.4-1-4.6-1.6-7-1.9c-1.2-0.2-2.7,0-3.4-1.1c-0.9-1.3-2-1.1-3.3-1.2c-5.6-0.3-11.1,0.9-16.6,1.3c-5.7,0.4-11.3,1.1-17,1.8
		c-3.7,0.4-7.3,1-11,1.6C180.4,183.7,178.5,184.2,176.5,184.6z M175.6,181.7c2-0.4,3.6-0.7,5.1-1c3.2-0.6,6.3-1.3,9.5-1.6
		c6.4-0.7,12.8-1.2,19.2-1.8c3.2-0.3,6.4-0.4,9.6-0.9c3.6-0.5,7.1-0.5,10.7-0.1c3.8,0.5,7.4,1.5,10.9,3c1.4-2.6,2.7-4.9,4-7.3
		c0.1-0.2,0.3-0.5,0.3-0.7c-0.2-1.4,0.8-2.2,1.7-3.1c2.1-1.8,3.7-4.1,4.7-6.6c3.7-9.4,0.7-19.9-6.8-26.2c-2.3-1.9-4.6-3.7-7-5.5
		c-0.4-0.3-0.8-0.5-1.4-0.8c-0.3,0.7-0.5,1.3-0.7,1.8c-0.5,1-1,2-1.6,2.9c-1,1.4-2.3,2.2-4.1,1.9c-1-0.1-2-0.1-3-0.1
		c-5.6,0.2-10.8-1-15.6-3.7c-1.1-0.6-2.1-1.4-3.3-1.7c-1.7-0.3-2.9-1.3-4.1-2.3c-1.4-1.2-2.7-2.5-4.1-3.7c-0.9-0.8-1.8-1.7-2.9-2.3
		c-2.4-1.3-4.1-3.1-5.7-5.2c-1-1.3-1.8-2.7-3-3.8c-3.5-3.5-7.2-6.8-10.7-10.2c-0.4-0.4-1-0.8-1.2-1.4c-0.5-1.4-1.6-2.1-2.7-2.9
		c-2.2-1.6-4.4-3.1-6.7-4.7c-0.6-0.4-1.2-0.7-1.9-1.1c-0.7,0.7-1.3,1.4-1.8,2c0.2,0.3,0.3,0.6,0.5,0.7c5.2,2.4,8.9,6.5,12.2,11.1
		c0.6,0.8,1.2,1.6,1.9,2.2c1.3,1,2.2,2.3,2.9,3.7c1.5,3,2.8,6,3.5,9.3c1.8,8.3-0.4,15.6-5.6,22.1c-0.9,1.1-1.6,2.1-2.1,3.4
		c-1.1,2.8-2.1,5.5-3.9,7.9c-0.6,0.8-0.9,1.8-0.6,2.8c1.3,5,1.4,10.2,2.3,15.3C174.6,176,175.1,178.6,175.6,181.7z M144.1,248.8
		c-0.7,1.2-1.1,2.3-1.7,3.2c-2.9,3.9-5,8.2-6.8,12.7c-0.3,0.8-0.6,1.7-1.2,2.2c-1.4,1.1-1.7,2.6-2,4.2c-0.9,5.8-1.9,11.7-2.7,17.5
		c-0.3,2.1-0.1,4.2-0.4,6.3c-0.9,5.9-0.7,11.8,0.5,17.7c0.5,2.6,1,5.3,2.5,7.8c0.7-0.3,1.2-0.6,1.7-0.9c4.5-2.5,9.2-4.7,14-6.7
		c3.8-1.6,7.7-2.7,11.7-3.4c3.8-0.6,7.6-1,11.4-1.6c5.5-0.9,11-1.5,16.5,0c0.6-1,1-1.9,1.6-2.7c0.6-0.8,1.3-1.5,1.9-2.2
		c0.6-0.7,1.9-0.6,2.2-2c-1.2-0.7-2.4-1.5-3.9-2.4c-1.8-3.9-3.6-8-5.5-12.2c-3.4-7.3-6.8-14.5-10.6-21.6c-2.2-4.1-4.8-8.1-7.1-12.1
		c-0.4-0.7-0.9-1.5-1.4-2.3c-4.6-0.9-9.2-1.8-13.8-2.7c-1.8-0.4-3.6-0.4-5.3,0.6C145.1,248.4,144.6,248.6,144.1,248.8z M200.5,427.6
		c-0.5-0.8-1-1.6-1.5-2.4c-1.8-3.3-2.9-6.8-2-10.7c0.3-1.1,0.2-2.2-0.1-3.3c-1.1-4.5-1.5-9-1.5-13.6c0-2.1-0.2-4.1-1-6.1
		c-0.1,0.2-0.3,0.2-0.3,0.4c-0.1,0.2-0.2,0.5-0.3,0.7c-0.1,0.2-0.2,0.5-0.2,0.7c-9.9,46-19.8,92-29.7,138c-0.5,2.3-0.9,4.6-1.3,6.9
		c0,0.2-0.1,0.5-0.1,0.7c0,0.1,0.1,0.2,0.2,0.4c0.3,0.1,0.6,0.2,1,0.2c1.9-0.1,3,0.9,3.7,2.5c0.7,1.5,1.5,2.9,1.8,4.4
		c0.5,2,1.5,3.7,2.6,5.3c1,1.5,2.2,2.9,4,3.4c1.3-1.5,2.4-2.8,3.5-4.1c0.5-0.6,1.1-1.2,1.1-1.9c0.3-2.9,2.3-4.9,3.8-7.1
		c1.1-1.7,1.3-1.6,3.8-0.9c0.3-1.6,0.7-3.1,0.8-4.7c0.6-5.5,1.3-11,1.7-16.6c0.3-3.2,0.5-6.4-0.2-9.6c-0.3-1.3,0-2.7,0-4.1
		c0-1.2,0.1-2.5-0.1-3.7c-0.3-1.5-0.3-3,0.1-4.4c0.5-1.8,0.3-3.6-0.1-5.5c-1.1-5.6-2.2-11.1-2-16.9c0.2-4.6,0.4-9.1,1.1-13.6
		c0.8-4.9,1.6-9.7,3.5-14.3C195.6,441.3,197.9,434.7,200.5,427.6z M147.3,590.7c0.9-0.3,1.4-0.3,1.7-0.5c0.2-0.2,0.3-0.7,0.4-1
		c3.3-15.3,6.5-30.7,9.8-46c1.1-5.2,2-10.4,3.3-15.6c2.1-8.1,3.6-16.4,5.4-24.6c4.9-22.8,9.8-45.6,14.7-68.4c0.6-3,1.5-6,1.7-9.1
		c0.2-2.5,0.6-4.9,1.3-7.3c0.6-2.3,1.3-4.5,1.8-6.8c1.6-7,3.2-14,4.7-21c2.8-12.9,5.6-25.8,8.4-38.7c0.1-0.6,0-1.2,0-1.7
		c-0.9-0.3-1.4,0-1.6,0.6c-0.4,1.4-0.8,2.9-1.1,4.3c-2.5,11.7-4.9,23.4-7.4,35.1c-4,18.5-7.9,36.9-11.9,55.4
		c-2.4,11-4.7,22-7.1,32.9c-2.4,11-4.5,22-7,33c-4,18-7.8,36-11.6,53.9C150.9,573.6,149.2,581.8,147.3,590.7z M151.3,15.9
		c-2.4,1.7-3.9,4-5.1,6.4c-1.6,3.1-2.8,6.3-3.7,9.7c-2.3,8.1-2.7,16.3-1.1,24.5c1.4,7.5,3,15,3.1,22.7c0,0.2,0.2,0.3,0.5,0.8
		c0.3-0.6,0.5-0.9,0.6-1.4c0.2-1.2,0.4-2.4,0.5-3.7c0.6-5,1.4-10,0.6-15.1c-0.3-1.9-0.3-4,0.2-5.9c0.4-1.6,0.4-3.1,0.4-4.7
		c0-1.6-0.1-3.2,0-4.8c0.2-5.5,1.7-10.5,5.4-14.6c0.2-0.2,0.2-0.4,0.4-0.8c-0.3-2.8,0.7-5.6,2.8-7.6c2-1.9,2.9-4.2,4-6.5
		c0.1-0.3,0-0.7-0.1-0.9c-1.1-0.6-1.7,0-2.4,0.6c0.3,0.6,0.7,1.2,1.1,1.9c-2,0.8-3.3,2.3-4.5,3.8c-5.4,6.6-7.7,14.2-8.3,22.6
		c-0.3,5.5-0.5,11.1-0.7,16.6c-0.1,2.2-0.1,4.4-0.2,7.4c-0.8-3-1.2-5.3-1.2-7.7c0-1.4,0-2.7-0.2-4.1c-0.9-6.8-0.8-13.5,0.1-20.3
		c0.8-6.1,2.9-11.7,7.2-16.4c0.4-0.4,0.8-0.9,1.1-1.5C151.8,16.8,151.5,16.4,151.3,15.9z M269,351c-0.2,0.6-0.5,1.1-0.6,1.7
		c-2.8,13.7-5.5,27.3-8.3,41c-3.1,15.2-6.1,30.5-9.2,45.7c-3.1,15.2-6.2,30.5-9.3,45.7c-3.6,17.7-7.1,35.3-10.7,53
		c-0.8,3.7-1.6,7.5-2.4,11.2c-0.1,0.7,0.1,1.2,1.1,1.3C242.9,484.2,256.2,417.7,269,351z M198.7,323.6c-0.2,4,1.3,14.1,2.5,17.4
		c0.1,0,0.3,0,0.3-0.1c5.5-5.8,9.4-12.6,13.5-19.3c0.5-0.9,1-1.9,0.9-3.4c-2.4,2.7-5.2,2.7-7.9,2.4c-0.2,0.5-0.3,0.9-0.5,1.4
		C204.6,322.5,201.7,323,198.7,323.6z M188.7,315.2c1.1,3.7,2.1,7,3,10.3c0.8,3.1,1.8,6.2,2.3,9.3c0.7,4.2,2.3,8,4.2,11.8
		c0.1,0.2,0.4,0.3,0.8,0.5c-0.2-1.9-0.5-3.7-0.5-5.6c0.1-4.5-0.9-8.8-1.8-13.2c-0.3-1.6-0.5-3.2-1.1-4.7c-0.8-1.7,0.1-3.4-0.3-5.1
		c-0.3-1.1-0.3-2.2-0.5-3.5c-1,0.1-1.8,0.2-2.6,0.2C191.2,315.4,190.2,315.3,188.7,315.2z M149.4,243.9c0.5,0.2,0.8,0.4,1.1,0.5
		c3.6,0.7,7.2,1.4,10.9,2c0.4,0.1,0.9-0.1,1.4-0.2c-1.1-2.8-2.1-5.5-3.1-8.1c-1.1-2.7-1.6-5.6-3.1-8.5
		C153.8,234.3,151.6,239,149.4,243.9z M201.6,346.6c1-0.8,1.6-1.2,2-1.7c5-5.3,9.7-10.9,14-16.7c1.7-2.4,3.2-5,4.7-7.5
		c0.4-0.6,0.8-1.3,0.1-2.2c-0.6,0.1-1.3,0.4-2,0.4c-0.8,0-1.6-0.1-2.4-0.2c-0.5,1.5-0.9,3.1-1.6,4.4c-3.5,6.3-7,12.7-12,18.1
		c-0.9,1-1.9,2-2.6,3.1C201.5,344.8,201.7,345.5,201.6,346.6z M226.7,114.2c-0.8-1.2-1.5-2.5-2.3-3.7c-0.3-0.4-0.8-1-1-1
		c-1.7,0.3-2-1.2-2.8-1.9c-1.2-1.2-2.3-2.5-3.7-3.5c-1.4-1.1-3.1-1.4-5.3-1.3C215.8,108,220.2,112.3,226.7,114.2z M193,314.2
		c2-2,2.9-3.6,3-5.6c0.1-2-0.5-2.9-2.6-3.7c-0.4-0.2-0.9-0.3-1.2-0.4c-1.7,2.3-2.4,3.9-2.5,5.8c-0.1,1.3,0.3,2.4,1.6,3.1
		C191.7,313.6,192.3,313.8,193,314.2z M223.5,306.7c-1.5,2.8-1.5,5.7-1.9,8.8c1.8-1.9,1.9-1.9,1.9-3.7
		C223.5,310.1,223.5,308.4,223.5,306.7z M196.9,23.9c-1.6-0.7-1.6-0.7-6.8,2c0.9,0.9,1.9,0.3,2.8,0.1
		C194.3,25.8,195.8,25.7,196.9,23.9z M171.8,46.8c1.5-0.8,2.2-1.7,2.9-2.6c0.4-0.5,0.1-0.9-0.9-1.4C172.6,43.7,172.1,45,171.8,46.8z
		 M195.8,352.8c0.5-1.3,0.8-2.4,0-3.6C195.2,350.3,195.4,351.5,195.8,352.8z M184.4,5.7C184.4,5.7,184.4,5.7,184.4,5.7
		c0.7,0.1,1.4,0.1,2.1,0.1c0,0,0-0.1,0-0.1C185.7,5.7,185.1,5.7,184.4,5.7z M179.1,3.3c0,0.1,0,0.2,0,0.2c0.5,0,1.1,0,1.6,0
		c0-0.1,0-0.2,0-0.2C180.2,3.3,179.6,3.3,179.1,3.3z M182,38.9c0.2,0.1,0.3,0.3,0.3,0.3c0.2,0,0.4-0.1,0.7-0.2
		C182.7,38.9,182.4,38.9,182,38.9z M179.5,561.6c0-0.2,0-0.4-0.1-0.5c-0.4,0.1-0.8,0.2-1.2,0.2c0,0.1,0,0.2,0,0.3
		C178.6,561.6,179.1,561.6,179.5,561.6z M155.5,14.1c0.1-0.1,0.2-0.1,0.3-0.2c-0.2-0.1-0.4-0.2-0.6-0.3c-0.1,0-0.2,0.1-0.3,0.2
		C155.1,13.9,155.3,14,155.5,14.1z M147.7,77.4l-0.1-0.3L147.7,77.4L147.7,77.4z"/>
	<path d="M266.8,297.8c3.5,5,3.4,8.1-0.3,12.4c0.1,0.8,0.3,1.7,0.4,2.5c0.2,0.2,0.4,0.4,0.6,0.5c2.3,0.8,4.7,1.3,7.3,1.5
		c1.5-4.3,4.3-7.8,6.6-11.4c0.3-1.1-1.1-1.8-0.2-3.1c1.2,2.2,1.4,4.2,0.3,6.3c-0.3,0.6-0.4,1.3-0.9,2.7c1.5-1.2,2.4-1.8,3.6-2.8
		c0,0.9,0.2,1.4,0,1.7c-0.7,1-1.5,2-2.2,3c-0.3,0.4-0.6,0.9-1.2,1.9c2-0.6,3-1.7,4.4-2.7c0.4-1.8,0.8-3.7,1.3-5.9
		c0.4-0.2,1-0.6,1.5-1c0.6-0.4,0.7-1.3,1.8-1.3c0.3,1.8,0.1,3.6-0.8,5.2c-0.9,1.7-1.9,3.5-2.7,5c-1.4,0.7-2.6,1.2-3.9,1.8
		c-0.6,0.3-1.1,0.8-1.7,0.7c-2.5-0.2-4.7,1.3-7,1.6c-2,0.3-4.1-0.1-6-1.2c-0.1,3.7,2.2,13.6,3.8,16.5c0.6-1.2,0.8-2.4,1.2-3.5
		c1.4-4.2,3-8.4,5.7-12c0.4-0.6,0.9-0.8,1.5-0.1c-0.3,0.6-0.6,1.2-1,1.9c-2.9,4.5-4.8,9.4-6.5,14.5c-0.3,1.1-0.7,2.2-0.3,3.3
		c0.6,1.8-0.1,3.4-0.6,4.9c-0.7,0.2-1-0.2-1.1-0.8c-1.6-7.6-3.2-15.2-4.7-22.8c-0.4-1.9-0.6-3.9-0.8-5.9c-0.1-1-0.1-1.9,1.1-2.5
		c0.5-0.2,0.9-0.9,0.9-1.5c0.2-2.7,0.3-5.5-2.3-7.4c-0.4-0.3-0.8-0.5-1.3-0.9c0.8-1,1.3-1.6,1.8-2.3c2-0.6,3.7,0,5.3,1.1
		c1.5,1,2.4,2.5,2.7,4.2c0.6,2.8,0.7,5.6,0,8.5c-1.6,1.1-3.3,1.9-5.4,1.7c0-0.3-0.1-0.5-0.1-0.6c1.3-0.6,2.6-1.2,3.8-1.7
		c2.1-3.6,0.1-6.6-1.1-9.6C269.8,298.8,268.8,297.8,266.8,297.8z M280.1,310.4l-0.2,0L280.1,310.4c0-0.1,0.1-0.2,0.1-0.2
		C280.2,310.3,280.1,310.3,280.1,310.4z"/>
	<path d="M171,428.6c0.5-2.6,2.7-4,3-6.6c-0.3-0.9-0.6-2.2-1-3.5c-0.4-1.5-0.1-3,0.6-4.3c0.2-0.4,0.9-0.6,1.7-1.2
		c0,1.1,0.1,1.8,0,2.5c-0.4,1.7-0.4,3.5,0.3,5c0.9,1.8,0.2,3.3-0.5,4.9C174.4,427.1,173.3,428.2,171,428.6z"/>
	<path d="M152.6,459.6c0.2-1.7,0.1-3.4,0.6-5c0.9-3,0.8-6,1.3-9.1c0.3-1.9,0.3-2,2.1-4c0.1,0.6,0.4,1,0.3,1.3
		c-0.2,1-0.4,1.9-0.7,2.9c-0.3,0.9-0.5,1.8-0.5,2.8c0,1.4-0.6,2.9-1,4.3c-0.3,0.9-0.6,1.8-0.3,2.9c0.4,1.5-0.5,2.7-1,4.1
		C153.1,459.7,152.8,459.6,152.6,459.6z"/>
	<path d="M169.1,408.2c-0.4-0.5-0.8-0.8-0.9-1.2c-0.1-0.7-0.3-1.5,0-2.2c0.8-2,0.7-4.1,0.6-6.2c1-0.1,0.9,0.6,1.1,1.1
		c0.2,0.5,0.2,1,0.2,1.4C169.8,403.4,169.5,405.6,169.1,408.2z"/>
	<path d="M156.8,425.8c0,3.3,0,5.8,0,9.2c-1.2-3.1-1.5-5.4-1.1-7.9C155.7,426.8,156,426.6,156.8,425.8z"/>
	<path d="M278,297.6c1.3,1,1.5,2,1.1,3.1C278,300.1,278,300.1,278,297.6z"/>
	<path d="M152.1,358.6c-1.2-0.5-0.9-1.2-0.3-2C152.6,357.3,152.3,358,152.1,358.6z"/>
	<path d="M149.2,348c-0.5-1.3-0.7-1.8-0.9-2.4C149.2,345.9,149.2,345.9,149.2,348z"/>
	<path d="M277.7,295.5c-0.3,0.2-0.4,0.3-0.6,0.4c-0.2-0.3-0.3-0.5-0.5-0.8c0,0,0.2-0.2,0.2-0.2C277.2,295.1,277.4,295.3,277.7,295.5
		z"/>
	<path d="M146.4,512.9c-0.8-0.6-0.4-1.2-0.5-2C146.7,511.7,146.6,512.2,146.4,512.9z"/>
	<path d="M255.6,266c0-0.4,0-0.8-0.1-1.2c0.1,0,0.3,0,0.4,0c0,0.4,0,0.8,0,1.2C255.9,266,255.8,266,255.6,266z"/>
	<path d="M257.4,269c0.1,0.1,0.2,0.2,0.2,0.3c0,0.4-0.1,0.8-0.1,1.2c0,0-0.2,0-0.2,0c0-0.4-0.1-0.8-0.1-1.2
		C257.2,269.2,257.3,269.1,257.4,269z"/>
	<path d="M274.5,291c0.2,0.4,0.4,0.8,0.5,1.2c-0.2,0.1-0.5,0.2-0.6,0.2C274,292.1,274,291.6,274.5,291z"/>
	<path d="M152.6,464.3c-0.1,0.2-0.2,0.4-0.3,0.6c0,0-0.5-0.1-0.5-0.2c0-0.2,0.1-0.4,0.2-0.7C152.2,464.1,152.4,464.2,152.6,464.3z"
		/>
	<path d="M145.6,521.9c-0.1,0-0.1,0.1-0.2,0.1c0-0.1,0.1-0.3,0.1-0.4C145.5,521.7,145.6,521.8,145.6,521.9z"/>
	<path d="M282.1,297.2c-0.1,0.1-0.3,0.4-0.3,0.4c-0.2-0.1-0.3-0.3-0.5-0.4c0.1-0.1,0.2-0.2,0.2-0.2C281.8,297,282,297.1,282.1,297.2
		z"/>
	<path d="M285.1,303.1c0,0.1,0,0.2,0,0.3c-0.2,0-0.3-0.1-0.5-0.1c0.1-0.1,0.2-0.2,0.3-0.2C284.9,302.9,285,303,285.1,303.1z"/>
	<path d="M559.5,111.7c-2.2,2.1-3.5,2.3-6.2,1.5c0.2-0.3,0.3-0.8,0.6-0.8C555.6,111.9,557.4,111.3,559.5,111.7z"/>
	<path d="M607.6,91.8c-1.7,1.1-3.4,2.1-5.4,3.3c0-0.7-0.1-1.1,0-1.3c0.9-1.5,2.4-2.3,4-3C606.6,90.6,606.7,90.7,607.6,91.8z"/>
	<path d="M532.2,138.5c0.2-0.8,0.2-1.6,0.5-2.3c0.5-1.3,0.8-2.7,2.2-4.1c0.4,2.9-1,4.6-1.9,6.6C532.7,138.6,532.4,138.5,532.2,138.5
		z"/>
	<path d="M589.2,116.4c-2.6,0.6-4.7,0.8-6.3-1.5c0.3-0.2,0.5-0.5,0.7-0.4C585.3,115,587.1,115.7,589.2,116.4z"/>
	<path d="M530.2,143.2c-0.4-0.3-0.7-0.4-0.7-0.5c0.1-0.4,0.3-0.7,0.5-1.1c0.2,0.1,0.4,0.2,0.4,0.3
		C530.5,142.4,530.3,142.8,530.2,143.2z"/>
	<path d="M513,133c0.2,0.2,0.4,0.3,0.5,0.4c-0.3,0.2-0.5,0.4-0.8,0.7c-0.1-0.1-0.2-0.2-0.2-0.3C512.6,133.6,512.8,133.3,513,133z"/>
	<path d="M568.2,108c0,0.1,0,0.2,0,0.2c-0.1,0-0.2,0.1-0.3,0c-0.1,0-0.2-0.1-0.2-0.2C567.9,108,568,108,568.2,108z"/>
	<path d="M563.8,109.4c0,0.1,0,0.2,0,0.2c-0.1,0-0.2,0.1-0.3,0c-0.1,0-0.2-0.1-0.2-0.2C563.4,109.5,563.6,109.5,563.8,109.4z"/>
	<path d="M528.2,146.6c0,0.1,0.1,0.2,0.1,0.3c-0.1,0-0.3,0.1-0.4,0.1c0-0.1,0-0.2,0-0.3C528,146.6,528.1,146.6,528.2,146.6z"/>
	<path d="M600.2,98.4c-0.1,0-0.2,0.1-0.3,0.1c0-0.1,0-0.3-0.1-0.4c0.1,0,0.2,0,0.3,0C600.2,98.2,600.2,98.4,600.2,98.4z"/>
	<path d="M533.1,430.6c1.4-2.6,2.5-4.7,3.5-6.6c-1.3-2.7-2-5.3-0.6-7.9c0.3-0.6,0.7-1,1.7-0.6c0,0.5,0.1,1.1,0,1.6
		c-0.3,2-0.5,3.9,0.4,5.8c0.7,1.6,0.1,3.1-0.6,4.6C536.7,428.9,535.7,430,533.1,430.6z"/>
	<path d="M518.8,443c0.3,0.7,0.6,1,0.6,1.3c-0.2,1.1-0.5,2.2-0.8,3.2c-0.2,0.7-0.3,1.4-0.4,2.1c-0.2,1.2-0.3,2.4-0.7,3.6
		c-0.4,1.5-1,3-0.7,4.7c0.2,1.2-0.4,2.3-1.2,3.6c-0.3-0.5-0.6-0.8-0.5-1c0.4-2.3,0.6-4.6,1.2-6.9c0.5-1.9,0.5-3.9,0.6-5.9
		C516.9,446.2,517.4,444.8,518.8,443z"/>
	<path d="M531.3,410.1c-0.3-0.5-0.7-1-0.7-1.5c0-1.1,0.1-2.2,0.3-3.3c0.4-1.3,0.6-2.6,0.2-4c-0.1-0.3,0.1-0.6,0.3-1.2
		c0.3,0.5,0.7,0.8,0.7,1.1c0,1.2,0.1,2.5-0.1,3.6c-0.3,1.7-0.8,3.3,0.2,5C532,409.9,531.6,410,531.3,410.1z"/>
	<path d="M518.6,427.9c0.8,2.9,0.7,5.3,0.8,7.6c-0.8,0.3-1-0.2-1-0.6C518.1,432.7,517.6,430.6,518.6,427.9z"/>
	<path d="M511.1,349.2c-0.2-0.8-0.3-1.3-0.4-1.9C511.9,347.7,511.4,348.3,511.1,349.2z"/>
	<path d="M514.3,358.3c0,0.8,0,1.4,0,2.3C513.7,359.7,513.5,359,514.3,358.3z"/>
	<path d="M509,515c-0.4-0.6-0.7-0.8-0.8-1.2c-0.1-0.1,0.1-0.4,0.2-0.6c0.2,0.1,0.5,0.2,0.5,0.4C509,513.9,509,514.3,509,515z"/>
	<path d="M515,466.4c-0.2,0.1-0.4,0.2-0.6,0.3c0-0.2-0.2-0.4-0.1-0.5c0.1-0.2,0.3-0.3,0.5-0.4C514.9,465.9,515,466.1,515,466.4z"/>
	<path d="M532.1,415c-0.1,0.1-0.1,0.2-0.2,0.3c0-0.1-0.1-0.2-0.1-0.3c0-0.1,0.1-0.2,0.2-0.3C532,414.7,532,414.9,532.1,415z"/>
	<path d="M508.2,524c-0.1,0-0.1-0.1-0.2-0.1c0.1-0.1,0.2-0.1,0.3-0.2C508.2,523.8,508.2,523.9,508.2,524z"/>
	<path d="M509.3,252.9c1.3,2.3-0.8,3.4-0.6,5.1c0.3,0.2,0.7,0.4,1.1,0.7c-0.1,0-0.3,0.1-0.4,0.1c-0.9-0.1-1.7,0.1-2.2,0.9
		c-0.4,0.6-0.8,1.1-1.7,2.4C506.1,258.4,507.5,255.8,509.3,252.9z"/>
	<path d="M557.1,301.9c-0.2-0.6-0.4-0.7-0.3-0.8c1.6-4.7,3.2-9.4,4.9-14.1C561.2,292.2,559.5,297,557.1,301.9z"/>
	<path d="M523.9,265.4c-1.9,0.4-3.2,0.1-4.5-0.2c-1.2-0.2-2.4-0.3-4.3-0.5C518.5,263.8,520.9,264.8,523.9,265.4z"/>
	<path d="M590.5,279.7c-0.4-0.1-0.8-0.2-1.2-0.3c0.1-0.1,0.2-0.2,0.3-0.2c0.3,0,0.6,0.1,1,0.1C590.5,279.5,590.5,279.6,590.5,279.7z
		"/>
	<path d="M563.8,266.9c0,0.1,0.1,0.2,0.1,0.3c0,0.1-0.1,0.2-0.2,0.3c0-0.1-0.1-0.2-0.1-0.3C563.6,267,563.7,266.9,563.8,266.9z"/>
	<path d="M582.4,234c-0.7,1.2-1.2,1.9-1.6,2.6c0.2,2.3,0.9,4.5,0.1,6.6c-0.9,0.3-1.4-0.1-1.6-0.7c-0.6-1.9-0.7-3.9-0.2-5.8
		C579.4,235.1,580.5,234.4,582.4,234z"/>
	<path d="M553.5,207.5c-1.2,1.6-2.5,3.3-4.1,5.4c0.1-1,0-1.6,0.2-2C550.5,209.4,551.5,208,553.5,207.5z"/>
	<path d="M586.9,200.8c0,1.8,0,3.3,0,5.6C585.6,204.1,585.5,202.6,586.9,200.8z"/>
	<path d="M584.1,225c-0.1,0.9-0.3,1.9-0.4,3.1C583.2,226.9,583.2,226.9,584.1,225z"/>
	<path d="M585.8,210.6c0.3-0.7,0.5-1.4,0.8-2.1c0.1,0,0.2,0.1,0.4,0.1c-0.2,0.7-0.4,1.5-0.6,2.2C586.2,210.7,586,210.6,585.8,210.6z
		"/>
	<path d="M542.8,226.5c0-1,0-2.1,0-3.8C543.7,224.4,543.5,225.4,542.8,226.5z"/>
	<path d="M544.8,167.2c0.6,0,1.3-0.3,1.8,0c1.9,1.1,3.9,1.4,6,1.8c3.5,0.7,7,1.3,10.5,2c6,1.1,11.8,0.3,17.5-1.5
		c0.8-0.2,1.6-0.6,2.4-0.8c0.6-0.2,1.3-0.2,1.6,0.5c0.2,0.7-0.4,1.1-0.9,1.4c-0.8,0.4-1.6,0.7-2.4,1c-7.9,2.8-15.9,3.1-24,0.7
		c-3.6-1.1-7.2-2.6-10.7-3.9C546,168.1,545.5,167.5,544.8,167.2C544.9,167.1,544.8,167.2,544.8,167.2z"/>
	<path d="M587.3,167.7c0.6-1.2,1.3-1.3,2.4-1.1C589.3,167.7,588.5,167.9,587.3,167.7z"/>
	<path d="M539.5,164.3c0.1,0,0.2,0.1,0.3,0.1c-0.1,0.1-0.3,0.2-0.4,0.3c-0.1-0.1-0.1-0.2-0.2-0.2
		C539.3,164.4,539.4,164.3,539.5,164.3z"/>
	<path d="M544.9,167.1C544.5,166.8,544.9,167.3,544.9,167.1L544.9,167.1z"/>
	<path d="M571.9,460.8c-0.2-1.5-0.5-3.1-0.7-4.7c-0.1-1.1-0.2-2.2-0.2-3.3c0-0.6,0.1-1.2,0.8-1.5c0.6-0.2,1.2,0.5,1.2,1.4
		c0.1,1.7,0.1,3.4,0.1,5.1C573.1,459.1,572.9,460.1,571.9,460.8z"/>
	<path d="M558.3,534.8c0.7,1.9,0.3,3.5-0.3,5.1c-0.7,1.7-1.5,3.3-1.2,5.1c-1.1,0.5-1.5-0.1-1.5-0.7c0-0.8,0-1.8,0.4-2.4
		c1.2-1.7,1.4-3.6,1.9-5.5C557.6,535.8,558,535.4,558.3,534.8z"/>
	<path d="M558.1,550.5c-1-0.8-2-1.4-2.8-2c-0.7-0.6-0.8-1.4-0.3-1.9c0.5-0.6,1.3-0.7,2-0.2c0.8,0.6,1.6,1.2,2.1,2
		C559.8,549.1,559.4,549.8,558.1,550.5z"/>
	<path d="M585.9,412c1.9-2.6,3.3-4.5,4.7-6.3c0.4-0.5,0.7-0.5,1.9-0.1C590.5,409.3,589.3,410.6,585.9,412z"/>
	<path d="M590.3,414c-1.2,2.2-2.1,3.9-3,5.7c-0.7-1.7-0.6-2.2,0.1-3.7C588,414.8,588.2,414.6,590.3,414z"/>
	<path d="M588.3,421.8c1.4,2.2,0.3,4.1,0.3,6.4c-0.5-0.5-1-0.8-1-0.9c0.5-1.5,0-2.8-0.4-4.1c-0.1-0.3,0.2-0.7,0.4-1
		C587.6,422.1,587.9,422,588.3,421.8z"/>
	<path d="M570.8,472.6c-0.1-1.2-0.3-2.4-0.4-3.7c0-0.8,0.2-1.7,0.4-2.5c0.1-0.2,0.6-0.3,1.2-0.6c0.2,2.5-0.4,4.6-1.3,6.7
		L570.8,472.6z"/>
	<path d="M570.7,472.6c0.3,1.4,0.6,2.8-0.1,4.3c-1-1.3-1-1.3,0.2-4.2L570.7,472.6z"/>
	<path d="M560.2,530.1c-0.1,0.7,0,1-0.1,1.3c-0.1,0.3-0.4,0.6-0.7,1.1C559.1,531.4,559,530.8,560.2,530.1z"/>
	<path d="M569.1,482.7c0.2-0.1,0.3-0.3,0.5-0.4c0.1,0.1,0.2,0.3,0.3,0.4c0,0-0.2,0.2-0.2,0.2C569.4,482.8,569.2,482.7,569.1,482.7z"
		/>
	<path d="M586.2,432.2c-0.1-0.2-0.3-0.5-0.2-0.6c0.1-0.2,0.4-0.2,0.6-0.3c0.1,0.2,0.3,0.5,0.2,0.6
		C586.7,432.1,586.4,432.1,586.2,432.2z"/>
	<path d="M562.4,515.2c0.1,0.2,0.1,0.4,0.2,0.6c0,0.1-0.1,0.2-0.2,0.2c-0.1-0.2-0.2-0.4-0.2-0.6
		C562.1,515.4,562.3,515.3,562.4,515.2z"/>
	<path d="M561.6,521.3c-0.1-0.1-0.2-0.2-0.2-0.2c0-0.2,0.1-0.4,0.2-0.6c0.1,0.1,0.2,0.2,0.2,0.2
		C561.8,520.9,561.7,521.1,561.6,521.3z"/>
	<path d="M560.8,525.8c0.1,0,0.2,0,0.2,0c0,0.1,0.1,0.2,0.1,0.3c-0.1,0.4-0.3,0.3-0.4,0C560.7,526,560.8,525.9,560.8,525.8z"/>
	<path d="M578.7,39.4c-1.9,1.7-2.8,3.2-2.2,5.3c-1.1,0.7-2.4,0.4-2.8-0.3c-0.9-1.3-2-1.2-3.2-1.3c-0.3,0-0.6-0.3-0.9-0.5
		c1.3-1.2,3.7-2.7,5.1-3.3C575.9,38.9,576.9,39,578.7,39.4z"/>
	<path d="M558.2,73.5c-2.4,0.2-4.6-0.5-6.8-1.3c-0.9-0.4-1.8-0.7-2.8-1c-1.8-0.6-2.9-1.7-3.5-3.5c-0.3-1.1-0.6-2.1-0.8-3.2
		c0-0.3,0.4-0.8,0.7-1.2c1.2,0.9,1.2,2.1,1.4,3.1c0.3,1.3,1,2.3,2.2,2.8c1.6,0.7,3.2,1.4,4.8,2C555.1,71.8,556.9,72.2,558.2,73.5
		L558.2,73.5z"/>
	<path d="M567.9,37.2c1.1-2.4,3.3-2.7,5.5-2.8c2.5-0.1,4.8,0.6,6.8,2.2c0.2,0.1,0.2,0.4,0.3,0.6c-0.1,0.6-0.7,0.7-1.1,0.6
		c-1.1-0.3-2.1-0.6-3.1-1c-2.1-0.9-4.2-1.1-6.3,0.1C569.3,37.2,568.5,37.1,567.9,37.2L567.9,37.2z"/>
	<path d="M553,77.6c-2.7-2.1-2.7-2.1-3.4-4.2C551.4,74.4,551.4,74.4,553,77.6z"/>
	<path d="M558.2,73.6c0.2,0,0.5,0,0.7,0c0.1,0,0.2,0.2,0.4,0.3c-0.2,0-0.5,0.1-0.6,0.1C558.4,74,558.4,73.7,558.2,73.6L558.2,73.6z"
		/>
	<path d="M557.4,87c-0.2-0.3-0.7-0.6-0.1-1.4C557.3,86.3,557.3,86.6,557.4,87L557.4,87z"/>
	<path d="M567.8,37.2c0,0.1,0,0.2-0.1,0.3C567.8,37.4,567.9,37.3,567.8,37.2L567.8,37.2z"/>
	<path d="M560.4,20.2C560.7,19.8,560.3,20.2,560.4,20.2L560.4,20.2z"/>
	<polygon points="557.3,87 557.6,87 557.4,87 	"/>
	<path d="M634.6,129.2c-1.1,1.4-2.7,1.7-4.2,1.8c-2,0.2-4.1,0-6.2,0c-0.2,0-0.4-0.5-0.5-0.8c0-0.1,0.2-0.4,0.4-0.5
		c0.3-0.2,0.7-0.3,1-0.3C628.4,129.4,631.6,129.4,634.6,129.2L634.6,129.2z"/>
	<path d="M674.5,108.8c0.5-1.4,1.5-2.2,2.9-2.9C676.9,107.3,676.9,107.3,674.5,108.8z"/>
	<path d="M639.9,127.3c-0.9,0.3-1.3,0.4-1.6,0.4c-0.3,0-0.6-0.3-0.8-0.5c0.2-0.1,0.4-0.3,0.6-0.3C638.6,127,639,127.1,639.9,127.3z"
		/>
	<path d="M634.7,129.3c0-0.1,0-0.2,0-0.3C634.7,129.1,634.7,129.2,634.7,129.3L634.7,129.3z"/>
	<path d="M673.1,111.3c0,0.1,0,0.2,0,0.3C673.1,111.6,673.1,111.5,673.1,111.3L673.1,111.3z"/>
	<path d="M673.2,111.4C673.5,111.1,673.1,111.4,673.2,111.4L673.2,111.4z"/>
	<path d="M541.1,577.7c2.6-0.9,4.9-1.1,8.1-0.6c-0.9,1.2-1.8,1.8-3.5,1.8C544.2,578.9,542.5,579.4,541.1,577.7z"/>
	<path d="M731.5,101.4c-0.1,0.1-0.2,0.2-0.3,0.1c-0.1-0.1-0.2-0.2-0.2-0.3c0.1,0,0.2-0.1,0.3,0C731.4,101.2,731.5,101.4,731.5,101.4
		z"/>
	<path d="M555.3,14.9c0,0.3,0,0.6,0,0.9c-1-0.2-2.2,0.3-2.9-0.9l-0.1,0.1C553.3,14.9,554.3,14.9,555.3,14.9z"/>
	<path d="M533.7,20.1c-0.5-0.1-1-0.2-1.6-0.3C532.9,19.4,533.3,19.8,533.7,20.1L533.7,20.1z"/>
	<path d="M552.4,14.9c-0.5,0-1.1-0.1-1.8-0.1C551.5,14.2,551.9,14.6,552.4,14.9L552.4,14.9z"/>
	<path d="M527.1,20.2c-0.5-0.3-1.1-0.6-1.6-0.8C526.1,19.7,526.6,19.9,527.1,20.2z"/>
	<path d="M530.1,21.7c-0.5-0.3-1.1-0.6-1.6-0.8C529.1,21,529.8,21,530.1,21.7z"/>
	<path d="M533.6,20.2c0.2,0,0.4,0,0.6,0.1c0.1,0,0.2,0,0.3,0c-0.1,0.1-0.3,0.2-0.4,0.2C534,20.5,533.9,20.3,533.6,20.2L533.6,20.2z"
		/>
	<path d="M528.6,21c-0.5-0.3-1.1-0.6-1.6-0.8C527.6,20.3,528.3,20.2,528.6,21z"/>
	<path d="M549.4,16.5C549,16.2,549.4,16.6,549.4,16.5L549.4,16.5z"/>
	<path d="M537.3,32.9c0.9-0.1,1.7-0.1,2.3,0.7l0.1-0.1C538.9,33.4,538,33.5,537.3,32.9L537.3,32.9z"/>
	<path d="M539.6,33.6c0.2,0,0.5,0,0.7,0.1c0.1,0,0.2,0.1,0.3,0.1c-0.2,0.1-0.4,0.3-0.5,0.2c-0.2-0.1-0.3-0.3-0.5-0.5L539.6,33.6z"/>
	<path d="M550.9,11.9c-0.1-0.1-0.3-0.1-0.4-0.2c0.1,0,0.1,0,0.2,0C550.7,11.9,550.8,11.9,550.9,11.9L550.9,11.9z"/>
	<path d="M195.7,533.1c0.6,2,0.5,3.8-0.4,5.5c-0.9,1.7-1.2,3.5-1.1,5.3c0.9,0.9,1.7,1.7,2.5,2.6c0.4,0.5,0.2,1.4-0.3,1.6
		c-0.4,0.1-1,0.2-1.4,0c-1-0.7-2.2-1.2-2.8-2.5c0.1-1.1,1.2-2,0.4-3.4c-0.3-0.5,0.1-1.7,0.5-2.4c0.9-1.5,1.5-3.1,1.7-4.8
		C195,534.4,195.5,533.7,195.7,533.1z"/>
	<path d="M209.8,459.1c-0.7-3.5-1.6-6.4-0.9-9.2c0.8-0.5,1.4-0.1,1.5,0.5C211,453.2,211.3,455.9,209.8,459.1z"/>
	<path d="M230.3,403.8c-1.8,2.5-3.3,5-6.3,6.6c0.1-0.7,0.1-1,0.3-1.3c1.3-1.8,2.6-3.6,3.9-5.3C228.6,403.3,229.3,402.8,230.3,403.8z
		"/>
	<path d="M207.6,474.8c-0.1-0.5-0.3-1-0.2-1.4c0.8-2.3,0.9-4.5,0.6-6.9c-0.1-1,0-1.2,1.1-2.4c0.7,0.1,0.7,0.6,0.8,1
		c0,0.2,0,0.5-0.1,0.7c-1,2.3-1.2,4.7-1,7.2C208.8,473.8,208.8,474.6,207.6,474.8z"/>
	<path d="M226.2,420.2c0.6,3.1,0.6,3.6-0.5,5.9c-0.2-0.1-0.4-0.3-0.4-0.4c0-1.4,0.4-2.8-0.5-4.1
		C224.4,421.1,224.8,420.1,226.2,420.2z"/>
	<path d="M227.8,412c-0.3,0.8-0.3,1.2-0.5,1.5c-0.8,1.5-1.6,2.9-2.6,4.6C224.3,414.6,225,413.1,227.8,412z"/>
	<path d="M216.4,410.7c1.9-0.8,2.8-1.4,4-0.6C219.1,411.1,219.1,411.1,216.4,410.7z"/>
	<path d="M205.9,438.7c1.7,1.2,1.8,2.4,1.5,4.2C206.2,441.6,205.8,440.6,205.9,438.7z"/>
	<path d="M199.6,519.1c-0.2,0-0.4,0-0.6-0.1c0-0.1,0.1-0.2,0.1-0.3c0.1-0.1,0.2-0.1,0.3-0.2C199.5,518.7,199.5,518.9,199.6,519.1z"
		/>
	<path d="M197.1,530.5c-0.1-0.8-0.2-1.1-0.1-1.4c0-0.2,0.3-0.3,0.4-0.4c0.1,0.2,0.3,0.4,0.3,0.6
		C197.6,529.6,197.4,529.8,197.1,530.5z"/>
	<path d="M224.3,429.9c-0.2,0.1-0.3,0.1-0.5,0.2c0-0.2,0-0.4,0-0.6c0-0.1,0.2-0.1,0.2-0.2C224.2,429.5,224.3,429.7,224.3,429.9z"/>
	<path d="M200.1,513.3c0.1,0,0.2,0,0.2,0c0.1,0.1,0.1,0.2,0.1,0.3c-0.2,0.4-0.3,0.3-0.4,0C200,513.5,200.1,513.4,200.1,513.3z"/>
	<path d="M198.8,523.6c0.1,0.2,0.2,0.4,0.2,0.6c0,0.1-0.1,0.1-0.2,0.2c-0.1-0.1-0.2-0.2-0.2-0.2
		C198.6,523.9,198.7,523.8,198.8,523.6z"/>
	<path d="M227.9,277.8c-0.1,0-0.2,0-0.3,0.1c0.1-0.1,0.1-0.3,0.2-0.4C227.9,277.6,227.9,277.7,227.9,277.8z"/>
	<path d="M207,481.3c-0.1-0.1-0.2-0.2-0.2-0.3c0-0.2,0.1-0.4,0.2-0.6c0.1,0.1,0.2,0.2,0.2,0.3C207.2,480.9,207.1,481.1,207,481.3z"
		/>
	<path d="M163.2,214.6c-0.6-0.5-1.4-0.8-1.7-1.4c-1.7-3.1-3.3-6.3-4.9-9.4c-0.1-0.2-0.2-0.5-0.2-0.7c0.1-0.4,0.3-0.9,0.6-1.2
		c0.2-0.2,0.7-0.1,1,0.1c1.1,0.6,1.7,1.7,2.1,2.9c1,2.4,1.9,4.8,2.9,7.1c0.2,0.5,0.5,0.9,0.6,1.3
		C163.7,213.7,163.4,214.1,163.2,214.6z"/>
	<path d="M148.1,169.2c-3.1,0-4.6-2.3-6-4.6c-0.1-0.1,0.1-0.5,0.1-0.7c0-0.1,0.1-0.2,0.4-0.4C144.4,165.5,146.2,167.4,148.1,169.2
		L148.1,169.2z"/>
	<path d="M168.2,219.4c1.2,1,1.2,1,1.3,2.8C168.3,221,168.3,221,168.2,219.4z"/>
	<path d="M215.9,297.9c-1.3,0.4-2.1,0.4-2.5-0.7C214.5,296.5,215.2,296.8,215.9,297.9z"/>
	<path d="M207.9,299.1c-1.5,0-1.5,0-2.8-0.9c0.5,0,0.8-0.2,1.1-0.1C206.8,298.4,207.7,298.2,207.9,299.1z"/>
	<path d="M166.2,216.2c1.2,0.3,1.2,1,0.9,1.9C166,217.7,165.8,217.1,166.2,216.2z"/>
	<path d="M202.1,296.2c-0.4-0.2-0.6-0.4-0.9-0.6c0.2-0.2,0.5-0.6,0.7-0.6c0.3,0,0.5,0.3,0.8,0.5
		C202.6,295.7,202.4,295.9,202.1,296.2z"/>
	<path d="M152.5,173.7c-1-0.1-1.3-0.9-1.6-1.7C152,172.4,152,172.4,152.5,173.7L152.5,173.7z"/>
	<path d="M156.7,196.5c-0.2-0.6-0.4-0.8-0.5-1.1c0-0.3,0.1-0.7,0.2-1.3c0.3,0.6,0.5,0.9,0.5,1.2
		C156.9,195.5,156.8,195.9,156.7,196.5z"/>
	<path d="M213.1,302.1c-0.4,0-0.6,0.1-0.7,0c-0.2-0.1-0.2-0.4-0.3-0.6c0-0.1,0.4-0.3,0.4-0.3C212.7,301.4,212.8,301.7,213.1,302.1z"
		/>
	<path d="M171.6,125.4c0.1,0.9,0.2,1.3,0.1,1.6c-0.1,0.2-0.5,0.4-0.7,0.6c-0.1-0.2-0.3-0.5-0.2-0.6
		C170.9,126.5,171.2,126.2,171.6,125.4z"/>
	<path d="M152.4,173.8c0.2,0.1,0.3,0.2,0.5,0.3C152.3,174.5,152.5,174,152.4,173.8L152.4,173.8z"/>
	<path d="M148,169.3c0.2,0.1,0.3,0.2,0.5,0.2c-0.1,0.1-0.2,0.2-0.3,0.2C148.1,169.6,148.1,169.4,148,169.3L148,169.3z"/>
	<path d="M183.2,61.6c0.4,1.1,0.8,2.2,1,3.2c0.2,1.1,0.8,1.8,1.7,2.2c1.3,0.7,2.7,1.3,4,1.8c2.2,1,4.5,1.9,6.8,2.8
		c0.2,0.1,0.2,0.4,0.4,0.6c-3.9-0.7-7.7-1.7-11.2-3.3c-2.6-1.2-4.1-4.4-3.4-7.3C182.4,61.8,182.6,61.8,183.2,61.6z"/>
	<path d="M213.9,43.1c-1.5,0.1-2.9,0-3.3-1.9c-1-0.6-2.5,1-3.3-0.9c2.8-1.3,5-3.9,8.6-2.8C214.1,40.3,214.1,40.3,213.9,43.1z"/>
	<path d="M218.8,35.6c-1,0.2-1.4,0.5-1.8,0.4c-1-0.2-1.9-0.5-2.8-0.9c-2.4-1-4.7-1.2-7.1,0.2c-0.4,0.3-1.1,0.2-1.9,0.3
		c1.4-2.2,3.3-2.9,5.2-3C213.2,32.4,215.9,33,218.8,35.6z"/>
	<path d="M186.6,71.1c2.5,1.6,2.5,1.6,4.1,4.6C188.8,74.6,188.8,74.6,186.6,71.1z"/>
	<path d="M194.4,83.3c0.4,0.5,0.6,0.8,1,1.3C194.4,84.4,194.4,84.4,194.4,83.3z"/>
	<path d="M197.4,89.2c-0.1,0.1-0.1,0.2-0.2,0.3c0-0.1-0.1-0.2-0.1-0.3c0-0.1,0.1-0.2,0.2-0.3C197.4,89,197.4,89.1,197.4,89.2z"/>
	<path d="M219.5,232.4c-1.1,2.3-1,2.3-0.8,4.9c0.1,1.1,0.1,2.2,0.1,3.3c0,0.3-0.5,0.6-0.7,0.7c-0.3,0-0.8-0.2-0.9-0.4
		c-1-2.2-1.2-4.5-0.2-6.7C217.4,233.1,218.2,232.4,219.5,232.4z"/>
	<path d="M224.2,199.1c0.2,0.3,0.4,0.3,0.4,0.4c-0.1,1.4-0.2,2.8-0.3,4.3c0,0.1-0.2,0.2-0.4,0.4
		C223.5,202.4,223.2,200.8,224.2,199.1z"/>
	<path d="M221.4,223.4c0,0.9,0,1.9,0,3.4C220.8,224.8,220.8,224.8,221.4,223.4L221.4,223.4z"/>
	<path d="M223.9,208.7c0-0.6,0-1.1,0-1.7c0.1,0,0.2,0,0.3,0c0,0.6,0,1.1,0,1.7C224,208.7,223.9,208.7,223.9,208.7z"/>
	<path d="M188.4,196.5c0,0.1,0,0.2-0.1,0.3c-0.2-0.1-0.4-0.1-0.6-0.2c0,0,0-0.3,0.1-0.4C188,196.3,188.2,196.4,188.4,196.5z"/>
	<path d="M221.5,223.5c0-0.1,0-0.2,0-0.2C221.5,223.3,221.4,223.4,221.5,223.5L221.5,223.5z"/>
	<path d="M182.2,164.8c1,0.3,1.6,0.3,2.1,0.6c1.4,0.9,3,1.2,4.5,1.5c3,0.6,6.1,1.1,9.1,1.8c7,1.5,14,1.1,20.8-1.1
		c0.7-0.2,1.4-0.5,2.1-0.6c0.4-0.1,0.9,0.2,1.3,0.2c0.1,1.1-0.5,1.6-1.2,1.8c-2.8,0.9-5.6,1.9-8.5,2.5c-7.9,1.7-15.4,0-22.8-2.8
		c-1.5-0.6-3-1.2-4.5-1.8C184.1,166.5,183.1,166.1,182.2,164.8z"/>
	<path d="M227.7,164.8c-1,0.7-1.3,1-1.6,1c-0.3,0-0.6-0.2-0.8-0.3c0.2-0.2,0.4-0.6,0.7-0.7C226.2,164.7,226.6,164.8,227.7,164.8z"/>
	<path d="M176,162.1c0.4,0.1,0.7,0.2,1.1,0.4c0,0-0.1,0.3-0.1,0.5c-0.4-0.1-0.7-0.3-1.1-0.4C175.9,162.4,176,162.2,176,162.1z"/>
	<path d="M143.5,259c0.1-2.7,1.7-4.9,2.8-7.1c0.1-0.2,0.6-0.1,1-0.2C147,255.2,146,257.1,143.5,259L143.5,259z"/>
	<path d="M159.8,263.5c-1.8-0.1-3.6-0.2-5.4-0.3c-0.2,0-0.3-0.2-0.5-0.3c0-0.1,0.1-0.3,0.1-0.3c1.9-0.3,3.8-0.1,5.6,0.6
		C159.7,263.3,159.7,263.5,159.8,263.5L159.8,263.5z"/>
	<path d="M159.8,263.6c0.8,0,1.6,0.1,2.6,0.1C161.3,264.2,160.5,264.1,159.8,263.6L159.8,263.6z"/>
	<polygon points="149.6,257.2 149.3,257.2 149.6,257.1 	"/>
	<path d="M143.4,258.9c0,0.3-0.1,0.6,0,0.3C143.3,259.5,143.4,259.2,143.4,258.9L143.4,258.9z"/>
	<path d="M187.5,575.2c-2.4,1.8-4.5,2.2-6.9,1.9c-0.5,0-0.6-0.2-1.5-1.3c0.1-0.2,0.3-0.5,0.4-0.5C182,574.9,184.5,574.9,187.5,575.2
		z"/>
	<path d="M170.3,17.9c0.5,0.1,0.9,0.2,1.5,0.4C171.1,18.7,170.7,18.4,170.3,17.9L170.3,17.9z"/>
	<path d="M165.9,18.7c-0.8-0.3-1.6-0.5-2.4-0.8C164.4,18,165.2,18,165.9,18.7z"/>
	<path d="M170.4,17.8c-0.5,0-1,0-1.6,0c0-0.1,0.1-0.3,0.1-0.4C169.4,17.6,169.9,17.7,170.4,17.8L170.4,17.8z"/>
	<path d="M191.1,13.4c-0.6,0-1.1-0.1-1.8-0.1C190.1,12.6,190.6,13,191.1,13.4L191.1,13.4z"/>
	<path d="M167.4,19.5c-0.6-0.1-1.3,0-1.6-0.8C166.3,18.9,166.8,19.2,167.4,19.5z"/>
	<path d="M168.8,20.2c-0.7,0-1.4,0-1.6-0.8C167.8,19.6,168.3,19.9,168.8,20.2z"/>
	<polygon points="165.8,50.6 165.9,50.6 165.8,50.5 	"/>
	<path d="M176.2,31.3c-1.4-0.1-2.7-0.4-3.7-1.5l-0.1,0.1C174,29.6,175.1,30.4,176.2,31.3L176.2,31.3z"/>
	<path d="M176.1,31.4c0.8,0,1.7-0.1,2.2,0.7l0.1-0.1C177.6,31.9,176.7,32.1,176.1,31.4L176.1,31.4z"/>
	<path d="M178.3,32.1c0.2,0.1,0.5,0.1,0.7,0.2C178.8,32.2,178.6,32.1,178.3,32.1L178.3,32.1z"/>
</g>
</svg>
