<?xml version="1.0" encoding="utf-8"?>
<!-- Generator: Adobe Illustrator 19.2.0, SVG Export Plug-In . SVG Version: 6.00 Build 0)  -->
<svg version="1.1" id="Layer_2" xmlns="http://www.w3.org/2000/svg" xmlns:xlink="http://www.w3.org/1999/xlink" x="0px" y="0px"
	 viewBox="0 0 900 600" style="enable-background:new 0 0 900 600;" xml:space="preserve">
<g>
	<path d="M681.4,327.8c-0.7-0.3-1.8-0.2-2-1.2c-0.4-2-1.9-2.5-3.7-2.6c-0.4,0-0.9-0.2-1.2-0.3c-0.1-1.2,0.6-1.4,1.3-1.4
		c0.9,0,1.9,0.2,3,0.3c0.2-0.7,0.5-1.3,0.5-1.9c0.2-4.4,0.3-8.8,0.4-13.2c0.1-5.7,0.1-11.4,0.8-17.1c0.2-1.9,0.2-3.8,0.3-5.7
		c0.1-0.6,0.5-1.2,1-2.3c0.4,1.2,1,1.8,0.9,2.4c-0.5,3,0.8,5.6,1.8,8.2c2.2,5.7,4.4,11.3,6.6,17c0.6,1.5,1.3,3.1,0.6,5
		c1,0.2,1.7,0.5,2.5,0.6c1.2,0.2,2.4,0.2,3.6,0.4c3,0.4,5.7,1.3,8.4,2.9c2.8,1.7,6,2.2,9.2,2.6c0.9,0.1,1.9,0.1,2.8,0.4
		c2.5,0.8,4.5,2.2,5.3,5c-0.7,1.8-1.5,3.6-3.8,4.1c-0.1,0-0.3,0-0.3,0.1c-2.8,3-6.4,1.8-9.8,1.7c-0.6,0-1.2-0.2-1.7-0.4
		c-2.5-0.9-5.1-1.3-7.7-1.7c-2.9-0.5-5.8-1.4-8.6-2.2c-1-0.3-1.9-0.9-2.8-1.5c-1-0.7-2.1-1.1-3.5-1.1c-0.2,1-0.4,2-0.6,3
		c0.2,0.1,0.5,0.3,0.6,0.3c1-0.2,2.1-0.5,3.1-0.7c0.7-0.1,1.5-0.1,1.9,0.7c0.3,0.5-0.3,1.3-1.1,1.5c-2.6,0.9-5.2,1.8-7.8,2.6
		c-0.8,0.2-1.6,0.3-2.6,0.4c-0.3,1-0.5,2.4-2,2.9c-1.2,0.4-2.3,0.6-3.4-0.1c-1.1-0.7-2.3-1.2-3.6-1.4c-0.9-0.1-1.9-0.6-2.5-1.2
		c-2.8-2.9-6.4-3.5-10.1-3.7c-0.5,0-1,0-1.4,0c-1.5,0.1-2.8-0.5-3.9-1.4c-2.5-2-4.6-4.5-6.3-7.3c-0.5-0.8-0.6-1.8-0.8-2.7
		c-0.4-2.2-0.5-4.5-1.2-6.6c-0.2-0.8-0.3-1.6-0.4-2.5c-0.4-2.3-0.7-4.7-1.1-7c-0.6-3.2-1.2-6.3-1.9-9.4c-0.4-1.9-1-3.7-1.6-5.5
		c-1.6-4.6-2.7-9.4-3.7-14.2c-1-4.7-2-9.3-2.9-14c-1-4.7-1.6-9.4-1.8-14.2c0-0.6-0.1-1.2-0.1-1.8c0.6-5.2-0.2-10.5,0.1-15.7
		c0.1-2.9-0.7-5.4-2.2-7.8c-0.5-0.7-0.7-1.5-0.9-2.3c-0.7-2.8-1.3-5.6-2.1-8.3c-2-6.7-3.4-13.6-4.8-20.5c-0.7-3.6-1.1-7.3-1.7-10.9
		c-0.1-0.7,0-1.5-0.4-2.1c-1.1-1.9-0.9-3.9-0.9-5.9c0-1.8-0.2-3.6-0.2-5.4c-0.1-3.9-0.2-7.9-0.3-11.8c0-1,0.4-2.1-0.5-2.9
		c-1-0.1-1.3,0.6-1.7,1.2c-2.3,2.8-4.5,5.6-6.8,8.3c-0.6,0.7-1.3,1.4-2,2.1c-1.6,1.4-3.1,2.9-3.9,5c-0.5,1.2-1.5,2.2-2.5,3
		c-4.1,3.5-8.6,6.4-14,7.7c-1.5,0.4-3.1,0.6-4.6,0.5c-3.9-0.1-7.9-0.4-11.8-0.6c-0.2,0-0.4,0.1-0.9,0.3c-0.6,2.6-1.6,5.3-1.9,8.2
		c-0.3,2.7-0.8,5.4-1.5,8.1c-0.8,3-1,6.1-0.9,9.2c0.2,10.3,0.5,20.5,0.7,30.8c0.3,12.2,0.5,24.3,0.8,36.5
		c0.2,10.8,0.5,21.7,0.7,32.5c0,1.1,0.1,2.1,0.1,3.2c0.1,1.1,0.6,1.8,1.7,2c0.2,0,0.5,0,0.7,0.1c3.5,0.9,6.2,2.7,7.7,6.2
		c2.5,6,5.4,11.9,7.9,18c1.1,2.7,2,5.6,2.7,8.5c0.4,1.7,0.5,3.5,0.5,5.3c0,1-0.5,2-0.8,3.1c1.4,1.1,2.8,2.2,4.6,2.7
		c2.3,0.7,4.3,1.9,6.4,3.1c1.2,0.7,2.5,1.3,3.8,1.9c2.3,1,4.6,1.9,6.9,2.9c1,0.4,1.2,1.5,0.6,2.4c-0.9,1.4-2.4,1.8-3.7,2.6
		c-0.2-0.3-0.5-0.6-0.7-0.9c0.6-0.8,1.2-1.7,1.8-2.6c-0.3-0.2-0.6-0.4-1-0.5c-3.6-1.2-7.2-2.6-10.3-4.9c-0.6-0.4-1.2-0.8-1.8-1.1
		c-2.4-1-4.8-1.6-7.7-1.5c0.5,0.4,0.8,0.7,1.1,0.9c2,1,3.8,2.4,5.6,3.7c1.8,1.4,3.9,2.3,5.9,3.3c1.5,0.7,3.1,1.1,4.4,2.3
		c0.4,0.4,1.3,0.2,2,0.2c0.2,0.3,0.5,0.6,0.7,0.9c0.4,1.6-0.1,2.7-1.5,3.6c-3.7,2-7.4,2.3-11.5,0.5c-1.3,0.5-2.7,0.9-4.3,0.6
		c-1.5-0.3-3.1-0.2-4.6-0.2c-2.5-0.1-5-0.5-7.3-1.6c-1.2-0.6-2.4-0.9-3.3-1.2c-4.5,0.9-8.7,1.8-12.9,2.5c-2.2,0.4-4.5,0.6-6.7,1
		c-1.6,0.3-3,0.5-4.4-0.6c-0.5-0.4-1.3-0.4-2.1-0.6c0.1-0.6,0.1-1.1,0.3-1.5c0.4-0.7,0.9-1.4,1.3-2.1c0.9-1.8,0.7-3.5-0.8-4.9
		c-1-1-2.3-1.7-3.4-2.5c0.1-1.6,0.1-1.6,3.1-1.8c1.8-3.5,3.5-7.1,4.9-10.9c0.4-1,0.8-2,1.1-3c2.6-9.1,6.6-17.6,10.5-26.2
		c0.1-0.3,0.4-0.6,0.5-0.8c1.4-0.7,2.6-0.2,3.8,0.4c0.8,0.4,1.3,1,1.7,1.8c3.3,7.6,6.6,15.1,9,23c0.3,0.9,0.5,1.8,0.7,2.8
		c0.1,0.5,0.1,1,0.1,1.4c-0.1,0.6-0.5,1.2-1.2,1.2c-0.5,0-1.2-0.2-1.5-0.6c-0.4-0.5-0.6-1.3-0.7-2c-2.1-8.3-5-16.4-8.5-24.3
		c-0.4-0.8-0.7-1.5-1.9-1.6c-3.9,8.1-7.5,16.3-9.8,25.4c1,0.1,1.7,0.3,2.5,0.4c4.3,0.2,8.6,0.3,12.9,0.4c1.1,0,2.1,0.3,2.9,1.2
		c1.6,1.8,3.6,2.6,6,2.8c1.2,0.1,2.3,0.7,3.6,0.2c0.4-1.2,0.2-2.5,0-3.8c-0.2-1.3-0.4-2.6-0.7-3.9c-2.3-8-4.8-16-8.3-23.6
		c-2.4-5.3-2.3-4.9-8.4-5.3c-2.1-0.1-4.3,0.2-6.6,1.1c-0.7,1.3-1.6,2.7-2.3,4.2c-5.1,10.1-9.1,20.7-12.8,31.4
		c-0.5,1.5-1,2.9-1.5,4.4c-0.2,0.7-0.2,0.7,0.5,2.4c-0.6,0.6-1.2,1.3-1.8,2c-1.2,1.4-1.7,3.1-1.6,5c0.1,2.7,1,4,3.7,5
		c0.3,0.1,0.7,0.3,1,0.4c0.1,0,0.1,0.2,0.3,0.5c-0.2,0.3-0.3,0.7-0.6,0.9c-1.3,0.8-2.6,0.4-3.7-0.3c-0.8-0.5-1.5-1.2-2.2-1.8
		c-2.7-0.7-5.5-0.4-7.9-1.8c-1.7-2.4-2.8-5-3.4-7.8c0-0.1,0-0.2-0.1-0.3c-2.4-5.7-2.8-11.8-3.6-17.8c-0.7-5.1-1.3-10.2-2.1-15.2
		c-0.1-1.1-0.5-2.1-0.7-3.1c-0.7-3.6-1.5-7.2-2.1-10.9c-0.6-3.9-0.9-7.8-1.7-11.7c-1-5.4-0.8-10.7-0.3-16c0.4-4.2,0.7-8.3,0.7-12.5
		c0-3.7,0.4-7.4,0.4-11.1c0-3.8-0.2-7.6-0.4-11.4c-0.1-3.1,0-6.2,0.7-9.2c0.5-2.2,0.3-4.5,0.5-6.8c0.4-4.6,1-9.2,3-13.5
		c0.1-0.3,0.4-0.5,0.7-0.9c1.5,1.6,1.8,3.4,2,5.3c-0.8-0.1-1.6-0.5-1.8,0.5c-0.3,1-0.5,2.1-0.7,3.1c-0.7,3.8-1.4,7.5-2,11.3
		c-0.6,3.4-0.6,6.9-0.1,10.3c1.1,7.5,1.1,15,0.1,22.5c-0.1,0.6-0.2,1.2-0.3,1.8c-0.3,6.2-0.7,12.4-1,18.6c0,0.7,0,1.5,0.2,2.1
		c1.5,4.1,1.5,8.4,2,12.7c0.2,2,0.4,4,0.6,6.1c0.1,1.3,0.5,2.5,0.9,3.8c0.7,2.1,1,4.4,1.3,6.6c0.9,6.4,1.8,12.8,2.7,19.1
		c0.1,0.5,0.2,0.9,0.2,1.4c0.3,6.7,2.3,13.1,4.3,19.5c0.1,0.3,0.3,0.6,0.4,0.9c3.2,1.9,3.3,2,6.5,1c0.1-0.6,0.2-1.3,0.4-1.9
		c0.3-1.3,0.6-2.5,1.1-3.8c0.5-1.5,1.2-2.9,1.6-4.3c1.5-5,3-10.1,4.6-15c0.5-1.5,0.6-2.9,0.3-4.5c-1.5-6.9-2-13.9-2.3-20.9
		c-0.1-1.8,0.1-3.6,0.1-5.4c0.1-3,0.3-6,0.4-8.9c0.1-4.9,0.6-9.8,1.4-14.6c0.4-2.4,1-4.7,2.1-6.8c1-2,1.4-4,1.6-6.2
		c0.4-4.7,1-9.5,1.5-14.2c0.2-1.8,0.6-3.5,1.1-5.2c0.6-2.2,0.9-4.4,0.5-6.7c-0.4-2.5-0.6-5-0.9-7.5c-0.2-1.6-0.6-3.3-1-4.9
		c-0.4-1.5-0.3-2.8,0.2-4.2c0.6-2,1-4.1,1.7-6.2c0.5-1.6,1-3.2,1.7-4.7c1.3-3.3,2.7-6.6,4.2-9.9c0.6-1.5,0.9-2.9,0.9-4.5
		c-0.2-8-0.4-16-0.6-24c-0.3-12.2-0.7-24.3-1-36.5c-0.1-4.2-0.1-8.3-0.2-12.5c-0.3-10.5-0.5-21-0.8-31.5c-0.1-4.8,0.1-9.5,1.4-14.2
		c0.8-3,2.1-5.6,4.2-7.7c1.1-1.1,2.3-2.1,3.4-3.2c0.7-0.7,1.3-1.3,1.9-2c-0.4-0.9-1-0.8-1.5-0.7c-1,0.3-2.1,0.6-3,1.1
		c-3,1.7-6,3.5-8.9,5.3c-3.6,2.3-7.2,4.6-10.9,6.9c-1.1,0.7-2.1,1.4-2.7,2.7c-0.3,0.7-1,1.3-1.5,2c-1.6,2.1-3.3,4.1-4.9,6.2
		c-4.8,6.4-6.7,13.6-6.2,21.5c0.1,1.1,0.2,2.1,0.2,3.2c0,4,1.6,7.4,4.2,10.4c0.9,1.1,1.9,2.1,2.8,3c0.4,0,0.5,0,0.6,0
		c0.1-0.1,0.1-0.2,0.1-0.3c0.3-2,0.7-4,0.8-6c0.1-4,0.4-8.1-0.4-12.1c-0.2-0.8-0.3-1.7,0.7-2.2c0.7-0.4,1.6,0.3,1.9,1.6
		c0.9,3.4,1,6.8,0.4,10.3c-0.2,0.9-0.4,1.9-0.1,2.8c1.2,4.2,0.5,8.3-0.8,12.3c-0.6,1.8-1.3,3.6-2.1,5.3c-2.7,6.3-4.5,12.8-5.6,19.5
		c-0.8,4.9-1.7,9.9-2.6,14.8c-0.2,1.2-0.3,2.3,0,3.5c0.5,2.9,0.3,5.9-0.2,8.9c-0.4,2.4-0.8,4.7-1.2,7.1c-0.2,1.4-0.7,2.8-0.2,4.2
		c0.2,0.5,0,1.2-0.2,1.7c-0.9,3.3-1.9,6.7-2.8,10c-0.1,0.2-0.4,0.3-0.8,0.6c0-0.9-0.2-1.7,0-2.4c1.5-5.3,1.7-10.8,1.8-16.3
		c0-1.6,0.3-3.2,0.5-5.2c-2.8,0.9-5.2,1.8-7.6,2.6c-7,2.5-14,4.7-21.3,6.2c-1.5,0.3-3.1,0.5-4.6,0.5c-4.8,0-9.5,0.5-14.3,1.1
		c-5.7,0.7-11.4,1.1-17.1,1.7c-0.8,0.1-1.7,0.1-2.5,0.2c-2.2,4-5.9,6.2-9.9,7.8c-4.2,1.7-8.3,3.7-12.1,6.1c-0.4,0.3-0.8,0.6-1.3,0.7
		c-2.2,0.1-4.1,1.3-6,2.1c-4.3,1.7-8.7,2.3-13.2,3.1c-0.6,0.1-1.3,0.2-1.8,0c-1.9-0.7-3.7-0.1-5.6,0.4c-8.4,2.3-16.9,4-25.6,5
		c-3,0.3-5.9,0.3-8.9,0.1c-2.2-0.2-4.5-0.3-6.8-0.2c-2.9,0.2-5.7,0.7-8.5,1c-2.8,0.3-5.7,0.6-8.6,0.7c-4.4,0.2-8.8,0.3-13.2,0.4
		c-4,0.1-8.1-0.1-12.2,0c-2.1,0.1-4.3,0.5-6.4,0.8c-0.4,0-0.7,0.1-1.1,0.2c-7.4,0.3-14.8,0.7-22.1-0.1c-2.4-0.3-4.8-0.4-7.1-0.2
		c-3.7,0.3-7.4,0.3-11,1.3c-2.8,0.8-5.6,0.9-8.5,0.9c-4.8,0-9.5,0.1-14.3,0c-2.3,0-4.5-0.5-6.8-0.6c-2.9-0.1-5.7-0.2-8.6,0
		c-2.1,0.1-4.2,0.7-6.3,1.1c-1.3,0.2-2.6,0.6-3.9,0.7c-3.1,0.3-5.9,1.6-9.1,2.5c1.6,3.4,0.1,5.7-2.2,7.6c-2.3,1.9-4.9,3.3-7.8,4.3
		c-0.7,0.2-1.4,0.4-2.1,0.6c-1.5,0.5-2.3,1.5-2.4,3.2c-0.1,2-0.4,4-0.5,6c-0.2,2.4-1.2,4.4-2.9,5.9c-1.2,1.1-1.9,2.4-2.3,3.9
		c-0.4,1.7-1.2,3.3-1.8,5c1.1,1.6,2.6,2.9,4,4.1c1.8,1.5,2.6,3.4,1.9,5.7c-0.2,0.6-0.3,1.2-0.2,1.7c0.7,3-1.1,5-2.6,7
		c-0.4,0.5-1.2,0.9-1.9,0.9c-3.8,0-7.6,0.7-11.3-0.7c-0.2-0.1-0.3-0.2-0.5-0.3c-0.1,0-0.2,0.1-0.3,0.2c0.1,0,0.2,0.1,0.3,0.1
		c0.2,0,0.4,0,0.6,0c-1.3,1.2-2.9,1.5-4.5,2c-1.9,0.6-3.9,1-5.5,1.3c-1.4,0.2-1.7-1.9-3.2-0.8c0.2,0.5,0.4,1,0.5,1.5
		c-1.3,1.4-2.9,1.9-4.8,1.8c-3.7-0.2-7.4-0.4-11,0.4c-0.6,0.1-1.2,0.1-1.8,0c-5.5-0.9-10.6-2.6-15.3-5.6c-3.8-2.5-6.5-5.9-8.4-10
		c-1.6-3.5-2-7.1-0.6-10.8c0.8-2.2,1-4.5,1.1-6.6c0.1-2.6-0.8-5.1-1.2-7.7c-0.3-1.5-0.5-3-0.8-4.9c-0.4-0.3-1.1-0.7-1.6-1.3
		c-0.7-0.8-1.7-1.5-1.9-2.5c-0.6-1.9-1.7-3.4-2.6-5.1c-1.9-3.8-3.1-7.7-2.2-12c0.3-1.2,0-2.3-0.3-3.5c-1.4-6.3,0.5-11.9,3-17.1
		c1.5-0.9,2.5-0.6,3.6-0.6c2,0,4,0.3,5.9-0.7c1.1-0.5,2.6-0.3,3.9-0.5c1.8-0.2,3.5-0.4,5.3-0.7c1.7-0.3,3.3-0.5,5-0.2
		c2.9,0.5,5.9,0.9,8.8,1.5c0.7,0.1,1.3,0.5,2,0.8c-0.2,1-0.4,1.9-0.6,2.7c-0.2,0.2-0.4,0.5-0.7,0.7c-0.3,0.2-0.6,0.5-0.8,0.7
		c-2.9,2.6-5.9,5.1-9.3,7.2c0.5-1.1,0.8-2.3,1.5-3.2c1.2-1.7,2.5-3.2,3.8-4.7c0.4-0.5,0.8-1.1,1.3-1.8c-2.2-0.3-4-0.7-5.9-0.9
		c-1.3-0.1-2.6-0.1-3.9,0.3c-2.4,0.6-4.9,1.1-7.4,1c-0.5,0-1-0.1-1.4,0.1c-2.1,1.2-4.4,0.6-6.7,0.8c-1,0.1-2.1,0-3.3,0
		c-0.9,3.6-1.5,7.2-2,10.9c-1,6.7,0.1,13.1,3.8,18.8c0.8,1.3,1.7,2.6,1.8,4.2c0,0.9,0.7,1.5,1.5,1.8c0.7,0.3,1.4,0.4,2,0.6
		c2,0.5,2.2,0.8,1.7,3c-0.1,0.3-0.2,0.7-0.3,1c0.6,1.2,1.3,2.3,1.9,3.5c1.5,3.3,1.3,6.5-0.6,9.6c-0.3,0.5-0.6,1-1,1.5
		c-0.7,0.9-1,1.8-1,3c0,1.3-0.1,2.6-0.1,3.9c0,3.7,1.3,7,3.7,9.8c0.5,0.6,1.2,1.2,1.6,1.9c0.9,1.5,2.2,2.5,3.8,3.2
		c3.1,1.3,6.1,2.7,9.2,3.8c1.9,0.7,3.9,1.2,6,0.8c3.3-0.7,6.6-0.5,10-0.4c0.7,0,1.4-0.1,1.7-0.1c2.3-1.5,4.2-3,6.2-4.2
		c2.1-1.2,4.6-1,7.1-0.9c0.2-0.7,0.5-1.4,0.7-2c-1.6-1.2-3.1-2.2-3.4-4.2c0-0.3-0.4-0.6-0.7-0.8c-2.1-1.3-3.4-3.6-5.8-4.7
		c-0.8-0.4-1.4-1.6-1.9-2.5c-0.5-1.1-0.7-2.2-1.1-3.2c-0.9-0.2-1,1.1-2,0.5c0.1-0.6,0.1-1.3,0.2-1.9c-1.8-0.2-1.7,2-3,2.3
		c-2.6-0.5-3-0.6-5.2-2c2.8-2.6,6.6-3,9.8-4.7c0.2-0.8,0.5-1.5,0-2.1c-2.1,0.7-3.9,1.6-5.9,2c-2,0.4-4,0.2-5.7-1.6
		c1.5-0.7,2.7-1.2,4-1.8c1.2-0.6,2.6-0.8,3.7-2.1c-4.2,0.2-7.2-0.1-10.1-1.2c1.3-0.8,2.5-1.5,3.7-2.2c1.2-0.6,2.4-1.2,3.9-1.9
		c-2.6-0.9-5.4-0.5-7-3.3c1.7-1.2,3.5-1.7,5.4-1.7c2.7-0.1,5.5-0.2,8.2,0.4c2.4,0.5,4.6-0.5,6.2-2c1.6-1.5,3.1-3.2,3.5-5.6
		c0.2-1.2,0.6-2.3,1.1-3.4c0.1-0.3,0.6-0.6,0.9-0.8c0.2,0.3,0.3,0.3,0.3,0.4c0.7,2.7-0.4,5.2-1.4,7.5c-0.9,2.1-2.1,4-4.5,4.8
		c-0.6,0.2-1.2,0.7-2.3,1.3c0.9,0.7,1.6,1.1,2.2,1.7c0.8,0.9,1.3,2.1,1.2,3.3c-0.1,0.9-0.2,2-0.7,2.7c-0.6,0.8-1.6,1.3-2.1,1.8
		c-0.7,2.3-1.4,4.3-2.1,6.7c0.2,0.9,0.5,2.2,0.9,3.5c0.3,0.8,0.7,1.5,1.2,2.1c1.8,1.8,3.6,3.4,5.5,5.1c1.6,1.4,3.6,2.4,4,4.8
		c0,0.3,0.4,0.5,0.7,0.8c1,0.9,1.3,1.9,1,3.2c-0.1,0.5-0.6,1.1,0.2,1.7c1.7-0.6,3.4-1.4,5.2-2c1.9-0.6,3.9-1.1,5.9-1.6
		c0.4-2.6,0.2-5.1-0.6-7.5c-1.9-1.9-3.7-3.8-4.3-6.5c0.7-1.8,1.7-3.6,1.6-5.9c-1.2-0.1-2.2-0.1-3.2-0.2c-1.1-0.1-2.1-0.4-3.1-0.7
		c-0.6-0.1-1.2-0.4-1.1-1.1c0.1-0.7,0.8-0.8,1.4-0.8c1.1,0.1,2.2,0.1,3.2,0.3c1.5,0.4,2.8,0.4,3.9-0.8c2.1-0.5,3.3-1.9,3.9-3.8
		c0.6-1.8,1.2-3.6,0.8-5.3c-2.1,0.1-4,0.4-5.8,0.2c-1.9-0.3-4-0.8-4.6-3.3c2.8-1.3,5.7,0.5,8.7-0.6c-2.2-0.9-4.2-1.6-6.2-2.4
		c-0.6-0.2-0.6-0.7-0.3-1.3c4-0.9,7.9-0.1,11.3,0.3c2.2-1,3.8-1.7,5.4-2.5c1.5-0.7,3.1-1.3,4.5-2.2c1.2-0.8,2.2-1.8,3.2-2.8
		c0.4-0.4,0.5-1.1-0.1-1.6c-1.2-0.1-2.1,0.6-3.1,1.1c0.1,0.6,0.1,1,0.1,1.3c-1.5,0.5-3,1-4.5,1.4c-1.1,0.3-2.3,0.6-3.5,0.6
		c-3.2,0-5.4-1.9-5.9-5.1c-0.1-0.9-0.2-1.8-0.3-2.9c-6.4,0.7-12.8,0.7-18.5,3.8c-0.3,1.9-0.7,3.5-2.1,4.6c-0.8,0.7-1.7,1.3-2.7,1.7
		c-4.2,1.9-8.6,2.8-13.2,1.7c-0.8-0.2-1.7-0.2-2.5-0.3c-4.9-0.6-7.3-2.8-8.2-7.9c-1.9-1.6-1.9-1.6-2.4-3.7c-0.7-2.7-1.3-5.3-2-8
		c-0.2-0.7-0.4-1.4-0.5-2.1c-0.1-0.9,0.2-1.6,1-2.1c-0.2,1.5,1,0.8,1.5,1c0.5,1.3,0.9,2.5,1.4,3.6c1.2,2.8,2.2,5.6,2.1,8.6
		c0,1.4,0.5,2.5,1.3,3.6c2.7,3.9,7.1,4.5,11.2,5.7c2.4-0.6,4.9-1.1,6.5-3.4c3.7-5.4,9.1-8.2,15.5-9.2c6.5-1.1,13.1-1.2,19.6-1.4
		c6.3-0.2,12.6-0.2,18.9-0.6c4-0.3,8.1-0.5,12.1-0.5c6.3,0,12.6,0.3,18.9,0.4c4.8,0.1,9.5,0,14.3-0.1c2.5,0,5-0.4,7.3-1.5
		c0.8-0.4,1.8-0.4,2.8-0.5c1.1-0.1,2.3-0.1,3.9-0.6c-1.9-1-3.5-0.8-5-0.9c-1.5-0.2-3-0.6-4.8-1.1c3.8-0.7,7.1-0.7,10.4-0.3
		c1.4,0.1,2.1,0.8,2,2.3c1.1,0.1,2,0.2,2.9,0.3c1.7,0.1,3.3,0.3,5,0.4c2.7,0.2,5.5,0.3,8.2,0.4c1.5,0.1,3.1-0.1,4.6,0
		c3.2,0.1,6.5-0.3,9.6-1c5.4-1.3,10.8-2,16.3-2.2c6.9-0.3,13.8-1,20.6-2.4c3.4-0.7,6.7-1.5,9.9-2.5c0-0.9-0.6-1.1-1.1-1.4
		c-4.5-2.8-7.9-6.5-10.5-11c-1.3-2.3-2.5-4.6-3.5-7c-1.4-3.3-3-6.5-4.7-9.6c-4.2-7.7-6.6-15.8-5.4-24.7c0.3-2.1,0.8-4.2,1.2-6.3
		c0.1-0.5,0.1-1.1,0.2-2c-2.7,1.6-5.2,3.1-7.7,4.5c-3.9,2.1-7.8,4-11.6,6.3c-5.1,3.1-10.4,5.8-16.1,7.7c-2.7,0.9-5.2,2.3-7.6,3.8
		c-2.3,1.5-4.7,2.8-7.1,4.3c-1.3,4.1-4.4,6.7-9,7.6c0.5-0.5,0.7-0.8,1-1.1c1.4-1.1,2.9-2,3.8-3.7c0.8-0.2,1.3-0.6,1.4-1.4
		c0.1,0,0.2-0.1,0.3-0.1c0,0,0-0.1,0-0.2c-0.1,0.1-0.1,0.3-0.2,0.4c-1.2,0.1-1.3,0.2-1.4,1.4c-1-0.5-2-0.4-3.1-0.1
		c-2.8,0.9-5.7,1.7-8.6,2.5c-0.8,0.2-1.6,0.3-2.4,0.5c-2.1,0.5-4.3,0.1-6.4,0c-6.4-0.3-12.8-0.3-19.3-0.8c-5.6-0.4-11.2,0-16.8,0.2
		c-1.5,0.1-3,0.7-4.4,1.3c-1.5,0.6-3,1.4-4.5,2.2c-3,1.7-6.2,3-9.5,4c-10.7,3.2-21.4,6.4-31.8,10.7c-1.3,0.5-2.6,1.1-3.9,1.7
		c-5,2.5-10.3,4.5-15.6,6.2c-1.7,0.6-2.8,0-3.5-1.5c0.3-0.2,0.6-0.5,0.9-0.7c0.2-0.2,0.5-0.4,0.7-0.7c3.7-0.8,7.4-1.6,10.4-4.3
		c1.3-1.1,2.8-1.8,4.5-2.2c4.3-1.1,8.4-2.7,12.5-4.4c1.6-0.7,3.3-1.4,5-1.9c4.5-1.3,8.7-3.2,13-4.8c1.8-0.7,3.6-1.3,5.4-1.8
		c5.5-1.6,10.9-3.6,16-6.2c2-1,4-1.4,6.2-1.5c3.9-0.1,7.9-0.2,11.8-0.3c2,0,4.1,0.1,6.1,0.3c3,0.3,5.9,0.6,8.9,0.9
		c3.3,0.3,6.6,0.6,10,0.9c1.7,0.2,3.3,0,4.9-0.6c2-0.8,4.1-1.3,6.2-1.7c4.7-1.1,9-2.9,12.7-6.3c3.5-3.2,7.5-5.5,12-6.9
		c8.6-2.7,16.5-6.8,24.1-11.6c3.4-2.1,7-4,10.6-6c1.2-0.7,2.5-1.5,3.6-2.3c0.6-0.4,1.2-0.9,1.5-1.5c2.1-4.1,5.2-7.4,8.2-10.8
		c2.3-2.7,4.8-5.3,7.5-7.7c3.8-3.5,8-6.4,12.7-8.5c6.2-2.8,12.5-5.3,18.8-7.8c2.3-0.9,4.8-1.5,7.1-2.3c1.3-0.5,2.6-1.1,3.9-1.6
		c0.8-0.3,1.6-0.6,2.4-0.7c3-0.2,5.9-0.3,8.9-0.5c0.7,0,1.4,0,2.1-0.1c4.4-0.6,8.8-0.2,13.2,0.2c1.3,0.1,2.6,0.2,3.8-0.7
		c0.3-0.2,0.7-0.3,1-0.3c3.2-0.3,6.4-0.7,9.6-0.8c1.5,0,3.1,0.4,4.6,0.8c3.6,0.9,7.2,1.7,10.7,2.8c4.1,1.2,8.7,3.8,11.7,6.4
		c0.8,0,1.7-0.1,2.6,0c0.8,0.1,1.4,0.6,2.4,1c0.8-0.6,1.7-1.3,2.6-2.1c1.8-1.5,3.6-3.2,5.5-4.6c4.1-3.2,7.5-6.9,10.2-11.3
		c1.1-1.8,2.5-3.5,4.1-5c3.3-2.9,6.7-5.8,10.4-8.1c4.4-2.8,8.8-5.7,13.2-8.5c1.2-0.8,2.4-1.5,3.8-2c5.6-1.7,10.8-4.5,16.1-6.9
		c1.3-0.6,2.6-1.1,4-1.5c4.7-1.4,9.6-1.9,14.4-2.5c4.7-0.6,9.5-0.9,14.2-1.5c1.4-0.2,2.8,0.7,4.2,0.1c1.2-0.5,2.5-0.7,3.8-0.9
		c1.3-0.2,2.6-0.2,3.9-0.2c4.4,0.1,8.8,0.2,13.2-0.3c1.3-0.2,2.6-0.1,3.9-0.2c2.2-0.2,4.3,0,5.9,2.1c3-2,6.5-1.5,9.7-1.8
		c3.3-0.4,6.6,0,10.5,0.1c4.1-3.2,8.7-6.5,11.6-11.6c3.4-5.9,7.4-11.4,12-16.5c1.5-1.7,3.2-3.2,4.9-4.7c1-0.8,2.2-1.5,3.4-1.9
		c1.6-0.5,2.9-1.5,4.2-2.6c3.5-3.2,7.1-6.4,10.7-9.4c2.2-1.8,4.6-3.4,7-4.9c1.9-1.2,4-2.1,6.1-2.9c3.7-1.4,7.4-1.7,11.1,0
		c1.1,0.5,2.3,0.7,3.4,1.1c4.1,1.5,6.7,4.4,8.2,8.4c0.6,1.5,0.6,3,0.3,4.6c-0.3,1.5-0.6,3-0.9,4.7c-0.5,0.2-1.1,0.4-2,0.7
		c1.5,0.6,3.3,0.2,4.3,1.6c0.1,1.3-1.4,0.7-1.8,1.6c1.5,8.8,1,17.9,2,26.9c0,0.2-0.2,0.4-0.5,0.8c-0.3-0.4-0.7-0.8-0.7-1.2
		c-0.2-1.5-0.3-3.1-0.5-4.6c-0.7-5-1.5-9.9-2.1-14.9c-0.3-2.5-0.4-5-0.7-7.7c-1.5-0.4-3.1-0.9-4.8-1.3c-0.8,0.1-1.2,0.7-1.5,1.6
		c-0.8,2.9-1.8,5.7-2.6,8.5c-0.6,2.3-1.1,4.6-1.6,6.9c-0.1,0.4-0.2,0.9-1,0.9c0.1-1,0.3-2.1,0.4-3.1c0.2-1.1,0.5-2.1,0.7-3.1
		c0.2-0.9,0.4-1.9,0.6-2.8c0.2-1,0.5-2.1,0.8-3.1c0.3-1,0.6-2,1-3.2c-0.7-0.2-1.3-0.4-1.8-0.5c-1.3-0.2-2.6-0.4-3.8-0.7
		c-1.5-0.4-2.6-0.1-3.4,1.3c-0.4-0.3-0.8-0.6-1.2-0.8c0.1,0,0.2,0,0.3,0c0,0,0.1-0.1,0.1-0.2c-0.1,0.1-0.2,0.2-0.3,0.3
		c-1.6,1-2.2,2.7-3,4.3c-1.6,3.2-2.6,6.7-3.4,10.1c-0.5,2.2-1,4.4-1.5,6.6c-0.4,1.6-0.6,3.1-0.1,4.9c0.6,2.2-0.2,4.5-0.7,6.7
		c-0.4,1.4-0.8,2.8-1.2,4.1c-0.2,0.7-0.4,1.4-0.7,2c-1.4,2.8-2.8,5.5-4.1,8.1c0.4,3.1,2.5,5,3.9,7.3c-2.2,0.1-2.9-0.6-4.6-4.9
		c-0.7,0-0.7,0.5-0.5,1c0.5,1,1,1.9,1.4,2.9c-0.6,0.5-1.1,1.1-1.8,1.7c-0.6-0.2-1.4-0.5-2.4-0.9c-2.6,2-4.5,5-7.1,7.2
		c-2.6,2.2-5.1,4.7-7.5,6.8c-0.6,2.2,0.5,3.6,1.7,5c-0.8,0.7-1.4,1.3-2,1.9c-0.2-0.2-0.4-0.2-0.4-0.3c-0.3-2.4-1.8-4-3.5-5.5
		c-2.2-1.9-3.6-4.5-4.7-7.1c-0.4-0.9-0.7-1.8-1-2.7c-0.6,0-1.1-0.1-1.7-0.1c-0.5-3.1-0.4-6.2-0.3-9.3c0.1-3,0.4-5.9,0.7-9.5
		c-3.5,5.5-4.8,11.2-6.1,17.7c-0.1-2.5-0.4-4.2-0.3-5.8c0-1.5,0.3-3,0.6-4.7c-1-0.1-1.5,0.6-2.2,1c-4.6,2.7-8.4,1.8-11.4-2.7
		c-0.8-1.2-1.4-2.4-2.2-3.8c-1.1-0.2-2.3-0.4-3.4-0.7c-3.2-0.9-6.2-2.3-9-4.3c-1.3-0.9-2.6-1.7-3.9-2.5c-1.1-0.6-2.2-0.8-3.6-0.2
		c0.2,0.4,0.4,0.8,0.6,1.1c0.9,1.4,2.1,2.7,2.8,4.1c1.7,3.2,3.4,6.5,5.6,9.5c3,4.2,3.1,9.2,2.1,14.1c-0.6,3.4-1.8,6.7-2.8,10
		c-0.4,1.3-0.6,2.5-0.6,3.8c0.1,1.4-0.2,2.9-0.8,4.2c-0.8,2.1-2,4.1-3.1,6.1c-1,1.9-2.3,3.6-3.3,5.5c-3.5,6.7-7,13.3-9.9,20.2
		c-0.2,0.4-0.4,0.9-0.5,1.3c-1.4,3.1,0.2,4.6,3.3,5.3c1.1,0.3,2.4,0,3.5-0.3c3.2-0.7,6-2.3,8.6-4.3c2.2-1.7,4.3-3.4,6.5-5.2
		c-0.3-0.5-0.6-1-0.9-1.5c0.1-0.2,0.1-0.5,0.3-0.6c4.2-3.7,8.4-7.4,12.5-11.2c1.8-1.7,3.4-3.6,4.3-6.2c-3.1-1.2-5.9,0.7-8.9,0.5
		c1.1-1.7,1.2-2,2.5-1.8c1.1,0.1,2.1,0,3.1-0.4c2.1-0.9,4.3-0.9,6.3-0.4c3,0.8,6.1,1.1,8.9,3.3c0.4-1.4-0.2-2.5-0.2-3.6
		c0-1.1,0-2.1,0-3.2l-0.1,0.1c0.3,0.3,0.7,0.6,0.8,1c1.2,3.1,2.3,6.3,3.6,9.3c1.2,2.8,2.4,5.7,4.1,8.3c1.4,2.1,3.2,4.2,6.2,4.8
		c1.3-0.7,2.6-1.5,3.9-2.2c1.6-1,3.3-1.2,5.1-0.4c0.8,0.4,1.7,0.9,2.7,0.2c-0.4-1.1-1.3-1.6-2.4-1.9c-0.4-0.1-0.8-0.4-1.1-0.8
		c-0.1-0.2,0-0.6,0.1-1c2.6,0.4,4.5,1.7,6.3,3.2c1.1,0.2,2,0,2.8-0.6c1-0.7,2-1.4,3-1.9c0.4-0.2,1,0,1.9,0c-0.4,0.7-0.5,1.2-0.8,1.5
		c-1.1,0.9-2.3,1.7-3.4,2.6c-1.1,0.9-2.2,0.9-3.2,0c-0.2-0.1-0.4-0.2-0.8-0.3c-0.4,0.3-0.8,0.7-1.2,1.1c-0.9,0.7-1.9,0.9-3,0.4
		c-0.8-0.3-1.7-0.5-2.9-0.8c0.1,1.4,0,2.4,0.2,3.4c0.8,6.5,1.6,13,2.4,19.5c0.8,6.6,1.7,13.2,2.5,19.9c1.1,9,2.3,18,3.4,27
		c0.8,6.4,1.6,12.8,2.4,19.2c0.9,7,1.8,13.9,2.6,20.9c0.8,6.6,1.6,13.2,2.4,19.9c0.1,1.2,0.3,2.4,0.5,3.5c0.2,1.4,0.7,2.5,1.9,3.3
		c0.6,0.4,1.1,1.2,1.5,1.9c3.3,6.2,6,12.7,8.1,19.4c1.1,3.5,2.5,6.9,3.8,10.4c0.4,1,1,2,1.1,3c0.1,1.1-0.3,2.3-0.6,3.6
		c-0.6,0-1.3,0.1-1.9,0.1c-1.2-1.4-0.9-2.9-0.8-4.2c0.1-1.5-0.4-2.8-1-4.1c-1-2.2-2-4.4-2.6-6.6c-2-7-5.1-13.6-8.1-20.2
		c-0.9-2.1-1.3-2.2-3.6-1.4c-0.2,0.1-0.5,0.1-0.7,0.2c-0.1,0-0.2,0.1-0.4,0.4c0,0.3-0.3,0.8-0.1,1.2c0.8,1.5,0.6,3,0.3,4.5
		c-1.2,6.1-2.3,12.2-3.5,18.3c-1.3,6.8-2.6,13.6-2.5,20.5c0,0.7,0,1.4,0,2.1c2.4,1,4.9,1.8,5.5,4.7c1.2-0.1,1.9-0.7,2.6-1.2
		C681.2,328.8,681.2,328.2,681.4,327.8c0-0.1,0.2-0.1,0.2-0.2c0,0,0-0.2,0-0.2C681.6,327.6,681.5,327.7,681.4,327.8z M647.7,50
		c0.1-0.1,0.1-0.1,0.2-0.2C647.9,49.9,647.8,50,647.7,50c-0.2,0.3-0.5,0.5-0.8,0.8c-0.2,0.5-0.4,1-0.6,1.5c-0.9-0.1-1.2,0.7-1.6,1.2
		c-2.6,3.3-5.4,6.4-8.7,9c-1.6,1.3-3.3,3.9-4.3,6.3c1.8,0.1,2.4-1.7,3.9-2.8c-0.1,0.9-0.1,1.5-0.3,2c-0.7,1.6-2.1,2.6-3.7,3.1
		c-2.9,0.9-5.8,1.5-8.8,0.9c-0.7-0.1-1.5-0.1-2.3-0.2c5.5,1.9,10.8,1.9,15.4-2.1c0.5,0.6,0.3,1.1-0.1,1.6c-1.3,1.9-3.3,2.6-5.4,3.2
		c-1.1,0.3-2.3,0.5-3.4,0.8c0,1.6,0.7,2.4,2,2.8c4.2,1.3,8,0.5,11.5-2c1.3-0.9,1.5-1.3,2.1-3.4c-1.7,1.1-3.3,2.1-5,3.2
		c-0.5-1.6-0.5-1.6-0.2-2.5c2-6.4,4.3-12.6,7.6-18.5c0.5-0.8,0.8-1.7,1.2-2.6c0.7-0.3,0.7-0.9,0.6-1.6
		C647.1,50.4,647.4,50.2,647.7,50z M649.1,47.8c0.3-0.2,0.5-0.4,0.8-0.6l0.1-0.1l-0.1,0.2C649.7,47.4,649.4,47.6,649.1,47.8
		l-0.1,0.2L649.1,47.8z M651.3,45c0.3-0.2,0.5-0.4,0.8-0.6c0.6-0.6,1.5-1.1,1.4-2.2c0.1,0,0.3,0.1,0.3,0c2.4-2.3,4.7-4.6,6.3-7.5
		c0.1-0.2,0.1-0.6,0.1-1.1c-0.5,0.3-0.9,0.4-1.1,0.7c-1.8,2.3-3.6,4.6-5.4,6.9c-0.2,0.2-0.2,0.7-0.3,1c-1,0.4-1.4,1.2-1.3,2.2
		C651.9,44.6,651.6,44.9,651.3,45c0,0.2,0,0.2-0.1,0.3C651.2,45.2,651.2,45.1,651.3,45z M704.9,29.2c1-0.2,0.8-0.8,0.4-1.7
		C705.2,28.3,705.1,28.8,704.9,29.2c0.1,0.2,0,0.3,0,0.3C704.9,29.4,704.9,29.3,704.9,29.2z M682.1,43c-0.9,0.8-0.7,1.9-0.7,2.9
		c-0.2,0.4-0.6,0.7-0.7,1.1c-1.7,6.3-3.7,12.5-6.3,18.6c-1.6,3.8-2.8,7.8-4.2,11.7c-0.4-0.2-0.9-0.5-1.3-0.8
		c-0.2,0.2-0.4,0.2-0.4,0.3c-0.2,0.4-0.5,0.8-0.6,1.3c-1.5,5.4-3.1,10.7-5.8,15.7c-0.1,0.2-0.1,0.5-0.1,0.7c-0.1,0-0.2,0.1-0.3,0.1
		c0,0,0,0.1,0,0.2c0.1-0.1,0.2-0.3,0.2-0.4c0.2,0,0.6,0,0.7-0.1c2.2-2.8,4.4-5.6,6.4-8.5c1.1-1.5,1.8-3.3,2.8-4.8
		c2.5-3.6,4.3-7.6,6-11.7c0.2-0.5,0.3-1.1,0.4-1.7c0.2-1.5,0.3-3,0.6-4.5c1.1-5.7,2-11.5,2.4-17.3c1-0.8,0.7-1.9,0.7-2.9
		c1-0.5,0.8-1.4,0.7-2.2c0.3-0.3,0.7-0.6,0.8-1c2.1-5.1,5-9.5,9.9-12.5c0.3-0.2,0.5-0.7,0.9-1.2c-0.7-0.1-1.2-0.2-1.6-0.3
		c0.7-0.4,1.3-1,2.1-1.3c0.7-0.3,1.6-0.6,2.4-0.7c0.8-0.1,1.6,0,2.5-0.1c0.8,0,1.4,0.9,2.3,0.3c-0.6-2.9-0.6-3-2.8-4.4
		c-0.1,0.5-0.2,1.1-0.3,1.6c-3.3,0.8-6.2,2.3-8.7,4.6c-0.7,0.6-1.5,1.2-1.6,2.2c-0.5,0.2-0.6,0.5,0,0.7c-0.9,0.7-1.9,1.2-2.4,2.4
		c-0.6,1.4-1.4,2.7-2,4.1c-0.7,1.8-1.6,3.6-1.4,5.7C681.9,41.3,682.2,42.2,682.1,43z M702.8,15c0.1-0.6-0.2-0.8-0.7-0.7
		c-0.1-0.2-0.1-0.5-0.2-0.6c-2.4-2.1-5.2-2.9-8.3-2.6c-2.4,0.2-4.7,0.9-6.7,2.2c-2.6,1.6-5.2,3.4-7.7,5.1c-3.2,2.3-6.3,4.6-9.5,7
		c-1.2,0.8-2.3,1.7-3.5,2.5c-1.9,1.3-3,3.1-3.4,5.2c-0.6,2.7-1.9,4.9-3.5,7c-1.7,2.3-3.5,4.5-5.2,6.8c-5.1,6.9-8.8,14.7-13.2,22.1
		c-0.6,1-1.2,2.1-1,3.4c0,0.1-0.1,0.1-0.1,0.2c0-0.1,0-0.2,0-0.3c0.3-0.1,0.7-0.1,0.9-0.3c3.6-3.4,7-7,9.6-11.3
		c1.5-2.5,3.2-4.9,5.5-6.9c0.3-0.3,0.7-0.4,1.7-0.9c-1.3,3.2-2.1,5.9-4,8c-1,0.4-1.3,1.3-1.6,2.2c-0.6,1.7-1.2,3.4-1.7,5.1
		c-1.7,6-2.9,12-1.9,18.3c0.8,5.2,2.5,9.9,5.5,14.2c0.2,0.3,0.5,0.9,1.2,0.4c-0.1-1.2-0.2-2.5-0.2-3.3c-1-1.7-2.1-3-2.5-4.4
		c-1.9-7-3-14-1.7-21.2c0.6-3.4,1.2-6.8,2.8-9.9c-0.1,0.8-0.2,1.7-0.3,2.5c-0.5,2.4-1.2,4.8-1.5,7.3c-0.7,5.3-0.8,10.7,0.9,15.9
		c0.2-1.3,0.1-2.6,0.2-3.9c0.1-2.1,0.1-4.3,0.3-6.4c1.2-11,4.7-21.3,9.4-31.2c0.2-0.5,0.7-0.8,1.1-1.2l-0.1-0.1
		c0.3,1.2-0.5,2.1-0.9,3c-2.8,6-4.9,12.1-6.5,18.5c-1.6,6.3-2.1,12.7-2,19.1c0,0.5,0.2,1,0.4,2.3c0.4-3.4,0.7-6.1,1.1-8.8
		c1.3-8.1,3.8-15.7,7.5-23c0.2-0.3,0.3-0.9,1.2-0.5c-1.4,4.6-2.9,9.3-4.3,13.9c-1.4,4.7-2,9.5-2.6,14.4c-0.6,5.1-0.7,12.8-0.1,14.5
		c0.4-0.5,0.9-0.9,1.2-1.4c0.6-0.9,1.2-1.8,1.6-2.8c1.5-3.9,3-7.8,4.5-11.7c0.3-0.7,0.5-1.4,0.5-2.1c-0.1-1.1,0.4-2.1,0.8-3.1
		c1.6-3.8,2.6-7.7,2.7-11.8l-0.1,0.1c0.4,0.2,0.9,0.3,1.1,0.6c0.3,0.4,0.4,1,0.7,2.1c0.5-1.5,0.9-2.5,1.1-3.5c1-3.9,2-7.8,2.8-11.8
		c1.1-5.5,2.4-10.9,4.3-16.2c2.1-6,5.4-11.1,10.8-14.6c2-1.3,4.1-2.4,5.9-3.9c0.2-0.1,0.4-0.3,0.6-0.4c2.1-0.9,4.5-1,6.3,1.6
		c0.7,1,1.2,2,1.8,3c-0.4-5.8-3.5-8.8-9.3-8.8c-0.2,0-0.5,0.1-0.7,0c-0.3-0.1-0.5-0.3-0.9-0.5c0.5-0.2,0.8-0.5,1.1-0.5
		c1.9-0.2,3.8,0.1,5.6,0.7c0.8,0.3,1.6,0.4,2.4,0.6C702.1,14.8,702.4,15,702.8,15c0.8,1.6,1.8,3.3,2.4,5c0.5,1.8,0.6,3.8,0.9,5.7
		c0.3-1.8,0.4-3.5,0.3-5.3c-0.1-1.9-0.7-3.7-2.3-5C703.7,15.2,703.2,15.2,702.8,15z M710,324.2c0.5,0.4,1,0.8,1.8,0.1
		C711,324.3,710.4,324.3,710,324.2c-0.2-0.1-0.2-0.4-0.3-0.5c-1.7-1.1-3.5-2.1-5.1-3.2c-1.6-1.1-3.3-1.9-5.2-2.2
		c-2.8-0.4-5.6-0.9-8.4-1.4c-0.5-0.1-1-0.1-1.4,0.1c-1.2,0.5-2,0-3-0.5c-1.1-0.6-2.1-1.6-3.6-1.5c-0.2,0.3-0.6,0.6-0.6,0.8
		c-0.2,2.3-0.4,4.7-0.1,6.9c0.5,0.2,0.7,0.3,0.9,0.3c2.7,0,5.1,0.7,7.5,1.9c3.1,1.5,6.3,2.7,9.9,2.9c1.8,0.1,3.6,0.3,5.3,0.9
		c2.7,1,5.6,1.3,8.4,1.8c2.5,0.5,3.1,0,3.8-2.8c0.7-1,2.1,0.5,2.8-0.6c-0.4-1-1.2-0.7-1.9-1c-0.4-0.1-0.9-0.1-1.5-0.2
		c0.3,0.8,0.5,1.4,0.7,1.9c-1.1,0.2-2.2,0.5-3.4,0.2c-2.2-0.6-4.4-1.2-6.6-1.5c-2.1-0.3-3.9-1.2-5.4-2.5c-1-0.9-2.2-1.3-3.5-1.5
		c-2.5-0.6-5.1-1.3-7.6-2c-0.3-0.1-0.5-0.6-1-1.2c0.9-0.1,1.5-0.3,2.1-0.2c2.7,0.4,5.4,0.7,8.1,1.3c0.9,0.2,1.8,0.6,2.5,1.2
		C705.1,323.3,707.4,324.1,710,324.2z M565.4,351.5c3.2,1.4,6.3,2.7,9.5,4.1c1.2,0.5,2.2,1.4,3.2,2.3c2.6,2.3,5.4,4.3,9,4.6
		c0.9,0.1,1.9,0.3,2.8,0.6c1.5,0.4,2.6,1.1,3,2.7c0.1,0.4,0.4,0.8,0.7,1.4c2.7,1,5.3,0.7,7.9-0.8c-1.1-1.4-2.4-2.1-3.8-2.7
		c-1.7-0.8-3.4-1.7-4.9-2.8c-2.3-1.8-4.8-3-7.3-4.5c-1.2-0.7-2.6-1.1-4-1.3c-3.2-0.3-6.3-1-9.3-2.3c-0.5-0.2-0.9-0.6-1.7-1.2
		c0.8-0.3,1.3-0.6,1.6-0.5c1.2,0.2,2.3,0.6,3.5,0.9c0.2,0,0.4-0.1,0.6-0.1c0.1-0.5,0.2-1.1,0.3-1.5c2.7-0.8,5.1,0.5,8.1,0.3
		c-2.2-1.5-4.3-1.9-6.3-1.9c-2.2,0-3.9-0.7-5.4-2.2c-0.5-0.5-1-1-1.5-1.4c-2.8-0.1-5.6-0.2-8.3-0.2c-2.8,0-5.7-0.7-8.6-0.3
		c-1.6,3.6-3.2,7.2-4.8,10.8c1.8,0.8,3.5,0.5,5.1,0.6c3.7,0.1,7.1,1.1,9.7,3.8c1.5,1.6,3.2,2.4,5.1,3.1c2.2,0.8,4.6,1.4,6.7,2.3
		c4.1,1.8,8.4,1.5,12.6,1c0.5-0.1,0.9-0.4,1.6-0.8c-2.3-0.5-4.1-0.9-6-1.2c-2.1-0.4-3.9-1.2-5.5-2.5c-2.9-2.5-6.2-4.4-9.7-5.9
		c-1.1-0.5-2.1-1.1-3.1-1.7c-0.5-0.3-0.9-0.7-1.3-1.1C565.1,352.2,565.3,351.8,565.4,351.5L565.4,351.5z M609.2,151.9
		c-0.4,0-0.7-0.1-1,0c-2.5,1-5.1,2.1-7.5,3.2c-1.4,0.6-2.7,0.7-4.1,0.1c-0.6-0.2-1.1-0.5-1.6-0.7c-1.7-0.4-2.6-1.6-3-3.2
		c-0.3-1.1-0.3-2.4-0.2-3.5c0.3-2.9,1.5-5.5,2.9-8c0.6-1.2,1.3-2.3,1.6-3.6c1.1-5.2,3.4-9.9,6.1-14.4c1.5-2.4,3.1-4.8,4.7-7.2
		c0.9-1.4,1.8-2.8,2.1-4.5c1-5.2,1.9-10.3,2.8-15.5c0.4-2.1,0.6-4.2-0.6-6.2c-0.3-0.6-0.4-1.4-0.5-2.1c-1.2-5.1-3.4-9.7-6.2-14
		c-1.2-1.9-2.6-3.7-4.3-5.2c-3.6,0.1-7.1,0.1-11.2,0.8c1.6,0.8,2.7,1.3,3.7,1.8c3.4,1.7,6.3,3.9,8.4,7c2.1,3.2,4.1,6.4,5.1,9.6
		c-0.2,1.6-0.3,2.8-0.4,4c-0.1,1.4-0.1,2.9-0.2,4.3c-0.1,2.3-0.3,4.5-0.1,6.8c0.1,1.6-0.1,3.3-0.4,5c-0.8,5.1-3.2,9.4-6.3,13.5
		c-1,1.2-1.9,2.5-2.8,3.7c-0.4,0.6-0.7,1.3-1.2,1.8c-0.5,0.5-1.1,0.8-1.6,1.2c-0.2,0.5-0.3,0.8-0.4,1.2c-0.5,3.8-2.2,7-4.3,10.1
		c-3.5,5-7.4,9.6-11.4,14.2c-0.9,1.1-1.9,2.2-2.5,3.5c-2.7,5.3-4.7,10.9-6.1,16.8c-0.1,0.5-0.1,1.1-0.1,1.8c4.1-0.1,8.1-0.2,12-0.2
		c3.2,0,6.1-0.8,8.9-2.3c4.2-2.2,7.5-5.5,10.6-9c3.2-3.6,6.2-7.2,9.3-10.8l0-0.2L609.2,151.9z M596.8,117.2c0.3-0.3,0.7-0.6,0.9-1
		c1.1-2.6,2.3-5.2,3.3-7.9c1.2-3.3,1.7-6.6,1.6-10.1c-0.1-2.5,0.1-5-0.1-7.5c-0.2-3-0.5-5.9-0.9-8.8c-0.2-1.6-1-2.9-2.2-3.9
		c-2.5-2.2-5.3-4.1-8.3-5.5c-0.4-0.2-0.9-0.1-1.4-0.1c-0.2-0.8-0.8-0.7-1.5-0.7c-2-1.6-4.4-2.4-6.7-2.9c-2.6-0.6-5.5-0.5-7.8,1.4
		c-1.4,1.1-2.9,2.1-4.3,3.2c-4.4,3.3-6.5,7.7-7,13.1c-0.1,0.7-0.2,1.4-0.3,2.1c-0.7,5.2-1.1,10.4-0.6,15.7c0.1,1.4,0.1,2.9,0.2,4.3
		c0.4,18.8,0.7,37.6,1.1,56.5c0.1,4.6,0.3,9.3,0.4,13.9c0,0.6,0.1,1.1,0.3,2.5c1-3.4,1.4-6.1,1.9-8.7c0.3-1.4,0.4-3,1.1-4.1
		c1.3-2.1,1.8-4.4,2.6-6.6c0.7-1.9,1.7-3.7,2.6-5.5c0.3-0.6,0.7-1.3,1.3-1.6c1.2-0.6,1.7-1.7,2.2-2.7c1.7-3.4,3.8-6.6,6.1-9.7
		c1.5-2,3-4,4.5-6c2.1-2.8,3.9-5.7,4.9-9.1c0.2-0.6,0.3-1.3,0.7-1.6c1.5-1,1.6-2.6,1.8-4.1c0.6-3,1-6.1,1.5-9.2
		c0.5-3.4,1.2-6.8,0.8-10.3c0-0.3,0.2-0.6,0.3-0.9c0.3,0,0.6-0.1,0.7,0c0.3,0.2,0.7,0.4,0.8,0.7c0.4,1.2,0.9,2.5,0.9,3.8
		c0.1,1.9-0.1,3.8-0.3,5.7C597.7,113.3,597.3,115.3,596.8,117.2c0,0.2-0.2,0.4-0.3,0.6c0,0.1,0.1,0.2,0.2,0.4c0-0.1,0-0.2,0-0.3
		C596.8,117.6,596.8,117.4,596.8,117.2z M433.7,191.8L433.7,191.8c-0.3,0.3-0.5,0.7-0.9,1c-2.4,1.8-5.2,2.8-7.9,4.1
		c-0.5,0.2-1.2,0.3-1.3,1.3c1.2,0,2.4,0,3.6,0c1.7,0,3.3-0.1,5,0c2.9,0.1,5.7,0.2,8.5,0.6c4.7,0.7,9.5,0.3,14.2-0.2
		c3.8-0.4,7.5-1.1,11.4-0.9c2.1,0.1,4.3,0.1,6.4-0.6c1.7-0.5,3.5-0.6,5.3-0.8c4.1-0.5,8.3-1,12.4-1.6c2-0.3,4-0.8,5.9-1.5
		c2.3-0.9,4.7-1.6,7.2-2c2.6-0.4,5.2-0.9,7.7-1.4c0.6-0.1,1.2-0.1,1.5-1.1c-1.4-0.5-2.8-1.1-4.2-1.6c-2.6-1-5-2.3-6.8-4.4
		c-2.7-3.2-5.4-6.4-7.8-9.8c-3.5-5-6.1-10.5-6.6-16.8c-0.1-1.6-0.7-3.3-1.1-4.9c-1.4-5.3-2.3-10.7-2.4-16.2
		c-0.1-6,0.6-11.9,1.9-17.7c0.2-0.8,0.7-1.5,0-2.5c-1.5,1.1-3,2.3-4.3,3.7c-2.5,2.5-5.4,3.9-8.9,3.9c-0.2,0-0.4,0.1-0.8,0.3
		c-1.1,1.8-2.9,2.5-5,3c-5.1,1.2-10.1,0.4-15.1-0.2c0.3-0.3,0.7-0.6,1.1-0.6c3.8-0.5,7.6-0.9,11.4-1.4c1.1-0.1,2.3-0.2,3.2-1.1
		c-4.8-1-9.6-0.4-14.3,0.4c-3.2,0.5-6.1,1.8-8.7,3.9c-6.8,5.5-12.9,11.7-18.8,18.1c-1.5,1.7-2.7,3.6-3.9,5.6
		c-2.6,4.4-4.5,9.2-5.7,14.2c-0.8,3.1-1.4,6.3-1.2,9.6c0.1,1.5,0.1,3.1,0.3,4.6c0.6,5.9,0.9,11.8,3.5,17.4c1.2,0.3,2.3-0.3,3.4-0.6
		c3.1-0.9,6.1-1.9,9.2-2.9C432.1,192,432.9,191.9,433.7,191.8z M413.6,196.9c0.8-0.1,1.6-0.3,2.4-0.4c0.1-0.2,0.2-0.4,0.1-0.4
		c-0.1-0.3-0.2-0.7-0.3-1c-1.9-3.9-2.8-8.1-2.9-12.4c-0.2-5.5-0.4-11-0.6-16.4c0-1.1,0.1-2.1,0.2-3.2c0.7-6.1,3.1-11.5,6.6-16.4
		c2.1-3,4.3-6,6.5-9c0.9-1.2,2-2.4,3-3.5c5-5.2,10.9-9.2,17.1-12.9c0.5-0.3,1-0.6,1.6-0.8c4.7-1.4,9.6-2,14.4-2.1
		c0.9,0,1.8,0.4,2.8,0.6c0.3,0.1,0.6,0.1,1,0.1c-0.1-0.3-0.1-0.6-0.2-0.7c-2.6-1.5-5.3-2.8-8.2-3.6c-4.3-1.1-8.6-2.1-12.9-3.1
		c-1.6-0.4-3.3-0.3-5.1-0.1c0.6,0.9,1,1.6,1.6,2.5c-0.5,0.1-0.9,0.4-1.2,0.3c-3.2-1.2-6.5-1.4-9.9-1.4c-3.5,0-6.9-0.1-10.4,0.1
		c-6.2,0.3-12.4,0.9-18.3,2.8c-8.3,2.7-16.4,5.7-24.4,9.3c-3.5,1.6-6.8,3.4-10,5.4c-4.5,2.8-8.3,6.4-11.4,10.7c-2.5,3.5-5,7-8.9,9.3
		c-0.8,4.2-1.5,8.4-2.3,12.7c-0.6,3.1-0.7,6.2-0.6,9.3c0.1,5.8,1.7,11.3,3.2,16.8c0.2,0.5,0.5,1.2,0.9,1.5c1,0.6,1.3,1.6,1.8,2.6
		c2,3.8,3.9,7.6,6.1,11.3c1.1,1.9,2.4,3.8,4,5.5c2.7,2.8,5.6,5.4,8.5,8.2c0.9-0.3,1.7-0.5,2.5-0.8c6-2.2,12-4.5,18.1-6.6
		c3.3-1.1,6.4-2.6,9-5c0.9-0.8,1.9-1.5,2.9-2.1c1-0.7,2-1.3,2.4-2.6c0.1-0.4,0.6-0.8,0.9-1c1.6-0.8,3.2-1.5,4.9-2.2
		c0.4-0.2,0.9,0,1.2,0c0.4,0.9,0,1.3-0.5,1.6c-1.6,0.8-3,1.9-4.6,3c0.5,0.8,0.9,1.5,1.4,2.2c3.3,4.5,7.6,7.8,12.2,10.9
		c0.7,0.4,1.5,0.6,2.3,0.7c1.4,0.1,2.8-0.2,4.2-0.7c5.7-2.2,11.1-5,16.3-8c1.6-0.9,2.9-2.5,4.3-3.7c0.1-0.1,0-0.4,0-0.8
		c-3.5,0.2-7-1.2-10.6-0.2c-0.3,0.1-0.7,0-1-0.1c-2.9-1-5.9-0.6-8.9-0.7c-2.5-0.1-5-0.4-7.5-0.6c-0.8-0.1-1.6-0.5-2.4-0.6
		c-0.9-0.1-1.8,0-2.8,0c0.8-1.2-0.8-1.8-0.6-2.9C412.5,197.5,413.1,197.1,413.6,196.9L413.6,196.9z M664.8,314.8
		c-0.9-1.1-1.8-2-2.5-2.9c-2-2.8-3-5.9-2.6-9.4c0.2-1.6,0.2-3.1-0.2-4.6c-1.3-5.2-1.9-10.5-1.9-15.9c0-2.9,0.1-5.7,0-8.6
		c-0.1-7.7,0.6-15.5,0.2-23.2c-0.1-1.3,0.1-2.6,0.4-3.9c0.4-2.2,0.8-4.5,1.5-6.6c1.6-4.8,1.6-9.6,0.5-14.4c-1-4.4-2.1-8.8-3.1-13.2
		c-0.4-1.8-0.8-3.8-0.8-5.6c0.1-1.8-0.1-3.5-0.6-5.3c-1.5-6.4-2.5-12.9-2.3-19.5c0.1-2.6-0.1-5.3-0.5-7.8
		c-0.8-5.6-0.7-11.2-0.6-16.8c0-2.4,0.4-4.8,3-5.9c0.2-2,0.3-3.9,0.5-5.8c0-0.7-0.1-1.4-0.1-2.1c-2.9-1.4-3.5-2-4.9-4.4
		c-0.2-0.4-0.5-0.8-0.7-1.3c-1.6-3.5-3.1-6.9-4.7-10.4c-2,0-3.2-1.4-4.7-2.4c-2.1-1.3-4.2-2.1-7-1.4c0.7,2.4-0.6,4.3-1.9,6
		c-1.2,1.6-2.6,3.1-3.9,4.6c-0.6,0.7-1.4,1.4-1.8,2.2c-1.6,3.1-4,5.6-6.3,8.2c-0.4,0.4-0.6,0.9-1.1,1.5c1.5,0.3,2.8,0.5,4.1,0.8
		c2.1,0.6,4.1,1.2,6.1,1.8c0.1,0,0.1,0.2,0.1,0.5c-1.4,0.9-2.9-0.4-4.3,0.2c-1.5,0.6-3.2,0.6-4.9,0.9c-0.5,1.6-0.2,3.2-0.3,4.7
		c0,0.7-0.2,1.6,0.2,2.1c1,1.5,0.7,3.2,0.7,4.8c0,8.1,0.5,16.2,2.2,24.2c1.6,8.1,3.1,16.1,4.7,24.2c0.1,0.6,0.2,1.2,0.6,1.7
		c2,2.5,2,5.5,2.7,8.4c0.3,1.2,0.1,2.6,1.2,3.6c0.3,0.3,0.3,1.1,0.3,1.7c0,4.3,0.2,8.6,0.5,12.8c0.3,6,0.9,11.9,1.7,17.8
		c0.8,6,1.7,12,3.4,17.9c0.7,2.3,1.5,4.5,2.2,6.8c1.9,6.4,3.2,12.9,4.3,19.5c0.3,2.1,1,4.2,1.2,6.3c0.3,4.3,0.4,8.5,0.6,12.8
		c1.3,2.3,3.1,4.2,5.1,6c1.8,1.5,3.8,2.5,6.2,2.3c1.2-0.1,2.4-0.1,3.6,0.1c1.2,0.2,2.4,0.4,3.4,1c2.6,1.6,5,3.6,8.2,4.1
		c0.9,0.1,1.6,1,2.4,1.5c0.4,0.2,0.8,0.2,1.2,0.3c0.2-0.4,0.4-0.6,0.5-0.8c0.1-0.5,0.1-0.9,0.1-1.4c0-3.2-0.5-3.8-3.5-5
		c-0.9-0.4-2.2-0.2-2.8-1.3c0.8-2.2,1-6.9,0.5-9.7C668.6,315.9,666.6,315.3,664.8,314.8z M553.3,71.2c-3.5,0.2-6.9,0.8-10.2,1.9
		c-0.4,0.2-0.8,0.5-1.2,0.7c-3,2.1-6.2,3.7-9.6,4.8c-5.6,1.7-10.3,4.9-14.9,8.3C512.1,91,506.6,95,501,98.8c-3.5,2.4-6,5.7-8.4,9.1
		c-0.4,0.6-0.7,1.3-0.8,1.9c-1.1,7.3-2.5,14.6-3.3,21.9c-0.8,7-0.7,14,0.4,21c1.4,8.6,5.2,16,10.9,22.6c1.3,1.5,2.8,3,4,4.6
		c1.2,1.6,2.7,2.6,4.5,3.3c1.2,0.4,2.4,1,3.7,1.3c2.7,0.6,5.3,1.5,7.7,2.8c1.4-0.3,2.8-0.6,4.2-0.8c0.8-1.3,0.7-2.6,0.7-3.9
		c-0.1-5,0.7-10,1.5-14.9c0.2-1.1,0.2-2.3,0.8-3.1c1.5-1.7,1.4-3.7,1.4-5.7c0.2-5.8,1.2-11.4,3.6-16.7c0.7-1.6,1.5-3.3,2.1-4.9
		c0.3-0.7,0.4-1.6,0.7-2.5c-2.6-0.5-4.3-2.1-6.3-3.4c-1.7-1.1-2.6-2.5-3-4.2c-1-4.3-2.1-8.6-2.7-12.9c-0.4-2.8-0.2-5.7,0.1-8.5
		c0.7-5.5,3.1-10.3,6.8-14.3c2.6-2.9,5.6-5.5,8.4-8.3c4.1-4.2,8.7-7.7,13.8-10.7C552.3,72,552.8,71.6,553.3,71.2z M658.1,143.2
		c0.7,3.2,0,5.9-1,8.6c-1.2,3.3-2,6.6-1.7,10.1c0.1,1.9-0.2,3.8-0.2,5.7c0,1.5-0.1,3.1,0.2,4.6c0.8,3.8,0.9,7.6,0.9,11.4
		c0,4.2,0.4,8.3,1.3,12.4c0.6,2.6,1,5.2,0.9,7.8c-0.1,2.6,0.5,4.9,1.4,7.3c1.7,4.3,2.8,8.9,2.9,13.6c0,1,0.2,2.1,0.6,3.1
		c0.6,1.5,0.7,3,0.7,4.6c0,3.4-0.9,6.6-1.8,9.8c-0.3,1.3-0.8,2.5-0.8,3.8c-0.3,5.1-0.6,10.2-0.8,15.3c-0.2,7-0.3,14.1-0.3,21.1
		c-0.1,6.6,1,13,2.9,19.4c0.7,2.5,1.4,5.1,1.8,7.6c0.5,3.2,0.7,3.6,3.8,4c0.7,0.1,1.3,0,2,0c0.2-0.5,0.3-0.9,0.4-1.2
		c0.9-4.9,1.8-9.8,2.6-14.8c0.6-3.3,1-6.6,1.8-9.8c0.9-3.4-0.3-6.9,1.1-10.2c0.2-0.4,0-0.9-0.1-1.4c-0.3-2.2-0.6-4.5-0.8-6.7
		c-0.9-7.1-1.7-14.2-2.6-21.3c-0.8-6.9-1.7-13.7-2.5-20.6c-0.8-7-1.7-14-2.5-20.9c-0.8-6.9-1.6-13.7-2.5-20.6
		c-0.8-6.9-1.7-13.7-2.5-20.6c-0.8-6.7-1.6-13.5-2.4-20.2c-0.1-0.8-0.4-1.6-0.6-2.4C659.7,142.9,659.1,143,658.1,143.2z
		 M558.1,213.3c-1.5,1.5-2.5,2.8-2.6,4.5c-0.1,1.7-0.8,3.2-1.4,4.8c-0.3,0.8-0.9,1.6-0.8,2.3c0.2,3.1-0.4,6.2,0.3,9.3
		c1.5,6,1.5,12,0.4,18.1c-0.5,2.7-0.9,5.4-1.3,8.1c-0.4,2.6-0.7,5.2-1.3,7.7c-0.8,3.5-1.8,6.9-2.9,10.3c-1.6,4.9-2,10-2.3,15.2
		c-0.2,3-0.1,6-0.3,8.9c-0.6,8.4,0.1,16.7,1.2,25c0,0.3,0.3,0.6,0.6,1.1c0.4-0.6,0.6-0.9,0.8-1.3c0.7-1.6,1.3-3.3,2.1-4.9
		c1.8-3.8,3.6-7.5,5.4-11.3c0.4-0.8,1-1.7,1.7-2.3c0.8-0.6,1.8-1,2.9-1.5c0-1.1,0-2.3,0-3.5c-0.2-8.2-0.4-16.4-0.7-24.7
		c-0.2-8.2-0.4-16.4-0.6-24.7c-0.3-12.4-0.6-24.8-0.9-37.2C558.3,216,558.2,214.9,558.1,213.3z M564.4,307.7c0-1.4,0-2.5,0-3.5
		c0-1.4-0.2-2.9-0.2-4.3c-0.3-13.1-0.6-26.2-0.8-39.3c-0.2-9.3-0.4-18.6-0.6-27.9c-0.3-13.5-0.6-26.9-0.9-40.4
		c-0.2-8.9-0.4-17.9-0.6-26.8c-0.3-14.9-0.6-29.8-0.9-44.7c-0.1-6.6-0.2-13.1-0.4-19.7c-0.3-7.2,0.3-14.3,2.8-21.1
		c0.6-1.7,1.4-3.3,2.6-4.7c1.2-1.5,2.7-2.7,4.3-3.8c1-0.7,2.2-1.2,2.9-2.7c-0.8,0.1-1.3-0.1-1.6,0.2c-4.9,3.2-9.2,7.2-12.4,12
		c-1.5,8.5-2,17.1-1.6,25.7c0.2,5.5,0.4,11,0.5,16.4c0.3,13.4,0.6,26.7,0.9,40.1c0.1,3.6,0.1,7.2,0.2,10.7c0.3,9.9,0.7,19.8,1,29.7
		c0.2,8.7,0.2,17.4,0.4,26.1c0.3,12.8,0.7,25.5,1.1,38.3c0.3,12.3,0.6,24.6,0.9,36.8c0,0.9,0.2,1.9,0.2,2.9
		C562.9,307.7,563.4,307.7,564.4,307.7z M366,223c0,0.2,0,0.4,0.1,0.6c0.5,0.1,1.1,0.2,1.6,0.3c2.7,0.2,5.5-0.1,8.2-0.5
		c6.1-0.9,12.3-1.6,18.4-2.6c5.9-1,11.7-2.2,17.5-3.3c0.9-0.2,1.8-0.5,2.8-0.8c-5.8-3.7-6.7-4.7-10.8-10.5c-0.2-0.2-0.5-0.4-0.8-0.6
		c-0.9,0.7-1.7,1.4-2.5,2.1c-1.9,1.5-3.7,2.9-5.6,4.5c-2.3,1.9-4.9,3-7.8,3.3c-2.2,0.2-4.2,0.8-6.2,1.6C375.9,218.9,371,221,366,223
		z M664,140.9c-1.7,0.4-1.8,1.3-1.7,2.3c0.7,6.3,1.5,12.5,2.3,18.8c0.8,6.9,1.7,13.7,2.5,20.6c0.8,6.9,1.6,13.7,2.4,20.6
		c0.9,7.3,1.8,14.7,2.7,22c0.8,6.6,1.6,13.2,2.4,19.9c0.9,7.1,1.7,14.2,2.6,21.3c0.4,3.3,0.9,6.6,1.4,9.9c0,0.2,0.3,0.3,0.5,0.5
		c0.5-0.4,1-0.9,1.6-1.4C675.1,230.5,669.6,185.9,664,140.9z M567.6,364.6c-2.3-1.5-4.4-3.1-6.7-4.6c-0.9-0.6-1.9-1.1-2.9-1.2
		c-2.8-0.4-5.6-0.6-8.6-0.9c0.5,1,0.9,1.7,1.2,2.5c0.2,0.7,0.4,1.4,0.4,2.1c0,0.8-0.3,1.6-0.4,2.4c-0.1,0.8-0.9,1.4-0.4,2.3
		C553.6,367.3,560.2,366.4,567.6,364.6z M682.1,312.7c1.7-0.8,2.9,0,4.1,0.8c0.9,0.6,1.9,1.3,3.2,1.3c-0.4-3.3-2.7-10.8-6.3-20.4
		c-0.1-0.4-0.5-0.7-0.9-1.4C681.6,299.6,681.9,305.9,682.1,312.7z M215.9,233.5c-3.7-0.3-7-0.6-10.3-0.9c-0.8-0.1-1.7,0-2.5,0.1
		c-0.3,0-0.7,0.2-1,0.3c-0.6,4.7,3.5,5.9,6.4,5.1c0.1-0.5,0.1-0.9,0.2-1.3c1.1-0.5,2.2-0.9,3.3-1.4
		C213.2,234.9,214.4,234.3,215.9,233.5z M624,67.4c-5.3-0.9-9.6-1-12.6-0.2c0.5,0.3,0.9,0.7,1.3,0.8c1.4,0.4,2.8,0.6,4.1,1
		C619.3,69.8,621.6,69.4,624,67.4z M700.8,30.4c-0.2-0.8-0.2-1.5-0.5-2.1c-0.5-1.2-1.4-1.5-2.6-1.1c-1.5,0.5-2.6,1.4-4.2,3.7
		C696.1,30.2,698.4,31,700.8,30.4z M623.9,70c1.9,0.1,3.8,0.3,5.7-0.4c0.4-0.6,0.8-1.2,1.1-1.8c0.3-0.6,1.1-1,0.6-1.9
		c-2.3,1.1-4.5,2.1-6.8,3.2c-0.2,0.1-0.4,0.3-0.5,0.5C623.9,69.6,623.9,69.7,623.9,70z M672,85.7l0.2-0.1l-0.2-0.1L672,85.7z"/>
	<path d="M679.3,472.5c0-0.5,0-1.1-0.1-1.6l-0.1,0.1c0.5-0.5,1.1-0.9,1.4-1.5c0.5-0.8,0.9-1.6,1.5-2.7c-1.2,0.1-2.1,0.1-3.1,0.2
		c-3.4,0.6-6.6,0-9.8-1.1c-1.6-0.5-3.3-1.2-4.3-2.8l-0.1,0.1c5.5,1.7,11.1,2.6,16.9,1.4c0.6-0.1,1.1-0.4,1.6-0.7
		c0.2-0.1,0.2-0.4,0.4-0.6c-2.1-0.3-4.3-0.5-6.4-0.8c-3-0.4-5.8-1.3-8.5-2.7c-1.7-0.9-3.4-1.8-4-3.8l-0.1,0.1
		c1.2,0.5,2.4,0.9,3.5,1.5c2.4,1.3,4.8,1.5,7.2,0.4c3.9-1.7,8-3.1,11.6-5.5c0.2-0.1,0.3-0.3,0.5-0.5c-0.1-1-1-1.3-1.7-1.5
		c-2.3-0.6-4.6-1.2-7-1.6c-3.5-0.5-7.1-0.9-10.6-1.3c-0.8-0.1-1.7-0.1-2.5-0.1c-2.6,0.1-5.2,0.4-7.8,0.5c-2.7,0.1-5.1,1-7.3,2.5
		c-0.1,0.1-0.1,0.2-0.3,0.6c0.8,1.2,1.6,2.7,2.6,4c2.5,3.2,3.7,6.9,4.5,10.7c1,4.4,0.9,8.7-0.4,13.1c-0.3,1.1-0.6,2.3-0.5,3.5
		c0,1.1-0.3,2.4-0.9,3.4c-3.2,6.3-6.4,12.5-9.7,18.7c-2.5,4.7-5.2,9.3-7.9,14c-0.4,0.7-1,1.3-1.4,2c-0.5,0.9-1.1,1.9-1.3,2.9
		c-0.5,1.9,0.7,3.5,2.6,3.9c0.8,0.2,1.6,0.3,2.4,0.4l-0.1-0.1c0.5,0.6,1,0.9,1.5,0c0.1-0.1-0.5-0.5-0.8-0.8l0.1,0.1
		c0.2-0.4,0.2-1,0.5-1.2c1.2-0.9,2.5-1.8,3.9-2.5c2.6-1.3,5.2-2.4,7.8-3.6c1.5-0.7,2.9-1.6,4.2-2.7c2.1-2,4.6-3.4,7.2-4.5
		c1.5-0.6,3.2-1.1,4.8-1.2c3.2-0.1,6.4,0,9.6,0.2c3.2,0.2,6.4,2,8.7,4.4c0.5,0.5,1,1,1.7,1.6c0.1,0.4,0.3,0.9,0.3,1.5
		c0.1,5.8,2.7,10.8,5,15.9c0.7,1.5,2.5,2.1,4.7,1.6c2.1-0.5,4.2-1,6.2-1.5c2,0.1,3.2,2.1,5.3,2.1c0.1-1.5-1.1-2-1.7-2.9
		c-0.3-0.5-0.2-0.9,0.2-1.2c2.1,0.9,4.1,1.8,6.1,2.7c1.3-0.9,2.5-1.7,3.7-2.5c0.4-0.3,1-0.3,1.2,0.2c0.1,0.3,0,1-0.2,1.3
		c-0.7,0.6-1.5,1.2-2.3,1.6c-2.1,1-4.5,1.5-6.6,2.7c-0.5,0.3-1.4,0.1-2-0.2c-0.9-0.4-1.6-1-2.4-1.5c-0.8-0.4-1.3,0-1.8,0.7
		c3.7,3,8.1,4.2,12.6,4.6c1.7,0.2,3.3,0.5,4.8,1.3c0.3,0.2,0.7,0.3,0.9,0.5c3,2.2,2.8,5.6-0.5,7.4c-0.3,0.2-0.8,0.1-1,0.3
		c-3.5,3.2-7.5,2.1-11.5,1.4c-0.6-0.1-1.1-0.3-1.7-0.5c-1.5-0.4-3-0.8-4.5-1c-3.6-0.4-7-1.5-10.4-2.5c-1-0.3-1.9-0.9-2.8-1.5
		c-1-0.6-2.1-1.1-3.3-1.1c-1,0.9-0.4,2-0.7,3c0.4,0.2,0.6,0.3,0.7,0.3c1-0.2,2.1-0.6,3.1-0.7c0.6,0,1.2,0.4,2.1,0.7
		c-1.5,2.3-4,2-5.8,2.8c-1.9,0.9-4,1.4-6.2,2.1c-0.9,2.1-0.9,2.1-3.7,3c-2-0.6-3.7-2-5.9-2.2c-0.7,0-1.4-0.8-2.1-1.3
		c-3.7-3.2-7.9-4-13-3.1c-0.3-0.2-0.9-0.6-1.5-0.8c-1.7-0.6-2.8-1.6-3.6-3.2c-0.6-1.3-1.6-2.4-2.4-3.5c-1.2-1.6-1.9-3.3-1.9-5.3
		c0-1.1-0.1-2.1-0.4-3.1c-0.5-1.8-1-3.6-0.1-5.5c0.1-0.2-0.1-0.4-0.3-0.9c-0.4,0.2-0.8,0.4-1,0.7c-1,1.4-1.9,2.7-2.8,4.2
		c-1.9,3-4.1,5.9-6.5,8.5c-0.8,0.9-1.7,1.6-2.9,2c-1.1,0.4-2.1,1-3.1,1.7c-2.7,1.7-5.6,3.2-8.7,4c-2,0.5-4,0.7-6,0.3
		c-0.5-0.1-1-0.5-1.8-1c0.8-0.4,1.3-0.9,1.8-0.9c7-0.1,12.7-3.7,18.6-6.9c0.3-0.2,0.6-0.4,0.9-0.6c2.6-2.9,5-5.9,7-10.2
		c-1.4,1.2-2.2,1.8-3.3,2.6c-0.2-1.8,1.8-2.1,1.6-3.6c-1.1-0.1-2.2,0-3.2-0.3c-2.4-0.5-3.5-2.7-3.3-5.1c0.5-4.7,2.7-8.6,5.7-12.1
		c1.4-1.6,2.5-3.5,3.4-5.4c3.5-6.8,7-13.6,10.6-20.3c1.1-2.1,1.8-4.3,2.1-6.7c0.6-4.5,0.6-9-0.1-13.5c-0.7-4.6-2-9.1-5-12.8
		c-1-1.2-1.7-2.5-2.6-4c-4.1,0.7-8.3,0.3-12.4,1.2c0.1,1,0.8,0.9,1.3,1.1c2.4,1,4.9,2,7.3,3c2.6,1.1,4.6,3,6,5.4
		c2.2,3.8,3,8,2.6,12.4c-0.3,3.5-1.3,6.7-2.7,9.9c-2.8,6.2-6.3,12-10.6,17.4c-2.2,2.7-4.6,5.2-7.3,7.3c-2.6,2-5.4,3.5-8.5,4.5
		c-1.2,0.4-2.3,1-3.3,2c-1.1,1.1-2.4,1.9-3.8,2.7c-6.7,3.8-13.8,6.4-21.4,7.8c-2.3,0.4-4.5-0.3-6.7-0.8c-5-1-10-2.2-15.1-3.3
		c-0.9,1.1-1.1,2.5-1.5,3.9c-0.4,1.4-0.7,2.8-1.2,4.3c1.2,0.5,2.4,1.2,3.6,1.6c1.8,0.6,3.1,1.8,3.9,3.4c0.8,1.6,1.6,3.2,2.3,4.8
		c2,4.4,4,8.9,6.1,13.4c2.1,0.9,4.4,1.1,6.6,1.2c3,0.1,6-0.2,8.9-0.3c1.1,0,2-0.4,2.9-1.1c2.9-2.2,6-4.4,8.9-6.5
		c2-1.5,4-2.9,5.7-4.8c0.2-0.2,0.6-0.3,1.2-0.5c-0.2,1.3-1.1,1.8-1.6,2.5c-0.6,0.7-1.3,1.4-2,2.1c-0.7,0.7-1.3,1.4-2,2
		c-0.6,0.6-1.3,1.1-1.9,1.6c-0.7,0.6-1.5,1.2-2.2,1.8c-0.7,0.6-1.5,1.2-2.2,1.7c0.3,0.4,0.5,0.6,0.9,1c-3.4,1.5-6.6,3-10.2,3.4
		c-3.5,0.4-7.1,0.6-10.9,0.9c0.1,0.7,0.3,1.3,0.4,2c0.4,1.7,0.8,3.5,1.1,5.2c0.5,3.1,0.4,3.4-0.9,6.2c1.7,1.3,3.5,2.3,5.5,3.1
		c2,0.7,3.8,1.9,5.7,2.9c1.1,0.5,2.1,1.2,3.2,1.6c2.4,1,4.8,2,7.2,3c1.1,0.5,1.5,1.8,0.6,2.6c-0.9,0.9-2.1,1.5-3.1,2.3
		c-0.2-0.3-0.5-0.5-0.7-0.8c-0.4-1.2,1.2-1.4,1.3-2.4c-0.3-0.2-0.5-0.4-0.8-0.5c-3.7-1.2-7.3-2.8-10.5-5.1c-0.6-0.4-1.2-0.8-1.9-1.1
		c-2.2-0.9-4.5-1.5-7.7-1.3c1.3,0.8,2,1.2,2.7,1.6c1.1,0.7,2.3,1.3,3.2,2.2c2.3,2,4.9,3.4,7.6,4.5c1.1,0.4,2.2,0.9,3.1,1.6
		c1,0.7,2,0.7,3,0.4c0.2,0.3,0.5,0.6,0.7,0.9c0,2.2-1.1,3.5-3.1,4.2c-3.3,1.3-6.6,1.9-10.2-0.1c-1.5,0.7-3.2,0.8-5,0.5
		c-1.5-0.3-3.1-0.1-4.6-0.2c-2.3-0.1-4.5-0.5-6.6-1.5c-1-0.5-2-0.8-3-1.1c-0.5-0.1-1.2-0.1-1.7,0c-6.4,1.5-12.8,2.6-19.3,3.5
		c-1.1,0.2-2.1,0.1-3.1-0.5c-0.7-0.5-1.7-0.6-2.8-1c0.4-0.8,0.7-1.5,1.1-2c2.2-3,1.4-6.2-2.1-8c-0.4-0.2-0.8-0.4-1.2-0.6
		c0-1.5,0.1-1.9,0.9-2c0.6-0.1,1.2,0,1.9,0c1.9-3.5,3.5-7,4.9-10.7c0.9-2.4,1.7-4.9,2.5-7.4c0.3-0.9,0.6-1.9,0.4-2.8
		c-0.2-1.2,0.2-2.2,0.9-3c2.3-3,3.2-6.6,4.9-9.9c1.2-2.4,2.3-4.9,3.4-7.2c1.6-0.8,2.8-0.2,4,0.4c0.9,0.5,1.4,1.2,1.8,2.1
		c3,7,6.1,14,8.4,21.3c0.4,1.2,0.7,2.5,1,3.8c0.1,0.6,0.1,1.2,0.1,1.8c-0.1,0.6-0.5,1.2-1.2,1.1c-0.5,0-1.2-0.3-1.5-0.7
		c-0.4-0.7-0.6-1.5-0.8-2.3c-0.6-2.2-1.2-4.3-1.9-6.6c-2.6-0.7-5.3-0.1-7.8-0.3c-2.6-0.2-5.2-0.6-8-0.1c-1.3,2.1-1.5,4.6-2.5,7
		c0.8,0.2,1.2,0.4,1.7,0.4c4.4,0.2,8.8,0.4,13.2,0.4c1.7,0,3,0.4,4.1,1.7c1.3,1.4,2.9,2.1,4.7,2.2c1.4,0.1,2.7,0.8,4.3,0.5
		c0.3-1.2,0-2.4-0.1-3.5c-0.1-1.1-0.2-2.1-0.5-3.2c-2.3-8.8-5.2-17.4-8.9-25.6c-0.3-0.7-0.6-1.3-1-1.9c-0.8-1.3-1.8-2-3.4-2.2
		c-3.4-0.4-6.6-0.3-10,0.8c-1.8,2.9-3.4,5.9-4.9,9.1c-4.5,10-8.4,20.3-11.8,30.7c-0.4,1.1-0.4,2,0.5,2.9c-0.7,0.8-1.5,1.6-2.1,2.4
		c-1.5,2-1.7,4.2-1,6.4c0.4,1.4,1.2,2.6,2.8,2.9c0.7,0.2,1.3,0.5,1.9,0.7c-0.1,1.4-1.1,1.7-2.1,1.6c-0.8,0-1.7-0.3-2.4-0.7
		c-0.8-0.5-1.5-1.2-2.2-1.8c-2.6-0.5-5.2-1-7.7-1.4c-2.2-3.6-4-7.2-4.8-11.2c-0.2-1.2-0.7-2.1-1.7-3c-1.1-1.1-2-2.4-2.6-3.8
		c-1.5-3.2-2.9-6.5-4.3-9.8c-0.7-1.8-1.6-3.4-2.9-4.9c-1.4-1.5-2.6-3.1-4-4.9c-2.3-0.3-4.8-0.6-7.3-1c-6.3-0.8-12.3-2.6-18-5.5
		c-3.7-1.9-7.5-3.7-10.7-6.4c-0.7,0.1-1.4,0.4-2.1,0.3c-0.7-0.1-1.4-0.4-2-0.7c-5.4-2.3-11-3.9-16.7-5.3c-1.7-0.4-3.5,0-5.2-1.1
		c-1.5-1-3.2-1.5-4.8-2.4c-2-1-3.9-1.4-6.2-1c-3.2,0.5-6.4,0.6-9.6,0.6c-4.2,0.1-8.3,0.6-12.4,1.6c-2.5,0.7-5.1,1.2-7.7,1.8
		c-4,0.8-8,1.2-12.1,1c-1.1-0.1-2.4-0.7-3,0.9c-1.4,0.4-2.9,0.7-4.1-0.3c-1.8-1.5-3.9-1.6-6-1.8c-6.1-0.5-12.1-1-18.2-1.7
		c-6.2-0.7-12.2-2.1-17.8-5c-0.5-0.3-1.1-0.5-1.7-0.6c-5.7-1-10.9-3.5-15.9-6.2c-2.1-1.1-4.1-1.8-6.4-2c-1.2-0.1-2.4-0.4-3.5-0.5
		c-3.4-0.3-6.5-1.5-9.2-3.7c-1.8-1.4-3.7-2.1-5.9-2.1c-3.5-0.1-6.8-1.1-10-2.6c-0.5-0.2-1.1-0.5-1.6-0.7c-5.7-2-11.4-4.1-17.2-6.1
		c-0.8-0.3-1.6-0.4-2.4-0.5c-7.6-0.8-15.2-1.5-22.8-2.5c-4.6-0.6-9.2-1.5-13.7-2.3c-2.5-0.4-4.9-0.9-7.4-1.2
		c-4.4-0.5-8.7-1.2-13-2.5c-1.2-0.4-2.5-0.7-3.8-0.9c-0.4-0.1-0.9,0-1.6,0c-0.3,1.2-0.6,2.3-0.7,3.4c-0.3,2.1-1,3.9-2.5,5.4
		c-1.3,1.4-1.8,3.1-1.9,4.9c-0.2,2.5-0.4,5-0.5,7.5c0,0.4,0,0.7,0.1,1.1c0.2,2,0.2,2-0.6,4c0.5,0.9,1.1,1.9,1.8,2.8
		c2,3,1.9,5.4-1.3,8.1c-1.8,1.5-4,2.5-6.2,3.5c-2.3,1-4.7,0.4-7-0.4c-0.8-0.3-1.5-0.7-2.4-1.2c-0.8,0.9-1.6,1.9-2.4,2.7
		c-1.6,1.6-3.5,2.9-5.6,3.8c-0.8,0.3-1.6,0.7-2.4,0.8c-4.6,0.3-9.2,1.4-13.8,0c-0.2-0.1-0.5-0.1-0.7-0.1c-1.9-0.4-12.6-4.7-14.2-5.8
		c-1.1-0.8-2.1-1.6-3-2.5c-1.3-1.2-2.4-2.6-3.7-3.9c-2.3-2.2-3.5-5.1-5.1-7.7c-0.4-0.7-0.3-1.6-0.4-2.4c0-2.9-0.1-5.7,0-8.6
		c0-1.2,0.1-2.4,0.5-3.5c1.1-2.6,2.3-5.2,4.3-7.3c0.7-4-0.6-7.3-3.7-9.9c-0.5-0.4-0.8-0.9-1.3-1.2c-2.1-1.4-3.1-3.6-3.5-6
		c-0.7-3.9-1.5-7.7-1.8-11.6c-0.3-4.2,1-8,3.4-11.4c1.1-1.5,2.2-3.1,3.3-4.7c1.9-2.7,4.6-4.5,7.2-6.3c0.6-0.4,1.6-0.4,2.4-0.3
		c5.2,0.7,10.4,1.4,15,4.3c1.8,1.1,3.7,1.7,5.8,1.6c2.5-0.2,4.6,0.9,6.5,1.9c1.2-2.6,2.3-5.1,3.6-7.5c0.7-1.2,1.8-2.2,2.8-3.2
		c1.2-1,2.6-1.4,4.3-1c2.9,0.7,5.8,1.3,8.7,1.8c3.2,0.6,6.4,0.9,9.5,1.5c2.8,0.5,5.6,1.1,8.5,1.4c2.2,0.2,4.5,0.8,6.6,1.5
		c2.4,0.8,3.9,2.6,4.3,5.4c3,0.5,6,1,9.2,0.6c2-0.2,2-0.1,3.9,1.5c1.9,0.1,3.9,0.1,5.9,0.2c5,0.3,10,0.7,15,1.1c0.6,0,1.2,0.1,1.8,0
		c4.7-0.5,9.5-1.3,14.2-1.6c5-0.4,10.1-0.6,15,0.4c4.7,0.9,9.4,1.2,14.1,2.3c2,0.5,4,0.9,5.8,1.9c3.9,2,8.1,2.9,12.2,3.9
		c1.5,0.4,3,0.7,4.4,1c3.6-0.9,7.1-1.9,10.7-2.7c2.4-0.5,4.9-0.8,7.4-1c9.4-0.8,18.8-1.5,28.1-2.4c3.3-0.3,6.6-1,9.9-1.6
		c0.6-0.1,1-0.5,1.6-0.8c0.4-0.2,0.9-0.5,1.3-0.4c2.9,0.1,4.8-1.7,6.6-3.6l0.1,0.2l-0.2-0.1c2.5-1.7,5-3.3,7.4-5
		c3.8-2.7,7.9-4.8,12.4-6.3c7.5-2.6,15.2-4,23-5c1.3-0.2,2.6-0.1,3.9-0.1c2.9,0,5.7,0.2,8.5-0.7c0.8-0.2,1.7-0.2,2.5-0.2
		c3.7,0,7.4,0.1,11.1,0c7.7-0.1,14.8,2.2,21.5,5.8c0.9,0.5,1.9,0.9,2.9,1.4c3.1,1.5,6.3,2.9,9.3,4.5c5.8,2.9,10.6,7.2,15.2,11.7
		c0.7,0.7,1.3,1.4,2,2c0.1,0.1,0.2,0.1,0.6,0.2c2.9-0.5,6.2-0.5,9.2-1.8c1.2-0.5,2.5-0.7,3.8-1c7.4-1.5,14.9-1.4,22.4-1.3
		c3.9,0.1,7.9,0,11.8,0c3.5,0,6.9-0.2,10.4-0.1c2.4,0.1,4.8,0.3,7.1,0.7c2.4,0.5,4.7,0.3,7.1-0.1c2.9-0.5,5.9-1,8.8-1.3
		c2.6-0.3,5.2-0.6,7.7-1.6c1.5-0.6,3-0.7,4.6-0.6c1.9,0.2,3.8,0,5.7-0.5c3.6-1,7.3-1.1,10.9-1.5c4.6-0.5,9.2-1,13.8-1.6
		c0.4-0.1,0.9-0.4,1.4-0.6c0.4-1.7,0.6-3.5,0.5-5.3c-0.1-1.5,0.2-2.9,1.1-4.1c0.5-0.6,1-1,1.8-0.8c-0.2,0.5-0.3,1.1-0.5,1.6
		c-0.2,0.5-0.7,1-0.8,1.5c-0.1,0.9-0.1,1.9,0,2.8c0,1-0.4,2.1,0,3.1c0.5,0.1,0.8,0.2,1.1,0.2c3.3-0.2,6.6,0.1,10,0.5
		c4.5,0.4,9,0.9,13.5,0.9c5,0,10,0.3,14.9,1.4c0.5,0.1,1,0,2.3-0.1c-4.2-2.4-7.7-4.5-11.6-5.6c-1.7-0.5-3.3-1.2-4.9-2.2
		c-2.7-1.8-5.6-3.1-8.9-3.4c-2.2-0.2-4.2-0.7-6.2-1.6c-1.5-0.6-3-0.7-4.5-0.3c-1.5,0.4-3,0.7-4.5,1.1c2-3.3,5.1-3.1,8.2-2.6
		c2.3,0.3,4.6,1.2,7,1.6c1.7,0.3,3.6,0.3,5.2,0.9c0.1,0,0.2,0,0.3,0.1c1.1,0.4,2.3,0.8,3.3,1.3c5.4,2.8,11.5,4.1,16.4,7.9
		c2.7,2.1,5.4,4.2,8.3,6.4c0.8,0,1.1-0.9,1.5-1.6c2.3-4,4.5-8.1,7.4-11.8c1.2-1.5,2.5-2.8,3.7-4.2c1.2-1.3,2.2-2.9,3.5-4
		c1.9-1.7,3.8-3.3,6-4.5c5.4-3.1,11-5.7,17-7.4c1.5-0.4,3-0.6,4.5-1c1.3-0.3,2.6-0.4,3.9,0.2c0.9,0.4,1.9,0.3,2.8,0.1
		c1-0.3,2.2-1,3-0.7c2.1,0.8,4.5,1,6.3,2.4c1.7,1.3,2.8,3,2.6,5.2c0,0.3-0.3,0.6-0.4,0.8c-0.9-0.1-0.9-0.8-1.2-1.3
		c-1-2.5-3-3.6-5.5-4.1c-0.9-0.2-1.9-0.1-2.8-0.2c-1.3-0.1-2.3,0.4-3.2,1.2c-4.3,4.1-8.8,8.1-11.1,13.8c-0.1,0.2-0.5,0.4-1,0.8
		c0-1.8,0.9-3,1.5-4.2c0.7-1.3,1.4-2.5,2.2-3.7c0.7-1.1,1.5-2.2,2.3-3.2c0.9-1.1,1.8-2.1,2.7-3.1c-0.3-0.9-1-0.9-1.5-0.8
		c-1.5,0.3-3.1,0.5-4.5,1c-5.4,2.1-10,5.4-13.9,9.7c-5.5,6-9.2,13-11.7,20.7c-0.7,2-0.6,3.9-0.7,6.1c0.6,0.1,1,0.1,1.6,0.2
		c0.3-0.9,0.7-1.6,0.9-2.4c2.1-6.9,5.5-13.2,9.9-18.9c2.9-3.7,5.9-7.1,9-10.7c0.3-0.3,0.8-0.5,1.1-0.8l-0.1-0.1c0.2,1-0.5,1.5-1,2.2
		c-2.2,2.7-4.4,5.3-6.5,8c-3,3.7-5.6,7.7-7.8,12c-5.3,10.8-7.1,22.1-5.7,34c0.2,2,0.1,4,1.4,6.1c0.4-0.8,0.7-1.4,1-2.1
		c1.2-3.2,2.5-6.4,3.6-9.7c0.6-1.9,1-3.9,1.4-5.9c0.8-3.9,1.9-7.6,3.3-11.3c0.2-0.6,0.2-1.5,1.2-1.6l-0.1-0.1
		c-0.7,2.7-1.3,5.3-2,8.1c1.8,1.7,2.1,4.1,2.1,6.5c0,3-0.3,5.9-0.4,8.8c0.3-0.1,0.7-0.2,1.4-0.4c-0.3,1.7-1.3,2.9-1.7,4.4
		c-0.5,1.5-1,2.9-1.4,4.4c-0.3,1.4-0.6,2.8-0.7,4.2c-0.1,1.5,0,3.1,0.1,4.7c2.3-9.7,6.6-18.4,12.7-26.3c0.6,0.6,0.2,1,0,1.4
		c-1.8,3.1-3.6,6.2-5.3,9.3c-2.9,5.5-4.9,11.3-6.1,17.5c-0.2,0.9-0.5,1.9,0.5,2.6l-0.1-0.1c-1.2,1.6-0.8,3.4-0.3,5.1
		c0.4,1.4,1.1,2.6,1.7,3.9c1.1,2.5,1.4,3.5,1.3,6.5c-1.7-3.5-3.7-6.4-4.8-9.8c-1.3-4-1.8-8.1-1.5-12.3c0.1-1.4,0-2.8,0-4.2
		c0.1-0.1,0.2-0.1,0.3-0.2c-0.1,0.1-0.1,0.2-0.2,0.3c-0.6,0.7-1.2,1.4-1.7,2.2c-1.5,2.3-3.2,4.5-5.2,6.3c-2.2,1.9-4.4,3.9-7.1,6.2
		c0.1-0.8,0-1.2,0.2-1.3c1.6-1.5,2.9-3.2,4-5c0.4-0.6,1.3-0.8,1.8-1.4c2.2-2.8,4.2-5.8,5.7-9c1.3-2.8,0.8-5.8,0.6-8.9
		c-0.3,0.4-0.6,0.8-0.8,1.3c-1.1,3-2.1,6.1-3.2,9.1c-0.3,0.7-0.9,1.3-1.4,2l0.1,0.1c0.4-2.1,0.3-4.2-0.4-6.3
		c-0.7-2.3-0.9-4.8-1.5-7.8c-0.6,3.4-1,6.2-1.6,9c-0.9,4.3-1.8,8.6-3.1,12.8c-1.2,3.9-3.5,7.3-6.3,10.3c-0.5,0.6-1.2,0.8-1.9,0.7
		c-0.8-0.1-0.9-0.6-0.6-1.3c0.4,0,0.9,0,1.4,0c0.1-0.1,0.3-0.3,0.4-0.5c1.3-2.1,1.7-4.5,1.8-6.9c0.8-10.7,3.1-21.2,5.5-31.6
		c1.2-5.1,2.2-10.2,3.3-15.4c1.3-6.5,3.3-12.6,6.8-18.3c1.9-3.1,4.1-5.8,6.6-8.4c0.4-0.4,0.7-0.9,1-1.4c0.1-0.1,0.1-0.1,0.2-0.2
		c0,0.1-0.1,0.2-0.1,0.3c-0.3,0-0.8,0-1,0.2c-4.3,2.4-8.3,5.2-11.9,8.5c-0.7,0.6-1.4,1.2-1.2,2.4c0.1,0.4-0.2,0.9-0.4,1.3
		c-3.5,7.3-6.1,15-8.4,22.8c-2.2,7.3-4.6,14.5-6.8,21.8c-0.2,0.5-0.1,1.1-0.2,1.7c-0.5,0-0.7,0.1-0.3,0.5c0.1-0.2,0.2-0.4,0.2-0.6
		c0.5-0.4,1.2-0.8,1.6-1.3c3-4,5.5-8.4,7-13.2c1.1-3.4,2-6.9,3-10.3c0.6-2.1,1-4.4,2.2-6.4c0.3,0.3,0.5,0.5,0.5,0.6
		c-0.6,5.5-1.4,10.9-3.1,16.1c-2.8,8.6-7.8,15.7-14.5,21.8c-1.8,1.6-3.5,3.2-5.1,5c-1.2,1.2-2.6,2.1-4.1,2.8
		c-0.4,0.2-0.9,0.1-1.1-0.7c0.8-0.7,1.7-1.4,2.6-2.1c0.8-0.7,1.5-1.5,2.3-2.2c1.6-1.4,2.6-3,3.4-5c1.8-4.9,3.1-10,4.3-15.1
		c0-0.1-0.1-0.2-0.2-0.3c-1.1,0.5-1.9,1.4-2.4,2.5c-0.6,1.5-1.7,2.5-3,3.5c-4.1,3.2-8.7,4.3-13.8,3.5c-0.4-0.1-0.8-0.4-1.2-0.7
		c-0.1,0-0.1-0.2-0.2-0.6c0.8,0,1.6-0.1,2.4,0c2.8,0.1,5.4-0.6,7.7-2.2c0.3-0.1,0.7-0.1,1-0.2c-0.4-0.2-0.8-0.5-0.9,0.3
		c-0.9,0.1-1.9,0.1-2.8,0.3c-3.3,0.7-6.6,0.6-9.9-0.5c-0.3-0.1-0.6-0.3-0.9-0.5c-0.1-0.1-0.1-0.2-0.4-0.5c1.2,0.2,2.2,0.4,3.1,0.4
		c1.1,0.1,2.1,0,3.2-0.1c4.2-0.5,8.1-1.8,11.9-3.7c1.1-0.5,2.1-1.2,3-1.9c0.7-0.5,1.3-1.1,1.9-1.7c1.2-1.3,1.4-1.9,1.3-4.2
		c0.5,0.3,0.9,0.6,1.5,1c1.7-4.9,2.9-9.8,4.1-14.8c-1,1.9-2.1,3.7-3.1,5.6c-1.8,3.3-3.9,6.6-6.3,9.5
		C681.4,470.5,680.3,471.4,679.3,472.5L679.3,472.5z M488.1,465.9c0.3-0.1,0.6-0.2,0.9-0.3c0.9-0.8,1.8-1.6,2.8-2.4
		c0-0.1,0.1-0.1,0.1-0.2c0,0.1,0,0.2,0,0.3C488.9,463.2,488.9,463.2,488.1,465.9c-0.4,0-0.7,0.2-0.7,0.7c-2.4,0.7-4.4,2.3-6.7,3.3
		c-4.2,2-8,4.7-11.5,7.8c-5.4,5-10.5,10.3-15.5,15.9c-0.5,0.6-1.1,1.5-1.8,1.7c-1.5,0.4-2.1,1.5-2.9,2.5c-2.4,3.2-4.2,6.6-5.9,10.2
		c-1.3,2.8-2,5.9-2.5,8.9c-0.6,3.6,1.2,6.6,4.6,7.4c4.6,1,9.3,2.1,14.1,1.6c2.7-0.2,5.5-0.2,8.4,0.4c-1.5,0.5-2.9,1-4.6,1.5
		c0.9,0.4,1.5,0.7,2.2,0.9c2.5,0.9,5,1.6,7.4,2.6c6.2,2.8,12.3,5.7,18.5,8.5c0.6,0.3,1.3,0.6,2,0.8c5.1,2,10.4,3.3,15.9,4.2
		c0.3,0.1,0.7-0.1,1-0.1c0-0.3,0-0.6-0.1-0.8c-1.8-3.1-3.5-6.2-5.3-9.3c-2.6-4.6-5.3-9.1-7.7-13.7c-1.5-2.8-2.7-5.8-3.7-8.9
		c-1.3-4-2.2-8-3.2-12.1c-1.7-6.7-2.6-13.6-5-20.1c-0.9-2.3-1.3-4.8-1.3-7.5c1.8-1.5,2.6-3.7,3.5-5.9
		C488,466.7,488.2,466.5,488.1,465.9z M681.4,458c2.1,0.5,4-0.2,5.8-1.1c0.5-0.3,1.3-0.7,0.6-1.7C685.7,456.2,683.3,456.6,681.4,458
		c-0.2,0.2-0.4,0.3-0.2,0.2C681,458.3,681.2,458.2,681.4,458z M695.6,500.9c1.1-0.9,1.2-2.2,1.6-3.4c2.8-8.5,4-17.4,4.8-26.3
		c0.1-0.8,0-1.6,0-2.4c-0.4,0.3-0.6,0.6-0.7,0.9c-1.4,6.9-2.9,13.7-4.2,20.6C696.6,493.9,696.2,497.5,695.6,500.9
		c0,0.3-0.2,0.6-0.1,0.4C695.5,501.5,695.6,501.2,695.6,500.9z M594.8,457.4c-1.1-0.3-2.1,0.1-3.1,0.6c-5.2,2.6-8.7,6.5-9.9,12.4
		c-0.3,1.3-0.7,2.5-1,3.8c-4.6,17.1-9.3,34.2-13.9,51.4c-0.3,1-0.5,2-0.7,3c0.8,0.6,1.6,0.7,2-0.1c0.4-0.8,0.6-1.8,0.9-2.7
		c2.9-10.6,5.8-21.1,8.7-31.7c1.8-6.7,3.6-13.3,5.5-20c0.7-2.5,1.5-5.1,2.9-7.3c2-3.1,4.5-5.9,7.4-8.2
		C594,458.2,594.4,457.7,594.8,457.4c0.5-0.1,1.1-0.2,2-0.3C595.7,456.6,595.1,456.5,594.8,457.4z M712.9,545.4
		c0.7,0.5,0.7,0.5,1.4,0.2C713.7,545.5,713.3,545.5,712.9,545.4c-2.5-1.4-4.8-3-7.2-4.5c-1.7-1.1-3.5-1.5-5.5-0.9
		c-0.6,0.2-1.1,0.3-1.6,0.4c-0.8-0.5-1.3-0.9-2-1.2c-1.4-0.5-2.9-1.4-4.5-0.9c-1.3,0.4-2.3,0.1-3.3-0.5c-0.4-0.3-0.8-0.5-1.2-0.7
		c-2.3-1.2-3-0.8-3.1,1.7c0,1.3-0.1,2.6-0.1,3.9c0,0.5,0.1,1.1,0.3,1.8c3.2-0.2,6,0.6,8.7,1.9c3.1,1.5,6.4,2.6,9.9,2.8
		c2.6,0.2,5.1,0.8,7.7,1.6c2.1,0.7,4.4,0.9,6.7,1.2c1,0.2,1.9-0.3,2.4-1.2c0.4-0.7,0.8-1.4,0.8-1.4c1.1-1.1,2.3,0.4,2.4-1.3
		c-0.2-0.1-0.4-0.3-0.6-0.3c-0.8-0.2-1.6-0.4-2.4-0.6c-0.4,2.5-0.5,2.6-2.9,2.1c-2.2-0.4-4.4-1.1-6.6-1.4c-2.1-0.3-3.9-1.1-5.5-2.4
		c-1.1-1-2.4-1.4-3.9-1.7c-2.4-0.5-4.9-1.2-7.3-1.8c-0.4-0.1-0.7-0.5-1.5-1.1c1.2-0.2,1.8-0.5,2.4-0.4c2.6,0.3,5.2,0.8,7.8,1.1
		c1.2,0.2,2.2,0.7,3.2,1.5C707.9,544.8,710.3,545.4,712.9,545.4z M567.4,572.7c0.4,0,0.7,0,1.1,0.1c2.8,1.2,5.7,2.5,8.5,3.7
		c1.3,0.6,2.5,1.3,3.5,2.4c2.5,2.4,5.4,4.4,9,4.7c0.9,0.1,1.9,0.3,2.8,0.5c1.5,0.3,2.6,1.1,3.1,2.6c0.1,0.4,0.4,0.9,0.5,1.3
		c2.8,1.2,5.4,0.8,8-0.7c-1-1.3-2.2-2-3.5-2.6c-1.8-0.9-3.7-1.7-5.3-3c-2.3-1.8-4.8-3-7.3-4.5c-1.2-0.7-2.6-1.1-4-1.2
		c-3.2-0.3-6.3-1-9.3-2.3c-0.5-0.2-1.1-0.5-1.1-1.2c0.1-0.1,0.1-0.3,0.2-0.3c1.7-0.7,3.1,0.8,4.8,0.6c0.2-0.5,0.3-1,0.5-1.5
		c2.6-0.8,5,0.5,7.8,0.4c-0.4-0.4-0.6-0.7-0.9-0.8c-1.8-0.5-3.6-1.3-5.6-1.1c-1.7,0.2-3.1-0.5-4.2-1.6c-0.7-0.6-1.2-1.5-1.5-1.8
		c-5.9-0.6-15.5-0.9-17.7-0.5c-1.5,3.3-3,6.7-4.5,10.1c-0.1,0.2,0,0.4,0,0.8c1.6,0.5,3.3,0.4,5,0.4c3.7,0.1,7.1,1.1,9.7,3.8
		c1.5,1.6,3.2,2.4,5.1,3.1c2,0.7,4.2,1.2,6.1,2.1c4,1.9,8.1,1.7,12.3,1.4c0.7,0,1.7-0.1,2.1-1.1c-1.4-0.3-2.8-0.6-4.2-0.8
		c-3.3-0.5-6.1-1.9-8.5-4.2c-1.5-1.4-3.3-2.3-5.1-3.2c-2.4-1.1-4.8-2.2-6.8-3.6c-0.1-0.3-0.2-0.4-0.2-0.5c0-0.5,0-0.9,0-1.4
		L567.4,572.7z M675.7,554.1l-0.1-0.1c0.6,0.9,1.2,1.7,2.3,2c1.3-0.4,1.2-1.5,1.2-2.4c-0.1-2.9-0.7-3.7-3.4-4.7
		c-1-0.4-1.9-0.7-2.9-1.1c0.8-2.7,0.9-5.4,0.5-10c-2.1-0.6-4.3-1.3-6.1-1.8c-1.6-1.7-2.4-3.4-2.5-5.4c-0.1-1.3-0.3-2.6-0.5-3.9
		c-0.1-0.7,0-1.6-0.4-2.1c-1.1-1.2-0.8-2.6-0.8-4c0-1.4,0.3-2.8-0.3-4.3c-1.1,0.2-2.1,0.6-2.8,1.5c-2,2.7-4.9,4.1-7.8,5.6
		c-1.6,0.8-3.1,1.7-4.2,2.9c0.5,2.7,0.9,5.1,1.2,7.6c0.1,0.7,0.1,1.6-0.3,2c-1.2,1.6-0.4,3.2-0.4,4.8c0,0.6,0.6,1.5,1.1,1.7
		c1.3,0.6,1.9,1.7,2.6,2.8c1.7,2.6,4.1,3.9,7.2,3.8c1.1,0,2.2-0.1,3.2,0.1c1.7,0.2,3.4,0.3,4.5,1.7
		C670.1,551.9,672.4,554.3,675.7,554.1z M610.5,515.3l0.1,0.1C610.6,515.4,610.4,515.3,610.5,515.3c0.3-0.2,0.6-0.6,1-0.8
		c3.5-1.8,7-3.6,10.5-5.4c4-2.1,7.6-4.9,10.7-8.2c2.2-2.4,4.3-4.8,6.4-7.2c2.1-2.4,4.1-5,6.3-7.3c1.3-1.2,2-2.5,2.4-4.2
		c0.8-3.3,0.6-6.6,0.5-10c0-3-0.7-5.9-1.5-8.8c-0.6-2-1.7-3.7-3.3-5c-0.4-0.4-1-0.8-1.5-0.8c-1.7-0.1-2.8-1.2-4-2.1
		c-2.4-1.7-4.9-2.8-7.9-2c-0.5,0.1-1.2,0-1.8-0.1c-1.2-0.2-2.4-0.2-3.5-0.5c-2-0.5-4-0.2-6,0.3c-4.2,1-8.4,1.9-12.5,2.8
		c-0.8,0.2-1.7,0.4-2.3,0.9c-0.7,0.7-1.3,0.8-2.2,0.8c-0.8,0-1.6,0.1-2.4,0.4c-6.9,1.9-11.5,6.5-13.7,13c-2.6,7.8-4.6,15.8-6.8,23.7
		c-0.1,0.4,0,0.9,0.1,1.3c1.5,0,2.8-0.1,4.1,0c1.1,0.2,2.3,0.7,3.3,1.1c0.4,0.2,0.6,0.7,0.8,1.2c0.4,0.8,1.2,1.4,1.2,2.7
		c-1.3-0.5-2.3-0.7-3.2-1.2c-2.5-1.5-4.9-1.3-7.4-0.5c-1.9,5.1-4.4,15-4.5,17.5c0.7,0.4,1.5,1,2.4,1.4c3.7,1.9,7.4,3.2,11.6,2.8
		c1.3-0.1,2.6-0.2,3.9,0c1.2,0.2,2.4,0.2,3.5-0.1c3.6-1,7.1-1.9,10.7-3c0.5-0.2,1.3-0.5,1.5-0.9
		C607.7,515.5,609.1,515.5,610.5,515.3z M524.6,563.4c-0.1-0.3-0.1-0.5-0.1-0.5C524.4,562.9,524.5,563.1,524.6,563.4
		c0.4,1.3,1,2.6,2,3.7c2.5,2.7,4.1,5.8,4.8,9.4c0.3,1.5,0.8,3,1.2,4.5c0.2,0.5,0.4,1.2,0.9,1.5c1.9,1.3,4,2,6,0.8
		c0.6-2.1,0.9-3.8,1.5-5.5c0.6-1.8,1.4-3.5,1.9-5.4c0.9-3.1,1.7-6.2,2.7-9.3c0.6-1.9,0.7-3.7,0.1-5.6c-1.3-4.1-2.7-8.1-4.7-11.9
		c-2.4-4.5-4.2-9.3-6-14.1c-0.3-0.9-0.7-1.8-0.8-2.7c-0.8-5.3-1.6-10.6-1.2-16c0.3-4.8-0.1-9.5-0.3-14.3c0-0.6-0.2-1.2-0.3-1.7
		c-0.7-2.1-1.4-4.3-2.2-6.4c-0.1-0.4-0.4-0.9,0.3-1.2c2.3,1.5,2.4,4.1,3.1,6.4c3.3,0.4,6.4,0.8,9.4,1.2c2.5,0.3,5,0.7,7.5,0.7
		c2.6,0,5.2-0.2,7.8-0.5c1.9-0.2,3.8-0.2,5.6,0.6c0.6,0.3,1.4,0.4,2.1,0.4c2.4-0.2,4.7-0.5,7.1-0.8c0.3-0.7,0.5-1.3,0.6-1.8
		c2.3-8.5,4.6-17,6.9-25.5c1.4-5.1,3.6-9.6,8.5-12.2c0.8-0.5,1.6-1,2.4-1.6c1.6-1.1,3.3-1.9,5.3-1.4c0.3,0.1,0.6-0.2,1.5-0.6
		c-4.2-0.6-7.5-0.3-10.6,1.5c-0.3,0.2-0.6,0.4-1,0.4c-2.3-0.2-4.8,0.5-7-0.7c-0.8-0.4-1.8-0.7-2.7-0.7c-4.8,0-9.6-0.1-14.3,0.3
		c-3.8,0.3-7.6,0.6-11.4,0.6c-3.6,0-7.2,0-10.7,0c-1.4,0-2.9,0-4.3,0.2c-6.1,0.8-12.3,1.7-18.4,2.7c-2.7,0.4-5.4,0.9-8,1.9
		c-5.8,2.1-11.7,4-17.4,6.6c-1,0.5-1.8,1.1-2.6,1.8c-1.9,1.9-2.9,4.3-3.9,7c0.3,1,0.7,2.3,1.1,3.5c1.7,5.3,3.7,10.6,5.2,16
		c1.4,4.9,2.5,9.9,3.6,14.9c0.6,2.5,1.4,4.8,2.6,7c2.7,5.1,5.3,10.1,8,15.2c2.8,5.3,5.9,10.4,9.6,15.1c3.5,4.4,6.3,9.2,9.1,14.1
		c0.4,0.7,0.6,1.5,1.2,2.7C525.3,563.7,524.9,563.6,524.6,563.4z M164.6,465.9c0-3.4,1.8-6.1,3.6-8.8c1.1-1.5,2.5-2.8,3.8-4.2
		c0.6-0.6,1.4-0.7,2.3-0.4c0.4,0.2,0.8,0.2,1.3,0.2c0.5-0.8,0.8-1.3,1.1-1.9c-2.1-1.5-2.2-1.6-3.9-1.4c-3.4,0.3-6.3-0.7-9.1-2.6
		c-1.2-0.8-2.4-1.7-3.8-2c-2.9-0.7-5.8-1.1-8.8-1.6c-0.9-0.1-1.8,0.2-2.1,1c-1.2,2.6-3.5,4.2-5.3,6.2c-2.3,2.5-4.2,5.2-5.7,8.2
		c-0.5,1-0.7,2-0.6,3.1c0.3,2.1,0.4,4.3,0.7,6.4c0.4,2.5,0.9,4.9,1.4,7.4c0.3,1.6,1.1,2.8,2.4,3.9c1.1,0.9,2.1,1.9,3,3
		c1.8,2.1,3.1,4.6,2.9,7.5c-0.1,2.2-0.2,4.5-1.6,6.5c-0.4,0.6-0.5,1.6-0.7,2.4c-0.6,3.5-0.8,7.1-1.6,10.6c-0.7,3,0.2,5.4,1.7,7.7
		c0.4,0.7,1,1.3,1.5,2c0.9,1.1,2,2.1,2.8,3.3c1.5,2.3,3.7,3.7,6.2,4.6c2.1,0.8,4.3,1.4,6.3,2.4c3.6,1.8,7.5,2.3,11.4,2.3
		c1,0,1.9-0.1,2.8,0.1c1.3,0.3,2.3-0.1,3.4-0.6c4.4-2,4.6-2.2,6.3-6.6c0.2-0.4,0.2-0.9,0.4-1.4c-0.6-1.1-1.6-2.1-1.6-3.2
		c-0.1-1.6-0.8-2.8-1.8-3.7c-1.6-1.4-2.5-3.1-3.3-5c-0.1-0.3-0.4-0.5-0.6-0.8c-0.9-0.1-1.3,0.3-1.2,0.9c0.1,0.6,0.5,1.1-0.4,1.8
		c-0.9-0.1-2.1-0.1-3.2-0.2c-0.2,0-0.3-0.1-0.5-0.2c0.8-0.4,1.7-0.8,3.2-1.6c-3.1-0.2-5.6,0-8-1.3c0.6-0.5,0.9-0.8,1.3-1
		c2.4-1.2,5.2-0.5,7.7-1c1.2-2.5,1.2-2.5,0.9-3.5c-1.9,1.4-3.1,1.9-5.4,2.2c-2.8,0.4-4.2,0.1-6-1.5c0.9-0.6,1.7-1.1,2.5-1.7
		c-1.5-1.2-4-0.4-5-2.4c0.8-1.5,2.3-1.2,3.5-1.8c-0.8-1.4-3.4-1.2-2.8-3.9c5.4,0.1,10.6-1.5,16.1-2c1-0.6,2.1-1.3,3.2-2
		c1-0.6,1.4-1.5,1.8-2.6c0.2-0.6,0.4-1.2-0.4-1.7c-0.5,0.2-1.1,0.3-1.6,0.6c-3,1.5-6.2,2.4-9.4,3.2c-1,0.2-1.9,0.1-2.6-0.8
		c-1.6-1.9-3.2-3.9-4.7-5.8c-0.3-0.4-0.6-0.9-0.5-1.2c0.5-1.2-0.4-1.7-0.9-2.5c-1.3-1.7-2.5-3.5-3.6-5.3c-1.5-2.6-1.7-5.4-0.9-8.2
		c0.7-0.4,1.3-0.8,1.9-1.1c-0.6,3.8,0.1,7.3,2.6,10.4c0.8,1,1.5,2.2,2,3.4c1.2,3,3.4,5.2,5.6,7.3c0.6,0.6,1.3,0.6,1.9,0
		c0.2-0.6,0.4-1.3,0.5-1.8c0.5-0.2,0.9-0.3,1.2-0.4c6.4-1.3,12.8-1.2,19.2-0.9c4.4,0.2,8.8,0.5,13.2,0.6c6.6,0.2,13.1,0.9,19.3,3.2
		c0.7,0.2,1.4,0.4,2.1,0.5c2.4,0.5,4.9,1.1,7.3,1.6c0.9,0.2,1.8,0.5,2.8,0.6c2.4,0.3,4.8,0.4,7.1,0.7c7.9,0.9,15.9,1.9,23.8,2.8
		c1.5,0.2,3.1,0.4,4.2,1.6c0.4,0.4,1.1,0.4,1.6,0.6c1,0.3,2.1,0.5,3.1,0.8c3.1,1.1,6.2,2.3,9.3,3.6c1.1,0.4,2.1,1.2,3.2,1.4
		c1.1,0.2,2.3-0.1,3.5,0c0.9,0.1,1.9,0.3,2.8,0.5c1.7,0.4,3.4,0.9,5.3,1.4c-1.1-1.9-2.8-2.7-4.4-3.5c-0.2-0.1-0.3-0.5-0.8-1.5
		c3.1,1.5,5.7,2.1,7.9,3.8c1,0.8,2.2,1.5,3.3,2.1c2.9,1.6,5.9,3.1,8.9,4.6c0.7,0.4,1.5,0.7,2.3,1c3.4,1.1,6.7,2.5,10.2,3.1
		c1,0.2,2,0.7,3,1.1c7.7,3.5,15.8,6,24,8c1.7,0.4,3.5,0.8,5.3,1c6.2,0.6,12.3,1,18.5,1.5c0.1,0,0.3-0.3,0.7-0.6
		c-0.3-0.7-0.7-1.4-1.1-2.1c-3.1-5.9-5.3-12.2-7.1-18.7c-0.5-1.7-0.5-3.5-0.8-5.3c0-0.1,0-0.2-0.1-0.4c-0.4-2.1-0.9-4.2,0-6.3
		c0.2-0.5,0-1.2,0-1.8c-0.4-9.2,1.1-18,4.7-26.5c0.8-2,1.7-3.9,2.5-5.9c0.3-0.6,0.4-1.3,0.7-2.1c-0.8,0-1.4-0.1-2,0
		c-1.9,0.2-3.8,0.6-5.7,0.8c-2.1,0.2-4.3,0.4-6.4,0.6c-6.8,0.7-13.5,1.6-20.3,2.1c-7.5,0.6-14.8,2.3-22.2,3.9
		c-5.3,1.1-10.5,2.9-15.8,4.4c-0.2,0.6-0.4,1.2-0.5,1.7c-6.1,2.2-13.9,1.7-18.4-1.3c3.3-0.2,3.3-0.2,6.1,1.7c3-0.4,6.3-0.8,10.2-1.3
		c-1.7-1-3-1.1-4.3-1.1c-1.5,0-3.1,0.1-4.6,0.1c-0.8,0-1.7,0.1-2.5-0.1c-3.4-1-6.9-1.9-10-3.8c-5.3-3.2-11.1-5-17-6.3
		c-3.1-0.7-6.3-1.1-9.5-1.6c-1.3-0.2-2.6-0.3-3.9-0.3c-4.6-0.2-9.3-0.4-13.9-0.5c-2.5,0-5.1-0.1-7.5,0.5c-3.3,0.7-6.6,1.1-9.9,1.3
		c-3,0.1-5.9,0.4-8.9,0.6c-4.1,0.3-8.3,1.1-12.5,0.2c-0.7-0.2-1.4,0-2.1,0c-3.8,0.3-7.6,0.4-11.4,0.8c-3.3,0.4-6.4-0.1-9.4-1.6
		c-0.6-0.3-1.3-0.6-2-0.7c-1.8-0.3-3.7-0.4-5.8-0.6c-0.8,0.9-1.9,1.8-2.8,3c-1.2,1.6-2.3,3.3-3.5,5
		C166.8,463.8,166,465.2,164.6,465.9z M508.9,454.9c-1.8-1.8-3.4-3.2-4.9-4.8c-1.6-1.7-3.5-2.8-5.6-3.8c-6.4-2.9-12.8-5.8-19.2-8.8
		c-1.4-0.7-2.9-1.1-4.5-1.1c-0.6,0-1.2-0.1-1.7-0.1c-0.3-0.7-0.6-1.2-0.8-1.7c-5.3-1.1-6.1-1.2-8.7-0.5c1.4,1.3,3,2,4.7,2.4
		c1.5,0.4,2.9,1.2,4,2.2c0.3,0.3,0.8,0.6,0.1,1.3c-1.4-0.6-3-0.9-4.7-0.6c-0.7,0.1-1.6-0.3-2.4-0.6c-1.9-0.8-3.7-1.7-5.5-2.5
		c-1.3-0.5-2.7-1.1-4.1-1.2c-3.7-0.4-7.4-0.6-11.1-0.7c-3.9-0.1-7.9-0.1-11.8,0.5c-8.2,1.3-15.9,4-23.6,7.1c-2.4,1-4.9,1.7-6.5,4.1
		c-0.5,0.6-1.3,1-2,1.5c-2.6,1.7-5.4,3.1-8.4,3.9c-1.1,0.3-2.3,0.6-3.3,0.9c-2.7,7.1-5.3,14-7.8,20.9c-1.5,4.1-2.5,8.4-3.4,12.8
		c-0.7,3.7-1,7.3,0.5,10.9c0.5,1.2,0.6,2.5,1,3.8c1.2,4,2.3,8,3.6,12c0.8,2.4,1.8,4.7,3.5,6.6c0.5,0.5,1.1,1.3,0.9,1.8
		c-0.5,2.1,0.8,3,2,4.2c3.8,0.2,7.4,0.4,11.1,0.4c3.1,0,6.2,0,9.2-0.6c6.7-1.3,13.4-2,20.1-2.9c1.9-0.2,3.8-0.3,5.7-0.4
		c0.8-0.1,1.6-0.1,2.3-0.2c1.3-3.9,1.9-7.8,2.3-11.7c0.3-2.7,1.2-5.3,2.3-7.9c1.5-3.3,3.5-6.3,5.9-8.9c2.1-2.3,4.4-4.4,6.5-6.6
		c2.8-2.9,5.5-5.9,8.3-8.8c0.5-0.5,1-1.2,1.6-1.3c1.1-0.1,1.7-0.9,2.4-1.4c1.4-1.1,2.7-2.4,4.2-3.4c1.9-1.3,3.8-2.5,5.7-3.6
		c4-2.4,8-4.8,12-7.1c3.1-1.8,6.5-3,10-3.8C502.3,456.5,505.3,455.8,508.9,454.9z M183.6,495.6c1.5,3.6,0.8,6.8-0.6,10.1
		c-0.3,0.7-0.3,1.6-0.2,2.4c0.3,2.4,1.1,4.6,2.7,6.5c1.2,1.5,2.4,3,3.8,4.2c1.4,1.2,1.7,2.4,1.1,4c0.7,0.8,1.3,1.6,1.9,2.3
		c1.6,0.1,3.2,0.1,4.7,0.4c3.4,0.6,6-1,8.5-2.8c1.7-1.2,1.9-2.6,0.9-4.4c-0.3-0.5-0.7-1-1-1.5c-0.8-1.5-1.5-2.9-0.9-4.7
		c0.2-0.6-0.1-1.4-0.1-2.1c-0.1-0.7-0.2-1.4-0.2-2.1c0.1-1.4,0.3-2.8,0.4-4.3c0.2-1.5,0.3-3,0.4-4.5c-0.3-0.2-0.4-0.4-0.6-0.5
		c-0.6-0.4-1.3-0.8-1.1-1.6c0.1-0.9,0.9-1,1.6-1c0.4,0,0.7,0,1.1-0.1c0.8-0.2,1.2-0.7,0.7-1.5c-1.3-0.5-2.5-0.8-3.7-1.4
		c-0.9-0.5-0.7-1.9,0.2-2.4c0.5-0.3,1.1-0.4,1.7-0.6c-1.1-0.9-2.1-1.7-3.2-2.7c-3.5-0.5-7.4-1.4-11.3-0.1c-0.2,0.9-0.4,1.7-0.5,2.5
		c-0.3,2.6-1.7,4.1-4.1,4.9C185,494.8,184.4,495.2,183.6,495.6z M564.2,529.4c1.3-4.3,2.5-8.4,3.4-12.5c-0.8-1-1.5-1.8-2-2.7
		c-0.6-1-1.2-2.1-1.6-3.2c-0.4-1-0.6-2.1-0.7-3.1c-0.1-1.2,0-2.4,0-3.6c0-1,0.8-2,0.4-3.3c-3.2,0.2-6.2,0.5-9.3,0.7
		c-3.2,0.2-6.3-0.4-9.5-1.4c-0.1,1.2-0.2,2.1-0.2,3.1c-0.1,7.1-0.2,14.3-0.3,21.4c0,2.3,0.4,4.5,1.3,6.6c1.7,3.9,3.6,7.8,5.4,11.7
		c0.2,0.5,0.6,0.9,1.1,1.5c0.6-1.3,1.1-2.4,1.6-3.5c1.4-2.9,2.8-5.8,4.3-8.6c0.4-0.8,1-1.6,1.6-2.4c0.8-1,1.8-1.6,3.1-0.9
		C563.2,529.4,563.5,529.3,564.2,529.4z M185.6,440.4c-2.1,4.4-5.2,8.2-5.7,13.2c0.5,0.2,1.1,0.4,1.6,0.5c4.5,0.4,9,0.9,13.5,0.6
		c5.3-0.3,10.7-0.6,16-0.9c0.7,0,1.4-0.2,2-0.3c2-3.9,5.1-6.4,9.4-7.8c-1.6-0.8-2.8-1-4.1-1.2c-2.6-0.4-5.2-0.5-7.7-1.1
		c-3-0.8-6-1.2-9.1-1.4c-3.3-0.3-6.6-0.6-9.6-2.3c-1.4-0.8-3-0.9-4.5,0C187,439.8,186.4,440,185.6,440.4z M542.2,500
		c-3.2-1.1-5.6-1.5-7.7-1.2c0.1,1,0.1,2.1,0.3,3.1c0.5,3.3,0.5,6.6,0.4,10c-0.1,4,0,8.1,0.2,12.1c0,1,0.3,2.1,0.6,3.1
		c2.7,8.4,6.7,16.3,10.2,24.3c0.1,0.2,0.2,0.5,0.4,0.6c0.4,0.2,0.8,0.3,1.5,0.5c0.7-1.8,2.6-2.8,2.8-4.7c-3.7-5.8-5.8-10-7.8-16.1
		c-0.3-0.8-0.4-1.6-0.5-2.4c-0.4-2.3-0.7-4.7-1.1-7c-0.7-4.4-1.4-8.7-0.7-13.1C541.3,506.1,541.8,503.1,542.2,500z M273.9,453.9
		c3.4,1.3,6.1,2.3,8.8,3.4c1.5,0.6,3.1,1.2,4.5,2.2c2.3,1.6,4.8,2.6,7.3,3.6c1.8,0.7,3.6,1,5.6,0.8c2.7-0.2,5.5-0.3,8.2,0.3
		c1.5,0.3,3.1,0.1,4.6-0.3c3.2-0.9,6.3-1.7,9.6-2.6c-0.9-0.8-1.7-1.2-2.7-0.7c-1,0.6-2,0.3-3-0.1c-0.1-1-0.4-1.6-1.4-1.9
		c-3.4-1.1-6.7-2.3-10.3-2.9c-4.5-0.7-8.9-1.6-13.3-2.5c-0.5-0.1-0.9-0.2-1.4-0.2c-4.4,0-8.8,0-13.2,0.1
		C276.3,453.2,275.4,453.6,273.9,453.9z M673.6,534.8c0.6-3.7,1.2-7.1,1.7-10.5c0.5-3.4,1.8-6.6,1.8-10.2c-1.5-0.2-2.8-0.2-4-0.5
		c-1.3-0.2-2.5-0.6-3.8-1c-1.7,0.9-3.4,1.7-5.2,2.6c0.7,3,1.5,5.9,2.2,8.8c0.5,2.3,1.2,4.6,1.5,7c0.4,2.8,0.6,3.2,3.4,3.6
		C671.8,534.7,672.5,534.7,673.6,534.8z M681.5,543.7c0.2-0.5,0.4-0.7,0.4-0.9c0.3-9.1,0.5-18.3,0.8-27.4c0-0.3-0.1-0.7-0.2-1.1
		c-0.4-0.1-0.7-0.3-1-0.3c-0.5,0-0.9,0.1-1.3,0.2c-2.6,7.3-5.2,24.7-4.8,32.5c2.3,1,4.9,1.8,5.5,5c1.3-0.9,2.9-1.1,3.3-3
		c-0.6-0.1-1.1-0.1-1.6-0.2c-0.9-0.7-0.5-2.4-1.9-2.8c-1.2-0.3-2.3-0.8-3.7-1.2C678.1,542.4,680,544.2,681.5,543.7z M570.3,586
		c-2.5-1.7-4.5-3.2-6.6-4.5c-1.5-1-3.2-1.6-5-1.7c-1.9-0.2-3.8-0.4-5.7-0.6c-0.3,0-0.7,0.1-1.2,0.2c2.1,2.8,1.6,5.8,0.5,9.3
		C558.6,588.2,564.2,586.9,570.3,586z M684.9,515.4c-0.7,3.6-0.8,14.3-0.1,18c0.7,0,1.4,0,2.1,0.2c0.8,0.3,1.4,0.8,2.2,1.2
		c0.7,0.4,1.5,0.8,2.2,1.1c0.5,0.2,1.1,0,1.7,0c-2.2-4.9-3.3-8.5-3.5-12.1c-0.2-3.1-2-5.5-3.6-7.9
		C685.6,515.7,685.3,515.7,684.9,515.4z M564.1,545.3c-1.2,2.3-2.2,4.5-2.9,7.1c4.4,1.3,8.5,1.9,12.8,0.6
		C570.8,550.5,567.6,548.1,564.1,545.3z M568.9,512.1c1.3-4.3,2.5-7.8,3-11.8c-1.8-0.2-3.2-0.2-4.8,0.4
		C566.5,504.6,566.5,508.1,568.9,512.1z M565.5,542.2c1.8,3.1,4.5,4.7,7.8,6.8c-1.5-4.1-2.9-7.5-4.5-10.8c-0.2-0.3-0.7-0.4-1.2-0.6
		C566.6,539.1,566.1,540.6,565.5,542.2z M622.5,450.4c7.9-1.4,15.8-2,23.9-2.6c-0.3-0.1-0.3-0.2-0.4-0.3c-3.3-0.5-6.7,0.5-9.9-0.5
		c-0.2-0.1-0.5,0-0.7,0.1c-1.8,0.3-3.5,0.6-5.3,0.8c-2.1,0.2-4.2,0.9-6.3,0.2c-0.7-0.2-1.6,0.2-2.4,0.5c-0.1,0-0.2,0.4-0.3,0.5
		C621.5,449.5,622,449.9,622.5,450.4z M225.3,451c-0.7-0.3-1.4-0.6-1.9-0.9c-0.6-0.4-1.2-1-1.7-1.4c-3.5,1.1-4,1.5-5.2,4.3
		c1-0.1,1.9-0.3,2.9-0.4c1,0,2.1,0.2,3.1,0.2c0.4,0,0.8,0,1.1-0.6C223.9,451.8,224.6,451.5,225.3,451z M714.8,465.9
		c-1.3,5.5-1.7,10.2-1.3,13.3c1.5-3.4,2-6.7,2.2-10C715.7,468.2,715.9,467.1,714.8,465.9z M619.9,451.2c-3.8-0.3-7.4,0.5-11.9,2.3
		c0.1,0.2,0.3,0.5,0.4,0.5C612.3,454,615.6,452.2,619.9,451.2z M681.1,460.7c1.6,0,2.6,0,3.6,0c0.5,0,1.1-0.2,0.9-1.1
		C684.2,460,682.9,460.3,681.1,460.7z M676.2,459.3c-0.1,0.1-0.1,0.3-0.2,0.4c0.3,0.1,0.6,0.3,0.9,0.3c0.3,0,0.8,0.4,0.9-0.4
		C677.3,459.5,676.8,459.4,676.2,459.3z M177.3,502.4c0.5-0.1,0.9-0.1,1.3-0.2c0,0,0-0.5-0.1-0.6C178,501.3,177.6,501.6,177.3,502.4
		z M208.3,490.8c-0.7-0.2-0.9-0.4-1.1-0.4c-0.2,0-0.4,0.1-0.6,0.2c0.2,0.1,0.4,0.3,0.6,0.3C207.3,490.9,207.6,490.9,208.3,490.8z
		 M175.2,498.4l0,0.1l0.3,0L175.2,498.4z M630.7,451.5c0.1,0,0.2-0.1,0.3-0.1c-0.1-0.1-0.2-0.2-0.2-0.2c-0.1,0-0.2,0.1-0.3,0.2
		C630.5,451.4,630.6,451.4,630.7,451.5z"/>
	<path d="M730.9,70.2c-0.8-0.8-0.7-1.8-0.6-2.7c0.2-5.8-1.5-11.3-3.4-16.7c-0.6-1.8-1.7-3.4-2.6-5.1c-0.7-1.1-1.5-2.1-3.1-2.7
		c0,1.4,0.6,2.4,0.9,3.5c0.3,1.3,0.7,2.5,1,3.8c0.3,1.2,0.5,2.3,0.6,3.5c0.2,1.2,0.4,2.4,0.5,3.5c0.1,1.3,0.3,2.6,0.3,3.9
		c0,1.2,0.3,2.4-0.5,3.9c-0.3-0.8-0.5-1.2-0.5-1.7c-0.3-2.5-0.5-5-0.7-7.5c-0.1-0.9-0.3-1.8-1.3-2.8c0,1.8,0,3.2,0,4.6
		c0,5.2-1.3,10.1-2.8,15c-0.5,1.6-1.2,3.1-1,4.9c0.1,0.5-0.2,1.2-0.4,1.7c-0.6,1.9-1.1,3.9-1.7,5.8c-0.3,1-0.7,2-1.2,3
		c-1.1,2.4-2.5,4.6-5.4,5.5c0.3,0.7,0.5,1.2,0.7,1.8c-0.3,0.1-0.4,0.2-0.5,0.1c-2.2-1.7-4.4-3.5-6.6-5.2c0.2-0.9,0.7-1.2,1.3-1
		c0.8,0.3,1.4,0.7,2.3,1.1c1.9-2.3,2.2-5,2.8-7.6c0.7-2.6,1.2-5.3,1.9-7.9c0.3,5.3-0.8,10.3-2.4,15.3c0.6,0.7,1,0.2,1.2-0.1
		c0.5-0.6,1-1.3,1.4-2.1c4.4-8.4,7.6-17.2,9.1-26.6c0.6-3.7,0.5-7.4,0-11.1c-0.7-5.1-3-9.5-6.2-13.5c-0.6-0.7-1.2-1.5-1.8-2.2
		c0.6-0.9,1-1.7,1.5-2.4c0.3,0,0.6-0.1,0.7,0c4,3.1,8.1,5.8,11.6,9.4c1.9,2,3.5,4.2,4.6,6.8c0.5,1.1,1.1,2.1,1.8,3.1
		c3.9,5.1,5.9,10.9,6.5,17.2c0.5,5.1,0.6,10.2,0,15.3c-0.2,1.7-0.2,3.5-1.5,5c-0.5,0.6-0.5,1.5-0.7,2.3c-1.6,6.6-4.8,12.2-9.8,16.7
		c-2.8,2.5-5.7,5.1-8.3,7.8c-1.9,1.9-4.1,3.3-6.5,4.3c-3,1.2-6,2.4-9,3.5c-1.9,0.7-3.8,1.4-4.8,3.4c-2.1,1.3-3.1,3.5-4.4,5.5
		c-1.8,2.7-3.7,5.3-6.6,7c-1.5,0.9-2.4,0.8-3.4-0.5c-1.4-1.9-2.8-3.8-4.1-5.7c0.3-1.4,1-2,2.2-2c0.1,0.3,0.4,0.5,0.3,0.7
		c-0.7,1.4-0.6,2.5,0.8,3.4c0.6,0.4,1.1,0.9,1.6,1.4c1.3,1,2.8,1,3.9-0.2c1.3-1.4,2.6-2.8,3.4-4.5c1.7-3.6,4.4-6.5,7.2-9.2
		c0.7-0.7,1.9-1,2.8-1.4c2.1-0.8,4.3-1.5,6.4-2.3c1.4-0.5,2.5-1.2,3.7-2.1c2.7-2.1,5.5-4.2,7.8-6.8c0.4-0.4,0.9-0.8,1.4-1.1
		c2.7-1.1,4.2-3.4,5.8-5.7c-1.1,0.4-2.1,0.9-3.2,1.4c-0.6-0.4-1.1-0.9-1.7-1.1c-0.6-0.2-1.4-0.2-2.4-0.3c0.5-0.5,0.8-1,1.1-1.1
		c2.7-1.2,4.8-3.2,6.3-5.6c2.9-4.5,5.7-9.1,7-14.4c0.7-2.8,1.5-5.5,1.9-8.3c0.3-2,0.1-4.1-0.3-6c-0.5-3-1.2-6.1-2.1-9
		c-0.9-2.6-2.2-5-3.4-7.5c-0.5-0.9-0.9-1.9-2.1-2.3c0-0.1,0-0.2-0.1-0.3c0,0-0.1,0-0.2-0.1c0.1,0.1,0.2,0.2,0.3,0.3
		c0,0.5-0.1,1,0.1,1.4c0.9,2.6,1.3,5.3,1.6,8c0.1,1,0.5,2.1,0.9,3.1c1.1,2.8,1.4,5.7,1.3,8.7c-0.2,3.8-1.2,7.5-2.3,11.1
		c-1.9,5.8-4.3,11.3-7.6,16.5c-0.9,1.4-2.1,2.6-3.2,3.8c-0.5,0.5-1.2,0.8-1.9,0.2c0-0.1,0-0.3,0-0.3c6-6.6,9.2-14.6,11.9-22.9
		C730.2,76.1,730.9,73.2,730.9,70.2c1-1.9,0.5-3.9,0.2-5.8C730.4,66.3,730.5,68.3,730.9,70.2z M724.3,102.9l0.2,0L724.3,102.9
		l-0.1,0.2L724.3,102.9z M734.3,88.7c1-0.4,0.7-1.3,0.8-2.1c0.4-0.4,0.7-0.8,0.2-1.5c0,0.6-0.1,1.1-0.1,1.6
		C734.1,87.1,734.3,87.9,734.3,88.7c-0.7,0.3-0.6,1-0.6,1.5c-0.8,0.6-0.7,1.4-0.6,2.2c-0.1,0-0.2,0-0.3,0c-0.1,0-0.1,0.1-0.1,0.2
		c0.1-0.1,0.2-0.2,0.3-0.3c0.6-0.6,0.7-1.4,0.6-2.2C734.4,90,734.3,89.3,734.3,88.7z M722.2,41.4l0,0.2L722.2,41.4
		c-0.8-0.5-1.4-1.1-2.2-1.7c-0.1-0.1-0.4,0.1-0.8,0.1c0.4,0.7,0.8,1.4,1.1,2.1C721.2,41.7,721.7,41.5,722.2,41.4z"/>
	<path d="M762.3,446.6c0.1,1.5,1.2,2.5,1.9,3.7c0.7,1.1,1.7,2.2,2.1,4c-1.7-0.8-2-2.1-2.8-3c-0.9-1.1-1.8-2.2-2.8-3.2
		c-0.9-0.9-2-1.6-3.1-2.5c0,0.5-0.1,0.7-0.1,0.8c2.3,3.2,3.5,6.8,4,10.6c0.5,3,0.8,6.1,0.8,9.3c-0.2-0.6-0.6-1.1-0.6-1.7
		c-0.2-4.2-2.1-7.8-3.8-11.4c-0.5-1.1-1.3-2-2-2.9c-0.5-0.7-1.2-1.2-1.7-1.8c-0.4-0.6-0.6-1.3-1.3-1.8c0.1,0.9,0.2,1.8,0.4,2.7
		c0.8,3.6,1.6,7.2,2.3,10.8c1.7,8.6,0.1,16.8-3,24.8c-0.5,1.3-0.9,2.7-1.3,4l0.1-0.1c-0.9,0.2-0.9,0.9-0.8,1.6l0.1-0.2
		c-0.9,0.2-0.9,0.9-0.8,1.6l0.1-0.2c-0.8,0.2-0.8,0.9-0.8,1.6l0.1-0.1c-1.3,0.4-1.5,1.7-2.1,2.7c-2.1,3-4.1,6.1-6.1,9.1
		c-0.3,0.4-0.6,1.1-1.4,0.8c-0.4-0.7,0.2-1.1,0.5-1.5c1.4-2.1,2.8-4.1,4.2-6.2c0.4-0.6,0.4-1.3,0.6-2c0.8-0.3,0.6-0.9,0.6-1.5
		c0.7-0.2,0.6-0.8,0.7-1.3l0.2-0.1l-0.1,0.2c-0.2,0.4-0.5,0.9-0.7,1.3c-0.2,0.5-0.5,1-0.7,1.5c-1.1,0.2-1.4,1.2-1.9,1.9
		c-4,5.1-8.6,9.5-14.3,12.6c-0.9,0.5-1.9,0.9-2.9,1.3c-0.4,0.1-0.9,0-1.6-0.1c0.6-1.4,1.3-2.3,2.3-2.9c3.3-1.9,6.1-4.5,9-7
		c3.3-2.9,6.1-6.3,8.1-10.3c0.4-0.7,0.9-1.4,1.3-2.1l-0.1-0.1c0.1,0.3,0.2,0.6,0.3,1c0.2-0.4,0.3-0.7,0.5-0.9l-0.1,0.1
		c1-1.5,1.5-3.1,1.5-4.9c0-0.7-0.1-1.4-0.8-1.8l0.1,0.1c0.3-0.4,0.6-0.7,0.8-1c0.9,0,1.3,0.5,1.3,1.1c0.1,1.6,0.1,3.3,0.1,4.9
		c-0.2,0.2-0.3,0.5-0.2,0.2c-0.1,0.3,0,0,0.1-0.3c0.2-0.1,0.4-0.3,0.5-0.4c2.2-5.7,3.8-11.6,4.2-17.7c0.3-4.9-0.4-9.7-1.4-14.5
		c-0.9-4.3-1.9-8.6-2-13c-0.1-3.1,0-6.2,0.1-9.3c0.1-2,0.6-4,1.6-5.8c0.2-0.4,0.6-0.8,0.9-1c0.2-0.1,0.6,0.1,1,0.3
		c-0.5,1.6-1,3-1.4,4.5c-0.3,0.9-0.7,1.7-0.1,2.7c0.3,0.5,0,1.4,0,2.1c-0.1,1.3-0.2,2.6-0.3,3.9c4.6,1.1,8.5,3.5,12.3,5.8
		c3.8,2.2,6.1,5.6,7.5,9.7c0.8,2.3,1.5,4.5,2.3,6.8c2.5,7,3.9,14.2,4.5,21.6c0.3,4.2-0.7,8.3-2.4,12.2c-2.6,6-6.1,11.3-11,15.6
		c-0.7,0.6-1.4,1.3-1.8,2.2c-1.7,3.2-4.4,5.2-7.5,6.9c-0.8,0.5-1.7,0.8-2.6,1.2c-3.1,1.7-6.4,2.7-9.9,2.9c-0.6,0-1.2,0.1-1.8,0.2
		c-1.7,0.3-3.1,1-4.2,2.4c-1.8,2.2-3.8,4.2-5,6.9c-0.1,0.3-0.3,0.6-0.6,0.9c-2.7,3.2-5.1,3.8-8.2,0.2c-0.6-0.7-1.3-1.4-1.8-2.2
		c-0.3-0.4-0.1-1.1-0.2-2c2.6,1.4,3.6,4.4,6.8,4.5c0.4-0.4,1.1-0.9,1.5-1.6c1-1.4,1.9-2.7,2.7-4.2c1.5-2.7,3.6-4.7,5.9-6.6
		c1.1-0.9,2.2-1.3,3.6-1.2c6.9,0.4,12.4-2.8,17.3-7.2c0.2-0.2,0.4-0.3,0.5-0.5c2.1-3.3,5.2-5.9,7.8-8.8c5.1-5.9,7.6-12.9,7.8-20.6
		c0.3-8.3-0.9-16.4-4.3-24.1c-0.6-1.3-1-2.7-1.5-4C768.1,452.5,765.9,449.1,762.3,446.6c-0.4-0.2-0.6-0.4-0.9-0.6
		c-0.2-0.2-0.5-0.5-0.7-0.7l-0.1-0.2l0.2,0.1c0.2,0.2,0.5,0.5,0.7,0.7C761.8,446.1,762.1,446.3,762.3,446.6z M753.9,443.5
		c-0.1-0.1-0.1-0.3-0.2-0.3c-0.4-0.1-0.8-0.1-1.2-0.1c0,0-0.1,0.2-0.1,0.3c0.3,0.6,0.7,0.4,1.2,0.3
		C753.7,443.6,753.8,443.5,753.9,443.5z"/>
	<path d="M746.4,423.7c-0.3,1.3-0.5,2.5-0.8,3.8c-0.4,1.4-0.5,2.8-0.1,4.2c0.5,2,1,3.9,1.5,5.9c0.8,3,1.7,6,2.4,9
		c2.3,10.7,0.9,21.1-3.2,31.2c-2.5,6.1-5.6,11.9-9.5,17.2c-1.4,1.9-2.7,3.9-4,5.9c-0.9,1.3-1.9,2.4-3.4,2.9l0.1,0.1
		c0.9-2.2,1.8-4.4,2.7-6.6c0.4-1.1,1.1-2.1,0.8-3.4l0.2-0.1l-0.2,0.2c-0.7,0.8-1.3,1.6-2,2.4c-0.8,0.9-1.5,1.9-2.3,2.7
		c-1.8,1.7-3.6,3.3-5.6,5.1c0.1-1.7,1.2-2.9,1.8-4.2c0.7-1.4,1.3-2.8,2-4.2c0.6-1.4,1.2-2.9,1.8-4.3c0.5-1.3,1-2.7,1.5-4
		c0.5-1.4,1.1-2.9,1.6-4.4c0.5-1.5,1-2.9,1.5-4.4c0.4-1.5,0.8-2.9,1.3-4.8c0.8,1.2,0.6,2.1,0.4,3c-0.6,2.5-1.2,5.1-2.1,7.6
		c-1.7,4.7-3.2,9.5-5.8,13.8c-0.2,0.3-0.2,0.6-0.3,1.3c1.5-0.9,2.2-2.1,3-3.3c4.6-7.1,8.2-14.5,9.7-22.9c0.3-1.5,0.5-3.1,0.9-4.6
		c0.1-0.5,0.4-1.1,0.8-1.4c0.7-0.6,1-1.3,1.1-2.2c0.6-3.6,1.2-7.3,1.6-11c0.4-3.7,0.7-7.3,1-10.6c0.6,6.9-0.1,14.1-1.4,21.2
		c-1.9,10.2-4.8,20.2-8.6,29.8c-0.2,0.4-0.2,0.9-0.3,1.4c-0.1,0.2-0.3,0.4-0.1,0.2c0,0.2,0,0,0-0.3c0.4-0.3,0.9-0.4,1.1-0.8
		c4.6-8.5,8.9-17.1,11.2-26.6c2.2-8.9,1.9-17.7-0.3-26.5c-0.2-0.8-0.4-1.6-0.6-2.4c-1.3-4.3-1.9-8.6-1.3-13l-0.1,0.1
		c0-0.3,0-0.6,0-0.8l0.1,0.1C744.7,424.7,745.4,424,746.4,423.7L746.4,423.7z"/>
	<path d="M766.5,500.2c0.8,0.1,1-0.5,1.3-1c1.4-2.1,2.7-4.2,4.4-7c-0.2,1.2-0.2,1.8-0.3,2.2c-2.1,5.6-5.3,10.4-9.5,14.5
		c-2.7,2.7-3.8,2.8-7.5,0.8c0.1-0.1,1.4-0.7,1.5-0.7c-0.1-0.2-0.1-0.5-0.2-0.6c-2.9-1.2-2.9-1.2-5.9-0.9c0.1-0.7,0.3-1.3,0.3-1.9
		c0-0.5-0.7-1,0-1.7c0.7,0.3,1.4,0.6,2.2,1c2.1-1.3,4.2-2.5,7-4.2c-1.6,2.6-3.9,3.5-5.5,5.4c1.2,0.7,2.2,1.3,3.2,1.9
		c2.6-2.6,4.9-5.3,6.8-8.3c1.9-2.9,3.5-5.9,5.4-9.2c0.1,1.5-0.3,2.7-0.8,3.8C768.2,496.3,767.4,498.3,766.5,500.2
		c-0.5,0.5-0.6,1-0.5,1.7c-0.5-0.1-0.7,0.2-0.8,0.7c-0.3,0.2-0.5,0.4-0.8,0.7c-0.6,0.6-1.4,1.2-1.3,2.2c-0.6-0.1-0.8,0.2-0.8,0.7
		c-1.5,0.8-2.9,1.9-3.5,3.6c-0.1,0-0.2,0-0.3,0c0,0-0.1,0.1-0.1,0.2c0.1-0.1,0.2-0.2,0.3-0.3c2-0.8,2.6-1.4,3.5-3.6
		c0.5,0.1,0.7-0.3,0.8-0.7c0.9-0.5,1.5-1.1,1.3-2.3c0.5,0.1,0.7-0.1,0.8-0.6c0.3-0.2,0.6-0.4,0.8-0.7
		C766.1,501.2,766.3,500.7,766.5,500.2z"/>
	<path d="M759.4,481.7c0.1,1.7-0.6,3.3-1.2,4.8c-1.7,4.4-4.3,8.2-7.1,11.9c-0.5,0.6-1,1.3-1.4,1.9c0.9,0.6,1.6,0,2.2-0.2
		c2.5-1.2,4.6-2.9,6.6-4.8c0.5-0.5,0.5-1.6,1.7-1.4c1.1,0.1,1.1-1,1.5-1.6c0.4-0.7,0.7-1.5,1.1-2.2c0.3-0.8,0.6-1.5,0.9-2.3
		c1.8-4.8,3-9.8,3-15c0-1.4,0-2.9,0-4.6c1.8,5.3,0.2,14.7-1.9,19.8c-0.7,1.6-1.4,3.3-2.2,4.9c-1,1.9-2,3.8-4.3,4.5
		c-0.7,0.2-1.2,1.1-1.9,1.6c-1.1,0.9-2.2,1.8-3.4,2.6c-0.7,0.4-1.5,0.7-2.3,0.8c-0.8,0.2-1.7,0.2-2.2-0.7c-0.5-0.9-0.6-1.8-0.1-2.7
		c0.2-0.3,0.4-0.6,0.6-0.9c3.6-5,6.8-10.4,9.7-15.8C758.9,482.1,759.2,482,759.4,481.7L759.4,481.7z"/>
	<path d="M720.7,497.4c0-0.5,0-1,0-1.4c0.5,0.1,0.7-0.3,0.8-0.7c0.6-0.3,0.6-0.9,0.6-1.5l0.2,0l-0.1,0.1c-0.2,0.5-0.4,1-0.6,1.5
		c-0.6-0.1-0.8,0.1-0.8,0.7c-0.2,0-0.5,0-0.7-0.1l0.1,0.1c0.3-0.8,0.4-1.6,0.8-2.3c2.4-4,5-7.8,6.4-12.3c1.8-2,2.5-4.6,3.4-7
		c0.3-0.9,0.6-1.8,0.8-2.7c0.3-2,0.8-3.9,1.7-5.8c0.7-1.7,0.9-3.7,1.3-5.5c0.1-0.7,0.1-1.4,0.8-1.8c0.1,0.2,0.2,0.3,0.2,0.4
		c-0.3,2-0.4,4-0.8,6c-1.4,6-2.9,12-4.4,18c-0.2,0.8-0.6,1.5-0.9,2.3l0.1,0.1c-0.1-1-0.1-2-0.2-2.9l0.3,0l-0.2,0.1
		c-0.7,1.6-1.5,3.2-2.2,4.8c-1.3,3.3-2.9,6.5-5.1,9.3C721.7,496.9,721.4,497.5,720.7,497.4L720.7,497.4z"/>
	<path d="M703.4,87.6c-0.6-2.2,0.4-4.5-0.1-6.8c-1.2,3.1-2.5,6.2-3.7,9.3c-0.1,0.2-0.3,0.3-0.7,0.6c-0.8-0.9-0.8-2.1-1-3.2
		c-0.8-6.8-0.5-13.5,1.8-20.8c0.1,1.1,0.2,1.6,0.2,2.1c0,0.5-0.1,0.9-0.2,1.4c-0.9,5.1-0.8,10.2-0.5,15.3c0,0.2,0.2,0.4,0.3,0.6
		c0.8-0.3,0.9-1.1,1.1-1.7c0.8-2.5,1.5-5,2.2-7.5c0.3-1.1,0.8-1.9,2.1-2.4c-0.3,4.5-0.5,8.8-0.7,13.2
		C703.9,87.6,703.6,87.6,703.4,87.6z"/>
	<path d="M712.1,99.5c0.7,0.1,1.4,0.3,2.3,0.5c2-1.2,3.5-3.3,4.7-5.4c3.3-5.6,5.4-11.6,6.6-18c0.4-2.3,0.8-4.7,1.1-6.7
		c0.9,8.6-1.6,16.8-5.7,24.6c-1.4,2.7-3.1,5.1-6,6.6C714.1,100.8,712.7,101.1,712.1,99.5L712.1,99.5z"/>
	<path d="M694.7,122c-1.1,0.6-1.9,1.2-2.9,1.7c-0.4-0.2-0.8-0.6-1.2-0.6c-1.1,0-1.7-0.5-2.1-1.5c-0.1-0.3-0.7-0.3-1.2-0.5
		c-0.7-1.1-1.5-2.2-2.2-3.4c-0.4-0.6-0.7-1.3-0.8-1.9c-0.2-1.4-0.4-2.8,0.2-4.2c0.6-0.1,0.8,0.3,1,0.8c1.3,2.7,2.9,5.1,5.2,7
		c0.5,0.4,1.1,0.7,1.9,0.6C694,119.8,694,119.9,694.7,122z"/>
	<path d="M769.7,461.4c2.1,3.9,2.1,8.2,1.8,12.5c-0.4,5.8-1.4,11.5-4.6,16.6c0.8-3.2,1.7-6.4,2.2-9.6c0.5-3.2,0.8-6.4,1-9.6
		C770.5,468,769.9,464.7,769.7,461.4z"/>
	<path d="M691.4,110.1c0.1-0.5,0.2-1.2,0.3-1.9c2.4,1.5,6.5,5.1,7.5,6.8c0.7,1.1,1.1,2.4,1.5,3.6c0.1,0.3-0.3,1-0.6,1.1
		c-0.3,0.2-0.9-0.1-1.3-0.2c-0.2-0.1-0.3-0.3-0.5-0.5C696.6,115.6,693.9,113,691.4,110.1z"/>
	<path d="M694.9,39.3c0.2,1.4-0.6,2.5-1.2,3.7c-1.9,4.1-3.4,8.3-4.3,12.8c-0.6,3-0.8,6.1-1.3,9.8c-0.6-4.5-0.1-8.3,0.7-12
		c1-4.4,2.7-8.6,4.8-12.6C694.1,40.4,694.6,39.9,694.9,39.3L694.9,39.3z"/>
	<path d="M733.5,430.6c0-0.2-0.1-0.5-0.1-0.6c1.2-2.8,2.8-5.3,4.8-7.5c1-1.1,2.3-2,3.7-2.7c0.9-0.4,2.1-0.5,3.1-0.4
		c0.8,0.1,1.5,0.6,1.3,1.7c-2.7-0.5-3-0.4-5.3,1c-2.8,1.8-4.7,4.3-6.3,7.2C734.5,429.8,734.6,430.8,733.5,430.6z"/>
	<path d="M691.3,90.9c-1.5-1.4-2.1-3.4-2.8-5.3c-1.7-5-2.4-10.2-2.6-16.3c0.5,1.4,0.9,2,0.9,2.6c0.8,6.2,2,12.2,4.4,18
		C691.4,90.2,691.3,90.6,691.3,90.9L691.3,90.9z"/>
	<path d="M724.1,517.3c1.3,2.6,3,3.5,4.9,4.2c1.1,0.4,2.2,0.8,3,2c-0.4,0.3-0.7,0.7-1.1,0.8c-2,0.5-4.4-0.4-5.6-2.1
		C724.5,521,723.5,519.8,724.1,517.3z"/>
	<path d="M680.3,74.8c1.1,6.6,3.4,12.4,7.3,17.8c-1.9-0.7-2.3-1.1-3.8-3.6C681,84,679.6,79,680.3,74.8z"/>
	<path d="M751.4,488.9c0.7,0,0.9-0.7,1.2-1.2c0.9-2,1.8-4.1,2.7-6.1c0.3-0.7,0.3-1.7,1.3-1.9l-0.1-0.1c-0.1,0.6-0.1,1.2-0.2,1.7
		c-1.7,5.7-4.6,10.8-8.1,16.2c-0.3-2,1.2-3,1.2-4.4l-0.1,0.1c0.7-0.3,0.8-0.9,0.8-1.6l-0.1,0.2c0.7-0.3,0.9-0.9,0.8-1.6l-0.1,0.2
		c0.8-0.2,0.9-0.9,0.8-1.6L751.4,488.9z"/>
	<path d="M537.6,169.5c-0.1,0-0.3,0-0.3,0c-2-2.6-3.7-5.4-4.9-8.5c-0.1-0.2-0.2-0.5-0.2-0.7c0.1-0.4,0.2-0.9,0.4-1.2
		c0.4-0.4,1.1-0.1,1.5,0.5c0.2,0.4,0.5,0.8,0.6,1.3c0.5,1.3,0.9,2.7,1.3,4C536.5,166.4,537,168,537.6,169.5L537.6,169.5z"/>
	<path d="M704.9,34.5c0.7,6.1-0.7,11.5-1,17.5C703.2,45.4,703.6,38.5,704.9,34.5z"/>
	<path d="M696.8,95.9c-0.3-0.5-0.6-0.8-0.7-1.1c-0.6-2.1-1-9.2-0.6-11.7c0.1,0.2,0.4,0.3,0.4,0.5c0.4,3.6,0.8,7.3,1.2,10.9
		C697.1,94.8,697,95.1,696.8,95.9z"/>
	<path d="M730.7,515.5c0.5,0,1-0.2,1.4-0.1c1.9,0.7,3.5,1.9,4.7,3.6c0.4,0.6,0.7,1.3-0.2,1.8C734.2,519.3,732.5,517.8,730.7,515.5
		L730.7,515.5z"/>
	<path d="M679.3,470.9c-3,2.8-6.5,2.5-11,1.8c2.2-0.3,3.6-0.4,4.9-0.7c1.7-0.4,3.3-1.1,5-1.7c0.5-0.2,0.9,0.1,1,0.7L679.3,470.9z"/>
	<path d="M525.4,224.2c0.2,0.1,0.5,0.2,0.5,0.4c0.3,1,0.7,2.1,0.7,3.1c0.1,1.4,0.2,2.8,1.3,3.9c0.1,0.1-0.2,0.4-0.3,0.6
		C525.9,230.3,525.5,228.8,525.4,224.2z"/>
	<path d="M529.4,337.6c1.5,1.3,2.4,2.9,2.9,4.6c-0.4,0.6-0.9,0.6-1.2,0.2C530,340.9,529.7,339.9,529.4,337.6z"/>
	<path d="M686.4,507.2c-2,0.4-3.1-0.6-4.8-1.8C683.8,505.2,685.3,505.4,686.4,507.2z"/>
	<path d="M531.8,223.3c0.1-0.8,0.1-1.6,0.3-2.4c0.4-1.5,0.9-2.9,1.4-4.4c0.8-0.1,0.6,0.5,0.6,0.9
		C533.8,219.6,533.2,221.6,531.8,223.3L531.8,223.3z"/>
	<path d="M531.9,232.9c2-0.2,2.7,0.7,3.3,4.4c-0.8-1-1.3-1.7-1.8-2.4C533,234.2,532.4,233.6,531.9,232.9z"/>
	<path d="M537.6,176.1c-0.2-0.7-0.5-1.4-0.7-2.2c0-0.2,0.3-0.7,0.5-0.7c0.5-0.1,0.9,0.2,0.9,0.7c0,0.7-0.2,1.4-0.3,2.1
		C537.9,176.1,537.7,176.1,537.6,176.1z"/>
	<path d="M686.1,62.5c0,1,0,2.1,0,3.1c0,0,0,0-0.1,0C686,64.5,686,63.5,686.1,62.5C686,62.5,686.1,62.5,686.1,62.5z"/>
	<path d="M535.1,108.4c-1.2-0.8-1.5-1.2-1.2-2c0.1-0.2,0.6-0.4,0.8-0.3C535.6,106.5,535.6,106.9,535.1,108.4z"/>
	<path d="M722.9,73.6c0.1-1.4,0.2-2.8,0.2-4.2C723.4,70.8,724,72.3,722.9,73.6L722.9,73.6z"/>
	<path d="M719.3,85.8c0.1-1.3,0.4-2.6,1.5-3.5l-0.1-0.1C720.8,83.7,720.3,84.8,719.3,85.8L719.3,85.8z"/>
	<path d="M722.8,73.6c0,0.9,0,1.9-0.1,2.8c0,0.3-0.4,0.5-0.6,0.8l0.1,0.1C722.2,76,722.1,74.7,722.8,73.6L722.8,73.6z"/>
	<path d="M644.1,117.4c-0.7-0.6-0.6-1.4-0.7-2.3C644.5,115.8,644.1,116.7,644.1,117.4L644.1,117.4z"/>
	<path d="M537,243c-0.2-0.3-0.5-0.6-0.7-1c-0.1-0.1,0.1-0.4,0.3-0.5c0,0,0.3,0.1,0.3,0.1c0.2,0.4,0.3,0.8,0.5,1.1
		C537.2,242.8,537.1,242.9,537,243z"/>
	<path d="M528.4,333c-0.1-0.4-0.3-0.7-0.3-1.1c0-0.3,0.2-0.5,0.6-1.5c0.1,1.3,0.1,1.9,0.1,2.5C528.7,333,528.6,333,528.4,333z"/>
	<path d="M640.1,93.8c0-0.5,0-1,0-1.5c0.1,0,0.1,0,0.2,0c0,0.5,0.1,1,0.1,1.5C640.3,93.8,640.2,93.8,640.1,93.8z"/>
	<path d="M715.8,92.4c0.1-1,0.3-1.9,1.5-2.1l-0.1-0.1C717,91.1,716.5,91.8,715.8,92.4L715.8,92.4z"/>
	<path d="M759.5,481.8c0-1-0.4-2.1,0.7-2.8l-0.1-0.1C760,479.9,760.3,480.9,759.5,481.8L759.5,481.8z"/>
	<path d="M744.1,437.4c0,0.4,0,0.9,0,1.3c0,0-0.1,0-0.1,0c0-0.4,0-0.9,0-1.3C744,437.4,744.1,437.4,744.1,437.4z"/>
	<path d="M721.5,80.1c0.1-1-0.2-2.1,0.7-2.9l-0.1-0.1C722.1,78.2,722.4,79.3,721.5,80.1L721.5,80.1z"/>
	<path d="M746.4,483c0,0.8,0,1.5,0,2.7C745.7,484.4,745.9,483.7,746.4,483L746.4,483z"/>
	<path d="M720.6,497.3c0.1,0.7-0.1,1.3-1.2,1.6C720,498.2,720.4,497.8,720.6,497.3L720.6,497.3z"/>
	<path d="M721.4,80c0,0.8,0.1,1.7-0.7,2.3l0.1,0.1C720.8,81.6,720.6,80.7,721.4,80L721.4,80z"/>
	<path d="M675.9,503.9c0.1-0.1,0.1-0.2,0.2-0.3c0.1,0.1,0.3,0.3,0.4,0.4c0,0-0.1,0.1-0.2,0.2C676.2,504.2,676,504.1,675.9,503.9z"/>
	<path d="M745.1,489.6c0.1-0.5,0.2-1.1,0.4-2.4c0.1,1.3,0.2,1.8,0.2,2.4l0.1-0.1c-0.3,0-0.6,0-0.8,0L745.1,489.6z"/>
	<path d="M756.6,479.7c0-0.5,0.1-1,0.1-1.7C757.2,478.8,756.9,479.2,756.6,479.7L756.6,479.7z"/>
	<path d="M538.3,184c0-0.4,0-0.7,0.1-1.1c0.1,0,0.2,0,0.3,0c0,0.4,0,0.7,0,1.1C538.5,184,538.4,184,538.3,184z"/>
	<path d="M717.3,455.4c0-0.5,0-1,0-1.8C717.9,454.4,717.5,454.8,717.3,455.4L717.3,455.4z"/>
	<polygon points="701.1,62.9 701,63.1 701,62.9 	"/>
	<polygon points="700.4,65.2 700.3,65.2 700.4,64.9 	"/>
	<path d="M665,463c-0.3-0.1-0.5-0.2-0.8-0.3c0.1,0,0.2-0.1,0.3-0.1C664.7,462.7,664.8,462.9,665,463L665,463z"/>
	<path d="M760.2,479c0-0.2,0-0.4,0-0.6c0-0.1,0-0.2,0-0.3c0.1,0.1,0.2,0.2,0.2,0.3C760.4,478.5,760.3,478.7,760.2,479L760.2,479z"/>
	<path d="M695,39.4c0.1-0.3,0.1-0.6,0.2-0.9C695.7,39,695.4,39.2,695,39.4L695,39.4z"/>
	<path d="M623.2,537.8c0,0.1,0.1,0.2,0.1,0.3c-0.1,0-0.3,0.1-0.4,0.1c0-0.1,0-0.2,0.1-0.3C623,537.9,623.1,537.9,623.2,537.8z"/>
	<path d="M705.6,490.9c-0.1,0.3-0.1,0.5-0.1,0.4C705.5,491.4,705.6,491.2,705.6,490.9L705.6,490.9z"/>
	<path d="M533.3,103.3c0,0.1-0.1,0.2-0.1,0.2c-0.1,0-0.2,0-0.3-0.1c0-0.1,0.1-0.2,0.1-0.2C533.1,103.3,533.2,103.3,533.3,103.3z"/>
	<path d="M527.8,323.6c0-0.1-0.1-0.2-0.1-0.2c0.1-0.1,0.2-0.1,0.3-0.2c0,0.1,0,0.2,0,0.3C528,323.5,527.9,323.5,527.8,323.6z"/>
	<path d="M690.2,107.8c0.1,0,0.2,0,0.2,0c0,0.1,0,0.2,0.1,0.3c-0.1,0-0.2,0-0.3-0.1C690.2,108,690.2,107.9,690.2,107.8z"/>
	<path d="M531.7,223.2c-0.1,0.2-0.2,0.5-0.1,0.3C531.5,223.7,531.7,223.5,531.7,223.2L531.7,223.2z"/>
	<path d="M717.9,88.7c-0.2,0.5-0.5,1-0.7,1.5l0.1,0.1C717.2,89.6,717.1,89,717.9,88.7L717.9,88.7z"/>
	<path d="M718.6,87.3c0,0.6,0,1.2-0.7,1.4l0.1,0.1C717.9,88.2,717.9,87.6,718.6,87.3L718.6,87.3z"/>
	<path d="M729.3,503.8c0,0.3-0.1,0.5-0.1,0.3C729.1,504.3,729.2,504.1,729.3,503.8L729.3,503.8z"/>
	<path d="M742.8,427.2c-0.2,0.5-0.4,1-0.5,1.5l0.1,0C742.5,428.3,742.7,427.8,742.8,427.2L742.8,427.2z"/>
	<path d="M719.2,85.7c0,0.6,0.1,1.3-0.7,1.5l0.1,0.1C718.9,86.9,719.1,86.3,719.2,85.7L719.2,85.7z"/>
	<path d="M730.8,515.4c-0.1-0.1-0.2-0.2-0.2-0.3c0.1,0,0.1,0.1,0.1,0.1C730.7,515.3,730.7,515.4,730.8,515.4L730.8,515.4z"/>
	<polygon points="689.6,513.7 689.5,513.5 689.7,513.5 	"/>
	<path d="M640.6,527.6c0.2-0.3,0.5-0.5,0.7-0.8l-0.1-0.1C641,527,640.8,527.2,640.6,527.6L640.6,527.6z"/>
	<path d="M722.1,506c0,0.1-0.1,0.2-0.1,0.3C722.1,506.3,722.2,506.2,722.1,506L722.1,506z"/>
	<path d="M722.2,506.1c0-0.1,0-0.2,0.1-0.3C722.3,505.9,722.2,506,722.2,506.1L722.2,506.1z"/>
	<path d="M717.2,499.7c-0.3,0.2-0.5,0.4-0.8,0.7l0.1,0.1C716.7,500.2,717,500,717.2,499.7L717.2,499.7z"/>
	<polygon points="717.2,499.8 717.3,499.5 717.2,499.7 	"/>
	<polygon points="763.7,497.5 763.6,497.6 763.7,497.6 	"/>
	<polygon points="718.5,497.4 718.4,497.6 718.5,497.5 	"/>
	<polygon points="763.7,497.6 763.8,497.3 763.7,497.5 	"/>
	<path d="M719.3,496.7c-0.3,0.2-0.5,0.4-0.8,0.7l0.1,0.1C718.8,497.2,719.1,497,719.3,496.7L719.3,496.7z"/>
	<path d="M719.3,496.8c0.3-0.3,0.5-0.5,0.8-0.8l-0.1-0.1C719.8,496.2,719.5,496.5,719.3,496.8L719.3,496.8z"/>
	<polygon points="691.2,91 691.5,91 691.3,90.9 	"/>
	<path d="M715.7,92.3c-0.3,0.2-0.5,0.4-0.8,0.6l0.1,0.1C715.3,92.8,715.6,92.6,715.7,92.3C715.8,92.4,715.7,92.3,715.7,92.3z"/>
	<path d="M715,92.9c-0.3,0.2-0.5,0.4-0.8,0.6l0.1,0.1C714.5,93.4,714.8,93.2,715,92.9L715,92.9z"/>
	<polygon points="714.2,93.6 714.2,93.8 714.3,93.7 	"/>
	<path d="M712.2,99.4c-0.2-0.1-0.4-0.1-0.5-0.2C712.1,98.7,712.1,99.2,712.2,99.4L712.2,99.4z"/>
	<polygon points="537.5,169.5 537.6,169.7 537.6,169.5 	"/>
	<path d="M678.6,473.1c0.2-0.2,0.5-0.5,0.7-0.7l-0.1-0.1C679,472.6,678.8,472.8,678.6,473.1L678.6,473.1z"/>
	<path d="M677.9,473.9c0.2-0.2,0.5-0.5,0.7-0.7l-0.1-0.1C678.3,473.3,678.1,473.5,677.9,473.9L677.9,473.9z"/>
	<path d="M677.1,474.5c0.3-0.2,0.5-0.5,0.8-0.7l-0.1-0.1C677.6,474,677.3,474.2,677.1,474.5L677.1,474.5z"/>
	<path d="M677.1,474.5c-0.2,0.2-0.5,0.5-0.7,0.7l0.1,0.1C676.7,475,676.9,474.8,677.1,474.5L677.1,474.5z"/>
	<path d="M675.8,476c0.2-0.2,0.5-0.5,0.7-0.7l-0.1-0.1C676.1,475.4,675.9,475.7,675.8,476L675.8,476z"/>
	<path d="M675.1,476.7c0.2-0.2,0.5-0.5,0.7-0.7l-0.1-0.1C675.4,476.2,675.2,476.4,675.1,476.7L675.1,476.7z"/>
	<path d="M675,476.7C674.6,477.1,675.2,476.6,675,476.7L675,476.7z"/>
	<polygon points="729.3,485.2 729.3,485.4 729.4,485.3 	"/>
	<path d="M727.3,423c0.1-0.1,0.1-0.2,0.2-0.4c0,0.1,0,0.1,0,0.2C727.4,422.9,727.3,422.9,727.3,423L727.3,423z"/>
	<path d="M727.2,423c0,0.5-0.2,0.8-0.8,0.7l0.1,0.1C726.7,423.5,727,423.3,727.2,423L727.2,423z"/>
	<path d="M746.5,423.8c0-0.1,0.1-0.2,0.1-0.2C746.6,423.6,746.5,423.6,746.5,423.8L746.5,423.8z"/>
	<path d="M744.4,426.6c-0.3,0-0.5,0-0.8-0.1l0.1,0.1c0.2-0.2,0.5-0.5,0.7-0.7l-0.1-0.1C744.3,426.1,744.3,426.4,744.4,426.6
		L744.4,426.6z"/>
	<path d="M743.6,426.5c-0.1,0.5-0.3,0.7-0.8,0.7l0.1,0.1C743.2,427,743.4,426.8,743.6,426.5L743.6,426.5z"/>
	<polygon points="742.3,428.7 742.1,428.8 742.3,428.8 	"/>
	<polygon points="665,455.9 664.8,455.8 664.9,456 	"/>
	<path d="M160.1,219.6c-0.3,0.5-0.6,1.1-1,1.3c-0.8,0.5-1.7,0.7-2.7,1.1c-0.1,2.5-1.5,4.4-2.9,6.2c-0.7,0.1-0.9-0.3-0.9-0.8
		c0-1.8-0.1-3.6,0.7-5.3c0.4-0.9,1-1.6,2.1-1.7c1.6-0.2,3.3-0.5,4.9-0.8L160.1,219.6z"/>
	<path d="M160.2,219.7c0.6-1,1.3-1.6,2.5-1.8c1-0.1,2.1-0.2,3.3-0.3c-2.5,2.1-3.1,2.3-5.9,2L160.2,219.7z"/>
	<path d="M279.1,192.2c-1.5,1.5-3.4,0.5-5.4,0.9c1.4-1.3,2.7-1.6,4.1-1.9C278.4,191.1,279,191.3,279.1,192.2z"/>
	<path d="M267.7,225.4c1.6-2.1,1.7-2.2,5.2-1.8c-0.1,0.2-0.2,0.4-0.4,0.5C271,224.6,269.5,224.8,267.7,225.4z"/>
	<path d="M177.5,214.3c0.4-0.2,0.8-0.5,1.3-0.7c0.1,0,0.4,0.2,0.4,0.3c0,0.2-0.2,0.5-0.3,0.5c-0.4,0.1-0.8,0.2-1.2,0.2
		C177.6,214.6,177.6,214.4,177.5,214.3z"/>
	<path d="M293.3,185.3c-0.1,1-0.6,1.4-1.6,1.3C292.4,185.7,292.4,185.7,293.3,185.3L293.3,185.3z"/>
	<path d="M268,192.9c0.2-0.2,0.3-0.4,0.4-0.4c0.4-0.1,0.7-0.1,1.1-0.2c0,0,0.1,0.3,0,0.3c-0.3,0.2-0.7,0.3-1.1,0.5
		C268.4,193.1,268.3,193,268,192.9z"/>
	<path d="M187.2,210.8c-0.3,0.1-0.6,0.2-0.9,0.3c0-0.2-0.2-0.4-0.1-0.5c0.1-0.1,0.4-0.3,0.6-0.3C187,210.3,187.1,210.6,187.2,210.8z
		"/>
	<path d="M171.2,216.4c0.6-0.1,1.1-0.1,1.7-0.2C172.4,217.1,171.9,217.1,171.2,216.4z"/>
	<path d="M293.4,185.4c0.5-0.2,1-0.4,1.5-0.7l-0.1-0.1C294.5,185.3,293.9,185.3,293.4,185.4L293.4,185.4z"/>
	<polygon points="262.8,192.3 262.4,192.1 262.8,192.1 	"/>
	<polygon points="294.8,184.7 294.9,184.6 294.8,184.6 	"/>
	<path d="M413.7,196.1c0,0-0.1-0.1-0.1-0.1L413.7,196.1z"/>
	<path d="M413.7,196.8c-0.6-0.2-0.6-0.5,0-0.7l-0.1-0.1C413.6,196.3,413.6,196.6,413.7,196.8L413.7,196.8z"/>
	<path d="M642.2,217.8c-0.1-0.3-0.3-0.7-0.2-0.9c0.7-1.7,1.5-3.4,2.2-5.1c0.1-0.3,0.3-0.6,0.5-0.9c0.4-0.7,1.3-0.9,1.8-0.6
		c0.6,0.4,0.8,1.2,0.5,1.9c-0.1,0.3-0.2,0.7-0.4,0.9c-1.2,1.6-2.5,3.1-3.7,4.7C642.8,217.8,642.5,217.8,642.2,217.8z"/>
	<path d="M673.7,332.8c-0.3-1.2-0.4-1.9-0.6-2.5c0.7-0.7,1.2-0.5,1.6,0c0.2,0.2,0.3,0.7,0.2,1C674.7,331.7,674.3,332,673.7,332.8z"
		/>
	<path d="M631.7,148.9c1.5-1,2.2-0.5,3.1,0.2C633.5,149.5,633.5,149.5,631.7,148.9z"/>
	<path d="M656.5,310.9c-0.2-0.4-0.4-0.8-0.5-1.2c0-0.3,0.1-0.8,0.2-0.9c0.6-0.2,0.7,0.3,0.8,0.7c0.1,0.4,0,0.9,0,1.3
		C656.9,310.9,656.7,310.9,656.5,310.9z"/>
	<path d="M635.5,215.5c1.2,0,2,0.6,2.5,1.7C636.7,217.1,636.7,217.1,635.5,215.5L635.5,215.5z"/>
	<path d="M638.8,147.8c-0.2,0.1-0.3,0.3-0.5,0.3c-0.1,0-0.3-0.2-0.4-0.4c0.1-0.1,0.2-0.2,0.3-0.2
		C638.4,147.6,638.6,147.7,638.8,147.8z"/>
	<path d="M635.6,215.4c-0.2-0.1-0.3-0.1-0.5-0.2C635.6,214.7,635.5,215.2,635.6,215.4L635.6,215.4z"/>
	<path d="M440.8,186.8c-1.5,2.1-3.9,3.1-5.8,4.8c-0.3,0.2-0.9,0.1-1.3,0.1l0.1,0.1c0.5-0.7,1-1.5,1.6-2.1
		C436.8,188.1,438.5,186.7,440.8,186.8L440.8,186.8z"/>
	<path d="M448.7,126.4c-0.8,0.1-1.6,0.2-2.6,0.4C447.8,125.1,447.8,125.1,448.7,126.4z"/>
	<path d="M443.4,183.6c-0.1-1.4,0.4-1.9,1.9-1.6C444.5,182.7,443.9,183.2,443.4,183.6z"/>
	<path d="M440.9,186.9c0.2-0.2,0.4-0.4,0.2-0.2C441.3,186.6,441.1,186.7,440.9,186.9L440.9,186.9z"/>
	<path d="M187.7,257.6c0.8-1.4,1.9-1.7,2.9-2c1.9-0.6,3.9-0.9,6-0.8c0.8,0,1.4,0.3,1.7,1.1c0.2,0.7-0.4,1.5-1.3,1.8
		C193.9,258.7,191,258.8,187.7,257.6z"/>
	<path d="M588.4,71.5c0.2,0.9,0.8,0.8,1.4,0.7c0.6,1.1,1.4,2.2,1.9,3.3c0.3,0.7,0.1,1.4-1,1.7c-1.1-1.8-1.8-4.1-4-5.3
		C587.4,71.8,587.9,71.6,588.4,71.5z"/>
	<path d="M590.1,98.9c0.7,2.7,0.7,3.1-0.7,5.5C588.7,100.3,588.8,99.7,590.1,98.9z"/>
	<path d="M592.3,87.2c1.3,1.7,1.6,2.8,0.7,4c-0.1,0.1-0.4,0.2-0.6,0.2c-0.2,0-0.5-0.3-0.5-0.4C592,89.9,592.1,88.9,592.3,87.2z"/>
	<path d="M576.9,93.7c0.6-1.9,2.3-1.8,3.7-2.4C579.5,92.9,579.4,92.9,576.9,93.7L576.9,93.7z"/>
	<path d="M587,113.8c-0.1-1.2-0.3-2.5,0.2-3.7c0.8-0.1,0.9,0.4,0.8,0.8C587.7,111.9,587.8,113,587,113.8L587,113.8z"/>
	<path d="M576.9,93.7c-0.3,0.3-0.6,0.7-1.1,1.2C575.9,93.8,576.3,93.7,576.9,93.7L576.9,93.7z"/>
	<path d="M568.6,104.9c-0.2,0.1-0.3,0.2-0.5,0.4c0,0-0.1-0.1-0.2-0.2c0.2-0.1,0.3-0.2,0.5-0.3C568.5,104.7,568.6,104.8,568.6,104.9z
		"/>
	<path d="M577.4,70.2c1.1-0.1,1.4-0.1,1.8-0.1c0.1,0,0.2,0.3,0.3,0.4c-0.2,0.1-0.4,0.3-0.6,0.3C578.7,70.8,578.4,70.6,577.4,70.2z"
		/>
	<path d="M586.9,113.7c0,0.1-0.1,0.2-0.1,0.3C586.8,113.9,586.9,113.9,586.9,113.7L586.9,113.7z"/>
	<path d="M668.5,65.7c-1,0.5-1,1.6-1.3,2.4c-1.1,3.3-2,6.6-3.1,9.8c-1.3,3.8-2.8,7.6-4.2,11.4c-0.4,1.1-0.7,2.3-1.8,3
		c-0.1-0.2-0.3-0.5-0.2-0.6c3.3-9.4,6.6-18.8,10.2-28.9c0.2,1.5,0.3,2.3,0.3,3L668.5,65.7z"/>
	<path d="M664.9,42.2c0.6-2.5,1.3-3.6,2.9-4.9l-0.1-0.1C666.9,39.7,666.4,40.7,664.9,42.2L664.9,42.2z"/>
	<path d="M668.5,35.8c0.1-1,0.5-1.7,1.5-2.1l-0.1-0.1C669.7,34.5,669.5,35.4,668.5,35.8L668.5,35.8z"/>
	<path d="M671.5,31.5c0.2-0.5,0.4-1,0.6-1.5L672,30C671.8,30.5,671.6,31,671.5,31.5L671.5,31.5z"/>
	<path d="M653.4,62.3c0-0.5,0-1,0-1.6C654.2,61.3,654.1,61.8,653.4,62.3z"/>
	<path d="M663.5,45.1c-0.1-0.7-0.1-1.3,0.7-1.4l-0.1-0.1C664.3,44.3,664.3,44.9,663.5,45.1L663.5,45.1z"/>
	<path d="M664.2,43.7c-0.1-0.7-0.1-1.3,0.7-1.5l-0.1-0.1C665,42.8,665,43.4,664.2,43.7L664.2,43.7z"/>
	<path d="M667.9,37.3c-0.2-0.7-0.1-1.2,0.6-1.5l-0.1-0.1C668.6,36.3,668.4,36.9,667.9,37.3L667.9,37.3z"/>
	<path d="M670.5,32.1c0.1,0.6,0.1,1.2-0.6,1.5l0.1,0.1C670.2,33.2,670.4,32.7,670.5,32.1L670.5,32.1z"/>
	<polygon points="672.1,30.1 672.2,29.9 672,30 	"/>
	<path d="M671.4,31.4c-0.3,0.2-0.6,0.4-0.9,0.7l0.1,0.1C670.9,32,671.2,31.7,671.4,31.4L671.4,31.4z"/>
	<path d="M565.5,351.4c-0.9-0.3-1.8-0.5-2.1-1.5c0.3-0.6,0.8-0.5,1.1-0.1C564.8,350.2,565.1,350.9,565.5,351.4L565.5,351.4z"/>
	<path d="M688.5,28.6c0-0.3,0-0.5,0-0.8c0.5,0,1,0,1.5,0C689.5,28.1,689,28.4,688.5,28.6z"/>
	<path d="M692.2,26.4c-0.5,0.3-1,0.5-1.6,0.8C690.9,26.5,691.6,26.5,692.2,26.4z"/>
	<path d="M692.9,25.7c-0.3,0.3-0.5,0.6-0.8,0.8C692.3,26.2,692.6,26,692.9,25.7z"/>
	<path d="M690.7,27.1c-0.3,0.3-0.5,0.6-0.8,0.8C690.2,27.7,690.5,27.4,690.7,27.1z"/>
	<path d="M176.6,464.4c-1.3,0.7-2.7,1.2-4,2.1c-2.4,1.7-3,3.7-2.1,6.6c0.1,0.4,0.3,0.7,0.7,1.5c-4.2-3.2-4.1-6-1.8-8.7
		c1.4-1.6,3.1-2.8,5.2-2.8c2,0,4.3-0.3,6,1.7C179.3,466,178.3,464.7,176.6,464.4z"/>
	<path d="M295,496.4c2.1,0.3,2.1,0.3,2.8,1.4C296.3,497.5,296.3,497.5,295,496.4z"/>
	<path d="M191.7,465.4c-0.7,0.1-1.3,0.2-2,0.2c-0.2,0-0.4-0.5-0.8-1c1.1,0.1,1.8,0.1,2.6,0.2C191.6,464.7,191.7,465,191.7,465.4z"/>
	<path d="M291.5,494.2c-0.9,0.6-1.3,0.1-1.7-0.5C290.6,493.2,291,494,291.5,494.2z"/>
	<path d="M279.3,462.5c0.6,0,1.1,0,1.8,0C280.4,463.2,279.9,463.2,279.3,462.5z"/>
	<path d="M286.6,464.9c0.1,0,0.2-0.1,0.3-0.1c0,0.1,0.1,0.3,0.1,0.4c-0.1,0-0.2,0-0.3-0.1C286.6,465.1,286.6,465,286.6,464.9z"/>
	<path d="M476.5,441.8c0.7,0.7,1.4,1.4,2.4,2.3C476.6,443.5,476.6,443.5,476.5,441.8z"/>
	<path d="M486.1,449c-0.6,0.3-1.1-0.1-1.5-0.4c-0.1-0.1-0.1-0.4,0-0.6c0.1-0.1,0.4-0.2,0.5-0.2C485.7,448,486.2,448.2,486.1,449z"/>
	<path d="M526,557c0.1,0,0.3-0.1,0.3,0c1.9,1.5,3.5,4,4.4,6.8c-0.2,0-0.5,0.2-0.6,0.1C528.4,561.7,526.7,559.6,526,557L526,557z"/>
	<path d="M559.7,473.8c1.7-0.8,3.4-1.6,5-2.3c0.5-0.2,1.2,0.1,1.1,0.5c0,0.3-0.2,0.7-0.4,0.8c-0.9,0.3-1.7,0.7-2.7,0.8
		C561.7,473.8,560.7,473.7,559.7,473.8L559.7,473.8z"/>
	<path d="M492,476.9c0.9,2.6,0.9,3.3,0.2,5.1C490.8,478.8,490.8,478.3,492,476.9z"/>
	<path d="M497.9,492.1c-0.9-1-0.9-1-0.7-2.3c0.3,0.5,0.6,0.9,0.7,1.3C498,491.4,497.9,491.7,497.9,492.1z"/>
	<path d="M493.3,470.5c0.1,0.3,0.3,0.6,0.3,0.7c-0.2,0.3-0.6,0.6-0.9,0.8c0-0.3-0.2-0.7-0.1-0.9C492.7,470.9,493,470.7,493.3,470.5z
		"/>
	<path d="M526.1,485.3c0.8,0.2,1.4,0.5,1.3,1.6C526.2,486.8,526,486.2,526.1,485.3L526.1,485.3z"/>
	<path d="M553.1,475.1c-0.2,0.1-0.4,0.4-0.5,0.4c-0.2-0.2-0.4-0.4-0.6-0.6c0.2-0.1,0.5-0.2,0.7-0.1
		C552.9,474.7,553,474.9,553.1,475.1z"/>
	<path d="M522.7,482.6c0,0.1-0.1,0.1-0.1,0.2c-0.2-0.1-0.4-0.3-0.6-0.4c0.1-0.1,0.2-0.2,0.2-0.2
		C522.4,482.3,522.6,482.5,522.7,482.6z"/>
	<path d="M510.5,526.5c0.3,1,0.4,1.2,0.5,1.5c0,0.1-0.2,0.3-0.5,0.7C510.5,528,510.5,527.6,510.5,526.5z"/>
	<polygon points="546.8,475.6 547,475.6 546.8,475.7 	"/>
	<path d="M526,556.9c-0.2-0.5-0.4-1-0.6-1.5l-0.1,0.1C525.6,556,525.8,556.5,526,556.9L526,556.9z"/>
	<path d="M499.8,498.4c0.1,0.1,0.4,0.2,0.3,0.3c0,0.2-0.2,0.3-0.3,0.5c-0.1-0.1-0.2-0.2-0.2-0.3
		C499.7,498.7,499.7,498.6,499.8,498.4z"/>
	<path d="M519.6,544.7c-0.2-0.5-0.4-1-0.5-1.5l-0.1,0.1C519.1,543.8,519.3,544.3,519.6,544.7L519.6,544.7z"/>
	<polygon points="513.9,536 513.7,536 513.8,536.1 	"/>
	<path d="M514.6,536.7c-0.2-0.2-0.5-0.4-0.7-0.7l-0.1,0.1C514.1,536.4,514.3,536.6,514.6,536.7L514.6,536.7z"/>
	<polygon points="514.6,536.8 514.7,536.9 514.6,536.7 	"/>
	<path d="M518.2,542.4c-0.1,0-0.2-0.1-0.2-0.1C518,542.4,518.1,542.5,518.2,542.4L518.2,542.4z"/>
	<path d="M519,543.2c-0.3-0.2-0.6-0.5-0.8-0.7l-0.1,0.1C518.4,542.8,518.7,543,519,543.2L519,543.2z"/>
	<path d="M519.5,544.7c0.3,0.2,0.5,0.4,0.8,0.6l0.1-0.1C520.1,545.1,519.9,544.9,519.5,544.7L519.5,544.7z"/>
	<path d="M520.3,545.4C520.7,545.7,520.2,545.2,520.3,545.4L520.3,545.4z"/>
	<polygon points="521.7,547.6 521.5,547.4 521.6,547.6 	"/>
	<polygon points="521.6,547.6 521.9,547.7 521.7,547.6 	"/>
	<polygon points="524.6,554.6 524.5,554.5 524.5,554.7 	"/>
	<path d="M525.4,555.4c-0.3-0.2-0.6-0.5-0.8-0.7l-0.1,0.1C524.8,555,525.1,555.2,525.4,555.4L525.4,555.4z"/>
	<path d="M559.6,473.7c-0.1,0.1-0.2,0.3-0.2,0.4c0-0.1,0-0.2,0-0.2C559.5,473.9,559.6,473.9,559.6,473.7L559.6,473.7z"/>
	<polygon points="526.2,485.2 525.9,485.2 526.1,485.3 	"/>
	<path d="M588,510.6c-0.5-0.9-1-1.8-1.5-2.8c0.4-0.6,0.8-1.1,1.1-1.7c0.2-0.5-0.7-1.4,0.5-1.8c1.1,2-0.3,4.2,0.9,6.2
		C588.6,510.5,588.3,510.5,588,510.6z"/>
	<path d="M470,525.6c1.5-0.4,3,0,4.8-0.2C472,527,471.5,527.1,470,525.6z"/>
	<path d="M477.9,523.8c0.1,0.1,0.2,0.1,0.3,0.2c-0.1,0.1-0.2,0.2-0.3,0.3c-0.1-0.1-0.1-0.2-0.1-0.3
		C477.7,523.9,477.8,523.9,477.9,523.8z"/>
	<path d="M558,528.9c0.1,0.6,0.2,0.9,0.1,1.2c0,0.1-0.3,0.3-0.4,0.4c-0.1-0.2-0.3-0.4-0.3-0.6C557.6,529.7,557.8,529.4,558,528.9z"
		/>
	<path d="M675.7,554.1c0-1,0.1-2,0.1-3c1.7,0.4,2.1,1.1,1.2,1.9c-0.4,0.4-0.9,0.6-1.4,1L675.7,554.1z"/>
	<path d="M658.6,529.8c1,0.6,1.3,1.4,0.9,2.4C658.2,531.7,658.5,530.8,658.6,529.8z"/>
	<path d="M567.5,572.6c-0.6-0.5-1.2-1.1-1.9-1.6c0.6-0.8,1.1-0.4,1.5,0c0.5,0.5,0.4,1.1,0.3,1.7L567.5,572.6z"/>
	<path d="M309.7,459c0.4,0,0.7,0,1.1,0c0,0.1,0,0.2,0,0.3c-0.4,0-0.7,0-1.1,0C309.7,459.2,309.7,459.1,309.7,459z"/>
</g>
</svg>
