<?xml version="1.0" encoding="utf-8"?>
<!-- Generator: Adobe Illustrator 19.2.0, SVG Export Plug-In . SVG Version: 6.00 Build 0)  -->
<svg version="1.1" id="Layer_2" xmlns="http://www.w3.org/2000/svg" xmlns:xlink="http://www.w3.org/1999/xlink" x="0px" y="0px"
	 viewBox="0 0 900 600" style="enable-background:new 0 0 900 600;" xml:space="preserve">
<g>
	<path d="M596.9,297.8c-0.8-0.3-1.5-0.7-2.5-1.1c0.9-1.9,2-3.7,3.4-5.2c1.4-1.3,3.2-2.2,4.8-3.3c-0.4-0.8-0.9-0.4-1.3-0.3
		c-3.3,1.2-6.6,2.2-10,2.7c-1.7,0.3-3.4,0.5-5.2,0.5c-2,0.1-3.9-0.3-5.8,0.6c-1,0.5-2-0.1-2.5-1.1c-0.7-1.4-1.3-2.9-1.8-4.5
		c-0.8-2.5-1.4-5-2-7.5c-0.3-1.2-0.5-2.4-1.8-3.1c-0.4-0.2-0.7-1-0.9-1.6c-0.2-1.1-0.5-2.2-0.4-3.3c0.1-4.1,0.2-8.2,0.4-12.2
		c0.2-5.3,0.3-10.6,0.5-16c0.2-4.7,0.2-9.4,0.6-14.1c0.5-5.4,1.2-10.8,2.1-16.2c0.6-3.9,1.8-7.7,2.6-11.6c1.2-5.7,2.1-11.4,1.9-17.3
		c-0.1-1.8,0.3-3.7,0.6-5.5c0.9-4.6,2-9.2,3.9-13.5c0.4-0.9,0.8-1.7,1.9-2.1c0.6-0.2,1.1-0.9,1.5-1.5c3.4-4.3,7.7-7.4,13.2-8.3
		c6.7-1.1,12.8-3.7,18.5-7.3c2.6-1.7,5.5-2.9,8.2-4.2c2.2-1.1,4.5-2.1,6.7-3.1c4.4-2,7.9-5,10.6-8.9c0-2.8,0-5.6,0-8.3
		c0-0.6-0.3-1.2-0.6-1.7c-2.8-4.3-4.3-9.1-5.8-14c0-0.1-0.1-0.2-0.3-0.6c-2.2-0.8-3.2-2.9-4-5.2c-0.5-1.4-1-2.8-1.4-4.2
		c-0.5-1.5-1.1-3-1.8-4.5c-0.7-1.4-1.1-3-1.5-4.5c-0.3-1.5-0.2-3,0.8-4.2c0.1-0.1,0.1-0.2,0.2-0.3c2-4,1.9-4,1.8-8.4
		c-0.1-2.8,0.1-5.7,0.3-8.5c0.3-4.1,1.1-8.1,1.6-12.1c0.4-3,0.9-6.1,2.9-8.6c0.7-0.9,1-2,1.6-2.9c1.4-2.5,3.3-4.6,6-5.9
		c2.1-1,4.1-2.2,6.4-3c1.8-0.6,3.4-1.3,5.3-0.6c0.4,0.1,0.9-0.2,1.3-0.3c1.5-2.9,2.4-4.1,5-6c0.6-0.4,1.3-0.7,2-0.9
		c3-0.9,6.1-1,9.2-0.6c2.7,0.3,4.9,1.7,6.5,3.9c0.7,0.9,1.8,4.8,1.3,6c-0.7,1.8,0.2,2.7,1.5,3.7c1.6,1.2,3,2.5,4.5,3.9
		c1.9,1.8,3.3,4,4.2,6.5c1.2,3.5,2.2,7.1,2.1,10.9c0,0.6,0,1.2,0.1,1.9c0.3,3.9-0.1,7.9-0.1,11.8c0,1.5,0.1,2.9,0.1,4.4
		c1.7,0.4,1.9-1.8,3.7-1.3c0.3,0.3,1,0.8,1.4,1.5c1.6,2.8,1.9,5.9,1.3,9c-0.2,1.2-1.1,2.2-1.7,3.3c-0.5,0.8-1.3,1.6-1.5,2.5
		c-0.5,2.8-2.3,4.5-4.3,6.3c-0.5-0.3-1-0.6-1.5-0.9c-0.2,0.1-0.5,0.2-0.6,0.4c-0.7,2.6-1.5,5.2-2.2,7.9c-0.4,1.4-0.5,3-1.1,4.3
		c-1,1.9-1.5,3.9-1.9,6c-0.8,4-0.6,8.1-0.5,12.2c0,1.6,0.8,2.9,2.1,3.7c2.8,1.6,5.5,3.3,8.3,4.9c2,1.1,4.1,1.8,6.1,2.8
		c3.4,1.7,6.9,3.4,10.2,5.4c4.6,2.8,9.4,4.9,14.8,5.7c5,0.8,9.5,2.8,13,6.5c0.7,0.7,1.3,1.5,1.9,2.3c0.3,0.4,0.5,1,0.9,1.1
		c2.5,0.7,2.8,2.9,3.5,4.8c1.6,4.4,2.7,9,3.5,13.7c0.2,1,0.2,2,0.2,3c-0.2,5.9,0.7,11.6,1.9,17.3c0.3,1.5,0.1,3.2,1.5,4.5
		c0.3,0.3,0.3,0.9,0.3,1.4c0.3,4.1,0.8,8.1,0.5,12.2c-0.2,2.6,0.3,5.2,0.6,7.8c0.7,6.3,1.5,12.5,0.6,18.9c-0.6,4.7,0,9.4,1,14
		c1.6,7,0.2,13.6-2.2,20c-1,2.7-2.8,5.2-4.3,7.8c-0.3,0.5-1.1,1-1.8,1.1c-2.7,0.4-5.4,0.7-8.1,0c-2.2-0.5-4.4-0.8-6.6-1.1
		c-3-0.4-5.7-1.4-8.5-2.3c-7.1-2.4-13.7-5.7-20.2-9.4c-0.5-0.3-1.1-0.4-1.7-0.7c-1,2.3-0.8,4.3,0.7,6.1c1.8,2.3,3.6,4.7,5.4,7.1
		c1,1.4,2.2,2.7,3.1,4.2c2.1,3.5,4.2,7,6.2,10.5c1,1.7,1.9,3.5,2.8,5.2c2,4.1,3.9,8.3,5.9,12.6c-0.2,0.5-0.4,1.2-0.6,1.9
		c1.5,1.8,3.2,3.5,5,4.9c3.6,2.9,7.3,5.6,10.5,8.9c7.1,7.2,14,14.7,20.9,22.1c2.8,3,5.1,6.4,7.6,9.6c0.5,0.6,0.9,1.2,1.3,1.8
		c3.1,6,6.8,11.8,9.2,18.2c1.3,3.5,2.9,6.8,4.1,10.3c1.1,3.3,1.8,6.7,2.7,10c0.3,1.1,0.6,2.2,0.7,3.3c0.6,4.1,2.6,7.4,5,10.6
		c2.9,4,4.3,8.6,6,13.1c0.2,0.4,0.2,1.1,0,1.4c-0.6,1.1-0.3,2.2-0.2,3.3c0.2,2.8,0.6,5.7,0.7,8.5c0.2,7.9,0.1,15.8-0.6,23.8
		c-0.1,1-0.2,2-0.2,3c0,8.1-0.8,16.1-1.9,24c-0.2,1.2-0.2,2.5-0.3,3.7c-0.1,1.5,0,2.9,0.9,4.2c0.8,1.3,0.9,2.8-0.3,4.1
		c-0.3,0.3-0.6,0.8-0.7,1.3c-0.5,1.6,0.4,3.1,1.9,3.4c0.6,0.1,1.2,0.2,1.8,0.2c1.6-0.1,2.6,0.7,3.2,2.1c0.2,0.5,0.5,0.9,0.6,1.3
		c1.9,5.7,5.1,10.7,8.3,15.7c2.7,4.3,5.2,8.7,8.3,12.7c0.9,1.2,1.4,2.8,2.3,4.5c2.4,1.6,5,3.4,7.5,5.1c1,2.1,2,3.9,2.9,5.8
		c0.8,1.8,1.7,3.6,2.4,5.4c0.3,1,0.6,2.3,0.3,3.2c-0.7,2.1-0.6,4.1,0.3,5.9c-0.7,1.7-1.9,2.3-3.2,2.7c-3.6,0.9-7.2,1.8-10.8,2.6
		c-0.1,0-0.2,0.1-0.4,0.1c-6.7,0.1-13.4,0-19.8-2.4c-3.8-1.4-7.1-3.6-9.9-6.4c-2.6-2.6-4.4-5.7-3.6-9.6c0.2-0.9,0-1.7-0.4-2.5
		c-0.6-1.2-1.1-2.4-1.6-3.5c-0.3-0.1-0.5-0.2-0.6-0.2c-2.8,0.5-5.4-0.2-7.9-1.3c-2.4-1.1-4.7-2.1-7.1-3.3c-1.3-0.7-2.5-1.6-3.3-2.9
		c-0.6-0.9-0.9-1.8-0.3-2.8c1-1.5,1.4-3.1,1.6-4.9c0.1-0.8,0.5-1.6,0.9-2.4c1.1-2.5,1.8-5.1,2-7.9c0.1-1.1,0.1-2.2,0.7-3.2
		c0.3-0.6,0.2-1.4,0.2-2.2c0.1-2.1,0.2-4.2,0.2-6.3c0-1.9,0.8-3,2.7-3.5c0.2-0.1,0.4-0.2,0.8-0.4c-0.2-1.1-0.4-2.3-0.7-3.7
		c-0.8-0.1-1.6-0.3-2.4-0.3c-7.6,0.2-15.1,0.4-22.7,0.6c-14.1,0.3-28.2,0.6-42.3,1c-14.2,0.4-28.5,0.9-42.7,1.3
		c-13.4,0.4-26.7,0.6-40.1,1c-14.4,0.4-28.7,0.9-43.1,1.3c-13,0.4-26,0.6-39,0.9c-7.7,0.2-15.3,0.5-23,0.7c-0.4,0-0.7,0.1-1.3,0.2
		c-0.3,0.6-0.8,1.3-1.1,2.1c-0.7,2-1.3,4-1.9,6c-0.1,0.3-0.1,0.7-0.2,1.1c-0.2,1.2,0.6,2.4-0.1,3.6c-0.6,1-1.1,2.1-1.7,3.2
		c-1.1,0.5-1.8-0.4-2.8-0.7c-0.4-1.1-1-2.1-1.1-3.1c-0.1-1,0.4-2,0.6-3.3c-3.8-0.7-7.3,0-10.8,0.6c-1.1,0.8-1.2,2.1-1.8,3.2
		c-0.7,1.3-1.4,1.6-2.7,1c-1.9-1-3.8-0.6-5.7-0.1c-0.3,0.1-0.5,0.7-0.7,1c0.5,0.9,1.1,0.6,1.7,0.6c4.1-0.4,8.2,0,12.2,1
		c1.5,0.4,3,1,4.5,1.7c0.5,0.2,1.1,0.7,1.4,1.2c0.2,0.3,0.2,0.9,0,1.4c-0.1,0.3-0.6,0.6-0.9,0.5c-1.1-0.1-2.2-0.4-3.3-0.6
		c-4-0.8-8.1-1.3-12.2-1.1c-1.1,0-2.2,0.1-3.1,1.4c1,0.1,1.9,0.2,2.7,0.2c3.6,0.1,7.2,0.4,10.6,1.4c1.2,0.3,2.3,0.9,3.4,1.4
		c0.5,0.3,0.5,0.3,0.5,1.9c-1.5,0.9-3.1,0.4-4.7,0.2c-2.6-0.2-5.2-0.6-7.7-0.8c-1.6-0.1-3.2-0.1-4.8,0c-1.7,0.2-2.9-0.2-3.9-2.2
		c-0.6,2.4-1.2,4.2-1.6,6.1c-0.5,1.8-0.9,3.5-2.5,4.8c-0.7,0.6-1,1.7-1.5,2.5c-1.6,2.7-3.1,5.3-4.7,8c-0.8,1.3-1.7,2.3-3.2,3
		c-0.7,0.3-1.3,1.1-1.9,1.7c-0.9,1-1.4,2.3-2.7,3c-0.4,0.2-0.7,0.7-0.8,1.1c-2.1,5.2-2.6,10.5-1.5,15.9c1.7,1,3.5,1.2,5.1,1.2
		c4.5,0.1,8.9-0.1,13.4-0.2c0.3,0,0.6-0.3,1.1-0.6c-2-2.4-4-4.5-6.3-6.3c-2,0-3.7,0.7-5.3,1.8c-1.5,1-2.9,2.3-4.3,3.4
		c-1.3-1-1.4-1.4-0.9-2.1c1.9-2.5,4.4-3.9,7.4-4.7c1-0.2,1.9-0.3,3.2-0.5c3.7,1.9,6.3,5.2,8.6,8.7c2.7,0.7,5.4,0.6,8.1,0.8
		c2.5,0.1,4.6-0.7,6.4-2.3c0.4-0.3,0.8-0.6,1.1-0.8c0.1-2.2,0.1-4.2,0.2-6.1c0.1-1.2,0.2-2.5,0.3-3.7c0.3-2.6,0.7-5.1,1.2-8.1
		c0.4-0.7,1.6-0.9,2.6-1.2c3.6-1.2,6.6-3.3,9.4-5.9c-1-2-0.6-3.9-0.5-5.9c0.1-2,0.4-3.9,0.4-5.9c0-1.2-0.2-2.4-0.3-3.7
		c-0.3-4.1-0.8-8.1,0.8-12.1c0.7-1.7,0.6-1.8-0.3-4.6c1.2-0.7,1.8-0.7,2.4,0.2c0.8,1.3,0.9,2.7,0.4,3.9c-1.1,2.9-1,5.8-0.9,8.8
		c0.1,1.5,0.1,3-0.1,4.5c-0.5,4.6,0.3,9.1,0.5,13.7c0,0.6,0.3,1.2,0.5,1.9c-3.9,3.3-7.4,7.2-13,8.1c-0.4,3.5-0.8,6.8-1.2,10.1
		c-0.2,2.1-0.1,4.2,0.8,6.2c0.3,0.6,0,1.4,0,2.1c-0.8,0.1-1.4,0.1-2.1,0.2c-0.8,2.6-2.9,3.4-5.4,3.6c-1.6,0.1-3.2,0.1-4.8,0.1
		c-2.6,0-5.2-0.2-7.8-0.2c-6.6,0-13.1-0.5-19.5-1.5c-0.3,0.1-0.6,0.2-0.8,0.3c-0.6,0.6-1.2,1.4-2.2,1.1c-1.1-0.3-1.4-1.3-1.6-2.3
		c0-0.2-0.1-0.5-0.1-0.7c0.6-5.5,0.8-11.1,2.6-16.5c0.5-1.4,0.5-3.3,2.7-3.5c0.2,0,0.5-0.6,0.6-0.9c1.1-3,3.1-5.3,5.6-7.3
		c2.2-1.8,3.5-4.1,4.4-6.6c-0.7-1-1.7-0.6-2.5-0.6c-2.3-0.3-4.7-0.4-6.7-1.8c-0.3-0.2-0.7-0.3-1-0.3c-1.8-0.4-2.1-0.8-1.4-2.2
		c0.4-0.9,1-1.7,1.5-2.5c0.9-1.2,1.8-2.4,2.8-3.7c-0.7-2.6-1-5.3-0.2-8.2c2.5-1.2,3.9-3.7,5.7-5.9c2.1-2.6,4.2-5.2,6.3-7.8
		c0.5-0.6,1-1.2,1.6-1.6c0.5-0.4,1.3-0.5,1.9-0.7c-0.2-0.5-0.3-0.8-0.4-1.2c0.1-0.2,0.2-0.4,0.4-0.5c0.8-0.6,1.6-1.2,2.4-1.7
		c2.8-1.7,5.7-2.8,8.9-1.1c1.2,1.1,0.7,3,2.3,3.8c0.8-0.5,1.2-1.2,1.1-2.2c-0.2-1.7,0.2-3.1,1.5-4.4c0.7-0.7,0.9-2,1.2-3
		c1.9-7.6,3.7-15.1,5.6-22.7c2.8-11.4,5.5-22.8,8.2-34.3c1.3-5.8,3.9-10.9,7.4-15.6c4.7-6.4,9.7-12.5,15.2-18.2
		c3.2-3.2,4.7-7,5.6-11.4c2.1-10.5,5-20.7,10-30.2c3.5-6.6,6.3-13.4,10.2-19.8c4-6.7,7.8-13.6,12.2-20c3.3-4.9,6-9.9,7.7-15.5
		c1.2-4.1,2.8-8.2,4.2-12.3c1.2-3.4,3.1-6.4,5.3-9.3c0.8-1.1,1.9-1.5,3.2-1.2c-0.5,0.9-0.8,1.8-1.4,2.5c-1.9,2.2-2.8,4.8-3.4,7.8
		c0.9,0.1,1.8,0.2,2.6,0.2c2.6,0,5.2-0.1,7.7,0.1c1.6,0.1,3.4-0.1,4.7,1.4l0.1-0.1c-2.6-0.1-5.2-0.2-7.8-0.2c-2.7,0-5.4-0.3-8.1,0.2
		c-0.8,1.9-1.4,3.6-2.2,5.3c-0.4,0.8,0,1.3,0.2,1.6c-2,1.8-2.3,4.2-2.9,6.6c0.8,0.2,1.4,0.5,1.9,0.5c1.6,0,3.2,0.1,4.8-0.1
		c3.8-0.5,7.4,0.2,10.9,1.4c9.2,3.3,17.6,7.9,24.3,15.3c0.9,1,1.8,1.9,3.1,2.6c5.2,3,8.5,7.4,10.5,13.1c1.9-1.4,4-2.6,5.4-4.8
		l-0.1,0.1c2.8-1.2,5.7-2,8.8-2.2c1.7-0.1,3.4-0.4,5.1-0.6c1.7-0.2,3.4-0.5,5.1-0.7c0.9-0.1,1.9,0,2.4,0.8c0.9,1.7,2.6,2.1,4.1,3
		c1.4,0.8,2.6,1.7,3.5,3.2c7.8,13.3,18.4,24.2,30.3,33.8c0.5,0.4,1,0.9,1.5,0.9c1.6,0,2.5,1,3.5,1.9c3.3,2.8,7,5.1,10.7,7.3
		c0.4,0.2,0.8,0.6,1.3-0.1c-0.7-1.4-1.5-2.8-2.2-4.2c-0.6-1.4-2-2.6-1.1-4.6c0.6,0.5,1.2,0.8,1.5,1.3c1.8,3.1,3.9,6,4.2,9.8
		c1.5,0.8,2.9,1.6,4.3,2.4c2.3,1.3,4.5,2.6,6.8,3.9c4.3,2.6,8.7,5.2,13,7.9c1.8,1.1,3.5,2.3,5.2,3.5c1.4,1.1,2.4,2.5,2.7,4.3
		c0.1,0.6-0.1,1.2-0.1,1.7c-0.6,0.1-1.1,0.1-1.7,0.2c0.1,6.1,0.4,12.2-0.3,18.2c-0.4,3.7,0.2,7.4,2.8,10.5c0.5,0.6,0.7,1.3,1.1,1.9
		c2.7,4.7,5.4,9.4,8.1,14.2c1.1,1.9,2.3,3.9,3.2,5.9c0.6,1.2,1.1,2.6,1.1,3.9c0,2.3,0.6,4.4,1.5,6.4c2.7,6.1,4.2,12.4,4.3,19.1
		c0,0.6,0.2,1.2,0.3,1.7c4.8,0.6,10.9,0.3,14.5-0.9c0.2-0.6,0.5-1.3,0.6-2c0.4-2.8,0.8-5.6,1-8.5c0.5-8.6,1-17.3,1.5-26
		c0.1-1.4,0.2-2.7,0.3-4.1c0.2-4.2,0.6-8.4,0.4-12.6c-0.1-4.1-0.8-8.1-1.4-12.2c-0.5-3.4-1.1-6.8-1.6-10.3c-0.3-1.8-0.9-3.3-1.9-4.8
		c-1.4-2.2-2.6-4.5-3.9-6.7c-0.5-0.8-0.9-1.8-1.6-2.4c-1-0.9-1.4-2-1.6-3.3c-0.5-3.1-1-6.1-1.5-9.2c-0.2-1.3-0.6-2.6-1.1-3.9
		c-1.5-3.9-3.2-7.8-4.6-11.8c-1.2-3.5-2.9-6.8-5.1-9.8c-3.9-5.3-7.6-10.7-11.8-15.8c-5.5-6.7-11.3-13.1-17-19.7
		c-4.6-5.3-9.2-10.7-14.4-15.5c-1.6-1.5-2.9-3.3-4.4-5c-0.5-0.6-1.1-1.3-1.5-1.8c-2.1-0.3-3.7,0.2-5.2,1.1
		c-3.9,2.1-7.9,4.1-11.8,6.3c-9.2,5.3-17.6,11.5-24.6,19.6c-0.9,1-1.9,2-2.8,2.9c-0.6,0.6-1.3,1.1-2.1,1.6c-0.4,0.3-0.9,0.3-1.1-0.4
		c2.7-2.9,5.3-5.9,8-8.7c2.4-2.5,4.9-4.9,7.6-7.1c6.8-5.7,14.4-10.1,22.2-14.1c1.8-0.9,4-1.5,5.3-3.3c0.3-0.3,0.9-0.4,1.3-0.6
		c0.6-0.3,1.3-0.5,1.9-0.8c-2.3-4.5-4.4-8.8-6.7-13.1c-2.3-4.3-4.5-8.7-7.7-12.4c-0.3,0.2-0.4,0.2-0.5,0.3c-1.8,4.1-5.1,6.4-9.1,8.2
		c-3.8,1.7-7.7,3.2-11.4,5.3c-5.4,3.1-11.4,4.9-17.7,4.9c-10.8,0-21.5-0.1-32.2-1.8c-5.5-0.9-10.9-2.1-16.1-4.4
		c-1.1-0.5-2.3-0.9-3.5-1.2c-5.9-1.3-9.9-4.9-12.3-10.3c-0.4-0.9-0.9-1.7-1.4-2.8c-1.4,1.1-2.1,2.4-2.9,3.6
		C599.7,294.6,598.6,296.5,596.9,297.8z M515.1,519.8c0.2-0.1,0.4-0.2,0.5-0.4c0.1-0.1-0.1-0.3-0.2-0.5c-0.1,0.1-0.1,0.2-0.1,0.3
		C515.2,519.4,515.2,519.6,515.1,519.8c-0.2,0.6-0.4,1.1-0.6,1.7c-1.5-0.2-1.2-2-2-2.6c-3.4-0.1-6.6-0.2-10.3-0.2
		c-2,0.7-3.3,2.5-3.7,5.2c1.1-0.3,2.1-0.6,3-0.8c0.9-0.2,1.6,0.6,2.3,1c0.4,0.2,0.9,0.3,1.4,0.3c0.7,0.1,1.5,0.1,2.2,0
		c2.5-0.2,4.4,1.5,4.7,4.2c0.1,0.6,0.2,1.2,0.3,2c0.6-0.2,1-0.4,1.5-0.5c-0.4-3-0.2-5.8,0.4-8.5
		C514.6,520.8,514.9,520.3,515.1,519.8z M694.8,78.3c0.7,0.1,1.5,0.3,1.4-1.3c-0.6,0.6-0.9,1-1.3,1.4c-0.1,0.2-0.3,0.3-0.4,0.5
		c-0.1,0.1,0,0.2,0,0.3c0.1-0.1,0.4-0.2,0.4-0.3C694.9,78.7,694.9,78.5,694.8,78.3z M690.5,66.5c0.3-0.3,0.7-0.5,1-0.9
		c0.1-0.1-0.1-0.5-0.2-0.8c-0.2,0.1-0.5,0.2-0.6,0.4C690.6,65.7,690.6,66.1,690.5,66.5c0,0.1-0.1,0.1-0.2,0.1c0,0,0,0.1-0.1,0.2
		C690.3,66.7,690.4,66.6,690.5,66.5z M678.7,214.4c0,0.1,0,0.2,0.1,0.3c0,0,0.1,0,0.2,0C678.9,214.6,678.7,214.6,678.7,214.4
		c-1.4-0.9-2.9-0.4-4.4,0C675.8,214.4,677.2,214.4,678.7,214.4z M635.6,96.3c0-0.1-0.1-0.2-0.1-0.3c0,0-0.1,0-0.2,0
		C635.4,96.1,635.5,96.1,635.6,96.3c0.1,2.8,0.1,2.8,1.5,4.8C637.3,99.1,636.8,97.6,635.6,96.3z M696.6,86.7c-0.5,0.3-1.3,0.6-1.4,1
		c-0.4,1.6-1.1,2.9-2.8,3.7c-0.5,0.2-0.9,1.1-1.1,1.8c-0.2,0.4-0.1,1,0.1,1.4c0.2,0.4,0.7,0.5,1,0.8c0.4-0.3,0.6-0.4,0.7-0.6
		c1.8-2.4,2.4-5.4,3.4-8.2c0.8-0.3,1.2-0.9,1.2-1.7c0-1.6,0.5-3.4-0.5-5.1c-1.4,1-2.3,2.1-2.8,3.6C695.4,84.4,696.4,85.3,696.6,86.7
		z M486.1,532.4c0.8-0.6,1.5-1.3,2.3-1.7c0.8-0.4,1.8-0.6,2.9-0.9c1.1-2.3,2.3-4.7,3.5-7.1c0-0.1-0.1-0.2-0.2-0.3
		c-1-0.1-1.5,0.7-2,1.3c-2,2.5-4,5-5.9,7.5C486.4,531.5,486.4,532.1,486.1,532.4c-2.5,2.3-3.7,5.4-5,8.4c-0.3,0.6-0.7,1.3,0,2
		c0.8,0.2,1-0.3,1.3-0.9c1.1-2.7,2.3-5.4,3.4-8.1C486,533.4,486,532.9,486.1,532.4z M481,524.3c-1,1.1-2,2.1-2.9,3.3
		c-2.2,2.8-4.4,5.6-6.7,8.6c-0.1,1.6-0.1,1.6,0.6,3.1c0.2-0.1,0.5-0.2,0.6-0.4c3.1-4.2,5.7-8.7,8.2-13.3
		C480.9,525.3,480.8,524.7,481,524.3c0-0.1,0.1-0.1,0.2-0.1c0.1,0,0.1-0.1,0.1-0.2C481.2,524.1,481.1,524.2,481,524.3z M666.7,44.9
		c1-0.4,1-1.3,1.3-2.1c0.7-1.7,1.3-3.5,1.9-5.2c0.2,1,0.1,1.9-0.1,2.9c-0.2,1.1-0.4,2.1-0.8,3.9c2.3-3,3.5-5.7,3.6-8.9
		c0-0.2-0.2-0.4-0.3-0.7c-1-0.4-2-0.9-3.3-0.3c-0.2,0.6-0.4,1.3-0.7,2c-0.3,0.9-1,1-1.7,1.1c0.1-1.1,0.6-2.2-0.5-3.4
		c-0.6-0.1-1.5-0.3-2.3-0.4c-0.7-0.1-1.2,0.1-1.6,1.1c0.9,1.7,0.5,3.6,0.3,5.5c-0.3,3.1-0.7,6.1-0.3,9.2c0,0.2-0.2,0.4-0.4,0.7
		c-1.7-1.6-4-0.6-6.1-1.2c-2.2-2.8-3.5-6.4-5-9.7c-0.1-0.3,0.3-0.8,0.5-1.3c0.1,0,0.1,0.1,0.2,0.1c-0.1,0-0.2,0-0.2,0
		c0.3-1.3,0.2-2.4-0.7-3.7c-0.6,0.1-1.3,0.2-2.1,0.4c0.4,2.6,0.7,5,2,7.2c0.3,0.5,0.6,1.2,0.5,1.7c-0.3,1.2,0.3,1.9,0.8,2.7
		c0.5,0.8,1.4,1.3,1.4,2.7c-1.6-0.7-2-2.2-3.1-2.9c-1.8-1.1-2.2-2.9-2.6-4.7c-0.2-1.1-0.2-2.2-0.3-3.3c-0.1-0.7-0.2-1.5-1.2-1.7
		c-1,0.4-1.8,1.2-2.2,2.3c-0.5,0.1-1,0.1-1.4,0.4c-0.3,0.3-0.6,0.8-0.6,1.2c0,0.6,0.1,1.2,0.3,1.8c0.2,0.4,0.5,0.9,0.8,1.2
		c0.3,0.4,0.6,1,1.3,0.8c-0.2-1.9-0.3-3.7-0.4-5.5c1.7,2.3,1.8,5,2.5,7.6c-0.5,0.6-0.9,1.2-1.4,1.9c-1.6-2-3-3.9-4.8-6.3
		c0.4,1.4,0.6,2.2,0.9,3c0.3,0.7,0.7,1.3,1.1,1.9c0.4,0.7,1.3,1.1,1,2.3c-1.4,0-1.8-1.2-2.6-1.8c-0.9-0.7-1.3-2.1-2.5-2.4
		c-1.1,1.2,0.1,2.3-0.2,3.6c-0.7,0.5-1.8,1-1.8,2.5c0.5,0.8,1.1,1.7,1.7,2.6c0.1,0.1-0.1,0.4-0.2,0.6c-0.5-0.1-0.9-0.2-1.6-0.3
		c0,0.6-0.1,1.2,0,1.8c0.2,1.1,1,2,0.6,3.2l0.1-0.1c-0.6-0.5-1.3-1-2-1.5c-0.4,1.4,0.3,2.5,0.7,3.6c0.5,1.5,1.4,2.9,1,4.6
		c0,0.1,0.5,0.4,0.7,0.6c0.6-0.2,0.4-1.5,1.5-0.8c0.1,0.9,0.2,1.9,0.4,2.9c0.2,1.2-0.2,2.1-1.3,2.8c-1.3,0.7-2,2-1.9,3.4
		c0,3.4-0.7,6.8,0,10.3c0.3,1.5,0.3,3,0.3,4.4c0,1.5,0.3,2.9,1,4.3c1.6,3.5,3,7.1,3.6,10.9c0.7,4.1,2.6,7.7,4.4,11.4
		c1.3,2.6,3.3,4.6,5.8,6.1c1.5,0.8,3,1.8,4.5,2.6c2.5,1.5,5.2,2.2,8.1,2.3c2.2,0.1,4.1-0.7,6.2-1.2c6-1.5,10.4-5,13.2-10.5
		c2.5-5,3.9-10.4,5.2-15.8c0.8-3.6,1.4-7.3,3-10.7c0.6-1.3,0.9-2.6,0.7-4c-0.2-2.6,0.1-5.2-1.2-7.6c-0.3-0.5-0.2-1.2-0.2-1.8
		c-0.1-2.3-0.1-4.6-0.2-7c-0.5-0.5-0.9-0.8-1.3-1.3c-0.4-0.5-0.7-1-1-1.4c0.4-1.8,1-3.3,2.1-4.4c1.1-1.1,1.2-2.2,0.6-3.6
		c-0.7,1.1-0.7,2.7-2.3,3.2c-0.6-1.6-0.3-3,0.3-4.4c0.5-1.3,1.1-2.5,1.4-3.8c0.5-1.7,0.2-3.4-1-5.1c-0.5,2.9-0.9,5.4-1.4,8.6
		c-0.3-1.5-0.3-2.4-0.6-3.1c-0.4-0.8-1.1-1.5-1.6-2.1c0-1.3,0-2.3,0-3.7c-1,0.9-1.8,1.6-2.7,2.2c0,0-0.2-0.1-0.4-0.2
		c0.1-0.6,0.2-1.3,0.3-2c0.3-0.3,0.7-0.6,1-1c0.4-0.6,0.6-1.5,1.5-1.5c1.2,0,1.1,1.1,1.5,1.8c0.1,0.1,0.4,0.2,0.6,0.2
		c0.8-1.8,1-2.1,0.2-3c-1.1-1.3-2.3-2.6-3.6-3.7c-0.4-0.4-1.1-0.4-1.8-0.7c-0.3,1-0.6,1.8-0.8,2.6c-1.4,0.7-1.9,2.2-2.8,3.4
		c-0.4,0.6-0.9,1-1.3,1.6c-0.2-0.3-0.4-0.4-0.4-0.4c0.4-3.2,3.3-5,4.3-7.7c-0.4-0.8-0.7-1.4-1.7-1.1c-0.4,0.9-0.8,1.9-1.3,2.9
		c-0.8,1.9-1.7,3.8-3.2,5.4c-0.2,0.2-0.5,0.9-1.1,0.1c1.5-2.2,3.4-4.2,3.4-7.5c-1.5,2.6-2.8,4.9-4.2,7.1c-0.2,0.4-0.6,0.9-1.3,0.2
		c1.1-2,2.2-4,3.4-6c0.7-1.2,1.2-2.4,1.1-3.8c0-0.2-0.5-0.5-0.8-0.6c-0.1-0.1-0.5,0.1-0.6,0.3c-0.2,0.3-0.4,0.7-0.4,1
		c-0.3,3.2-1.9,5.8-3.5,8.5c-1.2,2-2.6,3.6-4.8,4.4c-0.8-0.3-1.6-0.7-2.4-1c0.2-8.1,0.2-8.1,1.3-10.4c0.2,0.6,0.4,1.1,0.7,1.8
		c0.5-0.9,0.9-1.7,1.3-2.5C666.8,40,666.8,42.5,666.7,44.9c-0.1,0.3-0.2,0.5-0.1,0.3C666.6,45.5,666.6,45.2,666.7,44.9z M674.2,31.6
		c0.4,0.2,0.8,0.7,1.2,0.7c1.3,0.1,2.3,0.7,3.3,1.5c0.1,0.1,0.3-0.1,0.6-0.2c-0.4-0.9-0.7-1.7-1.1-2.5
		C676.6,30.6,675.4,31.5,674.2,31.6c0.4-0.3,0.7-0.8,1.2-1.2c0.5-0.4,1.5-0.1,1.7-1.2c-0.3-0.3-0.6-0.6-0.9-1
		c-1.1-1.2-2.7-1-4.1-1.4c-3.9-1.2-7.3-0.3-10.3,2.4c-0.4,0.4-1,0.8-0.5,1.6c1.3,0.1,2.6,0.2,4.1,0.3c0.9-1.5,1.9-2.9,3.7-3.5
		c0.5-0.2,1-0.6,1.5,0.1c-0.9,0.7-1.7,1.4-2.5,2.2c-0.3,0.3-0.7,0.7-0.1,1.4c1.1-0.5,1.9-2,3.4-1.7l-0.1-0.1c-0.6,0.6-1.4,1-1.2,2.1
		C671.4,32.4,672.8,32.2,674.2,31.6z M793.8,507.2c-1.7,0.3-3.4,0.7-5.1,0.8c-3.7,0.2-7.4,0.1-11.1,0.2c-12.7,0.4-25.5,0.8-38.2,1.1
		c-12.3,0.3-24.5,0.6-36.8,0.9c-5,0.1-9.9,0.1-14.9,0.3c-12.7,0.3-25.5,0.8-38.2,1.1c-12.3,0.3-24.5,0.6-36.8,0.9
		c-5.1,0.1-10.2,0.1-15.2,0.3c-12.9,0.3-25.7,0.7-38.6,1.1c-12.7,0.3-25.5,0.6-38.2,0.9c-4.5,0.1-8.9,0.1-13.4,0.3
		c-1.9,0.1-3.7,0.1-5.2-1.4c-0.4-0.4-0.9,0-0.9,0.6c0.7,0.8,1.5,1.6,2.2,2.4c1.6,0.6,3.1,0.7,4.8,0.7c10.9-0.3,21.8-0.6,32.7-0.9
		c6.4-0.2,12.9-0.3,19.3-0.4c12.1-0.3,24.3-0.7,36.4-1c6.3-0.2,12.6-0.3,18.9-0.4c12-0.3,24-0.7,36-1c6.1-0.2,12.1-0.2,18.2-0.4
		c12.5-0.3,25-0.7,37.5-1.1c6.4-0.2,12.9-0.3,19.3-0.5c16.5-0.4,32.9-0.9,49.4-1.3c4.6-0.1,9.2-0.3,13.7-0.5c1.4,0,2.7-0.3,3.7-1.3
		c0.3-0.3,0.3-0.9,0.4-1.3c0.8,0.3,1.6,0.2,2.2-0.4c-0.2-0.7-0.6-0.9-1.1-0.5C794.4,506.5,794.1,506.8,793.8,507.2z M701.6,150.6
		c0.3-2.7-0.8-5.1-1-7.6c-0.9-0.4-1.6-0.8-2.4-1.1c-0.1,0.5-0.3,0.7-0.2,0.9c0.7,2.1,1.4,4.2,2.2,6.3c0.2,0.6,1,1,1.5,1.5
		c0.1,3.5,0.2,6.9,0.3,10.4c0.1,2.6,0.2,5.2,0.1,7.8c-0.2,3.9-0.9,7.8,0,11.8c0.1,0.3,0,0.7-0.1,1.1c-0.4,2.7-0.6,5.4-1.2,8.1
		c-0.3,1.7-0.9,3.4-1.6,4.9c-1.4,2.8-2.9,5.4-4.4,8.1c-1.7,3.2-3.7,6.2-7,8c-0.2,0.1-0.3,0.4-0.6,0.8c0,1.3,1.3,2.6,0.6,4.1
		c-0.8,1.7,0.6,3.1,0.3,4.7c-0.1,0.7,0,1.5-0.3,2.2c-0.9,2.7-2,5.3-3.1,8.3c0.5,1.5,1,3.3,1.4,4.7c2.7,1.8,5,3.4,7.5,4.8
		c2.4,1.4,4.8,3,7.4,3.9c0.3,0,0.4,0,0.5-0.1c4.3-1.5,7.1-4.8,10-8c0.3-0.3,0.4-0.9,0.5-1.4c0.4-2.9,2.1-5.2,3.7-7.6
		c-0.5-7.7-0.2-15.5,0.3-23.4c-0.5-0.5-0.9-1.2-1.5-1.6c-2.6-2-3.9-4.7-4.9-7.7c-1.8-5.1-3.3-10.3-3.9-15.8
		c-0.3-2.6-0.4-5.2-0.7-7.8c-0.9-6.4-1.9-12.7-2.9-19.1C702.2,151.4,701.8,151,701.6,150.6z M797.5,534.8c-1.5,0-3,0-4.4-0.1
		c-0.9-0.1-1.6-0.9-1.7-1.7c-0.1-0.8,0.4-1.8,1.3-2c1.2-0.3,2.4-0.5,3.6-0.6c3.1-0.2,6.2-0.3,9.3-0.5c0.6,0,0.9-0.3,0.5-1.1
		c-2.4,0-4.8-0.1-7.3-0.1c-2.3,0-4.7-0.3-6.9,0.7c-1,0.4-2.1-0.2-2.4-1.1c-0.3-0.8,0-1.8,0.8-2.3c0.6-0.4,1.3-0.8,2-0.9
		c1.2-0.2,2.5-0.3,3.7-0.2c2.3,0.2,4.7,0.5,7,0.8c0.6,0.1,1.2,0,1.8,0c0.1-2-1.4-3-2-4.5c-0.6-1.6-1.2-3.2-1.8-4.8
		c-3.4,0.1-6.4-1.4-10.1-0.7c-0.8,0.8-2.2,1.6-2.8,2.9c-0.6,1.2-1.4,2-2.4,2.6c-2.3,1.3-4.2,3-5.6,5.3c-0.2,0.4-0.7,0.6-1.1,0.9
		c-1.7-1.1-2.3-2.6-2.4-4.5c-0.1-1.8,0.2-3.6-0.2-5.4c-1.2,0-1.8,0.5-2,1.5c-0.1,0.6,0,1.2,0,1.9c0,4.1,0.4,8.2-1.4,12
		c-0.2,0.3-0.1,0.7-0.2,1.1c-0.4,2.7-1.1,5.3-2.2,7.8c-0.8,1.8-1.2,3.7-1.3,5.8c1.8,1.5,3.8,2.3,5.9,3.2c2.1,1,4.4,1.7,6.5,2.8
		c2,1.2,4.4,0.6,6.3,1.4c1.2,2,2.2,3.8,3.3,5.6c0.9,1.5,0.8,1.8-1.1,3.2c-0.2,0.1-0.3,0.4-0.5,0.8c0.3,0.6,0.5,1.3,0.8,1.9
		c1.3,2.4,3.8,3.9,4.9,6.5c0.1,0.3,0.6,0.5,0.9,0.7c3.9,2.2,8,3.9,12.5,4.3c6.2,0.5,12.4,0.4,18.5-0.7c1.8-0.3,3.7-0.5,5.1-1.7
		c0.8-6.9,0.7-7.5-1.5-13.2c-1.1-2.8-2.6-5.2-5.3-6.9c-2.5-1.5-4.8-3.5-6.4-6.1c-1.9-3-3.8-6.1-5.5-9.2c-0.6-1.1-1.1-2.2-2-2.8
		c-1,0.5-1.9,1.2-2.8,1.3c-3.2,0.2-6.4,0.2-9.6,0.2c-1.1,0-2.3,0-2.9-1.3C795.5,536.1,796.9,535.5,797.5,534.8
		c3.9,0.1,7.8,0.2,11.8,0.4c0.2,0,0.3-0.2,0.6-0.5c-0.5-0.7-1-1.3-1.5-2c-1.5,0.9-2.9,1.2-4.4,1.2c-1.5,0.1-3,0-4.4,0.2
		C798.9,534.2,798.2,534.5,797.5,534.8z M683.2,228.6c-2.6,1.6-5.5,2.6-8,4.4c-2.5,1.8-5.2,3.2-7.8,4.7c0.2,6-0.1,8.4-1.4,10.6
		c-0.3-0.5-0.6-0.8-0.8-1.3c-0.3-0.5-0.5-1.1-1-2.1c-0.2,1.2-0.3,1.8-0.4,2.3c-0.2,1.7-1.2,2.6-2.9,2.9c-0.9,0.1-1.7,0.4-2.5,0.6
		c-0.9,0.3-1.4,0.9-1.5,2c3.9,0.6,7.8,0.2,11.7,0.1c0.1-1.4-1.9-1.5-1.4-2.9c0.1-0.1,0.2-0.2,0.3-0.2c0.3-0.1,0.8-0.2,1-0.1
		c2.5,1.6,5.3,1.9,8.1,2.4c1,0.2,2,0.3,2.9,0.5c1.2,0.2,2.4,0.6,3.2,1.6c0.2,0.3,0.5,0.5,0.8,0.7c2.9,2.3,6,4.4,8.1,7.6
		c0.4,0.6,1.1,1,1.7,1.4c1.4,0.8,2.8,1.7,4.2,2.4c3.6,1.9,7.3,3.7,10.9,5.6c4.7,2.5,9.5,4.9,14.5,6.7c1.4,0.5,2.8,1.2,3.9,2
		c2,1.5,4.1,2,6.6,2.2c2.3,0.2,4.7,0.4,7,1c2.1,0.5,4.1,0.4,6.3,0.6c1.7-2.1,2.9-4.4,4.2-6.6c0.3-0.6,0.4-1.4,0.5-2.1
		c0.3-2.3,0.5-4.7,1-7c0.7-3.1,0.7-6.1,0.3-9.2c-0.4-3.9-1.6-7.8-0.4-11.7c0.1-0.5,0.1-1,0.1-1.5c-0.4-8.5-0.5-17.1-1.1-25.6
		c-0.7-9.7-1.9-19.4-3.3-29.1c-0.3-1.8-0.6-3.7-1.1-5.5c-0.9-3.6-1.7-7.2-2-10.9c-0.6-6.7-3.7-12.3-8.2-17.1
		c-1.6-1.7-3.8-2.8-5.7-4.2c-1.6-1.2-3.3-1.9-5.4-2.1c-1.9-0.2-3.9-0.7-5.8-1.4c-5-1.7-10-3.6-15-5.4c-0.2-0.1-0.4,0.1-0.6,0.1
		c-0.1,0.1-0.2,0.3-0.1,0.4c0,0.5,0.1,1,0.2,1.5c2.2,10.7,4.1,21.4,4.2,32.3c0,1.1,0.2,2.2,0.5,3.3c0.8,3,1.7,5.9,2.7,8.9
		c0.9,2.6,2.1,5,4,7.1c0.3,0.3,0.7,0.6,1.2,0.9c0.6-1.3,0.5-2.4-0.4-3.2c-0.8-0.7-1.2-1.6-1.2-2.6c0-0.6,0-1.2,0.9-1.3
		c0.8,0.9,1.7,1.8,2.3,2.5c0,1.3-0.3,2.3,0,3.2c1.3,3.4,0.6,6.9,0.2,10.3c-0.7,6.6-0.6,13.1,0.4,19.6c1.2,7.8,4.4,14.9,7.6,22
		c0.1,0.2,0.3,0.4,0.7,0.7c4.5,0.3,9.1,0.7,13.8,1.1c0.1,0,0.2,0.3,0.4,0.7c-1.3,0.5-2.6,0.6-3.9,0.6c-1,0-2.1-0.2-2.9,0.2
		c-1.6,0.7-3.1,0.3-4.7,0.1c-2.1-0.3-4.1-0.8-6.2,0c-0.4,0.2-1,0.1-1.4,0c-3.2-0.4-6.3-1-9.4-2.2c-2.9-1.1-5.8-2.2-8.7-3.1
		c-5.8-1.7-10.9-4.7-15.6-8.4C685.1,236.9,683,233.3,683.2,228.6c0.1-0.2,0.4-0.3,0.5-0.5c1.2-2.3,1.7-4.9,2.3-7.4
		c0.2-0.9,0.2-2-1-2.9c0,1.9-1,3.2-2.2,4.3c1,1.2,1.4,2.4,0.9,3.9C683.3,226.9,683.3,227.8,683.2,228.6z M645.8,255.4
		c1.2-0.6,2.5-1,3.6-1.8c3.5-2.3,7.1-4.5,11.1-5.9c0.2-0.1,0.3-0.3,0.6-0.7c0.4-2,0.8-4.2,1.2-6.4c0.5-2.6,2-4.5,4.4-5.6
		c1-0.5,2-1,2.9-1.7c1.2-0.9,2.4-1.6,3.8-2.3c2.6-1.3,5.1-2.9,7.7-4.4c0.2-0.1,0.3-0.4,0.6-0.8c-0.2-0.6-0.4-1.4-0.5-2.1
		c-3.7-0.8-3.7-0.7-6.4,0c-0.9,0.3-1.9,0.5-2.9,0.6c-4.2,0.3-7.9,1.8-11.2,4.5c-0.8,0.7-1.8,1.3-2.8,1.9c-0.3,0.2-0.8-0.1-1.9-0.2
		c2.3-1.8,4.1-3.3,6-4.7c2.4-1.8,5.1-3,8.1-3.5c1.2-0.2,2.4-0.5,3.6-0.8c1.1-0.3,2.1-0.8,3.2-0.8c1.1,0,2.1,0.4,3.3,0.6
		c0.6-0.8,1.4-1.5,1.8-2.3c0.4-0.8,0.5-1.7-0.8-2.3c-2.4,1-4.9,0.6-7.4-0.3c-2.9-1-5.6-0.7-8.2,0.7c-3.2,1.6-6.4,3.2-9.7,4.7
		c-0.7,0.3-1.4,0.6-2.1,0.8c-0.6,0.2-1.2,0.1-1.5-0.9c0.4-0.3,0.7-0.8,1.2-1c2.1-1.1,4.2-2.1,6.2-3.3c1.8-1.1,4.6-1.2,5.1-4
		c1.3-0.6,2.6-1.7,4-1.8c3.1-0.2,6.1-0.8,9.2-0.3c0.8,0.1,1.7,0.6,2.4-0.3c0.1-0.9-0.3-1.4-1-1.8c-2-1-4.1-1.8-6-2.9
		c-1.8-1-3.5-1.1-5.4-0.6c-2.2,0.7-4.4,1.6-6.4,2.9c-3.3,2-6.7,3.7-10.1,5.5c-0.6,0.3-1.4,0.6-2-0.1c0.4-1.2,1.6-1.4,2.5-2
		c2.6-1.6,5.4-3.1,7.9-4.9c2.9-2.1,6-3.5,9.4-4.3c0.4-0.1,1-0.1,0.9-1c-2.7-0.7-5.4-1.1-8.1,0.5c-3,1.8-6.2,3-9.7,3.6
		c-3.9,0.7-6.9,3.1-9.7,5.9c0.4,1.4,0.5,2.8,1.1,3.9c1.6,2.9,2.4,5.8,1.9,9.1c-0.1,0.6-0.1,1.2-0.3,1.7c-0.4,0.9-0.4,1.7,0.1,2.5
		c1.1,1.8,0.7,3.3-0.6,4.7c-0.4,0.5-0.6,1.1-0.9,1.6c-0.9,2.2-2.3,4-4.2,5.4c-3.4,2.5-7.1,4.5-11,6.2c-1.6,0.7-3.2,1.3-4.8,2.1
		c-5.1,2.5-10.5,4.3-16,5.9c-5.5,1.5-11,1.4-16.4,0c-1.9-0.5-3.4,1.4-5.6,0.6c1.1-1.8,2.8-2.1,4.5-2.1c2.7,0,5.4-0.6,8.1,0
		c0.3,0.1,0.7-0.2,1.2-0.3c1.4-2.9,2.8-5.9,4.2-9c0.3-0.8,0.5-1.6,0.7-2.5c0.3-1.6,0.3-3.2,0.6-4.7c0.7-3.6,1.5-7.3,2.3-10.9
		c0.6-2.5,0.9-5.1,0.9-7.7c0.1-4.3,0.2-8.7,0.4-13c0-1,0.1-2,0.2-3c0.1-0.4,0.4-0.8,0.7-1.5c0.6,0.7,1.1,1.2,1.7,1.9
		c0.5-0.7,0.9-1.2,1.3-1.8c2.5-4.2,4-8.8,5.4-13.4c0.9-2.9,1.5-5.7,1.4-8.7c-0.1-1.2,0.1-2.5,0.2-3.7c0.7-8.9,2.2-17.7,4-26.4
		c0.1-0.5,0-1.1,0-1.8c-5.1,1.8-10,3.6-14.9,5.3c-1.9,0.6-3.8,1.4-5.7,1.5c-2.9,0.1-5.1,1.5-7.4,3c-0.5,0.3-1,0.7-1.6,1
		c-2.6,1.7-4.7,4-6.3,6.7c-1,1.7-1.9,3.5-2.8,5.3c-1.2,2.5-1.8,5.1-2.1,7.8c-0.3,2.6-0.7,5.2-1.3,7.7c-1.1,4.5-2,8.9-2.5,13.5
		c-0.1,1.2-0.5,2.4-1,3.6c-1.8,4.7-2.9,9.5-3.4,14.4c-0.4,3.6-0.7,7.1-1,10.7c-0.7,7.2-1.3,14.3,0,21.5c0.1,0.5,0.1,1,0,1.5
		c-0.7,2.7-0.7,5.4-0.6,8.1c0,0.8-0.2,1.7-0.3,2.6c-0.4,2.8-1.1,5.6,0.5,8.3c0.4,0.6,0.3,1.4,0.5,2.2c0.3,1.1,0.5,2.2,0.9,3.2
		c1.8,5.1,4.8,9.7,7.3,14.7c2.6-0.2,5-0.5,7.5-1.1c7.5-1.8,14.6-4.7,21.1-8.9c4-2.5,8.1-4.7,12.2-7c1.9-1.1,3.9-2.1,5.7-3.4
		c4.1-3,8.1-6.1,12.1-9.3c1.7-1.4,3.3-3,4.9-4.4L645.8,255.4z M753.9,421.6c-2-2.1-4.5-3.7-7-5.2c-8.7-5.1-17.3-10.1-26-15
		c-6.3-3.5-12.1-7.7-17.8-12c-3-2.2-5.8-4.7-8.4-7.3c-8.2-7.8-15-16.7-20-27c-1.6-0.8-3.1-1.6-4.7-2.4c-2.6-1.3-5.2-1.9-8.2-1.2
		c-3.2,0.7-6.6,0.9-10-0.5c-3.2,2.4-6.5,4.8-9.7,7.1c-3.8,8.1-8.6,15.5-14.5,22c-6.6,7.3-13.4,14.6-21.5,20.5
		c-0.5,0.4-0.9,0.8-1.4,1.2c-5.3,4.5-10.6,9-15.9,13.4c-1.6,1.4-3.3,2.5-3.9,4.8c-0.2,0.7-0.8,1.2-1.3,1.8c-0.9,1.2-1.7,2.4-2.6,3.6
		c-1.1,1.7-1.8,3.8-4.3,4.3c-0.4,0.1-0.7,0.6-1.1,1c-0.9,0.9-1.7,1.8-2.6,2.7c-1.2,1.2-2.3,2.5-4,3.3c-1,0.5-1.8,1.6-2.5,2.7
		c-0.9,1.3-1.6,2.8-2.2,4.3c-1.1,2.8-2.1,5.6-3,8.4c-0.3,0.8-0.4,1.9-0.1,2.5c0.9,1.8,0.3,3.4-0.3,5c-0.5,1.6-1.1,3.3-1.6,4.7
		c-0.9,1.1-1.9,2.1-2.6,3.2c-2,2.9-3.8,5.8-5.7,8.7c-1.4,2-2.7,4.2-5.4,4.8c-0.6,0.2-1.2,0.9-1.7,1.4c-2.8,2.7-5.2,5.6-7.4,8.8
		c-1.1,1.5-2.1,3.1-3.4,4.4c-3,3.1-5.4,6.8-7.8,10.3c-0.2,0.3-0.2,0.7-0.3,1.2c0.8,0.1,1.5,0.2,2.3,0.2c3.2,0,6.4-0.1,9.7-0.2
		c12.7-0.4,25.5-0.8,38.2-1.1c6.2-0.2,12.4-0.3,18.6-0.4c12.3-0.3,24.5-0.7,36.8-1.1c6.4-0.2,12.9-0.3,19.3-0.4c12-0.3,24-0.7,36-1
		c6.4-0.2,12.9-0.3,19.3-0.4c12.3-0.3,24.5-0.7,36.8-1.1c9.9-0.3,19.8-0.5,29.7-0.8c1.1,0,2.3,0.3,3.2-0.7c-0.1-0.8-0.1-1.7-0.3-2.5
		c-1.3-6.2-2.8-12.3-5-18.2c-0.3-0.9-0.8-1.8-1.4-2.6c-2.8-4.1-5-8.5-7-13.1c-0.5-1.3-1.2-2.4-2.2-3.4c-0.9-1-1.7-2.2-2.3-3.4
		c-2.7-5.8-3.9-11.9-2.7-18.4c0.1-0.7,0-1.5,0-2.2c-0.1-1.6-0.4-3.2-0.4-4.8C753.7,428.2,753.8,425,753.9,421.6z M518.5,512.8
		c0.4-0.6,1-1.3,1.5-2.2c3.2-5.2,6.6-10.2,10.4-14.9c1.8-2.3,3.8-4.5,5.6-6.9c2.6-3.5,5.4-6.8,8.7-9.7c2.4-2.1,4.3-4.4,5.9-7.1
		c2-3.3,4.1-6.5,6.1-9.7c0.8-1.4,1.5-2.8,1.7-4.5c0.6-4.4,1.7-8.7,3.4-12.9c0.3-0.7,0.7-1.5,0.6-2.1c-0.6-1.8,0.4-2.9,1.4-4
		c3.5-3.7,7-7.3,10.6-10.9c0.3-0.3,0.6-0.5,0.9-0.7c3.1-2.2,5.6-4.9,7.8-7.8c2.4-3.2,5.2-5.9,8.3-8.5c5-4.2,10-8.5,14.8-12.9
		c4.2-3.9,8-8.1,12.1-12.1c7.7-7.4,14.1-15.9,20-24.8c0.9-1.4,1.8-3,2.6-4.4c-1.4-3.6-3.8-6.2-6.3-8.8c-1.6-0.5-2.6-1.8-3.7-2.9
		c-7.2-7.8-16-13.1-25.8-17.1c-3.7-1.5-7.5-2.4-11.5-2.6c-2.3-0.1-4.7,0-7.2,0c-2.3,3.2-4.8,6.3-6.9,9.6
		c-5.3,8.5-10.3,17.2-15.5,25.8c-0.4,0.6-0.9,1.3-0.9,2c0,2-1.1,3.5-2,5.1c-1.4,2.6-3,5.1-4.3,7.8c-1.9,3.8-3.6,7.6-5.3,11.4
		c-0.9,2.2-1.7,4.4-1,6.8c0.1,0.5,0,1,0,1.5c-0.6,6.8-2.8,13-5.9,19c-0.9,1.7-1.8,3.5-3.9,4.3c-0.6,0.2-1.1,0.9-1.6,1.5
		c-3,3.3-6,6.6-8.9,10c-5.7,6.8-10.3,14.2-12.4,23c-1.6,6.9-3.3,13.7-4.9,20.6c-0.9,4.1-1.6,8.3-2.3,12.4c-0.6,3-0.9,6.1-1.9,9.1
		c-0.7,2.2-1.3,4.5-1.8,6.8c-0.5,2.5-1.2,5.1-1.7,7.6c-0.3,1.1-0.5,2.1-0.8,3.4c0.7,0.2,1.3,0.5,1.9,0.5c1.5,0,3,0,4.5,0
		c1.2,0,2.6,0.2,3.6-0.4C515.8,512.2,517,513.8,518.5,512.8z M666.5,191.8c0.6-0.1,1.1-0.2,1.6-0.2c1.5-0.1,2.8,0.6,3.3,2
		c0.8,2.2,2.5,4,2.2,6.3c1.6,1.3,3.1,2.4,4.5,3.6c1.5,1.3,3.2,2.3,5,3c1.4,0.5,2.7,1.2,4.1,1.8c1.6-0.7,2.8-1.9,3.7-3.4
		c1.3-2,2.4-4,3.6-6c3.5-5.9,4.5-12.2,3.7-18.9c-0.1-0.8-0.3-1.8,0-2.6c1.1-2.6,0.9-5.3,1.1-8c0.4-5.3,0.1-10.6-1.2-15.8
		c-1.1-4.4-2.1-8.9-3.1-13.3c-1.4-0.8-2.7-1.5-4-2.3c-2.2-1.4-4.3-2.9-6.4-4.4c-1.2-0.8-1.9-1.9-2.3-3.2c-0.7-2.2-1.1-4.5-1-6.9
		c0-0.6-0.4-1.3-0.7-2.1c-1.2,1.1-2.1,2.2-3.2,3c-3,2-6.4,3.2-9.6,4.7c-3.2,1.4-6.8,0.9-10-1c-1.5-0.9-3.1-1.5-4.6-2.3
		c-1-0.5-2-1-3-1.4c-0.6-0.3-1.1-1.1-1.9-0.6c-0.2,1.8-0.2,3.5-0.5,5.2c-0.4,2.3-0.8,4.6-0.6,7c0,0.4,0.1,1-0.7,1.2
		c-1.6-0.9-0.4-3.1-1.7-4.3c-1.1,1-2.2,2-3,3.3c-0.7,1.2-1.7,2.1-2.9,2.8c-2,1.2-3.9,2.6-5.7,3.8c-0.4,1.5-0.8,2.8-1.1,4.1
		c-1.4,5.3-2.6,10.6-3.3,16c-1,7.5-1.2,15-1.2,22.6c0,2.7,0.3,5.4,0.3,8.2c0,4.7,2.3,8.2,5.2,11.6c0.7,0.8,1.7,1.5,2.6,2.1
		c1.2,0.7,2.3,1.3,3.2,2.4c0.6,0.8,1.7,1.4,2.7,1.3c2.4-2.3,4.7-4.3,7.5-5.6c2.9-1.4,5.9-2.4,9-3.6c0.5-3.4,1.2-6.8,2.8-9.8
		c1.2-0.5,2.2-0.9,3-1.2c1-1.5,1.7-2.8,2.6-3.9c0.3-0.4,0.9-0.9,1.8-0.2C668.2,188.2,667,189.9,666.5,191.8z M699.8,278.8
		c0.2-2.5,0.3-5,0.5-7.3c-3.3-2.4-6.5-4.5-9.5-6.9c-3-2.4-6-4.7-9.1-7c-2.1-1.6-4.4-2.7-6.7-3.1c-7.4,2.7-14.4,1.8-21.5,0
		c-3.1,1.8-6.3,3.4-9,5.7c-4.7,3.9-9.5,7.5-14.6,10.8c-0.7,0.5-1.7,0.8-2.1,1.5c-0.8,1.6-2.4,2.1-3.8,2.8c-1.5,0.8-3.2,1.2-4.7,2.1
		c-1.6,0.9-3,2.2-4.5,3.2c-1.4,1-3.2,1.6-4.3,2.9c-1.2,1.3-2.5,2.6-3.9,3.7c0.8,2.6,2,4.7,3.3,6.8c1,1.6,2.1,3,4.2,3.4
		c0.5,0.1,0.9,0.4,1.3,0.7c4.2,2.7,8.9,4.3,13.7,5.5c7.7,1.9,15.6,2.6,23.5,3c1,0.1,2,0,3,0.1c4.4,0.7,8.9,0.5,13.3,0.5
		c2.9-0.1,5.7-0.5,8.4-1.3c6-1.7,11.7-4,17.2-6.8c2.7-1.4,5.3-3.3,7.9-4.8c2.8-1.6,4.3-7.4,1.9-10.2
		C702.8,282.4,702,280.1,699.8,278.8z M641.9,214c-0.6-0.3-0.9-0.5-1.2-0.6c-2.7-0.5-3.9-3.4-6.6-4c-0.3-0.1-0.7-0.4-0.9-0.7
		c-1.1-1.6-2.3-3.2-3.3-4.9c-0.8-1.3-1.3-2.7-2.2-3.9c-2.3-2.8-3.1-6.2-3.2-9.7c-0.2-4-0.2-7.9-0.2-11.9c0.1-11.2,1.7-22.2,5.8-32.7
		c0.2-0.4,0.2-0.9,0.3-1.8c-1.2,0.6-2,1-2.7,1.4c-0.6,2.9-1.1,5.6-1.6,8.2c-1.5,8-2.9,16.1-3.3,24.3c-0.1,2.1-0.4,4.2-0.7,6.3
		c-0.1,0.5-0.1,1-0.4,1.4c-1.4,1.8-1.7,4.1-2.4,6.2c-1.3,3.8-2.7,7.4-4.6,10.9c-0.7,1.2-1.4,2.3-2.8,2.7c0.2,2.1,0.5,4.1,0.6,6.1
		c0.3,5.7,0.2,11.4-1.2,17c-1,3.8,0.3,7.1,3.1,9.8c3.3,3.2,6.6,6.4,11.9,7.1c5.5-1.9,10.8-5.2,15.6-9c0.7-4.6,1.4-9,2.1-13.3
		c0.2-1.1,0.4-2.3-0.5-3.1c-1.1-1-1.4-2.3-1.4-3.7C642.2,215.4,642,214.8,641.9,214z M774.9,502.4c-1.7-0.4-3.3-0.2-4.9-0.2
		c-11.9,0.4-23.7,0.8-35.6,1.1c-11.4,0.3-22.8,0.6-34.1,0.9c-4.8,0.1-9.7,0.2-14.5,0.3c-11.8,0.3-23.5,0.7-35.3,1.1
		c-11.5,0.3-23,0.6-34.5,0.9c-4.5,0.1-8.9,0.1-13.4,0.3c-11.9,0.3-23.7,0.8-35.6,1.1c-13.4,0.4-26.7,0.7-40.1,1
		c-0.7,0-1.5,0-2.2,0.2c-0.8,0.2-1.3,0.7-1,1.7c1.3,0.3,2.7,0.1,4,0c2.4-0.1,4.7-0.2,7-0.3c6.2-0.2,12.4-0.3,18.6-0.4
		c11.9-0.3,23.8-0.7,35.6-1.1c5.9-0.2,11.9-0.2,17.8-0.4c12-0.3,24-0.7,36-1.1c5.9-0.2,11.9-0.2,17.8-0.4c12-0.3,24-0.7,36-1.1
		c6.3-0.2,12.6-0.3,18.9-0.4c16-0.4,31.9-0.9,47.9-1.3c3.1-0.1,6.2-0.2,9.3-0.3c0.6,0,1.2-0.1,1.8-0.3
		C774.6,503.4,774.7,502.9,774.9,502.4z M522.3,512.6c0,0.1,0,0.2,0,0.3c0.8,0,1.7,0.2,2.5,0.1c3.1-0.1,6.2-0.4,9.3-0.5
		c11-0.3,22-0.5,33-0.7c7.8-0.2,15.6-0.2,23.4-0.4c12.4-0.3,24.7-0.7,37.1-1c7.3-0.2,14.6-0.3,21.9-0.4c12.7-0.3,25.5-0.7,38.2-1
		c7.1-0.2,14.1-0.3,21.2-0.4c13-0.3,26-0.7,39-1c7.3-0.2,14.6-0.3,21.9-0.5c1.5,0,3-0.2,4.4-0.3c0.2,0,0.4-0.4,0.8-0.9
		c-0.7-0.1-1.2-0.3-1.6-0.3c-7.7,0.1-15.3,0.3-23,0.5c-11.4,0.3-22.8,0.8-34.1,1.1c-11.3,0.3-22.5,0.6-33.8,0.9
		c-4.3,0.1-8.7,0.1-13,0.3c-11.3,0.3-22.5,0.8-33.8,1.1c-15.2,0.4-30.4,0.7-45.7,1.1c-0.9,0-1.7,0.1-2.6,0.1
		c-10.8,0.4-21.5,0.8-32.3,1.1c-10.5,0.3-21,0.6-31.5,0.8C523.2,512.4,522.7,512.6,522.3,512.6z M478.4,545.1c1.6-2.2,1.6-4.8,2.8-7
		c1.1-2.1,2.2-4.2,3.4-6.1c1.3-2.1,2.8-4,4.3-6c1.5-2,3-3.9,4.4-5.8c2.2-0.3,2.2-0.3,3.3-1.3c-1.3-2.8-1.4-2.9-3.9-3.9
		c0,0.8,0,1.6,0,2.8c-0.9-0.7-1.5-1.1-2.1-1.6c-1.4,0.7-2.2,1.8-2.9,2.9c-0.9,1.5-1.8,2.9-2.6,4.5c-3.3,6.1-6.6,12.1-10.7,17.8
		c-0.1,0.1,0,0.4,0.1,0.6c0.7,0,1.4-0.1,2.3-0.1C477.2,542.8,477.7,543.8,478.4,545.1z M716.6,232.5c-0.8,3.3-2.7,5.4-4.6,7.5
		c-0.9,1-1.9,2-2.9,2.9c-1.2,1-1.9,2.2-2,3.8c1.5,1.3,3.4,1.2,5.2,1.7c1.8,0.4,3.6,0.8,5.5,0.8c1.8,0,3.5,0.8,5.3,0.5
		C721,244,718.9,238.5,716.6,232.5z M622.6,247.1c-1.7-0.6-2.7-1-3.7-1.4c-1.1,0.8-0.1,2.7-1.9,3c-1.2-0.7-1.3-2-1.6-3.2
		c-0.2-0.9-0.4-2-1-2.8c-0.7-1-1.7-1.8-2.5-2.8c-0.8-0.9-1.4-1.9-2.3-3.1c-0.4,1.5-0.6,2.6-0.9,3.6c-0.8,3.1-1.9,6.1-3.8,8.8
		c-0.5,0.7-1,1.4-1.3,2.2c-0.2,0.5-0.6,1.1,0.2,1.8c0.7-0.1,1.6,0,2.4-0.3c4.7-1.5,9.4-3.1,14-4.7
		C620.9,248.2,621.4,247.8,622.6,247.1z M781.5,512.1c-0.9-0.6-1.6-0.7-2.4,0c-0.1,1.1,0.2,2.4-0.2,3.5c-1.2,2.5-0.6,5.1-0.7,7.7
		c0,0.3,0.3,0.6,0.6,1.2c1.4-1.3,2.6-2.4,3.6-3.4C782,517.8,781.7,514.8,781.5,512.1z M654.2,34.6c-0.1,1.2-0.2,2.3-0.3,3.4
		c-0.4,2.3,0.1,4.4,1.4,6.3c0.6,0.9,1.2,1.9,1.8,2.8c0.2,0.4,0.5,0.8,1.1,0.4c0.4-4.6-1-8.8-2.1-13.4
		C655.4,34.3,654.8,34.4,654.2,34.6z M783.5,511.5c0,1.2,0,1.9,0,2.6c0,0.6,0,1.2,0.1,1.8c0.1,0.6-0.3,1.4,0.5,2
		c1-0.9,1.9-1.9,3-2.7c1.2-0.9,2.4-1.8,3.7-2.4c0.8-0.3,1.8-0.1,2.9-0.1c-0.2-0.8-0.3-1.3-0.4-1.9
		C790,511.1,786.9,511.3,783.5,511.5z M468.3,548.9c2.8,1.8,5.3,1.5,7.9,0.8c0.3-0.1,0.4-0.7,0.7-1.2c-1.4-0.2-2.5-0.3-3.6-0.6
		c-1-0.3-2-0.9-3.1-1.5C469.6,547.1,469,547.8,468.3,548.9z M663.1,192.5c-1.5,2.4-2.1,4.7-2,7.3c1.1-0.3,2.1-0.7,3.3-1
		C664.2,196.8,664.8,194.7,663.1,192.5z M670.8,198.7c-0.2-1.6-0.3-2.8-0.5-4c-0.1-0.8-0.8-1.3-1.5-1.2c-0.7,0.1-1.2,0.4-1.3,1.1
		c-0.2,1.4-0.4,2.8-0.1,4.3C668.6,198.9,669.7,198.8,670.8,198.7z M633.1,90.9c0.1-1.8,0.3-3.2,0.2-4.6c-0.1-1-0.7-1.8-1.8-2.1
		C630.9,86.6,630.9,88.8,633.1,90.9z M472.7,545.3c0.9,0.4,1.5,0.7,2.2,0.9c0.7,0.2,1.3-0.2,1.4-0.8c0.1-0.8-0.2-1.8-0.8-1.8
		C474.4,543.5,473.4,543.6,472.7,545.3z M660.5,34c-0.8,0-1.4,0-2.3,0c-0.1,1.3-0.2,2.5-0.3,4.1C659.7,37,660,35.6,660.5,34z
		 M682.6,214.4c0.9,0.8,1.5,1.4,2.2,1.9c0.5-1.2,1-2.2-0.2-3.3C684.1,213.4,683.6,213.8,682.6,214.4z M636.3,70.2
		c-0.3-1.5-0.8-2.5-2.2-3.1c0,0.8,0,1.5,0,2.3C634.8,69.6,635.5,69.9,636.3,70.2z M660.5,38.8c-0.1,0.1-0.2,0.2-0.2,0.3
		c0.1,0.4,0.3,0.8,0.5,1.2c0,0,0.2,0,0.3,0c0.4-0.4,0.4-0.9,0-1.3C661,38.9,660.7,38.9,660.5,38.8z M493.7,528.8
		c1.3-0.2,1.7-0.8,1.1-2C494.3,527.6,494,528.2,493.7,528.8z M690,63.2c0.4-0.3,0.6-0.4,0.8-0.6c0.1-0.2,0.1-0.4,0.1-0.6
		c-0.2,0-0.5,0-0.6,0.1C690.2,62.4,690.2,62.8,690,63.2z M485.9,539.6c-0.1,0.2-0.2,0.4-0.2,0.5c0,0.1,0.1,0.2,0.2,0.2
		c0.1-0.2,0.2-0.4,0.2-0.5C486.1,539.8,485.9,539.7,485.9,539.6z M716.3,230c0-0.1,0-0.2-0.1-0.3c0,0.1-0.1,0.2-0.1,0.3
		c0,0.1,0,0.2,0.1,0.3C716.2,230.2,716.2,230.1,716.3,230z M633,82c0.1-0.1,0.1-0.1,0.2-0.2c-0.1-0.1-0.1-0.1-0.2-0.2
		c-0.1,0.1-0.2,0.2-0.2,0.3C632.9,81.9,633,82,633,82z"/>
	<path d="M264.1,518.4c1.7,1.5,4,1.3,4.8,3.4c-0.1,0.6-0.3,1.1-0.5,1.8c3,5.1,3.4,10.7,2.7,16.5c-0.3,2.7,0.1,5.4,0.7,8.1
		c0.4,1.7,1,3.3,1.7,4.9c0.5,1.1,1.2,2.1,2,3.1c1.5,1.9,3.2,3.8,4.7,5.8c1.6,2.2,2.7,4.6,3,7.4c0.4,2.8,0.9,5.6,1,8.4
		c0,2.4-0.6,4.6-0.9,7c-0.2,1.9-1,3.5-1.9,5.1c-0.7,0.2-1.4,0.4-2.2,0.5c-2.1,0.2-4.1,0.8-6,1.7c-1.8,0.9-3.7,1.1-5.8,1.2
		c-8.5,0.4-16.4-1.9-24-5.4c-1.3-0.6-2.3-1.4-3.3-2.6c0-0.9,0-2.1,0-3.2c0-0.9,0.3-1.9,0-2.6c-0.9-1.9-0.4-3.6,0-5.4
		c0.5-2.5,1-5.1,1.4-7.7c0.2-1.1,0.2-2.2,0.3-3.2c-2.3-1.9-4.5-3.7-6.5-5.4c-0.5-1.5-0.3-2.8,0.1-4.1c0.6-1.8,0.8-3.6,0.5-5.5
		c-0.3-1.5-0.1-3,0.8-4.3c0.9-1.3,1-2.7,1-4.3c0-2.8,0-5.7,0.1-8.5c0.1-2.9,0.9-5.6,2.8-7.9c0.7-0.8,1.6-1.5,2.4-2.2
		c1-0.9,1.1-1.8,0.4-3.1c-0.4-0.1-0.9-0.2-1.4-0.2c-43.1,0-86.2,0-129.1,0c-1.1,0.9-0.7,1.9-0.9,2.9c-0.1,1.1,0,2.3-1.2,3.1
		c-1.8-1.6-0.1-3.8-1.1-5.7c-2.2-0.7-4.5-0.2-6.8-0.3c-2.2-0.1-4.4,0-6.5,0c-0.8,1.1-1.6,1.9-2.1,2.8c-0.4,0.8-0.5,1.9-0.9,2.8
		c-0.4,1-0.8,2-1.2,3c0.6,0.9,1.1,0.6,1.5,0.1c1.3-1.8,2.7-3.6,2.9-5.8c3.2-1.5,6.5-1.6,11.8-0.5c1.5,1.9,0.1,4,0.3,6
		c0.8,0.8,1.6,0.6,2.3,0c0.7-0.6,1.2-1.3,1.8-1.9c1-0.9,2.1-0.8,2.8,0.4c1.5,2.8,2.6,5.7,2.7,8.8c0.2,5.1,0.1,10.2,0.1,15.2
		c-1.1,2.8-0.6,5.5,0.4,8.4c-2.8,1.9-5.4,3.6-8.2,5.5c-0.6,1.6-0.2,3.3-0.4,5c-0.1,1.8,0,3.4,0.9,5c0.3,0.5,0.4,1.2,0.3,1.8
		c-0.1,3.2-0.2,6.4-0.3,9.6c0,1.2-0.6,2.1-1.4,2.9c-1.1,1.1-2.2,2-3.7,2.4c-2.3,0.5-4.6,1.3-6.9,1.3c-7.5,0-15.1-0.4-22.6-0.5
		c-2.4,0-4.4-1-5.9-2.6c-1.7-1.8-3.5-3.5-4.3-5.9c0-0.1,0-0.3-0.1-0.4c-2.2-1.7-1.7-4.2-1.7-6.5c0-2.6,0.2-5.2,1.1-7.7
		c0.4-1.3,1.1-2.5,1.7-3.7c0.3-0.6,0.9-1.1,0.8-1.6c-0.4-2.2,1.2-3.1,2.5-4.2c1.6-1.4,3.2-2.7,4.8-4.1c0.6-0.6,1-1.3,1.4-1.9
		c-0.1-0.4,0-0.5-0.1-0.6c-2.8-2.9-2.9-6.4-1.9-10c1.8-6.6,3.8-13.1,5.6-19.6c0.4-1.4,0.7-2.9,1.2-4.6c0.8-0.4,1.9-1,3-1.6
		c0.1-0.2,0.3-0.3,0.4-0.6c0.8-2.7,2.7-3.7,5.4-3.4c0.4,0,0.7,0,1.1,0c1.8-0.1,2.5-0.9,2.3-2.6c-0.3-2.3-0.7-4.6-1.2-7
		c-1-5.2-2.1-10.4-2.9-15.7c-1.1-7.6-1.9-15.2-2.8-22.8c-0.1-1.1-0.2-2.3-0.6-3.3c-0.8-1.7-1.1-3.6-1.2-5.4
		c-0.3-5.6-0.5-11.1,0.5-16.7c0.9-5,1.7-10,2.9-14.9c1.5-6.6,4.1-12.7,7.9-18.3c0.4-0.6,0.8-1.3,0.8-2c0.4-3.4,0.8-6.9,1.1-10.3
		c0.2-2.5,0.1-4.9,0-7.4c-0.5-6.4-0.7-12.9-0.7-19.3c-0.1-8.3,0.5-16.6,1.4-24.8c0.6-5.7,1.7-11.2,3.5-16.7c0.5-1.5,0.8-3.1,1.1-4.7
		c0.7-4,1.4-8.1,2-12.1c0.3-1.9,0.5-3.9,0.5-5.9c0.3-9.4,3.9-17.6,9.3-25c0.6-0.8,1.5-1.3,2.3-1.8c0.8-0.6,1.7-1,2.5-1.5
		c0.2-0.1,0.3-0.4,0.5-0.6c-0.5-0.7-1-0.1-1.4,0.1c-3.3,1.2-6.6,2.2-10,2.7c-2,0.3-3.9,0.4-5.9,0.5c-1.6,0.1-3.1-0.2-4.7,0.6
		c-1.3,0.6-2.4,0-3-1.4c-0.7-1.6-1.3-3.2-1.8-4.9c-0.7-2.4-1.2-4.8-1.9-7.2c-0.3-0.9-0.4-1.9-1.5-2.4c-0.9-0.5-1.2-1.5-1.3-2.6
		c-0.1-1.2-0.2-2.5-0.2-3.7c0-5.1,0.2-10.1,0.7-15.2c0.4-4.3,0.3-8.7,0.2-13c-0.1-6.2,0.6-12.4,1.2-18.5c0.6-6.4,1.9-12.7,3.4-19
		c1.3-5,2.1-10.2,2.5-15.4c0.1-0.9,0.1-1.7,0.1-2.6c-0.3-7.1,1.7-13.7,4.1-20.3c0.5-1.5,0.9-3.1,2.9-3.5c0.5-0.1,0.8-0.9,1.2-1.4
		c3.3-4.2,7.4-7.3,12.8-8.2c6.8-1.1,13-3.7,18.8-7.5c2.6-1.7,5.5-2.9,8.2-4.2c1.8-0.9,3.6-1.7,5.4-2.5c4.8-2.1,9-5.2,12.2-9.9
		c-0.1-2.6-0.3-5.4-0.5-8.2c-0.1-0.7-0.4-1.4-0.8-2c-2.7-4.2-4.3-8.9-5.7-13.6c-0.1-0.2-0.2-0.5-0.4-0.9c-2.3-0.8-3.2-2.9-4-5.2
		c-0.5-1.4-1-2.8-1.4-4.2c-0.5-1.5-1.1-3-1.8-4.5c-0.7-1.4-1.1-3-1.5-4.5c-0.3-1.5-0.2-3,0.8-4.2c0.1-0.1,0.1-0.2,0.2-0.3
		c2-4,1.9-4,1.8-8.4c-0.1-2.8,0.1-5.7,0.3-8.5c0.3-4.1,1.1-8.1,1.6-12.1c0.4-3,0.9-6.1,2.9-8.6c0.7-0.9,1-2,1.6-2.9
		c1.4-2.5,3.3-4.6,6-5.9c2.1-1,4.1-2.2,6.4-3c1.8-0.6,3.4-1.3,5.3-0.6c0.4,0.1,0.9-0.2,1.3-0.3c1.5-2.9,2.4-4.1,5-6
		c0.6-0.4,1.3-0.7,2-0.9c3-0.9,6.1-1,9.2-0.6c2.7,0.3,4.9,1.7,6.5,3.9c0.7,0.9,1.8,4.8,1.3,6c-0.7,1.8,0.2,2.7,1.5,3.7
		c1.6,1.2,3.1,2.5,4.5,3.9c1.9,1.8,3.3,4,4.2,6.5c1.2,3.5,2.2,7.1,2.1,10.9c0,0.6,0,1.2,0.1,1.9c0.2,3.9-0.1,7.9-0.1,11.8
		c0,1.5,0.1,2.9,0.1,4.5c1.6,0.2,1.9-1.7,3.6-1.5c0.4,0.4,1.1,0.9,1.5,1.7c1.6,2.8,1.9,5.9,1.3,9c-0.2,1.2-1,2.3-1.7,3.2
		c-0.7,0.9-1.4,1.8-1.6,2.9c-0.3,1.9-1.3,3.4-2.8,4.6c-0.4,0.3-0.6,0.8-1,1.4c-0.7-0.3-1.3-0.7-1.9-1c-0.2,0.1-0.5,0.2-0.5,0.3
		c-0.7,2.6-1.4,5.2-2.2,7.9c-0.4,1.5-0.6,3.2-1.3,4.6c-1.6,3.8-2.5,7.7-2.2,11.9c0.2,2.2,0.3,4.4,0.3,6.7c0,1.7,0.7,2.9,2.1,3.7
		c2.6,1.6,5.3,3.2,8,4.7c1.4,0.8,2.9,1.4,4.4,2c4.4,1.9,8.8,4.1,12.8,6.7c4.2,2.7,8.8,4.5,13.7,5.3c0.9,0.1,1.7,0.4,2.5,0.6
		c5.1,0.9,9.1,3.8,12.3,7.7c0.8,0.9,1.3,2,2.7,2.4c0.5,0.2,0.9,1.1,1.2,1.8c1.8,3.8,2.8,7.9,3.6,12.1c0.5,2.5,0.9,5.1,0.9,7.7
		c0.1,4.9,0.6,9.6,1.6,14.4c0.5,2.4,0.7,4.8,1.9,7.1c0.6,1,0.5,2.4,0.6,3.6c0.1,1.9,0.3,3.7,0.2,5.6c-0.4,5.4,0.4,10.6,1.1,15.9
		c0.6,5.2,0.6,10.4,0,15.6c-0.2,1.5-0.1,2.9,0,4.4c0.4,3.9,0.8,7.9,1.6,11.8c0.5,2.7,0.4,5.4-0.3,8.1c-0.4,1.7-0.7,3.4-1.1,5.1
		c-0.6,2.2-1.3,4.2-2.6,6.1c-1,1.4-1.8,3-2.5,4.5c-0.7,1.5-1.6,2.2-3.3,2.5c-2.1,0.4-4.2,0.2-6.2-0.2c-2.5-0.5-5.1-0.8-7.7-1.4
		c-2.9-0.7-5.7-1.4-8.5-2.3c-7.1-2.4-13.7-5.7-20.2-9.4c-0.4-0.2-0.9-0.4-1.3-0.5c-1.3,2.1-1,4,0.3,5.9c2.6,3.8,5.3,7.4,9,10.3
		c3.1,2.5,5.3,5.9,7.1,9.4c1.1,2.2,1.9,4.6,2.7,6.9c0.4,1,0.7,2.3,0.4,3.2c-0.4,1.7,0,3.2,0.2,4.8c0.4,3.4,0.9,6.9,1.2,10.3
		c0.1,1.1,0.2,2.3-0.1,3.3c-0.5,1.7-0.1,3.2,0.5,4.7c0.9,2.3,1.8,4.6,2.7,6.9c0.4,1,0.7,2.1,1.8,2.7c0.4,0.2,0.6,0.8,0.8,1.2
		c2.5,5.8,4.8,11.6,7.3,17.4c3.7,8.7,6.1,17.8,6.7,27.3c0.6,9.9,2,19.7,3.2,29.5c0.4,3.1,1.3,6,2.4,8.9c1,2.5,1.9,5.1,2.6,7.7
		c0.6,2,1.1,4,0.6,6.2c-0.2,0.7,0.1,1.5,0.3,2.2c0.8,2.3,1,4.6,1,7c0.1,9.4,0.1,18.8,0.1,28.2c0,3.6-0.2,7.1-1.5,10.6
		c-0.8,2-0.8,4.4-1.1,6.6c-0.6,4.7-1.2,9.3-1.5,14c-0.2,3.7-0.9,7.4-1.4,11c-0.2,1.3-0.4,2.7-0.7,4c-0.4,2.1-0.6,4.1,0.4,6.1
		c0.5,1,0.2,1.9-0.4,2.8C264.9,517,264.6,517.7,264.1,518.4z M95.3,512.4c0.2,0.3,0.4,0.6,0.6,0.8c0.6,1.1-0.3,1.4-1,1.8
		c1.1,1,2.4,1.1,3.8,1.1c5.9,0,11.9,0,17.8,0c38.6,0,77.2,0.1,115.8,0.1c8.3,0,16.6,0,24.9,0c1,0,2,0,3,0.1c0.7,0.1,1,0.6,1,1.3
		c-4.5,0.2-9.1-0.3-13.5,0.2c-0.6,1.3-0.7,2.4-0.4,3.6c2.3-1.9,4.6-3.2,7.5-3.1c1.6,0.1,3.2,0,4.8-0.1c0.6,0,1.2-0.1,1.5-0.8
		c1.2-0.9,3.2-1,2.9-3.4c-0.6-0.1-1.3-0.4-1.8-0.2c-2.1,0.7-4.2,0.5-6.3,0.5c-15.5-0.1-30.9-0.3-46.4-0.4
		c-36.1-0.2-72.3-0.3-108.4-0.4c-1.7,0-3.4-0.2-5.2-0.4c0-0.3,0.1-0.6,0.1-0.9c3.9-0.6,7.9,0.3,11.8-0.5c0.8-2.6-0.1-5.3,1.4-8.1
		c0.1,1.5,0.2,2.5,0.3,3.6c0.1,1.2,0,2.5,0.1,3.7c0,0.5,0.3,0.9,1.1,0.6c0.1-1.1,0.1-2.4,0.3-3.6c0.4-4.2,0.4-8.4,1.6-12.5
		c1.4-4.6,2.9-9.2,4.6-13.7c1.5-4.2,3.3-8.3,5-12.4c1.3-3.2,2.7-6.4,4.1-9.6c0.6-1.4,1.4-2.7,1.9-4c0.3-0.8,0.5-1.7,0.4-2.5
		c-1-5.8-1.2-11.6-1.4-17.4c0-0.6-0.1-1.2-0.2-2.1c-0.9,0.7-1.7,1.2-2.8,1.9c0.2-1.1,0.1-1.7,0.3-2.2c0.8-1.9,1.8-3.8,2.7-5.7
		c0.9-1.9,1.9-3.8,2.7-5.7c0.5-1.2,0.6-2.6,2-3.4c0.5-0.3,0.6-1.3,0.8-2c1.8-6.7,4-13.3,6.4-19.8c1.5-4.1,2.6-8.2,3.9-12.4
		c0.8-2.6,1.5-5.2,2.1-7.9c2.1-9.2,6-17.5,10.7-25.6c2.2-3.9,4.3-7.8,6.3-11.8c1-1.9,1.8-3.8,2.8-6c1.5,0.3,2.8-0.5,4.1-1
		c3.7-1.4,7.4-3,11.8-1.7c0.7,1.6,1.5,3.4,2.3,5.2c0.2,0.5,0.6,0.9,1.1,1.6c0.5-1.7,0.8-3,1.2-4.3c1.5-5.6,4.6-10.4,8.1-14.9
		c5.5-7,12.8-11.2,21.8-12.1c4.8-0.5,9.7-0.1,14.4,1.1c1.6,0.4,3.1,1,4.6,1.6c0.6,0.2,1.1,0.5,1.6,0.9c0.3,0.3,0.6,0.9,0.5,1.2
		c-0.1,0.3-0.7,0.5-1.1,0.6c-0.3,0.1-0.7-0.1-1.1-0.2c-4.5-1.5-9.2-1.9-13.9-1.9c-8.3,0-15.5,2.9-21.6,8.5c-1.4,1.3-2.6,2.7-4,3.8
		c-3.1,2.5-5,5.8-6.3,9.5c-1.1,3-2.1,6.1-3.1,9.2c2,5,4.6,9.8,7.2,14.6c2.5,4.7,5.6,9,9.3,13c2.2,2.4,4.4,4.7,6.7,7
		c0.6,0.6,1.4,1.2,1.2,2.2c-0.2,1,0.3,1.6,0.9,2.3c0.9,1.1,1.9,2.3,2.8,3.5c4.1,5.3,6.8,11.2,8,17.8c0.3,1.4,0.9,2.8,1.5,4.1
		c1.4,2.8,3.5,5.1,5.6,7.4c1.8,2,3.6,4.1,5.4,6.1c0.6,0.6,1,1.4,1.3,2.2c0.7,1.7-0.3,2.9-2.1,2.7c-0.4-0.1-0.9-0.2-1.5-0.4
		c-0.2,1.4-0.3,2.6-0.5,3.8c-0.7,4.3-1.5,8.5-2.2,12.8c-0.2,1-0.2,2-0.1,2.9c0.1,1.3,0.5,2.7,0.4,4c-0.2,4.7,1.1,9.1,3,13.3
		c1.5,3.1,3,6.2,4.5,9.4c0.5,1,0.9,2,1.4,3.2c-0.8-0.2-1.4-0.3-1.9-0.4c0,0.3-0.1,0.5-0.1,0.8c1.3,4.9,2.7,9.8,4,14.7
		c0.2,0.7,0.5,1.4,0.8,2.1c0.8,2.3,1.8,4.6,2.5,7c1.5,5.4,2.7,10.8,4.1,16.3c0.5,0.1,1.1,0.2,1.7,0.2c3.2,0,6.4,0.1,9.7,0
		c1.2,0,2.4-0.5,3.6-0.8c0.7-1.7,0.9-3.3,0.8-5.1c-0.1-3.2,0.1-6.4,0.3-9.6c0.3-3.6,0.8-7.1,1.4-10.7c1-6.9,1.9-13.7,3.1-20.5
		c0.6-3.4,1-6.9,1-10.3c0-6.1,0-12.1,0-18.2c0-0.7,0.1-1.5-0.1-2.2c-0.8-2.5-0.5-5.1-0.7-7.7c-0.3-5.3-0.8-10.6-2.8-15.6
		c-0.4-1-0.7-2.1-1.7-2.8c-0.8-0.5-1-1.3-1.2-2.2c-0.2-1.5-0.5-2.9-0.6-4.4c-0.7-6.8-1.6-13.5-2.2-20.3c-0.5-5.8-1.6-11.5-3.1-17.1
		c-2.1-7.6-4.2-15.3-7.3-22.6c-0.7-1.6-1.1-3.3-1.7-4.9c-1.9-5.5-3.8-11-5.7-16.5c-1.2-3.4-2.5-6.7-3.6-10.2
		c-0.5-1.6-1.2-3.2-0.6-5.1c0.3-0.8-0.2-1.9-0.3-2.8c-5.5-1.6-11-0.3-16.6-1.2c1.4-1.7,3.1-1.8,4.9-1.7c2.2,0.2,4.4,0.5,6.6,0.8
		c1.6,0.2,3.1,0.4,4.7,0.3c0.5-4.5,0.2-7.8-1.1-11.1c-0.8-2-1.5-3.9-2.4-5.8c-1.1-2.4-2.3-4.7-3.5-7c-1.3-2.3-2-3-4.1-3.8
		c-0.8,4-1.7,5.7-4.5,7.8c-1.2,0.9-2.5,1.5-3.8,2.2c-4.1,2.1-8.4,3.6-12.4,5.8c-5.5,3-11.4,4.9-17.7,4.8c-10.6,0-21.3-0.1-31.9-1.7
		c-5.6-0.9-11.2-2.2-16.4-4.4c-1-0.4-2.1-0.9-3.1-1.1c-6.2-1.4-10.3-5.1-12.8-10.8c-0.3-0.8-0.8-1.5-1.3-2.5
		c-0.7,0.9-1.3,1.5-1.8,2.1c-1.1,1.5-2.1,3.1-3.3,4.5c-2.2,2.6-3.7,5.5-4.9,8.7c-2,5-2.9,10.2-3.4,15.5c-0.3,2.7-0.6,5.4-0.9,8.1
		c0,0.4,0.1,0.8,0.1,1.6c2.5-1.3,4.6-2.5,6.8-3.6c3.8-2,7.7-3,12.1-2.6c9.5,0.8,17.8,4,24.5,10.9c4.4,4.5,7.6,9.7,10.2,15.4
		c0.3,0.7,0.4,1.4,0.5,2.1c0,0.3-0.3,0.6-0.7,1.2c-0.8-1.2-1.3-2-1.8-2.9c-2.6-4.8-5.7-9.3-9.5-13.2c-4.3-4.5-9.3-7.8-15.4-9.3
		c-3.5-0.9-7-1.4-10.5-2.1c-1.6-0.3-3.2,0.1-4.7,0.7c-4.2,1.6-8,3.8-11.7,6c-4.3,10-6.1,20.3-6.8,30.9c-0.8,12.9-0.7,25.7,0.4,38.6
		c0.1,1.1,0.3,2.3,0.1,3.3c-0.8,3-1,6.1-1.2,9.2c-0.4,5.8-2.1,11.2-4.9,16.2c-0.5,1-1,2-1.3,3.1c-1,3.4-2,6.9-3,10.3
		c-0.8,3.1-1.6,6.2-2.4,9.3c-1.8,2.1-1.5,4.6-1.4,7.1c0.3,6.2,0.8,12.4,1.3,18.5c0.3,3.2,0.6,6.4,1.5,9.5c0.2,0.7,0.2,1.5,0.3,2.2
		c0.7,5.1,1.4,10.3,2.3,15.4c0.5,3.2,1.3,6.3,1.8,9.5c0.7,4.1,1.3,8.3,1.9,12.5C95.8,512.5,95.5,512.5,95.3,512.4
		c0-0.3-0.1-0.6-0.5-0.2C95,512.3,95.1,512.3,95.3,512.4z M212.6,61.9c0.7,0.1,1.5,0.3,1.4-1.3c-0.5,0.6-0.9,1-1.3,1.4
		c-0.1,0.2-0.3,0.3-0.4,0.5c-0.1,0.1,0,0.2,0,0.3c0.1-0.1,0.4-0.2,0.4-0.3C212.6,62.4,212.6,62.2,212.6,61.9z M208.2,50.2
		c0.3-0.3,0.7-0.5,1-0.9c0.1-0.1-0.1-0.5-0.2-0.8c-0.2,0.1-0.5,0.2-0.6,0.4C208.3,49.3,208.3,49.8,208.2,50.2c0,0.1-0.1,0.1-0.2,0.1
		c0,0,0,0.1-0.1,0.2C208.1,50.4,208.1,50.3,208.2,50.2z M196.3,198.9c0.2,0.1,0.3,0.3,0.5,0.4c0.1,0,0.2,0,0.3,0
		c-0.1-0.1-0.2-0.3-0.3-0.4c-0.2,0-0.4,0.1-0.6,0.1c-1.4-0.9-1.4-0.9-3.6-0.4C193.9,198.7,195.1,198.8,196.3,198.9z M153.3,80
		c0-0.1-0.1-0.2-0.1-0.3c0,0-0.1,0-0.2,0C153.1,79.7,153.2,79.8,153.3,80c0.1,2.8,0.1,2.8,1.5,4.7C155,82.8,154.5,81.3,153.3,80z
		 M214.3,70.4c-0.5,0.3-1.3,0.6-1.4,1c-0.4,1.6-1.1,2.9-2.8,3.7c-0.5,0.2-0.9,1.1-1.1,1.8c-0.2,0.4-0.1,1,0.1,1.4
		c0.2,0.4,0.7,0.5,1,0.8c0.4-0.3,0.6-0.4,0.7-0.6c1.8-2.4,2.4-5.4,3.4-8.2c0.8-0.3,1.2-0.9,1.2-1.7c0-1.6,0.5-3.4-0.6-5.2
		c-1.2,1.2-2.3,2.2-2.7,3.8C213.1,68,214.1,69,214.3,70.4z M184.4,28.6c1-0.4,1-1.3,1.3-2.1c0.7-1.7,1.3-3.5,1.9-5.2
		c0.1,0,0.2,0.1,0.4,0.1c-0.3,2-0.7,4-1.1,6.6c2.2-2.9,3.4-5.6,3.5-8.7c0-0.2-0.2-0.4-0.3-0.7c-1-0.4-2-0.9-3.3-0.3
		c-0.2,0.6-0.4,1.3-0.7,2c-0.3,0.9-1,1-1.7,1.1c0.1-1.1,0.6-2.2-0.5-3.4c-0.6-0.1-1.5-0.3-2.3-0.4c-0.7-0.1-1.2,0.1-1.6,1.1
		c0.9,1.7,0.5,3.6,0.3,5.5c-0.3,3.1-0.7,6.1-0.3,9.2c0,0.2-0.2,0.4-0.4,0.7c-1.7-1.6-4-0.6-6.1-1.2c-2.3-2.8-3.5-6.4-5.1-9.7
		c-0.1-0.3,0.3-0.8,0.5-1.3c0.1,0,0.1,0.1,0.2,0.1c-0.1,0-0.2,0-0.2,0c0.3-1.3,0.2-2.4-0.7-3.7c-0.6,0.1-1.3,0.2-2.1,0.4
		c0.4,2.6,0.7,5,2,7.2c0.3,0.5,0.6,1.2,0.5,1.7c-0.3,1.2,0.3,1.9,0.8,2.7c0.5,0.8,1.4,1.3,1.4,2.7c-1.6-0.7-2-2.2-3.1-2.9
		c-1.8-1.1-2.2-2.9-2.6-4.7c-0.2-1.1-0.2-2.2-0.3-3.3c-0.1-0.7-0.2-1.5-1.2-1.7c-1,0.4-1.8,1.2-2.2,2.3c-0.5,0.1-1,0.1-1.4,0.4
		c-0.3,0.3-0.6,0.8-0.6,1.2c0,0.6,0.1,1.2,0.3,1.8c0.2,0.4,0.5,0.9,0.8,1.2c0.3,0.4,0.6,1,1.3,0.8c-0.2-1.9-0.3-3.7-0.4-5.5
		c1.7,2.3,1.8,5,2.5,7.6c-0.5,0.6-0.9,1.2-1.4,1.9c-1.6-2-3-3.9-4.8-6.3c0.4,1.4,0.6,2.2,0.9,3c0.3,0.7,0.7,1.3,1.1,1.9
		c0.4,0.7,1.3,1.1,1,2.3c-1.4,0-1.8-1.2-2.6-1.8c-0.9-0.7-1.3-2.1-2.5-2.4c-1.1,1.2,0.1,2.3-0.2,3.6c-0.7,0.5-1.8,0.9-1.8,2.5
		c0.5,0.8,1.1,1.7,1.7,2.6c0.1,0.1-0.1,0.4-0.2,0.6c-0.5-0.1-0.9-0.2-1.6-0.3c0,0.6-0.1,1.2,0,1.8c0.2,1.1,1,2,0.6,3.2l0.1-0.1
		c-0.6-0.5-1.3-1-2-1.5c-0.4,1.4,0.3,2.5,0.7,3.6c0.5,1.5,1.4,2.9,1,4.6c0,0.1,0.5,0.4,0.7,0.6c0.6-0.2,0.4-1.5,1.5-0.8
		c0.1,0.9,0.2,1.9,0.4,2.9c0.2,1.2-0.2,2.1-1.3,2.8c-1.3,0.7-2,2-1.9,3.4c0,3.4-0.7,6.8,0,10.3c0.3,1.5,0.3,3,0.3,4.4
		c0,1.5,0.3,2.9,1,4.3c1.6,3.5,3,7.1,3.6,10.9c0.7,4.1,2.6,7.7,4.4,11.4c1.3,2.6,3.3,4.6,5.8,6.1c1.5,0.8,3,1.8,4.5,2.6
		c2.5,1.5,5.2,2.2,8.1,2.3c2.2,0.1,4.1-0.7,6.2-1.2c6-1.5,10.4-5,13.2-10.5c2.5-5,3.9-10.4,5.2-15.8c0.8-3.6,1.4-7.3,3-10.7
		c0.6-1.3,0.9-2.6,0.7-4c-0.2-2.6,0.1-5.2-1.2-7.6c-0.3-0.5-0.2-1.2-0.2-1.8c-0.1-2.3-0.1-4.6-0.2-6.8c-0.9-1.1-1.7-2-2.3-2.8
		c0.4-1.9,1.1-3.4,2.2-4.6c1.1-1.1,1.2-2.2,0.6-3.6c-0.7,1.1-0.7,2.7-2.3,3.2c-0.6-1.6-0.3-3,0.3-4.4c0.5-1.3,1.1-2.5,1.4-3.8
		c0.5-1.7,0.2-3.4-1-5.1c-0.5,2.9-0.9,5.4-1.4,8.6c-0.3-1.5-0.3-2.4-0.6-3.1c-0.4-0.8-1.1-1.5-1.6-2.2c0.1-0.9,0.2-1.6,0.2-2.4
		c0-0.3-0.2-0.7-0.3-1.1c-0.9,0.8-1.7,1.4-2.5,2.1c0,0-0.2-0.1-0.4-0.2c0.1-0.6,0.2-1.3,0.3-2c0.3-0.3,0.7-0.6,1-1
		c0.4-0.6,0.6-1.5,1.5-1.5c1.2,0,1.1,1.1,1.5,1.8c0.1,0.1,0.4,0.2,0.6,0.2c0.8-1.8,1-2.1,0.2-3c-1.1-1.3-2.3-2.6-3.6-3.7
		c-0.4-0.4-1.1-0.4-1.8-0.7c-0.3,1-0.6,1.8-0.8,2.6c-1.4,0.7-1.9,2.2-2.8,3.4c-0.4,0.6-0.9,1-1.3,1.6c0.1-3.4,2.8-5.5,3.9-8.1
		c-0.4-0.8-0.7-1.4-1.7-1.2c-0.4,0.9-0.8,1.9-1.3,2.9c-0.8,1.9-1.7,3.8-3.2,5.4c-0.2,0.2-0.5,0.9-1.1,0.1c1.5-2.1,3.4-4.2,3.4-7.5
		c-1.5,2.6-2.8,4.9-4.2,7.1c-0.2,0.4-0.6,0.9-1.3,0.2c1.1-2,2.2-4,3.4-6c0.7-1.2,1.2-2.4,1.1-3.8c0-0.2-0.5-0.5-0.8-0.6
		c-0.1-0.1-0.5,0.1-0.6,0.3c-0.2,0.3-0.4,0.7-0.4,1c-0.3,3.2-1.9,5.8-3.5,8.5c-1.2,2-2.6,3.6-4.8,4.4c-0.8-0.3-1.6-0.7-2.4-1
		c0.2-8.1,0.2-8.1,1.3-10.4c0.2,0.6,0.4,1.1,0.7,1.8c0.5-0.9,0.9-1.7,1.3-2.5C184.5,23.7,184.5,26.2,184.4,28.6
		c-0.1,0.3-0.2,0.5-0.1,0.3C184.3,29.1,184.4,28.9,184.4,28.6z M189,13.2L189,13.2c-0.6,0.5-1.5,0.9-1.3,2c1.4,0.8,2.7,0.6,4.1,0
		c0.4,0.2,0.8,0.7,1.2,0.7c1.3,0.1,2.3,0.7,3.3,1.5c0.1,0.1,0.3-0.1,0.6-0.2c-0.4-0.9-0.7-1.7-1.1-2.5c-1.6-0.4-2.8,0.5-4.1,0.7
		c0.4-0.4,0.8-0.9,1.3-1.3c0.5-0.4,1.5-0.1,1.7-1.2c-0.3-0.3-0.6-0.6-0.9-1c-1.1-1.2-2.7-1-4.1-1.4c-3.9-1.2-7.3-0.3-10.3,2.4
		c-0.4,0.4-1,0.8-0.5,1.6c1.3,0.1,2.6,0.2,3.9,0.3c1.3-1.3,2.1-3,3.9-3.5c0.5-0.1,1-0.6,1.5,0.1c-0.9,0.7-1.7,1.4-2.5,2.2
		c-0.3,0.3-0.7,0.7-0.1,1.4C186.7,14.4,187.5,12.9,189,13.2z M201.6,212.3c-2.7,2.7-6.5,3.4-9.4,5.7c-1.1,0.8-2.3,1.5-3.4,2.2
		c-1.1,0.7-2.3,1.4-3.3,2c0,8,0,8.5-1.5,10.6c-0.5-1-0.9-1.9-1.5-3.1c-0.3,1-0.6,1.7-0.7,2.4c-0.2,1.4-1.1,2.2-2.4,2.4
		c-1,0.2-1.9,0.5-2.9,0.7c-0.9,0.3-1.4,0.9-1.7,2c4,0.5,8,0.3,11.9,0.1c-0.1-1.3-2.4-1.6-0.9-3.4c0.6,0.2,1.3,0.4,2,0.7
		c1.6,0.8,3.1,1.5,4.9,1.5c0.7,0,1.4,0.4,2.2,0.5c3.1,0.2,5.6,1.4,7.9,3.6c2.3,2.2,5.1,3.9,6.8,6.7c0.4,0.6,1.1,1,1.7,1.4
		c1.5,0.9,3,1.8,4.5,2.6c3.5,1.8,7.1,3.6,10.6,5.4c4.7,2.4,9.4,4.9,14.5,6.7c1.5,0.5,3,1.3,4.3,2.2c1.9,1.4,3.9,1.9,6.2,2.1
		c2.5,0.2,4.9,0.5,7.3,1c2.1,0.5,4.1,0.5,6.4,0.5c0.9-1.5,1.8-3,2.8-4.4c1-1.6,1.7-3.2,1.7-5.2c0-1.5,0.2-3,0.6-4.4
		c1.5-4.8,0.9-9.5,0.2-14.3c-0.1-0.5-0.2-1-0.2-1.5c-0.2-2-0.4-3.9,0.1-5.9c0.3-1.4,0.3-2.9,0.2-4.4c-0.1-4.1-0.3-8.2-0.5-12.2
		c-0.1-1.9-0.1-3.7-0.2-5.6c-0.2-3.5-0.5-6.9-0.8-10.4c-0.3-3.4-0.7-6.9-1.2-10.3c-0.5-3.4-0.4-6.9-1.2-10.2
		c-0.1-0.4-0.1-0.7-0.1-1.1c-0.1-3-0.8-5.9-1.6-8.8c-0.6-2.6-1.4-5.3-1.6-8c-0.4-5.6-2.2-10.6-5.1-15.3c-1.6-2.6-3.5-4.9-6-6.5
		c-2.9-1.8-5.5-4.3-9.3-4.2c-0.2,0-0.5-0.1-0.7-0.2c-2.3-0.5-15.2-4.9-17.9-6c-0.6-0.3-1.2-1-2.2-0.3c0.2,1.1,0.4,2.3,0.7,3.5
		c2,9.8,3.7,19.7,3.8,29.8c0,1.5,0.3,3,0.6,4.4c0.8,2.9,1.7,5.7,2.7,8.5c0.6,1.7,1.5,3.4,2.4,5c0.6,1.1,1.4,2.2,2.6,3.1
		c0.3-0.5,0.7-0.9,0.6-1.1c-0.3-0.8-0.5-1.7-1.1-2.3c-1-1.2-1-2.4-0.5-4c1,1,1.9,1.8,2.6,2.6c0.1,1.4,0.1,2.6,0.4,3.8
		c0.8,3.2,0.4,6.4,0.2,9.6c-0.1,1.3-0.4,2.7-0.5,4c-0.1,3.1,0,6.2,0,9.3c0,3,0.5,5.9,1.1,8.8c1.3,6.3,3.9,12.2,6.4,18.2
		c0.3,0.8,0.8,1.5,1.2,2.3c1.1,0.1,2.1,0.1,3.1,0.2c1,0.1,1.9,0.4,2.9,0.5c1,0.1,2,0.1,3,0.2c1,0,2-0.1,3,0.1
		c0.9,0.1,1.9-0.2,2.9,0.6c-0.5,0.3-0.8,0.6-1.1,0.6c-4.3,0.1-8.5,1.5-12.8,0.4c-1.3-0.3-2.7,0.1-4,0.1c-0.6,0-1.2,0.2-1.8,0.1
		c-3.3-0.4-6.6-1.1-9.7-2.3c-2.9-1.1-5.8-2.2-8.7-3.1c-6-1.8-11.3-5-16-9.1c-3.3-2.9-5.3-6.5-4.4-11.2c0.2-0.1,0.5-0.2,0.6-0.4
		c0.6-2,1.2-4,1.8-6c0.2-0.8,0.1-1.3-0.5-2.9c-0.8,1.2-1.5,2.4-2.4,3.8c0.9,1,1,2.3,0.7,3.7C201.5,211,201.6,211.7,201.6,212.3z
		 M165.1,239c1.4,0.1,2.3-0.8,3.3-1.5c3.2-2.2,6.5-4,10.2-5.3c0.2-0.1,0.4-0.3,0.7-0.6c0.5-2.2,1-4.5,1.4-6.8c0.5-2.5,2-4.2,4.2-5.3
		c1.3-0.7,2.5-1.5,3.8-2.3c0.8-0.5,1.7-1,2.5-1.5c2.7-1.7,5.8-2.7,8.3-4.8c0.2-0.1,0.2-0.4,0.5-0.8c-0.2-0.6-0.5-1.4-0.8-2.1
		c-2.4-0.7-4.6-0.5-6.7,0.3c-0.9,0.3-1.9,0.4-2.9,0.5c-3.8,0.4-7.2,1.7-10.2,4.1c-1,0.8-2,1.5-3,2.1c-0.3,0.2-0.9,0-1.4,0
		c0.2-0.5,0.2-0.8,0.4-0.9c1.9-1.5,3.9-3.1,5.9-4.5c1.9-1.4,4.1-2.3,6.4-2.7c1.3-0.2,2.7-0.4,4-0.8c2.2-0.8,4.5-1.4,6.9-0.3
		c0.7-0.9,1.4-1.6,1.9-2.4c0.5-0.8,0.5-1.7-0.8-2.3c-2.5,1.1-5.1,0.6-7.7-0.4c-2.6-0.9-5.1-0.6-7.6,0.6c-3.3,1.6-6.7,3.3-10,4.9
		c-0.8,0.4-1.6,0.7-2.4,0.9c-0.6,0.1-1.2-0.1-1.3-1.1c0.4-0.3,0.9-0.7,1.4-1c2.4-1.3,4.9-2.5,7.2-3.8c1.5-0.9,3.6-1.1,4-3.3
		c0-0.3,0.5-0.5,0.9-0.7c1.3-0.8,2.6-1.4,4.2-1.4c3.2,0.1,6.4-0.7,9.6,0c0.3,0.1,0.7-0.1,1-0.2c0.2-1.1-0.3-1.6-1.2-2.1
		c-2-0.9-4.1-1.8-6-2.9c-1.6-0.9-3.3-1.1-5-0.6c-2.2,0.7-4.4,1.6-6.4,2.8c-3.2,2-6.7,3.7-10.1,5.5c-0.7,0.4-1.3,0.7-2.1,0.1
		c0.1-1.2,1.2-1.4,2-1.9c2.8-1.8,5.8-3.3,8.5-5.2c2.9-2.1,6-3.4,9.4-4.1c0.3-0.1,0.5-0.4,0.9-0.8c-3.1-0.9-5.8-1.4-8.5,0.3
		c-0.8,0.5-1.8,0.8-2.6,1.4c-1.4,0.9-2.9,1.5-4.5,1.7c-4.8,0.6-8.6,2.8-12,6.1c0,3.3-0.1,3.3,2.1,7.2c0.6,1,1,2.1,0.7,3.2
		c-0.5,1.8,0.5,3.7-0.6,5.4c-0.2,0.3-0.2,0.8,0,1.1c1.5,2.6,0.5,4.7-1.1,6.8c-0.1,0.1-0.1,0.2-0.1,0.3c-0.8,2.6-2.6,4.4-4.8,5.9
		c-3.4,2.3-6.9,4.3-10.7,5.9c-1.5,0.6-3,1.2-4.4,1.9c-5.1,2.5-10.5,4.3-16,5.9c-4.9,1.4-9.8,1.4-14.7,0.3c-1.4-0.3-2.6-0.4-4-0.1
		c-0.7,0.2-1.4,0.5-2.1,0.6c-0.4,0.1-0.8-0.1-1.5-0.3c1.4-1.6,2.9-2.1,4.5-2.1c2.7,0.1,5.4-0.7,8.1,0c0.3,0.1,0.7-0.1,1-0.2
		c1.3-2,4.6-8.8,5.1-10.3c0.1-0.4,0.3-0.7,0.2-1.1c-0.4-2.2,0.5-4.1,0.9-6.2c3.2-16.3,3.1-10.9,3.2-29c0-1.2,0-2.5,0.2-3.7
		c0.1-0.7,0.5-1.3,0.9-2.2c0.7,0.8,1.1,1.4,1.5,2c0.2-0.2,0.4-0.3,0.5-0.5c0.4-0.5,0.7-1,1-1.6c3.1-5.4,4.9-11.3,6.3-17.4
		c0.3-1.3,0.2-2.7,0.3-4.1c0.2-3.3,0.4-6.7,0.7-10c0.7-6.7,2-13.2,3.2-19.8c0.2-0.8,0.7-1.6,0.1-2.5c-0.2,0-0.5,0-0.7,0.1
		c-5.1,1.8-10.2,3.7-15.3,5.5c-1.5,0.5-3.1,1.1-4.7,1.1c-2.6,0.1-4.7,1.3-6.7,2.7c-0.1,0.1-0.2,0.1-0.3,0.2
		c-7.3,4.4-10.9,11.2-12.5,19.3c-0.7,3.8-0.9,7.6-2,11.3c-0.9,3.1-1.5,6.2-1.7,9.5c-0.1,1.6-0.4,3.2-1,4.7c-2.4,6-3.5,12.4-4.2,18.8
		c-0.4,4.2-0.9,8.4-1.1,12.6c-0.3,4.9-0.6,9.9,0.3,14.8c0.2,1.3,0,2.7-0.1,4c-0.1,1.4-0.5,2.7-0.4,4c0.1,2.5,0,4.9-0.5,7.4
		c-0.4,1.9-0.6,3.9,0.7,5.7c0.3,0.5,0.3,1.2,0.5,1.8c0.4,1.5,0.7,3.1,1.3,4.6c1.8,4.9,4.6,9.2,7,13.9c2.6,0,5-0.4,7.4-0.9
		c7.4-1.7,14.4-4.5,20.8-8.6c3.9-2.4,7.8-4.8,11.9-6.9c3-1.6,5.8-3.3,8.5-5.3c3-2.3,6.1-4.7,9.1-7.1c2.4-1.9,4.8-3.8,7-6L165.1,239z
		 M166.7,336.6c-2.2,5.5-5.1,10.6-7.9,15.7c-3.3,6.2-6.6,12.4-9.8,18.7c-1.4,2.8-2.7,5.7-2.7,8.8c0,3.4-0.6,6.6-1.6,9.8
		c-2.9,9.1-5.8,18.1-8.8,27.2c-1.2,3.5-2.5,7-5.1,9.8c-0.9,1-1,2.1-0.9,3.5c0.5,4.4,1,8.8,1,13.3c0,2.7-0.2,5.4,0.6,8.1
		c0.3,1,0,2.2-0.4,3.3c-0.5,1.5-1.1,3-1.8,4.5c-1.6,3.5-3.4,6.9-5,10.4c-0.5,1-1.1,2-1.3,3.1c-0.5,3.9-2.2,7.3-3.7,10.8
		c-1.4,3.4-3,6.8-4.4,10.2c-1.7,4.1-2.4,10.6-1.8,15.5c1.4,0.5,2.9,0.3,4.3,0.3c37.4,0,74.8,0,112.2-0.1c3.7,0,7.4,0,11.1,0
		c0.7,0,1.4-0.2,2.1-0.3c0.4-2.5-0.2-4.6-0.8-6.7c-0.5-1.8-1.1-3.5-1.7-5.3c-2.4-7.9-4.8-15.8-6.7-23.9c-0.4-1.7-0.8-3.4,0-5
		c-2.9-3.8-5-7.8-6.4-12.2c-0.6-1.9-1.2-3.8-1.2-5.8c-0.2-5.8-0.1-11.6,0-17.4c0-2.6,0.5-5.2,0.7-7.7c0.1-1.1,0-2.2,0.1-3.3
		c0.1-1.2,0.4-2.4,0.7-3.5c-3.1-4.6-5.6-9.4-7.7-14.5c-1.7-4.1-3.5-8.2-5.4-12.2c-0.7-1.5-1.4-2.9-2.3-4.2c-2-3.1-3.9-6.4-6.1-9.3
		c-2.5-3.4-5-6.8-8-9.8c-3.5-3.6-6.5-7.5-8.8-11.9c-3.5-6.7-6.8-13.5-9.4-20.6c-0.2-0.7-0.6-1.3-0.9-2.1
		C174.8,333.9,170.6,334,166.7,336.6z M184.7,175.9c0.2,0.1,0.3,0.3,0.3,0.3c0.2,0,0.5-0.1,0.7-0.1c2-0.2,3.3,0.7,4,2.6
		c0.7,1.9,1.5,3.8,2.5,6.2c0.2,0.1,0.9,0.5,1.4,1c2.9,2.5,5.8,4.9,9.7,5.9c0.7,0.2,1.2,0.8,1.8,1.2c1.8-0.9,3.1-2.2,4.1-3.8
		c1.9-3.2,3.7-6.4,5.4-9.7c1.2-2.3,1.8-4.9,1.8-7.5c0-2.3,0-4.7,0-7c0-0.9-0.3-1.8,0-2.6c1.2-3.2,0.8-6.6,1.1-9.9
		c0.5-4.1,0-8.1-0.9-12.2c-1.1-5.2-2.3-10.4-3.4-15.5c-1.6-0.9-3-1.6-4.3-2.5c-2.2-1.4-4.3-2.9-6.4-4.4c-0.9-0.7-1.6-1.5-1.8-2.7
		c-0.3-1.3-0.9-2.4-0.9-3.9c0.1-1.7-0.4-3.4-0.8-5.1c-0.1-0.3-0.4-0.6-0.6-0.8c-1.5,1.2-2.9,2.4-4.4,3.4c-2.5,1.6-5.6,2-7.9,3.9
		c-0.3,0.2-0.7,0.2-1.1,0.3c-3.4,0.7-6.6,0.5-9.6-1.4c-1.5-0.9-3.1-1.5-4.7-2.2c-1.5-0.7-3-1.4-4.5-2.1c-0.3,4.8-0.6,9.3-1,13.8
		c0,0.2-0.2,0.3-0.4,0.6c-1.8-1-0.7-3-1.7-4.5c-1.1,1.2-2.1,2.1-2.8,3.2c-0.9,1.4-2.1,2.4-3.4,3.3c-1.9,1.2-3.7,2.4-5.5,3.5
		c-0.2,1-0.4,1.8-0.6,2.7c-4.6,15.4-5.3,31.1-4.9,47c0.1,4.8,2,8.9,5.1,12.4c0.7,0.8,1.6,1.6,2.5,2.2c1.4,0.8,2.8,1.5,3.8,2.8
		c0.5,0.7,1.5,1.2,2.6,1c2.1-2.4,4.6-4.2,7.3-5.6c2.9-1.4,5.9-2.4,8.8-3.5c0.8-3.4,1.3-6.9,2.9-9.8c1.2-0.5,2.2-0.9,3-1.2
		c0.9-1.5,1.7-2.7,2.5-3.9c0.3-0.5,1-0.8,1.7-0.1C186.3,172.7,185.1,174.2,184.7,175.9z M218.4,255.9c-0.5-0.4-1.1-0.8-1.7-1.3
		c-2.8-2-5.8-3.9-8.4-6.1c-2.8-2.4-5.9-4.5-8.9-6.7c-2-1.5-4.2-2.5-6.3-2.9c-7.4,2.6-14.4,1.9-21.5,0c-3.3,1.8-6.6,3.7-9.6,6.1
		c-4.5,3.7-9.1,7.2-14,10.4c-0.6,0.4-1.4,0.7-1.8,1.3c-1.6,2.5-4.3,3.2-6.7,4.3c-0.8,0.4-1.6,0.6-2.4,1c-2.2,1.4-4.2,3.2-6.4,4.4
		c-2.5,1.3-3.6,3.9-6.1,5.2c0.3,0.9,0.6,1.6,0.9,2.2c0.7,1.3,1.3,2.7,2.1,3.9c1.2,1.9,2.4,3.8,4.9,4.2c0.5,0.1,0.9,0.5,1.3,0.7
		c4,2.6,8.4,4.1,13,5.3c7.8,2,15.8,2.7,23.8,3.1c1,0.1,2,0,3,0.1c4.6,0.7,9.1,0.5,13.7,0.5c2.6,0,5.2-0.4,7.7-1.2
		c8.1-2.4,15.9-5.4,23-10.1c4.4-2.9,5.2-3,5.9-9.4c0-0.1,0-0.2,0-0.6c-1.9-2.3-3.1-5.3-5.8-7.6C218,260.7,218.2,258.4,218.4,255.9z
		 M72.7,585.4c0.8-0.9,1.4-1.9,2.2-2.5c2.2-1.8,4.6-3.4,7.6-3.6c3.4-0.2,6.7,0.2,9.9,1.3c1.3,0.4,2.1,1.4,2.2,2.7
		c0,0.5-0.3,1.2-0.7,1.5c-0.3,0.2-1,0.3-1.4,0.1c-0.6-0.3-1.2-0.9-1.7-1.3c-0.5-0.5-1-1.1-1.6-1.5c-2.4-1.3-4.9-1.7-7.5-0.8
		c-3.1,1-5.3,2.7-6.8,5.4c0.6,0.4,1.1,0.9,1.8,1.1c0.7,0.2,1.5,0.1,2.2,0.1c7.3,0.1,14.6-0.5,21.8-1.2c1.7-0.2,3.4-0.7,5-1.3
		c1.2-0.4,2.2-1.2,2.2-2.7c0-3.5,0.5-7-0.1-10.3c-0.6-3.6-0.4-7.1-0.4-10.7c0-1.2,0.2-2.5,1.5-3.4c0.7,0.3,1.5,0.6,2.4,0.9
		c1.3-0.9,2.8-1.9,4.1-2.8c0.3-2.5,0.6-4.8,0.4-7.2c-0.2-2.5-0.3-4.9-0.4-7.4c0-3.1,0.1-6.2,0.2-9.3c0.1-2.5-0.3-3.8-1.7-5.7
		c-1.6,0.5-1.9,2.2-2.6,3.2c-2.4-0.1-2.4-0.1-4.2-1.6c-0.2-2.1,0.1-4.3-0.6-6.5c-2.3,0-4.6,0-6.9,0c-0.8,1.3-1.7,2.5-2.4,3.7
		c-0.8,1.3-1.4,2.6-2.1,3.9c-0.4,0.6-0.8,1.3-1.8,1.1c-0.5-0.6-1-1.3-1.4-1.8c-1,0.2-1.9,0.4-2.7,0.6c-1.2,0.2-2.1,0.9-2.5,2
		c-0.9,2.1-1.4,4.2-0.9,7c1.6-2,3.5-1.7,5.3-1.7c2.1,0,4.2-0.1,6.3,0.1c2,0.2,3.9,0.5,5.8,0.9c0.7,0.2,1.3,0.9,1.2,1.7
		c0,0.8-0.5,1.5-1.3,1.7c-1.8,0.4-3.6,0.7-5.5,0.9c-2.3,0.2-4.7,0.1-7,0.1c-2.9,0-2.9,0-5.4-1.9c-0.3,0.5-0.5,1.2-0.9,1.5
		c-0.4,0.3-1.1,0.1-1.8,0.2c-0.8,2.2-1.6,4.6-2.4,6.9c-0.6,1.9-1.4,3.7-3,5c-0.8,0.6-1.3,1.5-2.1,2c-2.2,1.5-3.6,3.6-4.9,5.9
		c-1.4,2.4-2.2,4.9-2.5,7.8c1.4,0.8,1.6,2,1.6,3.5c-0.1,2.3,0.1,4.7-0.1,7C69,582.6,69.9,584.2,72.7,585.4z M271,555.5
		c-1.2-4.2-2.1-8.3-1.8-12.6c0.2-2.7,0-5.4,0-8.2c0-4.6-1.3-8.7-4.1-12.5c-1.5-0.1-3-0.2-4.5-0.2c-1.6,0-3.2-0.1-4.8,0
		c-1.5,0-2.9-0.2-4.4,0.3c-0.3,1-0.5,2-0.8,2.9c-0.7,2.2-1.5,4.5-2.3,6.7c-0.4,1.2-1.3,2.1-2.6,2.2c-0.2-0.1-0.4-0.2-0.4-0.3
		c-0.7-1.9-0.5-4.1-1.8-5.9c0-0.1,0-0.2,0.1-0.5c0.6-0.3,1.2-0.8,2.1-1.3c-0.5-1.1-1-2-1.5-3.1c-1.3,1-1.8,2.3-2.6,3.4
		c-1.3,1.8-1.9,3.7-1.7,5.9c0.3,2.6,0.3,5.2,0.5,7.8c0.1,1.9-0.1,3.7-1,5.4c-0.5,0.8-0.7,1.9-0.8,2.8c0,1.8-0.2,3.4-0.7,5.1
		c-0.4,1.2,0,2.2,0.8,3.1c0.8,0.9,1.6,1.9,2.8,2.3c0.6-0.4,1.1-0.8,1.9-1.4c0.4,1,0.7,1.8,1,2.5c0.3,0.8,0.6,1.6,0.7,2
		c-0.5,1.4-0.9,2.4-1.2,3.4c-0.3,1.2-0.5,2.4-0.7,3.7c-0.5,2.8-0.9,5.6-1.3,8.4c-0.4,2.7,0,5.4,0.6,7.9c8.7,4.2,17.7,5,27,4.6
		c0.4,0,0.8,0,1.1-0.1c2.8-0.9,5.6-1.9,8.6-2.9c0.4-1.3,1-2.7,1.1-4.2c0.1-4.2,0-8.4,0-12.6c0-2.2-0.7-4.1-2-5.9
		c-1.2-1.6-2.4-3.2-3.5-4.8C273.8,557.6,272.9,556,271,555.5z M216.2,126.2c-0.2,0.3-0.3,0.4-0.3,0.5c1,2.6,1.5,5.5,3.1,7.9
		c0.3,0.4,0.4,0.9,0.4,1.4c0.3,5.6,0.6,11.1,0.7,16.7c0.1,4.3-0.8,8.6-0.1,12.9c0.2,1.3-0.2,2.7-0.3,4.1c-0.1,0.9-0.3,1.7-0.4,2.6
		c-0.5,3.1-1.2,6.1-3.2,8.6c-0.5,0.7-0.8,1.5-1.2,2.3c-1.1,2.1-2.2,4.2-3.3,6.2c-1.3,2.2-2.8,4-5,5.3c-0.5,0.3-0.9,0.8-1,0.9
		c0.3,3.5,0.6,6.7,0.8,9.9c0,0.5-0.1,1-0.3,1.4c-0.8,2.2-1.5,4.5-2.5,6.6c-0.6,1.2-0.6,2.3-0.2,3.6c0.4,1,0.8,2.1,1.1,2.9
		c4.9,3.2,9.6,6.5,14.9,8.8c0.6-0.2,1.2-0.4,1.8-0.7c3.5-1.8,6.1-4.6,8.6-7.5c0.3-0.3,0.5-0.9,0.5-1.3c0-2.5,1.8-4.3,2.7-6.4
		c0.1-0.3,0.7-0.4,1.1-0.6c-0.7-6-0.6-11.8-0.1-17.6c0.2-2.2,0.2-4.4,0.3-6.5c-0.9-0.9-1.5-1.8-2.3-2.3c-1.4-1-2.2-2.3-2.9-3.8
		c-1.5-3.6-3-7.3-3.7-11.3c-0.1-0.7-0.2-1.5-0.4-2.2c-0.8-1.9-1-3.8-1.1-5.8c-0.3-3.7-0.5-7.4-1-11.1c-1.2-7.6-2.6-15.1-3.9-22.7
		c-0.1-0.6-0.3-1.2-0.5-1.8C217.7,126.8,217,126.5,216.2,126.2z M159.8,198.1c-3.5-0.6-5.3-3.6-8.3-4.8c-0.5-0.2-0.9-0.9-1.2-1.4
		c-1.1-1.7-2.1-3.4-3.1-5.1c-0.6-1-1-2-1.7-2.9c-1.7-2.1-2.5-4.6-2.8-7.2c-0.3-2.7-0.5-5.4-0.5-8.1c0.1-4.8,0.2-9.6,0.5-14.5
		c0.5-7.9,2.2-15.7,5-23.1c0.3-0.8,0.6-1.5,1-2.8c-1.4,0.4-2.3,0.6-3.1,1.7c-1.1,6.5-2.5,13.3-3.5,20.1c-0.8,5.1-1.1,10.3-1.7,15.5
		c-0.2,1.5-0.2,3.1-0.9,4.3c-1,1.8-1.4,3.7-2.1,5.5c-1,2.8-2,5.6-3.2,8.3c-1,2.3-2.1,4.7-4.3,6.2c0.1,1.4,0.2,2.6,0.4,3.8
		c0.6,5.8,0.6,11.6-0.8,17.3c-0.2,0.8-0.2,1.7-0.4,2.6c-0.6,3.8,0.9,6.8,3.7,9.2c0.6,0.6,1.4,1.1,1.9,1.7c1.7,1.9,3.7,3.3,6.1,3.9
		c1.1,0.3,2.1,0.8,2.9,1.1c6.3-2.4,9.9-4.5,16.1-9.3c0.7-4.6,1.4-9.1,2.1-13.6c0.2-1.1,0.2-2.2-0.8-3.1c-0.8-0.7-1-1.6-1-2.7
		C160.4,200.2,160.1,199.4,159.8,198.1z M243.7,511.2c-1.2-0.2-1.6-0.3-2.1-0.3c-42.7,0-85.3,0.1-128,0.2c-0.2,0-0.4,0.2-0.7,0.4
		c0.2,0.3,0.4,0.7,0.7,0.7c1.2,0.1,2.5,0.1,3.7,0.1c26.3,0.1,52.7,0.2,79,0.3c14.2,0.1,28.4,0.2,42.7,0.3c1.2,0,2.5,0,3.7-0.2
		C242.9,512.6,243.2,512,243.7,511.2z M234.6,216.6c-0.5,3.2-2.1,5-3.7,6.9c-1.2,1.4-2.5,2.7-3.9,4c-1.1,1.1-1.8,2.2-1.7,3.8
		c1.7,1.2,3.6,1.2,5.4,1.7c1.7,0.4,3.4,0.6,5.1,0.8c1.8,0.2,3.6,0.4,5.6,0.6c-1.2-3-2.3-5.7-3.5-8.5
		C236.8,223,236.2,220,234.6,216.6z M139.9,232c0-0.3,0-0.5,0-0.8c-0.9-0.4-1.8-0.7-2.6-1.1c-0.2-0.1-0.4,0.1-0.6,0.2
		c-0.3,0.9-0.6,1.8-0.8,2.6c-1,0.1-1.4-0.4-1.6-1c-0.4-1-0.6-2.1-0.9-3.2c-0.2-0.6-0.3-1.2-0.7-1.7c-1.5-1.8-3-3.6-4.5-5.4
		c-0.1-0.1-0.2-0.1-0.3-0.1c-0.1,0.1-0.2,0.1-0.2,0.2c-0.8,4.8-2.3,9.3-5.4,13.2c-0.5,0.6-1,1.4-0.3,2.6c1-0.1,2.1-0.1,3.1-0.4
		C130,235.7,135.1,234.1,139.9,232z M78.7,545.6c0.3-0.5,0.7-0.9,0.8-1.3c1-2.5,2-5.1,2.8-7.7c0.6-1.9,0.8-3.8,2.4-5.3
		c0.6-0.6,0.7-1.8,0.9-2.8c0.7-3.3,1.3-6.5,2-9.8c0.1-0.6,0.3-1.2-0.3-1.9c-1.1-0.3-2.2,0-3.4,0.4c-0.5,1.9-1,3.7-1.5,5.4
		c-0.8,3.1-1.6,6.2-2.4,9.3c-0.8,3.2-1.6,6.5-2.4,9.7c-0.2,0.7-0.5,1.4-0.5,2.2C77.1,544.6,77.4,545.3,78.7,545.6z M90.5,515.5
		c-0.2,3.9-1.4,7.5-1.7,11.8c2.1-2.6,2.8-5.3,4.3-7.5c-0.3-2.5-0.5-4.9-1.3-7.2c-1.3,0-2.5,0-3.7,0c-0.3,0.8-0.5,1.5-0.8,2.3
		C88.5,515.2,89.6,515.4,90.5,515.5z M173.7,17.4c-0.9,0.6-1.6,0.9-1.7,1.3c-0.6,3.1-1.1,6.3,0.9,9.2c0.6,0.9,1.2,1.9,1.8,2.8
		c0.2,0.3,0.6,0.5,1.1,0.8C176.2,26.6,174.9,22.3,173.7,17.4z M182.5,183.2c-0.1-0.8-0.1-1.5-0.1-2.2c-0.1-1-0.1-1.9-0.3-2.9
		c0-0.3-0.5-0.7-0.7-0.7c-0.4,0.1-1,0.3-1.1,0.7c-0.6,2-1.2,4.1-1.5,6.4C180.2,184,181.3,183.6,182.5,183.2z M188.8,183.1
		c-0.2-1.4-0.4-2.6-0.5-3.8c-0.1-0.9-0.7-1.4-1.4-1.4c-0.8,0-1.4,0.6-1.5,1.3c-0.1,1.3-0.4,2.6,0.3,4.1
		C186.8,183.3,187.8,183.2,188.8,183.1z M150.9,74.6c0.1-1.9,0.2-3.2,0.2-4.5c0-1-0.6-1.6-1.9-2C148.8,71.8,148.8,71.8,150.9,74.6z
		 M175.7,21.8c1.6-1.3,2.1-2.6,2.4-3.9c-0.8-0.6-1.4-0.6-2.2,0.2C175.8,19,175.8,20.2,175.7,21.8z M202.6,197.4
		c-0.5,0.4-1.1,0.8-1.9,1.4c0.9,0.6,1.2,1.5,2.1,1.8C203.5,199.5,204.2,198.4,202.6,197.4z M151.8,53c0.9,0.3,1.6,0.5,2.5,0.8
		c-0.2-1.5-1.1-2.1-1.8-2.9c-0.1-0.1-0.4,0-0.7-0.1C151.8,51.5,151.8,52.1,151.8,53z M178.3,24.1c0.4-0.2,0.8-0.4,0.8-0.4
		c-0.1-0.4-0.3-0.8-0.5-1.2c-0.2,0.1-0.5,0.2-0.5,0.3C178.1,23.2,178.2,23.6,178.3,24.1z M208.2,45.7c-0.1,0.3-0.3,0.6-0.4,0.9
		c0,0,0.1,0.2,0.2,0.2c0.2-0.3,0.5-0.5,0.7-0.8c0,0,0-0.2-0.1-0.3C208.5,45.6,208.4,45.7,208.2,45.7z M150.6,65.3
		c0,0.1-0.1,0.2-0.1,0.2c0,0.1,0.1,0.2,0.2,0.2c0-0.1,0.1-0.3,0.1-0.4C150.7,65.3,150.7,65.3,150.6,65.3z"/>
	<path d="M494.3,550.2c-2.2,0.2-4.4,0.4-6.6,0.6c-1.9,0.2-3.2-0.4-3.3-1.5c-0.1-1,0.7-2.1,2.3-2.6c4.3-1.3,8.6-1.1,12.8,0.3
		c0.2,0.1,0.4,0.2,0.6,0.4c0.9,0.6,1.3,1.5,1,2.1c-0.4,0.8-1.1,0.9-1.9,0.9c-1.6,0-3.2,0-4.8,0C494.3,550.3,494.3,550.2,494.3,550.2
		z"/>
	<path d="M491.2,557.8c-1.2,0-2.5,0-3.7,0c-0.6,0-1.2-0.1-1.8-0.3c-0.8-0.3-1.6-1.2-1.5-1.9c0.1-0.8,0.6-1.4,1.3-1.7
		c0.7-0.3,1.4-0.6,2.1-0.6c2.2-0.1,4.4-0.1,6.7,0.1c1.1,0.1,2.1,0.5,3.1,1c1,0.5,0.9,1.9-0.1,2.4c-0.7,0.4-1.6,0.8-2.4,0.9
		C493.7,557.9,492.4,557.8,491.2,557.8C491.2,557.8,491.2,557.8,491.2,557.8z"/>
	<path d="M487,563.9c-1.4-0.3-2.8-0.5-4.2-1c-0.4-0.1-0.9-1-0.8-1.4c0-0.5,0.6-1.2,1.1-1.3c2.7-0.5,5.3-0.3,7.8,1
		c0.3,0.1,0.5,0.6,0.5,0.9c-0.1,0.4-0.4,1-0.7,1.1C489.5,563.6,488.3,563.7,487,563.9z"/>
	<path d="M691.3,321.5c0.2-0.3,0.4-0.7,0.7-0.8c6.1-2.6,12.4-4.7,18.8-6.6c0.2,0.5,0.3,0.8,0.4,1.2c2,0.1,4.1-1,6.2-0.1
		c0.2,0.1,0.3,0.3,0.7,0.7c-4.9-0.3-9.3,1.4-13.6,2.9c-1.4,0.5-2.7,1.3-4.3,1l0.1,0.1c0.3-0.3,0.6-0.5,0.9-0.9
		c0.2-0.2,0.3-0.5,0.4-0.8c0.9,0.1,1.7,0.2,2.3-0.7c0.2,0,0.5,0,0.7-0.1c0.1,0,0.1-0.2,0.2-0.3c-0.1,0-0.3,0-0.3,0
		c-0.2,0.1-0.3,0.3-0.5,0.5c-0.8,0.1-1.7-0.1-2.3,0.7c-2.3,0.7-4.6,1.5-6.9,2.2C693.6,320.9,692.6,321.8,691.3,321.5L691.3,321.5z
		 M709.4,315.9c-0.1-0.1-0.1-0.1-0.2-0.2c-0.1,0-0.2,0-0.3,0c0.1,0.1,0.1,0.2,0.2,0.2C709.2,316,709.3,315.9,709.4,315.9z
		 M706.7,316.7c0.1,0,0.2,0.1,0.3,0.1c-0.1-0.1-0.2-0.2-0.2-0.3C706.7,316.5,706.7,316.6,706.7,316.7z"/>
	<path d="M777.9,424.6c-0.2,0.3-0.3,0.6-0.5,0.7c-0.3,0.1-0.7,0.2-1.1,0.1c-4.2-1.1-10.5-6.9-10.4-13.3c0.5,0.6,1,1,1.1,1.5
		c1.1,4.8,4.6,7.4,8.6,9.6c0.6,0.3,1.3,0.7,2,1C777.6,424.2,777.7,424.3,777.9,424.6z"/>
	<path d="M658.9,327.5c1.2,5.3,1.4,11.2,0.8,15.7c-0.2-0.1-0.5-0.2-0.6-0.3C658.7,341.4,658.6,331.6,658.9,327.5z"/>
	<path d="M609,313c-3.6-0.4-6.3-0.9-9.1-1c-2.8-0.1-5.6,0.3-9,0.5c0.6-0.6,0.9-1,1.2-1.1C597.6,310.6,603,310.8,609,313z"/>
	<path d="M626.6,326.6c-0.3-0.1-0.7-0.2-1-0.4c-2.8-2.2-5.5-4.5-8.2-6.8c-0.5-0.4-1.3-0.8-1.1-1.9c0.3,0,0.7-0.1,0.9,0.1
		c3.3,2.3,6.3,5.1,9,8C626.5,325.9,626.5,326.4,626.6,326.6L626.6,326.6z"/>
	<path d="M683.2,332.2c1.7-2.6,5.1-5.6,8.2-7.4C690.3,326.8,687.6,329.3,683.2,332.2z"/>
	<path d="M783.1,415.9c0.3,0.2,0.7,0.4,0.8,0.6c0.4,1.7,0.6,3.3-0.3,4.9C782.2,420.2,782.1,418.9,783.1,415.9z"/>
	<path d="M717.8,312.9c-1.9-1.9-3.2-4.1-4-6.7C715.5,308.3,716.9,310.4,717.8,312.9z"/>
	<path d="M645.2,342.2c-2.9-0.1-5.2-1.7-7.7-3.3C639.7,339,643.2,340.6,645.2,342.2L645.2,342.2z"/>
	<path d="M713.6,303.6c-1.5-1-2.1-2.5-3.2-4.3c0.7,0.2,1,0.2,1.1,0.3C712.3,300.9,713.7,301.9,713.6,303.6L713.6,303.6z"/>
	<path d="M763.4,431.4c-1.6-0.8-2.1-2.4-3.1-4.1C762.4,428.5,762.5,428.7,763.4,431.4L763.4,431.4z"/>
	<path d="M719.1,381.8c1.4,1,1.6,2.4,1.8,4C719.5,384.2,719.5,384.2,719.1,381.8z"/>
	<path d="M780.7,500c-0.2-1.2-0.5-2.5-0.7-3.7c0.8-0.5,1,0,1.1,0.5c0.1,1.1,0,2.1,0,3.2C781,499.9,780.8,499.9,780.7,500z"/>
	<path d="M717.1,378.3c-1.6-1.4-1.6-1.9,0-2.6C717.1,376.5,717.1,377.3,717.1,378.3z"/>
	<path d="M655.9,315.4c-0.3-2.1-0.6-3.4,0.8-4.3c0.1,0.4,0.3,0.6,0.2,0.8C656.7,312.8,656.4,313.7,655.9,315.4z"/>
	<path d="M779.3,485c-0.1-0.1-0.2-0.1-0.3-0.2c-0.4-0.5-0.7-1-0.2-1.6c0.1-0.1,0.2-0.1,0.3-0.1c0.7,0.4,0.4,1,0.4,1.6
		C779.4,484.8,779.3,484.9,779.3,485z"/>
	<path d="M598,304.4c-1.4,0.9-2.2,1.3-3.3,0.6C595.5,304.1,596.4,304.2,598,304.4z"/>
	<path d="M779.8,492.6c0-0.8,0-1.5,0-2.4C780.5,491.2,780.6,491.8,779.8,492.6z"/>
	<path d="M642.3,344.5c0.5,0.7,1.5,1.2,1.3,2.4l0.1-0.1C642.9,346.2,642.3,345.4,642.3,344.5L642.3,344.5z"/>
	<path d="M645.2,348.2c0.9,0.5,1.6,1.1,1.4,2.3l0.1-0.1C645.8,349.9,645.1,349.3,645.2,348.2L645.2,348.2z"/>
	<path d="M769.9,445.8c-0.2,0.3-0.4,0.5-0.5,0.6c-0.3-0.3-0.6-0.6-0.8-0.9c0-0.1,0.3-0.4,0.5-0.6
		C769.3,445.2,769.6,445.5,769.9,445.8z"/>
	<path d="M713.9,370.3c0-0.4,0-0.7,0-1c0.2,0,0.5-0.1,0.6,0c0.1,0.1,0.2,0.5,0.2,0.6C714.5,370.1,714.2,370.1,713.9,370.3z"/>
	<path d="M771,450.6c-0.2-0.3-0.3-0.7-0.5-1c0.2-0.1,0.4-0.1,0.6-0.2c0.1,0.3,0.2,0.7,0.3,1C771.3,450.5,771.1,450.5,771,450.6z"/>
	<path d="M593.1,315.5c-0.4,0.4-0.8,0.8-1.6,0.3C592.1,315.7,592.7,315.6,593.1,315.5L593.1,315.5z"/>
	<path d="M700.2,319.9c-0.1,0.2-0.2,0.4-0.3,0.5c-0.2,0.1-0.4,0-0.6,0c0.1-0.1,0.2-0.3,0.3-0.3C699.8,320,700,320,700.2,319.9
		L700.2,319.9z"/>
	<path d="M645.1,342.3c0.4,0,0.7,0.1,1.3,0.1C645.7,342.9,645.4,342.7,645.1,342.3L645.1,342.3z"/>
	<path d="M691.3,321.4c-0.2,0.8-0.9,0.7-1.4,0.8l0.1,0.1C690,321.3,690.7,321.4,691.3,321.4L691.3,321.4z"/>
	<path d="M689.8,322.2c-0.2,0.2-0.5,0.3-0.2,0.1C689.3,322.4,689.6,322.3,689.8,322.2L689.8,322.2z"/>
	<path d="M593.2,315.6c0.2-0.2,0.5-0.3,0.3-0.2C593.7,315.3,593.4,315.4,593.2,315.6L593.2,315.6z"/>
	<path d="M611.7,312.6c0.2,0.2,0.4,0.5,0.2,0.3C612,313.1,611.9,312.8,611.7,312.6L611.7,312.6z"/>
	<path d="M607.2,309.7c0.2,0,0.4,0,0.7,0c0.1,0,0.2,0,0.3,0.1c-0.1,0.1-0.3,0.2-0.4,0.2C607.6,309.9,607.4,309.7,607.2,309.7
		L607.2,309.7z"/>
	<path d="M763.3,431.5c0.1,0,0.2,0.1,0.3,0.1C763.5,431.5,763.5,431.4,763.3,431.5L763.3,431.5z"/>
	<path d="M646.6,350.5c0.6-0.2,0.8,0.2,0.8,0.7l0.1-0.1C646.9,351.2,646.7,350.9,646.6,350.5L646.6,350.5z"/>
	<path d="M644.4,347.5c0.3,0.2,0.5,0.5,0.8,0.7l0.1-0.1C644.7,348.3,644.5,347.9,644.4,347.5L644.4,347.5z"/>
	<path d="M643.6,346.8c0.6-0.1,0.8,0.2,0.8,0.7l0.1-0.1C644.2,347.2,644,347,643.6,346.8L643.6,346.8z"/>
	<polygon points="642.4,344.4 642.2,344.4 642.3,344.5 	"/>
	<path d="M627.3,327.5c0.1,0.1,0.3,0.2,0.4,0.3c-0.1,0-0.2,0-0.2,0C627.5,327.6,627.4,327.5,627.3,327.5L627.3,327.5z"/>
	<path d="M626.6,326.7c0.6,0,0.8,0.3,0.7,0.8l0.1-0.1C627.1,327.1,626.9,326.9,626.6,326.7L626.6,326.7z"/>
	<path d="M611,311.9c0.2,0.2,0.5,0.5,0.7,0.7l0.1-0.1C611.6,312.3,611.3,312.1,611,311.9L611,311.9z"/>
	<path d="M610.3,311.1c0.2,0.3,0.4,0.6,0.6,0.9l0.1-0.1C610.9,311.5,610.6,311.3,610.3,311.1L610.3,311.1z"/>
	<polygon points="610.4,311 610.2,310.9 610.3,311.1 	"/>
	<polygon points="714.3,304.4 714.5,304.5 714.4,304.3 	"/>
	<path d="M713.5,303.7c0.6-0.1,0.7,0.3,0.8,0.7l0.1-0.1C714.1,304.1,713.8,303.8,713.5,303.7L713.5,303.7z"/>
	<path d="M546.1,425.1c-1.3-0.3-1.8-1.1-1.9-2.1c-0.1-1.5-0.1-3,0.6-4.3c1.5-3.1,3-6.2,4.6-9.2c0.1-0.3,0.6-0.4,0.8-0.6
		c1.1,0.4,0.8,1.3,0.5,1.9c-0.8,1.6-1.7,3.3-2.8,4.7c-2,2.5-2.5,5.2-1.8,8.3C546.2,424.1,546.1,424.6,546.1,425.1z"/>
	<path d="M572.8,411.9c-1.7-3.4-1.9-9.6-0.7-12.8c1.1-0.3,1.4,0.5,1.4,1.2c0.1,2.3,0.2,4.7,0.1,7C573.5,408.7,573.2,410,572.8,411.9
		z"/>
	<path d="M604.7,396.7c-0.4-0.6-0.9-1-0.9-1.4c0.5-3.1,0.9-6.3,2.2-9.3c0.1-0.2,0.6-0.3,1-0.5c0.9,2.3,0,4.4-0.4,6.6
		C606.3,393.6,605.9,395.2,604.7,396.7z"/>
	<path d="M552.5,449.3c1.2-2.8,3.4-4.7,5.6-6.6c0.1-0.1,0.5-0.1,0.7,0c0.2,0.1,0.3,0.3,0.6,0.6c-1.8,2.5-3.8,4.7-6.3,6.4
		C553.1,449.7,552.8,449.5,552.5,449.3z"/>
	<path d="M556.3,431.8c2.3-2.6,4.6-5.2,6.9-7.8c0.7,0.7,0.4,1.5-0.2,2.1c-1.8,2-3.7,3.9-5.6,5.8c-0.1,0.1-0.4,0.2-0.7,0.2
		C556.7,432.1,556.6,432,556.3,431.8z"/>
	<path d="M519.6,504.8c-0.5,0.7-0.9,1.4-1.4,2.2C517.5,506.2,517.7,505.7,519.6,504.8z"/>
	<path d="M609.1,366.5c0.7,1.3-0.2,1.9-0.6,3C608,368.1,607.9,367.1,609.1,366.5z"/>
	<path d="M521.5,498.7c-0.2,0.9-0.4,1.8-0.8,3.3C520.1,500.2,519.8,499.2,521.5,498.7z"/>
	<path d="M550.7,452.8c0,1.6-0.4,2.3-1.3,2.8C548.8,455.1,548.9,454.7,550.7,452.8z"/>
	<path d="M607.6,376.1c-0.6-1.2-0.5-2.1,0.6-3.3C608.7,374.3,608.3,375.2,607.6,376.1z"/>
	<path d="M573.2,413.1c0.7,0.8,1.1,1,1.2,1.4c0.2,0.7-0.2,1.2-1.2,1.2C573.2,415,573.2,414.4,573.2,413.1z"/>
	<path d="M606.9,381.9c-0.1-0.3-0.2-0.4-0.2-0.5c0-0.5,0-1,0.6-1c0.1,0,0.3,0.1,0.3,0.1c-0.1,0.4-0.1,0.8-0.2,1.2
		C607.3,381.7,607.1,381.8,606.9,381.9z"/>
	<path d="M576.2,419.5c-0.4,0.3-0.7,0.7-0.9,0.7c-0.6,0.1-0.8-0.4-0.7-0.9c0.1-0.3,0.5-0.7,0.6-0.6
		C575.5,418.8,575.7,419.1,576.2,419.5z"/>
	<path d="M522.6,494.4c0.1-1,0.1-1.6,0.2-2.4C523.6,492.9,523.3,493.5,522.6,494.4z"/>
	<path d="M544.9,461.9c-0.1-0.6-0.2-1.3,0.7-1.4l-0.1-0.1C545.6,461,545.7,461.6,544.9,461.9L544.9,461.9z"/>
	<path d="M574.6,395.7c0.2-0.5,0.5-0.9,0.7-1.4l-0.1-0.1c-0.2,0.5,0,1.2-0.8,1.4L574.6,395.7z"/>
	<path d="M574.5,395.7c0,0.2,0,0.5,0,0.7c0,0.1-0.1,0.2-0.2,0.3c-0.1-0.2-0.3-0.4-0.2-0.5c0.1-0.2,0.3-0.3,0.5-0.4L574.5,395.7z"/>
	<polygon points="544.9,461.8 544.7,462.1 544.9,461.9 	"/>
	<path d="M545.7,460.5c0.1-0.1,0.2-0.2,0.2-0.4c0,0.1,0,0.2-0.1,0.2C545.8,460.4,545.7,460.4,545.7,460.5L545.7,460.5z"/>
	<polygon points="575.4,394.4 575.5,394.2 575.3,394.3 	"/>
	<path d="M638.7,257.7c-0.2-0.3-0.3-0.6-0.6-1.2c1.1-1.4,3-1.3,4.4-1.9c1.5-0.7,3-1.4,4.6-2.1c1,1.6-1.2,1.9-1.3,3l0.1-0.1
		c-2.5,0.8-4.9,1.5-7.4,2.3L638.7,257.7z"/>
	<path d="M648.2,225.5c1.3,1.9,2.5,3.5,3,5.7c-2-0.6-2.4-0.9-3.3-2.6C647.5,227.7,647,226.8,648.2,225.5z"/>
	<path d="M582.5,269.2c-2.6,0.4-3,0.2-4.6-2.2c0.2-0.2,0.4-0.5,0.5-0.4C580.1,266.9,581.5,267.7,582.5,269.2z"/>
	<path d="M620.7,156.4c-2.3,0.3-4,0.3-5.7-0.9c1.1-1,2.2-0.7,3.2-0.5C619,155,619.9,155.1,620.7,156.4z"/>
	<path d="M612.5,194.2c0.9,1.8,0.6,2.9-0.3,4c-0.3-0.1-0.6-0.2-0.7-0.3C611.1,196.6,611.1,196.6,612.5,194.2z"/>
	<path d="M655.9,238.6c-0.5-0.4-1-0.6-1.4-1.1c-0.3-0.3-0.4-0.9,0.1-1.2c0.3-0.1,0.7-0.1,1,0.1C656.3,236.8,656.4,237.1,655.9,238.6
		z"/>
	<path d="M593.4,268.5c-1.3,0.9-2,0.6-2.8-0.1C591.8,267.4,591.8,267.4,593.4,268.5z"/>
	<path d="M638.6,257.6c-1,2-1,2-2.6,1.9c0.6-1.2,1.2-2.2,2.7-1.8L638.6,257.6z"/>
	<path d="M587,268.5c0.4,0.4,0.7,0.7,1,1c-0.2,0.2-0.4,0.6-0.6,0.6c-0.5,0.1-1-0.1-1-0.7C586.4,269.1,586.7,268.9,587,268.5z"/>
	<path d="M632.1,261.5c0.2,0.3,0.3,0.4,0.4,0.6c-0.2,0.1-0.5,0.3-0.7,0.4c0,0-0.3-0.2-0.3-0.2C631.7,262.1,631.9,261.8,632.1,261.5z
		"/>
	<path d="M611.3,191.3c-0.1-0.7-0.2-1-0.2-1.3c0-0.1,0.3-0.3,0.4-0.4c0.1,0.2,0.3,0.4,0.3,0.6C611.8,190.4,611.6,190.7,611.3,191.3z
		"/>
	<path d="M749.3,266.5c0.9,0.9,1,1.5,0.5,2c-1.3,1.2-2.8,1.8-4.9,1.4c0.4-0.7,0.5-1.3,0.9-1.6C746.9,267.6,748.1,267.1,749.3,266.5z
		"/>
	<path d="M707.5,154.4c1.9-2.4,3.8-1.6,6.3-1.8C711.7,154.7,709.8,154.2,707.5,154.4z"/>
	<path d="M744.6,252c2.1-0.6,2.1-0.6,2.6,0.9C745.4,253,745.4,253,744.6,252z"/>
	<path d="M716.9,187.2c0.5,0.5,0.6,1,0,1.5C716.4,188.2,716.3,187.7,716.9,187.2z"/>
	<polygon points="741.3,201.9 741.4,201.6 741.5,201.9 	"/>
	<polygon points="737.2,269.8 736.9,269.9 737,269.6 	"/>
	<path d="M662.6,168.1c0.9,0.4,1.6,0.5,2.2,0.9c1.8,1.3,3.8,1.3,5.7,0.7c1.7-0.5,3.6-0.8,4.4-3c0.2-0.6,1-1,1.6-1.4
		c4.8-2.9,9.5-5.7,14.3-8.6c0.7-0.4,1.5-0.9,2.6-0.2c-0.2,0.6-0.4,1.2-0.6,1.7c0.2,0.3,0.5,0.6,0.7,0.9c-0.4,0.2-0.8,0.5-1.1,0.5
		c-2.2,0-4,1.1-5.8,2.2c-2.5,1.5-5.2,2.9-7.8,4.3c-1.7,0.9-3.8,1.3-4.5,3.4c-1.1,0.6-2.1,1.3-3.2,1.7c-0.8,0.3-1.7,0.2-2.5,0.5
		c-2.5,0.8-4.3-0.4-6-1.9c-0.2-0.1-0.2-0.4-0.3-0.7C662.2,169,662.4,168.8,662.6,168.1z"/>
	<path d="M660.5,168.1c-0.5,0-1,0.2-1.4,0.1c-6.4-1.4-12.9-1.6-19.4-3.6c0.8-1.2,1.8-1.2,2.7-1c3.8,0.6,7.6,1.1,11.3,1.8
		c1.9,0.3,3.8,0.9,5.7,1.5c0.4,0.1,0.8,0.5,1.2,0.7C660.6,167.7,660.5,167.9,660.5,168.1z"/>
	<path d="M676.5,155.7c-0.2-0.8-0.5-1.2-0.4-1.5c0.6-2,1.2-4,1.9-5.9c0.1-0.4,0.5-0.7,0.9-1.2c0.3,0.4,0.7,0.7,0.7,0.9
		C679.5,150.4,678.4,153.1,676.5,155.7z"/>
	<path d="M675.4,162.6c-1.4-2.3-1.4-2.7-0.1-4.6C676.1,159.4,675.8,160.8,675.4,162.6z"/>
	<path d="M647.3,143.5c1,0,1.1,0.8,1.3,1.5c0.1,0.2-0.1,0.5-0.2,0.6c-0.1,0.1-0.5,0.1-0.6,0C647.3,145,646.6,144.4,647.3,143.5z"/>
	<path d="M683.6,136.5c0.9,1.3,0.9,2.2,0.1,3C682.8,139.5,682.8,139,683.6,136.5z"/>
	<path d="M638.4,161.2c-1.6,1-1.6,1-3.8-0.3C636.1,161,637.1,161.1,638.4,161.2z"/>
	<path d="M649.7,149.7c0.3-0.2,0.4-0.3,0.6-0.4c0.2,0.3,0.4,0.5,0.5,0.8c0,0-0.2,0.2-0.3,0.2C650.3,150.1,650,149.9,649.7,149.7z"/>
	<path d="M682.7,145.8c-0.2-1-0.2-1.3-0.3-1.7c0.2,0,0.4,0,0.5,0C682.9,144.5,682.9,144.8,682.7,145.8z"/>
	<polygon points="664.9,185 665,185.2 664.8,185.2 	"/>
	<path d="M642.2,82.1c-0.4-0.2-1-0.6-1.8-1.2c1.6-1,2.9-1.9,4.3-2.7c-0.5-0.7-1.1-0.4-1.6-0.2c-0.9,0.3-1.7,0.7-3.1,1.1
		c3.9-4.5,12.6-3,14.6,2c-0.2,0.3-0.4,0.6-0.7,1c-0.7-0.2-1.3-0.4-2.1-0.7c-0.7,0.5-1.5,1-2.2,1.5c-1.9-0.1-3.3-0.8-4-2.4
		C644.1,80.2,643.6,81.9,642.2,82.1z"/>
	<path d="M675.9,82c-1.6-0.5-3.6,0.1-4.5-1.9c-1.1,0.8-1.9,1.3-2.7,2c-0.4-0.3-0.8-0.6-1-0.9c1.2-1.4,2.2-2.8,3.3-4.1
		c0.5-0.5,1.1-1.1,1.8-1.3c3.5-0.6,6.8-0.2,9.8,1.8c0,0,0,0.2,0,0.3c-1.9,0.2-3.6-1.6-5.8-0.8c1.6,1.5,4,1.5,5.6,3.2
		c-1.8,1.2-3.1-0.6-4.8-0.4c-0.5,0.6-1.1,1.4-1.7,2.1L675.9,82z"/>
	<path d="M652.2,109.9c0.3-0.5,0.3-0.6,0.4-0.7c2.4-0.3,4.7-1.3,7.1-1.8c1.8-0.4,3.7,0,5.5,0.1c0.7,0.1,1.4,0.4,2.2,0.5
		c1.9,0.3,3.8,1.2,5.8,0.5c0.2-0.1,0.7,0.4,0.7,0.6c0,0.2-0.3,0.7-0.5,0.8c-1.1,0.2-2.2,0.4-3.3,0.5c-4.4,0.1-8.9,0.1-13.4,0.2
		C655.3,110.7,653.8,110.6,652.2,109.9z"/>
	<path d="M655,113.5c2.1,1,4.3,1.2,6.5,1.2c2.7,0,5.4,0.2,7.8-1.4c0.3-0.2,0.7,0,1.1,0c0.1,0,0.2,0.1,0.4,0.3
		c-2.8,3.6-6.7,3.7-10.6,3.1c-1.7-0.3-3.2-1.1-4.8-1.7C654.9,114.9,654.4,114.6,655,113.5z"/>
	<path d="M664.6,72.8c0.4-0.5,0.7-0.9,1-1.1c0.9-0.4,1.8-0.8,2.8-0.9c4.1-0.8,8.3-0.9,12.5-0.4c0.8,0.1,1.6,0.5,2.9,0.9
		c-0.7,0.3-1,0.5-1.2,0.5c-5.1-1-10,0.1-15,1.2c-0.6,0.1-1.2,0.3-1.8,0.3C665.5,73.2,665.2,73,664.6,72.8z"/>
	<path d="M656.2,74.5c-5.7-2.7-10.9-3.6-16.5-2.3c0.2-0.4,0.2-0.9,0.3-1c5.3-2,10.4-1.3,15.2,1.5C655.6,72.9,655.7,73.4,656.2,74.5z
		"/>
	<path d="M664.1,98.7c1.6-1.6,2.9-1,4,0.1c1.9-0.9,0.3-2.4,1.2-3.6c1.2,0.8,1.2,2,0.9,3.1c-0.3,0.9-0.9,1.5-1.9,1.5
		C666.9,99.9,665.5,100.1,664.1,98.7z"/>
	<path d="M680.8,42c0.4-0.2,0.8-0.4,1.4-0.6c-0.1,1.2-0.3,2.1-0.3,3c0,1,0.3,1.9,0.4,2.8c-1.2,0.9-2.2,0.3-3.4-0.4
		C679.6,45.3,680.2,43.6,680.8,42z"/>
	<path d="M651.1,83.9c-1.5,1.2-2.6,1.1-3.9,0.4C648.3,83.2,649.4,83.4,651.1,83.9z"/>
	<path d="M661.1,99.8c-0.4,0.1-0.9,0.2-1.3,0.3c-0.3,0-0.7-0.1-1-0.2c-0.3-0.8-0.1-1.3,0.6-1.5C660.3,98.2,661.1,98.5,661.1,99.8z"
		/>
	<path d="M666.4,75.5c-0.3,1.6-0.3,1.6-1.3,3c-0.4-0.9,0.3-1.6,0.6-2.3C665.7,76,666.1,75.8,666.4,75.5z"/>
	<path d="M685.1,66.8c0.1,0.9,0.1,1.6,0.1,2.2c0,0-0.5,0.2-0.5,0.1C684.1,68.6,684.2,68,685.1,66.8z"/>
	<path d="M640.6,50.5c-0.2,0.4-0.2,0.5-0.2,0.6c-0.2-0.2-0.5-0.3-0.7-0.5c-0.1-0.1,0.1-0.3,0.2-0.5
		C640.1,50.2,640.4,50.4,640.6,50.5z"/>
	<path d="M656,79.7c0.4,0.7,0.7,1.1,1.1,1.8C655.8,81.2,655.8,81.2,656,79.7z"/>
	<path d="M675.8,82.1c0.4,1.3,0.4,1.4-0.4,1.4c-0.2,0-0.4-0.1-0.6-0.2c0.4-0.4,0.8-0.8,1.1-1.3L675.8,82.1z"/>
	<path d="M657.1,99.4c-0.2,0.2-0.4,0.3-0.5,0.4c-0.2-0.3-0.3-0.6-0.5-0.8c0,0,0.2-0.2,0.3-0.2C656.6,99,656.8,99.2,657.1,99.4z"/>
	<path d="M663.7,96.8c-0.2-0.2-0.4-0.5-0.4-0.5c0.2-0.2,0.5-0.4,0.7-0.6c0.1,0.2,0.4,0.4,0.3,0.4C664.2,96.3,663.9,96.5,663.7,96.8z
		"/>
	<path d="M664.3,82.4c-0.1,0.2-0.1,0.3-0.2,0.5c0-0.1-0.1-0.2-0.1-0.3c0-0.2,0.1-0.3,0.2-0.5C664.2,82.2,664.2,82.3,664.3,82.4z"/>
	<path d="M656.4,96.3c0-0.2,0-0.5,0.1-0.7c0-0.1,0.2-0.2,0.4-0.3c0,0.1,0.1,0.3,0.1,0.3C656.7,95.8,656.5,96,656.4,96.3
		C656.3,96.2,656.4,96.3,656.4,96.3z"/>
	<path d="M637.6,57.4c0,0.1,0.1,0.2,0.1,0.3c-0.1,0-0.2,0.1-0.4,0.1c0-0.1,0-0.2,0.1-0.3C637.4,57.4,637.5,57.5,637.6,57.4z"/>
	<path d="M638.6,52.5c0.1,0.2,0.2,0.4,0.4,0.6C638.8,52.8,638.7,52.6,638.6,52.5L638.6,52.5z"/>
	<path d="M656.3,96.2c0,0.2,0.1,0.4,0,0.7c0,0.1-0.1,0.2-0.2,0.3c-0.1-0.2-0.3-0.4-0.3-0.5C655.9,96.5,656.2,96.4,656.3,96.2
		L656.3,96.2z"/>
	<path d="M636.2,59.2c0.1,0,0.2,0,0.3,0.1C636.5,59.2,636.4,59.1,636.2,59.2L636.2,59.2z"/>
	<path d="M638.6,52.4c-0.1,0-0.2,0-0.4-0.1C638.4,52.4,638.5,52.4,638.6,52.4L638.6,52.4z"/>
	<path d="M683.3,301.3c-0.2-0.7-0.6-1.1-0.4-1.3c2.3-3.5,3.1-7.5,4-11.4c0-0.1,0.2-0.2,0.3-0.4c0.2,0.2,0.6,0.3,0.7,0.6
		c0.8,2.2,0.1,4.4-0.6,6.5C686.6,297.5,685.8,299.8,683.3,301.3z"/>
	<path d="M631.4,302.2c-1.7-1.4-2-3.1-2.6-4.7c-0.7-2-1-4.1-0.6-6.2c0.1-0.5,0.6-1,1.1-2c0.3,1.8,0.5,3.1,0.8,4.4
		c0.3,1.3,0.6,2.6,0.8,4C631.2,299.1,632.2,300.3,631.4,302.2z"/>
	<path d="M654.2,297.7c-0.3-1.5,0.4-2.6,1.6-3.1c2.2-0.9,4.3-0.7,6.3,0.6c-0.3,1.3-1.2,1.6-2.1,2.4c-0.9-0.3-2-0.7-3-0.8
		C656.1,296.9,655.2,297.4,654.2,297.7z"/>
	<path d="M677.3,273.8c0.7,0.8,1.1,1.1,1.3,1.5c0.6,1.1,1.4,1.9,2.6,2.4c1.9,0.8,2.9,2.6,3.4,4.6c0.1,0.3-0.2,0.8-0.4,1.4
		c-0.5-0.4-0.9-0.5-1-0.8c-1.2-2.2-2.5-4.2-4.8-5.4c-0.7-0.4-1-1.3-1.4-2.1C676.8,275.1,677,274.7,677.3,273.8z"/>
	<path d="M631.5,283.3c-0.8-1.9-0.7-2.9,0.5-4.7c0.7-1,1.4-2,3-1.6C633.9,279.2,632.7,281.2,631.5,283.3z"/>
	<path d="M682.7,270c0.8-2.6,1.7-4.7,4-6.4c0.1,0.7,0.3,1.3,0.1,1.5c-1.3,1.5-2.3,3.1-3.3,4.8C683.4,269.9,683.2,269.9,682.7,270z"
		/>
	<path d="M667,264c0.4-0.5,0.9-0.2,1.3,0c1.4,0.9,1.5,1,2.7,3.1C669.3,267,668.7,266.5,667,264z"/>
	<path d="M638.3,272.1c-0.4,0.5-0.7,0.9-1.1,1.4c-0.5,0.6-1.1,1.2-1.8,1.9c-0.7-1.5,0.1-2.3,0.8-3.1
		C636.7,271.7,637.4,271.5,638.3,272.1z"/>
	<path d="M830.7,572.3c-1.8-0.2-3.1-1-4-2.5c-0.4-0.7-1.3-1.1-2.1-1.4c-1.1-0.5-2.1-0.3-3.1,0.6c-1.6,1.5-3.3,3-4.9,4.5
		c-0.5,0.5-1.1,0.9-2.1,1.6c0.1-1.1-0.1-1.8,0.2-2.1c0.8-1.1,1.8-2,2.8-3c1.2-1.2,2.5-2.3,3.8-3.6c3.3-0.6,5.8,1.4,8.3,3
		C830.5,569.9,831.2,570.9,830.7,572.3z"/>
	<path d="M804.1,544.5c-0.7-0.2-1.6-0.2-2.4-0.5c-0.9-0.4-1-1.9-0.2-2.4c0.6-0.4,1.3-0.7,2-0.8c2.2-0.2,4.4-0.2,6.6-0.3
		c0.5,0,1,0.2,1.4,0.3c0.7,0.2,0.9,1.4,0.4,1.8c-0.5,0.4-1,0.8-1.6,0.9C808.3,543.9,806.3,544.2,804.1,544.5z"/>
	<path d="M808.1,549.6c-1.2-0.3-2.4-0.4-3.4-0.8c-0.4-0.2-0.9-0.9-0.9-1.4c0-0.5,0.5-1.2,1-1.4c2.4-0.7,4.9-0.5,7.2,0.1
		c0.4,0.1,0.8,0.9,0.9,1.4c0.1,0.3-0.4,1-0.8,1.1C810.9,549,809.4,549.3,808.1,549.6z"/>
	<polygon points="671.3,29.6 671.3,29.3 671.3,29.5 	"/>
	<path d="M107,415.4c-0.2-0.1-0.5-0.1-0.6-0.3c-2-3.7-3.9-7.4-2.3-11.9c0.6-1.6,0.5-3.4,0.8-5.1c0.1-0.5,0.4-1,0.5-1.5
		c0.9,0,1.1,0.5,1.1,1c0.3,2.1,0.1,4.2-0.8,6.2c-0.8,1.9-0.5,3.6,0.2,5.3c0.6,1.5,1.2,3,1.8,4.5C108,414.3,107.9,415.1,107,415.4z"
		/>
	<path d="M236,401.8c1.1,0.7,1.1,0.7,1.4,6.7c1.3,1.4,2.6,3,4.2,4.3c1.5,1.4,3.7,1.8,5.1,3.3c-0.2,0.9-0.7,0.8-1.2,0.7
		c-3.5-0.8-6.4-2.4-8.3-5.6c-0.6-1-1.7-1.8-1.7-3.2C235.6,405.9,235,403.8,236,401.8z"/>
	<path d="M192,316.3c0-0.5,0-1.1,0-1.6l-0.1,0.1c0.3-0.3,0.6-0.6,0.9-0.9l-0.1,0.1c0.5-0.3,0.3-0.6,0-0.9l0.1,0.1
		c1.8-2.3,4.4-3.5,6.8-4.9c1.6-0.9,3.3-1.7,5-2.5c2.4-1,4.7-2.2,6.7-3.8l-0.1-0.1c0.3,0.4,0.6,0.7,1.1,1.3
		C204.9,306.8,197.7,310.4,192,316.3L192,316.3z"/>
	<path d="M142,305.2c0.6,0.1,1.3,0,1.8,0.3c5.9,3.6,10.9,8.2,14.9,13.7c1,1.4,1.7,3,1,4.9c-0.2-0.2-0.5-0.3-0.6-0.4
		c-0.3-2.4-1.6-4.4-3.2-6.2c-3.4-3.9-7.3-7.4-11.6-10.4c-0.5-0.3-1.1-0.4-1.7-0.6l0.1,0.1c0-0.6-0.3-0.8-0.9-0.9l0.1,0.1
		C142.2,305.6,142.1,305.4,142,305.2L142,305.2z"/>
	<path d="M130.2,299.9c-0.7-0.1-1.4-0.2-2.1-0.4c-1.6-0.6-3.2-1.2-5-1.3c-0.6,0-1.1-0.4-1.7-0.5c-0.7-0.2-1.3-0.6-2-0.6
		c-1.6-0.1-3.2-0.1-4.8-0.1l0.1,0.1c0.3-0.2,0.5-0.6,0.9-0.6c5.7-0.7,11.3-0.2,16.5,2.4c0.2,0.1,0.3,0.4,0.5,0.6
		c-0.3,0.1-0.7,0.3-1,0.4l0.1,0.1C131.2,298.8,130.7,299.6,130.2,299.9L130.2,299.9z"/>
	<path d="M237.7,432.7c1.7,0.6,1.9,2,2.3,3c0.8,2.3,2,4.5,1.6,7.3c-1.8-0.5-2.2-2-2.8-3.2C237.1,436.1,237,435.1,237.7,432.7z"/>
	<path d="M254.2,403.6c2.2,2.3,1.5,4.6,1.6,6.7c0.1,2.7,0,2.7-1,4c-0.9-0.4-1.1-1.3-1.1-2.1C253.7,409.5,253.2,406.8,254.2,403.6z"
		/>
	<path d="M258.5,430.8c0.3,0.4,0.8,0.8,0.9,1.2c0.3,2.9,0.6,5.8-0.1,8.7c-0.4-0.1-0.7-0.1-0.9-0.2c-1.1-1.5-1-3.2-1-4.9
		C257.4,433.9,257.2,432.3,258.5,430.8z"/>
	<path d="M133.2,296.9c-0.6-0.1-1.2-0.2-1.7-0.5c-4.3-2.2-8.9-3.5-13.8-3.5c-0.4,0-0.8-0.2-1.8-0.5c0.7-0.4,1-0.6,1.3-0.6
		c5.5-0.1,10.7,1.3,15.4,4.2C132.9,296.3,133,296.7,133.2,296.9L133.2,296.9z"/>
	<path d="M128.7,401c-1.7,1.2-2.9,0.5-3.9-0.4c-1.8-1.7-3.3-3.6-2.6-6.6c1.7,1,1.8,2.8,2.9,3.9C126.1,398.9,127.3,399.8,128.7,401z"
		/>
	<path d="M219.4,297.6c3.8-2.1,12.7-3.3,16.6-2.4C230.4,295.4,224.9,296.9,219.4,297.6z"/>
	<path d="M207.5,370.3c-0.9-2.6-1.8-5.1-1.4-7.8c1.2-0.1,1.3,0.7,1.5,1.4C208.3,366.1,208.8,368.2,207.5,370.3z"/>
	<path d="M107.7,420.8c0,0.8,0.2,1.7,0,2.5c-0.4,1.8-0.8,3.6-0.2,5.4c0.2,0.5-0.3,0.8-0.9,0.7C105.6,424.9,105.7,423.6,107.7,420.8z
		"/>
	<path d="M143.9,366.1c-0.9-2.6-0.7-5-0.1-7.7c0.5,0.3,1.1,0.5,1.2,0.8c0.7,2,0.8,4.1,0.1,6.1C145,365.6,144.4,365.8,143.9,366.1z"
		/>
	<path d="M172.9,317.8c0.6,3.9,0.5,7.7-0.7,11.3c0,0.1-0.4,0.1-0.6,0.2C172,325.4,172.4,321.6,172.9,317.8z"/>
	<path d="M109.5,493.3c0.8,2.1,0.7,4,0.5,5.8c-0.8,0.3-1.1-0.1-1.1-0.6c0-1.3-0.1-2.7,0-4C108.9,494.1,109.2,493.7,109.5,493.3z"/>
	<path d="M142.8,306.5c0.1,0.4,0.2,0.8,0.5,1.8c-2.3-1.9-4.8-2.6-6.3-4.7l-0.1,0.1c1.1-0.2,1.8,0.7,2.7,1.1c0.9,0.4,1.5,1.3,2.6,1.1
		l-0.1-0.1c0,0.6,0.4,0.8,0.9,0.9L142.8,306.5z"/>
	<path d="M188.2,322.2c-0.8,2.3-2.5,3.9-4.5,5.2c-0.2,0.1-0.5,0-0.7,0l0.1,0.1C184.6,325.5,185.9,323.4,188.2,322.2L188.2,322.2z"/>
	<path d="M120.7,444.8c-0.4-2.2,0.1-3.5,1.2-4.6c0.1-0.1,0.5-0.2,0.6-0.1c0.2,0.1,0.3,0.4,0.2,0.6
		C122.4,442.1,122.1,443.3,120.7,444.8z"/>
	<path d="M142.4,349.2c-0.3-0.2-0.8-0.3-0.9-0.5c-0.1-0.9-0.2-1.9-0.1-2.9c0-0.2,0.6-0.5,0.8-0.5c0.3,0,0.6,0.4,0.7,0.7
		C143.1,347.1,143.2,348.2,142.4,349.2z"/>
	<path d="M131.7,300.7c2.4,0.6,3.5,1.2,5.2,3l0.1-0.1C134.4,302.8,133.4,302.3,131.7,300.7L131.7,300.7z"/>
	<path d="M119.6,447.3c0.7,1.2,0.4,2.3-0.3,3.7c-0.3-0.4-0.8-0.7-0.8-1C118.4,448.9,118.3,447.7,119.6,447.3z"/>
	<path d="M120.4,389.4c0.8,0.9,1.3,1.9,0.7,3.2C119.2,391,119.1,390.5,120.4,389.4z"/>
	<path d="M110.6,488.4c-0.5-1.2-0.7-2.2,0.1-3c0.2,0.1,0.6,0.1,0.6,0.2C111.7,486.5,111.8,487.4,110.6,488.4z"/>
	<path d="M175.1,295.5c-0.2,1.1-0.4,2-0.6,3c-0.9,0.1-1-0.6-0.9-1.1C173.8,296.6,173.8,295.7,175.1,295.5z"/>
	<path d="M188.2,316.9c1.2-1.1,2-2.6,3.8-2.9l-0.1-0.1c0,0.3,0,0.6,0,0.9l0.1-0.1c-0.8,0.5-1.5,1.1-2.3,1.5
		C189.2,316.5,188.6,316.6,188.2,316.9L188.2,316.9z"/>
	<path d="M247.9,470.5c0.1,0.1,0.2,0.1,0.3,0.2c0.6,0.6,0.8,1.5,0.4,1.9c-0.1,0.1-0.2,0.1-0.3,0.1c-0.6-0.2-0.8-1-0.6-1.8
		C247.8,470.7,247.8,470.6,247.9,470.5z"/>
	<path d="M246.5,457.7c-1.4-0.5-1-1.4-1.2-2.3C246.5,456.2,246.5,456.2,246.5,457.7z"/>
	<path d="M142.4,354.6c-0.1-0.2-0.3-0.4-0.3-0.6c0.1-0.4,0.3-0.7,0.5-1.1c0.2,0.2,0.7,0.4,0.7,0.6c0,0.4-0.3,0.7-0.5,1.1
		C142.7,354.6,142.5,354.6,142.4,354.6z"/>
	<path d="M119.6,387.7c-0.5-0.6-0.8-0.9-0.9-1.2c-0.1-0.2,0.2-0.6,0.3-0.9c0.2,0.2,0.6,0.4,0.7,0.6
		C119.7,386.5,119.6,386.9,119.6,387.7z"/>
	<path d="M188.2,322.2c-0.1-1.3,0.3-2.3,1.5-2.9l-0.1-0.1C189.8,320.5,189.7,321.7,188.2,322.2L188.2,322.2z"/>
	<path d="M247.4,464.6c-0.7-0.7-1-1.3-0.8-2.4C247.5,462.9,247.9,463.4,247.4,464.6z"/>
	<path d="M129.3,406.9c-0.4-0.3-0.8-0.5-0.8-0.8c-0.1-0.4,0.2-0.9,0.3-1.3c0,0,0.3-0.1,0.3,0c0.2,0.3,0.4,0.6,0.5,0.9
		C129.6,406.1,129.4,406.4,129.3,406.9z"/>
	<path d="M216.1,302c-0.6,0.3-1.1,0.5-1.7,0.8c-0.1-0.1-0.1-0.2-0.2-0.4c0.3-0.2,0.6-0.4,0.9-0.5c0.3-0.1,0.6-0.1,0.9-0.2
		C216,301.8,216,301.9,216.1,302z"/>
	<path d="M117.4,455.9c-0.1,0.4-0.3,0.8-0.4,1.2c-0.2-0.1-0.5-0.2-0.5-0.3c0.1-0.4,0.2-0.8,0.3-1.2
		C117,455.7,117.2,455.8,117.4,455.9z"/>
	<path d="M244,451.4c0.9-0.1,1.4,0.3,1,1.3C244.6,452.2,244.3,451.8,244,451.4z"/>
	<path d="M258,424.7c0.3,0.1,0.7,0.2,0.7,0.3c0,0.3-0.1,0.6-0.1,1c-0.3-0.1-0.7-0.2-0.8-0.4C257.6,425.4,257.9,425.1,258,424.7z"/>
	<path d="M189.7,319.3c0-1.1,0.5-1.8,1.4-2.3l-0.1-0.1C191.1,318,190.6,318.7,189.7,319.3L189.7,319.3z"/>
	<path d="M137.7,299.8c-1-0.1-1.8-0.4-2.2-1.5l-0.1,0.1C136.4,298.6,137,299.2,137.7,299.8L137.7,299.8z"/>
	<path d="M186.1,320c0.4-0.8,0.9-1.5,1.3-2.3l-0.1-0.1C187.4,318.7,186.5,319.2,186.1,320L186.1,320z"/>
	<path d="M135.5,298.4c-1-0.1-1.9-0.4-2.3-1.5l-0.1,0.1C134.2,297,135,297.5,135.5,298.4L135.5,298.4z"/>
	<path d="M114.7,296.9c-0.4,0.3-0.9,0.8-1.7,0.2C113.7,297.1,114.2,297.1,114.7,296.9L114.7,296.9z"/>
	<path d="M112.3,476.7c0,0.5-0.1,1-0.2,1.8c-0.5-0.9-0.3-1.4,0.3-1.7L112.3,476.7z"/>
	<path d="M117.6,382.8c-0.1,0.2-0.3,0.4-0.4,0.5c-0.1-0.2-0.4-0.4-0.4-0.6c0-0.2,0.3-0.4,0.4-0.6
		C117.3,382.4,117.5,382.6,117.6,382.8z"/>
	<path d="M203.9,354c0-0.4-0.1-0.8-0.1-1.2c0-0.1,0.2-0.2,0.2-0.2c0.2,0,0.5,0.2,0.5,0.2c0,0.4-0.1,0.8-0.1,1.2
		C204.2,354,204,354,203.9,354z"/>
	<path d="M112.4,476.8c0.1-0.3,0.2-0.5,0.3-0.8c0,0.1,0.1,0.3,0.1,0.3c-0.1,0.1-0.3,0.3-0.5,0.4L112.4,476.8z"/>
	<path d="M205.7,358c0.1,0.2,0.2,0.3,0.2,0.5c0,0.1-0.2,0.1-0.2,0.2c-0.1-0.2-0.2-0.4-0.2-0.6C205.5,358.2,205.6,358.1,205.7,358z"
		/>
	<path d="M211.2,302.1c0.2-0.2,0.3-0.3,0.5-0.4c0.1-0.1,0.2,0,0.3,0c-0.1,0.1-0.1,0.3-0.2,0.4c-0.2,0-0.4,0-0.7,0L211.2,302.1z"/>
	<path d="M131.6,299.8c0,0.3,0,0.6,0,0.8l0.1-0.1c-0.7,0.1-1.3,0.2-1.5-0.7l-0.1,0.1c0.5,0,1.1,0,1.6,0L131.6,299.8z"/>
	<path d="M183,327.4c-0.1,0.1-0.2,0.2-0.3,0.3c0-0.1,0-0.2,0.1-0.2C182.8,327.4,182.9,327.4,183,327.4L183,327.4z"/>
	<polygon points="186,320 185.8,320.1 186.1,320 	"/>
	<path d="M188.1,316.8c0,0.5-0.3,0.8-0.8,0.8l0.1,0.1C187.6,317.4,187.9,317.2,188.1,316.8L188.1,316.8z"/>
	<path d="M191.2,317c0.1-0.5,0.3-0.8,0.8-0.7l-0.1-0.1C191.6,316.5,191.4,316.7,191.2,317L191.2,317z"/>
	<path d="M191.9,314.1c-0.1-0.6,0.3-0.7,0.7-0.8c0,0-0.1-0.1-0.1-0.1c0,0.3,0,0.6,0,0.9l0.1-0.1C192.4,314,192.1,314,191.9,314.1
		L191.9,314.1z"/>
	<path d="M142.1,305.1C141.9,305,142.1,305.3,142.1,305.1L142.1,305.1z"/>
	<polygon points="137.6,299.9 137.8,300 137.7,299.8 	"/>
	<path d="M165.2,238.9c-3,1.2-5.9,2.4-9,3l0.1,0.1c0-0.7-0.1-1.5,0.8-1.8c0.3-0.1,0.7-0.3,1-0.4c2.4-0.7,4.9-1.4,6.8-3
		c1.5,0.9,0,1.6,0.2,2.3L165.2,238.9z"/>
	<path d="M169.2,215.5c-2.2-0.4-3-2-3.6-3.7c-0.2-0.6-0.2-1.2,0.8-1.6C167.8,211.6,168.5,213.5,169.2,215.5z"/>
	<path d="M96.4,250.8c1.8,0.6,3.3,1.3,4.3,2.9c-1.3,0.6-2.4,0.2-3.4-0.6C96.6,252.6,95.8,252.2,96.4,250.8z"/>
	<path d="M132.4,139.6c2.6-0.5,4.5-0.8,6.2,1C136.5,141.3,134.8,141,132.4,139.6z"/>
	<path d="M129.7,182.5c-0.6-1.4-0.4-2.5,0.7-3.7C131.3,181.2,131.3,181.3,129.7,182.5z"/>
	<path d="M111.6,253c-1.3,0.7-2.1,0.4-2.9-0.3C110.1,251.8,110.1,251.8,111.6,253z"/>
	<path d="M173,220.6c1,0.1,1.4,0.7,1.5,1.7c-0.5,0.6-1,0.6-1.5,0.1C172.5,221.8,172.1,221.2,173,220.6z"/>
	<path d="M104.4,253.5c0.9-0.7,1.6-0.6,1.9,0.6C105.3,254.8,104.7,254.7,104.4,253.5z"/>
	<path d="M130.1,174.6c-0.2,0.2-0.4,0.4-0.6,0.6c-0.2-0.3-0.5-0.6-0.5-0.8c0.1-0.2,0.5-0.4,0.7-0.6
		C129.9,174.1,130,174.3,130.1,174.6z"/>
	<path d="M156.2,241.9c-0.3,1.8-0.3,1.8-2.1,2c0.4-1.1,1-1.8,2.2-1.9L156.2,241.9z"/>
	<path d="M150,247c-0.1-0.2-0.2-0.3-0.4-0.5c0.3-0.2,0.5-0.3,0.8-0.5c0.1,0.2,0.2,0.5,0.2,0.6C150.5,246.8,150.2,246.9,150,247z"/>
	<path d="M263.2,254.1c0.1-0.3,0.1-0.8,0.3-1c0.9-1.1,2.2-1.6,3.5-1.9c0.3-0.1,0.8,0.2,0.9,0.4c0.2,0.2,0.2,0.8,0.1,1
		C267,254,265.3,254.5,263.2,254.1z"/>
	<path d="M225.4,138.6c1.1-0.8,1.4-1.2,1.8-1.3c1.6-0.4,2.3-0.4,4.5,0.2C229.9,138.9,228.1,138.8,225.4,138.6z"/>
	<path d="M265.2,237.5c-1.8-0.2-1.8-0.2-2.5-1.1C265,235.8,265.2,235.8,265.2,237.5z"/>
	<path d="M235.7,172.3c-0.4,0.3-0.6,0.5-0.9,0.7c-0.1-0.3-0.3-0.6-0.4-0.8c0-0.1,0.2-0.3,0.4-0.5C235.1,171.8,235.3,172,235.7,172.3
		z"/>
	<path d="M259.4,186.1c0,0.1-0.1,0.2-0.1,0.3c-0.1-0.1-0.2-0.2-0.3-0.4c0-0.1,0.1-0.2,0.2-0.3C259.2,185.8,259.3,186,259.4,186.1z"
		/>
	<path d="M255.5,254.2c-0.1,0-0.2,0.2-0.3,0.1c-0.1-0.1-0.1-0.2-0.2-0.3c0.1,0,0.2-0.1,0.3,0C255.4,254,255.4,254.1,255.5,254.2z"/>
	<path d="M211.2,140.7c0,1.1,0,2,0,3.1c0.1-0.1,0,0-0.1,0c-3,0.3-5.5,1.8-8.1,3.4c-2.1,1.3-4.3,2.4-6.5,3.5
		c-1.6,0.8-3.2,1.5-4.3,3.2c-0.6,0.9-2,1.3-3.1,1.8c-0.9,0.4-1.9,0.3-2.9,0.6c-2.5,0.6-4.3-0.6-5.9-2.2c-0.2-0.2-0.2-0.8-0.1-1
		c0.2-0.2,0.7-0.5,0.9-0.4c0.7,0.2,1.4,0.5,2,0.9c2.2,1.7,6.4,0.7,9-1.2c1.3-3.4,4.8-3.9,7.4-5.6c2.6-1.7,5.2-3.3,7.9-4.9
		C208.6,141.4,209.5,140.5,211.2,140.7z"/>
	<path d="M179.2,152.1c-1.1,0.3-1.4,0.5-1.7,0.5c-6.5-1.4-13.2-1.6-20.2-3.9c1.2-0.5,1.7-0.9,2.2-0.9c6,0.7,12,1.3,17.8,3.2
		C177.8,151.2,178.1,151.5,179.2,152.1z"/>
	<path d="M194.2,140.2c-0.1-3.5,1.2-5.9,2.6-8.5c0.4,0.4,0.8,0.5,0.9,0.8c0.1,0.5,0,1-0.2,1.4c-0.6,1.7-1.3,3.4-2,5.1
		C195.4,139.3,195,139.5,194.2,140.2z"/>
	<path d="M193.6,142.7c0.5,1.3,0.6,2.6-0.5,4.2c-0.8-1-0.7-1.9-0.7-2.8c0-0.6,0-1.2,0.7-1.4C193.3,142.6,193.4,142.6,193.6,142.7z"
		/>
	<path d="M201.9,124c-1.3-1.3-1.3-1.3,0-3C202.5,122.1,202.4,123,201.9,124z"/>
	<path d="M152.9,145.4c1.2,0,2.3,0,3.2,0c0.3,0.8-0.1,1-0.6,1C154.7,146.5,154.7,146.5,152.9,145.4z"/>
	<path d="M166.4,130.2c-1.1-0.5-1.4-1.3-1-2.4C166.6,128.3,166.8,129,166.4,130.2z"/>
	<path d="M200.2,129.1c0.2-0.3,0.3-0.5,0.4-0.7c0.2,0.2,0.5,0.3,0.7,0.5c0.1,0.1-0.2,0.4-0.3,0.5
		C200.8,129.3,200.5,129.2,200.2,129.1z"/>
	<path d="M167.7,134c0.2-0.2,0.5-0.4,0.6-0.3c0.2,0.2,0.4,0.5,0.5,0.7c0,0-0.2,0.3-0.2,0.3C168.3,134.4,168,134.2,167.7,134z"/>
	<path d="M169.5,65.1c-0.7,0.5-1.4,1-2.1,1.5c-1.8-0.2-3.3-0.6-4-2.8c-1.2,0.7-2.2,1.3-3.4,2c-0.5-0.2-1-0.5-1.5-0.8
		c0.1-0.4,0.1-0.7,0.2-0.8c1.2-0.8,2.5-1.6,4-2.5c-1.9-0.6-3,0.8-4.4,0.9c-0.6-0.5-0.1-0.9,0.3-1.1c1.4-0.5,2.8-1.1,4.2-1.3
		c3.6-0.6,6.5,0.9,8.9,3.3c0.2,0.2,0.4,0.6,0.5,1c0.2,0.5-0.4,1.4-1,1.2C170.6,65.6,170.1,65.3,169.5,65.1z"/>
	<path d="M193.6,65.7c-2.9-0.5-2.9-0.5-4.8-1.7c-0.3,0.3-0.7,0.6-1.1,0.9c-0.4,0.3-0.8,0.5-1.3,0.9c-0.4-0.3-0.7-0.6-1-0.8
		c1.2-1.4,2.2-2.8,3.3-4.1c0.5-0.5,1.1-1.1,1.8-1.3c3.5-0.6,6.8-0.2,9.8,1.8c0,0,0,0.2,0,0.3c-1.9,0.2-3.6-1.6-5.8-0.8
		c1.6,1.5,4,1.5,5.6,3.2c-1.8,1.2-3.1-0.6-4.8-0.4c-0.5,0.6-1.1,1.4-1.7,2.1L193.6,65.7z"/>
	<path d="M191.8,93.2c-0.6,0.3-1.3,0.7-1.9,0.8c-1.5,0.1-3,0-4.4,0.1c-3.6,0.1-7.2,0.1-10.8,0.2c-1.6,0-3.2,0.1-4.5-0.6
		c-0.1-0.9,0.5-1,0.9-1c1.4,0,2.7-0.2,4-0.8c2.6-1.2,5.3-1,8-0.5c1.2,0.2,2.4,0.5,3.6,0.8c1.2,0.4,2.4,0.5,3.6,0.2
		c0.4-0.1,0.9,0.1,1.3,0.1C191.7,92.7,191.7,92.9,191.8,93.2z"/>
	<path d="M188.4,97c-1,1.9-2.4,2.8-4.3,3.2c-2.8,0.6-5.5,0.9-8.2-0.6c-0.9-0.5-2.1-0.7-3.1-1c-0.2-0.1-0.3-0.5-0.6-1
		c2.1-0.4,3.6,1.2,5.5,0.8c1.8-0.3,3.7-0.2,5.5,0C185,98.5,186.4,96.7,188.4,97z"/>
	<path d="M181.8,56.7c1-0.9,1.3-1.3,1.7-1.5c0.9-0.4,1.9-0.7,2.8-0.9c4-0.7,8.1-0.9,12.2-0.4c1,0.1,1.9,0.3,3.1,1.4
		c-1.4-0.1-2.4,0-3.3-0.2c-1.7-0.3-3.4-0.3-5.1,0c-2.8,0.6-5.6,1-8.4,1.5C184.1,56.8,183.4,56.7,181.8,56.7z"/>
	<path d="M173.3,57.6c-1.4,0.2-2.4-0.9-3.7-1.2c-1.3-0.3-2.6-0.6-4-0.8c-1.3-0.2-2.7-0.3-4.1-0.3c-1.3,0-2.6,0.3-4.1,0.5
		c0.2-0.4,0.2-0.8,0.4-0.9c5.3-1.9,10.4-1.3,15.3,1.6c0.2,0.1,0.3,0.4,0.3,0.6C173.5,57.2,173.4,57.3,173.3,57.6z"/>
	<path d="M182,82.3c1.4-1.6,2.8-0.9,3.8,0.2c2-0.8,0.4-2.4,1.1-3.5c0.3,0.2,0.7,0.3,0.7,0.5c0.1,0.8,0.4,1.7,0.2,2.5
		c-0.2,0.9-0.9,1.5-1.9,1.5C184.6,83.5,183,83.9,182,82.3z"/>
	<path d="M198.5,25.7c0.4-0.2,0.8-0.4,1.4-0.6c-0.1,1.2-0.3,2.1-0.3,3c0,1,0.3,1.9,0.4,2.8c-1.2,0.9-2.2,0.3-3.4-0.4
		C197.3,28.9,197.9,27.3,198.5,25.7z"/>
	<path d="M164.9,67.7c1.3-0.6,2.3-0.7,3.5-0.2C167,68.8,167,68.8,164.9,67.7z"/>
	<path d="M178.9,83.7c-0.8,0-1.4,0.1-2,0c-0.2,0-0.6-0.5-0.5-0.8c0-0.3,0.3-0.7,0.6-0.8C177.9,81.8,178.6,82,178.9,83.7z"/>
	<path d="M184.1,59.3c-0.3,1.5-0.3,1.5-1.3,2.8C183.2,60.4,183.2,60.4,184.1,59.3z"/>
	<path d="M202.7,53c-0.9-0.7-1-1.4-0.2-2.6C203.1,51.4,203.3,52.1,202.7,53z"/>
	<path d="M193.5,65.7c0.4,1.3,0.4,1.4-0.4,1.4c-0.2,0-0.4-0.1-0.6-0.2c0.4-0.4,0.8-0.8,1.1-1.3L193.5,65.7z"/>
	<path d="M174.6,64.8c-0.2,0.2-0.3,0.4-0.4,0.5c0,0-0.2-0.1-0.3-0.1c-0.2-0.3-0.4-0.6-0.4-0.9c0-0.1,0.2-0.3,0.3-0.5
		c0,0,0.2,0.1,0.3,0.1C174.2,64.2,174.4,64.5,174.6,64.8z"/>
	<path d="M157.1,33.3c0.6,0.5,0.8,0.7,1,1c0.1,0.1,0,0.3,0,0.3c-0.2,0-0.5,0.1-0.5,0C157.5,34.3,157.4,34,157.1,33.3z"/>
	<path d="M174.8,83c-0.2,0.2-0.3,0.4-0.5,0.5c-0.2-0.3-0.4-0.5-0.6-0.8c0,0,0.2-0.2,0.2-0.2C174.3,82.6,174.5,82.8,174.8,83z"/>
	<path d="M182.1,79.5c-0.2,0.3-0.3,0.6-0.6,0.8c-0.1,0.1-0.4-0.1-0.5-0.1c0.1-0.3,0.2-0.6,0.4-0.8C181.5,79.3,181.8,79.4,182.1,79.5
		z"/>
	<path d="M181.8,65.7c0.1,0,0.2,0.1,0.2,0.1c0,0.2-0.1,0.4-0.1,0.6c-0.1,0-0.2-0.1-0.2-0.1C181.7,66.2,181.8,66,181.8,65.7z"/>
	<path d="M156.3,36.1c0.1,0.2,0.2,0.4,0.4,0.6C156.5,36.5,156.5,36.2,156.3,36.1L156.3,36.1z"/>
	<path d="M174.1,79.9c0-0.2,0-0.5,0.1-0.7c0-0.1,0.2-0.2,0.4-0.3c0,0.1,0.1,0.3,0.1,0.3C174.4,79.5,174.2,79.7,174.1,79.9
		L174.1,79.9z"/>
	<path d="M174,79.9c0,0.2,0.1,0.4,0,0.7c0,0.1-0.1,0.2-0.2,0.3c-0.1-0.2-0.3-0.4-0.3-0.5C173.6,80.1,173.9,80.1,174,79.9L174,79.9z"
		/>
	<path d="M155.4,41.3c0,0.1-0.1,0.2-0.1,0.3c-0.1-0.1-0.2-0.2-0.2-0.4c0.1,0,0.1-0.1,0.2-0.1C155.3,41.1,155.3,41.2,155.4,41.3z"/>
	<path d="M153.9,42.8c0.1,0,0.2,0,0.3,0.1C154.2,42.8,154.1,42.8,153.9,42.8L153.9,42.8z"/>
	<path d="M156.4,36c-0.1,0-0.2,0-0.4-0.1C156.1,36,156.2,36.1,156.4,36L156.4,36z"/>
	<path d="M201.3,285.5c-0.1-0.4-0.5-0.8-0.3-1c2.2-3.5,3.2-7.4,4-11.4c0-0.1,0.2-0.2,0.3-0.4c0.2,0.2,0.7,0.3,0.7,0.5
		c0.8,4.6-0.7,8.5-3.6,11.9C202.2,285.3,201.7,285.3,201.3,285.5z"/>
	<path d="M147.5,274.3c0.2,0.2,0.4,0.4,0.4,0.6c0.1,3.2,0.8,6.4,1.8,9.4c0.2,0.7,0.6,1.4-0.6,2c-2-2.7-2.9-5.8-2.8-9.2
		C146.3,276.1,146.2,274.9,147.5,274.3z"/>
	<path d="M172.1,282c1-2.8,1.8-3.5,4.4-3.4c0.6,0,1.2,0.1,1.8,0.3c0.6,0.1,1.1,0.4,1.7,0.6c-0.3,1.4-0.3,1.4-2,2.7
		c-0.5-0.2-1.2-0.5-1.9-0.6c-0.7-0.1-1.4-0.1-2.1,0C173.3,281.5,172.9,282.6,172.1,282z"/>
	<path d="M195.2,258.3c0.6,0.5,1.1,0.8,1.3,1.1c0.7,1.2,1.6,2,2.9,2.7c2,0.9,3,2.8,3.3,5c0,0.2-0.4,0.5-0.8,0.9
		c-0.4-0.6-0.8-1-1.1-1.5c-1-1.9-2.3-3.5-4.2-4.6c-0.7-0.4-1.2-1.2-1.6-2C194.9,259.7,195.1,259.1,195.2,258.3z"/>
	<path d="M149.7,267.7c-1.1-0.5-0.9-1.3-0.7-2c0.4-1.5,1-3,2.4-4c0.5-0.4,1.1-0.6,1.7-0.1C151.9,263.6,150.8,265.5,149.7,267.7z"/>
	<path d="M200.7,254.6c1.6-4.4,1.7-4.7,4.2-6.5c0,0.6,0.1,1,0,1.4c-0.2,0.4-0.5,0.9-0.9,1.2c-1,0.8-1.7,1.7-2,3
		C202,253.9,201.5,254.1,200.7,254.6z"/>
	<path d="M184.7,248.1c1.9,0,2.8,1.1,3.7,2c0.4,0.4,0.8,0.9,0.3,1.8C187.1,251,185.8,249.9,184.7,248.1z"/>
	<path d="M156.4,256.6c-1,1.1-1.9,2-2.9,3c-0.7-1.3-0.1-2.1,0.6-2.8C154.6,256.3,155.2,255.9,156.4,256.6z"/>
	<path d="M107.6,535.2c-0.5,1.3-1.3,1.5-2.2,1.4c-1.6-0.1-3.2-0.3-4.8-0.6c-3.3-0.6-6.6-0.8-9.9-0.5c-0.4,0-0.7,0-1.1,0
		c-0.8-0.1-1.4-0.5-1.6-1.3c-0.2-0.8,0.1-1.5,0.8-1.9c0.6-0.4,1.3-0.6,2-0.7c4.3-0.2,8.6-0.1,12.8,1
		C105.9,533.3,106.1,533.4,107.6,535.2z"/>
	<path d="M92.5,547.4c-1.7,0-3.4,0.1-5.1,0c-1,0-1.6-0.7-1.8-1.6c-0.2-1,0.4-2,1.4-2.3c0.6-0.2,1.2-0.3,1.8-0.3
		c2.9,0.1,5.9,0.2,8.8,0.3c0.6,0,1.3,0.1,1.7,0.4c0.5,0.3,0.9,0.9,0.9,1.4c0,0.5-0.5,1.1-0.9,1.4c-0.5,0.3-1.1,0.4-1.7,0.5
		C95.9,547.4,94.2,547.3,92.5,547.4C92.5,547.4,92.5,547.4,92.5,547.4z"/>
	<path d="M90.2,549.8c1.1-0.1,2.2-0.2,3.3-0.2c0.6,0,1.2,0.1,1.8,0.3c0.8,0.2,1.1,1.7,0.4,2.2c-0.7,0.5-1.5,1-2.3,1.1
		c-2.8,0.2-5.7,0.3-8.5,0.4c-0.2,0-0.6,0-0.7-0.2c-0.4-0.4-0.9-0.8-1.2-1.3c-0.3-0.6,0.2-1.6,0.9-1.8c0.6-0.2,1.2-0.4,1.8-0.4
		C87.2,549.7,88.7,549.8,90.2,549.8z"/>
	<path d="M88.4,556.2c0.3,0.1,1.4,0.2,2.4,0.5c0.4,0.1,0.7,0.7,0.8,1.1c0.2,0.7-0.2,1.2-0.8,1.4c-1.6,0.7-3.3,0.8-5,0.5
		c-0.9-0.1-1.6-1-1.6-1.8c0-0.8,0.7-1.6,1.6-1.7c0.2,0,0.5-0.1,0.7-0.1C86.8,556.2,87.2,556.2,88.4,556.2z"/>
	<path d="M251.9,552.6c0.7-2.6,2.8-2.9,5.2-3.6c-1.9-0.2-3.1-0.3-4.3-0.5c-1.4-0.2-2.2-1-2.3-2.1c-0.1-1.3,0.5-2.2,1.6-2.7
		c1-0.4,2.1-0.8,3.2-0.8c3,0.1,5.9,0.3,8.9,0.6c1.9,0.2,2.9,1.2,2.7,2.4c-0.1,1.1-1,1.8-2.7,2.1c-1,0.1-2.1,0.2-3.1,0.7
		c1,0.1,1.9,0.3,2.9,0.4c0.6,0.1,1.2,0.2,1.8,0.4c0.8,0.3,1.2,0.8,1.2,1.7c0,0.9-0.6,1.3-1.3,1.6c-0.5,0.2-1,0.3-1.4,0.3
		c-3.6,0-7.2,0-10.8,0C253.1,553.2,252.6,552.9,251.9,552.6z"/>
	<path d="M260.6,541.4c-2.7,0-5.4-0.1-8,0.8c-0.5,0.2-1,0.2-1.4,0.2c-1,0-1.9-0.4-2.4-1.4c-0.5-1-0.3-2,0.4-2.7
		c0.5-0.5,1.1-1.1,1.8-1.2c1.6-0.4,3.3-0.9,5-1c2.2-0.1,4.4,0,6.6,0.2c1.6,0.1,3.1,0.6,4.4,1.8c1.1,1.1,0.7,2.8-0.8,3.2
		c-0.6,0.2-1.2,0.2-1.8,0.2C263.1,541.5,261.8,541.4,260.6,541.4z"/>
	<path d="M270.2,585.1c-0.3-0.5-0.4-0.9-0.7-1.3c-0.4-0.5-0.7-1.2-1.2-1.3c-3-0.7-6.1-1.1-8.8,1.1c-0.9,0.8-1.6,1.8-2.4,2.8
		c-0.4,0.5-0.7,0.9-1,1.3c-1,0.1-1.2-0.6-1.2-1.2c-0.1-1.2,0.4-2.2,1.1-3c1.9-2.5,4.4-3.9,7.6-4c1.6,0,3.2,0.2,4.7,0.6
		c1.2,0.3,2.2,1,2.7,2.3C271.4,583.5,271.3,584.4,270.2,585.1z"/>
	<path d="M264.7,557.8c-1.2,1.5-2.6,1.4-3.9,1.3c-1.2-0.1-2.4-0.6-3.5-1c-0.6-0.3-0.6-1.5-0.1-1.9c1.2-1.1,2.5-0.8,3.9-0.6
		C262.6,555.6,264,556,264.7,557.8z"/>
	<path d="M257.9,561.7c1.6-2.6,3.5-1.7,5.2-1.5c1.2,0.1,2.4,0.6,2.4,2.4C262.9,563.5,260.6,563.1,257.9,561.7z"/>
	<path d="M85.9,518c0.6,0.7,0.6,1.6,0.2,2.4c-0.1,0.2-0.6,0.3-0.9,0.4C84.6,518.9,84.6,518.9,85.9,518z"/>
	<polygon points="189,13.2 189.1,13 189,13.1 	"/>
</g>
</svg>
