<?xml version="1.0" encoding="utf-8"?>
<!-- Generator: Adobe Illustrator 19.2.0, SVG Export Plug-In . SVG Version: 6.00 Build 0)  -->
<svg version="1.1" id="Layer_2" xmlns="http://www.w3.org/2000/svg" xmlns:xlink="http://www.w3.org/1999/xlink" x="0px" y="0px"
	 viewBox="0 0 900 600" style="enable-background:new 0 0 900 600;" xml:space="preserve">
<g>
	<path d="M649.5,593.3c-1.1,1.5-2.2,1.9-3.5,1.9c-1,0-2,0-3,0c-4.7,0.1-9.3,0.2-14,0.4c-0.7,0-1.5,0.2-2.1,0.5
		c-1.7,0.9-3.6,0.9-5.4,0.8c-2.3-0.2-4.7-0.4-7-0.8c-1.1-0.2-2-0.8-3.1-1.2c-7.6,1.6-15.3,1.6-23.1,0.7c-1.8-0.2-3.5-0.5-5.4,0.5
		c-1.9,1-3.8-0.4-5.5-1.3c-1-0.6-2-1.4-2.8-2.3c-0.6-0.6-1-1.4-1.3-2.2c-4.8-12.4-9.7-24.7-14.5-37.1c-12-30.7-24-61.4-36-92
		c-11-28.2-22-56.3-33-84.5c-10-25.5-20-51.1-30-76.6c-11.1-28.3-22.1-56.6-33.2-84.8c-10.7-27.5-21.6-54.9-32.2-82.4
		c-2.3-5.9-5.3-11.4-8-17c-3.4-7.1-7-14.1-11.4-20.7c-1.2-1.8-2.3-3.8-3.3-5.6c-1.2-0.7-2.5-0.4-3.7-0.5c-2-0.2-4.3-1.8-4.5-3.7
		c-0.4-3.2-1.7-6.2-2.7-9.2c-0.9-2.8-0.2-5,1.7-7c0.6-0.6,1.3-1.1,1.9-1.7c2.4-2.3,4.6-4.8,5.3-8.2c0.2-0.9,0.9-1.5,1.8-1.7
		c1.6-0.4,3.2-0.6,4.7,0.2c4.5,2.4,9.1,4.9,13.6,7.4c1.6,0.9,3.2,1.8,4.2,3.5c0.4,0.7,1.3,1.1,2.1,1.4c1.3,0.5,2.6,0.8,3.9,1.2
		c3.5,0.9,6.8,2.1,9.8,4c2.2,1.5,4.9,1.8,7.4,2.1c6,0.7,12,1.2,18,1.7c8.5,0.8,17,0.5,25.4,0.6c4.6,0.1,9.1,0.4,13.5,1.6
		c2.5,0.7,5,1.4,7.4,2.2c0.8,0.3,1.6,0.7,2.3,1.1c3,1.8,6.1,3,9.5,3.8c3.7,0.9,7.3,2.2,10.9,3.4c5.8,1.9,11.7,3.9,17.5,5.9
		c2.3,0.8,4.7,1.5,7.2,1.4c0.1,0,0.2,0,0.4,0c3.7,0.6,7.2,0.2,10.8-1.4c3-1.3,6.5-1.4,9.8-1.6c3.4-0.2,6.9-0.2,10.3,0
		c1.7,0.1,3.4,0.6,5,1c1.8,0.4,3.6,0.9,5.3,1.4c2.1,0.6,4.3,1.1,6.4,1.8c1.5,0.5,2.7,0.5,4.2-0.5c1.8-1.2,3.9-2.1,5.9-3.1
		c1.9-0.9,3.8-1.8,5.4-3.5c0.5-3,0.4-6.2,0-9.4c-0.1-0.7-0.4-1.5-0.7-2c-2-3-3.1-6.4-4.2-9.8c-0.3-0.8-0.5-1.6-1.4-2.1
		c-1-0.5-1.4-1.3-1.8-2.3c-0.5-1.4-1-2.8-1.6-4.1c-0.5-1.4-1-2.8-1.6-4.1c-1.2-2.6-1.6-5.1,0.1-7.7c1-1.6,1.4-3.3,1.1-5.2
		c-0.5-4.3,0.2-8.6,1-12.8c0.5-2.6,0.6-5.3,1.4-7.9c1.2-3.7,4.4-8,7.7-9.9c1-0.5,1.9-1.1,2.9-1.5c2-0.9,4.1-1.8,6.5-1.1
		c1.1-1.6,1.9-3.2,3.5-4.2c0.2-0.1,0.3-0.4,0.5-0.5c2.8-2.2,10.2-1.9,12.9,0.5c1.8,1.6,2.3,3.7,2.2,6c0,0.5-0.1,1-0.2,1.5
		c0.7,0.6,1.3,1.2,1.9,1.7c5.1,3.6,7.4,8.7,7.8,14.8c0.3,4.1,0.2,8.3,0,12.5c-0.1,1,0.1,1.9,0.2,3.2c0.9-0.5,1.7-0.8,2.6-1.3
		c0.5,0.5,1.2,0.9,1.4,1.5c1.4,3.3,2,6.6-0.5,9.7c-0.4,0.5-0.8,1-0.9,1.6c-0.5,2-1.6,3.5-3.2,4.8c-0.5-0.1-1.1-0.2-1.8-0.4
		c-0.9,1.9-1.3,3.9-1.7,6c-0.2,1.2-0.4,2.5-0.9,3.6c-1.6,3.4-2.1,7-1.9,10.8c0.1,1.7,0.4,3.4,0.5,5.1c0.1,3.4,2.1,5.4,5,6.7
		c1.4,0.7,3,1.2,4.5,1.8c1.5,0.6,3,1.1,4.5,1.7c4.1,1.9,8.3,2,12.5,0.4c1.2-0.5,2.6-0.7,3.9-1c1.4-0.3,3-0.4,4.3-1
		c5.9-2.4,12.1-2,18.2-1.6c4.3,0.3,8.5,0.9,12.5,2.7c1.2,0.5,2.6,0.5,4,0.4c1.8,0,3.7-0.1,5.5-0.4c1.8-0.3,3.6-0.7,5.4-1.3
		c9.1-3,18.2-6,27.3-9c1.7-0.6,3.6-0.9,5.3-1.5c1-0.3,2.1-0.7,3-1.3c4.3-2.8,9.3-3.9,14.2-5c3.6-0.8,7.3-0.9,11-1.1
		c3.7-0.2,7.4-0.1,11.1-0.1c7.8,0.1,15.5-0.4,23.2-1.3c3.1-0.3,6.1-0.5,9.2-0.9c3.3-0.4,6.5-1.1,9.4-3c2.4-1.6,5.1-2.3,7.9-3
		c1.4-0.4,2.8-0.8,4.2-1.3c1-0.4,2-0.9,2.6-2c0.4-0.7,1.1-1.4,1.8-1.8c3.8-2.2,7.7-4.3,11.6-6.5c1.1-0.6,2.2-1.1,3.2-1.7
		c1.3-0.8,2.7-1,4.3-0.8c1.7,0.2,2.7,0.8,3.1,2.6c0.5,2.5,2,4.4,3.7,6.2c0.9,1,2,1.8,3,2.8c2.2,2,3,4.4,1.9,7.3
		c-0.7,1.8-1.3,3.7-1.9,5.6c-0.4,1.4-0.6,2.9-0.9,4.1c-1.6,3.5-4.7,3.3-7.7,3.3c-0.5,0.8-1,1.5-1.4,2.2c-0.7,1.2-1.3,2.4-2.1,3.5
		c-5.8,8.7-10.1,18.3-14.9,27.6c-3.2,6.4-5.6,13.1-8.3,19.7c-14,34.9-28,69.8-41.9,104.8c-10.2,25.5-20.3,50.9-30.5,76.4
		c-10.7,26.8-21.5,53.6-32.2,80.5c-11.2,28-22.4,55.9-33.5,83.9c-11.9,29.8-23.8,59.6-35.8,89.4c-1.4,3.4-2.7,6.9-4.1,10.3
		C649.6,589.8,649.1,591.5,649.5,593.3z M589.1,22.8l-0.1-0.2L589.1,22.8c0.2,0.5,0,1.2,0.8,1.4c-0.5,1.3,1.3,1.9,1.2,3.3
		c-1.9-0.4-2.4-2.6-4.1-3.1c-0.4,1.3,0.2,2.7-1.3,3.4c-0.2,0.1-0.2,0.9-0.1,1.4c0.1,0.6,0.3,1.1,0.5,1.7l0.1-0.1
		c-0.6,0.3-1.1,0.7-0.9,1.4c0.2,0.9,0.5,1.7,0.7,2.6c-0.7,0-1.1-0.9-1.8-0.3c0.3,0.9,0.7,1.8,1,2.7c0.3,1,0.5,2,0.8,3
		c0.5,0,0.9-0.1,1.4-0.1c0.1,1,0.3,2.1,0.4,3.1c-0.3,0.4-0.5,0.7-0.8,1c-1.4,1-2.2,2.3-1.7,4.1c-0.8,3.3,0,6.6,0.2,9.9
		c0.1,1.5,0.3,2.9,1,4.3c1.4,2.8,2.2,5.7,2.8,8.7c0.7,3.3,2.2,6.3,3.9,9.1c0.6,0.9,1.3,1.9,2.2,2.5c2.4,1.5,4.8,3.1,7.3,4.2
		c4.3,1.9,8.5,0.6,12.4-1.2c1.8-0.8,3.5-1.8,4.7-3.4c1.7-2.2,3.1-4.5,3.9-7.1c1-3.3,1.8-6.6,2.7-9.9c0.6-2.2,1.1-4.6,2-6.7
		c1.1-2.7,1-5.4,0.4-7.9c-0.7-2.7-0.7-5.3-0.8-8c0-0.2-0.1-0.5-0.1-0.5c-0.6-0.8-1.2-1.4-1.7-2.1c0.5-1.5,1-2.8,1.5-4.2
		c0.9-0.1,1-0.5,0.3-1.4c-0.1,0.7-0.1,1.1-0.2,1.5c-0.4,0-0.9,0-1.3,0c-0.4-1.3-0.1-2.3,0.3-3.3c0.4-0.9,0.7-1.8,1-2.7
		c0.4-1.3,0.3-2.5-0.7-3.8c-0.4,1.9-0.8,3.7-1.2,5.3c-0.4-0.8-0.7-1.8-1.3-2.5c-0.9-0.9,0.5-2.2-0.8-3.1c-0.5,0.5-1.1,1-1.8,1.7
		c-0.2-0.5-0.3-0.9-0.4-1.2c0.6-0.3,0.8-0.9,0.8-1.5c0.5-0.4,1.1-0.8,1.7-1.2c0.3,0.4,0.6,0.7,0.8,0.9c0.2,0.2,0.5,0.4,0.8,0.7
		c0.8-1,0.5-1.9-0.2-2.6c-1.2-1.4-2.3-3.2-4.6-2.8c-0.1-0.7-0.2-1.4-1.3-1.5c-0.4,0.8-0.7,1.7-1.2,2.5c-0.3,0.5-0.8,0.8-1.1,1.2
		c0-0.5,0-1,0-1.5c0.2-0.2,0.4-0.3,0.5-0.5c0-0.1-0.1-0.3-0.2-0.4c0,0.1-0.1,0.2-0.1,0.3c0,0.2,0,0.4-0.1,0.7
		c-0.5,0.2-1.1,0.5-1.6,0.7c0.4-1.3,0.9-2.5,1.3-3.8c0.1-0.5-0.1-1-0.9-1c-0.6,1.5-1.1,3.1-1,4.8c-1.3,0.5-1.4,1.9-2.2,2.7
		c-0.9,1-1.7,2-2.7,2.9c-0.9,0.8-2,0.7-2.9-0.2c-0.3-3.4,0.2-7.5,0.8-7.6c0.2,0.3,0.4,0.6,0.6,0.8c0.4-0.6,0.8-1.2,1.2-1.8
		c0.2,1.5-0.3,3.1,0.3,5c0.6-1.2,1-2.1,1.7-3.4c0.1,1.3,0.2,2.1,0.3,2.9l-0.3,0.1l0.2-0.2c1.6-1.9,2.5-4.1,2.1-6.8
		c-0.8-0.1-1.5-0.3-2.3-0.4c-0.6,1.1-0.6,2.5-2,2.9c0-0.8,0-1.7,0-2.6c-1.2-0.2-2.2-0.8-3.2,0c0,1.4,0.2,2.7,0.1,4
		c-0.1,1.5-0.4,2.9-0.5,4.4c-0.1,1.3,0,2.6-0.1,3.7c-1.8-0.2-3.3-0.4-5.1-0.6c-0.7-1.2-1.5-2.6-2.2-4c-0.8-1.6-1.9-3.1-1.2-5.2
		c0.2-0.5-0.4-1.3-0.7-2.1c-0.6,0.2-1,0.3-1.5,0.4c0.2,2,0.5,3.7,1.3,5.4c0.4,0.9,0.3,2.1,0.5,3.2l0.1-0.1c-1.2,0.2-1.9-0.6-2.1-1.6
		c-0.4-1.6-0.6-3.4-1-5c-0.1-0.3-0.5-0.5-0.8-0.8c-0.5,0.6-1,1.1-1.4,1.5c0.5,1.9,1,3.5,1.5,5.2c0.3,1-0.2,1.6-0.8,2.2
		c-1-0.7-1.9-1.4-2.8-2.1C589.9,23.6,589.8,23,589.1,22.8z M631.9,49.8c0.3-0.1,0.6-0.2,0.9-0.3c-0.1,0-0.2-0.2-0.3-0.1
		C632.3,49.6,632.1,49.8,631.9,49.8C631.9,49.9,631.9,49.9,631.9,49.8z M632.1,59c-0.8,0.5-1.7,0.9-2.4,1.4
		c-0.3,0.3-0.6,0.8-0.7,1.2c-0.2,0.8,0,1.5,1.2,1.3C630.9,61.8,632.1,60.6,632.1,59c0.5-0.8,0.7-1.6,0.5-2.5
		c0.4-0.4,1.1-0.6,1.3-1.1c0.3-1.2,0.4-2.5-0.2-3.9c-1.3,0.4-1.8,1.3-2.2,2.3c0.3,1,1.8,1.5,1.2,2.8C631.8,57.2,632.1,58.1,632.1,59
		z M602.5,18.3c-0.4-0.9-0.8-1.9-1.3-2.9c-1.9,0.4-1.4,1.9-1.5,3c-0.4,3.1,1,5.5,3.3,7.6C603.5,23.1,602.5,20.7,602.5,18.3
		c1.4-0.2,2-1.1,2.1-2.4c0-0.2-0.5-0.5-0.9-0.8C603.1,16.3,602.8,17.3,602.5,18.3z M611.3,10.9L611.3,10.9c-0.2,0.6-0.4,1.2-0.7,2
		c0.6-0.2,1-0.4,1.4-0.5l-0.1-0.1c0.3,0.6,0.4,1.5,1.4,1.5c0.7,0,1.5-0.1,2.2,0c0.6,0,1.2,0.2,1.8,0.4c0.6,0.2,1.2,0.4,1.9,0.7
		c0-1.9-1.1-1.9-2.3-1.8c-0.1,0-0.2-0.2-0.3-0.3c0.5-0.3,0.9-0.5,1.3-0.7c-0.3-1.2-1.2-1.7-2.1-1.9c-2.3-0.4-4.6-1.3-6.9-0.4
		c-1.4,0.6-2.9,1.3-3.8,3.1c1.3,0.1,2.4,0.2,3.4,0.3c0.6-0.6,1-1.2,1.6-1.7C610.3,11,610.9,11,611.3,10.9z M614.9,566.6
		c0.7-0.3,0.8-0.9,0.8-1.5c0.1-1.7,0.1-3.4,0.1-5.2c-0.1-3.3,0.3-6.6,1.3-9.8c0.9-2.8,2.4-4.8,5.4-5.5c0.2,0,0.4-0.3,0.4-0.3
		c0.6-3.9,1.1-7.7,1.6-11.5c0.2-1.8,0.2-3.7,0.2-5.5c0-1.8,0-3.7-0.2-5.5c-0.5-6.1-0.6-12.3-2.1-18.3c-1-4.3-1.8-8.7-2.7-13
		c-2.2-11.2-2.7-22.4-2-33.8c0.4-6.6,1.3-13.2,1-19.9c-0.1-2-0.3-3.9-1.1-5.7c-2.1-5.2-2.8-10.7-3.4-16.2c-0.6-6-0.4-12,0.5-18
		c0.5-3.7,0.4-7.4,0-11c-0.4-3.9-0.9-7.8-1.2-11.7c-0.4-4.3-1.3-8.5-2.5-12.8c-0.8,5.2-1.7,10.1-2.4,15.1c-0.2,1.2-0.3,2.4-0.2,3.7
		c0.1,3.9,0.3,7.9,0.5,11.8c0.1,2.2-0.2,4.4,0.9,6.5c0.3,0.5,0.2,1.2,0.2,1.8c0.2,4.5,0.4,9.1,0.6,13.6c0.3,4.5-0.5,8.8-2,13
		c-0.4,1-0.6,2.1-1.1,3.1c-0.8,1.9-1,3.8-0.8,5.8c0.7,5,1.2,10,2,15c1.1,7.1,1.8,14.1,2.3,21.3c0.2,2.8,0.2,5.6-0.3,8.5
		c-0.4,2.8-0.4,5.6-1.6,8.3c-0.1,0.3-0.1,0.7-0.1,1.1c-0.5,6.6-1,13.2-1.6,19.8c-0.2,2.1-0.5,4.2-0.7,6.2c-0.2,1.5-0.3,2.9-0.4,4.4
		c-0.3,4.4,0.7,8.8,0.9,13.2c0.1,2.2,0.3,4.4,0.4,6.6c0.1,1,0.3,1.9,1,2.7c2.5,2.4,3.4,5.6,4.2,8.8c0.1,0.5,0,1.1,0.2,1.4
		c1.7,2.3,1.6,5.1,1.8,7.8C615,562.7,615,564.7,614.9,566.6c-1.1,2.4-1.3,4.9-1.5,7.4c0,0.3,0.1,0.7,0.4,1.6
		C614.7,572.3,615,569.5,614.9,566.6z M648.6,578.9c1.3-1.7,1.6-2.8,2-3.9c5.1-12.9,10.3-25.8,15.4-38.7
		c12.9-32.3,25.8-64.6,38.7-96.9c12.8-32.2,25.7-64.4,38.5-96.6c13.8-34.6,27.6-69.2,41.4-103.8c14.9-37.3,29.8-74.7,44.7-112
		c0.7-1.7,1.2-3.4,1.5-5.3c0.2-1.7,0.8-3.3,1.5-4.9c3.2-8.1,6.5-16.2,9.7-24.3c0.3-0.9,0.6-1.8,1-2.9c-0.8,0-1.5-0.2-2,0
		c-1.3,0.6-2.6,0.7-3.9,0.7c-2.9,0-5.6-0.1-8.2-1.6c-1.6-0.9-3.3-0.8-5-0.1c-3.3,1.4-6.6,2.8-9.9,4c-1.9,0.7-4,1.3-6,1.7
		c-2.6,0.5-5,1.4-7.3,2.5c-6.4,3.2-12.8,6.4-19.5,8.8c-0.9,0.3-1.8,0.8-2.7,1.3c-4,2.1-8.1,3.5-12.6,4c-4.9,0.5-9.8,1-14.7,1.4
		c-2.7,0.2-5.3,0.7-7.8,1.9c-1.5,0.8-3.2,1.3-4.8,1.8c-3.1,0.9-6.1,1.8-9.2,2.6c-4.7,1.2-9.1,2.9-13.5,5c-3.5,1.7-7,3.6-11,4
		c-0.4,0-0.7,0.2-1.1,0.3c-5.3,2.1-10.7,3.5-16.4,3.9c-2.8,0.2-5.4,1.2-7.6,2.6c-3.9,2.6-7.9,5.1-11.2,8.3c-2.9,2.8-5.4,6-7.2,9.7
		c-1.8,3.8-2.6,7.6-2.3,11.7c0.1,1.1,0,2.2,0,3.3c-0.1,3.8-1,7.6-2.3,11.1c-2.4,6.7-4.5,13.5-5.8,20.5c-0.3,1.7-0.6,3.4-1.2,5
		c-0.7,1.9-0.9,3.8-0.9,5.8c0,4.2,0.6,8.3,1.2,12.5c0.3,2.3,0.8,4.6,1.7,6.8c2,5.2,3.4,10.5,5.7,15.6c0.9,1.9,1.4,3.9,1.9,6
		c1.5,6,2.3,12.1,3,18.2c0.2,1.6,0.4,3.1,1.2,4.6c1.3,2.3,1.8,4.8,1.7,7.4c-0.1,7.6-0.1,15.3-0.4,22.9c-0.4,8.4-1.3,16.7-2.5,25
		c-1.5,10.8-3,21.7-5.3,32.4c-2.5,11.7-5.1,23.3-8.8,34.7c-0.3,0.9-0.6,1.9-0.7,2.9c-0.2,3.3-0.3,6.6-0.4,10c-0.1,2.2,0,4.4-0.1,6.6
		c-0.2,4.7-0.4,9.3-0.5,14c-0.1,4.4,0.3,8.8,1.6,13.1c0.5,1.5,0.8,3.1,1.2,4.6c0.2,0.8,0.4,1.7,0.3,2.5c-0.2,1.4,0.1,2.7,0.4,4
		c1.7,7.7,2.2,15.6,1.9,23.5c-0.1,3.2-0.7,6.3-2.1,9.3c-0.5,1-0.7,2.1-0.9,3.2c-0.3,2.4-0.5,4.9-0.8,7.3c-0.5,4.6-0.7,9.3-1.5,13.9
		c-0.9,4.7-1.5,9.5-2.3,14.2c-0.3,1.6-0.9,3-1.4,4.6c-0.3,0.9-0.7,1.8-0.9,2.8c-0.3,2.1-0.4,4.2-0.5,6.2c-0.1,4.2,0,8.3,0,12.6
		c3.7,1.9,4.5,5.1,4.5,8.7c0,1.6,0.1,3.2,0,4.8c-0.1,2.1,0.2,4.2,1,6.1c0.7,1.6,1,3.3,0.9,5C648,576.5,648.3,577.3,648.6,578.9z
		 M383.7,88.5c0.4,1.3,0.7,2.1,1,2.9c2.8,7.2,5.7,14.4,8.6,21.6c1.2,3,2.5,5.9,2.9,9.1c0.1,0.8,0.5,1.6,0.8,2.4c1,2.5,2,5,3,7.6
		c10.9,27.8,21.8,55.6,32.7,83.4c11,28,21.9,56.1,32.9,84.1c10,25.4,19.9,50.8,29.9,76.2c9.2,23.6,18.4,47.2,27.7,70.8
		c13,33.1,25.9,66.2,38.9,99.2c4.2,10.6,8.3,21.3,12.5,31.9c0.5,1.2,0.8,2.6,1.8,3.6c1.8-2.3,1.8-2.3,1.9-5
		c0.2-5.3,0.9-10.5,2.8-15.5c1-2.6,2.2-5.2,3-7.9c0.5-1.9,1.5-3,3.2-3.7c0.8-0.4,1.8-1.7,2.6-0.6c0.9,1.3-0.7,1.8-1.5,2.3
		c-1.4,1-1.6,2.3-1.7,4.3c0.8-1.1,1.1-2,1.6-2.2c2.2-0.9,2.6-2.7,2.8-4.7c0-0.6,0.4-1.2,0.5-1.7c-2-6.2-3.3-12.4-4.5-18.7
		c-0.5-2.8-0.9-5.6-1.7-8.3c-0.8-2.5-1.3-5-1.7-7.5c-0.7-4.3-1.7-8.4-3.1-12.5c-0.3-1-0.7-2.1-1.4-3c-1.1-1.4-1.6-3-2.1-4.7
		c-0.7-2.4-1.4-4.7-2-7.1c-1.7-6.9-3.4-13.9-3.1-21.1c0-1-0.1-2-0.2-2.9c-0.6-7.3,0.1-14.5,2.5-21.5c0.9-2.7,1.3-5.5,1.4-8.3
		c0.1-2.6-0.3-5.2,0.5-7.7c0.2-0.6,0-1.2,0-1.8c-0.2-2.6-0.3-5.2-0.6-7.7c-0.6-5.6-1.4-11.2-3.3-16.6c-1.3-3.7-2.2-7.6-3.2-11.4
		c-0.3-1-0.6-2.2-0.3-3.2c0.2-1.2-0.1-2.2-0.4-3.2c-1.3-3.7-2.6-7.4-3.7-11.2c-3.2-10.7-5.3-21.7-7.3-32.7
		c-1.8-10.2-2.7-20.5-2.3-30.8c0-1.1,0-2.2,0-3.3c0.3-4.8,0.7-9.6,1-14.3c0.3-3.7,0.8-7.3,0.9-11c0.1-5.9,1.3-11.5,3.4-16.9
		c1.2-3.2,2.3-6.5,3.2-9.8c1.9-6.9,3.7-13.8,6.2-20.4c0.5-1.4,1-2.8,1.2-4.3c0.6-4.4,1-8.8,1.5-13.2c0.2-2.4-0.1-4.6-1-6.9
		c-0.5-1.1-0.6-2.4-0.9-3.6c-0.5-2.2-0.4-4.7-2-6.6c-0.2-0.3-0.2-0.7-0.2-1.1c0-3.1-0.8-6.1-2.2-8.8c-0.9-1.7-1-3.9-2.6-5.2
		c-1.8-1.5-1.5-3.8-2.7-5.5c-0.1-0.1-0.2-0.2-0.2-0.3c-0.5-1.3-1.1-2.5-1.3-3.8c-0.4-1.7-0.5-3.4-0.6-5.1
		c-0.2-6.6-0.5-13.3,2.1-19.6c0-0.1,0-0.2,0-0.5c-0.4-1.1-1.4-1.9-2.3-2.7c-3.3-3.2-7.2-5.6-10.9-8.1c-2.5-1.7-5.5-2.8-8.6-2.9
		c-4.7-0.2-9.2-1.4-13.6-3c-1.5-0.5-3.1-0.9-4.6-1.4c-1.3-0.4-2.6-0.6-3.9-1.2c-2.6-1.1-5.2-2.3-7.7-3.5c-5.7-2.7-11.8-4.1-17.8-5.9
		c-2.9-0.9-5.8-1.9-8.7-3.1c-1.9-0.8-3.8-1.1-5.7-1.3c-5-0.5-10-0.9-15-1.4c-4.5-0.4-8.6-1.8-12.6-3.8c-0.9-0.4-1.7-1-2.6-1.3
		c-7.2-2.5-14-6-20.9-9.3c-1.5-0.7-3.2-1.5-4.8-1.8c-6-1-11.5-3.5-17-5.9c-2.1-0.9-4-1-6,0c-3.8,1.9-7.8,1.9-11.8,0.7
		C385.2,88.4,384.7,88.5,383.7,88.5z M604.5,540.8c0.1-2.2,0.3-4.1-0.6-6c-1.2-2.6-1.2-5.5-1.1-8.3c0-1,0.3-1.9,1.2-2.6
		c0.3-0.3,0.5-0.8,0.6-1.2c0.1-0.7,0.1-1.5,0.1-2.2c0.1-5.4,0-10.8,0.3-16.2c0.3-5.5,0.9-11,1.4-16.5c0.3-2.8,0.4-5.7,0.9-8.4
		c0.7-3.5,0.8-7,0.3-10.6c-0.8-5.3-1.2-10.8-1.7-16.1c-0.6-5.4-1.1-10.8-1.8-16.1c-0.5-3.5,0-6.9,1.1-10.2c1.6-4.7,2.2-9.6,2.3-14.5
		c0.1-3.7,0.3-7.4,0-11.1c-0.3-3.2-0.4-6.4-0.5-9.6c-0.1-3.2-0.2-6.4-0.2-9.6c0-3.2,0.1-6.4,0.4-9.6c0.5-5.8,1.3-11.5,1.8-17.2
		c0.2-2.3,0.5-4.7,0.2-7c-0.4-3.1-0.3-6.2,0.2-9.2c1.1-7.7,0-15.2-1.8-22.6c-0.2-0.8-0.6-1.5-0.9-2.1c-2.3-0.3-4.2-0.6-6.1-0.9
		c-6.1-0.9-12.2-1.9-18.3-1.6c-2.8,0.1-5.6,0.4-8.4,0.6c-4.8,0.2-9.6,0.6-14.1,2.4c-0.7-0.4-1.2-0.8-2-1.3c0,1.5-0.1,2.7,0,3.9
		c0.7,7.3,1.6,14.7,2.9,21.9c2.8,14.6,6.2,29.1,10.3,43.4c0.4,1.4,0.8,2.9,0.8,4.3c-0.1,2,0.5,3.9,0.9,5.8c1.2,4.9,3.1,9.6,4.2,14.5
		c1.2,5.4,2.2,10.8,2,16.4c-0.1,2-0.1,3.9-0.9,5.8c-0.3,0.7-0.4,1.7-0.2,2.5c0.6,2,0,3.9-0.5,5.8c-0.8,2.8-1.8,5.6-2.4,8.5
		c-0.5,2.6-1,5.4-0.9,8c0,1.8,0.1,3.6,0.2,5.4c0.2,4.6,0,9.4,0.8,13.9c1.1,5.8,1.9,11.6,4.8,16.9c1.1,2,1.8,4.3,2.5,6.5
		c1,2.9,1.9,5.8,2.6,8.8c1.1,4.7,1.9,9.4,2.9,14.1c1.6,7.3,3.3,14.6,5,21.9c0.2,0.8,0.6,1.5,0.9,2.2c1.8-0.7,3.4-1.4,5-1.8
		C600.5,541.3,602.3,541.1,604.5,540.8z M625.8,543.7c0.2,0.2,0.3,0.4,0.4,0.4c1.1,0.2,2.2,0.3,3.2,0.5c2.7,0.3,5.1,1.3,6.4,3.7
		c1.2,2.3,3.1,4.1,4.5,6.2c0.3,0.4,0.7,1,1.5,0.7c-1.7-2.1-2.2-2.7-2.6-5.2c-0.3-2-0.1-4.1-0.1-6.3c-1-0.8-1.5-1.9-1.4-3.2
		c0.1-1.5,0-3,0.2-4.4c0.1-0.8,0.2-1.8,0.6-2.4c0.7-1.1,0.9-2.3,1.1-3.5c1.1-5.3,2.2-10.6,3.2-15.9c0.8-4.3,1.7-8.7,2.3-13.1
		c0.9-6.7,1.9-13.4,3.2-20c0.4-2.2,0.7-4.4,0.8-6.6c0.2-10.8-1.2-21.3-3.6-31.8c-1.2-5.3-2.6-10.5-2-16c0.4-3.2,0.5-6.4,0.8-9.5
		c0.1-1.7,0.3-3.4,0.3-5.1c0.1-6.3,0.4-12.5,1.4-18.7c0.1-0.8,0.2-1.8,0.7-2.4c0.9-1.3,1.1-2.7,1.4-4.2c1.2-5.8,2.3-11.6,3.5-17.3
		c3.6-16.6,6.1-33.4,8.2-50.2c0.2-1.4,0.4-2.9,0.2-4.4c-1.3-0.2-2.5-0.2-3.7-0.5c-1.3-0.3-2.6-0.8-3.8-1.3c-2.1-0.8-4.2-1.3-6.5-1.2
		c-4.5,0.1-9.1-0.3-13.6,0.6c-1.3,0.3-2.7,0.2-4,0.2c-4.6,0.3-9.3,0.6-14,1c-0.3,1.6-0.5,3.1-1,4.4c-0.4,1.1-0.6,2.1-0.6,3.2
		c-0.2,3.4-0.4,6.9-0.6,10.3c-0.2,3.2-0.9,6.3,0,9.5c0.1,0.3,0,0.7,0,1.1c0.1,6.2,0.8,12.3,2,18.3c1.1,5.3,2.4,10.5,2.7,16
		c0.2,4.3,1.2,8.5,0.9,12.9c-0.1,2.6-0.2,5.2-0.3,7.7c0,0.7,0,1.5-0.3,2.2c-2,4-1.4,8.2-1,12.3c0.1,1.4,0.5,2.9,0.6,4.3
		c0.5,5.2,1,10.3,3.5,15c0.5,1,0.8,2.1,0.8,3.2c0,4.5,0.1,9.1-0.3,13.6c-0.4,4.4-0.6,8.8-0.5,13.3c0,1.1,0,2.3-0.3,3.3
		c-0.5,1.4-0.5,2.9-0.5,4.4c-0.1,6.2,0.8,12.3,2,18.3c0.5,2.5,0.6,5.1,2.4,7.2c0.2,0.2,0.2,0.7,0.2,1.1c0.8,5.2,2.1,10.4,2.4,15.7
		c0.2,2.9,0.3,5.9,0.7,8.8c0.8,5.2,0.5,10.3-0.5,15.4C626,537.9,625.8,540.9,625.8,543.7z M660.5,312.6c0.2-2,0.3-3.4,0.4-4.9
		c0.3-5.2,0.6-10.3,1-15.5c0.1-1.9,0.3-3.6-0.7-5.3c-0.4-0.7-0.4-1.7-0.5-2.5c-0.3-3.3-0.4-6.6-0.7-9.9c-0.1-1.2,0.1-2.5-0.8-3.7
		c-0.8,0-1.6,0-2.4,0.1c-3.3,0.6-6.5,1.2-9.8,1.7c-0.4,0.1-0.9,0.3-1.2-0.6c4.4-1.2,8.8-2,13.4-2.2c0-1.4,0.1-2.6-1.2-3.3
		c-4.2,0.5-8.1,2.1-12.9,2.5c2.3-1.9,4.6-1.9,6.7-2.4c2.1-0.6,4.3-1,6.6-1.5c-0.3-3.6-0.9-6.9-1.7-10.3c-0.4-2-0.6-4.1-1.7-5.9
		c-2,0.7-4,1.4-5.9,2.2c-0.4,0.2-0.8,0.5-1.3,0.8c-1.2,0.7-2.3,1.5-3.5,2c-4.7,2.3-9.6,3.7-14.8,4.5c-2.9,0.5-5.9,0.6-8.6,1.7
		c-0.7,0.3-1.4,0.3-2.2,0.4c-8.3,1.1-16.4,0.5-24.5-1.3c-4.9-1.1-9.7-2.7-14.5-4.4c-1.7-0.6-3.5-1.4-5.2-1.7
		c-2.4-0.3-4.4-1.3-6.4-2.6c-0.6-0.4-1-1.1-2.1-0.8c-0.6,1.8-1.3,3.8-1.9,5.7c-1.4,4.5-2.7,8.9-4.1,13.4c-0.5,1.6-1.2,3.2-0.5,5
		c0.2,0.6,0,1.5-0.1,2.2c-0.4,3.9-0.8,7.8-1.2,11.7c-0.6,7.1-1,14.2-0.8,21.4c0,0.6,0.1,1.2,0.2,1.7c5.6-0.6,11.1-1.2,16.6-1.8
		c2.1-0.2,4.2-0.4,6.2-0.5c5.2-0.4,10.3-0.2,15.5,0.5c1.1,0.1,2,0.4,3,1.2c1.9,1.6,4.4,1.3,6.6,1.7c1.5-1.3,3.2-0.3,4.9-0.3
		c0.3-2.7,0.6-5.1,1-8.1c0.9,3-0.9,5.4,0.2,7.8c3.3,1.4,3.3,1.3,6.3,0.8c2.2-0.4,4.4-0.6,6.6-0.9c1.9-0.3,3.9-0.5,5.8-0.8
		c1.3-0.2,2.6-0.6,3.9-0.8c3.9-0.7,7.8-0.6,11.8-0.4c2.6,0.1,5.1,0.6,7.6,1.4C655.8,311.2,657.9,311.8,660.5,312.6z M593.8,255.9
		c0.7,0.2,1.4,0.5,2.1,0.6c2.2,0.4,4.4,0.7,6.6,0.9c6,0.6,12,0.5,18.1,0.5c4.9,0,9.4-1.3,14.2-2.5c1.4-3.6,2.9-7.2,4.3-10.8
		c1,0.4,0.7,1.2,0.6,1.9c-0.1,0.6-0.2,1.2-0.3,1.8c-0.2,0.7-0.4,1.4-0.6,2.1c-0.2,0.6-0.5,1.1-0.6,1.7c-0.2,0.7-0.9,1.2-0.4,2.1
		c0.3-0.1,0.7,0,1-0.2c4.7-2.1,9.4-4.3,14-6.5c0.5-0.3,1.1-0.6,1.5-0.8c0.3-1.4-0.2-2.4-0.6-3.4c-2.8-6.7-4.8-13.7-6.5-20.7
		c-1.3-5.6-1.2-11.2-0.1-16.8c0.7-3.9,1.7-7.7,2.6-11.5c0.1-0.7,0-1.4,0-2c-3.9-0.8-19.6-0.7-23.8,0c1,0.6,1.8,1.2,2.6,1.7
		c1.5,1,3,2.2,4,3.8c0.3,0.5,0.3,0.9-0.4,1.2c-3.5-2.3-7.1-4.6-10.9-6.9c-0.2,0-0.5-0.1-0.9,0c-10.8,0.4-21.6,0.8-32.4,1.3
		c-4.7,0.2-9.3,0.5-14,0.8c-0.8,0-1.7,0-2.4,1.1c0.4,3.1,1.1,6.3,1.9,9.5c1.4,5.3,1.6,10.7,0.7,16.1c-1.1,6.6-3.3,12.8-5.1,19.2
		c-0.6,2.2-1.7,4.3-1.9,6.8c1.6,1,3,2.1,4.8,2.7c5.9,1.8,11.7,3.7,17.6,5.5c0.6,0.2,1.2,0.4,1.7-0.2c0.2-1.5-1.1-2.9,0-4.7
		C592.6,251.7,592.4,253.9,593.8,255.9z M634.1,102.1c0.5,1.2,0.9,1.9,1.1,2.7c1,2.9,2.2,5.7,2.8,8.7c0.9,4.1,1,8.3,0.8,12.5
		c-0.1,2-0.3,3.9-0.8,5.8c-2.1,7.9-7,13.4-14.5,16.5c-0.9,0.4-1.9,0.7-2.6,1.3c-1.2,1.2-2.6,1.8-4.1,2.4c-2.5,1.1-5.2,1.4-7.9,1.4
		c-6.3,0-12.2-1.1-17.7-4.3c-3-1.7-5.4-3.9-7-6.9c-2-3.6-3-7.5-3-11.7c0-3.1,0.2-6.1,0.5-9.2c0.6-4.9,1.8-9.7,4.4-14
		c1.3-2.1,2-5,2.1-7.5c-1.5,0.3-2.7,0.9-4,1.5c-0.8,1.6-1.4,3.2-2.4,4.6c-2.2,3.1-3.9,6.5-5.5,10c-0.4,1-1,2-1.8,2.7
		c-1.1,0.8-1.6,1.8-2.1,2.9c-0.8,1.9-1.6,3.8-2.5,5.8c-0.4,1-0.8,2.1-1.4,3c-2.1,3.5-3.3,7.4-5,11c-0.3,0.6-0.1,1.4-0.3,2.2
		c-0.2,0.8-0.2,1.7-0.6,2.5c-1.3,2.4-1.8,5.1-1.9,7.8c-0.3,6.1,0.2,12.3,0.7,18.4c0.9,0.8,2.1,1.3,2.3,2.7c0.1,0.6,0.8,1.2,1.2,1.8
		c0.5,0.8,1.1,1.6,1.4,2.5c1.4,3.9,2.8,7.9,4.2,11.8c0.1,0.3,0.5,0.5,0.6,0.8c26.5-1.5,52.9-2.4,79.3-2c1.1-2.9,2.1-5.8,3.3-8.6
		c1-2.3,1.4-4.7,1.2-7.2c-0.1-1.4-0.1-2.7,0.6-4c0.9-1.7,1-3.5,1-5.4c0-1.6-0.2-3.2-0.1-4.8c0.2-2.8-0.6-5.3-1.7-7.8
		c-1.4-3-2.5-6.1-3.3-9.4c-0.2-0.8-0.3-1.8-0.7-2.5c-1.1-1.6-1.3-3.4-1.7-5.2c-0.9-4.7-1.9-9.4-2.9-14.1c-0.7-3.1-2.1-5.9-3.4-8.8
		c-1,0.4-1.8,0.8-2.6,0.9c-0.3,0-0.9-0.4-1-0.8c-0.3-0.5,0.2-1,0.7-1.1c0.8-0.2,1.6-0.3,2.6-0.5c-0.6-1.8-1.2-3.4-1.8-5
		c-0.3-0.7-0.7-1.4-1.3-1.7C637.7,103.2,636.2,102.4,634.1,102.1z M848.7,62.4c-3.7,1.2-7,2.9-10.2,4.7c-0.6,0.4-1.4,0.8-1.7,1.3
		c-1.4,3.2-4.2,4.2-7.1,5.4c-2.9,1.1-5.7,2.3-8.3,3.9c-1.7,1.1-3.5,1.5-5.4,2c-6.5,1.8-13.1,1.9-19.7,2.7c-3.2,0.4-6.4,0.6-9.6,0.6
		c-7.5,0.2-15,0.2-22.5,0.3c-5.2,0.1-10.3,0.5-15.2,2.5c-0.6,0.2-1.2,0.4-1.8,0.4c-1.5,0.1-2.8,0.7-4.2,1.3c-2.7,1.2-5.3,2.6-8.3,3
		c-0.6,0.1-1.2,0.4-1.6,0.7c-2.5,1.7-5.2,2.7-8.1,3.6c-6.4,2.1-12.9,4.1-19.3,6.3c-4.4,1.6-8.9,1.6-13.5,1.1
		c-3.5-0.4-7-1.2-10.6-1.7c-4.8-0.6-9.5-1.1-14.3-1.6c-1.4-0.2-2.6,0-3.9,0.7c-1.9,1.2-4,1.7-6.3,2.1c-1.5,0.2-3,0.3-4.3,0.8
		c-2.9,1.1-5.9,1.5-9,1.3c-0.2,0-0.4,0.2-0.7,0.4c-0.6,3,1.9,5.4,1.6,8.7c1.8-0.2,2.4,0.8,2.6,2.1c0.2,1.1,0.6,2.1,0.8,3.2
		c0.8,4.6,1.7,9.2,2.8,13.7c0.4,1.4,0.6,2.9,1,4.3c0.5,2.1,1,4.3,1.5,6.5c0.5-0.1,0.8-0.3,1.2-0.3c0.3-0.1,0.6,0,1.4,0
		c-0.7,1.2-1.2,2-1.8,2.9c1.5,1.6,1.5,1.6,1.9,4.1c0.2,1.4,0.9,2.5,2.5,3.8c0.2-0.6,0.5-1.2,0.7-1.7c1-2.9,2.6-5.5,4.7-7.9
		c2.9-3.4,6.3-6.2,10.1-8.5c2.1-1.2,4.2-2.5,6.4-3.7c2.6-1.4,5.3-2.7,8.3-2.8c4.3-0.2,8.4-1.5,12.5-2.9c3.1-1.1,6.3-2,9.5-3
		c1.7-0.6,3.5-1.1,5.2-1.9c4.3-2.2,8.8-3.9,13.4-5.3c4.9-1.5,9.9-2.8,14.6-5.1c1.2-0.6,2.6-0.9,3.9-1c3.4-0.4,6.8-0.8,10.3-1
		c8.4-0.5,16.6-2.1,24.3-5.6c5.6-2.5,11.1-5.3,16.6-8.1c2.4-1.2,4.9-2.4,7.5-2.9c4.5-0.9,8.6-2.9,12.9-4.4c0.5-0.2,0.9-0.5,1.4-0.8
		c-1.5-0.5-2.9,0.4-4.2-0.5c0.2-0.3,0.4-0.8,0.7-0.8c2.5-0.4,5.1-0.8,7.6-1c0.3,0,0.7,0.8,1,1.3c1.2,0.2,2.5,0.1,3.6,0.6
		c2.6,1.3,5.2,1.2,7.9,1.2c1,0,2-0.2,2.9-0.1c1.1,0.1,2.1,0.5,3.2,0.8c1.3-2.7,2.5-5.2,3.7-7.8c0.4-0.8,0.5-1.6,0.3-2.5
		c-0.4-1.2,0-2.4,0.7-3.5c0.3-0.5,0.5-1,1.1-2c-1.8,0.8-2.8,1.3-2.6,2.9c0,0.4-0.2,0.8-0.5,1.5c-0.6-0.7-1-1-1.1-1.4
		c-0.4-1.5,0.1-2.8,1.3-3.5c1.5-0.9,3-2.4,4.9-0.7c0.1,0.1,0.5,0.2,0.7,0.1c1.7-0.4,3.1,0.4,4.7,0.8c2.5,0.5,3.9,2.1,4,4.6
		c0,1.2-0.3,2.4-0.6,3.6c-0.1,0.7-0.4,1.3-0.6,2.1c0.7,0.3,1.2,0.5,1.9,0.8c0.2-0.8,0.3-1.4,0.4-2c0.4-1.9,0.2-3.9,1.3-5.7
		c0.6-1.1,0-2.3-1-3.3c-1.9-2.1-3.8-4.2-5.6-6.3c-0.9-1-1.8-2-2.5-2.9C850.7,63.4,850.7,63.4,848.7,62.4z M580.5,103.5
		c-1.6-0.3-2.8-0.6-3.9-0.8c-2.3-0.5-4.5-1.2-6.8-1.6c-2.3-0.4-4.6-1-6.6-2.2c-1.2-0.7-2.5-1-3.9-0.8c-1.8,0.2-3.7,0.3-5.5,0.6
		c-6.5,0.8-12.9,1.4-19.3,2.7c-4.5,0.9-9,0.5-13.4-1c-6.3-2.2-12.6-4.1-18.9-6.2c-1.6-0.5-3.3-1-4.8-1.8c-3-1.7-6.2-2.8-9.5-3.9
		c-3.6-1.2-7-2.8-10.7-3.8c-4.5-1.2-9.1-2.1-13.8-2.2c-7.7-0.1-15.5-0.1-23.2-0.4c-7.2-0.2-14.5-0.8-21.7-1.8
		c-3.4-0.5-6.8-1.1-10.2-1.8c-0.6-0.1-1.1-0.5-1.6-0.8c-0.6-0.4-1.2-0.9-1.8-1.2c-3.1-1.4-6.3-2.8-9.4-4.2c-2.2-1-4.2-2-5.3-4.3
		c-0.3-0.6-0.9-1.2-1.5-1.5c-3.5-2.1-7-3.9-10.8-5.1c-1.6,1.1-1.6,1.1-5,0.4c-0.5,0.4-1.1,0.9-1.5,1.4c-2.4,2.7-4.6,5.4-7,8
		c-0.9,1.1-1.2,2.3-0.6,3.4c0.9,1.6,0.9,3.3,1.1,5c0.1,0.7,0.2,1.4,0.3,2.1c1.1,0.1,1.8-0.2,2-1.2c-0.4-1.2-0.9-2.4-1.2-3.6
		c-0.6-2.9,1.2-5.6,4.2-6.3c1.8-0.4,3.7-0.4,5.3-1.1c1.4-0.6,2.4-0.2,3.5,0.2c1.2,0.4,2.2,1.2,2.6,2.5c0.2,0.6,0.3,1.2,0.1,1.8
		c-0.1,0.4-0.6,0.8-1,0.9c-0.5,0.1-0.8-0.3-0.8-0.9c-0.3-1.9-0.3-1.8-1.8-2.3c0.3,1.3,1,2.7,1,4c-0.1,1.8,0.4,3.4,1.2,4.9
		c0.7,1.4,1.3,2.9,2,4.3c0.3,0.6,0.7,1.2,1.2,1.9c1.7-1,3.4-1,5.2-0.9c2.9,0.2,5.9,0.3,8.6-1.2c0.7-0.4,1.7-0.2,2.5-0.4
		c0.5-0.1,1.2-0.2,1.3-0.5c0.3-1.2,1.1-1.1,2-1c2,0.3,3.9,0.5,5.8,0.8c0.6,0.1,1.2,0.3,1.1,1.4c-1.2,0.1-2.4,0.1-3.7,0.2
		c3.1,1.6,6.3,2.9,9.5,4.1c0.9,0.3,1.9,0.7,2.8,0.8c3.4,0.6,6.6,2,9.6,3.6c4.4,2.3,8.7,4.5,13.2,6.6c7.5,3.5,15.4,5.9,23.7,6.5
		c4.4,0.3,8.8,0.8,13.2,1.3c1.6,0.2,3.2,0.6,4.6,1.2c3.4,1.6,6.8,2.8,10.4,3.8c6.4,1.8,12.7,3.9,18.6,7.1c0.8,0.4,1.6,0.8,2.4,1
		c4.9,1,9.6,2.9,14.4,4.5c2.8,0.9,5.7,1.6,8.6,1.7c2.1,0.1,4.1,0.6,6,1.6c2.4,1.3,4.7,2.6,7.1,3.9c3.4,1.8,6.5,3.9,9.3,6.6
		c0.5,0.5,1.1,0.8,1.9,1.4c1.2-3.1,2.3-5.9,3.3-8.5c-1.7-2.3-3.2-4.4-4.7-6.4c-0.2-0.3-0.5-0.5-0.8-0.8c-2.6-2.6-5.4-5.1-8.5-7
		c-2.5-1.5-4.9-3.2-7.4-4.9c-0.8-0.6-1.5-1.2-2.1-2c-0.4-0.5-0.3-1.1,0.4-1.6c0.3,0.1,0.7,0.1,1,0.3c2.9,2.5,6.2,4.4,9.4,6.5
		c3.5,2.2,7,4.6,9.3,8.3c0.2,0.3,0.5,0.5,0.8,0.8c1,1.1,1.9,2.2,2.9,3.3c0.4,0.4,0.4,1.2,1.2,1.1c2.1-4.5,4-9,6.3-13.3
		C574.9,112.3,577.7,108.1,580.5,103.5z M587.3,113.4c3.6,1.9,6.8,3.3,10.4,3.9c0.7,0.1,1.4,0.3,2.1,0.6c0.2,0.1,0.3,0.4,0.3,0.6
		c0,0.2-0.2,0.5-0.4,0.6c-1.2,0.6-2.4,0.3-3.6,0.1c-3.2-0.5-6.2-1.6-9-3.1c-0.2-0.1-0.5,0-0.7-0.1c-0.8,0.6-1.5,1.2-2.2,1.7
		c-0.8,3.9-0.8,7.8-0.7,11.6c0.2,4,0.9,7.8,2.9,11.3c2.7,4.9,6.6,8.2,12.2,9.3c2.9,0.5,5.8,0.7,8.8,1c0.2,0,0.4-0.2,0.7-0.4
		c0.1-1.1,0.1-2.4,0.4-3.5c0.3-1.2,0.9-2.3,1.3-3.3c-0.4-1.5-1.4-2.4-2.2-3.5c-0.7-1-2.1-1.5-2.6-2.8c0.9-0.7,1.7-0.4,2.2,0.1
		c1,0.9,1.9,1.9,2.8,2.9c0.4,0.4,0.6,1.1,1.3,0.9c1.4-1.7,2.7-3.3,4.1-4.8c0.4-0.4,0.9-0.9,1.7-0.2c-0.3,0.5-0.5,1-0.8,1.5
		c-1.6,2.7-3.3,5.4-4.9,8.2c-0.9,1.5-1.4,3.1-0.7,4.8c2.2,0.1,4.1-0.4,5.8-1.3c4-2.1,7.9-4.5,11.3-7.5c3.6-3.2,5.8-7.2,7-11.9
		c0.7-2.8,0.7-5.6,0.6-8.5c-0.5-0.3-1-0.6-1.2-0.7c-0.2-1.9,0.4-3.4-0.3-5c-1.1,0.4-2.1,0.8-3,1.2c-2.6,1.1-5.3,1.9-8.2,2
		c-0.6,0-1.2-0.1-1.8-0.3c-0.2,0-0.4-0.3-0.4-0.5c0-0.2,0.1-0.5,0.3-0.6c0.3-0.2,0.7-0.3,1-0.4c4.3-0.6,8.2-2.3,12.1-4.2
		c0.1-0.4,0.2-0.8,0.1-1.2c-0.4-4.1-2.2-7.8-4-11.4c-0.5-0.9-1.4-1.4-2.4-1.4c-0.5,0.4-1.1,0.8-1.7,1.3c-0.5-0.8-1-1.3-1.3-2
		c-1.3-2.5-2.1-5.2-2.4-8.1c-0.2-2.2-1-4.2-1.4-6.5c-1.4,1-2.4,2-3.7,2.8c-1.3,0.7-2.7,1.2-4,1.8c-0.2,0.1-0.5,0.1-0.7,0.3
		c-3.5,2.4-6.9,1.8-10.3-0.2c-2-1.2-4.2-2-6.3-3c-0.1-0.1-0.2-0.1-0.3-0.1c-0.1,0-0.1,0.2-0.3,0.5c1.2,2.4,0.6,4.9-0.7,7.2
		c-0.7,1.3-1.4,2.6-2.1,3.9c-0.3,0.5-0.8,1.1-0.8,1.6c-0.1,3.7-1.7,6.9-2.8,10.3C588.3,110.1,587.9,111.6,587.3,113.4z M604.5,543.7
		c-2.4-0.3-4.4,0.2-6.4,1c-3.6,1.4-4.6,3-4.6,7.4c1.2,0.1,2.4,0.2,3.6,0.2c2.6,0.1,5.2,0.2,7.7,0.3c0.6,0,1.2,0.1,1.8,0.3
		c0.7,0.2,1.4,1.4,1.1,2.1c-0.2,0.7-0.7,1-1.4,1c-1,0.1-2,0.1-2.9,0.2c-6,0.1-12,0.3-17.9,0.4c-1.5,2.5-3.2,4.8-3.9,7.6
		c-0.9,4-1.6,8-1.4,12c0.1,2.2-0.4,4.1-1.6,5.9c-0.7,1-1.3,2.1-1.9,3.1c0.3,1.5,0.5,3,1,4.4c0.2,0.8,0.8,1.5,1.4,2.1
		c0.7,0.7,1.8,0.8,2.9,0.4c0.1-0.5,0.2-1.1,0.4-1.7c0.8-2.5,1.9-3.4,4.5-3.4c1.5,0,3,0.2,4.4,0.6c2.9,0.9,5.8,2,8.6,3.1
		c0.7,0.3,1.4,0.6,1.9,1.1c0.5,0.5,0.8,1.2,1.1,1.8c2.5-0.2,5-0.3,7.3-1.3c0.5-1.9,0.5-3.7,0-5.5c-0.7-2.8-0.6-5.6-0.2-8.4
		c0.5-3.9,1.1-7.8,2-11.6c1-4.4,0.5-8.8-0.2-13.1c-0.1-0.3-0.3-0.7-0.5-1c-0.5-0.8-1.1-1.6-1.7-2.3
		C608,548.2,606.2,545.9,604.5,543.7z M634.7,592.2c-2.5-0.8-4.6-0.9-6.7-1c-2,0-4,1.3-6.1,0.4c-0.1-1.4,0.8-1.8,1.8-2.1
		c3.8-1,7.5-0.9,11.3-0.2c2,0.4,3.8,1,4.9,3c2.4-0.4,4.7,0.1,7.1-0.7c0.3-0.9,0.4-1.7,0.7-2.5c1.2-2.9,0.8-5.5-0.9-8
		c-1.1-1.5-1.6-3.3-1.7-5.2c0-1.1-0.2-2.2-0.6-3.3c-1-3.3-1.3-6.7-1.1-10.2c0.1-1.4,0.2-3-0.5-4.5c-3.3,0.5-5.2-1.4-6.5-4.1
		c-0.7-1.5-2.1-2.7-2.5-4.5c-0.1-0.6-0.9-1.2-1.5-1.5c-1-0.5-2.1-0.8-3.1-1c-2.5-0.3-4.9,0.5-7.2,1c-1.4,0.3-2.4,1.4-2.9,2.6
		c-0.6,1.7-0.9,3.5-0.5,5.1c1.6-0.3,3.1-0.8,4.5-0.8c3.2-0.1,6.4,0,9.6,0.1c1,0,1.9,0.3,2.8,0.7c0.3,0.1,0.7,0.8,0.7,1.1
		c-0.1,0.4-0.6,0.9-0.9,1c-1.1,0.2-2.2,0.2-3.3,0.2c-2.8,0.1-5.7,0.1-8.4,0.5c-2.7,0.3-2.6,0.5-5.1-0.4c-0.1,0.7-0.3,1.4-0.3,2.1
		c0.4,4.1-0.8,8.1-1.1,12.1c-0.1,0.9-0.5,1.9-1,2.7c-0.5,0.8-0.7,1.5-0.7,2.4c0.1,2.9-0.5,5.6-1.3,8.4c-0.2,0.9-0.4,1.9-0.4,2.9
		c0,0.6,0.3,1.2,0.3,1.8c0,0.7-0.2,1.4-0.3,2c0.9,1,1.9,1.5,3,1.6c2.8,0.5,5.7,0.6,8.4-0.1c1.7-0.5,3.4-0.6,5.1-0.7
		C631.6,593,633,593.2,634.7,592.2z M574.4,587.6c0.1,0,0.2-0.1,0.3-0.1c-0.1-0.6-0.4-1.2-0.2-1.7c0.6-1.7,0-3.1-0.6-4.6
		c-9.5-24.3-19-48.5-28.5-72.8c-11.1-28.4-22.2-56.8-33.3-85.2c-11.8-30.2-23.7-60.4-35.5-90.6c-13.9-35.6-27.9-71.2-41.8-106.8
		c-10.3-26.3-20.6-52.6-30.9-79c-2.7-6.9-5.4-13.7-8.1-20.6c-0.3-0.6-0.3-1.5-1.5-1.6c-0.2,0.3-0.5,0.8-0.5,1.1
		c0.2,0.8,0.5,1.6,0.9,2.4c10.9,27.9,21.8,55.9,32.8,83.8c11.9,30.5,23.8,60.9,35.7,91.4c11.9,30.3,23.7,60.7,35.6,91
		c11.1,28.4,22.2,56.8,33.3,85.2c9.1,23.2,18.2,46.5,27.2,69.7c4.6,11.8,9.2,23.6,13.8,35.4C573.4,585.6,573.9,586.6,574.4,587.6z
		 M832,125c-0.6,1.4-0.9,2.1-1.2,2.7c-9.4,23.6-18.9,47.3-28.3,70.9c-13.7,34.4-27.4,68.7-41.1,103.1
		c-13.8,34.6-27.6,69.2-41.4,103.8c-14.2,35.5-28.3,71-42.4,106.5c-3.1,7.8-6.2,15.5-9.3,23.3c-3.1,7.9-6.2,15.8-9.4,23.6
		c-3.2,7.7-5.6,15.7-9.7,23.1c-0.3,0.5-0.1,1.1,0.7,2.3c0.5-1.1,1-2.1,1.4-3.1c4.9-12.3,9.9-24.6,14.8-37
		c11.9-29.8,23.9-59.6,35.8-89.4c13.8-34.6,27.7-69.2,41.5-103.7c11.9-29.8,23.8-59.6,35.7-89.4c10.2-25.5,20.4-50.9,30.6-76.4
		c7.6-18.9,15.1-37.9,22.7-56.8c0.3-0.7,0.6-1.4,0.7-2.1C833.1,126.2,832.6,125.9,832,125z M393.2,122c0.1-2.1,0.1-2.1-0.7-4.1
		c-4.1-9.7-7.6-19.7-10.9-29.7c-0.7-2.1-1.6-4.1-2.6-6.1c-1-2.1-2.1-4-2.4-6.5c-0.2-2.5-2.3-3.5-4.9-2.8c-0.2,0.1-0.5,0.1-0.7,0.2
		c-1.7,0.5-2.6,1.8-2.4,3.5c0.1,0.6,0.3,1.2,0.5,1.8c2.7,6.3,5.4,12.6,9.4,18.3c3.6,5.2,6.8,10.8,9.7,16.5c1.2,2.4,2.4,4.8,3.7,7.2
		C392,120.9,392.6,121.3,393.2,122z M833.5,122.6c1.7-1.3,2.1-2.7,2.7-4c3.6-7.3,7.4-14.5,12-21.1c3.9-5.6,6.7-11.7,9.3-18
		c1.5-3.6,0.2-5.8-3.7-6.2c-1-0.1-2,0.2-2.7,1c-0.7,0.8-1.4,1.8-1.4,2.9c0.1,1.6-0.7,2.8-1.3,4.2c-1.2,2.6-2.4,5.1-3.4,7.8
		c-3.4,9.7-6.7,19.5-10.7,29c-0.4,0.9-0.7,1.8-1,2.8C833.3,121.3,833.4,121.7,833.5,122.6z M585,592.7c4.1,0.8,10.9,0.9,13.4,0.1
		c-2.3-0.7-4.2-1.4-6.2-1.9c-1.5-0.4-3.1-0.7-4.7-0.8C586,590,585.7,590.3,585,592.7z M368.8,82.9c-1.9,1-2.3,1.5-1.9,2.6
		c0.5,1.2,1.1,1.4,3.4,1C370,85.2,369.7,83.9,368.8,82.9z M856.3,87.2c1.2,0.7,2.1,0.7,2.8,0.1c0.4-0.3,0.7-0.9,0.9-1.5
		c0.2-0.8-0.3-1.3-2.3-1.9C857.2,84.9,856.8,86,856.3,87.2z M582.1,54.6c-0.4,1.9-0.4,3.3,1,4.7C583.3,57.6,584.4,56,582.1,54.6z
		 M591.9,23.9c-0.2-2.8-0.2-2.8-1.1-4.5C589.5,21.1,590.5,22.2,591.9,23.9z M610.6,318.9c0.6-2.9,0.6-2.9-0.8-4.6
		C609.5,315.9,609.7,317.1,610.6,318.9z M586.1,43.6c-0.3-1.3-0.9-1.9-1.8-2.2C584.2,43,584.2,43,586.1,43.6z M585.9,65.1
		c-0.1,0-0.3,0.1-0.4,0.1c0,0.5,0,0.9,0.1,1.3c0.1,0.5,0.2,1.1,1.2,1.1C586.5,66.7,586.2,65.9,585.9,65.1z M612.8,579
		c-0.6,1.2-0.6,1.2-0.2,2.2C612.7,580.4,612.8,579.7,612.8,579z M605.3,18.9c-0.1,0-0.2,0-0.3,0c0,0.3-0.1,0.6-0.1,0.9
		c0,0.1,0.1,0.2,0.2,0.3c0,0,0.2-0.1,0.2-0.1C605.3,19.6,605.3,19.3,605.3,18.9z M628.7,39.8c-0.1,0.2-0.2,0.4-0.3,0.6
		c0,0.1,0.1,0.2,0.2,0.3c0.1-0.2,0.2-0.4,0.3-0.6C628.9,40,628.8,39.9,628.7,39.8z M583.6,52.6c-0.1-0.1-0.1-0.2-0.2-0.2
		c-0.1,0-0.2,0-0.3,0c0.1,0.1,0.1,0.2,0.2,0.3C583.4,52.8,583.5,52.7,583.6,52.6z"/>
	<path d="M166.1,265.2c0.4,3.2,0.6,6.1,1.6,8.9c0.5,1.3,0.6,2.9,0.7,4.3c0.2,8.2,0.2,16.5-0.3,24.7c-1.1,16.5-3.4,32.8-6.3,49
		c-2.5,14-5.7,27.9-10.1,41.5c-0.5,1.6-0.9,3.3-0.9,5.1c0,3.2,0,6.4-0.1,9.6c-0.1,2.1-0.1,4.2-0.3,6.3c-0.6,6.4-0.5,12.8-0.2,19.2
		c0.1,1.2,0.4,2.4,0.7,3.6c0.6,2.4,1.2,4.8,1.8,7.2c0.2,0.7,0.5,1.4,0.5,2.1c-0.3,4.4,1.2,8.5,1.7,12.7c0.8,6.1,0.9,12.3,0.4,18.4
		c-0.2,1.9-0.7,3.9-1.5,5.7c-0.8,1.8-1.3,3.7-1.5,5.7c-0.4,4.4-0.9,8.8-1.4,13.2c-0.1,0.7-0.1,1.5-0.2,2.2c-1.2,5.5-0.8,11-0.3,16.5
		c0.7,7.3,1.3,14.7,1.9,22c0.9,10.3,1.9,20.6,2.8,30.9c0.4,4.5,0.7,9.1,1.1,13.6c0,0.6,0.1,1.2,0,1.8c-0.2,2.2-1.5,3.6-3.7,3.8
		c-2.3,0.2-4.7,0.2-7,0.3c-4.5,0.2-9.1,0.4-13.6,0.6c-0.7,0-1.4,0.4-2.1,0.6c-0.9,0.2-1.9,0.7-2.9,0.6c-3.8-0.3-7.6,0-11.2-1.6
		c-0.6-0.3-1.5-0.3-2.1-0.2c-8.4,1.7-16.9,1.2-25.6,0.1c-1.5,1.5-3.3,1.5-5.3,0.5c-0.7-0.4-1.6-0.6-2.5-0.6
		c-2.6-0.2-3.9-1.9-4.6-4.1c-0.3-1-0.4-2.2-0.3-3.3c0.4-8,0.9-16,1.4-23.9c0.3-5.8,0.7-11.5,1-17.3c0.4-6.1,0.8-12.3,1.2-18.4
		c0.3-4.8,0.6-9.6,0.9-14.4c0.3-5,0.6-10.1,0.9-15.1c0.2-2.6-0.2-5.1-0.9-7.6c-2.1-6.7-4-13.5-4.6-20.5c-0.6-6.9-1.1-13.7-0.4-20.6
		c0.4-3.7,1.2-7.3,2.4-10.8c0.8-2.4,1.2-4.8,1.3-7.2c0.1-2.9-0.3-5.9,0.6-8.8c0.2-0.6,0-1.2,0-1.8c-0.5-5.1-1-10.3-1.7-15.4
		c-0.2-1.8-0.8-3.6-1.3-5.4c-1.3-4.7-2.8-9.4-4.1-14.2c-0.4-1.4-0.8-2.8-0.4-4.3c0.2-0.6-0.1-1.4-0.3-2.1
		c-5.9-15.7-9-32.2-11.8-48.7c-1.9-11.2-1.9-22.5-1.5-33.8c0.2-4.2,0.8-8.3,1.2-12.5c0.5-5,0.9-10,1.3-15c-0.9-2.3-2.2-4.1-4-5.7
		c-4.9-4.2-8.9-9.2-12.9-14.2c-0.5-0.7-1-1.4-1.4-2.2c-2.8-6.3-5.6-12.6-8.4-18.9c-0.3-0.8-0.7-1.7-0.6-2.5c0.4-3.3,0-6.6-0.2-9.9
		c-0.5-6.5-0.2-13,0.8-19.5c0.6-4,1-8.1,0.9-12.1c-0.1-3,0.2-5.8,1.2-8.7c0.9-2.5,1.1-5.3,1.6-7.9c1.2-6.2,2.3-12.3,3.5-18.5
		c1.6-8.2,3.2-16.4,4.8-24.6c0.4-2,1-3.8,2-5.5c0.7-1.2,1.4-2.3,2.1-3.5c1.9-3.7,5.1-5.9,8.9-7.3c0.9-0.3,1.9-0.6,2.8-0.9
		c3.9-1,7.8-2.1,11.6-3.7c1.6-0.7,3.3-0.3,4.8-1.4c1.4-1,3-1.7,4.5-2.5c2.5-1.3,5-2.6,7.6-3.8c2-1,4-1.9,5.7-3.6
		c0.6-3.1,0.4-6.3,0-9.5c-0.1-0.6-0.3-1.2-0.6-1.7c-2.1-3.1-3.3-6.6-4.4-10.1c-0.3-0.9-0.5-1.6-1.4-2.1c-1.1-0.6-1.5-1.6-1.9-2.6
		c-0.5-1.4-1-2.8-1.5-4.1c-0.4-1.1-0.8-2.3-1.4-3.4c-1.4-2.7-1.8-5.3,0-8c1.1-1.6,1.3-3.4,1.1-5.3c-0.4-4.3,0.3-8.6,1-12.8
		c0.5-2.6,0.5-5.3,1.4-8c1.2-3.6,4.4-8,7.8-9.8c1.4-0.7,2.9-1.3,4.3-2c1.6-0.8,3.2-0.9,4.8-0.6c1.3-1.5,2.6-2.8,3.8-4.2
		c0.2-0.2,0.3-0.4,0.5-0.5c3-2.3,10-2.1,12.9,0.4c1.9,1.6,2.3,3.7,2.2,6c0,0.5-0.1,1-0.2,1.5c0.6,0.5,1.1,1.1,1.6,1.5
		c5.5,3.8,7.9,9.2,8.2,15.7c0.2,4,0.1,8.1-0.1,12.1c-0.1,0.8,0.1,1.7,0.1,2.5c1.3,0.7,1.6-1.1,2.8-0.7c0.1,0.1,0.5,0.2,0.7,0.5
		c2.2,3,2.3,7.3,0.2,10.3c-0.4,0.6-0.9,1.2-1.1,1.9c-0.4,2.1-1.7,3.5-3.3,4.8c-0.4-0.1-0.9-0.3-1.5-0.5c-1.1,1.7-1.4,3.8-1.8,5.8
		c-0.3,1.2-0.3,2.5-0.8,3.6c-2.2,4.5-2.3,9.2-1.7,14.1c0.1,0.7,0.3,1.5,0.3,2.2c0.1,3.3,2.1,5.1,4.7,6.5c1.4,0.7,3,1.1,4.5,1.7
		c4.7,1.9,9.4,3.6,13.8,6.1c2.2,1.3,4.8,1.9,7.2,2.7c2.3,0.7,4.7,1.3,7.1,2c4.5,1.4,7.9,4,10.5,8.1c2.2,3.6,3.5,7.5,4.5,11.6
		c0.2,0.7,0.2,1.5,0.1,2.2c-0.1,2.7,0.4,5.4,1,8c1.5,6.5,3.1,12.9,4.4,19.4c1.1,5.7,2.6,11.3,3.5,17c0.5,2.8,0.7,5.6,0.8,8.4
		c0.2,4.2,0.2,8.4,0.3,12.5c0.1,2.2,0.2,4.4,0.4,6.6c0.3,3.5,0.9,7.1,1.1,10.6c0.2,3.4,0,6.9,0,10.3c0,0.4-0.2,0.8-0.1,1.1
		c1.1,3-0.7,5.5-1.7,8c-1.8,4.3-3.8,8.5-5.7,12.8c-1.1,2.4-2.4,4.5-4.2,6.5c-1.9,2.1-3.5,4.5-5.4,6.5c-2.2,2.3-4.5,4.5-6.8,6.7
		C167.3,264.3,166.7,264.8,166.1,265.2z M131.5,35.8c0.1-0.1,0.2-0.2,0.2-0.2C131.7,35.7,131.6,35.8,131.5,35.8l-0.1,0.2L131.5,35.8
		z M136,47.8c-0.3,0.2-0.5,0.5-0.8,0.7c-0.1,0.1-0.1,0.1-0.2,0.2c0-0.1,0.1-0.2,0.1-0.3C135.4,48.2,135.6,48,136,47.8
		c0-0.2,0-0.2,0.1-0.3C136,47.6,136,47.7,136,47.8z M144.8,553.4c0.1,0.1,0.1,0.2,0.2,0.2c0,0,0.1,0,0.2,0
		C145,553.6,144.8,553.5,144.8,553.4c0.2-0.6-0.2-0.7-0.7-0.7c-0.2-0.3-0.5-0.5-0.7-0.8c-0.2-0.8-0.1-1.8-0.5-2.5
		c-0.7-1.4-0.8-2.8-0.7-4.3c0.1-1.6,0.6-3.2-0.9-4.4c-0.2-0.2-0.2-0.7-0.2-1.1c0.1-2.9-0.6-5.9,1.2-8.6c0.4-0.6,0.4-1.4,0.6-2.1
		c0.5-2.3,0.9-4.6,1.5-6.8c0.5-1.9,0.7-3.9,0.5-5.8c-0.6-7.1-1.2-14.2-1.8-21.3c-0.2-2.9-0.5-5.9-0.7-8.8
		c-0.6-7.5-1.3-14.9-1.9-22.4c-0.6-7.1-1.1-14.2-1.7-21.3c-0.7-8-1.4-15.9-2.1-23.9c-0.2-2.6-0.5-5.1-0.8-7.8c-1,0.4-1.8,0.7-2.6,1
		c-0.5,0.1-1,0.1-1.2-0.7c1.2-1,2.4-2.1,3.6-3.2c-0.7-7.6-1.3-14.9-1.9-22.3c-0.7-8-1.4-15.9-2-23.9c-0.2-2.9-0.3-5.9-2.1-8.4
		c-0.3-0.4-0.3-0.9-0.5-1.4c-0.8-2.5-1.6-4.9-2.3-7.4c-1.4-4.7-2.5-9.5-2.9-14.4c-0.2-2.7-0.5-5.4-0.8-7.9c-0.4-0.3-0.5-0.5-0.8-0.5
		c-2.7-0.6-4.4-2-4.4-5c0-0.4-0.4-0.9-0.7-1.2c-0.2-0.2-0.6-0.2-1.1-0.3c0,0.6-0.1,1.1-0.1,1.6c-0.2,4.9-0.5,9.8-0.7,14.7
		c-0.1,2.7-0.8,5.3,0,8c0.2,0.6,0,1.2,0.1,1.8c0.2,6.6,0.9,13.3,2.3,19.7c0.9,4.2,1.8,8.4,2.2,12.7c0.6,6.4,1.6,12.7,0.8,19.1
		c-0.1,1,0,2-0.1,2.9c-0.1,0.7-0.1,1.5-0.4,2.1c-1.8,4.1-1.4,8.4-0.9,12.6c0.1,1,0.4,1.9,0.5,2.9c0.4,5.5,1,11,3.6,16.1
		c0.4,0.9,0.7,1.9,0.7,2.8c0,4.8,0.1,9.6-0.3,14.4c-0.3,4.2-0.6,8.3-0.5,12.5c0,1,0.2,2.1-0.2,2.9c-1,2.3-0.7,4.6-0.7,6.9
		c0.1,2.9,0.1,5.9,0.7,8.8c1,5,0.9,10.3,3.7,14.9c0.2,0.3,0.2,0.7,0.2,1.1c0.9,5.2,2.1,10.4,2.4,15.7c0.2,3.1,0.4,6.1,0.8,9.2
		c0.6,4.6,0.5,9.1-0.3,13.6c-0.5,2.7-0.7,5.4-0.9,8.1c-0.1,0.7,0.1,1.4,0.2,2.3c1.5,0.2,2.8,0.4,4.1,0.6c2.7,0.5,4.8,1.8,6.1,4.3
		c1,1.8,2.2,3.5,4,4.6c-0.1,0.5,0,0.9,0.7,0.8C143.9,553.2,144.3,553.4,144.8,553.4z M88.8,62.5l-0.2-0.2L88.8,62.5
		c0.1,0.8,0.1,1.6,0.2,2.5c0,0.3,0.2,1,1,0.6c-0.1-0.5-0.2-1-0.4-1.4C89.3,63.6,89,63.1,88.8,62.5z M120.5,19
		c-0.5,0.2-1.1,0.5-1.6,0.7c0.4-1.2,0.9-2.4,1.3-3.7c0.2-0.6,0.1-1.2-0.9-1.3c-0.6,1.9-1.1,3.8-1.7,5.7c-0.2,0.5-0.5,1-0.7,1.5
		c-0.9,1-1.7,2-2.8,2.8c-1.1,0.9-2.4,1.3-3.7-0.3c0.2-2.2,0.4-4.6,0.7-7.1c0.5,0.5,0.8,0.7,1,1c0.3-0.4,0.5-0.7,1.1-1.6
		c0,2,0,3.3,0,4.8c1.4-1.2,1-3.1,2.3-4.1c0,1.3,0,2.5,0,3.7l-0.2,0l0.1-0.1c1.4-2,2.5-4.2,2.2-7c-0.8-0.1-1.6-0.2-2.1-0.3
		c-1.1,0.5-0.6,1.9-1.9,2c-0.2-0.6-0.5-1.3-0.7-1.9c-1.1-0.1-2.1-1.1-3.1,0c0.1,1.4,0.3,2.7,0.2,4c0,1.3-0.4,2.7-0.5,4
		c-0.1,1.3,0,2.6,0,4c-1-0.1-1.8-0.2-2.6-0.3c-0.8-0.1-1.7-0.1-2.7-0.2c-0.9-1.8-1.8-3.5-2.7-5.2c-0.5-1.1-1.1-2.1-0.6-3.5
		c0.3-0.9-0.1-1.9-1-2.8c-0.4,0.2-0.8,0.4-1.3,0.6c0.3,1.3,0.3,2.6,0.8,3.6c0.9,1.9,1.3,3.9,1.8,5.9l0.1-0.1c-2.4-0.8-3.1-2.8-3.6-5
		c-0.2-1,0.3-2.2-0.9-3.2c-0.4,0.2-0.8,0.4-1.1,0.7c-0.2,0.2-0.3,0.6-0.5,0.8c0.5,1.7,1,3.4,1.4,5c0.2,0.9,0.1,1.7-1,2
		c-0.5-0.5-1.1-1-1.6-1.5c-0.5-0.4-0.6-1.2-1.7-1.4c0.5,0.9,0.8,1.6,1.1,2.2c0.2,0.6,1.3,0.9,0.6,1.8c-1.6-0.5-2.1-2.3-3.5-3
		c-0.9,0.6-0.1,1.6-0.4,2.3c-0.4,0.7-1,1.3-1.5,1.9c0.6,1,1,1.8,1.5,2.7c-0.7,0-1.1,0-1.8,0c0.3,1.3,0.6,2.4,0.9,3.5
		c-0.5,0-0.9,0-1.3,0c0-0.1,0-0.2,0-0.3c0,0-0.1,0-0.2-0.1c0.1,0.1,0.2,0.2,0.3,0.3c0,0.6,0,1.2,0.1,1.8c0.3,1.3,0.7,2.5,1.1,3.9
		c0.4-0.1,0.9-0.2,1.5-0.3c0.1,0.9,0.2,1.8,0.2,2.6c0,1-0.5,1.6-1.5,1.7c0-1.4-0.4-2.5-1.8-3.2c-0.4,0.7-0.5,1.3,0.2,1.9
		c0.5,0.4,1.1,0.8,1.7,1.2c-0.5,1.2-1,2.3-1.2,3.8c-0.3,3.2,0,6.3,0.2,9.5c0.1,2,0.5,3.9,1.4,5.7c1.2,2.4,1.9,5.1,2.4,7.7
		c0.7,3.3,2.2,6.2,3.8,9.1c0.5,0.9,1.2,1.9,2.1,2.5c2.6,1.9,5.2,3.6,8.3,4.7c1.7,0.6,3.4,0.9,5.1,0.5c2.4-0.5,4.7-1.3,7-2.2
		c4.3-1.9,6.7-5.7,8.1-10c1.2-3.3,1.9-6.8,2.8-10.3c0.5-2,0.9-4.1,1.7-6c1.4-3.2,1.2-6.4,0.4-9.7c-0.6-2.7-1.1-5.5-0.1-8.2
		c0-0.5,1-1,0-2c0,0.9,0.1,1.5,0.1,2.1c-2.4-0.6-2.6-0.9-2-3c0.2-0.5,0.2-1.1,0.3-1.7c1.6-1.2,1.6-1.2,1.1-3c-0.4,1.1-0.7,2.1-1.1,3
		c-0.9-1.2-0.9-2.5-0.3-3.8c0.4-1,0.8-2.1,1.2-3.1c0.4-1.3,0.3-2.5-0.6-3.8c-0.5,2-0.9,3.8-1.2,5.5c-0.4-0.9-0.5-2-1.1-2.6
		c-1.1-0.9,0.3-2.2-0.8-3c-0.9-0.4-0.9,1.6-2.2,0.6c0.9-0.9,0.8-2.5,2.4-3c0.5,0.5,1,1.1,1.8,1.9c0-1,0.3-1.8,0-2.3
		c-0.7-1.4-1.8-2.7-3.3-3.4c-0.5-0.2-1.2,0-1.7,0l0.1,0.1c-0.2-0.7-0.1-1.7-1.3-1.8c-0.6,0.9-1.2,1.7-1.8,2.6c0-0.2-0.1-0.4-0.1-0.7
		c0-0.1-0.2-0.2-0.3-0.3c0,0.1-0.1,0.2-0.1,0.3C120.5,18.6,120.5,18.8,120.5,19z M135.8,55c0.8-0.4,1.5-0.9,1.4-1.9c0-1,0-2-0.1-2.9
		c0-0.1-0.3-0.3-0.5-0.4c-1,0.6-1.6,1.4-1.9,2.5c1.1,1.4,1.1,1.4,1.2,2.9c-0.2,0.1-0.4,0.2-0.5,0.4c-0.1,0.1,0.1,0.4,0.1,0.6
		c0.1-0.1,0.3-0.3,0.3-0.4C135.9,55.5,135.9,55.3,135.8,55z M121.2,10.9c0.1-1.3-0.7-2.1-1.8-2.4c-3.7-1.2-7.4-1.7-10.5,1.6
		c-0.1,0.1-0.1,0.4-0.2,0.9c1,0.2,2.1,0.3,2.7,0.4c1.3-1,2.1-1.8,3.1-2.5c0.2-0.1,0.6,0.1,1,0.1c-0.7,0.8-1.4,1.4-2.3,2.5
		c1-0.2,1.5-0.3,2.1-0.4l-0.1-0.1c1.2,1.6,1.5,1.6,3.7,0.7c0.1,0.1,0.1,0.3,0.2,0.3c0.3,0.2,0.6,0.3,0.9,0.4
		c0.7,0.2,1.5,0.4,2.3,0.6C122.5,11.7,122,11.2,121.2,10.9z M105,314.3c-0.2,0.2-0.5,0.5-0.7,0.7c-0.3,0.5-0.6,1.1-0.9,1.6
		c-0.6,0.8-1.4,1.1-1.8,0.7c-0.5-0.5-0.3-1.1-0.1-1.7c0.5-1.1,1.1-2.2,1.5-3c0-2,0-3.7,0-5.3c-1.9-1.5-3.8-2.9-5.6-4.3
		c-1.9,1.2-3.4,2.8-3.7,4.9c-0.5,3.5-1.1,7.1,1.1,10.1c-0.3,1.2-0.7,2.1-0.8,3.1c-0.5,4.3-1.1,8.5-1.3,12.8
		c-0.3,6.5-0.2,13-0.2,19.8c0.4-0.6,0.8-0.9,0.9-1.3c0.3-1.1,0.5-2.2,0.6-3.3c0.6-6.7,2.3-13,4.2-19.4c0.7-2.5,1.3-5,1.9-7.5
		c0.5-2,1.4-3.7,3.6-4.2c0.4-0.1,0.9-0.4,1.4-0.6C104.9,316.4,104.9,315.3,105,314.3c0-0.1,0-0.2,0.1-0.3
		C105,314.1,105,314.2,105,314.3z M52.6,221.2c0.9,0.5,1.8,1,2.9,1.6c0-0.9,0.2-1.9,0.1-2.8c-0.3-4,0.6-7.8,2-11.5
		c1.9-4.9,3.1-10.1,3.8-15.3c0.7-4.9,1.5-9.7,2.2-14.6c0.2-1.1,0.4-2.2,0.6-3.3c0.2-1.1,0.1-2.2-0.6-3.2c-1.5-1.9-1.9-4.3-2.1-6.6
		c-0.5-7.2-0.9-14.5,1.4-21.3c0-2.2-2-3.6-1.4-6.1c1,1.1,1.7,2,2.5,3c1.1-2.8,2-5.3,3-7.8c0.2-0.6,0.3-1.3,0.7-1.7
		c1.4-1.2,1.8-2.9,2.3-4.5c1.9-5.2,4.3-10.2,7-15c1.6-2.8,3.3-5.4,5-8.2c0.2-0.4,0.7-0.8,0.2-1.3c-0.2,0-0.5-0.1-0.7,0
		c-1.9,1.1-4,1.7-6.2,2.2c-2,0.4-4,1.2-5.9,1.9c-1.4,0.5-2.7,1.2-4.1,1.6c-1.7,0.6-3.5,1-5.3,1.6c-2.5,0.8-4.7,2.1-6.4,4.2
		c-1.1,1.3-2.1,2.7-3.1,4.1c-1.9,2.6-2.9,5.7-3.4,8.9c-0.3,2.3-0.6,4.6-0.9,6.9c-0.3,2.4-0.8,4.8-1.7,7.1c-0.9,2.4-1.6,4.9-2,7.5
		c-0.9,5.1-1.9,10.1-2.9,15.2c-1.3,6.4-2.1,12.8-2.9,19.3c-0.6,5.4-0.9,10.8-1.2,16.2c-0.4,6.4-0.6,12.8,0,19.2
		c0.2,2,0.3,3.9,0.3,5.9c0,1.5,0.4,2.9,1.1,4.2c1,1.7,2.1,3.3,3,5.1c0.5,0.8,1.1,1.8,1.1,2.6c0,1.5,0.7,2.6,1.3,3.8
		c3.4,6.6,7.7,12.5,13.2,17.6c2.4,2.3,4.8,4.6,7.1,7c0.8,0.8,1.7,1.6,2,2.6c0.5,1.6,1.6,2.7,2.6,4c4.8,6.3,9.1,12.9,11.6,20.4
		c0.4,1.3,0.9,2.6,1.5,3.8c1.4,2.6,2.3,5.4,3.1,8.3c0.5,1.8,0.9,3.6,1.5,5.3c0.9,2.5,2.7,3.9,5.2,4.3c0.6-2.1,1.1-3.9,1.7-6.1
		c-1.4-2.8,0.5-4.6,2.9-6.2c-1.5-1-2.9-1.8-4-2.5c-1.2,0-2.2,0.1-3.1,0c-0.4-0.1-0.9-0.6-0.9-0.9c0-0.3,0.5-0.9,0.9-1
		c1.6-0.3,3.1,0,4.5,1c0.9,0.6,1.8,1.3,2.8,1.7c1.6,0.7,3,1.7,4.2,2.9c1.2,1.1,2.4,2.1,3.7,3c2.5,1.7,3.8,1.6,6.2-0.2
		c0.1-0.1,0.4,0,0.9-0.1c0.1,0.5,0.4,1.2,0.3,1.6c-1.1,2.4,0.3,3.8,1.7,5.3c2.8-1.7,2.9-1.9,2.3-5c-0.1-0.6,0-1.2,0.8-1.4
		c0.3,0.2,0.6,0.3,0.9,0.5c1.1,1.2,2.4,1.2,3.7,0.7c0.9-0.3,1.8-0.8,2.6-1.4c1.3-0.9,2.5-2,3.7-3c0.9-0.7,1.8-1.3,2.7-1.9
		c1.3-0.8,2.7-1.7,4.1-2.5c1.4-0.8,3-1.1,4.6-0.6c0.2,0.1,0.4,0.6,0.5,0.9c0,0.2-0.2,0.5-0.4,0.5c-1.2,0.1-2.4,0.2-3.7,0.3
		c-1.2,0.8-2.4,1.6-3.6,2.4c0,0.2,0,0.3,0.1,0.4c0.1,0.2,0.3,0.4,0.5,0.5c1.9,1.2,2.6,2.8,2.1,5c-0.1,0.4-0.2,0.8-0.1,1.1
		c0.6,1.9,1.2,3.7,1.7,5.5c3.7-1.4,4.4-2.1,5.4-5.3c0.4-1.3,0.7-2.6,1.1-3.9c0.8-2.4,1.6-4.9,2.5-7.3c0.7-1.8,1.6-3.6,2.3-5.4
		c1.8-5,4-9.8,7.2-14.1c1.7-2.3,3.3-4.6,4.9-6.9c0.4-0.6,1.1-1.1,1.3-1.8c0.7-2.4,2.5-3.9,4.1-5.6c2.8-2.8,5.7-5.5,8.4-8.3
		c4.8-4.9,8.5-10.5,11.3-16.7c1.3-3,2.7-6,4.3-8.9c0.9-1.6,1.6-3.3,1.5-5.3c0-0.7,0.2-1.4,0.4-2.1c0.2-1.1,0.6-2.2,0.6-3.2
		c-0.1-3.9-0.1-7.9-0.4-11.8c-0.4-5.6-1.1-11.3-1.6-16.9c-0.7-7-1-14-3-20.8c-0.3-1.1-0.3-2.2-0.4-3.3c-0.7-7.4-2.2-14.6-3.8-21.8
		c-0.3-1.4-1-2.8-1.4-4.2c-1-4.4-2-8.9-2.8-13.3c-0.7-4.1-2.4-7.7-4.7-11.1c-2.7-4-6.3-6-11.1-6.3l0.1,0.1c-0.7-0.4-1.4-0.8-2.2-1.2
		c-1.2-0.6-2.5-1.1-3.7-1.7c-3.1-1.6-3.8-1.9-8.7-2.4c0.6,2.1,1.2,4.2,1.9,6.3c1.9,1.1,1.9,1.1,2.4,2.8c0.3,0.9,0.6,1.9,0.7,2.9
		c0.4,2,0.5,4.1,1,6.1c1.4,6.1,2.8,12.2,4.2,18.3c0.2,1,0.6,2,0.9,3.1c1.7-0.3,1.8-2.6,3.8-2.4c1.1,2.6-1.5,4.1-2,6.3
		c0.2,0.3,0.3,0.8,0.6,1.2c1.7,2.7,2.3,5.6,2.3,8.8c0,2.1-0.1,4.2,0,6.3c0,2.7-0.3,5.4-1.1,8c-0.5,1.4-0.4,2.8-0.2,4.3
		c0.8,4.9,2.1,9.6,3.4,14.3c0.4,1.5,0.9,3.1,1.1,4.7c0.5,6.1,1.6,12.2,3,18.1c0.7,3.2,1,6.3,0.9,9.5c0,0.3,0.1,0.6,0.1,1.2
		c0.5-0.7,0.9-1.2,1.2-1.7c0.6-0.9,1.4-0.8,2.3-0.6l-0.1-0.1c-1,1.6-0.8,3.8-2.4,5.2c-0.6-0.1-1.1-0.1-1.5-0.2
		c-0.8,1.5-1.5,3.1-2.5,4.5c-1,1.5-2.3,2.9-3.5,4.3c-1.3,1.5-2.5,3-3.2,4.9c-1.9,4.8-4.1,9.4-6.7,13.9c-2.5,4.4-5,8.7-8.4,12.5
		c-2.9,3.2-5.2,6.8-8.5,9.7c-0.2,0.2-0.2,0.4-0.4,0.6l0.1-0.1c-2.8,1.2-5.6,2.5-6.7,5.7c-1.7,1.7-1.9,3.9-2.2,6.1
		c-0.1,1.1-0.2,2.2-0.3,2.8c-1.1,1.1-2.1,1.8-2.6,2.7c-1.3,2.4-3.3,4-5.4,5.4c-1.3,0.9-2.5,1.9-3.1,3.5c-0.2,0.6-0.7,1-1.6,0.8
		c0-0.5-0.2-1.1-0.1-1.6c0.1-0.8,0.6-1.7,0.5-2.5c-0.5-2.1,0-4.1,0.1-6.2c0.2-3.2,0.6-6.4,0.9-9.5c0-0.3,0.3-0.5,0.5-0.9
		c0.9,0.9,0.5,1.9,0.6,2.9c0,0.9,0,1.7-0.1,2.6c-0.1,1-0.3,2-0.3,2.9c0,0.9-0.3,1.9,0.2,2.7c0.3-0.1,0.5-0.1,0.6-0.1
		c0.9-1,1.5-2.4,2.6-2.9c1.1-0.6,2.6-0.4,4.1-0.6c0.2-0.5,0.6-1,0.7-1.5c0.6-2.7,1.7-5.1,2.6-7.6c0.9-2.4,2.4-3.8,4.5-5.1
		c3.6-2.1,6.8-4.8,9.2-8.4c0.9-1.3,1.8-2.6,2.8-3.9c3-3.8,5.4-7.9,7.7-12.1c0.3-0.5,0.8-0.9,0.2-1.8c-0.6,0.2-1.3,0.4-1.9,0.7
		c-5.9,2.9-12.1,4.8-18.6,5.6c-1.9,0.2-3.9,0.4-5.7,1.2c-1,0.4-2.1,0.6-3.2,0.7c-9.1,0.6-18.1,0.5-27-2c-5.7-1.6-11.2-3.6-16.8-5.5
		c-1.6-0.6-3.1-1.5-4.9-1.3c-0.1,0-0.2-0.1-0.3-0.1c0.1,0,0.2,0,0.3,0c-0.3,1.1,0.5,1.9,0.9,2.7c2.7,5,6,9.5,9.3,14.2
		c3,4.2,6.5,7.7,11,10.1c1.3,0.7,2.5,1.6,3,3.1c1,2.9,2.6,5.6,3.1,8.6c0.1,0.8,0.6,1.5,1,2.3c0.6-0.1,0.9-0.1,1.3-0.1
		c1.9-0.3,3.4,0.3,4.3,2c0.3,0.6,0.9,1.1,1.4,1.6c0.8,0.9,1.6,1.8,2,2.2c0.2,2.7,0.4,4.7,0.6,6.9c-0.3,0.4-1.1,0.7-1.3,0
		c-1-2.3-3-3.5-4.8-4.9c-1.2-1-2.3-2.2-3.4-3.4c-1-1.2-2-2.4-3.3-4c0-3.3-1-6.9-3.2-10.2c-0.7-0.9-1.3-1.7-2.3-2.3
		c-1.1-0.6-2.1-1.2-3.1-1.8c-1.1,1.3-2.4,1.4-3.7,0.7c-0.8-0.5-1.4-1.2-1.1-2.4c1.3,0.4,2.1,1.7,3.6,0.8c-0.4-0.5-0.7-1-1.2-1.4
		c-1.7-1.6-3.2-3.3-4.6-5.3c-0.5-0.7-1.1-1.3-1.6-2c-1.9-2.4-3.9-4.8-5.6-7.3c-4.1-6.1-7.3-12.8-10.2-19.6c-0.8-1.8-1.7-3.5-3.1-5
		c-2.5-2.7-4.9-5.5-6-9c-1.9,0-2.1,0-2.4-0.7c-0.6-1.6-1.6-3.1-1.3-4.9L52.6,221.2z M94.2,248.3c1.9,1.5,1.4,4.2,3.1,6
		c4.1,1,8.4,1.7,12.9,1.7c5.3,0,10.6,0.1,15.9,0.1c4.1,0,8-1.2,11.8-2.4c0.5-1,1-1.9,1.4-2.8c0.4-0.9,0.8-1.8,1.1-2.7
		c0.3-0.9,0.6-1.9,1-2.8c0.4-0.8,0.4-1.8,1.3-2.8c0.2,0.8,0.4,1.2,0.4,1.6c-0.2,2.3-0.9,4.6-1.8,6.7c-0.2,0.5-0.8,1-0.1,1.8
		c4.2-1.8,8.5-3.6,12.9-5.5c2-3.5,2.6-7.1,0.9-11.1c-0.8-1.9-1.4-3.9-1.9-6c-0.9-2.9-1.7-5.9-2.4-8.9c-1.5-6.3-1.3-12.6,0.3-19
		c0.8-3.3,1.5-6.7,2.2-10.1c0.1-0.6,0.3-1.2-0.5-1.9c-0.5,0-1.2-0.2-1.9-0.2c-6.9,0-13.8,0.1-20.6,0.1c-0.1,0-0.2,0.1-0.3,0.1
		c-0.1,0.1,0,0.2-0.1,0.4c0.9,0.6,1.8,1.2,2.7,1.8c1.4,1,2.8,2.1,3.6,3.6c0.1,0.3,0,0.6,0,1.4c-2.2-1.2-3.8-2.7-5.7-3.8
		c-1.9-1.1-3.7-2.2-5.9-3.6c-15.8,0.5-32,1-48.2,2.3c-0.3,0-0.7,0.2-1.1,0.4c0,0.5-0.1,1-0.1,1.4c0.5,2.8,1,5.6,1.7,8.3
		c1.5,5.7,1.8,11.4,0.6,17.2c-0.7,3.5-1.6,6.9-2.6,10.3c-1,3.5-2.2,7-3.3,10.6c-0.3,1.1-0.6,2.1-0.8,3.2c-0.3,1.5,0.4,2.8,2.1,3.3
		c3.9,1,7.8,2.4,11.6,3.5c2.8,0.9,5.7,1.7,8.5,2.5c0.6,0.2,1.1,0.5,1.8-0.2C94.4,251.6,93.3,250.1,94.2,248.3z M74,190.2
		c1.2,0,2.1,0,3.1,0c7.1-0.4,14.2-0.9,21.4-1.1c15.7-0.4,31.5-0.7,47.2-0.9c2.2,0,4.4,0.3,6.6,0.4c0.5,0,0.9-0.1,1.3-0.1
		c1.1-2.9,2.1-5.7,3.2-8.4c1-2.4,1.5-4.9,1.3-7.5c-0.1-1.4,0-2.7,0.6-4c0.8-1.6,1-3.3,0.9-5c0-1.8-0.2-3.7-0.1-5.5
		c0.2-2.4-0.5-4.6-1.5-6.8c-1.5-3.4-2.8-6.8-3.7-10.4c-0.2-0.7-0.3-1.5-0.7-2.1c-1-1.5-1.3-3.2-1.6-4.9c-0.5-2.8-1.1-5.6-1.6-8.3
		c-1-5.1-2.3-10.1-4.8-14.7c-1.2-0.2-2.6,1.9-3.8-0.1c0.5-1.8,2.3-0.9,3.4-1.4c-0.6-1.8-1.1-3.5-1.8-5c-0.3-0.8-0.9-1.6-1.5-2
		c-1.3-0.8-2.8-1.4-4.4-1.8c-0.2,1,0.4,1.6,0.6,2.2c1,2.9,2.4,5.7,2.9,8.7c0.9,5.1,1.2,10.3,0.7,15.4c-0.1,1.3-0.4,2.7-0.8,4
		c-2.2,7.6-7.1,12.8-14.3,15.9c-0.9,0.4-2,0.6-2.6,1.2c-2.9,2.7-6.4,3.5-10.1,3.8c-3.8,0.3-7.6-0.3-11.4-1c-2.9-0.5-5.3-2-7.8-3.1
		c-3.4-1.5-5.9-4-7.6-7.3c-1.9-3.5-2.8-7.3-2.9-11.3c-0.2-3.6,0.2-7.1,0.7-10.7c0.6-3.9,1.5-7.8,3.5-11.2c1.3-2.3,2.1-4.7,2.9-7.2
		c0.2-0.5,0-1.1-0.1-1.8c-1.5,0.6-2.8,1.1-3.9,1.6c-1.7,3.2-3.4,6.2-5,9.2c-0.1,0.2,0,0.4,0,0.6c0.6,0.2,1.1,0.4,1.6,0.6
		c-0.4,1.8-0.4,1.9-1.7,1.3c-0.3-0.1-0.6-0.2-1-0.4c-0.6,1.2-1.2,2.2-1.8,3.3c-0.4,0.7-0.7,1.7-1.4,2.2c-2.3,1.6-3.1,4.1-4,6.4
		c-1.8,4.5-3.8,8.8-5.9,13.1c-2.4,4.7-3.7,9.7-4.2,14.8c-0.7,6.6,0,13.2,0.5,19.9c1,0.5,1.9,1.1,2.2,2.3c0.1,0.7,0.6,1.4,1.1,1.9
		c0.9,0.9,1.3,2,1.8,3.2C71,182.1,72.5,186,74,190.2z M91.5,405.2c-0.2,0.4-0.4,0.6-0.4,0.8c-0.3,4.3-0.6,8.6-0.8,12.9
		c-0.3,5.4-0.6,10.8-1,16.2c-0.7,10.7-1.4,21.3-2.1,32c-0.4,5.6-0.8,11.3-1.2,16.9c-0.2,3.1-0.4,6.1-0.4,9.2c0,1.2,0.1,2.5,0.4,3.6
		c2.3,7.4,3.6,15,5.4,22.6c1.4,6.1,2.7,12.2,4.1,18.3c0.3,1.4,0.4,2.9,1.6,4.3c3.1-2.1,6.8-2.6,10.5-2.9c0.3-2.3,0.3-4.2-0.6-6.3
		c-1.1-2.6-1.2-5.5-1-8.3c0-0.6,0.1-1.5,0.5-1.7c1.7-1.1,1.3-2.8,1.3-4.3c0.1-7.5-0.1-15,0.8-22.5c0.4-3.2,0.6-6.4,0.9-9.5
		c0.5-4.4,1.1-8.8,1.6-13.2c0.1-1.2,0-2.4,0-3.7c-0.1-1-0.3-1.9-0.4-2.9c-0.6-5.4-1.1-10.8-1.7-16.1c-0.6-5.1-1.1-10.3-1.7-15.4
		c-0.5-3.9,0-7.6,1.2-11.3c1.4-4.2,2.1-8.6,2.1-13.1c0.1-4.1,0.1-8.1,0-12.2c-0.1-2.9-0.4-5.9-0.5-8.8c-0.1-3.4-0.2-6.9-0.2-10.3
		c0-2.9,0.1-5.9,0.4-8.8c0.4-4.6,1.2-9.3,1.6-13.9c0.3-3.7,0.7-7.4,0.5-11c-0.2-3.2-0.1-6.4,0.2-9.5c0.7-7,1.3-14,1.1-21
		c0-0.7-0.2-1.4-0.3-2c-2.5-0.1-4.6,0-6.2,2.5c-0.1,1.4-0.2,3.1-1.7,4.4c-0.4,0.3-0.4,1.1-0.5,1.7c-0.4,1.9-0.7,3.9-1.2,5.8
		c-0.6,2.4-1.3,4.7-1.9,7.1c-1.2,4.3-2.4,8.5-3.6,12.8c-0.3,1.1-0.8,2-1.8,2.1c-0.6,1.8-1.1,3.4-1.7,5c-0.5,1.5-0.8,3.1-0.9,4.7
		c-0.3,6.4-0.8,12.8-1.2,19.1c-0.4,6.7-0.8,13.5-1.3,20.2c-0.2,2.3,0.4,4.1,2,5.6c1.3,1.3,2.6,2.6,3.9,3.9c0.4,0.4,0.3,0.9-0.3,1.3
		C94.6,409,93.5,406.5,91.5,405.2z M94.8,96.8c0.2,1.9-0.7,4.2-1.5,6.5c-0.7,2-1.4,3.9-2,5.9c-0.3,0.8-0.4,1.6-0.6,2.6
		c1.5,0.7,2.8,1.4,4.1,1.9c1.5,0.6,3.1,0.9,4.5,1.5c1.3,0.5,3-0.1,4.2,1.4c-0.4,0.4-0.8,0.8-1.1,0.9c-0.7,0.1-1.5,0.1-2.2,0
		c-3.3-0.5-6.5-1.5-9.4-3c-0.3-0.2-0.7-0.2-1-0.4c-0.8,0.6-1.6,1.2-2.3,1.8c-0.9,5-0.9,10.1-0.3,15.1c0.4,3.1,1.4,6,3,8.6
		c2.8,4.5,6.7,7.5,12,8.4c2.3,0.4,4.6,0.6,6.9,0.8c0.7,0.1,1.5,0.2,2.4-0.7c-0.5-2.2,0.8-4.4,1.7-6.6c-1.1-2.6-3.1-4.2-4.9-5.9
		c0.3-0.8,0.8-1,1.2-0.7c0.9,0.6,1.8,1.2,2.6,1.9c0.8,0.7,1.5,1.6,2.4,2.6c0.7-0.8,1.1-1.5,1.7-2.1c1-1.1,2-2.2,3-3.2
		c0.4-0.4,0.9-0.3,1.3,0.3c-0.4,0.6-0.8,1.2-1.2,1.8c-1.6,2.6-3.2,5.2-4.7,7.9c-0.8,1.4-1.3,2.9-0.5,4.5c2.1,0.3,3.8-0.3,5.5-1.1
		c4.9-2.4,9.5-5.2,13.2-9.3c4.7-5.1,6.4-11.2,6-18c0-0.3-0.2-0.9-0.4-1c-1.3-0.6-0.9-1.6-0.9-2.5c0-0.9,0-1.9,0-3.2
		c-1,0.4-1.6,0.7-2.3,0.9c-2.2,0.7-4.4,1.6-6.6,2.2c-1.3,0.3-2.7,0.2-4,0.2c-0.3,0-0.6-0.6-1.2-1.1c2.6-0.7,4.9-1.1,7.1-1.9
		c2.3-0.8,4.5-1.9,6.9-2.8c0-0.6,0.1-1.1,0-1.6c-0.5-3.9-2.1-7.3-3.8-10.7c-0.3-0.6-1-1.1-1.6-1.5c-0.5-0.4-1.2-0.3-1.7,0.2
		c-0.3,0.3-0.5,0.9-1.3,0.5c-2-2.7-2.9-6-3.4-9.4c-0.3-2.3-1-4.5-1.6-7.1c-2.1,2.5-4.6,3.8-7.3,4.7c-0.5,0.2-0.9,0.4-1.3,0.7
		c-3,1.9-6.1,1.6-9.1,0.1c-2.5-1.2-5-2.4-7.5-3.6c-0.5,0.6-0.1,1.1,0,1.5c0.3,1.9,0.3,3.6-0.7,5.3C97,92.3,96.1,94.3,94.8,96.8z
		 M148,495.9c0.2,0,0.4,0,0.7,0.1c0.1-0.6,0.3-1.1,0.4-1.7c0.8-4.8,1.7-9.7,2.5-14.5c0.4-2.3,0.8-4.6,0.8-6.9
		c0.2-10.7-1.2-21.3-3.6-31.8c-0.7-2.9-1.3-5.8-1.9-8.6c-0.3-1.4-0.2-2.9-0.2-4.4c0.1-5,0.4-10.1,1.1-15.1c0.1-0.4,0-0.7,0.1-1.1
		c0.2-4.7,0.3-9.3,0.6-14c0.2-2.7,0.3-5.5,1.2-8c0.9-2.3,1.5-4.6,2-7c2.2-10.8,4.5-21.7,6.5-32.5c1.4-7.5,2.4-15,3.5-22.6
		c0.5-3.2,0.9-6.3,1.2-9.5c0.2-1.7,0.5-3.4,0.2-5.1c-1.5-0.2-2.8-0.2-4.1-0.5c-1.4-0.4-2.8-1-4.1-1.5c-4.1-1.5-8.2-1.3-12.3-0.6
		c-2,3.5-4.8,5.7-8.5,6.4c-0.8,1-0.6,2-0.4,2.9c0.8,3.2,1,6.6,0.9,9.9c-0.3,7.8,1.1,15.4,1,23.2c0,5.4,0.8,10.8,1.3,16.2
		c0.9,9.5,1.7,19.1,2.6,28.6c0.2,2.1,0,4.2,1.1,6.1c-0.4,2.1-0.4,4.1-0.1,6.2c0.2,2,0.4,3.9,0.6,5.9c0.6,7,1.1,14,1.7,20.9
		c0.9,9.8,1.8,19.6,2.7,29.4c0.7,7.7,1.4,15.4,2,23.1C147.7,491.5,147.8,493.7,148,495.9z M60.9,311.6c0,1.3-0.1,2.3,0,3.2
		c0.7,7.6,1.6,15.2,3,22.7c2.8,14.6,6.2,29.1,10.4,43.4c0.4,1.3,0.8,2.7,0.7,4c-0.1,2,0.4,3.9,0.9,5.8c1.2,4.9,3.1,9.6,4.2,14.5
		c1.3,5.7,2.3,11.3,1.9,17.2c-0.1,1.6-0.4,3.2-0.8,4.7c-0.2,1-0.6,1.9-0.3,2.9c0.6,2,0.1,3.9-0.5,5.8c-0.8,2.7-1.7,5.4-2.3,8.2
		c-0.7,3.5-1.8,6.9-0.6,10.5c0.2,0.5-0.1,1.2-0.1,1.8c0,1.7-0.1,3.4,0,5.1c0,1.5,0.5,3,0.3,4.4c-0.3,3.1,0.4,6.1,1,9.1
		c0.6,2.9,1.1,5.8,2.4,8.9c0.2-1,0.3-1.6,0.3-2.2c0.2-3.3,0.5-6.6,0.7-9.9c0.6-9.9,1.3-19.9,1.9-29.8c0.4-6.4,0.7-12.8,1.1-19.2
		c0.6-9.7,1.3-19.4,1.9-29.1c0.4-7,0.8-14,1.2-21c0.3-4.8,0.7-9.6,0.9-14.4c0.4-7.1,0.6-14.2,0.9-21.4c0.2-5.2,0.6-10.3,2-15.3
		c0.5-1.8,0.4-3.4-1.1-5c-3.6-0.8-6.4-3-8.5-6.4C75.3,309.7,68.3,310.8,60.9,311.6z M126.1,542.9c0.6-4.2,1.2-8,1.6-11.8
		c0.2-1.8,0.2-3.7,0.2-5.5c0-1.6-0.1-3.2-0.2-4.8c-0.4-7-1-13.9-2.5-20.8c-1.6-7.3-3.1-14.7-3.9-22.1c-1.1-9.2-1.1-18.4,0-27.6
		c0.6-5,0.6-10.1,0.7-15.1c0-2-0.3-3.9-1.1-5.7c-2.1-5.1-2.7-10.5-3.3-15.8c-0.7-6-0.4-12,0.4-18c0.6-3.8,0.5-7.6,0-11.4
		c-0.5-3.9-0.9-7.8-1.3-11.7c-0.4-4.3-1.2-8.4-2.5-12.7c-0.9,5.5-1.7,10.8-2.5,16.1c-0.1,0.7-0.2,1.5-0.1,2.2
		c0.2,4.8,0.4,9.6,0.6,14.4c0,1-0.1,2.1,0.4,2.9c0.7,1.4,0.8,2.8,0.9,4.3c0.2,2.8,0.4,5.6,0.5,8.5c0.3,10.5,0.3,10.5-3.2,20.6
		c-0.6,1.7-0.9,3.3-0.7,5.1c0.4,3.4,0.7,6.9,1.2,10.2c1.4,8.4,2.5,16.8,3,25.3c0.2,2.7,0.3,5.4-0.1,8.1c-0.4,3.3-0.2,6.7-1.7,9.7
		c-0.2,0.3-0.1,0.7-0.1,1.1c-0.5,6.6-1,13.2-1.6,19.8c-0.2,2-0.3,3.9-0.7,5.9c-0.4,2-0.5,3.9-0.4,5.9c0.2,4,0.6,8.1,0.8,12.1
		c0.1,2.2,0.3,4.4,0.4,6.6c0.1,1,0.3,1.9,1.1,2.7c2.5,2.4,3.4,5.6,4.2,8.8c0.1,0.5,0,1,0.3,1.4c1.6,2.3,1.6,4.8,1.7,7.4
		c0.2,3.5-0.3,6.8-1.1,10.2c-0.3,1.5-0.7,3,0,5.1c0.3-1.1,0.4-1.5,0.5-2c0.2-2,0.2-4,0.7-5.8c0.8-2.9,0.9-5.8,0.7-8.8
		c-0.2-2.8,0.2-5.6,1.1-8.4C121.1,546,122.5,543.4,126.1,542.9z M117.2,591c0.9,0.4,1.8,1.1,2.9,1.3c2.8,0.5,5.6,0.4,8.4-0.1
		c1.4-0.3,2.9-0.6,4.3-0.8c1.6-0.2,3.2-0.3,4.9-0.5c-1-1-2.1-1.2-3.2-1.3c-2.3-0.1-4.7-0.3-7,0.4c-0.8,0.2-1.7,0.5-2.4-0.2
		c-0.2-0.7,0-1.3,0.6-1.5c0.9-0.4,1.8-0.8,2.8-0.9c2.8-0.1,5.7-0.2,8.5,0c2.3,0.2,4.6,0.8,6,3c2.5,0,4.8,0.2,7.1-0.3
		c0.3-0.9,0.4-1.6,0.7-2.2c0.2-0.6,0.2-1.5,1.2-1.5c0.2,1.6,0.5,3.1,0.7,4.6c1,0.1,1.4-0.3,1.5-1c0.1-1,0.1-2,0-2.9
		c-0.5-6.5-1.1-13-1.6-19.5c-0.9-9.8-1.8-19.6-2.6-29.4c-0.6-7-1.2-14-1.8-20.9c-0.6-7.1-1.3-14.2-1.9-21.3
		c-0.6-6.9-1.1-13.7-1.7-20.6c-0.9-10-1.8-20.1-2.7-30.1c-0.7-7.5-1.3-14.9-2-22.4c-0.5-6.1-1.1-12.2-1.6-18.4c-0.6-7-1.1-14-1.7-21
		c-0.7-8.1-1.4-16.2-2.2-24.2c-0.1-1.6-0.2-3.1-0.9-5.2c-0.7,1.8-0.4,3.1-0.3,4.4c0.6,7.2,1.3,14.4,1.9,21.7c1,11.5,2,23,2.9,34.5
		c1,11.8,2,23.5,3,35.3c0.7,8.5,1.4,16.9,2.1,25.4c1,11.6,2,23.3,3,34.9c1,11.8,1.9,23.5,3,35.3c1,11,1.4,22.1,3.2,33
		c0.1,0.6,0,1.2,0,1.8c0,1,0.2,1.9,0.2,2.9c0,0.3-0.2,0.5-0.4,0.8c-0.9-1.8-1.7-3.6-2.5-5.3c-0.7-1.3-1.1-2.7-1.2-4.2
		c-0.1-1.3-0.3-2.7-0.7-4c-0.8-2.6-1.1-5.3-1-8c0-1.4,0.1-2.7,0-4.1c0-0.7-0.3-1.4-0.4-2c-3.4-0.3-4.1-0.6-5.6-2.6
		c-1.2-1.7-2.4-3.4-3.2-5.3c-0.8-2.2-2.4-3-4.4-3.3c-2.6-0.4-5.1,0.4-7.6,0.9c-1.6,0.3-2.8,1.6-3.2,3.3c-0.4,1.4-0.5,2.9-0.4,4.6
		c5-1.6,9.8-1.1,14.7-0.7c0.6,0.1,1.2,0.2,1.8,0.3c0.6,0.2,1.1,0.5,1.2,1.2c0.1,0.6-0.6,1.3-1.5,1.4c-0.7,0.1-1.5,0.1-2.2,0.1
		c-2.6,0-5.2,0.1-7.7,0.2c-0.6,0-1.3-0.3-1.9,0.7c1.7,0.2,3.3,0.4,4.8,0.6c1.6,0.2,3.2,0.2,4.8,0.4c0.6,0.1,1.2,0.3,1.7,0.5
		c0.3,0.1,0.5,0.6,0.6,0.9c0,0.3-0.2,0.8-0.4,0.9c-1,0.3-2.1,0.8-3.2,0.8c-3.2,0-6.4-0.2-9.6-0.5c-2.4-0.2-2.7-0.8-1.8-3.4
		c0-0.1,0-0.2,0-0.4c-0.3-0.5-0.5-1.2-1.5-0.8c-0.1,0.8-0.2,1.6-0.1,2.5c0.2,2.5-0.1,4.9-0.5,7.3c-0.2,1-0.3,1.9-0.4,2.9
		c-0.1,1.6-0.3,3.2-1.4,4.5c-0.3,0.4-0.5,1.1-0.5,1.7c0.1,3.3-0.7,6.3-1.5,9.4c-0.3,1-0.3,1.9-0.1,2.9
		C117.4,588.5,117.2,589.5,117.2,591z M113.6,590.8c0.1-0.9,0.3-1.7,0.3-2.5c0-1-0.1-2-0.3-2.9c-0.6-2.8-0.5-5.6-0.2-8.4
		c0.5-3.8,1.1-7.5,1.9-11.3c0.5-2.3,0.8-4.6,0.6-6.9c-0.2-2.4-0.5-4.9-0.8-6.9c-1-1.1-1.7-1.9-2.4-2.7c-2.1,0.8-2.9,0.6-3.5-1.1
		c-0.3-0.9-0.5-1.9-0.7-2.9c-0.2-1-0.5-2.1-0.7-3.1c-1.7-0.6-3.1,0-4.5,0.3c-4.8,1.2-6.1,2.7-6.9,8c1.1,0.1,2.2,0.1,3.3,0.2
		c3.1,0.2,6.1,0.3,9.2,0.5c0.6,0,1.3,0.2,1.7,0.5c0.4,0.2,0.7,0.8,0.7,1.2c0,0.4-0.3,1-0.7,1.2c-0.6,0.3-1.4,0.4-2.1,0.4
		c-4.9,0.2-9.8,0.3-14.7,0.5c-1.7,0.1-3.4,0.1-4.9,0.2c-1.8,2.7-3.4,5.1-4,8.1c-0.8,3.7-1.5,7.5-1.3,11.3c0.1,2.3-0.5,4.3-1.7,6.3
		c-0.7,1-1.2,2.1-1.7,3c0.3,1.6,0.5,2.9,0.9,4.2c0.7,2.3,1.6,2.8,4.4,2.6c0.1-0.4,0.1-0.9,0.2-1.4c0.8-2.8,2.3-3.9,5.1-3.8
		c0.6,0,1.2,0.2,1.8,0.3c3.5,0.6,6.9,1.9,10.2,3.3c2,0.9,2,0.9,3.7,3C108.7,592,111.1,591.7,113.6,590.8z M68.5,238.7
		c0.3-0.7,0.7-1.3,0.9-2c0.5-1.4,0.8-2.8,1.3-4.2c1.8-4.7,3.4-9.5,3.8-14.6c0.2-3.2,0.6-6.4,0.8-9.5c0.1-1.6-0.2-3.2-0.7-4.7
		c-0.6-1.9-1-3.8-1.5-5.7c-0.4-1.5-0.6-3.2-1.3-4.6c-0.4-0.9-0.8-1.7-0.7-2.7c0.1-0.8-0.3-1.7-0.4-2.5c-0.5-3.6-2.6-6.6-3.9-10.6
		c-0.7,2.2-1.2,3.8-1.7,5.4c-0.7,2.6-1.2,5.3-1.8,7.9c-0.2,1-0.5,1.9-0.6,2.9c-0.1,3.5-0.9,6.8-1.7,10.2c-0.7,3-2,5.9-2.4,8.9
		c-0.4,3.1-0.2,6.4-0.2,9.6c0,0.1,0,0.2,0,0.4c-0.3,2.1,0.4,3.9,1.4,5.6c0.3,0.5,0.8,1.2,1.2,1.3c1.6,0.3,2.2,1.5,2.8,2.7
		C65.1,234.7,66.7,236.6,68.5,238.7z M163.4,268.4c-2.6,2.9-4.8,5.5-6.6,8.2c-1.5,2.2-3,4.5-4.4,6.7c-0.5,0.8-1,1.7-1.3,2.6
		c-1.4,4-2.2,8.3-5.1,11.7c-1.2,3.1-2.2,6.2-2.5,9.5c1.3,0.8,2.5,0.4,3.7,0.3c3.9-0.1,7.6,0.3,11.2,1.9c1.6,0.7,3.4,1.1,5.4,1.1
		c0.1-0.8,0.2-1.4,0.3-2c0.5-7,0.9-14,1.5-21C165.9,281.2,165,275.1,163.4,268.4z M159.3,181c-1.4,1.7-2,3.5-2.5,5.3
		c-1.1,4.5-2.1,9.1-3.1,13.6c-0.2,1-0.4,1.9-0.8,2.8c-0.7,1.6-0.8,3.3-0.8,5c0,4.3,0.6,8.6,1.2,12.8c0.7,4.3,3,11.6,5.2,16.1
		c1.1-0.5,1.5-1.6,2-2.6c0.8-1.4,1.6-2.6,3.1-3.5c2.2-1.4,3-3.8,3-6.4c0-3.2-0.1-6.4-0.2-9.6c-0.1-1.2-0.4-2.4-0.7-3.6
		c-1.4-5.5-3.2-10.8-3.4-16.5c0-1.2-0.4-2.4-0.7-3.6c-0.4-1.8-0.9-3.6-1.3-5.4C160,184.1,159.7,182.7,159.3,181z M81.9,306.5
		c-0.8-2.7-1.5-5.3-2.3-7.9c-0.2-0.8-0.6-1.7-1.2-2.3c-1.2-1.1-1.6-2.4-2.1-3.8c-0.7-2.1-1.4-4.2-2.1-6.3c-0.4-1.1-0.9-2.3-1.5-3.3
		c-1.4-2.3-3-4.5-4.4-6.7c-1.3-2-2.6-3.8-4.6-5.7c-0.3,1.2-0.7,2-0.8,2.8c-0.4,3.8-0.7,7.6-1.1,11.4c-0.8,7.6-1.2,15.2-1,22.8
		c0,0.7-0.3,1.5,0.3,1.8c2.5-0.3,4.8-0.7,7.1-0.9c3.3-0.3,6.6-0.4,9.9-0.6C79.4,307.7,80.6,307.5,81.9,306.5z M85.4,504.5
		c-0.4,1.2-0.6,1.6-0.6,1.9c-1.6,23.7-3.1,47.4-4.6,71c0,0.1,0.2,0.3,0.4,0.5c1-0.5,0.9-1.4,0.9-2.3c-0.1-7.2,1.6-14.1,4.3-20.8
		c0.6-1.6,1.3-3.2,1.9-4.8c0.3-0.8,0.8-1.5,1.6-1.9c0.9-0.4,1.7-1,2.6-1.4c0.6-0.3,1.2-0.2,1.4,0.6c-3.4,4.2-3.4,4.2-3.1,5.6
		c0.6-0.7,1.1-1.7,1.9-2.1c1.5-0.7,1.9-1.7,1.9-3.2c0-1,0.4-1.9,0.7-2.8c-0.6-1.9-1.1-3.8-1.6-5.7c-2.3-8.9-3.7-18.1-6-27
		C86.2,510,85.9,507.6,85.4,504.5z M78,588.5c0.1-0.6,0.3-1.2,0.1-1.8c-0.5-2.1-0.2-4.1,0-6.1c0.4-4.4,0.6-8.8,0.9-13.2
		c0.3-5.2,0.6-10.3,0.9-15.5c0.6-9.6,1.3-19.1,1.9-28.7c0.4-5.8,0.6-11.5,1-17.3c0.7-11.3,1.4-22.6,2.2-33.8
		c0.6-9.6,1.3-19.1,1.9-28.7c0.4-6.3,0.7-12.5,1.1-18.8c0.7-10.9,1.4-21.8,2.1-32.7c0.6-9.7,1.3-19.4,1.9-29.1
		c0.1-1.3,0.1-2.7,0.1-4.1c0-0.5-0.3-0.9-1-0.9c-0.1,0.4-0.4,0.8-0.4,1.3c-0.2,3.3-0.4,6.6-0.6,9.9c-0.3,5.4-0.6,10.8-1,16.2
		c-0.4,6.3-0.8,12.5-1.2,18.8c-0.3,5.6-0.6,11.3-1,16.9c-0.6,9.8-1.3,19.6-1.9,29.4c-0.4,5.9-0.6,11.8-1,17.7
		c-0.3,4.5-0.5,9.1-0.8,13.6c-0.4,6.4-0.8,12.8-1.2,19.1c-0.3,5.5-0.6,11-1,16.6c-0.4,5.9-0.8,11.8-1.2,17.7
		c-0.4,6.5-0.7,13-1.1,19.5c-0.4,6.1-0.8,12.3-1.2,18.4c-0.2,2.5-0.4,4.9-0.5,7.4c-0.1,2.3-0.2,4.7-0.3,7
		C76.8,587.9,77.1,588.5,78,588.5z M121.9,312.7c1.9,2.6,2.4,5.4,2.8,8.2c0.2,1,0.2,2,0.3,2.9c1.1,8,3.6,15.8,6.1,23.4
		c0.1,0.4,0.4,0.8,0.9,1.6c0-5.6,0-10.6,0-15.7c0-2.6,0-5.2-0.1-7.7c-0.1-2.4-0.3-4.9-1.7-7.2c1.9-2.3,1.5-5,1.5-7.7
		c-0.1-3.1-1.5-5.2-3.8-7.1c-1.9,1.5-3.8,3-5.9,4.6C122.2,309.4,123,311,121.9,312.7z M147.8,551.1c-0.6-7.2-1.2-13.9-1.8-20.6
		c-0.9,0.6-1,1.3-1,2c-0.1,1.5-0.2,2.9-0.2,4.4c0.1,4.1,0.2,8.3,0.2,12.6C145.7,549.8,146.5,550.3,147.8,551.1z M88.1,591.1
		c4.8,0.9,9.3,0.6,13.8,0.5c-3.5-1.5-7-2.8-10.7-3.2C89.4,588.1,89.1,588.4,88.1,591.1z M106.1,24.3c0.3-4.9-0.3-7.7-2-10.4
		c-1,0-1.1,0.7-1.2,1.5C102.4,18.7,103.3,21.5,106.1,24.3z M104.5,308.6c0,1.9,0,1.9,2.5,2.9c0.3-0.2,0.6-0.3,0.9-0.6
		c1.1-0.9,0.6-2.2-0.6-2.4C106.4,308.5,105.6,308.6,104.5,308.6z M120.5,309.2c-1.3-0.3-2.5-0.4-3.6,0.3c-0.4,1.3-0.1,2.4,1,3.1
		c1.1-0.7,2-1.3,2.9-2C120.7,310.1,120.6,309.7,120.5,309.2z M85.4,53c-0.3,2.9-0.3,2.9,1.6,5C86.2,55.9,87.8,54.2,85.4,53z
		 M135.1,57.7c-2.5,1.1-2.5,1.1-2.8,2.2c-0.2,0.8,0.1,1.4,1.3,1.5C133.8,60.2,135.3,59.4,135.1,57.7z M122.7,318.5
		c-1-1.7-1.8-3.1-2.7-4.8c-0.2,1.9,0.1,3.4,1,4.8C121.4,318.5,121.9,318.5,122.7,318.5z M94.5,17.8c-0.9,0.3-1.1,0.9-1,1.5
		c0.1,1.1,0.3,1.3,1.8,2.3C95.3,20.1,94.9,18.9,94.5,17.8z M107.1,15.8c0.3-0.5,0.6-1,0.7-1.5c0.1-0.2-0.2-0.7-0.4-0.8
		c-0.2-0.1-0.8,0.1-0.9,0.4C106.3,14.4,106.1,15.2,107.1,15.8z M118.1,297.1c-1.6-0.1-1.6-0.1-1.6,1.3c0.3-0.1,0.7-0.2,1-0.4
		C117.7,297.8,117.9,297.5,118.1,297.1z M103.3,293.5c0.6,0.7,0.8,1.1,1.1,1.4c0.2,0.1,0.7,0,0.8-0.2c0.1-0.2,0-0.8-0.2-0.9
		C104.7,293.6,104.3,293.6,103.3,293.5z M120,295.7c0.6-0.6,1.1-1.1,1.8-1.7C119.7,294,119.8,294,120,295.7z M109,298.5
		c-0.4-2-1-2.3-2.2-1.7C107.4,297.3,107.9,297.7,109,298.5z M116.1,577.5c-0.2,0-0.4-0.1-0.6-0.1c0,0.7,0,1.3,0,2c0.1,0,0.2,0,0.3,0
		C115.9,578.8,116,578.1,116.1,577.5z M98,340.2c0-0.3,0-0.6,0-0.8c0,0.1-0.1,0.1-0.1,0.2C97.9,339.7,97.9,339.9,98,340.2z
		 M108.5,17.3c-0.1,0-0.2,0-0.3,0c0,0.4,0,0.8,0,1.2c0.1,0,0.2,0,0.3,0C108.5,18.1,108.5,17.7,108.5,17.3z M98.6,336.9
		c0,0.1-0.1,0.2-0.1,0.3c0,0,0.1,0.1,0.1,0.1c0-0.1,0.1-0.2,0.1-0.3C98.8,337,98.7,337,98.6,336.9z M99.5,334.1l-0.1,0l0,0.3
		L99.5,334.1z M87,51.1L86.8,51l0,0.2L87,51.1z"/>
	<path d="M598.4,456.9c-0.7-1-0.8-2.1-0.7-3.2c0.2-4.3,1.5-8.4,2.7-12.6c0.1-0.2,0.2-0.5,0.4-0.6c0.3-0.1,0.7-0.2,1-0.2
		c0.2,0,0.5,0.3,0.5,0.4c0.1,0.5,0.2,1,0.2,1.4c-0.2,1.2-0.5,2.4-0.8,3.6c-0.7,3-1.5,6-2.2,9C599.3,455.5,599.2,456.4,598.4,456.9z"
		/>
	<path d="M596.2,415.2c0.5,0.9,0.8,1.3,0.8,1.7c0.4,3.7-0.5,7.3-1.4,10.8c-0.2,0.8-0.8,1.2-1.8,0.9c-0.1-0.3-0.4-0.7-0.3-1
		c0.7-2.9,0.5-6.1,2-8.9C596,417.9,595.9,416.7,596.2,415.2z"/>
	<path d="M594,411.3c-3-1.3-5.3-3.7-6.9-7.2c0.3-0.1,0.7-0.4,0.9-0.3c0.3,0.1,0.6,0.4,0.9,0.6c1.7,1.8,3.4,3.5,5.1,5.3
		C594.5,410.2,594.5,410.7,594,411.3z"/>
	<path d="M602.9,521.6c-1.3-3.3-1.3-3.4,0-4.8C603.8,519.1,603.8,519.1,602.9,521.6z"/>
	<path d="M597.5,461.8c-0.4-1.3-0.5-2.5,0.6-3.6C598.9,460.6,598.9,460.7,597.5,461.8z"/>
	<path d="M602,510.9c0.9,1.3,0.8,2.3,0.4,3.3C601.1,513.2,601.1,513.2,602,510.9z"/>
	<path d="M598,472.6c-0.1,0.2-0.3,0.4-0.4,0.5c-0.1-0.2-0.3-0.4-0.3-0.6c0-0.2,0.2-0.4,0.4-0.5C597.8,472.3,597.9,472.5,598,472.6z"
		/>
	<path d="M597.8,466.2c0,0.1-0.1,0.2-0.1,0.3c-0.1-0.1-0.2-0.2-0.2-0.4c0,0,0.1-0.1,0.2-0.2C597.8,466,597.8,466.1,597.8,466.2z"/>
	<path d="M597.6,475.7c-0.1-0.1-0.2-0.2-0.2-0.2c0-0.1,0.1-0.1,0.2-0.2c0.1,0.1,0.2,0.2,0.2,0.2
		C597.8,475.6,597.7,475.6,597.6,475.7z"/>
	<path d="M627.5,456.5c-0.4-0.6-0.6-0.8-0.6-1c-0.9-4.1-1.8-8.1-2.6-12.2c-0.2-0.9-0.3-1.9-0.3-2.9c0-0.4,0.4-0.7,1-1.5
		c1.2,5,2.6,9.4,3.3,14c0.1,0.8,0.1,1.7,0,2.6C628.2,455.8,627.9,456,627.5,456.5z"/>
	<path d="M628.7,421.1c1.5,2.2,3,4.4,4.5,6.7c-0.1,0.6-0.5,1-1.2,0.7c-2.4-0.9-4.4-4.2-4.2-6.6C627.9,421.6,628.4,421.4,628.7,421.1
		z"/>
	<path d="M618.1,359.4c1.3,3,1.3,5.2,0.4,7.6c-0.1,0.2-0.5,0.3-1.1,0.6C617.6,364.9,617.8,362.5,618.1,359.4z"/>
	<path d="M627.5,464.9c-1.3-1.6-1.6-3-1.2-4.5c0.1-0.3,0.5-0.6,0.8-0.6c0.3,0,0.7,0.2,0.9,0.5C628.6,461.7,628.6,463.1,627.5,464.9z
		"/>
	<path d="M633.4,409c0.1,0.8,0.3,1.4,0.2,1.7c-1,1.5-2.3,2.5-4.1,2.6c-0.2,0-0.4-0.2-0.7-0.5C629.9,411.2,631.7,410.4,633.4,409z"/>
	<path d="M628,479.6c0.5,0.8,0.9,1.2,0.9,1.7c0.1,0.4-0.2,0.9-0.5,1.2c-0.1,0.2-0.8,0.2-0.9,0c-0.3-0.3-0.6-0.8-0.5-1.2
		C627.1,480.8,627.5,480.4,628,479.6z"/>
	<path d="M638.5,522.6c1.1,1.8,0.9,2.9,0.5,4.3C637.7,525.5,637.7,525.5,638.5,522.6z"/>
	<path d="M628,475.2c0.9,1.2,0.9,1.2-0.1,2.5C627,476.3,627,476.3,628,475.2z"/>
	<path d="M636.9,404.7c0.8,1.4,0.4,2.3-0.9,3.2C635.5,406.5,635.4,405.4,636.9,404.7z"/>
	<path d="M619.7,354.9c0.5,1.4,0.5,2.2-0.5,3C618.4,356.7,618.6,355.9,619.7,354.9z"/>
	<path d="M627.8,470.5c-0.2-0.2-0.3-0.3-0.3-0.4c0-0.4,0.1-0.9,0.2-1.3c0-0.1,0.4-0.1,0.6,0c0.5,0.3,0.5,1,0,1.5
		C628.3,470.4,628.1,470.4,627.8,470.5z"/>
	<path d="M639.4,512.4c0.6,1.2,0.6,1.2,0,2.2C639.4,513.8,639.4,513.3,639.4,512.4z"/>
	<polygon points="620.5,352.1 620.6,352.3 620.4,352.3 	"/>
	<path d="M570.2,272.3c0.8,0,1.4-0.2,2-0.1c4.4,1,8.8,1.3,13.2,2.5c-0.2,0.4-0.3,0.8-0.5,0.8c-4.8,0-9.4-1-14-2.1
		C570.7,273.2,570.6,272.7,570.2,272.3z"/>
	<path d="M582.3,303.7c4.7-0.8,11.9,1.2,17.1,4.4c-0.4,0.2-0.7,0.5-0.9,0.4c-4.8-2.2-9.8-3.6-15.1-4.1
		C583.2,304.3,582.9,304,582.3,303.7z"/>
	<path d="M612.5,285.4c0.9,1.9,1,3.4,0.7,5.8c-0.2,0.9-0.3,1.9-1.6,2.4C611.3,290.9,611.8,288.3,612.5,285.4z"/>
	<path d="M613.2,273c-0.6-2.7-0.7-5.3-0.3-8.1c0.4,0.3,0.9,0.5,0.9,0.7C614.2,268.1,614.3,270.6,613.2,273z"/>
	<path d="M613,278.1c0-0.3,0.1-0.6,0.1-0.8c0,0,0.1,0,0.1,0c0,0.3-0.1,0.6-0.1,0.8C613.1,278.1,613.1,278.1,613,278.1z"/>
	<path d="M611.8,243.6c-0.2-0.9-0.5-1.4-0.4-1.7c0.7-1.9,2-3.3,4.1-3.7c0.2,0,0.5,0.1,0.7,0.1c0.5,0.1,0.9,1.1,0.6,1.5
		c-0.3,0.4-0.6,0.8-1,1C614.6,241.6,613.4,242.4,611.8,243.6z"/>
	<path d="M612.4,210.6c0.3,0.4,0.6,0.6,0.7,0.9c0.4,1.8,0.7,3.5,1,5.3c0.1,0.7,0,1.5-1.2,1.6c-0.7-2.3-1.1-4.6-1.1-7
		C611.8,211.2,612.1,210.9,612.4,210.6z"/>
	<path d="M606.1,193.7c-1.3,1.8-3.1,2.6-4.3,3.9c-1.1-0.4-1-1.1-0.7-1.5c1-1.4,2.3-2.4,4-2.8C605.4,193.1,605.6,193.4,606.1,193.7z"
		/>
	<path d="M589.6,243.1c1,1.2,0.9,2.4,0.6,4C589,245.1,589,245.1,589.6,243.1z"/>
	<path d="M640.1,238.2c-0.1,0.9-0.2,1.8-0.3,2.7c-0.4-0.2-0.8-0.4-0.8-0.5c0.1-0.8,0.2-1.6,0.4-2.4
		C639.7,238.1,639.9,238.2,640.1,238.2z"/>
	<path d="M595.6,203.3c-0.3,0.4-0.6,0.9-0.9,1.3c-0.1,0.1-0.5,0-0.6-0.1c-0.1-0.1-0.2-0.5-0.2-0.6c0.3-0.4,0.7-0.8,1.1-1.2
		C595.2,203,595.4,203.2,595.6,203.3z"/>
	<path d="M598.5,199.6c0.5,0.6,0.3,1-0.2,1.4c-0.1,0.1-0.5-0.1-0.6-0.2C597.5,200.1,597.9,199.7,598.5,199.6z"/>
	<path d="M612.5,207.4c-0.1-0.2-0.4-0.3-0.4-0.5c0.1-0.2,0.3-0.4,0.4-0.7c0.1,0.2,0.3,0.4,0.3,0.6
		C612.8,207,612.6,207.2,612.5,207.4z"/>
	<path d="M587.2,237c0.1,0,0.2,0,0.3,0c-0.1,0.3-0.1,0.6-0.2,0.9c-0.1-0.1-0.2-0.2-0.2-0.3C587.1,237.5,587.1,237.3,587.2,237z"/>
	<path d="M641,232.6c0.1,0,0.2,0,0.2,0c0.1,0.1,0,0.2,0.1,0.3c-0.1,0-0.3,0-0.4-0.1C641,232.7,641,232.7,641,232.6z"/>
	<path d="M604.3,175.3c-0.4,0.7-0.5,1.2-0.8,1.5c-0.8,0.7-1.8,1.3-2.6,2c-3.4,3.1-7.5,4.7-12,4.8c-2.7,0.1-5.4,0.3-8-0.6
		c-0.6-0.2-1.1-0.5-1.6-0.8c-0.2-0.2-0.2-0.6-0.3-1c1.2-0.8,2.4-0.3,3.6-0.3c2.6,0.1,5.1,0.3,7.7,0.2c1.2-0.1,2.7,0.1,3.4-1.5
		c0.2-0.4,1.1-0.7,1.7-0.6c1.5,0.1,2.5-0.4,3.5-1.5C600.1,176.1,601.7,175.3,604.3,175.3z"/>
	<path d="M622.8,180.9c2,0.1,3.7,0,5.3,0.3c2.9,0.5,5.5-0.5,8.1-1.5c2.4-1,4.7-2.1,7.2-3.2c0,0.9,0,1.6,0,2.5
		c-2.9,1.9-6,3.4-9.4,3.8c-3,0.4-6.1,0.1-9.1,0.1C623.9,182.9,623.1,182.2,622.8,180.9z"/>
	<path d="M570.3,178.5c1.3-0.5,2.3,0.5,3.4,0.8c1.1,0.3,2.3,0.5,3.8,0.8c-0.5,0.5-0.7,1-1,1C573.9,181.6,572.3,180.9,570.3,178.5z"
		/>
	<path d="M621.8,180.9c-1.3,1.1-2.1,0.8-2.8,0.3c-0.3-0.2-0.5-0.6-0.5-0.9c0.1-0.6,0.7-0.6,1.1-0.5
		C620.3,180.1,620.9,180.4,621.8,180.9z"/>
	<path d="M605.5,171.3c0.1-0.4,0.1-0.6,0.2-0.7c0.4-0.6,0.8-1.3,1.6-0.7c0.2,0.1,0.3,0.6,0.2,0.9
		C607.2,171.7,606.8,171.8,605.5,171.3z"/>
	<path d="M616.2,177.9c-0.2,0.1-0.5,0.2-0.6,0.1c-0.2-0.1-0.2-0.4-0.3-0.6c0.2-0.1,0.5-0.2,0.6-0.1C616,177.4,616,177.7,616.2,177.9
		z"/>
	<path d="M660.9,133.6c-0.1-1-0.3-1.6-0.1-2c0.6-1.7,1.7-3.2,3.1-4.5c0.6-0.6,1.3-1.1,1.8-1.8c1.8-2.4,4-4.4,6.4-6
		c4.2-2.9,8.6-5.6,12.9-8.5c0.8,0.3,1.1,0.9,0.4,1.6c-1.2,1.2-2.5,2.3-3.9,3.3c-1.8,1.3-3.7,2.5-5.6,3.6c-3.3,2-6.1,4.5-8.8,7.2
		c-0.5,0.5-0.8,1.2-1.2,1.8c-0.8,1.1-1.6,2.1-2.5,3.1C662.7,132,661.9,132.6,660.9,133.6z"/>
	<path d="M704.6,117.9c0,0.1,0.1,0.3,0.1,0.3c-2.9,3.9-7,5.4-11.8,5.5c-0.2,0-0.5-0.1-0.7-0.1c-0.7-0.1-1.3-0.8-1-1.2
		c0.3-0.3,0.7-0.8,1.1-0.8c3.8,0,7.1-1.5,10.4-3.3c0.5-0.3,1.1-0.4,1.7-0.6C704.4,117.7,704.5,117.8,704.6,117.9z"/>
	<path d="M846.6,77.7c0.2,0.6,0.1,1.1-0.5,1.3c-1.6,0.5-3.1,0.7-4.2-0.7c0-0.7,0.3-1,0.9-1C844.1,77.2,845.5,77,846.6,77.7z"/>
	<path d="M749.4,91c-1.9,1.1-2.9,1.2-4,0.3c-0.3-0.3-0.2-1.1,0.2-1.2C747.1,89.5,748.4,89.7,749.4,91z"/>
	<path d="M711.3,116c-1.4,1.1-2.8,1.3-4.3,0.3C708.8,114.8,709.6,114.7,711.3,116z"/>
	<path d="M688.9,110.5c-0.4-0.3-0.7-0.3-0.8-0.5c-0.1-0.3-0.2-0.8,0-1c0.6-0.5,1.3-0.9,2-1.3c0.2-0.1,0.7,0.1,0.9,0.3
		c0.4,0.4,0.2,0.9-0.2,1.2C690.2,109.8,689.5,110.2,688.9,110.5z"/>
	<path d="M658.2,137c0.2-1.3,0.7-2.1,1.6-2.6c0.2-0.1,0.5,0,0.6,0.1c0.2,0.1,0.3,0.4,0.3,0.6C660.4,136.2,659.8,137,658.2,137z"/>
	<path d="M713,114.2c1.3-1.2,2.2-0.9,3.3-0.7C715.7,115.2,715.6,115.2,713,114.2z"/>
	<path d="M812.3,87.4c0.7-1,1.5-1.2,2.7-0.9C814.3,87.8,813.4,87.8,812.3,87.4z"/>
	<path d="M658.5,139.5c-0.4,0.4-0.7,0.8-1,1c-0.4,0.2-1-0.4-0.9-0.8c0.2-0.4,0.6-0.7,1-0.9C657.7,138.7,658,139.1,658.5,139.5z"/>
	<path d="M721.2,111.5c-0.2,0.7-1,1.2-1.6,0.9c-0.2-0.1-0.3-0.4-0.3-0.6c0.1-0.7,0.9-1.2,1.6-0.9C721.1,111,721.1,111.3,721.2,111.5
		z"/>
	<path d="M753.2,92c-0.4,0.3-0.6,0.5-0.9,0.5c-0.4,0.1-0.9-0.7-0.7-0.9c0.2-0.2,0.6-0.4,0.9-0.3C752.7,91.4,752.9,91.7,753.2,92z"/>
	<path d="M809.7,88.8c-0.2,0.1-0.4,0.2-0.6,0.2c-0.1,0-0.2-0.3-0.4-0.4c0.2-0.1,0.4-0.2,0.6-0.2C809.5,88.4,809.6,88.7,809.7,88.8z"
		/>
	<path d="M755.7,93.2c-0.2,0.1-0.4,0.1-0.6,0.2c-0.1,0-0.1-0.1-0.2-0.2c0.2-0.1,0.4-0.1,0.6-0.2C755.5,92.9,755.6,93.1,755.7,93.2z"
		/>
	<path d="M535.6,121.4c-0.1,1.2-0.9,1.3-1.6,1.4c-3.2,0.4-6-0.7-8.7-2.2c-2-1.1-2.6-1.9-3.2-3.8c1.7,0.2,2.9,1.3,4.3,1.9
		c1.6,0.6,3.2,1.2,4.8,1.7C532.7,120.9,534.4,120.3,535.6,121.4z"/>
	<path d="M379.5,77.1c1.8-1,3.3-0.7,5.1-1c0,0.6,0.2,1.2,0,1.4C383.2,78.7,381.6,78.6,379.5,77.1z"/>
	<path d="M477,90.4c1.1-1.3,2.3-1.6,3.6-1.3c0.3,0.1,0.6,0.4,0.7,0.7c0,0.3-0.2,0.7-0.4,0.9C479.6,91.3,478.4,91.2,477,90.4z"/>
	<path d="M534.9,107.2c1.1,0,1.7-0.2,2.1,0c0.6,0.3,1.1,0.8,1.6,1.3c0.1,0.1,0.1,0.5-0.1,0.6c-0.2,0.2-0.6,0.5-0.9,0.5
		C536.9,109.6,536.9,109.5,534.9,107.2z"/>
	<path d="M519.8,115.3c-1.5,1.3-2.8,0.8-4.6,0c0.5-0.4,0.8-0.9,1.2-0.9C517.9,114.2,517.9,114.2,519.8,115.3z"/>
	<path d="M411.5,85.7c1.4-0.4,2.2-0.2,2.9,0.8C413.3,87.1,412.5,86.9,411.5,85.7z"/>
	<path d="M510.2,113.1c1.2-0.7,2.1-0.8,2.9,0C512.2,114.4,512.2,114.4,510.2,113.1z"/>
	<path d="M475.5,91.3c-0.6,0.2-1,0.5-1.3,0.5c-0.2,0-0.6-0.4-0.7-0.6c-0.1-0.5,0.6-1,1.2-0.7C475,90.5,475.1,90.9,475.5,91.3z"/>
	<path d="M505.4,110.3c0.2-0.1,0.4-0.3,0.6-0.3c0.7,0,1.1,0.3,1.3,1c0,0.2-0.1,0.5-0.3,0.6c-0.5,0.3-1.4-0.2-1.6-0.9
		C505.3,110.6,505.4,110.4,505.4,110.3z"/>
	<path d="M417.8,87.8c-0.1,0.2-0.2,0.4-0.3,0.4c-0.2,0-0.4-0.2-0.6-0.2c0.1-0.1,0.2-0.4,0.3-0.4C417.4,87.6,417.6,87.8,417.8,87.8z"
		/>
	<path d="M471.4,92.6c-0.1-0.2-0.2-0.3-0.2-0.5c0,0,0.1-0.1,0.2-0.2c0.1,0.2,0.2,0.3,0.2,0.5C471.7,92.4,471.5,92.5,471.4,92.6z"/>
	<path d="M605.2,120.9c-0.9-1.5-1.3-2.9-0.7-4.4c1.2-0.2,1.3,0.7,1.5,1.3C606.1,118.9,606.4,120,605.2,120.9z"/>
	<path d="M615.6,120.3c-1.4-1.3-1.3-2.2,0.2-4.3C616.7,117.8,616.7,118.1,615.6,120.3z"/>
	<path d="M596.1,94.7c1.4,1.8,1.6,3.2,2,5.3C596.4,98.4,596.3,96.9,596.1,94.7z"/>
	<path d="M619.8,92.6c0.8,0.9,0.5,1.7,0,2.6C619.3,94.3,619.2,93.4,619.8,92.6z"/>
	<path d="M619,100.6c0,0.1,0.1,0.2,0.1,0.3c0,0.1-0.1,0.2-0.2,0.2c0-0.1-0.1-0.2-0.1-0.3C618.8,100.7,618.9,100.7,619,100.6z"/>
	<polygon points="602.1,108.8 602.2,109.2 602,109.1 	"/>
	<path d="M618.8,49.2c0.1,1,1,0.9,1.6,1.3c0.6,0.4,1.1,0.8,2,1.3c-1.7,0.6-2.6-0.5-4-0.6c-0.5,0.5-1,1.2-1.7,2
		c-1.1-0.5-2.3-1-3.6-1.5c-0.7,0.2-1.2,1.5-2.3,0.7c0.1-0.3,0-0.6,0.1-0.8c0.5-0.6,1.2-1,1.5-1.6c1.1-2.1,2.9-2.4,4.9-2.2
		c1.6,0.2,3.1,0.5,4.4,1.4l0.1-0.1C620.7,49.2,619.7,49.2,618.8,49.2c-0.2-0.1-0.3-0.3-0.5-0.4c-0.1,0-0.3,0.2-0.5,0.3
		c0.1,0.1,0.2,0.2,0.3,0.2C618.3,49.2,618.5,49.2,618.8,49.2z"/>
	<path d="M591.5,49.3c1.2-1.3,2.7-1,4-0.7c1.9,0.5,3.7,1.3,4.6,3.2c-0.1,0.7-0.4,1-0.9,0.9c-2.1-0.2-2.1-0.2-2.2,2
		c-0.5,0.1-1.1,0.2-1.8,0.3c-0.2-0.7-0.3-1.4-0.6-1.9c-0.4-0.6-1-1-1.7-1.7c-0.5,0.3-1.1,0.8-1.7,1.1c-0.8,0.4-1.4,0.1-1.7-0.9
		c1-0.6,2-1.3,3.2-2.1C592,49.5,591.7,49.4,591.5,49.3L591.5,49.3z"/>
	<path d="M598.6,74.9c0.2-0.5,0.2-0.7,0.3-0.8c4.1-1.3,8.2-2.2,12.5-0.8c1.2,0.4,2.6,0.3,4.1,0.4c-0.2,0.4-0.4,0.8-0.6,0.9
		c-0.7,0.2-1.4,0.4-2.1,0.4c-3.7,0.1-7.3,0.1-11,0.1C600.7,75.2,599.7,75,598.6,74.9z"/>
	<path d="M608.1,45.4c2-1.6,4.2-1.5,6.1-1.7c2.8-0.3,5.6-0.6,8.5,0.8c-0.5,0.1-0.8,0.3-1,0.3c-3.4-0.6-6.8,0.1-10.1,0.7
		C610.6,45.6,609.6,46.4,608.1,45.4z"/>
	<path d="M600.6,77.7c3.9,0.9,7.8,1.2,11.8-0.4c-0.8,1.8-0.8,1.9-1.5,2.1c-2.5,0.8-4.9,1.4-7.5,0.1c-0.9-0.5-2-0.7-3-1.1
		C600.5,78.2,600.5,78,600.6,77.7z"/>
	<path d="M622.4,24.9c-0.9,0.2-0.7,0.9-0.8,1.5c-0.7-0.4-1.5-0.8-2.2-1.1c0.2-1,0.5-1.8,0.7-2.6l0.2-0.2l-0.1,0.3
		c-1,0.1-1.1,1.1-1.6,1.8c-0.3,0.3-0.6,0.6-1.1,1c0.6-2.6,0.8-3.1,3.5-5.9c-0.2,1,1.2,1.5,0.8,2.6C621.4,23.3,622.1,24,622.4,24.9z"
		/>
	<path d="M588.6,44.8c5-1.9,9.3-1.4,12.5,1.5c-1.7,0.4-2.8-0.9-4.1-1c-1.3-0.1-2.6-0.4-4-0.5C591.6,44.7,590.2,44.8,588.6,44.8z"/>
	<path d="M611.3,66c0.1-0.8,0.2-1.6,0.3-2.4c0.2,0.1,0.5,0.1,0.5,0.2c0.6,2,0.1,2.9-1.8,3c-0.9,0-1.9,0.2-2.4-1
		C609.1,64.3,610.1,65.6,611.3,66z"/>
	<path d="M603.5,66.6c0-0.2,0-0.5,0.1-0.6c0.3-0.5,0.8-0.4,1.2-0.2c0.2,0.1,0.4,0.4,0.3,0.6c-0.1,0.6-0.6,0.6-1.1,0.5
		C603.9,66.9,603.7,66.7,603.5,66.6z"/>
	<path d="M597.3,24.9c1,0.3,1.3,1,1.9,2.4C597.8,26.4,597.2,25.9,597.3,24.9L597.3,24.9z"/>
	<path d="M591.4,49.2c-0.7,0.4-1.3,0.9-2.1,1.3c-0.4-1,0.3-1.1,0.8-1.2C590.5,49.3,591,49.3,591.4,49.2L591.4,49.2z"/>
	<path d="M624,42.9c-0.2-0.4-0.3-0.8-0.5-1.2c0.2-0.1,0.4-0.1,0.6-0.2c0.1,0.4,0.2,0.9,0.3,1.3C624.3,42.8,624.1,42.9,624,42.9z"/>
	<path d="M614.9,24.1c0.5-0.3,1.1-0.5,1.6-0.8c-0.2,0.4-0.3,0.9-0.6,1.2C615.6,25.1,615.3,25,614.9,24.1z"/>
	<path d="M607.7,64c-0.2,0.1-0.3,0.1-0.5,0.2c0-0.2,0.1-0.4,0.1-0.6c0-0.1,0.2-0.1,0.3-0.1C607.7,63.7,607.7,63.8,607.7,64z"/>
	<path d="M601.8,64.1c0.1-0.3,0.1-0.6,0.1-0.3C602,63.5,601.9,63.7,601.8,64.1L601.8,64.1z"/>
	<path d="M609,48.4c0,0.2,0,0.4,0,0.6c0,0.1-0.2,0.1-0.4,0.2c0-0.1,0-0.2,0-0.3C608.8,48.8,609,48.7,609,48.4L609,48.4z"/>
	<path d="M601.6,51.6c-0.1,0.2-0.2,0.3-0.3,0.5c-0.1-0.1-0.2-0.2-0.2-0.2c0.1-0.2,0.2-0.3,0.3-0.5C601.5,51.4,601.5,51.5,601.6,51.6
		z"/>
	<path d="M616.4,23.5c0.3-0.5,0.6-1.1,0.8-1.6C617.2,22.5,617.3,23.3,616.4,23.5z"/>
	<path d="M615.8,21.1c0,0.7,0,1.4-0.8,1.6c0-0.5,0-1.1,0-1.6C615.2,21.1,615.5,21.1,615.8,21.1z"/>
	<path d="M615.1,22.6c0,0.5,0,1.1,0,1.6c-0.3,0-0.5,0-0.8-0.1l0.1,0.1C614.2,23.5,614.2,22.8,615.1,22.6z"/>
	<path d="M614.2,24.1c-0.1,0.2-0.1,0.4-0.2,0.5c-0.1-0.1-0.2-0.2-0.3-0.3C614,24.3,614.1,24.2,614.2,24.1L614.2,24.1z"/>
	<path d="M621.6,49.2c0.1,0.1,0.2,0.3,0.3,0.4c-0.1,0-0.2-0.1-0.2-0.1c0-0.1,0-0.2,0-0.3L621.6,49.2z"/>
	<path d="M609.1,48.5c0.1-0.2,0.2-0.4,0.3-0.6C609.8,48.5,609.3,48.4,609.1,48.5L609.1,48.5z"/>
	<path d="M601.7,66.2c0.2,0.1,0.3,0.2,0.5,0.3C601.6,66.8,601.8,66.4,601.7,66.2L601.7,66.2z"/>
	<polygon points="601.8,66.1 601.5,66.1 601.7,66.2 	"/>
	<path d="M601.7,64c-0.1,0.1-0.2,0.2-0.3,0.4c0-0.1,0-0.2,0.1-0.2C601.6,64.1,601.7,64.1,601.7,64L601.7,64z"/>
	<path d="M586.2,30.8c0.2,0.1,0.4,0.1,0.6,0.2C586.2,31.6,586.3,31,586.2,30.8L586.2,30.8z"/>
	<path d="M599.5,563c-2.8-0.4-5.6-0.7-8.4-1.1c-0.6-0.1-1.2-0.3-1.8-0.5c-0.7-0.3-1.1-1-1-1.8c0.1-0.8,0.6-1.4,1.4-1.5
		c0.6-0.1,1.2-0.1,1.8,0c3.6,0.8,7.2,1.2,10.9,1.3c0.6,0,1.3,0.1,1.8,0.4c0.5,0.3,1,0.8,1.1,1.3c0.2,0.6-0.4,1.2-1,1.3
		C602.6,562.6,601.1,562.7,599.5,563z"/>
	<path d="M598.1,568.2c-2.2-0.3-4.4-0.5-6.5-0.8c-1.2-0.2-1.8-1.1-1.6-2.1c0.2-0.8,0.9-1.4,1.8-1.5c0.2,0,0.5,0,0.7,0
		c3,0.2,6.1,0.4,9.1,0.7c0.7,0.1,1.4,0.4,2,0.7c0.8,0.5,0.7,1.7-0.2,2.1c-0.8,0.3-1.6,0.5-2.5,0.7c-0.2,0.1-0.5,0-0.7,0
		c-0.7,0-1.5,0-2.2,0C598.1,568.1,598.1,568.2,598.1,568.2z"/>
	<path d="M595.9,573.4c-1.7-0.4-3.3-0.7-5-1.1c-0.7-0.2-1.2-1.1-0.9-1.8c0.3-0.5,0.8-0.8,1.2-1.2c0.1-0.1,0.2-0.1,0.4-0.1
		c2.8,0.2,5.6,0.4,8.4,0.7c0.4,0,1,0.8,1.1,1.2c0,0.5-0.4,1.3-0.8,1.4C598.8,572.9,597.4,573.1,595.9,573.4z"/>
	<path d="M628.1,563.1c-2-0.1-3.9-0.2-5.9-0.4c-0.6,0-1.2-0.2-1.8-0.3c-0.7-0.2-1.2-1-1.1-1.7c0.1-0.8,0.7-1.3,1.4-1.5
		c0.3-0.1,0.7-0.1,1.1,0c3.7,0.3,7.3,0.6,11,0.9c0.6,0.1,1.2,0.3,1.7,0.6c0.5,0.2,0.5,1.4,0,1.6c-0.6,0.3-1.3,0.7-2,0.7
		c-1.5,0.1-2.9,0-4.4,0C628.1,563,628.1,563,628.1,563.1z"/>
	<path d="M627.4,569.1c-1.1,0-2.2,0-3.3,0c-0.6,0-1.2-0.1-1.8-0.2c-0.8-0.2-1.2-0.8-1.3-1.6c-0.1-0.8,0.6-1.7,1.4-1.9
		c0.2-0.1,0.5-0.1,0.7-0.1c3.1,0.1,6.1,0.2,9.2,0.3c0.6,0,1.2,0.3,1.7,0.6c0.3,0.2,0.7,0.8,0.7,1.2c0,0.4-0.4,0.9-0.7,1.2
		c-0.5,0.3-1.2,0.5-1.7,0.5C630.6,569.1,629,569.1,627.4,569.1C627.4,569.1,627.4,569.1,627.4,569.1z"/>
	<path d="M627.5,571.7c1.3,0,2.7-0.1,4,0c0.5,0.1,1,0.6,1.3,1.1c0.3,0.5-0.2,1.5-0.9,1.8c-2.7,1-5.5,1.1-8.2,0.2
		c-0.7-0.2-1.2-0.9-1.2-1.7c0-0.8,0.8-1.6,1.7-1.6c1.1,0,2.2,0.1,3.3,0.1C627.5,571.6,627.5,571.7,627.5,571.7z"/>
	<path d="M375.2,77.8c-1.6-0.8-3.1-1.6-4.5-2.4c-0.1-0.7,0.3-1,0.8-1.1c1.9-0.1,3.3,0.8,4.1,2.4C375.8,77,375.4,77.4,375.2,77.8z"/>
	<path d="M851.4,78.6c-0.2-0.4-0.5-0.8-0.4-1c0.8-1.8,2.5-2.6,4.4-2.4c0.3,0,0.5,0.4,0.9,0.8C854.6,76.9,853.1,77.7,851.4,78.6z"/>
	<path d="M611.3,10.9c0.2-0.8,0.6-0.8,1.4-0.2C612.1,10.7,611.7,10.8,611.3,10.9L611.3,10.9z"/>
	<path d="M612,12.3C612.3,12,611.8,12.4,612,12.3L612,12.3z"/>
	<path d="M161,109.7c0.1,0.3,0.2,0.7,0.4,1c-2.3,1.3-4.8,1.7-6.9,1.1c-0.4-0.1-0.8-0.7-0.8-1c0-0.3,0.5-0.9,0.9-1
		c2.2-0.1,4.4-0.1,6.6-0.1L161,109.7z"/>
	<path d="M74.7,109.5c-0.9,1.6-2.1,1.5-3.1,1.4c-1.6-0.2-3.3,0.1-4.9-1.2c0.5-0.3,0.7-0.6,1-0.6C70,109,72.3,108.7,74.7,109.5z"/>
	<path d="M86.3,304.9c-0.8-0.4-0.9-0.9-0.6-1.3c1.3-1.7,2.9-2.9,5.1-3.1c0.2,0,0.4,0.3,0.5,0.4c-0.1,0.2,0,0.5-0.2,0.6
		C89.5,302.8,87.9,304,86.3,304.9z"/>
	<path d="M116.1,263c0.5,0.4,1,0.6,1,0.8c0,2.3,0,4.6-0.1,6.9c0,0.3-0.4,0.5-0.8,1C115.8,268.7,115.8,266,116.1,263z"/>
	<path d="M133.5,301.6c0.5-0.3,0.6-0.5,0.7-0.5c2.4,0,4,1.3,5.2,3.2c0.1,0.2-0.2,0.6-0.4,1.1C137.1,304.3,135.4,303.2,133.5,301.6z"
		/>
	<path d="M135.9,277.4c1.3-0.4,2.7-0.9,4-1.3c0,1.3-0.1,1.6-1,2.2c-0.9,0.5-1.8,0.7-2.7,0C136,278.1,136.1,277.6,135.9,277.4
		L135.9,277.4z"/>
	<path d="M141.3,273.6c0.7-1.3,1.5-1.8,2.6-1.9C144.1,273.6,143.6,274,141.3,273.6z"/>
	<path d="M173,222.1c-0.1-1.7,1-2.5,2.1-3.3c0.7,0.4,0.5,0.9,0.3,1.3c-0.6,1-1.4,1.6-2.5,2L173,222.1z"/>
	<path d="M84.2,272.9c-2.1,0.7-3.2,0.2-3.3-1c0-0.2,0.6-0.6,0.7-0.5C82.3,271.7,83,272.1,84.2,272.9z"/>
	<path d="M58.8,136.4c-0.4-0.5-0.8-0.8-1-1.2c-0.1-0.2,0.1-0.6,0.3-0.9c0-0.1,0.5,0,0.6,0.1c0.3,0.3,0.6,0.7,0.7,1.1
		C59.5,135.7,59.1,136,58.8,136.4z"/>
	<path d="M52.7,221.1c-2.3-0.2-2.7-0.5-2.8-2.7c1.4,0.5,1.9,1.8,2.7,2.8L52.7,221.1z"/>
	<path d="M146.8,268.9c0.2,1.1-0.2,1.3-0.8,1.5C145.6,269.6,146.1,269.3,146.8,268.9z"/>
	<path d="M78.4,268.5c0.3,0.3,0.6,0.4,0.8,0.7c0.1,0.1,0,0.4-0.1,0.6c-0.3-0.2-0.6-0.3-0.8-0.5C78.2,269.2,78.3,268.9,78.4,268.5z"
		/>
	<path d="M148.8,266.9c-0.2-0.1-0.4-0.2-0.6-0.3c0.2-0.3,0.5-0.7,0.8-1c0.1-0.1,0.5,0,0.6,0.2c0.3,0.5-0.1,0.8-0.5,1
		C149.1,266.9,148.9,266.9,148.8,266.9z"/>
	<path d="M76.5,266.5c-0.5,0.2-1.2-0.6-1-1.1c0.1-0.1,0.4-0.3,0.5-0.2c0.3,0.2,0.6,0.4,0.7,0.7C76.8,266.1,76.6,266.5,76.5,266.5z"
		/>
	<path d="M116.4,275.9c0,0.2,0,0.5,0,0.7c0,0-0.1,0-0.1,0C116.3,276.3,116.3,276.1,116.4,275.9C116.3,275.9,116.4,275.9,116.4,275.9
		z"/>
	<path d="M175.4,217c0-0.1-0.2-0.2-0.1-0.3c0.1-0.1,0.2-0.1,0.3-0.2c0,0.1,0,0.2,0,0.3C175.6,216.9,175.5,217,175.4,217z"/>
	<path d="M49.3,216.3c0-0.2-0.1-0.3-0.1-0.4c0,0,0.1,0,0.2-0.1C49.3,216,49.3,216.1,49.3,216.3z"/>
	<path d="M115.6,241.7c-1.2-0.8-1.2-1.6-0.8-2.2c0.9-1.3,1.9-2.5,3.4-3.1c0.8-0.3,0.9-0.2,2.1,1.1
		C119.4,239.5,116.9,240,115.6,241.7z"/>
	<path d="M116.2,216.7c-0.7-2.4-1.4-4.8-1-7.7c0.5,0.3,0.9,0.4,1,0.6c0.4,1.9,0.8,3.8,1.1,5.7C117.4,216,117.1,216.5,116.2,216.7z"
		/>
	<path d="M104.5,196c-0.8-1.7,0.3-2.4,1.3-3.1c0.9-0.7,1.9-1.8,3.6-0.8C107.9,193.7,106.4,195,104.5,196z"/>
	<path d="M93.7,245.5c-1.7-1.2-1.3-2.5-1.4-3.6c0.8-0.4,1.1,0.1,1.1,0.5C93.6,243.3,93.6,244.2,93.7,245.5z"/>
	<path d="M143.2,239c-1.3-0.9-0.8-1.7-0.3-2.8c0.2,0.4,0.5,0.5,0.5,0.7C143.3,237.6,143.3,238.3,143.2,239z"/>
	<path d="M98.7,201.4c0,0.3,0,0.4,0,0.5c-0.3,0.5-0.4,1.2-1.2,1.1c-0.1,0-0.2-0.2-0.2-0.3c-0.2-0.7,0.3-1.1,0.9-1.4
		C98.1,201.4,98.3,201.4,98.7,201.4z"/>
	<path d="M101.8,197.9c0.4,0.6,0.4,1.1-0.3,1.4c-0.1,0-0.3,0-0.3-0.1C100.7,198.5,101.1,198.1,101.8,197.9z"/>
	<path d="M116,205.1c-0.1,0.1-0.3,0.2-0.4,0.2c0-0.2-0.1-0.4-0.1-0.6c0-0.1,0.2-0.1,0.3-0.2C115.8,204.8,115.9,204.9,116,205.1z"/>
	<path d="M90.8,235.9c-0.1,0.1-0.3,0.2-0.4,0.3c0-0.2-0.1-0.4-0.1-0.6c0-0.1,0.2-0.2,0.2-0.2C90.6,235.6,90.7,235.7,90.8,235.9z"/>
	<path d="M144.6,230.8c-0.1,0.2-0.2,0.4-0.2,0.5c-0.1-0.1-0.2-0.2-0.2-0.2c0-0.2,0.2-0.4,0.2-0.5
		C144.5,230.6,144.5,230.7,144.6,230.8z"/>
	<path d="M82.1,179.6c0.9-0.8,1.9-0.5,2.9-0.5c2.1,0.1,4.2,0.2,6.3,0.3c0.9,0,1.7,0,2.6-0.1c0.6-0.1,1.5,0,1.8-0.3
		c1.6-2.2,4.8-1,6.4-3.1c1.2-1.5,3-2,4.8-2.3c0.6,0.5,0.5,1.1,0,1.5c-1.1,0.9-2.3,1.8-3.4,2.8c-2.3,1.9-5,3.2-7.9,3.7
		c-3.8,0.7-7.6,0.6-11.3-0.2C83.2,181.1,82.2,180.8,82.1,179.6z"/>
	<path d="M146.7,174.8c0,1,0,1.7,0,2.3c-4.5,3.1-8.4,4.3-13.7,4.2c-1.5,0-2.9,0.1-4.4,0c-1.2,0-2.1-0.5-2.5-1.9
		c0.4-0.1,0.7-0.3,0.9-0.3c2.4,0.1,4.8,0.4,7.3,0.5c0.7,0,1.4-0.3,2.1-0.5c2.6-1,5.2-2.1,7.8-3.2C145,175.5,145.8,175.2,146.7,174.8
		z"/>
	<path d="M80.7,178.3c-0.4,0.6-0.5,0.9-0.8,1.1c-1.3,0.6-2.6,0.2-3.8-0.3c-1.1-0.5-2.2-1-2.5-2.4c1.4-0.3,2.3,0.7,3.5,1
		C78.1,177.9,79.1,178,80.7,178.3z"/>
	<path d="M125,179.3c-2.2,0.8-2.2,0.8-3.1-1.1C123,177.8,123.8,178.4,125,179.3z"/>
	<path d="M110.9,168.5c-0.2,0.5-0.3,1-0.7,1.4c-0.3,0.3-0.9,0.5-1.2-0.1c-0.1-0.2-0.2-0.7,0-0.9c0.3-0.4,0.8-0.6,1.3-0.9
		C110.5,168.1,110.7,168.3,110.9,168.5z"/>
	<path d="M119.4,176.2c-0.2,0-0.4,0.2-0.6,0.1c-0.2-0.1-0.2-0.3-0.3-0.5c0.2,0,0.4-0.2,0.6-0.1C119.2,175.7,119.3,176,119.4,176.2z"
		/>
	<path d="M101.6,455.2c-0.8-1.5-0.7-2.9-0.6-4.2c0.2-4,1.6-7.7,2.6-11.5c0.1-0.3,0.4-0.6,0.7-0.8c0.3-0.3,1.1-0.1,1.3,0.2
		c0.1,0.3,0.3,0.7,0.3,1c0,0.5,0,1-0.1,1.5c-1,4.2-2.1,8.3-3.1,12.5C102.4,454.3,102,454.6,101.6,455.2z"/>
	<path d="M97,427.1c-0.1-0.7-0.3-1.5-0.1-2.1c0.8-2.8,0.5-5.9,2.1-8.5c0.4-0.7,0.3-1.6,0.4-2.5c0.3,0.2,0.6,0.2,0.7,0.4
		c0.2,0.3,0.3,0.7,0.3,1c0.2,3.6-0.6,7-1.5,10.5C98.7,426.5,98.5,426.6,97,427.1z"/>
	<path d="M106.1,515.1c1.1,0.9,0.9,2.2,0.8,3.4c0,0.4-0.4,0.8-0.7,1.3C104.8,516.8,104.8,516.8,106.1,515.1z"/>
	<path d="M101.8,456.5c0.2,1.4,0.4,2.6-0.5,3.8C100.1,458.3,100.2,457.7,101.8,456.5z"/>
	<path d="M105.5,512.7c-1-1-1.1-2-0.4-3.2C105.9,510.7,105.9,510.7,105.5,512.7z"/>
	<path d="M100.8,470.4c0.1,0.1,0.3,0.3,0.3,0.4c0,0.2-0.2,0.3-0.3,0.4c-0.1-0.1-0.2-0.2-0.2-0.2
		C100.6,470.9,100.7,470.7,100.8,470.4z"/>
	<path d="M100.8,473.4c0.1,0,0.2,0,0.2,0c0,0.1,0.1,0.2,0.1,0.3c-0.1,0.4-0.3,0.4-0.4,0C100.6,473.7,100.7,473.6,100.8,473.4z"/>
	<polygon points="100.9,464.6 100.8,464.4 101,464.4 	"/>
	<path d="M128,437.5c1.4,3.6,3.6,12.7,3.6,15.2c0,0.6-0.2,1.1-0.3,1.6c-0.8,0-1.1-0.3-1.2-0.9c-0.8-3.8-1.7-7.7-2.5-11.5
		c-0.2-1.1-0.3-2.2-0.4-3.3C127.2,438.3,127.7,438,128,437.5z"/>
	<path d="M132,419.3c1.7,2.1,2.4,4.9,5.2,6.6c-0.8,0.4-1.3,0.8-1.8,0.8c-0.5-0.1-1.1-0.4-1.6-0.8c-1.5-1.4-2.4-3-2.8-5
		C131,420.3,131.1,419.7,132,419.3z"/>
	<path d="M120.6,365.7c0.2-2.4,0.4-4.9,0.7-7.7c1.2,2.3,1.3,3.5,0.8,6.2C122,364.9,121.9,365.7,120.6,365.7z"/>
	<path d="M131,463c-1.6-1.4-1.7-2.8-1.4-4.3c0.1-0.3,0.5-0.6,0.8-0.6c0.3,0,0.7,0.3,0.8,0.5C131.9,460,131.7,461.2,131,463z"/>
	<path d="M142,521c0.8,1.6,0.7,2.8,0.3,4c-0.7,0.2-1-0.2-1-0.7C141.2,523.3,140.9,522.2,142,521z"/>
	<path d="M131.1,478.4c0.2,0.1,0.5,0.1,0.6,0.2c0.6,0.9,0.6,1.7-0.1,2.2c-0.2,0.2-0.8,0.1-1,0c-0.6-0.6-0.6-1.3-0.2-2
		C130.7,478.7,130.9,478.6,131.1,478.4z"/>
	<path d="M122.3,356.1c-0.4-1.6-0.4-1.6,0.7-2.5C123.3,355.3,123.3,355.3,122.3,356.1z"/>
	<path d="M131.3,475.9c-1.1-0.5-1.1-1.2-0.5-2c0.1-0.2,0.8-0.2,0.9,0C132.4,474.7,132.1,475.3,131.3,475.9z"/>
	<path d="M130.9,466.9c1.2,0.9,1.2,0.9,0,2.1C130.9,468.3,130.9,467.7,130.9,466.9z"/>
	<path d="M143.3,511.7c-0.1,0.3-0.2,0.5-0.3,0.7c-0.2-0.2-0.4-0.4-0.5-0.7c0-0.2,0.2-0.4,0.3-0.6C143,511.3,143.2,511.5,143.3,511.7
		z"/>
	<path d="M124,350.5c-0.1,0.1-0.3,0.2-0.4,0.2c0-0.2-0.1-0.4-0.1-0.6c0-0.1,0.1-0.1,0.2-0.2C123.8,350.1,123.9,350.3,124,350.5z"/>
	<path d="M108.2,114.3c1.2,1.8,1.5,3.2,0.7,4.9c-0.4-0.2-0.8-0.3-0.9-0.5c-0.2-1-0.4-2.1-0.5-3.2
		C107.4,115.2,107.8,114.9,108.2,114.3z"/>
	<path d="M119.2,114.2c0.5,2,0.5,2-0.2,4.2c-0.6,0.2-0.9-0.1-1-0.6C117.9,116.4,117.9,115.1,119.2,114.2z"/>
	<path d="M99.4,93.6c1.2,1.1,1.4,2.6,1.9,4.5C99.5,96.9,99.9,95.1,99.4,93.6z"/>
	<path d="M123.3,90.9c0,0.7,0,1.5,0,2.2c-0.1,0-0.3,0-0.4,0c0-0.7,0-1.5,0-2.2C123,90.9,123.1,90.9,123.3,90.9z"/>
	<polygon points="122.2,98.9 122.3,99.2 122.1,99.1 	"/>
	<path d="M93.9,47.8c1.5-1.4,3.4-1.1,5.1-0.8c1.7,0.4,3.2,1.3,4.2,2.8c0.1,0.2,0.1,0.8-0.1,1c-0.2,0.2-0.6,0.2-0.9,0.2
		c-1.6-0.1-1.9,0-2.1,1c-0.3,1.4-0.3,1.4-2.1,0.7c0.2-0.3,0.3-0.6,0.5-0.9c-0.8-0.6-1.6-1.3-2.4-1.9c-1.2,0-2.1,2.2-3.5,0.2
		c0.5-0.3,0.9-0.7,1.4-1c0.5-0.3,1-0.6,2-1.2C95,47.9,94.4,47.8,93.9,47.8L93.9,47.8z"/>
	<path d="M119.1,72.4c-1,0.5-1.4,0.8-1.8,0.8c-4.9,0.1-9.7,0.1-14.6,0.1c-0.3,0-0.6-0.4-1-0.7c4.1-1.2,7.9-2.6,12.1-1.1
		C115.2,72,116.8,72,119.1,72.4z"/>
	<path d="M125.7,47.5c-2,0.7-3.2-1-4.9-0.1c1.5,0.8,2.9,1.4,4.6,2.3c-1.8,0.3-1.8,0.3-3.4-0.2c-1,0.2-1.5,1.7-2.8,1.4
		c-0.9-0.2-1.8-0.5-2.9-0.8c-0.6,0.1-1.2,1.2-2.2,0.6c0-0.2-0.1-0.5,0-0.6c0.3-0.4,0.8-0.6,1-1.1c1.5-3.1,4.1-3,6.9-2.5
		C123,46.6,124.1,47,125.7,47.5z"/>
	<path d="M115.9,75.4c-0.9,2.8-3.1,2.7-4.9,3c-2.3,0.5-5.3-0.5-7.6-2.3C107.8,76.6,111.8,77.4,115.9,75.4z"/>
	<path d="M126.3,43c-0.1,0.1-0.2,0.2-0.3,0.2c-3.9-1-7.7,0-11.5,0.7c-0.8,0.2-1.6,0.2-2.4,0.3c-0.5-0.8,0-1.1,0.4-1.3
		c0.9-0.3,1.8-0.7,2.8-0.8c2.7-0.2,5.3-0.2,8-0.2C124.4,41.9,125.5,42.2,126.3,43z"/>
	<path d="M104.2,44.4c-4-1.2-8-1.7-12.2-1.4C96.4,41,100.5,41.9,104.2,44.4z"/>
	<path d="M124.1,19.7c0.3-0.1,0.7-0.2,0.9-0.3c0,0.9,0,1.7,0,2.5c0,0.7-0.1,1.3-0.2,2.3c-0.8-0.2-1.5-0.3-2.2-0.5
		c0.3-1,0.5-1.8,0.8-2.6l-0.1,0.1C123.6,20.7,123.9,20.2,124.1,19.7L124.1,19.7z"/>
	<path d="M123.4,21.2c-1.4,0.2-1.2,2.1-2.5,2.4c-0.2-1.6,0.7-3.1,3.2-5.3l-0.1-0.1c0,0.5,0,1,0,1.5l0.1-0.1
		c-0.3,0.5-0.5,1.1-0.8,1.6L123.4,21.2z"/>
	<path d="M113.8,64.7c-0.9,0.7-1.8,0.3-2.6-0.3C112.5,63,112.8,63,113.8,64.7L113.8,64.7z"/>
	<path d="M116.7,21.9c0.9-0.2,0.8-0.9,0.7-1.5c0.5-0.3,1.1-0.5,1.6-0.8c-0.2,1-0.5,2-0.7,3.1c-0.4,0.2-0.8,0.3-1.3,0.5
		C116.9,22.8,116.8,22.3,116.7,21.9z"/>
	<path d="M115.3,64c-0.2-0.7-0.5-1.5-0.8-2.6C115.9,62.7,115.9,62.7,115.3,64L115.3,64z"/>
	<path d="M108.7,64.3c-0.4,0.4-0.6,0.9-0.8,0.9c-0.4,0-0.8-0.2-1.2-0.4c0.2-0.3,0.3-0.7,0.5-0.7C107.6,64,108,64.2,108.7,64.3z"/>
	<path d="M101.2,24.2c0.6,0,0.9,0.4,0.9,1.1C101.3,25.2,101.2,24.7,101.2,24.2L101.2,24.2z"/>
	<path d="M127.7,40.4c-0.2,0.2-0.3,0.4-0.4,0.5c-0.1-0.3-0.3-0.5-0.4-0.8c0,0,0.2-0.2,0.2-0.2C127.3,40,127.5,40.2,127.7,40.4z"/>
	<path d="M93.9,47.7c-0.2,0.7-0.6,0.9-1.4,0.2C93.1,47.9,93.5,47.9,93.9,47.7L93.9,47.7z"/>
	<path d="M112.3,47c-0.1,0.3-0.2,0.6-0.2,1c-0.5-0.6-0.1-0.8,0.3-0.9L112.3,47z"/>
	<path d="M112.4,47.1c0-0.2,0-0.5,0-0.7c0-0.1,0.1-0.2,0.2-0.3c0.1,0.2,0.3,0.4,0.2,0.5c-0.1,0.2-0.3,0.3-0.5,0.4L112.4,47.1z"/>
	<path d="M110.7,62c0.1,0,0.2,0.1,0.3,0.1c-0.1,0.1-0.3,0.2-0.4,0.3c-0.1-0.1-0.1-0.2-0.2-0.3C110.5,62.1,110.6,62,110.7,62z"/>
	<path d="M105.1,62.6c0-0.3,0-0.6,0-0.4c0.1-0.2,0,0-0.1,0.3L105.1,62.6z"/>
	<path d="M120.1,51.7c0,0.1,0,0.2,0,0.2c-0.1,0-0.2,0-0.3,0.1c0-0.1,0-0.3,0.1-0.4C119.9,51.6,120,51.7,120.1,51.7z"/>
	<path d="M120.4,18.9c0.3,0,0.6,0,0.8,0c0,0.7-0.1,1.3-0.8,1.6C120.4,20,120.4,19.5,120.4,18.9z"/>
	<path d="M104.6,50.4c-0.1-0.2-0.2-0.4-0.2-0.6c0-0.1,0.1-0.2,0.2-0.2c0.1,0.2,0.2,0.4,0.2,0.6C104.8,50.2,104.7,50.3,104.6,50.4z"
		/>
	<path d="M92,26.8c0-0.2-0.1-0.3-0.1-0.4c0,0,0.1-0.1,0.2-0.1C92.1,26.4,92,26.5,92,26.8z"/>
	<path d="M119.7,22c-0.1-0.7,0.2-1.3,0.8-1.6C120.5,21.1,120.4,21.7,119.7,22z"/>
	<path d="M118.2,22.6c0.3,0,0.6,0,0.9,0C118.8,23.3,118.5,23.4,118.2,22.6z"/>
	<path d="M114.5,64.7c-0.2,0.4-0.4,0.5-0.7,0l-0.1,0.1C114,64.8,114.3,64.8,114.5,64.7L114.5,64.7z"/>
	<path d="M104.9,64.9c0.2,0.1,0.3,0.1,0.5,0.2c-0.1,0-0.2,0-0.2,0C105,65,105,64.9,104.9,64.9L104.9,64.9z"/>
	<path d="M115.2,64c0.1,0.6-0.2,0.8-0.7,0.7c0,0,0.1,0.1,0.1,0.1C114.5,64.2,114.8,64,115.2,64L115.2,64z"/>
	<path d="M105,64.8C104.6,64.4,105,64.9,105,64.8L105,64.8z"/>
	<path d="M105,62.5c-0.1,0.1-0.2,0.2-0.3,0.2c0.1,0,0.1-0.1,0.2-0.1c0.1,0,0.2,0,0.3,0L105,62.5z"/>
	<path d="M118.9,22.7c0.1-0.5,0.3-0.9,0.9-0.9C119.5,22.2,119.2,22.4,118.9,22.7z"/>
	<path d="M130.8,567.3c-1.7,0-3.4,0.1-5.1,0c-0.8,0-1.5-1-1.5-1.8c0-0.8,0.7-1.6,1.6-1.8c0.2-0.1,0.5-0.1,0.7-0.1c0.5,0,1,0,1.5,0
		c2.2,0.1,4.4,0.1,6.6,0.2c0.9,0.1,1.9,0.3,2.8,0.7c1,0.4,1,1.8-0.1,2.3c-0.6,0.3-1.4,0.5-2.1,0.6c-1.5,0.1-2.9,0-4.4,0
		C130.8,567.4,130.8,567.4,130.8,567.3z"/>
	<path d="M130.4,573.5c-0.8-0.1-1.8-0.1-2.8-0.2c-0.5-0.1-0.9-0.3-1.3-0.6c-0.9-0.7-0.7-2.3,0.4-2.7c0.2-0.1,0.5-0.2,0.7-0.2
		c2.4,0.1,4.9,0.1,7.3,0.2c0.1,0,0.3,0,0.3,0.1c0.4,0.4,1,0.9,1.1,1.3c0,0.5-0.5,1.1-0.9,1.4c-0.5,0.3-1.1,0.5-1.7,0.5
		C132.5,573.5,131.5,573.5,130.4,573.5z"/>
	<path d="M102,561.2c-2.5-0.3-5.1-0.7-7.6-1.1c-0.4-0.1-0.7-0.1-1.1-0.2c-1.2-0.3-1.8-1.1-1.7-2c0.1-1.1,1-1.7,2.4-1.6
		c0.5,0,1,0.1,1.5,0.2c2.8,0.3,5.6,0.6,8.4,1c1.2,0.1,2.4,0.3,3.6,0.6c0.5,0.1,1,0.8,1,1.3c0,0.4-0.6,1-1,1.3
		c-0.4,0.3-0.9,0.3-1.4,0.3c-1.3,0-2.7,0-4,0C102,561,102,561.1,102,561.2z"/>
	<path d="M99.6,562.5c1.6,0.1,3.2,0.2,4.8,0.3c0.6,0,1.3,0.1,1.8,0.3c0.5,0.3,0.9,0.8,1.1,1.3c0.2,0.6-0.4,1.4-1.3,1.5
		c-3.8,0.7-7.6,0.4-11.4-0.2c-0.2,0-0.5-0.2-0.6-0.3c-0.3-0.5-0.7-1-0.8-1.5c-0.1-0.7,0.6-1.5,1.3-1.6c1.7-0.1,3.4,0,5.1,0
		C99.6,562.4,99.6,562.4,99.6,562.5z"/>
	<path d="M99.1,571.4c-1.2-0.1-2.5-0.1-3.7-0.4c-0.7-0.1-1.4-0.5-1.9-1c-0.7-0.5-0.5-1.9,0.3-2.2c0.7-0.2,1.4-0.4,2.1-0.3
		c2.2,0.1,4.4,0.3,6.6,0.5c0.4,0,0.8,0.1,1,0.3c0.3,0.3,0.8,0.7,0.8,1.1c0,0.4-0.3,1.1-0.6,1.2c-0.9,0.3-1.9,0.5-2.8,0.6
		c-0.6,0.1-1.2,0-1.8,0C99.1,571.3,99.1,571.3,99.1,571.4z"/>
	<path d="M101.2,310.3c-1.9,0.8-3.6-0.1-5.2-0.4c-0.5-0.6-0.4-1.1,0.1-1.3c1.7-0.8,3.3-0.6,4.8,0.6
		C101.1,309.4,101.1,309.9,101.2,310.3z"/>
	<path d="M129.7,310.3c-1.9,0.4-3.4,0.7-4.9,0.9c-0.2,0-0.6-0.4-0.7-0.6c-0.1-0.1,0-0.5,0.1-0.7c1.1-1.3,3.3-1.8,4.9-0.9
		C129.2,309.1,129.3,309.6,129.7,310.3z"/>
	<path d="M121.3,10.8c-0.8,0.3-1.6,0.5-2.3,0.8C119.5,10.7,120.4,11,121.3,10.8z"/>
	<path d="M115.3,10.9c0.1-0.1,0.2-0.3,0.3-0.4c0,0.1,0,0.2-0.1,0.2C115.4,10.8,115.3,10.8,115.3,10.9L115.3,10.9z"/>
</g>
</svg>
