<?xml version="1.0" encoding="utf-8"?>
<!-- Generator: Adobe Illustrator 19.1.0, SVG Export Plug-In . SVG Version: 6.00 Build 0)  -->
<svg version="1.2" baseProfile="tiny" id="Layer_2" xmlns="http://www.w3.org/2000/svg" xmlns:xlink="http://www.w3.org/1999/xlink"
	 x="0px" y="0px" width="900px" height="600px" viewBox="144 97 900 600" xml:space="preserve">
<g>
	<path d="M917.3,282.7c1-2.3,3.3-2.3,5.3-2.8c1.2-0.3,2.5-0.2,3.8-0.2c4.8,0,6.9,1.4,8.8,5.9c1.3,0.8,2.7,0.4,4.1,0.4
		c29.1-0.1,58.1-0.2,87.2-0.3c2.7,0,5.3,0.4,7.8,1.2c2.8,4.5,2.1,10.3-1.7,13.3c-2,1.5-4.4,1.9-6.9,1.9c-18.2-0.2-36.4-0.4-54.6-0.5
		c-11.6-0.1-23.1-0.1-34.7-0.2c-0.7,0-1.4,0-1.7,0c-1.5,0.5-1.4,1.6-2.1,2.3c-1,0.9-2.1,2.1-3.5,2.1c-3,0-6,0.9-9,0.9
		c-2.2-1.5-4.4-2.8-5.2-5.6c-17.2,0-34.2,0-51.3,0c-1.7,3.4-5.5,4-8.3,6.4c-1.9,9.2-5,18.2-7.2,27.5c-1.1,4.5-0.9,9-1.4,13.5
		c-0.9,7.7-2.1,15.2-5.6,22.2c-1.7,3.3-3.3,6.7-5.1,10c-2.1,3.9-3.9,7.9-3.6,13.1c0.1,0.4,0.7,1.1,1.5,1.6c4.6,3.3,7,7.6,7,13.3
		c0,2.6,1.1,5.2,0.8,7.8c7,6.6,8,14.3,4.8,22.8c-1,2.6-3.1,4.6-4.1,7.4c1.9,1.9,4.5,2.1,6.9,2.8c-0.6,1.4-1.7,0.7-2.4,1.5
		c-0.1,3-0.2,6.3-0.9,9.4c-0.7,3.1-0.4,6.4-2.3,9.2c-3.6-0.4-7,0.1-10.3,0.2c-3.2,0.2-6.5,0.5-9.8,0.7c-0.5,2,0.4,3.7,0.6,5.3
		c0.9,10,2.2,19.9,2.1,30c0,5,0.8,9.9,1.9,14.9c2,9,3.7,18,4.3,27.2c0.2,2.6,0.6,5.1,1.3,7.6c0.2,0.7,0.5,1.4,0.5,2
		c0,3.1,0.1,6.2,1.3,9.4c-2.4,0.7-4.5,0.9-7,0.6c1.7-1.1,3.5-0.5,4.6-1.5c0.4-5.6-0.7-11-1.7-16.3c-0.7-3.3-1.2-6.5-1.8-9.7
		c-1.1-6.5-1.7-13.2-3.5-19.6c-1.7-6.1-2-12.4-2-18.7c-0.1-8.9-1.1-17.7-1.9-26.5c-0.1-1.4-0.2-2.8-0.3-4.3c-3.9-0.1-7.7,0.7-11.5,1
		c-8.8,0.9-17.7,1.3-26.5,1.7c-16.9,0.7-33.8,1.2-50.6,3.3c-1.7,0.2-1.7,0.2-4.4-0.9c-5.2,1.2-10.5,1.7-15.9,2.4
		c-7.7,1.1-15.4,2.3-23.2,3.3c-6.7,0.8-13.5,1.2-20.2,2c-4.4,0.5-8.8,1.1-13.2,1.8c-2.6,0.4-5.1,0.5-7.8-0.7
		c-0.3,1.9,0.2,3.4,0.7,4.9c2.2,6.2,3.5,12.6,3.7,19.1c0,0.3-0.1,0.8,0.1,1c2.4,4,1.1,8.4,1.2,12.6c0,1.3,0,2.5,0,4
		c1.8,0.4,3.4-0.1,4.9-0.3c13.2-2.4,26.6-3.4,40-3.8c5.1-0.2,10.2-0.8,15.3-1.6c16.8-2.5,33.5-6,50.7-6c3.1,0,6.3-0.5,9.4-1
		c5.7-0.9,11.4-0.2,17.1-0.5c2.1-0.1,4.2-0.3,6.3-0.4c4.4-0.3,7.7,1.4,9.6,5.5c0.6,1.3,1.3,2.4,2.6,3.1c0.7,1.7,1.1,3.4,1.1,5.1
		c0,6.5,0.6,13-0.3,19.6c-0.2,1.8-0.2,3.7,0.3,5.5c1.3,5.4,0.1,10.6,0,16c0,1.1,0.1,2.3-1.1,3.5c-0.8-2.7,0.5-5.2-0.2-7.6l0.1,0.1
		c0-0.1,0.1-0.2,0.1-0.3c-0.3-2.1,1.7-3.8,1.2-6c-0.4-2-0.5-4.2-0.8-6.2c-1.2-9,0.6-18.1-0.9-27.3c-1.7-2-3.1-4.5-5.7-6.1
		c-1.8-1.1-3.5-1.9-5.6-1.7c-8.4,0.8-16.8-0.4-25.2,0.7c-14.9,2-30,2.3-44.8,5c-8.4,1.5-16.7,3.2-25.2,3.8
		c-7.9,0.5-15.9,0.6-23.7,1.2c-8.4,0.7-16.9,1.8-25.4,2.8c-0.2,2.7-0.6,5.1-0.6,7.5c-0.2,5.9-2.3,11.4-3,17.2
		c-1.4,11.7-2.7,23.4-2.8,35.2c0,4.3-0.9,8.6,0,12.9c-1.2,2.7-0.4,5.5-0.3,8.2c-2.1,0.1-1.3-2.3-2.6-3.2c-0.4,1.3-1.4,2-2.9,2.5
		c1.8,1.5,3,2.9,4.4,4.7c0.6-1.5,1-2.6,1.3-3.6c1.8,0.8,0.6,2.3,0.6,3.4c0.1,1.3-0.4,2.5-2.3,3.1c-2.8-2.8-5.1-6.7-9.2-7.7
		c-0.7-1.2-0.5-2.1-0.2-3c0.3-0.8,0.5-1.5,0.8-2.7c-2.8-1.4-5.7-1.7-8.3-2.1c-1.3,0.4-0.8,1.6-1.8,2.1c-1.4,0.8-0.6-1.6-1.6-1.4
		c-0.6,0.2-0.8,0.7-0.7,1.1c0.4,1.8,1,3.6,0,5.6c3.9,1.4,8.7,0.6,11.5,4.1c-0.2,1.3-1,1.4-1.6,1.7c-1.4-2-3.6-1.7-5.6-2.2
		c-4.4-1.1-4.5-1-5.6-0.2c3.8,0.8,7.5,1.5,11.2,2.3c0.2,0.7,1.1,1.3,0.2,2.6c-4.7,0.4-9.5-2.2-14.6-1.5c3.1,1.9,7.2,0.6,10.2,3.3
		c-1.8,2.4-4.2,0.8-6.5,1.5c0,1.1-0.4,2.3-1.9,2.5c-1.4,0.2-2.8,0.3-4.2-0.1c-1.2-0.4-2.4-0.9-3.9-1.5c-3.5,1.2-5.6,4.9-9.1,6.1
		c-0.9,3.3-1.8,6.2-2.7,9.3c2.6,0.8,3.7-1.6,5.6-1.9c3.4,0.7,4.1,1,6.5,3.7c-2.7,0.6-4.2-1.8-6.6-2.1c-1.1,0.4-2.1,1.5-3.4,2.4
		c2.9,0.6,5.8,1,8.6,1.9c3,0.9,6,0.4,9,0.9c0.7-0.3-0.1-1.2,1.1-1.6c4.1,1.1,8.7,1.7,13.3,0.5c4.6-1.2,7.2-5,9.8-8.9
		c1.1,1.4,0.3,2.1,0.1,2.8c0.3,0.7,1.3,1.2,0.8,2.6c2-0.7,4.1-0.5,5.8-1.6c1.8-1.2,2.1-3.3,3.3-5.1c-2-3.2-2.2-7.4-5.3-10.3
		c-0.3-1.1-0.2-2.4-0.1-3.7c0.2-2.3,0-4.4-1.6-6.2c-1.5-1.7-1.1-3.9-1.2-5.9c0.5-0.3,1-0.2,1.1,0c0.4,2.5,1.8,4.5,3,6.6
		c0.6,1.1,0.9,2.4,0.9,3.7c0.2,3,1.1,5.7,2.4,8.3c1.2,2.5,1.9,5.2,3.3,7.7c-1.6,2.3-1.8,5.1-4.2,6.9c-2.3,1.7-5.2,1.3-7.5,2.9
		c-2-1-3.9-1-5.7,0.5c-2.7,2.1-5.7,2.9-9.2,2.7c-1.9-0.1-3.7,0.1-5.6,0.4c-3.9,0.6-7.9-0.1-11.8-0.6c-4.5-0.6-8.9-1.9-13.3-2.9
		c-0.7-0.2-1.3-0.4-1.7-1.1c0.7-3.7,1.7-7.4,3-11.1c-2.8-4-5-8.3-5.1-13.4c1.3,0.1,1.3,1.1,1.6,2c1,3.4,2.6,6.6,4.6,9.9
		c1.1-1.3,2.4-1.9,3.5-2.7c3.1-2.4,6.1-5.1,8.6-8.1c1.9-2.2,3-5,4.8-7.2c1.1-1.3,1.7-3,0.9-4.9c-0.2-0.5,0-1.1,0-1.6
		c0.6-1.6,2.3-2,3.1-2.7c1-7.6-1-14.7,0.6-21.8c-0.3-10.8-0.5-21.6-4.3-32c-1.5-4.2-2.3-8.7-3.4-13.1c-3.8-0.6-7.3-0.5-10.9,0.2
		c-6.1,1.2-12.2,2-18.3,2.6c-5.1,0.5-10.1,1.2-15.2,2.4c-5.6,1.3-9,4.4-10.9,9.6c-0.5,1.3-1,2.6-1.2,4c-0.6,4-1.4,8-1.9,12.1
		c-1.2,8.6-1.9,17.4-4,25.9c-1.2,4.8-1,9.6-1.2,14.4c1.3,0.3,2.5,0.5,3.6,0.8c6.6,1.9,13.3,3.3,19.9,5.3c5,1.5,10.3,2.1,15.4,3.2
		c1.8,0.4,3.7,0.7,5.1,2.1c-2.4-0.2-4.5,1.7-7,1.1c0.4-0.9,1.9-0.1,2.1-1.5c-2.7-0.5-5.4-0.9-8.1-1.3c-7.8-1.2-15-4.2-22.7-5.7
		c-1.8-0.4-3.6-1-5.4-1.4c-1.8-0.4-3.2-1.2-4.4-2.8c0.1-4.5,0.2-9.1,1.3-13.7c1.6-6.3,2-12.9,2.8-19.4c1-7.9,2-15.7,3.9-23.4
		c0.3-1.4,0.6-2.8,1.3-4c0.5-0.8-0.1-1.3-0.3-1.9c5.7-4.9,12.6-6.5,19.7-7.1c8.1-0.8,16.2-1.9,24.2-3.4c3.8-0.7,7.8-1.4,12.1-0.1
		c-0.5-2.8-0.8-5.4-1.5-7.7c-1.9-6.2-2.2-12.6-2.1-19c0.1-3.2-0.3-6.2-1.8-9.1c-1.1-2.1-1.8-4.5-2.8-7.2c-11.1,1.9-22,3.9-33.2,4.5
		c-11,0.6-22.1-0.6-33-0.4c-0.3,0.6-0.6,0.9-0.5,1.2c1,6.2-0.5,12.3-0.9,18.4c-0.8,10.7-1.7,21.4-2.7,32.1
		c-0.5,5.6-0.4,11.2-0.5,16.8c-0.1,6.9-0.8,13.7-1.3,20.6c-0.3,3.8-0.1,7.6-0.7,11.4c-0.3,1.8-1.7,3.3-1.4,5.3c0.5,3-0.6,5.9-1,8.8
		l0.1-0.1c-0.3,0-0.7-0.1-1.2-0.1c-0.7-1.5,0-3.2-0.5-4.9c-7.5-2-15.3-3.5-24.2-5.4c-4.8,1.3-11.1,1.4-17.4,2.4
		c-1,4.4-0.4,8.8-1.7,13c1.6,1,3.3,0.7,4.8,0.9c5.7,1.1,10.9,3.5,16.3,5.3c3.6,1.2,7.3,2.4,11.1,3c2.3,0.4,4.6,1,6.8,1.7
		c9.7,3.1,19.5,5.4,29.6,7.1c5.9,1,11.6,2.6,17.1,4.8c2.4,1,4.6,2.3,6.5,3.4c6.3-0.5,12.4-1.1,18.5-1.6c0.1,0.2,0.1,0.5,0.2,0.7
		c-1.7,1.2-3.7,2-5.8,2.4c-3.2,0.7-6.5,0.8-9.7,0.8c-0.9,0-1.8,0-2.7-0.5c-9.2-5.3-19.4-7-29.7-8.4c-8.5-1.2-16.6-3.5-24.8-6
		c-2.9-0.9-5.9-1.5-8.9-1.9c-5.8-0.9-11.2-3-16.7-5c-3.5-1.3-7-2.6-10.7-3.1c-1.3-0.2-2.6-0.7-3.8,0.3c-0.8-1.7,0.2-3.1-0.2-4.5
		c-1.3-0.4,0.2,1.4-0.8,1.2c-2.8-0.3-9.4-3-11.6-4.9c-0.4-3.1,0.8-6.2,1.7-9c0.8-0.5,1.4-0.4,1.9-0.3c-0.5,2.9-1.1,5.9-1.6,9
		c3.5,1.6,7,1.9,10.8,2.5c0.6-4.2,1.1-7.9,1.6-12c7.1-2.1,14.8-1.4,22-3.6c0.9,1.2,2,1.7,3.3,1.8c5.5,0.4,10.7,2.3,16,3.4
		c0.8,0.2,1.5,0.6,2.5-0.1c0-2,0.9-4.1,0.5-6.4c-3.6,0.1-6.9,0.3-9.7-2.3c-2.6-2.5-4.1-5.3-2.7-9c-2.4-2-4.8-0.8-7-0.6
		c-0.8,0.9-1.3,1.7-1.3,2.8c1.5,1.2,4,0.9,4.5,3.2c-0.6,1.1-1.4,1.1-2.2,1c-1-0.2-1.9-1-3-0.8c-2-1.7-2-1.7-3.3-0.8
		c1,0.5,2,1,3.2,0.9c0.1,0.8,1.2,1.1,1.1,2.4c-2.8,2.6-4.9-1-7.2-1.4c-0.9,1,0.4,1.3,0.2,2c-0.2,0.5-0.5,0.8-0.9,1
		c-1,0.1-1.7-0.7-2.6-0.8c-2.6,1.2-5.6,1.3-8.1,2.8c-2.1,1.3-4.3,2-6.6,2.2c-3.5,0.2-6.6,1.3-9.4,3.1c0.7-2.8,2.5-4.5,5.4-4.6
		c3.2-0.2,6.2-1,9-2.4c3.9-1.9,8.1-3,12-3.7c1.9-1.7,3.1-3.8,5-5.1c1.1-0.8,1.7-2.2,2.2-3.5c0.6-1.7,1.9-2.8,3.3-3.7
		c1.5,0.8-0.3,1.8,0.5,2.5c0.4,0.1,0.6-0.2,0.6-0.5c0.4-3.4,0.7-6.7,1.1-10.1c1-9.1,0.6-18.1-0.2-27.2c-1-12-2.4-23.9-2.6-35.9
		c-0.1-6.4-0.2-12.9,0.1-19.4c0.1-4-0.1-7.9-1.6-11.6c-0.8-1.9-0.4-4.2-0.4-6.2c0-0.7,0.6-1.2,1.3-1.4c-0.2,4.9,1.7,9.3,3.1,14.4
		c0.9-4-0.9-8.4,3.6-10.4c-0.6-2.7-0.6-2.7,0.6-4.5c1.1-0.3,1.3,1.2,2.5,1.2c2.8-1.6,6.3-1.8,9.5-3c4.3-1.6,8.7-2.4,13.3-2.7
		c4.7-0.3,9.3-0.7,13.9-1.1c2.6-0.2,5.1-0.9,7.6-0.9c4.8,0.1,9.7-0.1,14.5-0.4c6.6-0.3,13.2-1.4,19.9-1c4.4,0.2,8.8-0.4,13.2-1.6
		c4.3-7.4,8.9-14.5,15.7-20c-1.3-1.5-1.7-3.4-2.2-5.2c-1.1-3.9-3-7.3-5.3-10.5c-2.4-3.4-5.7-5.1-9.8-4.9c-1.5,0.1-3,0.3-4.5,0.6
		c-8.2,1.6-16.2,4.2-24.3,6.4c-8.6,2.3-16.9,5.3-24.7,9.7c-4.9,2.7-9.7,5.6-15,7.6c-6,2.3-11.1,6.1-15.8,10.2
		c-4.3,3.8-8.8,7.3-13.4,10.5c-1.2,1.8-1.2,4.1-2.6,5.8c-0.8-2.8,0.1-5.1,2-7.1c2.6-2.8,5.2-5.7,8.1-8.2c7.3-6.4,15.1-12,24.1-15.9
		c4.1-1.8,8.2-3.9,12.2-6.1c8.3-4.6,17.2-7.1,26.4-9c1.4-0.3,2.8-0.5,4.1-1c9.8-4,20.2-5.6,30.7-6.6c3.6-0.4,7.1-1.2,10.5-2.5
		c7.3-2.8,14.6-5.6,21.9-8.4c2.5-1,5.2-1.2,7.9-1.5c4.5-0.5,8.7-1.6,12.6-4c1.4-0.9,3-1.3,4.7-1.3c3.5,0,7-0.4,10.5-0.1
		c4.5,0.4,9-0.7,13.8-0.9c-1.3-5.1-2.5-10-3.7-14.8c0-0.1-0.1-0.2-0.1-0.3c-4.3-7.2-5-15.4-6.7-23.3c-1.3-6.3-1.3-12.7-2.1-19.1
		c-0.5-3.6,0.3-7.2,1-10.8c1-5.3,1.1-10.7,2.1-15.9c0.4-2.4,0-5,1.4-8c-10.8-0.1-21-0.1-31.1-0.2c-5.3,5.3-11.1,4.7-16.3,0
		c-1.3-0.4-2.7-0.3-4.1-0.3c-15.4-0.1-30.8-0.2-46.2-0.3c-0.5,0-0.9,0-1.4,0c-2.3-0.1-5.1,0-6-2.5c-1-2.7-0.9-5.8,1.6-8
		c0.4-0.4,0.8-0.8,1.3-1.4c18.1,0,36.3,0,54.4,0c0.5-0.4,0.8-0.6,1-0.8c3.4-4,9-5.3,13.9-3.2c1.6,0.7,2.2,2.3,2.9,3.6
		c1.4,0.5,2.7,0.3,3.9,0.3c9.7,0,19.4-0.1,29.1-0.2c1.5,0,2.9-0.3,4.3-0.9c4-1.7,8.3-1.9,12.5-1.4c1,0.1,1.9,0.5,3,0.3
		c1.7-0.3,3.1,0.8,4.3,1.9c38.9,0,77.7,0,116.5,0c0.6-0.4,1.1-0.6,1.5-1.1c2.3-2.5,5.2-2.4,8.3-2.1c2.9,0.2,5.9,0.2,9.3,0.4
		c3.1,2.9,7.4,2.8,11.7,2.8c13.4-0.1,26.8-0.1,40.3-0.1c1.3,0,2.6,0,3.7,0c1.5-1.1,1.6-3.8,4.1-3.5c-5.5,7.1-4.9,15.6,0.3,20.6
		c3.5,0.9,7,1.6,10.7,1.2c1.9-0.2,3.3-0.8,4.1-2.7c-1.8-1-3.4-0.1-5,0.3c-1.5-1.1-3.1-1.9-3.7-3.8c1.5,0.9,3,0.6,4.5,0.6
		c22.2,0.2,44.3,0.4,66.5,0.5c12,0.1,24,0.2,36.2,0.3c4.8-4,4.5-9.4-0.8-11.9c-1.1,0.1-1.9,1-2.8,1.3c-0.3-0.4-0.4-0.9-0.9-0.9
		c-34,0-68.1,0-101.7,0c-2.2,3.1-2.2,3.1-1.8,5.9c0.1,0.5,0.3,0.9,0.3,1.4c0,0.5,0.4,1.1-0.4,1.4c-1.3-2.2-1.2-4.5-0.9-6.8
		c0.3-2.3,2.3-3.4,4-4.6c1.4-0.9,2.7-0.7,4.2,0.2c1.1,0.6,2.4,0.4,4-0.1c-2.8-3.3-5.4-5.7-10-4.8C922,281.3,919.7,282.2,917.3,282.7
		z M829.6,426.1c-1.2,0.6-2.4,1.1-3.6,1.7c1.7,0.4,3,0,3.8-1.5c1.9-1.2,0.6-2.5,0-3.7c-0.7-1.3-2.5-1-3.5-2.2
		c1.4-1.5,1.7-3.6,3.2-5.2c0.5,1.9-1.2,3.1-1.1,4.9c1,0.5,1.9,1.4,3.4,0.6c0,2,0,3.9,0,5.7c-2.7,3.4-5,3.9-8.3,1.9
		c0.7-0.4,0.6-1.5,1.4-1.9c1.2-0.5,2.9,0.1,3.4-1.7c-0.2-0.9-0.9-1.1-1.6-1.2c-2.9,2.2-2.9,2.2-3.2,4.8c-1.3,0.7-1.2,2-1.6,3.6
		c7.6-1,12.8-4.7,16.1-10.8c0.7-0.7,1.3,0.3,1.7-0.5c-0.4-3.3-0.1-6.7-0.9-9.9c-0.8-3.3,0-7-2-10.2c-0.6,0.2-1,0.3-1.4,0.4
		c-0.5-2.5-0.5-2.5-2.7-3.4c0.6,1.6,1.4,2.7,2.8,3.3c1.2,3.3,0.8,6.6-0.4,10.4c-0.7-3.5,0-6.7-2.4-10c1.1,5.5,1.3,10.2-0.6,14.8
		c0.3-3.7,0-7.4-0.7-11.1c-1.3,3.5-3.6,6.5-4.3,10.4c-0.4,0.4-1.1,1-1.9,1.7c0.7,1.4-0.4,2.8,0.1,4.5c1.7-0.1,3,1.1,4.7,0.8
		C829.9,423.7,830,424.9,829.6,426.1z M841.8,442.9c-0.6,0.9-2.5,1.2-1.1,3.1c0.8-0.9,2.1-1.5,1-3c0-1.6,1.3-2.9,0.9-5.1
		c-4.6,7.5-11.2,10-19.5,9.2c0.6-1.1,1.6-1,2.5-1.3c0.9-0.3,1.3-0.8,1.4-1.7c0-0.2-0.1-0.4-0.2-0.5c6.6-2.4,9.4-8.5,13.5-13.9
		c-0.1,5.6-3.1,9.4-12.7,16.2c4.9-0.4,8.4-2.6,11.5-5.7c2.4-2.4,4.2-4.9,3.4-8.3c0.4-0.5,0.8-0.5,1.4-0.3c0.9,3.3-0.1,6.6-0.8,10.1
		c1.7-0.9,2.2-2.4,2.5-3.8c1.1-6,0.7-11.8-2.5-17.2c-0.4-0.7-0.7-1.8-2-1.8c-0.1,1-0.2,2.1-0.3,3c-2.5,2.6-4.8,5.2-7.3,7.7
		c-2.7,2.7-6.6,2.5-10.1,3.9c0.4,2.4-1.1,4-1.7,5.9c1.2,1.1,1.9-0.8,3.4-0.3c-3.9,4.4-8.4,6.3-14.3,6c-2.3,1.7-5.5,2.8-7.9,5
		c-3.6,2.3-7.2,4.7-11.7,4.8c-0.2,0-0.3,0.3-0.7,0.6c-0.1,1.8-0.2,3.8-0.3,6c-1.1-2-0.5-4.2-1-6.2c-4.2,0.1-8.2,0.4-11.9-1.3
		c-2.6-1.2-5.2-1.1-7.8-0.8c-0.9,0.1-1.8,0.2-2.8,0.2c-6.7-0.1-13.5-0.3-20.2-1.1c-3.8-0.4-7.6-0.8-11.2-2.3
		c-1.3-0.5-2.7-0.6-4.1-0.1c-0.9,0.4-1.8,0.6-2.7,0.5c-6.1-0.4-12.1,0.5-18.1,1c-3.6,0.3-7.2,0.2-11,1.2c-0.9,1.8-2.3,3.5-4.1,5.3
		c6.8,0.7,13.2-0.7,19.5-0.4c-6.4,1.4-12.9,1.9-19.4,2.2c-1.4,0.1-2.7,0.5-3.9,1.3c-3.2,2-6.4,3.8-10.2,4.5
		c-0.7,0.1-1.3,0.4-1.6,0.9c-2.5-1.4-4.3,0.1-6.1,1.4l0.1-0.1c-2.2,0.5-4.1,1.4-5.3,3.5c-0.8,1.3-1.9,2.4-3.4,2.9
		c-5.7,1.7-10.8,4.9-16.7,6.2c-0.5,0.1-0.7,0.5-0.9,1.1c0.3,1,0.3,2.3,1.3,2.8c8.4-1.9,16.7-2.9,25.1-3.5c11.5-0.8,23-2.3,34.4-3.6
		c10.5-1.2,21-2.7,31.6-3.6c15.9-1.3,31.9-2,47.9-2.3c5.9-0.1,11.9-0.6,17.8-1c10.9-0.8,21.8-2.5,32.8-2.6c1,0,2.1,0.1,3.3-0.8
		c0.6-5.3,2.8-10.6,2.3-16.4c-1.8-0.4-3.1-1.7-5-1.6c-4.3,0.3-8.6,0.6-12.9,1.1c-6.7,0.9-13.4,1.5-20.2,1.8c-1.1,0-2.2,0.1-2.4-1.4
		c0.7-0.1,1.4-0.4,2.1-0.4c7,0,13.9-0.7,20.9-1.3c4.2-0.4,8.3-0.8,12.3-0.8c0.5-1.5-0.2-2.7,0.6-4
		C839.7,442.7,840.8,443,841.8,442.9z M707.2,289.1c0-1.2,0.6-2.3,1.5-3.8c-1.9,0.7-2.7,1.6-3.7,2.3c0.4,1.4,1.4,1.3,2.3,1.3
		c-0.5,1-1.2,1.1-2.2,1c-2.3-0.2-4.4-1.1-6.8-1.1c-13.2,0.1-26.4,0-39.5,0.1c-1.5,0-3-0.1-4.5,1.1c0.5-2.4,2.5-2.7,3.5-4
		c1.8,1,3.6,0.8,5.7,0.5c-2.8-3.3-8.5-4.1-12-2c-3.6,2.2-5.2,8.6-3.2,12.9c1.5,3.2,7,5.3,11,4.1c0.6-0.5,1.3-1.1,2-1.7
		c-4.3-0.7-4.3-0.7-5.6-2.7c4.6,0,9.1,0,13.7,0c8,0.1,16.1,0.2,24.1,0.3c1.9,0,3.7-0.4,5.1-1.7c4.8-4.6,9-5.3,14.3-1.7
		c3.7,2.5,7.8,3.5,12.1,3.6c35.5,0.3,70.9,0.5,106.4,0.8c1,0,2.1,0.3,3-0.3c0-2.2,0.5-3.5,2.2-4.3c2.8-1.2,5.8-2,8.7-0.3
		c2,1.2,4,1.8,6.3,1.9c1.3,0,2.6,0.4,3.6,1.1c2.9,2.1,6.3,2.2,9.7,2.2c15.2,0.1,30.3,0.2,45.5,0.3c0.9,0,1.9,0.4,2.6-0.6
		c-0.5-1.5-0.7-3.1-1-4.7c-0.3-1.8,2.1-3,0.4-5.1c-1.1,0-2.3,0-3.6,0c-16.3,0-32.7,0.1-49,0c-3.6,0-7.2,0.5-10.7,1.4
		c0.9-1.2,1.2-2.6,1.1-3.9c0.8-0.6,1.4-1,2.1-1.5c-2.8-0.6-3.9,1.6-5.7,2.6c-0.3,0.2-0.6,0.2-0.8-0.3c0.2-0.3,0.4-0.7,0.8-1
		c0.3-0.3,0.7-0.6,0.7-1.1c-2.4,0.2-3,0.7-4.9,4.7c2.4,0.2,4.6,0.4,6.9,0.5c-1.8,2.3-4.4,0.1-6.1,1.1c-1.7-0.3-1.8-1.9-3.4-2.3
		c-1.6,0-3.6,0-5.6,0c-38.7,0.1-77.5,0.3-116.2,0.4c-2.7,0-5.3,0-7.7,0.9C709.2,289.5,708.2,289.3,707.2,289.1z M701.6,442.4
		c1.5-0.2,2.4-1.3,3.4-2.3c0.3-2.7,0.8-5.5,0.7-8.3c-0.1-3.4-0.5-7-2.2-9.8c-3.2-5.3-6.6-10.4-11.2-14.6c-1.5-1.4-3.2-2.8-4.2-4.6
		c-0.7-0.1-1.2-0.3-1.8-0.4c-5.7-1.2-11.5-1.6-17.3-2.3c-5.7-0.6-11.2,0-16.4,2.2c-7.1,2.9-14.2,6-21.6,8.2
		c-3.1,0.9-6.4,1.1-9.2,3.2c6.4,4.6,8.7,11.7,11.6,18.7c1.6-1.7,3.1-3.3,4.7-5c-1.4-1.7-2.6-3.3-3.8-4.9c0.1-0.1,0.2-0.2,0.3-0.3
		c1.4,1.3,2.8,2.6,4.3,4.1c2.1-1.6,4.8-1.5,6.9-3.2c2.4-2,5.4-3.2,8.1-4.9c1.1-0.6,6.1-1.9,7.4-2c-3.3,3.3-8,4.1-12,7.2
		c2.1,0.2,3.7,0.5,5.3,0.6c6.4,0.3,11.5,3.6,16.2,7.5c1.3,1.1,2.1,2.9,3.4,4c3.6,3.1,4.4,7.2,4.7,11.6c0.1,1.1,0.1,2.1,0.5,3.1
		c1.4,3.7,0.8,7.3-0.7,10.9c-0.3,0.8-1.2,1.4-1.1,2.4c4.4-0.2,8-2.4,11.7-4.2c2.7-1.3,4.9-3.2,6.4-5.8
		C697.6,449.8,699.7,446.1,701.6,442.4L701.6,442.4z M707.1,441.5c2.6-0.7,5.3-0.6,7.6,0.3c7,2.8,14.4,3.5,21.5,5.6
		c6.5-3.3,11.5-7.8,13.9-14.7c1.5-4.3,3.1-8.5,4.7-12.8c1.1-2.9,1.5-5.8,1.4-8.9c-0.4-9.1-6.2-16.2-15.3-17.9
		c-5.3-1-10.6-1.5-16-1.9c-3.8-0.3-7.4,0.2-11.1,1c-1.8,0.4-3.6,0.8-5.5,1.2c-8.2,1.4-16.5,1.5-24.8,1.2c-4.8-0.2-8.8,2.1-13.1,3.5
		c5.5,0.4,10.9,1.4,16.3,2.3c2,0.3,3.5,1.4,5,2.9c3.8,3.7,6.5,8.2,10,12.1c3.8,4.2,5.4,9.5,6.5,14.9c0.4,1.9-0.3,3.7-0.1,5.7
		c1.3-2.4,3.3-4.2,4.7-6.8c1.3,2.8-1,3.7-2.1,5.1c1.5,0.9,3.1,0.1,4.5,1.1c-1.6,1.2-3.1,0.2-4.7,0.4c-0.8,2.1-2,4.1-3.4,6
		c-1.2,0.8-2.5,1.6-3.7,2.5c-1.6,1.2-2.4,2.9-2.6,5.1c7.4-1.1,14.6-1.7,21.7-2.6c-4.2-1.2-7.9-3.4-12.3-3.6
		C709.1,443,707.7,443,707.1,441.5z M835.8,300.5c-1.3,0-2.4,0-3.6,0c-10.2-0.1-20.3-0.1-30.5-0.2c-24-0.2-48.1-0.4-72.1-0.6
		c-1.4,0-2.9-0.4-4.1,0.5c-3.4,2.4-7.3,2.9-11.2,3.6c-2.5,0.5-4.9,1.4-6.9,3.2c-0.2,0.2-0.4,0.2-0.6-0.1c-0.2-0.5,0.7-1,0.2-1.4
		c-0.6-0.4-1.2,0.4-1.6-0.6c0.2-0.3,0.5-0.7,0.9-1.2c1.1,0.8,2.2,1.1,3.5,0.3c1.8-1.1,3.9-1.5,6-1.8c2.8-0.5,5.7-1.1,8.2-3
		c-1.1-0.8-2.4-0.6-3.4-1c-2.5-1-5.3-0.7-7.5-2.6c-2-1.7-4.4-2.7-6.1-2.8c-4.5,0.1-6.4,3.1-9,4.9c-2,1.3-3,3-3,5.5
		c0.1,6.8-0.5,13.5-1.8,20.2c-0.8,4.4-0.8,8.8-0.5,13.2c0.4,4.9,0.7,9.8,1.3,14.6c0.8,6.9,2.3,13.7,4.8,20.2
		c0.5,0.2,1.1-0.2,1.1-0.1c1.7,7.1,2.7,13.8,5.3,19.8c1.4,0.4,2.2-0.1,3.1-0.4c3.4-1,6.8-1.8,10.3-1.6c3.1,0.1,5.4-1.2,7.2-3.7
		c-0.8-3.3-1.6-6.7-2.8-10c-1.3-3.6-4.7-5.2-6.4-8.5c3.3,1.5,5.9,3.8,7.4,7.2c1.4,3.3,2.4,6.7,3.4,10.2c2-0.5,3.6-1.3,5.3-1.6
		c3.9-0.7,7.6-0.2,11.4,0.5c4.7,0.9,9.4,2,14.2,1.3c9.6-1.4,17.3,2.3,24.2,8.4c2.5,2.2,5,4.5,7.4,6.6c1.6-0.7,1.7-2.2,2.5-3.1
		c1.2-0.4,2.3-0.8,3.2-1.1c0.7-0.5,0-1.8,1.3-1.8c0.6,0.6,0.8,1.4,0.5,2.2c-0.4,0.7-1.4,0.6-1.6,1.4c2.1,0.9,2.8,2.9,3.7,5
		c-2.1-0.5-2.5-2.6-4.2-3c-1.9-0.5-3.3,0.2-4.3,1.7c1.7,2.5,3.2,5,6.1,6.1c0.9,0.3,2.1,1.1,1.4,2.7c-2.4-0.5-3.5-2.8-5.4-3.8
		c-2,1.2-4.1,2.1-5.2,4.1c-2.1,3.9-4.2,7.8-6.2,11.7c-1.7,3.4-3.6,6.8-4.5,10.6c-1.2,4.9-2.9,9.6-5.7,13.8c-0.7,1.2-1.4,2.3-1.3,4
		c5.5,0.5,10.5,2.5,15.9,3.3c2.4-0.7,5-1.3,7.7-1.4c1.5,0,2.7-0.6,3.9-1.4c4.6-3,9.2-6,14.1-8.5c1.9-1,3.4-2.5,4.4-4.4
		c2.5-5.1,4.8-10.4,6.3-15.9c0.1-0.5,0.3-1.1,0-1.7c-0.5-0.4-1,0.7-1.7-0.1c2.8-3.2,4.8-7,5.8-11.2c0.1-0.3,0.2-0.7,0.3-1
		c2.4-4.5,3.1-9.5,3.5-14.5c0.4-4.4,1.2-8.8,2.9-12.9c1.4-3.4,3.1-6.7,4.5-10.2c2.3-5.8,3.7-11.8,5.2-17.8c0.9-3.6,0.2-7.2,0.9-10.8
		c1.5-7.4,3.1-14.8,5.7-21.9c1.6-4.1,3-8.3,3.6-12.6c0.1-1,0.6-1.7,1.2-2.4c2.5,0.5,3.8-1.8,5.7-2.6c1-0.4,1.3-1.5,1.4-2.7
		c-1.5,0.1-2.6-0.2-3.8-0.9c-1.5-0.8-3.2-1.6-4.9-1.7c-3.5-0.2-6.5-1.4-9.7-2.7c-2.7-1.1-6,0.2-8,2.7c0.6,0.7,1.3,1.3,1.9,2
		c1.1,1.5,1.9,3.1,1.7,5.1c-0.4,4.8-0.9,9.5-2.4,14.1c-3.2,10.1-7.3,19.9-12,29.4c-1.2,2.4-2.2,4.9-2.9,7.5
		c-3.5,11.9-7,23.9-11.6,35.4c-2.2,5.6-4.6,11.2-7.1,16.7c-1.7,3.8-3.7,7.5-4.1,11.7c-0.1,0.8-0.4,2-1.8,1.9
		c0.1-1.3,1.3-2.2,1.3-3.5c-0.1-4.6,1.9-8.6,3.7-12.6c1.7-3.8,3.4-7.6,5.2-11.5c-2.9-1.2-5.5-2.2-8.1-3.3c3.1-0.7,5.4,1.7,8.6,1.6
		c0.5-2.4,2.2-4.5,2.8-6.9c1.5-6.1,4-11.9,5.5-18c2.6-10.6,6.9-20.5,11.2-30.5c4.1-9.5,7.3-19.1,9.4-29.2
		C837.1,304.9,837,302.9,835.8,300.5z M645,478.5c2.1,1.1,3.3,0.2,4.3-0.7c0.9-0.8,1.9-1.4,3-1.7c6.5-1.7,12.3-5,17.7-8.9
		c2.8-2,5.3-4.5,6.6-7.9c1.4-3.6,0.8-13.4-0.9-16.9c-1.9-4.1-4.8-7.5-8.2-10.3c-2.6-2.1-5.4-4.2-8.7-4.9c-3.2-0.7-6.5-1-9.7-1.2
		c-3.2-0.2-6.3,0.4-8.8,2.7c-4.8,4.5-9.5,9-14.1,13.5c-1.6,1.5-3.3,3.1-4.3,5.1c-2.2,4.4-5.2,8.3-8.2,12.1c-0.6,0.7-1.2,1.5-1.5,2.3
		c-2.3,6.2-2.8,12.4-1,18.8c0.5,1.8,1.3,3.5,2,5.2c1.1,2.6,1.5,5.6,3.1,7.7c1.8,2.5,1.7,4.9,2,7.9c-0.8-1-0.4-2.3-1.8-2.5
		c0.3,5.3,0.1,10.6,1,16c1.9,11.3,4.4,22.4,7.9,33.3c1.7,5.2,3.1,10.6,3,16.1c-0.2,11.2,1.4,22.3,0.7,33.6c0,0.2,0.2,0.4,0.2,0.3
		c3.8,1.5,8.8,0.1,10.9,5.1c-0.6,1.4-1.1,2.8-1.6,4c0.7,0.7,1.2,1.1,1.9,0.9c1.5-1.4,3-2.7,4.6-4.2c1.2-3.9,1.5-8.1,1.3-12.2
		c-0.4-7.6,0.2-15.1,0.1-22.7c-0.1-9.4,2.1-18.5,3.2-27.8c0.6-4.7,2.7-9.2,1.2-14.1c1-3.8,0.5-7.6,0.5-11.5c0-8.6-1.2-16.9-4.1-25
		C645.6,487.1,645.3,483.1,645,478.5z M613.2,457.1c-4.8,1-9.5,1-14.1,0.6c-2.2-0.2-4.4,0.1-6.6,0.4c-4.3,0.6-8.6,1-12.9,0.3
		c-4.9-0.8-9.5,0.1-14.2,1c-4.5,0.9-8.9,1.6-13.5,1.9c-7.7,0.4-15.3,1.2-22.8,3.2c-3.6,1-6.8,2.4-8.9,6.1c0,5.1,0.1,10.4-1.2,15.7
		c2.5,0,4.8,0,7.3,0c0.2-5.6,0.1-11,0.9-16.3c-1.5-0.7-3.1,0.2-4.5-1.7c6.8,0.3,13.1-0.8,19.3,0.8c-4.6,0.4-9.2-0.4-14,0.8
		c-0.3,5.7-0.5,11.2-0.7,16.9c3.5,0.9,6.5,1.9,9.9,1.1c1-0.2,2.1-0.1,3.1,0.1c3,0.6,6,0.5,9.1,0.7c4.9,0.3,9.8,0.5,14.7,0.8
		c3.9,0.3,7.8,0.4,11.8-0.3c6.7-1.3,13.7-1,20.5-2.2c4.2-0.8,8.4-1.4,12.9-1.5c-2.1-6.6-2.4-12.9-2.1-19.4
		C608.3,462.6,610.5,459.7,613.2,457.1z M790.9,404.7c-2.9-3.2-5.6-6.1-8.3-9c-7-7.3-15.8-9.5-25.5-8.9c-3.9,0.2-7.9,0.7-11.4-0.7
		c-4.1-1.6-8.2-1.5-12.4-1c-3.2,0.4-6.3,1.5-9.2,3.9c1.7,0.2,3,0.5,4.4,0.6c4.3,0.5,8.6,0.9,12.9,1.3c2.1,0.2,4.1,0.8,5.9,2
		c1.4,0.9,2.8,1.7,4.3,2.2c1,0.3,2,0.8,2.6,1.6c-0.2,0.4-0.4,0.7-0.6,1.1c3.4,4.4,4.1,6.2,4.3,11.9c0,0.6-0.1,1.3,0.1,1.7
		c0.9,1.7,0.5,3.5,0.1,5.1c-1.9,6.4-3.9,12.7-7.5,18.4c-0.4,0.7-0.8,1.4-1,2.2c-0.3,1.9-1.5,3.4-2.8,4.7c-2.5,2.5-5.1,4.7-9.1,6.4
		c10.1,2,19.5,2.2,28.7,2.5c1.9-0.9,2.7-2.3,3.3-4.1c2.2-6.1,4.8-12.1,6.7-18.3c1.7-5.4,4.2-10.6,7.4-15.4
		C785.9,410,787.6,406.5,790.9,404.7z M517.4,488.1c-0.1,0.6-0.3,1-0.3,1.5c-0.5,8.4-0.5,16.8,0.7,25.1c1,6.8,1.9,13.6,1.7,20.5
		c-0.1,2.9,0,5.8,0.4,8.7c0.7,6.3,0.7,12.6,0,18.8c-0.5,4.5-1.2,8.9-1.2,13.4c1.1,1,2.6,0.6,3.8,1.8c0.4,1.2,0.9,2.6,1.3,4.1
		c0.4,1.6-0.7,3.2-0.4,5c3.5,1.5,7.1,1.6,10.9,0.7c0.2-1.6,1.1-2.9,0.6-4.6c-1.3,0.7-1.4,2.7-3.9,2.4c-0.2-2.9,2.9-3.4,4.3-5.7
		c0-1.4,0.5-3.4-0.1-5c-1.4-4-0.9-7.9-0.4-12.2c0.2,2.5,0.4,4.7,0.7,7.7c1-6.1,1.1-11.5,1.1-16.8c0-6.3,0.3-12.6,0.9-18.8
		c1.5-14,2.6-28.1,3.2-42.2c0-0.5,0-0.9-0.7-1.4C532.6,490.9,525.2,489.2,517.4,488.1z M592.4,297c1.6-0.6,3.3-0.5,5-0.5
		c14.9,0.1,29.8,0.2,44.7,0.2c1.2,0,2.5,0.3,3.9-0.4c-1.1-2.4,0.3-4.7,0.1-7.1c-1.3-0.6-2.6-0.3-3.8-0.3c-15.2,0-30.5,0.1-45.7,0.1
		c-0.6,0-1.2,0-1.7,0c-2.3,0.2-3.6,1.4-3.8,3.7C590.8,294.3,591,295.8,592.4,297z M813.5,443.5c3.4-0.5,5-2,7.8-7
		c0.5-1,1.2-1.9,1.3-3c-0.6-0.4-0.9-0.7-1.5-0.2C819.3,437,816.8,440.5,813.5,443.5z M718.7,285.8c-1.7-0.3-3.4-0.6-5.2-0.9
		c-1.7,0.5-3.2,1.3-4.8,2.5c0.8,0.4,1.5,0.7,2.2,1.1C713.5,287.3,716,286.3,718.7,285.8z M851.6,287c2.4,0.6,4.3-1.1,6.6-1.2
		C855.7,283.6,853.8,286.2,851.6,287z M840.4,286.5c0.1,0.6,0.3,0.9,1,1c0.8-0.9,1.9-1.6,2.7-3.5
		C842.3,284.9,841.1,285.5,840.4,286.5z M704.4,286.3c-2,0.5-2,0.5-1.5,1.8C703.7,287.9,703.7,287.1,704.4,286.3z M618.7,619.9
		c-0.8-1-1.1-0.7-1.4,0C617.7,619.9,618,619.9,618.7,619.9z"/>
	<path d="M488.1,330.3c-1.3-1.1-0.7-2.6-0.6-3.8c0.7-6.7-0.1-13.3-0.2-19.9c-1.9-2.2-3.3-4.8-5.8-6.4c-2.1-1.3-4.2-2.2-6.6-1.9
		c-7.1,0.9-14.2,0.1-21.3,0.5c-2.4,0.1-4.9,0.3-7.3,0.9c-3.6,1.1-7.4,0.6-11.1,0.8c-12.6,0.9-25,2.7-37.4,4.9
		c-10.4,1.9-20.8,2.7-31.3,3c-9.6,0.3-19.1,1.4-28.5,2.7c-2.1,0.3-4.1,0.4-6.3,0.6c-0.3,3.6-0.7,7.1-1,10.5
		c-0.1,1.4-0.2,2.8-0.6,4.1c-2.3,8-2.8,16.3-3.7,24.5c-0.8,7.1-1.2,14.2-1.2,21.3c0,3.9-0.9,7.9,0,11.8c0.4,1.6-1,2.8-0.8,4.4
		c0.1,1.3,1,2.6,0.2,4c-1.9-0.2-1-2.2-2.1-2.9c-0.7,1-1.4,2-3,2.4c1.7,1.4,2.9,2.8,4,4.2c1.4-0.5,0.8-2.2,2-2.7
		c1,2.8,0.6,4.1-1.9,6.2c-2.8-3.1-5.2-6.9-9.2-7.8c-0.8-1.4-0.5-2.3-0.2-3.2c0.3-0.8,0.5-1.5,0.9-2.5c-2.9-1.5-5.8-1.9-8.3-2.1
		c-1.5,0.3-0.7,2-2.1,2c-1.4,0.3-0.2-1.6-1.5-1.5c-1.2,2.2,1.2,4.7-0.5,6.8c10.4,2.4,10.4,2.4,11.3,4.8c-0.5,1-1.4,0.5-2.1,0.7
		c-2.9-1.8-8.1-2.9-10.8-2.1c3.9,0.7,7.3,1.8,10.9,2c0.4,0.8,1.6,1.1,1.3,2.4c-0.6,1-1.6,0.7-2.4,0.5c-3.6-0.6-7.1-1.2-10.7-1.9
		c-0.9-0.2-1.6-0.3-1.9,0.8c3.2,1.4,7.2,0.3,10.3,2.9c-1.9,2.4-4.2,1.1-6.4,1.2c-0.5,0.7-0.1,2.2-1.6,2.5c-2.9,0.7-5.5,0.1-8.2-1.5
		c-3.8,1-5.7,5-9.5,6c-0.7,3.4-2.1,6.3-2.5,9.6c2.4,0.4,3.6-1.6,5.6-2.2c2.4,0.5,4.6,1.5,6.4,3.8c-2.8,0.8-4.3-1.9-6.8-1.9
		c-1,0.6-2.2,1.2-3.9,2.2c6.4,1,12,3.2,18.3,2.6c0.3-0.1,0.1-0.7,0.5-1.5c2.9,0.7,5.9,1,9,1c3.1,0,5.9-0.7,8.6-2.4
		c2.7-1.7,3.7-4.9,6.1-6.7c1,1.2,0,1.8-0.1,2.7c0.2,0.8,1.4,1,1.2,2c4.9,0.3,7.4-2.2,8.6-6.6c-2-3-2.2-7.1-5.2-10.2
		c-0.2-0.7-0.1-1.9,0-3.1c0.2-2.5,0.1-4.8-1.7-6.9c-1.4-1.7-1.1-3.8-0.8-5.9c0.3,0,0.5,0,0.6,0.1c1.2,4.2,4.6,7.5,4.5,12.2
		c-0.1,2.1,0.8,4.1,1.8,6c1.5,2.6,1.8,5.7,3.4,7.7c-1.2,6.9-5.6,9.3-11.9,10.1c-1.8-1.1-3.8-0.3-5.8,1.2c-2.2,1.7-4.7,2.5-7.5,2.4
		c-4.7-0.1-9.3,0.4-14,0.2c-6.4-0.3-12.3-2.4-18.5-3.7c-0.4-0.1-0.7-0.5-1.1-0.8c0.9-3.8,1.7-7.6,3.1-11.2c-2.9-3.9-5-8.1-5.2-13.1
		l-0.1,0.1c1.2-0.4,1.3,0.4,1.6,1.2c1.1,3.5,2.5,6.9,4.7,10.1c1.6-2,3.8-2.6,5.4-4.2c3.4-3.4,7.4-6.4,9.4-11.1
		c0.1-0.2,0.3-0.4,0.4-0.6c2.3-2.4,3.6-5.1,2.4-8.2c0.6-2.1,2.5-2.4,3.5-3.7c-0.4-5.6,0.3-11.2-0.5-16.8c-0.1-0.7-0.3-1.6,0.1-2.1
		c1.2-1.7,0.6-3.6,0.6-5.4c-0.1-2.8-0.3-5.6-0.2-8.4c0.1-4.4-0.6-8.6-1.7-12.8c-1.9-7-4.1-13.8-5.4-20.9c-3.1-0.8-5.8-1-9.1-0.4
		c-6.1,1-12.1,2.1-18.3,2.7c-5.6,0.5-11.1,1.2-16.6,2.4c-6.3,1.3-10,5-11.9,10.8c-0.3,1-0.6,2-0.8,3c-0.7,4.1-1.4,8.3-2,12.4
		c-1.2,8.5-2.1,17.1-3.9,25.6c-0.6,2.7-1.7,5.3-1.2,8.2c0.3,2.2,0,4.4-0.5,6.6l0,0c-1.2,0.2-1.5-0.5-1.4-1.4c0.3-4,0-8,1.2-12.1
		c1.4-4.6,1.6-9.6,2.3-14.5c1.2-9.1,2.1-18.3,4.2-27.3c0.5-1.9,0.7-3.9,1.7-5.7c0.5-0.9,0-1.5-0.3-2c6.3-5,13.5-6.6,21-7.2
		c8.3-0.7,16.4-2.2,24.6-3.5c3.3-0.6,6.7-1,10.2,0.1c0.2-2.8-0.5-5.4-1.3-7.8c-1.8-6-2.2-12.2-2.1-18.4c0.1-3.6-0.2-6.9-2-10.1
		c-1.1-2-1.7-4.3-2.6-6.9c-11.1,2-22.1,3.8-33.2,4.6c-11,0.8-22.1-0.8-32.7-0.4c-0.9,0.7-1,1.4-0.9,1.9c1,3.2,0.3,6.5-0.1,9.7
		c-0.8,7.7-1.3,15.3-2,23c-0.7,7.5-1.4,15.1-2.1,22.6c-0.1,0.6-0.2,1.2-0.2,1.7c0.8,11.7-1.1,23.3-1.4,34.9
		c-0.1,3.3-0.1,6.6-1.6,9.8c-0.5,1-0.5,2.3-0.3,3.4c0.5,2.4-0.8,4.5-1,6.7c0,0.2-0.5,0.4-0.9,0.8c-1.2-1.6,0-3.5-0.8-5.2
		c-3.7-0.9-7.6-1.7-11.3-2.8c-3.8-1.1-8-0.4-11.5-2.9c-6,1.8-12.3,1.6-18.7,2.8c-0.9,4.5-0.4,8.9-1.7,13.4
		c7.7,0.2,14.2,3.3,20.9,5.7c4,1.4,8,2.6,12.2,3.2c1.3,0.2,2.5,0.5,3.7,0.9c11,3.7,22.2,6.1,33.6,8.2c7.8,1.5,15.5,3.5,21.9,7.9
		c6.3-0.6,12.4-1.1,18.4-1.6c-1.7,2.2-4,2.9-6.4,3.3c-2.3,0.4-4.6,0.5-7,0.7c-2.2,0.2-4.1-0.2-6-1.3c-7-3.9-14.7-5.8-22.6-6.9
		c-10.1-1.4-20-3.4-29.6-6.6c-3-1-6-1.7-9.2-2.1c-5.8-0.8-11.3-2.9-16.7-4.9c-4-1.5-8.1-2.8-12.4-3.6c-1.2-0.2-1.8,0.6-2.7,0.4
		c-0.8-1.3,0.3-2.6-0.1-3.8c-1.3,1.7-2.5,0.4-3.8,0c-1.5-0.6-3-1.2-4.6-1.7c-1.5-0.5-2.8-1.2-3.8-2.3c-0.4-2.9-0.3-3.5,1.4-9.2
		c0.8-0.8,2.2-1,2.9-2.4c0.7-1.6,2.3-2.4,4-2.4c4.2,0,8-1.6,11.6-3.4c3.2-1.5,6.8-1.7,10-3c1.7-1.5,2.8-3.6,4.8-4.9
		c1.1-0.8,1.7-2.2,2.2-3.5c0.7-1.6,1.8-2.9,3.3-3.7c1.2,0.9-0.3,1.9,0.6,2.7c0.2-0.3,0.5-0.5,0.6-0.8c0.6-7.8,1.7-15.5,1.8-23.3
		c0-4.3-0.6-8.6-0.8-12.9c-0.8-12-2.2-23.9-2.6-35.9c-0.2-6.9-0.1-13.9,0-20.8c0.1-3.8-0.2-7.6-1.6-11.3c-0.8-2-0.4-4.2-0.4-6.2
		c0-0.9,0.8-1.4,1.4-1.9c-0.3,5,1.4,9.5,3.1,14.5c0.9-3.8-0.8-8.1,3.6-10.1c-0.4-1.6-1.2-3.2-0.2-3.9c2.1-1.1,2.1,0.8,3.1,0.7
		c3.7-1.8,7.8-2.3,11.6-3.6c2.9-1,5.8-1.6,8.9-1.8c4.8-0.3,9.5-0.7,14.3-1.1c5.2-0.4,10.3-1.3,15.5-1.3c5.5,0,10.9-0.3,16.3-0.8
		c3.1-0.3,6.3-0.8,9.4-0.5c5.4,0.4,10.6-0.4,16-1.2c4.3-7.5,9-14.7,15.9-20.3c-1.4-1.2-1.6-2.7-1.9-4.2c-1.1-4.4-3.3-8.2-5.9-11.8
		c-1.7-2.5-4.2-3.9-7.2-4.4c-3.8-0.6-7.4,0.4-11,1.3c-7.3,1.9-14.6,3.9-21.9,5.9c-7.8,2.2-15.3,4.9-22.4,8.9
		c-5.1,2.8-10.1,5.8-15.6,7.9c-6,2.3-11.1,6.1-15.8,10.2c-4.3,3.8-8.8,7.3-13.3,10.4c-1.3,1.7-1.1,4-2.6,5.4c-0.8-2.7,0.3-4.8,2-6.7
		c2.5-2.7,5-5.6,7.8-8c7.2-6.2,14.7-11.8,23.4-15.7c5.1-2.3,10.1-4.9,15-7.5c7.3-3.8,15.1-6,23.1-7.7c2.7-0.6,5.4-1.3,8.1-2.2
		c8.1-3.1,16.6-4.7,25.2-5.3c7.7-0.5,14.7-3.4,21.8-6c4.8-1.7,9.5-3.9,14.3-5.5c2.3-0.8,4.8-1,7.2-1.2c3.6-0.4,7.2-1.2,10.3-3
		c2.4-1.3,4.8-2.3,7.7-2.3c0.3-1.7,1.4-3,1.2-5c-10.2-0.8-20.4-1.5-30.4-2.3c-5,4.9-11.1,4.2-16.2-1.2c-5.8-0.5-11.7-0.9-17.6-1.4
		c-10.7-0.8-21.4-1.6-32.1-2.4c-1.7-0.1-3.5-0.2-5.1-0.9c-2.2-0.9-2.8-2-2.7-4.3c0.2-3.4,0.6-4.1,4.1-7.1c18,1.2,36.1,2.4,54,3.6
		c0.5-0.3,0.8-0.3,0.9-0.5c3.6-5,8.5-3.8,14-2.5c1.7,0.4,2.3,2.2,2.8,4c2,0.2,4.1,0.5,6.2,0.6c8.7,0.6,17.5,1.1,26.2,1.7
		c1.8,0.1,3.6-0.1,5.4-0.7c4.1-1.4,8.4-1.3,12.6-0.4c0.5,0.1,1,0.4,1.6,0.4c3,0.2,3,0.2,5.4,2.3c38.4,2.6,77.1,5.2,115.5,7.7
		c2.1-0.5,3.3-2.2,5-2.8c4.8,0.1,9.5,0.9,14.7,1.4c2.6,2.7,6.3,3.2,10.4,3.4c15,0.8,30,2,45,3c1.6-0.8,1.6-3.4,3.9-3.2l0-0.1
		c-1.4,2.6-2.8,5.1-4.2,7.7l0.1,0.1c0-0.7,0.2-1.4-0.6-2.2c-6.5-0.4-13.2-0.9-19.9-1.3c-11.5-0.8-23-1.5-34.5-2.3
		c-3.3-0.2-6.4-0.1-9.5,1.3c-2.1,1-4-0.8-5.7-0.1c-1.4-0.5-1.4-2-2.9-2.4c-14-0.9-28.4-1.9-42.8-2.8c-11.3-0.7-22.6-1.5-33.8-2.2
		c-15.7-1.1-31.4-2.1-47.1-3.2c-1.2-0.1-2.3,0-3.5,0.1c-3.5,0.4-7,0.5-10.3-0.4c-1.9-0.5-3.8-0.9-5.8-1c-12.7-0.9-25.3-1.6-38-2.5
		c-1.5-0.1-2.7,0.2-3.9,0.9l0.1,0.1c0.1-2.4,2.6-2.4,3.6-3.9c1.8,1,3.6,1,5.7,0.8c-2.7-3.5-8.2-4.8-11.8-2.7
		c-3.8,2.2-5.7,6.3-4.4,11.9c0.9,4,4.5,5.8,10.7,5.6c0.8-0.5,1.7-1.1,2.6-1.7c-4.4-1.1-4.4-1.1-5.9-3.1c5.4,0.4,10.4,0.8,15.5,1.2
		c7.6,0.6,15.1,1.2,22.7,1.8c2.2,0.2,3.9-0.5,5.6-2c2.8-2.4,6.2-3.6,10-2.1c1.6,0.7,3.2,1.4,4.5,2.7c2.3,2.3,5.4,2.9,8.2,3.5
		c3.6,0.7,7.4,0.7,11.1,1c1.8,0.2,3.2-0.4,4.3-1.7c0.8-0.8,1.4-1.7,2.6-2.2c4.7-1.9,9.4-2.4,14.4-1.5c6.6,1.2,13.3,2.4,20.1,1.5
		c2.2-0.3,4.4,0.1,6.6,0.7c5.4,1.5,10,4.3,14.4,8c12.6,1,25.4,2,38.5,3c-0.5-2.6,0.9-3.9,2.6-4.6c2.9-1.1,6-1.5,8.7,0.4
		c1.8,1.3,3.7,1.8,5.8,2.2c2.6,0.5,5,1.6,6.6,3.9l0-0.1c-4.5-2.1-9.7-2.2-14.1-4.8c-2.8-1.7-6.3-0.8-9,1.9c3.9,3.3,4.4,7.8,4.3,12.6
		c-0.2,9.8-2.3,19.2-6.2,28.1c-3.1,7-4.8,14.3-5.9,21.8c-0.1,0.7-0.2,1.4-0.4,2.1c-0.1,0.3-0.4,0.6-0.8,1.2c0.1-7.2,1.8-13.7,3.5-20
		c-1-1.6-2.7-2-3.6-3.6c1.6-0.1,2.5,1.3,4,1.4c1-2.6,1.9-5.3,3-8.2c-2.8-2.5-5.8-4.8-9-6.6c-3.1-1.7-6.9-1.9-9.7-4.2
		c7.1,1.2,13.9,3,18.8,8.8c0.4-1.6,0.4-1.8,0.1-4c0.4-0.9,1.3,0.4,1.8-0.7c-0.7-1-3.5-1.2-2.3-3.5c1.5-0.2,1.5,1.5,2.8,1.6
		c1.7-6.4,1.8-13,2.1-19.8c-0.7-1-1.9-1.8-2.1-3.5c-6.6-0.5-13.1-1-19.3-1.5c-1,0.3-0.5,1.5-1.6,1.6c-1,0-1.2-1.2-1.9-1.7
		c-1.2-0.4-2.5-0.4-4.3,0c2.4,1.2,3,3.3,4.5,5.2c-2.8-0.2-3.2-3.6-5.8-3.1c-1.2,0.1-2.1,0.9-3.1,1.7c2.6,4,4.9,8.2,6.9,12.6
		c1.4,0.7,2.9,1.3,3.9,2.8c-1.5,0.4-1.9-1.4-3.2-1.5c-0.2,0.3-0.4,0.6-0.6,1.1c-2.2-2.7-3.4-6-5.4-8.8c-3.5,1-4.8,3.9-6.2,6.6
		c-2.4,4.5-4.6,9.1-6.9,13.7c-1.1,2.2-1.8,4.5-2.4,6.9c-1.1,4.3-2.7,8.4-5.1,12.2c-0.8,1.2-1.5,2.3-1.5,3.8c0.6,0.9,1.5,0.8,2.2,0.8
		c4.1,0.3,7.9,2.1,11.9,2.6c0.8,0.1,1.5,0.4,2.4,0.2c3.5-0.7,7-1.3,10.6-1.9c0.2,0.4,0.5,0.7,0.5,1c0.2,5.5,2.4,10.4,3.8,15.6
		c0.5,1.6,1.5,2.8,2.6,4.1c0.4,0.5,0.8,0.2,1.2-0.1c0.6,1,1.2,1.9,1.8,2.9c0.9,1.6,2.3,2.6,4,3.2c2.5,0.9,5.1,1.7,7.2,3.4
		c1.4-1.3,3-0.9,4.6-1.1c-0.3,1.4-1.7,1-2.2,1.9c0.2,0.8,1.7,0.4,1.9,1.8c-4.4,0.4-7.5-2.5-11.3-3.6c-4.2-1.3-5.7-5.3-9.3-7.6
		c-7.7,0.4-15.8,0.8-23.8,1.1c-10.6,0.4-21.2,1.1-31.8,1.8c-4.2,0.3-8.4,0.6-12.5,1.3c-0.6,0.1-1.2,0.3-1.7,0.2
		c-5.5-1.6-10.8,0.6-16.1,1.2c-10,1.1-19.9,2.7-29.8,4c-6.1,0.8-12.3,1.1-18.4,1.8c-3.5,0.4-6.9,0.9-10.4,1.4c-3,0.4-6,0.9-9.2-0.4
		c-0.2,2.1,0.5,3.8,1.1,5.5c2,5.9,3.3,11.9,3.4,18.1c0,0.5-0.1,1,0.1,1.4c2.4,3.9,1.1,8.2,1.3,12.3c0.1,1.4-0.3,2.8,0.2,4.1
		c0.8,0.7,1.6,0.4,2.4,0.2c14.4-2.6,28.9-3.8,43.5-4.2c9-0.2,17.8-2.1,26.7-3.5c12.6-2,25.1-4,37.9-4c2.4,0,4.9-0.3,7.3-0.7
		c4.9-0.8,9.8-0.8,14.7-0.7c3.1,0.1,6.3-0.1,9.4-0.4c6.2-0.7,8.6,0.5,11.6,6c0.3,0.6,0.7,1.2,1.2,1.7c0.4,0.4,0.9,0.6,1.7,1.1
		C489.1,312.9,489.7,321.6,488.1,330.3L488.1,330.3z M378.8,225.4c1.2-0.8,2.6-1.5,3.6-3c0.2-2.5,0.5-5.2,0.6-7.8
		c0.1-3.5-0.5-7.2-2.2-10.1c-3.2-5.3-6.8-10.6-11.5-14.8c-1.4-1.2-2.8-2.5-3.7-4.2c-1.3-0.3-2.6-0.5-3.8-0.8
		c-5.1-1.3-10.4-1.3-15.6-1.9c-5.7-0.7-11.2-0.1-16.4,2.2c-7.2,3.1-14.4,6.1-21.9,8.3c-2.9,0.9-6.1,1.1-8.6,3.1
		c6.2,4.7,8.6,11.6,11.2,17.9c1.6-1.3,3.2-2.6,4.7-3.8c0-1.5-1.6-1.9-1.2-3.2c1.1-0.1,1.3,1.3,2,1.4c4.3-1,7.7-3.3,11.1-5.4
		c3.4-2.1,7.1-3.8,11.5-4.5c-3.4,3.7-8.2,4.3-12,7.5c2,0.2,3.6,0.3,5.2,0.4c2.1,0.2,4.2,0.3,6.1,1.3c5,2.5,10.1,4.9,13.2,9.9
		c0.3,0.5,0.7,0.9,1.2,1.3c1.5,1.2,2.3,2.9,2.9,4.7c1.1,4,1.3,8.2,2.1,12.3c0.7,3.5-0.6,6.8-2.8,10.1c4.3-0.2,7.6-2.2,11-3.7
		c4.1-1.9,7.1-4.9,8.9-8.9C375.7,230.7,377.1,227.9,378.8,225.4L378.8,225.4z M322.9,261.4c1.4,1,2.6,0,3.5-0.8
		c1.4-1.3,3-1.7,4.6-2.3c1.4-0.5,2.9-0.9,4.3-1.5c5.9-2.7,11.6-5.8,16-10.8c1.9-2.2,3.1-4.6,3.1-7.6c0-2.1,0.4-4.2-0.4-6.2
		c1.4-3.3-0.4-5.9-1.9-8.5c-2.7-4.6-6.1-8.8-11.1-11.4c-1.2-0.6-2.4-1.5-3.7-2.3c-3.4-0.4-7-0.9-10.6-1.3c-3.4-0.3-6.6,0.3-9.2,2.6
		c-5.1,4.7-10.1,9.6-15.1,14.5c-1.3,1.3-2.6,2.6-3.5,4.3c-2,3.9-4.5,7.4-7.2,10.7c-3.3,4-4.3,8.6-4.6,13.6c-0.5,8.1,4,14.7,6.2,22
		c2.2,2.1,1.7,4.9,2,8.1c-0.8-1.4-0.5-2.7-1.9-3.2c0,2.7,0,5.4,0,8c0,2.8,0.8,5.5,1.1,8.3c1.6,11,4.1,21.7,7.5,32.3
		c2.4,7.5,3.8,15.1,3.2,23.1c-0.1,1.6,0,3.3,0.1,4.9c0.6,7.2,0.9,14.4,0.5,21.7c0,0.6-0.1,1.2,0.3,1.5c4,1.2,8.8-0.1,10.9,4.9
		c-0.6,1.4-1.1,2.7-1.5,3.9c0.5,0.8,1.1,1,1.8,1.2c1.5-1.4,3.1-2.9,4.6-4.3c1.3-3.5,1.4-7.4,1.3-11c-0.2-6.1,0.3-12.1,0.1-18.2
		c-0.3-8,0.9-15.8,1.7-23.7c0.8-8.1,4-15.9,2.8-24.1c1-4.5,0.5-9,0.4-13.6c-0.2-6.8-0.9-13.5-3.2-19.9c-1.4-3.9-1.9-7.9-2.7-11.9
		C322.2,263.5,322.1,262.5,322.9,261.4z M413.6,230c6.6-3.3,11.6-8.2,14.1-15.5c1.3-4,2.9-7.9,4.3-11.8c1.1-3,1.6-6.1,1.4-9.3
		c-0.5-9.4-6.8-16.4-16.1-18c-2.8-0.5-5.5-0.7-8.3-1.1c-6.3-0.8-12.7-1.3-19,0.6c-2.2,0.7-4.6,0.9-6.9,1.2
		c-7.4,1.3-14.9,0.9-22.3,0.8c-4.9-0.1-9.1,2.1-13.5,3.8c5.1-0.2,10,1.1,15,1.7c3,0.4,5.2,1.6,7.4,3.9c3.7,3.8,6.7,8.1,9.9,12.2
		c4.6,5.9,7.3,12.7,5.5,20.6c1.5-2.5,3.2-5,5.3-7.3c0.6,2.4-0.5,3.6-2.6,4.4c1.6,1.2,3.3,0.8,4.7,1.7c-1.6,0.8-3.2,0-4.8,0.5
		c-0.7,1.8-1.6,3.5-3.1,5.5c4.4-0.6,8,0.5,11.6,2c0.6,0.3,1.3,0.4,2,0.6C403.1,227.7,408.1,228.8,413.6,230z M372.2,240.4
		c7.6,0.5,14.4-0.9,22-0.9c-8.2,1.8-15.8,2.3-23.7,2.7c-4.1,3-8.9,4.9-14,6.5c-0.1-0.2-0.7-0.7-1.4-0.5c-3.4,1-6.9,2.1-9.3,5.1
		c-1,1.3-2,2.7-3.6,3.2c-5.7,1.6-10.8,4.9-16.7,6.2c-0.4,0.1-0.7,0.6-1,0.9c0.4,1.2,0.3,2.4,1.6,3.1c7.5-2.1,15.3-2.9,23.1-3.4
		c15-1.1,29.9-3.2,44.8-4.8c10.1-1.1,20.1-2.6,30.2-3.2c13.2-0.7,26.3-1.4,39.5-1.6c4.8-0.1,9.5-0.4,14.5-0.7
		c-1-5.7-4.4-10.5-4.2-16.1c-2.8-0.3-2.8-0.3-6.1,0.9c-0.1,2-0.2,4.1-0.3,6.5c-0.8-2.3-0.8-4.4-0.8-6.7c-5.2,0.5-10-0.1-14.5-2.3
		c-0.6-0.3-1.4-0.1-2.1-0.1c-2.2,0.1-4.4,0.4-6.6,0.4c-5.4-0.1-10.7-0.3-16-0.8c-4.4-0.4-8.9-0.5-13.1-2c-2.4-0.8-4.6-1.5-7.1-0.3
		c-0.5,0.2-1.1,0.2-1.7,0.2c-9.6-0.4-19,1.3-28.5,1.8C375.6,236.5,374.3,238.5,372.2,240.4z M219.7,251.6c-4.7,0.6-9.4-0.2-14.4,0.7
		c-0.3,5.8-0.5,11.4-0.7,17c2.8,1.1,5.4,1.8,7.9,1.4c2.7-0.4,5.3,0.1,7.9,0.2c5.5,0.3,10.9,0.5,16.4,0.8c5.8,0.4,11.6,1.3,17.3-0.3
		c0.3-0.1,0.7-0.1,1-0.1c6.4-0.8,12.8-0.8,19.1-1.9c4-0.7,8-1.1,12.1-1.7c-1.6-5.6-2.3-11.1-1.9-16.8c0.1-1-0.4-2.1,0.2-3.1
		c1.3-2.1,1.9-4.7,4.3-6.2c0.7-0.4,1.4-1.2,1.6-2.5c-5.1,1.4-10.2,1.6-15.3,0.9c-1-0.1-2.1,0.1-3.1,0.2c-5.9,0.7-11.8,1.5-17.8,0.3
		c-1.7-0.3-3.5,0-5.2,0.2c-6.2,0.8-12.3,2.5-18.6,2.9c-7.9,0.5-15.8,1-23.5,3.2c-3.8,1.1-7.3,2.3-9.5,6.3c0,5.1,0.1,10.4-1.3,15.9
		c2.6-0.1,4.8-0.2,7.4-0.4c0.3-5.5,0-10.9,1-16.3c-1.4-0.8-3.1,0.3-4.2-1.4C207,251.2,213.3,250.5,219.7,251.6z M431.2,178.9
		c-0.2,1.1-0.3,1.8,0.3,2.5c2.5,3,3.4,6.4,3.8,10.3c0.3,3.7,0.3,7.2-0.8,10.9c-2,6.9-5.8,12.9-8.5,19.5c-0.2,0.4-0.5,0.8-0.8,1.2
		c-2.3,2.6-4.9,5-8,6.7c-0.5,0.3-1.5,0-1.3,1.4c9.2,1.7,18.7,1.8,27.8,2.4c1.4-1.1,2.4-2.1,3-3.6c3.2-7.6,5.5-15.5,8.7-23.1
		c3.1-7.4,6.5-14.7,13.1-20.2c-4.3-3.8-7.9-8.2-12.4-11.8c-1.5-1.2-3-2.1-4.8-2.8c-6.3-2.5-12.8-3.5-19.5-2.7
		c-2.9,0.3-6,0.4-8.7-0.6c-6.7-2.6-13-1.5-19.3,0.9c-0.6,0.2-0.9,0.7-0.9,1.5c4.3,0.3,8.6,0.6,12.9,0.9c1.3,0.1,2.6,0,3.8,0.6
		C423.4,174.9,426.9,177.4,431.2,178.9z M194.8,270.9c-0.5,0.4-0.5,1-0.5,1.6c-0.5,8.4-0.4,16.7,0.8,25.1c1,6.8,1.9,13.6,1.6,20.5
		c-0.1,2.9,0.1,5.8,0.4,8.7c0.7,6.2,0.7,12.3,0,18.5c-0.5,4.5-1.2,9-1.2,13.4c0.9,1.2,2.5,0.7,3.5,1.6c1.7,2.9,2,5.9,0.9,9.2
		c3.7,2,7.3,1.6,11,1c0.4-1.7,1.2-3.1,0.8-4.8c-1.4,0.7-1.5,3.4-3.9,2.2c0.1-2.7,2.9-3.1,4.2-5.1c-0.1-1.8,0.6-3.9-0.1-6
		c-1.2-3.2-0.9-6.4-0.2-9.6c0.2,1.6,0.4,3.2,0.6,5.4c1.1-6.1,1-11.6,1.1-17c0-6.3,0.4-12.5,1-18.8c1.1-11.8,2.7-23.6,2.7-35.5
		c0-2.4,0.7-4.8,0.3-7.6C209.8,273.8,202.4,271.5,194.8,270.9z M166.4,379.1c7-2.2,14.7-1.4,21.5-3.5c1.3,0.6,2.1,1.5,3.3,1.6
		c5.3,0.4,10.2,2.1,15.3,3.3c1.1,0.3,2.2,0.6,3.6,0.1c-0.2-2.2,1-4.2,0.3-6.4c-2.1,0-3.9,0-5.8,0c-6.3-3.5-7.5-5.5-6.7-11.5
		c-2.2-1.6-4.6-0.8-6.8-0.4c-0.9,0.8-1.2,1.8-1.6,2.7c1.5,1.1,4,0.9,4.6,3.2c-0.5,1.3-1.3,1.4-2.3,1.1c-1.5-0.5-3-1.2-4.4-2.1
		c-0.7-0.5-1.3-0.5-1.7,0.6c1.5,0.9,3.9,0.7,4.4,3.2c-3,2.5-5.1-0.8-7.6-1.3c-0.5,1,1.1,1.8,0,2.7c-1.1,0.9-2.1-0.5-3.2-0.5
		c-2.4,1.2-5.3,1.1-7.7,2.6c-2.8,1.8-6.1,2.4-9.3,2.7c-2.9,0.2-5.1,1.5-7.1,3.3c-0.5,2.7-0.9,5.5-1.4,8.4c3.5,1.5,7.1,1.7,10.7,2.6
		C165.3,387.1,165.8,383.3,166.4,379.1z M256.7,160.3c18.1,0.9,35.9,2.7,54.1,3.9c-0.9-2.8,0.4-5.1,0.5-7.5
		c-0.6-0.5-1.2-0.5-1.7-0.5c-8.6-0.5-17.2-1.1-25.8-1.6c-7.8-0.5-15.6-1-23.3-1.5c-3.2-0.2-5.2,2.3-4.5,5.4
		C256,159.2,256.3,160,256.7,160.3z M388.3,171.9c-4.4-1.7-9-2.6-12.8-5.9c-2.9-2.5-7.2-2.2-9.7,0c-1.2,1.1-2.5,2-3.9,2.9
		c-2.1,1.3-3.2,3.2-2.6,5.9C369.2,175.2,378.9,175.3,388.3,171.9z M378.2,231.9c7.5-1.3,14.6-1.6,22.1-2.5c-5.5-2.4-11-3.6-16.7-4.5
		C381.3,226.5,378.3,227.8,378.2,231.9z M512.1,165.3c-2.7,0.3-3.5,2.7-5,4.7c2.4-0.2,4.5,1.1,6.8,0.6c0.9-0.7,1.6-1.4,1.4-2.7
		c-0.1-1.1,1.3-1.2,2-2.1c-1.3-0.2-2.4-0.1-3.3,0.5c-0.8,0.5-1.3,1.6-2.5,1.5C510.8,166.7,512.9,166.5,512.1,165.3z M384.5,158.6
		c-6.7-1.9-6.7-1.9-10.5,0.5c0.9,0.6,1.7,1.3,2.8,0.9C379.3,159,381.9,158.7,384.5,158.6z M463.5,178.5c1.1,1.6,2.4,2.7,3.8,3.6
		c1.1-0.8,1.9-1.8,1.8-3.3C467.3,178.4,465.6,178.2,463.5,178.5z M516.3,168.2c0.1,0.3,0.1,0.5,0.2,0.8c2.3,0.5,4.4-1.7,7.3-0.3
		c-0.8-1.5-1.4-2.1-2.6-2.1C519.6,167,518,167.6,516.3,168.2z M373.2,157.7c-0.1-0.1-0.3-0.3-0.4-0.4c-1,0.6-2,1.3-3.1,2
		c0.9,0.8,1.5,1.2,2.5,0.7C372.5,159.3,372.9,158.5,373.2,157.7z M505.9,168.4c1-1,2.3-1.5,3-3.2
		C505.6,166.6,505.6,166.6,505.9,168.4z M369.5,157.7c-1.7,0.3-1.7,0.3-2.1,1.7C368.7,159.5,368.9,158.5,369.5,157.7z"/>
	<path d="M581.9,168.6c1.4-1.6,3.4-2,5.3-2.2c1.5-0.1,3-0.1,4.5,0c4.3,0.2,6.4,1.8,7.9,6c0.1,0.2,0.3,0.4,0.6,0.8
		c3.1,0.2,6.3,0.5,9.5,0.7c15.9,1.1,31.9,2.1,47.8,3.1c11.3,0.7,22.6,1.4,33.9,2.2c2.7,0.2,5.3,0.8,7.7,1.9
		c1.1,3.9,1.4,7.2-1.2,10.7c-2.1,2.9-4.7,3.7-7.8,3.5c-11.8-0.8-23.5-1.7-35.2-2.6c-14-1.1-27.9-2.2-41.9-3.2
		c-5.1-0.4-10.2-0.8-15.5-1.2c-1.5,3.5-4.4,4.4-8,4c-0.6-0.1-1.2-0.1-1.7,0.1c-4.7,1-7.5-1.2-9.3-5.6c-16.9-1.3-33.9-2.6-51-3.9
		c-1.2,2.2-3.3,3.2-5.5,4.1c-1.1,3.9-2.1,7.8-3.2,11.8c0.9,1.4,2.4,2.3,3.3,3.7c4.5,6.6,4.2,15.8,0,22.1c-1,1.4-1.7,3-2.7,4.6
		c2.2,1.5,4.4,2.5,7.2,2.6c-0.9,1.5-2.1,0.9-2.6,1.7c0.2,6-1.3,11.7-2.2,17.5c-0.1,0.5-0.6,1-0.9,1.4c-2.9-0.8-5.3-0.5-7.9-0.1
		c-1.7,6.5-5.7,11.3-10.7,15.5c1.3,8.6,1.2,17.4,1.5,26.1c0.1,3.1,1.1,5.9,1.7,8.9c1.9,9.1,3.7,18.3,4.4,27.6c0.4,5.2,2,10.3,2,15.6
		c0,1.1,0.6,2.2,0.9,3.3c-2.8,1.1-4,1.3-6.7,0.9c1.2-1.5,3.2-0.3,4.5-1.4c0.4-5.8-1-11.3-1.8-16.9c-0.1-0.8-0.2-1.6-0.8-2.3
		c-0.8-0.8-1-2-0.8-3c0.6-2.9-0.4-5.5-0.9-8.3c-0.9-4.9-1.2-10-2.6-14.8c-1.8-6.4-2.2-12.8-2.1-19.4c0.1-5.5-0.9-10.9-0.9-16.5
		c3-2.7,5.8-5.7,7.8-9.3c1.1-2,2.2-4.1,2.5-6.5c0.2-1.2,0.3-2.3,0.7-3.4c3.2-9.5,3.3-19.2,3.1-29.1c-0.1-5,1-9.9,1.9-14.8
		c0.6-3.4,0.6-7,1.5-10.4c0.6-2.5,1.2-5,1.8-7.2c1.7-2.1,4.9-1.8,5.8-4.8c-0.8-0.9-2.9,0.1-3.2-1.7l0,0.1c1.4,0,2.8,0,4.2,0.1
		c5.5,0.4,10.9,0.9,16.4,1.3c10.7,0.8,21.4,1.7,32.1,2.5c0.6,0.1,1.4,0.4,2.1-0.6c-0.6-1.3-0.8-2.9-0.8-4.6c0-1.3,0.4-2.3,1.5-2.9
		l-0.1-0.1c0,0.8,0.1,1.6,0.1,2.4c-0.2,4,0.9,7.6,3.3,10.4c3.8,1.3,7.4,2.3,11.2,2c1.9-0.1,3.3-0.8,4.1-2.6
		c-1.9-0.6-3.6-0.4-5.4,0.2c-1.2-1.2-2.7-2-3.3-3.9c2.1,1.1,4.3,0.9,6.4,1.1c12.2,1,24.4,1.9,36.6,2.8c21.2,1.6,42.5,3.2,64.2,4.8
		c2.5-1.7,3.7-4.5,3.5-7.8c-0.1-2-1.6-3.3-3.4-4c-1.1-0.1-1.9,0.3-2.8,0.8c-0.5-0.5-1.1-0.9-1.8-0.9c-33.7-2.3-67.4-4.5-100.8-6.8
		c-1.6,1.1-2.2,2.3-2.5,3.5c0.2,1.8,0.6,3.4,0.2,5.2c-2.8-4.5-1.5-8.1,3.9-11.4c2.5-0.1,4.9,1.4,7.7,0.8c-2.7-4.8-6.5-6.2-11.6-5.3
		C585.5,167.9,583.8,168.9,581.9,168.6L581.9,168.6z M520.3,224.6c1.8-1.4,2.4-2.8,2.7-4.3c1-6.1,0.6-12-2.8-17.5
		c-0.4-0.6-0.6-1.6-1.8-1.5c-0.1,2.8-1,5.4-1.4,8.2c-0.2,1.4-0.7,3,1.2,3.9c-1.7,2.7-1.9,5.5-1.2,8.8c2.2-2.4,3.6-4.8,2.9-7.8
		c0.5-0.4,0.9-0.6,1.5-0.4C522.1,217.4,521.3,220.8,520.3,224.6z M516.1,231.5c1,6.4-1.7,12.1-2.8,18.3c2.1,0.3,3.7,0.4,5.5-0.4
		c0.5-5.5,2.8-10.8,2.2-16.4C519.4,232.4,518.3,231.4,516.1,231.5z M518.8,225.2c0.8-1.5,1.2-2.8,1.3-4.7c-1.3,1.6-2.4,2.8-3.4,4
		c-0.2,0.2-0.3,0.6,0,1C517.3,225.8,517.9,225.3,518.8,225.2z M519.6,225.8c-1.6,0.6-2.6,1.1-1.8,2.8
		C519.1,228.1,519.2,227.2,519.6,225.8z"/>
	<path d="M810.2,563.4c-0.3,0.5-0.6,1-1,1.6c-3.5-0.6-6.9-1.2-10.3-1.8c-2.9-0.4-5.8-0.8-8.7-1.1c-0.9-0.1-1.9-0.2-2.8,0
		c-4.5,1-9.2,1.1-13.9,1.8c-0.6,3.9-1.1,7.7-1.7,11.7c4.9,0.9,9.4,2,14,2.7c7.5,1.2,15,2.6,22.5,3.2c17.6,1.3,34.7,5.5,51.9,9.1
		c2.6,0.6,5.2,1.4,7.7,2.3c1.6,0.6,3.1,1.4,3.6,3.2c-0.8,0.9-1.2,0.3-1.6,0c-2.8-1.9-6.1-2.4-9.2-3.1c-11.4-2.5-22.9-4.4-34.3-6.8
		c-5.8-1.2-11.6-1-17.4-1.7c-9.2-1.2-18.5-2.2-27.6-4.2c-2.6-0.6-5.3-0.9-7.9-1.4c-1-0.2-2.1-0.2-3.2-1.1
		c-1.9-5.2,1.2-10.2,1.5-15.6c3.3-0.4,6.3-0.8,9.2-1.1c0.3,0,0.7,0.1,1,0c9.1-2,17.8,0.2,26.6,2c0.6,0.1,1.1,0.2,1.7,0.3
		L810.2,563.4z"/>
	<path d="M487.4,347.1c-1.1,0.4-2.2,0.5-3.4,0.2c-4.4-1.1-8.9-1.6-13.4-2.2c-3-0.4-6-0.4-9,0.2c-3.5,0.7-7.1,0.9-11,1.3
		c-0.1,3.9-1.2,7.7-1.5,11.4c1.7,1.3,3.5,0.9,5,1.2c10.1,2.2,20.4,3.5,30.7,5c0.7,0.1,1.4,0.2,2.1,0.3c8.5,0.3,16.9,1.8,25.2,3.5
		c9.7,2.1,19.5,3.5,29,6.3c1.5,0.4,2.9,0.9,4.3,1.4c1.5,0.6,2.9,1.3,3.4,3c-0.6,0.7-1.1,0.3-1.6,0c-3.5-2.2-7.6-2.8-11.6-3.7
		c-11.9-2.4-23.8-4.7-35.7-7c-1.5-0.3-3-0.4-4.5-0.4c-8.3-0.1-16.5-1.6-24.7-2.6c-6.9-0.9-13.7-2.9-20.6-3.6
		c-0.9-0.1-1.9-0.3-2.6-1.1c-1.8-5.2,1.2-10.1,1.4-15.2c2.7-0.8,5.2-0.9,7.7-1.4c9.8-1.9,19.4-0.3,29,1.8c0.9,0.2,1.4,0.7,1.7,1.5
		L487.4,347.1z"/>
	<path d="M559.4,357.8c2.5,5.6,3.9,10.9,4.2,16.6c-2.4-1.8-2-4.6-2.8-7c-0.8-2.5-1.5-5.1-2.3-7.7c-10.5-1.2-20.7-3.6-30.9-5.9
		c-3.6-0.8-7.4-0.6-11-1.7c-1.2-0.3-2.5-0.4-3.3-1.7c0.7-0.6,1.4-0.4,2.1-0.3c9.5,1.7,19,3.3,28.5,5.2
		C549.1,356.4,554.3,357.5,559.4,357.8z"/>
	<path d="M881.2,576.9c-7.3-0.8-14.3-2.2-21.2-3.7c-6-1.4-12-2.7-18.1-3.3c-2-0.2-4-0.7-5.7-2.1c15.7,1.2,30.9,5.7,45.9,7.5
		c2.6,5.4,3.8,10.9,4.3,16.6c-2.5-2-2.2-4.9-3-7.5C882.6,581.9,881.9,579.3,881.2,576.9z"/>
	<path d="M275.3,397.5c-2.3-0.5-4.2,1.1-6.4,1c0-1.2,1.5-0.4,1.7-1.5c-3.8-0.7-7.6-1.2-11.3-2.1c-8.6-2.1-17.2-4.3-25.7-6.6
		c-1-0.3-2.5-0.3-2.5-2l0,0c1.4-0.2,2.7,0,4.1,0.4c6.7,1.8,13.5,3.5,20.2,5.3c5.3,1.5,10.7,2.2,16,3.3
		C273,395.7,274.6,395.9,275.3,397.5L275.3,397.5z"/>
	<path d="M520.8,357.9c7.5-0.3,17.3,1.1,22.3,3c0.2,4.4,2.3,8.5,2.5,13c-1.3-3.9-2.9-7.7-3.2-12.2
		C535.6,359.3,528.2,359.6,520.8,357.9z"/>
	<path d="M866,578.4c0.2,4.7,2.3,8.7,2.4,13.1c-1.1-4-2.9-7.8-3.2-12.2c-3.1-1.6-6.5-1.7-9.8-2.2c-3.3-0.5-6.7-0.9-10.1-1.3
		C850.1,574.9,861.1,576.3,866,578.4z"/>
	<path d="M472.6,288.7c-1.3,0.3-2.3,0.6-3.3,0.7c-2.3,0.3-4.3-1.2-4.5-3.3c-0.3-2.5,1.2-4.3,3.7-4.5c2.5-0.2,4.3,1.4,4.3,3.9
		C472.9,286.6,472.7,287.6,472.6,288.7z M471.2,285.7c0.1-1.4-0.6-2.3-2.1-2.5c-1.2-0.2-2.1,0.3-2.5,1.4c-0.5,1.3-0.2,2.5,1.2,3.3
		c0.5,0.3,1.1,0.4,1.6-0.1c-0.1-0.5-0.2-1.1-0.2-1.5C469.8,285.3,470.6,286.6,471.2,285.7z"/>
	<path d="M798.2,504.4c-1.2,0.3-2.2,0.6-3.2,0.7c-2.5,0.3-4.5-1.2-4.6-3.5c-0.1-2.5,1.5-4.3,3.9-4.3c2.5-0.1,4.1,1.5,4.1,4.1
		C798.4,502.3,798.3,503.2,798.2,504.4z M796.8,501.7c0-2.1-1-2.9-2.6-2.9c-1,0-1.8,0.5-2.1,1.5c-0.4,1.3-0.1,2.5,1.3,3.2
		c0.5,0.3,1.1,0.4,1.6,0c0.4-0.6-0.8-1.3,0.1-1.9C795.6,501.6,796.1,501.6,796.8,501.7z"/>
	<path d="M871,598.1c0.6-0.4,0.8-0.7,1.2-0.8c3.5-1,7.1-2.1,10.6-3.1c1.1-0.3,2.3-0.5,2.9,1C881,597.7,873.8,599.4,871,598.1z"/>
	<path d="M563,378.1c-4.9,1.4-9.3,3.4-14.1,3.5c-0.4-1.4,0.2-1.8,0.9-2c3.3-1,6.7-2,10-2.9C561,376.4,562.2,376.2,563,378.1z"/>
	<path d="M464.4,286.2c-1.4,3.3-2.8,4.4-5.2,4c-2-0.4-3.4-2.1-3.3-3.9c0.1-1.8,1.4-3.3,3.1-3.7C461.6,282,462.9,282.9,464.4,286.2z
		 M462.6,286.5c-0.2-1.8-1.1-2.7-3-2.5c-1.2,0.1-1.9,0.9-2,2c-0.2,1.3,0.5,2.3,1.7,2.7C461.1,289.1,462.1,288.1,462.6,286.5z"/>
	<path d="M790,501.8c-1.6,3.4-3.1,4.5-5.4,3.9c-1.8-0.4-3.1-1.9-3.2-3.7c0-1.7,1.2-3.4,3-3.9C786.9,497.6,788.4,498.5,790,501.8z
		 M788.2,502.1c-0.3-1.8-1.2-2.8-3-2.5c-1.2,0.1-1.9,0.9-2,2c-0.2,1.3,0.5,2.3,1.7,2.7C786.5,504.7,787.5,503.9,788.2,502.1z"/>
	<path d="M774.4,498.8c1.1-0.7,1.9-0.5,2.7-0.5c1.3-0.1,2.6-0.1,3.4,1.2c0.8,1.4,0,2.4-0.9,3.4c-0.1,0.9,0.9,1.3,0.9,2.2
		c-0.3,0.3-0.8,0.4-1.2,0.2c-0.9-0.5-1.1-1.8-2.4-1.9c-1.5,0.2-0.3,2.4-2.2,2.4C774.2,503.5,774.3,501.2,774.4,498.8z M776.3,501.7
		c1.2,0.2,2.3,0.3,2.8-1.4c-1.1-0.7-2-0.8-3.1-0.2C775.9,500.6,775.9,501,776.3,501.7z"/>
	<path d="M453.7,282.7c1.8,2.1,1.8,2.1,0.3,4.7c-0.1,0.8,1.1,1.2,0.8,2.2c-1.9,0.7-2-2.2-3.9-1.8c-1,0.3,0,2.1-1.4,2.3
		c-0.9-2.3-1-3.7-0.5-7.3C450.6,282.4,452.2,282.6,453.7,282.7z M453.9,284.6c-1.5-0.4-2.5-0.9-3.5,0
		C451.3,286.6,451.5,286.7,453.9,284.6z"/>
	<path d="M527,607.9c0.9-0.5,1.5-0.4,2-0.2c7.7,2.5,15.7,2.8,23.6,4.3c0.2,0,0.3,0.3,0.5,0.7C544.2,611.9,535.5,611,527,607.9z"/>
	<path d="M230.1,394.9c-12.1-0.8-22.1-2.7-26.3-4.9c5,0.1,9.1,2.2,13.5,2.7C221.6,393.4,226,393.3,230.1,394.9z"/>
	<path d="M487.3,347.3c0.8-3.8,2-7.5,1-11.5c-0.5-1.7-0.1-3.6-0.1-5.5l-0.1,0.1c0.1,0.1,0.3,0.1,0.3,0.2c-0.1,4.4,1.8,8.6,0.8,13
		c-0.5,2.1-0.3,4.4-0.5,6.6c-0.1,1.1,0,2.3-1.1,3.4c-0.6-2.3,0.2-4.4-0.2-6.4L487.3,347.3z"/>
	<path d="M534.2,605.6c4.2-1.1,8.6-1.1,13.6-1.5C544.5,606,536.9,606.6,534.2,605.6L534.2,605.6z"/>
	<path d="M224.1,387.2c-3.8,1.6-8,1.1-12,1.4C215.9,386.8,220,387.1,224.1,387.2z"/>
	<path d="M185.5,383.7c4.2,0.5,8.4,1,12.4,2.5C193.7,386,189.5,385.2,185.5,383.7z"/>
	<path d="M577.2,619.9c2.6,3.4,2.5,7.6,3,11.5C578.6,627.7,578.3,623.7,577.2,619.9z"/>
	<path d="M254.5,402.6c2.5,3.2,2.3,7.2,2.9,11C255.7,410.1,255.4,406.2,254.5,402.6z"/>
	<path d="M827.6,572.3c-4.9,0.3-9.1-0.5-13.2-1.6C818.6,571.2,822.9,571,827.6,572.3z"/>
	<path d="M492,353.6c4-0.5,7.4,0.6,10.9,0.6c0.7,0,1.3,0.3,2.2,0.9C500.6,354.9,496.5,354.8,492,353.6z"/>
	<path d="M509.1,601.3c4,0.2,7.9,1,11.7,2.4C516.9,603,512.8,603.3,509.1,601.3L509.1,601.3z"/>
	<path d="M251.7,401c-3.1-1-6.2-2-10.1-3.3C245.8,397.8,248.9,398.8,251.7,401z"/>
	<path d="M574.5,618.2c-2.8-0.9-5.5-1.6-8.2-2.6C569.6,615.1,572.1,616.7,574.5,618.2z"/>
	<path d="M462.7,201c1.8,1.3,2.8,3.3,5.1,4.8C464.6,205.2,463.6,204.2,462.7,201z"/>
	<path d="M490.5,244.9c-0.4,2.1-0.9,4.2-1.3,6.2C488.7,248.9,488.8,246.8,490.5,244.9z"/>
	<path d="M475.5,233.1c0.1-1.3,0-2.7,1.1-4C477,230.8,477,232.2,475.5,233.1z"/>
	<path d="M550.6,360.5c-2,0.9-3.2,1.9-5.3,0.5C547.1,360.2,548.5,360.3,550.6,360.5z"/>
	<path d="M868.7,578.1c1.4-0.2,2.9-0.4,4.6-0.6C871.1,579.2,871,579.2,868.7,578.1z"/>
	<path d="M457.4,347.4c1.2,0,2.5,0,3.7,0c0,0,0,0.1,0,0.1c-1.2,0-2.5,0-3.7,0C457.4,347.5,457.4,347.4,457.4,347.4z"/>
	<path d="M175.2,381.7c1.1,0,2.3,0,3.9,0C177.5,382.3,176.4,382.1,175.2,381.7z"/>
	<path d="M497,351c0.5-1,1.3-1.1,2.4-0.9C499,351.4,498,351.2,497,351z"/>
	<path d="M819.9,568.1c0.6-0.6,1.4-0.5,2.5-1.1C821.3,568.2,821.3,568.2,819.9,568.1z"/>
	<path d="M789.7,566c-0.8,0-1.6,0-2.4,0c0,0,0-0.1,0-0.1c0.8,0,1.6,0,2.4,0C789.7,565.9,789.7,565.9,789.7,566z"/>
	<path d="M502.5,258c0.3,1.1,0.3,1.8,0.1,2.6C502.1,259.5,502.1,259.5,502.5,258z"/>
	<path d="M501.7,599.4c-1,0.3-1.6,0.3-2.6,0C500,599.1,500.7,599.1,501.7,599.4z"/>
	<path d="M482.4,351.8c-0.7,0.2-1.3,0.1-2.3-0.2C481.1,351.4,481.8,351.4,482.4,351.8z"/>
	<path d="M472.3,208.9c-0.9,0.5-1.5,0.1-2.1-0.7C471.2,207.7,471.7,208.3,472.3,208.9z"/>
	<path d="M527.2,231.5c1.1-0.6,1.6-0.9,2.1-1.1C529.4,231.3,528.8,231.4,527.2,231.5z"/>
	<path d="M465.2,348.1c-0.8,0.3-1.3,0.3-2.2-0.1C464,348.1,464.5,348.1,465.2,348.1z"/>
	<path d="M509.2,601.2c-0.8,0.1-1.5,0.1-2.3-0.3C507.8,600.6,508.5,600.5,509.2,601.2L509.2,601.2z"/>
	<path d="M582,617.1c0.6-0.6,1-0.7,1.5-0.7C583.1,617.1,583.1,617.1,582,617.1z"/>
	<path d="M516.4,194.7c-0.6-0.6-0.4-1.2-0.1-1.8C517.1,193.5,516.7,194.1,516.4,194.7z"/>
	<path d="M803.2,568.7c-0.5,0.4-1.1,0.3-1.6,0C802.2,568.4,802.7,568.5,803.2,568.7z"/>
	<path d="M261,399.2c-0.6,0.6-1.1,0.7-1.7,0.4C259.7,398.9,260.3,399,261,399.2z"/>
	<path fill="none" d="M835.8,300.5c1.2,2.4,1.3,4.5,0.9,6.6c-2,10.1-5.3,19.8-9.4,29.2c-4.3,9.9-8.6,19.9-11.2,30.5
		c-1.5,6.1-4,11.9-5.5,18c-0.6,2.4-2.3,4.5-2.8,6.9c-3.2,0.1-5.5-2.3-8.6-1.6c2.6,1,5.2,2.1,8.1,3.3c-1.8,3.9-3.5,7.7-5.2,11.5
		c-1.8,4-3.8,8-3.7,12.6c0,1.3-1.1,2.2-1.3,3.5c1.4,0.1,1.7-1.1,1.8-1.9c0.4-4.3,2.4-8,4.1-11.7c2.5-5.5,4.8-11.1,7.1-16.7
		c4.6-11.6,8.1-23.5,11.6-35.4c0.7-2.6,1.7-5.1,2.9-7.5c4.7-9.5,8.8-19.3,12-29.4c1.5-4.6,2-9.3,2.4-14.1c0.1-2-0.6-3.6-1.7-5.1
		c-0.5-0.7-1.3-1.4-1.9-2c2-2.5,5.3-3.8,8-2.7c3.1,1.3,6.2,2.5,9.7,2.7c1.7,0.1,3.4,0.9,4.9,1.7c1.2,0.6,2.3,0.9,3.8,0.9
		c-0.1,1.2-0.4,2.3-1.4,2.7c-1.9,0.8-3.2,3.1-5.7,2.6c-0.6,0.7-1,1.5-1.2,2.4c-0.6,4.4-2,8.5-3.6,12.6c-2.7,7.1-4.2,14.5-5.7,21.9
		c-0.7,3.6,0,7.2-0.9,10.8c-1.5,6-2.9,12-5.2,17.8c-1.4,3.5-3,6.8-4.5,10.2c-1.7,4.1-2.6,8.5-2.9,12.9c-0.4,5-1.1,10-3.5,14.5
		c-0.2,0.3-0.3,0.6-0.3,1c-1,4.2-3,7.9-5.8,11.2c0.7,0.8,1.2-0.3,1.7,0.1c0.3,0.6,0.1,1.1,0,1.7c-1.5,5.5-3.8,10.8-6.3,15.9
		c-0.9,1.9-2.4,3.4-4.4,4.4c-4.9,2.5-9.5,5.5-14.1,8.5c-1.2,0.8-2.4,1.3-3.9,1.4c-2.7,0.1-5.3,0.7-7.7,1.4
		c-5.5-0.8-10.5-2.7-15.9-3.3c-0.2-1.7,0.5-2.9,1.3-4c2.7-4.3,4.5-8.9,5.7-13.8c0.9-3.8,2.8-7.2,4.5-10.6c2-4,4-7.9,6.2-11.7
		c1.1-2,3.2-2.9,5.2-4.1c1.9,1,3,3.3,5.4,3.8c0.6-1.6-0.5-2.4-1.4-2.7c-2.9-1.1-4.4-3.6-6.1-6.1c1-1.5,2.4-2.2,4.3-1.7
		c1.7,0.4,2.1,2.6,4.2,3c-1-2.1-1.6-4-3.7-5c0.2-0.9,1.2-0.7,1.6-1.4c0.3-0.8,0.1-1.5-0.5-2.2c-1.3,0-0.6,1.3-1.3,1.8
		c-1,0.3-2.1,0.7-3.2,1.1c-0.8,0.9-0.9,2.4-2.5,3.1c-2.4-2.1-4.8-4.4-7.4-6.6c-6.9-6.1-14.7-9.8-24.2-8.4c-4.8,0.7-9.5-0.5-14.2-1.3
		c-3.8-0.7-7.6-1.2-11.4-0.5c-1.7,0.3-3.3,1-5.3,1.6c-1-3.5-2-6.9-3.4-10.2c-1.5-3.5-4.1-5.7-7.4-7.2c1.7,3.2,5.1,4.9,6.4,8.5
		c1.2,3.3,1.9,6.7,2.8,10c-1.9,2.5-4.2,3.9-7.2,3.7c-3.5-0.2-6.9,0.6-10.3,1.6c-0.9,0.3-1.7,0.7-3.1,0.4c-2.6-6-3.6-12.7-5.3-19.8
		c0,0-0.6,0.4-1.1,0.1c-2.5-6.5-3.9-13.3-4.8-20.2c-0.6-4.9-0.9-9.8-1.3-14.6c-0.3-4.4-0.4-8.8,0.5-13.2c1.2-6.7,1.9-13.4,1.8-20.2
		c0-2.5,1-4.2,3-5.5c2.6-1.8,4.5-4.8,9-4.9c1.8,0.2,4.1,1.1,6.1,2.8c2.2,1.8,5,1.6,7.5,2.6c1,0.4,2.3,0.2,3.4,1
		c-2.5,1.9-5.3,2.5-8.2,3c-2.1,0.4-4.2,0.7-6,1.8c-1.2,0.8-2.4,0.5-3.5-0.3c-0.4,0.6-0.7,0.9-0.9,1.2c0.3,1,1,0.2,1.6,0.6
		c0.5,0.4-0.4,0.9-0.2,1.4c0.2,0.2,0.4,0.3,0.6,0.1c2-1.8,4.3-2.7,6.9-3.2c3.9-0.7,7.8-1.2,11.2-3.6c1.2-0.9,2.7-0.5,4.1-0.5
		c24,0.2,48.1,0.4,72.1,0.6c10.2,0.1,20.3,0.1,30.5,0.2C833.4,300.5,834.5,300.5,835.8,300.5z M800.2,396.3c1.1,0.9,1.1,0.9,2.1,0
		c-0.6-0.1-1.2-0.2-1.7-0.3c0-0.9,0.3-1.9-1.2-2C798.8,395,798.8,395.9,800.2,396.3z M717.5,365.8c0.3,0,0.6-0.1,0.9-0.1
		c-0.5-3.5-0.9-7.1-1.4-10.6c-0.9-7.1-2.9-13.9-5.5-20.5c-1.2-3-1.9-5.9-2.1-9c-0.5-5.9-2-11.5-3.2-17.3c-1.4,0.5-1.1,1.4-1,2.1
		c0.4,3.1,0.7,6.2,1.8,9.2c0.6,1.7,0.8,3.4,0.8,5.1c0.1,3.6,0.3,7.2,1.8,10.6c1.4,3,2.3,6.1,3.1,9.2c1,4.3,1.8,8.6,2.8,13
		C716.2,360.3,716.9,363,717.5,365.8z M795,431.7c-1.1,1.3-1.8,2.8-2.2,5.1C794.4,435,795.3,433.6,795,431.7z M817.7,380.4
		c0.3-2.1,0-3.1-1.3-4C815.5,378.1,816.6,378.8,817.7,380.4z M850.3,310.8c0.5-1.4,1.4-2.2,0.6-3.5
		C849.9,308.2,850,309.1,850.3,310.8z M797.9,389.9c-1.2,0.7-1.7,1.4-1,2.6C797.3,391.7,798.4,391.3,797.9,389.9z M831.7,369.6
		c-0.1-0.3-0.3-0.4-0.5-0.1c-0.5,0.6-1.3,0.9-1.2,2.1C830.8,371.1,831.3,370.4,831.7,369.6z M848.9,305c-0.8-1.5-1.6-1.9-2.9-1.7
		C846.7,304.2,847.4,304.6,848.9,305z M699.3,299.6c-0.4,0.6-0.8,1-0.2,2.4C699.4,300.9,700.1,300.5,699.3,299.6z M713.7,364.1
		c0.5,0.9,0.8,1.6,1.7,1.6C715.1,365,715.2,364.1,713.7,364.1z M793.7,423.3c1.1-0.2,1.6-0.5,2.2-1.1
		C794.7,421.7,794.2,422.2,793.7,423.3z M788.1,415.5c0.9,0.4,1.2,1.2,2,0.5C789.7,415.6,789.4,415,788.1,415.5z M790.3,422.3
		c-0.8-0.6-1.5-0.5-2.6,0.3C788.8,422.6,789.4,423.1,790.3,422.3z M817.3,423.4c1.1-0.1,1.6-0.3,1.7-1.3
		C818.1,422.1,817.7,422.4,817.3,423.4z M836.5,363.7c-0.5,1.1-1.4,1.3-0.8,2.2C836.2,365.6,836.7,365.3,836.5,363.7z"/>
	<path fill="none" d="M645,478.5c0.3,4.6,0.6,8.6,2,12.3c2.9,8.1,4.2,16.5,4.1,25c0,3.8,0.6,7.7-0.5,11.5c1.5,4.9-0.7,9.4-1.2,14.1
		c-1.1,9.2-3.3,18.4-3.2,27.8c0.1,7.6-0.5,15.1-0.1,22.7c0.2,4.1-0.1,8.3-1.3,12.2c-1.6,1.5-3,2.8-4.6,4.2c-0.7,0.2-1.2-0.2-1.9-0.9
		c0.5-1.2,1.1-2.6,1.6-4c-2.1-5.1-7.1-3.6-10.9-5.1c0,0.1-0.2-0.2-0.2-0.3c0.7-11.2-0.9-22.4-0.7-33.6c0.1-5.5-1.3-10.9-3-16.1
		c-3.4-10.9-5.9-22-7.9-33.3c-0.9-5.4-0.7-10.6-1-16c1.4,0.2,1,1.5,1.8,2.5c-0.3-3-0.2-5.4-2-7.9c-1.6-2.2-2-5.2-3.1-7.7
		c-0.7-1.7-1.5-3.4-2-5.2c-1.8-6.4-1.3-12.7,1-18.8c0.3-0.8,1-1.6,1.5-2.3c3-3.9,6-7.8,8.2-12.1c1-2,2.7-3.5,4.3-5.1
		c4.7-4.6,9.4-9.1,14.1-13.5c2.4-2.3,5.6-2.9,8.8-2.7c3.3,0.2,6.5,0.5,9.7,1.2c3.3,0.7,6.1,2.8,8.7,4.9c3.4,2.8,6.3,6.3,8.2,10.3
		c1.7,3.6,2.3,13.3,0.9,16.9c-1.3,3.4-3.8,5.9-6.6,7.9c-5.4,3.9-11.2,7.1-17.7,8.9c-1.1,0.3-2.1,0.9-3,1.7
		C648.3,478.7,647.1,479.6,645,478.5z M626.4,479.5c2.9-3.6,3.5-6.6,1.6-9.1C627.2,471.8,626.5,475.6,626.4,479.5z M612.5,469
		c-0.7,2-0.6,3.9,0.3,5.8C613.1,472.9,613.5,470.9,612.5,469z M643.3,593.4c0-2.5,0.4-5.2-0.7-7.7
		C643.2,588.3,642.7,590.8,643.3,593.4z M621.6,466.7c1.4,1,1.6,3.3,4,3.7C625.2,467.8,623.4,467.2,621.6,466.7z M643.3,602.3
		c1.4-1.7,0.8-3.4-0.1-5.3C642.7,598.9,642.5,600.6,643.3,602.3z M622.2,518.6c0.2-1.6,1-3.4-0.7-5.4
		C621.3,515.5,621.7,517.1,622.2,518.6z M644.4,539c-0.3,1.5-0.6,2.9,0.4,4.5C645.7,541.6,645,540.3,644.4,539z M615.1,481.6
		c-0.5-1.2-0.7-2.6-2.4-3.6C613.2,479.9,613.9,480.9,615.1,481.6z M644.6,553.8c-0.2,1.3-0.3,2.6,0.1,4.6
		C645.1,556.4,644.9,555.1,644.6,553.8z M625.3,485.9c-0.1,0.1-0.4,0.2-0.4,0.3c0,0.2,0.1,0.5,0.3,0.5c0.4,0.2,0.6-0.1,0.5-0.5
		C625.7,486.2,625.5,486.1,625.3,485.9z M644.5,476.5c0.3-0.5,0.7-0.9,0-1.8C644.4,475.4,643.7,475.6,644.5,476.5z"/>
	<path fill="none" d="M598.2,614.6c-1.4-1.5-3.2-1.8-5.1-2.1c-5.1-1-10.4-1.7-15.4-3.2c-6.6-2-13.3-3.4-19.9-5.3
		c-1.1-0.3-2.2-0.5-3.6-0.8c0.2-4.8,0-9.6,1.2-14.4c2.1-8.5,2.8-17.2,4-25.9c0.6-4,1.3-8,1.9-12.1c0.2-1.4,0.7-2.7,1.2-4
		c1.9-5.2,5.3-8.4,10.9-9.6c5-1.2,10.1-1.9,15.2-2.4c6.2-0.6,12.3-1.4,18.3-2.6c3.6-0.7,7.2-0.7,10.9-0.2c1.1,4.4,1.9,8.9,3.4,13.1
		c3.8,10.4,4,21.2,4.3,32c-1.7,7.1,0.4,14.3-0.6,21.8c-0.7,0.7-2.4,1.1-3.1,2.7c0,0.5-0.2,1.1,0,1.6c0.8,1.9,0.2,3.6-0.9,4.9
		c-1.9,2.3-3,5-4.8,7.2c-2.5,3-5.5,5.7-8.6,8.1c-1.1,0.8-2.4,1.4-3.5,2.7c-2-3.3-3.5-6.5-4.6-9.9c-0.3-0.9-0.3-1.9-1.6-2
		L598.2,614.6z"/>
	<path fill="none" d="M803.3,450.2c0.2,1.5,1.3,1.4,2.4,1.4c6.8-0.3,13.5-0.9,20.2-1.8c4.3-0.6,8.6-0.8,12.9-1.1
		c1.9-0.1,3.2,1.1,5,1.6c0.5,5.8-1.7,11.1-2.3,16.4c-1.2,0.8-2.2,0.8-3.3,0.8c-11,0.1-21.8,1.8-32.8,2.6c-5.9,0.4-11.9,0.9-17.8,1
		c-16,0.3-32,1-47.9,2.3c-10.6,0.9-21.1,2.3-31.6,3.6c-11.5,1.4-22.9,2.8-34.4,3.6c-8.3,0.6-16.7,1.6-25.1,3.5c-1-0.5-1-1.8-1.3-2.8
		c0.2-0.5,0.5-1,0.9-1.1c5.8-1.3,11-4.6,16.7-6.2c1.5-0.4,2.6-1.6,3.4-2.9c1.2-2.1,3.1-3,5.3-3.5c-0.3,3.1-1,6.1-0.2,9.3
		c1-2.8,1-5.7,0.9-8.7c0-0.2-0.5-0.4-0.8-0.5c1.8-1.4,3.6-2.8,6.1-1.4c0.3-0.6,0.9-0.8,1.6-0.9c3.7-0.7,7-2.5,10.2-4.5
		c1.2-0.8,2.5-1.2,3.9-1.3c6.5-0.4,13-0.8,19.4-2.2c-6.4-0.3-12.7,1.2-19.5,0.4c1.8-1.8,3.2-3.5,4.1-5.3c3.8-1,7.4-0.9,11-1.2
		c6-0.5,12-1.4,18.1-1c0.9,0.1,1.8-0.2,2.7-0.5c1.4-0.6,2.8-0.5,4.1,0.1c3.6,1.5,7.4,1.9,11.2,2.3c6.7,0.8,13.5,1,20.2,1.1
		c0.9,0,1.8-0.1,2.8-0.2c2.7-0.3,5.3-0.4,7.8,0.8c3.7,1.7,7.7,1.4,11.9,1.3c0.5,2-0.1,4.2,1,6.2c0.1-2.2,0.2-4.2,0.3-6
		c0.4-0.3,0.6-0.6,0.7-0.6c4.5-0.1,8.1-2.6,11.7-4.8C803.1,450,803.2,450.1,803.3,450.2z M749.8,455.2c-2.6-0.1-5.1-0.7-7.6-0.6
		c-2.4,0-4.9,0.2-7.3,0.3c-2.4,0.1-4.8,0.2-7.3,0.3C735,456.1,742.4,455.2,749.8,455.2z M708,459.5c-1,3-1,6.2-1.1,9.3
		C708,465.8,707.7,462.7,708,459.5z M721.7,459.6c0,1.3-0.7,2.7,0.8,3.7C722.2,462,721.9,460.8,721.7,459.6z"/>
	<path fill="none" d="M513.9,464.2c1.4-1.6,1.4-3.9,2.6-5.8c4.6-3.2,9.1-6.7,13.4-10.5c4.6-4.2,9.7-7.9,15.8-10.2
		c5.2-2,10.1-4.8,15-7.6c7.8-4.4,16.1-7.4,24.7-9.7c8.1-2.1,16.1-4.7,24.3-6.4c1.5-0.3,3-0.5,4.5-0.6c4.1-0.2,7.4,1.5,9.8,4.9
		c2.3,3.3,4.3,6.7,5.3,10.5c0.5,1.8,0.8,3.7,2.2,5.2c-6.8,5.5-11.4,12.6-15.7,20c-4.4,1.2-8.8,1.8-13.2,1.6
		c-6.7-0.3-13.3,0.7-19.9,1c-4.8,0.2-9.7,0.4-14.5,0.4c-2.5,0-5.1,0.6-7.6,0.9c-4.6,0.4-9.3,0.9-13.9,1.1c-4.6,0.2-9,1.1-13.3,2.7
		c-3.2,1.1-6.6,1.4-9.5,3c-1.2,0.1-1.4-1.5-2.5-1.2c-1.2,1.8-1.2,1.8-0.6,4.5c-4.4,2-2.7,6.4-3.6,10.4c-1.4-5.1-3.3-9.5-3.1-14.4
		L513.9,464.2z M613.3,425.1c-1.2-0.1-1.9-0.4-2.4,0.3C611.5,425.5,612.2,425.5,613.3,425.1z M624.1,423.9c-0.6-0.5-1.1-0.6-1.6,0.1
		C623.1,424.2,623.6,424.3,624.1,423.9z"/>
	<path fill="none" d="M707.2,441.6c1.4-1.9,2.6-3.9,3.4-6c1.6-0.1,3.1,0.9,4.7-0.4c-1.4-1-3-0.2-4.5-1.1c1.1-1.4,3.4-2.3,2.1-5.1
		c-1.3,2.6-3.4,4.4-4.7,6.8c-0.3-1.9,0.5-3.8,0.1-5.7c-1.1-5.4-2.7-10.7-6.5-14.9c-3.5-3.9-6.3-8.4-10-12.1c-1.5-1.5-2.9-2.6-5-2.9
		c-5.4-0.9-10.8-1.9-16.3-2.3c4.3-1.4,8.3-3.7,13.1-3.5c8.3,0.3,16.6,0.2,24.8-1.2c1.8-0.3,3.7-0.7,5.5-1.2c3.6-0.8,7.3-1.3,11.1-1
		c5.3,0.4,10.7,0.9,16,1.9c9,1.7,14.9,8.8,15.3,17.9c0.1,3.1-0.3,6-1.4,8.9c-1.6,4.3-3.2,8.5-4.7,12.8c-2.4,6.9-7.4,11.4-13.9,14.7
		c-7.1-2.1-14.5-2.9-21.5-5.6c-2.3-0.9-5-1-7.6-0.3L707.2,441.6z M700.2,399.2c-2.5,0.3-5.1,0.6-7.4,1.7
		C695.5,401.2,697.9,400.6,700.2,399.2z M706.1,397.8c1-0.3,1.9-0.2,1.9-1.4C707.2,396.4,706.5,396.6,706.1,397.8z M745.5,412.8
		c0.5-1.2,0.2-1.9-0.8-2.3C744.3,411.4,744.5,412.1,745.5,412.8z M715.2,421.4c-0.3,0.8-0.3,1.3,0.4,1.7
		C716,422.5,716.1,422,715.2,421.4z M749.8,406.4c0.2-0.9,0.3-1.5-1.1-1.7C749.1,405.4,749,406,749.8,406.4z M751.6,412.8
		c0.2,0.6-0.7,1.3,0.5,1.8C752.2,413.9,752.2,413.3,751.6,412.8z"/>
	<path fill="none" d="M701.7,442.3c-2.1,3.8-4.1,7.5-6.2,11.2c-1.5,2.6-3.7,4.5-6.4,5.8c-3.7,1.8-7.3,4-11.7,4.2
		c-0.1-1.1,0.8-1.6,1.1-2.4c1.5-3.6,2.1-7.2,0.7-10.9c-0.4-1-0.4-2-0.5-3.1c-0.3-4.4-1.1-8.5-4.7-11.6c-1.3-1.1-2.1-2.9-3.4-4
		c-4.7-3.9-9.8-7.2-16.2-7.5c-1.6-0.1-3.2-0.4-5.3-0.6c4-3,8.7-3.9,12-7.2c-1.2,0-6.3,1.3-7.4,2c-2.7,1.6-5.6,2.9-8.1,4.9
		c-2.1,1.7-4.8,1.6-6.9,3.2c-1.5-1.5-2.9-2.8-4.3-4.1c-0.1,0.1-0.2,0.2-0.3,0.3c1.2,1.6,2.5,3.2,3.8,4.9c-1.6,1.7-3.1,3.3-4.7,5
		c-2.8-7-5.2-14.1-11.6-18.7c2.8-2.1,6.1-2.3,9.2-3.2c7.4-2.2,14.4-5.2,21.6-8.2c5.2-2.2,10.7-2.8,16.4-2.2c5.8,0.6,11.6,1,17.3,2.3
		c0.6,0.1,1.1,0.3,1.8,0.4c1,1.8,2.6,3.2,4.2,4.6c4.6,4.2,8.1,9.3,11.2,14.6c1.7,2.8,2.1,6.4,2.2,9.8c0.1,2.8-0.4,5.6-0.7,8.3
		C704,441.1,703.1,442.2,701.7,442.3c-0.9-2.6-1.2-5.5-3.3-7.6c0.5,2.1,1.2,4.2,1.9,6.3C700.5,441.7,701,442.2,701.7,442.3z
		 M702.4,440.2c-0.1-2.9-0.2-5.7-1.3-8.4C700.9,434.7,701.6,437.5,702.4,440.2z M665.6,413.4c0.9-0.1,1.2-0.3,1.2-1
		C666.1,412.2,665.7,412.4,665.6,413.4z"/>
	<path fill="none" d="M613.2,457.1c-2.8,2.6-4.9,5.5-6.2,9.1c-0.2,6.4,0,12.8,2.1,19.4c-4.5,0.1-8.7,0.7-12.9,1.5
		c-6.8,1.3-13.7,0.9-20.5,2.2c-3.9,0.8-7.8,0.6-11.8,0.3c-4.9-0.3-9.8-0.6-14.7-0.8c-3-0.2-6.1-0.1-9.1-0.7c-1-0.2-2.1-0.3-3.1-0.1
		c-3.3,0.9-6.4-0.2-9.9-1.1c0.2-5.6,0.5-11.2,0.7-16.9c4.7-1.2,9.4-0.4,14-0.8c-6.2-1.6-12.5-0.4-19.3-0.8c1.4,1.8,3,1,4.5,1.7
		c-0.8,5.3-0.7,10.7-0.9,16.3c-2.5,0-4.8,0-7.3,0c1.3-5.3,1.2-10.7,1.2-15.7c2.1-3.7,5.3-5.1,8.9-6.1c7.5-2,15.1-2.8,22.8-3.2
		c4.5-0.2,9-1,13.5-1.9c4.7-0.9,9.3-1.8,14.2-1c4.3,0.7,8.6,0.3,12.9-0.3c2.2-0.3,4.4-0.5,6.6-0.4
		C603.7,458.1,608.4,458.1,613.2,457.1z M575.6,471.7c-2.1,0-4.3-0.2-6.4,0.5C571.3,472.3,573.5,472.8,575.6,471.7
		c1.1-0.1,2.3-0.1,3.5-0.1C577.9,471.4,576.7,470.8,575.6,471.7z M561.6,470.5c-3.5-0.2-7-0.5-11.1-0.8
		C553.7,471.3,557.3,471.6,561.6,470.5z M591,469.8c2.6-0.3,5.5,0.1,8.5-1.3C596.2,467.9,593.6,468.7,591,469.8z M530.5,481.5
		c0.2,0,0.5,0,0.7,0c-0.1-2.6,1.2-5,0.6-7.7C531.4,476.4,530.9,478.9,530.5,481.5z M605,478.9c0.6-1.6,0.5-3.3,0.3-5
		C604.8,475.6,604.3,477.2,605,478.9z M604.1,469.8c0.2,0.7,0.4,1.3,0.6,1.8C604.8,471.1,605.2,470.3,604.1,469.8z M567.5,487.9
		c0.3-0.5,0.2-1,0-1.6C567.5,486.9,567.5,487.4,567.5,487.9z M544.6,473.9c0,0-0.1,0-0.1,0c0,0.4,0,0.8,0,1.3c0,0,0.1,0,0.1,0
		C544.6,474.7,544.6,474.3,544.6,473.9z"/>
	<path fill="none" d="M849.3,289.7c3.5-0.9,7-1.4,10.7-1.4c16.3,0.1,32.7,0,49,0c1.3,0,2.5,0,3.6,0c1.6,2.1-0.8,3.4-0.4,5.1
		c0.3,1.6,0.5,3.2,1,4.7c-0.8,1-1.8,0.6-2.6,0.6c-15.2-0.1-30.3-0.2-45.5-0.3c-3.4,0-6.7-0.1-9.7-2.2c-1-0.7-2.3-1.1-3.6-1.1
		c-2.2-0.1-4.3-0.7-6.3-1.9c-2.9-1.7-5.9-0.9-8.7,0.3c-1.7,0.7-2.2,2.1-2.2,4.3c-1,0.6-2,0.3-3,0.3c-35.5-0.3-70.9-0.5-106.4-0.8
		c-4.4,0-8.4-1.1-12.1-3.6c-5.3-3.6-9.6-2.9-14.3,1.7c-1.4,1.4-3.2,1.8-5.1,1.7c-8-0.1-16.1-0.2-24.1-0.3c-4.5,0-9.1,0-13.7,0
		c1.4,2.1,1.4,2.1,5.6,2.7c-0.8,0.6-1.4,1.2-2,1.7c-4,1.3-9.5-0.8-11-4.1c-2-4.3-0.4-10.7,3.2-12.9c3.5-2.1,9.1-1.3,12,2
		c-2.1,0.3-3.9,0.6-5.7-0.4c-1,1.3-3,1.7-3.5,4c1.5-1.3,3-1.1,4.5-1.1c13.2,0,26.4,0,39.5-0.1c2.3,0,4.5,0.9,6.8,1.1
		c1.1,0.1,1.8,0,2.2-1l-0.1,0.1c1,0.2,2,0.4,3.3,0.7c2.3-0.9,5-0.9,7.7-0.9c38.7-0.1,77.5-0.2,116.2-0.4c2,0,4,0,5.6,0
		c1.5,0.4,1.7,2.1,3.4,2.3C845,289.7,847.6,292,849.3,289.7L849.3,289.7z"/>
	<path fill="none" d="M790.9,404.7c-3.3,1.7-5,5.2-7.1,8.4c-3.1,4.8-5.7,10-7.4,15.4c-1.9,6.3-4.6,12.2-6.7,18.3
		c-0.6,1.7-1.4,3.1-3.3,4.1c-9.2-0.4-18.6-0.6-28.7-2.5c4-1.7,6.6-4,9.1-6.4c1.3-1.3,2.5-2.8,2.8-4.7c0.1-0.8,0.5-1.5,1-2.2
		c3.6-5.7,5.7-12,7.5-18.4c0.5-1.7,0.9-3.4-0.1-5.1c-0.3-0.5-0.1-1.1-0.1-1.7c-0.2-5.7-0.8-7.4-4.3-11.9c0.2-0.4,0.4-0.7,0.6-1.1
		c-0.7-0.9-1.7-1.4-2.6-1.6c-1.6-0.5-3-1.3-4.3-2.2c-1.8-1.2-3.7-1.8-5.9-2c-4.3-0.4-8.6-0.9-12.9-1.3c-1.3-0.1-2.7-0.4-4.4-0.6
		c2.9-2.5,6.1-3.5,9.2-3.9c4.1-0.5,8.2-0.6,12.4,1c3.6,1.4,7.6,0.9,11.4,0.7c9.7-0.6,18.5,1.7,25.5,8.9
		C785.4,398.6,788,401.6,790.9,404.7z M745,447.2c-0.7,0.1-1.3,0.2-1.5,1C744.3,448.2,744.9,448,745,447.2c0.8,0.1,1.4-0.4,1.9-1.3
		C745.9,446,745.4,446.4,745,447.2z M747.5,445.2c1.7-0.5,2.3-1.1,3.1-2.1C749.2,443.4,748.7,444.1,747.5,445.2z M760.7,400.9
		c-0.2-0.9-0.4-1.5-1.5-0.9C759.5,400.4,759.7,400.9,760.7,400.9z"/>
	<path fill="none" d="M517.4,488.1c7.8,1.2,15.2,2.8,22.5,3c0.7,0.5,0.7,1,0.7,1.4c-0.6,14.1-1.7,28.1-3.2,42.2
		c-0.7,6.3-1,12.5-0.9,18.8c0,5.4,0,10.7-1.1,16.8c-0.3-3-0.5-5.2-0.7-7.7c-0.5,4.3-1,8.2,0.4,12.2c0.6,1.6,0.1,3.7,0.1,5
		c-1.4,2.2-4.4,2.8-4.3,5.7c2.5,0.3,2.5-1.8,3.9-2.4c0.5,1.7-0.5,3-0.6,4.6c-3.8,1-7.3,0.9-10.9-0.7c-0.2-1.9,0.9-3.4,0.4-5
		c-0.4-1.5-0.9-2.9-1.3-4.1c-1.1-1.2-2.7-0.8-3.8-1.8c0-4.5,0.7-8.9,1.2-13.4c0.7-6.3,0.7-12.6,0-18.8c-0.3-2.9-0.5-5.8-0.4-8.7
		c0.3-6.9-0.7-13.7-1.7-20.5c-1.2-8.4-1.3-16.7-0.7-25.1C517.1,489.1,517.3,488.7,517.4,488.1z M532.7,498.1
		c-2.1,2.2-2.3,4.3-2.4,6.6C531.5,502.8,532.7,501,532.7,498.1z M530.1,516.7c0.5-1.2,0.9-2.3-0.2-3.7
		C529.2,514.5,529.4,515.6,530.1,516.7z M534.6,556.6c0.4-0.6,0.3-1.2-0.1-2.1c-0.3,0.6-0.5,0.9-0.6,1.2
		C533.8,556.1,533.9,556.5,534.6,556.6z"/>
	<path fill="none" d="M917.3,282.7c2.4-0.5,4.6-1.4,7.1-1.8c4.5-0.9,7.2,1.5,10,4.8c-1.6,0.5-3,0.7-4,0.1c-1.5-0.9-2.8-1.1-4.2-0.2
		c-1.7,1.2-3.7,2.3-4,4.6c-0.3,2.3-0.4,4.6,0.9,6.8c0.8-0.4,0.5-1,0.4-1.4c0-0.5-0.2-0.9-0.3-1.4c-0.5-2.8-0.5-2.8,1.8-5.9
		c33.7,0,67.7,0,101.7,0c0.5,0,0.7,0.6,0.9,0.9c1-0.4,1.7-1.2,2.8-1.3c5.3,2.5,5.5,7.9,0.8,11.9c-12.3-0.1-24.3-0.2-36.2-0.3
		c-22.2-0.2-44.3-0.4-66.5-0.5c-1.5,0-3,0.2-4.5-0.6c0.6,1.9,2.2,2.7,3.7,3.8c1.6-0.4,3.2-1.3,5-0.3c-0.8,1.9-2.2,2.5-4.1,2.7
		c-3.7,0.4-7.2-0.3-10.7-1.2c-5.3-5-5.8-13.5-0.3-20.6L917.3,282.7z M1026.2,294c0.2-0.1,0.4-0.2,0.5-0.3c0.2-0.4,0.5-1-0.4-0.8
		C1025.9,293,1025.9,293.6,1026.2,294z"/>
	<path fill="none" d="M478.3,597.1c2.9-1.8,6-2.9,9.4-3.1c2.3-0.2,4.5-0.9,6.6-2.2c2.5-1.5,5.5-1.6,8.1-2.8c0.9,0.1,1.6,1,2.6,0.8
		c0.5-0.2,0.8-0.5,0.9-1c0.2-0.7-1.1-1-0.2-2c2.3,0.4,4.4,4.1,7.2,1.4c0.2-1.3-1-1.6-1.1-2.4l0,0c1.1-0.2,2,0.6,3,0.8
		c0.8,0.1,1.6,0.2,2.2-1c-0.5-2.3-3-2.1-4.5-3.2c0-1,0.5-1.9,1.3-2.8c2.3-0.2,4.6-1.4,7,0.6c-1.4,3.6,0,6.4,2.7,9
		c2.7,2.6,6.1,2.4,9.7,2.3c0.5,2.3-0.4,4.4-0.5,6.4c-0.9,0.8-1.7,0.3-2.5,0.1c-5.4-1.1-10.5-3-16-3.4c-1.3-0.1-2.4-0.6-3.3-1.8
		c-7.2,2.2-14.8,1.5-22,3.6c-0.6,4.1-1.1,7.9-1.6,12c-3.8-0.6-7.3-0.9-10.8-2.5c0.6-3.1,1.1-6.1,1.6-9L478.3,597.1z"/>
	<path fill="none" d="M592.4,297c-1.4-1.2-1.6-2.7-1.4-4.3c0.2-2.3,1.6-3.5,3.8-3.7c0.6,0,1.2,0,1.7,0c15.2,0,30.5-0.1,45.7-0.1
		c1.3,0,2.6-0.3,3.8,0.3c0.1,2.4-1.3,4.7-0.1,7.1c-1.3,0.8-2.6,0.4-3.9,0.4c-14.9-0.1-29.8-0.2-44.7-0.2
		C595.7,296.5,594,296.4,592.4,297z"/>
	<path fill="none" d="M827,444.1c0,0.9-0.5,1.5-1.4,1.7c-0.8,0.2-1.8,0.2-2.5,1.3c8.2,0.8,14.9-1.7,19.5-9.2
		c0.4,2.2-0.9,3.5-0.9,5.1l0.1-0.1c-1,0-2.2-0.2-2.7,0.8c-0.8,1.3-0.1,2.5-0.6,4c-4,0.1-8.2,0.5-12.3,0.8c-7,0.6-13.9,1.3-20.9,1.3
		c-0.7,0-1.4,0.2-2.1,0.4c-0.1-0.1-0.2-0.2-0.3-0.3c2.4-2.3,5.6-3.3,7.9-5c5.9,0.3,10.4-1.7,14.3-6c-1.5-0.5-2.2,1.5-3.4,0.3
		c0.6-1.9,2.1-3.5,1.7-5.9c3.5-1.4,7.4-1.2,10.1-3.9c2.5-2.5,4.8-5,7.3-7.7c0.1-0.9,0.2-1.9,0.3-3c1.3,0.1,1.5,1.1,2,1.8
		c3.2,5.4,3.6,11.2,2.5,17.2c-0.3,1.4-0.8,2.9-2.5,3.8c0.7-3.5,1.6-6.8,0.8-10.1c-0.7-0.2-1-0.2-1.4,0.3c0.8,3.4-1,5.9-3.4,8.3
		c-3.1,3.1-6.7,5.3-11.5,5.7c9.6-6.8,12.6-10.5,12.7-16.2c-4.1,5.4-6.9,11.5-13.5,13.9c0-1.3,1.2-1.6,1.9-2.3c1-0.8,2-1.7,2.4-2.9
		c0.3-1,0.2-1.9-1.4-1.7c-0.3,3.3-3.2,4.1-5.5,5.4c-2.4,1.4-5,2.3-7.8,3.5c2,0.2,3.6,0.3,5.2,0.5C823.2,444.9,825.2,444.7,827,444.1
		z"/>
	<path fill="none" d="M823.5,428.3c3.3,2,5.6,1.5,8.3-1.9c0-1.8,0-3.7,0-5.7c-1.4,0.8-2.3-0.1-3.4-0.6c-0.1-1.8,1.6-2.9,1.1-4.9
		c-1.6,1.6-1.9,3.7-3.2,5.2c1,1.2,2.8,0.9,3.5,2.2l0.1-0.1c-1.7,0.3-3.1-0.9-4.7-0.8c-0.5-1.7,0.5-3.1-0.1-4.5
		c0.9-0.8,1.5-1.4,1.9-1.7c0.8-3.9,3-7,4.3-10.4c0.7,3.7,0.9,7.4,0.7,11.1c1.9-4.6,1.7-9.3,0.6-14.8c2.3,3.3,1.7,6.5,2.4,10
		c1.2-3.8,1.7-7.1,0.4-10.4l-0.1,0.1c0.4-0.1,0.8-0.3,1.4-0.4c2,3.2,1.3,6.9,2,10.2c0.8,3.3,0.5,6.6,0.9,9.9c-0.4,0.8-1-0.2-1.7,0.5
		c-3.2,6.1-8.5,9.8-16.1,10.8C822.3,430.4,822.2,429.1,823.5,428.3L823.5,428.3z M833.8,423.3c0.6-1.1,1.4-1.8,1.2-3.3
		c-0.6,1-0.9,1.5-1.2,2.1C833.6,422.3,833.4,422.6,833.8,423.3z"/>
	<path fill="none" d="M707.1,441.5c0.6,1.5,2,1.5,3.2,1.5c4.4,0.2,8.1,2.5,12.3,3.6c-7.2,0.9-14.3,1.5-21.7,2.6
		c0.2-2.3,1-3.9,2.6-5.1c1.2-0.9,2.5-1.7,3.7-2.5L707.1,441.5z"/>
	<path d="M827,444.1c-1.8,0.7-3.9,0.8-5.4,2c-1.6-0.2-3.2-0.3-5.2-0.5c2.8-1.2,5.5-2.1,7.8-3.5c2.2-1.3,5.2-2.1,5.5-5.4
		c1.6-0.2,1.7,0.7,1.4,1.7c-0.4,1.3-1.4,2.1-2.4,2.9c-0.7,0.7-1.9,1-1.9,2.3C827,443.7,827,443.9,827,444.1z"/>
	<path fill="none" d="M849.4,289.7c-2.3-0.2-4.5-0.4-6.9-0.5c2-4,2.5-4.6,4.9-4.7c0,0.5-0.3,0.8-0.7,1.1c-0.3,0.3-0.5,0.7-0.8,1
		c0.2,0.6,0.5,0.5,0.8,0.3c1.7-1,2.9-3.2,5.7-2.6c-0.7,0.5-1.3,1-2.1,1.5C850.5,287.2,850.2,288.5,849.4,289.7L849.4,289.7z"/>
	<path fill="none" d="M813.5,443.5c3.3-3,5.8-6.5,7.6-10.3c0.6-0.5,1-0.1,1.5,0.2c-0.2,1.1-0.8,2-1.3,3
		C818.5,441.5,816.9,443,813.5,443.5z"/>
	<path fill="none" d="M718.7,285.8c-2.7,0.6-5.2,1.5-7.7,2.6c-0.7-0.3-1.4-0.7-2.2-1.1c1.6-1.1,3.1-1.9,4.8-2.5
		C715.3,285.2,717,285.5,718.7,285.8z"/>
	<path fill="none" d="M647.8,610.4c-0.4,1.1-0.8,2.1-1.3,3.6c-1.4-1.8-2.6-3.2-4.4-4.7c1.5-0.5,2.5-1.1,2.9-2.5
		c1.3,0.9,0.5,3.3,2.6,3.2C647.7,610.3,647.7,610.4,647.8,610.4z"/>
	<path fill="none" d="M635.2,614.5c-3.7-0.7-7.4-1.5-11.2-2.3c1.1-0.8,1.2-0.9,5.6,0.2C631.5,612.9,633.7,612.7,635.2,614.5
		L635.2,614.5z"/>
	<path fill="none" d="M823.5,428.4c0.3-2.7,0.3-2.7,3.2-4.8c0.7,0.1,1.4,0.3,1.6,1.2c-0.5,1.8-2.3,1.1-3.4,1.7
		C824.1,426.8,824.2,427.9,823.5,428.4L823.5,428.4z"/>
	<path fill="none" d="M851.6,287c2.2-0.8,4-3.3,6.6-1.2C855.9,285.8,854,287.6,851.6,287z"/>
	<path fill="none" d="M707.3,289c-0.9-0.1-1.9,0-2.3-1.3c1-0.7,1.8-1.7,3.7-2.3c-1,1.5-1.5,2.6-1.5,3.8L707.3,289z"/>
	<path fill="none" d="M840.4,286.5c0.8-1.1,1.9-1.6,3.7-2.5c-0.8,1.9-1.9,2.6-2.7,3.5C840.6,287.5,840.5,287.1,840.4,286.5z"/>
	<path fill="none" d="M835.4,401c-1.4-0.6-2.2-1.7-2.8-3.3C834.8,398.5,834.8,398.5,835.4,401L835.4,401z"/>
	<path fill="none" d="M511.9,585.9c-1.2,0.2-2.2-0.4-3.2-0.9C509.9,584.1,509.9,584.1,511.9,585.9L511.9,585.9z"/>
	<path fill="none" d="M841.7,443c1.1,1.5-0.1,2.1-1,3c-1.4-1.9,0.5-2.2,1.1-3.1L841.7,443z"/>
	<path fill="none" d="M829.8,426.3c-0.8,1.5-2.1,1.9-3.8,1.5c1.2-0.6,2.4-1.1,3.6-1.7L829.8,426.3z"/>
	<path fill="none" d="M704.4,286.3c-0.7,0.8-0.8,1.6-1.5,1.8C702.5,286.8,702.5,286.8,704.4,286.3z"/>
	<path fill="none" d="M829.6,426.1c0.4-1.1,0.3-2.3,0.3-3.5l-0.1,0.1c0.6,1.2,1.9,2.4,0,3.7L829.6,426.1z"/>
	<path fill="none" d="M618.7,619.9c-0.7,0-1,0-1.4,0C617.6,619.2,617.9,618.8,618.7,619.9z"/>
	<path fill="none" d="M322.9,261.4c-0.8,1.1-0.7,2.1-0.5,3c0.8,4,1.3,8,2.7,11.9c2.3,6.4,3.1,13.2,3.2,19.9
		c0.1,4.5,0.6,9.1-0.4,13.6c1.2,8.3-1.9,16.1-2.8,24.1c-0.8,7.9-2,15.7-1.7,23.7c0.2,6.1-0.3,12.1-0.1,18.2c0.1,3.6,0,7.4-1.3,11
		c-1.5,1.4-3,2.8-4.6,4.3c-0.7-0.1-1.3-0.4-1.8-1.2c0.5-1.2,1-2.5,1.5-3.9c-2-5-6.9-3.7-10.9-4.9c-0.4-0.3-0.3-0.9-0.3-1.5
		c0.3-7.2,0.1-14.5-0.5-21.7c-0.1-1.6-0.3-3.3-0.1-4.9c0.6-7.9-0.8-15.6-3.2-23.1c-3.4-10.6-5.9-21.3-7.5-32.3
		c-0.4-2.7-1.2-5.4-1.1-8.3c0-2.7,0-5.3,0-8c1.4,0.6,1.1,1.9,1.9,3.2c-0.3-3.2,0.2-6-2-8.1c-2.3-7.3-6.8-13.9-6.2-22
		c0.3-5,1.3-9.6,4.6-13.6c2.7-3.3,5.2-6.9,7.2-10.7c0.9-1.7,2.2-3,3.5-4.3c5-4.9,10-9.8,15.1-14.5c2.5-2.3,5.8-2.9,9.2-2.6
		c3.6,0.4,7.2,0.9,10.6,1.3c1.3,0.9,2.5,1.7,3.7,2.3c5,2.6,8.3,6.7,11.1,11.4c1.5,2.5,3.3,5.2,1.9,8.5c0.8,2,0.5,4.1,0.4,6.2
		c-0.1,2.9-1.2,5.4-3.1,7.6c-4.4,5-10.1,8.1-16,10.8c-1.4,0.6-2.8,1-4.3,1.5c-1.6,0.6-3.3,1-4.6,2.3
		C325.5,261.4,324.2,262.3,322.9,261.4z M303.3,262.5c3.4-4.3,3.8-7.5,1.4-9.8C304.3,255.8,303.9,258.8,303.3,262.5z M290,257.2
		c0.3-1.9,0.9-3.8-0.2-5.7C288.8,253.4,289.4,255.3,290,257.2z M320.3,375.9c0.1,0,0.1,0,0.2,0c0-2.5,0-5,0-7.7
		c-0.5,0.3-0.6,0.3-0.6,0.4C320,371,320.1,373.5,320.3,375.9z M298.9,249.3c1.3,1,1.6,3.2,4.2,3.9
		C302.4,250.6,300.8,249.8,298.9,249.3z M320.4,379.7c-0.5,2-0.7,3.6,0.1,5.7C322,383.2,321.4,381.7,320.4,379.7z M299.5,301.4
		c0.1-1.7,0.8-3.5-0.5-5.9C298.4,298,299,299.7,299.5,301.4z M322,325.8c1-1.5,0.4-2.8-0.3-4.2C321.2,323,321.3,324.4,322,325.8z
		 M321.8,336.7c-0.1,1.1-0.4,2.2,0.2,3.5C322.3,338.9,322.2,337.8,321.8,336.7z M292.1,264c-0.2-1.5-0.7-2.3-1.8-2.8
		C290.4,262.2,290.8,263.2,292.1,264z M302.8,269.6c0.4-0.6,0.4-1.1-0.4-1.2C301.9,269,302.1,269.4,302.8,269.6z"/>
	<path fill="none" d="M275.2,397.6c-0.7-1.7-2.3-1.9-3.7-2.2c-5.3-1.1-10.8-1.9-16-3.3c-6.7-1.9-13.5-3.5-20.2-5.3
		c-1.4-0.4-2.7-0.6-4.1-0.4c0.5-2.2,0.8-4.4,0.5-6.6c-0.4-2.9,0.7-5.5,1.2-8.2c1.8-8.5,2.6-17,3.9-25.6c0.6-4.1,1.3-8.3,2-12.4
		c0.2-1,0.5-2,0.8-3c1.9-5.9,5.6-9.5,11.9-10.8c5.5-1.2,11-1.8,16.6-2.4c6.2-0.6,12.2-1.7,18.3-2.7c3.3-0.5,6-0.4,9.1,0.4
		c1.4,7,3.6,13.9,5.4,20.9c1.1,4.2,1.8,8.4,1.7,12.8c0,2.8,0.2,5.6,0.2,8.4c0,1.8,0.6,3.6-0.6,5.4c-0.3,0.5-0.2,1.4-0.1,2.1
		c0.8,5.6,0.1,11.2,0.5,16.8c-1,1.3-2.9,1.6-3.5,3.7c1.2,3.1-0.1,5.8-2.4,8.2c-0.2,0.2-0.3,0.3-0.4,0.6c-2,4.7-5.9,7.6-9.4,11.1
		c-1.6,1.6-3.8,2.2-5.4,4.2c-2.2-3.3-3.7-6.6-4.7-10.1C276.6,398,276.4,397.1,275.2,397.6z"/>
	<path fill="none" d="M191.2,246.4c1.6-1.4,1.4-3.6,2.6-5.4c4.5-3.2,9-6.6,13.3-10.4c4.6-4.2,9.7-7.9,15.8-10.2
		c5.4-2.1,10.5-5.1,15.6-7.9c7.1-4,14.6-6.7,22.4-8.9c7.3-2,14.6-4.1,21.9-5.9c3.6-0.9,7.2-1.9,11-1.3c3,0.5,5.5,1.9,7.2,4.4
		c2.6,3.6,4.8,7.4,5.9,11.8c0.4,1.4,0.6,3,1.9,4.2c-6.9,5.6-11.5,12.8-15.9,20.3c-5.4,0.9-10.6,1.6-16,1.2c-3.1-0.2-6.3,0.3-9.4,0.5
		c-5.4,0.5-10.9,0.8-16.3,0.8c-5.2,0-10.3,0.9-15.5,1.3c-4.8,0.4-9.5,0.8-14.3,1.1c-3,0.2-6,0.8-8.9,1.8c-3.8,1.4-7.9,1.8-11.6,3.6
		c-1,0.1-1-1.8-3.1-0.7c-0.9,0.7-0.1,2.3,0.2,3.9c-4.4,2.1-2.6,6.3-3.6,10.1c-1.7-5-3.4-9.5-3.1-14.5L191.2,246.4z M302,206.7
		c-1-0.6-1.9-0.3-2.8-0.1C300.1,207,301,207.1,302,206.7z M286.9,208.2c1.3,0,1.7,0.1,2.1,0c0.4-0.1,1.1,0.1,0.9-0.8
		C289.2,207.6,288.5,207.8,286.9,208.2z"/>
	<path fill="none" d="M413.6,230c-5.5-1.2-10.5-2.3-15.4-3.4c-0.7-0.2-1.4-0.3-2-0.6c-3.6-1.5-7.2-2.6-11.6-2c1.5-2,2.5-3.7,3.1-5.5
		c1.6-0.5,3.1,0.3,4.8-0.5c-1.4-0.9-3.1-0.5-4.7-1.7c2-0.8,3.2-2,2.6-4.4c-2.1,2.4-3.8,4.8-5.3,7.3c1.8-7.9-0.9-14.7-5.5-20.6
		c-3.2-4.1-6.2-8.4-9.9-12.2c-2.2-2.3-4.5-3.5-7.4-3.9c-4.9-0.7-9.8-1.9-15-1.7c4.4-1.6,8.6-3.8,13.5-3.8c7.4,0.1,14.9,0.5,22.3-0.8
		c2.3-0.4,4.7-0.6,6.9-1.2c6.3-2,12.7-1.4,19-0.6c2.8,0.3,5.5,0.6,8.3,1.1c9.3,1.6,15.6,8.6,16.1,18c0.2,3.2-0.3,6.3-1.4,9.3
		c-1.5,3.9-3,7.8-4.3,11.8C425.2,221.8,420.2,226.7,413.6,230z M370.1,183.7c2.4,0,4.7-0.4,7.5-1.8
		C374.4,182,372.2,182.4,370.1,183.7z M422.6,195.3c0.5-0.5,0.5-1,0.2-1.4c-0.2-0.4-0.4-1-1.1-0.8
		C421.6,194,421.7,194.8,422.6,195.3z M429,195.2c-0.6,0.7-0.5,1.5,0,2.2C429.7,196.7,429.3,195.9,429,195.2z M383.5,180.1
		c0.9,0.4,1.3-0.3,1.8-0.8C384.3,178.9,383.8,179.3,383.5,180.1z M426.4,187.2c-0.4,0.3-0.3,0.6-0.1,0.9c0.2,0.3,0.1,0.9,0.8,0.7
		C427.3,188.1,427.2,187.5,426.4,187.2z"/>
	<path fill="none" d="M372.2,240.4c2.1-1.9,3.4-3.9,4.8-5.9c9.5-0.5,18.9-2.1,28.5-1.8c0.6,0,1.2,0.1,1.7-0.2
		c2.4-1.2,4.7-0.5,7.1,0.3c4.2,1.5,8.7,1.6,13.1,2c5.3,0.5,10.7,0.6,16,0.8c2.2,0.1,4.4-0.3,6.6-0.4c0.7,0,1.5-0.2,2.1,0.1
		c4.5,2.2,9.3,2.8,14.5,2.3c0,2.3,0.1,4.4,0.8,6.7c0.1-2.4,0.2-4.5,0.3-6.5c3.3-1.2,3.3-1.2,6.1-0.9c-0.2,5.7,3.2,10.4,4.2,16.1
		c-4.9,0.2-9.7,0.6-14.5,0.7c-13.2,0.2-26.3,0.9-39.5,1.6c-10.1,0.5-20.1,2.1-30.2,3.2c-14.9,1.6-29.8,3.7-44.8,4.8
		c-7.7,0.6-15.5,1.3-23.1,3.4c-1.3-0.7-1.2-1.9-1.6-3.1c0.3-0.3,0.6-0.8,1-0.9c5.9-1.2,10.9-4.6,16.7-6.2c1.6-0.5,2.6-1.9,3.6-3.2
		c2.3-3,5.8-4.1,9.3-5.1c0.8-0.2,1.3,0.2,1.4,0.5c5.1-1.5,9.9-3.5,14-6.5c7.9-0.4,15.5-1,23.7-2.7
		C386.6,239.5,379.8,240.9,372.2,240.4z M404.7,238.2c8.2,0.7,16.3-0.8,24.5-0.7C421,237.4,412.8,236.8,404.7,238.2z M350.4,259.7
		c1.3-3,1.6-7.1,0.6-9.3C350.4,253.6,350.1,256.6,350.4,259.7z M384.1,252.4c0.4-1.8,0.7-3,0.8-4.3c0.2-1.9,0.3-3.8,0.4-5.8
		c-0.6,0.1-0.8,0.4-0.8,0.8C384.5,246,383.8,248.8,384.1,252.4z M399,244.8c0.2-1.5,0.2-2.4-0.1-3.2c-0.1-0.2-0.2-0.7-0.7-0.3
		C398.4,242.3,398.6,243.3,399,244.8z"/>
	<path fill="none" d="M378.9,225.3c-1.8,2.6-3.2,5.4-4.6,8.2c-1.9,4-4.8,7.1-8.9,8.9c-3.5,1.6-6.8,3.5-11,3.7
		c2.1-3.2,3.4-6.6,2.8-10.1c-0.8-4.1-1-8.3-2.1-12.3c-0.5-1.8-1.3-3.5-2.9-4.7c-0.4-0.4-0.9-0.8-1.2-1.3c-3.1-5.1-8.2-7.5-13.2-9.9
		c-1.9-0.9-4.1-1-6.1-1.3c-1.6-0.2-3.1-0.3-5.2-0.4c3.8-3.2,8.6-3.8,12-7.5c-4.4,0.7-8.1,2.4-11.5,4.5c-3.4,2.2-6.8,4.4-11.1,5.4
		c-0.7-0.1-0.8-1.4-2-1.4c-0.4,1.3,1.2,1.6,1.2,3.2c-1.4,1.1-3.1,2.5-4.7,3.8c-2.6-6.3-5-13.3-11.2-17.9c2.6-2,5.7-2.2,8.6-3.1
		c7.5-2.2,14.7-5.2,21.9-8.3c5.2-2.3,10.8-2.9,16.4-2.2c5.2,0.6,10.5,0.6,15.6,1.9c1.2,0.3,2.5,0.5,3.8,0.8c0.9,1.8,2.3,3,3.7,4.2
		c4.8,4.2,8.3,9.4,11.5,14.8c1.8,2.9,2.3,6.6,2.2,10.1c-0.1,2.7-0.4,5.3-0.6,7.8C381.4,223.9,380.1,224.6,378.9,225.3
		c-0.7-2.8-1.2-5.7-3.3-8C376.8,219.9,376.5,223.2,378.9,225.3z M379.3,221.7c0.2-3.7-0.3-6.6-1.7-9.9
		C378.2,215.4,378.4,218.7,379.3,221.7z M342.9,195.7c0.9,0.5,1.1-0.1,1.4-0.8C343.4,194.8,343,195,342.9,195.7z"/>
	<path fill="none" d="M219.7,251.6c-6.4-1.1-12.8-0.4-19.3-0.4c1.1,1.7,2.8,0.6,4.2,1.4c-1,5.3-0.7,10.8-1,16.3
		c-2.5,0.1-4.8,0.2-7.4,0.4c1.4-5.6,1.3-10.9,1.3-15.9c2.1-4,5.6-5.2,9.5-6.3c7.7-2.2,15.6-2.6,23.5-3.2c6.3-0.4,12.4-2,18.6-2.9
		c1.7-0.2,3.5-0.5,5.2-0.2c5.9,1.2,11.8,0.4,17.8-0.3c1-0.1,2.1-0.4,3.1-0.2c5.1,0.7,10.2,0.5,15.3-0.9c-0.2,1.3-0.9,2-1.6,2.5
		c-2.4,1.5-3,4.1-4.3,6.2c-0.6,1-0.1,2-0.2,3.1c-0.4,5.6,0.3,11.2,1.9,16.8c-4.1,0.6-8.1,1-12.1,1.7c-6.3,1.1-12.7,1.2-19.1,1.9
		c-0.3,0-0.7,0-1,0.1c-5.7,1.6-11.5,0.6-17.3,0.3c-5.5-0.3-10.9-0.5-16.4-0.8c-2.6-0.1-5.2-0.6-7.9-0.2c-2.5,0.4-5.1-0.3-7.9-1.4
		c0.2-5.6,0.5-11.2,0.7-17C210.3,251.4,215.1,252.2,219.7,251.6z M208.8,259.7c-1.1,1-0.6,2.2-0.3,3.3
		C208.6,261.9,208.7,260.8,208.8,259.7c0.7-0.9,0.6-1.9,0.3-3.1C208.7,257.7,208.8,258.7,208.8,259.7z M282.2,255.5
		c-0.1-0.8,0.2-1.6-0.3-2.3C281.7,254,281.8,254.7,282.2,255.5c0.4,2-0.8,4.1,0.1,6.2C282.8,259.7,283.2,257.6,282.2,255.5z
		 M255.6,254c-3.1,0.4-6.3-0.4-9.2,1.1C249.5,255,252.6,254.9,255.6,254c0.6-0.1,1.3-0.2,2.5-0.2C256.8,253.4,256.2,253.6,255.6,254
		z M238.9,253.6c-3.3-1.2-6.7-0.9-10-0.8C232.2,254.2,235.5,254,238.9,253.6z M276.2,251.1c-2.7,0.2-5.5-0.3-8.3,1.3
		C271,252.8,273.6,251.9,276.2,251.1z M244.7,270.7c0,0,0.1,0,0.1,0c0-0.7,0-1.3,0-2c0,0-0.1,0-0.1,0
		C244.7,269.4,244.7,270.1,244.7,270.7z M221.8,256.2c0,0-0.1,0-0.1,0c0,0.4,0,0.8,0,1.2c0,0,0.1,0,0.1,0
		C221.8,257,221.8,256.6,221.8,256.2z"/>
	<path fill="none" d="M577.8,176.3c-1.1,0.7-1.5,1.7-1.5,2.9c0,1.6,0.2,3.2,0.8,4.6c-0.7,1-1.4,0.7-2.1,0.6
		c-10.7-0.8-21.4-1.7-32.1-2.5c-5.5-0.4-10.9-0.9-16.4-1.3c-1.4-0.1-2.8-0.1-4.2-0.1c-1.6-2.3-4-3.4-6.6-3.9c-2.1-0.4-4-0.9-5.8-2.2
		c-2.7-1.9-5.8-1.5-8.7-0.4c-1.7,0.6-3.1,2-2.6,4.6c-13.1-1-25.9-2-38.5-3c-4.4-3.7-9.1-6.5-14.4-8c-2.2-0.6-4.4-1-6.6-0.7
		c-6.8,0.9-13.5-0.3-20.1-1.5c-5-0.9-9.7-0.4-14.4,1.5c-1.2,0.5-1.8,1.4-2.6,2.2c-1.2,1.3-2.5,1.9-4.3,1.7c-3.7-0.4-7.5-0.3-11.1-1
		c-2.9-0.6-5.9-1.2-8.2-3.5c-1.2-1.2-2.8-2-4.5-2.7c-3.8-1.5-7.2-0.3-10,2.1c-1.8,1.5-3.4,2.2-5.6,2c-7.6-0.6-15.1-1.2-22.7-1.8
		c-5.1-0.4-10.2-0.8-15.5-1.2c1.5,2,1.5,2,5.9,3.1c-0.9,0.6-1.7,1.1-2.6,1.7c-6.2,0.2-9.8-1.6-10.7-5.6c-1.3-5.6,0.6-9.6,4.4-11.9
		c3.6-2.1,9-0.8,11.8,2.7c-2.1,0.2-3.9,0.2-5.7-0.8c-1.1,1.4-3.5,1.5-3.6,3.9c-0.7,0.2-1.5,0.4-0.9,1.4c0.6-0.4,0.6-1,0.8-1.5
		c1.2-0.7,2.4-1,3.9-0.9c12.7,0.9,25.3,1.7,38,2.5c1.9,0.1,3.8,0.5,5.8,1c3.3,0.9,6.9,0.8,10.3,0.4c1.1-0.1,2.3-0.2,3.5-0.1
		c15.7,1,31.4,2.1,47.1,3.2c11.3,0.8,22.6,1.5,33.8,2.2c14.4,0.9,28.8,1.9,42.8,2.8c1.6,0.4,1.6,1.9,2.9,2.4
		c1.7-0.6,3.6,1.1,5.7,0.1c3-1.4,6.2-1.5,9.5-1.3c11.5,0.8,23,1.5,34.5,2.3c6.7,0.4,13.5,0.9,19.9,1.3
		C577.9,174.9,577.7,175.6,577.8,176.3z"/>
	<path fill="none" d="M431.2,178.9c-4.3-1.5-7.8-4-11.6-6.1c-1.2-0.6-2.5-0.5-3.8-0.6c-4.3-0.3-8.6-0.6-12.9-0.9
		c0-0.8,0.3-1.3,0.9-1.5c6.3-2.4,12.6-3.5,19.3-0.9c2.6,1,5.7,1,8.7,0.6c6.7-0.8,13.2,0.2,19.5,2.7c1.8,0.7,3.3,1.6,4.8,2.8
		c4.4,3.6,8.1,8,12.4,11.8c-6.6,5.5-10,12.8-13.1,20.2c-3.2,7.6-5.5,15.5-8.7,23.1c-0.6,1.5-1.6,2.5-3,3.6
		c-9.2-0.6-18.6-0.6-27.8-2.4c-0.3-1.3,0.8-1.1,1.3-1.4c3.1-1.7,5.7-4.1,8-6.7c0.3-0.3,0.6-0.7,0.8-1.2c2.6-6.6,6.5-12.6,8.5-19.5
		c1.1-3.7,1.1-7.2,0.8-10.9c-0.3-3.9-1.3-7.3-3.8-10.3C430.9,180.6,431,180,431.2,178.9z M427.5,225.5c0.8-0.2,1.8-0.2,1.6-1.4
		C428.5,224.6,428,225.1,427.5,225.5z M423.9,228.4c2.2-0.7,2.7-1,2.1-1.5C425.1,227.1,424.5,227.8,423.9,228.4z M422.9,229.7
		c-1.2-0.2-1.6,0.3-1.9,1C421.8,230.9,422.2,230.3,422.9,229.7z"/>
	<path fill="none" d="M194.8,270.9c7.6,0.6,15,2.9,22.8,2.8c0.3,2.8-0.3,5.2-0.3,7.6c0,11.9-1.6,23.7-2.7,35.5
		c-0.6,6.3-0.9,12.5-1,18.8c0,5.5,0.1,10.9-1.1,17c-0.2-2.2-0.4-3.8-0.6-5.4c-0.8,3.2-1,6.4,0.2,9.6c0.8,2.1,0,4.1,0.1,6
		c-1.2,2-4.1,2.4-4.2,5.1c2.4,1.2,2.5-1.5,3.9-2.2c0.4,1.7-0.4,3.1-0.8,4.8c-3.7,0.6-7.3,1-11-1c1.1-3.4,0.8-6.4-0.9-9.2
		c-0.9-0.9-2.6-0.4-3.5-1.6c0.1-4.4,0.7-8.9,1.2-13.4c0.7-6.2,0.7-12.3,0-18.5c-0.3-2.9-0.5-5.8-0.4-8.7c0.3-6.9-0.6-13.7-1.6-20.5
		c-1.2-8.4-1.3-16.7-0.8-25.1C194.3,271.9,194.3,271.3,194.8,270.9z M209.6,281.3c-1.4,1.7-2.2,3.5-1.8,5.8
		C208.5,285.2,210.1,283.6,209.6,281.3z M207.1,296.1c-0.4,1.1-0.9,2.3,0.3,3.6C208,298.4,208,297.3,207.1,296.1z M211.7,337.3
		c-0.5,0.8-1.3,1.3,0.1,1.8C212.2,338.6,212.1,338.1,211.7,337.3z"/>
	<path fill="none" d="M581.9,168.5c1.9,0.4,3.6-0.6,5.4-1c5-0.9,8.9,0.6,11.6,5.3c-2.8,0.6-5.2-0.9-7.7-0.8
		c-5.4,3.3-6.7,6.9-3.9,11.4c0.3-1.8-0.1-3.3-0.2-5.2c0.4-1.1,0.9-2.4,2.5-3.5c33.4,2.2,67.1,4.5,100.8,6.8c0.7,0.1,1.3,0.5,1.8,0.9
		c0.9-0.4,1.7-0.9,2.8-0.8c1.8,0.7,3.2,2,3.4,4c0.2,3.3-1,6.1-3.5,7.8c-21.7-1.6-42.9-3.2-64.2-4.8c-12.2-0.9-24.4-1.9-36.6-2.8
		c-2.1-0.2-4.3,0-6.4-1.1c0.6,1.9,2.1,2.7,3.3,3.9c1.8-0.6,3.5-0.8,5.4-0.2c-0.8,1.8-2.2,2.5-4.1,2.6c-3.8,0.3-7.4-0.7-11.2-2
		c-2.4-2.9-3.6-6.4-3.3-10.4c0-0.8-0.1-1.6-0.1-2.4C579.1,173.7,580.5,171.1,581.9,168.5z"/>
	<path fill="none" d="M166.4,379.1c-0.6,4.2-1.1,8-1.6,12.2c-3.7-0.9-7.2-1.1-10.7-2.6c0.5-2.9,1-5.6,1.4-8.4
		c2.1-1.9,4.2-3.1,7.1-3.3c3.2-0.3,6.5-0.9,9.3-2.7c2.4-1.5,5.2-1.5,7.7-2.6c1.1,0,2,1.4,3.2,0.5c1.1-0.9-0.5-1.7,0-2.7
		c2.6,0.5,4.6,3.8,7.6,1.3c-0.5-2.5-3-2.2-4.4-3.2c0.4-1.1,1.1-1,1.7-0.6c1.4,0.9,2.8,1.6,4.4,2.1c1,0.3,1.8,0.2,2.3-1.1
		c-0.6-2.3-3.1-2-4.6-3.2c0.4-0.9,0.7-1.9,1.6-2.7c2.2-0.3,4.6-1.2,6.8,0.4c-0.7,6.1,0.4,8,6.7,11.5c1.9,0,3.7,0,5.8,0
		c0.7,2.1-0.5,4.2-0.3,6.4c-1.4,0.5-2.5,0.1-3.6-0.1c-5.1-1.2-10.1-2.9-15.3-3.3c-1.3-0.1-2-1.1-3.3-1.6
		C181.1,377.7,173.4,376.9,166.4,379.1z"/>
	<path fill="none" d="M256.7,160.3c-0.4-0.3-0.7-1.1-0.8-1.9c-0.7-3.1,1.4-5.5,4.5-5.4c7.8,0.4,15.6,1,23.3,1.5
		c8.6,0.5,17.2,1.1,25.8,1.6c0.6,0,1.2,0,1.7,0.5c-0.1,2.4-1.5,4.7-0.5,7.5C292.6,163,274.8,161.2,256.7,160.3z"/>
	<path fill="none" d="M388.3,171.9c-9.4,3.4-19.1,3.3-28.9,3c-0.7-2.8,0.5-4.6,2.6-5.9c1.4-0.9,2.6-1.8,3.9-2.9
		c2.5-2.2,6.8-2.4,9.7,0C379.3,169.3,383.9,170.2,388.3,171.9z M363,172.4c0.7-0.3,1.2-0.7,0.8-1.6C363,171.2,362.5,171.5,363,172.4
		z"/>
	<path fill="none" d="M378.2,231.9c0.1-4.1,3-5.5,5.4-7.1c5.7,0.9,11.2,2.1,16.7,4.5C392.8,230.3,385.7,230.6,378.2,231.9z"/>
	<path fill="none" d="M512.1,165.3c0.8,1.3-1.3,1.4-0.6,2.5c1.2,0.2,1.7-0.9,2.5-1.5c0.9-0.6,1.9-0.6,3.3-0.5c-0.6,0.9-2.1,1-2,2.1
		c0.1,1.3-0.5,1.9-1.4,2.7c-2.3,0.4-4.4-0.9-6.8-0.6C508.6,168,509.4,165.6,512.1,165.3z"/>
	<path fill="none" d="M384.5,158.6c-2.6,0.1-5.2,0.4-7.7,1.4c-1.1,0.5-1.9-0.2-2.8-0.9C377.8,156.7,377.8,156.7,384.5,158.6z"/>
	<path fill="none" d="M463.5,178.5c2.1-0.3,3.8-0.1,5.6,0.3c0.1,1.5-0.6,2.4-1.8,3.3C465.9,181.2,464.7,180.1,463.5,178.5z"/>
	<path fill="none" d="M311.7,396.8c-3.6-0.2-6.9-1.3-10.9-2C303.5,393.9,308.7,395.1,311.7,396.8L311.7,396.8z"/>
	<path fill="none" d="M516.3,168.2c1.7-0.6,3.4-1.1,4.8-1.6c1.2,0.1,1.8,0.6,2.6,2.1c-2.9-1.5-4.9,0.8-7.3,0.3
		C516.4,168.7,516.3,168.4,516.3,168.2z"/>
	<path fill="none" d="M373.2,157.7c-0.3,0.8-0.7,1.6-1,2.3c-1,0.5-1.6,0.1-2.5-0.7c1.1-0.7,2.1-1.4,3.1-2
		C372.9,157.5,373.1,157.6,373.2,157.7z"/>
	<path fill="none" d="M505.9,168.4c-0.3-1.8-0.3-1.8,3-3.2C508.2,166.9,506.8,167.4,505.9,168.4z"/>
	<path fill="none" d="M369.5,157.7c-0.5,0.8-0.8,1.8-2.1,1.7C367.8,158,367.8,158,369.5,157.7z"/>
	<path fill="none" d="M520.3,224.6c1-3.8,1.7-7.2,1-10.6c-0.6-0.2-1,0-1.5,0.4c0.8,3.1-0.7,5.4-2.9,7.8c-0.7-3.3-0.5-6.1,1.2-8.8
		c-1.8-0.9-1.4-2.5-1.2-3.9c0.4-2.7,1.3-5.4,1.4-8.2c1.2-0.1,1.4,0.8,1.8,1.5c3.4,5.4,3.8,11.3,2.8,17.5
		C522.7,221.8,522.1,223.2,520.3,224.6z"/>
	<path fill="none" d="M516.1,231.5c2.2,0,3.3,0.9,4.9,1.5c0.5,5.6-1.8,10.9-2.2,16.4c-1.7,0.8-3.4,0.7-5.5,0.4
		C514.4,243.5,517.1,237.8,516.1,231.5z"/>
	<path fill="none" d="M518.8,225.2c-0.8,0.1-1.4,0.6-2.1,0.3c-0.3-0.3-0.2-0.7,0-1c1-1.2,2.1-2.5,3.4-4
		C520,222.4,519.5,223.7,518.8,225.2z"/>
	<path fill="none" d="M519.6,225.8c-0.3,1.4-0.5,2.3-1.8,2.8C516.9,226.9,517.9,226.4,519.6,225.8z"/>
	<path fill="none" d="M471.2,285.7c-0.6,0.9-1.5-0.4-2,0.6c0.1,0.4,0.1,0.9,0.2,1.5c-0.5,0.4-1.1,0.3-1.6,0.1
		c-1.4-0.7-1.7-1.9-1.2-3.3c0.4-1.1,1.4-1.6,2.5-1.4C470.6,283.4,471.3,284.3,471.2,285.7z"/>
	<path fill="none" d="M796.8,501.7c-0.7,0-1.2-0.1-1.7-0.1c-0.9,0.6,0.3,1.3-0.1,1.9c-0.5,0.4-1.1,0.3-1.6,0
		c-1.4-0.7-1.7-1.8-1.3-3.2c0.3-1,1.1-1.5,2.1-1.5C795.8,498.8,796.8,499.6,796.8,501.7z"/>
	<path fill="none" d="M462.6,286.5c-0.5,1.7-1.5,2.7-3.3,2.2c-1.2-0.3-1.9-1.4-1.7-2.7c0.1-1.1,0.8-1.9,2-2
		C461.5,283.7,462.4,284.7,462.6,286.5z"/>
	<path fill="none" d="M788.2,502.1c-0.7,1.8-1.7,2.6-3.3,2.2c-1.2-0.3-1.9-1.4-1.7-2.7c0.1-1.1,0.8-1.9,2-2
		C787,499.4,787.9,500.3,788.2,502.1z"/>
	<path fill="none" d="M776.3,501.7c-0.5-0.6-0.4-1.1-0.3-1.6c1-0.6,2-0.5,3.1,0.2C778.6,502,777.5,501.8,776.3,501.7z"/>
	<path fill="none" d="M453.9,284.6c-2.3,2.1-2.6,2-3.5,0C451.4,283.7,452.4,284.2,453.9,284.6z"/>
	<path d="M717.5,365.8c-0.7-2.8-1.3-5.5-2-8.3c-1-4.3-1.8-8.6-2.8-13c-0.7-3.2-1.7-6.3-3.1-9.2c-1.5-3.3-1.7-7-1.8-10.6
		c-0.1-1.8-0.3-3.5-0.8-5.1c-1-3-1.3-6.1-1.8-9.2c-0.1-0.7-0.4-1.7,1-2.1c1.1,5.8,2.7,11.4,3.2,17.3c0.3,3.1,1,6,2.1,9
		c2.6,6.6,4.5,13.4,5.5,20.5c0.5,3.5,0.9,7.1,1.4,10.6C718.1,365.7,717.8,365.8,717.5,365.8z"/>
	<path d="M795,431.7c0.2,1.9-0.6,3.3-2.2,5.1C793.3,434.6,794,433.1,795,431.7z"/>
	<path d="M817.7,380.4c-1.1-1.6-2.2-2.3-1.3-4C817.7,377.3,818,378.3,817.7,380.4z"/>
	<path d="M850.3,310.8c-0.3-1.7-0.3-2.6,0.6-3.5C851.7,308.6,850.8,309.3,850.3,310.8z"/>
	<path d="M797.9,389.9c0.5,1.4-0.6,1.8-1,2.6C796.2,391.3,796.8,390.6,797.9,389.9z"/>
	<path d="M800.2,396.3c-1.4-0.4-1.4-1.3-0.9-2.4c1.4,0.1,1.2,1.1,1.2,2C800.4,396.1,800.3,396.2,800.2,396.3z"/>
	<path d="M831.7,369.6c-0.3,0.8-0.8,1.5-1.7,2c-0.1-1.2,0.7-1.6,1.2-2.1C831.4,369.3,831.5,369.3,831.7,369.6z"/>
	<path d="M848.9,305c-1.5-0.3-2.2-0.8-2.9-1.7C847.3,303.1,848.1,303.5,848.9,305z"/>
	<path d="M699.3,299.6c0.8,0.9,0.1,1.3-0.2,2.4C698.5,300.7,698.8,300.2,699.3,299.6z"/>
	<path d="M713.7,364.1c1.5,0,1.4,1,1.7,1.6C714.5,365.6,714.2,365,713.7,364.1z"/>
	<path d="M793.7,423.3c0.5-1,1-1.6,2.2-1.1C795.3,422.8,794.8,423.1,793.7,423.3z"/>
	<path d="M788.1,415.5c1.4-0.5,1.6,0.1,2,0.5C789.3,416.7,789,415.9,788.1,415.5z"/>
	<path d="M790.3,422.3c-0.8,0.7-1.4,0.3-2.6,0.3C788.8,421.9,789.4,421.8,790.3,422.3z"/>
	<path d="M817.3,423.4c0.3-1,0.8-1.3,1.7-1.3C818.9,423.1,818.4,423.3,817.3,423.4z"/>
	<path d="M836.5,363.7c0.2,1.6-0.3,1.9-0.8,2.2C835.1,365,836,364.8,836.5,363.7z"/>
	<path d="M800.5,395.9c0.6,0.1,1.1,0.2,1.7,0.3c-0.9,1-0.9,1-2.1,0C800.3,396.2,800.4,396.1,800.5,395.9z"/>
	<path d="M626.4,479.5c0.1-3.9,0.8-7.7,1.6-9.1C629.8,472.9,629.3,475.9,626.4,479.5z"/>
	<path d="M612.5,469c1,1.9,0.6,3.8,0.3,5.8C611.9,473,611.8,471,612.5,469z"/>
	<path d="M643.3,593.4c-0.6-2.6-0.1-5.2-0.7-7.7C643.7,588.3,643.3,590.9,643.3,593.4z"/>
	<path d="M621.6,466.7c1.8,0.5,3.6,1.2,4,3.7C623.2,470,623.1,467.6,621.6,466.7z"/>
	<path d="M643.3,602.3c-0.8-1.7-0.5-3.4-0.1-5.3C644.1,598.9,644.7,600.6,643.3,602.3z"/>
	<path d="M622.2,518.6c-0.5-1.6-0.9-3.1-0.7-5.4C623.2,515.3,622.4,517,622.2,518.6z"/>
	<path d="M644.4,539c0.5,1.3,1.2,2.6,0.4,4.5C643.8,541.9,644.1,540.4,644.4,539z"/>
	<path d="M615.1,481.6c-1.2-0.7-2-1.7-2.4-3.6C614.5,479,614.7,480.4,615.1,481.6z"/>
	<path d="M644.6,553.8c0.3,1.3,0.5,2.6,0.1,4.6C644.3,556.4,644.4,555.1,644.6,553.8z"/>
	<path d="M625.3,485.9c0.1,0.1,0.4,0.3,0.4,0.4c0,0.3-0.1,0.7-0.5,0.5c-0.2-0.1-0.3-0.4-0.3-0.5C624.9,486.1,625.2,486,625.3,485.9z
		"/>
	<path d="M644.5,476.5c-0.8-0.9-0.1-1.1,0-1.8C645.2,475.6,644.8,476,644.5,476.5z"/>
	<path d="M749.8,455.2c-7.4,0-14.8,0.9-22.2,0c2.4-0.1,4.8-0.2,7.3-0.3c2.4-0.1,4.9-0.2,7.3-0.3
		C744.7,454.5,747.2,455.1,749.8,455.2z"/>
	<path d="M673.6,467.6c0.3,0.2,0.8,0.4,0.8,0.5c0.1,2.9,0,5.9-0.9,8.7c-0.7-3.1,0-6.2,0.2-9.3L673.6,467.6z"/>
	<path d="M708,459.5c-0.3,3.1,0,6.3-1.1,9.3C706.9,465.7,707,462.6,708,459.5z"/>
	<path d="M721.7,459.6c0.2,1.2,0.5,2.4,0.8,3.7C721,462.3,721.7,461,721.7,459.6z"/>
	<path d="M613.3,425.1c-1,0.4-1.7,0.4-2.4,0.3C611.4,424.7,612.1,425,613.3,425.1z"/>
	<path d="M624.1,423.9c-0.5,0.4-1.1,0.3-1.6,0.1C623,423.3,623.6,423.4,624.1,423.9z"/>
	<path d="M700.2,399.2c-2.3,1.4-4.8,2-7.4,1.7C695.1,399.8,697.7,399.5,700.2,399.2z"/>
	<path d="M706.1,397.8c0.4-1.1,1.1-1.3,1.9-1.4C707.9,397.6,707.1,397.5,706.1,397.8z"/>
	<path d="M745.5,412.8c-1-0.7-1.3-1.4-0.8-2.3C745.7,410.9,746,411.6,745.5,412.8z"/>
	<path d="M715.2,421.4c0.9,0.6,0.8,1.1,0.4,1.7C714.8,422.7,714.9,422.2,715.2,421.4z"/>
	<path d="M749.8,406.4c-0.8-0.4-0.6-1-1.1-1.7C750.1,404.9,750,405.5,749.8,406.4z"/>
	<path d="M751.6,412.8c0.7,0.5,0.6,1.1,0.5,1.8C750.9,414,751.8,413.4,751.6,412.8z"/>
	<path d="M702.4,440.2c-0.8-2.7-1.5-5.5-1.3-8.4C702.2,434.5,702.3,437.3,702.4,440.2z"/>
	<path d="M701.7,442.3c-0.8-0.1-1.2-0.6-1.4-1.3c-0.7-2.1-1.4-4.1-1.9-6.3C700.5,436.8,700.8,439.7,701.7,442.3L701.7,442.3z"/>
	<path d="M665.6,413.4c0.1-1,0.5-1.2,1.2-1C666.9,413,666.5,413.3,665.6,413.4z"/>
	<path d="M561.6,470.5c-4.3,1.1-7.9,0.8-11.1-0.8C554.6,470,558.1,470.3,561.6,470.5z"/>
	<path d="M591,469.8c2.6-1.1,5.2-1.9,8.5-1.3C596.4,469.9,593.6,469.4,591,469.8z"/>
	<path d="M530.5,481.5c0.4-2.6,0.9-5.1,1.3-7.7c0.6,2.7-0.7,5.1-0.6,7.7C531,481.5,530.7,481.5,530.5,481.5z"/>
	<path d="M605,478.9c-0.7-1.7-0.2-3.4,0.3-5C605.5,475.6,605.7,477.3,605,478.9z"/>
	<path d="M575.5,471.7c-2,1.2-4.2,0.7-6.3,0.6C571.3,471.5,573.5,471.8,575.5,471.7L575.5,471.7z"/>
	<path d="M575.6,471.7c1.1-0.9,2.3-0.3,3.5-0.1C577.9,471.7,576.7,471.7,575.6,471.7L575.6,471.7z"/>
	<path d="M604.1,469.8c1.1,0.5,0.7,1.2,0.6,1.8C604.5,471.1,604.3,470.6,604.1,469.8z"/>
	<path d="M567.5,487.9c0-0.5,0-1,0-1.6C567.7,486.9,567.8,487.4,567.5,487.9z"/>
	<path d="M544.6,473.9c0,0.4,0,0.8,0,1.3c0,0-0.1,0-0.1,0c0-0.4,0-0.8,0-1.3C544.5,473.9,544.5,473.9,544.6,473.9z"/>
	<path d="M747.5,445.2c1.2-1.1,1.8-1.9,3.1-2.1C749.8,444.2,749.2,444.7,747.5,445.2z"/>
	<path d="M745,447.2c-0.1,0.9-0.7,1-1.4,1.1C743.8,447.4,744.4,447.3,745,447.2L745,447.2z"/>
	<path d="M745,447.2c0.3-0.8,0.9-1.2,1.9-1.3C746.4,446.9,745.9,447.3,745,447.2L745,447.2z"/>
	<path d="M760.7,400.9c-1,0.1-1.2-0.5-1.5-0.9C760.3,399.4,760.5,400,760.7,400.9z"/>
	<path d="M532.7,498.1c0,2.9-1.3,4.7-2.4,6.6C530.4,502.4,530.6,500.2,532.7,498.1z"/>
	<path d="M530.1,516.7c-0.6-1.1-0.9-2.2-0.2-3.7C531,514.3,530.6,515.5,530.1,516.7z"/>
	<path d="M534.6,556.6c-0.8-0.1-0.9-0.5-0.8-1c0.1-0.3,0.3-0.5,0.6-1.2C534.9,555.4,535,556,534.6,556.6z"/>
	<path d="M1026.2,294c-0.3-0.4-0.3-1,0.2-1.1c0.8-0.2,0.6,0.4,0.4,0.8C1026.6,293.8,1026.4,293.9,1026.2,294z"/>
	<path d="M833.8,423.3c-0.4-0.7-0.2-1,0-1.3c0.4-0.6,0.7-1.1,1.2-2.1C835.2,421.5,834.4,422.2,833.8,423.3z"/>
	<path d="M303.3,262.5c0.5-3.6,1-6.6,1.4-9.8C307.1,255,306.7,258.1,303.3,262.5z"/>
	<path d="M290,257.2c-0.5-1.9-1.2-3.8-0.2-5.7C290.9,253.3,290.3,255.3,290,257.2z"/>
	<path d="M320.3,375.9c-0.2-2.5-0.3-4.9-0.5-7.4c0,0,0.2-0.1,0.6-0.4c0,2.7,0,5.2,0,7.7C320.4,375.9,320.3,375.9,320.3,375.9z"/>
	<path d="M298.9,249.3c1.9,0.5,3.5,1.3,4.2,3.9C300.5,252.5,300.2,250.3,298.9,249.3z"/>
	<path d="M320.4,379.7c0.9,2,1.6,3.6,0.1,5.7C319.7,383.2,319.9,381.7,320.4,379.7z"/>
	<path d="M299.5,301.4c-0.5-1.7-1.1-3.3-0.5-5.9C300.3,297.9,299.6,299.6,299.5,301.4z"/>
	<path d="M322,325.8c-0.7-1.4-0.8-2.8-0.3-4.2C322.3,323,322.9,324.3,322,325.8z"/>
	<path d="M321.8,336.7c0.4,1.1,0.5,2.2,0.2,3.5C321.4,339,321.7,337.8,321.8,336.7z"/>
	<path d="M292.1,264c-1.4-0.8-1.7-1.7-1.8-2.8C291.5,261.6,291.9,262.5,292.1,264z"/>
	<path d="M302.8,269.6c-0.7-0.2-1-0.6-0.4-1.2C303.2,268.5,303.2,269,302.8,269.6z"/>
	<path d="M302,206.7c-1,0.4-1.9,0.2-2.8-0.1C300.1,206.4,301,206.1,302,206.7z"/>
	<path d="M286.9,208.2c1.5-0.4,2.3-0.6,3-0.9c0.2,0.9-0.5,0.8-0.9,0.8C288.6,208.3,288.2,208.2,286.9,208.2z"/>
	<path d="M370.1,183.7c2-1.2,4.3-1.6,7.5-1.8C374.8,183.3,372.5,183.7,370.1,183.7z"/>
	<path d="M422.6,195.3c-0.9-0.6-1-1.3-0.9-2.2c0.7-0.2,0.9,0.4,1.1,0.8C423.1,194.4,423.2,194.8,422.6,195.3z"/>
	<path d="M429,195.2c0.3,0.8,0.7,1.5,0,2.2C428.5,196.6,428.4,195.9,429,195.2z"/>
	<path d="M383.5,180.1c0.3-0.8,0.8-1.2,1.8-0.8C384.8,179.9,384.4,180.5,383.5,180.1z"/>
	<path d="M426.4,187.2c0.8,0.3,1,0.9,0.7,1.6c-0.7,0.2-0.6-0.4-0.8-0.7C426.1,187.8,426,187.5,426.4,187.2z"/>
	<path d="M404.7,238.2c8.1-1.4,16.3-0.8,24.5-0.7C421,237.4,412.9,239,404.7,238.2z"/>
	<path d="M350.4,259.7c-0.3-3.2,0-6.1,0.6-9.3C352,252.6,351.7,256.7,350.4,259.7z"/>
	<path d="M384.1,252.4c-0.3-3.6,0.4-6.4,0.5-9.3c0-0.3,0.1-0.7,0.8-0.8c-0.1,1.9-0.2,3.9-0.4,5.8
		C384.8,249.3,384.5,250.5,384.1,252.4z"/>
	<path d="M399,244.8c-0.4-1.6-0.6-2.5-0.8-3.5c0.5-0.4,0.6,0.2,0.7,0.3C399.2,242.5,399.2,243.4,399,244.8z"/>
	<path d="M379.3,221.7c-1-3.1-1.2-6.3-1.7-9.9C379,215.2,379.5,218.1,379.3,221.7z"/>
	<path d="M378.9,225.3c-2.4-2.2-2.1-5.4-3.3-8C377.8,219.6,378.2,222.5,378.9,225.3L378.9,225.3z"/>
	<path d="M342.9,195.7c0.1-0.7,0.5-0.9,1.4-0.8C344,195.6,343.8,196.1,342.9,195.7z"/>
	<path d="M238.9,253.6c-3.4,0.5-6.8,0.6-10-0.8C232.3,252.7,235.7,252.4,238.9,253.6z"/>
	<path d="M276.2,251.1c-2.6,0.8-5.2,1.7-8.3,1.3C270.7,250.8,273.5,251.3,276.2,251.1z"/>
	<path d="M255.5,253.9c-3,1-6,1.1-9.1,1.1C249.3,253.6,252.6,254.4,255.5,253.9L255.5,253.9z"/>
	<path d="M282.2,255.5c1.1,2.1,0.6,4.1,0.1,6.2C281.4,259.6,282.5,257.5,282.2,255.5L282.2,255.5z"/>
	<path d="M208.7,259.6c-0.1,1.1-0.1,2.3-0.2,3.4C208.2,261.9,207.7,260.7,208.7,259.6L208.7,259.6z"/>
	<path d="M244.7,270.7c0-0.7,0-1.3,0-2c0,0,0.1,0,0.1,0c0,0.7,0,1.3,0,2C244.8,270.7,244.8,270.7,244.7,270.7z"/>
	<path d="M208.8,259.7c-0.1-1-0.1-2,0.3-3.1C209.4,257.8,209.5,258.8,208.8,259.7L208.8,259.7z"/>
	<path d="M221.8,256.2c0,0.4,0,0.8,0,1.2c0,0-0.1,0-0.1,0c0-0.4,0-0.8,0-1.2C221.7,256.2,221.8,256.2,221.8,256.2z"/>
	<path d="M255.6,254c0.6-0.4,1.2-0.5,2.5-0.2C256.9,253.8,256.2,253.9,255.6,254L255.6,254z"/>
	<path d="M282.3,255.4c-0.4-0.7-0.6-1.4-0.4-2.3C282.4,253.9,282,254.7,282.3,255.4L282.3,255.4z"/>
	<path d="M319.4,158c-0.2,0.5-0.2,1.1-0.8,1.5C318,158.5,318.7,158.3,319.4,158L319.4,158z"/>
	<path d="M427.5,225.5c0.5-0.4,1-0.9,1.6-1.4C429.2,225.4,428.3,225.4,427.5,225.5z"/>
	<path d="M423.9,228.4c0.7-0.6,1.2-1.4,2.1-1.5C426.6,227.4,426.1,227.7,423.9,228.4z"/>
	<path d="M422.9,229.7c-0.7,0.6-1.2,1.1-1.9,1C421.3,230.1,421.7,229.6,422.9,229.7z"/>
	<path d="M209.6,281.3c0.6,2.4-1.1,3.9-1.8,5.8C207.4,284.8,208.2,282.9,209.6,281.3z"/>
	<path d="M207.1,296.1c0.9,1.1,0.9,2.2,0.3,3.6C206.2,298.5,206.8,297.3,207.1,296.1z"/>
	<path d="M211.7,337.3c0.4,0.8,0.6,1.3,0.1,1.8C210.4,338.6,211.2,338.1,211.7,337.3z"/>
	<path d="M363,172.4c-0.5-0.9,0-1.3,0.8-1.6C364.2,171.7,363.8,172.1,363,172.4z"/>
</g>
</svg>
