<?xml version="1.0" encoding="utf-8"?>
<!-- Generator: Adobe Illustrator 19.1.0, SVG Export Plug-In . SVG Version: 6.00 Build 0)  -->
<svg version="1.2" baseProfile="tiny" id="Layer_2" xmlns="http://www.w3.org/2000/svg" xmlns:xlink="http://www.w3.org/1999/xlink"
	 x="0px" y="0px" width="900px" height="600px" viewBox="144 97 900 600" xml:space="preserve">
<g>
	<path d="M426.9,629.6c-0.4-3.4,0.8-6.6,0.4-10c-0.7-6.3-0.2-12.7-1.9-19c-1.4-5.4-1.9-11.1-2-16.7c-0.3-8.1-1.6-16.2-0.3-24.3
		c0.4-2.3,0.5-4.7,0.9-7.1c1.2-7.7,4-14.7,9.2-20.5c0.7-0.8,1.2-1.6,1.6-2.5c3.2-7.4,6.2-14.8,3.8-23.1c-0.3-1.1-0.4-2.2-0.5-3.3
		c-0.6-4.7-2-9.2-3.7-13.7c-3.1-8.3-6.2-16.6-9.1-25c-2.2-6.5-3-13.4-3.7-20.3c-0.8-7.8-1.1-15.7-4.4-23c-1.3-2.9-2.3-6-3.2-9.1
		c-1.5-4.8-2.4-9.7-3.6-14.5c-3.4-13.1-1.8-25.5,4.6-37.4c3.7-6.7,8.4-12.7,12.8-18.9c3-4.2,3.5-9.2,5-13.9c0.1-0.3,0-0.8,0-1.1
		c-0.5-2.6-0.1-5.2,0.4-7.8c0.7-3.4,1-6.9,0.8-10.4c-0.5-6.8-1.8-13.7-0.4-20.6c0.1-0.7-0.1-1.5-0.1-2.2c-0.2-6.4-1.6-12.7-0.1-19.1
		c0-0.1-0.2-0.3-0.5-0.6c-2.3,2.4-4.5,4.8-6.8,7c-5.5,5.1-11.6,9.6-16.8,15c-1.9,2-4,3.8-5.6,6.1c-2.8,4.2-6.6,7.1-11.5,8.5
		c-2.4,0.7-4.8,1.4-7.2,2.2c-3.4,1.2-6.6,1.1-9.8-1.3c-0.2-0.3-0.6-0.9-0.7-1.5c-1-6.2-3-12.1-4.1-18.3c-1-5-1.6-10-0.4-15.2
		c0.8-3.5,1.3-7.1,1.9-10.7c-0.3,0-0.4,0-0.5,0.1c-0.4,0.3-0.7,0.7-1.1,1.1c-7.6,8.7-17.2,13.8-28.3,16.5c-7.6,1.9-15.3,2.1-23,2.3
		c-7.1,0.2-13.9-1.5-20.4-4.4c-17.4-7.8-28.2-21.4-34.8-38.9c-0.5-1.4-0.3-3-1.5-4.3c-15.8,1.7-31.2,6.5-47.3,7.4
		c-1.2-0.8-2.7-1.6-3.9-2.6c-2.8-2.3-2.9-4.8-0.2-7.3c2.3-2.2,4.8-4.1,8.3-3.4c0.8,0.2,1.8-0.1,2.6-0.3c9.3-2.1,18.8-2.9,28.2-4.4
		c3.3-0.5,6.6-1.1,9.6-1.6c0.7-1.2,0.4-2.1,0.3-2.9c-0.8-8.5,0.1-16.8,2.6-24.9c4.4-14.4,12.8-25.6,26.3-32.7c5.3-2.8,11-4,16.8-5
		c10.1-1.8,20.2-2.1,30.2,0c16.8,3.6,28.9,13.6,37.9,27.9c3.3,5.2,5.5,10.9,7.8,17.2c0.6-2.5,2.4-2.6,3.8-3.1c0.6-1.2,1.1-2.2,1.6-3
		c1.4-0.9,3.1-1,4-2.7c0.6-1.1,2-1.2,3.4-1.2c3.4,0,6.7,0.2,10.1,1c2,0.4,3.9,0.5,5.9-0.2c1.8-0.6,3.6-0.9,5.3,0.1
		c1.4,3.7,1.3,4-1.6,6.9c0,0.7-0.1,1.5,0.6,2.1c12.7-0.9,27.8-3.1,31.2-4.5c-0.7-1.6-1.5-3.1-2.2-4.7c-2-4.6-3.9-9.3-3.9-14.4
		c0-9.1-0.8-18.2-1.2-27.3c-0.2-4.4-0.1-8.8,1.1-13c1.5-5.1,5.3-7.9,10.7-7.6c2.7,0.2,5.5,0.4,8,1.8c0.9,0.5,1.6,0.4,2.7-0.2
		c0.8-2.9,2.6-5.4,5.4-7.1c0.4-0.3,0.8-0.6,1.1-1c3.5-4,7.9-6.4,12.9-8c3.5-1.1,7.1-1.6,10.5-2.7c6.2-1.9,11.9-0.8,17.9,1
		c4.8,1.4,8.2,4.6,12,7.5c0.7,0.6,1.2,1.6,1.6,2.5c2.7,5.4,5.2,10.8,6.3,16.7c0.5,2.3,0.8,4.4,0.1,6.6c-0.4,1.3-0.9,2.6,0.1,3.9
		c8.3-1.1,15.2-1.1,20.5,0.4c14.3,4,23.1,13.7,27.8,27.5c0.3,0.9,0.3,2,1.3,2.9c3.9-0.5,8-1,12-1.5c4.2,2.3,4.4,3.3,1.3,7.7
		c-4,0.6-8.2,1.2-12.5,1.8c-0.1,5.2-0.3,10.2-2,14.9c-4.4,13.1-12.5,22.3-26.7,25.1c-2.5,0.5-4.9,0.6-7.4,1.1
		c-7.2,1.5-14.1,1.1-20.8-2.2c-1.2-0.6-2.5-1.2-3.8-1.6c-0.7-0.2-1.2-1.3-2.4-0.5c2.8,4.8,3.8,10.3,6.3,15.2
		c3.1,5.9,5.4,12.1,7.9,18.2c3.1,7.8,2.9,15.7-1.4,23.2c-3,5.2-6.3,10.2-12,13c-0.3,0.2-0.5,0.5-0.7,0.8c-0.5,1.5-1.1,2.8-1.5,4.3
		c-2.2,8-5.8,15.4-10.4,22.3c-0.7,1-1.3,2-1.6,3.3c-0.7,3.9-1.7,7.8-2.5,11.7c-0.6,2.8-1.5,5.6-1,8.5c0.8,4.4,0,8.7-1.2,12.9
		c-0.3,1.1-0.6,2.1-0.6,3.3c0.1,4,0.3,8,1.6,11.8c1.1,3.2,1.6,6.6,2.6,9.8c1.2,4,1.7,8.1,3.2,12.1c2.2,6.2,3.4,12.8,4.2,19.4
		c1.2,9.3,0.3,18.5-1.1,27.7c-0.6,3.6-0.8,7.2-0.3,10.8c0.5,4.2,0.8,8.5-0.2,12.6c1.7,2.4,1.6,5,1.4,7.6c-0.4,4.8-1.5,9.5-1.8,14.3
		c-0.4,6.8-2.3,13.3-2.3,20.1c-0.1,5.7-1.4,11.1-2.8,16.6c-0.2,0.8-0.5,1.7-0.6,2.6c-0.2,7.7-1.6,15.1-2.7,22.7
		c-0.8,5.9-1.2,11.9-0.9,17.9c1.1-0.5,1.1-1.9,2.4-2c0.3,0.1,0.8,0.2,1.3,0.3c2.8,0.4,4.7,1.4,4.6,4.7c0,1.3,1,2.2,2,3
		c2.8,2.2,5.3,4.8,8.8,6.2c2.7,1.1,4.9,3,6.8,5.2c1.3,1.5,2.8,2.5,4.5,3.2c4.5,1.8,9.1,3.6,13.6,5.3c1.6,0.6,3.3,1.2,4,2.9
		c0.4,1.6,0,3.2-0.2,4.6c-0.6,3.8-1.5,7.8-5.3,9.8c-3.2,1.7-6.6,3-10.4,2.9c-4.7-0.2-9.5-0.6-14.2-1c-1.5-0.1-2.9-0.7-4.3-1.2
		c-4.9-1.6-9.5-3.6-13.9-6.2c-3.7,1.4-7,3.5-10.9,3.2c-2.2-0.2-4.4-0.5-6.6-0.8c-4.7-0.7-9.4-1.1-13.7-3.9c0-3.7-0.4-7.5,0.1-11.1
		c0.6-3.8,0.2-8,2.5-11.2c2.1-3.1,1-7.5,4.2-9.9c1.3-0.5,1.6,1.3,2.9,0.8c-0.6-13.3-3.3-26.5-3.5-40c-2.3,6.2-7,11.2-7.4,18.1
		c-0.3,4.7-1.9,9.3-2.9,13.9c-1.5,7.3-3.1,14.6-6,21.6c-4.6,11.1-5.8,22.7-4.5,34.6c0,0.4,0.2,0.7,0.3,1c1,0.3,2-0.6,3.2,0
		c3,2.2,3.1,5.7,3.1,9.1c1.4,1.2,2.7,2.1,3.8,3.3c3.5,3.5,7.2,7,10.5,10.8c3.4,3.8,6.8,7.5,11.3,10.1c4.3,2.4,6.6,7.1,10.6,9.9
		c2.5,1.7,4,4,4.5,7.3c-1,1.1-0.3,2.9-1.2,4.2c-1.9,2.8-4.3,5.4-7.8,6.1c-3.9,0.7-7.1,2.2-9.4,5.2c-3.9,0.2-7.5,0.4-11.1,0.5
		c-6.1,0.3-11.2-2.7-16.4-5.4c-0.6-0.3-1.1-1-1.7-1.5c-2.3-2.1-4.6-4.3-6.9-6.4c-2.4-2.1-4.9-3.8-8.4-3.5c-1.6,0.1-3.2-0.6-4.7-1.2
		c-3.7-1.5-7.1-3.6-10.5-5.8c-4-2.7-5.7-6.4-6.5-10.9c-0.2-1-0.2-2,0.1-2.9c2.1-6.1,3.9-12.3,5.4-18.6c0.3-1.4,0.8-2.7,1.7-3.7
		c1.1-1.2,2.3-2.6,4.3-2.2c0.3,1.2-0.5,1.5-1,1.9c-1.4,1.2-2.3,2.6-2.6,4.4c-0.5,2.7-1.5,5.3-2.3,7.9c-1.1,3.3-2,6.7-2.8,10.1
		c-0.9,3.6,1.8,9.7,5,11.8c3.2,2,6.5,3.7,10,5c1.4,0.5,2.8,1.1,4.4,1c3.2-0.2,5.6,1.2,8,3.4c6.1,5.8,12.3,11.3,20.8,13.5
		c4.4,1.1,8.7,0.1,13-0.1c0.4,0,0.9-0.4,1.2-0.8c2.5-2.3,5.3-4.1,8.3-5.5c1-5,3.2-7.4,6.9-9.7c-2.9-2.6-5.9-5.1-8.1-8.3
		c-0.4-0.6-1-1.1-1.6-1.5c-2.7-1.8-5.4-3.6-8.1-5.5c-0.9-0.6-2.1-1.1-2.5-2.2c-1-2.5-3.3-3.6-5.1-5.3c-2.2,1.3-4.3,2.4-6.3,3.7
		c-2,1.2-3.3,3.3-5.7,4c-1-1.9-1-1.9-0.8-2.4c1.9-4.4,5.7-6.6,10-8.1c-0.5-1.4-1.4-1.3-2.2-0.9c-3.6,1.5-7,3.3-10,5.9
		c-0.7,0.7-1.2,1.6-2.5,1.6c-1.6-1-1-2.2-0.2-3.4c1.8-2.5,4.3-4.2,7-5.5c1.4-0.7,2.8-1.3,4.1-2c-0.1-0.3-0.2-0.5-0.4-0.8
		c-5.5,1.9-10.5,4.8-15.5,7.7c-0.9-1.2-0.6-1.8-0.1-2.4c3.4-4.2,8.5-5.7,13.3-7.6c-0.2-0.3-0.4-0.8-0.4-0.7
		c-5.7,1.7-11.7,2.9-16.5,6.8c-1-1.2-0.6-2-0.1-2.7c1.1-1.5,2.7-2.2,4.3-3c3.2-1.5,6.6-2.1,10.2-3.5c-1.7-2.6-2.7-5.4-3.6-8.5
		c-5.2,0.4-9.4,2.5-12.8,6c0.4,6.7-3.1,10.2-11.3,12c-1.2-0.2-2-0.9-2.8-2.2C427,634.6,427.2,632,426.9,629.6z M525.7,185.9
		c-0.6-0.2-1,0-1.6,0.3c-0.3,1.6-0.5,3.3-0.9,4.9c-0.3,1.7-2,2.7-3,4.8c2.5-0.7,3.4-2.4,5-3.3c0,0.6,0,1.2,0,1.9
		c4.6,3.6,10.8,3.3,15-0.6c3.3-3.1,3.7-8.7,1-13.1c-2.9-4.7-7.4-6.2-12.6-4.2c0.3,2,0.5,4.1,0.8,6.2c2.8-0.1,5.7-0.7,7.5,2.5
		c0.2,2.9-0.5,4.3-3.1,5.2c-1.6,0.6-3.4,1-5.1,1.3c-1.2,0.2-2.5,0.3-3.6,1C525.4,190.5,526.5,188.3,525.7,185.9z M504.1,109.5
		c-4.3-0.4-8.5-0.4-12.6,0.9c-4.4,1.4-8.9,2.5-13.2,4c-5.3,1.8-9.6,5.3-13.4,9.4c6.2-3.5,12.8-6.1,20-8.7c-0.8,1.4-1.9,1.5-2.8,1.9
		c-1,0.5-2,0.9-3.1,1.4c-4.6,2.2-9.4,4.1-13.7,7c-2.7,1.9-4.9,4.1-6.1,7.5c-2.7,0.3-5.4-1.2-8,0.2c0.8-1.7,2.4-1.8,3.8-2.3
		c-0.1-0.4-0.1-0.6-0.1-0.9c0.7-1.3,2.1,0.3,3.1-0.9c-3.2-0.3-6.1-1.2-9.3-0.4c-3,0.7-4.8,2.4-5.6,5.4c-0.5,2-0.7,3.9-0.7,5.9
		c-0.1,5.5-0.9,11-0.8,16.5c0.2,10.3-0.8,20.8,3.1,30.7c0.7,1.8,1.3,3.8,2.9,5.2c-2.4-7-4.8-14-2.2-22.4c0.4,5.2,0.3,9.6,2,13.7
		c-0.2-13-0.1-25.8,6-37.8c-0.6,4-2.3,7.8-2.8,11.9c-0.3,2.4-0.8,4.7-1.1,7c-0.2,1.5,0,2.8,0.7,4.3c1.3,2.7,1.2,5.8,1.4,8.8
		c0.2,3,0.4,6,0.8,9c0.2,1.7,0.3,3.4,1.2,4.8c1.3,0.2,1.4-0.7,1.5-1.4c0.3-1.6,0.3-3.2,0.1-4.9c-0.5-3.7-0.8-7.5-0.8-11.2
		c-0.8-0.4-0.7,0.9-1.5,0.5c-0.8-0.3-0.4-1-0.4-1.5c0.1-1,0.4-2,0.4-3c-0.1-6.6,1.8-12.8,3.9-19c1-3,1.6-6,1.4-9.2
		c-0.1-2.2-0.3-4.5,0.6-7.1c3.4,0.8,5.5,3.4,8.3,4.8c2.8,1.4,5.5,2.9,8.2,4.5c-3.4-0.2-6.1-2.3-9.2-3.2c2.6,3.5,6.5,5,10.5,7
		c-3.2,0.7-5.5-1.1-8.5-1.9c2.6,3.3,5.9,5,8.8,7.1c-4.1-1.1-7.7-3.2-10.8-6.1c-3.1-2.9-4-6.9-5.7-10.6c-0.6,2.5-1.1,4.7,0,7
		c0.5,1.1,0.6,2.4,0.8,3.7c1.2,8,2.9,13.4,7.2,20.1c4.2,1.4,7.4,4.1,9.1,8.9c0.6-2,1.1-3.5,0.9-5.1c0.1-0.1,0.2-0.2,0.4-0.4
		c2.1,3.8,1.5,7.8,0.3,11.6c-1.3,4.2-3.3,8.1-7.6,10.2c-1.4,0.7-2.7,1.8-4,2.7c0.1,1.3,1.3,1.5,2,2c8.4,7,16,14.7,21.3,24.4
		c2.1,3.9,4.8,7.3,8.1,10.3c1.9,1.7,4,3,6.4,3.5c3.5-2.9,5.3-8.9,3.7-13.3c-1.9-5.5-4.1-10.9-6.3-16.4c-1.6,0.4-2,2.3-3.6,2.6
		c-0.6-1,0.2-1.7,0.6-2.4c4.1-6.3,8.2-12.5,12.3-18.8c1.3-2,2.8-2.9,5.3-2.6c2.1,0.3,4.2-0.1,6.4-0.2c1.2,0,2.2-0.3,3.1-1.5
		c0.1-0.4,0.4-1,0.3-1.6c-0.6-2.9-0.4-5.6,1.1-8.2c0.4-0.7,0-1.5-0.5-2.1c-1.7-1-3.2,1.8-4.9,0.2c0.1-1.8,1.6-1.4,2.7-1.7
		c1.2-0.3,2.5-0.3,3.4-1.5c0.4-1.4-0.2-2.6-0.7-3.9c-0.7-0.8-2.4-0.3-2.5-1.8c2.9-0.9,6.1-0.8,8.8-2.8c-2.3-2.7-4.2-5.2-5.9-8
		c-2.2-3.6-3.4-7.3-1.1-11.1c-2.5-5.8-2.5-12.2-6.2-17.7c-1.3,0.3-2-2.5-4-1.2c-5.7-6.4-13.4-8.2-21.6-9.3c5.2-1.5,9.9,0.1,14.6,1.9
		c-0.5-1.9-2.7-1.6-3.2-3.2c2.5,0.1,4.2,2.3,6.8,3.1c-2.4-2.9-4.2-3.6-6.7-3C506.2,110.2,505.4,109.6,504.1,109.5z M399.9,198.2
		c-1.2-2-2.7-2.8-4.9-2.6c-1.2,0.1-2.5,0.1-3.7,0.3c-2.5,0.3-4.9,0.7-7.3-0.1c-0.9,2.3-0.9,2.3-0.4,5c4.4-0.5,8.8-1,13.6-1.5
		c1.1,2.7,3.2,4.9,4,7.8c0.4,1.3,0.6,2.7,2.3,2.9c-0.1,0.5-0.1,0.9-0.2,1.4c-1.8,0.3-2.3-1.4-3.6-2.2c-5.1,0.7-10.4,1.2-15.4,2.3
		c-0.6,1.4-0.5,2.5-0.4,3.6c0.9,9.4-0.6,18.5-4.1,27.2c-2.2,5.6-4,11.3-5.8,17c-2.6,8.1-3.1,16.4-1,24.8c1.4,5.4,2.8,10.9,3.5,16.6
		c2,1.9,4.3,2.2,6.9,1.4c3.1-1,6.3-1.7,9.3-2.8c3.6-1.2,6.8-3.2,8.7-6.7c0.9-1.6,2.4-2.5,3.6-3.7c6.1-5.7,11.8-11.8,18.2-17.2
		c1.9-1.6,3.7-3.3,5.6-5c1.8-1.6,3.4-3.4,4.4-5.5c1.3-2.8,3.3-5,5.4-7.1c2-2,3.8-4.3,5.7-6.5c0.9-1,1.5-2.2,3.2-2.7
		c0.3,2.7-1.7,4-2.8,5.6c-1.2,1.6-2.6,3-4,4.5c-1.5,1.5-3,3-4.7,4.7c1.5,1.2,3.2,1.7,4.7,2.2c4.6,1.6,9.4,2.6,14.2,3.4
		c9,1.5,16.2-2,22.2-8.1c3.7-3.8,5.9-8.6,4.4-14.4c-0.8-3.3-1.3-6.6-2-9.9c-1.1-6-3.9-11.3-7.1-16.4c-3.8-5.9-9-10.7-11.9-17.5
		c-4.6,2.1-8.7,5.2-13.7,3.8c-4.7,3.1-9.1,6.3-13.8,9.2c-2.6,1.6-4.6,3.8-6.7,5.9c-4,4.2-6.8,9-8.2,14.8c-1,4-2.6,7.8-6,10.5
		l0.1,0.1c1.9-5.7,3.4-11.5,5.9-16.9c1.9-4.1,4.9-7.7,7.8-11.3c2.2-2.7,5.2-4.3,7.9-6.2c2.4-1.7,2.4-1.6,3.6-4.7
		c-9.1,1.5-18.2,2-27.3,4.1c-0.7-1.7,0.4-3.3,0.6-5.1c1.2,0.3,0.3,1.7,1.2,2c0.5-9.7,0.4-10.5-1.6-13.1c-0.7,1.4-0.2,2.8-0.3,4
		c-0.2,1.2,0.3,2.5-0.5,4.1c-1.1-2.9-0.4-5.4-0.3-7.9c-3.1-2.8-14.8-4.6-18.3-2.7c2.7,1.2,5.5,1.2,8.3,1.2c3.1,0,3.9,0.7,5,4.2
		c-2.4-2.7-4.9-2.8-7.5-2.6c-1.6,0.1-3.3,0.1-4.1-1.2c-1.9,0.3-3.4,0.5-4.6,0.7c-1.2,0.7-1.3,1.7-1.9,2.6c0.5,0.2,0.9,0.5,1.2,0.5
		c2.4-0.1,4.7-0.2,7.1-0.5c2.8-0.3,4.8,0.8,6.2,3.2c1.6,2.7,3.3,5.3,3.8,8.4c0.3,1.7,0.3,3.2-1.2,4.4
		C404.1,205.5,402.3,201.8,399.9,198.2z M316.2,237.8c-1.3-4.1-1.7-8.3-1.5-12.6c-1.2-0.2-1.1,0.7-1.3,1.4
		c-1.9,6.9-2.2,14.1-3.2,21.4c-2.8,2.5-5.8,0.8-8.6-0.2c-4.6-1.5-7-4.6-7.8-9.8c1.5-1.1,2.6-2.6,3.5-4.5c1.6-3.3,3.8-6.1,6.5-8.7
		c0.8-0.8,1.9-1.3,2.5-3c-11.2,1.8-22,3.6-32.6,5.4c-0.5,0.9-0.4,1.5-0.1,2.1c3.9,9,8.3,17.6,15.6,24.5c6,5.7,12.8,10.4,20.4,13.8
		c4.6,2,9.7,2.1,15,2.5c-1.4,0.9-2.7,1.3-3.9,1c-2.2-0.5-4.5-0.5-6.7-0.7c-4.8-0.3-8.8-2.7-12.8-5c-13.9-7.9-23.6-19.5-29.1-34.5
		c-0.2-0.5-0.3-0.9-0.5-1.4c-0.1-0.5-0.2-0.9-0.3-1.5c-2.3-0.5-4.2,0.3-6.3,1c4.9,14.7,12.7,27.3,25.4,36.3
		c13.3,9.4,27.9,12.7,43.7,7.4c13.5-4.5,22.7-13.8,28.3-26.7c8-18.3,7.4-36.8-0.4-55c-5-11.9-12.8-21.8-23.6-29
		c-18.2-12.1-40.2-11.8-56.6,1.5c-7.3,5.9-12.1,13.6-15.5,22.2c-3.6,9.3-5.1,21.5-3.5,30.4c1.8,0.6,3.5-0.1,5.2-0.5
		c0.8-1.4,0.3-2.8,0.2-4.1c-0.4-15.1,3.9-28.6,14.1-40c5.4-6.1,12.1-10.4,19.8-13.2c1.9-0.7,3.9-1.1,5.9-1.1c4.3,0,8.5,0.7,12.7,1.3
		c0.8,0.1,1.7,0.3,2.2,1.4c-3.4,0.2-6.7-0.2-10-0.7c-5.1-0.8-9.7,0.4-14.1,2.5c-12.4,5.8-20.1,15.8-24.7,28.4
		c-2.5,6.8-3.5,13.8-3.3,21c0,0.9,0.1,1.7,0.2,2.6c0,0.4,0.2,0.7,0.5,1.5c11.9-1.8,23.8-3.6,35.6-5.3c3.3-4.6,3.3-4.5,8.5-6.5
		c0.7-0.3,1.4-0.6,2.2-0.4c4.6,0.9,8.9,2.5,11.5,6.9c1.7,2.9,1.1,5.8-0.7,8.5c-1.6,2.3-3.6,4.1-6.5,5.4c4,3.6,7.1,7.5,8.3,12.6
		c0.5,1.8,0.8,3.7,0.5,5.6c-0.6,3.6-2.7,5.6-6.3,5.8c-3.4,0.2-6.2-1.3-8.1-4.6C317.2,241.6,316.8,239.7,316.2,237.8z M464,438.5
		c-5.5,0.8-11,0-16.5-0.3c-3-0.2-6-0.1-8.9,0.6c-3.7,0.9-7.5,0.3-11.2,0.3c-0.8,0-1.7-0.3-2.8,0.2c-0.2,1.7,0.4,3.5,0.6,5.3
		c0.8,5.3,1.6,10.6,2.6,15.9c0.9,5.2,2.8,10.1,4.8,14.9c3.2,7.5,5.7,15.2,7.9,23c1.2,4.5,1.3,9.2,1.8,13.7c0.3,2.3-0.4,4.5-0.9,6.7
		c-1.2,4.7-2.7,9.4-5.1,13.7c-2,3.6-4,7.2-5.9,10.9c-1.2,2.3-2.3,4.8-2.9,7.3c-1.6,7.5-3,15-2,22.7c0.1,0.6,0.2,1.2,0.2,1.9
		c-0.3,10.5,1.7,20.6,3.7,30.8c0.7,3.7,0.2,7.5,1,11.2c0.2,1-0.5,2.1-0.7,3.2c-0.6,3.3-1,6.6-0.8,10.3c2.6,0.5,4.8,1.6,4.8,5.3
		c2.9-2.3,5.7-3.6,5.1-7.9c-0.4-2.5,2.1-4.1,4.1-5.4c1.9-1.2,4-2.1,6.1-3.2c-0.9-6.9-0.9-13.9,0.1-20.8c0.3-2.1,0.7-4.2,1.3-6.2
		c2.1-7.1,4.2-14.1,6.6-21.1c1.4-4.2,1.8-8.8,2.8-13.2c0.9-4.4,1.4-8.9,1.5-13.9c1.4,1.4,0.8,2.9,1.9,4c0.3-2.2,0.8-4.4,0.9-6.6
		c0.2-1.8,0.4-3.5,1.1-5.1c2.6-5.6,5.3-11.3,8-16.8c1.2-2.5,2.7-4.8,2-7.8c-0.4-1.6,0.4-3.2,0.9-4.7c1.2-3.3,1.7-6.7,1.8-10.3
		c0.1-5.5,0-11-0.9-16.4c-0.9-5.9-1.3-11.9-1.3-17.9c-0.1-7.5-0.2-15-0.4-22.5c0-1.6-0.3-3.2-0.5-5.1
		C471.1,436.7,467.7,437.9,464,438.5z M493.4,356.8c-4.3,0.6-8.4,2.4-12.6,3.3c-4.9,1.1-9.9,1.1-14.9,1.7c-6,0.8-11.7-0.3-17.3-2
		c-6.4-1.9-12.2-5.1-18-8.3c-1.5-0.8-2.6-1.9-3.7-3.4c-1.5,1.2-2.3,2.9-3.4,4.4c-4.5,6.2-8,13-10.6,20.2c-1.3,3.7-1.5,7.6-1.1,11.5
		c0.9,10,2.1,19.8,6,29.2c2.4,5.7,4.6,11.6,4.6,18.1c0,1.3,0.7,2.6,1.2,4.2c4.7,0.2,9.5,0.8,14.1-0.2c3.5-0.7,6.9-0.9,10.4-0.5
		c5,0.5,10,0.8,15,0.4c4.1-0.4,7.8-1.5,11.4-3.7c0.3-4.8-1.4-9.6,0.1-14.6c2.2,1.1,1.1,3.4,2.2,4.6c9.3-1.7,20.6-7.4,27.1-13.6
		c0-6.5-2.2-12.5-3.7-18.6c-1.8-7-3.3-14.1-4.5-21.3c-0.5-3-0.1-6.2-0.1-9.3c0-1.4,0-2.7,0-4.2C493.9,354.7,494.3,356.3,493.4,356.8
		z M510.2,220c2.1,5,1.8,9.8-1.3,14.2c-2.2,3.2-6.7,4.1-10,2.1c-0.9-0.5-1.7-1.1-2.4-1.8c-3.9-4.3-7.6-8.7-9.6-14.2
		c-0.3-0.9-0.8-1.5-1.4-2.2c-2.6-2.9-5.2-5.8-7.8-8.7c-0.5-0.6-1.2-1.1-1.4-1.7c-2.1-5.4-7.4-7.6-10.8-11.2
		c-1.4-0.2-2.2,0.5-3.1,0.9c0.1,0.3,0.1,0.5,0.2,0.6c9.6,9.7,18.1,20.2,20.4,34.2c0.9,5.2,2.4,10.5,1.5,15.9
		c-1.3,7.8-5.3,13.2-13.1,15.7c-5.6,1.8-11.4,2.5-17.2,3c-6.8,0.6-13-1.5-18.6-5.4c-0.8,9.5,0.6,19,0.6,28.8
		c4.7,2.1,9.5,4.5,14.1,7.1c5.3,3,11,3.8,16.5,5.4c6.5,1.9,13.3,2.1,20,2.9c3.3,0.4,6.4-0.8,9.7-1.2c2.7-0.3,5.4-0.9,8.1-1.4
		c2.9-0.5,5-2,6.2-4.8c1-2.4,2.8-4.5,3.1-7.2c0.3-0.3,0.6-0.6,0.9-0.8c7.7-5.1,12.1-12.6,15-21.1c1.3-3.7,0.3-7.5-0.8-11.1
		c-1.4-4.5-3-8.9-5.7-12.9c-3.3-5-5.6-10.5-7.6-16.2c-1.6-4.6-4.4-8.8-6.7-13.1C508.8,217.4,509.7,218.6,510.2,220z M505.1,477.7
		c-0.1-0.2,0.1-0.7,0.3-1c2-4.3,1.1-8.6,0.8-13.1c-0.4-6.4-1.6-12.7-1.4-19c0.1-3.1,0.6-6.4,0.7-9.6c0.3-7.8-0.4-15.5-0.8-23.8
		c-8.2,6.8-17,11.7-27.7,12.3c0.3,4,0.8,7.7,0.9,11.4c0.1,7,0.7,14,1.1,21c0.2,4.2,0.2,8.5,0,12.8c-0.1,3-0.5,6,0.9,8.8
		c0.3,0.6,0.3,1.5,0.2,2.2c-0.8,6.7,0.8,13.4,0,20.2c-0.1,0.7-0.1,1.5-0.2,2.2c-0.7,4.2-2.1,8.2-2.3,12.5c-0.2,3.4-2.3,6.3-4,9.1
		c1,3.1,1.5,6.2,1.5,9.3c-0.1,6.7,1.2,13.2,1.8,19.8c0.6,6.3,1.5,12.6,0.8,19.2c0.3,1,0.8,2,1.8,2.6c1.4,0.8,1.9,2.2,2.6,3.5
		c2.1,3.9,5.9,4.5,8.7,1.3c1.8-2.1,4-3.8,6.4-4.7c0.4-1.4,0.5-2.6-0.3-3.4c-1.8-2-1.5-4.4-1.7-6.7c-0.3-6.1-0.1-12.3,0.7-18.3
		c1.3-10,2.3-20,4.5-29.9c1-4.4,1.6-8.9,1.8-13.4c0.3-6.1,1.1-12.2,2.6-18.2c0.2-0.9,0.1-1.7-0.4-2.5
		C504.7,480.8,506.4,479.5,505.1,477.7z M443.1,355c6.1,2.2,12.4,4.4,18.9,4.1c6.7-0.4,13.5-0.6,20-2.6c0.6-0.2,1.1-0.9,1.8-1.6
		c4.5,0.1,8.2-2.5,12.3-4.8c0.5-1.8,0.5-3.8,0.3-5.8c-0.6-4.4,0.3-8.7,1.2-13c0.8-3.9,2.4-7.6,2.3-11.7c0-0.8,0.6-1.6,1.1-2.3
		c2-3.1,3.7-6.5,6.2-9.3c0.9-1,1.5-2.3,2.3-4.1c-5.3,2.6-10.7,2.4-16,3.3c-4.4,0.7-8.7,0.7-13.1,0.5c-6.9-0.4-13.6-1.6-20.2-3.6
		c-4.9-1.5-9.6-3.4-14.1-6.1c-3.2-1.9-6.6-3.5-10.1-5.3c-0.5,2.1-0.3,3.9-0.1,5.7c0.9,7.1,1,14.2-0.5,21.3c-0.4,2-0.5,4,0,6
		c0.4,1.5,0.3,3-0.3,4.4c-2.4,5.3-2.9,11.6-7.5,16.1C432.3,350.5,437.6,353,443.1,355z M535.8,159.9c-1.2,2.3-3.5,2.4-5.3,3.2
		c-1.5,1.7,0.3,3.1,0.3,3.9c-0.2,1.8-1.3,2.2-1.9,3.3c0.7,1.1,1.5,2.4,1,4.3c2.3-0.7,4.2-0.5,6.2-0.3c6.6,0.6,10.8,7,10.8,13.7
		c0,2.6-1.9,4.6-3.9,6.1c-0.7,0.5-1.5,0.8-2.2,1.3c-5,3.6-10.3,4-16.8-0.1c-1.3,1.1-2.6,2.3-3.7,3.3c-1.4-0.2-1-1.5-1.6-2
		c-0.7-0.4-1.3,0.9-2,0.2c-1-1,0.8-2.1-0.4-3.3c-2-0.7-3.9,0.8-6,0.7c-1.3,2-2.5,3.8-3.9,5.9c2.6,2.9,5.7,5.9,3,10.2
		c2,4.3,4.7,7.5,9.2,9.1c0.6,0.2,1.2,0.5,1.6,0.9c3.4,3.3,7.8,4,12.2,4.8c8.7,1.6,16.3-0.9,23.2-5.9c7-5.2,11.2-12.3,13.3-20.7
		c4.4-17-2.4-35.7-16.7-45.2c-5.7-3.9-12.2-5.7-19.1-5.9c-0.6,0-1.2,0.1-1.9,0.1c-0.6,0.1-1.2,0.2-2.1,0.3
		C530.6,152.6,534.2,155.7,535.8,159.9z M505.9,576.7c0.5-0.8,1.5-1.4,1.6-2.9c-2-2.3-5-4.4-3.8-8.4c-1.2-0.3-2.1-0.6-3-0.8
		c-2.9,3.6-0.2,8-1.9,11.8c-2.6,0.6-4.5,2.3-6.2,4.4c-2.6,3.2-6,4-9.7,2.3c-0.8-0.4-1.7-0.8-2.1-1.5c-1.2-2.7-3.6-4.6-4.5-7.3
		c-0.6-1.6-1.5-2.4-2.8-3.2c-1.1,0.4-0.9,1.3-1.2,2.1c-0.6,2-0.7,4.2-2.5,5.7c-0.3,0.3-0.5,0.9-0.5,1.4c-0.5,3.8-1.2,7.7-1.3,11.5
		c-0.1,2.3-0.3,4.7-0.1,7c1.5,1.2,3.2,1.7,4.9,2c4.2,0.9,8.4,1.6,12.6,1.9c2.9,0.2,5.4-1,7.9-2.2c2.7-1.3,4.7-1.1,7.2,0.6
		c5.8,3.8,12.3,6.1,19.3,6.4c2.5,0.1,5,0.4,7.5,0.5c2.4,0.1,4.8,0.1,7.1-0.5c3.6-0.9,6.5-2.7,7.5-6.5c0.1-0.4,0.2-0.7,0.4-1.1
		c2.1-4.8,1.7-5.7-3-7.5c-0.5-0.2-1-0.3-1.4-0.5c-4.3-2.5-8.9-3.3-14.1-1.9c0.4-1.9-0.1-3-1.5-3.6c-1.2,0.8-2.1,2.1-4,1.5
		c0.2-1.6,1.7-2.3,2-3.7c-0.2-0.7-0.5-1.4-1.6-1.5c-1.2,1-1.9,3.3-4.3,2.4c-0.6-2.1,1.4-2.8,2-4.3c-0.5-1-1.6-1.4-2.6-2
		c-1.6,1.5-2.2,4.3-5.3,4.2c-0.3-2.5,2-3.7,2.5-5.7c-0.6-1-1.1-1.1-2-0.2c-2.4,2.3-2.4,2.3-4.8,2.7
		C504.4,578.5,505.3,577.7,505.9,576.7z M343.1,273c12.2-3.4,22.4-9.7,29.4-20.5c6.1-9.5,9.4-19.9,9.8-31.1
		c0.8-21.3-6.3-39.7-21.7-54.7c-5.8-5.7-12.8-9.5-20.5-12.1c-8.2-2.7-16.6-3.5-25.6-2.9c3.2,0.6,5.9,1,8.5,1.7
		c13.7,3.7,24.6,11.6,32.8,23c13.2,18.5,17.6,39,11.7,61.2c-3.9,14.8-12.3,26.4-26,33.8c-1.8,1-3.8,1.8-6.2,2.9
		C338.4,274.9,340.7,273.7,343.1,273z M250.2,229c20.7-3.4,41.4-6.7,62.2-10c2.2-0.3,3.9-1.6,5.5-2.1c0.8-1.6,0.7-2.8,0.4-4
		c-1.5-1.7-3.4-1.7-5.5-1.4c-9,1.4-18,2.7-27.1,4.1c-14.2,2.2-28.4,4.2-42.6,6.6c-7.4,1.2-14.8,2.4-22.7,3.7c2,1.5,2.6,3.3,3.6,5
		c0,1.3-1.4,1.7-1.8,3.1C231.7,231.6,241,230.5,250.2,229z M455.7,191.8c4.7-1,8.9-0.2,13.1-1.5c5.7-1.7,8.7-7.4,6.4-12.8
		c-0.9-2.1-1.5-4.5-4.3-5.1c-5-5.5-11-10.4-12.5-18.3C455.3,166.5,457.4,179,455.7,191.8z M571.4,183.5c2.1,14.9-4.3,28.5-18.3,39
		c0.8,0.7,1.6,0.1,2.3-0.1c7.9-2.7,13.3-8.2,17.2-15.4c9.3-17.1,4.9-39.7-9.9-52.2c-5-4.2-10.9-6.5-17.2-7.8
		c-1.1-0.2-2.2-0.4-3.3,0.2C559.5,153.2,568.9,165.5,571.4,183.5z M414.4,205.3c13.4-1.8,26.7-3.5,40-5.3c-0.1-0.8-0.1-1.3-0.1-2.1
		c-3.1,0.6-3.8-2.1-5.5-3.9c-11.5,1-22.9,4.1-34.9,4.7C413.9,201.2,413.7,203.2,414.4,205.3z M307.4,224.3c-4,4.9-7.5,10-9.5,16.1
		c1.3,4.2,4.8,5.3,8.8,6.3c1.5-8.9,1.7-17.9,7.3-25.8C310.7,220.8,309.1,222.2,307.4,224.3z M323.8,244.5c0.5,0,1-0.1,1.4-0.1
		c1.6-1.8,1.7-3.9,1.4-6.1c-0.8-4.8-2.3-9.2-6.1-12.6c-1.7-1.5-2.5-3.7-3.9-5.4c-1.5,0.2-2,1.2-1.3,2.1c1.3,1.5,1.4,3.2,1.7,4.8
		c1.1,5.7,3.2,11,5.2,16.8C322.9,244.3,323.3,244.5,323.8,244.5z M320.6,211.9c0.9,4.5,0.9,4.5-2.6,8.1c0.8,0.9,1.5,1.8,2.3,2.6
		c3.7-0.9,6.3-4,6.7-8c0.3-2.9-1.7-6-4.7-7.5c-4.6-2.3-7.8-1.8-12.2,2.4C314.3,209.3,318.1,208.1,320.6,211.9z M383.9,209.4
		c5.2-0.7,10.3-1.4,15.4-2.1c0.4-2.3-1.4-3.5-2.1-5c-4.9-1.3-9.5,0.6-14.3,1C383.2,205.1,383.5,207.1,383.9,209.4z M578.7,183.2
		c3.7,0,7.1-0.8,10.5-1.2c1.8-0.2,2.9-1.3,2.7-3.3c-0.6-1.3-1.7-1.8-3.1-1.6c-3.4,0.5-6.9,1-10.7,1.5
		C578.4,180.4,578.5,181.7,578.7,183.2z M453.9,193.9c0.7,1.8,1.4,3.6,2.2,5.7c4.3-1.5,7.6-4.2,10.9-7.3
		C462.7,193,458.3,192.2,453.9,193.9z M215.3,226.5c-1.7,1.1-3,2.3-3.6,4.1c1.8,4.1,2.7,4.3,8.7,1.5
		C220.5,228.5,217.9,227.6,215.3,226.5z M530.4,184.6c-1,1.5-0.4,3.4-1.9,4.8c4.8,0.7,5.9,0.1,6.4-3.3
		C533.6,184.7,532.2,184.2,530.4,184.6z M449.5,190.7c0,0.6,0.4,1.5,1.7,1.8c-0.4-3.6-1-7-1.2-10.5c-0.2-3.6,0-7.2,0-10.8
		C448.7,177.6,449.2,184.1,449.5,190.7z M543.1,192.1c3.7-5.5,2.2-11.5-3.2-14.8C543.8,181.3,545.1,186,543.1,192.1z M520.3,187.7
		c-0.2,2.4-1.1,4.5-2.6,6.5c1.9-0.1,2.9-1.5,4-2.3c0.5-1.9,0.4-3.6,1.2-5.4C521.2,186.3,520.4,186.7,520.3,187.7z M511.4,192.5
		c1.8-0.3,3-0.5,4.5-0.8c0.2-1.7,0.6-3.2-0.2-5.3C513.2,187.8,512.5,190,511.4,192.5z M414.6,189.5c-2.2-0.8-2.2-0.9-5.2,0.3
		c1.4,1,3.1,1.2,3.9,3C414.3,191.4,414.8,190.5,414.6,189.5z M505.2,202.6c-1,0.4-1.4,1.1-1.7,2.2c1.8,0.4,3.3,1.3,4.2,3.2
		C507.8,205.6,506.4,204.2,505.2,202.6z M429.8,636.9c0.8,0.4,1.4,0.3,2.1-0.3c-1.6-1.1-0.9-3.3-2.8-4.8
		C428.5,634.1,429,635.6,429.8,636.9z M518.6,186.2c-1.8,1.6-0.3,3.2-0.8,4.5C518.4,189.4,519.3,188.1,518.6,186.2z M494.2,669.7
		c-1.6-0.4-2.1,0.8-2.6,1.9C492.8,671.3,493.8,670.9,494.2,669.7z M451.4,194.7c0.2,0.6,0.5,1.1,1.2,1.3c0,0,0.2-0.2,0.2-0.3
		c-0.3-0.7-0.6-1.3-0.9-2c0,0-0.2,0-0.3,0C451,194,451.3,194.4,451.4,194.7z M527.5,187.8c0.1,0.1,0.2,0.1,0.3,0.1
		c0.3-1,0.8-2-0.4-2.9C527,186.1,527.3,187,527.5,187.8z"/>
	<path d="M938.6,358.1c-1.3,0.8-2.8,1.3-4.2,2c-1.1,1.9,0.9,3.5,0.4,5.4c-0.3,0.3-0.5,0.5-0.8,0.8c-0.3,0.2-0.6,0.4-1.2,0.7
		c1.8,2.2,1.7,4.3-0.3,6.2c0.3,2.3,1.1,4.5,0.4,7c-4.6,4.5-10.6,2.6-16.4,3.4c-0.8,0.9-1.4,2.3-2.1,3.9c6,3.4,12.3,5,19.1,4.6
		c16.2-1,27.7-9.2,34.7-23.6c10.7-22.2,0.2-49.3-22.3-58c-7.7-3-15.5-3.5-23.5-1.2c-0.5,0.1-1,0.2-1.5,1.1c1.7,1.4,3.9,2.5,4.9,4.6
		c1.5,3.2,3.1,6.2,4.4,9.5c1.1,2.8,1.7,5.7,2.6,8.9c3.2,0.1,6.6-0.1,8.9,3c-0.3,0-0.7,0.1-1.3,0.2c0.3,1,1.5,1.4,1.4,2.5
		c-2.5-1.6-4.8-3.6-8-3.8c-0.5,0.4-0.3,1.1-0.5,1.6c-2.2,4.9-0.1,8.9,2.4,12.8c1.1,1.8,2.6,3.3,3,5.5c-1.1,0.3-1.6-0.5-2.1-1.2
		c-1.3-1.8-2.7-3.6-3.8-5.5c-2.2-3.6-3.6-7.4-1.1-11.3c-2.6-6-2.7-12.5-6.2-17.8c-1.6-1.3-3.8-1-5.5-1.9l0.1,0.1
		c-0.6-2.2-2.6-2.9-4.3-3.9c-4.9-2.9-10.4-4.1-16.1-4.7c5.1-1.6,9.8,0.2,14.6,1.4c-1.7-1.5-3.5-2.5-4.8-3.9c-4.7-0.6-9-0.8-13.3,0.6
		c-4.6,1.4-9.4,2.6-14,4.2s-8.5,4.4-11.7,8.2c6.3-2.9,12.6-5.7,19.3-7.5c-4.6,2.4-9.2,4.4-13.8,6.6c-5.3,2.6-10.5,5.3-12.8,11.4
		c-2.4-0.6-4.7-0.6-7.4-0.7c2.5-1.4,3.2-2.1,3.6-2.9c0.7-0.5,1.6,0.5,2.3-0.5c-2.9-0.4-5.7-1-8.6-0.5c-3.4,0.7-5.3,2.6-6,5.9
		c-0.4,2-0.6,4-0.7,6c-0.2,5.4-0.1,10.8-0.9,16.1c-0.2,1.1-0.1,2.3,0.1,3.4c0.4,2.1,0.4,4.2,0.2,6.4c-0.5,5.8,0.2,11.5,1.8,17.1
		c0.2,0.7,0,1.6,1.4,1.6c-0.3-4.7-1.5-9.5,0.4-14.1c0.6,4.1-0.1,8.3,1.9,12.1c0-6.3,0-12.5,0.7-18.7c0.8-6.2,1.9-12.2,5.1-17.6
		c-0.6,3.2-1.6,6.2-2.2,9.4c-0.9,5-2.7,10,0,15c0.2,0.3,0.1,0.7,0.2,1.1c0.2,2.6,0.5,5.2,0.7,7.8c0,0.3,0.3,0.6,0.4,0.9
		c1-0.1,1.7-0.6,2.3-1.6c-0.1-1.6-0.3-3.4-0.4-5.3c-0.6,0.3-0.6,1-1.3,0.8c0-1-0.1-2,0-2.9c0.5-5.3,0.6-10.7,2.6-15.8
		c2.1-5.4,3.3-11,2.7-16.9c-0.1-1.3-0.1-2.8,1.4-4.1c4.6,3,9.3,6,14.4,8.3c0.8,0.4,1.9,0.6,2.5,1.9c-4-1.2-7.4-3.1-11-4.6
		c2.8,3.6,6.8,5.4,11,7.6c-3.2,0.5-5.5-1.2-8.4-1.8c2,2.6,4.6,3.7,6.5,5.7l-0.2,0.2c-0.4,0-0.8,0-1.1-0.1
		c-5.5-2.6-9.9-6.3-11.5-12.5c-0.3-1.1-0.3-2.5-1.8-3c-0.9,7,3.6,23.1,8.5,30.8c4.1,1.4,7.3,4,8.6,7.8c0,4.3-1.9,6.7-4.9,8.8
		c-2.2,1.5-4.7,2.2-6.9,3.6c-10.6,7.1-21.3,14-31.9,21c-2.6,1.7-5.5,3-6.8,6.2c-0.1,0.3-0.6,0.4-0.9,0.6c0.2-1.3,0.9-2.5,0.6-3.9
		c-1.5,2.2-1.5,2.2-0.5,3.9c-1.9,2.1-4.5,3.7-4.2,6.9c-1.1,0.7-1.9,1.3-3.1,1.1c-1-5-0.9-6.2,0.8-8c0.7,2-0.3,4.2,0.7,6.3
		c1.1-1,1.6-2.1,1.5-3.5c-0.4-4.5-1.4-9-1.1-13.1c-1-1-1.8-1.1-2.5-1.1c-3.5-0.5-6.9-0.9-10.4-1.4c-1.1-0.2-2.5,0.2-3.3-1.6
		c5.9-0.1,11.4,0.8,16.8,2c2.4,4.2-0.4,9.1,3,13.7c0.5-5.9,0.1-10.9-0.4-16.1c-5-2.2-10.3-1.4-15.7-1.8c0.6-1.4,1.6-1.3,2.4-1.4
		c3.4-0.1,6.7,0,10.1,0.5c3.6,0.6,4.4,1.4,4.8,5c0.2,1.7-0.2,3.5,1.2,5.6c0.2-4.5-0.9-8.2-1.4-11.7c-1.3-1.2-2.6-1-3.8-1
		c-3.4-0.1-6.8-0.1-10.1-0.2c-0.6,0-1.6,0.4-1.6-1.3c5.6,0,11.1-0.4,17,0.8c5.3-2.9,10.9-5.9,16.6-9c-2.4-5.5-3.3-11-3.3-16.7
		c0-5,0-10-0.7-15c-0.6-4.7-0.6-9.5-0.5-14.2c0-2.5,0.4-5,1.1-7.4c1.5-5.3,5.5-8.1,11-7.6c2.7,0.2,5.5,0.4,8,1.9
		c0.7,0.4,1.4,0.2,2.3-0.3c0.7-1.9,1.5-4.1,3.3-5.5c2.3-1.8,4.2-3.9,6.4-5.8c1-0.9,2.2-1.7,3.4-2.3c7.5-4,15.9-5.2,24.1-6.6
		c3.9-0.6,8,1.7,12,2.7c1.4,0.4,2.8,1,4.2,1.6c0.6-0.3,1.2-0.5,1.8-0.7s1.1-0.5,1.7-0.7c13-5.1,25.6-3.8,37.3,3.6
		c20,12.6,27.1,42.2,11.5,64.6c-5.4,7.7-12.9,12.5-21.3,16.1c-10.9,4.7-21.8,4.7-32.8,0.4c-1-0.4-2-0.9-3.2-1.4
		c-1.9,2.6-3.5,5.3-5.8,7.4s-4.7,4.1-6.2,7.2c1.1,2.3-0.3,4.8,0.1,7.2c0.5,3.4,0.1,6.7,0.2,10.1c0.1,7.2-1.3,14.4-0.2,21.7
		c0.1,0.7,0,1.5,0,2.2c0,5.8-1.5,11.4-2.9,17c-0.9,3.4-2.2,6.3-4.8,8.7c-0.3,0.3-0.9,0.6-0.4,1.6c3.2,0.2,6.4-1,9.8-0.5
		c3.4,0.5,6.7,1.8,10.1,1.8c0.5,1.6,0.6,1.6,1.5,2.3c3.5,2.9,7,5.9,8.1,10.4c2.2,9.2-0.8,17.5-5,25.5c-0.3,0.5-0.7,1-1.1,1.5
		c-2.3,2.8-4.7,5.5-7,8.3c-4.7,5.5-9.6,10.9-15.7,14.9c-2.1,1.4-4.5,2.3-6.2,4.6c-2.2,11.4-5.3,22.7-15.6,30.3
		c3.9,2.8,7.2,5.7,10.5,8.5c4.2,3.6,8.4,7,13.9,8.5c3.1,0.9,6.1,2.3,8.9,3.9c1.6,0.9,2.7,2.2,3.2,4c2.1,8.2-4,16.1-11.2,16.2
		c-1.5,0-3,0.3-4.4,0.7c-10.3,2.6-20.1,1.4-29-4.7c-3.6-2.5-7-2.7-10.9-1c-2.9,1.3-6,1.6-9.2,1.5c-3.2-0.2-6.5,0-9.7,0
		c-4.1,3.5-5.5,8.7-8.6,13c1.1,0.5,2.3-0.2,3.1,0.9c-1,4.8-0.3,9.1,3.5,12.8c2.4,2.3,4.3,5.2,5.9,8.2c1.8,3.3,4.2,5.9,7.8,7.4
		c2.4,1,4.8,2.1,7,3.7c3.3,2.5,6.8,4.7,10.6,6.4c1.1,0.5,2.4,0.9,2.7,2.3c-3.1,0.1-5.8-1-8.3-2.8c-5.4-3.9-11.5-6.3-17.1-9.9
		c-0.3-0.2-0.7-0.1-1.1-0.1c-0.1,0-0.3-0.1-0.4-0.2c-0.3-1.2-1.2-1.8-2.2-2.4c-2.4,2-4.4,4.5-7.4,5.5c-1.3-1.9-1.1-2.7,0.8-4.6
		c1.3-1.4,2.9-2.4,4.6-3c0.2-1.1-0.4-1.7-1.4-2.1c-3.1,1.6-5.7,4.3-9.2,5.4c-1-3.1,0.9-4.2,7.6-8.4c0-0.5-0.3-0.9-1-1.3
		c-3.3,2.7-6.7,5.3-11,6.4c-0.6,0.2-1.2,0.1-2-0.7c0.9-2.5,3.5-3,5.5-4.3c2-1.2,4.1-2.4,6.1-3.5c-0.1-1.1-0.6-1.3-1.5-0.9
		c-4.3,2.1-8.8,3.6-12.8,6.4c-0.9-1.6,0-2.7,0.8-3.7c1.4-1.8,3.4-2.9,5.5-3.8c1.7-0.7,3.5-1.3,5.6-2.1c-1.5-2.4-0.9-5.1-1.1-7.6
		c-5.7,0.7-13.4,3.7-16.5,6.3c-0.1,2,0.6,4.2-0.9,6.1c-2.4,1.2-4.8,2.5-7.3,3.7c-4,2-6.9,1.2-9.7-2.7c-0.4-1.1,1-1.9,0.4-3.3
		c-1.2-3-0.6-5.9,1.5-8.4c0.5-0.6,1.3-1.3,0.8-2.6c-3,0.5-4.9,2.5-6.4,4.9c-1.1,1.7-1.6,3.6-2,5.6c-1,4.4-3.3,8.3-4.8,12.5
		c-1.1,3.4-0.8,6.5,1.2,9.2c2.8,3.9,6,7.4,10.8,8.9c1.2,0.4,1.8,1.7,3.1,2c2.1,0.4,4.1,0.9,6.3,0.7c4.3-0.3,8.3,0.5,10.6,4.7
		c0.4,0.7,0.9,1.1,1.6,1.5c8.8,5.1,18.3,7.9,28.5,8.2c6.5,0.2,15.2-3,18.4-7.6c-0.1-3.2,0-3.4,3.5-6.5c0.3-1.8,0.6-3.6,0.8-5.4
		c1.4,1.9,1.7,5.5,0.5,7.8c-0.6,1.2-1.5,2.3-2.2,3.5c-3.8,6.6-9.8,9.9-17.2,10.6c-10.5,0.9-20.7-0.8-30-6.2
		c-2.4-1.4-4.9-2.5-5.6-5.5c-3.1-1.6-6.2-2.5-9.5-2.1c-1.4,0.1-2.7,0-4.1-0.3c-5.8-1.3-10.6-3.9-14.6-8.4
		c-4.7-5.3-6.5-10.7-3.5-17.4c1.5-3.3,3-6.7,3.2-10.3c0.3-4.4,3-7.3,5.6-10.2c1-1.1,2.5-1.7,4-1.9c0.9-0.1,1.7-0.1,2.8-0.9
		c3.2-5.1,6.3-10.7,9-16.4c1.5-3,2.9-6.1,4.9-8.8c4.3-5.7,6.8-12.2,8.6-19c0.3-1.2,0.4-2.6,1.1-3.5c2.6-3.2,2.9-7.4,4.9-10.8
		c0.8-1.3,1.3-2.7,2.1-4.5c-2.8,1.7-5,3-7.3,4.3c-4.8,2.7-10,3.8-15.2,5.1c-7.4,1.8-14.8,2.2-22.3,0.4c-3.3-0.8-6.6-1.4-10-1.5
		c-6.3-0.2-11.9-2.2-16.9-6.2c-3-2.4-6.3-4.5-9.5-6.7c-5.1-3.3-8-8.1-9.7-13.8c-0.5-1.8-0.6-3.7-1-5.6
		c-19.3-4.8-34.1-16.1-46.1-31.7c-1.7,1.1-3,1.9-4.4,2.8c-9.9,6.5-19.9,13-29.8,19.6c-2.6,1.8-5.5,2.8-8.3,4.3
		c-1.9,1-4.1,1.1-6.2,0.4c-1.4-0.4-2.9-0.8-4.1-1.1c-1.7-2.8-3.2-5.4-4.9-8c-2.5-3.7-5-7.3-2.7-12c0.2-0.5,0-1.2,0.1-1.9
		c0.1-3.4,2-5.9,4.5-7.9c1.8-1.4,3.9-2.5,6-3.7c6.1-3.4,12.3-6.7,18.5-10c5.8-3.1,11.6-6.3,17.2-9.4c0.1-0.4,0.2-0.5,0.2-0.6
		c-0.3-1.1-0.6-2.2-0.8-3.3c-4-14.9-4.8-29.9-1-44.9c5.1-20.1,16.4-35.4,35.4-44.5c6.3-3,12.8-5.4,19.4-7.8
		c12.8-4.5,25.3-4,37.8,0.2c12.8,4.3,23.5,12.1,32.6,22c1,1.1,1.8,2.4,3.1,3.2l-0.1-0.1c1,1.5,2.6,0.1,3.7,0.9
		c0.2,0.2,0.4,0.3,0.2,0.7c-0.2,1-1.7,0.2-2,1.3c1.2,1.5,2.4,3.1,3.8,4.8c4.1-1.6,6.9,0.3,9.4,3.2c0.7,0.7,1.4,1.4,2.1,2.2
		c0.3,1.7,0.2,3.4,1.1,5.1c1.3,0.8,2.6,1.7,4,2.6c-0.5,1-1,1.8-2.3,1.8c-1.4-1.3-2.9-2.6-4.4-3.9c-1,0.6-2.2,1-2.9,2.3
		c3,6.4,5,13.2,6.8,20.2c5.6-1.8,11-2.4,16-5c3.7-1.9,5.9-1,8.6,3c-2.6-0.1-2.6-0.1-6.2-1.8c-5.6,2.6-11.6,5.1-18,6.3
		c2.2,15.2,1.8,29.8-3.3,43.8c5.9,7.3,13.9,9.5,22.3,10.1c5.4,0.4,10.6-1.6,15.3-4.4c1.5-0.9,2.9-2,4-3.7c-3.1-1-5.9-1.7-9-1.6
		c-0.5-1.4-2.5-1.3-3.2-2.8c1.2-0.6,2.3,0.1,3.3,0.4c1.9,0.5,3.8,1.5,5.7,1.5c3.2,0.1,6.5,0.2,9.7-0.6c9.1-2.1,15.5-7.1,18-16.5
		c0.2-0.7,0.4-1.7,1.6-1.6c-0.4,2.2-0.4,2.2,0.3,4.2c1.1-0.6,2.2-1.2,3.2-1.9c4.1-2.6,7.8-5.5,7.5-11.1c0-0.4,0.1-0.7,0.2-1.1
		c2.5-10,2.1-20.3,2.4-30.5c0.2-7.2-0.1-14.5,0.6-21.7c0-0.2-0.2-0.4-0.3-0.6c-0.9,0.3-1.4,0.9-1.8,1.7c0.1,0.8,0.4,1.5,0.4,2.2
		c-0.3,5.7-1.5,11.1-3.7,16.4c-0.8,1.9-1.9,3.5-3.3,5c-0.8,0.9-1.7,1.5-3.2,1.2c-2.2-1.7-4.3-3.9-5.5-6.7
		c-2.2-5.5-4.2-11.1-4.6-16.9c-0.2-3.9-1.5-7.2-3-10.6c-1.3-3.1-2.9-6.1-5-8.8c-0.6-0.8-1.4-1.6,0.1-2.7c2.5,1.3,3.9,3.6,5.3,6
		c2.3,4.1,3.3,8.6,4.5,13.1c1.6,5.8,2.1,11.9,4.3,17.6c1.1,2.8,2.8,4.9,4.6,6.7c1.2,0.2,2,0,2.3-0.8c2.5-6.5,4.8-13.1,5.4-19.6
		c-0.3-1.3-1.7-1.2-1.1-2.6c1.4-1.3,3-2.8,4.6-4.3c0.1-1.6,0.1-2.9,0.2-4.3c0.8-0.2,0.8,1,1.9,0.6c1.6-1.2,3.4-2.8,5-4.5
		c3.2-3.3,5.3-7.3,7.7-11.1c1.6-2.5,3.6-3.3,6.3-2.9c2.5,0.3,5,0,7.5-0.1c1.2,0,2.2-0.4,3-1.4c0.1-0.7,0.4-1.5,0.2-2.1
		c-0.6-2.5-0.5-4.9,1-7.1c0.7-1,0.4-2.2-0.6-2.7c-1.8-0.6-3.3,2-5.1-0.2c1.9-2,5.2-0.6,6.7-3c0.3-1.4-0.6-2.6-0.9-4
		c-0.9-0.3-2.3-0.1-2.5-1.7c2.4-0.1,4.5-0.9,6.6-1.5c1.3-0.3,2.4-0.9,2.1-2.6C940,356.5,940.1,357.1,938.6,358.1z M758.6,551.5
		c0.9-5.4,3-10.3,5.9-14.8c0.4-0.6,0.8-1.3,1.6-2.6c-10,2.7-19.6,3.3-29.1,1.4c-0.9,1.1-0.3,1.9,0,2.7c1.1,2.9,2.5,5.7,4.1,8.4
		c1.7,2.8,3.8,5.2,6.8,6.7c3.5,1.8,6.6,4.4,10.3,5.8c2.3,2.9,6,2.9,9.2,3.7c4.5,1.2,9,2.1,13.6,2.6c4.9,0.6,9.8,1.7,14.8,0.7
		c1.3-0.3,2.8-0.3,4.1-0.2c4.9,0.4,9.4-1,13.7-3.1c2.9-1.4,6-2.6,8.9-3.9c0.8-0.3,1.7-0.6,2.3-1.2c2.5-2.7,5.7-3.5,9.1-4
		c1.6-0.2,3.1-0.4,4.4-1.6c1-0.9,2.6-1.4,4.4-1c-1,1.6-2.5,1.8-3.9,2.3c-5.8,2.2-10.4,5.8-12.9,11.7c-1.5,3.5-3.3,7-5.3,10.3
		c-1.8,3.1-2.1,6.7-3.1,10c-0.8,2.5-1.9,4.9-3.3,7c-3.5,5.2-6.2,10.8-9,16.4c-3.5,6.9-7.4,13.6-11.3,20.3c-1.4,2.5-1.5,4.7,0.1,7
		c1,1.5,2.1,3,3.4,4.8c3-1.5,6-3,8.7-4.4c0.8-1.2,0.9-2.3,0.7-3.4c-0.4-2.5,1-4.1,3-5.1c1.6-0.8,3.2-1.3,4.9-1.8
		c2.5-0.7,5-1.6,7.4-2.8c1.1-3.1,2.5-6.2,4.1-9.1c1.1-2,2.2-3.9,3.8-5.5c3.8-3.8,7.3-7.8,12.1-10.5c3.1-1.7,5.8-3.9,8.2-6.5
		c3.7-3.9,7.4-7.8,11.2-11.7c3.7-3.8,6.5-8.2,9.4-12.5c3.7-0.7,5.6-3.5,7.4-6.2c3.1-4.6,4.4-10,5.9-15.3c0.5-1.7,0.7-3.4-0.7-4.8
		c2.3-3.6,2.7-7.3,0.7-11c-3-5.7-7.1-10.5-12.8-13.9c-1.1-0.6-2.1-1.4-3.4-1.5c-7.5-0.5-14.8-2.5-22.2-3.5
		c-12-1.6-24.1-2.1-36.2-2.6c-1.5-0.1-3,0.2-4.7,0.3c-4.5,5.1-9.5,9.9-15.6,13.1c-6.5,3.4-12.5,7.8-19.3,10.4
		c-2.6,4.2-5.1,8.2-7.3,12.5c-2.3,4.4-1.5,9.3-2.9,13.6c-0.7,0.8-1.3,0.6-1.9,0.6C759.2,556.7,758.1,554.1,758.6,551.5z
		 M723.2,514.8c2.2,0.5,4.3,1.1,6.4,2.1c3.1,1.5,6.5,1.6,10.3,3.1c-16.5,0.4-29.6-4.5-38.3-18.6c-1-1.6-1.7-3.3-3.2-4.8
		c-2.8,1.3-5.3,3-7.7,4.9c0.1,0.4,0.2,0.7,0.3,0.9c12.9,16.8,29.1,28.1,50.4,30.9c12.8,1.7,25-0.7,36-7.5
		c15.1-9.3,24.2-22.9,28.1-40c5.8-25.9,0.2-49.6-14.8-71.2c-8.4-12.1-19.1-21.5-32.5-27.6c-13.6-6.2-27.8-8.2-42.4-3.7
		c-21.4,6.6-34.4,21.5-40.6,42.6c-4.6,15.7-3.8,31.4,0.7,47c0.1,0.5,0.4,0.9,0.7,1.6c2.9-0.9,5.3-2.6,8-4.1c-0.4-2.1-0.8-4-1.1-6
		c-2.2-12.4-2.4-24.7,2.5-36.5c3.6-8.7,7.6-17.5,14.6-24.3c7-6.7,15.2-11.6,24.5-14c5.2-1.3,10.7-2,16.2-0.5c-0.2,1.4-1.3,1-2,1
		c-15.5,0.1-27.7,7.3-38.5,17.6c-0.2,0.2-0.4,0.4-0.5,0.6c-7.4,11-14,22.3-14.9,35.9c-0.5,7.7-0.1,17.3,2.6,24.4
		c11.6-6.2,23.1-12.4,34.6-18.7c0.5-3.4,1.6-6.3,3.3-9.2c1.1-1.9,1.5-4.2,2.4-6.2c1.9-4.1,6.1-5.7,10.6-4.4c0.9,0.3,2,0.3,3,0.4
		c6.5,0.7,11.8,3.7,16.2,8.6c2.4,2.7,3.5,5.7,3.2,9.3c-0.2,2-0.1,3.9,0.4,5.9c0.7,2.9,0.1,5.7-1,8.4c-1.8,4.5-4.7,8.2-8.3,11.5
		c-1.9,1.7-4.1,2.8-7,3.1c0.5,2.8,1.1,5.5,1.5,8.1c1,6.8,2,13.6,2.9,20.4c0.8,5.7-3.4,10-9.2,9.5c-9.2-0.8-14.8-7-14.7-16.2
		c0.1-7,2.4-13.5,5.7-19.6c0.6-1.1,1.2-2.1,1.6-3.3c-1.8,1.4-3,3.3-4.2,5.2c-2.8,4.4-5.6,8.9-8.4,13.3c-1.5,2.3-3.2,4.4-5.2,6.4
		s-4,3.8-7.3,3.5C712.4,509.4,717,513.3,723.2,514.8z M630.3,516.1c1.8,2.1,2.7,4.7,4.2,7c1.2,1.8,2.8,3,4.9,3.9
		c2.4,1,4.4,0.5,6.4-0.8c20.7-13.6,41.4-27.1,62.1-40.7c12.1-8,24.3-15.9,36.4-23.8c2-1.3,3.3-2.9,4.3-5c2.8-5.8-2.5-11-7-11.7
		c-1.5-0.2-2.6,0.6-3.8,1.2c-12.1,6.5-24.2,13.1-36.3,19.6c-21.2,11.5-42.5,22.9-63.7,34.3c-0.4,0.2-0.9,0.6-1.3,0.7
		c-6,1.5-6.5,6.5-7.2,10.5C629.2,513.6,629.5,515,630.3,516.1z M860.6,490.1c-2.4,6.3-7.5,9.3-13.8,9.8c-6.1,0.5-10.5,4-15.5,6.9
		c3.9,0.9,7.7,2,11.6,2c9.5,0,18.7,1.4,27.6,4.6c3.2,1.1,6.4,0.6,9.6,0.4c2-0.1,4-0.4,6-0.2c1.2,0.1,2.2-0.2,3.3-0.6
		c1.2-0.4,2.4-1.3,4.1-0.8c-1.4,1.8-3.1,2.7-5.2,2c-0.9-0.3-1.6-0.1-2.5,0.2c-2.4,1-5,1.7-8.2,2.2c3.4,2.8,6.5,5.4,7.6,9.3
		c1.1,3.7,2.3,7.4,2.6,11.4c2.5-0.8,3.5-3,5.1-4.7c1.5-1.6,3-3.3,4.6-5c1.3,0.9-0.7,1.8,0.2,2.7c3-2.5,5.6-5.3,7.9-8.4
		c2-2.7,4.1-5.3,6.9-7.3c1.9-1.3,3.2-3,4-5.3c1.1-3.1,2.6-6,3.5-9.1c1.1-3.5,0.3-7.2,0.3-10.8c0-4.8-2.1-8-6.5-9.9
		c-1.6-0.7-3-1.7-4.6-2.5c-3-1.4-6-2.3-9.4-2.1c-2.7,0.2-5.5,0.1-8.2-0.4c-2.4-0.4-4.7,0.2-7,1C880.3,486.4,872.2,491.1,860.6,490.1
		z M755.9,382.9c17.5,7,30.6,19.1,40.5,34.9c11.2,18,15.7,37.7,13.6,58.8c-1.3,13.4-5.9,25.8-14.2,36.6c-0.4,0.5-0.7,1-0.9,1.8
		c1-0.8,2-1.5,2.9-2.4c10.8-10.1,17.1-22.6,19.8-37c1.9-10.7,1.7-21.3-0.5-32c-5.3-26.1-19-46.1-41.6-60c-6.2-3.8-13-6.6-20.2-7.7
		c-8.4-1.2-16.9-1.6-25.2,1c-0.3,0.1-0.6,0.4-1.6,1.1C738.4,377.9,747.3,379.4,755.9,382.9z M875.9,578c-0.9,1.3-0.6,3.1-1.8,4.2
		c-1.1,0.6-1.9,0.1-2.8-1c0.6-1.7,1.3-3.5,1.9-5.3c-0.2-1-0.8-1.4-1.7-1.4c-1,1.8-1.1,4.1-2.6,5.5c-1.1,0.6-1.9-0.6-3.1-0.4
		c-1.9,2.1-4,4.3-6,6.6c-4.5,5.1-9.7,9.4-15.3,13.2c-2.7,1.8-4.9,4.1-7.1,6.6c5.1,0,10.2,0.2,15.1-1.6c4.6-1.7,8.9-0.9,13.1,1.8
		c3.2,2.1,6.8,3.6,10.7,4.3c7.3,1.4,14.4,0.2,21.7-0.6c2.9-0.3,4.8-2,6.2-4.3c1.3-2.2,2.1-4.5,2.9-6.9c-1.4-3.1-4.2-4.4-7.1-5.7
		c-2.8-1.2-5.5-2.4-8.3-3.4c-3.1-1.1-5.2-3.8-8.6-4.4c-0.7-0.1-1-1.9-2.5-2.5c-0.7,1-1.3,2.5-3.1,2.6c-0.5-1.7-0.3-3.3,1.1-4.8
		C877.7,579.2,877,578.6,875.9,578z M742.5,490.1c-0.7-6.2-2-12.3-3-18.3c0.3-1.1,0.9-1.7,1.8-1.9c2.7,0.4,2.5,3.1,3.7,4.9
		c5.6-2,8.4-5.8,9.8-11.6c0.8-3.3,1.9-6.7,2.5-10.1c0.9-4.9-0.3-8.9-4-12.2c-1.2-1.1-2.4-2.2-3.4-3.4c-1.3-1.5-2.9-2.4-4.8-2.7
		c-3.1-0.6-6.1-1.3-8.9-1.1c-3.6,4.8-7.6,8.9-10.7,14.2c3.1-0.9,5.9-2.1,7.9-4.1c3.4-3.6,7.2-2.9,11.1-1.8c1.6,0.4,3.1,1.6,4.5,2.7
		c5,3.8,6.1,11.4,2.4,16.5c-0.6,0.8-1.5,1.3-2.3,1.9c-2.6,1.7-5.2,3.4-7.8,5.1c-1.2,0.8-2.2,1.6-2.4,3.1c-0.4,5.2-2.4,9.9-4.3,14.7
		c-1.3,3.4-2.5,6.8-3,10.4c-0.4,2.4-0.3,4.7,0.4,7c1.6,4.8,7.2,7.5,12.8,5.4C744.1,502.6,743.2,496.3,742.5,490.1z M877.3,370.7
		c-7.5,4.6-15.3,8.4-23,12.6c-7.6,4.2-15.4,8.3-23.1,12.4c-0.4,2.8,0.1,5.3,0.5,8c1.4,0,2.2-0.9,3.1-1.4c12.3-8.1,24.7-16.1,37-24.2
		c2.1-1.4,4.1-2.8,6.3-3.6C878.8,372.8,878.4,371.7,877.3,370.7z M807.2,506.6c7-0.1,13.4-0.2,20,0.1c1.5-2.4,3.7-3.9,6.8-5.4
		c-7.2-1.6-13.3-4-18-9.8C813.5,497,810.9,501.7,807.2,506.6z M970,330.1c6.1,13.2,5.8,26.5,0.3,39.9c8.3-14,9-28.3,1.5-42.7
		c-7-13.3-18.3-20.3-33.2-21.7C953,308.8,963.8,316.6,970,330.1z M860.5,375.4c4.8-2.2,9-4.7,13.6-7.2c-5.1-5.2-10.2-10.1-11.6-17.5
		C860,358.7,860.5,366.8,860.5,375.4z M710.2,499.3c1.6,0.2,2.4-1,3.4-1.9c2.3-2.2,3.9-4.8,5.8-7.3c3-4.1,5.9-8.2,8.7-12.6
		c-6.9,3.8-13.4,8.3-20,12.6C708,496.1,708.1,496.5,710.2,499.3z M816.2,414.3c-1.6-2.3-4.3-3-5.9-4.6c-1.2-0.1-2,0.1-3.1,0.8
		c1.3,2.3,2.7,4.7,4,7.1C813.2,416.6,814.7,415.7,816.2,414.3z M853,367.1c0,2,0,4,0,6s0,3.9,0,5.9C854.2,375,853.8,371.1,853,367.1
		z M918.5,311.4c-1.2-2.5-2.2-3.2-5.4-3.5C914.9,309.1,916.7,310.2,918.5,311.4z M702.5,496.5c0.5-1,0.5-1.8-0.2-2.8
		C700.7,495.1,701.9,495.7,702.5,496.5z"/>
	<path d="M844.9,458c5.8,3.3,5.8,3.3,12.2,1.3c7.2-2.3,12.3-7,15.1-14.1c0.8-1.9,1.1-3.8,0.8-5.9c-0.7-6-1.1-12-2.1-17.9
		c-1.7-10-3.3-20-8.6-28.9c-0.3-0.5-0.5-1.2,0.4-1.7c1.2,0.6,1.7,1.9,2.5,3c2.3,3.6,3.3,7.8,4.8,11.8c4.3,11.1,5.7,22.8,5.5,34.6
		c-0.1,8.7-4.4,15.4-12.5,18.9c-5.8,2.4-11.9,3.2-18.2,1.1c-7.3-2.5-13.4-6.6-18.7-12.1c-0.9-0.9-2.1-1.8-1.5-4.4
		C830.8,450,837.8,454.1,844.9,458z"/>
	<path d="M878.4,351.9c1.6,0.4,1.8,2.3,3,3.1c0.3,0.2,0.5,0.1,0.7-0.2c0.4-1-1-2-0.4-3.1c1.4-2.7,3.2-5,5.4-6.9
		c2.1,0.4,3.2,2,4.2,2.7c2,1,3.7,0.3,5.2,0.9c-0.4,1.2-0.8,1.8-1.8,2c-1.4-0.5-2.8-1.1-4.1-1.6l0.1,0.1c-1-1.1-1.6-3.2-3.8-1.6
		c-0.7,0.9-0.4,2.3-1.5,2.9c-1.9,2.3-2,2.9-0.2,5.1c1.9,2.3,3.8,4.4,4.1,7.6c1.4-0.5,0.9-2.4,2.5-2.3c0.4,3,0.3,3.2-3,4.5
		c-2.2-2.6-1.7-7.1-5.7-8.5c-0.9,0.5,0.3,2-1.6,2.6c0.7-2.4-0.8-3.7-1.9-5.1C879,353.6,878.2,352.9,878.4,351.9L878.4,351.9z"/>
	<path d="M896.4,334.6c-0.2,0.8-0.2,1.7,0.2,2.5c-1.3-0.6-1.9,0.6-3.6,1c2.1,0.6,2.8-0.4,3.5-1.1c0.6-0.7,1.5-1.3,1.5-2.4l-0.1,0.1
		c0.7,0.6,1.5,1.3,2.4,2c-2.3,1.2-4.3,2.2-6,3.1c-6.3-1.1-12.8-0.6-18.4-4c1-0.6,1.8,0,2.6,0.2c1.9,0.5,3.8,1.2,5.8,1.4
		C888.6,337.8,893,338,896.4,334.6L896.4,334.6z"/>
	<path d="M890.6,349l-0.1-0.1c0,1.4,1.7,1.8,1.8,3.1c0,1.1-0.9,1.7-1.5,2.5c0.3,0.8,1.4,1.1,1,2.3c-0.6,0.8-1.3,1.6-2.4,2
		c-0.7-0.9-1.4-1.7-2.4-2.4c-2.2-1.5-3-3.5-1.9-6.1c1.1-0.7,0.9-2,1.5-2.9C888.5,346.8,889,349.1,890.6,349z M887.6,350.2
		c-2.4,2.6-2.3,3.1,1.2,5.5c-0.3-1.9,1-2.8,2.3-3.5C890.2,350.5,888.7,350.6,887.6,350.2z"/>
	<path d="M812.8,403.2c-1.8,0-3.5,0.7-5.5,0.1c0.5-1.1-1.4-0.9-1.2-2.5c2.5,0.7,5,0.6,7.3,0.3c1.8,1.7,3.4,3.2,5,4.8
		c1.5,1.5,3.6,2.5,4.2,4.8C818.7,409.1,816.2,405.4,812.8,403.2z"/>
	<path d="M473.2,648.4c-3.4,1.2-5.1,4.9-8.5,5.8c-0.9-0.1-1.3-0.5-1.8-1.3C465.8,647.4,470,645.5,473.2,648.4z"/>
	<path d="M430.4,648.3c0.8-2.5,3-3.4,5.3-2.5c2.1,0.8,3.1,3.1,2.3,5.2c-0.7,1.9-3.2,2.8-5.4,1.9c-1-0.4-1.9-1.1-2.9-1.7
		C429.9,650.1,430.1,649.2,430.4,648.3z M436.5,649.5c0.2-0.9-0.2-1.7-1.1-2.2c-1.5-0.7-2.6-0.3-3.3,1.1c0,1,1,0.6,1.3,1.2
		c0.4,0.6-0.9,1.3,0.1,1.8C435.2,651.8,436.2,651.1,436.5,649.5z"/>
	<path d="M442.4,648.4c2.5,0,4.2,1.8,4.1,4.2c-0.1,2.2-1.6,3.5-4,3.4s-4-1.7-3.9-4C438.6,650,440.2,648.4,442.4,648.4z M442.6,654.6
		c1.3,0,2.3-1.1,2.2-2.4c-0.1-1.3-0.9-2-2.1-2.1c-1.4-0.1-2.3,0.8-2.4,2.2C440.3,653.6,441.3,654.6,442.6,654.6z"/>
	<path d="M920.4,344.3c1.8-2.9,4.7-3,7.6-3.4c-2.6,2-2.6,4.9-2.9,7.8c-1.7-0.6-3.2-1-4.8-2.3c1-0.5,2.4-0.6,2-2.1
		c-0.6,0.1-1.1,0.2-1.7,0.3L920.4,344.3z"/>
	<path d="M882.4,362.3c-1.5,1-2.4-0.4-3.1-1.3c-3-3.5-6.3-6.7-9.6-9.9c-1-1-2.3-2-2.6-4C872.9,351.7,877.3,357.2,882.4,362.3z"/>
	<path d="M447.4,654.7c0.2-3,1.2-3.7,4.1-2.7c0.9,0.3,1.9,0.5,2.6,1.6c-0.8,1.8-1.6,3.8-2.5,5.7c-0.1,0.3-0.5,0.5-1,0.3
		c-0.8-0.7,0.6-2-0.7-2.6c-1.3-0.3-2,1.3-3.7,1C446.8,656.8,447.4,655.8,447.4,654.7z M448.9,653.8c0.2,1.5,1.4,1.5,2.3,1.8
		c0.6-0.3,0.9-0.6,0.9-1.6C451.1,653.4,450.1,652.5,448.9,653.8z"/>
	<path d="M900.1,373.4c2.4,2.1,5.6,2.3,8.9,3.9c-8.1,0.9-14.6-5.1-13.4-11.8C896.4,368.6,897.7,371.3,900.1,373.4z"/>
	<path d="M898.1,334.6c-0.5,0-1.1,0-1.6,0l0.1,0.1c-0.2-1.4,1.8-1.4,1.6-2.7c-2.7-0.3-5.2-1-8.3-2.5c2.7,0.3,4.5,0.5,6.4,0.7
		c1.9,0.3,3.5-0.1,4.7-1.5c0.2-0.2,0.4-0.3,0.9,0.1c-1.2,0.9,0.9,1.1,0.5,2.1c-1,1.7-3.6,1.8-4.3,3.8L898.1,334.6z"/>
	<path d="M919.7,317.3c-0.1,0.4-0.2,0.7-0.2,1.1c-2.2,1.6-4-0.6-6.2-0.9c0.5,1,1.6,1.3,1.1,2.7c-1.6-1.4-3.1-2.7-4.8-4.1
		c3.8-0.7,7,0.4,10.2,1.3L919.7,317.3z"/>
	<path d="M865.6,411.5c1.8,3,1.1,5.9-2.1,9.1C864.2,417.7,863.6,414.4,865.6,411.5z"/>
	<path d="M800.4,400.8c0.8-1.4,1.4-2.7,2.4-4c2.1-2.7,5.1-3.4,7.8-4.6c0.9-0.4,1.4-0.2,1.7,0.7c-2.1,1.1-4.4,1.7-6.5,2.3
		C804.2,397.4,802.7,399.5,800.4,400.8L800.4,400.8z"/>
	<path d="M886.7,317c-4.7,2.1-9.8,3.4-14.5,5.9C876.3,319.1,881.3,317.6,886.7,317z"/>
	<path d="M896.6,318.2c4.6,0.7,9.2,1.1,13.2,3.9C905.2,321.4,900.9,320,896.6,318.2z"/>
	<path d="M929.4,335.9c-1.8,0.2-3.5,0.2-5.2,0.6s-3.4,0.7-5.8,0.4C924.6,334,927.3,333.8,929.4,335.9z"/>
	<path d="M475.4,651.8c-1.3,2-2.6,3.1-4.4,3.9c-0.7,0.3-1.4,0.4-2.2-0.7C470.4,652.5,472.5,651.4,475.4,651.8z"/>
	<path d="M902.1,324.2c-2.4,1-7,0.7-6.6-0.6c0.4-0.2,0.9-0.4,1.3-0.5c-0.2-0.4-0.3-0.7-0.6-1.2c2.4,0.6,4.6,1.5,7,1.9
		C902.8,324,902.4,324,902.1,324.2z"/>
	<path d="M845.8,441.2c2.3,1.5,2.2,3.6,1.6,6.2C844.1,443.7,844.1,443.5,845.8,441.2z"/>
	<path d="M850.5,430.5c2.7-2.1,6.3-2,9.2-3.7C857.3,429.8,853.8,429.8,850.5,430.5z"/>
	<path d="M882.7,370.1c-0.2-2.1-1.5-2.9-2.4-4c-1-1.2-1.9-2.4-2.7-4.5C882.7,366.4,883.5,367.7,882.7,370.1z"/>
	<path d="M891.6,346c2.9,0.2,5-1.3,7.4-2.2C896.7,347.3,894.5,347.9,891.6,346z"/>
	<path d="M894.7,341.8c1.1-0.7,1.7-2.2,3.9-2.2c-2.1,3.1-4.3,4.6-7.8,4.7C891.9,342.9,893.4,342.6,894.7,341.8z"/>
	<path d="M871.9,357.7c1.6,1.4,3.2,2.9,5.4,4.8c-3.2-0.6-4.5-2.4-5.7-4.4C871.6,358,871.8,357.9,871.9,357.7z"/>
	<path d="M858.4,334.8c0.2-1.6,0.3-2.9,2-3.8C860.6,332.9,859.3,333.5,858.4,334.8z"/>
	<path d="M889.7,332.6c1.7-0.3,3.1,0.5,5.2,0.8C892,333.7,892,333.8,889.7,332.6z"/>
	<path d="M911.2,319.6c-1.2-0.6-2.4-1.2-4.4-2.1C909.2,317.3,910.5,317.9,911.2,319.6z"/>
	<path d="M843.6,430.6c-0.6,1.2-1.4,0.9-2.3,0.6C841.8,430,842.6,429.8,843.6,430.6z"/>
	<path d="M874.9,384.7c0.1-1.5,0.6-2.2,2-2.9C876.8,383.6,875.9,384,874.9,384.7z"/>
	<path d="M871.5,358.1c-0.9-0.7-1.8-1.6-2.3-3.6c1.5,1.3,2.3,2.1,2.7,3.2C871.8,357.9,871.6,358,871.5,358.1z"/>
	<path d="M920.6,344.5c-0.5,1.2-1.3,1.8-2.9,1.4c0.9-1,1.7-1.3,2.6-1.6L920.6,344.5z"/>
	<path d="M900.2,327c0.8-0.9,1.5-1.5,2.5-1.7C902,326.4,902,326.4,900.2,327z"/>
	<path d="M869.1,326c0.9-0.4,1.6-0.5,2.9-0.1C870.9,326.3,870.1,326.6,869.1,326z"/>
	<path d="M878.5,348.8c1,0.1,2,0.2,2.3,1.8c-1.1-0.5-2-0.6-2.5-1.6L878.5,348.8z"/>
	<path d="M904.3,328.3c-0.3,0.4-0.6,0.8-2,0.9C903.4,328.7,903.5,327.7,904.3,328.3z"/>
	<path d="M902.5,332.7c0.4,0.8,0.1,1.2-0.5,1.6C901.7,333.7,901.7,333.1,902.5,332.7z"/>
	<path d="M878.5,351.9c-0.8-0.1-1-0.8-1.1-1.7C878,350.8,878.6,351.1,878.5,351.9L878.5,351.9z"/>
	<path d="M848.6,417.7c0.2-0.3,0.5-0.9,1.2-0.4c-0.2,0.6-0.5,1-1.1,1.3C848.4,418.3,848.4,418,848.6,417.7z"/>
	<path d="M842.2,483.1c0.4,0.1,1,0.2,0.7,0.9c-0.8,0.3-1.4,0.2-1.6-0.7C841.5,482.7,841.9,483,842.2,483.1z"/>
	<path fill="none" d="M324.6,248c3.6-0.3,5.7-2.3,6.3-5.8c0.3-1.9,0-3.7-0.5-5.6c-1.3-5.1-4.3-9.1-8.3-12.6c2.9-1.2,4.9-3,6.5-5.4
		c1.8-2.7,2.4-5.6,0.7-8.5c-2.6-4.4-6.9-5.9-11.5-6.9c-0.7-0.1-1.5,0.2-2.2,0.4c-5.2,2-5.2,2-8.5,6.5c-11.8,1.8-23.7,3.5-35.6,5.3
		c-0.3-0.8-0.5-1.2-0.5-1.5c-0.1-0.9-0.2-1.7-0.2-2.6c-0.2-7.2,0.8-14.3,3.3-21c4.6-12.6,12.3-22.6,24.7-28.4
		c4.5-2.1,9.1-3.3,14.1-2.5c3.2,0.5,6.6,0.9,10,0.7c-0.5-1.1-1.4-1.3-2.2-1.4c-4.2-0.7-8.4-1.4-12.7-1.3c-2,0-4,0.5-5.9,1.1
		c-7.7,2.8-14.3,7.1-19.8,13.2c-10.1,11.4-14.5,24.9-14.1,40c0,1.3,0.6,2.7-0.2,4.1c-1.7,0.4-3.5,1.1-5.2,0.5
		c-1.6-8.9-0.1-21.1,3.5-30.4c3.4-8.6,8.2-16.3,15.5-22.2c16.4-13.3,38.4-13.6,56.6-1.5c10.9,7.2,18.6,17.1,23.6,29
		c7.8,18.2,8.4,36.7,0.4,55c-5.6,12.9-14.9,22.2-28.3,26.7c-15.8,5.3-30.4,2-43.7-7.4c-12.7-9-20.5-21.6-25.4-36.3
		c2.1-0.7,4-1.5,6.3-1c0.1,0.5,0.2,1,0.3,1.5c0.1,0.5,0.3,1,0.5,1.4c5.6,15,15.2,26.6,29.1,34.5c4,2.3,8,4.7,12.8,5
		c2.2,0.1,4.5,0.1,6.7,0.7c1.3,0.3,2.6-0.1,3.9-1c-5.3-0.4-10.4-0.4-15-2.5c-7.6-3.4-14.3-8.1-20.4-13.8
		c-7.2-6.9-11.6-15.5-15.6-24.5c-0.2-0.5-0.4-1.2,0.1-2.1c10.6-1.8,21.5-3.5,32.6-5.4c-0.7,1.7-1.7,2.2-2.5,3
		c-2.6,2.6-4.9,5.4-6.5,8.7c-0.9,1.8-2,3.4-3.5,4.5c0.8,5.2,3.1,8.3,7.8,9.8c2.8,0.9,5.8,2.7,8.6,0.2c1-7.4,1.3-14.5,3.2-21.4
		c0.2-0.7,0.1-1.6,1.3-1.4c-0.1,4.3,0.2,8.5,1.5,12.6c0.6,1.9,1.1,3.8,0.3,5.6C318.4,246.7,321.2,248.3,324.6,248z M332.8,268.1
		c-2.8,0.1-4.7,0.9-6.8,1.6C328.3,270.5,330.3,269.6,332.8,268.1z M324.5,160.3c0.9,1.2,2,0.8,3.1,0.6
		C326.7,160.4,325.8,159.4,324.5,160.3z M338.6,265.9c-0.7-0.5-1.3-0.3-1.8,0.8C337.8,266.6,338.2,266.4,338.6,265.9z"/>
	<path fill="none" d="M410.1,243.5c-4,2.2-7.5,4.9-10.1,8.7c-0.6,0.9-1.1,1.9-2.2,2.5c-1.5-9.8,1.7-19.3,1.7-29.2
		c-1.6,0.6-1.8,1.6-1.9,2.5c-1,6.2-1.6,12.4-2.4,18.5c-0.8,6,0.5,11.6,1.9,17.2c0.6,2.2,1.1,4.6,2.5,7c0.9-2.4-0.1-4.3-0.4-6.1
		c-0.3-1.8-0.9-3.6-1.4-5.6c3.8-5.6,7.8-11.1,13.9-14.6c0.6-0.3,1.1-0.6,1-1.4c3.4-2.7,5-6.5,6-10.5c1.4-5.8,4.2-10.6,8.2-14.8
		c2.1-2.2,4.1-4.3,6.7-5.9c4.6-2.9,9.1-6.1,13.8-9.2c5,1.4,9.1-1.7,13.7-3.8c2.9,6.8,8.2,11.6,11.9,17.5c3.3,5.1,6,10.4,7.1,16.4
		c0.6,3.3,1.1,6.7,2,9.9c1.5,5.8-0.6,10.6-4.4,14.4c-6,6.1-13.2,9.6-22.2,8.1c-4.8-0.8-9.6-1.8-14.2-3.4c-1.6-0.5-3.2-1-4.7-2.2
		c1.7-1.7,3.2-3.2,4.7-4.7c1.4-1.5,2.8-2.9,4-4.5s3.2-2.8,2.8-5.6c-1.7,0.5-2.4,1.7-3.2,2.7c-1.9,2.2-3.7,4.4-5.7,6.5
		c-2.1,2.1-4.1,4.3-5.4,7.1c-1,2.2-2.6,3.9-4.4,5.5c-1.9,1.6-3.7,3.4-5.6,5c-6.4,5.4-12.1,11.6-18.2,17.2c-1.3,1.2-2.7,2.1-3.6,3.7
		c-1.9,3.5-5.1,5.5-8.7,6.7c-3.1,1.1-6.2,1.8-9.3,2.8c-2.6,0.8-4.9,0.5-6.9-1.4c-0.7-5.7-2.1-11.1-3.5-16.6
		c-2.2-8.4-1.6-16.7,1-24.8c1.8-5.7,3.6-11.4,5.8-17c3.5-8.7,5-17.8,4.1-27.2c-0.1-1.1-0.3-2.2,0.4-3.6c5.1-1.1,10.4-1.6,15.4-2.3
		c1.3,0.8,1.8,2.5,3.6,2.2c0.1-0.5,0.1-0.9,0.2-1.4l0,0c1.5-1.2,1.5-2.7,1.2-4.4c-0.5-3.2-2.2-5.8-3.8-8.4c-1.4-2.4-3.4-3.5-6.2-3.2
		c-2.4,0.3-4.7,0.4-7.1,0.5c-0.3,0-0.6-0.3-1.2-0.5c0.5-0.9,0.7-1.9,1.9-2.6c1.2-0.2,2.7-0.4,4.6-0.7c0.8,1.3,2.5,1.4,4.1,1.2
		c2.6-0.2,5.2-0.1,7.5,2.6c-1.1-3.6-1.9-4.3-5-4.2c-2.8,0-5.6,0-8.3-1.2c3.5-1.9,15.2-0.1,18.3,2.7c-0.1,2.5-0.8,5,0.3,7.9
		c0.8-1.6,0.3-2.9,0.5-4.1c0.2-1.2-0.4-2.6,0.3-4c2,2.7,2.1,3.5,1.6,13.1c-1-0.3,0-1.7-1.2-2c-0.2,1.8-1.3,3.4-0.6,5.1
		c9.1-2,18.2-2.6,27.3-4.1c-1.3,3-1.3,3-3.6,4.7c-2.7,1.9-5.7,3.5-7.9,6.2c-2.9,3.6-5.9,7.2-7.8,11.3c-2.4,5.4-4,11.3-5.9,16.9
		C411.6,242.7,410.9,243.1,410.1,243.5z M460.4,249.6c1.4,1.1,2.7,2.3,4.3,3.2c-1.3-2.6-2.9-4.9-5.8-6c-1.3-4.1-7-7-10.6-5.6
		c-0.5,0.2-0.8,0.6-0.9,1.1c1.2,1.2,1.2,1.2,7.1,1.3c1.4,1.1,2.6,2.5,4.5,3.1C459,248,459.5,248.9,460.4,249.6z M411.7,209.2
		c-1.4,0.7-2.4,1.3-3.8,2c-2.2,4.8-4.3,9.8-9.6,13.3c5.9-0.7,9-4.5,9.9-11.5C409.7,212,411.5,211.6,411.7,209.2z M386.3,226
		c3.3,2.1,6.1,1.5,9.2-0.2c4.2-2.3,4.4-5.9,4-10c-1.5,1.2-1.5,1.2-1.3,5.6C395.2,224.7,392.9,225.5,386.3,226z M405.2,211.7
		c1.6-0.8,3-3.1,2.6-4.9c-0.9-3.6-0.9-7.4-1.4-11c0-0.2-0.3-0.3-0.9-0.8c-1.2,4.5,0.4,8.5,1,12.8
		C406.2,209.2,404.8,210.2,405.2,211.7z M399.2,276.4c0.9-0.6,1-1.3,0.2-2.5C398.8,274.9,398.9,275.6,399.2,276.4z"/>
	<path fill="none" d="M475.4,440.2c0.2,7.5,0.4,15,0.4,22.5c0.1,6,0.4,12,1.3,17.9c0.9,5.5,1,10.9,0.9,16.4
		c-0.1,3.5-0.6,6.9-1.8,10.3c-0.6,1.5-1.3,3.1-0.9,4.7c0.7,3-0.7,5.3-2,7.8c-2.8,5.5-5.4,11.2-8,16.8c-0.7,1.6-0.9,3.3-1.1,5.1
		c-0.2,2.2-0.6,4.4-0.9,6.6c-1.1-1.1-0.5-2.6-1.9-4c0,5-0.6,9.5-1.5,13.9s-1.3,9-2.8,13.2c-2.4,7-4.5,14-6.6,21.1
		c-0.6,2-1,4.1-1.3,6.2c-0.9,6.9-1,13.9-0.1,20.8c-2.1,1.1-4.2,2.1-6.1,3.2c-2.1,1.2-4.5,2.9-4.1,5.4c0.7,4.3-2.2,5.6-5.1,7.9
		c0.1-3.7-2.1-4.8-4.8-5.3c-0.2-3.7,0.2-7,0.8-10.3c0.2-1.1,0.9-2.3,0.7-3.2c-0.8-3.7-0.3-7.5-1-11.2c-2-10.2-3.9-20.4-3.7-30.8
		c0-0.6-0.1-1.2-0.2-1.9c-1.1-7.7,0.4-15.2,2-22.7c0.5-2.5,1.7-5,2.9-7.3c1.8-3.7,3.9-7.3,5.9-10.9c2.4-4.3,3.8-9,5.1-13.7
		c0.6-2.2,1.2-4.4,0.9-6.6c-0.5-4.6-0.6-9.3-1.8-13.7c-2.2-7.8-4.7-15.5-7.9-23c-2.1-4.8-3.9-9.7-4.8-14.9
		c-0.9-5.3-1.8-10.6-2.6-15.9c-0.3-1.8-0.9-3.6-0.6-5.3c1.1-0.6,2-0.2,2.8-0.2c3.7,0,7.5,0.6,11.2-0.3c3-0.7,5.9-0.7,8.9-0.6
		c5.5,0.3,10.9,1.1,16.5,0.3c3.7-0.5,7.2-1.8,10.9-3.3C475.1,437,475.3,438.6,475.4,440.2z M465.8,518.6c-0.9-2.9-0.7-5.6,0.4-8.3
		c-0.7-2.1-1.8-4-1.9-6.2c-0.1-2,2.2-3.3,1.6-5.5c-4.6,2.4-5.6,5.9-2.5,9.1c1.4,1.4,1.7,2.9,0.9,4.4c-1.7,3.2-0.4,6.1,0.1,9.5
		C466,520.8,466.1,519.6,465.8,518.6z M463.7,496.5c2.4-0.3,4-1.7,5.2-3.7C466.8,493.6,465.1,494.8,463.7,496.5z M431.9,624.9
		c2-0.9,1.4-2.4,1.5-4.2C432.2,622.2,432,623.4,431.9,624.9z M447.6,493.6c0.5,2,1.4,2.8,2.5,3.5
		C449.9,495.7,449.1,494.8,447.6,493.6z M442.2,483c0.2-1.4-0.5-2.3-0.9-3.3C440.8,480.8,440.7,481.9,442.2,483z M462,540
		c-0.6-0.2-0.9,0-0.9,0.4c-0.2,0.8-0.4,1.7,0.6,2.3C462.4,541.8,461.8,540.9,462,540z M461.6,534.8c0-0.3-0.3-0.6-0.5-1
		c-0.3,1.2-0.3,1.2-0.1,2.2C461.5,535.8,461.6,535.3,461.6,534.8z M434.6,597.6c0.1-0.1-0.1-0.4-0.2-0.6c-0.2,0.1-0.4,0.1-0.6,0.3
		s-0.1,0.4,0.2,0.6C434.3,597.8,434.5,597.7,434.6,597.6z"/>
	<path fill="none" d="M495.5,358.9c0,3.1-0.4,6.3,0.1,9.3c1.3,7.1,2.8,14.2,4.5,21.3c1.5,6.2,3.7,12.2,3.7,18.6
		c-6.5,6.2-17.8,11.9-27.1,13.6c-1.1-1.2,0-3.5-2.2-4.6c-1.4,5,0.2,9.8-0.1,14.6c-3.6,2.2-7.4,3.4-11.4,3.7c-5,0.4-10,0.1-15-0.4
		c-3.5-0.4-6.9-0.1-10.4,0.5c-4.7,0.9-9.4,0.4-14.1,0.2c-0.5-1.6-1.2-2.9-1.2-4.2c-0.1-6.4-2.3-12.3-4.6-18.1
		c-3.9-9.4-5.1-19.3-6-29.2c-0.3-3.9-0.2-7.7,1.1-11.5c2.6-7.2,6-14,10.6-20.2c1.1-1.5,1.9-3.2,3.4-4.4c1.1,1.5,2.2,2.7,3.7,3.4
		c5.8,3.2,11.6,6.4,18,8.3c5.6,1.7,11.3,2.8,17.3,2c4.9-0.6,10-0.7,14.9-1.7c4.3-0.9,8.3-2.7,12.6-3.3c0.9-0.5,0.5-2.1,2.1-2.1
		C495.5,356.1,495.5,357.5,495.5,358.9z M476.4,416c-0.9-4.3,2.1-7,2.7-10.6C475.1,408.2,473.7,412.9,476.4,416z M481,401.1
		c1.6-1.1,1.6-1.1,2-4.1C481.3,398.9,481.3,398.9,481,401.1z"/>
	<path fill="none" d="M473.8,164.6c0.9,2.7,2.1,5.1,4.6,6.6c0.2,1.7-0.4,3.2-0.9,5.1c-1.7-4.8-5-7.5-9.1-8.9
		c-4.3-6.7-6-12.1-7.2-20.1c-0.2-1.2-0.2-2.6-0.8-3.7c-1.1-2.3-0.6-4.5,0-7c1.7,3.7,2.6,7.8,5.7,10.6c3.1,2.9,6.6,5,10.8,6.1
		c-2.9-2.1-6.2-3.8-8.8-7.1c3.1,0.8,5.4,2.6,8.5,1.9c-4-2-7.9-3.5-10.5-7c3.1,1,5.8,3.1,9.2,3.2c-2.7-1.6-5.4-3.1-8.2-4.5
		c-2.8-1.4-5-3.9-8.3-4.8c-0.9,2.6-0.7,4.9-0.6,7.1c0.1,3.2-0.4,6.2-1.4,9.2c-2.1,6.2-4,12.4-3.9,19c0,1-0.3,2-0.4,3
		c0,0.5-0.4,1.2,0.4,1.5c0.7,0.4,0.7-1,1.5-0.5c0,3.8,0.3,7.5,0.8,11.2c0.2,1.6,0.2,3.2-0.1,4.9c-0.1,0.7-0.2,1.6-1.5,1.4
		c-0.9-1.4-1-3.2-1.2-4.8c-0.3-3-0.5-6-0.8-9c-0.2-3-0.1-6.1-1.4-8.8c-0.7-1.5-0.9-2.8-0.7-4.3c0.3-2.4,0.8-4.7,1.1-7
		c0.5-4.1,2.2-7.8,2.8-11.9c-6.1,11.9-6.2,24.8-6,37.8c-1.7-4.1-1.6-8.5-2-13.7c-2.5,8.4-0.2,15.4,2.2,22.4
		c-1.6-1.5-2.1-3.4-2.9-5.2c-4-9.9-2.9-20.4-3.1-30.7c-0.1-5.5,0.7-11,0.8-16.5c0-2,0.2-4,0.7-5.9c0.7-3,2.6-4.7,5.6-5.4
		c3.1-0.8,6.1,0.1,9.3,0.4c-1,1.2-2.4-0.4-3.1,0.9c0,0.3,0.1,0.6,0.1,0.9c-1.4,0.5-3,0.6-3.8,2.3c2.7-1.4,5.4,0.1,8-0.2
		c1.1-3.4,3.3-5.6,6.1-7.5c4.3-2.9,9-4.8,13.7-7c1-0.5,2-0.9,3.1-1.4c0.9-0.4,1.9-0.5,2.8-1.9c-7.1,2.6-13.7,5.2-20,8.7
		c3.8-4.1,8.1-7.6,13.4-9.4c4.4-1.5,8.8-2.6,13.2-4c4.1-1.3,8.4-1.3,12.6-0.9c1.2,0.1,2.1,0.7,2.9,1.4l-0.1-0.1
		c0.5,1.5,2.7,1.3,3.2,3.2c-4.8-1.8-9.4-3.3-14.6-1.9c8.2,1.1,16,2.9,21.6,9.3c2.1-1.4,2.8,1.5,4,1.2c3.7,5.5,3.7,11.9,6.2,17.7
		c-2.2,3.8-1,7.5,1.1,11.1c1.7,2.8,3.6,5.3,5.9,8c-2.7,2.1-6,2-8.8,2.8c0.2,1.6,1.8,1,2.5,1.8c0.6,1.3,1.1,2.5,0.7,3.9
		c-0.9,1.2-2.2,1.2-3.4,1.5c-1.1,0.3-2.6-0.1-2.7,1.7c1.8,1.6,3.2-1.2,4.9-0.2c0.5,0.6,0.9,1.4,0.5,2.1c-1.5,2.6-1.7,5.3-1.1,8.2
		c0.1,0.5-0.2,1.2-0.3,1.6c-0.9,1.2-1.9,1.5-3.1,1.5c-2.1,0-4.3,0.5-6.4,0.2c-2.5-0.4-4,0.6-5.3,2.6c-4.1,6.3-8.2,12.5-12.3,18.8
		c-0.4,0.7-1.3,1.3-0.6,2.4c1.5-0.3,1.9-2.1,3.6-2.6c2.1,5.5,4.3,10.9,6.3,16.4c1.6,4.5-0.2,10.4-3.7,13.3c-2.5-0.5-4.6-1.8-6.4-3.5
		c-3.2-3-6-6.4-8.1-10.3c-5.3-9.7-12.8-17.4-21.3-24.4c-0.7-0.6-1.9-0.8-2-2c1.3-0.9,2.6-2,4-2.7c4.3-2.1,6.3-6,7.6-10.2
		c1.2-3.8,1.8-7.8-0.3-11.6C477.1,168.7,475.5,166.6,473.8,164.6z M464.5,156.8c-0.2,1.3,0.4,1.8,1.2,2.2c1.5,2.9,3.4,5.2,6.6,6.5
		c-2.2-2.1-4-4.6-6.3-6.7C465.9,157.9,465.3,157.4,464.5,156.8z M490.7,124.6c0.9,0.9,1.7,1.5,3,1.3c-0.5,0.8-1.5,0.7-2.6,1.1
		c2.8,1.5,5.3,2.1,8.1-0.1c-2-0.3-3.8-0.6-5.6-0.9C492.9,125,491.8,124.9,490.7,124.6z M498.2,134.3c0.4-1.2,0.1-1.8-0.4-2.4
		c-0.2,0-0.6-0.1-0.7,0c-1.5,1.6-3.4,1.8-5.4,1.6c-1.8-0.2-3.6-0.8-5.7-0.5c2.4,1.1,4.7,1.8,7.1,2.2c0.8,0.1,1,0.4,1,1.1
		c-1,0.2-1.6,0.9-2.1,1.7c-1.4,2.3-3.8,2.6-6.2,2.9c-3.5,0.4-6.9-0.2-10.3-1.1c-1.2-0.3-2.3-1.1-3.9-0.7c2.9,1.8,5.9,2.6,9,2.9
		c3.1,0.4,6.2,0.8,9.5,1.2c2.5-1.6,6.1-2,7.5-5.6c-0.7,0.6-1.4,1.1-2.1,1.7c-0.6,0.1-0.7-0.6-1.1-0.8c-1.1-0.2-1,1.5-2.1,1.3
		c-0.7-0.5-0.3-1.3-0.6-2c1.2,0.4,1.9-0.3,2.6-1.2C496.2,136.3,497.2,135,498.2,134.3z M516,149.1c1.2,2,3.3,2.2,5.7,3.1
		c-1.5-2.5,0.7-4.1,0.4-6c1.1-1,2.6-1.4,2.7-3.5c-1.9,1.6-4,1.6-5.9,2.5s-3.1,2.8-5.1,3.6C514.7,149.9,515.4,149,516,149.1
		L516,149.1z M485.6,162.2c0.7-0.7,1.5-1.3,1.9-1.7c0.7-1.4-0.3-1.9-0.6-2.6c0.4-0.9,1.3-1.5,1.4-2.6c-0.8-1.9-2.9-2.6-3.8-4.5
		c2.2,0.7,3.8,2.8,6.2,3c1-0.2,1.3-1,1.8-1.9c-1.9-1.1-4.7,0.8-5.9-2c1.9,0.5,3.8,1,5.7,0c1.2-0.6,2.3-1.3,3-3.3
		c-1.8,0.9-3.2,1.5-4.5,2.1c-1.3,0.7-3,0.2-4.2,1.2c-1.1-0.6-2.2-1.2-3.4-1.9c-2.5,1.8-4.3,4.3-5.7,7.1c-0.4,1.2,0.8,2.1,0.5,3.4
		c-1.8-0.8-2.3-2.8-4.1-4.1c0.8,3.2,3.7,4.9,3.6,8.5c1.2-1.2,0.6-2.4,1.3-3.1c4,1.4,3.5,6,5.7,8.6c3.2-1.4,3.4-1.8,2.8-4.5
		c-1.6,0-1.1,1.8-2.3,2.5c-0.5-2.5-1.5-4.8-3-6.8C483.9,159.5,484.5,161.2,485.6,162.2z M463,150.1c1.2,3.2,12.2,14.7,14.8,15.6
		C473.6,159.9,468.4,155.1,463,150.1z M496,176.6c-2.3-2-3.5-4.8-4.4-7.8c-1,6.7,4.5,11.8,12.7,11.7
		C501.6,179,498.4,178.7,496,176.6z M509.6,121c0.3-0.3,0.7-0.2,1,0.1c1.5,1,3,1.6,5.1,0.3c-3.2-2.4-6.5-2.3-10.4-2.2
		c1.9,1.6,3.5,2.9,5.1,4.2C511.1,122.1,509.7,121.9,509.6,121z M499.4,223.8c-0.3-3.2-1.5-6.1-3.1-8.9c0.6,3.4-0.4,7.1,1.6,10.4
		C499,224.9,499.4,224.4,499.4,223.8z M468.3,126.3c2.4-1.1,4.7-2.2,7.1-3.2s4.8-1.7,7.2-2.6C477.3,121,472.2,122.3,468.3,126.3z
		 M505.8,126c-2.2-2.5-7.2-4.1-13.1-4C497,123.3,501.2,124.6,505.8,126z M525.5,139c-3.6-2.3-7-0.6-10.3,0.9
		C518.7,140.8,521.9,138.7,525.5,139z M486.5,147.2c3.5,0.4,5.6-0.8,7.3-4.4C491.5,144.2,489.4,146.2,486.5,147.2z M494.2,130.9
		c2.6,0.2,3.6-1.2,4.7-2.1C497.3,128.8,496.3,130,494.2,130.9z M496.2,208.5c-0.5,2.2-0.7,3.7,0.9,5.5
		C497.5,211.8,497,210.5,496.2,208.5z M490,137c-2.3-1.1-2.3-1.1-4.9-1C486.8,136.5,488.2,137.3,490,137z M495.3,203.6
		c0.1,0.6,0.3,1.2,1,1.5c0.4-1,0.4-2-0.3-3.1C495.1,202.6,495.2,203.1,495.3,203.6z M507.4,123.1c-1.2-1.8-1.2-1.8-3.7-2
		C504.9,121.7,506,122.4,507.4,123.1z M463.7,130.2c1.6-0.4,2.7-0.6,4.3-1C466.2,128.8,465.1,128.8,463.7,130.2z M456.6,134.2
		c-1.4,0.7-2.2,1.4-1.8,2.9C455.9,136.5,456.6,135.8,456.6,134.2z"/>
	<path fill="none" d="M515.8,228.8c2,5.7,4.3,11.2,7.6,16.2c2.7,4,4.3,8.4,5.7,13c1.1,3.6,2,7.3,0.8,11.1c-2.9,8.5-7.3,16-15,21.1
		c-0.3,0.2-0.6,0.5-0.9,0.8c-0.3,2.7-2,4.8-3.1,7.2c-1.2,2.8-3.3,4.3-6.2,4.8c-2.7,0.5-5.4,1.1-8.1,1.4c-3.2,0.4-6.4,1.5-9.7,1.2
		c-6.7-0.7-13.5-1-20-2.9c-5.5-1.6-11.3-2.4-16.5-5.4c-4.6-2.6-9.4-5-14.1-7.1c0-9.8-1.4-19.3-0.6-28.8c5.6,3.9,11.8,6,18.6,5.4
		c5.8-0.5,11.6-1.1,17.2-3c7.8-2.6,11.8-7.9,13.1-15.7c0.9-5.5-0.6-10.7-1.5-15.9c-2.3-14-10.9-24.4-20.4-34.2
		c-0.1-0.1-0.1-0.4-0.2-0.6c0.9-0.4,1.7-1,3.1-0.9c3.4,3.7,8.8,5.8,10.8,11.2c0.3,0.7,0.9,1.2,1.4,1.7c2.6,2.9,5.2,5.8,7.8,8.7
		c0.6,0.7,1,1.3,1.4,2.2c2.1,5.5,5.7,9.9,9.6,14.2c0.7,0.7,1.5,1.3,2.4,1.8c3.3,2,7.8,1.1,10-2.1c3-4.5,3.4-9.3,1.3-14.2
		c-0.6-1.3-1.5-2.6-1.1-4.3C511.4,220.1,514.2,224.2,515.8,228.8z M479.3,290.7c0.6,0.9,1.6,1.3,2.6,1.2c4.7-0.4,9.5,0.3,14.1-0.9
		c5.2-1.3,9.2-4.2,11.8-9c0.6-1,1.4-2.1,0.4-3.7C494.9,290.7,497.5,288.4,479.3,290.7z M509.3,261.2c-0.4,0.9,0,1.3,0.5,1.6
		C510.5,261.9,509.9,261.6,509.3,261.2z M509,276.6c0.6-0.9,0.8-1.6,0-2.5C508.4,274.9,508.1,275.7,509,276.6z"/>
	<path fill="none" d="M504.7,484.7c-1.5,6-2.3,12-2.6,18.2c-0.2,4.5-0.9,8.9-1.8,13.4c-2.2,9.8-3.1,19.9-4.5,29.9
		c-0.8,6.1-1,12.2-0.7,18.3c0.1,2.3-0.2,4.7,1.7,6.7c0.8,0.8,0.7,2.1,0.3,3.4c-2.5,0.9-4.6,2.6-6.4,4.7c-2.8,3.2-6.6,2.6-8.7-1.3
		c-0.7-1.3-1.2-2.7-2.6-3.5c-0.9-0.6-1.5-1.6-1.8-2.6c0.8-6.5-0.2-12.9-0.8-19.2c-0.6-6.6-1.9-13.1-1.8-19.8c0-3.1-0.5-6.2-1.5-9.3
		c1.7-2.9,3.8-5.8,4-9.1c0.2-4.3,1.6-8.3,2.3-12.5c0.1-0.7,0.1-1.5,0.2-2.2c0.8-6.7-0.7-13.4,0-20.2c0.1-0.7,0.1-1.6-0.2-2.2
		c-1.4-2.9-1-5.9-0.9-8.8c0.2-4.3,0.3-8.5,0-12.8c-0.4-7-1-14-1.1-21c0-3.7-0.5-7.4-0.9-11.4c10.8-0.6,19.5-5.4,27.7-12.3
		c0.4,8.4,1.2,16.1,0.8,23.8c-0.1,3.2-0.6,6.4-0.7,9.6c-0.2,6.3,1,12.7,1.4,19c0.3,4.5,1.2,8.8-0.8,13.1c-0.2,0.3-0.4,0.9-0.3,1
		c1.3,1.8-0.4,3-0.8,4.5C504.8,483,504.9,483.8,504.7,484.7z M489.4,475.6c0.2,1.1,0.5,2.3,2,2.5c0.9,1,2.1,1.5,3.5,1.6
		c1.8,0.2,3.1-0.3,3.2-2.4c3.4-1,5.2-3.4,6.9-6.9c-2.2,1.5-5.6,5-6.9,7c-2.2,0.9-4.5,0.7-6.8,0.8
		C491.6,476.5,490.4,476.1,489.4,475.6z M500.6,485.6c-0.1-2.2-0.7-4-0.1-6.3C496.9,480.8,497,481.8,500.6,485.6z M489.4,579.2
		c-1.4-2.6-3.5-3-5.9-2.5C485,578.4,486.7,579.5,489.4,579.2z M483.3,568c0.8-1.8,0.8-3.5,0-5.3C482.6,564.4,482.3,566.2,483.3,568z
		 M484.1,574.4c0.8-2.2,0.7-2.2-0.6-4.2C482.9,571.8,483.1,573.1,484.1,574.4z M487.8,506.7c-0.8,1.6,0,2.6,1.1,3.8
		C489.2,509,489.2,507.8,487.8,506.7z M483.8,556c-1.7,0.6-1.2,1.8-1.3,3C484.1,558.3,483.8,557.2,483.8,556z M485.9,502.6
		c0.3-0.9,0.3-1.6-1.2-2C484.9,501.7,485.1,502.4,485.9,502.6z M482.9,550.8c-1.2,0.4-0.2,1.1-0.5,1.6
		C483.2,552,483,551.4,482.9,550.8z"/>
	<path fill="none" d="M435.1,330c0.6-1.4,0.7-2.9,0.3-4.4c-0.5-2-0.4-4,0-6c1.5-7.1,1.5-14.1,0.5-21.3c-0.2-1.8-0.4-3.7,0.1-5.7
		c3.5,1.8,6.9,3.3,10.1,5.3c4.4,2.7,9.2,4.5,14.1,6.1c6.6,2,13.3,3.2,20.2,3.6c4.4,0.2,8.7,0.2,13.1-0.5c5.3-0.8,10.7-0.7,16-3.3
		c-0.8,1.8-1.3,3.1-2.3,4.1c-2.6,2.8-4.2,6.2-6.2,9.3c-0.5,0.7-1.1,1.6-1.1,2.3c0.2,4.1-1.5,7.8-2.3,11.7c-0.9,4.3-1.8,8.5-1.2,13
		c0.3,1.9,0.3,4-0.3,5.8c-4.1,2.3-7.8,4.9-12.3,4.8c-0.7,0.7-1.2,1.4-1.8,1.6c-6.5,2-13.3,2.2-20,2.6c-6.5,0.4-12.8-1.9-18.9-4.1
		c-5.6-2-10.8-4.5-15.6-8.9C432.2,341.6,432.6,335.4,435.1,330z M487.6,344.7c0.3,1,1.1,2.1,2.5,3.1c1.8-3.4,1.8-7,2.5-10.5
		C491,339.8,487.9,341.1,487.6,344.7z M459,347.9c1.2,2.4,4.2,3.5,5.6,6c-0.6-2.8-1.6-5.4-4.2-7.2
		C459.6,346.9,459.3,347.2,459,347.9z M459.2,345.1c0-2,0-2-1.4-3.6C458,343.6,458,343.6,459.2,345.1z"/>
	<path fill="none" d="M531.2,147.5c0.6-0.1,1.2-0.2,1.9-0.1c6.9,0.2,13.3,2,19.1,5.9c14.2,9.6,21.1,28.2,16.7,45.2
		c-2.2,8.4-6.3,15.5-13.3,20.7c-6.9,5.1-14.5,7.6-23.2,5.9c-4.4-0.8-8.8-1.5-12.2-4.8c-0.4-0.4-1-0.7-1.6-0.9
		c-4.4-1.5-7.2-4.7-9.2-9.1c2.7-4.3-0.3-7.3-3-10.2c1.3-2.1,2.6-3.9,3.9-5.9c2.2,0.1,4-1.4,6-0.7c1.1,1.2-0.7,2.4,0.4,3.3
		c0.8,0.7,1.3-0.6,2-0.2c0.6,0.6,0.2,1.9,1.6,2c1.2-1,2.4-2.2,3.7-3.3c6.4,4.1,11.8,3.7,16.8,0.1c0.7-0.5,1.6-0.8,2.2-1.3
		c2-1.6,3.9-3.5,3.9-6.1c0.1-6.6-4.1-13.1-10.8-13.7c-2-0.2-3.9-0.4-6.2,0.3c0.6-1.9-0.2-3.2-1-4.3c0.6-1.1,1.7-1.5,1.9-3.3
		c0-0.8-1.8-2.3-0.3-3.9c1.7-0.9,4.1-1,5.3-3.2c-1.6-4.2-5.2-7.3-6.6-12.1C530,147.7,530.6,147.6,531.2,147.5z"/>
	<path fill="none" d="M509.2,577.3c0.9-0.9,1.4-0.8,2,0.2c-0.6,1.9-2.9,3.1-2.5,5.7c3.1,0,3.8-2.7,5.3-4.2c1.1,0.6,2.1,1,2.6,2
		c-0.6,1.5-2.6,2.2-2,4.3c2.4,0.8,3.1-1.5,4.3-2.4c1.1,0.2,1.4,0.8,1.6,1.5c-0.3,1.3-1.8,2.1-2,3.7c1.9,0.6,2.8-0.7,4-1.5
		c1.4,0.6,1.9,1.7,1.5,3.6c5.1-1.3,9.7-0.6,14.1,1.9c0.4,0.2,0.9,0.3,1.4,0.5c4.7,1.8,5.1,2.7,3,7.5c-0.1,0.3-0.3,0.7-0.4,1.1
		c-1.1,3.8-4,5.6-7.5,6.5c-2.3,0.6-4.7,0.6-7.1,0.5c-2.5-0.1-5-0.4-7.5-0.5c-7-0.3-13.5-2.5-19.3-6.4c-2.5-1.7-4.6-1.9-7.2-0.6
		c-2.4,1.2-5,2.4-7.9,2.2c-4.2-0.4-8.4-1.1-12.6-1.9c-1.7-0.4-3.4-0.8-4.9-2c-0.2-2.3,0-4.7,0.1-7c0.1-3.8,0.8-7.7,1.3-11.5
		c0.1-0.5,0.2-1.1,0.5-1.4c1.7-1.5,1.8-3.8,2.5-5.7c0.2-0.8,0.1-1.8,1.2-2.1c1.2,0.8,2.2,1.6,2.8,3.2c0.9,2.7,3.3,4.6,4.5,7.3
		c0.3,0.8,1.2,1.2,2.1,1.5c3.7,1.6,7,0.9,9.7-2.3c1.7-2.1,3.5-3.8,6.2-4.4c1.7-3.8-1-8.2,1.9-11.8c0.9,0.2,1.8,0.5,3,0.8
		c-1.2,4,1.9,6.2,3.8,8.4c-0.2,1.5-1.2,2-1.6,2.9c-0.5,1-1.5,1.7-1.5,3.3C506.8,579.6,506.9,579.7,509.2,577.3z"/>
	<path fill="none" d="M341.5,271.5c13.6-7.4,22.1-19,26-33.8c5.8-22.2,1.5-42.7-11.7-61.2c-8.2-11.4-19.1-19.4-32.8-23
		c-2.6-0.7-5.3-1.1-8.5-1.7c9.1-0.6,17.4,0.2,25.6,2.9c7.7,2.6,14.7,6.4,20.5,12c15.4,15,22.5,33.4,21.7,54.7
		c-0.4,11.2-3.7,21.6-9.8,31.1c-7,10.9-17.3,17.1-29.4,20.5c-2.3,0.7-4.7,1.9-7.8,1.4C337.6,273.3,339.6,272.5,341.5,271.5z"/>
	<path fill="none" d="M224.1,230.7c-1-1.6-1.6-3.5-3.6-5c7.9-1.3,15.3-2.4,22.7-3.7c14.2-2.4,28.4-4.4,42.6-6.6
		c9-1.4,18-2.7,27.1-4.1c2.1-0.3,4-0.3,5.5,1.4c0.3,1.3,0.4,2.5-0.4,4c-1.7,0.5-3.4,1.8-5.5,2.1c-20.7,3.3-41.5,6.6-62.2,10
		c-9.2,1.5-18.5,2.6-27.9,4.9C222.6,232.4,224.1,232,224.1,230.7z"/>
	<path fill="none" d="M470.9,172.4c2.8,0.6,3.4,2.9,4.3,5.1c2.2,5.4-0.7,11.1-6.4,12.8c-4.1,1.2-8.3,0.5-13.1,1.5
		c1.7-12.8-0.5-25.3,2.7-37.7C460,162,465.9,166.9,470.9,172.4z"/>
	<path fill="none" d="M545.4,147c6.3,1.3,12.2,3.6,17.2,7.8c14.9,12.5,19.2,35.1,9.9,52.2c-3.9,7.2-9.3,12.7-17.2,15.4
		c-0.7,0.3-1.5,0.8-2.3,0.1c14-10.5,20.4-24.1,18.3-39c-2.5-17.9-11.9-30.3-29.2-36.3C543.2,146.6,544.4,146.8,545.4,147z"/>
	<path fill="none" d="M448.7,194c1.8,1.8,2.5,4.6,5.5,3.9c0.1,0.8,0.1,1.3,0.1,2.1c-13.4,1.8-26.7,3.5-40,5.3
		c-0.7-2.1-0.4-4.1-0.5-6.6C425.8,198.1,437.2,195,448.7,194z"/>
	<path fill="none" d="M525,192.8c1.1-0.7,2.4-0.7,3.6-1c1.7-0.3,3.4-0.7,5.1-1.3c2.6-0.9,3.3-2.3,3.1-5.2c-1.8-3.2-4.7-2.5-7.5-2.5
		c-0.3-2.2-0.5-4.2-0.8-6.2c5.2-2,9.7-0.4,12.6,4.2c2.8,4.5,2.3,10-1,13.1c-4.2,3.9-10.4,4.1-15,0.6c0-0.6,0-1.3,0-1.9L525,192.8z"
		/>
	<path fill="none" d="M306.7,246.7c-4-1-7.5-2.1-8.8-6.3c2-6.1,5.5-11.2,9.5-16.1c1.7-2.1,3.4-3.5,6.6-3.3
		C308.4,228.8,308.2,237.9,306.7,246.7z"/>
	<path fill="none" d="M317.1,227.3c-0.3-1.7-0.4-3.4-1.7-4.8c-0.8-0.9-0.2-1.9,1.3-2.1c1.3,1.7,2.2,3.9,3.9,5.4
		c3.8,3.4,5.2,7.8,6.1,12.6c0.4,2.1,0.3,4.2-1.4,6.1c-0.5,0-1,0.2-1.4,0.1c-0.5,0-0.9-0.3-1.5-0.4
		C320.3,238.3,318.2,232.9,317.1,227.3z"/>
	<path fill="none" d="M322.3,207.2c3,1.5,4.9,4.6,4.7,7.5c-0.4,4-3,7.1-6.7,8c-0.7-0.9-1.5-1.8-2.3-2.6c3.5-3.6,3.5-3.6,2.6-8.1
		c-2.5-3.8-6.3-2.6-10.5-2.3C314.5,205.4,317.7,204.8,322.3,207.2z"/>
	<path fill="none" d="M397.2,202.2c0.7,1.5,2.5,2.7,2.1,5c-5.2,0.7-10.2,1.4-15.4,2.1c-0.4-2.2-0.7-4.2-1-6.1
		C387.7,202.8,392.3,200.9,397.2,202.2z"/>
	<path fill="none" d="M403.5,210c-1.7-0.2-2-1.6-2.3-2.9c-0.8-2.9-2.9-5.1-4-7.8c-4.8,0.5-9.2,1-13.6,1.5c-0.5-2.7-0.5-2.7,0.4-5
		c2.4,0.9,4.8,0.4,7.3,0.1c1.2-0.1,2.5-0.2,3.7-0.3c2.2-0.2,3.7,0.6,4.9,2.6C402.3,201.8,404.1,205.5,403.5,210L403.5,210z"/>
	<path fill="none" d="M588.9,177.1c1.4-0.2,2.4,0.3,3.1,1.6c0.2,2-0.9,3.1-2.7,3.3c-3.4,0.4-6.8,1.2-10.5,1.2
		c-0.2-1.5-0.3-2.8-0.5-4.6C582,178.1,585.4,177.6,588.9,177.1z"/>
	<path fill="none" d="M456.1,199.5c-0.8-2.1-1.5-3.9-2.2-5.7c4.4-1.6,8.8-0.9,13.1-1.6C463.7,195.3,460.4,198,456.1,199.5z"/>
	<path fill="none" d="M211.7,230.6c0.6-1.8,1.9-3.1,3.6-4.1c2.6,1,5.2,2,5.1,5.6C214.4,234.9,213.5,234.8,211.7,230.6z"/>
	<path fill="none" d="M528.5,189.4c1.5-1.4,0.8-3.3,1.9-4.8c1.8-0.4,3.2,0.1,4.6,1.5C534.4,189.6,533.3,190.2,528.5,189.4z"/>
	<path fill="none" d="M450,182c0.2,3.4,0.8,6.9,1.2,10.5c-1.4-0.3-1.7-1.1-1.7-1.8c-0.4-6.5-0.8-13.1,0.5-19.5
		C450,174.8,449.8,178.4,450,182z"/>
	<path fill="none" d="M525.2,192.7c-1.5,0.8-2.5,2.6-5,3.3c1-2.1,2.7-3.1,3-4.8s0.6-3.4,0.9-4.9c0.6-0.3,1-0.5,1.6-0.3
		c0.8,2.3-0.3,4.6-0.6,6.9L525.2,192.7z"/>
	<path fill="none" d="M543.1,192.1c2-6.1,0.7-10.8-3.2-14.8C545.3,180.6,546.8,186.6,543.1,192.1z"/>
	<path fill="none" d="M521.8,191.9c-1.2,0.8-2.2,2.2-4,2.3c1.5-2,2.4-4.1,2.6-6.5c0.1-1.1,0.9-1.4,2.7-1.2
		C522.2,188.3,522.3,190,521.8,191.9z"/>
	<path fill="none" d="M515.9,191.7c-1.4,0.2-2.7,0.5-4.5,0.8c1.1-2.5,1.8-4.6,4.3-6C516.5,188.5,516.1,190,515.9,191.7z"/>
	<path fill="none" d="M409.4,189.7c3-1.1,3-1.1,5.2-0.3c0.2,1.1-0.4,1.9-1.3,3.3C412.5,191,410.8,190.7,409.4,189.7z"/>
	<path fill="none" d="M503.4,204.8c0.3-1.1,0.7-1.8,1.7-2.2c1.2,1.6,2.6,3.1,2.4,5.4C506.7,206.1,505.2,205.2,503.4,204.8z"/>
	<path fill="none" d="M432,636.6c-0.8,0.6-1.3,0.7-2.1,0.3c-0.9-1.3-1.3-2.9-0.7-5.1C431.1,633.3,430.4,635.6,432,636.6z"/>
	<path fill="none" d="M507.1,110.9c2.6-0.6,4.3,0.1,6.7,3C511.2,113.1,509.5,111,507.1,110.9L507.1,110.9z"/>
	<path fill="none" d="M518.6,186.2c0.7,1.9-0.2,3.2-0.8,4.5C518.3,189.4,516.8,187.8,518.6,186.2z"/>
	<path fill="none" d="M494.2,669.7c-0.5,1.2-1.5,1.6-2.6,1.9C492.1,670.5,492.6,669.3,494.2,669.7z"/>
	<path fill="none" d="M451.8,193.7c0.3,0.6,0.6,1.3,0.9,2c0,0.1-0.1,0.3-0.2,0.3c-0.6-0.2-1-0.7-1.2-1.3c-0.1-0.3-0.4-0.7,0.1-0.9
		C451.6,193.7,451.8,193.7,451.8,193.7z"/>
	<path fill="none" d="M527.8,187.9c-0.1,0-0.2-0.1-0.3-0.1c-0.2-0.8-0.5-1.7-0.1-2.7C528.7,186,528.1,187,527.8,187.9z"/>
	<path fill="none" d="M715.4,501.2c1.9-2,3.7-4.1,5.2-6.4c2.8-4.4,5.6-8.9,8.4-13.3c1.2-1.9,2.4-3.8,4.2-5.2c-0.4,1.2-1,2.3-1.6,3.3
		c-3.2,6.2-5.6,12.6-5.7,19.6c-0.1,9.3,5.5,15.4,14.7,16.2c5.8,0.5,10-3.8,9.2-9.5c-0.9-6.8-1.9-13.6-2.9-20.4
		c-0.4-2.7-1-5.3-1.5-8.1c2.9-0.4,5.2-1.4,7-3.1c3.5-3.2,6.5-7,8.3-11.5c1.1-2.7,1.7-5.6,1-8.4c-0.5-2-0.6-3.9-0.4-5.9
		c0.3-3.6-0.9-6.6-3.2-9.3c-4.3-4.9-9.6-7.9-16.2-8.6c-1-0.1-2-0.2-3-0.4c-4.5-1.4-8.6,0.3-10.6,4.4c-0.9,2-1.3,4.3-2.4,6.2
		c-1.7,2.8-2.8,5.8-3.3,9.2c-11.6,6.2-23.1,12.4-34.6,18.7c-2.7-7.1-3.1-16.6-2.6-24.4c0.8-13.6,7.5-24.9,14.9-35.9
		c0.1-0.2,0.3-0.4,0.5-0.6c10.8-10.3,23-17.5,38.5-17.6c0.7,0,1.8,0.4,2-1c-5.5-1.5-11-0.9-16.2,0.5c-9.3,2.4-17.5,7.3-24.5,14
		S689.7,419.2,686,428c-4.9,11.8-4.8,24.1-2.5,36.5c0.4,2,0.7,3.9,1.1,6c-2.7,1.6-5.1,3.2-8,4.1c-0.3-0.7-0.6-1.1-0.7-1.6
		c-4.5-15.6-5.3-31.3-0.7-47c6.2-21.1,19.2-36,40.6-42.6c14.5-4.5,28.7-2.6,42.4,3.7c13.4,6.1,24.1,15.5,32.5,27.6
		c15,21.7,20.6,45.3,14.8,71.2c-3.8,17.1-13,30.7-28.1,40c-11.1,6.8-23.3,9.2-36,7.5c-21.3-2.8-37.6-14.1-50.4-30.9
		c-0.1-0.2-0.2-0.5-0.3-0.9c2.4-1.9,4.9-3.7,7.7-4.9c1.5,1.4,2.3,3.2,3.2,4.8c8.7,14.1,21.8,19,38.3,18.6c-3.8-1.5-7.3-1.6-10.3-3.1
		c-2-1-4.2-1.6-6.4-2.1c-6.2-1.5-10.8-5.4-15.1-10.1C711.4,505.1,713.4,503.2,715.4,501.2z M747.7,521.2c-2.2-1.5-4-1.1-5.8-0.4
		C743.6,522.1,745.4,521.7,747.7,521.2z M744.4,389.9c1.1,1.3,1.1,1.3,3.7,1.5C746.6,390.2,746.6,390.2,744.4,389.9z M752,392.9
		c0.2,0.5,0.6,0.7,1.4,0.7C752.9,392.9,752.6,392.5,752,392.9z"/>
	<path fill="none" d="M758.3,559.2c0.6-0.1,1.3,0.1,1.9-0.6c1.4-4.2,0.6-9.2,2.9-13.6c2.2-4.2,4.7-8.2,7.3-12.5
		c6.8-2.6,12.7-7,19.3-10.4c6.2-3.2,11.1-8,15.6-13.1c1.7-0.1,3.2-0.3,4.7-0.3c12.1,0.5,24.2,1,36.2,2.6c7.4,1,14.7,3,22.2,3.5
		c1.3,0.1,2.3,0.9,3.4,1.5c5.7,3.4,9.7,8.2,12.8,13.9c2,3.7,1.6,7.4-0.7,11c1.4,1.4,1.2,3.1,0.7,4.8c-1.5,5.3-2.8,10.7-5.9,15.3
		c-1.8,2.6-3.7,5.5-7.4,6.2c-2.9,4.3-5.7,8.7-9.4,12.5c-3.7,3.9-7.5,7.7-11.2,11.7c-2.4,2.6-5.1,4.8-8.2,6.5
		c-4.8,2.6-8.3,6.7-12.1,10.5c-1.6,1.6-2.7,3.5-3.8,5.5c-1.6,2.9-3,6-4.1,9.1c-2.4,1.2-4.9,2-7.4,2.8c-1.7,0.5-3.3,1.1-4.9,1.8
		c-2,1-3.4,2.5-3,5.1c0.2,1.1,0.1,2.2-0.7,3.4c-2.8,1.4-5.7,2.9-8.7,4.4c-1.3-1.8-2.4-3.2-3.4-4.8c-1.5-2.3-1.5-4.6-0.1-7
		c3.9-6.7,7.8-13.4,11.3-20.3c2.8-5.6,5.6-11.2,9-16.4c1.4-2.2,2.5-4.5,3.3-7c1-3.3,1.4-6.9,3.1-10c1.9-3.4,3.7-6.8,5.3-10.3
		c2.6-5.9,7.1-9.4,12.9-11.7c1.3-0.5,2.9-0.7,3.9-2.3c-1.8-0.5-3.4,0.1-4.4,1c-1.4,1.2-2.8,1.4-4.4,1.6c-3.4,0.5-6.6,1.3-9.1,4
		c-0.5,0.6-1.5,0.8-2.3,1.2c-3,1.3-6,2.5-8.9,3.9c-4.4,2.1-8.8,3.4-13.7,3.1c-1.4-0.1-2.8,0-4.1,0.2c-5,1-9.9-0.1-14.8-0.7
		c-4.6-0.6-9.1-1.4-13.6-2.6C764.3,562,760.7,562.1,758.3,559.2L758.3,559.2z M876.4,554.1c3.1-2.3,3.3-5.6,0.6-8.4
		C877.4,548.7,875,551.1,876.4,554.1z M797.2,633c0.9,1.7,1.7,3.2,2.8,5.2C801.8,634.8,800.8,633,797.2,633z M862.7,544.3
		c1.4,2.9,2,3.3,5.5,4.4C866.6,546.3,864.6,545.5,862.7,544.3z M798.9,632.3c1.8-2,2.2-3.9,2.8-5.7
		C799.9,627.7,798.8,629.3,798.9,632.3z M881.4,535.3c-2,0.8-2.6,2.2-2.5,4C879.9,538.2,881.5,537.5,881.4,535.3z M846.6,568.4
		c1.7-1.3,2.6-2.1,2.7-3.5C847.8,565.4,847.2,566.4,846.6,568.4z M841.8,573.7c-1,0.1-1.1,0.6-0.6,1.4
		C841.8,574.9,842.4,574.6,841.8,573.7z M806.2,618.5c1-0.5,1.4-1,1.2-2.1C806.3,616.6,806.1,617.3,806.2,618.5z M856.3,539.9
		c0,1.3,0,1.3,1.6,1.3C857.4,540.3,857,540,856.3,539.9z M851.6,539.5c0-0.8-0.1-1.2-1.2-1.2C850.5,539.3,850.9,539.5,851.6,539.5z
		 M848.8,562.5c1.1-0.6,0.3-1.4,0.2-2C848.3,561.1,848.1,561.8,848.8,562.5z M808.8,614.1c0.8-0.1,1.5-0.3,0.9-1.3
		C809.1,613.1,808.6,613.4,808.8,614.1z"/>
	<path fill="none" d="M636.5,500.8c0.5-0.1,0.9-0.4,1.3-0.7c21.2-11.4,42.5-22.9,63.7-34.3c12.1-6.5,24.2-13.1,36.3-19.6
		c1.2-0.6,2.3-1.5,3.8-1.2c4.4,0.7,9.8,5.9,7,11.7c-1,2.1-2.4,3.7-4.3,5c-12.2,7.9-24.3,15.9-36.4,23.8
		c-20.7,13.6-41.4,27.1-62.1,40.7c-2,1.3-4,1.8-6.4,0.8c-2.1-0.8-3.7-2-4.9-3.9c-1.5-2.3-2.4-4.9-4.2-7c-0.9-1-1.1-2.5-1.1-4.8
		C629.9,507.3,630.5,502.3,636.5,500.8z M651.2,512.2c-0.1-5.2-5.8-10.8-10.2-10.1c0.8,3,4,2,6,3.9
		C646.7,508.9,649.4,510.1,651.2,512.2z M650.5,513.1c-1.3,2.3-1.3,2.4,0,4.7C651.8,514.7,651.8,514.7,650.5,513.1z"/>
	<path fill="none" d="M891.5,474.5c2.7,0.5,5.5,0.5,8.2,0.4c3.4-0.2,6.4,0.7,9.4,2.1c1.6,0.8,3,1.8,4.6,2.5c4.4,1.9,6.5,5.2,6.5,9.9
		c0,3.6,0.7,7.3-0.3,10.8c-1,3.1-2.4,6-3.5,9.1c-0.8,2.2-2.1,4-4,5.3c-2.8,1.9-4.9,4.5-6.9,7.3c-2.3,3.1-4.9,5.9-7.9,8.4
		c-1-0.9,1.1-1.8-0.2-2.7c-1.5,1.7-3,3.4-4.6,5s-2.6,3.9-5.1,4.7c-0.4-4.1-1.5-7.8-2.6-11.4c-1.2-3.9-4.3-6.5-7.6-9.3
		c3.2-0.5,5.8-1.1,8.2-2.2c0.8-0.4,1.5-0.5,2.5-0.2c2.1,0.7,3.8-0.2,5.2-2c-1.6-0.5-2.8,0.4-4.1,0.8c-1.1,0.4-2.1,0.8-3.3,0.6
		c-2-0.2-4,0.1-6,0.2c-3.2,0.2-6.5,0.7-9.6-0.4c-8.9-3.2-18.1-4.6-27.6-4.6c-4,0-7.7-1.1-11.6-2c5-2.8,9.4-6.4,15.5-6.9
		c6.3-0.5,11.4-3.5,13.8-9.8c11.7,1,19.8-3.6,24-14.6C886.8,474.7,889.1,474.1,891.5,474.5z M912.2,495.1c-2.8,2.5-5.7,4.8-9.6,5.2
		C907.4,500.7,910.4,499.1,912.2,495.1z M914.1,498.4c-0.9,1.7-0.3,2.8,0.9,3.9C915.1,500.9,915.5,499.6,914.1,498.4z M899.4,524.7
		c1.9-0.8,1.6-2.2,2-3.3C899.7,521.8,899.4,523,899.4,524.7z M904,516.7c0.8,0,1-0.5,1.1-1.2C904,515.4,903.7,515.8,904,516.7z"/>
	<path fill="none" d="M934.9,366.6c11.5-2.9,17.8-15.1,11.6-25.7c-0.3-0.5-0.6-1.1-1.3-1.1l0.1,0.1c-0.5-2.1-1.8-3.4-3.9-3.9
		l0.1,0.1c-2.3-3.1-5.7-2.9-8.9-3c-0.9-3.1-1.5-6.1-2.6-8.9c-1.3-3.2-2.9-6.3-4.4-9.5c-1-2.2-3.2-3.3-4.9-4.6c0.5-0.9,1-1,1.5-1.1
		c8-2.3,15.8-1.8,23.5,1.2c22.6,8.7,33.1,35.8,22.3,58c-7,14.4-18.5,22.6-34.7,23.6c-6.7,0.4-13-1.2-19.1-4.6
		c0.6-1.6,1.2-2.9,2.1-3.9c5.8-0.7,11.8,1.1,16.4-3.4c0.7-2.5-0.1-4.7-0.4-7c2-1.9,2.1-4,0.3-6.2c0.6-0.3,0.9-0.5,1.2-0.7
		C934.3,366.3,934.7,366.7,934.9,366.6z"/>
	<path fill="none" d="M833.2,656.8c3.8-0.4,6.1-2.7,6.1-6.1c0.4,0,0.8-0.1,1.1,0.1c5.5,3.6,11.7,6,17.1,9.9c2.5,1.8,5.2,3,8.3,2.8
		l-0.1-0.1c-0.3,1.8-0.6,3.7-0.8,5.4c-3.5,3.1-3.5,3.3-3.5,6.5c-3.2,4.6-11.9,7.8-18.4,7.6c-10.2-0.2-19.7-3-28.5-8.2
		c-0.7-0.4-1.2-0.9-1.6-1.5c-2.4-4.2-6.4-5-10.6-4.7c-2.2,0.1-4.2-0.3-6.3-0.7c-1.3-0.3-1.9-1.6-3.1-2c-4.8-1.4-8-5-10.8-8.9
		c-2-2.8-2.3-5.8-1.2-9.2c1.4-4.2,3.8-8.1,4.8-12.5c0.4-1.9,1-3.9,2-5.6c1.5-2.5,3.4-4.4,6.4-4.9c0.5,1.3-0.2,2-0.8,2.6
		c-2.1,2.5-2.7,5.4-1.5,8.4c0.6,1.4-0.7,2.3-0.4,3.3c2.8,3.9,5.7,4.7,9.7,2.7c2.4-1.2,4.9-2.5,7.3-3.7c1.5-2,0.7-4.2,0.9-6.1
		c3.1-2.6,10.8-5.5,16.5-6.3c0.2,2.6-0.4,5.2,1.1,7.6c-2.1,0.8-3.9,1.4-5.6,2.1c-2.1,0.9-4.1,1.9-5.5,3.8c-0.8,1-1.7,2.1-0.8,3.7
		c4-2.8,8.5-4.4,12.8-6.4c0.9-0.4,1.4-0.2,1.5,0.9c-2,1.2-4.1,2.3-6.1,3.5s-4.6,1.8-5.5,4.3c0.8,0.8,1.4,0.9,2,0.7
		c4.3-1.1,7.7-3.7,11-6.4c0.6,0.4,0.9,0.8,1,1.3c-6.7,4.2-8.6,5.3-7.6,8.4c3.5-1.1,6.1-3.8,9.2-5.4c0.9,0.4,1.5,1,1.4,2.1
		c-1.7,0.7-3.3,1.7-4.6,3c-1.9,2-2,2.7-0.8,4.6c3-1,5.1-3.5,7.4-5.5c1,0.6,1.9,1.2,2.2,2.4C835.2,651.4,833.2,653.6,833.2,656.8z
		 M803.7,654.4c2.1,0.7,4.3-0.4,4.9-2.2c0.7-2.2-0.3-4.4-2.5-5.1c-2.2-0.8-4.3,0.1-5.1,2.4c-0.3,0.9-0.5,1.9-0.8,3.1
		C801.6,653.3,802.6,654.1,803.7,654.4z M813.2,657.6c2.5,0,4-1.4,3.9-3.9c-0.1-2.3-1.8-3.8-4.1-3.8c-2.1,0.1-3.7,1.7-3.7,3.8
		C809.2,656,810.8,657.6,813.2,657.6z M820.7,658.5c1.3,0.7-0.1,1.9,0.7,2.7c0.5,0.2,0.8-0.1,1-0.4c0.9-1.9,1.7-3.9,2.4-5.7
		c-0.9-1.3-2.2-1.5-3.4-1.9c-1.9-0.6-3.7,0.5-3.3,2.3c0.5,1.8-0.9,2.6-1.3,3.8C818.5,660.1,819.3,658,820.7,658.5z M838.9,659.1
		c2.3,0.5,3.4-0.9,4.4-2.3c0.6-0.8,0.6-1.6-0.6-2.2C840.9,655.4,839.3,656.6,838.9,659.1z"/>
	<path fill="none" d="M730,377c8.3-2.6,16.8-2.3,25.2-1c7.2,1.1,14,3.9,20.2,7.7c22.6,13.9,36.3,33.9,41.6,60
		c2.2,10.7,2.5,21.3,0.5,32c-2.6,14.4-8.9,27-19.8,37c-0.9,0.8-1.9,1.6-2.9,2.4c0.1-0.8,0.5-1.3,0.9-1.8
		c8.3-10.8,12.9-23.1,14.2-36.6c2.1-21.1-2.3-40.8-13.6-58.8c-9.9-15.8-23-27.9-40.5-34.9c-8.6-3.4-17.5-5-27.5-4.9
		C729.4,377.3,729.7,377.1,730,377z"/>
	<path fill="none" d="M877.3,585.2c1.9-0.1,2.4-1.6,3.1-2.6c1.5,0.6,1.8,2.4,2.5,2.5c3.3,0.7,5.5,3.4,8.6,4.4c2.8,1,5.6,2.2,8.3,3.4
		c2.9,1.2,5.7,2.6,7.1,5.7c-0.8,2.4-1.6,4.8-2.9,6.9c-1.4,2.4-3.2,4-6.2,4.3c-7.2,0.7-14.4,2-21.7,0.6c-3.9-0.7-7.4-2.2-10.7-4.3
		c-4.2-2.7-8.4-3.5-13.1-1.8c-4.9,1.8-9.9,1.6-15.1,1.6c2.2-2.5,4.5-4.8,7.1-6.6c5.6-3.8,10.8-8.1,15.3-13.2c2-2.2,4-4.4,6-6.6
		c1.2-0.2,1.9,1,3.1,0.4c1.5-1.5,1.5-3.8,2.6-5.5c0.9,0.1,1.5,0.5,1.7,1.4c-0.6,1.7-1.3,3.6-1.9,5.3c0.8,1.1,1.6,1.5,2.8,1
		c1.2-1.1,0.9-2.9,1.8-4.2c1.1,0.6,1.8,1.3,2.5,2.4C877,581.9,876.8,583.4,877.3,585.2z"/>
	<path fill="none" d="M732.1,503.5c-0.7-2.3-0.8-4.7-0.4-7c0.5-3.6,1.7-7,3-10.4c1.9-4.8,3.9-9.5,4.3-14.7c0.1-1.6,1.2-2.4,2.4-3.1
		c2.6-1.7,5.2-3.4,7.8-5.1c0.8-0.5,1.7-1.1,2.3-1.9c3.7-5.1,2.6-12.7-2.4-16.5c-1.4-1.1-2.9-2.2-4.5-2.7c-3.9-1-7.7-1.8-11.1,1.8
		c-1.9,2-4.8,3.2-7.9,4.1c3.1-5.3,7.1-9.4,10.7-14.2c2.9-0.3,5.9,0.4,8.9,1.1c1.9,0.4,3.5,1.2,4.8,2.7c1,1.2,2.2,2.4,3.4,3.4
		c3.7,3.3,4.8,7.3,4,12.2c-0.6,3.4-1.7,6.7-2.5,10.1c-1.4,5.7-4.3,9.5-9.8,11.6c-1.2-1.7-0.9-4.4-3.7-4.9c-0.9,0.2-1.5,0.8-1.8,1.9
		c1,6,2.3,12.1,3,18.3c0.7,6.3,1.5,12.5,2.3,18.8C739.3,511,733.6,508.3,732.1,503.5z"/>
	<path fill="none" d="M758.3,559.1c-3.8-1.4-6.8-4-10.3-5.8c-3-1.5-5.1-4-6.8-6.7c-1.6-2.7-3-5.4-4.1-8.4c-0.3-0.8-0.9-1.5,0-2.7
		c9.5,1.9,19,1.3,29.1-1.4c-0.8,1.3-1.2,2-1.6,2.6c-3,4.5-5,9.4-5.9,14.8C758.1,554.1,759.2,556.7,758.3,559.1L758.3,559.1z"/>
	<path fill="none" d="M871.8,378.1c-12.3,8.1-24.7,16.1-37,24.2c-0.9,0.6-1.7,1.4-3.1,1.4c-0.4-2.7-0.9-5.2-0.5-8
		c7.7-4.2,15.4-8.2,23.1-12.4c7.6-4.2,15.5-8,23-12.6c1.2,1,1.6,2.1,0.9,3.8C875.9,375.3,873.9,376.8,871.8,378.1z"/>
	<path fill="none" d="M938.6,354.9c-0.4-2.1-1.9-3.7-3-5.5c-2.5-4-4.6-8-2.4-12.8c0.2-0.5,0-1.2,0.5-1.6c3.2,0.3,5.5,2.2,8,3.8
		l0.2,0.2c0.9,1.1,1.2,2.6,2.7,3.1l-0.1-0.1c0.7,3.2,2,6.3,1.7,9.8c-0.5,6.6-5,12.2-11.4,13.5c0.5-1.8-1.5-3.4-0.4-5.4
		c1.4-0.6,2.9-1.1,4.2-2c1.5-0.9,1.5-1.6-0.1-3.3L938.6,354.9z"/>
	<path fill="none" d="M833.9,501.3c-3.1,1.5-5.3,3-6.8,5.4c-6.6-0.3-13-0.2-20-0.1c3.7-4.9,6.3-9.7,8.8-15.2
		C820.6,497.3,826.8,499.7,833.9,501.3z"/>
	<path fill="none" d="M971.8,327.3c7.6,14.4,6.8,28.7-1.5,42.7c5.5-13.3,5.9-26.7-0.3-39.9c-6.3-13.5-17-21.4-31.4-24.5
		C953.5,307,964.8,314,971.8,327.3z"/>
	<path fill="none" d="M874.1,368.2c-4.5,2.5-8.7,5-13.6,7.2c0-8.6-0.5-16.7,2-24.7C864,358,869,363,874.1,368.2z"/>
	<path fill="none" d="M728,477.4c-2.8,4.4-5.7,8.5-8.7,12.6c-1.8,2.5-3.5,5.2-5.8,7.3c-1,0.9-1.8,2.1-3.4,1.9
		c-2.1-2.8-2.2-3.2-2.2-9.2C714.6,485.7,721.1,481.3,728,477.4z"/>
	<path d="M946.8,347.7c0.2,1.8,0.1,3.7,0.1,6.1c1.6-4,1.4-6.8-0.1-10.6c-0.5-1.1-1.5-2-1.4-3.4c0.8,0,1,0.6,1.3,1.1
		c6.1,10.6-0.1,22.8-11.6,25.7c-0.3,0.1-0.6-0.3-0.9-0.5c0.3-0.3,0.5-0.5,0.8-0.8c6.4-1.4,10.9-6.9,11.4-13.5c0.3-3.5-1-6.6-1.7-9.8
		C946.4,343.5,946.5,345.6,946.8,347.7z"/>
	<path fill="none" d="M807.2,410.4c1.1-0.7,1.9-0.9,3.1-0.8c1.6,1.6,4.3,2.3,5.9,4.6c-1.5,1.4-3,2.4-5,3.2
		C809.9,415.1,808.5,412.8,807.2,410.4z"/>
	<path d="M839.3,650.7c0.1,3.4-2.3,5.8-6.1,6.1c0-3.3,2-5.5,5.7-6.3C839,650.6,839.1,650.7,839.3,650.7z"/>
	<path fill="none" d="M944.6,342.2c-0.2-1.7-0.9-2.9-2.7-3.1l-0.2-0.2c0.2-1.1-1.1-1.5-1.4-2.5c0.6-0.1,0.9-0.1,1.3-0.2l-0.1-0.1
		c1,1.6,2.3,2.9,3.9,3.9l-0.1-0.1c-0.1,1.4,1,2.3,1.4,3.4c1.6,3.8,1.7,6.6,0.1,10.6c0-2.4,0.2-4.3-0.1-6.1c-0.3-2-0.4-4.2-2.3-5.6
		L944.6,342.2z"/>
	<path fill="none" d="M853,373.1c0-2,0-4,0-6c0.8,4,1.2,7.9,0,11.9C853,377,853,375.1,853,373.1z"/>
	<path fill="none" d="M918.5,311.4c-1.8-1.2-3.5-2.3-5.4-3.5C916.3,308.3,917.3,308.9,918.5,311.4z"/>
	<path fill="none" d="M829.7,412c-1-1.7-1-1.7,0.5-3.9C830.5,409.5,829.8,410.7,829.7,412L829.7,412z"/>
	<path fill="none" d="M702.5,496.5c-0.6-0.8-1.8-1.4-0.2-2.8C703,494.7,703.1,495.5,702.5,496.5z"/>
	<path fill="none" d="M890.6,349c-1.5,0.1-2.1-2.1-3.8-1.6C888.9,345.8,889.5,347.8,890.6,349z"/>
	<path fill="none" d="M896.6,337c-0.8,0.7-1.4,1.7-3.5,1.1C894.8,337.7,895.4,336.5,896.6,337L896.6,337z"/>
	<path fill="none" d="M896.6,337L896.6,337c-0.3-0.7-0.3-1.5-0.1-2.4c0.5,0,1.1,0,1.6,0C898,335.7,897.2,336.3,896.6,337z"/>
	<path fill="none" d="M888.7,355.7c-3.4-2.4-3.5-2.9-1.2-5.5c1.1,0.4,2.6,0.3,3.5,2C889.8,353,888.5,353.8,888.7,355.7z"/>
	<path fill="none" d="M433.5,649.7c-0.2-0.6-1.3-0.3-1.3-1.2c0.7-1.4,1.8-1.8,3.3-1.1c0.9,0.4,1.2,1.2,1.1,2.2
		c-0.3,1.6-1.3,2.2-2.9,2C432.5,650.9,433.9,650.2,433.5,649.7z"/>
	<path fill="none" d="M442.7,650.1c1.3,0.1,2,0.8,2.1,2.1s-0.9,2.4-2.2,2.4c-1.3,0-2.3-0.9-2.3-2.3
		C440.3,650.9,441.3,650,442.7,650.1z"/>
	<path fill="none" d="M451.2,655.6c-0.9-0.3-2-0.3-2.3-1.8c1.2-1.3,2.1-0.4,3.2,0.2C452.1,655,451.8,655.3,451.2,655.6z"/>
	<path d="M332.8,268.1c-2.5,1.5-4.5,2.4-6.8,1.6C328.1,269,330,268.2,332.8,268.1z"/>
	<path d="M324.5,160.3c1.3-0.9,2.2,0,3.1,0.6C326.5,161.1,325.4,161.5,324.5,160.3z"/>
	<path d="M338.6,265.9c-0.4,0.5-0.9,0.8-1.8,0.8C337.3,265.6,337.9,265.4,338.6,265.9z"/>
	<path d="M412.4,243c0.1,0.8-0.4,1.1-1,1.4c-6.1,3.6-10.2,9-13.9,14.6c0.5,2,1.1,3.8,1.4,5.6c0.3,1.9,1.3,3.7,0.4,6.1
		c-1.4-2.4-1.9-4.7-2.5-7c-1.4-5.6-2.7-11.2-1.9-17.2c0.8-6.2,1.4-12.4,2.4-18.5c0.2-0.9,0.3-1.9,1.9-2.5c0,9.9-3.2,19.4-1.7,29.2
		c1.1-0.6,1.6-1.7,2.2-2.5c2.7-3.8,6.1-6.5,10.1-8.7C410.9,243.1,411.6,242.7,412.4,243L412.4,243z"/>
	<path d="M398.4,224.5c5.3-3.4,7.4-8.5,9.6-13.3c1.3-0.7,2.4-1.3,3.8-2c-0.2,2.5-2,2.8-3.4,3.8C407.4,220,404.3,223.8,398.4,224.5z"
		/>
	<path d="M399.5,215.8c0.5,4.1,0.2,7.7-4,10c-3.1,1.7-5.9,2.3-9.2,0.2c6.6-0.5,8.8-1.4,11.9-4.6C397.9,217,397.9,217,399.5,215.8z"
		/>
	<path d="M405.4,194.9c0.6,0.5,0.9,0.6,0.9,0.8c0.6,3.7,0.6,7.4,1.4,11c0.5,1.9-0.9,4.1-2.6,4.9c-0.3-1.6,1-2.5,1.2-4
		C405.8,203.5,404.1,199.4,405.4,194.9z"/>
	<path d="M459,246.8c-1.8-0.5-3.1-2-4.5-3.1c-5.9,0-5.9,0-7.1-1.3c0.1-0.6,0.4-1,0.9-1.1C451.9,239.8,457.6,242.8,459,246.8
		L459,246.8z"/>
	<path d="M458.9,246.9c2.9,1.1,4.5,3.4,5.8,6c-1.6-0.9-2.9-2.1-4.3-3.2C459.5,248.9,459,248,458.9,246.9L458.9,246.9z"/>
	<path d="M399.2,276.4c-0.3-0.8-0.4-1.5,0.2-2.5C400.2,275.1,400.2,275.8,399.2,276.4z"/>
	<path d="M464.3,512.1c0.8-1.5,0.4-3-0.9-4.4c-3.1-3.3-2.2-6.7,2.5-9.1c0.6,2.2-1.7,3.5-1.6,5.5c0.1,2.2,1.2,4,1.9,6.2
		c-1.1,2.7-1.3,5.4-0.4,8.3c0.3,1,0.3,2.2-1.4,3C464,518.3,462.6,515.3,464.3,512.1z"/>
	<path d="M463.7,496.5c1.4-1.7,3.2-2.9,5.2-3.7C467.7,494.8,466,496.2,463.7,496.5z"/>
	<path d="M431.9,624.9c0.1-1.5,0.2-2.7,1.5-4.2C433.3,622.5,433.9,624,431.9,624.9z"/>
	<path d="M447.6,493.6c1.5,1.2,2.3,2.1,2.5,3.5C449,496.5,448.1,495.6,447.6,493.6z"/>
	<path d="M442.2,483c-1.5-1-1.4-2.1-0.9-3.3C441.7,480.7,442.4,481.6,442.2,483z"/>
	<path d="M461,540.4c0.1-0.4,0.4-0.6,0.9-0.4c-0.1,0.9,0.4,1.8-0.3,2.7C460.6,542.1,460.9,541.3,461,540.4z"/>
	<path d="M461.1,533.9c0.2,0.4,0.4,0.7,0.5,1c0,0.5-0.1,1-0.6,1.2C460.8,535.1,460.8,535.1,461.1,533.9z"/>
	<path d="M433.9,597.3c0.1-0.2,0.4-0.2,0.6-0.3c0.1,0.2,0.2,0.4,0.2,0.6c-0.1,0.2-0.4,0.2-0.5,0.3
		C433.8,597.8,433.7,597.5,433.9,597.3z"/>
	<path d="M476.4,416c-2.7-3.2-1.3-7.9,2.7-10.6C478.6,409.1,475.5,411.8,476.4,416z"/>
	<path d="M481,401.1c0.3-2.2,0.3-2.2,2-4.1C482.5,400,482.5,400,481,401.1z"/>
	<path d="M483.2,150.7c-1.1,0.4-1.4,1.2-1.5,2.3c-0.3,0.3-0.5,0.5-0.8,0.8c-1.4,2.7-1.4,3,0.8,5.3c0.2,0.2,0.4,0.4,0.5,0.6
		c1.5,2,2.5,4.3,3,6.8c1.3-0.7,0.7-2.5,2.3-2.5c0.6,2.8,0.4,3.1-2.8,4.5c-2.2-2.6-1.7-7.2-5.7-8.6c-0.7,0.6-0.1,1.8-1.3,3.1
		c0-3.6-2.9-5.3-3.6-8.5c1.8,1.3,2.3,3.3,4.1,4.1c0.4-1.4-0.9-2.3-0.5-3.4c1.4-2.8,3.1-5.3,5.7-7.1c1.2,0.7,2.3,1.3,3.4,1.9
		l-0.1-0.1c1.2,2.8,4,0.9,5.9,2c-0.5,0.9-0.8,1.6-1.8,1.9c-2.5-0.2-4-2.3-6.2-3C484.1,150.7,483.6,150.7,483.2,150.7z"/>
	<path d="M491.9,137.8c0.2,0.6-0.1,1.5,0.6,2c1.1,0.1,1-1.5,2.1-1.3c0.4,0.2,0.4,0.9,1.1,0.8c0.7-0.6,1.4-1.1,2.1-1.7
		c-1.4,3.6-5,4-7.5,5.6c-3.4-0.4-6.4-0.8-9.5-1.2s-6.1-1.1-9-2.9c1.6-0.4,2.7,0.3,3.9,0.7c3.4,1,6.8,1.6,10.3,1.1
		c2.3-0.3,4.7-0.6,6.2-2.9L491.9,137.8z"/>
	<path d="M483.2,150.7c0.5,0,0.9,0,1.4,0c0.9,1.8,3,2.6,3.8,4.5c-0.1,1.1-1,1.7-1.4,2.6c0.3,0.7,1.4,1.2,0.6,2.6
		c-0.4,0.4-1.2,1.1-1.9,1.7c-1.1-1-1.7-2.6-3.5-2.5c-0.2-0.2-0.4-0.4-0.5-0.6c-0.7-1.7-1-3.5-0.8-5.3c0.3-0.3,0.5-0.5,0.8-0.8
		C482.4,152.4,482.8,151.5,483.2,150.7z M484.7,158c0.2-1.6,1.7-1.6,2.1-2.6c-0.6-2.4-2.2-0.3-3.2-0.6c-0.2-0.8,1.1-1.1,0.7-2.2
		c-1.4,0.7-1.9,1.9-2.6,2.9c0.2,2,1.5,2.9,3.1,3.8C485.3,158.5,484.6,158.2,484.7,158z"/>
	<path d="M517.7,149.2c0.6-0.5,0.8-1,0.4-1.6c-1,0.1-1.7,0.6-2,1.6c-0.7-0.2-1.4,0.7-2.3-0.4c2-0.8,3.2-2.7,5.1-3.6
		c1.9-0.9,4.1-0.9,5.9-2.5c-0.1,2.1-1.6,2.4-2.7,3.5c0.3,1.9-1.9,3.5-0.4,6c-2.3-0.9-4.5-1-5.7-3.1
		C516.6,149.1,517.2,149.2,517.7,149.2z"/>
	<path d="M463,150.1c5.4,5,10.6,9.8,14.8,15.6C475.2,164.7,464.2,153.3,463,150.1z"/>
	<path d="M491.6,168.8c0.9,3,2.1,5.7,4.4,7.8c2.4,2.1,5.6,2.4,8.3,3.9C496,180.7,490.6,175.5,491.6,168.8z"/>
	<path d="M494.2,136.3c0-0.7-0.2-1-1-1.1c-2.4-0.3-4.8-1.1-7.1-2.2c2-0.3,3.8,0.3,5.7,0.5c2.1,0.2,3.9,0.1,5.4-1.6
		c0.1-0.1,0.4,0,0.7,0c0.5,0.6,0.9,1.2,0.4,2.4c-1,0.7-2,2-3.7,2.3C494.4,136.5,494.3,136.4,494.2,136.3z"/>
	<path d="M505.3,119.2c3.9-0.1,7.3-0.2,10.4,2.2c-2.2,1.3-3.7,0.7-5.1-0.3c-0.3-0.2-0.7-0.4-1-0.1c0,0.8,1.5,1,0.8,2.4
		C508.8,122.1,507.2,120.8,505.3,119.2z"/>
	<path d="M496.2,214.8c1.7,2.8,2.8,5.7,3.1,8.9c0.1,0.7-0.3,1.2-1.5,1.5C495.9,221.9,496.9,218.2,496.2,214.8z"/>
	<path d="M475.4,123.1c-2.4,1-4.7,2.1-7.1,3.2c4-4,9-5.3,14.3-5.8C480.2,121.4,477.8,122.2,475.4,123.1z"/>
	<path d="M505.8,126c-4.6-1.4-8.9-2.7-13.1-4C498.6,121.9,503.6,123.5,505.8,126z"/>
	<path d="M525.5,139c-3.5-0.3-6.8,1.8-10.3,0.9C518.5,138.4,521.8,136.7,525.5,139z"/>
	<path d="M486.7,149.9c1.2-1.1,2.9-0.6,4.2-1.2c1.3-0.7,2.6-1.3,4.5-2.1c-0.7,2.1-1.8,2.7-3,3.3
		C490.4,150.9,488.6,150.3,486.7,149.9L486.7,149.9z"/>
	<path d="M486.5,147.2c2.9-1,5-3,7.3-4.4C492.1,146.4,490,147.6,486.5,147.2z"/>
	<path d="M493.6,125.9c1.8,0.3,3.6,0.6,5.6,0.9c-2.8,2.2-5.3,1.7-8.1,0.1C492.1,126.5,493.1,126.7,493.6,125.9L493.6,125.9z"/>
	<path d="M478.4,171.2c-2.5-1.5-3.7-3.9-4.6-6.6c1.6,2.1,3.3,4.1,4.9,6.2C478.6,170.9,478.5,171,478.4,171.2z"/>
	<path d="M466,158.8c2.3,2,4.1,4.6,6.3,6.7c-3.1-1.2-5.1-3.6-6.6-6.5L466,158.8z"/>
	<path d="M494.2,130.9c2-0.9,3-2.1,4.7-2.1C497.8,129.8,496.8,131.1,494.2,130.9z"/>
	<path d="M496.2,208.5c0.7,2,1.3,3.3,0.9,5.5C495.6,212.1,495.8,210.7,496.2,208.5z"/>
	<path d="M490,137c-1.8,0.3-3.2-0.5-4.9-1C487.7,135.9,487.7,135.9,490,137z"/>
	<path d="M496.3,205c-0.7-0.3-0.8-0.9-1-1.5c-0.1-0.5-0.2-1,0.6-1.6C496.6,203,496.6,204,496.3,205z"/>
	<path d="M507.4,123.1c-1.4-0.8-2.6-1.4-3.7-2C506.2,121.3,506.2,121.3,507.4,123.1z"/>
	<path d="M463.7,130.2c1.4-1.4,2.5-1.4,4.3-1C466.4,129.6,465.3,129.8,463.7,130.2z"/>
	<path d="M456.6,134.2c0,1.6-0.8,2.3-1.8,2.9C454.5,135.6,455.2,135,456.6,134.2z"/>
	<path d="M493.6,125.8c-1.2,0.3-2.1-0.4-3-1.3C491.8,124.9,492.9,125,493.6,125.8L493.6,125.8z"/>
	<path d="M465.7,159c-0.8-0.4-1.3-1-1.2-2.2c0.8,0.6,1.3,1.1,1.4,2L465.7,159z"/>
	<path d="M494.5,136.6c-0.6,0.9-1.3,1.6-2.6,1.2l0.1,0.1c0.5-0.8,1.1-1.5,2.1-1.7C494.3,136.4,494.4,136.5,494.5,136.6z"/>
	<path d="M507.8,282.1c-2.6,4.8-6.6,7.7-11.8,9c-4.7,1.1-9.4,0.5-14.1,0.9c-1,0.1-2-0.2-2.6-1.2c18.2-2.3,15.7,0,28.9-12.4
		C509.2,279.9,508.4,281,507.8,282.1z"/>
	<path d="M509.3,261.2c0.6,0.4,1.2,0.7,0.5,1.6C509.3,262.4,508.9,262.1,509.3,261.2z"/>
	<path d="M509,276.6c-0.8-1-0.6-1.7,0-2.5C509.8,275,509.6,275.8,509,276.6z"/>
	<path d="M500.6,485.6c-3.6-3.8-3.7-4.9-0.1-6.3C499.9,481.6,500.5,483.5,500.6,485.6z"/>
	<path d="M489.4,579.2c-2.7,0.4-4.4-0.8-5.9-2.5C486,576.2,488,576.6,489.4,579.2z"/>
	<path d="M498.1,477.3c1.3-2,4.7-5.5,6.9-7C503.3,473.9,501.4,476.3,498.1,477.3L498.1,477.3z"/>
	<path d="M498,477.3c-0.1,2.1-1.5,2.6-3.2,2.4c-1.3-0.1-2.5-0.6-3.5-1.6l-0.1,0.1C493.6,478,495.9,478.2,498,477.3L498,477.3z"/>
	<path d="M483.3,568c-1-1.8-0.7-3.5,0-5.3C484.1,564.4,484.1,566.2,483.3,568z"/>
	<path d="M484.1,574.4c-1-1.3-1.1-2.6-0.6-4.2C484.8,572.3,484.8,572.3,484.1,574.4z"/>
	<path d="M487.8,506.7c1.4,1.1,1.4,2.3,1.1,3.8C487.8,509.3,487,508.3,487.8,506.7z"/>
	<path d="M483.8,556c0,1.2,0.3,2.3-1.3,3C482.6,557.8,482.1,556.6,483.8,556z"/>
	<path d="M491.3,478c-1.5-0.2-1.7-1.3-2-2.5C490.4,476.1,491.6,476.5,491.3,478L491.3,478z"/>
	<path d="M485.9,502.6c-0.8-0.2-1-0.9-1.2-2C486.2,501,486.2,501.7,485.9,502.6z"/>
	<path d="M482.9,550.8c0.1,0.6,0.4,1.2-0.5,1.6C482.7,551.9,481.7,551.2,482.9,550.8z"/>
	<path d="M490.1,347.9c-1.3-1.1-2.1-2.1-2.5-3.1c0.3-3.6,3.4-5,5-7.4C491.8,340.8,491.9,344.5,490.1,347.9z"/>
	<path d="M464.7,353.9c-1.4-2.5-4.4-3.5-5.6-6c0.2-0.7,0.6-1,1.4-1.3C463.1,348.4,464.1,351,464.7,353.9z"/>
	<path d="M459.2,345.1c-1.2-1.5-1.2-1.5-1.4-3.6C459.2,343.2,459.2,343.2,459.2,345.1z"/>
	<path d="M747.7,521.2c-2.3,0.5-4.1,0.8-5.8-0.4C743.7,520.1,745.5,519.8,747.7,521.2z"/>
	<path d="M744.4,389.9c2.2,0.4,2.2,0.4,3.7,1.5C745.6,391.2,745.6,391.2,744.4,389.9z"/>
	<path d="M752,392.9c0.6-0.3,0.9,0,1.4,0.7C752.6,393.5,752.2,393.3,752,392.9z"/>
	<path d="M876.4,554.1c-1.4-3,1-5.4,0.6-8.4C879.7,548.5,879.4,551.8,876.4,554.1z"/>
	<path d="M797.2,633c3.6,0,4.6,1.9,2.8,5.2C798.9,636.2,798.1,634.6,797.2,633z"/>
	<path d="M862.7,544.3c1.9,1.2,3.9,2,5.5,4.4C864.7,547.6,864.2,547.2,862.7,544.3z"/>
	<path d="M798.9,632.3c-0.1-3,1-4.5,2.8-5.7C801.1,628.4,800.7,630.2,798.9,632.3z"/>
	<path d="M881.4,535.3c0.1,2.1-1.4,2.9-2.5,4C878.8,537.6,879.3,536.2,881.4,535.3z"/>
	<path d="M846.6,568.4c0.6-2.1,1.2-3.1,2.7-3.5C849.2,566.4,848.3,567.2,846.6,568.4z"/>
	<path d="M841.8,573.7c0.5,0.9,0,1.2-0.6,1.4C840.7,574.4,840.8,573.9,841.8,573.7z"/>
	<path d="M806.2,618.5c-0.1-1.2,0.1-1.9,1.2-2.1C807.7,617.5,807.2,618,806.2,618.5z"/>
	<path d="M856.3,539.9c0.6,0.1,1.1,0.4,1.6,1.3C856.4,541.2,856.4,541.2,856.3,539.9z"/>
	<path d="M851.6,539.5c-0.7,0-1.1-0.2-1.2-1.2C851.5,538.2,851.7,538.7,851.6,539.5z"/>
	<path d="M848.8,562.5c-0.6-0.7-0.5-1.4,0.2-2C849,561.1,849.9,561.9,848.8,562.5z"/>
	<path d="M808.8,614.1c-0.2-0.7,0.3-1,0.9-1.3C810.3,613.9,809.7,614.1,808.8,614.1z"/>
	<path d="M641,502c4.4-0.7,10.1,4.9,10.2,10.1c-1.8-2.1-4.5-3.2-4.2-6.2C645,504,641.8,505,641,502z"/>
	<path d="M650.5,513.1c1.3,1.6,1.3,1.6,0,4.7C649.1,515.5,649.1,515.4,650.5,513.1z"/>
	<path d="M912.2,495.1c-1.8,4-4.8,5.6-9.6,5.2C906.5,499.9,909.3,497.6,912.2,495.1z"/>
	<path d="M914.1,498.4c1.4,1.2,1,2.5,0.9,3.9C913.8,501.2,913.2,500.1,914.1,498.4z"/>
	<path d="M899.4,524.7c0-1.7,0.3-2.9,2-3.3C901,522.5,901.3,523.9,899.4,524.7z"/>
	<path d="M904,516.7c-0.2-0.9,0-1.4,1.1-1.2C905,516.3,904.7,516.7,904,516.7z"/>
	<path d="M945.3,340c-1.6-1-2.9-2.3-3.9-3.9C943.6,336.6,944.9,337.9,945.3,340z"/>
	<path d="M801.1,649.6c0.8-2.2,2.9-3.2,5.1-2.4c2.1,0.8,3.2,3,2.5,5.1c-0.6,1.8-2.9,2.9-4.9,2.2c-1.1-0.4-2.2-1.1-3.4-1.8
		C800.6,651.4,800.8,650.5,801.1,649.6z M807.2,651c0.2-0.9-0.2-1.7-1.1-2.2c-1.5-0.7-2.6-0.3-3.3,1.1c0,1,1,0.6,1.3,1.2
		c0.4,0.6-0.8,1.3,0,1.8C805.8,653.3,806.9,652.6,807.2,651z"/>
	<path d="M812.9,649.9c2.4-0.1,4.1,1.5,4.1,3.8c0.1,2.4-1.4,3.9-3.9,3.9c-2.4,0-4-1.6-4-3.9C809.2,651.6,810.8,650,812.9,649.9z
		 M813.3,656.1c1.3-0.1,2.3-1.2,2.1-2.5c-0.1-1.3-0.9-1.9-2.2-2s-2.3,0.9-2.3,2.3C810.9,655.2,812,656.1,813.3,656.1z"/>
	<path d="M818.2,655.5c-0.5-1.7,1.4-2.8,3.3-2.3c1.2,0.3,2.5,0.5,3.4,1.9c-0.8,1.8-1.6,3.8-2.4,5.7c-0.1,0.3-0.5,0.5-1,0.4
		c-0.8-0.7,0.6-2-0.7-2.7c-1.3-0.5-2.2,1.7-3.9,0.8C817.3,658,818.6,657.3,818.2,655.5z M822.7,656.1c-0.1-1.1-1.2-1.4-3.2-0.7
		c0.3,1.3,1.3,1.5,2.6,1.8C822.4,656.6,822.6,656.3,822.7,656.1z"/>
	<path d="M843.3,656.8c-1,1.4-2.1,2.8-4.4,2.3c0.4-2.5,2-3.7,3.8-4.5C844,655.2,843.9,656,843.3,656.8z"/>
	<path d="M941.9,339.1c1.8,0.2,2.5,1.4,2.7,3.1C943.1,341.7,942.8,340.2,941.9,339.1z"/>
	<path fill="none" d="M480.8,153.7c-0.2,1.8,0,3.6,0.8,5.3C479.4,156.7,479.4,156.4,480.8,153.7z"/>
	<path fill="none" d="M483.2,150.7c-0.4,0.9-0.7,1.7-1.5,2.3C481.7,151.9,482.1,151,483.2,150.7z"/>
	<path fill="none" d="M481.7,155.5c0.7-1,1.2-2.2,2.6-2.9c0.4,1.1-0.8,1.4-0.7,2.2c1,0.3,2.5-1.8,3.2,0.6c-0.4,1-1.9,1.1-2.1,2.6
		c0,0.2,0.7,0.5,0.2,1.2C483.2,158.4,481.9,157.4,481.7,155.5z"/>
	<path fill="none" d="M516.1,149.2c0.3-1,1-1.5,2-1.6c0.4,0.7,0.3,1.2-0.4,1.6C517.2,149.2,516.6,149.1,516.1,149.2L516.1,149.2z"/>
	<path fill="none" d="M804.1,651.1c-0.2-0.6-1.2-0.2-1.2-1.2c0.7-1.4,1.8-1.8,3.3-1.1c0.9,0.4,1.2,1.2,1.1,2.2
		c-0.3,1.6-1.3,2.2-3.1,1.9C803.3,652.4,804.4,651.7,804.1,651.1z"/>
	<path fill="none" d="M813.2,651.6c1.3,0.1,2.1,0.7,2.2,2c0.1,1.3-0.8,2.4-2.1,2.5s-2.4-0.9-2.4-2.2
		C810.9,652.5,811.9,651.5,813.2,651.6z"/>
	<path fill="none" d="M819.5,655.3c2-0.6,3.2-0.4,3.2,0.7c-0.1,0.2-0.3,0.5-0.6,1.1C820.8,656.8,819.8,656.6,819.5,655.3z"/>
</g>
</svg>
