<?xml version="1.0" encoding="utf-8"?>
<!-- Generator: Adobe Illustrator 19.2.0, SVG Export Plug-In . SVG Version: 6.00 Build 0)  -->
<svg version="1.1" id="Layer_2" xmlns="http://www.w3.org/2000/svg" xmlns:xlink="http://www.w3.org/1999/xlink" x="0px" y="0px"
	 viewBox="0 0 900 600" style="enable-background:new 0 0 900 600;" xml:space="preserve">
<g>
	<path d="M396.5,82.3c0.9,0.1,1.2,0.8,1.5,1.4c0.8,1.7,1.5,3.3,3.3,4.2c2.8,3.6,6.8,5.8,10.2,8.7c1.2,1,2.7,1.6,4,2.4
		c0.3,0.2,0.7,0.3,0.9,0.5c4.1,3.9,9.1,6.4,14.2,8.6c4.4,1.9,7.3,5.1,9.4,9.1c0.9,1.7,1.6,3.5,2.2,5.3c1.8,4.9,1.2,9.8-0.7,14.5
		c-0.3,0.8-0.7,1.5-1.1,2.3c11.1,1.2,17.2,3.8,25.5,14.8c0.4-0.3,0.8-0.6,1.1-0.9c5.3-5.2,10.5-10.3,15.8-15.5
		c0.9-0.9,1.9-1.8,2.6-3c0.5-0.9,1.3-1.7,2.1-2.5c6.7-6.3,13.7-12.3,21.2-17.6c3.3-2.3,7.1-2.8,10.9-3.5c0.5-0.1,1,0,1.4,0.2
		c3.8,1.2,7.4,3,9.9,6.3c0.1,0.2,0.3,0.4,0.5,0.5c1.6,1.9,4,3.1,5.1,5.5c0.5,1,1.8,1.6,2.8,2.2c2.6,1.5,4.6,3.5,5.9,6.2
		c1,2,2.1,4.1,3.1,6.1c1.2,2.4,2.6,4.9,4.7,6.8c1.7,1.5,3,3.4,4.5,5.2c1.7,2.2,3.4,4.4,5.1,6.6c4.1,5.3,8.1,10.6,12.2,15.8
		c3.2,4,6.4,7.9,9.9,11.6c4.5,4.6,9.3,8.9,13.9,13.3c1.3,1.2,2.7,2.4,4.1,3.8c2.7-1,4.7-3.2,7.2-4.7c2.1,0.9,3.7,2.4,5.1,4
		c1.1,1.3,1.4,3.1,1,4.8c-0.3,1.3-0.7,2.5-1,3.9c2.5,2.5,2.5,2.5,5.5,3.7c0.6,0.3,1.3,0.7,1.8,1.2c0.9,1,1.7,2,2.6,3
		c1.1,0,2.2-0.2,3.2,0.4c3,2,6.5,2.6,9.9,3.4c0.2,0.1,0.5,0,0.7,0.1c3.9,2,8.2,1.7,12.3,2.3c2,2.3,3.7,5.4,4.8,8.7
		c-0.5,0.7-1,1.5-1.7,2.1c-0.7,0.6-1.5,1.2-2.3,1.6c-0.9,0.4-1.8,0.7-3,1.1c0.6,0.4,0.9,0.8,1.4,1c3.8,1.6,7.8,2.6,12,2.2
		c1.8-0.2,3.6-0.1,5.4-0.1c1.2,0,2.1,0.5,2.5,1.6c0.7,1.8,1.5,3.6,2.2,5.4c0.4,0.9,0.3,1.9-0.3,2.7c-1,1.3-2.1,2.6-3,4.1
		c-0.8,1.3-2,2.1-3.5,2.4c-1.2,0.3-2.4,0.6-3.6,0.6c-7.1,0.5-14.1,1.9-21.1,3.3c-2.4,0.5-4.8,0.8-7.2,1.1
		c-5.9,0.7-11.6-0.6-17.2-1.8c-0.5-0.1-1-0.2-1.4-0.3c-1.6-0.6-3.2-0.5-5-0.1c-6.3,1.5-12.7,2-19.1,0.8c-3.2-0.6-6.3-1.6-9.5-2.5
		c-0.4-0.1-0.7-0.6-1.2-1c0.3-0.7,0.6-1.3,0.9-2c0.3-0.8,0.9-1.7,0.7-2.4c-0.6-3.3,0.7-6.5,0.5-9.7c0-0.3-0.1-0.7-0.2-0.9
		c-0.9-0.6-1.7-0.2-2.5-0.3c-0.7,0-1.5-0.1-2.2,0c-3.2,0.2-5.7-0.9-7-4c0.6-1.1,1.3-2.2,1.8-3.4c0.4-1.1,0.8-2.3,0.9-3.5
		c0.3-2.5,0.6-5.1,0.4-7.6c-0.2-3.9,1.2-7.2,3.1-10.5c-4-3.5-7.9-7.1-11.9-10.6c-1.1-0.9-2.3-1.7-3.6-2.4c-4.6-2.4-8.9-5.3-12.7-9
		c-2-2-4.6-3.5-6.8-5.4c-6.1-5.1-10.9-11.2-13.6-18.9c-0.2-0.5-0.4-0.9-0.7-1.3c-0.2-0.3-0.4-0.6-0.8-1.1c-0.5,0.5-0.9,0.9-1.2,1.3
		c-0.6,0.8-1.1,1.6-1.7,2.4c-2.1,2.8-3.8,5.9-4.8,9.3c-3,9.8-7.2,19-12.3,27.8c-3.7,6.3-7.4,12.5-11.1,18.7
		c-0.8,1.3-1.1,2.6-1.1,4.1c0.1,3.9-0.2,7.8-1.3,11.5c-4.4,14.9-14.2,24.4-29.4,27.5c-12.8,2.6-24.5-0.3-34.4-9.4
		c-1-1-2.3-1.7-3.6-2.4c-1.3-0.8-2.8-1.4-4.1-2.2c-2.4-1.5-4.4-3.4-5.7-6c-0.7-1.4-1.7-2.7-2.6-3.9c-1.5-2.2-3-4.4-3.9-6.9
		c-0.3-0.8-0.7-1.5-1.2-2.2c-0.8-1.3-1.9-2.5-2.6-3.9c-0.6-1.1-1.6-1.7-2.5-2.6c0.1-0.7,0.2-1.4,0.1-2.1c-0.1-0.7-0.4-1.4-0.7-2.1
		c-0.8-2.2-1.6-4.3-2.4-6.7c-4,0-8.1,0-12.1,0c-1.6,0-3.1,0-4.6-0.7c-0.9-0.4-2.1-0.4-3.2-0.4c-4.6,0-9.2,0.2-13.8,0.4
		c-6.8,0.3-13.6,0.2-20.3,0.2c-5.7,0-11.3,0-17.2,0c-0.1,0.7-0.3,1.3-0.4,2c-0.2,3.9-0.6,7.7-0.5,11.6c0.1,3.1-0.1,6.2-0.2,9.3
		c-0.1,3,0.1,6,0.2,9.1c0.1,3.7,0.4,7.5,0.4,11.2c0,1.8-0.3,3.6-0.4,5.4c0,0.3,0.1,0.7,0.2,1.1c3.8,0.7,7.6,1.3,11.5,1.3
		c11.4,0,22.8,0,34.1,0.2c6.5,0.1,13,0.7,19.6,1.2c1.3,0.1,2.6,0.5,3.9,0.9c0.4,0.1,0.7,0.5,1.1,0.7c-0.3,0.3-0.4,0.6-0.6,0.7
		c-0.3,0.1-0.7,0-1.1,0c-3.1-0.2-6.2-0.2-9.4,0.4c-5,1-10,1.5-15.1,1.4c-5.7,0-11.4,0.1-17.1,0c-3.5-0.1-7-0.2-10.5,0
		c-0.5,0-1-0.1-1.4,0c-3.5,1-6.9,0-10.4-0.2c-0.6,0-1.2,0-1.8,0c-2,0-3.7-0.6-5.2-2.6c1,0.1,1.6,0.1,2.2,0.3
		c1.2,0.4,2.4,0.8,3.8,0.7c1.9-0.2,3.8,0.2,5.7,0.6c1.2,0.3,2.4,0,3.6,0c4.1,0,8.2-1.1,12.3-0.3c0.8,0.2,1.7,0.1,2.5,0.1
		c6.3,0,12.6,0,18.9,0c2.4,0,4.8-0.4,7.1-1.2c-2.4,0-4.8-0.1-7.2-0.1c-11.6,0-23.2,0.1-34.9,0c-4.1,0-8.2-0.7-12.3-1.1
		c-0.4,0-0.8-0.4-1.4-0.7c0-0.6-0.1-1.2,0-1.8c1-5,0.9-10.2,0.4-15.2c-0.5-5.2-0.6-10.4-0.6-15.6c0-5.2,0.4-10.4,0.6-15.6
		c0.1-1.3,0.1-2.7,0.1-4c0-11,0.1-22,0-33c0-4.2-0.3-8.4-0.5-12.8c-0.8-0.2-1.5-0.4-2.1-0.4c-4.4,0-8.7-0.1-13.1,0.1
		c-2.9,0.1-5.8,0.5-8.9,0.7c-0.2,0.6-0.4,1.3-0.5,2c-0.2,3.7-0.3,7.5-0.4,11.2c-0.1,3.9-0.2,7.7-0.4,11.6
		c-0.3,7.4-0.2,14.8,0.3,22.1c0.3,4.7,0.4,9.4,0.4,14.2c0,6.5-0.1,13.1-0.2,19.6c0,0.5,0.1,1-0.1,1.4c-1.4,3.9-0.5,7.9-0.7,11.9
		c-0.1,1.6,0.2,3.1-0.6,4.6c-0.2,0.4,0.1,1.1,0.2,1.9c-0.7,0.2-1.4,0.6-2.2,0.7c-1.8,0.2-3.6,0.3-5.4,0.4c-12.3,0.8-24.7,0.7-37,0.7
		c-1.2,0-2.4,0.2-3.6,0.3c-1.1,0.1-2.2,0.1-3.2,0c-3.7-0.1-7.5-0.2-11.2-0.3c-0.8,0-1.6,0.4-2.3,0.6c-2.1,3.8-5.3,11.5-5.9,14.1
		c4.8-0.5,9.6-0.2,14.4-0.3c3-0.1,6,0.4,9-0.7c0.7-0.3,1.7-0.1,2.5-0.1c11.3,0,22.5-0.1,33.8,0c8.3,0.1,16.7,0.4,25,0.5
		c9.1,0,18.1-0.2,27.2-0.3c1.6,0,3.1-0.1,4.7-0.1c16.2,0.1,32.4,0.2,48.7,0.3c1.2,0,2.4,0.1,3.6,0.2c1.4,0,2.9,0,4.6,0
		c-0.2-0.7-0.3-1.2-0.4-1.8c-0.9-2.8-1.9-5.5-2.6-8.3c-0.4-1.5-0.3-3.1-0.4-4.7c0-0.2,0.3-0.3,0.4-0.5c0.8-0.1,1.1,0.5,1.3,1
		c1.8,4.7,3.7,9.5,5.5,14.2c0.6,1.5,0.7,3-0.2,4.4c-0.4-0.1-0.7,0-0.8-0.2c-0.6-0.7-1.2-1.5-1.8-2.3c-1.8,0-3.6-0.1-5.4,0
		c-16.8,0.6-33.6,0.4-50.5,0.5c-3.7,0-7.5,0.3-11.2,0.5c-1.7,0.1-3.4,0.1-5.1,0.1c-9.8,0-19.6,0.1-29.4,0c-2.9,0-5.8-0.3-8.7-0.4
		c-4.4-0.1-8.7-0.2-13.1-0.2c-7.1-0.1-14.3-0.1-21.4-0.1c-2.5,0-5.1,0.2-7.6,0.3c-0.7,0-1.4-0.2-2.1-0.2c-5.1,0-10.2,0-15.3,0.1
		c-1.8,0.7-3.6,0.2-5.4,0.2c-1.3,0-1.9-0.8-1.5-1.9c1.6-5,2.2-10.4,4.9-15.1c0.6-1,0.9-2.2,1.4-3.6c0.7-0.2,1.6-0.6,2.5-0.8
		c1.1-0.2,2.1-0.4,3.2-0.4c5.1,0.1,10.1-1.4,15.2-0.5c1.5,0.3,3.1,0.1,4.7,0.1c1.7,0.1,3.3-0.1,5,0.5c1,0.3,2.1,0.1,3.2,0
		c1.2-0.1,2.4-0.3,3.6-0.4c4.1-0.2,8.2,0,12.3-0.5c2.4-0.3,4.8,0.1,7.2,0.3c2.5,0.2,5,0.6,7.5-0.1c0.6-0.5,0.4-1.2,0.3-1.7
		c-0.4-4.1-0.5-8.2-0.1-12.3c0.8-9.3,1.1-18.6,0.3-27.9c-0.2-2-0.1-4.1-0.2-6.2c0-0.7-0.1-1.4-0.2-2.1c-1.4-0.6-2.7-0.4-4-0.4
		c-3,0-6,0.1-9.1,0.2c-0.6,0-1.2-0.1-1.8,0.1c-4,1-7.9,0.4-11.8-0.6c-0.5-0.1-1-0.1-1.7-0.2c-0.4,0.3-0.9,0.8-1.5,1.2
		c-0.5,0.4-1,0.6-1.7,0.3c-0.6-0.3-0.8-0.9-0.7-1.5c0.3-1.8,0.6-3.6,1.2-5.3c0.9-2.6,2.1-5.2,3.2-7.7c0.3-0.7,1-1.4,1.3-1.9
		c1.1-0.4,2,0.3,3-0.2c0.8-0.4,1.9-0.2,2.8-0.3c1-0.1,1.9-0.3,2.9-0.3c4.7-0.2,9.4-0.4,14.1-0.5c0.9,0,1.9,0.3,3.1,0.5
		c0.8-2.4,0.3-4.9,0.6-7.4c0.3-2.5,0.2-5.1,0.4-7.6c0.2-2.4,0.4-4.8,0.6-7.2c0.2-2.5,0.4-5,0.6-7.7c-0.8-0.1-1.5-0.2-2.2-0.2
		c-2.8-0.2-5.5-0.4-8.3-0.5c-0.7,0-1.5-0.1-2.2,0c-3.1,0.4-6.2,0.4-9.4,0.4c-1.8,0-3.6-0.2-5.4-0.5c-0.8-0.1-1.6-0.6-2.3-1
		c-0.9-0.5-1.4-1.4-1.3-2.4c0.5-4.7-0.8-9.4-0.9-14.1c0-0.5-0.1-1-0.1-1.4c-0.2-5.4-0.1-5.6,3.6-9.7c2.8-3.1,6-5.6,9.2-8.2
		c0.8-0.6,1.4-1.2,1.9-2.1c1.8-3.3,4.3-6.1,7.2-8.6c2.6-2.3,5.3-4.6,7.4-7.5c0.4-0.5,0.8-1.1,1.3-1.2c2.2-0.7,3.5-2.6,5-4.1
		c0.5-0.5,1-1.1,1.5-1.6c2.8-3.6,6.6-4.5,11-3.9c2,0.3,4.1,0.5,6.1,0.5c5.7,0,11.4,0,17.1-0.1c3.1-0.1,6.3-0.2,9.4-0.8
		c2.6-0.5,5.1,0.5,7.5-0.1c1-1,1.5-2.2,1.7-3.6c1.5-7,4.9-13.1,9.2-18.8c2.4-3.2,3.6-6.7,4-10.7c0.4-3.8,0.2-7.5-0.1-11.2
		c-0.1-1.3-0.1-2.6,0-4c0.1-1.6-0.4-2.7-1.6-3.9c-1.6-1.6-3-3.4-4.5-5.2c-1.6-1.9-2.6-4.1-3-6.5c-0.1-0.6-0.3-1.2-0.5-2.1
		c-0.4,0.7-0.6,1.1-0.7,1.6c-1.4,4.8-2.3,9.7-1.9,14.7c0.2,2.2,0,4.3-0.4,6.5c-0.4,2.6-0.5,5.3-0.9,7.9c-0.4,2.4-1.1,4.7-1.7,7
		c-0.3,1.1-0.5,2.1-0.8,3.1c-0.1,0.6-0.1,1.3-0.4,1.7c-0.9,1.1-0.8,2.2-0.5,3.4c0.1,0.5,0.1,1,0.1,1.4c0,0.6-0.4,0.8-1.7,0.8
		c-0.6,1.2-1.2,2.5-1.8,3.8c-0.5,1.2-0.8,2.4-1.2,3.8c-0.3-0.2-0.4-0.3-0.4-0.4c0.1-1.8,0.2-3.6,0.5-5.4c0.4-3,0.6-6-0.2-9
		c-0.3-1-0.2-2.2-0.2-3.3c0-5.3,0.1-10.7,0.1-16c0-1.9-0.1-3.8-0.6-5.8c-0.4,8.9-0.9,17.8-1.3,26.5c-0.8-2.2-1-4.7-0.9-7.3
		c0-2.5-0.1-5.1-0.1-7.6c0.2-0.9,0.6-1.8,0.7-2.8c0.9-7.9,0.5-15.9,0.7-23.9c0-0.3-0.1-0.7-0.2-1c-0.3,1.2-0.4,2.4-0.4,3.5
		c-0.1,1.6-0.1,3.1-0.2,4.7c-0.2,2.5-0.6,5-0.6,7.6c-0.1,4,0.1,8,0.1,11.9c-0.7-0.3-1.3-0.7-1.4-1.5c-0.6-4.3-1-8.7-0.6-13
		c0.4-4.6,0.7-9.2,0.7-13.7c0.1-5,0.2-9.9,1.2-14.8c0.2-1.2,0.5-2.4,0.9-3.5c1.6-4.4,5.5-6.6,10.1-5.6c2.1,0.4,4.2,0.9,6.1,2.2
		c0.8,0.6,1.8,0.3,2.2-0.5c1-2.3,2.7-4,4.9-5.1c0.2-0.1,0.4-0.3,0.6-0.4c5.1-5.2,11.9-6.2,18.6-7.1c2.2-0.3,4.3-0.3,6.5-0.6
		c1.2-0.2,2.4-0.2,3.5,0.3c2.5,0.9,5,1.8,7.5,2.8c1,0.4,1.9,1,2.8,1.6c1.4,1.1,2.8,2.4,4.2,3.5c1.1,1,2,2.1,2.5,3.5
		c1.8,4.9,3.6,9.7,4.1,15c0.1,1.5,0.4,2.9-0.3,4.2c-1.1,2.2-0.9,4.4,0.1,6.6c1.3,2.6,2.5,5.2,3.8,7.8c0.2,0.4,0.3,0.9,0.5,1.3
		c-1,2.1-3.2,1.7-4.8,2.7c-0.1,0.6-0.2,1.3-0.2,2c0.2,1.9,0.2,1.9-1.2,3.5c0.1,0.9,0.5,1.8,0.4,2.7c-0.2,0.9-0.8,1.7-1.4,2.9
		c0,1.4,0,3.2,0,4.8c-1.5,1.8-3.4,2.2-5.3,2.3c-2.1,0-4.1,0-6.2,0c-2.5-0.1-4.3,0.9-5.6,3.2c-1.4,2.3-2.5,4.6-2.4,7.4
		c0,1.5-0.4,3.1-0.6,4.7c-0.8-0.6-1.7-1.3-2.4-1.9c0-1.6,0.1-2.9,0.8-4.1c0.4-0.7,0.6-1.6,0.8-2.4c0.5-3.2,2.5-5.4,4.6-7.6
		c0.4-0.4,1-0.7,1.6-0.8c1.6-0.3,3.2-0.8,5-0.4c1.9,0.4,3.8,0.3,5.8,0.3c0.7,0,1.4-0.3,2.1-0.4c0.2-0.8,0.6-1.5,0.6-2.2
		c-0.2-2.1,0.1-4,1.3-5.8c0.5-0.7,0.4-1.6-0.5-2.4c-0.8,0.2-1.7,0.4-2.6,0.5c-0.5,0.1-0.9-0.3-0.9-1.1c0.3-0.1,0.7-0.4,1.2-0.5
		c1.1-0.2,2.1-0.3,3.2-0.6c0.4-0.1,0.9-0.6,0.9-1c0.1-1.2,0.1-2.4-1.1-3.2c-0.4-0.3-0.8-0.7-1.3-1.2c2.2-0.4,4.1-0.7,5.9-1.1
		c0.5-0.1,0.9-0.6,1.4-1c-2.1-2.8-3.7-5.6-4.9-8.7c-0.8-2-0.9-4-0.1-6c0.2-0.5,0.4-1.1,0.6-1.5c-0.3-1.5-0.8-2.7-0.9-4.1
		c-0.3-3.8-1.2-7.4-2.5-10.9c-1.2-0.7-2.2-1.9-3.6-1.5c-4.7-5.7-10.8-8.2-17.4-8.9c3.3-1.2,6.7-0.1,10.1,1.3
		c0.5,0.2,1.1,0.4,1.7,0.5c0,0.1,0.1,0.2,0.2,0.2c0,0,0.1,0,0.2,0c-0.1-0.1-0.3-0.1-0.4-0.2c-0.2-0.5-0.5-1-0.7-1.6
		c0.5,0,1.1,0,1.6,0c0.5,0.9,1.1,1.5,2.2,1.4c-0.1,0.6,0.2,0.8,0.7,0.7c0,0.5,0.2,0.7,0.7,0.7l0.1,0.2l-0.1-0.1
		c-0.2-0.2-0.5-0.5-0.7-0.7c-0.2-0.2-0.5-0.5-0.7-0.7c-0.4-0.9-1.1-1.5-2.2-1.4c-0.2-0.9-0.9-0.7-1.5-0.7c0-0.1,0-0.2,0-0.3
		c0-0.1-0.1-0.1-0.2-0.1c0.1,0.1,0.2,0.2,0.3,0.4c0,0.2,0,0.5,0,0.7c-0.2-0.1-0.6,0-0.7-0.2c-1.5-2-3.8-2.4-6-2.6
		c-2.1-0.2-4.3-0.1-6.4,0.3c-3.3,0.5-6.6,1.5-9.9,2c-4.3,0.7-7.9,2.7-11.4,5c-0.5,0.3-0.8,0.9-1.1,1.3c-0.2,0.1-0.8-0.1-0.3,0.5
		c0.1-0.2,0.1-0.3,0.2-0.5c0.7-0.1,1.4-0.2,2.1-0.4c2.7-0.9,5.5-1.9,8.2-2.7c0.9-0.3,1.9-0.3,2.8-0.4l-0.1-0.1
		c-0.8,1.1-2.1,1.1-3.2,1.5c-3,1.2-6.1,2.3-9.1,3.5c-2.6,1.1-4.9,2.7-6.5,5c-0.4,0.6-0.8,1.1-1.1,1.6c-2.2-0.3-4.2-0.6-6.2-0.8
		l0.1,0.1c0.9-0.5,1.8-1.1,2.8-1.7c-0.2-0.5-0.4-1.1-0.6-1.7c-1.2-0.1-2.2-0.2-3.3-0.2c-2.6,0-3.5,0.5-4.2,3.1
		c-0.8,3.1-1.5,6.3-2,9.6c-0.4,2.8-1.4,5.7-0.1,8.5c0.1,0.2,0,0.5,0,0.7c-0.7,3.8-0.6,7.7,0,11.5c0.3,1.7,0.2,3.4,0.3,5.1
		c0.1,2.9,0.2,5.8,0.2,8.7c-0.1,4.3-0.3,8.7-0.4,13c0,0.7,0.1,1.4,0.2,2c0.6-5.1,1-10.1,1.3-15.2c0.2-3.1,0.3-6.3,0.5-9.4
		c0-0.4,0.3-0.9,0.5-1.6c0.2,0.7,0.3,0.9,0.3,1.1c-0.3,6.8-0.5,13.5-0.8,20.3c0,0.4-0.1,0.7-0.1,1.1c-0.2,2.5-0.3,5.1-0.5,7.6
		c-0.6,0.4-0.9,0.9-0.2,1.7c0-0.7,0.1-1.2,0.1-1.8c0.2-0.3,0.6-0.5,0.6-0.8c0.4-3.3,0.8-6.6,1.2-10c0.2,0.4,0.3,0.6,0.4,0.8
		c0.1,0.2,0.3,0.5,0.6,1c0.1-1.6,0.2-2.8,0.2-4l-0.1,0.1c0.9-1.7,1-3.4,0.5-5.2c-1.6-6-1.5-12.1-0.3-18.2c0.4-2.2,0.6-4.5,2.1-6.4
		l-0.1-0.1c-0.3,2.5-0.7,5-1,7.5c-0.6,4.3-1.1,8.6,0.9,13.2c0.4-2.2,0.3-4.1,0.4-6c0.3-6.7,1-13.2,3.8-19.4c0.7-1.6,1.1-3.2,1.2-4.9
		c0.1-1.8,0.3-3.6,0.6-5.4c0.1-0.6,0.6-1.2,1-2c0.8,0.4,1.5,0.7,2,1.1c3.1,2.1,6.1,4.3,9.2,6.5c0.6,0.4,1,0.9,1.5,1.4l0.1-0.1
		c-0.8-0.3-1.6-0.4-2.3-0.8c-1.8-0.9-3.4-1.9-5.2-2.9c-0.3,0.7,0.2,1,0.5,1.2c1.6,1.4,3.3,2.7,5,4c0.6,0.5,1.2,1,1.9,1.5l0.1-0.1
		c-2,0.4-3.6-1.2-5.9-1.6c0.5,0.6,0.7,1,1,1.3c1.4,1.3,2.8,2.6,4.1,3.9l0.1-0.1c-0.5-0.1-1,0-1.4-0.2c-4.6-2.6-8.1-6.1-8.9-11.6
		c-0.1-0.8-0.1-1.7-1.2-2.2c-0.4,1.9-1.1,3.7-0.2,5.6c0.3,0.6,0.3,1.4,0.3,2.1c0.2,2.7,0.1,5.3,1.3,7.8c0.1,0.3,0.1,0.7,0.1,1
		c-0.2,2.2,0.8,4,2.1,5.6c1.3,1.6,2.8,2.9,4.3,4.4c0.8,0.7,1.6,1.4,2.4,2.1c-0.4,1-0.9,1.7-0.9,2.5c0,2.5,0,5.1,0.2,7.6
		c0.5,5.2-0.1,10.3-1.2,15.4c-0.5,0.3-1,0.4-1.4,0.7c-1,0.9-0.8,2.1,0.4,2.6c0.8,0.3,1.6,0.5,2.4,0.8c5.7,2.3,11.8,3.5,17,6.9
		c2.9,1.9,6,3.6,8.9,5.6c3.8,2.6,7.5,5.4,11.1,8.1c2.2,1.6,4.6,2.4,7.5,2.6c-1.1-1.4-2.3-2-3.4-2.7c-2.9-1.6-5.4-3.6-7.8-5.9
		c-0.8-0.8-1.6-1.4-2.5-2C400.1,90.1,397.7,86.7,396.5,82.3z M524.4,162.8c0.1-0.2,0.3-0.5,0.1-0.2
		C524.6,162.3,524.5,162.6,524.4,162.8l-0.1,0.2L524.4,162.8z M615.2,212.3c0.1-0.5-0.2-0.7-0.7-0.7c-0.9-1.6-1.2-3.3-0.6-5.2
		c0.4-1.4,0.8-2.8,0.2-4.4c-1.1-0.9-2.3-1.9-3.5-3c-1.9,1.2-3.8,2.4-5.5,3.5c1.3,3.3,3.9,5.2,6.4,7.1c0.7,0.5,1.3,1.1,2,1.5
		c0.3,0.2,0.7,0.2,1,0.3C614.4,212.1,614.7,212.3,615.2,212.3c0.3,0.8,0.9,0.8,1.6,0.6c-0.2,0.8,0.5,0.9,1,1.2c0,0,0.2-0.2,0.2-0.3
		c0-0.1,0-0.3,0-0.3c-0.4-0.2-0.8-0.3-1.3-0.5C616.4,212.4,615.8,212.2,615.2,212.3z M450.2,176.6c3.2-2.6,3.9-4.5,1.9-8.4
		c-0.3-0.2-0.8-0.4-1.2-0.6c-4.2-2-7.7-4.9-10.8-8.3c-0.4-0.4-0.5-1-0.8-1.5c1.2,0,1.9,0.9,2.8,1.5c3.8,2.7,7.2,6.1,11.6,7.9
		c0.3,0.6,0.5,1.2,0.7,1.7c0.2,0.4,0,1.2,1,1.3c1-2,2-4.1,3.2-6.1c1.2-2.1,2.7-4,4.1-5.9c-4.1-10.4-17.7-17.1-27.6-13.6
		c0,0.9,0,1.8,0,2.8c-0.2,3,0.3,5.8,2.3,8.1c-0.8,0.2-0.8,0.8-0.6,1.4c0.6,2.7,1.4,5.4,1.9,8.1c0.6,3,1.8,5.7,3.3,8.3
		c0.1,0.1,0.4,0.2,0.7,0.2c0.3-0.6,0.5-1.1,0.8-1.7c3.4,0.5,4.7,0.9,6.2,2.1C450.2,174.8,450.7,175.6,450.2,176.6
		c-1.5-0.6-3-1.7-4.9-1.7c-1.1,0-1.8,0.3-2.2,1.3c0.6,2.2,1.7,3.9,3.8,4.8c0.9-0.9,1.8-1.6,2.7-2.5
		C450.2,178,450.5,177.4,450.2,176.6z M440.1,176.6l0.2,0.2L440.1,176.6c-0.2-0.5-0.3-1.1-0.5-1.6c-1.4-3-2.3-6.1-3-9.3
		c-0.8-4.1-1.8-8.2-2.8-12.3c0-0.1-0.2-0.1-0.3-0.2c-1-0.1-1.4,0.7-2.1,1.2c-1.3,0.9-2.5,1.9-3.9,2.5c-5.1,2-10.4,3.1-15.9,3.2
		c0.5-0.3,1-0.8,1.5-1c2-0.7,4.1-1.4,6.2-2c4.7-1.5,9.7-2.3,13.5-6c0-1.2-0.1-2.6,0-3.9c0.1-1.3,0.5-2.6,0.7-3.6
		c1-0.7,1.8-1.1,2.3-1.7c1.9-2.3,3.7-4.8,4.7-7.7c0.5-1.5,0.9-3,0.6-4.6c-1.1-6.1-3.2-11.6-7-16.5c-1.1-1.4-2.3-2.4-3.9-3.2
		c-1.8-0.9-3.6-1.9-5.4-3c-1.1-0.7-2.2-0.9-3.4-1c-2.2-0.2-4.4-0.2-6.4-1c-2.5-1-5.4-1.7-7.1-4.1c-0.2-0.3-0.6-0.4-0.9-0.6
		c-4.5-3-9-6.1-13.6-9c-2.9-1.9-5.8-4-9-5.3c-4.8-2-9.8-3.5-14.7-5.2c-0.2-0.1-0.4,0.1-0.8,0.2c-0.4,0.7-0.8,1.6-1.3,2.6
		c0.8,0.1,1.4,0.2,2,0.2c3.2-0.2,6.2,0.3,9,2c0.5,0.3,1.1,0.5,1.7,0.7c4.6,2,8.9,4.4,13,7.2c5.4,3.8,9.3,8.7,11.8,14.8
		c1.3,3.3,1.5,6.6,0.1,9.9c-2.1,5.2-4.9,10-9.9,13.1c-0.3,0.2-0.6,0.4-0.9,0.7c-0.9,0.7-1.4,1.6-1.2,2.8c0.5,3.1,0.2,6.3-0.4,9.4
		c-0.1,0.7-0.2,1.4-0.3,2.1c3.7,1.8,6.8,4,9.6,6.6c2.9,2.7,5.7,5.5,9.5,7c0.7,0.6,1.3,1.4,2.1,1.9c1.8,1.2,3.7,2.2,5.6,3.3
		c2.2,1.3,4.9,2.2,6.4,4.5c0.1,0.2,0.4,0.3,0.6,0.4C430.6,173.3,435.2,175.3,440.1,176.6z M419,212.3c0.4,0.1,0.7,0.1,1.2,0.2
		c0.4-0.8,0.8-1.7,1.3-2.5c0.4-0.7,0.8-1.5,1.2-2.2c0.5-0.8,1-1.6,1.6-2.4c0.5-0.7,1-1.4,1.6-2c0.6-0.7,1.3-1.5,1.9-2.2
		c0.6-0.6,1.2-1.2,1.8-1.8c0.7-0.7,1.4-1.3,2.2-1.9c0.7-0.5,1.4-1,2-1.5c0.7-0.5,1.5-0.8,2.2-1.9c-0.7,0.2-1.1,0.2-1.4,0.3
		c-3.5,2.5-7.1,5.1-10.6,7.6c-0.8,0.6-1.4,1.3-2.1,2c-2.8,3.2-5.7,6.3-8.3,9.6c-1.9,2.3-3.7,4.8-5.4,7.3c-0.8,1.2-1.3,2.5-2,3.9
		c2,3.7,4,7.3,5.8,11c1.8,3.7,5.2,6.3,7.4,9.7c0.5,0,0.9,0,1.6,0c-0.2-0.6-0.3-1-0.5-1.4c-4-9.3-4.2-18.8-1.5-28.4
		C419.5,214.5,419.3,213.4,419,212.3L419,212.3z M383.4,175.3c0-0.1,0-0.2,0-0.3c0,0-0.1,0-0.2-0.1
		C383.3,175,383.4,175.1,383.4,175.3c0.4,3.5,1.9,6.7,3.4,9.8c2.7,5.5,5.7,10.9,8.6,16.4c0.4,0.8,0.9,1.6,1.6,2.8
		c0.8-2.3-0.7-4-0.3-6.5c1.5,3.1,2.8,5.5,1.1,8.4c0.9,1.8,1.5,3.9,2.7,5.5c0.9,1.2,1.5,2.4,2,3.8c0.5,1.2,0.9,2.5,1.4,3.7
		c0.2,0.6,0.3,1.4,1.2,1.5c1.1-1.7,2.2-3.4,3.4-5.1c4.8-6.8,11.3-11.9,17.8-16.9c2.5-1.9,5-3.7,7.8-5.8c-2.1-1-4.1-1.6-5.7-2.8
		c-3.9-2.7-8.5-3.4-13-3.9c-0.2,0-0.5,0-0.7-0.1c-2.8-0.7-5.7-1.2-8.4-2.1c-1.9-0.6-3.6-2-5.5-2.7c-2-0.7-4.2-1-6.3-1.6
		c-0.7-0.2-1.4-0.5-2-0.8c-2.3-1-4.6-2.1-7-3.1C384.8,175.5,384.1,175.4,383.4,175.3z M528,117.1c0.2,0.2,0.4,0.3,0.2,0.1
		C528.5,117.3,528.2,117.2,528,117.1c-0.1-0.1-0.2-0.5-0.3-0.5c-2-1.1-4-2.2-6-3.3c-0.5-0.3-1.2-0.4-1.7-0.4
		c-3.7,0.5-7.5,0.9-10.5,3.4c-0.9,0.8-2,1.4-2.9,2.1c-3.4,2.7-6.7,5.6-10.2,8.1c-4.4,3.2-7.9,7.4-11.6,11.4
		c-3.6,3.9-7.1,7.9-10.8,11.7c-4.3,4.4-8.4,9.1-12.2,13.9c-1.3,1.7-2.5,3.6-3.6,5.5c-1.3,2.3-2.4,4.7-3.7,7.1
		c-1.2,2.2-2.3,4.5-4.6,5.9c-0.4,0.3-0.6,1-0.9,1.5c1,1.1,1.9,2,2.8,3c1.9,2.1,4.1,3.1,7,3.1c6.6,0,12.6,2,18.1,5.6
		c8.2,5.3,13.9,12.7,16.5,22.2c0.2,0.7,0.2,1.6,1.2,2c0.7-1.1,1.3-2.1,1.9-3.2c3.5-5.8,6.9-11.6,10.4-17.5c2.5-4.3,5-8.6,7.5-12.9
		c0.9-1.6,1.5-3.3,1.9-5.1c1.5-6.6,3.8-13,6.8-19.1c0.4-0.8,1-1.6,1.4-2.3c0.9,0.8,1.5,1.8,2.4,2.2c2.5,1.2,3.8,3.3,4.3,5.9
		c0.3,1.7,1.1,3.2,2,4.6c2.3,3.6,5.4,6.5,8.6,9.2c3,2.5,6.2,4.7,9.1,7.2c3.8,3.4,7.6,6.7,12.3,8.8c0.9,0.4,1.5,1.1,2.2,1.8
		c2.2,2.6,4.7,4.9,7.5,6.8c4.4,3,8.6,6.3,12.6,9.8c0.8,0.7,1.7,1.5,2,2.5c0.4,1.1,1.1,1.9,1.8,2.6c1.1,1.3,2.2,2.6,3.4,3.7
		c1.8,1.8,3.4,3.8,4,6.3c0,0.2,0.3,0.3,0.7,0.6c1.8-0.2,3.7-0.4,5.6-0.5c4.3-0.2,6.9-2.7,8.5-6.3c1-2.1,2-4.2,3.4-5.9
		c1-1.2,1.6-2.4,1.1-4c-4.3-2.2-7.9-5.5-11.5-8.8c-1.7-1.5-3.1-3.4-4.6-5.1c-0.6-0.6-1.1-1.2-1.8-1.8c-4.7-4.4-9.4-8.7-14.1-13.1
		c-0.5-0.5-1-1.2-1.6-1.4c-2.6-0.7-4-2.7-5.4-4.6c-2.7-3.7-5.4-7.5-7.8-11.3c-2.2-3.5-4.1-7.1-7.2-10c-0.5-0.5-1-1.1-1.4-1.7
		c-4.3-6-8.7-11.9-13-17.9c-0.6-0.8-0.9-1.7-1.3-2.6c-0.7-1.5-1.4-3.1-2.1-4.6c-0.8-2-2.3-3.3-4-4.5c-2.7-2-5.7-3.6-7.8-6.3
		c-0.9-1.2-2.2-1.8-3.7-2c-1.7-0.3-3.3-0.7-5.3-1.1c-2.4,0.8-4.8,2.5-7.4,3.9c-4.3,2.3-8.3,5-12.2,7.8c-2,1.4-4.1,2.6-5.3,4.8
		c-0.2,0.4-0.7,0.6-1.1,1c-2,2-4,3.9-5.8,5.9c-2.9,3.1-5.6,6.4-8.4,9.5c-9.6,10.5-18.1,21.8-25.6,33.8c-0.5,0.8-1.1,1.6-1.7,2.4
		c-0.2,0.2-0.6,0.3-1.1,0.5c0.1-0.7,0.1-1.2,0.2-1.6c1.1-3.2,2.7-6.2,4.7-9c4.3-5.9,8.5-11.8,12.9-17.5c5.7-7.2,12.3-13.7,18.9-20
		c1.6-1.5,3.4-2.9,4.6-4.6c1.6-2.4,3.6-4.2,5.9-5.9c5.4-4.1,11.3-7.5,17.1-11c2-1.2,4.2-1.8,6.6-1.5
		C526.3,117.1,527.2,117.1,528,117.1z M349.7,165.5c1.6-4.5,0.4-8.9,0.5-13.7c2.9,4.4,2.2,8.7,1.9,13.2c0.5-0.2,0.9-0.2,1.1-0.5
		c0.4-0.5,0.6-1,0.9-1.6c2.3-5.5,4.8-10.8,8-15.8c1-1.5,1.4-3,0.7-4.8c-0.4-1.1-0.3-2.4-0.4-3.6c-0.1-2.2-0.1-4.4-0.4-6.5
		c-0.3-2.3-0.3-4.6-0.4-6.9c-0.2-3.7-0.7-7.4-2.1-11c-1-2.5-1.5-5.1-2.2-7.7c-0.2-0.8-0.3-1.6-0.5-2.5c-1.8,0-3.5,0.1-5.2,0
		c-1.7-0.1-3.4-0.4-5-0.5c-0.5,0-1,0.1-1.4,0.1c-10.3-0.1-20.5,1.3-30.8-0.1c-3.4-0.5-5.8,0.9-8.1,3c-1,1-1.9,2.2-3,3.2
		c-1.4,1.2-2.2,3.3-4.4,3.6c-0.3,0-0.5,0.5-0.7,0.8c-2.1,3-4.9,5.3-7.6,7.8c-1.9,1.7-3.8,3.3-4.7,5.8c-0.2,0.4-0.5,0.8-0.9,1.1
		c-3.1,2.2-5.4,5.2-8,7.9c-2.6,2.7-5.1,5.5-7.6,8.3c0,1.1-0.1,2.2,0,3.3c0.3,4.6,0.6,9.2,1,13.8c0.2,2.5,0.8,3.1,3.3,3.4
		c0.6,0.1,1.2,0.1,1.8,0.1c6.5,0.1,13.1-0.3,19.6,0.3c0.1,0,0.2,0,0.4,0c1.4-0.1,3,0.2,4.3-0.3c1.7-0.7,3,0.6,4.5,0.3
		c3.6-0.7,7.2-0.2,10.8-0.3c4.1-0.1,8.2-0.2,12.3-0.2c4.6,0,9.2,0.2,13.8,0.2C343.9,165.7,346.6,165.6,349.7,165.5z M492.6,227.9
		c0.3-19.2-15.4-36.3-35.9-36.7c-19.5-0.4-37.5,14.9-37.5,36.7c0,21.9,18,36.8,36.7,36.8C476.2,264.6,492.9,247.9,492.6,227.9z
		 M362,113.3c0.6,2.2,1.2,4.4,1.7,6.7c0.1,0.6,0.3,1.3,0.1,1.7c-0.9,1.3-0.4,2.6-0.3,3.9c0.2,3.5,0.7,7,0.5,10.5
		c-0.3,4.7,1,8.9,3.2,12.8c1.2,2.2,2.1,4.3,2.7,6.7c0.6,2.4,1.6,4.6,3,6.6c0.3,0.5,0.8,1,1,1.5c0.3,1.2,1.1,1.8,1.9,2.6
		c3.8,3.5,8.1,6.2,12.7,8.2c5.2,2.3,10.5,4.4,15.7,6.6c4.9,2.1,9.9,2.9,15.1,3.7c2.4,0.4,4.8,0.9,7.1,1.3c1.7,0.3,3.2,0.9,4.5,2.2
		c0.5,0.5,1.2,0.8,1.8,1.1c2,0.8,4.1,1.5,6.1,2.3c1.3,0.5,2.5,0.3,3.9-0.1c2.7-0.8,5.4-1.3,8.1-1.9c0.2,0,0.3-0.2,0.5-0.4
		c-0.1-0.2-0.2-0.6-0.3-0.6c-1.8-0.6-2.9-2.1-4.1-3.5c-1.1-1.3-2.1-2.6-3.3-3.9c-0.7-0.8-1.7-1.3-2.8-1.5
		c-6.1-1.4-11.7-3.9-16.2-8.4c-1.7-1.7-3.7-3-5.9-4.2c-4.3-2.3-8.4-4.8-12-8c-3.9-3.5-8.1-6.4-12.6-9.1c-2.4-1.4-4.5-3.3-6.7-4.9
		c-0.1-0.1,0-0.6,0-0.9c1.2,0,1.9,1.2,3,1.1c-0.2-3.2-0.4-6.2-0.7-9.2c-0.3-3-0.7-6-1.2-9c-0.4-2.6-1-5.2-1.3-7.9
		c-0.2-1.3-0.7-2.6,0.3-4.1c0.4,0.4,0.9,0.6,1,1c0.4,1.5,0.6,3.1,0.9,4.6c0.2,0.9,0.3,2,0.7,2.8c1.5,2.4,2.4,5,3.1,7.9
		c0.5-0.4,1-0.6,1.3-0.9c2.6-3.6,5.4-7.2,7.3-11.2c1.5-3.1,2.9-6.2,1.6-9.7c0.6-1.9-0.5-3.2-1.7-4.5c-4.2-4.7-8.7-9.1-14.3-12.2
		c-4-2.3-7.9-4.6-12-6.9c-0.8-0.5-1.8-0.7-2.7-0.8c-2-0.2-4.1-0.2-6.2,0c-2.1,4.1-4.3,8-6.3,12c-0.4,0.8-0.4,1.9-0.4,2.8
		c0,1.9,0.2,3.9,0.2,5.8c-0.1,2,0.2,3.8,1.3,5.5c0.4-0.1,0.9-0.2,1.3-0.2c0.8,0.8,0.9,1.6,1,2.7C362.8,113.6,362.4,113.4,362,113.3z
		 M649.5,239.7c-1-0.5-1.9-0.9-2.8-0.8c-0.4,1-0.7,1.9-1.1,2.7c-0.3,0.5-0.6,1.1-1.5,0.8c-1.3-1.6-0.4-3.3-0.1-5.2
		c-0.9-0.6-1.8-1.1-2.6-1.6c-0.9,1-1.5,1.8-2.3,2.5c-0.3,0.2-0.9,0.2-1.3,0.1c-0.2-0.1-0.5-0.6-0.4-0.9c0.2-1.1,0.5-2.1,0.7-3.2
		c-0.8-1-1.5-2.1-2.8-2.6c-0.9,1.1-1.6,2-2.4,2.9c-0.8,0.8-1.5,1.7-3,2.4c0.5-1.8,0.8-3.2,1.2-4.6c0.4-1.4,1.6-2.4,1.8-3.7
		c-1.5-2.2-1.6-2.2-3.1-2.9c-1.6,4.3-3.3,6.7-5.9,8.1c-0.1-0.2-0.4-0.4-0.4-0.6c0.7-3.8,1.3-7.6,3.7-10.9c-2.1-2.6-4.2-5-6.3-7.6
		c-0.8,0.5-1.5,0.9-2.3,1.4c0.1,1.9-0.9,3.4-2.1,4.8c-1.6,1.8-3.3,3.5-4,6c-0.2,0.7-0.8,1.2-1.2,1.8c-2.3,2.6-5,4.5-8.7,4.5
		c-2.1,0-4.3,0.5-6.3-0.3c-0.5-0.8-0.8-1.6-1.4-2.2c-1.6-1.8-3.2-3.6-4.9-5.3c-0.6-0.6-1.6-0.9-2.7-1.4c-0.6,1.7-1.2,3.2-1.6,4.6
		c-0.2,0.7-0.2,1.5,0,2.1c1.1,4.2-0.4,8.2-1.4,12.1c-0.4,1.5-0.7,3-0.7,4.6c0.1,2.4,0,4.8-0.7,7.2c-0.1,0.3,0.1,0.7,0.1,1.2
		c6.2,1.2,12.4,2.1,18.7,1.7c2.8-0.2,5.6-0.2,8.3-0.1c1.4,0.1,2.6-0.2,3.6-1.1c3,0.5,5.8,1,8.7,1.5c2.9,0.4,5.7,1.3,8.6,1
		c3-0.3,6-0.6,9-1.1c5.5-0.9,10.9-2,16.4-2.9c2.4-0.4,4.8-0.6,7.2-0.9c3.8-0.5,6-2.8,7.2-6.2c-0.6-1.5-1-2.9-1.6-4.2
		c-0.3-0.6-0.7-1.2-1-1.7c-5.3,0-10.4,0.7-15.2-0.9c-0.8,0.7-1.4,1.2-2.3,2C650.1,241.6,649.8,240.7,649.5,239.7z M343.7,199.7
		c-0.3-2.9-0.9-5.9-0.9-8.9c0-4.1,0-8.2,0-12.3c0-2.9-0.1-5.8-0.1-8.7c0-0.6-0.1-1.1-0.2-1.8c-2.5,0-4.8-0.1-7.1,0
		c-2.4,0.1-4.8-0.4-7.1,0.5c0,2.3,0,4.5,0,6.6c0.1,4.2,0.4,8.5,0.4,12.7c0.1,7.4,0,14.8,0.1,22.1c0,0.9-0.3,1.9,0.6,2.9
		c0.4,0,0.8,0.1,1.3,0.1c8.7,0,17.4-0.1,26.1-0.1c1.7,0,3.4,0.1,5.1-0.1c6.3-0.5,12.6-0.6,18.9-0.5c1.3,0,2.7,0,4,0.2
		c3.9,0.8,7.9,0.8,11.9,0.7c0.5,0,1.1-0.2,1.9-0.3c-2.7-4.2-4.5-8.6-6.9-12.5c-4.3-0.4-8.3-0.9-12.5-0.5c-2.9,0.3-5.8,0.2-8.7,0.3
		c-2.9,0.1-5.8,0.4-8.7,0.5C355.9,200.8,349.9,200.4,343.7,199.7z M346.3,167.7c1.3,3.6,0.8,7,0.9,10.4c0.1,3.5,0,7,0.1,10.5
		c0.1,3.4-0.8,6.7-0.7,10.2c0.2-0.2,1.8-1.7,1.9-1.9c0.5,0,1.1-0.1,1.7,0c3.8,0.6,7.7,0.4,11.6,0.3c7.5-0.2,15-0.1,22.5-0.1
		c1.2,0,2.4,0,3.5,0.8c0.9,0.6,2,0.8,3.1,0c-0.7-1.4-1.4-2.8-2.1-4.2c-2.1-4-3.9-8.1-5.3-12.3c-0.8-2.4-1.6-4.8-2.4-7.2
		c-0.3-0.8-0.5-1.5-1.2-2.2c-2.2-2.1-4.2-4.3-6.5-6.3c-1.4-1.2-1.9-3-3.2-4.2c-1.3-1.3-1.6-3.2-1.9-5c-0.5-3.4-2.3-6.3-3.8-9.5
		c-1.4,1.3-1.7,2.8-2.2,4.3c-0.4,1.2-0.7,2.6-1.3,3.8c-1.6,3.4-3.2,6.7-4.9,10.1c-0.4,0.9-1,1.6-2,2
		C351.4,167.1,349,167.1,346.3,167.7z M268.7,213.2c2.2-0.9,2.2-0.9,4.3-0.5c1.1,0.2,2.1,0.5,3.2,0.6c1.2,0.1,2.4,0.2,3.6,0.1
		c2.4-0.1,4.8-0.4,7.2-0.5c3.5-0.1,6.9-0.1,10.4-0.1c0.5-2.9,0.5-8.8,0-12.2c-1-0.2-2-0.5-3.1-0.5c-4.3,0.2-8.7,0.4-13,0.8
		c-2.6,0.2-5.2,0.6-7.8,0.1C270.5,206.8,269.1,210.3,268.7,213.2z M578.9,213.1c-1.1,1.2-1.9,2.1-2.8,3.1c0,2.5,0,5.1,0,7.8
		c0,2.2-0.4,4.3-1.1,6.4c-0.8,2.2-1.3,4.6-2,6.9c0.6,0.4,1.1,0.9,1.6,0.9c2.9,0.4,5.7,0.3,8.5,0c1-1.9,1.2-3.9,1-5.8
		c-0.3-3.9,0.9-7.3,2.9-10.7C584.5,218.8,581.8,216,578.9,213.1z M632.9,225c2.8,3.6,5.3,6,9.6,9c0.9,0.6,1.9,1,2.8,1.5
		c2.5-1.1,5.3-1,7.5-2.7c0.4-3.3-1.1-5.7-2.9-8.2c-1.3,0-2.6,0-3.9,0c-1.7-0.1-3.4-0.1-4.9-0.9c-2.2-1.2-4.5-1.3-6.9-1.8
		C633.7,223.1,633.3,224.1,632.9,225z M297.7,267.6c-2.3,0-3.9,0.1-5.5,0c-7.9-0.7-15.7,0.7-23.5,0.8c-1,0-1.9,0.4-2.9,0.5
		c-1.1,0.1-2.2,0.4-3.2,0.2c-2.9-0.9-6-0.7-8.9-1.2c-1.9-0.4-3.8-0.3-5.8-0.3c-2.2,0-4.3,0.2-6.5,0.3c-0.5,0-1,0.1-1.4,0.1
		c-0.6,0.1-1.2,0.2-1.8,0.4c-0.3,0.1-1-0.2-1,0.8c0.8,0.1,1.6,0.3,2.4,0.3c3.5,0.1,7-0.1,10.5,0c14.4,0.4,28.8-0.2,43.2-0.5
		C294.6,268.8,295.9,268.7,297.7,267.6z M464.7,155.9c-0.4-0.7-0.7-1.4-1-2c-4.1-6.2-9.7-10.3-17-12.1c-2.2-0.6-4.5-0.9-6.8-0.6
		c-0.5,0.1-0.9,0.6-1.8,1.2c1.4,0.1,2.3,0.2,3.1,0.2c6.9,0.1,12.8,2.6,17.6,7.4c1.7,1.7,3,3.8,4.5,5.6
		C463.4,155.9,463.6,156.4,464.7,155.9z M627.4,219c0.6,2.1,2.1,3.1,3.6,4.2c0.1,0.1,0.4,0,0.7,0c0-0.7-0.1-1.4-0.1-2
		C630.1,220.5,628.7,219.8,627.4,219z M344.7,171.2c-0.1,0-0.1,0-0.2-0.1c0,1.1,0,2.1,0,3.2c0.1,0,0.1,0,0.2,0
		C344.7,173.2,344.7,172.2,344.7,171.2z M350.3,199c0.2-0.1,0.4-0.1,0.6-0.2c-0.2-0.1-0.4-0.1-0.6-0.2c-0.1,0-0.2,0.1-0.3,0.1
		C350.1,198.8,350.2,198.9,350.3,199z M361.8,15.2c0-0.1,0-0.2-0.1-0.2c-0.2,0-0.5-0.1-0.7-0.1c0,0.1,0,0.4,0.1,0.4
		C361.4,15.2,361.6,15.2,361.8,15.2z"/>
	<path d="M253.7,382.4c-0.9,0.1-1.1,0.8-1.4,1.5c-1.4,3.8-1.8,7.6-1.3,11.6c0.3,2.8,0.7,5.7,1.1,8.5l0.1-0.1
		c-0.2-0.2-0.6-0.4-0.7-0.7c-1.8-4.7-2.6-9.5-1.8-14.6c0.2-1.2,0.2-2.4,0.3-3.6l-0.1,0.1c0.9-0.7,1.1-1.6,1.3-2.8
		c-0.7-0.2-1.3-0.2-1.7,0.2c-0.4,0.5-0.7,1.2-1,1.8l0.1-0.1c-0.5,0.5-1,1-1.5,1.6c-2.1,2.2-2.6,4.8-2.1,7.7c0.2,1.3,0.8,2.5,0.1,3.9
		c-0.2,0.3,0,0.7,0,1.1c0.6,3.7,1,7.4,1.8,11.1c1.6,7.1,3.1,14.2,4.1,21.3c0.7,0,0.8-0.5,0.9-1c0.1-2.3,0.3-4.6,0.3-6.9
		c0.1-2,0.3-4,1.1-6.2c-0.1,4.1-0.2,7.9-0.2,11.8c0,3.8-0.4,7.6,0.3,11.5c0.4-2.8,0.9-5.7,1.5-9.3c0.4,3.9,0.4,7-0.1,10.1
		c-0.6,4-1.4,7.9-2.7,11.6c-0.7,1.9-1.3,3.9-3.4,5.4c0.7-4.5,1.5-8.6,1.6-12.8c0-4.1,0-8.2-0.5-12.2c-0.6,2.7-0.5,5.5-1.5,8.8
		c-0.2-1-0.4-1.4-0.4-1.8c0.7-7.8-0.4-15.4-1.7-23.1c-0.7-4.1-1.6-8-3-11.9c-1.5-4-2.1-8.2-1.8-12.5c0.3-4.8,2-8.9,5.6-12.2
		c0.4-0.4,0.7-0.9,1.1-1.5c-0.4-0.6-0.7-1.1-1.2-1.5c-1.1-1.1-1.9-2.5-2.3-4c-0.5-1.7-1-3.5-1.6-5.2c-0.6-1.9-1-3.7-0.9-5.7
		c0-4,0.5-8,1.5-11.8c0.5-1.9,1.1-3.7,1.4-5.6c0.2-1.7,0.9-3,1.9-4.2c0.5-0.6,1.1-1.3,1.6-1.9c4.3-5.3,4.3-5.3,10.2-8.5
		c1.4-0.8,2.9-1.2,4.5-1.2c1.4,0,2.9,0,4.3-0.1c4.2-0.3,8.2,0.7,12.2,1.5c1,0.2,2,0.9,2.8,1.6c1.7,1.5,3.5,2.1,5.7,1.8
		c2.3-0.3,4.6-0.5,6.8-0.8c0.8-0.1,1.7-0.3,2.5-0.3c0.9-0.1,1.7,0.5,1.8,1.4c0.1,1.2,0,2.4,0,3.7c0.6,1.5,2.2,1.1,3.5,1.5
		c0.4,0.6,0.9,1.2,1.4,1.9c2.7,0.5,2.7,0.5,4.6,2.8c1.1,0.3,2.1,0.6,3.1,1c0.6,0.2,1.1,0.5,1.6,0.8c1.5,2.6,0.9,5.1-0.3,7.6
		c-0.7,1.3-1.5,2.5-2.1,3.8c-0.4,0.7-0.7,1.5-0.9,2.3c-1.3,6.5,1.6,11.2,6.7,14.9c0.3,0.2,0.6,0.4,0.9,0.6c4.5,3,4.5,3,9.7,2.9
		c1,0,1.9-0.1,2.9-0.1c0.5,0,1,0,1.4-0.2c4.4-2.4,9-4.6,13.4-7.1c0.4-0.2,0.9-0.5,1.1-0.9c2.4-3.4,6-4.7,9.7-5.8
		c1.9-0.5,3.7-1,5.6-1.3c4.4-0.8,8.7,0.1,12.8,1.4c3.2,1,6,2.7,7.2,6.1c0,0.1,0.1,0.2,0.2,0.3c1.8,2.8,2.9,5.8,3.3,9.1
		c-0.5-0.3-1.1-0.6-1.6-0.9l0.1,0.1c-0.8-2.3-2.3-4.2-3.6-6.2c-0.4-0.6-1.1-1.2-1.1-1.8c-0.1-1.5-1.1-2.1-2.1-2.7
		c-2-1.3-4.1-2.1-6.4-2.3c-2-0.2-3.8-0.6-5.5-1.6c-2.5,0.7-5,1.4-7.4,2c-1.5,0.3-2.7,1-3.9,1.9c-2.5,1.8-5.1,3.7-7.7,5.4
		c-0.9,0.6-1.9,1.1-2.9,1.5c-2.3,0.8-4.5,1.5-6.8,2.3c-2,0.6-3.7,1.6-5.5,2.7c-3,2-6.1,3.9-9.3,5.7c-2.6,1.5-5.4,2.8-8.4,3.3
		c-1.8,0.3-3.4,1.2-5,2.5c0.6,0.1,0.9,0.2,1.2,0.2c2.1-0.5,4.2-1,6.3-1.5c3-0.7,6.1-1.3,9-2.8c1-0.5,2.3-0.7,3.5-0.7
		c3.1-0.1,6.3-0.1,9.4,0c1.1,0,2.1,0.3,3.2,0.6c1.4,0.4,2.8,0.8,4.2,1.3c0.7,0.2,1.3,0.4,1.7,1.2c0.2,0.5,0.8,0.9,1.2,1.2
		c5.4,3.7,8.7,8.9,11.1,14.9c1,2.6,1.5,5.1,0.6,7.7c-0.1,0.2,0.1,0.4,0.2,0.8c1.3-0.1,2.6,0,3.9-0.2c2.8-0.5,5.7-1.3,8.5-1.7
		c5-0.7,10.1-1.5,15.1-1.7c4.7-0.1,9.4-0.5,14.1-0.9c3.2-0.3,6.5-0.3,9.4-1.2c0.9-2.9,1.5-5.6,2.6-8.2c1-2.4,2.3-4.8,3.7-7
		c1.5-2.3,3.4-4.4,5-6.4c-0.4-1.3-1.2-1.6-2.2-1.8c-3.5-0.5-7-0.7-10.3-2.1c-1.5-0.6-3-0.8-4.6-0.8c-3.5,0-7,0-10.5,0
		c-0.5,0-1.1,0.2-1.4,0.3c-0.1,3.3,0.2,6.3-0.2,9.3c-0.4,3.1-1.3,6.2-2,9.2c-1.3,5.2-1.9,6.5-3.9,8c-0.1-0.6-0.3-1-0.1-1.4
		c0.5-1.4,1.2-2.7,1.6-4c0.7-2.2,1.7-4.3,2-6.6c0.6-4.4,0.7-8.9,0.2-13.4c-0.1-0.7-0.3-1.4-0.5-2.1c-1.4,0-2.6,0.1-3.7,0
		c-1-0.1-1.2-0.5-1.3-2.1c1.9-0.3,3.8-0.1,5.8,0.2c2,0.3,4.1,0.2,6.1,0.2c2.9,0,5.8-0.2,8.7-0.3c1.6,0,3.1,0.5,4.6,1
		c2.1,0.7,4.2,1.1,6.3,1.5c0.9,0.2,1.9,0,3.1,0c-2.4-7.8-2.6-15.4,0.6-22.9c2.4-5.5,6.3-9.7,11.2-13c8.9-5.9,24-5.9,33.2,1.2
		c5.6,4.4,9.6,9.9,11.1,16.9c1.5,6.9,0.7,13.7-2.2,20.1c2.3,2.4,4.5,4.6,6.7,6.9c5.1,0.3,10.1,0,15.1-0.9c6.1-1.1,12-3,17.9-4.4
		c8-1.9,16.2-2.7,24.4-3.3c14.3-1.1,28.5-0.8,42.8-0.4c3.4,0.1,6.8,0.4,10.1,0.7c0.5,0,1.1,0.1,1.4,0.3c1.5,1.4,3.5,1.5,5.3,2.1
		c1.4,0.5,2.7,0.9,3.9,1.9c0.6,0.5,1.5,0.8,2.2,1.1c2,0.8,4,1.7,5.7,3.1c0.8,0.6,1.9,0.8,3.1,1.3c0.3,2.9,0.1,5.9,0.2,8.9
		c1.3,1,2.9,1.2,4.4,1.6c2.1,0.7,4.3,1.6,5,4.1l0.1-0.1c-1.4,0.3-2.6-0.6-3.7-1.1c-4.1-1.9-8.2-3.5-12.7-4.3c-2.4-0.4-4.7-1-7.1-1.7
		c-7.4-2-14.8-3.5-22.4-4.2c-3.5-0.3-7-0.4-10.5-0.3c-7.3,0.1-14.5,0.4-21.8,0.6c-1.7,0-3.4-0.1-5.1-0.3c-2.6-0.2-5.3-0.6-7.8,0.7
		c-0.6,0.3-1.4,0.3-2.1,0.4c-5.4,0.6-10.8,1-16.2,2c-1.1,0.2-2.4,0-3.6,0c-1.8-2.7-1.6-5.9-2.3-8.9c-1.8,0-3.4,0.5-5,0.9
		c-5.5,1.4-11,2.7-16.8,2.4c-0.8-0.1-1.7,0.1-2.8,0.2c0.4,0.9,0.8,1.7,1.2,2.4c2.9,5.4,4.4,11.2,4.4,17.4c0,4-0.1,8-1.3,11.9
		c-3.5,11.6-10.8,19.8-21.8,24.8c-0.9,0.4-1.8,0.8-2.6,1.2c-0.1,0-0.1,0.2-0.1,0.3c0,0.7,0.6,0.6,1,0.8c5.3,2.2,10.8,3.5,16.5,4
		c3.3,0.3,6.6-0.1,9.8-0.6c6.5-1.1,12.7-3,18.4-6.4c1.9-1.1,3.6-2.4,4.8-4.9c-0.1-1.3-0.2-3-0.5-4.6c-1.7-9-3-18.1-3.8-27.3
		c-0.4-4.1,0.4-7.9,1.7-11.7c0.1-0.2,0.3-0.3,0.5-0.5c0.6,0,0.9,0.3,0.8,0.8c-0.1,1.1-0.4,2.1-0.6,3.2c-0.5,2.6-0.5,5.3-0.2,8
		c0.9,7.1,1.9,14.2,2.8,21.2c0.3,2.2,0.3,4.3,0.5,6.5c0.1,1,0.1,1.9,0.2,2.9c0,0.3,0.3,0.6,0.5,1.1c3.8,0.2,7.6,0.7,11.5-0.2
		c1.5-0.4,3.1,0,4.7,0.1c1.2,0,2.4,0.3,3.6,0.1c5.3-0.6,10.6-1.4,15.7-2.7c1.2-0.3,2.4-0.5,3.5-0.7c0.7-0.2,1.5-0.3,2-0.7
		c0.7-0.6,1.5-0.7,2.3-0.8c4.2-0.3,8.3-1.6,12.4-2.4c5.1-1,10.2-2,15.3-3c1.2-0.2,2.4-0.3,3.6-0.2c0.8,0,1.8,0.2,2.4,0.7
		c0.6,0.5,0.8,1.4,1.2,2c-0.7,1.1-1.4,1.9-1.8,2.9c-1.4,3.5-2.8,6.9-4.1,10.4c-0.9,2.4-1.7,4.8-2,7.3c-0.1,0.7-0.3,1.4-0.4,2.1
		c-1.7,6.9-1.9,13.9-1.7,20.9c0,1.3,0.1,2.7,0,4c-0.2,2.2,0.1,4.3,0.4,6.5c0.4,3.2,0.8,6.5,1.1,9.7c0.3,3.7,0.6,7.5,0.8,11.2
		c0.2,2.7-0.1,5.3-0.4,8c-0.5,4.7-0.7,9.4-1.1,14.1c-0.1,1.4-0.5,2.8-0.8,4.3c-0.1,0.3-0.4,0.5-0.8,0.9c-0.3-0.5-0.6-0.8-0.8-1.2
		c-0.7-1.7-0.5-3.6-0.4-5.4c0.2-2.4,0.4-4.8,0.6-7.3c-1.2-0.5-2.4-0.9-3.4-1.4c-0.9-0.5-1.8-1.1-2.9-1.8c-1.6,5.4-0.9,10.7-0.8,16.2
		c0.9-0.6,1.7-1,2.5-1.5c2.2,0.9,3.5,2.7,4.3,4.7c0.5,1.4,1.4,2.2,2.5,3c1.1,0.7,2.1,1.5,3.3,2.4c2.7,0.1,5.3-1,8-1.8
		c0.6-0.2,1.1-0.9,1.6-1.4c3-3.7,6.3-7,9.9-10.1c0.6-0.5,1.2-0.9,1.8-0.1c-0.2,1.2-1.3,1.7-2,2.5c-1.9,1.9-3.8,3.8-5.6,5.7
		c-0.9,0.9-1.6,1.7-1.9,3c-0.3,1.2-1.3,2-2.4,2.5c-3,1.4-6.1,2.4-9.7,2.1c-0.8-1.4-2.2-2.2-3.6-3.1c-1.9-1.1-3.5-2.5-4-4.9
		c-0.2-1.1-0.4-1-2.1-2.4c-1.2,0.7-1.8,1.8-2.1,3.1c-0.4,1.8-0.8,3.5-1.3,5.3c-0.4,1.5-1.3,2.9,0,4.5c0.1,0.2,0.1,0.5,0.1,0.7
		c-1,6-2.2,11.9-5,17.3c-0.1,0.2-0.4,0.3-0.6,0.4c-0.7-0.1-1.2-0.7-1-1.3c1.3-3,0.9-6.4,2.3-9.5c0.7-1.6,0.7-3.5,0.9-5
		c-1.5-1.7-2.8-3.1-4.2-4.6c0.4-1.1,0.8-2.1,1.3-3c0.9-1.7,1.7-3.5,1.1-5.3c0.2-0.4,0.3-0.7,0.5-0.8c2.1-1.4,2.9-3.2,2.8-5.8
		c-0.1-3.6,0.2-7.2,0.4-10.9c0.1-0.8,0.5-1.6,1-2.3c0.6-0.9,1.5-1.2,2.6-0.9c0.8,0.2,1.6,0.5,2.4,0.7c0.8-1.4,0.6-2.7,0.4-4
		c-0.3-1.6-0.2-3.1-0.1-4.7c0.3-5.8,0.6-11.6,0.7-17.4c0.1-6.9-0.8-13.8-2.5-20.5c-1.6-6.2-2.7-12.5-2.9-19
		c-0.1-3.9,0.3-7.7,1.2-11.5c0.4-1.8,1.2-3.6,1.3-5.5c-0.9-0.6-1.8-0.3-2.6-0.1c-2.8,0.6-5.6,1.5-8.5,1.9c-4.1,0.5-8,1.8-11.8,3.2
		c-7.2,2.7-14.8,3.7-22.4,4c-4.7,0.2-9.4,0.2-14.1,0.3c-0.5,0-1,0.1-1.4,0c-2-0.8-3.4-0.1-4.7,1.5c-1,1.2-2.3,2.2-3.7,2.9
		c-3.9,2-7.7,4-11.8,5.6c-5.8,2.4-12,2.6-18.2,1.9c-7.1-0.8-13.6-3.2-19.8-6.5c-2.9,0.1-5.6,0.3-8.4,0.3c-13.8-0.1-24.3-6.4-32-17.6
		c-0.7-1-1.2-2.1-2-3.3c-0.5-0.1-1.1-0.2-1.6-0.2c-3.9,0.1-7.7,0.3-11.6,0.5c-1,0-1.9-0.2-2.9-0.3c-3.4,1.5-6.8,3.1-10.2,4.5
		c-2.8,1.2-5.6,2.4-8.5,3.2c-3.1,0.9-6.3,1.5-9.5,2.3c-0.6,0.1-1.2,0.2-2,0.3c-1.9,4.2-3.8,8.5-5.7,12.8c-0.3,0.8-0.6,1.6-0.7,2.4
		c-0.3,2.6-1,5-2.1,7.3c-1.5,3.4-3.2,6.8-4.9,10.1c-0.4,0.7-1,1.3-1.5,1.9c-2.7-0.2-5.2-0.1-7.8,0.3c0.9,5.3,0.6,10.5,0.8,15.6
		c0.2,5.2-0.4,10.4-0.8,15.5c1.3,0.2,1.6-0.5,1.5-1.6c1.1,0,2.1-0.1,3.2,0c3.1,0.3,6.3,0.4,9.4,0.2c4.2-0.2,8.5-0.1,12.7-0.1
		c3.6,0,7.3,0,10.9,0c1.2,0,2.4,0,3.5,0.8c0.4,0.3,1.1,0.5,1.7,0.5c1.7,0.1,2.7,1.1,3.4,2.4c0.6,1.2,1.2,2.4,1.6,3.6
		c0.8,2.5,1.6,5.1,2.4,7.6c0.2,0.5,0.7,1,1,1.5c0.1,0.3,0,0.7,0,1c-0.3,0.2-0.5,0.4-0.7,0.4c-3.6,0-7.3,0-10.9,0
		c-0.4,0-0.8,0-1.1-0.2c-2-1.2-4.2-1-6.4-0.9c-6,0.2-12.1,0.5-18.1,0.6c-10.4,0.1-20.8,0-31.5,0c-0.1,0.4-0.2,1.1-0.3,1.7
		c-0.2,3.6-0.4,7.3-0.6,10.9c-0.1,1.8,0.2,3.6,0.4,5.3c0.1,1.7-0.5,3.3-0.5,5c0,3.9,0.2,7.7,0.5,11.6c0.4,4.9,0.5,9.9-0.2,15
		c1.7,0.7,3.6,0.8,5.5,1.1c2,0.3,4.1,0.4,6.2,0.4c11.4,0.1,22.8,0,34.1,0.2c6.5,0.1,13,0.7,19.6,1.2c1.6,0.1,3.4,0.3,4.7,1.4
		c0,0.7-0.3,1-0.8,0.9c-3.6-0.5-7.2-0.2-10.8,0.5c-4.8,0.9-9.6,1.3-14.4,1.3c-5.7,0-11.4,0.1-17.1-0.1c-3.5-0.1-7-0.1-10.5,0.1
		c-0.5,0-1-0.1-1.4,0c-3.2,1-6.5,0-9.7-0.2c-0.8,0-1.6-0.1-2.5-0.1c-1.9,0.1-3.4-0.6-4.8-2.3c0.6-0.1,1-0.4,1.2-0.3
		c2.5,1.2,5.2,0.8,7.7,1.2c1.1,0.2,2.1,0.3,3.2,0.4c0.7,0.1,1.4,0,2.1,0c1.3-0.1,2.7-0.1,4-0.3c4.9-0.8,9.9,0.1,14.8,0
		c5-0.1,9.9,0,14.9,0c1.2,0,2.4,0,3.6-0.1c1.3-0.1,2.6-0.5,3.9-1.1c-2.1,0-4.3-0.1-6.4-0.1c-11.9,0-23.7,0.1-35.6,0
		c-4.1-0.1-8.2-0.7-12.3-1.2c-0.3,0-0.6-0.3-0.9-0.5c-0.7-1.2-0.2-2.4-0.1-3.6c0.6-5.2,0.7-10.4-0.1-15.5c-0.1-0.4-0.2-0.7-0.2-1.1
		c-0.1-4.2-0.4-8.5-0.2-12.7c0.7-15,1-30,0.8-45c-0.1-6.4-0.3-12.8-0.5-19.2c0-0.3-0.2-0.7-0.3-1c-3.6-0.8-18.1-0.4-24.1,0.5
		c-0.1,0.6-0.3,1.3-0.3,2c-0.4,9.6-0.8,19.1-1,28.7c-0.1,5.3,0.2,10.6,0.4,16c0.3,7.7,0.8,15.5,0.6,23.2c-0.1,3.8-0.1,7.5-0.2,11.3
		c0,0.4,0.1,0.8-0.1,1.1c-1.6,3.8-0.7,7.9-0.8,11.8c0,1.6,0.2,3.1-0.7,4.6c-0.2,0.4,0.1,1.1,0.2,1.9c-0.6,0.2-1.2,0.5-1.9,0.6
		c-1.8,0.2-3.6,0.3-5.4,0.4c-12,0.7-23.9,0.8-35.9,0.7c-1.8,0-3.6,0.3-5.4,0.4c-0.8,0-1.7,0.1-2.5-0.1c-3.7-0.6-7.5-0.2-11.2-0.3
		c-0.8,0-1.6,0.4-2.3,0.5c-1.6,2.6-5.3,11.1-6.1,14.1c6.4-0.4,12.8-0.1,19.1-0.2c0.7,0,1.5,0.1,2.2-0.2c2.1-0.9,4.3-0.7,6.4-0.7
		c10.2,0,20.3-0.1,30.5,0c8.8,0.1,17.7,0.5,26.5,0.5c9.1,0,18.1-0.2,27.2-0.3c1.6,0,3.1-0.1,4.7-0.1c16.2,0.1,32.4,0.2,48.7,0.3
		c1.3,0,2.7,0.1,4,0.2c1.3,0,2.6,0.3,4.1-0.2c-0.1-0.6-0.2-1.1-0.3-1.7c-0.8-2.5-1.7-5-2.4-7.6c-0.4-1.5-0.5-3.1-0.7-4.7
		c0-0.4,0.3-0.8,0.5-1.1c1.2,0,1.4,0.7,1.6,1.4c1.1,2.8,2.1,5.7,3.2,8.5c0.7,1.8,1.4,3.6,2.2,5.4c0.6,1.5,0.8,3-0.3,4.5
		c-1.5-0.2-1.6-1.8-2.8-2.7c-0.7,0-1.6,0-2.6,0c-15.6,0.4-31.2,0.6-46.8,0.6c-6,0-12.1,0.3-18.1,0.5c-1.7,0-3.4,0.1-5.1,0.1
		c-9.1,0-18.2,0.1-27.2,0c-3.4,0-6.8-0.3-10.2-0.4c-3.1-0.1-6.3-0.2-9.4-0.2c-8.4-0.1-16.7-0.1-25.1-0.1c-2.5,0-5.1,0.2-7.6,0.3
		c-1.2,0-2.4-0.2-3.6-0.2c-4.1,0-8.2,0-12.3,0.1c-0.8,0-1.7,0-2.5,0.2c-1.8,0.5-3.6,0-5.3-0.2c-0.2,0-0.4-0.3-0.5-0.5
		c0-0.1-0.1-0.3-0.1-0.4c1.4-5.2,2.2-10.6,4.9-15.4c0.6-1.1,1-2.5,1.5-3.9c0.5-0.2,1.2-0.7,1.8-0.8c2.4-0.3,4.8-0.5,7.2-0.8
		c0.6-0.1,1.2,0.1,1.8,0c5.5-1.3,11.1,0.2,16.6-0.1c0.5,0,1-0.1,1.4,0.1c2.4,0.9,4.7,0.5,7.1,0.1c1.2-0.2,2.4-0.2,3.6-0.2
		c3.1,0,6.3-0.1,9.4-0.4c2.5-0.3,5.1,0,7.6,0.2c2.7,0.2,5.5,0.6,8.2-0.2c-0.5-8.1-0.1-16.2,0.5-24.3c0.4-5.2-0.1-10.4-0.2-15.6
		c-0.1-2.9-0.3-5.8-0.5-8.7c0-0.5-0.1-0.9-0.2-1.6c-0.8-0.1-1.6-0.4-2.4-0.3c-4,0-8,0.1-12,0.2c-0.4,0-0.7,0-1.1,0.1
		c-3.4,0.9-6.7,0.3-10-0.4c-0.9-0.2-1.9-0.4-2.8-0.5c-0.7,0.6-1.4,1.2-2.1,1.6c-0.3,0.2-1,0.1-1.3-0.1c-0.3-0.2-0.7-0.8-0.6-1.2
		c0.3-1.5,0.6-3.1,1.1-4.6c1.2-3.7,2.5-7.3,4.7-10.5c8.7-0.6,17.3-2.2,26.2-0.9c0.8-4.9,0.4-9.8,0.8-14.7c0.4-4.9,0.9-9.9,1.3-14.9
		c-0.7-0.2-1.3-0.3-1.8-0.4c-3-0.2-6-0.4-9-0.6c-0.7,0-1.5,0-2.2,0c-3.5,0.1-7,0.4-10.4,0.4c-1.6,0-3.1-0.3-4.7-0.7
		c-1.8-0.4-3.2-2-3-3.6c0.6-3.5-0.4-7-0.5-10.5c-0.1-2.7-0.2-5.3-0.4-8c-0.1-2,0.6-3.5,1.9-4.9c3.3-3.6,6.8-6.8,10.7-9.7
		c0.9-0.7,1.6-1.4,2.1-2.4c1.3-2.6,3.3-4.8,5.3-6.8c3.4-3.3,7-6.3,9.9-10c0.3-0.4,0.7-0.6,1.2-1c-0.2-0.4-0.4-0.9-0.7-1.2
		c-2.1-1.9-3.2-4.6-4.2-7.1c-1.4-3.5-1.7-7.1,0.5-10.5c0.9-1.5,1-3,0.5-4.5c-0.7-2-1.6-4-2.5-6c-0.3-0.6-0.7-1.4-1.3-1.7
		c-2.9-1.8-6-3.2-9.5-2.4c-1.6,0.4-3.3,0.8-4.9,1.4c-2.4,0.8-4.8,0.7-7.1,0c-3-1-5.9-2.1-8.9-3.2c-1.2-0.5-2.4-1.1-4-0.9
		c0,0.8-0.2,1.9,0.2,2.4c1.1,1.2,0.8,2.7,1.2,4.1c0.5,2.1,1.1,4.2,1.8,6.2c0.9,2.4,2,4.7,3,7c2.6,6.3,3.1,12.9,2.2,20
		c-0.9-1.3-0.9-2.5-0.9-3.6c-0.4-5.9-2.2-11.4-4.3-16.8c-0.7-1.8-1.4-3.6-2.1-5.4c-0.5-0.2-0.9-0.4-1.3-0.6
		c-0.2-0.3-0.3-0.5-0.4-0.7c-0.3-1.1-0.5-2.1-0.7-3.2c-0.1-0.5-0.4-0.9-0.3-1.4c0.2-2.3-0.3-4.5-1.1-6.7c-0.3-0.7-0.1-1.5,0.5-2
		c0.8-0.6,0-1.3,0.1-2c0.4-0.4,0.7-1,1.2-1.3c3.1-1.7,6-3.9,8.8-6.1c0.4-0.3,1-0.4,1.6-0.6l-0.1-0.1c-0.4,1.3-1.6,1.9-2.5,2.8
		c-0.8,0.8-1.7,1.6-2.5,2.3l-0.1,0.1l0.1-0.2c1.7,0.1,2.9-0.9,4.1-1.7c1.6-1,3-2.2,4.6-3.3l-0.1-0.1c0.2,0.8-0.2,1.4-0.7,1.9
		c-0.8,0.9-1.6,1.9-2.4,2.8c1.4-0.2,2.6-0.8,3.8-1.2c0.5-0.2,1.1-0.3,1.7-0.5l-0.1-0.1c-0.1,0.2-0.1,0.5-0.2,0.7
		c-1.9,1.7-4.1,3-6.5,3.8c-2.5,0.8-5,0.8-7.5,0.2c-0.6-0.1-1.2-0.2-1.5,0.8c1.5,0.9,3,1.8,4.9,1.9c0.9,0,1.9,0.2,2.8,0.6
		c3.4,1.3,7.1,1.2,10.7,1.7c1.4,0.2,2.9-0.2,4.2-0.7c1.8-0.7,3.5-1.7,5.2-2.6c0.9-0.5,1.7-1.4,2.8-1.2c1.6,1.8,2.9,3.6,4.7,5
		c2.5,1.9,3.8,4.3,4.7,7.1c0.3,1,0.7,2,1,2.9c0.9,0.2,1.5,0.4,2.3,0.6c-0.3,0.7-0.5,1.1-0.7,1.5c-1.7,2.7-2.4,5.7-3,8.9
		c-0.6,3.9,1,6.9,3.3,9.6c1.7,2,3.8,3.7,5.9,5.3c3.5,2.6,7.1,5,11.5,5.9c5.3,2.5,11.1,3.5,16.8,4.6c5,1,9.8,2.3,14.6,4
		c2.1,0.7,4,1.5,6,2.6c2.3,1.3,4.8,2.5,7.5,1c0.3-0.2,0.7-0.2,1.1-0.2c4.7-0.2,9.4-1.1,14-2.1c1.8-0.4,3.7-0.5,5.2-1.4
		c1.8-1,3.8-1.5,5.7-2.2c1.7-0.6,3.4-1.2,5.1-1.9c6.6-2.8,12.7-6.4,19.1-9.7c0.2-0.1,0.3-0.3,0.6-0.7c-0.2-1.6-0.4-3.4-0.6-5.2
		c-0.2-1.9,0.2-3.8-0.3-5.7c-2.8-0.1-5.5-0.2-8.1-0.2c-0.4,0-0.7,0.1-1.1,0.2c-2.8,0.9-5.7,0.9-8.6,0.8c-4.9-0.1-9.6,0.7-14.5,1.1
		c-4.8,0.4-9.5,1.8-14.4,1.5c-0.6,0-1.2,0.2-1.7,0.5c-4.2,1.8-9,2.1-13,4.3c-0.6,0.3-1.1-0.1-1.3-1c0.9-0.7,1.8-1.4,2.7-2.1
		l-0.1,0.1c2.3-0.3,4.4-1.1,6.4-2c0.3-0.8,0.6-1.5,0.9-2.1c1-2,0.9-3.9-0.1-5.9c-2.6-4.8-5.4-9.4-9.7-13c-1.1-0.9-2.3-1.9-3.7-2.2
		c-1.7-0.3-2.7-1.5-3.4-2.2c-9.3-1.2-17.8,0.6-26.3,2.4c-0.1,0-0.2,0.4-0.3,0.6c0.4,1,1.8,0.8,2.4,1.9c-4.6,0.1-8.9,0.6-13.3-0.5
		c-1.2,0.8-2.4,1.6-3.6,2.4c-0.4,0.3-0.8,0.4-1.1-0.2c0.8-1.3,2.6-1.8,2.9-3.5c0-0.3,0.5-0.5,0.8-0.7c2.7-1.2,5.2-3.1,8.3-3.6
		c1.1-0.2,2.1-0.7,3.1-1.1c2-0.9,4-1.8,5.9-2.9c1.7-1,3.4-2.2,5.2-3.4c-1.8-0.4-3.4-0.7-4.9-1.1c-0.9-0.3-1.8-0.7-2.1-1.8
		c-0.4-1.5-1.6-2.2-2.8-2.6c-1.5-0.5-2.4-1.6-3.4-2.6c-1.7-1.9-2.4-4.1-3-6.5c-1.1-4.5-0.2-8.7,2.6-12.3c1.2-1.5,1.6-3.2,2.2-4.9
		c0.2-0.7,0-1.4-0.8-1.9c-0.5-0.3-1-0.8-1.6-0.8c-1.9-0.3-3.3-1.3-4.4-2.8c-0.5-0.7-1.3-1-2.4-0.5c-0.9,0.9,0.3,2.7-1.3,3.4
		c-1.5-0.5-0.5-1.5-0.5-2.4c0.1-1.1,0.6-2.1-0.2-3.4c-0.5-0.2-1.2-0.3-1.8-0.6c-1.3-0.6-1.9,1.3-3.1,1.2c-0.3-2.6,1.6-4.9,0.3-7.5
		c-2.9,0.9-5.7,1.5-8.6,1.8c-3.1,0.3-5.8-0.4-7.8-2.8c-0.1-0.2-0.4-0.2-0.3-0.2c-1.8-0.2-3.2-0.3-4.6-0.6c-3.4-0.8-6.9-1-10.4-1.1
		c-1.2,0.9-2.6,1.4-2.8,3.1c-3,0.7-5.3,2.4-7.5,4.4c-2,1.8-3.7,3.8-5.1,6.1c-0.3,0.5-0.7,1-1.5,2c0.3-2.7,1.5-4.2,2.6-5.8
		c0.6-0.9,1.2-1.8,1.8-2.7c0.5-0.1,0.7-0.3,0.6-0.9c0.2,0,0.4,0,0.6,0c0.1,0,0.2-0.1,0.3-0.2c-0.2-0.1-0.4-0.3-0.5-0.2
		c-0.2,0.1-0.2,0.3-0.3,0.5c-0.3,0.2-0.5,0.4-0.8,0.6c-0.5,0-0.9,0.1-1.4,0.1c0-0.3,0-0.6,0-0.9c0.3-0.2,0.5-0.4,0.8-0.7
		c0.5,0,0.7-0.2,0.7-0.7c1,0,1.8-0.4,2.2-1.4c0.6,0.1,1.2,0,1.4-0.7c0.3-0.1,0.6-0.1,0.3-0.1c0.2-0.2,0,0-0.2,0.2
		c-0.6,0-1.2-0.1-1.5,0.7c-1,0-1.8,0.5-2.1,1.5c-0.5,0-0.7,0.2-0.7,0.7c-0.3,0.2-0.5,0.4-0.8,0.7c-0.1,0.1-0.2,0.2-0.2,0.3
		c0,0.2,0.1,0.3,0.2,0.5c-0.6,0.4-1.3,0.7-1.7,1.3c-1.5,2.3-3,4.7-3.5,7.5c-0.6,3.7-1.1,7.4-1.6,11.1c-0.2,1.4-0.5,2.9-0.5,4.3
		c-0.1,3.7,0.8,7.2,2,10.6c0.1,0.3,0.3,0.5,0.6,0.9c-0.1-3.1-0.3-6-0.2-8.9c0.1-2.9,0.5-5.8,0.7-8.6c0.3,1.4,0.4,2.9,0.4,4.3
		c0,3.3,0,6.5,0.1,9.8c0.1,1.8,0.3,3.6,0.7,5.4c0.6,2.8,1.7,5.3,4.8,6.3C253.4,382,253.5,382.2,253.7,382.4z M403.1,430.1
		c4,0.3,7.3,0,9.7-0.9c-0.3-1.1-0.4-2.3-1.4-3.3C408.6,427.3,405.9,428.8,403.1,430.1c-0.2,0.2-0.4,0.3-0.3,0.2
		C402.7,430.5,402.9,430.3,403.1,430.1z M429.9,380.7c2.6-0.9,5.4-1.2,7-3.8c0.1-0.2,0.4-0.3,0.6-0.3c2-0.9,4-1.7,6.1-2.6
		c1.9,0.2,3.9,0.4,6,0.6c1,0.8,1.6,2.7,3.6,1.5c0.1-1.6-0.5-2.7-2.1-3.3c-2.7-1.1-5.3-2.3-8-3.4c-1-0.4-2-0.6-3.1-1
		c-1.1,1-2.2,1.8-3.1,2.7c-0.3,0.2-0.5,0.6-0.6,0.9C434.9,375.4,432.3,378,429.9,380.7l-0.1,0.2L429.9,380.7z M412.4,415.1
		c-0.4,17.7,13.8,36.7,36.7,36.6c21.8-0.1,36.7-17.4,36.6-36.7c0-20-15.8-36.7-36.8-36.6C426.5,378.4,412,396.9,412.4,415.1z
		 M306.7,475.8c13.3,0,26.5,0,39.7,0c0.7,0,1.4-0.2,2.3-0.3c0.2-0.9,0.6-1.7,0.6-2.5c0-3.3-0.2-6.5-0.3-9.8c0-0.3,0.2-0.5,0.4-0.9
		c1.9,3.7,2.4,5.5,1.8,13c0.5-0.4,1-0.6,1.1-0.9c0.5-1.1,1-2.2,1.4-3.3c1.6-3.9,3.1-7.9,4.8-11.8c1.5-3.6,3.2-7.1,4.7-10.6
		c0.7-1.6,1.5-3.3,1.9-5.5c-3.1,0.4-5.8,1.3-8.8,1.2c-0.4-0.6-0.8-1.1-1.1-1.7c-0.9-0.2-1.8-0.2-2.6-0.5c-0.8-0.3-1.5-0.8-2.3-1.1
		c-3.6-1.2-7.1-2.3-10.7-3.4c-0.5-0.1-0.9-0.2-1.4-0.3c-4.7-1-9.5-2-14.2-2.9c-3.4-0.7-6.5-1.7-9.6-3.3c-1.9-1-3.8-2.1-5.8-2.8
		c-2.3-0.9-4.4-2-6.3-3.5c-0.8-0.6-1.5-1.1-2.5-1.9c-0.8,0.4-2,0.5-2.4,1.1c-2.6,3.4-5.8,6.1-8.9,9c-1.2,1.2-2.6,2.4-3.3,3.8
		c-0.7,1.6-1.8,2.5-3,3.5c-0.7,0.6-1.5,1.2-2.2,1.9c-4,4.2-7.9,8.5-11.8,12.7c-0.2,3.3,0.6,14.1,1.4,19.2c2.1,1.4,2.1,1.4,4.7,1.4
		c4.2,0,8.5-0.1,12.7-0.1c1.8,0,3.6,0.3,5.4,0.3c1.7,0.1,3.5,0.4,5.1-0.1c1.9-0.6,3.5,0.2,5.2,0.1c0.9-0.1,1.9-0.2,2.7-0.3
		c0.3-0.6,0.5-1,0.7-1.4C306.3,474.8,306.5,475.1,306.7,475.8z M454.8,376.5c2.4,0.7,4.9,1.2,7.3,2.1c2.5,0.9,4.9,2,7.4,3.1
		c0.5-0.6,0.9-1.2,1.4-1.7c0.5-0.5,0.5-1.6,1.8-1.2c-0.7,1.2-1.4,2.3-2.3,3.8c0.4,0.3,0.7,0.6,1.1,1c5.8-8.7,4.1-23.5-4.9-32.2
		c-9.8-9.6-25.4-10.8-36.5-2.3c-11.6,8.8-13.5,24.4-8.1,33.8c0.8,0.3,1.6,0.6,2.4,0.8c1.7,0.4,2.7-0.7,3.8-1.6c0,0,0-0.2,0-0.3
		c-0.4-0.4-0.8-0.8-1.2-1.2c1.1-1.1,2.2-1.9,3-2.9c1.4-1.8,2.6-3.8,3.9-5.7c0.7-1,1.4-2,2.3-2.8c1.1-1.1,2.4-2,3.8-3
		c1.6,0.5,3.2-0.1,4.7-0.7c0.8-0.3,1.6-0.6,2.5-0.3c1.3,0.6,2.6,1.2,3.3,2.7c0.4,0.9,0.9,1.7,1.4,2.5c0.3,0.2,0.5,0.3,0.7,0.4
		c2.1,0.9,2.9,2.4,2.3,4.7C454.6,375.7,454.8,376.1,454.8,376.5z M342.8,510.4c-0.2-0.5-0.4-0.8-0.5-1.1c-0.2-3.4-0.5-6.8-0.6-10.1
		c-0.1-4.2,0-8.5-0.1-12.7c0-1.3-0.3-2.6-0.3-4c0-1.3,0.1-2.6,0.2-3.9c-2.7-0.6-11.3-0.5-14.5,0.2c-0.3,1.5-0.1,3,0,4.6
		c0.2,4.3,0.5,8.7,0.5,13c0.1,8,0,16,0.1,23.9c0,0.9-0.3,2,0.5,2.7c0.2,0,0.5,0.1,0.7,0.1c9.8,0,19.6-0.1,29.4-0.1
		c1.2,0,2.4-0.1,3.6-0.2c8.7-0.4,17.4-1,26,0.4c2,0.3,4.1,0.4,6.1-0.1c-2-4.2-4-8.4-6.1-12.8c-2.3-0.2-4.7-0.8-7.3-0.5
		c-2.8,0.3-5.5,0.3-8.3,0.4c-1.4,0.1-2.9,0.3-4.3,0.3c-6.2,0.1-12.3,0.1-18.5,0.1c-0.2,0-0.5-0.1-0.7-0.1
		C346.9,510,344.9,509.8,342.8,510.4z M509.3,398.5c0.6-0.1,1.1-0.2,1.5-0.2c2.6-0.5,5.2-1.1,7.8-1.7c2-0.4,3.9-1.1,5.9-1.3
		c6-0.6,12-1.3,18-1.6c8.3-0.5,16.7-0.8,25-1c2.3-0.1,4.6,0.3,6.9,0.4c7.4,0.3,14.6,1.8,21.7,3.8c2.8,0.8,5.5,1.7,8.3,2.6
		c0.5,0.2,1.1,0.2,2,0.3c-1-2.2-3.3-3.3-3.4-5.6c1-0.8,1.5-0.9,1.9-0.4c1.3,1.4,2.2,3.1,2.9,4.8c-0.2,0.6-0.4,1.1-0.6,1.6
		c1.1,0.3,2.1,0.6,3.3,0.9c0.2-2.3,0.5-4.5-0.3-6.3c-3.2-2.3-6.4-3.9-9.9-5.1c-0.7-0.2-1.4-0.5-2-0.9c-1.1-0.9-2.3-1.3-3.7-1.5
		c-2.5-0.4-5-0.9-7.5-1.3c-1.8-0.3-3.6-0.2-5.3-1c-0.5-0.3-1.2-0.3-1.8-0.3c-5-0.1-9.9-0.2-14.9-0.1c-8.7,0.1-17.4,0.3-26.1,0.7
		c-4.7,0.2-9.4,0.9-14.1,1.3c-5.2,0.5-10.2,1.8-15.3,3.1c-0.2,0.1-0.3,0.3-0.6,0.5C509.3,392.8,509.3,395.6,509.3,398.5z
		 M577.8,437.7c0.4,2.2-0.3,4-0.8,5.9c-1.9,7.2-2.5,14.5-0.9,21.9c0.3,1.4,0.6,2.8,0.9,4.3c1.2,4.8,2.5,9.6,2.8,14.6
		c0.1,1.3,0.1,2.6,0.3,3.9c0.8,5.3,0.4,10.6,0,15.9c-0.4,5.7-1,11.3-0.1,17c0.1,0.5,0.2,0.9,0.9,0.9c0.2-0.3,0.5-0.5,0.5-0.8
		c0.3-3.2,0-6.5,1-9.7c0.1-0.3,0-0.7,0-1.1c-0.4-4.7-0.9-9.4-1.2-14.1c-0.2-2.3-0.2-4.6,0.1-6.8c0.1-1.1,0.3-2.1,0-3.2
		c-0.7-2.8-1.2-5.7-1.3-8.6c-0.1-7,0.3-14,2-20.9c0.1-0.4,0.2-0.7,0.3-1.1c1.1-5.6,3.2-10.9,6.2-15.8c0.7-1.1,1.5-2.2,1.7-3.6
		c-0.4-0.2-0.7-0.5-1-0.5C585.4,435.9,581.7,436.9,577.8,437.7z M267.5,523.7c1.4-1.2,2.8-1.2,4.4-0.8c3,0.8,6.1,1.2,9.3,0.4
		c0.5-0.1,1-0.1,1.4-0.1c4.1,0,8.2,0,12.3,0c0.6,0,1.2,0.2,1.6-0.4c0.4-4.4,0.1-9.2-0.6-11.9c-0.9-0.1-1.8-0.4-2.8-0.4
		c-4.3,0.2-8.7,0.4-13,0.8c-2.6,0.2-5.2,0.6-7.8,0.1C270,515.7,268.1,520.6,267.5,523.7z M296.6,577.9c-4.7-0.1-8.6-0.3-12.6-0.2
		c-5.5,0.2-11.1,0.4-16.6,1c-3.1,0.3-6.1,0.8-9.3-0.2c-1.7-0.5-3.6-0.1-5.4-0.5c-2.1-0.5-4.1-0.4-6.1-0.3c-2,0-4.1,0.2-6.1,0.3
		c-0.6,0-1.2,0.1-1.8,0.2c-0.5,0.1-1,0.2-1.4,0.3c-0.5,0.1-1.1-0.2-1.5,0.7c0.5,0.2,1,0.4,1.4,0.4c1.9,0,3.9,0,5.8,0
		c0.8,0,1.7-0.2,2.5-0.2c1.6,0,3.1,0.3,4.7,0.3c6.8,0,13.5,0,20.3,0c1.6,0,3.1,0,4.7,0c5.2-0.2,10.4-0.3,15.6-0.5
		c1.2,0,2.4-0.1,3.6-0.3C295,578.7,295.5,578.4,296.6,577.9z M571.1,546.6c-1.2,0.8-2,1.4-2.9,2c0.7,0.7,1.1,1.7,2.5,1.2
		C570.8,549,570.9,548.1,571.1,546.6z M446.1,367.4c0.5,0.4,0.8,0.7,1.2,1c0.3,0.2,0.7,0.7,1.2,0.1
		C448.1,367.5,447.3,367.2,446.1,367.4z M343,483.1c0.1,0,0.2,0,0.4,0c0-0.7-0.1-1.4-0.1-2.1c-0.1,0-0.2,0-0.2,0
		C343,481.7,343,482.4,343,483.1z M350,509.1c0-0.1,0-0.1,0-0.2c-0.4,0-0.9,0-1.3,0c0,0.1,0,0.1,0,0.2
		C349.1,509.1,349.5,509.1,350,509.1z M571.1,543c0.1,0,0.2,0,0.3,0c0-0.4,0-0.8,0-1.2c-0.1,0-0.2,0-0.3,0
		C571.1,542.2,571.1,542.6,571.1,543z M248.1,381.7l-0.1,0.2l0.2,0L248.1,381.7z"/>
	<path d="M596.8,576.5c-2.5,0.4-4.7,0.8-7,1.2c-0.5,0.1-1.1,0-1.4,0.3c-2,2.1-4.6,0.9-6.8,1.1c-2.4,0.2-4.5-0.7-6.4-2.1
		c-0.7-0.5-1.5-0.6-2.3-0.9c-1.4-0.4-2.8-0.8-4.1-1.3c-1.3-0.5-2.4-1.2-3.2-2.3c-0.2-0.2-0.2-0.8,0-1c0.2-0.2,0.6-0.3,0.9-0.3
		c0.3,0,0.7,0.2,1,0.3c1.8,1,3.8,1.5,5.8,2c1.6,0.4,3.2,0.8,4.6,2c1.1,1,2.7,1.1,4.1,0.9c3-0.4,6-0.9,9-1.2c2.9-0.4,5.8-0.6,8.6-0.9
		c0.8-0.1,1.6,0,2.6,0c-0.3,0.4-0.5,0.7-0.9,1.1c1.7,0.2,3.2,0.2,4.7-0.2c1-0.2,1.9-0.2,2.8,0.4c1.4,0.9,2.9,1,4.5,0.8
		c1.3-0.2,2.6,0.1,4,0.2c1.3,0.1,2.7,0.4,4,0.2c4.1-0.5,8.1-1.2,12.2-1.9c4.3-0.8,8.5-1.6,12.8-2.4c0.4-0.1,0.8-0.2,1.1-0.1
		c1.8,0.8,3.3-0.2,4.8-0.9c1.8-1,3.6-2,5.3-3c0-3.2-1.7-5.7-2.3-8.6c-1.6-0.6-3.3-0.9-5-0.9c-3.2,0-6.3-0.7-9.3-1.6
		c-2.1-0.7-4.2-0.8-6.5-1.1c-0.5,0.7-0.9,1.4-1.5,2c-0.6,0.6-1.3,1-2.1,1.4c-0.8,0.4-1.8-0.5-1.6-1.4c0.2-1.1,0.6-2.1,1-3.3
		c-0.7-0.5-1.4-1-2.1-1.5c-3.5,3.8-3.5,3.8-5.9,3.8c-0.6-2.2,0.9-3.8,1.9-5.7c-0.5-0.4-1-0.8-1.6-1.3c-1.5,2.6-2.9,5-5.8,5.8
		c-0.8-0.3-0.8-1-0.7-1.5c0.3-1.3,0.7-2.6,1.3-3.7c0.6-1.3,1.4-2.5,2.2-3.8c-0.3-0.4-0.6-0.7-1-1.2c-1.5,1.1-1.8,2.9-3,4
		c-1.3,1.1-2.5,2.3-4.1,2.9c-0.6-0.6-0.4-1.1-0.1-1.7c1.3-3,2.7-5.9,4.1-9c-0.4-1.5-1.5-2.6-2.5-3.8c-1.3-1.5-2.6-2.9-3.8-4.4
		c-0.2-0.3-0.3-0.9-0.2-1.3c0.1-0.5,1-0.5,1.6,0c2.9,2.3,5.5,4.8,7,8.2c0.5,1,1.1,1.8,1.8,2.6c1.4,1.5,2.8,3,4.2,4.5
		c1.6,1.9,3.4,2.9,6,2.3c2.7-0.6,5.5-1,8.2-1.4c1.6-0.2,3-0.8,4.3-1.8c2.3-1.8,4.7-3.5,7-5.2c0.5-0.3,1-0.6,1.7-1.1
		c0.1,0.7,0.4,1.2,0.3,1.5c-0.2,0.5-0.6,1.1-1,1.5c-5.1,5.6-7.3,6.7-15.3,7.8c-0.9,0.1-1.9,0.2-2.9,0.3c2.2,1.8,3.6,2.4,5.8,2.6
		c0.6,0.1,1.2,0.1,1.8,0.3c3.6,1.3,7.3,1.7,11,2c1.6,0.1,3.1,0.5,4.7,0.6c1.4,0.1,2.3,0.9,2.6,2.2c0.6,2.7,1.2,5.4,1.7,8.1
		c0.1,0.7,0.2,1.4,0.2,2.1c-1.2,1.7-3.1,2.3-4.9,3c-1.5,0.6-2.9,1.1-4.4,1.7c-2.5,1-5.1,1.7-7.7,1.7c-5.5,0-10.8,1.2-16.2,2
		c-3.3,0.5-6.7,0.8-10.1,1.1c-2.8,0.3-5.6-0.4-8.1-1.5c-1.3-0.6-2.5-0.6-3.9-0.5c-1.3,0.2-2.7,0.1-4,0.3
		C598.9,577.7,597.6,577.4,596.8,576.5z"/>
	<path d="M649.8,540.2c-1.3-1.8-2.2-3.1-2.9-4.2c-0.5-0.1-0.7-0.3-0.9-0.3c-3.5,0.8-6.9,0.7-10.3-0.8c-0.2-0.1-0.5-0.1-0.8-0.1
		c-0.7,0.4-1.6,0.9-2.5,1.4c-0.3-1-0.6-1.8-0.9-2.7c-1.2-0.5-2.6-1-4-1.5c-0.6,0.8-1.2,1.5-1.8,2.2c-0.3,0.4-0.7,0.7-1.1,0.9
		c-0.5,0.3-1.2,0.5-1.6-0.1c-0.3-0.3-0.4-0.9-0.3-1.3c0.3-1,0.9-1.9,1.4-3c-1.4-0.6-2.7-1.2-4.1-1.8c-0.6,0.9-1.2,1.6-1.6,2.5
		c-0.7,1.5-1.8,2.1-3.6,2.3c-0.1-0.6-0.4-1.2-0.3-1.7c0.2-0.8,0.8-1.5,1.1-2.3c0.4-0.8,0.7-1.5,0.2-2.5c-1,0.9-1.9,1.8-2.9,2.6
		c-0.3,0.2-1,0.2-1.3,0c-0.3-0.2-0.5-0.9-0.3-1.2c0.8-1.5,1.7-2.9,2.5-4.4c0.1-3.7-1.2-7-3.4-10.2c-1.6,0.7-2.4,1.7-2.5,3.5
		c-0.3,3.5-1.1,6.9-0.5,10.5c0.2,1-0.1,2.1-0.3,3.2c0,0.2-0.5,0.5-0.8,0.5c-0.3,0-0.7-0.3-0.9-0.5c-0.2-0.4-0.4-0.9-0.3-1.4
		c0-4.3,0-8.7,0.2-13c0.2-3.7,0.6-7.5,1-11.2c0.5-4.6,1.6-9,3.6-13.2c1.2-2.5,1.9-5.2,2.5-7.9c1.1-5.1,2.2-10.2,3-15.3
		c0.9-5.1,1.9-10.2,3.1-15.3c0.6-2.6,0.7-5.3,1-7.9c0.1-1.2-0.1-2.4,1-3.3c0.4-0.3,0.4-1.1,0.5-1.7c0.6-3.2,1.3-6.4,1.8-9.6
		c0.5-3.2,1.2-6.4,0.5-9.7c-0.1-0.7-0.1-1.4-0.2-2c0.8-0.5,1.1,0,1.2,0.4c0.3,1.9,0.5,3.8,0.6,5.7c0,2-0.2,4.1-0.3,6.1
		c-0.2,4.6-1,9.1-2.9,13.4c-0.5,1.1-0.7,2.2-0.4,3.5c0.4,1.4,0.4,2.9,0.1,4.3c-1.4,6.6-2.5,13.3-3.8,19.9c-0.8,4.1-2,8.2-3.5,12.2
		c-2.3,6.4-4,12.9-5.4,19.6c-0.5,2.3-0.5,4.8-0.8,7.3c1.2,0.2,1.4-0.9,2-1.2c0.7-0.3,1.6-0.2,1.9,0.4c0.9,1.6,1.8,3.2,2.5,4.8
		c0.4,1,0.7,2.1,0.7,3.1c0,2.5,1.1,4.1,3.2,5.2c1.6,0.8,3.3,1.6,4.7,2.7c4.5,3.4,10.1,3.8,15,6c1.9,0.1,3.9,0.4,5.8,0.2
		c2.7-0.4,4.4,0.9,5.8,2.9c0.3,0.5,0.6,1.1,0.6,1.7C650.4,538.6,650.1,539.1,649.8,540.2z"/>
	<path d="M257.3,426.1c0.7,4.3,0.7,8.7,0.2,13c-0.5,4.2-1.2,8.3-1.4,12.6c0.4-0.7,1-1.3,1.1-2.1c0.9-4,1.8-8,2.7-12
		c0.1-0.6,0-1.2,0.2-1.8c0.9-2.5,1.5-5.1,1.2-7.7c0.7-0.6,1.3-1,1.9-1.5c0.1,0.2,0.2,0.4,0.2,0.5c-0.2,4.2-0.3,8.5-0.7,12.6
		c-0.4,4.1-1.8,8-4,11.6c-2.9,4.8-6.8,8.8-11.4,12c-0.6,0.4-1.2,0.7-1.9,1.1c-0.2,0.1-0.4,0-0.8,0c0.1-0.3,0-0.7,0.2-0.9
		c1-1,2-2.1,3.2-2.9c3.3-2.3,5.5-5.4,6.2-9.4c0.7-4,1.4-8.1,1.9-12.2C256.8,434.8,257,430.5,257.3,426.1z"/>
	<path d="M249.8,385.1c-2,4.5-2.3,9.2-1.8,14c0.2,1.7,0.2,3.3,0.3,5l0.1-0.1c-0.3-0.4-0.7-0.7-0.8-1.1c-1.4-5.4-1.1-10.7,0.2-16
		c0.2-0.8,0.3-1.6,0.5-2.5l-0.1,0.1c0.4-0.2,0.8-0.4,1.3-0.6c0.1,0.5,0.1,0.9,0.2,1.4L249.8,385.1z"/>
	<path d="M621.7,407.7c0.4,0.2,1.1,0.3,1.2,0.6c0.9,2.9,1.5,5.8,0.5,8.7c0,0.1-0.2,0.1-0.3,0.2c-0.2-0.1-0.5-0.2-0.5-0.3
		C622.3,413.8,621.5,410.8,621.7,407.7L621.7,407.7z"/>
	<path d="M597.5,428.9c-0.1,0.3-0.2,0.7-0.3,0.7c-3.4,0.8-6.8,0.6-10.6,0.4c1.4-0.9,2.5-1.1,3.7-1.1
		C592.7,428.8,595.1,428.3,597.5,428.9z"/>
	<path d="M496.2,427.7c-1.5,1.1-4.5,1.8-7.1,1.7c-0.7,0-1.5,0.1-1.7-0.8C489,427.7,492.2,427.4,496.2,427.7z"/>
	<path d="M497.3,415.6c0.3,3.9,0.6,7.8,0.9,12.3C496.7,423.2,496.4,419.2,497.3,415.6z"/>
	<path d="M505.4,399.2c-2.2,1.4-2.2,1.4-5.3,0.9C501.3,399,501.4,398.9,505.4,399.2z"/>
	<path d="M614.8,439.1c-2-2.5-2.2-3-2.3-4.8C614.5,435.6,614.9,436.6,614.8,439.1z"/>
	<path d="M253.5,409.1c-1.1-1.5-1.6-3.2-1.4-5.1L252,404C252.8,405.6,253.5,407.3,253.5,409.1L253.5,409.1z"/>
	<path d="M614.5,412.7c-0.8,0.1-1.3-0.4-1.7-1c-0.1-0.2-0.1-0.6,0-0.6c0.3-0.1,0.7-0.2,0.9-0.1C614.3,411.4,614.7,412,614.5,412.7
		L614.5,412.7z"/>
	<path d="M575.1,431c-0.3,1.1-1.1,1.5-2.6,1.1C573.6,431.6,574.3,431.3,575.1,431z"/>
	<path d="M500.2,428.2c0.8,0,1.6,0,2.3,0c0,0.1,0,0.2,0,0.4c-0.8,0.1-1.5,0.1-2.3,0.2C500.2,428.6,500.2,428.4,500.2,428.2z"/>
	<path d="M490.4,399.7c-0.7-0.1-1.5-0.1-2.2-0.2c0-0.1,0-0.2,0-0.3c0.8,0,1.6,0,2.4,0C490.5,399.4,490.4,399.5,490.4,399.7z"/>
	<path d="M579,430.7c0.7-0.2,1-0.4,1.4-0.4c0.3,0,0.6,0.1,1.2,0.2C580.7,431.2,580,431,579,430.7z"/>
	<path d="M618.9,420.6c-0.2,0.2-0.3,0.4-0.5,0.5c-0.2-0.3-0.3-0.5-0.5-0.8c0,0,0.2-0.2,0.2-0.2C618.4,420.3,618.6,420.4,618.9,420.6
		z"/>
	<path d="M616.6,444.8c1,0.2,0.7,0.9,0.3,1.6C616.8,445.9,616.8,445.3,616.6,444.8L616.6,444.8z"/>
	<path d="M616,443.2c-0.4-0.4-0.8-0.9-0.2-1.8C615.8,442.2,615.8,442.8,616,443.2L616,443.2z"/>
	<path d="M248.3,404c0.1,0.2,0.3,0.5,0.1,0.2C248.5,404.6,248.5,404.3,248.3,404L248.3,404z"/>
	<path d="M616.7,444.7c-0.2-0.5-0.5-1-0.7-1.5l-0.1,0.1C616.7,443.5,616.6,444.2,616.7,444.7L616.7,444.7z"/>
	<path d="M617.3,416.5c-0.1,0.1-0.3,0.2-0.4,0.3c-0.1-0.2-0.2-0.4-0.2-0.6c0-0.1,0.3-0.2,0.4-0.3
		C617.2,416.1,617.3,416.3,617.3,416.5z"/>
	<polygon points="614.4,412.8 614.6,412.9 614.5,412.7 	"/>
	<path d="M253.4,409.2c0.1,0.1,0.2,0.2,0.3,0.2c-0.1,0-0.2,0-0.2-0.1C253.5,409.3,253.5,409.2,253.4,409.2L253.4,409.2z"/>
	<path d="M600.7,220.3c0.3,0,0.8,0,1,0.1c1.7,1.2,3.1,2.6,4,4.4c-0.4,0.6-0.8,0.8-1.2,0.4c-1.2-1.3-2.4-2.6-3.6-3.9
		C600.7,221,600.7,220.6,600.7,220.3L600.7,220.3z"/>
	<path d="M545.9,156.9c-1.9-1.5-3.3-3.3-4.9-5.6c0.7,0,1.3-0.1,1.5,0.1c1.6,1.4,3,3,3.7,5.1C546.3,156.6,546.1,156.7,545.9,156.9z"
		/>
	<path d="M534.1,126.4c-1,0.3-1.4,0.7-1.7,0.6c-1.1-0.4-2.6-0.1-3.3-1.6C531.4,125.1,531.4,125.1,534.1,126.4z"/>
	<path d="M551.2,162.3c-0.3,0.2-0.5,0.5-0.7,0.4c-0.7-0.1-1-0.6-1-1.3c0-0.2,0.2-0.4,0.4-0.5c0.1-0.1,0.3-0.1,0.3,0
		C550.5,161.3,550.8,161.8,551.2,162.3z"/>
	<path d="M527.6,153.3c0.6,1.3,0,1.6-1.2,2.4C527,154.6,527.2,154.1,527.6,153.3z"/>
	<path d="M559.1,171.8c0.3,0.4,0.6,0.7,0.8,1.1c-0.1,0.1-0.2,0.2-0.4,0.3c-0.3-0.3-0.6-0.6-1-1C558.7,172.1,558.9,172,559.1,171.8z"
		/>
	<path d="M555.6,168.7c-0.3-0.2-0.6-0.3-0.8-0.5c-0.1-0.1,0-0.4,0-0.6c0.2,0.1,0.5,0.1,0.6,0.2C555.5,168.1,555.5,168.4,555.6,168.7
		L555.6,168.7z"/>
	<path d="M600.7,220.2c-0.2,0-0.4,0-0.6-0.1c-0.1,0-0.2-0.1-0.2-0.2c0.2-0.1,0.4-0.3,0.5-0.2C600.5,219.8,600.6,220.1,600.7,220.2
		L600.7,220.2z"/>
	<path d="M530.2,151.2c0,0.2,0,0.4-0.1,0.6c0,0.1-0.1,0.2-0.2,0.3c-0.1-0.1-0.2-0.2-0.2-0.2C529.9,151.7,530.1,151.5,530.2,151.2
		L530.2,151.2z"/>
	<path d="M526,125.6c-0.1,0-0.2-0.1-0.3-0.1c0.1-0.1,0.2-0.2,0.3-0.2c0,0,0.1,0.1,0.2,0.2C526.2,125.5,526.1,125.5,526,125.6z"/>
	<polygon points="595.8,215.6 596,215.5 596,215.7 	"/>
	<polygon points="598.2,218.6 598.1,218.4 598.3,218.4 	"/>
	<path d="M530.3,151.3c0.1-0.1,0.1-0.3,0.2-0.4c0,0.1,0,0.2,0,0.2C530.4,151.2,530.3,151.2,530.3,151.3L530.3,151.3z"/>
	<path d="M555.6,168.7c0.1,0.1,0.3,0.2,0.4,0.3c-0.1,0-0.2,0-0.2,0C555.7,168.9,555.7,168.8,555.6,168.7L555.6,168.7z"/>
	<path d="M311.6,145.2c3.6-1.7,6.8-1.4,9.9-1.6c6.8-0.5,13.5-0.1,20.2,0.8c0.1,0,0.2,0.4,0.5,0.7c-0.5,0.1-0.9,0.3-1.3,0.3
		c-1.6,0-3.2,0.1-4.7-0.1c-6.6-0.7-13.3-0.4-19.9-0.5C315,144.8,313.6,145,311.6,145.2z"/>
	<path d="M296.5,145.7c-3.1,0.4-17.9,0.4-19.7,0.1c-0.2,0-0.3-0.3-0.5-0.5c0.1-0.2,0.2-0.5,0.3-0.5c6.2,0,12.3-0.1,18.5,0
		C295.4,144.9,295.7,145.2,296.5,145.7z"/>
	<path d="M310.7,148.5c0.3,0.2,0.7,0.4,0.7,0.7c0.1,0.4,0,1-0.1,1.4c-1.2,4.3-2.4,8.5-3.6,12.6C307.1,158.6,308.3,152.9,310.7,148.5
		z"/>
	<path d="M347.2,145c2.3-2.3,3.9-4.8,6.9-6.4c-1,2.3-2.2,4.3-3.6,5.5c-0.6,0.5-1.4,0.9-2.1,1.3C348.2,145.5,348,145.3,347.2,145z"/>
	<path d="M331.6,155.6c0.1-3.7,0.7-5.6,2.3-7.7c0.1,0.2,0.3,0.4,0.2,0.6C333.3,150.9,332.5,153.2,331.6,155.6z"/>
	<path d="M357.8,139.1c0,2.1,0,4.2,0,6.3c-0.1,0-0.2,0-0.3,0c0-2.1,0-4.3,0-6.4C357.6,139.1,357.7,139.1,357.8,139.1z"/>
	<path d="M349.6,150.3c-0.8-1.2-0.7-2.3-0.2-3.4c0-0.1,0.5-0.1,0.5-0.1c0.2,0.7,0.5,1.3,0.5,2C350.7,149.4,350.3,149.9,349.6,150.3z
		"/>
	<path d="M335.5,157.1c-0.1-1.5-0.3-3,1.3-4.5C336.7,154.4,336.7,155.9,335.5,157.1L335.5,157.1z"/>
	<path d="M314.1,115.2c0.6,0,0.8,0.1,1.1,0.1c-0.2,0-0.3,0.1-0.5,0.1C314.6,115.4,314.5,115.3,314.1,115.2z"/>
	<path d="M322.4,117.4c0,0.1,0,0.2-0.1,0.2c-0.1,0-0.2,0.1-0.3,0c-0.1,0-0.2-0.1-0.3-0.2C321.9,117.4,322.2,117.4,322.4,117.4z"/>
	<path d="M361,141.1c0.5,0.3,0.8,0.8,0.2,1.7C361.1,142,361.1,141.5,361,141.1L361,141.1z"/>
	<path d="M357.2,133.7c0,0.2,0,0.5,0,0.7C357.2,134.2,357.2,134,357.2,133.7L357.2,133.7z"/>
	<polygon points="325.2,112.3 325.5,112.3 325.5,112.5 	"/>
	<polygon points="327.6,111.7 327.3,111.6 327.6,111.6 	"/>
	<polygon points="330.5,111 330.2,110.9 330.5,110.9 	"/>
	<polygon points="332.6,110.3 332.4,110.2 332.6,110.1 	"/>
	<path d="M335.5,157c0,0.2,0,0.4,0,0.7c0,0.1-0.1,0.2-0.2,0.3c-0.1-0.2-0.3-0.4-0.2-0.5C335.1,157.3,335.4,157.2,335.5,157
		L335.5,157z"/>
	<polygon points="326.7,116.1 326.7,115.9 327,116 	"/>
	<polygon points="324.5,116.7 324.8,116.8 324.5,116.8 	"/>
	<path d="M319.8,118.2c0,0-0.1,0.1-0.1,0.1c-0.1-0.1-0.1-0.1-0.2-0.2C319.6,118.1,319.7,118.1,319.8,118.2z"/>
	<polygon points="317.3,119 317.3,118.9 317.6,118.9 	"/>
	<polygon points="312.9,125.5 312.9,125.4 313.2,125.5 	"/>
	<path d="M318.3,114.5c0,0-0.1,0.1-0.1,0.1c-0.1-0.1-0.1-0.1-0.2-0.2C318.1,114.5,318.2,114.5,318.3,114.5z"/>
	<path d="M357.2,133.8c0.2-0.1,0.5-0.2,0.2-0.1C357.7,133.7,357.4,133.7,357.2,133.8L357.2,133.8z"/>
	<polygon points="320.1,113.8 320.4,113.8 320.4,113.9 	"/>
	<polygon points="323.2,113 323.2,113.2 322.9,113.1 	"/>
	<polygon points="361,141 360.8,141 361,141.1 	"/>
	<path d="M427.1,210.1c-0.4-1.2,0.1-2.1,0.7-3c1.7-2.6,3.9-4.6,6.3-6.5c8.4-6.7,17.9-8.7,28.3-6.9c13.1,2.2,26.5,13.1,28.3,31.3
		c0.3,3.3,0.3,6.5-0.9,10c-0.4-1.7-0.2-3.2-0.2-4.7c0.2-7.9-2.3-15-6.7-21.4c-10-14.4-29.6-18.3-44.5-9.1c-0.2,0.1-0.4,0.3-0.6,0.4
		c-3.8,2.2-7.4,4.6-9.5,8.7C428.1,209.3,427.5,209.7,427.1,210.1L427.1,210.1z"/>
	<path d="M448.5,244.6c1.4-0.2,1.7-0.9,1.6-1.9c-0.4-2.9-0.7-5.8-1.1-8.6c-0.2-2-0.4-4,0-6c1,0.4,1.1,1.2,1.2,1.9
		c0.7,5.8,1.5,11.5,2,17.3c0.5,4.9,0.4,5.1,3.8,9.1c1.1,0.3,2.3,0.6,3.5,1c2.1-1,4.3-1.9,6.4-3c0.6-0.3,1.2-0.9,1.5-1.5
		c0.7-1.5,1.2-3.1,1.8-4.8c-2.6-3.4-3.5-7.5-5.2-11.2c-1.7-3.7-2.9-7.7-3.9-11.8c-1.4-1.1-2.4-2.9-4.6-3.2c-2.8,0.4-4.6,1.9-5.5,4.5
		c-1.1-0.2-0.9-0.9-0.7-1.4c0.8-1.3,1.6-2.7,2.6-3.9c1-1.4,2.9-1.8,4.5-1.2c0.3,0.1,0.7,0.3,1,0.4c2.1,0.4,3.6,1.4,3.5,3.9
		c0,0.2,0.1,0.5,0.2,0.7c1.6,3.5,3.1,7.1,4.8,10.6c1.9,3.9,3.2,8.1,4,12.4c0.4,2.2-0.5,4.3-1.9,6c-1,1.2-2.4,2-3.1,3.5
		c-0.1,0.3-0.5,0.5-0.9,0.6c-2.7,0.7-5.5,0.8-8.2-0.2c-0.6-0.2-1.2-0.8-1.7-1.3c-1.2-1.4-2-3-2.5-4.8c-0.4-1.4-0.8-2.8-1.1-4.2
		C450.6,246.2,450.1,245.1,448.5,244.6z"/>
	<path d="M439.5,234.6c-1.2-0.8-1.1-2.2-1.2-3.2c-1-7,0.9-12.9,6.5-17.4c2.5-2,5.4-3.2,8.6-3.4c1.4-0.1,2.9-0.1,4.3,0
		c6.9,0.4,13,5,15.1,11.6c1.1,3.5,1.1,7.1,0.3,10.7c0,0.1-0.2,0.1-0.3,0.2c-0.9,0-0.9-0.7-0.8-1.2c0.2-2.6,0-5.1-0.7-7.5
		c-2-6.7-6.4-10.7-13.3-11.8c-5.7-1-12.4,1.7-16,7.8c-0.7,1.1-1.3,2.3-2,3.5c-1,1.7-1.4,3.5-1.2,5.5
		C439.2,231.1,439.3,232.9,439.5,234.6L439.5,234.6z"/>
	<path d="M457.9,244.5c-1,1-2,2.1-2.9,3.1c-0.8-0.4-1.2-0.9-0.8-1.8c0.1-0.3,0.3-0.7,0.6-0.9c1.9-1.4,4-2.2,6.3-2.5
		c0.8-0.1,1.6,0.4,2.4,0.7c0.1,0,0.2,0.2,0.3,0.2c1.1,1,2.2,2,3.7,3.5C464,245.7,461.5,243.7,457.9,244.5z"/>
	<path d="M485.9,242.8c0.2-2.3,2-3.7,3.2-5.8c0.2,0.7,0.5,1.1,0.4,1.3c-1,1.5-2,3-3,4.4C486.4,242.8,486,242.7,485.9,242.8
		L485.9,242.8z"/>
	<path d="M482.3,248.1c-0.3,2.3-0.3,2.3-2.9,4c-0.1-0.2-0.2-0.4-0.2-0.5C480.2,250.5,481.2,249.3,482.3,248.1z"/>
	<path d="M426.8,212.7c-0.5,1-1,2-1.7,3.3C424.8,214,424.8,214,426.8,212.7z"/>
	<path d="M485.8,242.7c0.9,1.3,0,2.1-1,3.2C484.3,244.3,485,243.5,485.8,242.7L485.8,242.7z"/>
	<path d="M440.8,237.8c1.5,0.5,2.2,1.7,3.2,3C442,240.1,442,240.1,440.8,237.8L440.8,237.8z"/>
	<path d="M461.5,260.5c-1.1,0.7-2.2,0.4-4.1,0.2C459.2,260,460.4,259.9,461.5,260.5z"/>
	<path d="M450,260.2c0.7,0.1,1.4,0.1,2,0.2c0.1,0,0.3,0.4,0.2,0.5c-0.1,0.2-0.3,0.4-0.5,0.4C451.1,261.3,450.4,261.2,450,260.2z"/>
	<path d="M469.9,258.7c0.2-0.1,0.4-0.3,0.6-0.4c0,0,0.2,0.1,0.2,0.1C470.4,258.5,470.1,258.6,469.9,258.7L469.9,258.7z"/>
	<path d="M440.1,236.3c0.7,0.3,0.8,0.8,0.7,1.5l0.1-0.1C440.1,237.4,440.1,236.8,440.1,236.3L440.1,236.3z"/>
	<path d="M440.2,236.2c-0.8-0.3-0.5-1-0.7-1.6l-0.1,0.1C439.7,235.2,439.9,235.8,440.2,236.2L440.2,236.2z"/>
	<path d="M469.8,258.6c0,0.1,0,0.2,0,0.3C469.8,258.8,469.9,258.8,469.8,258.6L469.8,258.6z"/>
	<path d="M427.1,210.1C426.8,210.3,427.1,210.1,427.1,210.1L427.1,210.1z"/>
	<path d="M374.7,39.4c0.6,0.4,1.1,0.8,1.7,1.2c0-3.2,0-3.4,2.3-5.6c0.9-0.8,1.8-1.6,2.6-2.2c1.9,0.3,2.7,1.9,4,2.8
		c1,0.2,2.2,0.3,3.4,0.5c-0.5,1.1-0.5,1.1-1.4,1.7c-1.1-0.5-2.1-0.9-3.2-1.4l0.1,0.1c-0.3-0.3-0.6-0.6-0.8-0.8l0.1,0.1
		c-0.3-0.3-0.5-0.5-0.8-0.8l0.1,0.1c-0.5-0.7-1-0.8-1.6,0l0.1-0.1c-0.3,0.3-0.5,0.5-0.8,0.8l0.1-0.1c-0.3,0.3-0.5,0.5-0.8,0.8
		l0.1-0.1c-0.3,0.3-0.5,0.5-0.8,0.8l0.1-0.1c-1.1,1.2-1.1,2.5,0,3.7l-0.1-0.1c0.1,0.2,0.1,0.5,0.3,0.7c1.1,2,2.8,3.6,2.7,6.2
		c0.6-0.5,1.1-1.1,1.7-1.6c0.9,0.9,0.5,1.7-0.1,2.3c-0.5,0.5-1.1,0.9-1.8,1.1c-0.3,0.1-0.9-0.4-1.1-0.7c-0.4-0.7-0.6-1.6-0.8-2.4
		c-0.3-1.8-1.3-3-2.7-4.1c-0.3,0.6-0.6,1.1-0.9,1.6c-1.1-0.5-0.5-1.5-0.9-2.2C375.3,40.9,374.5,40.3,374.7,39.4L374.7,39.4z"/>
	<path d="M390,26.3c0.4-0.2,1-0.7,1.3-0.5c1.6,0.8,2.4-0.3,3.3-1.3c0.5,1-0.5,1.3-0.9,1.7c-0.5,0.5-1.1,0.9-1.8,1.2
		c-0.6,0.3-1.3,0.5-2,0.8c-0.7,0.3-1.3,0.5-1.9,0.8c-12.1-2.6-12.1-2.6-14.6-4.9c1.2,0.5,1.9,0.7,2.5,0.9c2.1,1,4.4,1.4,6.7,1.7
		c2.7,0.3,5.3,0.1,7.5-1.8l-0.1-0.1C390,25.3,390,25.8,390,26.3c-0.2,0.3-0.4,0.6-0.7,0.8c-0.5,0-1.1,0.1-1.8,0.1
		c0.9,0.8,1.3,0.5,1.7-0.2C389.5,26.8,389.7,26.5,390,26.3z"/>
	<path d="M384.2,36.4c0,0.5,0.1,1,0.1,1.5c-0.7,0-1.5,0-2.2-0.1l0.1,0.1c0-0.4,0-0.8,0-1.3c-0.3,0.1-0.6,0.1-0.7,0.2
		c-0.3,0.2-0.5,0.5-0.8,0.7c-0.9,1.1-1,1.8,0,2.9c0.4,0.4,1,0.6,1.5,1c0.1,0.1,0.1,0.1,0.2,0.2c-0.1,0-0.2-0.1-0.2-0.1
		c0.2-0.8,0.4-1.6,1.3-2c0.8-0.3,0.8-1.1,1-1.7c1,0.1,1.3,0.9,0.8,1.5c-0.8,1.1-0.7,2.1-0.3,3.4c-0.7,0.5-1.3,1.1-1.9,1.5
		c-1.3-1.2-2.5-2.4-3.7-3.5l0.1,0.1c0-1.2,0-2.5,0-3.7l-0.1,0.1c0.3-0.3,0.5-0.5,0.8-0.8l-0.1,0.1c0.3-0.3,0.5-0.5,0.8-0.8l-0.1,0.1
		c0.3-0.3,0.5-0.5,0.8-0.8l-0.1,0.1c0.5,0,1,0,1.6,0l-0.1-0.1c0.3,0.3,0.5,0.5,0.8,0.8l-0.1-0.1C383.7,36,384,36.2,384.2,36.4
		L384.2,36.4z"/>
	<path d="M408.9,35c0.4-1.5,1.8-1.8,3-2.2c1.2-0.4,2.5-0.6,4-0.9c-0.1,1.1-1.1,1.3-1.5,1.8c-0.6,0.7-0.9,1.7-1.2,2.5
		c-0.3,0.7-0.4,1.5-0.7,2.2c-1.3-0.1-2.2-0.9-3.2-1.6c-0.3-0.2-0.3-0.8-0.5-1.3l-0.1,0.1c0.2,0.1,0.4,0.3,0.6,0.3
		c0.3,0,0.5-0.2,0.8-0.2c-0.1-0.2-0.2-0.6-0.4-0.7C409.6,34.9,409.2,35,408.9,35L408.9,35z"/>
	<path d="M374.7,45.9c-0.5-0.3-1-0.6-1.4-1c-2.1-2.6-4.2-5.2-6.3-7.9c-0.7-0.9-1.4-1.9-2.1-2.9c-0.1-0.2-0.1-0.4-0.1-0.7
		c0.6-0.4,0.8,0.2,1,0.5c1.2,1.5,2.6,2.8,3.8,4.3C371.7,40.5,373.8,42.9,374.7,45.9L374.7,45.9z"/>
	<path d="M390,24.9c0.5-0.6,1-1.2,1.5-1.8c-1.8-0.7-3.5-1.4-5.2-2.1c0-0.1,0.1-0.3,0.1-0.4c1.4,0.3,2.8,0.7,4.2,0.7
		c1.3,0,2.5-0.3,4-0.5c0.1,0.4,0.3,0.9,0.5,1.5C393.5,23.5,391.9,24.5,390,24.9L390,24.9z"/>
	<path d="M406.1,12.4c-0.1,0.4-0.2,0.9-0.3,1.6c-1-1-1.9-1.8-2.7-2.6c-0.1-0.2-0.2-0.4-0.3-0.7c1.9-0.4,3.5,0.3,5.2,0.8
		c0.9,0.2,1.8,0.6,2.2,1.6C408.6,14.4,407.4,12.9,406.1,12.4c-0.1,0-0.2-0.1-0.2-0.2c0,0-0.1,0-0.2,0
		C405.8,12.3,405.9,12.4,406.1,12.4z"/>
	<path d="M388.6,56.8c-2.2-0.9-3.1-2.8-3.6-4.9c-0.3-1.2-0.1-1.7,0.9-3.3c0.3,1.3,0.6,2.5,1,3.7c0.4,1.1,1,2.1,1.5,3.2
		C388.5,55.9,388.5,56.4,388.6,56.8L388.6,56.8z"/>
	<path d="M353,26.3c1.1-3.7,4.2-5.4,7.2-6.9c0.3,0.1,0.6,0.2,0.7,0.3c0.2,0.1,0.2,0.4,0.4,0.8c-1.6,0.8-3.2,1.5-4.7,2.5
		C355.3,23.9,354.2,25.1,353,26.3L353,26.3z"/>
	<path d="M355.8,31.4c0,0.5,0,1-0.1,1.4c-0.7,2.3-1.4,4.6-2.2,6.8c-0.4,1.2-1,2.2-1.8,3.9c0.4-4.3,2-9.3,3.9-12
		C355.6,31.4,355.8,31.4,355.8,31.4L355.8,31.4z"/>
	<path d="M371.5,13.2c3.1-2.7,6.7-3.5,10.6-3.2c-1.8,0.5-3.5,0.9-5.3,1.4C375.1,12,373.3,12.6,371.5,13.2z"/>
	<path d="M401.8,15.5c-3.7-0.9-7.1-2.3-10.3-4.2c0.7,0.2,1.4,0.3,2.1,0.5c2.5,0.9,5.1,1.4,7.4,2.8C401.3,14.8,401.5,15.2,401.8,15.5
		z"/>
	<path d="M388.5,56.8c1.3,0.3,1.9,1.3,2.8,2.5c-0.7,0.1-1.2,0.2-1.8,0.3c0.2,1.6,0.8,3.2,0.7,4.9c-0.4-0.2-0.7-0.3-0.7-0.4
		c-0.4-2-0.9-3.9-1.2-5.9C388.2,57.7,388.4,57.2,388.5,56.8L388.5,56.8z"/>
	<path d="M395.2,17.5c-1.9-0.1-3.7-0.6-5.5-1.7c0.8-0.3,1.4-0.6,2.1-0.9c1.3,0.4,2.6,0.9,4,1.4c-0.3,0.5-0.5,0.9-0.8,1.3L395.2,17.5
		z"/>
	<path d="M417.4,28.3c-2.7,0.2-5,0.3-7.4,0.4c-0.4,0-0.9-0.2-2-0.5c2.4-0.8,4.2-1.4,6.1-1.3C415.2,27,416.3,27.1,417.4,28.3z"/>
	<path d="M384.8,32.3c1.9-1,3.7-2.1,5.8-3.3c-0.1,0.6,0,1-0.2,1.2C389,31.7,387.1,32.5,384.8,32.3z"/>
	<path d="M391.1,32.5c0.5,0.9-0.1,1.2-0.5,1.5c-1.4,0.9-2.9,1.3-4.8,0.6c0.9-1,1.9-0.8,2.8-1.2C389.4,33.2,390.2,32.9,391.1,32.5z"
		/>
	<path d="M369,43.7c-1.5-0.4-1.8-1.6-2.2-2.8l-0.1,0.1C368,41.6,368.3,42.1,369,43.7L369,43.7z"/>
	<path d="M370.4,15.9c-0.7,0-1.3,0.1-2,0.1c0-0.1-0.1-0.2-0.1-0.3c0.3-0.1,0.6-0.2,0.9-0.2c0.4,0,0.8,0.1,1.2,0.1
		C370.4,15.7,370.4,15.8,370.4,15.9z"/>
	<path d="M371.1,45.9c-1.5,0-2.2-0.7-2.2-2.2l-0.1,0.1C370,44.2,370.7,44.9,371.1,45.9L371.1,45.9z"/>
	<path d="M373.2,47.4c1.1,0.2,1.5,1,1.6,2.1l-0.1,0.1C373.6,49.2,373.3,48.4,373.2,47.4L373.2,47.4z"/>
	<path d="M374.8,39.3c-0.4-0.5-0.9-0.9-1.5-1.5C374.7,37.9,374.7,38.6,374.8,39.3L374.8,39.3z"/>
	<path d="M408.9,35.7c-0.4,0.2-0.8,0.4-1.3,0.5c-0.1,0-0.3-0.2-0.4-0.4c0,0,0-0.3,0.1-0.3c0.5-0.2,1.1-0.3,1.6-0.4l-0.1-0.1
		c0,0.3,0,0.5,0,0.8L408.9,35.7z"/>
	<path d="M353.7,67c-0.5-0.4-0.7-0.9-0.1-1.8C353.6,66,353.6,66.5,353.7,67L353.7,67z"/>
	<path d="M382.7,6.7c0.4-0.7,0.9-0.9,1.7-0.2C383.8,6.6,383.2,6.6,382.7,6.7L382.7,6.7z"/>
	<path d="M355.9,37.3c0-0.6,0.1-1.1,0.1-1.8C356.8,36.3,356.4,36.8,355.9,37.3L355.9,37.3z"/>
	<path d="M386.4,23.4c0.5,0.1,1,0.1,1.8,0.2C387.3,24.1,386.8,23.9,386.4,23.4L386.4,23.4z"/>
	<path d="M386.5,23.3c-0.2,0-0.4,0-0.7-0.1c-0.1,0-0.2-0.1-0.3-0.1c0.2-0.1,0.3-0.2,0.4-0.2C386.1,23.1,386.2,23.3,386.5,23.3
		L386.5,23.3z"/>
	<path d="M352.3,27.8c0.2-0.5,0.5-1,0.7-1.5l-0.1-0.1C352.7,26.7,352.4,27.2,352.3,27.8L352.3,27.8z"/>
	<path d="M352.2,27.7c-0.2,0.5-0.5,1-0.7,1.4l0.1,0.1C351.7,28.7,351.6,28,352.2,27.7L352.2,27.7z"/>
	<path d="M356.6,30c0.1-0.3,0.2-0.5,0.3-0.8c0,0.1,0.1,0.2,0.1,0.3C356.9,29.6,356.7,29.7,356.6,30L356.6,30z"/>
	<path d="M351.5,29.1c0,0.2-0.1,0.4-0.1,0.6c0,0.1-0.1,0.2-0.1,0.3c-0.1-0.1-0.2-0.3-0.2-0.4C351.2,29.4,351.4,29.3,351.5,29.1
		L351.5,29.1z"/>
	<path d="M355.9,31.4c-0.1-0.7-0.1-1.3,0.7-1.5l-0.1-0.1C356.5,30.5,356.6,31.1,355.9,31.4L355.9,31.4z"/>
	<path d="M375.4,32.2c0.3,0.1,0.6,0.1,0.4,0.1C375.9,32.4,375.7,32.2,375.4,32.2L375.4,32.2z"/>
	<path d="M372.6,45.9c0.2,0.5,0.4,1,0.6,1.6l0.1-0.1C372.6,47,372.7,46.4,372.6,45.9L372.6,45.9z"/>
	<path d="M374.8,49.5c0.2,0.2,0.4,0.4,0.6,0.6c-0.1,0.1-0.3,0.2-0.4,0.4C374.9,50.2,374.8,49.9,374.8,49.5L374.8,49.5z"/>
	<path d="M366.8,40.8c-0.7-0.3-0.7-0.9-0.6-1.5l-0.1,0.1C366.7,39.7,366.8,40.3,366.8,40.8L366.8,40.8z"/>
	<path d="M400.9,11.7c-0.3-0.1-0.5-0.2-0.3-0.1C400.4,11.5,400.6,11.6,400.9,11.7L400.9,11.7z"/>
	<path d="M402.4,12.5c-0.7,0.1-1.2,0-1.5-0.7l-0.1,0.1C401.4,11.8,402.1,11.6,402.4,12.5C402.3,12.5,402.4,12.5,402.4,12.5z"/>
	<path d="M395.1,17.6c0.3,0.1,0.6,0.2,1.2,0.4c-0.6,0.2-0.9,0.3-1.2,0.3l0.1,0.1c0-0.3,0-0.6,0-0.9L395.1,17.6z"/>
	<path d="M393.7,19.1c0.1-0.9,0.8-0.8,1.4-0.7l-0.1-0.1C394.9,19,394.2,19,393.7,19.1L393.7,19.1z"/>
	<path d="M393.7,19c-0.2,0.1-0.5,0.3-0.2,0.1C393.1,19.2,393.4,19.2,393.7,19L393.7,19z"/>
	<path d="M374.7,45.9c0.2,0.1,0.4,0.1,0.6,0.2c-0.1,0.1-0.2,0.2-0.3,0.3C374.9,46.3,374.8,46.1,374.7,45.9L374.7,45.9z"/>
	<path d="M371.1,46c0.3,0,0.5,0,0.8,0l-0.1-0.1C371.6,46.4,371.4,46.5,371.1,46L371.1,46z"/>
	<path d="M403.1,13.2c-0.5,0-0.8-0.2-0.7-0.7c0,0-0.1,0.1-0.1,0.1C402.8,12.5,403.2,12.7,403.1,13.2L403.1,13.2z"/>
	<path d="M403,13.3c0.1,0.1,0.3,0.2,0.4,0.2c-0.1,0-0.2,0-0.2,0C403.2,13.4,403.1,13.3,403,13.3L403,13.3z"/>
	<polygon points="356.5,17.5 356.4,17.7 356.6,17.5 	"/>
	<polygon points="396.6,20.5 396.7,20.3 396.6,20.4 	"/>
	<polygon points="396.6,20.4 396.4,20.6 396.6,20.5 	"/>
	<path d="M375.4,29.2c0.1,0,0.2,0.1,0.3,0.1C375.6,29.3,375.5,29.2,375.4,29.2L375.4,29.2z"/>
	<path d="M374.7,35.7c0.4,0.1,0.8,0.3,0.6,0.8l0.1-0.1C375,36.4,374.7,36.2,374.7,35.7L374.7,35.7z"/>
	<path d="M375.3,36.6c0.1,0,0.2,0,0.3,0C375.6,36.5,375.5,36.5,375.3,36.6L375.3,36.6z"/>
	<path d="M366.1,39.3c-0.1-0.1-0.3-0.2-0.4-0.3c0.1,0,0.2,0,0.2,0C366,39.2,366,39.3,366.1,39.3L366.1,39.3z"/>
	<path d="M372.7,45.8c-0.3,0-0.6,0-1,0.1l0.1,0.1C372.1,45.9,372.4,45.9,372.7,45.8L372.7,45.8z"/>
	<path d="M436.5,186.9c0.2,0,0.5,0,0.7,0.1c2.5,0.9,5,2.1,7.9,2.1c-0.7,1.2-1.6,1.4-2.6,1.2C440.2,189.7,437.8,189.2,436.5,186.9
		L436.5,186.9z"/>
	<path d="M374.4,160.1c-1.2-1.4-2.2-2.8-1.5-4.8C374.5,156.5,374.5,156.5,374.4,160.1z"/>
	<path d="M429.2,183.3c1.6-0.2,3,0.3,4.2,1.6c-2.1,0-2.1,0-4.2-1.7L429.2,183.3z"/>
	<path d="M429.3,183.2c-1.2,0.1-2.4,0.3-3.2-1.2c1.5-0.5,2.4,0,3.1,1.3L429.3,183.2z"/>
	<path d="M418,178.5c0-0.1,0-0.3,0.1-0.3c0.4-0.4,0.9-0.4,1.3,0c0.1,0.1,0.1,0.4,0.2,0.6c-0.3,0.1-0.7,0.2-1,0.2
		C418.3,178.8,418.1,178.6,418,178.5z"/>
	<path d="M365.7,115.8c0.1,0.2,0.1,0.3,0.2,0.5c0,0-0.2,0.1-0.2,0.2c-0.1-0.2-0.2-0.4-0.2-0.5C365.4,115.9,365.6,115.9,365.7,115.8z
		"/>
	<path d="M436.6,186.8c-0.1,0-0.2-0.1-0.3-0.1C436.4,186.8,436.4,186.8,436.6,186.8L436.6,186.8z"/>
	<path d="M424.4,147.5c9.7-8.5,8.5-8.7,10.9-16c1.2,0.7,1.1,1.8,0.9,2.8c-0.5,2.5-1.5,4.8-3.1,6.8c-0.7,0.9-1.4,1.8-2,2.9
		C429.8,146.5,427.4,147.6,424.4,147.5z"/>
	<path d="M421.3,148.3c0.1-0.1,0.6,0.2,0.5,0.2c0,0.3-0.1,0.7-0.3,0.8c-0.2,0.2-0.6,0.2-0.9,0.1c-0.1,0-0.3-0.5-0.3-0.5
		C420.6,148.8,420.9,148.5,421.3,148.3z"/>
	<path d="M435.8,130c-0.2-0.4-0.4-0.5-0.4-0.7c0-0.4,0.1-0.9,0.7-0.8c0.1,0,0.2,0.2,0.2,0.3C436.1,129.1,436,129.5,435.8,130z"/>
	<path d="M416.2,149.2c0.3-0.1,0.7-0.3,1-0.4c0,0.2,0.1,0.5,0.1,0.6c-0.3,0.1-0.7,0.2-1,0.3C416.3,149.4,416.3,149.3,416.2,149.2z"
		/>
	<path d="M395.2,192c0.8,0.4,0.7,1,0.7,1.6c0,0.2-0.2,0.4-0.3,0.6c-0.1-0.2-0.4-0.3-0.4-0.5C394.9,193.1,394.7,192.6,395.2,192z"/>
	<polygon points="393.1,185.7 393.3,185.7 393.3,185.8 	"/>
	<polygon points="393.9,189.4 394.1,189.3 394.1,189.5 	"/>
	<path d="M438,156.4c-0.3-0.3-0.6-0.6-0.8-0.8C437.4,155.8,437.7,156.1,438,156.4z"/>
	<path d="M438.7,157.1c-0.3-0.3-0.6-0.6-0.8-0.8C438.4,156.3,438.7,156.6,438.7,157.1z"/>
	<path d="M439.5,157.8c-0.5,0-0.8-0.3-0.8-0.8C439.1,157,439.4,157.3,439.5,157.8z"/>
	<path d="M419.1,212.2c-0.4-0.3-0.9-0.6-1.5-1C419,210.9,419,211.6,419.1,212.2L419.1,212.2z"/>
	<path d="M273.9,375.1c-0.9-2.1-1.8-4.1-2.6-6c0.6-1.7,2.3-1.7,3.3-2.8l-0.1,0.1c0.3-0.3,0.6-0.6,0.8-0.8l-0.1,0.1
		c0.6-0.8,1.3-1.6,2.1-2.6c0.3,0.5,0.7,1,1.1,1.6c-1.1,1.1-2.1,2.1-3,3.1c-0.6,0.1-1.2,0-1.4,0.7c-0.2,0-0.4,0.1-0.6,0.1
		c-0.1,0-0.2,0.1-0.3,0.1c0.2,0.1,0.4,0.2,0.5,0.2c0.2-0.1,0.2-0.3,0.3-0.5c0.6-0.1,1.2,0.1,1.4-0.7c0.9-0.1,1.9-0.2,3.1-0.4
		c0.4,0.4,0.9,1.2,1.5,1.6c0.5,0.3,1.3,0.3,2.1,0.4c0.3,0.8,0.5,1.6,0.7,2.2c-1.3,0.8-2.5,1.5-3.7,2.2c-1,0-2.1,0-3.1,0
		c-0.2-0.3-0.4-0.5-0.7-0.8c-0.1,0-0.2-0.1-0.2-0.1c0.1,0,0.2,0,0.3,0.1c-0.1,0.5,0.2,0.8,0.7,0.8c1,1.1,1.9,0.8,2.9,0
		c0.1,0,0.2,0,0.4,0c1.1-0.2,2.1-0.5,3.2-0.5c1,0,2.1,0.2,3.4,0.4c-0.4-0.9-0.8-1.5-1.2-2.4c0.5-0.1,1-0.3,1.1-0.1
		c0.5,0.4,1.1,0.9,1.5,1.5c0.7,1.3,0,2.4-1.5,2.4c-0.4,0-0.8,0.1-1.1,0c-2-0.7-3.7,0-5.7,0.9c0.4,0.6,0.8,1.2,1.2,1.7
		c-1.1,0-2.2-0.2-3.2,0c-1.1,0.2-2.1,0.5-3.5,0.2c1.4-0.5,2.5-0.9,4-1.4C276,375.7,274.9,375.4,273.9,375.1L273.9,375.1z
		 M273.7,370.7C273.7,370.6,273.5,370.4,273.7,370.7l0.2,0.1L273.7,370.7z M275.3,369.6c0,1.5,0.5,2.4,1.6,2.8
		c1.3,0.4,2.3-0.2,3.1-1.4c-1.2,0-1.5-0.8-1.8-1.7c-0.2-0.5-0.5-0.8-1.3-0.6c-0.1,0.4-0.3,1-0.5,1.6
		C276.2,370,275.9,369.9,275.3,369.6z"/>
	<path d="M350.1,417.1c-2.7-0.5-4.9-1.9-7.2-3.2c-4.8-2.8-9.4-5.9-14.5-8c-0.2-0.1-0.5-0.2-0.6-0.4c-0.2-0.4-0.5-0.9-0.5-1.2
		c0.1-0.7,0.8-0.9,1.4-0.8c0.9,0.2,1.8,0.5,2.7,0.9c3.6,1.6,7.1,3.6,10.3,5.9c2.1,1.6,4.3,3.1,6.4,4.7
		C348.9,415.6,349.4,416.5,350.1,417.1L350.1,417.1z"/>
	<path d="M262.2,359.8c-0.3-0.9,0.3-1.6,0.7-2.2c1-1.5,1.7-3,1-4.9c-0.1-0.2,0.3-0.6,0.5-0.9l-0.1-0.1c0.6,0.4,1.2,0.7,1.9,1.2
		c0.2,1.1,0.5,2.4,0.7,3.6c1.1,0.5,1.7,0.2,1.8-0.8c0.1-0.3,0-0.7,0-1.1l-0.1,0.1c0.2,0.1,0.5,0.3,0.5,0.5c1,4.2,1.4,5.7-0.7,8.9
		c-1.8,2.7-3.2,5.7-5.4,8.1c-0.6,0.7-1.2,1.6-2.4,1.3l0.1,0.1c1.4-1.9,3-3.7,4.3-5.7c1.7-2.7,2.7-5.6,2.3-8.8
		c1.2,0.3,0.6,1.6,1.4,2.4c0.1-1.4,0-2.6-1-3.6c-0.6,0.4-0.4,0.9-0.4,1.4c-0.6-0.9-1.2-1.7-1.8-2.6
		C264.4,357.6,263.3,358.6,262.2,359.8L262.2,359.8z"/>
	<path d="M282.5,343.8c-1.2-1.2-1.2-2.8-1.1-4.3c0.1-1.1,0.3-2.1,0.5-3.3c0.3,0.2,0.7,0.3,0.8,0.5c0.6,2.3,2.3,3.5,4.3,4.5
		c-0.2,1.1-1.2,1.6-2,2.3c-0.8,0.7-1.6,1.3-2.6,2.1C282.5,344.9,282.4,344.3,282.5,343.8c0.4-0.2,1.2,0,1.3-0.8
		c0-0.3-0.4-0.7-0.9-1.4C282.7,342.7,282.6,343.3,282.5,343.8z"/>
	<path d="M287.5,370c1.3,0,2.7,0.2,4,0.1c2.6-0.1,5.3-0.4,7.6-1.7c0.2,0.2,0.4,0.4,0.4,0.4c-0.2,0.5-0.4,1.1-0.7,1.8
		c-0.9,0-1.9,0-2.7,0.1c-0.9,0.2-1.8,0.7-2.7,0.9C291,372.2,289,372.2,287.5,370L287.5,370z"/>
	<path d="M282.7,379.3c-0.6,0.3-1.2,0.8-1.9,0.9c-4.9,1.2-9.3,3.7-14.3,4.9c0.1-0.5,0-0.8,0.1-0.8
		C271.8,382.1,276.9,379.9,282.7,379.3z"/>
	<path d="M257.3,341.9c1.3-4,2.2-5.2,4.7-6.7c0.2,1.8,0.2,1.8-1.8,3.7c0.4,0.2,0.8,0.4,1.2,0.6c-0.1,0.2-0.1,0.4-0.2,0.5
		C260.1,340.6,258.9,341.1,257.3,341.9z"/>
	<path d="M250,360c-0.1,4.1-0.3,8.2-0.4,12.3c-0.9-0.6-0.9-1.6-1-2.4c-0.4-3.3,0.2-6.5,1.1-9.6c0-0.1,0.1-0.3,0.2-0.3
		C250,360,250.1,360,250,360z"/>
	<path d="M258.6,354.7c-0.3-0.6-0.9-0.8-1.6-0.9l0.1,0.1c1.1-1.3,2.1-2.5,3.2-3.8c0.1,0.1,0.3,0.2,0.5,0.4c0.4,0.7,1.4-0.2,1.7,0.7
		c0.3,0.9,0.3,1.7,0.1,2.8c-0.3-0.8-0.6-1.4-0.9-2.1C260.1,352.4,260.1,354.4,258.6,354.7L258.6,354.7z"/>
	<path d="M278.8,334c-0.3,0.9-0.6,1.7-0.8,2.6c-0.2,0.8-0.3,1.6-0.6,2.4c-0.3,0.9-0.6,1.8-1.1,2.6
		C275.6,338.6,276.1,335.9,278.8,334z"/>
	<path d="M255.7,351.1c0.5-2.4,2.5-3.7,3.8-5.5c0.5-0.7,1.2-1.1,2-1.8C261.1,345.6,258.4,348.8,255.7,351.1L255.7,351.1z"/>
	<path d="M351.6,424.5c1.8-0.4,3.3-0.8,5-0.6c-1.2,1.5-1.6,1.8-3.3,1.9C352.7,425.9,351.9,425.8,351.6,424.5z"/>
	<path d="M271.9,365.7c-0.3-2.4-0.6-4.4-1-6.7c1.6,0.7,1.5,2.1,1.7,3.2C273,363.3,273,364.5,271.9,365.7z"/>
	<path d="M274.5,366.3c-0.2-0.3-0.6-0.6-0.6-0.8c0.2-1.9,0.4-3.7,0.6-5.7c0.8-0.3,0.8,0.5,1,0.9c0.7,1.7-0.3,3.3-0.4,4.9l0.1-0.1
		c-0.5,0-0.8,0.3-0.8,0.8L274.5,366.3z"/>
	<path d="M280.3,383c-0.1,0.2-0.1,0.5-0.2,0.6c-2.4,1.4-5,2.1-7.9,1.9C274.9,384.7,277.6,383.9,280.3,383L280.3,383z"/>
	<path d="M281,381.5c1.4-1,3.1-0.8,4.6-1.5c0.3,1.1-0.5,1.2-0.9,1.3c-1.3,0.1-2.6,0.1-3.8,0.2L281,381.5z"/>
	<path d="M287.8,376.7c1.3-0.6,2.4-0.1,4,0c-1.3,0.7-2.3,1.3-3.5,0.8C288,377.4,288,377,287.8,376.7z"/>
	<path d="M360.7,436.9c-1.6,1-1.6,1-2.4,0C359.1,436.9,359.8,436.9,360.7,436.9z"/>
	<path d="M271.6,376.5c0.4-1.1,1.3-1.3,2.3-1.4l-0.1-0.1C273.1,375.6,272.7,376.6,271.6,376.5L271.6,376.5z"/>
	<path d="M263.7,362c0.2-0.6,0.5-1.2,0.9-2.1C264.8,361.1,264.1,361.5,263.7,362L263.7,362z"/>
	<path d="M325.3,399.7c0.6,0.3,1.2,0.5,1.8,0.8C326.3,400.8,325.6,400.7,325.3,399.7L325.3,399.7z"/>
	<path d="M299.7,376c-0.2,0.4-0.4,0.7-0.5,0.7c-0.4-0.1-0.8-0.3-1.1-0.4c0.1-0.2,0.2-0.4,0.3-0.4C298.9,375.8,299.3,375.9,299.7,376
		z"/>
	<path d="M362,422c0.3-0.2,0.4-0.5,0.5-0.5c0.3,0,0.5,0.2,0.8,0.3c-0.1,0.1-0.2,0.2-0.3,0.2C362.7,422.1,362.4,422.1,362,422z"/>
	<path d="M268.7,354.6c-0.4-0.3-0.7-0.6-1.3-1.2C268.7,353.6,268.5,354.2,268.7,354.6L268.7,354.6z"/>
	<path d="M294.5,376.4c0.1,0,0.2-0.1,0.3,0c0.1,0,0.2,0.2,0.2,0.2c-0.1,0-0.3,0.1-0.4,0.1C294.5,376.7,294.5,376.5,294.5,376.4z"/>
	<path d="M251.3,375c-0.1,0.5-0.1,0.9-0.2,1.5C250.5,375.9,250.8,375.4,251.3,375L251.3,375z"/>
	<path d="M251.3,375.1c0-0.5,0.1-1,0.1-1.4c0.1,0,0.2,0,0.3,0.1C251.5,374.2,251.4,374.6,251.3,375.1L251.3,375.1z"/>
	<path d="M280.3,383c0.2-0.5,0.5-1,0.7-1.5l-0.1-0.1C280.9,382,281,382.7,280.3,383L280.3,383z"/>
	<path d="M264.4,351.8c0.1-0.3,0.2-0.6,0.1-0.4C264.6,351.3,264.4,351.5,264.4,351.8L264.4,351.8z"/>
	<path d="M302.5,375.4c-0.1,0.1-0.2,0.2-0.2,0.2c-0.2,0-0.4-0.1-0.6-0.2c0.1-0.1,0.2-0.2,0.2-0.2
		C302.1,375.3,302.3,375.4,302.5,375.4z"/>
	<path d="M259.3,342.3c0.2-0.7,0.5-0.8,1.3-0.2C260,342.2,259.6,342.2,259.3,342.3C259.2,342.3,259.3,342.3,259.3,342.3z"/>
	<path d="M265.8,373.6c0.1-0.1,0.2-0.2,0.3-0.4c0,0.1,0,0.2-0.1,0.2C265.9,373.5,265.8,373.5,265.8,373.6L265.8,373.6z"/>
	<path d="M287.6,369.9c-0.1,0-0.2-0.1-0.3-0.1C287.4,369.8,287.5,369.9,287.6,369.9L287.6,369.9z"/>
	<polygon points="262.8,362.6 262.7,362.8 262.9,362.7 	"/>
	<path d="M263.6,361.9c-0.3,0.2-0.6,0.5-0.8,0.7l0.1,0.1C263.1,362.5,263.4,362.2,263.6,361.9L263.6,361.9z"/>
	<polygon points="261.3,360.4 261.3,360.6 261.4,360.5 	"/>
	<path d="M261.4,360.5c0.3-0.2,0.5-0.5,0.8-0.7l-0.1-0.1C261.9,360,261.6,360.2,261.4,360.5L261.4,360.5z"/>
	<path d="M258.5,354.6c-0.1,0.2-0.2,0.3-0.2,0.5C257.8,354.6,258.3,354.7,258.5,354.6L258.5,354.6z"/>
	<polygon points="256.2,354.6 256.2,354.8 256.3,354.7 	"/>
	<path d="M257,353.8c-0.3,0.3-0.5,0.5-0.8,0.8l0.1,0.1C256.6,354.4,256.8,354.2,257,353.8L257,353.8z"/>
	<path d="M254.8,351.7c-0.1,0.1-0.1,0.3-0.2,0.4c0-0.1,0-0.1,0-0.2C254.7,351.8,254.8,351.8,254.8,351.7L254.8,351.7z"/>
	<path d="M255.6,351c0,0.5-0.3,0.7-0.8,0.7l0.1,0.1C255.1,351.5,255.4,351.3,255.6,351L255.6,351z"/>
	<path d="M258.6,343.1c-0.1-0.6,0.2-0.8,0.7-0.7c0,0-0.1-0.1-0.1-0.1C259.3,342.8,259,343,258.6,343.1L258.6,343.1z"/>
	<path d="M258.5,343c-0.2,0.2-0.5,0.5-0.7,0.7l0.1,0.1C257.8,343.3,258,343,258.5,343L258.5,343z"/>
	<path d="M257.1,344.5c0.3-0.2,0.5-0.4,0.8-0.6l-0.1-0.1C257.5,344,257.3,344.2,257.1,344.5L257.1,344.5z"/>
	<polygon points="257,344.4 257,344.6 257.1,344.5 	"/>
	<path d="M324.6,399c0.5,0,0.7,0.2,0.7,0.7l0.1-0.1C324.8,399.7,324.6,399.5,324.6,399L324.6,399z"/>
	<path d="M324.7,398.9c-0.1,0-0.2,0-0.3-0.1C324.5,398.9,324.5,399,324.7,398.9L324.7,398.9z"/>
	<path d="M270.9,377.2c-0.1-0.6,0.2-0.7,0.7-0.7l-0.1-0.1C271.6,377,271.3,377.2,270.9,377.2C270.8,377.1,270.9,377.2,270.9,377.2z"
		/>
	<path d="M269.4,373.5c-0.3,0.2-0.5,0.4-0.8,0.7l0.1,0.1C268.9,374.1,269.2,373.8,269.4,373.5L269.4,373.5z"/>
	<path d="M265.1,374.3c-0.1-0.6,0.2-0.7,0.7-0.7l-0.1-0.1C265.8,374,265.5,374.2,265.1,374.3L265.1,374.3z"/>
	<polygon points="260.6,373.4 260.6,373.6 260.7,373.5 	"/>
	<path d="M269.4,373.6c0-0.1,0.1-0.2,0.1-0.2C269.5,373.4,269.4,373.5,269.4,373.6L269.4,373.6z"/>
	<path d="M419.9,397.3c0.1-0.8,0.1-1.4,0.4-1.9c0.7-1.2,1.5-2.5,2.5-3.6c7.9-8.5,17.7-12.6,29.2-11.7c18.5,1.6,28.8,15.4,31.1,27.1
		c0.9,4.5,0.9,8.8,0,13.3c-0.1-0.7-0.3-1.5-0.3-2.2c0.4-5.6-1-10.8-3.2-15.9c-5.2-12-14.3-18.9-27.3-20.4
		c-7.6-0.9-14.6,0.9-21.1,4.9c-0.3,0.2-0.6,0.4-0.9,0.6c-5,3.5-5.2,2.2-8.6,8c-0.2,0.4-0.6,0.8-0.9,1.1
		C420.6,396.9,420.4,397,419.9,397.3z"/>
	<path d="M432.2,420.7c-0.2-0.3-0.6-0.6-0.6-0.9c-0.1-2.9-0.5-5.8,0-8.7c1-6.9,8-13.1,15-13.6c2.2-0.1,4.4-0.1,6.5,0.2
		c7.1,1.2,13.7,8.1,13.8,16.4c0,2,0.2,4.1-0.7,6.1c-1.1,0-1.2-0.8-1-1.4c0.5-2.2,0.1-4.3-0.4-6.5c-1.2-5.3-4.1-9.2-9-11.5
		c-5.7-2.7-14.5-2-19.4,5c-1.3,1.9-2.5,3.9-3.5,5.9c-0.5,1-0.6,2.3-0.6,3.5C432,417.1,432.1,419,432.2,420.7L432.2,420.7z"/>
	<path d="M445.1,437.5c0.8,1.3,1.6,2.6,2.4,3.9c0.8,1.4,1.9,2.5,3.7,2.5c0.5,0,0.9,0.3,1.4,0.4c1.8-0.9,3.6-2,5.5-2.6
		c1.4-0.5,2.3-1.3,2.8-2.6c0.6-1.3,0.9-2.7,1.3-3.9c-3-6-5.5-12-7.6-18.2c-0.3-1-0.7-2.1-0.9-3.1c-0.3-1.4-1-2.4-2-3.3
		c-2.6-2.4-5.6-2.1-7.6,0.9c-0.2,0.3-0.3,0.7-0.5,1c-0.2,0.3-0.5,0.5-0.7,0.8c-0.9-0.4-0.6-1-0.3-1.5c0.7-1.2,1.6-2.4,2.4-3.6
		c0.9-1.1,2.1-1.5,3.6-1.7c0.5,0.2,1,0.5,1.6,0.7c2.3,0.6,4,1.4,4,4.2c0,1,1,1.9,1.4,2.9c1.8,4.1,3.6,8.2,5.2,12.3
		c1,2.7,1.8,5.5,2.4,8.3c0.4,2.1-0.5,4-1.8,5.7c-1,1.3-2.6,2.1-3.3,3.7c-0.2,0.4-1,0.7-1.6,0.8c-0.9,0.2-1.9,0.1-2.9,0.2
		C449,446,445.5,443.2,445.1,437.5L445.1,437.5z"/>
	<path d="M445.2,437.5c-0.2-0.3-0.6-0.5-0.7-0.8c-0.4-1.3-0.4-2.8-1.2-3.7c-1.2-1.3,0-2.5-0.2-3.7c-0.5-3-0.7-6-1-9
		c-0.2-1.7-0.3-3.3-0.1-5.3c0.5,0.4,0.9,0.5,0.9,0.7c0.4,2.4,0.8,4.7,1.1,7.1c0.5,4.1,1.3,8.1,1.3,12.2
		C445.3,435.9,445.2,436.7,445.2,437.5L445.2,437.5z"/>
	<path d="M459.8,433.1c-0.7-0.1-1.4-0.1-2.1-0.3c-0.5-0.1-0.8-0.5-1.3-0.7c-3.5-1.4-4.9-1.1-7.5,1.8c-0.2,0.2-0.5,0.4-1,0.8
		c-0.3-0.5-0.7-0.9-0.6-1.2c0.2-0.7,0.4-1.6,0.9-1.8c1.8-0.9,3.7-1.6,5.7-2.1c1-0.3,2.1,0.2,3,1
		C457.8,431.4,458.8,432.2,459.8,433.1L459.8,433.1z"/>
	<path d="M482.7,423.3c0.3,1.1,0,2.4-0.8,3.5c-1.2,1.7-2.4,3.3-3.1,5.3c-0.1,0.3-0.6,0.6-1.1,1c0.2-2.1,0.5-2.8,2.2-5.4
		C480.8,426.1,481.8,424.6,482.7,423.3z"/>
	<path d="M471.9,439.1c1.1-1.2,2.1-2.4,3.6-4c-0.1,0.8,0,1.3-0.2,1.6C474.6,437.8,473.6,438.8,471.9,439.1z"/>
	<path d="M455.1,447.4c-1.1,1.3-2.4,0.7-3.9,0.5c0.4-0.4,0.5-0.8,0.7-0.8C452.9,447,453.9,446.7,455.1,447.4z"/>
	<path d="M419.6,399.1c0.2,1.8-0.5,2.9-2,4.2C417.9,401.4,418.1,400.1,419.6,399.1z"/>
	<path d="M434.3,425.2c1.3,0.6,2.2,1.5,2.9,3.5C435.5,427.5,434.4,426.7,434.3,425.2L434.3,425.2z"/>
	<path d="M464.4,424.6c-0.3-1.8-0.2-2.5,0.7-2.6c0.2,0,0.5,0.2,0.5,0.3C465.9,423.5,465.3,424.1,464.4,424.6z"/>
	<path d="M444.7,448.4c-0.7-0.3-1.4-0.6-2.2-0.9c0.7-0.7,1.5-0.6,2.3-0.3C445.4,447.5,445.2,447.9,444.7,448.4z"/>
	<path d="M434.4,425.1c-1.1-0.3-1.2-1.2-1.5-2.1l-0.1,0.1C433.8,423.4,434.2,424.1,434.4,425.1L434.4,425.1z"/>
	<path d="M432.1,420.8c1,0.6,0.4,1.5,0.7,2.3l0.1-0.1C432.6,422.2,432.4,421.5,432.1,420.8L432.1,420.8z"/>
	<path d="M463.2,446c-0.1-0.1-0.2-0.2-0.2-0.2c0.2-0.1,0.4-0.2,0.6-0.2c0.1,0,0.2,0.1,0.2,0.2C463.6,445.9,463.4,446,463.2,446z"/>
	<path d="M459.7,433.1c0.2,0.2,0.4,0.4,0.6,0.5c-0.1,0.1-0.3,0.2-0.4,0.3C459.9,433.7,459.8,433.4,459.7,433.1L459.7,433.1z"/>
	<path d="M312.4,455c0.4-0.8,1.2-0.7,1.9-0.8c7-0.6,13.9-1,20.9-0.2c1.6,0.2,3.1,0.2,4.7,0.3c0.5,0,1,0.1,1.1,0.9
		c-0.3,0.1-0.6,0.3-0.9,0.4c-1.2,0.1-2.4,0.2-3.6,0.1c-7.3-0.7-14.7-0.5-22-0.6C313.7,455,313,454.9,312.4,455L312.4,455z"/>
	<path d="M275.4,455.2c0.6-0.1,1.2-0.3,1.7-0.3c5.2,0,10.4,0,15.5,0c0.9,0,2-0.2,2.4,1c-2.8,0.5-17.6,0.5-19.3,0
		C275.6,455.9,275.5,455.6,275.4,455.2z"/>
	<path d="M309.8,458.5c0.3,0.5,0.6,0.8,0.5,0.9c-1.1,4.3-2.3,8.6-3.5,13.1C306.1,468.5,307.6,461.7,309.8,458.5z"/>
	<path d="M346.1,455.6c3.3-4.4,4.3-5.3,6.5-6.1c-1.1,2.7-2.8,5-4.7,6C347.6,455.7,347.1,455.5,346.1,455.6z"/>
	<path d="M332.8,458.1c0.3,1.4-0.4,2.5-0.8,3.7c-0.4,1.1-0.8,2.2-1.3,4C330.4,462.4,331.3,460.2,332.8,458.1z"/>
	<path d="M349,460.5c-1.4-0.5-1.1-1.5-1.1-2.3c0-0.6,0.2-1.2,1.1-1.3C349.6,458,349.6,459.1,349,460.5z"/>
	<path d="M335.8,462.7c-0.2,2-0.3,3.5-1.4,5C334.4,464.8,334.4,464.8,335.8,462.7z"/>
	<path d="M356.4,450.7c0,1.4,0,2.7,0,4.1c-0.1,0-0.1,0-0.2,0c0-1.4,0-2.7,0-4.1C356.3,450.7,356.3,450.7,356.4,450.7z"/>
	<path d="M312.3,454.9c-0.4,0.2-0.9,0.4-1.3,0.6c0-0.1-0.1-0.2-0.1-0.4C311.4,455,311.9,455,312.3,454.9L312.3,454.9z"/>
	<polygon points="357,448.2 357,448.5 356.9,448.4 	"/>
	<path d="M383.4,378.6c0.1,1.2,0.3,2.4,0.3,3.6c0,1.5,0.1,3.1-1.4,4.2c-0.2-0.1-0.5-0.3-0.6-0.4c-0.5-2.3-0.9-4.7-1.3-7
		c-0.2-1,0.7-1.6,1.6-1.1c0.5,0.3,1,0.6,1.5,0.9L383.4,378.6z"/>
	<path d="M380.2,391.8c0.2,0.4,0.4,0.7,0.4,1c0,0.3-0.3,0.6-0.5,0.8c-0.1,0.1-0.5-0.1-0.6-0.2c-0.1-0.3-0.2-0.7-0.1-0.9
		C379.4,392.3,379.8,392.1,380.2,391.8z"/>
	<path d="M381.5,388.8c-0.2,0.2-0.3,0.5-0.5,0.7c-0.1-0.2-0.4-0.5-0.4-0.7c0-0.2,0.3-0.4,0.5-0.6
		C381.3,388.4,381.4,388.6,381.5,388.8z"/>
	<path d="M425.5,357.4c1-3.8,4.8-7.5,9.2-9.8c6-3.1,12.3-3.5,18.7-2.1c11.4,2.5,21.8,13.9,19.7,29.9c-0.2-0.9-0.3-1.3-0.3-1.7
		c0.3-4.7-1.2-9.1-3.1-13.3c-5.9-12.5-21.4-18.5-34.8-11.2c-1.8,1-3.5,2.1-5.2,3.3c-0.8,0.5-1.4,1.3-2,2.1
		C426.9,355.5,426.2,356.4,425.5,357.4z"/>
	<path d="M423.4,361.3c0.2-0.5,0.4-1,0.6-1.5c0.1-0.2,0.3-0.2,0.5-0.4c0.1,0.2,0.3,0.5,0.2,0.6c-0.2,0.5-0.5,1-0.8,1.5
		C423.8,361.5,423.6,361.4,423.4,361.3z"/>
	<path d="M382,37.9c-0.1,0.1-0.1,0.1-0.2,0.2C381.9,38.1,382,38,382,37.9L382,37.9z"/>
</g>
</svg>
