<?xml version="1.0" encoding="utf-8"?>
<!-- Generator: Adobe Illustrator 19.2.0, SVG Export Plug-In . SVG Version: 6.00 Build 0)  -->
<svg version="1.1" id="Layer_2" xmlns="http://www.w3.org/2000/svg" xmlns:xlink="http://www.w3.org/1999/xlink" x="0px" y="0px"
	 viewBox="0 0 900 600" style="enable-background:new 0 0 900 600;" xml:space="preserve">
<g>
	<path d="M257.7,181.9c-0.1,0.3-0.1,0.7-0.3,0.9c-0.9,1.1-1.8,2.2-2.9,3.1c-7.3,6.7-15.1,12.8-23.2,18.3c-0.5,0.4-1,0.8-1.6,1
		c-2.8,1.1-3.9,3.5-4.8,6.1c-0.2,0.6-0.4,1.2-0.4,1.9c-0.3,2.6-0.9,5-1.9,7.4c-1.1,2.7-0.6,5.2,1.1,7.8c0.4-0.5,0.7-0.8,1-1.2
		c0.9-1.2,1.7-2.6,2.8-3.7c4.3-4.6,8.2-9.5,12.1-14.4c3.9-4.9,8.4-9.4,12.5-14.1c1.7-1.9,3.2-4,4.8-6c1.5-1.8,2.3-4,2.6-6.3
		c0.2-1.5,1.6-2.8,0.7-4.4c0.5,0.1,1,0.2,1.7,0.4c0,0.6,0.2,1.3,0.1,1.8c-0.9,3.9-1.9,7.6-4.5,10.9c-4.6,5.7-8.8,11.7-13.3,17.4
		c-1.7,2.2-3.6,4.4-5.9,6.1c-1.3,1-2.3,2.4-2.9,4c-0.6,1.9-1.7,3.5-3,4.9c-1.5,1.7-3.1,3.4-4.7,5.1c-1.9,2.2-3.9,4.4-5.7,6.8
		c-1.6,2.1-2.5,4.5-2.6,7.1c0,1-0.1,2.1-0.3,3.1c-0.2,1.3-0.4,2.4,0.5,3.6c0.5,0.6,0.4,1.7,0.4,2.6c-0.1,2.7-0.2,5.4-0.5,8
		c-0.5,3.7,0.9,6.7,2.9,9.7c2.3,0.6,4.6,0.1,6.9,0.4c2.4,0.2,4.5-0.6,6.7-1.5c2.6-1,5.3-1.9,8-2.9c1.8-0.7,3.6-1.5,5.3-2.3
		c2.7-1.3,5.2-2.8,6.2-6.4c-0.1-0.6-0.3-1.7,0.1-2.8c2.4-5.8,4.8-11.6,7-17.5c2.5-6.7,4.9-13.5,7.4-20.2c0.8-2.2,1.7-4.3,2.6-6.4
		c2-4.4,4.2-8.8,6.1-13.3c1.3-2.8,2.3-5.7,2.6-8.8c0.1-1.3,0.6-2.5,1.7-3.2c0-2.7,0-5.2,0-7.8c0-0.3,0.1-0.6,0-0.8
		c-1.3-1.6-1.3-3.8-2.2-5.5c-0.4-0.1-0.8-0.2-0.9-0.1c-2.4,1.8-5.3,2.6-8.1,3.5c-2.7,0.8-5.5,0.7-8.2-0.2c-1.2,1.4-2.3,2.7-3.5,4.1
		c-1.3,1.1-2.5,2.1-3.8,3.2c-2.3-0.1-2.3-0.1-3.8-1.5c-3.4,0.4-6.7-0.2-10.1-1.2c-2.6-0.8-4.7-2-6.5-3.8c-0.4-0.5-0.9-1.1-1.4-1.3
		c-2.8-1-3.4-3.4-3.6-5.8c-0.2-2.4-0.3-4.9-0.1-7.3c0.2-4.2,2.1-7.6,5.7-10c1.7-1.1,3.5-2.2,5.4-3.4c0.5-3.9,2.6-7.3,5-10.5
		c1.9-2.5,4.3-4.4,7.5-5c0.8-0.1,1.5-0.3,2.2-0.7c2.6-1.4,5.4-2.4,7.8-2c2.6-1.9,4.8-3.4,6.9-4.9c0.4-1.3,0.3-2.6-0.2-3.8
		c-1.8-4.9-3.5-9.9-5.4-14.8c-2.5-6.2-3.8-12.6-3.3-19.2c0.3-4.5,1-8.9,1.5-13.4c0.3-2.2,0.6-4.3,0.8-6.5c0.4-5.3,0.6-10.5,1-15.8
		c0.4-5.2,1.1-10.5,2.6-15.6c0.7-2.6,1.6-5.1,3.2-7.4c2.7-3.9,6.4-5.9,11.1-5.8c5.4,0.1,10.2,2,15.2,5c0.4-0.1,1.3-0.2,2-0.3
		c0.3-0.4,0.5-0.5,0.6-0.8c1.6-3.6,4.2-6,7.7-7.7c1-0.5,1.9-1.2,2.8-1.9c3.4-2.6,6.9-5,11.1-6c7-1.7,14.1-3,21.3-3
		c2.8,0,5.7,0.1,8.4-0.4c2.1-0.4,3.8-0.1,5.6,0.7c4.3,1.8,8.5,3.5,12.8,5.4c1,0.5,2.1,1,2.9,1.8c2.6,2.3,5.1,4.7,7.6,7
		c1.6,1.5,3,3.3,3.4,5.5c0.6,2.9,1.8,5.6,2.7,8.4c1.5,4.6,1.9,9.3,2.5,14c0.6,4.1,0.7,7.9-1.4,11.6c-0.7,1.3-1,2.8-0.6,4.1
		c0.7,2.9,1.5,5.7,2.7,8.4c1.5,3.5,3.2,6.9,4.8,10.3c-0.9,2.2-0.9,2.3-2.1,2.6c-1.6,0.5-3.2,0.8-4.8,1.2c-1.2,0.3-1.8,0.9-1.9,2.1
		c-0.1,0.6-0.1,1.3,0.1,1.9c1.1,2.4,0.1,3.9-2.1,5c-0.2,0.1-0.3,0.4-0.5,0.6c1.6,4.4,1.5,4.6-2,8.5c0.5,2.9,0.6,6-0.6,8.8
		c-2.4,1.9-5.1,2.8-8,2.7c-3.8-0.2-7.7-0.5-11.5-1c-1.1-0.1-2.1-0.9-3.2-1.3c-1-0.5-1.9-1.3-3.4-1.1c-0.2,0.3-0.7,0.7-0.8,1.1
		c-0.3,2-0.6,4.1-0.6,6.1s0.1,4.1-0.2,6.1c-0.2,2,0,4.1-0.3,6.2c-0.3,2-0.9,4-1.3,5.9c1.3,2.7,1.3,2.8,1.1,5.5
		c-0.2,1.9-0.3,3.8-0.3,5.8c0.1,2.8,0.5,5.6,0.7,8.4c0.2,2.5,0.8,4.8,1.9,7c1.7,3.5,3.4,6.9,5,10.4c1.4,3.1,3.3,5.8,5.4,8.4
		c1.4,1.8,2.8,3.7,4,5.7c2.4,4.1,4.6,8.3,6.9,12.5c1.4,2.5,3,4.9,5.2,6.6c1.8,1.4,3,3,4.3,4.8c2.7,3.9,3.8,8.1,3.7,12.7
		c-0.1,5-1.2,9.9-2,14.9c-0.3,1.6-1.3,2.8-2.6,3.7c-3.1,2.2-6.3,4.5-9.4,6.7c-1,0.7-2,1.1-3.2,1.2c-1.6,0.2-3.2,0.6-4.5,1.5
		c-0.2,0.4-0.2,0.5-0.3,0.6c-0.5,5.1-0.5,10.3-2.1,15.2c-0.1,0.5-0.1,1-0.1,1.5c0.3,6.2-0.2,12.3-0.9,18.5c-0.3,2.9-0.5,5.9-1,8.8
		c-1,5.5-3.1,10.6-5.1,15.7c-1.2,2.9-1.8,5.9-2,9c-0.6,8.6-1.3,17.2-2,25.7c-0.2,1.9-0.4,3.9-1.2,5.6c-0.9,1.9-1.4,3.8-1.9,5.8
		c-0.7,2.8-0.2,5.7-0.7,8.4c-0.6,3.6-0.6,7.2-0.6,10.8c0,1.9-0.4,3.5-1.6,4.9c2.6,7.6,4,15.3,5.3,23.1c1.6,9.9,2.4,19.9,3,29.9
		c0.6,8.3,1.2,16.7,1.5,25c0.4,9.9,0.7,19.8,0.2,29.7c-0.3,6.2-0.6,12.3-0.5,18.5c0,2.3-0.1,4.6-0.4,6.9c-1.7,12-4.3,23.8-7.6,35.4
		c-1.1,3.8-2.5,7.6-4.4,11.1c-1.2,2.1-2.3,4.3-3.2,6.6c-1.7,4.3-5,6.8-9,8.4c-4,1.6-8.2,1.8-12.5,1.5c-1.1-0.1-2.3-0.3-3.5-0.2
		c-7.2,0.7-14.4,0.3-21.6,0.1c-1.7,0-3.3,0.1-5,0.3c-2.5,0.3-5.1,1-7.6,1.1c-8.3,0.5-16.7,0.3-25-0.8c-9.9-1.4-19.8-2.8-29.8-4.1
		c-5.5-0.7-10.9-1.6-16.5-1.3c-3.1,0.2-6.2,0.1-9.2,0.3c-6,0.5-11.8-0.4-17.6-1.3c-6.8-1.1-13.6-2.7-20.5-3.1
		c-4.9-0.3-9.7-0.1-14.6-0.3c-1.9,2.2-4.3,3.3-7,4c-6,1.6-12,2.7-18.2,1.1c-0.7-0.2-1.5-0.3-2.3-0.5c-4.6-0.6-9-0.4-12.8,2.6
		c-0.4,0.3-0.9,0.5-1.3,0.8c-1.3,0.7-2.6,1.2-4,1.1c-3.9-0.2-7.7,0.8-11.4,1.7s-6.9,2.4-9.6,5.3c-1.9,2.1-4,4.5-7.5,3.9
		c-0.2,0-0.5,0.1-0.7,0.3c-1.8,1.2-3.4,0.5-5-0.6c-0.8-0.6-1.7-1.2-2.5-1.7c-3.3-2.1-4.5-5.1-3.7-9c0.2-0.8,0.4-1.5,0.5-2.2
		c0.1-0.6,0.4-1.3,0.2-1.9c-0.9-2.5-0.3-4.8,0.6-7.1c1.5-3.9,2.6-8.1,5.2-11.5c0.2-0.3,0.4-0.7,0.5-1c0.4-2.4,1.9-4.2,3.3-6
		c1.9-2.4,4.2-4.5,6-7c2.1-2.9,4.8-5.1,7.7-6.9c4.4-2.8,8.1-6.3,11.2-10.5c-0.7-1.8-0.3-3.5,0.6-5.2c0.8-1.6,1.7-3.2,2.8-4.6
		c2.4-3,5-5.8,7.7-9c-0.4-2.5,1.4-4.2,3.4-5.7c2.2-1.6,4.7-2.7,7.2-3.5c4.3-1.4,8.7-2.3,13.1-2.5c0.2-0.5,0.4-0.8,0.5-1.2
		c2.5-5.1,6.4-8.6,12.1-9.8c1.8-0.4,3.5-0.7,5.3-1c2.4-0.4,4.5,0.6,6.7,1.2c0.5,0.1,1,0.8,1.4,1.3c0.6,0.8,1.2,1.7,1.7,2.5
		c2,3.1,5.1,5,7.8,7.3c2.7,0.5,4,2.6,5.7,4.4c2.1,2.3,4.4,4.3,7.5,5.2c1.3,0.4,2.6,1.2,3.8,1.9c0.8,0.5,0.7,1.1-0.3,2
		c-2.5-1-5-1.9-7.5-3c-2.2-1-4.4-2.3-5.9-4.2c-1.9-2.4-4.3-4-6.9-5.5c-2.7-1.5-5.2-3.4-6.9-6.1c-1.3-2.2-3-3.7-5.2-4.7
		c-6.2,1.2-11.7,3.3-14.9,9.1c3.2,4.1,5.3,6.1,9,8.7c1.7-1.4,3.4-2.7,5.1-4.1c2.4-1.9,3.1-4.3,2.7-7.2c-0.1-0.7-0.4-1.5-0.6-2.2
		c-0.1-0.3,0.1-0.7,0.2-1.2c0.6,0.4,1.1,0.7,1.3,1c2.7,5.1,2.2,9.3-1.7,12.5c-0.5,0.4-1,0.8-1.5,1.2c-2.2,1.7-3.4,3.7-2.7,6.6
		c0.1,0.6,0,1.2,0,1.6c1.4,1,2.6,1.7,3.7,2.6c1.3,1.1,1.3,2.7,1.7,4.2c0.3,0.8,0.7,1.7,1.4,2.2c3.3,2.4,6.9,4.3,10.6,5.8
		c2.5-3.4,3.5-4.1,7.4-4.6c1.1-0.1,2.3,0,3.5,0c2,0,3.9,0,4.8-2.3c0.2-0.4,0.8-0.7,1.2-0.9c1.7-0.9,2.2-2.4,2.2-4.2
		c0-1.4-0.1-2.8,0.1-4.2c0-0.5,0.6-0.9,0.8-1.4c1.8,0.6,1.6,2.5,2.7,3.5c0.8,0,1.7,0,2.6,0c3.6-0.1,7.2-0.4,10.8-0.4
		c3.5,0,6.9-0.5,10.2-1.7c1.3-0.5,2.6-1,4.1-0.6c0.5,0.1,1.4-0.1,1.8-0.8c-0.3-0.3-0.6-0.5-1.1-1c1.5-0.3,2.7-0.7,3.9-0.9
		c2.4-0.4,4.8-0.9,7.2-1.2c6-0.8,11.6-3.3,17.7-3.6c10.7-2.3,21.2-1.6,31.6,1.6c1.9,0.6,3.9,1.2,6.1,1.9c0-0.8,0.1-1.4,0-2
		c-0.6-3.5-1.2-7.1-1.8-10.6c-0.9-5.6-1.9-11.1-2.6-16.7c-1.3-10.1-2.4-20.1-3.6-30.2c-0.1-1-0.1-2.1,0.1-3c0.5-2.3,0.1-4.3-1.5-6.1
		c-1.5-1.8-3.3-3.4-4.1-5.5c-1-2.5-3.2-3.7-4.4-5.7c-0.7-1.1-1.6-2-2.3-3.1c-4.8-6.4-8.6-13.3-12-20.6c-3-6.5-4-13.2-3.7-20.2
		c0.2-3.6,0.3-7.2,0.6-10.8c0.3-4.6,0.9-9.2,3.4-13.3c0.6-1,0.9-2.1,1.3-3.2c2-4.9,4.4-9.6,8.1-13.5c2.1-2.2,4.2-4.5,6.5-6.6
		c2.5-2.3,4.5-5,6-7.9c1.1-2.1,2-4.5,3.2-6.6c3.7-6.2,4.8-12.9,4.5-20c-0.2-4.4-1-8.7-2.9-12.7c-1.4-2.9-2.7-5.8-4.2-8.7
		c-2.4-4.7-4.8-9.3-6-14.5c-0.9-4-2.4-7.8-3.7-11.7c-0.2-0.6-0.1-1.3-1-1.6c-2.4,2.7-5,5.5-7.3,8.3c-1.8,2.2-4,3.9-6.5,5.3
		c-6.3,3.4-13.1,5.8-19.8,8.6c-1.4,0.6-2.8,0.6-3.9-0.5c-0.9-1-2-1.1-3.2-1.1c-1,0-2.1,0-3.1-0.1c-0.6-0.1-1.4-0.3-1.7-0.7
		c-2-2.6-3.6-5.3-3.3-8.7c0.2-1.8,0.1-3.6,0.1-5.4c0-2.2-0.2-4.4-0.1-6.5c0.1-1.5,0-3-0.2-4.6c-0.7-4.7,0.1-9.2,2.9-13.2
		c0.4-0.5,0.6-1.1,1-1.6c-0.1-0.4-0.2-0.8-0.4-1.1c-0.9-2.4-1.7-5.1-1.2-7.5c0.5-2.8,0.7-5.8,2-8.5c0.5-1,0.8-2.3,0.6-3.3
		c-0.4-1.9,0.4-3.3,1.6-4.5c2.7-2.9,5.4-5.8,9-7.7c2-1.1,4-2.3,6-3.4c1.7-1,3.4-1.9,5-2.9c0.7-0.5,1.5-1.1,1.9-1.9
		c0.7-1.5,1.9-2.3,3.2-3.2c2.1-1.5,4.2-3,6.3-4.5c0.6-0.4,1.4-0.8,1.3-1.7C256.8,181.7,257.1,181.8,257.7,181.9z M331.2,163l0.2,0.1
		c0.2,0.9,0.4,1.9,1.5,2.3c0.2,0.7,0.3,1.5,0.7,2.1c3.4,6.3,5.9,12.8,7.6,19.7c0.2,0.7,0.4,1.5,0.6,2.2c3,8.1,3.1,16.3,0.4,24.6
		c-0.9,2.8-1.9,5.6-3.1,8.3c-1.4,3.2-3.7,5.8-7,7.4c-1,0.5-2.1,0.9-3.4,0.2c1.2-2,2.4-4,3.6-6c2.9-4.9,4.9-10.2,6.7-15.6
		c1.6-4.7,1.7-9.6,1.7-14.5c0-0.5,0-1.1-0.1-1.5c-1.7-5.4-2.6-10.9-5-16.1c-2.4-5.3-4.9-10.4-8.3-15.2c-0.1-0.1-0.2-0.1-0.4-0.2
		c-0.5,0.3-1,0.7-1.5,1c-1.8-2.7-2.9-5.8-4-8.8c-1.2-3.4-3.1-6.5-5.4-9.2c-1.6-1.9-3.4-3.4-6-3.9c-1.3-0.2-2.5-0.6-3.7-1.2
		c-2.2-1.2-4.4-1.2-6.7-1c-4,0.3-8,0.1-11.9,1.8c-1.1,1.4-1.4,3-1.2,4.9c0.4,3.3,0.5,6.6,0.7,10c0.2,3.8-0.8,7.4-2.8,10.6
		c-0.6,1-1.2,2-1.8,3.1c2.5,5.1,2.8,10.6,2,16c-0.8,5-1.7,10.1-3.8,14.9c-0.8,1.8-1.4,3.6-2.3,5.3c-4.4,7.9-7,16.5-9.8,25.1
		c-0.9,2.8-1.8,5.6-2.8,8.4c-0.5,1.5-1.1,2.9-2.4,3.9c-0.6,0.4-1.1,1.1-1.3,1.8c-1.2,3.3-2.2,6.6-3.3,9.9c-0.1,0.2,0.1,0.5,0.1,0.7
		c-0.2,0-0.3,0.1-0.5,0.1c0.1,0,0.1,0,0.2,0c0.1-0.1,0.1-0.1,0.2-0.2c3.9-4.1,7.8-8.1,11.6-12.4c1.6-1.8,2.8-4,4-6.1
		c3.3-5.8,6.7-11.6,11.1-16.7c4.3-5.1,9-9.9,14-14.3c2.5-2.2,4.8-4.6,7.3-6.9c0.3-0.3,0.6-0.4,1.1-0.8c0.3,0.4,0.8,0.9,0.7,1.1
		c-0.3,0.8-0.7,1.7-1.2,2.3c-1.8,2.2-3.6,4.4-5.5,6.5c-5.1,5.8-10.3,11.5-15.5,17.2c-0.7,0.8-1.3,1.6-2.1,2.5
		c1.5,1.7,3.4,2.4,5.4,2.9c6.5,1.5,13.1,2.4,19.8,2.1c3.6-0.1,7.2-0.3,10.6-1.5c0.4-0.1,0.8-0.4,1.1-0.3c2,0.9,3.7-0.4,5.6-1.2
		c0.6,1.5-0.3,2.5-0.5,3.7c-1.6,1-3.2,1-4.9,0.8c-0.9-0.1-1.8-0.3-2.7-0.2c-4.2,0.8-8.4,0.6-12.7,0.6c-1,0-2,0.2-3.2,0.2
		c-0.5,3.6,0.1,7-0.5,10.5c-1.1-1.5-1.1-1.5-1.3-5c-0.1-1.8-0.1-3.5-0.2-5.5c-2.9-0.4-5.5-1.2-8.1-1c-3,0.2-5.6-0.6-8.1-1.8
		c-0.9-0.4-1.8-1-2.8-1.6c-1.7,1.4-3,2.9-3.9,4.7c-2.2,4.5-4.8,8.8-7.9,12.7c-1.5,1.9-1.6,3.7-1.2,5.7c0.1,0.3,0.1,0.5,0.2,0.7
		c2.1,5.8,4.2,11.6,6.3,17.5c2.8,1.3,6,1,8.9,1.6c2.5-1.9,2.7-2,5.3-1.1c3.3,1.1,6.8,1.5,10.2,1.4c5.8-0.2,11.5-0.5,17.3-0.7
		c5.4-0.2,10.8-0.2,16.2-0.3c4.4,0,8.7,0,13.1,0c5.2,0,10.2-0.8,15.3-1.9c0.5-0.1,1-0.3,1.7-0.6c0.9-4.6,1.8-9.2,2.1-14.2
		c1.8-1.5,3.7-3.2,5.7-4.7c0.7-0.5,1.6-0.7,2.4-1.1c2-1,3.9-1.9,5.8-3c5.2-2.8,7.4-7.6,8.1-13.2c0.1-1,0.1-2.1,0.2-3.1
		c0.4-4.1-0.6-7.9-3.2-11.2c-1.1-1.4-1.8-3.1-2.6-4.7c-1.3-2.7-2.9-5.2-4.9-7.3c-1.2-1.3-2.3-2.7-3.5-4.1c-1-1.2-2-2.3-3.5-3
		c-1.1-0.6-2.1-1.5-3.1-2.3c-3-2.6-6.2-5-9-7.9c-3.8-4-8.1-7.5-12-11.4c-3.8-3.8-7.6-7.6-11.5-11.4c-0.5-0.5-0.9-1.3-1.8-1.2
		c0.1-1.1-0.7-1.7-1.5-2.3L331.2,163z M306.3,54.1c0,0.1,0,0.2,0.1,0.2s0.2,0,0.3,0c0.2,0.6,0.3,1.2,0.7,1.7c2,2.7,4.5,5,7.2,7
		c0.9,0.7,1.7,1.4,3.1,2.6c-1.1-0.1-1.5-0.1-1.7-0.2c-2.7-1.9-5.5-3.8-8.2-5.8c-2-1.5-3.5-3.3-4.9-5.4c-2-3-3.5-6.3-3.8-10
		c-0.1-1-0.2-2.1-0.5-3c-0.2-0.7-0.8-1.2-1.4-2c-1,1.5-1.1,2.9-1.2,4.3c-0.2,2-0.9,4,0.4,5.9c0.4,0.5,0.2,1.5,0.2,2.3
		c-0.1,4.2-0.3,8.5,0.8,12.6c-0.3,4.1,1.3,7.8,2.5,11.6c0.5,1.5,1.3,2.7,2.2,4c2,2.7,3.9,5.4,5.6,8.3c1.2,2,1.7,4.3,2,6.6
		c0.3,3.2,0.4,6.4,0.7,9.6c0.1,1.8-0.1,3.6-0.9,5.2c-0.7,1.5-1,3.1-1.1,4.8c-0.2,2.9-0.5,5.9-0.9,8.8c-0.2,1.6-0.7,3.3-1.2,4.8
		c-1.2,3.6-2.3,4.5-6.5,5.6c2.4,0.4,4.4,0.6,6.6,1c0.5,0.7,0.8,1.6,1.5,2c0.8,0.6,1.9,0.8,2.8,1.1c0.7,0.2,1.5,0.5,2.2,0.7
		c0.6,0.1,1.3,0.2,1.9,0.3c0.5,0.8,1,1.5,1.5,2.3c1.6,2.4,3.2,4.5,5.9,5.8c1.9,1,3.3,2.8,4.9,4.3c0.9,0.9,1.6,2,2.3,3.1
		c3.8,5.7,8.3,10.8,13.1,15.7c5.9,6.1,11.8,12.1,17.8,18.1c1.4,1.4,2.9,2.8,4.9,4.2c-0.2-0.8-0.2-1.2-0.3-1.5
		c-1.2-2.1-2.1-4.4-3.6-6.4c-3-4.2-5.4-8.7-7.3-13.5c-0.4-1-0.7-1.9-1.3-2.8c-2.1-3.2-2.9-6.8-2.9-10.6c0-1.8,0.1-3.6,0.1-5.4
		c0.1-2.2,0-4.4-0.5-6.5c-0.3-1.2-0.4-2.5-0.4-3.8c0-6,0.1-12.1,0.2-18.1c0.1-4,1.6-7.5,4.1-10.7c1.6-0.6,3.2-0.4,4.8,0
		c5.5,1.3,11,2.4,16.7,2.5c1.3,0,2.6,0,3.7-1c0.7-1.9,1.5-3.9,0.9-6.2c-0.4-1.4,0.2-2.8,1.1-3.9c0.6-0.7,1.1-1.4,1.6-2.2
		c0.3-0.5,0.6-1.2,0.6-1.8c0.2-1.8-1.1-3-2.9-2.5c-0.6,0.2-1.2,0.6-1.8,0.6c-0.7,0.1-1.5-0.1-2.2-0.3c-0.3-0.1-0.5-0.6-0.5-0.9
		c0-0.2,0.1-0.6,0.3-0.6c0.6-0.3,1.1-0.6,1.7-0.6c1.7-0.2,3.3-0.1,5-0.3c1.8-0.3,2.4-1.2,2.3-3c0-0.5-0.1-1-0.1-1.5
		c-0.1-0.8-0.2-1.5-0.3-2.3c-1.2-0.8-3-0.6-3.3-2.6c1.2-0.6,2.6,0.3,3.9-0.2c1.4-0.5,3-0.3,4.6-0.6c1.4-0.2,2.8-0.3,4-1.7
		c-0.3-0.5-0.5-1-0.9-1.5c-2.9-4.4-5.4-9-6.8-14.1c-0.9-3.3-0.9-6.6,1.3-9.6c0.3-0.4,0.5-0.9,0.9-1.5c-0.2-0.8-0.5-1.6-0.7-2.5
		c-0.3-1.4-0.7-2.7-0.8-4.1c-0.1-6.2-1.5-12.2-3.3-18.2c-1.3-0.7-3-0.8-3.1-2.9c-1.1,0.4-1.7,0.6-2.4,0.8
		c-5.4-8.2-13.5-12.4-22.5-15.1c-2.1-0.6-4.2-0.9-5.9-1.3c3.4-0.7,5.6-0.6,8.9,0.2c3.2,0.9,6.3,2.2,9.3,3.8c0.9,0.5,1.7,1.3,2.8,1
		c0.1,0.1,0.2,0.3,0.3,0.4c0-0.1,0-0.2,0-0.2c-0.1-0.1-0.2-0.1-0.3-0.1c-0.4-1.4-1.7-1.8-2.6-2.7c-0.8-0.7-1.9-1.2-2.5-2.4
		c0.5-0.1,0.9-0.2,1.2-0.3c0.1,0.1,0.1,0.3,0.2,0.3c3.6,2.5,7,5.1,9.9,8.4c0.8-0.6,0.3-1,0-1.3c-2-3.1-4.7-5.4-8.1-6.9
		c-0.6-0.3-1.4-0.3-2.2-0.4c-0.7-1.3-2-1.4-3.2-1.7c-7.7-2.2-15.4-2.2-23.2-0.4c-2.1,0.5-4.3,0.6-6.5,0.9c-3.5,0.6-7.1,0.6-10.6,1.8
		c-6.1,2.1-11.7,5.2-17.3,9.6c2-0.1,3-0.9,4.1-1.3c1.2-0.4,2.4-0.9,3.6-1.3c1.2-0.4,2.5-0.8,3.7-1.1c1.2-0.4,2.5-0.7,3.7-1.1
		c1.2-0.3,2.5-0.6,3.7-0.9s2.5-0.6,3.7-0.9c1.3-0.3,2.5-0.6,3.8-0.8c1.2-0.2,2.4-0.9,4.1-0.3c-1.3,0.4-2.4,0.8-3.4,1.1
		c-6.3,1.9-12.6,3.6-18.8,5.6c-2.4,0.8-4.8,1.8-7.1,2.9c-4.2,2-6.9,4.6-9.4,8.6c-0.9-0.1-2,0.1-2.8-0.3c-2.6-1.2-5.2-1.3-7.9-0.8
		c-0.1,0-0.2-0.1-0.5-0.2c1.6-1.9,3.8-1.7,6.1-2.1c-0.3-0.6-0.5-1.2-0.7-1.7c1.5-1.4,3,1.2,4.7,0.2c-0.3-0.3-0.5-0.7-0.7-0.8
		c-2.5-0.6-5-1.2-7.5-1.7c-0.7-0.2-1.5-0.2-2.3-0.2c-5.5-0.2-8.8,1.8-10.7,7c-0.8,2.3-1.4,4.7-1.9,7.1c-1.4,7.2-2.4,14.4-4.4,21.5
		c-0.2,0.9-0.4,1.8-0.4,2.7c-0.1,2.6,0,5.3,0,7.6c2.1-6.8,2.9-14.2,5.1-21.3c0-0.1,0.2-0.1,0.5-0.3c-0.1,3.8-1.4,7.4-1.7,11
		c-0.4,3.6-0.9,7.1-1.5,10.7s-1.2,7.3-1.2,11.1c0.7-0.4,1.2-0.7,1.7-1c-0.4,4.4-0.8,8.8-1,13.1c-0.1,2.2,0.2,4.3,0.4,6.5
		c0.2,2.5,0.6,5.1,0.9,7.6c0.2,1.2,0.1,2.6,1.3,3.9c0.1-4.3,0.8-8.2-0.2-12.2c-0.2-1-0.2-2-0.2-3.1c0-4.1,0.3-8.2,1.1-12.3
		c1.2-6.4,2.8-12.8,4.5-19.1c1-3.5,1.8-7,2.7-10.4c1.5-5.6,4.3-10.7,6.5-16c0.2-0.3,0.3-0.7,0.6-1c0.8-0.6,1.8-1,2.4-1.7
		c0.7-0.7,1.1-1.8,2.1-2.1c0.1,0,0.2,0,0.4,0c0.8,0.9,0,1.4-0.5,1.9c-3.4,3.3-5.4,7.4-6.7,11.9c-0.1,0.2,0,0.5,0,0.7
		c0.5,0.6,0.9,0.1,1.3,0l-0.1-0.1c-0.3,0.8-0.4,1.8-0.8,2.5c-2,3.8-3,7.9-3.6,12.1c-0.7,5.5-1.6,10.9-2.2,16.4
		c-0.4,3.3-0.7,6.6,0.4,9.9c0.2,0.7,0.1,1.5,0.1,2.3c0.1,3.8,0.2,7.7,0.4,11.5c0.3,6.2-0.2,12.3-1.9,18.3c-0.2,0.9-0.4,1.7-0.6,2.7
		c0.7,0.7,1.3,1.2,2,1.8c0.3-0.2,0.6-0.3,0.7-0.5c1.1-4.5,1.4-9.1,1.7-13.7c0.2-3.3,0.2-6.7,0.2-10c0-0.5-0.1-1,0-1.5
		c0.6-2.7,0.6-5.3-0.4-7.9c-0.2-0.4,0-1-0.1-1.5c-0.1-2.9-0.1-5.9-0.2-8.8c-0.1-3.1,0.4-6.1,0.9-9.2c0.1-0.6,0.2-1.4,0.6-1.8
		c1.7-1.9,2.1-4.4,3-6.6c1.3-2.9,2.4-6,3.8-8.8c1.5-2.9,2.4-5.9,2.8-9.2c0.2-2.3,0.6-4.6,0.9-6.9c0.2-1.4,0.4-2.8,1.8-4
		c1.1,0.4,2.2,0.7,3.2,1.7c3.7,3.9,8.1,7.1,12.6,10.1c2,1.4,4.2,2.5,5.9,4.3c-1,0.6-1.6-0.1-2.1-0.4c-3.6-2.2-7.1-4.5-10.7-6.8
		c-0.4-0.3-0.9-0.3-1.4-0.5c0-0.1-0.1-0.2-0.1-0.3c0.1,0.1,0.1,0.2,0.2,0.3c-0.1,1.5,1.1,2.2,2,3.1c2.7,3,5.9,5.3,9.2,7.5
		c0.7,0.5,1.7,0.7,1.8,1.8l0.1-0.1c-2.8-0.2-5.3-1.5-7.7-2.9c-0.7-0.4-1.3-1.2-2.3-1C306.5,54.3,306.4,54.2,306.3,54.1z
		 M329.3,578.7c3.3-1.1,6.4-2.7,9.2-4.8c1-0.8,1.6-2,2.2-3.1c1.7-3.6,3.2-7.3,4.3-11.1c2.8-9.8,5.5-19.5,7.4-29.5
		c0.3-1.6,0.8-3.2,0.2-4.9c-0.2-0.7,0-1.5,0.1-2.3c1.8-9.4,2-18.9,1.6-28.4c-0.4-9.4-0.6-18.7-0.9-28.1c-0.3-7.2-0.6-14.4-1-21.6
		c-0.1-1.1-0.2-2.3-0.3-3.2c-0.6-0.7-1.1-0.4-1.5-0.2c-6,1.9-12.3,2.6-18.6,3.1c-13.2,1.1-26.5,0.6-39.7,0.6c-2.2,0-4.4-0.2-6.5-0.4
		c-0.7-0.1-1.4-0.4-2-0.6c0-1.3,0.7-1.6,1.5-1.6c2.2-0.2,4.4-0.3,6.5-0.3c10.9-0.3,21.8-0.5,32.7-0.9c7.6-0.3,15.1-1,22.6-2.4
		c1.5-0.3,3-0.6,4.5-0.9c0.8-1.3,0.5-2.6,0.5-3.9c-0.2-5.5-0.4-11-0.7-16.5c-0.7-13.4-2.6-26.6-7.6-39.1c-0.3-0.8-0.5-1.7-0.6-2.6
		c0-0.3,0.4-0.6,0.7-1.1c1.9,1.4,1.8,4,3.5,5.5c0.1-0.4,0.4-0.8,0.3-1c-0.7-2.1,0-4.3-0.4-6.5c-0.1-0.8,0.3-1.7,0.5-2.6
		c0.9-3.2,2.2-6.3,2.7-9.6c0.8-4.5,1.8-9,2.2-13.6c0.6-7,1.6-14,2.4-21c0-0.2,0-0.5-0.1-0.8c-0.5,0.1-0.9,0.1-1.6,0.2
		c-0.2-2,0.2-3.8,0.8-5.6c1.2-3.4,2.5-6.7,3.9-10.1c0.8-2,1.7-4,2.5-6.1c1.1-2.6,1.8-5.3,1.7-8.2c-0.1-1.1-0.1-2.3,1-3.1
		c0.3-0.2,0.4-0.7,0.5-1c0.7-6.3,1.3-12.5,0.8-18.8c0-0.1-0.2-0.2-0.5-0.6c-0.3,0-1-0.1-1.5-0.1c-0.9,0.1-1.8,0.4-2.6,0.6
		c-6.6,1.7-13.4,2.4-20.2,2.5c-2.6,0-5.1,0.1-7.7,0.1c-6.4,0-12.8,0.9-19.2,1.2c-6,0.3-12.1,0.3-18.1,0.2c-1.9,0-3.8-0.7-5.6-1.3
		c-1.7-0.6-3.4-1-5.3-0.9c-1.8,0.1-3.6-0.1-5.4-0.1c-0.5,0-0.9,0.1-1.7,0.3c1,2,1.9,3.9,2.8,5.7c2.4,4.7,4.6,9.5,6.1,14.6
		c0.6,1.9,1.3,3.8,0.2,5.9c-0.5,0.9,0,2.3,0,3.4c0.2,3.7,0.4,7.5-0.7,11.1c-0.5,1.6-0.9,3.2-1.6,4.7c-2,4-4.2,8-6.3,11.9
		c-0.2,0.3-0.4,0.7-0.6,1c-2.7,2.4-4.4,5.7-6.6,8.5c-1.2,1.5-2,3.3-3.9,4.1c-0.5,0.2-0.8,1-1.2,1.5c-2.9,4.6-5.3,9.4-7,14.5
		c-1.8,5.5-3.1,11.1-3.8,16.9c-0.6,4.8,0.1,9.5,0.6,14.2c0.1,0.9,0.3,1.8,0.4,2.7c0.2,2.7,1.1,5.2,2.2,7.7c3.2,7.2,7.4,13.8,12,20.2
		c1.7,2.3,3.2,4.7,4.9,6.9c1.1,1.5,2.2,2.8,3.3,4.2c1.1,1.4,2.2,2.9,3.2,4.4c0.8,1.3,1.3,2.8,1.2,4.4c0,1.4,0.1,2.8,0.3,4.2
		c2.2,14,4.4,27.9,6.6,41.9c0.7,4.3,1.1,8.7,1.6,13c0.2,1.2,0,2.5,1.2,3.5c0.4,0.3,0.4,1.2,0.3,1.8c-0.2,4.7,0.7,9.2,2.2,13.6
		c1.9,5.6,3.7,11.2,5.4,16.9c0.8,2.6,1.5,5.2,2.3,8.1c-0.5,0.5-1.2,1.3-1.9,2c-0.4-0.1-0.8-0.1-1.1-0.3c-5.2-2.5-10.4-4.9-15.7-7.4
		c-1.9-0.9-3.8-1.4-5.9-1.7c-4.7-0.9-9.3-1.9-13.9-3c-7.8-1.9-15.7-2.7-23.7-2.6c-7.6,0.1-15.1,1.4-22.3,4c-1.5,0.5-2.9,1.1-4.3,1.6
		c-3.4,1.2-6.9,1.9-10.6,2c-3.5,0.1-6.9,0.2-10.4,0.6c-3.4,0.4-6.9,0.2-10.4,0.3c-1.9,0-3.8,0.2-5.7,0.5c-2.9,0.4-5.9,0.3-8.8,0.3
		c-1.3,0-1.3-0.1-3.6-2c-1.9,0.9-4,0.6-6,0.2c-2.9-0.5-5.8-1.1-8.7,0.1c-0.8,0.3-1.8,0.1-2.7,0.1c-2.8,0.2-5.6,0.3-8.5,1.1
		c-1.5,4.4-2.5,8.9-2.7,13.5c-0.1,2,0.8,3.7,1.7,5.4c0.7,1.2,1.6,2.3,2.4,3.5c0.9,1.4,1.6,2.9,2.6,4.7c2.5,0.4,5.4,0.4,8.3,0.5
		c2.6,0.1,5.1,0,7.7,0c7.6,0,15.1,0.8,22.5,2.4c4.9,1,9.8,2,14.8,2.6c5.2,0.6,10.5,0.7,15.8,0.8c5.6,0.2,11.3,0.1,17,0.2
		c7.1,0.2,14.1,0.9,21.1,1.8c7.5,1,15,2.2,22.6,2.5c8.3,0.4,16.7,0.3,25-1.2c1.9-0.3,3.8-0.2,5.7-0.3c2.2,1.4,4.7,1.1,7.1,1.1
		c4.5,0,9-0.1,13.4-1.2c1-0.2,2-0.5,3-0.6c1.3-0.2,1.9,0.5,2.1,1.7c-0.3,0.1-0.6,0.1-0.2,0c-0.3,0.2-0.1,0.1,0.2-0.1
		C328,578.7,328.7,578.9,329.3,578.7z M128.2,501.4c-1.1,0.5-2.2,0.8-3.2,1.3c-4.2,1.8-7.9,4.1-10.7,7.9c-3,4.1-6.3,8.1-9.5,12.1
		c-0.9,1.1-1.7,2.3-2.6,3.3c-0.8,0.9-1.6,1.6-1.6,2.9c0,0.6-0.5,1.2-0.8,1.7c-1.9,2.9-3.9,5.7-6.5,8.1c-1.4,1.3-2.8,2.7-4.8,3
		c-0.2,0-0.5,0.1-0.7,0.2c-2,1.6-4.2,3-5.9,4.9c-3.2,3.5-5.9,7.4-8.1,11.6c-3.3,6.2-4.2,13.1-6.1,19.8c-0.4,1.6-0.8,3.2-0.7,4.9
		c0.2,2.1,0.9,3.7,2.7,4.8c1.6,1,3.3,1.9,5,2.9c3.3-2.9,6.6-5.8,10-8.8c-0.3-0.5-0.6-1.1-0.9-1.6c-0.5-0.8-0.4-1.6,0.3-2.1
		c0.4-0.3,1.3-0.5,1.8-0.3c1.2,0.5,2.2,1.2,3.5,1.9c0.9-0.3,1.8-0.6,2.8-0.9c-0.2-0.3-0.2-0.6-0.4-0.7c-0.6-0.5-1.3-0.8-1.9-1.3
		c-1-0.8-1.1-2.1-0.6-3.1c0.5-0.8,1.6-1.4,2.6-1.2c2.6,0.7,5.1,1.8,7,3.8c0.3,0.3,0.5,0.6,0.8,0.9c0.9,0,1.7,0,2.8,0
		c-0.1-0.4-0.1-0.8-0.3-1c-1.5-1.6-3.1-3.1-4.6-4.7c-0.6-0.6-1-1.5-1.4-2.3c-0.5-1.2,0-2.5,0.9-3s2-0.4,2.9,0.3
		c0.1,0.1,0.2,0.2,0.3,0.3c2.2,3.1,5.4,5.5,7.2,9.1c1.5-0.2,2.7-1.2,4-1.9c0.1-1.2-0.9-1.2-1.5-1.5c-3.3-1.8-4.6-4.7-4.6-8.3
		c0-0.5,0.1-1,0.2-1.5c0.2-0.8,0.7-1.4,1.6-1.5c0.9-0.1,1.5,0.3,1.9,1c0.3,0.7,0.7,1.4,0.8,2.2c0.4,2.4,2.1,3.7,4.2,4.6
		c1.7,0.7,3.5,1.1,5,2c3,1.8,6.2,2.2,9.5,2.8c1.4,0.2,2.8,0.3,4.2,0.1c1.8-0.2,3.6-0.2,5.4-0.2c2.3,0,4.5-0.4,6.7-1.4
		c-0.8-0.1-1.6-0.2-2.5-0.3c-2.1,0-4.1,0-6.2-0.1c-0.9,0-1.8-0.3-2.6-0.7c-1-0.4-0.9-2.1,0.1-2.6c0.4-0.2,0.9-0.4,1.4-0.5
		c0.4-0.1,0.8,0,1.1-0.1c0.4-0.1,0.7-0.2,1.3-0.4c-0.1-0.6,0-1.3-0.3-1.7c-1.8-2.8-3.1-5.9-5.1-8.5c-1-1.3-1.1-2.8-1-4.4
		c0.2-2.6,0.6-5.1,1.4-7.6c0.5-1.7,1-3.4,1.3-5.2c0.2-1.3,1-2.1,2.2-2.4c0.9-0.2,1.8-0.4,2.7-0.4c1.9,0,3.8,0.1,5.9,0.2
		c2.9-1.6,6-2.5,9.5-2c1,0.1,2.1,0.2,3,0.5c2.2,0.7,4.3,0.4,6.3-0.7c2.1-1.2,4.4-2.3,5.1-4.9c-0.2-0.9-1.1-1-1.7-1.3
		c-2.9-1.6-5.9-3.1-8.8-4.7c-1.9-1-3.4-2.3-3.9-4.5c-0.1-0.6-0.5-1.3-1-1.6c-2.2-1.4-2.4-4.2-4-6c-0.1-3.1-2.3-5-4.2-7
		c-0.5-0.6-1.2-1-1.8-1.5c-1.7-1.3-3.4-2.7-5.7-4.4C134.4,499.8,131.2,500,128.2,501.4z M297.9,541.9c-1.2-3.8-2.3-7.6-3.6-11.3
		c-2-5.6-3.7-11.2-5.5-16.8c-0.3-1-0.7-1.9-1.1-2.9c-4.5-2.2-9.2-3.2-14.1-3.9c-6.3-0.9-12.6-0.6-18.8,0c-2.4,0.2-4.8,0.8-7.2,1.2
		c-1.8,0.3-3.5,0.8-5.3,1c-4.3,0.3-8.3,1.5-12.2,3.2c-6.2,2.5-12.7,3.9-19.5,4c-2.7,0.1-5.4,0.5-8,0.8c-3.6,0.4-7.1,0.7-10.4,1
		c-2.3,2.2-4.4,4.2-6.6,6.1c-1.6,1.4-3.6,2-5.7,1.9c-1.4,0-2.8-0.1-4.2,0.2c-1.2,0.2-2.4,0.8-3.5,1.4c-0.4,0.2-1.1,0.8-1,1
		c0.4,1.7-1.6,2.4-1.5,4c0,0.9-0.7,1.9-1.2,2.8c-0.3,0.7-0.8,1.3-1.3,2.1c2.7,0.6,5.2,0.5,7.5,0.1c3.5-0.6,6.9-0.5,10.4-0.5
		c1.5,0,3,0.1,4.5-0.6c1-0.5,2.3-0.2,3.4-0.2c3.1,0,6.2,0,9.2,0.1c4.6,0.1,8.9-0.7,13.3-2c2.3-0.7,4.7-1.4,7-2.2
		c5.4-1.7,10.9-2.9,16.6-3c2,0,4.1-0.3,6.1-0.4c5.3-0.2,10.5,0.6,15.7,1.6c5.3,1,10.5,2.3,15.8,3.6c2.4,0.6,4.6,1.5,6.5,3.2
		c0.8,0.7,1.9,1.2,3,1.7c3.8,1.7,7.5,3.3,10.9,5.7c0.3,0.2,0.7,0.2,1,0.3C298.5,543.9,298.2,542.9,297.9,541.9z M250.5,142.9
		c1.7-0.8,3.5-1.4,5.2-2c0.8,0.6,0.6,1.1,0.2,1.4c-1.1,0.9-2.2,1.7-3.5,2.4c-4.5,2.5-8.5,5.7-12.7,8.7c-3,2.2-4.5,5.2-4.8,8.9
		c-0.2,1.8-0.3,3.6-0.5,5.4c-0.1,1.2,0.2,2.3,1,3.2c1.2,1.3,2.5,2.6,3.7,3.9c0.3,0.3,4.8,2.1,5.6,2.3c0.5,0.1,1.1,0,1.5,0.2
		c2.8,1.3,5.5,0.9,8.2-0.4c1.3-0.6,2.7-0.6,4.1,0c1.6-1.4,3.1-2.8,3.6-4.9c0.3-1.1,1-1.8,1.9-2.4c3.6-2.3,6.5-5.4,8.9-8.9
		c0.2-0.3,0.6-0.4,0.9-0.6c0.1,0,0.2,0.1,0.6,0.2c0,1.3-0.8,2.3-1.5,3.3c-0.7,1.1-1.4,2.1-2.1,3.2c-0.7,0.9-1.4,1.9-2,2.8
		c-0.7,1-1.5,2-2.4,3.2c2.7,0.8,4.8-0.1,6.8-1.2c0.8-0.4,1.4-1.1,2.3-1.4c4.6-2,7.3-5.7,8.4-10.4c1-4.2,1.4-8.6,0.4-13
		c-1.2-5.4-4-9.6-8.8-12.4c-4.3-2.5-8.6-3.1-13.3-1.5c-0.6,0.2-1.4,0.4-1.8,0.1c-2.4-1.4-4.5-0.2-6.4,1c-2.3,1.4-4.3,3.3-5.8,5.6
		c-1.1,1.7-2.1,3.5-3.2,5.3c0.2,0.2,0.3,0.4,0.5,0.6C247.2,144.6,248.8,143.7,250.5,142.9z M288.9,68.9c-1.2,4.1-2.1,8.2-2.5,12.4
		c-0.7,7.4-0.4,14.9-0.4,22.3c0,3.7,0,7.4-0.1,11.2c-0.1,5.3-1,10.5-2.9,15.4c-0.2,0.5-0.3,1-0.4,1.6c1.5,1.4,3,2.7,4.7,4.3
		c1.5-0.5,3-1,4.6-1.6c2.7-1.1,5.4-2.3,8.1-3.6c1.4-0.7,2.4-1.9,3.1-3.3c1.2-2.4,2.1-4.9,2.3-7.7c0.3-3.5,0.7-6.9,0.4-10.4
		c-0.2-2.4,0.2-4.9,0.3-7.3c0.1-1.9,0-3.9,0.1-5.8c0.2-3.2-0.9-6.1-2.5-8.7c-1-1.6-2.1-3.2-3.2-4.8c-0.9-1.3-1.8-2.5-2.6-3.8
		c-3.1-4.7-5.1-9.8-5.6-15.4c0-0.5-0.1-1-0.2-1.5C290.3,64.2,289.6,66.5,288.9,68.9z M275.1,85.1c-0.8,5.7-0.7,11.5,0.1,17.2
		c0.8,6.7,0.5,13.3-0.7,19.9c-0.1,0.7-0.2,1.5-0.2,2.3c0,0.1,0.1,0.2,0.4,0.5c0.3-0.4,0.8-0.7,0.8-1c0.6-4.6,1.2-9.1,1.7-13.7
		c0.3-2.7,0.2-5.4,0.3-8.1c0-0.6,0-1.3-0.1-1.9c-0.8-4.8-0.7-9.7-0.8-14.6c0-0.7-0.2-1.4-0.3-2.1C275.1,83.8,275.2,84.4,275.1,85.1z
		 M284.3,138.1c-0.1-0.7,0.1-1.3-0.2-1.6c-0.5-0.7-1.2-1.3-1.9-1.8c-1-0.8-2.1-1.5-3.2-2.1c-1.3-0.8-2-1.9-2.2-3.2
		c-4.6-2.6-5.2-2.6-9.4,0.3C275.2,131.5,274.9,130.4,284.3,138.1z M265.9,88.3c0.7-2.5,1.2-8.9,1-12.4C265.8,80,265.1,84,265.9,88.3
		z"/>
	<path d="M802,513.8c-1.9-4.9-5.1-9-8.9-12.4c-6-5.3-12-10.4-18.2-15.5c-7.4-6-15.4-11.1-24-15.2c-8.5-4.2-17.1-8.2-26-11.7
		c-8.8-3.4-17.8-5.8-26.8-8.3c-0.4-0.1-0.8-0.1-1.1-0.1c-2,2.2-5.6,7.8-7.1,11.4c0.7,0.3,1.4,0.6,2.1,0.8
		c16.4,5,31.9,12.1,46.5,21.1c11.8,7.3,23.7,14.5,35,22.4c4.2,2.9,8.3,6,12.5,9c3.8,2.8,7,6.1,9.5,10c0.8,1.2,1.6,2.3,2.3,3.4
		c4.1-0.8,5.1-1.7,5.4-5.4c0.2-2.7,0.2-5.4,0.2-8.1c2.6,0.8,3.5,2.8,3.7,5.3c0.1,1.4,0.2,2.8,0.1,4.2c-0.5,3.6-1.9,6.7-5.8,7.8
		c-0.3,0.1-0.6,0.4-1.1,0.7c0.3,0.7,0.6,1.4,0.8,2.1c0.7,1.8,1.5,3.5,2.2,5.3c0.8,2,0.8,4.3,2.6,5.9c0.3,0.3,0.3,0.9,0.4,1.5
		c0.3,1.8,0.3,3.6-0.2,5.3c-0.7,2.7-2.1,5-3.7,7.1c-1.5,2-3.2,3.9-4,6.5c-0.3,1.1-1.3,2.2-2.3,3c-1.3,1.2-2.9,2.1-4.4,3.1
		c-0.6,0.4-1.6,0.6-2,1.2c-1.2,1.8-3.1,2.1-4.9,2.8c-1.5,0.5-2.9,1-4.4,1.4c-5.2,1.6-10.5,2.4-15.9,2.5c-1.7,0-3.4-0.1-5-0.4
		c-4.4-0.8-8.7-0.6-13,0c-3.6,0.5-7.1,1-10.7,1.1c-4.4,0.1-8.7,0.2-13.1,0.1c-2.2-0.1-4.3-0.7-6.4-1.1c-0.2,0-0.4-0.3-0.6-0.5
		c0.2-0.4,0.5-0.8,0.6-1c-4.5,0.1-9.2,0.2-13.8,0.3c-3.7,0.1-7.4-0.4-11.1-1.2c-8.6-1.7-17-4.1-25.3-6.9c-4.6-1.5-9.3-2.9-14.1-3.7
		c-4.6-0.8-9.1-1.5-13.7-2.4c-2.3-0.5-4.6-0.6-6.9-0.3c-1.1,1.7-2.9,2.5-4.7,3.2c-2.6,1-5.2,1.2-7.9,1.7c-3.2,0.6-6.4,0.4-9.5-0.5
		c-1.6-0.4-3.3-0.6-4.9-0.9c-4.7-0.6-9.5-0.7-14.1-1.7c-2.2-0.5-4.3-0.3-6.5,0.3c-1.8,0.5-3.7,1-5.6,1.2c-2.5,0.3-5.1,0.3-7.7,0.7
		c-5.8,0.8-11.5,0.5-17.3,0.5c-2.4,0-4.9-0.3-7.3-0.5c-1.2-0.1-2.3-0.4-2.7-1.8c0.3-0.6,0.5-1.3,0.7-1.9c-1.5-0.5-3-0.9-4.4-1.6
		c-2.5-1.2-3-4-1.3-6.1c0.9-1.2,2-2.3,3.1-3.4c1.9-2,3.9-4.1,6.2-6.4c-1-1.2-0.9-2.5-0.1-3.8c1.9-3.3,3.6-6.8,5.7-10
		c2-3.1,4.3-6.1,6.5-9.1c1.4-1.9,3.1-3.5,5.3-4.3c2.4-0.9,4-3.1,6.8-3.2c0.6,0,1.1-0.6,1.6-0.9c1.4-0.9,2.7-2,4.1-2.9
		c0.7-0.5,1.6-0.8,2.4-1.2c0.5-0.3,1.1-0.6,1.8-0.9c-0.6-2.4,0.3-4.4,1.5-6.2c0.7-1.1,1.3-2.2,2-3.3c0.7-1.1,1.4-2.2,2.2-3.2
		s1.6-2,2.6-2.9c0.9-0.8,1.9-1.6,2.8-2.3c-1.5-2-3-3.7-4.3-5.7c-1.1-1.8-2.4-3.8-2.8-5.8c-0.8-3.5-2-6.9-2.8-10.4
		c-0.4-1.9-0.9-3.8-1.1-5.7c-1-7.6-0.8-15.1,0-22.7c0.7-5.9,2.3-11.6,5.7-16.6c3.1-4.6,6.7-8.8,11.2-12.1c5.2-3.8,10.5-7.3,15.8-11
		c0.4-0.3,0.9-0.7,1.3-0.7c2.5,0.2,4-1.6,5.5-3c1.9-1.7,3.5-3.7,5.4-5.4c4.6-4.2,7.8-9.2,9.6-15.1c1.8-5.7,2.7-11.5,1.8-17.5
		c-0.6-3.7-1-7.4-1.5-11.1c-0.3-2.3-1-4.6-0.8-6.9c0.6-5.6,0.4-11.3,0.5-16.9c0-0.7-0.1-1.5-0.1-2.5c-3.3,1.9-6.5,3.5-9.5,5.5
		c-3.1,2-6.6,3-10.1,3.4c-6,0.7-12,1.1-18,1.6c-0.6,0.1-1.3,0-1.9,0c-1.4-0.1-2.6-0.5-3.2-1.8c-0.5-1.1-1.4-1.5-2.3-1.8
		c-1-0.4-1.9-0.7-2.9-1c-1-0.4-1.7-1.1-2-2.2c-0.8-3.1-1.4-6.3,0.3-9.3c0.6-1.1,0.9-2.4,1.2-3.6c0.6-1.8,1-3.7,1.7-5.5
		c0.9-2.3,1.6-4.6,2.1-7c0.9-4.2,3-7.6,6.4-10.2c0.7-0.5,1.3-1.2,1.7-1.5c-0.3-3.1-0.1-5.9,1.1-8.2c1.1-2.2,2-4.7,3.8-6.6
		c1.1-1.2,2.3-2.4,2.5-4.2c0.2-1.7,1.3-2.8,2.6-3.6c3.1-1.6,6-3.5,9.4-4.2c1.4-0.3,2.8-0.6,4.1-0.9c2.8-0.5,5.6-1,8.3-1.6
		c1.5-0.3,3.1-0.4,4.2-1.6c1.1-1.2,2.6-1.6,4.1-2.1c2.9-0.9,5.9-1.9,8.8-2.8c0.4-0.1,0.8,0,1.6,0c-1.8,1.8-3.7,2.5-5.6,3.3
		c-5.3,2.3-10.6,4.5-16.2,6.3c-4.3,1.4-8.6,2.8-12.9,3.8c-2.7,0.6-4.8,2-6.1,4.2c-1.8,3.1-3.6,6.2-5.8,9.1c-1.5,2-1.5,4.2-0.9,6.6
		c0.5-0.2,0.9-0.3,1.2-0.6c2.7-2.1,5.8-3.9,8.8-5.5c2.6-1.4,5-3.1,7.5-4.6c1.6-1,3.2-2.1,4.9-3.1c6.4-3.7,13-7.3,19.4-11.1
		c2.4-1.4,4.6-3.3,6.2-5.7c0.8-1.3,1.7-2.5,2.5-3.8c0.1-0.2,0-0.5-0.1-0.7c0.5,0,1,0.1,1.7,0.1c-0.1,0.6,0.1,1.2-0.2,1.6
		c-2.1,3.4-4.2,6.7-7.6,9c-6.2,4.1-12.3,8.4-18.5,12.6c-2.3,1.6-4.7,3-7.5,3.9c-1.6,0.5-3,1.4-4,2.9c-1.1,1.6-2.7,2.8-4.3,3.7
		c-1.9,1.1-3.8,2.1-5.7,3.2c-1.5,0.8-2.9,1.6-4.4,2.4c-5.2,2.7-8.2,7.3-10,12.6c-0.1,0.2-0.2,0.5-0.2,0.7c0.6,3.7-1.4,6.7-2.6,9.9
		c-0.2,0.6-0.4,1.2-0.7,1.8c-1.9,3.3-1.3,6.7-0.3,10.2c2.7,1.4,5.7,2.1,8.6,3.1c0.7,0.2,1.5,0.1,2.3,0.1c4-0.1,8-0.3,11.9-0.5
		c1.3-0.1,2.6-0.1,3.8-0.2c3.4-0.4,6.6-1.1,8.8-4.2c-0.4-1,0.2-1.8,0.9-2.6c2.3-2.8,4.6-5.5,6.9-8.3c5-6,10-12,15-18.1
		c1.2-1.5,2.3-3.1,3.5-4.6c1.4-1.7,2.7-3.4,4.2-5c3.3-3.6,6.9-7,10.1-10.6c2-2.3,3.7-4.9,5.4-7.5c0.7-1,1-2.4,2.4-2.8
		c0.4-0.1,0.7-0.7,0.8-1.2c0.7-1.9,1.3-3.9,2-5.8c0.3-1,0.6-1.9,0-2.9c-0.3-0.6,0.1-1.5,0.1-2.2s-0.1-1.4-0.1-2.4
		c-6,0.7-11.9,1.9-17.4-2.1c-1.5,1.1-3.1,2.3-4.8,3.4c-0.8,0.1-1.5,0.2-2.3,0.4c-1,0.1-2,0.4-3,0.4c-1.1,0-1.2-0.2-1.6-1.8
		c-1.8-0.6-3.5-1-5.1-1.8c-1.6-0.8-3-2-4.5-2.8c-2.3-1.2-3.7-3.1-4.8-5.3c-0.4-0.8-0.8-1.7-1.4-2.3c-1.5-1.2-1.7-2.8-1.5-4.5
		c0.3-3.3,1.2-6.5,2.8-9.6c1.8-3.7,4.7-6,8.7-7.1c1.9-0.5,3.7-0.8,5.7-1.3c2-4,5.4-6.7,9.2-9c2.3-1.4,4.7-2,7.4-1.8
		c1.1,0.1,2.3,0.2,3.4,0c2.5-0.5,4.8-0.4,7.1,0.8c0.6,0.3,1.2,0.1,1.5-1c-1.6-2.6-1.9-5.6-1.9-8.7c-0.1-4.5,0-9,0.6-13.4
		c0.3-2.4,0.6-4.8,2-7c0.5-0.7,0.6-1.7,0.8-2.6c0.4-1.7,0.7-3.5,1.1-5.3c0.5-2.5,1.1-5,1.5-7.5c0.8-5.2,1.5-10.4,2.4-15.6
		c0.9-5.1,2.1-10.1,3.9-14.9c1-2.7,2.2-5.2,4.1-7.3c2.9-3.1,6.5-4.7,10.7-4.3c4.9,0.4,9.1,2.6,13.2,4.9c1.1,1.5,2.5,1.6,4.1,1
		c0.2-0.3,0.5-0.6,0.7-0.9c1.9-3,4.5-5.2,7.9-6.5c1.2-0.5,2.3-1.2,3.4-1.8c3.8-2.4,7.8-4.5,12.4-5.1c6.9-1,13.8-1.5,20.7-0.9
		c2.8,0.2,5.6,0.5,8.4,0.3c1.8-0.1,3.3,0.1,4.8,0.9c4.4,2.3,8.9,4.6,13.3,7c0.9,0.5,1.7,1.1,2.4,1.9c2.3,2.4,4.5,4.9,6.8,7.4
		c2.1,2.3,3.2,4.9,3.5,8c0.1,0.9,0.1,1.8,0.4,2.6c1.1,2.7,1.4,5.5,1.9,8.2c0.9,4.8,0.4,9.7,0.7,14.6c0.1,1.1-0.4,2.3-0.8,3.3
		c-0.5,1.3-1.4,2.5-1.9,3.8c-0.4,1.2-0.9,2.5-0.8,3.7c0.4,2.8,1,5.6,1.9,8.2c1,3.3,2.4,6.5,3.6,9.7c0.7,1.8,0.2,3.1-1.6,3.6
		c-1.5,0.4-3,0.6-4.5,0.8c-2.1,0.3-2.9,1.2-2.9,3.2c0,0.5,0.2,1,0.3,1.5c0.3,1.4-0.1,2.5-1.4,3.2c-0.6,0.4-1.3,0.8-1.9,1.1
		c1.3,4.5,1.2,4.7-2.7,8.5c0.6,2.1,0,4.1-0.5,6.1c-1.2,0.8-1.2,0.8-2.7,1c0.2-1.4,0.7-2.7,0.7-4.1c-0.1-2.3,0.4-4.2,2.2-5.9
		c0.8-0.7,1.4-1.9,1.7-3c0.5-1.8-0.7-3-2.6-2.7c-0.7,0.1-1.5,0.5-2.2,0.5c-1-0.1-2.1-0.1-2.3-1.5c0.4-1,1.3-1.2,2.2-1.2
		c1.8,0,3.6,0.2,5.4,0.1c1.6-0.1,2.3-1,2.3-2.6c0-1.4,0.1-2.8-0.3-3.9c-1.1-0.7-2-1.2-2.7-1.9c-0.3-0.3-0.7-0.8,0-1.4
		c2,1,4.1,0.3,6.3,0.4c2.1,0,4.3,0.3,6.1-1.4c-2.9-4.9-5.1-9.9-6.3-15.4c-0.8-3.7-0.6-7.1,1.9-10.2c0.4-0.5,0.7-1.1,1.1-1.7
		c-0.9-2.9-1-5.8-0.9-8.7c0.2-5.5-0.5-11-1.9-16.3c-1.8-0.9-1.8-0.9-3.1-2.8c-0.1-0.2-0.4-0.2-0.6-0.3c-0.6,0.2-1,0.8-1.9,0.4
		c-0.7-1.2-1.3-2.6-2.2-3.8c-1-1.3-2.2-2.5-3.4-3.7c-4.5-4.1-9.6-7.3-15.4-9.3c-1.2-0.4-2.5-0.5-3.4-1.7l-0.1,0.1
		c2.5-0.4,4.8,0.1,7.1,1c3.1,1.2,6,2.7,8.7,4.5c0.8,0.6,1.8,0.9,2.6,1.4c0.1,0.1,0.2,0.2,0.3,0.3c0-0.1-0.1-0.1-0.1-0.2
		c-0.1,0-0.2,0-0.3,0c0.1-1.2-0.9-1.7-1.6-2.4c-1.1-1.1-2.4-2-3.4-3.5c0.5-0.2,0.8-0.3,1.2-0.4c0.4,0.5,0.8,1,1.2,1.4
		c2.4,1.8,4.6,3.9,6.6,6.2c0.4,0.4,1,0.6,1.5,0.9c0.1,0.3,0.1,0.7,0.2,1c0.1,0.3,0.5,0.4,0.8,0.7c-0.1-0.9-0.2-1.5-1.1-1.6
		c0.1-1.6-1.1-2.5-1.9-3.5c-1.7-2.1-3.9-3.6-6.3-4.8c-0.3-0.2-0.7,0-1.1,0c-0.3-1.1-1.3-1.2-2.1-1.5c-2.7-0.9-5.4-1.7-8.1-2.4
		c-4.7-1.2-9.4-0.8-14.2-0.4c-4.5,0.4-8.9,0.8-13.4,0.9c-1.9,0.1-3.8,0.2-5.7,0.7c-5.8,1.4-11.2,3.8-16.2,7
		c-0.2,0.2-0.4,0.5-0.9,1.3c5.3-2,10.2-3.1,15.1-3.8c4.9-0.7,9.7-2.1,14.8-1.6c-5.6,1.3-11.3,2.4-16.9,3.6
		c-3.8,0.8-7.5,1.8-11.2,2.9c-4.8,1.4-8.8,4-11.4,8.4c-0.5,0-0.9,0.1-1.3,0c-0.7-0.2-1.5-0.4-2.2-0.8c-1.9-1-3.8-1.5-5.9-1.3
		c-0.5,0-1-0.1-2.2-0.2c1.4-0.6,2.2-1.1,3-1.3c1-0.2,2-0.1,3.1-0.2c0.2,0,0.4-0.2,0.5-0.4c-0.2-0.5-0.3-1.1-0.6-1.9
		c0.8,0.2,1.4,0.3,2,0.5c0.7,0.3,1.4,0.7,2.1,0.9c0.2,0,0.5-0.4,0.9-0.9c-2.5-0.8-4.8-1.6-7.1-2.3c-1.2-0.4-2.5-0.6-3.8-0.8
		c-5-0.7-8.6,1.1-10.7,5.7c-1.1,2.4-2.1,5-2.8,7.6c-2,7-3.6,14.2-6.1,21.1c-1,2.7-1.2,5.6-0.9,8.5c0.6-1.3,1.1-2.6,1.5-3.9
		c0.4-1.3,0.8-2.7,1.2-4.1c0.4-1.3,0.9-2.7,1.3-4c0.4-1.4,0.7-2.7,1.2-4.1c0.4-1.2,0.3-2.7,1.7-3.9c0.1,0.7,0.2,1.1,0.1,1.4
		c-3.2,10.8-5.4,21.9-7.8,33c-1.7,7.5-1,15.1-1,22.6c0,0.6,0.6,0.8,1.7,0.3c0.1-5.1,0.2-10.2,0.5-15.4c0.1-1.8,0.6-3.5,0.9-5.3
		c0.1-0.4,0.3-0.7,0.5-1c0.6,1,0.7,1.7,0.6,2.4c0,0.8-0.3,1.5-0.2,2.3c0.7,5.9,0.7,11.8,0.5,17.6c0,1.2,0.1,2.3,0.7,3.3
		c0.5,0.7,0.8,1.6,1.3,2.4c0.2,0.4,0.5,0.9,1.4,0.5c0.3-3,0.8-6.2,0.9-9.4c0.2-9.2,0.3-18.5,0.3-27.7c0-2.3,0.3-4.6,1.1-6.8
		c1.1-2.9,2.2-5.8,3.1-8.7c2.1-7.4,6-13.9,9.7-20.5c0.7-1.2,1.7-1.5,2.9-1.2l-0.1-0.1c-0.2,2-1.6,3.4-2.6,5
		c-1.3,1.9-2.4,3.8-2.8,6.6c0.8-0.4,1.2-0.5,1.6-0.7l-0.1-0.1c-0.4,0.9-0.7,1.9-1.2,2.8c-2.1,3.1-3.4,6.6-4.2,10.3
		c-1.4,6.3-2.9,12.5-4.2,18.8c-0.6,2.7-0.6,5.5-0.4,8.4c0.3,3.5,0.7,7.2-1.3,10.5c-0.2,0.4-0.2,1-0.3,1.5c-0.4,4.1-0.8,8.2-1.2,12.3
		c0,0.5,0.2,1,0.9,1c0.1-0.3,0.4-0.6,0.4-1c0.8-6.8,1.6-13.5,2.4-20.3c0.1-1.1,0.1-2.4,0.5-3.4c1.1-2.9,1.2-6,1.5-9
		c0.1-1.5,0.4-3.1,0.7-4.6c0.5-2.2,0.8-4.6,2.8-6.2c0.4-0.3,0.5-0.9,0.7-1.3c2.1-4.8,4.6-9.5,7.3-14c1-1.7,1.7-3.4,2-5.4
		c0.5-2.8,1.2-5.5,1.9-8.2c0.3-1.3,0.6-2.8,2-3.7c1.3,0.3,2.4,0.8,3.2,2c0.6,0.8,1.3,1.6,2,2.3c3.6,4,7.9,7.3,12.1,10.7
		c1.1,0.9,2.1,1.8,3.1,2.6c-0.8,0.3-1.4,0.1-1.9-0.3c-1.8-1.3-3.6-2.5-5.3-3.8c-2.1-1.6-4.2-3.3-6.4-4.9c-0.1-0.1-0.1-0.2-0.2-0.3
		c0.1,0.1,0.2,0.1,0.3,0.2c0.1,0.6,0.1,1.3,0.4,1.7c1,1.4,2.2,2.8,3.3,4.2c2.7,3.1,6.1,5.4,9.2,8.1l0.1-0.1c-3.5-0.3-6.3-2.1-9-4.1
		c-0.7-0.5-1.1-1.4-2.4-1.2c0.9,1.7,1.9,3.1,3.1,4.5c1,1.3,2.1,2.6,3.3,3.8s2.5,2.4,4.3,4c-1-0.1-1.4-0.1-1.7-0.2
		c-3.2-2.4-6.4-4.8-9-7.9c-3.3-3.9-5.7-8.2-5.9-13.5c0-1.4-0.2-2.8-0.4-4.2c-0.1-0.7-0.3-1.5-1.5-1.5c-1.1,2.1-1.2,4.6-1.9,6.9
		c-0.3,1,0.6,1.7,0.7,2.5c0.1,1,0,2-0.1,3.1c-0.5,3.7-0.8,7.4-0.3,11.1c0.1,0.6,0.1,1.3,0,1.9c-0.3,4.3,1,8.4,2.1,12.5
		c0.2,0.6,0.5,1.2,0.8,1.7c1.3,2.2,2.5,4.5,3.9,6.6c2.5,3.7,3,7.8,3,12.1c0,1.9,0.2,3.9,0.1,5.8c-0.2,2.3-0.2,4.7-1.9,6.5
		c-1,1.1-1.5,2.4-2.2,3.6c-1.1,1.9-2.1,3.8-3.3,5.7c-1.7,2.6-4,4.3-7.3,4.4c-0.1-0.9-0.5-0.8-1.4-0.3c0.6,0.1,1,0.1,1.4,0.2
		c0.8,1.2,2.2,1.2,3.3,1.7c0.9,0.5,1.9,1,1.9,2.2c0,0.9,0.5,1.4,1.1,1.9c1.7,1.2,3.3,2.3,5.2,3.6c0.5,1.7,1.1,3.5,1.6,5.4
		c0.3,1,0.6,1.9,1.4,2.7c2.9,2.8,4.5,6.2,5.6,10c1.5,5.2,3.2,10.3,5.5,15.2c2.8,6,5.6,12.1,8.5,18.1c2.2,4.5,4.6,8.9,6.9,13.3
		c0.2,0.4,0.7,0.8,1.5,1.6c-0.4-3.4-0.8-6.2-1.6-8.9c-0.7-2.6-1.3-5.2-1.9-7.9c-0.9-4.1-0.4-8.5-1.5-12.6c-0.1-0.5,0-1,0-1.5
		c0.1-2.8,0.5-5.6,1.6-8.3c0.9-2.2,1.9-4.5,2.4-6.9c0.5-2,1.3-3.9,2.1-5.7c1.9-3.9,3.8-7.9,5.3-12c1.8-4.8,3.3-9.7,4.8-14.6
		c0.5-1.7,1.3-3,2.7-4.1c1.7-0.3,3.3,0,4.9,0.6c4.5,1.4,9,3,13.8,3.4c0.8,0.1,1.5,0.3,2.3,0.4c0.7,0.1,1.3,0.2,2.2,0.4
		c-1.4,1.5-2.8,1.9-4.4,1.7c-2-0.3-4-0.9-6.1-1.1c-3.4-0.3-6.5-1.2-9.3-3.4c-0.5-0.4-1.1-0.7-1.8-0.1c-0.5,1.9-1.1,3.8-1.7,5.8
		c-0.3,0.8-0.5,2.1-1.1,2.4c-2.1,1.2-2.2,3.3-2.9,5.2c-0.9,2.4-1.6,4.9-2.5,7.3c-0.5,1.4-1.3,2.8-2.1,4.1c-0.8,1.2-1.8,2.1-1.1,3.8
		c0.2,0.4-0.3,1.2-0.6,1.8c-0.6,1.3-1.3,2.5-1.8,3.8c-1,2.4-2.1,4.7-1.7,7.4c0.1,1-0.4,2-0.6,3c-0.5,2.8-1.3,5.5-0.9,8.4
		c0.5,3.6,0.9,7.1,1.4,10.7c0.5,3.8,1.4,7.6,2.8,11.2c0.8,2,1.4,4.1,1.8,6.3c0.9,4.1,1.6,8.3,2.3,12.5c0.7,4,1.7,7.8,4.1,11.1
		c0.4,0.6,0.7,1.3,0.9,2.1c0.4,1.4,0.6,2.7,1,4.1c0.7,2.9,0.7,5.9-0.2,8.8c-0.8,2.6-1.7,5.1-2.8,7.5c-1.1,2.5-2.6,4.7-3.7,7.2
		c-1.1,2.5-3,3.7-5.4,4.5c-2.6,0.8-5.1,1.6-7.7,2.4c-2.2,0.6-4.4,1.3-6.8,0.6c-1.2-0.3-2.5-0.1-3.7-0.1c-1.1,2.5-2.1,4.9-3.2,7.2
		c-1.4,2.9-3.2,5.6-4.4,8.5c-1.3,3.1-2.1,6.3-3.3,9.4c-1.8,4.7-3.9,9.2-5.8,13.8c-0.2,0.6-0.6,1.1-1,1.7c-2.5,3.6-4.9,7.3-7.7,10.6
		c-3.6,4.2-6.5,8.8-8.6,14c-2.4,6.2-5.3,12.3-7.9,18.4c-0.4,1-1.3,2-0.7,3.2c1.1,0.6,2.1,0.7,3.3,0.4c1.2-0.3,2.5-0.2,3.8-0.1
		c1.5,0.2,3,0.6,4.5,0.9c13.8,3.3,27.1,7.7,40.1,13.5c6.3,2.8,12.7,5.6,18.7,9c8.4,4.8,16.3,10.2,22.7,17.7c0.3,0.4,0.7,0.8,1,1.1
		c3.3,2.7,6.6,5.3,9.8,8c1.2,1,2.4,2,3.5,3c4.4,4.1,7.1,9,7.2,15.2C802.9,515,802.2,514.5,802,513.8z M679.3,174.8
		c-1.3,2.3-1.4,2.8-1.2,6.5C679.4,179,679.2,176.8,679.3,174.8c0.8-0.9,0.5-2.1,0.7-3.1c0.3-0.5,0.8-1,0.2-1.8
		c0,0.8-0.1,1.3-0.1,1.9C679,172.6,679.2,173.7,679.3,174.8z M688.7,222.3c0.9-2.4,0.7-2.8-1.9-4.5c-0.3-0.7-0.4-1.5-0.8-2.1
		c-0.9-1.3-1.7-2.5-1.5-4.2c0.1-0.8-0.6-1-2.1-0.8c-2.2-3.3-2.2-3.4-6.1-2.2c-0.1,0-0.2,0.2-0.4,0.4c0.5,0.8,1.5,1.1,2.3,1.5
		c2.3,1.1,4.3,2.7,5.9,4.8c0.8,1,1.8,1.7,2.8,2.6C686.9,219.5,687.9,220.8,688.7,222.3z M587.3,506.5c2.3-2.2,4.5-4.5,6.7-6.8
		c0.8-0.8,1.5-1.4,2.7-1.1c0.1,1.2-0.3,2.3-1,3.2c-1.4,1.8-2.7,3.8-4.4,5.4c-4.6,4.5-9.5,8.7-15.2,11.7c-1.8,1-3.4,2.3-4.7,3.8
		c-4,4.6-8.4,8.6-13.8,11.6c-0.7,0.4-1.4,1.1-1.9,1.8c-1.7,2.7-3.3,5.5-5,8.2c-0.1,0.1-0.2,0.2-0.2,0.3c-0.9,4.9-4.6,8.1-7.3,12
		c-0.4,0.6-1,1.1-1.5,1.8c-0.9,1.2-0.8,2.4,0.6,3.3c1.6,1,3.3,2,5.3,3.2c2.5,0.2,5.5,0.4,8.4,0.5c1.6,0.1,3.2-0.1,4.9-0.6
		c1.7-0.6,3.7-0.4,5.5-0.2c3.1,0.3,5.6,0.4,9.2-0.4c-0.3-0.8-0.7-1.6-0.8-2.5c0-0.5,0.3-1.2,0.7-1.6c0.5-0.5,1.2-0.4,1.8,0
		c0.5,0.4,1,0.8,1.4,1.3c0.6,0.7,1.1,1.4,1.7,2.2c0.9-0.2,1.8-0.4,2.7-0.6c0.1-0.4,0.3-0.7,0.3-1.1c0-0.5-0.2-1-0.1-1.5
		c0.1-1.8,1.8-2.8,3.3-1.7c2.4,1.9,5.1,3,7.7,4.4c1,0.5,2.1,0.8,3.3,1c4.8,0.8,9.6,1.5,14.2,3.4c0.1,0,0.2,0.1,0.4,0.1
		c1.8,0.7,3.3,0.2,4.3-1.7c-1.3-1.8-2.8-3.4-4.3-5.1c-0.7-0.9-1.4-1.8-2-2.8c-0.2-0.3,0.1-1.1,0.4-1.3s1-0.2,1.4,0
		c0.6,0.4,1.1,1,1.6,1.6c0.8,0.9,1.5,1.8,2,2.4c7.4-0.8,14.3-0.4,21.2,0.2c1.3,0.1,2.5,0.4,3.8,0.8c6.7,1.7,13.5,3.3,20,5.6
		c2.2,0.8,4.5,1.2,6.7,1.7c6.2,1.5,12.5,3.1,18.7,4.6c7.3,1.8,14.6,2.9,22.1,2.7c3.9-0.1,7.7-0.2,11.6-0.2c2.3,0,4.6,0.1,6.9,0.2
		c0.6,0,1.5,0.2,1.8,0.6c0.8,1.2,2,1,3.1,1c2.6-0.1,5.1-0.3,7.7-0.4c2.6-0.1,5.1-0.4,7.7,0.2c1.6,0.4,3.3,0.1,5,0.2
		c7.6,0.6,15.1-0.3,22.7-0.8c1.9-0.1,3.8-0.5,5.7-0.9c1-0.2,2-0.5,2.9-1c3.3-1.9,6.6-3.9,9.8-6.1c1.3-0.8,2.3-2.1,3.3-3.2
		c0.8-0.9,1.3-1.9,0.7-3.2c-0.5-1.1,0-2,0.7-2.8c0.8-1,1.7-1.9,2.5-2.9c1-1.5,2.1-3,2.9-4.5c0.9-1.9,1-3.8-0.1-5.9
		c-2.2-4.3-4.1-8.8-6.4-13.2c-1.6-3.1-3.4-6-5.3-8.9c-2.2-3.4-5.1-6-8.6-8.1c-16.6-10.1-33.1-20.3-49.6-30.3
		c-14.3-8.7-29.6-15.3-45.6-20.3c-5.9-1.8-11.8-3.6-17.7-5.4c-0.5-0.1-1-0.2-1.6-0.4c-0.6,0.6-1.3,1.2-1.9,1.8
		c-10.7,12.6-19.4,26.5-26,41.7c-1.2,2.7-1.9,5.5-1.8,8.6c0.1,2.4,0,4.9,0,7.5c3.8,1.2,7.6,2.6,11.4,3.6c6.2,1.7,12.4,3.1,18.7,4.7
		c1.8,0.5,3.8,0.8,5.4,1.9c1.4,1,3,0.6,4.5,0.2c1.2-0.3,2.5-0.7,3.6-1.4c1.2-0.7,2.4-0.7,3.7-0.6c7.4,0.7,14.8,1.3,22.2,2.1
		c6,0.6,12,1.3,17.8,2.9c2.6,0.7,5.2,1.4,7.2,3.4c1,1.1,2.8,1.2,3.6,2.8l-0.1,0.2c-1.8-0.1-3-1.3-4.4-2.2c-1-0.7-2-1.1-3.2-1.2
		c-10.2-1.1-20.3-2.9-30.6-3.8c-8.3-0.7-16.4,0.3-24.4,2c-4.3,0.9-8.5,1.8-13,1.4c-0.9-0.1-1.8,0.2-2.6,0.4
		c-4.1,1.2-8.2,0.8-12.1-0.9c-3.5-1.5-7-3.2-10.5-4.9c-0.5-0.3-1-0.7-1.8-1.4c0.9-0.3,1.4-0.6,1.7-0.5c1.4,0.3,2.8,0.6,4,1.1
		c2.4,1,4.7,2.2,7,3.3c1.9,0.9,3.9,1.4,5.9,1.6c1.4,0.2,2.8,0,4.2-0.4c2.7-0.8,5.5-1.3,8.3-1.9c-0.2-0.2-0.3-0.5-0.5-0.5
		c-5.3-1.6-10.6-3.2-15.9-4.6c-4.7-1.3-9.3-2.8-13.9-4.7c-4.6-1.9-9.2-3.7-13.6-6.8c-0.1,1.4,0.7,1.9,1.2,2.6
		c0.6,0.8,1.3,1.6,1.9,2.4c0.5,0.7,0.9,1.4,1.3,2.1c-0.7,0.8-1.4,0.8-1.9,0.3c-2.5-2.7-5.5-5.1-6.1-9c-0.1-0.5-0.1-0.5-1.6-1.4
		c-0.2,0.4-0.3,0.8-0.5,1.3c-0.4-0.2-0.8-0.3-1.1-0.5c-1.6-1.3-3.3-2.5-4.6-4c-3.5-4.2-8.8-6.2-12.1-10.5c-0.2-0.2-0.7-0.2-1-0.4
		c-0.2-1.6-1.6-2.2-2.4-3.2c-3.7,2.5-6.8,6.7-9.1,12.4c-0.1,0.1-0.2,0.1-0.3,0.2c0.1-0.1,0.1-0.2,0.2-0.3
		C586.1,507.9,586.7,507.1,587.3,506.5z M685.9,232c1.2-6,0-11.4-4.1-16.1c-2.2-2.5-4.7-4.4-7.9-5.2c-1.3-0.3-2.8-0.3-4.2-0.5
		c-0.7-0.1-1.6-0.1-2.1-0.6c-1.4-1.5-3.2-1.4-4.9-1.2c-3,0.3-5.6,1.7-8.1,3.4c-2,1.4-3.9,2.8-5.6,5.3c4.3-1,8.2-1.6,12.6-1.2
		c-0.6,0.7-0.8,1.2-1.2,1.3c-0.9,0.4-1.9,0.7-2.9,0.9c-4.7,0.8-9.2,2.4-13.7,3.7c-0.7,0.2-1.5,0.5-2.2,0.8c-3,1.1-5.3,3-6.6,6
		c-0.8,1.9-1.7,3.7-2.6,5.6c-0.6,1.2-0.6,2.5-0.1,3.7c0.7,1.6,1.3,3.5,2.4,4.8c1.2,1.5,3,2.6,4.6,3.9c0.7,0.5,1.6,0.8,2.3,1.4
		c1.5,1.3,3.1,1.6,5,1.5c1,0,2.1-0.1,3.1,0c0.8,0.1,1.6,0.6,2.7,1.1c1.7-0.6,3.6-1.6,4.9-3.4c0.5-0.7,1.3-1.3,2.1-1.5
		c4.4-1.2,8.3-3.3,12-6c0.2-0.2,0.7-0.1,1.1-0.1c-1.3,2.6-3,4-11.5,9.6c0.6,0.4,1,0.8,1.5,1c2,0.6,4,0.8,6-0.1
		c0.6-0.3,1.2-0.4,1.9-0.4c4.3-0.2,7.6-2.4,10.1-5.6c2-2.5,3.6-5.3,4-8.6c1-0.9,0.7-2,0.8-3.1C685.5,232.3,685.8,232.2,685.9,232z
		 M630,323.1c4-2.1,8-4.2,11.8-6.5c2-1.2,3.8-2.7,5.5-4.1c2.9-2.4,5.5-5,8.4-7.3c6.5-5.3,13.8-9.3,21.4-13c4.5-2.2,9.1-4.2,13.7-6.2
		c0.7-0.3,1.4-0.7,2.2,0.4c-0.3,0.4-0.6,1-1,1.4c-1.3,1-2.7,1.9-4.2,2.8c-8,4.6-16,9.2-24.1,13.8c-1,0.6-1.9,1.2-3,1.8
		c1.2,2.1,2.9,3.5,4.7,4.7c6.2,4,13,6.7,20.1,8.7c2,0.6,4,0.8,6,1.1c1.6,0.2,3.3-0.2,4.8,1c0.4,0.3,1.2,0.1,1.9,0.1s1.5-0.4,2.4-0.2
		c-0.3,1.5-1.2,2.3-1.9,3.3c-1.7,0.5-3.1-0.2-4.6-0.8c-1-0.3-1.9-1-2.8-1.1c-4.7-0.7-9.2-2.4-13.7-3.9c-0.4-0.1-0.7-0.1-1.4-0.2
		c-0.3,0.6-0.8,1.2-1,1.9c-0.8,2-1.4,4.1-2.2,6.2c-0.2,0.6-0.6,1.1-1.1,1.6c-0.1-3.6,1.4-6.8,2.2-10.3c-2.5-1.2-4.7-2.8-7.3-3.5
		c-3-0.7-5.3-2.5-7.4-4.6c-0.6-0.6-1.2-1.3-1.9-2.1c-1.9,0.7-3.6,1.6-4.9,3c-4,4.1-8.4,7.5-13.1,10.7c-0.3,0.2-0.6,0.5-1.1,1
		c-0.2,1.1-0.5,2.3-0.5,3.6c0,6.3,0.2,12.6,0.3,19c2.3,2.1,5.3,3,8.1,4.3c0.8-0.3,1.6-0.9,2.4-0.8s1.7,0.6,2.4,1.1
		c3.3,2.6,7.1,4.2,11,5.3c5,1.5,10.1,3.1,15.2,4.4c5.6,1.4,11,3.4,16.5,5.2c4.4,1.4,8.8,3,13.2,4.4c4.8,1.5,9.7,2.3,14.6,2.7
		c1.8-2.3,5-8.3,7.1-13c2.2-0.8,4.4-1.8,6.7-2.6c0.9-0.3,2-0.2,3-0.3c3.3-0.2,6.6-0.9,9.8-2.1c1.6-0.6,2.9-1.5,4.1-2.8
		c3.4-3.5,5.3-7.8,6.6-12.5c0.6-2.1,0.3-4.3-0.2-6.5c-0.7-2.9-1.1-5.8-1.8-8.7c-0.4-1.9-0.9-3.7-1.6-5.5c-0.6-1.7-1.4-3.3-2-5
		c-0.8-2.1-1.7-4-3.2-5.6c-1.3-1.4-2.1-3.2-3.1-4.8c-1.6-2.6-3.4-5.2-4.6-8c-2.4-5.4-5.7-10.3-8.3-15.6c-2.5-5.3-5.2-10.6-7.8-15.9
		c-0.2-0.4-0.4-0.8-1-1.8c0.1,1.3,0.1,1.8,0.2,2.3c1.5,7.3,2.2,14.7,1.5,22.2c-0.1,1.3-0.2,2.6-0.2,3.8c0.2,8.2-2,15.7-6.9,22.4
		c-1.8,2.5-3.7,4.9-5.7,7.3c-2.1,2.5-4.8,4.3-8.1,5c-1.5,0.3-3,0.6-4.4-0.1c-0.2-1,0.5-1.3,1-1.6c5.7-4.3,10.4-9.5,14.7-15.2
		c3.1-4.1,4.9-8.7,6.6-13.4c0.2-0.6,0.3-1.2,0.4-1.9c0.3-3.8,0.7-7.6,0.7-11.5c0-4-0.4-8-0.8-11.9c-0.4-3.8-1.3-7.6-2.4-11.3
		c-0.6,0.2-1.2,0.4-1.8,0.6c-1-3-1.1-6.1-1.1-9.1c0-4.2-1-8.1-2.7-11.9c-0.8-1.8-1.8-3.4-3.7-4.3c-0.8-0.4-1.5-1-2.2-1.5
		c-1.8-1.2-3.2-2.9-5.5-3.5c-4.5-1.1-8.7-3.1-13.7-2.6c-1.6,0.9-2.3,2.3-2.6,4.2c-0.6,3.3-1.7,6.4-2.6,9.7c-1,3.9-3.2,7-6.3,9.4
		c-0.8,0.6-1.6,1.3-2.5,2.1c0.9,5.8-0.9,11.4-3.5,16.4c-2.8,5.4-6.1,10.7-10.5,15.1c-0.5,0.5-1,1.2-1.6,1.7
		c-6.7,6.1-11.9,13.5-17.2,20.7c-1.6,2.2-3.2,4.3-4.9,6.5c-1.1,1.4-2.2,2.8-4.1,3.4c-0.6,0.2-1.1,0.7-1.5,1.2
		c-2.1,2.8-4.1,5.6-6.1,8.4c-0.2,0.1-0.4,0.2-0.6,0.3c0.6,0.4,0.5,0,0.5-0.4C628.8,323.3,629.5,323.4,630,323.1z M610.3,409.5
		c-2.6,1.6-5.1,3.5-7.6,5.2c-5.8,4.1-10.2,9.4-13.4,15.7c-2.8,5.3-3.8,11.2-4.2,17.1c-0.5,6.3-0.3,12.6,0.1,18.9
		c0.2,3.6,1.1,7.1,1.8,10.6c0.3,1.8,0.9,3.5,1.3,5.2c0.6,2.7,1.9,5,3.9,7c4.7,4.7,9.6,9.3,15.3,12.9c1,0.6,2,1.2,2.7,2.1
		c1.8,2.1,4.1,3.5,6.3,5c5.4,3.5,11.3,6.1,17.2,8.6c0.4,0.2,0.9,0.2,1.6,0.4c0-2.4,0.1-4.5,0-6.7c-0.1-3.4,0.5-6.6,1.8-9.8
		c1.5-3.7,2.7-7.5,4-11.4c-1.5-2-4.6-2.7-5.7-5.6c1.7-0.3,2.5,0.8,3.5,1.5c0.9,0.7,1.8,1.4,2.9,2.3c0.5-0.7,1-1.2,1.3-1.8
		c5-9.5,11.4-18,19.1-25.5c0.7-0.7,1.3-1.5,2.1-2.3c-2.5-1.2-5.1-1.7-7.5-3.3c0.6-0.4,1-0.8,1.4-0.8c1.1,0.1,2.3,0.2,3.4,0.5
		c4.1,1,8.2,2,12.4,3c0.5,0.1,1,0.1,1.5,0.2c2.2-2.4,4.4-4.8,6.5-7.2c1.9-2,3.2-4.3,4.3-6.8c3.2-7,6.5-14,9.7-21
		c0.2-0.5,0.4-0.9,0.6-1.6c-0.5-0.1-1-0.1-1.5-0.2c0.2-2.2,1.4-3.8,2.7-5.4c1.8-2.3,3.7-4.6,5.6-6.8c1.7-2,3.3-4,5-5.9
		c2-2.2,3.6-4.7,4.5-7.6c0.3-1.1,0.6-2.2,1.9-2.7c0.5-0.2,0.9-0.9,1.1-1.5c2.4-5.2,4.6-10.6,6.4-16.1c0.1-0.3,0.1-0.7,0.2-1.4
		c-0.7-0.3-1.3-0.7-2-0.7c-3.3-0.4-6.7-0.5-9.9-1.2c-4.1-0.8-8.3-1.9-12.3-3.2c-8.6-2.8-17.2-5.1-25.9-7.3c-5.1-1.3-10.1-3-15.1-4.6
		c-2.8-0.9-5.4-2.3-7.7-4.3c-1.1-1-2.3-1.6-3.7-2c-2.3-0.7-4.6-1.6-6.9-2.4c-0.9,0.8-0.4,1.7-0.3,2.5c0.6,4.7,1.2,9.4,1.7,14.2
		c0.2,2.4,0,4.9-0.1,7.3c-0.1,1.2-0.2,2.4-1.3,3.5c-0.7,0.7-0.8,2.1-1.2,3.2c-0.7,2.3-1.3,4.7-2.2,7c-1.4,3.3-3.5,6.3-6.1,8.8
		c-2.1,2-4.3,4.1-6.4,6.1c-1.8,1.7-3.5,3.4-5.9,4.3c-0.5,0.2-0.8,0.9-1.2,1.4l0.1-0.1C614,407.4,612.1,408.4,610.3,409.5z
		 M692.7,220.9c4.5,0.2,8.9,0.3,13.3-0.7c1-0.2,2-0.6,2.8-1.2c2.8-2.3,5.1-5.2,6.2-8.7c0.5-1.7,0.6-3.5,0.8-5.3
		c0.4-3.4,0.7-6.9,1.1-10.3c0.2-1.7-0.1-3.3-0.8-4.9c-1.2-2.4-2.3-4.8-3.6-7.2c-1.2-2.3-2.5-4.5-3.6-6.8c-2.4-4.5-3.4-9.4-3.1-14.5
		c0-0.2-0.2-0.5-0.4-1c-0.4,0.5-0.8,0.8-0.9,1.2c-1.6,4-3.5,8-4.7,12.2c-1.1,3.7-1.6,7.5-2.1,11.3c-0.5,3.4-0.7,6.9-0.9,10.3
		c-0.2,3.7-1.2,7.3-1.9,11c-0.8,4.3-1.8,8.5-2.6,12.8c-0.1,0.5,0,1,0,1.4C692.5,220.8,692.6,220.9,692.7,220.9z M687.2,449.3
		c-1.2,1.6-2.3,3.2-3.6,4.8c-1.3,1.6-2.7,3.1-4.3,4.8c0.6,0.3,1,0.7,1.5,0.9c1.6,0.5,3.2,0.8,4.9,1.2c1.6-1.5,2.3-3.4,3.5-5
		s2.4-3.3,3.9-5.3C691.1,449.7,689.3,449,687.2,449.3z M675.3,186.7c-1.2,1.2-0.7,2.4-0.8,3.5c-0.1,1.4,0,2.8,0,4.2
		c0,1.3,0,2.6,0.1,3.8c0.1,1.4,0.3,2.8,0.5,4.2c0.2,1.2,0.1,2.6,1.5,4C675.5,199.6,675.9,193.2,675.3,186.7z M619.3,565.3
		c0.1,0.2,0.3,0.4,0.5,0.8c1.8-0.2,3.6-0.4,5.7-0.6c-2.1-1.3-2.1-1.3-6.3-1.1C619.3,564.8,619.2,565.1,619.3,565.3z M565.4,522.4
		c-1.9,0.7-3,2.2-4.1,4c2.9-1,3.1-1.1,5.7-3.9C566.3,522.4,565.8,522.2,565.4,522.4z"/>
	<path d="M725.5,165.4c-0.1,2.4,0.9,4.5,1.9,6.6c0.8,1.6,1.3,3,1,4.7c-0.1,0.4,0.2,0.9,0.3,1.4c1.7-0.6,0.7-2.6,2.4-3.1
		c1.7,2.2,3.5,4.4,3.4,7.6c0,1.5,0.4,3,0.8,4.5c0.2,0.9,1.3,1.3,2.2,1.1c2.1-0.5,3.3-1.9,3.8-3.9c0.2-0.7-0.2-1.2-1.1-1.5
		c-0.9,0.9-1.8,1.8-2.9,2.9c-0.3-0.5-0.6-0.8-0.6-1.1c0.5-3.2-0.4-6.1-2.1-8.8c-0.2-0.3-0.1-0.7-0.2-1.1l0.1,0.1
		c-2.6-3.2-2.4-5.5,0.7-7.8c0.5-0.4,1.1-0.5,1.6-0.8l-0.1,0.1c0.2-1.5,1.1-2.1,2.5-2.5l-0.1,0.1c0.1-0.6,0.6-1,1-0.7
		c0.9,0.7,1.7,1.5,2.4,2.5c1.5,2.2,3.7,3.5,5.6,5.1c1.5-0.4,2.4-1.2,3.1-2.2c-0.5-1.1-1.4-0.8-2.1-0.9c-2.4-0.5-4.6-1.2-6-3.7
		c-0.7-1.3-1.8-2.5-3.4-3.2c-3.4,1.8-6.4,4.1-8.9,7c-0.7,0.8-0.9,1.8-0.6,2.9c0.1,0.7,0,1.4,0,2.6c-0.7-0.5-1.2-0.7-1.4-1.1
		c-0.5-1-0.9-2.1-1.5-3.1C726.9,167.9,726.1,166.7,725.5,165.4L725.5,165.4z"/>
	<path d="M727.8,145.4c0.4,0.5,0.7,1.1,1.2,1.4c2.8,2,5.7,3.8,9,4.9c4,1.4,7.9,2.9,11.9,4.2c0.8,0.3,1.8,0.3,2.6,0.1
		c2.1-0.4,4.2-0.9,6.3-1.6c1.1-0.4,2.5-0.7,2.9-2.2l0.1,0.1c-1,0.2-1.9,0.5-2.9,0.7c-0.2-0.5-0.5-1-0.8-1.7c-2.2,1-3.8,3.4-6.5,3.4
		c-0.3,0-0.6-0.3-0.9-0.4c0.7-1.1,1.8-1,2.8-1.2c1.3-0.3,1.4-1.3,1.4-2.3l0.1,0.1c-4.4,2.3-8.9,1.4-13.4,0.3
		c-3.5-0.9-6.7-2.3-9.8-4.2C730.4,146.2,729.2,145.4,727.8,145.4L727.8,145.4z"/>
	<path d="M734.8,174.8c-0.1-0.6-0.1-1.3-0.2-1.9c-0.4-2.3,0.1-4.3,1.9-5.9c0.3-0.2,0.5-0.6,0.7-0.9l-0.1,0.1
		c1.2-0.4,1.9-1.3,2.5-2.5l-0.1,0.1c0.4,0.3,1,0.4,1.3,0.8c1.6,2.2,3.3,4.3,4.1,6.7c-0.5,1.6-1.9,2.2-2.9,3.2c0.2,0.3,0.4,0.6,0.5,1
		c0.8,1.5,0.7,2.2-0.4,2.9c-0.9,0.6-2,1-3,1.5c-0.7-2.5-2.2-4.2-4.2-5.4L734.8,174.8z M739.6,167.1c-1.2,0.8-2.3,1.6-3.3,2.6
		c-0.7,0.7-0.7,1.6-0.4,2.5c0.5,1.8,1.8,3,3.6,4.4c-0.1-1.2-0.2-1.9-0.2-2.6c0.6-1.5,2.3-1.4,3.4-2.1c0.4-1.2-0.3-1.8-1.1-2.4
		c-0.9,0.2-1.8,0.4-3.7,0.7c1.4-1.2,2-1.9,2.8-2.6C740.2,167.3,739.8,167,739.6,167.1z"/>
	<path d="M783.2,172.3c0.2,0.5,0.3,1.1,0.7,1.3c1.9,1.3,3.5,3,5.7,3.8c1-0.7-0.2-1.3-0.2-1.7c1.1-2,2.1-3.8,3.2-5.8
		c1.2-0.9,3.6-0.6,4.1-3.1c-1.2,0.3-2.2,0.7-3.3,0.8c-1,0.1-2.1,0-3.1,0.1c-1.1,0.1-2.3,0.4-3.3,0.8c-1.2,0.4-2.3,1.2-3.4,1.7
		c-1,0.4-2.1,0.8-3.1,1.2C781.2,172.9,782.5,171.9,783.2,172.3c0.7-1.7,2.4-1.5,3.8-1.9c0.1,0,0.2,0.2,0.4,0.4
		c-0.4,0.7-0.7,1.4-1.2,2.2C785.1,172.8,784.2,172.6,783.2,172.3z"/>
	<path d="M758.5,210.8c-0.1-0.8-0.1-1.3-0.2-1.4c-0.6-0.5-1.2-0.9-1.9-1.3c-1.3-0.8-2.7-1.6-3.9-2.4c-4.6-3-7-7.4-7.2-12.9
		c0-0.8,0-1.5,0-2.8c-0.6,0.7-1.1,1-1.1,1.4c-1.1,5.8,0.6,10.6,5.1,14.5C751.8,208,754.7,209.5,758.5,210.8z"/>
	<path d="M728.1,182.7c-1.9-3.4-3.4-5.9-4.7-8.5c-1-1.8-1.7-3.7-2.6-5.6c-0.4-0.9-0.7-1.8-2-2.1c-0.6-0.1-1.1-1-1.5-1.7
		c-1.2-2-2.3-4-3.5-6c-0.2-0.4-0.6-0.7-1.3-1.6c0,1.1-0.2,1.6,0,2c0.9,1.8,1.8,3.7,2.9,5.4c3,4.6,6.1,9.2,8.6,14.1
		c0.6,1.1,1.4,2.1,2.2,3.2C726.4,182.2,726.9,182.2,728.1,182.7z"/>
	<path d="M764.7,144.7c-0.2-0.3-0.3-0.7-0.5-1c-0.3,0-0.6,0-0.8,0.1c-2.6,2.1-5.2,1.5-8,0.4c-1.4-0.6-2.8-1.2-4.3-1.7
		c-0.6-0.2-1.2-0.1-1.9-0.1l0.1-0.1c2.7,2.4,6,3.7,9.3,5.1c0.1,0.6-0.6,0.8-1.1,1.1c-1.1,0.6-2.4,0.9-2.8,2.3l-0.1-0.1
		c3.4-0.8,6.6-2.1,9.9-3.5c0-0.7,0.1-1.3,0.1-1.9l0.1,0.1c-0.3,0-0.6-0.1-0.9-0.1c-0.1,0.2-0.2,0.4-0.4,0.5
		c-0.1,0.1-0.3-0.1-0.5-0.2c0.1-0.1,0.2-0.1,0.3-0.1c0.2,0,0.4-0.1,0.7-0.1c0.3-0.3,0.5-0.6,0.8-0.9L764.7,144.7z"/>
	<path d="M778.7,130c1.6,2.2,3.2,4.4,4.8,6.6c0.9-0.1,0.9-0.6,0.8-1.1c-0.3-0.8-0.6-1.6-1-2.4c-0.3-0.3-0.5-0.5-0.8-0.8l-0.2-0.1
		v0.2c0.5,0,0.9,0.2,0.8,0.7c0.9-0.2,1.4,0.5,1.9,1c1.5,1.8,3.4,2.5,5.8,2c0-0.3,0.1-0.8,0-1c-0.6-0.7-1.1-1.4-1.9-1.8
		C785.7,131.6,782.5,129.9,778.7,130L778.7,130z"/>
	<path d="M747.7,124.5c-5.7-1-11.3-0.9-16.8,0.7c-1.6,0.4-3.3,0.6-4.6,2.3c2.8,0.3,4.9-1.1,7.3-1.3c2.3-0.3,4.6-0.6,6.9-0.9
		C742.9,125,745.3,124.8,747.7,124.5z"/>
	<path d="M758.6,128.2c5.8,3.3,11.6,6.6,17.4,9.9c0.2,0.1,0.5,0.1,0.7,0.1c0.6-0.5,0.1-1-0.2-1.2c-1.3-1-2.6-2.1-4.1-2.9
		c-4-2-8.1-3.9-12.1-5.9c-0.4-0.2-0.9-0.3-1.4-0.5C758.8,127.9,758.7,128,758.6,128.2z"/>
	<path d="M757.9,133.1c0.8,0.9,1.6,1.7,3,3.1c-1.8-0.6-2.8-0.9-4-1.3c1.2,1.7,2.6,2.4,5.1,3.6c2.3,1.1,4-0.4,6.3-0.4
		c-0.6-0.4-0.9-0.7-1.2-0.8c-2.6-0.7-4.9-2-7.2-3.5C759.3,133.5,758.5,133.4,757.9,133.1L757.9,133.1z"/>
	<path d="M784.4,159.6c0.3,0.4,0.5,0.8,0.8,0.9c1.4,0.3,2.8,0.6,4.2,0.6c3.2,0,6.4,0.1,9.3,1.1c0.9-0.7,0.6-1.4,0-1.6
		c-2.7-1.2-5.3-2.5-8.4-1.7C788.4,159.4,786.4,158.9,784.4,159.6z"/>
	<path d="M711.9,165.4c1,4.9,3.3,9.2,6,13.2c0.5,0.7,1.3,1.2,2,1.8c0.2,0.1,0.6-0.1,1.1-0.2C716.8,175.7,714.8,170.3,711.9,165.4z"
		/>
	<path d="M756.3,162.5c-2.2,0.6-3.9,1.2-5.6,1.4c-1.7,0.2-3.5,0-5.6,0c1.1,1.6,2.5,1.8,3.9,2c1.8,0.3,3.6-0.1,5.3-0.8
		C755,164.8,755.2,164.6,756.3,162.5z"/>
	<path d="M756.2,157.4c-0.5-0.2-1-0.5-1.2-0.4c-3.2,1.9-6.6,3.2-10.9,4.1c3.2,1.2,5.6,0.5,7.9-0.5
		C753.6,159.9,755.4,159.3,756.2,157.4z"/>
	<path d="M722.4,180.1c0,2.9,1.4,5.3,2.7,7.8c0.7,1.2,1.4,2.3,2.1,3.6c0.8-0.2,0.7-0.9,0.5-1.4c-0.1-0.5-0.4-0.9-0.6-1.4
		c-1.2-2.4-2.4-4.7-3.7-7.1C723.2,181,722.7,180.6,722.4,180.1L722.4,180.1z"/>
	<path d="M746.3,145.4c2,1.5,4.1,2.8,7,3C750.7,146.6,749.1,145.9,746.3,145.4L746.3,145.4z"/>
	<path d="M767,140.3c-0.6-0.2-0.8-0.4-1-0.3c-1.7,0.6-3.5,1.2-5.8,2C763.8,142.1,764.1,142.1,767,140.3z"/>
	<path d="M774.9,130.7c0.2,0.3,0.3,0.7,0.5,0.9c1.5,1.2,3,2.4,4.4,3.5c0.5-0.5,0.4-0.9,0.1-1.4C778.5,132.2,777,131,774.9,130.7
		L774.9,130.7z"/>
	<path d="M705.3,137.6c1.8,0.2,2.5-1.2,3.5-2.2c-0.3-0.8-0.8-0.9-1.2-0.6C706.4,135.5,705.6,136.3,705.3,137.6L705.3,137.6z"/>
	<path d="M745.1,217.3c-0.8,1.4-0.3,2.6,0.4,4.3C746.3,218.4,746.3,218.4,745.1,217.3z"/>
	<path d="M698.5,130c1.4-0.3,2.9-0.7,4.3-1c0.1-0.9-0.5-1-0.9-0.8C700.6,128.5,699,128.3,698.5,130L698.5,130z"/>
	<path d="M726.7,130.9c-1.4-0.1-2.8-0.2-4.2-0.2c-0.6,0-1.2,0.1-1.8,0.4C722.7,131.7,724.8,131.4,726.7,130.9z"/>
	<path d="M761.6,152.3c1.6,0,2.3-1,3-2.5c-0.8,0.1-1.1,0-1.2,0.2C762.8,150.7,762.3,151.6,761.6,152.3L761.6,152.3z"/>
	<path d="M764.7,145.3c1.2,0,2.3,0,3.5-1.4c-1.5,0.3-2.5,0.5-3.5,0.7l0.1-0.1c0,0.3,0,0.6,0,0.9L764.7,145.3z"/>
	<path d="M768.7,117.6c-0.9-0.7-1.9-0.5-3.1-0.5C766.7,118,767.8,117.5,768.7,117.6L768.7,117.6z"/>
	<path d="M741.9,205.1c0.1,0.2,0.1,0.4,0.2,0.6c0.1-0.2,0.3-0.3,0.3-0.5s-0.2-0.3-0.3-0.5C742,204.9,741.9,205,741.9,205.1z"/>
	<path d="M731.6,159.2c0.3,0.2,0.5,0.5,0.2,0.2c0.5,0.1,0.1,0-0.3,0L731.6,159.2z"/>
	<path d="M774.8,130.8c-0.1-0.2-0.2-0.4-0.4-0.5c-0.1-0.1-0.3,0.1-0.5,0.2c0.1,0.1,0.2,0.1,0.3,0.2
		C774.4,130.7,774.6,130.7,774.8,130.8L774.8,130.8z"/>
	<path d="M722.3,180.2c0-0.2,0-0.5-0.1-0.7c0-0.1-0.1-0.2-0.2-0.3c-0.1,0.2-0.3,0.5-0.2,0.6C721.9,179.9,722.2,180,722.3,180.2
		L722.3,180.2z"/>
	<path d="M698.5,130.1c-0.3,0.1-0.6,0.2-0.9,0.3c0.1,0,0.2,0.2,0.3,0.1C698.1,130.3,698.3,130.1,698.5,130.1L698.5,130.1z"/>
	<polygon points="757,132.3 756.9,132.1 757.1,132.2 	"/>
	<path d="M778.6,130c0-0.1-0.1-0.2-0.1-0.2C778.6,129.8,778.6,129.9,778.6,130L778.6,130z"/>
	<polygon points="725.4,165.5 725.3,165.3 725.5,165.4 	"/>
	<polygon points="701.4,148.4 701.6,148.4 701.5,148.5 	"/>
	<path d="M727.1,144.6c0.2,0.3,0.5,0.5,0.7,0.8l-0.1,0.1C727.5,145.2,727.3,144.9,727.1,144.6L727.1,144.6z"/>
	<path d="M746.2,145.5c0-0.1,0-0.2-0.1-0.3C746.2,145.3,746.2,145.3,746.2,145.5L746.2,145.5z"/>
	<polygon points="727,144.6 726.9,144.5 727.1,144.6 	"/>
	<path d="M749.3,142.4c0-0.1,0-0.2-0.1-0.3C749.3,142.2,749.3,142.3,749.3,142.4L749.3,142.4z"/>
	<path d="M757.8,133.2c-0.3-0.3-0.5-0.6-0.8-0.8l0.1-0.1C757.3,132.5,757.6,132.8,757.8,133.2L757.8,133.2z"/>
	<path d="M306.7,391c1.1-1.5,1.1-2.8,1.3-4c0.9-9.2,1.8-18.4,2.7-27.6c0-0.2,0.2-0.5,0.3-0.8c4.7,1.5,9.4,3.2,14.2,4.6
		s9.7,2.5,14.4,3.7c1.3,1.2,0.8,3.5,2.8,4.1c1.4-1.1,0.2-2.3,0.1-3.6c1.8-0.2,3.6-0.3,6.1-0.6c-0.9-0.8-1.3-1.2-1.8-1.4
		c-3-1.1-6-2.4-9.1-3.2c-15.6-3.9-30.7-9.1-45.5-15.5c-3.4-1.5-6.8-3.1-10-4.9c-2.3-1.3-4.5-2.9-6.8-4.4c-1,0.1-1.3,0.8-0.8,1.6
		c0.8,1.1,1.7,2.3,2.8,3.1c2,1.4,4,2.8,6.2,3.9c7.3,3.5,14.6,6.8,22,10.2c1,0.5,2.1,0.9,3.4,1.5c-0.2,3.7-1,7.3-1.3,11
		c-0.3,3.6-0.4,7.2-0.5,10.8C306.9,383.1,306.8,386.8,306.7,391z"/>
	<path d="M358.4,301.1c-0.8,0.5-1.4,0.6-1.6,1c-1.8,2.5-4.2,4.4-5.5,7.3c-0.4,1-1.4,1.8-2.2,2.7c-2.1,2.4-4.3,4.8-6.3,7.2
		c-0.6,0.8-1.1,1.7-1.6,2.4c0.5,0.9,1,0.6,1.4,0.3c5.5-3.7,9.9-8.5,13.5-14c0.3-0.4,0.5-0.9,0.7-1.3c0.2-0.5,0.4-0.9,0.5-1.4
		C357.7,303.9,357.9,302.7,358.4,301.1z"/>
	<path d="M270.9,553.1c0.7,0.2,1.4,0.3,2.1,0.5c3.5,0.8,6.9,1.6,10.4,2.4c1.1,0.2,2.2,0.4,3.4,0.4c0.4,0,0.9-0.5,1-0.9
		s0-1.1-0.3-1.4c-0.7-0.5-1.5-1.1-2.3-1.3c-1.3-0.4-2.8-0.6-4.1-0.6C277.7,551.9,274.3,552.3,270.9,553.1z"/>
	<path d="M308.9,523.3c-0.1,3-0.2,5.3-0.2,7.5c0,2.4,0,4.8,0,7.3c0,0.5,0.1,1,0.2,1.5c0.1,0.3,0.5,0.4,0.9,0.5
		c0.1,0,0.4-0.2,0.6-0.4c0.1-0.2,0.2-0.5,0.2-0.7c0-4.5-0.1-8.9-0.1-13.4C310.6,525.1,310.5,525.1,308.9,523.3z"/>
	<path d="M154.6,546.9c-0.8-1.5-2.3-2.3-3.8-2.7c-2.4-0.7-4.8-0.7-7.2,0c-0.9,0.2-1.2,0.9-1,1.8c0.4,0.2,0.8,0.4,1.1,0.4
		c3.6-0.4,7,1.1,10.6,1C154.3,547.4,154.4,547.2,154.6,546.9z"/>
	<path d="M287,321.4c2.8-2.2,5.5-5.4,6.8-8.2c0.2-0.5,0.2-1.1,0.4-2c-0.6,0.5-1,0.7-1.2,0.9c-2,2.7-3.9,5.4-5.8,8.1
		C287,320.4,287.1,320.7,287,321.4z"/>
	<path d="M336,341.9c0.1-0.9-0.1-1.8,0.2-2.6c0.7-2.4,1.7-4.8,2.4-7.3c0.2-0.7,0.1-1.4,0.2-2.3c-0.5,0.2-0.8,0.3-0.9,0.5
		c-1.5,3-2.5,6.1-3,9.4c-0.1,0.9,0.1,1.8,1.2,2.1L336,341.9z"/>
	<path d="M262,552.8c1.4,1.4,3.1,1.6,4.9,1.2c0.3-0.1,0.7-0.4,0.7-0.7c0.1-0.3-0.2-0.8-0.4-0.9c-1.5-0.8-3.1-1.1-4.8-0.3
		C262.3,552.1,262.2,552.4,262,552.8z"/>
	<path d="M336.2,341.8c-0.2,0.3-0.5,0.6-0.6,1c-0.1,0.3-0.2,0.7-0.3,1.1c-0.2,2-0.4,4-0.7,6c0.8,0.4,1-0.1,1.2-0.6
		c0.8-2.4,1.6-4.9,0.2-7.4L336.2,341.8z"/>
	<path d="M337,286.5c-0.4-1.9-0.4-4-2.2-5.2c-1,0.3-1.3,1-1.1,1.8C334.1,284.6,334.7,285.3,337,286.5z"/>
	<path d="M324.1,292.7c-0.7,0.5-0.4,1.1,0,1.6c1.4,2.1,1.9,2.5,3.7,2.7C326.7,294.8,326.1,294.1,324.1,292.7z"/>
	<path d="M156.3,548.3c1.1,1.6,2.2,1.7,5.1,0.5C160.4,547.4,159.1,547.3,156.3,548.3z"/>
	<path d="M234.3,552.2c1.5,0.8,2.7,1.3,4.2,0.1C237,550.7,237,550.7,234.3,552.2z"/>
	<path d="M341.5,291.2c0.2,2.1,1.8,2.7,2.9,3.7c0.3-0.2,0.5-0.3,0.5-0.4s-0.1-0.2-0.1-0.3C343.6,293.2,342.5,292.2,341.5,291.2z"/>
	<path d="M302.7,295.6c-1.1,1.2-1.7,2.2-1.6,3.5C302.3,298,302.3,298,302.7,295.6z"/>
	<path d="M256.9,552.2c-1.6-1.5-1.6-1.5-3.4,0C254.6,552.9,255.6,552.8,256.9,552.2z"/>
	<path d="M167.2,550.6c-0.4-1.3-1.3-1.3-2.4-1c-0.2,0-0.4,0.4-0.4,0.5c0,0.2,0.1,0.5,0.3,0.6C165.6,551.2,166.4,551.2,167.2,550.6z"
		/>
	<path d="M310.3,426.1c0-1,0-1.9,0-3C309.1,424,309.8,425,310.3,426.1z"/>
	<path d="M242.4,552.1c1.2,0.6,2.4,0.8,3.8,0.1C244.8,551.2,243.6,551.7,242.4,552.1z"/>
	<path d="M171.7,551.4c0.4,0.3,0.6,0.7,0.9,0.8c0.5,0.2,1.2-0.4,0.9-0.8c-0.2-0.3-0.6-0.6-0.9-0.6
		C172.4,550.7,172.1,551.1,171.7,551.4z"/>
	<path d="M332.9,300.3c0.1,1.2,0.9,1.5,1.8,1.9C334.6,300.9,334.6,300.9,332.9,300.3L332.9,300.3z"/>
	<path d="M338.5,361c0.7-1.4,0.9-2.3,0-3.4C338.5,358.7,338.5,359.6,338.5,361z"/>
	<path d="M311,431.7c-0.8,0.6-0.7,1,0,1.6C311,432.7,311,432.2,311,431.7z"/>
	<path d="M308.5,516.6c0.1-0.1,0.2-0.2,0.2-0.3c0-0.4-0.1-0.9-0.1-1.3c-0.1,0-0.2,0-0.2,0.1c0,0.4-0.1,0.9-0.1,1.3
		C308.3,516.5,308.4,516.5,308.5,516.6z"/>
	<path d="M304.9,549.9c0.2,0.1,0.4,0.2,0.6,0.3c0,0,0.1-0.2,0.2-0.3c-0.2-0.1-0.4-0.2-0.6-0.2C305,549.6,304.9,549.8,304.9,549.9z"
		/>
	<path d="M307.5,507.5c0.1,0.2,0.2,0.4,0.3,0.7c0.1-0.1,0.2-0.2,0.2-0.3c0-0.2-0.1-0.4-0.2-0.7C307.7,507.4,307.6,507.4,307.5,507.5
		z"/>
	<path d="M299.7,302c-0.2,0.2-0.4,0.4-0.6,0.6c0,0,0.1,0.2,0.1,0.3c0.1-0.1,0.3-0.2,0.3-0.3C299.6,302.4,299.6,302.2,299.7,302
		L299.7,302z"/>
	<path d="M299.6,302c0-0.1,0.1-0.1,0.1-0.2C299.7,301.9,299.7,301.9,299.6,302L299.6,302z"/>
	<path d="M332.8,300.4c0-0.1-0.1-0.2-0.1-0.2C332.7,300.2,332.8,300.3,332.8,300.4L332.8,300.4z"/>
	<path d="M379.8,231.5c-2.7,9-8.6,13.8-16.6,16.4c-2.4,0.8-5,1.1-7.5,1.6c-1.2,0.2-2.5,0.2-3.7,1c0.3,0.8,1,0.6,1.5,0.6
		c0.8,0.1,1.5,0,2.3,0.1c3.4,0.3,6.6-0.5,9.6-2.2c1.5-0.9,3.1-1.9,5-1.9c0.3,0,0.7-0.2,1-0.4c4.1-3.3,7.4-7,9-12.2
		C380.5,233.9,380.6,233.9,379.8,231.5z"/>
	<path d="M303.8,184.3c2.5,2.9,4.1,6.3,4.8,10c0.2,1,0.4,2.1,1.5,2.5c1-0.4,1.2-1.3,1.2-2.2c0-4.5-1.7-8.2-5.4-11
		C305.3,183.2,304.6,183,303.8,184.3z"/>
	<path d="M313.6,201.7c1.2,3.2,3.2,5.8,5.8,7.7c0.9-0.3,0.8-0.8,0.7-1.3c-0.5-2.6-2.2-4.3-4-5.9
		C315.3,201.5,314.4,201.7,313.6,201.7L313.6,201.7z"/>
	<path d="M325.9,165.2c-0.4,2-0.2,3.9,1,6.1c1-1.6,0.7-2.9,0.6-4.2c0-0.6-0.4-1.1-0.7-1.7C326.7,165.2,326.4,165.3,325.9,165.2z"/>
	<path d="M344.4,245.4c1,0.5,1.3,0.7,1.6,0.8c1.2,0.2,2.5,0.6,3.7-0.1c0.2-0.1,0.2-0.4,0.4-0.8C348.5,244.2,347,244.7,344.4,245.4z"
		/>
	<path d="M303,249.9c-1.1,2.1-1,3.7-1,5.8c0.7-0.8,1.2-1.1,1.4-1.6C303.8,252.9,303.8,252.8,303,249.9z"/>
	<path d="M324.5,214.9c0.7-1.6,0.9-2.9,0.1-4.2c-0.1-0.2-0.4-0.3-0.6-0.3c-0.2,0-0.5,0.2-0.5,0.4
		C323.4,212.2,323.3,213.6,324.5,214.9z"/>
	<path d="M340,242.3c0.2,0.4,0.2,0.6,0.2,0.7c0.6,0.6,1.2,1.5,2.2,0.7c0.2-0.1,0.3-0.5,0.2-0.7C342.3,242.2,341.6,242,340,242.3z"/>
	<path d="M302.7,264.2c1.2-0.9,0.9-1.8,0.7-2.6c-0.2-0.6-0.6-1.1-1.6-1.2C301.9,261.7,301.6,263,302.7,264.2z"/>
	<path d="M324.4,179c0-0.8,0-1.5,0-2.2c0-0.1-0.3-0.4-0.5-0.4s-0.5,0.2-0.5,0.3C323.2,177.6,323.2,178.5,324.4,179z"/>
	<path d="M312.6,201c0.4-1.3-0.2-2.1-1.3-3.3C311.2,199.4,311.7,200.2,312.6,201L312.6,201z"/>
	<path d="M312.7,200.9c0.3,0.3,0.6,0.5,0.9,0.8l-0.1,0.1C313.2,201.5,312.9,201.2,312.7,200.9L312.7,200.9z"/>
	<path d="M325,62.9c0.3-0.5,0.7-1,1.1-1.7c3.3,2.4,5.4,5.8,9.3,7.1c1.3-0.2,2-1.2,2.6-2.2c-0.5-0.9-1.2-0.7-1.8-0.8
		c-2.6-0.2-5-0.7-6.6-3.3c-0.8-1.2-2.1-2.2-3.6-2.9c-3.2,2.2-5.9,4.7-8.2,7.6c-0.6,0.7-0.8,1.6-0.6,2.5c0.1,0.7,0.3,1.5,0.4,2.2
		c0,0.2-0.5,0.4-1,0.8c-1.4-2.3-2.7-4.5-4-6.6c-0.1,0-0.2,0.1-0.4,0.1c0.1,0.5,0.1,1,0.3,1.5c0.4,1,0.7,1.9,1.2,2.8
		c1.4,2.2,2.6,4.4,2.2,7c0.9,0.3,1.1,0,1.3-0.6c0.2-0.8,0-1.8,1.3-2.4c1.5,1.5,2.7,3.3,3.7,5.2c0.3,0.5,0.2,1.2,0.3,1.8
		c0.3,1.5,0.6,3,1,4.5c0.3,1.1,1.5,1.4,2.5,1c2-0.8,3.1-2.2,3.3-4.3c0-0.3-0.2-0.9-0.4-1c-0.4-0.1-1.1-0.1-1.3,0.2
		c-0.7,0.8-1.3,1.8-2.1,2.9c-0.3-0.6-0.7-0.9-0.7-1.2c0.3-3.1-0.7-5.8-2.5-8.2c-0.3-0.4-0.4-0.9-0.6-1.4l0.1,0.1
		c-1.1-0.6-1.4-1.7-1.8-2.8c-0.5-1.4-0.3-2.8,0.7-3.9c1.3-1.5,2.8-2.9,4.2-4.3L325,62.9z"/>
	<path d="M339.8,50.6c0-0.5,0.1-1,0.1-1.5c-0.4,0-0.8-0.1-1.2,0c-6.9,2.1-13.4,0.7-19.9-1.8c-1.2-0.5-2.3-1.1-3.5-1.6
		c-0.9-0.4-1.8-0.9-3.1-0.8c2.6,2.2,5.3,3.6,8.2,4.5c3.8,1.2,7.6,2.3,11.5,3.1c1.9,0.4,3.6,1.7,5.6,1.2c1.7-0.4,3.4-1.2,5.1-1.7
		c2.7-0.7,4.8-2.4,6.6-4.4c0.4-0.4,0.5-0.9-0.3-1.4c-1.3,1.7-2.6,3.4-4.8,3.9c-0.3-0.6-0.6-1.2-0.9-1.8
		C341.8,48.8,341.4,50.6,339.8,50.6c-0.9,1.8-2.3,1.8-4,1.1C337.1,51.2,338.2,50.2,339.8,50.6z"/>
	<path d="M322.1,73.8c-0.1-0.6-0.2-1.3-0.4-1.9c-0.8-2.5-0.1-4.5,1.6-6.3c0.8-0.8,1.9-1.4,1.8-2.8l-0.1,0.1c0.7,0,1.6-0.3,2.2,0.4
		c1.6,2.1,3.6,3.9,4.6,6.4c-0.5,0.6-0.8,1.2-1.2,1.7c-0.5,0.5-1,1-1.6,1.4c1.8,2.9,1.8,3-0.7,4.6c-0.5,0.3-1,0.6-1.7,1
		c-1.2-2.1-2.5-3.9-4.8-4.8L322.1,73.8z M326.4,65.4c-0.8,0.7-1.7,1.4-2.5,2.2c-1.3,1.3-1.4,2.6-0.5,4.2c0.8,1.4,2,2.3,3.7,3.2
		c-0.3-1.2-0.5-2-0.7-3c1.1-0.7,2.2-1.4,3.3-2c0.4-1.1-0.4-1.6-1.2-2.2c-0.9,0.2-1.8,0.4-3,0.7c0.1-1.3,1.3-1.4,1.8-2.4
		C327,65.8,326.8,65.7,326.4,65.4z"/>
	<path d="M367.4,66.5c0.6,0.3,0.9,0.7,1.1,0.7c0.6-0.1,1.2-0.3,1.8-0.6c1.1-0.5,2.2-1.1,3.4-1.8c0.7,1.2,0,1.8-0.5,2.6
		c-0.7,0.1-1.5,0.2-2.8,0.3c2.3,1.8,4.2,3.2,6.5,3.9c1.3-0.8-0.4-1.3-0.4-1.3c1.2-2.5,2-4.3,3.1-6.5c1-0.8,3-1,3.8-3.2
		c-1.4,0.3-2.7,0.7-4,0.9c-1.4,0.3-2.8,0.3-4.1,0.7s-2.5,1.3-3.7,1.9C370.3,64.9,369.1,65.6,367.4,66.5z"/>
	<path d="M298.7,58.5c-0.1,0.3-0.4,0.7-0.3,0.9c1.2,2,2.3,4,3.6,5.9c2.8,3.8,6,7.3,8.5,11.4c1,1.6,2.3,3.1,3.5,4.6
		c0.3,0.3,0.7,0.5,1.5,1c-0.1-0.8-0.1-1.2-0.2-1.4c-1.6-2.4-3.3-4.9-5-7.3c-0.6-1-1.3-1.9-1.8-3c-0.9-1.7-1.6-3.5-3.6-4.3
		c-0.7-0.3-1.2-1.3-1.7-2c-1.3-1.9-2.6-3.8-4-5.6C299.2,58.6,299,58.6,298.7,58.5z"/>
	<path d="M348.3,107.5c0.5-1.1,0.2-1.4-0.3-1.7c-1.3-0.6-2.5-1.2-3.8-1.8c-6.5-3-10.2-7.9-10.3-15.2c0-0.1-0.2-0.1-0.4-0.3
		c-0.2,0.2-0.6,0.4-0.6,0.7c-0.8,5.1,0.8,9.4,4.5,12.8c1.2,1.1,2.6,2,4.1,2.9c1.1,0.6,2.3,1.1,3.5,1.6
		C346,106.8,347.1,107.1,348.3,107.5z"/>
	<path d="M349.8,42.2c-0.6-0.1-1.1-0.2-1.7-0.2c0,0.1,0,0.2,0,0.3s-0.1,0.1-0.1,0.1c0.1-0.1,0.2-0.2,0.3-0.3
		c0.2-0.5,0.5-1.1,0.7-1.5c-0.8-0.6-1.2-0.1-1.5,0.2c-1.9,1.6-3.9,1.7-6.1,1c-2-0.6-3.9-1.1-5.9-1.7c-0.4-0.1-0.7-0.1-1.2-0.1
		c0.4,1.3,1.6,1.3,2.5,1.8c1.1,0.6,2.3,1,3.5,1.5c1,0.4,2.1,0.9,3.1,1.4c-1,1-1.9,1.9-2.9,2.8l-0.1-0.1c0.4,0,0.8,0.2,1.1,0.1
		c2.3-1,4.6-2.1,6.9-3.2C349.5,43.8,349.6,43,349.8,42.2L349.8,42.2z"/>
	<path d="M374.9,30.3c-0.1-1.4-1-2-1.9-2.4c-3.4-1.6-6.9-2.6-11-2.7c0.7,1.5,2,2.1,2.8,3.1c0.9,1.1,1.8,2.1,2.7,3.1
		c0.8-0.4,0.8-0.9,0.5-1.3c-0.5-0.7-1-1.4-1.6-2.2c1.2-0.5,1.7,0.5,2.4,1C370.9,30.4,371.2,31,374.9,30.3z"/>
	<path d="M309.8,27.4c2.2,0,3.7-1.1,5.4-1.5c1.7-0.5,3.4-1,5.2-1.4c1.6-0.4,3.3-0.6,4.9-0.9c1.7-0.3,3.5-0.7,5.7-1.1
		c-4.4-0.9-12,0.2-17.4,2.4C312.3,25.3,310.7,25.5,309.8,27.4z"/>
	<path d="M341.9,24.9c1.6,1,16.1,7.9,18.3,8.7c0.2,0.1,0.5-0.1,1-0.3c-0.6-0.6-1.1-1.1-1.6-1.5C355.7,29.4,346.2,25.7,341.9,24.9z"
		/>
	<path d="M370.3,54.9c2,0.6,3.8,0.6,5.6,0.5c2.8-0.2,5.6-0.5,8.4,0.2c0.6,0.2,0.9-0.3,1-1c-2.2-1.4-4.6-2-7.2-1.8
		c-2.4,0.2-4.8,0.8-7.1,1.3C370.7,54.1,370.6,54.4,370.3,54.9z"/>
	<path d="M341.4,29.6c0.1,1.5,2,1.5,2.6,3c-1.1-0.1-2.1-0.2-3.6-0.3c2.7,2.1,5.3,2.9,7.8,3.3c1.4-0.6,2.5-1.1,3.9-1.7
		C348.2,33.1,344.8,31.3,341.4,29.6L341.4,29.6z"/>
	<path d="M298.9,66.7c0.1,0.7,0.1,1.6,0.4,2.2c1.8,3.1,3.7,6.2,5.6,9.2c0.6,0.9,1.6,1.6,2.5,2.3c0.2,0.2,0.7,0,1.4,0
		c-1.2-1.3-2.3-2.3-3.2-3.5c-1.6-2.3-3.1-4.7-4.7-7C300.4,68.8,300.1,67.5,298.9,66.7L298.9,66.7z"/>
	<path d="M341.1,54c-1.7,1.1-3.4,2-5,3s-3.6,0.9-5.6,2.4c4.8,0.4,8.2-1.2,11.1-4.1C342,55,341.9,54.5,341.1,54z"/>
	<path d="M332.1,62.1c0.2,0.3,0.3,0.8,0.6,0.9c3,1.4,6.9,0.7,9.3-1.6c0.3-0.3,0.4-0.7,0.5-1c0-0.1-0.1-0.2-0.1-0.4
		c-1.2-0.5-2,0.8-3.1,1c-1.3,0.3-2.5,0.7-3.7,0.9C334.3,62,333.2,62.1,332.1,62.1L332.1,62.1z"/>
	<path d="M309.8,80c1.3,3,2.4,6.2,4.9,8.6c0.6,0.6,0.8,1.7,1.3,2.6c1-0.7,0.9-1.5,0.5-2.2c-2-3.1-4-6.2-6.1-9.3
		c-0.1-0.1-0.2-0.2-0.3-0.1C309.9,79.7,309.9,79.8,309.8,80z"/>
	<path d="M357.5,26.4c1.1,0.6,2.2,1.3,3.2,1.9c1,0.7,2,1.4,3.2,2.3C363.3,28.1,361.9,27.1,357.5,26.4z"/>
	<path d="M351.4,35.8c-2.4,1.1-4.2,1.6-5.9,2.9C349,38.5,349.9,38.1,351.4,35.8z"/>
	<path d="M287.3,30c-2.9-0.3-4.4,0.9-6,2.2c0.5,0.1,0.8,0.3,1,0.2C283.8,31.7,285.2,31,287.3,30z"/>
	<path d="M332.1,43.5c1.6,1.9,3.8,2.1,6,2.1C336.1,44.7,334.2,43.7,332.1,43.5L332.1,43.5z"/>
	<path d="M310.8,31c-4.2-0.7-4.7-0.6-6.7,0.5c0.1,0.1,0.2,0.2,0.3,0.2C306.4,31.4,308.4,31.2,310.8,31z"/>
	<path d="M336.8,118.5c0.4-1.2,0.3-2.4-0.5-3.9C335.4,116.3,335.7,117.5,336.8,118.5z"/>
	<path d="M332,102.6c-0.5,1.1,0,1.6,0.8,2.5C332.5,104,332.3,103.4,332,102.6z"/>
	<path d="M318.9,59c-0.6-0.9-1.5-0.7-2.4-0.6l0.1-0.1C317.3,58.5,318.2,58.7,318.9,59L318.9,59z"/>
	<path d="M298.8,66.8c-0.1-0.3-0.3-0.6-0.4-0.9c0,0.1-0.1,0.3-0.1,0.3C298.5,66.4,298.7,66.6,298.8,66.8L298.8,66.8z"/>
	<path d="M332.1,43.6c-0.3-0.2-0.5-0.3-0.2-0.1C331.6,43.5,331.9,43.5,332.1,43.6L332.1,43.6z"/>
	<path d="M350.5,41.2c0.7,0.1,1.3,0.2,1.5-0.7l0.1,0.1C351.4,40.5,350.9,40.6,350.5,41.2L350.5,41.2z"/>
	<path d="M341.4,29.7c-0.2-0.1-0.5-0.2-0.3-0.1C340.9,29.5,341.1,29.6,341.4,29.7L341.4,29.7z"/>
	<path d="M332,62.2c0-0.1-0.1-0.2-0.1-0.3C331.9,61.9,332,62,332,62.2L332,62.2z"/>
	<path d="M319,58.9c0,0.1,0,0.2,0.1,0.3C319,59.1,318.9,59.1,319,58.9L319,58.9z"/>
	<path d="M352,40.5c0.1,0,0.2-0.1,0.4-0.1C352.3,40.5,352.2,40.5,352,40.5L352,40.5z"/>
	<path d="M350.6,41.3c-0.2,0.3-0.5,0.6-0.7,0.9l-0.1-0.1C350,41.8,350.2,41.5,350.6,41.3L350.6,41.3z"/>
	<polygon points="286.4,50.5 286.7,50.4 286.5,50.6 	"/>
	<path d="M340.5,47.5c-0.1,0.1-0.2,0.2-0.3,0.3c0.1,0,0.2-0.1,0.2-0.1C340.5,47.6,340.4,47.5,340.5,47.5L340.5,47.5z"/>
	<path d="M247.7,257.9c0.4-0.2,0.6-0.2,0.6-0.3c0.9-2.7,1.7-5.3,2.6-7.9c-0.7-0.8-1.1-0.3-1.4,0.1c-1.3,2.2-2.2,4.6-2.2,7.2
		C247.3,257.3,247.5,257.5,247.7,257.9z"/>
	<path d="M222.3,244.6c1.2-2.7,2.7-4.9,3.3-7.7c-2,1-2.6,1.6-3.7,4.6C221.6,242.4,220.8,243.4,222.3,244.6z"/>
	<path d="M268.7,178.4c-0.9-1.4-2.2-1.7-3.4-2c-0.7,0.7-0.6,1.2,0,1.7C266.3,178.8,267.4,178.7,268.7,178.4z"/>
	<path d="M229.9,230.5c-0.3,0.4-0.6,0.7-0.7,1c-0.1,0.2,0.2,0.6,0.2,0.8c0.2-0.2,0.6-0.4,0.7-0.7C230.2,231.3,230,230.9,229.9,230.5
		z"/>
	<path d="M234.6,225.9c0.2,0.1,0.3,0.2,0.5,0.4c0.1-0.2,0.2-0.4,0.3-0.5c0-0.1-0.1-0.2-0.2-0.3C235,225.5,234.8,225.7,234.6,225.9z"
		/>
	<path d="M254.6,240.5c0.2,0,0.4,0.1,0.6,0.1c0,0,0.2-0.3,0.1-0.3c-0.1-0.1-0.3-0.2-0.5-0.4C254.8,240.1,254.7,240.3,254.6,240.5z"
		/>
	<path d="M271.7,179.6c0.2,0.1,0.3,0.3,0.5,0.3c0.1,0,0.2-0.2,0.3-0.3c-0.1-0.1-0.2-0.2-0.2-0.2C272,179.4,271.9,179.5,271.7,179.6z
		"/>
	<path d="M259,231.1c0.1,0.1,0.1,0.2,0.2,0.3c0-0.1,0.1-0.2,0.1-0.3s-0.1-0.2-0.2-0.3C259.1,230.9,259,231,259,231.1z"/>
	<path d="M182.4,532.2c0.8,0.1,1.4,0.2,2.1,0.2c2.4,0,4.8,0,7.9,0c-1-0.6-1.3-0.8-1.7-1c-2.5-0.8-5-0.6-7.6-0.3
		C182.9,531.3,182.7,531.8,182.4,532.2z"/>
	<path d="M209.7,533.4c-1.7-1.2-2.7-1.1-4-0.5C206.9,534.1,207.9,533.9,209.7,533.4z"/>
	<path d="M199.8,533.2c0.7,0,1.4,0,2.1,0C201.3,531.9,200.5,532.9,199.8,533.2z"/>
	<path d="M263.4,135.1c0.2,0.5,0.8,0.3,1.2,0.4c3.8,0.7,7.1,2.8,10.5,4.4c4.2,2,6.7,5.4,7.5,10c0.2,1,0.2,2-0.3,3
		c-0.6,1.5-1.1,3.1-1.6,4.7c-0.1,0.4-0.1,0.9-0.2,1.5c0.5-0.1,0.8-0.1,0.9-0.2c2.4-2.5,3.1-5.6,2.5-8.9c-0.5-2.5-1.4-4.9-3-7
		c-0.5-0.6-1-1.2-1.3-1.9c-1-2.5-3.1-3.8-5.3-4.7C270.9,134.7,267.3,133.5,263.4,135.1z"/>
	<path d="M272.6,146.6c-0.7-4-3.5-6-7-7c-2.4-0.7-5.1-0.2-7.5,0.6c-0.3,0.1-0.4,0.6-0.7,1.1c0.7,0.2,1.3,0.4,1.9,0.4
		c1.7,0,3.3,0,5-0.1c3.1-0.1,5.4,1.1,7.2,3.6C271.9,145.6,272.3,146.1,272.6,146.6z"/>
	<path d="M274.4,149.4c1.3,5.9,0.8,5.1-0.1,7.8c0.6,1,1.3,0.7,1.8,0.1c0.5-0.7,0.8-1.6,0.8-2.5C276.9,152.8,276.5,150.9,274.4,149.4
		z"/>
	<path d="M259.5,171.1c1.7-1.8,1.7-3,1.2-4.6C259.2,167.6,259.4,169,259.5,171.1z"/>
	<path d="M258.8,155.7c0.1,1,0.7,1.7,1.6,1.8c0.2,0,0.5-0.2,0.6-0.3c0.3-0.8-0.1-1.6-1.1-2.1c-0.2-0.1-0.5-0.1-0.7,0
		S258.9,155.5,258.8,155.7z"/>
	<path d="M252.5,152.3c2,1.3,2,1.3,3.7,1.4c0.4-0.6-0.1-1-0.4-1.2C254.8,152,253.8,152.1,252.5,152.3z"/>
	<path d="M261.4,160.1c-1.2,0.9-0.9,1.7-0.6,2.5c0.1,0.2,0.4,0.4,0.6,0.4c0.2,0,0.5-0.2,0.5-0.3
		C262.3,161.8,262.2,160.9,261.4,160.1z"/>
	<path d="M258.9,136.6c0,0.1,0.1,0.1,0.1,0.2c0.1-0.1,0.2-0.2,0.3-0.2c-0.1-0.1-0.2-0.2-0.2-0.2C259.1,136.3,259,136.5,258.9,136.6z
		"/>
	<path d="M630.6,523c-0.1,1.3-0.3,2.6-0.4,4c-0.2,0.2-0.4,0.5-0.6,0.4c-2.7-0.2-4.9,0.8-7.3,2c-3.2,1.6-6,3.9-9.6,4.8
		c-0.7,0.2-1.4,0.8-1.8,1.4c-2.9,5.2-3.5,10.7-1.2,16.3c0.1,0.2,0.4,0.3,0.8,0.5c0.3-0.4,0.7-0.7,0.8-1.1c0.3-1.6,0.6-3.3,0.8-4.9
		c0.1-1.3,0-2.6,0.1-3.8c0.3-3.4,1.5-6,5.1-7.3c2.5-0.9,4.7-2.5,7-3.9c1.9-1.1,3.7-1.5,5.8-0.8c1.7,0.6,2.5-0.1,2.5-1.7
		c0-1.5-0.1-3.1-0.4-4.6C632.4,523.4,631.9,522.7,630.6,523z"/>
	<path d="M782.7,559.9c1.4,0.6,2.3,0,3.5-1c-0.7-0.3-1.1-0.7-1.4-0.7C783.9,558.3,782.9,558.5,782.7,559.9z"/>
	<path d="M742.7,543.7c1.2,1,2.1,1.7,3,2.4c0.6-0.5,0.2-0.9-0.1-1.3C744.9,544.1,744.3,543.2,742.7,543.7z"/>
	<path d="M789.4,558.8c1.2-0.3,1.9-0.4,2.3-0.6c0.9-0.5,0.8-0.6,1.5-2.6c-0.9,0-1.1,0.9-1.6,1.3S790.5,557.8,789.4,558.8z"/>
	<path d="M774.5,559.3c0.8-0.3,1.5-0.6,2.3-0.9c-0.9-1.3-1.2-1.5-2-1.1C774.2,557.6,774.2,557.9,774.5,559.3z"/>
	<path d="M753.1,550.3c0.3,0.4,0.4,0.7,0.6,0.9c0.2-0.2,0.5-0.4,0.7-0.7c0.1-0.1-0.2-0.5-0.4-0.5
		C753.8,549.9,753.5,550.1,753.1,550.3z"/>
	<path d="M736.2,539.5c0.2,0.2,0.4,0.4,0.7,0.6c0,0,0.2-0.2,0.4-0.4c-0.3-0.1-0.6-0.2-0.9-0.4L736.2,539.5z"/>
	<path d="M616,406.7c-0.6,2.6-0.1,5.1,1.3,7.4c1.1,1.7,2,3.6,3.3,5.2c8.2,10.3,17,19.9,28,27.3c3.2,2.2,6.5,4.1,10.1,5.6
		c0.9,0.4,2,1,2.9,0.9c2.3-0.4,4.2,0.6,6.2,1.5c0.4,0.2,0.9,0.3,1.3,0.4c0.3-1.1-0.3-1.5-0.8-1.7c-1.7-0.9-3.4-1.8-5.2-2.5
		c-3.2-1.3-6.2-3.1-9.1-5c-12.1-7.7-21.8-17.9-31-28.6c-2.3-2.6-3.9-5.7-4.8-9.1c-0.4-1.3-1.2-1.5-2.4-1.3L616,406.7z"/>
	<path d="M649.7,454.5c-4.9,0-9.7,0.7-14.5,1.7c-4.6,1-9.3,1.9-13.9,3.1c-3.2,0.8-6.5,1.5-9.7,2.3c-2,0.5-4.1,0.1-6.3-0.8
		c4.4-1.1,8.9-0.8,12.9-2.9c-0.2-1.7-0.8-3.3-1.8-4.8c-0.9-0.1-1.8-0.1-2.7-0.1c-0.9,0-1.8,0-2.7,0.2c-1,0.2-2,0.5-3,0.9
		c-0.8,0.3-1.6,0.7-2.5,1c-0.8,0.2-1.4,1.1-2.7,0.5c1.4-0.8,2.4-1.4,3.5-2.1c3.5-2,7.5-2.9,11.4-3.4c5.7-0.7,11.5-1,17.3-0.8
		c5.6,0.2,10.9,1.8,16,3.9c0.2,0.1,0.3,0.4,0.7,1C651,454.3,650.4,454.5,649.7,454.5z M620.3,457.6c6.6-1.4,13-2.7,19.7-4
		c-3.6-0.8-17.4-0.9-20.9-0.1C619.4,454.8,619.8,456.1,620.3,457.6z"/>
	<path d="M706.6,400.2c-0.5,0.2-1.2,0.4-1.6,0.7c-2.3,1.8-5,3-7.2,5c-1.7,1.6-4.2,2.5-6.3,3.7c-1.9,1.1-3.7,2.2-5.6,3.4
		c-0.5,0.3-0.9,0.8-1.5,1.4c0.6,0.2,0.9,0.5,1.2,0.4c6.4-1.7,12.1-4.9,17.4-8.9c1.9-1.4,2.4-3.8,4.4-5.2
		C707,400.7,706.8,400.4,706.6,400.2z"/>
	<path d="M626.5,427.6c-0.5,0.1-1.1,0-1.3,0.2c-3.4,3.3-6.7,6.7-7.9,11.5c-0.1,0.3,0,0.7,0.1,1.1c0.3,0,0.7,0,0.8-0.1
		c2.9-3.9,5.7-7.8,8.6-11.8C626.7,428.4,626.5,428.1,626.5,427.6z"/>
	<path d="M635.8,447.8c-0.2-0.3-0.4-0.7-0.7-0.8c-1.9-0.5-3.7-1-5.6-1.3c-4.8-0.7-9.6-1.2-14.5-1.7c-1-0.1-2-0.1-3.1,0.9
		c0.5,0.1,0.7,0.3,1,0.3c6.4,0,12.7,1.2,19,2.1C633.4,447.5,634.7,447.6,635.8,447.8L635.8,447.8z"/>
	<path d="M642.7,389.3c-2.9,2.1-5.8,4.1-8.7,6.2c-0.3,0.2-0.4,0.6-0.7,0.9c1.4,0.7,2.2-0.4,3.1-0.9
		C641.1,392.6,641.9,392,642.7,389.3z"/>
	<path d="M622.9,462.3c0.8-0.1,1.6,0,2.3-0.2c5-1.5,10.1-2.8,15.3-3.1c0.3,0,0.6-0.3,1.3-0.6c-1.3-0.5-2.2-0.1-3.1,0
		c-0.9,0-1.8,0-2.7,0.2c-4.1,1-8.2,2-12.2,3.1C623.4,461.7,623.2,462.1,622.9,462.3L622.9,462.3z"/>
	<path d="M672.6,431c2-1.8,5.6-6.7,7.2-9.6c-0.4,0-0.8-0.2-1-0.1c-2.6,2.6-4.7,5.6-6.3,8.9C672.4,430.5,672.5,430.8,672.6,431z"/>
	<path d="M691.7,380c0.6-2.2,0.5-3.8,0.1-5.3c-0.1-0.3-0.6-0.7-0.8-0.7c-0.4,0.1-1,0.5-1.1,0.8C689.5,376.7,690,378.2,691.7,380z"/>
	<path d="M672.6,432.3c-1.2,2.2-2.2,4.6-3.3,6.9c2.2-1.1,3.2-2.5,4-5.2C673.4,433.4,673.8,432.8,672.6,432.3z"/>
	<path d="M677.3,381.4c-0.5,2.5,0.2,4.3,2.5,5.6c-0.1-1.9-1-3.5-1.6-5C678.2,381.7,677.7,381.6,677.3,381.4z"/>
	<path d="M624.9,469.3c0.3-1.5,0.6-3.2-0.9-4.7C623.2,466.6,624.1,467.9,624.9,469.3z"/>
	<path d="M656.1,377.5c-1.3,0.6-2,1.5-2.6,2.7C655.3,379.6,655.4,379.5,656.1,377.5z"/>
	<path d="M619.1,463.9c1.4-0.1,2.8-0.5,3.8-1.6l0.1,0.1C621.4,462.2,620.1,462.6,619.1,463.9L619.1,463.9z"/>
	<path d="M609,456.8c1,0,2.1,0,3.1,0c0-0.1,0-0.2,0-0.3c-1,0-2.1,0-3.1,0C609,456.6,609,456.7,609,456.8z"/>
	<path d="M695.3,388.3c0.3-1.2-0.1-2.1-1.3-3C693.8,386.9,694.4,387.6,695.3,388.3L695.3,388.3z"/>
	<path d="M685.1,393c-0.5-0.6-0.9-1.1-1.6-1.9C683.6,392.9,683.6,392.9,685.1,393z"/>
	<path d="M695.4,388.3c0.3,0.6,0.6,1.3,1.3,2.7C696.7,389.1,696.4,388.4,695.4,388.3L695.4,388.3z"/>
	<path d="M619.2,464c-0.3,0-0.6,0.1-0.3,0C618.6,464.2,618.8,464,619.2,464L619.2,464z"/>
	<path d="M635.9,447.7c0.3,0.1,0.6,0.2,0.2,0.1C636.5,447.8,636.2,447.8,635.9,447.7L635.9,447.7z"/>
	<path d="M651.3,382c0.1-0.1,0.3-0.1,0.4-0.2c-0.1,0-0.2,0-0.2,0C651.5,381.9,651.5,382,651.3,382L651.3,382z"/>
	<path d="M650.5,382.8c0.6,0.1,0.8-0.2,0.8-0.7l0.1,0.1c-0.3,0.2-0.5,0.5-0.8,0.7L650.5,382.8z"/>
	<path d="M650.6,382.8c-0.1,0.1-0.2,0.3-0.2,0.4c0.1-0.1,0.2-0.1,0.2-0.2s0-0.2-0.1-0.3L650.6,382.8z"/>
	<polygon points="627.7,475.8 628,475.9 627.9,475.7 	"/>
	<path d="M717.2,349.8c0.2,0.5,0.2,0.7,0.3,0.8c3.4,2,6.9,3.4,10.9,2.8c2.5-0.4,5-1,7.6-0.5c0.6,0.1,1.3-0.2,1.9-0.4
		c3.9-1.5,7.3-3.7,10.2-6.8c0.8-0.8,1.3-1.9,1.8-2.9c0.2-0.3,0-0.9,0-1.4c-1.7,1.7-3,3.4-4.7,4.8c-4.4,3.5-9.4,5.1-15,5.2
		c-3.5,0.1-6.9-0.6-10.3-1.1C719.1,350.1,718.4,350,717.2,349.8z"/>
	<path d="M692.9,271.5c0.1,0.9,0.2,1.4,0.3,1.9c1,3.2,1.6,6.4,0.9,9.8c-0.2,1.1-0.3,2.3,0.9,3.1c1.1-0.6,1.7-1.5,2-2.7
		c0.9-3.5,0.4-6.8-1.1-10C695.4,272.4,695,272.2,692.9,271.5z"/>
	<path d="M696.9,291.6c-0.4,4.1,1.1,6.8,3.1,10c0.9-2,0.9-3.5,0.4-4.9C699.8,294.9,699.3,293,696.9,291.6z"/>
	<path d="M719.9,260.8c-0.9,2.1-1.4,3.9-1.2,5.8c0.3,0,0.6,0.1,0.7,0c1.1-1.3,1.7-2.8,1.5-4.5C720.8,261.7,720.3,261.4,719.9,260.8z
		"/>
	<path d="M670.9,333.8c-1.3,2.1-2,3.5-2.6,5.1C670.8,338.1,671.3,337.3,670.9,333.8z"/>
	<path d="M703.4,303.1c-1.2,1.8-1.2,1.8-0.8,4.5c1.3-0.3,1.3-1.4,1.6-2.3c0.1-0.4,0.1-1,0-1.4C704.1,303.5,703.7,303.3,703.4,303.1z
		"/>
	<path d="M717.6,344.9c-1.5-1.7-3.2-1.8-5.3-1.9c1.1,1.6,2.3,2,3.7,2.3C716.3,345.3,716.8,345.1,717.6,344.9z"/>
	<path d="M666.1,347.4c1,0.2,1.3-0.3,1.5-0.9c0.3-1,0.3-1.9-0.9-2.7C666,345,665.9,346.2,666.1,347.4z"/>
	<path d="M710.4,340.9c0.4-1.5,0-2.4-1.3-2.3c-0.2,0-0.7,0.6-0.6,0.8C708.9,340.1,709.3,341,710.4,340.9z"/>
	<path d="M713.5,273.8c1-0.8,1.6-1.6,1-2.9c0-0.1-0.2-0.2-0.3-0.1C712.9,271.5,713.1,272.6,713.5,273.8z"/>
	<path d="M696,291.2c0.1-1.2,0.2-1.6,0.2-2.1s-0.2-0.9-0.4-1.7C695,288.6,695.3,289.5,696,291.2z"/>
	<path d="M616.2,324.6c2.5-2.4,3.9-5.1,5.7-7.4c-0.6-0.8-1.3-0.5-1.6,0c-1.4,1.8-2.7,3.6-4,5.5C616,323,616.2,323.6,616.2,324.6z"/>
	<path d="M601.9,297.5c-2.3-0.3-3.3,1.3-4.5,2.5c-0.7,0.7-1.6,1.4-1.5,2.6c0,0.2,0.3,0.4,0.5,0.8c1.4-1.5,2.9-2.9,4.3-4.4
		C601.1,298.5,601.5,298,601.9,297.5z"/>
	<path d="M661.1,255.3c-1.6-2.6-1.6-2.6-3.3-2.3C658.2,254.8,659.7,255,661.1,255.3z"/>
	<path d="M607.7,292.5c-0.3,0.4-0.7,0.8-1.1,1.2c1.3,0.7,1.1-0.4,1.6-0.6C608.1,292.9,607.9,292.7,607.7,292.5z"/>
	<path d="M614.5,289.3c-0.2,0.1-0.5,0.2-0.6,0.4c-0.1,0.1,0.1,0.4,0.2,0.5c0.2-0.1,0.5-0.2,0.6-0.3
		C614.8,289.7,614.6,289.5,614.5,289.3z"/>
	<path d="M628.4,309.7c0.1,0.1,0.2,0.2,0.4,0.4c0.1-0.2,0.2-0.4,0.2-0.6c0-0.1-0.1-0.2-0.2-0.3C628.6,309.4,628.5,309.6,628.4,309.7
		z"/>
	<path d="M663.9,257.6c0.2,0.1,0.4,0.2,0.6,0.2c0.1,0,0.1-0.2,0.2-0.3c-0.2-0.1-0.4-0.2-0.7-0.2C664,257.3,663.9,257.5,663.9,257.6z
		"/>
	<polygon points="635.6,302.1 635.5,302.4 635.7,302.4 	"/>
	<path d="M684.6,235.6c0.1-1.1-0.3-2.3,0.8-3.1c-0.6-3.3-1.1-6.6-1.7-9.8c-0.2-1.3-0.8-2.4-1.6-3.4c-1.6-2.2-3.9-3.8-6.1-5.3
		c-1.7-1.1-3.6-1.6-6-1.4c1.5,1,2.7,1.7,3.8,2.5c0.8,0.6,1.6,1.3,2.3,2c1,1,1.8,2.1,2.9,3c4,3.4,5.3,7.7,4.8,12.7
		c-0.1,1.1-0.7,1.9-1.3,2.7c-1.3,1.6-2.5,3.2-3.7,4.9c0.7,0.7,1.3,0.4,1.8,0c1.3-0.9,2.3-2.1,3-3.4
		C683.8,236.5,683.8,235.8,684.6,235.6z"/>
	<path d="M662.7,216.9c0.5,0.3,1,0.6,1.6,0.8c1.6,0.5,3.2,1,4.8,1.4c3,0.8,4.8,2.8,5.6,5.7c0.1,0.5,0.3,1,0.5,1.4
		c0,0.1,0.2,0.1,0.6,0.3c0.1-0.5,0.2-1,0.2-1.4c-0.4-2.6-2-4.7-3.6-6.6c-0.3-0.4-0.8-0.7-1.2-0.9c-2.3-0.7-4.6-1.4-7-2
		C663.4,215.5,662.8,215.9,662.7,216.9z"/>
	<path d="M675.8,229.7c-0.3,4.5-0.3,4.5-2.6,8c0.7,0,1.4,0.3,1.8,0c1.2-0.6,1.7-1.8,1.9-3.1C677.1,233.1,677.2,231.6,675.8,229.7z"
		/>
	<path d="M660.5,233.3c0.8-2.1,0.8-2.1-1-3C659.1,231.8,659.1,231.8,660.5,233.3z"/>
	<path d="M657.3,228.3c0.3-1.9,0.3-1.9-3-2.8C655.3,227,655.3,227,657.3,228.3z"/>
	<path d="M657.4,241.5c-1.5,0.9-2.1,1.9-2.2,3c0.3,0.8,0.8,0.6,1.1,0.2C657,243.9,657.5,243.1,657.4,241.5z"/>
	<path d="M659.6,235.6c-0.3,1-0.6,1.8-0.8,2.5c0.6,0.8,1.2,0.7,1.5,0c0.2-0.5,0.3-1.2,0.3-1.8C660.5,236,660,235.9,659.6,235.6z"/>
	<path d="M665.2,212.8c0.2,0.1,0.4,0.2,0.6,0.3c0,0,0.1-0.2,0.2-0.3c-0.2-0.1-0.4-0.2-0.6-0.3C665.3,212.6,665.2,212.7,665.2,212.8z
		"/>
</g>
</svg>
