<?xml version="1.0" encoding="utf-8"?>
<!-- Generator: Adobe Illustrator 19.1.0, SVG Export Plug-In . SVG Version: 6.00 Build 0)  -->
<svg version="1.2" baseProfile="tiny" id="Layer_2" xmlns="http://www.w3.org/2000/svg" xmlns:xlink="http://www.w3.org/1999/xlink"
	 x="0px" y="0px" width="900px" height="600px" viewBox="144 97 900 600" xml:space="preserve">
<g>
	<path d="M846,120.8c0.2-1.8,2.4-1.4,3-2.7c-0.7-1.3-1.9-1.1-3.1-0.9c-2.7,0.5-5.3,1-8,1.4c-2.1,0.4-4,1.1-6.3,0.7
		c-1.6-0.3-3.1,1.1-4.9,1.9c-1.3-0.5-2.9-0.9-4.1,0.7c-0.8-0.6-1.2-1.2-1.3-1.9c2.7-0.2,4.3-2.7,7-3.2c-0.6-0.3-1-0.6-1.4-0.8
		c0.8-0.7,1.8-0.9,2.7-1.2c0.9-0.2,1.7-0.6,3-1.1c-6-0.4-8.9,0.5-10.9,3.2c1.2,0.3,2-1.3,3.4-0.8c-1.1,1.6-3.6,1.7-3.8,3.9
		c-1.2,0.9-2.5,0.4-3.9,0.5c-0.2-1.3,1.8-1.5,1.4-3.2c-0.9,0.3-1.4,1.1-2,1.7c-0.6,0.7-1.1,1.5-1.8,2.3c-0.3-0.5-0.5-0.9-0.8-1.5
		c-4.6,4.2-5.6,10.3-8.2,15.7c2.2,0.5,4.6,0.3,6.8,1.7c-1.4,1.3-2.6,0.7-3.7,0.3c-1.2-0.4-2.3-0.6-3.5,0c-0.3,1.3,0.6,2.3,0.5,3.3
		c1.5,0.7,3.1,0.2,4.4,1.1c0.5,0.3,1,0.6,1.9,1.2c-1.6,0.7-1.9,2.3-3.2,3c-1.9,0.1-2.1-1.7-2.9-2.8c-2.9,7-3.5,14-1.1,21.1
		c0.8,2.5,1.4,5.1,2,7.7c0.8,3.5,2.1,6.5,6.4,6.5c0.6,0,1.2,0.1,1.5,0.8c-2.1,0.9-4-0.4-5.9-0.7c-1.7-1.6-2.4-3.6-2.9-5.7
		c-0.8-3.4-1.7-6.7-2.8-10c-1.7-5.1-1.3-10.2,0.2-15.2c0.8-2.8,1.5-5.6,0.7-8.5c-0.5-2.1,0.5-3.8,0.9-5.6c1.3-5.3,3.4-10.2,6.6-14.7
		c1.2-1.6,2.6-2.7,4.4-3.6c8.1-3.9,16.6-4.6,25.5-3c1.3-0.6,2.6-1.3,4-1.9c4.1-1.8,7.8-0.6,11.2,1.6c2,1.3,3.2,3.3,3.3,5.7
		c0.2,3.8,0.8,7.6,0,11.5c-1,4.8-1.1,9.8-0.3,14.7c0.5,3.2,0.6,6.4,0.9,9.6c0.1,1.9-0.2,3.7-0.8,5.6c-0.8,2.6-0.8,5.4-1.2,8.2
		c-0.6,4.1-1.5,8-3,11.8c-0.2,0.5-0.4,0.9-0.8,1.1c-0.5,0-0.4-0.5-0.6-0.8c1.1-0.9,1.1-2.3,1.4-3.5c1.8-7,2.2-14.2,3-21.4
		c0.4-3.8,0.3-7.5-0.3-11.7c-1.1,1.6-1.9,2.9-2.8,4.3c2.4,3.9,0.2,7-1.8,9.8c-0.3,7.9-2.8,15.1-3.3,22.6c2.9-7.1,3.7-14.7,6-22.7
		c0.6,5.9-1.8,10.5-2.7,15.7c1.8-0.3,1.1,0.9,1.1,1.7c-0.1,1.8-0.7,3.5-0.5,5.4c-1,2.4-1.3,5.1-2.9,7.1c1.6,3.6,4,6.1,7.4,8.2
		c7.1,4.3,14.5,7.9,22.1,11.3c1.6,0.7,3.2,0.8,4.9,0.7c16.3-1.4,32.6-2.8,48.9-4.3c5.6-0.5,11.3-1.1,16.9-1.5c0.9-0.1,1.9,0,2.8-0.6
		c0.5-1.3,0.2-2.6,0.2-3.9c-0.1-6.2,0.1-12.3,1.5-18.3c0.6-2.7,1.4-5.4,2.9-7.7c1.2-1.9,2.8-3.2,5.2-3.4c2.1-0.2,4.3-0.6,6.4-0.6
		c2.7,0,4.6,1.2,6.2,3.1c1.7,2.1,2.8,4.5,3.8,6.9c2.7,6.7,4.2,13.8,5.4,21.3c9.3-0.4,18.6-1.4,27.9-2.2c9.3-0.8,18.7-1.5,28-2.3
		c2.9,3,1.4,6.1,1.1,9.6c-18.6,1.6-37,3.3-55.5,4.9c-0.5,1.9-0.3,3.6-0.2,5.2c0.1,7-0.1,13.9-1.9,20.8c-2.1,7.9-4.5,9.8-14.2,10.2
		c-2.9,0.1-4.9-1.7-6.5-3.9c-2.7-3.8-4.2-8.1-5.5-12.5c-1.4-4.5-2.5-9-3-13.7c-0.1-0.9-0.4-1.9-0.6-3.2c-19.9,1.5-39.8,3.2-59.7,5.2
		c2.2,7,4.4,13.9,6.6,20.7c0.5,1.5,0.8,3,0.9,4.6c0.1,5.3,0.1,10.5-1.3,15.6c-1.4,4.9-2.1,9.8-1.6,15c0.5,5.5,0.2,11.1-0.7,16.5
		c-1,6.3-3.7,12.1-8.6,16.7c-2.1,2-3.8,4.3-5.6,6.6c-0.8,1-1.6,1.8-2.7,2.4c-3.6,2-5,1.7-7.6-1.6c-1.3-1.7-2.7-3.4-4.1-5
		c-0.1-0.2-0.4-0.2-0.8-0.4c-0.3,4,0.3,7.9,0.9,11.7c0.8,4.9,2.2,9.6,4.1,14.2c0.8,1.9,1.5,3.7,3,5.3c1,1.1,1.5,2.7,2.1,4.2
		c2,5,4.3,10,5.7,15.2c3.1,11.2,6.3,22.6,3.8,34.4c-1.2,5.7-1.4,11.4-2.5,17.1c-0.4,1.7-0.1,3.3-0.2,5c-0.5,12-2.3,23.9-4.3,35.8
		c-0.2,1.4-0.7,2.7,0.3,4.1c0.7,1,0.1,2.4-0.1,3.5c-0.9,5.3-2.2,10.6-2.9,16c-1.1,7.9-2.7,15.7-3.2,23.6c-0.2,3.1,0,6.3,0.2,9.4
		c0.2,2.6,0.1,5.3,0,7.9c-0.3,5.4,0.5,10.8,1.8,16.1c0.8,3.2,0.4,6.5,1.3,9.6c0.1,0.3,0.1,0.7,0.2,1.1c3,7.7,1.5,15.5,0.4,23.3
		c-0.8,5.7-1.3,11.5-1.6,17.2c-0.3,5.8-1.9,11.4-2.9,17.1c-1.7,9.8-5.4,19-7.1,28.7c-0.3,1.8-0.5,3.6-0.3,5.4c0.1,1,1.3,1,1.7,1.6
		c1,6.1,0.9,12.3,3.8,17.9c1.3,2.6,0.7,5.4,1,8.2c0.2,1.8,0.1,3.6,0.5,5.4c0.8,3.6,0.2,7.1-1.4,10.5c-1.7,0.7-3.4,1.1-5.2,0.8
		c-2.7,5.6-5.4,7.3-11.4,6.5c-1.6-0.2-3.1-0.1-4.6,0.1c-3.7,0.4-7.5,0.5-11.1-0.6c-3-0.9-6.2-0.7-9.3-1.2c-2.8-0.5-5.3-1.4-7.2-3.5
		c-0.6-2,0-3.7,0.9-5.3c1.1-2,2.2-4,3.5-5.9c2.6-3.8,4.6-7.9,5.7-12.4c0.4-1.7,1.1-3.5,2.1-5c2-2.9,3.1-6.2,4.8-9.3
		c1.6-2.9,1.9-6.2,2.4-9.2c0.7-1.2,1.8-1.7,2.7-2.3c1.2-16.2-0.1-32.2-2.2-48.2c-0.1-0.6-0.2-1.2-0.4-1.8c-3.3-10-3.7-20.3-3.7-30.7
		c0-5.2,0.6-10.4,2.1-15.3c1-3.3,1.1-6.6,0.6-10c-0.7-4.3-0.9-8.7-2.3-12.8c-2.7-7.7-2.5-15.6-3.3-23.4c-1.5-14.4-3-28.7-4.5-43.1
		c0-0.4,0.1-0.9-0.5-1.2c-0.9,1-0.8,2.2-0.9,3.4c-0.3,3.6-0.9,7.2-1.8,10.7c-2.2,8.4-3.3,17-4.5,25.6c-0.5,3.6-0.4,7.2,0,10.8
		c0.3,2.6,0.4,5.3,0.4,7.9c0,2.3,0,4.5,0.5,6.8c0.3,1.4,0.2,2.9,0.1,4.3c-0.5,5.6-1.1,11.2-1.7,16.8c-0.2,1.9,0.3,3.6,0.9,5.3
		c1.3,3.4,2.3,6.8,3.5,10.2c2.8,7.6,2.5,15.3,1.4,23.1c-0.5,3.9-1.3,7.8-2.7,11.5c-2.2,5.5-2.5,11.5-3.4,17.3
		c-0.5,3.4-1.1,6.8-1.8,10.3c-1.2,6.2-0.5,12.5-0.7,18.7c0,1.1,0.3,2.4-0.5,3.7c-2.2-1.3-3.3-3.2-3-5.7c1.3-10.3,1.5-20.6,3.4-30.8
		c1.4-7.8,2.9-15.6,5-23.3c1-3.5,1.2-7.1,0.4-10.7c-0.9-3.6-0.4-7.5-1.5-11.1c-1.4-4.7-2.4-9.5-3.7-14.3c-0.2-0.7-0.5-1.3-0.8-2.1
		c1-2.2,1.3-4.7,1.3-7.2c0-3.7,1-7.5,0.7-11.1c-0.4-6-0.3-12-0.9-18c-0.7-6.8,0.1-13.4,0.7-20.1c0.7-7.1,2.5-13.9,3.9-20.9
		c1.6-7.4,2.5-15,3.3-22.5c0.3-2.7-0.6-5.2-1.3-8c-2.5-0.3-5-0.5-7.4-0.9c-10.2-1.7-20.6-1.4-30.9-1.7c-3-0.1-6,0.2-8.8,1.1
		c-0.8,1.2-0.4,2.4-0.4,3.6c0.2,6.4,0.2,12.7,0.4,19.1c0.1,6.6,0.3,13.2,1.5,19.8c0.3,1.5,0.5,3,1.6,4.3c1.3,1.5,1.1,3.6,1.5,5.5
		c1.2,5.3,2.2,10.6,3.5,15.8c0.6,2.4,1.1,4.7,1.1,7.1c0.1,7.5,1.2,14.8,2.6,22.2c0.6,3.1,0.5,6.4,0.2,9.6
		c-1.1,9.1-1.8,18.2-0.6,27.4c1.4,10.5,3.3,20.9,5.4,31.3c1.4,6.6,2,13.3,2.6,20c0.4,4.2,0.8,8.4,1.4,12.3c1.4,2.5,4.8,2.8,5.7,4.9
		c1.3,2.8,3.6,3.7,5.6,5.1c1.4,2.7,2.7,5.2,4,7.7c2.3,0.1,3-1.5,3.7-3c-0.4-2.5-0.4-2.5,0.7-4c2.1,3,2.6,6.5,2.7,9.9
		c0.1,2.1,0.3,4,1.2,5.9c1.5,2.9,1.9,6.2,2.4,9.4c0.2,1.3,0.4,2.6,0.7,3.8c-2,3-5,3.9-8.2,4.4c-3.8,0.7-7.6,1.3-11.6,2
		c0.2,3-1.5,4.2-4.2,4.9c-2.3,0.6-4.6,1.4-7,1.7c-0.4,0-0.7,0-1.1,0.2c-7.7,3.6-15.5,1.3-23.3,0.3c-2.4-0.3-4.4-1.7-6.1-4.1
		c1.1-3.1,0.6-6.6,2.2-9.9c0.8-1.7,1.8-3.1,3.3-4.2c2.3-1.6,4.1-3.7,6.3-5.3c4-2.9,6.1-7.1,8.7-10.9c0.8-1.2,1.5-2.5,2.4-3.6
		c2.4-2.7,4.4-5.7,4.2-9.6c-0.1-0.9,0.4-1.6,1.4-2.4c0.8-0.6,2.1,0,3.2-0.6c0.6-0.6,0.4-1.4,0.3-2.1c-0.8-6-1.1-11.9-2-17.9
		c-1.6-10.7-4-21.3-5.2-32c-0.5-4.5-1.6-9-2.1-13.5c-0.9-7.4-0.2-14.9,0.4-22.3c0.5-7,0.7-13.8-0.7-20.8c-1.3-6.1-1.6-12.4-2.4-18.6
		c-0.6-5-2.1-9.9-3.5-14.7c-0.7-2.3-1.4-4.6-1.7-7c-1-8.8-2.2-17.7-3.1-26.5c-0.7-6.7-1.4-13.4-1.8-20.1c-0.3-5.3,0.5-10.4,1-15.7
		c0.6-7.8,2.7-15.4,3.5-23.2c0.7-7.7,3.2-15,4.9-22.5c1.3-5.8,1.8-11.6,3.3-17.4c0.8-3.2,0.2-6.7,0.5-10.1
		c0.6-6.6,0.5-13.2,0.5-20.2c-2.5,2.2-4.9,3.4-8.1,2.4c-3.9-1.2-7.7-2.6-9.5-6.5c-2.4-5.2-5.2-10-8.4-14.7c-1.3-1.9-2.3-4-2.8-6.2
		c-0.2-1-0.6-2.2-0.4-3.2c1.1-7.5-0.7-15.1-0.1-22.6c0.2-2.8-0.9-5.4-1.6-8.1c-1-4.1-1.6-8.2-1.8-12.5c-0.1-4.3-1.9-8.4-3-12.6
		c-0.5-1.8-0.7-3.8-2.1-5.7c-26.1,1.9-52.2,5.1-78.5,6.9c-0.6,1.9-0.3,3.6-0.3,5.2c0.1,6.4,0,12.8-1.4,19c-0.1,0.6-0.2,1.2-0.4,1.8
		c-2.6,8.7-4.3,9.4-13.7,10.4c-2.4,0.3-4.4-0.9-6.1-2.7c-1.4-1.5-2.4-3.3-3.5-5.3c-1.4,0.1-3,0.4-4.2-0.7c-1.4-1.2-1.6-2.9-2-4.5
		c-0.8-3.6,0-7.2,0.5-10.7c0.5-3.3-0.4-6.3-1.1-9.5c-17,1.5-33.8,2.9-50.4,4.3c-3.7-3.1-4-5.8-1.2-9.6c16.7-1.5,33.6-2.9,50.3-4.4
		c0.9-1.2,0.5-2.5,0.5-3.6c-0.1-6.4,0.1-12.8,1.5-19c0.6-2.7,1.4-5.3,2.9-7.7c1.2-2,2.9-3.2,5.2-3.4s4.5-0.3,6.8-0.4
		c2.6,0,4.3,1.2,5.8,3c1.7,2.1,2.8,4.5,3.8,6.9c2.7,6.7,4.2,13.7,5.3,21.3c8.7-0.2,17.2-1.4,25.8-2.1c8.5-0.7,17-1.8,25.5-2.4
		c8.6-0.6,17.2-1.6,25.7-2c3.1-2.6,5.2-5.9,8.4-8.1c2.3-1.6,4.4-1.6,7-0.6c2.1,0.9,4.8,1.6,6.9,0.2c1.7,0.1,2.6,1,3.8,2.1
		c7.8-2.5,16-3.9,23.4-7.9c1.3-0.7,2.5-1.4,3.6-2.4c2.8-2.3,5.5-4.6,8.5-7c0.7-2.9,1.5-5.9,2.3-8.9c0.3-1.1,0.4-2.2,0.1-3.2
		c-0.4-1.5,0.3-2.5,1.3-3.9c1.3,2.6,2.1,5,1.4,7.4c-1.3,4.6-2.3,9.4-6.4,12.5c-0.4,0.3-0.8,0.7-1,1.1c-1.2,4.7-3.9,8.7-5.6,13.8
		c6.7-0.5,13-1,19.7-1.5c-1.9-2.5-4.2-1.7-6.2-1.9s-4,0-5.9-0.7c4.3-0.2,8.4-0.9,12.7,0.8c3.2,1.3,7,1.4,10.6,0.7
		c1.8-3.1,4.5-5.3,8.2-5.9c2-0.4,3.6-2,5.7-1.9c1.4-3.3,1.3-6.8,2.7-9.7c-3.6-4.3-6.3-8.7-6.7-14.2c-0.4-5.3-0.5-10.6,0.6-15.9
		c-0.6-0.9-2.4-0.4-2.7-2.2c2.9,1.1,4.8-0.6,6.4-2.3c1.8-1.8,3.8-3.8,3.5-6.8c1.1-1.9,1-2.3-0.6-4.3c-1.3-0.8-1.3-0.8-2.6,0.7
		c1-0.3,1.9-0.5,2.7-0.8c-0.3,1.6,1,2.9,0.7,4.5c-1.5,0-1.3-1.8-2.2-2.4c-1.7,1.5,1.3,2.2,0.2,3.5c-1.3,0.8-1.4-1.5-2.7-1
		c0.2,0.8,0.4,1.6,0.6,2.6c-1.5,0.8-1.6,2.8-2.9,4.1c-2.2-2.2,0.1-3.2,0.9-4.3c0.5-1.4,0.1-2.7,0.8-3.7c-1.6-1.2-3.4,0.5-5.2-0.5
		c1.5-0.4,1.8-2.2,3.3-2.5c-0.8-1.3-3-0.3-3.7-2.3c2.4,0.4,4.7,0.8,7.3,0.2c-3.1-0.6-6.3-0.5-7.9-3.6c1.9,0.9,3.8,1.7,5.8,2.2
		c2,0.6,4.4-0.1,6.3,1.8c1.1-2.5,2.5-4.6,1.4-7.2c0.3-1,1.7-1.7,0.9-3.1c-1.4,0.2-2.3,1.9-4.1,1.4c1.4-1.8,4.9-1.8,4.3-5.6
		c-1.6,1.9-4.3,1.7-4.8,4.2c-2.6,0.4-5.2-0.3-8.2,0.6c2.6,0.7,4.9,1.2,7.4,1.8c-2.1,1.4-4-0.5-6.1,0.2c2.8,1.6,5.4,1.8,8.1,0.9
		c0.8-0.3,1.6-0.6,2.4-0.5c-0.9,2-3,1.4-4.5,2c-0.8,0.3-1.8,0.1-2.8,0.2c-1.4-0.7-2.8-1.5-4.8-1.4c1.6,1.4,3.2,1.5,4.9,1.3
		c0.6,1,1.7,0.6,2.6,0.7c1,0.2,2.2-0.1,3.6,1.2c-5.6,0-10.3-0.6-14.8-3.5c0.7-1.3,0-2.3-0.9-3.1c0.6-0.9,1.2,0.3,1.8-0.4
		c-0.9-1.3-1.9-2.7-3-4.2c1.6,0.1,2,1.4,3.1,1.8c0.8,0.1,0.3-0.6,0.6-1.2c1.3,0,2.8,1.1,4.4-0.4c-1.5-0.6-3.3-0.5-4.9-2.4
		c4.1,1.3,7.6,2.2,11.6,2.2c-2,1.7-4.7,0.7-6.9,2.3c1.9,0.6,3.4,0.6,4.8,0.6c1.5-1,3-2,4.5-3.1s2.2-2.5,0.9-4.5
		c-3.4,2.9-7.4,0.2-11.2,1.2c1.2,1.6,3.1,1,5,1.6c-4.1,0.8-7.2-1.8-10.8-1.6c4.4-1.7,8.8-0.9,13.7-0.6c0.8-0.3,1.9-0.9,3-2.1
		c-0.4-1.6-1.6-2.8-2.4-4.2c-0.3-0.4-0.7-0.6-1.2-0.2c-0.1-0.3-0.2-0.7-0.3-0.9c-0.8-0.5-1.5,1-2.3,0.1c0.2-0.5,1.1-0.7,1-1.5
		c-0.7-0.7-1.4-0.4-2.2,0C848.2,120.1,847.2,120.9,846,120.8L846,120.8z M850.9,167.6c1.5-2.2,2-4.5,1.8-8.1
		c-0.2,0.1-0.5,0.2-0.6,0.4C851.7,162.5,851.3,165.1,850.9,167.6c-0.7,2.5-1.9,4.8-1,7.4C850.3,172.5,851.4,170.1,850.9,167.6z
		 M977.4,211c0.6-0.2,0.8-0.9,1.6-0.7c0.8,0.1,0.4,1.3,1.4,1.3c0.6-0.8,0.9-1.6,0.4-2.6c-0.9-0.5-2,0.2-2.7-0.7
		c-1.4-3.2-1.6-4.8-1-8.7c0.9-0.7,2.1-0.2,3.1-1.2c-0.5-1.6-0.9-3.3-2.2-4.5c-1-0.4-2-0.4-2.9,0c-2.1,3.6-2,16.5,0.2,16.6
		c1.1-0.1,0.7-1.3,1.2-1.8C977.2,209.4,977.4,210.2,977.4,211c-1.2,1.2-1.9,2.7-2.2,4.3c-0.7,3.4-1.4,6.8-1.9,10.3
		c-0.3,2.2,0.6,3.8,2.5,5c1.5-1.2,1.5-2.7,1.6-4.1C977.7,221.3,977.5,216.2,977.4,211z M980.9,236.3L980.9,236.3
		c0.3-2.3,1.9-4.4,1.4-7.2c-1,1.1-1.9,0-3,0.3c-0.3,0.5-0.5,1.2-0.9,1.8c-1.6,2.4-3.9,2.5-5.6,0.1c-1.2-1.7-2.2-3.5-1.7-5.7
		c1-4.5,1.2-9.1,3-13.2c-1.7-6.6-3-13-0.6-19.2c4.5-1.4,5.5-0.9,6.9,2.7c0.3,0.7,0.5,1.4,0.7,2c0.2,0.7,0.7,0.9,1.7,0.5
		c-1.5-10.2-3.6-20.1-10.6-28.6c2.1,0,3,1.3,4,2.7c3.5,5.4,5.6,11.3,6.5,17.8c0.4,2.7,0.8,5.6,1.8,8.2c1.2-0.4,0.9-1.2,0.8-1.9
		c-0.4-2.4-0.9-4.7-1.4-7.1c-1.4-6.2-3.1-12.3-6.7-17.7c-1.2-1.8-2.5-3.8-5.1-3.4c-2.3,0.3-3.2,2.4-4,4.2c-1.7,3.9-2.4,8.1-2.8,12.2
		c-1,12.9-0.2,25.7,3,38.3c1.3,5,2.8,9.9,5.6,14.4c1.2,1.9,2.5,3.8,4.9,4.3c0.9,0,1.5-0.4,2.1-0.8c2.1-1.7,2.9-4.1,3.6-6.5
		c2.1-8,2.5-16.1,2.2-24.3c0-0.7,0.1-1.5-1-1.8c-0.4,0.8-0.2,1.6-0.2,2.4c0,5.3,0.2,10.6-0.9,15.8
		C983.9,230,983.2,233.4,980.9,236.3z M828.7,677.6c0.1,1.1,1,1.2,1.7,1.4c2,0.6,4,0.8,6,0.9c2.3,0,4.5,0.4,6.7,1
		c0.7,0.2,1.5,0.7,2.3-0.1C840,678.4,834.3,677.9,828.7,677.6c0-2.4,2-2,3.4-2c6.8,0.3,13.2,2,19.1,5.8c2.1,0,4.3-0.3,6.5,0
		c4.5,0.7,8.1-0.4,9.9-5c0.1-0.2,0.3-0.4,0.2-0.3c1.8-0.7,3.1-1.7,4.6-1.9c0.8-2.3-0.6-4.8,1.3-6.5c-0.4-2.5-0.7-4.9-0.7-7.3
		c-0.1-2.1,0.2-4.4-0.7-6.4c-1.3-3.1-2.2-6.3-2.7-10.4c-1.8,4.2-4.8,2.5-7.5,2.7c-1.4-2.3-2-4.9-2.4-7.5c-0.2-1.2-0.2-2.5-1.4-3.1
		c-2.7-1.6-5.4-3.1-8.7-2.6c-1.2,0.8-2,1.7-2.2,2.9c-0.4,2.9-1.4,5.5-2.9,8.1c11.3,1.4,13.1,2,14.9,5.4c-3,0.6-5.5-0.9-8.1-1.2
		c-2.9-0.4-5.7-0.3-8.5-0.5c-0.9,0.6-1.7,1-2,2.3c3.5-1.4,6.7-0.9,9.9-0.7c5,0.4,7.3,1.3,8.8,3.6c-0.9,1.3-2.1,1.2-3.5,1.1
		c-4.1-0.5-8.1-1.1-12.2-1c-1.4,0-2.8-0.3-4.1-1.1c-0.5,0.9-1.2,1.7-0.8,2.8c5.3-0.9,10.6-0.5,15.7,0.7c1.6,0.3,3.4,0.7,3.6,2.9
		c-0.7,1.8-2.1,1.4-3.4,1.3c-3.2-0.4-6.4-0.8-9.7-1.1c-2.4-0.3-4.7-0.4-6.8-1.9c-0.4,1.2-0.7,2.1-1,3.1c-0.1,0.2,0,0.4,0.1,0.7
		c8.4-0.1,15.4,0.9,17.3,2.5c0,1-0.7,1.7-1.5,1.7c-5.8,0.5-11.6,0.5-17.1-1.4c-3,3.8-4.9,8.5-8.4,12
		C826.9,676.1,826.7,677.4,828.7,677.6z M781,219.7c0.1,1.2-0.2,2.4,0.5,3.8c18.8-1.1,37.6-2.8,56.5-4.6c-0.4-1.9-0.6-3.4-0.9-5
		c-0.7,0-1.1,0-1.6,0c-15.7,1.3-31.4,2.5-47.1,3.9C785.8,218,783,217.8,781,219.7c-0.2-1.2,0.9-2,1.1-3.3c-0.6-1.1-0.9-2.6-2.6-2.6
		c-2.6,1.1-4.1,4.1-7.6,4.9c1.1-2.6,3.5-3.3,4.7-5.1c-0.8-0.9-1.7-1.3-3.1-1.1c-2.4,1.6-4.2,4.6-7.6,5.1c1-2.2,3.4-3,5-5.4
		c-2.6,0.2-4.1,1.7-5.9,2.4c-1.8,0.7-3.3,2.6-6.3,2.2c2.6-2.3,5.4-3.2,7.5-5.2c-5.6-0.9-7.7,4.5-12,6.2c1.2,2.5,0.1,4.9,1.4,7
		c0.9,1.4,1.2,2.9,1.5,4.4c0.5,2.5,1.3,4.8,2,7.2c1.2,3.6,2.8,7.2,2.9,11.1c0.1,2.7,0.6,5.2,1.3,7.8c0.9,3.4,2.1,6.7,2.2,10.2
		c0.2,7.7,0.4,15.4,0,23.1c-0.2,3.8,0.9,6.9,3.1,9.6c3.7,4.5,6.3,9.6,8.3,14.9c1.9,2.2,4.5,3.3,6.9,4.7c1.7,1,3.6,1.2,5.5,0.1
		c1.1-0.7,2.3-1.3,3.5-2c-0.2-4.4,0-8.8-0.6-13c-0.5-4.4-0.3-8.8-1.3-13.2c-0.9-3.7-2-6.8-4.6-9.5c-0.7-0.7-1.1-1.6-1.5-2.5
		c-1.4-3.4-2.7-6.9-4.1-10.4c-1.8-4.5-2.8-9.2-2.8-14.1c0-2.5-0.6-5-0.1-7.3c-0.6-0.4-1.1,0.2-1.6-0.4c0.1-0.4,0.3-0.8,0.5-1.2
		c2.2-4.8,3.6-9.7,2.9-15c-0.3-2.4-0.1-4.8,0-7.2C779.6,221.1,779.8,220.1,781,219.7z M867.6,229.1c1.3,0.9,1.6,2.4,2,3.7
		c0.6,2.1,1.5,4.1,2.4,6.2c-2.2,2.2-1.2,5.1-1.8,7.8c-0.4,1.9,0.1,3.5,1.2,5.1c2.8,3.9,5.2,8.1,7.3,12.4c0.9,2,2.1,3.8,3.8,5.2
		c3.7,2.9,6.4,7.2,11.1,8.9c0.3,0.1,0.4,0.5,0.9,1.3c-1.7-0.5-2.9-1.4-4-1.1c-1.3-1.2-2.2-2.4-3.4-3.2c-6.7-4.6-11.5-10.9-15.1-18.1
		c-0.2-0.3-0.4-0.6-0.5-0.9c-3.3-6-6.6-12-8.2-18.7c-0.8-3.6-1.8-7.2,0.6-10.7c1.1-1.7,3.1-2.3,4.5-4c-0.1-1.1,1-2.2,0.4-3.7
		c-1.5-0.7-2.8-0.3-3.8,1c-1-0.3-1.5-1-1.8-1.7c-1.3-3.2-2.8-6.4-2.6-10c0.1-1.8-0.6-3.3-1.2-4.9c-0.9-0.4-1.7-0.8-2.6-1.2
		c-0.8,0.5-1.9,0.5-2.5,1.5c-0.4,1.1,0.1,2.5-1.2,3.2c-1.1-0.5,0-1.9-1.1-2.4c-1.1,0.4-2.5,0.4-3.5,1.3c-0.5,1.1-0.4,2.1,0.2,3
		c0.6,0.2,1.3-0.4,1.6,0.5c-0.6,0.8-1.4,1.1-2.3,1.2c-1.3-1-0.9-2.8-1.8-3.8c-1.3,0-2.3,0.4-2.9,0.9c-1,1.2-0.2,2.6-0.9,3.4
		c-1.7,0.4-0.8-1.7-2.1-1.6c-0.3,0.2-0.5,0.4-0.8,0.6c-1.3,11.6,0.8,22.1,8.8,31c0.4,0,0.8-0.4,1.3,0.1c0.3,1.2,0.3,2.6,1.4,3.6
		c1.8,1.7,1.8,4,2.5,6.5c-2.1-1.4-1.4-4.1-3.4-5.5c0.9,4.5,1.6,8.6,2.6,12.6c1.7,7,3.2,14.1,6,20.8c1.8,4.3,3.5,8.7,5,13.1
		c1.2,3.8,2.9,7.5,5.7,10.3c3.3,3.4,6.9,6.3,9,10.5c1.8,0.2,3.2-0.2,4.4-1c6.2-4.3,11-9.8,13.3-17c2-6.2,2.6-12.7,2.3-19.2
		c-0.3-7.4,0-14.6,2.2-21.8c1.2-3.8,1.3-7.8,0.8-11.8c-1-7.7-3.7-14.9-6.1-22.2c-0.4-1.2-1-2.5-2.5-3.3c-6.9,0.1-13.8,1.4-21.2,1.8
		c0.4,3.8-2.4,5.7-4.5,7.8c0.3,1.1,0.5,2,0.7,2.9c-0.9-0.4-0.8-1.8-1.9-1.9c-2.8,4.4-1.3,9.6,3.7,12.9c0.6-2.1-0.2-4-0.7-6
		C868.3,232.6,867.4,231,867.6,229.1z M860.4,292.6L860.4,292.6c-0.6-1.2-1.9-1.1-3.1-1.4c-6.5-1.5-13-2.4-19.6-2.4
		c-7.2-0.1-14.4-1.4-21.6-1.4c-7.8,0-15.5,1.1-22.8,3.5c-0.4,0.7-0.2,1.1-0.2,1.6c1,6.5,1.8,13.1,1.8,19.7c0,3.7-0.5,7.5,0,11.2
		c0.4,3,0.4,6,0.2,9c-0.6,8-1.1,16-2.4,24c1.2,0.6,2.5,0.9,3.8,1.1c0.1-0.6-0.5-1,0-1.5c1.9,1.1,3.7,2.5,6,3c9.2,2,18.5,2.9,28,2.4
		c7.3-0.4,14.5-2,21.8-2.3c0.8-2.8,2.2-5,4.4-6.8c-0.7,2.3-2.3,4.3-3.2,7.3c5.9-2.1,11.5-3.4,17.1-4.3c-0.2-0.8-1.6-0.5-1.1-1.8
		c3.7-0.2,7.5-0.8,11.1-1.9c0.4-1.2-0.1-2-0.5-2.9c-1.4-3.1-2.7-6.1-4.1-9.2c-5.2-11.3-9.9-22.8-8.3-35.8c-3.2-2.8-5.1-6.4-6.6-10.2
		C861,293.1,860.6,292.9,860.4,292.6z M866,642c0-3.4,0-6.5,0-9.6c-0.1-3.3,0.8-6.3,1.5-9.5c1.3-5.7,2.3-11.6,3.7-17.3
		c2.7-10.8,5.7-21.6,6.8-32.8c1.1-10.9,1.8-21.7-0.3-32.7c-1.8-8.8-2.4-17.9-3.8-26.8c-1.1-6.9-0.6-13.6,0.2-20.5
		c1-8,3.1-15.8,3.9-23.8c0.2-2.3-0.1-4.6,0.4-6.8c1.8-9,3-18,4-27.1c0.5-4.3,0.8-8.5,1.2-12.8c-16.6-5.2-32.7-3.9-48.9,0.2
		c-0.5,1.3-0.5,2.5-0.1,3.6c1.9,5.1,2.1,10.3,2,15.6c0,0.1,0,0.2,0,0.4c0.5,7.6,1.2,15.1,2.2,22.6c1,7.6,0.6,15.4,3.4,22.7
		c0.1,0.3,0.2,0.7,0.1,1.1c-0.4,4.3,0.7,8.4,1.1,12.6c0.2,2.1,0.6,4,1.8,5.8c0.9,1.4,1.3,3.1,1.2,4.8c-0.3,3.2,0.3,6.5,1.3,9.2
		c1.2,3.5-0.2,6.7,0.5,10c0.4,2-0.6,4.2-1.1,6.3c-2.2,9.9-2.2,19.8-0.6,29.8c0.3,1.9,1.3,3.6,1.4,5.5c0.4,9.7,1.9,19.3,2.9,29
		c0.3,2.5,0.6,5,0.4,7.5c-0.6,6.4,0,12.7-0.4,19.1c0,0.6,0,1.2,0.6,1.8c3.3,0,6.1,1.6,8,2.9c3.4,3.3,2.1,7.7,4.9,10.4
		C864.8,642.6,865.1,641.9,866,642z M792.8,359.2c-0.8,0.8-1,1.9-1.1,2.7c-0.3,5.8-2.8,11.1-3.6,16.8c-0.1,0.6-0.2,1.2-0.3,1.8
		c-0.5,4.1-0.6,8.2-1.4,12.2c-1.1,5.5-2.3,11.1-3.1,16.7c-0.5,3.1-1,6.3-0.6,9.8c16-2.4,31.4-0.4,46.9,1.7c1.4-3.6,1.2-7.3,0.9-11
		c-0.1-0.8-0.5-1.6,0-2.5c0.9-1.3,0.5-2.8,0.4-4.2c-0.1-1.3-0.1-2.5-0.2-4.1c2.7,2.6,1.7,6.2,3.6,8.6c-1.2,6.4-1.2,7.1,0.1,10.7
		c5.3-1.1,10.9-0.8,16.3-2.1c2.8-0.7,5.7-1,8.6-0.6c3.2,0.5,6.5,0.5,9.7,0.4c1.2,0,2.4,0,3.6,0.3c3.5,1.1,7.3,1.2,10.7,2.6
		c1-2.5,1-5.1,1.3-7.5c0.6-5.1,1.8-10.2,1.9-15.4c0-1.7-0.5-3.2-0.1-5c1.3-7,1.6-14.1-0.7-21c-0.6-1.8-1-3.7-1.3-5.6
		c-0.6-3.6-1.7-7-3.1-10.2c-1.9,0.8-3.6,1.7-5.4,2.3c-8.3,2.6-16.9,3.4-25.3,5c-3.4,0.6-6.9,0.9-10.3,1.4
		c-10.8,1.7-21.6,1.5-32.3-0.5C802.8,361.7,797.8,360.4,792.8,359.2z M839.5,232.9c-2.4,1.1-4.5,2.2-6.7,3.2
		c-8.9,4.2-18.3,4.8-27.8,2.9c-4.6-0.9-6.2-2.9-6.7-7.6c-0.2-2.1,0-4.3,0.3-6.7c-3.2-0.1-6.1,0.2-9.1,1c-2.3,2.9-4.6,5.8-5.5,9.6
		c-0.5,1.9-1.4,3.9-2.5,5.5c-1.6,2.4-2.1,5-2.1,7.8c0,6.3,1.8,12.3,3.5,18.3c2.1,7.8,6.5,14.4,10.5,21.3c1.6,0.2,3-0.6,4.4-1
		c6.2-1.8,12.4-2.9,18.8-2.7c4.1,0.1,8.2,0.3,12.2,0.8c7.4,0.8,14.9,0.4,22.2,2.2c2.8,0.7,5.6,1.1,8.7,1.7c-0.4-2.5-1.4-4.5-2.3-6.6
		c-0.9-2.2-1.8-4.4-2.7-6.5c-12,1.3-27.2-2.7-30.1-8c4.3,3.1,9.3,4.1,14.2,5.6c5.1,1.6,10,0.7,15.1-0.1c-1.8-8.2-3.5-15.9-5.2-23.6
		C847.3,243.6,843.5,238.3,839.5,232.9z M827.5,659.9c-0.4-2.3-0.4-4.3-0.8-6.4c-0.5-2.4-1-4.7-2.1-6.8c-1.2-2.2-0.6-4.6-0.8-7.1
		c-2.3,0.9-4.2,2.1-6.7,0.5c-0.7-1.7-1.4-3.6-2.1-5.4c-0.4-1-0.7-2.3-1.6-2.7c-3-1.4-5.1-3.9-7.5-6.2c-2.2,0.3-4.4-0.8-6.3,0.7
		c-0.5,1.5-0.9,2.9-1.4,4.2s-1.3,2.5-1.9,3.8c12.7,2,12.7,2,14.4,4.7c-2.2,0.7-4.2-0.1-6.3-0.6c-3.2-0.8-6.3-1.5-9.6-1
		c-0.7,0.1-1.5,0.1-1.5,1.2c0.3,0.3,0.6,0.3,1,0.2c4.5-0.3,8.8,0.9,13,2.4c1.2,0.4,2.5,1,2.4,2.8c-1.5,0.9-2.8,0.3-4.2,0
		c-4.1-0.9-8.2-1.8-12.5-1.8c-1.6,0-1.6,0.1-2.4,1.9c9.2-0.5,12.5,0.2,14.1,3c-0.7,1.4-1.9,1.1-3.1,1c-4.1-0.3-8.1-0.7-12.2-0.9
		c-0.9-0.1-1.9-0.4-2.6,1c3.9,0.4,8.1-0.6,11.7,2.6c-2.9,2.5-5.7,0.1-8.2,0.9c-0.3,0.7,0.9,1.2,0,2.2c-2.7,1.3-5.3-0.4-8-1.2
		c-1.4,1.3-2.9,2.3-4.4,3.2c-3.8,2.3-4.6,4.6-3.7,9c10,1.5,11.5,2.1,13.9,5.4c-10.8-3.3-13.5-3.7-16-2.5c3.9,3.3,15.4,4.5,19.3,2
		c5.9,0.6,11.3-1.6,16.7-2.9c1.3-7.3,3.6-8.9,6.6-7.8c-0.8,1.6-3,1.9-4.2,4.2C816.3,662.2,821.9,661.5,827.5,659.9z M660.9,195.4
		c-2.9,0.7-3.9,3.2-4.7,5.5c-1.5,4.1-2.2,8.4-2.4,12.7c-0.6,9.6-0.3,19.2,1.5,28.8c1.1,6.3,2.6,12.5,5.2,18.3c1,2.4,2.2,4.8,4.2,6.7
		c2.2,2.2,4.2,2,6.1-0.5c1.3-1.8,2-3.8,2.6-5.9c1.9-7.7,2.3-15.4,1.9-23.3c0-0.7,0-1.5-0.7-2.1c-1.1-0.3-2.2-0.2-3.4,0.2
		c-1.9,6.5-1.9,6.5-6.4,6c-4.3-4.8-5.3-17.5-1.7-22c1.4-0.4,2.8-0.6,4.1,0c1.9,1.5,2,3.9,3,5.8c1.3,0.3,2.6,0.2,3.9-0.5
		c-0.9-5-1.8-9.8-3.2-14.6c-1.2-4-2.6-8-4.9-11.6C664.7,197.4,663.3,195.7,660.9,195.4z M657.4,195.8c-6.6-0.2-8.1,0.8-10.1,6.4
		c-0.3,0.9-0.6,1.8-0.8,2.8c-1.4,4.9-1.6,10-1.8,15c-0.3,9.3,0.7,18.5,2.6,27.6c1.3,6.1,2.9,12.2,6.2,17.6c2.9,4.8,5.9,5.9,11.5,4.3
		c-4-3.8-5.9-8.7-7.6-13.7c-3-9.3-4.4-19-4.8-28.7C652.1,216.4,652,205.7,657.4,195.8z M968.6,168.7c-5.9-0.5-8.1,0.8-9.9,6.1
		c-1.3,3.6-1.9,7.4-2.3,11.3c-0.9,8.9-0.6,17.7,0.8,26.6c0.9,6.2,2.2,12.3,4.3,18.2c1.1,3.2,2.4,6.3,4.4,9c1.4,2,3.3,3.1,5.8,3.1
		c1.5,0,3,0,5.1,0c-4.7-4.3-6.5-9.2-8.2-14.3c-3-9.1-4.4-18.5-4.8-28C963.4,189.8,963.2,178.8,968.6,168.7z M837.6,221.5
		c-12.2,0.8-24.3,1.7-36.5,2.9c-0.9,2.6-0.7,5.1-0.7,7.6c0,2.7,1.3,4.3,3.8,5.1c3.7,1.2,7.5,1.7,11.3,1.3c1.1-1.4,0.7-3.6,2.5-4.6
		c0.5,1.6-0.6,3,0,4.3c4.7,0.2,15.7-3.7,20.8-7.2C838.8,227.7,838,224.7,837.6,221.5z M955,203.7c-31,2-61.6,5.7-92.2,7.8
		c-0.2,2.8-0.2,2.8,0.9,5.1c30.6-2.3,61.3-5,92.1-8C955.5,206.7,955.3,205.3,955,203.7z M667.5,233.6c0.4,0.1,0.6,0.2,0.8,0.1
		c14.9-1,29.7-2.7,44.5-3.7c11.9-0.8,23.7-2.2,35.5-3.4c1.7-0.2,3.6-0.3,5.1-1.2c0.1-1.5,0.2-2.8-0.5-4.1
		c-28.7,2.2-57.4,4.7-85.7,7.1c-0.7,1.3-0.6,2.1-0.5,2.9C666.8,232.1,666.8,232.9,667.5,233.6z M978.7,206.7
		c20.7-1.8,41.1-3.5,61.6-5.2c-0.2-2.1-0.3-3.7-0.5-5.4c-20.7,1.8-41.1,3.6-61.4,5.4C977.8,203.3,978,204.8,978.7,206.7z
		 M593.6,240.3c16.9-1.5,33.7-2.9,50.7-4.4c0-2-0.2-3.6-0.8-5.3c-16.9,1.5-33.7,2.9-50.3,4.4C592,236.7,592.4,238.2,593.6,240.3z
		 M862.2,209.4c5.6-0.6,10.9-1.1,16.3-1.7c-5.5-2.4-10.7-4.9-16.3-8.1C863.1,203.2,861.5,206.1,862.2,209.4z M856,120.7
		c1.2,2.5,2.3,4.7,3.6,7.5c0-4,0-7.1-0.9-10.1c-1.5-5.2-4.7-6.5-9.4-3.9c-0.1,0.1-0.2,0.3-0.3,0.7c0.7,0.1,1.4,0.2,2.1,0.3
		c0,0.7-1.2,0.9-0.5,2C852.5,118,853.7,120.1,856,120.7z M808.9,202.8c-5.2,2.6-9.8,5.7-11.4,11.9c2,0,3.9,0,5.8-0.6
		C805.4,210.5,806.7,206.5,808.9,202.8z M798,209.3c-3.6,0.8-6.8,1.9-10.2,2.7c-1.3,0.3-2.5,0.7-3.7,1.2c-1,0.3-1.2,1-0.7,2.1
		c3.6,0.6,7.2,0.1,11-0.2C795.6,213.1,796.8,211.2,798,209.3z M668.4,241.1c0.5-2.1,1.4-3.3,1.2-4.8c-0.9-0.9-2,0.3-3.2-1.3
		c-1.2-2.1-1.3-5.1-0.8-8.4c1.1-0.3,2.1-0.5,3.3-0.8c-0.6-1.9-0.9-3.8-2.7-4.9C663.2,226,664.2,235.9,668.4,241.1z M787,225.9
		c-2,0.1-3.9,0.3-5.9,0.4c0,3.4,0,6.5,0,10.2C784.1,233.4,784.6,229.3,787,225.9z M854.8,194.7c-0.5,2.6-1.8,4.8-1.4,7.7
		c2.1-1.5,4.2-1.1,6.2-0.6c0.7-1.3,1-2.4,0.6-3.7C858.5,197,856.8,196,854.8,194.7z M983.6,224.1c-0.2-5.2,2.1-10.5-0.2-15.9
		c-2.2,1.6-1,4.1-2.3,5.4c0.6,1.7,1.7,2.9,2,4.9C982.4,220.2,982.4,222.1,983.6,224.1z M663.6,221.4c-2.6,4.6-1.9,9.3-0.8,14.1
		c0.9,4,1.2,4.2,3.1,5.1C663.4,234.4,662.9,228,663.6,221.4z M979.7,216.3c0,1.9-0.1,3.8,0,5.7c0.1,1.8-0.8,3.7,0.2,5.4
		c1.1,0,1.6-0.6,1.4-1.1C980.6,222.9,981.7,219.3,979.7,216.3z M650.3,262c-0.8-2.4-1.2-4-1.9-5.7c-0.6-1.6-0.6-3.5-1.8-5.3
		C646.3,258,646.9,260,650.3,262z M837.1,114.9c5.6,2.1,6.2,2.2,8.3,0.6c-4.3-1.7-8.5-1.8-13-0.1
		C834.1,116.1,835.4,114.9,837.1,114.9z M868.8,243c-0.7-0.8-1.2-1.3-1.6-1.8c-0.5-0.5-0.9-1.1-1.4-1.7c0.5,3.2,1.8,6.3,2.5,6.3
		c0.1-0.2,0.3-0.4,0.3-0.6C868.6,244.5,868.7,243.8,868.8,243z M851.8,111.9c-3.8-0.8-3.8-0.8-5.6,2.6
		C848.2,113.6,849.8,112.8,851.8,111.9z M849.9,164.4c0.4-1.1,1.3-1.8,0.4-3.1C849.2,162.3,849.5,163.2,849.9,164.4z M851.6,181
		c-0.6,1.2-1,1.9-1.3,2.7c-0.1,0.3,0,0.7,0.4,0.7C851.3,183.7,851.8,182.9,851.6,181z M785.6,651.1c-0.6-0.9-1.1-1.2-1.4,0.2
		C784.7,651.6,785.1,651.6,785.6,651.1z"/>
	<path d="M397.3,180.1c1.7-7.3,3.5-14.6,5.2-22c0.6,4.8-1.2,9.2-2.1,13.2c1.3,6-0.2,11-2.5,16.1c1.4,3.1,3.4,5.6,6.5,7.6
		c10,6.3,20.9,10.9,31.8,15.3c3.2,1.3,5.5,3.3,6.7,6.5c1,2.7,2.1,5.4,3,8.1c1,3.2,1.9,6.4,0.9,9.8c1.3,6.8-1.3,13.3-1.4,19.9
		c0,1.4-0.3,2.9-0.3,4.3c0,9.1-2.6,17.5-6.5,25.6c-1.1,2.2-1.4,4.3-0.8,6.9c1.9,7.1,1.9,14.3-0.1,21.4c-1.3,4.8-1.8,9.6-2.4,14.5
		c-1,8.1-4.3,15.5-7.6,23c3.9,4,5.4,9.2,6.3,14.6c0.6,3.4,1.4,6.8,2,10.3c0.9,4.5,1.1,9.1,0.3,13.6c-0.2,1.4-0.5,2.8-0.1,4.3
		c2.6,0.6,68.6-1,73.5-1.8c0.2-4.1,0.2-8.3,0.8-12.4c0.7-4.6,1.5-9.2,3.3-13.6c1.7-4.1,4.2-7,9.2-6.6c0.5,0,1-0.1,1.4-0.2
		c5.1-0.3,8.7,1.5,10.9,6.4c2.5,5.8,3.9,11.8,4.8,18c0.4,2.5,0.6,5,1,7.9c9.3,0.2,18.6-0.1,28-0.4s18.7-0.4,27.9-0.5
		c3,3.1,1.3,6.1,0.5,9.5c-18.4,0.5-37,1-55.8,1.4c-0.3,4-0.5,7.7-0.8,11.4c-0.4,4.9-1.2,9.8-2.8,14.5c-0.3,0.9-0.6,1.8-1,2.7
		c-1.5,3.7-4,5.9-8.1,6.2c-0.1,0-0.2,0-0.4,0.1c-7.4,1.1-10.3-0.5-13.3-7.4c-2.7-6.2-4.2-12.8-4.8-19.5c-0.2-2.3-0.5-4.5-0.8-7.2
		c-25.2,0.6-50.3,1.3-75.3,1.9c-0.8,3.4-1.3,6.5-1.2,9.6c0.1,4.6-0.3,9.1-1,13.7c-1.3,8.7-1.8,17.5-3.7,25.2
		c-0.2,1.7,0.8,1.9,0.9,2.6c-0.6,7.2-2.9,14.1-3.6,21.3c-0.8,7.3-2.9,14.5-2.7,21.8c0.3,9.2-0.6,18.5,0.9,27.7
		c0.4,2.1,0.6,4.3,1.2,6.4c0.7,2.5,0,5,0.9,7.4c0.6,1.7,0.2,3.6,1.8,4.9c0.6,0.6,0.3,1.6,0.3,2.4c0.2,6.6-0.5,13.2-1.6,19.7
		c-0.8,5-1.1,10-1.4,15.1c-0.3,6-2,11.8-3,17.8c-1.7,10-5.6,19.4-7.2,29.4c-0.2,1.6-0.5,3.1,0,4.7c0.5,0.4,1,0.8,1.4,1.1
		c1.3,6.2,1.1,12.4,4,18.1c1.3,2.7,0.6,5.7,1,8.5c0.2,1.3,0,2.7,0.3,3.9c1,3.9,0.4,7.6-1.2,11.3c-1.6,1-3.5,1-5.4,1
		c-2.5,5.5-5.4,7.2-11.4,6.4c-1.3-0.2-2.6-0.2-3.9,0c-3.8,0.5-7.7,0.6-11.5-0.5c-3.2-0.9-6.4-0.7-9.6-1.2c-2.7-0.5-5.1-1.4-6.9-3.4
		c-0.8-1.9-0.1-3.6,0.8-5.2c0.8-1.5,1.6-3,2.6-4.4c3.3-4.8,5.9-9.9,7.2-15.6c0.8-3.3,3.2-5.9,4.6-9c2-4.3,4.1-8.5,4.1-13
		c1-1.3,2-1.9,2.9-2.2c0.7-12.6,0.3-25-1-37.3c-0.6-5.9-1.2-11.7-2.9-17.4c-1.8-6-2.1-12.3-2.3-18.6c-0.2-5.9-0.4-11.8,0.8-17.6
		c0.2-0.8,0.2-1.7,0.5-2.5c2.8-7,1.1-14-0.1-21c-0.7-3.8-1.3-7.6-2.8-11.2c-0.5-1.3-0.6-2.8-0.7-4.3c-0.3-11.9-2.1-23.7-3.2-35.6
		c-0.6-5.9-1.1-11.7-1.7-17.6c-0.1-1.3,0-2.6-1.1-4.1c-1.7,14.1-5.8,27.4-7,41.2c-0.1,1.1-0.3,2.2-0.2,3.2
		c0.7,6.9,0.3,13.9,1.3,20.9c0.4,3.1-0.1,6.2-0.3,9.4c-0.2,3.6-0.6,7.2-1.1,10.8c-0.4,2.6,0,5,1,7.4c1.7,4,2.9,8.2,4.1,12.3
		c1.8,5.9,1.6,11.9,0.8,17.9c-0.6,4.7-1.3,9.4-3.1,14c-2.4,6.3-2.9,13.2-3.7,19.8c-0.5,3.8-1.6,7.5-1.9,11.3
		c-0.5,4.8,0.2,9.6-0.2,14.4c-0.1,1.3,0.2,2.6-0.3,3.9c-2.6-1.3-3.5-2.8-3.2-5.2c1.4-10.3,1.5-20.7,3.4-30.8
		c1.5-8.2,3.2-16.3,5.3-24.3c0.5-1.9,0.7-3.8,0.6-5.7c-0.8-10.7-3.2-21.1-6.1-31c1.2-7.5,2.2-14.8,1.6-22.1
		c-0.5-6.2-0.5-12.5-0.8-18.7c-0.6-12.4,1.9-24.4,4.6-36.3c1.7-7.5,2.6-15.2,3.5-22.8c0.3-2.8-0.5-5.5-1.2-8.2
		c-2.6-0.7-5.1-0.7-7.6-1.1c-10.1-1.7-20.4-1.4-30.6-1.8c-3.5-0.1-6.9,0.3-10.4,1.3c-0.1,0.3-0.4,0.7-0.4,1c1,9.1,1.7,18.2,1.8,27.3
		c0.1,4.8,0.6,9.6,1.3,14.4c0.2,1.3,0.3,2.6,1.4,3.6c0.7,0.7,0.8,1.7,1,2.7c1.5,7.1,3.1,14.1,4.6,21.1c0.4,1.9,0.7,3.8,0.7,5.7
		c0,7.1,1.2,14.1,2.4,21.1c0.7,4.4,0.5,9-0.1,13.5c-1.4,11.6-0.7,23,1.3,34.5c1.5,8.5,3.5,17,4.8,25.5c0.7,5.1,1.4,10.3,1.8,15.4
		c0.3,4,0.7,7.9,1.2,11.8c1.3,2.4,4.6,2.8,5.6,4.8c1.4,2.6,3.4,3.8,5.6,5.2c1.5,2.6,2.5,5.4,4.2,7.8c2.3-0.9,2.3-0.9,3.6-3.2
		c0.4-1.2-1.7-2.7,0.8-3.9c1.9,3.1,2.4,6.5,2.5,10c0,1.3-0.2,2.7,0.4,3.9c2.5,4.8,3,10.1,3.7,15.3c-2.2,2.9-5.3,3.8-8.6,4.3
		c-3.6,0.6-7.1,1.2-10.8,1.8c-0.1,2.9-1.8,4.4-4.6,5.1c-2.2,0.5-4.4,1.3-6.6,1.6c-0.4,0-0.8,0-1.1,0.2c-7.7,3.7-15.5,1.3-23.3,0.3
		c-2.6-0.3-4.7-1.8-6.2-4.2c1-3,0.6-6.3,2-9.3c0.9-2.1,2.2-3.7,3.9-5c6.2-4.5,11.4-9.9,15-16.7c0.6-1.2,1.5-2.1,2.4-3.2
		c2.1-2.7,4.1-5.4,3.8-9c-0.1-0.9,0.3-1.6,1.1-2.3c1-0.8,2.3-0.2,3.4-0.7c0.8-0.7,0.3-1.6,0.3-2.4c-1-14.3-3.7-28.4-6.2-42.5
		c-1.2-6.9-2.3-13.8-3.2-20.7c-0.8-6.1-0.1-12.3,0.1-18.4c0.1-3.1,0.6-6.2,0.8-9.3c0.3-3.5,0.4-7-0.3-10.4c-1.6-8-2-16.2-3.4-24.3
		c-0.8-4.7-1.9-9.4-3.4-14c-0.8-2.7-1.5-5.3-1.8-8.1c-1.5-12.9-2.9-25.8-4.3-38.7c-0.7-6.8-0.6-13.6-0.1-20
		c-0.5-1.6-1.8-1.7-2.5-2.7c-1.7,1.7-3.5,1.5-5.2,0.5c-1.2,0.9-2.1,1.7-3,2.4c-4.5-0.3-5.3-1.3-5.7-7.2c-0.4-0.6-1-0.6-1.6-0.6
		c-10.9,0.3-21.9,0.5-32.8,1c-13.5,0.6-26.9,0.7-40.4,1c-1.4,0-2.9,0-4.2,0c-1.1,1.5-0.7,3-0.7,4.4c-0.1,6.2-0.8,12.2-2.2,18.2
		c-0.3,1.3-0.6,2.6-1.1,3.8c-2.9,7.5-4.3,8.2-12.2,9c-3.9,0.4-6.8-1.2-8.8-4.5c-0.8-1.2-1.4-2.5-2.2-4c-0.3-0.3-0.9-0.1-1.5-0.1
		c-2.2-0.1-3.4-1.3-4-3.5c-1.1-3.7-0.5-7.5,0.4-11c1-3.7,0.4-7.3,0.1-11.4c-17,0.4-33.9,0.8-50.7,1.2c-3.4-3.2-3.6-6.1-0.5-9.7
		c16.7-0.4,33.6-0.8,50.8-1.2c0.3-3.4,0.5-6.6,0.8-9.8c0.4-4.9,1.2-9.8,2.8-14.5c0.5-1.4,1-2.7,1.6-4c1.7-3.3,4.2-5.2,8.1-4.9
		c1.2,0.1,2.4,0,3.6-0.1c4.1-0.4,6.6,1.7,8.4,5.1c2.2,4.1,3.4,8.4,4.4,12.9c0.7,3.4,1.4,6.8,1.6,10.3c0.1,1.3,0.2,2.6,0.9,4.2
		c24.2-0.7,48.6-1.4,72.9-2.1c0.8-0.8,0.8-1.7,0.6-2.5c-0.6-2.3,0.5-3.9,1.9-5.5c3.4-4,7.7-6.9,12.1-9.6c-0.7-5.2,0.5-10.3,0.8-15.4
		c0.1-1.4,0.3-2.9,0.1-4.3c-0.7-6.7-0.6-13.5-0.5-20.2c0-3.7-0.2-7.5-0.8-11.1c-1.2-7.6-0.1-14.8,2.1-22.1c1.6-5.2,2.1-10.6,1-16
		c-1.8-8.6-2.2-17.4-2.1-26.2c0-3.3-0.4-6.4-1.4-9.6c-2.4-7.4-2.3-15.2-2.2-22.9c0-1.1,0.2-2.2,0.6-3.2c1.3-3.2,2.6-6.5,4.4-9.4
		c3.1-5.2,8.4-6.9,13.8-8.5c4.4-1.3,8.8-2.5,13-4.4c2.5-1.1,4.9-2.6,6.9-4.5c2.3-2.1,4.8-4,7.5-6.1c0.5-4.2,2.9-8.2,2.2-12.9
		c-0.2-1,0.4-2.1,1.6-2.9c0.9,1.8,1.5,3.6,1.3,5.5c-0.4,5.1-2.2,9.8-5.8,13.5c-1.1,1.2-1.9,2.3-2.4,3.9c-1.7,5.1-4.3,9.9-6.6,14.8
		c-1.6,3.4-3.3,6.7-3.7,10.5c-0.8,7.1,0.6,9.1,7.6,10.3c1.1,0.2,2.1,0.4,3.2,0.4c1.3,0.1,2.6,0,4.1,0c1.2-1.2,0.7-3.5,2.4-4.6
		c0.9,1.4-0.4,2.8-0.1,4.1c0.7,0.7,1.6,0.4,2.4,0.3c7.3-1.6,14.2-4.6,20.8-8c3.3-1.7,4.5-4.9,5.7-8c2-5.1,2.9-10.4,3.9-15.7
		c0.8-4.2,1.6-8.5,2.9-12.6c-8.4-8.7-7.6-19.2-6.2-30.2c-0.4-0.8-2.6-0.1-2.5-2c0.9-0.6,1.5,0.8,2.3,0.4c3.8-1.7,6.4-4.6,7.9-8.7
		c-1-0.8-1.6-1.8-2.3-3.1c-1.8,1.5,1.1,2.4,0,3.7c-1,0.4-1.3-1.2-2.3-1.1c-0.8,0.9,0.7,1.7,0,2.9c-1.4,0.4-1,2.8-3,3.6
		c-1.2-3.3,3.3-4.9,1.4-8.3c-0.8-0.5-2.4,0.7-4.7,0.5c1.4-1.3,2.4-2.2,3.4-3.1c-0.8-1-2.7-0.2-3.3-2.2c2.3,0.4,4.5,0.8,6.8,0.2
		c-2.8-0.7-6.1-0.5-8.3-4.2c3.1,1.6,5.6,2.9,8.4,3c1.8,0.1,3.2,0.7,4.7,1.5l-0.1-0.1c0.1,0.5,0.1,1,0.3,1.4c1.4,2.6,1,5.1-0.7,7.4
		c-0.5,0.7-0.9,1.4-1.3,2.2c0.2,5-1.4,9.7-2.2,14.5c-0.3,1.9-0.8,3.7-1.1,5.6c-0.1,0.8-0.4,1.7,0.7,2.1c0.4,1.7-1.5,2.9-1.2,5.3
		c1.4-2,2.1-3.7,2.4-5.6C398.1,179.8,397.7,179.9,397.3,180.1z M531.7,402.4c0.5,0.3,1.2-0.5,1.6,0.1c0.6,0.3,0.2,1.4,1.1,1.5
		c0.3-0.9,1-1.7,0.6-2.7c-0.8-0.7-2,0.1-3-1.2c-0.7-2.5-1.3-5.3-0.4-8.1c1-1,2.4-0.1,3.3-1.3c-0.3-1.6-0.6-3.4-1.9-4.6
		c-1.1-0.4-2-0.5-3.3,0.2c-2.5,5.2-2,10.7-0.7,16.3c1.4,0,1.1-1.2,1.8-1.7C531.1,401.4,531.4,402,531.7,402.4
		c-3.9,4.7-3.7,10.7-5.5,16c0.5,1.6,0.9,3.1,2.4,4.1c1.3-0.7,1.5-2,1.8-3.3C531.4,413.7,531.2,408,531.7,402.4z M533.8,427.6
		L533.8,427.6c0.6-1.9,1.8-3.8,1.8-6.2c-1.2,0.8-2.2-0.1-3.3,0.1c-0.2,0.4-0.4,0.9-0.6,1.3c-2.1,2.9-4.4,2.8-6.1-0.3
		c-1.1-2-1.5-4-0.8-6.3c1.1-4.2,1.7-8.5,3.4-11.8c-0.7-7.1-2.5-13.6,1.1-19.6c4.6-0.7,5.3-0.3,6.5,3.6c0.2,0.6,0.3,1.2,0.5,1.7
		c0.2,0.7,0.5,1.1,1.6,0.7c-0.7-10.3-2.4-20.4-8.8-29.5c1.8,0.5,3,1.2,3.6,2.6c2,4.2,4.4,8.3,4.9,13.1c0.3,2.5,0.5,5,0.9,7.5
		c0.3,2.1,0.4,4.3,1.1,6.4c1.1-0.5,0.8-1.1,0.8-1.7c-0.4-3.1-0.7-6.2-1.3-9.3c-1-5.3-2.3-10.6-4.9-15.4c-1.2-2.2-2.5-4.1-5-4.5
		c-2.3,0.5-3.3,2.1-4.3,3.8c-1.5,2.9-2.5,6-3.1,9.2c-2.9,15.2-2.5,30.4,0.8,45.5c0.9,4,2.1,7.9,4.2,11.5c1.1,1.9,2.3,3.7,4.7,4
		c3-1.4,3.9-2.4,5.4-6.3c2.3-6.2,3.3-12.8,3.6-19.4c0.1-2.3,0.6-4.7-0.2-7.1c-0.7,0.6-0.5,1.2-0.5,1.8c-0.2,5.9-0.7,11.8-2.3,17.5
		C536.6,423,536.1,425.8,533.8,427.6z M374.2,677.7c0.8,1,1.9,1.3,3.1,1.6c4.6,1,9.3,0.5,13.8,1.9
		C385.8,678.4,380,677.7,374.2,677.7c0.7-2.2,2.5-2.2,4.4-2c6.7,0.5,13,2.2,18.8,6c3-0.8,6.1,0,9.2,0c2.8,0,4.9-1.1,6.1-3.7
		c0.2-0.5,0.6-1,0.9-1.6c1.7-0.8,3.3-1.6,4.9-2.3c0.6-2.2-0.6-4.6,1.2-6.5c-0.5-2.2-0.7-4.5-0.7-6.8c0-2.1,0-4.4-0.7-6.4
		c-1.1-3.2-2.3-6.4-2.5-10.1c-2.6,2.4-2.6,2.4-7.8,1.8c-1.9-3-1.8-6.6-2.9-9.7c-4.6-3-6-3.5-9.8-3c-1.7,1.4-2.3,3.3-2.4,5.4
		c-0.1,2-2,3.4-2.3,5.7c3-0.1,5.6,0.1,8.1,0.8s5.4,0.8,7,4.4c-3.3,0.2-5.9-1.1-8.5-1.4c-2.7-0.3-5.5-0.4-8.1-0.6
		c-1,0.6-1.9,1.1-2.3,2.3c7-1.8,15.9-0.4,18.8,2.8c-0.4,1.5-1.6,1.6-2.9,1.5c-1.4-0.1-2.9-0.2-4.3-0.5c-4.2-0.9-8.6,0-12.9-1.4
		c-0.4,0.8-0.8,1.5-0.6,2.4c5.2-0.9,10.5-0.5,15.6,0.6c1.6,0.3,3.4,0.7,3.8,2.7c-0.4,1.4-1.4,1.7-2.5,1.5
		c-5.8-1.1-11.9-0.5-17.6-2.8c-0.4,1.2-0.7,2.4-1.1,3.7c3.3-0.5,6.2,0.1,9.2,0.5c2.9,0.4,6.2-0.6,8.8,1.7c-1.8,1.8-1.8,1.9-2.7,2
		c-5.4,0.1-10.9,0.4-16.2-1.7c-2.9,3.9-4.9,8.6-8.4,12.3C373.1,676,373,677.1,374.2,677.7z M397.4,401.1c-0.3-0.1-0.6-0.3-1-0.4
		c-0.2-2.4,0.9-4.4,1.7-6.4c-1.3-0.9-2.3-0.6-3.4,0.3c-0.3,1.1-0.8,2.2-1.1,3.4c-0.7,3.4-1.2,6.8,0.9,10c0.8,1.2,1.5,1.8,2.8,0.9
		c0.1-2.2-2-4-1.1-6.2c0.5-0.1,0.8-0.1,1.2-0.1c-0.4,2.6,1.1,4.6,1.7,6.6c2.4,2.1,5.4,0.7,7.6,2.3c3.4-1.1,6.1-3.1,9.4-3.8
		c0.4-1.2,0.7-2.2,1.1-3.4c-2.7-0.4-5.3-0.1-8,0c0.3,1.2,0.9,2.4-0.5,4.4c0.4-3.2-2.4-3.4-3.2-5.2c0.6-0.9,1.4,0,1.7-0.4
		c1.3-1.7,3.3-2.3,5-3.3c1.5-0.8,2.3-2.2,2.3-3.8c0.1-2.7,1.1-5.1,3.1-7.2c-0.9-1.1-0.6-2.7-1.7-3.6c-1-0.8-1.8-1.7-1.8-3.2
		c1,0.3,0.9,1.6,2.1,1.7c0.1-1.7,0.2-3.3,0.2-5l-0.2-0.1c-1,0.1-1.1,1.7-2.3,1.4c-0.9-2.6-0.2-3.8,3.3-5.9c0.1-1.6,1-3.1,0.8-4.7
		c-0.5-0.3-1.1-0.1-1-1.5c1.6-2.4,3.4-5.3,4.5-8.7c1.3-3.9,3-7.6,4.4-11.4c1.2-3.3,2.9-6.3,3.8-9.7c2.3-9.2,4.4-18.4,5.6-27.9
		c0.6-4.8,1.2-9.5,0.2-14.4c-0.6-3.4-0.6-6.9,0.1-10.5c1.2-0.6,1.8-1.6,2.1-3c1.3-5.4,2.6-10.7,3.4-16.2c1.3-9.4,2.8-18.7,3-28.3
		c0.2-6.9-1.6-13-4.1-19.2c-0.8-2.1-2.3-3.6-4.5-4.4c-1.7-0.6-3.3-1.5-4.7-2.7c-2.9-2.4-6.2-4.1-9.7-5.4c-3.7-1.4-7.3-3-10.8-5
		c-0.7-0.4-1.3-1.2-2.6-0.6c0.9,1.1,0.3,2.4,0.1,3.6c-0.3,1.9-0.6,3.8-0.7,5.7c-1,11.9,1,23.2,5.4,34.2c0.3,0.7,0.2,1.7,1.4,1.9
		c0.2-1.3,0.1-2.7,0.6-3.9c1-2.8,0.5-5.4-0.3-8.1c-0.6-1.8-1.3-3.6-1.4-5.6l-0.1,0.1c1.3,0.8,1.6,2.3,2.2,3.6
		c0.8,1.9,1.3,3.9,2.1,5.7c0.8,1.9,0.9,3.8,0.6,5.9c-1.3,9.1-2.2,18.2-1.5,27.3c0.8,10.9,0.7,21.6-3,32c-1,2.8-1.5,5.8-0.9,8.9
		c0.2,1.2-0.2,2.3-0.6,3.5c-2.1,7.4-3.8,14.8-3.7,22.7c0.1,9.4-0.9,18.7-3.8,27.7c-0.4,1.3-0.5,2.6-0.6,3.9
		c-0.2,3.3-1.2,6.4-3.5,8.9c-2.4,2.6-3.2,5.8-3.3,9.3c-0.1,1.3,0,2.6,0,4.1c0.6,0.4,1.2,0.8,1.9,1.3c1.1,0.1,2-1.1,3-0.6
		c1.2,0.3,1.7,1.6,3.1,1.7c0.6-0.1,1.4-0.3,2-0.5c0.7-1,0.7-2.3,2-2.5c0.5,0.5-0.3,1.2,0.2,1.6c0.7,0.6,2-0.2,1.9,1.3
		c-1.6,1.3-3.6,1.8-5,2.2c-2.1,1.5-2.2,3.4-2.4,5.8c-0.5-1-0.7-1.6-1-2.1c-0.7,1.7,0.5,3,0.6,4.5c0,1.5,1.1,3.1-0.7,4.8
		c-0.7-3.4-1-6.5-2-9.2c0.7-2.2,3.2-3.5,1.7-6c-1.9,0.1-2.8,1.2-3.3,2.6C398.4,398.1,397.9,399.6,397.4,401.1z M380.7,422.8
		c-0.6,2.7,0.4,5.1,1,7.5c0.5,1.8,1.5,3.6,1,5.6c-0.4,1.6-0.1,3.1-0.1,4.7c0.4,9,1.6,18,2.6,26.9c0.8,6.7,0.5,13.5,3.1,19.9
		c0.2,0.5,0.3,1.2,0.3,1.8c-0.3,4,0.6,7.9,1,11.8c0.2,2,0.5,4,1.8,5.8c0.8,1.2,1.2,2.7,1.1,4.1c-0.1,2.4,0.4,4.8,0.9,7.1
		c0.4,2,1.2,3.9,1.1,5.9c-0.2,4.2,0,8.5-1,12.7c-2.2,9-2.4,18.1-1.3,27.2c0.6,4.6,1.8,9.1,2.1,13.8c0.5,8,1.8,16,2.6,24
		c0.7,6.2-0.1,12.5,0.1,18.7c0.1,3.2-0.7,6.4,0.1,9.7c3.5-0.1,6.3,1.5,8.7,3.1c3,3,1.7,7.3,4.4,10c0.8-0.4,1.3-1.1,2.3-0.8
		c0.2-2-0.2-3.9-0.4-5.8c-0.3-4.4,0.3-8.8,1.3-13.1c1.7-7.3,3.1-14.6,4.9-21.8c2.8-10.9,5.5-21.9,6.2-33.3c0.4-7,1.4-13.9,0.3-20.9
		c-0.5-3.1-1.1-6.2-1.5-9.3c-1.1-7.6-1.9-15.3-3.1-22.9c-1.1-6.5-1.6-12.9-0.4-19.4c1.1-6.3,1-12.7,3.2-18.8
		c0.3-0.9,0.3-1.9,0.4-2.8c0.4-4.1,0.4-8.2,1.1-12.2c1.9-10.3,3.2-20.7,4.4-31.1c0.3-2.9,0.7-5.9,0.7-8.7
		C412.8,417.3,397.3,418.4,380.7,422.8z M347.4,207.1c-4.3,7.6-9,14.5-14,21.3c-1.4,2-2.6,4-3.2,6.4c-0.6,2.3-1.6,4.6-3,6.5
		c-4,5.4-4.9,11.7-5.1,18.1c-0.1,2.2,0.6,4.2,1.7,6.2c1.8,3.4,4.2,6.5,6.6,9.4c3.5,4.1,6.8,8.4,8.2,13.9c4.5-1.3,8.8-2.7,13.4-3.5
		c7.3-1.3,14.6-0.7,22-0.1c11.4,0.8,22.8,1.5,33.9,4.6c2.2,0.6,4.4,0.8,6.8,1.2c1.8-7.2-0.1-13.9-0.9-21c-1.1,0.6-1.8,1-2.6,1.4
		c-7.6,4.1-15.4,6.6-24.2,4.1c-4.3-1.2-8.7-1.7-12.7-3.8c-1.5-0.8-3.1-1.6-3.7-3.6c4.2,3,9.2,3.9,13.9,5.5c5,1.7,9.9,1.1,14.8,0.1
		s9.9-2,14.3-5.3c-0.3-4.4-0.4-8.8,0.1-13.2c0.3-2.6-0.2-4.9-1.3-7.3c-3.5-7.3-5.5-15.1-6.6-23.1c-1.1-8.7-0.6-17.5,0.6-26.3
		c-1.4-1.6-3.4-2.3-5.2-3.4c-0.9,0.9-0.9,1.9-1.2,2.8c-1.6,5.6-2,11.4-3.3,17c-1.1,4.7-2.5,9.3-5.5,13.2c-1.4,1.9-3,3.6-5,4.6
		c-3.2,1.6-6.5,3.1-9.8,4.5c-8.5,3.5-17.3,3.5-26.2,1.8c-2.9-0.6-4.4-2.2-5.2-4.8c-0.6-2-0.8-4-0.6-6.1c0.4-3.9,1.7-7.5,3.6-10.9
		c2.6-4.7,4.3-9.8,7-14.5C352.4,204.2,350.2,205.9,347.4,207.1z M342.9,356.3c1.7,0.9,3.3,2.2,5.2,2.6c11.2,2.4,22.6,3.4,34,2
		c6-0.7,11.9-1.8,17.9-1.6c1.3,0.1,2.6-0.1,3.8-1.1c1-5.1,1-10.3,1.3-15.4c0.6-10.4,2.2-20.5,5.3-30.4c0.3-1.1,0.3-2.1,0.4-3.2
		c0.3-4.8,0.4-9.6,2.6-14c0.2-0.4,0.4-0.9-0.1-1.5c-1.8-1-4-1-6.2-1.4c-1.1,1.3-1.9,2.9-4.2,3.6c0.9-1.7,2.3-2.3,2.9-3.8
		c-6.3-2-12.7-2.9-19.2-3.1c-4.6-0.1-9.1-0.3-13.7-0.8c-7.7-0.8-15.4-0.8-23,0.3c-3.8,0.6-7.5,1.3-11.2,2.8
		c2.9,14.3,2.2,28.6,2.1,42.9c0,4.3-0.8,8.6-1.1,12.9c-0.2,2-0.9,4.1,0.4,6.1c-1.8,0.7-1.3,2.2-1.3,3.6c1.2,0.3,2.2,0.6,3.1,0.8
		C342.4,357,342.7,356.6,342.9,356.3z M344,209.4c-4.3,1.1-8.2,2-12.1,3.2c-2.7,0.8-5.3,2.3-7.9,3.5c-1.5,0.7-2.5,1.9-3.2,3.3
		c-1.1,2-2.1,4-3.2,6.1c-1,1.8-1.7,3.8-1.5,5.8c0.4,3.5-0.2,7,0,10.4c0.2,2.7,0.4,5.5,1.3,8.2c1.5,4.9,2.4,9.9,2.2,15.2
		c-0.3,8.5,0.1,17.1,2.2,25.5c0.7,3,0.8,5.9,0.4,8.9c-0.6,4.7-1.8,9.2-2.7,13.8c-2,9.8-0.5,19.6-0.3,29.5c0.2,9.2,1.4,18.5,0.3,27.7
		c-0.3,2.9-0.7,5.7-0.7,8.5c-1.5,1.6-2.4,3.6-4.4,4.3c-4.7,1.5-6.4,6.3-10.5,8.9c1.3,2.5-0.2,5.1,1,7.7c1.9,1.3,4.1,1.6,6.3,1.8
		c1.5-1.2,1.4-2.9,1.9-4.2c-1.3-1.8-3.4-2.4-4.9-3.9c0.9-0.4,0.8-1.6,1.9-1.8c2.9,4.1,6.4,5.3,10.8,2c0.5-2.1,2.2-3.9,3.1-6.2
		c0.2,2.6-0.5,4.9-2.7,7.1c5,1.6,9.4,2,14.1,0.9c-0.7-5-0.4-9.8-0.7-14.6c-0.5-11,0.7-21.8,3.2-32.6c0.2-0.7,0.3-1.4,0.3-2.1
		c0.4-12.1,1.2-24.3,0.6-36.4c-0.2-5.3-1.1-10.5-0.7-15.8c0-0.5-0.3-0.9-0.8-1.1c-0.7,0.7-0.2,2.2-1.7,2.6c0-3.8-1.5-7.5-0.6-11.1
		c-0.8-1.4-2.5-1.6-2.7-3.1c-0.2-1.7-1.5-2.7-2.6-3.8c-2.4-2.2-4.1-4.9-6.1-7.4c-1.3-1.6-2.1-3.5-2.6-5.5c-1.8-6.6-0.9-13,1.9-19
		c3-6.4,6.7-12.5,10.3-18.6C336.5,221.1,340.3,215.3,344,209.4z M337.2,396c19.1-0.4,37.6-0.8,55.6-1.3c2-1.9,2.3-4,2.3-5.9
		c0.1-3.3,0.9-6.3,2.6-9.3c-2.7-0.3-4.8,1.4-7.9,1.3c3.4-1.5,6-2.7,9-2.7c3.4-5.1,3.5-10.9,5-16.2c-0.7-0.7-1.2-0.6-1.6-0.6
		c-5.3,0.6-10.5,1-15.8,1.8c-11.5,1.9-23,1.6-34.4-0.8c-4.4-1-8.9-2-13.5-3.1c-1.2,5.3-1.6,10.6-1.5,15.9c0,0.6,0.7,0.8,1.1,1.2
		c-1.1,0.1-1.2,0.8-1.4,1.7C335.9,383.8,337.8,389.6,337.2,396z M319.8,664.9c5.3,0.9,10.7,1,14.4,5.3c-5.2-1.9-10.5-3.2-16.5-3
		c2.8,2.8,4.4,3.3,13.1,4c2.2,0.2,4.5,0.6,6.2-1.4c6,0.7,11.4-1.5,17.1-2.9c-0.1-1.5,0.7-2.7,1-3.9c0.7-3,1.9-4.1,5.4-4.1
		c-0.6,2-3.2,2.1-4.1,4.5c5.9-1.3,11.6-1.8,16.9-3.6c-0.3-3.6-0.6-7-1.7-10.2c-1.2-3.2-2.5-6.2-1.8-9.7c-1.3-0.2-2,0.5-2.9,0.7
		c-2.7,0.6-3.7,0.1-4.7-2.5c-0.6-1.5-1.2-2.9-1.7-4.4c-0.3-0.8-0.6-1.7-1.4-2c-2.9-1.3-5-3.7-7.2-5.9c-2.2-0.1-4.3-0.7-6.5,0.5
		c-0.6,3-1.8,5.7-3.6,8.3c1.4,0.1,2.6,0.1,3.7,0.2c3.4,0.3,6.7,0.8,9.7,2.4c0.7,0.4,1.6,0.7,1.2,2c-2.1,0.5-4.2-0.2-6.2-0.7
		c-2.9-0.7-5.9-1.3-8.9-1.1c-0.9,0.1-2,0-2.3,1.3c0.4,0.4,0.9,0.2,1.3,0.2c4.6,0,9.1,0.9,13.3,2.6c1.1,0.5,2.2,1.1,1.7,2.7
		c-1.4,0.7-2.6,0.2-3.9-0.1c-4.1-0.9-8.2-1.8-12.5-1.8c-1.5,0-2.6,0.3-2.9,1.9c11.9,0.1,12.8,0.3,14.5,3.1c-0.6,1.5-1.9,1.1-3.1,1
		c-4.1-0.3-8.1-0.7-12.2-0.9c-1-0.1-2.2-0.5-2.7,1c3.8,0.5,8-0.6,11.5,2.6c-2.7,2.7-5.6-0.2-8,1.1c0,0.6,0.7,1.1,0,1.9
		c-2.7,1.3-5.3-0.4-7.9-1.1c-1.3,0.9-2.3,1.9-3.6,2.5C320.8,657.3,319.2,660.4,319.8,664.9z M328,419.4c16.1-2.8,31.8-0.6,47.5,1.5
		c1.9-4.3,0.9-8.8,0.9-13.1c0.4-0.4,0.7-0.7,1.1-1s0.4-1.2,1.2-1.1c1.7,2.2,1.7,2.2,1.1,5.2c-0.6,2.6-0.8,5.2,0.7,7.7
		c5.8-1.2,11.6-0.8,17.2-2.3c2.6-0.7,5.2-0.7,7.9-0.4c2.9,0.4,5.7,0.4,8.6,0.4c1.8,0,3.6,0.1,5.3,0.6c3.3,0.9,6.7,1.4,10.2,2.2
		c0.6-5,1.2-9.8,1.9-15.1c-4.4,0-8.5-0.4-12.3,0.3c-0.8,1-0.9,1.9-1.1,2.9c-0.3,1.2-1,2.2-2.2,2.7c-3.1,1.2-6.2,2.4-9.3,3.6
		c-2.8-1.3-6-0.3-8.6-2.2c-0.2-0.2-0.7,0.1-1.1,0c-2.2-0.5-4.4-1-6.6-1.5c-2.4-0.6-2.8-3.1-4.2-4.8c-3.6,0-7.2,0-10.6,0
		c-0.4,0.5-0.3,1.1-1.3,1.2c-0.5-1-1.6-1.1-2.9-1c-3.4,0.2-6.7,0.1-10.1,0.2c-7.7,0.3-15.4-0.1-23,1c-2.5,5.2-4.6,7.8-11.2,3.3
		C329.1,412.9,327.5,416,328,419.4z M227.5,398.5c0.1-0.5,0.2-1,0.1-1.4c-0.7-7.8-1.9-15.5-5-22.7c-0.7-1.5-1.4-3.1-2.5-4.4
		c-2.4-2.9-4.9-2.9-7,0.2c-0.9,1.3-1.6,2.7-2.1,4.1c-1.6,4.3-2.4,8.8-3,13.3c-1.1,9.1-1,18.2,0.1,27.3c0.8,6.3,1.9,12.6,4.2,18.6
		c0.8,2,1.7,4,3,5.7c2.5,3.2,4.9,3.1,7.2-0.3c1.4-2.1,2.2-4.5,2.9-6.9c2-6.9,2.5-13.9,2.8-21c0-0.8,0.3-1.7-0.7-2.6
		c-0.5,0-1.2,0-1.9,0c-0.5,0-0.9,0.1-1.3,0.2c-2.1,6.1-2.1,6.1-6.4,5.9c-4.3-4.3-4.8-17.5-0.8-22.2c1.4-0.3,2.8-0.4,4,0.1
		c2.1,1.6,1.6,4.3,3,6.2C225.3,398.7,226.4,399,227.5,398.5z M528.8,434.7c-4.3-4.6-5.9-10-7.3-15.5c-1.3-5.3-2-10.6-2.4-16
		c-0.8-10.2-0.6-20.4,1.5-30.5c0.9-4.5,2.4-8.7,5.1-12.5c-6.8-0.4-8.5,0.5-10.8,6.3c-2,4.8-2.8,9.9-3.4,15.1
		c-0.8,8.1-1.1,16.3,0,24.4c0.9,7,2,14,4.5,20.7C518.7,433.7,520.7,434.9,528.8,434.7z M213.1,368c-6.6-1.1-8.1,0.6-10.1,5
		c-0.6,1.2-1,2.4-1.4,3.7c-1.8,5.6-2.5,11.5-2.8,17.4c-0.4,7.8-0.3,15.6,0.8,23.4c1,6.8,2.2,13.5,5.4,19.7c2.5,4.8,5.3,6,10.9,4.6
		c-3.5-3.8-5.1-8.4-6.3-13.2c-3.1-12.2-3.8-24.7-2.9-37.2C207.3,383.2,208.3,375.1,213.1,368z M509.9,394.4
		c-31.4-0.1-62.6,2-93.7,1.9c-0.8,2.2-1.6,3.9-3.6,5.5c4.4,0,8.2,0.1,12.1,0c13.8-0.4,27.7-0.9,41.5-1.3c13.7-0.4,27.4-0.7,41.1-1
		c0.9,0,2,0.3,2.8-0.8C510,397.4,509.9,396,509.9,394.4z M302.7,399.4c-27.6,0.2-54.8,1-82,1.6c-0.6,2-0.6,3.6,0.2,5.4
		c29.2-0.8,58.4-0.9,87.5-2.6C306.2,402.6,303.6,402.4,302.7,399.4z M426.8,354.2c-7.5,12.4-10.4,25.5-6.5,40
		c3.8-0.2,7.7-0.4,11.4-0.6c1-2.5,1.2-4.7,1.5-7c1.3-10.1-2.3-19.4-4.8-28.9C428.1,356.5,427.8,355.3,426.8,354.2z M595.1,392.1
		c-21.1,0.5-41.6,1-62.1,1.4c-0.8,2-0.7,3.5,0.4,5.3c20.4-0.5,40.9-0.9,61.6-1.4C594.9,395.6,594.6,394.1,595.1,392.1z M391.2,397
		c-20.8,0.6-41.9,0.4-63,1.6c-0.1,1-0.3,1.6,0.3,2.3c2.2-0.3,4.1,1,5.6,2.4c17.7,0.1,35.1-0.6,52.2-0.9c1.3-0.9,1.1-2.5,2.5-3.2
		c0.5-0.8,1.7,0.1,2.5-0.5C391.6,398.3,391.7,397.8,391.2,397z M197.2,401.6c-17.2,0.4-34,0.8-50.7,1.2c-1.1,1.9-0.8,3.4,0.1,5.4
		c16.8-0.4,33.7-0.8,50.6-1.2C197.5,405,197.5,403.5,197.2,401.6z M322,409.8c0.1-4.5-1.8-8.9-1-13.5c-0.4-0.1-0.7-0.4-1-0.4
		c-0.5,0-0.9,0.1-1.4,0.2c-1.1,4.5-3.2,8.9-0.9,13.6C319.1,410.5,320.5,410.9,322,409.8z M316.5,397.3c-1.1,0.6-1.8,1-2.7,1.5
		c0.5,1.4,0.4,2.8-0.7,3.6c-2.6,1.9-2.3,4.8-2.9,7.3c2.3,2.7,2.8,2.8,5.5,1.6c-0.2-2.2-0.4-4.4-0.5-6.7
		C315,402.3,315.9,400.1,316.5,397.3z M326.9,401.3c-0.7-1.1,0-2.6-1-3.7c-1-0.4-2-0.8-3.2-0.4c-0.1,0.4-0.3,0.8-0.4,1.3
		c-0.2,3.3,0.8,6.4,1.1,9.6c0.1,1.4,1.2,2,2.5,1.9c0.7-0.4,1.2-0.8,1.3-1.8c-0.5-1.5-1-3-1.5-4.7C326.1,402.8,326.5,402,326.9,401.3
		z M222.6,398.3c-0.5-1.7-0.6-3.5-2.3-4.7c-3.5,4.5-3,15.6,0.8,19.5c1-1.2,1.6-2.6,1.4-4.1c-0.8-0.9-2.1,0.2-2.8-1.1
		c-1.3-2.6-0.9-5.5-0.6-8.2C220.1,398.5,221.4,399.2,222.6,398.3z M332.5,409.6c1.2-0.8,3.6-0.7,3.3-3.6c-1.6,0.4-2.1,2.8-4.2,1.9
		c1.6-1.5,0.8-2.9,0.1-4.3c-1.4-0.8-2.7-1.6-4.4-0.3C328.3,405.9,328.8,408.9,332.5,409.6z M536.7,416.4c1.7-5.2,2.1-12.6,0.6-15.5
		c-2,1.3-1.2,3.7-2.3,5.1c0.3,1.8,1.5,3,1.6,4.6C536,413.8,536,413.8,536.7,416.4z M217.9,393.6c-2.4,3.2-2.7,7.1-2.3,10.9
		c0.3,3,0.2,6.4,3.3,9.3C217,406.6,216.3,400.2,217.9,393.6z M390.7,400.3c-1.5,0.2-1.9,1-1.9,2.1c0,1.4-0.6,2.8,0.1,4.1
		c0.7,0.2,1.3-0.8,2-0.2c0.3,0.5-0.4,1.1,0.1,1.7c0.5,0.2,1.2,0.6,2-0.2C391.3,405.7,392.7,402.6,390.7,400.3z M533.7,408.3
		c-0.6,3.3-0.2,6.7-1,10c-0.3,1.1,0.4,1.5,1.9,1C534.3,415.7,535,412,533.7,408.3z M199,421.3c-0.9,8-0.4,10.3,2.4,11.6
		c0.1-0.1,0.2-0.2,0.2-0.3C200.8,429.1,200,425.5,199,421.3z M395.3,175.6c2.2-5.8,3.5-13.5,2.8-16c-0.6,4.6-1.5,9.1-2.8,13.5
		C395.2,173.9,395.3,174.8,395.3,175.6z M401,152.5c0-4.2-0.2-4.5-2.8-4.7C400.3,148.2,400.2,150.2,401,152.5z M417.4,391.7
		c-0.6,1-1,1.8,0.2,2.6C418.5,393.4,418.3,392.7,417.4,391.7z M396.4,161.4c-1.2,0.8-1.2,1.5-0.5,2.5
		C396.8,163.2,396.7,162.4,396.4,161.4z M330.1,651.1c0.7,0.5,1.2,0.6,1.6,0.1C331.4,650.4,331,650,330.1,651.1z"/>
	<path d="M401.7,146.8c0.2-2.1,1.6-3.9,1.2-6.6c-4.2,2.3-8.2,1.2-12.1-0.2c-0.5-0.8-1.4,0.4-2-0.4c-0.5-1.3-2.2-1.5-2.7-2.8
		c0.6-1,1.2,0.2,1.8,0c0.4-1.3-1.7-1.4-1.1-3.1c0.2-0.5,0.8,0.6,1.3,0.3s-0.3-0.9,0.6-1.3c1.1,0.3,2.5,1.5,4.2-0.1
		c-1.5-0.7-3.3-0.5-4.8-2.7c4.3,2.2,8.5,1.8,12.3,3.1c-2.4,0.4-4.9,0.2-7.3,1.7c2.5,0.8,4.5,0.8,6.5-0.4c-0.2,0.7-0.4,1.3-0.6,2
		c-2.5,0.4-5-0.3-7.8,0.6c2.5,0.7,4.6,1.3,7.2,2c-2.4,1.2-4.2-0.6-6.3,0c4.2,2.4,7.9,1.7,11.6-0.6c0.2-1,0.5-1.8-0.3-2.4l-0.2-0.2
		c0.7-1,1.3-1.9,0.5-3.1c-1.3,0.8-2.5,1.8-4.1,1.9c0.3-0.5,0.5-1,0.8-1.5c3.3-1.3,3.8-2,2.9-4.9c-1.1-0.4-1.8,1.1-2.9,0.6l0.1,0.1
		c0.1-1.3,1.7-1.2,2.2-2.5c0.2-0.8-0.6-1.5-1-2.3c-0.5-0.8-1.1-1.5-1.6-2.3c-4.3,4.1-9.7,4.2-14.7,4.7c-0.9-1-0.2-1.5-0.2-2
		c1-0.3,1.8,1.4,3.1,0.1c-1.6-0.5-2.2-2.6-4.3-2.1c0.2,1,1.3,1.2,1.3,2.1c-1.7-0.9-1.7-0.9-2.7-2.7c3-0.4,5.6-2.4,8.8-1.3
		c1.2-0.7,2.5-1.4,3.8-2.1c-0.6-1.6-1.8-1.4-3-1.2c-3.3,0.6-6.6,1.3-9.8,1.8c-1.4,0.2-2.7,0.7-4.2,0.4c-1.9-0.4-3.5,1.3-5.6,1.9
		c-1.6-1.8-3.1,0.9-4.8,0.2c0-0.6,0-1.2,0.7-1.5c2.1-1,3.8-2.6,6.1-3.2c-0.3-0.5-1-0.3-1-0.9c1.4-1.2,3.4-0.9,4.8-2.2
		c-5.7-0.3-8.5,0.6-10.3,3.5c1.2-0.2,2-1.4,3.5-0.9c-1.3,1.5-3,1.7-4.2,2.8c-0.6,0-1.2,0-1.8,0c-0.8-0.4,0.2-1.1-0.4-1.7
		c-1.5,0.9-2.4,2.6-3.7,4.1c0,0.3-0.8-0.5-0.3-0.4s-0.1,0.1,0.1-0.3c0.1-0.3,0.4-0.6-0.1-1.1c-4.8,4.2-5.9,10.4-8.4,15.9
		c2,0.4,3.7,0.7,5.4,1c0.8,0.1,1.2,0.6,1.3,1.4l0.1-0.1c-1.2,0.3-2.4,0.4-3.5-0.1s-2.3-0.6-3.7-0.3c-0.2,1.5,0.1,2.8,0.8,4.2
		c2-0.4,3.8-0.3,5.4,1.5c-0.9,1.1-1.7,2.1-2.6,3.2c-2,0.2-2.1-1.8-3.4-2.9c-0.3,2.7-1.4,4.9-1.9,7.3c-1,5-0.2,9.8,1.3,14.5
		c0.7,2.3,1.1,4.7,1.7,7c0.3,1,0.6,2.1,1,3.1c0.7,1.8,1.9,3,4,3.2c1,0.1,2.1,0.2,3.2,1c-2.3,1.1-4.2-0.2-6.1-0.5
		c-1.4-1.2-2.1-2.7-2.5-4.3c-1.1-4.4-2.5-8.8-3.7-13.2c-1.3-4.6-0.7-9.3,0.7-13.8c0.8-2.5,1.5-5.1,0.7-7.7c-0.6-1.9,0.3-3.6,0.7-5.3
		c1.4-5.6,3.6-10.9,7-15.7c1-1.4,2.3-2.4,3.8-3.1c8.3-4.1,17-4.9,25.9-3.1c1.2-0.6,2.4-1.2,3.5-1.8c4.2-2,8-0.8,11.6,1.4
		c2.4,1.5,3.5,4,3.5,6.8c0.1,3.7,0.3,7.4-0.4,11.1c-0.9,5.2-0.7,10.5-0.1,15.8c0.6,5,1,9.9-0.4,15c-1.1,4-0.9,8.3-2,12.4
		c-0.5,1.8-0.7,3.8-2,5.4c1.9-11.6,4.1-23.2,2.9-35.4C403.4,144.7,403.5,146.6,401.7,146.8L401.7,146.8z M397.4,120.7L397.4,120.7
		c0-0.5,0.2-1.2-0.8-1.6c-2.5,0.6-4.8,2.8-6.7,2.7c1.3-0.1,3.2,1,5.2,1.8c2.3-1,2.3-1,3.4-2.7C398,120.9,397.7,120.8,397.4,120.7z
		 M397,115.2c0.2,0.7-1.1,1-0.5,1.9c1.9,1.3,3.6,2.9,5.7,3.9c1.1,2.3,2.2,4.5,3.2,6.7c0-3.4,0.4-6.8-0.7-10c-1.6-4.8-4.6-5.9-9-3.6
		c-0.3,0.1-0.5,0.4-0.7,0.6C395.6,115.5,396.4,114.8,397,115.2z M391.8,115.7c-6.1-2.1-10.5-2-14.1,0.4c1-0.2,1.8-0.4,2.6-0.5
		c0.9-0.2,1.8-0.5,2.6-0.7C388.3,116.8,388.7,116.9,391.8,115.7z M392.1,114.2c2.2-0.2,3.7-1.5,5.9-2.3
		C395.1,110.9,393.3,111.5,392.1,114.2z M388.8,124.4c1.3,0.6,2.5-0.2,3.8-0.4C390.8,123.6,390.8,123.6,388.8,124.4z"/>
	<path d="M837.3,123c-0.3-0.2-0.6-0.4-1.5-1c3.8-0.7,6.7-2.7,10.2-1.1l-0.1-0.1c-0.3,0.4-0.6,0.7-1,1.2c1.4,0.6,2.7,1.2,4,1.7
		c1.6-0.3,2.6-1.6,4.1-1.6c-0.9,1.5-2.2,2.4-4,2.7c-3.3,0.4-6.4,2.5-10.2,1.3C839.3,124.6,837.4,124.3,837.3,123
		c1.2,0.1,1.9,1.2,2.9,1.8c0.8,0.5,1.6,0.6,2-0.4c2,0.7,2,0.7,4.7-0.6c-1.8,0-3.3-0.4-4.6,0.7c-1-0.5-1.9-1-2.7-1.7
		C838.8,121.9,837.9,121.8,837.3,123z"/>
	<path d="M356.2,502.8c3.3,1.5,1.2,5,3.2,6.5c-0.6,3.5-1.4,6.7-3,9.9c-2.3-4.2,0.6-7.8,0.6-12.3C356.2,505.2,356,504.4,356.2,502.8z
		"/>
	<path d="M811,507.6c-0.1-1.6-1.7-2.7-0.8-4.5c1.8,0.2,2.1,1.5,2,2.8c0,1.3,0.7,2.3,1.3,3.4c-0.8,3.1-1,6.4-3.4,9.5
		C808.3,514.7,811.1,511.3,811,507.6z"/>
	<path d="M375.8,144.8c-0.8,1.6-1.6-0.5-2.4,0.1c-0.5,0.9-0.6,2.2-2,2.6c-2,0.1-2.9-1.8-4.6-2.5c0.3-1.1,0.5-2.2,0.9-3.7
		c1.6,2.2,4,1.5,6.1,2.1C374.3,144,375.4,143.9,375.8,144.8z"/>
	<path fill="none" d="M367,119.2c1.2-1.1,3-1.4,4.2-2.8c-1.5-0.5-2.3,0.7-3.5,0.9c1.8-2.9,4.6-3.8,10.3-3.5c-1.4,1.3-3.4,1-4.8,2.2
		c0.1,0.6,0.8,0.4,1,0.9c-2.3,0.6-4,2.2-6.1,3.2c-0.7,0.3-0.7,0.9-0.7,1.5C366.5,120.9,366.6,120.1,367,119.2z"/>
	<path d="M832.9,140.8c-3.1-3.1-6.9-3.1-10.7-2.4c-1.4,0.2-2.8,0.7-4.1,0c-0.1-1,0.6-1.1,1.1-1.1c3.1-0.2,6.1-1.1,9.3-0.3
		C830.5,137.5,832.3,138.3,832.9,140.8z"/>
	<path d="M825,147.4c-0.9,0-1.8-0.6-2.6-1.4c-0.5-0.6,0.7-1,0.1-1.6c-0.7-0.3-1,0.8-1.8,0.6c-0.2-1.1,0.7-1.9,0.8-3.4
		c2,2,4.9,0.8,6.8,2.6C826.8,144.7,827.1,147.1,825,147.4z"/>
	<path d="M352.8,163.8c2.3-1.5,5-1.4,7.2-0.8c2.2,0.6,4.3,1.2,6.6,1.2c0.2,0,0.3,0.3,0.6,0.6c-1,1.5-2.6,1.1-3.8,0.9
		c-3.3-0.6-6.7-1.3-10.1-1.2C353.1,164.4,353.1,164.2,352.8,163.8z"/>
	<path d="M807,164.2c2.2-2.1,4.8-1.8,7.1-1.2c2.1,0.5,4.1,1.2,6.2,1.1c0.3,0,0.6,0.3,0.9,0.5c-0.5,1.5-1.8,1.1-2.7,1.1
		C814.6,165.6,811,163.7,807,164.2z"/>
	<path d="M364.1,138.1c3.9-1.2,7.8-2.2,11.9-0.7c1.3,0.5,1.3,0.5,2.4,2.9C374.1,136.2,368.9,139,364.1,138.1z"/>
	<path d="M376.2,211.1c-2.2,1.8-3,2.1-4.8,0.7c-1.2-0.9-2.4-1-3.7-1.1c-4.1-0.3-8.1-0.5-12.2-0.9c3.4-0.1,6.7-0.3,10.1-0.4
		c2-0.1,4.1-0.1,5.9,1.2C372.8,211.6,374.5,211,376.2,211.1z"/>
	<path d="M400.3,128.7c-0.7,1.1-1.6,0.7-2.6,0.5c-1.9-0.4-3.7-0.4-5.7-0.2c1.1,1.6,2.8,1,4.5,1.8c-3.9,0.7-6.9-2-10.5-1.2
		c0.4-1.5,1.3-1.6,2.2-1.6C392.2,128.1,396.3,127.7,400.3,128.7L400.3,128.7z"/>
	<path fill="none" d="M853,122c-1.5,0-2.5,1.4-4.1,1.6c-1.2-0.5-2.5-1.1-4-1.7c0.4-0.5,0.7-0.8,1-1.2c1.3,0.2,2.2-0.7,3.3-1.2
		c0.8-0.4,1.5-0.6,2.2,0c0.1,0.9-0.8,1-1,1.5c0.8,0.9,1.4-0.6,2.3-0.1C852.8,121.3,852.9,121.6,853,122L853,122z"/>
	<path d="M388.7,139.6c0.6,0.7,1.4-0.4,2,0.4c1.7,2.4,4.5,1.6,6.8,2.3c1.2,0.4,2.6-0.3,4.2,1.4c-5.5-0.2-10.3-0.6-14.5-3.6
		C387.8,139.3,388.3,139.7,388.7,139.6z"/>
	<path d="M359.1,138.1c1.3,0.9,1.6,2.3,2,3.8c-0.9,4.2-3.2,7.8-6.1,11.1c0.3-1.9,1.5-3.4,2.5-5c1-1.7,1.8-3.4,2.5-5.1
		C360.2,141.1,358.7,139.7,359.1,138.1L359.1,138.1z"/>
	<path d="M356.8,545c-1-3.1-0.4-6.2,0.1-9.2c0.1-0.5,0.6-0.7,1.3-0.8C358.7,538.5,357.4,541.7,356.8,545z"/>
	<path d="M812.2,534.5c0.2,4.1-0.9,7.4-1.1,11.1C809.6,542.6,810,537.2,812.2,534.5z"/>
	<path d="M810.4,150.2c1.1-2.6,2.9-4.9,3.8-7.8c0-1.2-1.2-2.2-0.7-3.8c1.5,1.3,1.8,2.8,1.3,4.4c-0.8,2.7-1.8,5.4-4,7.5
		C810.6,150.4,810.5,150.3,810.4,150.2z"/>
	<path d="M379.3,176.4c-1.1,1.7-3,1.7-4.6,2.4c-2.1,0.9-4.4,0.6-6.6,0.7C371.7,178,375.7,178,379.3,176.4L379.3,176.4z"/>
	<path d="M832.1,177c-3,2.5-6.6,2.3-10,2.7c-0.1-0.3-0.1-0.5-0.2-0.8C825.4,178.3,828.8,177.7,832.1,177L832.1,177z"/>
	<path d="M815.7,167.9c-2.7,2.1-4.8,1.8-8.1-0.9C810.5,167.5,813.1,167.9,815.7,167.9z"/>
	<path d="M358,550.1c1.3,2.2,1.1,4.2-0.9,6.7C357.1,554.1,356.9,552,358,550.1z"/>
	<path d="M361.9,168c-2.7,2.1-5.1,1.8-8.3-1.1C356.7,167.8,359.3,167.4,361.9,168z"/>
	<path d="M852.3,125.9c-2.4,1-5,1.2-7.6,0.9C847.1,125.7,849.8,126.1,852.3,125.9z"/>
	<path d="M811.2,556.6c0-2.4-0.3-4.4,0.5-6.5C813.3,552.3,813.3,553.4,811.2,556.6z"/>
	<path d="M358.1,156.3c2.5-1.2,4,1.7,6.6-0.1C362.3,158.6,361.9,158.6,358.1,156.3z"/>
	<path d="M398.2,126c-2.4,0.9-4.8,1.2-8.1,1C393.2,125.7,395.7,126,398.2,126z"/>
	<path d="M390.7,162.8c0.2,3.2-1.3,4.9-3.1,6.5C388,167.1,388.9,165.1,390.7,162.8z"/>
	<path d="M812.1,156.1c2.5-0.8,4,1.8,6,0.5C816.3,158.7,815.6,158.6,812.1,156.1z"/>
	<path d="M844.5,163.3c0.2,2.4-1,4.1-2.7,5.6C842.1,166.7,843.1,164.9,844.5,163.3z"/>
	<path d="M809.1,152.5c-0.5,2.1,1.5,3,2.3,4.5c-1,0.6-1.6-0.1-2.5-0.4C808.6,155.3,807.4,153.9,809.1,152.5L809.1,152.5z"/>
	<path d="M344.5,514.2c-0.5-1.7-2.3-3.3-0.2-5.4C344.9,510.9,344.3,512.6,344.5,514.2z"/>
	<path d="M798.7,514.5c-1.9-3-2-3.7,0.1-5.6C798.2,511,799,512.6,798.7,514.5z"/>
	<path d="M384.1,182.5c-0.2-1.8,0.3-3.4,1.4-4.9C385.9,179.5,384.8,180.9,384.1,182.5z"/>
	<path d="M375.8,144.8c-0.4-0.9-1.5-0.8-2.1-1.4c-0.4-0.4-0.7-0.9-1.2-1.5c1.8,0,3.1,0.9,4.2,1.9
		C376.7,144.6,376.1,144.5,375.8,144.8z"/>
	<path d="M361.2,611.2c-0.3-1.2-1.2-2.4-0.6-3.8C361.1,608.6,362,609.7,361.2,611.2z"/>
	<path d="M838.1,183c-0.2-2.7,0.5-4.2,1.4-5.6C839.9,179.2,839,180.7,838.1,183z"/>
	<path d="M814.4,607.1c1,1.5,1.5,2.7,0.6,4.8C815,610.1,813.9,609,814.4,607.1z"/>
	<path d="M361.5,618.7c-0.2-1.1-0.4-2.2-0.8-4C362.3,616.2,362.5,617.4,361.5,618.7z"/>
	<path d="M367.3,196.5c-0.2-1-0.4-2-0.6-3C367.8,194.4,367.7,195.5,367.3,196.5z"/>
	<path d="M355,154.8c1.1,0.4,2,1.2,2.4,2.4c-1.1,0.6-1.7-0.5-2.4-0.4C354.6,155.9,354.5,155.3,355,154.8z"/>
	<path d="M812.4,561.9c0.8,0.1,0.9,0.5,0.9,1c0,0.6-0.1,1.1-0.9,1.6C812,563.6,811.8,562.8,812.4,561.9z"/>
	<path d="M815,615c1.4,1.4,1.6,2.6,1,4.4C815.4,617.9,815,616.7,815,615z"/>
	<path d="M821.9,197.9c-0.8-1.8-1.3-2.9-1-4.9C821.6,194.8,822,196,821.9,197.9z"/>
	<path d="M816.7,623.6c-1.2-0.4-1.1-1-0.3-1.8C817.3,622.3,817.1,622.9,816.7,623.6z"/>
	<path d="M358.5,561.6c0.9,1.3,0.8,2,0.2,2.9C358,563.7,358.2,562.9,358.5,561.6z"/>
	<path d="M381.7,188.4c0.6,0.8-0.5,1.2-0.4,1.9C380.9,189.5,381,188.9,381.7,188.4z"/>
	<path d="M811.1,210.1c-0.6,0-1.2,0-1.9,0C809.9,209.6,810.6,209.9,811.1,210.1z"/>
	<path d="M387.4,209c0.4-0.8,1.2-0.5,2.1-0.7C388.7,209,387.9,208.7,387.4,209L387.4,209z"/>
	<path d="M387.3,208.9c-0.8,0.8-1.9,0.6-2.9,0.7l0.1,0.1C385.3,208.7,386.4,209.1,387.3,208.9L387.3,208.9z"/>
	<path d="M832.2,177.1c0.4-0.8,0.8-1.4,1.9-1.3C833.6,176.7,833.1,177.2,832.2,177.1L832.2,177.1z"/>
	<path d="M379.3,176.4c-0.1-1,0.9-0.8,1.2-1.4C380.7,176.1,380.1,176.3,379.3,176.4L379.3,176.4z"/>
	<path d="M362,621.3c1,1.1,1.6,1.6,0.6,2.2C361.6,623.2,362.1,622.5,362,621.3z"/>
	<path d="M809.1,152.6c-0.1-1.1,0.5-1.8,1.2-2.4c0.1,0.1,0.3,0.2,0.4,0.4C810.4,151.4,810.2,152.3,809.1,152.6L809.1,152.6z"/>
	<path d="M366.3,228c0.1,1.1-0.4,1.2-1.1,1.2C364.5,228.2,365.5,228.3,366.3,228z"/>
	<path d="M384.4,209.6c-0.6,0.6-1.3,0.8-2.2,0.4C382.9,209.5,383.7,209.7,384.4,209.6L384.4,209.6z"/>
	<path d="M358.7,159.6c0.4,0.4,0.3,0.9-0.2,1c-0.9,0.2-0.5-0.4-0.3-0.7C358.3,159.8,358.5,159.7,358.7,159.6z"/>
	<path fill="none" d="M866,642c-1-0.2-1.3,0.6-1.7,1.3c-2.8-2.7-1.5-7.1-4.9-10.4c-1.9-1.3-4.7-2.9-8-2.9c-0.6-0.6-0.6-1.2-0.6-1.8
		c0.4-6.4-0.1-12.7,0.4-19.1c0.2-2.5-0.1-5-0.4-7.5c-1-9.7-2.5-19.3-2.9-29c-0.1-2-1.1-3.6-1.4-5.5c-1.6-10-1.6-19.9,0.6-29.8
		c0.5-2.1,1.5-4.4,1.1-6.3c-0.7-3.3,0.8-6.5-0.5-10c-1-2.8-1.6-6-1.3-9.2c0.2-1.7-0.2-3.4-1.2-4.8c-1.2-1.8-1.5-3.7-1.8-5.8
		c-0.4-4.2-1.5-8.3-1.1-12.6c0-0.4,0-0.7-0.1-1.1c-2.8-7.3-2.4-15.2-3.4-22.7s-1.7-15.1-2.2-22.6c0-0.1,0-0.2,0-0.4
		c0.1-5.3-0.2-10.5-2-15.6c-0.4-1.1-0.4-2.4,0.1-3.6c16.1-4.1,32.3-5.4,48.9-0.2c-0.4,4.3-0.7,8.5-1.2,12.8c-1,9.1-2.2,18.1-4,27.1
		c-0.5,2.2-0.1,4.5-0.4,6.8c-0.8,8-3,15.8-3.9,23.8c-0.8,6.8-1.2,13.6-0.2,20.5c1.4,8.9,2.1,18,3.8,26.8c2.2,10.9,1.4,21.7,0.3,32.7
		c-1.1,11.2-4.1,22-6.8,32.8c-1.4,5.7-2.4,11.5-3.7,17.3c-0.7,3.1-1.6,6.2-1.5,9.5C866.1,635.5,866,638.6,866,642z M852.8,503.1
		c-2.9,4.2-1.1,8.9,4.3,11c-0.7-1.2-1.6-2.2-1.8-3.4c-0.2-1.4-1.2-2.3-2-3.3C853.2,506,854.6,504.4,852.8,503.1z M855.2,536.4
		c0.6-2,0.8-3.9-1.3-5.6C853.3,533.2,854.6,534.7,855.2,536.4z M856.5,546.5c0.8-1.4,1.3-2.7-0.2-4.4
		C855.8,543.9,855.9,545.2,856.5,546.5z M866.6,505.9c-0.8,2.7-0.8,3.3,0.5,5.2C866.6,509.4,867.7,507.7,866.6,505.9z"/>
	<path fill="none" d="M792.8,359.2c5,1.1,10,2.4,15,3.4c10.7,2,21.5,2.2,32.3,0.5c3.4-0.5,7-0.8,10.3-1.4c8.5-1.6,17.1-2.4,25.3-5
		c1.8-0.6,3.5-1.5,5.4-2.3c1.4,3.2,2.6,6.6,3.1,10.2c0.3,1.9,0.7,3.8,1.3,5.6c2.4,6.9,2.1,14,0.7,21c-0.3,1.7,0.2,3.3,0.1,5
		c-0.1,5.2-1.4,10.2-1.9,15.4c-0.3,2.5-0.2,5-1.3,7.5c-3.4-1.5-7.2-1.5-10.7-2.6c-1.2-0.4-2.4-0.4-3.6-0.3c-3.2,0-6.5,0.1-9.7-0.4
		c-2.9-0.4-5.8-0.1-8.6,0.6c-5.4,1.3-11,1.1-16.3,2.1c-1.3-3.5-1.3-4.3-0.1-10.7c-1.8-2.3-0.9-6-3.6-8.6c0.1,1.5,0.1,2.8,0.2,4.1
		c0.1,1.4,0.4,2.9-0.4,4.2c-0.5,0.8-0.1,1.6,0,2.5c0.3,3.7,0.5,7.4-0.9,11c-15.5-2.2-30.9-4.1-46.9-1.7c-0.4-3.4,0.1-6.6,0.6-9.8
		c0.9-5.6,2-11.1,3.1-16.7c0.8-4,0.8-8.1,1.4-12.2c0.1-0.6,0.2-1.2,0.3-1.8c0.8-5.7,3.4-11,3.6-16.8
		C791.8,361.1,792,360.1,792.8,359.2z M843.7,387c1.6,0.4,2.9,0,3.7-1.9c-1.7,0.2-3.2,0.2-4.4,1.4c-2.3,0.4-4.4,1.1-5.7,3.2
		C839.3,388.4,841.4,387.5,843.7,387z M834.1,395.9c-1.5,1.9-1.5,1.9-0.7,4.6c0.5-2.1,2.1-3.3,2.2-5.3c-0.1-1.5,1.4-2.2,1.8-3.4
		C835.8,392.9,834.5,394,834.1,395.9z M801.3,409.2c-2.8-3.4-5.5-4.1-7.7-1.8c-1.7,1.7-1.6,4.1,0.1,5.8c0.9,0.9,2.1,1.1,3.3,1.1
		c2.2-0.1,3.2-1.7,4.2-3.5c2.1,3.7,2.8,4,8.2,2.8c0.5-5,0-6.4-2.4-7.3C805,405.5,803.2,406.4,801.3,409.2z M785.2,406.4
		c0.3,2.7-0.7,5.2,0.5,7.6c1.7-0.3,0.5-2.2,1.9-2.5c1.5,0.1,1.6,1.9,2.8,2.4c0.3,0.1,0.7,0.2,1-0.1c0.1-0.9-0.8-1.3-0.9-2.2
		c1.4-2,1.4-2,0.8-4.4C789,406,789,406,785.2,406.4z M805.4,384.4c-2.3-1.6-4.9-1.9-7.4-2.6c-0.7-0.2-1.4-0.4-2.4,0.1
		C799.1,382.8,802.2,383.6,805.4,384.4z M827.4,388.5c-0.8,2-0.6,4,0.8,6.4C828.7,392.2,827.7,390.4,827.4,388.5z M850,378.7
		c-1.8,0.2-3.7,0.5-5.1,1.9C846.7,380.3,848.5,380.1,850,378.7z M841,381.2c-0.7-0.3-1.1,0.3-1.6,0.5s-1,0.4-1.2,1
		c0.3,0.3,0.7,0.2,1,0C839.8,382.2,840.7,382,841,381.2z M841.1,389.5c-1.4,0.3-1.8,0.6-2,1.1C839.9,390.8,840.1,390.2,841.1,389.5z
		 M826.1,373.1c0.5-0.7,0.4-1.2,0.1-1.7C825.6,371.8,825.8,372.3,826.1,373.1z"/>
	<path fill="none" d="M860.4,292.6c0.2,0.2,0.6,0.5,0.7,0.8c1.5,3.8,3.4,7.4,6.6,10.2c-1.6,13,3.1,24.5,8.3,35.8
		c1.4,3.1,2.8,6.1,4.1,9.2c0.4,0.9,0.8,1.7,0.5,2.9c-3.6,1.1-7.4,1.7-11.1,1.9c-0.4,1.3,0.9,1,1.1,1.8c-5.7,0.9-11.2,2.2-17.1,4.3
		c0.9-3,2.5-4.9,3.2-7.3c-2.2,1.8-3.6,4-4.4,6.8c-7.3,0.3-14.5,1.9-21.8,2.3c-9.4,0.5-18.7-0.4-28-2.4c-2.3-0.5-4-1.9-6-3
		c-0.5,0.5,0,0.9,0,1.5c-1.3-0.2-2.5-0.5-3.8-1.1c1.2-8,1.7-16,2.4-24c0.2-3,0.2-6-0.2-9c-0.5-3.7,0-7.4,0-11.2
		c0-6.6-0.8-13.2-1.8-19.7c-0.1-0.5-0.3-0.9,0.2-1.6c7.3-2.4,15-3.4,22.8-3.5c7.2,0,14.4,1.3,21.6,1.4c6.7,0.1,13.2,0.9,19.6,2.4
		C858.4,291.5,859.7,291.5,860.4,292.6c-1.9,0.3-2.6,2-3.7,3.3C858.4,295.3,859.9,294.6,860.4,292.6z M819.8,334.9
		c2.7,1.3,4.7,1.2,4.8-0.5c-0.7-0.7-1.5-1.4-2.2-2.1C821,332.8,819.6,333,819.8,334.9z M863,344.1c-0.9,0.8-2.4,1.3-2.5,3.3
		C861.9,346.4,862.7,345.5,863,344.1z M806,350.3c0.2-1.6-0.4-2.5-1-3.5C804.6,348.1,805.2,349.1,806,350.3z M804.2,333.2
		c0.7-1.1,1.1-2.4,0-4.4C804.2,330.6,804.2,331.9,804.2,333.2z"/>
	<path fill="none" d="M867.7,229.2c-0.2-0.9-0.4-1.8-0.7-2.9c2-2.1,4.8-3.9,4.5-7.8c7.3-0.4,14.3-1.7,21.2-1.8
		c1.5,0.8,2.1,2,2.5,3.3c2.4,7.3,5.1,14.5,6.1,22.2c0.5,4,0.4,8-0.8,11.8c-2.2,7.1-2.5,14.4-2.2,21.8c0.3,6.5-0.4,13-2.3,19.2
		c-2.3,7.2-7.1,12.7-13.3,17c-1.2,0.9-2.6,1.2-4.4,1c-2.1-4.1-5.8-7.1-9-10.5c-2.8-2.9-4.5-6.5-5.7-10.3c-1.4-4.5-3.2-8.8-5-13.1
		c-2.8-6.7-4.3-13.8-6-20.8c-1-4.1-1.7-8.2-2.6-12.6c2,1.5,1.2,4.1,3.4,5.5c-0.7-2.5-0.7-4.8-2.5-6.5c-1-1-1.1-2.4-1.4-3.6
		c-0.4-0.6-0.9-0.1-1.3-0.1c-8-8.9-10.1-19.4-8.8-31c0.2-0.2,0.5-0.4,0.8-0.6c1.3-0.1,0.4,2.1,2.1,1.6c0.7-0.7-0.1-2.2,0.9-3.4
		c0.6-0.5,1.6-0.9,2.9-0.9c0.9,1,0.5,2.8,1.8,3.8c0.8-0.1,1.6-0.4,2.3-1.2c-0.3-0.9-1-0.3-1.6-0.5c-0.6-0.9-0.7-1.9-0.2-3
		c1-0.9,2.4-0.9,3.5-1.3c1.1,0.5,0,1.9,1.1,2.4c1.4-0.7,0.8-2.2,1.2-3.2c0.6-0.9,1.6-0.9,2.5-1.5c0.9,0.4,1.8,0.8,2.6,1.2
		c0.6,1.6,1.3,3.1,1.2,4.9c-0.2,3.6,1.3,6.8,2.6,10c0.3,0.8,0.9,1.5,1.8,1.7c1-1.4,2.3-1.7,3.8-1c0.6,1.5-0.5,2.6-0.4,3.7
		c-1.4,1.7-3.3,2.3-4.5,4c-2.4,3.5-1.4,7.2-0.6,10.7c1.6,6.7,4.9,12.7,8.2,18.7c0.2,0.3,0.4,0.6,0.5,0.9c3.6,7.2,8.3,13.5,15.1,18.1
		c1.2,0.8,2.1,2,3.4,3.2c1.1-0.2,2.3,0.7,4,1.1c-0.5-0.7-0.7-1.2-0.9-1.3c-4.7-1.8-7.3-6-11.1-8.9c-1.7-1.3-2.9-3.2-3.8-5.2
		c-2-4.4-4.4-8.6-7.3-12.4c-1.2-1.6-1.6-3.2-1.2-5.1c0.6-2.6-0.3-5.6,1.8-7.8c-0.9-2.1-1.8-4.1-2.4-6.2c-0.4-1.3-0.7-2.8-2-3.7
		L867.7,229.2z M850.7,213.1c-0.7,1.9-0.7,3.8,0.9,5.8C852,216.7,851.3,215,850.7,213.1z M892.8,297.1c-1-0.5-2-1.2-3.3-0.3
		C890.5,297.9,891.6,298,892.8,297.1z M893.9,285.1c0.1-1.1-0.3-1.9-0.7-2.8C892.8,283.4,893,284.2,893.9,285.1z M855.7,258.2
		c0.5-0.6,0.2-1.2-0.1-1.7c-0.2-0.4-0.1-1.1-0.9-1.1C854.4,256.6,855,257.4,855.7,258.2z M855.6,208.5c0.5,1.1,1.1,0.9,1.6,0
		C856.7,208.1,856.2,208.2,855.6,208.5z M857.9,213.6c0.3-1.1,0.3-1.8-0.7-2.1C856.8,212.4,857.3,212.9,857.9,213.6z"/>
	<path fill="none" d="M839.5,232.9c4,5.4,7.8,10.7,9.2,17.2c1.7,7.7,3.4,15.5,5.2,23.6c-5.1,0.7-10,1.7-15.1,0.1
		c-4.8-1.6-9.9-2.6-14.2-5.6c2.8,5.3,18,9.3,30.1,8c0.9,2.1,1.8,4.3,2.7,6.5c0.9,2.1,1.9,4.1,2.3,6.6c-3.1-0.6-5.9-1-8.7-1.7
		c-7.3-1.8-14.8-1.4-22.2-2.2c-4.1-0.4-8.2-0.6-12.2-0.8c-6.4-0.2-12.7,0.9-18.8,2.7c-1.5,0.4-2.9,1.2-4.4,1
		c-4-7-8.3-13.6-10.5-21.3c-1.6-6-3.5-12-3.5-18.3c0-2.8,0.5-5.4,2.1-7.8c1.1-1.7,2.1-3.6,2.5-5.5c0.9-3.8,3.1-6.7,5.5-9.6
		c2.9-0.8,5.9-1.1,9.1-1c-0.3,2.4-0.5,4.5-0.3,6.7c0.5,4.7,2.1,6.7,6.7,7.6c9.5,1.9,18.9,1.3,27.8-2.9
		C834.9,235.1,837.1,234,839.5,232.9z"/>
	<path fill="none" d="M781,219.7c-1.2,0.5-1.4,1.4-1.5,2.6c-0.1,2.4-0.3,4.8,0,7.2c0.7,5.3-0.6,10.2-2.9,15
		c-0.2,0.4-0.3,0.9-0.5,1.2c0.4,0.6,1,0,1.6,0.4c-0.4,2.4,0.1,4.8,0.1,7.3c0,4.9,1,9.5,2.8,14.1c1.4,3.5,2.7,6.9,4.1,10.4
		c0.4,0.9,0.8,1.8,1.5,2.5c2.6,2.7,3.7,5.8,4.6,9.5c1,4.4,0.8,8.8,1.3,13.2c0.5,4.3,0.4,8.6,0.6,13c-1.2,0.7-2.4,1.3-3.5,2
		c-1.9,1.1-3.8,0.9-5.5-0.1c-2.4-1.4-5-2.5-6.9-4.7c-2-5.3-4.6-10.4-8.3-14.9c-2.2-2.7-3.3-5.8-3.1-9.6c0.4-7.7,0.2-15.4,0-23.1
		c-0.1-3.5-1.3-6.8-2.2-10.2c-0.7-2.6-1.2-5.1-1.3-7.8c-0.1-3.9-1.8-7.5-2.9-11.1c-0.8-2.4-1.5-4.8-2-7.2c-0.3-1.5-0.6-3-1.5-4.4
		c-1.2-2-0.2-4.5-1.4-7c4.3-1.7,6.3-7.1,12-6.2c-2.1,1.9-4.9,2.9-7.5,5.2c3,0.4,4.5-1.5,6.3-2.2s3.4-2.2,5.9-2.4
		c-1.6,2.3-4,3.2-5,5.4c3.4-0.6,5.2-3.5,7.6-5.1c1.4-0.3,2.3,0.1,3.1,1.1c-1.2,1.9-3.5,2.5-4.7,5.1c3.5-0.8,5-3.8,7.6-4.9
		c1.8,0,2,1.5,2.6,2.6c-0.2,1.2-1.3,2.1-1.2,3.4L781,219.7z M759.8,222.6c0.1-1.6,0.8-2.9-0.7-4.2
		C758.6,220,758.5,221.1,759.8,222.6z M790.7,303.4c-0.9,1.8-0.9,1.8-0.5,4.1C790.7,306,791.1,304.8,790.7,303.4z M773.4,298.9
		c-0.2,1.4-0.5,2.3,0,3.4C774,301.2,773.8,300.3,773.4,298.9z M773.7,255c0.6-0.5,0.8-0.8,0.1-1.2
		C773.4,254.1,773.1,254.3,773.7,255z"/>
	<path fill="none" d="M827.5,659.9c-5.6,1.7-11.1,2.3-17.1,3.5c1.2-2.3,3.4-2.6,4.2-4.2c-3-1.2-5.2,0.5-6.6,7.8
		c-5.4,1.3-10.8,3.5-16.7,2.9c-3.9,2.5-15.4,1.3-19.3-2c2.5-1.2,5.2-0.8,16,2.5c-2.4-3.3-3.9-3.9-13.9-5.4c-1-4.4-0.1-6.7,3.7-9
		c1.5-0.9,3.1-1.9,4.4-3.2c2.7,0.8,5.3,2.5,8,1.2c0.9-0.9-0.2-1.5,0-2.2c2.5-0.8,5.3,1.6,8.2-0.9c-3.6-3.1-7.8-2.1-11.7-2.6
		c0.7-1.4,1.7-1.1,2.6-1c4.1,0.3,8.2,0.6,12.2,0.9c1.2,0.1,2.4,0.5,3.1-1c-1.6-2.9-4.9-3.6-14.1-3c0.8-1.9,0.8-1.9,2.4-1.9
		c4.2,0,8.4,0.9,12.5,1.8c1.4,0.3,2.7,0.9,4.2,0c0-1.8-1.2-2.4-2.4-2.8c-4.2-1.5-8.5-2.6-13-2.4c-0.4,0-0.7,0.1-1-0.2
		c0-1,0.8-1.1,1.5-1.2c3.3-0.4,6.5,0.3,9.6,1c2,0.5,4,1.2,6.3,0.6c-1.7-2.7-1.7-2.7-14.4-4.7c0.6-1.3,1.4-2.5,1.9-3.8
		s0.9-2.7,1.4-4.2c1.9-1.5,4.1-0.4,6.3-0.7c2.3,2.3,4.5,4.8,7.5,6.2c1,0.5,1.2,1.7,1.6,2.7c0.7,1.9,1.5,3.8,2.1,5.4
		c2.4,1.5,4.4,0.3,6.7-0.5c0.2,2.5-0.5,4.9,0.8,7.1c1.2,2.1,1.6,4.5,2.1,6.8C827.1,655.5,827,657.6,827.5,659.9z"/>
	<path fill="none" d="M828.7,677.6c-2-0.2-1.8-1.5-0.9-2.4c3.5-3.5,5.4-8.2,8.4-12c5.5,1.9,11.3,1.9,17.1,1.4
		c0.9-0.1,1.5-0.7,1.5-1.7c-1.9-1.6-8.9-2.6-17.3-2.5c0-0.2-0.1-0.5-0.1-0.7c0.3-0.9,0.6-1.8,1-3.1c2.1,1.5,4.5,1.6,6.8,1.9
		c3.2,0.4,6.4,0.8,9.7,1.1c1.3,0.1,2.7,0.5,3.4-1.3c-0.2-2.1-2-2.5-3.6-2.9c-5.2-1.1-10.4-1.6-15.7-0.7c-0.3-1.1,0.3-1.8,0.8-2.8
		c1.2,0.9,2.6,1.2,4.1,1.1c4.1-0.1,8.2,0.5,12.2,1c1.4,0.2,2.6,0.3,3.5-1.1c-1.5-2.3-3.8-3.2-8.8-3.6c-3.2-0.2-6.4-0.7-9.9,0.7
		c0.3-1.3,1.1-1.8,2-2.3c2.7,0.1,5.6,0.1,8.5,0.5c2.6,0.3,5.1,1.8,8.1,1.2c-1.8-3.4-3.6-4-14.9-5.4c1.5-2.6,2.5-5.2,2.9-8.1
		c0.2-1.2,1-2.1,2.2-2.9c3.2-0.5,6,1,8.7,2.6c1.2,0.7,1.2,1.9,1.4,3.1c0.4,2.6,0.9,5.2,2.4,7.5c2.7-0.1,5.7,1.6,7.5-2.7
		c0.4,4.1,1.3,7.3,2.7,10.4c0.9,2,0.6,4.3,0.7,6.4c0.1,2.4,0.4,4.8,0.7,7.3c-1.9,1.7-0.5,4.2-1.3,6.5c-1.5,0.3-2.9,1.2-4.6,1.9
		c0.1-0.1-0.1,0.1-0.2,0.3c-1.8,4.6-5.4,5.7-9.9,5c-2.2-0.3-4.3,0-6.5,0c-5.8-3.7-12.3-5.5-19.1-5.8
		C830.7,675.6,828.7,675.3,828.7,677.6L828.7,677.6z M846.5,666.6c-0.3-0.9-1.1-1.2-1.9-1.2c-3.1-0.3-7.3,0.1-8.9,0.9
		C840.4,669.2,843.8,669.3,846.5,666.6z M868.1,673.6c1.3-2.2,2.1-4.5,2.4-7.7C868,668.5,867.3,670.8,868.1,673.6z"/>
	<path fill="none" d="M660.9,195.4c2.4,0.3,3.8,1.9,5,3.8c2.3,3.6,3.8,7.5,4.9,11.6c1.4,4.7,2.3,9.5,3.2,14.6
		c-1.3,0.7-2.5,0.7-3.9,0.5c-1-2-1.1-4.3-3-5.8c-1.3-0.6-2.7-0.4-4.1,0c-3.6,4.5-2.6,17.1,1.7,22c4.5,0.5,4.5,0.5,6.4-6
		c1.1-0.5,2.3-0.5,3.4-0.2c0.7,0.6,0.6,1.4,0.7,2.1c0.4,7.8,0,15.6-1.9,23.3c-0.5,2.1-1.2,4.2-2.6,5.9c-1.9,2.5-3.8,2.6-6.1,0.5
		c-1.9-1.9-3.1-4.3-4.2-6.7c-2.5-5.9-4-12.1-5.2-18.3c-1.7-9.5-2-19.1-1.5-28.8c0.3-4.3,0.9-8.6,2.4-12.7
		C657.1,198.6,658.1,196.2,660.9,195.4z"/>
	<path fill="none" d="M980.9,236.3c2.2-2.8,2.9-6.2,3.6-9.6c1-5.2,0.9-10.5,0.9-15.8c0-0.8-0.2-1.6,0.2-2.4c1,0.3,0.9,1.1,1,1.8
		c0.4,8.2-0.1,16.3-2.2,24.3c-0.7,2.4-1.5,4.9-3.6,6.5c-0.6,0.5-1.2,0.8-2.1,0.8c-2.4-0.5-3.7-2.4-4.9-4.3
		c-2.8-4.4-4.3-9.4-5.6-14.4c-3.2-12.6-4.1-25.4-3-38.3c0.3-4.2,1-8.4,2.8-12.2c0.8-1.9,1.7-3.9,4-4.2c2.5-0.3,3.9,1.6,5.1,3.4
		c3.5,5.4,5.3,11.5,6.7,17.7c0.5,2.3,0.9,4.7,1.4,7.1c0.1,0.7,0.5,1.4-0.8,1.9c-1-2.7-1.4-5.5-1.8-8.2c-0.9-6.4-3-12.3-6.5-17.8
		c-0.9-1.5-1.9-2.7-4-2.7c6.9,8.5,9.1,18.5,10.6,28.6c-1,0.4-1.4,0.2-1.7-0.5c-0.2-0.7-0.4-1.4-0.7-2c-1.4-3.6-2.4-4-6.9-2.7
		c-2.5,6.2-1.1,12.6,0.6,19.2c-1.8,4.1-2,8.7-3,13.2c-0.5,2.2,0.5,4,1.7,5.7c1.7,2.3,3.9,2.2,5.6-0.1c0.4-0.6,0.6-1.3,0.9-1.8
		c1.1-0.3,2,0.8,3-0.3C982.9,231.9,981.2,234,980.9,236.3c-0.8,0.3-1.2,0.9-1.4,1.8C980.7,237.5,980.7,237.5,980.9,236.3z"/>
	<path fill="none" d="M657.4,195.8c-5.4,9.9-5.3,20.6-4.8,31.2c0.4,9.7,1.8,19.4,4.8,28.7c1.6,5,3.6,9.9,7.6,13.7
		c-5.6,1.6-8.6,0.5-11.5-4.3c-3.3-5.4-4.9-11.5-6.2-17.6c-2-9.1-2.9-18.3-2.6-27.6c0.2-5,0.4-10.1,1.8-15c0.3-0.9,0.5-1.9,0.8-2.8
		C649.3,196.6,650.8,195.6,657.4,195.8z"/>
	<path fill="none" d="M968.6,168.7c-5.4,10.1-5.3,21.1-4.8,32c0.4,9.5,1.8,18.9,4.8,28c1.7,5,3.5,9.9,8.2,14.3c-2.2,0-3.7,0-5.1,0
		c-2.5,0-4.4-1.1-5.8-3.1c-2-2.8-3.3-5.8-4.4-9c-2.1-5.9-3.3-12-4.3-18.2c-1.4-8.8-1.7-17.7-0.8-26.6c0.4-3.8,1-7.6,2.3-11.3
		C960.6,169.5,962.7,168.2,968.6,168.7z"/>
	<path fill="none" d="M837.6,221.5c0.4,3.2,1.2,6.2,1.1,9.3c-5.1,3.6-16.1,7.4-20.8,7.2c-0.6-1.4,0.5-2.8,0-4.3
		c-1.9,1-1.4,3.2-2.5,4.6c-3.8,0.3-7.6-0.2-11.3-1.3c-2.5-0.8-3.8-2.4-3.8-5.1c0-2.5-0.2-5,0.7-7.6
		C813.3,223.2,825.4,222.2,837.6,221.5z M820.3,228.2c-0.7-0.1-1.2,0-1.2,0.9C820,229.3,820.4,229.2,820.3,228.2z"/>
	<path fill="none" d="M955,203.7c0.3,1.6,0.5,3,0.8,4.9c-30.8,3.1-61.5,5.7-92.1,8c-1-2.3-1-2.3-0.9-5.1
		C893.5,209.4,924,205.7,955,203.7z"/>
	<path fill="none" d="M667.5,233.6c-0.8-0.7-0.7-1.5-0.8-2.2c-0.1-0.8-0.2-1.7,0.5-2.9c28.4-2.5,57-4.9,85.7-7.1
		c0.7,1.3,0.6,2.6,0.5,4.1c-1.6,0.9-3.4,1.1-5.1,1.2c-11.8,1.2-23.7,2.6-35.5,3.4c-14.9,1-29.7,2.7-44.5,3.7
		C668.1,233.8,667.9,233.7,667.5,233.6z"/>
	<path fill="none" d="M978.7,206.7c-0.7-1.9-0.9-3.4-0.3-5.3c20.3-1.8,40.7-3.5,61.4-5.4c0.1,1.7,0.3,3.3,0.5,5.4
		C1019.8,203.2,999.4,205,978.7,206.7z"/>
	<path fill="none" d="M780.9,219.8c2.1-2,4.9-1.8,7.5-2c15.7-1.4,31.4-2.6,47.1-3.9c0.5,0,0.9,0,1.6,0c0.3,1.6,0.6,3.1,0.9,5
		c-18.9,1.8-37.7,3.6-56.5,4.6C780.7,222.1,781,220.8,780.9,219.8L780.9,219.8z"/>
	<path fill="none" d="M593.6,240.3c-1.2-2-1.6-3.6-0.3-5.4c16.6-1.4,33.3-2.9,50.3-4.4c0.6,1.7,0.7,3.3,0.8,5.3
		C627.3,237.4,610.5,238.8,593.6,240.3z"/>
	<path fill="none" d="M854.7,180.1c-0.3-1.8,0.3-3.6,0.5-5.4c0.1-0.7,0.7-1.9-1.1-1.7c0.8-5.2,3.3-9.8,2.7-15.7
		c-2.3,8-3.1,15.6-6,22.7c0.6-7.5,3-14.7,3.3-22.6c2-2.8,4.2-5.9,1.8-9.8c0.9-1.4,1.8-2.7,2.8-4.3c0.6,4.2,0.7,7.9,0.3,11.7
		c-0.7,7.2-1.2,14.4-3,21.4C855.7,177.7,855.7,179.1,854.7,180.1L854.7,180.1z"/>
	<path fill="none" d="M862.2,209.4c-0.7-3.4,0.9-6.2-0.1-9.8c5.6,3.2,10.8,5.7,16.3,8.1C873.2,208.3,867.8,208.8,862.2,209.4z"/>
	<path fill="none" d="M977.4,211.1c-0.1-0.9-0.3-1.6-1-2.2c-0.6,0.5-0.2,1.6-1.2,1.8c-2.1-0.1-2.3-13-0.2-16.6
		c0.9-0.4,1.8-0.4,2.9,0c1.3,1.2,1.8,2.9,2.2,4.5c-1,1-2.2,0.5-3.1,1.2c-0.6,3.9-0.4,5.4,1,8.7c0.7,0.9,1.8,0.2,2.7,0.7
		c0.5,0.9,0.2,1.8-0.4,2.6c-0.9,0.1-0.6-1.2-1.4-1.3C978.2,210.1,977.9,210.8,977.4,211.1L977.4,211.1z M974.9,200.1
		c-0.2,2-0.9,4.1,0.7,6C975.8,204.1,975.1,202.2,974.9,200.1z"/>
	<path fill="none" d="M856,120.7c-2.3-0.5-3.5-2.7-5.4-3.5c-0.7-1.1,0.6-1.3,0.5-2c-0.7-0.1-1.4-0.2-2.1-0.3
		c0.2-0.3,0.2-0.6,0.3-0.7c4.7-2.6,7.9-1.3,9.4,3.9c0.9,3,0.8,6.1,0.9,10.1C858.3,125.3,857.2,123.2,856,120.7z"/>
	<path fill="none" d="M977.4,211c0.2,5.2,0.4,10.3-0.1,15.5c-0.1,1.4-0.1,2.9-1.6,4.1c-1.8-1.2-2.8-2.8-2.5-5
		c0.5-3.4,1.2-6.9,1.9-10.3C975.5,213.7,976.1,212.2,977.4,211L977.4,211z"/>
	<path fill="none" d="M808.9,202.8c-2.2,3.6-3.5,7.7-5.6,11.3c-1.9,0.6-3.8,0.6-5.8,0.6C799.1,208.5,803.7,205.4,808.9,202.8z"/>
	<path fill="none" d="M798,209.3c-1.2,1.9-2.4,3.8-3.7,5.7c-3.7,0.3-7.4,0.8-11,0.2c-0.5-1.1-0.2-1.8,0.7-2.1
		c1.2-0.4,2.5-0.9,3.7-1.2C791.2,211.3,794.5,210.1,798,209.3z"/>
	<path fill="none" d="M867.6,229.1c-0.2,1.9,0.7,3.5,1.1,5.2c0.5,1.9,1.3,3.9,0.7,6c-5-3.4-6.5-8.6-3.7-12.9c1.1,0.1,1,1.5,1.9,1.9
		V229.1z"/>
	<path fill="none" d="M856.8,139.5c-0.9-0.1-1.7,0.2-2.4,0.5c-2.8,0.9-5.4,0.7-8.1-0.9c2-0.6,3.9,1.3,6.1-0.2
		c-2.6-0.6-4.8-1.2-7.4-1.8c2.9-0.9,5.6-0.2,8.2-0.6c0.5-2.5,3.2-2.3,4.8-4.2c0.6,3.8-3,3.8-4.3,5.6c1.8,0.6,2.6-1.1,4.1-1.4
		c0.8,1.4-0.6,2.1-0.9,3.1L856.8,139.5z"/>
	<path fill="none" d="M668.4,241.1c-4.2-5.2-5.2-15.1-2.2-20.1c1.8,1.1,2.1,3,2.7,4.9c-1.2,0.3-2.2,0.5-3.3,0.8
		c-0.6,3.2-0.4,6.2,0.8,8.4c1.2,1.6,2.3,0.4,3.2,1.3C669.8,237.8,668.9,239,668.4,241.1z"/>
	<path fill="none" d="M787,225.9c-2.4,3.3-2.8,7.4-5.9,10.6c0-3.7,0-6.8,0-10.2C783.1,226.2,785,226.1,787,225.9z"/>
	<path fill="none" d="M854.8,194.7c2,1.2,3.7,2.3,5.3,3.3c0.4,1.3,0.1,2.4-0.6,3.7c-2-0.5-4.1-0.9-6.2,0.6
		C853,199.5,854.3,197.3,854.8,194.7z"/>
	<path fill="none" d="M983.6,224.1c-1.3-2-1.2-3.9-0.6-5.5c-0.3-2-1.4-3.2-2-4.9c1.3-1.4,0.1-3.9,2.3-5.4
		C985.7,213.7,983.4,218.9,983.6,224.1z"/>
	<path fill="none" d="M663.6,221.4c-0.8,6.6-0.2,13,2.3,19.2c-1.9-0.9-2.1-1-3.1-5.1C661.7,230.7,661,225.9,663.6,221.4z"/>
	<path fill="none" d="M821.4,120.1c0.3-2.2,2.8-2.3,3.8-3.9c-1.4-0.5-2.2,1.1-3.4,0.8c2-2.7,4.8-3.6,10.9-3.2
		c-1.3,0.5-2.1,0.8-3,1.1c-0.9,0.3-1.8,0.5-2.7,1.2c0.4,0.2,0.8,0.5,1.4,0.8C825.7,117.4,824.1,119.8,821.4,120.1L821.4,120.1z"/>
	<path fill="none" d="M828.6,677.7c5.7,0.2,11.4,0.7,16.9,3.2c-0.9,0.8-1.6,0.3-2.3,0.1c-2.2-0.6-4.4-1-6.7-1c-2,0-4.1-0.3-6-0.9
		C829.7,678.9,828.7,678.7,828.6,677.7L828.6,677.7z"/>
	<path fill="none" d="M979.7,216.3c2,3.1,0.9,6.7,1.7,10c0.1,0.5-0.3,1.1-1.4,1.1c-1-1.7-0.1-3.6-0.2-5.4
		C979.6,220.1,979.7,218.2,979.7,216.3z"/>
	<path fill="none" d="M650.3,262c-3.5-2.1-4-4-3.7-10.9c1.2,1.8,1.2,3.7,1.8,5.3C649.1,258,649.6,259.7,650.3,262z"/>
	<path fill="none" d="M837.1,114.9c-1.8,0-3,1.2-4.7,0.5c4.4-1.7,8.7-1.6,13,0.1C843.3,117.1,842.7,117,837.1,114.9z"/>
	<path fill="none" d="M868.8,243c-0.1,0.8-0.2,1.5-0.3,2.2c0,0.2-0.2,0.4-0.3,0.6c-0.7,0-1.9-3.2-2.5-6.3c0.5,0.6,1,1.2,1.4,1.7
		C867.6,241.7,868.1,242.3,868.8,243z"/>
	<path fill="none" d="M851.8,111.9c-1.9,0.9-3.6,1.7-5.6,2.6C847.9,111.1,848,111.1,851.8,111.9z"/>
	<path fill="none" d="M851,167.6c0.4-2.6,0.7-5.2,1.1-7.7c0-0.2,0.4-0.3,0.6-0.4C852.8,163,852.3,165.3,851,167.6L851,167.6z"/>
	<path fill="none" d="M850.9,167.6c0.5,2.6-0.6,4.9-1,7.4C849,172.3,850.2,170,850.9,167.6L850.9,167.6z"/>
	<path fill="none" d="M849.6,141.6c-1.7,0.2-3.3,0.1-4.9-1.3C846.7,140.2,848.1,141,849.6,141.6L849.6,141.6z"/>
	<path fill="none" d="M854.6,152.6c0.3-1.6-0.9-2.9-0.7-4.5l-0.1,0.1c1.7,1.9,1.8,2.4,0.6,4.3L854.6,152.6z"/>
	<path fill="none" d="M849.9,164.4c-0.4-1.2-0.6-2.1,0.4-3.1C851.1,162.5,850.2,163.3,849.9,164.4z"/>
	<path fill="none" d="M851.6,181c0.2,1.9-0.3,2.6-0.9,3.4c-0.5-0.1-0.6-0.5-0.4-0.7C850.6,182.9,851,182.2,851.6,181z"/>
	<path fill="none" d="M854,148.1c-0.8,0.2-1.7,0.5-2.7,0.8C852.6,147.4,852.6,147.4,854,148.1L854,148.1z"/>
	<path fill="none" d="M785.6,651.1c-0.5,0.5-0.9,0.5-1.4,0.2C784.6,649.9,785,650.2,785.6,651.1z"/>
	<path fill="none" d="M380.7,422.8c16.6-4.5,32.1-5.5,48.9-0.4c0,2.9-0.4,5.8-0.7,8.7c-1.1,10.4-2.4,20.8-4.4,31.1
		c-0.7,4-0.7,8.1-1.1,12.2c-0.1,1-0.1,2-0.4,2.8c-2.2,6.1-2.1,12.5-3.2,18.8c-1.1,6.4-0.6,12.9,0.4,19.4c1.2,7.6,2.1,15.3,3.1,22.9
		c0.4,3.1,1,6.2,1.5,9.3c1.1,7,0.1,13.9-0.3,20.9c-0.7,11.4-3.5,22.3-6.2,33.3c-1.8,7.2-3.3,14.5-4.9,21.8c-1,4.4-1.7,8.7-1.3,13.1
		c0.1,1.9,0.6,3.8,0.4,5.8c-0.9-0.3-1.5,0.5-2.3,0.8c-2.6-2.7-1.4-7.1-4.4-10c-2.4-1.6-5.2-3.2-8.7-3.1c-0.8-3.3,0-6.5-0.1-9.7
		c-0.2-6.2,0.6-12.5-0.1-18.7c-0.8-8-2.1-16-2.6-24c-0.3-4.7-1.6-9.2-2.1-13.8c-1.1-9.2-0.9-18.3,1.3-27.2c1-4.2,0.8-8.5,1-12.7
		c0.1-1.9-0.7-3.9-1.1-5.9c-0.5-2.4-1-4.7-0.9-7.1c0.1-1.5-0.3-2.9-1.1-4.1c-1.2-1.8-1.5-3.7-1.8-5.8c-0.4-3.9-1.3-7.8-1-11.8
		c0-0.6,0-1.2-0.3-1.8c-2.5-6.4-2.3-13.2-3.1-19.9c-1-9-2.2-17.9-2.6-26.9c-0.1-1.6-0.3-3.1,0.1-4.7c0.5-2-0.5-3.8-1-5.6
		C381.1,427.9,380.1,425.5,380.7,422.8z M402.5,513.5c-1.1-2.1-1.3-4.4-2.9-6c-0.3-1.5,0.8-3.2-0.6-4.5
		C396.1,507,397.8,512.1,402.5,513.5z M400.1,531.2c-0.5,2,0.1,3.6,1.3,5.8C402,534.4,401.8,532.6,400.1,531.2z M412.4,506
		c-0.5,1.8-0.7,3.6,0.6,5.2C412.9,509.5,413.8,507.6,412.4,506z M402,542c-0.1,1.9-0.3,3.3,0.5,5.3C403.2,545.1,403.8,543.7,402,542
		z M408.7,627.7c1-0.5,1.1-1,0.4-1.6C408.3,626.4,408.2,626.9,408.7,627.7z"/>
	<path fill="none" d="M347.4,207.1c2.7-1.2,5-2.9,7.5-4.5c-2.7,4.7-4.4,9.8-7,14.5c-1.9,3.4-3.2,7-3.6,10.9c-0.2,2.1,0,4.1,0.6,6.1
		c0.8,2.6,2.3,4.2,5.2,4.8c8.9,1.8,17.7,1.7,26.2-1.8c3.3-1.4,6.6-2.9,9.8-4.5c2.1-1,3.6-2.7,5-4.6c3-4,4.4-8.5,5.5-13.2
		c1.3-5.6,1.8-11.4,3.3-17c0.2-0.9,0.3-1.9,1.2-2.8c1.8,1.1,3.8,1.8,5.2,3.4c-1.2,8.8-1.7,17.6-0.6,26.3c1,8,3.1,15.8,6.6,23.1
		c1.1,2.4,1.6,4.6,1.3,7.3c-0.6,4.4-0.5,8.9-0.1,13.2c-4.4,3.3-9.4,4.3-14.3,5.3s-9.9,1.6-14.8-0.1c-4.7-1.6-9.7-2.5-13.9-5.5
		c0.6,2.1,2.2,2.8,3.7,3.6c4,2,8.5,2.6,12.7,3.8c8.8,2.5,16.6,0,24.2-4.1c0.7-0.4,1.4-0.8,2.6-1.4c0.8,7.1,2.7,13.9,0.9,21
		c-2.4-0.4-4.7-0.6-6.8-1.2c-11.1-3.1-22.5-3.8-33.9-4.6c-7.3-0.5-14.6-1.1-22,0.1c-4.5,0.8-8.8,2.2-13.4,3.5
		c-1.4-5.5-4.7-9.7-8.2-13.9c-2.5-3-4.8-6-6.6-9.4c-1.1-2-1.7-4-1.7-6.2c0.2-6.4,1.1-12.7,5.1-18.1c1.4-1.9,2.4-4.2,3-6.5
		c0.6-2.4,1.8-4.4,3.2-6.4C338.4,221.6,343.2,214.7,347.4,207.1z"/>
	<path fill="none" d="M342.9,356.3c-0.3,0.4-0.5,0.7-0.9,1.2c-0.9-0.2-2-0.5-3.1-0.8c0-1.4-0.5-2.9,1.3-3.6c-1.2-1.9-0.5-4-0.4-6.1
		c0.3-4.3,1.1-8.6,1.1-12.9c0.1-14.3,0.7-28.6-2.1-42.9c3.7-1.5,7.4-2.2,11.2-2.8c7.6-1.2,15.3-1.2,23-0.3c4.5,0.5,9.1,0.6,13.7,0.8
		c6.5,0.2,12.9,1.1,19.2,3.1c-0.6,1.5-2,2.1-2.9,3.8c2.3-0.7,3.2-2.3,4.2-3.6c2.2,0.4,4.4,0.5,6.2,1.4c0.5,0.6,0.3,1.1,0.1,1.5
		c-2.2,4.4-2.4,9.2-2.6,14c-0.1,1.1,0,2.1-0.4,3.2c-3.1,9.9-4.8,20.1-5.3,30.4c-0.3,5.1-0.4,10.3-1.3,15.4c-1.1,0.9-2.5,1.1-3.8,1.1
		c-6-0.2-12,0.9-17.9,1.6c-11.5,1.4-22.8,0.4-34-2C346.2,358.4,344.7,357.2,342.9,356.3z M365.5,335c2,1,3.6,1.6,5.3-0.3
		c-0.8-0.9-1.5-1.6-2.2-2.2C366.6,333.1,366.6,333.1,365.5,335z M350.3,329.4c-0.5,1.5-0.5,2.9-0.2,5.2
		C351.3,332.3,351.3,330.9,350.3,329.4z M351.6,349.4c0.5-1.4-0.5-2.2-0.8-3.4C350.4,347.3,350.9,348.3,351.6,349.4z"/>
	<path fill="none" d="M413.3,228.4c0.1,1.9,0.8,3.7,1.4,5.6c0.8,2.7,1.3,5.3,0.3,8.1c-0.4,1.2-0.4,2.6-0.6,3.9
		c-1.2-0.2-1.1-1.2-1.4-1.9c-4.4-11-6.5-22.4-5.4-34.2c0.2-1.9,0.5-3.8,0.7-5.7c0.2-1.3,0.7-2.5-0.1-3.6c1.3-0.7,1.9,0.2,2.6,0.6
		c3.5,1.9,7.1,3.6,10.8,5c3.5,1.3,6.8,3,9.7,5.4c1.4,1.1,3,2,4.7,2.7c2.2,0.8,3.6,2.3,4.5,4.4c2.4,6.2,4.2,12.3,4.1,19.2
		c-0.3,9.5-1.8,18.9-3,28.3c-0.7,5.5-2.1,10.8-3.4,16.2c-0.3,1.4-0.9,2.4-2.1,3c-0.7,3.6-0.8,7.1-0.1,10.5c0.9,4.8,0.4,9.6-0.2,14.4
		c-1.2,9.4-3.3,18.7-5.6,27.9c-0.9,3.4-2.6,6.5-3.8,9.7c-1.5,3.8-3.2,7.5-4.4,11.4c-1.1,3.3-2.8,6.3-4.5,8.7c-0.1,1.4,0.5,1.2,1,1.5
		c0.1,1.6-0.8,3.1-0.8,4.7c-3.5,2.1-4.2,3.3-3.3,5.9c1.3,0.3,1.3-1.3,2.3-1.4l0.2,0.1c-0.1,1.6-0.2,3.3-0.2,5
		c-1.2-0.1-1.1-1.4-2.1-1.7c0,1.5,0.7,2.4,1.8,3.2c1.1,0.9,0.8,2.4,1.7,3.6c-2,2.1-3,4.5-3.1,7.2c-0.1,1.7-0.8,3-2.3,3.8
		c-1.8,1-3.7,1.6-5,3.3c-0.3,0.3-1.1-0.5-1.7,0.4c0.8,1.8,3.6,2,3.2,5.2c1.5-2.1,0.8-3.2,0.5-4.4c2.6-0.1,5.3-0.4,8,0
		c-0.4,1.2-0.7,2.2-1.1,3.4c-3.3,0.7-6,2.7-9.4,3.8c-2.1-1.6-5.1-0.2-7.6-2.3c-0.6-2-2.1-4-1.7-6.6l-0.1,0.1
		c0.4-0.2,0.7-0.5,1.1-0.7c-0.1-0.7-0.7-0.5-1.1-0.8v0.1c0.5-1.5,1-2.9,1.5-4.4c0.5-1.4,1.4-2.5,3.3-2.6c1.5,2.4-1,3.8-1.7,6
		c1,2.6,1.3,5.7,2,9.2c1.7-1.7,0.7-3.3,0.7-4.8s-1.3-2.8-0.6-4.5c0.3,0.6,0.5,1.1,1,2.1c0.3-2.3,0.3-4.2,2.4-5.8
		c1.4-0.4,3.4-0.9,5-2.2c0.1-1.5-1.3-0.7-1.9-1.3c-0.4-0.4,0.3-1-0.2-1.6c-1.3,0.2-1.2,1.5-2,2.5c-0.6,0.1-1.4,0.3-2,0.5
		c-1.4-0.1-1.9-1.3-3.1-1.7c-1-0.4-1.9,0.7-3,0.6c-0.7-0.4-1.3-0.9-1.9-1.3c0-1.4-0.1-2.7,0-4.1c0.2-3.4,0.9-6.6,3.3-9.3
		c2.3-2.5,3.4-5.5,3.5-8.9c0.1-1.3,0.2-2.6,0.6-3.9c2.9-9,3.9-18.3,3.8-27.7c-0.1-7.8,1.7-15.2,3.7-22.7c0.3-1.2,0.8-2.3,0.6-3.5
		c-0.6-3.1-0.1-6,0.9-8.9c3.7-10.4,3.8-21.1,3-32c-0.7-9.1,0.2-18.3,1.5-27.3c0.3-2.1,0.2-4-0.6-5.9c-0.8-1.9-1.3-3.9-2.1-5.7
		C414.8,230.8,414.5,229.3,413.3,228.4c0.2-1.3-0.2-2.2-1.5-2.8C411.9,226.8,412.3,227.7,413.3,228.4z M410.4,366.6
		c-0.9,2.2-2.5,4.2-1.4,6.8C409.3,371.1,410.5,369,410.4,366.6z M427.4,290.4c-1.7,0.5-3.4,1-4.7,3.1
		C425.2,293.3,426.3,291.8,427.4,290.4z M408.8,379.2c-0.8-1.2-0.5-2.5-0.7-4c-1,1.1-1.6,2.1-1.6,3.4
		C407,379.2,407.7,379.4,408.8,379.2z M441.5,242.8c-1.1,1.4-1.9,2.1-2.2,3.8C440.5,245.5,441.4,244.9,441.5,242.8z M405.2,378.8
		c-1.2,0.4-1.8,1-1.5,2.5C404.7,380.6,405.3,380.1,405.2,378.8z M430.2,287c-0.6-0.1-0.9,0.2-1,0.5c-0.1,0.4-0.3,0.9,0.4,0.9
		C430.2,288.1,430.7,287.8,430.2,287z M404.4,390.4c0.3,0.9,0.9,1.1,1.7,0.6C405.7,389.9,405,390.1,404.4,390.4z"/>
	<path fill="none" d="M344,209.4c-3.7,5.9-7.5,11.7-11.1,17.7c-3.6,6.1-7.3,12.2-10.3,18.6c-2.8,6-3.7,12.4-1.9,19
		c0.5,2,1.3,3.9,2.6,5.5c2,2.5,3.8,5.2,6.1,7.4c1.1,1.1,2.4,2.1,2.6,3.8c0.2,1.5,2,1.7,2.7,3.1c-0.9,3.6,0.5,7.3,0.6,11.1
		c1.5-0.4,1-1.9,1.7-2.6c0.6,0.2,0.9,0.6,0.8,1.1c-0.3,5.3,0.5,10.5,0.7,15.8c0.5,12.2-0.2,24.3-0.6,36.4c0,0.7-0.1,1.4-0.3,2.1
		c-2.5,10.7-3.7,21.5-3.2,32.6c0.2,4.8-0.1,9.6,0.7,14.6c-4.7,1-9.1,0.7-14.1-0.9c2.2-2.2,2.9-4.5,2.7-7.1c-0.9,2.2-2.6,4-3.1,6.2
		c-4.5,3.4-8,2.1-10.8-2c-1.1,0.2-1,1.3-1.9,1.8c1.5,1.4,3.6,2,4.9,3.9c-0.5,1.3-0.4,2.9-1.9,4.2c-2.2-0.2-4.4-0.5-6.3-1.8
		c-1.2-2.5,0.3-5.1-1-7.7c4.1-2.6,5.8-7.3,10.5-8.9c2-0.6,3-2.7,4.4-4.3c-0.1-2.8,0.4-5.6,0.7-8.5c1.1-9.3-0.1-18.5-0.3-27.7
		c-0.2-9.8-1.7-19.7,0.3-29.5c0.9-4.6,2.1-9.1,2.7-13.8c0.4-3,0.4-6-0.4-8.9c-2.1-8.4-2.4-16.9-2.2-25.5c0.2-5.3-0.7-10.3-2.2-15.2
		c-0.8-2.7-1.1-5.4-1.3-8.2c-0.2-3.5,0.4-6.9,0-10.4c-0.2-2,0.6-4,1.5-5.8c1.1-2,2.1-4.1,3.2-6.1c0.8-1.4,1.8-2.6,3.2-3.3
		c2.6-1.2,5.2-2.6,7.9-3.5C335.8,211.4,339.8,210.5,344,209.4z M327.9,359.7c1.5-2.4,1.5-2.4,0.3-3.8c-0.2,1.3,0.3,2.7-0.2,3.9
		c-0.6,0.6-0.8,1.3,0,2.2C328.3,361.1,328.1,360.4,327.9,359.7z M326.2,377.4c1.5-2,1.4-4.2,0.8-6.4
		C326.1,373.1,324.8,375,326.2,377.4z M327.2,308.2c2.1-0.8,4.1-1.8,5.8-4C329.9,304.3,328.6,306.4,327.2,308.2z M336.1,297.7
		c-1.4,1.3-0.9,2.6-0.6,4.2C336.6,300.4,337,299.3,336.1,297.7z M330.1,380.5c0.9,1.3,2.1,1.6,3.7,1.7
		C332.6,380.9,332.1,379.4,330.1,380.5z M324.6,297.7c0.9,2.8,0.9,2.8,2.9,4.3C326.7,300.3,326,299,324.6,297.7z M323.9,384.3
		c0.9-0.6,1.3-1.3,0.9-2.3C323.6,382.5,323.5,383.3,323.9,384.3z M327.6,368.2c0.7-0.9,0.7-1.8,0-2.8
		C327,366.5,326.8,367.4,327.6,368.2z"/>
	<path fill="none" d="M337.2,396c0.6-6.4-1.3-12.1-0.5-18c0.1-0.9,0.2-1.7,1.4-1.7c-0.4-0.4-1.1-0.6-1.1-1.2
		c0-5.3,0.4-10.5,1.5-15.9c4.6,1.1,9,2.1,13.5,3.1c11.4,2.5,22.9,2.7,34.4,0.8c5.2-0.9,10.5-1.3,15.8-1.8c0.5-0.1,1-0.1,1.6,0.6
		c-1.5,5.2-1.6,11.1-5,16.2c-3,0-5.6,1.2-9,2.7c3.2,0.1,5.3-1.6,7.9-1.3c-1.7,3-2.5,6.1-2.6,9.3c-0.1,1.9-0.3,4-2.3,5.9
		C374.8,395.1,356.3,395.5,337.2,396z M339.4,381.1c3.2,1.2,6.4,2.2,9.8,2.4C346,382.1,342.7,381.4,339.4,381.1z M374.1,394
		c0.1-2.1,0.1-4.1-1-6.4C372.6,391.6,372.6,391.6,374.1,394z M386.2,387.8c1.6-0.1,2.9-0.6,4.5-1.9
		C388.7,386.1,387.5,386.9,386.2,387.8z M372.4,373c0.3-0.6,0.4-1.1-0.4-1.3C371.4,372.4,371.9,372.7,372.4,373z M341.2,377.3
		c0.5,0.4,0.9,0.6,1.4,0.2C342,377.4,341.6,377.4,341.2,377.3z"/>
	<path fill="none" d="M319.8,664.9c-0.6-4.6,1.1-7.7,5-9.6c1.3-0.6,2.4-1.6,3.6-2.5c2.6,0.7,5.2,2.5,7.9,1.1c0.7-0.9,0.1-1.4,0-1.9
		c2.4-1.3,5.3,1.6,8-1.1c-3.5-3.2-7.7-2-11.5-2.6c0.5-1.5,1.7-1.1,2.7-1c4.1,0.3,8.2,0.6,12.2,0.9c1.2,0.1,2.4,0.5,3.1-1
		c-1.7-2.8-2.6-3-14.5-3.1c0.4-1.6,1.4-1.9,2.9-1.9c4.2,0.1,8.3,0.9,12.5,1.8c1.3,0.3,2.5,0.8,3.9,0.1c0.5-1.6-0.6-2.2-1.7-2.7
		c-4.3-1.7-8.7-2.7-13.3-2.6c-0.5,0-0.9,0.3-1.3-0.2c0.3-1.3,1.3-1.2,2.3-1.3c3-0.2,6,0.3,8.9,1.1c2.1,0.5,4.1,1.2,6.2,0.7
		c0.5-1.3-0.4-1.6-1.2-2c-3-1.6-6.4-2.1-9.7-2.4c-1.2-0.1-2.3-0.1-3.7-0.2c1.8-2.7,3-5.4,3.6-8.3c2.1-1.1,4.3-0.5,6.5-0.5
		c2.2,2.2,4.2,4.6,7.2,5.9c0.8,0.3,1.1,1.2,1.4,2c0.6,1.5,1.2,2.9,1.7,4.4c1,2.5,2,3.1,4.7,2.5c0.9-0.2,1.7-0.9,2.9-0.7
		c-0.7,3.5,0.6,6.5,1.8,9.7c1.1,3.1,1.4,6.5,1.7,10.2c-5.4,1.8-11.1,2.3-16.9,3.6c0.8-2.4,3.5-2.4,4.1-4.5c-3.5,0-4.7,1.1-5.4,4.1
		c-0.3,1.2-1.1,2.4-1,3.9c-5.7,1.5-11.1,3.6-17.1,2.9c-1.6,2-3.9,1.6-6.2,1.4c-8.7-0.7-10.4-1.2-13.1-4c6-0.1,11.3,1.1,16.5,3
		C330.4,665.9,325.1,665.8,319.8,664.9z"/>
	<path fill="none" d="M374.2,677.7c-1.2-0.6-1.1-1.7-0.5-2.4c3.5-3.7,5.5-8.3,8.4-12.3c5.3,2.1,10.7,1.8,16.2,1.7c1,0,1-0.1,2.7-2
		c-2.7-2.4-5.9-1.3-8.8-1.7s-5.9-1-9.2-0.5c0.4-1.3,0.8-2.4,1.1-3.7c5.7,2.3,11.8,1.7,17.6,2.8c1.1,0.2,2.2-0.1,2.5-1.5
		c-0.4-2-2.2-2.4-3.8-2.7c-5.2-1.1-10.4-1.6-15.6-0.6c-0.2-1,0.3-1.6,0.6-2.4c4.2,1.4,8.6,0.5,12.9,1.4c1.4,0.3,2.9,0.4,4.3,0.5
		c1.3,0.1,2.4,0,2.9-1.5c-2.9-3.2-11.8-4.5-18.8-2.8c0.4-1.2,1.3-1.7,2.3-2.3c2.6,0.2,5.4,0.3,8.1,0.6c2.7,0.2,5.2,1.6,8.5,1.4
		c-1.6-3.5-4.5-3.6-7-4.4c-2.5-0.8-5.2-1-8.1-0.8c0.3-2.2,2.2-3.6,2.3-5.7c0.1-2.1,0.7-4,2.4-5.4c3.7-0.5,5.2,0,9.8,3
		c1.1,3.1,1,6.7,2.9,9.7c5.3,0.6,5.3,0.6,7.8-1.8c0.2,3.6,1.3,6.8,2.5,10.1c0.7,2,0.7,4.3,0.7,6.4c0,2.3,0.2,4.6,0.7,6.8
		c-1.8,1.9-0.5,4.3-1.2,6.5c-1.6,0.7-3.3,1.5-4.9,2.3c-0.3,0.6-0.7,1.1-0.9,1.6c-1.2,2.6-3.2,3.6-6.1,3.7c-3.1,0-6.2-0.7-9.2,0
		c-5.8-3.8-12.1-5.4-18.8-6C376.8,675.5,374.9,675.6,374.2,677.7L374.2,677.7z M392.8,667.1c-1.7-2.6-3.9-1.6-5.6-1.6
		c-1.8-0.1-3.9-0.5-6,0.9C385.1,668.3,388.6,669.4,392.8,667.1z M414.1,673.6c1.3-2.2,2.3-4.4,2.2-7.6
		C414,668.5,413.5,670.9,414.1,673.6z"/>
	<path fill="none" d="M328,419.4c-0.6-3.4,1-6.5-0.7-9.9c6.6,4.5,8.7,1.9,11.2-3.3c7.6-1.1,15.3-0.7,23-1c3.4-0.1,6.7,0,10.1-0.2
		c1.3-0.1,2.3,0.1,2.9,1c1-0.1,0.8-0.8,1.3-1.2c3.5,0,7,0,10.6,0c1.3,1.7,1.7,4.2,4.2,4.8c2.2,0.6,4.4,1,6.6,1.5
		c0.3,0.1,0.8-0.2,1.1,0c2.6,1.9,5.8,0.9,8.6,2.2c3.1-1.2,6.2-2.4,9.3-3.6c1.2-0.5,1.9-1.4,2.2-2.7c0.2-0.9,0.3-1.9,1.1-2.9
		c3.8-0.7,7.8-0.2,12.3-0.3c-0.7,5.2-1.3,10.1-1.9,15.1c-3.5-0.7-6.9-1.3-10.2-2.2c-1.8-0.5-3.5-0.6-5.3-0.6c-2.9,0-5.8,0-8.6-0.4
		c-2.6-0.4-5.3-0.3-7.9,0.4c-5.6,1.5-11.5,1.2-17.2,2.3c-1.4-2.6-1.2-5.1-0.7-7.7c0.7-3,0.6-3-1.1-5.2c-0.8-0.1-0.8,0.8-1.2,1.1
		c-0.4,0.3-0.7,0.6-1.1,1c0,4.4,1,8.8-0.9,13.1C359.9,418.8,344.2,416.6,328,419.4z"/>
	<path fill="none" d="M227.5,398.5c-1.1,0.6-2.2,0.2-3.3,0.3c-1.4-1.9-0.9-4.6-3-6.2c-1.2-0.6-2.7-0.5-4-0.1
		c-4,4.7-3.5,17.8,0.8,22.2c4.3,0.2,4.3,0.2,6.4-5.9c0.4-0.1,0.9-0.2,1.3-0.2c0.7,0,1.4,0,1.9,0c1,0.9,0.7,1.8,0.7,2.6
		c-0.3,7.1-0.8,14.1-2.8,21c-0.7,2.4-1.5,4.8-2.9,6.9c-2.3,3.3-4.7,3.4-7.2,0.3c-1.3-1.7-2.2-3.7-3-5.7c-2.3-6-3.4-12.2-4.2-18.6
		c-1.1-9.1-1.2-18.2-0.1-27.3c0.5-4.5,1.3-9,3-13.3c0.5-1.4,1.2-2.9,2.1-4.1c2.1-3.1,4.6-3.2,7-0.2c1.1,1.3,1.8,2.8,2.5,4.4
		c3.1,7.3,4.3,15,5,22.7C227.7,397.5,227.6,398,227.5,398.5z"/>
	<path fill="none" d="M533.8,427.6c2.3-1.8,2.9-4.6,3.6-7.2c1.6-5.7,2.1-11.6,2.3-17.5c0-0.6-0.2-1.2,0.5-1.8
		c0.8,2.4,0.3,4.8,0.2,7.1c-0.3,6.6-1.3,13.2-3.6,19.4c-1.5,3.9-2.4,4.9-5.4,6.3c-2.5-0.2-3.6-2.1-4.7-4c-2.1-3.6-3.3-7.5-4.2-11.5
		c-3.3-15.1-3.8-30.3-0.8-45.5c0.6-3.2,1.5-6.3,3.1-9.2c0.9-1.7,2-3.3,4.3-3.8c2.5,0.4,3.9,2.4,5,4.5c2.6,4.8,3.9,10,4.9,15.4
		c0.5,3.1,0.9,6.2,1.3,9.3c0.1,0.6,0.3,1.2-0.8,1.7c-0.7-2.1-0.8-4.3-1.1-6.4c-0.4-2.5-0.6-5-0.9-7.5c-0.6-4.8-3-8.8-4.9-13.1
		c-0.6-1.3-1.8-2.1-3.6-2.6c6.5,9.1,8.1,19.2,8.8,29.5c-1.1,0.3-1.4-0.1-1.6-0.7c-0.1-0.6-0.3-1.2-0.5-1.7c-1.2-3.8-1.9-4.3-6.5-3.6
		c-3.6,6-1.8,12.5-1.1,19.6c-1.7,3.3-2.3,7.7-3.4,11.8c-0.6,2.2-0.3,4.3,0.8,6.3c1.7,3,4.1,3.1,6.1,0.3c0.3-0.4,0.4-0.9,0.6-1.3
		c1.1-0.2,2.1,0.7,3.3-0.1C535.5,423.8,534.4,425.7,533.8,427.6c-0.3,0.9-1.4,1.3-1.3,2.3c-0.5,0.2-1.3,0.1-1.7,1.5
		c0.8-0.8,1.2-1.2,1.6-1.6C534.3,429.9,533.7,428.6,533.8,427.6z"/>
	<path fill="none" d="M528.8,434.7c-8.2,0.2-10.1-1-12.8-8c-2.6-6.7-3.7-13.7-4.5-20.7c-1-8.2-0.8-16.3,0-24.4
		c0.5-5.1,1.4-10.2,3.4-15.1c2.3-5.8,4-6.8,10.8-6.3c-2.7,3.9-4.2,8.1-5.1,12.5c-2,10.1-2.3,20.3-1.5,30.5c0.4,5.4,1.1,10.8,2.4,16
		C522.9,424.7,524.5,430.1,528.8,434.7z"/>
	<path fill="none" d="M213.1,368c-4.8,7.1-5.8,15.2-6.4,23.3c-0.9,12.5-0.3,25,2.9,37.2c1.2,4.8,2.9,9.4,6.3,13.2
		c-5.6,1.4-8.4,0.2-10.9-4.6c-3.2-6.2-4.4-12.9-5.4-19.7c-1.1-7.8-1.2-15.6-0.8-23.4c0.3-5.9,1-11.7,2.8-17.4
		c0.4-1.3,0.8-2.5,1.4-3.7C204.9,368.7,206.4,366.9,213.1,368z"/>
	<path fill="none" d="M509.9,394.4c0.1,1.6,0.2,3,0.2,4.2c-0.9,1.1-1.9,0.8-2.8,0.8c-13.7,0.4-27.4,0.7-41.1,1
		c-13.8,0.4-27.7,0.9-41.5,1.3c-3.8,0.1-7.6,0-12.1,0c1.9-1.6,2.8-3.3,3.6-5.5C447.3,396.4,478.5,394.3,509.9,394.4z"/>
	<path fill="none" d="M302.7,399.4c0.9,2.9,3.6,3.1,5.7,4.4c-29.1,1.8-58.3,1.8-87.5,2.6c-0.9-1.7-0.9-3.3-0.2-5.4
		C247.9,400.5,275.1,399.7,302.7,399.4z"/>
	<path fill="none" d="M426.8,354.2c1.1,1.1,1.3,2.3,1.6,3.4c2.5,9.5,6,18.8,4.8,28.9c-0.3,2.3-0.5,4.5-1.5,7
		c-3.7,0.2-7.6,0.4-11.4,0.6C416.4,379.7,419.3,366.6,426.8,354.2z"/>
	<path fill="none" d="M595.1,392.1c-0.6,2-0.3,3.5-0.1,5.4c-20.7,0.5-41.2,0.9-61.6,1.4c-1.1-1.8-1.1-3.4-0.4-5.3
		C553.5,393.1,574,392.6,595.1,392.1z"/>
	<path fill="none" d="M391.2,397c0.5,0.8,0.4,1.3,0.2,1.7c-0.8,0.6-1.9-0.3-2.5,0.5c-1.4,0.7-1.2,2.3-2.5,3.2
		c-17.1,0.3-34.6,1-52.2,0.9c-1.5-1.4-3.4-2.7-5.6-2.4c-0.7-0.8-0.4-1.3-0.3-2.3C349.3,397.4,370.4,397.6,391.2,397z"/>
	<path fill="none" d="M197.2,401.6c0.3,1.9,0.3,3.4,0.1,5.4c-17,0.4-33.8,0.8-50.6,1.2c-0.9-2-1.2-3.5-0.1-5.4
		C163.2,402.4,180,402,197.2,401.6z"/>
	<path fill="none" d="M531.7,402.5c-0.3-0.5-0.6-1-0.9-1.6c-0.7,0.5-0.4,1.7-1.8,1.7c-1.3-5.6-1.8-11.1,0.7-16.3
		c1.3-0.6,2.3-0.6,3.3-0.2c1.3,1.2,1.6,3,1.9,4.6c-0.9,1.2-2.3,0.3-3.3,1.3c-0.9,2.8-0.3,5.7,0.4,8.1c1,1.3,2.2,0.6,3,1.2
		c0.4,1-0.3,1.8-0.6,2.7c-0.9-0.1-0.5-1.2-1.1-1.5C532.8,401.9,532.2,402.7,531.7,402.5L531.7,402.5z M530.2,392.1
		c-1.4,2-1.1,4,0,6.8C530.2,396.1,530.2,394.1,530.2,392.1z"/>
	<path fill="none" d="M322,409.8c-1.4,1-2.9,0.7-4.3,0c-2.3-4.7-0.3-9.1,0.9-13.6c0.5-0.1,1-0.2,1.4-0.2c0.3,0,0.6,0.2,1,0.4
		C320.2,400.9,322.1,405.3,322,409.8z"/>
	<path fill="none" d="M531.7,402.4c-0.4,5.6-0.3,11.2-1.3,16.8c-0.2,1.3-0.4,2.6-1.8,3.3c-1.5-1-1.8-2.5-2.4-4.1
		C528,413.1,527.7,407.1,531.7,402.4L531.7,402.4z"/>
	<path fill="none" d="M316.5,397.3c-0.5,2.9-1.5,5-1.3,7.3c0.2,2.2,0.4,4.5,0.5,6.7c-2.8,1.2-3.3,1.1-5.5-1.6
		c0.6-2.5,0.3-5.4,2.9-7.3c1.1-0.8,1.2-2.2,0.7-3.6C314.6,398.3,315.4,397.9,316.5,397.3z"/>
	<path fill="none" d="M326.9,401.3c-0.4,0.8-0.8,1.5-1.2,2.2c0.5,1.6,1.1,3.2,1.5,4.7c-0.1,0.9-0.7,1.4-1.3,1.8
		c-1.4,0.1-2.4-0.5-2.5-1.9c-0.3-3.2-1.3-6.3-1.1-9.6c0-0.4,0.2-0.9,0.4-1.3c1.2-0.4,2.2,0,3.2,0.4
		C326.9,398.6,326.2,400.1,326.9,401.3z"/>
	<path fill="none" d="M397.4,402.5c-0.4,0-0.7,0.1-1.2,0.1c-0.9,2.2,1.2,4,1.1,6.2c-1.3,0.8-2,0.3-2.8-0.9c-2.1-3.2-1.6-6.6-0.9-10
		c0.2-1.2,0.7-2.3,1.1-3.4c1.1-0.8,2.1-1.2,3.4-0.3c-0.8,2-1.9,4.1-1.7,6.4c0.4,0.1,0.7,0.3,1,0.4v-0.1
		C397.6,401.5,397.5,402,397.4,402.5L397.4,402.5z"/>
	<path fill="none" d="M222.6,398.3c-1.2,0.9-2.5,0.2-3.5,1.4c-0.3,2.7-0.7,5.7,0.6,8.2c0.8,1.3,2,0.2,2.8,1.1
		c0.2,1.6-0.4,2.9-1.4,4.1c-3.8-3.9-4.2-15-0.8-19.5C222,394.8,222.1,396.6,222.6,398.3z"/>
	<path fill="none" d="M332.5,409.6c-3.8-0.7-4.2-3.6-5.2-6.3c1.7-1.4,3-0.5,4.4,0.3c0.8,1.4,1.5,2.9-0.1,4.3
		c2.2,0.9,2.6-1.5,4.2-1.9C336.1,408.9,333.7,408.8,332.5,409.6z"/>
	<path fill="none" d="M536.7,416.4c-0.8-2.6-0.8-2.6-0.1-5.8c-0.1-1.6-1.2-2.8-1.6-4.6c1.1-1.4,0.3-3.8,2.3-5.1
		C538.8,403.8,538.5,411.2,536.7,416.4z"/>
	<path fill="none" d="M217.9,393.6c-1.5,6.6-0.9,13.1,1,20.1c-3.1-2.9-3-6.2-3.3-9.3C215.2,400.6,215.5,396.8,217.9,393.6z"/>
	<path fill="none" d="M374.2,677.8c5.9-0.1,11.6,0.6,17,3.4c-4.5-1.4-9.2-0.9-13.8-1.9C376.2,679,375,678.8,374.2,677.8L374.2,677.8
		z"/>
	<path fill="none" d="M390.7,400.3c2,2.3,0.6,5.4,2.3,7.5c-0.8,0.8-1.4,0.4-2,0.2c-0.6-0.6,0.2-1.2-0.1-1.7c-0.7-0.6-1.3,0.4-2,0.2
		c-0.7-1.3-0.1-2.8-0.1-4.1C388.8,401.4,389.2,400.5,390.7,400.3z"/>
	<path fill="none" d="M533.7,408.3c1.3,3.7,0.7,7.4,0.9,11c-1.5,0.5-2.1,0.1-1.9-1C533.5,415,533.1,411.6,533.7,408.3z"/>
	<path fill="none" d="M199,421.3c1,4.2,1.8,7.7,2.6,11.3c0,0.1-0.1,0.2-0.2,0.3C198.6,431.6,198.1,429.4,199,421.3z"/>
	<path fill="none" d="M395.3,175.6c0-0.8-0.2-1.7,0-2.5c1.3-4.4,2.2-8.9,2.8-13.5C398.9,162.1,397.6,169.8,395.3,175.6z"/>
	<path fill="none" d="M401,152.5c-0.8-2.3-0.7-4.2-2.8-4.7C400.8,148,401,148.3,401,152.5z"/>
	<path fill="none" d="M397.3,180.1c0.4-0.1,0.8-0.3,1.3-0.4c-0.3,1.9-1,3.5-2.4,5.6c-0.3-2.4,1.6-3.6,1.2-5.3L397.3,180.1z"/>
	<path fill="none" d="M417.4,391.7c0.9,1,1.1,1.7,0.2,2.6C416.5,393.5,416.8,392.7,417.4,391.7z"/>
	<path fill="none" d="M396.4,161.4c0.3,1.1,0.4,1.8-0.5,2.5C395.3,162.9,395.3,162.2,396.4,161.4z"/>
	<path fill="none" d="M330.1,651.1c0.9-1,1.3-0.7,1.6,0.1C331.2,651.7,330.8,651.6,330.1,651.1z"/>
	<path fill="none" d="M397,115.2c-0.6-0.4-1.5,0.3-2.1-0.4c0.2-0.2,0.4-0.5,0.7-0.6c4.5-2.4,7.5-1.2,9,3.6c1.1,3.2,0.7,6.5,0.7,10
		c-1-2.2-2.1-4.4-3.2-6.7c-2-1-3.8-2.6-5.7-3.9C395.9,116.1,397.2,115.9,397,115.2z"/>
	<path fill="none" d="M403.3,136c0.8,0.7,0.6,1.5,0.3,2.4c-3.6,2.3-7.4,2.9-11.6,0.6c2.1-0.6,3.9,1.2,6.3,0c-2.5-0.7-4.7-1.3-7.2-2
		c2.8-0.9,5.3-0.2,7.8-0.6c0.2-0.6,0.4-1.3,0.6-2l-0.1,0.1c1.6-0.1,2.8-1.1,4.1-1.9c0.8,1.2,0.2,2.2-0.5,3.1c-1.4,0.2-2.3,1-3.7,2.2
		C401.8,137.4,401.8,137.4,403.3,136z"/>
	<path fill="none" d="M397.4,120.7c0.3,0.1,0.7,0.1,1,0.2c-1.1,1.8-1.1,1.8-3.4,2.7c-1.9-0.7-3.9-1.9-5.2-1.8
		c1.9,0.1,4.2-2.1,6.7-2.7C397.6,119.6,397.3,120.2,397.4,120.7c-0.8-0.1-1.4,0.2-1.8,1.1C396.5,121.8,397.2,121.8,397.4,120.7z"/>
	<path fill="none" d="M391.8,115.7c-3.1,1.1-3.5,1.1-8.9-0.9c-0.8,0.2-1.7,0.5-2.6,0.7c-0.8,0.2-1.6,0.3-2.6,0.5
		C381.3,113.7,385.7,113.6,391.8,115.7z"/>
	<path fill="none" d="M400.2,133c-0.3,0.5-0.5,1-0.8,1.5l0.1-0.1c-2,1.1-4.1,1.2-6.5,0.4C395.4,133.3,397.9,133.5,400.2,133
		L400.2,133z"/>
	<path fill="none" d="M392.1,114.2c1.2-2.7,3-3.3,5.9-2.3C395.9,112.7,394.4,113.9,392.1,114.2z"/>
	<path fill="none" d="M385.2,124.5c0-0.9-1.1-1.1-1.3-2.1c2.1-0.5,2.7,1.6,4.3,2.1c-1.3,1.3-2.1-0.4-3.1-0.1L385.2,124.5z"/>
	<path fill="none" d="M388.8,124.4c2-0.9,2-0.9,3.8-0.4C391.4,124.3,390.2,125,388.8,124.4z"/>
	<path fill="none" d="M842.2,124.2c-0.5,1.1-1.2,0.9-2,0.4c-1-0.6-1.7-1.8-3-1.8l0.1,0.1c0.6-1.2,1.5-1.1,2.3-0.4
		S841.3,123.8,842.2,124.2L842.2,124.2z"/>
	<path fill="none" d="M842.3,124.3c1.3-1.2,2.8-0.7,4.6-0.7c-2.7,1.3-2.7,1.3-4.7,0.6L842.3,124.3z"/>
	<path d="M852.8,503.1c1.7,1.3,0.4,2.9,0.5,4.3c0.8,1,1.7,1.9,2,3.3c0.2,1.3,1.1,2.3,1.8,3.4C851.8,512,850,507.3,852.8,503.1z"/>
	<path d="M855.2,536.4c-0.6-1.7-1.9-3.2-1.3-5.6C856,532.5,855.8,534.4,855.2,536.4z"/>
	<path d="M856.5,546.5c-0.5-1.3-0.7-2.6-0.2-4.4C857.7,543.8,857.3,545.1,856.5,546.5z"/>
	<path d="M866.6,505.9c1.1,1.7,0.1,3.5,0.5,5.2C865.8,509.2,865.7,508.6,866.6,505.9z"/>
	<path d="M801.3,409.2c1.9-2.8,3.6-3.7,5.8-2.9c2.4,0.8,2.9,2.2,2.4,7.3c-5.4,1.1-6.1,0.9-8.2-2.8c-1,1.7-2,3.4-4.2,3.5
		c-1.2,0-2.4-0.1-3.3-1.1c-1.7-1.7-1.8-4.1-0.1-5.8C795.8,405.1,798.6,405.7,801.3,409.2z M794,410.2c0.6,2.1,1.9,2.8,3.6,2.3
		c1-0.3,1.5-1.2,1.5-2.2c0-1.4-0.6-2.3-2-2.5C795.3,407.4,794.5,408.5,794,410.2z M808.1,410.6c-0.4-2.3-0.8-2.9-2.2-3
		c-1.2-0.1-2.1,0.4-2.5,1.6c-0.5,1.5,0,2.6,1.4,3.2c0.5,0.2,1.1,0.2,1.6-0.3c-0.3-0.5-0.6-1.1,0-1.6
		C807,410.3,807.5,411.3,808.1,410.6z"/>
	<path d="M785.2,406.4c3.8-0.4,3.8-0.4,6.2,0.8c0.5,2.4,0.5,2.4-0.8,4.4c0.1,0.8,1,1.3,0.9,2.2c-0.3,0.3-0.7,0.3-1,0.1
		c-1.2-0.5-1.3-2.4-2.8-2.4c-1.4,0.3-0.1,2.2-1.9,2.5C784.5,411.6,785.5,409,785.2,406.4z M786.8,409.5c1.5,0.4,2.5,0.6,3.5-0.5
		C788.1,407.1,787.8,407.2,786.8,409.5z"/>
	<path d="M805.4,384.4c-3.2-0.8-6.3-1.6-9.7-2.5c1-0.6,1.7-0.3,2.4-0.1C800.5,382.5,803.1,382.8,805.4,384.4z"/>
	<path d="M827.4,388.5c0.4,1.9,1.3,3.7,0.8,6.4C826.8,392.5,826.6,390.6,827.4,388.5z"/>
	<path d="M835.6,395.3c-0.1,1.9-1.7,3.2-2.2,5.3c-0.7-2.8-0.7-2.8,0.7-4.6C834.6,395.7,835.1,395.5,835.6,395.3z"/>
	<path d="M843.7,387c-2.3,0.5-4.5,1.4-6.4,2.8c1.3-2.1,3.4-2.8,5.7-3.2C843.3,386.7,843.5,386.9,843.7,387z"/>
	<path d="M843.7,387c-0.2-0.2-0.5-0.3-0.7-0.5c1.1-1.2,2.7-1.2,4.4-1.4C846.6,387,845.4,387.4,843.7,387z"/>
	<path d="M835.6,395.3c-0.5,0.2-1,0.4-1.5,0.6c0.3-1.9,1.7-3.1,3.3-4C837,393.1,835.5,393.8,835.6,395.3z"/>
	<path d="M850,378.7c-1.5,1.3-3.3,1.6-5.1,1.9C846.4,379.3,848.2,379,850,378.7z"/>
	<path d="M841,381.2c-0.3,0.8-1.2,1-1.8,1.4c-0.3,0.2-0.6,0.4-1,0c0.1-0.6,0.7-0.8,1.2-1C839.9,381.5,840.4,380.9,841,381.2z"/>
	<path d="M841.1,389.5c-1,0.7-1.2,1.3-2,1.1C839.3,390.1,839.7,389.8,841.1,389.5z"/>
	<path d="M826.1,373.1c-0.3-0.8-0.5-1.3,0.1-1.7C826.4,371.9,826.6,372.4,826.1,373.1z"/>
	<path d="M819.8,334.9c-0.3-1.8,1.1-2.1,2.5-2.5c0.7,0.7,1.5,1.4,2.2,2.1C824.5,336,822.5,336.2,819.8,334.9z"/>
	<path d="M860.4,292.6c-0.5,1.9-2,2.7-3.7,3.3C857.7,294.6,858.5,293,860.4,292.6L860.4,292.6z"/>
	<path d="M863,344.1c-0.3,1.4-1.1,2.3-2.5,3.3C860.6,345.4,862.1,344.9,863,344.1z"/>
	<path d="M806,350.3c-0.8-1.3-1.4-2.2-1-3.5C805.6,347.9,806.1,348.8,806,350.3z"/>
	<path d="M804.2,333.2c0-1.3,0-2.5,0-4.4C805.2,330.7,804.9,332.1,804.2,333.2z"/>
	<path d="M850.7,213.1c0.6,1.8,1.3,3.6,0.9,5.8C850,217,849.9,215.1,850.7,213.1z"/>
	<path d="M892.8,297.1c-1.2,0.8-2.3,0.8-3.3-0.3C890.8,295.9,891.8,296.6,892.8,297.1z"/>
	<path d="M893.9,285.1c-0.9-0.9-1.1-1.7-0.7-2.8C893.6,283.2,894,284,893.9,285.1z"/>
	<path d="M855.7,258.2c-0.7-0.8-1.3-1.6-1-2.8c0.8,0,0.7,0.7,0.9,1.1C855.9,257,856.2,257.6,855.7,258.2z"/>
	<path d="M855.6,208.5c0.5-0.3,1.1-0.4,1.6,0C856.7,209.5,856.2,209.6,855.6,208.5z"/>
	<path d="M857.9,213.6c-0.6-0.7-1.1-1.2-0.7-2.1C858.2,211.8,858.1,212.5,857.9,213.6z"/>
	<path d="M759.8,222.6c-1.3-1.4-1.2-2.6-0.7-4.2C760.5,219.7,759.8,220.9,759.8,222.6z"/>
	<path d="M790.7,303.4c0.4,1.4,0,2.6-0.5,4.1C789.8,305.2,789.8,305.2,790.7,303.4z"/>
	<path d="M773.4,298.9c0.4,1.4,0.6,2.3,0,3.4C772.9,301.2,773.1,300.3,773.4,298.9z"/>
	<path d="M773.7,255c-0.6-0.7-0.3-1,0.1-1.2C774.5,254.2,774.3,254.5,773.7,255z"/>
	<path d="M846.5,666.6c-2.6,2.6-6,2.5-10.8-0.3c1.6-0.8,5.8-1.3,8.9-0.9C845.4,665.5,846.1,665.7,846.5,666.6z"/>
	<path d="M868.1,673.6c-0.8-2.8,0-5.1,2.4-7.7C870.1,669.1,869.3,671.4,868.1,673.6z"/>
	<path d="M980.9,236.3c-0.2,1.2-0.2,1.2-1.4,1.8C979.7,237.2,980.2,236.6,980.9,236.3L980.9,236.3z"/>
	<path d="M820.3,228.2c0.1,1-0.3,1.2-1.2,0.9C819.1,228.2,819.6,228.1,820.3,228.2z"/>
	<path d="M974.9,200.1c0.1,2.1,0.9,4,0.7,6C974.1,204.2,974.7,202,974.9,200.1z"/>
	<path d="M402.5,513.5c-4.7-1.4-6.3-6.5-3.6-10.4c1.4,1.3,0.3,2.9,0.6,4.5C401.2,509.1,401.4,511.4,402.5,513.5z"/>
	<path d="M400.1,531.2c1.7,1.4,1.9,3.2,1.3,5.8C400.2,534.8,399.6,533.2,400.1,531.2z"/>
	<path d="M412.4,506c1.5,1.6,0.5,3.4,0.6,5.2C411.7,509.7,411.8,507.9,412.4,506z"/>
	<path d="M402,542c1.8,1.7,1.2,3.1,0.5,5.3C401.7,545.3,401.9,543.9,402,542z"/>
	<path d="M408.7,627.7c-0.4-0.9-0.3-1.3,0.4-1.6C409.7,626.7,409.7,627.2,408.7,627.7z"/>
	<path d="M365.5,335c1.1-1.8,1.1-1.8,3.1-2.6c0.6,0.7,1.3,1.4,2.2,2.2C369.1,336.6,367.5,335.9,365.5,335z"/>
	<path d="M350.3,329.4c1,1.5,0.9,2.9-0.2,5.2C349.8,332.3,349.8,330.9,350.3,329.4z"/>
	<path d="M351.6,349.4c-0.7-1.1-1.2-2.1-0.8-3.4C351.1,347.2,352.1,348,351.6,349.4z"/>
	<path d="M410.4,366.6c0.1,2.4-1.1,4.5-1.4,6.8C407.9,370.8,409.5,368.8,410.4,366.6z"/>
	<path d="M427.4,290.4c-1.1,1.5-2.2,2.9-4.7,3.1C423.9,291.4,425.7,290.9,427.4,290.4z"/>
	<path d="M408.8,379.2c-1.1,0.2-1.8,0-2.3-0.6c0-1.3,0.6-2.2,1.6-3.4C408.3,376.7,408,378,408.8,379.2z"/>
	<path d="M441.5,242.8c-0.1,2.1-1,2.7-2.2,3.8C439.7,244.9,440.4,244.2,441.5,242.8z"/>
	<path d="M413.3,228.4c-1-0.7-1.4-1.6-1.5-2.8C413,226.2,413.5,227.1,413.3,228.4L413.3,228.4z"/>
	<path d="M405.2,378.8c0.1,1.3-0.5,1.8-1.5,2.5C403.4,379.8,404,379.3,405.2,378.8z"/>
	<path d="M430.2,287c0.4,0.8-0.1,1.1-0.6,1.5c-0.7,0-0.5-0.6-0.4-0.9C429.4,287.2,429.6,286.9,430.2,287z"/>
	<path d="M404.4,390.4c0.7-0.3,1.3-0.5,1.7,0.6C405.3,391.5,404.7,391.3,404.4,390.4z"/>
	<path d="M397.3,402.5c0.2-0.5,0.2-1,0-1.5c0.3,0.3,0.9,0.2,1.1,0.8C398.1,402,397.7,402.3,397.3,402.5z"/>
	<path d="M326.2,377.4c-1.4-2.4-0.1-4.4,0.8-6.4C327.6,373.3,327.7,375.5,326.2,377.4z"/>
	<path d="M327.2,308.2c1.4-1.8,2.7-3.9,5.8-4C331.3,306.4,329.4,307.4,327.2,308.2z"/>
	<path d="M336.1,297.7c0.9,1.6,0.5,2.8-0.6,4.2C335.2,300.2,334.7,299,336.1,297.7z"/>
	<path d="M330.1,380.5c2-1.1,2.6,0.4,3.7,1.7C332.1,382.1,331,381.8,330.1,380.5z"/>
	<path d="M324.6,297.7c1.4,1.3,2.2,2.6,2.9,4.3C325.4,300.5,325.4,300.5,324.6,297.7z"/>
	<path d="M328,359.8c0.5-1.3,0-2.6,0.2-3.9c1.2,1.4,1.2,1.4-0.3,3.8L328,359.8z"/>
	<path d="M323.9,384.3c-0.4-1.1-0.4-1.8,0.9-2.3C325.2,383.1,324.8,383.8,323.9,384.3z"/>
	<path d="M327.6,368.2c-0.8-0.9-0.7-1.7,0-2.8C328.3,366.5,328.3,367.3,327.6,368.2z"/>
	<path d="M327.9,359.7c0.2,0.7,0.4,1.4,0.1,2.3c-0.8-0.9-0.6-1.6,0-2.2L327.9,359.7z"/>
	<path d="M339.4,381.1c3.4,0.4,6.7,1.1,9.8,2.4C345.8,383.2,342.5,382.2,339.4,381.1z"/>
	<path d="M374.1,394c-1.5-2.4-1.5-2.4-1-6.4C374.2,389.9,374.3,391.9,374.1,394z"/>
	<path d="M386.2,387.8c1.2-0.9,2.5-1.7,4.5-1.9C389.2,387.2,387.8,387.7,386.2,387.8z"/>
	<path d="M372.4,373c-0.5-0.3-1-0.7-0.4-1.3C372.8,371.9,372.7,372.5,372.4,373z"/>
	<path d="M341.2,377.3c0.4,0,0.8,0.1,1.4,0.2C342,377.9,341.6,377.7,341.2,377.3z"/>
	<path d="M392.8,667.1c-4.2,2.3-7.7,1.2-11.6-0.7c2.1-1.5,4.1-1,6-0.9C388.9,665.6,391.1,664.5,392.8,667.1z"/>
	<path d="M414.1,673.6c-0.6-2.7,0-5,2.2-7.6C416.3,669.2,415.3,671.4,414.1,673.6z"/>
	<path d="M533.8,427.6c-0.1,1,0.5,2.3-1.3,2.3l0.1,0.1C532.4,428.9,533.5,428.5,533.8,427.6L533.8,427.6z"/>
	<path d="M532.4,429.9c-0.4,0.4-0.8,0.8-1.6,1.6C531.2,430.1,532,430.2,532.4,429.9L532.4,429.9z"/>
	<path d="M530.2,392.1c0,2,0,4,0,6.8C529,396.1,528.7,394.1,530.2,392.1z"/>
	<path d="M403.3,136c-1.5,1.4-1.5,1.4-3.9,2c1.3-1.2,2.3-2,3.7-2.2L403.3,136z"/>
	<path d="M397.4,120.7c-0.1,1.1-0.9,1.1-1.8,1.1C395.9,121,396.5,120.6,397.4,120.7L397.4,120.7z"/>
	<path fill="none" d="M794,410.2c0.4-1.7,1.3-2.8,3-2.5c1.4,0.2,2,1.2,2,2.5c0,1.1-0.4,2-1.5,2.2C795.9,412.9,794.7,412.2,794,410.2
		z"/>
	<path fill="none" d="M808.1,410.6c-0.5,0.7-1.1-0.2-1.6,0c-0.6,0.5-0.3,1,0,1.6c-0.4,0.5-1.1,0.5-1.6,0.3c-1.4-0.6-1.9-1.7-1.4-3.2
		c0.4-1.2,1.3-1.7,2.5-1.6C807.3,407.7,807.7,408.3,808.1,410.6z"/>
	<path fill="none" d="M786.8,409.5c1-2.4,1.3-2.4,3.5-0.5C789.3,410.1,788.3,410,786.8,409.5z"/>
</g>
</svg>
