<?xml version="1.0" encoding="utf-8"?>
<!-- Generator: Adobe Illustrator 19.1.0, SVG Export Plug-In . SVG Version: 6.00 Build 0)  -->
<svg version="1.2" baseProfile="tiny" id="Layer_2" xmlns="http://www.w3.org/2000/svg" xmlns:xlink="http://www.w3.org/1999/xlink"
	 x="0px" y="0px" width="900px" height="600px" viewBox="144 97 900 600" xml:space="preserve">
<g>
	<path d="M437.9,616.7c0.2,1.4-0.3,2.8,0.4,4.1c1.1,0.6,2.4,0.6,3.5,0.6c9.1-0.1,18.3,1.3,27.4,0.8c4.8-0.3,9.6,0.2,14.4,0.2
		c2.1,0,4.2,0.5,5.9,1.9c1.6,4,3.1,8,4.3,12.2c-1.2,0.8-2.3,0.9-3.3,0.6c-2.8-0.7-5.6-0.2-8.4-0.1c-1.6,0.1-3.3,0.3-4.9,0.2
		c-7.4-0.6-14.8,0.2-22.1,0.8c-10,0.8-19.9,0.3-29.9-0.4c-7.8-0.6-15.6-1.3-23.5-0.6c-5.8,0.5-11.7,0.9-17.6,0.3
		c-2.2-0.2-4.6-1-6.6-0.4c-4,1.1-6.3-1.2-9.2-2.7c0.8-2.6,2.2-4.5,3.2-6.6s1.6-4.4,3.8-6.1c8.5,1.4,17.2,1.1,25.8,0.6
		c8.7-0.5,17.5,1.2,26.1-0.9c0.8-6.7,1.8-13.3,2.4-20c0.8-8.4,2.5-16.7,2.8-25.2c0.1-2.6,0.3-5.1,0.7-7.7c0.6-3.3,1.1-6.7,1.4-10.1
		c0.3-2.9,0.4-5.8,0-8.8c-7.6-2.4-15.1-4.8-22.6-7.1c-1.7-0.5-3.4-0.9-4.5-3.2c1.3-3.6,0.1-8.1,2.1-12c2-1.6,4.1-2.6,6.7-3
		c6.2-0.9,12.4-1.7,18.5-1.4c7.6,0.4,15.2,0.2,23,0.4c-0.1-2.9,1.1-5.4,2-8.1c0.9-2.7-0.4-5.8,1.3-8.6c-2.1-8.1-5.4-15.9-9.3-23.6
		c-3.1-5.9-6.9-11.4-9.7-17.5c-2.3-5-3.5-9.9-3.1-15.3c0.2-2.5,0.3-4.9,0.4-7.4c0.1-1.4,0-2.8-0.9-4.1c-1.7-0.1-3.2,0.7-4.6,1.5
		c-8,4.3-15.6,9.5-23.5,14c-8.9,5-17.9,9.6-27.8,12.6c0,3.9,0,7.9-0.7,11.8c-1.5,8-3.5,15.8-5.6,23.6c-0.6,2.1-1.3,4.1-2.3,6.1
		c-3.4,6.6-6.9,13.1-10.3,19.6c-2.8,5.3-5.8,10.5-10.2,14.7c-3.9,3.7-7.1,7.8-8.3,13.2c-0.7,2.8-2.3,5.1-4.3,7.1
		c-2.9,2.8-5.2,6.2-6.3,10c-2.8,10-7,19.4-12,28.4c-6.6,12-11.8,24.5-14.7,38.1c1-0.2,1.4,0.5,1.7,1.3c0.7,2,1.7,3.9,1.9,6
		c0.1,1,0.3,1.9,1,2.6c4.1,4.6,8.7,8.6,14.7,10.5c4,1.3,8.2,2,12.2,2.3c2.1,2.9,2.1,2.9,3.1,10.3c-1.8,2.6-7.5,5.8-10.9,5.5
		c-2.5-0.3-4.8,0.4-7.2,0.7c-7.7,0.9-15.2,0.5-22.7-1.5c-1.1-0.3-2.1-0.3-3.1-0.3c-7,0.1-14,0.1-21-1.1c-1.1-0.2-2.4-0.1-3-1.4
		c-0.2-0.8,0.2-1.4,0.7-1.9c1.1-1.4,1.9-2.9,1.7-4.8c0-0.8,0.3-1.6,0.6-2.4c2-5.3,3.9-10.5,6-15.8c0.7-1.7,1.3-3.5,3.1-4.4
		c2.4,1.3,4.1,3.1,4.8,5.5c1.5,0.8,2.9,1.5,4.6,1.6c2.7-3.3,6.5-5.5,9.2-8.9c-0.3-1.5-0.3-3.1,0.2-4.5c1-2.9,1.2-6,2.2-8.8
		c2.8-8.5,5.8-16.8,9.9-24.8c4.6-9.1,9.8-17.9,13.2-27.6c1.3-3.8,2.4-7.6,3.8-11.3c0.5-1.3,1.1-2.2,2.4-3.1c2.8-1.9,5.3-4.2,5.9-7.9
		c0.8-4.9,3.5-8.8,7-12.3c4.5-4.5,8.4-9.5,11.2-15.3c1.7-3.5,3.3-7,5.1-10.4c2.5-4.7,4.7-9.5,6.8-14.3c2.2-5.3,3.4-10.9,4.7-17.3
		c-7.1,4.4-14.2,7.1-22,6.3c-7.6-0.7-15.3-1.1-21.3-7c-1.8,3-3.3,5.7-3.9,8.9c-0.4,2.3-1.2,4.5-1.8,6.8c-2.3,8.4-4.5,16.8-5.2,25.5
		c-0.5,5.7-1.3,11.4-2.9,16.9c-1.8,5.9-4,11.4-8.5,15.9c-3.5,3.5-6.1,7.7-8.6,12c-1.1,1.9-1.8,4.1-2.2,6.3
		c-2.1,11.6-4.1,23.3-5.8,35c-1.4,9.9-3.6,19.6-5.1,29.5c-0.2,1.2-0.3,2.5-1.6,3.3c-1.3-1-0.9-2.2-0.7-3.3c1.2-7,2.8-14,3.3-21.2
		c0-0.1,0.1-0.2,0.1-0.3c1.1-5.9,2.2-11.8,3.4-17.6c1-4.6,1.3-9.3,1.4-13.8c0.2-7.7,1.6-14.9,5.8-21.3c2.1-3.2,4.3-6.5,7-9.3
		s5.5-5.4,6-9.6c0-0.2,0.2-0.4,0.4-0.6c1.5-2.3,2.2-4.9,3.1-7.4c1.7-5.2,1.1-10.7,2.1-16c1-5.5,1-11.2,2.5-16.7
		c1.7-6,3.6-11.9,5.7-17.8c0.5-1.4,1-2.9,2-4.1c0.4,0,0.9,0.1,1.3,0.1c0.1,0,0.1-0.2,0.3-0.3c-1.8-2-0.1-4.2-0.4-6.5
		c-1.2-1-2.8-1.9-3.8-3.4c-4-6.7-6.1-14-6.1-21.7c0-3.7,1.7-7.1,3.6-10.2c2.3-3.6,4.9-7.1,7.4-10.7c1.2-1.7,2.3-3.5,1.8-5.6
		c0.5-1,1.9-0.5,2.4-1.4c3.6-8.7,5.4-36.5,2.6-45.7c-0.9,0.8-1,2.1-2.5,3.1c-3,0.3-6,2.5-9.5,2.2c-1.2-1.1-2.3-2-3.4-2.9
		c-2.5-2-4.1-4.5-4.7-7.6c-0.4-2-0.8-4-1.6-5.7c-2.9-5.9-2.5-12.1-1.5-18.3c0.8-4.4,1-8.8,0.8-13.3c-0.3-4.4-0.6-8.9-0.9-13.6
		c-1.1-1.2-2.3-2.6-3.5-4.1c-1.7,0.4-3.2,0.8-4.9,1.2c-1.5-1.3-3.6-1.8-4.5-3.8c0.3-1.7,1.8-2.4,3-3.5c1-0.4,2.3,0,3.6-1
		c0-1.6,1.1-3.1,1.8-4.8c2-0.9,3.7-2.1,4.3-4.3c2.5,0.1,4.5,1.9,6.6,0.7c2.2,0.8,3.5,2.3,5,3.5c9-2.7,17.8-5.3,26.6-7.9
		c-0.5-3.7-0.1-7-0.1-10.3c0.1-3.5-0.8-6.8-2-9.9c-1.2-2.9-1.8-6-3.5-8.7c0.1,3.3,0.5,6.6,0.8,9.9c0.5,5.6,0.1,11-3.1,15.9
		c-0.1,0.2-0.3,0.2-0.5,0.4c-0.2-0.2-0.5-0.4-0.8-0.6c-1.8,1.3-2.6,3.9-5.1,4.2c-0.7-0.6-0.8-1.1-0.5-1.7c0.5-0.9,1.1-1.8,1.6-2.7
		c2.4-4.3,5-8.5,6-13.4c0.1-0.7,0.6-1.5-0.4-2.3c-0.6,1.5-1.1,2.8-1.5,4.1c-1.9,5.6-4.6,10.8-7.9,15.6c-0.9,1.4-2.1,2.4-3.7,3
		c2.8-3.3,3.7-7.4,4-11.4c0.6-8,0.5-15.9-0.9-23.9c-0.8-4.2-1.3-8.4-1-12.6c0.1-0.8-0.2-1.8,0.4-2.4c1.3-1.1,1.3-2.7,1.7-4.1
		c0.9-2.7,1.7-5.4,3.1-7.8c1.2-2.1,2.8-3.9,5.2-4.4c4.2-1,8.5-1.6,12.7,0.5c0.8,0.4,1.6,0.9,2.7,0.8c6.2-0.4,12.1,1.1,18,2.6
		c4.4,1.1,8,3.4,11.3,6.2c1.8,1.5,3.2,3.4,3.5,5.9c0.1,0.6,0.2,1.2,0.5,1.6c1.8,3.2,1.8,6.8,2.2,10.2c0.1,1.1,0.1,2.3-0.6,3.4
		c-1.2,1.9-0.9,3.7,0.1,5.6c1.2,2.2,1.7,4.6,1.8,6.2c-0.6,2.4-2.5,1.6-3.3,2.7c0.1,2.7,0.1,2.7,2.4,4.8c4.3-1.3,8.7-2.6,13.1-3.9
		c0.9,0.5,1.9,0.8,2.7,1.4c2.2,1.7,2.1,4-0.1,6.1c0.2-2.2,0.7-4.5-2.3-5.8c-5,1-10.1,2.7-15.2,4.3c-1.3,0.4-1.9,1.6-2.7,2.5
		c0,1.1,0.4,1.8,1.1,2.4c5.1,0.9,9.6-1.9,14.7-2.8c-0.8-1.2-1.6-2.3-1.1-3.6c0.4-1,0.9-1.8,2.3-2.1c0.3,1.3-1.1,1.8-1.1,2.8
		c0,1.5,1.4,2.1,4.4,2.2c-0.7,1.3-2.1,1.4-3.3,1.8c-3.7,1-7.4,2.1-11.1,3.2c0.5,4.6-4.2,3.8-6.2,6c2.2,1.9,2.4,4.7,3.5,7.1
		c1.5,3.3,0.1,5.9-1.8,8.4c-0.4,0.5-1.3,0.6-1.2,1.4c6.6,6.8,13.2,13.5,18.8,21.1c4.4,5.9,5.5,12.1,3,19.2c-1.3,3.8-3.5,6.2-7.3,7.3
		c-0.8,0.2-1.6,0.3-2.5,1.1c-1,1.3-1.4,3-1.5,5c-0.2,4.6-1,9.1-2.8,13.3c-2,4.5-4.3,8.8-5.8,13.5c-1.3,4-2.4,8-2.9,12.4
		c2.1-0.9,4-1.7,5.9-2.4c5.7-2.1,11.6-3.7,17.5-5.3c5.6-1.6,11.3-2.3,17.1-1.5c5.6,0.7,11.2,1,16.8,1.3c4,0.2,7.5,2.1,9.4,5.9
		c1.2,2.3,1.9,4.8,1.9,7.5c0,2.9,0.7,5.6,1.2,8.3c0.5,3.7,2.2,6.9,3.3,10.4c2.8,9,3.8,18.4,5.6,27.6c2.2,11.6,3.6,23.4,6.2,35.3
		c1.3-0.1,2.1,0.8,2.7,2c0.6,1.3,1.7,2.2,2.8,3.1c5.6,4.5,11.1,9,16.6,13.6c2.1,1.8,4.6,2.8,7.3,3.1c1.4,0.1,2.8,0.1,4.2,0.1
		c3.3,0.1,5.6,1.9,6,5.2c0.2,1.6,0.7,3.2,1.1,4.5c-0.5,3.1-3.3,3.1-5.1,4.2c0.1,0.6,0.4,0.7,0.8,0.8c5.8,1.5,11.5,3.1,17.4,4.3
		c9.5,2,18.9,4.5,28,7.8c1.4,0.5,2.7,1.1,3.5,2.3c2.3,3.8,4.3,7.7,3.4,12.5c-0.5,2.8-1.5,5.3-2.2,8c-0.8,0.8-1.9,0.9-2.9,1
		c-7.8,0.8-15.6,0.7-23.4-1.1c-0.2,0.6-0.3,1-0.3,1.3c0.4,4.6,0.2,9.1-0.4,13.7c-0.5,4.3-1.1,8.6-0.1,12.9c0.5,2.4,0.4,4.9,0.4,7.4
		c-0.3,11.5-0.6,23-1,34.5c-0.1,2.1-0.1,4.2-0.4,6.3c-0.9,6.8,0.6,13.5,1.2,20.1c0.5,0.2,0.7,0.3,0.9,0.3c8.4,0.3,16.9,0.4,25.3,0.3
		c7.5-0.1,15,0.2,22.5-0.6c0.7-0.1,1.6-0.1,2,0.3c2.9,2.1,6.6,2.4,9.6,4.1c1.9,5,3.9,9.8,4.9,14.8c-1,1.5-2.3,1.5-3.6,1.5
		c-3.2-0.1-6.3-0.1-9.5-0.4c-9.5-0.9-19-0.4-28.5,0.1c-11.8,0.6-23.6,1.8-35.5,1.2c-6.9-0.4-13.8-0.6-20.7-1.1
		c-4.6-0.3-9.1-0.4-13.7-0.1c-5.7,0.4-11.5,0.6-17.2,0.6c-3.3,0-6.5,0.1-9.7,1.6c-3-2.5-8.1-2-9.7-6.7c2-3.2,3.9-6.3,5.5-9.5
		c1.2-2.4,3-3.5,5.9-3.5c4.7-0.1,9.3-0.7,14-1c3.6-0.3,7.3-0.8,10.9-0.5c8.7,0.7,17.4-0.2,26-0.2c2.2,0,4.5,0,6.7-1.1
		c0.1-1.1,0.3-2.3,0.3-3.4c-0.1-4.5,0.1-8.9,0.3-13.4c0.1-2,0.6-4,0.2-6c-0.7-3.7-0.4-7.5-0.6-11.2c-0.2-5.4-0.5-10.8-1-16.2
		c-0.3-3.5-1.7-6.8-5.4-8c-4.7-1.5-8.9-4.2-13.5-6c-8.4-3.3-16.5-7.2-24.9-10.5c-4.5-1.8-9.2-2.7-13.6-4.8
		c-7.1-3.5-15.1-3.7-22.7-6.3c-0.4,5.7-0.6,11-2.3,16.1c-0.6-1.9,0.4-3.7,0.4-5.6c0.1-1.7,0.5-3.5,0.6-5.2s1.1-3.4-0.1-5.2
		c-0.8,3-2.2,5.9-2.2,9c0,2.2-0.1,4.4-0.4,6.7c-1,6.8-2,13.7-2.6,20.6c-0.2,2.5-0.1,5-1,7.5c-1.3-0.6-1-1.5-0.9-2.2
		c0.6-5.5,1.1-11,1.8-16.4c0.6-4.6,1.8-9.2,1.9-13.9c0-3.3,0.2-6.5,1.1-9.7c0.5-1.7,1.2-3,2.7-3.9c0.8-0.1,1.5-0.1,2.1,0.3
		c2.7,1.6,5.7,2,8.7,2.5c1.5,0.3,3,0.6,4.5,0.9c6.6,1.5,12.9,4.3,19.3,6.6c14.2,5.1,28,11.3,41.8,17.5c3.3,1.5,5.1,3.8,5.8,7.3
		c1.1,5.1,1.2,10.3,1.6,15.4c0.4,5.7,0.5,11.5,0.5,17.2c0.1,6.5-0.5,13.1-0.7,19.7c2.2,1,4.4,2.1,6.5,3.1c0.9-1.9-0.8-3.8,0.6-5.5
		c0,2.3,1.7,4.4,0.6,7c-3,0-5-2.3-7.6-3c-1.6,1.3-3.6,1.2-5.4,1.4c-8,0.7-16,1-23.9,0.6c-9.1-0.5-18,0.6-27.1,1c-2,0.1-4,0.2-6,0.3
		c0,0.6,0,1,0,1.5l0.1-0.1c-2.9,3.2-4.2,7.3-6.7,10.7c2.3,1.7,4.7,2.2,6.8,3.1c0.8,0.3,1.6,0.4,2.4,0.2c2.7-0.8,5.6-0.6,8.4-0.7
		c5.7-0.2,11.5-0.4,17.2-0.8c4.5-0.3,8.9-0.3,13.4-0.2c7.4,0.3,14.8,0.7,22.1,1c11.2,0.5,22.3-0.8,33.4-1.5
		c9.7-0.6,19.4-1.1,29.2-0.4c3.5,0.3,6.9,0.3,10.7,0.5c-1.3-4.4-2.5-8.4-3.7-12.4c-3.2-1.3-6.7-1.5-8.8-4.1
		c-2.8,0.6-5.5,0.9-8.2,0.9c-4.7,0-9.4-0.2-14.1,0.2c-2.2,0.2-4.4-0.1-6.7-0.1c-6.9-0.1-13.8,0-20.7,0c-0.6,0.9,0.4,2.4-1,3.1
		c-0.5-0.2-0.7-0.5-0.8-1c-0.8-6.4-1.9-12.7-1.9-19.2c-0.1-6,0.7-11.9,0.7-17.9c0-7.4,0.5-14.8,0.8-22.1c0.1-4.8,0.6-9.6-0.3-14.4
		c-0.6-3.3-0.4-6.5,0-9.8c0.7-5.1,1.2-10.3,1-15.4c0-0.5-0.2-0.9-0.6-1.3c-0.8-0.3-1.5-0.2-2.3,0.8c0,1.4,0.1,3.1,0,4.7
		c-0.2,5-0.3,10.1-0.8,15.1c-0.5,4.7-0.8,9.3-0.5,14c0.6,9.9-0.5,19.7,0.5,30c-1.2-2.4-1.2-4.5-1.2-6.6c0.1-9.5,0.2-19,0.2-28.5
		c0-3-0.3-6.1,0-9.1c0.4-4.7,0.8-9.4,1.1-14c0.1-1.9,0.5-3.9-0.2-5.7c-0.9-0.6-1.8-0.4-2.6-0.4c-7.2,0.4-14.3-0.2-21.5-0.6
		c-8.3-0.4-15.8-3.4-23-7.1c-2.4-1.3-4.8-2.3-7.5-2.8c-6.7-1.2-13.3-2.9-19.8-4.8c-7.1-2-14.2-3.8-21.3-5.8
		c-1.7,24.6-4.5,48.7-7.6,73c-0.6,0.1-1.2,0.3-1.7,0.3c-15.8,1.3-31.6,0.2-47.4,0.8c0,0.2,0,0.6,0.1,1c-1.6,0.3-2.7-1.5-4.4-1
		c-1.2,3-2.4,6-4.6,8.8c1.8,0.9,3.3,1.7,4.9,2.5c1.2-0.3,2.5-0.3,3.8-0.2c6.6,0.5,13.1,0.6,19.7-0.1c9.6-1,19.2-0.2,28.8,0.5
		c9.4,0.7,18.7,0.7,28.1-0.1c5.3-0.4,10.5-1.2,15.8-1c2.2,0.1,4.5,0.5,6.7,0.3c4.3-0.2,8.6-0.7,13.1,0c-1.2-3.6-2.3-6.9-3.5-10.4
		c-16.6-0.9-33.3-0.3-49.4-1.7c-1.1,0.9,0.1,2.1-1.1,2.6C436.7,623.4,437,619.4,437.9,616.7L437.9,616.7z M345.4,262.2
		c0.1-1.4,0.2-2.7,0.3-4.1c0.8-0.9,0.7-1.8,0.4-3c-0.5,1.1-0.5,2.1-0.3,3.1C344.6,259.3,345.2,260.8,345.4,262.2z M360,276.1
		c-0.1,0.9,0.6,1.4,1.1,1.9l0.1,0.2c1,2,2.9,3.4,4.4,5.2c-2.3-0.6-5.2-3.1-6.7-5.9c-1.5-2.6-2.9-5.3-4.6-7.8
		c1.6,6,3.1,12.1,8.2,17.3c-3.1-1.4-4.8-3.4-7-5.1c0.8,1.6,1.7,3.2,2.5,4.9c-0.4,0.6-1.2,0-1.6,0.9c0.9,3.6-0.2,7.6,0.4,11.8
		c4.3-1.4,8.8-2,12.8-4.1c1.2,0.2,2.3-0.1,3.4-0.9c1-3.3,3.4-5.4,6.6-6.9c2.5-1.2,4.9-2.7,7.4-4.1c1.2,0.3,3-0.1,2.3,2.3
		c-0.7-0.2-1.3-0.4-2-0.6c-3.7,1.3-4,5.6-6.6,7.9c-1.2-1.4,0.5-2,0.2-3c-1.1,0.3-1.4,1.5-2.5,2c-0.7,0.1-1.5,0-2-0.8
		c1,0.4,1.5-0.2,2.2-1c-1.2-0.4-1.6,0.4-2.1,1.1c-0.8,0.6-1.4,1.3-1.7,2.3c-0.1,0.7,1,0.9,0.9,1.9c-0.3,3.8,0.7,7.4,3,10.5
		c1,1.4,1.6,3.1,2,4.8c0.3,1.2,0.4,2.3-0.3,3.4c-2.9,5-4.5,10.5-7.3,15.6c-2.3,4.3-5.3,8-8.7,11.4c-3.7,3.8-7.9,7-10.9,11.4
		c-0.5,0.8-1.3,1.3-2.1,2.1c-0.5,2.1-0.9,4.4-1.6,6.6c-0.8,2.6,0.1,5.2,1.4,7.5c1.4,2.7,3.1,5.2,4.3,7.7c3,1.3,5.7,1.5,9,0.3
		c2.2-2.9,4.8-6.1,7.2-9.4c2-2.7,4-5.5,6.2-8.1c1.8-2,3.1-4.3,3.7-7.1c0.5-2.4,1.5-4.7,2.3-7c0.9-2.8,1.6-5.6,1.9-8.6
		c0.8-6.4,3.3-12.2,5.9-18c0.9-2.1,2.9-3.6,3.6-6.3c-1.6-5.1-2.8-10.7-8.7-13.1c-2.8-4.5-2.7-8.8,0.4-11.6c0.8-0.7,1.5-1.4,2.3-2.2
		c1.3-0.4,2.8-0.2,4.1-0.9c0.1-0.9,0.2-1.7,0.3-2.5c0.8-1.2,2.4-0.8,3.3-2c-0.6-2.4-0.9-5.1-2.8-7.3c0-1,0-1.9,0-2.9
		c0.9-0.8,0.7-2.1,1.4-3c-0.6-1.6-2.1-1.7-3.7-1.8c1.2-1.3,2.4-0.6,3.7-0.5c0.1-3.9-1.2-7.5-2.9-11.1c-0.6-0.5-1.6-0.4-2.2-1.3
		c-0.4-0.7-1-1.6-2.2-1.4c-0.2,1.3,1.6,1.5,1.2,3c-2.5-0.8-3.8-3.7-6.5-4.1c-3.9-3.1-8.2-5.2-13.4-5.3c2.1,0.8,4.3,1.6,6.4,2.5
		c0.8,0.3,1.9,0.4,2.2,1.5c-1.8,0.3-3.1-0.8-4.6-1.3c-2.2-0.7-4.4-1.7-6.6-2.3c-2.2-0.5-4.6,0.2-6.8-0.7c0.8,2.4,3.2,2.4,4.8,3.5
		c1.7,1.2,3.6,2.2,5.4,3.2s3.6,2.1,6,2.9c2.7-1.1,5.2,0.9,7.9,1.4c-1.5,0.9-2.9-0.6-4.4-0.3c-0.2,1.6,1.7,0.8,2,2
		c-6.8-1.4-12.3-5.3-18.4-8.1c2,1.8,4.1,3.6,6.1,5.4c-2.5-0.4-4.1-2.2-5.8-3.7c-1.7-1.5-3.2-3.4-4.5-4.9c-1.3,0.3-2,0.6-2.3,1.3
		l0.1-0.1c-0.3,0.1-0.6,0.2-1.3,0.4c1.2,3.6,1.5,7.4,3.9,10.5c0.7,1.9,1.6,3.8,2.5,5.7c0.7,1.4,1.5,2.5,2.9,3.3s2.7,1.9,3.2,3.8
		c0.5,1.6,2.8,2.4,2.8,4.5c-1.2,0.9-2.2,0.1-3.2-0.4c-1.6-0.7-3.1-1.5-4.6-2.3c-0.1-0.3-0.1-0.7-0.2-1.1c1.3-0.5,1.9,1.2,3.5,0.9
		c-1.1-1.3-2-2.4-3-3.5c-1.1-1.2-2.5-2-3.2-3.6c-0.6-1.5-1.1-3-2.3-4.4c-0.5,3.5,0.8,9.6,3.2,15.8c-0.1,0.1-0.2,0.2-0.3,0.3
		C360.6,276.4,360.3,276.2,360,276.1z M354,250.3c-0.7,4.1-0.5,8.1-0.5,12.2c0.1,3.4,2.1,5.6,4.6,8c-1.6-4.3-2.6-8.3-3-12.5
		c-0.2-2.3-0.4-4.6,0.1-7c0.2-1,0.5-2.1-0.5-2.9c-0.1-0.3-0.1-0.7-0.2-1.1c-1.5-0.4-2.1,0.7-2.6,1.7c-1.1,2.1-1.7,4.3-2.3,6.6
		c-0.5,2.2-0.9,4.3-1.4,6.4c0.8,0.7,0.6-0.5,1.4,0.1c0.2,5.7,1.1,11.7,4.6,16.9c0.2-1.6-0.4-3-1.1-4.3c-2.1-4-1.8-8.3-2-12.6
		c-0.1-1.3-0.3-2.5-0.8-3.7c0.7-2.7,1.3-5.3,2-7.9c0.3-1.3,0.6-2.6,2.4-2.4C354.4,248.7,354.2,249.5,354,250.3z M341.7,284.8
		c-0.5,2.8-1.4,5.6-1.9,8.5c2.5-4.4,4.4-9,4.8-14.1c-2.6-8.5-0.7-17.2-1-25.8c-0.1-3.7,1-6.9,4.3-9.1c-0.5-0.3-0.9-0.5-1.6-0.8
		c2.9-1.4,5.8-2,8.7-2.8c0.2-0.9-0.9-0.9-1.2-1.7c2.3-0.3,3.1,1.6,4.6,2.6c0.5-1.9,0.2-2.8-1.5-3.1c-3.8-0.6-7.4-0.6-10.1,2.9
		c-2.4,3.2-4.2,6.7-5.5,10.5c-0.2,0.6,0.1,1.5-1,1.6c-0.9-1.1,0.7-2.2,0-3.3c-2.6,7.1-2.6,9.7-0.2,24.2c0.3,0.1,0.6,0.1,1,0.2
		c0.1,1.3,0.1,2.5,0.2,3.8c-1.1,2.3-0.9,4.7-1.2,7.6c1.6-2.7,1.6-5.2,1.1-7.7C342.4,280.4,342.1,282.6,341.7,284.8z M315.2,319.9
		c4,4.5,3.6,10.1,4.1,15.5c0.4,5.4,0.2,10.8-0.8,16.1c-1.1,5.9-1.3,11.9,1.4,17.5c0.9,1.9,1.4,4,1.8,6.1c0.4,2.5,1.4,4.4,3.3,6
		c1,0.8,2,1.6,3.4,2.8c2.3-0.4,5-1.9,8.2-2.1c2.1-2.9,3.6-5.8,3.4-9.6c-0.3-9.7-1.9-19.1-4.5-28.4c-0.4-1.5-0.6-3-0.2-4.5
		c1.8-7,3.4-14.1,6.1-20.9c0.7-1.7,1.5-3.3,2-5.1c-2.8,3.1-4.4,6.8-5.8,10.5c-0.5,1.3-0.9,2.7-2.1,3.6c-1.5,1.1-2.2,2.7-2.4,4.5
		c-0.7,4.6-1.8,9.2-2,13.9c-0.1,2.4-0.7,4.7-1.7,6.8c-2.2,4.6-2.5,9.7-3.7,14.6c-0.9-0.2-0.5-1.4-1.2-1.9c-0.4,0.1-0.8,0.1-1.2,0.2
		c-0.3-1.7,1.2-2.2,1.9-3.4c0.1-3.4,1.2-6.8,2.4-10.1c2.5-6.7,3-13.4,0.5-20.3c-0.4-1-0.4-2-1.4-2.7s-1.2-2.1-0.6-2.8
		c2.6-2.6,1.7-5.5,1-8.4c-0.6-1.1-1.6-1.4-2.5-2c-2.2-1.6-3.6-3.6-4-6.3c-0.3-2.1-1.2-3.7-3.2-4.2c-0.8,0.7-0.7,1.2-0.6,1.8
		c0.5,0.1,0.9,0.1,1.4,0.2c0.2,1.3-1.4,1.5-1.6,2.9c0.6,2,3.7,3.7,2.2,6.8c-1.3-1.6-3.5-6.6-3.8-8.8c-3,1.3-3.2,3.9-3.4,6.7
		c1.3,1.6,2.1,3.8,3.8,5.3L315.2,319.9z M389.8,432.9c1.8,5.4,2.7,11,1.9,16.6c-0.5,3.4-0.3,6.8-1.2,10.6c6-2.2,11.4-4.3,16.5-7.4
		c8.2-5.1,16.5-9.8,25.1-14.2c2.7-1.4,5.6-2.3,8.8-2.1c0.2,0.8-0.4,1.4,0,2.3c1.2,2.5,1.3,5.2,1,7.9c-0.2,1.7-0.1,3.5-0.2,5.3
		c-0.4,8.1,2.8,15.1,7.2,21.6c1.5,2.2,3.2,4.4,4.3,6.9c3.7,8.3,8.2,16.4,9.5,25.6c0.2,1.8,0.4,3.5,0.4,5.4c2.2,1.8,3.4,4.7,6.5,5.7
		c1.4-1.2,1.8-2.9,2.8-4.3c-1.5-1-3.3,0-4.6-1.3c-0.7-0.9-0.6-2-1.1-3.8c2.5,1.3,4.3,2.8,6.8,3.1c1.2-1.7,2.8-3.4,4.4-4.7
		c-4.1-9.1-6-18.6-7.6-28.1c-1.4-8.7-2.2-17.5-4.7-25.9c-0.6-2.1-1-4.3-1-6.6c0-3.5-1.5-6.6-2.3-9.9s-1.9-6.5-3-9.7
		c-1.1-3.3-1.4-6.7-1-10.1c0.2-2.2,0-4.2-1-5.8c-4.2-4.2-9.4-4.4-14.6-4.5c-5,0-10.1,0.3-15.1,0.3c-3.9,0-7.7,0.5-11.5,1.6
		c-8,2.3-16.1,4.3-23.8,7.4c-1.1,1.6-1,3.4-1.4,5.1c-0.8,3.9-2.1,7.6-3,11.5c-0.6,0.1-1.1,0.1-1.7,0.2c-1-1.3-0.2-2.5,0.1-3.7
		c0.8-2.7,1.1-5.5,1.7-8.2c1.5-6.1,2.2-12.4,4-18.5c1.9-6.4,4.8-12.2,7.9-18c0.3-0.5,0.5-1.1,0.7-1.6c-3.4-0.5-4.9-0.3-7.1,0.9
		c-1.7-1-3.5-0.4-5-0.4c-1.1,0.4-0.6,1.3-1.1,1.6c-0.1,0-0.2,0.1-0.3,0c-3.9-2.7-7.6,0-11.4,0.3c-3.3,0.2-6.5,0.7-9.8,0.7
		c-5.8,0-11.6,0.8-17.6,0.6c-0.4,3.6-0.8,7-1.2,11.1c-1.3-2.1-0.8-3.8-0.9-5.4c-0.1-1.7,0-3.5,0-5.3c-0.9-1.1-2.1-0.5-3.7-0.9
		c1.2,11-0.1,21.5-0.2,32c0.6-0.7,0.4-2.1,1.7-3c0.6,3.9-1.4,7.2-1.6,10.7c0,0.6-0.5,1.3-1.4,1.2c-0.8-0.5,0.2-1-0.1-1.6
		c-0.8-0.5-2.3,0.6-3.5,3.1c3.9,2.2,7.7,4.6,12.5,4.7c3.2,0.1,6.2,1,9.4,1.6c6.6,1.3,13.1,2.6,19.9,2.5c2.4-0.1,4.6,0.6,7.1,0.9
		c1.1-1.9,0.6-4,1.5-5.8C389.2,431.1,389.6,432.1,389.8,432.9z M564,558.8c0-4.5-2.8-8.3-7.1-9.9c-6.1-2.3-12.5-4-18.8-5.6
		c-9.6-2.3-19-5-28.7-7.6c-6,1.4-12.1,1.5-18.3,1.2c-2-0.1-3.8-1.1-5.9-1.1c-7.6,0-15.2-0.1-22.8-0.1c-2.1,0-4.2,0.3-6-1.4
		c0-2.9,1.1-5.7,1.4-8.6c-2.3-0.9-4.6-1-6.7-0.8c-3.6,0.3-7.3,0.3-10.9-0.2c-5.5-0.8-11,0.3-16.5,0.6c-2.3,0.1-4.7,0.1-7,0.6
		c-2.1,0.4-4,1.2-5.9,2.4c-1,3.8,0.5,7.7-1.2,11.5c0.7,0.3,1.1,0.5,1.5,0.6c13.6,3.6,26.9,8.1,40.7,11.2c2.3,0.5,4.6,1.1,6.8,1.9
		c6.4,2.5,12.9,4.2,19.7,5.2c4.6,0.7,8.5,3.2,12.7,5.1c7.4,3.4,15,5.2,23.1,5.4c7,0.1,14.1,0.1,21.1-0.6c3-0.3,5.8,0.5,8.7,0.9
		c5.2,0.7,10.3,0.2,15.5,0.1c0.8,0,1.6-0.2,2.5-0.8C563.4,565.5,564,562.2,564,558.8z M334.3,436.6c-1.6,3.2-3.4,6.1-5.6,8.9
		c-2.3,2.8-2.9,6.3-3.7,9.7c-1.6,6.4,0.9,11.6,4.2,16.8c1.1-1.6-1.1-3,0.1-4.8c1.4,2.9,2.7,5.6,4.1,8.4c4.4,0.4,8.6-1,13.6-1.1
		c-4.5,1.7-8.7,1.8-12.9,2.5c-0.1,1.4-0.2,2.8-0.2,4c0.7,1.5,1.9,2.3,3.1,2.9c5.7,3.1,11.8,5.2,18.4,5.1c2.7,0,5.4,0.1,8.1-0.4
		c2.3-0.5,4.5-1,6.6-2.3c2.4-1.4,5.1-2.2,8-3.4c1.1-4,2.1-8.2,2-12.5c-0.2-8.2,1.1-16.1,4.6-23.6c1-2.1,2.1-4.2,1.9-6.8
		c-3.6-1.4-7.3-1.2-11-1.4c-7-0.2-13.7-1.5-20.5-2.7c-5.9-1.1-11.5-2.9-17.1-5.5C336.3,432.6,335.3,434.6,334.3,436.6z M355.8,378.4
		c-0.8-0.1-1.6-0.6-1.9-1.4c-1.7-4.1-4.6-7.5-5.8-11.9c-0.5-1.9-0.7-3.8-0.1-5.6c1-3.4,1.6-6.9,2.4-10.3c0.5-2,1.2-3.8,2.2-5.5
		c-2.7-2.8-4.2-6.1-5.2-9.8c-0.3-1.1,0-2.1,0.4-3.1c2.4-6.8,5.5-13.2,10.2-18.7c3.9-4.5,8.8-6.9,14.9-6.3c1.1,0.1,2.3,0.4,3.8,0.7
		c-0.2-1.5-1.2-2.3-2-3.6c-4.5,1-9.1,2.2-13.4,3.9c-1,0.4-1.8,1.4-2.6,2.3c-2,2.2-3.8,4.4-5.9,6.6c-2.7,2.8-5,2.7-7.8-0.3
		c-4.2,8-5.5,16.9-8.4,25.2c3.2,6.7,3.2,14,4.7,20.9s0.2,14,1.5,21.2c2.2,0,4,0,5.9,0c11.8,0,23.7-0.6,35.4-2.2
		c5-0.7,10.1-0.7,15.1-1.1c0.8-0.1,1.6-0.1,2.3-0.2c0.9-0.8,0.6-1.8,0.6-2.7c0.1-1.6,0-3.3,0.1-4.9c0.4-3.1,1.4-5.8,4.7-6.7
		c4.5-1.2,5.9-4.7,6.6-8.6c1-5.4-0.2-10.4-3.3-15c-3.5-5.1-8.3-8.9-12.8-13.9c0.1,9.3-3.9,15.4-11.7,19.2c-0.7,1.8-1.5,3.6-2,5.5
		c-1,3.9-3.3,6.9-5.7,10c-3.5,4.4-7,8.8-10,13.6c-1.4,2.2-3,3.8-5.9,3.7c-1,0-2.1,0.3-3.3,0.5C357.6,379.4,356.9,378.5,355.8,378.4z
		 M337.9,663.9c-5.8-0.2-11.3-2.3-17-3.2c-0.9-0.3-0.3-1.4-0.9-2.2c-1.3,0.1-2.5,1.7-3.9,0.9c-1-1.1,0.2-1.9-0.2-3
		c-0.3-0.3-0.7-0.7-1.1-1c-1.2,0-1.9,1.2-3.2,1.1c-2.4-1.2-0.7-2.8-0.1-4.5c-1.7-0.7-2.6,2.4-4.4,0.8c-0.5-1.7,1.4-2.2,1.8-3.5
		c-0.4-0.7-0.8-1.4-1.1-2c0-1.3,1.1-2.5-0.1-3.9c-4.7,2.7-7.5,7.5-11,11.1c-5.2-0.1-8.3-2.7-10.1-7.3c-1.9,8.8-7.6,16-7.9,25.4
		c2.3,1.1,5.2,1.8,8.2,1.8c2.3,0,4.7-0.1,7-0.1c3.8,0.1,7.6,0.5,11.4,1.2c7.8,1.4,15.8,1.9,23.8,0.1c3.5-0.8,7.3-0.7,10.5-2.5
		c0.4-0.2,0.9-0.3,1.4-1.4C340.3,669.2,339.1,666.7,337.9,663.9z M513.9,524c-1-1.1-2.3-1.2-3.6-1.3c-1.9-0.1-3.7-0.3-5.6-0.4
		c-2.1-0.1-4-0.7-5.5-2c-1.6-1.4-4.1-1.6-4.6-4c-1.3,0.2-1.4,1.8-2.8,1.4c-1.1-1.2,0.7-2.7-0.3-3.9c-1.6-0.8-2.1,1.6-3.5,1.1
		c-1.8-0.9,0.1-2.5-0.4-3.8c-1.6,0-2.6,2.3-4.3,0.9c-0.7-1.2,0.5-1.9,1-2.9c-0.8-1.2-2.2-1.9-3.2-2.9c-1.1,0-0.6,1.3-1.2,1.5
		c-3.7,1-4.6,4.3-6.2,7.1c-0.9,1.6-1.3,3.6-3.2,4.4c-3.4-0.5-3.8-0.8-8.3-6.1c-0.5,1.6-0.7,3.2-1.5,4.6c-0.3,0.5-0.6,1.1-0.6,1.7
		c-0.1,4.5-0.3,9-1.3,13.3c1.6,1.1,2.8,1.3,4.3,1.2c7.9-0.5,15.9-1,23.8,0.1c3.5,0.5,7,0.2,10.5,0.9c1.8,0.4,3.7,0.1,5.6-0.3
		c3.3-0.7,6.7-1.3,10-2.1c1.1-0.3,2.4-0.2,3.2-1.7C515.6,528.4,513.2,526.6,513.9,524z M378.5,309.6c-8.2-3.5-17.7-0.1-22.2,8
		c-0.8,1.4-1.4,3-2.1,4.4c-1.7,3.4-2.4,7.3-4.8,10.2c0.4,3.7,2.2,6.7,3.6,10c1.4-2.2,0.9-4.5,1.3-6.6c-2.6-2.5-2.6-2.5-3-4.9
		c1.6,1.4,2.8,2.7,4.4,3.7c0.7,4.1,0,8-2.1,11.5c-1.1,1.7-1.2,3.4-1.7,5.4c0.6-0.3,1-0.4,1.2-0.6c3.7-4.9,8.2-9,12.4-13.4
		c2.2-2.3,4-4.9,5.2-7.7c2.6-5.9,6-11.4,8.9-17.2C379.4,311.2,379.1,310.4,378.5,309.6z M327.5,314.4c15.2-4.2,30.5-8.5,45.7-12.8
		c0.2-0.1,0.4-0.2,0.7-0.4c0.5-1.5,0.3-3.1-0.3-5.1c-16.9,5-33.7,9.9-50.7,14.9C324.2,314.8,324.6,315.2,327.5,314.4z M327.7,315.9
		c2.3,5.6-0.4,11.6,2.5,17.3c1-1.4,0.3-2.9,0.8-4.1c0.1-0.2,0.2-0.5,0.3-0.6c2.3-2,4-4.3,5.1-7.3c1.2-3.1,3.2-5.9,5.4-8.6
		c-0.1-0.2-0.3-0.4-0.4-0.6C337,313.3,332.5,314.5,327.7,315.9z M386.6,343.3c6.9-3.1,9.8-13.7,5.4-20.3
		C389.3,329.8,387.9,336.5,386.6,343.3z M397.8,296.9c-0.8-0.8-1.8,0.1-2.7-0.2c-0.2-0.1-0.5-0.3-0.8-0.5c-3.6-2.3-3.8-3.1-2-6.8
		c0.3-0.5,0.7-1,0.4-1.6c-0.1-0.2-0.2-0.4-0.3-0.6c-2.1,0.1-2.1,0.1-4.8,2.1c-2.1,5.3-0.8,8.4,4.7,10.7
		C394.2,299.5,396.2,298.8,397.8,296.9z M387.8,461.7c0.7-6.9,0.9-13.7,1.6-20.6c-1.1,3.4-2.1,6.8-3.7,9.9
		c-1.8,3.4-2.1,7.2-2.8,10.8c-0.1,0.5-0.1,0.9,0.4,1.3C384.7,462.8,386.2,462.3,387.8,461.7z M357.2,308.3c-5.5-0.1-8.7,2.3-9.4,6.9
		C352.4,314.5,354.3,311.1,357.2,308.3z M306.2,316.4c-0.6,1.6,0,2.6,1.7,3.3c1.2-0.1,2.4-0.5,3.7-1.1c-0.3-1.4-0.9-2.5-1.5-3.6
		C308.5,315.1,307.3,315.5,306.2,316.4z M321.2,306.1c-0.2,1.3,1.2,2.1,0.7,3.3c1.5,0,2.4-1.2,3.8-0.9
		C324.2,307.4,323.3,305.6,321.2,306.1z M361.8,242.9c1.3-0.9,2.9-0.9,4.4-1.3c-1.4-0.5-2.7-1-3.7-2
		C360.9,240.8,360.7,241.6,361.8,242.9z M343.9,295.3c1.9-1.8,3.5-3.6,3.1-7.2C345.8,290.9,344.9,293.2,343.9,295.3z M344.5,265.1
		c0,3.2,0,6.4,0,9.7C344.9,271.5,345,268.3,344.5,265.1z M356.7,243.7c0.4-0.3,0.5-0.5,0.3-0.7c-0.7-0.6-1.4-1.1-2.4-0.7
		C355.1,243.4,356.3,243,356.7,243.7z M347.1,252.4c1.4-1.1,1.8-2,2.2-3.7C347.8,249.7,347.5,250.7,347.1,252.4z M386.3,246.6
		c-0.6-1.3-1.5-1.7-2.8-2.1C384.2,245.9,385,246.3,386.3,246.6z M351.6,245c-1.2-0.8-1.2-0.8-1.6,0.5
		C350.7,245.7,351.1,245.2,351.6,245z"/>
	<path d="M829.8,423.3c0.6-1.7,0.5-3.7,0.8-5.5c0.4-2.5,1.3-4.6,2.7-6.8c2.6-3.8,4.7-7.7,5.5-12.4c1.1-6.4,2.8-12.6,4.2-18.9
		c1.8-8,2.4-16.2,3.2-24.6c-4.4-0.9-8.6-1.7-12.7-3c-0.6-0.2-1.2-0.2-1.7-0.5c-6.4-3.7-13.2-2.3-19.9-1.8c-2.2,0.2-4.4,0.5-6.5,0.8
		c-0.6,1.5-0.5,2.9-0.5,4.3c0.2,8.9,0.5,17.8,0.6,26.7c0.1,6.8-0.4,13.6-0.2,20.4c0.1,1.9,0.2,3.7,0.7,5.6
		c1.5,5.4,0.9,10.6-1.6,15.7c-2.3,4.6-4.2,9.4-6.3,14.1c-3.1,6.8-3.8,13.9-3.8,21.2c0,8,0.7,15.9,1.3,23.9c0.5,6-0.2,12,0,17.9
		c0.1,2.9-0.1,5.9-0.1,8.8c0,3-0.1,6.1-1.1,9c-0.6,0.7-1.9,0-2.6,1.1c-0.8,6.9-4,13.4-3.9,20.7c4.4,1.6,9,1.6,13.7,1.9
		c1.4,0.1,2.8,0,4,0.9c0.8,0.6,1.8,0.4,2.7,0.4c5.9,0,11.7,1.1,17.5,1.8c1.5,0.2,3,0.3,4.5,0c3.3-0.7,6.7-1.3,10-2.1
		c1.5-0.3,2.8-0.9,4.2-1.4c0.3-2.4-0.2-4.4-0.8-6.5c-2.9-2.8-6.8-3.2-10.4-3.4c-2.9-0.2-5.1-1.1-7.3-2.5c-1.2-0.1-2.1,1.4-3.4,0.4
		c-1-1.4,2.1-2.5,0.1-4.2c-1.6,0.5-2.8,3.7-5.4,1.6c0.1-1.8,1.7-2.5,2.4-3.8c-0.3-0.8-0.7-1.2-1.5-0.7c-1,0.6-1.9,1.4-2.9,2
		c-0.9,0.5-1.9,0.9-2.9-0.4c0.2-2,2.3-2.4,3.5-3.8c-0.8-1.4-2.3-1.7-3.4-2.5c-4.2,1.6-7.6,3.9-8.3,8.3c-1.2,1.2-2.4,1.4-3.3,0.8
		c-2.6-1.8-4.9-4-6.4-6.5c0-1.1,0.5-1.4,1.2-1.7c2.6,0.6,3.5,3.6,6,5c1.5-2.7,3.2-5.2,6.1-6.6c-0.2-2.2,0.7-4.5-0.5-6.5
		c1.7-4,1.4-8.3,1.9-12.5c0.1-1.1,0.1-2.3,0.5-3.4c3.8-11.6,6.3-23.5,9.2-35.4c0.4-1.6,0.8-3.2,1.9-4.1c1-8.4,0.5-16.9,4.1-24.4
		c1.6-0.4,1.6,1.3,2.7,1.1c-0.2,1-1.5,1.2-1.7,2.5c-0.8,5.8-2.4,11.5-3.1,17.3c-1.1,9.1-3.8,17.6-6,26.4c-2.5,10-5.6,19.9-6.2,30.2
		c-0.1,2,0.3,3.7,1.4,5.3c0.9,1.3,2.2,2.1,3.5,2.9c4,2.8,8.6,4.8,11.6,8.9c0.5,0.7,1.4,1.2,2.2,1.8c2.7,2.3,6,2.9,9.4,3.4
		c2.2,0.3,4.3,1,6.2,2.2c1.1,0.8,2,1.8,1.8,3.2c-0.4,2.5,0.6,4.8,0.6,7.1c1.1,0.9,2.3,1.1,3.5,1.3c6.8,0.9,13,3.8,19.5,5.8
		c1.4,0.4,2.7,1,3.5,2.2c2.5,3.8,4.3,7.7,3.5,12.4c-0.5,2.9-1.6,5.5-2.3,8.6c-8.9,1.6-17.6,1.2-26.6-0.5c0.6,7.3,0,14.1-1,20.8
		c-0.1,0.9-0.2,1.9,0,2.8c1,5.3,1,10.7,0.8,16.1c-0.3,10.8-0.5,21.6-0.8,32.4c0,0.7-0.1,1.4-0.2,2.1c-1.2,7.4,0.3,14.7,1,21.8
		c0.7,0.6,1.3,0.6,1.9,0.6c15.4,0,30.7,0.3,46.1-0.4c1.1,0,2.2-0.3,3.1,0.3c2.8,2.1,6.4,2.3,9.3,4c1.9,4.9,3.9,9.7,4.9,14.8
		c-1,1.6-2.5,1.5-3.9,1.5c-2.9-0.1-5.9-0.1-8.8-0.3c-12.6-1-25.1-0.3-37.6,0.6c-6.8,0.5-13.6,1.1-20.4,0.8
		c-9.7-0.4-19.5-0.6-29.2-1.5c-3.6-0.3-7.3-0.3-10.9,0c-6,0.5-12,0.8-17.9,0.7c-3.3-0.1-6.5,0-9.7,1.6c-3.1-2.4-8.1-2-9.7-6.5
		c2-3.5,3.8-6.8,5.6-10c0.9-1.6,2-3.2,4.2-3.2c10.4-0.3,20.7-2.1,31.2-1.5c6.9,0.4,13.8-0.1,20.8-0.3c2.4-0.1,4.9,0.1,7.2-1.2
		c0.5-5.5,0-10.9,0.6-16.3c0.2-2,0.5-4,0.2-6c-0.7-4.3-0.4-8.7-0.6-13c-0.2-4.9-0.5-9.9-1-14.8c-0.4-3.5-1.7-6.8-5.4-8
		c-4.7-1.5-8.9-4.2-13.5-6c-8.3-3.3-16.3-7.1-24.6-10.4c-4.4-1.7-9.1-2.6-13.3-4.6c-7.3-3.6-15.5-3.9-23.3-6.6
		c-0.4,5.7-0.6,11-2.4,16.1c0.5-5.3,1.4-10.6,1.7-16.3c-0.7,0.5-1,0.6-1,0.8c-0.7,3.3-2,6.5-1.8,10c0.1,1.7-0.2,3.5-0.4,5.2
		c-0.9,6.8-2,13.7-2.6,20.6c-0.2,2.5-0.2,5-1,7.5c-1.3-0.5-1-1.5-0.9-2.2c0.5-5.4,1-10.7,1.7-16.1c0.8-6.1,2.3-12.2,2-18.5
		c-0.1-2.4,0.9-4.6,1.5-6.8c0.3-1.3,1.3-2.2,3-2.7c2.8,1.3,6,2.5,9.4,2.9c1.9,0.3,3.7,0.7,5.5,1.1c6.6,1.6,12.9,4.3,19.3,6.6
		c14.1,5,27.8,11.3,41.5,17.3c3.3,1.5,5.1,3.8,5.9,7.3c1.1,5.2,1.2,10.5,1.6,15.7c0.4,5.6,0.5,11.2,0.5,16.9
		c0.1,6.5-0.5,13.1-0.7,19.7c2.2,1,4.4,2.1,6.7,3.1c0-1.1,0-2,0-3c0-0.9-0.9-1.9,0.6-3c0,2.6,1.5,4.8,0.4,7.4c-3,0-5-2.3-7.5-3
		c-1.7,1.2-3.6,1.2-5.5,1.4c-7.8,0.7-15.7,1-23.6,0.6c-9.1-0.5-18,0.6-27.1,1c-2.1,0.1-4.2,0.2-6.4,0.3c0,0.6,0,1,0,1.5l0.1-0.1
		c-1.4,1.3-5.5,8.5-6.3,11.1c3.7,1.8,7.2,3.8,11.6,2.4c1.4-0.4,3-0.2,4.6-0.2c6.1,0,12.2-0.4,18.3-0.9c4.5-0.3,8.9-0.3,13.4-0.2
		c7.4,0.3,14.8,0.7,22.1,1c11,0.4,22-0.8,33-1.4c9.8-0.6,19.7-1.1,29.5-0.4c3.5,0.3,6.9,0.3,10.6,0.5c-1.3-4.4-2.5-8.4-3.7-12.4
		c-3.2-1.3-6.7-1.5-8.7-3.9c-16.9,1.5-33.3,0.3-49.7,0.5c-0.7,1.2,0.2,2.6-1.1,3.3c-0.5-0.2-0.7-0.6-0.8-1.1
		c-0.8-6.5-1.9-13-1.9-19.5c0-6,0.7-11.9,0.7-17.9c0-7.4,0.6-14.8,0.8-22.1c0.1-4.7,0.6-9.4-0.3-14.1c-0.6-3.3-0.4-6.5,0-9.8
		c0.7-5.1,1.2-10.3,1-15.4c0-0.5-0.2-0.9-0.6-1.3c-0.8-0.3-1.5-0.1-2.2,0.7c-0.4,3.2,0,6.5-0.3,9.8c-0.6,6.9-1.3,13.8-1.2,20.7
		c0.2,8.8,0.1,17.6,0.1,26.4c0,2.2,0.5,4.4,0.4,7c-1.1-2.3-1.2-4.4-1.2-6.5c0.1-9.5,0.2-19,0.2-28.5c0-2.9-0.3-5.8-0.1-8.8
		c0.5-4.8,0.8-9.6,1.1-14.4c0.1-1.9,0.5-4-0.3-5.8c-0.9-0.4-1.7-0.4-2.5-0.3c-7.2,0.4-14.3-0.2-21.5-0.6c-8.3-0.4-15.8-3.4-23-7.1
		c-2.4-1.3-4.9-2.3-7.5-2.8c-6.7-1.2-13.3-2.9-19.8-4.8c-7.1-2-14.2-3.8-21.6-5.8c0.1,12.6-2.1,24.6-3,36.7
		c-1,12.1-2.9,24.1-4.4,36.4c-0.6,0.1-1.2,0.3-1.8,0.3c-15.8,1.3-31.6,0.2-47.6,0.8c-0.2,0.2,0.6,0.6,0.1,1
		c-1.4,0.1-2.4-1.2-4.2-1.2c-1.2,3-2.4,6.1-4.6,9c1.8,0.9,3.3,1.7,5.1,2.5c1.1-0.6,2.4-0.3,3.7-0.3c6.6,0.5,13.1,0.6,19.7-0.1
		c9-1,18-0.4,27,0.3c8.4,0.7,16.9,0.8,25.3,0.4c6.6-0.3,13.1-1.4,19.6-1.1c6.8,0.3,13.5-0.8,20.5,0.2c-1.2-3.6-2.3-6.9-3.5-10.4
		c-16.7-0.9-33.3-0.3-49.6-1.7c-0.8,0.9,0.2,2.1-0.9,2.7c-0.8-2-0.5-5.8,0.5-8.6l-0.1-0.1c0.2,1.4-0.3,2.8,0.5,4.2
		c0.4,0.1,0.9,0.3,1.3,0.3c10.1,0.3,20.1,1.4,30.2,0.9c4.7-0.2,9.3,0.3,14,0.2c1.9,0,4,0.5,5.6,1.9c1.6,4,3.1,8,4.3,12.2
		c-1.2,0.7-2.3,0.9-3.3,0.6c-2.9-0.8-5.8-0.2-8.8,0c-1.5,0.1-3.1,0.3-4.6,0.1c-7.4-0.6-14.8,0.2-22.1,0.8c-10,0.8-19.9,0.3-29.9-0.4
		c-7.8-0.6-15.6-1.3-23.5-0.6c-6.2,0.6-12.4,0.9-18.6,0.2c-1.9-0.2-3.9-0.9-5.6-0.4c-3.9,1.2-6.3-1.2-9.5-2.8
		c2.7-4.2,4-8.8,6.7-12.3c17.7,1.3,35,0.1,52.4,0.1c0.8-7.2,1.8-13.9,2.5-20.6c0.8-8.4,2.5-16.7,2.8-25.2c0.1-2.7,0.3-5.4,0.8-8
		c0.6-3.4,1.1-6.7,1.3-10.1c0.2-2.8,0.4-5.6-0.1-8.4c-7.6-2.4-15.1-4.8-22.6-7.1c-1.7-0.5-3.4-0.9-4.4-3.1c1-3.8,0.2-8.2,2-12
		c2.1-1.7,4.3-2.6,6.8-3.2c2.6-0.6,5.1-0.4,7.7-0.7c10.6-1.4,21.3,0.2,32-0.1c1.3,0,2.2-0.2,3-1c0.4-2,0.4-4.3,1.4-5.8
		c1.2-1.7,1.4-3.4,1.5-5.2s0.2-3.5,0.4-5.3c0.5-4,0.9-8.2,1.1-12.2c0.4-11.4-0.2-22.8-1.5-34.1c-0.3-2.9-0.6-5.9-1.7-8.6
		c-0.8-2-1-4.1-1-6.2c0-1.8,0-3.5,0.2-5.3c0.8-7.6,1.6-15.2,5-22.2c1.5-3,3.2-5.9,3.5-9.5c0.4-4.2,0.5-8.4,0.9-12.6
		c0.3-3.1,0.2-6.1-0.1-9.1c-1.3-11.6-1.8-23.2,1.6-34.6c0.5-1.7,0.3-3.4-0.5-5.1c-1.5-3.4-2.7-7-4.1-10.5c-0.6-1.7-1-3.3-1-5.2
		c0-5.1,0.5-10.1,1-15.1c0.2-1.7,0.6-3.4,1.1-5.1c2.3-8.5,8-14.8,13.6-21.1c2.6-2.9,4.4-5.8,4.3-9.8c0-0.9,0.3-1.9,0.3-2.8
		c0.1-4.3,0.8-8.7,0.3-13c-0.4-3.1-1-6.2-1.4-9.4c-0.4-3.2-0.7-6.4-1-10.1c-1.3,1.6-1.7,3.3-3.3,3.7c-2.7,0.7-5.4,1.5-8,2.2
		c-5.4-2.8-7.8-5.9-9.1-11.4c-0.5-2.3-1.2-4.5-2.1-6.7c-1.4-3.3-1.9-6.7-1.5-10.3c0.4-3.4,0.8-6.7,1.2-10.1
		c1.1-7.8-0.5-15.4-0.7-23.1c-1.4-1.6-2.5-3.2-4-4.4c-1.5,0.4-2.9,0.7-4.3,1.1c-1.6-1.1-3.5-1.8-4.6-3.7c1-3.1,3.4-3.9,6.3-4.2
		c0.2-1.9,1.6-3.1,1.9-4.7c1.8-1.1,3.8-1.8,4-3.9c1.8-0.9,3.1,0.7,4.3,0.4c3.2-0.7,5.3,1,7.4,2.9c9.2-2.7,18.3-5.4,27.2-8.1
		c2.4-6.8,0.3-19.9-4.5-28.3c-0.4,1.6-0.1,3.1,0.1,4.6c0.5,3.4,0.7,6.8,0.6,10.2c-0.1,3.8-1.1,7.4-3.2,10.7
		c-0.2,0.3-0.5,0.5-0.7,0.8c-0.3-0.3-0.6-0.5-0.9-0.8c-1.6,1.4-2.5,3.7-5,3.8c-0.8-1.7,0.3-2.6,0.8-3.5c1.9-3.1,3.6-6.3,5-9.7
		c0.9-2.1,1.9-4.2,1.5-7c-1.1,1.3-1.4,2.5-1.8,3.7c-2.1,6.6-5.3,12.5-9.4,18c-0.3,0.4-0.5,1.5-1.7,0.8c2.6-4.7,3.8-9.8,3.7-15
		c-0.2-7.1,0.1-14.3-1.4-21.4c-0.4-2.1-0.6-4.2-0.9-6.3c-0.2-2.1-0.6-4.5,0.4-6.2c1.4-2.5,1.8-5.3,2.8-7.9c0.7-1.7,1.4-3.5,2.4-5.1
		c1.1-1.7,2.5-3.2,4.5-3.8c4.2-1.1,8.5-1.7,12.7,0.3c0.9,0.4,1.9,1,3,0.9c6.2-0.4,12.1,0.9,18,2.8c6.8,2.2,12.9,5.1,14.6,13
		c0,0.2,0.2,0.4,0.3,0.6c1.7,3.2,1.8,6.8,2.2,10.2c0.1,1.1,0,2.1-0.6,3c-1.2,1.9-0.9,3.7,0.1,5.7c1.2,2.2,1.6,4.6,1.9,6.8
		c-0.9,1.4-2.5,1.2-3.3,2.1c0.1,2.4,0.1,2.4,1.3,4.4c4.3-1.3,8.7-2.6,13.1-3.8c3.7,1.5,3.7,1.5,4.8,4.9c-1.3,2.7-1.9,3.3-4.8,4.1
		c-3.8,1.1-7.6,2.2-11.5,3.3c0.3,2-0.7,3.1-2.1,3.9c-1.4,0.8-3.2,0.7-4.3,2.2c2.5,2.1,2.9,5.3,4,8.1c0.7,2,0.4,3.9-0.6,5.7
		c-0.7,1.2-1.6,2.2-2.6,3.1c0.2,0.4,0.2,0.6,0.4,0.8c6.9,6.6,13.4,13.5,19,21.2c4,5.5,5.1,11.5,2.7,18c-0.5,1.3-0.9,2.6-1.3,3.6
		c-2.3,3-5.3,4.2-8.2,4.8c-1.6,2-1.9,3.9-2,6c0,4.1-0.9,8.2-2.4,12c-1.6,4-1.9,8.5-4.3,12.2c-0.2,0.4-0.2,0.9-0.3,1.4
		c-0.2,2.8-0.5,5.5-0.2,8.4c0.4,4.1,0.5,8.2-0.2,12.3c-1.1,6.4-1.6,12.7-1.2,19.2c0.1,1.5-0.1,3.1,0.2,4.6
		c1.1,6.3,2.2,12.6,2.2,19.1c0,4.9,0.1,9.9-0.4,14.8c-0.9,8.2-2.3,16.3-3,24.4c-1.1,11.3-3.8,22.2-7.4,32.9c-1,3-1.8,6.1-3.7,8.7
		c-2.1,2.9-3.9,5.8-4.6,9.4c-0.2,1-0.6,2.1-1.2,2.9c-0.8,1.1-1,2.3-1.3,3.5c-0.5,2.2-0.5,4.7-2.8,6.1
		C828.2,429.1,828.8,426.2,829.8,423.3z M840.8,113.6c0.1-1.3-0.8-1.3-1.6-1.5c-0.5-0.8-1.3-1-2.3-1c0.7,0.5,1.2,1.2,2.1,1.2
		C839.3,113,839.9,113.5,840.8,113.6z M800.5,129.3c0,4.1-0.4,8.1,0.2,12.2c0.1-4.6,0.2-9.2,0.3-13.8c0.7-1.2,0.6-2.4,0.6-4.4
		c-0.7,2-0.6,3.2-0.5,4.5C800.6,128.1,800.6,128.7,800.5,129.3z M833.5,116.6c-3.5-2.3-7.5-3.5-11.5-4.6c-1.9-0.5-4.2,0-6.4-0.9
		c0,2.4,2.3,2,3,3.2l0.1-0.1c-0.2,0.1-0.4,0.2-0.9,0.3c0.4,1.1,1.4,1.7,2.2,2.4c1.6,1.4,3.4,2.4,4.4,4.3l-0.1,0.1
		c-3-1.4-5.2-3.8-7.6-6c-0.8-0.8-1.6-1.7-2.3-2.4c-1,0.3-1.8,0.6-2.2,1.4l0.1-0.1c-0.8,0.1-0.9,0.7-0.7,1.3c0.7,2.5,0.9,5.3,2.3,7.3
		c1.9,2.8,2.8,6,4.5,8.8c0.4,0.7,0.9,1.3,1.6,1.8c1.6,1,3.3,2,3.8,4.2c0.2,1,1.6,1.6,2.6,2.1l-0.1-0.1c-0.5,0.8,0.6,1.4,0.4,2.2
		c-2.3,0.7-5.1-0.5-7.7-3.4c1.3-0.3,1.9,1.3,3.6,0.9c-3.7-3.6-7.5-6.9-9.1-11.9c0.2,4.6,0.8,8.9,2.2,13.1c0.8,2.5,2.7,4,4.4,5.7
		c1.2,1.1,2.8,1.6,3.5,3.3c-2.9-0.7-4.4-3.3-7.3-5.2c1.2,2.8,3.4,4.3,4.6,6.3c-5.7-2.8-7.6-8.5-10.7-13.9c-0.4,2.3,0.5,3.8,1.1,5.4
		c1.3,3.4,2.9,6.8,4.3,10.2l0.1-0.1c-2.5-0.4-3.1-2.8-4.9-4.4c0.5,2.3,1.9,3.9,2.6,5.8c-0.1,0.4-0.3,0.5-0.5,0.5s-0.4,0.1-0.9,0.3
		c0.7,3.6-0.2,7.4,0.5,11.3c4-0.9,7.8-2.1,11.9-3.4c-1.6-2.5-3.7-4.7-3-7.7c0.4-1.7,1.5-2.9,2.9-3.8c-3.1,3.8-2.1,7.3,0.8,10.6
		c0.1,0.2,0.3,0.3,0.5,0.5c1.3,0,1.7-0.9,2.2-1.9c0.9-1.9,2.4-3.4,4.4-4.4c3.1-1.6,6.1-3.4,9-5.1c1.6-0.2,2.5,0.9,3.4,1.5
		c1.4,0.1,2.6-0.6,3.8-0.1c0.7-0.9,0.1-1.9,0.6-2.8c0.7-1.2,2.1-0.8,3.2-1.6c-0.1-2.4-1.2-4.6-2.1-6.8c-0.5-1.4-0.8-2.7-0.5-4.1
		l-0.1,0.1c0.9-0.7,0.4-2,1.3-2.5c-0.8-1.7-2.3-1.6-3.9-1.8c1.5-0.7,2.5-0.9,3.9-0.7c-0.3-1.9-0.4-3.7-0.9-5.5
		c-0.5-1.8-1.3-3.5-2.1-5.5c-1.9,0.2-2.3-2.1-4-2.9c-1.2,1.4,1.6,1.7,0.5,3.2c-5.6-4.3-11.3-8.6-18.8-9.4c3.7,2,7.9,2.9,11.4,5.3
		c-0.5,0.9-1.6,0.3-2.3,0.9l0,0C835.1,116.8,834.1,116.9,833.5,116.6z M775,176.6c-0.3-2.2-1.2-3.7-3.2-4.2c-0.9,0.5-1,1-0.9,1.6
		c0.3,1,1.4-0.5,1.7,0.7c-0.1,1-1.5,1.2-1.8,2.5c0.8,2.1,3.7,3.8,2,7.6c-0.9-3.7-3.1-6-3.7-9.3c-2.9,1.3-3.2,3.7-3.3,6.4
		c1.5,1.9,2.3,4.2,4.3,5.7l-0.1-0.1c0,1.3,0.9,2.1,1.6,3c0.9,1.1,1.6,2.5,1.6,3.9c-0.2,4.8,0.8,9.6,0.6,14.4
		c-0.1,3.8-0.5,7.5-1.2,11.2c-0.9,5.2-1,10.5,1.2,15.5c1,2.3,1.7,4.6,2.1,7.1c0.4,2.5,1.5,4.4,3.4,5.9c1,0.8,1.9,1.7,3.2,2.7
		c2.6-0.5,5.3-1.8,8.4-2.1c2.1-3,3.4-6,3.3-9.8c-0.3-7.4-1-14.7-2.9-21.9c-0.6-2.4-0.9-4.8-1.9-7.1c-0.4-0.9-0.3-1.9,0-2.8
		c1.9-7.6,3.6-15.3,6.6-22.6c0.6-1.5,1.3-2.9,2.2-4.7c-1.7,1-2.3,2.3-2.9,3.5c-1.3,2.7-3,5.3-3.8,8.3c-0.3,1-0.8,2-1.7,2.6
		c-1.9,1.3-2.5,3.4-2.8,5.5c-0.6,4.2-1.6,8.3-1.8,12.5c-0.1,1.5-0.3,3.1-0.9,4.5c-2.1,5.6-3.5,11.4-4.6,17.3c-1-0.6-0.4-1.6-0.9-2.3
		c-1,0-0.8,1.2-1.6,1.4c-0.4-1.9,1.1-2.9,2.2-4.2c0-3.9,1.3-7.6,2.7-11.2c2.6-6.8,2.1-13.5-0.1-20.3c-0.5-1.5-2.6-2-2-3.9
		c2.4-3.3,2.6-4.9,1-9.3c-0.7-1.1-2.4-1.1-2.7-2.6c5-0.8,9.7-2.5,14.6-3.8c10.7-2.9,21.4-6,32.1-9c1-0.3,2-0.6,3.1-1
		c0.5-1.7,0.4-3.2-0.2-5.3c-17,5-33.9,10-50.6,14.9c-0.2,1.8,1,2.8,1.2,4.2C775.9,181.2,775.3,178.9,775,176.6z M792.3,515.1
		c0.1-1.4,0.2-2.7,0.3-3.8c-0.6-1.1-1.3,0.2-1.9-0.3c-1.3-1.2-0.9-2.8-0.8-4.3c0.7-6.1,1.5-12.1,2.2-18.2c0.1-0.9,0.2-1.9,0.1-2.8
		c-0.7-9.5-0.9-19-1.2-28.5c-0.3-7.8,1.5-14.9,4.5-21.8c1.1-2.7,2.4-5.4,3.8-7.9c2.4-4.5,3.2-9.4,3-14.3c-0.3-9.5-0.8-19-0.5-28.5
		c0.2-5.3-0.2-10.6-0.5-15.8c-0.5-8.5-0.1-16.9,2.5-25.1c-1.3-0.7-2.8,0-4-1.5c0-1.2-1.1-2.2-2.1-3.3c-4.1-4.4-5.5-9.6-4.9-15.4
		c1.9,8.5,8.2,17.8,13.2,19c0,1.6-1,3.1-0.5,4.6c0.9,0.6,1.7,0.1,2.5,0c5.3-0.9,10.7-0.9,16.1-1.5c1.1-0.1,2.4,0.1,3.4,0.6
		c5.8,2.6,12.2,3.3,18.4,5.6c0.7-2.5,0.9-5.1,1.2-7.5c0.7-4.6,0.7-9.4,0.9-14c0.4-7.3-0.6-14.5-1.7-21.7c-0.3-2.3-0.1-4.6,0.2-7
		c-3.4-2.8-6.7-5.4-10.8-6.8c-4.5-1.5-9-2.6-13.7-3.1c-5.1-0.6-10.1-2-15.3-1.7c-3.6,0.2-7.3,0.4-11,0.6c-1,1.1-2,2.3-2.6,3.7
		c-1.6,3.7-4,6.9-6.7,9.9c-4,4.4-5.3,10-6.6,15.4c-1.4,6-0.8,12.1,0,18.2c0.2,1.9,0.4,3.9,1.9,5.5c1.2,1.3,0.2,3.5,1.9,5.1
		c3.8-1.7,8-1.2,12.2-0.8c1.3,0.1,2.5,0.5,3.8,0.9c1.1,0.4,1.8,1.2,0.9,2.9c-5.3,0-10.9-0.1-16.1-1.5c-2.1,17.9-1,35.8-1.4,53.7
		c0.3,0.4,0.7,1,1.1,1.7c-0.4,1.6-0.7,3.2-1.1,4.8c-1.2,3.9-2.6,7.8-4.4,11.5c-1.2,2.4-2.1,4.9-2.5,7.7c-0.1,0.5-0.2,0.9-0.3,1.4
		c-2.2,7.1-2,14.2-0.9,21.5c1.7,11.1,2.4,22.4,2,33.7c-0.2,5,0.3,10.1,0.3,15.1c0,2.7,0,5.3-1.2,7.9c-0.5,1-0.6,2.3-0.2,3.6
		c1.2,0.8,2.5,1.5,4.1,1.8c0.7-2.1,0.3-4.2,0-7c2,2.7,1.4,5.2,2.1,7.6c2.3,0.7,3.6,3.3,6,2.9c1,0.6,0.7,1.3,0.9,1.8
		c-0.6-0.2-1.2-0.2-1.4,0.6c-0.2,0.7-0.3,1.4-1.2,1.5c-1.3-0.2-1.1-1.7-1.9-2.2c-0.7-0.7-1.4,0.1-2.3-0.3c-1.1-1.8-3-2.8-5.3-3.2
		c-1.5,0.6-1.2,2.4-2.1,3.4c-0.4,0.6-1.4,0.1-1.8,1c-0.4,5-0.9,10.2-1.4,15.7c4.1,0.8,8,2.3,12.3,1.7c1.2-3.2,2.4-6.2,3.6-9.2
		c0.1-0.3,0.3-0.7,0.2-1c-0.8-2.9,0.5-5.4,1.3-8.1C790.7,518.3,790.7,516.1,792.3,515.1z M768.3,536.3c1.2-2.2,1.5-3.4,1.6-7.7
		c-2.2-1.1-4.7-1.2-7.1-1c-3.6,0.3-7.3,0.3-10.9-0.2c-5.5-0.8-11,0.3-16.5,0.6c-2.3,0.1-4.7,0.1-7,0.6c-2.1,0.4-4,1.1-5.9,2.4
		c-1.1,3.7,0.6,7.7-1.2,11.4c4.5,1.7,8.9,2.4,13.1,3.8c11.5,3.9,23.3,6.3,34.9,9.6c0.9,0.3,1.8,0.5,2.7,0.9
		c4.5,1.8,9.1,3.3,13.9,3.8c6,0.7,11.3,3.1,16.5,5.6c7.5,3.7,15.4,5.4,23.8,5.5c6.9,0.1,13.8,0,20.7-0.6c3-0.3,5.8,0.5,8.7,0.9
		c5.9,0.7,11.7,0.3,17.6-0.2c1.8-3.8,2.9-7.7,2.2-11.7c-0.6-3.7-2.6-6.8-6.4-8.2c-5.6-2-11.3-3.7-17.1-5.3c-5.2-1.4-10-2.2-15.2,0.2
		c-5.8,2.7-11.9,1.7-17.8,0c-3.6-1-7.1-1.3-10.8-1.2c-2.8,0.1-5.6,0.4-8.3-0.9c-0.6-0.3-1.4-0.1-2.1,0c-4.8,0.8-9-0.6-13.1-2.9
		c-0.5-0.3-0.9-0.7-1.6-0.7c-4.7-0.2-9.1-1.8-13.7-2.8C768.8,537.8,768.6,537,768.3,536.3z M840.1,213.6c-0.8,2.2-1.8,4.4-2.5,6.8
		c-0.8,2.7-2.1,4.9-3.8,7.1c-4.1,5.1-8.2,10.3-11.8,15.8c-0.7,1.1-1.5,2.1-2.7,2.8c-3.6,0.8-7.2,1.8-10.4-1
		c-1.2-1.1-1.9-2.6-2.4-4.1c-1-2.8-3.3-5-4-8.1c-0.4-2-0.7-3.9-0.2-5.9c0.9-3.6,1.6-7.3,2.5-11c0.4-1.8,1.3-3.5,2.1-4.9
		c-2.9-3.2-4.7-6.6-5.2-10.6c-0.1-0.6,0-1.2,0.2-1.7c2.5-7.4,5.8-14.4,11.2-20.1c4-4.2,9.1-6.6,15.2-5.2c0.6,0.1,1.2,0.2,1.7,0.3
		c0.2,0,0.4-0.1,0.9-0.3c-0.7-1.1-1.3-2.1-2.2-3.5c-6.3,1.9-13.2,2.1-17.5,8.3c-1.1,1.6-2.6,3.1-3.9,4.5c-2.7,3-5,3-8.1,0.1
		c-4.2,8-5.5,16.9-8.4,25.2c3.1,6.7,3.1,13.8,4.6,20.7s0.1,14,1.5,21.1c5.2,0.4,10.2,0.1,15.3,0.2c10.2,0.1,20.3-1.7,30.5-2.6
		c3.4-0.3,6.8-0.4,10.2-0.5c1-0.1,2.1,0.2,3.3-0.8c0.1-1.6,0.2-3.5,0.2-5.3c-0.1-4.4,1.4-7.8,6-9.1c4.1-1.2,4.9-4.9,5.5-8.3
		c0.9-5.5-0.3-10.6-3.6-15.3c-3.5-4.9-8.3-8.6-12.4-12.9C852.6,201.7,847.9,210.3,840.1,213.6z M804.2,253c-1.9-1.1-3.8-0.7-5.7-0.5
		c-0.8,0.9-0.6,1.9-0.3,2.7c1.2,4.2,0.7,8.4,0.7,12.6c0,1.9,0,3.7,1,5.4c0.8,1.4,0.9,3.2,0,4.4c-1.6,2.2-1.9,4.8-2.5,7.2
		c-0.3,1-0.7,2-1.2,3.2c18-2.6,35,0.1,50.8,10.1c0.7-4.2,1.8-8.4,1.8-12.5c0-3.6-0.5-7.2-1-10.8c-0.8-6.7,0-13.1,3.6-18.9
		c1.4-2.3,2.8-4.6,3.8-7.6c-4.4,0.4-8.6,0.9-12.7,1.3c-0.8,0.5,0.3,1.4-0.8,2c-0.4-0.6-0.9-1.2-1.6-2c-11,2.5-22.2,2.6-33.5,3
		c0.2,5.5,1.2,10.6-0.9,15.6C805.9,263.1,804.7,258.1,804.2,253z M830.8,168.3c0.4,1.2,0.8,2.4,1.5,3.5c1.6,2.4,2.7,4.9,3.2,8.3
		c-3.6,6-5.5,13.2-9.4,19.5c-1.7,2.7-3.6,5.2-5.9,7.5c-2.7,2.8-5.4,5.5-8.3,8.1c-2.3,2.1-3.5,5-6.1,6.7c-0.7,2.4-1.1,4.7-1.7,6.9
		c-0.8,2.9,0.4,5.8,2,8.3c1.3,2.1,2.5,4.2,3.6,6.4c1.1,0.9,2.4,1.1,3.7,1.2c3.1,0.4,5.6-0.3,7.5-3.2c3.4-4.9,7.1-9.6,10.8-14.3
		c1.9-2.4,3.3-4.9,4.3-7.9c1.9-6.1,3.7-12.1,4.7-18.4c0.8-5.1,3-9.9,5.1-14.6c1-2.2,3.1-3.8,3.8-6.7c-1.4-5.1-3-10.5-8.5-13.4
		c-1-0.5-1.6-1.6-1.7-2.6c-0.5-3.5-1.2-7.1,2.4-9.5c0.5-0.3,0.9-0.7,1.1-1.7c-5.1,0-4.8,5.5-7.8,7.5c-1.5-0.9,0.5-1.8,0-2.7
		c-1.2,0.3-1.4,1.9-2.7,1.9c-0.9-0.5,0.1-1.1,0.4-2.1c-1.9,0.9-2.6,2-3.4,3.1C830.3,162.7,829.9,165.6,830.8,168.3z M832.9,176.6
		c-3.4-1.1-6.7-2.4-10.3-1.1c-4.7,1.8-8.8,4.3-11.5,8.8c-1,1.6-1.6,3.4-2.4,5c-1.7,3.4-2.5,7.2-4.8,10.2c0.6,3.6,2.1,6.6,3.9,10.4
		c0.6-2.9,1.1-5,1-7.2c-1.2-1.3-3.2-2-3.1-4.7c1.8,1.1,2.6,2.9,4.5,3.3c0.5,4.4,0.2,8.4-2.2,12c-1,1.6-1.2,3.2-1.5,4.9
		c1.2,0.3,1.3-0.6,1.7-1.1c2.9-3.9,6.5-7.1,9.8-10.5c3.4-3.5,6.1-7.4,8.2-11.9c2.4-5.2,5.3-10.2,8-15.4
		C833.7,178.5,833.3,177.6,832.9,176.6z M796.4,152.5c0.3-1,0.5-1.6,0.9-2.7c0.6,4-1.2,7.1-1.6,10.4c2.2-3.8,3.9-7.8,4.6-12.1
		c0.3-1.9-0.4-3.7-0.7-5.5c-0.8-4.3-0.7-8.7-0.4-13c0.2-2.9,0.4-5.8,0.4-8.8c-0.1-3.6,0.8-6.7,3.9-8.8c0.1-0.8-0.8-0.3-0.7-1.3
		c2.4-1.4,5.4-1.7,8.3-2.6c-0.5-0.9-1.7-1.4-1.8-2.5c-3.5-0.2-5.7,1.9-7.5,4.5c-1.7,2.5-3.1,5.2-4.1,8.1c-0.3,0.9-0.4,1.8-1,2.7
		c-1.1-0.2-0.2-1.5-0.7-1.7c-3.2,6.9-1.5,14-0.2,21c0.2,0.8,0.4,1.6,1.4,1.8C797.4,145.6,795.5,148.7,796.4,152.5z M782.1,182.8
		c0.9,3.3,1.5,6.4,1.1,9.7c-0.3,2.7,0.5,5.3,1.2,7.9c0.6-0.3,0.7-0.8,0.7-1.2c-0.2-2.6,0.8-4.5,3-5.9c0.9-0.6,1.4-1.5,1.7-2.5
		c1.3-3.8,3.5-7.1,6-10.3c0.7-0.9,1.4-1.7,2.7-1.9C792.9,179.5,787.6,181.2,782.1,182.8z M851.9,155.9c-2.5,0.7-2.5,0.8-4.4,3.1
		c-0.2,0.9,0.1,1.6,1,2.4c5,1,9.4-2,14.3-2.7c-1.1-3.2-1.1-3.2,0.7-6.2C859.3,153.7,855.6,154.8,851.9,155.9z M809.8,115.3
		c-0.6,3.7-0.6,7.3-0.5,11c0,1.6,0,3.3,0.2,4.9c0.3,2,0.9,3.9,3.1,4.6c0.5-0.8-0.1-1.5-0.3-2.3c-1.4-4.9-1.9-9.9-1.5-15
		c0.1-1.4,0.1-2.8-0.4-4.1c-2.6,0.6-3.4,1.8-5,8c-1.3,5.2-1.3,5.2,0.7,9.7c-1.2,5.1,1.8,9.2,3.3,13.9c1-0.8,0.6-1.5,0.4-2
		c-0.6-1.8-1.2-3.5-1.9-5.3c-0.7-2-1.1-3.9-0.8-6.1c0.2-2.3-0.1-4.7-1.1-7.2C807.8,122.2,807.2,118.2,809.8,115.3z M840.9,210.8
		c7.2-4.8,9.6-13.9,5.4-20.7C843.6,197,842.2,203.7,840.9,210.8z M845.5,159.5c-0.1-2.1,1.9-3.4,2.5-5.4c-3-1.1-4.5,1.3-6.4,2.2
		c-1.4,5.8-0.4,8,4.7,10.5c3.3-0.9,3.3-0.9,5.5-3.1C848.4,163.4,846.9,162.4,845.5,159.5z M805.7,176.1c-1.5,1.7-3.2,3.1-3.6,5.5
		c3,0.7,6-1.4,9.3-6.7C809.4,174.7,807.6,175.7,805.7,176.1z M762.3,186.6c1-0.2,2.3-0.3,3.5-1.2c-0.2-1.3-0.8-2.3-1.4-3.5
		c-1.7,0.3-3.3,0.3-4.2,2.3C760.4,185.4,761.1,186.2,762.3,186.6z M867.2,157.8c1.2-3.3,0.8-4.2-2.5-5.6c-0.1,1.4-0.8,2.5-1.8,3.5
		C864.1,157.6,865.4,158.2,867.2,157.8z M822.2,109c-1.7-0.5-3-0.8-3.7-1.9c-1.7,1.4-1.7,1.4-1,3.7C818.7,109,820.4,109.7,822.2,109
		z M775.1,173.2c0.6,1.1,1.1,2.1,1.5,3c1.1-0.3,2.1-0.6,3.7-1C778.2,174.3,777.3,172.7,775.1,173.2z M810.4,106
		c1.3,1.2,2.8,2,3.8,3.7C814.6,106.3,814.3,106.1,810.4,106z M800.2,161.5c2.5-2.5,2.7-2.8,2.6-6.4C801.9,157,801.1,159,800.2,161.5
		z M803.2,119.4c1.5-1.1,1.6-2.7,2.5-3.9C804.3,116.4,803.2,117.4,803.2,119.4z M832.8,111c-1-1.1-2.4-1.1-4.3-1.7
		C830.2,110.5,831.5,110.7,832.8,111z M807.2,112c-0.9-0.6-1.4-0.3-1.7,1C806.4,113,807.1,113,807.2,112z M810.4,109.7
		c0.5,1.1,1.5,1.1,2.8,1.5C812.3,109.9,811.6,109.5,810.4,109.7z M828.9,108.6c-0.5-0.8-1-0.6-1.7-0.9
		C827.8,108.7,828.3,108.4,828.9,108.6z"/>
	<path d="M738.1,629.1c-15-1.5-30.1,0.5-45.1-0.9C708,628.4,723.1,627.1,738.1,629.1z"/>
	<path d="M426.5,626.3c-15-1.5-30.1,0.5-45.1-0.9C396.4,625.6,411.5,624.3,426.5,626.3z"/>
	<path d="M294.3,645c1,1,2.8,1.4,3.3,3.2c0,0.8-0.4,1.3-1.5,1.5c-1.4-1.3-3.8-1.3-5-3.6c1-1.3,0.5-3.3,2.1-4.4
		C294.5,642.4,293.7,643.9,294.3,645z"/>
	<path d="M539.7,672.6c5.3,0,10.5,0,15.8,0c-5.2,0.5-10.5,1.4-15.8,0.8C539.7,673.1,539.7,672.9,539.7,672.6z"/>
	<path d="M851.3,675.4c5.3,0,10.5,0,15.8,0c-5.3,0.5-10.5,1.4-15.8,0.8C851.3,675.9,851.3,675.7,851.3,675.4z"/>
	<path d="M439.8,624.1c4,0.5,8,0.4,12,0.7C448.1,625.7,442.4,625.4,439.8,624.1z"/>
	<path d="M764.3,627.5c-4.8,1.4-8.8,0.2-12.8-0.3C755.5,627.4,759.5,627.2,764.3,627.5z"/>
	<path d="M779.8,679.3c-1.5,2.8-1.1,6.3-3.9,8.6C777.4,685.1,776.9,681.5,779.8,679.3z"/>
	<path d="M463.8,685.3c1.8-3.1,1.5-6.6,4.3-9.3C466.8,682,466.1,683.7,463.8,685.3z"/>
	<path d="M792.5,677.5c-3.7,0.5-7.4,0.4-11,0C785.1,677.5,788.8,677.5,792.5,677.5z"/>
	<path d="M320.5,550.7c0.2-0.3,0.5-0.4,0.8-0.6c-0.5,3.5-1.2,4.6-3.9,5.6C318.4,554,319.5,552.3,320.5,550.7z"/>
	<path d="M480.8,674.7c-3.7,0.5-7.4,0.4-11.1,0C473.5,674.7,477.1,674.7,480.8,674.7z"/>
	<path d="M343.2,497.8c0.2,2.6-0.2,4.4-1.6,7.1C341.5,502.3,342,499.9,343.2,497.8z"/>
	<path d="M312.2,573.7c0.7-2.2,1-4.6,2.9-6.1C314.6,569.9,313.8,571.9,312.2,573.7z"/>
	<path d="M502.3,674c2.9,0,5.7,0,8.6,0v0.1C508,674.1,505.2,674.1,502.3,674C502.3,674.1,502.3,674.1,502.3,674z"/>
	<path d="M822.6,677c-2.9,0-5.8,0-8.7,0c0-0.1,0-0.1,0-0.2c2.9,0,5.7,0,8.6,0C822.5,676.9,822.5,677,822.6,677z"/>
	<path d="M774.2,675.2c3.2,0.4,3.6,0.6,5.4,3.1C777.5,677,775.4,677,774.2,675.2L774.2,675.2z"/>
	<path d="M691.4,629.8c0,2.3-0.8,4.2-2.8,5.5C689.5,633.5,690.4,631.7,691.4,629.8z"/>
	<path d="M376.9,632.4c0.9-1.8,1.9-3.6,2.8-5.5c0,2.3-0.9,4.2-2.2,5.9C377.3,632.7,377.1,632.5,376.9,632.4z"/>
	<path d="M462.6,672.4c3.1,0.4,3.6,0.6,4.9,2.8C465.9,674,463.7,674.3,462.6,672.4L462.6,672.4z"/>
	<path d="M309.2,580.3c-0.2-1.2-0.2-2.2,1.1-2.9C310.4,578.5,310.6,579.5,309.2,580.3z"/>
	<path d="M294.6,637.6c0.4,1.1,0.1,1.9-0.9,2.6C293.6,638.5,293.6,638.5,294.6,637.6z"/>
	<path d="M295.5,632.3c-0.2,0.9,0.4,1.7-0.9,2.4C294.1,633.6,294.1,632.9,295.5,632.3z"/>
	<path d="M588.1,671.3c-1,0.6-1.9,0.2-3.4-0.1C586.3,671,587.2,670.6,588.1,671.3z"/>
	<path d="M896.6,674.1c1.3-0.3,2.2-0.6,3.2,0C898.8,674.6,897.9,674.3,896.6,674.1z"/>
	<path d="M339.3,553.2c0.1-1.2,0.6-1.5,2-1.1C340.7,553,340.5,553.9,339.3,553.2z"/>
	<path d="M577.4,672.2c-1.1-0.2-1.9,0.4-2.8-0.3C575.5,672.1,576.4,671.3,577.4,672.2z"/>
	<path d="M886.2,674.9c0.9-0.4,1.8-0.3,2.7-0.1C888.1,675,887.2,675.3,886.2,674.9z"/>
	<path d="M296.7,628.7c-0.2,0.4-0.3,1.1-1,1c-0.2-1-0.1-1.8,0.9-2.2C297,627.8,296.9,628.3,296.7,628.7z"/>
	<path d="M339.5,512.6c-0.4-0.8-0.6-1.5,0.2-2.3C340.2,511.1,340.3,511.8,339.5,512.6z"/>
	<path d="M338.2,557.1c-0.4-0.8,0-1.1,0.6-1.4C339.4,556.5,338.8,556.8,338.2,557.1z"/>
	<path d="M439.6,602.4c0-0.4,0-0.7,0-1.1h0.1C439.7,601.6,439.7,602,439.6,602.4C439.7,602.4,439.7,602.4,439.6,602.4z"/>
	<path d="M751.3,605.2c0-0.3,0-0.6,0-1h0.1C751.4,604.5,751.4,604.9,751.3,605.2L751.3,605.2z"/>
	<path d="M438,616.7c0-0.7,0.1-1.4,0.2-2.5C438.5,615.4,438.7,616.1,438,616.7L438,616.7z"/>
	<path d="M749.7,619.6c0-0.7,0.1-1.4,0.1-2.1C750,618.2,750.4,618.9,749.7,619.6L749.7,619.6z"/>
	<path d="M431.4,622.5c0.7-0.1,1.1,0.2,1.5,1C431.6,623.9,431.3,623.5,431.4,622.5z"/>
	<path d="M743.3,626.3c-0.3-0.3-0.9-0.5-0.3-1c0.7-0.1,1.1,0.2,1.5,0.9C744,626.6,743.6,626.6,743.3,626.3z"/>
	<path fill="none" d="M388,431.4c0.8-3.9,2.2-7.6,3-11.5c0.3-1.7,0.2-3.5,1.4-5.1c7.7-3,15.8-5.1,23.8-7.4c3.7-1.1,7.5-1.6,11.5-1.6
		c5,0,10.1-0.3,15.1-0.3c5.2,0,10.4,0.2,14.6,4.5c1,1.6,1.2,3.6,1,5.8c-0.4,3.4-0.1,6.8,1,10.1c1.1,3.2,2.2,6.5,3,9.7
		c0.8,3.3,2.3,6.4,2.3,9.9c0,2.2,0.4,4.5,1,6.6c2.5,8.5,3.3,17.3,4.7,25.9c1.6,9.5,3.5,19,7.6,28.1c-1.6,1.3-3.2,3-4.4,4.7
		c-2.5-0.3-4.3-1.8-6.8-3.1c0.5,1.7,0.4,2.9,1.1,3.8c1.3,1.3,3.1,0.3,4.6,1.3c-0.9,1.4-1.4,3.2-2.8,4.3c-3.1-1-4.3-3.9-6.5-5.7
		c-0.1-1.9-0.2-3.6-0.4-5.4c-1.3-9.3-5.8-17.3-9.5-25.6c-1.1-2.5-2.8-4.6-4.3-6.9c-4.4-6.5-7.6-13.5-7.2-21.6c0.1-1.8,0-3.5,0.2-5.3
		c0.3-2.7,0.2-5.4-1-7.9c-0.4-0.9,0.1-1.5,0-2.3c-3.2-0.2-6,0.7-8.8,2.1c-8.6,4.4-16.9,9.1-25.1,14.2c-5,3.1-10.5,5.2-16.5,7.4
		c0.9-3.9,0.7-7.2,1.2-10.6c0.8-5.6-0.1-11.2-1.9-16.6C389.6,432.1,389.2,431.1,388,431.4L388,431.4z M449,419.3
		c3-1.2,3.1-1.3,3.6-4.6C450.8,416.2,450,417.6,449,419.3z M454.3,442.3c-0.5-1.8-1.4-3.1-3.2-3.5c-0.2,0.2-0.3,0.5-0.5,0.7
		C451.9,440.4,453.1,441.3,454.3,442.3z M465.9,501.8c-0.5,2.1,0.1,3.4,1,4.8C467.6,504.9,467,503.5,465.9,501.8z M459.5,451.8
		c0.5-1.6-0.2-2.5-1.1-3.3C458.3,449.7,458.6,450.7,459.5,451.8z M464.9,500.5c0.3-0.9,0.3-0.9-0.4-2
		C464,499.5,464.3,500,464.9,500.5z M452.3,413.6c0.8-0.4,0.3-0.9,0.1-1.4c-0.2-0.4-0.5-0.8-1.1-0.4
		C451,412.8,451.6,413.2,452.3,413.6z M443.1,437.8c0.4,1.7,1.1,0.6,1.7,0.3C444.1,437.4,443.6,437.5,443.1,437.8z"/>
	<path fill="none" d="M559.3,569.3c-5.2,0.1-10.3,0.6-15.5-0.1c-2.9-0.4-5.8-1.1-8.7-0.9c-7,0.6-14,0.7-21.1,0.6
		c-8.1-0.1-15.7-2-23.1-5.4c-4.1-1.9-8-4.4-12.7-5.1c-6.8-1-13.3-2.7-19.7-5.2c-2.2-0.8-4.5-1.4-6.8-1.9c-13.8-3-27.1-7.6-40.7-11.2
		c-0.4-0.1-0.8-0.3-1.5-0.6c1.6-3.8,0.2-7.7,1.2-11.5c1.9-1.1,3.7-2,5.9-2.4c2.3-0.4,4.7-0.5,7-0.6c5.5-0.3,10.9-1.4,16.5-0.6
		c3.6,0.5,7.2,0.5,10.9,0.2c2.2-0.2,4.4-0.1,6.7,0.8c-0.3,3-1.4,5.7-1.4,8.6c1.7,1.7,3.9,1.4,6,1.4c7.6,0.1,15.2,0.1,22.8,0.1
		c2,0,3.9,1,5.9,1.1c6.2,0.4,12.4,0.2,18.3-1.2c9.6,2.6,19.1,5.3,28.7,7.6c6.4,1.6,12.7,3.3,18.8,5.6c4.3,1.6,7.1,5.4,7.1,9.9
		c0,3.4-0.7,6.7-2.2,9.7C561,569.1,560.2,569.2,559.3,569.3z M453.3,538.7c0.7,0.6,1.5,0.5,2.3,0.4c0.8,1.1,2,1.3,3.5,1.4
		c-1.2-0.9-2.3-1.4-3.6-1.3C455,538.4,454.2,538.4,453.3,538.7z M501.9,553.4c-0.9-1.5-1.8-1.5-2.8-1.5c-1.5-1.1-3.1-1.4-4.9-1.4
		c-3.4-1.5-6.9-2.5-10.6-2.8c-1.4-1.6-3.5-1.6-5.3-2.2c-1.4-0.5-2.9-0.8-4.4-1.3c-2.2,3.4-1.7,7.3-2.2,11.7
		c1.3-3.8,1.1-7.3,2.7-10.4c3.4,0,6.1,2,9.3,2.2c3.3,1.8,7,2.2,10.6,2.8c1.4,1.2,3.2,1.2,4.9,1.4
		C499.9,552.3,500.7,552.7,501.9,553.4z M439.5,534.1c-7.8-2.6-15.6-4.9-23.5-6.7c-1.1,3.8-0.3,7.4,0.5,11.4
		c0.9-3.3-1.1-6.5,0.4-9.8c6.4,0.9,12.5,3.4,19.1,4.7c0,3.3,0,6.4,0,9.5c2-2.7,0.6-5.8,1.4-8.9C438.1,534.2,438.8,534.2,439.5,534.1
		z M513.4,554.9c6.3,0.7,12.5,1.4,18.8,0.7C525.9,555.8,519.7,554.4,513.4,554.9z M555.2,558.3c0,1.7,0,2.8,0,4.7
		C555.5,561.1,555.6,560,555.2,558.3z M546.7,561.4c0.4-1.6,0.4-2.6,0-3.6C546.7,558.8,546.7,559.9,546.7,561.4z M518.5,558.6
		c0.7,0.5,0.6-0.3,0.8-0.5c0.2-0.4,0.3-0.9-0.2-1.2C518.1,557.2,518.5,557.9,518.5,558.6z"/>
	<path fill="none" d="M355,436c6.8,1.3,13.6,2.5,20.5,2.7c3.7,0.1,7.5,0,11,1.4c0.2,2.6-1,4.8-1.9,6.8c-3.5,7.5-4.8,15.4-4.6,23.6
		c0.1,4.4-0.9,8.6-2,12.5c-2.9,1.2-5.7,2-8,3.4c-2.1,1.2-4.3,1.8-6.6,2.3c-2.7,0.6-5.4,0.4-8.1,0.4c-6.6,0.1-12.7-2-18.4-5.1
		c-1.2-0.7-2.4-1.4-3.1-2.9c0.1-1.2,0.2-2.6,0.2-4c4.2-0.7,8.4-0.8,12.9-2.5c-4.9,0.2-9.1,1.5-13.6,1.1c-1.4-2.8-2.7-5.5-4.1-8.4
		c-1.1,1.8,1,3.2-0.1,4.8c-3.2-5.2-5.7-10.4-4.2-16.8c0.8-3.4,1.5-7,3.7-9.7c2.2-2.8,4-5.7,5.6-8.9c1-2,2-4,3.5-6.1
		C343.4,433,349,434.9,355,436z M351.1,477.1c-2.3-0.1-4.6-1.2-6.8,0.1c-0.9,0-1.8,0-2.7,0c0.9,0.4,1.8,0.6,2.6-0.1
		C346.5,477.1,348.8,477.1,351.1,477.1z M335.1,478c2.4,1.7,7,2.2,13.9,1.4C344.5,478.3,339.9,479,335.1,478z M328.9,456.9
		c-1.8,3-1.6,5.4,0.3,8.2C329.8,462.4,328.1,460.1,328.9,456.9z M343.8,481.8C343.8,481.8,343.8,481.7,343.8,481.8
		c-0.5-0.1-1.1-0.1-1.6-0.1v0.1C342.7,481.8,343.2,481.8,343.8,481.8z M351.1,471.1c0.6,0.5,1,0.1,1.4,0
		C352.1,471.1,351.7,471.1,351.1,471.1z"/>
	<path fill="none" d="M387.9,431.3c-0.9,1.8-0.5,3.9-1.5,5.8c-2.4-0.3-4.7-1-7.1-0.9c-6.7,0.2-13.3-1.1-19.9-2.5
		c-3.1-0.6-6.2-1.6-9.4-1.6c-4.8-0.1-8.6-2.5-12.5-4.7c1.2-2.4,2.6-3.6,3.5-3.1c0.3,0.5-0.8,1.1,0.1,1.6c0.9,0.1,1.4-0.7,1.4-1.2
		c0.2-3.6,2.2-6.9,1.6-10.7c-1.2,0.9-1,2.3-1.7,3c0.1-10.5,1.4-21,0.2-32c1.6,0.3,2.8-0.3,3.7,0.9c0,1.8-0.1,3.5,0,5.3
		c0.1,1.6-0.4,3.3,0.9,5.4c0.5-4.1,0.8-7.4,1.2-11.1c6,0.3,11.8-0.6,17.6-0.6c3.3,0,6.5-0.4,9.8-0.7c3.8-0.3,7.6-3,11.4-0.3
		c0.1,0,0.2,0,0.3,0c0.5-0.4,0-1.2,1.1-1.6c1.5-0.1,3.3-0.6,5,0.4c2.2-1.3,3.7-1.5,7.1-0.9c-0.2,0.6-0.4,1.1-0.7,1.6
		c-3.2,5.8-6,11.6-7.9,18c-1.9,6.1-2.5,12.4-4,18.5c-0.7,2.7-0.9,5.5-1.7,8.2c-0.4,1.2-1.2,2.4-0.1,3.7
		C386.9,431.5,387.5,431.5,387.9,431.3L387.9,431.3z M345,406.6c2.4-3.3,2.3-6.3,1.5-9.4C345.1,400,345.3,403,345,406.6z M350,426.4
		c1.8-1.6,2.9-3.4,3.9-5.3C350.9,423,350.5,423.5,350,426.4z M361.8,415.1c-0.1-0.1-0.2-0.3-0.3-0.3c-1,0.4-1.5,1.1-1.6,2.4
		C361.3,416.7,361.9,416.1,361.8,415.1z M359.2,417.2c-1.5,0-2,1-2.9,2.2C357.9,419.1,358.5,418.4,359.2,417.2z"/>
	<path fill="none" d="M362.1,379.3c2.9,0.1,4.5-1.5,5.9-3.7c3-4.8,6.6-9.1,10-13.6c2.4-3.1,4.7-6.1,5.7-10c0.5-1.9,1.3-3.7,2-5.5
		c7.8-3.8,11.8-9.9,11.7-19.2c4.5,5,9.3,8.7,12.8,13.9c3.1,4.6,4.3,9.6,3.3,15c-0.7,3.9-2.1,7.4-6.6,8.6c-3.3,0.9-4.4,3.7-4.7,6.7
		c-0.2,1.6-0.1,3.3-0.1,4.9c0,0.9,0.3,1.9-0.6,2.7c-0.7,0.1-1.5,0.2-2.3,0.2c-5,0.3-10.1,0.4-15.1,1.1c-11.8,1.7-23.6,2.2-35.4,2.2
		c-1.9,0-3.7,0-5.9,0c-1.3-7.2,0.1-14.3-1.5-21.2c-1.5-6.9-1.5-14.2-4.7-20.9c2.9-8.3,4.2-17.2,8.4-25.2c2.8,3,5.2,3.1,7.8,0.3
		c2-2.1,3.9-4.4,5.9-6.6c0.8-0.9,1.6-1.9,2.6-2.3c4.3-1.7,8.9-2.8,13.4-3.9c0.8,1.3,1.8,2.1,2,3.6c-1.5-0.3-2.6-0.6-3.8-0.7
		c-6.1-0.5-11,1.8-14.9,6.3c-4.7,5.5-7.8,12-10.2,18.7c-0.4,1-0.6,2-0.4,3.1c1,3.6,2.5,7,5.2,9.8c-1,1.7-1.7,3.6-2.2,5.5
		c-0.8,3.4-1.4,6.9-2.4,10.3c-0.5,1.8-0.4,3.7,0.1,5.6c1.2,4.3,4.1,7.8,5.8,11.9c0.3,0.8,1.1,1.4,1.9,1.4c1.1,0.1,1.8,1.1,3.1,1.4
		C360,379.6,361,379.2,362.1,379.3z M390.9,378c0.5-0.7-0.1-1-0.6-1.4C389.8,377.7,390.3,377.8,390.9,378z"/>
	<path fill="none" d="M376.5,291c0.6,0.7,1.3,0.9,2,0.8c1.1-0.5,1.4-1.7,2.5-2c0.3,1-1.4,1.7-0.2,3c2.6-2.3,2.8-6.6,6.6-7.9
		c0.6,0.2,1.3,0.4,2,0.6l-0.1-0.1c-0.8,0.7-1.5,1.5-2.3,2.2c-3,2.8-3.2,7.1-0.4,11.6c5.9,2.4,7.2,8,8.7,13.1
		c-0.7,2.7-2.7,4.2-3.6,6.3c-2.6,5.8-5.1,11.6-5.9,18c-0.4,2.9-1,5.8-1.9,8.6c-0.8,2.3-1.8,4.6-2.3,7c-0.6,2.8-1.9,5-3.7,7.1
		c-2.3,2.6-4.2,5.3-6.2,8.1c-2.4,3.3-5,6.5-7.2,9.4c-3.2,1.3-5.9,1-9-0.3c-1.2-2.5-2.9-5-4.3-7.7c-1.2-2.3-2.1-4.9-1.4-7.5
		c0.7-2.2,1.1-4.5,1.6-6.6c0.8-0.8,1.6-1.3,2.1-2.1c3-4.4,7.3-7.6,10.9-11.4c3.4-3.5,6.4-7.2,8.7-11.4c2.7-5.1,4.4-10.6,7.3-15.6
		c0.6-1.1,0.5-2.3,0.3-3.4c-0.4-1.7-1-3.4-2-4.8c-2.3-3.2-3.3-6.7-3-10.5c0.1-1-1-1.2-0.9-1.9c0.4-1,0.9-1.8,1.7-2.3L376.5,291z
		 M384,325.6c-1.2,1-1.7,1.8-1.7,2.8c-0.4,0.5-0.8,0.9-1.4,1.6c1.2-0.3,1.4-1,1.3-1.7C383.2,327.9,383.7,327.2,384,325.6z
		 M389.8,315.1c-1.1,2.6-2.7,4.9-3.8,7.5C388.7,320.9,390.5,318.6,389.8,315.1z"/>
	<path fill="none" d="M317.2,321.2c-0.1-1.1-0.4-1.9-1.5-2.5c-0.1,0.5-0.3,0.9-0.4,1.3c-1.7-1.5-2.5-3.6-3.8-5.3
		c0.1-2.8,0.3-5.4,3.4-6.7c0.3,2.1,2.5,7.1,3.8,8.8c1.5-3.1-1.6-4.8-2.2-6.8c0.3-1.4,1.8-1.6,1.6-2.9c-0.5-0.1-0.9-0.1-1.4-0.2
		c-0.1-0.6-0.2-1.1,0.6-1.8c2.1,0.5,3,2.1,3.2,4.2c0.3,2.7,1.7,4.8,4,6.3c0.8,0.6,1.9,0.9,2.5,2c0.6,2.9,1.6,5.7-1,8.4
		c-0.7,0.7-0.4,2.1,0.6,2.8c1,0.7,1,1.7,1.4,2.7c2.5,6.8,2,13.6-0.5,20.3c-1.2,3.3-2.3,6.7-2.4,10.1c-0.7,1.2-2.2,1.7-1.9,3.4
		c0.4-0.1,0.8-0.1,1.2-0.2c0.7,0.5,0.2,1.7,1.2,1.9c1.2-4.9,1.5-9.9,3.7-14.6c1-2.1,1.6-4.4,1.7-6.8c0.2-4.7,1.3-9.3,2-13.9
		c0.3-1.8,0.9-3.4,2.4-4.5c1.2-0.9,1.6-2.2,2.1-3.6c1.5-3.7,3.1-7.5,5.8-10.5c-0.5,1.8-1.3,3.4-2,5.1c-2.7,6.8-4.3,13.9-6.1,20.9
		c-0.4,1.5-0.2,2.9,0.2,4.5c2.6,9.3,4.3,18.7,4.5,28.4c0.1,3.8-1.4,6.7-3.4,9.6c-3.1,0.2-5.9,1.7-8.2,2.1c-1.4-1.2-2.4-2-3.4-2.8
		c-1.9-1.5-3-3.5-3.3-6c-0.3-2.1-0.9-4.1-1.8-6.1c-2.7-5.7-2.5-11.6-1.4-17.5c1-5.4,1.2-10.7,0.8-16.1c-0.4-5.4-0.1-11-4.1-15.5
		C316.1,320,316.1,321.3,317.2,321.2z M327.1,333.9c-0.2,1.7-0.2,1.7,0.5,3.3C328.1,335.9,327.8,334.9,327.1,333.9z M330.8,380.6
		c0.7,0.8,1.3,0.9,2.3,0.3C332.2,379.8,331.6,379.8,330.8,380.6z M322.5,323.9c-0.6-0.5-1.1-0.7-2-0.2
		C321.2,324.3,321.8,324.4,322.5,323.9z"/>
	<path fill="none" d="M339.5,673.1c-3.3,1.9-7,1.7-10.5,2.5c-7.9,1.8-15.9,1.3-23.8-0.1c-3.8-0.7-7.6-1.1-11.4-1.2
		c-2.3-0.1-4.7,0.1-7,0.1c-3,0-6-0.7-8.2-1.8c0.3-9.4,6-16.6,7.9-25.4c1.8,4.7,4.9,7.2,10.1,7.3c3.5-3.6,6.3-8.3,11-11.1
		c1.2,1.3,0.1,2.6,0.1,3.9c0.4,0.6,0.8,1.3,1.1,2c-0.5,1.3-2.4,1.8-1.8,3.5c1.8,1.6,2.7-1.5,4.4-0.8c-0.6,1.6-2.3,3.2,0.1,4.5
		c1.3,0.2,1.9-1,3.2-1.1c0.4,0.3,0.8,0.7,1.1,1c0.4,1-0.8,1.9,0.2,3c1.4,0.8,2.6-0.8,3.9-0.9c0.7,0.8,0,1.9,0.9,2.2
		c5.7,0.9,11.2,3,17,3.2c1.2,2.8,2.4,5.3,3,7.8C340.4,672.7,339.9,672.8,339.5,673.1z M294.8,664.6c0.1,0.9,0.3,1.8,0.4,2.7
		c1,0.1,1.9,0.3,2.8,0.3c1.3,0,2.6-0.4,3.1-1.8c0.5-1.3,0.4-2.6-0.7-3.5c-1.2-1.1-2.6-1.1-3.9-0.5c-0.8,0.3-1.3,1-1.6,1.8
		C294.9,663.9,294.8,664.3,294.8,664.6z M304.6,660.9c-1.4,0.3-2.5,1.5-2.5,2.9s1,2.7,2.4,3c2,0.5,3.2-0.3,4.5-3
		C307.7,661.1,306.7,660.4,304.6,660.9z M314.5,666.7c0.2-0.4,0.5-0.6,0.4-0.7c-0.1-1.7-0.3-3.5-0.4-5.3c-1.7-0.3-3.1-0.1-4.4,0.5
		c-1.8,2.1,1.3,3.6,0.1,5.5c1.5-0.1,1.5-1.4,2.5-1.7C313.9,665.2,313.6,666.5,314.5,666.7z"/>
	<path fill="none" d="M394.3,270c-1.6-1.8-1.6-1.8-4.4,0c1.5,1.5,3.1,2.9,3.7,5c0.8-0.8,0.3-1.6,0.6-2.2l0,0
		c1.9,2.2,2.2,4.9,2.8,7.3c-1,1.2-2.5,0.8-3.3,2c-0.1,0.7-0.2,1.6-0.3,2.5c-1.4,0.7-2.8,0.5-4.1,0.9l0.1,0.1c0.7-2.4-1.2-2-2.3-2.3
		c-2.5,1.4-4.9,2.9-7.4,4.1c-3.2,1.5-5.6,3.6-6.6,6.9c-1.2,0.8-2.2,1.2-3.4,0.9l0.1,0.1c0.3-1.2-0.6-1.9-1.2-2.7
		c-2.4-3.8-2.4-5,0.6-8.6c0.4-0.5,0.8-0.8,0.6-1.5l-0.1,0.1c1.4-1.2,0.4-2.3-0.1-3.4c-0.5-1-1.8-1.1-2-2.3c0.9-0.3,1.5,1.2,2.6,0.4
		c-2.1-2.2-5.4-2.6-6.9-5.3l0.1-0.1c1.5,0.8,3.1,1.6,4.6,2.3c1,0.5,2,1.2,3.2,0.4c0-2.1-2.3-2.9-2.8-4.5c-0.6-1.9-1.8-3-3.2-3.8
		c-1.4-0.8-2.3-1.9-2.9-3.3c-0.9-1.9-1.8-3.7-2.5-5.7c-2.4-3-2.7-6.9-3.9-10.5c0.6-0.2,0.9-0.3,1.3-0.4c-0.4,1.7,0.6,2.9,1.6,4
		c1.9,2.3,4,4.5,6.5,6.3c-0.9-2.1-2.6-3.5-4.1-5.1s-2.7-3.5-4-5.2c0.3-0.7,0.9-1,2.3-1.3c1.3,1.5,2.8,3.4,4.5,4.9s3.3,3.3,5.8,3.7
		c-2-1.8-4.1-3.6-6.1-5.4c6.1,2.8,11.6,6.7,18.4,8.1c-0.4-1.2-2.2-0.4-2-2c1.5-0.3,2.9,1.2,4.4,0.3c-2.8-0.5-5.3-2.5-7.9-1.4
		c-2.3-0.8-4.1-1.9-6-2.9c-1.8-1-3.7-2-5.4-3.2c-1.6-1.1-4-1.1-4.8-3.5c2.3,1,4.6,0.2,6.8,0.7c2.3,0.5,4.4,1.5,6.6,2.3
		c1.5,0.5,2.9,1.7,4.6,1.3l-0.1-0.1c-0.5,0.3-0.9,0.6-1.6,1.1c3.4,1.9,6.6,4,10.6,4.5c-1.3-1.5-3.8-1.7-4-4.2v0.1
		c2.7,0.4,4,3.3,6.5,4.1c0.4-1.5-1.4-1.7-1.2-3c1.2-0.2,1.7,0.7,2.2,1.4c0.6,0.9,1.6,0.8,2.2,1.3c1.7,3.6,3,7.2,2.9,11.1
		c-1.3,0-2.4-0.8-3.7,0.5c1.6,0.2,3,0.2,3.7,1.8C395,267.8,395.1,269.1,394.3,270L394.3,270z M366.1,264.4c0.7,1.8,1.4,2.6,2.4,3.3
		c1-0.8-0.1-1.3-0.3-1.9c0.4-0.3,0.8-0.7,1.3-1c-0.3-0.7-0.6-1.1-1.4-0.8c0.1,0.6,0.1,1.3,0.2,1.9
		C367.8,265.5,367.3,265.2,366.1,264.4z M377.5,273.1c0.9-1.2-0.5-1.4-0.5-2.3c1.3-1.6,2.6-3.3,5.1-3.8c-0.6-1.7,0.9-2.8,1.1-4.5
		c-2.8-0.2-5.6-0.5-8.5-0.7c1.4,1.2,1.4,1.2,6.9,2c-0.8,1.1-2,1.1-3,1.6c0.1,0.4,0.1,0.8,0.2,1.6c-2.1-1.1-3.7-2.7-5.8-3.3
		c-2.3,1.3-2.4,3.6-3.3,5.7c1.7,4.2,4.8,7.3,7.8,10.5c0.8,0.9,0.3,2.3,1.5,3.1c0.8-2.8,0.7-3-0.8-6.4c-1.9,0.1-3-1-3.6-2.7l0.1-0.1
		C375.6,273.3,376.6,273.2,377.5,273.1z M373.5,259.9c2.8-0.9,5.3,0.4,7.8,0.8c0.6,0.1,1.4,0.5,1.9-0.3c-2.8-1.7-6-2.3-11.9-2.3
		C371.4,259.5,372.6,260.2,373.5,259.9z M394.5,278.1c0.7-0.4,0.3-0.9,0.2-1.7C393.7,277.3,393.8,277.7,394.5,278.1z"/>
	<path fill="none" d="M512.9,532.6c-3.3,0.8-6.6,1.4-10,2.1c-1.8,0.4-3.8,0.6-5.6,0.3c-3.5-0.7-7-0.5-10.5-0.9
		c-8-1.1-15.9-0.6-23.8-0.1c-1.5,0.1-2.7-0.1-4.3-1.2c1-4.2,1.2-8.8,1.3-13.3c0-0.6,0.3-1.1,0.6-1.7c0.8-1.4,1-3,1.5-4.6
		c4.5,5.2,4.9,5.5,8.3,6.1c1.9-0.9,2.3-2.8,3.2-4.4c1.6-2.8,2.5-6.1,6.2-7.1c0.7-0.2,0.1-1.5,1.2-1.5c1.1,0.9,2.4,1.7,3.2,2.9
		c-0.5,1-1.7,1.6-1,2.9c1.7,1.4,2.7-0.8,4.3-0.9c0.4,1.3-1.4,2.8,0.4,3.8c1.5,0.5,1.9-1.8,3.5-1.1c1,1.2-0.7,2.7,0.3,3.9
		c1.3,0.4,1.5-1.3,2.8-1.4c0.5,2.5,3.1,2.6,4.6,4s3.4,1.9,5.5,2c1.9,0.1,3.7,0.3,5.6,0.4c1.3,0,2.6,0.1,3.6,1.3
		c-0.6,2.6,1.7,4.4,2.2,6.9C515.2,532.3,513.9,532.3,512.9,532.6z"/>
	<path fill="none" d="M370.7,329.7c-1.2,2.9-3,5.4-5.2,7.7c-4.2,4.4-8.7,8.5-12.4,13.4c-0.2,0.2-0.6,0.3-1.2,0.6
		c0.5-2,0.6-3.7,1.7-5.4c2.1-3.5,2.8-7.4,2.1-11.5c-1.6-1-2.8-2.3-4.4-3.7c0.5,2.4,0.5,2.4,3,4.9c-0.4,2,0.1,4.4-1.3,6.6
		c-1.4-3.4-3.2-6.3-3.6-10c2.4-2.9,3.1-6.7,4.8-10.2c0.7-1.5,1.3-3,2.1-4.4c4.5-8.1,14-11.5,22.2-8c0.5,0.8,0.9,1.6,1.1,2.9
		C376.8,318.3,373.3,323.8,370.7,329.7z M365.9,311.1c-2.6,0.7-4.6,2.2-6.1,4.3C361.9,314.1,364.4,313.2,365.9,311.1z M357.5,318.6
		c-1.2,1.2-1.5,2.4-1.1,4.5C357.9,321.3,357.8,320.1,357.5,318.6z"/>
	<path fill="none" d="M373.7,296.1c0.6,2,0.8,3.5,0.3,5.1c-0.3,0.2-0.5,0.4-0.7,0.4c-15.2,4.3-30.5,8.5-45.7,12.8
		c-2.9,0.8-3.3,0.4-4.5-3.4C340,306,356.8,301.1,373.7,296.1z"/>
	<path fill="none" d="M341.3,278.4c-0.1-1.3-0.1-2.5-0.2-3.8c-0.3-0.1-0.7-0.1-1-0.2c-2.4-14.5-2.4-17.1,0.2-24.2
		c0.7,1.1-0.9,2.2,0,3.3c1.1-0.1,0.8-1,1-1.6c1.2-3.8,3-7.3,5.5-10.5c2.7-3.5,6.3-3.5,10.1-2.9c1.7,0.3,2,1.2,1.5,3.1
		c-1.4-0.9-2.3-2.9-4.6-2.6c0.3,0.9,1.5,0.8,1.2,1.7c-2.9,0.8-5.8,1.4-8.7,2.8c0.7,0.3,1.1,0.5,1.6,0.8c-3.4,2.1-4.5,5.4-4.3,9.1
		c0.3,8.6-1.7,17.3,1,25.8c-0.4,5.1-2.3,9.7-4.8,14.1c0.5-2.9,1.3-5.7,1.9-8.5C342.1,282.6,342.4,280.4,341.3,278.4L341.3,278.4z"/>
	<path fill="none" d="M364.4,280.2c1,0.7,1.7,1.9,3.1,1.8l-0.1-0.1c0.3,0.5,0.6,0.9,0.9,1.4c-0.1,0.2,0,0.5-0.2,0.6
		c-3.6,4.2-3.2,7.1,1.5,11.4l-0.1-0.1c-4,2.2-8.5,2.7-12.8,4.1c-0.6-4.3,0.6-8.2-0.4-11.8c0.4-1,1.3-0.3,1.6-0.9
		c-0.8-1.6-1.7-3.2-2.5-4.9c2.2,1.7,3.9,3.7,7,5.1c-5.1-5.2-6.6-11.3-8.2-17.3c1.7,2.5,3.1,5.2,4.6,7.8c1.6,2.8,4.4,5.3,6.7,5.9
		c-1.5-1.8-3.4-3.1-4.4-5.2C362.7,278.3,363.4,279.5,364.4,280.2z M360.1,286.9c-1.2,0.9-1,2-0.4,3.6
		C360.6,289.1,360.5,288.1,360.1,286.9z M363.5,290.7c1-1,1-1.8-0.2-3.4C363.4,288.7,363.5,289.6,363.5,290.7z"/>
	<path fill="none" d="M341.9,312.6c-2.2,2.6-4.2,5.4-5.4,8.6c-1.1,2.9-2.9,5.2-5.1,7.3c-0.2,0.1-0.2,0.4-0.3,0.6
		c-0.5,1.2,0.2,2.7-0.8,4.1c-2.9-5.7-0.2-11.8-2.5-17.3c4.8-1.3,9.3-2.6,13.7-3.8C341.6,312.2,341.8,312.4,341.9,312.6z"/>
	<path fill="none" d="M413.3,291c-3-0.1-4.4-0.8-4.4-2.2c0-1,1.4-1.5,1.1-2.8c-1.4,0.2-1.9,1.1-2.3,2.1c-0.5,1.3,0.3,2.4,1.1,3.6
		c-5.2,0.9-9.6,3.7-14.7,2.8c-0.7-0.7-1.1-1.4-1.1-2.4c0.8-0.8,1.4-2.1,2.7-2.5c5.1-1.6,10.2-3.3,15.2-4.3
		C414,286.6,413.5,288.9,413.3,291L413.3,291z"/>
	<path fill="none" d="M386.6,343.3c1.3-6.8,2.7-13.6,5.4-20.3C396.3,329.7,393.4,340.2,386.6,343.3z"/>
	<path fill="none" d="M387.5,289.4c2.7-2,2.7-2,4.8-2.1c0.1,0.2,0.2,0.4,0.3,0.6c0.3,0.6-0.2,1.1-0.4,1.6c-1.8,3.7-1.6,4.5,2,6.8
		c0.3,0.2,0.6,0.4,0.8,0.5c0.9,0.3,1.8-0.6,2.7,0.2c-1.6,1.9-3.6,2.5-5.5,3.2C386.8,297.7,385.5,294.7,387.5,289.4z"/>
	<path fill="none" d="M363.2,272.2c-0.4,0-0.9,0-1.8,0c1.9,1.8,3.5,3.4,5.2,4.9c0.7,0.8,1.3,1.6,2,2.4c0.8,0.9,1.3,1.9,1,3.2
		l0.1-0.1c-0.8-0.1-1.3-0.9-2.2-0.7l0.1,0.1c-1.6-2.5-4.2-3.9-6.2-5.8c-2.5-6.1-3.8-12.3-3.2-15.8c1.2,1.3,1.7,2.9,2.3,4.4
		c0.6,1.7,2.1,2.5,3.2,3.6c1,1.1,2,2.2,3,3.5c-1.6,0.3-2.2-1.4-3.5-0.9c0.1,0.4,0.1,0.7,0.2,1.1L363.2,272.2z"/>
	<path fill="none" d="M382.9,461.9c0.7-3.7,0.9-7.4,2.8-10.8c1.6-3.1,2.6-6.5,3.7-9.9c-0.7,6.9-0.9,13.7-1.6,20.6
		c-1.6,0.6-3,1-4.4,1.5C382.9,462.9,382.8,462.4,382.9,461.9z"/>
	<path fill="none" d="M354.9,248.1c-1.8-0.2-2.1,1.1-2.4,2.4c-0.7,2.6-1.3,5.2-2,7.9c0.4,1.1,0.7,2.4,0.8,3.7c0.2,4.3,0,8.6,2,12.6
		c0.7,1.3,1.3,2.7,1.1,4.3c-3.5-5.2-4.4-11.2-4.6-17c-0.7-0.6-0.6,0.6-1.4-0.1c0.4-2.1,0.9-4.3,1.4-6.4c0.5-2.3,1.1-4.5,2.3-6.6
		c0.5-1,1.1-2.1,2.6-1.7c0.1,0.4,0.1,0.7,0.2,1.1V248.1z"/>
	<path fill="none" d="M354.8,248.1c1,0.8,0.7,1.9,0.5,2.9c-0.5,2.3-0.3,4.6-0.1,7c0.3,4.2,1.4,8.2,3,12.5c-2.5-2.4-4.6-4.6-4.6-8
		c-0.1-4.1-0.3-8.2,0.5-12.2c0.1-0.8,0.4-1.6,0.9-2.2H354.8z"/>
	<path fill="none" d="M357.2,308.3c-2.8,2.8-4.8,6.3-9.4,6.9C348.4,310.6,351.6,308.2,357.2,308.3z"/>
	<path fill="none" d="M311.6,318.6c-1.3,0.7-2.6,1-3.7,1.1c-1.6-0.7-2.3-1.7-1.7-3.3c1.1-1,2.3-1.3,3.9-1.4
		C310.8,316.1,311.3,317.3,311.6,318.6z"/>
	<path fill="none" d="M383,249.5c-1.8,0.1-3.1-1.8-5-1.4l0.1,0.1c-0.3-1.1-1.4-1.1-2.2-1.5c-2.1-0.9-4.3-1.6-6.4-2.5
		C374.7,244.3,379,246.4,383,249.5L383,249.5z"/>
	<path fill="none" d="M321.9,309.4c0.5-1.2-0.9-2-0.7-3.3c2.1-0.4,3.1,1.3,4.5,2.4C324.2,308.2,323.4,309.4,321.9,309.4z"/>
	<path fill="none" d="M366.2,241.6c-1.6,0.3-3.1,0.4-4.4,1.3c-1.1-1.2-0.8-2.1,0.7-3.3C363.5,240.6,364.8,241.1,366.2,241.6z"/>
	<path d="M364.4,280.2c-1-0.7-1.7-1.8-3.1-1.9l-0.1-0.2c-0.1-0.5-0.1-1-0.2-1.5c0.1-0.1,0.2-0.2,0.3-0.3c2,2,4.6,3.4,6.2,5.8
		C366.1,282,365.4,280.8,364.4,280.2z"/>
	<path fill="none" d="M343.9,295.3c1-2.1,1.9-4.4,3.1-7.2C347.4,291.7,345.7,293.5,343.9,295.3z"/>
	<path fill="none" d="M344.5,265.1c0.5,3.2,0.5,6.4,0,9.7C344.5,271.6,344.5,268.4,344.5,265.1z"/>
	<path fill="none" d="M341.3,278.3c0.5,2.5,0.5,4.9-1.1,7.7C340.4,283.1,340.3,280.6,341.3,278.3L341.3,278.3z"/>
	<path fill="none" d="M357,242.9c0.2,0.2,0.1,0.4-0.3,0.7c-0.5-0.7-1.7-0.2-2.1-1.4C355.6,241.8,356.4,242.3,357,242.9z"/>
	<path fill="none" d="M345.6,258c-0.1,1.4-0.2,2.7-0.3,4.1C345.2,260.8,344.6,259.3,345.6,258L345.6,258z"/>
	<path fill="none" d="M347.1,252.4c0.4-1.7,0.7-2.7,2.2-3.7C348.9,250.3,348.5,251.2,347.1,252.4z"/>
	<path fill="none" d="M386.3,246.6c-1.3-0.3-2.1-0.7-2.8-2.1C384.9,244.9,385.7,245.2,386.3,246.6z"/>
	<path fill="none" d="M394.3,272.8c-1.5-1.6-1.5-1.6,0-2.8l-0.1-0.1C394.2,270.9,394.2,271.9,394.3,272.8L394.3,272.8z"/>
	<path fill="none" d="M345.7,258.1c-0.1-1-0.2-2,0.3-3.1C346.3,256.2,346.4,257.2,345.7,258.1L345.7,258.1z"/>
	<path fill="none" d="M351.6,245c-0.6,0.2-0.9,0.7-1.6,0.5C350.5,244.2,350.5,244.2,351.6,245z"/>
	<path fill="none" d="M360,276.1c0.3,0.1,0.6,0.2,0.9,0.4c0.1,0.5,0.1,1,0.2,1.5C360.6,277.5,359.9,277,360,276.1z"/>
	<path fill="none" d="M376.6,291.1c0.5-0.7,0.9-1.5,2.1-1.1c-0.7,0.8-1.2,1.4-2.2,1L376.6,291.1z"/>
	<path fill="none" d="M789.1,519.5c-0.1-0.5,0.1-1.2-0.9-1.8c-2.4,0.4-3.8-2.2-6-2.9c-0.7-2.4,0-4.9-2.1-7.6c0.3,2.8,0.6,4.9,0,7
		c-1.7-0.4-3-1-4.1-1.8c-0.4-1.3-0.2-2.6,0.2-3.6c1.2-2.5,1.2-5.2,1.2-7.9c0-5-0.5-10.1-0.3-15.1c0.4-11.3-0.3-22.5-2-33.7
		c-1.1-7.3-1.3-14.4,0.9-21.5c0.1-0.4,0.3-0.9,0.3-1.4c0.3-2.7,1.3-5.2,2.5-7.7c1.8-3.7,3.2-7.6,4.4-11.5c0.5-1.6,0.8-3.2,1.1-4.8
		c-0.4-0.6-0.8-1.2-1.1-1.7c0.4-17.9-0.7-35.8,1.4-53.7c5.2,1.4,10.8,1.5,16.1,1.5c0.8-1.7,0.2-2.5-0.9-2.9
		c-1.2-0.4-2.5-0.7-3.8-0.9c-4.2-0.4-8.4-0.9-12.2,0.8c-1.7-1.6-0.7-3.8-1.9-5.1c-1.6-1.6-1.7-3.6-1.9-5.5c-0.8-6.1-1.4-12.2,0-18.2
		c1.3-5.5,2.6-11.1,6.6-15.4c2.7-3,5-6.2,6.7-9.9c0.6-1.4,1.6-2.6,2.6-3.7c3.7-0.2,7.3-0.4,11-0.6c5.2-0.3,10.2,1.2,15.3,1.7
		c4.7,0.5,9.2,1.6,13.7,3.1c4.1,1.3,7.4,3.9,10.8,6.8c-0.4,2.3-0.6,4.6-0.2,7c1,7.2,2,14.4,1.7,21.7c-0.2,4.7-0.2,9.4-0.9,14
		c-0.3,2.4-0.6,5-1.2,7.5c-6.2-2.2-12.6-2.9-18.4-5.6c-1-0.5-2.3-0.7-3.4-0.6c-5.4,0.5-10.8,0.5-16.1,1.5c-0.8,0.1-1.6,0.6-2.5,0
		c-0.5-1.5,0.4-3.1,0.5-4.6c-4.9-1.2-11.2-10.5-13.2-19c-0.5,5.8,0.9,11,4.9,15.4c1,1.1,2.1,2.1,2.1,3.3c1.2,1.5,2.7,0.8,4,1.5
		c-2.6,8.2-3.1,16.6-2.5,25.1c0.3,5.3,0.7,10.5,0.5,15.8c-0.3,9.5,0.2,19,0.5,28.5c0.2,4.9-0.6,9.8-3,14.3c-1.4,2.6-2.6,5.2-3.8,7.9
		c-3,7-4.8,14.1-4.5,21.8c0.4,9.5,0.5,19,1.2,28.5c0.1,0.9,0,1.9-0.1,2.8c-0.7,6.1-1.5,12.1-2.2,18.2c-0.2,1.5-0.6,3,0.8,4.3
		c0.6,0.5,1.3-0.7,1.9,0.3c-0.1,1.1-0.2,2.4-0.3,3.8C790.7,516.1,790.7,518.3,789.1,519.5L789.1,519.5z M798.8,342.7
		c-4.4-2.7-9-0.8-13.3-1.4C790,344,795.9,344.7,798.8,342.7z M790.9,401.8c-1.1,2.8-2.3,5.5-1.6,8.7
		C791.2,407.9,790.9,404.9,790.9,401.8z M781.2,451.4c0.1,2.5,1.4,4.4,3.1,6C783.8,455.1,782.8,453.1,781.2,451.4z M784.8,515
		c2.4,0.3,3-1.4,3.8-2.9C786.1,513.1,786.1,513.1,784.8,515z M812.5,342.1c-1,0.1-2.9-0.7-5.7,0.1
		C809.6,343.5,811.5,341.9,812.5,342.1z M788.6,415.9c-1.9,1.8-2,2.1-1.9,5.3C788,419.7,787.8,417.8,788.6,415.9z M794,315.2
		c-1.7,1.9-1.8,2.3-1,6.1C794,319.2,792.8,317,794,315.2z M806,345.2c2,0.1,3.2-0.4,4.4-0.9C809.1,344.1,807.7,343.7,806,345.2z
		 M795.6,307.9c1.4-1.8,1.4-1.8,1.6-3.9C796.7,305.3,795.7,306.4,795.6,307.9z M826.4,342.3c1.3,0.8,2.5,0.6,3.7,0.3
		C828.3,341.9,828.3,341.9,826.4,342.3z M788.8,507.4c-0.8,1-0.8,1-0.9,2.6C788.8,509.3,789.1,508.5,788.8,507.4z M789.3,491.5
		c0.6-0.9,1.2-1.6,0.6-3.2C789.1,489.6,788.8,490.4,789.3,491.5z M790.2,481.7c-0.4,1.1-0.4,1.9-0.2,2.8
		C790.5,483.6,790.5,482.8,790.2,481.7z M788.6,496.7c0.6,0.2,0.8-0.1,0.8-0.6c0-0.3-0.3-0.5-0.6-1.1
		C788.4,495.8,788.3,496.2,788.6,496.7z M788.6,501.3c0,0-0.2,0-0.3,0c-0.4,0.4-0.3,0.7,0.2,0.9C789,502,788.9,501.6,788.6,501.3z"
		/>
	<path fill="none" d="M827.9,432c-1.1,0.2-1.1-1.6-2.7-1.1c-3.6,7.5-3,16-4.1,24.4c-1.2,0.9-1.6,2.5-1.9,4.1
		c-2.9,11.8-5.4,23.8-9.2,35.4c-0.4,1.1-0.3,2.3-0.5,3.4c-0.5,4.1-0.2,8.4-1.9,12.5c1.3,2,0.3,4.3,0.5,6.5c-2.9,1.4-4.6,3.9-6.1,6.6
		c-2.5-1.4-3.3-4.3-6-5c-0.7,0.3-1.2,0.6-1.2,1.7c1.5,2.5,3.7,4.7,6.4,6.5c0.9,0.6,2,0.4,3.3-0.8c0.6-4.4,4-6.6,8.3-8.3
		c1.1,0.8,2.6,1.2,3.4,2.5c-1.2,1.4-3.3,1.8-3.5,3.8c0.9,1.3,2,0.9,2.9,0.4c1-0.6,1.9-1.3,2.9-2c0.8-0.5,1.3-0.1,1.5,0.7
		c-0.8,1.3-2.3,2-2.4,3.8c2.6,2.1,3.8-1.1,5.4-1.6c1.9,1.7-1.1,2.8-0.1,4.2c1.3,1,2.2-0.4,3.4-0.4c2.2,1.4,4.4,2.3,7.3,2.5
		c3.6,0.2,7.5,0.6,10.4,3.4c0.6,2.1,1.1,4.1,0.8,6.5c-1.4,0.5-2.8,1.1-4.2,1.4c-3.3,0.8-6.7,1.3-10,2.1c-1.5,0.3-3,0.2-4.5,0
		c-5.8-0.6-11.6-1.8-17.5-1.8c-0.9,0-1.9,0.2-2.7-0.4c-1.2-0.9-2.6-0.8-4-0.9c-4.6-0.4-9.3-0.3-13.7-1.9c-0.1-7.3,3.1-13.8,3.9-20.7
		c0.6-1.1,1.9-0.4,2.6-1.1c1.1-2.9,1.1-6,1.1-9c0-2.9,0.2-5.9,0.1-8.8c-0.2-6,0.5-12,0-17.9c-0.7-8-1.3-15.9-1.3-23.9
		c0-7.3,0.7-14.5,3.8-21.2c2.1-4.7,4-9.5,6.3-14.1c2.6-5.1,3.1-10.3,1.6-15.7c-0.5-1.8-0.6-3.7-0.7-5.6c-0.2-6.8,0.3-13.6,0.2-20.4
		c-0.2-8.9-0.4-17.8-0.6-26.7c0-1.4-0.1-2.8,0.5-4.3c2.1-0.3,4.3-0.7,6.5-0.8c6.7-0.5,13.5-1.9,19.9,1.8c0.5,0.3,1.1,0.3,1.7,0.5
		c4.1,1.2,8.3,2.1,12.7,3c-0.8,8.3-1.4,16.5-3.2,24.6c-1.4,6.3-3.1,12.5-4.2,18.9c-0.8,4.7-2.9,8.6-5.5,12.4
		c-1.4,2.1-2.4,4.3-2.7,6.8c-0.3,1.9-0.2,3.8-0.8,5.5c-1,2.9-1.6,5.9-2,8.9L827.9,432z M806.1,532.8c0-2-1.6-3.4-3.8-3.1
		c-2.4,0.3-3,1.8-2.4,5.9C804.6,536,806.1,535.3,806.1,532.8z M809.1,529.2c-1.3,0.4-2.3,1.8-2.2,3.2s1.3,2.6,2.7,2.8
		c2.1,0.3,3.1-0.4,4.2-3.3C812.2,529.2,811,528.6,809.1,529.2z M814.8,529.5c-1.5,2.1,1.4,3.5,0.3,5.4c1.4-0.3,1.5-1.6,2.6-1.8
		c0.9,0.1,0.7,1.3,1.4,1.7c0.2-0.2,0.6-0.3,0.6-0.4c-0.1-1.8-0.2-3.7-0.3-5.6C817.5,528.7,816.1,528.8,814.8,529.5z M815.3,409.1
		c-1.2,2.1-1.7,4.9-1.3,8.1C815.5,414.2,815.9,411.6,815.3,409.1z M799.7,518c1,0.9,2.1,1.6,3.6,2.2c0.3-2.6-1.9-2.3-2.8-3.3
		c-0.3-1.7,0.1-3.6-0.6-5.6C799.2,513.7,799.5,515.8,799.7,518z M813.9,401.1c1.9-2.1,1-4.2,0.8-6.1
		C814.4,396.9,814.2,398.8,813.9,401.1z M816.8,449.7c-1.1,0.6-0.9,1.3-0.2,2.5C817.2,451.2,817.3,450.5,816.8,449.7z M814.6,386.8
		c0.7-0.7,0.7-1.4,0.2-2.2C814.2,385.3,814.3,386,814.6,386.8z M812.6,420c0.8,0.2,0.8-0.2,0.9-1.3C813,419.4,812.8,419.7,812.6,420
		z M800,507.9c0.7-0.7,0.5-1.4-0.1-2.3C799.4,506.6,799.4,507.3,800,507.9z"/>
	<path fill="none" d="M783.2,541.2c0.6,0,1.1,0.4,1.6,0.7c4.1,2.3,8.3,3.7,13.1,2.9c0.7-0.1,1.5-0.3,2.1,0c2.7,1.3,5.5,1,8.3,0.9
		c3.7-0.1,7.2,0.2,10.8,1.2c5.9,1.7,12,2.7,17.8,0c5.2-2.4,10-1.5,15.2-0.2c5.8,1.5,11.5,3.3,17.1,5.3c3.8,1.3,5.8,4.5,6.4,8.2
		c0.6,4-0.4,7.9-2.2,11.7c-6,0.5-11.8,0.9-17.6,0.2c-2.9-0.3-5.8-1.1-8.7-0.9c-6.9,0.6-13.8,0.7-20.7,0.6
		c-8.3-0.1-16.3-1.9-23.8-5.5c-5.3-2.6-10.6-4.9-16.5-5.6c-4.8-0.6-9.4-2-13.9-3.8c-0.9-0.4-1.8-0.6-2.7-0.9
		c-11.6-3.4-23.5-5.7-34.9-9.6c-4.2-1.4-8.6-2-13.1-3.8c1.8-3.7,0.1-7.7,1.2-11.4c1.9-1.3,3.7-2,5.9-2.4c2.3-0.5,4.7-0.5,7-0.6
		c5.5-0.3,11-1.4,16.5-0.6c3.6,0.5,7.2,0.5,10.9,0.2c2.4-0.2,4.9-0.2,7.1,1c-0.1,4.3-0.4,5.5-1.6,7.7c0.3,0.7,0.5,1.5,1.2,2.1
		C774,539.4,778.4,541,783.2,541.2z M764.2,541.2c1.3,0.8,2.2,0.8,3.1,0.7c0.8,1.1,2,1.3,3.6,1.4c-1.3-0.9-2.3-1.4-3.6-1.3
		C766.6,541.1,765.7,541.3,764.2,541.2z M813.4,556.1c-0.6-1.4-1.6-1.3-2.6-1.3c-1.5-1-3.1-1.4-4.9-1.4c-3.4-1.5-6.9-2.5-10.6-2.8
		c-2.8-2.3-6.5-2.3-9.7-3.5c-2.3,3.5-1.7,7.4-2.1,11c1.1-3.1,0.9-6.6,2.5-9.7c3.4,0,6.1,2,9.3,2.2c3.3,1.8,7,2.2,10.6,2.8
		c1.4,1.2,3.2,1.2,4.9,1.4C811.6,555.1,812.4,555.5,813.4,556.1z M747.7,536.6c0,3.3,0,6.4,0,9.5c1.6-2.8,0.6-5.9,1.2-8.5
		c0.7-1,1.7-0.1,2.5-1c-8.1-2.1-15.8-4.8-23.9-6.3c-0.1,0.3-0.2,0.6-0.2,0.9C733.9,532.9,740.7,534.7,747.7,536.6z M825.1,557.9
		c3.1,0.3,6.2,0.7,9.4,0.8c3.1,0.1,6.3,0,9.5,0C837.6,558.6,831.4,557.2,825.1,557.9z M727.8,532.3c-1.4,3.1,0.1,6,0.7,8.9
		C728.2,538.3,728,535.3,727.8,532.3z M867,561.7c-0.1,0-0.1,0-0.2,0c-0.1,1.1-0.1,2.2-0.2,3.3c0.1,0,0.2,0.1,0.3,0.1
		C867,564,867,562.9,867,561.7z M858.3,563.6c0.6-1,0.1-2.1,0-3.1C858.3,561.5,858.3,562.6,858.3,563.6z M830.3,561.7
		c0.6-0.6,1.1-1.2,0.4-2.1C829.8,560.2,830,560.9,830.3,561.7z"/>
	<path fill="none" d="M864.2,207.8c3.4,4.7,4.6,9.8,3.6,15.3c-0.6,3.4-1.3,7.1-5.5,8.3c-4.6,1.4-6,4.7-6,9.1c0,1.9-0.1,3.7-0.2,5.3
		c-1.2,1-2.3,0.7-3.3,0.8c-3.4,0.2-6.8,0.3-10.2,0.5c-10.2,0.9-20.2,2.7-30.5,2.6c-5,0-10,0.2-15.3-0.2c-1.4-7.1,0.1-14.2-1.5-21.1
		c-1.5-6.8-1.5-14-4.6-20.7c2.8-8.3,4.1-17.2,8.4-25.2c3.1,2.9,5.4,2.9,8.1-0.1c1.4-1.5,2.8-2.9,3.9-4.5c4.3-6.2,11.2-6.4,17.5-8.3
		c0.9,1.4,1.5,2.4,2.2,3.5c-0.5,0.1-0.7,0.3-0.9,0.3c-0.6-0.1-1.2-0.2-1.7-0.3c-6.1-1.3-11.2,1-15.2,5.2
		c-5.4,5.7-8.6,12.8-11.2,20.1c-0.2,0.5-0.3,1.2-0.2,1.7c0.6,4,2.3,7.4,5.2,10.6c-0.8,1.4-1.6,3.1-2.1,4.9c-0.9,3.6-1.7,7.3-2.5,11
		c-0.5,2-0.2,3.9,0.2,5.9c0.7,3,3,5.2,4,8.1c0.6,1.5,1.2,3.1,2.4,4.1c3.3,2.8,6.8,1.8,10.4,1c1.2-0.7,2-1.7,2.7-2.8
		c3.6-5.5,7.6-10.7,11.8-15.8c1.7-2.1,3.1-4.4,3.8-7.1c0.7-2.4,1.7-4.6,2.5-6.8c7.8-3.2,12.5-11.8,11.7-18.7
		C855.9,199.2,860.7,202.9,864.2,207.8z"/>
	<path fill="none" d="M806.8,252.6c11.3-0.4,22.6-0.5,33.5-3c0.6,0.8,1.1,1.4,1.6,2c1.1-0.6-0.1-1.5,0.8-2c4.1-0.4,8.3-0.8,12.7-1.3
		c-1.1,3-2.5,5.3-3.8,7.6c-3.6,5.9-4.4,12.3-3.6,18.9c0.4,3.6,0.9,7.2,1,10.8c0,4.1-1.1,8.2-1.8,12.5c-15.8-10-32.8-12.6-50.8-10.1
		c0.5-1.2,0.9-2.2,1.2-3.2c0.7-2.5,0.9-5,2.5-7.2c0.8-1.2,0.8-3,0-4.4c-1-1.7-1-3.5-1-5.4c0-4.2,0.6-8.4-0.7-12.6
		c-0.2-0.8-0.5-1.8,0.3-2.7c1.9-0.3,3.8-0.6,5.7,0.5c0.4,5.2,1.6,10.1,1.6,15.3C808.1,263.2,807,258.1,806.8,252.6z M805.6,270.8
		c-0.4,2.4-0.7,4.7-1,7.1C806.2,275.7,807.2,273.5,805.6,270.8z M816.1,274.1c-0.9-1.7-0.9-1.7-3.3-3.6
		C814.2,273,814.2,273,816.1,274.1z"/>
	<path fill="none" d="M832.8,156.9c-0.3,1-1.3,1.6-0.4,2.1c1.3,0,1.6-1.6,2.7-1.9c0.6,0.9-1.4,1.8,0,2.7c2.9-2,2.6-7.5,7.8-7.5
		c-0.2,1-0.6,1.4-1.1,1.7c-3.6,2.4-3,6-2.4,9.5c0.2,1,0.7,2,1.7,2.6c5.6,3,7.1,8.3,8.5,13.4c-0.7,2.9-2.9,4.5-3.8,6.7
		c-2.1,4.7-4.3,9.5-5.1,14.6c-1,6.3-2.8,12.3-4.7,18.4c-1,3-2.4,5.5-4.3,7.9c-3.7,4.7-7.4,9.4-10.8,14.3c-2,2.8-4.4,3.6-7.5,3.2
		c-1.3-0.2-2.6-0.4-3.7-1.2c-1.1-2.2-2.2-4.3-3.6-6.4c-1.6-2.5-2.7-5.5-2-8.3c0.6-2.2,1-4.5,1.7-6.9c2.5-1.7,3.8-4.6,6.1-6.7
		c2.9-2.6,5.6-5.4,8.3-8.1c2.2-2.3,4.2-4.8,5.9-7.5c3.9-6.3,5.8-13.5,9.4-19.5c-0.5-3.3-1.6-5.9-3.2-8.3c-0.7-1.1-1.1-2.3-1.5-3.5
		c-0.9-2.7-0.5-5.5-1.4-8.3C830.2,159,830.9,157.8,832.8,156.9z M839.8,189.9c3.3-1.1,4.8-3.9,4.3-7.7
		C843.1,185,841.4,187.3,839.8,189.9z M835.4,196.9c1.1,0.5,0.9-0.6,1.1-1.2C836.1,196,835.8,196.4,835.4,196.9z"/>
	<path fill="none" d="M771.2,188.3c0.5-1.1-0.1-1.6-0.8-2.1c-0.5,0.5-0.3,1-0.3,1.4c-2-1.5-2.8-3.9-4.3-5.7c0.1-2.6,0.5-5,3.3-6.4
		c0.6,3.3,2.8,5.6,3.7,9.3c1.7-3.8-1.2-5.5-2-7.6c0.3-1.3,1.7-1.5,1.8-2.5c-0.3-1.2-1.4,0.3-1.7-0.7c-0.1-0.6,0-1.2,0.9-1.6
		c2,0.5,2.9,2,3.2,4.2c0.3,2.3,0.9,4.6,3.6,5.4l-0.1-0.1c0.3,1.5,2,1.5,2.7,2.6c1.6,4.3,1.4,6-1,9.3c-0.6,2,1.5,2.4,2,3.9
		c2.2,6.8,2.8,13.5,0.1,20.3c-1.4,3.6-2.7,7.3-2.7,11.2c-1.1,1.3-2.6,2.3-2.2,4.2c0.8-0.3,0.7-1.4,1.6-1.4c0.5,0.7-0.1,1.6,0.9,2.3
		c1-6,2.4-11.7,4.6-17.3c0.5-1.4,0.8-3,0.9-4.5c0.2-4.2,1.2-8.4,1.8-12.5c0.3-2.1,0.8-4.1,2.8-5.5c0.9-0.6,1.4-1.6,1.7-2.6
		c0.8-3,2.5-5.5,3.8-8.3c0.6-1.2,1.2-2.5,2.9-3.5c-0.9,1.9-1.6,3.3-2.2,4.7c-3,7.3-4.8,15-6.6,22.6c-0.2,0.9-0.4,1.9,0,2.8
		c1.1,2.3,1.3,4.7,1.9,7.1c1.9,7.2,2.6,14.5,2.9,21.9c0.2,3.8-1.2,6.8-3.3,9.8c-3.1,0.3-5.8,1.6-8.4,2.1c-1.3-1.1-2.2-1.9-3.2-2.7
		c-1.9-1.5-3-3.4-3.4-5.9c-0.4-2.4-1.1-4.8-2.1-7.1c-2.2-5-2.2-10.3-1.2-15.5c0.7-3.7,1-7.4,1.2-11.2c0.2-4.8-0.8-9.6-0.6-14.4
		c0.1-1.4-0.6-2.7-1.6-3.9c-0.7-0.9-1.7-1.7-1.6-3C770.3,187.7,770.7,187.9,771.2,188.3z M781.6,205.1c0.6-1.7,0.4-2.8,0.2-3.9
		c-0.3,0-0.5,0.1-0.8,0.1C781.2,202.4,781.3,203.4,781.6,205.1z M784.9,247.7c0.9,0.6,1.6,1.3,2.6,0
		C786.5,247.2,785.8,247.2,784.9,247.7z M776.8,191.2c-0.3-0.8-0.9-0.6-1.7-0.5C775.6,191.4,776,191.8,776.8,191.2z"/>
	<path fill="none" d="M824.2,151c1.7-1.2,1.8-1.8,0.7-3.5c0-1.5-0.7-2.2-2.2-2c0.1-0.3,0.2-0.6,0.4-1.1c0.8-0.4,1.4,1,2.7,0.3
		c-2.8-2.1-5.8-3.5-8.3-5.8c-0.2,0.2-0.4,0.5-0.6,0.7c2,1.9,3.9,3.8,5.9,5.7c0.8,0.7,1.2,1.7,2.2,2c0,0.6,0,1.1,0,1.6
		c-0.4,0.7-1,0.4-1.5,0.5l0.1,0.1c-0.6-1.7-2.3-2.2-3.5-3.3c-1.8-1.7-3.6-3.3-4.4-5.7c-1.4-4.2-2.1-8.6-2.2-13.2
		c1.6,5,5.4,8.3,9.1,11.9c-1.7,0.4-2.3-1.2-3.6-0.9c2.6,2.9,5.4,4.1,7.7,3.4c0.2-0.8-0.9-1.4-0.4-2.2c1.4,1.7,3,3.3,4.2,5.1
		c0.6,1,1.6,1.3,2.2,1.7c0.8,1.1,0.3,2.5,1.4,3.3c0.8-2.6,0.8-2.7-0.6-6c-3.3-0.4-4.3-3.3-6-5.4c-0.9-1.1-1.3-2.3-0.1-3.5
		c1.3-0.2,1,1.5,1.8,1.6c0.7,0.2,1-0.7,1.8-0.1c0.6,1.3-2.1,1.9-0.9,3.8c0.8,0.9,1.9,0,2.9,0.1c0.4-1-0.4-1.4-0.8-2.1
		c1.4-1.6,2.5-3.5,5.1-3.9c-0.8-1.8,1-2.8,1-4.5c-2.7-0.2-5.2-0.4-8.6-0.6c2.4,2.1,4.8,1.1,6.9,1.5c-0.3,1.8-2.2,1-3,2.2
		c-0.2,0.2,0.6,0.6,0,1.1c-1.8-0.9-3.3-2.4-5.4-3.1c-2.2,1.2-2.4,3.6-3.2,5.5c0.5,1.3,0.9,2.3,1.3,3.4c-1-0.5-2.4-1.2-2.6-2.1
		c-0.5-2.2-2.2-3.2-3.8-4.2c-0.7-0.5-1.2-1.1-1.6-1.8c-1.7-2.8-2.6-6-4.5-8.8c-1.4-2-1.6-4.8-2.3-7.3c-0.2-0.6,0-1.2,0.7-1.3
		c0.3,2.2,1.6,3.8,3.3,5.2c1.6,2.4,3.9,4.2,6.1,6.1c-1.6-2.4-3.5-4.6-5.7-6.5c-1.2-1.6-2-3.6-3.8-4.7c0.4-0.8,1.2-1.1,2.2-1.4
		c0.7,0.8,1.4,1.7,2.3,2.4c2.4,2.2,4.6,4.6,7.6,6c0.1,0.8,0.7,1.1,1.9,1.3c-0.6-0.9-0.9-1.4-1.8-1.5c-1-1.9-2.9-2.9-4.4-4.3
		c-0.8-0.7-1.7-1.3-2.2-2.4c0.5-0.2,0.7-0.3,0.9-0.3c0,0.2,0,0.5,0.1,0.6c5.2,3.5,10.4,7.2,16.8,8.6c0.6,0.9,1.4,0.8,2.4,0.4
		c-0.8-0.4-1.6-0.4-2.4-0.3c-0.1-0.4-0.3-0.8-0.4-1.3c1.5-0.7,2.8,1.2,4.6,0.2c-3.2-0.9-5.9-2.2-9-2.3c-1.5,0-2.6-0.8-3.9-1.4
		c-2.8-1.4-5.1-3.6-8.2-4.4c-0.7-1.2-2.9-0.8-3-3.2c2.1,0.9,4.4,0.4,6.4,0.9c4,1.1,8,2.2,11.5,4.6c-0.4-0.1-0.9-0.1-1.5-0.2
		c0.8,1.2,1.7,1.4,2.8,1.5l0,0c2,2.1,4.6,2.8,7.5,3.5c-0.5-1.6-2.1-1.4-2.8-2.3s-1.1-2.1-2.4-2.2c-3.5-2.4-7.7-3.2-11.4-5.3
		c7.4,0.7,13.2,5,18.8,9.4c1.1-1.4-1.6-1.7-0.5-3.2c1.7,0.7,2.1,3.1,4,2.9c0.8,2,1.6,3.7,2.1,5.5s0.6,3.6,0.9,5.5
		c-1.4-0.1-2.4,0-3.9,0.7c1.6,0.2,3.1,0.1,3.9,1.8c-0.9,0.5-0.3,1.8-1.3,2.5c-1.6-1.4-3-0.9-4.4,0.5c1.4,1.5,3.3,2.6,3.7,4.8
		c0.6-1.3-0.1-2.4-0.4-3.7c0.2-0.6,0.4-1.4,1.2-1.8c-0.3,1.4,0,2.7,0.5,4.1c0.8,2.2,2,4.4,2.1,6.8c-1.1,0.8-2.5,0.4-3.2,1.6
		c-0.5,0.8,0.1,1.9-0.6,2.8c-1.2-0.6-2.5,0.1-3.8,0.1c-1-0.7-1.8-1.7-3.4-1.5c-2.9,1.7-5.9,3.5-9,5.1c-2,1-3.4,2.4-4.4,4.4
		c-0.5,1-0.9,1.9-2.2,1.9c-0.2-0.2-0.4-0.3-0.5-0.5c-2.9-3.3-3.9-6.8-0.8-10.6L824.2,151z M828.9,127.2c3.4-1.3,6.7,1.6,10.6,0.6
		c-5.4-2.2-9-2.7-12.5-1.8C827.5,127.1,828.4,127.4,828.9,127.2z M822.2,132.1c0.1,1.6,0.8,2.3,2.2,2.9c-0.5-1.4,0-2.4,0.4-3.3
		C823.2,130.6,824,134.1,822.2,132.1z M849.2,144.4c-0.1,0.3,0.1,0.6,0.5,0.7c0.1,0,0.4-0.2,0.5-0.3c0.1-0.3-0.1-0.6-0.4-0.7
		C849.5,144.1,849.2,144.2,849.2,144.4z"/>
	<path fill="none" d="M826.1,194.8c-2.1,4.5-4.8,8.3-8.2,11.9c-3.3,3.4-6.9,6.6-9.8,10.5c-0.4,0.5-0.5,1.4-1.7,1.1
		c0.3-1.7,0.4-3.3,1.5-4.9c2.4-3.6,2.7-7.6,2.2-12c-1.9-0.4-2.8-2.2-4.5-3.3c-0.1,2.7,2,3.3,3.1,4.7c0.1,2.2-0.4,4.3-1,7.2
		c-1.8-3.7-3.3-6.7-3.9-10.4c2.3-2.9,3.1-6.7,4.8-10.2c0.8-1.7,1.5-3.5,2.4-5c2.7-4.4,6.8-7,11.5-8.8c3.6-1.3,6.9-0.1,10.3,1.1
		c0.4,1,0.8,1.9,1.2,2.8C831.4,184.6,828.4,189.6,826.1,194.8z M814.1,182.7c2.2-1.4,4.7-2.4,6.2-4.7
		C818.1,179.4,815.3,180,814.1,182.7z M812.1,185.7c-1.7,1-1.3,2.4-1.1,3.8C812.3,188.5,812.3,187.2,812.1,185.7z"/>
	<path fill="none" d="M789,519.4c-0.8,2.6-2.1,5.2-1.3,8.1c0.1,0.3,0,0.7-0.2,1c-1.2,3-2.4,6.1-3.6,9.2c-4.3,0.5-8.2-0.9-12.3-1.7
		c0.5-5.6,0.9-10.7,1.4-15.7c0.4-0.9,1.4-0.4,1.8-1c0.9-1,0.6-2.8,2.1-3.4c2.3,0.4,4.2,1.4,5.3,3.2c0.9,0.5,1.6-0.4,2.3,0.3
		c0.8,0.5,0.6,2,1.9,2.2c0.9-0.1,1-0.8,1.2-1.5C787.9,519.3,788.5,519.3,789,519.4L789,519.4z"/>
	<path fill="none" d="M778.5,182c-0.1-1.4-1.4-2.4-1.2-4.2c16.8-4.9,33.6-9.9,50.6-14.9c0.6,2.1,0.7,3.6,0.2,5.3
		c-1.1,0.3-2.1,0.7-3.1,1c-10.7,3-21.4,6-32.1,9c-4.8,1.3-9.6,3-14.6,3.8L778.5,182z"/>
	<path fill="none" d="M795.7,140.2c-1.3-7-3-14.1,0.2-21c0.5,0.3-0.4,1.5,0.7,1.7c0.6-0.8,0.6-1.8,1-2.7c1.1-2.9,2.4-5.6,4.1-8.1
		c1.8-2.6,3.9-4.6,7.5-4.5c0.1,1.1,1.3,1.6,1.8,2.5c-2.9,0.9-5.9,1.2-8.3,2.6c-0.1,0.9,0.8,0.5,0.7,1.3c-3.1,2-4,5.2-3.9,8.8
		c0.1,2.9-0.1,5.8-0.4,8.8c-0.3,4.3-0.5,8.6,0.4,13c0.3,1.8,1.1,3.6,0.7,5.5c-0.7,4.4-2.4,8.3-4.6,12.1c0.4-3.4,2.2-6.5,1.6-10.4
		c-0.4,1.1-0.6,1.8-0.9,2.7c-0.8-3.8,1.1-6.9,0.7-10.5C796.1,141.8,795.9,141,795.7,140.2z"/>
	<path fill="none" d="M817.2,153.5c-0.3-0.6-0.5-1.4-1.4-1.1c-1.5-3.4-3-6.7-4.3-10.2c-0.6-1.6-1.6-3.1-1.1-5.4
		c3,5.4,5,11.1,10.7,13.9c-1.3-2-3.4-3.5-4.6-6.3c2.8,1.9,4.4,4.5,7.3,5.2l-0.1-0.1c0.2,0.5,0.5,1,0.7,1.5l0.1-0.1
		c-1.5,0.9-2.5,2.1-2.9,3.8c-0.7,3.1,1.4,5.2,3,7.7c-4.1,1.3-7.8,2.5-11.9,3.4c-0.7-4,0.2-7.7-0.5-11.3c0.5-0.2,0.7-0.3,0.9-0.3
		c0.3,0,0.4-0.1,0.5-0.5c-0.7-1.8-2.1-3.5-2.6-5.8c1.8,1.6,2.4,4,4.9,4.4C815.9,153.1,816.6,153.2,817.2,153.5z M815.4,157.4
		c0.8-1.2,0.5-2.2,0.2-3.2C814.8,155.1,814.9,156.1,815.4,157.4z M819,154.5c-0.4,1.1,0.4,1.9,0.6,2.9
		C820.1,156.3,820,155.4,819,154.5z"/>
	<path fill="none" d="M795.8,180.5c-2.4,3.2-4.7,6.5-6,10.3c-0.4,1.1-0.8,2-1.7,2.5c-2.2,1.4-3.2,3.3-3,5.9c0,0.4-0.1,0.9-0.7,1.2
		c-0.7-2.6-1.6-5.3-1.2-7.9c0.4-3.3-0.2-6.4-1.1-9.7c5.5-1.6,10.8-3.3,16.4-4.2C797.2,178.8,796.4,179.6,795.8,180.5z"/>
	<path fill="none" d="M862.8,158.7c-4.9,0.7-9.3,3.7-14.3,2.7c-0.8-0.8-1.2-1.5-1-2.4c1.9-2.4,1.9-2.4,4.4-3.1
		c3.7-1.1,7.4-2.2,11.6-3.4C861.7,155.5,861.7,155.5,862.8,158.7z"/>
	<path fill="none" d="M807.2,132.6c-0.2,2.2,0.1,4.2,0.8,6.1c0.7,1.8,1.3,3.5,1.9,5.3c0.2,0.6,0.6,1.2-0.4,2
		c-1.5-4.7-4.5-8.8-3.3-13.9c-2-4.5-2-4.5-0.7-9.7c1.6-6.1,2.3-7.4,5-8c0.5,1.3,0.6,2.7,0.4,4.1c-0.5,5.1,0.1,10.1,1.5,15
		c0.2,0.8,0.8,1.5,0.3,2.3c-2.3-0.7-2.9-2.6-3.1-4.6c-0.2-1.6-0.2-3.3-0.2-4.9c0-3.7,0-7.3,0.5-11c-2.7,2.9-2,6.9-3.8,10.1
		C807.1,128,807.4,130.4,807.2,132.6z"/>
	<path fill="none" d="M840.9,210.8c1.3-7.1,2.7-13.8,5.4-20.7C850.5,196.9,848.1,206.1,840.9,210.8z"/>
	<path fill="none" d="M846.3,166.9c-5.1-2.5-6.1-4.7-4.7-10.5c1.9-1,3.4-3.3,6.4-2.2c-0.5,2-2.6,3.2-2.5,5.4
		c1.4,2.9,2.9,3.9,6.3,4.3C849.6,165.9,849.6,165.9,846.3,166.9z"/>
	<path fill="none" d="M802.2,181.5c0.4-2.3,2.1-3.8,3.6-5.5c1.9-0.3,3.6-1.4,5.8-1.2C808.2,180.2,805.2,182.3,802.2,181.5z"/>
	<path fill="none" d="M764.4,181.8c0.7,1.2,1.2,2.3,1.4,3.5c-1.2,0.9-2.4,1-3.5,1.2c-1.2-0.4-1.9-1.2-2.2-2.5
		C761,182.2,762.7,182.1,764.4,181.8z"/>
	<path fill="none" d="M864.7,152.2c3.3,1.4,3.6,2.3,2.5,5.6c-1.8,0.4-3.1-0.2-4.3-2.1C863.9,154.7,864.6,153.6,864.7,152.2z"/>
	<path d="M837,116.9c1.4,0.1,1.8,1.3,2.4,2.2c0.7,0.9,2.3,0.7,2.8,2.3c-2.9-0.8-5.5-1.4-7.5-3.5C835.4,117.2,836.5,117.8,837,116.9z
		"/>
	<path fill="none" d="M801,127.7c-0.1,4.6-0.2,9.2-0.3,13.8c-0.6-4.1-0.2-8.1-0.2-12.2C800.6,128.7,800.6,128.1,801,127.7L801,127.7
		z"/>
	<path fill="none" d="M818.4,107.1c0.7,1.1,2.1,1.4,3.7,1.9c-1.8,0.7-3.5,0-4.7,1.8C816.7,108.5,816.7,108.5,818.4,107.1z"/>
	<path fill="none" d="M776.7,176.2c-0.5-0.9-1-1.9-1.5-3c2.2-0.5,3.1,1.1,5.2,2C778.7,175.7,777.8,175.9,776.7,176.2z"/>
	<path fill="none" d="M810.4,106c3.8,0.1,4.1,0.4,3.8,3.7C813.2,107.9,811.8,107.2,810.4,106z"/>
	<path fill="none" d="M800.2,161.5c1-2.4,1.8-4.4,2.6-6.4C802.8,158.7,802.7,159,800.2,161.5z"/>
	<path fill="none" d="M803.2,119.4c0-2,1.2-3,2.5-3.9C804.8,116.6,804.7,118.3,803.2,119.4z"/>
	<path fill="none" d="M832.8,111c-1.3-0.2-2.6-0.4-4.3-1.7C830.4,109.8,831.8,109.9,832.8,111z"/>
	<path d="M834.8,117.9c-1.1-0.1-2.1-0.3-2.8-1.5c0.6,0.1,1.1,0.1,1.5,0.2C834.1,116.9,835.1,116.8,834.8,117.9z"/>
	<path fill="none" d="M801.1,127.8c0-1.3-0.2-2.5,0.5-4.5C801.6,125.3,801.8,126.5,801.1,127.8L801.1,127.8z"/>
	<path fill="none" d="M807.2,112c-0.1,1-0.8,1-1.7,1C805.8,111.7,806.3,111.4,807.2,112z"/>
	<path fill="none" d="M810.4,109.7c1.2-0.2,1.9,0.2,2.8,1.5C811.9,110.8,811,110.8,810.4,109.7z"/>
	<path fill="none" d="M839,112.2c-0.9,0-1.4-0.7-2.1-1.2c0.9,0,1.7,0.2,2.3,1L839,112.2z"/>
	<path fill="none" d="M828.9,108.6c-0.6-0.1-1.2,0.1-1.7-0.9C827.9,107.9,828.4,107.8,828.9,108.6z"/>
	<path fill="none" d="M839.2,112c0.8,0.2,1.8,0.3,1.6,1.5c-0.9,0-1.5-0.5-1.8-1.3L839.2,112z"/>
	<path d="M449,419.3c1-1.6,1.8-3.1,3.6-4.6C452.1,418,452,418,449,419.3z"/>
	<path d="M451.2,438.8c1.8,0.3,2.7,1.6,3.2,3.5c-1.2-0.9-2.4-1.8-3.7-2.7C450.8,439.3,451,439,451.2,438.8z"/>
	<path d="M465.9,501.8c1.1,1.8,1.7,3.1,1,4.8C466,505.2,465.4,503.8,465.9,501.8z"/>
	<path d="M459.5,451.8c-0.9-1-1.2-2.1-1.1-3.3C459.3,449.3,460,450.2,459.5,451.8z"/>
	<path d="M464.9,500.5c-0.5-0.5-0.9-1-0.4-2C465.2,499.6,465.2,499.6,464.9,500.5z"/>
	<path d="M452.4,412.3c0.3,0.4,0.7,0.9-0.1,1.4c-0.7-0.4-1.3-0.9-1.1-1.8C451.9,411.5,452.2,411.9,452.4,412.3z"/>
	<path d="M443.1,437.8c0.5-0.3,1.1-0.4,1.7,0.3C444.2,438.4,443.4,439.5,443.1,437.8z"/>
	<path d="M435.9,543.2c0-3.1,0-6.3,0-9.5c-6.5-1.4-12.6-3.8-19.1-4.7c-1.4,3.3,0.5,6.4-0.4,9.8c-0.8-3.9-1.6-7.6-0.5-11.4
		c8,1.8,15.8,4.2,23.5,6.7c-0.7,0.1-1.4,0.2-2.2,0.2C436.4,537.4,437.8,540.5,435.9,543.2z"/>
	<path d="M483.7,547.6c-3.1-0.2-5.9-2.2-9.3-2.2c-1.6,3.1-1.4,6.6-2.7,10.4c0.5-4.4-0.1-8.2,2.2-11.7c1.5,0.4,3,0.8,4.4,1.3
		C480.2,546.1,482.2,546.1,483.7,547.6L483.7,547.6z"/>
	<path d="M513.4,554.9c6.3-0.5,12.5,0.9,18.8,0.7C525.9,556.3,519.6,555.6,513.4,554.9z"/>
	<path d="M494.3,550.4c-3.6-0.6-7.3-1-10.6-2.8l-0.1,0.1C487.4,548,490.9,549,494.3,550.4L494.3,550.4z"/>
	<path d="M499.2,551.8c-1.7-0.2-3.5-0.3-4.9-1.4l-0.1,0.1C496,550.5,497.7,550.9,499.2,551.8L499.2,551.8z"/>
	<path d="M555.2,558.3c0.4,1.7,0.3,2.8,0,4.7C555.2,561.1,555.2,560,555.2,558.3z"/>
	<path d="M546.7,561.4c0-1.5,0-2.6,0-3.6C547,558.7,547.1,559.8,546.7,561.4z"/>
	<path d="M455.5,539.2c1.3-0.1,2.3,0.4,3.6,1.3C457.6,540.4,456.4,540.2,455.5,539.2L455.5,539.2z"/>
	<path d="M519.3,558.1c-0.1,0.2-0.1,1-0.8,0.5c0-0.7-0.3-1.4,0.6-1.7C519.6,557.2,519.5,557.7,519.3,558.1z"/>
	<path d="M499.1,551.9c1,0,1.9,0.1,2.8,1.5C500.7,552.7,499.9,552.3,499.1,551.9L499.1,551.9z"/>
	<path d="M455.6,539.1c-0.8,0.1-1.5,0.2-2.3-0.4C454.2,538.4,455,538.4,455.6,539.1L455.6,539.1z"/>
	<path d="M335.1,478c4.8,1,9.4,0.3,13.9,1.4C342.1,480.2,337.6,479.7,335.1,478z"/>
	<path d="M328.9,456.9c-0.8,3.2,0.8,5.5,0.3,8.2C327.3,462.4,327.2,460,328.9,456.9z"/>
	<path d="M344.3,477.2c2.2-1.2,4.5-0.2,6.8-0.1C348.8,477.1,346.5,477.1,344.3,477.2L344.3,477.2z"/>
	<path d="M342.2,481.7c0.5,0,1.1,0,1.6,0v0.1C343.2,481.8,342.7,481.8,342.2,481.7C342.2,481.8,342.2,481.7,342.2,481.7z"/>
	<path d="M344.3,477.1c-0.8,0.7-1.7,0.5-2.6,0.1C342.5,477.2,343.4,477.2,344.3,477.1L344.3,477.1z"/>
	<path d="M351.1,471.1c0.5,0,1,0,1.4,0C352.1,471.2,351.7,471.6,351.1,471.1z"/>
	<path d="M345,406.6c0.2-3.6,0.1-6.6,1.5-9.4C347.3,400.3,347.4,403.3,345,406.6z"/>
	<path d="M350,426.4c0.5-2.9,0.9-3.4,3.9-5.3C352.8,423,351.8,424.8,350,426.4z"/>
	<path d="M361.6,414.8c0,0,0.1,0.2,0.3,0.3c0,1-0.6,1.6-1.8,2.1C360.1,415.9,360.6,415.2,361.6,414.8z"/>
	<path d="M359.2,417.2c-0.7,1.2-1.2,1.9-2.9,2.2C357.1,418.2,357.6,417.2,359.2,417.2z"/>
	<path d="M390.9,378c-0.6-0.2-1.1-0.4-0.6-1.4C390.8,377,391.3,377.3,390.9,378z"/>
	<path d="M389.8,315.1c0.7,3.5-1.1,5.8-3.8,7.5C387.1,320,388.7,317.7,389.8,315.1z"/>
	<path d="M382.3,328.5c0.1-1.1,0.6-1.8,1.7-2.8C383.7,327.2,383.2,327.9,382.3,328.5L382.3,328.5z"/>
	<path d="M382.2,328.4c0,0.8-0.1,1.4-1.3,1.7C381.5,329.4,381.9,328.9,382.2,328.4L382.2,328.4z"/>
	<path d="M327.1,333.9c0.7,1,1,2.1,0.5,3.3C326.8,335.6,326.8,335.6,327.1,333.9z"/>
	<path d="M315.3,320c0.1-0.4,0.3-0.8,0.4-1.3c1.1,0.5,1.4,1.4,1.5,2.5c-1.1,0-1.1-1.2-2-1.3L315.3,320z"/>
	<path d="M330.8,380.6c0.8-0.8,1.5-0.8,2.3,0.3C332.1,381.5,331.4,381.4,330.8,380.6z"/>
	<path d="M322.5,323.9c-0.7,0.5-1.3,0.4-2-0.2C321.4,323.2,321.9,323.4,322.5,323.9z"/>
	<path d="M296.5,661.8c1.4-0.6,2.8-0.6,3.9,0.5c1.1,1,1.2,2.3,0.7,3.5c-0.5,1.4-1.8,1.8-3.1,1.8c-0.9,0-1.8-0.2-2.8-0.3
		c-0.2-1-0.3-1.8-0.4-2.7c0-0.3,0-0.7,0.1-1C295.2,662.8,295.7,662.1,296.5,661.8z M299.6,663.6c-0.3-0.7-0.9-1.1-1.6-1
		c-1.1,0.1-1.6,0.7-1.7,2c0.8,0.4,1.7,0.9,1.9,2.1C299.9,665.8,300.2,664.8,299.6,663.6z"/>
	<path d="M304.5,666.9c-1.4-0.3-2.4-1.6-2.4-3s1-2.6,2.5-2.9c2.1-0.4,3.1,0.2,4.4,3C307.7,666.6,306.5,667.3,304.5,666.9z
		 M303.8,664.6c0.5,1.1,1.6,1.6,2.5,1.1c1.3-0.6,1.2-1.8-0.2-3.9C303.7,662.7,303.3,663.3,303.8,664.6z"/>
	<path d="M310.3,666.6c1.2-1.9-1.9-3.3-0.1-5.5c1.2-0.6,2.7-0.8,4.4-0.5c0.2,1.8,0.3,3.5,0.4,5.3c0,0.2-0.2,0.4-0.4,0.7
		c-0.9-0.2-0.6-1.5-1.7-1.7C311.8,665.2,311.8,666.5,310.3,666.6z M313.2,662c-1-0.4-1.8-0.5-2.5,0.7c0.4,1.2,1.4,1.1,2.7,0.8
		C313.4,662.9,313.3,662.5,313.2,662z"/>
	<path d="M374.2,271.7c0.2-1,1.6-1.3,1.5-2.5c-0.6-1-1.2-0.1-1.6,0.1c-1.2-0.2-0.8-1.8-2-1.9c-0.5,0.5-0.8,1.1-0.9,2
		c0.8,1.5,1.5,3.2,3.2,4.2c0.5,1.8,1.6,2.9,3.6,2.7c1.5,3.4,1.6,3.6,0.8,6.4c-1.1-0.8-0.7-2.2-1.5-3.1c-3-3.2-6-6.3-7.8-10.5
		c0.8-2.1,1-4.4,3.3-5.7c2.1,0.7,3.7,2.3,5.8,3.3c-0.1-0.8-0.1-1.2-0.2-1.6c1-0.5,2.3-0.5,3-1.6c-5.5-0.8-5.5-0.8-6.9-2
		c2.9,0.2,5.7,0.5,8.5,0.7c-0.1,1.7-1.7,2.7-1.1,4.5c-2.5,0.5-3.8,2.2-5.1,3.8c0,0.9,1.4,1.1,0.5,2.3c-0.9,0.1-1.9,0.3-2.9,0.4
		C374.4,272.9,374.3,272.4,374.2,271.7z"/>
	<path d="M387,253.7c-4-0.5-7.2-2.6-10.6-4.5c0.7-0.5,1.1-0.8,1.6-1.1c1.9-0.3,3.1,1.5,5,1.4C383.2,252,385.7,252.3,387,253.7z"/>
	<path d="M383.2,260.4c-0.5,0.8-1.2,0.4-1.9,0.3c-2.6-0.5-5-1.8-7.8-0.8c-0.9,0.3-2.1-0.4-2.2-1.8
		C377.2,258.1,380.4,258.8,383.2,260.4z"/>
	<path d="M369,284.1c-2.9,3.6-3,4.8-0.6,8.6c0.5,0.8,1.5,1.5,1.2,2.7c-4.7-4.4-5.1-7.2-1.5-11.4c0.1-0.2,0.1-0.4,0.2-0.6
		c-0.3-0.5-0.6-0.9-0.9-1.4c0.9-0.2,1.4,0.6,2.2,0.7C369.8,283.3,369.4,283.7,369,284.1z"/>
	<path d="M356.9,246.7c1.4,1.7,2.5,3.6,4,5.2c1.5,1.6,3.2,3,4.1,5.1c-2.5-1.8-4.6-4-6.5-6.3C357.6,249.5,356.6,248.3,356.9,246.7
		L356.9,246.7z"/>
	<path d="M393.6,275c-0.6-2.1-2.2-3.5-3.7-5c2.8-1.7,2.8-1.7,4.4,0c-1.5,1.1-1.5,1.2,0,2.8C393.9,273.4,394.4,274.2,393.6,275z"/>
	<path d="M370.1,277.5c-1.1,0.7-1.7-0.7-2.6-0.4c-0.3,0-0.6,0.1-0.9,0.1c-1.6-1.6-3.3-3.1-5.2-4.9c0.9,0,1.4,0,1.8,0
		C364.7,274.9,368,275.3,370.1,277.5z"/>
	<path d="M369.4,279.4c0.5,1.1,1.5,2.2,0.1,3.4c0.3-1.3-0.3-2.3-1-3.2c-0.7-0.8-1.3-1.6-2-2.4c0.3,0,0.6-0.1,0.9-0.1
		C367.6,278.2,369,278.4,369.4,279.4z"/>
	<path d="M368.2,265.8c0.3,0.6,1.3,1.1,0.3,1.9c-1-0.7-1.7-1.5-2.4-3.3C367.3,265.2,367.8,265.5,368.2,265.8L368.2,265.8z"/>
	<path d="M368.2,265.8c-0.1-0.6-0.1-1.3-0.2-1.9c0.8-0.3,1.1,0.1,1.4,0.8C369,265.1,368.6,265.4,368.2,265.8L368.2,265.8z"/>
	<path d="M394.5,278.1c-0.6-0.4-0.8-0.8,0.2-1.7C394.8,277.2,395.1,277.7,394.5,278.1z"/>
	<path d="M365.9,311.1c-1.6,2.1-4,2.9-6.1,4.3C361.4,313.3,363.4,311.8,365.9,311.1z"/>
	<path d="M357.5,318.6c0.2,1.5,0.4,2.6-1.1,4.5C356.1,321,356.3,319.9,357.5,318.6z"/>
	<path d="M360.1,286.9c0.4,1.2,0.5,2.2-0.4,3.6C359.1,288.9,358.9,287.8,360.1,286.9z"/>
	<path d="M363.5,290.7c-0.1-1.1-0.1-1.9-0.2-3.4C364.5,288.9,364.5,289.7,363.5,290.7z"/>
	<path d="M798.8,342.7c-2.9,1.9-8.8,1.3-13.3-1.4C789.9,341.9,794.5,340.1,798.8,342.7z"/>
	<path d="M790.9,401.8c0,3,0.3,6-1.6,8.7C788.6,407.4,789.8,404.7,790.9,401.8z"/>
	<path d="M781.2,451.4c1.6,1.7,2.6,3.7,3.1,6C782.6,455.8,781.3,453.9,781.2,451.4z"/>
	<path d="M784.8,515c1.3-2,1.3-2,3.8-2.9C787.8,513.6,787.2,515.3,784.8,515z"/>
	<path d="M812.5,342.1c-1-0.3-2.9,1.4-5.7,0.1C809.6,341.4,811.5,342.2,812.5,342.1z"/>
	<path d="M788.6,415.9c-0.8,2-0.6,3.8-1.9,5.3C786.6,418,786.7,417.7,788.6,415.9z"/>
	<path d="M794,315.2c-1.1,1.9,0,4-1,6.1C792.2,317.5,792.2,317,794,315.2z"/>
	<path d="M806,345.2c1.7-1.5,3.1-1.1,4.4-0.9C809.2,344.8,808,345.3,806,345.2z"/>
	<path d="M795.6,307.9c0.1-1.5,1.1-2.6,1.6-3.9C796.9,306.1,796.9,306.1,795.6,307.9z"/>
	<path d="M826.4,342.3c1.9-0.4,1.9-0.4,3.7,0.3C828.9,342.8,827.7,343.1,826.4,342.3z"/>
	<path d="M788.8,507.4c0.4,1.1,0,1.9-0.9,2.6C787.9,508.3,787.9,508.3,788.8,507.4z"/>
	<path d="M789.3,491.5c-0.4-1.1-0.2-1.9,0.6-3.2C790.5,489.9,789.9,490.6,789.3,491.5z"/>
	<path d="M790.2,481.7c0.3,1.2,0.3,1.9-0.2,2.8C789.8,483.5,789.8,482.8,790.2,481.7z"/>
	<path d="M789.4,496.1c0,0.5-0.2,0.8-0.8,0.6c-0.3-0.5-0.2-0.9,0.2-1.7C789.1,495.5,789.3,495.8,789.4,496.1z"/>
	<path d="M788.3,501.3c0.1-0.1,0.3-0.1,0.3,0c0.3,0.3,0.4,0.7-0.1,1C788,502,787.9,501.7,788.3,501.3z"/>
	<path d="M802.4,529.7c2.1-0.3,3.8,1.1,3.8,3.1c0,2.4-1.6,3.2-6.1,2.8C799.3,531.6,800,530,802.4,529.7z M802.9,534.9
		c1.7-0.6,1.9-1.6,1.5-2.8c-0.2-0.7-0.8-1.2-1.5-1.2c-1.2,0-1.9,0.7-1.8,2C802.1,533.2,802.9,533.6,802.9,534.9z"/>
	<path d="M809.6,535.1c-1.4-0.2-2.6-1.4-2.7-2.8c-0.1-1.3,0.9-2.8,2.2-3.2c2-0.6,3.2,0,4.7,2.6C812.6,534.7,811.6,535.5,809.6,535.1
		z M808.6,533c0.5,1.1,1.6,1.5,2.6,0.9c1.2-0.8,1.1-1.8-0.5-3.8C808.2,531.2,807.9,531.6,808.6,533z"/>
	<path d="M819.6,534.4c0,0.1-0.3,0.3-0.6,0.4c-0.7-0.4-0.5-1.6-1.4-1.7c-1.1,0.2-1.2,1.5-2.6,1.8c1.1-2-1.8-3.4-0.3-5.4
		c1.3-0.8,2.8-0.8,4.6-0.7C819.4,530.8,819.5,532.6,819.6,534.4z M818,531.8c0.3-0.5,0.2-0.9,0-1.5c-1-0.5-1.8-0.4-2.5,0.6
		C816,532.3,817,532.1,818,531.8z"/>
	<path d="M815.3,409.1c0.6,2.4,0.2,5.1-1.3,8.1C813.6,414,814.1,411.2,815.3,409.1z"/>
	<path d="M800.5,516.9c0.9,1,3.1,0.7,2.8,3.3c-1.5-0.6-2.6-1.3-3.6-2.2c-0.2-2.2-0.5-4.4,0.3-6.7
		C800.7,513.3,800.3,515.2,800.5,516.9z"/>
	<path d="M813.9,401.1c0.3-2.3,0.6-4.2,0.8-6.1C814.8,396.9,815.7,399,813.9,401.1z"/>
	<path d="M816.8,449.7c0.5,0.8,0.5,1.5-0.2,2.5C815.9,451,815.7,450.3,816.8,449.7z"/>
	<path d="M814.6,386.8c-0.3-0.8-0.4-1.5,0.2-2.2C815.3,385.4,815.3,386.1,814.6,386.8z"/>
	<path d="M812.6,420c0.2-0.3,0.4-0.6,0.9-1.3C813.4,419.8,813.3,420.3,812.6,420z"/>
	<path d="M800,507.9c-0.7-0.6-0.7-1.3-0.1-2.3C800.5,506.5,800.7,507.2,800,507.9z"/>
	<path d="M727.4,530.2c8.1,1.5,15.9,4.2,23.9,6.3c-0.7,0.9-1.7,0.1-2.5,1c-0.6,2.6,0.5,5.7-1.2,8.5c0-3.1,0-6.2,0-9.5
		c-7-1.8-13.7-3.7-20.5-5.5C727.2,530.8,727.3,530.5,727.4,530.2z"/>
	<path d="M795.4,550.4c-3.2-0.1-5.9-2.2-9.3-2.2c-1.6,3.1-1.4,6.6-2.5,9.7c0.4-3.7-0.2-7.6,2.1-11
		C788.9,548.2,792.5,548.2,795.4,550.4L795.4,550.4z"/>
	<path d="M834.4,558.7c-3.1-0.1-6.2-0.5-9.4-0.8c6.3-0.6,12.5,0.7,18.8,0.8C840.7,558.7,837.6,558.8,834.4,558.7z"/>
	<path d="M795.3,550.5c3.7,0.3,7.2,1.3,10.6,2.8l0.1-0.1C802.4,552.6,798.7,552.2,795.3,550.5L795.3,550.5z"/>
	<path d="M727.8,532.3c0.2,3,0.4,5.9,0.7,8.9C727.9,538.3,726.3,535.4,727.8,532.3z"/>
	<path d="M805.9,553.3c1.8,0,3.4,0.4,4.9,1.4l0.1-0.1C809.2,554.4,807.4,554.4,805.9,553.3L805.9,553.3z"/>
	<path d="M866.7,565c0-1.1,0.1-2.2,0.2-3.3c0.1,0,0.1,0,0.2,0c0,1.1,0,2.2,0,3.3C866.9,565.1,866.8,565,866.7,565z"/>
	<path d="M858.3,563.6c0-1.1,0-2.1,0-3.1C858.5,561.6,859,562.6,858.3,563.6z"/>
	<path d="M767.2,542c1.3-0.1,2.3,0.4,3.6,1.3C769.3,543.2,768.1,543,767.2,542L767.2,542z"/>
	<path d="M830.3,561.7c-0.3-0.8-0.6-1.5,0.4-2.1C831.5,560.6,830.9,561.1,830.3,561.7z"/>
	<path d="M810.8,554.7c0.9,0.1,2,0,2.6,1.3C812.4,555.5,811.6,555.1,810.8,554.7L810.8,554.7z"/>
	<path d="M767.3,541.9c-0.9,0.1-1.7,0.1-3.1-0.7C765.7,541.3,766.6,541.1,767.3,541.9L767.3,541.9z"/>
	<path d="M805.6,270.8c1.6,2.7,0.6,4.9-1,7.1C804.9,275.5,805.2,273.2,805.6,270.8z"/>
	<path d="M816.1,274.1c-1.9-1.1-1.9-1.1-3.3-3.6C815.2,272.3,815.2,272.3,816.1,274.1z"/>
	<path d="M839.8,189.9c1.5-2.6,3.2-4.9,4.3-7.7C844.7,186,843.1,188.7,839.8,189.9z"/>
	<path d="M835.4,196.9c0.4-0.4,0.7-0.8,1.1-1.2C836.3,196.3,836.5,197.4,835.4,196.9z"/>
	<path d="M781.8,201.2c0.2,1.1,0.4,2.2-0.2,3.9c-0.3-1.6-0.4-2.7-0.6-3.8C781.3,201.3,781.5,201.2,781.8,201.2z"/>
	<path d="M784.9,247.7c0.9-0.5,1.6-0.5,2.6,0C786.5,249,785.8,248.3,784.9,247.7z"/>
	<path d="M776.8,191.2c-0.7,0.6-1.1,0.2-1.7-0.5C775.8,190.5,776.5,190.3,776.8,191.2z"/>
	<path d="M770,187.6c0.1-0.4-0.2-0.9,0.3-1.4c0.6,0.5,1.2,1,0.8,2.1c-0.5-0.3-0.9-0.6-1.2-0.8L770,187.6z"/>
	<path d="M826.5,139.7c-0.4-1.1-0.8-2.2-1.3-3.4c0.9-1.9,1-4.2,3.2-5.5c2.1,0.7,3.6,2.2,5.4,3.1c0.6-0.5-0.2-0.9,0-1.1
		c0.8-1.2,2.7-0.4,3-2.2c-2.1-0.4-4.4,0.6-6.9-1.5c3.4,0.2,6,0.4,8.6,0.6c0,1.7-1.7,2.7-1,4.5c-2.6,0.4-3.7,2.3-5.1,3.9
		c0.3,0.7,1.2,1,0.8,2.1c-1-0.1-2.1,0.8-2.9-0.1c-1.2-1.8,1.5-2.4,0.9-3.8c-0.8-0.7-1.1,0.3-1.8,0.1c-0.8-0.2-0.5-1.9-1.8-1.6
		c-1.2,1.2-0.8,2.4,0.1,3.5c1.7,2.1,2.8,5,6,5.4c1.4,3.3,1.4,3.4,0.6,6c-1.1-0.8-0.6-2.2-1.4-3.3c-0.7-0.5-1.6-0.7-2.2-1.7
		c-1.2-1.8-2.8-3.4-4.2-5.1L826.5,139.7z M830.2,133.7c-0.3-0.6-0.7-0.9-2-1C829.2,133.3,829.5,133.8,830.2,133.7z"/>
	<path d="M835.6,123.4c-6.4-1.4-11.5-5-16.8-8.6c-0.1-0.1-0.1-0.4-0.1-0.6l-0.1,0.1c3.1,0.8,5.4,3,8.2,4.4c1.3,0.6,2.4,1.4,3.9,1.4
		c3.1,0,5.9,1.4,9,2.3c-1.8,1.1-3.1-0.9-4.6-0.2C835.2,122.6,835.4,123.1,835.6,123.4L835.6,123.4z"/>
	<path d="M839.5,127.8c-3.9,1-7.1-2-10.6-0.6c-0.5,0.2-1.4-0.1-1.9-1.2C830.5,125.1,834.1,125.6,839.5,127.8z"/>
	<path d="M822.8,145.3c-2-1.9-3.9-3.8-5.9-5.7c0.2-0.2,0.4-0.5,0.6-0.7c2.4,2.3,5.5,3.6,8.3,5.8c-1.3,0.6-1.8-0.7-2.7-0.3
		C822.9,144.8,822.8,145.1,822.8,145.3L822.8,145.3z"/>
	<path d="M849.8,136.7c-0.9,0.4-1.1,1.2-1.2,1.8c0.3,1.3,1.1,2.3,0.4,3.7c-0.4-2.3-2.3-3.3-3.7-4.8c1.5-1.5,2.9-1.9,4.4-0.5
		L849.8,136.7z"/>
	<path d="M816,119c2.2,1.9,4.1,4,5.7,6.5c-2.2-1.9-4.5-3.6-6.1-6.1C815.8,119.3,815.9,119.1,816,119z"/>
	<path d="M824.4,134.9c-1.4-0.6-2.1-1.2-2.2-2.9c1.8,2,1-1.5,2.6-0.4C824.4,132.5,823.9,133.6,824.4,134.9z"/>
	<path d="M815.6,119.4c-1.7-1.4-3-3-3.3-5.2l-0.1,0.1c1.8,1.2,2.6,3.1,3.8,4.7C815.9,119.1,815.8,119.3,815.6,119.4z"/>
	<path d="M825,149c0-0.5,0-1.1,0-1.6l-0.1,0.1c1.1,1.8,1,2.3-0.7,3.5c-0.2-0.5-0.5-1-0.7-1.5C824,149.4,824.6,149.6,825,149z"/>
	<path d="M825,147.4c-1.1-0.3-1.5-1.4-2.2-2l-0.1,0.1C824.3,145.2,824.9,146,825,147.4L825,147.4z"/>
	<path d="M824.4,121.2c0.8,0,1.2,0.6,1.8,1.5c-1.2-0.3-1.7-0.6-1.9-1.3L824.4,121.2z"/>
	<path d="M835.5,123.5c0.8-0.1,1.6-0.1,2.4,0.3C837,124.2,836.2,124.4,835.5,123.5L835.5,123.5z"/>
	<path d="M850.1,144.8c0,0.1-0.3,0.3-0.5,0.3c-0.4-0.1-0.5-0.4-0.5-0.7c0-0.1,0.3-0.2,0.5-0.3C850,144.2,850.2,144.4,850.1,144.8z"
		/>
	<path d="M814.1,182.7c1.2-2.6,4-3.3,6.2-4.7C818.9,180.3,816.4,181.3,814.1,182.7z"/>
	<path d="M812.1,185.7c0.2,1.5,0.2,2.8-1.1,3.8C810.8,188.1,810.4,186.7,812.1,185.7z"/>
	<path d="M815.4,157.4c-0.5-1.3-0.6-2.3,0.2-3.2C815.9,155.2,816.2,156.2,815.4,157.4z"/>
	<path d="M819,154.5c1,0.9,1.1,1.7,0.6,2.9C819.4,156.4,818.6,155.7,819,154.5z"/>
	<path d="M815.8,152.4c1-0.2,1.2,0.5,1.4,1.1C816.6,153.2,815.9,153.1,815.8,152.4L815.8,152.4z"/>
	<path fill="none" d="M296.3,664.6c0-1.2,0.6-1.9,1.7-2c0.8-0.1,1.3,0.3,1.6,1c0.5,1.2,0.3,2.2-1.4,3.1
		C298.1,665.4,297.2,665,296.3,664.6z"/>
	<path fill="none" d="M306.3,665.7c-0.9,0.5-2.1,0-2.5-1.1c-0.5-1.3-0.1-1.9,2.3-2.8C307.5,663.9,307.6,665,306.3,665.7z"/>
	<path fill="none" d="M310.7,662.7c0.7-1.2,1.5-1.1,2.5-0.7c0.1,0.4,0.1,0.9,0.3,1.5C312.1,663.8,311.2,664,310.7,662.7z"/>
	<path fill="none" d="M374.5,273.6c-1.8-0.9-2.4-2.7-3.2-4.2c0.1-0.9,0.4-1.5,0.9-2c1.2,0,0.9,1.6,2,1.9c0.4-0.1,1-1.1,1.6-0.1
		c0.1,1.2-1.3,1.6-1.5,2.5C374.3,272.4,374.4,272.9,374.5,273.6L374.5,273.6z"/>
	<path fill="none" d="M802.9,530.8c0.8,0,1.3,0.5,1.5,1.2c0.4,1.2,0.2,2.3-1.5,2.8c0-1.2-0.8-1.7-1.8-2
		C801,531.5,801.7,530.9,802.9,530.8z"/>
	<path fill="none" d="M811.2,533.8c-0.9,0.6-2,0.2-2.6-0.9c-0.7-1.3-0.4-1.8,2-2.9C812.3,532,812.4,533.1,811.2,533.8z"/>
	<path fill="none" d="M817.9,530.3c0.2,0.5,0.3,0.9,0,1.5c-1,0.3-1.9,0.5-2.5-0.8C816.1,529.9,816.9,529.8,817.9,530.3z"/>
	<path fill="none" d="M830.2,133.7c-0.7,0.1-1.1-0.3-2-1C829.5,132.8,829.9,133.1,830.2,133.7z"/>
</g>
</svg>
