<?xml version="1.0" encoding="utf-8"?>
<!-- Generator: Adobe Illustrator 20.0.0, SVG Export Plug-In . SVG Version: 6.00 Build 0)  -->
<svg version="1.2" baseProfile="tiny" id="Layer_2" xmlns="http://www.w3.org/2000/svg" xmlns:xlink="http://www.w3.org/1999/xlink"
	 x="0px" y="0px" viewBox="0 0 900 600" xml:space="preserve">
<g>
	<path d="M625.9,593.6c-7.1,1-13.5-0.6-19.9-3.5c0.1-0.4,0-0.9,0.2-1.3c0.6-1.6,1-3.3,1.1-5.1c0.1-1.4,0.6-2.7,1-4
		c1.4-4.2,2.9-8.3,4.3-12.5c0.2-0.6,0.2-1.4,0.4-2c0.5-1.5,0.9-3.1,1.5-4.6c0.5-1.1,1.3-1.9,2.5-2.3c0.4-0.1,1-0.1,1.2,0.2
		c0.5,0.5,0.3,1-0.3,1.4c-0.1,0.1-0.3,0.1-0.3,0.2c0,0.3,0,0.5,0,0.8c0.3,0,0.8,0.1,0.9-0.1c0.4-0.5,0.9-1.1,1-1.7
		c0.2-1.1,0.4-2.3,0.2-3.4c-0.3-1.4-0.2-2.8-0.1-4.1c0.2-2.9,0.2-5.8-0.4-8.7c-0.3-1.7-0.4-3.5-0.5-5.2c-0.1-4.8-1.9-9.3-2.8-13.9
		c-0.7-3.5-1.1-7.1-1.2-10.7c-0.1-3-0.3-6-0.5-9c-0.4-6.5,0.6-12.7,2.9-18.8c1.4-3.9,2.9-7.8,4.1-11.8c1.2-4,3.1-7.8,4.4-11.7
		c1.9-5.7,2.4-11.6,1.6-17.5c-0.2-1.6-0.7-3.2-1.4-4.7c-3-7.1-4.8-14.5-6.3-22c-0.8-3.7-1.1-7.6-1.5-11.4c-0.3-3.2-0.6-6.4-1.3-9.6
		c-0.7-3-1.1-6.2-1.2-9.3c-0.2-6.6-0.2-13.2,0.5-19.8c0.2-1.9-0.1-3.9-0.2-5.9c-0.2-3.2-0.6-6.5-0.7-9.7c-0.2-5.9,1.1-11.5,3.2-17
		c0.6-1.5,1.1-3,1.6-4.6c0.7-2.2,1.8-4.3,3-6.3c1.7-2.8,3.6-5.4,5.6-8c1.1-1.4,1.7-3.3,3.4-4.3c0.5-0.3,0.7-1.2,0.8-1.9
		c1-4.8,1.9-9.6,2.2-14.4c0.2-2.6-0.4-5.1-1.1-7.5c-1.4-4.8-3.3-9.4-7-13c-0.7-0.7-1.4-1.6-1.8-2.5c-1.6-3.1-3.3-6.2-4.4-9.4
		c-1-2.8-1.9-5.7-2.8-8.5c-1.6-4.9-2.5-9.9-2.2-15.1c0.1-1.9-0.3-3.7-0.9-5.4c-2-5.3-3.8-10.7-4.8-16.3c-0.9-4.6-1.2-9.2-0.5-13.8
		c0.2-1.5,0.6-3,1.1-4.4c1-2.5,1.5-5.1,1.5-7.8c0-4.4,0.2-8.8,0.3-13.2c0-0.7,0.2-1.5-0.1-2.1c-1.3-3.7-0.1-7.4,0.3-11
		c0.5-4.3,1.4-8.5,2.1-12.7c0.4-2.3,0.5-4.6,0-6.9c-0.8-4.5-1-9-1.3-13.5c-0.4-6.6,0.2-13.2,0.6-19.8c0.1-2.2,0.3-4.4,0.4-6.6
		c0.3-9.7,0.5-19.5,0.7-29.2c0-0.9,0-1.7-0.1-3.4c-0.9,1.6-1.3,2.5-1.8,3.4c-4.8,8.7-11.6,15.4-20.8,19.3
		c-5.8,2.5-11.9,2.8-18.1,1.7c-6-1.1-11.6-3.4-16.9-6.2c-6-3.1-10.4-8.1-13.6-14c-5-8.9-6.4-18.5-6.1-28.5c0-1.2,0.1-2.3,0.1-3.5
		c0-0.1-0.1-0.2-0.3-0.6c-0.5-0.2-1.3-0.5-2-0.7c-6.7-1.5-13.4-2.9-20.1-4.4c-2.7-0.6-5.4-1.4-8.1-2c-0.9-1.1-1.5-2.1-1.8-3.4
		c-0.2-0.8-0.1-1.6,0.3-2.3c0.9-1.5,3.9-2.6,5.5-2.2c3.8,0.9,7.6,1.9,11.5,2.8c5.1,1.2,10.2,2.2,15.3,3.3c0.4,0.1,0.9,0.1,1.5,0.2
		c0.4-1.3,0.9-2.5,1.2-3.7c2.1-6.7,5.4-12.9,9.8-18.3c4.9-6.1,11.1-10.5,18.7-12.8c2.3-0.7,4.8-1,7.2-1.1c4.3-0.2,8.6,0.5,12.8,1.4
		c4.4,0.9,8.4,2.6,12.3,4.8c4.4,2.4,7.9,5.7,10.7,9.7c5.8,8.2,8.5,17.4,8.9,27.4c0.1,1.7,0.1,3.5,0.2,5.2c0,0.1,0.1,0.2,0.2,0.4
		c0.9,0.3,1.8,0.7,2.7,1.1c1.3-0.5,2.7-0.7,4.1-0.5c0.9,0.2,1.8-0.1,2.7-0.1c1.2-0.1,2.4,0.1,3,1.3c0.5,0.9,1.1,1.3,2.1,1.7
		c1.6,0.6,2.6,1.9,3.1,3.5c0.2,0.5,0.4,1.1,0.6,1.7c0.7,0.2,1.3,0.6,2,0.7c17.9,3.8,35.8,7.6,53.8,11.4c0.7-0.9,1.3-1.7,2.1-2.7
		c2.9-0.1,6-0.2,9.3-0.3c0.5-0.8,1-1.7,1.5-2.6c2.4-4.9,5.9-8.9,9.9-12.4c2.3-2,5.1-3.6,8.1-4.6c4.6-1.6,9.3-2.1,14-2.4
		c3.8-0.2,7.6,0.3,11.3,1.8c1.5,0.6,3.1,1.1,4.6,1.7c6.6,2.7,11.8,7.2,15.8,13.2c2.3,3.4,3.9,7.1,5.1,11c1.3,4,1.7,8.2,1.9,12.3
		c0,1,0,2.1,0,3.3c0.9,0.3,1.7,0.7,2.6,0.9c2.9,0.6,5.9,1.3,8.9,1.8c2.3,0.4,3.3,1.9,4.1,3.8c0.4,1-0.1,1.9-0.7,2.6
		c-0.7,0.8-1.5,1.4-2.3,2.2c-4.6-0.5-9-2.1-13.8-2.5c-0.3,0.8-0.7,1.5-0.9,2.3c-1.7,5.8-4.5,11-8.4,15.5c-4.6,5.3-10.3,9-17.1,10.7
		c-3.3,0.8-6.8,0.9-10.4,0.4c-6.3-1-12.4-2.9-18.3-5.2c-3.9-1.5-6.9-4.2-9.9-7c-0.5-0.5-1-1-1.4-1.4c-0.9,0.1-0.7,0.7-0.7,1.1
		c-0.3,5.2-0.5,10.4-0.7,15.6c-0.1,2.1,0,4.2,0.1,6.3c0.4,6.3-0.5,12.5-2.4,18.5c-0.3,1.1-0.8,2.2-1.3,3.2c-1,2.1-1.5,4.4-1.4,6.7
		c0,2.7,0.1,5.3,0,8c-0.1,2.3,0,4.6-0.6,6.9c-0.3,1.2-0.2,2.5-0.2,3.8c0.2,9.3-2.2,17.9-7,25.8c-1.7,2.8-3,5.8-3.9,8.9
		c-0.6,1.9-1.2,3.7-1.9,5.8c0.5,0.5,1.1,1.1,1.6,1.7c2.2,2.4,4.4,4.8,6.6,7.1c1.2,1.2,2.6,2.3,3.9,3.4c1,0.8,1.9,1.6,2.4,2.8
		c0.4,1,1,1.9,1.5,2.7c2.9,4.3,3.2,9.1,2.6,14.1c-0.5,4.5-3.2,8.7-7.2,11.6c-0.5,1.5-0.9,3.2-1.5,4.8c-0.3,0.9-0.4,1.9-0.9,2.6
		c-2.3,3.4-2,7.2-2.3,11c-0.2,2.4-0.3,4.8-1.2,7.2c-1.2,3-2.2,6.1-4,8.8c-0.4,0.6-0.6,1.5-0.7,2.3c-0.3,1.8-0.4,3.7-0.6,5.5
		c-0.1,1.2,0,2.3,0,3.5c0.1,5-0.1,10-1.2,14.9c-0.5,2.1-1,4.3-0.3,6.5c0.3,0.8,0,1.8,0.1,2.8c0.1,2.8-0.1,5.5,1.1,8.2
		c0.7,1.7,0.8,3.9,0.8,5.8c-0.1,3.3,0.8,6.4,1.8,9.5c1.4,4.2,2.9,8.3,3.5,12.7c0.3,2.5,0.6,5.1,0.8,7.6c0.5,6,1.1,12,1.6,18
		c0.2,2.5,0.3,5.1-0.4,7.6c-0.5,1.6-0.4,3.4-0.6,5.2c-0.5,4.7-1,9.5-1.6,14.2c-0.2,1.5-0.6,2.9-0.9,4.4c-0.4,1.9-0.7,3.9-1,5.8
		c-0.5,3.7-0.7,7.4-2,11c0.3,0.9,1,1.7,0.8,2.9c-0.3,3.8-0.5,7.6-1.5,11.4c-0.2,0.7-0.3,1.4-0.2,2c0.2,2.9,0.1,3.4-2.2,6.5
		c0-0.7-0.1-1.1,0-1.5c0.3-1,0.8-1.9,1-2.9c0.2-0.9,0.6-1.8,0.4-2.7c-0.5-3.6,0.1-7.2,0.3-10.8c0.1-1.3,0.1-2.4-0.2-3.7
		c-0.4-1.6-0.1-3.5,0.1-5.2c0.3-2.2,0.7-4.4,1.1-6.5c1.6-7.8,3-15.7,3.8-23.7c0.3-3,0.5-6,0-9c-0.3-1.9-0.1-3.9-0.1-5.9
		c0-3.4-0.1-6.7-0.7-10.1c-0.5-2.7-0.6-5.5-0.9-8.3c0-0.4-0.2-0.9-0.2-1.1c-0.7-0.8-1.5-0.4-2.1-0.3c-4.5,0.7-8.9,1.5-13.4,2.1
		c-2.7,0.4-5.5,0.5-8.3,0.5c-2.1,0-4.1,0.3-6.3,0.8c-0.3,0.8-0.6,1.5-0.8,2.2c-1.8,8.6-1.5,17.3-1.4,26c0,2.7,0,5.3-0.1,8
		c0,2.3,0,4.6-0.1,7c-0.1,1.7-0.3,3.5-0.4,5.2c-0.1,1.4-0.1,2.8,0.2,4.1c0.5,2.5,1.3,4.9,1.8,7.4c0.5,2.4,0.9,4.8,1.3,7.2
		c0.2,1.3,0.3,2.5,0.5,3.8c0.3,1.7,0.7,3.4,0.8,5.2c0.2,2.8,0.7,5.5,1.7,8.1c0.5,1.4,0.6,3,1.9,4c0.3,0.2,0.5,0.8,0.5,1.2
		c0.1,1.3,0,2.5,0,4.4c-0.6-0.9-1-1.3-1.2-1.8c-0.5-1.1,0-2.5-1-3.9c-0.5,0.6-1.1,1-1.3,1.6c-0.8,1.9-1.5,3.9-2.1,5.9
		c-1.1,3.4-2.1,6.9-3,10.3c-1.3,5.3-1.7,10.8-2.3,16.2c-0.4,4.3,0,8.6,1.1,12.7c1.3,5.1,1,10.4,0.9,15.6c-0.2,7.1-1.4,14.1-2.2,21.1
		c-0.1,1.4-0.4,2.8-0.8,4.1c-0.2,0.7-0.7,1.4-1.2,2.2c0.3,0.5,0.5,1,0.9,1.4c2,2.3,2.8,3.1,5.8,1c2.3-1.6,4.8-2.8,6.8-3.9
		c1.2-1.9,2.1-3.3,3.1-4.9c0.1-4.7,1.2-9.5,2.3-14.2c1.2-5.1,2.4-10.2,3.6-15.2c0.2-0.7,0.2-1.5,0.6-2c1.3-1.5,1.3-3.4,1.6-5.2
		c0.5-2.9,1.1-5.6,2.5-8.3c1.1-2.2,1.4-4.9,1.9-7.4c0.5-2.5,0.8-5,1.1-7.6c0.1-0.5,0.2-0.9,0.1-1.4c-0.5-2.4-0.2-4.9,0.1-7.3
		c0.1-1,0.2-2.1,0.2-3.1c-0.1-3.6,0.5-7.2,1.5-10.6c0.8-0.2,1.1,0.4,0.9,0.9c-0.7,2.3-0.4,4.6-0.5,6.9c-0.1,3-0.3,6-0.4,9
		c0,0.7-0.2,1.4-0.1,2.1c0.5,7.8-1.2,15.2-4,22.4c-1.1,2.8-1.9,5.7-2.4,8.7c-0.2,1.4-0.5,2.8-0.8,4.1c-2,7.8-3.1,15.7-4.7,23.5
		c-0.1,0.4-0.1,0.9-0.1,1.6c0.5,0.3,1,0.7,1.6,1.1c1,0.7,1.7,1.6,2,2.8c0.5,2,1.8,3.4,3.2,4.9c2.6,2.8,5.5,5.3,7.8,8.4
		c0.4,0.5,1.1,0.9,1.7,1.2c2.6,1,5.2,2,7.8,2.9c0.8,0.3,1.6,0.5,2.4,0.4c2.8-0.2,5.5,0.5,8.3,0.9c3.3,0.5,5.3,2.2,4.8,6.7
		c-0.3,2.2-0.3,2.2,0.3,4.1c-1.4,2-3.4,3.5-5.5,4.5c-3.3,1.5-6.8,3.1-10.5,3.3c-2.9,0.1-5.8,0.1-8.7-0.1c-4.3-0.2-8.5-1.2-12.7-2.1
		c-1-0.2-2.1-0.1-3.1-0.2c-0.9-0.1-1.8-0.6-1.8-1.9c2-0.5,4.1-0.4,6.2-0.1c1.1,0.2,2.3,0.3,3.4,0.7c3.1,0.9,6.2,0.5,9.3,0.3
		c2.3-0.1,4.7-0.3,6.9,0c3.5,0.4,6.7-0.1,9.7-1.7c1.9-1.1,3.7-2.4,5.5-3.7c-0.6-2.3-1.2-4.6-1.8-6.9c-0.8-0.3-1.5-0.7-2.3-0.8
		c-2.9-0.3-5.7-1.1-8.6-1c-1,0-2-0.4-3-0.6c-0.4-0.1-0.9-0.3-1.3-0.5c-2.7-1.1-5.3-2.3-8.2-2c-0.4-0.6-0.7-1.1-1-1.5
		c-0.2,0-0.5-0.1-0.7-0.1c-1.1,0.3-2.2,0.6-3.4,0.8c-0.3,0-0.9-0.4-1-0.7c-0.1-0.3,0.1-1,0.4-1.2c0.8-0.5,1.7-0.8,2.5-1.1
		c-0.6-1.4-0.9-1.7-1.8-1.4c-1.5,0.4-2.9,0.8-4.4,0.5c-0.4-0.1-0.9-0.5-0.9-0.8c-0.1-0.3,0.3-1,0.6-1.1c1.1-0.4,2.2-0.7,3.5-1.1
		c-0.5-0.7-0.9-1.2-1.4-1.9c-1.6,0.7-3.1,1.3-4.6,1.9c-0.4,0.2-0.9,0.2-1.3,0.3c-0.5,0.1-1.1-0.8-0.9-1.2c0.3-0.6,0.7-1.3,1.3-1.5
		c1.1-0.5,2.4-0.8,3.8-1.2c-0.3-1.2-1.5-1.8-2.1-2.9c-0.5-1-1.1-2-1.7-3.2c-2.1,1.7-4.1,3.2-4.6,6.1c-3.2,2-6.5,4-9.7,5.9
		c-1.4,0.8-2.7,0.7-3.9-0.2c-1.8-1.4-3.4-2.8-3.8-5.2c-0.1-0.4-0.3-0.8-0.5-1.6c-0.7,1.2-1.5,2-1.6,3c-0.3,2.2-1.7,3.8-3.1,5.3
		c-0.3,0.3-0.6,0.7-0.9,1.1c0.9,0.8,1.8,1.5,2.5,2.4c0.7,0.9,1.2,2,1.8,3c0.4,0.7,0.9,1.4,1.4,2c1.6,1.7,3.1,3.5,4.9,4.9
		c2.2,1.7,4.6,3.1,7.4,3.6c1.3,0.2,2.5,0.4,3.8,0.7c1.5,0.4,2.1,1.1,2.2,2.7c0,0.7-0.1,1.4-0.2,2.1c-0.1,0.4-0.4,1-0.2,1.3
		c0.8,1.6-0.2,2.8-1.1,3.7c-1.9,1.8-3.9,3.5-6.9,3.7c-2.4,0.1-4.8,0.7-7.2,1.4c-5,1.3-10.1,1.4-15.2,0.9c-3.2-0.3-6.4-0.7-9.6-1.3
		c-1.8-0.3-3.6-0.9-5-2.2C627.4,594.5,626.7,594.1,625.9,593.6z M686.1,220.7c0,0.5,0.1,0.8,0.7,0.7c0.2,1,0.6,2,0.7,3
		c0.2,1.1,0,2.2,0.6,3.4c0.5,1,0.2,2-0.3,3c-0.4,0.8-0.8,1.6-1.2,2.6c-0.4,0.2-0.9,0.5-1.4,0.6c-3.7,1.2-7.3,0.9-11,0
		c-1.2-0.3-2.5-0.5-3.7-0.9c-4.7-1.4-9.2-3.2-12-7.7c-1.5-2.4-3.3-4.5-5.4-6.3c-3.5-3-7.2-5.8-10.8-8.7c-0.3-0.3-0.7-0.6-1.2-0.1
		c0.5,0.7,0.9,1.3,1.4,2c2.1,3,3.4,6.3,4.1,9.9c0.4,2,0.6,3.9-0.2,5.8c-0.4,0.9-0.3,2-0.4,3.1c-0.5,5.2-1.8,10.3-3.6,15.2
		c-0.7,1.8-1.7,3.6-2.6,5.3c-2.3,4-5.6,6.7-9.9,8.4c-1.1,0.4-2.1,0.7-3.4,0.3c-0.9-0.3-1.9-0.6-2.8,0c2.4,7.3,7.1,13.1,10.3,19.9
		c0.8-0.1,1.5-0.1,2.2-0.3c5.3-1.3,10.7-2.1,16.1-2.7c3.3-0.3,6.7-0.9,9.8-2.3c1.3-0.6,2.6-0.9,3.9-1.1c5.1-0.5,10.1-1,15.2-1.5
		c5.3-0.5,10.4-0.2,15.3,1.9c0.3,0.1,0.7,0.1,1.1,0.2c0.2-0.4,0.5-0.8,0.7-1.2c0.8-2.1,1.6-4.1,2.3-6.2c0.4-1.3,0.9-2.4,2.2-3
		c2.6-1.2,3.7-3.4,4.2-6c0.2-0.8,0.4-1.6,0.5-2.4c0.4-3.1,0.8-6.3-0.1-9.3c-1.2-4-3.2-7.6-6.4-10.6c-3.4-3.2-6.4-6.7-9.6-10
		c-1.4-1.5-2.6-3.3-4.5-4.3C686.5,221.2,686.2,221,686.1,220.7c-0.3-0.1-0.6-0.4-0.8-0.6c-0.2-0.2-0.5-0.4-0.7-0.7l-0.1-0.2l0.1,0.1
		c0.3,0.2,0.5,0.4,0.8,0.7C685.6,220.2,685.8,220.5,686.1,220.7z M669.3,143.5c-0.1-0.1-0.2-0.2-0.2-0.3
		C669.2,143.3,669.3,143.4,669.3,143.5c0.6,0.1,1,0.3,1.5,0.6c0.4,0.9,1.1,1.3,2.1,1.4c0,0.7-0.1,1.5-0.1,2.2
		c-1.7,0.1-2.5-1.2-3.6-2.2l0.2-0.1l-0.1,0.2c-0.5-0.1-1.1-0.3-1.6-0.4c-0.6-0.1-1.3-0.2-1.9-0.3c-0.2-0.9-1-0.9-1.6-1.1
		c-1.5-0.5-3.2-0.6-4.6-1.3c-1.7-0.8-3.3-0.8-5-0.9c-2.3,0-4.5-0.2-7.3-0.4c0.8-0.4,1.1-0.6,1.4-0.7c0.4-0.2,0.8-0.4,1.3-0.7
		c-3.8-0.6-4.3-0.4-6,2.1c0.6,0.1,1.2,0.1,1.7,0.2c3,0.6,6.1,0.9,9,2.2c-3-0.2-6-0.4-9-0.6c-4.5-0.3-4.9-0.2-7.9,3
		c-0.1,0.1-0.2,0.2-0.2,0.3c-0.5,0.6-0.7,1.2-0.4,1.9c0.1,0.3,0.2,0.7,0.1,0.9c-0.4,0.8-0.1,1.4,0.6,1.8c0.9,0.6,1.7,1.2,2.9,1
		c0.2,0.8,0.8,0.7,1.4,0.7c0.5,1,1.3,0.8,2.1,0.7c0.5,1,1.3,0.7,2.2,0.6c0.1,0.3,0.3,0.6,0.4,0.8c0.1,0.1,0.1,0.2,0.2,0.3
		c0,0-0.1,0.1-0.3,0.2c-1.5-0.4-3.1-0.8-4.6-1.2c-1.6-0.4-3-1.6-5-2c0.2,0.9,0.1,1.6,0.5,1.8c1.3,1.1,2.8,2,4.5,2.4
		c1.2,0.3,2.4,0.5,3.6,0.7c-0.3,0.5-0.6,0.8-0.8,1.2l0.1-0.1c-1.9,0.2-3.3-0.9-4.8-1.6c-0.9-0.4-1.7-1.2-3-1.1
		c-0.1,1.6-0.7,3,0.4,4.4c0.3-0.5,0.7-0.7,1.4-0.5c2.5,0.8,5.1,1.4,7.6,2.2c1.9,0.6,3.8,0.8,5.7-0.3c0.6-0.3,1.4-0.2,2-0.4
		c1.4-0.5,3.1-0.5,4.7-2c-1.6,0.3-2.7,0.5-3.8,0.6c-0.9,0.1-1.9,0.2-2.7,0c-1.6-0.5-3.2-1.1-5.2-1.9c2.8-0.2,5.4,0,8-1.3
		c-1.3-0.4-2.4-0.7-3.5-0.9c-1.4-0.2-2.7-0.3-3.9-1.1c-0.3-0.2-0.9-0.2-1.3-0.2c-0.6-0.7-1.3-0.8-2.1-0.7c-0.4-1.1-1.3-0.9-2.1-0.7
		c-0.1-0.9-0.8-0.8-1.4-0.7c0.3-0.4,0.6-0.9,0.9-1.2c3,1,5.7,1.9,8.5,2.8c1,0.3,2.1,0.5,3.1,0.3c1.7-0.2,3.5-0.5,5.1-1.1
		c1.5-0.5,2.9-0.7,4.4-0.4c0.3,0.1,0.6-0.2,1-0.3c0.1-0.5,0.1-0.9,0.2-1.3c0.1-0.4,0.2-0.8,0.4-1.8c0.6,4,0.1,6.2-1.5,8.7
		c-0.4,0.7-1,1.4-1,2.1c0,1-0.5,1.6-1.3,2.2c-2.6,2-5,4.2-8.3,5.8c1.1,0.1,1.8,0.2,2.5,0.2l0.1,0.1c-0.6,1.4-1.7,1.4-2.9,1
		c-1.2-0.4-2.2-1.3-3-2.3c-0.5-0.6-1-1.3-1.7-1.7c-0.4-0.3-1.3-0.4-1.6-0.2c-0.9,0.7-1.9,1.4-2.5,2.4c-0.6,1-1.4,2.2-0.6,3.7
		c0.4-0.8,0.7-1.6,1-2.3c1.2-2.6,1.8-2.7,4.1-0.9c0.3,0.2,0.5,0.4,0.8,0.7c1.2,1,1.6,2.2,1,3.7c-0.1,0.3-0.1,0.6-0.2,0.9
		c0.7,0.7,1.4,1.3,2,1.8c-0.3,1.2-0.7,2-1.9,2.1c-0.6-1.4-1.1-2.7-1.6-4c0.1-1.1,1.9-2,0-3.2c-0.6,0.8-1.3,1.5-2,2.4
		c0.4,1,0.7,2,1.2,2.9c0.2,0.4,0.6,0.8,0.7,1.2c0.1,0.3,0.1,0.8-0.1,0.9c-0.3,0.2-0.9,0.3-1.2,0.2c-1-0.4-1.6-1.3-2-2.3
		c-0.2-0.6-0.3-1.3-0.4-2c-0.6-0.2-1.1-0.3-1.7-0.6c0,0.6-0.2,1,0,1.2c2.3,3,3.9,6.5,7.1,8.9c0.7-0.5,1.3-0.8,1.9-1.3
		c0.3,0.5,0.5,0.8,0.7,1.2l0.1-0.1c-1.1,1.3-2.5,1.9-4.4,1.6c-0.6-0.8-1.3-1.7-1.8-2.4c-2.1-0.6-3.9-1.1-6.1-1.7
		c0.2,0.7,0.4,1.2,0.6,1.7c0.3,0.6,0.7,1.1,1.1,1.7c0.1,0.1,0.1,0.2,0.2,0.3c0,0,0.1,0,0.2,0c-0.2,0-0.3-0.1-0.5-0.1
		c0.3-0.2,0.5-0.4,0.9-0.7c1.2,0.3,2.5,0.6,3.8,0.9c0,1.8-1.9,1.7-2.5,3c0,1.2-0.1,2.4,0,3.7c0.2,3-0.1,6-0.7,9
		c-0.5,2.2-1.2,4.2-2.9,5.8c-0.3,0.3-0.4,0.7-0.6,1c0.7,1.3,2,1.4,3,1.9c1.5,0.8,3.2,1.4,4.6,2.4c2.4,1.6,4.6,3.4,6.9,5.2
		c0.5,0.3,0.9,0.7,1.3,1.2c1.7,2.5,4,4.5,5.6,7.1c1.7,2.8,4.1,4.7,7.3,5.5c2.8,0.8,5.6,1.6,8.4,2.3c1.3,0.4,2.7,0.6,4.2,0.2
		c-0.4-1.2-0.8-2.4-1.2-3.5c0.1-0.1,0.2-0.1,0.3-0.2c1,1.2,1.9,2.5,2.9,3.7c0.8,0,1.6,0,2.3,0c0.8-1.1,1.4-2,2.1-2.9
		c-1-2.9-2.2-5.7-4-8.2c-1.1-1.5-2.2-3-4.1-3.5c-0.4-0.1-0.8-0.4-1.1-0.8c-0.8-1.2-2-1.9-3.1-2.7c-1.1-0.8-2.1-1.8-3.1-2.7
		c1.3,0.3,2.7,0.2,3.9,1.3c1.5,1.4,3.4,1.9,5.3,2.3c0.4,1,1.3,1.3,2.1,1.8c-0.5-0.9-1-1.7-2.2-1.7c-1.3-2.2-3.2-3.6-5.6-4.2
		c-1.1-0.3-2.5-0.7-3.5,0.7c-0.4-0.4-1-0.8-1.1-1.3c-0.8-2.5-1.6-5.1-2.1-7.7c-0.4-2-0.3-4.1-0.3-6.2c0-1.4,0.8-2.1,2.2-2.2
		c1.6-0.1,3.2-0.2,4.8,0c2.1,0.3,4.1-0.2,6.2-0.7c1-0.3,1.4-1.1,1.6-2c0.2-1-0.2-1.8-0.6-2.7c-0.1-0.3-0.2-0.7-0.2-0.9
		c0.5-0.8,1-1.6,1.4-2.3c-0.5-1-1.1-1.4-2.1-1.4c-0.8,0-1.6,0.1-2.4,0c-0.5-0.1-1.1-0.2-0.8-1.2c1.1,0,2.2,0,3.4,0
		c1.1-0.1,2-0.5,2.2-1.6c-0.5-1.3-0.9-2.5-1.3-3.5c-0.4-0.1-0.8-0.1-1-0.4c-0.4-0.5,0-0.9,0.4-1.1c0.4-0.2,0.9-0.4,1.3-0.3
		c1.1,0.4,2.1,0.4,2.7-0.6c0.6-1-0.4-1.7-0.9-2.4c-1.4-2.1-2.6-4.4-3.1-6.9c-0.3-1.6-0.4-3.2,1.3-4.3c1-0.7,1.1-1.7,0.7-2.8
		c-0.8-2.4-1.6-4.8-2.4-7.2c-0.3-0.9-0.6-1.8-0.9-2.6c-0.7-1.5-1.4-1.8-3.2-1.5c-1.2,0.2-2.4,0.4-3.8,0.6c-0.2-0.3-0.5-0.6-0.8-1
		c0.2,0,0.4-0.1,0.6-0.1c0.7-0.2,0.9-0.6,0.5-1.1c-0.3-0.3-0.7-0.6-1-0.8c-0.5-0.8-1.1-1.3-2.1-1.4
		C670.5,143.5,669.8,143.7,669.3,143.5z M743.8,76.7c0-0.1,0-0.2-0.1-0.3c0-0.1-0.1-0.1-0.2-0.1C743.7,76.4,743.8,76.5,743.8,76.7
		c0.1,0.5,0.1,1.1,0.7,1.3c0.1,1.1,0.1,2.3,0.2,3.4c0.4,2.9-0.3,5.6-1.7,8.2c-0.3,0.5-0.5,1-0.7,1.5c-0.8,0.1-1.4,0.5-1.7,1.3
		c1.1,0.1,1.1,0.1,1.9-1.1c1.9-0.9,2.9-2.5,3.1-4.5c0.2-1.7,0.3-3.4,0.2-5.1c-0.1-1.3-0.3-2.7-1.4-3.6
		C744.6,77.5,744.6,76.9,743.8,76.7z M639.4,177.5c0.2,0.3,0.5,0.5,0.7,0.8c1.4,1.8,1.7,1.9,4.5,2c0-0.8-0.5-1.2-1.2-1.4
		c-1.1-0.2-2.2-0.4-3.3-0.6C639.9,178.1,639.6,177.8,639.4,177.5c-0.1-0.2-0.1-0.4-0.1-0.6c0.8,0.4,1.7,0.7,2.5,1.1
		c0.4,0.2,0.8,0.5,1.2-0.1c-0.8-1.7-2.6-3-2.6-5.1c0.3-1.3,0.6-2.7,0.8-4c0.2-1.2,0.5-2.2,1.4-3.1c1.4-1.3,2.9-1.9,4.7-1.2
		c0.6,0.2,1.1,0.2,1.3-0.7c-3.2-0.7-6.4-1.3-9.5-2c-0.8-0.2-1.6-0.4-2.2,0.4c-0.3,1-0.1,1.8,0.8,2.4c0.5,0.4,1.4,0.3,1.5,1.2
		l0.1-0.1c-0.8,0-1.5,0-2.4,0c-0.1,2.2-0.2,4.2-0.3,6c1,1.2,1.8,2.1,2.7,3l0.1-0.1c-1,0.3-1,0.3-0.7,1.5c-0.2,0.3-1.1,0.1-0.7,0.9
		c0.1,0.2,0.5,0.4,0.8,0.5C639,177.6,639.2,177.5,639.4,177.5z M667.2,139.3c-0.1-0.2-0.2-0.4-0.3-0.5c-0.1-0.1-0.4,0-0.6,0.1
		c0.1,0.1,0.2,0.3,0.3,0.3C666.8,139.3,667.1,139.2,667.2,139.3c1.2,0.8,1.2,0.8,2.7,1C669.2,139.3,668.3,139.2,667.2,139.3z
		 M705.5,69.1l0-0.2L705.5,69.1c1.2,1.2,1.2,1.2,2.4,0.7C707.2,68.9,706.4,68.9,705.5,69.1z M752.2,48.2l-0.1-0.2L752.2,48.2
		c3.3,2,6.4,4.2,9,7.1c7,7.9,10.1,17.3,10.5,27.7c0.2,7-1.6,13.5-4.4,19.9c-2.6,6-6.6,10.9-11.8,14.7c-4.3,3.2-8.9,5.3-14.3,5.9
		c-0.5,0.1-1.2,0-1.5,1c2.2,0.1,4.4,0.2,6.5,0.2c4.8,0,9.2-1.5,13.1-4.1c6.5-4.2,11.4-9.8,14.3-17.1c1.6-3.9,3.1-7.8,3.5-12
		c0.8-7.3,0.2-14.5-2.4-21.6c-3.3-8.9-9-15.6-17.3-20C755.8,49,754.1,48.1,752.2,48.2z M590,2.8c-0.2-0.1-0.4-0.3-0.3-0.2
		C589.5,2.6,589.8,2.7,590,2.8c0.6,0.3,1.1,0.8,1.6,1.2c1.7,1.3,3.6,2.5,5.2,4c5.2,4.7,8.5,10.7,10.7,17.2c1.2,3.6,2.1,7.4,2.4,11.2
		c0.7,9.2,0,18.3-3.3,27.1c-2.7,7.1-5.9,13.9-11.3,19.4c-1.5,1.6-3.3,3-4.9,4.4c-4.1,3.6-9,5.7-14.3,6.8c-2.4,0.5-4.8,0.6-7.3,0.9
		c0.4,0.2,0.7,0.4,0.9,0.5c3.8,1.1,7.7,1.4,11.7,1.3c4.8-0.2,9.3-1.5,13.6-3.8c3.7-2,6.9-4.7,9.7-7.8c7-7.5,11.2-16.4,13.4-26.3
		c0.8-3.8,0.9-7.8,1.3-11.7c0.5-5.6-0.5-11.1-2-16.5c-2.5-9.3-7.4-17.2-15.6-22.7c-0.2-0.1-0.4-0.3-0.6-0.4
		C597.9,5.2,594.2,3.3,590,2.8z M660.2,593.3L660.2,593.3c2.6-3.3,5.6-6.1,9.9-7.2c0.5-0.1,0.9-0.5,1.6-1c-0.7-0.4-1-0.7-1.5-0.8
		c-1.6-0.3-3.2-0.6-4.8-0.8c-1.5-0.2-2.8-0.7-4.1-1.7c-1.9-1.5-4-2.7-5.9-3.9c-2.2,0.6-4.2,1.1-6.2,1.6c-0.5,0.1-1.2,0.1-1.7,0.1
		c-0.6-0.1-1.2-0.2-1.2-1c0-0.4,0.4-0.8,0.8-1c0.5-0.3,1.1-0.4,1.7-0.5c1.7-0.3,3.3-0.6,5.2-1c-0.4-0.7-0.6-1.2-1-1.6
		c-0.4-0.5-0.9-1-1.4-1.7c-1.9,0.5-3.6,1-5.4,1.4c-1.7,0.3-3.4,1.4-5.5,0.5c0.3-2.6,2.9-2.4,4.6-3.7c-0.8,0.1-1.3,0-1.8,0.1
		c-1.5,0.3-2.9,0.7-4.4,1c-0.6,0.1-1.3,0.1-1.4-0.6c-0.1-0.4,0.2-1,0.5-1.2c0.7-0.5,1.6-1,2.4-1.3c1.3-0.5,2.7-0.8,4-1.1
		c0.5-0.2,1-0.4,1.6-0.6c-1-1.4-2.2-1.5-3.5-1c-2.3,0.8-4.6,1.7-6.8,2.6c-0.4,0.1-0.8,0.5-1.4-0.2c0.2-0.4,0.3-1,0.7-1.3
		c1.2-0.7,2.4-1.3,3.7-1.9c1.2-0.6,2.5-1,3.9-1.5c-0.9-1.4-1.8-2.6-2.5-3.9c-0.7-1.4-0.8-3.2-2.1-4.4c-0.7,0.1-1.4,0.1-2,0.4
		c-1.3,0.8-2.6,1.5-3.7,2.6c-1.8,1.8-3.4,3.8-5.1,5.7c-0.4,0.4-0.8,0.8-1.2,1.2c-1,0.9-2.1,1.8-3.2,2.7c-0.7,0.6-1.4,1.3-2.1,1.8
		c-1.4,0.9-2.9,0.2-2.9-1.5c0-2.2-1.3-4-1.7-6.4c-1,1.5-1.3,2.7-1.2,4.2c0.2,2.3-0.4,4.4-1.8,6.2c-0.8,1-1.1,2-1.4,3.1
		c-0.3,1.1-0.4,2.3-0.8,3.4c-1.2,2.8-1.6,5.8-2.1,8.8c-0.1,0.5,0,1.1,0,1.6c4.7,1.8,9.3,3.1,14.2,2.3c-0.1-0.6-0.2-1.1-0.3-1.5
		c1.3-0.7,2.5-0.3,3.5,0.6c0.9,0.8,1.8,1.4,2.6,2.3c1.7,1.6,3.7,2.3,5.9,2.5c1.1,0.1,2.3,0.3,3.4,0.5c4.2,0.7,8.5,1.1,12.8,0.7
		c4-0.4,8-1.3,12-2c3.9-0.7,6.7-2.9,9.1-6c-0.1-0.5-0.3-0.9-0.4-1.4c-3.7,1.1-6.9,2.9-9.7,5.3C661.6,593.1,661,593.5,660.2,593.3z
		 M713.2,82.9c-1.4-1-3-0.8-4.5-1.2c-0.7,1.1,0,2.6-1.4,3.1c-0.8-2.2-0.9-3.4-0.2-9.6c0.5,0.2,1,0.4,1.5,0.5c0.9-0.9,1.4-1.8,1-3.1
		c-2.5-0.8-4.6-0.4-6.4,1.5c-0.5,0.5-1,0.9-1.5,1.4c-1.5,1.3-3,2.5-4.4,3.6c-1.1-0.1-2-0.2-3-0.3c0.5,1.8,0.5,1.9,1.7,3
		c2.5,2.4,3.7,5.4,3.9,8.7c0.2,2.6,0,5.3-0.2,8c-0.3,3.1-0.8,6.2-1.3,9.3c-0.4,2.6-0.7,5.3-2.2,7.6c-0.3,0.5-0.4,1.1-0.5,1.6
		c-1.2,4.2-2.5,8.5-3.7,12.7c-1.5,5.4-2.8,10.8-2.8,16.4c0,1.4-0.1,2.6,0.8,3.9c0.9,1.3,1.2,3.2,0.6,5.2c-0.6-0.5-1.1-0.8-1.6-1.2
		c-1.7,4.6-3.4,9.2-5.1,13.8c0.5,1.7,1.4,3.2,2.5,4.6c1.6,2.1,1.4,3.3-0.6,5c-0.4,0.4-0.8,0.7-1.3,1.1c0.2,1,0.2,2,0.5,2.8
		c0.3,1.1-0.6,1.7-0.8,2.6c0,0.2,0,0.5,0.1,0.7c0.8,1.3,0.4,2.4-0.5,3.5c0.2,0.8,0.5,1.6,0.7,2.4c0.3,1.4-0.1,2.6-1.1,3.5
		c-0.6,0.5-1.3,1-2.1,1.2c-2.1,0.5-4.3,0.9-6.7,1.4c-1.4,1.8-2.9,3.8-4.5,5.8c0.4,2,0.7,4,1,5.9c0.1,0.3,0.4,0.6,0.6,0.9
		c0.4,0,0.9,0.2,1.3,0.1c1.6-0.3,3,0.3,4.3,1.1c0.9,0.5,1.7,1.2,2.5,1.9c1.5,1.2,2.9,2.6,5,3.6c0-1.5-0.1-2.6,0-3.7
		c0.1-1.2-0.4-2.5,1.2-3.8c0.4,3.6,0.4,6.8,1,10.1c0.8,0.8,1.4,1.9,2.8,2.5c0.3-0.7,0.6-1.2,0.7-1.7c1.5-4.8,3.5-9.3,5.7-13.8
		c2.8-5.9,4.9-12,5.4-18.6c0.4-4.8,1.1-9.7,1.7-14.5c0.5-4.1,1.1-8.3,0.8-12.5c-0.1-0.8,0.1-1.6,0.3-2.4c1.7-7.2,2.7-14.6,3.2-22
		c0.3-5.4,1-10.9,0.9-16.3c0-0.8,0.1-1.6,0.1-2.4c0-2,0-3.9,0-5.9c0-4.8-0.1-9.5-0.1-14.3c0-4.6,1.6-8.9,3.4-13
		C712.1,82.9,712.7,82.9,713.2,82.9c0,1.7-0.7,3.3-1.6,4.8c-1.9,3.4-1.8,7.2-1.6,10.8c0.1,2.5,0.5,5.1,0.5,7.6
		c0,1.9,0.5,3.4,1.8,4.7c4,4.1,8.3,7.7,13.7,9.8c10.2,3.9,19.7,2.5,28.3-3.8c5.7-4.2,9.9-9.7,12.6-16.4c3.8-9.6,4.4-19.3,1.5-29.3
		c-2.2-7.8-6.2-14.5-12.7-19.4c-8.1-6.1-16.9-7.7-26.5-4c-1.5,0.6-3.1,1.1-4.6,1.7c-1.2,0.5-2.4,0.9-3.4,1.7
		c-3.5,2.5-6.5,5.6-8.9,9.2c-1.6,2.3-3,4.6-3.8,7c0.5,1.4,1.5,1.4,2.4,1.7c2.6,0.8,5,1.9,5.7,4.9c0,0.2,0.3,0.4,0.6,0.7
		c2.6,0.6,5.4,1.2,8,1.8c0.3-0.2,0.5-0.2,0.5-0.3c0.2-0.2,0.3-0.4,0.4-0.6c2.3-3.1,5-5.5,9.3-4.6c0.4,0.1,0.9,0,1.4,0.1
		c3.8,0.8,7,2.4,8.9,6c0.9,1.8,1.4,3.7,1.5,5.7c0.2,4-1,7.5-4.5,9.9c-1.8,1.2-3.6,2-5.8,1.8c-0.9-0.1-1.9,0-2.8-0.2
		c-4.7-0.7-8.8-3.4-9.8-8.5c-0.1-0.3-0.3-0.6-0.5-1c-2.8-0.6-5.6-1.2-8.4-1.8C714.6,82.8,713.9,82.9,713.2,82.9z M640.8,64.8
		c-0.2,0-0.5,0-0.6,0.2c-1.5,1.4-3.1,1.9-5.1,1.3c-0.8-0.3-1.8,0-2.8,0c-0.9-0.6-1.8-1.3-2.7-1.9c-1,1.2-2.1,1.3-3.3,1
		c-1.1-0.3-2.2-0.8-3.2-1.3c-1.3-0.6-2.5-1.1-4-1.2c-0.4,0.6-0.9,1.2-1.1,1.8c-0.4,1.2-0.7,2.5-0.8,3.7c-0.1,2-0.1,3.9-0.1,5.9
		c0,5.6,0,11.1,0,16.7c0,1.4-0.5,2.7-0.6,4.1c0,1.5,0.5,3,0.4,4.4c0,2.3-0.3,4.6-0.5,6.9c-0.4,5.9-0.9,11.8-1.3,17.7
		c-0.2,2.7-0.1,5.3-0.3,8c-0.1,1.5,0.8,2.3,1.9,2.7c0.3,1.1,0.5,2,0.7,2.9c0.1,0.6,0.2,1.3-0.1,1.7c-0.8,1.1-0.5,2.2-0.5,3.4
		c0,1.7,0.3,3.5,0.2,5.2c0,1.8-0.3,3.7-0.5,5.5c-0.7,6.8-1.2,13.6-2.1,20.4c-0.9,6.8-1.1,13.6-1.1,20.5c0,0.2,0.1,0.4,0.2,0.7
		c0.9-0.6,0.9-1.5,1.3-2.3c0.2-0.4,0.3-0.9,1.1-0.5c-0.1,0.8-0.2,1.6-0.4,2.3c-0.2,0.8-0.4,1.6-0.9,2.2c-0.5,0.6-1.3,0.9-1.6,1.1
		c-0.6,1.6-1.1,2.9-1.5,4.2c-0.4,1.3-0.8,2.7-0.9,4c-0.4,5.4,0.2,10.7,1.9,15.8c1.8,5.2,3.5,10.3,5.3,15.5c0.4,1.2,0.9,2.4-0.1,3.6
		c-0.3,0.4-0.3,1.1-0.2,1.7c0.5,5.2,2.1,10.2,4.3,14.6c1.5,1,3,0.9,4.3,1.1c1.4,0.2,2.5-0.2,3.4-1.3c1.4-1.7,3-3.3,4.4-5
		c4-4.9,6.9-10.4,8.8-16.5c1.2-3.8,1.2-7.8,1.9-11.6c0.2-0.8-0.2-1.8-0.5-2.7c-1.2-3.7-3-7-5-10.3c-1-1.5-1.7-3.2-2.5-4.9
		c-0.3-0.6-0.5-1.3-0.6-2c-0.8-4.2-2-8.4-2.3-12.6c-0.7-10-0.4-19.9,0.6-29.9c0.1-0.7,0.2-1.4,0.5-2c0.9-1.4,0.7-2.8,0.2-4.3
		c-0.4-1.2-0.7-2.5-0.8-3.7c-0.3-3.1-0.5-6.2-0.5-9.4c-0.1-3.9,0-7.9,0-11.8c0-1.6-0.2-3.2-0.8-4.8c-2.1-5.7-3-11.7-3.5-17.7
		c-0.4-4.6-0.4-9.3-1.2-13.8c-0.7-3.6-0.8-7.4-1.1-11.1c-0.1-1-0.2-2.3,0.3-3c2.2-3.1,4.1-6.6,8.3-7.4c0.6-0.1,1.1-0.4,1.6-0.6
		c2.4-0.9,3.5-2.6,3.3-5.1C640.8,66.2,640.8,65.5,640.8,64.8c0.8-0.6,0.9-1.5,1-2.5c-1.8-1.3-3.9-0.8-5.8-1.3
		c-0.8,0.7-1.5,1.4-1.3,2.6c0.6,0.3,1.3,0.6,2,0.9c1-0.5,1.9-1,3-1.5C640.2,63.7,640.5,64.3,640.8,64.8z M560,87
		c-2-0.6-3.7-1.9-5.3-3.1c-0.5-0.3-0.9-0.8-1.2-1.2c-2.9-4-5.6-8.2-7.4-12.9c-2.8-7.5-4-15.2-3.2-23.2c0-0.2-0.1-0.4-0.3-0.8
		c-0.9-0.5-2-0.8-3.2-0.3c-0.1,0.7-0.2,1.4-0.2,2.1c-0.3,6.5,0.1,12.9,1.9,19.3c2.1,7.4,5.5,14,11.2,19.3c4.4,4,9.5,6.6,15.5,7.2
		c8.4,0.7,15.8-1.9,22.2-7.3c9.1-7.7,14.8-17.5,17.3-29.1c1.9-8.8,2.2-17.7,0.2-26.6c-1.8-8-5-15.1-11-20.9
		c-3.6-3.6-7.9-6.2-12.8-7.3c-8.9-2.1-17.1,0.1-24.3,5.5c-3.2,2.4-6.2,5.3-8.7,8.5c-3.7,4.7-6.2,10.1-8.2,15.7
		c-0.5,1.4-1.1,2.8-1.3,4.4c1.1,0.6,2.1,1.1,3.3,0.5c0.2-0.5,0.4-0.9,0.5-1.4c2-6.7,5.2-12.6,9.7-17.9c6-7.1,13.5-11.6,22.7-12.9
		c2.1-0.3,4.2-0.2,6.2,0.6c2,0.8,4,1.8,6,2.8c0.4,0.2,0.7,0.9,1,1.3l0.1-0.1c-2.1-0.2-4-1.2-5.8-2.1c-2.2-1-4.4-1.5-6.7-1.2
		c-5.1,0.5-9.7,2.2-13.9,5c-9.1,6.1-14.5,14.8-17.7,25.1c-0.2,0.5-0.5,1.1,0.2,1.9c8.3,1.8,16.9,3.7,25.3,5.5c1.3-0.7,2.3-1.6,3.4-2
		c4.1-1.3,5.6-0.7,8.4,2.8c0.3,0.4,0.6,0.7,0.9,1.1c2.5,3.6,1.5,7.9-2.2,10.2c-0.7,0.4-1.4,0.8-2.2,1.1c-0.8,0.3-1.7,0.4-2.3,0.5
		c0.6,2.2,1.3,4.2,1.6,6.2c0.4,3.1,0.3,6.3-1.1,9.2c-2.2,4.5-5.6,3.4-7.8,1.1c-0.3-0.3-0.6-0.7-0.8-1.1c-0.7-1.1-1.1-2.3-0.3-3.6
		c0.6-0.9,0.8-1.9,0.8-3c0.1-2.9,0.9-5.7,1.8-8.5c0.1-0.5,0.6-1,0-1.5c-1.7,1.8-2.6,4.1-3.7,6.3c-1.4,2.7-2.7,5.4-4,8.1
		c-0.5,1.1-1.4,1.4-2.3,0.9c-2.2-1.2-3.9-2.9-5-5.2c-0.9-2.1-1.1-4.2-0.4-6c2.1-1.7,3.9-3.2,5.7-4.6c1.8-1.4,3.9-2.3,5.8-3.7
		c-0.4-0.2-0.6-0.4-0.8-0.4c-7.2-1.6-14.5-3.2-21.7-4.7c-0.4-0.1-0.8,0.1-1.3,0.1c-0.1,0.6-0.2,1.1-0.2,1.5
		c-0.1,3.2,0.1,6.5,0.4,9.7c0.6,5.6,1.9,10.9,4.9,15.8c0.4,0.7,0.7,1.5,1,2.2c1.8,3.7,3.9,7.1,7.4,9.5C558.7,85.5,559.6,86,560,87
		L560,87z M686.8,338.6c-0.8,0-1.5-0.1-2.2-0.1c-4.1,0-8.1,0-12.2,0.1c-3.7,0.1-7.1-0.6-10.5-1.9c-2.4-0.9-4.8-1.8-7.1-2.7
		c-1.3-0.5-2.7-0.8-3.9-1.3c-2-0.8-4-1.8-6.1-2.6c-5.2-2.1-10-4.8-14.3-8.5c-0.4-0.4-0.9-0.6-1.4-1c-0.4,0.5-0.7,0.8-1,1.2
		c-0.9,1.5-1.8,2.9-2.2,4.7c-0.4,1.7-1.7,3.3-2.4,5c-1,2.3-1.7,4.7-2.9,6.9c-2.6,4.7-3.4,9.8-2.9,15.1c0.2,1.6,0.4,3.2,0.6,4.8
		c0.3,2.5,0.6,5,0,7.6c-0.3,1.5-0.2,3,0.3,4.7c1.4,0.4,2.8,1,4.2,1.3c3.7,0.8,7.5,1.5,11.3,2.1c5.3,0.8,10.5,1.6,15.7,3.1
		c3,0.9,6,1.8,9.1,2c0.9,0.1,1.8,0.1,2.6,1.2c-0.7,0.3-1.3,0.6-1.9,0.7c-0.7,0-1.4-0.2-2-0.3c-7.5-1.6-15-3.2-22.5-4.7
		c-5.1-1-10.3-1.8-15.3-3.2c-0.3-0.1-0.7,0-1,0c-0.8,1.2-0.5,2.5-0.4,3.7c0.2,5.3,0.5,10.7,0.7,16c0.1,1.5-0.1,3,1.1,4.3
		c0.3,0.3,0.3,0.9,0.3,1.3c0.1,0.8,0,1.6,0.1,2.4c0.2,4.9,0.1,9.7,1.4,14.5c0.8,3,1.4,6.1,2.2,9.1c1.4,5.9,2.8,11.7,4.3,17.5
		c1.4,5.4,1.7,10.8,0.3,16.2c-0.9,3.2-1.8,6.5-2.7,9.7c-0.3,0.9-0.7,1.8-0.7,2.7c-0.1,2.3-1,4.2-1.8,6.3c-2.2,5.9-4,11.9-5.4,18
		c-0.8,3.4-1.2,6.8-0.9,10.3c0.3,3.7,0.5,7.4,0.6,11.1c0.1,2.7,0.6,5.3,1.2,7.9c0.6,2.8,1.3,5.7,1.6,8.5c0.7,6.7,1.5,13.4,1.6,20.1
		c0,3.8,0.2,7.7-1.7,11.2c-0.5,0.8-0.2,1.8,0.4,2.6c1.8-0.5,2.1-1.9,2-3.6c0.9,0.4,1.6,0.6,2.4,0.9c1.1-1.3,2.1-2.6,3.2-3.7
		c1.1-1.2,2.2-2.4,3.4-3.4c1.2-1,2.6-1.8,3.8-2.6c-0.2-1.3-0.5-2.3-0.4-3.3c0.2-2.6-0.2-5.3,0.9-7.9c0.3-0.6,0.2-1.4,0.2-2.1
		c0.1-7.1,1.2-14.1,2-21.1c0.5-4,0.6-8.1,1.5-12c0.1-0.4,0-0.9,0-1.4c0.2-1.6,0.3-3.2,0.7-4.8c1.2-4.5,2.7-8.9,4-13.3
		c0.9-3.2,1.8-6.5,2.7-9.7c0.3-1.1,0.7-2.3,1.4-3.1c1.2-1.5,1.9-3.2,1.8-5.1c0-1.7,0.5-3.2,1.2-4.7c0.4-0.8,0.9-1.6,1.3-2.5
		c1.1-1.9,2-3.9,1.8-6.2c0-0.6,0.2-1.1,0.3-1.7c0.4-2.4,0.8-4.8,1.2-7.1c-0.7-0.7-1.2-1.4-0.8-2.5c0.8-2.8,1.6-5.6,2.3-8.4
		c0.7-3.4,1.6-6.8,1.8-10.3c0.3-5.4,0.2-10.9,0.2-16.3c0-4.1-0.1-8.1-0.1-12.2c0-0.7-0.1-1.5,0.2-2c0.9-1.4,0.7-2.9,0.8-4.4
		c0.4-4.3,1.4-8.5,2.7-12.6c0.2-0.6,0.5-1.4,0.9-1.8c2.5-2,4-4.8,5.7-7.3c0.6-0.8,1.2-1.6,1.8-2.3c-0.7,4.3-3.7,7.5-6,11.5
		c9.6-1.6,18.7-3.3,27.9-3.8c0.1,0,0.2-0.1,0.3-0.2c0.1-0.1,0.1-0.2,0.4-0.4c-0.5-3.3-1.2-6.7-2-10c-0.1-0.3-0.2-0.7-0.4-0.9
		c-0.8-0.9-1-2.1-1.2-3.2c-0.5-2.7-1.2-5.4-0.9-8.2c0.1-0.7-0.2-1.4-0.1-2.1c0-1.2-0.8-1.6-1.6-2c1.8-2,2-3,0.2-4.9
		c-0.6-0.7-0.9-1.3-1-2.1C687.2,340.2,687,339.5,686.8,338.6z M685.7,159c1.3-3,1.7-5.8,1.5-8.7c-0.3-4.9,0.9-9.7,1.1-14.5
		c0-0.5,0.2-0.9,0.3-1.4c1.3-6.5,3.4-12.8,5.7-19c1.1-2.9,1.7-5.8,2.1-8.8c0.3-2.6,0.7-5.3,1-7.9c0.4-3.1,0.8-6.2,1.2-9.5
		c-0.8-3-2.5-5.7-5.2-7.4c-0.4-1.3-0.8-2.4-1.2-3.6c-15.9-3.3-31.8-6.6-47.7-9.9c-0.5-0.1-1.1-0.1-1.8-0.1c-0.5,1.2-1,2.4-1.5,3.6
		c-1.5,0.7-3,1.8-4.7,2.2c-3.2,0.8-5.1,3-6.9,5.5c-1.1,1.5-1.3,3.1-1,4.9c1,5.9,1.8,11.9,2.8,17.8c1.1,6.5,2.4,13,3.6,19.5
		c0.7,3.9,1.6,7.7,1.7,11.7c0.1,2.9,0.2,5.8,0.4,8.7c0,0.4,0.3,0.8,0.4,1.4c1.7-1.3,3.4-2.4,4.8-3.8c1.8-1.9,4-2.7,6.4-3.2
		c6.2-1.2,12.2-0.8,18.2,0.9c1.7,0.5,3.4,0.9,5,1.4c3.4,1.1,6.3,3.1,8,6.3C682.2,149.5,684.1,154,685.7,159z M686.6,336.4
		c1.6-4.2,1.9-8.4,2.2-12.5c0.4-4.3,0.4-8.6,0.1-12.9c-0.4-6.5,1.2-12.4,4.8-17.8c0.8-1.1,1.4-2.4,1.8-3.7c1.1-3.4,1.2-7.1,1.6-10.6
		c0.1-1.1-0.4-1.7-1.5-2.1c-1.1-0.4-2.2-0.6-3.4-0.9c-1.2-0.2-2.5-0.2-3.5-1.3c-0.3-0.4-1.1-0.4-1.6-0.4c-2,0-3.9,0-5.9,0.2
		c-2.7,0.2-5.3,0.5-8,0.8c-4.3,0.4-8.5,0.8-12.6,2.4c-1.8,0.7-3.8,0.9-5.8,1.2c-1.4,0.2-2.9,0.2-4.6,0.9c0.7,0.5,1.1,0.9,1.6,1
		c1.1,0.2,1.9,0.6,2.5,2.2c-2.5-1.3-4.6-2-6.4-3.4c-4.5,0.6-9,0.9-13.6,2.1c0.5,3.1,0.9,6.1,1.9,8.9c1.1,3,1.1,5.9,0.7,8.9
		c-0.2,1.7-0.5,3.4-0.8,5.2c-0.6,4.8-1.5,9.6-4.7,13.7c0.5,0.5,0.8,1,1.3,1.4c3,2.5,6.3,4.8,9.8,6.5c2.3,1.1,4.6,2.3,6.9,3.4
		c2.2,1,4.5,1.5,6.9,1.9c0.5-1.4,0.2-2.5,0.1-3.6c-0.1-1.2-0.8-2.3-0.2-3.9c1.9,2.6,1.8,5.4,2.1,8.1c1.6,0.6,3.1,1.3,4.7,1.7
		c1.8,0.4,3,1.4,4.4,2.5c0.7,0.5,2,0.4,3,0.4c4.5,0.1,9,0.1,13.6,0.1C684.9,336.5,685.6,336.4,686.6,336.4z M660.7,434.6
		c-1.2,2.5-1.9,4.9-1.8,7.5c0.1,1.6-0.2,3.2-0.5,4.8c-0.6,3.2-1.4,6.3-1.8,9.6c-0.4,3.1-1.5,5.8-3,8.5c-1,1.8-1.8,3.7-2,5.9
		c-0.2,2.3-0.9,4.5-1.7,6.6c-1,2.6-1.9,5.2-2.6,7.9c-1.4,5.3-2.5,10.6-3.9,15.9c-1.2,4.5-1.9,9.1-2.5,13.6c-1,7.7-1.6,15.4-2.4,23.2
		c-0.2,2.1-0.4,4.2-0.6,6.2c-0.1,1.5-0.3,3-0.5,4.5c-0.2,1.5-0.3,2.9-0.5,4.6c2.5-0.6,3.6,0.8,4.4,2.7c0.4,0.9,0.6,1.7,1,2.6
		c0.6,1.4,1.2,2.8,2,4.1c0.7,1.2,1.7,2.2,3.1,2.7c0.7-0.9,1.2-1.7,2-2.5c0.9-0.9,1.4-2,1.8-3.3c0.7-2.1,2-3.9,3.6-5.4
		c0.7,0.1,1.2,0.1,1.9,0.2c1-2.6,1.1-5.4,1.4-8.1c1.1-9.3,1-11.9,0.3-22.8c0-0.5,0-0.9,0.1-1.4c0.6-2,0.4-3.9-0.1-5.8
		c-1.2-5.1-1.8-10.3-1.3-15.5c0.6-7,1.6-14,4.3-20.6c1.3-3.1,2.4-6.3,3.6-9.4c0.5-1.3,1-2.6,1.4-3.8c-0.2-0.5-0.4-0.8-0.6-1.1
		c-1.9-2.9-2.9-6-2.1-9.6c0.2-0.9,0-1.8-0.2-2.7c-0.7-3.2-0.9-6.4-1.1-9.6c-0.2-2.6-0.7-5.3-1.1-7.9
		C661.3,435.6,660.9,435.2,660.7,434.6z M512.7,31.8c0,1.3-0.1,2.1,0,2.8c0.3,1.1-0.9,1.5-1,2.6c0.4,0.1,0.8,0.3,1.2,0.4
		c2.8,0.6,5.7,1.2,8.5,1.8c16.9,3.6,33.8,7.3,50.6,11c1.6,0.4,3.2,0.5,4.8,0.2c0.2,0,0.4-0.2,0.9-0.5c0.2-0.7,0.5-1.6,0.8-2.4
		c-0.9-1.5-2.1-2-3.6-2.3c-18-3.9-36-7.8-54-11.8C518.4,32.9,515.8,32.4,512.7,31.8z M699.8,75.1c-1.3-1.8-2.9-2.8-4.9-3.3
		c-16.1-3.4-32.2-6.9-48.2-10.4c-1.1-0.2-2.2-0.4-3.4-0.7c0,0.9,0.1,1.7,0,2.4c-0.1,0.8-0.5,1.5-0.8,2.4c0.9,0.3,1.7,0.6,2.4,0.7
		c3.6,0.7,7.3,1.4,10.9,2.2c9.8,2,19.5,4.1,29.2,6.1c4.2,0.9,8.4,1.8,12.7,2.7C698.3,76.5,699,75.8,699.8,75.1z M726,85.2
		c-0.5,1.4,0,2.3,0.7,3.1c0.9,1,2,1.9,3.1,2.8c3,2.6,6.3,2.6,9.6,0.6c1-0.6,1.8-1.4,2.5-2.3c1.9-2.7,2.3-5.8,1.8-9
		c-0.4-2.7-1.7-5-3.8-6.8c-2.7-2.3-5.7-2.4-8.8-1.1c-1.7,0.7-2.8,2.2-3.2,4.3c1.5,0.4,2.8,0.7,4.1,1c1,0.3,2,0.6,3,0.8
		c1.5,0.4,2.3,1.4,2.9,2.7c0.6,1.4,0.4,2.8-0.7,3.7c-0.9,0.7-1.9,1.3-3.1,1.3C731.4,86.6,728.8,86.1,726,85.2z M711.2,79.9
		c1,0.3,2,0.6,3,0.8c5.4,1.1,10.8,2.2,16.3,3.4c1.3,0.3,2.6,0.8,4,1.2c1.4-0.7,1.9-1.1,2-1.9c0.2-1.2-0.5-2-1.4-2.6
		c-0.7-0.4-1.4-0.7-2.2-0.8c-4.6-1-9.2-2-13.9-3c-0.8-0.2-1.6-0.3-2.3-0.4c-0.7,1.1-1.6,1.9-2.9,1.6C712.4,78,711.9,78.9,711.2,79.9
		z M562,69.1c1.2-2.1,2-3.5,2.8-4.9c0.8-1.4,1.5-2.8,2.4-4.2c0.9-1.4,1.8-2.7,2.8-4c1-1.2,2-2.4,3.1-3.5c-1.1-0.9-2-0.9-3-0.3
		c-3.5,2.1-6.7,4.5-9.5,7.5c-2.4,2.6-2.5,4.2-0.4,7C560.6,67.3,561.1,68,562,69.1z M778.1,95c3.8,0.8,7.5,1.6,11.2,2.4
		c0.1,0,0.2,0,0.3,0c1.4,0.1,2.6-0.7,3-1.9c0.3-1-0.5-2.5-1.8-3c-0.1,0-0.2-0.1-0.3-0.1c-3.8-0.8-7.6-1.6-11.7-2.5
		c-0.3,1.2-0.6,2.2-0.7,3.2C778,93.7,778.1,94.2,778.1,95z M577.4,62.2c-0.4-2.2-1.1-5.6-1.8-9c0-0.2-0.6-0.6-0.7-0.5
		c-0.3,0.2-0.9,0.7-0.8,0.9c0.4,2.1-0.3,4.1-0.5,6.2c-0.4,3.3-0.7,6.7-1,10c-0.1,1.4,0.3,2.3,1.3,2.5c0.7,0.2,1.5-0.3,2.1-1.5
		C577.2,68.5,577.5,66,577.4,62.2z M576.6,52.6c0.1,0.8,0.1,1.1,0.2,1.4c0.5,1.3,1.2,1.7,2.3,1.3c2.2-0.8,3.7-2.4,4.5-4.5
		c0.9-2.4,0.2-4.7-1.6-6.7c-1.7-1.9-3.7-2.2-5.9-1.6c-0.5,0.1-1.1,0.3-1,0.9c1.3,0.7,2.6,1.1,3.7,1.9c1.2,0.9,1.5,2.2,1.2,3.7
		C579.6,50.9,578.4,52,576.6,52.6z M627,61.9c3.4-1.5,3.8-2.2,2.9-5.1c-0.6-2-1.4-3.8-2.1-5.7c-0.9,0-1.7,0-2.7,0
		c0.3,0.7,0.5,1.3,0.7,1.7c0.9,1.7,1.4,3.4,0.1,5.1c-0.4,0.5-0.4,1.4-0.2,2C625.8,60.6,626.5,61.2,627,61.9z M630.4,62.3
		c0.5,1,1.3,1.4,2.2,1.6c0.7-2,1.4-3.8,2.1-5.7c-1.2-1.1-1.7-2.4-1.7-4c0-0.7-0.1-1.4-0.4-2c-0.2-0.5-0.7-0.9-1.2-1.1
		c-0.5-0.1-1,0.1-1.5,0.2c0,0.4-0.1,0.7,0,0.9c0.2,0.7,0.4,1.3,0.7,1.9C632.2,56.8,631.9,59.5,630.4,62.3z M640.8,187.9
		c-0.6,0.6-1.1,1-1.4,1.4c-0.8,1.4-0.8,2.8-0.5,4.3c0.4,2.3,0.7,4.5,1,6.8c0.1,0.5,0.2,0.9,0.4,1.8
		C642,194.3,642.1,191.2,640.8,187.9z M697.2,69.7c1.7,1.1,2.5,2.8,4.3,3.6c1-0.8,1.9-1.7,2.8-2.4c-0.2-0.4-0.3-0.7-0.4-0.8
		c-1.6-1-3.4-1.3-5.2-1.4C698.3,68.7,697.8,69.3,697.2,69.7z M625.1,56.3c-0.4-2.5-1.3-4.2-3.2-5.5c-0.4,0.3-0.8,0.5-0.9,0.7
		c-0.4,1.2-0.1,2.3,0.5,3.3c0.5,0.8,0.9,1.7,1.9,1.8C624,56.7,624.4,56.5,625.1,56.3z M620.4,56.5c-0.3,1.5-0.6,2.7-1,4.2
		c1.6,0.2,3,0.4,4.6,0.5c0.1-0.9,0.3-1.7,0.4-2.3C623.1,58.1,621.9,57.4,620.4,56.5z M509.7,31c-1.1,0.6-1.8,1-2.4,1.5
		c-0.7,0.6-0.6,1.4-0.3,2.3c0.3,0.8,0.9,1,1.6,1.1c1.9,0.2,2.8-0.9,2.2-2.8C510.6,32.5,510.2,31.9,509.7,31z M635.3,53.9
		c-0.4,1.6-0.3,2,1.2,5.3c0.3,0,0.7,0.1,1,0.1c0.2,0,0.4-0.2,0.5-0.3C637.2,55.3,637.2,55.3,635.3,53.9z M637.9,188.3
		c1.2,0.1,1.7-0.4,1.6-1c-0.2-2.2-0.3-4.5-2.1-6.5c0.2,1.3,0.4,2.4,0.4,3.5C638,185.7,637.9,186.9,637.9,188.3z M672.4,196.1
		c-0.7-0.6-1.4-1.2-2.4-0.8c-0.5,2-0.5,2,0.1,3.4C670.9,197.9,671.7,197,672.4,196.1z M649.9,138.1c0,0.1,0,0.2,0,0.3
		c2,0,3.9,0.1,5.9,0.1c0.8,0,1.5-0.1,2.3-0.2c0-0.1,0-0.2,0-0.3C655.3,138.1,652.6,138.1,649.9,138.1z M663.7,154.1
		c-0.8,0-1.4-0.1-1.9,0c-0.6,0.2-1.2,0.6-1.8,1c-0.4,0.2-1.1,0.1-1.1,1C660.7,156,662.3,155.9,663.7,154.1z M713.2,72.5
		c0,1.3,0,2.4,0,3.5c0,0.1,0.3,0.4,0.4,0.4c0.2,0,0.5-0.1,0.6-0.2C714.8,74.9,714.6,74.1,713.2,72.5z M644.4,171.3
		c0.1,0.1,0.1,0.3,0.2,0.3c0,0,0.2,0,0.3-0.1c0.5-0.5,1.2-1.1,1.6-1.7c0.3-0.4,0-0.8-0.5-1C644.9,169.3,644.7,170.4,644.4,171.3z
		 M654.2,140.2c0,0,0.1,0.1,0.1,0.1c1.2,0,2.4,0,3.6,0c0,0,0-0.1,0-0.1C656.6,140.2,655.4,140.2,654.2,140.2z M710.9,75
		c-0.5,1.3-0.8,1.9-1,2.5c0,0.1,0.3,0.3,0.4,0.4c0.2,0,0.5-0.1,0.5-0.2C710.9,77,710.9,76.4,710.9,75z M684.4,163.9
		c-0.1-0.2-0.1-0.2-0.2-0.3c-0.2,0.2-0.4,0.4-0.6,0.6c0,0,0.1,0.2,0.1,0.2C684,164.2,684.2,164.1,684.4,163.9z M711.3,72.7
		c0.1-0.3,0.3-0.5,0.2-0.6c0-0.2-0.2-0.4-0.4-0.5c-0.1,0-0.3,0.2-0.4,0.3C710.9,72.1,711.1,72.4,711.3,72.7z M662.6,139
		c0-0.1,0-0.1,0-0.2c-0.5,0-1,0-1.5,0c0,0.1,0,0.1,0,0.2C661.6,139,662.1,139,662.6,139z M661.7,137.5c-0.1,0-0.2-0.1-0.3-0.1
		c0,0-0.1,0.1-0.1,0.2c0.1,0,0.2,0.1,0.3,0.1C661.7,137.7,661.7,137.6,661.7,137.5z M629.5,62.9c-0.1-0.1-0.2-0.3-0.3-0.4
		c-0.1,0.1-0.2,0.2-0.2,0.2c0,0.2,0.1,0.4,0.2,0.5C629.3,63.1,629.4,63,629.5,62.9z M664.4,138.2l0,0.2l0.3-0.1L664.4,138.2z
		 M649.9,570.2c0.1,0,0.2-0.1,0.3-0.1c-0.1-0.1-0.2-0.2-0.2-0.2c-0.1,0-0.2,0.1-0.3,0.2C649.7,570.1,649.8,570.1,649.9,570.2z"/>
	<path d="M213.1,561.1c0.7-0.1,1.4-0.2,2.1-0.3c1-1.9,1.7-3.7,1.1-5.9c-0.3-1.2-0.2-2.5,0-3.8c0.3-2,0.2-3.9,0-5.9
		c-0.4-3.7-0.7-7.4-1.2-11.1c-0.1-1.3-0.4-2.5-0.8-3.7c-1.5-4.9-2.5-9.9-2.8-15c-0.3-5.1-0.6-10.2-0.7-15.3c0-4.8,0.9-9.5,2.5-14
		c1.2-3.3,2.6-6.5,3.6-9.8c1.4-5,3.7-9.7,5.2-14.7c1.9-6.1,2.7-12.2,1.4-18.5c-0.3-1.4-0.7-2.7-1.2-4c-2.9-7-4.7-14.3-6.2-21.7
		c-0.9-4.3-1.6-8.7-1.6-13.1c0-2.4-0.4-4.8-1-7.2c-1.2-4.6-1.5-9.4-1.5-14.2c0-4.9,0.2-9.7,0.5-14.6c0.2-3.6,0.1-7.2-0.4-10.8
		c-1.1-7.8,0-15.2,2.7-22.5c0.6-1.7,1.3-3.4,1.8-5.2c0.5-2,1.6-3.9,2.7-5.6c1.8-2.8,3.7-5.6,5.7-8.3c1.1-1.4,1.6-3.4,3.4-4.3
		c0.4-0.2,0.6-1,0.7-1.5c1.2-5.6,2.4-11.1,2.3-16.9c0-2.2-0.4-4.3-1.3-6.4c-1.8-4.3-4-8.4-6.3-12.4c-2.8-4.8-5.3-9.8-6.7-15.2
		c-0.4-1.5-0.9-2.9-1.4-4.3c-0.5-1.2-1-2.4-1.7-3.4c-2.3-2.7-3.6-5.9-5-9.1c-0.3-0.6-0.6-1.2-1-2c-1.9,2-3.5,3.9-5.3,5.7
		c-5.8,5.5-12.5,9.1-20.7,9.5c-5.7,0.3-11.3-0.5-16.8-2.4c-2.1-0.7-4.2-1.5-6.2-2.3c-3.9-1.6-7.3-4-10.3-7
		c-4.1-4.2-7.1-9.1-9.3-14.5c-2.7-6.7-3.6-13.6-4-20.7c0-0.9-0.1-1.8-0.1-2.8c-0.9-0.9-2.2-0.9-3.3-1.1c-7.1-1-14.2-2-21.4-3
		c-2.2-0.3-4.3-0.9-6.5-1.4c-0.5-0.8-1.1-1.5-1.5-2.3c-0.9-1.8-0.4-3.5,1.3-4.5c1.5-0.9,2.9-1.5,4.9-0.9c2.4,0.7,5,0.9,7.5,1.2
		c6.5,0.9,13.1,1.9,19.8,2.8c0.3-0.6,0.7-1.2,0.8-1.8c1.5-7.1,4.2-13.8,8.2-19.8c5.1-7.7,11.8-13.3,20.8-16c3.3-1,6.6-1.2,10-1
		c6,0.3,12,1.2,17.7,3.5c5.4,2.1,10,5.4,13.7,9.8c6.3,7.5,9.8,16.2,10.8,25.9c0.3,2.9,0.4,5.8,0.6,8.7c0,0.3,0,0.7,0.1,1
		c0.2,1,0.7,1.6,1.8,1.8c0.3,0.1,0.7,0.1,1,0.1c0.3,0,0.7-0.1,1.1-0.1c0.9-1.8,0.4-3.6,0.6-5.6c-1.5,1-0.8,3-2.4,4
		c-0.1-0.5-0.2-0.9-0.1-1.3c0.2-1.4,0.3-2.8,0.6-4.1c1.1-5,0.5-9.9-1.1-14.7c-1.4-4.2-2.6-8.4-3.3-12.8c-0.2-1-0.7-1.9-1.1-2.9
		c-0.8-2.5-1.7-5-2.5-7.6c-0.9-3.1-0.1-5.9,1.4-8.7c1-1.7,1.8-3.5,2.7-5.2c0.2-0.3,0.3-0.6,0.4-1c1.4-3.5,4.1-4.8,7.8-4.6
		c1.6,0.1,3.2,0.3,4.9,0.4c0.6,0,1.2,0.1,1.7,0.1c2.4-2.1,4.8-4.1,7.1-6.2c1.4-1.3,3.2-1.8,5-2.2c6.4-1.3,12.7-0.9,18.9,0.9
		c1.6,0.4,3.1,0.8,4.7,1.3c3.5,1.2,6.5,3.2,8.2,6.6c1.7,3.3,3.2,6.7,4.6,10.1c1.2,3,1.1,5.9-0.9,8.6c0.2,0.5,0.6,1.1,0.5,1.3
		c-1.2,1.5-0.3,2.9,0.3,4.2c0.5,1,1.2,2,1.8,3c1.5,2.2,1.3,3.5-0.9,5.3c-0.3,0.3-0.7,0.6-1,0.8c0.5,3.7,0.5,3.7-0.6,5.6
		c0.5,1.1,1.1,2.4,0,3.7c-0.2,0.3-0.1,0.9,0,1.3c0.1,0.6,0.3,1.1,0.4,1.7c0.2,2-0.6,3.5-2.4,4.1c-2.4,0.8-4.8,1.7-7.5,0.9
		c-1.4-0.4-2.9-0.4-4.4-0.6c-0.7,1.8-0.5,3.5-0.2,5.2c0.6,3.8,1.3,7.5,1.9,11.3c-0.7-0.4-1.3-0.9-1.6-1.8c-1.3-3.6-2.1-7.3-2.4-11.2
		c-0.1-0.9,0.1-1.8,0.3-2.7c0.2-1,0.9-1.7,1.9-1.7c1.6-0.1,3.3-0.3,4.8-0.1c2,0.3,3.9,0,5.8-0.5c1.8-0.5,2.5-1.6,2.1-3.3
		c-0.2-0.8-0.5-1.5-0.8-2.3c0.5-0.8,1-1.5,1.5-2.2c-1.3-1.4-1.3-1.4-2.2-1.5c-0.8,0-1.6,0.1-2.4,0c-0.5-0.1-1.1-0.2-0.9-1.1
		c1.8-0.6,4.3,0.9,5.8-1.6c-0.2-0.6-0.6-1.2-0.8-1.8c-0.2-0.6-0.2-1.3-0.3-1.9c-0.7-0.1-1.1-0.1-1.8-0.2c0.6-1.2,1.4-1.9,2.5-1.4
		c1.2,0.5,1.9,0,2.7-1c-0.4-0.7-0.7-1.4-1.2-2.1c-1.4-2.1-2.5-4.4-3.1-6.9c-0.4-1.7-0.3-3.2,1.3-4.3c0.5-0.3,0.8-1,1.1-1.4
		c-1-3.2-2-6.2-2.9-9.2c-0.3-0.9-0.5-1.8-1-2.6c-0.6-1-1.5-1.7-2.9-1.1c-1,0.4-2.2,0.5-3.5,0.8c-0.6-0.3-1.4-0.7-2.3-1
		c-0.4-0.1-0.9,0.1-1.3,0.2c0.1-1.4,0.1-1.4-1.3-1.5c-0.2-0.8-0.8-0.7-1.4-0.7c-0.2-0.2-0.4-0.6-0.6-0.7c-2.1-0.9-4.1-2.1-6.5-2.2
		c-2.4-1.6-5.1-1.1-7.7-1.2c-0.8,0-1.6-0.1-2.4-0.2c-0.7-0.1-1.5,0-2.3-0.4c0.6-0.5,1.1-0.9,1.7-1.4c-2.4-0.5-4.3-0.2-5.5,1.9
		c0.2,0.2,0.4,0.4,0.5,0.4c2.5,0.5,5,1,7.4,1.5c2,0.4,4,1,6.1,0.3c0.7-0.2,1.6-0.1,2.4,0c0.3,0,0.5,0.4,0.8,0.6
		c-0.2,0-0.4,0-0.7,0.1c-0.1,0-0.2,0.1-0.3,0.1c0.1,0.1,0.3,0.3,0.4,0.2c0.2-0.1,0.3-0.3,0.4-0.5c1.2,0.3,2.4,0.5,3.7,0.8
		c0.9,0.2,1.8,0.4,2.6,0.6c0.2,0.8,0.8,0.8,1.4,0.7c0,0.9,0.9,1,1.3,1.5c-0.4,0.4-0.8,0.8-1.3,1.3c-3.5-1.7-6.7,0.3-10.2,0.5
		c1.4,0.4,2.8,0.8,4.9,1.4c-3,1.3-5.4,1.7-8.1,1.4c0.4-0.8,0.6-1.5,1-2.4c-2.5-1-5.2-1.4-7.9-1.9c-2.8-0.5-5.6-0.9-8.4-1.3
		c0-0.9,0.5-1.4,1.2-1.5c0.7-0.1,1.4-0.1,2.1,0c3.2,0.7,6.3,1.4,9.5,2.1c0.9,0.2,1.9,0.5,2.7,0.2c1.3-0.4,2.5-0.2,3.7,0
		c0.6,0.1,1.3,0,2.3,0c-0.7-0.4-1.1-0.6-1.4-0.8c0.1-0.3,0.2-0.6,0.3-0.9c-0.5-0.1-0.9-0.1-1.4-0.2l0.1,0.1
		c-0.4-0.8-1.1-0.8-1.8-0.8c-0.9,0-1.9,0.1-2.7-0.2c-1.1-0.4-2.2-0.4-3.4-0.5c-1.3-0.1-2.5-0.2-3.8-0.3c-1.6-0.1-3.2-0.3-4.8-0.3
		c-0.6,0-1.4,0.2-1.9,0.6c-1.5,1.2-3.1,2.4-4.3,4.2c0.6,0.6,1.2,1.1,1.7,1.6c-0.6,0-1.2-0.1-2-0.1c1.3,1.8,1.3,1.8,4,2.9
		c1.7,1.1,3.6,1.9,5.7,2c0,0.3-0.1,0.5-0.1,0.8l0.1-0.1c-3.9,0.2-6.9-2.1-10.4-3.9c-0.2,0.5-0.4,0.9-0.4,1.3c0,0.4,0.2,0.9,0.4,1.3
		c-0.6,0-1.1,0.3-1.2,1c-0.2,1.2-0.5,2.5,0,3.7c1,0.9,2.2,1.6,3.5,2c0.1-0.4,0.1-0.7,0.2-0.9c2.6,0.8,5.3,1.6,7.9,2.3
		c2.2,0.6,4.4,1.2,6.6-0.2c0.5-0.3,1.4-0.1,2-0.4c1.4-0.5,3-0.5,4.6-2.1c-1.4,0.3-2.3,0.5-3.2,0.6c-1.7,0.3-3.4,0.4-5-0.6
		c-1.3-0.8-2.8-0.9-4.4-0.7c0-0.3,0-0.5,0-0.8c2.9,0.1,5.7,0.2,8.5-1c-2.6-1.5-5.7-0.9-8.2-2.3c-0.3-0.1-0.7,0-1,0
		c-1.6-1.6-3.4-2.3-5.7-2c0.3-0.5,0.5-1.1,0.8-1.6c2.6,0.9,5.2,1.9,7.8,2.8c2,0.7,4,0.9,6.1,0.3c1.3-0.4,2.9-0.4,4-1.1
		c1.4-0.9,2.8,0.3,4.1-0.2c0.2-0.1,0.4-0.3,0.7-0.4c0.2-0.7,0.3-1.4,0.5-2.2c0.4,0.6,0.5,1.1,0.4,1.6c-0.4,2.2-0.4,4.5-2.1,6.4
		c-0.7,0.8-0.7,2.1-1.2,3.4c-2.8,2.1-5.7,4.7-9.6,6.7c1.5-0.1,2.5-0.2,3.6-0.3c-0.5,1.1-1.3,1.6-2.2,1.6c-0.8,0-1.6-0.3-2.3-0.7
		c-0.8-0.6-1.5-1.4-2.2-2.1c-2-2.2-3.3-2.2-5,0.2c-0.8,1.1-1.6,2.3-1,4c0.6-1.2,1-2.1,1.5-3c0.6-1,1.4-1.3,2.3-0.7
		c0.8,0.5,1.5,1.1,2.2,1.7c1,0.8,1.3,1.9,1,3.1c-0.1,0.4-0.2,0.9-0.3,1.2c0.8,0.7,1.4,1.3,2,1.9c-0.9,1.6-0.9,1.6-2.1,2
		c-0.5-1.3-1-2.6-1.4-3.8c0.3-0.8,0.6-1.5,0.8-2.3c0-0.3-0.5-0.6-0.8-1c-0.7,0.9-1.3,1.6-1.6,2.1c-0.6,2.4,1.5,3.5,1.9,5.5
		c-0.6,0.1-1.1,0.3-1.4,0.2c-0.7-0.3-1.4-0.7-2.1-1.1c0.1-1.2-0.1-2.3-0.6-3.4c-0.6,0-1.1,0-1.7,0c-0.1,0-0.1,0.2-0.3,0.4
		c0.6,1.2,1.3,2.3,2.6,3c0,0.2-0.1,0.5,0,0.7c1.1,1.5,2.1,3.1,3.2,4.5c0.4,0.5,1.1,0.7,1.6,1c0.7-0.4,1.2-0.7,1.9-1.1
		c0.1,2.4-0.1,2.6-3.7,2.6c-0.6-0.8-1.2-1.6-1.9-2.5c-1-0.2-2-0.5-3-0.6c-0.9-0.2-1.7-1.1-3-0.7c0.5,1,0.8,1.9,1.3,2.7
		c0.1,0.2,0.6,0.2,0.9,0.3c0.1,0.1,0.1,0.2,0.2,0.3c-0.1-0.1-0.2-0.2-0.3-0.2c0.1-0.1,0.1-0.3,0.2-0.3c1.1-0.2,2.6,0.2,4,0.9
		c-0.1,1.5-2,1.4-2.6,2.8c0,0.7,0,1.7,0.1,2.6c0.3,2.3,0.2,4.6-0.2,6.9c-0.5,3.7-1.2,7.3-5,10.1c4,1.8,7.8,2.9,10.4,5.4
		c0.6,0,0.8,0.1,1,0c4.9-1.1,9.7-0.2,14.5,0.1c1.3,0.1,2.5,0.5,3.3,1.7c0.3,0.4,0.8,0.9,1.3,1.1c2.4,0.8,4.9,0.8,7.9,1.1
		c-1.8-2-4.2-2.6-5.2-4.6c2.5,0.1,4.4,1.5,5.9,3.3c1.4,1.7,3,2.3,5.1,2.5c4,0.4,8,1.1,12.1,1.6c1.7,0.2,3.4,0.4,5.1,0.7
		c2.3-3.8,3.8-5.1,8.7-2.6c0.3-0.5,0.8-1.1,1-1.7c2.1-5.9,5.5-11,9.9-15.4c1.8-1.8,3.9-3.3,6.2-4.5c3.3-1.7,6.8-2.8,10.5-3.5
		c4.1-0.8,8.3-1.3,12.4-0.6c9.9,1.7,18.6,5.6,24.9,13.8c5.5,7.1,8.3,15.2,9.1,24.1c0.1,0.8,0.2,1.6,0.2,2.6c0.9,0.2,1.8,0.4,2.7,0.6
		c3.1,0.4,6.2,0.8,9.3,1.3c1.8,0.2,3.5,1.9,3.9,3.5c0.2,1-0.1,1.8-0.6,2.6c-0.1,0.2-0.3,0.4-0.4,0.5c-0.5,0.6-1,1.3-1.4,1.8
		c-4.9-0.7-9.4-1.3-14-1.9c-0.3,0.8-0.6,1.5-0.8,2.2c-1.2,6-3.9,11.4-7.4,16.4c-2.8,4-6.7,7.1-11,9.5c-3.6,2-7.5,3.2-11.6,3.5
		c-1.1,0.1-2.3,0-3.5,0c-1.6-0.1-3.2-0.2-4.8-0.4c-1-0.1-2-0.4-3.1-0.6c-0.8-0.2-1.6-0.5-2.4-0.6c-1.2-0.2-2.5-0.3-3.9-0.5
		c-0.1,1-0.1,1.9-0.2,2.9c-0.2,3.7-0.3,7.4-0.5,11.1c-0.2,3.2-0.4,6.5,0.4,9.7c0.2,1,0,2.1-0.2,3.1c-0.4,1.3-1.3,2.1-2.7,2.4
		c-4,0.9-7.8,0.4-11.4-1.5c-4.5-2.5-8.6-5.5-12.6-8.7c-1.9-1.5-3.5-3.4-5.2-5.1c-0.7-0.7-1.4-1.5-2.3-2.6c-0.3,0.7-0.5,1.2-0.7,1.7
		c-0.1,0.4-0.1,0.9-0.1,1.4c-0.1,5.7-2.2,10.9-5.1,15.7c-0.8,1.4-1.2,2.8-1.3,4.3c-0.1,2.1-0.3,4.2-0.2,6.3c0.2,6.1-0.3,12.1-1.6,18
		c-0.3,1.4-0.3,2.7-0.1,4.1c0.3,2.1,0.2,4.4,0.2,6.6c0,1.1,0,2.1,0.4,3.1c1,2.3,1.3,4.7,1.2,7.2c-0.1,3.6,0.8,6.9,2,10.2
		c1.8,4.9,3.2,9.9,3.9,15.1c0.1,1,0.3,2.1,0.3,3.1c0,7,1,13.9,1.7,20.8c0.2,2.3,0.2,4.6-0.5,6.9c-0.3,0.9-0.3,1.8-0.4,2.7
		c-0.4,6.1-1,12.2-2.1,18.3c-0.1,0.5-0.1,0.9-0.2,1.4c-1.3,3.4-1.3,7.1-1.8,10.6c-0.4,2.5-0.8,5-1.2,7.3c0.2,1.4,0.6,2.6,0.5,3.8
		c-0.3,3.2-0.7,6.4-1.2,9.7c-0.2,1.3-0.4,2.5-0.2,3.8c0.3,2.2-0.8,4-2.3,5.7c-0.5-1.5,0.2-2.4,0.6-3.5c0.3-1,0.7-1.9,0.9-2.4
		c-0.2-1.9-0.4-3.3-0.4-4.7c0-1,0.2-2.1,0.2-3.1c0.1-2.7,1-5.5-0.1-8.2c0.3-2.7,0.4-5.3,0.8-7.9c0.6-3.5,1.4-7,2-10.6
		c0.8-5,1.7-10.1,2.3-15.1c0.4-3.2,0.2-6.5,0.2-9.7c0-1-0.1-2.1,0-3.1c0-4.5,0.1-9-0.7-13.5c-0.4-2.3-0.5-4.6-0.7-6.9
		c-0.1-1-0.4-2-0.7-3.1c-3.7,0.1-7,1-10.4,1.6c-4.6,0.8-9.2,1.4-13.8,1.3c-0.9,0-1.9,0-2.8,0.2c-1,0.2-2,0.5-3.1,0.7
		c-0.2,0.8-0.4,1.4-0.6,2.1c-1.9,8.4-1.4,16.8-1.4,25.3c0,3.4,0.2,6.7-0.3,10.1c-0.2,1.2,0,2.5-0.1,3.8c-0.1,2.4-0.3,4.9-0.3,7.3
		c0,1.5,0,3,0.3,4.5c0.5,2.4,1.2,4.7,1.8,7.1c0.3,1.5,0.6,2.9,0.9,4.4c0.7,5,1.2,10.1,2.2,15.1c0.6,2.9,1,5.9,3,8.4
		c0.6,0.7,0.5,2,0.7,3c0.1,0.8,0.2,1.6-0.9,2.2c-0.4-1.6-0.7-3.2-1.1-4.7c-1-0.2-1.5,0.4-1.7,1.2c-1.4,4.2-2.9,8.3-4.1,12.5
		c-1.9,6.4-2.5,12.9-3.2,19.5c-0.4,4.4,0,8.5,1,12.7c1.2,4.9,1.3,9.8,1.1,14.9c-0.3,7-1.2,13.9-2.1,20.8c-0.3,2.6-0.7,5.2-2,7.8
		c0.3,0.5,0.6,1.1,1.1,1.6c1.9,2.1,2.6,2.6,5.3,0.8c2-1.3,4.2-2.4,6.3-3.6c0.7-0.4,1.2-0.9,1.5-1.7c0.6-1.2,1.5-2.3,2.4-3.6
		c0.1-6.4,1.9-12.7,3.4-19c0.8-3.5,1.6-7,2.4-10.5c0.1-0.6,0.2-1.2,0.5-1.7c1.3-1.8,1.5-3.9,1.8-5.9c0.5-2.7,1.2-5.3,2.5-7.9
		c1.3-2.5,1.8-5.5,2.1-8.4c0.1-0.6,0.1-1.2,0.2-1.7c0.6-3.3,0.8-6.6,0.7-10c-0.1-3.8,0.3-7.6,0.7-11.4c0.2-1.9,0.7-3.8,1.4-5.6
		c0.9,0,0.8,0.6,0.7,0.9c-0.4,2.9-0.5,5.8-0.4,8.7c0,1.3-0.1,2.5-0.2,3.8c-0.1,2.5-0.1,5.1-0.2,7.6c0,0.5,0,0.9,0,1.4
		c-0.5,6.7-1.8,13.3-4.4,19.6c-0.9,2.3-1.6,4.6-1.9,7c-0.2,1.8-0.8,3.6-1.1,5.4c-1.7,8.2-3.3,16.3-4.9,24.5c1,0.9,2.1,1.5,2.7,2.3
		c0.7,0.9,1,2.1,1.5,3.1c0.4,0.8,0.9,1.6,1.5,2.3c2.4,2.5,5.1,4.8,7.1,7.6c2,2.6,4.5,3.8,7.4,4.7c0.9,0.3,1.8,0.6,2.6,0.9
		c1.5,0.7,3.1,0.8,4.7,0.9c2.5,0.2,5.1,0.5,7.6,0.9c3.2,0.6,4.5,2.4,4.4,5.6c0,0.3-0.1,0.7-0.1,1c-0.1,0.7-0.2,1.4-0.1,2.1
		c0.1,0.7,0.3,1.3,0.5,2c-1.6,2-3.5,3.5-5.7,4.5c-3.2,1.5-6.6,3-10.2,3.2c-3,0.1-6,0.1-9-0.1c-4.3-0.2-8.5-1.2-12.7-2.1
		c-0.9-0.2-1.8-0.1-2.7-0.2c-1.1-0.1-2-0.5-2.1-2c2.1-0.3,4.2-0.3,6.2,0c1.1,0.2,2.3,0.3,3.4,0.7c3.1,1,6.2,0.5,9.3,0.4
		c2.3-0.1,4.7-0.4,6.9-0.1c3.6,0.5,6.9-0.1,10.1-1.9c1.9-1.1,3.7-2.3,5.2-3.8c-0.6-2.3-1.2-4.4-1.8-6.6c-0.5-0.2-1-0.6-1.5-0.7
		c-2.9-0.4-5.7-0.9-8.6-1.1c-1.5-0.1-3-0.2-4.4-0.9c-0.5-0.3-1.1-0.5-1.6-0.6c-2.4-0.8-4.7-2.2-7.2-1.5c-0.5-0.7-0.8-1.2-1.1-1.7
		c-0.2,0-0.5-0.2-0.7-0.1c-1,0.2-2,0.6-3,0.8c-0.8,0.2-1.4-0.2-1.6-0.9c0.2-1.7,2-1.3,2.9-2.1c0.3-1-0.5-1.1-0.8-1.4
		c-1.9,0.2-3.6,0.4-5.4,0.5c-0.3,0-0.9-0.5-0.9-0.8c-0.1-0.3,0.3-1,0.6-1.1c1.2-0.4,2.4-0.7,3.7-1.1c-0.5-0.7-0.9-1.2-1.5-1.9
		c-0.7,0.3-1.3,0.5-1.9,0.7c-1.1,0.4-2.1,0.9-3.2,1.4c-0.8,0.3-1.6,0-1.8-0.5c-0.2-0.8,0.1-1.5,0.8-1.8c1.3-0.6,2.8-1.1,4.2-1.6
		c-1.2-1.9-2.4-3.8-3.7-5.9c-2.1,1.6-4,3-4.5,5.9c-3.2,1.9-6.4,3.9-9.7,5.9c-1.5,0.9-2.9,0.8-4.2-0.3c-2-1.6-3.8-3.5-3.7-6.4
		c-1.3,0.4-1.7,1.6-1.9,2.4c-0.5,2.4-1.9,4.2-3.5,5.8c-0.2,0.2-0.4,0.6-0.6,1c1.9,1.1,3,2.8,4,4.7c0.5,1,1.3,1.9,2,2.8
		c1.4,1.5,2.8,3.1,4.4,4.4c2.2,1.8,4.6,3.1,7.4,3.7c1.8,0.4,3.7,0.5,5.3,1.3c0.9,1.3,1.1,2.6,0.7,4.1c-0.2,0.5-0.3,1.2-0.2,1.7
		c0.4,1.8-0.4,2.9-1.6,3.9c-1.9,1.6-3.9,3.1-6.7,3.3c-2.6,0.1-5.3,0.9-7.8,1.5c-5,1.3-10.1,1.1-15.2,0.6c-2.9-0.3-5.7-0.7-8.6-1.1
		c-2-0.3-3.8-1-5.3-2.4c-0.5-0.5-1.1-0.8-1.8-1.4c-6.9,1-13.4-0.5-19.7-3.4c-0.1-0.1-0.2-0.3-0.1-0.3c1.1-4,1.2-8.2,2.9-12.1
		c1.5-3.4,2.5-7,3.6-10.5c0.2-0.8,0.2-1.6,0.5-2.4c0.5-1.5,0.9-3.1,1.6-4.6c0.5-1.1,1.4-1.8,2.6-2.2c0.4-0.1,0.3-0.1,1.3,0.8
		C214.6,559.7,213.9,560.5,213.1,561.1c-1,1.6-1.7,3.2-1.5,5.2c0.2,1.9-0.3,3.9-1.4,5.3c-1.6,1.9-1.8,4.2-2.4,6.4
		c-0.2,0.8-0.4,1.6-0.7,2.3c-1.1,2.8-1.4,5.8-1.8,8.7c4.6,2.3,13.3,3.7,14.5,2.5c-0.2-0.5-0.3-1-0.5-1.5c1.5-0.6,2.7-0.2,3.9,0.8
		c0.8,0.8,1.8,1.4,2.6,2.2c1.6,1.5,3.5,2.1,5.7,2.3c1.1,0.1,2.3,0.3,3.4,0.5c4.2,0.7,8.5,1.2,12.8,0.7c4-0.4,8-1.3,12-2
		c3.6-0.6,6.4-2.7,8.7-5.4c0.7-0.8,0.7-1.4-0.2-2c-3.7,1.3-7,3.1-9.9,5.7c-0.3,0.2-0.6,0.4-0.9,0.5c-0.3,0.2-0.7,0.6-1-0.1
		c1-1,2-1.9,3-2.9c1.6-1.7,3.4-3.1,5.7-3.8c1.1-0.3,2.1-0.9,3.4-1.4c-0.7-0.4-1-0.8-1.4-0.9c-1.5-0.3-3-0.6-4.4-0.8
		c-1.7-0.3-3.3-0.7-4.8-1.8c-1.9-1.5-4-2.7-6-3.9c-1,0.4-1.9,0.8-2.7,1c-1.5,0.4-2.9,0.7-4.4,0.9c-0.8,0.1-1.7,0-1.9-1.3
		c2.2-1.8,5.1-1.5,7.7-2.1c-0.3-1.5-1.2-2.3-2-3.2c-3.8,0.1-7.1,2.3-10.8,2c-0.1-0.4-0.3-0.7-0.3-0.9c0.6-2,2.9-1.8,4.2-3
		c-0.6,0-1-0.1-1.4,0c-1.6,0.3-3.1,0.8-4.7,1.1c-0.3,0.1-1-0.3-1.1-0.6c-0.1-0.3,0.1-0.9,0.3-1.2c0.5-0.5,1.1-0.9,1.8-1.1
		c1.6-0.6,3.3-1,5-1.5c0.5-0.1,1.2-0.1,1.2-0.8c-1-1.1-2.2-1.2-3.5-0.7c-2.3,0.9-4.6,1.7-6.8,2.6c-0.6,0.2-1.1,0.2-1.3-0.5
		c0.4-1.3,1.5-1.7,2.6-2.2c1.4-0.6,2.8-1.1,4.2-1.7c0.5-0.2,0.9-0.6,1.6-1c-2.8-2.1-2.7-5.5-4.4-7.9c-1.5-0.3-2.7,0.3-3.7,1.1
		c-1.4,1.1-2.8,2.4-4.1,3.7c-1.4,1.5-2.5,3.4-4.1,4.7c-1.5,1.1-2.8,2.4-4.2,3.6c-0.5,0.5-1.1,0.9-1.7,1.2c-1.1,0.7-2.4,0-2.6-1.3
		c-0.1-0.8,0-1.7-0.4-2.3C213.3,564.8,213.1,563,213.1,561.1z M342.8,222.1c0.1,0.4,0.3,0.8,0.8,0.7c-0.1,0.6-0.2,1.2,0.6,1.5
		c0.2,1.1,0.3,2.3,0.5,3.4c0.5,4,0,7.7-3.1,10.7c-0.2,0.2-0.3,0.5-0.5,0.9c0.4,0.1,0.7,0.2,1,0.3c-0.4,0.8-1.2,1.1-2,1.2
		c-2.3,0.4-4.6,0.6-6.9,0.2c-3-0.5-5.4-1.8-7.3-4.2c-0.4-0.5-0.5-1.3-1.4-1.3c-0.1-0.8,0.5-1.9-1.1-2.7c0.5,1.1,0.8,1.9,1.2,2.6
		c0,0.3-0.1,0.7,0,1c1.6,4.8,2.4,9.7,3.2,14.6c1,5.5,2.3,10.9,2.2,16.5c0,0.3,0.2,0.6,0.3,0.9c5,2.2,14.3,0.9,19.3-1.6
		c4.4-2.2,8.2-5.3,11.3-9.1c9.6-12,11.2-25.6,7.1-40c-1-3.7-2.7-7.1-4.8-10.4c-4.3-6.7-10.2-11.3-17.7-13.8
		c-5.5-1.8-11-1.5-16.3,0.5c-2.7,1-5.3,2.2-8,3.4c-0.6,0.3-1.2,0.7-1.7,1.1c-1.5,1.3-3,2.5-4.3,4c-3.5,4.1-6.3,8.6-8,13.7
		c-0.2,0.6-0.3,1.3-0.5,1.9c0.5,0.2,0.8,0.4,1.1,0.5c2.8,0.7,5.5,1.6,7.8,3.5c0.3,0.3,0.8,0.4,1.3,0.5c2.7,0.4,5.4,0.8,8.1,1.2
		c2.4-4.7,5.9-6.9,11.1-6.2c4.4,0.6,7.9,2.5,9.8,6.8c1.5,3.2,1.4,6.5,0.8,9.9c-0.2,1.1-0.8,1.9-1.9,2.3c0.4-1.6,1-3.3,1.2-4.9
		c0.2-2.7,0-5.4-1.9-7.6c-0.2-0.5-0.4-1-0.6-1.5C343.2,222.6,343,222.4,342.8,222.1c-0.1,0-0.2,0-0.3-0.1
		C342.6,222,342.7,222,342.8,222.1z M234.9,176.8c0,0.2,0.1,0.4,0.1,0.6c0.1-0.1,0.3-0.1,0.4-0.2C235.2,177.1,235,177,234.9,176.8
		c-0.1,0-0.2-0.1-0.2-0.2c0,0-0.1,0-0.2,0C234.6,176.7,234.8,176.7,234.9,176.8z M268.8,145.7c0.1-0.5-0.2-0.8-0.7-0.8
		c-0.2-1-1.1-1.2-1.9-1.5c-0.5-0.2-1-0.4-1.5-0.6c-0.1-0.1-0.1-0.1-0.2-0.2c0.1,0,0.2,0.1,0.3,0.1c0.5,0.2,1,0.4,1.5,0.6
		c0.2,0.5,0.4,1,0.5,1.5c-0.1,0-0.1,0.1-0.2,0.1c0.1,0,0.1-0.1,0.2-0.1c0.5,0,0.9,0,1.4,0.1C268.5,145.1,268.7,145.4,268.8,145.7
		c0.3,0.1,0.6,0.3,0.9,0.5c0.1,0.4,0.2,0.8,0.4,1.1c0,0,0.4-0.1,0.6-0.1c0,0,0-0.2,0-0.3c-0.2-0.4-0.5-0.7-1-0.6
		C269.4,146.1,269.1,145.9,268.8,145.7z M259.8,138.6c-0.7,0-1.4,0.1-2.4,0.2C258.6,139.2,259.3,139.4,259.8,138.6
		c0.2-0.1,0.5-0.2,0.3-0.1C260.3,138.4,260.1,138.5,259.8,138.6z M264.1,139.3c-0.4-0.5-0.9-0.9-1.5-0.2c0.2,0.1,0.4,0.2,0.7,0.2
		C263.5,139.3,263.8,139.2,264.1,139.3c1.1,1,1.1,1,2.4,1C265.9,139.3,265,139.3,264.1,139.3z M311.4,259.1c0-0.1,0-0.2,0-0.3
		c0-0.1-0.1-0.1-0.2-0.1C311.3,258.8,311.3,258.9,311.4,259.1c0,0.9,0.3,1.6,1.1,2.2C312.8,259.7,312.8,259.6,311.4,259.1z
		 M220.8,148.9c1.6-0.2,1.8-0.4,2.2-2c1.4,0,2.8-0.1,4.1-0.1c1.4,0,2.7,0.3,3.6,1.6c-0.6,0.2-1.2,0.5-1.8,0.6
		c-1.1,0.2-2.1,0.4-3.2,0.6l0.1,0.1c-0.1-0.5-0.4-0.8-1-0.8c-3,0.4-5.5,2-7.1,4.5c-2,3-2.9,6.6-2.1,10.3c0.6,2.5,1.2,4.9,2,7.4
		c0.6,2,1.6,3.9,1.9,5.9c0.3,2.1,0.8,4.1,1.5,6c0.7,2,1.5,3.9,2.2,5.9c0.3-1,0.2-1.9,0.1-2.8c-0.6-3.5-1.1-7.1-1.7-10.6l-0.1,0.1
		c0.3-0.1,0.6-0.2,1-0.3c0.3,1.4,0.7,2.7,1,4c0.3,1.5,0.5,3,0.7,4.5c0.2,1.4,0.5,2.7,0.6,4.1c0.2,1.5,0.2,3,0.3,4.5
		c0,1.4,0,2.8,0,4.2c0,1.5-0.1,3-0.1,4.5c0,1.3-0.5,2.6,0.2,4.1c0.4-0.5,0.7-0.9,1-1.2c0.5,2-1.3,3.6-0.8,5.8c0.9-0.4,1.6-0.7,2.2-1
		c0-5.1,0-10,0-15c-0.4,7.1-0.4,7.1-1.7,8.7c-0.4-2.4-0.1-4.5,0.1-6.7c0.1-2,0.3-3.9,0-5.9c-0.2-1.4-0.2-2.9,0.1-4.8
		c0.5,2.4,1,4.4,1.5,6.7c0.2-4.7,0.2-6.9-1.2-12.1c-1.6-6.3-1.4-12.6-1.2-19c0.1-3.5,1.4-6.8,4.1-9.3c0.9-0.8,1.4-1.8,1.3-3.1
		c0.9-0.3,1.1-1,0.8-2c-2.4-0.2-4.8-0.3-7.2,0c-0.4,0-0.7,0.4-1.1,0.6C222.3,147.6,221.6,148.3,220.8,148.9c0,0.2,0,0.2-0.1,0.3
		c0,0,0,0.1,0,0.1C220.7,149.2,220.8,149,220.8,148.9z M241,171.2c1.1,0.4,1.4-0.6,1.9-1.1c0.4-0.5,0.3-1.1-0.5-1.1
		C241.5,169.5,241.1,170.3,241,171.2C240.9,171.4,241,171.2,241,171.2z M307.3,252c0,0.1,0,0.2,0,0.3c0,0,0.1,0.1,0.2,0.1
		C307.4,252.3,307.3,252.2,307.3,252c-0.2-0.6-0.4-1.2-0.6-1.8c-0.3-0.6-0.6-1.2-0.9-1.8c-0.3-0.5-0.3-1.1-1.3-1.4
		c0.5,1.5,0.6,2.8,1.3,4C306.1,251.6,306.4,252.2,307.3,252z M262.7,214.4c0.1,0.1,0.1,0.1,0.2,0.2
		C262.8,214.6,262.7,214.5,262.7,214.4c-0.3-0.2-0.5-0.6-0.7-0.6c-2.2-0.3-4.5-0.7-6.9-0.3C257.7,214.3,260.2,214.9,262.7,214.4z
		 M232,179.6c0.1,0.1,0.2,0.1,0.2,0.2C232.2,179.8,232.1,179.8,232,179.6c0.3-1.5-0.2-2.9-0.7-4.3c-0.5-1.8-1.2-3.5-1.8-5.2
		c-0.2-0.6-0.5-1.3-0.6-2c-0.3-2.6-0.4-5.2-0.6-7.9c0-0.2,0-0.5-0.1-0.7c-0.1-0.2,0.3-0.8-0.5-0.6c-0.1,0.5-0.3,1.1-0.3,1.6
		c-0.2,5,0.6,9.9,2,14.7C229.9,176.9,230.6,178.6,232,179.6z M319.8,225.7c-0.2-0.2-0.4-0.3-0.1-0.1
		C319.3,225.5,319.5,225.5,319.8,225.7c0.1,0.3,0,0.7,0.2,0.9c1,1.2,2.1,2.4,3.2,3.7c3.7,1,7.7,0.6,11.4,2.2
		c0.4-0.3,0.9-0.4,1.2-0.8c1-1.2,0.9-2.4-0.2-3.3c-0.8-0.7-1.7-1.2-2.8-1.3c-3.1-0.4-6.2-0.9-9.3-1.3
		C322.3,225.6,321,225.7,319.8,225.7z M227.1,177.7c0-0.5-0.1-1.1-0.1-1.9C226.7,176.9,226.7,176.9,227.1,177.7
		c0.2,1.2,0.3,2.4,0.6,3.7c0.2,1.2,0.7,2.5,0.8,3.7c0.5,4.7,1.2,9.4,0.7,14.2c-0.2,2.4-0.2,4.9-0.3,7.3c0,0.5,0.1,0.9,0.8,0.9
		c1.2-2.2,1.3-4.8,2-7.8c0,2.5,0,4.4,0,6.3c1.1-0.2,1.6-0.7,1.6-1.6c0-2.9,0.6-5.7-0.7-8.5c-0.5-1-0.6-2.2-0.9-3.3
		c-1.4-4.7-2.8-9.3-4.2-13.9C227.6,178.1,227.3,177.9,227.1,177.7z M236.2,165.7c-1.9,0.4-3.3-0.7-4.7-1.5c-0.4-0.2-0.7-0.9-1.5-0.3
		c0.4,0.9,0.9,1.8,1.3,2.6l0,0c-0.5,0.5-0.8,1-0.5,1.8c0.8,2.6,2.7,4.2,4.7,5.8c0.1,0.1,0.2,0.3,0.2,0.5c-0.2,0.3-0.4,0.5-0.7,0.8
		c1.1,1,2.2,2,3.3,2.9c-0.5,0-1.1,0.1-1.8,0.2c2.3,1.7,2.3,1.7,4.4,1.7c0.1-1-0.7-1.3-1.3-1.9c-0.3-0.6-0.5-1.3-0.9-1.8
		c-0.5-0.8-1.1-1.5-1.5-2.3c-0.2-0.5-0.5-1.3-0.3-1.6c0.7-1.2,0.5-2.5,0.7-3.7c0.5-3.2,2.7-4.8,5.9-4.4c0.6,0.1,1.3,0.5,1.6-0.5
		c-4.9-1.4-9.8-2-15-3c0.6,1.7,1.7,2.5,2.9,3.2C234.2,164.6,235.2,165.2,236.2,165.7L236.2,165.7z M275.8,229.2
		c1.8,0.4,1.9,2.5,3.5,3.3c0.7,0,1.5,0.1,2.3,0c0.5-0.1,0.9-0.5,1.4-0.8c-0.7-1.9-1.3-3.7-2.5-5.1c-2.7-0.3-5.3-0.7-7.9-1
		c-2.5-0.3-5-0.9-7.6-1.1c-2.6-0.2-5.1-1.2-8.2-0.7c1.6,2.7,3.5,4.7,6.2,5.6c3.4,1.1,6.9,2.1,10.3,3c1.1,0.3,2.3,0.6,3.6,0
		C276.6,231.3,276.2,230.2,275.8,229.2L275.8,229.2z M351.1,194.3c-0.2-0.1-0.3-0.3-0.5-0.4c-0.1-0.1-0.2,0-0.3,0
		c0.1,0.1,0.1,0.3,0.2,0.3C350.8,194.2,351,194.2,351.1,194.3c0.1,0.7,0.8,0.7,1.2,1c2.3,1.5,4.7,3,6.7,5
		c7.4,7.3,11.3,16.2,12.4,26.5c0.9,9.1-1,17.6-5.1,25.6c-3.4,6.5-8.5,11.5-15.1,14.9c-3.1,1.6-6.3,2.4-9.6,3.3
		c1.9,0.2,3.7,0.2,5.6,0.2c5.6-0.2,10.7-2.1,15.1-5.5c6.6-5,10.9-11.6,13.2-19.5c1-3.6,2-7.1,2.1-10.9c0.2-7.5-1-14.8-4.3-21.6
		c-3.2-6.7-7.7-12.1-14.2-15.8C356.7,196,354.2,194.3,351.1,194.3z M184.7,160.2c-0.2-0.1-0.4-0.3-0.3-0.2
		C184.3,160,184.5,160,184.7,160.2c0.7,0.4,1.4,0.8,2,1.2c1.7,1.1,3.6,2.2,5.2,3.5c4,3.2,7.1,7.2,9.6,11.8c2.6,4.7,4.4,9.8,5.3,15
		c1.7,9.5,1.5,18.9-1.4,28.2c-2.1,6.9-4.7,13.6-9.4,19.2c-1.5,1.8-3.1,3.4-4.8,5c-5.6,5.4-12.4,8.5-20.2,9c-0.3,0-0.9-0.3-1.1,0.6
		c3,0.6,5.9,1.2,8.9,1c1.6-0.1,3.2-0.3,4.9-0.5c4-0.4,7.7-1.8,11.1-3.8c5.9-3.4,10.2-8.3,13.8-14c7.3-11.5,9.7-24.3,8.4-37.7
		c-0.6-7-2.7-13.7-6-19.9c-2.4-4.4-5.5-8.4-9.5-11.4c-2-1.5-4.1-3-6.4-4.2C192,161.6,188.6,160.1,184.7,160.2z M323.8,243.6
		L323.8,243.6c0.1-0.4,0.2-0.9,0.1-1.3c-0.9-4-1.8-7.9-2.6-11.9c-0.2-1-0.9-1.6-1.6-2.2c-2.1-1.8-4.7-3-6.3-5.4
		c-0.2-0.4-0.7-0.6-1.1-0.8c-1.4-0.6-2.8-1.2-4.2-1.7c-1.7-0.5-3.7-0.6-4.9-2.2c-1.1-0.2-2.2-0.6-3.3-0.6c-0.8,0-1.4,0.8-1.6,1.8
		c1.5,2.7,0.6,5.7,0.7,8.7c-0.8,0.5-1.4,0.9-2.1,1.3c-1-0.3-1.8-0.7-2.7-0.9c-0.5-0.1-1.2-0.3-1.5,0.7c0.3,0.5,0.7,1,1.2,1.5
		c1.2,1.4,2.6,2.1,4.5,2c2.7-0.2,5.3,0,8,0c1.8,0,3.7,0.2,5.2,0.6c1,1,1,2.1,1.1,3.1c0.1,1.4,0.3,2.8,0.5,4.1
		c0.4,3.1,1.1,6.1,1.4,9.2c0.4,3.9,0.8,7.9-0.4,11.7c-0.7,2.1-0.7,4.1-0.1,6.1c0.3,1.1,0.5,2.3,0.6,3.4c0,0.4-0.4,0.9-0.8,2
		c-0.6-2.2-1.1-3.7-1.4-5.3c-0.8-4.9-3-9.2-5.8-13.3c-0.3-0.4-0.6-1-1.5-0.6c0,0.5-0.1,1.1,0,1.6c0.4,2.8-0.5,5.3-2.1,7.5
		c-0.7,1-1.5,2.1-2.2,3.1c-1.2,1.6-2.1,3.3-1.8,5.4c0,0.3-0.2,0.7-0.3,1c-0.6,0-1.1-0.1-1.7-0.1c-0.3,0.8-0.6,1.5-0.9,2.2
		c-1,2-0.6,3.7,0.8,5.4c2.4,2.8,5.2,5.3,8.1,7.6c4.1,3.2,8.1,6.6,13.1,8.4c2.4,2.2,5.2,1.6,7.9,1.2c0.8-0.1,1.6-0.8,2.3-1.2
		c-0.1-3.4-0.1-6.5-0.1-9.6c0-1.9,0.2-3.7,0.2-5.6c0-5.1,0-10.2,0-15.3c0-1.3,0.1-2.6-0.2-3.8c-0.9-5-2-10-3-15
		C324.8,245.7,324.7,244.5,323.8,243.6z M216,250.7l-0.1-0.1c0.1,0.3,0.1,0.7,0.3,1c2.3,4,3.6,8.3,4.6,12.7c0.7,3.4,2,6.4,4,9.2
		c1.2,1.6,2.4,3.1,3.6,4.7c0.6,0.7,1.3,1.5,1.5,2.3c0.3,1.2,1.1,2,1.9,2.9c2,2.1,4.3,3.9,6.9,5.3c0.7,0.4,1.6,0.8,1.9,1.4
		c0.7,1.4,1.9,1.7,3.1,1.8c2.2,0.3,4.4,0.3,6.6-0.3c1.4-0.4,2.9-0.8,4.1-2.2c-0.1-1.9-0.2-4-0.4-6.1c-0.6-5.1-1.2-10.1-1.1-15.3
		c0-2.6-0.3-5.3-1.3-7.8c-0.7-1.9-1.1-4-1.6-6.1c-0.4-1.6-0.5-3.2-1.1-4.7c-3.2-9.4-6.7-18.8-9.3-28.4c-0.5-1.8-0.9-3.6-1.3-5.4
		c-0.2-1-0.8-1.7-1.7-2c-0.9-0.3-1.8-0.6-2.7-0.6c-3,0-6,0-9,0.1c-2,0.1-3.9,0.8-5.5,2c-0.5,0.4-1.2,0.9-1.4,1.5
		c-0.7,2.2-2,4.4-0.9,6.8c-0.4,0.2-0.7,0.2-0.8,0.4c-2.1,4.7-4.2,9.5-6.3,14.4c1,3.8,3.3,9,5.4,12.2
		C215.6,250.5,215.9,250.6,216,250.7z M232.7,287c0-0.1,0-0.2,0-0.3c0-0.1-0.1-0.1-0.2-0.1C232.6,286.7,232.7,286.8,232.7,287
		c0.1,0.3,0,0.7,0.1,1c1.4,4.6,1.2,9.1,0.4,13.8c-0.2,1-0.3,2.1-0.4,3.1c-0.5,4.6-1.4,9.2-4.3,13.1c-0.1,0.1,0,0.2,0,0.6
		c0.4,0.4,0.9,1.1,1.5,1.6c2.9,2.4,5.9,4.4,9.3,6.1c1.8,0.9,3.6,1.7,5.3,2.6c2,1,4,1.8,6.2,2.3c2.2,0.5,4.5,1.2,6.7,2
		c2.2,0.8,4.9,0.7,6.4,3c1,0.2,2,0.4,3.1,0.4c4.8,0.1,9.5,0.1,14.3,0.1c0.7,0,1.3-0.2,2-0.3c1.4-4.1,1.8-8.3,2.2-12.4
		c0.4-4.6,0.4-9.3,0.2-13.9c-0.3-5.8,1-11,4.2-15.8c0.3-0.4,0.5-0.8,0.7-1.2c0.7-1.6,1.5-3.2,2-4.8c0.9-3,0.8-6.2,1.3-9.3
		c0.1-1.1-0.4-1.7-1.4-2.1c-0.3-0.1-0.7-0.2-1-0.3c-2.1-0.7-4.6-0.3-6.4-2.2c-0.2-0.2-0.7-0.2-1-0.2c-1.9,0-3.7,0-5.6,0.1
		c-6.9,0.7-13.8,1.4-20.7,2.2c-0.7,0.1-1.3,0.2-1.8,0.3c-0.6,1.4-0.3,2.5-0.2,3.7c0.3,2.9,0.6,5.8,0.8,8.7c0.1,1.5-0.2,2-1.7,2.6
		c-3,1.3-6,2.5-9.4,2.2c-0.7-0.1-1.4,0.2-2.2,0.3c-1.2-0.9-2.6-1.8-3.9-2.8C237.1,289.9,235.1,288.1,232.7,287z M158.9,245.1
		c-2.2,0-3.7-1.3-5-2.7c-3.3-3.6-6.1-7.6-8.2-12c-3.4-7.2-5.2-14.9-5-22.9c0-0.3-0.1-0.7-0.2-1.2c-0.9-0.2-1.9-0.4-2.8-0.6
		c-0.2,0.4-0.4,0.5-0.5,0.7c-0.1,0.6-0.1,1.2-0.1,1.7c0,6.7,1,13.2,3.2,19.5c2.6,7.3,6.5,13.6,12.6,18.4c5.6,4.4,12,6.5,19.2,5.8
		c7.1-0.7,13.1-3.7,18.2-8.6c4.9-4.7,8.7-10.2,11.4-16.5c4.8-11.2,5.7-22.9,3.7-34.8c-0.3-2-1-4.1-1.6-6.1
		c-2.3-7.9-6.2-14.7-12.6-20c-8.7-7.2-20-8.4-30-3.5c-5.1,2.5-9.1,6.3-12.6,10.7c-1.9,2.4-3.7,5.1-5.1,7.9
		c-2.4,4.8-4.1,9.8-5.2,15.1c0,0.2,0.1,0.4,0.2,0.8c0.9,0.1,1.9,0.3,2.9,0.4c0.2-0.6,0.4-1,0.5-1.5c1.5-6.9,4.3-13.2,8.5-18.9
		c4.5-6.2,10.3-10.5,17.4-13.3c6.1-2.4,11.8-1.3,17.3,1.8c0.2,0.1,0.3,0.4,0.5,0.7c-0.6,0-1,0-1.4-0.1c-1.7-0.5-3.3-1.1-4.9-1.7
		c-1.9-0.8-3.8-1-5.8-0.7c-5.3,0.7-10,2.8-14.2,6.1c-8.1,6.3-12.8,14.8-15.5,24.6c-0.3,1-0.4,2-0.6,3.1c4.4,1.2,8.8,1.5,13.2,2.1
		c4.5,0.6,8.9,1.6,13.1,1.8c1.3-0.8,2.3-1.8,3.4-2.2c3.2-1.1,6.2-1,8.3,2.2c0.4,0.6,1,1,1.4,1.6c2.1,3,1.6,7-1.2,9.4
		c-1.1,0.9-2.2,1.7-3.6,2c-0.5,0.1-1.2,0-1.4,0.6c0.5,1.3,1,2.6,1.5,3.9c1.2,3,1.2,6.1,0.6,9.2c-0.2,1-0.5,2-1.1,2.9
		c-1.3,2.2-3.3,2.8-5.6,1.7c-0.8-0.4-1.6-1-2.2-1.7c-1.1-1.2-1.5-2.5-0.8-4.2c0.3-0.8,0.4-1.8,0.5-2.7c0.2-2.1,0.4-4.2,0.7-6.2
		c0.2-1.3,0.6-2.6,0.9-3.9c-0.6,0-0.8,0.3-0.9,0.6c-0.6,1.2-1.3,2.4-1.9,3.7c-1.5,3.4-2.8,6.9-4.3,10.3c-0.6,1.3-1.5,1.6-2.8,1
		c-4.3-2-6.3-6-5.5-10.6c1.8-1.7,3.4-3.4,5.1-4.9c1.7-1.5,3.6-2.7,5.9-4.4c-8.4-1.2-16.2-2.3-24.3-3.5c-0.1,0.9-0.3,1.5-0.3,2.2
		c0,3.3,0.5,6.5,1.1,9.7c1,5.4,2.7,10.5,5.9,15.1c0.4,0.6,0.7,1.2,1,1.8c1.9,3.7,4.4,6.8,7.9,9.1
		C158.4,244.4,158.6,244.8,158.9,245.1L158.9,245.1z M251.8,446.4c1-3.7,1.9-7.2,2.7-10.7c0.7-3.3,1.5-6.6,1.7-9.9
		c0.3-5.2,0.2-10.4,0.1-15.7c0-3.4-0.2-6.7-0.2-10.1c0-1.9-0.3-4,0.8-5.8c0.2-0.3,0.1-0.7,0.1-1c0-4,1-7.8,1.9-11.6
		c0.6-2.3,1.4-4.2,3.1-6c2-2.1,3.4-4.7,5.1-7c0.4-0.5,0.8-0.9,1.6-1.8c-0.2,0.9-0.2,1.2-0.3,1.5c-1.6,3.6-3.8,6.9-6.3,10.3
		c0.9,0,1.5,0.1,2,0c5.6-1.4,11.4-1.8,17.2-2.8c2.4-0.4,4.8-0.6,7.3-0.6c0.7,0,1.3-0.2,1.9-0.3c0.1-0.4,0.2-0.6,0.2-0.8
		c-0.6-3.2-1.2-6.4-1.8-9.6c-0.1-0.3-0.2-0.7-0.4-0.9c-1-1.2-1.2-2.7-1.4-4.2c-0.5-2.6-1-5.2-0.7-7.9c0.1-0.7,0-1.4-0.2-2
		c-0.3-0.6-0.9-1.1-1.3-1.6c1.5-1.8,1.7-3,0.3-4.5c-0.9-0.9-1.3-1.9-1.4-3c0-0.5-0.2-1.1-0.4-1.8c-0.7,0-1.3,0-1.8,0
		c-4.2,0-8.4,0-12.5,0.1c-3.5,0.1-6.9-0.6-10.2-1.8c-2.4-0.9-4.8-1.8-7.2-2.7c-1.3-0.5-2.7-0.8-3.9-1.3c-2-0.8-4-1.8-6.1-2.6
		c-5.2-2.1-10-4.8-14.3-8.4c-0.5-0.4-1.1-0.7-1.7-1.1c-0.4,0.5-0.6,0.9-0.9,1.3c-1.3,1.6-1.6,3.6-2.5,5.3c-1.3,2.5-2.3,5-3.2,7.7
		c-0.2,0.5-0.3,1.1-0.6,1.6c-3.2,4.9-4.6,10.3-4.2,16.2c0.2,2.4,0.6,4.8,0.9,7.2c0.3,2,0.3,3.9-0.2,5.8c-0.4,1.6-0.3,3.2,0.2,4.9
		c1.4,0.4,2.8,1,4.3,1.3c3.7,0.8,7.5,1.5,11.3,2.1c5.8,0.9,11.7,1.8,17.3,3.6c2.1,0.7,4.2,1.2,6.4,1.4c1.1,0.1,2.3,0.1,3.5,1.1
		c-0.5,0.3-0.9,0.8-1.3,0.9c-0.8,0-1.6-0.1-2.4-0.3c-7.6-1.6-15.2-3.3-22.8-4.8c-5-1-10.1-1.7-15-3.2c-0.4-0.1-0.9,0-1.5,0
		c-0.1,1-0.2,1.9-0.2,2.8c0.2,5.9,0.5,11.8,0.8,17.7c0,0.8,0,1.8,0.5,2.3c1,1.4,0.8,2.8,0.9,4.3c0.1,3,0.2,6,0.4,9
		c0.1,1,0.3,2.1,0.5,3.1c1.1,4.8,2.1,9.5,3.2,14.2c1.2,5.1,2.6,10.1,3.8,15.2c1.4,5.5,1.5,10.9,0.3,16.5c-1.1,5-3.4,9.6-3.8,14.8
		c0,0.3-0.2,0.6-0.4,1c-1.6,4.7-3.4,9.4-4.8,14.2c-1.7,5.7-3.3,11.4-2.5,17.4c0,0.3,0,0.7,0,1c0.2,6.7,0.6,13.4,2.2,20
		c0.8,3.2,1.1,6.6,1.4,10c0.5,5.1,0.9,10.2,1.2,15.2c0.3,4.1,0.2,8.1-1.7,11.9c-0.5,1-0.2,2,0.1,3c1.8-0.6,2.4-1.9,2.6-3.6
		c0.8,0.3,1.5,0.5,2.1,0.7c1.6-1.8,3-3.7,4.7-5.3c1.7-1.7,3.7-3.1,5.6-4.6c-0.1-3.8-0.6-7.6,0.7-11.3c0.1-0.3,0.1-0.7,0.1-1
		c0-6.6,1-13.2,1.9-19.7c0.6-4.2,0.5-8.6,1.5-12.7c0.2-0.7,0.2-1.4,0.1-2.1c-0.2-2,0.3-3.9,0.9-5.8c1.3-4.3,2.6-8.6,3.9-13
		c1-3.4,1.9-6.9,2.9-10.4c0.2-0.8,0.4-1.7,0.9-2.2c1.7-1.8,2.1-4,2.3-6.4c0.1-0.9,0.3-1.8,0.7-2.7c0.5-1.3,1.2-2.5,1.8-3.7
		c1.1-2,1.9-4,1.8-6.3c0-0.6,0.1-1.2,0.2-1.7c0.4-1.9,0.7-3.9,1.1-5.8C253,447.6,252.6,447,251.8,446.4z M294,274.4
		c1.1-2.1,2.4-3.8,3.1-5.7c0.5-1.5,1.4-2.6,2.4-3.7c1.3-1.3,2.3-2.9,3-4.6c2.9-7.2-0.4-16.1-6.1-20.2c-1.6-1.1-3.1-2.4-4.6-3.7
		c-2.4-2-4.7-4.1-7.2-6.3c0.1,2.5-1.3,3.4-3.3,3.9c-3,0.8-5.9,0.9-8.9,0.2c-1.5-0.3-2.9-0.9-4.4-1.1c-2.7-0.4-5.1-1.5-7.5-2.7
		c-1.9-1-3.4-2.3-4.7-4.1c-0.8-1.1-1.6-2.2-2.5-3.4c-1.4-0.2-2.8-0.5-4.2-0.7c-0.4-0.1-0.9,0-1.6,0.1c0.6,1.4,1.1,2.7,1.6,4
		c1.9,4.9,2.3,9.9,0.2,14.9c-0.2,0.5-0.4,1.1-0.6,1.6c0.3,0.5,0.6,0.9,0.9,1.2c1.9,2.3,3.1,4.9,3.5,7.8c0.5,4.2,2,8.3,2.1,12.7
		c0,0.2,0.3,0.4,0.5,0.6c2,0.4,4,1,6,1.3c5,0.8,9.9,0.7,14.8-0.9c0.8-0.3,1.5-0.6,2.3-0.7c0.5-0.1,0.9,0.1,1,0.8
		c-0.2,0.2-0.4,0.6-0.6,0.7c-0.7,0.4-1.5,0.7-2.2,1c-6,2-12,2.2-18.1,0.5c-1.1-0.3-2.2-0.6-3.5-0.9c-0.2,2.6-0.6,5,0.2,7.4
		c0.7,0,1.3,0,1.8,0c6.8-0.7,13.6-1.3,20.4-2c5.1-0.5,10.2-0.1,15,1.9C293.1,274.2,293.5,274.3,294,274.4z M253.4,554.4
		c1.3-6.3,1.8-12.6,2.1-19c0.1-1.6-0.2-3.2-0.3-4.8c-0.1-2.8,0.2-5.5-0.2-8.3c0-0.3,0.1-0.7,0.2-1c0.5-1.5,0.2-3-0.1-4.5
		c-0.6-3.1-1.3-6.2-1.4-9.3c-0.2-4.5-0.2-9,0.7-13.5c0.6-2.9,0.9-6,1.8-8.8c1.8-5.4,3.9-10.7,5.9-16c0.3-0.8,0.7-1.7,1-2.4
		c-0.5-0.8-0.9-1.4-1.2-2c-1.4-2.7-2.5-5.5-1.5-8.6c0.2-0.6,0.1-1.4-0.1-2c-0.8-3.3-1.1-6.6-1.2-10c0-3.3-0.7-6.7-1.9-9.5
		c-0.9,1.7-1.7,3.2-1.7,5c0.1,4.2-0.7,8.3-1.5,12.4c-0.9,4.8-1.7,9.6-4.4,13.8c-1,1.5-1.4,3.4-1.6,5.3c-0.2,1.8-0.5,3.6-1.2,5.3
		c-1.3,3.3-2.3,6.8-3.3,10.3c-1.2,4.5-2.2,9-3.3,13.5c-0.6,2.6-1.2,5.2-1.7,7.8c-1.5,8.3-2.2,16.8-3.1,25.2
		c-0.4,3.5-0.5,6.9-0.9,10.4c-0.3,3.1-0.8,6.2-1.1,9.3c4.1,1.2,3.2,1,5,4.6c0.2,0.4,0.3,0.9,0.5,1.3c0.6,1.4,1.2,2.8,2,4
		c0.7,1.1,1.6,2.2,3.1,2.5c0.5-0.7,0.9-1.5,1.5-2c1.1-1.1,1.7-2.3,2.2-3.8c0.7-2.1,1.9-3.9,3.7-5.3
		C252.2,554.3,252.7,554.4,253.4,554.4z M175.3,208.6c1.6-3.1,1.1-4.3-2.1-5c-0.2,0-0.5-0.1-0.7-0.1c-6.4-0.9-12.8-1.9-19.3-2.8
		c-12.7-1.8-25.5-3.7-38.2-5.5c-0.9-0.1-1.8-0.3-2.8-0.3c-0.9,0-1.7-0.7-2.7-0.1c-0.2,1.7,0.8,3.4-0.9,5.1c1.3,0.3,2.3,0.5,3.3,0.6
		c8.8,1.3,17.7,2.5,26.5,3.7c10.4,1.5,20.9,3,31.3,4.6C171.6,209.1,173.3,209.1,175.3,208.6z M241.4,219.1c1.2,0.2,2.1,0.4,3,0.6
		c4.4,0.6,8.7,1.1,13.1,1.7c11.3,1.6,22.7,3.2,34,4.7c2,0.3,4,0.7,6.3,0.6c0.2-1.5,0.5-2.8-0.2-4.1c-0.2-0.1-0.4-0.3-0.6-0.4
		c-0.4-0.1-0.9-0.3-1.3-0.4c-18.2-2.6-36.4-5.2-54.6-7.8c-0.1,0-0.2,0-0.3,0c-0.1,0-0.2,0.1-0.4,0.4
		C240.5,215.8,240.9,217.3,241.4,219.1z M326.1,232.9c-0.4,1.6,0.4,2.6,1.3,3.3c1.3,1.1,2.7,2.2,4.2,3c3.6,1.9,8.5,0.4,10.6-3.2
		c1.3-2.2,1.5-4.5,1.4-7c-0.1-3.1-1.3-5.6-3.4-7.7c-2.8-2.7-6.1-3.3-9.6-1.7c-0.8,0.4-1.5,1.1-2,1.8c-0.6,0.8-1.3,1.6-1,2.8
		c1.6,0.7,3.2,0.6,4.8,0.8c2.8,0.4,5.2,1.4,5.9,4.5c-0.2,1-0.4,2-1.3,2.7c-0.9,0.7-1.9,1.1-3.1,1.2
		C331.3,233.8,328.8,233.2,326.1,232.9z M313.4,257.6c0.1-3.4,0.3-6.3,0-9.3c-0.4-3.8-0.8-7.6-1.3-11.4c0-0.3,0-0.7-0.1-1
		c-0.2-0.7-0.7-1.3-1.5-1.3c-2,0-4.1-0.4-6.3,0.5c0.9,6.9,3,13.3,6.4,19.4C311.2,255.6,311.8,256.7,313.4,257.6z M171.2,210.7
		c-1.1-0.5-2.2-0.5-3.2,0.3c-0.9,0.7-1.9,1.3-2.8,2c-2.5,2-4.8,4.3-6.7,6.9c-0.4,0.6-0.8,1.4-0.9,2.2c-0.1,1.2,0.5,2.2,1.2,3.2
		c0.7,1,1.4,2,2.9,2.3c1.4-3.1,2.7-6,4.2-8.8C167.5,216,169.4,213.4,171.2,210.7z M379.1,233.7c-0.2,1.9-0.3,3.3-0.5,5
		c4,0.9,7.9,1.4,11.8,1.7c0.3,0,0.7,0,1-0.1c1.1-0.3,1.8-1,2.1-2.1c0.2-0.9-0.4-1.5-1.1-2c-0.4-0.3-1-0.7-1.5-0.7
		C387.1,234.8,383.3,234.3,379.1,233.7z M173.6,211.1c-0.9-0.2-1.3,0.2-1.3,0.8c0,0.9,0.3,1.8,0.3,2.7c-0.2,4.4-0.4,8.7-0.6,13.1
		c0,0.3,0,0.7,0,1c0.1,1,0.5,1.6,1.3,1.7c0.8,0.2,1.4-0.2,1.9-1.2c0.4-0.8,0.8-1.7,0.9-2.6c0.5-3.1,0.4-6.2-0.5-9.2
		C175.1,215.4,174.4,213.4,173.6,211.1z M247.7,240.3c1.6-4.7,1.4-8.7,0-12.6c-0.6-1.7-1.6-3.4-2.5-5c-0.5-0.8-1.2-1.4-2.4-0.9
		c0.4,2.5,0.8,5,1.2,7.5c0.2,1,0.4,2.1,0.6,3.1c0.1,0.5,0.2,0.9,0.4,1.3C245.8,235.8,246.4,237.9,247.7,240.3z M175.7,213.6
		c2.6,0,3.7-1.5,4.9-2.9c2.9-3.4,0.8-8.4-3-10c-1.8-0.7-3.6-0.5-5.3,1c1.2,0.3,2.2,0.6,3.1,1c3.2,1.4,3.7,5,0.9,7.3
		c-0.4,0.4-0.9,0.6-1.6,1C175.1,211.8,175.4,212.7,175.7,213.6z M291.2,228.1c-2-0.3-3.9-0.6-6-0.8c0.3,1.2,1.2,1.6,1.8,2.1
		c3.5,2.7,7.1,5.2,10.1,8.4c0.1,0.1,0.4,0,0.7-0.1c-0.2-0.9-0.3-1.8-0.4-2.6C294.5,233.4,291.6,231.9,291.2,228.1z M236.6,201.8
		c0,0,0.3-0.1,0.3-0.3c1.1-4,1.7-8.1,1.2-12.3c0-0.4-0.5-0.7-0.7-0.9c-1.1,0.2-1.6,0.9-1.7,1.7c-0.2,1-0.3,2.1-0.2,3.1
		C235.8,196,236.2,199,236.6,201.8z M239.9,211.7c0-0.2,0.1-0.5,0.1-0.7c-2.2-1.1-4.4-2.3-6.6-3.4c-0.7,0.6-1.3,1.1-2,1.7
		C233.9,211.6,237,211.4,239.9,211.7z M106.6,194.2c-1.2,0.2-2,0.8-2.5,1.6c-0.8,1.3,0.1,3,1.6,3c0.7,0,1.5-0.4,2.1-0.6
		C108.4,196.5,107.9,195.4,106.6,194.2z M299.4,234.7c0.8,1.5,1.2,2.6,1.8,3.5c0.6,1,0.9,2.2,2.4,3.2c-0.7-2.5-0.3-4.6-1.3-6.6
		C301.6,234.8,300.8,234.7,299.4,234.7z M234.8,188.5c1.4-0.7,1.8-1.3,0.9-2.2c0.6-1.9-0.3-3.3-1.5-5.3
		C234.3,183.9,234.6,186.1,234.8,188.5z M218.7,213.1c2.8-0.5,2.8-0.5,4-1.6c-1.2-0.5-2.4-0.5-3.8-0.4
		C218.8,211.8,218.8,212.3,218.7,213.1z M254.9,138.4c-2.8-0.7-5.5-0.5-8.3,0C249.4,138.4,252.2,138.4,254.9,138.4z M255.6,155.7
		c1.6,0.3,3.2,0.2,4.4-1.5C258,153.5,257,155.2,255.6,155.7z M251.1,140.2c0,0-0.1,0.1-0.1,0.1c1.1,0,2.1,0,3.2,0c0,0,0-0.1,0-0.1
		C253.1,140.2,252.1,140.2,251.1,140.2z M258.1,137.6c-0.2,0-0.3-0.1-0.5-0.1c0.1,0,0.1,0.1,0.2,0.1
		C258,137.7,258.1,137.6,258.1,137.6z M253.2,155.7l-0.3-0.1l0,0.2L253.2,155.7z M231.7,182.9c0,0.1-0.1,0.2-0.1,0.3
		c0,0.1,0,0.2,0.1,0.3c0.1-0.1,0.1-0.2,0.1-0.3C231.8,183.1,231.7,183,231.7,182.9z M246.2,570l0.2,0.1l0-0.2L246.2,570z"/>
	<path d="M662.8,548.8c0.5,1.4,0.2,2.7-0.4,4c-0.6,1.2-0.8,2.4-0.7,3.8c0.6,0.7,1.3,1.5,1.9,2.3c0.1,0.2,0,0.7-0.1,0.9
		c-0.2,0.2-0.7,0.4-0.9,0.3c-0.8-0.4-1.5-1-2-1.3c-1-1.3,0.8-2.2-0.1-3.2c-0.2-0.2-0.1-1,0.1-1.3C661.6,552.5,662,550.6,662.8,548.8
		z"/>
	<path d="M270.1,483.4c0.3,0.6,0.8,1,0.8,1.5c0,2,0.7,4.2-0.9,6C269.2,485.1,269.2,485.1,270.1,483.4z"/>
	<path d="M281.4,452.9c1.1-1.9,1.8-4,3.8-5.2c0.2,0.3,0.5,0.5,0.5,0.6C284.8,450.4,283.4,452,281.4,452.9z"/>
	<path d="M674,490.5c-1.4-3.2-1.6-4.7-0.6-6.7c0.2,0.1,0.5,0.1,0.6,0.3C674.6,486.1,674.5,488.2,674,490.5z"/>
	<path d="M256,557.6c1.1-0.3,1.6-0.7,2-0.6c0.6,0.2,1.3,0.6,1.7,1.1c0.3,0.4,0.4,1,0.4,1.5c-0.1,0.5-1,0.5-1.7,0
		C257.7,559.2,257.1,558.6,256,557.6z"/>
	<path d="M257.5,556.5c-0.1-0.3-0.4-0.6-0.4-0.9c0-0.6-0.1-1.2,0.1-1.7c0.9-1.5,1.2-3.2,1.7-4.8c0.1-0.3,0.4-0.5,0.7-0.9
		c0.5,3-1.9,5.2-1.5,8C258,556.4,257.7,556.5,257.5,556.5z"/>
	<path d="M684.4,453.4c2.8-4.8,3-5.1,4.6-5.4C688.3,450.3,687.6,451.3,684.4,453.4z"/>
	<path d="M268.3,503c0.3-1.3,0.6-2.6,0.7-4c0.1-1.2-0.6-2.5,0.2-3.7c0.6-0.2,1.1,0,0.9,0.5c-0.7,2.1-0.8,4.3-0.9,6.5
		c0,0.3-0.3,0.5-0.5,0.8C268.7,503.1,268.5,503.1,268.3,503z"/>
	<path d="M687.4,455.2c-0.7,1.3-1.4,2.6-2.2,4.1C684.8,456.4,685.7,454.8,687.4,455.2z"/>
	<path d="M284,455.1c-0.7,1.3-1.4,2.6-2.1,4.1C281.5,456.5,281.6,456.2,284,455.1z"/>
	<path d="M685.8,465.3c-0.3-1.1,0-2.2-0.5-3.2c-0.2-0.4,0.1-1,0.6-0.9c0.3,0,0.7,0.6,0.7,0.9C686.8,463.2,686.6,464.3,685.8,465.3z"
		/>
	<path d="M282.8,461c0.7,1.5,0,2.9-0.4,4.4c-0.2-1.3-0.5-2.5-0.7-3.8c0-0.2,0.2-0.4,0.4-0.5C282.2,461,282.5,461,282.8,461z"/>
	<path d="M673.4,494.8c0.3,1.6,0,2.5-0.9,3.5C672.1,496.9,672,496,673.4,494.8z"/>
	<path d="M672.7,499.3c0,1.8,0,2.8,0,3.8c-0.7,0.2-0.9-0.2-0.9-0.7C671.9,501.5,672.2,500.8,672.7,499.3z"/>
	<path d="M278.3,453.2c-0.6,0.9-1.4,0.9-2.3,0.6C276.9,453,276.9,453,278.3,453.2z"/>
	<path d="M671.8,478.1c-1-0.4-1.1-1.3-1.2-2.3C671.8,476.5,671.8,476.5,671.8,478.1z"/>
	<path d="M681.8,453c-0.7,1.2-1.4,1.1-2.4,0.7C680,452.9,680.7,452.8,681.8,453z"/>
	<path d="M266.9,475.4c1.5,0.8,1.6,1.5,1.2,2.8c-0.3-0.6-0.6-0.9-0.7-1.2C267.2,476.7,267.2,476.4,266.9,475.4z"/>
	<path d="M260.1,546.4c0.1-0.7,0.1-1,0.1-1.3c0-0.1,0.2-0.1,0.2-0.2c0.1,0.1,0.3,0.3,0.3,0.4C260.6,545.6,260.4,545.9,260.1,546.4z"
		/>
	<path d="M666.1,533.1c0.1,0,0.1,0.1,0.2,0.1c-0.1,0.1-0.2,0.1-0.3,0.2C666.1,533.3,666.1,533.2,666.1,533.1z"/>
	<path d="M281.4,468.4c0,0.1-0.1,0.2-0.1,0.3c-0.1-0.1-0.2-0.2-0.3-0.3c0,0,0.1-0.1,0.2-0.2C281.2,468.2,281.3,468.3,281.4,468.4z"
		/>
	<path d="M684.8,468.3c0,0.1-0.1,0.2-0.1,0.2c-0.1,0-0.2,0-0.3-0.1c0-0.1,0.1-0.2,0.1-0.2C684.6,468.2,684.7,468.2,684.8,468.3z"/>
	<path d="M664.1,544.8c0.1,0.1,0.2,0.2,0.2,0.3c0,0.2-0.1,0.4-0.2,0.6c-0.1-0.1-0.2-0.2-0.2-0.3C663.9,545.2,664,545,664.1,544.8z"
		/>
	<polygon points="261.6,541.2 261.7,541.4 261.5,541.4 	"/>
	<polygon points="665.5,537.4 665.4,537.2 665.6,537.2 	"/>
	<polygon points="267.9,507.8 268,508 267.8,508 	"/>
	<path d="M643.6,467c0.8-1.5,1.6-2.9,2.4-4.4c-0.6-1.9-1.6-3.7-0.7-5.7c0.2-0.5,0.6-0.9,1.1-1.5c0.3,0.6,0.5,0.8,0.5,1.1
		c-0.1,1.8-0.3,3.6,0.4,5.5c0.6,1.8-0.9,4.3-2.6,5.2C644.5,467.3,644.1,467.1,643.6,467z"/>
	<path d="M627.3,338.6c0.2-4.1,1.6-7.8,3.3-11.5c0.4-0.9,0.5-2,1.6-2.4c0.1,0.2,0.2,0.3,0.2,0.4c0,0.3,0.1,0.7-0.1,1
		C630.7,330.3,629,334.4,627.3,338.6z"/>
	<path d="M632.5,477.9c0.1,0.2,0.2,0.5,0.2,0.6c-0.6,2.7-1.2,5.4-1.8,8.1c-0.1,0.5-0.1,1.1-0.1,1.7c0,1.3,0,1.3-1.3,3.3
		c0.1-1.3,0.1-2.4,0.3-3.3c0.6-2.7,0.8-5.5,1.2-8.2c0.1-0.8,0.6-1.5,0.9-2.2C631.9,477.8,632.3,477.9,632.5,477.9z"/>
	<path d="M622.9,561.1c-0.8-4.1,0.8-7.8,0.5-12c1,1.4,1.5,2.5,1.3,3.9c-0.3,2.4-0.6,4.8-1,7.2C623.7,560.4,623.3,560.6,622.9,561.1z
		"/>
	<path d="M642.2,451.2c-1.1-0.4-0.8-1.3-0.7-2c0.2-1.4,0.6-2.9,0.9-4.3c0.5,1.6,0.4,1.6,0.2,3C642.4,449,642.3,450.2,642.2,451.2
		L642.2,451.2z"/>
	<path d="M632.6,471.7c-1-3.1-1-3.1-0.5-5.8C632.8,467.8,632.6,469.4,632.6,471.7z"/>
	<path d="M655.4,343.4c1.4-0.1,2.4,0.6,3.4,1.4l0.1-0.1C657.5,344.8,656.5,344.1,655.4,343.4L655.4,343.4z"/>
	<path d="M671.8,364.4c0.1-0.6,0.3-1.2,0.4-1.8c0.1,0,0.3,0,0.4,0.1c0,0.6-0.1,1.3-0.1,1.9C672.3,364.5,672.1,364.5,671.8,364.4z"/>
	<path d="M625.4,346.8c-0.1,0.7-0.1,1.3-0.3,2.6C624.8,348.1,624.9,347.4,625.4,346.8L625.4,346.8z"/>
	<path d="M626.1,401.9c0.9,0.5,0.5,1.3,0.3,2.1C626.3,403.3,626.2,402.5,626.1,401.9L626.1,401.9z"/>
	<path d="M626.2,401.8c-0.7-0.6-0.8-1.3-0.2-2.4C626,400.4,626.1,401.2,626.2,401.8L626.2,401.8z"/>
	<path d="M648.4,340.6c0.7,0.1,1.6-0.2,2,0.7l0.1-0.1C649.8,341.2,649,341.2,648.4,340.6L648.4,340.6z"/>
	<path d="M628.8,412c0,0.4,0,0.7,0,1.1c-0.1,0-0.2,0-0.3,0c0-0.4,0-0.7,0-1.1C628.6,412,628.7,412,628.8,412z"/>
	<path d="M651.9,342c0.8,0,1.6-0.3,2.1,0.6l0.1-0.1C653.3,342.6,652.5,342.6,651.9,342L651.9,342z"/>
	<path d="M651.3,346.8c0.5,0.1,1,0.2,1.6,0.3C652.1,347.5,651.7,347.2,651.3,346.8L651.3,346.8z"/>
	<path d="M661.6,346.2c0.5,0,0.9,0.1,1.7,0.1C662.4,346.9,662.1,346.4,661.6,346.2L661.6,346.2z"/>
	<path d="M651.3,346.7c-0.7-0.1-1.6,0.3-2.1-0.7l-0.1,0.1C649.9,346.3,650.6,346.6,651.3,346.7L651.3,346.7z"/>
	<path d="M649.3,346c-0.5,0-1.1,0-1.9,0C648.2,345.2,648.7,345.8,649.3,346L649.3,346z"/>
	<path d="M674.6,345.1c-0.1-0.2-0.2-0.4-0.1-0.6c0-0.1,0.3-0.2,0.5-0.3c0.1,0.2,0.2,0.4,0.1,0.5C675,344.9,674.7,345,674.6,345.1z"
		/>
	<path d="M655.5,343.3c-0.6,0-1.2,0-1.4-0.7l-0.1,0.1C654.5,342.7,655.2,342.5,655.5,343.3L655.5,343.3z"/>
	<path d="M650.4,341.3c0.6,0.1,1.3-0.2,1.4,0.7l0.1-0.1C651.4,341.8,650.8,341.9,650.4,341.3L650.4,341.3z"/>
	<path d="M648.5,340.5c-0.2,0-0.4,0-0.6-0.1c-0.1,0-0.1-0.2-0.2-0.3c0.1,0,0.2,0,0.3,0C648.2,340.3,648.3,340.4,648.5,340.5
		L648.5,340.5z"/>
	<polygon points="654.1,355.6 653.8,355.5 654.1,355.5 	"/>
	<path d="M687.7,350.7c-0.1,0-0.2,0.1-0.3,0.1c-0.1,0-0.1-0.2-0.2-0.3c0.1,0,0.2,0,0.3,0C687.6,350.5,687.7,350.6,687.7,350.7z"/>
	<polygon points="657,348.6 656.7,348.6 656.8,348.5 	"/>
	<path d="M654.7,348c-0.1-0.1-0.2-0.1-0.3-0.2c0.1,0,0.2-0.1,0.3-0.1c0.1,0,0.2,0.1,0.3,0.1C654.9,347.9,654.8,347.9,654.7,348z"/>
	<path d="M661.7,346.1c-0.5-0.2-0.9-0.5-1.4-0.7l-0.1,0.1C660.8,345.5,661.5,345.4,661.7,346.1L661.7,346.1z"/>
	<path d="M625.5,346.9c0.1-0.3,0.1-0.6,0.1-0.3C625.7,346.3,625.6,346.6,625.5,346.9L625.5,346.9z"/>
	<path d="M658.8,344.7c0.6,0,1.2,0,1.4,0.7l0.1-0.1C659.8,345.3,659.1,345.5,658.8,344.7L658.8,344.7z"/>
	<path d="M646,345.1c-0.2,0-0.3,0.1-0.4,0.1c0,0-0.1-0.1-0.1-0.1C645.6,345,645.7,345.1,646,345.1z"/>
	<path d="M624.5,531.6c0.1,0.2,0.1,0.4,0.2,0.6c0,0.1-0.1,0.1-0.2,0.2c-0.1-0.2-0.1-0.4-0.2-0.6
		C624.3,531.8,624.4,531.7,624.5,531.6z"/>
	<path d="M642.6,455.3c0,0.1,0.1,0.2,0.1,0.2c0,0.1-0.1,0.1-0.1,0.2c0-0.1-0.1-0.2-0.1-0.2C642.4,455.4,642.5,455.3,642.6,455.3z"/>
	<path d="M629.4,495c0,0.1-0.1,0.2-0.1,0.3c-0.1-0.1-0.2-0.2-0.2-0.3c0-0.1,0.1-0.2,0.2-0.2C629.3,494.8,629.4,494.9,629.4,495z"/>
	<polygon points="623.7,544.6 623.8,544.4 623.9,544.6 	"/>
	<path d="M642.1,451.3c0.1,0.1,0.2,0.2,0.3,0.2c-0.1,0-0.2,0-0.2,0C642.2,451.4,642.2,451.3,642.1,451.3L642.1,451.3z"/>
	<path d="M564.7,88.5c0.8,0.1,1.6,0.1,2.3,0.2c0,0.1,0,0.3,0,0.4c-0.8-0.1-1.6-0.1-2.3-0.2C564.7,88.8,564.7,88.7,564.7,88.5z"/>
	<path d="M561.4,87.8c0.4,0,0.9,0.1,1.5,0.2C562.1,88.2,562.1,88.2,561.4,87.8L561.4,87.8z"/>
	<path d="M593.5,10.4c-0.2,0-0.4,0.1-0.6,0.1c-0.1,0-0.3-0.2-0.4-0.3c0.2,0,0.4-0.2,0.5-0.1C593.2,10.1,593.3,10.3,593.5,10.4
		L593.5,10.4z"/>
	<polygon points="572.4,89.4 572.7,89.5 572.4,89.6 	"/>
	<path d="M560,87.1c0.6-0.1,1.2,0,1.4,0.7l0.1-0.1C560.8,87.8,560.2,87.9,560,87.1L560,87.1z"/>
	<path d="M590.6,9.1c0.1,0,0.2,0.1,0.3,0.1C590.8,9.1,590.7,9.1,590.6,9.1L590.6,9.1z"/>
	<path d="M593.4,10.4c0.1,0.1,0.3,0.2,0.4,0.3C593.3,10.9,593.5,10.6,593.4,10.4L593.4,10.4z"/>
	<path d="M632.6,211.9c0-0.7-0.2-1.3-0.1-1.8c0.3-2.2,0.6-4.3,1-6.5c0.1-0.6,0.6-0.9,1.3-0.7C635.7,206.4,634.9,209.4,632.6,211.9z"
		/>
	<path d="M626,74c0.5,1.6,0.1,2.9-0.7,4.2C624.2,76.5,624.4,75.4,626,74z"/>
	<path d="M620.9,146.7c0.4,1.1,0.6,2.1,0,3.3C619.6,148.6,619.6,148,620.9,146.7z"/>
	<path d="M619,141.7c0.2,0.4,0.3,0.8,0.4,1.2c0,0.1-0.2,0.4-0.3,0.4c-0.2,0-0.5-0.2-0.5-0.3c-0.1-0.4,0-0.8,0-1.2
		C618.7,141.7,618.8,141.7,619,141.7z"/>
	<path d="M617.4,189.1c-0.1-0.3-0.2-0.4-0.2-0.4c0.1-0.3,0.1-0.6,0.2-0.9c0,0,0.3,0,0.5,0.1c-0.1,0.3-0.1,0.6-0.2,0.9
		C617.7,188.8,617.6,188.9,617.4,189.1z"/>
	<path d="M630.1,219.2c0,0.4,0,0.8,0,1.1c-0.1,0-0.2,0-0.3,0c0-0.4,0-0.8,0-1.1C629.9,219.2,630,219.2,630.1,219.2z"/>
	<polygon points="623.1,135.1 623,135.3 622.9,135.1 	"/>
	<path d="M631.8,216.6c0-0.2,0-0.5,0-0.7c0-0.1,0.2-0.2,0.4-0.3c0,0.2,0.1,0.4,0.1,0.6C632.1,216.3,631.9,216.4,631.8,216.6
		L631.8,216.6z"/>
	<polygon points="631.7,216.5 631.6,216.7 631.8,216.6 	"/>
	<path d="M688,259.6c0.4,1.9-0.1,3.1-0.9,4c-1.6,1.9-3.5,3.4-6.1,3.7c-1,0.1-2,0.4-3,0.6c-4.3,1.1-8.7,1.3-13.1,0.4
		c-1-0.2-2.1-0.2-3.1-0.4c-1.1-0.2-2.3-0.4-3.4-0.7c-0.7-0.2-1.2-0.7-1.2-1.7c0.4-0.1,0.8-0.3,1.2-0.3c1.9,0.3,3.9,0.6,5.8,1
		c5.5,1.1,11,0.9,16.4-0.9c2.5-0.8,4.6-2.1,6.1-4.2C687,260.7,687.3,260.4,688,259.6z"/>
	<path d="M695,262.9c0.5-0.3,0.9-0.8,1.2-0.7c1.3,0.2,2.6,0.6,3.9,1c0.3,0.1,0.5,0.7,0.5,1.1c0,0.2-0.4,0.6-0.7,0.6
		C698.1,264.9,696.3,264.6,695,262.9z"/>
	<path d="M690.1,253.8c-0.1,0.2-0.2,0.3-0.2,0.5c-0.1-0.1-0.2-0.2-0.2-0.2c0-0.2,0.1-0.3,0.2-0.5C689.9,253.7,690,253.8,690.1,253.8
		z"/>
	<path d="M654.4,263.1c-0.1-0.1-0.3-0.2-0.3-0.4c0-0.1,0.2-0.2,0.3-0.3c0.1,0.2,0.2,0.4,0.2,0.6C654.7,263,654.5,263,654.4,263.1z"
		/>
	<polygon points="689,257.3 689.3,257.2 689.2,257.4 	"/>
	<path d="M651.3,259.7c-0.1-0.1-0.3-0.1-0.4-0.2c0.1,0,0.2,0,0.2,0C651.2,259.6,651.2,259.7,651.3,259.7L651.3,259.7z"/>
	<path d="M651.2,259.8c0.1,0.1,0.3,0.2,0.4,0.3C651.1,260.3,651.3,259.9,651.2,259.8L651.2,259.8z"/>
	<path d="M674.4,277.5c-0.2,0.5-0.4,1-0.8,1.4c-1.4,1.2-2.8,2.3-4.3,3.3c-0.9,0.6-1.9,1-2.4,2.3c-0.4,0.9-1.2,1.6-2.3,1.8
		c-0.1-0.3-0.2-0.6-0.1-0.7c2-1.6,2.9-4.3,5.3-5.7c1.5-0.8,2.6-2.2,4.1-2.9C674,277.1,674.2,277.3,674.4,277.5z"/>
	<path d="M648.6,289.9c-1.1-0.5-1.5-0.5-1.8-0.8c-1.7-2-3.5-3.9-4.4-6.4c0-0.1,0.2-0.3,0.5-0.7C645,284.2,646.2,287,648.6,289.9z"/>
	<path d="M680.2,322.4c-0.4-0.1-0.7-0.2-0.8-0.3c-0.9-1.6-0.9-3.3-0.3-5c0.2-0.5,0.7-0.9,1.1-1.2c0.1-0.1,0.4-0.1,0.6,0
		c0.1,0,0.2,0.2,0.2,0.3c-1,1.4-0.3,2.9-0.4,4.4C680.6,321.1,680.4,321.7,680.2,322.4z"/>
	<path d="M655.4,317.5c-1.2-1.2-1.4-2.1-0.7-3.4c0.3,0.4,0.6,0.6,0.6,0.8C655.4,315.7,655.4,316.4,655.4,317.5z"/>
	<path d="M662.2,288.8c0.4-0.8,0.8-1.3,1.8-0.9C663.6,288.6,663.2,289.3,662.2,288.8z"/>
	<path d="M684.6,291.1c0.4,0.7,0.6,1.4,0.4,2.4C684.2,292,684.2,292,684.6,291.1L684.6,291.1z"/>
	<path d="M654.3,308.5c-0.4-0.6-0.6-1.2,0.1-2C654.9,307.3,655,307.9,654.3,308.5z"/>
	<path d="M682.2,310.8c0-0.2-0.1-0.4-0.1-0.7c0-0.1,0.1-0.2,0.1-0.3c0.1,0.1,0.3,0.2,0.2,0.4C682.4,310.4,682.3,310.6,682.2,310.8z"
		/>
	<path d="M654.7,311.7c-0.1,0.2-0.2,0.4-0.3,0.6c-0.1-0.2-0.3-0.4-0.4-0.7c0-0.1,0.2-0.3,0.3-0.5
		C654.5,311.3,654.6,311.5,654.7,311.7z"/>
	<path d="M684.7,291.2c0-0.3,0-0.7,0.1-1.3C685.3,290.6,685.1,290.9,684.7,291.2L684.7,291.2z"/>
	<path d="M654.6,144.1c0.7-0.1,1.4-0.1,2-0.2c1.9-0.4,3.7-0.5,5.6,0.2c1.1,0.4,2.4,0.5,3.6,0.7c0.3,0.9,1.3,0.9,1.9,1.3
		c0.7,0.5,1.5,1,2.2,1.4c-0.3,1-0.9,1.5-1.6,1.2c-2.1-0.8-4-0.6-6.1,0c-1.1,0.3-2.3,0.2-4.2,0.4c2.1,0.6,3.5,1.1,5.2,1.6
		c-2.4,1.5-4.8,1.6-7.5,1.4c0.4-0.9,0.7-1.5,1-2.4c-5.3-1.7-10.8-2.5-16.4-3.1c-0.6-0.8,0-1.4,0.7-1.5c0.9-0.2,1.8-0.2,2.7-0.1
		c3,0.6,5.9,1.2,8.8,1.9c1.2,0.3,2.4,0.6,3.7,0.1c0.7-0.3,1.6,0,2.4,0c0.9,0.1,1.8,0.2,2.8,0c-0.4-0.2-0.8-0.3-1.3-0.5
		c0,0-0.8-2-0.8-2c0.2,0,0.5,0,0.7-0.1c0.1,0,0.2-0.2,0.2-0.3c-0.1,0-0.2,0-0.3,0c-0.2,0.1-0.3,0.3-0.5,0.5c-1,0-2.1,0-3.1,0
		C655.7,144.9,655,144.8,654.6,144.1z"/>
	<path d="M650.8,212.7c0.6-0.4,0.8-0.7,1.1-0.7c4.4-0.6,8.8,0.2,13.1,0.6c1,0.1,2,0.7,2.6,1.6c0.5,0.8,1.5,1.4,1.6,3.1
		c-0.8-0.8-1.3-1.2-1.7-1.7c-0.9-1.4-2.2-1.9-3.8-2c-3.1-0.1-6.2-0.3-9.4-0.4C653.3,213.1,652.2,213.1,650.8,212.7z"/>
	<path d="M678.3,164.7c-0.5,0.9-1,1.5-1.2,2.2c-0.2,0.6-0.2,1.3-0.3,2c-0.4,0-0.8,0.2-1,0.1c-1.3-0.6-2.5-1.4-4.1-1.6
		C674.1,165.1,675.3,164.6,678.3,164.7z"/>
	<path d="M651.9,183.1c0.3,0.1,0.6,0.2,1.2,0.4c0.4,1,0.8,2.2,1.2,3.3c1.1,1.2,2.6,1.7,4.1,2.3c1.4,0.5,2.7,1.1,4,1.8
		c0.2,0.1,0.3,0.5,0.5,0.7l0.1,0c-2.5-0.5-4.9-1.2-7.3-2.1c-1.7-0.7-2.7-1.7-3.1-3.4c-0.2-1-0.4-2-0.6-3L651.9,183.1z"/>
	<path d="M680.2,163.2c-1.3,0.8-2.1,0.1-2.9-0.2c-2-0.8-4-1.1-5.9,0.1c-0.2,0.1-0.4,0.2-0.7,0.2c-0.1,0-0.2-0.1-0.4-0.2
		c0.1-1,0.9-1.1,1.6-1.5c1.3-0.6,2.6-0.9,4-0.6C677.4,161.4,679,161.7,680.2,163.2z"/>
	<path d="M658.2,193.6c-1.2-0.3-1.7-1.2-1.8-2.4C657.3,191.8,658.2,192.4,658.2,193.6L658.2,193.6z"/>
	<polygon points="644.3,150 644.3,150.2 644,150.1 	"/>
	<path d="M658.2,146c-0.1-0.1-0.2-0.1-0.3-0.2c0.1,0,0.2-0.1,0.3-0.1c0.1,0,0.2,0.1,0.3,0.1C658.4,145.9,658.3,146,658.2,146z"/>
	<polygon points="642.3,149.3 642.3,149.5 642,149.4 	"/>
	<polygon points="662.9,191.6 663.1,191.6 663,191.6 	"/>
	<path d="M658.2,193.6c0.2,0.1,0.3,0.2,0.5,0.3C658.1,194.3,658.3,193.8,658.2,193.6L658.2,193.6z"/>
	<polygon points="662,200.8 662.1,201 661.9,201 	"/>
	<path d="M654.6,168.5c0.1-0.2,0.2-0.3,0.4-0.5c0.4,0.4,0.2,0.5-0.2,0.6L654.6,168.5z"/>
	<path d="M692.7,185.5c-1.1-1-0.9-2.4-0.9-3.5c0-2.6-0.4-5.2,1-7.8C693.8,176.3,693.8,180.8,692.7,185.5z"/>
	<path d="M708.1,89.1c0.5,1.6,0.4,2.9-0.9,4.2C706.7,91.6,706.7,90.3,708.1,89.1z"/>
	<path d="M692.1,155c0.2,0.3,0.5,0.7,0.7,1.1C692,156.3,692.1,155.6,692.1,155z"/>
	<path d="M685.6,204.4c-0.2,0.1-0.3,0.2-0.5,0.3c0-0.2,0-0.4,0.1-0.6c0-0.1,0.2-0.1,0.3-0.2C685.5,204.1,685.5,204.3,685.6,204.4z"
		/>
	<path d="M692.2,189.4c0,0.5,0,1,0,1.6c-0.1,0-0.2,0-0.3,0c-0.1-0.5-0.1-1.1-0.2-1.6C691.9,189.4,692,189.4,692.2,189.4z"/>
	<path d="M705.8,102.5c0-0.3,0-0.6,0-0.9c0.1,0,0.1,0,0.2,0c0,0.3,0,0.6,0,0.9C705.9,102.5,705.8,102.5,705.8,102.5z"/>
	<path d="M691.4,195.8c0.1,0.8,0.2,1.1,0.2,1.4c0,0.1-0.1,0.2-0.2,0.2c-0.1-0.1-0.3-0.2-0.3-0.3
		C691.1,196.8,691.2,196.6,691.4,195.8z"/>
	<path d="M694.8,158.3c-0.2,0.1-0.5,0.3-0.6,0.3c-0.2-0.1-0.3-0.3-0.3-0.5c0-0.1,0.2-0.3,0.2-0.5C694.3,157.8,694.5,158,694.8,158.3
		z"/>
	<path d="M685.1,201.3c0,0.1,0,0.2-0.1,0.3c-0.1-0.1-0.2-0.2-0.2-0.3c0-0.1,0.1-0.1,0.2-0.2C685,201.1,685.1,201.2,685.1,201.3z"/>
	<path d="M690.5,202.2c0-0.2-0.1-0.3-0.1-0.4c0,0,0.1,0,0.2-0.1C690.6,201.9,690.5,202,690.5,202.2z"/>
	<polygon points="706.5,96.9 706.7,96.6 706.7,96.9 	"/>
	<path d="M649.6,581.3c0.8-0.3,1.1-0.5,1.4-0.5c1.6,0,3.1,0,5,0c-0.8,1.2-1.9,1.4-3,1.5C652,582.3,650.8,582.6,649.6,581.3z"/>
	<path d="M660.2,593.3c-0.1,0.2-0.1,0.3-0.2,0.5C659.5,593.2,660.1,593.4,660.2,593.3L660.2,593.3z"/>
	<path d="M644.9,158.8c0.6,0,1.2,0,1.3,0.8l0.1-0.1C645.8,159.3,645.1,159.6,644.9,158.8L644.9,158.8z"/>
	<path d="M646.2,159.6c0.2,0,0.4,0,0.6,0c0.1,0,0.2,0,0.3,0c-0.1,0.1-0.3,0.2-0.3,0.2C646.6,159.8,646.5,159.6,646.2,159.6
		L646.2,159.6z"/>
	<path d="M649.4,160.6c-0.1,0-0.2,0.1-0.3,0.1c-0.1,0-0.2-0.1-0.2-0.1c0.1,0,0.2-0.1,0.3-0.1C649.2,160.5,649.3,160.5,649.4,160.6z"
		/>
	<path d="M639.3,165.8c0.2,0,0.4,0,0.6,0c0.1,0,0.1,0.2,0.2,0.3c-0.1,0-0.2,0-0.3,0C639.7,166,639.5,165.9,639.3,165.8L639.3,165.8z
		"/>
	<polygon points="639.3,174.8 639.5,174.9 639.4,174.7 	"/>
	<path d="M639.4,177c-0.5,0-0.9-0.2-0.8-0.8C639.1,176.2,639.5,176.4,639.4,177z"/>
	<path d="M240.3,466.9c0.8-1.5,1.6-2.9,2.3-4.2c-0.8-2.5-1.6-4.8,0-7c0.8,0,1.1,0.4,1,0.9c-0.5,1.8-0.4,3.6,0.3,5.4
		c0.4,1.1-0.1,2.3-0.7,3.3c-0.5,0.9-1.1,1.8-2.3,1.9C240.8,467.2,240.7,467.1,240.3,466.9z"/>
	<path d="M229,324.5c0.3,1.9-0.9,3.2-1.4,4.7c-0.5,1.4-1.1,2.8-1.7,4.2c-0.6,1.5-1.1,3-2,5.3c0-1.3-0.2-1.9-0.1-2.4
		c0.9-3.9,2.4-7.5,4.2-11C228.1,325,228.5,324.8,229,324.5z"/>
	<path d="M220.1,560.9c-0.4-0.2-0.7-0.2-0.7-0.4c-0.4-1.3,0.3-8.2,1-11c1,1.5,0.9,3.1,0.6,4.8C220.7,556.5,220.5,558.7,220.1,560.9z
		"/>
	<path d="M227.2,486c0.1-1.8,0.1-3.6,0.2-5.5c0.1-1.2,0.2-1.3,1.4-2.9c0.1,0.1,0.4,0.3,0.4,0.4c-0.4,2.1-0.7,4.2-1.1,6.3
		C227.9,485,228,485.8,227.2,486L227.2,486z"/>
	<path d="M238.7,451.4c-1-0.4-0.9-1.2-0.8-2c0.2-1.7,0.5-3.4,0.7-5c0.8,0.4,0.8,1.2,0.7,2C239.2,448,239,449.7,238.7,451.4z"/>
	<path d="M229.1,466.1c0,1.8,0,3.6,0,5.3C228.5,469.6,227.7,467.8,229.1,466.1z"/>
	<path d="M227.1,486c0.1,1,0.2,2,0.2,3c0,0.9-0.2,1.8-1,2.4C226.1,489.5,226.4,487.6,227.1,486L227.1,486z"/>
	<path d="M252.2,343.3c-1.4,0.1-2.5-0.5-3.4-1.4l-0.1,0.1C250.1,342,251.2,342.5,252.2,343.3L252.2,343.3z"/>
	<path d="M248.9,341.8c-1.4,0.1-2.5-0.4-3.5-1.4l-0.1,0.1C246.6,340.7,247.8,341,248.9,341.8L248.9,341.8z"/>
	<path d="M223.1,403.1c-1.4-0.9-0.5-2.1-0.3-3.3C222.8,400.9,222.9,402,223.1,403.1L223.1,403.1z"/>
	<path d="M269.2,362.4c0.6,1-0.2,1.6-0.4,2.6C268.1,363.7,268.6,363.1,269.2,362.4z"/>
	<path d="M220.6,543.8c0,0.5,0,1.1,0,1.6c-0.1,0-0.1,0-0.2,0c0-0.5,0-1.1,0-1.6C220.5,543.8,220.6,543.8,220.6,543.8z"/>
	<path d="M250.2,347.5c0.4,0.1,0.9,0.2,1.4,0.2C250.9,348.2,250.6,347.8,250.2,347.5L250.2,347.5z"/>
	<path d="M248.1,346.7c0.7,0.3,1.4,0.5,2,0.8l0.1-0.1C249.6,347.2,248.6,347.7,248.1,346.7L248.1,346.7z"/>
	<path d="M223,403.2c0.2,0.4,0.4,0.8,0.5,1.2c-0.1,0-0.2,0.1-0.4,0.1C223.1,404,223.1,403.5,223,403.2L223,403.2z"/>
	<path d="M248.2,346.7c-0.5,0-1.1,0-1.6,0c0-0.1,0-0.2,0-0.3C247.1,346.5,247.6,346.6,248.2,346.7L248.2,346.7z"/>
	<path d="M221.8,347.6c0-0.3,0-0.6,0-0.9c0.1,0,0.1,0,0.2,0c0,0.3,0,0.6,0,0.9C222,347.6,221.9,347.6,221.8,347.6z"/>
	<path d="M243.2,345.4c0.5,0.1,1,0.1,1.7,0.2C244.1,346.2,243.7,345.9,243.2,345.4L243.2,345.4z"/>
	<path d="M225.6,413.9c-0.3-1-0.4-1.3-0.4-1.5c0-0.1,0.2-0.3,0.4-0.6C225.6,412.4,225.6,412.8,225.6,413.9z"/>
	<path d="M257.2,345.3c-0.8,0-1.6,0.2-2.1-0.6l-0.1,0.1C255.8,344.7,256.5,344.7,257.2,345.3L257.2,345.3z"/>
	<path d="M252.2,343.4c0.5,0.1,1.2-0.1,1.4,0.7l0.1-0.1C253.1,343.9,252.4,344,252.2,343.4L252.2,343.4z"/>
	<path d="M255.1,344.7c-0.5-0.2-1-0.5-1.4-0.7l-0.1,0.1C254.1,344.1,254.8,343.9,255.1,344.7L255.1,344.7z"/>
	<path d="M245.4,340.4c-0.2,0-0.4,0-0.6,0c-0.1,0-0.2,0-0.3,0c0.1-0.1,0.3-0.2,0.3-0.2C245,340.2,245.2,340.4,245.4,340.4
		L245.4,340.4z"/>
	<polygon points="242.6,339.6 242.3,339.5 242.6,339.4 	"/>
	<polygon points="251,355.6 250.7,355.6 250.8,355.5 	"/>
	<path d="M284.1,350.8c-0.1,0-0.2-0.1-0.2-0.1c0.1-0.1,0.2-0.2,0.3-0.2c0,0,0.1,0.1,0.2,0.2C284.3,350.7,284.2,350.7,284.1,350.8z"
		/>
	<path d="M258.5,346.1c0.3,0.1,0.6,0.1,1,0.2C259,346.8,258.8,346.5,258.5,346.1L258.5,346.1z"/>
	<path d="M258.6,346c-0.6-0.1-1.3,0.2-1.5-0.7l-0.1,0.1C257.6,345.6,258,345.9,258.6,346L258.6,346z"/>
	<path d="M243.3,345.3c-0.3,0-0.6-0.1-0.3-0.1C242.7,345.1,243,345.3,243.3,345.3L243.3,345.3z"/>
	<path d="M271.6,344.7c-0.1,0.1-0.2,0.2-0.4,0.3c0-0.2-0.1-0.4-0.1-0.6c0-0.1,0.1-0.1,0.2-0.2C271.5,344.3,271.5,344.5,271.6,344.7z
		"/>
	<path d="M221.1,531.9c0.1,0,0.2,0,0.2,0c0,0.1,0,0.2,0.1,0.3c-0.1,0-0.2,0-0.3,0C221,532,221.1,531.9,221.1,531.9z"/>
	<path d="M220.6,539.8c0,0-0.1-0.1-0.1-0.1c0.1-0.1,0.1-0.1,0.2-0.2C220.6,539.7,220.6,539.7,220.6,539.8z"/>
	<polygon points="225.9,495.2 225.9,495 225.8,495.1 	"/>
	<path d="M225.8,495.1c-0.1,0.1-0.2,0.2-0.3,0.3c0-0.1,0.1-0.2,0.1-0.2C225.6,495.2,225.8,495.2,225.8,495.1L225.8,495.1z"/>
	<path d="M167.9,247.8c-1,0-1.9,0-2.9,0c0-0.1,0-0.2,0-0.4c0.9,0,1.9,0,2.8,0C167.9,247.5,167.9,247.7,167.9,247.8z"/>
	<path d="M161,246.5c-1,0-1.7-0.5-2.1-1.4l-0.1,0.1C159.8,245.3,160.6,245.6,161,246.5L161,246.5z"/>
	<path d="M173.7,247.7c-0.3,0-0.6,0-0.9,0c0-0.1,0-0.1,0-0.2c0.3,0,0.6,0,0.9,0C173.7,247.6,173.7,247.6,173.7,247.7z"/>
	<path d="M161,246.6c0.5,0,1.1,0,1.6,0c0,0.1,0,0.3,0,0.4c-0.3,0.1-0.7,0.2-0.9,0.2C161.4,247,161.2,246.7,161,246.6L161,246.6z"/>
	<path d="M188.8,167.8c-0.2,0-0.5,0-0.7-0.1c-0.1,0-0.2-0.2-0.3-0.4c0.1,0,0.2-0.1,0.3-0.1C188.4,167.5,188.6,167.7,188.8,167.8
		L188.8,167.8z"/>
	<polygon points="188.8,167.9 189,168 188.8,167.8 	"/>
	<path d="M277.9,315.5c-0.6,1.3-1.3,2.1-0.9,3.2c0.2,0.6,0.2,1.4,0.2,2c0,1-0.4,1.7-0.8,1.6c-0.6-0.2-0.9-0.7-1-1.3
		c-0.1-1-0.2-2.1-0.1-3.1C275.5,316.8,276.1,315.9,277.9,315.5z"/>
	<path d="M281.3,290.2c0.1,1,0.4,2.1-0.1,3.4C280.7,292.2,280.7,291.2,281.3,290.2z"/>
	<path d="M279.3,308.7c0,0.6-0.1,1.3-0.1,1.9c-0.1,0-0.2,0-0.3,0c0-0.7,0-1.3,0-2C279,308.6,279.2,308.6,279.3,308.7z"/>
	<path d="M281.3,296.5c-0.1,0.1-0.2,0.2-0.3,0.4c0-0.1-0.1-0.2-0.1-0.3c0-0.2,0.1-0.4,0.2-0.6C281.2,296.1,281.3,296.3,281.3,296.5z
		"/>
	<path d="M343.4,238.2c0.3-0.3,0.5-0.5,0.8-0.8C344.2,237.9,343.9,238.2,343.4,238.2z"/>
	<path d="M342.7,238.9c0.3-0.3,0.5-0.5,0.8-0.8C343.2,238.4,343,238.6,342.7,238.9z"/>
	<path d="M342,239.6c0.3-0.3,0.5-0.5,0.8-0.8C342.5,239.1,342.3,239.3,342,239.6z"/>
	<path d="M344.1,237.5c0-0.5,0.3-0.8,0.8-0.8C344.8,237.2,344.6,237.5,344.1,237.5z"/>
	<path d="M227.4,225c-2.4,0.9-4.6,1.8-7,2.7c-1.3-0.7-3.1-0.8-3.5-2.8c0.2-0.1,0.5-0.2,0.5-0.1c1.5,1.6,3.2,1.6,5.1,0.8
		c1.4-0.6,2.8-1.2,4.3-1.8c0-0.5,0-1.1,0.1-1.6c0.1-0.5,0.2-1.1,0.3-1.8c0.5,0.2,1,0.2,1.1,0.4c0.4,0.7,0.7,1.5,0.9,2.3
		c0.8,3.3,1.6,6.5,1.6,9.9c0.1,4.4,0.5,8.8,0.7,13.2c0.1,1.6-0.1,3.2-0.3,4.8c-0.3,2.6-0.8,5.3-1,7.9c-0.2,2.4-0.6,4.8-1.5,7
		c0.3,2.6,1.8,4.8,2.1,7.3c-0.9,0.5-1.2-0.1-1.5-0.5c-1.2-1.9-1.8-4-2-6.2c-0.1-1.6-0.1-3.3,0.1-4.9c0.5-4,1.2-8,1.8-12
		c0.2-1.6,0.4-3.2,0.4-4.8c-0.3-5.3-0.7-10.6-1.1-15.9C228.3,227.6,228.1,226.3,227.4,225z"/>
	<path d="M240.7,272.7c1.1,0.1,1.2,1.1,1.3,1.7c0.6,2.6,1.5,5.2,0.7,8.1c-0.3-0.2-0.6-0.2-0.7-0.3
		C241.6,279,241.2,275.9,240.7,272.7z"/>
	<path d="M235.9,215.8c0.7,1.3,1,2.7,0.9,4.3C235.6,218.3,235.6,218.3,235.9,215.8z"/>
	<path d="M216.1,249.3c0.5,0.4,1,0.8,1.4,1.2c-0.7,0.9-1.1-0.1-1.5,0.1l0.1,0.1C216,250.3,216,249.8,216.1,249.3L216.1,249.3z"/>
	<path d="M230.9,275.8c0.4,0.6,0.7,1,1.1,1.5C231,277.1,231,277.1,230.9,275.8z"/>
	<path d="M238.8,227.1c-0.1,0-0.1,0.1-0.2,0.1c0-0.1-0.1-0.2,0-0.3c0,0,0.1-0.1,0.2-0.1C238.7,226.9,238.7,227,238.8,227.1z"/>
	<path d="M216,249.3c-0.2-0.1-0.3-0.2-0.5-0.3c0.1-0.1,0.2-0.2,0.3-0.3C215.9,248.9,216,249.1,216,249.3L216,249.3z"/>
	<path d="M273.5,169c-1.4,0.3-2-0.4-2.8-0.9c-0.6-0.4-1.5-0.5-2.5-0.7c0.8-1.2,2-1.6,3-2.2c1.1-0.7,2.3-1,3.7-0.5
		C274.1,166,273,167.2,273.5,169z"/>
	<path d="M259.9,191.5c-3.1-0.1-5.8-1.3-8.6-2.4c-0.9-0.4-1.5-1-1.9-1.9c-0.5-1.2-0.6-1.8-0.5-3.9c0.4,0.4,0.8,0.7,0.9,1
		c0.3,2.7,2.1,3.9,4.4,4.6c1.7,0.6,3.4,1.4,5.1,2.1C259.6,191.1,259.7,191.4,259.9,191.5L259.9,191.5z"/>
	<path d="M276.6,163.1c-0.3,0.2-0.5,0.5-0.6,0.5c-0.6-0.1-1.1-0.2-1.7-0.4c-2.3-1-4.7-1.3-7,0.1c-0.1,0.1-0.4-0.1-0.7-0.1
		c0.4-1.3,1.6-1.5,2.6-1.9c1.4-0.6,2.7-0.4,4.1,0C274.6,161.6,275.9,161.9,276.6,163.1z"/>
	<path d="M253.7,192.2c1.1,0.3,1.3,1.2,1.7,2.1C254.4,193.9,253.7,193.3,253.7,192.2L253.7,192.2z"/>
	<path d="M255.7,145.5c-0.3,0.2-0.5,0.4-0.8,0.5c-0.1,0.1-0.4-0.1-0.9-0.2C254.9,145.7,255.3,145.7,255.7,145.5L255.7,145.5z"/>
	<path d="M253.6,192.2c-0.3-0.2-0.6-0.3-0.8-0.5c-0.1-0.1,0-0.4,0-0.5c0.2,0,0.5,0,0.6,0.1C253.5,191.5,253.6,191.9,253.6,192.2
		L253.6,192.2z"/>
	<path d="M237.7,151.2c-0.5-0.3-1-0.5-1.5-0.8C236.7,150.7,237.2,150.9,237.7,151.2z"/>
	<path d="M258.4,201.3c-0.1-0.2-0.2-0.4-0.3-0.6C258.2,200.9,258.3,201.2,258.4,201.3L258.4,201.3z"/>
	<path d="M236.3,150.5c-0.5-0.3-1-0.5-1.5-0.8C235.3,150,235.8,150.2,236.3,150.5z"/>
	<polygon points="239,149.5 238.7,149.4 239,149.3 	"/>
	<path d="M259.8,191.5c0.1,0,0.1,0.1,0.2,0.1C260,191.6,259.9,191.5,259.8,191.5L259.8,191.5z"/>
	<polygon points="258.3,201.4 258.6,201.4 258.4,201.3 	"/>
	<path d="M283.3,263.7c-0.2,0.1-0.4,0.2-0.6,0.2c-0.1,0-0.2-0.2-0.3-0.4c0.2-0.1,0.4-0.2,0.6-0.2
		C283.1,263.3,283.2,263.6,283.3,263.7z"/>
	<path d="M321.2,237.4c-1.7-1.8-2.1-4-1.5-6.5c0.5,1.6,1,3.2,1.5,4.9C321.2,236.4,321.1,237,321.2,237.4L321.2,237.4z"/>
	<path d="M312.3,224.8c1.4,0.3,1.4,0.3,1.8,2.1C313.3,226,312.8,225.4,312.3,224.8z"/>
	<path d="M302.8,274.8c0,0.5,0,0.8-0.1,1C302.2,275.6,302.5,275.3,302.8,274.8z"/>
	<path d="M322.5,240.1c-0.1,0.1-0.2,0.2-0.3,0.4c0-0.2-0.1-0.4-0.1-0.6c0-0.1,0.1-0.2,0.2-0.3C322.4,239.7,322.4,239.9,322.5,240.1z
		"/>
	<path d="M323.8,243.6c0,0.6,0,1.1,0,1.9C323,244.7,323.4,244.2,323.8,243.6L323.8,243.6z"/>
	<path d="M314.8,277.9c0.2,0.1,0.4,0.2,0.5,0.3c0.1,0.1,0,0.4,0,0.6c-0.1-0.1-0.3-0.2-0.4-0.3C314.9,278.3,314.9,278.1,314.8,277.9
		L314.8,277.9z"/>
	<path d="M314.9,277.9c-0.1-0.1-0.4-0.2-0.4-0.4c-0.1-0.1,0.1-0.3,0.1-0.5c0.1,0.1,0.3,0.2,0.3,0.4
		C314.9,277.5,314.9,277.7,314.9,277.9L314.9,277.9z"/>
	<path d="M300.9,273.1c-0.1,0.1-0.3,0.2-0.4,0.2c0-0.2-0.1-0.4-0.1-0.6c0-0.1,0.2-0.1,0.2-0.2C300.8,272.7,300.8,272.9,300.9,273.1z
		"/>
	<path d="M321.1,237.5c0.1,0,0.2,0,0.3,0C321.3,237.5,321.2,237.5,321.1,237.5L321.1,237.5z"/>
	<path d="M246.4,581.1c2.1-0.6,4.1-0.1,6.1-0.2c-1.7,1.6-3.6,1.7-5.6,1.1C246.7,582,246.6,581.5,246.4,581.1z"/>
	<path d="M222.3,154.6c-0.3,2.9-0.7,5.9-1.1,9.2c-0.5-2.4-0.5-4.5-0.2-6.6C221.1,156.2,221.2,155.1,222.3,154.6L222.3,154.6z"/>
	<path d="M224.9,150.3c0,0.1,0.1,0.2,0.1,0.3c-0.6,1.4-1.4,2.7-2.8,3.9l0.1,0.1C222.4,152.7,223.7,151.5,224.9,150.3L224.9,150.3z"
		/>
	<path d="M222,172.7c0,0.2,0.1,0.4,0.1,0.6c-0.1,0.4-0.2,0.4-0.3,0c0-0.2,0-0.4,0-0.6C221.8,172.7,222,172.7,222,172.7z"/>
	<path d="M225,150.4c0.3-0.2,0.5-0.5,0.8-0.7l-0.1-0.1C225.7,150.1,225.5,150.4,225,150.4L225,150.4z"/>
	<path d="M221.7,175.5c-0.1,0-0.2-0.1-0.3-0.1C221.4,175.4,221.5,175.5,221.7,175.5L221.7,175.5z"/>
	<path d="M275.9,229.1c-0.1-0.1-0.2-0.3-0.2-0.4c0.1,0,0.2,0.1,0.2,0.2C275.9,229,275.8,229.1,275.9,229.1L275.9,229.1z"/>
	<path d="M231.3,166.5c0.7,0.3,1.4,0.5,2.4,0.9C232.2,167.5,232.2,167.5,231.3,166.5L231.3,166.5z"/>
	<path d="M239.8,178.2c-0.6,0.8-0.8,0.8-1.5,0C238.7,178.2,239.2,178.2,239.8,178.2z"/>
	<path d="M236.2,165.8c0.3,0.1,0.5,0.2,0.8,0.3c-0.1,0-0.2,0.1-0.3,0.1C236.5,166,236.4,165.9,236.2,165.8L236.2,165.8z"/>
	<path d="M243.2,158.1c-0.9-0.2-1.6-0.1-2.1,0.7c-1.6-0.5-3.3-0.6-4.3-2.2C239,156.9,241.2,157.1,243.2,158.1z"/>
	<path d="M232,153.9c1.5,0.3,2.7,0.9,3.6,2.2C234,155.9,232.8,155.2,232,153.9z"/>
	<path d="M241,158.7c0.7,0,1.5,0,2.2,0c0,0.3-0.1,0.5-0.1,0.8l0.1-0.1C242.4,159.4,241.6,159.5,241,158.7z"/>
	<path d="M235.4,156c0.7,0,1.3,0.1,1.5,0.8C236.3,156.8,235.7,156.8,235.4,156z"/>
	<path d="M243.1,159.5c0.2,0,0.4,0.1,0.6,0.1c0.1,0,0.2,0.1,0.3,0.1c-0.1,0.1-0.4,0.2-0.4,0.2C243.4,159.8,243.3,159.6,243.1,159.5
		L243.1,159.5z"/>
	<path d="M242.4,155.4c0.3,0,0.7,0,1.3,0C242.9,155.9,242.7,155.7,242.4,155.4L242.4,155.4z"/>
</g>
</svg>
