<?xml version="1.0" encoding="utf-8"?>
<!-- Generator: Adobe Illustrator 20.1.0, SVG Export Plug-In . SVG Version: 6.00 Build 0)  -->
<svg version="1.2" baseProfile="tiny" id="Layer_2" xmlns="http://www.w3.org/2000/svg" xmlns:xlink="http://www.w3.org/1999/xlink"
	 x="0px" y="0px" viewBox="0 0 900 600" xml:space="preserve">
<g>
	<path d="M660,546.8c-0.9,0.3-1.7,1.1-2.4,1.8c-0.7,0.8-1.3,1.8-1.8,2.9c-1.1,2.5-3.1,4-5.1,5.7c-0.8-0.3-1.5-0.6-2.3-0.7
		c-2.2-0.3-3.3-1.6-3.7-3.8c0.7-1.2,1.3,0.1,2.2,0.1c0-0.7-0.1-1.4-0.1-2.1c-2.1-0.7-2.1-0.7-4.1,0.1c-0.5,3.1-0.7,6.4-0.9,9.6
		c-0.1,2.6-0.4,5.2-0.7,7.7c-0.1,0.9-0.4,1.9-0.9,2.5c-1.7,2-1.8,4.5-3,6.7c2,2,5.2,1.4,6.9,3.4c3.7,0.6,6.7-1.1,9.9-2.4
		c1.2,2.5,3.5,3.7,5.8,4.8c0.4,0.2,0.9,0.4,1.1,0.8c0.7,1.6,2.2,1.8,3.6,2.1c3.5,0.8,6.9,0.6,10.4,0.3c1.3-0.1,2.7-0.3,4-0.3
		c3.1-0.1,6-0.6,8.9-1.8c1.5-0.7,2.3-1.7,2.1-3.4c-0.3-2.4-0.1-5-1.2-6.9c-3.3-2.6-6.4-4.9-9.5-7.3c-1.9,0.6-3.9,1.2-6.1,0.2
		c1.4-0.8,1.4-0.8,4.4-1c0.3-0.8-0.3-1.1-0.8-1c-1.9,0.4-3.7,0.9-5.5,1.4c-0.9,0.3-1.8,0.7-2.7,1.1c-0.7-0.6-0.5-1.2-0.1-1.6
		c0.9-0.8,1.9-1.6,2.8-2.3c1.3,0,2.6-0.1,3.9-0.3c-0.1-0.9-0.6-1.2-1.2-0.9c-0.9,0.4-1.8,0.9-2.7,1.4c-2.3,0.7-4.7,1.4-6.9,2.1
		c-0.7-0.5-0.6-1.1-0.3-1.6c0.5-1.1,1.4-1.7,2.5-2.1c1.5-0.6,3-1.1,4.4-1.6c0.5-0.2,1-0.4,1.4-0.5c0.1-0.7-0.3-1.1-0.8-1
		c-3,0.3-6,1-8.6,2.7c-0.7,0.4-1.3,0.8-2,1.2c-0.8-0.8-0.6-1.5-0.2-2.2c0.6-1.3,1.7-2.1,2.9-2.7c2-1,4.2-1.3,6.7-1.3
		c-0.3-1.2-1.1-1.6-1.9-1.6c-1.2,0-2.5,0.2-3.6,0.5c-2,0.6-3.7,1.6-5.4,2.8c-0.6,0.4-1.1,1.1-2.2,0.7c0.2-1.6,1.3-2.5,2.5-3.3
		s2.5-1.5,3.9-2c1.3-0.5,2.8-0.6,4.5-0.9c-1-2.5-3.2-4.1-3.7-6.7c1-0.1,1.7,0.5,2.3,1.2c2.7,3.2,5.1,6.6,7.2,10.2
		c1.8,3.2,4.3,5.8,7.1,8c1.1,0.8,2.2,1.5,2.8,2.9c0.2,0.5,0.8,0.8,1.3,1.1c1.3,0.6,2.7,1.2,4,1.8c0.7,0.3,1.4,0.7,1.8,0.9
		c0.2,1.3,0.4,2.3,0.6,3.2c0.2,1.3,0.7,2.6,0.7,4c0.2,3.4-2.4,7-5.6,8c-1.8,0.5-3.7,0.8-5.6,1c-2.2,0.3-4.5,0.4-6.7,0.7
		c-7.4,0.7-14.1-0.9-19.6-6.2c-0.6-0.5-1.2-1-1.8-1.6c-2.9,1.7-6,1.9-9.2,1.5c-0.2,0-0.5,0-0.7,0c-2.7,0-5-1.2-7.2-2.6
		c-0.7-0.5-1.1-1.2-0.9-2c0.1-0.6,0.4-1.3,0.7-1.9c1.6-3.2,3-6.6,3.5-10.2c0.6-4,0.9-8.1,1.1-12.1c0.1-1.9,0.5-3.5,2.3-4.9
		c1.1,0.1,2.4,0.2,3.8,0.4c0.4-1.5,0-3-0.2-4.4c-0.6-3.4-1.2-6.9-1.7-10.3c-0.7-4.3-1.2-8.7-1.8-13.1c-0.1-0.9-0.3-1.8-0.3-2.7
		c0.1-2.4-0.5-4.7-1.5-6.9c-2.1-4.7-3-9.7-3.6-14.7c-0.2-1.4-0.1-2.9,0.1-4.4c0.3-2.5,0.7-4.9,1.1-7.3c0.5-3.6,0.9-7.2,1.5-10.7
		c0.6-3.8,1.5-7.5,2.3-11.4c-1.9-4.8-2.4-10.1-2.8-15.4c-0.1-0.7,0-1.4,0.5-1.9c0.8-0.8,0.6-1.6,0.3-2.5c-0.2-0.6-0.5-1.3-0.8-1.9
		c-3.9-8.6-7.1-17.5-9.3-26.8c-0.5-2.1-1.2-4.1-1.8-6.2c-0.1-0.4,0-0.9-0.7-0.9c-0.2,0.2-0.4,0.5-0.5,0.8
		c-2.8,9.7-6.6,18.9-11.9,27.5c-0.4,0.6-0.7,1.2-0.9,1.8c-0.8,3.5-1.5,7-2.2,10.6c-0.5,2.3-1.1,4.6-2.1,6.7
		c-1.9,3.9-3.9,7.6-6.5,10.9c0,1.2,0,2.2,0,3.2c-0.2,9.3-0.8,18.4-3.2,27.4c-1.7,6.2-3.5,12.3-4.7,18.7c-1.3,7-1.8,14.1-2.1,21.2
		c-0.2,4.5,0.2,9,0.3,13.6c0.6,0.8,1.4,1.6,1.9,2.6c2.5,4.3,5,8.6,7.4,12.9c0.6,1.1,1.4,2,2.6,2.5c1.8,0.8,3.6,1.8,5.5,2.5
		c1.4,0.5,1.7,1.6,1.7,2.7c2,1.5,4.6,0.9,6.4,2.3c0.5,2.2,1,4.3,1.4,6.4c0.2,1,0.4,2.2,0,3c-1,2-2.5,3.8-5,4.2
		c-1.6,0.2-3.1,0.6-4.5,1.2c-4.2,1.7-8.5,1.9-12.9,0.8c-0.9-0.2-1.8-0.4-2.7-0.5c-4.2,0-7.9-1.4-11.5-3.5c-1.4-0.8-2.7-1.5-4-2.2
		c-7.5,2.8-11.6,2.9-17.8-3.8c0.3-3.6,1.5-6.9,3.6-10c1.1-1.6,1.6-3.4,1.7-5.4c0.1-2,0.5-4,0.8-6c0.2-1,0.5-2,0.5-3
		c0-1.6,0.5-3.1,1.3-4.5c0.1-0.2,0.3-0.3,0.5-0.6c0.9-0.1,1.9-0.2,2.9-0.3c0-0.9-0.1-1.5-0.1-2.2c-0.4-4.8-1-9.7-1-14.5
		c-0.1-7.6-1.1-15.1-1.9-22.6c-0.6-5-1.3-10.1-1.9-15.1c-0.1-0.7-0.1-1.4-0.4-2c-1-1.7-0.9-3.4-0.8-5.2c0.2-9,2.6-17.6,5.9-25.9
		c1.1-2.8,2.3-5.7,3.9-8.2c2.1-3.2,3.2-6.6,4.1-10.3c0.5-2.1,1.1-4.1,1.5-6.2c0.3-1.5,0.7-3.1,0.8-4.7c0.5-6.6,1-13.3,0.8-19.9
		c-0.1-4.4-0.1-8.8-0.1-13.2c0-1.4-0.1-2.7-0.2-4.1c-0.2-3.5-0.4-7-0.4-10.5c-0.2-7,0.3-14,0.8-20.9c0.5-7.1,1.1-14.1,2.5-21.1
		c2.2-10.7,6-20.8,12.2-29.8c1.3-1.9,2.5-3.7,3.8-5.6c1.3-1.9,2.1-4,2.4-6.2c0.8-5.5,0.4-10.8-1.8-15.9c-0.3-0.6-0.6-1.2-0.8-1.9
		c-0.8-3.7-2.5-7-4-10.4c-1.3-2.9-2.9-5.6-3.1-8.8c0-0.2-0.1-0.4-0.2-0.7c-1.5-4.7-3.1-9.4-4.6-14.1c-0.7-2.4-1.3-4.8-2-7.1
		c-0.1-0.4,0-1-0.3-1.3c-1.2-2-0.9-4.1-0.7-6.2c0.1-1.5,0.1-2.9,0.2-4.4c0.1-1.2-0.2-2.2-0.8-3.2c-1.9-3-3.3-6.2-4-9.6
		c-0.7-3.1-1.4-6.2-1.9-9.3c-0.8-5.4-2-10.6-4.1-15.6c-1.2-3-1.9-6.2-2.8-9.4c-0.4-1.5-0.7-3-1.4-4.5c-0.6-1.1-0.9-2.3-1.1-3.5
		c-0.6-3.8-1.1-7.6-1.5-11.4c-0.5-3.9-0.9-7.8-1.4-11.7c-0.1-0.7-0.4-1.3-0.6-1.9c-0.5-1.6-1.1-3.2-1.4-4.9
		c-1-6.2-1.8-12.5-2.7-18.7c-0.3-1.9-0.6-3.8-0.6-5.7c-0.3-8.2,0.3-16.4,1.1-24.6c0.1-1,0-1.9,0-3.3c-0.9,0.7-1.6,1.1-2.1,1.6
		c-3.2,3-6.9,5-10.9,6.6c-3.6,1.5-7.3,2.2-11.2,2.3c-3.8,0-7.4-0.5-11-1.3c-4.8-1.1-9.1-3.1-13.5-5.3c-2.3-1.2-4.3-2.9-6.2-4.7
		c-4.6-4.6-7.9-10.1-10-16.3c-2.3-6.8-3.1-13.8-2.8-21c0-1.2,0.4-2.5-0.1-3.8c-0.4-0.1-0.8-0.3-1.2-0.4c-5.4-1-10.9-1.9-16.3-2.8
		c-4.6-0.8-9.3-1.7-13.8-3.1c-0.4-0.6-0.8-1.2-1.1-1.8c-0.7-1.4-0.8-2.9,0.3-4.1c1.3-1.4,2.9-2.5,5-2.1c2.1,0.4,4.2,1,6.3,1.4
		c7,1.3,14,2.6,20.9,3.9c0.5,0.1,1.1,0,1.7,0c0.2-0.5,0.4-0.9,0.5-1.3c0.9-3.6,2.3-7.1,3.9-10.4c3-6.5,7.2-12.2,12.5-17
		c4.1-3.7,8.8-6.2,14-7.9c2.9-0.9,5.9-1.4,9-1.3c5,0.1,9.9,0.7,14.7,2.1c9.7,2.7,17.1,8.5,22.1,17.2c3,5.1,4.7,10.7,5.7,16.5
		c0.7,4.1,0.8,8.3,0.7,12.5c0,1.4-0.2,2.9,0.7,4.4c33,6.1,66,12.1,99,18.2c0.4,0.1,0.9,0.1,1.3,0.1c0.1,0,0.2,0,0.3-0.1
		c0.1,0,0.2-0.1,0.4-0.2c0.2-0.3,0.3-0.8,0.6-1.1c1.4-1.1,2-2.7,2.7-4.2c1.5-3.4,3.3-6.7,5.6-9.6c3.7-4.5,7.9-8.2,13.3-10.7
		c6.8-3.2,13.9-3.6,21.1-2.8c4,0.4,7.6,2.1,11.3,3.4c1.3,0.5,2.5,1.1,3.6,1.8c7.4,4.5,12.4,11,15.4,19.1c1.7,4.7,2.7,9.5,2.7,14.5
		c0,1.1,0.1,2.2,0.1,3.4c0.7,0.2,1.2,0.4,1.7,0.5c3.4,0.6,6.9,1.1,10.3,1.7c2,0.3,3.1,1.8,3.7,3.5c0.5,1.5-0.3,2.6-1.3,3.6
		c-0.5,0.6-1.2,1-1.8,1.4c-4.7-0.5-9.1-1.7-13.5-2.1c-0.3,0.2-0.5,0.3-0.5,0.4c-0.4,1.1-0.7,2.1-1,3.2c-3.3,9.6-8.6,17.6-17.4,22.9
		c-3.9,2.3-8,4.1-12.6,4.4c-2.6,0.2-5.2-0.2-7.7-0.4c-4.6-0.5-9-1.9-13.5-3.1c-1.5-0.4-2.9-1.2-4.3-1.9c-0.7-0.3-1.4-0.7-2.3-1.1
		c-0.2,1.8-0.3,3.3-0.5,4.8c-0.5,3.9-1.1,7.8-1.6,11.7c-0.8,6.3-2.6,12.1-6.8,17.2c0.6,1.7-0.2,3.2-0.9,4.7c-1.9,4.1-2.9,8.5-4,12.9
		c-1.1,4.7-2.5,9.4-3.9,14c-0.8,2.8-1.6,5.6-3.8,7.8c-0.2,0.2-0.3,0.6-0.5,0.9c-4.2,7.5-9.3,14.4-14.5,21.2c-0.5,0.6-0.9,1.3-1.1,2
		c-0.6,1.8-1,3.7-1.5,5.6c2.4,3.4,4.7,6.9,7.1,10.3c1.8,2.6,3.4,5.3,4.4,8.4c0.5,1.6,1,3.2,2,4.7c0.5,0.7,0.6,1.7,0.6,2.6
		c0,2.3-0.1,4.5-0.1,6.8c0,2.4-0.7,4.5-2.2,6.3c-2,2.4-4.2,4.7-7.2,5.9c-1.1,0.4-2.4,0.8-3.3,2.1c-0.4,2.9-0.8,6-0.5,9.2
		c0.4,4.5,0.2,9-0.3,13.5c-0.2,1.5-0.6,2.9-0.5,4.4c0.3,6,0.5,11.9,2.6,17.6c0.8,2.2,1.4,4.5,1.9,6.8c0.4,1.6,1.1,3.2,0.3,4.9
		c-0.2,0.4,0.1,1.1,0.1,1.7c0,1.6-0.1,3.1-0.1,4.7c0,0.8,0.1,1.6,0.2,2.3c0.3,1.2,0.7,2.4,0.9,3.6c1.1,5.1,2.2,10.1,3.3,15.2
		c2.9,13.5,4,27.2,3.2,41c-0.2,4.1-0.6,8.1-0.7,12.2c-0.2,9.5-1.5,18.8-3.9,28c-0.3,1-0.4,1.9-0.3,3c0.7,6.1,0.8,12.1-0.4,18.2
		c-0.2,1.1-0.2,2.2-0.1,3.3c0.4,4.5,1.1,9,0.7,13.5c-0.3,4.2-0.3,8.3-0.3,12.5c0,3.6-0.5,7.2-1.5,10.7c-0.5,1.6-0.7,3.3-0.8,5
		c-0.4,5.8-0.6,11.7-1.9,17.5c-0.5,2.1-0.5,4.2-0.6,6.4c-0.1,2.7,0.1,5.4-0.1,8.1c-0.2,2.9,0.5,5.6,0.9,8.4c0,0.3,0.4,0.6,0.5,0.8
		C663.2,545.7,661.6,546.3,660,546.8z M723.7,79l0.1,0.1c0.3,0.2,0.5,0.4,0.8,0.5c0,0.5-0.3,1.2,0.6,1.4c0.1,0.7,0,1.3,0.2,2
		c1.1,4.3,0.2,8.2-2.1,11.9c-0.3,0.5-0.5,1.2-0.8,1.8c-0.5,0-0.8,0.2-0.6,0.7c-0.3,0-0.5,0.1-0.3,0c-0.2,0.1,0,0,0.2-0.1
		c0.2-0.2,0.4-0.5,0.7-0.7c1-0.1,1.5-1,2-1.7c1.7-2.1,2.5-4.6,2.5-7.2c0-2.3-0.1-4.7-1.8-6.6c-0.2-0.5-0.4-0.9-0.6-1.4
		c-0.2-0.2-0.5-0.4-0.7-0.6L723.7,79z M633.7,143.8c0,0,0.1-0.1,0.2-0.2c-0.1-0.1-0.1-0.2-0.2-0.2c-0.2,0-0.4-0.1-0.6-0.1
		c-0.9-1-2.1-1.3-3.4-1.3c-2.1-1.2-4.2-0.6-6.4-0.1c0.1,1.1,0.9,1.3,1.4,1.2c1.7-0.1,3.5,0,5-1.2c1,0.8,2,1.5,3.4,1.4
		C633.3,143.5,633.5,143.7,633.7,143.8z M622.1,138.9c-1.3-1.3-1.9-1.3-3.8-0.3c-3-0.4-4.9,1.1-6,3.8c-1,2.3-1.3,4.7-1.5,7.2
		c0.7-1,1.5-2.1,2.2-3.1c0.7-1.1,1.5-1.9,2.7-2.3c1.1-0.4,2.2-1.1,3.3-1.7c0-0.5,0-1,0-1.6c0.5,0.1,0.9,0.1,1.4,0.2
		c0.1-0.2,0.2-0.4,0.1-0.5c-0.2-0.5-0.5-0.9-0.8-1.4c0.7,0.4,1.5,0.9,2.2,1.3c0.6,0.3,1,0.1,1.1-0.6c0.3,0.1,0.6,0.3,0.9,0.3
		c0.1,0,0.3-0.1,0.4-0.2c-0.1-0.1-0.3-0.4-0.4-0.4c-0.3,0.1-0.6,0.2-0.9,0.3C622.6,139.6,622.4,139.2,622.1,138.9z M618.5,157.2
		c0.6-0.1,1-0.5,1.1-1.1c1.9,0,3.7,0.2,5.5,0.8l-0.1-0.1c-0.5,0.8-1,1.6-1.5,2.4c0.3,0.1,0.6,0.3,0.9,0.4l-0.1-0.1
		c-0.4,0.5-0.9,0.9-1.3,1.4c-0.5,0.1-1,0.2-1.6,0.3c0.6,0.3,1.2,0.5,1.5-0.3c0.4,0.3,0.6,0.8,0.2,1.1c-0.8,0.6-1.7,0.9-2.7,1.1
		c-3,0.4-6,0.5-9.1-0.3c-0.1,0.9-0.3,1.6-0.4,2.3c-0.5-0.7-1-1.4-1.7-2.3c-0.8,2.7-1.5,5.2-1.6,7.9c-0.2,4.1-0.5,8.3-0.6,12.4
		c-0.1,1.2,0.1,2.5,0.1,3.7c0.1,2,0.2,4,0.3,6.5c0.3,0.3,1,0.9,1.7,1.6c0.7-1.5,0.2-2.8,0.2-4.1c0.8,0.1,1.1,0.6,1.2,1.3
		c0.3,1.7,0.5,3.3,0.9,5c0.1,0.5,0.5,0.9,0.9,1.7c0.9-2.2,1.7-4,1.2-6.1c-1-4.1-0.7-8.3-0.7-12.4c0-1.5-0.1-2.9-0.2-4.4
		c0.6,0.6,1.3,1.1,1.9,1.7c1.1,1,1.1,1,3.2,1.2c-0.1,0.4-0.3,0.8-0.4,1.2l0.1-0.1c-0.5,0-1,0-1.8,0c0.7,3.6,1.5,7.1,1.1,10.6
		c-0.4,3.5-1.6,6.8-2.9,10.1c0.5,2.8,2.8,4.4,4.2,6.7c1.3,2.3,3.3,4.3,5.1,6.5c3.6,1.2,6.4,3.8,9.4,6.1c0.9,0.7,1.8,1.5,2.7,3.3
		c-4.1-2.5-7.1-5.1-10.5-7.2c-0.5,0.5-0.2,0.9,0,1.3c1.4,3.4,2.8,6.9,4.2,10.3c0.6,1.4,1.3,2.9,2.1,4.2c1.4,2.3,2.9,4.5,4.4,6.8
		c0.2,0.3,0.3,0.6,0.5,0.8c3.5,3.2,7.4,5.4,12.6,5.1c-0.2-0.5-0.2-1-0.4-1.3c-0.9-1.3-2-2.5-2.9-3.7c-0.3-0.4-0.5-0.9-0.8-1.4
		l-0.1,0.1c0.6,0.2,1.2,0.4,2,0.6c0.4-0.3,0.8-0.6,1.5-1.1c-0.7,3,1.4,4.7,2.5,6.8c2.7,0.4,4.5-0.7,6-2.6c1.5-1.9,2.1-3.9,1.4-6.3
		c-2.1-7-5.2-13.4-10.3-18.7c-2-2.1-3.9-4.4-6.5-5.9c-0.3-0.2-0.6-0.3-1-0.4c-0.4,2.1,0.8,4.3-0.3,6.3c-0.8,0-0.9-0.6-1-1.1
		c-0.2-0.9-0.2-1.8-0.2-2.7c-0.2-2.9-0.3-5.8-0.5-8.7c-0.2-2.6-0.2-5.1,0.2-7.9c1.4-0.1,2.6-0.2,3.8-0.2c1.2,0,2.2-0.5,2.8-1.5
		c0.6-1,1.1-1.9,1.6-3c1-2.2,1.8-4.4,2.8-6.5c2.5-5.1,2.8-10.3,1.4-15.7c-0.8,0.6-1.5,1.1-2.1,1.6c-1.5-0.6-1.6-2-2.3-2.9
		c1-0.9,2-1.1,3.2-1l-0.1-0.1c0.6,0.5,1.3,0.7,1.7-0.1c0.4-0.7,0.6-1.4,0.8-2.1c-0.5-0.9-1.3-1-2.1-0.9s-1.5,0.3-2.3,0.3
		c-0.3,0-0.7-0.4-1.3-0.7c1.8-1,3.5-0.4,5.1-0.7c0-4.7-1.6-10.2-4-13.4c-0.2,0.1-0.5,0.3-0.7,0.4c-0.6-0.5-1.2-1.1-1.8-1.6
		c0-0.3-0.1-0.6-0.1-0.9c0-0.1-0.1-0.1-0.2-0.2c-0.1,0.2-0.3,0.4-0.2,0.5c0.2,0.2,0.4,0.3,0.6,0.5c0,1-0.8,0.8-1.4,0.7
		c0-0.5-0.2-0.7-0.7-0.7c-1-0.9-2-1.7-3.1-2.7c0.7,0,1.3-0.1,1.8-0.1c0.1,0.2,0.1,0.4,0.2,0.5c0.5-0.4,0-0.4-0.2-0.5
		c-0.1-0.9-0.8-1.4-1.5-1.7c-1.7-0.8-3.5-1.4-5.9-1.8c1.3,1.3,2.6,1.5,3.5,2.4c-0.1,0.3-0.3,0.5-0.5,0.8c1.7,1.2,3.4,2.4,5.1,3.6
		c-0.4,0.2-0.9,0.7-1.1,0.6c-1.7-0.8-3.7-0.4-5.3-1.7c-0.8-0.7-1.8-1.2-3.1-1.1c-0.7,0.1-1.5-0.4-2.2-0.6c-2.6-0.9-5.3-1.8-7.9-2.8
		c-1.3-0.5-2.1-0.2-2.8,1c-0.5,0.1-1.1,0.1-1.9,0.2c0.5,0.7,0.8,1.2,1.2,1.7l0.1-0.1c-0.5,0.1-1,0.1-1.5,0.2
		c-0.1-0.2-0.2-0.4-0.3-0.5c-0.5,0.6,0.1,0.4,0.3,0.5c0.5,0.7,0.9,1.4,1.4,2.1c-1.7,0.2-2-1.5-3.1-2.4c-1.2,0.9-2.2,1.9-2.9,3.2
		c0.6,0.9,1.1,1.7,1.7,2.6l0.1-0.1c-0.8-0.4-1.5-0.8-2.3-1.2c-0.8,0.7-1.1,1.6-0.6,2.6c0.3,0.7,0.6,1.3,1,2c-0.5-0.2-1-0.4-1.4-0.6
		c-1.2,1,0,1.7,0.1,2.6c-1,0.4-1,1.1-0.6,1.8c0.3,0.5,0.8,1,1.2,1.5c-1.2,0.4-1.2,0.4-1.2,1.8c0.2,0.1,0.4,0.3,0.5,0.3
		c2.8,0,5.5-0.1,8.3-0.3c-1.3-0.6-2.6-0.3-3.9-0.4c-1.3-0.1-2.4-0.2-3.5-0.9c-0.2-0.1-0.2-0.4-0.3-0.6c2.5,0.6,4.9,1.4,8.1,0.3
		c-1.9-0.2-3.3-0.3-4.6-0.4c0-0.1,0-0.2,0-0.3c1.4-0.2,2.8-0.4,4.3-0.6c-1.5-1.1-3.4-1.6-6.4-1.6c0.5-0.5,0.9-1,1.4-1.4
		C615.8,157.2,617.1,157.4,618.5,157.2z M695,75.1c0.1,1.2,0.5,1.6,1.1,1.9c-0.5,1.9-0.3,3.7,0,5.5c-0.1,0-0.2,0-0.3-0.1
		c-3.2-0.1-3.2-0.1-5.3-2.5c-7-1.3-14.2-2.8-21.4-4.1c-2.5-0.5-5.1-0.6-7.7-0.8c-0.4,0-0.9-0.1-1.3-0.2c-12.1-2.8-24.4-4.3-36.5-6.7
		c-0.6-0.1-1.2-0.1-1.7-0.3c-4.1-1.7-8.6-1.9-12.9-2.8c-6.8-1.4-13.7-2.7-20.5-4c-1.5-0.3-3.1-0.6-4.6-0.8c-1.8,1.5-3.2,3-2.6,5.5
		c1.8,0.7,3.7,0.8,5.6,1.2c4.7,0.8,9.3,1.8,13.9,2.6c4.9,0.9,9.8,1.7,14.6,2.5c5.8,1,11.5,2.1,17.3,3c6.7,1.1,13.3,2.2,20,3.3
		c3.2,0.6,6.4,1.4,9.6,2c8.2,1.5,16.4,3,24.6,4.4c1.2,0.2,2.5,0.1,3.7,0.1c1.9,0,3.8,0,5.5,1.2c0.8,0.5,1.9,0.7,2.9,0.8
		c4.5,0.9,9.1,1.7,13.6,2.5c0.9,0.2,1.8,0.2,2.7,0.1c1-0.1,1.8-1.1,1.9-2.1c0.1-0.9-0.3-1.5-1-2c-0.7-0.4-1.3-0.9-2.1-1
		c-3.9-0.8-7.7-1.4-11.7-2.1c-1,0.7-1.9,1.3-2.9,1.9c-0.6,0.3-1.3,0.4-1.9,0.4c-0.4,0-0.9-0.3-1.2-0.6c-0.3-0.4-0.3-1-0.4-1.5
		c0.6,0.3,1.2,0.5,1.7,0.7c0.8-0.2,1.1-0.7,0.9-1.3c-0.6-1.7-1.2-3.5-2.6-4.9C695.8,76.5,695.5,76,695,75.1z M690.1,77.3
		c0.9,0.9,1.9,1.9,2.4,3.2c0.3,0.7,0.4,0.6,1.9,0.8c1.1-2.9,0-5.4-4.3-7.5c-1.5,1.2-3.5,1.6-5,3.2c1.3,1,2.5,1.1,3.9,0.6
		c0.2-0.1,0.2-0.3,0.4-0.5l-0.1,0.1C689.5,77.2,689.9,77.1,690.1,77.3z M733.5,50.9c-0.1,0-0.2,0-0.3,0c0.1,0.1,0.1,0.3,0.2,0.3
		c0.2,0.1,0.4,0,0.6,0c0.4,0.4,0.7,0.9,1.1,1.1c10.8,7,16.3,17.2,17.6,29.8c1,9.9-1,19.3-6,28c-2.4,4.1-5.3,7.9-9.1,10.8
		c-4.9,3.9-10.4,6.7-16.7,7.6c-0.2,0-0.4,0.2-0.6,0.3c1.3,0.1,2.5,0.1,3.7,0.2c5.1,0.4,9.8-0.8,14.2-3.3
		c9.7-5.4,15.6-13.8,18.7-24.2c3.4-11.4,2.6-22.5-2.7-33.2c-3-6.1-7.5-10.9-13.5-14.3c-2.1-1.2-4.2-2.6-6.8-2.7
		C733.8,51.2,733.7,51.1,733.5,50.9z M513.6,90.6c-4.7-5.9-8-12.5-9.6-19.9c-1-4.6-1.5-9.3-1.2-14.1c0-0.7,0-1.3,0-2.1
		c-0.8-0.9-1.9-1-3.2-1c-0.1,0.5-0.3,1-0.4,1.6c-0.6,9.2,0.5,18.2,4.3,26.8c2.5,5.6,6,10.3,10.9,14c7.4,5.6,15.5,6.9,24.3,4.2
		c5.1-1.6,9.6-4.3,13.6-8c6.3-5.9,10.8-13,13.8-21c4.4-11.9,5.4-24.1,2.2-36.5c-2-7.8-5.5-14.7-11.7-20.1
		c-5.3-4.6-11.4-7.2-18.5-6.9c-2.1,0.1-4.3,0.5-6.3,1c-5.7,1.4-10.6,4.3-14.9,8.3c-7.8,7.3-12.7,16.3-15.5,26.5
		c-0.1,0.3,0,0.7,0,1.1c0.8,0.8,1.7,0.8,2.8,0.8c0.2-0.2,0.4-0.4,0.6-0.7c1.1-3.1,2.1-6.2,3.4-9.2c2.2-5.2,5.6-9.8,9.6-13.8
		c3.5-3.5,7.5-6.5,12.2-8.4c3.1-1.3,6.4-2.1,9.8-2.4c2.1-0.1,4,0.1,5.9,1c1.3,0.6,2.7,1.2,4,1.8c0.8,0.4,1.6,0.7,2,1.8
		c-2.3-0.4-4.2-1.2-6.1-2.1c-1.9-0.9-3.8-1.2-5.9-1.1c-4.3,0.3-8.4,1.3-12.2,3.6c-4.8,2.9-8.9,6.5-12.3,10.9
		c-4,5.3-6.9,11.1-8.7,17.4c-0.1,0.4-0.1,0.9-0.2,1.2c2.3,0.9,21.8,4.5,26.6,4.9c0.2-0.1,0.5-0.1,0.6-0.2c1.4-1.8,3.4-2,5.4-2.4
		c2-0.3,3.5,0.3,4.8,1.7c0.6,0.7,1.2,1.4,1.7,2.1c2.6,3.6,2,7.7-1.5,10.4c-1.5,1.1-3,1.9-4.7,2.1c-0.6,0.8,0,1.1,0.2,1.6
		c1.3,3.3,1.7,6.8,1.3,10.3c-0.2,1.8-0.7,3.5-1.8,5c-1.2,1.8-3,2.4-5,1.6c-1.8-0.7-3.1-1.9-3.6-3.7c-0.2-0.7-0.2-1.6,0.1-2.3
		c0.7-1.5,0.8-3,1.1-4.6c0.5-2.9,1.2-5.7,1.8-8.4c-1.5,1.1-1.6,1.1-2.5,3c-1.7,3.3-3.5,6.6-4.9,10c-1.4,3.3-2.5,3-5,1
		c-3.2-2.6-4.4-5.9-3.6-9.6c1.3-1.2,2.4-2.1,3.4-3.1c1.4-1.4,2.8-2.6,4.5-3.5c1.3-0.7,2.5-1.5,3.7-2.3c-0.2-0.3-0.3-0.6-0.5-0.6
		c-7.7-1.4-15.5-2.7-23.5-4.1c-0.2,0.9-0.4,1.7-0.5,2.4c-0.4,7.2,0.6,14.2,3.3,20.9c1.3,3.3,3.3,6.4,5.1,9.5c1.3,2.3,3,4.2,5.2,5.6
		c0.4,0.3,1,0.6,0.9,1.3l0,0C516.4,93.8,514.9,92.2,513.6,90.6z M604.1,192.8l-0.2-0.1c0-1.2,0.9-1.3,1.7-1.2
		c0.2-5,0.3-9.9,0.5-14.7c0-0.3,0.1-0.7,0-1c-0.8-3.8,0.3-7.4,1.3-10.9c1.4-4.5,2.2-9,2-13.6c-0.1-3.1,0.6-6.1,1.3-9
		c0.7-2.7,2.6-4.4,5.4-4.9c2.9-0.5,5.6-0.3,8.1,1.5c0.6,0.4,1.1,0.8,1.5,1.1c2.8,0.3,5.5,0.5,8.2,0.8c3.7,0.5,7.1,2,10.4,3.9
		c0.3,0.2,0.5,0.4,0.8,0.6c2.9,1.4,4.3,3.9,5.2,6.7c0.9,2.9,1.6,5.9,2.1,8.9c0.4,2.3,0.6,4.7-0.4,7c-0.3,0.8-0.2,1.8-0.2,2.7
		c0,1.8,0,3.6,0.2,5.4c0.5,3.5-0.7,6.7-2.1,9.8c-1,2.2-2,4.3-3,6.4c-0.8,1.6-1.6,3.3-3,4.6c-1.4,0.1-2.9,0.3-4.6,0.5
		c-0.5,2,0,3.9-0.2,5.8c0.9,0.2,1.1-0.4,1.4-0.8c1.1-1.5,2.3-3,4-4.1c1.4-0.9,2.4-2.4,3.4-3.7c0.6-0.8,1.3-1.5,2.1-2.1
		c2-1.5,3.9-3,5.9-4.6c1.2-3.9,2.7-7.7,4.7-11.2c0.4-0.7,0.6-1.5,0.8-2.2c0.9-2.8,2.3-5.4,4-7.8c1.5-2.1,2.9-4.3,3.8-6.8
		c0.2-0.6,0.7-1.1,1.3-1.8c0.2-1.7,0.4-3.7,0.7-5.7c0.8-6,3.1-11.5,5.8-16.8c2-3.8,3.5-7.8,4.8-11.9c0.4-1.4,0.7-2.8,1.1-4.2
		c0.1-0.4,0.2-1,0.4-1.2c1.3-0.9,1.5-2.2,1.8-3.5c0.9-3.6,1.8-7.2,2.5-10.9c0.4-2.6-0.3-5.1-1.1-7.6c-0.1-0.4-0.4-0.8-0.8-1.1
		c-2-1.3-3.4-3.3-5.7-3.8c-0.4-2-0.8-3.7-1.1-5.6c-0.8-0.3-1.5-0.6-2.2-0.8c-2.8-0.4-5.5-1-8.2-1.8c-1.7-0.5-3.5-0.7-5.3-0.9
		c-4.4-0.5-8.7-1-13-1.8c-7.9-1.5-15.8-2.7-23.6-4.1c-8.3-1.5-16.6-3.1-24.9-4.6c-5.5-1-11.1-1.9-16.7-2.8c-0.1,0-0.2,0.1-0.4,0.2
		c-0.1,0.6-0.2,1.4-0.4,2.2c-0.4,2.8-1.6,5.2-3.7,7c-1.1,1-1.6,2-1.6,3.5c-0.1,9.8,0.7,19.6,3.2,29.1c1.1,4.1,2,8.3,2.9,12.5
		c0.3,1.4,0.5,2.9,0.6,4.3c0.2,2,0.4,4,0.7,6c0.4,3.5,0.7,7,0.3,10.5c-0.2,1.4-0.1,2.6,0.9,3.8c0.7,0.8,1,2,1.4,3.1
		c2.1,5.8,4.5,11.6,7.1,17.2c3.1,6.6,4.5,13.7,4.8,20.9c0,0.7-0.1,1.3-0.2,2c0,0.1-0.1,0.1-0.2,0.2c-0.8-0.3-0.8-1-0.9-1.6
		c-0.5-2.9-0.9-5.8-1.4-8.7c-0.4-2.2-1-4.3-1.9-6.4c-1.2-2.4-1.9-5.1-2.8-7.6c-0.3-0.8-0.6-1.8-1.1-2.5c-1.6-2.2-2.4-4.8-3.2-7.4
		c-0.6-1.8-1.1-3.7-1.6-5.5c-0.4-1.3-0.6-2.6-1.7-3.6c-0.3-0.3-0.4-0.8-0.5-1.2c-0.2-1.2-0.5-2.5-0.3-3.7c0.6-3.9-0.3-7.6-0.7-11.4
		c-0.4-4.3-1-8.5-1.7-12.7c-0.4-2.2-0.9-4.4-1.7-6.5c-2.9-8.4-3.9-17.1-3.6-26c0.1-2,0.3-4,0.6-6c0.1-0.6,0.4-1.3,0.7-1.9
		c0.3-0.5,0.7-0.9,1.1-1.3c2.4-2.2,2.7-5.1,2.7-8c0-0.5-0.3-0.8-1.5-1.1c-0.3,0.7-0.7,1.4-0.9,2.1c-2.2,7.4-5.5,14.3-10.3,20.4
		c-1.3,1.6-1.8,3.2-1.9,5.2c-0.3,8-1,16-0.9,24c0,4.3,0.1,8.6,0.7,12.8c0.4,2.8,0.6,5.6,0.9,8.4c0.1,1.2,0.4,2.4,0.6,3.7
		c2.1,0.5,3.5,1.7,3.4,4.4c-0.8-0.6-1.4-1-2-1.4c-0.2-0.5-0.5-1-0.7-1.5c-0.3,0.9-0.3,1.5,0.8,1.5c0.1,0.8,0,1.6,0.3,2.3
		c0.9,2.8,1.4,5.7,1.6,8.6c0.4,4.5,1.2,8.9,2.5,13.2c2.4,8.3,4.4,16.8,5.9,25.3c1,5.4,2.5,10.7,4.4,15.9c2.1,5.6,3.6,11.4,5.1,17.1
		c0.2,1,0.3,1.9,0.1,3c-0.3,1.5-0.5,3.1-0.3,4.7c0.4,3.9,1,7.8,2.6,11.5c0.9,2.1,1.5,4.2,2.2,6.4c0.3,0.7,0.5,1.5,0.8,2.1
		c1,0.6,1.9,0.3,2.7,0c5.2-1.7,9.4-4.7,12.9-8.8c1.3-1.5,1.9-3.3,2.5-5.1c0.5-1.3,0.8-2.6,1.1-3.9c0.4-2.2,0.9-4.4,1.6-6.5
		c0.5-1.3,0.6-2.9,0.7-4.3c0.1-2,0.1-4.1,0.1-6.1c0-0.8-0.1-1.6,0.2-2.3c0.8-2.3,0.4-4.7,0.2-7c-0.1-1.5-0.5-2.9-1.3-4.1
		c-0.5-0.9-1-1.8-1.4-2.7c-1.2-2.9-3.1-5.2-5.5-7.1c-2-1.6-4-3.2-6-4.7c-0.9,0.3-0.8,0.9-0.9,1.5c0,1.4,0.5,2.9-0.1,4.4
		c-1-1.3-1.2-1.6-1.3-4c-0.1-1.6-0.5-3.4,0.7-5c0.8,0.4,1.6,0.8,2.4,1.1L604.1,192.8z M605.9,570.5c-0.1,0.1-0.2,0.2-0.3,0.3
		c0.2,0,0.3,0.1,0.5,0.1c-0.1,0.3-0.1,0.7-0.2,1.2c-1.4,0.1-2.8,1.1-4.3-0.2c-0.3-0.3-1.1-0.1-1.6,0c-1.1,0.2-2.1,0.9-3.4,0.1
		c1.2-3.1,4.1-2.6,6.7-3.3c-0.3-0.7-0.7-1.3-1-1.9c-3.7,0.4-6.3,3-9.6,3.9c-0.8-0.4-0.7-1-0.5-1.5c0.3-1,0.9-1.8,1.8-2.4
		c1.8-1.3,3.2-1.8,6.3-2.2c0.1-0.9-0.4-1.2-1.1-1.2c-2.4,0.2-4.7,0.8-6.7,2.1c-1.1,0.7-2.4,1.3-3.6,1.9c-0.4,0.2-0.8,0.1-1.4,0.2
		c0-2.9,1.6-4.4,3.7-5.7c2-1.1,4.2-1.5,6.9-1.1c-0.5-0.9-0.7-1.5-1.1-1.8c-0.3-0.2-0.9-0.3-1.3-0.2c-5.1,0.6-7.5,1.7-12.3,5.1
		c-0.7-0.2-0.6-0.8-0.5-1.3c0.3-1.8,1.6-2.9,3.1-3.8c2.4-1.3,5.1-1.8,7.8-2.1c0.5-0.1,1.1-0.1,1.9-0.2c-0.5-1.3-0.9-2.4-1.3-3.5
		c-2.3-1.2-4.6-0.6-6.7-0.3c-2.4,0.4-4.2,2-6.2,3.3s-2.4,3.8-4.1,5.2c-3.4-1.1-3.9-1.5-4.6-3.9c1.2,0.4,2.2,0.8,3.3,1.2
		c0.5-0.3,1.1-0.6,1.5-1c0.6-0.6,1.2-1.4,1.7-2.1c1.3-2.1,3.4-3.2,5.4-4.5c1-0.6,2.3-0.8,3.5-1.1c0.9-0.2,1.8-0.1,2.5-0.2
		c0.8-0.9,0.5-1.9,0.5-2.7c-0.2-9.8,1.1-19.5,2.4-29.3c1.3-9.6,3.6-19,5.9-28.4c0.7-2.7,1.1-5.5,1.3-8.3c0.1-1.6,0.5-3.1,0.7-4.7
		c0.1-0.9,0.3-1.8,0.3-2.7c0.1-1.7,0.1-3.4,0.1-5.1c0-1.4,0.3-2.6,0.9-3.9c1.8-3.7,3.5-7.5,5.2-11.4c0.9-2.1,1.5-4.2,2.2-6.4
		c0.2-0.7,0.4-1.5,0.7-2.2c0.7-1.4,1.2-2.9,1.1-4.6c-0.1-1.3,0.6-2.4,1.1-3.5c2.2-4.8,4.3-9.7,6.4-14.5c2.5-5.9,4.5-12,6.2-18.2
		c2-7.6,4-15.2,6.1-22.9c0.4-1.6,0.9-3.2,1.4-5c-1.6-0.8-3-0.7-4.3-0.1c-1.6,0.7-3.3,0.7-5,0.8c-4.4,0.2-8.8-0.3-13.1-1.1
		c-5.4-1-10.9-1.9-16.3-2.9c-2.1-0.4-4.2-1-6.2-1.5c-0.3-0.1-0.5-0.3-1-0.6c0.5-0.1,0.8-0.3,1-0.3c8.5,1.9,17.1,2.9,25.7,4.2
		c3.4,0.5,7,0.6,10.4,0.9c1.2,0.1,2.4-0.1,3.7-0.4c1.7-0.4,3.5-0.4,5.6-0.6c0.2-1.2,0.4-2.7,0.8-4c0.5-1.3,0.5-2.9,2-4.1
		c0.2,0.4,0.5,0.7,0.6,1.1c0.1,0.4,0,0.9-0.1,1.3c-1.9,5.4-2.6,11.2-4.1,16.7c-1.4,5.6-2.7,11.2-4.1,16.8c-0.3,1.4-0.4,2.6,0.3,3.9
		c2,3.9,3.2,8.2,4.3,12.4c0.2,1,0.5,2,0.7,3c1.4,7,4.3,13.5,7.1,20c0.5,1.2,1.1,2.5,1.7,3.8c-0.5,1-0.6,2.2-0.5,3.5
		c0.2,2.2,0.3,4.5,0.2,6.8c-0.1,2.9,0.5,5.6,1.7,8.2c0.3,0.6,0.5,1.2,0.7,1.9c-0.6,0.1-1,0.3-1.4,0.4c-1.4,7.3-2.8,14.5-4.3,21.8
		c-0.7,3.6-0.6,7.2,0.3,10.7c1.1,4,2.1,8.1,3.3,12.1c2.2,7.7,4,15.5,5.4,23.4c0.4,2.1,0.5,4.3,0.7,6.4c0.1,0.6-0.1,1.4,0.7,1.7
		c1.1-0.8-0.1-2.3,1-3.3c0.4,1.8-0.2,3.5-0.2,5.1c0,1.8-0.1,3.6-0.4,5.4c-0.3,1.6-1.1,3.2-1.7,4.9c1.8,0.7,3.1,0.2,4.1-1.2
		c0.4-0.7,0.8-1.4,1.1-2.1c0.5-0.9,1-1.8,1.5-2.6c1.1-1.7,2.7-2.7,4.7-3c0.8-0.1,1.5-0.2,2.5-0.4c-0.1-0.8-0.1-1.5-0.2-2.1
		c-0.1-1.6-0.3-3.2-0.2-4.7c0.3-6.3,0.6-12.6,1-18.9c0.6-7.9,1.3-15.7,2-23.6c0.1-0.8,0.1-1.6,0.3-2.3c1.1-4.2,1.2-8.5,1.2-12.8
		c0-4.5,0.2-9,0.3-13.5c0-1.7-0.2-3.4-0.3-5c-0.3-3.9-0.3-7.9,0.2-11.8c0.1-1,0.2-2,0.4-3c0.1-1.1-0.1-2-1.1-2.4
		c-0.2-1.5,0.3-2.7,0.7-3.8c2.1-6.3,2.9-13,3.9-19.5c1.1-7.6,0.7-15.3,0.7-23c0-2.4,0-4.7-0.1-7.1c-0.2-5.3-0.4-10.6-0.7-15.9
		c-0.1-1.3-0.3-2.6-0.7-3.9c-1.9-0.5-3.5-0.1-5.1,0.4c-4.6,1.4-9.3,2.9-14,3.7c-4,0.7-8,0.9-12.1,0.3c-0.2-0.9,0.4-1.1,0.9-1.1
		c0.7-0.1,1.3-0.1,2-0.1c5.5,0,10.8-1,16-2.5c2.7-0.8,5.4-1.5,8.1-2.3c1.8-0.5,1.9-0.5,3.9-0.2c0.1-0.1,0.2-0.2,0.2-0.3
		c-0.2-2-0.4-4-0.7-6c-1-7.1-2-14.3-3.2-21.4c-0.5-3.1-0.6-6.3-0.7-9.4c-0.1-1.2,0-2.5-0.6-3.6c-0.3,0-0.6-0.1-0.7,0
		c-5.3,2.6-11,3.2-16.8,3.4c-6.9,0.3-13.7-0.6-20.3-3.1c-0.5-0.2-1.2-0.2-1.6-0.6c-1.8-1.8-4.2-2.1-6.4-2.9
		c-3.2-1.1-6.5-1.9-9.7-2.9c-3.3-1-6.7-1.9-10.2-2.9c-0.3,0.4-0.7,0.8-1,1.2c-3.2,5.8-5.8,11.7-7.3,18.1c-0.2,0.7-0.4,1.3-0.5,2
		c-0.1,5-1.5,9.8-2.3,14.7c-0.9,5.8-1.8,11.6-1.9,17.5c0,2.5-0.3,5-0.3,7.4c-0.2,6.4,0.4,12.8,0.8,19.2c0.4,6.6,0.6,13.3,0.9,19.9
		c0.1,1.6-0.1,3.1-0.2,4.7c-0.1,1.1-0.4,2.3-0.2,3.4c0.4,2,0,3.8-0.3,5.7c-0.6,3.4-1.1,6.9-1.6,10.3c-0.2,1.3-0.4,2.6-1.1,3.8
		c-0.5,0.7-0.5,1.7-0.8,2.6c-0.4,1.2-0.8,2.4-1.4,3.4c-1.3,2.1-2.2,4.4-3.2,6.7c-1.8,4.4-3.7,8.7-5.4,13.1c-2.6,7-3.7,14.1-2.3,21.6
		c1.9,9.6,3,19.4,3.9,29.1c0.7,6.5,1.1,13,0.9,19.7c0.5-0.8,1-1.4,1.8-2.6c0.2,2.9,0.2,5.3-0.1,7.6c0,0.3-0.1,0.7-0.2,1
		c-0.3,0.9-1.6,1.3-1.5,2.5c0.1,1-0.1,2-0.1,3c0,0.2-0.1,0.4-0.3,1c-0.3-1.2-0.5-2-0.8-3.1c-0.6-0.1-1.3-0.5-1.9-0.4
		c-0.8,0.2-1.3,1-1.3,1.8c-0.1,3.5-1.4,6.9-1,10.4c0.2,1.7-0.1,3.3-0.8,5c-0.6,1.5-0.9,3-1.4,4.5c-0.3,0.9-0.7,1.6-1.6,2
		c-1.3,0.6-1.6,1.7-1.8,3.1c0.7,1.1,1.7,1.7,2.9,2c0.5,0.1,1.1,0.2,1.7,0.3c1.7,0.4,3.3,0.7,4.3,2.3c1.7,0.3,3,0.1,4.5-1
		c1.4-1.1,3.5-1.1,5.1,0c4,2.7,8.4,3.8,13.1,4c0.8,0,1.6,0.1,2.3,0.5c3.2,1.5,6.6,1.2,9.9,0.6c1.4-0.3,2.8-0.9,4.2-1.4
		c1.1-0.3,2.2-0.6,3.2-0.9c2.2-0.5,3.2-1.6,3.1-3.7c-0.1-1.7-0.4-3.3-0.6-5c-0.5-0.2-0.9-0.5-1.3-0.6c-2.7-0.7-5-2-6.7-4.2
		c-0.9-1.2-2.2-1.9-3.7-2C606,570.8,605.9,570.6,605.9,570.5z M706.2,80.7c0.5-0.4,0.8-1.1,1.2-1.6c2.9-4,6.9-4.7,11.4-3.8
		c0.7,0.1,1.3,0.4,1.9,0.6c4.6,1.6,6.7,5,7.2,9.7c0.3,2.8-0.3,5.4-1.4,7.9c-1.3,2.9-3.5,4.9-6.6,5.9c-1.3,0.4-2.6,0.5-4,0.4
		c-6-0.7-10-3.7-11.4-9.8c-0.4-0.2-0.7-0.4-1-0.5s-0.7-0.1-1-0.1c-0.2,0.2-0.4,0.4-0.4,0.6c0,1.7,0.2,3.4-0.1,5.1
		c-0.8,4.2-0.5,8.5-0.7,12.8c-0.2,3.4-0.6,6.7-1,10.1c-0.1,1.3-0.3,2.7-0.4,4.1c2.8,2,5.7,3.4,8.9,4.3c7.6,2.1,14.9,1.6,21.9-2.3
		c6.4-3.5,11.4-8.5,14.8-14.9c7.9-14.5,8.1-29.3,0.3-43.9c-3-5.7-7.6-10-13.4-13c-7.3-3.8-14.9-3.9-22.6-1.3
		c-6.3,2-11.3,6.2-15.4,11.4c-2,2.5-3.5,5.5-5.2,8.3c-0.3,0.5-0.4,1-0.6,1.6c2,0,2,0.1,3.9,1c0.5,0.2,1,0.5,1.6,0.5
		c1.1,0,2,0.2,2.7,1.2c0.2,0.3,0.5,0.6,0.8,0.6c1.4-0.1,2.6,0.5,3.7,1.4c2.1,0.2,2.8,1.5,3.1,3.4c0,0.2,0.2,0.4,0.5,0.7
		C705.2,80.9,705.8,81,706.2,80.7z M661.8,317.6c-1.8-4.6-2.5-9.3-2.4-14.2c0.1-3.1-0.1-6.3,1-9.4c0.3-0.8,0.3-1.8,0.3-2.7
		c-0.1-4.4-0.2-8.8-0.3-13.3c-0.7-0.3-1.3-0.7-1.9-0.7c-2.1,0-4.3-0.1-6.4,0.1c-5.1,0.5-10.1,0.5-15.2,0.1
		c-5.3-0.4-10.6-0.8-15.8-1.1c-3.6-0.3-7.2-0.1-10.8,0.6c-2.2,0.4-4.5,0.7-6.7,1c-0.4,0.1-0.8,0.2-1.5,0.4c1.2,3.5,2.2,6.9,3.4,10.3
		c1.9,5.1,2.3,10.3,1.2,15.6c-0.4,1.9-1.2,3.6-2.2,5.2c-1.9,2.9-3.6,6-5.3,9c0.6,1,1.5,1,2.3,1.2c5.2,1.4,10.5,2.6,15.6,4.2
		c4,1.2,7.8,2.9,11.7,4.3c1.2,0.4,2.3,0.8,3.5,1.1c6.2,1.4,12.5,1.4,18.8,1.2c3.5-0.1,6.9-0.9,10.1-2.5c0.9-0.4,1.8-0.8,3-1.3
		C663.6,323.5,662.9,320.5,661.8,317.6z M618.9,221.8c0,1.7-0.2,3.4-0.6,5c-0.5,2.2-0.8,4.4-0.9,6.7c-0.5,9.6-4.9,16.9-12.6,22.4
		c-1.1,0.8-2.2,1.6-3.3,2.3c-0.8,0.5-1.6,0.9-2.4,1.3c-0.8,0.3-1.7,0.6-2.7,0.9c0.3,3.1,1.6,5.9,2.1,8.8c0.5,3,2.1,5.4,3.2,8.1
		c9.9-2.7,19.6-2.6,29.4-1.6c7.5,0.7,15.1,1.1,22.6,1c0.5,0,1,0.1,1.3-0.1c1.7-0.7,3.5-0.6,5.3-0.2c0.2-0.4,0.4-0.7,0.5-1
		c0.5-2.8,2.1-4.7,4.7-5.6c2.5-0.9,4.2-2.9,6.2-4.6c1.1-0.9,1.5-2.3,1.7-3.9c0.3-3.1,0.4-6.1-0.2-9.1c-0.9-5-2.5-9.7-6-13.7
		c-2.1-2.4-3.7-5.1-5.5-7.7c-3-4.2-6-8.5-9.1-12.6c-1-1.3-2.4-2.4-3.7-3.4c0.1,0.8,0.7,1.3,1.2,1.8c3.7,4.2,6.6,8.8,7.8,14.4
		c0.3,1.3,0.8,2.6,1.2,3.9c0.8,3,0.4,5.7-1.7,8.2c-1.3,1.6-2.6,2.6-4.7,2.9c-4.5,0.6-8.8,0-13-1.5c-2.8-1-4.7-3-5.9-5.7
		c-0.8-1.8-1.9-3.3-3-4.9c-1-1.4-1.7-3.1-2.4-4.8c-1.7-3.9-3.2-7.9-4.9-11.8c-1-2.2-2.4-4.3-4.6-6.2
		C618.8,214.8,619,218.3,618.9,221.8z M659.7,214.5c1.1,1.3,0.7,2.8,1.4,4.3c1.4-1.6,2.7-2.9,3.9-4.4c5.9-7.3,10.7-15.3,14.9-23.7
		c0.8-1.6,1.4-3.3,1.8-5.1c1.6-5.6,3.1-11.3,4.6-16.9c0.4-1.5,0.9-3,1.5-4.5c0.7-1.8,1.4-3.5,1.8-5.4c0.3-1.8,1.3-3.6,2.3-5.2
		c3.5-6.1,5.3-12.6,5.6-19.6c0.2-3.8,0.3-7.7,0.5-11.5c0.2-3.7,0.7-7.4,1-11.1c0.2-2.4,0.4-4.7,0.5-7.1c0.1-2.4,0.2-4.7,1-7
		c0.3-1,0.3-2.2,0.2-3.3c-0.1-1.6-0.5-3.1-0.7-4.7c-0.4-0.2-0.8-0.4-1.3-0.7c-0.5,0.6-1,1.2-1.5,1.8c-0.5-0.8-0.9-1.4-1.3-2.1
		c-1.6-0.3-3.1-0.6-4.6-0.9c-2-0.4-4-0.8-5.9-1.2c-1.2-0.3-2.4-0.4-3.6-0.2c-0.9,1,0,2-0.3,2.8c0.2,0.4,0.3,0.6,0.5,0.7
		c1.7,0.8,2.8,2.6,4.8,3c0.3,0.1,0.7,0.6,0.9,0.9c1.3,2.2,1.9,4.5,1.7,7.1c-0.6,7.3-2,14.5-4.8,21.3c-0.4,0.9-0.8,1.9-1.1,2.8
		c-1.4,6.5-4.4,12.3-7.3,18.1c-0.7,1.3-1.1,2.7-1.3,4.1c-0.3,1.9-0.7,3.8-0.8,5.7c-0.3,4.6-2.2,8.5-4.8,12.1
		c-2.4,3.4-4.1,7-5.3,10.9c-1.1,3.8-2.9,7.3-4.6,10.9c-0.5,1-1.2,1.9-2,2.7c-3.7,3.6-7.6,7-10.9,11.1c-0.5,0.6-1,1.3-1.7,1.6
		c-2.5,1.3-3.4,3.8-4.8,5.9c-0.2,0.3-0.1,0.6-0.2,1.1c8.5,1.8,14.3,7.4,19.4,14.2C659.4,220.1,659.1,217.4,659.7,214.5z M558.9,14.9
		c6.1,6.1,9.6,13.6,11.3,21.9c3.1,15.1,0.6,29.4-6.5,42.9c-3.1,5.9-7.3,11.1-12.6,15.2c-5.8,4.6-12.4,7.3-19.8,7.8
		c-0.4,0-0.9,0.1-1.3,0.1c-0.1,0-0.2,0.1-0.5,0.2c2.9,1.1,5.8,1.3,8.7,1.3c1.5,0,2.9-0.1,4.4-0.2c5.1-0.2,9.8-1.9,14.1-4.4
		c4.4-2.6,8.1-6,11.3-10c6.3-7.9,10.3-16.9,12.1-26.8c2.1-11.7,1.2-23.1-3.7-34.1c-2.6-5.9-6.7-10.6-11.8-14.5
		c-4.3-3.2-9.1-5.3-14.5-6.1C553.2,10.2,556.2,12.2,558.9,14.9z M539.1,54.9c-0.2-0.4-0.3-0.7-0.5-1c-0.9-1.3-2.3-1.4-3.6-1.6
		c-2.6-0.5-5.3-0.9-8-1.4c-8.2-1.5-16.4-3-24.6-4.5c-9.4-1.7-18.8-3.4-28.2-5c-0.7-0.1-1.5-0.1-2.3-0.2c-0.1,1.9,0.7,3.8-1.3,5.3
		c0.8,0.3,1.4,0.5,2.1,0.7c16.6,2.9,33.3,5.8,49.9,8.7c3.2,0.6,6.4,1,9.6,1.7c1.8,0.4,3.5,0.4,5.7-0.2
		C538.4,56.5,538.7,55.7,539.1,54.9z M706.2,91c0.7,3.2,2.6,5.5,5.6,6.8c3.2,1.4,6.2,0.4,8.8-1.6c0.9-0.7,1.6-1.6,2.2-2.5
		c2.6-4.3,2.6-8.7,0.3-13.2c-1.3-2.4-3.3-3.9-6-4.5c-1.2-0.3-2.4-0.2-3.6,0.2c-2.4,0.8-4.1,2.2-5.7,4.9c0.2,0.7,0.8,0.6,1.4,0.8
		c2.2,0.5,4.4,0.9,6.6,1.3c1.9,0.4,2.8,1.8,3.4,3.4c0.4,1-0.1,2.1-0.9,2.8c-1,0.9-2.1,1.6-3.6,1.6c-2.3,0-4.5-0.2-6.7-0.6
		c-0.4-0.1-0.9-0.1-1.5-0.2C706.3,90.6,706.1,90.9,706.2,91z M525.8,70.9c2.1-4,4.3-7.9,8-11c-0.9-1-1.7-1.1-2.7-0.7
		c-0.4,0.2-0.8,0.5-1.1,0.7c-1.2,0.8-2.4,1.7-3.6,2.5c-2.7,1.7-4.7,4.1-6.7,6.6c-0.8,1-0.8,2-0.4,3.2c0.6,1.8,1.6,3.2,3.5,4.3
		C523.9,74.4,524.9,72.7,525.8,70.9z M759.6,97.3c0.8,0.3,1.4,0.5,2,0.7c3.1,0.6,6.1,1.2,9.2,1.8c1.2,0.3,2.2,0,3.1-0.9
		c1.2-1.2,1-2.8-0.3-3.8c-0.4-0.3-0.8-0.5-1.2-0.5c-3.8-0.7-7.7-1.4-11.9-2.1C760,94.4,759.8,95.8,759.6,97.3z M534.9,79.7
		c0.8,0.1,1.2-0.5,1.5-1.1c0.5-1,1-2,1.2-3.1c0.8-3.6,0.9-7.1-0.5-10.6c-0.6-1.4-0.6-3.1-0.9-4.6c-0.1-0.2-0.5-0.6-0.7-0.5
		c-0.3,0-0.5,0.4-0.7,0.6c-0.1,0.1-0.1,0.2-0.1,0.3c0.5,2.8-0.6,5.5-0.8,8.3c-0.2,2.8-0.4,5.6-0.6,8.4c0,0.4-0.1,0.9-0.1,1.6
		C533.9,79.3,534.4,79.6,534.9,79.7z M537.8,62.5c0.7,0,1.4,0.2,1.9,0c2.7-1,5-4.5,4.8-7.4c-0.2-4.6-4.7-7.3-8.9-5.3
		c-0.2,0.1-0.2,0.3-0.4,0.6c1,0.3,2,0.5,2.9,0.9c3.1,1.3,3.5,4.9,1,7.1c-0.6,0.5-1.3,0.8-2.2,1.4C537.3,60.9,537.5,61.6,537.8,62.5z
		 M466.6,41.9c-0.7,0.7-0.7,1.6-0.4,2.5s1.1,1,1.9,0.9c0.5,0,1.1-0.1,1.6-0.2c1.2-1.9,0.4-3.2-1.1-4.8
		C467.8,41,467.2,41.4,466.6,41.9z M614.5,181.8c-0.1-0.2-0.4-0.4-0.7-0.7c-0.3,5.1-0.2,6.7,0.9,9.9
		C615,187.8,615.2,184.8,614.5,181.8z M699.4,82c1,0.2,1.5-0.4,1.4-1c-0.1-1.7-0.6-3.2-2.5-4.5C698.8,78.6,699.1,80.3,699.4,82z
		 M701.9,80.1c0.2-0.2,0.4-0.4,0.6-0.7c-0.1-0.1-0.2-0.2-0.3-0.2c-0.2,0.1-0.4,0.3-0.7,0.5C701.7,79.9,701.8,80,701.9,80.1z
		 M622.2,157.1c-0.1,0-0.1,0.1-0.2,0.2c0.1,0.1,0.2,0.2,0.2,0.2c0.2,0,0.3-0.1,0.5-0.2C622.5,157.2,622.4,157.1,622.2,157.1z
		 M661,220.3c0.1,0.1,0.2,0.1,0.3,0.2c0-0.1,0-0.2-0.1-0.3C661.1,220.2,661.1,220.2,661,220.3z"/>
	<path d="M271.3,183.6c2.2-4.8,2.3-9.7,1-14.9c-0.8,0.6-1.5,1.1-2.1,1.5c-1.5-0.5-1.5-2-2.2-2.9c1-1.1,2.4-0.9,3.7-1
		c0.2,0.6,0.4,0.5,0.7,0c0.5-0.7,0.9-1.5,1.3-2.1c-0.6-1.1-1.3-1.2-2.1-1.1c-0.8,0.1-1.6,0.3-2.3,0.3c-0.4,0-0.7-0.3-1.2-0.6
		c0.9-0.9,1.8-0.6,2.6-0.7c0.8-0.1,1.6,0,2.3,0c0.2-4-1.7-10.3-4.1-13.5c-0.2,0.1-0.5,0.3-0.9,0.4c-0.6-0.9-1.2-1.8-1.8-2.6
		c-0.7,0.1-0.5,0.6-0.6,1l0.1-0.1c-1.4,0-2.7-0.1-2.9-1.9c0.2-0.1,0.3-0.3,0.5-0.4c-0.2-0.1-0.3-0.1-0.5-0.2
		c0.1-0.8-0.5-1.2-1.1-1.5c-1.8-0.9-3.7-1.5-5.8-1.5c1.1,0.6,2.1,1.3,3.2,1.9c-0.2,0.2-0.3,0.4-0.5,0.6c1.6,1.3,3.1,2.6,4.8,4
		c-0.4,0.3-0.8,0.6-0.9,0.6c-1.9-1.1-4.4-0.8-6.1-2.5c-0.4-0.4-1.2-0.4-1.9-0.5c-1.7-0.2-3.2-0.8-4.6-1.8l0.2-0.1l-0.1,0.2
		c-1.4-0.3-2.8-0.5-4-1.4c1.6-0.2,3.2-0.5,4.8-0.7c0.9-0.1,1.7-0.1,2.6-0.1c0.1,0.8,0.8,0.7,1.3,0.7c0.1,0.2,0.2,0.4,0.3,0.5
		s0.3-0.1,0.5-0.2c-0.1,0-0.2-0.1-0.3-0.1c-0.2,0-0.4,0-0.6,0c-0.2-0.7-0.8-0.6-1.3-0.7c-2.7-1.7-5.5-1.6-8.6-0.7
		c0.6,0.6,1,1,1.4,1.4c-1-0.2-1.9-0.5-2.9-0.6c-0.4,0-0.9,0.4-1.4,0.6c0.6,0.7,1,1.3,1.4,1.9c-0.7-0.3-1.5-0.7-2.2-1
		c-0.8-0.4-1.1-0.2-1.2,1l0.1-0.1c-0.5,0.3-1.3,0-1.4,0.8c-0.3-0.1-0.7-0.1-1.1-0.2c-0.7,0.7-1.4,1.6-2.2,2.3
		c-0.6,0.6-0.2,1.2-0.1,1.8l0.1-0.1c-1.8,0.8-2.3,1.8-1.3,3.2c0.6,0.8,1.3,1.5,1.9,2.3c-0.9-0.4-1.7-0.8-2.6-1.2
		c-0.7,0.5-0.6,1.2-0.2,1.7c0.6,0.8,1.3,1.4,2,2.1l0.1-0.1c-0.8-0.3-1.6-0.6-2.5-0.9c-0.7,0.9,0.1,1.6,0.4,2.3
		c-0.6,0.7-0.8,1.6-0.3,2.7c0.5,0,1,0.1,1.5,0.1c2,0,4.1,0,6.1-0.1c0.8,0,1.6,0,2.2-0.7c0.7,0,1.5,0.1,2.2,0.1c0,0.1,0,0.3,0.1,0.4
		c-0.8,0.3-1.6,0.7-2.5,0.8c-2.7,0.5-5.3,0.4-8,0.1c-0.5-0.1-1,0-1.8,0c0.2,1.1,0.4,2,0.6,2.8c-0.3-0.3-0.7-0.6-0.9-1
		c-0.3-0.6-0.6-1.2-1-2.1c-0.3,0.7-0.7,1.2-0.8,1.7c-1.1,3.2-1,6.7-1.3,10c-0.3,3.9-0.2,7.8-0.3,11.8c0,2.2-0.1,4.5,0,6.7
		c0,2.1,0.1,4.2,0.8,6.2c2.5,0.9,2.5,0.9,4.5,0c0.4-1.2,0.9-2.6,1.2-4c0.2-0.6,0.3-1.4,0.1-2c-0.9-4-0.6-8.1-0.5-12.1
		c0-1.8,0.1-3.6-0.7-5.3c0.7,0.5,1.4,1,2,1.6c1.2,1,1.2,1,3.2,1.4c-0.2,0.4-0.4,0.8-0.6,1.2l0.1-0.1c-0.3,0-0.7-0.1-1.2-0.1
		c0,0.7-0.1,1.3,0,1.9c0.2,1.6,0.5,3.1,0.7,4.7c0.3,3.2-0.1,6.3-1.1,9.3c-0.5,1.4-0.9,2.8-1.4,4.1c2.3,0.7,20.3,2.4,23.3,2.2
		c0.6-1.7-0.1-3.7,0.8-5.7c0.5-0.1,1.2-0.2,1.8-0.2c1.9,0.2,3.5-0.3,5-1.5c-0.1,1.3-0.9,2-2.2,2.1c-1.2,0.1-2.4-0.1-3.5,0.4
		c-0.4,2.8-0.4,2.8,0.4,5.4c9.3,0.8,18.7,1.6,28.1,2.4c9.4,0.8,18.8,1.8,28,2.6c2-1.3,2.8-2.9,3.4-4.8c2-6.6,5.4-12.4,10.6-17
		c4.3-3.8,9.3-6.3,15-7.3c6.2-1.1,12.3-0.8,18.3,1.1c4.7,1.5,8.9,3.8,12.5,7.2c6.3,6,9.9,13.3,11.2,21.8c0.3,1.6,0.5,3.3,0.8,4.9
		c0.5,0.2,0.8,0.3,1.1,0.3c2.1,0.2,4.3,0.4,6.4,0.6c1.2,0.1,2.5,0,3.7,0.2c3.2,0.4,4.6,3.8,2.6,6.3c-0.5,0.6-1.1,1.1-1.7,1.5
		c-4.3-0.4-8.4-0.8-12.6-0.8c-0.4,1.6-0.6,3-1,4.4c-2.3,8.6-6.5,16-13.8,21.4c-5.4,4-11.3,5.7-18.1,5.1c-2.7-0.2-5.4-0.6-8-0.8
		c-3.2-0.3-6.2-1.1-9.1-2.4c-0.7-0.3-1.4-0.6-2.2-0.9c-0.2,0.4-0.3,0.8-0.4,1.1c-0.2,5.5-0.4,11-0.5,16.6c0,0.8,0,1.6,0.2,2.3
		c0.4,1.2,0.3,2.4,0,3.7c-0.9,4.8-2.7,9.3-5.2,13.5c-0.9,1.6-1.8,3.4-3.2,4.1c-1.4,0-2.3,0.1-3.2,0c-1.3-0.1-2.7-0.3-4-0.5
		c-4.3-0.9-8.1-2.9-11.4-5.7c-5.4-4.5-10.7-8.9-15.6-14c-0.4-0.5-0.9-0.8-1.3-1.1c-1.4,0.9-2.6,1.8-3.9,2.5
		c-1.4,0.8-2.8,1.4-4.3,2.1c-0.2,1-0.4,1.8-0.4,2.7c-0.1,3.3,0,6.5-0.1,9.8c-0.1,2.9-0.1,5.9-0.3,8.8c-0.1,2.2-0.7,4.5-0.6,6.7
		c0.3,6,0.6,11.9,2.7,17.6c0.6,1.7,1.1,3.4,1.5,5.2c0.5,2,1.4,4.1,0.6,6.3c-0.1,0.4,0.1,0.9,0.1,1.3c0,1.7-0.1,3.4-0.2,5
		c0,0.5-0.1,1.1,0.1,1.6c1.4,6.2,2.9,12.3,4.2,18.4c2.9,13.2,4.1,26.5,3.4,40c-0.2,4.5-0.6,9-0.7,13.5c-0.3,9.7-1.5,19.3-4,28.7
		c-0.2,0.9-0.3,1.7-0.2,2.6c0.6,5.8,0.8,11.7-0.3,17.5c-0.3,1.5-0.3,2.9-0.2,4.3c0.4,4.4,1.1,8.8,0.7,13.2
		c-0.4,4.4-0.3,8.8-0.4,13.2c0,3.3-0.5,6.5-1.4,9.7c-0.6,1.9-0.7,3.7-0.9,5.7c-0.3,4.5-0.5,9-1.3,13.4c-0.8,4.8-1.4,9.6-1.3,14.4
		c0,0.7,0.1,1.4,0,2c-0.4,3.4,0.4,6.7,0.8,10.1c0.7,0.4,1.5,0.6,2.1,1.1s1.1,1.1,1.5,1.8c2.1,3,4.3,6,6.3,9.2c1.8,2.9,4,5.4,6.7,7.6
		c1.2,1,2.6,1.7,3.3,3.3c0.1,0.4,0.6,0.6,1,0.8c1.3,0.6,2.7,1.2,4,1.8c0.7,0.3,1.4,0.6,2.3,1c-0.4,1.5,0,2.7,0.4,4
		c0.1,0.3,0.2,0.7,0.3,1c1.4,4.3-1.9,9.9-6.2,10.4c-1.6,0.2-3.1,0.6-4.7,0.8c-2.3,0.3-4.7,0.5-7.1,0.7c-7.4,0.7-14.1-1-19.6-6.3
		c-0.5-0.5-1-0.9-1.4-1.3c-4.6,1.5-4.6,1.4-9.3,1.4c-2.7,0-5.1-0.9-7.3-2.3c-1.9-1.1-2.1-2.2-1-4.2c1.8-3.4,3.1-7,3.7-10.8
		c0.5-3.7,0.8-7.4,1-11.1c0.1-2,0.4-3.8,2-5c1.1-0.5,2.1-0.1,3.1,0.1c0.5,0.1,1,0.5,1.6-0.3c-0.6-3.4-1.3-7-1.8-10.5
		c-0.8-5.1-1.4-10.3-2.1-15.4c-0.2-1.3-0.6-2.7-0.6-4c0-2.4-0.5-4.7-1.5-6.9c-2.2-4.9-3.1-10.1-3.7-15.4c-0.1-1.2,0-2.5,0.1-3.7
		c0.3-2.7,0.7-5.3,1.1-8c0.4-3,0.7-6,1.3-9c0.7-4.1,1.6-8.2,2.4-12.5c-1.7-4.5-2.5-9.5-2.6-14.6c0-0.9-0.2-1.8,0.4-2.6
		c0.7-1.1,0.5-2.1,0-3.2c-0.8-1.8-1.5-3.5-2.2-5.3c-2.6-5.7-4.6-11.5-6.2-17.5c-0.9-3.4-1.8-6.7-2.8-10.1c-0.2-0.8-0.6-1.6-1-2.8
		c-0.4,0.9-0.7,1.4-0.8,2c-2.7,9.4-6.5,18.3-11.5,26.6c-0.4,0.7-0.8,1.4-1,2.1c-0.8,3.5-1.6,7-2.4,10.5c-0.4,1.6-0.6,3.4-1.3,4.9
		c-1.6,3.7-3.3,7.4-5.7,10.7c-0.6,0.8-1.1,1.6-1.6,2.4c0.4,5.2-0.2,10.1-0.5,15c-0.1,2.1-0.1,4.3-0.6,6.4
		c-1.5,6.5-3.1,12.9-4.8,19.3c-1.3,5-2.3,10.1-3,15.2c-1.1,9.2-0.9,18.4-0.8,27.6c0.7,0.8,1.4,1.5,1.9,2.4c2.5,4.4,5,8.8,7.5,13.2
		c0.6,1.1,1.5,1.9,2.7,2.5c1.7,0.8,3.5,1.6,5.2,2.4c1.6,0.8,1.5,0.8,2,3c2,0.6,4.1,1.2,6.2,1.9c0.5,2.3,1.1,4.3,1.4,6.4
		c0.2,1.1,0.3,2.4-0.1,3.3c-1.1,2-2.6,3.8-5.1,4c-1.6,0.1-3.1,0.7-4.5,1.2c-4,1.6-8.1,1.7-12.3,0.8c-1.1-0.3-2.2-0.5-3.3-0.5
		c-3.7-0.1-7.1-1.2-10.3-3c-1.7-0.9-3.4-1.8-5.1-2.8c-6.7,3.3-12.5,2.2-17.4-3.3c0.1-3.9,0.7-6.3,3-9.8c1.2-1.9,1.9-3.8,2-6
		c0.1-1.6,0.4-3.1,0.6-4.7c0.3-1.8,0.7-3.5,0.9-5.3c0.2-1.4,0.6-2.6,1.5-3.8c1-0.1,2-0.3,3-0.4c-0.3-3.8-0.7-7.4-0.9-11
		c-0.3-7.3-0.5-14.6-1.5-21.9c-0.5-3.6-0.9-7.2-1.3-10.7c-0.5-3.9-1-7.8-1.5-11.7c-0.1-0.4-0.1-1.1-0.3-1.2
		c-1.1-0.7-0.9-1.8-0.9-2.7c0.2-3.3,0.5-6.5,0.9-9.8c0.3-2.5,0.8-4.9,1.4-7.3c0.5-2,1.2-3.9,1.8-5.8c1.7-5.3,3.8-10.4,6.8-15.1
		c0.9-1.4,1.5-2.7,1.9-4.2c0.4-1.4,0.8-2.8,1.2-4.2c1.6-5.7,2.5-11.4,2.8-17.3c0.5-10.7,0.3-21.4,0-32.1c-0.1-2.4-0.4-4.7-0.4-7.1
		c0-4.7,0.1-9.5,0.3-14.2c0.2-4.1,0.5-8.1,0.8-12.1c0.4-6.8,1.3-13.4,2.8-20.1c2.2-9.8,5.9-18.9,11.5-27.2c1.3-2,2.6-3.9,3.9-5.9
		c1.1-1.7,1.9-3.6,2.2-5.6c0.8-4.6,0.7-9.2-0.8-13.7c-1.4-4.2-2.9-8.3-4.6-12.3c-1.6-3.7-3.4-7.4-5.2-11c-0.1-0.3-0.4-0.5-0.6-0.9
		c-1.2,1.2-1.7,2.6-2.2,3.9c-0.8,1.9-1.5,3.8-2.3,5.6c-1.6,3.8-4.1,6.7-8.1,8.1c-3.1,1.1-6.3,1.6-9.7,1.1c-1.2-2.5-3.2-4.7-3.5-7.6
		c-1.5-1.5-1.1-3.6-1.3-5.4c-0.1-0.9,0-1.8,0-2.7c0-2.7,0.5-5.2,1.8-7.7c2.4-4.8,4.3-9.9,6.4-14.9c0.2-0.5,0.3-1,0.5-1.7
		c-0.5,0-0.9-0.1-1.1,0c-5.3,1.6-10.7,1.4-16.1,0.6c-2.9-0.4-5.7-1.4-8.5-2.3c-4.9-1.5-8.9-4.2-12.5-7.8c-4.2-4.4-7.1-9.5-9.1-15.3
		c-1.8-5.2-2.7-10.5-2.8-15.9c0-0.9,0.2-1.8-0.8-2.7c-4.6-0.3-9.5-0.6-14.3-1.1c-4.8-0.5-9.7-0.7-14.5-2.1c-0.4-0.7-0.9-1.4-1.2-2.3
		c-0.4-1-0.3-2.1,0.4-2.9c1.2-1.4,2.6-2.4,4.6-2.2c8.2,0.9,16.4,1.6,24.6,2.4c0.6,0.1,1.3-0.1,1.8-0.1c0.2-0.3,0.2-0.4,0.3-0.5
		c0.1-0.6,0.2-1.1,0.3-1.7c1.9-9.4,5.6-18,12.3-25.2c3.7-4.1,8.2-7,13.3-9c1-0.4,2.1-0.7,3.2-1c6.1-1.2,12.1-1,18.1,0.3
		c0.8,0.2,1.9,0.1,2.3,1.1c-1-0.1-2-0.3-3-0.4c-0.9-0.1-1.8-0.2-3.5-0.3c1.1,0.6,1.4,0.9,1.8,1c7.4,3.6,12.6,9.3,16.1,16.6
		c3,6.2,4.5,12.7,4.9,19.5c0.4,8.4-0.8,16.6-3.8,24.5c-2.7,7.2-6.8,13.5-12.7,18.4c-4.8,4-10.3,6.8-16.7,7.3c-0.4,0-0.8,0.1-1.4,0.1
		c3.5,1.1,6.9,1,10.5,0.6c4.8-0.5,9.2-2.2,13.3-4.5c0.8-0.4,1.5-1,2.2-1.6c4-3.4,7.4-7.2,10-11.7c3-5.1,5.2-10.5,6.3-16.3
		c2.3-12,1.6-23.7-3.7-34.9c-4.1-8.7-10.7-14.6-19.7-17.9c-0.3-0.1-0.5-0.4-0.7-0.7c3.6,0.4,6.7,1.9,9.6,3.9c4,2.7,7.2,6.1,9.8,10.2
		c2.7,4.2,4.6,8.8,5.8,13.6c1,4.1,1.5,8.2,1.6,12.4c0,0.8,0.2,1.5,0.3,2.2c1.3,0.3,2.3,0.7,3.4-0.1c-0.6-5.2-0.7-10.4-0.5-15.5
		c0.1-3.3,0.7-6.7,0-10.1c-0.1-0.6,0-1.4,0.1-2c0.5-2.2,0.9-4.4,1.6-6.6c1.3-4.1,2-8.3,1.9-12.6c0-3.2,0.6-6.3,1.2-9.4
		c0.6-3,2.6-4.9,5.7-5.5c2.9-0.5,5.6-0.2,8,1.6c0.5,0.4,1.1,0.8,1.3,1c2.5,0.3,4.6,0.5,6.7,0.7c5.4,0.4,9.9,2.7,14.3,5.7
		c0.8,0.6,1.5,1.3,2,2.2c2.3,4,3.2,8.4,3.8,12.9c0.3,2.2,0.4,4.5-0.5,6.7c-0.3,0.7-0.2,1.6-0.2,2.3c0,1.7,0,3.4,0.3,5.1
		c0.6,3.3-0.4,6.3-1.6,9.2c-1.2,2.9-2.6,5.7-4,8.6c-0.3,0.7-0.5,1.5-1.5,1.7C268.3,190.6,269.7,187.1,271.3,183.6z M354.8,221.7
		c0.5,0.1,0.7-0.1,0.7-0.6c0.2-0.1,0.5,0,0.6-0.2c2.6-3.4,3.5-7,1.7-11.1c0-0.1-0.2-0.1-0.3-0.1c0.2-1.2-0.1-2.2-1.4-2.6
		c0-0.3-0.1-0.5,0-0.3c-0.1-0.2,0,0,0.1,0.2c0.3,0.9,0.4,2,1.4,2.6c0,0.4-0.1,0.9-0.1,1.3c0.4,3.4-0.2,6.6-1.9,9.6
		c-0.1,0.2-0.1,0.4-0.1,0.6C355.3,221.4,355.1,221.6,354.8,221.7c-0.1,0.3-0.3,0.6-0.5,0.8l-0.2,0.1l0.2-0.1
		C354.4,222.2,354.6,222,354.8,221.7z M329.2,205.6c1,1,1.5,2.2,1.6,3.6c0.1,0.8,0.6,1.1,1.5,0.9c0.9-1,0.3-2.1,0.2-3.2
		c0-0.1,0.1-0.1,0.1-0.2c0,0.1-0.1,0.1-0.1,0.2c-0.5-0.2-1-0.3-1.4-0.5C330.4,206.2,329.7,206,329.2,205.6c-0.3-0.2-0.5-0.4-0.8-0.7
		c-0.2-0.3-0.4-0.7-0.6-1c0-0.1-0.3,0.1-0.5,0.1c0,0,0,0.2,0.1,0.3c0.4,0.2,0.7,0.3,1.1,0.5C328.7,205.1,328.9,205.4,329.2,205.6z
		 M224.2,212.3c0.1-1.5,0-3.1,0-5.3c-1.1,3.1-1.6,5.5-1.9,8.1c-0.1,0.1-0.3,0.3-0.4,0.4l0.1,0.2c0.1-0.2,0.2-0.5,0.3-0.7
		C223.7,214.7,224.1,213.5,224.2,212.3z M234.3,141c-1.2,2.3-1.7,4.7-2,7.9c1-1.3,1.7-2.1,2.3-3c0.7-1.2,1.6-2.1,3-2.4
		c0.8-0.2,1-0.8,1-1.5l-0.1,0.1c1.6,0.5,1.9,0.3,2.7-1.4l-0.1,0.1c0.2-0.1,0.4-0.1,0.6-0.2c0.1,0,0.2-0.1,0.5-0.2
		c-0.4-0.6-0.8-1.1-1.1-1.7c1,0.5,2,0.9,2.9,1.4c0.3-1.8-0.7-2.6-3.3-2.5c0.2,0.4,0.3,0.8,0.5,1.2
		C237.9,137.5,235.9,138.1,234.3,141z M268.3,237.9c0.3-0.2,0.6-0.5,1-0.7c0.1,0.1,0.3,0.3,0.3,0.4c-0.1,1.3,0.2,2.4,1,3.4
		c0.6,0.8,1.1,1.7,1.6,2.4c2.5,0.6,4.3-0.5,5.8-2.2c1.6-1.9,2.4-4.1,1.6-6.6c-2-6.8-5-13-9.9-18.3c-1.8-1.9-3.5-3.8-5.5-5.9
		c-9.1-0.8-18.5-1.7-28.2-2.6c0.5,0.9,0.7,1.5,1.1,2c3.2,4,5.7,8.4,8.3,12.7c1.9,3.3,4,6.6,5.9,9.9c1.2,2,2.6,3.7,4.5,5
		c2,1.4,4.1,2.8,6.2,4.2c2.5,1.7,5.3,2.2,8.6,2c-0.2-0.6-0.3-1-0.5-1.3c-1.5-1.9-2.9-3.7-4.4-5.5l-0.1,0.1
		C266.7,236.5,267.2,237.7,268.3,237.9z M289.7,563.2c-1.2,0.3-2.3,1-3.4,0.9c-0.7-0.7-0.4-1.3,0-1.9c0.6-1,1.6-1.5,2.7-1.9
		c1.5-0.6,3-1,4.5-1.5c0.4-0.1,0.8-0.3,1.1-0.5c0-0.9-0.6-1-1.2-0.9c-3.1,0.5-6.2,1.2-8.9,3c-0.4,0.3-0.8,0.5-1.2,0.7
		c-0.1,0-0.2,0-0.5,0c0-0.5-0.2-1.1-0.1-1.5c0.4-1.2,1.3-2.1,2.4-2.8c1.5-0.9,3-1.4,4.8-1.6c0.8-0.1,1.7-0.1,2.8-0.2
		c-0.7-1.4-1.7-1.7-2.9-1.6c-2.3,0.2-4.4,1.1-6.3,2.3c-0.9,0.5-1.7,1.2-2.5,1.7c-0.3,0.2-0.8,0.3-1.2,0.5c0.2-1.7,0.3-2.1,1.4-2.9
		c0.9-0.7,1.8-1.3,2.8-1.8s2.1-0.9,3.2-1.2c1.1-0.3,2.2-0.3,3.5-0.5c-1.3-2.1-2.4-4-3.6-5.9c-0.5-0.7-1.2-1-2.1-0.8
		c-1,0.2-2,0.3-2.9,0.7s-1.7,1-2.4,1.8c-0.6,0.6-1.1,1.4-1.5,2.3c-1.1,2.7-3.2,4.6-5.4,6.3c-1.2-0.3-2.4-0.6-3.5-1
		c-1.7-0.6-2.4-1.9-2.3-3.6c0-0.1,0.1-0.1,0.4-0.3c0.4,0.2,0.9,0.4,1.6,0.7c0-0.8-0.1-1.5-0.1-2.2c-1.4-0.4-2.6-0.5-3.9,0.1
		c-0.1,0.6-0.4,1.2-0.4,1.9c-0.2,2.9-0.4,5.8-0.6,8.8c-0.1,1.7-0.1,3.4-0.3,5.1c-0.2,1.9-0.8,3.6-1.9,5.3c-1.1,1.6-1.5,3.7-2.2,5.4
		c0.5,1.2,1.5,1.3,2.3,1.6c1.5,0.6,3.1,0.7,4.3,1.8c0.3,0.3,1.1,0.3,1.6,0.3c1.8,0,3.6-0.4,5.2-1.2c1-0.5,2-0.9,3.1-1.4
		c1,1,1.7,2.1,2.7,2.9c1,0.8,2.1,1.2,3.2,1.8c0.4,0.2,0.9,0.4,1.1,0.8c0.7,1.6,2.2,1.8,3.6,2.1c3.5,0.7,6.9,0.6,10.4,0.3
		c1.3-0.1,2.7-0.3,4-0.3c2.7,0,5.4-0.5,7.9-1.5c2.9-1.1,3.3-1.7,3-4.8c-0.2-2.1-0.2-4.3-1.2-5.9c-3.3-2.5-6.3-4.8-9.5-7.2
		c-1.7,0.7-3.5,1.1-5.4,0.5c-0.3-0.1-0.4-0.4-0.6-0.7c1.5-0.9,3.2-0.1,4.6-0.7c-0.1-0.7-0.5-1.1-1.2-0.9c-1.8,0.5-3.7,1-5.5,1.5
		c-0.8,0.3-1.6,0.7-2.4,1c-0.8-0.5-0.7-1-0.3-1.5c0.5-0.6,1-1.2,1.5-1.8c0.3-0.1,0.6-0.1,0.9-0.2c-0.5-0.4-0.7-0.2-0.8,0.3
		C291.2,563,290.5,563.1,289.7,563.2z M212.6,232.5c-3,3.7-6.6,6.8-10.9,8.9c-1.4,0.7-2.3,1.6-2.8,3.2c-0.7,2.6-1.8,5-2.5,7.7
		c-0.8,3.3-2.6,6.3-4.5,9c-1,1.5-1.5,2.9-1.4,4.7c0.1,2.1,0,4.3,0.2,6.4c0.3,3.4,1.6,6.5,3.6,9.5c4.2,0.7,8.2,0,11.9-2.2
		c1.1-0.7,1.9-1.9,2.6-3c0.8-1.2,1.4-2.5,2-3.9c4.5-10.2,8.2-20.7,10.7-31.6c0.3-1.2,0.6-2.4,1-3.6c0.2-0.6,0.8-1.1,1.1-1.6h-0.1
		c-0.1,1,0,2-0.2,3c-1.2,5.6-2.4,11.2-4.2,16.7c-0.1,0.4-0.2,0.8-0.2,1.2c0.6,0.6,1,0.1,1.3,0c3.4-1.7,6.8-3.5,9.7-6.1
		c2.6-2.3,4.4-5,5.5-8.4c2-6.4,2.3-12.9,0.7-19.3c-0.7-2.7-1.8-5.3-2.8-8c-0.9-2.2-2.3-4.2-4-5.8c-0.9-0.8-2-1.5-3-2.1
		c-0.3-0.2-0.8,0.1-1.2,0.2c0,1.6,0.5,2.7,1.8,3.6c0.8,0.5,1.4,1.5,2,2.3c0.1,0.2,0,0.6,0,1c-1.5-0.3-1.7-1.9-2.8-2.2
		c-1.4,1.9-2.7,3.9-4.1,5.7c-1.3,1.7-2.2,3.6-2.8,5.7c-1.3,5.4-2.7,10.7-4.1,16c-0.2,0.9-0.2,1.8-0.4,2.7c-0.6,4.5-1.2,8.9-1.8,13.4
		c-0.4,2.9-0.7,5.8-1,8.7c-0.3,2.2-0.5,4.5-1.6,6.5c-0.2,0.5-0.6,0.8-1,1.4c-0.5-1.2,0-2,0.2-2.9c0.7-2.7,1.1-5.5,1.1-8.3
		c0-2.4,0.6-4.9,1-7.4c0.7-4.7,1.6-9.3,2-14c0.2-2.6,0.9-5.1,1.5-7.6c0.2-1,0.7-1.9,0.3-3c0.1,0,0.2,0,0.3,0c-0.1,0-0.1,0.1-0.2,0.1
		C214.5,230.4,213.5,231.4,212.6,232.5z M306.2,243.1c3.7,2.7,6.5,6.2,8.8,10.1c0.9,1.4,1.6,2.9,2.4,4.3c0.9,0.1,1-0.5,1.3-1
		c1.8-4.3,3.3-8.6,3.5-13.3c0.1-3.2,0.8-6.5,1.2-9.7c0.2-2,0.3-4,0.6-6c0.3-2.2-0.7-3.6-2.6-4.6c-1.8-0.9-3.5-2-5.1-2.9
		c-0.9-1.9-1.7-3.6-2.5-5.4c-5.6-0.5-11-1.7-16.5-1.7c-4.8,0-9.6-0.6-14.5-1c-3.6-0.3-7.2-0.6-10.8-0.9c-0.3,0-0.6,0.1-1.2,0.2
		c1.4,1.2,2.8,2,4.3,2.3c2.9,0.7,5.8,1.9,8.9,1.5c0.7-0.1,1.6,0.2,2.3,0.5c1.7,0.7,3.3,1.4,4.9,2.2c0.8,0.4,1.5,1,2.2,1.6
		c1.2,1.2,2.3,2.4,3.5,3.6c1.5,1.4,2.6,3.1,3.3,5c1.2,2.8,1.8,5.8,2.1,8.8c0.1,1.3,0.4,2.6,0.7,4c-1-0.3-1.5-0.9-1.8-1.8
		c-0.4-1.2-0.7-2.4-0.9-3.6c-0.3-1.4-0.6-2.9-1-4.3c-0.9-3.2-2.5-6-5.1-8.1c-1.1-0.9-2.1-2-3.3-2.9c-2.2-1.8-4.7-3.2-7.6-3.3
		c-2.3-0.1-4.4-0.5-6.5-1.4c-0.5-0.2-1.1-0.1-1.6-0.2c0-0.1-0.1-0.2-0.1-0.3c0.1,0.1,0.1,0.1,0.2,0.2c0.2,0.5,0.3,1.1,0.6,1.5
		c4.3,5.2,8.3,10.7,11.9,16.4c1.3,2,2.8,3.8,4.3,5.9c0.6-0.7,1-1.2,1.7-1.9c0.5,0.1,1.1,0.2,1.7,0.3c0,0.4,0,0.7,0,0.7
		c-1.4,0.7-1.4,0.7-2.3,2.7c0.3,0.6,0.7,1.3,1.1,2c2.4,4,3.3,8.3,2.9,13c-0.1,0.7-0.2,1.4-0.2,2c0.2,3.1-0.9,5.7-2.8,8.1
		c-0.1,0.2-0.2,0.4-0.4,0.7c0.5,0.5,0.9,1.2,1.5,1.7c5.3,4.5,10.6,9.1,16,13.5c4.1,3.3,8.7,5.6,14,6.4c0.5,0.1,1.1,0.1,1.7,0.2
		c1.8-3.4,3.7-6.7,5.6-9.9c1.3-2.1,2.2-4.5,2.2-7c0.2-7.3,0.4-14.6,0.6-22c0.1-2.3,0-4.5,0-6.8c0-4.3,0.4-8.5,1-12.8
		c0.3-2,0.4-3.9,1-5.9c0.7-2.2,0.5-4.7-0.8-7c-1.7-0.5-3.5-0.6-5.3-0.3c0-0.1-0.1-0.1-0.1-0.2c0,0.1,0.1,0.1,0.1,0.2
		c-0.1,0.4-0.2,0.8-0.3,1.3c-1.7-0.7-3.3-1.6-5-1.8c-3.1-0.4-6.2-1.3-9.6-0.6c-0.2,1.3,0.6,2.3,0.7,3.5c1.3,1.2,2.7,2.1,4.2,2.8
		c0.9,0.4,1.8,0.9,2.6,1.5c1.1,0.9,1.6,2,1.4,3.6c-0.5,4-0.9,8-1.4,12.1c-0.5,3.9-1,7.8-1.6,11.7c-0.3,1.9-0.9,3.6-1.9,5.4
		c-1.2,2.1-2.2,4.4-2.2,7c0,0.5-0.1,1.1-0.9,1.3c-0.1-0.4-0.2-0.9-0.2-1.3c0.1-1.3-0.4-2.4-1.1-3.4c-1.6-2.4-3-5-4.6-7.5
		c-1.9-2.9-3.8-5.8-6.4-8.3c-0.4-0.4-0.6-0.9-0.9-1.4C304.8,242.4,305.5,242.6,306.2,243.1z M338.5,217.6c0.1,0.1,0.1,0.1,0.2,0.2
		c0.1,1.1,0.2,2.3,0.1,3.4c-0.1,1.3-0.4,2.7-0.6,4c-0.1,0.8-0.5,1.5-0.6,2.3c-0.7,5.6-1.3,11.2-1.2,16.8c0,0.6,0,1.1,0,1.7
		c0.5,0.4,0.9,0.8,1.4,1c5.2,2.6,10.6,3.7,16.4,3c2.3-0.3,4.6-1,6.8-2c4.3-1.9,8-4.6,11-8.3c11.3-13.6,12.4-33.5,2.6-48.2
		c-4.3-6.4-10.1-10.8-17.8-12.6c-3.5-0.8-7-0.8-10.4-0.1c-5.9,1.3-10.9,4-15.1,8.4c-4,4.2-6.7,9-8.6,14.4c0.7,0.8,1.8,0.1,2.5,0.7
		c0.7,0.6,1.5,0.5,2.2,0.5c0.5,0,1.1,0.2,1.6,0.4c0.8,0.3,1.7,0.5,2.5,0.9c1.7,0.8,3.5,1.6,5.1,2.5c0.4,0.2,0.5,1,0.9,1.4
		c0.3,0.4,0.9,0.6,1.4,0.9c0.6-0.9,1.1-1.7,1.5-2.4c1.6-2.5,3.9-4,7-4.2c2.3-0.2,4.5,0.2,6.6,1.1c3.5,1.5,5,4.4,5.6,7.9
		c0.5,2.8,0,5.6-1.2,8.2c-1.5,3.3-5.9,5.9-9.4,5.2c-0.4-0.1-0.9-0.2-1.3-0.2c-3.3-0.2-5.7-1.9-7.5-4.5c-0.5-0.7-1-1.5-1.4-2.2
		C338.6,217.8,338.6,217.7,338.5,217.6z M269.1,212.3c-0.1-0.1-0.3,0.1-0.5,0.1c0,0.1,0.1,0.3,0.1,0.3c0.3,0.1,0.6,0.2,0.9,0.3
		c0.5,0.6,0.8,1.3,1.4,1.8c4.1,4.3,7.2,9.2,8.6,15.1c0.3,1.1,0.7,2.1,1,3.2c0.3,1.3,0.5,2.7,0.6,4c0.2,3-2.1,4.8-3.8,6.9
		c-0.4,0.4-1.2,0.6-1.9,0.7c-4.6,0.8-9.3,0.7-13.6-1.2c-3.6-1.6-6.8-3.9-9.3-7.1c-4.3-5.3-7.8-11-11.2-16.9c-2-3.5-4.2-7-6.2-10.5
		c-0.6-1-1.3-1.5-2.4-1.5c-0.7,0-1.3,0-2.2,0c1.3,2,2.4,3.8,3.5,5.6c4.1,6.9,5.9,14.4,5,22.4c-0.8,7.2-4.5,13.2-10.1,17.8
		c-2.5,2-5.4,3.7-8.1,5.4c-0.8,0.5-1.8,0.8-2.8,1.2c-1.2,1.8-1.1,3.5-0.1,5.4c2,3.7,3.8,7.4,5.8,11.1c6.1-1.7,12.4-2.3,18.7-2.2
		c3.7,0,7.4,0.3,11.1,0.7c7.9,0.7,15.7,1.1,23.6,1c-0.7,0.2-1.5,0.6-2.2,0.6c-7.4,0.7-14.8,0.5-22.3-0.2c-3.8-0.4-7.6-0.6-11.5-0.9
		c-2.5-0.2-4.9,0.1-7.4,0.5c-3.2,0.6-6.4,0.9-9.7,1.6c0.1,0.7,0.2,1.2,0.4,1.7c1.1,3.3,2.3,6.6,3.4,9.9c1.6,4.9,1.7,10,0.6,15
		c-0.3,1.6-1,2.9-1.9,4.3c-1.8,2.9-3.5,5.8-5.2,8.7c-0.2,0.3-0.2,0.6-0.3,1.1c2.9,0.7,5.7,1.4,8.5,2.1c7.4,1.7,14.5,4.1,21.4,7.2
		c2.8,1.3,5.9,1.6,8.9,1.8c3.4,0.3,6.8,0.4,10.1,0.4c4.4,0.1,8.7-0.6,12.8-2.5c1-0.5,2-0.9,3.1-1.4c-0.1-0.8-0.2-1.4-0.4-2
		c-0.9-3-1.8-6.1-2.8-9c-0.9-2.6-1.5-5.2-1.6-7.9c-0.3-4.7-0.5-9.4,0.8-14.1c0.5-1.8,0.3-3.8,0.3-5.7c0-3-0.1-6.1-0.2-9.1
		c0-0.3-0.2-0.6-0.3-1.2c-1.6-0.3-3.2-0.6-4.8-0.9c0.6-0.2,1.2-0.6,1.8-0.7c1-0.1,2,0,3.2,0c0.2-0.6,0.5-1.3,0.7-2
		c0.7-1.9,1.8-3.4,3.8-4.1c2.6-0.9,4.6-2.8,6.6-4.6c1.1-1,1.7-2.4,1.9-4.2c0.5-4.8,0.1-9.4-1.1-14c-0.8-3-2.3-5.6-4.3-8
		c-2.1-2.5-3.9-5.2-5.8-7.9c-3.7-5.1-7.3-10.3-11-15.4c-0.8-1.1-1.6-2.3-3.2-2.1C269.5,212.8,269.3,212.5,269.1,212.3z M178.3,209.9
		c-1.2,3-2.4,6.1-3.6,9.1c-0.2,0.5-0.3,1.1-0.6,1.6c-0.5,1.1-1.3,1.5-2.4,1c-4-1.7-5.7-4.8-5.5-9.4c1.5-1.7,2.9-3.5,4.6-5
		c1.5-1.4,3.3-2.6,5.3-4.2c-3.8-1-7.5-0.8-11.1-1.2c-3.7-0.5-7.4-0.4-11.1-1c-0.1,0.7-0.3,1.2-0.3,1.6c0.2,6.4,1.6,12.5,4.2,18.3
		c0.5,1,1.1,2,1.6,2.9c0.8,1.2,1.6,2.4,2.4,3.7c1.9,3.1,4.1,5.9,7.4,7.7c0.3,0.2,0.6,0.6,0.8,0.9l0.1-0.1c-2.4,0-4-1.4-5.5-2.9
		c-5.9-6.2-9.7-13.5-11.4-21.9c-0.4-2.2-0.6-4.5-0.9-6.7c-0.1-1.1-0.2-2.2-0.3-3.5c-1-0.1-1.9-0.1-2.8-0.2c-0.1,0.6-0.3,1-0.3,1.4
		c0.1,9.5,2.3,18.3,7.5,26.3c3.2,5,7.6,8.9,13.1,11.4c5,2.2,10.2,2.6,15.5,1.1c5.2-1.5,9.7-4,13.6-7.9c6.1-6.2,10.1-13.5,12.3-21.8
		c3-11.2,2.9-22.3-0.9-33.3c-2.3-6.7-6-12.6-11.7-17c-4.9-3.8-10.4-5.9-16.6-5.4c-1.9,0.1-3.8,0.5-5.6,1c-4.7,1.4-8.9,3.8-12.4,7.3
		c-4.1,4-7.2,8.6-9.6,13.8c-1.8,3.9-3.1,8-4,12.2c-0.2,0.8-0.2,1.6-0.3,2.3c0.9,0.8,1.9,0.7,3,0.3c0.1-0.5,0.3-1,0.4-1.5
		c1.2-6.5,3.7-12.5,7.4-18c3.2-4.7,7.2-8.4,12-11.2c2.8-1.7,6-2.7,9.2-3.3c1.4-0.3,2.9-0.2,4.3,0.1c1.9,0.4,3.7,1.1,5.5,1.8
		c0.5,0.2,0.9,0.6,1.7,1.2c-2.1,0-3.6-0.5-5-1.1c-3.1-1.3-6.1-0.9-9.3-0.1c-3.8,1-7,2.9-10,5.4c-5.2,4.4-9,9.8-11.6,16
		c-1.3,3.1-2.4,6.3-2.9,9.7c-0.1,0.4-0.1,0.9-0.1,1.3c0.4,0.2,0.7,0.4,1,0.5c7.9,0.6,15.7,1.3,23.6,1.9c1.5-2,3.5-2.9,5.8-3.2
		c1-0.1,1.9-0.1,2.6,0.4c1.9,1.3,3.5,2.8,4.4,5c1,2.5,0.5,4.7-1.2,6.6c-1.1,1.2-2.2,2.3-3.8,2.7c-0.4,0.1-0.8,0.4-1.4,0.6
		c1.5,2.6,2.3,5.3,2.6,8.2c0.2,1.9-0.1,3.8-0.6,5.7c-0.2,0.7-0.6,1.5-1.1,2.1c-0.9,1.1-2.2,1.6-3.6,1.2c-1.5-0.4-2.7-1.2-3.5-2.5
		c-0.6-0.9-0.9-1.8-0.5-2.9c0.7-1.5,0.6-3.1,0.7-4.6c0.2-2.5,0.5-4.9,0.8-7.4c0.1,0,0.1-0.1,0.2-0.1c0,0.1-0.1,0.1-0.1,0.2
		C179.1,207.6,178.8,208.8,178.3,209.9z M222.4,563.6l-0.3-0.1c-0.3-1.3-0.5-1.5-1.3-1.4c-2.4,0.3-4.7,0.8-6.7,2.2
		c-1.4,0.9-2.8,1.8-4.5,2.1c-0.7-0.8-0.4-1.7-0.1-2.3c0.5-0.9,1-1.8,1.8-2.4c1.8-1.4,3.8-2.4,6.2-2.3c0.6,0,1.1,0,1.7,0
		c-0.2-1.7-0.5-2-1.7-1.8c-4.5,0.8-8.9,1.8-12.2,5.2c-0.1,0.1-0.2,0-0.6,0.1c0-0.6-0.2-1.3-0.1-1.8c0.4-1.5,1.4-2.5,2.7-3.3
		c1.6-0.9,3.3-1.5,5.1-1.8c1.5-0.3,3.1-0.5,4.6-0.8c0.1-0.3,0.2-0.5,0.1-0.7c-1.2-3.4-1.4-3.4-5.2-3.4c-3.9,0.1-6.8,2.1-9.7,4.3
		c-0.6,0.5-0.9,1.3-1.3,1.9c-0.7,0.9-1,2.1-2.3,2.7c-1.5-0.9-3.7-1.2-4.3-3.5c0.9-0.8,1.5,0,2.2,0.2c1.3,0.5,1.9,0.4,2.7-0.5
		c0.5-0.5,0.9-1,1.3-1.6c1.3-2.2,3.4-3.5,5.5-4.9c1.2-0.8,2.6-1.3,4.1-1.4c0.9,0,1.8-0.1,2.9-0.1c0-0.7,0-1.2,0-1.8
		c-0.2-9.5,0.6-18.9,2.2-28.3c0.7-4.2,1.2-8.5,2-12.7c1.2-5.6,2.6-11.2,4-16.8c0.9-3.5,1.4-7.1,1.6-10.7c0-0.5,0-0.9,0.1-1.3
		c1-2.9,0.7-6,0.9-9c0.1-1.6,0.3-3.1,1.1-4.5c1.7-3.3,3.1-6.8,4.6-10.1c1.1-2.5,2.1-5,2.7-7.6c0.2-0.9,0.6-1.7,0.8-2.5
		c0.3-1,0.7-2,0.7-2.9c0-1.6,0.5-3.1,1.2-4.5c2-4.4,4-8.8,5.9-13.3c2.4-5.5,4.4-11.1,6-16.9c2.7-9.8,5.3-19.6,7.9-29.4
		c0.1-0.3,0-0.7,0.1-1.1c-1.4-0.5-2.8-0.4-4.3,0c-1.2,0.3-2.4,0.5-3.6,0.6c-4.3,0.2-8.6,0-12.8-0.7c-6.5-1.2-13.1-2.3-19.6-3.5
		c-1.7-0.3-3.4-0.9-5.1-1.8c0.6,0,1.2-0.2,1.7-0.1c8.7,1.9,17.5,3,26.3,4.2c3.2,0.5,6.5,0.6,9.8,0.8c0.7,0,1.4,0,2-0.3
		c1.9-0.7,3.9-0.9,5.9-0.5c0.8-0.6,0.9-1.4,0.9-2.2c0-2.1,0.9-3.9,1.8-5.7c0.1-0.2,0.4-0.2,0.6-0.3c0.6,0.1,0.5,0.6,0.6,1
		c0,0.4,0,0.9-0.1,1.3c-2.4,8-3.8,16.2-5.9,24.3c-1,3.7-1.8,7.4-2.7,11.3c3.4,6.3,4.8,13.3,6.5,20.1c0.8,3.1,1.7,6.1,3,9
		c1.7,3.9,3.3,7.9,4.9,11.7c-0.1,1.2-0.3,2.3-0.3,3.4c0,2.3,0.3,4.5,0.2,6.8c-0.1,3,0.5,5.8,1.8,8.5c0.2,0.5,0.4,1,0.6,1.5
		c-0.2,0.9-1,0.4-1.4,0.7c-0.1,0.2-0.2,0.4-0.2,0.6c-0.8,4.5-1.6,9.1-2.5,13.6c-0.5,2.4-1,4.9-1.5,7.3c-0.7,3.7-0.7,7.4,0.3,11.1
		c1.5,5.5,3.1,11.1,4.5,16.6c1.5,6.2,2.9,12.5,4.2,18.8c0.5,2.6,0.6,5.4,0.9,8.1c0.4,0.2,0.8,0.4,1.2,0.5c0.3,4-0.5,7.7-2.1,11.3
		c2.1,0.8,3.5,0,4.4-1.6c0.4-0.7,0.7-1.4,1-2.1c1.4-3.1,3.6-5.1,7.2-5.3c0.3,0,0.6-0.2,0.9-0.2c0.6-0.7,0.2-1.4,0.2-2
		c0.1-4.6,0-9.2,0.2-13.9c0.4-7.1,1-14.2,1.6-21.2c0.3-3.7,0.6-7.4,0.9-11.1c0.2-1.7,0.4-3.4,0.8-5c0.7-2.8,0.8-5.6,0.8-8.4
		c0.1-5.1,0.2-10.1,0.3-15.2c0-2.1-0.1-4.2-0.4-6.4c-0.4-3.6-0.3-7.2,0.1-10.8c0.2-1.6,0.4-3.1,0.5-4.6c-0.5-0.6-0.9-1.1-1.5-1.8
		c0.4-1.3,0.7-2.8,1.2-4.1c1.4-4.4,2.1-9,2.9-13.5c1.6-9.3,1.5-18.6,1.4-28c0-3.5,0-7-0.2-10.5c-0.2-4.5-0.4-9-0.7-13.5
		c-0.1-1-0.4-1.9-0.6-3c-1.8-0.2-3.4-0.2-5.1,0.4c-3.1,1-6.3,1.9-9.4,2.7c-4.8,1.3-9.7,1.9-14.7,1.6c-0.8,0-0.8-0.1-2.2-1
		c0.5-0.2,0.9-0.4,1.3-0.4c1.3-0.1,2.7-0.3,4-0.3c5-0.1,9.8-1.2,14.6-2.6c2.1-0.6,4.1-1.2,6.2-1.7c0.9-0.2,1.7-0.6,2.6-0.6
		c0.8-0.1,1.7,0.2,2.7,0.3c-0.1-2.4-0.6-4.6-0.9-6.8c-1-7.1-2-14.3-3.2-21.4c-0.5-3-0.5-6-0.7-9.1c-0.1-1-0.2-2-0.4-3
		c0-0.2-0.3-0.3-0.6-0.7c-0.8,0.3-1.7,0.7-2.7,1.1c-2.1,0.9-4.3,1.3-6.5,1.7c-3.8,0.6-7.6,0.7-11.5,0.7c-6.1,0.1-11.9-1.2-17.5-3.3
		c-0.2-0.1-0.5-0.1-0.6-0.2c-2.5-2.3-5.8-2.8-8.8-3.8c-5.7-1.8-11.5-3.3-17.2-4.9c-0.1,0-0.2,0.1-0.6,0.2c-0.3,0.4-0.7,0.9-1,1.5
		c-3,5.5-5.4,11.2-6.9,17.2c-0.4,1.5-0.5,3.1-0.7,4.7c-0.5,3.2-1,6.5-1.6,9.7c-1.8,8.9-2.7,17.8-2.7,26.9c0,5.7,0.1,11.5,0.5,17.2
		c0.6,7.4,1.2,14.8,1,22.3c-0.1,2.3-0.2,4.5-0.3,6.7c0,0.2-0.1,0.5-0.1,0.7c0.8,4.7-1,9.1-1.4,13.7c0,0.2-0.1,0.4-0.1,0.7
		c-0.6,4.7-2.4,9.7-4.7,13.9c-0.7,1.4-1.3,2.9-1.9,4.3c-1.9,4.7-3.9,9.3-5.7,14.1c-2.6,6.9-3.6,13.9-2.2,21.2
		c0.9,4.9,1.6,9.8,2.2,14.7c1,8.3,1.8,16.6,2.6,24.9c0.2,2.1,0.1,4.3,0.2,6.4c0,0.7,0.1,1.5,0.2,2.4c0.4-0.6,0.7-1,1.2-1.6
		c0.7,1.4,0.5,2.5,0.4,3.6c-0.2,2.1,0.2,4.3-1.6,6c-0.3,0.2-0.3,0.8-0.3,1.3c0,1.1,0,2.2,0,3.5c-1-0.2-0.9-0.9-1.1-1.5
		c-0.2-0.4-0.3-0.9-0.5-1.2c-0.5-0.7-1.9-0.7-2.3,0.1c-0.3,0.6-0.6,1.2-0.7,1.9c-0.3,1.7-0.5,3.3-0.7,5c-0.1,1.7-0.2,3.4-0.1,5.1
		c0,1.4-0.1,2.7-0.6,4c-0.6,1.7-1.1,3.4-1.6,5.1c-0.3,0.9-0.6,1.7-1.6,2.1c-1.3,0.5-1.6,1.8-1.9,3c0.6,1.2,1.7,1.8,2.9,2.1
		c0.7,0.2,1.3,0.2,2,0.4c1.6,0.3,3.1,0.8,4,2.1c1.8,0.4,3.1,0.1,4.5-1c1.5-1.1,3.5-1.1,5.1,0c4,2.6,8.4,3.8,13.1,4
		c0.8,0,1.6,0.2,2.3,0.5c3.3,1.5,6.6,1.2,9.9,0.5c1.2-0.2,2.3-0.8,3.5-1.2c1.3-0.4,2.6-0.8,3.9-1.1c2.2-0.5,3.3-1.9,3.1-4.1
		c-0.2-1.6-0.5-3.1-0.7-4.7c-0.8-0.3-1.5-0.5-2.3-0.7c-2-0.7-3.9-1.6-5.1-3.2c-1.2-1.7-2.9-2.4-4.7-3.4c0,0.7,0,1.2,0,1.8
		c-1.1,0.2-2.2,0.3-3.2,0.5c-0.7-0.5-1.1-1.2-2.1-0.9c-1.1,0.4-2.3,1-3.5,0.5c-0.4-0.7,0-1.3,0.4-1.5c0.7-0.5,1.5-0.9,2.4-1.2
		c1.2-0.4,2.4-0.5,3.8-0.8c-0.5-0.7-0.9-1.3-1.3-1.8c-3.6,0.5-6.2,2.9-9.5,3.9c-0.8-1.2-0.3-2.2,0.5-3c1.5-1.6,3.4-2.6,5.6-2.8
		c0.6-0.1,1.1-0.1,1.7-0.1L222.4,563.6z M224.4,205.2c0.5,0.1,0.9,0.3,1.3,0.3c9,0.7,18,1.4,26.9,2.2c6.2,0.5,12.3,1.2,18.5,1.7
		c3.7,0.3,7.4,0.5,11.1,0.8c5.9,0.5,11.9,1.1,17.8,1.6c4.9,0.4,9.9,0.8,14.8,1.2c3,0.2,6.1,0.5,9.1,0.7c7.1,0.6,14.1,1.3,21.2,1.9
		c0.9,0.1,1.8,0,2.7,0c0.9-0.1,1.4-0.6,1.7-1.4c0.3-0.7,0.3-1.4-0.3-1.8c-0.7-0.5-1.5-1.2-2.3-1.3c-3.5-0.2-6.9-1-10.4-0.8
		c-0.5,0.6-0.9,1.1-1.2,1.6c-0.3,0-0.5,0.1-0.7,0.1c-2,0-3.8-1.3-5.9-0.6c-0.4,0.1-1.1-0.2-1.5-0.5c-0.6-0.5-1.1-1.1-1.7-1.7
		c-4.2-0.5-8.5-1.1-12.7-1.5c-4.5-0.4-9-1-13.5-0.8c-1.7,0.1-3.4-0.3-5-0.5c-2.6-0.3-5.1-0.5-7.7-0.7c-4.8-0.4-9.7-0.8-14.5-1.1
		c-1.9-0.1-3.8-0.3-5.7-0.5c-2.6-0.2-5.2-0.3-7.7-1.1c-0.7-0.2-1.6-0.2-2.3-0.2c-3.9-0.3-7.9-0.4-11.7-1.2c-1.6-0.3-3.4-0.4-5-0.5
		c-3.9-0.3-7.9-0.7-11.8-1c-1-0.1-2-0.3-3.2,0.6C224.4,202.2,224.1,203.7,224.4,205.2z M372.8,246.3c7.5-5.4,11.9-12.8,14.1-21.6
		c2.8-11.6,1-22.6-5.6-32.7c-4.2-6.3-10.1-10.5-17.4-12.6c-0.5-0.1-1.1-0.1-2.2-0.2c1,0.6,1.4,0.9,1.9,1.2
		c9.3,5,14.9,12.9,17.5,22.9c2.6,9.9,1.6,19.7-2.8,29c-3.5,7.4-8.9,12.9-16.3,16.5c-1.8,0.9-3.7,1.7-6.3,1.8
		C362.4,251.6,367.8,249.8,372.8,246.3z M122.3,196.8c1.2,0.2,2,0.4,2.9,0.5c9.9,0.8,19.7,1.5,29.6,2.3c8.3,0.7,16.6,1.3,24.9,2
		c1.5,0.1,2.9,0,4.2-0.4c0.3-0.3,0.5-0.4,0.6-0.6c1-2.6,0.5-3.6-2.2-3.9c-4.8-0.5-9.6-0.8-14.5-1.3c-6.5-0.6-13-1.2-19.5-1.8
		c-3.2-0.3-6.5-0.6-9.8-0.8c-4.9-0.4-9.9-0.8-14.8-1.1c-0.2,0-0.4,0.1-0.7,0.2C122.9,193.5,124.1,195.2,122.3,196.8z M347.8,209.6
		c1.4,0.1,2.3,0.8,3.1,1.8c1,1.3,0.9,2.8-0.2,4c-0.9,0.9-1.9,1.6-3.3,1.5c-1.3,0-2.7,0.1-4,0.1c-1,0-2,0-3.1,0
		c0.1,1.9,1,3.1,2.1,4.2c3.5,3.6,8.7,3.4,11.8-0.5c3.8-4.8,3.3-11.1-0.5-15.2c-2.5-2.7-6.4-3.6-10-0.9c-1.3,1-2.5,2.2-2.9,4.1
		C343.1,209.1,345.4,209.4,347.8,209.6z M178.1,203.5c-3.2,2.7-6.5,5.2-8.7,8.8c-1.4,2.3-1.4,3.7,0.5,5.7c0.6,0.6,1.4,1.1,2.2,1.8
		c2.8-5.6,4.1-11.7,8.9-16.2C179.7,202.8,178.8,202.9,178.1,203.5z M389.5,219c0.4,0.1,0.8,0.4,1.2,0.4c2.9,0.3,5.8,0.7,8.7,1
		c1.1,0.1,2-0.1,2.8-0.9c1.1-1.2,0.9-2.9-0.7-3.6c-0.7-0.3-1.5-0.5-2.3-0.5c-3.1-0.3-6.2-0.5-9.7-0.7
		C389.5,216.3,389.5,217.6,389.5,219z M181.7,204.3c0.5,4.8-0.4,9.6,0,14.4c0.1,0.7,0,1.3,0,2.3c0.2,0.1,0.5,0.3,0.8,0.5
		c0.7,0.4,1.3,0.4,1.8-0.3c0.4-0.5,0.7-1.2,0.9-1.8c1.1-3.8,0.9-7.5-0.7-11.1c-0.7-1.5-1.1-3.1-1.8-4.9
		C182.2,203.7,181.7,204.1,181.7,204.3z M183.7,195.5c3.1,0.9,4,4.3,1.7,6.6c-0.5,0.5-1.1,0.8-1.7,1.3c0.3,0.8,0.6,1.5,0.8,2
		c1.1,0.5,2,0.3,2.7-0.3c1.3-1.1,2.3-2.5,2.9-4.1c0.8-2.2-0.2-4.9-2.4-6.5c-1.9-1.5-3.9-1.4-6.2,0.2c-0.1,0,0,0.2-0.1,0.5
		C182.2,195.3,183,195.3,183.7,195.5z M328,206.2c-1.2-0.9-2.5-1.9-3.7-2.8c-2.1,1-2.5,1.4-4.2,3.4c1.1,0.7,2.2,1,3.1-0.5
		c1.7,0.7,3,1.8,4.2,3.2c0.5,0.7,0.6,0.6,2.2,0.5C329.7,208.2,329.2,207.1,328,206.2z M118.1,193.3c-0.4,0.8-0.2,2,0.5,2.4
		c0.8,0.5,1.7,0.3,2.6,0c0.6-0.2,0.8-1.3,0.6-2.1c-0.2-0.7-0.3-0.8-1.7-2C119.1,191.9,118.5,192.5,118.1,193.3z M236,190.5
		c0.9-2.6,1-5.8,0.1-9.4C235.5,183.4,235.5,186,236,190.5z M296.5,560.8c-0.7,0.2-1.3,0.5-2.2,0.8c0.3,0.2,0.4,0.4,0.5,0.4
		c0.7,0,1.5-0.1,2.9-0.2C296.9,561.1,296.7,560.7,296.5,560.8z M335.4,207.3c0.1,0.4,0.2,0.9,0.3,1.3c0.2-0.1,0.5-0.2,0.5-0.3
		c0-0.4-0.2-0.7-0.3-1.1c0-0.1-0.2-0.1-0.3-0.1C335.5,207.2,335.4,207.2,335.4,207.3z M334.1,208.6c0,0.9,0,1.5,0,2.4
		C334.9,210.1,334.8,209.4,334.1,208.6z M246,139.6c0-0.2-0.1-0.4-0.1-0.5s-0.2-0.1-0.3-0.1c0,0.2-0.1,0.4-0.1,0.6
		C245.6,139.5,245.8,139.5,246,139.6z M190.5,155.1l-0.2,0.1l0.2,0.1V155.1z"/>
	<path d="M651.3,448.2c1.4,0.6,2.4-0.1,3.3-0.7c2.4-1.5,3.8-3.8,4.8-6.3c0.5-1.1,1.2-2.2,0.3-3.6c-0.3,0.1-0.8,0.1-0.9,0.3
		c-1.7,3.5-4.1,6.5-6.8,9.2C651.7,447.3,651.6,447.8,651.3,448.2z"/>
	<path d="M605.6,432.3c-2.2,1.1-3.8,2.8-5.4,4.5c-0.4,0.4-1,1-0.5,1.9c0.3,0,0.6,0,0.9-0.1c2.3-0.9,4-2.5,5.5-4.3
		C606.4,433.7,606.6,433.1,605.6,432.3z"/>
	<path d="M643.3,355.8c-0.3,0.1-0.7,0.2-0.8,0.4c-1.5,2.5-3.1,4.9-4.5,7.4c-0.2,0.3-0.1,0.8-0.1,1.6c0.7-0.4,1.1-0.6,1.3-0.9
		c2-2.3,3.4-5,4.2-7.9C643.4,356.2,643.3,356,643.3,355.8L643.3,355.8z"/>
	<path d="M645.8,470.1c1.4,2.7,2.7,5.2,3.9,7.7c0.7-0.2,0.5-0.7,0.5-1.1c-0.2-2-0.8-3.9-2-5.6c-0.4-0.5-0.9-0.9-1.5-1.3
		C646.6,469.8,646.2,470,645.8,470.1z"/>
	<path d="M578,478.8c0.8-3.3,1.6-6.7,2.3-10c0-0.1-0.1-0.2-0.3-0.4C577.8,471.5,577.3,475,578,478.8z"/>
	<path d="M598.5,447.8c-1.5,0.6-1.5,1.8-1.8,2.8c-0.6,1.9-0.5,2.7,0.2,4.4c0.2-0.1,0.5-0.1,0.5-0.2
		C598,452.5,598.4,450.3,598.5,447.8z"/>
	<path d="M596.5,333.4c0.2-0.1,0.4-0.2,0.5-0.4c1.1-2.9,2.2-5.9,3.2-8.8c-0.1,0-0.4-0.1-0.4-0.1C598,326.9,596.8,330,596.5,333.4
		L596.5,333.4z"/>
	<path d="M654.5,346.7c1.9,0.5,3.4-0.5,5-0.5c1.5,0.1,3.1-0.1,4.6-0.2C660,345.4,658.6,345.5,654.5,346.7z"/>
	<path d="M596.7,474.3c0.8-3.4,0.7-4.1-0.6-5.9C595.7,471.4,595.7,472.2,596.7,474.3z"/>
	<path d="M658.1,460.6c2.6-0.9,2.8-1.1,3.9-3.8c-0.3-0.1-0.7-0.3-0.8-0.2C659.9,457.5,659,458.7,658.1,460.6z"/>
	<path d="M593.7,350.4c0-2,0-4,0-5.9c-0.1,0-0.1,0-0.2,0c0,2,0,4,0,5.9C593.5,350.4,593.6,350.4,593.7,350.4z"/>
	<path d="M578.1,539.2c0-0.8,0-1.5,0-2.4C577.2,537.9,577.2,537.9,578.1,539.2z"/>
	<path d="M607,431.2c1-0.4,1.3-1.3,1.8-2.6C607.4,429.2,607.3,430.2,607,431.2z"/>
	<path d="M644.8,348c-0.1,0.8-0.2,1.6-0.3,3C645.5,349.7,645.3,348.9,644.8,348z"/>
	<path d="M660.5,431.3c-0.5,1.1-0.8,1.7-1.2,2.6C660.5,433,660.5,433,660.5,431.3z"/>
	<path d="M658.2,341.6c0.9-0.1,1.7-0.2,3.2-0.4C659.9,341,659,340.7,658.2,341.6L658.2,341.6z"/>
	<path d="M646.9,449.7c0.2,0.1,0.4,0.3,0.6,0.3c0.4,0,0.7-0.6,0.5-0.9c-0.1-0.1-0.4-0.2-0.5-0.1
		C647.2,449.2,647.1,449.5,646.9,449.7z"/>
	<path d="M658.3,341.7c-0.7,0-1.4,0-2.5,0C656.9,342.4,657.6,342,658.3,341.7L658.3,341.7z"/>
	<path d="M641.2,367.7c0.5,0,1,0,1.5,0c0-0.1,0-0.1,0-0.2c-0.5,0-1,0-1.5,0C641.2,367.5,641.2,367.6,641.2,367.7z"/>
	<path d="M577.4,486.5c0.1-1.2,0.2-1.8,0.2-2.3c-0.1,0-0.3-0.1-0.4-0.1c-0.1,0.3-0.2,0.6-0.2,0.9S577.2,485.6,577.4,486.5z"/>
	<path d="M596.6,333.4c-0.7,0.6-0.7,1.2-0.2,2.3C596.4,334.7,596.5,334,596.6,333.4L596.6,333.4z"/>
	<path d="M626.9,347.7c-0.3-0.2-0.6-0.6-1-0.7c-0.5-0.1-1.1-0.1-1.6-0.1l0.1-0.1C625.1,347.8,626.1,347.6,626.9,347.7L626.9,347.7z"
		/>
	<path d="M592.2,361.9c-0.1,0.9-0.1,1.2-0.1,1.4c0,0.2,0.1,0.4,0.1,0.6c0-0.2,0.1-0.4,0.1-0.5C592.3,363.1,592.3,362.9,592.2,361.9z
		"/>
	<path d="M631.2,349c0.4,0.9,1.3,0.6,2,0.7l-0.1,0.1C632.5,349,631.8,349,631.2,349L631.2,349z"/>
	<path d="M646.4,338.2c-0.1,0-0.2,0-0.2,0c0,0.1,0,0.2,0,0.3c0,0.1,0.1,0.2,0.2,0.3C646.4,338.7,646.4,338.4,646.4,338.2z"/>
	<path d="M631.1,349c-0.4-0.9-1.3-0.6-2-0.7l0.1-0.1C629.6,349,630.4,349,631.1,349L631.1,349z"/>
	<path d="M627,347.7c0.6,0.7,1.4,0.6,2.2,0.6l-0.1,0.1C628.5,347.4,627.7,347.8,627,347.7L627,347.7z"/>
	<path d="M645.6,343.4c0,0.3,0,0.6,0,0.9c0.1-0.2,0.2-0.4,0.2-0.6C645.9,343.6,645.7,343.5,645.6,343.4z"/>
	<path d="M594.9,465.8c0.2-0.3,0.3-0.6,0.4-0.8c0-0.2-0.2-0.4-0.3-0.7c-0.1,0.3-0.3,0.6-0.3,0.9
		C594.6,465.3,594.8,465.5,594.9,465.8z"/>
	<path d="M651.6,482.1c0.2,0.2,0.4,0.5,0.6,0.7c0.1-0.1,0.3-0.2,0.3-0.4c0-0.2-0.1-0.4-0.3-0.5C652.1,481.8,651.9,482,651.6,482.1z"
		/>
	<path d="M576.5,489.3c0,0.6,0.1,0.9,0.1,1.1c0.1-0.2,0.1-0.3,0.2-0.5C576.8,489.9,576.7,489.8,576.5,489.3z"/>
	<path d="M624.3,347c-0.2-0.1-0.5-0.3-0.3-0.2C623.8,346.8,624.1,346.9,624.3,347L624.3,347z"/>
	<polygon points="594.1,459.8 594.1,460.1 594.3,460.1 	"/>
	<path d="M592.1,368.8c0.1,0,0.1,0.1,0.2,0.1c0-0.1-0.1-0.3-0.1-0.4C592.1,368.6,592.1,368.7,592.1,368.8z"/>
	<path d="M636,375.4c0.1,0,0.1,0.1,0.2,0.1c0-0.1,0.1-0.2,0.1-0.3c0,0-0.1-0.1-0.2-0.1C636.1,375.2,636.1,375.3,636,375.4z"/>
	<path d="M633.1,349.6c0.3,0.6,0.9,0.5,1.4,0.6l-0.1,0.1C634,350.1,633.5,349.9,633.1,349.6L633.1,349.6z"/>
	<polygon points="634.5,350.2 634.6,350.4 634.5,350.3 	"/>
	<path d="M643.2,355.7c0.1-0.1,0.3-0.1,0.4-0.2C643.2,355.2,643.3,355.6,643.2,355.7L643.2,355.7z"/>
	<path d="M591,225.6c0.1-0.7,0.2-1.4,0.3-2.6c-1.1,1-1.2,1.7-1.1,2.4C590.5,225.6,590.7,225.6,591,225.6z"/>
	<path d="M591.3,219.4c0,0.1,0.1,0.2,0.1,0.3c0.1-0.1,0.4-0.1,0.4-0.2c0.1-0.2,0.1-0.4,0.2-0.6c-0.2,0-0.5-0.2-0.5-0.1
		C591.4,219,591.4,219.2,591.3,219.4z"/>
	<path d="M604.1,213.9c0.1,0.1,0.3,0.2,0.4,0.2c0-0.2,0.1-0.4,0.1-0.6c0-0.1-0.1-0.1-0.2-0.2C604.2,213.5,604.1,213.7,604.1,213.9z"
		/>
	<path d="M603.4,210.4c0.1,0.1,0.1,0.2,0.2,0.2c0.1-0.2,0.2-0.4,0.2-0.5s-0.1-0.1-0.2-0.2C603.6,210.1,603.5,210.3,603.4,210.4z"/>
	<path d="M573.2,86.8c0,0.2-0.1,0.4-0.1,0.6c0,0.1,0.1,0.2,0.2,0.2c0.1-0.2,0.1-0.4,0.1-0.6C573.4,86.9,573.3,86.8,573.2,86.8z"/>
	<path d="M602.3,204.8c0.1-0.1,0.2-0.1,0.1-0.2c0-0.1-0.1-0.1-0.2-0.2c-0.1,0.1-0.2,0.1-0.1,0.2
		C602.2,204.6,602.3,204.7,602.3,204.8z"/>
	<path d="M525.6,96.6c0.8,1.1,1.8,0.6,2.8,0.1C527.4,96.7,526.5,96.7,525.6,96.6L525.6,96.6z"/>
	<path d="M522.2,95.9c0.4,0.2,0.7,0.5,1.1,0.5c0.8,0.1,1.5,0.1,2.3,0.2l-0.1,0.1c-0.3-0.2-0.5-0.4-0.8-0.5
		C523.9,96.1,523,96.1,522.2,95.9L522.2,95.9z"/>
	<path d="M518.8,93.9c0.4,0.9,1,1.4,2,1.3l-0.1,0.1C520.4,94.4,519.8,93.9,518.8,93.9L518.8,93.9z"/>
	<path d="M533.9,96.9c-0.4,0-0.7,0-0.9,0.1c0.2,0.1,0.4,0.1,0.6,0.2C533.6,97.1,533.7,97,533.9,96.9z"/>
	<path d="M553.3,16.1c0.1,0.2,0.2,0.4,0.4,0.5c0.1,0,0.3-0.1,0.5-0.2c-0.1-0.1-0.2-0.1-0.3-0.2C553.7,16.2,553.4,16.2,553.3,16.1
		L553.3,16.1z"/>
	<path d="M520.8,95.3c0.2,0.9,0.8,0.7,1.4,0.6l-0.1,0.1C521.9,95.2,521.4,95.2,520.8,95.3L520.8,95.3z"/>
	<path d="M553.2,16.2c-0.1-0.1-0.2-0.3-0.3-0.4c0,0.1,0,0.2,0,0.2C553.1,16.1,553.2,16.1,553.2,16.2L553.2,16.2z"/>
	<path d="M647.6,303.3c0.9-1.4,0.9-2.7,0.9-3.9c-0.2-2.7-0.5-5.4-0.8-8c0-0.1-0.3-0.2-0.7-0.4c-0.5,2.1,0.4,4,0.4,6
		C647.2,298.9,647.5,300.9,647.6,303.3z"/>
	<path d="M633.7,289.2c-2.2,2.9-3.9,6-4.6,9.7c1.1-0.7,1.3-1.9,1.8-2.9c0.6-1.1,1-2.2,1.6-3.3c0.6-1.1,1.2-2.1,1.7-3.2
		C634.1,289.4,633.9,289.3,633.7,289.2z"/>
	<path d="M646,321.3c0.6,0.8,1.2,1.7,2.3,1.9c0.5-1-0.7-1-0.6-2.1c0.4-0.3,1-1,1.7-1.6C647.9,318.4,647.2,318.8,646,321.3z"/>
	<path d="M615.7,284c-1.1-1.5-1.8-2.5-2.6-3.6C612.2,281.7,613.2,283.3,615.7,284z"/>
	<path d="M609.4,285.4c-1,1.6-1.1,3.2,0.2,5c0.8-1-0.1-1.8-0.1-2.5C609.5,287.1,609.4,286.2,609.4,285.4L609.4,285.4z"/>
	<path d="M647.8,309.2c-0.3,1.4-0.5,2.7,0.6,4.3c-0.1-1.1-0.1-1.8-0.1-2.4C648.2,310.4,648,309.8,647.8,309.2z"/>
	<path d="M610.5,291.9c0.4,0.3,0.6,0.5,1,0.7l0.3-0.3c-0.2-0.3-0.3-0.5-0.6-0.7C611.1,291.6,610.8,291.8,610.5,291.9z"/>
	<path d="M627.2,305.5c0,0.5,0,1,0,1.5c0.1,0,0.2,0,0.3,0c0.1-0.5,0.1-1,0.2-1.5C627.5,305.6,627.3,305.5,627.2,305.5z"/>
	<polygon points="613.8,278.9 613.9,278.6 613.7,278.6 	"/>
	<path d="M626.6,313.9c0.1,0.1,0.1,0.2,0.2,0.2c0-0.1,0.1-0.2,0.1-0.3c0-0.1-0.1-0.2-0.1-0.2C626.7,313.7,626.6,313.8,626.6,313.9z"
		/>
	<path d="M619.4,287.1c0.1,0.1,0.2,0.1,0.2,0.2c0.1-0.1,0.1-0.2,0.2-0.3C619.7,287,619.6,286.9,619.4,287.1
		C619.5,286.9,619.5,287,619.4,287.1z"/>
	<polygon points="647.7,280.5 647.8,280.2 647.6,280.3 	"/>
	<polygon points="638.5,284.7 638.7,284.5 638.6,284.7 	"/>
	<path d="M637.8,285.3c0.2-0.2,0.5-0.4,0.7-0.7l0.1,0.1C638.4,285,638.1,285.2,637.8,285.3L637.8,285.3z"/>
	<path d="M609.3,285.3c0.1,0,0.2,0,0.3-0.1C609.6,285.3,609.5,285.4,609.3,285.3L609.3,285.3z"/>
	<path d="M637.9,285.4c-0.2,0.2-0.5,0.4-0.7,0.7l-0.1-0.1C637.4,285.8,637.6,285.5,637.9,285.4L637.9,285.4z"/>
	<path d="M637.2,286.1c-0.2,0.2-0.5,0.4-0.7,0.6l-0.1-0.1C636.6,286.4,636.9,286.2,637.2,286.1L637.2,286.1z"/>
	<path d="M635.7,287.3c0.5,0,0.7-0.2,0.7-0.7l0.1,0.1C636.3,286.9,636,287.2,635.7,287.3L635.7,287.3z"/>
	<path d="M635.8,287.4c-0.1,0.1-0.1,0.2-0.2,0.3C635.6,287.6,635.7,287.6,635.8,287.4C635.7,287.5,635.7,287.4,635.8,287.4
		L635.8,287.4z"/>
	<path d="M617.6,267.1c0.4,0.4,0.8,0.8,1.3,1c4.4,1.8,8.9,3,13.8,2.5c2.9-0.3,5.4-1.4,7.4-3.6c0.3-0.3,0.4-0.7,0.5-1.1
		c-0.7-0.6-1.3-0.3-1.7,0c-4.8,2.7-9.8,3-15.1,2.1c-2.1-0.4-4.2-0.5-6.3-0.8L617.6,267.1z"/>
	<path d="M603.2,265.6c0.3-2.7-1.1-4.4-0.7-6.2c-1-0.1-1.1,0.4-1,0.8C601.7,261.8,601.9,263.4,603.2,265.6z"/>
	<path d="M617.6,267.2c-0.3-0.3-0.5-0.7-0.9-0.9c-1.1-0.5-2.2-1-3.4-1.5c-0.5,0.4-0.3,0.7,0.1,1.1C614.6,267,616,267.6,617.6,267.2
		L617.6,267.2z"/>
	<path d="M641.5,262.9c0,0.1,0.1,0.3,0.1,0.3c0.2,0,0.4-0.1,0.6-0.1c-0.1-0.1-0.1-0.3-0.2-0.4C641.9,262.7,641.7,262.8,641.5,262.9z
		"/>
	<path d="M610.7,164.9c0.3,0.8,0.1,1.5-0.3,2.2c-0.7,1.2-0.9,2.4-0.8,3.8c0,1.7-0.1,3.3-0.2,5c0.3-0.8,0.6-1.6,0.9-2.4
		c0.7-0.2,0.8,0.5,1,0.9c0.4,0.7,0.8,1.3,1.6,1.5c-0.7-2.1-2-4-1.9-6.4c0-0.4,0.4-0.7,0.5-1.1c-0.1-0.6,0-1.1,0.6-1.5
		c1.2-0.8,1.2-0.8,1.8,0.3c-0.7-0.1-1.3-0.2-1.9-0.4c0,0.6,0.2,1.2-0.6,1.5c0,0.5,0.1,1.1,0.1,2c0.6-0.7,1.1-1.2,1.6-1.7
		c0.2,0.2,0.4,0.4,0.6,0.5c0,0.9-1.4,1.1-0.6,2.2c0.5-0.2,0.9-0.4,1.4-0.6c0.8,0.8-0.6,1.4-0.2,2.1c0.4,0.5,0.9,1,1,1.6
		c0.1,0.6-0.1,1.4,0.8,1.6c0.9-0.4,1.1-1.3,0.6-1.9c-1.2-1.4-1.1-2.8-0.8-4.6c1.1,0.2,2.1,0.4,3.3,0.6c0.4-0.7-0.5-0.8-0.5-1.3
		c0-0.4-0.3-0.7-0.5-1.1c0.6-0.6,1.6-0.3,1.9-1.4c-1.4-0.1-2.8-0.3-4.2-0.4c0-0.1,0-0.2,0-0.3c0.7-0.1,1.5-0.2,2.2-0.2
		c1.3-0.1,2.4-0.5,3.3-1.4c-0.3-0.7-0.7-0.3-1-0.2c-1.7,0.7-3.5,1.1-5.3,0.9C613.6,164.8,612.2,165.5,610.7,164.9z"/>
	<path d="M633.1,167c0.3,0.4,0.7,0.8,0.9,1.3c1,1.9,2.4,1.9,3.7,0.1c0.1-0.1,1-0.4,1.3-0.3c0-0.4,0-0.9-0.1-1.3
		c0-0.3-0.1-0.7-0.2-1.1c-0.4-0.2-0.9-0.4-1.5-0.6c0,0.3,0.1,0.5,0.1,0.6c0,0.2,0.1,0.4,0.1,0.6c-1.4,0.1-2.9,0.1-4.3,0.2l0.1-0.1
		C633.2,166.6,633.2,166.8,633.1,167L633.1,167z"/>
	<path d="M635.9,183.9c1.6,1.2,2.7,1.4,3.8,1.4c2.5-0.1,5.1-0.4,7.5,0.3c0.5-0.8,0-1.1-0.4-1.2c-2-0.5-3.9-1.5-6.2-0.6
		c-0.9,0.3-2-0.1-3-0.1C637.4,183.6,637,183.7,635.9,183.9z"/>
	<path d="M629,148.1L629,148.1c-0.7,0-1.5-0.2-2.1,0.2c-1.3,0.8-2.4,0.7-3.7,0.2c-0.6-0.2-1.2-0.2-2.1-0.4c0.5,0.6,0.9,1,1.2,1.4
		l0.1-0.1c-1.4,0.2-2.6-0.3-3.5-1.3c1.1-0.2,2.3-0.5,3.4-0.7c0.1,0,0.2-0.3,0.4-0.4c-0.1-0.3-0.3-0.6-0.4-0.8
		C624.8,145.6,626.9,146.8,629,148.1z M624.2,147v0.2l0.3-0.1L624.2,147z"/>
	<path d="M630.3,162.9c0.3,0,0.7,0.1,1-0.1c1.9-1,3.9-0.9,5.9-0.4c1.3,0.3,2.6,0.7,3.9,1c0.2,0.1,0.5-0.2,0.8-0.3
		c-0.2-0.3-0.2-0.6-0.4-0.6c-1.6-0.5-3.2-1.1-4.8-1.4c-1.7-0.3-3.4-0.3-4.9,0.5C631.2,161.9,630.9,162.5,630.3,162.9L630.3,162.9z"
		/>
	<path d="M621.7,152.1c-0.5,0.3-0.9,0.7-1.4,0.8c-0.9,0.2-1.7,0.2-2.6,0.5c2.6,0,5.2,0,8,0C624.5,151.5,623,152.2,621.7,152.1
		L621.7,152.1z"/>
	<path d="M615.5,154.8c1.2,1,2.6,1.3,4.2,1.4c0.8-1.3,2.4-1,3.6-1.7c-1.4-0.7-2.6,0.1-3.8,0.2C618.1,154.8,616.8,154.8,615.5,154.8z
		"/>
	<path d="M646.6,187.4c-2.5,0-4.3,0-6.3,0c0.3,0.9,1,1.2,1.7,1.2C643.5,188.8,644.9,188.9,646.6,187.4z"/>
	<path d="M617.6,179.8c0,1.7,0.4,3.3,1.8,4.8c0.1-1.8-0.4-3.1-1-4.4c-0.1-0.2-0.6-0.2-0.9-0.3L617.6,179.8z"/>
	<path d="M627.8,193.4c1.5,1.7,3.5,1.8,5.6,1.8C631.4,194.7,629.8,193.3,627.8,193.4L627.8,193.4z"/>
	<path d="M644.7,177.8c-2,0.3-3.2,0.6-4.5,0.8c0,0.6,0.5,0.7,0.9,0.7C642.1,179.2,643.3,179.4,644.7,177.8z"/>
	<path d="M624.8,196c0.3-2-0.7-3.4-1.3-4.8c-0.9,0.1-0.7,0.6-0.6,1C623.5,193.4,623.7,194.8,624.8,196z"/>
	<path d="M622.3,150.1c1.5,0.3,2.9,1.3,4.7,0.5c0.1-0.2,0.4-0.7,0.6-1.2l0.1,0.1c-1.4,0.3-2.8,0.5-4.2,0c-0.4-0.1-0.9,0-1.3,0
		l0.1-0.1C622.4,149.6,622.4,149.9,622.3,150.1L622.3,150.1z"/>
	<path d="M614.8,151.5c2.3,0.7,4.6,0.7,6.9,0.6l-0.1,0.1c-0.5-0.2-0.9-0.6-1.4-0.6C618.4,151.5,616.6,151.5,614.8,151.5L614.8,151.5
		z"/>
	<path d="M647.3,175.8c-0.1,0.5-0.1,1.1-0.4,1.5c-0.4,0.5-1,0.9-1.6,1.5c1,0.4,1.6,0.5,2-0.4c0.3-0.6,0.4-1.3,0.5-1.9
		C647.8,176.4,647.4,176.1,647.3,175.8L647.3,175.8z"/>
	<path d="M647.2,175.9c-0.2-1.8-0.7-3.5-2-4.8l0.1-0.1C645.2,173,646.4,174.4,647.2,175.9L647.2,175.9z"/>
	<path d="M644.6,168.3c0-0.5-0.1-1.1,0.1-1.6c0.3-0.7,0.6-1.3,1.3-2.6C643.8,166.1,643.8,166.4,644.6,168.3L644.6,168.3z"/>
	<path d="M619.5,144c0.5,1.2,1.6,1.8,2.8,2.1C621.8,144.9,620.8,144.2,619.5,144z"/>
	<path d="M619,150.1c1.1,1,2.2,0.9,3.3,0l0.1,0.1C621.2,150.2,620.1,150.2,619,150.1L619,150.1z"/>
	<path d="M644.6,238.1c-0.1-0.8-0.6-0.9-2-1.1C643.7,237.5,644.2,237.8,644.6,238.1L644.6,238.1z"/>
	<path d="M644.7,168.3c-0.1,1-0.4,2.1,0.6,2.8l-0.1,0.1C645.2,170.2,645.4,169.1,644.7,168.3L644.7,168.3z"/>
	<path d="M614.9,156.2c-0.2-0.5-0.5-0.9-0.7-1.4c-0.5,0-1,0-1.5,0C613.2,155.7,614,156,614.9,156.2z"/>
	<path d="M649.3,166.3c-0.6-0.2-1.2-0.3-1.7-0.5c0,0.1,0,0.1,0,0.2C648.1,166.1,648.8,166.2,649.3,166.3L649.3,166.3z"/>
	<path d="M618.9,150.1c-0.4-0.7-0.9-0.6-1.5-0.2C617.9,150,618.5,150,618.9,150.1L618.9,150.1z"/>
	<path d="M633.1,165.6c0.5,0,1,0,1.8,0C634,164.9,633.5,165,633.1,165.6L633.1,165.6z"/>
	<path d="M633.2,165.7c-0.5,0-1.2-0.1-1.3,0.7l-0.1-0.1c0.5,0,1,0,1.4,0l-0.1,0.1C633.1,166.1,633.1,165.9,633.2,165.7L633.2,165.7z
		"/>
	<path d="M627.7,149.4c0.5-0.2,0.9-0.4,1.4-0.6h0.1C628.6,148.9,627.9,148.6,627.7,149.4L627.7,149.4z"/>
	<path d="M614.1,154.9c0.5,0,1,0,1.5,0C615.1,154.1,614.6,154.6,614.1,154.9z"/>
	<path d="M626,199.3c0,0.1-0.1,0.2-0.1,0.3s0.1,0.2,0.1,0.3c0-0.1,0.1-0.2,0.1-0.3S626,199.4,626,199.3z"/>
	<path d="M631.8,167c0.6,0.7,0.7,0.7,1.3,0l0.1,0.1C632.7,167.1,632.2,167.1,631.8,167L631.8,167z"/>
	<path d="M627.7,193.4c-0.4-0.2-0.9-0.4-1.3-0.7l0.1-0.1C626.9,192.9,627.3,193.1,627.7,193.4L627.7,193.4z"/>
	<path d="M624.3,159.6c0.1-0.1,0.2-0.2,0.3-0.3c-0.1,0-0.2,0.1-0.2,0.1C624.4,159.5,624.4,159.6,624.3,159.6L624.3,159.6z"/>
	<path d="M630.4,162.9c-0.1,0.1-0.2,0.2-0.3,0.3c0.1,0,0.2-0.1,0.2-0.1C630.4,163.1,630.3,163,630.4,162.9L630.4,162.9z"/>
	<path d="M649.3,167c0.1-0.1,0.2-0.2,0.2-0.4c0-0.1-0.1-0.2-0.2-0.3l0.1-0.1C649.4,166.5,649.4,166.8,649.3,167L649.3,167z"/>
	<path d="M631.8,166.3c-0.1,0.1-0.1,0.3-0.2,0.4c0,0.1,0.1,0.2,0.2,0.2h-0.1C631.7,166.8,631.7,166.6,631.8,166.3L631.8,166.3z"/>
	<path d="M625,191.4c-0.1-0.1-0.1-0.2-0.2-0.3C624.9,191.2,625,191.2,625,191.4L625,191.4z"/>
	<path d="M642.6,148.8c0-0.3,0-0.5,0-0.8c-0.3,0.3-0.5,0.5-0.8,0.8C642.1,148.8,642.4,148.8,642.6,148.8z"/>
	<path d="M629,148.8c0.1-0.2,0.2-0.3,0.2-0.5c0,0-0.1-0.1-0.2-0.2l0.1-0.1C629.1,148.3,629.1,148.5,629,148.8L629,148.8z"/>
	<path d="M643.3,148.7c-0.3,0-0.5,0-0.8,0C642.8,149.2,643.1,148.9,643.3,148.7z"/>
	<path d="M625,156.8c0.2-0.1,0.4-0.2,0.6-0.2C625,156.2,625.1,156.6,625,156.8L625,156.8z"/>
	<path d="M625.1,191.3c0.2,0.2,0.4,0.4,0.7,0.7l-0.1,0.1C625.4,191.8,625.2,191.6,625.1,191.3L625.1,191.3z"/>
	<path d="M625.7,191.9c0.2,0.3,0.5,0.5,0.7,0.8l-0.1,0.1C626.1,192.5,625.9,192.3,625.7,191.9L625.7,191.9z"/>
	<path d="M683.1,149.6c-1.6,0.5-1.6,0.6-2.8,2.9c-0.6,1.2-1.4,2.3-2.1,3.4c0.8,0.6,1.4-0.1,1.9-0.6
		C681.3,153.7,682.2,151.9,683.1,149.6z"/>
	<path d="M671.4,191c-1.6,1.4-1.6,1.4-2.7,4.2c0.4-0.1,0.8-0.1,0.9-0.3c0.6-0.9,1.1-1.9,1.7-2.9C671.4,191.8,671.4,191.5,671.4,191z
		"/>
	<path d="M675.7,158.5c0.2,0.4,0.2,0.7,0.4,0.7c0.6,0.2,1-0.1,1.3-0.6c0.1-0.1-0.3-0.7-0.4-0.7C676.6,158.1,676.2,158.3,675.7,158.5
		z"/>
	<path d="M697,101.6c-0.7-0.1-1,0.2-1,0.7c0,0.2,0.2,0.5,0.4,0.7c0.2-0.2,0.5-0.4,0.7-0.6C697.1,102.1,697,101.8,697,101.6z"/>
	<path d="M695.9,98.1c0.2,0.3,0.4,0.5,0.5,0.7c0.2-0.2,0.5-0.4,0.6-0.6c0-0.2-0.3-0.4-0.4-0.6C696.4,97.7,696.1,97.9,695.9,98.1z"/>
	<path d="M659.7,205.9c-0.2,0.1-0.4,0.1-0.5,0.2c0,0.1,0.1,0.3,0.2,0.5c0.2-0.1,0.4-0.1,0.5-0.2
		C659.9,206.3,659.8,206.1,659.7,205.9z"/>
	<path d="M696.2,106.3c0.2,0.2,0.3,0.4,0.5,0.4c0.4,0.1,0.8-0.4,0.6-0.8c-0.1-0.1-0.4-0.3-0.5-0.2
		C696.6,105.8,696.4,106.1,696.2,106.3z"/>
	<path d="M659.1,209.6c0,0.5,0,1,0,1.5c0.1,0,0.1,0,0.2,0c0-0.5,0-1,0-1.5C659.3,209.6,659.2,209.6,659.1,209.6z"/>
	<path d="M696.5,94.3c0.2,0.1,0.3,0.2,0.5,0.2c0,0,0.1-0.1,0.2-0.2c-0.2-0.1-0.3-0.1-0.5-0.2C696.7,94.1,696.6,94.2,696.5,94.3z"/>
	<polygon points="659.2,202 659.2,202.2 659.3,202.2 	"/>
	<path d="M609.5,175.7c-0.2,0.5-0.5,1-0.5,1.5c0,4,0,8,0,12c0,0.5,0.3,1,0.5,1.5C609.5,185.8,609.5,180.7,609.5,175.7z"/>
	<path d="M615.9,142.2c0,0.1,0,0.2,0,0.2c0.1,0,0.2,0.1,0.3,0.1c0.1,0,0.2-0.1,0.2-0.2C616.3,142.3,616.1,142.3,615.9,142.2z"/>
	<path d="M619.7,139.3c-0.3-0.6-0.9-0.7-1.5-0.8C618.5,139.1,619,139.4,619.7,139.3z"/>
	<path d="M688.6,76.4c0-0.2-0.1-0.4-0.1-0.5c-0.1,0.1-0.2,0.2-0.3,0.3C688.3,76.2,688.4,76.3,688.6,76.4L688.6,76.4z"/>
	<path d="M688.6,76.3c0.2,0.2,0.4,0.5,0.7,0.7l-0.1,0.1C689.3,76.6,689,76.4,688.6,76.3L688.6,76.3z"/>
	<path d="M613.5,157.5c-0.5,0-1,0-1.5,0c0.3,0.7,0.8,1.1,1.6,1.1C613.7,158.2,613.6,157.9,613.5,157.5z"/>
	<path d="M612.2,157.6c0-0.5-0.3-0.8-0.8-0.8C611.7,157.1,611.9,157.3,612.2,157.6z"/>
	<path d="M619,145.9c0,0.1,0,0.2,0,0.2C619,146.1,619,146,619,145.9L619,145.9z"/>
	<path d="M272.9,447.1c1.6,0.4,2.6-0.2,3.6-0.9c2.5-1.7,3.9-4.3,5-7c0.4-0.9,0.7-1.9-0.1-3c-1.5,0.9-1.7,2.6-2.6,3.8
		c-0.9,1.1-1.7,2.4-2.6,3.5C275.1,444.6,273.8,445.6,272.9,447.1z"/>
	<path d="M221,437.2c0.5,0.2,0.6,0.3,0.7,0.3c2.9-0.6,4.8-2.7,6.4-5c0.1-0.2,0-0.7-0.2-0.9c-0.2-0.2-0.6-0.2-0.9-0.2
		c-0.1,0-0.2,0-0.3,0.1C224.5,433,222.5,434.7,221,437.2z"/>
	<path d="M265.5,353.8c-1.9,2.1-5.3,7.5-6,9.3c-0.1,0.1,0.1,0.4,0.2,0.6c1,0.1,1.3-0.7,1.7-1.3C263.2,360.4,264.6,357.4,265.5,353.8
		z"/>
	<path d="M267.6,469.1c1.3,2.6,2.6,5,4,7.8c0.2-0.5,0.5-0.8,0.4-1c-0.4-2.3-1-4.6-2.5-6.5C269.1,468.8,268.5,468.5,267.6,469.1z"/>
	<path d="M202.4,467.4c-2.5,3-3.4,6.4-2.6,10.1C200.7,474.2,201.5,470.8,202.4,467.4z"/>
	<path d="M220,446.8c-1.3,1.1-1.6,2.6-1.8,4.1c-0.1,0.9-0.4,2,0.4,2.8c0.3-0.1,0.6-0.2,0.6-0.3C219.7,451.3,220.3,449.1,220,446.8z"
		/>
	<path d="M286.9,345.4c-4-1.1-7.4-1-10.7,0.6C279.6,345.4,283,345.2,286.9,345.4z"/>
	<path d="M283.9,455.2c-0.8,0.2-1.1,0.2-1.3,0.3c-1,1-1.9,2.1-2.5,3.5c0.5,0.1,0.9,0.3,1.1,0.2C282.6,458.4,283.4,457.3,283.9,455.2
		z"/>
	<path d="M218.6,473c0.8-3.5,0.6-4.3-0.6-5.9C217.4,470.3,217.5,471,218.6,473z"/>
	<path d="M272.1,539.9c0.7-1.1,0.7-1.1,0.2-2.5C271.7,538.3,271.9,539.1,272.1,539.9z"/>
	<path d="M220.2,326.6c1.3-1.6,1.3-1.6,1.8-4C221,324,220.1,325.1,220.2,326.6L220.2,326.6z"/>
	<path d="M228.7,430.2c1.1-0.4,1.4-1.2,1.6-2.5C229.2,428.4,229,429.3,228.7,430.2z"/>
	<path d="M218.8,330.7c1.1-1.1,1.5-2.5,1.4-4l0.1,0.1C219.1,327.8,218.8,329.2,218.8,330.7L218.8,330.7z"/>
	<path d="M266.6,350.1c0.3-1.3,0.5-2.2,0.7-3.2C266.2,347.7,266.2,347.7,266.6,350.1z"/>
	<path d="M215.9,346.9c0-0.7,0-1.5,0-2.2c-0.1,0-0.1,0-0.2,0c0,0.3-0.1,0.7-0.1,1c0,0.4,0,0.8,0.1,1.2
		C215.7,346.9,215.8,346.9,215.9,346.9z"/>
	<path d="M199.4,484.5c0.1-0.5,0.2-1,0.2-1.5c0-0.1-0.1-0.2-0.2-0.2c-0.1,0-0.3,0.1-0.3,0.1c-0.2,0.5-0.3,0.9-0.4,1.4
		C199,484.3,199.2,484.4,199.4,484.5z"/>
	<path d="M199.8,538.1c0-0.9,0-1.6,0-2.9C199.1,536.5,199,537.2,199.8,538.1z"/>
	<path d="M282.2,430.5c-0.6,0.7-1,1.3-0.9,2.4C282.3,432.2,282.6,431.5,282.2,430.5z"/>
	<path d="M216.3,463.8c0.1,0.2,0.3,0.4,0.4,0.7c0.2-0.2,0.5-0.4,0.5-0.6s-0.4-0.4-0.6-0.6C216.6,463.4,216.4,463.5,216.3,463.8z"/>
	<path d="M249.9,347c-0.7-1-1.7-0.6-2.6-0.7l0.1-0.1C248.1,347.1,249.1,346.9,249.9,347L249.9,347z"/>
	<path d="M274.1,482c0-0.5,0.1-0.9,0-1.1c0-0.1-0.3-0.2-0.4-0.3c-0.1,0.2-0.2,0.4-0.2,0.5C273.6,481.3,273.8,481.6,274.1,482z"/>
	<path d="M215.1,348.9c0,0.3-0.1,0.6-0.1,0.9c0,0.2,0.1,0.4,0.2,1.1c0.1-1,0.1-1.5,0.1-1.9C215.3,348.9,215.2,348.9,215.1,348.9z"/>
	<path d="M268.7,448.4c0.2,0.2,0.3,0.4,0.4,0.5c0.3-0.3,0.5-0.5,0.8-0.8c-0.2-0.1-0.4-0.3-0.5-0.3
		C269.1,448,268.9,448.2,268.7,448.4z"/>
	<path d="M264.3,366.2c-0.5,0-0.9-0.1-1.4-0.1c0,0.1,0,0.2,0,0.3c0.5,0.1,0.9,0.1,1.4,0.2C264.3,366.4,264.3,366.3,264.3,366.2z"/>
	<path d="M218.1,333.4c0.9-0.7,0.7-1.7,0.7-2.7l0.1,0.1C217.9,331.4,218.4,332.5,218.1,333.4L218.1,333.4z"/>
	<path d="M278.4,340.9c0.7-0.1,1.4-0.1,2.3-0.2C279.7,340.2,279.1,340.3,278.4,340.9L278.4,340.9z"/>
	<path d="M213.9,362C213.9,362.4,213.9,362.2,213.9,362C213.9,362.2,213.9,362.4,213.9,362z"/>
	<path d="M218.2,333.4c-0.4,0.4-0.6,0.8-0.2,1.5C218.1,334.3,218.1,333.8,218.2,333.4L218.2,333.4z"/>
	<path d="M247.3,346.3c-0.4-0.8-0.9-0.5-1.5-0.2C246.3,346.2,246.9,346.2,247.3,346.3L247.3,346.3z"/>
	<path d="M250,346.9c0.5,0.8,1.3,0.6,2,0.7l-0.1,0.1C251.5,346.9,250.7,347.1,250,346.9L250,346.9z"/>
	<path d="M252,347.6c0.5,0.9,1.3,0.6,2.1,0.6l-0.1,0.1C253.5,347.7,252.7,347.7,252,347.6L252,347.6z"/>
	<polygon points="282.3,340 282.6,339.9 282.6,339.8 	"/>
	<path d="M278.5,341c-0.2,0-0.4,0-0.6,0.1c-0.1,0-0.2,0-0.3,0c0.1,0.1,0.3,0.2,0.4,0.2C278.2,341.2,278.3,341,278.5,341L278.5,341z"
		/>
	<path d="M257.9,374.6c0.2-0.1,0.3-0.1,0.5-0.2c-0.1-0.1-0.2-0.2-0.2-0.2c-0.2,0-0.3,0.1-0.5,0.2
		C257.7,374.4,257.8,374.5,257.9,374.6z"/>
	<path d="M255.3,349c-0.4-0.2-0.9-0.5-1.3-0.7l0.1-0.1C254.3,349,254.9,348.8,255.3,349L255.3,349z"/>
	<path d="M255.4,349c0.2,0.1,0.4,0.3,0.2,0.2C255.8,349.2,255.6,349.1,255.4,349L255.4,349z"/>
	<polygon points="215.9,459.1 215.9,458.9 215.7,458.9 	"/>
	<path d="M173,237.3c0,0.1,0.1,0.3,0.1,0.3c1.7,0.3,3.4,0.7,5.8,0.2C176.4,237.6,174.7,237.5,173,237.3L173,237.3z"/>
	<path d="M170.2,236c0.7,1,1.5,1.6,2.8,1.3l-0.1,0.1C172.1,236.6,171.2,236.1,170.2,236L170.2,236z"/>
	<path d="M195.2,162.2C195.1,162,195.3,162.2,195.2,162.2L195.2,162.2z"/>
	<path d="M195.3,162.2c0.1,0.1,0.1,0.3,0.2,0.4c0-0.1,0-0.1,0-0.2C195.4,162.4,195.3,162.3,195.3,162.2L195.3,162.2z"/>
	<path d="M268.7,290c-0.1,2.8,0.4,9.7,0.9,11.6c0.7-2.6,0.7-7.7-0.2-11C269.4,290.3,269,290.2,268.7,290z"/>
	<path d="M250.9,298.5c1.4-1.6,1.7-3.5,2.6-5.1c0.8-1.5,1.6-3.1,2.6-5c-1.8,1.5-2,1.6-3,3.6C251.5,294.9,251.2,295.8,250.9,298.5z"
		/>
	<path d="M268.9,321.3c0.4-1.2,1.2-2,2.8-2.9c-1.1-0.3-1.5-0.5-1.8-0.4c-0.8,0.1-1.4,0.7-1.8,1.3
		C267.5,320.1,267.7,320.5,268.9,321.3L268.9,321.3z"/>
	<path d="M235.2,279.4c-0.5,0-0.9,0.3-0.8,0.8c0.3,1.5,0.8,2,2.8,3c0.2-1-0.7-1.3-1-1.9C235.9,280.7,235.5,280,235.2,279.4
		L235.2,279.4z"/>
	<path d="M269.9,311.9c0.3-1.3,0.2-2.4-0.6-3.7C269,309.7,269.5,310.8,269.9,311.9z"/>
	<path d="M231.1,285.5c-1,1.7-1,1.8,0.4,3.9C231.8,287.9,231.1,286.7,231.1,285.5L231.1,285.5z"/>
	<path d="M233.1,290.6c-0.3,0.2-0.4,0.3-0.5,0.4c0.3,0.3,0.5,0.6,0.8,0.9c0.1-0.1,0.2-0.2,0.2-0.2
		C233.4,291.3,233.2,291,233.1,290.6z"/>
	<path d="M248.8,304.8c0,0.5,0.1,1,0.1,1.5c0.1,0,0.2,0,0.3,0c0-0.5,0.1-1,0.1-1.5C249.1,304.8,248.9,304.8,248.8,304.8z"/>
	<path d="M269,321.3c0.3,0.4,0.5,0.8,0.9,1.3C270.1,321.4,270.1,321.4,269,321.3L269,321.3z"/>
	<path d="M231,285.4c0.2-0.4,0.4-0.7,0.8-1.3C230.9,284.5,231.3,285.1,231,285.4L231,285.4z"/>
	<path d="M235.1,279.4c0.4-0.4,0.7-0.8,0.2-1.6C235.3,278.5,235.2,278.9,235.1,279.4L235.1,279.4z"/>
	<path d="M241.3,286.2c0.1,0,0.2,0,0.3-0.1c-0.1-0.2-0.2-0.3-0.3-0.4c0,0-0.2,0-0.3,0.1C241.1,285.9,241.2,286,241.3,286.2z"/>
	<path d="M269.6,279.3C269.9,279.1,269.8,279.3,269.6,279.3L269.6,279.3z"/>
	<path d="M269.7,279.4c-0.1,0.1-0.2,0.1-0.3,0.2c0,0,0.1,0,0.1-0.1C269.6,279.4,269.6,279.4,269.7,279.4L269.7,279.4z"/>
	<polygon points="260.2,284 260.3,283.9 260.3,284.1 	"/>
	<path d="M260.3,284.1c-0.2,0.2-0.5,0.4-0.7,0.6l-0.1-0.1C259.7,284.4,259.9,284.2,260.3,284.1L260.3,284.1z"/>
	<path d="M258.8,285.3c0.2-0.2,0.5-0.5,0.7-0.7l0.1,0.1C259.3,284.9,259.1,285.2,258.8,285.3L258.8,285.3z"/>
	<path d="M258.9,285.4c-0.2,0.2-0.5,0.4-0.7,0.6l-0.1-0.1C258.3,285.7,258.5,285.5,258.9,285.4L258.9,285.4z"/>
	<path d="M257.4,286.7c0.2-0.2,0.4-0.5,0.6-0.7l0.1,0.1C257.9,286.3,257.7,286.5,257.4,286.7C257.5,286.7,257.4,286.7,257.4,286.7z"
		/>
	<path d="M257.5,286.7C257.1,287.1,257.5,286.6,257.5,286.7L257.5,286.7z"/>
	<path d="M262.7,264.2c-1.8,0.8-2.9,1.2-3.8,1.7c-2.2,1.1-4.4,1.6-6.8,1.5c-3-0.1-6-0.4-9-0.7c-0.9-0.1-1.7-0.2-2.8-0.3
		c0.2,0.4,0.2,0.6,0.4,0.7c4.2,1.7,8.4,3.1,13,2.7c3.2-0.2,6.1-1.3,8.3-3.8C262.2,265.7,262.3,265.3,262.7,264.2z"/>
	<path d="M225.1,264.3c0.2-2.2-1-4-0.9-6.6c-0.9,1.2-0.8,1.9-0.7,2.6C223.7,262,223.9,262.6,225.1,264.3z"/>
	<path d="M234.9,264.1c0.8,1.7,2.1,2.6,4.4,2.1C238,264.9,236.4,264.7,234.9,264.1z"/>
	<path d="M263.2,262.1c0.1,0.1,0.2,0.2,0.2,0.2c0.2,0,0.4-0.1,0.5-0.2c-0.1-0.1-0.2-0.2-0.2-0.2C263.5,261.9,263.4,262,263.2,262.1z
		"/>
	<path d="M318.4,270.1c0.2,0.3,0.4,0.5,0.6,0.7c0,0,0.4-0.2,0.4-0.3c0-0.2-0.2-0.4-0.3-0.5C318.9,270,318.7,270.1,318.4,270.1z"/>
	<path d="M317.7,267.1c0,0.2-0.1,0.4,0,0.6c0,0.1,0.2,0.2,0.4,0.3c0-0.1,0.2-0.2,0.1-0.3C318,267.5,317.8,267.4,317.7,267.1
		L317.7,267.1z"/>
	<path d="M317.6,267.2c0-0.1-0.1-0.2-0.1-0.3C317.6,267,317.7,267.1,317.6,267.2L317.6,267.2z"/>
	<path d="M303.5,241.5c-0.3-0.3-0.5-0.5-0.8-0.8C303,241,303.2,241.2,303.5,241.5z"/>
	<path d="M304.2,242.2c-0.3-0.3-0.5-0.5-0.8-0.8C303.7,241.6,303.9,241.9,304.2,242.2z"/>
	<path d="M231.7,171.7c-0.6-2.5-0.2-4.7,1.3-6.8c1-0.6,2.1-0.7,3.2-0.7c1.6,0,3.1-0.3,4.7-0.5c0.6-0.1,1.1-0.1,1.7-0.1l0,0
		c-0.2,1-1.1,1-1.8,1.2c-0.9,0.2-1.9,0.3-2.9,0.4c0,0.1,0,0.2,0,0.3c1.4,0.1,2.8,0.2,4.8,0.4c-1.3,0.6-2.1,1-2.9,1.3
		c0.5,0.8,1,1.6,1.6,2.5c-1.2-0.2-2.1-0.5-3.1-0.6c-0.3,0-0.7,0.4-1.1,0.6l0.1-0.1c-0.4,0.2-0.8,0.3-1.2,0.5
		c-0.5,0.2-0.8,0.8-1.4,0.4c-0.3-0.9,0.6-1.1,0.8-1.7c0.2-0.4-0.2-0.7-0.7-0.8c-0.6,0.8-1.2,1.6-1.8,2.4c0.5,1.6,1,3.2,1.6,4.7
		c-0.4-0.5-0.9-0.9-1.3-1.4C232.6,173.1,232.2,172.4,231.7,171.7L231.7,171.7z M233.6,166.2c0.8,0.2,1.6,0.4,2.7,0.6
		C235.1,165.6,235.1,165.6,233.6,166.2c-0.4,0.7-0.6,1.5-0.4,2.3c-0.1,0.1-0.2,0.1-0.4,0.2c0.1,0,0.1,0,0.2,0
		c0.1-0.1,0.1-0.2,0.1-0.2C233.9,167.8,233.8,167,233.6,166.2z"/>
	<path d="M234.9,159.6c2.1,1.1,4.2,0.9,6.6,0.4c-1.5-0.8-3,0-4.7-0.9c1.8-0.2,3.2-0.4,5-0.6c-1.9-1.4-3.9-1.1-5.5-1.9
		c0-0.4,0.1-0.7,0.1-1.1c2.3,1.3,2.6,1.4,4.5,0.3c-1.3-0.8-3-0.7-4.2-1.9c1.6,0.1,2.9,0.2,4.2,0.1c1.3,0,2.6-0.8,4-0.2
		c-1,0.4-1.9,0.8-3.3,1.4c2,0.4,3.5,0.7,4.9,1.1l-0.1-0.1c0.4,1.3-1,1.5-1.4,2.4c0.3,0.1,0.5,0.3,0.8,0.4l-0.1-0.1
		c-0.4,1-1.2,1.4-2.2,1.6c-0.4,0.1-0.7,0.4-1.1,0.5c-1.9,0-3.8,0.1-5.7-0.1c-1.5-0.1-3.1-0.4-3.9-2.1
		C233.7,159.1,234.3,159.3,234.9,159.6z M244.2,156.7c0.1,0,0.1-0.1,0.2-0.2c-0.1-0.1-0.2-0.2-0.2-0.2c-0.2,0-0.3,0.1-0.5,0.2
		C243.9,156.6,244,156.7,244.2,156.7z"/>
	<path d="M254.7,165c-0.3,0.1-0.6,0.2-1,0.2c0,0.5,0,1-0.1,1.8c0.6-0.1,1.1-0.3,1.6-0.4c0.2,0.1,0.4,0.2,0.5,0.3
		c0.1,0.2,0,0.5,0.1,0.7c0.6,1.5,1.6,1.9,2.8,1.1c0.4-0.3,0.6-0.8,1-1.2c0.2-0.2,0.6-0.1,0.9-0.1c0.1-0.8,0.3-1.6-0.4-2.3l0.1-0.1
		C258.3,165.8,256.4,165.8,254.7,165L254.7,165z"/>
	<path d="M243.8,145.3c0.6,0.4,1.2,0.8,1.6,1.1c-1.5,0.3-3.3,0.6-5,0.9c1,0.9,2.1,1.5,3.5,1.3l-0.1,0.1c-0.3-0.4-0.6-0.8-1-1.2
		c0.4,0,0.7-0.2,1-0.1c1.8,0.6,3.5,1.2,5.3-0.1c0.5-0.3,1.3,0,1.6,0.7h0c0.1-0.2,0.2-0.4,0.4-0.8
		C248.7,146.3,246.6,144.8,243.8,145.3z"/>
	<path d="M269.2,184.6c-0.1-0.4-0.1-0.7-0.2-0.7c-1.7-0.8-3.5-1.6-5.4-1.1c-1.6,0.4-3.1,0.5-4.6,0.1c-0.2-0.1-0.5,0.3-0.9,0.5
		c0.9,0.9,1.9,1,2.8,1.1c1.4,0.1,2.9-0.2,4.3-0.2C266.6,184.3,267.9,184.5,269.2,184.6z"/>
	<path d="M251.9,162.8c2.8-1.8,5.5-1.7,8.3-0.7c1.1,0.4,2.3,0.9,3.9,0.5c-0.6-0.5-0.9-0.8-1.3-0.9c-1.4-0.4-2.8-0.9-4.2-1.1
		c-1.4-0.2-2.9-0.1-4.3,0.1C253.3,160.7,252.2,161.2,251.9,162.8z"/>
	<path d="M243.3,151.4c-0.3,0.2-0.7,0.6-1.1,0.7c-1,0.2-2,0.2-2.9,0.5c2.7,0,5.4,0,8.3,0C246.3,150.9,244.7,151.5,243.3,151.4
		L243.3,151.4z"/>
	<path d="M268.3,186.8c-2.3,0-4.2,0-6.1,0c-0.2,0.8,0.5,0.9,0.9,1C264.8,188.2,266.4,188.2,268.3,186.8z"/>
	<path d="M237.3,169.6c-0.4,0.8-0.8,1.5-1.2,2.3c0.6,1.2,1.2,2.4,1.7,3.5c0.9-0.1,1-0.8,0.9-1.2c-0.2-0.8-0.7-1.6-1-2.4
		C237.3,171.1,238.1,170.3,237.3,169.6L237.3,169.6z"/>
	<path d="M245.9,190.7c-0.4-0.1-0.8-0.2-1.2-0.3c0.5,3,0.5,3,2.2,5C246.5,193.6,246.2,192.1,245.9,190.7L245.9,190.7z"/>
	<path d="M243.9,149.4c1.3,0.1,2.5,1,3.9,0.8c1-0.1,1.3-0.7,1.4-1.5l0.1,0.1c-1.2,0.2-2.3,0.7-3.5,0.1c-0.5-0.3-1.3-0.1-2-0.1
		l0.1-0.1C244,149,244,149.2,243.9,149.4L243.9,149.4z"/>
	<path d="M266.3,165.7c-0.1,0.1-0.4,0.3-0.4,0.4c0.1,1.8,0.5,3.6,1.3,5.3c0.1,0.1,0.3,0.2,0.5,0.3l-0.1,0.1
		c-0.4-1.6-0.9-3.2-1.2-4.8C266.2,166.5,266.3,166.1,266.3,165.7L266.3,165.7z"/>
	<path d="M265.9,177.5c-1.4-0.9-2.7,0.7-4.1,0.2c0,0.9,0.7,0.8,1.1,0.8C264,178.4,265.2,178.8,265.9,177.5z"/>
	<path d="M241.1,184c0.3-1.6-0.5-2.9-1-4.3c-0.1-0.2-0.7-0.2-1.1-0.3l0.1-0.1c0.2,0.8,0.4,1.7,0.7,2.5
		C240.1,182.5,240.4,183.4,241.1,184L241.1,184z"/>
	<path d="M243.2,151.5c-0.3-0.2-0.7-0.6-1-0.6c-1.4-0.1-2.9,0-4.3,0.3C239.7,151.3,241.5,151.3,243.2,151.5L243.2,151.5z"/>
	<path d="M244,149.5c-0.9-0.1-1.8-0.1-2.6-0.2c-0.7-0.1-1.4-0.3-2.2-0.1c0.9,0.3,1.8,0.7,2.7,0.8C242.6,150.1,243.4,150.2,244,149.5
		L244,149.5z"/>
	<path d="M268.9,175.2c0.1,0.6,0.2,1.1-0.3,1.6c-0.5,0.4-1,0.9-1.6,1.4c0.9,0.4,1.6,0.5,2-0.4c0.2-0.6,0.4-1.3,0.5-1.9
		C269.5,175.7,269,175.5,268.9,175.2L268.9,175.2z"/>
	<path d="M250.1,192.6c0,0.9,0.7,1.1,1.3,1.3s1.3,0.1,2,0.2l-0.1,0.1C252.4,193.2,251.3,192.9,250.1,192.6L250.1,192.6z"/>
	<path d="M240.6,147.5c-0.7-0.7-1.4-1.4-2.1-2.1C238.7,146.5,239.2,147.4,240.6,147.5z"/>
	<path d="M253.4,194.1c0.5,0.9,1.3,0.6,2,0.2C254.7,194.2,254,194.2,253.4,194.1L253.4,194.1z"/>
	<path d="M260.2,165c-0.3-0.5-0.7-0.7-1.6-0.2C259.3,164.9,259.8,164.9,260.2,165L260.2,165z"/>
	<path d="M254.6,164.9c0.5,0,1.1,0,1.7,0C255.6,164.1,255.2,164.5,254.6,164.9L254.6,164.9z"/>
	<path d="M268.3,173.1c0.2,0.7,0.4,1.4,0.6,2.1l-0.1,0.1C268.9,174.5,269.1,173.7,268.3,173.1L268.3,173.1z"/>
	<path d="M266.2,165.7c0.8-0.2,0.8-0.8,0.7-1.4l0.1,0.1C266.1,164.5,266.2,165.1,266.2,165.7L266.2,165.7z"/>
	<polygon points="268.9,165.3 268.9,165.4 269.2,165.3 	"/>
	<path d="M262.9,145.4c0-0.3,0-0.5,0-0.8c-0.2,0.1-0.4,0.1-0.6,0.2c-0.1,0.1-0.2,0.2-0.3,0.3c0.1,0.1,0.2,0.1,0.2,0.2
		C262.5,145.4,262.7,145.4,262.9,145.4z"/>
	<path d="M249.3,148.7c0.6,0,1.2,0,1.4-0.7l0.1,0.1C250.2,148.2,249.6,148,249.3,148.7L249.3,148.7z"/>
	<path d="M246.5,156.1c0.2,0,0.4,0.1,0.6,0c0.1,0,0.1-0.3,0.2-0.4c-0.1,0-0.2,0-0.3,0C246.8,155.8,246.7,156,246.5,156.1
		L246.5,156.1z"/>
	<path d="M267.7,171.7c-0.1,0.6-0.2,1.2,0.7,1.4l-0.1,0.1C268.2,172.6,268.3,172,267.7,171.7L267.7,171.7z"/>
	<path d="M250.1,192.7c-0.2-0.1-0.5-0.2-0.3-0.1C249.6,192.6,249.9,192.6,250.1,192.7L250.1,192.7z"/>
	<path d="M247.5,198.8c0,0.1,0.1,0.2,0.1,0.2c0-0.1,0.1-0.2,0.1-0.3s-0.1-0.2-0.1-0.2C247.6,198.6,247.6,198.7,247.5,198.8z"/>
	<path d="M245.9,158.9c0.1-0.1,0.3-0.2,0.4-0.3c-0.1,0-0.2,0-0.2,0C246,158.7,246,158.8,245.9,158.9L245.9,158.9z"/>
	<path d="M242.5,163.6c0.2,0,0.3-0.1,0.5-0.1c-0.1-0.1-0.2-0.2-0.3-0.3C242.7,163.3,242.7,163.5,242.5,163.6L242.5,163.6z"/>
	<path d="M266.9,164.3c0.2-0.1,0.3-0.1,0.5-0.2c-0.1-0.1-0.2-0.2-0.3-0.3C267.1,164,267,164.2,266.9,164.3L266.9,164.3z"/>
	<path d="M271.6,166.4c0.3,0,0.5,0,0.8,0C272.1,166.4,271.9,166.4,271.6,166.4z"/>
	<polygon points="241.2,183.9 241.3,184 241.1,184 	"/>
	<path d="M245.8,190.6c0.3,0,0.5,0,0.8,0.1l-0.1,0.1C246.3,190.3,246.1,190.5,245.8,190.6L245.8,190.6z"/>
	<path d="M247.2,191.4c-0.2-0.2-0.5-0.4-0.7-0.7l0.1-0.1C246.8,190.9,247,191.1,247.2,191.4L247.2,191.4z"/>
	<path d="M247.3,191.3C247.6,191.7,247.1,191.3,247.3,191.3L247.3,191.3z"/>
	<path d="M243.2,144.6c0.3,0.3,0.5,0.5,0.8,0.8C243.7,145.2,243.4,144.9,243.2,144.6z"/>
	<path d="M265.7,147.3c0,0.2,0.1,0.3,0.1,0.5c0-0.1,0-0.1,0-0.2C265.8,147.5,265.7,147.4,265.7,147.3L265.7,147.3z"/>
	<path d="M264.9,148.7c-0.1-0.1-0.1-0.2-0.2-0.2C264.8,148.5,264.8,148.6,264.9,148.7L264.9,148.7z"/>
	<path d="M264.9,148.7l0.1,0.2L264.9,148.7z"/>
	<path d="M235.8,150.1c-0.2-0.2-0.4-0.5-0.7-0.7l0.1-0.1C235,149.9,235.3,150.1,235.8,150.1L235.8,150.1z"/>
	<path d="M235.8,150c0.1,0.2,0.1,0.3,0.2,0.5C236.6,150,235.9,150.2,235.8,150L235.8,150z"/>
	<path d="M235.7,154.8c0.3,0.3,0.5,0.5,0.8,0.8C236.3,155.3,236,155,235.7,154.8z"/>
	<path d="M223.6,236c0.7-0.1,0.9-0.6,0.8-1.1c0-0.5-0.2-1.1-0.2-1.6l0.1,0.1c-1.4,0.2-1.6,0.4-1.3,1.5
		C223.2,235.3,223.5,235.7,223.6,236L223.6,236z"/>
	<path d="M224.2,233.2c0.5,0.1,1-0.1,1-0.5c0-0.7-0.2-1.5-0.3-2.3c-0.9,0.3-0.6,0.9-0.6,1.3c0,0.5,0,1.1,0.1,1.6L224.2,233.2z"/>
	<polygon points="221.9,232.1 221.9,232.3 222.1,232.3 	"/>
	<path d="M245.1,214c2.2,0.3,4.8,0.6,7.1,0.8c0.9,1.1,1.5,2.1,2.3,2.8s2,0.9,3,1.1c0.4-0.8-0.1-0.9-0.4-1.2
		c-1.3-0.9-2.9-1.3-3.8-2.8c-0.3-0.5-1.3-0.9-2-1c-1.3-0.2-2.7-0.1-4-0.1C246.5,213.8,245.6,214,245.1,214z"/>
	<path d="M260.1,216.4c0.6-0.2,1.1-0.4,1.7-0.5c0-0.1-0.1-0.3-0.1-0.4c-0.3,0-0.6,0-0.8,0.1C260.6,215.8,260.4,216.1,260.1,216.4
		L260.1,216.4z"/>
	<path d="M260.2,216.4c-0.3,0.1-0.5,0.1-0.8,0.2c0.1,0.1,0.2,0.2,0.3,0.3C259.9,216.8,260,216.6,260.2,216.4L260.2,216.4z"/>
	<path d="M265.5,236.8c-0.1-0.1-0.1-0.3-0.2-0.4c0,0.1,0,0.1,0,0.2C265.4,236.6,265.5,236.7,265.5,236.8L265.5,236.8z"/>
	<path d="M231.4,189.4c-0.4,2.6,0.1,5,1,7.5c1-0.6,0.5-1.3,0.5-1.8C232.7,193.1,232.3,191.2,231.4,189.4z"/>
	<path d="M230.7,178.6c0,2.9,0,5.8,0,8.6c0.1,0,0.1,0,0.2,0c0-2.9,0-5.8,0-8.6C230.8,178.6,230.8,178.6,230.7,178.6z"/>
	<path d="M231.7,171.7c-0.8,1.2-0.5,2.6-0.3,3.9c0.1-0.7,0.2-1.3,0.2-2C231.7,173,231.7,172.3,231.7,171.7L231.7,171.7z"/>
	<path d="M238.5,142c-0.1-0.2-0.2-0.3-0.4-0.5c-0.1-0.1-0.2,0-0.3,0c0.1,0.1,0.1,0.3,0.2,0.3c0.2,0.1,0.4,0,0.6,0L238.5,142z"/>
	<path d="M241.2,140.6c-0.1-0.2-0.2-0.4-0.4-0.4c-0.1,0-0.3,0.1-0.4,0.2c0.1,0.1,0.2,0.1,0.3,0.1
		C240.9,140.6,241.1,140.6,241.2,140.6L241.2,140.6z"/>
	<path d="M235.2,157.5c0.1,0.1,0.2,0.3,0.3,0.4c0-0.1,0-0.2-0.1-0.2C235.3,157.6,235.2,157.6,235.2,157.5L235.2,157.5z"/>
	<path d="M240,144.6c-0.1,0.5,0.1,0.7,0.6,0.7l-0.1,0.1C240.3,145.1,240.1,144.9,240,144.6L240,144.6z"/>
	<path d="M240.6,145.3c0,0.1,0.1,0.2,0.1,0.2C240.6,145.5,240.5,145.4,240.6,145.3L240.6,145.3z"/>
</g>
</svg>
