<?xml version="1.0" encoding="utf-8"?>
<!-- Generator: Adobe Illustrator 21.0.0, SVG Export Plug-In . SVG Version: 6.00 Build 0)  -->
<svg version="1.2" baseProfile="tiny" id="Layer_2" xmlns="http://www.w3.org/2000/svg" xmlns:xlink="http://www.w3.org/1999/xlink"
	 x="0px" y="0px" viewBox="0 0 900 600" xml:space="preserve">
<g>
	<path d="M259.7,20.1c-0.5,0-1,0-1.5,0l0.1,0.1c-0.3-0.3-0.6-0.6-0.8-0.8l0.1,0.1c-0.5-0.4-1.1-0.7-1.6,0l0.1-0.1
		c-0.4-0.4-0.8-0.8-1.3-1.2c-0.4-0.3-1.2-0.3-1.3-1.2c0.9,0.1,1.7,0.1,2.6,0.2c0.1,0.2-0.1,0.7,0.4,0.3c-0.2-0.1-0.3-0.2-0.5-0.2
		c-0.8-2.1-2.8-2.3-4.5-2.7c-1.6-0.4-3.2-0.5-4.9-0.7c-0.5-0.1-1,0.1-1.9,0.1c1.9,1.5,4.4,1.2,5.9,2.9c-0.5,0.2-0.8,0.4-1.1,0.5
		c-0.1-0.2-0.2-0.4-0.3-0.5c-0.1-0.1-0.3,0.1-0.5,0.2c0.1,0.1,0.2,0.1,0.3,0.2c0.2,0,0.4,0,0.6,0c1.3,0.9,2.8,1.4,4,2.5
		c0.9,0.8,2,1.1,3.1,1.2l-0.1-0.1c0.3,0.3,0.6,0.6,0.9,0.8l-0.1-0.1c-0.6,0.4-1.2,0.7-1.8,1.1c-2.4-1-2.4-1-4.7-0.5
		c-1.2-0.5-2.4-1-3.6-1.6c-0.9-0.4-1.7-0.6-2.7-0.3c-0.6,0.2-1.4,0-2.1-0.1c-2.1-0.4-4.2-1-6.3-1.4c-1.3-0.2-2.6-0.2-3.8-0.4
		c-1.2-0.2-2.3-0.6-3.5-0.8c-1.1-0.2-1.7,0.5-2.2,1.4c1.2,0.7,2.3,1.4,3.6,2.2c-2.4,0.6-3.8-1.9-6.1-1c0.4,0.8,0.6,1.5,0.9,2.1
		l0.1-0.1c-0.4-0.1-1-0.1-1.3-0.3c-0.7-0.4-1.1,0-1.5,0.3c0,0,0.1-0.1,0.1-0.1c-1.9,1.7-2.5,2.5-3.7,5.4c0.2,1.3,2,1.3,2.1,2.6
		l0.1-0.1c-0.9-0.2-1.7-0.4-2.6-0.7c-1.2,1.9-1.2,2.6,0,3.9c0.6,0.7,1.4,1.2,2.1,1.8c0.6,0.5,1.2,1,1.9,1.5l0.1-0.1
		c-1.9,0.3-3.2-1.3-5-1.9c0,0.9,0,1.7,0,2.5c1.2,0.8,2.2,1.5,3.3,2.2c0.3,0.2,0.6,0.6,0.9,0.9l0.1-0.1c-1.6,0.4-2.5-1.1-3.9-1.4
		c-0.6,1.1-0.4,2.1,0.7,2.7c2,1,4.1,1.8,6.4,1.6c2.2-0.2,4.4-0.5,6-2.3c0.3-0.1,0.6-0.1,0.4-0.1c0.2-0.1,0,0-0.3,0.2
		c-2,0.3-4,0.7-5.9,1c-0.5,0.1-1,0-0.9-0.7c2.3-0.7,4.8-0.8,7.5-2.3c-3.5-0.1-6.4-0.3-9.5-0.4c0.4-0.6,0.7-0.9,1-1.3l-0.1,0.1
		c0.9,0.4,1.8,0.6,2.8,0.3c1.1-0.3,2.3-0.1,3.5-1.1c-1.2-0.9-2.4-0.6-3.5-0.9c-1.1-0.3-2.3-0.5-3.8-0.8c4-0.8,7.7-1.6,11.8-2.4
		c-1.5,1.7-3.6,1.5-5.1,2.4c1.7,0.9,3.5,0.4,5.2,0.3l-0.1-0.1c-0.2,0.5-0.4,1-0.6,1.5c-0.5,0-1.1,0.1-2.2,0.1
		c1.5,0.4,1.5,0.4,2.1-0.2c1-0.2,1.9-0.4,2.9-0.7c0,0-0.1-0.1-0.1-0.1c-0.2,1.5-0.2,1.5-1.5,3c0.5,1,1.2-0.3,1.8,0.1
		c0,0.2,0.1,0.5,0,0.6c-1.3,1.4-2.9,2.4-4.8,2.9c-1.6,0.4-3.2,1-4.8,1.4c-2.5,0.6-5,0.3-7.3-0.7c-0.3-0.1-0.6-0.2-1-0.3
		c-0.1,0.5-0.3,1-0.2,1.5c0.2,1.3,0.5,2.5,0.9,3.8c0.2,0.5,0.5,1,0.7,1.4c2.2-0.4,4.3-0.9,6.4-1.3c2.4-0.4,4.6-1.2,6.5-2.7
		c0.7,0.7,0.2,1.2-0.2,1.5c-1.3,1.2-2.8,1.7-4.5,1.9c-0.9,0.1-1.9,0.2-2.8,0.6c1.2,0.1,2.3,0.3,3.5,0.2c1.1,0,2.3-0.3,3.5-0.4
		c-0.6,1.4-0.6,1.4-3.6,2.1c1.6,0.4,1.7,2.5,3.4,2.8c-0.2,0.8-0.7,1-1.3,0.7c-1.3-0.5-2.6-0.4-3.8-0.2c-0.5,0.7,0.3,1.1,0.2,1.6
		c-0.2,1.7,0.4,3,1.7,4.1c1,0.8,0.8,1.9,0,2.9c-1.2-0.8-1.3-0.7-1.5-1.7c-0.1-0.6-0.3-0.8-0.7-1.1c-1.2-0.6-1.4-1.5-0.9-2.7
		c0.2-0.4,0.2-0.9,0.4-1.4c-1.3-0.3-1.7,1.6-2.9,1c-0.1-0.2-0.3-0.4-0.3-0.6c0.3-0.6,0.7-1.2,0.9-1.9c0.2-0.5,0-0.9-0.7-1
		c-0.5,0.7-1.1,1.5-1.9,2.6c-0.1-0.8-0.3-1.1-0.2-1.4c0.2-1,0.5-2.1,0.7-3.2c0.8,0,1.5-0.1,2.2-0.1c0,0.4,0.1,0.8,0.6,0.3
		c-0.2-0.1-0.4-0.2-0.5-0.3c-0.8-1.3-1.3-1.5-2-0.8c-1.4,1.3-1.9,3-1.5,4.8c0.6,3.4,2.4,6.1,5,8.4c1.2,1,2.5,1.8,3.7,2.6
		c0.9-0.2,1.7-0.3,2.8-0.5c-0.4,0.7-0.6,1.1-0.9,1.5l0.1-0.1c-0.7,0.1-1.4,0.2-2.1,0.3c0,0.5-0.1,0.9,0,1.2
		c1.3,5.8,1.1,11.7,0.5,17.5c-0.5,4.7-2.4,9-5.9,12.4c-0.3,0.2-0.5,0.5-0.7,0.8c1.6,7.6,3.1,15.2,4.8,22.8c0.8,3.5,2,6.9,3.6,10.1
		c0.9,1.8,2.1,3.2,3.8,4.1c6.5,3.4,13.1,6.3,20.2,8.1c1,0.3,2.1,0.5,3.1,0.1c0.6-0.7,0.1-1.4,0-2c0-0.7-0.1-1.4-0.2-2.4
		c1.9,1.1,1.6,3.1,2.5,4.4c2.3,0.5,5.7,0.5,8.4-0.2c1.4-0.3,2.8-0.8,4.1-1.3c1.7-0.7,2.6-2,2.8-3.8c0.3-3.5,0.2-6.9-1.2-10.2
		c-0.7-1.7-1.4-3.3-2.2-4.9c-1.9-4-3.8-8-5.7-12c-0.6-1.3-1.1-2.7-1.4-4c-0.3-1.5-1.1-2.6-2.3-3.5c-3.2-2.5-4.3-5.9-4.5-9.7
		c-0.1-2.5,0.2-5,0.4-7.5c0.1-0.6,0.5-1.3,1-1.8c0.2-0.3,0.8-0.2,1.5-0.4c-0.2,1.3-0.4,2.4-0.5,3.4c-0.1,1.1,0,2.2-0.1,3.2
		c-0.3,3.4,0,6.7,1.8,9.6c2.8,2.4,5.5,4.7,8.3,7c1.1,0.9,2.3,1.8,3.6,2.4c4.6,2.3,9.4,4.2,14.4,5.3c3.7,0.7,7,2.4,10.2,4.2
		c2.8,1.5,4.6,4.1,6,6.9c0.1,0.1,0,0.2,0.1,0.3c3.4,5.6,3.2,11.9,3.5,18.1c0.1,1.2,0,2.4,0,3.6c0.1,2.2-0.3,4.2-0.9,6.3
		c-1.3,4-1.7,8.1-1.5,12.4c0.2,4.3,1.3,8.5,2.1,12.7c0.7,4,1,8.1,0.1,12.1c-0.1,0.5-0.2,1-0.2,1.4c0.6,4,0.4,8.1,1.9,12
		c3.8,9.3,5.1,19.1,5.9,29c0.5,6.6,0,13.1-1.2,19.6c-0.2,0.9-0.3,1.9-0.3,2.8c0.2,8.5,0.5,17,0.7,25.4c0,1.7,0.1,3.3,0.1,5
		c-0.1,2.3,0.3,4.5,1.1,6.7c0.8,2,1.6,4,2.1,6.1c0.3,1.2,0.5,2.4,1.3,3.6c0.6,0.9,0.6,2.3,0.9,3.4c0.2,1,0.4,2.1,0.6,3.2
		c2,0.4,3.9,0.3,5.6,0.1c0.6-3.5,1.1-6.8,1.8-10c1.3-6,4.1-11.5,7.5-16.5c0.3-0.5,0.8-0.9,1.2-1.3c1.4-1.3,3-2.4,4.2-3.9
		c1.9-2.2,4.3-3.8,6.4-5.7c0.3-0.2,0.6-0.4,0.9-0.6c4-1.4,8-3,12.4-3.3c1.7-0.1,3.3-0.7,5-0.7c11.5-0.1,22,2.7,30.7,10.5
		c6.4,5.8,11.2,12.7,14,20.9c1.1,3,1.9,6.2,2.8,9.3c0.2,0.6,0.3,1.1,0.5,1.7c0.5,0.1,1,0.3,1.4,0.3c4.1,0,8.1,0,12.2-0.2
		c2.4-0.1,3.8,1.2,5,2.9c1.1,1.5,0.8,3.2-0.2,4.7c-0.5,0.8-1.1,1.5-1.8,2.4c-5.2,0.1-10.4,0.2-15.8,0.3c-0.2,0.8-0.4,1.5-0.4,2.2
		c-0.4,7.5-2.2,14.7-5.5,21.4c-3.1,6.2-7.5,11.3-13.3,15.2c-4.7,3.1-9.8,4.7-15.5,5c-7.2,0.4-14.3-0.3-21.4-1.5
		c-4.8-0.9-9-3.3-12.9-6c-2.8-1.9-5.4-3.9-7.6-6.5c-0.2-0.3-0.4-0.6-0.7-0.8c-2.9-1.8-4.3-4.7-5.6-7.7c-0.8-1.9-1.7-3.7-2.5-5.5
		c-1.9-4.2-2.5-8.7-2.9-13.2c-0.1-0.6-0.1-1.2-0.2-1.8c-1.6-0.6-3.1-0.3-4.6,0c-1.6,3.7-2.3,4.1-6.5,3.2c-1.9,1.5-4.1,2.6-6.8,2.3
		c-0.3,0-0.7,0.1-1,0.3c-2.4,1.3-4.7,1.3-7.3,0c-0.2,0.5-0.4,1-0.4,1.4c0,3.7-0.4,7.5,0.1,11.1c0.7,4.9,0.3,9.8,0.6,14.6
		c0.3,4.8,0.1,9.6,0.1,14.3c0,2.6,0.1,5.3,0,7.9c0,2-0.4,4-0.8,6c-0.8,4.7-1.4,9.5-1.5,14.2c-0.2,6.1,0,12.2,0,18.3
		c0,1.2,0,2.4-0.1,3.6c-0.6,4.9-0.2,9.8,1,14.6c1.6,6.5,2.5,13.1,3.7,19.7c0.6,3.2,0.7,6.4,0.6,9.6c-0.1,3.2-0.3,6.4-0.4,9.7
		c-0.1,3.9-0.1,7.9-0.2,11.8c-0.4,9.4-0.8,18.9-1.1,28.3c-0.1,2.4,0.2,4.8,0.3,7.1c0.1,2.5,0.1,5,0.2,7.5c0.1,1.7,0.7,2.3,2.4,2.4
		c0.8,0.1,1.7,0,2.5,0.2c1.2,0.2,1.9,0.9,2.1,2.1c0,0.2,0.1,0.5,0.1,0.7c-0.3,3.6,1.4,6.4,3.5,9.1c0.8,1,1.6,2.1,2.3,3.2
		c1.6,2.5,3.1,5.1,4.7,7.6c1,1.5,2.1,2.9,3.6,4c0.7,0.5,1.2,1.2,1.8,1.7c1.4,1.3,2.7,2.7,4.2,3.8c3.3,2.4,5,5.7,5.3,9.7
		c0.1,1.4,0.4,2.8,0.6,4.2c0.2,1.1-0.1,1.9-0.9,2.6c-1.7,1.6-3.8,2.5-6.1,2.8c-5.9,0.9-11.9,1.2-17.9,0.7c-1-0.1-2-0.6-3-0.9
		c-1-0.4-2-0.8-3-1.1c-2.3-0.7-4.6-1.3-6.9-2c-3.4-1.1-3.5-1.3-4.5-5c-2.3-0.5-4.8-1.1-7.2-1.6c-2.2-0.5-4.4-1-6.6-1.5
		c-1.5-0.3-3-0.7-3.8-2.3c-0.2-0.5-1.1-0.7-1.8-1.1c0.9-5,1.4-9.9,3.7-14.5c0.5-1,1-2.3,1-3.4c-0.1-4.1,1.1-7.8,2.5-11.4
		c-0.6-4.9-0.9-9.8-1.7-14.6c-0.7-4-1.1-8.1-3.2-11.7c-0.2-0.4-0.3-0.9-0.5-1.3c-1.3-4.8-2.5-9.7-4-14.5c-1.1-3.7-2.2-7.3-4.4-10.5
		c-0.5-0.8-0.8-1.7-1.1-2.6c-1-3.7-1.9-7.4-2.8-11.1c-0.9-3.5-0.9-7.1-1.2-10.7c-0.1-0.7,0-1.4,0.1-2.1c0.7-4.1,1.2-8.3,2.4-12.3
		c1.3-4.7,1.2-9.1-0.1-13.7c-1.1-4.3-2.1-8.6-3-12.9c-0.3-1.4-0.2-2.8-0.3-4.3c0-0.8,0.1-1.7,0.1-2.5c-0.4-5.1-0.8-10.2-1.2-15.4
		c-0.4-5.2-1.9-10.1-3.3-15c-1.9-6.9-4.3-13.7-6.7-20.4c-1.4-3.8-2.2-7.8-3.3-11.7c-1.3-4.7-2.6-9.4-3.7-14.2
		c-0.6-2.8-0.7-5.7-1-8.2c-0.6,1.8-1.3,3.9-1.2,6.2c0,0.8-0.3,1.6-0.5,2.4c-1,3.4-2,6.9-3.2,10.2c-2,5.4-3.2,11-4.5,16.6
		c-1.4,6.2-2.8,12.3-4.2,18.5c-1.5,6.6-3,13.3-4.4,19.9c-0.4,1.6-0.5,3.3-0.7,5c-0.3,2.5-0.9,4.9-2.3,7.1c-0.6,0.9-0.9,1.9-1.2,3
		c-1.5,5-3,10.1-4.5,15.1c-0.9,2.9-0.9,5.8-0.4,8.9c0.9,5.3,0.8,10.7,0.2,16.1c-0.7,6-1.7,12.1-3.1,18c-0.9,3.7-2.1,7.3-3.7,10.8
		c-0.4,1-0.9,2-1.1,3c-1.2,5-2.4,10-3.5,15c-0.8,3.8-1.6,7.7-2.3,11.6c-0.3,1.4-0.5,2.8-0.7,4.2c-0.7,6.3-1.4,12.6-2.1,19.1
		c0.8,0.7,1,1.8,1,3c0,3.5,0.9,6.8,2.2,10.1c1.1,2.8,2.1,5.6,3.3,8.3c0.7,1.6,1.2,3.4,1.4,5.2c0.6,4.2,2.1,8.1,4,11.8
		c1.1,2.1,2.1,4.3,3.1,6.4c0.9,1.9,1.4,3.8,0.6,6c-1.8,1.7-4.2,2.5-6.7,2.6c-1.2,0.1-2.4,0.1-3.6,0.1c-2.6,0-5.2,0-7.8,0.4
		c-3.6,0.5-7.1,0-10.7-0.8c-1.1-0.3-2.3-0.3-3.5-0.4c-1.4-0.1-2.9-0.2-4.3-0.4c-3-0.4-5-2.1-6.1-4.9c-0.3-0.7-0.5-1.3-0.8-2.2
		c-1.7-0.5-3.7-0.3-5.3-1.7c-1.3-3.7-1.3-7.3-0.2-11.2c0.8-2.7,1.1-5.6,1.5-8.4c0.2-1.8,0.7-3.5,1.6-5.1c1.5-2.6,2.5-5.4,3.2-8.3
		c0.4-1.7,0.9-3.5,1.3-5.2c0.6-2.4,1.8-4.4,4.3-5.2c0.7-1.8,0.9-3.6,0.7-5.4c-0.6-5.1-1.1-10.2-1.9-15.3c-0.6-4.4-1.4-8.7-1.6-13.1
		c-0.1-4.8-0.7-9.5-1.1-14.3c-0.2-2.4,0-4.7,0.2-7.1c0.4-4.5,0.3-9.1,0.3-13.6c0-2.9-0.1-5.7-0.2-8.6c-0.1-2.2,0.1-4.3,0.5-6.4
		c0.3-1.5,0.2-3.1,0.4-4.6c0.1-1.3,0.1-2.6,1.5-3.5c0.4-0.3,0.6-1,0.8-1.6c0.6-2.4,1.9-4.6,1.7-7.2c0-0.7,0.5-1.3,0.7-2
		c1.9-5.2,3.3-10.5,4.2-15.9c0.1-0.4,0.2-0.7,0.2-1.1c-0.1-4.7,1.2-9.2,1.8-13.8c0.4-3.2,0.7-6.4,0.7-9.6
		c-0.1-8.4-0.7-16.7-0.6-25.1c0-4.9-0.3-9.8,0.4-14.7c0.2-1,0.1-2.2-0.1-3.2c-1-6.8-1.2-13.6-1.4-20.4c0-0.9-0.3-1.9-0.3-2.8
		c0-0.7,0.3-1.3,0.5-2l-0.1,0.1c2.9,0.3,4.4-1.2,5.2-3.8c0.5-1.7,1.1-3.4,0.8-5.2c-0.1-0.3,0-0.7,0-1.1c0.3-1.8,1.1-3.5,0.9-5.3
		c-0.5-5.5,0-11-1-16.4c-0.4-2.1-0.8-4.2-1.8-6.1c-0.8-1.4-1.1-2.9-0.9-4.5c0.4-3.1,0.2-6.2,0-9.3c-0.5-8.2-0.5-16.5,0.7-24.6
		c0.8-5.4,1.3-10.9,1.2-16.4c0-1.9,0.1-3.8,0.1-5.7c0-3.4,0.2-6.9-0.6-10.3c-0.9-3.4-1.1-7.1-1.5-10.6c-0.1-1.2-0.1-2.4-0.1-3.6
		c0-0.3,0.3-0.6,0.4-0.8c0.2,0,0.4,0,0.4,0c1,1.1,0,2.8,1.2,4.1c0.3-0.9,0.7-1.6,0.9-2.4c0.9-3,1.8-5.9,2.6-8.9
		c0.2-0.6,0.4-1.1,0.5-1.7c0.7-5.6,3-10.8,4.6-16.1c0.5-1.6,1-3.2,1.6-4.8c1.4-4,2.2-8,2.3-12.3c0-2.5,0.4-5,0.5-7.5
		c0.1-2.1,0-4.3,0-6.7c-0.8,0.2-1.5,0.4-2.1,0.6l0.1,0.1c0.4-2.1,1.6-3.7,3.1-5.1c0.5-0.5,1.1-0.4,1.6,0.4c-0.3,0.7-0.9,1.5-1,2.4
		c-0.2,1.3,0,2.6,0.1,3.9c0.2,2.2,0.4,4.4,0.7,7.1c0.6-0.8,0.9-1.1,1.1-1.5c2.2-4.5,4.2-9.1,5.2-14.1c0.4-2,1.2-3.9,1.5-5.9
		c0.5-2.5,0.9-4.9,1-7.4c0.2-4.1,0-8.1,0-12.2c0-0.4,0-0.7-0.1-1.1c-0.2-0.9-0.3-1.9-0.5-2.8c-0.2-1-0.4-2.1-0.4-3.2
		c-0.1-0.9,0-1.8,0-3c-0.9,0.4-1.5,0.7-2.1,1c-3.7,2.1-7.6,3.9-11.7,5.3c-0.7,0.2-1.4,0.4-2,0.8c-2.7,2-6,3-8.9,4.5
		c-1,0.5-1.9,0.9-2.9,1.4c-5.8,3-9.2,7.8-10,14.3c-0.3,2.7-0.5,5.5-0.7,8.2c-0.1,1.7,0,3.4,0.3,5c0.7,4.2,0.4,8.3-0.4,12.4
		c-0.8,3.7-2,7.4-2.9,11c-0.4,1.6-0.8,3.2-1.2,4.8c1.5,1.3,2.3,2.7,1.8,5.1c-0.6-1.3-1.1-2.1-1.7-3.3c-1,3.8-1.2,7.3-0.7,10.9
		c0.5,3.1,0.7,6.2,1,9.2c0.1,1.2,0,2.4-0.3,3.5c-1.2,3.9-1.2,8-1.4,12.1c-0.4,7.4-0.6,14.8-0.8,22.2c-0.1,2.7,0.1,5.5,0.2,8.2
		c0.1,1.8,0.2,3.5,0.9,5.3c0.5,1.2,0.4,2.6,0.7,3.9c0.6,2.8,1.1,5.6,1.8,8.4c1.3,4.6,2.4,9.2,2.1,14.1c-0.1,0.9,0.1,1.9,0.1,2.9
		c0.2,1.9-0.1,3.8-0.7,5.6c-1.4,4.3-3.1,8.5-4.8,12.7c-0.4,1.1-0.4,2.3-0.4,3.5c-0.2,2.5-0.2,5-0.4,7.5c0,0.6,0,1.3-0.3,1.7
		c-0.8,1-0.6,2-0.2,3c0.4,1.1-0.1,2.1-0.3,3.2c-0.3,1.7-1,3.5-0.3,5.3l0.1-0.1c-0.2,0.3-0.5,0.6-0.5,0.9c-0.1,1,0.8,2,0.1,3.1
		c0.4,0.5,0.9,1,1.3,1.5c1.4-0.7,1.9-1.5,1.8-2.9c-0.1-3.5,0.5-5.8,1.9-8.2c0.2,0.1,0.5,0.2,0.6,0.3c0.1,0.2,0.1,0.4,0.1,0.7
		c-0.4,3.4-0.9,6.9-1.3,10.4c0.3,0.1,0.6,0.2,0.9,0.2c3.6-0.2,3.9-0.4,4.7-4c0.4-1.8,0.9-3.7,1.3-5.5c0.9,0.1,0.8,0.7,0.8,1.1
		c0,1.6-0.1,3.1-0.2,4.7c-0.1,1.8-0.8,3.4-1.8,5c-0.8,1.2-1.8,1.6-3,1.3c-1.2-0.3-2.4-0.9-3.8-1.5c-3.1,0.5-3.3,0.4-5.3-3.1
		c-0.9-0.5-1.7-0.5-2.8,0.2c-0.3,2.2-0.5,4.6-0.9,6.9c-0.6,3.8-1.3,7.5-2.2,11.2c-1.4,5.9-4.2,11.1-7.4,16.2c-2.3,3.6-5,6.6-8.2,9.4
		c-5.1,4.4-10.9,7.2-17.6,8.2c-5.3,0.8-10.7,0.8-16-0.4c-2.2-0.5-4.4-0.9-6.7-1.4c-6.3-1.4-11.8-4.4-16.6-8.7
		c-3.6-3.2-6.7-6.8-9.3-10.8c-2.8-4.4-5.2-9.1-6.8-14.2c-1.8-5.5-3.2-11-4-16.8c-0.8-0.1-1.4-0.3-2.1-0.3c-7.5,0-15-0.1-22.6,0
		c-3.9,0-7.9,0-11.9-0.6c-0.6-0.7-1.4-1.5-2-2.4c-1.5-2.3-1.2-4.3,0.8-6c1.5-1.3,3-1.9,5.2-1.7c3.8,0.4,7.6,0.2,11.5,0.2
		c6.2,0,12.4,0,18.6,0c0.6,0,1.2-0.1,2-0.1c0.1-0.8,0.4-1.6,0.4-2.4c0.2-8.8,2.5-17.2,5.8-25.3c1.4-3.4,3.3-6.6,5.6-9.5
		c2.5-3.2,5.2-6.2,8.4-8.7c4.4-3.4,9.1-5.6,14.6-6.5c6.1-1,12.3-1.6,18.5-0.5c2.8,0.5,5.6,1.1,8.4,1.9c5.5,1.6,10.2,4.7,14.4,8.5
		c4.4,3.9,8,8.6,10.8,13.8c2.7,5,5.3,10.2,6.4,15.9c0.6,3.5,1.5,7,2.2,10.5c0.1,0.5,0.3,0.9,0.5,1.5c0.6,0.1,1.1,0.3,1.7,0.3
		c0.6,0,1.2-0.1,1.6-0.1c0.9-0.9,0.8-1.8,0.9-2.8c0.3-3.5,0.4-6.9,0.8-10.3c0.2-1.6,0.7-3.3,1.2-4.8c0.7-2,1.5-4,2.5-5.9
		c1.6-3.2,2-6.6,2-10.1c0-3.4-0.5-6.7-1.1-10c-1.2-6.2-2.3-12.4-3.9-18.6c-0.7-2.8-1.1-5.6-1.3-8.5c-0.2-5.8-0.4-11.7-0.2-17.5
		c0.2-5.2,0.7-10.5,1.6-15.7c0.6-3.2,0.9-6.4,1.1-9.6c0.2-2.5-0.1-5-0.5-7.5c-0.6-3.4-0.5-6.9-0.7-10.3c0-0.3,0-0.8,0.2-1.1
		c1.7-3.2,1.9-6.9,2.8-10.3c1.1-4.4,1.9-8.9,3-13.3c0.4-1.7,0.4-3.6,0.2-5.3c-0.5-3.9-0.9-7.8-0.8-11.8c0.1-1.9-0.1-3.8,0.4-5.7
		c1.2-5,3.8-9.2,7.5-12.8c1.7-1.7,3.8-2.9,6-3.8c4.2-1.8,8.4-3.5,12.5-5.3c4.4-1.9,8.7-3.9,12.8-6.5c1.7-1.1,3.5-2.1,5.2-3.2
		c4.2-2.5,4.2-2.5,6.8-7.3c-0.2-0.5-0.4-1.2-0.7-1.8c-2.2-4-2.5-8.4-2.8-12.8c0-0.6,0.3-0.8,1.1-0.7c-0.8-5.5-3.2-10.7-3-16.4
		c1.3,2.5,1.4,5.2,2.1,7.8c0.7,2.5,1.2,5.1,1.7,7.6c0.5,2.7,1.2,5.3,2.4,7.9c0.8-0.7,0.5-1.4,0.3-1.9c-0.9-4.9-1.9-9.8-2.7-14.8
		c-0.4-2.3-0.6-4.7-1-7.5c-0.4-0.6-0.9-1.6-1.6-2.6c-1.4-2.2-1.8-4.4-0.6-6.8c0.2-0.3,0.2-0.7,0.4-1.2c-0.9-1.4-1.9-2.8-2.8-4.3
		c-0.2,0.2-0.5,0.4-0.5,0.5c-0.2,2.6-0.6,5.3-0.4,7.9c0.6,6.2,0.7,12.4,1.8,18.5c0.5,2.7,1,5.4,1.5,8.1c0.2,1,0.2,2.1,0.4,3.2
		l0.1-0.1c-1.1-0.6-1.1-1.8-1.4-2.7c-1.6-4.9-2.2-10-2.8-15.1c-0.1-0.9-0.1-2-0.5-2.8c-1-2.1-1.1-4.4-0.9-6.7
		c0.2-3.1,0.4-6.2,0.8-9.2c0.8-5.5,0.7-11-0.2-16.4c-0.7-4.2-0.4-8.3-0.1-12.5c0.2-3.5,2.1-6,5.3-7.5c4.6-2.2,9-2,13.3,0.7
		c0.4,0.2,0.8,0.5,1.3,0.9c3.1-1,6.3-0.9,9.5-1c7.1-0.2,13.7,1.8,19.9,5c1,0.5,1.7,1.2,2.4,2.1c4.1,5.3,6.4,11.4,8.1,17.8
		c0.7,2.5,0.9,4.9,0.4,7.4c-0.4,2.2,0.4,4.2,0.9,6.3c0.6,2.6,1.5,5.1,1.6,7.7c0.1,3.4-0.2,6.9-1.4,10.2c-1.1,2.9-1.9,5.9-2.6,8.9
		c-0.5,2.6-1.4,5.1-3.1,7.1c-4.5,1.4-4.5,1.4-6.5,0.7c0.9-0.8,2-0.7,3-0.8c2.2-0.4,3.7-1.6,4.4-3.7c0.4-1.2,0.8-2.5,1.1-3.8
		c0.7-2.8,1.4-5.6,2.1-8.3c0.3-1,0.6-2.1,0.9-3.1c1.2-5.1,0.9-10.2-0.8-15.1c-0.4-1.2-0.8-2.5-1.2-4c-0.7,0.5-0.8,1.4-1.3,1.9
		c-0.5,0.5-1.1,0.8-1.5,1.2c-2.1-0.4-1.7-3-3.8-3.1c1.6-2.5,4.2-1.8,6.3-2.4c0.2-0.5,0.4-0.9,0.5-1.4c0.2-0.8,0.3-1.6,0.5-2.3
		c-1-1-2.1-0.8-3.1-0.5c-0.9,0.2-1.8,0.6-2.7,0.8c-0.7,0.1-1.4-0.1-1.7-1.1c2-1.3,4.5-1.1,7-1.6c-1.9-4.3-3-8.7-5.2-12.7
		c-1-1.9-2.2-3.6-4.1-4.8c-0.2,0.5-0.4,0.8-0.5,1.1l0.1-0.1c-0.6-0.6-1.3-1.2-1.9-1.8c-0.6-0.5-1.1-1.1-2.2-2.1
		C259.3,19,259.5,19.6,259.7,20.1L259.7,20.1z M372.1,307c0.3,0.2,0.5,0.5,0.8,0.7c0.6,1.8,1.3,3.5,1.8,5.3c1.1,4.6,1.2,9.1-2,13.1
		c-0.1,0.2,0,0.5-0.1,1c0.7-0.4,1.3-0.6,1.8-0.9c-0.5,1.9-2,2.6-3.6,3c-3,0.9-6,1.4-9.2,0.7c-1.7-0.4-3.2-0.9-4.5-1.9
		c-2.1-1.5-3.6-3.4-5-5.5c-3.9,0-7.8,0-11.6,0c-3.9,0-7.8,0-11.6,0c-0.2,0.4-0.3,0.6-0.3,0.9c0,0.4,0,0.7,0.1,1.1
		c1.3,8.4,4.3,16.1,8.9,23.2c0.7,1.1,1.8,1.9,2.7,2.8c0.7,0.6,1.5,1.2,2.2,1.9c2.8,3,6.1,5.3,9.8,7c3.7,1.7,7.3,3.5,11.4,4.1
		c3.8,0.6,7.6,0.8,11.4,0c4.1-0.8,8.1-2.2,11.6-4.6c3.8-2.7,7.1-5.9,9.8-9.8c5.9-8.7,8.6-18.3,8.6-28.7c0-6.3-1.1-12.4-3.1-18.3
		c-3-8.8-7.8-16.6-15.1-22.7c-7.4-6.1-15.8-9.3-25.5-8.4c-4.7,0.4-9.2,1.8-12.9,4.9c-3.2,2.7-6.3,5.5-9.3,8.4
		c-1.1,1.1-2.1,2.3-2.9,3.6c-3.9,6.6-6.1,13.7-6.9,21.3c-0.1,0.6-0.3,1.2,0.6,1.8c2.2,0,4.7,0,7.2,0c2.6,0,5.3,0,7.9,0
		c2.5-0.1,5,0.3,7.4-0.3c0.2-0.6,0.3-1,0.5-1.4c1.8-3.8,4.5-6.8,9-7.2c5.2-0.4,9.7,0.9,12.8,5.5c2.2,3.1,3.2,6.6,3.3,10.4
		c0.1,3.1-0.8,5.6-3.1,7.6c-0.2-1.1,0.6-1.8,1-2.6c0.4-1.1,1.1-2.2,1-3.3c-0.1-4.1-0.9-8-3.3-11.5c-0.2-0.3-0.6-0.4-0.8-0.5
		C372.8,307.3,372.7,307,372.1,307c0-0.5-0.3-0.7-0.8-0.7c-0.2-0.3-0.5-0.5-0.7-0.8l-0.1-0.2l0.2,0.1c0.2,0.3,0.5,0.5,0.7,0.8
		C371.7,306.5,371.9,306.8,372.1,307z M243.8,15.9c0.4,0.7,0.9,0.9,1.9,0.1C244.9,16,244.3,16,243.8,15.9c-0.8-1.1-1.9-0.6-3-0.6
		c-0.1-0.1-0.1-0.2-0.2-0.3c-3.3-0.9-6.9-0.4-10.1,1.5c1.1,1.1,2.5,1.3,3.7,0.7c1.6-0.8,3.5-0.5,5-1.8c0.4-0.3,1.1-0.2,1.7-0.3
		C241.7,16.2,242.8,16,243.8,15.9z M224.5,72.5c0.1,3.8,0.7,6.4,1.9,8.7C226.6,78,225.8,75.2,224.5,72.5c0-2.9-0.3-5.8-1.2-8.5
		c0-0.1-0.4-0.1-0.8-0.2c0.3,2.9,0.8,5.6,1.5,8.3C224,72.2,224.3,72.4,224.5,72.5z M230.2,13.8c-0.4-0.4-0.9-0.7-1.3-1.1
		c-1.4-1.5-3-1.4-5.1-0.6c1.8,1,3.3,1.8,4.9,2.6c0.2,0.1,0.4,0,0.7,0.1c0.2-0.1,0.4-0.2,0.5-0.4c0.1-0.2,0.2-0.4,0.2-0.6
		c0.6,0,1.2,0,1.8,0c0-0.2,0.1-0.3,0.1-0.5c-0.4-0.2-0.9-0.4-1.3-0.5C230.4,13.2,230.3,13.5,230.2,13.8z M177.1,542.3
		c-1.3,0.8-0.6,2.3-1.3,3.4c-0.3,0.5-0.2,1.4-0.1,2.1c0.1,0.6,0.4,1.1,0.7,1.6c0.2,0.2,0.6,0.3,1,0.6
		C178.1,547.2,177.4,544.7,177.1,542.3c0-0.1,0-0.2,0.1-0.2C177.2,542.1,177.2,542.2,177.1,542.3z M223.1,18.8
		c1.2,0,1.9-0.7,2.4-1.7c-0.5-0.4-1-0.7-2-1.5c1.7,0.1,2.6,0.1,3.7,0.2c-0.8-1.6-2.2-1.8-3.3-2.4c-1.3-0.7-2.5-0.4-3.8,0.2
		c-1.9,1-3.1,2.5-3.8,4.6c-1.1,3.1-1,6.3-1.2,9.5c0,0.5-0.3,1.1,0.5,1.5c1-2,1.9-3.9,2.8-5.8c0.5-1,1.1-1.8,2.2-2.2
		c1.2-0.4,2-1.2,2.5-2.4L223.1,18.8z M375.1,271.2c-0.4-0.4-0.9-0.6-1.6-0.2C374.1,271,374.6,271.1,375.1,271.2
		c0.2,0.9,1.1,0.7,1.7,1c5.4,2.1,10.1,5.3,14.2,9.5c7.3,7.4,11.7,16.4,14.1,26.5c1.7,7.3,1.7,14.7,0.5,22.1
		c-1,6.1-2.7,11.9-6.1,17.1c-2,3.1-4.1,6.2-6.9,8.7c-3.5,3.1-7.2,6-11.8,7.3c-0.4,0.1-0.8,0.4-1.6,0.9c2.1,0.4,3.7-0.2,5.2-0.4
		c4.1-0.7,7.8-2.1,11.2-4.4c4.8-3.2,8.1-7.7,11.2-12.4c3.6-5.7,5.1-12.1,6-18.6c0.5-3.7,0.9-7.4,0.5-11.1
		c-0.8-9.1-3.2-17.8-8.2-25.7c-0.4-0.6-0.7-1.3-1.1-1.8c-4.7-6.8-10.4-12.5-18.2-15.7C382.6,272.5,379,270.9,375.1,271.2z
		 M295.4,137.9c1.6,1.6,2.4,3.7,2,5.8c-0.5,2.4,0.2,4.2,1.3,6.1c2.7,4.4,3.7,9.3,4,14.3c0.3,4.7-0.5,9.3-3.4,13.3
		c-1.4,1.9-2.9,3.8-4.6,5.5c-2.6,2.6-4.5,5.8-6.8,8.7c-0.5,0.6-0.8,1.5-0.8,2.3c-0.1,1.7-0.7,3.2-1.4,4.8c-0.8,1.7-1.4,3.6-0.9,5.5
		c0.1,0.5,0,1,0,1.4c-0.2,4,0.4,7.9,1.1,11.7c0.9,4.9,2.1,9.8,3,14.7c0.7,3.9,1.6,7.7,3.2,11.4c1.4,3.4,2.4,7.1,2.6,10.7
		c0.4,5.4,1.3,10.6,2.4,15.9c1.3,6.2,2.2,12.4,3.3,18.7c-1.2,3.9-2.4,7.8-3.7,11.6c-0.6,1.9-1.2,3.8-2.8,5.3
		c-0.6,0.5-0.8,1.4-1.1,2.2c-0.3,1-0.5,2.1-0.7,3.1c1.7,1.3,3.2-0.1,4.8-0.3c1.6,2.3,2.3,4.7,1.5,7.4c-0.7,2.3-1.3,4.5-2,7
		c1.3,1,2.8,1.2,4.3,1.1c0.8-0.1,1.5-0.6,1.9-1.5c0.8-1.8,1.5-3.5,2.3-5.3c0.3-0.6,0.6-1.2,0.9-1.8c0.4,3.5-1.6,6.3-2.6,9.3
		c3.3,0.8,4.7,0.1,5.4-3.1c0.6-2.7,2.4-4.6,3.9-6.7c0.5-0.8,1.4-1.2,2.6-1.1c-0.7,1.6-1.8,2.6-2.8,3.8c-0.7,0.8-1.2,1.8-1.6,2.7
		c-0.3,0.9-0.9,1.9-0.6,3c2.6,0.3,4.3-0.6,5.2-3c0.5-1.2,1.1-2.4,1.7-3.5c0.2-0.4,0.6-0.7,1.3-1.4c-0.1,1.1,0,1.7-0.2,2.2
		c-0.5,1.5-1.1,2.9-1.7,4.4c-0.1,0.2,0.1,0.4,0.1,0.6c0.9,0.4,1.5-0.2,2.4-0.8c0.3-2.8,2.5-5.3,2.1-8.4c-2-1.8-2.1-2-2.7-4.4
		c-0.3-1-0.4-2.1-0.7-3.1c-1.1-3.9-1.5-8-3.4-11.7c-0.4-0.7-0.5-1.6-0.5-2.4c-0.3-5.2-1.3-10.4-0.8-15.7c0.5-5.2,0.4-10.5,0.1-15.7
		c-0.2-3.2-0.2-6.4-0.1-9.7c0-1.9,0.2-3.9,0.7-5.7c0.4-1.3,0.5-2.5,0.6-3.8c0.2-5.4-0.8-10.7-1.1-16.1c-0.2-4.1-1.2-8-2.5-11.9
		c-1.2-3.5-2.2-7.1-3.3-10.6c-0.4-1.4-0.9-2.7-0.6-4.2c0.1-0.4,0-1-0.1-1.4c-1.3-4.4-1.2-9-1.1-13.5c0.1-2.7-0.1-5.5-0.5-8.2
		c-0.8-5.4-2-10.7-0.8-16.3c0.5-2.2,0.6-4.5,1.5-6.6c0.5-1.3,0.6-2.5,0.6-3.8c-0.1-2-0.1-4.1-0.2-6.1c-0.1-2.5-0.3-5-0.1-7.5
		c0.2-2.2-0.2-4.3-1.2-6.2c-0.9-1.8-1.9-3.6-2.9-5.4c-0.7-1.3-1.7-2.4-3-3c-2.9-1.3-5.8-2.7-8.9-3.8c-3.2-1.2-6.6-2.1-9.9-3
		c-0.4-0.1-0.9-0.1-1.7-0.2c0.5,0.9,0.9,1.5,1.2,2.1c3.7,5.9,7.4,11.7,11,17.6c0.8,1.3,1.5,2.7,2.2,4.1c0.8,1.5,1.6,3,3.1,4.5
		C295.7,141.6,295.6,139.7,295.4,137.9L295.4,137.9z M279.6,264.7L279.6,264.7c0.2,0.3,0.4,0.6,0.7,1.1c2.8-0.9,5.7-1,8.5-2.2
		c-0.6-4.5-1-8.8-1.8-13.2c-1.1-5.9-2.5-11.7-3.7-17.5c-1-5.4-1.8-10.8-1.7-16.4c0.1-5.1,0.5-10.2,1.5-15.3c0.2-0.9,0.2-1.8,0.3-2.6
		c-0.2-0.3-0.3-0.4-0.4-0.4c-7.3-2.4-14.9-3.4-22.6-3.5c-3.9-0.1-7.9,0.5-11.8,0.7c-3.7,0.2-7.4,0.7-11.1,0.6c-3.5,0-6.9,0.4-10.3,1
		c-5.6,1-11.2,2.1-16.8,3.2c-0.9,0.2-1.7,0.6-2.8,1.1c0.5,1.2,0.9,2.2,1.2,3.2c0.4,1.2,0.9,2.5,1.1,3.7c0.5,3.7,0.9,7.3,0.8,11.1
		c-0.1,3.2,0.1,6.5-1.9,9.3c-1.3,5.3-4.7,9.7-6.1,14.9c-0.2,0.6-0.6,1-0.9,1.6c-2.2,4.6-4.4,9.3-5.5,14.3c-0.1,0.7-0.2,1.3-0.2,1.9
		c5.5,2.8,11.3,2.6,17,3.5c0.3,0.1,0.6-0.2,1-0.3c-0.1-1-0.3-1.9-0.5-3.6c1.3,1.9,2.2,3.2,3,4.3c1.2,0.4,2.2,0.8,3.2,1.1
		c1.8,0.5,3.7,1,5.6,1.2c3.8,0.5,7.6,0.8,11.4,1.3c11.3,1.5,22.6,1.3,33.8-1C273.8,267.2,276.8,266.4,279.6,264.7z M187.3,330.6
		c0,0.6-0.1,1.2,0,1.8c0.6,3.4,0.5,6.9,0.5,10.4c0,0.6-0.1,1.3,0.2,1.8c0.7,1.2,0.6,2.5,0.6,3.8c0.2,4.5,0.4,9.1,0.5,13.6
		c0.1,2.3,0.1,4.5,0,6.8c-0.1,3.7-0.3,7.4-0.4,11.1c0,0.7,0.2,1.4,0.4,2.1c0.5,3.2,1.1,6.3,0.5,9.6c-0.2,1,0.1,2.1,0.1,3.2
		c0.5,7.3,0.2,14.5-1.8,21.7c-1.2,4.5-2.4,9-3.6,13.5c-1.5,5.5-2.6,11.2-4.4,16.6c-2.4,7.4-3.3,14.9-3.5,22.5
		c-0.1,2.7,0,5.5-0.1,8.2c-0.2,5.9,0,11.7,0.8,17.5c0.5,3.5,0.6,7.1,1.1,10.7c1.1,7.9,2.2,15.8,2.4,23.9c0,0.6,0,1.3,0.2,1.8
		c0.6,1.1,0.4,2.3,0.4,3.5c0,3.4-0.5,6.7-1.3,9.9c-0.4,1.8-0.8,3.6-0.5,5.8c1.4-0.9,2-2,2.4-3.3c0.4-1.1,0.5-2.3,0.9-3.4
		c0.3-0.9,0.7-2,1.4-2.4c2.6-1.4,5.2-3,8.4-2.7c1.2,0.1,2.3,0.1,3.6,0.2c0.6-1.6,0.8-3.2,0.9-4.7c0.4-3.7,0.7-7.4,1.2-11
		c0.5-3.8,0.1-7.6,1.4-11.3c-0.1-2.2,1.1-4.1,1.5-6.2c0.5-2.5,1-4.9,1.5-7.4c1.1-4.8,2.3-9.5,3.3-14.3c0.6-2.7,0.6-5.5,2.3-7.8
		c0.3-0.4,0.3-0.9,0.4-1.4c0.6-2.7,1.4-5.3,1.8-8c0.6-4,1.2-8,1.3-12.1c0.1-4.8-0.3-9.5-0.6-14.3c-0.1-1.3-0.5-2.5,0.4-3.8
		c0.3-0.4,0-1.4,0-2.1c0.1-1.4-0.1-3.1,0.5-4.2c1-1.6,1.1-3.4,1.6-5c0.6-1.8,1-3.7,1.4-5.5c0.4-2,0.9-4,2.3-5.5
		c1-1.1,1.4-2.5,1.7-3.9c0.3-1.3,0.5-2.6,0.9-3.8c0.9-2.6,1.5-5.3,1.7-8c0.1-1.6,0.5-3,1.3-4.4c1.3-2.4,2-5.1,2.6-7.8
		c0.4-1.8,0.7-3.5,1.1-5.3c1.4-6.2,3-12.3,4.3-18.5c1.2-5.7,2.2-11.5,3.3-17.2c0.3-1.4,0.7-2.8,1.1-4.1c0.7-2.2,1.5-4.3,2.1-6.5
		c0.2-0.8,0.1-1.6,0.2-2.5c-0.8-0.4-1.4-0.7-2.1-1c-3.7-1.3-7.5-2.5-11.2-3.8c-4.6-1.6-9.4-2.7-14.3-2.8c-0.9,0-2,0-2.8-0.5
		c-1.7-0.9-3.4-0.9-5.2-0.9c-2.5,0-5,0-7.5,0c-0.8,0-1.6,0.2-2.3,0.3C191.5,326.2,190.2,328.9,187.3,330.6z M246.6,332.1
		c-0.1,0.4-0.1,0.7-0.1,0.9c0.7,3.6,1.4,7.3,2.2,10.9c1.8,7.7,3.9,15.3,6.7,22.6c1.4,3.7,2.8,7.4,3.9,11.1c1.3,4.8,2.1,9.8,3.6,14.6
		c0.2,0.7,0.2,1.4,0.3,2.1c0.5,6.2,1.1,12.4,1.6,18.5c0.1,0.6,0.2,1.2,0.2,1.8c-0.3,5.3,0.8,10.5,2,15.6c0.7,3.1,0.7,6.4,2.5,8.8
		c-0.2,1.6-0.4,2.9-0.6,4.2c-0.5,3.7-1,7.3-1.4,11c-0.2,2.4-0.4,4.8-0.3,7.1c0.1,2,0.2,4,0,6.1c-0.2,2.6-0.1,5.3,0.7,7.8
		c0.9,2.7,1.8,5.5,2.9,8.1c1.3,3.1,2.5,6.2,3.3,9.4c0.3,1,0.6,2.1,1,3.1c2.3,6.3,4,12.7,5.4,19.3c1.2,5.4,2.3,10.7,3.6,16.1
		c0.4,1.6,0.3,3.1-0.5,4.5c-0.3,0.6-0.7,1.2-1.1,1.9c0.8,0.8,0.7,1.7,0.3,2.7c-0.5,1,0,1.8,0.4,2.7c0.6,1.1,1.4,1.8,2.9,1.9
		c1.8-2.4,3-5.1,4.3-7.5c0.2-0.2,0.3-0.3,0.4-0.3c2.1-1.3,4.6-2,5.4-4.9c0.1-0.4,0.7-0.6,1.1-0.9c0.9-0.5,1.9-0.9,3.1-1.5
		c-1.1-2.2-0.7-4.6-0.7-6.9c-0.1-3-0.1-6-0.2-9c-0.6-9.7-0.3-19.3,0.5-29c0.2-2.6,0.3-5.2,0.5-7.9c0.1-1.9,0.2-3.8,0.3-5.7
		c0.1-4.9,0.5-9.8,0.1-14.7c-0.6-7.4-1.7-14.7-3.6-21.9c-0.5-1.9-1.5-3.8-0.8-5.9c0.1-0.3-0.1-0.7-0.2-1c-0.6-1.9-0.6-3.8-0.4-5.7
		c0.6-5,0.1-10,0.3-15c0-0.8-0.1-1.7-0.2-2.5c-0.2-1.9-0.5-3.8-0.4-5.7c0.1-3.3,0.3-6.7,0.6-10c0.4-4.3,0.8-8.6,1.2-12.8
		c0.2-1.9,0-3.8,1.3-5.5c0.4-0.5,0.4-1.4,0.3-2.1c-0.1-4.8,0-9.6-0.3-14.3c-0.5-6.2-0.9-12.4-1.1-18.6c-0.1-2.4-0.1-4.8-0.2-6.9
		c-0.9-1-1.8-1.7-2.2-2.7c-0.5-1-0.5-2.2-0.7-3.5c-2.1-0.3-4.1-0.2-6.1-0.1c-0.5,0-0.9,0.3-1.4,0.4c-3.6,0.9-7.1,2-10.8,2.6
		c-2.8,0.5-5.6,1-8.4,1.9c-1.7,0.5-3.4,1.2-5.2,0.9c-0.7-0.1-1.4,0.2-2.1,0.4c-1.3,0.3-2.5,0.8-3.8,1.1
		C253.5,330.6,250.1,331.3,246.6,332.1z M68.2,323.5c-0.1,0.3-0.2,0.7-0.2,1c0.6,5.6,1.9,11.1,3.9,16.3c2.2,5.9,5,11.6,9,16.7
		c4.6,5.9,9.9,10.7,16.9,13.4c11.4,4.6,21.8,2.3,31.1-5.3c3.4-2.7,6-6,8.4-9.7c5.8-9.1,8.8-19,9.7-29.6c0.7-7.4-0.1-14.8-1.4-22.1
		c-1.2-6.4-3.3-12.5-6.2-18.2c-2.7-5.3-6-10.3-10.4-14.5c-4.1-3.8-8.5-6.9-13.8-8.7c-9.9-3.3-19-1.6-27.5,4.4
		c-3.8,2.8-6.9,6.2-9.5,10.1c-3,4.5-5.6,9.2-7.1,14.4c-1.8,6.1-3,12.3-3.3,18.6c0,0.7,0.1,1.4,0.1,2.1c1.4,0.4,2.5,0.5,3.8-0.1
		c0.1-0.6,0.2-1.2,0.2-1.7c0.1-4.5,0.9-8.8,2.1-13.1c2.3-8.4,6-16.1,12.1-22.5c4.1-4.3,8.9-7.5,14.5-9.6c2.2-0.8,4.4-1.1,6.7-0.7
		c2.6,0.4,5.1,1.1,7.7,1.8c0.7,0.2,1.5,0.5,1.8,1.7c-2.9-0.6-5.6-1.1-8.2-1.7c-1.8-0.4-3.6-0.5-5.3-0.1c-3.1,0.8-6.1,2.1-8.8,3.8
		c-7.3,4.5-12.1,11.2-15.6,18.8c-3.1,6.8-4.8,14-5.1,21.5c0,0.7,0.1,1.4,0.1,2c3.2,0.4,27.5,0.5,31.1,0.1c1.1-2.4,3.3-3.4,5.7-4.2
		c2.1-0.7,3.7-0.3,5.4,0.9c1,0.8,2,1.7,3,2.5c3.5,3.1,3.7,8.7,0.6,12.3c-1.5,1.7-3.3,2.6-5.4,3.6c3.7,4.7,5.2,10,5.2,15.7
		c0,2-0.5,3.8-1.7,5.3c-0.6,0.8-1.4,1.3-2.4,1.4c-2.9,0.4-6.2-1.6-7.1-4.3c-0.2-0.6-0.2-1.4-0.1-2.1c0.1-0.7,0.5-1.4,0.4-2.1
		c-0.8-4.7-0.7-9.4-0.2-14.6c-0.6,0.7-0.9,0.9-1,1.2c-0.6,1.7-1.2,3.4-1.6,5.1c-1,4.3-2,8.6-2.9,12.9c-0.4,1.8-1.6,2.1-2.9,1.7
		c-5.4-1.5-8.8-6.4-8.4-12.1c0.8-0.9,1.7-1.7,2.3-2.7c2-3.3,4.5-6.2,7.4-8.6c0.4-0.3,0.8-0.6,0.5-1.2c-0.2-0.1-0.4-0.2-0.6-0.2
		c-8.6,0-17.2,0-25.8,0.1c-0.4,0-0.8,0.3-1.3,0.4c0,0.6-0.1,1.1,0,1.6c0.9,5.6,2.4,11,4.6,16.1c2.1,4.8,4.4,9.6,8.2,13.3
		c0.3,0.2,0.5,0.5,0.7,0.8c1.7,2.8,4.1,5,6.4,7.2c2.9,2.6,6.5,4,10.1,5.3c1,0.3,2.1,0.2,3.2,0.2c1.4,0,2.8-0.2,4.3,0.3
		c-0.4,0.2-0.7,0.4-0.9,0.4c-3.8,0-7.6,0.7-11.1-1.5c-0.4-0.2-0.9-0.4-1.3-0.5c-2.4-0.8-4.6-2-6.2-4c-0.4-0.5-0.9-0.8-1.3-1.2
		c-3-2.7-5.6-5.9-7.9-9.2c-4.3-6.2-7.2-13.2-9.1-20.5c-0.6-2.2-0.8-4.5-1.2-6.7c-0.1-0.6-0.3-1.1-0.5-1.5
		C70.5,323,69.3,322.9,68.2,323.5z M207.1,198.6c3.2-0.6,5.9-1,8.6-1.6c7.3-1.7,14.7-3.4,22.3-3.4c0.6,0,1.2-0.1,1.8-0.1
		c6.9-0.5,13.8-1,20.7-1.5c0.8-0.1,1.7-0.1,2.5,0c6.3,0.6,12.5,1.7,18.6,3.7c0.8,0.2,1.5,0.8,2.5,0.3c0.2-0.6,0.4-1.3,0.7-1.9
		c1.1-2.2,2.2-4.5,3.6-6.6c1.6-2.4,3.6-4.4,5.3-6.7c1.6-2.2,3.2-4.5,4.7-6.7c2.4-3.5,2.8-7.3,2.2-11.3c-0.3-2.1-0.8-4.2-1.2-6.3
		c-0.5-2.6-1.6-5-3.1-7.2c-1.8-2.5-3-5.2-3.8-8c-0.5-2-1.5-3.7-2.7-5.4c-4.9-6.6-9.5-13.5-13.6-20.6c-0.6-1-1.3-1.6-2.2-2.2
		c-1.6-1-3.2-2.1-4.8-3.1c-0.4-0.2-0.7-0.7-1.2-0.2c1.3,2.7,2.5,5.4,3.8,8c1.3,2.7,2.6,5.4,4,8c1.2,2.3,1.9,4.6,2.4,7.1
		c0.6,3,0.5,5.9-0.6,8.8c-0.8,2.2-2.3,3.6-4.6,4.1c-3,0.7-6.1,1.2-9.2,0.9c-0.8-0.1-1.7-0.1-2.5,0c-5.2,0.4-10.2-0.6-15-2.6
		c-2.8-1.1-5.4-2.6-8.1-3.7c-3.6-1.4-6.3-3.9-8.1-7.2c-1.2-2.1-2.3-4.2-2.9-6.5c-1.2-4.2-2.1-8.6-2.9-12.9
		c-0.7-3.6-1.1-7.3-2.3-10.9c-0.2-0.5-0.5-1-0.8-1.4c-1.1,0.6-2.1,1-3,1.6c-0.9,0.6-1.9,1-2.3,2.1c0.9,6.1,1.4,16.9,0.9,23.3
		c-0.3,4.1-0.7,8.1-2.2,11.9c-0.3,0.7-0.3,1.4-0.5,2.1c-1,3.2-1.8,6.4-3,9.6c-1.5,4.1-3.4,8.2-5,12.3c-0.6,1.4-1,2.9-1.3,4.4
		c-0.7,3-1.2,6.1-2.4,9c-0.5,1.1-0.7,2.3-1,3.2c0.6,1.2,1.2,2.1,1.5,3.1c0.8,2.3,1.3,4.6,2.1,6.9
		C205.3,193.3,206.1,195.8,207.1,198.6z M193.4,311.9c0.8,0.1,1.6,0.2,2.4,0.2c7.9,0,15.8-0.1,23.6-0.2c9.9-0.1,19.8-0.3,29.7-0.3
		c12.3-0.1,24.6,0,36.9-0.1c1.2,0,2.4,0.3,3.5-0.4c0.1-0.3,0.1-0.7,0.2-1c0.4-2.9,1.1-5.6,3.3-7.7c0.9-0.9,1.5-2.2,1.5-3.7
		c-1.6-2.4-2.1-5.4-2.4-8.4c-0.4-3.7-1.2-7.3-2.2-10.9c-0.4-1.3-0.4-2.5-0.3-3.9c0.2-2.6-0.1-5.2-0.2-7.8c0-0.4-0.3-0.9-0.5-1.5
		c-0.9,0.2-1.7,0.2-2.5,0.5c-6.4,1.8-12.9,3.5-19.5,4.6c-2.3,0.4-4.7,0.6-7.1,0.8c-3.4,0.3-6.9,0.4-10.4,0.7c-0.3,0-0.6,0.2-1.1,0.4
		c-0.1,1.6-0.1,3.1-0.3,4.6c-0.2,1.7-0.5,3.3-0.8,4.9c-0.3,1.4-0.7,2.7-1,4.1c-0.1-2.3,0.2-4.6,0.4-6.8c0.2-2.3,0.9-4.7,0.1-7
		c-0.3-0.2-0.5-0.3-0.7-0.4c-11.1-1.4-22.3-2.4-33.4-4.3c-5.4-0.9-10.8-1.8-16-3.7c-0.4-0.1-0.9-0.1-1.3-0.1
		c-0.2,0.5-0.3,0.8-0.4,1.2c-1,4.4-2.1,8.8-3,13.3c-0.5,2.7-0.9,5.4-1.1,8.1c-0.1,1,0.3,2.1,0.6,3.1c0.4,1.5,1,2.9,1.3,4.5
		c0.9,5.3,1.4,10.6,0.3,16C193.2,311,193.3,311.3,193.4,311.9z M112.6,374.9c6,0.9,11.7,0,17.4-1.7c4.5-1.3,8.5-3.7,12.1-6.8
		c5.7-4.9,9.5-11,12.4-17.8c5.6-13,6.7-26.5,4.5-40.3c-0.4-2.6-0.8-5.2-1.5-7.7c-2-6.8-4.5-13.3-8.4-19.3c-3.4-5.3-7.4-10-12.6-13.5
		c-5.3-3.6-11-6.2-17.4-7.2c-0.8-0.1-1.7-0.2-2.5-0.2c-0.9,0-1.7,0.1-2.6,0.1c7.7,2.6,13.8,7.3,19,13.2c4,4.5,7,9.6,9.5,15.1
		c1.8,3.9,2.8,8.1,4,12.2c1,3.7,1.7,7.5,2,11.3c0.6,6.8,0.3,13.6-0.8,20.3c-1.2,7.2-2.9,14.3-6.8,20.6c-2.7,4.4-5.3,8.7-9.3,12.2
		c-5.3,4.7-11.2,8.1-18.3,9.1C113,374.6,112.8,374.8,112.6,374.9z M331.4,573.9c0-1,0-2.1,0-3.1c0.1-2.1-0.9-3.7-2.5-4.9
		c-2-1.5-4-2.9-6-4.3c-1.4,0.4-2.6,0.8-3.9,1.1c-1,0.2-2.1,0.2-3.2,0.1c-0.6,0-1-0.5-1-1.2c0-0.4,0.5-0.8-0.2-1.4
		c-1.6,0.1-3.4,0.2-5.2,0.3c-1.1,0-1.9-0.5-1.9-1.2c0.1-0.8,0.6-1.2,1.3-1.5c0.2-0.1,0.4-0.2,0.7-0.2c2.7-0.2,5.4-1.1,8.2-0.5
		c0.3,0.1,0.6-0.1,0.9-0.2c-0.4-1.1-1.3-1.1-2.1-1c-4.3,0.2-8.6,0.4-12.9,0.6c-0.8,0-1.6-0.1-2.4-0.4c-0.7-0.2-0.9-1.4-0.3-1.8
		c0.7-0.5,1.4-1,2.2-1.2c3.4-0.7,6.8-1.1,10.3-0.5c0.5,0.1,1.1,0.5,1.7,0c0-1.1-0.6-1.7-1.6-1.9c-0.8-0.1-1.7-0.1-2.5-0.1
		c-3.7,0-7.4,0.6-11,1.3c-1.1,0.2-2.1,0.3-3.2,0.3c-0.4,0-0.9-0.4-1-0.8c-0.1-0.4,0.1-1,0.4-1.2c0.9-0.6,1.8-1.2,2.8-1.4
		c3.9-1.1,7.9-2,12-1.7c0.4,0,0.8-0.1,1.3-0.2c-0.1-0.9-0.7-1.1-1.3-1.2c-3-0.3-6-0.2-8.9,0.4c-1.7,0.4-3.5,0.7-5.3,1
		c-0.5,0.1-1,0.1-1.4,0c-0.2,0-0.5-0.3-0.5-0.4c0-0.3,0-0.8,0.2-1c0.3-0.3,0.8-0.6,1.2-0.8c3.3-1.6,6.9-2,10.4-2.2
		c0.9,0,1.8-0.1,2.7-0.2c-1.1-2.9-2.1-5.7-3.3-8.7c-1.2-0.7-2.8-0.4-4.3-0.5c-1.4-0.1-2.6,0.4-3.5,1.5c-1.3,1.6-2.9,2.9-4.8,3.7
		c-1.3,0.6-2.1,1.5-2.6,2.8c-0.7,1.5-1.3,3.1-1.9,4.6c-0.8,1.9-1.6,2.4-3.6,2.1c-1.2-0.2-2.3-0.6-3.6-0.9c-0.1,0.9-0.2,1.7-0.2,2.5
		c0,1.5-0.3,2.8-1,4.1c-2,3.9-2.8,8.1-3.2,12.4c0,0.3,0.1,0.7,0.2,1.1c4.9,1.7,9.9,2.4,14.9,3.6c0.4,0.1,0.8-0.1,1.7-0.3
		c-0.9-0.8-1.5-1.3-2.1-1.9c-0.6-0.5-1.1-1.1-1.8-1.7c1.1-0.9,2-0.4,2.8,0.1c1.1,0.7,2.2,1.5,2.5,2.9c0.2,0.7-0.4,1.4,0.4,2.3
		c0.5,0.5,0.4,1.7,0.5,2.8c2.5,0.8,5,1.6,7.5,2.3c2.9,0.8,5.8,1.6,8.8,1.3c0.4,0,1.1,0.1,1.3,0.4c1,1.4,2.5,1.3,3.9,1.2
		c3.6-0.2,7.1-0.6,10.7-1c1.1-0.1,2.3-0.7,3.3-1.2c0.3-0.2,0.6-0.6,1-1.1c-1.6-0.9-3-0.3-4.4-0.3c-1.3,0.1-2.6,0.2-3.9,0.4
		c-1.4,0.2-2.8,0.5-4.2,0.8c-1.4,0.3-2.5,1.2-4.2,1.4c2-2.3,3-3,5.4-3.5C324.9,575,328,574.5,331.4,573.9z M204.5,566.5
		c-1,0.3-1.8,0.5-2.6,0.7c-0.8,0.1-1.7,0.2-2.5,0.2c-4.1,0.1-8.1,0.1-12.2,0.2c-0.6,0-1.2,0-1.7-0.2c-0.5-0.2-0.9-0.8-1.1-1.2
		c-0.1-0.3,0.2-1,0.5-1.2c0.8-0.5,1.7-1,2.6-1.2c5-0.9,10-1,14.9,0.2c0.5,0.1,1,0.7,1.8,0.1c-0.2-0.7-0.4-1.4-0.6-2.2
		c-1.1,0.2-2,0.5-2.9,0.5c-4.9,0-9.8-0.2-14.7-0.3c-0.9,0-2-0.2-2.3-1.3c-0.3-0.8,0.5-1.6,2.1-2c3-0.9,6.1-0.9,9.2-0.8
		c2.1,0.1,4.3,0.1,6.3,1c0.4,0.2,0.8,0.2,1.5,0.4c-1.9-2.4-1.9-2.4-3.9-2.6c-3.6-0.3-7.2-0.3-10.7,0.4c-1,0.2-2.1,0.1-3.2,0.1
		c-0.5,0-0.9-1.1-0.5-1.4c0.6-0.5,1.3-1.1,2.1-1.3c3-1,6-1.4,9.2-1.5c1.2,0,2.4,0.4,3.5-0.3c0-0.4,0-0.8-0.1-1
		c-0.9-1.9-1.4-3.8-1.4-5.9c0-0.9-0.4-1.9-0.8-2.7c-0.5-1.2-1.4-1.8-2.8-1.9c-2.5-0.1-4.7,0.6-6.9,1.6c-1.2,0.5-1.9,1.4-2.2,2.6
		c-0.5,1.7-1.1,3.4-1.7,5.1c-0.4,1.1-0.7,2.3-1.9,2.9c-1,0-1.9-0.1-2.8,0c-1.2,0.1-2.1-0.2-2.9-1c-0.4-0.4-0.8-0.8-1.2-1.2
		c-0.2,0.3-0.4,0.5-0.5,0.7c-0.7,2.9-1.8,5.7-3.2,8.3c-0.4,0.8-0.6,1.8-0.8,2.7c-0.7,3.4-1.3,6.8-1.9,10.2c-0.1,0.5-0.3,1.2,0,1.4
		c1.1,0.9,0.4,2,0.5,3c0,1.1,0,2.1,0,3.1c1.7,1,3.2,1.8,4.6,2.7c0.4,0.8,0.7,1.4,0.9,2.1c0.8,2.3,2.4,3.5,4.7,3.8
		c0.8,0.1,1.6,0.3,2.5,0.4c2.7,0.2,5.5,0.4,8.3,0.6c0.8-0.4,1.6-1.1,2.6-1.4c4.8-1.6,9.7-2.7,14.8-2.5c1.4,0,2.8,0.4,4.2,0.6
		c0.4,0.1,0.6,0.6,1.2,1.1c-3,0.8-5.8,0.1-8.4,0.4c-2.8,0.3-5.7,0.5-8.9,1.8c0.9,0.1,1.3,0.2,1.7,0.2c2.7-0.1,5.5-0.1,8.2-0.2
		c1.7-0.1,3.3-0.2,5-0.4c0.9-0.2,1.8-0.6,2.6-1.1c1.1-0.6,1.3-1.8,0.4-2.7c-0.8-0.8-1.3-1.6-1.8-2.6c-1.7-3.5-3.6-7-5.4-10.6
		c-1.6,1.2-3.3,1.3-5.1,1.2c-1-0.1-1.9,0-2.9,0c-2.6-0.2-5.2-0.4-7.8-0.7c-0.8-0.1-1.6-0.5-2.3-0.9c-0.7-0.5-0.6-1.8,0.3-2
		c1.1-0.3,2.3-0.4,3.5-0.4c2.7,0,5.5,0.1,8.2,0.2c1.2,0,2.4,0.1,3.6,0.1c0.5,0,1.1-0.1,1.9-0.1C205,568.7,204.8,567.7,204.5,566.5z
		 M190.4,271.5c1.2-0.6,0.9-1.6,1-2.3c0.8-6.2,2-12.2,4.4-18c3.2-7.7,6.9-15.2,10.6-22.7c2.7-5.4,3.9-11,2-17
		c-2.1-6.7-4-13.5-6.1-20.2c-0.5-1.7-1.2-3.4-1.8-5c-0.1-0.3-0.4-0.5-0.7-0.9c-0.2,0.7-0.4,1.1-0.6,1.5c-0.8,2.7-1.6,5.5-2.5,8.2
		c-1.8,5-3,10.1-3.8,15.3c-0.4,2.7-0.8,5.4-2.3,7.9c2.6,7.6,2.2,15.3,1.4,23.1c-0.2,1.9-0.5,3.8-0.6,5.7c-0.4,5.4-0.8,10.7-1,16.1
		C190.3,265.8,190.4,268.5,190.4,271.5z M192.9,320.7c1.7,0,3,0.1,4.3,0.1c11.7-0.1,23.4-0.2,35.1-0.3c20.3-0.1,40.6-0.2,60.8-0.4
		c0.8,0,1.6-0.2,2.5-0.3c1.1-2,2-3.9,0.6-6.1c-1.3-0.6-2.6-0.3-3.9-0.3c-17.7,0.1-35.3,0.1-53,0.3c-8.2,0-16.5,0.2-24.7,0.2
		c-6.1,0-12.2,0-18.2,0c-0.9,0-1.9-0.2-3,0.9C193.3,316.4,193.1,318.3,192.9,320.7z M33.8,321.4c1.2,0,1.8,0,2.4,0
		c23.4,0,46.8,0,70.2,0c2,0,3.7-0.5,5.6-1.5c0.2-1.1,0.4-2.3,0.5-3.2c-1.2-1.6-2.5-2.1-4.2-2.1c-7.9,0-15.7,0-23.6-0.1
		c-11.3,0-22.7,0-34,0c-5.2,0-10.5,0-15.7,0c-0.3,0-0.6,0.2-0.9,0.3C34.8,316.9,36.2,318.9,33.8,321.4z M367.7,315.5
		c0.3,2.3-0.7,3.8-2.1,5.3c-1.2,1.2-2.6,1.6-4.2,1.4c-0.2,0-0.5,0-0.7,0c-1.8,0.2-3.7,0.4-5.6,0.6c1.7,2.9,3.4,4.3,6.5,5.5
		c4.6,1.8,9.9-0.7,11.7-5.3c1.2-3.1,1.1-6.2,0.4-9.5c-0.9-3.8-3-6.7-6.2-8.8c-2.6-1.7-5.4-2-8.2-0.5c-1.9,1-3.3,2.7-4.2,4.7
		c-0.3,0.6-0.4,1.3-0.7,2.2c2,0,3.6,0,5.3,0C363,311.1,365.9,312.2,367.7,315.5z M363.3,313.5c-13.5,0-26.5,0-39.5,0
		c-0.5,0-1.1,0.3-1.6,0.4c-0.1,2.1,0.1,4,0.5,6c1.1,0.1,2.2,0.2,3.2,0.2c11.9,0,23.9-0.1,35.8-0.1c0.5,0,1,0,1.4,0
		c1.1,0,1.9-0.5,2.2-1.5c0.3-0.9,0.4-1.9-0.3-2.7C364.6,315,364,314.2,363.3,313.5z M285.2,226.1c-0.6,2.1-0.5,4.2,0,6.3
		c1.4,5.9,2.8,11.8,3.8,17.8c1.3,7.4,2.1,14.9,3.1,22.3c0.4,3.1,0.8,6.1,1.3,9.2c0.4,2.9,1,5.9,1.5,8.8c0.2,1.3,0.2,2.7,1,4.3
		c1.1-2,1.6-3.8,2.2-5.5c-0.4-1.4-0.9-2.6-1-3.9c-1.2-9.1-3-18.1-4.7-27.1c-0.5-2.8-1.2-5.6-1.4-8.5c-0.1-1.5-0.3-2.8-0.8-4.1
		c-1.5-3.9-3-7.8-3.8-11.9C285.9,231.3,285.6,228.7,285.2,226.1z M107.7,323.4c-1.8-0.5-3-0.2-4,1.1c-0.7,0.8-1.5,1.5-2.2,2.3
		c-2.7,3-5,6.4-6.8,10c-0.9,1.7-0.7,3.3,0.3,4.7c1.1,1.7,2.5,3.1,4.7,3.9c1.4-3.8,2-7.6,3.2-11.3C104,330.4,105.8,326.9,107.7,323.4
		z M415.3,320c4.7,0,9.1,0,13.5-0.1c0.1,0,0.2,0,0.4,0c1.5-0.3,2.5-1.3,2.8-2.9c0.2-1-0.4-2.1-1.8-2.8c-0.7-0.3-1.6-0.5-2.4-0.5
		c-3.8,0-7.6,0-11.4,0c-0.5,0-0.9,0.1-1.7,0.3C414.8,315.8,415,317.7,415.3,320z M271,322.8c-7,0-14,0-21,0c-1,0-2.1,0.5-3,1
		c-1.5,0.9-1.8,1.9-1.2,3.6c0.3,0.9,0.6,1.7,0.9,2.4c5.4-1.4,10.5-2.8,15.7-4.2c0.3-0.1,0.7-0.2,1-0.3
		C265.8,324.3,268.4,323.6,271,322.8z M116.2,340.8c-0.6-4.1-1-8-3.2-11.4c-0.8-1.3-1.3-2.8-1.9-4.2c-0.2-0.5-0.4-1.1-0.7-1.6
		c-0.1-0.2-0.4-0.3-0.6-0.3c-0.3,0.1-0.7,0.3-0.8,0.6c-0.1,0.4-0.1,0.9,0,1.4c0.2,0.9,0.6,1.8,0.7,2.7c0.6,5.1,1,10.2,1.6,15.2
		c0.1,0.7,0.2,1.4,0.3,2.1c0.2,1,0.9,1.4,1.7,1.5c0.8,0.2,1.6-0.3,1.9-1.3C115.7,343.8,115.9,342.2,116.2,340.8z M112.9,325.7
		c0.5,0,0.9,0,1.2,0c0.3-0.1,0.7-0.2,1-0.4c1.9-1.1,4-5,4-7.2c-0.1-4.3-3.2-6.9-6.1-7.9c-0.9-0.3-1.9-0.4-2.8,0
		c-1.2,0.5-2.5,0.8-3.3,2.3c1,0.1,1.8,0.1,2.6,0.2c2.7,0.2,5.6,2.1,4.8,6c-0.3,1.4-0.7,2.5-1.9,3.2c-0.4,0.2-0.8,0.5-1.3,0.7
		C111.9,324,112.4,324.9,112.9,325.7z M237.5,328.3c0.3-0.1,0.5-0.2,0.6-0.2c0.5-0.5,1-1,1.4-1.5c0.5-0.7,0.7-1.5,1.2-2.2
		c0.3-0.5,1.5-0.3,1-1.3c-5.8,0-11.6,0-17.3,0C228.5,325.3,232.7,327.4,237.5,328.3z M30.9,314.8c-1.4,0.5-2.1,1.3-2.5,2.3
		c-0.5,1-0.1,1.8,0.4,2.7c0.5,0.8,1.3,1,2.2,0.7c0.7-0.2,1.3-0.5,1.9-0.7C33.6,317.5,32.7,316,30.9,314.8z M165.6,314.7
		c-2.5-0.6-2.5-0.6-4.2,0.1c0.2,1.8,0.3,3.7,0.5,5.5c0,0.1,0.2,0.1,0.4,0.3c0.4,0,1,0,1.7,0C164.5,318.7,165,316.8,165.6,314.7z
		 M223.4,85.5c0,3,0.7,4.5,2.5,5.3C225,88.9,224.3,87.4,223.4,85.5z M225.4,66c-0.6,0.9-0.2,1.6,0.1,2.6
		C226.4,66.8,226.4,66.8,225.4,66z M321.5,559.9c-0.5-0.9-0.9-1-1.4,0C320.5,559.9,320.9,559.9,321.5,559.9z M239.5,18.5
		c0,0,0-0.1,0-0.1c-0.3,0-0.5,0-0.8,0c0,0,0,0.1,0,0.1C239,18.5,239.3,18.5,239.5,18.5z M111.9,260.1l0-0.1l-0.3,0L111.9,260.1z"/>
	<path d="M697.3,21.6c-0.7-0.7-1.4-1.4-2.2-2.1c-0.5-0.4-1-0.9-1.4-1.3c-0.9,0.8,0.1,1.4,0,2l0.1-0.1c-0.5,0-1,0-1.5,0l0.1,0.1
		c-0.3-0.3-0.6-0.6-0.8-0.8l0.1,0.1c-0.5-0.5-1.1-0.7-1.6,0l0.1-0.1c-0.4-0.4-0.8-0.8-1.3-1.2c-0.4-0.3-1.2-0.3-1.3-1.2
		c0.9,0.1,1.7,0.1,2.6,0.2c0.1,0.2-0.1,0.7,0.4,0.3c-0.2-0.1-0.3-0.1-0.5-0.2c-0.1-0.3-0.2-0.7-0.4-0.9c-1.1-1.1-2.6-1.6-4.1-1.9
		c-1.6-0.3-3.2-0.5-4.9-0.7c-0.5-0.1-1,0.1-1.9,0.1c1.9,1.5,4.4,1.2,5.9,2.8c-0.5,0.2-0.8,0.4-1.1,0.5c-0.1-0.2-0.2-0.4-0.3-0.5
		c-0.1-0.1-0.3,0.1-0.5,0.2c0.1,0.1,0.2,0.1,0.3,0.2c0.2,0,0.4,0,0.6,0.1c1.8,1.2,3.7,2.1,5.5,3.3c0.5,0.3,1.1,0.3,1.7,0.4l-0.1-0.1
		c0.3,0.3,0.6,0.6,0.9,0.8l-0.1-0.1c-0.6,0.4-1.2,0.7-1.9,1.2c-1.3-0.8-2.7-1.6-4.3-0.4c-0.9-0.4-1.7-0.8-2.6-1.2
		c-1.4-0.5-2.7-1.6-4.4-0.6c-2.4-0.5-4.9-0.9-7.3-1.5c-2.6-0.7-5.4-0.6-8-1.3c-1-0.3-1.8,0.5-2.1,1.5c1.1,0.7,2.2,1.3,3.6,2.2
		c-2.4,0.6-3.9-2-6.2-1c0.3,0.8,0.6,1.4,0.9,2.1l0.1-0.1c-0.3-0.1-0.7,0-1-0.2c-0.7-0.5-1.3-0.3-1.9,0.2l0.1-0.1
		c-1.8,1.4-2.9,3.3-3.7,5.2c0.3,1.4,2,1.4,2.1,2.8l0.1-0.1c-0.9-0.2-1.8-0.4-2.6-0.7c-1.1,2.2-1.2,2.8,0.2,4
		c1.2,1.1,2.5,2.1,3.8,3.1l0.1-0.1c-1.9,0.2-3.2-1.4-5-1.9c0,0.9,0,1.7,0,2.5c1.2,0.8,2.2,1.5,3.3,2.2c0.3,0.2,0.6,0.6,0.8,0.9
		l0.1-0.1c-1.6,0.4-2.5-1.2-4-1.3c-0.6,1.2-0.2,2.2,0.9,2.7c1.8,0.9,3.8,1.6,5.8,1.6c2.4-0.1,4.7-0.4,6.5-2.3c0.3,0,0.6-0.1,0.4-0.1
		c0.2-0.1,0,0-0.3,0.1c-2,0.3-4,0.7-5.9,1c-0.5,0.1-0.9-0.1-0.9-0.7c2.3-0.7,4.8-0.8,7.5-2.2c-3.5-0.1-6.4-0.3-9.5-0.4
		c0.4-0.6,0.7-0.9,1-1.3l-0.1,0.1c0.9,0.4,1.8,0.6,2.8,0.3c1.1-0.3,2.3-0.1,3.5-1.1c-1.2-0.9-2.5-0.6-3.5-0.9
		c-1.1-0.3-2.3-0.5-3.8-0.8c4-0.8,7.7-1.6,11.8-2.4c-1.5,1.7-3.6,1.5-5.4,2.5c2.1,0.5,3.8,0.8,5.6-0.2c0.2,0.5,0.5,0.8,0.7,1.2
		c-0.5,0.2-1,0.4-1.5,0.7c-0.5,0.1-1,0.1-1.8,0.3c1,0.6,1.6,0.7,1.7-0.3c0.5-0.2,1-0.4,1.5-0.7c0.5,0,1,0,1.4,0L670,36
		c0.5,1.4-1,1.9-1.5,3.2c0.7,0,1.3,0,2,0c-0.4,1.3-1.9,1.6-2.6,2.9c0.6,0,1,0,1.6,0c-0.5,1.3-1.6,1.9-2.6,2.2
		c-4,1.5-8.2,2.2-12.6,2.3c0-1.2,0.8-1.1,1.4-1.2c1.9-0.3,3.8-0.6,5.7-0.7c2.1-0.2,3.7-1.2,6.1-2.1c-2-0.3-3.1,0.5-4.4,0.8
		c-0.8,0.2-1.6,0.5-2.4,0.7c-3.4,0.5-4.5,0.4-8.4-1.1c0,0.7-0.4,1.6-0.1,2.1c0.7,1.5,0.3,3.4,1.8,4.7c2-0.8,4.2-1.2,6.4-1.5
		c2.3-0.3,4.4-1.2,6.2-2.6c0.8,0.6,0.3,1.1-0.1,1.4c-1.3,1.2-2.8,1.8-4.5,2c-0.9,0.1-1.9,0.2-2.8,0.6c1.1,0.1,2.3,0.3,3.4,0.3
		c1.2,0,2.3-0.3,3.4-0.4c0.5,0.6,0.1,1-0.3,1.1c-1,0.4-2,0.6-3,0.9c0.3,0.7,1.5,0.5,1.7,1.6c0.1,0.5,1,0.9,1.6,1.4
		c-0.1,0.6-0.5,0.7-1.2,0.6c-1.3-0.2-2.5-0.3-3.7-0.5c-1,1,0.2,1.4,0.1,2.1c-0.3,1.6,0.4,2.7,1.5,3.7c1.1,1,0.9,2.1-0.1,3.1
		c-0.5-0.6-1.6-0.7-1.4-1.8c0.1-0.3-0.1-0.8-0.3-0.9c-2-0.9-1.6-2.3-1-3.9c0-0.1,0-0.2-0.1-0.5c-1.1-0.3-1.5,1.6-2.7,1.1
		c-0.9-1.2,1.2-1.9,0.7-3.1c-0.4-0.4-0.8-0.5-1.1,0c-0.4,0.7-0.8,1.3-1.4,2.4c-0.6-2.1,0.1-3.4,0.6-5c0.9,0.2,1.7,0.3,3,0.5
		c-1-0.9-1.6-1.4-2.2-1.9c-2.1,1.3-2.7,3.1-2.4,5.3c0.5,3.3,2.4,5.9,4.7,8.2c0.9,0.8,1.9,1.4,2.9,2.1c0.9,0.7,1.9,0.9,3,0.2
		c0.1-0.1,0.4,0.1,0.7,0.2c-0.3,0.4-0.5,0.8-0.7,1.2l0.1-0.1c-0.7,0.1-1.4,0.2-2,0.3c0.3,2.8,0.6,5.4,0.7,8c0.1,2.3,0,4.5,0,6.8
		c0,6.6-2.1,12.4-7,17.2c0.4,1.6,0.9,3.2,1.3,4.8c0.8,0.3,1.6,0.6,2.6,1c1.1,1.9,2.2,4,3.5,6.2c11.8,0.5,23.7,1,35.7,1.5
		c0.4,0,0.9-0.1,1.4-0.2c-0.6-2-1.1-3.8-1.8-5.6c-0.3-0.8-0.9-1.7-1.6-2.3c-3.7-2.9-4.9-6.9-4.9-11.4c0-2.1,0.3-4.3,0.5-6.4
		c0.2-1.3,0.5-1.5,2.1-1.8c0.1,0.2,0.3,0.4,0.3,0.6c-0.7,2.7-0.4,5.5-0.6,8.2c-0.2,2.3,0.6,4.5,1.5,6.5c0.3,0.6,0.8,1.1,1.4,1.6
		c2.4,2,4.7,4,7.2,5.9c4.2,3.3,8.8,5.5,14.4,5.6c5.4,0.1,10.7,0.4,16.1,0.7c1.1,0,2.1,0,3.2,0c0.5-0.8,1-1.5,1.3-2.3
		c0.6-1.3,1.6-2.3,2.9-3c2.4-1.4,2.4-1.4,5.1-0.1c1.6-0.1,3.3-0.7,4.7-0.2c1.5,0.5,2.7,0.4,4.1,0c1.4-0.4,2.6,0,3.6,1
		c0.5,0.5,1,1,1.6,1.7c1.3-0.3,2.8-0.8,3.9,0.5c0.8,1,1.4,2.2,2.1,3.4c0.4,0.1,0.8,0.3,1.3,0.3c1.3,0,2.6,0,4.1,0
		c0.1-0.5,0.3-1.1,0.3-1.6c0.8-7.4,3.2-14.2,7.2-20.4c0.4-0.7,0.9-1.4,1.4-2.1c1-1.5,2.1-2.8,3.6-3.9c1.6-1.2,3-2.7,4.6-4
		c2-1.7,3.9-3.6,6.2-4.8c2.3-1.2,4.9-1.8,7.5-2.2c3.3-0.6,6.6-0.9,10-1.2c2.4-0.2,4.8,0,7.1,0.6c1.5,0.4,3,0.7,4.5,1
		c8,1.6,14.6,5.8,20.2,11.6c4,4.1,7,8.8,9.4,13.9c2.2,4.7,3.6,9.6,4.6,14.7c0.2,0.9,0.4,1.8,0.6,2.9c1.3,0.1,2.5,0.2,3.7,0.2
		c3.5,0.1,6.9,0.1,10.4,0.3c3.6,0.1,6,4.6,4.1,7.6c-0.5,0.8-1.1,1.5-1.8,2.4c-2.6,0.3-5.3-0.2-8.1-0.2c-2.6,0-5.2,0-8.1,0
		c-0.3,1.7-0.5,3.3-0.8,4.9c-0.9,7-3.2,13.5-6.7,19.5c-3.9,6.6-9.4,11.8-16.4,15c-3.2,1.5-6.7,2.5-10.4,2.6c-2.2,0-4.3,0.1-6.5,0.1
		c-0.4,0-0.7,0-1.1,0c-5.3-0.9-10.7-1.1-15.9-2.5c-4.7-1.2-8.8-3.7-12.6-6.6c-2.8-2.1-5.5-4.3-7.5-7.1c-3.6-2.6-5.2-6.4-6.5-10.5
		c-0.2-0.6-0.4-1.1-0.7-1.7c-2.3-4.7-3-9.8-3.2-15c0-0.7-0.1-1.4-0.1-2c-1.2-0.7-2.2-0.6-3.4-0.2c-0.4,2.9-0.9,5.8-1.2,8.8
		c-0.1,2-0.5,3.8-1.4,5.5c-1.2,2.3-1.6,4.7-1.4,7.3c0.1,1.3-0.1,2.6-0.2,3.9c-0.1,2-0.2,4.1-0.3,6.1c-0.2,3.5-0.3,6.9-0.5,10.4
		c-0.1,1.2-0.1,2.4,0,3.6c0.3,5.1,0.6,10.3,1,15.4c0.3,3.9-0.1,7.7-1.7,11.2c-1.4,3.2-3,6.3-4.6,9.3c-1.1,2.1-2.4,4.1-3.2,6.4
		c-0.4,1.2-1.1,2.4-1.7,3.6c-0.8,1.7-1.7,3.4-2.8,5.4c-1.1,0.9-2.8,1-4.4,1c-1.5,0.1-3.1,0.9-4.4-0.6c-0.2-0.2-0.7-0.2-1-0.1
		c-2.5,0.3-4.4-0.9-6.3-2.2c-4-2.8-7-6.4-8.7-11.1c-2.1-5.7-3.3-11.5-4-17.4c0-0.4-0.1-0.7-0.2-1c-0.8,0-1,0.7-1,1.2
		c0,1.6-0.7,3-1.3,4.4c-0.8,1.6-1.3,3.3-1.1,5.2c0.1,0.8-0.1,1.7-0.3,2.4c-0.9,3.1-1,6.4-0.8,9.6c0.2,2.6,0.6,5.2,0.8,7.8
		c0,0.2,0.1,0.5,0.1,0.7c-0.1,6.8,1.9,13.2,3.4,19.7c1.2,5.1,1.9,10.3,2.6,15.5c0.6,4.5,1.2,9,1.8,13.5c0.5,3.8,0.8,7.6,1.1,11.4
		c0.1,0.7,0.3,1.4,0.5,2.1c0.4,1.4,1,2.7,1.3,4.1c1.4,5.3,2.7,10.7,4,16c0.9,3.7,1.5,7.5,1.4,11.3c-0.1,1.4,0.2,2.9,0.4,4.3
		c0.5,3.8,0.4,7.6,0,11.4c-0.4,3.2-0.8,6.4,0.1,9.6c0.1,0.4,0.1,0.9,0.1,1.4c0.1,10.3,0.2,20.5,0.2,30.8c0,3-0.4,5.9-0.9,8.9
		c-1.2,6.6-1.7,13.3-1.6,20c0.1,6.1,0.3,12.2-0.2,18.3c-0.3,3.8,0.1,7.6,1.1,11.3c1.7,6.6,2.6,13.4,3.8,20.1c0.6,3.3,0.7,6.7,0.6,10
		c-0.1,3.7-0.6,7.4-0.5,11.1c0.1,4.8-0.2,9.5-0.4,14.3c-0.3,8.1-0.8,16.2-0.9,24.3c-0.1,4.9,0.3,9.8,0.5,14.7
		c0.1,1.5,0.7,2.1,2.2,2.3c0.7,0.1,1.4,0,2.1,0.1c2,0.2,2.8,1,2.7,3c-0.2,2.2,0.6,4,1.5,5.8c0.3,0.5,0.5,1.1,0.8,1.6
		c3.3,3.7,5.2,8.2,8,12.3c1.1,1.6,2.2,3.1,3.8,4.2c0.7,0.5,1.2,1.2,1.8,1.8c1.3,1.2,2.5,2.6,4,3.6c3.5,2.5,5.2,5.8,5.4,10
		c0.1,1.4,0.4,2.8,0.7,4.2c0.2,0.9-0.1,1.7-0.7,2.3c-1.7,1.6-3.7,2.6-6,2.9c-6,0.9-12.1,1.2-18.2,0.7c-0.8-0.1-1.7-0.3-2.4-0.7
		c-1.5-0.9-3.1-1.2-4.7-1.6c-2.1-0.5-4.1-1.3-6.2-1.9c-2.4-0.6-3.7-2.1-3.7-4.8c-2.3-0.5-4.6-1.1-6.9-1.6c-2.2-0.5-4.4-1-6.6-1.5
		c-1.7-0.4-3.5-0.7-4.4-2.6c-0.1-0.2-0.7-0.2-0.9-0.4c-0.3-0.2-0.5-0.5-0.9-0.9c0.6-3.2,1.2-6.5,2-9.7c0.4-1.6,1.2-3.1,1.9-4.6
		c0.6-1.2,1-2.4,0.9-3.8c-0.2-3.3,0.8-6.4,1.9-9.4c0.3-0.9,0.6-1.7,0.5-2.8c-0.6-4.5-0.8-9.1-1.7-13.5c-0.8-3.9-1.1-8.1-3.2-11.7
		c-0.2-0.4-0.3-0.9-0.4-1.4c-1.5-5.3-2.8-10.6-4.4-15.9c-0.9-3.1-2-6.1-3.8-8.8c-0.6-0.9-1-1.9-1.2-3c-1-3.7-2-7.4-2.8-11.1
		c-1.3-5.9-1.6-11.8-0.1-17.7c0.6-2.3,0.7-4.8,1.4-7c1.4-4.6,1.3-9.1,0.1-13.7c-1.1-4.3-2.1-8.6-3-12.9c-0.3-1.4-0.2-2.8-0.3-4.3
		c0-0.8,0.1-1.7,0.1-2.5c-0.5-6.2-0.8-12.4-1.6-18.6c-0.5-3.9-1.7-7.7-2.8-11.5c-1.9-7-4.3-13.9-6.8-20.8c-1.4-3.9-2.3-8-3.4-12.1
		c-1.2-4.6-2.5-9.2-3.6-13.9c-0.4-1.5-0.6-3.1-0.7-4.6c-0.1-1.4,0-2.8-0.2-4.3c-0.7,2.3-1.5,4.5-1.4,6.9c0,0.7-0.3,1.4-0.5,2.1
		c-1.1,3.6-2.1,7.3-3.5,10.9c-1.9,5.2-3,10.6-4.2,15.9c-2.4,10.5-4.8,20.9-7.1,31.4c-0.8,3.8-1.5,7.7-2.2,11.6
		c-0.4,2.7-0.9,5.4-2.5,7.8c-0.6,0.9-0.9,1.9-1.2,3c-1.5,5-3,10.1-4.5,15.1c-0.8,2.8-0.8,5.6-0.3,8.5c0.9,5.5,0.8,11,0.2,16.4
		c-0.7,6.2-1.7,12.3-3.2,18.3c-0.9,3.5-2,6.9-3.5,10.2c-0.4,1-0.9,2-1.2,3c-1.2,4.8-2.3,9.5-3.4,14.3c-0.9,4.2-1.7,8.4-2.6,12.6
		c-0.2,1.1-0.4,2.1-0.5,3.2c-0.5,4.6-0.9,9.3-1.4,13.9c-0.2,1.9-0.6,3.8-0.9,5.8c0.6,0.9,1.2,1.8,1.2,3.1c-0.1,3.6,1,7,2.3,10.4
		c1.1,2.6,2,5.4,3.2,8c0.7,1.6,1.2,3.4,1.4,5.2c0.6,4.3,2.1,8.3,4.1,12.2c1.1,2.1,2.1,4.3,3.1,6.4c0.8,1.8,1.2,3.6,0.5,5.7
		c-1.7,1.7-3.9,2.4-6.3,2.7c-1.4,0.1-2.9,0.1-4.3,0.1c-2.5,0-5,0-7.5,0.4c-3.4,0.5-6.9,0.1-10.3-0.7c-1.5-0.4-3-0.5-4.6-0.5
		c-1.3,0-2.6-0.2-3.9-0.4c-2.8-0.5-4.8-2.1-5.8-4.7c-0.3-0.8-0.6-1.6-0.9-2.4c-1.9-0.5-3.9-0.3-5.5-1.9c-0.3-2.2-1.2-4.5-0.8-6.9
		c0.1-0.6,0.1-1.2,0.3-1.8c1.2-3.8,1.4-7.7,2.2-11.6c0.3-1.3,0.6-2.6,1.3-3.7c1.6-3,2.8-6,3.5-9.4c0.3-1.8,0.9-3.5,1.4-5.2
		c0.6-2.1,1.8-3.9,4.1-4.6c0.8-1.8,0.9-3.7,0.7-5.7c-0.6-5-1.1-10-1.8-14.9c-0.6-4.5-1.5-8.9-1.6-13.5c-0.1-4.8-0.7-9.5-1.1-14.3
		c-0.2-2.3,0-4.5,0.2-6.8c0.3-4.5,0.3-9.1,0.3-13.6c0-2.7-0.1-5.5-0.2-8.2c0-2.3,0-4.5,0.5-6.8c0.3-1.3,0.2-2.6,0.4-3.9
		c0.2-1.6,0.1-3.3,1.7-4.5c0.4-0.3,0.5-1,0.7-1.6c0.6-2.3,1.8-4.4,1.6-6.9c0-0.7,0.4-1.3,0.7-2c1.9-5.2,3.3-10.5,4.2-15.9
		c0.1-0.4,0.2-0.7,0.2-1.1c-0.1-5.1,1.3-9.9,2-14.9c0.3-2.4,0.5-4.8,0.5-7.1c-0.1-7.4-0.1-14.8-0.5-22.2c-0.3-5.3-0.3-10.5,0-15.7
		c0.3-4.9-0.2-9.8-0.7-14.6c-0.1-0.8-0.2-1.7-0.2-2.5c-0.1-5.1-0.2-10.3-0.4-15.4c-0.1-6.3-0.3-12.7-0.1-19c0.4-9.7,1-19.3,3-28.8
		c0.3-1.6,0.7-3.3,1.2-4.9c1.4-4.4,2.6-8.9,3.6-13.5c1.2-5.3,3.2-10.3,5.3-15.2c1.3-3,2.9-5.8,4.3-8.7c1.6-3.1,3.2-6.1,4.7-9.3
		c1.5-3.2,2.3-6.5,2.5-10c0.1-0.9-0.1-1.8-0.3-3.2c-0.6,0.6-1,0.8-1.2,1.2c-0.9,1.4-1.7,2.9-2.6,4.3c-0.4,0.6-0.9,1.1-1.8,1
		c-0.4-1,0-1.8,0.4-2.7c0.9-1.8,1.9-3.6,2.6-5.5c0.9-2.2,1.5-4.5,2.2-6.8c0.8-2.6,1.5-5.3,2.2-7.9c0.2-0.9,0.3-1.9,0.2-2.8
		c-0.3-3-0.6-5.9-1-8.9c-0.8-7.7-2-15.4-1.8-23.2c0.1-2.7,0-5.5-0.2-8.2c-0.3-4.4,0.1-8.8,1-13.2c0.2-0.8,0.5-1.6,0.6-1.9
		c1.4-1,2.5-1.8,3.5-2.6c2-1.5,4-3,6.5-3.7c0.9-0.2,1.8-0.7,2.7-1c1-0.4,1.8-1.1,2.2-2.2c0.6-1.9,1.8-3.3,3.2-4.7
		c1.6-1.6,2.9-3.5,4.2-5.2c-1.2-3-3.2-4.9-5.8-6.3c-1.2,1.3-1.4,2.8-1.8,4.2c0.9,1.4,1.7,2.6,2.5,3.8c-1,1-1.7-0.3-2.5,0.1
		c-1,0.9-1.6,2.3-3.1,2.3c-0.3-0.5-0.4-1.1-0.6-1.2c-1.3-0.3-2.5-0.6-3.8-0.7c-5.1-0.3-10.3-0.6-15.4-0.8c-2.5-0.1-5-0.3-7.3,0.3
		c-0.1,1.5-0.6,2.9-0.2,4c1.1,3.3,0.8,6.6,0,9.9c-0.2,0.9-0.3,1.9-0.4,2.8c-0.2,2.7-0.2,5.5-0.7,8.2c-0.9,5.1-1.5,10.2-2.3,15.2
		c-0.2,1.5-0.7,3.1-1.4,4.4c-1.2,2.3-2.6,4.6-4.1,6.7c-1,1.5-1.8,3.1-2.3,4.8c-0.4,1.5-0.6,3-1,4.5c-0.2,0.9-0.5,1.8-0.9,3.1
		c-0.6-2.8-0.6-3.9-0.1-6.1c0.7-3,1.9-5.9,3.6-8.5c2.4-3.9,4.5-7.9,5.1-12.5c1-7.6,2.6-15.1,3.1-22.7c0.1-1.9,0.3-3.9-0.3-5.7
		c-0.7-2.5-0.4-4.9-0.4-7.4c0-0.2-0.2-0.4-0.3-0.8c-2.8-0.3-5.6-0.6-8.4-0.9c-0.9-0.1-1.6,0.2-2.2,0.9c-2.5,2.6-4.7,5.5-5.2,9.2
		c-0.7,4.6-1.6,9.1-1.8,13.8c-0.2,5.6,0.5,10.9,3.4,15.8c2.6,4.4,2.9,9.5,2.7,14.6c0,0.9-0.3,2-0.9,2.6c-0.8,0.8-0.9,1.6-1,2.6
		c-0.4,3.6-0.7,7.1-1.1,10.7c-0.9,7-0.3,8.9,4.3,14.4c1.2,1.5,2.6,2.8,2.7,4.9c0,0.5,0.6,1,0.9,1.5c0.5,0.8,1.2,1.5,1.6,2.4
		c0.9,1.8,2.3,2.9,3.9,4.1c2,1.4,4,2,6.3,2c2.3,0,4.5,0.1,6.8,0.1c-0.2,1.4-0.8,2.2-2.3,2.2c-1.9,0-3.8,0.1-5.7,0
		c-2.2-0.1-4.1-0.9-5.9-2.2c-2.5-1.9-4.6-4-6-6.9c-1.3-2.7-2.8-5.2-4.8-7.5c-2.2-2.5-3.2-5.6-3.4-8.9c-0.1-3-0.2-6-0.2-9
		c0-1.8-0.1-3.5,0.8-5.2c0.5-0.9,0.4-2.1,0.5-3.2c0.5-4,0.7-8.1,0.5-12.2c-0.1-2.3-0.7-4.4-1.9-6.5c-2-3.5-2.8-7.3-3.7-11.2
		c-0.1-0.4-0.1-1.1,0.2-1.4c0.9-1.1,0.7-2.2,0.6-3.4c-0.1-2.9-0.3-5.7-0.2-8.6c0.2-4.5,1.7-8.6,4.2-12.4c0.6-1,1.7-1.7,1.8-3.1
		c-1.7-0.3-3.3-0.5-5.1,0c-0.4,2.2-0.8,4.4-1.1,6.7c-1.7,11.4-5.7,21.7-13.2,30.5c-5.7,6.7-12.7,11.4-21.7,13
		c-7.3,1.2-14.5,0.6-21.6-1.4c-2.8-0.8-5.5-1.5-8.2-2.6c-6.6-2.7-11.7-7.3-16.1-12.8c-4.2-5.3-7.3-11.2-9.5-17.6
		c-1.8-5.3-3.2-10.8-3.8-16.4c-0.1-1.3,0-2.6-0.8-4c-5.9-0.8-12.1-0.4-18.1-0.9c-5.9-0.5-11.9,0-18.1-1.4c-0.5-0.7-1.2-1.5-1.8-2.4
		c-1.5-2.4-1-4.5,1.2-6.2c1.5-1.1,3-1.5,5-1.3c4,0.5,8.1,0.5,12.2,0.7c5.7,0.3,11.5,0.5,17.2,0.7c0.8,0,1.7,0,2.7,0
		c0.2-0.7,0.5-1.4,0.5-2c0.6-8.8,3.1-17.1,6.8-25.1c1-2,2.1-4,3.4-5.9c4-5.8,8.7-10.7,14.9-14.3c2.9-1.7,6.1-2.8,9.4-3.4
		c9.8-1.7,19.5-1.2,29,2.2c5.4,1.9,10,5.2,14,9.1c7.9,7.8,12.5,17.4,15.4,27.9c1,3.8,1.4,7.7,2.1,11.6c0.2,0.9,0.3,1.9,0.5,2.7
		c3.5,1.1,16.4,1.8,22.6,1.2c1.8-2.6,4.1-4.5,7.5-4.9c0.7-0.1,1.4-0.4,2-0.7c0.9-0.5,1.8-0.6,2.8-0.6c2.8,0.1,5.4-0.5,7.7-2.2
		c0.5-0.4,1-0.7,1.5-0.9c3.2-1.4,4.9-4.1,6.3-7.1c-2.7-4.7-3.4-9.8-3.7-15c0.5-0.2,0.8-0.3,1.2-0.5c-1-5.3-3-10.5-3.3-16.4
		c0.5,0.5,0.9,0.7,0.9,0.9c1,4.7,1.9,9.3,3.1,14c0.6,2.3,1.1,4.6,1.7,6.9c0.2,0.7,0.5,1.3,1.2,1.8c0-0.6,0.1-1.1,0-1.7
		c-1-5.6-2.1-11.3-3.1-16.9c-0.2-1.1-0.4-2.1-0.3-3.2c0.1-1.4-0.3-2.5-1.1-3.7c-2.7-4.4-2.7-4.5-1.1-9.4c-0.8-1.2-1.7-2.5-2.8-4
		c-0.3,0.5-0.5,0.8-0.6,1.2c-0.4,3.3-0.6,6.6-0.2,10c0.6,4.9,1,9.7,1.5,14.6c0.4,4,1.4,8,2.4,11.9c0.1,0.5,0.2,1.1,0.1,1.7
		c-2.4-4.5-3.3-9.4-4-14.3c-0.3-1.9-0.4-3.8-0.6-5.7c-0.1-0.8-0.2-1.7-0.5-2.4c-0.7-1.6-0.9-3.2-0.8-4.9c0.2-2.8,0.3-5.7,0.7-8.5
		c0.9-6.4,1-12.9-0.1-19.3c-0.7-3.9-0.3-7.9,0-11.8c0.2-3.5,2.1-6,5.3-7.5c4.4-2.1,8.8-2,13,0.5c0.3,0.2,0.6,0.4,0.9,0.6
		c0.2,0.1,0.4,0.2,0.9,0.4c2.9-1,6.1-0.8,9.3-1c7.1-0.3,13.7,1.8,19.9,5c1,0.5,1.7,1.2,2.4,2.1c4,5.2,6.4,11.1,8,17.5
		c0.1,0.6,0.2,1.2,0.4,1.7c0.7,1.3,0.6,2.5,0.3,3.8c-0.7,3-0.1,5.9,0.8,8.8c2,6.5,1.9,12.9-0.6,19.3c-0.9,2.2-1.3,4.6-1.9,6.9
		c-0.8,3-1.5,5.5-3.5,7.5c-1.9,0.4-3.9,1.4-6.1,1c-0.2-0.8,0.3-0.9,0.7-1c0.4-0.1,0.7-0.1,1.1-0.1c3.4-0.1,5.1-2.2,6-5.2
		c0.2-0.7,0.4-1.4,0.5-2.1c0.8-3.1,1.6-6.2,2.4-9.4c0.4-1.5,0.8-3,1-4.5c0.7-4.6,0.3-9-1.3-13.4c-0.4-1.1-0.7-2.3-1.1-3.7
		c-0.7,0.6-0.8,1.5-1.3,2c-0.5,0.5-1.1,0.8-1.5,1.2c-1.9-0.5-1.9-2.8-3.6-3.3c1.5-2.4,4.1-1.6,6.3-2.3c0.3-1.3,0.6-2.5,0.8-3.7
		c-1.1-1-2.1-0.8-3.2-0.5c-0.9,0.2-1.8,0.7-2.7,0.8c-0.7,0.1-1.4-0.1-1.7-1.1c2-1.3,4.5-1.1,7-1.6c-1.8-4.3-3-8.7-5.2-12.7
		c-1-1.9-2.3-3.6-4.1-4.8C697.6,21.1,697.4,21.4,697.3,21.6L697.3,21.6z M665,13.1c0-0.1-0.1-0.2-0.1-0.3c0,0-0.1,0-0.2,0
		C664.9,12.9,665,12.9,665,13.1c0.2,0.2,0.3,0.5,0.4,0.7c0,0,0.4-0.1,0.6-0.2c-0.1-0.2-0.2-0.4-0.4-0.4
		C665.5,13,665.3,13.1,665,13.1z M678,15.9c0.4,0.7,0.9,0.9,1.9,0.1C679,16,678.5,16,678,15.9c-0.8-1.1-1.9-0.6-2.9-0.6
		c-0.1-0.1-0.1-0.2-0.2-0.3c-3.3-0.9-6.9-0.4-10.1,1.5c1.4,1.2,2.8,1,4.4,0.5c1-0.3,2.2-0.3,3-0.9c1-0.6,1.8-1,3-1
		C675.9,16.2,676.9,15.9,678,15.9z M819.2,114.9c0.1-1.4-1.1-1.9-2-2.5C817.6,113.4,818.1,114.4,819.2,114.9
		c0.6,2.1,1.4,4.2,1.8,6.4c0.7,4.2,0.2,8.3-2.8,11.6c-0.1,0.2,0,0.6,0,1c0.4-0.2,0.9-0.3,1.1-0.5c1.1-1.5,2.2-3.1,3.1-4.7
		c0.3-0.5,0.4-1.1,0.4-1.7c0.1-4-0.5-7.8-2.5-11.3C820,115.4,819.5,115.2,819.2,114.9z M657.2,18.8c1.2,0,1.9-0.7,2.5-1.7
		c-1.1-1.1-1.2-1.3-1-1.5c0.8,0.1,1.6,0.1,2.6,0.2c-0.7-1.7-2.1-1.8-3.2-2.4c-1.3-0.7-2.5-0.5-3.8,0.2c-1.9,1-3.1,2.5-3.8,4.5
		c-1,3-0.9,6.1-1.2,9.1c-0.1,0.7-0.1,1.5,0.3,2.4c1.1-2.3,2.1-4.3,3-6.4c0.5-1,1.1-1.8,2.2-2.2c1.2-0.4,2.1-1.2,2.5-2.4L657.2,18.8z
		 M744.6,127.7L744.6,127.7c0.7-0.5,1.2-1,1.8-1.5c1.8-1.5,2.5-3.5,2.4-5.7c0-0.7-0.1-1.4-1.1-1.6c-1.6,0.9-3.1,1.9-5,2.5
		c-1.6,0.5-3,1.4-3.8,2.7c0,2.9,0,5.5,0,7.9c1,1,1.8,1.9,2.6,2.8c2.2,2.3,4.4,4.7,7.4,6.1c0.6,0.3,1.1,0.9,1.6,1.3
		c0.1,0.1-0.1,0.3-0.1,0.6c-0.6-0.2-1.3-0.3-1.9-0.5c-0.1,0.4-0.3,0.6-0.2,0.8c0.7,2.7,0.3,5.4-0.1,8.2c-1.4,9.2-3.8,18.2-7.3,26.9
		c-0.7,1.8-1.7,3.4-2.8,5c-3.4,5.3-6.4,10.6-6.5,17.1c0,0.3-0.2,0.7-0.4,1.3c-0.4-0.5-0.8-0.8-0.9-1.1c-0.1-1.4-0.3-2.9,0-4.3
		c1.1-4.7,2.5-9.3,5.3-13.2c2-2.9,3.3-6.1,4.4-9.3c1-2.8,1.9-5.6,2.8-8.2c-0.5-1.6-1.2-2.9-1.3-4.3c-0.2-2.4-0.2-4.8,0.1-7.1
		c0.3-2.3,0.4-4.5,0.1-6.7c-0.2-1.2-0.2-2.4-0.3-3.6c-0.2-4-0.8-7.9-3.9-10.6c-0.3-2.6,0.1-5.1-1.9-7c-2.8-0.6-5.6-0.3-8.5-0.4
		c-2.4-0.1-4.8,0.2-7.1-0.6c-0.4-0.1-0.9,0.1-1.6,0.1c0.4,0.9,0.7,1.7,1.1,2.3c1.5,2.4,3.1,4.8,4.6,7.3c1,1.6,1.9,3.3,2.7,5
		c0.7,1.4,1.6,2.8,3,4.2c-0.2-2.3-0.4-4.2-0.5-6.1l-0.1,0.1c1.7,1.5,2.4,3.6,2,5.7c-0.4,2.2,0,4,1.1,5.8c3.4,5.5,4.3,11.5,4.1,17.9
		c-0.1,4.5-1.7,8.4-4.6,11.7c-2.1,2.4-4.2,4.8-6.4,7.2c-1.5,1.7-2.3,3.6-2,5.9c0.4,2.7,0.8,5.4,1,8.2c0.3,3.6,2.4,6.7,3.1,10.2
		c0.1,0.8,0.7,1.5,1.2,2.2c1.2,1.5,2.6,2.8,3.9,4.2c0.7,0.8,1.6,1.4,2.2,2.3c0.7,0.9,1.5,1.5,2.5,1.9c1.9,0.9,3.9,1.1,5.8,1.6
		c2,0.5,3.9,0.7,5.7,0.2c0.8-1.4,1.4-2.5,2-3.6c0.6-1,1.2-2.1,1.7-3.1c1.9-4.1,3.8-8.3,5.6-12.4c1.2-2.8,2.5-5.7,3.4-8.6
		c1.2-3.8,1.5-7.6,1-11.7c-0.5-4.4-0.7-8.8-0.6-13.2c0.1-7.8,0.5-15.5,0.9-23.2c0-1,0.3-2.1,0.7-3.1c0.4-1.1,0.8-2.2,1.4-3.3
		c0.8-1.6,1.2-3.3,1.1-5.2c-0.1-2.3-0.1-4.5,0.4-6.8c0.1-0.4-0.2-0.9-0.2-1.3c-2.7-0.7-5.2-1.1-7.9-0.3c-0.5,0.2-1.2,0.2-1.8,0.2
		c-3.1,0-6.2,0.1-9.2,0.1c-0.2,0.9,0.2,1.4,0.8,1.6c1,0.3,2,0.7,2.7,1.6c0.2,0.2,0.2,0.5,0.6,1.5c-2.1-1.1-3.9-1.4-4.8-3.1
		C746.5,127.7,745.5,127.8,744.6,127.7z M645.8,148.7L645.8,148.7c-0.1,0.4,0,0.9-0.2,1.3c-0.9,2.3-1,4.7-1,7
		c0,3.8,0.1,7.6,0.3,11.5c0.2,3.1,0.1,6.2,1.1,9.3c3.4,1.6,7,2.3,10.6,3.2c1.5,0.4,3.1,0.5,4.6,0.7c1.7,0.2,3.6-0.4,5.3,0.6
		c0.3,0.2,0.9,0,1.4-0.2c3.1-0.9,6.2-1.8,9.3-2.7c2.8-0.8,5.4-1.9,7.8-3.6c0.2-0.2,0.6-0.1,1.3-0.3c-0.5,0.8-0.6,1.2-1,1.5
		c-1.3,0.9-2.6,1.8-3.9,2.5c-3,1.5-6.3,2.3-9.6,2.9c-2.2,0.4-4.5,0.6-6.7,1.1c-3.1,0.7-6.2,0.8-9.2-0.2c-2.5-0.8-4.9-1.8-7.4-2.7
		c-0.7-0.3-1.5-0.6-2.3-0.9c-0.6,2.2,0.1,4.2,0.3,6.2c0.1,1.9,0,3.8,0.8,5.6c0.8,1.8,0,4,1.1,5.8c0.5-0.1,0.9-0.1,1.2-0.1
		c7.6-1.8,15.1-3.5,23-3.6c0.5,0,1-0.1,1.4-0.1c6.9-0.5,13.8-1,20.7-1.5c0.8-0.1,1.7-0.1,2.5,0c6.3,0.6,12.5,1.7,18.6,3.7
		c0.8,0.2,1.5,0.8,2.5,0.3c0.2-0.5,0.4-1,0.6-1.5c0.8-2.5,2.1-4.8,3.6-7c1.7-2.3,3.6-4.4,5.3-6.7c1.7-2.3,3.3-4.7,4.9-7.1
		c2.1-3,2.5-6.4,2.1-9.9c-0.3-2.5-0.9-4.9-1.3-7.4c-0.5-2.6-1.5-5-3.1-7.2c-1.8-2.4-3-5.1-3.8-8c-0.5-2-1.5-3.7-2.7-5.4
		c-2.2-2.9-4.1-5.8-6.2-8.8c-0.5-0.7-1-1.3-1.4-2c-1.2,0-2.3,0-3.3,0c-1,0.1-2.1-0.3-2.9,0.3c0.8,2.6,1.6,5,2.2,7.4
		c0.7,3.1,0.6,6.2-0.6,9.2c-0.8,2-2.2,3.4-4.4,3.8c-2.7,0.6-5.4,1.2-8.1,1c-1.2-0.1-2.4-0.1-3.6,0c-5.4,0.4-10.5-0.7-15.4-2.7
		c-3-1.3-5.8-2.7-8.8-4c-4.2-1.8-6.7-5.3-8.6-9.2c-0.4-0.8,0-1.4,0.9-1.8c0.5,0.9,1.2,1.8,1.5,2.8c1,3,3.2,4.7,5.9,5.9
		c4.4,1.9,8.8,3.8,13.2,5.6c2,0.8,4.1,1.2,6.2,1.7c0.9,0.2,1.9,0.4,2.7-0.4c-0.1-1.3-0.3-2.6-0.4-4c1.2,0.3,1.3,1.2,1.6,1.9
		c0.4,0.9,0.7,1.7,1,2.7c2.6,0.1,5.2,0,7.6-0.4c1.7-0.3,3.4-0.9,5.1-1.6c1.4-0.6,2.2-1.7,2.4-3.3c0.6-5.4-0.3-10.4-3.3-14.9
		c-6.4-0.7-36.6-1.7-40.3-1.4c-1.5,1.7-3.1,3.3-4.5,5c-0.5,0.6-1,1.4-1.1,2.2c-0.4,2-1.8,3-3.5,3.8c-1.1,0.5-2.2,1-3.3,1.3
		c-2.9,0.7-5.2,2.4-7.1,4.6c-1.9,2.2-2.2,4.9-1.7,7.7C645.3,148.3,645.6,148.5,645.8,148.7z M713.8,264.7L713.8,264.7
		c0.2,0.3,0.4,0.6,0.7,1c2.9-0.7,5.7-1,8.5-2c0-0.7,0-1.1-0.1-1.6c-0.4-2.8-0.7-5.7-1.1-8.5c-0.5-3.3-1.2-6.6-1.8-9.8
		c-0.3-1.8-0.9-3.5-1.2-5.2c-0.9-4.7-1.9-9.3-2.4-14.1c-0.5-4.7-0.6-9.3-0.2-13.9c0.4-3.8,0.5-7.6,1.5-11.3c0.1-0.2-0.1-0.5-0.1-0.7
		c-0.2-0.1-0.3-0.4-0.5-0.4c-8.5-2.5-17.2-3.8-26.1-3.3c-5.6,0.3-11.2,0.8-16.8,1.1c-1.9,0.1-3.8-0.2-5.7,0
		c-5.4,0.8-10.9,1.2-16.2,2.6c-1.6,0.4-3.1,0.9-4.4,1.3c-0.9,3.1-1.7,5.8-2.6,8.5c-0.4,1.3-0.5,2.5-0.4,3.9c0.2,2.1,0.2,4.3,0.2,6.4
		c0,3.5,0.2,7-2,10c-0.1,0.1-0.1,0.2-0.1,0.3c-2.1,4.9-4.1,9.9-6.2,14.8c-1.9,4.4-4,8.7-5.9,13c-0.6,1.4-1.1,2.9-0.1,4.5
		c1.9,0.6,3.8,1.1,5.7,1.7c2,0.7,4,0.6,6,0.7c2,0.1,3.9,1.2,5.9,0.5c-0.1-1.1-0.3-2-0.5-3.6c1.3,1.9,2.1,3.1,2.9,4.2
		c1.2,0.4,2.2,0.8,3.2,1.1c2,0.5,3.9,1,5.9,1.2c3.4,0.5,6.9,0.7,10.3,1.2c11.6,1.7,23.1,1.5,34.5-0.8
		C707.9,267.2,711,266.5,713.8,264.7z M544.6,162.2c-3-0.1-5.5-1.5-7.5-3.6c-2.4-2.3-4.6-4.8-6.6-7.5c-7.3-9.6-11.2-20.4-12.4-32.3
		c0-0.5-0.2-0.9-0.3-1.5c-1.3-0.4-2.6-0.5-3.8-0.1c-0.1,0.5-0.2,0.8-0.1,1.2c0.6,5.7,1.5,11.4,3.4,16.8c1.9,5.5,4,11,7.6,15.7
		c0.1,0.1,0.1,0.2,0.2,0.3c4,6.1,9.1,11,15.7,14.3c10.6,5.2,20.9,4,30.6-2.4c4-2.6,7.2-6.1,10-10.1c8.3-11.8,11.7-24.9,11.9-39.1
		c0.1-5.4-0.7-10.7-1.7-16c-1.4-7.2-3.9-14-7.6-20.4c-0.6-1-1.2-2.1-1.8-3.1c-4.2-6.6-9.7-11.8-16.8-15.1
		c-10.3-4.7-20.2-3.7-29.6,2.6c-3.5,2.3-6.4,5.3-9,8.6c-4.4,5.7-7.9,11.9-9.8,19c-0.7,2.7-1.3,5.3-1.9,8c-0.3,1.4-0.4,2.8-0.6,4.2
		c-0.2,1.4-0.5,2.8-0.3,4.4c0.7,0.1,1.3,0.3,1.8,0.3c0.6,0,1.2-0.1,1.8-0.2c0.2-0.8,0.4-1.5,0.4-2.1c0.3-4,1.1-7.8,2.3-11.6
		c2.7-8.9,6.9-17,13.9-23.4c4.5-4.2,9.6-7.1,15.4-8.7c1.6-0.5,3.3-0.7,5-0.3c2.8,0.7,5.5,1.5,8.3,2.3c0.6,0.2,1,0.7,2.1,1.5
		c-3.1-0.3-5.3-1-7.6-1.6c-1-0.3-2.1-0.5-3.1-0.6c-4.2-0.4-8,1.2-11.6,3.1c-7.9,4.3-13.1,11.1-17.1,18.8c-2.4,4.8-4,10-5,15.3
		c-0.5,2.4-1,4.9-0.8,7.4c2.8,0.7,28,1.7,31.1,1.3c2.4-2.8,2.4-2.7,5.8-3.8c2.2-0.7,4-0.2,5.6,1.2c1,0.9,2,1.7,2.9,2.7
		c3.2,3.3,3.2,8.6,0,12c-1.5,1.6-3.4,2.6-5.4,3.3c0.1,0.4,0,0.6,0.1,0.8c3.5,4.8,4.5,10.2,4.1,15.9c-0.1,1.9-0.8,3.5-2.1,4.8
		c-0.7,0.8-1.5,1.1-2.5,1.2c-2.9,0.1-5.8-1.9-6.6-4.6c-0.2-0.6-0.3-1.5-0.1-2.1c0.7-1.6,0.4-3.3,0.3-5c-0.2-3.5-0.1-6.9,0.4-10.4
		c0.1-0.4,0.1-0.8,0.1-1.6c-0.6,0.7-0.9,0.9-1,1.2c-0.8,2.1-1.6,4.2-2.2,6.4c-1.1,3.9-2.1,7.8-3.1,11.8c-0.4,1.4-1.4,1.9-2.7,1.4
		c-2.7-1-4.9-2.6-6.4-5c-1.6-2.3-2.3-5-1.7-7.6c0.8-0.8,1.7-1.4,2.2-2.1c2.2-3.3,5-6.1,8-8.7c0.3-0.2,0.4-0.7,0.9-1.3
		c-3.5-0.2-6.6-0.4-9.7-0.5c-3-0.1-6-0.2-9-0.3c-3.1-0.1-6.1-0.6-9.2-0.2c-0.1,0.5-0.2,0.9-0.1,1.2c0.7,6,2,11.8,4.2,17.4
		c1.9,4.8,4,9.5,7.6,13.3c0.4,0.4,0.7,1,1,1.5c2.8,4.3,6,8,10.7,10.2C543.7,161.2,544.5,161.3,544.6,162.2L544.6,162.2z
		 M620.9,322.3c0.2,3.1,0.2,6.1,0.5,9c0.4,3.6,0.6,7.1,0.5,10.7c0,0.8-0.1,1.8,0.2,2.5c0.6,1.1,0.5,2.3,0.6,3.5
		c0.2,4.7,0.4,9.3,0.5,14c0.1,2.1,0.1,4.3,0.1,6.4c0,1.8-0.1,3.6-0.2,5.3c0,1.3-0.1,2.6-0.1,3.9c0,1.3,0,2.6,0.2,3.9
		c0.5,3.3,1.1,6.6,0.5,10c-0.2,1,0.1,2.1,0.2,3.2c0.5,7.3,0.2,14.6-1.8,21.7c-1.2,4.1-2.4,8.3-3.3,12.5c-1.6,7.1-3.5,14.1-5.7,21.1
		c-0.4,1.2-0.7,2.5-1,3.8c-1,4.8-1.3,9.7-1.5,14.6c-0.1,3,0,6-0.1,9c-0.2,5.9,0,11.7,0.9,17.5c0.5,3.4,0.6,6.9,1.1,10.3
		c1,7.2,2,14.4,2.3,21.7c0.1,1.2-0.1,2.5,0.2,3.6c0.9,3,0.6,5.9,0.1,8.8c-0.4,3.2-1,6.4-1.5,9.5c-0.1,0.4,0.1,0.8,0.2,1.3
		c1.9-1.9,1.9-1.9,2.4-3.3c0.4-1.1,0.6-2.3,0.9-3.5c0.2-0.9,0.6-1.9,1.5-2.3c2.8-1.4,5.4-3,8.8-2.6c1,0.1,2.1,0.6,3.3-0.2
		c0.2-1.1,0.5-2.4,0.6-3.7c0.1-6.1,1.8-12,1.6-18.2c0-0.3,0.1-0.7,0.2-1c0.9-2.9,0.8-6.1,2.1-9c0.1-0.3,0.1-0.7,0.2-1.1
		c0.5-2.2,0.9-4.4,1.4-6.7c1.2-6.2,3.2-12.2,4-18.5c0.1-1.1,0.4-2.3,1.2-3.3c0.4-0.4,0.5-1.1,0.6-1.6c2.3-8.7,3.9-17.5,3.2-26.5
		c-0.3-3.3-0.4-6.7-0.6-10c0-0.5-0.1-1.1,0.2-1.4c0.7-0.8,0.6-1.7,0.5-2.7c-0.3-1.6-0.1-3.1,0.5-4.5c1.4-3.3,2.4-6.7,3-10.2
		c0.3-1.9,0.7-3.8,2-5.3c1.3-1.5,1.9-3.3,2.2-5.2c0.2-1.3,0.7-2.5,1-3.8c0.5-2.3,1.1-4.6,1.4-7c0.2-1.7,0.6-3.3,1.4-4.8
		c1.3-2.4,1.9-5.1,2.5-7.8c1.7-7.6,3.5-15.1,5.2-22.7c1.2-5.2,2.3-10.5,3.2-15.8c0.5-3.1,1.2-6.1,2.3-9c0.5-1.2,0.9-2.5,1.2-3.7
		c0.2-0.8,0.2-1.6,0.3-2.5c-0.6-0.4-1.1-0.7-1.6-0.9c-5.2-1.8-10.4-3.6-15.6-5.3c-1.7-0.5-3.5-0.8-5.3-1c-2.5-0.3-5-0.3-7.5-0.8
		c-3.7-0.7-7.3-0.9-11-1.2c-2.1-0.1-4.3-0.4-6.4-0.6C623.6,322.1,622.3,322.1,620.9,322.3z M703.7,439.4c-0.2,0.9-0.4,1.8-0.5,2.8
		c-0.6,4.4-1.1,8.8-1.6,13.1c-0.1,1.2-0.2,2.4-0.2,3.6c0,3.5,0.1,6.9,0,10.4c-0.1,2.7,0.4,5.2,1.2,7.7c2.2,6.3,5,12.4,6.7,18.9
		c0,0.1,0.1,0.2,0.1,0.3c2.2,5.9,3.8,12.1,5.2,18.2c1.3,5.6,2.4,11.2,3.8,16.8c0.4,1.8,0.3,3.3-0.6,4.8c-0.3,0.5-0.6,1-0.9,1.5
		c0.2,0.4,0.5,0.7,0.4,1c-0.1,1-0.3,2.1-0.5,3.3c0.4,0.7,0.8,1.6,1.5,2.3c0.5,0.6,1.3,1.1,2.5,0.5c1.3-2.3,2.6-4.8,4.1-7.3
		c1-0.6,2.1-1.1,3-1.8c1-0.8,2.2-1.4,2.5-2.9c0.1-0.5,0.7-0.9,1.2-1.2c1-0.6,2-1,3-1.5c-0.2-1.4-0.5-2.5-0.5-3.7
		c-0.2-7.4-0.1-14.8-0.4-22.2c-0.3-6.4,0.4-12.6,0.8-19c0.2-2.7,0.3-5.5,0.5-8.2c0.1-1.3,0.1-2.6,0.1-3.9c0.4-6.9,0.7-13.8-0.2-20.7
		c-0.9-6.8-2.1-13.4-3.8-20c-0.1-0.6-0.4-1.2-0.3-1.7c0.4-1.1,0.1-2.1-0.2-3.1c-0.3-1.4-0.4-2.8-0.3-4.3c0.3-3.7,0.7-7.4,0.3-11.1
		c-0.1-0.6,0.1-1.2,0-1.8c-0.1-2.3-0.3-4.5-0.4-6.8c-0.1-2.6-0.4-5.3-0.2-7.9c0.5-7,1.2-14,1.9-21c0.1-1,0.3-2.2,0.8-3.1
		c0.6-1,0.7-2,0.7-3.1c-0.1-4.8,0-9.6-0.4-14.3c-0.6-6.9-0.9-13.8-1.1-20.7c0-0.9-0.1-2,0.2-2.8c1-2.9-0.2-5.6-0.5-8.4
		c-0.7-0.1-1.1-0.2-1.6-0.2c-2,0-4.1,0.1-6.1,0.1c-0.5,0-1,0-1.4,0.1c-5.1,1.2-10.3,2-15.5,2.8c-4.8,0.7-9.3,1.7-13.7,3.8
		c-3.5,1.6-7.2,2.7-11,2.9c-0.4,0-0.8,0.3-1.3,0.5c0,0.9,0,1.8,0.1,2.6c0.1,0.7,0.2,1.4,0.4,2.1c0.6,2.7,1.2,5.4,1.8,8
		c1.9,7.4,3.9,14.8,6.6,21.9c1.4,3.6,2.7,7.1,3.7,10.8c1.3,4.8,2.1,9.8,3.6,14.6c0.3,1,0.3,2.1,0.4,3.2c0.4,4.8,0.8,9.5,1.2,14.3
		c0.2,1.9,0.5,3.8,0.5,5.7c-0.1,4.1,0.5,8.1,1.4,12.1c0.5,2,1,3.9,1.2,6c0.1,1.3,0.3,2.5,1,3.7C703.2,437.8,703.4,438.6,703.7,439.4
		z M730.9,319c0-0.9,0.1-1.7,0-2.3c-1.1-7-2.2-13.9-3.3-20.9c-0.1-0.6-0.2-1.2-0.3-1.8c-0.4-1.6-0.9-3.2-1.1-4.9
		c-0.3-3-1-5.9-1.8-8.8c-0.5-1.7-0.8-3.4-0.5-5.3c0.3-2.3-0.1-4.7-0.2-7.1c0-0.6-0.3-1.1-0.5-1.8c-2.1,0-3.9,0.7-5.7,1.2
		c-8.6,2.4-17.3,4.4-26.3,4.9c-4.7,0.3-9.3,0.6-14-0.1c-10.2-1.5-20.4-2.1-30.5-4c-5.3-1-10.6-1.8-15.7-3.6
		c-0.4-0.1-0.9-0.1-1.5-0.2c-0.4,2-0.7,3.9-1.2,5.7c-0.3,1.3-0.4,2.7-1.1,3.7c-0.6,1.1-0.9,2.2-1.2,3.3c-0.3,0.9-0.4,1.9-0.8,2.7
		c-1.4,2.5-1.6,5.2-1.9,8c-0.5,4.5-1.1,9-1.7,13.5c-0.7,5.2-1.8,10.4-1.2,15.6c0.1,0.8,0.2,1.6,0.3,2.6c1.2,0.1,2.2,0.4,3.2,0.4
		c7.9-0.3,15.7,0.5,23.5,1.9c2.2,0.4,4.5,0.8,6.7,0.9c1.6,0.1,3.1,0.3,4.5,0.9c1.7,0.7,3.4,1.2,5,2c2.6,1.3,5.3,1.9,7.6,2.5
		c2.6-0.4,2.3-2.7,3.7-3.9c1.5,0.1,2.7-0.7,4-1.8c1.3-1.2,2.9-2.1,4.4-3c0.3-0.2,0.8-0.1,1.5-0.1c-1.1,3-3.7,4.6-5.3,7.1
		c0.2,0.6,0.5,1.2,0.6,1.7c0.2,0.6,0.3,1.3,0.5,2c4.6-1.4,9.1-2.5,13.5-4c7-2.4,14.2-4.1,21.5-5.2
		C720.7,320.3,725.7,319.7,730.9,319z M774.3,127.6c-0.2,1.8-0.1,3.2,0.2,4.6c1.1,6.6,3.1,13,6.4,18.9c1.2,2.1,2.3,4.2,4.4,5.5
		c0.6,0.4,1,1,1.5,1.5c2.8,3.2,6.1,5.7,9.9,7.6c1,0.5,2,0.9,2.9,1.5c3.6,2.5,7.8,3.1,11.9,3.5c7.9,0.9,15.2-1.1,21.6-5.8
		c3.1-2.3,5.7-5,8.1-8.1c6.1-8.2,9.1-17.5,9.6-27.6c0.4-6.4-0.6-12.7-2.3-18.8c-2.8-9.6-7.7-18-15.4-24.5
		c-6.8-5.6-14.5-8.7-23.4-8.3c-5,0.2-9.7,1.4-13.7,4.6c-3.2,2.5-6.3,5.2-9.4,7.7c-1.4,1.2-2.5,2.5-3.4,4.1c-3.9,6.2-6.2,12.9-7.4,20
		c-0.1,0.6-0.5,1.3,0.2,2.2c7.4,0,15,1,22.5,0.7c0.3-0.3,0.5-0.5,0.6-0.7c0.8-2.9,3-4.5,5.1-6.3c0.3-0.3,0.8-0.6,1.2-0.7
		c4.1-1.1,8-0.9,11.7,1.3c1.7,1,3,2.3,4.1,3.9c2.7,4,3.1,8.4,2.9,13c0,0.5-0.1,1-0.4,1.4c-1.4,1.9-2.7,3.9-4.4,5.6
		c-0.8,0.9-2.2,1.4-3.5,1.7c-2.9,0.7-5.8,1-8.8,0.2c-1.7-0.4-3.1-1.1-4.4-2.2c-2-1.6-3.4-3.6-4.6-5.7
		C789.9,128.3,782.3,127.9,774.3,127.6z M562,56.4c0.8,0.4,1.3,0.6,1.9,0.8c7.4,2.8,13.1,7.9,17.8,14c2.7,3.5,4.8,7.3,6.7,11.4
		c3,6.6,4.6,13.5,5.7,20.6c0.7,4.4,1,8.8,0.6,13.2c-0.6,7.4-1.8,14.6-4,21.8c-2.4,8-7,14.6-12.1,20.9c-3.7,3.2-7.4,6.4-12,8.4
		c-3.4,1.5-6.9,2.3-10.4,3c3,0.3,6,0.5,8.9,0.3c3.9-0.2,7.9-0.8,11.6-2.2c7-2.7,12.6-7.3,16.9-13.3c4.3-6,7.4-12.5,9.5-19.6
		c1.8-6.4,2.7-12.8,2.9-19.4c0.1-2.1-0.3-4.3-0.4-6.4c-0.2-4.3-0.7-8.6-1.8-12.8c-1.7-6.6-4-13-7.5-18.9
		c-3.3-5.5-7.2-10.4-12.4-14.1c-2-1.4-4.3-2.6-6.4-3.9c-3.6-2.3-7.7-3.1-11.8-4C564.6,56,563.5,55.9,562,56.4z M753,557
		c-0.6-1.3-1.4-1.3-2.3-1.2c-4.3,0.2-8.6,0.4-12.9,0.6c-0.8,0-1.6-0.1-2.4-0.4c-0.7-0.2-0.8-1.4-0.3-1.8c0.7-0.5,1.4-1,2.2-1.1
		c3.5-0.7,7.1-1.2,10.7-0.4c0.4,0.1,0.9,0.1,1.3,0.1c0.1-0.3,0.2-0.4,0.1-0.5c-0.3-1.3-1.2-1.6-2.4-1.7c-4.2-0.1-8.3,0.5-12.4,1.3
		c-1.1,0.2-2.1,0.3-3.2,0.4c-0.6,0.1-1.3-0.2-1.3-0.9c0-0.5,0.3-1.2,0.7-1.5c0.6-0.5,1.4-0.9,2.2-1.1c3.9-1.1,7.9-2,12-1.8
		c0.5,0,1-0.1,1.6-0.1c-0.2-1-0.8-1.1-1.4-1.2c-3-0.3-6-0.2-8.9,0.4c-1.6,0.4-3.3,0.6-4.9,0.9c-0.5,0.1-1,0.1-1.4,0.1
		c-0.3,0-0.8-0.3-0.8-0.5c0-0.4,0.2-0.9,0.5-1.2c0.2-0.3,0.6-0.3,0.9-0.5c3.3-1.6,6.9-1.9,10.4-2.1c0.9-0.1,1.8-0.1,2.6-0.2
		c-1.1-3-2.2-5.7-3.3-8.7c-1.2-0.6-2.6-0.4-4-0.5c-1.5-0.1-2.8,0.3-3.8,1.5c-1.3,1.6-2.9,2.8-4.8,3.7c-1.2,0.5-2,1.4-2.4,2.5
		c-0.7,1.6-1.4,3.3-2.1,4.9c-0.8,1.8-1.6,2.4-3.6,2c-1.1-0.2-2.3-0.6-3.4-0.9c-0.1,0.4-0.4,0.8-0.4,1.1c0.2,2.5-0.5,4.7-1.6,6.9
		c-1.5,3-2,6.3-2.4,9.7c-0.1,0.8,0,1.6,0,2.4c0.4,0.2,0.7,0.4,1.1,0.5c4.3,1.1,8.6,2.1,12.9,3.1c0.7,0.2,1.6,0.4,2.3-0.4
		c-0.6-1.7-2.9-1.8-3.3-3.6c1.2-0.7,2.1-0.1,3,0.5c1,0.7,2,1.4,2.2,2.7c0.1,0.7-0.4,1.4,0.4,2.2c0.5,0.5,0.4,1.7,0.5,2.8
		c2.6,0.8,5,1.6,7.6,2.3c2.9,0.8,5.8,1.6,8.8,1.3c0.4,0,1.1,0.1,1.3,0.4c1,1.4,2.5,1.3,3.9,1.2c3.6-0.2,7.1-0.6,10.7-1
		c1.1-0.1,2.3-0.7,3.3-1.2c0.3-0.2,0.5-0.6,0.9-1c-1.5-1.1-3-0.4-4.3-0.3c-1.3,0-2.6,0.2-3.9,0.4c-1.4,0.2-2.8,0.5-4.2,0.8
		c-1.4,0.3-2.5,1.2-4,1.1c1.5-1.3,2.9-2.7,4.9-3.2c2.8-0.6,5.5-1.5,8.4-1.4c0.4,0,0.9-0.2,1.4-0.3c0-1.1,0-2,0-2.9
		c0.2-2.5-1.1-4.3-3.1-5.7c-1.8-1.3-3.7-2.6-5.4-3.8c-1.4,0.4-2.6,0.8-3.9,1.1c-1,0.2-2.1,0.1-3.2,0.1c-0.6,0-1-0.5-1-1.2
		c0-0.4,0.5-0.8-0.2-1.4c-1.6,0.1-3.4,0.2-5.2,0.3c-1.1,0-1.9-0.5-1.9-1.2c0.1-0.8,0.6-1.3,1.4-1.5c0.6-0.2,1.1-0.3,1.7-0.4
		c1.4-0.2,2.8-0.4,4.3-0.5C750.3,556.7,751.4,556.9,753,557z M637.9,561.9c-1.7,0.2-3,0.4-4.3,0.4c-4.2,0-8.4-0.2-12.5-0.3
		c-0.7,0-1.5-0.1-2.1-0.3c-0.5-0.2-1-0.8-1.1-1.2c0-0.5,0.6-1,1-1.4c0.2-0.2,0.6-0.3,1-0.4c1.3-0.3,2.6-0.6,3.9-0.7
		c4.4-0.3,8.8-0.5,13.2,1.3c-0.8-1.9-2-2.6-3.7-2.7c-3.6-0.2-7.2-0.3-10.7,0.4c-1.3,0.2-2.6,0.7-3.8-0.1c-0.4-0.9-0.1-1.5,0.6-1.8
		c1.2-0.5,2.4-1.1,3.7-1.3c2.3-0.4,4.7-0.6,7.1-0.8c1-0.1,2.1-0.1,3.2-0.1c0-0.5,0.1-0.9,0-1.2c-0.9-2-1.4-4-1.4-6.2
		c0-0.8-0.4-1.6-0.7-2.4c-0.6-1.4-1.6-2-3.1-1.9c-0.7,0-1.5,0-2.1,0.1c-4.8,1.1-7,1.9-7.3,6c-0.1,1.1-0.8,2.2-1.2,3.3
		c-0.4,1-0.7,2-1.7,2.6c-1,0-1.9-0.1-2.8,0c-1.2,0.2-2.1-0.2-2.9-0.9c-0.4-0.4-0.8-0.9-1.2-1.4c-0.2,0.4-0.5,0.6-0.6,0.9
		c-0.6,2.8-1.7,5.4-3.1,8c-0.5,0.9-0.7,2-0.9,3.1c-0.7,3.6-1.3,7.3-1.9,11c1.6,1.9-0.2,4.3,0.6,6.4c1.5,0.9,3,1.7,4.5,2.6
		c0.2,0.5,0.5,0.9,0.6,1.4c0.9,3.2,3.2,4.6,6.4,4.8c0.6,0,1.2,0.1,1.8,0.2c2.5,0.2,5,0.3,7.7,0.5c0.7-0.4,1.5-1,2.5-1.4
		c5-1.7,10.1-2.7,15.5-2.6c1.2,0,2.4,0.3,3.5,0.6c0.6,0.1,1,0.5,0.8,1.5c-5.4,0.2-11-0.3-16.7,2c0.9,0.1,1.3,0.2,1.6,0.2
		c2.9-0.1,5.7-0.1,8.6-0.2c1.5-0.1,3.1-0.1,4.6-0.4c1-0.2,2-0.7,2.9-1.2c0.9-0.5,1-1.7,0.4-2.5c-0.5-0.7-1.2-1.2-1.6-1.9
		c-1.9-3.7-3.8-7.4-5.7-11.2c-0.9,0.3-1.7,0.8-2.6,0.9c-1,0.2-2.1,0-3.2,0c-1,0-1.9,0.1-2.9,0c-2.5-0.2-5-0.4-7.5-0.7
		c-0.8-0.1-1.5-0.6-2.2-1.1c-0.6-0.4-0.4-1.6,0.3-1.8c0.9-0.3,1.8-0.6,2.8-0.5c4.2,0.1,8.4,0.2,12.5,0.4c0.6,0,1.1,0,1.7,0
		c-0.1-2.1-0.1-2.1-0.8-3.2c-1.7,0.2-3.3,0.6-5,0.6c-3.9,0.1-7.9,0.1-11.8,0.2c-0.7,0-1.4-0.1-2.1-0.3c-1-0.3-1.2-1.7-0.5-2.4
		c0.8-0.8,1.8-1.1,2.9-1.3c5.2-0.8,10.5-1.1,15.6,0.6c0.3,0.1,0.6-0.1,1-0.2C638.3,563.2,638.1,562.6,637.9,561.9z M821.4,78
		c0.8,0.3,1.5,0.7,2.3,1c5.7,2.2,10.5,5.7,14.5,10.2c5.5,6.1,9.4,13.1,11.6,21.1c2.3,8.3,3.1,16.6,1.6,25.2
		c-0.8,4.2-1.5,8.5-3.3,12.4c-3.5,7.7-8.3,14.4-15.7,19c-2.3,1.4-4.5,2.6-7.1,3.4c-0.7,0.2-1.3,0.5-2.3,0.9
		c4.7,0.5,10.9-0.8,14.8-2.9c5.8-3,10.1-7.6,13.6-13c1.6-2.5,3.2-5.1,4.1-7.9c3-8.9,4.7-18,3.3-27.5c-1.4-9.6-4.6-18.5-10.5-26.3
		C841.6,84.7,832.7,79.4,821.4,78z M480.2,113.5c1.3,0.1,2.1,0.2,2.9,0.2c6.1,0.3,12.2,0.5,18.2,0.8c7.9,0.3,15.7,0.7,23.6,1.1
		c9.1,0.4,18.1,0.7,27.2,1.2c2.1,0.1,4-0.3,5.8-1.2c0.2-0.5,0.3-1,0.4-1.4c0.4-2.1-0.2-3.2-2.1-3.8c-0.7-0.2-1.4-0.2-2.1-0.3
		c-5.4-0.3-10.7-0.5-16.1-0.7c-9.2-0.4-18.4-0.7-27.5-1.1c-9.2-0.4-18.3-0.8-27.5-1.2c-0.8,0-1.6,0-2.5,0.1c0.4,1.5,0.7,2.9,1.1,4.3
		C481.1,111.9,480.8,112.5,480.2,113.5z M669,120.9c0.7,0.1,1.5,0.2,2.3,0.2c4.6,0.2,9.3,0.3,13.9,0.5c9.9,0.4,19.8,0.8,29.7,1.2
		c3.5,0.1,6.9,0.3,10.4,0.5c3.3,0.1,6.7,0.2,10,0.3c1,0,1.8-0.2,2.7-0.8c1.6-1.2,3.3-2.2,5.2-3.5c-0.1-0.5-0.4-1.2-0.6-2.1
		c-23.5-0.9-46.8-1.9-70.2-2.8c-2.4-0.1-4.8-0.1-7.2-0.2c-0.1,0-0.2,0.1-0.3,0.1c-0.1,0-0.1,0.2-0.1,0.2
		C666.1,116.5,667.4,118.5,669,120.9z M763,124.6c8.6,0.3,16.3,0.6,24,0.9c5.6,0.2,11.2,0.4,16.8,0.6c1.8,0.1,3.6,0.2,5.4,0.2
		c1.7,0,2.9-2.1,2.1-3.7c-0.9-1.6-2-2.7-4.2-2.8c-12.1-0.4-24.3-1-36.4-1.5c-0.8,0-1.6,0.1-2.5,0.1c-0.4,0.7-1,1.2-1,1.9
		c-0.2,1.5-1.1,2.3-2.2,3.1C764.5,123.7,764.2,123.9,763,124.6z M800.3,117c1.2,0.1,1.9,0.2,2.6,0.3c1.5,0.1,3.1,0.2,4.6,0.4
		c2.1,0.3,3.8,1.3,5.1,3c1,1.3,1.1,2.6,0.6,4c-0.6,2.1-3.3,3.9-5.4,3.9c-2.4,0-4.7,0.1-7.2,0.1c0.1,0.5,0,1,0.1,1.2
		c1.6,1.9,3.3,3.7,5.7,4.7c5,2.1,10.4,0,12.4-5.1c1.6-3.9,1.3-7.8,0-11.6c-1.2-3.3-3.5-6-6.8-7.5c-1.8-0.8-3.7-1-5.6-0.2
		C803.5,111.5,801.7,113.7,800.3,117z M607.8,118.3c0.7,0.1,1.3,0.2,1.8,0.2c3.4,0.2,6.9,0.3,10.3,0.5c3.8,0.2,7.6,0.6,11.4,0.8
		c4.3,0.2,8.6,0.2,12.9,0.3c0.8,0,1.6-0.1,2.7-0.1c-0.5-1.2-0.9-2.1-1.3-3c-2.8-0.7-5.4-1.5-6.9-4.2c-1.5,0-2.9,0-4.3-0.1
		c-5.2-0.1-10.5-0.2-15.7-0.3c-3-0.1-5.9-0.3-8.9-0.4c-0.7,0-1.3,0.2-1.9,0.3C607.8,114.4,607.8,116.3,607.8,118.3z M554.8,118.9
		c0,0.6-0.1,1.1,0,1.7c0.1,0.8,0.5,1.6,0.5,2.4c0.3,4.8,0.5,9.5,0.8,14.3c0.1,1.3,0.3,2.6,0.5,3.9c0.2,0.8,0.9,1.1,1.6,1.3
		c0.8,0.2,1.4-0.3,1.7-1c0.4-1.1,0.8-2.2,1-3.4c0.4-4.5-0.3-8.8-2.3-12.8c-0.8-1.7-1.3-3.6-1.9-5.4c0-0.1,0.2-0.3,0.4-0.5
		c0.6,0.8,1.1,1.5,1.7,2.2c0.6-0.1,1.1-0.1,1.5-0.3c2.6-1.2,4.9-5.4,4.6-8.2c-0.3-3.2-2.2-5.2-4.7-6.7c-1-0.6-2.2-0.9-3.4-0.6
		c-1.4,0.3-2.2,0.8-3.6,2.3c1.1,0.1,2,0.2,2.9,0.3c3.1,0.6,4.7,2.8,4.3,5.5c-0.3,1.6-0.8,2.8-2.2,3.9
		C557.2,118.4,556.1,118.5,554.8,118.9z M539,133.4c0.8,3.1,1.1,3.7,2.6,5.3c1,1,1,1,3.1,1.6c2.1-7.4,4.2-14.9,8.9-21.4
		c-1.8-0.6-3.2-0.4-4.3,1c-0.5,0.6-1.2,1.1-1.8,1.7C544.1,125,541.1,128.8,539,133.4z M861,128.6c4.6,0.5,8.9,0.6,13.2,0.6
		c1.6,0,2.7-0.7,3.4-2.1c0.4-1,0.3-1.8-0.4-2.6c-0.9-1-2-1.5-3.5-1.5c-3.8-0.1-7.6-0.2-11.4-0.3c-0.4,0-0.9,0.2-1.5,0.3
		C860.8,124.8,860.6,126.5,861,128.6z M758.2,125.4c0.9-0.3,1.8-0.6,2.7-0.9c0.5-3.9-0.2-7.5-0.6-11.2c-0.2-1.9-1.6-2.6-3.7-2.2
		c-0.7,0.2-1.3,0.4-1.9,0.6c0,0.4-0.2,0.7-0.1,0.9c0.5,1.7,1.1,3.3,1,5.2c-0.1,1.5,0.4,3,0.7,4.6
		C756.6,123.5,756.8,124.6,758.2,125.4z M650.1,120.1c0.3-0.7,0.5-1.2,0.8-1.5c1.4-1.2,1.4-2.6,0.8-4.2c-0.8-1.9-1.6-3.7-2.5-5.5
		c-1.8-3.5-3.7-3.8-7.4-2.5c1.8,0.7,2.9,1.9,3.3,3.6c0.1,0.4,0.4,0.9,0.7,1.2c1,1.4,1.6,2.9,1.5,4.7
		C647.3,117.7,648.2,119.1,650.1,120.1z M748.6,111.4c1.5,3.9,3.2,7.7,2.1,11.8c0.9,1,1.7,1.5,3,1.2c1.4-2.1,1.4-4.5,0.8-6.8
		c-0.6-2.3-1.3-4.5-2-6.9C751.1,110.6,749.8,110.3,748.6,111.4z M656,120.6c1.7-3.5,1.8-6.5-0.1-9.5c-0.6-0.9-0.9-1.9-1.4-2.9
		c-1-2.1-1.5-2.3-4.4-1.6c0.9,2,1.7,3.9,2.6,5.8c0.9,2.1,1.4,4.3,0.9,6.6c0,0.2,0.2,0.4,0.3,0.7C654.4,120,655.1,120.2,656,120.6z
		 M744.2,140c-0.2,0.3-0.3,0.4-0.3,0.5c0,5,0,9.9,0,14.9c0,1.4,0.1,2.8,0.2,4.3c0,0.1,0.1,0.2,0.1,0.3c0.1,0,0.1,0,0.3-0.1
		c0.7-3.8,1.5-7.6,2.3-11.4c0.4-2,0.5-4,0.1-6c-0.1-0.3-0.2-0.7-0.4-1.2C745.8,140.8,745,140.4,744.2,140z M639.1,110.6
		c0.3,0.4,0.8,1,1.1,1.6c1.1,1.8,2.6,2.2,4.8,1.6c-0.4-1.1-0.8-2-1.2-3c-1.5-3.3-4.1-4.5-7.5-3.2c-1.4,0.5-2.7,1.2-3.5,2.9
		C635,110.7,637,109.5,639.1,110.6z M746.3,110.3c-2.1,0.4-3.5,1.1-4.6,2.4c-0.4,0.5-0.4,1.3-0.6,2.2c1.5-0.3,2.6-0.2,3.1,1.2
		c0.2,0.6,0.7,1.2,1,1.8c1.2-0.5,2.3-0.9,3.4-1.4C747.9,114.5,747.2,112.5,746.3,110.3z M762.7,113.4c-0.2,0.6-0.6,1.2-0.6,1.7
		c0.1,1.9,0.3,3.8,0.5,5.6c0,0.4,0.3,0.8,0.4,1.1c1.2,0.2,1.8-0.3,2.3-1c1.3-2.2,1.3-4.5,0-6.8C764.8,113.2,764,113.1,762.7,113.4z
		 M476.9,106.8c-0.6,0.5-1.4,0.9-1.9,1.5c-1,1.1-1,2.5-0.1,3.6c0.8,1,1.9,0.9,2.9,0.6c1.1-0.3,1.7-1.1,1.5-2.1
		C479,108.9,478.5,107.6,476.9,106.8z M658.4,111.8c1.1,0,2.2,0.3,3.4-0.6c-0.4-0.7-0.7-1.4-1-2c-0.4-0.7-0.9-1.3-1.4-2
		c-1.2,0-2.2,0-3.3,0C656.3,109.1,657.2,110.4,658.4,111.8z M660.4,81.6c0.3-1.9,0.2-3.4-0.3-4.9c-1.2-3.6-1.7-7.4-2.1-11.1
		c-0.1-0.5-0.1-1-0.3-1.4c-0.1-0.2-0.5-0.3-1.1-0.6c0.2,1.6,0.3,3,0.6,4.4c0.8,4,1.7,8.1,2.6,12.1C660,80.5,660.1,80.9,660.4,81.6z
		 M611.5,550c0.2-0.5,0.4-0.7,0.4-0.9c0-2.1-0.1-4.3-0.2-6.4c0-0.2-0.2-0.4-0.3-0.6c-0.1,0-0.3,0-0.3,0.1c-0.4,1.4-0.9,2.9-1.2,4.3
		C609.6,547.8,609.8,549.1,611.5,550z M654.5,101.1c-0.6,1.6-2.7,1.2-3.7,2.9c1.1,0.4,2.2,0.6,3.1,1c0.9,0.4,1.6,0.1,2.1-0.8
		c-0.2-0.8-0.4-1.5-0.7-2.3C655.3,101.7,655.1,101.6,654.5,101.1z M708.4,113.4c-2.4-1.7-4.2-2.9-5.9-4c-0.1-0.1-0.4,0.1-0.8,0.2
		c0.8,1.3,1.5,2.6,2.2,3.9C705.3,113.4,706.5,113.4,708.4,113.4z M664,14.7c-1.6-3.2-2.2-3.5-5.8-2.3
		C660.3,12.7,661.6,14.8,664,14.7z M659.6,90.8c-0.4-2.3-0.5-2.6-2.1-4.8C657.9,89,658,89.2,659.6,90.8z M659.6,68.5
		c1.1-0.7,1.1-1.4,0.7-2.2c-0.1-0.2-0.5-0.2-1.1-0.4C659.3,66.9,659.4,67.7,659.6,68.5z M754.2,559.9c0.5,0,0.9,0,1.4,0
		C755.1,558.9,754.7,559,754.2,559.9z M672.5,18.3c0.5,0.2,0.6,0.3,0.7,0.3c0.2,0,0.3-0.1,0.5-0.2C673.4,18.4,673.2,18.4,672.5,18.3
		z M560.4,55.8l0-0.1l-0.3,0L560.4,55.8z"/>
	<path d="M657.1,23.1c0.2,0,0.5,0,0.7,0.1c1.7,1.3,3.4,2.2,5.5,0.6c0.4-0.3,1.1-0.2,1.8-0.2c0-0.6,0.1-1.2,0.1-1.8
		c1-1,2.2-1,3.3-0.5c1.7,0.7,3.5,0.9,5.2,1.3c0.2,0,0.3,0.3,0.5,0.5l0.1-0.1c-1.5,0-3-0.1-4.2,1.4c-0.7,0.9-1.8,0.9-2.9,0.6
		c-1.3-0.4-2.6-0.7-4.4,0c2.5,1.4,4.9,1.1,7.2,1.2c0.3,0,0.6-0.4,0.9-0.5c0.4-0.2,0.9-0.3,1.3-0.4l-0.1-0.1
		c-0.1,0.7-0.2,1.4-0.2,2.1c-2,0.9-4.1,0.2-6.2,0.1l0.1,0.1c-0.5-0.2-1-0.6-1.5-0.7c-1.6-0.5-3.2-0.9-4.8-1.3
		C658.3,25.1,657.5,24.3,657.1,23.1L657.1,23.1z M667.5,23c0.2-0.1,0.3-0.1,0.5-0.2c-0.1,0-0.2-0.1-0.3-0.1c-0.2,0-0.3,0.1-0.5,0.2
		C667.3,22.9,667.4,22.9,667.5,23z"/>
	<path d="M231.7,27.4c-0.5-0.2-1-0.6-1.5-0.7c-1.6-0.5-3.2-0.9-4.8-1.3c-1.2-0.3-2-1.1-2.3-2.4l-0.1,0.1c0.4,0.2,0.9,0.2,1.3,0.5
		c1.5,1.1,2.9,1.5,4.6,0.3c0.5-0.4,1.4-0.3,2.2-0.4c0-0.6,0.1-1.1,0.1-1.7c1-0.9,2.2-1,3.3-0.5c1.7,0.7,3.5,0.9,5.2,1.3
		c0.2,0,0.4,0.3,0.5,0.5l0.1-0.1c-1.7-0.1-3.2,0.2-4.5,1.6c-0.3,0.4-1,0.5-1.5,0.7c-3.1-0.7-3.1-0.7-5.5-0.2c2.4,1.3,4.7,1,7,1.1
		c0.3,0,0.6-0.4,0.9-0.5c0.4-0.2,0.9-0.3,1.3-0.4l-0.1-0.1c-0.1,0.7-0.2,1.3-0.3,2C235.7,28.2,233.6,27.5,231.7,27.4L231.7,27.4z
		 M233,22.7c0,0.1,0,0.1,0,0.2c0.3,0,0.6,0,0.9,0.1c0-0.1,0-0.1,0-0.2C233.6,22.7,233.3,22.7,233,22.7z"/>
	<path d="M248.8,46.8c2-0.5,4.1-1,6.1-1.4c0.2-1-0.9-0.6-1.1-1.2c0.3,0,0.7-0.1,1-0.1c0.5,0,0.9,0.1,1.5,0.2
		c0.3,1.2,0.7,2.4,1.1,3.9c-0.8-0.4-1.3-0.6-1.8-0.9c-0.8,0.5,0.2,1.1-0.2,1.9c-0.6,0.8-1.7,1.3-3.3,1.3c-0.4-0.4-1-0.8-1.4-1.4
		c-0.3-0.4-0.4-1-0.6-1.6c-0.8,0.3-1.4,0.6-2.3,1c-0.1-0.4-0.2-0.8-0.3-1.2l-0.1,0.1c0.5-0.3,1.1-0.5,1.6-0.8L248.8,46.8z"/>
	<path d="M683,46.8c1-0.3,2-0.6,3.1-0.8c1-0.2,2-0.3,3-0.5c0.3-1.1-0.8-0.7-1.1-1.4c0.8,0,1.6,0.1,2.6,0.1c0.2,0.7,0.3,1.4,0.5,2.1
		c0.1,0.5,0.3,1.1,0.6,1.9c-0.8-0.4-1.3-0.6-1.8-0.9c-0.7,0.5,0.2,1.1-0.2,2c-0.6,0.8-1.7,1.3-3.1,1.3c-1.4-0.5-1.6-1.9-2.3-3
		c-0.8,0.3-1.4,0.6-2.3,1c-0.1-0.4-0.2-0.8-0.3-1.2l-0.1,0.1c0.5-0.3,1.1-0.5,1.6-0.8L683,46.8z"/>
	<path d="M185,327.8c-0.6,0.2-1.4,0.2-1.8,0.9c-0.7,1.2-1.9,1.4-3.1,1.1c-0.9-0.2-1.8-0.5-3.1-0.8c0.5-0.5,0.7-0.9,1-1.1
		c1.1-0.4,2.3-0.6,3.5-0.9c1.9-2.2,1.3-5.4,2.9-7.7c0.8,0,0.8,0.5,0.8,1c-0.2,1.3-0.4,2.6-0.7,3.8
		C184.3,325.4,184.4,326.7,185,327.8L185,327.8z"/>
	<path d="M706.3,68.2c0.2,0.7-0.2,1.1-0.7,1.1c-3.2-0.5-6.3,0.4-9.4,1c-1.4,0.2-2.8,0.1-4.2,0c-0.3,0-0.6-0.4-1.1-0.7
		c0.5-0.3,0.8-0.8,1.1-0.7c2.3,0.3,4.5,0,6.5-1.2c0.4-0.2,0.9-0.4,1.4-0.4c1.9,0.1,3.7,0.3,5.6,0.5
		C705.8,67.8,706.1,68.1,706.3,68.2z"/>
	<path d="M259.3,68.8c1.3,0.3,2.5,0,3.7-0.6c1.6-0.9,3.3-1.1,5.1-0.7c1,0.2,2.1-0.2,3.1,0.2c0.3,0.1,0.6,0.4,0.9,0.6
		c0.1,0.1,0.1,0.2,0.1,0.3c-0.1,0.2-0.2,0.4-0.4,0.6c-0.2,0.1-0.5,0.2-0.7,0.2c-3-0.8-5.9,0.3-8.7,0.9c-1.6,0.3-3.1,0.3-4.6,0
		c-0.3-0.1-0.6-0.6-0.9-0.9c0.4-0.2,0.7-0.5,1.1-0.6C258.5,68.6,258.9,68.7,259.3,68.8z"/>
	<path d="M654.9,30.3c1.5-0.2,3.1-0.4,4.6-0.5c3-0.1,5.9-0.2,8.9-0.2c0.8,0,1.7,0.2,2,1.1c-1.7,1-3.7,0.4-5.4,1.2
		c-1.6,0.7-3.5,0.8-5.2,1.1c-0.4,0.1-0.9,0-1.5-0.1c2.2-1,4.4-0.8,6.8-2.1c-1.8-0.4-3.1-0.3-4.3-0.2c-1.3,0.1-2.6,0.3-3.9,0.4
		C656.2,31,655.5,31,654.9,30.3L654.9,30.3z"/>
	<path d="M220.8,30.3c1.4-0.2,2.8-0.4,4.2-0.5c3.1-0.1,6.2-0.2,9.3-0.3c0.8,0,1.6,0.2,2.1,1.1c-0.1,0.1-0.2,0.3-0.3,0.3
		c-3,0.1-5.7,1.3-8.7,1.8c-1,0.2-2,0.2-3.7,0.4c2.6-1.2,4.8-1,7.3-2.4c-2.2-0.3-3.6-0.3-5.1-0.1c-1.1,0.2-2.1,0.3-3.2,0.4
		C222.1,31,221.3,31,220.8,30.3L220.8,30.3z"/>
	<path d="M678.8,43.3c-0.2-1.5,0.7-2.5,1.9-3c2.4-1,4.9-1.7,7.6-1.1c1.5,0.4,3.1,0.3,4.6,0.4c0.6,0.1,1.2,0.1,1.4,1.1
		c-0.4,0.1-0.8,0.4-1.2,0.3c-1.8-0.1-3.6-0.2-5.3-0.5c-2.2-0.5-4.3,0.1-6.3,0.7C680.5,41.5,679.7,42.5,678.8,43.3L678.8,43.3z"/>
	<path d="M244.7,43.3c-0.2-1.6,0.6-2.5,1.9-3c2.4-1,4.9-1.7,7.6-1.1c1.5,0.4,3.1,0.3,4.6,0.4c0.6,0.1,1.2,0.1,1.4,1.1
		c-0.4,0.1-0.8,0.4-1.1,0.4c-1.8-0.1-3.6-0.1-5.3-0.5c-2.2-0.5-4.3,0.1-6.3,0.7C246.4,41.5,245.5,42.5,244.7,43.3L244.7,43.3z"/>
	<path d="M235.6,41.8c-1.5,2-2.9,2.5-4.4,3c-4.4,1.3-8.4,1.9-11.5,1.4c2.6-1.5,5.4-0.7,7.8-1.6C229.9,43.7,232.4,42.9,235.6,41.8z"
		/>
	<path d="M268.9,54.6c-0.4-0.4-1-0.6-1.3-1.1c-1.7-2.3-2.9-4.9-3.6-7.7c-0.5-2-0.4-2.2,1-4.5c0.3,1.1,0.3,1.1-0.5,3.9
		c0.7,2.5,1.9,4.8,3.3,7C268.3,52.9,269.1,53.6,268.9,54.6L268.9,54.6z"/>
	<path d="M174.8,210c-1.4-0.5-1.9-1.8-2.4-2.9c-0.5-1.1-0.6-2.3-0.1-3.5c0.1-0.3,0.5-0.4,0.8-0.5c0.2,0,0.4,0.2,0.6,0.3
		c0.1,0.1,0.2,0.2,0.2,0.3C174.5,204.9,174.9,208.1,174.8,210z"/>
	<path d="M696.5,73.2c1.8-0.8,3.3-0.5,4.7-0.6c1.3-0.2,2.5-0.3,4.1-0.5c-0.8,1.5-2.1,1.8-3.3,2.1C700.2,74.7,698.5,74.7,696.5,73.2z
		"/>
	<path d="M703.1,54.6c-3-2.6-4.3-6.1-5.1-9.8c-0.3-1.3,0.3-2.5,1.2-3.6c0.3,1.3,0.3,1.3-0.5,4.1c0.7,2.6,2,5,3.5,7.3
		C702.6,53.1,703.3,53.7,703.1,54.6L703.1,54.6z"/>
	<path d="M271.1,72.2c-0.9,1.5-2.3,1.8-3.7,2.1c-1.7,0.4-3.3,0.3-4.7-0.8c0.2-0.3,0.3-0.6,0.4-0.6C265.7,72.7,268.3,72.4,271.1,72.2
		z"/>
	<path d="M235.2,74.7c-2.6-1.7-3.5-4.4-4.3-7.2l-0.1,0.1c0.4,0,0.7,0.1,1.2,0.1C233.2,70,234.5,72.2,235.2,74.7L235.2,74.7z"/>
	<path d="M664.9,67.6c0.4,0,0.7,0.1,1.2,0.1c1.2,2.2,2.6,4.4,3.1,7l0.1,0C666.8,73,665.9,70.2,664.9,67.6L664.9,67.6z"/>
	<path d="M268.9,54.7c1.3,0.4,1.3,1.8,2.1,2.7c-0.3,1.1-0.5,2.2-0.8,3.2c-0.9,0.5-1.6,0.8-2.6,0.5c0.5-1.4,2.1-1.9,2.5-3.3
		C269.7,56.8,269.3,55.7,268.9,54.7L268.9,54.7z"/>
	<path d="M703,54.7c0.1,0,0.3,0,0.3,0c0.6,0.8,1.2,1.7,1.8,2.6c-0.3,1.2-0.6,2.3-0.8,3.2c-0.9,0.6-1.7,0.5-2.6,1
		c0.3-1.9,2.1-2.3,2.4-3.8C703.9,56.8,703.5,55.7,703,54.7L703,54.7z"/>
	<path d="M251.8,117.1c0.3-0.6,0.9-0.8,1.4-0.8c3.1-0.4,6.1-0.2,9.2,0.4c-1.8,0.5-3.6,0.4-5.4,0.4C255.2,117,253.4,117,251.8,117.1
		L251.8,117.1z"/>
	<path d="M680.4,83.5c0.9,0,1.4-0.2,1.9-0.1c2.6,0.5,5.3,1,7.9,1.7C686.9,85.7,683.9,85,680.4,83.5z"/>
	<path d="M246.9,83.6c3.2-0.2,6,1,9.3,1.2c-1.6,0.7-1.6,0.5-4.7,0.3C249.7,85,248.4,84.1,246.9,83.6z"/>
	<path d="M694.6,61.5c1.2-0.4,2.1-0.3,3.1-1c0.5-0.4,1.3-0.6,2-0.7c0.2,0,0.6,0.3,1,0.5c-1.2,1.5-2.8,1.5-4.2,1.8
		C695.9,62.2,695.2,61.7,694.6,61.5z"/>
	<path d="M266.3,60c0,1.4-1.1,1.5-1.9,1.7c-1.3,0.3-2.7,1.2-4-0.6c0.8,0,1.5,0.2,2,0c0.7-0.2,1.3-0.6,1.9-0.9
		C264.8,59.9,265.5,59.7,266.3,60z"/>
	<path d="M231.6,27.3c-0.1,0.3-0.2,0.7-0.3,1.2c-2.4,0-4.9-0.4-7.3-0.7c1.3-0.5,2.6-0.2,3.8-0.3C229.1,27.5,230.4,27.5,231.6,27.3
		L231.6,27.3z"/>
	<path d="M665.7,27.3c-0.1,0.3-0.2,0.7-0.3,1.2c-2.4,0-4.9-0.4-7.8-0.6c1.8-0.8,3.1-0.3,4.4-0.4C663.2,27.5,664.5,27.5,665.7,27.3
		L665.7,27.3z"/>
	<path d="M251.7,117c-0.2,1.2-1.1,1.8-2.1,2.1c-1,0.3-1.5,0.1-3.1-1C248.2,117.7,250,117.4,251.7,117L251.7,117z"/>
	<path d="M672.6,88.4c-0.9-1.6-1.4-3.2-1.8-5.2C672.3,84.7,672.5,85.2,672.6,88.4z"/>
	<path d="M238.5,88.2c-0.8-1.4-1.5-3-1.8-4.9C238,84.5,238,84.5,238.5,88.2z"/>
	<path d="M681.6,47.5c-0.6-0.2-0.7-0.6-0.3-1c0.7-0.6,1.4-1.2,2.4-1.1l-0.1-0.1c-0.2,0.5-0.4,1-0.7,1.6l0.1-0.1
		c-0.6,0.1-1.3,0.1-1.6,0.8L681.6,47.5z"/>
	<path d="M247.4,47.5c-0.6-0.2-0.7-0.6-0.3-1c0.7-0.6,1.4-1.3,2.4-1.1l-0.1-0.1c-0.2,0.5-0.4,1-0.7,1.6l0.1-0.1
		c-0.6,0-1.3,0.1-1.6,0.8L247.4,47.5z"/>
	<path d="M207,141c-0.2,0.3-0.4,0.6-0.6,0.8c-0.2-0.2-0.6-0.4-0.6-0.6c0-0.3,0.2-0.6,0.3-0.9C206.4,140.6,206.7,140.8,207,141z"/>
	<path d="M196.4,119.2c-0.6-0.3-1.2-0.7-1.8-1c0.4-1,1-0.5,1.3-0.2C196.2,118.3,196.2,118.8,196.4,119.2L196.4,119.2z"/>
	<path d="M258.1,20.2c0,0.5-0.1,1.1-0.1,1.6l0.1-0.1c-0.2,0-0.5,0-0.7-0.1l0.1,0.1c-0.3-0.3-0.6-0.6-0.9-0.8l0.1,0.1
		c-0.2-0.5-0.5-1-0.7-1.5l-0.1,0.1c0.5,0,1.1,0,1.6,0l-0.1-0.1c0.3,0.3,0.6,0.6,0.8,0.8L258.1,20.2z"/>
	<path d="M692.2,21.7c-0.2,0-0.5,0-0.7-0.1l0.1,0.1c-0.3-0.3-0.6-0.6-0.9-0.8l0.1,0.1c-0.2-0.5-0.5-1-0.7-1.5l-0.1,0.1
		c0.5,0,1.1,0,1.6,0l-0.1-0.1c0.3,0.3,0.6,0.6,0.8,0.8l-0.1-0.1C692.2,20.7,692.2,21.2,692.2,21.7L692.2,21.7z"/>
	<path d="M208.6,135.6c0.3,0.9-0.3,1.3-0.9,1.9c-0.1-0.4-0.3-0.7-0.2-0.9C207.7,136.1,208,135.6,208.6,135.6L208.6,135.6z"/>
	<path d="M689.3,100.5c0,0.5-0.1,1.1-0.1,1.6c-0.1,0-0.1,0-0.2,0c0-0.5,0-1.1,0-1.6C689.1,100.5,689.2,100.5,689.3,100.5z"/>
	<path d="M254.7,102c0-0.5,0.1-1,0.1-1.5c0.1,0,0.2,0,0.3,0c0,0.5-0.1,1-0.1,1.5C254.9,102,254.8,102,254.7,102z"/>
	<path d="M240.2,23.8c-0.6,0.6-1,1.5-2.2,1.4l0.1,0.1C238.4,24.1,239.3,24,240.2,23.8L240.2,23.8z"/>
	<path d="M674.3,23.8c-0.6,0.6-1,1.5-2.2,1.4l0.1,0.1C672.6,24.2,673.4,23.9,674.3,23.8L674.3,23.8z"/>
	<path d="M219.4,84.8c0.9,0.3,0.6,0.9,0.2,1.5C219.6,85.8,219.5,85.2,219.4,84.8L219.4,84.8z"/>
	<path d="M167,320c0.2-0.1,0.4-0.2,0.6-0.3c0.3,0,0.5,0.1,0.8,0.1c0,0,0,0.3,0,0.3c-0.2,0.1-0.4,0.3-0.6,0.3
		c-0.3-0.1-0.5-0.4-0.7-0.5L167,320z"/>
	<path d="M175.7,214.5c0.2-0.2,0.4-0.3,0.5-0.5c0.2,0.3,0.3,0.5,0.5,0.8c0,0-0.2,0.2-0.3,0.2C176.2,214.9,176,214.7,175.7,214.5z"/>
	<path d="M183.6,314.9c0.3,0.2,0.4,0.4,0.5,0.5c-0.3,0.2-0.5,0.3-0.8,0.4c0,0-0.2-0.2-0.2-0.2C183.2,315.4,183.4,315.2,183.6,314.9z
		"/>
	<path d="M237.2,115.8C236.8,115.9,237,115.9,237.2,115.8C237,115.9,236.8,115.9,237.2,115.8z"/>
	<path d="M268.3,43.3c0.3-0.2,0.5-0.4,0.8-0.5c0.1,0,0.2,0,0.3,0c-0.1,0.1-0.1,0.2-0.2,0.2C268.9,43.1,268.6,43.1,268.3,43.3
		L268.3,43.3z"/>
	<path d="M240.6,116.8c-0.6-0.1-0.8-0.1-1.1-0.1c0.1,0,0.3-0.1,0.4-0.1C240.1,116.5,240.2,116.6,240.6,116.8z"/>
	<path d="M249.5,45.3c0.3-0.7,0.8-0.8,1.8-0.2C250.5,45.2,250,45.2,249.5,45.3L249.5,45.3z"/>
	<path d="M683.7,45.3c0.4-0.6,0.9-0.9,1.7-0.1C684.6,45.2,684.1,45.2,683.7,45.3L683.7,45.3z"/>
	<path d="M257.1,135.6c-0.2,0.1-0.4,0.3-0.5,0.3c-0.2-0.2-0.3-0.4-0.5-0.6c0.2,0,0.4-0.1,0.6-0.1C256.9,135.1,257,135.4,257.1,135.6
		z"/>
	<path d="M700.6,64.3c0,0.1,0.1,0.2,0.1,0.3c-0.1,0-0.3,0.1-0.4,0.1c0-0.1,0-0.2,0-0.3C700.4,64.3,700.5,64.3,700.6,64.3z"/>
	<path d="M266.5,64.3c0,0.1,0.1,0.2,0.1,0.3c-0.1,0-0.2,0.1-0.4,0.1c0-0.1,0-0.2,0-0.3C266.3,64.3,266.4,64.3,266.5,64.3z"/>
	<path d="M177.6,312.4c0.1,0,0.2-0.1,0.3-0.1c0,0.1,0.1,0.2,0.1,0.4c-0.1,0-0.2,0-0.3-0.1C177.6,312.6,177.6,312.5,177.6,312.4z"/>
	<path d="M659.2,22.5c0.2,0,0.4-0.1,0.6,0c0.1,0,0.1,0.2,0.2,0.4c-0.1,0-0.2,0-0.3,0C659.6,22.7,659.4,22.5,659.2,22.5L659.2,22.5z"
		/>
	<path d="M701.8,43.6c-0.2,0-0.3,0.1-0.4,0.1c0,0,0-0.1-0.1-0.2C701.5,43.5,701.6,43.5,701.8,43.6z"/>
	<path d="M268.2,43.2c-0.3,0.1-0.5,0.3-0.3,0.1C267.7,43.4,268,43.3,268.2,43.2L268.2,43.2z"/>
	<polygon points="703.9,42.9 703.6,42.9 703.6,42.7 	"/>
	<polygon points="234.6,115.3 234.3,115.2 234.6,115.2 	"/>
	<polygon points="231.6,114.5 231.6,114.6 231.4,114.5 	"/>
	<path d="M225.1,22.5c0.2,0,0.4,0,0.6,0c0.1,0,0.1,0.2,0.2,0.4c-0.1,0-0.2,0-0.3,0C225.4,22.7,225.3,22.5,225.1,22.5L225.1,22.5z"/>
	<polygon points="675.4,95.6 675.5,95.3 675.6,95.6 	"/>
	<polygon points="241.3,95.7 241.2,95.4 241.4,95.4 	"/>
	<path d="M692.2,21.8c0.3,0,0.6,0.1,0.3,0C692.7,21.9,692.5,21.8,692.2,21.8L692.2,21.8z"/>
	<path d="M188.1,315.9c0.2-0.1,0.4-0.2,0.6-0.2c0.1,0,0.2,0.1,0.2,0.2c-0.2,0.1-0.4,0.2-0.6,0.2C188.3,316.1,188.2,316,188.1,315.9z
		"/>
	<path d="M242.3,81.3c0.6-0.1,1.2-0.1,1.5,0.5l0.1-0.1C243.4,81.6,242.9,81.4,242.3,81.3L242.3,81.3z"/>
	<path d="M678.1,81.8c-0.5-0.2-1-0.4-1.5-0.5l-0.1,0.1C677,81.3,677.6,81.3,678.1,81.8L678.1,81.8z"/>
	<path d="M258,21.8c0.3,0,0.6,0.1,0.3,0C258.6,21.9,258.3,21.8,258,21.8L258,21.8z"/>
	<path d="M177.5,223.5c-0.1-0.2-0.2-0.4-0.2-0.6c0-0.1,0.1-0.2,0.2-0.2c0.1,0.1,0.2,0.2,0.2,0.2
		C177.6,223.1,177.5,223.3,177.5,223.5z"/>
	<path d="M674.3,23.1c0.1,0.2,0.1,0.3,0.2,0.5c0,0.1-0.1,0.2-0.1,0.3l0.1,0C674.4,23.6,674.4,23.3,674.3,23.1L674.3,23.1z"/>
	<path d="M233.8,35.3c0.1-0.2,0.1-0.3,0.2-0.5C234.4,35.3,234.1,35.3,233.8,35.3L233.8,35.3z"/>
	<path d="M236.7,35.3c0.1-0.2,0.1-0.3,0.2-0.5c0.1,0.1,0.2,0.2,0.3,0.3C236.9,35.1,236.8,35.2,236.7,35.3L236.7,35.3z"/>
	<path d="M670.8,35.3c0.1-0.2,0.1-0.3,0.2-0.5c0.1,0.1,0.2,0.2,0.3,0.3C671.1,35.1,670.9,35.2,670.8,35.3L670.8,35.3z"/>
	<path d="M236.6,35.3c0,0.5-0.2,0.8-0.7,0.7c0,0,0.1,0.1,0.1,0.1C235.9,35.5,236.1,35.3,236.6,35.3L236.6,35.3z"/>
	<path d="M670.8,35.3c0.1,0.5-0.2,0.8-0.7,0.7c0,0,0.1,0.1,0.1,0.1C670,35.5,670.3,35.3,670.8,35.3L670.8,35.3z"/>
	<path d="M222.2,36.8c0.3,0.3,0.5,0.5,0.8,0.8l0.1-0.1C222.6,37.4,222.3,37.2,222.2,36.8L222.2,36.8z"/>
	<path d="M656.4,36.8c0.3,0.3,0.5,0.5,0.8,0.8l0.1-0.1C656.7,37.4,656.5,37.2,656.4,36.8L656.4,36.8z"/>
	<path d="M244.6,43.2C244.4,43.4,244.7,43.2,244.6,43.2L244.6,43.2z"/>
	<polygon points="271.6,43.6 271.3,43.6 271.4,43.5 	"/>
	<path d="M678.7,43.2C678.4,43.5,678.9,43.1,678.7,43.2L678.7,43.2z"/>
	<polygon points="705.6,43.7 705.5,43.5 705.7,43.5 	"/>
	<polygon points="235.1,74.7 235.3,74.8 235.2,74.7 	"/>
	<polygon points="669.3,74.7 669.5,74.8 669.3,74.7 	"/>
	<polygon points="241.6,80.4 241.5,80.3 241.6,80.5 	"/>
	<polygon points="675.8,80.4 675.6,80.3 675.7,80.5 	"/>
	<path d="M260.3,20.9c-0.5,0-0.8-0.1-0.7-0.7l-0.1,0.1C259.8,20.5,260,20.7,260.3,20.9L260.3,20.9z"/>
	<path d="M694.5,20.9c-0.5,0-0.8-0.2-0.7-0.7l-0.1,0.1C694.2,20.3,694.5,20.5,694.5,20.9L694.5,20.9z"/>
	<path d="M261,21.7c-0.2-0.3-0.4-0.5-0.6-0.8l-0.1,0.1C260.5,21.2,260.7,21.5,261,21.7L261,21.7z"/>
	<path d="M695.1,21.7c-0.2-0.3-0.4-0.5-0.6-0.8l-0.1,0.1C694.9,21,695.1,21.2,695.1,21.7L695.1,21.7z"/>
	<polygon points="260.9,21.7 261.1,21.8 261,21.7 	"/>
	<path d="M263.1,21.7c0.2,0.1,0.3,0.1,0.5,0.2c-0.1,0.1-0.2,0.2-0.3,0.3C263.3,22,263.3,21.8,263.1,21.7L263.1,21.7z"/>
	<polygon points="695.1,21.7 695.2,21.8 695.1,21.7 	"/>
	<path d="M697.3,21.7c0.2,0.1,0.4,0.1,0.5,0.2c-0.1,0.1-0.2,0.2-0.3,0.3C697.5,22,697.4,21.8,697.3,21.7L697.3,21.7z"/>
	<path d="M223.1,23.1c-0.5,0-0.8-0.2-0.7-0.7c0,0-0.1,0.1-0.1,0.1C222.8,22.4,223,22.7,223.1,23.1L223.1,23.1z"/>
	<path d="M657.2,23.1c-0.5,0-0.7-0.2-0.7-0.7c0,0-0.1,0.1-0.1,0.1C657,22.4,657.2,22.6,657.2,23.1C657.1,23.1,657.2,23.1,657.2,23.1
		z"/>
	<path d="M240.2,23.1c0.1,0.2,0.1,0.3,0.2,0.5c0,0.1-0.1,0.2-0.1,0.3l0.1,0C240.3,23.6,240.3,23.3,240.2,23.1L240.2,23.1z"/>
	<path d="M241.6,80.5c0.2,0.3,0.5,0.6,0.7,0.8l0.1-0.1C242.1,81,241.9,80.7,241.6,80.5L241.6,80.5z"/>
	<path d="M676.5,81.2c-0.2-0.3-0.5-0.6-0.7-0.8l-0.1,0.1C676,80.8,676.2,81,676.5,81.2L676.5,81.2z"/>
	<path d="M244.5,82.6c-0.2-0.3-0.4-0.5-0.6-0.8l-0.1,0.1C244,82.1,244.2,82.4,244.5,82.6L244.5,82.6z"/>
	<path d="M678.7,82.6c-0.2-0.3-0.4-0.5-0.6-0.8l-0.1,0.1C678.2,82.1,678.4,82.4,678.7,82.6L678.7,82.6z"/>
	<path d="M244.4,82.7c0.1,0,0.2,0.1,0.3,0.1C244.7,82.7,244.6,82.6,244.4,82.7L244.4,82.7z"/>
	<path d="M678.6,82.7c0.1,0,0.2,0,0.3,0.1C678.8,82.7,678.7,82.6,678.6,82.7L678.6,82.7z"/>
	<polygon points="196.4,119.2 196.6,119.3 196.4,119.2 	"/>
	<path d="M208.7,135.7c0.1-0.1,0.2-0.2,0.3-0.3c0,0.1,0,0.2,0,0.2C208.9,135.7,208.7,135.6,208.7,135.7L208.7,135.7z"/>
	<polygon points="200.8,148.5 200.6,148.7 200.8,148.6 	"/>
	<path d="M193.7,155.1c0.1-0.1,0.2-0.2,0.3-0.4c0,0.1,0,0.2-0.1,0.2C193.8,155,193.7,155,193.7,155.1L193.7,155.1z"/>
	<path d="M193.6,155c0,0.2-0.1,0.3-0.1,0.5C192.9,155,193.4,155.1,193.6,155L193.6,155z"/>
	<path d="M205.2,420.4c1.2-2.1,1.7-4.7,3.8-6.1c0.1-2.7,0.1-2.7,1.1-4.1c0.2,0.2,0.6,0.4,0.7,0.7c0.3,1.8,0.1,3.5-0.5,5.2
		C209.5,418.7,207.7,420,205.2,420.4L205.2,420.4z"/>
	<path d="M203.3,442.8c0.2-1.3,0.2-2.7,0.9-4c0.3-0.7,1-1.1,1.3-0.8c0.2,0.3,0.4,0.9,0.3,1.2c-0.5,1.3-1.1,2.5-1.7,3.7
		C203.7,442.9,203.5,442.8,203.3,442.8z"/>
	<path d="M196.2,411c0.7,2-0.4,3.5-0.9,5C195.4,414.4,194.5,412.6,196.2,411z"/>
	<path d="M201.2,452.9c-0.7-2-0.6-2,0.4-3.6C202.2,450.6,202.2,450.6,201.2,452.9z"/>
	<path d="M185.2,533.3c-0.2,0.2-0.3,0.3-0.5,0.4c-0.1-0.2-0.2-0.4-0.2-0.6c0-0.1,0.2-0.3,0.4-0.4C185,532.9,185.1,533.1,185.2,533.3
		z"/>
	<path d="M205.1,420.3c-0.1,0.1-0.1,0.2-0.2,0.3C205,420.5,205.1,420.4,205.1,420.3L205.1,420.3z"/>
	<path d="M276.5,416.7c0.2-1.9,0.2-3.4,0.5-4.9c0.1-0.7,0.4-1.4,0.8-1.9c0.5-0.5,1-0.2,1.5,0.4c-0.4,1.2-0.7,2.5-1.1,3.6
		c1,2.7,1.9,5.3,2.8,7.9c0.3,0.9,0.5,1.9-0.3,2.7C278.8,423.1,278.8,423.1,276.5,416.7z"/>
	<path d="M280.6,441.4c0.8,0.6,1.4,0.7,1.5,1.1c0.8,2.9,1.8,5.8,1.6,9.1C282.5,450,281.4,446.4,280.6,441.4z"/>
	<path d="M282.5,456.5c2.1,2.1,0.9,4.4,2.2,5.9c-0.9,0.7-1.2,0.2-1.4-0.1C282.2,460.7,282.1,459,282.5,456.5z"/>
	<path d="M291.2,413.7c1.7,1.9,1.7,2,0.7,5.4c-0.2-0.1-0.5-0.2-0.5-0.3C291.4,417.3,291.3,415.8,291.2,413.7z"/>
	<path d="M287.7,515.1c0.3,1.5-0.3,2.5-0.5,3.5C287,516.8,287,516.8,287.7,515.1z"/>
	<path d="M288,525.8c-1.2-0.9-0.9-1.7,0.2-2.8C288.1,524.2,288,525,288,525.8z"/>
	<path d="M283.4,471c0-0.7,0-1.4,0-2.2C284.4,470.3,284.4,470.3,283.4,471z"/>
	<path d="M288.2,530.7c-0.4,0.3-0.5,0.5-0.7,0.5c-0.6-0.1-0.6-0.6-0.5-1c0-0.1,0.4-0.4,0.4-0.3C287.7,530.1,288,530.4,288.2,530.7z"
		/>
	<path d="M118.2,268.6c0.8-0.5,1.4-0.4,1.9,0.4C119.3,269.3,118.8,269.2,118.2,268.6z"/>
	<path d="M116.2,367.3c0.2-0.1,0.5-0.3,0.2-0.1C116.7,367.1,116.4,367.2,116.2,367.3L116.2,367.3z"/>
	<path d="M116.1,367.2c0,0.1,0,0.2-0.1,0.3C116.1,367.4,116.2,367.3,116.1,367.2L116.1,367.2z"/>
	<path d="M251.4,242.5c0.9-0.9,1.5-1.5,2-2c1.3,0,2.2,0.3,2.8,1.1c0.3,0.4,0.3,1.4-0.1,1.6c-0.8,0.3-1.5,0.5-2.3,0.7
		C253.2,244,253.1,243.9,251.4,242.5z"/>
	<path d="M272.4,237.5c0,0.6,0,1.2,0,1.7c0,0.6,0,1.2,0,1.9C271.3,239.6,271.3,239.6,272.4,237.5z"/>
	<path d="M218.7,203c-1.7,0-2.4-1.4-3.3-2.4c0.3-0.1,0.6-0.4,0.6-0.3C217.1,201.1,218.2,201.8,218.7,203L218.7,203z"/>
	<path d="M210.6,254.1c0.3,0.7,0.5,1,0.5,1.3c0,0.1-0.2,0.3-0.3,0.4c-0.2-0.1-0.4-0.2-0.5-0.4C210.3,255.3,210.4,255.1,210.6,254.1z
		"/>
	<path d="M271.5,255.4c0,0-0.1,0-0.1,0c0-0.2,0-0.4,0-0.6c0,0,0.1,0,0.1,0C271.5,255,271.5,255.2,271.5,255.4z"/>
	<polygon points="282.3,261.1 282.2,261.4 282.1,261.1 	"/>
	<path d="M270.4,258.3c0.1-0.3,0.1-0.6,0.1-0.2C270.6,257.7,270.5,258,270.4,258.3L270.4,258.3z"/>
	<polygon points="223.4,206.9 223.5,207.1 223.3,207.1 	"/>
	<polygon points="270.3,258.2 270.2,258.4 270.4,258.3 	"/>
	<path d="M279.6,264.7c0.1-0.1,0.2-0.2,0.4-0.2c0,0.1-0.1,0.2-0.1,0.2C279.8,264.7,279.6,264.6,279.6,264.7L279.6,264.7z"/>
	<path d="M218.7,203.1c0.1,0,0.2,0.1,0.3,0.1C218.9,203.1,218.8,203.1,218.7,203.1L218.7,203.1z"/>
	<path d="M208.4,176.5c0.2,0,0.5-0.1,0.6,0c4.5,2.6,9.6,3.6,14.5,4.8c1.4,0.3,2.8,0.3,4.3,0.4c1.4,0.1,2.8-0.3,4.2,0.5
		c0.4,0.2,1.2,0,1.7-0.2c3.1-0.9,6.2-1.8,9.3-2.7c2.6-0.8,5.2-1.8,7.4-3.5c0.2-0.2,0.6-0.2,1.1-0.4c-0.1,0.5,0,0.9-0.1,1
		c-1.2,1.4-2.8,2.2-4.4,3c-4.3,1.9-8.8,2.8-13.4,3.5c-1.1,0.1-2.1,0.3-3.1,0.5c-2.6,0.6-5.2,0.6-7.8,0c-4.8-1.2-9.2-3.2-13.5-5.6
		c-0.4-0.2-0.6-0.7-0.8-1.1C208.2,176.7,208.4,176.6,208.4,176.5z"/>
	<path d="M206.2,173.1c-0.6-0.2-1-0.5-0.8-1.3C206.2,172,206.7,172.2,206.2,173.1z"/>
	<path d="M374.2,326.5c0.1-0.5,0.3-0.8,0.8-0.8C374.8,325.9,374.5,326.2,374.2,326.5z"/>
	<path d="M243.8,302.7c0.2-0.9-0.2-2,0.8-2.7l-0.1-0.1C244.4,300.8,244.7,301.9,243.8,302.7L243.8,302.7z"/>
	<path d="M245.3,297.8c-0.2,0.7,0,1.6-0.8,2.1l0.1,0.1C244.7,299.2,244.2,298.2,245.3,297.8L245.3,297.8z"/>
	<path d="M245.4,297.9c0-0.6-0.1-1.1-0.1-1.9C246.1,296.8,245.5,297.3,245.4,297.9L245.4,297.9z"/>
	<path d="M243.7,302.6c-0.1,0.3-0.1,0.5-0.1,0.4C243.6,303.1,243.7,302.9,243.7,302.6L243.7,302.6z"/>
	<path d="M297,215.5c-2.2-0.2-4.4-0.6-6-2.3c-0.3-0.3-0.5-0.9,0-1.2c0.2-0.2,0.7-0.3,0.9-0.2C293.7,212.7,295.5,213.9,297,215.5z"/>
	<path d="M301.6,282.5c1.5,2,1.4,3.5,1.4,5c0,0.2-0.4,0.6-0.7,0.6c-0.3,0-0.7-0.3-0.8-0.5C300.9,286.2,301,284.7,301.6,282.5z"/>
	<path d="M300.7,278.1c0.4,0.8,0.6,1.3,0.8,1.8c0,0.1-0.2,0.4-0.3,0.5c-0.2,0.1-0.5,0-0.6-0.2C300.2,279.8,300,279.3,300.7,278.1z"
		/>
	<path d="M307.1,316.8c0-0.1,0.1-0.3,0.1-0.3c0.4-0.1,0.8-0.2,1.2-0.3c0,0.1,0.1,0.2,0,0.3c-0.2,0.5-0.6,0.7-1.1,0.5
		C307.3,317,307.2,316.9,307.1,316.8z"/>
	<path d="M314.7,313.4c-0.9,0.4-1.2,0.7-1.4,0.6c-0.2-0.1-0.4-0.4-0.6-0.7c0.2-0.2,0.5-0.4,0.7-0.5
		C313.8,312.9,314.1,313.1,314.7,313.4z"/>
	<path d="M299.7,276.2c-1-0.3-0.6-0.9-0.1-1.5C299.7,275.2,299.7,275.7,299.7,276.2L299.7,276.2z"/>
	<path d="M309.2,311.3c0.2,0.2,0.5,0.3,0.5,0.4c0,0.3-0.1,0.6-0.2,0.9c-0.2-0.1-0.4-0.2-0.4-0.3
		C309.1,311.9,309.2,311.6,309.2,311.3z"/>
	<path d="M299.2,216.8c0.3-0.2,0.4-0.3,0.5-0.4c0.2,0.2,0.4,0.5,0.5,0.7c-0.1,0.1-0.2,0.2-0.3,0.2
		C299.7,217.1,299.5,216.9,299.2,216.8z"/>
	<path d="M289.2,209.2c-0.2,0.1-0.4,0.2-0.6,0.1c-0.1-0.1-0.1-0.4-0.2-0.6c0.2,0,0.4-0.2,0.5-0.1C289,208.8,289.1,209,289.2,209.2z"
		/>
	<path d="M308.1,306c0,0.1,0.1,0.2,0.1,0.3c0,0.1-0.1,0.2-0.2,0.3c0-0.1-0.1-0.2-0.1-0.3C307.9,306.2,308,306.1,308.1,306z"/>
	<path d="M295.5,137.8c-0.2-0.2-0.3-0.5-0.1-0.2C295.3,137.3,295.3,137.6,295.5,137.8L295.5,137.8z"/>
	<path d="M299.7,276.2c0.1,0,0.2,0,0.2,0.1C299.8,276.3,299.8,276.2,299.7,276.2L299.7,276.2z"/>
	<path d="M206.3,576.1c-1.3,1-2.9,1.7-4.4,1.9c-1.8,0.2-3.6-0.2-5.3-0.8c-0.3-0.1-0.6-0.4-0.8-0.6c-0.5-0.5-0.3-1.6,0.4-1.8
		c0.5-0.1,0.9-0.2,1.4-0.2c2.6,0.3,5.2,0.7,7.8,1C205.7,575.6,206,575.9,206.3,576.1z"/>
	<path d="M173.4,580.1c-0.4-0.1-0.7-0.1-0.8-0.2c-0.7-2.1-1.3-4.2-1.1-6.9C173.8,575.2,173.7,577.6,173.4,580.1z"/>
	<path d="M223.2,18.7c-0.6,0-1.2,0-2.1-0.1c1-0.8,1.5-0.3,2,0.2L223.2,18.7z"/>
	<polygon points="221.5,40.4 221.8,40.4 221.6,40.3 	"/>
	<path d="M639.3,420.4c0.6-1.3,1.2-2.6,1.9-3.8c0.5-0.9,1.3-1.7,2.1-2.7c0.4-1-0.6-2.6,0.9-3.7c0.3,0.3,0.7,0.5,0.7,0.7
		c-0.1,1.6,0,3.3-0.4,4.9C643.9,418.5,642,420,639.3,420.4L639.3,420.4z"/>
	<path d="M637.5,442.7c0.2-1.8,0.2-3.6,2-5.2c0.2,0.6,0.5,1.1,0.4,1.4c-0.5,1.4-1.2,2.7-1.8,4.1
		C637.9,442.9,637.7,442.8,637.5,442.7z"/>
	<path d="M629.4,416c0.3-1.5-0.8-3.4,1-4.9C631,413,630.1,414.5,629.4,416z"/>
	<path d="M635.2,452.9c-0.4-2.3-0.4-2.3,0.7-3.6C636.2,451.1,636.2,451.1,635.2,452.9z"/>
	<path d="M619.3,533.3c-0.1,0-0.2,0.1-0.3,0.1c-0.1-0.2-0.1-0.4-0.2-0.6c0,0,0.2-0.1,0.3-0.1C619.2,532.9,619.2,533.1,619.3,533.3z"
		/>
	<path d="M639.2,420.3c-0.1,0.1-0.1,0.2-0.2,0.3C639.2,420.5,639.2,420.4,639.2,420.3L639.2,420.3z"/>
	<path d="M710.7,416.8c0.2-2.1,0.3-3.6,0.5-5.1c0.1-0.7,0.4-1.4,0.8-1.9c0.5-0.5,1.1-0.3,1.5,0.5c-0.3,1.1-0.7,2.4-1.1,3.6
		c1,2.7,1.9,5.4,2.8,8c0.3,0.9,0.4,1.8-0.6,2.7C712,422.4,711.9,419,710.7,416.8z"/>
	<path d="M715.3,441.8c0.3,0.2,0.9,0.4,1,0.7c0.8,2.9,1.8,5.8,1.6,9c-0.3-0.2-0.6-0.2-0.7-0.4c-0.9-2.9-1.7-5.8-2.5-8.8
		C714.9,442.1,715.1,442,715.3,441.8z"/>
	<path d="M718.5,463.1c-2.2-1.7-2.2-3.7-1.7-6C718.1,458.3,718.2,458.5,718.5,463.1z"/>
	<path d="M725.7,414.1c0.3,0.3,0.8,0.5,0.9,0.8c0.4,1.3,0.3,1.7-0.7,4.7C725.5,417.5,725.8,415.9,725.7,414.1z"/>
	<path d="M722.2,515.1c-0.3,1.5-0.5,2.4-0.7,3.4c-0.2-0.2-0.3-0.3-0.3-0.5C721.1,517.1,720.9,516.2,722.2,515.1z"/>
	<path d="M722.1,526.4c-1.2-1.5-0.7-2.3,0-3.3C722.4,524.2,722.1,525,722.1,526.4z"/>
	<path d="M717.7,471.6c-0.1-1.4-0.2-2-0.2-2.8C718.6,469.5,718.8,470.1,717.7,471.6z"/>
	<path d="M721.4,531.3c-0.1-0.5-0.2-0.9-0.2-1.2c0-0.1,0.4-0.3,0.5-0.3c0.5,0.2,0.6,0.6,0.4,1.1C722.1,531,721.8,531,721.4,531.3z"
		/>
	<path d="M555,164.1c-1.6,0.3-2.9,0.5-4.4-0.1C552,163.2,552,163.2,555,164.1z"/>
	<path d="M544.6,162.2c1.3,0.3,2.6,0.7,3.9,1c0.1,0.9-0.4,0.8-0.8,0.7C546.5,163.7,545.1,163.7,544.6,162.2L544.6,162.2z"/>
	<path d="M568.2,65.3c-0.6-0.2-1.2-0.4-1.9-0.7c0.2-0.8,0.7-0.6,1.1-0.4c0.4,0.2,0.7,0.5,1,0.7C568.3,65.1,568.3,65.2,568.2,65.3z"
		/>
	<path d="M560,163.1c0.1,0,0.2-0.1,0.3-0.1c0,0.1,0,0.2,0.1,0.3c-0.1,0-0.2,0-0.3,0C560.1,163.3,560.1,163.2,560,163.1z"/>
	<path d="M685.6,242.7c0.9-0.9,1.5-1.6,2.1-2.2c1.1-0.1,1.9,0.2,2.6,1c0.5,0.5,0.4,1.6-0.2,1.9C688.7,244.1,687.2,244.3,685.6,242.7
		z"/>
	<path d="M652.9,203c-1.6-0.1-2.4-1.4-3.4-2.4C651,200.7,651,200.7,652.9,203L652.9,203z"/>
	<path d="M706.4,241.8c-0.9-1.9-1-3.1,0-5C706.4,238.7,706.4,239.9,706.4,241.8z"/>
	<path d="M644.3,255.3c0.2-0.2,0.3-0.3,0.5-0.4c0.2,0.3,0.4,0.5,0.5,0.8c0,0-0.2,0.2-0.2,0.2C644.8,255.7,644.6,255.5,644.3,255.3z"
		/>
	<path d="M704.9,257.2c0,0.1,0.1,0.2,0.1,0.3c0,0.1-0.1,0.2-0.2,0.3c0-0.1-0.1-0.2-0.1-0.3C704.7,257.4,704.8,257.3,704.9,257.2z"/>
	<path d="M705.6,255.6c0,0-0.1,0-0.1,0.1c0-0.1,0-0.2,0-0.3c0,0,0.1,0,0.1-0.1C705.6,255.4,705.6,255.5,705.6,255.6z"/>
	<polygon points="657.5,207.2 657.4,207 657.6,207 	"/>
	<path d="M713.8,264.7c0.1-0.1,0.3-0.1,0.4-0.2c-0.1,0.1-0.1,0.2-0.2,0.2C713.9,264.7,713.8,264.6,713.8,264.7L713.8,264.7z"/>
	<path d="M652.8,203.1c0.1,0,0.2,0.1,0.3,0.1C653,203.1,652.9,203.1,652.8,203.1L652.8,203.1z"/>
	<path d="M665.8,302c-0.3,0-0.8,0-1-0.1c-4-2.2-8.3-3.4-12.6-4.8c-0.5-0.2-1.2-0.1-1.4-0.9l-0.1,0.1c0.6,0,1.2-0.1,1.7,0.1
		c3.7,1,7.4,2.1,10.9,3.8C664.3,300.6,665.4,300.9,665.8,302L665.8,302z"/>
	<path d="M685.6,275.5c0.7,3.4,0.5,8-0.6,10.7c-0.7-0.5-0.5-1.2-0.5-1.8c0.1-2.8,0.4-5.7,0.6-8.5
		C685.1,275.7,685.4,275.6,685.6,275.5z"/>
	<path d="M707.4,290.6c1.4-1.2,3.1-1.5,4.9-1.5l-0.1-0.1C710.7,290.2,710,290.4,707.4,290.6L707.4,290.6z"/>
	<path d="M684.3,292.1c0,1.4,0,2.3,0,3.2C683.7,294.5,683.7,293.6,684.3,292.1z"/>
	<path d="M712.3,289.1c0.8-0.9,1.9-0.7,2.9-0.7l-0.1-0.1C714.4,289.4,713.3,289.1,712.3,289.1L712.3,289.1z"/>
	<path d="M667.9,303.4c-1-0.1-1.8-0.4-2.2-1.4l-0.1,0.1C666.8,302,667.5,302.5,667.9,303.4L667.9,303.4z"/>
	<path d="M650.8,296.2c-0.5,0-1.1,0-1.9,0C649.8,295.4,650.3,295.6,650.8,296.2L650.8,296.2z"/>
	<path d="M707.3,290.5c-0.4,0.8-0.9,0.9-1.7,0.2C706.3,290.7,706.9,290.6,707.3,290.5L707.3,290.5z"/>
	<path d="M715.2,288.4c0.2-0.1,0.3-0.3,0.5-0.4c0,0,0.2,0.1,0.3,0.1C715.7,288.2,715.4,288.3,715.2,288.4L715.2,288.4z"/>
	<polygon points="656.4,290.2 656.4,290.1 656.7,290.2 	"/>
	<path d="M681.9,310.5c0,0.1,0.1,0.2,0.1,0.3c0,0.1-0.1,0.2-0.1,0.2c0-0.1-0.1-0.2-0.1-0.3C681.8,310.6,681.9,310.5,681.9,310.5z"/>
	<polygon points="658.5,290.9 658.8,290.9 658.5,291 	"/>
	<path d="M661.4,292c-0.2-0.1-0.4-0.2-0.6-0.2c0-0.1,0-0.1,0.1-0.2C661,291.8,661.1,291.9,661.4,292L661.4,292z"/>
	<path d="M661.3,292.1c0.2,0,0.5,0.1,0.7,0.1c-0.1,0-0.2,0-0.3-0.1C661.6,292.1,661.5,292,661.3,292.1L661.3,292.1z"/>
	<polygon points="710.9,295.2 711.1,295.2 710.9,295.3 	"/>
	<polygon points="712.9,294.4 713.2,294.4 713.2,294.6 	"/>
	<path d="M667.9,303.5c0.1,0.1,0.3,0.2,0.4,0.3c-0.1,0-0.2,0-0.2-0.1C668,303.6,668,303.5,667.9,303.5L667.9,303.5z"/>
	<path d="M647.1,143.6c0,0.7-0.1,1.4-0.1,2.3C646.6,144.6,646.6,144.6,647.1,143.6L647.1,143.6z"/>
	<path d="M690.9,135c0.1,0.2,0.2,0.5,0.3,0.7c-0.2,0-0.4,0.1-0.6,0.1c-0.2-0.1-0.2-0.3-0.4-0.5C690.5,135.2,690.7,135.1,690.9,135z"
		/>
	<path d="M645.8,148.7c0-0.2,0-0.4,0-0.7c0-0.1,0.1-0.2,0.1-0.3c0.1,0.2,0.3,0.4,0.2,0.5C646.1,148.3,645.8,148.4,645.8,148.7
		C645.7,148.6,645.8,148.7,645.8,148.7z"/>
	<path d="M647.2,143.6c0.1-0.3,0.1-0.6,0-0.3C647.4,143.1,647.3,143.3,647.2,143.6L647.2,143.6z"/>
	<path d="M639,133.2c-0.6,1.2-1.6,0.9-2.3,0.8c-2-0.2-3.4-0.9-5.1-2.3c1.4-0.7,2.5,0.4,3.7,0.7C636.5,132.6,637.7,132.9,639,133.2z"
		/>
	<path d="M624.7,202.6c0.6,2,0.3,3.9,0.2,6.4c-0.6-0.8-1.1-1.1-1.1-1.4c-0.1-1.4,0-2.8,0-4.3C623.9,203.1,624.3,202.9,624.7,202.6z"
		/>
	<path d="M640.5,138.5c0.4,1.4,0.5,2.6-0.1,3.8c-1.1-0.2-1-1-1-1.6C639.3,139.9,639.1,139,640.5,138.5z"/>
	<path d="M638.2,149.1c-0.4-1-0.6-1.7,0.5-2.2C639.2,147.6,639.1,148.3,638.2,149.1z"/>
	<path d="M614.4,189.7c-0.5-0.9-0.7-1.8,0-2.7C615.1,188,615,188.8,614.4,189.7z"/>
	<path d="M623.7,199.6c0-0.4,0-0.7,0.1-1c0.1,0.2,0.2,0.5,0.2,0.7C624,199.4,623.8,199.4,623.7,199.6z"/>
	<path d="M643.9,124.3c0.1,0.3,0.1,0.6,0.2,0.9c-0.2,0-0.4,0.1-0.5,0c-0.2-0.1-0.3-0.4-0.3-0.6C643.3,124.6,643.6,124.5,643.9,124.3
		z"/>
	<path d="M757.9,148.8c0.6,1.8,0.3,3.4-0.6,5.2C756.5,151.6,756.6,150.5,757.9,148.8z"/>
	<path d="M757,135.9c0.5,1.5,0.5,1.5,0,3.1C756,137.4,756,137.4,757,135.9z"/>
	<path d="M731.5,204.3c0.3,0.7,0.5,1.2,0.6,1.7c0,0.1-0.2,0.4-0.4,0.4c-0.2,0-0.5-0.1-0.6-0.2C730.9,205.8,730.3,205.2,731.5,204.3z
		"/>
	<path d="M761.1,143.2c0.6-0.6,1.1-1.1,1.8-1.7c0.1,0.5,0.2,0.9,0.1,1.1C762.7,143.1,762.2,143.7,761.1,143.2z"/>
	<path d="M757,140.6c-0.1,0.2-0.1,0.4-0.2,0.6c0,0.1-0.2,0.2-0.3,0.2c-0.1-0.3-0.2-0.5-0.2-0.8c0-0.1,0.3-0.2,0.5-0.3
		C756.9,140.3,757,140.5,757,140.6z"/>
	<path d="M756.3,158.6c0-0.3,0.1-0.6,0.1-0.9c0.1,0,0.1,0,0.2,0c0,0.3-0.1,0.6-0.1,0.9C756.4,158.6,756.4,158.6,756.3,158.6z"/>
	<path d="M756.5,163.4c0,0.1,0.1,0.2,0.1,0.3c0,0.1-0.1,0.2-0.2,0.3c0-0.1-0.1-0.2-0.1-0.3C756.4,163.6,756.5,163.5,756.5,163.4z"/>
	<path d="M729.6,137.8c-0.1-0.2-0.3-0.5-0.1-0.2C729.4,137.3,729.5,137.6,729.6,137.8L729.6,137.8z"/>
	<path d="M733.1,210.2c-0.1,0-0.2-0.1-0.3-0.1c0,0,0-0.1,0-0.2C732.9,210,733,210.2,733.1,210.2L733.1,210.2z"/>
	<path d="M733.1,210.3c0.1,0,0.2,0,0.2,0C733.3,210.3,733.2,210.3,733.1,210.3L733.1,210.3z"/>
	<path d="M745.9,219.2c-0.1,0.1-0.2,0.2-0.3,0.2c-0.1,0-0.2-0.1-0.2-0.2c0.1-0.1,0.2-0.2,0.2-0.2C745.8,219,745.8,219.1,745.9,219.2
		z"/>
	<path d="M744.6,127.7c-0.1,0.1-0.2,0.2-0.3,0.4c0-0.1,0-0.2,0-0.2C744.4,127.8,744.6,127.8,744.6,127.7L744.6,127.7z"/>
	<path d="M640.5,576.3c-3.3,2-6.7,2.1-10.1,0.5c-0.5-0.3-1-0.8-0.7-1.4c0.2-0.4,0.7-0.8,1-0.8c3.2,0,6.4,0.3,9.5,1.3
		C640.3,575.9,640.4,576.1,640.5,576.3z"/>
	<path d="M607.2,580.1c-0.2-0.1-0.5-0.2-0.6-0.3c-0.5-2-1.2-4.1-1.1-6.6c0.6,0.5,1,0.6,1.2,1c0.9,1.7,1.1,3.6,0.9,5.5
		C607.6,579.8,607.4,579.9,607.2,580.1z"/>
	<path d="M657.3,18.7c-0.6,0-1.2,0-2-0.1c1-0.8,1.5-0.3,1.9,0.2L657.3,18.7z"/>
	<polygon points="655.6,40.4 655.9,40.4 655.7,40.3 	"/>
</g>
</svg>
