<?xml version="1.0" encoding="utf-8"?>
<!-- Generator: Adobe Illustrator 19.1.0, SVG Export Plug-In . SVG Version: 6.00 Build 0)  -->
<svg version="1.2" baseProfile="tiny" id="Layer_2" xmlns="http://www.w3.org/2000/svg" xmlns:xlink="http://www.w3.org/1999/xlink"
	 x="0px" y="0px" width="900px" height="600px" viewBox="144 97 900 600" xml:space="preserve">
<g>
	<path d="M829.5,129c0.4-1.8,2.5-1.5,3.5-2.9c-0.7-0.9-1.4-1.3-2.7-1.1c-3.4,0.7-6.9,1.3-10.4,2c-1.6,0.3-3,0.6-4.8,0.4
		c-1.8-0.3-3.5,1.3-5.5,2.1c-1.4-1-2.9-0.5-4.1,0.7c-1.1-0.8-1-1.6-0.4-2.4c2.6-0.4,4.1-2.6,6.8-3c-0.8-0.9-1.6,0.4-2-0.6
		c1.6-1.6,4.1-1.1,6.1-2.8c-7.4,0.3-9.7,1.1-11.3,3.8c1.3-0.1,2.2-1.4,3.6-1.1c-0.7,1.7-3,1.6-3.5,3.4c-0.4,0-0.9,0.1-1.3,0.1
		c-0.1-0.3-0.3-0.5-0.6-0.3c-0.5,0-0.9,0.4-1.4,0.1c-0.2-0.7,0.9-1.2,0.1-2c-1.6,1.1-2.5,3.1-3.9,4.4c-0.8-0.7,0.4-1.2-0.4-1.8
		c-4.9,4.4-6,10.8-8.8,16.7c2,0.3,3.8,0.3,5.6,0.8c0.9,0.3,1.5,0.6,1.5,1.6l0.1-0.1c-1.2,0.2-2.4,0.3-3.5-0.2
		c-1.2-0.5-2.5-0.7-4.1-0.2c-0.3,1.3,0.5,2.4,0.5,3.8c2.2,0.4,4.6-0.1,6,2c-1.2,0.9-1.4,2.6-2.7,3.3c-2.2,0.2-2.2-1.9-3.2-2.9
		c-1.6,4.6-2.9,9.1-2.6,14c0.1,2.2,0.5,4.3,1.1,6.3c1,3.2,1.9,6.4,2.5,9.7c0.4,2,1.1,3.9,2.6,5.5c1.7,0.8,3.6,0.9,5.5,1.7
		c-2.1,1-4.1,0-6.2-0.5c-1.9-1.9-2.6-4.4-3.2-7c-0.6-2.6-1.2-5.1-2.1-7.6c-2.2-5.8-2-11.7-0.3-17.6c0.8-2.8,1.5-5.6,0.8-8.4
		c-0.6-2.2,0.4-4,0.9-5.9c1.5-5.8,3.7-11.4,7.5-16.2c0.8-1,1.6-1.7,2.7-2.3c8.7-4.6,17.9-5.7,27.8-3.7c1.2-0.5,2.4-1.5,3.8-2
		c4.2-1.6,8-0.7,11.6,1.5c3.2,2,3.7,5.3,4,8.8c0.4,4.3-0.3,8.6-0.9,12.8c-0.7,4.8-0.2,9.6,0.4,14.3c0.4,3,1,6.1,0.5,8.9
		c-1.6,8.4-1.7,17.1-5.1,25.2c-0.1,0.3-0.4,0.6-0.8,0.8c0.6-4.1,1.8-8,2.4-12.1c0.6-4.4,0.9-8.8,1.4-13.2c0.5-4.3,0.6-8.6-0.2-13.1
		c-1.2,1.2-1.4,3-3.1,3.9c2.6,4.1,0.8,7.4-1.6,10.4c-0.3,7.8-2.7,15.2-3.8,23.5c2.1-2.7,2.2-5.3,2.8-7.7c0.6-2.5,1.1-5.1,1.6-7.7
		c0.6-2.5,1.2-5.1,1.9-8.2c0.9,3.3-0.1,5.8-0.6,8.3c-0.5,2.5-1.3,4.8-1.9,7.3c-0.2,1,0.9,0.5,1.2,1.2c-0.9,4.7-0.7,9.9-3.7,14.2
		c1.4,3,3.3,5.2,6,6.9c8.8,5.6,18.3,9.9,28,13.7c8,3.2,12.9,9,14.7,17.3c1,4.4,0.7,9.1,0,13.6c-0.7,4.1-0.3,8,0.8,12
		c1.4,4.8,1.9,9.9,3.4,14.6c1.3,4,1.6,8,0.8,12c-1.8,9.2,0.5,18.1,1.4,27.1c0.8,8.5,0.6,17,0.2,25.5c-0.1,2.9-1,5.7-1.6,8.5
		c-1.9,8-3.8,16.1-4.2,24.4c-0.2,3.4,0,6.7,1.6,9.8c3.4,6.3,4.4,13.1,4.5,20.1c0,1.4,0.2,2.9,0.8,4.2c1.2,0.6,2.4,0.3,3.6,0.3
		c15.8,0,31.6,0.1,47.5,0c2.1,0,4.2,0.6,6.6,0.6c0.4-3.4,0.7-6.5,1.1-9.7c0.6-4.5,1.4-9,2.9-13.3c0.6-1.7,1.3-3.3,2.2-4.9
		c1.8-3.2,4.3-5,8.2-4.8c1.7,0.1,3.3,0.1,5,0.2c3,0.2,4.8,1.8,6.2,4.2c1.8,3.2,2.8,6.6,3.6,10.1c1.4,5.8,1.9,11.8,2.3,18.2
		c18.5,0,36.9,0,55.1,0c3,3.3,1.4,6.4,0.5,9.8c-6,0.6-12,0-18.1,0c-6.2,0-12.5,0-18.7,0c-6.1,0-12.2,0-18.6,0
		c-0.3,3.3-0.7,6.5-1,9.6c-0.6,5.5-1.6,10.9-3.6,16.1c-0.3,0.8-0.6,1.6-0.9,2.3c-1.8,4.4-5.2,6.2-9.8,6.4c-6.7,0.3-9.1-1.1-11.6-7.2
		c-2.5-6.3-3.6-12.9-4.2-19.5c-0.2-2.5,0.1-5-0.7-7.7c-19,0-37.9,0-56.8,0c-1,1-1.4,2.5-2.9,3c-0.9,0.5-1.7-0.2-2.6-0.3
		c-1.7,1-3.4,2.3-5.5,1.3c-3.4-3.2-2.7-7.3-2.7-11.3c1.9,2.6,1.2,6.2,3.3,8.7c1.2,0.7,2.3,0.4,3.6,0.3c-0.3-3.8-0.5-7.5-1.3-11.2
		c1.4,0,1.5,0.7,1.7,1.4c0.6,2.2,1.1,4.4,1.1,6.7c0,1.3,0,1.3,1.8,2.6c1.6-1.2,1.4-2.8,1.3-4.5c-0.6-5.5-1.2-11.1-1.8-16.6
		c0-0.4-0.2-0.7-0.1-1.1c0.6-4.5-1.3-8.4-3-12.3c-3.7-8.2-3.2-16.5-1.2-24.9c1-4.1,1.8-8.2,2.8-12.2c2.3-10,1.1-20,0.9-30
		c0-2.8-0.3-5.5-0.4-8.3c-0.2-3.1-0.4-6.1-1.1-9.2c-0.9-3.9-0.5-7.9,0.4-11.8c0.9-3.7,0.1-7.2-0.2-10.9c-1.4,0.7-0.8,2.4-1.9,3.1
		c-0.3-3-0.3-3,1.5-5.2c-0.1-2.5-1-4.9-1.7-7.3c-1.5-4.9-2.8-9.9-2.8-15c0-1.3,0-2.6,0.3-3.9c1-5.4,0.3-10.8-0.8-16
		c-0.9-4.6-3.7-8-7.7-10.3c-1.6-1-3.4-1.8-5.1-2.6c-5.5-2.5-11.1-5-16.6-7.6c-1.9-0.9-3.8-1.9-5.6-2.9c-3.5,17-1.1,33.1,7.1,49.3
		c0.2-2.5,0.4-4.1,0.6-5.8c0.1-1.8-0.1-3.6,0.4-5.4c-0.1-0.9-1.6-1.5-0.9-2.7c2.3,0.4,2.3,0.5,5.1,5.7c-1.2-0.3-1.5-1.4-2.5-1.4
		c-0.8,0.6-0.3,1.5-0.3,2.3c0.1,3.5,0.3,6.9,0.5,10.4c0.2,4.4,0.8,8.8,2.4,13c3.6,9.7,5.9,19.7,8.8,29.6c0.2,0.7,0,1.7,1,2.1
		c1.1-1,0.1-2.6,1-3.7c1.5,0.3,1,1.4,0.9,2.3c-0.5,4.2-0.8,8.4-1.8,12.4c-1,4.1-0.6,8.1-0.6,12.1c0,8,0.9,16,1.8,24
		c0.8,6.5,0.2,12.9,0.1,19.4c0,1.4-0.2,2.9-0.1,4.3c0.2,3.5,0.2,6.8-1.5,10.1c-1.4,2.8-1.3,6.1-1.5,9.2c-0.2,3.3-0.7,6.7-0.3,10
		c0.5,4,0.3,8.1,1.9,11.9c1,2.3,1.9,3,3.6,2.8c0.6-0.1,1.1-0.5,1.4-1.1c0.5-2.3-1.1-4.6-0.4-7.3c2.1,2.3,1.6,5.4,3.2,7.7
		c1.3,0.7,3.1,0.2,4.3,1.4c-2.5,1.9-3.9,1.8-6.6-0.2c-0.9,2.8-0.7,5.6-0.9,8.4c-0.2,4.3-0.3,8.6-0.9,12.9c-0.5,3.2-0.1,6.4,0,9.7
		c0.1,9.9,0,19.9-0.5,29.8c-0.3,6.3,0.3,12.4,1.5,18.6c0.3,1.8,0.7,3.5,0.8,5.3c0.1,4.5,1.1,8.8,2.4,13c1.3,4.3,2.4,8.7,3.7,13.1
		c0.4,1.3,0.5,2.8,1.9,3.7c0.8,0.6,0.7,1.8,0.8,2.7c0.7,5.9,1.2,11.9,0.9,17.9c-0.3,5.4-0.2,10.8,0.4,16.2c0.1,1.2,0,2.4-0.1,3.6
		c-0.3,11.3-1.5,22.4-3.4,33.6c-0.5,2.8-0.6,5.7-0.9,8.6c-0.2,1.7-0.1,3.3,0.6,5.1c2.5,0.9,3.7,3,4.3,5.6c1.2,4.9,2.5,9.7,4.9,14.2
		c1.1,2.1,1,4.9,1.4,7.3c0.2,0.9,0.1,1.9,0.4,2.8c1.4,3.9,1.5,7.7,0.1,11.7c-1.3,1.2-3.1,1.3-4.9,1.6c-0.7,0.5-0.6,1.3-0.8,1.9
		c-1.1,3-3.3,4.9-6.4,5c-4.2,0.2-8.3,1.2-12.4,1.5c-2,0.2-4.1,0.2-6.1-0.2c-2.8-0.6-5.7-0.1-8.6-0.2c-2.8-0.1-5.5-0.7-7.6-2.7
		c-0.9-1.8-0.4-3.6,0.4-5.2c1-2.3,2.1-4.5,3.3-6.8c1.7-3.4,3.1-7,3.7-10.8c0.4-2.8,1.5-5.3,2.5-7.8c1.9-4.9,4.4-9.6,4.2-15.1
		c-0.1-1.3,0.5-2.3,1.3-3.3c-1.6-4.7-1.4-9.7-1.9-14.5c-1.1-9.7-3.4-19.1-5.5-28.6c-0.6-3-1.6-6-2.9-8.9c-2.9-6.6-4.1-13.8-5.2-20.9
		c-0.8-5.4-1.4-10.9-0.9-16.5c0.1-1.1,0.1-2.2,0.3-3.2c0.9-3.7,0.5-7.4-0.6-11c-1.3-4.1-2.1-8.4-3.8-12.3c-2.1-4.9-3.3-9.9-4.3-15.1
		c-3-14.7-6.5-29.2-9.8-43.8c-1.2-5.5-3.5-10.7-5.1-16.1c-1.2-3.8-0.8-7.8-2.5-12.2c0.5,9.3-3,17.1-4.8,25.2c-1.4,6.4-4,12.5-6,18.8
		c-2.1,6.4-4.1,12.8-5.5,19.3c-0.4,1.9-0.6,3.8-0.6,5.7c-0.1,6-1.2,11.9-1.2,17.9c0,4.6-1.7,8.9-2.6,13.4c-0.2,1.1-0.5,2.1-0.8,3.1
		c-1.1,3.7-0.7,7.3,0.3,10.9c2.9,10.3,3.2,20.5-0.2,30.8c-1.1,3.4-2.3,6.7-3.9,10c-2.8,5.7-4.1,12-5.7,18.1c-1.1,4-3,7.8-3.5,12
		c-0.7,5.5-1.5,10.9-2.2,16.3c-0.1,0.5-0.1,1,0.1,1.4c1.5,3.5,2.3,7,2.2,10.8c0,0.5,0.1,1,0.3,1.4c2.6,4.7,3.3,9.9,4.3,15.1
		c-2.3,3.2-5.9,4-9.5,4.7c-3.1,0.6-6.1,1.1-9.4,2c0.3,3.1-1.8,4.1-4.4,4.9c-1.9,0.6-3.9,1.2-5.9,1.7c-0.6,0.1-1.3,0.1-1.7,0.4
		c-5,2.9-10.4,1.9-15.7,1.6c-1.7-0.1-3.3-0.3-5-0.5c-2.9-0.4-5.6-1.4-7.4-4.1c1-2.9,0.5-6,1.6-9c0.8-2.1,2-3.8,3.8-5.1
		c5.8-4.5,10.7-9.9,14-16.6c0.6-1.3,1.6-2.4,2.4-3.5c1.8-2.4,3.5-4.9,3.2-8.1c-0.1-1.2,0.3-2.1,1.3-2.8c1.5-0.8,3.4,0,4.8-0.8
		c1.2-1,0.9-2.3,0.9-3.5c0.6-12.2,0.1-24.4-0.5-36.6c-0.4-8.1-0.8-16.3-0.8-24.4c0-8.9,1.9-17.6,3.8-26.2c1.1-4.7,1.4-9.4,1.3-14.2
		c-0.2-6.9-0.1-13.9-0.1-20.8c-0.1-5-0.8-10-1.7-15c-0.3-1.7-0.6-3.3-0.6-5c0-7.7-0.3-15.3,0.1-23c0.3-7,0.5-14.1,0.7-21.1
		c0-1.1,0.4-2.4-0.5-3.6c-2,1.8-4.1,1.4-6.3,0.5c-0.7-0.3-1.2-0.6-2-0.6c-2.3,0.1-4.2-0.8-5.9-2.3c-2.7,1.2-4.9,0.5-6.4-2.4
		c-23.1,0-46.3,0-69.8,0c-0.3,3-0.6,6.2-1,9.4c-0.6,5.4-1.5,10.7-3.5,15.7c-3.1,8-5.2,9.3-14.9,9c-2.3-0.1-4-1.4-5.4-3.2
		c-1.2-1.6-2-3.5-2.9-5.5c-1.5,0.1-3-0.1-4.2-1.2c-1.1-1.1-1.2-2.6-1.4-4c-0.4-3.1,0.1-6.3,1.1-9.2c1.2-3.7,1.1-7.3,0.3-11.3
		c-16.7,0-33.4,0-49.7,0c-3.8-3.6-3.9-6.5-0.5-9.9c16.6,0,33.4,0,50.4,0c0.4-3.5,0.8-6.9,1.2-10.3c0.6-4.9,1.7-9.7,3.5-14.2
		c0.6-1.6,1.4-3.1,2.3-4.4c1.6-2.3,3.7-3.7,6.6-3.5c1.2,0.1,2.4,0,3.6,0c4.5-0.2,7.4,1.9,9.2,6c1.7,4,2.8,8.1,3.5,12.4
		c0.8,4.6,1.2,9.2,1.5,14.2c23.5,0.9,46.8-0.6,70.1,0.1c0.4-0.7,0.7-1,0.7-1.3c0.1-4.6,2.1-8.7,3.6-12.9c1.2-3.5,1.9-7.1,2-10.8
		c0.3-8.5,0.4-17,0.8-25.5c0.2-3.3-0.6-6.4-1-9.6c-1.3-8.7-0.2-17.2,1-25.8c0.7-5.4,2.3-10.5,4.1-15.6c1.7-4.9,2.4-10,1.6-15.2
		c-0.7-4.1,0.1-8.1,0.9-12.1c0.6-3.1,1.2-6.1,1.5-9.2c0.4-3.9,0.1-7.8-1.1-11.4c-1.4-3.9-1.1-7.8-1.1-11.7c0-1.8,0.3-3.6,0.3-5.4
		c-0.1-4.6,1.8-8.6,3.9-12.5c2.9-5.4,8.4-7.3,13.8-9c2.7-0.9,5.6-1.4,8.3-2.4c4.5-1.7,8.8-3.7,12.3-7.2c1.7-1.7,3.7-3,5.6-4.6
		c2.9-4.9,1.6-10.1,1.3-15.4c1.5-0.4,2.1,0.4,2.3,1.5c0.7,4.6,1,9.3-1.2,13.7c-0.5,0.9-1.2,1.9-2,2.5c-1.9,1.4-2.5,3.3-3.3,5.3
		c-1.4,3.7-3.2,7.2-4.8,10.8c-1.2,2.6-2.6,5.1-3.6,7.8c-1.6,4-1.9,8.1-0.5,12.2c4.3,3.1,9.1,3,13.8,3c1.1-1.5,0.9-3.4,2.3-4.6
		c0.9,1.5-0.3,2.8-0.1,4.2c1.3,0.7,2.6,0.2,3.8-0.1c6.3-1.5,12.2-4.3,18-7.1c3.2-1.5,4.6-4.4,5.8-7.4c1.1-2.9,2-5.9,2.6-9
		c1.3-6.4,2.5-12.9,4.1-19.2c-7.1-7.4-8-17-5.7-30.6c-0.7-0.5-1.6-0.4-2.4-0.4l0.1,0.1c0-0.6-0.7-0.9-0.5-1.7
		c0.9-0.5,1.4,0.7,2.4,0.5c3.9-2.1,7.2-4.8,8-9.7c1.1-2.2,1-2.7-0.7-4.2c0.1-0.9-0.3-1.3-1.1-1.4c-0.9,0.3-1.6,0.8-1.9,1.9
		c1.2,0,2-1.4,3.1-0.5c0.3,1.5,0.5,2.9,0.8,4.4c-0.4-0.1-0.9-0.2-1.3-0.3c-0.4-0.8,0-1.9-1.4-2.4c-1,1.4,0.4,2,1,2.8
		c-0.2,0.4-0.3,0.9-1,1.1c-0.7-0.6-1.6-1.3-2.4-1.9l-0.1-0.1c-0.8-1.6-2.3-0.6-3.5-0.8c-0.6-0.1-1.3,0.6-2.3-0.3
		c1.7-0.4,1.8-2.3,3.3-2.9c-1.3-0.5-2.9-0.2-3.9-2c2.4,0,4.7,1.1,6.9,0c-1.3-0.2-2.8-0.3-4.1-0.7c-1.4-0.5-2.9-1-3.8-3.3
		c2.4,1.2,4.2,2.4,6.4,2.7c2.2,0.4,4.5,0.4,6.4,1.5c1.2-0.6,1-1.7,1.7-2.7c-5.7-0.2-11.2-0.6-15.5-3.3c-1-1-0.7-1.5-0.3-2
		c-0.2-0.8-1.4-0.9-1.4-1.9c0.7-1,1.2,0.7,1.9-0.3c-0.7-1.2-2.3-2.1-2.5-3.9c1.2,0,1.6,1.6,2.8,1.3c0.7,0.7,1.2,1.7,2.5,1.2
		c-0.7-1-1.6-1-2.6-1.2c0-0.3,0-0.7,0-1.3c1.7,0.3,3.4,1.2,5.2,0.3c-1.4-1.1-3.5-0.7-4.7-2.2c0.6-0.8,1.2-0.2,1.8,0
		c2.6,0.8,5.2,1.5,8,1.6c0.9,0,1.6,0.3,2.2,1c-2.6-0.5-5,0.6-8.1,0.9c2.2,1.4,3.9,1.2,5.7,1.1c0.8-0.7,1.6-1.4,2.3-2.1
		c3.6-1.8,3.9-2.3,3.2-5.9c-3.5,2.9-7.5,0.8-11.3,1.9c1.7,0.4,3.5,0.8,5.4,1.3c-1.3,0.7-2.3,0.3-3.4,0.1c-2.9-0.5-5.5-1.9-9-1.5
		c2.5-2,5.9-2.2,14.5-1c0.6-0.4,1.3-0.8,2-1.2c0.4-0.3,0.7-0.6,1.1-0.9c0-1.1-0.7-1.8-1.2-2.6c-0.5-0.8-1.1-1.6-1.8-2.6
		c-1.9,2.6-4.6,3.2-7.4,3.8c-2.6,0.6-5.2,1.7-8,0.8c0.1-2-2.2-2.4-2.6-4.3c3.2-0.8,6.3-2.6,9.8-1.1c-0.2,0.5-1,0.7-0.8,1.8
		c1.8-1,2.6,1.2,4.2,1.1c1.4-0.4,2.6-1.2,3.5-2.3c0-0.8-1.2-0.2-1.1-0.9c0.1-0.7,0-1.1-0.9-1.5C832.8,127.3,831.5,129.2,829.5,129z
		 M825.8,132.6c-1.7-0.3-2.5-2.7-5-1.9c1.2,1,2.2,1.8,3.3,2.5C824.7,133.5,825.5,133.5,825.8,132.6c1.6,1.3,3.1,0,4.6-0.4
		C828.9,131.9,827.2,131.4,825.8,132.6z M841.1,145c-0.1-0.1-0.2-0.2-0.3-0.3c0.9-0.9,1.9-1.8,1-3.5c-1.5,1.6-4.2,1.5-4.8,4
		c-2.6,0.8-5.3-0.8-7.8,0.9c2.2,0.7,4.5,0.8,7.1,2.1c-3,0.7-5.2-0.8-7.8-0.9c4.5,2.8,8.8,2.8,13,0.2C841.9,146,841.9,146,841.1,145z
		 M971,420.2c0.6-0.1,0.9-0.9,1.6-0.6c0.8,0.3,0.4,1.3,1,1.7c0.8-0.8,1.2-1.7,0.8-2.8c-0.7-0.6-1.8-0.1-2.6-1
		c-1.3-2.6-1-5.5-0.4-8.2c1-1.2,2.3-0.3,3.2-1.2c0.1-1.8-0.4-3.4-1.7-4.9c-0.5-0.1-0.9-0.2-1.4-0.2c-0.5,0-0.9,0.1-1.3,0.2
		c-2.8,4.2-3.6,15.6-1.9,16.1c1.6,0.2,1-1.1,1.8-1.2C971.3,418.5,971,419.5,971,420.2c-1.9,1.3-2.4,3.4-3.1,5.4
		c-0.8,2.6-1.4,5.3-2.3,7.9c-0.9,2.5,0,4.3,1.6,6.1c1.6-0.9,1.7-2.4,2-3.8C970.5,430.6,970.6,425.4,971,420.2z M835.9,120.4
		c-0.7-1.6-2.1-1.6-3.3-1.2c-1.3,0.4-2.5,1.2-2.4,3.2C832.3,121.6,833.8,119.9,835.9,120.4c-0.6,1-1.9,1-2.8,1.7
		c-0.2,0.2-0.5,0.4-0.4,0.8c0.8,1,1.9-0.9,2.7,0.3c-0.5,0.4-0.9,0.8-1.3,1.2c0.6,1,1.4,1.6,2.5,1.7l-0.1-0.1c0.4,2,2.6,1.9,3.9,3.2
		c1,2.1,2,4.4,3.3,7.1c0.6-2.9,0-5.4-0.1-7.8C843.3,123.4,840.6,120.8,835.9,120.4z M972.4,444.6L972.4,444.6
		c0.7-1.8,1.4-3.7,2.1-5.8c-0.7,0-1.2,0.1-1.8,0.1c-0.6,0-1-0.8-1.7-0.2c-0.3,0.5-0.5,1-0.9,1.5c-2,2.5-4.1,2.3-5.7-0.4
		c-1.1-2-1.6-4.1-0.8-6.5c1.3-4.1,2.1-8.3,4.1-12.1c-1.1-5-1.2-9.9-0.2-14.8c0.7-3.3,1.9-4.6,4.1-4.7c2.4,0,3.2,0.9,4.2,4.4
		c0.3,0.9-0.1,2.2,1.4,2.4c0.4-0.5,0.5-1,0.5-1.4c-0.3-8.6-1.8-16.9-5.2-24.8c-0.6-1.3-1.3-2.4-2.9-2.7c0.5-0.7,0.9-0.9,1.4-0.7
		c1.5,0.7,2.3,1.9,3,3.4c2.9,5.9,4.3,12.1,4.5,18.7c0.1,2.5,0.5,5,0.8,7.6c0.9-0.4,1-0.9,1-1.3c-0.4-4-0.7-8.1-1.2-12.1
		c-0.6-4.4-1.8-8.7-3.7-12.7c-1-2.3-2.3-4.5-5-5c-2.2,0.5-3.3,2-4.3,3.7c-1.6,2.8-2.7,5.9-3.4,9c-3.4,14.4-3.6,28.9-1.3,43.5
		c0.8,4.7,1.9,9.4,4.2,13.6c1,1.8,2.2,3.5,4.4,3.7c1.1-0.3,2.1-0.8,2.8-1.7c1.1-1.3,2-2.7,2.6-4.3c3.4-8.3,4.4-17.1,5-25.9
		c0-0.3-0.2-0.7-0.7-0.7c-0.6,0.2-0.5,0.7-0.5,1.1c-0.2,6.1-1,12.2-2.9,18C975.4,440.1,974.8,442.8,972.4,444.6z M843.8,299.4
		L843.8,299.4c-0.2-0.1-0.5-0.4-0.8-0.5c-6.8-1.6-13.6-2.8-20.5-2.9c-3,0-6-0.2-9-0.5c-6.9-0.7-13.8-1.3-20.8-0.3
		c-4.8,0.7-9.6,1.4-14.4,3.2c1.5,5.5,1.8,11.1,1.9,16.5c0.2,9-1.6,17.8-3.8,26.6c-1.6,6.4-2.4,12.8-3,19.4c2.9,0.6,5.5,1.2,8,1.7
		c0.5-0.4,0.3-1.1,1.1-1c1.5,0.9,2.9,2,4.7,2.4c8.6,2,17.2,2.8,26,2.6c6.4-0.2,12.6-1.6,18.9-2c3.6-0.2,7-1.1,10.3-2.3
		c1.3-1.3,1.5-3.1,3.3-4.2c-0.2,1.5-1.1,2.6-0.9,4.1c5.9-1.4,11.9-0.7,17.4-3.8c-0.7-2.7-1.3-5.3-2.4-7.9c-2.5-5.7-5-11.3-7.5-17
		c-1.5-3.5-3.6-6.9-4-10.7c-0.7-6.9-0.7-13.9,2.3-20.4c0.2-0.4,0.3-0.9-0.1-1.5C848.5,299.8,846.2,299.4,843.8,299.4z M822.2,426
		c-0.4,1.9,0.4,3.5,0.9,5c0.6,2.1,1.6,4,2,6.1c1.6,10.4,4.1,20.7,6.5,30.9c1.5,6.3,2.1,12.8,5.2,18.6c0.6,1.1,0.4,2.3,0.7,3.5
		c1.2,5.3,1.6,10.9,4.9,15.6c0.8,1.1,1.3,2.4,1.3,3.7c0.1,3.3,1.6,6.3,2.5,9.3c0.5,1.7,1.4,3.3,1,5c-0.4,2,0.8,3.5,0.6,5.5
		c-0.7,7.9-1.2,15.8,0.2,23.6c0.7,3.7,1.1,7.4,2.5,10.8c1.1,2.5,1.7,4.9,2.1,7.5c0.2,1.2,0.5,2.3,0.8,3.5c1.7,7.1,3.6,14.1,5.1,21.3
		c1.4,7.3,1.9,14.7,2.6,22c0.2,2,0.3,4,1,5.9c1.3-0.1,2.3-0.2,3.4-0.3c2.9-0.3,5.3,1.2,7.7,2.5c1.8,0.9,1.7,3,2.2,4.7
		c0.5,1.6,1,3.1,2.4,4.2c0.7-0.9,0.2-1.7,0.1-2.5c-0.7-5.9-1.8-11.6-1.2-17.7c1-11,2.4-21.9,3.6-32.8c1.2-10.3,0.9-20.5,0.3-30.8
		c-0.2-2.3-0.1-4.5-0.7-6.8c-2.8-10.6-5.4-21.3-8.5-31.9c-2.3-8-3.9-16.1-3.3-24.4c0.4-5.4-0.5-10.8,1-16.1c0.1-0.3,0-0.7,0-1.1
		c-0.3-7.4-0.4-14.8,0-22.2c0.2-3.2-0.1-6.5,0.5-9.7c1.1-4.9,0.2-9.7,0.9-14.5c-2.8-1.6-3.7-4.3-5.1-6.5
		C850.3,417.1,835.9,419.8,822.2,426z M779.6,626.8c-0.8-2.5-0.3-5-1.7-7.3c-0.5-0.8,0-1.9,0.2-2.8c0.4-1.3,0.8-2.5,1-3.8
		c2.8-15.1,6.9-29.8,12.5-44.1c1.2-3.1,2.6-6.2,2.7-9.6c0.3-10.2-0.7-20.3-2.3-30.2c0.6-1.6,1.3-3,1.7-4.5
		c2.3-9.5,2.8-19.1,3.6-28.8c0.5-5.5,0.8-10.9,2.1-16.3c2.1-8.3,4.6-16.3,7.5-24.3c2.8-8,4.8-16.3,6.7-24.6c0.3-1.5,0.3-3,0.5-4.5
		c-6.8-0.7-13-3.1-19.4-4.2c-3.9-0.6-7.6-2-11.5-2.7c-4.9-0.9-9.9-1.9-15.2-1c0.2,2.2-1.3,3.5-2.6,4.9c-0.1,10.5-1.1,20.8-1.6,31.2
		c-0.2,3.7-0.5,7.4,1.2,10.9c0.4,0.8,0.4,1.9,0.4,2.8c0.1,4.7,0.9,9.3,1.3,13.9c0.4,4.4,0.7,8.8,0.2,13.3
		c-0.6,5.2-0.7,10.5-0.1,15.7c0.4,4.2,0,8.3-1,12.4c-1.9,8.4-3.7,16.9-3.8,25.5c-0.1,9.2,0.4,18.4,1.2,27.6
		c0.4,4.4,0.6,8.8,0.4,13.3c-0.2,6.7-0.3,13.4-0.3,20.1c0,2,0.2,4-0.8,6.1c1.6,0.3,3.4,0.7,3.9,1.9c1,2.8,3.5,3.7,5.8,5.1
		c1.3,2.5,2.4,5.1,4.2,7.3C778.3,629.9,778.8,628.4,779.6,626.8z M838.6,205c-1.5,3.4-2,7-2.5,10.5c-0.9,5.3-1.7,10.6-3.7,15.7
		c-1.6,4.1-3.8,7.9-7.7,10c-4,2.1-8.1,4.2-12.4,5.6c-7,2.3-14.2,2.2-21.3,1c-5.2-0.9-6.8-2.9-7.2-8.2c-0.1-1.3,0-2.6,0.2-3.9
		c0.5-3.4,1.7-6.5,3.4-9.4c2.5-4.4,4.1-9.3,6.6-13.8c-2.4,1.6-4.8,3.1-7.1,4.3c-4,7.1-8.5,13.8-13.2,20.3c-1.5,2.1-2.7,4.2-3.4,6.7
		c-0.7,2.4-1.8,4.7-3.3,6.7c-1.2,1.7-2.2,3.4-2.7,5.4c-2.9,12-3.2,14.7,4.9,24.9c3.7,4.7,7.7,9.1,9.4,15.1c1.5-0.4,2.7-0.8,4-1.1
		c7.5-2.3,15.2-3.4,23-2.8c5.5,0.5,11,0.9,16.5,1.3c3.5,0.3,6.9,0.2,10.4,1c6.4,1.4,12.9,2.6,19.4,3.9c2.7-5.6,3.2-11.8,6-17
		c-0.3-2.7-1.9-4.7-2.2-7c-0.9-6.5-3.5-12.4-6-18.3c-3.4-8.1-5.9-16.4-6.4-25.2c-0.4-7.4,0-14.8,0.8-22.3
		C842.3,206.9,840.4,206.1,838.6,205z M863,361c-5.6,2.3-11,3-16.3,4.1c-9.1,1.8-18.3,2.3-27.4,3.6c-9,1.3-17.9,0.6-26.8-1.1
		c-4.6-0.9-9.1-1.9-13.6-3.3c-1.8-0.5-3.6-0.9-5.7-1.4c-1.4,5.4,0.3,10.9-1.6,16.1c-1.9,5-0.8,10.8-3.7,15.3c0.3,2.8,2.6,4,3.5,6.1
		c0.9,2.2,1.6,4.4,0.9,6.9c1.2,0.1,2.1,0.3,3.1,0.3c5.5,0.1,11,0.2,16.5,0.2c14.6,0,29.2-0.1,43.8-0.1c8.7,0,17.5,0.1,26.2,0.1
		c1.1,0,2.2,0.1,3.1-0.9c0-0.4,0-0.9-0.1-1.3c-0.9-6.7-0.7-13.4,1.8-19.8c0.5-1.3,0.4-2.6,0.3-3.9C866.8,374.8,863.7,368.3,863,361z
		 M766.3,419.4c-2.8-6.8-2.6-13.7,0.3-14c0.6,0.5,0.1,1.5,0.9,1.9c1.1,0.1,2.3,0.4,3.5-0.5c-1.3-1.9-0.7-4.5-2.5-6.2
		c-1.2-1.1-1.8-2.6-2.3-4c-1.2-3.6-2.3-7.3-3.5-10.9c-0.3-0.8-0.2-1.6-0.1-2.5c0.6-3.3,1.3-6.6,1.8-9.9c1-7.2,3.1-14.3,3.4-21.6
		c0.2-4,1.4-7.7,2.9-11.5c0.6-1.7,1.4-3.4,1.7-5.1c1.5-8.4,4-16.5,4.7-25c0.4-4.6,1.1-9.3-1.5-13.6c-0.3-0.6-0.2-1.4-0.4-2.1
		c-0.2-0.9-0.3-2.1-0.8-2.7c-1.7-1.9-2.7-4.2-4.4-6.1c-2.1-2.1-4-4.4-5.9-6.7c-2.3-2.8-3.6-5.9-3.8-9.5c-0.4-6.5,0.5-12.7,3.9-18.3
		c0.9-1.5,1.5-3,1.1-4.8c-0.5-2.6,0.5-4.8,2-6.9c-0.1,1.9-0.9,3.8-0.2,6.6c4.7-10,11.1-18.1,16.5-27.8c-3.7,1.5-6.8,2.7-10,3.3
		c-3.5,0.7-6.5,2.4-9.6,3.9c-1.2,0.6-2.2,1.5-2.8,2.7c-1.2,2.2-2.4,4.4-3.5,6.7c-0.4,0.8-0.8,1.9-0.6,2.8c0.6,4.9-0.3,9.8-0.2,14.7
		c0,1.1-0.1,2.1,0.3,3.2c2.5,6.6,2.5,13.3,1.4,20.1c-0.7,4.1-1.2,8.3-0.9,12.5c0.4,5.3-0.7,10.5-1.6,15.6c-0.8,4.3-2.5,8.5-3.9,12.7
		c-0.8,2.4-1.5,4.8-1.7,7.3c-0.4,4.5-0.8,9.1-1.2,13.6c-0.1,2-0.5,4.2,0.1,6.1c1.2,3.5,1,7.1,1,10.6c0,8.3-0.3,16.5,0.2,24.8
		c0.2,4.2-0.1,8.8-1.4,12.8c-1.5,4.8-2.7,9.7-3.9,14.5c-0.5,1.8-1.2,3.3-2.6,4.2c-0.3,3.2,1.7,5.5,2,8.1c0.9,0.5,1.5,1.3,2.6,0.8
		c-0.4-2.3-2.2-4-1.9-6.8c2.3,2,2.4,5,4.2,6.8c1.9,0.6,1.9,0.6,3.8,0.4c-0.5-1.8-0.8-3.5-2-4.9c-1.1-1.3-2.5-2.3-3.1-4.5
		c5.1,2.4,5.8,7.3,7.8,10.8c1.5,0.5,2.7,0.6,4,0.2c-1.4-2.8-2.7-5.7-3.4-8.6c-0.5-0.8-2.2-0.4-2.1-2.1c4.9,1.4,4.1,6.8,6.9,9.5
		C763,420.7,764.6,420.4,766.3,419.4z M767.9,632.1c-2.5,0.2-4.7-0.3-6.8-0.8c-2.8-0.7-5.7-0.8-8.6-0.6c-0.8,0.1-1.7,0.1-1.8,1.4
		c2.9-0.3,5.8-0.2,8.5,0.5c2.8,0.6,5.9,0.6,7.7,3.3c-0.7,1.2-1.5,1.3-2.4,1.1c-1.5-0.3-3.1-0.6-4.6-0.9c-3.1-0.5-6.1-1-9.3-0.9
		c-1.3,0-2.3,0.2-2.4,1.8c12.1,0.1,12.2,0.1,13.8,2.8c-0.8,1.5-2.3,1.1-3.5,0.9c-3.8-0.4-7.6-0.5-11.5-0.6c-1,0-2-0.2-2.3,1.1
		c9.3,0.3,9.3,0.3,10.7,2.6c-2.2,1.9-4.9-0.1-7.3,0.8c0.1,0.6,0.7,1.3-0.1,2.1c-2.5,1.1-4.9-0.3-7.5-1c-1.4,1-2.7,2.2-4.3,3.1
		c-3.5,2-4.3,5.1-3.7,8.9c5.1,0.6,10.1,0.7,14,4.5c-2.5-0.3-4.9-1.4-7.5-1.7c-2.7-0.3-5.3-0.9-8.2-0.3c1.9,1.9,1.9,2,4,2.3
		c3.3,0.5,6.7,0.8,10,1.1c1.9,0.2,3.5-0.3,4.5-1.7c6,0.4,11.1-1.8,16-3.2c1-1,0.2-2.2,0.8-2.6c1.2-0.8,0.3-1.7,0.6-2.6
		c0.5-1.7,2.6-2.9,5.2-2.9c-0.7,1.8-2.8,2.2-4.1,4.4c5.9-1.1,11.2-2.3,16.5-3.8c-0.3-3.7-0.8-7.1-2.1-10.3c-1.2-2.9-2.4-5.7-1.8-9.3
		c-2.3,0.9-4.2,2.1-6.7,0.7c-0.6-1.4-1.2-3.1-1.9-4.7c-0.5-1.2-0.9-2.7-2.1-3.2c-2.8-1.2-4.8-3.5-7-5.4c-2.2,0-4.4-0.6-6.4,0.8
		c-0.2,2.8-1.7,5.2-2.9,7.8C762.6,628.1,765.7,629,767.9,632.1z M868.8,673.3c1.8-0.2,3.7-0.8,5.6-0.7c4.7,0.3,8.7-0.7,9.7-6
		c1.7-1,3.2-1.9,4.7-2.7c-0.1-2.3-1-4.6,0.4-6.5c-1.3-3.8-1.1-7.6-2.2-11.2c-1.1-3.6-3.3-6.7-3.9-10.9c-1,1.4-1.6,2.5-2.7,2.7
		c-1.6,0-3,0-4.5,0c-2.2-2.7-2.5-6.2-3.8-9.3c-3-1.7-6.1-2.9-9.5-2c-1.8,1.5-2,3.4-2,5.3c0,2.1-1.4,3.7-1.6,5.8c1.4,0,2.6,0,3.8,0
		c3,0.1,6,0.3,8.8,1.4c1,0.4,2.1,0.7,1.7,2.3c-1.5,0.7-3,0.1-4.5-0.1c-3.2-0.5-6.4-0.5-9.7-0.2c-1.6,0.1-2.6,0.7-3.2,2.4
		c7.5-2.2,15.5-1.6,18.2,1.3c-0.7,1.7-2.2,1.5-3.6,1.5c-2.8-0.1-5.5-0.3-8.3,0c-2.5,0.3-4.9,0.6-7.2-0.2c-0.5,1-0.8,1.7-0.2,2.5
		c4.3-1.2,10.4-1.7,14.6-0.9c1.6,0.3,3.4,0.3,4,2.3c-0.4,1.9-1.8,1.7-3.1,1.7c-2.9,0-5.7-0.2-8.6-0.1c-2.6,0-5.2,0.2-7.7-1.2
		c-0.2,1.5-0.4,2.6-0.6,3.9c3-0.7,5.9-0.5,8.7-0.4c2.8,0.2,5.8-1.1,8.3,0.6c0,1.2-0.3,1.8-0.8,2c-5.5,1.3-11,1.9-16.5,0.2
		c-0.1,0-0.2-0.1-0.4-0.1c-2.5,4.7-4.7,9.5-7.6,14c1.1,2,2.9,2.3,4.7,2.5c4.5,0.5,9-0.4,13.4,0.6c-2.6-1.6-5.4-1.6-8.2-2
		c-2.7-0.4-5.6,0.7-8.4-0.7C850.8,668.2,862.7,669.6,868.8,673.3z M660.2,376.4c-2,0.5-3,1.8-4,3.2c-1.4,2-2.2,4.3-2.9,6.5
		c-3.4,11.9-4.2,24-3.3,36.2c0.4,5.6,1.1,11.2,2.6,16.6c0.7,2.5,1.5,5,2.8,7.3c2.6,4.7,5.8,4.8,8.5,0.2c0.9-1.5,1.6-3.2,2.2-4.9
		c2.2-6.1,3.1-12.5,3.6-18.9c0.1-1.7,0.5-3.5,0-5.3c-1.3,0.1-2.5-0.4-3.8,0.4c-0.7,1.7-0.6,4-2.7,5.3c-1.3,0.4-2.7,0.6-4-0.2
		c-3-3.3-2.6-9.3-2.3-14.6c0.2-2.7,0.4-5.5,2.9-7.3c1.3-0.2,2.5-0.3,3.7,0.2c2.3,1.5,1.8,4.3,3,6.5c1.1-0.3,2.2,0.5,3.4-0.4
		c0-5.3-0.6-10.5-1.7-15.6c-0.8-3.9-1.8-7.7-3.6-11.2C663.8,378.5,662.6,376.9,660.2,376.4z M858.6,285.7c-0.2,0-0.5-0.1-0.7-0.1
		c0.2,2.3-1.3,4-1.9,6.1c-1.7,6.1-3.5,12.2-5.4,18.2c-1.9,6.1-0.9,11.8,1.9,17.3c2.3,4.5,4.5,9,6.6,13.5c3.9,8.1,6.9,16.6,7.7,25.6
		c0.1,0.7,0,1.5,0.7,2.3c0.1-0.6,0.3-0.9,0.3-1.3c0.2-8-0.5-16-1.2-24c-0.8-9-1.9-17.8,0.8-26.3c-2.4-5.3-2.2-10.8-3.8-16
		C861.8,295.9,860.2,290.8,858.6,285.7z M656.7,376.6c-6.3-0.9-8.1,0-10.6,5.5c-0.9,2.1-1.7,4.2-2.2,6.4c-3.5,14-3.8,28.2-1.8,42.4
		c0.7,4.7,1.6,9.4,3.7,13.8c2.4,5.2,5,6.5,10.9,5.3c-3.1-3.6-4.5-7.9-5.6-12.3c-2.6-10.7-2.8-21.6-2.1-32.5
		C649.6,395.2,650.8,385.3,656.7,376.6z M966.9,451.3c-3.4-3.9-4.9-8.3-5.9-12.8c-3.2-14.8-3.1-29.7-0.6-44.6
		c0.9-5.1,2.2-10.1,5.1-14.5c0.4-0.6,1.4-1,0.9-2.1c-6.5-0.4-8.2,0.5-10.7,6.5c-0.8,1.9-1.5,3.8-1.9,5.8
		c-2.8,11.7-3.6,23.6-2.5,35.6c0.6,6,1.4,11.9,3.3,17.6c2.3,7,4,8.3,11.3,8.8C966.1,451.6,966.3,451.4,966.9,451.3z M767.3,414.7
		c4.4,0.6,94.6,0.6,97.9,0c-0.1-1.3-0.2-2.5-0.4-3.9c-3.4-0.2-6.6-0.4-9.8-0.4c-7.9,0-15.8,0.1-23.7,0.1c-21.1,0-42.1-0.1-63.2-0.1
		c-0.8,0-1.7-0.3-2.4,0.7C765.9,412.3,766.3,413.6,767.3,414.7z M741.3,410.9c-1.9-0.4-76.7-1.1-78.4-0.7c-0.5,2.5-0.5,2.5,0.3,4.9
		c25.9-0.1,51.9,0.5,77.9-0.1C741.4,413.4,741.6,412.1,741.3,410.9z M1034.1,411.2c-6.1-0.6-59.2-0.5-61.4,0.1
		c-0.3,1.5-0.5,3,0.5,4.7c20.2,0,40.5,0,61,0C1034.1,414.5,1034.1,413,1034.1,411.2z M949.7,411c-9.8-0.7-53.5-0.6-57.7,0.2
		c0.3,1.4,0.6,2.7,1,4.4c18.9,0,37.7,0,56.6,0C949.7,414,949.7,412.6,949.7,411z M639.5,409.7c-16.7,0-33.4,0-50.2,0
		c-1.1,1.7-1.1,3.3,0.2,5.1c16.7,0,33.4,0,50.1,0C639.9,413,640,411.5,639.5,409.7z M766.5,390.4c0.3,0,0.5,0,0.8-0.1
		c0.1-6.6,2.2-12.9,2.9-19.4c1.3-13.1,3.2-26.1,6.6-38.9c0.7-2.7,1.2-5.4,0.6-8.4c-0.8,1.5-0.9,2.9-1,4.3c-0.3,3.7-1.1,7.3-2.4,10.8
		c-1.2,3.6-2.4,7.1-2.9,10.9c-0.9,7.3-2.6,14.6-4,21.9c-0.9,4.6-1.1,9.2-2.5,13.8C765.3,387,765.9,388.7,766.5,390.4z M795,418.1
		c0,0.1-0.1,0.3-0.1,0.4c1.1,0.5,2.1,1.1,3.3,1.3c5.3,1.4,10.6,2.6,15.8,4.6c0.6-2.2,1.1-4.2,1.7-6.4
		C808.5,418.1,801.8,418.1,795,418.1z M833.9,418.2c-5.1,0-9.4,0-13.9,0c0.3,2,0.6,3.5,2.6,4.3C826.3,421.7,829.9,420.4,833.9,418.2
		z M662.8,421.8c1.4-1.3,1.8-2.7,1.8-4.1c-0.9-0.8-1.9-0.1-2.8-1.1c-1.2-2.6-1-5.6-0.3-8.3c1.1-1.2,2.4-0.4,3.3-1.5
		c0-1.7-0.4-3.3-1.8-4.6C659.5,406.8,659.4,416.6,662.8,421.8z M660.5,402.3c-2.6,3.5-2.9,7.6-2.5,11.7c0.5,6.1,0.7,6.1,2.8,7.7
		C658.9,415.3,659,408.8,660.5,402.3z M975.9,434.3c0.6-5.6,2.7-10.7,1.4-16.7c-2,1.9-1.9,4.1-2.8,5.7c0.5,1.5,1,2.8,1.4,3.9
		c-0.2,1.3-0.5,2.4-0.6,3.4C975.2,431.8,975.1,432.9,975.9,434.3z M820.1,122.8c3.4,0.3,6,3.2,9.5,0.9c-5.1-2.2-9.8-2.3-15.3,0.2
		C817,124,818.7,123,820.1,122.8z M640.6,429.4c-0.4,3-0.7,5.9-0.2,8.9c0.2,1.4,0.7,2.6,2.8,2.9C642.1,437,641.3,433.2,640.6,429.4z
		 M836.4,169.6c-1.1,3-3.2,14.3-3.1,16.5C835,182,836.7,172.6,836.4,169.6z M841.3,149.1c-2.1,0.6-4,1.5-6.2,1.5
		c-2.1,0-4-1.3-6.2-1.1c3.6,2.3,7.9,1.5,11.6,2.6C841.6,151,841.1,150,841.3,149.1z M880,634.8c2.4-2,2.4-4.9,0-7.9
		C880.1,629.7,879.6,632.2,880,634.8z M972.2,436.6c0.4,0,0.7,0,1.1,0c0.1-3.3,0.3-6.7,0.4-10c0-0.4-0.2-1.1-1-1.3
		c-0.1,1.9-0.3,3.8-0.3,5.7C972.4,432.9,970.9,434.8,972.2,436.6z M836.3,190.1c-0.9,1.5-2,3-2.2,4.9
		C835.8,193.8,836.1,192,836.3,190.1z M834.1,173.5c0.4-0.9,0.6-1.6,0-2.4C833.2,171.9,833,172.6,834.1,173.5z"/>
	<path d="M543.4,630c-0.8,4.6-1.4,8.7-2.2,12.8c-0.9,4.6-2.2,9.1-4.3,13.3c-0.7,1.4-1.5,2.7-2.4,4c-1.2,1.7-2.8,2.8-5.1,3
		c-1.8,0.2-3.6,0.2-5.4,0.3c-4.2,0.1-6.7-2.1-8.3-5.7c-2.1-4.5-2.7-9.4-3.4-14.2c-0.7-5-0.6-10-0.6-15.3
		c-23.2-1.8-46.2-2.9-70.1-4.3c3.5,1.8,4.7,4.3,5.3,7.1c1,4.5,2.1,8.9,4.6,12.8c0.7,1.1,0.5,2.3,0.8,3.5c0.7,3.4,0.9,6.9,2,10.2
		c0.9,2.8,0.2,5.6-0.5,8.5c-1.3,1.6-3.4,1.3-5.4,2c-1.1,5.4-5,7.1-10.1,7c-1.6,0-3.1,0.2-4.6,0.6c-3.8,0.8-7.5,1-11.4,0.4
		c-2.6-0.4-5.3-0.1-7.9-0.2c-2.8,0-5.5-0.6-7.6-2.6c-0.9-1.9-0.5-3.6,0.3-5.2c0.9-2.1,1.9-4.2,2.9-6.2c2-3.7,3.5-7.6,4.1-11.8
		c0.4-2.6,1.5-5,2.4-7.5c1.7-4.5,4.1-8.9,4.2-13.9c-1.3-0.8-2.7-0.9-3.8-2.2c-0.5-1.8-1.7-3.8-1.4-6.3c2.8,1.2,1.4,5.1,4,5.8
		c1.4,0.1,1.7-1,2.3-1.5c-0.7-4.9-1.9-9.7-0.2-15.1c0-0.3-0.9-0.6-1.1-1.4c0.7-5.5,0.3-11-0.6-16.6c-0.4-2.1-0.2-4.3-0.3-6.5
		c-0.3-8.2-0.8-16.5-1-24.7c-0.3-8.7-0.4-17.5,0.2-26.2c0.3-4.4-0.1-8.8-0.6-13.3c-0.7-6.7-1.8-13.2-3.3-19.7
		c-1.2-5-1.3-10.2-1.9-15.3c-1-7.9-3.5-15.4-5.8-22.9c-1.5-5-2.8-10.2-4.9-15c-0.6-1.4-0.3-3.1-1.1-4.3c-1.2-0.7-0.7,1.9-2.2,0.5
		c-1.8-7.9-2.8-16.3-8.4-23.2c2.6,0.5,2.5,3.8,5,4c1.1-2.9,1.3-8.1,0.6-14.3c-1.7-1.4-3.7-2.6-6.1-3.1c-2.5-0.5-4.9-0.9-7.4-1.4
		c-1.4-0.3-2.9-0.6-2.9-2.7c-6.2-0.2-11.9,0.6-17.4,2.9c-4,1.6-6.2,5.1-8.6,8.4c-2.6,3.6-3.8,7.4-2.3,11.8c0.5,1.6,0.4,3.3,1.4,4.8
		c1.7,0.7,3.2-0.1,4.8-0.6c-1,1.7-2.4,2.8-4.2,3.4c0.3,2.2,1.5,3.9,2.5,5.6c1.8,3.1,3.6,6.2,4.7,9.6c2,5.9,6.4,10,10.7,14.2
		c4.2,1.2,6.9,4.5,10,7.2c0.2,0.2,0.3,0.4,0.5,0.5c-0.1,0.8-0.2,1.5,0,2.4c2.8,9.2,4.8,18.5,6.9,27.9c1,4.5,3,8.6,5.7,12.3
		c1.3,1.8,2.4,3.8,3.3,5.8c1.2,2.6,1.8,5.2,1.4,7.9c-0.4,2.6,0.9,4.9,1.1,7.4c1.1,10.5,2.7,20.9,3.2,31.4c0.1,1.7,0.4,3.3,0.9,4.9
		c1.3,4.1,1.7,8.4,2.1,12.7c0.4,4.1-1.3,8-2.2,11.9c-0.9,3.6-2.2,7.1-4.2,10.2c-1.5,2.4-1.3,5.3-2.3,8.1c1.3,1.8,0.9,3.9,0.8,6.1
		c-0.1,3.6,1.1,5.4,4.9,7.1c-0.1-2.2-1-4.4,0.1-6.8c1.3,0.8,0.8,2,1,2.9c0.2,1.1,0.3,2.1,0.4,3.2c1.1,1.1,2.2,1.9,4,2.3
		c0.2-2.6-0.5-5.1,0.1-7.8c2.8,1.8,0.6,4.9,2.2,7c1.6,0.9,3.9-0.4,5.8,1.3c-2.5,1.1-4.7,2.2-7.3,0.1c-1.4,1.3-3,1.7-4.6,0.3
		c-0.5-0.4-1.1-0.3-1.7-0.3c-3-0.1-5-1.6-5.6-4.5c-0.3-1.3-1.1-2.3-1.8-3.7c-17.4-1.1-34.8-2.1-52-3.2c-1.1,2.1-0.7,4-1.2,5.6
		c1.4,3.7,2.7,7.3,2.5,11.3c0,0.6,0,1.3,0.3,1.7c2.7,4.6,3.2,9.7,4.2,14.9c-1.7,2.3-4,3.6-6.9,4.1c-3.9,0.7-7.7,1.6-11.9,2.4
		c0.1,3.1-1.8,4.1-4.4,5.1c-3.6,1.3-7.3,2-10.9,3.4c-3.1,1.2-6.8,0.8-10.3,0.5c-2.4-0.2-4.8-0.5-7.1-0.8c-2.9-0.4-5.6-1.3-7.5-4.1
		c1-2.9,0.3-6.2,1.6-9.2c0.8-1.8,1.7-3.4,3.3-4.6c2-1.5,3.7-3.4,5.6-5c3-2.4,4.9-5.5,6.9-8.7c1.7-2.7,3.2-5.6,5.3-8.1
		c1-1.2,1.7-2.9,2.1-4.6c-1.6-1.6-3.8-0.5-5.6-1.3c-1.6-0.7-3.3-2-5.1-1.4c-1.5-0.9-1-2.6-2.2-3.8c-22.6-1.4-45.5-2.8-68.7-4.2
		c-1,2.6-0.8,5.5-1.4,8.2c-1,5.2-2.1,10.3-4.1,15.2c-0.1,0.3-0.2,0.7-0.4,1c-3.9,8.2-5.8,9.4-15.9,8.4c-2.1-0.2-3.7-1.6-4.9-3.4
		c-1.1-1.7-1.8-3.6-2.6-5.7c-1.6-0.1-3.3-0.2-4.4-1.7c-0.9-1.4-0.9-2.9-1-4.5c-0.1-3.3,1-6.3,2-9.4c1.1-3.4,1.2-5.9,0.5-10.5
		c-16.6-1.1-33.3-2.1-49.9-3.2c-3.2-3.7-3-6.6,0.6-9.6c16.6,1,33.3,2.1,50.3,3.1c0.6-3.3,1-6.5,1.6-9.6c0.9-4.9,2.2-9.8,4.3-14.4
		c0.6-1.3,1.3-2.6,2.1-3.8c1.8-2.8,4.3-4.4,7.8-3.9c1.4,0.2,2.9,0.1,4.3,0.2c3.6,0.3,5.9,2.1,7.3,5.4c2.2,5.3,3.1,10.8,3.5,16.4
		c0.2,3.7,0,7.4,0,11.4c23.1,2.1,45.8,2.2,68.5,4.1c2.1-5,3.4-9.9,4.1-15c0.1-0.8,0-1.7-0.2-2.5c-1.5-7.2-3.6-14.2-6.1-21
		c-1.2-3.1-2.8-6.1-4.2-9.1c-4.4-10.5-7-21.3-7.5-32.7c-0.2-4.6-1.4-9.3-1.6-13.9c-0.3-6.5-2.2-12.3-5.6-17.8
		c-2.3-3.7-3.7-7.9-3.5-12.6c0.1-2.8-1-5.6-1.6-8.4c-0.3-1.4-0.4-2.8-0.2-4.3c-5.4-7.7-8.3-16.4-9.9-25.6c-0.8-4.7-0.2-9.3,1.2-13.8
		c0.7-2.2,1.9-4,3.9-5.6c2.9-2.3,5.4-5.4,8.6-7.7c-0.6-1.9-0.7-3.6-0.8-5.4c0-1-0.2-2.2-0.8-3.1c-3.1-5.2-3.2-11.1-3.8-16.9
		c-0.2-1.5,0.1-3.1-0.1-4.7c-0.9-7,2.1-12.5,6.4-17.5c5.1-6,11.1-10.9,17.8-15c2.4-1.5,4.8-2.6,7.8-2.7c1.8-2.1,3.2-4.4,5.1-6.4
		c4.9-5.1,10.1-3.7,14.3-0.1c3.4,2.9,5.1,7,5.4,11.4c0.2,2.8,0.8,5.4,2.7,7.6c1.4,1.6,2,3.7,2.9,5.9c3.1-2.4,6.2-4.2,9.3-5.8
		c0.5-0.3,1.1-0.5,1.4-1.1c1.3-2.7,3.8-3.9,6.2-5.2c4.2-2.3,8.5-4.4,13.2-5.6c1.8-0.5,3.8-1.2,5.6-1.1c7.3,0.3,14.5-1.4,21.8-1.7
		c6.1-0.3,11.9,0.3,17.5,3.1c1.4,0.7,2.9,1.1,4.4,1.5c12.2,3.8,20.7,11.6,25.5,23.4c1.3,3.2,1.6,6.8,1.6,10.2
		c0.1,5.2,0.4,10.3,1.3,15.4c0.5,2.5-0.1,5-0.5,7.5c-1.9,9.7-2.2,19.5-3.6,29.2c-0.9,6-2,12-3,18.1c-0.3,1.5-1.1,2.9-1.5,4.4
		c-1.3,5.6-1.8,11.3-2,17.1c-0.2,8.9-0.1,17.7,1.6,26.5c1,5.4,1.2,10.9,2.8,16.2c1.4,4.7,2.7,9.4,4,14.1c0.4,1.3,0.6,2.6,1.8,2.9
		c2.7,12.9,1,25.6,1.7,38.3c0.7,12.6-1.5,25.2-3.7,38c23.6,1.9,46.8,2.6,70,4.6c1-2.6,0.9-5.4,1.5-8.1c1.1-5,2.2-10,4.2-14.8
		c0.8-1.9,1.7-3.7,3-5.3c1.8-2.3,4.1-3.7,7.1-3.3c1.4,0.2,2.9,0.3,4.3,0.3c4.3,0.1,6.5,2.7,7.9,6.3c1.8,4.6,2.6,9.4,3,14.4
		c0.3,4.1,0.7,8.1,0.5,12.6c18.5,1.7,36.8,2.4,55.4,3.8c2.4,3.1,0.6,6-0.5,9.5c-9.1-0.3-18.2-1.1-27.4-1.6
		C562.1,631.2,552.9,630.5,543.4,630z M533.2,655.3L533.2,655.3c0.1-1.9,1.8-3.3,1.8-5.3c-0.4-0.4-0.9,0-1.3-0.1
		c-0.6-0.1-1.1-0.4-1.7-0.6c-0.5,0.7-0.9,1.4-1.5,2c-1.8,1.8-3.8,1.7-5-0.5c-1.2-2.1-1.9-4.3-0.9-6.8c1.7-4.1,2.6-8.5,4.7-11.8
		c-0.4-7.1-1.1-13.6,2.9-19.2c4.7-0.2,5.4,0.3,6.1,4.2c0.1,0.5,0.1,1,0.2,1.4c0.2,0.7,0.3,1.5,1.7,1.1c0-10.2-0.4-20.4-6-29.9
		c1.6,0.3,2.7,1.1,3.1,2.4c1,3.2,2.6,6.2,3.2,9.5c1,5.4,0.4,10.8,0.8,16.1c0.1,0.7-0.4,1.7,0.8,2c0.1-0.2,0.3-0.4,0.3-0.6
		c0.3-8.3-0.1-16.5-2.9-24.5c-0.5-1.6-1.1-3.2-2.2-4.5c-1.9-2.4-3.9-2.5-6-0.3c-0.9,0.9-1.7,2.1-2.3,3.2c-1.3,2.4-2.3,5-3.2,7.6
		c-1.9,6.3-3,12.8-3.7,19.3c-0.9,8.6-0.9,17.2,0.2,25.8c0.5,4,1.4,8,3.1,11.8c0.9,1.9,1.9,3.6,4.3,4.1c3-0.6,4.4-3,5.6-5.5
		c3-6.1,4.6-12.5,5.6-19.2c0.4-2.4,1.3-4.8,0.3-7.2c-0.5,1.7-0.7,3.5-1,5.2c-1.1,6.5-2.5,12.9-5.8,18.8
		C534.3,654.5,533.9,655.1,533.2,655.3z M294.5,359.8L294.5,359.8c-0.5-0.7-1-0.6-1.7,0c-3.6,2.7-7.2,5.5-10.3,8.8
		c0.2,1.3,0.3,2.4,0.5,3.6l0.1-0.1c-0.4,0.3-0.7,0.6-1,0.8c-0.4,1.5,0.9,2.9-0.3,4.3c-1.5-0.6-1-2.6-2.2-3.3c-3,5.8-3.5,19.8-0.8,24
		c3.5,0.6,7.6-1.2,11.2,2.4c-4.2,0.1-7.7-0.9-11.2-1.7c-0.6,1-0.7,1.9-0.5,3.1c1.9,1.4,2.4,3.7,2.5,6c0.1,2,0.5,4,0.9,6
		c1,5.4,2.9,10.4,6.6,14.5c2.8,3.1,5.8,6.1,8.5,9.3c1.5,1.8,3.3,2.6,5.5,2.8c1.7,0.2,3.3-0.2,4.3-0.5c6.5-5.2,11.4-11.1,16.2-17.1
		c2.1-2.6,3.8-5.5,5.1-8.6c1-2.3,1.7-4.7,2.6-7.1c1.3,3.7,0.7,7.4-1.2,10.5c-2.7,4.5-5.6,8.9-9.5,12.6c-2.9,2.8-5.6,5.8-8.1,9
		c2.1,1.7,4.8,1.7,7.4,2.8c-1.8,1.2-3.2,0.2-4.5-0.1c-1.5-0.4-2.8-1.2-4.3-1.9c-1.7,1.5-3.9,2-6.2,2.4c4.3,13.8,18.7,24.4,36.7,23.1
		c-2.5-4.2-2.5-4.2-1.6-6.9c1.6,2.7,2.9,5.5,5.3,7.5c4.1-1.1,8.6-0.9,12-3.7c1-3.8,0.3-6.8-2.3-9.5c-1.1-1.2-2.1-2.6-3-4
		c-3.5-5.2-8.6-9.4-10.1-15.9c-0.2-0.7-1.2,0.1-1.3-1c-0.3-0.4,1.1-0.9,0.1-1.7c-0.5,0.5-1.4,0-2,0.9c-0.4,0.9-0.7,2-1.3,3.1
		c-0.5,0.9-0.4,2.2-1.9,2.9c0.1-2.4,1.8-4.3,1.1-6.9c-0.8,1.3-1.5,2.3-2.4,3.7c0.8-5.6,1.3-10.7,1.4-15.9c0.1-5.1,0-10.3,0-16.1
		c1.2,1.9,1.1,3.3,1.8,5c0.1-2.3,0.2-4.1,0.4-6c0.2,0,0.4,0,0.6,0c0,6.9,0,13.8,0,20.7c0.9-4.9,1-9.9,1-15
		c1.7,5.8,1.4,11.5,0.8,17.3c1.9-5.3,2.6-10.9,3.7-16.4c0.9-4.2,0.5-8.6,0.3-12.9c-0.2-4.3-1.4-7.3-4.8-11.1c0.5,6.3,1.3,12.6,1,19
		c-0.5-4.2-1-8.4-2.4-12.5c-0.4,2.5,1,4.9,0.1,7.4c-1-1.6-0.9-3.4-1.7-5.1c-0.5,2.6-2.3,4.9-2.1,7.2c0.2,2.3-0.2,4.6-0.2,6.9
		c0.1,6.9-0.9,13.9-0.7,20.8c0,0.7,0,1.4-0.8,2.5c0-4.6-0.1-8.8,0-12.9c0.1-4.3,0.3-8.6,0.4-13c-1.5,0.3-2.9,0.4-3.3-0.9
		c1.8-2.8,3.7-5.1,4.3-8.1c-0.8-0.3-1.2-0.9-1.9-0.5c0,1.3,0.2,2.7-0.8,3.7c-2.1-0.7,0.3-2.7-1.3-3.3c-0.7,0.2-0.7,1.4-1.9,0.8
		c0.5-3.6,3.4-6.2,4.1-10.1c-2,1.7-3.1,3.3-3.6,5.6c-0.7,3.5-1.8,4.5-4.3,5.2c0.3-1.2,1.6-2,1.4-3.4c-1,0.4-1.4,1.7-2.7,1.5
		c-0.3-0.3-0.7-0.6-0.7-1.2c0.7-1.6,2.3-2.6,2.8-4.3c-1.4-0.3-1.8,1.9-3.5,1.1c2.3-2.1,4.5-3.9,6.5-5.9c2-1.9,3.2-4.6,6.2-5.9
		c-1,2.9-3.7,4.2-4.7,7c1.6-0.4,2.3-1.6,4.3-1.4c0.6,0.1,1,1.4,2,1.9c1.1-2.2-0.2-4.3,0.5-6.4c0.7-2.1,0.8-4.4-0.4-6.8
		c-0.7,1.2-1,2.4-2.6,2.5c0.3-1.6,1.7-2.5,1.6-4c0.2-0.3,0.1-0.6-0.2-0.7c-0.6-5.4-6.2-12.2-9.9-11.7c-1,0.4-1.6,1.4-2.7,1.6
		c-0.6-0.1-0.6-0.8-0.8-1c-1.4,0-2.2,1.3-3.7,1.6c0.9-2.1,3-2.4,3.8-3.6c-2.6-2.5-5.5-4.2-9.5-3.2c-0.8,0.6-2,1.2-2.8,2.3
		c0.4,0.3,0.8,0.6,1.1,0.8c-0.7,1.6-2.1,2.5-3.4,3.6c-1.4,1.2-3.2,2.1-4,3.9c-0.2,0.5-0.4,1.1-0.6,1.6c-1.6,1.4-3.1,2.8-4.7,4.2
		c-1.6,1.4-1.9,3.9-4.1,4.9c-0.4-1.4,0.8-2.1,0.6-3.2c-0.3,0.1-0.7,0.3-1,0.4c-0.1-0.1-0.2-0.2-0.4-0.3c0.7-1.7,2-2.9,3.3-4.2
		c4.5-4.5,8.1-9.9,13.5-14.2c-4-0.4-7.2-0.2-10.1,2.2C297.3,357,295.9,358.5,294.5,359.8z M396.9,610.7c0.8-2.4,1.7-4.5,2.5-6.5
		c2.4-6.1,4.6-12.4,4.6-19.1c0-5.4,0.1-10.8-2.1-15.9c-0.8-2-0.9-4.2-1-6.4c-0.6-7-1-14.1-2.3-21.1c-0.7-4.1-1.6-8.3-1.3-12.5
		c0.4-5.6-1.5-10.3-4.6-14.7c-2.7-3.9-4.6-8.1-5.6-12.7c-2.5-10.6-5.3-21.1-8.2-31.6c-5.6,0.9-8.8,5.9-13.6,7.7
		c-1.4,4.5-2.4,8.6-2.4,13c0,4.2-0.5,8.4-1,12.5c-0.2,2.3,0.4,4.5-0.2,6.8c-1,4.1-1.7,8.2-2.8,12.2c-1.2,4.5-1.3,8.8-0.1,13.4
		c1.5,5.8,2.7,11.6,2.2,17.7c-0.6,6.6-2,13.1-4.6,19.1c-1.9,4.3-3.6,8.6-5,13c-1.6,4.9-2.4,10-4.4,14.7c-0.9,2.1-1.5,4.5-1.1,7.2
		C362.7,608.6,379.8,609.6,396.9,610.7z M439.2,613.1c0.2-0.7,0.4-1.2,0.4-1.6c0.2-9.7,2-19.3,3.1-28.9c1.3-10.5,0.7-21,0.3-31.5
		c-0.1-2.5-0.3-5-0.9-7.5c-2.7-10.2-5.4-20.3-8.1-30.5c-1.3-4.9-2.6-9.7-3.3-14.7c-0.8-6.6,0.6-13.2-0.2-19.7
		c-0.1-0.5,0.1-0.9,0.2-1.4c0.4-2.9,1.1-5.9,0.8-8.9c-0.1-1.1,0.2-2.1,0.6-3.1c0.7-1.7,1-3.4,1.3-5.2c0.7-5.5,1.5-10.9,2.1-16.4
		c0.4-4.5,0.9-9,2-13.5c1.2-5,1.6-10.1,2.4-15.2c-4-1.4-7.8-1.5-11.6-1.1c-10,1-19.4,4.8-29.1,7.1c-0.4,2.8-0.8,5.3-1.2,7.9
		c2,3.5,2,7.8,3.7,11.5c3.3,7.2,5.8,14.7,8.2,22.2c0.8,2.7,2.6,5.1,3.1,8c0.5,3.2,1.4,6.3,2,9.5c0.6,2.9,1.2,5.9,0.8,8.9
		c-0.4,3.5,0.3,6.9,0.7,10.3c1,7.4,3.9,14.4,4.8,21.9c0.6,4.6,1.1,9.2,1,13.9c-0.3,9.2-0.2,18.5-0.7,27.6
		c-0.5,8.1,0.2,16.2,0.1,24.4c0,2,1.4,3.2,1.6,5.1c0.6,6,1.3,11.9,0.1,17.9c-0.1,0.7-0.4,1.4,0.4,2.2
		C428.8,612.8,434,612.9,439.2,613.1z M311.2,611.6c1.4,0.6,1.7,2,2.3,3.1c0.6,1.3,0.5,2.8,1.5,4c1.5,0.8,3,0.8,4.5,0.5
		c-0.2-2.2-2.3-3.7-1.9-6.6c2.8,2.4,3.2,6,5.9,8.1c1-0.1,2.1,0.4,3.1-0.3c1.8-2.5,0.3-5-0.3-7.4c0.5-2,1.5-3.8,0.5-5.7
		c1.1-1.4,2.2-2.2,3.5-2.3c1.2,0.1,1.1,2.3,2.8,1.1c0-1.8-1.3-3.2-1.9-4.8c-2.1-5.3-4.4-10.6-7.3-15.5c-2.4-4-4.2-8.3-5.2-12.8
		c-2.1-9.4-3.1-18.9-3.1-28.5c0-2.4-0.3-4.8-0.6-7.1c-0.9-8-2.6-15.8-3.4-23.8c-0.3-3.1-0.4-6.2-1.4-9.2c-2.5-7.9-4.9-15.8-7.1-23.7
		c-1.7-6.1-3.5-12.2-5.3-18.3c-0.1-0.4-0.3-0.9-1-0.9c-0.5,0.6-0.9,1.3-1.4,1.9c-0.8,0.1-1.6,0.2-2.4,0.4c0.2-1.9,2.2-2.4,3-3.8
		c0.9-1.5,1.5-3.2,2.2-4.8c-4-5.5-4.5-11.8-4.5-18.3c-2.6-2.9-5.2-5.6-7.7-8.5c-2.5-2.9-3.9-6.5-5.2-10.5c-3.1,2.3-5.8,4.3-8.6,6.4
		c-0.5,0.4-0.9,1.1-1.2,1.8c-2.2,5.8-3.3,12-2.3,18c0.9,5.9,2.9,11.6,5.6,17c2,3.9,3.5,7.8,3.9,12.4c1.1,11.7,2,13.5,8.3,23.6
		c0.4,0.7,0.9,1.4,1.3,2.1c0.8,1.2,1.4,2.5,1.5,4c-1.5,2.3-0.6,4.8-0.4,7.3c0.4,5.5,1.3,10.9,2,16.4c1.2,8.5,2.7,16.8,6.2,24.9
		c3.9,8.9,7.3,18.2,10,27.7c1.7,5.8,2.7,11.8,0.7,17.6c-1.6,4.7-2.7,9.4-3.1,14.3c-0.2,2.5,0.1,4.7,2.6,6.1c0.5-1.2-1-2.4,0.2-3.6
		c1.7,1,1.4,2.9,2.3,4.3c0.8,0.8,1.8,1,3.1,1.1c-0.5-1.4-0.9-2.5-1.1-3.6C311.6,614.1,310.3,613.1,311.2,611.6z M335.3,604.5
		c0.5,1-1,1-0.7,1.9c2.5,0.8,5.1,0.9,7.6,0.7c0.8-0.9,0.9-1.9,1.1-2.8c2.4-12,6.1-23.6,10.6-35c1.5-3.8,3.2-7.5,2.8-11.8
		c-0.3-3.1,0.2-6.2-0.1-9.3c-0.5-6.5-1.4-13-2.2-19.8c1.1-1.9,1.3-4.2,2-6.5c2.5-9.1,2.3-18.5,3.4-27.8c0.6-4.7,0.3-9.6,2-14.1
		c0.2-0.5,0.1-0.9-0.4-1.3c-5.7,0.7-11.1-0.7-16-4c-4.8,4.2-10.7,3.8-16.3,3.9c-0.6,1.2-0.3,2.1-0.2,3.1c0.2,4.1,1.1,8.1,0.4,12.2
		c-0.8,4.8-0.7,9.6-0.4,14.3c0.4,6.6-0.1,13-1.7,19.4c-1.8,7-3,14.1-2.9,21.3c0,10.4,0.6,20.8,1.4,31.2c0.3,3.3,0.6,6.4,2.9,9
		c0.4,0.4,0.8,1,0.8,1.6c0.3,2.6,1.6,4.9,3.1,6.8C334.3,599.6,333.6,602.6,335.3,604.5z M405.2,354.7c-9.8-2.4-19.3-3-28.9-1.8
		c-1.4,0.2-2.8,0.4-4.2,0.6c-5.1,0.9-10.1,2.1-14.3,5.3c-4.1,3.1-8.1,6.3-12.9,8.3c-2.4,1-4.7,2.2-7.1,3.4c-0.2,2.2,0.7,4.1,0.8,6.2
		c11.3-3,21.8-0.8,32.4,2.6c11.1,3.6,18.4,11.7,25.6,20.2c0.9-0.9,0.3-2.5,1.6-3.6c0.9,1.4,0.7,2.8,0.4,4c-1,3.1-0.7,6.1,0.6,9
		c0.5-0.1,0.7-0.5,1-0.9c4.5-7.4,8.9-14.7,13.4-22.1c0.5-0.8,0.8-1.7,1.1-2.6c2.7-6.9,1.1-13.4-1.6-19.8c-1.1-2.5-2.8-4.5-5.2-5.7
		C406.4,357.1,405.2,356.5,405.2,354.7z M340.9,383.4c1.8-0.2,2.6,1,3.3,2.3c1.1,2.1,2,4.4,2.2,6.8c1,11.2-0.1,22.2-3.2,33
		c-0.4,1.3-0.9,2.5-0.5,3.8c0.7,3.3,1.7,6.5,3.7,9.3c2.2,3.1,4.3,6.3,6.9,9.1c1.6,1.8,3.2,3.6,4.4,5.7c2.2,3.6,2.1,7.3-1.2,10.2
		c-4.7,4.2-10,4.7-15.8,3.9c-0.9-0.1-1.8-0.6-2.8-0.3c-5.7,1.4-10.9-0.3-16-2.5c-3.7-1.6-7.6-3.1-10.3-6.3
		c-4.1-4.9-8.7-9.6-9.9-16.8c-2.6,1.3-3.3-1.6-5.5-2.2c0.7,4.7,1.9,8.9,3.4,13.1c0.5,1.5,1.3,2.9,2.6,3.8c1.7,1.2,3,2.7,4.4,4.2
		c2.9,3,5.5,6.4,8.8,8.9c8.8,6.9,18.7,7.8,29.2,4.7c-0.3-1.5-1.9-2.1-1.6-3.6c0.5-0.9,1.3-1.1,2.1-0.6c0.9,0.5,1.8,1.2,2.7,1.8
		c5.3,3.3,10.9,5.3,17,2.9c3.9-1.5,7.6-3.7,11.5-5.7c-1.5-2-3.3-3-5-4c-4.7-2.9-9-6.4-10.9-11.6c-1.9-5.1-4.3-9.8-6.5-14.7
		c-1.3-2.9-2.4-6-3.5-9c-1.1-3-1.4-6.1-1.7-9.2c-0.1-1.1-0.1-2.3,0.6-3.1c3-3.7,5.3-7.9,8.8-11.3c1.8-1.7,3.6-3.1,5.8-4
		c3.1-1.3,6.5-1.7,9.7-2.4c4.8-1,8.9,2.7,13.6,2.1c0.9-0.1,1.9,0.4,2.7,0.8c1.4,0.7,2.6,1.7,3.9,2.5c0.6,0.4,0.9,1.4,2.1,1.1
		c0-1.4,0-2.8,0-4.3c-1.1-0.4-1.8-1.4-2.6-2.3c-4.2-5.1-9.2-9.4-14.4-13.4c-0.9-0.7-2-1.4-3.1-1.8c-5-1.8-9.6-4.2-13.6-6.2
		c-8.2-0.4-15.6-1-23.2,0.5C339.6,380.1,340.2,381.5,340.9,383.4z M439.8,411.1c0.3-0.4,0.5-0.7,0.5-0.9c0-8.6,0.1-17.3-0.1-25.9
		c-0.1-3.1-0.7-6-2.6-8.8c-1.3-1.9-2.6-4-3-6.5c-0.1-0.6-0.7-1.2-1.2-1.8c-5-5.6-10.9-10-18.3-12.1c-2.3-0.6-4.6-1.5-7.6-1.8
		c4.4,3.2,8.1,6.1,9,11.4c0.8,5.3,2.1,10.5,1.1,15.9c-0.8,4.6-2.8,8.6-5.4,12.4c-1.6,2.4-3.8,4.5-4.8,7.1c-1.4,3.3-3.5,6.1-5.6,8.8
		c-2.2,3-2.9,5.8-2.1,9.5c6.4-3.1,12.9-5.4,19.7-7C426.1,410,433,409.3,439.8,411.1z M309.3,662.7c-2.6-0.8-5.2-1.4-7.8-1.9
		c-4.1-0.7-6-0.8-7.7,0.2c0.7,1.1,1.9,1.5,3.1,1.6c3.8,0.5,7.6,0.8,11.4,1.3c1.7,0.2,2.8-1,3.8-1.8c6,0.5,11-1.9,16.2-3.2
		c1.3-6.8,2.5-8.3,6.4-8c-0.8,1.8-3,2.1-3.9,4.3c5.7-1.2,11.1-2.1,16.3-3.8c-0.4-3.7-0.8-7-2.1-10.1c-1.2-2.9-2.5-5.6-2-9.3
		c-2.3,0.8-4.3,2-6.6,0.5c-0.8-1.9-1.7-3.8-2.4-5.8c-0.9-2.5-3.4-2.8-5.2-4.2c-3,0.8-5.9,0.8-8.4-1.6c-3,1.4-2.4,4.9-4.6,6.7
		c1.3,0.6,2.4,0.2,3.4,0.3c3.5,0.3,6.9,0.6,10.1,2.3c0.6,0.3,1.3,0.8,0.8,1.9c-5.5,0.3-11.1-3.1-16.6-0.5c12.8,1.2,14.2,1.6,16,4.6
		c-0.8,1.5-2.1,0.7-3.2,0.6c-4.8-0.7-9.6-2-14.6-1.4c-0.4,0.5-0.7,0.8-0.9,1.2c-0.1,0.2-0.1,0.4-0.2,0.7c10.2-0.7,12.3-0.3,14.1,2.5
		c-0.8,1.6-2.2,1.2-3.5,1c-3.8-0.4-7.6-0.5-11.5-0.6c-0.9,0-2-0.3-2.4,1.1c3.6,0.6,7.8-1,11.2,2.1c-2.5,2.5-5.4,0.2-7.7,1.3
		c-0.1,0.6,0.7,1.3-0.3,2.1c-2.4,1.1-4.8-0.5-7.6-1c-1.1,1.3-2.8,2.3-4.4,3.3c-3.3,2.1-3.9,5.1-3.2,8.6
		C300.5,658.6,305.5,658.7,309.3,662.7z M425.1,626.7c-1,0.8-1.7,1.8-1.7,2.8c-0.1,2.9-0.9,5.6-2,8.3c11.2,0.2,13.1,0.7,14.5,3.6
		c-1.5,1-3,0.3-4.5,0.1c-3.2-0.5-6.4-0.5-9.7-0.2c-1.8,0.1-2.7,0.8-3.7,2.9c3.5-1.9,6.7-1.8,9.9-1.8c5.3,0.1,7.1,0.6,8.6,2.7
		c-0.2,0.6-0.6,1.1-1.2,1.1c-5.9-0.1-11.8,0.6-17.9,0.3c-0.3,0.6-1,1.4-0.3,2.3c5.1-1.7,10.2-1.5,15.3-0.8c1.5,0.2,3.1,0.5,3.5,2.3
		c-0.2,0.8-0.6,1.4-1.2,1.4c-6-0.1-12.1,0.7-18.2-0.8c-0.2,1.1-0.8,2.2-0.4,3.4c4.9-0.6,9.8-0.1,14.7-0.4c1.1-0.1,2.1,0.2,2.3,1.6
		c-0.6,1.5-1.8,1.6-3,1.8c-5,0.6-9.9,0.8-15.1,0c-2.3,4.4-4.8,9-7.3,13.7c1.9,2.3,4.3,2.3,6.7,2.4c3.1,0.1,6.2-0.3,9.3,0.3
		c0.6,0.1,1.2,0.6,1.9-0.3c-5.4-2.4-11.1-1.1-16.7-2.1c1.3-1.9,3-1.8,4.5-1.8c6.2,0.1,12.4,0.8,17.9,4c2.5-0.6,5-0.8,7.5-0.8
		c3.3,0,6.1-1.1,7.2-4.7c0.1-0.4,0.4-0.9,0.4-1c1.6-1.4,3.2-2,4.6-2.9c0.3-1.9-0.2-3.5-0.3-5.1c0.3-0.4,1-0.3,0.9-1.1
		c-0.6-2.1-1.2-4.2-1.3-6.5c-0.2-2.1-0.5-4.4-1.3-6.3c-1.3-2.9-2.8-5.7-3.4-9.4c-1.2,1-1.8,2.2-3.5,2.5c-0.9-0.2-2.3-0.1-3.7,0
		c-1.4-1.8-2.4-3.9-2.7-5.9c-0.5-4.1-3.5-4.7-6.5-5.5C428.1,626.3,426.7,626.4,425.1,626.7z M321.5,571.2c0.3-5.5,0.4-11,0-16.5
		c-0.1-1.8-0.2-3.6-0.1-5.4c0.6-8.3,2.1-16.4,3.9-24.4c1-4.2,1.7-8.5,1.3-12.8c-0.4-5.7-0.2-11.5-0.2-17.2
		c0.1-5.7-0.2-11.5-1.4-17.2c-2.2-1-4.4-2-6.6-2.9c-4.3-1.6-7.7-4.3-10.3-8c-2.1-3-4.7-5.8-6.8-8.8c-0.2-0.3-0.6-0.4-0.8-0.5
		c-0.6,0.3-1,0.7-1.1,1.5c0.7,1.5,1.6,3.1,2.2,4.8c3.9,10.6,7.2,21.3,8.7,32.5c0.2,1.7,0.4,3.3,1.2,4.8c1.4,2.6,2.1,5.4,2.4,8.2
		c1.4,10.5,2.8,21.1,4.3,31.6c0.8,5.8,2.4,11.6,1.8,17.4C319.5,563,320.5,567.1,321.5,571.2z M221.9,615.7
		c-3.8-4.9-2.8-17.9,1.7-22.1c1.3-0.1,2.7-0.3,3.8,0.6c2,1.6,1.4,4.2,2.2,6.3c1.2,0.3,2.4,0.5,3.7,0c0-2,0.1-3.9,0-5.8
		c-0.3-3.6-0.6-7.2-1-10.7c-0.4-3.7-1.3-7.3-2.9-10.7c-0.9-2-2.1-3.7-4.6-4.2c-3,0.9-4.4,3.5-5.7,6.1c-2.4,5-3.7,10.3-4.8,15.7
		c-2.2,10.8-2.4,21.6-1.6,32.5c0.3,4.5,1.1,9,2.8,13.3c0.6,1.5,1.1,2.9,2.2,4.1c1.7,2,3.6,2.2,5.6,0.4c1.7-1.6,2.8-3.6,3.7-5.7
		c2.6-5.9,4.1-12.2,5-18.6c0.3-2,1.2-4.1,0.5-6.3c-1.3-0.2-2.4-0.7-3.7,0c-0.7,1.7-1,3.7-2.6,5C224.7,616.2,223.3,616.2,221.9,615.7
		z M221.7,569.2c-5.1-1.6-7.5-0.8-10.1,3.3c-1.9,2.9-3.1,6.2-4,9.5c-3.4,11.8-4.4,24-4,36.2c0.2,6.1,0.8,12.2,3.1,17.9
		c2.2,5.6,4.4,7,10.8,6.5c-2.9-3.5-4.1-7.6-4.9-11.8c-1-5.3-1.5-10.7-1.5-16c-0.1-7,0.4-13.9,1.6-20.7
		C214.1,585.3,215.8,576.5,221.7,569.2z M531.3,588.2c-6-1.1-8.2-0.7-11.3,5.3c-1.1,2.1-2,4.3-2.7,6.6c-2.8,9.5-4.4,19.1-4.4,29
		c0,5.6-0.1,11.3,0.8,16.8c0.6,3.9,1.4,7.8,3.1,11.4c1,2.2,2.5,3.8,5,4.3c1.6,0.3,3.2,0.4,5.2,0.6c-4.3-5.7-5.3-12-6-18.3
		c-1.2-11.1-0.6-22.3,1.4-33.3C523.9,602.8,525.6,594.9,531.3,588.2z M423.8,619.8c29.5,1.9,58.6,3.8,87.7,5.7
		c0.8-2.3,0.8-2.3,0.4-4.8c-14.6-2.3-29.3-2.1-43.9-3c-14.8-0.8-29.5-1.8-44.5-2.7C423.6,616.8,423.7,618.1,423.8,619.8z
		 M226.2,602.6c-1.2,1.9-1.1,3.4-0.6,5.4c25.7,1.5,51.2,3.6,77,4.5c0-1.7,0.8-3.1-0.7-4.7C276.9,605.9,251.4,605,226.2,602.6z
		 M535.3,622c-0.7,2.6-0.7,2.6-0.1,5.1c20.2,1.4,40.6,2.8,61.6,3.9c-1.2-2-0.2-3.5-0.4-5C592.7,625.3,543,622.1,535.3,622z
		 M396.3,613.7c-3.1-0.7-63.6-4.4-67.1-4.1c-0.4,1.2-1.3,2.4-0.6,4.2c5.7,0.4,11.4,0.8,17.1,1.2c5.7,0.4,11.5,0.6,17.2,1
		c5.7,0.4,11.4,0.9,17.2,1.1c5.6,0.2,11.3,1.2,17.1,0.7C396.9,616.2,396.6,614.9,396.3,613.7z M152.2,603.4
		c16.7,1,33.4,2.1,50.2,3.1c0.1-2,0.8-3.5,0.1-5.3c-16.6-1-33.3-2.1-50-3.1C151.2,599.7,151.2,601.3,152.2,603.4z M533.7,613.9
		c-3.2,2.8-4.3,8-3.3,16.1c0,0.2,0.2,0.3,0.4,0.4c0.2-0.1,0.5-0.1,0.6-0.3c0.3-0.4,0.5-1,0.7-1.5c0.4,0.5,0.8,0.9,0.5,2.1
		c-3.7,4.1-4.5,10-6.6,15.1c0.7,2.5,0.7,2.5,2,4.2c1.4-0.6,1.6-1.9,2-3.2c1.3-4.3,1.7-8.7,2.4-13.1c0.2-1.3,0.1-2.9,1.6-3.5
		c1.1,0.3,0.4,1.8,1.8,1.8c0.3-0.7,0.5-1.5,0.8-2.2c-0.7-0.9-2-0.3-2.6-1.2c-1.2-3.3-1.1-5.1,0.4-8.9c0.9-0.8,2.2,0.5,3-0.6
		c0.1-1.6-0.4-3-1-4.4C535.6,614.1,534.8,613.8,533.7,613.9z M341.8,627.3c0-3.7-1-6.7-2.1-9.8c-3.5-0.2-7-0.4-10.6-0.6
		c-0.2,4.2,3.6,4.3,5.2,5.9c0.9,1.5,1.5,2.8,2.3,4c0.7,1.1,0.9,2.7,2.3,3.3C340.7,629.8,341.2,628.4,341.8,627.3z M318.4,344.2
		c-3.6,2.3-4.8,4-4.3,6.2c1.3-0.5,1-2.2,2.2-2.6c0.7,0.2,1.5,0.3,1.9,1.1c0.1,1.3-2.9-0.1-1.7,2.2c2.7,0,5,1.5,7.5,2.3
		c0.9-1.6,0-2.9-0.6-4c0.8-0.6,1.4-0.3,1.8,0.1c2,1.5,2.8,3.5,2.7,5.9c-0.1,1.3,0.5,1.8,1.7,2.1
		C329.7,350.7,325.2,345.4,318.4,344.2z M440.7,635.4c-0.2-4.4-1-8.1-2-11.8c-5-0.5-9.7-0.9-14.6-0.8c0.2,1,0.6,1.2,1.1,1.1
		c1.1-0.1,2.1-0.3,3.2-0.3c2.8-0.2,5.1,1.3,7.3,2.6c1.6,0.9,1.6,2.9,2,4.4C438.3,632.3,438.8,633.8,440.7,635.4z M226.3,595
		c-3.7,4.8-4.3,14.9-1.2,19.5c1.6-1,1.9-2.5,2.1-4.1c-0.9-0.4-1.9,0-2.9-1.1c-0.6-2.6-0.8-5.6,0.4-8.4c1.2-0.8,2.4,0,3.6-1.1
		C227.6,598.5,227.9,596.6,226.3,595z M537.3,638.6c-0.3,1.1-0.7,2.1-0.9,3.2c-0.2,1.1-0.4,2.3,0,3.5c1.9-3.5,3.4-12.1,2.7-15.9
		c-2.4,1.2-2,3.8-3.1,5.3C536.5,636.2,536.9,637.5,537.3,638.6z M222.8,614.5c-1.5-6.6-0.8-13,1.4-19.6
		C220.1,598.8,219.3,609.9,222.8,614.5z M203.3,632.7c0.3-0.1,0.6-0.2,1-0.2c-0.2-1.3-0.4-2.5-0.6-3.8c-0.2-1.3-0.3-2.6-0.5-3.9
		c-0.2-1.1,0.3-2.4-0.9-3.3C202.2,625.3,200.2,629.3,203.3,632.7z M533.3,647.8c1.1-0.4,1.2-1.3,1.3-2.1c0.2-2.2-0.1-4.5,0.7-6.7
		c0.3-0.8,0.1-2-1.1-2.4c-0.3,2-0.7,3.8-0.7,5.7C533.5,644.2,531.4,646,533.3,647.8z M443,635c2.4-2.8,0.6-5.3,0.1-8.6
		C442.3,630.8,442.3,632.5,443,635z M313.9,346c-1.8,1-4.3,1.2-4.9,3.6c0.9,0.6,1.8,0.5,2.7,0C312.4,348.4,313.2,347.2,313.9,346z
		 M341.6,425.1c1.1-2.4,1.1-2.4,0.9-5c-0.2,0.4-0.5,0.7-0.5,1C342,422.3,341.3,423.3,341.6,425.1z M331.5,390
		c1.2-0.2,1.5,1.1,2.3,1.6c0.2-1.1,0.1-1.9-0.5-2.6C332.5,388.9,332,389.4,331.5,390z M326.7,353.9c-0.3-0.5-0.6-1-0.9-1.5
		C325.3,353.3,325.7,353.8,326.7,353.9z M306.2,644.3c0-0.4-0.2-0.7-0.6-0.7c-0.4,0-0.9,0.1-0.7,0.8
		C305.3,644.6,305.8,644.6,306.2,644.3z"/>
	<path d="M812.9,153.4c0.1,0.3,0.2,0.7,0.4,1.1c-1.2,0.6-1.8-1-2.9-0.7c-0.3,1-0.5,2.2-2,2.7c-1.1,0.2-2-0.7-2.8-1.1
		c-0.7-0.7,0.2-1.2-0.1-1.7c-0.7-0.5-1,0.6-1.7,0.2c-0.4-1,1.1-1.9,0.6-3c1-0.7,1.9-0.9,2.9-0.8c-0.2,0.8-1.2,0.7-1.6,1.6
		C808.3,151.7,810.6,152.6,812.9,153.4L812.9,153.4z"/>
	<path d="M804.1,174.7c-1.1,1.3-2.7,1.2-3.9,0.9c-3.6-0.8-7.1-1.5-10.8-1.3c-0.2-1.3,0.6-1.5,1.3-1.5c2.5-0.1,5.1-1,7.5,0.5
		c1,0.6,2.2,0.8,3.4,0.6C802.5,173.6,803.6,173.4,804.1,174.7z"/>
	<path d="M816.1,149.6c-2.9-2.9-6.3-3.1-10-2.5c-1.7,0.3-3.5,0.6-5,0.4c-0.4-0.7-0.2-1.1,0.1-1.2c3.5-0.7,7-1.3,10.5-0.6
		C813.8,146.2,815.7,147,816.1,149.6z"/>
	<path d="M797.1,152.1c-0.2,2.9-1.9,5.1-3.3,7.4c-0.8,1.3-1.7,2.6-2.4,3.7c0.5,1.7,2,2.1,2.6,3.6c-1,0.6-1.7-0.3-2.7-0.5
		c-0.2-0.9-0.5-1.9-0.7-2.8c0.1-0.5,0.1-0.7,0.2-0.9c1.8-3.3,4.2-6.4,5.6-10C796.5,152.2,796.8,152,797.1,152.1L797.1,152.1z"/>
	<path d="M375.9,437c0.9-2.6,2.2-4.9,4.9-5.9c0.8-0.3,1.4,0,1.7,1.1C381.1,434.6,377.5,434.5,375.9,437z"/>
	<path d="M881.8,310.2c0.6-2.7,1-4.7,1.4-6.6c0.1-0.5,0.3-0.9,0.8-1.1C886.3,304.2,885.7,306.6,881.8,310.2z"/>
	<path d="M833.8,161.4c-0.3,1.2,0.9,2.2,0.5,3.7c-1.9,0.4-1.2,2.9-2.8,3.8c-1.1-0.4-0.8-1.3-1.2-2c1.5-1.5,2.8-2.9,2.5-5.2
		c0-0.1,0.6-0.3,0.9-0.5L833.8,161.4z"/>
	<path d="M809.3,220.3c-3.6,0-7.1,0-11.1,0C801.3,218.4,806.7,218.6,809.3,220.3L809.3,220.3z"/>
	<path d="M798.4,178c-3.1,2.1-5.6,1.4-8-1C793.1,177.3,795.7,177.6,798.4,178z"/>
	<path d="M804.9,189.7c2.9-0.9,5.8-1.6,8.8-1.5C810.9,189.7,808,190.1,804.9,189.7z"/>
	<path d="M828.7,172.9c-0.6,3.2-1,4-3.8,6c1-1.9,1.9-3.9,2.9-5.8c0.1-0.2,0.7,0,1-0.1L828.7,172.9z"/>
	<path d="M827.5,135c3.4-0.5,6.3-1,9.8-0.9C832.8,135.6,831.9,135.7,827.5,135z"/>
	<path d="M415.3,591.4c1.6,0.2,2.9,0.9,3.9,1.8c0.3,0.8,0.1,1.3-0.8,1.7C416.8,594.4,416.1,592.9,415.3,591.4z"/>
	<path d="M794.6,165.8c2.5-1.3,4.2,1.9,6.6-0.3C799.4,168.3,798.7,168.3,794.6,165.8z"/>
	<path d="M415.8,510.6c0.5,2.5-0.4,4.3-1.4,6.1C413.9,514.6,414.1,512.7,415.8,510.6z"/>
	<path d="M405.3,616.8c-3.5,1.5-3.8,1.4-4.3-1.3C402.5,615.4,403.4,616.8,405.3,616.8z"/>
	<path d="M809.3,220.4c1.8,0.2,3.5,0.8,5.3,0.1C812.1,222.9,811,222.8,809.3,220.4L809.3,220.4z"/>
	<path d="M797.2,152.1c-0.8-1.7-1.7-3.3-1.4-5.3l-0.1,0.1C797.2,148.4,798.3,149.9,797.2,152.1L797.2,152.1z"/>
	<path d="M362.6,432c1.9-0.3,2.9-1.4,4.3-0.7C365.9,433,365.9,433,362.6,432z"/>
	<path d="M410.2,616.1c-1.9,1.5-1.9,1.5-3,0.5C407.9,615.5,408.9,615.8,410.2,616.1z"/>
	<path d="M821.7,192.4c-0.1-1.8,0.1-3.5,1.9-5.4C823.4,189.5,822.6,191,821.7,192.4z"/>
	<path d="M385.3,414.5c1.5,0.5,2.6,1.5,3.1,3C386.7,417.3,386.3,415.6,385.3,414.5z"/>
	<path d="M399.8,514.8c0.5,1.3,0.3,2.1-0.6,2.8C398.3,516.6,398.9,515.8,399.8,514.8z"/>
	<path d="M413.5,523.4c-0.6-1.1-0.6-1.9-0.2-2.7C414.3,521.6,414.3,521.6,413.5,523.4z"/>
	<path d="M806,206.7c-0.2-1.1-0.4-2.1-0.6-3.2C806.5,204.5,806.2,205.6,806,206.7z"/>
	<path d="M372.2,433.6c-1.6,0.5-2.1-0.6-3.3-1.3C370.7,431.8,371.4,432.6,372.2,433.6z"/>
	<path d="M861.5,222.5c0.3-1,0.8-2,2.3-2C863.5,221.9,862.3,222,861.5,222.5z"/>
	<path d="M852,240c-1.7-0.6-2-1.3-2.4-2.3C851.1,237.6,851.3,238.6,852,240z"/>
	<path d="M803,127.3c0.3-0.2,0.5,0,0.6,0.3c0.2,1.2-0.6,1.6-2,2.1C802.1,128.7,803,128.2,803,127.3z"/>
	<path d="M400.3,511.5c-1.1-1.1-0.4-1.8,0.3-2.5C401.2,509.9,401,510.6,400.3,511.5z"/>
	<path d="M815.5,187.3c1-1.2,1.6-1.8,3-2C817.8,186.3,817.1,186.9,815.5,187.3z"/>
	<path d="M873.4,409.9c0.9-0.6,1.3-0.2,1.7,0.4C874.1,411.2,873.8,410.8,873.4,409.9z"/>
	<path d="M416,615.2c-0.3,1.2-1,1.4-2.4,1.9C414.2,615.6,414.8,615.1,416,615.2z"/>
	<path d="M852.2,244c-0.6-0.6-0.4-1.2,0-1.8C853,243.3,853,243.3,852.2,244z"/>
	<path d="M794.5,170.5c0.1-0.8,0.2-1.2,0.8-1C795.6,170.1,795.4,170.4,794.5,170.5z"/>
	<path d="M388.1,473.8c0.7,0.2,1.1,0.3,1.2,1C388.5,475.2,388.1,475.1,388.1,473.8z"/>
	<path d="M385.6,471.5c0.5,0.1,0.8,0.4,0.7,0.9C385.6,472.2,385.6,472.2,385.6,471.5z"/>
	<path d="M826.7,218.3c0.5-0.7,1.2-0.7,1.9-0.6C828,218.3,827.2,218,826.7,218.3L826.7,218.3z"/>
	<path d="M813,153.5c-0.2-0.4-0.5-0.8-0.7-1.2c0.9-0.6,1.3,0.1,1.7,0.7C813.8,153.6,813.3,153.5,813,153.5L813,153.5z"/>
	<path d="M823.8,219c0.8-1,1.9-0.6,2.9-0.7l-0.1-0.1C825.8,219,824.7,218.7,823.8,219L823.8,219z"/>
	<path d="M823.7,218.9c-0.6,0.7-1.4,0.6-2.7,0.6C822.2,218.9,823,219,823.7,218.9L823.7,218.9z"/>
	<path d="M864.3,255.9c0.5,0.3,1.1,0.6,0.8,1.3C864.2,257.2,863.7,256.9,864.3,255.9z"/>
	<path d="M881.7,313c0.5,0.7,0,1-0.6,1.2c-0.6-0.2-0.6-0.7-0.3-1C881,312.9,881.3,312.8,881.7,313z"/>
	<path fill="none" d="M822.2,426c13.7-6.3,28-9,43.2-7.9c1.4,2.2,2.3,4.9,5.1,6.5c-0.8,4.7,0.1,9.6-0.9,14.5
		c-0.7,3.1-0.4,6.4-0.5,9.7c-0.4,7.4-0.2,14.8,0,22.2c0,0.4,0.1,0.7,0,1.1c-1.4,5.3-0.6,10.7-1,16.1c-0.6,8.3,1,16.4,3.3,24.4
		c3,10.6,5.6,21.3,8.5,31.9c0.6,2.2,0.5,4.5,0.7,6.8c0.7,10.3,0.9,20.5-0.3,30.8c-1.2,10.9-2.6,21.8-3.6,32.8
		c-0.5,6.1,0.5,11.8,1.2,17.7c0.1,0.8,0.6,1.6-0.1,2.5c-1.4-1.1-2-2.6-2.4-4.2c-0.5-1.7-0.4-3.8-2.2-4.7c-2.4-1.2-4.8-2.8-7.7-2.5
		c-1.1,0.1-2.1,0.2-3.4,0.3c-0.7-1.9-0.8-3.9-1-5.9c-0.7-7.4-1.1-14.8-2.6-22c-1.4-7.1-3.4-14.2-5.1-21.3c-0.3-1.2-0.6-2.3-0.8-3.5
		c-0.4-2.6-1-5-2.1-7.5c-1.5-3.4-1.9-7.2-2.5-10.8c-1.4-7.9-0.9-15.8-0.2-23.6c0.2-2-1.1-3.5-0.6-5.5c0.4-1.7-0.5-3.3-1-5
		c-0.9-3.1-2.4-6-2.5-9.3c0-1.3-0.5-2.6-1.3-3.7c-3.3-4.7-3.8-10.2-4.9-15.6c-0.3-1.2-0.1-2.4-0.7-3.5c-3.1-5.8-3.7-12.3-5.2-18.6
		c-2.4-10.2-4.9-20.5-6.5-30.9c-0.3-2.1-1.3-4.1-2-6.1C822.7,429.5,821.8,428,822.2,426z M848.9,500.6c-2.1,4.8,0.2,9.1,5,9.8
		c-1.7-1.8-2-4.4-4-5.7C849.6,503.3,850.3,501.9,848.9,500.6z M863.1,507c0.2-3.9,0.2-3.9-1.1-5.1
		C861.4,503.8,862.4,505.3,863.1,507z M853.3,527.6c0.2,1.8,0.4,3.6,2.1,5.3C855.4,530.5,855.2,528.8,853.3,527.6z M856.5,538.3
		c0.1,1,0.2,2,0.3,3c0,0.3,0.1,0.7,0.8,0.8C858.5,540.7,858,539.5,856.5,538.3z M872.7,617.4c0,1.1-0.5,1.7,0.4,2.2
		C873.5,618.9,873.4,618.4,872.7,617.4z"/>
	<path fill="none" d="M779.6,626.8c-0.8,1.6-1.3,3.1-3.4,3.3c-1.7-2.2-2.9-4.8-4.2-7.3c-2.2-1.4-4.7-2.3-5.8-5.1
		c-0.4-1.2-2.2-1.5-3.9-1.9c1-2.1,0.7-4.1,0.8-6.1c0.1-6.7,0.1-13.4,0.3-20.1c0.1-4.4,0-8.9-0.4-13.3c-0.8-9.2-1.3-18.4-1.2-27.6
		c0.1-8.6,1.9-17.1,3.8-25.5c0.9-4,1.4-8.2,1-12.4c-0.5-5.2-0.5-10.5,0.1-15.7c0.5-4.4,0.1-8.8-0.2-13.3c-0.4-4.6-1.1-9.3-1.3-13.9
		c0-0.9,0-2-0.4-2.8c-1.7-3.5-1.4-7.2-1.2-10.9c0.5-10.4,1.6-20.8,1.6-31.2c1.3-1.4,2.8-2.7,2.6-4.9c5.3-0.8,10.2,0.2,15.2,1
		c3.9,0.7,7.7,2.1,11.5,2.7c6.5,1.1,12.6,3.5,19.4,4.2c-0.2,1.6-0.2,3.1-0.5,4.5c-1.8,8.3-3.8,16.6-6.7,24.6
		c-2.8,8-5.4,16.1-7.5,24.3c-1.3,5.4-1.6,10.9-2.1,16.3c-0.9,9.6-1.4,19.3-3.6,28.8c-0.4,1.5-1.1,2.9-1.7,4.5
		c1.6,9.9,2.6,20,2.3,30.2c-0.1,3.5-1.4,6.6-2.7,9.6c-5.7,14.3-9.8,29-12.5,44.1c-0.2,1.3-0.6,2.6-1,3.8c-0.3,0.9-0.7,2-0.2,2.8
		C779.2,621.7,778.8,624.3,779.6,626.8z M783.2,500.1c-1.2,1.7,0.6,3,0.3,4.5c-1,2.9-2,5.8-2.9,8.5c0.1,1.2,0.6,1.9,1,2.6
		c1.4-3,3-5.9,4-9.4C783.7,504.9,786.4,501.6,783.2,500.1z M778.8,540.9c0.9-3.2,2.4-6.3,2.5-10.1
		C779.1,532.9,778.2,536.6,778.8,540.9z M777.8,551.4c2.3-2.6,2.4-3.2,1.2-5.8C777.9,547.5,778.1,549.5,777.8,551.4z M771.2,504.5
		c-1.9,2-1.9,2.2-0.3,5.7C771.1,508,771.1,506.4,771.2,504.5z M775.2,604.4c0.4-1.2,0.4-2.3-0.6-3.5
		C773.9,602.5,774.7,603.4,775.2,604.4z M774.1,609.1c0.1,1.1,0.1,2.2,0.2,3.7C775.7,611.3,775.4,610.2,774.1,609.1z M778.5,557
		c-1.1,0.9-0.9,1.8-0.6,2.7c0.1,0.5,0.8-0.1,0.3,0C778.9,558.9,779.4,558.2,778.5,557z M774.7,617.2c0.9-1,0.8-1.6-0.2-2
		C774.3,616.2,774.3,616.2,774.7,617.2z"/>
	<path fill="none" d="M843.8,299.4c2.4,0,4.7,0.4,6.8,1.3c0.4,0.7,0.3,1.1,0.1,1.5c-3,6.6-3,13.5-2.3,20.4c0.4,3.8,2.5,7.2,4,10.7
		c2.5,5.7,5,11.3,7.5,17c1.1,2.5,1.7,5.2,2.4,7.9c-5.5,3.1-11.5,2.4-17.4,3.8c-0.1-1.5,0.7-2.6,0.9-4.1c-1.8,1.1-2.1,2.9-3.3,4.2
		c-3.2,1.2-6.6,2.1-10.3,2.3c-6.3,0.4-12.5,1.8-18.9,2c-8.8,0.3-17.4-0.6-26-2.6c-1.8-0.4-3.3-1.5-4.7-2.4c-0.7-0.1-0.5,0.6-1.1,1
		c-2.5-0.5-5.1-1.1-8-1.7c0.6-6.6,1.4-13.1,3-19.4c2.2-8.7,4-17.5,3.8-26.6c-0.1-5.5-0.4-11-1.9-16.5c4.7-1.7,9.5-2.5,14.4-3.2
		c6.9-0.9,13.8-0.3,20.8,0.3c3,0.3,6,0.5,9,0.5c7,0.1,13.8,1.3,20.5,2.9C843.3,298.9,843.6,299.3,843.8,299.4
		c-1.5,0.7-2.4,2-3.3,3.3C842.2,302.2,843.6,301.4,843.8,299.4z M790.5,354.2c0.2-0.8,0.1-1.5-0.3-2.3
		C789.9,352.8,789.8,353.5,790.5,354.2c0.1,0.6,0,1.3,1.4,2.1C791.2,355.2,791.7,354.3,790.5,354.2z M804.3,340.6
		c2.7,1.4,4.6,1.3,4.8-0.3c-0.8-0.5-1.2-1.6-2.2-2C805.7,338.6,804.6,338.9,804.3,340.6z M789.5,340.3c0.9-2.1,1.2-3.5-0.1-5.6
		C789.2,336.7,789.1,338.2,789.5,340.3z"/>
	<path fill="none" d="M838.6,205c1.9,1.1,3.8,1.8,5.1,3.3c-0.8,7.5-1.3,14.9-0.8,22.3c0.5,8.8,3,17.2,6.4,25.2
		c2.5,6,5.1,11.9,6,18.3c0.3,2.4,1.9,4.4,2.2,7c-2.8,5.2-3.3,11.4-6,17c-6.6-1.3-13-2.5-19.4-3.9c-3.4-0.8-6.9-0.7-10.4-1
		c-5.5-0.4-11-0.8-16.5-1.3c-7.9-0.7-15.5,0.5-23,2.8c-1.2,0.4-2.5,0.7-4,1.1c-1.8-6-5.7-10.4-9.4-15.1c-8.1-10.2-7.8-12.9-4.9-24.9
		c0.5-2,1.5-3.8,2.7-5.4c1.5-2.1,2.6-4.3,3.3-6.7c0.7-2.5,1.9-4.6,3.4-6.7c4.7-6.5,9.2-13.1,13.2-20.3c2.4-1.2,4.7-2.8,7.1-4.3
		c-2.5,4.5-4,9.4-6.6,13.8c-1.7,2.9-3,6-3.4,9.4c-0.2,1.3-0.3,2.6-0.2,3.9c0.4,5.3,2,7.3,7.2,8.2c7.1,1.2,14.3,1.3,21.3-1
		c4.3-1.4,8.4-3.5,12.4-5.6c4-2.1,6.1-6,7.7-10c2-5.1,2.8-10.4,3.7-15.7C836.6,212,837.1,208.5,838.6,205z M809,276.2
		c0.8,2,2.6,2.9,4.4,3.7c4.3,1.9,8.9,2.9,13.5,3.5c3.1,0.4,6.1,1.4,9.2,0.6c4.7-1.2,9.1-3,13.3-5.3c0.7-0.4,1.4-0.8,1.3-1.9
		C833.6,284.5,823.4,283.8,809,276.2z M852.4,274c0.5-0.4,1.5-0.6,1.1-1.8C852.7,272.5,852.3,273,852.4,274z"/>
	<path fill="none" d="M863,361c0.7,7.4,3.8,13.8,4,20.8c0,1.3,0.2,2.6-0.3,3.9c-2.5,6.4-2.6,13.1-1.8,19.8c0.1,0.5,0.1,0.9,0.1,1.3
		c-0.9,1.1-2,0.9-3.1,0.9c-8.7,0-17.5-0.1-26.2-0.1c-14.6,0-29.2,0.1-43.8,0.1c-5.5,0-11-0.1-16.5-0.2c-0.9,0-1.9-0.2-3.1-0.3
		c0.7-2.5,0-4.8-0.9-6.9c-0.9-2.1-3.2-3.3-3.5-6.1c2.8-4.5,1.8-10.3,3.7-15.3c2-5.2,0.2-10.6,1.6-16.1c2,0.5,3.9,0.9,5.7,1.4
		c4.5,1.4,9,2.4,13.6,3.3c8.9,1.7,17.8,2.3,26.8,1.1c9.1-1.3,18.4-1.8,27.4-3.6C852,364,857.4,363.3,863,361z M798.9,405.2
		c0.1-1.1,0.2-2,0.4-2.9c0.4-2.8-1.1-4.7-3.8-4.9c-2.5-0.2-4.4,1.6-4.4,4c0,2.6,1.8,4.2,4.7,4C796.8,405.5,797.7,405.4,798.9,405.2z
		 M777.3,401.5c1.4,0.2,1.3,1.9,2.5,2.4c0.3,0.1,0.7,0.3,1-0.1c0.2-0.9-0.8-1.5-0.7-2.3c1.6-2.3,1.6-2.3,0.5-5
		c-1.6,0-3.3-0.8-5.2-0.3c-0.7,2.5-0.9,4.9-0.2,7.4C776.8,403.6,775.8,401.5,777.3,401.5z M790.8,400.9c-1.5-3.5-3-4.6-5.5-4
		c-1.9,0.4-3.2,1.9-3.3,3.7c-0.1,2,1.2,3.6,3.2,4.1C787.7,405.3,789,404.4,790.8,400.9z"/>
	<path fill="none" d="M766.3,419.4c-1.8,0.9-3.3,1.3-5,0.6c-2.8-2.7-1.9-8.1-6.9-9.5c-0.1,1.7,1.6,1.3,2.1,2.1c0.7,3,2,5.8,3.4,8.6
		c-1.3,0.4-2.5,0.2-4-0.2c-2-3.6-2.7-8.5-7.8-10.8c0.6,2.2,2,3.2,3.1,4.5c1.2,1.4,1.6,3.2,2,4.9c-1.9,0.2-1.9,0.2-3.8-0.4
		c-1.8-1.9-1.8-4.8-4.2-6.8c-0.3,2.8,1.5,4.6,1.9,6.8c-1,0.5-1.7-0.3-2.6-0.8c-0.3-2.7-2.3-5-2-8.1c1.5-0.9,2.2-2.4,2.6-4.2
		c1.3-4.9,2.4-9.7,3.9-14.5c1.3-4,1.7-8.5,1.4-12.8c-0.5-8.3-0.2-16.5-0.2-24.8c0-3.6,0.2-7.1-1-10.6c-0.6-1.8-0.2-4-0.1-6.1
		c0.3-4.5,0.8-9.1,1.2-13.6c0.2-2.5,0.9-4.9,1.7-7.3c1.3-4.2,3-8.4,3.9-12.7c1-5.1,2-10.3,1.6-15.6c-0.3-4.2,0.2-8.4,0.9-12.5
		c1.1-6.8,1.2-13.6-1.4-20.1c-0.4-1-0.3-2.1-0.3-3.2c-0.1-4.9,0.9-9.8,0.2-14.7c-0.1-0.9,0.2-1.9,0.6-2.8c1.1-2.3,2.3-4.5,3.5-6.7
		c0.6-1.2,1.6-2.1,2.8-2.7c3.1-1.5,6.2-3.2,9.6-3.9c3.2-0.7,6.3-1.8,10-3.3c-5.3,9.7-11.7,17.8-16.5,27.8c-0.7-2.8,0.1-4.7,0.2-6.6
		c-1.5,2.1-2.6,4.3-2,6.9c0.4,1.8-0.2,3.3-1.1,4.8c-3.5,5.6-4.3,11.8-3.9,18.3c0.2,3.6,1.5,6.8,3.8,9.5c1.9,2.3,3.8,4.6,5.9,6.7
		c1.8,1.8,2.7,4.2,4.4,6.1c0.6,0.6,0.6,1.8,0.8,2.7c0.2,0.7,0.1,1.5,0.4,2.1c2.6,4.3,1.8,9,1.5,13.6c-0.7,8.5-3.1,16.7-4.7,25
		c-0.3,1.7-1.1,3.4-1.7,5.1c-1.4,3.7-2.7,7.5-2.9,11.5c-0.3,7.4-2.4,14.4-3.4,21.6c-0.5,3.3-1.2,6.6-1.8,9.9
		c-0.2,0.8-0.2,1.6,0.1,2.5c1.2,3.6,2.3,7.3,3.5,10.9c0.5,1.5,1,2.9,2.3,4c1.8,1.7,1.2,4.3,2.5,6.2c-1.3,0.9-2.4,0.5-3.5,0.5
		c-0.8-0.4-0.3-1.4-0.9-1.9C763.7,405.7,763.5,412.6,766.3,419.4z M772.1,311.3c-2.5-0.3-4.1,0.6-6.5,3.3
		C769.1,314.2,769.8,313.9,772.1,311.3z M760.9,379.1c-1,1.7-1.4,3.3-0.6,5.3C762.2,382.2,762.2,381.8,760.9,379.1z M762.3,374.6
		c-0.8,0.7-1.6,1.3-0.5,2.5C762.7,376.4,762.9,375.6,762.3,374.6z M763.8,371.4c-0.2-0.1-0.3-0.2-0.5-0.3c-0.8,0.5-0.9,1.2-0.3,2.1
		C763.5,372.6,764,372.2,763.8,371.4z M750.9,408.3c-0.8-1-1.3-0.9-1.9,0.1C749.8,409.3,750.4,409.1,750.9,408.3z M753.7,406
		c-0.6,0.7-0.6,1.3,0,2C754.2,407.3,755,406.9,753.7,406z"/>
	<path fill="none" d="M767.9,632.1c-2.2-3.2-5.4-4-14.4-4.3c1.2-2.6,2.7-5,2.9-7.8c2-1.4,4.2-0.8,6.4-0.8c2.3,1.8,4.2,4.2,7,5.4
		c1.2,0.5,1.6,2,2.1,3.2c0.7,1.6,1.3,3.3,1.9,4.7c2.5,1.4,4.4,0.2,6.7-0.7c-0.6,3.6,0.6,6.4,1.8,9.3c1.3,3.2,1.8,6.6,2.1,10.3
		c-5.2,1.5-10.5,2.7-16.5,3.8c1.2-2.2,3.4-2.6,4.1-4.4c-2.6,0-4.6,1.1-5.2,2.9c-0.3,0.8,0.6,1.8-0.6,2.6c-0.6,0.4,0.2,1.6-0.8,2.6
		c-4.9,1.3-10,3.6-16,3.2c-0.9,1.5-2.6,1.9-4.5,1.7c-3.3-0.3-6.7-0.6-10-1.1c-2.1-0.3-2.1-0.4-4-2.3c2.9-0.5,5.5,0,8.2,0.3
		c2.6,0.3,4.9,1.4,7.5,1.7c-3.8-3.8-8.9-4-14-4.5c-0.6-3.8,0.3-6.9,3.7-8.9c1.6-0.9,2.9-2.1,4.3-3.1c2.6,0.7,5,2.1,7.5,1
		c0.9-0.8,0.3-1.5,0.1-2.1c2.4-0.9,5,1.1,7.3-0.8c-1.5-2.3-1.5-2.3-10.7-2.6c0.3-1.3,1.3-1.2,2.3-1.1c3.8,0.1,7.7,0.2,11.5,0.6
		c1.3,0.1,2.7,0.6,3.5-0.9c-1.7-2.7-1.8-2.7-13.8-2.8c0.1-1.6,1.2-1.8,2.4-1.8c3.1-0.1,6.2,0.4,9.3,0.9c1.5,0.2,3.1,0.6,4.6,0.9
		c0.9,0.2,1.7,0.1,2.4-1.1c-1.8-2.7-5-2.7-7.7-3.3c-2.8-0.6-5.7-0.8-8.5-0.5c0.1-1.3,1-1.3,1.8-1.4c2.9-0.2,5.7-0.1,8.6,0.6
		C763.3,631.9,765.4,632.3,767.9,632.1z"/>
	<path fill="none" d="M868.8,673.3c-6-3.8-17.9-5.1-22.1-2.4c2.8,1.5,5.7,0.3,8.4,0.7c2.8,0.4,5.7,0.4,8.2,2c-4.5-1-9-0.1-13.4-0.6
		c-1.8-0.2-3.6-0.5-4.7-2.5c2.9-4.4,5.1-9.3,7.6-14c0.2,0,0.3,0.1,0.4,0.1c5.5,1.7,11,1.1,16.5-0.2c0.6-0.1,0.9-0.8,0.8-2
		c-2.5-1.7-5.5-0.4-8.3-0.6c-2.8-0.2-5.7-0.3-8.7,0.4c0.2-1.3,0.4-2.4,0.6-3.9c2.5,1.3,5.1,1.2,7.7,1.2c2.9,0,5.7,0.1,8.6,0.1
		c1.3,0,2.7,0.2,3.1-1.7c-0.6-2-2.5-2-4-2.3c-4.2-0.8-10.3-0.4-14.6,0.9c-0.7-0.8-0.3-1.5,0.2-2.5c2.3,0.8,4.8,0.5,7.2,0.2
		c2.7-0.3,5.5-0.1,8.3,0c1.4,0.1,2.9,0.3,3.6-1.5c-2.7-2.9-10.7-3.5-18.2-1.3c0.6-1.6,1.6-2.2,3.2-2.4c3.2-0.3,6.4-0.3,9.7,0.2
		c1.5,0.2,3,0.8,4.5,0.1c0.4-1.6-0.7-2-1.7-2.3c-2.8-1.1-5.8-1.3-8.8-1.4c-1.2,0-2.4,0-3.8,0c0.2-2,1.6-3.7,1.6-5.8
		c0-1.9,0.2-3.8,2-5.3c3.4-0.9,6.5,0.3,9.5,2c1.3,3,1.6,6.5,3.8,9.3c1.5,0,2.9,0,4.5,0c1.1-0.3,1.7-1.3,2.7-2.7
		c0.6,4.2,2.8,7.4,3.9,10.9c1.1,3.5,0.9,7.4,2.2,11.2c-1.3,1.9-0.4,4.1-0.4,6.5c-1.5,0.9-3,1.7-4.7,2.7c-1,5.3-5,6.3-9.7,6
		C872.4,672.5,870.6,673.1,868.8,673.3z M863.1,659.5c-1.7-2.2-3.6-0.7-5.4-0.6c-1.8,0.1-3.7-0.2-5.3,1.2
		C857.1,662.3,859.9,662.2,863.1,659.5z M886,656.8c-2.3,2.2-2.8,4.5-1.5,7.3C885.6,661.8,885.8,659.4,886,656.8z"/>
	<path fill="none" d="M660.2,376.4c2.4,0.5,3.6,2.1,4.5,4c1.8,3.5,2.8,7.3,3.6,11.2c1,5.2,1.7,10.4,1.7,15.6
		c-1.2,0.9-2.3,0.1-3.4,0.4c-1.3-2.2-0.7-5-3-6.5c-1.2-0.4-2.4-0.3-3.7-0.2c-2.5,1.8-2.7,4.7-2.9,7.3c-0.3,5.2-0.7,11.3,2.3,14.6
		c1.3,0.7,2.7,0.5,4,0.2c2-1.2,2-3.5,2.7-5.3c1.3-0.8,2.5-0.3,3.8-0.4c0.5,1.8,0.1,3.6,0,5.3c-0.5,6.4-1.4,12.8-3.6,18.9
		c-0.6,1.7-1.3,3.4-2.2,4.9c-2.7,4.6-5.9,4.5-8.5-0.2c-1.3-2.3-2.1-4.8-2.8-7.3c-1.5-5.4-2.2-11-2.6-16.6
		c-0.9-12.3-0.1-24.4,3.3-36.2c0.7-2.3,1.5-4.5,2.9-6.5C657.2,378.2,658.2,376.9,660.2,376.4z"/>
	<path fill="none" d="M858.6,285.7c1.6,5.1,3.2,10.3,4.8,15.4c1.6,5.1,1.4,10.7,3.8,16c-2.7,8.5-1.6,17.4-0.8,26.3
		c0.7,8,1.5,16,1.2,24c0,0.3-0.2,0.7-0.3,1.3c-0.7-0.8-0.6-1.6-0.7-2.3c-0.8-9.1-3.8-17.5-7.7-25.6c-2.2-4.5-4.4-9-6.6-13.5
		c-2.8-5.6-3.8-11.2-1.9-17.3c1.9-6,3.7-12.1,5.4-18.2c0.6-2.1,2-3.8,1.9-6.1C858.1,285.6,858.4,285.6,858.6,285.7z"/>
	<path fill="none" d="M972.4,444.6c2.3-1.8,2.9-4.5,3.7-7.1c1.8-5.9,2.7-11.9,2.9-18c0-0.4-0.1-1,0.5-1.1c0.5,0,0.7,0.4,0.7,0.7
		c-0.6,8.9-1.5,17.6-5,25.9c-0.6,1.5-1.5,3-2.6,4.3c-0.7,0.8-1.7,1.4-2.8,1.7c-2.3-0.3-3.4-1.9-4.4-3.7c-2.3-4.3-3.5-8.9-4.2-13.6
		c-2.3-14.6-2.1-29.1,1.3-43.5c0.7-3.2,1.8-6.2,3.4-9c1-1.7,2.1-3.2,4.3-3.7c2.8,0.4,4,2.7,5,5c1.8,4,3.1,8.3,3.7,12.7
		c0.6,4,0.8,8.1,1.2,12.1c0,0.5,0,0.9-1,1.3c-0.3-2.6-0.7-5.1-0.8-7.6c-0.2-6.6-1.5-12.8-4.5-18.7c-0.7-1.5-1.5-2.7-3-3.4
		c-0.5-0.2-0.9,0-1.4,0.7c1.5,0.3,2.3,1.4,2.9,2.7c3.5,7.9,5,16.2,5.2,24.8c0,0.5,0,1-0.5,1.4c-1.5-0.2-1.1-1.6-1.4-2.4
		c-1.1-3.5-1.9-4.5-4.2-4.4c-2.2,0-3.4,1.4-4.1,4.7c-1,4.9-0.8,9.8,0.2,14.8c-1.9,3.8-2.7,8-4.1,12.1c-0.8,2.4-0.3,4.5,0.8,6.5
		c1.5,2.7,3.6,2.9,5.7,0.4c0.4-0.5,0.6-1,0.9-1.5c0.7-0.5,1.1,0.3,1.7,0.2c0.6,0,1.1-0.1,1.8-0.1
		C973.8,440.8,973.2,442.7,972.4,444.6c-0.6,0.6-1.1,1.2-1.4,2.4C972.6,446.4,972.4,445.4,972.4,444.6z"/>
	<path fill="none" d="M656.7,376.6c-5.9,8.7-7.1,18.7-7.7,28.7c-0.7,10.9-0.5,21.8,2.1,32.5c1.1,4.4,2.5,8.7,5.6,12.3
		c-5.9,1.2-8.4-0.1-10.9-5.3c-2-4.4-3-9.1-3.7-13.8c-2-14.2-1.7-28.4,1.8-42.4c0.5-2.2,1.3-4.4,2.2-6.4
		C648.6,376.6,650.5,375.7,656.7,376.6z"/>
	<path fill="none" d="M966.9,451.3c-0.6,0.2-0.8,0.3-1,0.3c-7.3-0.5-9-1.8-11.3-8.8c-1.9-5.7-2.8-11.6-3.3-17.6
		c-1.1-12-0.3-23.9,2.5-35.6c0.5-2,1.2-3.9,1.9-5.8c2.5-5.9,4.2-6.9,10.7-6.5c0.5,1-0.5,1.4-0.9,2.1c-2.9,4.4-4.2,9.4-5.1,14.5
		c-2.6,14.9-2.6,29.8,0.6,44.6C962,443,963.5,447.4,966.9,451.3z"/>
	<path fill="none" d="M767.3,414.7c-1-1.1-1.4-2.4-1.5-3.8c0.7-1,1.6-0.7,2.4-0.7c21.1,0,42.1,0.1,63.2,0.1c7.9,0,15.8-0.1,23.7-0.1
		c3.2,0,6.4,0.3,9.8,0.4c0.1,1.4,0.3,2.7,0.4,3.9C861.9,415.3,771.7,415.3,767.3,414.7z"/>
	<path fill="none" d="M741.3,410.9c0.3,1.3,0.1,2.5-0.2,4.1c-26,0.6-52,0-77.9,0.1c-0.9-2.4-0.9-2.4-0.3-4.9
		C664.5,409.8,739.3,410.4,741.3,410.9z"/>
	<path fill="none" d="M1034.1,411.2c0,1.7,0,3.3,0,4.8c-20.4,0-40.7,0-61,0c-1-1.7-0.8-3.2-0.5-4.7
		C974.9,410.7,1028,410.6,1034.1,411.2z"/>
	<path fill="none" d="M949.7,411c0,1.6,0,3,0,4.6c-18.9,0-37.8,0-56.6,0c-0.4-1.7-0.7-3-1-4.4C896.2,410.4,939.9,410.2,949.7,411z"
		/>
	<path fill="none" d="M639.5,409.7c0.5,1.8,0.4,3.3,0.1,5.1c-16.7,0-33.4,0-50.1,0c-1.3-1.8-1.3-3.4-0.2-5.1
		C606.1,409.7,622.8,409.7,639.5,409.7z"/>
	<path fill="none" d="M766.5,390.4c-0.6-1.7-1.2-3.4-1.8-5c1.4-4.5,1.6-9.2,2.5-13.8c1.4-7.3,3-14.5,4-21.9
		c0.5-3.8,1.6-7.4,2.9-10.9c1.2-3.5,2.1-7.1,2.4-10.8c0.1-1.4,0.3-2.8,1-4.3c0.5,3,0.1,5.7-0.6,8.4c-3.4,12.7-5.2,25.8-6.6,38.9
		c-0.7,6.5-2.8,12.8-2.9,19.4C767,390.3,766.8,390.3,766.5,390.4z"/>
	<path fill="none" d="M795,418.1c6.8,0,13.6,0,20.6,0c-0.6,2.2-1.1,4.2-1.7,6.4c-5.2-2.1-10.5-3.3-15.8-4.6
		c-1.1-0.3-2.2-0.9-3.3-1.3C794.9,418.4,795,418.2,795,418.1z"/>
	<path fill="none" d="M836.6,126.2c-1.2-0.1-1.9-0.7-2.5-1.7c0.4-0.4,0.9-0.8,1.3-1.2c-0.8-1.2-1.9,0.7-2.7-0.3
		c-0.1-0.3,0.2-0.6,0.4-0.8c0.9-0.7,2.3-0.7,2.9-1.8l-0.1,0.1c4.7,0.4,7.3,3,7.6,8.2c0.1,2.4,0.7,4.9,0.1,7.8
		c-1.2-2.6-2.3-5-3.3-7.1C839.1,128,837,128,836.6,126.2c0.8,0,1.8,0.2,2.4-1.1C837.9,124.9,837.1,125.2,836.6,126.2z"/>
	<path fill="none" d="M971.1,420.3c-0.2-0.8,0.2-1.7-0.8-2.2c-0.8,0.1-0.2,1.5-1.8,1.2c-1.8-0.6-1-12,1.9-16.1
		c0.4-0.1,0.8-0.2,1.3-0.2c0.5,0,0.9,0.1,1.4,0.2c1.2,1.5,1.7,3.1,1.7,4.9c-0.9,0.9-2.3,0-3.2,1.2c-0.6,2.7-0.9,5.6,0.4,8.2
		c0.8,0.9,1.8,0.4,2.6,1c0.4,1.1,0,2-0.8,2.8c-0.7-0.4-0.2-1.4-1-1.7C971.9,419.3,971.6,420,971.1,420.3L971.1,420.3z M969.9,415.3
		c-0.5-2.1,0.4-4.2,0.2-6.7C968.5,411,968.8,413.2,969.9,415.3z"/>
	<path fill="none" d="M971,420.2c-0.4,5.2-0.6,10.5-1.7,15.6c-0.3,1.4-0.4,2.9-2,3.8c-1.6-1.8-2.5-3.6-1.6-6.1
		c0.9-2.6,1.4-5.3,2.3-7.9C968.6,423.6,969.2,421.5,971,420.2L971,420.2z"/>
	<path fill="none" d="M841.1,145c0.8,0.9,0.8,0.9,0.3,2.5c-4.2,2.6-8.5,2.6-13-0.2c2.6,0,4.8,1.6,7.8,0.9c-2.5-1.3-4.8-1.4-7.1-2.1
		c2.5-1.7,5.2-0.1,7.8-0.9c0.6-2.4,3.3-2.4,4.8-4c0.9,1.7-0.1,2.6-1,3.5c-1.4,0.3-2.4,1.2-3.7,2.1
		C839.4,146.5,839.4,146.5,841.1,145z"/>
	<path fill="none" d="M833.9,418.2c-4.1,2.2-7.6,3.5-11.3,4.3c-2-0.7-2.3-2.3-2.6-4.3C824.5,418.2,828.9,418.2,833.9,418.2z"/>
	<path fill="none" d="M662.8,421.8c-3.4-5.2-3.3-15.1,0.2-19.6c1.4,1.3,1.8,2.9,1.8,4.6c-0.8,1.1-2.2,0.3-3.3,1.5
		c-0.6,2.7-0.9,5.7,0.3,8.3c0.9,1.1,1.9,0.4,2.8,1.1C664.6,419.1,664.2,420.5,662.8,421.8z"/>
	<path fill="none" d="M660.5,402.3c-1.5,6.5-1.5,13,0.3,19.4c-2.1-1.6-2.2-1.6-2.8-7.7C657.6,409.9,657.8,405.8,660.5,402.3z"/>
	<path fill="none" d="M975.9,434.3c-0.7-1.4-0.6-2.5-0.6-3.6c0-1.1,0.3-2.1,0.6-3.4c-0.4-1.1-0.9-2.4-1.4-3.9c1-1.6,0.8-3.8,2.8-5.7
		C978.6,423.6,976.5,428.7,975.9,434.3z"/>
	<path fill="none" d="M804.9,127.5c0.4-1.8,2.8-1.7,3.5-3.4c-1.5-0.3-2.4,1-3.6,1.1c1.6-2.7,3.9-3.5,11.3-3.8
		c-2,1.7-4.6,1.2-6.1,2.8c0.4,1,1.2-0.3,2,0.6c-2.7,0.4-4.3,2.6-6.8,3L804.9,127.5z"/>
	<path fill="none" d="M829.5,129c2,0.2,3.3-1.7,5-1.9c0.9,0.3,1,0.8,0.9,1.5c-0.1,0.7,1.1,0.2,1.1,0.9c-0.9,1.1-2.1,1.9-3.5,2.3
		c-1.6,0.1-2.4-2.1-4.2-1.1c-0.2-1.1,0.6-1.3,0.8-1.8L829.5,129z"/>
	<path fill="none" d="M820.1,122.8c-1.4,0.1-3.1,1.2-5.8,1.1c5.5-2.6,10.2-2.4,15.3-0.2C826.1,126,823.5,123.1,820.1,122.8z"/>
	<path fill="none" d="M640.6,429.4c0.7,3.8,1.5,7.6,2.5,11.8c-2-0.3-2.5-1.5-2.8-2.9C639.9,435.3,640.2,432.3,640.6,429.4z"/>
	<path fill="none" d="M836.4,169.6c0.3,3-1.4,12.5-3.1,16.5C833.2,183.8,835.3,172.6,836.4,169.6z"/>
	<path fill="none" d="M841.3,149.1c-0.2,1,0.3,1.9-0.8,2.9c-3.7-1.1-7.9-0.3-11.6-2.6c2.1-0.1,4,1.1,6.2,1.1
		C837.3,150.6,839.2,149.7,841.3,149.1z"/>
	<path fill="none" d="M880,634.8c-0.4-2.6,0.1-5.1,0-7.9C882.4,629.9,882.4,632.8,880,634.8z"/>
	<path fill="none" d="M972.2,436.6c-1.3-1.8,0.2-3.7,0.2-5.6c0-1.9,0.2-3.8,0.3-5.7c0.8,0.1,1,0.9,1,1.3c-0.1,3.3-0.2,6.7-0.4,10
		C972.9,436.6,972.5,436.6,972.2,436.6z"/>
	<path fill="none" d="M838.1,142c-0.8,0.7-1.6,1.4-2.3,2.1c-1.8,0.1-3.5,0.2-5.7-1.1C833.2,142.6,835.6,141.6,838.1,142L838.1,142z"
		/>
	<path fill="none" d="M836,120.3c-2.2-0.4-3.7,1.3-5.8,2.1c-0.1-2,1.1-2.8,2.4-3.2C833.9,118.8,835.3,118.8,836,120.3L836,120.3z"/>
	<path fill="none" d="M836.3,190.1c-0.2,1.9-0.6,3.7-2.2,4.9C834.3,193.1,835.4,191.6,836.3,190.1z"/>
	<path fill="none" d="M825.7,132.5c-0.2,1-1,1-1.6,0.7c-1.1-0.7-2-1.5-3.3-2.5C823.3,129.9,824.1,132.3,825.7,132.5L825.7,132.5z"/>
	<path fill="none" d="M825.8,132.6c1.4-1.2,3.1-0.7,4.6-0.4C828.9,132.6,827.4,133.9,825.8,132.6L825.8,132.6z"/>
	<path fill="none" d="M838,157.9c1.7,1.5,1.8,2,0.7,4.2l0.1,0.1C838.6,160.7,838.3,159.3,838,157.9L838,157.9z"/>
	<path fill="none" d="M838.1,157.8c-1.1-0.8-1.9,0.5-3.1,0.5c0.2-1.1,1-1.6,1.9-1.9C837.7,156.5,838.1,157,838.1,157.8L838.1,157.8z
		"/>
	<path fill="none" d="M837.1,162.3c-0.6-0.8-2-1.4-1-2.8c1.4,0.4,1,1.6,1.4,2.4C837.4,162,837.3,162.2,837.1,162.3z"/>
	<path fill="none" d="M834.1,173.5c-1.1-1-0.9-1.6,0-2.4C834.7,171.9,834.5,172.6,834.1,173.5z"/>
	<path fill="none" d="M825.8,142.7c1,0.1,2,0.2,2.6,1.2C827,144.4,826.5,143.4,825.8,142.7L825.8,142.7z"/>
	<path fill="none" d="M396.9,610.7c-17.1-1-34.2-2.1-51.3-3.1c-0.4-2.7,0.3-5.1,1.1-7.2c2-4.8,2.9-9.8,4.5-14.7
		c1.4-4.4,3.2-8.7,5-13c2.6-6,4-12.5,4.6-19.1c0.6-6.1-0.7-12-2.2-17.7c-1.2-4.6-1.1-8.9,0.1-13.4c1.1-4,1.9-8.2,2.8-12.2
		c0.5-2.3-0.1-4.5,0.2-6.8c0.5-4.2,1-8.3,1-12.5c0-4.3,1-8.5,2.4-13c4.8-1.8,8-6.8,13.6-7.7c2.9,10.6,5.7,21.1,8.2,31.6
		c1.1,4.6,2.9,8.9,5.6,12.7c3.1,4.4,5,9.1,4.6,14.7c-0.3,4.2,0.5,8.3,1.3,12.5c1.3,7,1.7,14,2.3,21.1c0.2,2.2,0.2,4.4,1,6.4
		c2.2,5.1,2.1,10.5,2.1,15.9c0,6.7-2.2,12.9-4.6,19.1C398.6,606.2,397.7,608.3,396.9,610.7z"/>
	<path fill="none" d="M282.9,372.1c-0.2-1.2-0.3-2.3-0.5-3.6c3.1-3.2,6.7-6,10.3-8.8c0.7-0.5,1.2-0.6,1.8,0.1
		c-1.9,0.8-2.5,2.5-3.1,4.1c-2,2.2-2.5,5.1-3.9,7.6c-0.9,1.6-1.3,3-1,4.8c0.1,0.3,0.2,0.4,0.4,0.4c0.7-0.1,0.1-1.1,0.7-1.2
		c0.3,0.6-0.3,1.5,0.9,2c1.2-2.9,1.9-5.9,3.2-8.7c1.3-2.8,3.5-5.2,4.6-8.1c-2.7,2.1-4,5.1-6,8.1c0-2,1.3-3,1.4-4.5
		c1.2-1.3,2.2-2.8,2.7-4.5c1.5-1.3,2.8-2.8,4.3-4.1c2.9-2.4,6.1-2.6,10.1-2.2c-5.5,4.3-9,9.7-13.5,14.2c-1.2,1.3-2.6,2.5-3.3,4.2
		c-0.7,0.6-1.4,1.1-1.1,2.3c0.8-0.5,1.3-1.1,1.4-2c0.3-0.1,0.6-0.3,1-0.4c0.3,1.1-1,1.8-0.6,3.2c2.3-1,2.6-3.5,4.1-4.9
		c1.6-1.4,3.1-2.8,4.7-4.2c0.9-0.4,1.7-0.7,2.1-1.7c2-0.8,3.8-1.8,5-3.6c0.5,0,0.9,0,1.4,0l0.1,0.1c-1.6,2.5-4.5,3.9-5.4,7
		c2.3-2.3,4.7-4.5,7-6.8c1.5-0.7,2.8-1.6,4.1-2.9c-1.3-0.4-1.8,0.7-2.6,0.6c-0.8,0-1.7-0.2-2.3,0.5c-1,0.1-1.8,0.5-2.2,1.5
		c-2.1,0.5-3.7,1.9-5.1,3.5c-0.5,0.1-0.9,0.1-1.4,0.2c0.8-1.8,2.6-2.7,4-3.9c1.3-1.1,2.7-2,3.4-3.6c-0.4-0.3-0.7-0.5-1.1-0.8
		c0.8-1.1,1.9-1.8,2.8-2.3c4-1,6.9,0.8,9.5,3.2c-0.8,1.3-2.9,1.6-3.8,3.6c1.6-0.3,2.3-1.6,3.7-1.6c0.2,0.2,0.1,0.8,0.8,1
		c1-0.2,1.7-1.2,2.7-1.6c3.6-0.4,9.3,6.3,9.9,11.7c-0.8,0.2-0.9,0.9-1.6,2.2c1-0.8,1.4-1.1,1.8-1.5c0,1.5-1.3,2.5-1.6,4
		c1.6-0.1,1.9-1.4,2.6-2.5c1.2,2.4,1.1,4.7,0.4,6.8c-0.7,2.1,0.6,4.2-0.5,6.4c-1-0.5-1.4-1.8-2-1.9c-2-0.2-2.7,1-4.3,1.4
		c1-2.8,3.7-4.1,4.7-7c-3,1.3-4.2,4-6.2,5.9c-2.1,2-4.2,3.8-6.5,5.9c1.7,0.7,2.1-1.4,3.5-1.1c-0.5,1.8-2.2,2.8-2.8,4.3
		c0,0.6,0.4,0.9,0.7,1.2c1.3,0.1,1.7-1.2,2.7-1.5c0.2,1.4-1.1,2.2-1.4,3.4c2.5-0.7,3.6-1.7,4.3-5.2c0.5-2.3,1.7-3.9,3.6-5.6
		c-0.7,3.9-3.6,6.6-4.1,10.1c1.2,0.5,1.2-0.7,1.9-0.8c1.6,0.6-0.8,2.6,1.3,3.3c1-1,0.8-2.4,0.8-3.7c0.6-0.4,1,0.2,1.9,0.5
		c-0.7,3-2.5,5.3-4.3,8.1c0.4,1.3,1.8,1.2,3.3,0.9c-0.2,4.4-0.4,8.7-0.4,13c-0.1,4.2,0,8.3,0,12.9c0.8-1.1,0.8-1.8,0.8-2.5
		c-0.2-6.9,0.8-13.9,0.7-20.8c0-2.3,0.4-4.5,0.2-6.9c-0.2-2.3,1.6-4.6,2.1-7.2c0.7,1.7,0.7,3.5,1.7,5.1c0.9-2.5-0.5-5-0.1-7.4
		c1.4,4.1,1.9,8.3,2.4,12.5c0.3-6.4-0.5-12.7-1-19c3.4,3.8,4.5,6.8,4.8,11.1c0.2,4.3,0.6,8.7-0.3,12.9c-1.1,5.5-1.8,11.1-3.7,16.4
		c0.5-5.7,0.8-11.4-0.8-17.3c0,5.1-0.1,10.1-1,15c0-6.9,0-13.8,0-20.7c-0.2,0-0.4,0-0.6,0c-0.1,1.8-0.2,3.7-0.4,6
		c-0.7-1.7-0.6-3.2-1.8-5c0,5.8,0.1,10.9,0,16.1c-0.1,5.1-0.6,10.3-1.4,15.9c0.9-1.4,1.5-2.4,2.4-3.7c0.7,2.6-1,4.4-1.1,6.9
		c1.5-0.6,1.5-2,1.9-2.9c0.5-1.1,0.9-2.2,1.3-3.1c0.6-0.9,1.5-0.4,2-0.9c0.9,0.8-0.4,1.3-0.1,1.7c0.1,1.1,1.2,0.4,1.3,1
		c1.5,6.5,6.5,10.7,10.1,15.9c0.9,1.4,1.9,2.8,3,4c2.5,2.7,3.3,5.8,2.3,9.5c-3.4,2.8-7.9,2.6-12,3.7c-2.4-2.1-3.7-4.8-5.3-7.5
		c-0.9,2.8-0.9,2.8,1.6,6.9c-18,1.3-32.4-9.2-36.7-23.1c2.3-0.4,4.5-0.9,6.2-2.4c1.5,0.7,2.9,1.5,4.3,1.9c1.3,0.3,2.6,1.3,4.5,0.1
		c-2.5-1.1-5.2-1.1-7.4-2.8c2.5-3.2,5.2-6.3,8.1-9c3.9-3.7,6.8-8.1,9.5-12.6c1.9-3.1,2.5-6.8,1.2-10.5c-0.9,2.4-1.6,4.8-2.6,7.1
		c-1.3,3.1-3,6-5.1,8.6c-4.8,6-9.7,11.9-16.2,17.1c-1,0.3-2.6,0.6-4.3,0.5c-2.2-0.2-4-1-5.5-2.8c-2.7-3.2-5.7-6.2-8.5-9.3
		c-3.8-4.1-5.6-9.1-6.6-14.5c-0.4-2-0.7-4-0.9-6c-0.1-2.3-0.6-4.5-2.5-6c-0.1-1.1-0.1-2,0.5-3.1c3.5,0.7,7,1.8,11.2,1.7
		c-3.6-3.5-7.7-1.8-11.2-2.4c-2.7-4.3-2.2-18.2,0.8-24c1.2,0.8,0.7,2.7,2.2,3.3c1.2-1.4-0.1-2.8,0.3-4.3
		C282.3,372.6,282.6,372.3,282.9,372.1c0.5,1.4-0.3,3.4,2.3,4.5c-0.4-3.6,1-6.6,1.1-10.1c-1.3,1.4-1.6,2.9-2,4.4
		C284.2,371.7,283.8,372.1,282.9,372.1z M319,368.5c-1.1-0.1-1.9,0.3-2.2,1.4c-1.1-0.1-1.8,0.4-2.2,1.4c-1.2,0.2-2,0.8-2.2,2
		c0.7-0.7,2-0.8,2.2-2.1c1.1,0,1.8-0.5,2.2-1.4C317.7,369.8,318.4,369.3,319,368.5c0.7-0.1,1.3-0.4,1.4-1.3
		C319.8,367.6,319,367.6,319,368.5z M313.9,362.7c-5,1.8-11.5,8.5-11.2,12c3.1-4.1,6.2-7.8,10.2-10.7
		C313.3,363.7,313.9,363.4,313.9,362.7c0.6-0.1,1.2-0.2,1.2-1.3C314.7,362,313.9,361.9,313.9,362.7z M328.1,371.2
		c-3.5,2.2-6.3,5.3-9.8,7.7c1.6-0.9,3.2,0.5,4.8-0.3c1.6-0.8,2.7-2,3.6-3.3c-0.2-0.6-1-0.2-0.9-1.3c0.8-0.7,1.7-1.6,2.7-2.4
		c0.9-0.4,1.6-1.1,2.3-2.2C329.4,369.7,328.6,370.3,328.1,371.2z M327.5,378.6c-0.3-0.8,1-1.2,0.5-2.2c-0.8,0.5-1.7,1-2,2
		c-2,1.3-4.3,2.2-6.1,4.1c0.8,0.2,1.2,0.4,1.8,0.5c-0.7,0.6-1.4,1-1.9,1.6c-0.5,0.5-1.4,0.8-1.2,2.1c1.9-1.1,3.6-2,5.8-3.3
		c-1.3,2.1-3.1,3.1-3.9,5.3c4.3-3.1,9.7-9,10.2-11.1C329.2,377.4,328.7,378.9,327.5,378.6z M312.6,400.5c-0.1-0.7-0.4-0.9-0.8-0.9
		c-2.5-0.4-5,0-7.4-0.7c-1.5-0.4-2.6,0.9-3.8,1.7c-1,0.7-2.2,1.3-2.1,3.2c2-0.1,3.9-0.4,5.4,0.7c2.1-0.6,4.3-0.8,4.4-3.5
		C309.9,400.8,311.2,400.7,312.6,400.5z M310.2,423.9c-2,0.1-2.7,1.3-4,1.6c-4.5,1-9,0.6-13.5,1.1c-1,0.1-1.9-0.1-2.2,1.2
		c0.9,0.7,1.9,1.2,3.2,1c2.5-0.3,5-0.4,7.5-0.7C304.5,427.8,308,427.9,310.2,423.9z M305.5,375.8c3.7-2.2,6.4-5.7,9.9-8.2
		c3.6-2.5,7.5-4.4,11.2-6.7C317.7,363.2,310.9,368.5,305.5,375.8z M290.8,420.2c3,2,4.9,2,7.4,0.1c1.1,0.4,2.2,0.8,3.3,1.2
		c0.8-1,1.8-1.8,1.5-3.2c-0.1-0.5-0.5-0.8-0.9-0.9c-1.2,0.1-0.9,1.3-1.8,2c-2.3-2.3-4,2-6.4,0.6c-0.7-0.4-0.3-1.7-1.5-1.8
		C291.7,418.5,291.1,419,290.8,420.2z M285.9,406.5c1-1.5,2.4-2.9,4.9-2.9c-1.8-1.8-3.5-2.1-5.3-2.3c-1.8-0.1-3.2,0.6-4.5,1.7
		c-0.5,0.4-0.4,1.1-0.1,1.5c0.9,0.7,1.3-0.6,2.1-0.3C283.8,405,284.3,406.1,285.9,406.5z M303.1,432.2c-2.6-1.6-7.5-1.7-9.9-0.3
		c0.8,1.9,2.5,2,4.2,2C299.4,433.8,301.6,434.7,303.1,432.2z M294.8,399.2c2.4-0.6,4.5-2,6.4-3.5c2.5-1.9,5.3-2.6,8.4-2.2
		c1,0.1,2,0.3,3.7,0.6C306.9,390.9,300.1,392.9,294.8,399.2z M326.5,369c-2.9,1.7-5.5,3.8-7.6,6.3c0.2,0.2,0.3,0.4,0.5,0.6
		C321.8,373.5,324.2,371.2,326.5,369z M303.5,368.5c-2.7,1.3-3.7,3.1-3.3,6.2C301,372.1,302.8,370.6,303.5,368.5z M323.6,441.2
		c2.4,1.1,4,0,6.3-0.5C327.5,439.4,325.8,439.7,323.6,441.2z M335,455.4c0.7,0.9,1.2,2.2,2.9,1.8C337.6,455.5,336.4,455.3,335,455.4
		z M318,376.5c-1.2,0.5-2.2,1.1-2.7,2.5C316.4,378.4,317.5,377.9,318,376.5z M320.6,370.1c-0.8,0.4-1.6,0.7-2.1,1.7
		C319.6,371.7,320.2,371,320.6,370.1z"/>
	<path fill="none" d="M439.2,613.1c-5.2-0.2-10.4-0.2-15.5-0.9c-0.8-0.7-0.5-1.5-0.4-2.2c1.1-6,0.4-11.9-0.1-17.9
		c-0.2-1.8-1.6-3.1-1.6-5.1c0.1-8.1-0.6-16.2-0.1-24.4c0.5-9.2,0.4-18.4,0.7-27.6c0.1-4.7-0.4-9.3-1-13.9
		c-0.9-7.5-3.8-14.5-4.8-21.9c-0.4-3.4-1.1-6.8-0.7-10.3c0.3-3-0.3-6-0.8-8.9c-0.6-3.2-1.4-6.3-2-9.5c-0.5-2.9-2.2-5.3-3.1-8
		c-2.4-7.5-4.9-15-8.2-22.2c-1.7-3.7-1.7-8-3.7-11.5c0.4-2.6,0.8-5.1,1.2-7.9c9.7-2.3,19.1-6.1,29.1-7.1c3.8-0.4,7.6-0.4,11.6,1.1
		c-0.8,5.1-1.2,10.2-2.4,15.2c-1.1,4.5-1.6,9-2,13.5c-0.5,5.5-1.3,10.9-2.1,16.4c-0.2,1.8-0.6,3.5-1.3,5.2c-0.4,1-0.7,2.1-0.6,3.1
		c0.4,3-0.3,6-0.8,8.9c-0.1,0.5-0.3,1-0.2,1.4c0.8,6.6-0.6,13.1,0.2,19.7c0.6,5,2,9.8,3.3,14.7c2.7,10.2,5.4,20.3,8.1,30.5
		c0.6,2.4,0.8,5,0.9,7.5c0.4,10.5,0.9,21-0.3,31.5c-1.2,9.6-2.9,19.2-3.1,28.9C439.7,611.9,439.4,612.3,439.2,613.1z M424.6,501.9
		c-0.2,1.8-0.2,3.6,1.3,5.6C425.8,505.2,425.9,503.4,424.6,501.9z"/>
	<path fill="none" d="M311.2,611.6c-0.9,1.5,0.4,2.5,0.7,3.7c0.3,1.1,0.7,2.2,1.1,3.6c-1.3-0.2-2.3-0.3-3.1-1.1
		c-0.9-1.3-0.6-3.3-2.3-4.3c-1.2,1.2,0.4,2.3-0.2,3.6c-2.6-1.4-2.9-3.5-2.6-6.1c0.4-4.9,1.5-9.6,3.1-14.3c2-5.8,1-11.8-0.7-17.6
		c-2.7-9.5-6-18.7-10-27.7c-3.6-8.1-5.1-16.4-6.2-24.9c-0.7-5.4-1.6-10.9-2-16.4c-0.2-2.4-1.1-4.9,0.4-7.3c-0.1-1.5-0.7-2.8-1.5-4
		c-0.4-0.7-0.9-1.4-1.3-2.1c-6.3-10.1-7.2-12-8.3-23.6c-0.4-4.6-1.9-8.4-3.9-12.4c-2.7-5.4-4.7-11.1-5.6-17c-0.9-6,0.2-12.2,2.3-18
		c0.2-0.6,0.6-1.3,1.2-1.8c2.7-2.1,5.5-4.1,8.6-6.4c1.3,4,2.7,7.6,5.2,10.5c2.5,2.9,5.1,5.7,7.7,8.5c0,6.4,0.4,12.7,4.5,18.3
		c-0.7,1.6-1.4,3.3-2.2,4.8c-0.8,1.4-2.8,1.9-3,3.8c0.8-0.1,1.6-0.2,2.4-0.4c0.5-0.6,0.9-1.3,1.4-1.9c0.7,0,0.8,0.5,1,0.9
		c1.8,6.1,3.6,12.1,5.3,18.3c2.2,8,4.6,15.8,7.1,23.7c0.9,3,1.1,6.1,1.4,9.2c0.7,8,2.4,15.8,3.4,23.8c0.3,2.4,0.6,4.7,0.6,7.1
		c-0.1,9.6,1,19.1,3.1,28.5c1,4.6,2.8,8.8,5.2,12.8c3,4.9,5.2,10.2,7.3,15.5c0.6,1.6,1.9,3,1.9,4.8c-1.7,1.2-1.6-1-2.8-1.1
		c-1.3,0.1-2.5,0.9-3.5,2.3c1.1,1.9,0,3.7-0.5,5.7c0.6,2.4,2.1,4.9,0.3,7.4c-1.1,0.7-2.1,0.3-3.1,0.3c-2.6-2.1-3.1-5.7-5.9-8.1
		c-0.4,2.9,1.7,4.4,1.9,6.6c-1.6,0.3-3.1,0.3-4.5-0.5c-0.9-1.1-0.8-2.7-1.5-4C312.9,613.6,312.6,612.2,311.2,611.6z M304.3,518.8
		c-1.3-4.2-4.8-6.3-7.7-4.4C299.3,515.9,301.1,518.3,304.3,518.8z M282.5,433c3.5-1,3.5-1,2.9-3.3
		C283.9,430.3,283.4,431.8,282.5,433z M304.8,517.1c1.1,1.1,1.7,1.8,2.8,1.4C307.2,517.4,306.5,517.1,304.8,517.1z M316.1,611.3
		c-1.1-0.4-1.7,0.1-2.4,0.6C314.6,612.3,315.4,612.6,316.1,611.3z M291.2,468.2c1,0.2,1.1-0.3,0.8-1.1
		C291.1,467,290.9,467.4,291.2,468.2z M295.5,510.3c-0.2,0.9,0.1,1.1,1,1C296.3,510.6,296.1,510.2,295.5,510.3z M274.8,437.9
		c-1.1,0.2-1.1,0.7-0.8,1.5C274.6,439.1,275,438.8,274.8,437.9z M276.6,437.3c1.3,0,1.4-0.6,1.3-1.5
		C277.1,435.9,276.9,436.4,276.6,437.3z"/>
	<path fill="none" d="M335.3,604.5c-1.8-1.9-1-4.9-2.8-7.1c-1.6-1.9-2.8-4.2-3.1-6.8c-0.1-0.6-0.5-1.1-0.8-1.6
		c-2.2-2.6-2.6-5.8-2.9-9c-0.9-10.4-1.4-20.8-1.4-31.2c0-7.2,1.2-14.3,2.9-21.3c1.6-6.4,2.1-12.8,1.7-19.4
		c-0.3-4.7-0.4-9.6,0.4-14.3c0.7-4-0.2-8.1-0.4-12.2c0-0.9-0.4-1.9,0.2-3.1c5.6-0.1,11.4,0.3,16.3-3.9c4.9,3.4,10.3,4.7,16,4
		c0.5,0.4,0.5,0.9,0.4,1.3c-1.8,4.6-1.5,9.4-2,14.1c-1.1,9.3-0.8,18.7-3.4,27.8c-0.6,2.3-0.9,4.6-2,6.5c0.8,6.7,1.7,13.2,2.2,19.8
		c0.2,3.1-0.2,6.2,0.1,9.3c0.4,4.2-1.4,8-2.8,11.8c-4.5,11.4-8.2,23-10.6,35c-0.2,0.9-0.3,1.9-1.1,2.8c-2.5,0.1-5.1,0.1-7.6-0.7
		C334.3,605.5,335.9,605.5,335.3,604.5z M348.1,506.5c-2.1-1.6,0.7-5-2.5-6.4c-1.1,1.9,0.6,3.3,0.4,4.8c-2.8,5.9-3.2,7.9-2,10.1
		C346.2,512.7,346.8,509.7,348.1,506.5z M341,541c1-3.3,2.7-6.3,2.3-9.9C341.2,534.1,341,537.5,341,541z M341.7,545
		c-1.3,2.5-1.3,4.5-1.2,6.5C342,549.8,342.8,548,341.7,545z M333.9,504.5c-1.9,1.6-1.9,1.6-0.7,5.7
		C333.4,508,333.6,506.3,333.9,504.5z M337.1,605.5c1.3-2,0.6-3.1-0.3-4.2C336.9,602.6,337,603.8,337.1,605.5z M340.5,556.5
		c0.1,1.4-0.8,2.1,0.3,2.8C341.4,558.7,341.6,558,340.5,556.5z"/>
	<path fill="none" d="M405.2,354.7c0,1.8,1.2,2.4,2.4,3c2.5,1.2,4.2,3.2,5.2,5.7c2.8,6.4,4.3,13,1.6,19.8c-0.3,0.9-0.6,1.8-1.1,2.6
		c-4.4,7.4-8.9,14.7-13.4,22.1c-0.2,0.4-0.4,0.8-1,0.9c-1.3-2.9-1.5-5.9-0.6-9c0.4-1.2,0.6-2.5-0.4-4c-1.2,1.1-0.7,2.7-1.6,3.6
		c-7.1-8.5-14.5-16.6-25.6-20.2c-10.6-3.4-21.1-5.6-32.4-2.6c-0.1-2.1-1-3.9-0.8-6.2c2.4-1.1,4.7-2.4,7.1-3.4
		c4.8-2,8.8-5.2,12.9-8.3c4.2-3.2,9.3-4.3,14.3-5.3c1.4-0.3,2.8-0.5,4.2-0.6C385.9,351.7,395.3,352.2,405.2,354.7z M365.2,360.6
		c2.3-0.7,4.7-1.4,7-3.7C369,357.7,366.7,358.4,365.2,360.6z M373.1,356c1.6-0.4,2.4-0.7,2.9-1.8C374.9,354.1,374.1,354.4,373.1,356
		z M400.5,384.7c0.6-0.2,0.8-0.7,1-1.2c0.2-0.5,0.1-0.9-0.2-1.2c-0.5,0.1-0.8,0.4-0.9,0.9C400.1,383.7,400.1,384.2,400.5,384.7z
		 M398.7,388c-0.5,0.5-0.8,1-0.1,1.8C398.8,389.2,399.6,388.9,398.7,388z M404,374.7c-0.3,0.3-1,0.5-0.4,1.2
		C404,375.6,404.4,375.3,404,374.7z"/>
	<path fill="none" d="M340.9,383.4c-0.7-1.9-1.3-3.3-1.9-4.8c7.6-1.5,15.1-0.9,23.2-0.5c4,2.1,8.7,4.4,13.6,6.2
		c1.1,0.4,2.1,1.1,3.1,1.8c5.2,4,10.2,8.3,14.4,13.4c0.8,0.9,1.5,1.9,2.6,2.3c0,1.5,0,2.9,0,4.3c-1.2,0.3-1.5-0.7-2.1-1.1
		c-1.3-0.8-2.6-1.8-3.9-2.5c-0.8-0.4-1.8-0.9-2.7-0.8c-4.8,0.6-8.8-3.1-13.6-2.1c-3.3,0.7-6.6,1-9.7,2.4c-2.2,1-4.1,2.3-5.8,4
		c-3.5,3.4-5.8,7.6-8.8,11.3c-0.7,0.9-0.7,2-0.6,3.1c0.3,3.1,0.6,6.2,1.7,9.2c1.1,3,2.1,6.1,3.5,9c2.2,4.9,4.6,9.6,6.5,14.7
		c1.9,5.2,6.2,8.7,10.9,11.6c1.7,1.1,3.5,2,5,4c-3.9,1.9-7.6,4.1-11.5,5.7c-6.1,2.4-11.7,0.3-17-2.9c-0.9-0.6-1.8-1.2-2.7-1.8
		c-0.8-0.4-1.6-0.3-2.1,0.6c-0.3,1.5,1.3,2.2,1.6,3.6c-10.5,3-20.4,2.1-29.2-4.7c-3.3-2.6-5.9-5.9-8.8-8.9c-1.4-1.5-2.8-3-4.4-4.2
		c-1.3-0.9-2-2.3-2.6-3.8c-1.5-4.1-2.7-8.4-3.4-13.1c2.2,0.6,2.8,3.5,5.5,2.2c1.2,7.2,5.8,11.9,9.9,16.8c2.7,3.2,6.5,4.7,10.3,6.3
		c5.1,2.2,10.3,3.9,16,2.5c1-0.2,1.9,0.2,2.8,0.3c5.7,0.8,11,0.3,15.8-3.9c3.3-3,3.4-6.6,1.2-10.2c-1.2-2-2.8-3.9-4.4-5.7
		c-2.6-2.8-4.7-6-6.9-9.1c-2-2.8-2.9-6-3.7-9.3c-0.3-1.4,0.2-2.6,0.5-3.8c3.1-10.8,4.3-21.8,3.2-33c-0.2-2.4-1-4.7-2.2-6.8
		C343.5,384.4,342.7,383.2,340.9,383.4z"/>
	<path fill="none" d="M439.8,411.1c-6.8-1.7-13.7-1.1-20.5,0.6c-6.8,1.7-13.3,3.9-19.7,7c-0.8-3.7-0.2-6.5,2.1-9.5
		c2.1-2.7,4.2-5.5,5.6-8.8c1.1-2.6,3.2-4.7,4.8-7.1c2.6-3.8,4.6-7.8,5.4-12.4c1-5.4-0.3-10.6-1.1-15.9c-0.8-5.2-4.5-8.2-9-11.4
		c3,0.2,5.3,1.1,7.6,1.8c7.4,2.1,13.3,6.5,18.3,12.1c0.5,0.5,1.1,1.1,1.2,1.8c0.4,2.4,1.7,4.6,3,6.5c1.9,2.7,2.6,5.7,2.6,8.8
		c0.2,8.6,0.1,17.2,0.1,25.9C440.3,410.4,440.1,410.6,439.8,411.1z M422.3,388.4c-1.5,1.5-3.1,2.9-3.9,5c1.6-1.4,3.4-2.7,4.2-4.8
		c1.1-0.9,1.8-2,2-4.1C423.5,386.2,422.6,387.2,422.3,388.4z M421,382.1c2.3-2.5,3.6-5.2,3.9-8.1c-1.3,2.6-2.6,5-3.8,7.4
		C421,381.6,421.1,381.9,421,382.1c-0.8,0.3-1.1,1-1.1,2C420.7,383.6,421.1,382.9,421,382.1z M421.9,392.5c3.2-1.4,5.5-3.5,7.4-7
		C426.5,388.1,424.2,390.3,421.9,392.5z M421.6,371.4c-0.5,0.1-1.3,0.3-0.9,1C421,372.1,421.3,371.8,421.6,371.4z M418.4,386.1
		c-0.2,0.4-0.5,0.7-0.3,0.5C418.1,386.9,418.8,386.8,418.4,386.1z"/>
	<path fill="none" d="M309.3,662.7c-3.8-4-8.9-4.1-14-4.7c-0.7-3.6-0.1-6.6,3.2-8.6c1.6-1,3.2-2,4.4-3.3c2.8,0.5,5.2,2,7.6,1
		c1-0.8,0.2-1.5,0.3-2.1c2.3-1,5.2,1.3,7.7-1.3c-3.5-3.1-7.6-1.5-11.2-2.1c0.4-1.4,1.5-1.1,2.4-1.1c3.8,0,7.7,0.2,11.5,0.6
		c1.3,0.1,2.7,0.6,3.5-1c-1.9-2.8-4-3.2-14.1-2.5c0.1-0.2,0.1-0.5,0.2-0.7c0.3-0.4,0.6-0.8,0.9-1.2c4.9-0.6,9.7,0.6,14.6,1.4
		c1.1,0.2,2.3,0.9,3.2-0.6c-1.8-3-3.3-3.4-16-4.6c5.6-2.6,11.2,0.8,16.6,0.5c0.5-1.2-0.1-1.6-0.8-1.9c-3.2-1.6-6.6-2-10.1-2.3
		c-1.1-0.1-2.1,0.3-3.4-0.3c2.1-1.8,1.6-5.3,4.6-6.7c2.4,2.4,5.3,2.4,8.4,1.6c1.9,1.3,4.3,1.7,5.2,4.2c0.8,2,1.7,4,2.4,5.8
		c2.2,1.5,4.2,0.3,6.6-0.5c-0.5,3.6,0.8,6.4,2,9.3c1.2,3.1,1.6,6.5,2.1,10.1c-5.2,1.7-10.6,2.6-16.3,3.8c0.9-2.2,3.1-2.5,3.9-4.3
		c-3.9-0.3-5.1,1.2-6.4,8c-5.2,1.4-10.3,3.7-16.2,3.2c-1,0.8-2,2-3.8,1.8c-3.8-0.5-7.6-0.8-11.4-1.3c-1.2-0.1-2.3-0.5-3.1-1.6
		c1.7-1,3.6-1,7.7-0.2C304.2,661.2,306.8,661.9,309.3,662.7z"/>
	<path fill="none" d="M425.1,626.7c1.6-0.3,2.9-0.4,4.2,0c3,0.8,6,1.4,6.5,5.5c0.2,2.1,1.2,4.1,2.7,5.9c1.4-0.1,2.8-0.2,3.7,0
		c1.7-0.3,2.3-1.5,3.5-2.5c0.6,3.6,2.1,6.4,3.4,9.4c0.8,1.9,1.1,4.2,1.3,6.3c0.2,2.3,0.8,4.5,1.3,6.5c0,0.7-0.6,0.7-0.9,1.1
		c0.1,1.6,0.6,3.2,0.3,5.1c-1.4,0.8-3,1.5-4.6,2.9c0,0.1-0.3,0.5-0.4,1c-1.1,3.6-3.8,4.7-7.2,4.7c-2.5,0-5,0.2-7.5,0.8
		c-5.5-3.2-11.6-3.9-17.9-4c-1.5,0-3.2-0.1-4.5,1.8c5.6,1,11.3-0.3,16.7,2.1c-0.7,0.9-1.3,0.4-1.9,0.3c-3.1-0.6-6.2-0.2-9.3-0.3
		c-2.4-0.1-4.8-0.1-6.7-2.4c2.5-4.7,5-9.3,7.3-13.7c5.1,0.9,10.1,0.6,15.1,0c1.2-0.1,2.4-0.3,3-1.8c-0.2-1.3-1.2-1.6-2.3-1.6
		c-4.9,0.3-9.7-0.2-14.7,0.4c-0.4-1.2,0.3-2.3,0.4-3.4c6.1,1.5,12.2,0.7,18.2,0.8c0.6,0,1-0.6,1.2-1.4c-0.4-1.8-2-2.1-3.5-2.3
		c-5.1-0.7-10.2-0.9-15.3,0.8c-0.7-0.9-0.1-1.7,0.3-2.3c6.1,0.4,12-0.4,17.9-0.3c0.6,0,1.1-0.5,1.2-1.1c-1.5-2-3.3-2.6-8.6-2.6
		c-3.2,0-6.4-0.1-9.9,1.8c1-2.1,2-2.8,3.7-2.9c3.2-0.2,6.4-0.2,9.7,0.2c1.5,0.2,3,0.9,4.5-0.1c-1.5-2.9-3.3-3.4-14.5-3.6
		c1.1-2.7,1.9-5.4,2-8.3C423.5,628.4,424.2,627.5,425.1,626.7z M415,659.7c4.9,2.7,8.2,2.4,10.6-0.8
		C421.8,657.8,418.4,659.2,415,659.7z M448.4,656.5c-2.4,3.3-2.6,5-1.3,7.6C447.9,661.7,448.4,659.5,448.4,656.5z"/>
	<path fill="none" d="M321.5,571.2c-1-4.2-2-8.2-1.6-12.7c0.6-5.9-1-11.6-1.8-17.4c-1.5-10.5-2.8-21.1-4.3-31.6
		c-0.4-2.9-1.1-5.6-2.4-8.2c-0.8-1.5-1-3.2-1.2-4.8c-1.5-11.2-4.8-21.9-8.7-32.5c-0.6-1.7-1.5-3.3-2.2-4.8c0-0.8,0.5-1.2,1.1-1.5
		c0.3,0.2,0.6,0.3,0.8,0.5c2.2,3,4.7,5.7,6.8,8.8c2.6,3.7,6,6.5,10.3,8c2.2,0.8,4.4,1.9,6.6,2.9c1.2,5.7,1.5,11.4,1.4,17.2
		c-0.1,5.7-0.3,11.5,0.2,17.2c0.3,4.3-0.3,8.6-1.3,12.8c-1.9,8.1-3.4,16.2-3.9,24.4c-0.1,1.8,0,3.6,0.1,5.4
		C321.9,560.2,321.9,565.7,321.5,571.2z"/>
	<path fill="none" d="M221.9,615.7c1.4,0.5,2.8,0.5,4.1,0c1.6-1.3,1.9-3.3,2.6-5c1.3-0.6,2.4-0.1,3.7,0c0.8,2.1-0.2,4.2-0.5,6.3
		c-0.9,6.4-2.3,12.7-5,18.6c-0.9,2.1-2,4.1-3.7,5.7c-1.9,1.8-3.8,1.6-5.6-0.4c-1-1.2-1.6-2.6-2.2-4.1c-1.6-4.3-2.4-8.8-2.8-13.3
		c-0.8-10.9-0.5-21.7,1.6-32.5c1.1-5.4,2.4-10.7,4.8-15.7c1.3-2.6,2.7-5.1,5.7-6.1c2.5,0.5,3.7,2.2,4.6,4.2c1.5,3.4,2.4,7,2.9,10.7
		c0.4,3.6,0.7,7.1,1,10.7c0.1,1.9,0,3.8,0,5.8c-1.4,0.5-2.5,0.2-3.7,0c-0.8-2.1-0.3-4.7-2.2-6.3c-1.1-0.9-2.5-0.7-3.8-0.6
		C219.1,597.8,218.1,610.8,221.9,615.7z"/>
	<path fill="none" d="M533.2,655.3c0.8-0.2,1.1-0.8,1.4-1.5c3.3-5.8,4.7-12.3,5.8-18.8c0.3-1.7,0.6-3.5,1-5.2c1,2.5,0.1,4.8-0.3,7.2
		c-1,6.6-2.6,13.1-5.6,19.2c-1.2,2.5-2.6,4.9-5.6,5.5c-2.4-0.4-3.5-2.2-4.3-4.1c-1.7-3.7-2.6-7.7-3.1-11.8c-1-8.6-1.1-17.2-0.2-25.8
		c0.7-6.6,1.8-13,3.7-19.3c0.8-2.6,1.8-5.2,3.2-7.6c0.6-1.1,1.4-2.3,2.3-3.2c2.1-2.2,4.1-2.1,6,0.3c1.1,1.3,1.7,2.9,2.2,4.5
		c2.7,7.9,3.1,16.2,2.9,24.5c0,0.2-0.2,0.4-0.3,0.6c-1.2-0.3-0.7-1.3-0.8-2c-0.4-5.4,0.2-10.8-0.8-16.1c-0.6-3.3-2.1-6.3-3.2-9.5
		c-0.4-1.3-1.5-2.1-3.1-2.4c5.6,9.5,6,19.6,6,29.9c-1.4,0.4-1.5-0.5-1.7-1.1c-0.1-0.5-0.1-1-0.2-1.4c-0.7-3.8-1.4-4.4-6.1-4.2
		c-4,5.6-3.4,12.1-2.9,19.2c-2.1,3.3-3.1,7.7-4.7,11.8c-1,2.5-0.3,4.7,0.9,6.8c1.2,2.2,3.2,2.3,5,0.5c0.6-0.6,1-1.3,1.5-2
		c0.6,0.2,1.1,0.5,1.7,0.6c0.4,0.1,0.9-0.3,1.3,0.1C535,652,533.3,653.4,533.2,655.3c-0.7,0.8-1.9,1.4-2,2.9
		C532.8,657.6,532.9,656.4,533.2,655.3z"/>
	<path fill="none" d="M221.7,569.2c-5.9,7.3-7.6,16.1-9,24.9c-1.1,6.8-1.6,13.8-1.6,20.7c0.1,5.4,0.5,10.8,1.5,16
		c0.8,4.2,2,8.3,4.9,11.8c-6.4,0.5-8.6-0.9-10.8-6.5c-2.3-5.8-2.9-11.9-3.1-17.9c-0.5-12.2,0.5-24.4,4-36.2c1-3.3,2.2-6.6,4-9.5
		C214.2,568.5,216.6,567.7,221.7,569.2z"/>
	<path fill="none" d="M531.3,588.2c-5.6,6.7-7.3,14.6-8.8,22.5c-2,11-2.6,22.1-1.4,33.3c0.7,6.3,1.7,12.6,6,18.3
		c-2-0.2-3.7-0.3-5.2-0.6c-2.4-0.4-4-2.1-5-4.3c-1.7-3.6-2.4-7.5-3.1-11.4c-0.9-5.6-0.8-11.2-0.8-16.8c0-9.9,1.6-19.5,4.4-29
		c0.7-2.3,1.5-4.5,2.7-6.7C523.1,587.5,525.3,587.1,531.3,588.2z"/>
	<path fill="none" d="M423.8,619.8c-0.2-1.7-0.3-3-0.4-4.7c15,0.9,29.8,1.8,44.5,2.7c14.7,0.8,29.4,0.7,43.9,3
		c0.4,2.5,0.4,2.5-0.4,4.8C482.4,623.6,453.3,621.7,423.8,619.8z"/>
	<path fill="none" d="M226.2,602.6c25.2,2.5,50.6,3.3,75.7,5.1c1.6,1.6,0.7,3,0.7,4.7c-25.8-0.9-51.3-3-77-4.5
		C225.1,606,225,604.4,226.2,602.6z"/>
	<path fill="none" d="M535.3,622c7.8,0.1,57.4,3.3,61.1,4.1c0.2,1.5-0.8,3,0.4,5c-21-1.2-41.3-2.5-61.6-3.9
		C534.5,624.6,534.5,624.6,535.3,622z"/>
	<path fill="none" d="M396.3,613.7c0.3,1.2,0.6,2.5,0.9,4.1c-5.9,0.5-11.5-0.5-17.1-0.7c-5.7-0.2-11.5-0.7-17.2-1.1
		c-5.7-0.4-11.5-0.6-17.2-1c-5.7-0.4-11.4-0.8-17.1-1.2c-0.7-1.8,0.2-3,0.6-4.2C332.7,609.3,393.2,613,396.3,613.7z"/>
	<path fill="none" d="M152.2,603.4c-1-2.1-1-3.7,0.4-5.3c16.7,1,33.3,2.1,50,3.1c0.6,1.8-0.1,3.3-0.1,5.3
		C185.6,605.5,168.9,604.4,152.2,603.4z"/>
	<path fill="none" d="M533.7,613.9c1-0.1,1.9,0.2,2.6,1c0.6,1.4,1.1,2.8,1,4.4c-0.9,1.1-2.1-0.2-3,0.6c-1.4,3.9-1.5,5.6-0.4,8.9
		c0.6,0.9,1.9,0.3,2.6,1.2c-0.3,0.7-0.5,1.5-0.8,2.2c-1.3,0-0.7-1.5-1.8-1.8c-1.4,0.6-1.3,2.2-1.6,3.5c-0.7,4.4-1.2,8.8-2.4,13.1
		c-0.4,1.2-0.6,2.6-2,3.2c-1.4-1.7-1.4-1.7-2-4.2c2.1-5.1,2.9-11,6.6-15.1c0.3-1.2-0.1-1.6-0.5-2.1c-0.2,0.5-0.4,1-0.7,1.5
		c-0.1,0.2-0.4,0.2-0.7,0.3c-0.1-0.1-0.4-0.3-0.4-0.4C529.5,621.9,530.6,616.7,533.7,613.9z M531.6,626c0.3,0,0.5,0,0.8,0.1
		c0-2.1,0-4.2,0-6.3C531.5,621.9,530.6,623.9,531.6,626z M533.2,616.9c0.9-0.4,1.7-0.5,1.2-1.5C533.7,615.4,533.5,615.9,533.2,616.9
		z"/>
	<path fill="none" d="M341.8,627.3c-0.6,1.2-1.1,2.5-2.9,2.8c-1.4-0.6-1.6-2.2-2.3-3.3c-0.8-1.2-1.4-2.5-2.3-4
		c-1.6-1.6-5.4-1.7-5.2-5.9c3.6,0.2,7.1,0.4,10.6,0.6C340.8,620.5,341.9,623.6,341.8,627.3z"/>
	<path fill="none" d="M318.4,344.2c6.8,1.3,11.3,6.5,11.3,13.3c-1.2-0.3-1.7-0.9-1.7-2.1c0.1-2.4-0.7-4.5-2.7-5.9
		c-0.5-0.4-1-0.7-1.8-0.1c0.6,1.2,1.5,2.5,0.6,4c-2.5-0.8-4.9-2.3-7.5-2.3c-1.2-2.3,1.8-0.9,1.7-2.2c-0.3-0.8-1.2-0.9-1.9-1.1
		c-1.3,0.5-1,2.2-2.2,2.6C313.6,348.2,314.8,346.5,318.4,344.2z"/>
	<path fill="none" d="M440.7,635.4c-1.9-1.6-2.4-3.2-2.9-4.8c-0.4-1.6-0.4-3.6-2-4.4c-2.3-1.2-4.6-2.7-7.3-2.6
		c-1.1,0.1-2.1,0.2-3.2,0.3c-0.5,0-0.9-0.1-1.1-1.1c4.9-0.1,9.7,0.3,14.6,0.8C439.7,627.4,440.5,631,440.7,635.4z"/>
	<path fill="none" d="M226.3,595c1.6,1.5,1.3,3.5,2,4.9c-1.1,1.1-2.4,0.3-3.6,1.1c-1.2,2.7-1,5.7-0.4,8.4c0.9,1.1,1.9,0.6,2.9,1.1
		c-0.2,1.6-0.5,3.1-2.1,4.1C222,609.9,222.6,599.9,226.3,595z"/>
	<path fill="none" d="M537.3,638.6c-0.4-1.2-0.8-2.4-1.3-3.9c1.2-1.5,0.7-4.1,3.1-5.3c0.7,3.8-0.8,12.4-2.7,15.9
		c-0.4-1.2-0.2-2.4,0-3.5C536.6,640.8,537,639.8,537.3,638.6z"/>
	<path fill="none" d="M222.8,614.5c-3.5-4.6-2.7-15.6,1.4-19.6C222.1,601.4,221.4,607.9,222.8,614.5z"/>
	<path fill="none" d="M203.3,632.7c-3.1-3.4-1.1-7.5-1-11.3c1.1,0.9,0.7,2.2,0.9,3.3c0.2,1.3,0.3,2.6,0.5,3.9
		c0.2,1.3,0.4,2.5,0.6,3.8C203.9,632.6,203.6,632.7,203.3,632.7z"/>
	<path fill="none" d="M533.3,647.8c-1.9-1.8,0.2-3.7,0.2-5.5c-0.1-1.9,0.4-3.7,0.7-5.7c1.2,0.4,1.4,1.6,1.1,2.4
		c-0.8,2.2-0.5,4.4-0.7,6.7C534.5,646.6,534.4,647.4,533.3,647.8z"/>
	<path fill="none" d="M443,635c-0.7-2.5-0.7-4.2,0.1-8.6C443.6,629.7,445.4,632.2,443,635z"/>
	<path fill="none" d="M313.9,346c-0.7,1.2-1.5,2.4-2.2,3.6c-0.9,0.6-1.8,0.6-2.7,0C309.6,347.2,312.1,347,313.9,346z"/>
	<path fill="none" d="M341.6,425.1c-0.3-1.7,0.4-2.8,0.5-4c0-0.3,0.3-0.6,0.5-1C342.7,422.7,342.7,422.7,341.6,425.1z"/>
	<path fill="none" d="M331.5,390c0.5-0.5,1-1,1.8-1c0.6,0.6,0.7,1.4,0.5,2.6C333,391.1,332.7,389.8,331.5,390z"/>
	<path d="M334.3,370.6c-0.4,0.3-0.8,0.7-1.8,1.5c0.6-1.3,0.8-2,1.6-2.2C334.4,370.1,334.5,370.3,334.3,370.6z"/>
	<path fill="none" d="M326.7,353.9c-1-0.1-1.4-0.6-0.9-1.5C326.1,353,326.4,353.4,326.7,353.9z"/>
	<path fill="none" d="M306.2,644.3c-0.4,0.3-0.8,0.3-1.3,0c-0.1-0.6,0.3-0.8,0.7-0.8C306,643.6,306.2,643.9,306.2,644.3z"/>
	<path d="M303.9,364.2c-0.4,0.9-1.3,1.3-2.1,1.7c0.2-0.5,0.4-1.1,0.6-1.6c0.5-0.1,0.9-0.1,1.4-0.2L303.9,364.2z"/>
	<path d="M848.9,500.6c1.4,1.3,0.7,2.7,1,4.2c2,1.2,2.3,3.9,4,5.7C849,509.7,846.8,505.4,848.9,500.6z"/>
	<path d="M863.1,507c-0.7-1.6-1.6-3.2-1.1-5.1C863.2,503.1,863.2,503.1,863.1,507z"/>
	<path d="M853.3,527.6c1.9,1.1,2.2,2.9,2.1,5.3C853.7,531.2,853.4,529.4,853.3,527.6z"/>
	<path d="M856.5,538.3c1.5,1.1,2,2.4,1.1,3.8c-0.7-0.1-0.7-0.4-0.8-0.8C856.7,540.4,856.6,539.4,856.5,538.3z"/>
	<path d="M872.7,617.4c0.8,1,0.8,1.5,0.4,2.2C872.2,619.1,872.6,618.5,872.7,617.4z"/>
	<path d="M783.2,500.1c3.2,1.4,0.5,4.8,2.4,6.3c-0.9,3.5-2.5,6.4-4,9.4c-0.4-0.7-1-1.5-1-2.6c0.9-2.7,1.9-5.6,2.9-8.5
		C783.8,503.1,782,501.8,783.2,500.1z"/>
	<path d="M778.8,540.9c-0.6-4.3,0.4-8.1,2.5-10.1C781.2,534.6,779.7,537.7,778.8,540.9z"/>
	<path d="M777.8,551.4c0.2-1.9,0.1-3.9,1.2-5.8C780.2,548.2,780.1,548.8,777.8,551.4z"/>
	<path d="M771.2,504.5c-0.1,1.9-0.2,3.5-0.3,5.7C769.3,506.6,769.3,506.4,771.2,504.5z"/>
	<path d="M775.2,604.4c-0.5-1-1.3-2-0.6-3.5C775.6,602.1,775.5,603.2,775.2,604.4z"/>
	<path d="M774.1,609.1c1.3,1.2,1.5,2.2,0.2,3.7C774.2,611.2,774.2,610.2,774.1,609.1z"/>
	<path d="M778.5,557c0.8,1.2,0.3,1.9-0.3,2.6c0.5,0-0.2,0.5-0.3,0C777.7,558.8,777.4,557.9,778.5,557z"/>
	<path d="M774.7,617.2c-0.4-1-0.4-1-0.2-2C775.5,615.6,775.6,616.2,774.7,617.2z"/>
	<path d="M804.3,340.6c0.3-1.7,1.4-2,2.6-2.3c1.1,0.4,1.4,1.5,2.2,2C809,341.8,807,342,804.3,340.6z"/>
	<path d="M789.5,340.3c-0.4-2.1-0.3-3.5-0.1-5.6C790.7,336.7,790.4,338.2,789.5,340.3z"/>
	<path d="M843.8,299.4c-0.2,2-1.6,2.8-3.3,3.3C841.4,301.4,842.3,300.1,843.8,299.4L843.8,299.4z"/>
	<path d="M790.5,354.2c1.1,0.2,0.7,1.1,1.4,2.1C790.5,355.5,790.7,354.7,790.5,354.2L790.5,354.2z"/>
	<path d="M790.6,354.1c-0.9-0.6-0.7-1.3-0.4-2.2C790.6,352.6,790.7,353.4,790.6,354.1L790.6,354.1z"/>
	<path d="M809,276.2c14.3,7.6,24.6,8.3,41.7,0.6c0.1,1.1-0.6,1.5-1.3,1.9c-4.2,2.4-8.6,4.2-13.3,5.3c-3.2,0.8-6.2-0.2-9.2-0.6
		c-4.6-0.6-9.2-1.6-13.5-3.5C811.6,279.1,809.9,278.2,809,276.2z"/>
	<path d="M852.4,274c-0.2-1.1,0.3-1.5,1.1-1.8C853.9,273.5,853,273.6,852.4,274z"/>
	<path d="M798.9,405.2c-1.2,0.1-2.1,0.3-3.1,0.3c-2.9,0.1-4.7-1.4-4.7-4c0-2.5,1.8-4.2,4.4-4c2.7,0.2,4.3,2.1,3.8,4.9
		C799.1,403.2,799,404.1,798.9,405.2z M793,400.2c-0.1,2.8-0.1,2.8,2.2,3.7c1-0.4-0.5-1.3,0.4-1.8c0.6-0.8,1.5,0.9,2.1-0.2
		C796.9,398.6,795.9,398.2,793,400.2z"/>
	<path d="M777.3,401.5c-1.5,0-0.5,2.1-2.2,2.1c-0.7-2.5-0.5-4.9,0.2-7.4c2-0.5,3.6,0.2,5.2,0.3c1.2,2.7,1.2,2.7-0.5,5
		c-0.1,0.9,0.9,1.4,0.7,2.3c-0.3,0.4-0.6,0.2-1,0.1C778.6,403.4,778.6,401.7,777.3,401.5z M779.9,398.6c-1-1-1.9-1.2-3-0.9
		c-0.6,0.7-0.5,1.3,0.1,2C778.1,400,779.2,400.3,779.9,398.6z"/>
	<path d="M790.8,400.9c-1.7,3.6-3.1,4.4-5.6,3.8c-2-0.5-3.3-2.2-3.2-4.1c0.1-1.8,1.5-3.3,3.3-3.7
		C787.7,396.3,789.3,397.4,790.8,400.9z M786.2,403.4c1.7-0.2,2.6-1.2,2.5-2.9c-0.1-1.5-1.2-2.2-2.6-2.4c-1.4,0.4-2.5,1-2.4,2.6
		C783.8,402.3,784.7,403.1,786.2,403.4z"/>
	<path d="M772.1,311.3c-2.3,2.6-3,2.9-6.5,3.3C768,311.9,769.6,311,772.1,311.3z"/>
	<path d="M760.9,379.1c1.3,2.7,1.3,3.1-0.6,5.3C759.4,382.4,759.9,380.8,760.9,379.1z"/>
	<path d="M762.3,374.6c0.6,1,0.4,1.8-0.5,2.5C760.7,375.9,761.6,375.3,762.3,374.6z"/>
	<path d="M763.8,371.4c0.2,0.8-0.4,1.2-0.8,1.8c-0.5-0.9-0.5-1.6,0.3-2.1C763.5,371.2,763.7,371.3,763.8,371.4z"/>
	<path d="M750.9,408.3c-0.6,0.8-1.2,1-1.9,0.1C749.6,407.4,750.2,407.2,750.9,408.3z"/>
	<path d="M753.7,406c1.4,0.9,0.5,1.3,0,2C753.1,407.2,753.1,406.7,753.7,406z"/>
	<path d="M863.1,659.5c-3.2,2.7-6,2.8-10.7,0.5c1.6-1.4,3.6-1,5.3-1.2C859.5,658.7,861.4,657.2,863.1,659.5z"/>
	<path d="M886,656.8c-0.2,2.6-0.4,4.9-1.5,7.3C883.3,661.3,883.7,659,886,656.8z"/>
	<path d="M972.4,444.6c0,0.9,0.2,1.8-1.4,2.4C971.3,445.8,971.9,445.2,972.4,444.6L972.4,444.6z"/>
	<path d="M836.6,126.2c0.5-0.9,1.2-1.2,2.4-1.1C838.4,126.3,837.4,126.1,836.6,126.2L836.6,126.2z"/>
	<path d="M969.9,415.3c-1.2-2.1-1.5-4.2,0.2-6.7C970.4,411.1,969.4,413.2,969.9,415.3z"/>
	<path d="M841.1,145c-1.7,1.5-1.7,1.5-4,1.8c1.3-0.9,2.4-1.8,3.7-2.1C840.9,144.8,841,144.9,841.1,145z"/>
	<path d="M312.6,400.5c-1.3,0.1-2.7,0.3-4.2,0.4c-0.1,2.6-2.3,2.9-4.4,3.5c-1.5-1.1-3.5-0.8-5.4-0.7c-0.1-1.8,1-2.4,2.1-3.2
		c1.2-0.8,2.3-2.1,3.8-1.7c2.5,0.7,5,0.3,7.4,0.7C312.2,399.7,312.5,399.9,312.6,400.5z"/>
	<path d="M327.5,378.6c1.2,0.3,1.7-1.2,2.9-1.1c-0.5,2.1-5.8,8-10.2,11.1c0.9-2.2,2.6-3.1,3.9-5.3c-2.2,1.2-3.8,2.2-5.8,3.3
		c-0.1-1.3,0.7-1.6,1.2-2.1c0.6-0.5,1.2-1,1.9-1.6c-0.6-0.2-1-0.3-1.8-0.5c1.8-1.9,4.1-2.8,6.1-4.1c0.1,0.1,0.3,0.3,0.4,0.4
		c-0.1,0.7-1.2,0.8-0.8,2c0.6-0.9,1.9-1,2.1-2.3L327.5,378.6z"/>
	<path d="M310.2,423.9c-2.2,4-5.7,3.9-8.9,4.2c-2.5,0.3-5,0.4-7.5,0.7c-1.3,0.2-2.3-0.3-3.2-1c0.3-1.3,1.2-1.1,2.2-1.2
		c4.5-0.5,9-0.1,13.5-1.1C307.5,425.2,308.3,424,310.2,423.9z"/>
	<path d="M291.8,364.3c-0.1,1.5-1.4,2.5-1.4,4.5c2.1-2.9,3.4-6,6-8.1c-1.1,2.9-3.3,5.3-4.6,8.1c-1.3,2.8-2,5.8-3.2,8.7
		c-1.1-0.5-0.5-1.4-0.9-2c-0.7,0.1-0.1,1.1-0.7,1.2c-0.2,0.1-0.4,0-0.4-0.4c-0.3-1.7,0.1-3.2,1-4.8c1.4-2.4,1.9-5.4,3.9-7.6
		C291.6,364.1,291.7,364.2,291.8,364.3z"/>
	<path d="M305.5,375.8c5.4-7.3,12.2-12.6,21.1-14.9c-3.7,2.3-7.7,4.2-11.2,6.7C311.9,370.1,309.3,373.6,305.5,375.8z"/>
	<path d="M290.8,420.2c0.3-1.2,0.9-1.7,1.7-2c1.2,0,0.8,1.4,1.5,1.8c2.4,1.5,4.2-2.9,6.4-0.6c0.9-0.7,0.6-1.9,1.8-2
		c0.5,0.1,0.8,0.4,0.9,0.9c0.3,1.4-0.8,2.1-1.5,3.2c-1.2-0.4-2.3-0.8-3.3-1.2C295.7,422.2,293.8,422.2,290.8,420.2z"/>
	<path d="M285.9,406.5c-1.6-0.4-2.1-1.5-3-2.2c-0.8-0.3-1.2,0.9-2.1,0.3c-0.3-0.4-0.3-1.1,0.1-1.5c1.3-1.1,2.8-1.8,4.5-1.7
		c1.8,0.1,3.5,0.5,5.3,2.3C288.3,403.6,286.9,405,285.9,406.5z"/>
	<path d="M303.1,432.2c-1.6,2.5-3.8,1.6-5.7,1.6c-1.7,0-3.4,0-4.2-2C295.7,430.5,300.6,430.6,303.1,432.2z"/>
	<path d="M294.8,399.2c5.2-6.3,12.1-8.3,18.5-5.1c-1.7-0.3-2.7-0.5-3.7-0.6c-3.1-0.5-5.9,0.3-8.4,2.2
		C299.3,397.2,297.3,398.6,294.8,399.2z"/>
	<path d="M328.5,371.5c-1,0.9-1.9,1.7-2.7,2.4c-0.1,1.1,0.7,0.6,0.9,1.3c-0.9,1.3-2,2.5-3.6,3.3c-1.6,0.8-3.2-0.6-4.8,0.3
		c3.5-2.4,6.3-5.5,9.8-7.7C328.2,371.3,328.4,371.4,328.5,371.5z"/>
	<path d="M313.9,362.7c0,0.7-0.6,1-1,1.3c-3.9,2.9-7.1,6.6-10.2,10.7C302.4,371.2,308.9,364.5,313.9,362.7L313.9,362.7z"/>
	<path d="M282.9,372.1c0.8,0,1.3-0.4,1.5-1.2c0.3-1.5,0.6-3,2-4.4c-0.1,3.5-1.5,6.5-1.1,10.1C282.6,375.5,283.4,373.5,282.9,372.1
		L282.9,372.1z"/>
	<path d="M326.5,369c-2.4,2.3-4.7,4.6-7.1,6.8c-0.2-0.2-0.3-0.4-0.5-0.6C321.1,372.7,323.6,370.6,326.5,369z"/>
	<path d="M311.9,360.8c-2.3,2.3-4.6,4.5-7,6.8c0.9-3.1,3.8-4.5,5.4-7c0.4-0.1,0.8-0.1,1.3-0.2C311.7,360.5,311.8,360.7,311.9,360.8z
		"/>
	<path d="M303.5,368.5c-0.7,2.2-2.5,3.6-3.3,6.2C299.7,371.6,300.7,369.7,303.5,368.5z"/>
	<path d="M323.6,441.2c2.2-1.5,3.8-1.7,6.3-0.5C327.6,441.2,326.1,442.2,323.6,441.2z"/>
	<path d="M308.9,360.5c-1.2,1.9-3,2.9-5,3.6l-0.1-0.1C305.2,362.4,306.7,361.1,308.9,360.5L308.9,360.5z"/>
	<path d="M335,455.4c1.4-0.2,2.6,0,2.9,1.8C336.2,457.6,335.7,456.4,335,455.4z"/>
	<path d="M294.5,359.8c-0.5,1.7-1.5,3.2-2.7,4.5c-0.1-0.1-0.2-0.2-0.3-0.3C292.1,362.3,292.7,360.6,294.5,359.8L294.5,359.8z"/>
	<path d="M313.4,358.5c0.8,0.1,1.3-1,2.6-0.6c-1.3,1.3-2.6,2.2-4.1,2.9c-0.1-0.1-0.2-0.2-0.3-0.3
		C312.2,359.8,312.8,359.1,313.4,358.5z"/>
	<path d="M318,376.5c-0.4,1.4-1.5,1.9-2.7,2.5C315.7,377.6,316.8,377,318,376.5z"/>
	<path fill="none" d="M313.4,358.5c-0.6,0.7-1.2,1.3-1.8,2c-0.4,0.1-0.8,0.1-1.3,0.2l-0.1-0.1c0.3-0.5,0.5-1,0.8-1.5
		C311.7,358.3,312.6,358.4,313.4,358.5z"/>
	<path d="M314.6,371.3c-0.2,1.3-1.5,1.3-2.2,2.1C312.7,372.1,313.5,371.5,314.6,371.3L314.6,371.3z"/>
	<path d="M320.6,370.1c-0.4,0.8-1,1.5-2.1,1.7C318.9,370.8,319.8,370.6,320.6,370.1z"/>
	<path d="M328.1,371.2c0.5-0.9,1.3-1.5,2.6-1.9c-0.7,1.1-1.4,1.8-2.3,2.2C328.4,371.4,328.2,371.3,328.1,371.2z"/>
	<path d="M325.9,378.3c0.4-1,1.2-1.5,2-2c0.6,1-0.8,1.4-0.5,2.2l0.1-0.1c-0.4,0.1-0.9,0.2-1.3,0.3
		C326.2,378.6,326.1,378.5,325.9,378.3z"/>
	<path d="M314.6,371.4c0.4-1,1.1-1.5,2.2-1.4l-0.1-0.1C316.3,370.8,315.6,371.3,314.6,371.4L314.6,371.4z"/>
	<path d="M316.8,369.9c0.3-1.1,1.1-1.6,2.2-1.4l-0.1-0.1C318.4,369.3,317.7,369.8,316.8,369.9L316.8,369.9z"/>
	<path d="M319,368.5c0-0.9,0.8-1,1.4-1.3C320.3,368.1,319.7,368.4,319,368.5L319,368.5z"/>
	<path d="M313.9,362.7c-0.1-0.9,0.8-0.7,1.2-1.3C315.2,362.5,314.6,362.7,313.9,362.7L313.9,362.7z"/>
	<path d="M292.5,372.2c-0.1,0.8-0.6,1.4-1.4,2c-0.3-1.2,0.4-1.7,1.1-2.3C292.3,372,292.4,372.1,292.5,372.2z"/>
	<path d="M311.1,359c-0.3,0.5-0.5,1-0.8,1.5c-0.5,0-0.9,0-1.4,0l0,0C309.2,359.5,310,359.1,311.1,359z"/>
	<path d="M424.6,501.9c1.2,1.5,1.2,3.3,1.3,5.6C424.4,505.5,424.4,503.7,424.6,501.9z"/>
	<path d="M304.3,518.8c-3.2-0.5-5.1-2.9-7.7-4.4C299.5,512.5,303,514.7,304.3,518.8z"/>
	<path d="M282.5,433c0.9-1.1,1.4-2.6,2.9-3.3C286,432,286,432,282.5,433z"/>
	<path d="M304.8,517.1c1.6,0,2.4,0.4,2.8,1.4C306.5,518.9,305.9,518.2,304.8,517.1z"/>
	<path d="M316.1,611.3c-0.7,1.3-1.6,1-2.4,0.6C314.4,611.4,315,610.9,316.1,611.3z"/>
	<path d="M291.2,468.2c-0.3-0.8-0.1-1.3,0.8-1.1C292.3,467.9,292.3,468.4,291.2,468.2z"/>
	<path d="M295.5,510.3c0.6,0,0.8,0.3,1,1C295.6,511.4,295.2,511.2,295.5,510.3z"/>
	<path d="M274.8,437.9c0.2,0.9-0.1,1.2-0.8,1.5C273.6,438.7,273.7,438.2,274.8,437.9z"/>
	<path d="M276.6,437.3c0.2-0.8,0.5-1.3,1.3-1.5C278.1,436.7,277.9,437.2,276.6,437.3z"/>
	<path d="M348.1,506.5c-1.3,3.2-1.9,6.2-4.1,8.5c-1.2-2.1-0.8-4.2,2-10.1c0.1-1.5-1.5-2.9-0.4-4.8
		C348.9,501.5,346,504.9,348.1,506.5z"/>
	<path d="M341,541c0-3.5,0.2-6.9,2.3-9.9C343.7,534.7,342,537.7,341,541z"/>
	<path d="M341.7,545c1,3,0.3,4.8-1.2,6.5C340.4,549.5,340.4,547.5,341.7,545z"/>
	<path d="M333.9,504.5c-0.2,1.9-0.4,3.5-0.7,5.7C332,506.1,332,506.1,333.9,504.5z"/>
	<path d="M337.1,605.5c-0.1-1.8-0.2-3-0.3-4.2C337.8,602.4,338.5,603.6,337.1,605.5z"/>
	<path d="M340.5,556.5c1,1.5,0.9,2.2,0.3,2.8C339.7,558.6,340.6,557.9,340.5,556.5z"/>
	<path d="M365.2,360.6c1.5-2.2,3.9-2.9,7-3.7C369.8,359.2,367.5,359.9,365.2,360.6z"/>
	<path d="M373.1,356c1.1-1.6,1.8-1.9,2.9-1.8C375.5,355.3,374.7,355.6,373.1,356z"/>
	<path d="M400.5,384.7c-0.4-0.5-0.3-1-0.1-1.6c0.2-0.5,0.5-0.8,0.9-0.9c0.4,0.4,0.4,0.8,0.2,1.2C401.3,384,401.1,384.5,400.5,384.7z
		"/>
	<path d="M398.7,388c0.9,0.9,0.2,1.2-0.1,1.8C397.9,389,398.1,388.5,398.7,388z"/>
	<path d="M404,374.7c0.4,0.6,0,0.9-0.4,1.2C403,375.2,403.7,375.1,404,374.7z"/>
	<path d="M421.9,392.5c2.3-2.2,4.6-4.4,7.4-7C427.3,388.9,425.1,391.1,421.9,392.5z"/>
	<path d="M421.1,382.1c0-0.2-0.1-0.5,0-0.7c1.2-2.4,2.5-4.9,3.8-7.4C424.6,376.8,423.3,379.6,421.1,382.1L421.1,382.1z"/>
	<path d="M422.6,388.7c-0.8,2.1-2.6,3.3-4.2,4.8c0.7-2.1,2.4-3.5,3.9-5C422.4,388.5,422.5,388.6,422.6,388.7z"/>
	<path d="M422.3,388.4c0.3-1.3,1.2-2.2,2.3-3.8c-0.2,2.1-0.9,3.2-2,4.1C422.5,388.6,422.4,388.5,422.3,388.4z"/>
	<path d="M421.6,371.4c-0.3,0.3-0.6,0.7-0.9,1C420.3,371.7,421,371.5,421.6,371.4z"/>
	<path d="M418.4,386.1c0.4,0.8-0.4,0.8-0.3,0.5C417.9,386.8,418.2,386.5,418.4,386.1z"/>
	<path d="M421,382.1c0.1,0.9-0.3,1.5-1.1,2C419.9,383.1,420.2,382.4,421,382.1L421,382.1z"/>
	<path d="M415,659.7c3.5-0.5,6.8-1.9,10.6-0.8C423.2,662.2,419.9,662.4,415,659.7z"/>
	<path d="M448.4,656.5c0,3-0.5,5.2-1.3,7.6C445.8,661.5,446,659.8,448.4,656.5z"/>
	<path d="M533.2,655.3c-0.3,1.1-0.4,2.3-2,2.9C531.3,656.6,532.4,656.1,533.2,655.3L533.2,655.3z"/>
	<path d="M531.6,626c-0.9-2.1-0.1-4.2,0.8-6.2c0,2.1,0,4.2,0,6.3C532.1,626.1,531.8,626.1,531.6,626z"/>
	<path d="M533.2,616.9c0.3-1,0.5-1.5,1.2-1.5C534.9,616.4,534.2,616.5,533.2,616.9z"/>
	<path fill="none" d="M793,400.2c2.9-2,3.9-1.6,4.6,1.8c-0.6,1.1-1.5-0.6-2.1,0.2c-0.9,0.5,0.6,1.4-0.4,1.8
		C792.9,403,792.9,403,793,400.2z"/>
	<path fill="none" d="M779.9,398.6c-0.7,1.7-1.8,1.4-2.8,1.1c-0.7-0.7-0.7-1.3-0.1-2C777.9,397.4,778.9,397.6,779.9,398.6z"/>
	<path fill="none" d="M786.2,403.4c-1.4-0.3-2.4-1.1-2.5-2.6c-0.1-1.6,1-2.3,2.4-2.6c1.4,0.2,2.6,0.9,2.6,2.4
		C788.8,402.2,787.9,403.2,786.2,403.4z"/>
	<path fill="none" d="M326.3,378.8c0.4-0.1,0.9-0.2,1.3-0.3c-0.1,1.3-1.5,1.3-2.1,2.3C325.1,379.6,326.2,379.4,326.3,378.8z"/>
</g>
</svg>
