<?xml version="1.0" encoding="utf-8"?>
<!-- Generator: Adobe Illustrator 19.1.0, SVG Export Plug-In . SVG Version: 6.00 Build 0)  -->
<svg version="1.2" baseProfile="tiny" id="Layer_2" xmlns="http://www.w3.org/2000/svg" xmlns:xlink="http://www.w3.org/1999/xlink"
	 x="0px" y="0px" width="900px" height="600px" viewBox="144 97 900 600" xml:space="preserve">
<g>
	<path d="M769.9,471c-2.8,2.6-4.3,6.1-6.2,9.3c-1,1.7-2,3.2-3.5,4.5c-0.4,0.3-0.7,0.6-1.2,0.9c-6.7,3.9-12,9.3-17.2,15.8
		c4.3-1.5,8-2.8,11.8-4.1c5.6-2,11-4.4,16.7-6.2c6.3-2,12.9-2.2,19.3-3.3c3.7,1.4,7.7-0.2,11.4,0.7c4.3,1.1,8.8,1.7,13,3.2
		c1.1,0.4,2.2,0.4,3.4,0.5c2.5,3.2,5.2,6.1,8.5,8.4c0.3,1.4,0.7,2.6,1.3,3.8c1.2,2.6,1.8,5.4,1.4,8.1c-0.6,5.6-0.3,11.1-0.3,16.7
		c-0.1,8.3-1,16.4-4,24.2c-0.1,0.3-0.3,0.7-0.3,1c-1,7.7-4.2,14.6-7.8,21.4c-2.4,4.5-3.3,9.6-4.6,14.5c-1.5,5.9-2.7,11.8-5.2,17.4
		c1.2,1.6,3,2,4.7,2.7c2.8,1.1,5.8,1.8,8.1,3.9c0.7,0.6,1.5,0.6,2.4,0.5c4.9-0.6,9.9,0.2,14.8-0.1c2.8-0.2,6.3,3,7,5.9
		c0.3,1.1,1.1,1.9,1.3,2.9c-0.4,3.1-2.2,5.2-4.5,7.1c-6,5.3-13.4,7-20.9,8.5c-1.6,0.3-3.4,0-5.1-0.2c-2.8-0.4-5.5-0.1-8.1,1
		c-5.2,2.3-10.8,3.7-16.5,4.2c-7.1,0.6-13.5-1.2-17.5-8.3c0.9-2.7,1.6-5.6,2.7-8.4c1.5-3.9,2.4-7.9,2.6-12c0.1-2.4,0.5-4.8,2.4-6.7
		c0.9-1,0.8-2.6,1.6-3.2c1.3-0.9,2.1,0.4,3.2,0c0.9-3,1.1-6.1,1.4-9.2c0.4-4.8,0.8-9.7,1.7-14.4c1.3-6.4,0.4-12.8-0.4-19.1
		c-0.8-6.3-0.1-12.3,1.7-18.3c1.3-4,2.3-8.1,3.7-12.9c-6,3.1-11.7,5-17.2,7.7c-7.2,3.5-14.1,7.7-21.7,10.1
		c-7.4,2.3-14.9,4.5-22.5,5.5c-7.4,1-15,1.6-22.4-0.1c-9-2-18.1-3.5-26.6-7.2c-2.7-1.2-5.4-2.2-7.5-4.3c-0.4-0.4-1-0.7-1.9-0.6
		c-0.9,5.3-1.8,10.8-2.9,16.2c-1.1,5.3-0.4,10.9-2.4,16.2c1.5,1.6,3.7,2.1,5.4,3.4c2.8,2.1,4.2,4.5,3.1,7.8
		c-1.7,5.3-2.7,10.8-2.8,16.3c0,0.6-0.3,1.1-0.5,1.7c-0.3,0.8-1.1,0.2-1.5,0.5c-0.9,0.6,0.4,1.1-0.1,1.8c-9.3,4-18.6,3.2-27.7-2
		c-0.2-4.4,0.1-9,2.5-13.3c1.6-2.9,2.4-6.3,3.3-9.6c0.5-1.8,1.2-3.5,2.2-5c2.6-4,3.4-8.3,2.5-13c-1-5.2-1.7-10.5-2.7-15.8
		c-0.6-3.1-0.2-6.3-0.9-9.5c-3.4-3.2-7.8-5.6-9.9-10.3c-2-4.3-2.8-9-4-13.7c1-5,1.9-10.2,4.7-15c2.6-4.5,5.5-8.8,9.4-12.3
		c1.3-1.2,2.1-2.5,2.6-4.2c1.2-3.9,2.8-7.7,4.4-11.5c0.9-2.2,2.6-3.8,4.7-4.9c3.3-1.7,6.5-3.8,10.3-4.9c2.4,1.3,5.4,0.4,8,1.6
		c2.5,1.1,4.6,2.6,5.9,5.3c3.8-4.3,7-8.5,8.6-13.9c1.5-5.1,2.9-10.2,4.2-15.4c0.4-1.6,0.2-3.1,0.1-4.7c-0.4-6.6-1.1-13.3,0.2-19.9
		c0.1-0.6,0.1-1.2,1.1-1.6c0.4,3.5,0.8,7,1.3,10.5c5.9-3.9,15.8-11.7,20.4-19.9c-3.2-1.2-16.7-3.5-23.2-4c-1.7,1.5-3.1,3.6-4.5,5.5
		c-3.1,4.2-6.3,8.2-10,12c-1.3,1.4-2.8,2.2-4.5,2.8c-4.4,1.5-8.4,3.7-12,6.7c-1.9,1.6-3.8,2.9-6.1,3.9c-1.4-0.2-2.2-1.4-3-2.4
		c-3.3-4.1-6.7-8.2-10.9-11.7c-3.8-3.2-4.9-8-6.6-12.3c-0.7-1.8-1.1-3.7-1.6-5.7c1.3-2.4,1.9-5.1,3.6-7.4c1.1-1.4,0.9-3.2,0.7-4.9
		c-0.2-1.6-0.7-3.1-1.6-4.4c-1-1.3,0.1-3.2-1.4-4.3c-1.1-0.8-1.4,1.8-2.6,0.4c-0.6-0.7,0.7-0.9,0.7-1.6c-0.4-0.6-1-1-1.8-1.1
		c-1.1,0.8-0.9,2.2-1.5,3.1c0.5,1.6,2,3,1.6,5.3c-3.1-4.9-3.2-6.5-0.8-9.2c-2.5-0.8-2.5-0.8-5.5,1.5c-2.5-2.3-4,0.2-6,1.5
		c0-2,1.8-2.5,2-3.9c-0.9-0.5-1.9-0.4-2.8-0.1c-1.7,1.3-1.8,3.9-4.2,4.8c-0.6-1.3,0.8-1.8,0.6-2.8c-2.2,0.1-2.4,2.5-4,3.3
		c0.6,2.6,1.1,5,1.7,7.5c0.7,3,2,5.6,3.9,8.1c1.7,2,2.8,4.5,3.4,7.1c0.3,1,0.5,2.2,1.1,3c2.9,4.2,4.2,9,5,13.9
		c1.2,6.7,3.8,12.7,7.4,18.4c2,3.1,3.8,6.2,5.7,9.3c1.9,3,2.6,6.5,4.4,9.4c6.7,3.4,12.6,0.3,18.2-2.7c2-1.1,3.9-2.4,6.1-3
		c9-2.8,16.7-7.6,23.3-14.3c0.2-0.2,0.4-0.2,0.7-0.4c0.1,2.6-1,4.6-2.9,6.3c-3.7,3.4-7.7,6.4-12.4,8.1c-6,2.2-11.6,5.3-17.8,7.2
		c-1.7,0.5-3.5,1-5.2,1.7c-2.4,0.9-4.8,1.1-7.1,0.3c-1.3-0.5-2.6-0.1-3.8-0.1c-1.5-0.9-1.7-2.5-2.3-3.8c-2.9-6.9-6.5-13.5-10.4-19.9
		c-3.5-5.8-5.2-12.2-6.9-18.6c-0.9-3.4-2-6.6-3.3-9.9c-1.9-4.6-4.2-8.9-6.6-13.2c-1.1-1.8-1.4-4.1-2.2-6.3c-2.5-0.7-5.1-1-7.6-1.3
		c-6.3,3.5-12,2.3-17.2-1.8c-1.4-1-2.8-1.4-4.3-1.6c-19-2.9-38.1-5.9-57.1-8.8c-2.5-0.4-5.1-0.8-6.3-3.3c-0.2-1.6,0.6-2.8,0.7-4
		c1-1.4,2.6-1.9,4.1-2.8c20.9,3.1,42,6.2,63.3,9.4c4.5-4.4,9.8-2.4,15-1.4c2.3,0.4,4,1.7,4.6,3.9c1.6,0.7,3.1,0.9,4.7,0.9
		c1.4-0.5,1.8-2,3.3-2.8c1.2,0.1,2.7-0.4,4.1-1.1c1.9-0.9,3.7-0.9,5.1,0.9c2.4-1.4,5-0.5,7.5-1.2c0.9-0.3,2.1,0.2,2.5,1.2
		c1,2.7,3.9,3.9,4.4,6.7c1.9,0.8,3.7,0.9,5.5,1.1c11.8,1.1,23.5,3.4,35.2,5c10.1,1.4,20.1,3,30.2,4.5c5,0.7,9.9,0.3,14.6-1.9
		c2.4-1.1,5-1.9,7.6-2.5c3.3-0.9,6.2-2.5,8.7-5.1c-0.9-3-1.8-5.9-2.6-8.7c-2.3-7.9-4-15.9-5.2-24.1c-1.2-8.7-0.4-17.2,2.2-25.5
		c1-3.2,3.4-6,6.1-8.2c1.2-1.1,2.7-1.1,4.1-0.6c2.1,0.7,4.1,1.4,6.5,2.2c0.6-0.2,1.6-0.4,2.5-0.7c6.4-1.8,12.3,0.5,17.8,3
		c4.3,2,8.2,4.7,11.5,8.4c4.7,5.3,5.6,11.3,4.5,17.9c-0.3,1.7-1.4,3.1-1.2,5.1c0.1,0.6,1.3,0.1,1.5,1c-0.1,0.9-1.3,1-1.7,1.9
		c0.7,9.7-3.9,18.3-6.3,27.3c-2.2,1-4.1,1.8-5.9,2.6c-1.3,2.4-1.2,5.2-1.5,8.1c2,1.9,3.6,4.5,5.7,6.9c2.9,0.6,5.9,1,8.8,1.9
		c1.9,0.6,3.7,1.3,5.2,2.4s3.2,1.6,5,1.9c18.9,2.8,37.8,5.6,56.8,8.4c0.5,0.1,0.9,0.1,1.6,0.2c2-3.7,5.3-3.8,8.7-2.9
		c2.1,0.5,4.4-0.1,6,1.6c2.8-0.9,5.2-2.7,8.2-1.8c0.9,0.2,1,1.3,1.7,1.8c1.4-0.2,2.7-1.2,4.7-0.5c0.6,0.2,0.4,1.4,0.9,2.2
		c1.1,0.3,2.1-0.7,3-0.2c0.9,0.1,0.8,1.2,1.4,1.4c0.9,0.3,1.5-0.7,2.3,0c1.2,1.1-0.4,2.9,0.8,4c1.8-0.1,2.2-2.4,4.5-2.1
		c-2,2.6-4.6,4.7-5.1,8c-0.5,3.4,0.9,6.1,3.3,8.7c5.6,1.7,11.3,4.3,17.5,1.7c-1.8-1-3.7-1.5-5.4-0.7c-1.9-0.9-3.2-2-4.6-3.7
		c7.6,2,15,2.7,22.3,3.8c29.1,4.6,58.2,9.1,87.2,13.6c4.5,0.7,9.1,1.1,13.6,2.4c3.1-0.5,4.7-2.7,5.5-5.5c-0.2-2.5-2.1-3.4-4-4.5
		c-3,1-5.7-0.6-8.6-1c-30.8-4.5-61.6-9.1-92.4-13.7c-6.1-0.9-12.2-1.8-18.3-2.8c-2-0.3-3.9-0.4-5.2,2c0,1.1,0,2.6,0,4.2
		c-2.2-2.3-1.8-5.5,0.9-7.1c2.5-1.5,5.1-1.8,7.8-0.7c1.5,0.6,3,0.7,5.1,1c-5.1-6.9-12-5.8-18.6-5.4c0.3-1.3,1.2-1.2,2-1.3
		c3.2-0.3,6.3-0.3,9.4,0.3c4.1,0.7,6.6,2.6,8.6,6.7c8.5,1.3,17.1,2.6,25.7,3.8c22.3,3.3,44.6,6.6,66.8,9.9c4.3,0.6,8.6,1.2,12.9,1.8
		c3.1,0.4,6.1,1.2,8.8,2.5c1.6,6.6-1.1,10.3-7.7,10.6c-5,0.2-9.9-1.1-14.7-1.8c-16.8-2.5-33.5-5.2-50.2-7.8
		c-15.1-2.3-30.1-4.7-45.4-7c-2.1,2.7-4.9,3.1-8.1,2.7c-1.6-0.2-3.1-0.5-4.7-0.5c-4.4,0.2-7.2-2.1-9.4-5.7c-2.7-0.2-5.4-1.2-8.4-1
		c-2.2,2.9-5.4,4.9-7.5,8.2c-1,1.6-2.9,2.1-4.6,2.7c-4.4,1.5-8.7,3.6-11.6,7.2c-6.2,7.9-14.7,12.9-22.8,18.3
		c-1.1,0.7-2.3,1.4-3.2,2.4c-8.1,8-18.5,12.8-27.8,19c-4.9,3.2-7.8,1.5-10.6-1.5c-4.2-4.6-6.8-10-9.3-15.5c-0.9-2.1-2.1-4-3.8-5.9
		c-1.2,2-2.3,4.1-4.4,5.3c-1.9,1.1-3.8,2.1-5.7,3.1c-1.3,0.7-2.7,1-4.2,1.1C771.5,474,771,473.6,769.9,471c0.9-0.1,1.8-0.1,2.8-0.1
		c6.5-0.1,11.3-2.9,14-9.2c-2.4-3.8-3.3-8.2-3.7-12.7c-2.3,0.6-2.3,0.7-4,0.1c-7.4-2.4-11.5-7.8-13.3-15c-1.8-7-1.1-13.9,0.8-20.8
		c0.3-0.9,0.9-1.7,0.4-2.8c-4.1-0.6-8.3-1.3-12.5-1.9c-1.5-0.2-2.8-0.3-4.2,0.6c-1.8,1.1-3.8,1.4-6.8,0.4c-0.6-0.6-1.7-1.9-2.8-3.1
		c-4.9-0.7-9.8-1.5-14.5-2.2c-1.1,1.4-2.2,2.4-3,3.6c-3.5,5.6-8.2,10.1-13.6,13.9c-2.7,1.9-5.1,4.3-7.7,6.5
		c0.5,4.9,0.5,9.5-0.8,14.2c-0.4,1.5-1.4,2.9-1,4.5c-0.9,0.9-0.9,2.2-1.2,3.4c-1.2,3.5-2,7.2-3.5,10.6c-1.7,3.8-4.5,6.9-7.5,9.7
		c-3,2.8-6.2,5.3-10.2,6.7c-2.4,0.9-4.8,2.1-6.8,3.8c0.9,2.2,2.7,3.4,3.9,5c2.3,2.9,5.5,4.3,9.1,4.6c3.4,0.2,6.8,0.1,10.1-0.5
		c3.7-0.7,7.4-1,11.2-0.7c7.6,0.6,15.2,1.2,22.8,1.9c3.4,0.3,6.6,1.3,9.3,3.6c1.1,1,2.3,1.9,3.6,3c2-3.4,4.2-6.5,7.1-8.9
		c2.6-2.2,5.5-4,8.5-5.6c2.7-1.5,4.9-3.4,6.3-6.4c-1-2.3-2-4.7-3.1-7c-2.6-5.2-6.4-9.4-11.5-12.3c-3.2-1.8-6.3-3.6-9.4-5.4
		c-0.7-0.4-1.4-1.3-2.3-0.9c-1.7,0.7-3-0.3-4.5-0.7c-3.4-0.9-6.7-1.9-10.4-2.1c-0.7,2-1.6,3.8-2.9,5.5c-1.7,2.2-3.8,4-5.1,6.5
		c-0.7,1.3-2.1,2.2-4.6,2.5c3.8-5,7.3-9.4,9.1-14.9c-0.7-0.2-1.2-0.4-1.6-0.4c-4.6,0.2-9.2-0.5-13.7,0.5c-1.2,0.3-2.8,0.7-2.9-1.5
		c1.4-0.6,2.7-1.6,4.3-1.7c4-0.1,8-0.3,11.9,0.3c7,1,14,2.7,20.9,4.6c13,3.5,22.5,10.9,27,23.9c0.1,0.2,0.3,0.2,0.6,0.5
		c1-1.9,2.1-3.8,3-5.5c-0.1-2.1-0.2-4.1-0.4-6.6c2,2.4,0.7,5.6,3.2,6.8C770.7,470.1,770.3,470.5,769.9,471z M758.2,342.4
		c-0.1-1,0.2-2-0.7-3.7C757.8,340.4,757.4,341.5,758.2,342.4c0,1.6,0,3.2,1.4,4.5C759.1,345.4,759.4,343.7,758.2,342.4z
		 M779.4,322.7c-0.4-1-1.2-1.5-2.3-1.5c-0.3-0.2-0.6-0.3-0.9-0.5c-3.5-2.4-7.6-2.9-11.6-3.5c-1.7-0.3-3.8-0.7-5.7,0.2
		c-0.6,0.3-1.5,0.2-1.3,1.1c6.6,2.1,12.7,4.8,17.6,9.8c1.4,1,3.1,1.4,4.2,2.8c1.1,2.7,2.7,4.9,5.5,6c0,1.6,1.9,2.5,1.6,4.3
		c-4.7-4.7-9.3-9.5-14.4-13.8c-0.1-0.1-0.2-0.1-0.3-0.2c-0.7-2.3-2.9-2.7-4.8-3.3c-1.8-0.6-3.6-1.6-5.7-1.4c0.5,1.3,2.3,1.2,2.3,2.8
		c-2.5-0.7-4.8-1.6-7-3.1c0.2-0.6,1.4-1.2-0.1-1.7c-0.6,0.8-0.5,1.7-0.1,2.6c3.5,2.5,6.8,5.2,10.5,8.7c-4.2-1.8-6.6-4.7-9.9-6.4
		c1.1,1.7,2.5,3.1,3.7,4.7c1.4,1.7,2.8,3.4,3.9,5.2c1,1.6,2.6,2.9,2.8,5.1c-1.9-1.1-2.6-3.1-4-4.5c-1.5-1.6-2.7-3.5-4.3-4.9
		c-1.4-1.2-2-3.4-4.3-3.8c1.4,1.3,1.2,3.2,1.6,4.4c0.6,1,1.4,0.1,2.1,1.1c0.6,1.2,0.6,3.1,0.8,4.9c0.4,3.7,2.1,7.2,2.4,11
		c0.2,2.2,0.7,4.3,1.7,6.2c2,3.9,2.5,8.1,2.9,12.4c-2.3-5.7-4.8-11.2-5.4-17.5c-1.1,0.4-1.5,0.2-2-0.6c-0.7-1.3-0.7-3.1-2.1-4
		c0.2-1.2-0.4-2.1-1.2-3.4c0,1.5,0.1,2.6,1.3,3.3c0.1,0.6,0,1.2,0.2,1.8c2.9,8.6,4.1,17.4,3.2,26.4c-0.7,7.3-1.9,14.4-6.1,20.6
		c-0.4,0.7-1.1,1.3-0.7,2.5c2.4,0.3,4.8,0.7,7.1,1c3.5-3.8,8.6-4.8,12.2-7.9c-0.7-1.7-2.3-2.5-2.6-4.8c1.8,1.5,3.2,2.6,4.8,3.9
		c1.1-2.6,0.7-5.2,1.1-7.6c0.5-2.5-0.3-5.2,1.1-8.1c1.3,2.6,0.6,4.8,0.9,6.7c2.8,0.6,2.8,0.6,5.7-0.8c2.5-5.2,4-10.8,5.1-16.5
		c0.6-3.2,1.3-6.4,0.2-9.6c-0.4-1.3-0.3-2.7,0.3-3.9c1.8-3.8,1.2-7.7,0.9-11.7c-0.6-6.4-3.5-11.1-9.4-13.8
		C780.3,323.1,779.9,322.9,779.4,322.7z M802.6,609.8c2.1-4.1,3-8.6,4.3-12.9c2.9-9.7,5.4-19.6,9.8-28.8c3.8-7.8,5.6-16.2,7-24.7
		c1.1-6.6,1.7-13.2,1.6-19.9c0-1.5-0.3-3.2,1.5-3.7c0-3.9-0.4-7.5-0.9-11.1c-0.5-3.5-1.9-6.3-4.4-8.9c-1.7-1.7-3.9-2.4-5.6-3.9
		c-4-3.4-8.9-4.2-13.9-4.1c-8,0.1-16,0.6-23.9,0.9c-1.1,0-2.2,0.2-3.2,0.4c-9,2.5-17.4,6.7-26.5,9c12.8,14.6,11.1,33.4,2.7,45.1
		c-0.7,0-1.4,0-2.1,0c-0.1-1,0.5-1.6,1-2.2c2.8-3.2,3.9-7.2,4.4-11.3c0.2-1.4,0.4-2.9,0.6-4.3c0.8-6.1,0.1-11.9-3.2-17.3
		c-2-3.3-4-6.6-6.7-9.1c-2.3,0.5-4.3,0.9-6,1.3c-2.2-1.8-0.2-3.2,0.2-4.7c-2.9-1.4-4.9-3.8-7.9-4.6c-4.6-1.1-9.3-2.3-13.9-2.3
		c-7.4,0-14.8-0.8-22.1,0.1c-3.2,0.4-6.5,0.6-9.8,0.1c-1.9-0.3-3.7-1.2-5.7-1.2c-4.8-0.2-8.1-2.8-10.5-6.8c-0.5-0.8-0.7-1.8-1.6-2.5
		c-1.4,0.4-2.9,1-4.4,1.3c-3.8,0.8-6.9,2.8-9.6,5.5c-4.1,3.9-7,8.6-10.3,13.1c-3.1,4.2-3.6,8.8-3.5,13.7c0.1,12,11.7,23,21.8,23.7
		c3.1,0.2,6.3,0.3,9.4,0.4c3.7,0.2,7.3,0.9,10.2,3.2c2.6,2,5.4,3.2,8.5,4c6.3,1.7,12.7,3.2,19,4.6c3.5,0.8,7,0.9,10.6,1.1
		c3.6,0.2,7.2,0.3,10.8-0.1c0.7-0.1,1.8-0.1,2-0.6c1.1-1.8,2.9-1.5,4.4-1.7c2.5-0.4,5-0.7,7.6-0.9c1.9-0.2,3.5-0.9,4.7-2.3
		c0,0.3,0,0.7,0,1.3c7.5-1.9,14.6-4.5,21-8.7c5.5-3.7,11.3-7,17.4-9.8c2.1-1,4.4-1.5,6.3-2.8c4.6-3.1,9.6-5,14.8-6.6
		c0.9-0.3,1.7-1.6,2.9-0.6c-4.5,4.6-10.9,6.2-15.8,10.1c-1.2,5.2-2.8,10.3-4.6,15.3c-2.6,7-2.7,14.3-1.7,21.5
		c0.9,6.1,0.7,12.1,0,18.1c-0.9,7.3-1.2,14.7-2.5,22.2c3.2,0.3,5.5,2.2,7.8,4c2.6,2.1,2.4,5.7,4.5,8.2c2.3-0.9,1.7-3,2.3-4.4
		c-0.8-0.6-1.3-0.1-1.9-0.1c-0.6,0-1.2,0.1-1.7-0.5c-0.2-0.8,0.2-1.3,0.7-1.8c1.2-1.2,2.2,0.8,3,0.2c1.4-0.9,1.2-2.1,1.4-3.1
		L802.6,609.8z M803.8,416.1c-11.4-1.3-22.5-4.4-34.1-5.4c-2.8,8.3-3.2,16.5-1,24.8c1.8,6.7,6.4,10.7,13.6,11.5
		c-0.6-4.5-2.2-8.9-1.4-13.7c1.2,0.4,1.3,1,1.3,1.6c0.5,5.1,1.9,10,3.2,14.9c0.2,0.8,0.7,1.7,0.5,2.5c-0.5,2.5,0.7,4.5,1.9,6.4
		c1.2,2,2.6,3.8,3.9,5.7c1.9,2.5,3.3,5.3,4.9,8.1c0.7,1.3,0,2.5,0.8,3.7c1.9,2.8,3.7,5.7,6.2,8c2.4,2.3,5.8,2.7,8.6,1
		c3.2-2,6.3-4.1,9.5-6c4.7-2.8,8.9-6.3,13-9.8c3.2-2.8,6.5-5.4,10.1-7.6c6.1-3.8,12-7.7,17.1-12.8c4.5-4.5,9.4-8.3,15.4-10.6
		c1-0.4,1.5-1.2,2.2-1.8c5.1-4.7,9.5-10,15.1-14.1c0.6-2.1,1.6-4,1.3-6.2c-1,0.2-1.6,0.5-2,1c-0.4,0.7,0.9,1.3,0.1,2
		c-3.7-0.2-5,4.1-8.3,4.8c-0.3-1,0.2-1.4,0.7-1.7c2-1.7,4-3.5,6.1-5.2c1-0.8,1.4-1.7,0.5-2.8c-2.4-0.5-3.7,1-4.9,2.6
		c0,0.7,0.9,1.1,0.2,1.7c-1,0.4-1.5-0.8-2.9-0.2c-1.4,0.3-1.8,3.3-4.3,2.9c0.5-5,5.8-5.4,8.2-8.5c-1.9-1.4-3.1,0.4-4.8-0.1
		c-1.1-1.1-2.6-1.9-4.5-1.4c0.6,1.5,2.4,1.6,3.2,2.8c-0.6,1.6-2,2.1-3.4,2.5c-1.2,0.4-2.3,1.8-4,0.6c1.2-2,3.4-2.3,5-3.4
		c-1-0.9-1.7-1.6-2.7-2.6c-1.7,2.3-4.5,2.2-6.7,3.5c-2,1.2-3.9,3.1-6.8,2.7c1-0.9,1.8-1.8,2.3-3c1.9,0,3.5-0.3,4.5-2
		c-2.4-0.7-4.8-1.6-7.5-1.5c-1.6,1.3-1.9,3.6-3.5,4.9c-2.1,1.9-2.2,4-1.1,6.5c1.5,3.4,2.7,7,1,11c-3.9,3.8-8.7,6.7-13.7,9.2
		c-11.7,5.9-24.4,8.8-36.8,13.2c0.3-1.8,2.3-1.7,2.9-3.2c-0.7-1.9-1.4-4-1.4-6.2c0-2.4-0.9-4.5-1.7-6.6c-0.5-1.2-1.1-2.4-1.6-3.6
		c-1.9-4.2-3.5-8.4-3.3-13.2C804.9,420.7,804.9,418.6,803.8,416.1z M859.6,414.4C789.4,404,719.2,394,649.2,383.2
		c-1.2-0.2-2.4-0.3-3.6-0.4c-0.1,0-0.2,0.1-0.3,0.2s-0.1,0.2-0.4,0.5c1.1,1.7,0.7,3.8,0.8,5.7c10.8,2.2,208.4,32.9,211.3,32.8
		C856.6,418.9,856.6,418.9,859.6,414.4z M774.4,636.6c5.5,4.1,11.6,5,17.8,4.3c4.8-0.5,9.6-1.4,14-3.5c1.6-0.7,3.2-1,4.9-0.9
		c4.6,0.4,9,0.1,13.6-0.9c5.4-1.1,10-3.3,14.2-6.7c1.7-1.4,2.8-2.9,3.3-5c-0.6-1.4-1.1-2.9-2.2-4.1c-1-1.1-1.9-2.5-3.4-2.5
		c-3.6,0-7.3-0.6-10.8,0.1c-2.2,0.4-4.3,0.6-6.4,0.6c-2.3,0-4.3-0.2-5.2-2.8c-0.1-0.3-0.7-0.6-1.2-0.5c-1,0.6-0.6,2.3-2.1,2.3
		c-1.4-0.8-1.6-2.3-2.1-3.7c-0.9,2.8-0.9,2.8-2.8,4.3c-2.3-1.3-0.4-3.5-0.9-5.2c-0.6,0.2-0.8,0.6-1,1.1c-0.6,1.6-0.9,3.2-1.3,4.9
		c-0.6,2.3-2.5,4-4.2,3.8c-2.1-0.2-2.8-1.8-3.2-3.5c-0.6-2.5-2.1-4.5-3.2-6.9c-2.1-0.5-4-1.6-6-1.8c-1,0.3-1.1,1.7-2.2,1.2
		c-0.4-0.4-0.4-0.8-0.4-1.3c0-0.7-0.3-1.1-1.2-1.1c-1.2,3-2.8,6-2.4,9.6c0.3,2.9-0.7,5.7-1.8,8.4C777,630,775.8,633.1,774.4,636.6z
		 M807.7,416.8c-1.9,3.1-0.6,6.2-0.8,9.3c-0.1,2.5,0.7,4.8,2.1,6.8c3.1,4.4,4.8,9.2,5.1,14.5c0.1,1.5,0.4,3.1,1.1,4.5
		c4.2-1,7.9-2.8,11.8-4c6.3-1.8,12.3-4.2,18.3-6.8c4.3-1.9,8.3-4.4,12-7.4c3-2.3,3.3-3.8,1.7-7.2c-0.3-0.6-0.4-1.4-1.5-2.2
		C841.2,421.9,824.3,419.4,807.7,416.8z M641.2,398.4c1,5.4,3.1,10.4,6.7,14.6c3,3.5,6.1,6.9,9.3,10.2c1.7,1.8,2.8,4.2,5.1,5.5
		c6.4-5.9,9.7-7.9,18-10.5c3.1-1,5.3-2.9,6.7-5.7c1.9-4,4.4-7.5,7-11c0.5-0.6,1.4-1.1,1.1-2.2c-16.5-2.1-32.8-5.5-49.5-7.4
		C643.7,393.6,642.6,396,641.2,398.4z M748.5,395.5c3.7-11.2,2.8-22.7,2.2-34.2c2.6,7.5,2,15.3,2.2,23c1.4-5.1,1.2-10.3,1.3-15.5
		s-0.2-10.3-0.8-15.4c1.7,3.1,1.4,6.7,2.6,10.1c0-4.8-1.1-9.2-1.8-14c0.9,0.9,1.1,1.8,1.4,2.8c2.6,9.3,2.3,18.7,0.3,28
		c-0.8,3.6-1.7,7.3-1.6,11c0.5-1.1,0.9-2.2,1.2-3.4c1.3-5.2,2.1-10.4,2.6-15.7c0.8-8.5,0.4-17-2.5-25.1c-2.5-6.8-2.4-13.8-2.7-20.7
		c0-0.7-0.1-1.5,0.7-2c0.3,0.1,0.6,0.3,0.9,0.4c0.4-2,0.3-4-1.4-5.9c-1.4,2.1-1.8,4.4-2,6.6c-0.3,6.2-0.2,12.3,1.1,18.4
		c0.2,0.7,0.2,1.4,0.2,2.2c0,0.7,0.4,1.5-0.4,2.1c-1.8-5.5-2.6-11.1-2.8-16.8c-0.1-4.8,0-9.6,3.2-13.9c-1.5-0.5-2.6-1.1-4-1.2
		c-3.4,1.8-6.4,4.3-7.4,7.7c-1.7,6.1-3.5,12.4-2.4,18.9c0.6,3.1,0.8,6.2,1.2,9.4c0.3,2.9,0.9,5.7,1.7,8.5c1.2,4.6,2.4,9.1,3.7,13.7
		c1,3.8,1.9,7.7,2.8,11.6c1.2-10.6-1.3-20.9-1.7-31.4C749.5,368.2,752.2,381.7,748.5,395.5z M649.5,589.4c-3.4,4.5-3.5,9.3-3.8,14.3
		c8.5,4.1,16.9,5,25.2-0.5c0.7-4.5-1.1-9.2-0.8-14.1c0.9,0.3,1.4,0.5,2,0.7c0.5-0.8,1.1-1.6,1.6-2.5c0.4-0.8,0.4-2-0.3-2.3
		c-1.3-0.7-1.2-2-1.9-2.9c-0.8-1.2-1.4-2.6-3.1-2.7c-0.8,0.9,0.4,2.5-1.2,3.2c-1.5-1.5-1.1-3.5-1.1-5.2c-1.2-0.3-1.1,1.1-1.9,1
		c-2.6,0-5-1.3-7.3-1.1c-2,1-2.4,2.7-2.3,4.4c0.2,3.1-1.5,4.9-3.6,6.7C650.5,588.8,649.8,589.2,649.5,589.4z M651.6,539.2
		c0.8,3.8,0.2,7,1.3,10c2.6,6.9,4.2,14,4.6,21.4c0.1,1.4-0.5,2.9,0.2,4.5c2,0.4,4,1.3,6.2,1.3c0.7-0.7,1.7-1,2.2-2.3
		c-1.2-10.7,1.5-21.2,4.9-31.9C664.3,542.6,658.2,542,651.6,539.2z M590.3,374.9c-0.5-0.7-1.2-0.6-1.7-0.7
		c-12.9-1.9-25.8-3.8-38.7-5.7c-6.3-0.9-12.7-1.9-19-2.8c-1.9-0.3-3.4,0.3-4.4,1.9s-0.4,3,0.3,3.6c21.1,3.2,41.6,6.4,62.6,9.6
		C588.4,378.4,590,376.7,590.3,374.9z M673.1,463.9c-3,1.7-6,3.3-9.3,4.2c-1.8,0.5-2.7,2-3.5,3.5c-2.1,3.5-3.1,7.4-4.6,11.7
		c0.8-0.4,1.2-0.6,1.6-0.8c5.5-2.7,11.2-5.1,17.2-6.6c3.9-0.9,7.2-3.1,10.5-5.7C682.7,464.7,677.2,465.7,673.1,463.9z M600.1,382.6
		c5.5,0.6,10.7,1.9,16.1,2.2c-0.3-2.4-0.6-4.4-0.9-6.6c-2.8-0.4-5.4-0.8-8-1.2c-2.5-0.4-5-1-7.8-0.2c1.2-2,3.2-1.8,4.6-2.5
		c2.1,0.8,4.2,1,6.5,1.3c-3.5-4.4-12.1-5.5-16.3-2.3c-0.4,0.3-0.8,0.6-1.1,0.9c-3.4,3.3-2.6,8.6,1.7,10.6c2.2,1,4.5,1.7,7,1.9
		c1.7,0.1,3.3,0,4.8-1.2C604.2,384.9,601.5,385.5,600.1,382.6z M763.4,397.7c3.6,1,6.6,1.5,9.7,1.6c1.7-1.9,3.3-3.7,5-5.6
		c-1.1-1.1-2.1-2.1-3.3-2.6C771,393.3,767.5,395.3,763.4,397.7z M745.6,382.7c-1.2,2.5-3.4,3-4.7,4.6c0,2.4-0.5,4.8,0.3,7.1
		c1.8,0.4,3.5,1.1,5.4,0.6c0.2-2-0.4-3.7-1.7-5.1C746.2,387.9,746.3,385.8,745.6,382.7z M776.3,399.4c3,1.3,12.1,2.6,14.7,2.2
		c-2.8-1.4-5.9-1.3-8.7-2.2c-1-1.2-1.9-2.4-3-3.7C778.2,397,777.2,398.1,776.3,399.4z M739.1,388.5c-2.4,0.4-4.3,2-6.6,1.9
		c-0.4,1-0.6,1.7-1,2.6c2.3,0.9,4.5,1.1,6.8,1C738.6,392,738.8,390.4,739.1,388.5z M891.3,427.9c2.2-0.1,3.6,0.6,5.3,0.3
		c-0.5-1.4-0.1-2.8-1.1-3.9C893.9,425,892.8,426,891.3,427.9z M650.2,586.6c1.8-1.8,4.3-3.4,2.6-7
		C651.3,581.9,650.5,584.1,650.2,586.6z M729.2,391c-1.5,0.1-2.3,0.3-2.8,1.4C727.6,392.7,728.7,392.9,729.2,391z M745.9,407.8
		c-0.5-0.7-1-1.2-1.8-0.2C744.5,408.5,745,408.5,745.9,407.8z"/>
	<path d="M526.7,261.7c-4.1,0.1-8.2-0.9-12.7-0.6c-1.7,2.8-4.7,4.8-6.3,8.1c-0.9,1.8-2.7,2.4-4.3,3.2c-4.1,1.9-8.2,4.1-10.7,7.9
		c-5.8,8.6-14,14.6-22,20.9c-1.9,1.5-3.7,3.1-5.2,5.1c-1.7,2.2-3.9,4-6.2,5.6c-5.7,3.9-11,8.3-16.6,12.3c-0.7,0.5-1.3,1-2.1,1.4
		c-3.3,1.8-5.8,1.4-8.6-1c-3.7-3.2-6.7-7-9-11.3c-2-3.7-4.3-7.3-7.1-10.5c-3.4-3.9-5.4-8.6-5.8-13.8c-4.4,1.2-7.8-0.5-11-2.8
		c-5.4-3.8-7.9-9.4-9-15.6c-0.9-5.2-0.8-10.4,0.3-15.5c0.2-0.9,0.3-1.9,0.5-3.1c-4.9-0.8-9.7-1-14.5-1.2c-1,0-1.8,0.6-2.6,1.1
		c-1.7,1.1-3.5,1.7-5.7,1.1c-1.4-1-2.9-2.2-4.5-3.3c-2.2-0.2-4.4-0.3-6.5-0.5c-1,0.6-1,1.7-1.3,2.6c-0.7,2.9-1.6,5.8-2.7,8.7
		c-1.8,4.6-3.8,9.1-7.4,12.8c-2.6,2.7-4.8,5.8-6.4,9.3c2,4.9,2.9,10,2.5,15.5c-0.2,2.8,0.1,5.6,1.1,8.5c1.3-0.2,2.6-1.1,4-0.8
		c1.4,0.2,2.8,0.6,4.3,0.7c2.2,0.2,4.3,0.5,6.5,0.5c8,0,15.9,1.7,23.8,2.5c10.6,1.1,21.2,2.2,31.8,3.2c0.6,0.1,1.2,0,1.8,0
		c0.9-2,0.6-4.1,1.1-6.1c1.2,0.1,1.4,0.7,1.4,1.5c0,1.5-0.1,2.9-0.3,4.3c-0.9,6.6-2.1,13.1-4.2,19.5c-1.1,3.3-1.8,6.8-2.1,10.3
		c-0.2,2.4-0.6,4.8-1.2,7.2c-0.6,2.3-0.7,4.7-0.4,7.2c0.5,4.6-0.2,9.2-1.2,13.4c0.5,4.9,2.3,9.3,1.9,14.1
		c-0.4,5.2,0.4,10.4,1.7,15.5c2.3,8.8,5.4,17.3,8.5,25.8c1.8,4.9,2.4,10.1,3.2,15.3c0.8,5.4,1.3,10.8,0.2,16.3
		c-0.2,0.8-0.1,1.7-0.1,2.5c0.1,7.4,0.1,14.8-0.6,22.2c-0.5,4.9,0.5,9.7,0.8,14.5c0.2,2.5,0.4,5,0.5,7.6c0.1,2.2-0.2,4.4-1.7,6.3
		c1.1,2,0.3,4.2,0.8,6.3c1.9,7.5,4.2,14.9,5.7,22.5c1.7,9,3.9,18,5.1,27.1c0.1,1.1,0.3,2.2,0.3,3.3c-0.3,6.2,1.2,12.2,1.8,18.3
		c0.4,4.1,0.9,8.1,2.3,12.1c1.3,3.8,3.6,6.5,7.3,8c2,0.8,4,1.7,6.1,2.4c1.8,0.7,3.3,1.9,4.8,3.3c5.3-0.4,10.6,1.2,15.8,0.5
		c3.2,2.7,4.4,6.3,5.6,9.6c-0.3,3.7-2.4,5.6-5,7.6c-6.7,5.2-14.3,6.2-22.3,5.5c-2.7-0.2-4.8,0.4-6.9,2.2c-3.3,2.9-7.5,3.7-11.7,4.4
		c-2.7,0.4-5.5,0.7-8.2,1.5c-4,1.2-7.6-0.6-10.9-2.7c-0.9-4.2-0.4-8.2,1.4-12.1c1.1-2.5,1.5-5,0.7-7.7c-0.8-2.8-0.7-5.8-0.1-8.7
		c1-4.5,0.4-8.7-1.4-12.9c-2.9-7-5.3-14.3-8.1-21.4c-1.7-4.3-3.6-8.5-7.1-11.7c-0.9-0.8-1.3-2-1.8-3.1c-4.8-12.5-6.4-25.3-3.7-38.5
		c1-4.8,0.2-9.7,0-14.5c-0.1-1.7,0-3.3,0.4-4.9c1.1,0.2,0.9,1,1,1.7c0.5,4,1,7.9,1,11.9c0,2.2,0,4.4-0.3,6.5
		c-1.2,9.2-0.5,18.4,1.3,27.4c0.8,4,2.4,7.6,4.5,11c2.3,3.7,4.6,7.4,7,11.1c1.6,2.6,3.2,5.1,3.9,7.9c0.1,1-0.6,1.4-1.1,2.3
		c3.4,8.3,6.2,17.1,8.7,26.2c2.1,0.1,4,0.8,6,1c3.7,0.3,6.8,1.6,8.8,4.8c2-1.1,2.8-2.7,3.2-4.7c0.9-4.3,1-8.4-0.8-12.4
		c-0.6-1.4-0.9-3-1.1-4.6c-1.2-8.1-2.9-16.2-3.5-24.4c-0.6-7.4-2.4-14.8-3.7-22.2c-2-11.2-4.5-22.3-6.4-33.5
		c-1-5.6-2.4-11.4-1.3-17.2c0.4-2.2,1.5-4.2,0.9-6.6c-1.6-6.1-0.5-12.3-0.3-18.4c0.2-8.7,0-17.3-0.5-26c-0.5-8.6-2.1-17-3.8-25.4
		c-1.1-0.5-1.7,0.4-2.3,0.8c-3.4,2.2-7.2,3.6-11,4.6c-6.4,1.7-12.7,4-19.1,5.7c-4.9,1.3-9.8,2.5-15.2,1c0.4,3.8,1.3,7.4,2.3,10.8
		c4,13.3,9.5,26.1,16,38.4c3.1,5.9,4.3,12.3,5.3,18.8c0.1,0.5,0,1-0.9,1.6c-0.4-1.6-0.8-3-1.1-4.4c-0.6-3.2-1.7-6.3-3.2-9.2
		c-6.6-12.3-12.7-24.8-16.6-38.2c-2.1-7.2-3.9-14.5-4.9-21.9c-0.2-1.7-0.9-3.2-1.6-4.8c-0.8-0.6-1.5-1.1-2.7-0.9
		c-0.8,3.5-1.6,7-2.3,10.6c-2.4,11.1-6.9,21.4-11.8,31.5c-1.1,2.3-2.2,4.6-3.3,6.9c-1.6,3.3-2.9,6.6-3.1,10.3
		c-0.2,3.4-1.1,6.7-2.5,9.8c-1.4,3.2-2.3,6.5-2.8,9.9c-0.8-0.3-0.6-1.4-1.8-1.6c0,2.2,0,4.3,0,6.4c0.1,7.2-1.5,13.9-4.7,20.3
		c-1.3,2.6-2.7,5.2-3.8,7.8c-4.9,11-11.4,21.4-14.2,33.3c0.7,0.9,1.8,0.5,2.6,0.5c2.6-0.1,4.6,1.2,5.6,3.3c1.8,3.6,3.4,7.2,1.8,11.4
		c-0.5,1.3-1,2.4-2,3.4c-1.3,1.4-2.8,2.7-3.8,4.7c0.3,4.1,1,8.6-3.8,11.2c0,3.7-2.4,5.2-5.2,6.3c-7.4,3-14.6,2.6-21.5-1.6
		c-1.2-0.7-2.3-1.8-3.8-1.5c-1-1.7-0.5-3.3-0.1-4.8c1.2-4.6,2.5-9.1,3.8-13.6c0.7-2.4,1.3-4.9,1.5-7.4c2.5-3.4,4.4-6.9,5.2-11
		c1.9-9.6,3.1-19.3,3.9-29.1c0.9-10.8,1-21.8,4.1-32.4c1.2-4.2,2.6-8.3,5.1-12c1.4-2,2.1-4.4,3.1-6.5c4.5-9.3,4.9-19.4,6-29.3
		c0.3-2.5-0.3-5.1-0.4-7.6c-0.6-12.3-0.1-24.4,2.8-36.5c1-4.1,0.6-8.4,0.2-12.7c-0.9-9.3-0.1-18.2,2.6-27.3
		c2.2-7.2,5.2-13.6,10.4-18.8c5.8-5.9,9.9-13,14.1-20.1c2-3.4,2.6-6.9,1.6-10.8c-0.6-2.5-0.8-5-1.2-7.5c-0.5-3.3-1-6.7-2.1-9.9
		c-1.5-4.5-2.2-9.2-2.1-13.9c0.1-8-2.9-15.1-6-22.6c-3.6,3.2-6.6,6.4-9.1,10.1c-4.9,7.5-11.6,12.6-19.8,15.8c-1.9,0.7-3.2,2.1-5,2.9
		c-4.6,2.3-9.2,4.3-13.9,6.2c-1.5,0.6-3.1,0.7-4.6,0.4c-1.6-0.2-3.3-0.6-4.9,0.1c-0.5-0.6-1-1-1.2-1.6c-2.5-5.3-5.8-10.1-8.8-15
		c-1.4-2.3-3.1-4.3-4.6-6.5c-3.5-5.2-5.7-10.9-7.8-16.7c-1.3-3.6-2.7-7.1-4.5-10.6c-2.3-4.3-4.8-8.3-7.6-12.2c-1.5-2-2.1-4.6-2.6-7
		c-1.5-0.7-3-0.5-4.5-0.8c-6.6,4.4-12.8,3-19.1-1.5c-6.8-0.5-13.9-1.1-21-1.6c-13.3-1-26.6-2-39.9-3.1c-2.4-0.2-4.9-0.4-6-2.9
		c-0.5-3.6,1.3-5.6,4.6-7c20.8,1.5,42,2.9,63.4,4.4c4.6-4.8,10.3-3.1,15.9-2.3c2.1,0.3,3.3,1.8,4.1,3.5c0.8,0.3,1.6,0.6,1.9,0.2
		c1.6-2.3,4.3-2.3,6.5-3.4c1.5-0.8,3.4-1.9,4.8,0.3c3.3-0.6,6.5-2,10-1.3c0.9,2.7,3.8,3.7,5.1,6.4c2.6,0.2,5.4,0.5,8.2,0.7
		c18,0.7,36,2.3,54,3.6c2.9,0.2,5.8,0.2,8.7,0.6c5.9,0.9,11.3-0.3,16.4-3.3c1.4-0.9,3-1.5,4.6-2c4.6-1.3,8.1-4.2,11.1-7.6
		c0.4-3.3-0.1-6.2-0.9-9.2c-2.9-11-4.8-22.2-5.4-33.6c-0.4-7.9,1.6-15.4,4-22.8c0.8-2.4,5.8-7.2,8.7-8.5c1.2,0.4,2.6,0.8,3.9,1.4
		c1.4,0.5,2.7,1.1,4.1,1.7c0.2,0,0.4,0.1,0.6,0c8.6-2.3,15.7,1.2,22.9,5.5c3.3,2,5.6,4.8,8.1,7.5c4,4.3,4.2,9.5,3.9,15
		c-0.2,2.7-1.6,5-2.3,7.3c0.1,1.1,1.4,0.9,1.4,2.2c-0.3,0.2-0.9,0.7-1.6,1.2c0.5,7.5-3.1,14-5.5,20.8c-0.7,2-1.6,4-2.4,6.1
		c-2,1-4.2,1.7-6.8,2.4c-0.7,3.5-0.9,7.2-1,11.1c2.3,1.7,4,4.2,6.2,6.3c2.7,0.3,5.3,0.4,8,0.9c2.8,0.6,5.4,1.3,7.7,2.9
		c1.1,0.7,2.3,0.7,3.5,0.8c13,0.9,26.1,1.8,39.1,2.7c6.5,0.5,13,1,19.1,1.5c1.3-0.3,1.4-1.1,1.7-1.7c0.7-1.4,1.9-2.3,3.4-2.4
		c3.6-0.4,7.1,0,10.6,0.9c3.1-0.8,6.1-4.6,9.6-0.6c1.3-0.2,2.3-1.3,3.5-1.2c1.7,0.2,1.6,1.8,2.5,2.5c0.8-0.2,1.6-0.4,2.1-0.6
		c1.4-0.1,1.7,0.9,2.3,1.4c0.7,0,1.3-0.8,2.2-0.3c1.1,1.1-0.1,2.8,0.8,4.3c1.1,0.8,2.5,0.5,3.8,0.5c1.4-0.7,1.8-2.5,4-2.3
		c-1.2,1.7-2.5,2.9-3.3,4.4c-1.6,2.8-1.8,5.5-0.4,8.3C526.6,260.3,527,261,526.7,261.7L526.7,261.7z M382.6,177.5
		c0.3-1.2,0-2.4-0.3-3.7C382.3,175.1,382,176.3,382.6,177.5c0.4,2.1-0.2,4.5,1.6,6.4c-0.1,0.8,0.5,1.7-0.3,2.4
		c-1.3-1.4-1.1-3.4-2.3-4.8c-0.5,1,0,1.9,0.2,2.8c2.9,12.1,2.7,24.2-1.2,36.1c-1,3.1-2.2,6.2-4.3,8.7c-2.3,2.8-3.6,6.1-5.6,9.4
		c4.6-0.2,8.7,1,12.8,0.6c3.2-3.8,7.9-5.3,11.2-8.6c-0.7-1.6-2.4-2.3-2.9-4.1c2.2,0.4,3.2,2.4,5.4,2.7c0.4-3.3,0.5-6.4,1.2-9.5
		c0.6-2.9,0-6.1,1.8-9.1c1.6,2.8-0.5,4.6-0.7,6.6c5.2,1.3,6.3,0.7,8.4-3.7s3.4-9,4.6-13.7c0.6-2.2,1.6-4.5,1-6.7
		c-0.8-3.2-0.2-5.9,1.1-8.7c0.4-1,0.9-2,0.8-3.1c-0.3-3.7-0.6-7.5-0.9-11.2c-0.1-0.6-0.2-1.2-0.6-1.7c-2.2-3-4.2-6.3-8-7.7
		c-0.1-0.2-0.2-0.4-0.4-0.5c-0.6-0.8-1.3-1.5-2.4-1.5l0.1,0.1c-4.7-4.1-15.7-6.4-19.7-3.8c5.7,1.5,10.4,4.5,14.7,8.2
		c-0.5,0-1,0-1.5,0.1c-2.8-2.5-6.4-3-10.3-4.7c1.4,2,3.2,2.3,3.7,4l0.1-0.1c-2.7-0.2-4.7-2.3-7.3-2.9c-0.6-0.7,0.8-1.5-0.3-2.7
		c-0.1,1.2-0.8,2,0.4,2.6c0.1,1.3,1.3,1.6,2.1,2.3c2.1,2,4.2,3.9,6,6.1c-3.5-1.7-5.8-4.9-9.2-6.6c2.1,2.6,4.2,5.1,6.1,7.9
		c3.2,4.8,4.3,6.8,4.3,9.2c-3.5-5.7-7.2-10.6-11.6-14.9c1.1,1.6,1,3.4,1.5,4.8c0.5,0.8,1.3,0,2.1,1.5c0.5,4.3,0.4,9.6,2.4,14.5
		l0.1-0.1c-0.9,0.8-0.9,1.8-0.5,2.9c0.4,1,0.4,2,0.4,3.1l0.1-0.1c-1.2-0.8-1.4-2.1-1.6-3.4c-0.1-0.8,0-1.7-0.8-2.2
		C384.1,181.7,383.6,179.5,382.6,177.5z M369.7,237c-1.2-1.5-2.1-3-1.6-5c0.4-1.8,0.3-3.7-0.3-5.7c-1.7,1.5-3.2,2.8-4.9,4.2
		c0.3,2.3-0.2,4.7,0.7,7c1.7,0.6,3.4,0.5,5.1,0.6C369.5,238.2,369.7,237.6,369.7,237c1-0.2,1.2-0.9,1.1-2.3
		C370.3,235.7,369.6,236.1,369.7,237z M257.6,227.4l0.1,0.1c0.1-1.1-0.6-1.1-1.4-1.1c-1.9,0.1-2.9,1.5-4.3,2.6
		c-2.7-2.5-3.8,0.8-5.9,1.8c0.1-1.8,1.7-2.5,1.7-4c-1.1-0.1-2-0.2-2.9,0.5c-1.1,1.5-1.4,3.8-3.1,4.7c-1.2-0.6,0.3-1.5-0.7-1.8
		c-1,1.1-2.3,1.8-2.8,3c0.4,1.3,0.8,2.4,1.1,3.6c1.3,4.2,2.7,8.2,5.9,11.5c1.8,1.8,3.2,4.2,3.9,6.8c0.2,0.8,0.6,1.6,1.1,2.3
		c3.7,4.5,5.3,10,6.9,15.5c1.3,4.5,3.2,8.6,5.9,12.4c4.9,7,10.5,13.6,14,21.4c2.9,0.5,5.5,1.6,8.1,0.7c3.3-1.1,6.8-2.2,9.5-4.5
		c2.9-2.5,6.3-3.9,9.7-5.5c6.2-2.9,11.6-7,16.3-12c4.2-4.5,8.3-9,12.6-13.7c-1.1-4-1.5-8.3-1.3-12.6c2.9,6.5,3.4,13.8,6.6,20.4
		c0.8-2.9,3-4.7,4.6-6.9c1-1.4,2-2.7,3-4.1c4-5.9,5.9-12.6,7.8-19.7c-10.8-0.9-21.3-2-31.7-2.5c-0.8,1.1-1.5,2-2.1,2.9
		c-2.9,4.5-5.6,9.1-8.8,13.3c-1.7,2.2-3.1,4.6-5.8,5.7c-5.1,2.1-9.5,5.3-13.4,9.2c-1.4,1.5-3.1,2.6-4.8,3.2
		c-1.1-0.3-1.7-0.9-2.3-1.5c-4-4.2-8.1-8.3-12.9-11.7c-1.5-1-2.7-2.5-3.5-4.1c-2.3-4.3-4.6-8.5-5.7-13.4c1.3-1.6,1-3.9,2.2-5.7
		c1.9-2.8,1.5-5.7,0.2-8.6c-0.9-1.9-2.2-3.7-2.6-5.9c0-0.2-0.4-0.2-0.6-0.4c-0.8,0.1-1.2,1.6-2.4,0.7c-0.2-0.7,0.7-0.9,0.7-1.5
		C259.7,227.8,258.8,227.4,257.6,227.4z M502.7,243.5c-0.3,0-0.8-0.2-1,0c-3.1,2.1-6.6,3.5-9.6,5.8c-0.9,0.7-1.8,1.6-3.3,1.2
		c0.5-1.3,1.8-1.8,1.8-3.2c1.9-0.3,3.8-0.6,4.6-2.8c-2.6-0.1-5.1-1.2-7.6-0.5c-2.3,2.9-4.5,7.2-4.8,9.6c1.9,4,4.5,7.9,2.9,13.1
		c-4,4.5-9.1,8-14.4,11.2c-10.9,6.5-23.2,10-34.7,15.8c0.7-1.8,2.5-2.4,3.5-3.8c-1-1.9-1.9-3.9-2.1-6.1c-0.2-2.3-1.2-4.2-2.1-6.1
		c-0.7-1.4-1.5-2.7-2.3-4.1c-2.3-4-4.1-8.2-4.3-12.9c-0.1-2-0.4-4.1-1.3-6c-11.5-0.8-22.8-2.7-34.2-2.9c-0.3,0.5-0.5,0.7-0.5,0.9
		c-2.2,8.9-1.5,17.6,2,26c2.2,5.2,8.1,8.6,13.7,8.2c-0.6-2.2-1.3-4.4-1.7-6.7c-0.4-2.2-1.6-4.4-0.5-7c0.4,0.6,0.8,0.8,0.8,1.2
		c1.3,5.7,3.2,11.2,5.2,16.6c0.1,0.3,0.4,0.7,0.3,1c-0.7,2.3,0.8,4,1.9,5.6c1.4,2.1,3.1,4,4.8,5.9c2.1,2.4,3.8,5,5.5,7.6
		c0.8,1.2,0.1,2.5,1.1,3.6c2.1,2.5,4,5.1,6.6,7.3c2.9,2.5,6.1,2.6,9.3,0.3c3.5-2.6,7.2-5,10.5-7.8c3.8-3.2,7.5-6.5,10.9-10.1
		c2.2-2.3,4.3-4.6,6.9-6.4c7.6-5.3,14.4-11.4,20.6-18.3c3.2-3.6,6.9-6.8,11.3-8.9c1.1-0.5,1.9-1.4,2.8-2.3c4.7-5.2,8.7-11,14-15.5
		c0.1-2.1,1.4-4,0.5-6.3c-0.6,0.6-1.4,0.6-1.7,1.5c0.2,0.5,0.3,1,0.6,1.8c-4-0.2-4.8,4.5-8.3,5.4c-0.2-1,0.3-1.4,0.7-1.8
		c1.8-1.8,3.6-3.6,5.4-5.4c0.9-0.9,1.6-1.8,0.4-3c-2.4-0.3-3.5,1.3-4.3,2.5c-0.5,1.1,1,1.6-0.1,2.3c-0.7-0.2-1.3-0.3-1.9-0.4
		c-2,0.7-2.4,3.4-4.9,3.8c0.4-5.1,4.9-6.2,7.5-9c-1.7-2.2-3.1,0.5-4.9,0c-1.5-1.4-3.4-2-5.5-0.3L502.7,243.5z M305.6,580.6
		c0.5-0.8,0.7-1.8,0.9-2.7c2.1-10.1,5.6-19.8,10.3-28.6c0.3-1-0.8-1.2-0.3-2.2c4-6.3,7.6-13.2,11.1-20c1-2,1.6-4,2-6.2
		c1.2-5.5,1.6-11,2.2-16.5c0.1-1.3,0.1-2.8,1-3.8c3.2-3.6,4.3-8.1,5.2-12.5c0.9-4.7,1.8-9.4,3.4-14c1.7-5.2,3.8-10.2,6.1-15.1
		c4-8.7,8.4-17.2,10.2-26.7c0.2-0.8,0.8-1.6,0-2.4c-4.6,0.9-9.3,1.6-14,0.6c-3.6-0.8-7.2-0.8-10.8-0.7c-4.6,0.1-8.8-1.2-12.6-3.9
		c-0.6-0.4-1-1.4-2.1-1c-0.1,0.5-0.1,1-0.2,1.4c-1.2,14.9-1.7,29.7-2,44.6c0,1.4-0.1,2.9-0.5,4.3c-2,7-4.9,13.7-7.6,20.3
		c-3.2,7.7-5.4,15.5-6.9,23.6c-0.8,4.3-2.1,8.6-2.2,12.9c-0.1,4.7-0.1,9.4-0.4,14.1c-0.6,9.2-1.5,18.3-4.4,27.2
		c-0.6,1.7-1.3,3.4-0.9,5.3c0,0.2-0.2,0.4-0.3,0.6c-0.6,0.6-1.3-0.7-2,0.1c-3.1,7.9-4.2,16.6-8.1,23.8c0.4,2.4,1.4,3.8,3.3,4.5
		c6.3,2.4,12.8,2.4,19.2,0.7c1.8-0.5,3.3-1.6,4.1-3.3c1.6-3.6,4.3-6.8,4.6-10.9c0.2-3.7,2.2-6,5.5-7.1c1.6-6,0.7-8.8-4.3-13.9
		c-1.5-0.2-3-0.5-4.6-0.7c-0.6,1.9-1.2,3.6-1.8,5.4c3.5,4.8,0.3,9-1.1,13.9c-1.4-3.3-2.8-6.1-2.8-9.4
		C305.5,582,305.7,581.4,305.6,580.6z M359.5,423.3c-2-1.1-3.4-3.2-5.3-4.4c-3.2,0.9-6.1,2.1-9.7,2.6c2.7-2.4,5.9-3,8.6-4.4
		c-4.5-9.6-5.2-18.4-2-23.3c0.3,3.9,0.5,7.8,0.8,11.6c0.3,4,1,7.9,3.1,11.2c4.4,2.7,8.1,6.1,13.1,7.3c4.9,1.2,9.8,0.4,15.3-0.1
		c-5.3,3.4-10.8,1.6-16,2.2c0.4,2.2,0.7,4,1,5.6c8.7,0.7,17-0.7,25-3c7.8-2.3,16.1-4.1,22.7-9.9c-3.4-10.7-7.4-21-10.2-31.8
		c-1.4-0.5-2.9-0.3-4.3-0.3c-1.3,0-2.6,0-3.9,0c2.7-1.2,5.4-1.6,8.3-1.3c1-4.6,2.1-9,0.4-13.6c-5.6,0.6-11.1-0.1-16.5-0.2
		c-6.2-0.1-12.3-1.2-18.3-2.5c-7.7-1.6-15.3-3.9-23.2-4.1c-6.1-0.1-12-1-17.6-3.3c-6.3,9.3-16.2,31.1-10.4,50.7
		c-2,2.3-1.5,5.3-2.1,7.9c4.3,3.9,9.8,6.5,15,7.2c4.9,0.6,9.9,1,14.8,1c3.1,0,6.3,0,9.3-0.9C358.4,426.4,359.6,425.4,359.5,423.3z
		 M415.2,314.6c-0.9-0.1-1.4-0.3-1.9-0.3c-7.5-0.4-15-0.8-22.5-1.1c-4.4-0.2-8.7-0.6-13-1.1c-4.9-0.6-9.6-2.5-14.6-2.7
		c-6.6-0.3-13.2-0.8-20.1-1.3c2.2,6.6,3,13.3,4.4,19.8c0.8,3.9,1,7.8-1,11.3c-1.8,3.3-3.6,6.5-5.9,9.6c-2.6,3.4-4.9,7-7.4,10.5
		c3.9,1.8,7.8,2.4,11.8,2.6c5.1,0.3,10.1,1,15.1,1.9c13.4,2.5,26.9,5.2,40.6,5.3c1.6,0,3.3,0.5,5,0c0.5-3.8,1.2-7.4,1.3-11
		c0.2-6.4,0.9-12.8,1.7-19.2c0.4-3.3,1.2-6.5,2.6-9.4C413.8,324.9,414.2,319.9,415.2,314.6z M268.1,239.9
		c71.4,5.3,142.5,10.6,213.7,16.7c0-1.8-1.3-2.8-0.9-4.2c0.3-1.4,1.5-2.4,2.2-4c-72.4-5-144.5-9.7-216.8-15.2
		C267.3,235.7,268,237.7,268.1,239.9z M268.4,242c-1.4,2.7-2.7,5.2-4.1,7.8c1.6,5.8,4.4,11,8.8,15.1c1.8,1.6,3.5,3.3,5.3,5
		c3.1,2.9,6.2,5.7,9.4,8.7c4.9-5.7,10.6-9.9,17.6-12.4c2.9-1,4.8-3.3,5.8-6.1c1.5-4.1,3.7-7.8,6.1-11.5c0.5-0.8,1.5-1.3,1.1-2.6
		C301.8,244.6,285.1,243.3,268.4,242z M414.9,639.5c2.4,2.2,5.2,2.9,8.2,2.4c4.5-0.6,9.1-1.1,13.6-2.3c1.3-0.3,2.3-0.9,3.3-1.9
		c2.9-2.9,6.2-5.3,10.8-4.5c1.5,0.3,3.1,0.3,4.7,0.4c0.8,0,1.8,0.3,2.5,0c2.6-1.3,5.6-1.4,8.3-2.5c2.3-0.9,4.5-1.8,6.5-3.2
		c3-2.1,3.7-5.1,1.8-8.2c-0.9-1.5-1.6-3.2-3.2-4.4c-3.4,0.1-6.7-0.5-9,0c-8.8-1.1-15-5.8-22-8.9c-0.3,1.8-0.3,3.4-0.1,4.9
		c0.5,4.2-2.1,8.1-6.6,9.9c-2-2.1-3.5-5.1-6.8-5.9c-3.2-0.8-6.3-1.2-9.5-0.9c-0.8,1.1-0.7,2-0.7,3.2c0.2,3.2,1.6,6.4,0.4,9.7
		C415.7,631.2,414.8,635.2,414.9,639.5z M482.7,258.4c-17.1-1.2-34-2.4-50.8-3.6c-1.7,3.4-0.3,6.4-0.1,9.5c0.2,2.5,1.3,4.6,2.9,6.5
		c3.1,3.8,5.2,8.1,5.9,13c0.3,1.8,0.8,3.5,1.5,5.1c4-1.3,7.6-3.5,11.4-4.9c5.2-2,10.2-4.5,15.1-7c5.2-2.6,10-5.9,14.2-10
		c2.4-2.4,2.6-4,0.9-7.1C483.5,259.5,483.2,259.1,482.7,258.4z M378.7,186.1c1.3,3,1.7,6.2,1.9,9.5c0.5,8-1,15.6-3.1,23.3
		c-0.7,2.7-1.6,5.4-1.8,9c2.1-4.4,2.9-8.4,3.8-12.4c2.3-10,2.9-20.1,1-30.2c-0.6-3-1.9-5.7-2.1-8.8c-0.2-5.2-0.3-10.4,0.1-15.6
		c0.1-1.1,1.7-0.6,1.8-2.2c0-0.1,0.1-0.7,0-1.3c-0.2-0.9-0.5-1.8-0.9-2.9c-1.9,1.7-2.2,3.7-2.6,5.7c-1.7,8.8-0.4,17.5,0.3,26.3
		c-0.2-0.2-0.5-0.3-0.5-0.5c-1.4-6.4-2.4-12.8-2.1-19.4c0.2-4.8,0.8-9.3,3.9-13.3c-1.5-0.8-2.7-1.5-4.2-1.3c-4.7,2.5-7.8,6-8.7,11.4
		c-0.2,1.4-0.8,2.8-1.2,4.2c-0.8,2.8-1.3,5.7-1.1,8.6c0.3,4.9,0.5,9.9,1.2,14.8c1.5,10.2,4.4,20.2,5.6,30.5
		c2.2-9.8-0.1-19.6,0.5-29.4c1.2,6.8,2.1,13.6,2.1,20.5c0,7-1.5,13.8-3.4,20.5c4.8-11.2,5-23.2,5-35.1c1.7,7.2,1.3,14.4,0.7,21.7
		c1.6-5,1.8-10.1,2.3-15.2c0.5-5.2,0.4-10.3-0.4-15.7c0.4,0.3,0.7,0.4,0.8,0.6c1.1,2.2,0.4,4.7,1.2,7.7
		C379.5,192.8,378.7,189.5,378.7,186.1z M215,229.6c-2-0.2-3.6-0.4-5.3-0.5c-10.4-0.7-20.7-1.4-31.1-2.1c-7.8-0.5-15.7-1.1-23.5-1.6
		c-1.9-0.1-3.3,0.6-4.2,2.2c-0.9,1.7,0,3,0.7,3.6c21.3,1.6,41.9,3.1,62.8,4.7C213.6,233.6,214.9,231.9,215,229.6z M235.2,228.9
		c-0.9-1.2-1.8-1.8-3-2.2c-2.6-0.9-5.3-0.7-7.9-0.7c-2.5,0-4.4,1-6.1,2.7c-3.6,3.7-2.3,9.4,2.7,11c2.2,0.7,4.5,1,6.8,1.1
		c1.6,0,2.9-0.3,4.2-1.5c-2.3-0.5-5,0.4-6.4-2.3c4.2-0.3,8.2,1,12.5,0.4c-0.4-2.2-0.8-4.3-1.2-6.3c-4.2-0.1-8.1-1.1-12.2-0.3
		c0.9-1.8,2.9-1.7,4.1-2.5C230.8,229.1,232.9,229,235.2,228.9z M395.8,239.9c1.5-2,2.9-3.9,4.3-5.7c-1-1.4-2.1-1.9-3.4-2.4
		c-3.3,2.3-6.7,4.6-10.4,7.2C389.7,240.1,392.8,239.8,395.8,239.9z M515.6,258.8c3.2,0.6,5.9,0.8,8.9,0.7c-0.5-1.6-0.7-3-0.9-4.4
		c-0.2-1.5,2.4-2,1.2-3.8c-1-0.2-2-0.5-3.3,0C520.8,254.3,517.9,255.9,515.6,258.8z M399.1,240.5c5.3-0.1,10.3,0.9,15.5,0.6
		c-3-1.7-6.4-1-9.4-1.9c-1.5-0.9-2.1-2.5-3.9-3.3C400.8,237.6,399.4,238.5,399.1,240.5z M360.8,232.1c-1.3,0.4-2.5,0.9-3.4,1.7
		c-0.2,1.2-0.5,2.3,0.2,3.3c1,0.5,2,0.6,3.2,0.1C360.8,235.6,360.8,233.9,360.8,232.1z M355.1,236.8c0-0.9,0.5-1.6-0.3-2.4
		c-1.8,0.6-4.1,0.1-5.9,2.4C351.1,236.8,352.9,236.8,355.1,236.8z M421.5,506.8c1.6-4.4,1.7-6.4,0-8.7
		C421.5,501.1,421.5,503.6,421.5,506.8z M369.4,250.5c-1.1-0.4-1.1-0.4-1.3,0.7C368.7,251.4,369.2,251.3,369.4,250.5z"/>
	<path d="M536.9,259.5c-2.7-2.5-2.6-6,0.2-7.9c1.2-0.8,2.6-1.3,3.8-1.8c3,0,5.7,1.6,8.9,0.9c-2.6-2.7-5.2-4.5-9-4.5
		c-3.4,0.1-6.7,0-10.8,1.1c6.3-4.7,17.8-2.4,21.1,3.7c4.3,0.3,8.7,0.7,13.2,1c27.3,1.9,54.6,3.8,81.9,5.7c4.2,0.3,8.5,0.6,12.7,0.8
		c2.7,0.2,5.2,0.8,7.5,1.6c2.4,6.2,0.1,10.2-6.1,11.3c-1.6,0.3-3.1,0.4-4.7,0.3c-15.4-1.2-30.9-2.4-46.3-3.6c-17-1.3-34-2.6-51.1-4
		c-2.8-0.2-5.6-0.3-8.3-0.6c-1.2-0.1-2.1,0.3-2.9,1l-0.1-0.1c0-0.4-0.1-0.7-0.2-1.1c-1.9-0.4-3.7-0.4-5.7,0.1
		C539.5,262.4,537,262.2,536.9,259.5c1.1,1,2.6,1.4,4.2,1.5c10.4,0.7,20.8,1.5,31.1,2.3c24.7,1.9,49.5,3.8,74.2,5.7
		c4.1,0.3,8.2,0.6,12.3,1.1c3.2,0.4,5.4-0.7,6.6-3.6c1.2-2.8-0.9-6-4.4-6.1c-0.8,0.2-1.9,0.5-2.9,0.8c-0.4-0.3-0.7-0.8-1-0.9
		c-39.3-2.8-78.7-5.5-118-8.2c-0.2,0-0.5,0.1-0.7,0.2c-0.9,0.6-1.7,1.3-2.2,2.6C536.4,256.4,536.7,258,536.9,259.5z"/>
	<path d="M526.7,261.7c1.6-0.3,1.6,1.6,2.8,1.9c5.8,1.5,11.6,2.8,17.6,0.9l0.1,0.1c-1.2,1.8-3,2.1-5,2.1c-2.8,0-5.5,0.1-8.3-0.1
		C530.6,266.4,527.8,265.1,526.7,261.7L526.7,261.7z"/>
	<path d="M402.7,499.8c-1.3-2.1-2.2-4.2-2-7.3C403.2,494.9,402.8,497.4,402.7,499.8z"/>
	<path d="M432.4,599c1.4,2.6,2.4,5.2,1.7,8.8C432.8,604.7,432.6,601.8,432.4,599z"/>
	<path d="M429.6,610.8c2.1-0.4,3.8-0.1,5.4,1C433.9,613.9,433.2,613.8,429.6,610.8z"/>
	<path d="M403.3,501.9c1.1,2.5,0.4,5,0,7.6C403,507,402.3,504.5,403.3,501.9z"/>
	<path d="M645.7,435.5c-2.5-1.5-3.2-3.5-4.1-5.6C643.7,431.1,644.3,431.9,645.7,435.5z"/>
	<path d="M682.6,438.7c1.8-0.5,3.4-1.3,5.8-1.1C686.4,439.6,684.5,439.4,682.6,438.7z"/>
	<path d="M621.5,385.2c0.8,1.8,1.5,3.5,2.3,5.3C621.1,389.7,622.1,387.1,621.5,385.2z"/>
	<path d="M619.8,380.1c1.1,0.8,0.9,1.8,0.8,3C618.9,381.5,618.9,381.5,619.8,380.1z"/>
	<path d="M419.7,492.9c-1-1.6-0.5-3.1-0.3-4.7C419.8,489.8,420.3,491.3,419.7,492.9z"/>
	<path d="M628.9,385.7c-1.4-1.2-1.8-2.4-1.9-4.3C628.6,382.7,628.6,384,628.9,385.7z"/>
	<path d="M636.6,392.8c-1.1,0.7-1.8,0.2-2.5-0.6C635.3,391.1,635.8,392.4,636.6,392.8z"/>
	<path d="M428.3,578.1c-0.8-0.9-1.2-1.5-0.9-2.5C428.5,576,428.2,576.9,428.3,578.1z"/>
	<path d="M430,588.1c1.1,0.6,0.6,1.2,0.6,1.9C429.3,589.4,429.5,588.8,430,588.1z"/>
	<path d="M645.9,436.7c1-0.2,1.2,0.4,1.4,1.5C646.4,437.9,645.8,437.7,645.9,436.7z"/>
	<path d="M635.7,418.9c0.7,0.5,1.1,1.2,0.9,2.1c-0.6,0.1-0.7-0.5-0.8-0.8C635.5,419.9,635.3,419.4,635.7,418.9z"/>
	<path d="M706.5,410.9c0.8,0.2,0.9,0.6,0.6,1.4C706.2,412.1,705.9,411.7,706.5,410.9z"/>
	<path d="M633.7,379.9c0.6,0.5,1.3,1,0.9,2.1c-0.8,0.3-0.9-0.4-1.2-0.8C633.2,380.8,633.2,380.3,633.7,379.9z"/>
	<path d="M706.3,405.8c0.8,0.5,0.9,0.9,0.2,1.4C705.8,406.9,706,406.5,706.3,405.8z"/>
	<path d="M654.9,442.4c-1.3,0-1.8-0.2-1.7-0.9C653.9,441.1,654.1,441.8,654.9,442.4z"/>
	<path fill="none" d="M749,547.2c-1.3,1.4-2.8,2.2-4.7,2.3c-2.5,0.2-5.1,0.5-7.6,0.9c-1.6,0.2-3.4-0.1-4.4,1.7
		c-0.3,0.4-1.3,0.5-2,0.6c-3.6,0.4-7.2,0.3-10.8,0.1s-7.1-0.3-10.6-1.1c-6.4-1.4-12.7-3-19-4.6c-3-0.8-5.9-2-8.5-4
		c-3-2.3-6.5-3-10.2-3.2c-3.1-0.1-6.3-0.2-9.4-0.4c-10.1-0.6-21.6-11.7-21.8-23.7c-0.1-4.9,0.4-9.5,3.5-13.7
		c3.3-4.5,6.2-9.2,10.3-13.1c2.8-2.7,5.8-4.7,9.6-5.5c1.5-0.3,3-0.9,4.4-1.3c0.9,0.7,1.1,1.7,1.6,2.5c2.4,4,5.6,6.6,10.5,6.8
		c2,0.1,3.7,0.9,5.7,1.2c3.3,0.5,6.6,0.3,9.8-0.1c7.4-0.8,14.8-0.1,22.1-0.1c4.7,0,9.4,1.2,13.9,2.3c3,0.7,5.1,3.2,7.9,4.6
		c-0.4,1.5-2.4,2.9-0.2,4.7c1.7-0.4,3.7-0.8,6-1.3c2.7,2.5,4.6,5.9,6.7,9.1c3.3,5.4,4,11.2,3.2,17.3c-0.2,1.4-0.4,2.9-0.6,4.3
		c-0.5,4.1-1.6,8.1-4.4,11.3c-0.5,0.6-1.1,1.3-1,2.2V547.2z M732.5,517.1c1.8-3.7,3.8-7.2,4.6-11.3C735,508,732.7,513.9,732.5,517.1
		z M733.4,506.2c2.1-0.1,2.7-1.8,3.9-3.2c-1.9-0.9-3-2.7-5.2-2.3c-0.1,1,1.1,1.1,0.7,2c-0.3,0.7-1.4-0.1-1.7,0.8
		c1.1,0.4,2.3-0.2,3.2,0.6C734.4,505,733.2,505,733.4,506.2z M744.7,506.5c0,2.7,0,4.6,0,6.5C745.1,511.1,745.3,509.3,744.7,506.5z
		 M674.5,538c0.4-1.3-0.2-1.6-0.9-2C673.1,537.2,674,537.3,674.5,538z"/>
	<path fill="none" d="M802.7,609.7c-0.1,1.1,0,2.2-1.4,3.1c-0.8,0.6-1.9-1.4-3-0.2c-0.6,0.6-0.9,1.1-0.7,1.8
		c0.5,0.6,1.1,0.5,1.7,0.5c0.6,0,1.1-0.5,1.9,0.1c-0.6,1.5-0.1,3.5-2.3,4.4c-2.1-2.5-1.8-6.1-4.5-8.2c-2.3-1.9-4.6-3.7-7.8-4
		c1.4-7.6,1.6-14.9,2.5-22.2c0.7-6,0.9-12,0-18.1c-1.1-7.2-0.9-14.4,1.7-21.5c1.8-5,3.4-10.1,4.6-15.3c5-3.9,11.3-5.5,15.8-10.1
		c-1.2-0.9-2,0.3-2.9,0.6c-5.2,1.6-10.3,3.5-14.8,6.6c-1.9,1.3-4.2,1.8-6.3,2.8c-6.1,2.8-11.8,6.1-17.4,9.8
		c-6.4,4.2-13.5,6.8-21,8.7c0-0.6,0-1,0-1.3l-0.1,0.1c0.7,0,1.4,0,2.1,0c8.4-11.7,10.1-30.5-2.7-45.1c9.2-2.3,17.6-6.5,26.5-9
		c1-0.3,2.1-0.4,3.2-0.4c8-0.4,16-0.8,23.9-0.9c5-0.1,9.9,0.8,13.9,4.1c1.7,1.5,3.9,2.2,5.6,3.9c2.6,2.5,3.9,5.4,4.4,8.9
		c0.5,3.6,0.9,7.2,0.9,11.1c-1.8,0.5-1.5,2.2-1.5,3.7c0,6.7-0.6,13.3-1.6,19.9c-1.4,8.5-3.2,16.9-7,24.7c-4.4,9.2-6.9,19.1-9.8,28.8
		c-1.3,4.4-2.2,8.9-4.3,12.9c-0.5-2.6,0.5-5.4-1.1-7.8c-0.5,2.7-0.4,5.3-0.2,8.2C802.1,609.9,802.4,609.8,802.7,609.7z M803,592.7
		c-1.5,2.3-2,4.8-0.8,7.9C803.4,597.9,803.9,595.4,803,592.7z M819.3,526.7c-0.6,3.2-1.1,6.4-0.3,9.6
		C819.8,533.1,820.6,530,819.3,526.7z M817.8,542c-1.5,3.4-1.5,3.4-1,5.8C817.5,546.1,818.3,544.5,817.8,542z M815.3,520.9
		c-0.8-1.1-1.4-1.7-2.5-0.8C813.3,521.1,814.1,521.4,815.3,520.9z M812.6,556.7c1-0.8,1.5-1.5,1.2-2.5
		C812.6,554.7,812.8,555.6,812.6,556.7z M803,589c-0.6,0.9-0.6,1.5,0,2.3C803.6,590.5,803.6,589.8,803,589z"/>
	<path fill="none" d="M803.8,416.1c1.1,2.5,1.1,4.6,1,6.6c-0.2,4.8,1.4,9,3.3,13.2c0.5,1.2,1.1,2.4,1.6,3.6c0.9,2.1,1.7,4.2,1.7,6.6
		c0,2.2,0.8,4.3,1.4,6.2c-0.6,1.6-2.6,1.5-2.9,3.2c12.3-4.4,25.1-7.3,36.8-13.2c5-2.5,9.8-5.4,13.7-9.2c1.7-3.9,0.5-7.5-1-11
		c-1.1-2.5-1-4.6,1.1-6.5c1.5-1.4,1.9-3.6,3.5-4.9c2.7-0.2,5.1,0.7,7.5,1.5c-1,1.7-2.6,2-4.5,2c-0.5,1.1-1.3,2.1-2.3,3
		c2.8,0.4,4.7-1.5,6.8-2.7c2.2-1.3,5-1.2,6.7-3.5c1,0.9,1.7,1.6,2.7,2.6c-1.7,1.1-3.9,1.4-5,3.4c1.7,1.1,2.8-0.3,4-0.6
		c1.4-0.4,2.8-0.9,3.4-2.5c-0.8-1.2-2.6-1.3-3.2-2.8c1.9-0.4,3.4,0.3,4.5,1.4c1.7,0.5,3-1.3,4.8,0.1c-2.5,3.1-7.7,3.5-8.2,8.5
		c2.6,0.3,3-2.6,4.3-2.9c1.4-0.6,1.9,0.6,2.9,0.2c0.6-0.6-0.2-1-0.2-1.7c1.2-1.5,2.4-3.1,4.9-2.6c0.9,1.1,0.5,2-0.5,2.8
		c-2,1.7-4,3.5-6.1,5.2c-0.4,0.4-1,0.7-0.7,1.7c3.3-0.6,4.6-5,8.3-4.8c0.8-0.7-0.5-1.3-0.1-2c0.4-0.6,1.1-0.8,2-1
		c0.3,2.2-0.7,4.2-1.3,6.2c-5.6,4.1-10,9.4-15.1,14.1c-0.7,0.7-1.3,1.4-2.2,1.8c-6,2.3-11,6.2-15.4,10.6c-5.1,5.1-11,9-17.1,12.8
		c-3.6,2.2-6.9,4.8-10.1,7.6c-4.1,3.5-8.3,7-13,9.8c-3.2,1.9-6.3,4-9.5,6c-2.9,1.8-6.2,1.4-8.6-1c-2.4-2.4-4.3-5.2-6.2-8
		c-0.8-1.2-0.1-2.4-0.8-3.7c-1.6-2.7-3-5.5-4.9-8.1c-1.4-1.8-2.8-3.7-3.9-5.7c-1.2-1.9-2.4-3.9-1.9-6.4c0.2-0.8-0.3-1.6-0.5-2.5
		c-1.3-4.9-2.7-9.8-3.2-14.9c-0.1-0.6-0.2-1.2-1.3-1.6c-0.7,4.8,0.9,9.2,1.4,13.7c-7.2-0.8-11.8-4.7-13.6-11.5
		c-2.2-8.3-1.8-16.5,1-24.8C781.3,411.8,792.4,414.9,803.8,416.1z M776.5,426.7c-0.1,2.3,0,3.7,1.9,5.3
		C778.5,429.8,778,428.5,776.5,426.7z M777.4,418.4c-0.8,0.3-1,0.8-0.4,1.5C777.8,419.6,778,419.1,777.4,418.4z M806.5,459.6
		c-0.9,0.1-1.2,0.4-1.2,1C805.9,460.7,806.2,460.3,806.5,459.6z"/>
	<path fill="none" d="M769.9,471c0.4-0.4,0.8-0.9,0.7-1.8c-2.5-1.2-1.2-4.4-3.2-6.8c0.2,2.5,0.3,4.5,0.4,6.6c-1,1.7-2,3.6-3,5.5
		c-0.3-0.3-0.6-0.3-0.6-0.5c-4.5-13-14.1-20.4-27-23.9c-6.9-1.9-13.8-3.5-20.9-4.6c-3.9-0.6-7.9-0.3-11.9-0.3
		c-1.6,0-2.9,1.1-4.3,1.7l0.1,0.1c-0.4-1.7,0.6-3,1-4.5c1.2-4.6,1.3-9.3,0.8-14.2c2.6-2.2,5-4.6,7.7-6.5c5.4-3.8,10.1-8.3,13.6-13.9
		c0.8-1.2,1.8-2.2,3-3.6c4.8,0.7,9.6,1.5,14.5,2.2c1.1,1.2,2.2,2.5,2.8,3.1c2.9,1,4.9,0.8,6.8-0.4c1.3-0.8,2.7-0.8,4.2-0.6
		c4.2,0.7,8.3,1.3,12.5,1.9c0.5,1.1-0.2,1.9-0.4,2.8c-2,6.9-2.6,13.8-0.8,20.8c1.8,7.2,5.9,12.6,13.3,15c1.7,0.6,1.7,0.5,4-0.1
		c0.5,4.5,1.3,8.9,3.7,12.7c-2.7,6.3-7.5,9.1-14,9.2C771.7,470.8,770.7,470.9,769.9,471L769.9,471z M751.7,449.2
		c-0.2-0.7-0.8-0.8-1.7-1.2C750.7,448.8,751.2,449.2,751.7,449.2c0.2,0.9,1,1.2,2.2,1.7C753.2,449.7,752.7,449.2,751.7,449.2z
		 M765.3,456.1c-0.2-1.5-0.3-3-2-4.2C763.5,453.9,764,455.2,765.3,456.1z M741.7,410.2c-1.2,1-2.1,2.2-2.2,4.2
		C741,413.1,741.6,411.8,741.7,410.2z"/>
	<path fill="none" d="M700.1,446.9c0.1,2.2,1.7,1.7,2.9,1.5c4.6-1,9.2-0.3,13.7-0.5c0.5,0,0.9,0.2,1.6,0.4
		c-1.9,5.5-5.4,9.9-9.1,14.9c2.5-0.2,3.9-1.2,4.6-2.5c1.3-2.5,3.4-4.3,5.1-6.5c1.3-1.6,2.2-3.4,2.9-5.5c3.7,0.2,7,1.1,10.4,2.1
		c1.5,0.4,2.8,1.4,4.5,0.7c0.8-0.3,1.6,0.5,2.3,0.9c3.2,1.8,6.3,3.6,9.4,5.4c5.1,2.9,8.9,7.1,11.5,12.3c1.1,2.3,2.1,4.6,3.1,7
		c-1.4,3-3.6,4.9-6.3,6.4c-3,1.6-5.8,3.4-8.5,5.6c-2.9,2.4-5.1,5.5-7.1,8.9c-1.3-1-2.5-1.9-3.6-3c-2.7-2.4-5.9-3.3-9.3-3.6
		c-7.6-0.7-15.2-1.3-22.8-1.9c-3.8-0.3-7.5,0.1-11.2,0.7c-3.4,0.6-6.7,0.7-10.1,0.5c-3.7-0.2-6.8-1.7-9.1-4.6c-1.3-1.6-3-2.8-3.9-5
		c2-1.6,4.4-2.9,6.8-3.8c4-1.4,7.2-3.9,10.2-6.7c3-2.8,5.9-5.9,7.5-9.7c1.5-3.4,2.3-7.1,3.5-10.6
		C699.3,449.2,699.3,447.9,700.1,446.9L700.1,446.9z M708.2,465.2c-1.4,0.5-1.9,1.2-2.2,2.5C707.3,467.3,707.9,466.7,708.2,465.2z"
		/>
	<path fill="none" d="M859.6,414.4c-3,4.5-3,4.5-2.6,7.6c-2.9,0.1-200.5-30.6-211.3-32.8c-0.1-1.9,0.3-4-0.8-5.7
		c0.3-0.3,0.3-0.4,0.4-0.5c0.1-0.1,0.2-0.2,0.3-0.2c1.2,0.1,2.4,0.2,3.6,0.4C719.2,394,789.4,404,859.6,414.4z"/>
	<path fill="none" d="M756.8,345.2c1.5,0.9,1.4,2.7,2.1,4c0.5,0.9,0.9,1,2,0.6c0.7,6.2,3.1,11.8,5.4,17.5c-0.4-4.3-1-8.5-2.9-12.4
		c-1-1.9-1.5-4-1.7-6.2c-0.3-3.7-2-7.2-2.4-11c-0.2-1.8-0.2-3.6-0.8-4.9c-0.7-1-1.5-0.1-2.1-1.1c-0.5-1.2-0.3-3.1-1.6-4.4
		c2.3,0.4,2.9,2.5,4.3,3.8c1.6,1.4,2.8,3.3,4.3,4.9c1.4,1.5,2.1,3.4,4,4.5c-0.1-2.1-1.8-3.4-2.8-5.1c-1.1-1.8-2.5-3.5-3.9-5.2
		c-1.2-1.5-2.6-3-3.7-4.7c3.3,1.6,5.7,4.6,9.9,6.4c-3.7-3.5-7-6.2-10.5-8.7c-0.4-0.9-0.5-1.8,0.1-2.6c1.5,0.5,0.4,1.1,0.1,1.7
		c2.2,1.5,4.5,2.4,7,3.1c0-1.7-1.7-1.5-2.3-2.8c2.1-0.2,3.9,0.8,5.7,1.4c1.9,0.6,4,1,4.8,3.3c0,0.1,0.2,0.2,0.3,0.2
		c5.1,4.3,9.7,9,14.4,13.8c0.3-1.8-1.7-2.7-1.6-4.3c-0.6-3.1-3.2-4.4-5.5-6c-1.1-1.4-2.8-1.8-4.2-2.8c-4.8-5-10.9-7.8-17.6-9.8
		c-0.2-0.9,0.7-0.8,1.3-1.1c1.9-0.9,3.9-0.5,5.7-0.2c4,0.6,8.1,1,11.6,3.5c-0.7,0-1.4,0-2.3,0c0.9,1.2,2.4,1.4,2.6,2.8
		c-3.2-1.2-6-3.6-9.6-4.1c8,4.9,16.4,9.2,21.7,17.6c0-2.3-1.4-3.7-2.7-5.3c-2.1-2.6-4.9-4.5-7.3-6.9c3.1,0.3,4.5,3.2,7.3,5.1
		c-0.6-1.9-1.6-2.8-2.4-3.7c-0.9-1-2.2-1.5-2.7-2.8c5.9,2.7,8.9,7.4,9.4,13.8c0.3,4,0.9,7.9-0.9,11.7c-0.6,1.2-0.7,2.6-0.3,3.9
		c1.1,3.3,0.4,6.4-0.2,9.6c-1.1,5.7-2.6,11.3-5.1,16.5c-2.9,1.4-2.9,1.4-5.7,0.8c-0.3-2,0.5-4.2-0.9-6.7c-1.3,3-0.6,5.6-1.1,8.1
		c-0.5,2.4,0,5-1.1,7.6c-1.6-1.3-3-2.4-4.8-3.9c0.3,2.3,1.9,3.1,2.6,4.8c-3.6,3.1-8.6,4.1-12.2,7.9c-2.3-0.3-4.8-0.7-7.1-1
		c-0.4-1.2,0.3-1.9,0.7-2.5c4.2-6.2,5.4-13.3,6.1-20.6c0.8-9-0.4-17.8-3.2-26.4C756.9,346.4,756.9,345.8,756.8,345.2L756.8,345.2z
		 M769.9,356.1c0,0.9-0.3,2,1.8,2.4C770.5,357.7,771.1,356.5,769.9,356.1c0-1.2,0.3-2.6-0.3-3.6c-2.3-3.8-3.7-8-5.9-11.9
		c0.1,2.2,1,4.2,1.8,6.1C766.9,349.9,767.7,353.4,769.9,356.1z M766.4,381.7c-0.6-0.1-1.2-0.3-1.4-0.9c-0.7-1.8-1.3-3.6-2-5.4
		c-0.6-1.5-0.8-3-0.2-4.5c2.6-1.8,2.6-1.8,1.6-4.6c-0.8-2.3-1.6-4.5-2.3-6.8c-0.2-0.6-0.2-1.5-1.4-1.4c-0.4,1.2,0.6,2.2,0.7,3.3
		c0.4,2.8,1.6,5.7,1,8.5c-0.6,3-0.5,5.7,0.5,8.5c0.7,1.7,1.1,3.4,1.4,5.2c0.5,0.1,1,0.2,1.5,0.2c0.2-0.8,0.3-1.5,0.5-2.2
		c1-1.8,2.9-2.9,3.4-5.3c-0.3-1.1-0.7-2.4-1.1-3.6c-0.1-0.3-0.4-0.5-0.8-1.1c-0.2,2.2,1.2,3.8,0.5,6.1
		C767.8,378.8,765.9,379.6,766.4,381.7z M773,330.5c0.1,0.8,0,1,0.1,1.2c2.7,4.1,4.7,8.4,3.8,13.5c-0.2,0.9,0.2,2.2,1,3
		c0.2,0.2,0.4,0.3,0.6-0.2c0.6-0.6-0.7-1.8,0.2-2.7c0.7,0.3,0.4,1.3,1.3,1.3c0.6-1.6-0.6-3.1-0.3-5.1c1,2.3,1.8,4.2,2.1,6.1
		c-4.1,6.4-4.9,13.1-2,18.1c1.5-1,1.9-2.4,1.7-3.8c-0.3-0.9-1.3-0.4-1.3-1.3c0-1.4,0-2.7,0-4.2c0.5,0.4,0.9,0.7,1.5,1.2
		c0.1-3,3.4-3.7,3.8-6.1c-1.7-1.4-2.3-3.2-2.7-5c-0.5-1.9-0.6-4-2-5.4c-1.6-1.6-2.5-3.5-3.6-5.4C776.1,334.1,774.9,332.2,773,330.5z
		 M774.6,351.4c0.3-0.1,0.5-0.2,0.8-0.3c-1.4-4.8-2.5-9.7-5.6-13.8C771.4,342,773,346.7,774.6,351.4z M769.1,364.9
		c5.2,0.8,6.4,2.6,5.1,7.6c-0.2,0.9-1,1.7-0.4,2.8c1.6-2.5,2.1-4,2-6C775.6,365.7,772.9,363.9,769.1,364.9z M762.8,348.4
		c0.6,4.5,4.5,12,7.1,13.9C767.6,357.7,765.4,353.4,762.8,348.4z M773.3,353.7c0.2-0.1,0.5-0.2,0.7-0.3c-1.7-3.8-3.3-7.6-5-11.4
		C769.7,346.3,771.3,350.1,773.3,353.7z M773.3,340.1c0.7,2.9,1.2,5.8,2.9,8.4C775.7,345.5,775.4,342.5,773.3,340.1z M765.8,326.6
		c0.3,0.7,0.7,1.1,1.5,0.9C767.1,326.8,766.7,326.4,765.8,326.6z M777.4,371.8c0.8-0.5,1.3-0.7,0.9-1.6
		C778,370.4,778,370.4,777.4,371.8z"/>
	<path fill="none" d="M774.4,636.6c1.3-3.5,2.6-6.6,3.8-9.7c1.1-2.7,2.1-5.5,1.8-8.4c-0.4-3.6,1.2-6.5,2.4-9.6
		c0.9,0,1.2,0.4,1.2,1.1c0,0.5,0,1,0.4,1.3c1.1,0.5,1.3-0.9,2.2-1.2c2,0.1,3.9,1.3,6,1.8c1,2.3,2.6,4.3,3.2,6.9
		c0.4,1.6,1.1,3.3,3.2,3.5c1.7,0.1,3.7-1.6,4.2-3.8c0.4-1.6,0.6-3.3,1.3-4.9c0.2-0.5,0.4-0.9,1-1.1c0.6,1.7-1.4,3.9,0.9,5.2
		c1.9-1.6,1.9-1.6,2.8-4.3c0.5,1.3,0.7,2.9,2.1,3.7c1.5,0,1.1-1.7,2.1-2.3c0.5-0.2,1,0.1,1.2,0.5c0.9,2.6,2.9,2.8,5.2,2.8
		c2.2,0,4.3-0.1,6.4-0.6c3.5-0.7,7.2-0.1,10.8-0.1c1.5,0,2.4,1.4,3.4,2.5c1.1,1.2,1.6,2.7,2.2,4.1c-0.5,2.1-1.7,3.6-3.3,5
		c-4.2,3.5-8.7,5.6-14.2,6.7c-4.6,1-9,1.3-13.6,0.9c-1.7-0.2-3.4,0.1-4.9,0.9c-4.4,2.1-9.2,3-14,3.5
		C786,641.6,780,640.7,774.4,636.6z M816,625.6c2,3.3,2.4,3.4,6.1,1.8c0-3.9-0.6-5.3-2.3-5.9c-2.3-0.7-3.2,1-4,2.7
		c-1.2-0.7-1.8-2.1-3.3-2.1c-1.7,0-2.4,1.1-3.1,2.8c-1.3-2.6-3.2-2.2-5.2-1.8c-0.1,2.4,0.5,4.4,0.9,6.6c1-0.6,0.4-1.9,1-2
		c1.5,0.1,1.6,1.6,2.8,1.5c0.6-0.9-1.6-2.2,0.5-3.1c0.6,1.6,1.5,3.1,3.5,2.9C814.8,629,815.3,627.4,816,625.6z"/>
	<path fill="none" d="M807.7,416.8c16.7,2.5,33.5,5,49.8,7.5c1.1,0.7,1.2,1.5,1.5,2.2c1.6,3.4,1.3,4.8-1.7,7.2
		c-3.7,2.9-7.7,5.5-12,7.4c-6,2.6-12,5-18.3,6.8c-3.9,1.1-7.6,3-11.8,4c-0.7-1.4-1-2.9-1.1-4.5c-0.3-5.3-2-10.1-5.1-14.5
		c-1.4-2-2.2-4.3-2.1-6.8C807,423.1,805.8,420,807.7,416.8z"/>
	<path fill="none" d="M641.2,398.4c1.4-2.4,2.5-4.8,4.4-6.7c16.6,2,33,5.3,49.5,7.4c0.3,1.2-0.6,1.6-1.1,2.2c-2.7,3.4-5.2,7-7,11
		c-1.3,2.9-3.6,4.8-6.7,5.7c-8.3,2.7-11.6,4.6-18,10.5c-2.3-1.3-3.3-3.7-5.1-5.5c-3.2-3.3-6.4-6.7-9.3-10.2
		C644.3,408.8,642.2,403.8,641.2,398.4z"/>
	<path fill="none" d="M748.5,395.5c3.7-13.8,1.1-27.3-2.1-40.7c0.5,10.4,2.9,20.8,1.7,31.4c-0.8-3.9-1.7-7.8-2.8-11.6
		c-1.2-4.6-2.4-9.1-3.7-13.7c-0.8-2.8-1.4-5.6-1.7-8.5c-0.4-3.1-0.7-6.2-1.2-9.4c-1.2-6.5,0.6-12.8,2.4-18.9c1-3.5,4-6,7.4-7.7
		c1.3,0,2.5,0.6,4,1.2c-3.2,4.3-3.3,9.1-3.2,13.9c0.1,5.7,0.9,11.3,2.8,16.8c0.7-0.6,0.3-1.4,0.4-2.1c0-0.7,0-1.5-0.2-2.2
		c-1.4-6.1-1.5-12.2-1.1-18.4c0.1-2.3,0.6-4.5,2-6.6c1.7,1.9,1.7,3.9,1.4,5.9c-0.3-0.1-0.6-0.3-0.9-0.4c-0.8,0.5-0.7,1.3-0.7,2
		c0.3,7,0.2,13.9,2.7,20.7c2.9,8.1,3.3,16.6,2.5,25.1c-0.5,5.3-1.3,10.6-2.6,15.7c-0.3,1.2-0.7,2.3-1.2,3.4c0-3.8,0.9-7.4,1.6-11
		c2-9.4,2.2-18.7-0.3-28c-0.3-0.9-0.5-1.8-1.4-2.8c0.7,4.8,1.8,9.2,1.8,14c-1.3-3.4-0.9-7-2.6-10.1c0.7,5.1,0.9,10.3,0.8,15.4
		c-0.1,5.2,0.1,10.4-1.3,15.5c-0.2-7.7,0.4-15.5-2.2-23C751.3,372.8,752.2,384.3,748.5,395.5z M746.4,329.1
		c-0.2,10.3,2.3,20.1,4.8,29.9c0.2-0.5,0.3-1,0.2-1.4c-0.9-5-2-9.9-2.8-14.9c-1.4-8.2-1.8-16.3,1.7-24.2c0.1-0.2-0.1-0.4-0.2-0.8
		c-1.8-0.6-2.5,0.9-3.3,2c-4.3,6.1-5.8,13-5.5,20.3c0.1,2.3-0.2,4.7,1.1,7c0.6-3,0.7-6,1.5-8.9C744.6,335.1,744.9,332,746.4,329.1z"
		/>
	<path fill="none" d="M649.5,589.4c0.3-0.2,1.1-0.6,1.7-1.1c2-1.8,3.8-3.6,3.6-6.7c-0.1-1.7,0.3-3.4,2.3-4.4
		c2.3-0.1,4.7,1.1,7.3,1.1c0.8,0.1,0.7-1.3,1.9-1c-0.1,1.8-0.5,3.7,1.1,5.2c1.6-0.6,0.3-2.3,1.2-3.2c1.7,0.1,2.3,1.5,3.1,2.7
		c0.6,1,0.6,2.2,1.9,2.9c0.7,0.4,0.7,1.5,0.3,2.3c-0.4,0.9-1,1.6-1.6,2.5c-0.5-0.2-1.1-0.4-2-0.7c-0.3,4.9,1.5,9.6,0.8,14.1
		c-8.3,5.5-16.7,4.6-25.2,0.5C646,598.7,646.1,593.9,649.5,589.4z M667,588.1c-0.6-3.5-0.6-3.6-2.5-5.3
		C664.8,584.7,664.9,586.7,667,588.1z"/>
	<path fill="none" d="M651.6,539.2c6.6,2.8,12.7,3.3,19.3,3.1c-3.4,10.7-6.1,21.2-4.9,31.9c-0.5,1.3-1.5,1.6-2.2,2.3
		c-2.2,0-4.2-0.8-6.2-1.3c-0.7-1.7-0.1-3.1-0.2-4.5c-0.3-7.4-1.9-14.5-4.6-21.4C651.8,546.3,652.3,543.1,651.6,539.2z M656.9,553.9
		c0.1-1.3,0.6-2.8-0.8-4.2C655.7,551.4,656,552.6,656.9,553.9z"/>
	<path fill="none" d="M590.3,374.9c-0.4,1.8-1.9,3.5-0.9,5.9c-20.9-3.2-41.4-6.4-62.6-9.6c-0.8-0.7-1.3-2.1-0.3-3.6
		c1-1.6,2.5-2.2,4.4-1.9c6.3,1,12.7,1.9,19,2.8c12.9,1.9,25.8,3.8,38.7,5.7C589.2,374.3,589.8,374.2,590.3,374.9z"/>
	<path fill="none" d="M673.1,463.9c4.1,1.8,9.6,0.8,11.9,6.4c-3.3,2.5-6.6,4.7-10.5,5.7c-6,1.5-11.6,3.9-17.2,6.6
		c-0.4,0.2-0.8,0.4-1.6,0.8c1.4-4.3,2.5-8.2,4.6-11.7c0.9-1.5,1.8-3,3.5-3.5C667.1,467.2,670.1,465.5,673.1,463.9z"/>
	<path fill="none" d="M600.1,382.6c1.4,3,4.1,2.3,6.6,2.9c-1.5,1.3-3.1,1.4-4.8,1.2c-2.4-0.2-4.8-0.8-7-1.9c-4.3-2-5.1-7.3-1.7-10.6
		c0.3-0.3,0.7-0.6,1.1-0.9c4.2-3.2,12.8-2,16.3,2.3c-2.3-0.3-4.5-0.4-6.5-1.3c-1.4,0.8-3.4,0.5-4.6,2.5c2.8-0.9,5.3-0.2,7.8,0.2
		c2.6,0.4,5.2,0.8,8,1.2c0.3,2.2,0.6,4.2,0.9,6.6C610.8,384.5,605.5,383.2,600.1,382.6z"/>
	<path fill="none" d="M763.4,397.7c4.1-2.4,7.7-4.4,11.3-6.6c1.3,0.5,2.2,1.5,3.3,2.6c-1.7,1.9-3.3,3.7-5,5.6
		C770,399.1,767,398.7,763.4,397.7z"/>
	<path fill="none" d="M745.6,382.7c0.6,3.1,0.5,5.2-0.7,7.3c1.3,1.5,1.9,3.1,1.7,5.1c-1.9,0.5-3.6-0.3-5.4-0.6
		c-0.7-2.4-0.2-4.8-0.3-7.1C742.2,385.7,744.5,385.2,745.6,382.7z"/>
	<path fill="none" d="M776.3,399.4c1-1.2,1.9-2.4,3-3.8c1.1,1.3,2.1,2.5,3,3.7c2.9,1,5.9,0.9,8.7,2.2
		C788.4,402,779.3,400.7,776.3,399.4z"/>
	<path fill="none" d="M739.1,388.5c-0.2,1.9-0.4,3.5-0.7,5.4c-2.4,0.1-4.6-0.1-6.8-1c0.3-0.9,0.6-1.7,1-2.6
		C734.8,390.4,736.7,388.9,739.1,388.5z"/>
	<path d="M776.5,323.5c-0.2-1.4-1.7-1.6-2.6-2.8c0.9,0,1.6,0,2.3,0c0.3,0.2,0.6,0.3,0.9,0.5c0.5,1,1.3,1.3,2.3,1.5
		c0.5,0.2,0.9,0.5,1.4,0.7c0.5,1.3,1.8,1.8,2.7,2.8c0.8,0.9,1.8,1.8,2.4,3.7c-2.8-1.9-4.2-4.8-7.3-5.1l0.1,0.1
		c-0.4-1.1-1.3-1.4-2.3-1.6L776.5,323.5z"/>
	<path fill="none" d="M891.3,427.9c1.5-1.9,2.6-2.9,4.2-3.6c0.9,1.1,0.6,2.5,1.1,3.9C894.9,428.5,893.4,427.8,891.3,427.9z"/>
	<path fill="none" d="M650.2,586.6c0.3-2.5,1-4.7,2.6-7C654.5,583.2,652,584.8,650.2,586.6z"/>
	<path d="M779.5,331.2c2.3,1.6,4.9,2.9,5.5,6C782.2,336,780.6,333.8,779.5,331.2z"/>
	<path fill="none" d="M758.2,342.4c1.2,1.3,0.8,3,1.4,4.5C758.2,345.6,758.2,344,758.2,342.4L758.2,342.4z"/>
	<path fill="none" d="M729.2,391c-0.6,1.9-1.6,1.7-2.8,1.4C726.9,391.3,727.8,391,729.2,391z"/>
	<path fill="none" d="M745.9,407.8c-0.8,0.7-1.3,0.6-1.8-0.2C744.9,406.7,745.3,407.2,745.9,407.8z"/>
	<path fill="none" d="M756.9,345.2c-1.1-0.7-1.3-1.8-1.3-3.3C756.4,343.1,757,344.1,756.9,345.2L756.9,345.2z"/>
	<path fill="none" d="M758.3,342.3c-0.9-0.8-0.5-1.9-0.8-3.6C758.4,340.4,758.1,341.4,758.3,342.3L758.3,342.3z"/>
	<path fill="none" d="M779.4,322.7c-1-0.2-1.8-0.5-2.3-1.5C778.2,321.2,779,321.7,779.4,322.7z"/>
	<path fill="none" d="M359.5,423.3c0.1,2.2-1.1,3.1-2,4.3c-3,0.9-6.2,0.9-9.3,0.9c-5,0-9.9-0.4-14.8-1c-5.2-0.6-10.7-3.3-15-7.2
		c0.5-2.7,0.1-5.7,2.1-7.9c-5.7-19.6,4.1-41.5,10.4-50.7c5.6,2.3,11.5,3.2,17.6,3.3c7.9,0.2,15.5,2.5,23.2,4.1
		c6.1,1.3,12.1,2.4,18.3,2.5c5.4,0.1,10.9,0.8,16.5,0.2c1.7,4.6,0.6,9-0.4,13.6c-2.9-0.3-5.6,0.1-8.3,1.3c1.3,0,2.6,0,3.9,0
		c1.4,0,2.9-0.2,4.3,0.3c2.8,10.7,6.8,21.1,10.2,31.8c-6.6,5.8-14.9,7.6-22.7,9.9c-7.9,2.3-16.2,3.8-25,3c-0.3-1.6-0.6-3.4-1-5.6
		c5.3-0.5,10.8,1.2,16-2.2c-5.5,0.5-10.4,1.3-15.3,0.1c-5-1.2-8.7-4.6-13.1-7.3c-2.1-3.3-2.9-7.2-3.1-11.2
		c-0.3-3.8-0.5-7.7-0.8-11.6c-3.2,4.9-2.5,13.7,2,23.3c-2.8,1.3-5.9,2-8.6,4.4c3.6-0.5,6.4-1.7,9.7-2.6
		C356.1,420.1,357.5,422.1,359.5,423.3z M404.1,419.1c1.1,0.6,1.7-0.1,2.5-0.8C405.4,418,404.8,418.7,404.1,419.1z M402.3,388.6
		c0.5,0.5,1,0.7,1.6,0C403.3,388.1,402.8,388.3,402.3,388.6z"/>
	<path fill="none" d="M304.8,582.4c-0.1,3.3,1.3,6.1,2.8,9.4c1.3-4.9,4.6-9.1,1.1-13.9c0.6-1.8,1.2-3.5,1.8-5.4
		c1.6,0.2,3.1,0.5,4.6,0.7c4.9,5.1,5.8,7.9,4.3,13.9c-3.3,1-5.2,3.3-5.5,7.1c-0.3,4.1-3,7.3-4.6,10.9c-0.8,1.8-2.3,2.9-4.1,3.3
		c-6.5,1.7-12.9,1.6-19.2-0.7c-1.9-0.7-2.9-2-3.3-4.5c3.9-7.3,5-15.9,8.1-23.8c0.7-0.8,1.3,0.5,2-0.1c0.1-0.2,0.3-0.4,0.3-0.6
		c-0.3-1.9,0.4-3.6,0.9-5.3c2.9-8.8,3.8-18,4.4-27.2c0.3-4.7,0.3-9.4,0.4-14.1c0.1-4.3,1.4-8.6,2.2-12.9c1.5-8.1,3.7-15.9,6.9-23.6
		c2.7-6.7,5.6-13.4,7.6-20.3c0.4-1.4,0.5-2.9,0.5-4.3c0.2-14.9,0.8-29.8,2-44.6c0-0.5,0.1-0.9,0.2-1.4c1.1-0.3,1.5,0.6,2.1,1
		c3.8,2.6,8,4,12.6,3.9c3.6-0.1,7.2-0.1,10.8,0.7c4.7,1,9.4,0.3,14-0.6c0.8,0.8,0.2,1.6,0,2.4c-1.9,9.5-6.3,18-10.2,26.7
		c-2.3,4.9-4.3,9.9-6.1,15.1c-1.5,4.6-2.4,9.3-3.4,14c-0.9,4.4-2,8.9-5.2,12.5c-0.9,1-0.8,2.5-1,3.8c-0.6,5.5-1,11.1-2.2,16.5
		c-0.5,2.1-1,4.2-2,6.2c-3.6,6.9-7.1,13.7-11.1,20c-0.5,1,0.6,1.2,0.3,2.2c-4.7,8.8-8.2,18.4-10.3,28.6c-0.2,1-0.4,1.9-0.9,2.7
		c0.1-1.1,0-2.2-0.9-3.1c-0.5-0.7-1.9,0-2.4-1.1c0.5-2,1-4.1,1.5-6.1c-1.7,1.7-1.8,4.3-2.9,5.7c-2.5,1.2-5.2-1.6-7.1,1.4
		c2.4,1.7,4.8,1.2,6.3,1C303.3,578.7,303.3,581.3,304.8,582.4z M302.5,535.4c0,4.2,0.3,4.6,4,5.9
		C304.1,539.5,304.3,537.3,302.5,535.4z M318.2,488.3c1.2-2.3,2.6-3.9,2.2-6.9C318.7,483.7,318.3,485.7,318.2,488.3z M327.1,488.1
		c1.4-2.1,1.4-2.1,0.5-4.6C326.9,485.1,326.6,486.4,327.1,488.1z M301.8,527.3c-0.3,0-0.5-0.1-0.8-0.1c0.2,2,0.3,4.1,0.5,6.1
		c0.1,0,0.2,0,0.3,0C301.8,531.3,301.8,529.3,301.8,527.3z M325.3,496.3c0,0.7-0.8,0.9,0.1,1.4C325.8,497.4,326,497.1,325.3,496.3z"
		/>
	<path fill="none" d="M502.6,243.7c2.1-1.7,4-1.1,5.5,0.3c1.8,0.5,3.2-2.1,4.9,0c-2.6,2.8-7.2,3.9-7.5,9c2.5-0.4,2.9-3.1,4.9-3.8
		c0.6,0.1,1.3,0.3,1.9,0.4c1.1-0.7-0.4-1.2,0.1-2.3c0.9-1.1,1.9-2.8,4.3-2.5c1.2,1.2,0.5,2.1-0.4,3c-1.8,1.8-3.6,3.6-5.4,5.4
		c-0.4,0.4-0.9,0.8-0.7,1.8c3.4-0.9,4.3-5.6,8.3-5.4c-0.2-0.8-0.4-1.3-0.6-1.8c0.3-0.9,1.1-0.9,1.7-1.5c0.8,2.3-0.4,4.2-0.5,6.3
		c-5.3,4.5-9.3,10.3-14,15.5c-0.8,0.9-1.6,1.7-2.8,2.3c-4.4,2.1-8.1,5.3-11.3,8.9c-6.1,6.9-13,13-20.6,18.3
		c-2.6,1.8-4.7,4.1-6.9,6.4c-3.4,3.6-7.1,6.9-10.9,10.1c-3.3,2.8-7,5.2-10.5,7.8c-3.1,2.3-6.4,2.2-9.3-0.3c-2.5-2.1-4.4-4.8-6.6-7.3
		c-1-1.1-0.3-2.4-1.1-3.6c-1.7-2.6-3.4-5.2-5.5-7.6c-1.7-1.9-3.4-3.8-4.8-5.9c-1.1-1.6-2.5-3.3-1.9-5.6c0.1-0.3-0.2-0.7-0.3-1
		c-2-5.4-3.8-11-5.2-16.6c-0.1-0.3-0.4-0.6-0.8-1.2c-1.1,2.6,0.1,4.8,0.5,7s1.1,4.4,1.7,6.7c-5.7,0.4-11.6-3-13.7-8.2
		c-3.5-8.4-4.2-17.1-2-26c0.1-0.2,0.2-0.4,0.5-0.9c11.3,0.2,22.7,2,34.2,2.9c1,1.9,1.2,4,1.3,6c0.3,4.7,2.1,8.9,4.3,12.9
		c0.8,1.4,1.6,2.7,2.3,4.1c0.9,1.9,1.9,3.9,2.1,6.1c0.2,2.1,1,4.2,2.1,6.1c-1,1.4-2.8,2-3.5,3.8c11.5-5.7,23.8-9.3,34.7-15.8
		c5.3-3.2,10.4-6.7,14.4-11.2c1.6-5.1-1-9.1-2.9-13.1c0.4-2.4,2.5-6.7,4.8-9.6c2.5-0.6,4.9,0.5,7.6,0.5c-0.8,2.2-2.7,2.5-4.6,2.8
		c0,1.4-1.3,1.9-1.8,3.2c1.6,0.4,2.5-0.5,3.3-1.2c3-2.3,6.5-3.7,9.6-5.8c0.2-0.2,0.7,0,1,0c0.3,1.1,1.2,1.4,2.1,1.5
		c-1.4,1.6-4.1,1.8-5.2,4.8c3.2-1,5.8-1.8,7.5-4.4c-0.8-0.7-1.5-0.6-2.2-0.5C504.7,243.6,503.9,243.1,502.6,243.7z M401.9,267.4
		c-0.5,2,0.1,3.2,1.5,4.5C404.1,269.8,403.1,268.8,401.9,267.4z M401.3,260.1c0.7-0.1,0.9-0.6,0.6-1.2c-0.1-0.2-0.5-0.3-0.5-0.3
		C401,259.1,401,259.6,401.3,260.1z M432.6,298.6c1-0.1,1.3-0.4,1.3-1C433.2,297.4,433,297.9,432.6,298.6z"/>
	<path fill="none" d="M415.2,314.6c-1.1,5.3-1.5,10.4-3.8,15c-1.5,2.9-2.2,6.1-2.6,9.4c-0.8,6.4-1.4,12.7-1.7,19.2
		c-0.1,3.6-0.8,7.2-1.3,11c-1.7,0.4-3.3,0-5,0c-13.8-0.2-27.2-2.8-40.6-5.3c-5-0.9-10-1.6-15.1-1.9c-3.9-0.2-7.9-0.8-11.8-2.6
		c2.5-3.6,4.8-7.1,7.4-10.5c2.3-3,4.1-6.3,5.9-9.6c1.9-3.5,1.8-7.5,1-11.3c-1.4-6.5-2.1-13.1-4.4-19.8c6.9,0.5,13.5,1,20.1,1.3
		c5,0.2,9.6,2.1,14.6,2.7c4.3,0.5,8.7,0.9,13,1.1c7.5,0.4,15,0.8,22.5,1.1C413.8,314.3,414.3,314.4,415.2,314.6z M362.6,319.6
		c0.3,0,0.6,0.1,0.9,0.1c0.2-2.8,0.4-5.5,0.6-8.3c0-0.5-0.3-0.9-1.3-1C361.8,313.4,362.6,316.5,362.6,319.6z M363.9,324
		c-1.8,2.2-1.9,4.3-0.4,7.6C363.6,329,363.7,326.5,363.9,324z M411,320.5c-1.3,1.6-2.1,2.9-2.9,4.7
		C410.7,323.3,410.7,323.3,411,320.5z M362,337.4c0.9-0.7,1.1-1.3,0.6-2.1C361.6,335.8,361.9,336.5,362,337.4z M402.8,331.2
		c-0.3,0.3-0.7,0.4-0.7,1C402.8,332.1,403.2,331.9,402.8,331.2z"/>
	<path fill="none" d="M257.6,227.4c1.1,0,2,0.4,2.8,1.2c0,0.7-0.9,0.9-0.7,1.5c1.1,0.9,1.6-0.6,2.4-0.7c0.2,0.1,0.6,0.2,0.6,0.4
		c0.4,2.1,1.7,3.9,2.6,5.9c1.3,2.9,1.8,5.8-0.2,8.6c-1.2,1.7-0.8,4-2.2,5.7c1.1,4.9,3.4,9.1,5.7,13.4c0.9,1.6,2,3.1,3.5,4.1
		c4.8,3.4,8.9,7.5,12.9,11.7c0.6,0.6,1.2,1.2,2.3,1.5c1.8-0.6,3.4-1.8,4.8-3.2c3.9-3.9,8.3-7.1,13.4-9.2c2.7-1.1,4.2-3.6,5.8-5.7
		c3.2-4.2,5.9-8.8,8.8-13.3c0.6-0.9,1.3-1.8,2.1-2.9c10.4,0.5,20.8,1.6,31.7,2.5c-2,7.1-3.8,13.8-7.8,19.7c-0.9,1.4-2,2.7-3,4.1
		c-1.6,2.2-3.8,4-4.6,6.9c-3.1-6.6-3.6-13.9-6.6-20.4c-0.2,4.3,0.2,8.6,1.3,12.6c-4.3,4.7-8.4,9.2-12.6,13.7c-4.7,5-10,9.1-16.3,12
		c-3.4,1.6-6.7,3-9.7,5.5c-2.6,2.2-6.1,3.3-9.5,4.5c-2.6,0.9-5.2-0.2-8.1-0.7c-3.5-7.8-9-14.4-14-21.4c-2.7-3.8-4.6-7.9-5.9-12.4
		c-1.5-5.5-3.1-10.9-6.9-15.5c-0.5-0.6-0.9-1.5-1.1-2.3c-0.7-2.7-2.1-5-3.9-6.8c-3.2-3.3-4.6-7.3-5.9-11.5c-0.3-1.2-0.7-2.3-1.1-3.6
		c0.6-1.2,1.9-1.9,2.8-3c1,0.4-0.5,1.3,0.7,1.8c1.8-0.9,2-3.2,3.1-4.7c0.8-0.7,1.8-0.6,2.9-0.5c0,1.5-1.6,2.3-1.7,4
		c2.1-1,3.2-4.3,5.9-1.8c1.4-1.1,2.4-2.5,4.3-2.6c0.8,0,1.5,0,1.4,1.1c-1.3,0.3-1.7,1.4-1.5,2.5c0.4,2.1,1.1,4.1,2.8,6.1
		c-0.2-2.4-0.2-2.4-1.8-5.3C257.6,229.7,258.1,228.6,257.6,227.4z M271.4,286c-0.8-2-1.9-3.7-3.9-4.7
		C268.4,283.2,269.2,285.1,271.4,286z M314.9,285.2c-2.6,0.1-4.5,0.7-6.9,1.7C310.8,287.4,312.7,287.2,314.9,285.2z M246.5,244.2
		c-0.7-1.9-1.4-2.9-2.6-4.1C244.2,241.9,244.2,243.3,246.5,244.2z M250.8,238c-0.4-1.1-0.1-2.6-1.8-3.5
		C249,236.2,249.7,237.2,250.8,238z M242.3,236.7c0.1-1.5,0.6-2.7-1.2-3C240.5,235,241.2,235.7,242.3,236.7z M259.1,245
		c-0.7-0.7-1.5-1.4-2.7-1.1C256.9,245.3,258,245.1,259.1,245z M256.1,234.6c0.7-0.7,0.3-1.1,0.1-1.5c-0.2-0.4-0.5-1-1.2-0.7
		C254.9,233.4,255.4,234,256.1,234.6z M279.8,291.9c0.1,1,0.6,1,1.4,0.7C280.8,292.2,280.6,291.6,279.8,291.9z M272.6,287.2
		c-0.4,1.5,0.1,1.8,1.2,1.9C273.4,288.4,273.1,288,272.6,287.2z"/>
	<path fill="none" d="M398.1,162.9c-4.3-3.7-9-6.6-14.7-8.2c4-2.6,15.1-0.3,19.7,3.8c-0.9,0.3-1.6-0.9-2.9-0.4
		c0.6,0.8,1.6,1.4,1.6,2.5c-2.1-1.3-4.1-2.8-6.7-3.3c6.9,5.1,14.1,9.8,18.4,17.6c-0.1-2.8-1.8-4.7-3.3-6.6c-2.4-3.1-5.5-5.3-8.5-7.8
		c3.7,1.1,6.2,3.9,8.9,6.4c-0.6-3-3.4-4.3-4.9-6.5c3.8,1.4,5.7,4.7,8,7.7c0.3,0.5,0.5,1.1,0.6,1.7c0.3,3.7,0.6,7.5,0.9,11.2
		c0.1,1.1-0.4,2.1-0.8,3.1c-1.3,2.8-2,5.6-1.1,8.7c0.6,2.2-0.4,4.5-1,6.7c-1.2,4.7-2.5,9.3-4.6,13.7s-3.2,4.9-8.4,3.7
		c0.2-2,2.3-3.8,0.7-6.6c-1.7,3.1-1.2,6.3-1.8,9.1c-0.6,3-0.8,6.2-1.2,9.5c-2.1-0.3-3.1-2.3-5.4-2.7c0.5,1.8,2.2,2.5,2.9,4.1
		c-3.3,3.2-8,4.7-11.2,8.6c-4.1,0.4-8.2-0.8-12.8-0.6c2.1-3.3,3.3-6.6,5.6-9.4c2.1-2.6,3.3-5.6,4.3-8.7c4-11.9,4.2-23.9,1.2-36.1
		c-0.2-0.9-0.8-1.8-0.2-2.8c1.2,1.4,1,3.5,2.3,4.8c0.8-0.7,0.2-1.6,0.3-2.4l-0.1,0.1c0.8,0.5,0.7,1.5,0.8,2.2
		c0.2,1.3,0.3,2.6,1.6,3.4c-0.5,0.7-1.1,1.4-0.8,2.3c1.2,3.9,2.4,7.8,3.6,11.7c0.3-1.7,0.1-3.2,0-4.7c-0.4-3.2-0.9-6.5-2.9-9.2
		c0-1,0-2.1-0.4-3.1s-0.4-2,0.5-2.9c-0.3,2.1,0.9,3.7,1.5,5.5c0.5,1.7,1.3,3.4,2.1,5c0.8,1.6,1.2,3.4,2.8,4.4
		c-1.5-4.1-3.2-8.1-4.9-12c-0.4-1-1.1-1.9-1.6-2.8c-2-4.9-1.9-10.1-2.4-14.5c-0.7-1.4-1.6-0.6-2.1-1.5c-0.4-1.4-0.4-3.3-1.5-4.8
		c4.4,4.3,8.1,9.2,11.6,14.9c0-2.5-1.1-4.5-4.3-9.2c-1.9-2.7-3.9-5.3-6.1-7.9c3.4,1.8,5.7,5,9.2,6.6c-1.8-2.2-4-4.1-6-6.1
		c-0.7-0.7-1.9-1-2.1-2.3l-0.1,0.1c2.6,0.5,4.6,2.7,7.3,2.9c0.3,0.8,0.8,1.3,1.9,1.2c-0.5-0.8-1.1-1.3-2-1.2c-0.5-1.7-2.3-2-3.7-4
		c3.9,1.7,7.5,2.2,10.3,4.7c0.3,0.5,0.6,1,0.8,1.5c2.5,2.4,5,4.8,7.4,7.4c2.3,2.4,3.7,5.7,7.1,7.7c-0.4-1.8-1.8-2.8-1.8-4.3
		c0.4-1.2-0.4-1.8-1.2-2.5l-0.2-0.2c-1-1.7-2.3-3.1-4-4.1c-1.8-1.9-4.6-2.7-5.7-5.3c-0.1-0.2-0.6-0.2-1-0.3L398.1,162.9z M406,185.7
		c-5.6,4.7-4.2,11-3.5,17.3c2.4-0.6,2.3-2.4,2.5-3.6c0-1.3-1.1-0.8-1.3-1.8c0-1,0.1-2.3,0.2-3.7c0.9,0.2,0.6,1.4,1.8,1
		c-0.2-2.9,3.2-3.3,4.1-5.7c-2.1-0.9-2-3.1-2.5-4.8c-0.5-1.9-0.3-4.1-1.6-5.5c-1.9-2.1-2.8-4.8-4.2-7.1c-0.9-1.5-1.8-3.1-3.2-4.3
		c-0.6,0.8,0,1.3,0.3,1.7c2.2,4,3.7,8,2.7,12.7c-0.2,1.1,0,2.4,0.8,3.4c0.1,0.1,0.4,0.1,0.5,0.1c0.7-0.8-0.4-2.1,0.5-2.9
		c0.8,0.4,0.5,1.3,1.2,1.4c0.7-1-0.3-2.2,0.5-3.3C405.5,182.2,406.2,183.5,406,185.7z M384.7,194.3c0.7,4,0.4,8.2,1.5,12.1
		c2.1,0,1.8-1.4,2.1-2.4C386.7,200.8,386.6,197.2,384.7,194.3z M388.8,178.1c0.9,5,2.6,9.6,4.6,14.9c0.3-1.6,0.5-2.5,0.7-3.4
		C391.7,186,390.7,181.8,388.8,178.1z M395.3,174.2c0.1,3.3,2.6,12,3.9,14C398.9,183.7,397.1,177.2,395.3,174.2z M392.6,201.1
		c-0.1,0.9,0.4,0.7,0.7,0.8c4.1,0.9,5.2,2.7,4.1,6.7c-0.3,1.2-1.2,2.4-1,4.5c2-3.5,3.6-6.4,1.7-9.7
		C396.8,201.4,394.8,200.8,392.6,201.1z M393.2,178c0.8,5.2,2.8,10.6,4.9,12.9C396.5,186.4,395.3,182.3,393.2,178z M385.4,210.8
		c-0.5,3.3,1.1,6,1.2,9.1c0.9-0.2,1.4-0.4,1.6-1C387.2,216.1,386.3,213.4,385.4,210.8z M398.3,177.4c0.5,2.9,0.7,5.8,2.4,8.3
		C400.1,182.8,400.1,179.8,398.3,177.4z M389.4,216.1c3.3-1.7,3.6-3.3,1.5-7.3c-0.5,1.6,0.7,3,0.4,4.8
		C390.7,214.3,390.1,215.2,389.4,216.1z M392.4,155.1c0.1,0.5,0.3,1.2,1,0.8C393.1,155.6,392.7,155.4,392.4,155.1z M401.4,207.3
		c-0.6,0.5-1.4,0.7-0.7,1.5C401.1,208.6,401.5,208.3,401.4,207.3z"/>
	<path fill="none" d="M268.1,239.9c-0.1-2.2-0.9-4.2-1.8-6.8c72.4,5.5,144.4,10.2,216.8,15.2c-0.7,1.7-1.9,2.6-2.2,4
		c-0.4,1.5,1,2.5,0.9,4.2C410.7,250.5,339.5,245.2,268.1,239.9z"/>
	<path fill="none" d="M268.4,242c16.7,1.3,33.4,2.6,50.1,3.9c0.3,1.2-0.6,1.8-1.1,2.6c-2.4,3.6-4.6,7.3-6.1,11.5
		c-1,2.9-2.9,5.1-5.8,6.1c-7,2.5-12.8,6.7-17.6,12.4c-3.2-3-6.3-5.8-9.4-8.7c-1.8-1.6-3.5-3.3-5.3-5c-4.5-4.1-7.2-9.3-8.8-15.1
		C265.7,247.2,267,244.7,268.4,242z"/>
	<path fill="none" d="M414.9,639.5c-0.1-4.4,0.8-8.3,2.2-12.2c1.2-3.2-0.2-6.5-0.4-9.7c-0.1-1.2-0.1-2.1,0.7-3.2
		c3.2-0.3,6.4,0.1,9.5,0.9c3.3,0.8,4.8,3.8,6.8,5.9c4.5-1.8,7.1-5.7,6.6-9.9c-0.2-1.6-0.2-3.1,0.1-4.9c7,3.1,13.3,7.7,22,8.9
		c2.2-0.4,5.6,0.2,9,0c1.6,1.2,2.3,2.9,3.2,4.4c1.8,3.1,1.2,6.1-1.8,8.2c-2,1.4-4.2,2.3-6.5,3.2c-2.7,1-5.7,1.1-8.3,2.5
		c-0.7,0.3-1.7,0.1-2.5,0c-1.6-0.1-3.2-0.1-4.7-0.4c-4.6-0.8-7.9,1.6-10.8,4.5c-1,1-2,1.6-3.3,1.9c-4.5,1.1-9,1.6-13.6,2.3
		C420.2,642.4,417.3,641.7,414.9,639.5z M446,621c-1.2-2.3-3-1.9-4.9-1.5c-0.1,3.5,0.4,6.5,1.1,6.5c0.8-0.4,0.1-1.8,1.3-1.9
		c0.9,0.3,1.1,1.6,2.3,1.6c0.6-0.9-1.6-2.2,0.3-3c2.9,4.7,5.4,3.2,6.9-0.6c1.9,3.2,2.2,3.2,6.1,1.7c0-2.2,0.3-4.7-2.4-5.8
		c-2.4-1-3.2,1.3-4.2,2.7C449.3,617.7,448.5,617.8,446,621z"/>
	<path fill="none" d="M482.7,258.4c0.5,0.7,0.8,1.1,1,1.6c1.7,3,1.5,4.7-0.9,7.1c-4.2,4.1-9,7.4-14.2,10c-5,2.5-9.9,5-15.1,7
		c-3.8,1.5-7.4,3.6-11.4,4.9c-0.7-1.7-1.2-3.4-1.5-5.1c-0.7-4.9-2.8-9.2-5.9-13c-1.6-1.9-2.7-4-2.9-6.5c-0.2-3.1-1.6-6.1,0.1-9.5
		C448.7,256,465.6,257.2,482.7,258.4z"/>
	<path fill="none" d="M378.7,186.1c0,3.4,0.8,6.7,0.3,10.9c-0.8-3-0.1-5.5-1.2-7.7c-0.1-0.2-0.3-0.3-0.8-0.6
		c0.7,5.4,0.8,10.5,0.4,15.7c-0.5,5.1-0.6,10.3-2.3,15.2c0.6-7.2,1-14.5-0.7-21.7c0,11.9-0.2,23.9-5,35.1c1.8-6.7,3.4-13.5,3.4-20.5
		c0-6.9-0.9-13.7-2.1-20.5c-0.6,9.8,1.7,19.6-0.5,29.4c-1.2-10.3-4.1-20.3-5.6-30.5c-0.7-4.9-0.9-9.9-1.2-14.8
		c-0.2-2.9,0.3-5.8,1.1-8.6c0.4-1.4,0.9-2.8,1.2-4.2c0.9-5.3,4.1-8.9,8.7-11.4c1.5-0.2,2.7,0.5,4.2,1.3c-3.1,4-3.7,8.5-3.9,13.3
		c-0.3,6.6,0.7,13,2.1,19.4c0,0.2,0.3,0.3,0.5,0.5c-0.7-8.8-1.9-17.5-0.3-26.3c0.4-2,0.7-4,2.6-5.7c0.4,1.2,0.7,2,0.9,2.9
		c0.1,0.6,0,1.2,0,1.3c-0.2,1.6-1.7,1.1-1.8,2.2c-0.4,5.2-0.4,10.4-0.1,15.6c0.1,3.1,1.5,5.8,2.1,8.8c1.9,10.2,1.3,20.2-1,30.2
		c-0.9,4-1.7,8-3.8,12.4c0.2-3.6,1.1-6.3,1.8-9c2.1-7.6,3.7-15.3,3.1-23.3C380.4,192.3,380,189.1,378.7,186.1z M374.9,194.7
		c-0.4-6.7-1.6-13.2-2-19.9c-0.4-7,0-13.8,3.3-20.1c0.2-0.4,0.4-0.9-0.1-1.4c-1.3-0.8-2,0.3-2.7,1c-1.5,1.7-2.8,3.6-3.8,5.7
		c-3.4,6.8-3.9,14.1-3.5,21.6c0,0.1,0.3,0.2,0.7,0.5c1.4-1.7,0.5-3.9,1.2-5.8c0.7-1.9,1-4,1.6-5.9c0.5-1.8,0.9-3.8,2.1-5.4
		C371.1,175.1,373.2,184.9,374.9,194.7z"/>
	<path fill="none" d="M215,229.6c-0.1,2.3-1.3,4-0.7,6.3c-20.9-1.6-41.5-3.1-62.8-4.7c-0.7-0.6-1.6-1.9-0.7-3.6
		c0.9-1.7,2.3-2.4,4.2-2.2c7.8,0.5,15.7,1.1,23.5,1.6c10.4,0.7,20.7,1.4,31.1,2.1C211.3,229.2,213,229.4,215,229.6z"/>
	<path fill="none" d="M235.2,228.9c-2.4,0.1-4.4,0.2-6.4-0.6c-1.3,0.9-3.2,0.7-4.1,2.5c4.1-0.9,8,0.2,12.2,0.3
		c0.4,2.1,0.8,4.1,1.2,6.3c-4.2,0.6-8.3-0.8-12.5-0.4c1.5,2.7,4.1,1.8,6.4,2.3c-1.3,1.2-2.7,1.5-4.2,1.5c-2.3-0.1-4.6-0.4-6.8-1.1
		c-5-1.6-6.3-7.3-2.7-11c1.7-1.7,3.6-2.8,6.1-2.7c2.7,0,5.3-0.2,7.9,0.7C233.4,227.1,234.3,227.7,235.2,228.9z"/>
	<path fill="none" d="M395.8,239.9c-3-0.1-6.1,0.2-9.5-1c3.7-2.5,7-4.9,10.4-7.2c1.3,0.5,2.5,1.1,3.4,2.4
		C398.8,236,397.4,237.9,395.8,239.9z"/>
	<path fill="none" d="M369.6,236.9c0.1,0.7-0.2,1.2-0.9,1.2c-1.7-0.1-3.4-0.1-5.1-0.6c-0.9-2.3-0.4-4.7-0.7-7
		c1.7-1.4,3.2-2.8,4.9-4.2c0.6,2,0.7,3.9,0.3,5.7C367.6,234,368.5,235.5,369.6,236.9L369.6,236.9z"/>
	<path fill="none" d="M515.6,258.8c2.2-2.9,5.1-4.5,5.9-7.5c1.3-0.5,2.4-0.2,3.3,0c1.2,1.9-1.4,2.3-1.2,3.8c0.1,1.4,0.3,2.8,0.9,4.4
		C521.5,259.6,518.8,259.4,515.6,258.8z"/>
	<path d="M304.8,582.4c-1.5-1.1-1.5-3.7-4.7-4.1c-1.5,0.2-3.9,0.8-6.3-1c1.9-3,4.6-0.2,7.1-1.4c1.1-1.5,1.2-4,2.9-5.7
		c-0.5,2-1,4.1-1.5,6.1c0.5,1.1,1.9,0.4,2.4,1.1c0.9,1,1,2,0.9,3.1C305.7,581.4,305.5,582,304.8,582.4z"/>
	<path fill="none" d="M399.1,240.5c0.3-2,1.7-2.9,2.3-4.6c1.7,0.8,2.3,2.4,3.9,3.3c2.9,0.9,6.3,0.2,9.4,1.9
		C409.5,241.4,404.4,240.4,399.1,240.5z"/>
	<path d="M405.9,160.4c1.5,2.2,4.3,3.5,4.9,6.5c-2.7-2.5-5.2-5.4-8.9-6.4l0.1,0.1c0-1.1-1-1.7-1.6-2.5c1.3-0.5,1.9,0.7,2.9,0.4
		l-0.1-0.1c0.5,1,1.3,1.5,2.4,1.5C405.7,160.1,405.8,160.2,405.9,160.4z"/>
	<path fill="none" d="M360.8,232.1c0,1.8,0,3.4,0,5.1c-1.2,0.6-2.2,0.4-3.2-0.1c-0.6-1-0.3-2.1-0.2-3.3
		C358.3,233,359.5,232.5,360.8,232.1z"/>
	<path fill="none" d="M355.1,236.8c-2.2,0-4,0-6.2,0c1.8-2.3,4.1-1.8,5.9-2.4C355.5,235.2,355.1,235.9,355.1,236.8z"/>
	<path fill="none" d="M421.5,506.8c0-3.2,0-5.8,0-8.7C423.1,500.4,423.1,502.5,421.5,506.8z"/>
	<path fill="none" d="M382.6,177.5c1,2,1.5,4.2,1.5,6.5l0.1-0.1C382.5,182,383,179.6,382.6,177.5L382.6,177.5z"/>
	<path fill="none" d="M382.7,177.4c-0.7-1.1-0.4-2.3-0.4-3.6C382.7,175.1,382.9,176.3,382.7,177.4L382.7,177.4z"/>
	<path fill="none" d="M369.4,250.5c-0.2,0.8-0.7,0.9-1.3,0.7C368.2,250.1,368.2,250.1,369.4,250.5z"/>
	<path fill="none" d="M397.4,164.4c-0.3-0.5-0.6-1-0.8-1.5c0.5,0,1,0,1.5-0.1l-0.1-0.1c-0.1,0.5,0.2,0.8,0.5,1.1
		C398.2,164.3,397.8,164.3,397.4,164.4z"/>
	<path fill="none" d="M405.5,159.9c-1.1-0.1-1.9-0.6-2.4-1.5C404.2,158.4,404.8,159.1,405.5,159.9z"/>
	<path fill="none" d="M382.8,159.1c-1.2-0.6-0.5-1.4-0.4-2.6C383.6,157.7,382.2,158.5,382.8,159.1L382.8,159.1z"/>
	<path fill="none" d="M369.7,237c-0.1-0.9,0.6-1.3,1.1-2.3C370.9,236.1,370.7,236.8,369.7,237L369.7,237z"/>
	<path fill="none" d="M536.9,259.5c-0.3-1.5-0.5-3.1-0.8-4.4c0.5-1.3,1.3-2,2.2-2.6c0.2-0.1,0.5-0.2,0.7-0.2
		c39.3,2.7,78.7,5.4,118,8.2c0.4,0,0.7,0.6,1,0.9c1-0.3,2.1-0.6,2.9-0.8c3.4,0.1,5.6,3.2,4.4,6.1c-1.3,3-3.4,4-6.6,3.6
		c-4.1-0.5-8.2-0.8-12.3-1.1c-24.7-1.9-49.5-3.8-74.2-5.7c-10.4-0.8-20.8-1.6-31.1-2.3C539.5,260.9,538.1,260.6,536.9,259.5
		L536.9,259.5z"/>
	<path d="M732.5,517.1c0.1-3.3,2.5-9.2,4.6-11.3C736.4,509.9,734.3,513.5,732.5,517.1z"/>
	<path d="M733.4,506.2c-0.2-1.2,1-1.2,1-2.1c-0.9-0.9-2.2-0.3-3.2-0.6c0.2-1,1.3-0.1,1.7-0.8c0.4-0.8-0.8-1-0.7-2
		c2.1-0.4,3.3,1.4,5.2,2.3C736.1,504.4,735.5,506,733.4,506.2z"/>
	<path d="M744.7,506.5c0.6,2.7,0.4,4.6,0,6.5C744.7,511.1,744.7,509.3,744.7,506.5z"/>
	<path d="M674.5,538c-0.6-0.7-1.5-0.8-0.9-2C674.3,536.4,674.9,536.6,674.5,538z"/>
	<path d="M803,592.7c0.9,2.7,0.4,5.2-0.8,7.9C801,597.6,801.5,595.1,803,592.7z"/>
	<path d="M819.3,526.7c1.3,3.3,0.5,6.5-0.3,9.6C818.2,533.1,818.7,529.9,819.3,526.7z"/>
	<path d="M802.7,609.7c-0.3,0.1-0.7,0.2-1.3,0.4c-0.3-2.8-0.4-5.5,0.2-8.2C803.2,604.4,802.2,607.2,802.7,609.7L802.7,609.7z"/>
	<path d="M817.8,542c0.5,2.4-0.3,4-1,5.8C816.2,545.5,816.2,545.5,817.8,542z"/>
	<path d="M815.3,520.9c-1.3,0.6-2,0.3-2.5-0.8C813.9,519.2,814.5,519.8,815.3,520.9z"/>
	<path d="M812.6,556.7c0.2-1.1,0-2,1.2-2.5C814.1,555.2,813.6,555.9,812.6,556.7z"/>
	<path d="M803,589c0.6,0.9,0.5,1.5,0,2.3C802.4,590.5,802.4,589.8,803,589z"/>
	<path d="M776.5,426.7c1.5,1.8,2,3,1.9,5.3C776.5,430.4,776.4,429,776.5,426.7z"/>
	<path d="M777.4,418.4c0.6,0.7,0.4,1.2-0.4,1.5C776.4,419.2,776.6,418.8,777.4,418.4z"/>
	<path d="M806.5,459.6c-0.3,0.8-0.5,1.1-1.2,1C805.3,460,805.5,459.6,806.5,459.6z"/>
	<path d="M765.3,456.1c-1.3-0.9-1.8-2.2-2-4.2C765.1,453.2,765.1,454.7,765.3,456.1z"/>
	<path d="M741.7,410.2c-0.1,1.6-0.7,2.9-2.2,4.2C739.7,412.4,740.6,411.2,741.7,410.2z"/>
	<path d="M751.7,449.2c0.9,0,1.4,0.6,2.2,1.7C752.7,450.4,752,450.1,751.7,449.2L751.7,449.2z"/>
	<path d="M751.8,449.1c-0.7,0.1-1.1-0.3-1.7-1.1C751,448.3,751.5,448.5,751.8,449.1L751.8,449.1z"/>
	<path d="M708.2,465.2c-0.3,1.5-0.9,2.1-2.2,2.5C706.3,466.4,706.8,465.7,708.2,465.2z"/>
	<path d="M773,330.5c2,1.7,3.2,3.5,4.3,5.4s2,3.8,3.6,5.4c1.4,1.4,1.5,3.5,2,5.4s1,3.6,2.7,5c-0.4,2.4-3.7,3.1-3.8,6.1
		c-0.7-0.5-1-0.8-1.5-1.2c0,1.5,0,2.9,0,4.2c0,0.8,1,0.4,1.3,1.3c0.3,1.4-0.2,2.8-1.7,3.8c-2.9-5-2.1-11.7,2-18.1
		c-0.3-1.9-1.1-3.8-2.1-6.1c-0.3,2,1,3.5,0.3,5.1c-0.9-0.1-0.6-1-1.3-1.3c-0.9,0.9,0.4,2.1-0.2,2.7c-0.2,0.4-0.4,0.4-0.6,0.2
		c-0.9-0.8-1.2-2.1-1-3c0.9-5.2-1.1-9.4-3.8-13.5C773,331.6,773,331.3,773,330.5z"/>
	<path d="M766.3,381.6c-0.2,0.7-0.3,1.4-0.5,2.2c-0.5-0.1-0.9-0.2-1.5-0.2c-0.3-1.8-0.7-3.5-1.4-5.2c-1.1-2.8-1.1-5.5-0.5-8.5
		c0.6-2.8-0.7-5.7-1-8.5c-0.1-1.1-1.1-2.1-0.7-3.3c1.2-0.1,1.2,0.8,1.4,1.4c0.8,2.3,1.5,4.6,2.3,6.8c1,2.8,1,2.8-1.6,4.6
		c-0.6,1.5-0.4,3,0.2,4.5c0.7,1.8,1.4,3.6,2,5.4c0.2,0.7,0.8,0.8,1.4,0.9L766.3,381.6z"/>
	<path d="M778.6,324.8c2.4,2.4,5.2,4.2,7.3,6.9c1.3,1.5,2.7,3,2.7,5.3c-5.3-8.3-13.7-12.7-21.7-17.6c3.6,0.5,6.4,2.8,9.6,4.1
		l-0.1-0.1c0.6,0.8,1.2,1.5,2.3,1.6L778.6,324.8z"/>
	<path d="M769.9,356.1c-2.2-2.8-3-6.2-4.3-9.3c-0.8-1.9-1.7-3.9-1.8-6.1c2.2,3.9,3.7,8,5.9,11.9
		C770.2,353.5,769.9,354.9,769.9,356.1L769.9,356.1z"/>
	<path d="M774.6,351.4c-1.6-4.7-3.2-9.4-4.7-14.1c3,4.2,4.2,9.1,5.6,13.8C775.1,351.2,774.9,351.3,774.6,351.4z"/>
	<path d="M769.1,364.9c3.8-1,6.5,0.8,6.7,4.4c0.1,2-0.4,3.5-2,6c-0.6-1,0.2-1.9,0.4-2.8C775.5,367.5,774.3,365.7,769.1,364.9z"/>
	<path d="M762.8,348.4c2.5,5,4.7,9.3,7.1,13.9C767.4,360.5,763.4,352.9,762.8,348.4z"/>
	<path d="M773.3,353.7c-2.1-3.6-3.7-7.5-4.3-11.7c1.7,3.8,3.3,7.6,5,11.4C773.8,353.5,773.6,353.6,773.3,353.7z"/>
	<path d="M766.4,381.7c-0.5-2,1.4-2.9,1.9-4c0.8-2.2-0.6-3.9-0.5-6.1c0.4,0.6,0.7,0.8,0.8,1.1c0.4,1.3,0.8,2.5,1.1,3.6
		c-0.5,2.3-2.4,3.5-3.4,5.3L766.4,381.7z"/>
	<path d="M773.3,340.1c2.1,2.4,2.4,5.4,2.9,8.4C774.6,345.9,774,342.9,773.3,340.1z"/>
	<path d="M769.9,356.1c1.2,0.4,0.6,1.6,1.8,2.5C769.6,358.1,769.9,357.1,769.9,356.1L769.9,356.1z"/>
	<path d="M765.8,326.6c0.9-0.2,1.2,0.2,1.5,0.9C766.5,327.7,766.1,327.3,765.8,326.6z"/>
	<path d="M777.4,371.8c0.5-1.4,0.5-1.4,0.9-1.6C778.8,371.1,778.3,371.4,777.4,371.8z"/>
	<path d="M816,625.6c-0.7,1.8-1.2,3.4-3.1,3.6c-2,0.2-2.9-1.3-3.5-2.9c-2.2,0.8,0,2.1-0.5,3.1c-1.2,0.1-1.3-1.4-2.8-1.5
		c-0.6,0,0,1.4-1,2c-0.5-2.2-1-4.3-0.9-6.6c2-0.4,3.9-0.8,5.2,1.8c0.7-1.7,1.4-2.8,3.1-2.8c1.5,0,2.1,1.4,3.3,2.1
		c0.8-1.7,1.7-3.4,4-2.7c1.8,0.6,2.3,2,2.3,5.9C818.4,629,818.1,628.9,816,625.6z M812.7,627.8c1.6-0.5,1.9-1.7,1.4-3.1
		c-0.3-0.9-1-1.3-1.9-1.2c-0.8,0.1-1.3,0.6-1.4,1.4C810.5,626.5,811.1,627.5,812.7,627.8z M819.6,625.2c0.6,0,1.2,0.1,1.1-1.1
		c-0.3-0.9-1.1-1.5-2.4-1.2c-0.6,0.2-1,0.7-1.1,1.3c-0.2,1.5,0.5,2.5,1.8,2.9C820.2,626.6,819,625.7,819.6,625.2z M805.6,624.6
		c0,0.7-0.1,1.3,0.6,1.7c0.9,0,1.6-0.2,1.5-1.4C807.1,624.1,806.5,624.1,805.6,624.6z"/>
	<path d="M746.4,329.1c-1.5,2.9-1.8,6-2.6,9c-0.7,2.9-0.8,5.9-1.5,8.9c-1.4-2.3-1-4.7-1.1-7c-0.3-7.3,1.2-14.2,5.5-20.3
		c0.8-1.1,1.5-2.6,3.3-2c0.1,0.4,0.3,0.6,0.2,0.8c-3.5,7.9-3.1,16-1.7,24.2c0.9,5,1.9,10,2.8,14.9c0.1,0.5,0.1,0.9-0.2,1.4
		C748.7,349.2,746.2,339.4,746.4,329.1z"/>
	<path d="M667,588.1c-2.2-1.4-2.2-3.4-2.5-5.3C666.4,584.6,666.4,584.7,667,588.1z"/>
	<path d="M656.9,553.9c-0.9-1.2-1.2-2.5-0.8-4.2C657.5,551.1,657,552.5,656.9,553.9z"/>
	<path fill="none" d="M778.7,324.9c-1.1-0.1-1.7-0.8-2.3-1.6C777.4,323.5,778.3,323.8,778.7,324.9z"/>
	<path d="M404.1,419.1c0.7-0.5,1.3-1.2,2.5-0.8C405.8,419,405.2,419.7,404.1,419.1z"/>
	<path d="M402.3,388.6c0.5-0.4,1-0.5,1.6,0C403.4,389.3,402.9,389.1,402.3,388.6z"/>
	<path d="M302.5,535.4c1.9,1.9,1.7,4.1,4,5.9C302.7,540,302.5,539.6,302.5,535.4z"/>
	<path d="M318.2,488.3c0.1-2.7,0.5-4.6,2.2-6.9C320.8,484.4,319.5,486,318.2,488.3z"/>
	<path d="M327.1,488.1c-0.5-1.7-0.2-3,0.5-4.6C328.5,486,328.5,486,327.1,488.1z"/>
	<path d="M301.8,527.3c0,2,0,4,0,6c-0.1,0-0.2,0-0.3,0c-0.2-2-0.3-4.1-0.5-6.1C301.3,527.2,301.6,527.3,301.8,527.3z"/>
	<path d="M325.3,496.3c0.7,0.8,0.6,1.1,0.1,1.4C324.5,497.2,325.3,497,325.3,496.3z"/>
	<path d="M505,244.9c0.7-0.1,1.4-0.2,2.2,0.5c-1.7,2.7-4.3,3.5-7.5,4.4C500.7,246.8,503.5,246.6,505,244.9L505,244.9z"/>
	<path d="M401.9,267.4c1.2,1.4,2.2,2.4,1.5,4.5C402,270.6,401.4,269.4,401.9,267.4z"/>
	<path d="M401.3,260.1c-0.3-0.5-0.3-1,0.1-1.5c0,0,0.5,0.1,0.5,0.3C402.2,259.6,402.1,260,401.3,260.1z"/>
	<path d="M504.8,245c-1-0.1-1.8-0.4-2.1-1.5l-0.1,0.1c1.3-0.5,2-0.1,2.4,1.2L504.8,245z"/>
	<path d="M432.6,298.6c0.4-0.7,0.6-1.1,1.3-1C433.9,298.1,433.6,298.5,432.6,298.6z"/>
	<path d="M362.6,319.6c0-3.1-0.8-6.2,0.3-9.3c1,0.2,1.3,0.5,1.3,1c-0.2,2.8-0.4,5.5-0.6,8.3C363.2,319.6,362.9,319.6,362.6,319.6z"
		/>
	<path d="M363.9,324c-0.1,2.5-0.3,5-0.4,7.6C361.9,328.3,362,326.1,363.9,324z"/>
	<path d="M411,320.5c-0.4,2.7-0.4,2.7-2.9,4.7C408.9,323.4,409.7,322.1,411,320.5z"/>
	<path d="M362,337.4c-0.1-0.9-0.3-1.7,0.6-2.1C363.1,336.1,362.9,336.7,362,337.4z"/>
	<path d="M402.8,331.2c0.4,0.8,0,1-0.7,1C402.1,331.6,402.5,331.4,402.8,331.2z"/>
	<path d="M257.6,227.4c0.5,1.2-0.1,2.3-0.4,3.4c1.6,2.9,1.6,2.9,1.8,5.3c-1.7-2-2.4-4-2.8-6.1c-0.2-1.1,0.1-2.2,1.5-2.5L257.6,227.4
		z"/>
	<path d="M271.4,286c-2.3-0.8-3.1-2.8-3.9-4.7C269.6,282.3,270.7,284,271.4,286z"/>
	<path d="M314.9,285.2c-2.1,2-4.1,2.2-6.9,1.7C310.4,285.9,312.2,285.3,314.9,285.2z"/>
	<path d="M246.5,244.2c-2.3-0.9-2.3-2.3-2.6-4.1C245.1,241.3,245.8,242.3,246.5,244.2z"/>
	<path d="M250.8,238c-1.1-0.8-1.8-1.8-1.8-3.5C250.7,235.4,250.4,236.8,250.8,238z"/>
	<path d="M242.3,236.7c-1.2-1-1.8-1.7-1.2-3C243,233.9,242.4,235.2,242.3,236.7z"/>
	<path d="M259.1,245c-1.1,0.1-2.2,0.3-2.7-1.1C257.7,243.5,258.4,244.2,259.1,245z"/>
	<path d="M256.1,234.6c-0.8-0.6-1.2-1.3-1.1-2.2c0.7-0.3,1,0.3,1.2,0.7C256.5,233.5,256.8,234,256.1,234.6z"/>
	<path d="M279.8,291.9c0.8-0.3,1,0.3,1.4,0.7C280.4,292.9,279.9,292.9,279.8,291.9z"/>
	<path d="M272.6,287.2c0.5,0.8,0.8,1.2,1.2,1.9C272.7,288.9,272.2,288.7,272.6,287.2z"/>
	<path d="M406,185.7c0.2-2.2-0.5-3.4-1.1-5c-0.8,1.1,0.2,2.4-0.5,3.3c-0.8-0.1-0.5-1-1.2-1.4c-0.9,0.8,0.2,2-0.5,2.9
		c-0.2,0-0.4,0-0.5-0.1c-0.8-1-1-2.3-0.8-3.4c1.1-4.7-0.4-8.8-2.7-12.7c-0.3-0.5-0.9-0.9-0.3-1.7c1.4,1.2,2.3,2.8,3.2,4.3
		c1.4,2.4,2.2,5,4.2,7.1c1.3,1.4,1,3.7,1.6,5.5c0.5,1.8,0.4,3.9,2.5,4.8c-0.9,2.3-4.3,2.8-4.1,5.7c-1.2,0.4-0.9-0.8-1.8-1
		c-0.1,1.4-0.1,2.7-0.2,3.7c0.3,1,1.3,0.5,1.3,1.8c-0.2,1.2-0.1,3-2.5,3.6C401.8,196.6,400.4,190.4,406,185.7z M406.4,188.5
		c-0.7,0.5-1.3,0.9-0.8,1.8C406.1,189.9,406.9,189.7,406.4,188.5z"/>
	<path d="M397.4,164.4c0.4-0.1,0.8-0.1,1.1-0.6c-0.3-0.3-0.6-0.6-0.5-1.1c0.3,0.1,0.9,0.1,1,0.3c1.1,2.7,3.9,3.4,5.7,5.3
		c-0.1,1.6,0.8,2.4,2.1,3.1c0.3,1.4,1.4,2.2,2.3,3.1c0.3,0.2,0.7,0.3,1,0.5c0,1.5,1.4,2.4,1.8,4.3c-3.4-2-4.8-5.3-7.1-7.7
		C402.4,169.3,399.9,166.9,397.4,164.4z"/>
	<path d="M401.9,160.6L401.9,160.6c2.9,2.4,6,4.7,8.4,7.7c1.5,2,3.2,3.8,3.3,6.6c-4.3-7.8-11.5-12.6-18.4-17.6
		C397.8,157.8,399.9,159.2,401.9,160.6z"/>
	<path d="M386.4,189.7c2,2.8,2.5,6,2.9,9.2c0.2,1.5,0.4,3.1,0,4.7c-1.2-3.9-2.4-7.8-3.6-11.7c-0.3-0.9,0.4-1.6,0.8-2.3L386.4,189.7z
		"/>
	<path d="M384.7,194.3c1.9,3,2.1,6.5,3.6,9.7c-0.3,1-0.1,2.4-2.1,2.4C385,202.4,385.4,198.3,384.7,194.3z"/>
	<path d="M388.8,178.1c1.9,3.7,2.9,7.9,5.3,11.5c-0.2,0.9-0.4,1.8-0.7,3.4C391.4,187.7,389.7,183.1,388.8,178.1z"/>
	<path d="M395.3,174.2c1.8,3,3.6,9.4,3.9,14C397.9,186.2,395.5,177.6,395.3,174.2z"/>
	<path d="M386.4,183.8c0.5,0.9,1.2,1.8,1.6,2.8c1.8,4,3.5,7.9,4.9,12c-1.6-1-2-2.9-2.8-4.4c-0.8-1.6-1.6-3.3-2.1-5
		C387.5,187.5,386.2,185.8,386.4,183.8L386.4,183.8z"/>
	<path d="M392.6,201.1c2.2-0.3,4.2,0.3,5.4,2.3c2,3.3,0.3,6.2-1.7,9.7c-0.1-2.1,0.7-3.2,1-4.5c1.1-4,0-5.8-4.1-6.7
		C393,201.8,392.5,202,392.6,201.1z"/>
	<path d="M393.2,178c2.1,4.4,3.3,8.4,4.9,12.9C396,188.5,394,183.1,393.2,178z"/>
	<path d="M385.4,210.8c0.9,2.7,1.9,5.4,2.8,8.1c-0.2,0.6-0.7,0.8-1.6,1C386.5,216.8,384.8,214.1,385.4,210.8z"/>
	<path d="M398.3,177.4c1.8,2.4,1.9,5.4,2.4,8.3C399,183.2,398.7,180.3,398.3,177.4z"/>
	<path d="M389.4,216.1c0.7-0.9,1.3-1.8,1.9-2.5c0.4-1.7-0.9-3.2-0.4-4.8C393,212.7,392.7,214.4,389.4,216.1z"/>
	<path d="M406.7,171.5c-1.2-0.7-2.2-1.6-2.1-3.1c1.7,1,3.1,2.3,4,4.1C408,172.1,407.4,171.8,406.7,171.5z"/>
	<path fill="none" d="M406.7,171.5c0.7,0.3,1.3,0.6,2,0.9l0.2,0.2c0,0.7,0.1,1.3,0.1,2C408.2,173.7,407,172.9,406.7,171.5z"/>
	<path d="M409,174.7c0-0.7-0.1-1.3-0.1-2c0.8,0.6,1.6,1.3,1.2,2.5C409.7,175,409.4,174.8,409,174.7z"/>
	<path d="M390,162.1c0.9-0.1,1.5,0.3,2,1.2C390.9,163.3,390.3,162.9,390,162.1L390,162.1z"/>
	<path d="M392.4,155.1c0.3,0.3,0.7,0.5,1,0.8C392.7,156.4,392.5,155.6,392.4,155.1z"/>
	<path d="M401.4,207.3c0.1,1-0.3,1.3-0.7,1.5C400,208,400.8,207.8,401.4,207.3z"/>
	<path d="M446,621c2.5-3.3,3.3-3.3,6.4-0.3c1.1-1.4,1.8-3.7,4.2-2.7c2.7,1.1,2.3,3.6,2.4,5.8c-3.8,1.6-4.1,1.5-6.1-1.7
		c-1.5,3.8-4,5.2-6.9,0.6c-1.9,0.8,0.3,2.1-0.3,3c-1.2,0-1.3-1.3-2.3-1.6c-1.2,0.1-0.5,1.5-1.3,1.9c-0.7,0-1.2-3-1.1-6.5
		C443,619.1,444.9,618.8,446,621z M449.5,624.4c1.8-1.8,2.1-2.9,1-3.9c-0.8-0.7-1.7-0.8-2.5,0.1C447,621.7,447.5,622.7,449.5,624.4z
		 M457.7,620.9c-0.5-1.2-1.3-2.1-2.7-1.4c-1.3,0.7-1.2,2-0.5,3.1c0.4,0.6,0.9,1.2,1.8,0.8c0.5-0.5-0.4-1.1,0.1-1.6
		C456.7,621.5,457.4,621.9,457.7,620.9z M442.4,621.1c0,0.7-0.1,1.3,0.6,1.6c0.9,0,1.6-0.2,1.5-1.4
		C444,620.6,443.3,620.6,442.4,621.1z"/>
	<path d="M374.9,194.7c-1.8-9.7-3.8-19.5-3.2-29.7c-1.3,1.6-1.6,3.6-2.1,5.4c-0.6,2-0.9,4-1.6,5.9s0.1,4.1-1.2,5.8
		c-0.4-0.2-0.7-0.4-0.7-0.5c-0.4-7.4,0-14.7,3.5-21.6c1-2.1,2.3-4,3.8-5.7c0.7-0.8,1.4-1.8,2.7-1c0.5,0.5,0.3,0.9,0.1,1.4
		c-3.3,6.4-3.7,13.1-3.3,20.1C373.3,181.4,374.6,187.9,374.9,194.7z"/>
	<path fill="none" d="M812.7,627.8c-1.6-0.4-2.2-1.4-2-2.9c0.1-0.8,0.6-1.3,1.4-1.4c0.9-0.1,1.7,0.3,1.9,1.2
		C814.6,626.2,814.3,627.4,812.7,627.8z"/>
	<path fill="none" d="M819.6,625.2c-0.7,0.5,0.5,1.4-0.5,1.9c-1.3-0.5-2-1.4-1.8-2.9c0.1-0.6,0.5-1.1,1.1-1.3c1.3-0.3,2,0.3,2.4,1.2
		C820.9,625.3,820.2,625.2,819.6,625.2z"/>
	<path fill="none" d="M805.6,624.6c0.9-0.5,1.6-0.5,2.1,0.3c0.1,1.1-0.6,1.4-1.5,1.4C805.5,625.9,805.5,625.3,805.6,624.6z"/>
	<path fill="none" d="M406.4,188.5c0.5,1.2-0.3,1.4-0.8,1.8C405.1,189.4,405.7,189,406.4,188.5z"/>
	<path fill="none" d="M449.5,624.4c-2-1.7-2.5-2.7-1.5-3.8c0.8-0.9,1.7-0.8,2.5-0.1C451.6,621.5,451.3,622.6,449.5,624.4z"/>
	<path fill="none" d="M457.7,620.9c-0.3,1.1-0.9,0.6-1.3,0.9c-0.5,0.5,0.4,1.1-0.1,1.6c-0.9,0.4-1.4-0.2-1.8-0.8
		c-0.7-1.1-0.8-2.4,0.5-3.1C456.4,618.8,457.2,619.7,457.7,620.9z"/>
	<path fill="none" d="M442.4,621.1c0.9-0.5,1.6-0.5,2.1,0.3c0.1,1.1-0.6,1.4-1.5,1.4C442.3,622.4,442.4,621.8,442.4,621.1z"/>
</g>
</svg>
