<?xml version="1.0" encoding="utf-8"?>
<!-- Generator: Adobe Illustrator 19.1.0, SVG Export Plug-In . SVG Version: 6.00 Build 0)  -->
<svg version="1.2" baseProfile="tiny" id="Layer_2" xmlns="http://www.w3.org/2000/svg" xmlns:xlink="http://www.w3.org/1999/xlink"
	 x="0px" y="0px" width="900px" height="600px" viewBox="144 97 900 600" xml:space="preserve">
<g>
	<path d="M775.9,683.4c-5.3,0.5-13.3-1.6-18.9-4.5c-0.2,1.5,1.8,2,1.6,3.8c-1.9-0.9-2.7-2.4-3.7-3.8c-0.9-1.2-1.7-2.5-2.9-3.4
		c-10.7-8.9-16.3-20.4-17.3-34.1c0-0.5,0-1-0.5-1.4c-4.6,3.5-9.9,5.9-15,8.6c-6,3.2-12.5,4.7-19,6c-4.7,1-9.3,2-13.5,4.5
		c-4.3,2.6-9.1,3.5-14,4.5c-6.6,1.3-13.2,2-19.9,2.7c-3,0.3-6.1,0.4-9,0c-7.8-1-15.6-0.1-23.4,0.3c-2.8,0.1-5.5-0.3-8.2-1.1
		s-5.4-1.5-8.1-2c-6.1-1.3-11.9-3.3-17.5-6.1c-1.5-0.8-2.9-2-4.9-1.6c-0.4,0.1-1-0.2-1.4-0.5c-2.9-2.3-6.5-3.4-10-4.4
		c-8.9-2.8-18-5.2-26.8-8c-5.2-1.7-10.3-0.8-15.3,0.3c-1.7,0.4-3.4,0.6-5.2,0.7c-6.2,0.4-12.3,0.6-18.5,0.9
		c-9.8,0.4-19.4-0.9-28.7-4.1c-6.6-2.3-12.1-6.2-16.4-11.7c-1.4-1.8-2.9-3.5-4.6-5.5c-2.5,0-5.2,0-7.8,0c-11.5,0-22.9-1.5-34.4-2
		c-7.7-0.3-15.4-0.5-23-1.6c-2-0.3-4.1-0.4-6,0.2c-1.9,0.6-3.9-0.3-6.1,0.3c0.3,1.7,1.9,3.4,0.1,5.1c-1.3-0.5-1.6-2.1-3.2-2.9
		c-4.7,2.7-10.1,2.4-15.5,2.4c-1,0-2.1,0-3-0.3c-5.9-2-11.5-0.7-17,1.3c-3,1.1-5.7,1.7-9.1,0.6c0.5,1.3,1.4,1.3,2.1,1.7
		c2.7,1.5,6,1.8,8.4,4.2c0.5,0.5,1.4,0.5,2.2,0.6c5.5,0.9,11,1.7,16.6,1.6c3.9,0,7.8-0.9,11.4-1.4c0.9-0.4,1.4-1,1.8-1.7
		c1-0.8,2.3,0.1,3.1-0.6c1.9-1,2.1-3,3.3-4.4c1.5,0.7,1.4,1.7,0.5,2.7c-1.4,1.5-3.1,2.6-4.8,3.6c-3.3,1.8-7.1,2.8-10.1,5.1
		c-0.9,0.7-2.2,0.6-3.3,0.6c-7,0.3-13.9-0.7-20.6-2.7c-1.3-0.4-2.7-0.7-3.3-2.2c-0.2-0.7-0.8-0.9-1.5-1c-1-0.3-2-0.5-2.8-1
		c-4.6-2.6-9.4-2-14.3-1.8c-5.9,0.2-11.9,0.5-17.6-1.5c-6.2-2.2-10.8-6.3-11.9-13c-0.6-3.5-0.9-7.2,0.1-10.7c1.1-4,2.3-8,4.9-11.4
		c0.5-0.2,1-0.5,1.4-0.4c3.3,0.7,6.5-0.3,9.8-0.1c3.9,0.1,7.2-1,9.2-4.7c1.8-3.2,4.8-5.6,5.6-9.1c4.5-4,9.9-5.8,15.3-7.7
		c2.9-4.4,5.6-8.9,6.4-14.3c0.8-5.8,3.3-11.1,4.7-16.8c3.7-15,7.4-29.9,11.2-44.8c1-3.9,2-7.8,2.5-11.8c0.4-3,1.4-5.9,2.5-8.7
		c2.5-6.7,4.9-13.5,8.7-19.7c2.3-3.8,2.2-7.9,2.4-12c0.5-8.4,3-16.1,8-22.8c1.1-1.5,1.7-3.1,2.1-4.8c1.2-4.5,4.2-7.3,8.7-8.5
		c2.8-0.7,5.6-1.4,8.6-1.4c1.2,0,2.5-0.4,3.6-0.9c8.2-3.3,15.6-2,22,3.9c1.8,1.6,4,2.6,5.8,4.2c5.9,5.3,11,11.1,15.5,17.6
		c4.1,5.9,8.4,11.7,12.2,17.8c6.3,10.2,12.5,20.5,15.7,32.2c0.8,2.8,2,5.4,3.4,8c2.9,5.6,5,11.5,7.7,17.6c1.3-3,1-6,1.8-8.7
		c3.7-12.4,5-25.5,10.5-37.5c0.6-1.3,0.7-2.7,0.9-4c0.4-3.8,0.3-7.7,1.5-11.2c2.1-5.9,2.2-12.4,5.1-18c1.3-2.6,2.3-5.3,3.6-7.8
		c3.1-6,11.5-9.2,17.9-7c6.3,2.2,12.6,4.5,18.4,7.9c2.2,1.3,4,2.7,4.8,5.1c3.2,9.3,8.1,18.1,9.6,27.9c1.4,9.8,4.9,19.1,6.6,28.7
		c1.8,9.9,3.6,19.9,4.6,29.9c0.7,6.6,2,13.2,2.7,19.8c0.5,5.3,1.6,10.5,0.6,15.8c-0.4,2.2,0.6,4.1,1.4,6.3c1.9-1,3-2.6,4.4-3.7
		c7-5.5,14.8-9.1,23.6-10.2c3.2-0.4,6.5,0.4,9.8,0.5c5.2,0.1,10.3,0.6,15.4,1.5c3.5,0.6,6.9,1.4,9.7,4c2.7-3.7,2.4-8.7,6.7-10.9
		c-1.3-3.5,0.1-6.7-0.5-10c-0.3-1.8,2.9-4,5.6-4.2c2.6-0.2,5.3-0.3,7.6-0.4c8.9-7.4,18.4-12.9,29.6-15.1c4.7-0.9,9.3-2.2,14.2-2
		c5.5,0.2,10.7,1.2,15.6,4c3.9,2.3,8.1,3.9,11.9,6.5c8.5,5.9,14.9,13.5,19.4,22.7c1,2.1,2.4,4.2,3.6,6.2c3.5,5.6,5,11.8,5.2,18.4
		c0.1,1.9,0.2,3.8,0.2,5.7c-0.1,1.4,0.5,2.4,1.3,3.4c-0.2,2.2-0.7,4.3-1.4,6.4c3,1.8,5.3,4.5,7.8,6.9c2,1.8,3.4,4.1,4.4,6.6
		c1.5,3.9,2.9,7.8,4.5,11.6c2.1,4.9,2.6,10.2,5.5,14.8c1,1.7,1.1,3.7,1,5.5c-0.2,5.5-0.4,11.1-3.8,16c-0.9,1.2-1.2,2.8-1.2,4.3
		c0,0.9,0.1,1.8-0.8,2.7c-2.3,0.8-5.3,0.2-7.8,1.7c1.5,6.1,5.3,10.4,9.7,14.4c0.4,0.3,0.8,0.7,1.2,1c10.8,8.4,8.2,7.2,20.5,7.1
		c0.4,0,0.7,0.1,1.2,0.1c0,0.6,0,1.2,0,1.7c7.4,0.3,9.9-0.3,21.2-4.6c-0.6,4-4.2,6.5-14,9.6c-0.6,0.6,0.4,0.7,0.3,1.3
		c-0.5,0.9-1.5,0.7-2.3,0.5c-2.3-0.4-4.4,0.2-6.6,1c-7,2.5-14.1,3.9-21.6,3.3c-2.8-0.2-5.5-0.8-8.1-1.8c-1.5-0.6-2.8-1.4-3.5-3.8
		c3.9,2.7,7.8,3.3,11.8,3.2c-4.8-2.4-10-3.8-14.8-5.1c-1-0.8-0.3-1.3-0.2-2.2c-7.2-4.7-12.8-11-16.7-18.9c-1,0.4-0.7,1.1-0.5,1.6
		c1.3,5,2.7,10,4.8,14.7c0.9,2,2.1,3.7,3.8,5.1c5.6,4.5,11.6,8.1,19,8.6C774.4,682.4,774.4,682.5,775.9,683.4z M717,526.2
		c-0.6-1.3-1.7-1.9-3.1-2.2c-3.3-3.6-7.6-5.8-12-7.7c-1.1-1.2-2.4-1.9-4.5-2.1c1.7,1.1,2.8,2.2,4.4,2.3c3.8,2.9,7.9,5.3,12.2,7.5
		C714.4,525.3,715.6,525.9,717,526.2c0.5,1.2,1.3,1.9,2.6,2C718.7,527.4,718.3,526.2,717,526.2z M735.8,560.4
		c0.1,2.1,1.1,3.7,2.3,5.3c0.7,4.8,2,9.4,4.3,14.6c-0.4-4.5-2.3-10.6-4.4-14.6C737.7,563.8,737.5,561.8,735.8,560.4
		c-1.3-4.8-3.7-9.1-6.6-13.1c-0.1-1.1-0.8-1.8-1.4-2.7c-2.2-3.5-4.5-7-6.8-10.5c-0.6-0.9-1.5-1.8-0.5-3c0,0-0.1-0.2-0.5-0.6
		c-8.7-6.9-19.3-11.6-28.8-18c-0.9-0.6-2-1.1-3-1.6c-0.1,0-0.2,0-0.4,0c-0.5,0.2,0.3,0.3-0.9,0.1c8.7,6,16.6,11.9,22.7,20
		c6.1,8.1,12.9,22.3,12.7,26.6c-0.9-0.6-1.2-1.7-1.5-2.6c-1.3-4-3.5-7.5-5.6-11.1c-1.3-2.2-2.6-4.3-3.4-6.7c-0.4-1.3-1.2-2.5-2-3.6
		c-6.1-8.6-14-15.1-22.8-20.7c-0.2-0.2-0.4-0.3-0.6-0.5c-0.3-0.4-0.7-0.7-1-1.1c0.3-0.8,0.6-1.7,0.9-2.6c2.5-0.3,4.6,1.1,6.9,1.4
		c1.1-0.1,0.6-1.7,2.6-1.7c8.6,2.7,16.7,8,24.8,13.5c-3.4-5.2-7.9-9.2-12.1-13.7c2.2,0.6,4.5,1.2,6.3,2.4c4.7,3.2,9.7,6,14.1,9.6
		c1.3,1.1,2.7,2.2,4.3,2.4c2,2.5,3.1,5.5,6.3,6.1c3.6,6.9,6.6,13.8,9.2,20.9c2.5,7.1,3.9,14.5,6.2,21.7c0.7-5.4-0.2-10.6-0.8-15.9
		c-0.3-2.4-0.3-5-1.7-6.9c-2.1-2.8-2.6-6.1-4.3-9c-4.4-7.6-9.6-14.5-14.7-21.6c-0.9-1.3-2.4-2.8-3.8-3c-3.6-0.5-6.2-2.8-9.1-4.4
		c-5.5-3.1-11.4-4.7-17.7-4.5c-1.4,0.1-2.8,0-4.2,0c-12.6,0.7-24.4,3.7-34.5,11.9c-2.2,1.8-4.8,3.6-5.7,6.4c-1.4,4.3-3,8.5-4.5,13
		c-0.9-2.8,1.3-5.3,0.5-7.8c-0.7-0.1-1,1-1.9,0.4c-0.1-2,2-2.3,2.7-3.3c0.7-1.7,1.3-3.3,2-5.1c-2.4,0.2-4.7,0.4-6.9,0.6
		c-1,0.8-1.6,1.7-2.2,3.2c0.6,1.9,0.2,4-1,6c0.7,0.7,1.6,0.9,1.5,2c-1.2,1.9-3.2,3.3-4.1,5.6c-1.7,4.4-3.4,8.7-5.2,13
		c-1.4,3.3-1.1,6.7,0,9.9c0.9,2.8,1.7,5.6,1.7,8.5c-0.2,5,1.5,9.3,4.1,13.5c1.7,2.7,2.5,5.8,1.6,9c-0.8,2.9-1.6,5.8-2.5,8.7
		c-0.3,0.9-0.5,2-2.2,2c-0.9-3.4,2.9-5.9,1.7-9.3c-0.9-0.4-1.9,1.3-2.9,0c0.9-1.6,2.3-2.6,3.8-3.3c0.5-1.1,0.9-2,0.7-3.2
		c-0.8-0.6-1.5-1.6-2.1-2.5c-1.5-2.2-2.3-4.7-3.6-7c-0.9-1.7-1.7-3.3-1.7-5.2c0.1-4.4-0.6-8.8-1.1-13.2c-0.3-2.6-2.1-4-4.7-3.6
		c-6.9,1.1-12.2,4.5-16,10.3c-0.8,1.2-1.4,2.4-1.5,3.7c1,4.3,3,8.8,4.9,10.6c6.1,5.6,11.7,11.5,17.1,17.7c1.6,1.7,2.8,3.5,2.8,5.5
		c6,8.5,11.7,16.7,17.4,24.8c1.1,1.6,1.8,3.3,1.1,5.3c5.8,5.3,11.1,10.9,18.9,12.8c1.3-0.4,1.9-1.5,2.5-2.4c3.7-4.9,3.9-8.7,0.7-14
		c-0.3-0.5-0.8-1-0.6-1.7l0,0c5.7,4.9,5.7,10.1,0.2,17.8c0.7,0.4,1.5,0.2,2.2,0c5.1-0.7,9.7-2.9,14.2-5.1
		c5.5-2.6,10.1-6.1,12.4-12.1c0.6-1.5,1.4-3,3.1-3.6c1.3,0.6,1.7,1.7,1.2,2.8c-1.7,3.8-3,7.8-6.2,10.7c-6.8,6.2-15,9-24.1,10.2
		c0.4,0.6,1.6,0.3,1.4,1.6c-1.4,0.8-2.8-0.4-4.2-0.2c-3.7,0.5-6.9-0.8-10.2-2.4c-4-1.9-7-5-10-8s-6-6.1-6.7-10.7
		c-0.1-0.7-0.7-1.3-1.2-1.9c-4.2-5.3-7.5-11.1-10.8-16.9c-2.1-3.8-4.6-7.4-7.2-10.8c-4.3-5.5-9.4-10.6-14.8-15.2
		c-4-3.4-5.6-7.6-7-12.2c-0.8-2.7-0.3-5.2,1.1-7.6c3.4-6,8.3-10,15.1-11.7c2.8-0.7,5.6-1.4,8.9-1.3c-1.4-2.5,1.5-3.2,1.5-5.2
		c-1-0.9-2.3-0.9-3.5-1c-5.1-0.6-10.4-0.8-15.4-1.9c-7-1.5-13.8-1-20.7-0.3c-3,0.3-5.6,1.5-8,3.2c-3.8,2.6-7.1,5.6-10.5,8.6
		c-1.3,1.1-2.2,2.4-2.8,4c-2.5,6.5-5.2,12.9-3.5,20.1c0.3,1.4,0.5,3.1-1.5,3.6c-1.6,0-2.3-1.7-3.9-1.7c-1,1.9-2.7,3.4-3.8,6.1
		c2.4-1.5,4.3-2.1,6.2-2.7c2.8-0.9,5.7-1.3,8.5-1.9c2.5-0.6,4.7-1.5,5.6-4.3c7.2,1.7,13.9,4.2,20.4,7.3c3.2,1.5,6.4,3,9.3,5.1
		c11.4,8.6,20.8,19.1,28.1,31.4c2,3.5,3.5,7.3,5.4,10.8c5,9.2,5.9,18.6,1.3,28.4c1.4,0.3,2.6,0,3.8-0.2c3-0.5,6-1.1,9-1.5
		c7.3-1.1,14.8-2.1,21.7-5c2.3-1,4.3-2.6,6.8-3.3c5.2-1.5,10.5-2.6,15.9-3.7c1.6-0.3,3.2-0.7,4.7-1.3c8.3-3.2,15.8-7.8,23.2-12.8
		c0.9-3.5,1.3-7.2,3.3-10.3c-1-3.3-0.4-6.5-0.2-10.1c-5,2.5-10.1,3.8-14.6,6.6c-3.6,2.3-7.6,3.6-11.8,3.6c-4.3-0.1-8.8,1-12.9-1.5
		c-0.4-0.2-1-0.1-1.5-0.2c-5.3-0.6-10.4-1.9-15.1-4.7c-2.4-1.4-4.7-2.8-6.9-4.2c-4.8,4.1-5.4,9.1-3.6,14.6c1.3,3.9,2,8.1,3.7,11.9
		c0.5,1.2,1.1,2.5,0.3,4.1c-2.1-4.5-3.4-9.1-4.8-13.7c-2.1-6.6-2.5-12.7,2.8-17.4c-0.3-4.5-4.4-6.6-5.2-10.9
		c1.7,0.5,2.8,1.1,3.8,1.9c-0.4,0.7-1.4,0.6-1.2,1.6c0.9,1.3,2.2,1.8,3.8,2c6.9,0.8,13.8,0.4,20.8,0.4c0.3,0,0.8-0.1,0.7-0.9
		c-3.8-0.7-7.9-0.6-12.2-2.5c7.5-0.3,14.3,1.9,21.3,0.9c0.3,0.4,0.8,0.8,1.4,1.5c7.1-1.4,14.5-1.8,21.4-5.4
		c-0.4,1.7-1.6,2.2-2.6,2.8c-1.5,0.7-3,1.3-4.6,1.7c-12.5,3.6-25.2,5.3-38.2,3.9c-2.1-0.2-4.2-0.1-6.2,0.9c0.4,0.5,0.6,0.8,0.8,1
		c2.8,2.8,6.7,3,10.3,4c2.3,0.6,4.8,1,7.1,0.7c5.4-0.7,10.8-1.1,15.9-3.1c7.8-2.9,15.2-6.4,21.2-12.4c0.5,0.4,0.5,0.9,0.2,1.4
		c-2.3,3.6-6.4,5-9.3,7.9c2.7-1,5.1-2.6,7.4-4.2c2.2-1.6,5-2.8,5.7-6.3c-9.1-1.1-18-2.2-26.6-4.9c2.4,1.9,4.9,3.6,7.6,5
		c2.9,1.5,6.1,0.6,9.4,0.9c-2.3,1.5-4.6,2.1-6.8,1.8c-6.1-0.7-12.3-1.4-18.3-2.7c-6.3-1.3-12.7-1.9-18.6-4.6l-0.1,0.1
		c8.1,0.7,16.1,2.5,24.7,3.6c-2.9-2.3-5.3-4-7.6-6c-1.7-1.4-3.4-2.5-5.5-3.2c-3.8-1.3-7.5-2.8-10.9-5l-0.1,0.1
		c3.4,0.9,6.9,1.8,11.1,3c-11.2-11.6-19-24.3-23.5-39c0.5,4.2,2.6,7.9,3,12.1c-4.2-8-6.6-16.6-7.1-26c1.3-0.2,1.9-1.6,3.2-2.1
		c0.5,0.4,0.6,0.9,0.7,1.4c1.6,7.5,6,13.7,8.5,20.9c1.2,3.5,4.1,6.3,6.9,8.9c11.7,10.9,24.2,20.6,39.1,26.9c1.7,0.7,3.5,1.4,5.2,2.7
		c-1.8-0.1-3.3-0.4-4.7-1c-8.8-3.2-17.1-7.4-24.5-13.2c-5.2-4.1-10.1-8.4-15-12.8c-2.8-2.4-5-5.4-6.9-8.5c-1.9-2.9-3.8-5.6-4.5-9.4
		c-0.7-3.9-3.3-7.5-4.6-11.9c-0.7,1.4-0.4,2.2-0.2,3.1c2,7.3,4.6,14.4,7.7,21.3c0.2,0.5,0.5,0.9,0.7,1.3
		c6.2,9.9,13.8,18.7,22.7,26.2c1.1,0.9,2.3,1.6,3.6,1.9c9.3,2.4,18.5,5,28,6.4c1.7,0.2,3.5,0.2,5.2,1.4c-1,2.3-0.7,4.9-1.7,7.2
		c-1,2.4-2.5,4.6-3.9,7.2c3.7-0.1,5-2.8,7-4.7c0-2.4,0.7-4.7,0.6-7.2c-0.1-2.8-3-4.1-3.2-6.7c1.3-2.3,2.6-4.6,3.9-6.8
		c-3.8-6.4-9.4-11.3-13.6-17.3c5.4,5,10.7,10.1,14.9,16.2c1.1-0.6,2.1-0.9,2.6-2c-2.3-0.7-3.2-2.4-3.8-4.6c-0.6-2.2-1.4-4.4-2.4-6.4
		c-2.9-5.4-5.8-10.9-9.4-16c-2.6-3.6-5-7.3-7.4-11c-0.4-0.6-1.3-1.1-0.5-2.1c5.1,7.8,11.3,14.9,15.8,23.1
		c-2.4-7.6-6.3-14.5-9.2-21.9c0.5,0.5,1.1,1,1.6,1.5C731.1,551.9,732.9,556.4,735.8,560.4z M709.2,618.8c0.7-1.6,2.3-1.7,3.6-2.4
		s2.7-1.3,4.1-2c1.2-0.6,2.6-1,3.3-2.4c-7.7,3.9-15.9,6.2-24.6,6.2c4.6,0.7,9.1,1.2,13.7,0.5c1.1,1.2,2.6,0.8,3.9,0.6
		c3.5-0.7,6.9-1.7,10.4-2.2c5-0.8,7.3-4.2,9.5-9.2c-2,1.8-3.4,3-4.5,3.9c-1.1,0.5-1.4-0.6-2.4-0.2
		C721,614.3,715.4,617.1,709.2,618.8z M736.7,543c-1.1-0.3-1.4-1.3-2-2.1c-2.3-3.5-4.6-6.9-6.9-10.4c-1.1-1.7-2.4-3.3-4-4.5
		c-8.1-6.1-16.4-11.7-25.8-15.7c-0.8-0.4-1.7-1.3-2.9-0.5c0.4,1.1,1.3,1.4,2.2,1.8c1.4,0.6,2.8,1.2,4.1,1.9
		c13.3,7.1,24.5,16.8,33.2,29.2c0.8,1.1,1.4,2.4,2.6,3.2c0.3,0.7,0.6,1.4,0.9,2.1c0.2,0.7,1,1.4,0.3,2.3
		c-4.1-5.7-7.7-11.7-12.9-16.5c-1.3,1.8-2.1-0.9-3.6-0.3c4.8,7.4,9.9,14.3,14.2,21.7c4.4,7.5,6.8,15.8,9.2,24.5
		c0.2-0.7,0.3-0.9,0.3-1.1c-0.9-9.4-3.1-18.6-5.2-27.8c-0.4-1.8-1.1-3.8-3.2-4.7c0.6-1.2-1-1.9-0.6-3.1c0.5-0.4,0.9-0.9,0.6-1.6
		c-1.2-3.4-2.9-6.5-6-8.6c0.4,1.1,1.1,2.1,1.7,3.1C734.3,538.2,736.1,540.3,736.7,543z M774.8,668.8c-0.7,0.1-1.2-0.2-1.7-0.6
		c-4.1-3.1-8.3-6.2-12.3-9.4c-3.3-2.7-6.2-5.9-8.6-9.5c-0.4-0.6-1.1-1.2-0.1-2.2c1.5,1.9,2.9,3.7,4.3,5.5c1.6,1.9,3.5,3.3,5.7,4.4
		c-5.3-9-6.5-18.6-5.2-28.6c0.3-2.4,1.2-5,0.5-7.1c-0.8-2.3-0.7-4.4-0.9-6.6c-0.6-6.4-2.6-12.3-6.1-17.7c-1.8-2.8-4-5.4-7.1-6.9
		c-2.6,2.2-2.6,2.2-3.5,5.6c5,3.6,5.7,9.1,5.7,14.7c0,2.4-0.2,4.8-0.3,7.2c-0.2,4,0,8.1-0.6,12c-1.4,9.4,1,17.7,6,25.6
		c4.4,6.8,10.3,12,17.2,16.2c3.8,2.3,7.5,3.3,11.8,2.7c0.1-1.1-1.3-1.2-1.3-2.2c1.7,0,2.3,1.9,3.7,2c3.1,0,6.3,0,9.4,0
		c-5.7-3.6-12.3-4-18.1-7.5C773.4,667.9,774.5,668,774.8,668.8z M541.9,578.7L541.9,578.7c-0.3,2.6-1.6,5-2.7,7.4
		c-0.7,1.6-1.6,3.2-1.1,5.3c1.5,0.3,2.8,1.3,3.7,2.1c5.7-1,11.1-1.7,16.5-2.1c1.7-0.1,3.3-0.3,4.5-2c0-3.2,1.2-6.2,3.2-8.9
		c0.4-0.6,0.6-1.4,0.9-2.1l-0.1,0.1c0.6,0,0.9-0.5,1.2-0.8c1.8-2,2-4.6,2.3-7.1c0.4-3.7,1.4-7.1,3.3-10.4c0.7-1.2,1.6-2.5,1.5-4.3
		c-5.4,1.5-10.7,1.8-15.7,3.6c-5.1,1.9-10.4,3-15.5,4.7c-0.9,0.3-1.2-0.9-1.9-0.5c-9.7,5.8-17.6,13.1-20.5,24.9
		c1.9-0.7,3.6,0.7,5.4,0.1c1.1-1.6,0.1-3.8,1.9-5.1c0.5,1.9,0,3.7-0.1,5.4c0.8,0.7,1.5,0.9,2.3,0.3c1-2.9,1.3-6.2,4-9.2
		c-0.8,3.7-2.1,6.7-2.1,9.9c1.3,0.5,2.3,0.9,3.3,0.3C537.7,586.2,539.3,582.2,541.9,578.7z M491.1,577.2c-0.1-0.1-0.3-0.2-0.4-0.4
		c0.3-0.4,0.5-0.9,0.8-1.2c5.5-5,10.9-10.1,17.2-14.1c1.2-0.8,2.4-1.4,2-3.1c-1.3-1.3-3.1-0.9-5.1-1.2c-0.8-4-3.1-7.5-5.3-11
		c-2.1,0.6-4,0.9-6,1.2c-5.4,0.8-10.7,1.4-16.1,2.1c-8.7,1.2-15.2,5.8-20.6,12.3c-4,4.9-7.4,10.2-11.1,15.3c-1.4,1.9-1.9,4-1.8,6.4
		c1.2,0.5,2.1,0.3,3.1,0.2c4.7-0.2,9.3-0.5,14-0.2c2.3,0.1,4.6,0.2,5.7,2.4c2.5,0.4,4.8,0.5,7,1.1c5.7,1.6,11.5,1.6,17.3,1.6
		c8.2,0,16.3-1.6,24.6-0.3c0.8-2,1.6-3.8,2.4-5.7c1.7-3.9,3.9-7.5,6.8-10.8c4.1-4.6,9.2-7.7,14.6-10.6c1.4-0.8,3-1.2,3.9-2.8
		c-0.5-0.4-1-0.1-1.5,0c-3.5,0.5-7,1.6-10.5,1.3c-4.6-0.3-9.2-0.8-13.9-0.2c-0.1,0-0.3-0.3-0.8-0.7c4.1-0.9,7.4-3.2,11.3-3.4
		c1.4,0.2,1.7,1.8,3.1,1.9c0.7-0.1,1.6-0.2,2.1-0.3c1.4-0.5,1.4-1.8,2.5-2.3c6.2-0.3,12.4-1.5,18.7-1.7c-1.5,1-3,1.8-4.5,2.6
		c-2.7,1.5-2.7,1.5-4.1,3.5c8.9-2.9,18-4.1,27-6.2c-1.5-2.9-3.4-4.6-6-5.6c-2.2-0.8-4.3-1.3-6.6-1.4c-3.6-0.3-7.3-0.6-10.9-0.8
		c-1.6-0.1-2.9-1-4.7-0.8c-10.3,1.6-20.6,3.5-30.8,6c-2.9,0.7-5.4,2.1-8.3,3.4c2,2.2,5,1.3,6.6,3.5c1.1,1.6,3.5,4.5,3.7,5.4
		c-1.9,0.1-3.2-1.3-4.8-1.7c-2.2,0.9-4.1,2.1-5.8,3.6C501,569,496.1,573.1,491.1,577.2z M385,533.8c0.2-0.3,0.4-0.5,0.6-0.8
		c3.1-2.3,5.3-5.3,7.6-8.4c5.8-7.7,10.6-16,14-25c1-2.5,1.4-5,1-7.7c-0.7-4.4-2.1-8.6-3.3-12.8c-0.8-2.9-1.2-6-2.8-8.6
		c-1.3-2.2-2.1-4.6-2.6-7.1c-0.4-1.9-1-3.6-2.2-5.2c-1.1-1.5-1.9-3.1-1.7-5.5c4.9,6.2,8.1,12.8,10.6,19.6c3,7.8,5.4,15.8,8.4,23.5
		c3.6,9.7,7.1,19.4,8.7,29.7c0.7,5,1.8,9.9,3.4,14.7c4.1,12.1,9.6,23.6,13.2,35.9c0.4,1.5,1,2.9,1.4,4.4c0.9-0.4,0.9-0.9,1-1.4
		c0.5-2.2,0.7-4.5,2.9-5.8c0.4-0.2,0.5-0.8,0.7-1.3c2.5-6.7,7.5-11.3,12.9-15.5c1-0.8,2.2-1.4,2.9-2.4c3.9-5,9.5-6.9,15.4-8
		c6.3-1.2,12.8-1.7,19.2-2c0.8,0,1.8,0.3,2.4-0.7c-1.2-2.8-2.4-5.6-3.5-8.3c-1.9-4.5-3.5-9.2-5.6-13.6c-3.1-6.6-5.8-13.5-8.5-20.2
		c-3.7-9.1-7.4-18.2-11.4-27.2c-5.5-12.3-12.5-23.7-20.2-34.7c-6.5-9.3-12.8-18.7-20.8-26.9c-6.6-6.8-14.2-8.1-22.9-6.1
		c-2.3,0.6-4.6,1.2-7,1.5c-2.5,0.2-4.9,1.1-7.4,1.7c-3.1,0.8-4.7,2.7-5,5.9c-0.3,2.6-1.4,4.8-3,6.8c-3.5,4.4-6,9.2-6.6,15
		c-0.3,2.9-0.7,5.8-1.4,8.6c-3.1,12.1-5.2,24.4-10.2,36c-0.8,1.7-1.2,3.6-1.7,5.4c-1.6,5.5-3.3,10.8-4,16.5c-0.5,4-2.6,7.6-3.7,11.5
		c-3.2,11.8-5.8,23.8-9.8,35.4c-1.2,3.3-1.2,7-2.4,10.2c-2.2,5.6-5.4,10.8-8.4,15.5c-1.1,0.7-1.5-0.4-1.6-0.4
		c-1.6,1.1-2.2,2.3-3.4,2.9c-1.4,0.8-1.6,2.2-1.3,3.7c0.9,4,2.1,7.8,5.7,10.4c1.5,1,2.5,2.3,2.3,4.2c4.3,0.3,7.2-0.7,9.5-3.1
		c0.3,0,0.7,0.1,1,0.1c2.5-0.7,3.3-2.8,4.2-5c1.4-3.6,2.3-4.2,6.2-4c1.5,0,3,0.3,4.7-0.2c0.2-0.6,0.7-1.2,0.8-1.9
		c0.9-5.5,3-10.6,5.1-15.7c1.2-2.9,2.6-5.8,3.4-8.8c2-8.1,6-15.1,11.1-21.6C383.7,535.9,384.8,535.1,385,533.8z M367.4,597.5
		c-0.1-1-0.2-2-0.4-3c-0.5-1.7-0.6-3.2,1-4.2c-0.3-1-0.3-2-1.3-2.4c-3.8,0-7.6,0-11.7,0c-0.1,3.6-3,5.5-5.5,8.2
		c2,0.2,3.4,0.5,4.9,0.5C358.7,596.9,363.1,597.1,367.4,597.5c0.4,0.3,0.9,0.5,1.4,0.5c2.8-0.2,5.5-0.2,8.2-1s5.5-1.5,8.2-2.2
		c0.5,1.5-0.5,1.9-1.2,2.2c-2.8,1-5.5,2.4-8.4,3.2c-6,1.6-12,0.5-18-0.3c-8.7-1.1-17.1,0.1-25.5,1.6c-3.1,0.6-6.1,1.8-9.6,2.9
		c3.9,2.3,7.8,0.8,11.8,1.6c1.3-2.4,3.9-2.7,6.4-3.1c2.3-0.4,4.3-2,7.2-1.5c-1.9,2.2-4,2.5-6.1,3.1c-3.9,1.1-3.9,1.1-5.5,3
		c3.6-1,6.9-2,10.2-3c0.1,0.3,0.2,0.7,0.4,1c-3.8,2.8-8.6,3.3-12.8,5c-4.5,1.8-9,3.5-13.9,5.4c3.3,1.6,6.1,2,9.2,1.1
		c1-0.3,2-0.6,3-0.5c3.8,0.4,7.2-0.5,10.6-2c1-0.5,2.5-1.3,4,0.2c-6.6,3.2-13.3,5.4-20.3,7.5c2.3,1.6,4.4,2.5,7.2,2.4
		c1.7-2.1,4.6-1.1,6.8-2.2c3.2-1.5,6.7-1.3,9.9-1.1c4.9,0.4,9.6,1.4,14.6,0.3c2.3-0.5,4.7-0.6,6.8-1.6c6.3-3,13.1-3.5,19.8-3
		c4.9,0.4,9.8,0.9,14.7,1.2c5.2,0.2,10.3,0.4,15.5,1c13.3,1.4,26.7,1.9,40.1,2c1,0,2,0.2,2.9-0.5c1.1-2-1-3.5-0.9-5.5
		c3.1,0.8,5.3,2.4,6.6,5.4c4.9-0.8,9.3,0.6,13.8,2.1c1.8,0.6,3.6,1.1,5.5,1.5c1.8,0.4,3.6,1.1,5.3,1.9c4.4,1.9,8.8,3.9,13.4,5
		c10.1,2.5,20.2,5.7,30.6,7.2c1.6,0.2,3.2,0.7,4.8,1.1c9,2.1,17.6,5.5,26.4,8.2c3.8,1.2,7.7,2.5,10.7,5.4c0.4,0.4,1.1,0.7,1.6,0.9
		c6.8,1.8,13.3,4.9,20.2,6.3c3.8,0.8,7.6,1.8,11.3,3.1c3,1.1,6.2,1.7,9.3,0.9c1.9-0.5,3.7-0.5,5.6-0.5c5.3,0,10.6,0,15.7,0
		c0.6-1.3,1.1-2.3,1.6-3.4c2-4.9,3.1-9.8,1.8-15.1c-1.1-4.5-3.6-8.3-5.2-12.5c-3-8-8-14.4-13.9-20.4c-3.8,1-8.8,1.3-11.7,0.6
		c3.1-1.8,6.3-2.4,9.1-3.5c-9.2-13-22.6-19.3-36.4-25c-2.1,0.9-4.1,1.7-6.2,2.1c-7.1,1.3-14.1,3-20.2,7.1c-1.3,0.9-2.7,1.2-4.2,1.4
		c-7.3,0.7-14.6,0.9-21.8,2.4c-2,0.4-4,0.8-6,0.4l0.1,0.1c1.7-1.8,4.3-1.7,6.7-3.3c-3.6-0.5-6.7-0.7-9.8-1.4
		c-4.1-0.9-8.3,0-12.4-0.7c-5.3-0.9-10.6-0.7-15.8,0.2c-1.3,0.2-2.5,0.4-3.8,0.1c-5.5-1.3-11.1-0.6-16.6-1.1
		c-4.5-0.3-8.8-1.2-12.5-3.8c-1.6-1.1-3.1-1.5-5-1.5c-5.4,0.1-10.9,0.3-16.2,1.2c-12,1.9-24.1,3.8-36,6.3c-6.9,1.5-14,1.5-21,2.8
		c-1,0.2-2,0.1-2.5-1.2c3.5-2.3,7.5-2.8,11.5-2.9c3.4-0.1,6.7-0.6,10.1-1.3c-0.4-1.4-0.7-2.6-0.9-3.1c0.8-5.4-0.7-10.3,1.2-15.7
		c2.2-2.5,5.8-2.9,9.9-2c4.7,1,9.4,0.2,14.6,0c-1.3-3.3-2.5-6-3.6-8.8c-1-2.5-2.4-4.8-2.6-7.5c-0.2-1.9-0.9-3.6-1.7-5.4
		c-2-4.5-4-9-4.9-13.9c-1.8-9.7-4.1-19.3-7.2-28.6c-0.9-2.7-2-5.3-3-8c-0.7,3-1.8,5.7-2.9,8.3c-2,4.7-4.8,8.9-6.9,13.4
		s-5.4,7.8-8.7,11.2c-7.9,8.2-13.7,17.7-17.6,28.4c-3,8-5.2,16.3-8.5,24.2c-0.2,0.4-0.2,0.9-0.3,1.4c1,0.7,2.4,0.1,3.2,1.1
		c1.1,1.6,1.1,3.5,1.4,5.3c-0.5,0.6-0.9,1.1-1.2,1.5c0.1,1.5,1.4,2.8,0.9,4.5C369.1,597.8,368.2,597.8,367.4,597.5z M500.5,537
		c0.1-3.2,1.3-5.6,2.8-7.8c1.4-1.9,1.8-4,1.9-6.4c0.2-6.1,0.7-12.1,1.4-18.1c0.5-3.9,1.3-7.8,1.4-11.6c0.1-6.1-1-12.2,0.5-18.4
		c0.8-3.7-0.3-7.5-0.7-11.3c-0.6-5.5-1.2-11.1-1.1-16.6c0-2.9,0.6-5.6,2.3-8.8c0,3.3,0,5.9,0,8.5c0,0.9-0.3,1.8-0.1,2.6
		c1.5,6.8,1.8,13.7,2.3,20.7c0.4,6.2-0.1,12.3,0,18.4c0.1,6.2-0.9,12.3-1.4,18.5c-0.5,5.9-0.8,11.8-1.4,17.8
		c-0.3,3.5-1.1,7-1.3,10.5c-0.2,4.4-0.6,8.8-0.1,13.2c0,0.4-0.1,0.7-0.8,0.9c-2.5-4.2,0.6-9.1-1.2-13.7c-1.9,1.9-2.3,4.3-3.6,6.4
		c1.5,3.2,2.9,6.3,4.4,9.6c3.8-2.4,7.8-3.7,11.9-4.6c6.2-1.5,12.3-3.4,18.7-4.6c4.7-0.9,9.5-1.6,14.2-1.9c3.1-0.2,6.3-0.2,8.6,2.4
		c2.3-0.2,4.5-0.1,6.6,0.5s4.1,1.6,6.5,2.5c0-6.3,0.4-12.2-0.6-17.8c-2.5-13.7-3.2-27.6-6.3-41.2c-2.6-11.1-4.5-22.2-6.7-33.4
		c-1.5-7.7-5.2-14.7-7.5-22.2c-1.7-5.5-4.6-9.4-10-11.9c-4.4-2.1-8.9-4.2-13.5-5.9c-1.6-0.6-3.2-0.6-4.9-0.2
		c-6.5,1.4-11.4,5.1-13.9,11.1c-1.5,3.7-3.6,7.4-3.9,11.6c-0.4,4.9-1.6,9.7-1.9,14.6c-0.2,4.1-0.7,8-2.2,11.8
		c-1.4,3.4-3.2,6.7-4.1,10.2c-2.4,9.2-4.5,18.4-6.4,27.6c-0.6,3.1-0.9,6.2-2.2,8.9c2.4,5.9,5.5,11.3,7.2,17.2
		C496.5,530,497.1,533.8,500.5,537z M325,580.1c-2.8,3.6-6,6.4-8.8,9.7c-3.2,3.8-7.1,5.5-11.9,5.4c-3.3,0-6.7,0.4-10.1,0
		c-0.4,2.4-0.4,4.5-1.2,6.4c-1.1,2.6-1.6,5.3-2.2,8c-0.5,2-0.3,3.9,0.5,5.9c2.5,6.4,7.3,9.7,13.8,11c7.1,1.3,14.1,0.2,21.2-0.2
		c-1.3-2.4-3.9-2.4-5.5-3.8c0.2-1.3,1.1-1.5,1.9-1.7s1.7-0.1,2.3-0.8c-6.5-2.6-6.5-2.6-7.6-5.3c5.1-1.9,10.8-2.6,15.6-6.9
		c-11.1,0.5-12.4-1.1-13.9-5.6c5.6-0.4,10.6-3,16.4-3.4c-0.9-1.5-1.9-2.1-2.8-2.6c-3.1-1.9-4.7-4.9-5.5-8.3
		C326.8,585.2,326.2,582.8,325,580.1z M526.5,639.5c-1.2-0.4-1.8-0.7-2.4-0.8c-7.5-1.6-14-5.6-21.4-7.5c-3.4-0.9-6.4-3.4-9.7-3.9
		c-7.4-1.2-14.4-4.8-22.2-4.3c-1.1,0.1-2.2-0.5-3.2-0.7c-1.3,0.3-2.5,0.7-3.7,1s-2.5-0.1-3.6,0.5c2.3,3.7,5,6.7,8.8,9.1
		c10.2,6.5,21.6,8.1,33.3,7.9c5.9-0.1,11.8-0.2,17.8-0.1C522.2,640.7,524.1,640.4,526.5,639.5z M774.2,641.4
		c0.6-3.7,0.4-7.6,1.9-11.1c1.4-3.2,2-6.5,2.6-9.8c0.4-2.1,0.4-4-0.9-5.8c-1.1-1.5-1.7-3.3-2-5.2c-0.2-1.1-0.6-2.2-1.1-3.2
		c-2-4.5-4.4-8.8-6-13.5c-2-5.9-6.2-9.7-11.1-14c0.3,2.1,0,3.5-0.2,4.8c0.2,0.3,0.3,0.4,0.4,0.5c0.4,0.2,0.9,0.5,1.3,0.7
		c3.5,1.5,5.8,4.2,6.6,7.8c1.7,7.5,3.3,15.1,2.1,22.9c-0.3,2-0.3,4.1-0.5,5.9c0.7,0.5,1.3-0.2,1.6,0.8c-2.4,1.2-2.5,3.7-3,6.1
		c-0.4,2.3-2.2,4.6-0.9,6.9c1.2,2.2-0.5,4.8,1.7,6.9C769.1,641.9,771.7,642.4,774.2,641.4z M434.3,572.4c-7.1,0.8-14.1,3-20.6-0.3
		c-3.1,1.6-3.1,4.2-3.3,6.7c-0.1,2.1,0.2,4.3,0.1,6.4c-0.1,2.1,0.3,3.7,2.3,5.1c8.6-2.7,17.6-4.2,26.9-5.7
		C437.7,580.3,436,576.4,434.3,572.4z M744.9,588.8c4.2,3.6,7.9,7.4,9.6,12.5c4.2,1.1,5.6,3.8,5.8,7.6c0.4,7.5-0.7,14.9-1.3,22.3
		c-0.9,10.2,2,19.4,7.1,28.1c0.9,1.4,2,2.1,3.6,1.6c2.7,2.6,5.5,3.9,9.3,3.8c-0.3-0.4-0.8-0.6-1.2-0.9c-5.6-4.5-9.8-10.2-12.9-16.6
		c-2.1-4.4-2.9-9.3-2.5-14c0.7-8.2,0.5-16.4,1.5-24.5c0.2-1.6-0.3-2.9-1-4.4c-3.7-7.5-10.2-12-17.1-16.1
		C745.7,588.3,745.4,588.6,744.9,588.8z M752.9,583.6c0.4-0.8,0.2-1.4,0.1-2c-1.2-7.4-2.8-14.8-4.6-22.2c-1.4-6-3.1-11.9-4.9-17.8
		c-1-3.2-2.5-6-4.5-8.7c-6.3-8.6-15-14.1-23.7-19.8c3.7,3.5,6.5,7.7,9.8,11.6c1.8,2.1,3.6,4.4,5.9,5.8c2.6,1.6,4.2,3.9,5.7,6.4
		c6.2,10.8,9.6,22.4,11.3,34.6c0.6,4.2,1.1,8.4,1,12.6C750.7,584.3,751.9,584.2,752.9,583.6z M741.1,624.3c-2.9,3.7-3.5,8-3.7,12.4
		c-0.4,8.7,1.9,16.8,6.1,24.3c0.4,0.8,0.7,1.9,2.1,2.2C740.5,650.6,740.3,637.5,741.1,624.3z M752.8,590.9
		c4.9,2.7,7.9,7.1,10.7,12.4C764,597.1,758.4,590.4,752.8,590.9z M758.1,615.5c-0.2-4,1.9-8.5-2.3-11.7
		C756.6,607.7,757,611.6,758.1,615.5z M702.9,594.1c2.9,2.4,4.8,6.4,9.4,6C709.2,598.1,706.1,596,702.9,594.1z M741.8,620.3
		c0.1-1.5,0.2-2.7,0.2-3.8s0.6-2.2-0.2-3.9c-1.3,3.6-1.6,6.9-2.8,9.9C740,621.8,740.3,620.4,741.8,620.3z M793.1,677.4
		c-4-0.3-7.3,0.1-10.5,0.9C786,679.1,789.3,678.7,793.1,677.4z M749.1,588c0.2,0.9,0.9,1.4,1.4,1.1c2.3-1.6,4.7-0.7,7.1-0.4
		C754.8,586.6,752,586.8,749.1,588z M332.7,574.4c-1.6,0.9-2.9,0.9-2.2,2.5C331.4,576.6,331.9,575.8,332.7,574.4z"/>
	<path d="M859.6,326c-0.4,4.3-0.7,8.5-1.2,12.8c-0.2,1.6-0.1,3,0.6,4.6c0.7-1,0.5-2.1,0.5-3.1c-0.1-4.7,0.9-9.2,2.3-13.7
		c1.3-3.9,1.2-7.9,1.6-11.9c0.7-5.6,1.2-11.3,2-16.9c0.6-4.8,0.8-9.5-0.2-14.3c-1.1-5.8-3.9-10.3-8.5-13.9c-0.4-0.3-0.8-0.6-1.1-1
		c-0.1-0.1-0.1-0.2-0.2-0.3c6.8-2,12.3,1.2,14,8.3c0.9,4,0.8,8,0.5,12.1c-0.7,8.2-1.7,16.3-2.7,24.4c0.7,0.6,1.1-0.6,2,0.1
		c-8.3,16.8-9.1,34.3-4.7,52c2.8,1.5,5.1,1.7,7.6,1.4c5.3-0.8,10.5-1.8,15.4-3.7c0.4-0.1,0.7-0.3,1.1,0.1c-0.3,1.5-2.2,1-2.7,2.4
		c3.4,0.1,6.5-1.1,9.5-2.5c-3.1,3.1-7.2,4.1-10.7,6.2c5.9-1.1,10.9-4,15.7-7.6c-1.1,2.2-3,3.6-4.9,4.9c-6.8,4.4-14.4,6.8-22.5,6.9
		c-4.2,0.1-8.3-0.1-12.5-0.3c-3-0.2-6-0.9-8.7-2.5c-1.2-0.7-2.3-1.4-4.1-1.8c1.1,2.4,2.8,3.6,4.6,4.8c1.8,1.2,3.8,2.1,5.8,2.7
		c6.4,2,12.9,3.3,19.7,3.8c-0.5,1.4-1.6,1.5-2.7,1.3c-4.1-0.5-8.1,0.2-12.1,0.3c-6.9,0.1-13.3-1.2-19-5.3c-1.8-1.3-2.7-2.8-2.4-4.8
		c0.4-2.7-0.5-5-1.7-7.5c-2.2-0.6-4.6-1.3-7-2c-0.9,1.7-0.2,3.8-1.5,5.8c-0.8-1.2-0.4-2.3-0.4-3.2c0-1,0.1-2,0.1-3.2
		c-2.1-1.9-3.1-4-2.5-7.2c0.5-2.9-0.6-6-0.3-9c0.7-7.9,3-15.3,5.5-22.8c2.5-7.2,5.1-14.3,7.2-21.5c0.8-2.7,1.3-5.4,0.8-8.2
		c-0.5-3.2,0.4-6.3,0.6-9.4c0.4-1.3,1.8-0.9,2.4-1.8c0.4-0.8-0.6-2,1-2.8c0.8,7.9,4.5,15.1,5.2,23c0.6-10,0.4-19.7-5.4-28.5
		c0.1-1.4,1.8-0.6,2.2-1.6c2-5.2,1.3-10.4,0.1-15.6c-2-8.2-4.9-16.2-7.6-24.2c-0.4-1.2-1.1-2.2-0.6-3.7c4.6,10.1,8.8,20.3,11,31.3
		c1.1-4.1,0.5-8.1,0.1-12.1c-0.5-5.7-2.4-11.1-5.2-16.1c-2.9-5.2-4.9-10.8-7.9-15.9c-4-7.1-9.6-12.6-16.9-16.3
		c-3.5-1.7-7.1-2.4-11.7-1.7c5.9,1.5,11.4,1.9,16.7,5.8c-3.7-0.6-6.4-2.4-10.3-2.2c8.5,4,15.6,8.2,19.6,17.1
		c-9-10.3-19.3-16.2-33-16.5c-0.4-0.2,0.2-1,0.2-1.9c-1.4-0.7-3.7,0.8-4.3-1.6c-9.3,1.6-16.6,7.7-25.5,11c-1.2,3.6-3.7,6.8-7.8,8.1
		c-5.5,1.8-11.2,3-17.1,2.7c-0.8,0-1.5-0.2-2.4,0.8c1.1,4.1,3.5,7.8,6.1,11.6c-2,1.1-3.1-0.5-4.5-1.4c-1.7,1.2-3.8,1.6-5.2,3.3
		c-0.5,2.8,1.6,4.6,2.8,6.7c0.8,1.4,0.8,1.3,0,3.3c-3.6-0.2-1.9-4.7-4.6-5.8c-2.6,0-3.7,2-4.1,4.1c-0.5,2.5-1.9,4.1-4.1,5
		c-1.9,0.8-2.6,2.6-3.9,3.8c-0.1,1.4,0.2,2.5,0.9,3.4c2.7,3,4.7,6.5,8,9c1.4,1,2.5,2.5,3.3,3.9c-0.2,1.1-1.5,1.1-1.6,1.6
		c-0.4,1.5,1.6,1,1.1,2.4c-1.3,0.6-2.4-0.7-4-0.2c-1.6,1.2-2.9,3.2-5.4,4.2c2.7,3.5,7.2,5,9,9.4c4.8,1.4,9.7,2.9,13.3,5.6
		c1.6,1,2.5-0.8,3.4,0.2c0.4,1.1-0.9,1-1.3,1.9c0.6,1.5,1.5,3.2,2.7,4.6c4.9,6,6.3,12.8,4.8,20.4c-0.8,4-1,8-1.8,12
		c-1,4.9-3,9.4-6.9,12.7c-0.6,0.5-1.1,1.1-2,1c-0.3-1.2,0.7-1.8,1.2-2.7c2.3-4,4.2-8.1,4.8-12.6c0.7-5,1.5-10,2.2-15
		c0.3-1.9,0.1-3.7-0.4-5.6c-1.2-5.3-5-9.3-7.4-13.9c-0.3-0.6-1.1-1-1.8-1.4c-5.6-3.5-11.7-5.9-18.5-6c-10.6-0.2-20.2,2.3-28.4,9.4
		c-1.1,1-2.4,1.8-3.7,2.7c-0.5,0.3-1,0.1-1.1-0.5c2.8-2.5,5.7-4.9,8.5-7.4c3.9-3.5,8.4-5.5,13.5-6.3c2.1-0.3,4.1-0.6,6.4-0.9
		c-4.2-4.1-12.6-8.5-17.8-9c-3.5-0.4-7.2-0.5-10.4,1.3c-4,2.2-7.5,5.3-9.6,9.4c-2,3.9-3.9,7.9-5.1,12.2c-0.5,1.9-1.2,3.8-0.7,6.3
		c3.1-0.7,6-1.3,8.9-2.1c1.2-0.3,2.1-1.3,2.4-2.7l-0.1,0.1c2.3-0.9,3.2-3.6,5.7-4.5c-0.2,1.6-2.1,2.1-1.7,3.7c-2,0.5-1,2.6-2.1,3.7
		c-1.1,0.9-2.4,1.4-3.7,1.8c-4.5,1.3-8.9,2.7-13.4,4c-13.9,4-27.6,8.9-42,11.3c-5.6,1-11.3,2.2-16.9,0.7c-3.9-1.1-7.8-1.8-11.8-2.3
		c-7.6-0.8-15.3-2-22.9-2.4c-10.6-0.5-21.1-1.7-31.5-3.7c-8.6-1.6-17.1-3.3-25.6-5.2c-3.6-0.8-7.3-0.2-10.9-1.2
		c-7.9-2.1-15.7-4.6-23.9-5.6c-1.5-0.2-2.9-0.7-4.1-2.6c9.5,0.1,17.9,3.2,26.5,5.5c-0.9-3.5,0.3-6.4,1-9.3c2.2-9.1,7-16.7,14.3-22.7
		c1.1-0.9,2.3-1.8,3.6-2c4.4-0.6,6.5-4.1,10.4-6.5c-3.1-0.3-5.1,0.4-7.3,0.6c-2.3,0.2-4.4,0.9-6.8,0.6c-2.1-0.3-4.2-0.7-6.4-0.8
		c-2.1,0-4.2,1.3-6.5-0.1c2.3-1.2,4.8-0.8,6.4-2.8l-0.1,0.1c1.8,0.2,3.4-1.2,4.6-0.9c1.7,0.4,1.9,1.7,3,2.1c1-0.2,2.1-0.4,3-0.6
		c0.9-0.6,0.9-1.8,2.4-2.1c7.9-0.8,16.3-1.7,24.7-2.6c1.4-0.1,2.8-0.4,4.1,0.1c0.8,0.2,1.4,0.6,1,1.8c-3.6-1-7.1,0-10.6,0.6
		c2.6,0.4,5.2,0.3,7.7,0.7c2.7,0.5,4.5,3.3,7.6,2.8c0-2.9,0-5.7,0-8.5c-2.8-1.8-5.7-3.2-9-3.6c-2.9-0.3-5.8-0.5-8.7-0.8
		c-2.5-0.2-5,0-7-1.1c-13.9,2.2-27.7,3.6-40.8,9.5c2,2.3,5.2,1.4,6.5,3.7c1.1,1.9,3.4,3.1,4.2,5.9c-2.2-0.9-3.8-1.6-5.7-2.4
		c-8.1,6.1-16.4,12-23.1,19.8c0.8-2.1,2-4,3.6-5.4c5.6-4.9,10.8-10.2,17.3-14c1.1-0.7,2-1.5,1.9-2.9c-1.4-1.5-3.3-0.8-5.2-1.3
		c-1.3-3.9-3-7.6-5.5-11c-1.6,0.4-3,0.9-4.5,1c-5.6,0.7-11.3,1.5-16.9,2.2c-9.1,1.2-16,5.9-21.5,12.8c-3.6,4.5-6.8,9.4-10.3,14.1
		c-1.6,2.1-2.3,4.4-2.5,7c-0.1,1.6,0,3.3-0.3,4.9c-0.4,2.8,0.6,5.4,2,7.6c0.9,1.5,1.5,3,1.6,4.8c3.5-0.3,6.4-1.4,9.4-2.5
		c1.2-0.4,2.3-0.9,3.6-1.1c8.5-1.3,17-1.9,25.4-3.7c0.6-0.1,1.2-0.5,1.8,0.6c-2.5,2.4-5.9,1.6-8.7,2.6c-1.4,0.3-0.7,2-1.9,2.8
		c-1.3,0.1-2.8-0.3-4.3-0.6c-1.1-0.2-2-1.2-3.2-0.9c-3.8,0.7-7.8,0.9-11.5,2.1c-3.6,1.2-7.1,2.6-10.9,2.9c0,1.3,0.7,2.2,1.5,2.9
		c2.8,0.9,5.6,0.6,8.2-0.4c1.4-0.5,2.9-0.9,4.4-1.1c3.5-0.3,7-0.6,10.8,0.5c-2.2,1.3-2.2,1.5-3.8,1.3c-6.3-0.7-12,1.9-18.2,2.6
		c0.8,1.5,2,1.9,3.2,2.1c4.4,0.7,8.8,0.8,13.2,0.3c3.6-0.4,7-0.4,10.5,0.6c7.4,2,14.9,3.9,22.3,5.7c1.5,0.4,3.2,1,4.8,0.4
		c0.3-0.1,0.6-0.4,0.8-0.4c0.8-0.9-0.3-2.2,0.8-2.9c1.3,0.6-0.2,3.1,2.1,3c-2,3.1-3.2,3.7-6.5,3.1c-0.6-0.1-1.2-0.2-1.8-0.4
		c-6.5-1.8-13.1-3.7-19.6-5.6c-3-0.8-6-1.8-9.3-1.7c-6,0.2-12,1.7-18.7-0.1c4.6,8.2,9.6,15.2,16.8,20.1c9.9,6.5,21.2,7.8,32.6,7.8
		c3.3,0,6.5-0.2,9.8-0.2c4.5,0,8.9,0,13.4,0c0.1-0.2,0.3-0.5,0.4-0.7c-8.1-4.3-11.3-11.3-11.3-19.8c-2.2-0.9-4.1-1.6-6-2.3
		c-1-1.4,0-2,1.2-2.7c0.3,1.6,1.6,1.7,2.8,2c5,1.5,9.8,3.3,14.6,5.4c5.8,2.5,11.6,5.1,16.4,9.3c3,2.6,6.2,4.7,9.8,6.3
		c8.2,3.7,16.7,6.6,25,9.9c3.2,1.3,6.5,2.1,9.9,2.6c6.1,0.9,12.2,1.9,18.3,2.9c7.5,1.3,15,1.3,22.3-1.8c0.9-0.4,2-0.3,3-0.3
		c4.8,0,9.6-0.1,14.4,0.5c9.3,1.2,18.7,0.7,28,0.9c6.6,0.1,13.1-0.6,19.5-2.1c6.8-1.5,13.4-3.7,20.3-4.5c2.4-0.3,4.8-0.7,7.3-0.1
		c-10.9,4.4-22.7,5.7-33.8,9.6c0.6,1.2,1.5,1.6,2.6,1.6c9.9,0.3,19.7-0.5,28.9-4.5c4.5-2,9.1-3.7,13.8-5c5-1.4,9.9-3.2,14-6.4
		c0.5,0.2,1,0.4,1.5,0.5c1.1-0.1,1.6-1.7,2.9-1.5c0.2,1.6-0.7,2.5-1.9,3.4c-2.5,1.8-5.1,3.2-8,4.3c-5.1,2-10.1,3.9-15.2,5.7
		c-1.8,0.6-3.4,1.6-5.2,2.3c-7.8,3.5-16.2,4.8-24.6,5.3c-4.3,0.3-8.6,0.2-12.9,0.3c-1.5,0-3.1,0.1-4.5-0.3c-5.9-1.6-11.9-2-18-2.2
		c-7.3-0.3-14.5-1.4-21.8-2.4c-8.1-1.2-16.3-1.7-24.4,0.1c-2.7,0.6-5.5,0.3-8.3-0.2c-5.2-1-10.4-2-15.7-2.7
		c-6.9-1-13.4-3.5-20.1-5.5c-3.1-1-6.2-2-9.5-2.5c-8.7-1.4-17.4-3.1-26.3-2.9c-4.9,0.1-9.9,0-14.7,0.6c-6.3,0.8-12.6,0.9-18.9,0.9
		c-10,0.1-19.9-1.6-29.1-5.9c-2.9-1.3-5.6-3-7.9-5.2c-5.2-5-9.9-10.5-13-17.1c-0.6-1.4-1.5-2.6-1.3-4.3c0.2-1.2-0.6-2.2-1.3-3.1
		c-1.5-2-2.5-4.3-3.8-6.5c0.4-0.7,0.7-1.4,1-2c-0.2-0.2-0.4-0.4-0.5-0.4c-7-0.2-13.9-1-20.7-2.1c-3.8-0.6-7.3-1.9-10.8-3.5
		c-2.9-1.4-5.4-3.4-5.9-7.3c1.1-2,0.6-4.5,0.1-6.9c-0.5-2.5,1.4-4.8,0.4-7.4c3-3.4,6.7-3.9,10.9-2.9c4.6,1.1,9.2,0.1,14.1,0
		c-0.8-3.5-2.3-6.3-3.5-9.2c-1.2-2.8-2.4-5.5-2.7-8.6c-0.3-2.4-1.8-4.4-2.7-6.6c-2.9-6.7-4-13.8-5.6-20.8c-2-9.1-4.6-18-8.3-27.3
		c-1.9,8.7-6.3,15.6-10.1,22.8c-1.9,3.6-4.2,6.5-7,9.2c-4.8,4.7-8.8,10.1-12.5,15.7c-2,3.1-3.4,6.7-4.9,10.2
		c-4.1,9.5-6.3,19.7-10.6,29c1.1,1.1,2.5,0.5,3.6,2c0.5,1.8,2.2,4,0,6.4c1.6,5.9,3.4,11.8,4.8,17.8c0.8,3.4,2.5,6.3,3.6,9.6
		c0.5,1.5,1.8,3.2,0.1,5.1c-1.9-1.1-2.5-2.9-3.3-4.7c-3.9-9-6-18.4-7.7-28c-0.2-1.1,0.9-1.4,1.2-2.2c0.1-0.9-0.2-1.7-1-2.5
		c-3.6,0-7.4,0-11.4,0c-2.8,7.4-8.6,11.2-16.3,12.6c-2-1.5-3.9-3-5.9-4.2c-3.5-2.2-5.2-5.5-5.9-9.3c-0.4-2.3-1.3-4.5-2.2-7.2
		c-2.7,4.3-6.5,7.2-9.5,10.8c-2.5,3-5.8,4.5-9.6,4.5c-3.8,0-7.5,1.1-11.5-0.2c-0.4,5-2.5,9.2-3.4,13.7c-1,5,1.3,11.1,5.4,14
		c4.2,2.9,8.7,4.1,13.8,4.3c5.2,0.2,10.3-0.7,15.5-0.6c0.9,0,1.9-0.2,2.6,0.2c3.6,2,7.9,2.7,11.2,5.4c0.7,0.6,1.6,0.8,2.4,0.9
		c5.7,0.8,11.5,1.9,17.3,1.6c3.8-0.2,7.5-0.9,11.2-1.5c1-0.3,1.1-1.4,2-1.9c3.6,0.9,4.4-2.3,5.7-4.7c1.6,0.7,1.7,1.7,0.7,2.7
		c-1.4,1.6-3.3,2.8-5.2,3.8c-3.2,1.7-6.8,2.6-9.8,4.9c-0.4,0.4-1.2,0.4-1.8,0.4c-7.8,0.7-15.4-0.4-22.8-2.7c-1.5-0.5-2.7-1.3-3-2.7
		c-1.7-0.6-3.3-0.9-4.5-1.7c-4-2.4-8.3-2.1-12.5-1.7c-5.1,0.5-10.1,0.4-15.1-0.5c-7.9-1.4-13.9-5.6-15.6-13.9
		c-0.7-3.4-0.9-7.2,0-10.7c1.1-4,2.3-8,5-11.6c3.5-0.2,7.1-0.3,10.7-0.5c1.3-0.1,2.5-0.1,3.8-0.3c2.1-0.3,3.8-1.2,5-3.1
		c2.2-3.5,5.3-6.4,6.6-10.4c4.4-3.8,9.7-5.8,15.1-7.6c3-4.4,5.4-9,6.5-14.3c1.3-6.5,3.5-12.9,5.3-19.4c4.2-15.3,7.3-31,11.7-46.2
		c0.2-0.7,0.4-1.5,0.5-2.2c1.2-11,5.8-20.9,10.3-30.7c0.1-0.2,0.2-0.5,0.3-0.7c3.1-4.4,3.7-9.5,3.9-14.7c0.3-8.4,2.9-16.1,8-22.8
		c1.1-1.5,1.7-3.1,2.2-4.8c1.1-4.4,4-7.1,8.3-8.4c2.7-0.8,5.4-1.5,8.2-1.4c1.5,0.1,2.8-0.4,4-0.9c8.6-3.7,16.2-2.1,22.9,4.2
		c1.6,1.5,3.6,2.2,5.2,3.7c5.8,5.2,10.8,10.9,15.3,17.3c3.8,5.4,7.8,10.6,11.2,16.2c6.4,10.5,13.2,20.9,16.5,33.1
		c0.9,3.1,2.3,6.2,3.8,9.1c2.8,5.6,5.1,11.5,7.6,17.3c0.7-0.4,0.9-1,0.9-1.7c0.9-9.5,4.6-18.3,6.1-27.7c0.9-5.4,3.2-10.4,5.1-15.4
		c0.7-1.8,1.1-3.6,1.3-5.5c0.3-3.8,0.3-7.7,1.6-11.2c2.1-5.7,2.3-11.9,4.9-17.4c0.4-0.9,0.6-1.9,1.9-2c-0.2,2-0.3,4-1.8,5.7
		c-0.5,0.5-0.7,1.4-0.8,2.1c-1,6.1-2.3,12.1-2.7,18.3c-0.3,4.7-1.1,9.2-2.7,13.6c-1.4,3.9-3.7,7.5-4.5,11.6
		c-1.4,7.1-2.7,14.1-4.9,21c-0.5,1.4-0.7,3-0.7,4.5c-0.1,2.8-0.8,5.5-2.1,8c2,5.6,5.5,10.6,6.8,16.4c0.5,2.2,1.5,4.3,2.2,6.4
		c0.6,1.9,1.7,3.4,3.5,5.3c-0.3-3.6,1.3-6,2.8-8.3c1.1-1.7,1.6-3.6,1.7-5.7c0.2-5.3,0.6-10.6,1.1-15.9c0.9-7.9,2.4-15.7,1.3-23.7
		c-0.3-1.8-0.6-3.9,0.3-5.6c0.9-1.6,0.9-3.1,0.8-4.7c-0.2-3.4-0.5-6.8-0.9-10.1c-0.6-5.4-1.1-10.8-1.2-16.2c0-3,0.8-5.8,1.9-8.7
		c1.2,1.2,0.6,2.2,0.6,3.1c0.2,3-0.8,6-0.1,9.1c2.7,12.7,2.3,25.6,2,38.4c-0.2,7.9-1.3,15.8-1.8,23.8c-0.4,6.3-1.1,12.6-1.7,18.9
		c-0.6,5.1-1.3,10.3-0.5,15.4c0.1,0.9,0.4,1.8-0.7,2.3c-1.3-2.7-1.7-4.9-0.8-8.7c0.4-1.8-0.2-3.2-1.1-4.8c-1,2-1.9,4-3,6.2
		c1.4,3.2,2.9,6.3,4.4,9.6c3.7-2.3,7.5-3.6,11.4-4.5c6.5-1.6,12.8-3.6,19.4-4.8c4.9-0.9,9.7-1.6,14.6-1.8c2.8-0.2,5.8,0,7.9,2.4
		c4.6-0.6,8.7,1.2,12.6,2.9c1-1.7,0.8-3.2,0.6-4.7c-0.6-6.5-0.1-13.1-1.8-19.6c-0.6-2.2-0.6-4.5-0.9-6.7c-1-7.1-1.6-14.3-3-21.4
		c-2.1-10-4.1-20-6.1-30c-1.2-5.8-1.9-11.7-3.9-17.3c-2.5-6.8-5-13.5-7.6-20.2c-0.6-1.7-1.8-3-3.4-3.9c-5.3-2.6-10.3-5.8-15.9-7.8
		c-3.5-1.2-6.6-1.3-9.9,0c-2.4,0.9-4.4,2.3-6.4,4c-2.1,1.8-3.3,4.3-5.2,6.3c0-1.9,0.8-3.7,1.6-5.4c2.8-6.5,11.5-10.2,18.1-7.8
		c6.3,2.3,12.6,4.4,18.4,7.9c2.1,1.3,4.1,2.6,4.9,5c3.3,9.4,8,18.3,9.7,28.2c2.3,13.6,6.6,26.7,8.8,40.3c0.8,5.1,1.4,10.3,2,15.4
		c0.7,6.9,2.2,13.7,2.8,20.6c0.7,7.2,1.8,14.3,0.6,21.7c4.5,0.3,8.8,0.8,13.1,0.9c5.4,0.1,10.5,1.2,15.5,3.2
		c7.3,2.9,15.1,4.7,22.8,4.7c5.2,0,9.9,1.4,14.8,2.1c0.5,0.1,1,0.3,1.7-0.4c0.1-2.5,0.9-5.2,2.7-7.3c3.6-4.3,7.4-8.3,12.6-10.7
		c2.3-1.1,4.6-2,7.1-2.7c2.8-0.9,5.6-1.2,8.6-0.5c3.9,1,8,1.4,11.9,2.3c6.2,1.4,11.9,4.1,17.1,7.9c6.5,4.8,12.7,10,18.2,16
		c1.9,2,4.1,3.7,6.2,5.6c4.1-0.9,6.7-4,9.8-6.1c-5.6-5.3-11.8-10.1-12.1-18.7c2-2.9,4.7-4.7,7.7-6c0.5-3.7,1.8-6.7,6.1-6.6
		c0.7-0.8,0.2-1.5,0.2-2.3c0-1.8,0.8-3,2.5-3.3c1.8-0.4,2.9-1.4,3.7-3.2c-1.2-2.2-2.2-4.6-2.7-7.1c0.2-1.1,0.9-1.7,1.5-2.3
		c6.5-1.5,13.2-1.8,19.5-4.2c1.9-0.7,3.5-1.6,4.4-3.3c2.2-4.1,5.6-6.5,9.7-8.6c4.4-2.2,8.7-4.6,13.4-6.1c3.1-1,6.3-1.6,9.4-2.8
		c2.3-0.9,4.7-0.8,7.1-0.3c3.2,0.7,6.4,1.4,9.6,2c1.5,0.3,2.9,1,4.1,1.8c4,2.5,7.8,5.1,11.9,7.4c2.8,1.5,3.9,4.1,5.4,6.5
		c4.6,7.4,9.3,14.7,12.5,22.9c2.2,5.7,3.2,11.4,2.4,17.4c-0.1,0.9-0.2,1.7,0,2.6c0.9,4.4,0,8.5-2.5,12.2c0.1,1.4,1.3,2.2,1.6,3.4
		c-0.7,1.2-2.2,1.7-2.6,3.2l0.1-0.1c-0.6,0.4-1.4,0.7-1.7,1.7c1.6,3.7,3.4,7.6,4.1,11.9c1.8,12.1,1.5,24.2-2.3,35.9
		c-1.8,5.8-4,11.4-6.2,17.1c-1.1,2.8-1,5.4,0,8.1c2,5.8,5.7,10,11.4,13.3c-3.2-11-2.9-21.8-0.2-32.5c-0.1,1.3-0.2,2.5-0.3,3.8
		c-0.5,7.8-0.9,15.6,0.5,23.4c0.3,1.6,0.8,3.2,1.3,4.7c0.4,1.5,1.3,2.4,2.8,2.8c0.9-0.5,1.2-1.1,0.9-2.2c-1.4-5.2-2.4-10.6-3-16
		c-0.8-6.2,0-12.3,1.4-18.4C859.2,326.4,859.5,326.3,859.6,326L859.6,326z M347,297.3c2.5-0.2,3.7-1.9,4.6-3.9
		c2.3-5.2,2.2-5.2,8-5.1c1.1,0,2.3,0.3,3.4-0.5c0.2-0.4,0.5-0.8,0.6-1.3c0.9-5.5,2.9-10.7,5.1-15.8c1.6-3.7,3-7.4,4.2-11.3
		c1.1-3.9,2.5-7.6,4.6-11.1c2.5-4.1,5.6-7.8,8.3-11.7l-0.1,0.1c8.3-8.1,14.7-17.7,19.4-28.3c4.5-10,5-9.2,1.9-20.3
		c-1.6-5.8-2.9-11.7-5.7-17.2c-1.9-3.8-2-8.3-4.8-11.8c-0.6-0.8-0.9-2.1-0.7-3.6c5.1,6.5,8.5,13.6,11.2,21.1
		c3.3,9.1,6.5,18.3,9.8,27.4c2.5,6.9,4.7,13.8,6.1,21.1c0.9,4.5,0.9,9.1,2.4,13.4c2.4,7.2,4.9,14.4,7.8,21.3
		c3,7.1,5.4,14.4,7.7,21.7c0.3,0.8,0,1.9,1.2,2.2c0.3-1.3,0.7-2.6,0.9-4c0.2-1.7,1.5-2.6,2.6-3.6c0.3-0.2,0.4-0.6,0.5-1
		c2.5-6.8,7.6-11.5,13.2-15.7c1.3-1,2.5-2.1,3.7-3.3c2-2,3.9-3.9,6.7-4.8c5.7-1.9,11.4-3.1,17.4-3.4c4-0.2,7.9-0.7,12.2-1.1
		c-3.2-6.4-5.4-12.8-8-19.1c-2.3-5.6-5-11-7.3-16.7c-5.4-13.7-10.6-27.6-17.3-40.7c-3.4-6.6-7.2-13.1-11.1-19.4
		c-3.6-5.8-7.7-11.2-11.5-16.9c-4.8-7-10-13.7-16.1-19.6c-3.6-3.5-7.8-6-13.1-6.1c-7.1-0.1-13.9,2.3-20.8,3.4
		c-0.9,0.1-1.7,0.6-2.5,0.8c-3,0.7-4.5,2.6-4.8,5.6c-0.3,2.7-1.4,5-3.1,7.2c-3.5,4.4-5.9,9.2-6.5,15.1c-0.4,4.1-1.5,8.2-2.4,12.2
		c-0.7,3.3-2,6.6-2.4,9.9c-0.7,5.7-2.9,11-4.8,16.3c-1.7,4.9-3.4,9.8-4.9,14.7c-1.6,5.2-2.5,10.5-3.7,15.8c-0.7,3.1-2.3,5.8-3.1,8.9
		c-1.9,7.9-4.1,15.6-6.1,23.5c-1.7,6.8-4.9,13.2-5.5,20.4c-0.1,0.7-0.4,1.5-0.7,2.1c-2.5,5.2-5.3,10.3-8.3,14.9c-1,0.8-1.4-0.4-2,0
		c-0.8,0.8-1.6,1.7-2.5,2.3c-1.8,1.1-2.1,2.6-1.6,4.6c1,4,2.5,7.7,6,10.2c1.2,0.9,2.3,1.9,1.6,3.8c4,0.4,7.3-0.5,10.1-2.9L347,297.3
		z M558,262.4c-8.3,3-20.2,9-27.2,13.7c-1.8,1.2-3.3,2.8-4.4,4.6c-4,6.7-6.1,14-8.1,21.6c7,0,13.5,1.5,20,3.1
		c18.3,4.6,37,6.4,55.8,6.5c0.3,0,0.7,0.2,1,0.3c6.4,2.2,13.3,1.8,20.1,3.2c-1-1.7-3-2-3.7-4.3c3.8,1.7,6.8,3.5,9.5,5.8
		c2.5-0.1,4.8,1.2,7.4-0.1c-2.1-17.3-1.1-34.7-0.5-52.2c-5.5-0.5-10.6-1.5-15.7-0.9c-3,0.3-6,1-8.9,1.5c-3.2,0.5-6.5,1.3-9.8,0.8
		c-3.9-0.6-7.8-0.5-11.7-0.7C573.8,265,565.9,264.1,558,262.4z M631.4,316.9c3.8-0.6,7.5-0.9,10.9-2.1c4.5-1.6,9.1-3,13.8-4
		c7.5-1.7,14.7-4.2,22.3-6.2c0-6.9,2.6-12.9,5.4-18.8c2.6-5.5,6.6-9.5,11.9-12.2c4.2-2.2,8.7-3.8,13.5-2.6c7.6,1.9,14.5,5.1,20,10.9
		c1.9,2,3.9,2.6,7,2.3c-1.9-1.5-3.3-2.7-4.8-3.8c-5.9-4.4-11.1-9.9-18.3-12.5c-0.3-0.1-0.7-0.3-1-0.6c-5.4-3.9-10.8-7.8-16.3-11.7
		c-1.6-1.1-3-2.3-2.8-4.4c-5.5-2.5-11.2-3.8-16.9-5.1c-2.2-0.5-4.5-0.5-6.8,0c-8.6,2-15.5,6.6-20.4,14c-1.4,2-2.7,3.9-4.5,5.5
		c-2.5,2.4-7.4,3.3-10.5,2c-1.3-0.5-1.7-2.2-3.2-2.4C629.5,271.7,629.8,309.2,631.4,316.9z M434.6,275.4c-7.3,0.8-14.2,2.8-20.8-0.3
		c-2.9,1.7-3.1,4.3-3.2,6.8c-0.1,2.4,0.1,4.8,0,7.2c0,1.5,0.5,2.7,1.6,3.7c1.2,1.1,2.6,1.9,4.2,2.6c5.7,2.3,11.5,3.5,17.6,3.9
		c3.2,0.2,6.4,0.5,9.6,0.8C442.4,291,437.8,283.6,434.6,275.4z M550.4,343.9c-10-8.4-20.8-15.2-33.4-19.7c0.3,1.2,0.6,1.9,0.7,2.6
		c1.4,9.9,11.2,15.9,19.9,16C541.8,342.8,546.1,343.3,550.4,343.9z M607.9,260.8c-1.8-0.6-3.6-1.1-5.3-1.7
		c-4.6-1.5-9.2-2.3-14.1-2.6c-4.3-0.3-8.8,0.4-13.1-1.6c-0.4,2.4-1,4.6-0.3,6.8c5.5,1.3,10.9,0.7,16.3,0.9
		C597,262.8,602.4,261.6,607.9,260.8z M831.2,358.2c0.7-1.2,0.5-2.3,0.3-3.4c-0.7-5,0.3-9.8,2.1-14.4c1.1-2.9,2.4-5.8,4-8.6
		c2.2-3.7,3.6-7.8,4.2-12.1c0.7-4.8,1.3-9.5,0.7-14.6c-0.5,0.4-0.8,0.5-0.8,0.7c-2.5,7.5-5.1,15-7.6,22.6
		c-2.6,8.1-4.3,16.3-3.9,24.9C830.2,354.9,830.1,356.5,831.2,358.2z M841.5,349.7c-0.1,2.2-0.2,4.2-0.4,6.2c-0.4,3.9,0.8,6.9,5,8.4
		c0.9-0.8,1.8-1.8,3.1-2.4c0.3-0.1,0.7-0.1,0.9,0.2c-0.3,1-1.8,1-1.7,2.3c10.2,3.7,8.9,4,15.4,3.1c-1-1.1-2-2.4-3.3-2.5
		c-3.4-0.4-6-2.3-8.8-3.8c-4.1-2.1-6.8-5.5-8.7-9.6C842.8,351,842.8,350.3,841.5,349.7z M861.7,379.6c-6.9-2.5-14.3-4.2-16.8-12.4
		c-2.3,1.1-0.3,2.9-0.6,4.1c-0.7,0.3-1.3,0.4-0.9,1.9C848.1,378,854.8,379.2,861.7,379.6z M839,357c-0.7-7.1,2-13.3,1.8-19.9
		c-1.9,4.5-3.7,9-5.6,13.6C836.8,352.4,836.1,355.3,839,357z M845.1,285.7c-0.4,2.9,1.8,20.2,2.7,22.6
		C849.5,300.2,847.4,293,845.1,285.7z M663.9,359.6c3.3,0.4,6.6,0.8,9.8,1.1c6.4,0.5,8,0.3,10-1c-0.1-0.5-0.4-1-1-1
		C676.5,359.6,670.2,358.4,663.9,359.6z M842.5,334.7c4-8,6.7-16.6,7.8-25.6C846.7,317.4,845.8,326.4,842.5,334.7z M866.8,284.3
		c0.7-3.2,0.6-6.2-0.5-9.2c-1.2-3.2-3.3-4.7-6.9-4.6C863.8,274.2,865.7,279,866.8,284.3z M713.8,265.9c0.1-0.1,0.3-0.3,0.4-0.4
		c-0.9-1-1.7-2.2-2.7-2.9c-3-2.3-6.1-4.4-9.2-6.6c-1.4-1-2.7-2-4.6-2.1C703,257.9,708.4,261.9,713.8,265.9z M832.1,359.8
		c2.6,0.5,4.4,1.8,7.2,1.7c-2.4-2-3.6-4.2-5.1-6.4C832.8,356.6,834.4,358.6,832.1,359.8z M881.5,368c-4.6,1-9.5,0.1-14,1.6
		C872.2,370.3,877,370.4,881.5,368z M864.9,371.2c-1.8-0.9-3.8-1.4-5.7-1.4c-2,0-3.9,0-5.9-0.2C857,372.2,861.1,370.6,864.9,371.2z
		 M330.6,280.2c1-0.7,1.8-1.4,2-2.5C331.7,278.3,330,278.2,330.6,280.2z M850.7,367.8c-1.4-0.9-2.2-1.6-3.5-0.8
		C848.1,368,849,367.9,850.7,367.8z M842.6,366.1c0.6-0.3,0.8-0.6,0.6-1c-0.2-0.3-0.5-0.5-0.8-0.1S842.3,365.7,842.6,366.1z"/>
	<path d="M819.4,291.9c4.2-1.8,8-4.2,11.7-7c1.5-1.1,3-2.3,5-1.9c2.1-2,4.2-3.9,6.4-6c-1.6-1.1-2.7-0.6-3.9,0.1
		c-4.3,2.4-8.8,3.8-13.7,3.6c-4-0.2-7.8-1.1-11.4-2.6c-2-0.8-4.3-1.2-6.8-3.1c3.7-0.1,6.1,1.7,8.8,2c2.8,0.3,5.6,0.9,9.4,0.8
		c-3.1-1.6-5.6-2.4-7.7-4c-2-1.5-4-3-5.9-4.7c6.7,3.6,13.6,6,21.2,5.8c-5.5-2.5-11.2-4.4-16.2-7.9c8.6,2.8,16.9,6.6,25.9,7.9
		c0.8,0.1,1.4,0.9,2.3,1.5c-0.4,2.1-2,3.4-3.5,4.7c-5.3,4.8-10.9,9.3-16.9,13.3c-4.9,3.3-10,5.3-15.8,5.5
		c-5.6,0.1-11.3,0.6-16.9-1.2c-1.9-0.6-3.7,0-4.8,1.8c-2.9-0.1-5.3,0.8-7.6,2.2c-5.1,3-9.2,7.1-13.2,11.3c-0.3,0.4-0.6,0.9-1.5,0.9
		c-0.5-1.4-0.1-2.7,0.5-4c1-2.1,2.4-3.8,4-5.4c4.8-4.5,10.7-7.1,16.6-9.6c5.3-2.3,10.7-0.9,15.8,2c5.3-1,10.6-2.6,15.8-4.6
		C817.9,293.1,818.8,292.6,819.4,291.9L819.4,291.9z"/>
	<path d="M735.5,658.7c0.8,2.8,1.7,5.5,2.5,8.3c0.5,1.9,1.5,3.4,2.4,5.1c2.3,4,6.1,6.3,9.5,9c2.7,2.1,5.9,2.2,9,2.6
		c5.4,0.6,10.8,1,16.2,1c10.6,0,21.1-1.2,31.3-4.4c0.5-0.2,1.1-0.6,1.8-0.1c-3.7,2.4-12.5,4.7-27.4,7c0.7,0.8,1.8,0.2,2.5,0.8
		c0.1,1.3-1,0.9-1.5,0.9c-4.9-0.2-9.8,0.3-14.8,0.5c-5.1,0.3-10.1-0.5-14.8-2.4c-9.5-3.9-14.8-11-16.4-21
		C735.4,663.5,734.7,661.2,735.5,658.7z"/>
	<path d="M805.6,264.6c-4.2-1.2-8.5-1.1-11.9-3.9c-0.4-1.3-0.1-2.4,0.4-3.5c0.9-0.3,1.2,0.4,1.6,0.8c1.9,2.4,3.9,4.5,7.5,4
		c1.1-0.2,2.7,0.4,4,1.4c0.4,4.1-0.6,8.1-1.8,12.1c-0.3,1-1.2,1.6-2.2,1.9c-0.8,0.3-1.7,0.4-2.2,1.6c1.6,1.4,3.3,0.1,4.9,0.1
		c1.6,0,3.2-0.4,5.4,0.1c-3.7,1.3-7.1,1.8-10.5,1.7c-1.4,0.5-2.4,2.1-4.1,2.2c-0.4-1.3,0.5-1.5,1-2s1.2-1,0.9-2.2
		c-3.2,0.1-6.4-0.9-9.6,1.4c-1.1,0.8-2.7,1.4-4.2,1.4c-3.1-2.7-2.5-5.9,1.4-7.6c1.5,1.9-0.9,3.2-0.9,4.8c0.8,0.9,1.4,0.2,1.9-0.3
		c2.3-2,5.1-2.6,8.1-2.5c1.3,0,2.5,0,3.8-0.1c2.3-0.3,4.2-1.6,4.5-3.9C804.1,269.7,805.1,267.5,805.6,264.6z"/>
	<path d="M806,235.4c-1.5,2.5-2,4.6-1.4,6.9c0.8,0.6,1.3-0.6,2.1-0.3c0.3,0.2,0.5,0.5,0.3,0.9c-0.7,1.5-0.7,3.2-0.6,4.8
		c0,1.3,0.3,2.5,1.9,3.2c0.4-2-1.7-3.6-0.6-6.2c2.4,5.3,4.8,10,8.9,13.6c4.1,3.7,9,6,14,9.3c-3.5-0.6-6.1-1.9-8.6-3.4
		c-4.5-2.7-8.3-6.1-12.2-9.5c-0.9-0.8-1.7-1.8-2.8-2.5c-0.5-0.3-1.2-0.8-1.3-1.3c-1.5-4.4-3.4-8.8-2.1-13.6
		C803.9,236.4,804.2,235.6,806,235.4z"/>
	<path d="M791.1,269.1c0.9,0,1.7,0,2.7,0c-0.4-1.6,0-2.9,1.2-4.4c2.9-0.3,6-0.1,9.4,0.4c-0.5,2.1-0.8,3.9-1.3,5.7
		c-1,3.3-4,5-7.4,4.1c-1.8-0.5-3.6-1-6.3,0.5C790.8,273,788.8,271,791.1,269.1z M800,269.6c-1.5-0.5-0.6-2.4-1.9-3.2
		c-0.7,0.1-1.6-0.4-2.4,0.3c-0.2,1.5,1.1,3.1-0.2,4.6c-0.7,0.2-1.4,0.4-2.8,0.8c3.2,1.3,5.6,2.3,8.2,0.1c0.3-1.8,1.8-3.6,0.1-5.6
		C799.7,267.3,801,268.8,800,269.6z"/>
	<path d="M771.8,214.9c3,5.3,4.8,11,4.5,17c-1.7-0.8-1.7-0.8-1.7-2.6c0-1.3-0.2-2.5-0.6-3.7c-1.4,0.2-1.4,1.5-2.1,1.9
		c0.2,1.2,1.9,1.1,1.6,2.7c-2.8-0.7-5.4-1.6-7.6-3.4c0.4-1.5,1.6-0.2,2.5-1.6c0.3-1.4,1.4-3.2,3.1-4.7
		C771.7,218.6,770,216.6,771.8,214.9z"/>
	<path d="M777.8,274.3c-5.6,8.2-21.2,7-25.9-1.9c1.5-0.3,2.4,0.7,3.4,1.3c1.8,0.9,3.5,2.1,5.4,2.8c5.6,2.1,10.9,1.5,15.8-2
		c0.2-0.1,0.4-0.3,0.7-0.4C777.2,274.1,777.3,274.2,777.8,274.3z"/>
	<path d="M825,286.4c-1.5,1.7-2.9,1.7-4.2,1.7c-3.5,0-7,0.1-10.5-0.5c-3.3-0.5-6.5-0.1-9.8-0.1c-2.2,0-4.5,0.3-6.6-0.6
		c-0.1-1.1,0.6-1,1.2-1.1c5-0.1,10.1,0.1,15.1-0.6c0.4-0.1,0.8-0.2,1.1,0C815.5,287.4,820.1,286.1,825,286.4z"/>
	<path d="M819.5,291.8c-5.1,0.8-10.2,1.8-15.4,1.6c-2.5-0.1-4.8-0.4-5.9-3c-3.3,0.6-6.4,1.4-9.5,0.8c-1.5-0.3-2.2,1.1-3.4,1.1
		c0.4-2.2,0.6-2.5,2.6-2.5c3.5-0.1,7.1,0,11,0c1.2,1.7,3.3,2.1,5.7,2.1c3.4,0,6.8,0,10.2-0.4C816.3,291.2,818,290.7,819.5,291.8
		L819.5,291.8z"/>
	<path d="M809.7,239.3c-0.5,1.6,0.3,3.3-0.3,4.8c0,0.1-0.1,0.1-0.4,0.3c-1-3.6-1.5-7.1-1.8-10.6c1.6-0.6,1.5,0.7,2,1.3
		c0.6-0.9-0.1-2.4,1.4-2.8c0.1,0.2,0.4,0.3,0.4,0.5c-0.7,3.7,1.4,5.9,3.9,7.9c2.1,1.7,4.2,3.4,6.2,5.3
		C816.9,244.4,813.4,241.6,809.7,239.3z"/>
	<path d="M326.6,310.9c0.7-0.3,0.5-1.1,0.8-1.6c1.3-2.3,3.1-3.1,5.3-2.4c2,0.7,3.3,2.7,3.1,5.1c-0.1,1.4-1.3,2.5-0.8,3.9
		c-5.4,1.6-8-0.6-8.3-5.1L326.6,310.9z M331.8,312.1c0.6-0.6,1.3,0.8,2.1-0.3c0.1-1.6-0.3-3.1-2.4-3.3c-1.4-0.2-2.3,0.8-2.7,2.2
		c-0.5,1.8,0.1,2.7,2.4,3.8c0.5-0.2,0.3-0.6,0.2-0.9C331.4,313.1,331.1,312.8,331.8,312.1z"/>
	<path d="M816.6,212.6c-3.7-1.3-6.8-1.3-9.9-2c1.6-2.4,3.7-0.3,5.6-1c-3-2-7.6-1.4-8.6-5.9C807.2,203,811.3,205.7,816.6,212.6z"/>
	<path d="M326.6,310.7c-1,0.6-0.8,1.8-1.5,2.5c-1.4,1.4-3.4,2-5.1,1.2c-1.8-0.8-2.9-3.2-2.5-5.4c0.4-2.1,2.1-3.7,4-3.9
		c1.9-0.2,3.7,0.9,4.4,2.8c0.3,0.9,0.5,1.9,0.7,2.9V310.7z M324.4,309.8c0-1.6-1-2.8-2.4-2.9c-1.6-0.1-3,1.6-2.9,3.3
		c0.1,1.5,1.3,2.7,2.6,2.7C323.3,313,324.5,311.6,324.4,309.8z"/>
	<path d="M310.7,303.3c1.9-0.1,3.6,0.4,5.1,0.9c2,2.3,0.9,4.2-0.5,5.7c-0.4,1.3,1,2.1,0.1,3.2c-2.1,0-1.5-2.7-3.2-3.2
		c-1.7-0.2-0.9,2.2-2.7,2.4C309.4,309.3,309.9,306.4,310.7,303.3z M311.8,307.7c2.7,0.7,2.7,0.7,3.3-1.4c-0.8-0.9-1.9-1.1-3-0.7
		C311.6,306.1,311.5,306.7,311.8,307.7z"/>
	<path d="M836.3,235.8c6,7.2,10.2,18.2,8.7,23.2c-1.4-4.5-2.3-8.5-3.9-12.2C839.5,243.1,837.9,239.5,836.3,235.8z"/>
	<path d="M829.2,230.1c-6.8-4-13.5-8.1-20.6-12.3C812.2,217.3,823.4,223.9,829.2,230.1z"/>
	<path d="M850.5,273c6.8,0.8,10.6,5.2,12.9,11.2c1.4,3.7,1.8,7.5,1.1,11.9c-0.7-3.7-0.9-6.9-1.8-10.1c-1.7-5.6-5-9.8-10.8-11.6
		C851.1,274.1,850.4,273.9,850.5,273L850.5,273z"/>
	<path d="M785.6,223.3c-4.9-4-6-9.8-10.3-13c0.4-0.8,0.7-1.2,1-1c2.7,1.6,5.3,3.4,6.4,6.6C783.5,218.2,785.1,220.1,785.6,223.3z"/>
	<path d="M825.6,233.1c-2.2,0.2-3.8-1.3-6.1-1.8c0.8,1.8,2.6,2,3.2,3.3c-2.5-0.2-4.6-1.5-8.1-5c0.6-1.4-0.5-2.7-1-4.2
		C817.3,228.6,821.5,230.8,825.6,233.1z"/>
	<path d="M802.2,260.6c-5.5-1.6-7.8-6.8-5.1-11.1c1.3,1.9,0.7,4.1,1.7,6C799.7,257.1,800.7,258.8,802.2,260.6z"/>
	<path d="M770.6,285.4c2.9-1.9,8.8-3.4,11.1-2.8C780.4,285.4,776,286.5,770.6,285.4z"/>
	<path d="M804.9,259.5c-3.9-4-4.9-9.8-2.1-12.6c1,2.1,0.2,4.3,0.6,6.3C803.7,255.3,804.4,257.3,804.9,259.5z"/>
	<path d="M758.6,279.2c-3.9,0.3-12.4-3.3-16.9-7C747.4,274.5,753,276.9,758.6,279.2z"/>
	<path d="M810.2,213.2c3.4-0.7,5.8,1.2,8.1,3.4C815.4,215.7,812.9,214.2,810.2,213.2z"/>
	<path d="M812.4,227.7c1.6,2.5,1.5,5.3,2.1,8C812.7,233.4,811.9,230.7,812.4,227.7z"/>
	<path d="M812.1,244.1c2.3,1.8,4.7,3.7,7,5.5C816.2,248.5,813.2,247.4,812.1,244.1z"/>
	<path d="M844.9,266.5c-1.4-2.4-2.8-4.9-4.1-7.3c2.5,1.8,3.9,4.2,5,6.8C845.5,266.2,845.2,266.3,844.9,266.5z"/>
	<path d="M766.7,286.9c-0.6,2.2-2.4,2.1-4.5,2.4C763.5,287.7,765.2,287.4,766.7,286.9z"/>
	<path d="M741.6,275.7c-1.6-0.2-3-0.8-4.2-2.5C739.7,273.1,740.8,274.2,741.6,275.7z"/>
	<path d="M756.9,291.8c1-2.1,2.3-2.1,4-2.2C759.9,291.2,758.7,291.3,756.9,291.8z"/>
	<path d="M859.7,326.1c-0.3-1.7,0.4-3.1,1.2-4.9C861,323.2,860.4,324.7,859.7,326.1L859.7,326.1z"/>
	<path d="M824.7,248.7c1.1,0.1,1.8,0.8,2.3,1.8C826,250.1,825.1,249.8,824.7,248.7L824.7,248.7z"/>
	<path d="M808.7,231.9c-0.8-0.8-0.9-1.7-0.5-2.8C809.5,229.8,808.5,231,808.7,231.9z"/>
	<path d="M824.8,248.6c-0.8,0-1.4-0.4-2.1-1.2C823.8,247.5,824.3,248,824.8,248.6L824.8,248.6z"/>
	<path d="M839.1,256.5c-0.8-1-1.3-1.3-1.1-1.9C838.5,254.7,838.7,255.1,839.1,256.5z"/>
	<path fill="none" d="M531.9,597.4c2,0.5,4,0.1,6-0.4c7.2-1.6,14.5-1.8,21.8-2.4c1.6-0.1,3-0.5,4.2-1.4c6.1-4.1,13.1-5.7,20.2-7.1
		c2.1-0.4,4.1-1.2,6.2-2.1c13.7,5.7,27.2,12,36.4,25c-2.8,1.1-5.9,1.7-9.1,3.5c2.9,0.7,7.9,0.4,11.7-0.6c5.8,6,10.9,12.5,13.9,20.4
		c1.6,4.2,4.1,8,5.2,12.5c1.3,5.3,0.1,10.2-1.8,15.1c-0.4,1-0.9,2-1.6,3.4c-5.2,0-10.5,0-15.7,0c-1.9,0-3.7,0-5.6,0.5
		c-3.1,0.8-6.3,0.2-9.3-0.9c-3.7-1.3-7.5-2.3-11.3-3.1c-6.9-1.5-13.4-4.6-20.2-6.3c-0.6-0.2-1.2-0.5-1.6-0.9
		c-3-2.9-6.9-4.2-10.7-5.4c-8.8-2.7-17.4-6.1-26.4-8.2c-1.6-0.4-3.2-0.8-4.8-1.1c-10.4-1.5-20.4-4.6-30.6-7.2c-4.6-1.2-9-3.1-13.4-5
		c-1.7-0.8-3.5-1.5-5.3-1.9s-3.7-0.9-5.5-1.5c-4.4-1.5-8.9-2.9-13.8-2.1c-1.3-3-3.5-4.6-6.6-5.4c-0.1,2,2,3.5,0.9,5.5
		c-0.8,0.7-1.9,0.5-2.9,0.5c-13.4-0.2-26.7-0.6-40.1-2c-5.1-0.6-10.3-0.7-15.5-1c-4.9-0.2-9.8-0.8-14.7-1.2c-6.8-0.5-13.5,0-19.8,3
		c-2.2,1-4.6,1.1-6.8,1.6c-5,1.1-9.7,0.1-14.6-0.3c-3.3-0.2-6.8-0.4-9.9,1.1c-2.3,1.1-5.2,0.1-6.8,2.2c-2.7,0.2-4.9-0.7-7.2-2.4
		c7-2.1,13.7-4.3,20.3-7.5c-1.4-1.5-2.9-0.7-4-0.2c-3.4,1.6-6.8,2.4-10.6,2c-1-0.1-2,0.2-3,0.5c-3,0.9-5.9,0.5-9.2-1.1
		c4.9-1.9,9.4-3.6,13.9-5.4c4.3-1.7,9.1-2.1,12.8-5c-0.1-0.3-0.3-0.7-0.4-1c-3.3,1-6.6,1.9-10.2,3c1.6-1.9,1.6-1.9,5.5-3
		c2-0.6,4.2-0.9,6.1-3.1c-2.9-0.6-5,1.1-7.2,1.5c-2.5,0.4-5.1,0.6-6.4,3.1c-4-0.8-7.8,0.8-11.8-1.6c3.5-1.1,6.5-2.3,9.6-2.9
		c8.4-1.5,16.8-2.7,25.5-1.6c5.9,0.7,11.9,1.9,18,0.3c2.9-0.8,5.6-2.2,8.4-3.2c0.7-0.2,1.7-0.7,1.2-2.2c-2.7,0.7-5.5,1.4-8.2,2.2
		s-5.5,0.9-8.2,1c-0.5,0-1-0.1-1.3-0.6l-0.1,0.1c0.9,0.3,1.7,0.3,2.5-0.2c0.5-1.7-0.8-2.9-0.9-4.5c0.4-0.4,0.7-0.9,1.2-1.5
		c-0.3-1.7-0.3-3.6-1.4-5.3c-0.8-1.1-2.2-0.4-3.2-1.1c0.1-0.4,0.1-1,0.3-1.4c3.3-7.9,5.6-16.2,8.5-24.2c3.9-10.7,9.7-20.2,17.6-28.4
		c3.3-3.4,6.7-6.7,8.7-11.2c2.1-4.6,4.9-8.8,6.9-13.4c1.1-2.6,2.3-5.3,2.9-8.3c1,2.7,2.1,5.3,3,8c3.1,9.4,5.4,18.9,7.2,28.6
		c0.9,4.9,2.8,9.4,4.9,13.9c0.8,1.7,1.5,3.4,1.7,5.4c0.2,2.7,1.7,5,2.6,7.5c1.1,2.8,2.3,5.6,3.6,8.8c-5.1,0.2-9.9,1.1-14.6,0
		c-4.1-0.9-7.7-0.5-9.9,2c-2,5.5-0.4,10.3-1.2,15.7c0.2,0.6,0.5,1.8,0.9,3.1c-3.4,0.7-6.7,1.2-10.1,1.3c-4,0.1-8,0.6-11.5,2.9
		c0.6,1.3,1.5,1.4,2.5,1.2c7-1.2,14-1.3,21-2.8c11.9-2.5,24-4.4,36-6.3c5.4-0.9,10.8-1.1,16.2-1.2c1.8,0,3.4,0.4,5,1.5
		c3.7,2.6,8,3.4,12.5,3.8c5.5,0.4,11.1-0.2,16.6,1.1c1.2,0.3,2.5,0.1,3.8-0.1c5.3-0.9,10.5-1.1,15.8-0.2c4.1,0.7,8.3-0.2,12.4,0.7
		c3.1,0.7,6.2,0.9,9.8,1.4C536.3,595.8,533.6,595.7,531.9,597.4c-2.5-0.4-5.2-0.9-7.7,0.6C526.8,597.8,529.5,599.9,531.9,597.4z
		 M375.9,612.3c2.5,2.2,5.5,2.5,12.8,1.5C385.6,610.9,378.9,610.2,375.9,612.3z M457.7,601.2c3.5,4.3,10.3,6.1,13.1,3.4
		C469.2,603.6,460.6,601.3,457.7,601.2z M583.9,624.3c-2.6,0.2-4.8,1.3-7.4,1.2c-2.6-0.1-5.1,0-7.7,0
		C574,626.8,579.3,628.4,583.9,624.3z M586.9,595.7c-5.1-0.8-10.2-0.1-15.3,0.4C576.8,596.3,581.9,597.6,586.9,595.7z M456.6,600.4
		c-3.3-0.6-6.6-2.1-10-0.3c1.6,0.9,3.3,0,5,0.3S454.9,601.7,456.6,600.4z M494.1,619.9c2.2,1.6,3.2,4.6,6.9,5.1
		C499.2,622,497.1,620.4,494.1,619.9z M381.3,602.1c-4.2,0.6-5.1,1.3-5.6,4C377.8,605.3,379.4,604.1,381.3,602.1z M460,615
		c-3.3-0.2-3.6-0.1-6.2,1.3C456,616.5,458,616.5,460,615z M610.9,614.9c1.7,1,3.1,0.7,4.5-0.9C613.5,612.9,612.2,614.2,610.9,614.9z
		 M549.7,623c-1.2-0.2-2.6-0.7-3.4,0.9C547.6,624.2,548.8,624.2,549.7,623z M353.3,605.4c2.9-0.1,2.9-0.1,5.2-1.1
		C356.7,604.3,355.3,603.9,353.3,605.4z M515.9,597.3c-1.8,0.5-2.8,0.7-3.9,1.6C513.7,599.4,514.8,599.2,515.9,597.3z M605.6,615.2
		c0.8,0.3,1.4,1,2.2-0.5C607,614.3,606.4,613.8,605.6,615.2z M486,613.4c-0.8-2.1-1.4-2.6-2.2-1.8
		C484.2,612.5,484.9,613.2,486,613.4z M562.5,625.8c-1.1-1.1-1.8-0.7-2.7,0.1C560.6,626.5,561.3,626.4,562.5,625.8z M441.7,598.6
		c-1.3-0.6-2.1-0.6-2.6,0.7C440.2,600,440.9,599.6,441.7,598.6z M446.5,616.8c-0.7-0.8-1.4-0.5-2.2-0.1
		C445.1,617.4,445.8,617.4,446.5,616.8z"/>
	<path fill="none" d="M346.4,594c-2.3,2.4-5.2,3.3-9.5,3.1c0.2-1.9-0.9-3.1-2.3-4.2c-3.5-2.6-4.8-6.4-5.7-10.4
		c-0.3-1.4-0.1-2.9,1.3-3.7c1.1-0.6,1.8-1.8,3.4-2.9c0.1,0,0.5,1.1,1.6,0.4c3-4.7,6.2-9.9,8.4-15.5c1.3-3.2,1.3-6.8,2.4-10.2
		c4-11.6,6.6-23.6,9.8-35.4c1.1-3.9,3.2-7.5,3.7-11.5c0.7-5.7,2.5-11.1,4-16.5c0.5-1.8,1-3.7,1.7-5.4c5-11.5,7.1-23.9,10.2-36
		c0.7-2.8,1.1-5.7,1.4-8.6c0.6-5.8,3.1-10.6,6.6-15c1.6-2,2.7-4.2,3-6.8c0.3-3.1,2-5,5-5.9c2.4-0.6,4.8-1.4,7.4-1.7
		c2.4-0.2,4.7-0.9,7-1.5c8.6-2,16.3-0.7,22.9,6.1c8,8.2,14.3,17.6,20.8,26.9c7.6,11,14.7,22.4,20.2,34.6c4,9,7.7,18.1,11.4,27.2
		c2.8,6.8,5.4,13.6,8.5,20.2c2.1,4.4,3.7,9.1,5.6,13.6c1.1,2.8,2.3,5.5,3.5,8.3c-0.5,1-1.5,0.6-2.4,0.7c-6.4,0.3-12.9,0.8-19.2,2
		c-5.9,1.1-11.5,3-15.4,8c-0.8,1-1.9,1.6-2.9,2.4c-5.4,4.2-10.4,8.8-12.9,15.5c-0.2,0.5-0.3,1.1-0.7,1.3c-2.3,1.3-2.5,3.6-2.9,5.8
		c-0.1,0.5-0.1,1-1,1.4c-0.5-1.5-1-2.9-1.4-4.4c-3.5-12.3-9.1-23.8-13.2-35.9c-1.6-4.8-2.7-9.7-3.4-14.7c-1.5-10.3-5-20-8.7-29.7
		c-2.9-7.8-5.4-15.8-8.4-23.5c-2.6-6.8-5.8-13.4-10.6-19.6c-0.2,2.4,0.6,4,1.7,5.5c1.1,1.6,1.8,3.2,2.2,5.2c0.5,2.4,1.3,4.8,2.6,7.1
		c1.6,2.6,2,5.7,2.8,8.6c1.2,4.2,2.6,8.4,3.3,12.8c0.4,2.8-0.1,5.2-1,7.7c-3.4,9-8.3,17.3-14,25c-2.3,3-4.5,6.1-7.6,8.4
		c-0.1-0.5,0-1-0.8-1.4c-2.5,1.3-5,2.8-7.1,4.9c2.8-0.1,4.8-1.9,7.2-2.7c-0.1,1.4-1.3,2.2-2,3.1c-5.1,6.5-9.1,13.5-11.1,21.6
		c-0.7,3-2.1,5.9-3.4,8.8c-2.2,5.1-4.3,10.2-5.1,15.7c-0.1,0.7-0.6,1.4-0.8,1.9c-1.7,0.5-3.2,0.3-4.7,0.2c-4-0.1-4.8,0.4-6.2,4
		c-0.8,2.2-1.6,4.3-4.2,5c0.6-2.2,3-3.6,3-6.4c-2.2,1.8-4.4,3.2-5.7,5.5C345.2,594.1,345.7,594.3,346.4,594z M351.1,584.3
		c1.5-1.9,2.9-3.8,1.5-7C351.8,580,350.4,581.9,351.1,584.3z M354.1,567.7c2.2-2.6,2.2-2.7,0.8-5.1
		C354.2,564.3,353.8,565.8,354.1,567.7z M357.3,555.7c-1.2,2.2-1.2,2.2-0.8,4C357.4,558.4,357.4,557.1,357.3,555.7z M390.8,452.3
		c1.1,0,1.9,1.8,3.6,0.7C393.3,451.8,392.4,451,390.8,452.3z M370.6,538.8c1.7,0.5,2.7,0,4-1.3C372.6,536.9,371.6,537.6,370.6,538.8
		z M353.2,573.9c1.4-0.9,1.5-1.9,0.9-3.4C353,571.5,352.8,572.6,353.2,573.9z M390.8,450.2c-1.1,0-1.9,0.1-2.4,1.4
		C389.4,451.3,390.4,451.5,390.8,450.2z M369.6,536.8c-0.7-0.6-1.1-0.8-1.7-0.1C368.3,537.2,368.6,537.8,369.6,536.8z M367.9,532.8
		c0.1-1-0.3-1.3-1.2-1C366.8,532.5,367,533.1,367.9,532.8z M388.2,460.9c1-0.2,1.5-0.4,1.5-1.1C388.9,459.4,388.6,460,388.2,460.9z"
		/>
	<path fill="none" d="M682.1,595.9c5.9,2.7,12.4,3.3,18.6,4.6c6.1,1.3,12.2,2,18.3,2.7c2.2,0.2,4.6-0.3,6.8-1.8
		c-3.3-0.3-6.5,0.6-9.4-0.9c-2.7-1.4-5.1-3.1-7.6-5c8.6,2.7,17.5,3.7,26.6,4.9c-0.7,3.5-3.4,4.7-5.7,6.3c-2.3,1.7-4.7,3.2-7.4,4.2
		c2.9-2.9,7-4.3,9.3-7.9c0.3-0.4,0.2-1-0.2-1.4c-5.9,6.1-13.4,9.5-21.2,12.4c-5.1,1.9-10.6,2.4-15.9,3.1c-2.3,0.3-4.8-0.1-7.1-0.7
		c-3.5-1-7.5-1.2-10.3-4c-0.3-0.3-0.5-0.6-0.8-1c2.1-1.1,4.1-1.2,6.2-0.9c13,1.5,25.7-0.3,38.2-3.9c1.6-0.4,3.1-1,4.6-1.7
		c1.1-0.5,2.3-1,2.6-2.8c-7,3.6-14.4,4-21.4,5.4c-0.6-0.7-1-1.1-1.4-1.5c-7,1.1-13.8-1.2-21.3-0.9c4.3,1.9,8.4,1.8,12.2,2.5
		c0.1,0.7-0.3,0.9-0.7,0.9c-6.9,0-13.8,0.4-20.8-0.4c-1.6-0.2-2.9-0.7-3.8-2c-0.2-1,0.8-0.9,1.2-1.6c-1-0.8-2.1-1.4-3.8-1.9
		c0.8,4.3,4.9,6.4,5.2,10.9c-5.3,4.7-4.9,10.8-2.8,17.4c1.5,4.5,2.7,9.2,4.8,13.7c0.7-1.6,0.1-2.9-0.3-4.1c-1.6-3.9-2.4-8-3.7-11.9
		c-1.8-5.5-1.2-10.5,3.6-14.6c2.2,1.4,4.6,2.8,6.9,4.2c4.7,2.8,9.7,4.1,15.1,4.7c0.5,0.1,1.1-0.1,1.5,0.2c4.1,2.5,8.6,1.4,12.9,1.5
		c4.2,0.1,8.3-1.3,11.8-3.6c4.5-2.9,9.6-4.1,14.6-6.6c-0.2,3.5-0.9,6.8,0.2,10.1c-2,3.1-2.4,6.8-3.3,10.3c-7.3,5-14.8,9.6-23.2,12.8
		c-1.6,0.6-3.1,1-4.7,1.3c-5.3,1-10.6,2.2-15.9,3.7c-2.5,0.7-4.4,2.3-6.8,3.3c-7,2.9-14.4,3.9-21.7,5c-3,0.5-6,1-9,1.5
		c-1.2,0.2-2.4,0.5-3.8,0.2c4.6-9.8,3.7-19.2-1.3-28.4c-1.9-3.5-3.4-7.3-5.4-10.8c-7.3-12.3-16.7-22.8-28.1-31.4
		c-2.8-2.1-6.1-3.6-9.3-5.1c-6.5-3.1-13.2-5.6-20.4-7.3c-0.9,2.8-3.1,3.7-5.6,4.3c-2.8,0.6-5.7,1-8.5,1.9c-1.9,0.6-3.8,1.2-6.2,2.7
		c1.1-2.7,2.8-4.1,3.8-6.1c1.6,0,2.3,1.7,3.9,1.7c2-0.5,1.8-2.2,1.5-3.6c-1.8-7.2,0.9-13.7,3.5-20.1c0.6-1.6,1.6-2.9,2.8-4
		c3.4-3,6.8-6.1,10.5-8.6c2.4-1.7,5-2.9,8-3.2c6.9-0.7,13.8-1.2,20.7,0.3c5,1.1,10.3,1.2,15.4,1.9c1.2,0.2,2.5,0.1,3.5,1
		c0,1.9-2.9,2.7-1.5,5.2c-3.3-0.2-6.1,0.6-8.9,1.3c-6.8,1.7-11.7,5.7-15.1,11.7c-1.4,2.4-1.9,4.9-1.1,7.6c1.4,4.6,3.1,8.8,7,12.2
		c5.4,4.6,10.5,9.6,14.8,15.2c2.6,3.3,5.1,7,7.2,10.8c3.2,5.8,6.6,11.7,10.8,16.9c0.5,0.6,1.1,1.2,1.2,1.9c0.7,4.6,3.7,7.7,6.7,10.7
		s6,6.1,10,8c3.2,1.5,6.5,2.9,10.2,2.4c1.5-0.2,2.9,1,4.2,0.2c0.2-1.2-1.1-1-1.4-1.6c9-1.2,17.3-4,24.1-10.2
		c3.2-2.9,4.5-6.9,6.2-10.7c0.5-1.1,0.1-2.2-1.2-2.8c-1.7,0.6-2.5,2.1-3.1,3.6c-2.3,6-6.9,9.5-12.4,12.1c-4.5,2.2-9.1,4.4-14.2,5.1
		c-0.7,0.1-1.5,0.4-2.2,0c5.6-7.7,5.5-12.9-0.2-17.8c-0.4-1.9-2.1-2.8-3.4-3.9c1.1,1.3,1.7,3.1,3.4,3.9c-0.1,0.7,0.3,1.2,0.6,1.7
		c3.2,5.3,3,9.1-0.7,14c-0.7,0.9-1.2,1.9-2.5,2.4c-7.8-1.9-13.1-7.5-18.9-12.8c0.7-2,0-3.7-1.1-5.3c-5.7-8.2-11.4-16.3-17.4-24.8
		c0-1.9-1.3-3.7-2.8-5.5c-5.5-6.1-11.1-12.1-17.1-17.7c-1.9-1.8-3.9-6.3-4.9-10.6c0.1-1.4,0.8-2.6,1.5-3.7c3.8-5.8,9.1-9.3,16-10.3
		c2.6-0.4,4.4,1,4.7,3.6c0.5,4.4,1.2,8.7,1.1,13.2c0,1.9,0.7,3.5,1.7,5.2c1.2,2.3,2.1,4.8,3.6,7c0.6,1,1.3,1.9,2.1,2.5
		c0.2,1.2-0.3,2.1-0.7,3.2c-1.4,0.7-2.8,1.8-3.8,3.3c1,1.3,2-0.5,2.9,0c1.1,3.4-2.7,5.9-1.7,9.3c1.7,0,1.9-1.1,2.2-2
		c0.9-2.9,1.7-5.8,2.5-8.7c0.9-3.2,0.1-6.3-1.6-9c-2.6-4.1-4.3-8.4-4.1-13.5c0.1-2.9-0.8-5.7-1.7-8.5c-1.1-3.2-1.4-6.6,0-9.9
		c1.8-4.3,3.5-8.6,5.2-13c0.9-2.3,2.9-3.8,4.1-5.6c0.1-1.2-0.8-1.4-1.5-2c1.2-1.9,1.6-4.1,1-6c0.6-1.5,1.2-2.4,2.2-3.2
		c2.2-0.2,4.4-0.4,6.9-0.6c-0.7,1.8-1.3,3.3-2,5.1c-0.8,1.1-2.9,1.4-2.7,3.3c0.9,0.6,1.2-0.4,1.9-0.4c0.9,2.6-1.4,5-0.5,7.8
		c1.5-4.5,3.1-8.7,4.5-13c0.9-2.8,3.5-4.6,5.7-6.4c10-8.1,21.9-11.2,34.5-11.9c1.4-0.1,2.8,0,4.2,0c6.4-0.3,12.2,1.4,17.7,4.5
		c2.9,1.6,5.5,3.8,9.1,4.4c1.4,0.2,2.9,1.7,3.8,3c5.1,7.1,10.3,14,14.7,21.6c1.7,2.9,2.3,6.3,4.3,9c1.4,1.9,1.5,4.5,1.7,6.9
		c0.6,5.2,1.5,10.5,0.8,15.9c-2.3-7.2-3.7-14.6-6.2-21.7c-2.5-7.2-5.6-14-9.2-20.9c-3.2-0.6-4.3-3.7-6.3-6.1c-1.6-0.2-3-1.3-4.3-2.4
		c-4.4-3.6-9.4-6.4-14.1-9.6c-1.8-1.2-4-1.8-6.3-2.4c4.1,4.5,8.7,8.5,12.1,13.7c-8-5.5-16.2-10.8-24.8-13.5c-2,0-1.5,1.6-2.6,1.7
		c-2.3-0.4-4.4-1.7-6.9-1.4c-0.3,0.9-0.7,1.8-0.9,2.6c0.4,0.4,0.7,0.8,1,1.1c-0.5,0.1-1,0-1.1,0.6c3.1,5.1,7.5,9.1,11.1,13.8
		c8.1,10.5,15,21.8,21.9,33.1c0.6,0.9,0.9,2.1,2.4,3c-0.8-2.5-1.7-4.3-2.8-6c-1.4-2.3-2.7-4.5-4.1-6.8
		c-6.8-10.9-13.6-21.8-22.3-31.3c-1.7-1.8-3.4-3.7-4.4-6c8.8,5.6,16.7,12.1,22.8,20.7c0.8,1.1,1.6,2.3,2,3.6
		c0.8,2.4,2.1,4.6,3.4,6.7c2.1,3.6,4.2,7.1,5.6,11.1c0.3,0.9,0.6,2,1.5,2.6c0.1-4.3-6.7-18.5-12.7-26.6s-14-14-22.7-20
		c1.1,0.2,0.4,0.1,0.9-0.1c0.1,0,0.3-0.1,0.4,0c1,0.5,2,1,3,1.6c9.5,6.4,20.1,11.1,28.8,18c0.3,0.4,0.5,0.6,0.5,0.6
		c-1,1.2-0.1,2.1,0.5,3c2.3,3.5,4.5,7,6.8,10.5c0.5,0.8,1.2,1.6,1.4,2.7c-0.1,0.1-0.3,0.2-0.4,0.3c-0.5-0.5-1.1-1-1.6-1.5
		c2.9,7.4,6.8,14.3,9.2,21.9c-4.6-8.2-10.7-15.3-15.8-23.1c-0.8,1,0.2,1.6,0.5,2.1c2.4,3.7,4.8,7.4,7.4,11c3.6,5,6.5,10.5,9.4,16
		c1.1,2,1.8,4.2,2.4,6.4c0.6,2.1,1.5,3.9,3.8,4.6c-0.6,1.2-1.6,1.4-2.6,2c-4.2-6.1-9.4-11.2-14.9-16.2c4.2,6,9.8,10.9,13.6,17.3
		c-1.3,2.3-2.6,4.5-3.9,6.8c0.2,2.6,3.1,3.9,3.2,6.7c0.1,2.5-0.6,4.7-0.6,7.2c-2,1.8-3.3,4.6-7,4.7c1.5-2.6,2.9-4.8,3.9-7.2
		c1-2.3,0.7-4.9,1.7-7.2c-1.6-1.2-3.5-1.2-5.2-1.4c-9.5-1.3-18.8-4-28-6.4c-1.4-0.4-2.6-1-3.6-1.9c-9-7.5-16.5-16.3-22.7-26.2
		c-0.3-0.4-0.5-0.9-0.7-1.3c-3.1-6.9-5.7-14-7.7-21.3c-0.2-0.8-0.5-1.7,0.2-3.1c1.3,4.4,3.9,8,4.6,11.9c0.7,3.8,2.6,6.5,4.5,9.4
		c2,3.1,4.2,6,6.9,8.5c4.9,4.4,9.8,8.7,15,12.8c7.4,5.9,15.7,10,24.5,13.2c1.4,0.5,2.9,0.9,4.7,1c-1.7-1.4-3.5-2-5.2-2.7
		c-14.9-6.3-27.4-16-39.1-26.9c-2.8-2.6-5.7-5.4-6.9-8.9c-2.5-7.1-7-13.4-8.5-20.9c-0.1-0.5-0.2-1-0.7-1.4c-1.3,0.5-1.8,2-3.2,2.1
		c0.5,9.4,2.9,17.9,7.1,26c-0.4-4.2-2.5-7.9-3-12.1c4.4,14.8,12.3,27.5,23.5,39c-4.2-1.1-7.6-2-11.1-3c-0.3-0.9-0.8-1.4-1.9-1.1
		c0.6,0.6,1.2,0.9,2,1c3.4,2.2,7.1,3.7,10.9,5c2.1,0.7,3.8,1.8,5.5,3.2c2.3,1.9,4.7,3.7,7.6,6C698.1,598.4,690.2,596.7,682.1,595.9
		c-1-0.7-2.1-0.6-3.9-0.2C680,595.8,681.1,595.8,682.1,595.9z M656.1,583.8c1.7,0.1,3,1.9,4.3,1.6c2.1-1.1,0.5-2.7,1.4-3.8
		c0.5-1.1,2.2-0.9,2.8-2.3c-1.5-0.7-2.8-1.4-4.3-2.1c-1.1,1.5-2.5,2.4-4.6,2.1c0.2,1.7,0.3,3.2,0.4,4.7c-0.9,0.2-1.8-1-3.2,0.3
		c1.9,0.5,2.7,2.3,4.7,2.7C657.7,585.3,656.6,584.7,656.1,583.8z M714.5,562c0.4,1.1,1.1,1.8,2.5,2.7c-0.6-1.6-1.2-2.5-2.2-3
		c-0.2-1.1-1-1.7-1.6-2.5c-9-12.3-17.7-24.8-24.9-38.3c-0.1-0.2-0.3-0.7-1-0.2c0.5,2.8,2.1,5.2,3.6,7.7c5.1,8.5,10.7,16.8,16.5,24.9
		C709.6,556.3,711.6,559.5,714.5,562z M725.3,574c0.5,1,1.2,1.4,2.6,1.3C726.9,574.6,726.3,573.9,725.3,574c-1.3-2.2-3.6-3-5.6-4.2
		c-3.3-2.2-6.4-4.4-9.4-7c-5.9-5.1-10.7-11.1-15.1-17.4c-4.3-6.2-8-12.8-10-20.2c-0.3-1.2-0.4-2.4-1.5-3.3c-0.6,0.9-0.1,1.7,0.1,2.6
		c2.2,9.1,6.6,17.1,12.1,24.5c2.5,3.3,5.3,6.4,7.2,10.1c-0.8,0.7,0,0.9,0.7,1.5c-0.4-0.7-0.5-1.1-0.7-1.5c2.8,0.9,4.7,3.3,6.8,5.1
		C714.5,568.3,719.6,571.7,725.3,574z M668.2,572.6L668.2,572.6c-2.6-2.6-5.4-5.1-6.4-9c-0.1-0.4-0.2-0.7-0.2-1.1
		c0-0.4-0.3-1,0.7-1.1c1.9,5,5,9,10.2,11.7c-1.9-7.3-6.9-12.8-7.8-20c2.4,3.2,3.3,7.2,6.2,10.2c0.7-1-0.1-1.6-0.4-2.2
		c-2.5-4.7-4.6-9.5-6.6-14.4c-0.8-2.1-1.2-4.1-0.6-6.3c-0.9-0.8-1.7-1.5-2.7-2.4c-0.3,2.7,1.2,4.9,0.5,7.2c-0.8,2.5-0.3,5-0.1,7.5
		c0.2,2,0.4,4,0.6,5.8c-1.2,1.8-2.2,3.3-4.2,4.4c0.4,4.8,1.4,9.2,5.5,12.4c-1.6-1.5-0.5-3.9-1.8-5.6c-1.3-1.6-2.4-3.6-1.7-6.7
		c1.3,4.5,3.5,7.4,6.6,9.6c-0.7,0-1.5-0.1-2.2,0.5c0.3,1.5,1.6,2.3,2.7,3c2.7,1.7,4,4.1,3.9,7.1c-1.4,1.8-2.8,3.4-4.2,5.1
		c-2.8,3.4-6.6,4.1-10.3,1.7c-1.8-1.2-3.5-2.5-4.3-4.4c-0.3-1.5,0.5-3-0.4-4.7c-2.1,2.3-3,4.4-2,7.1c1.1,3.1,7.3,7.4,10.5,6.9
		c3.8-0.5,7.4-1.5,9.6-5.2c0.6-1.1,1.6-2,2.4-2.9c3.3-3.5,3.1-7.8-0.5-10.9C670.3,574.8,669,574,668.2,572.6z M730.6,589.9
		c0.2,1.1,0.9,1.2,2.1,1.4C731.8,590.4,731.4,589.9,730.6,589.9c-2.9-2.8-6.3-5-9.6-7.3c-10.8-7.7-20.9-16.3-29.8-26.2
		c-0.5-0.6-1-1.2-1.5-1.8c1.9,0.8,3.3,2,4.7,3.2c1.8,1.6,3.6,3.2,5.5,4.7c4.5,3.6,9.2,7.1,13,11.5c2.6,2.9,5.4,5.8,9.1,7.2
		c3.5,1.3,6.5,3.3,9.4,5.5c0.5,0.4,1,1.2,2.2,0.6c-1.5-2.1-3.4-3.7-5.3-5.2c-5.3-4.1-10.5-8.3-16-12.1c-3.2-2.2-5.4-5.3-8.8-7.4
		c-5.8-3.7-10.8-8.5-14.5-14.7c-3.5-5.9-6-12.2-8.7-18.4c-0.2-0.5-0.2-1.6-1.7-1.3c2.3,7.9,5.8,15.1,9.9,22.2
		c-1.5-1-2.7-2.2-3.9-3.4s-1-3.7-3.9-3.7c1.4,3.5,3.1,6.5,5.3,9.2c11.4,14.6,25.6,26,41.1,36C728.2,589.1,729.2,590,730.6,589.9z
		 M720.6,641.7c3.3-3.5,5.1-8.5,4.7-12.4c-0.1-1.1-0.4-2-2.1-2C720.9,631.5,720.3,636.2,720.6,641.7z M657.6,588.6
		c3.3,2,6.2,0.7,8.5-3.6c0.9-0.8,2.4-0.9,2.9-2.5c-0.4-1.4-0.9-3-2.5-3.8c-1.4,1.1,0,2.3-0.8,3.5c-2.2,0.4-2.1,3-3.1,3.9
		C660.9,587.5,659,586.8,657.6,588.6z M673.6,531.7c1.8,10.5,6.4,19.7,12.6,28.2C681.1,551,676.7,541.6,673.6,531.7z M688.8,603.2
		c-6.2-0.3-12.3-1.9-18.5-2.4c2.8,2.8,6.7,3.3,9.8,5.3c0.7,0.4,1.5,0.9,2.5,0.1c-1.1-2.3-3.9-1.6-5.7-3.4
		C681.1,603.3,684.9,603.9,688.8,603.2z M667.8,598.5c6.4,1.5,12.8,2.8,19.3,2.5C680.8,599.8,674.4,598.2,667.8,598.5z M672.7,588
		c3.2,2.4,6.8,3.9,11.1,3.9C680.4,589.1,676.5,588.5,672.7,588z M668.4,594.2c0.6,2,1.9,3.1,3.8,3.3c2.5,0.2,5,0.4,7.8,0.6
		C676.2,595.8,671.9,596.3,668.4,594.2z M669,617.4c-1.7,1.8-2.2,4.1-1.9,7.2C667.8,621.8,668.4,619.6,669,617.4z M652.7,532.4
		c-1.1,1.1-1.4,2.5-1,4.1C652.7,535.3,653.1,534,652.7,532.4z M676.2,591.8c-0.6-0.4-1.2-1.3-2-0.3
		C674.8,592.2,675.5,592.1,676.2,591.8z M674.8,623.4c-0.8-1.4-0.1-2.1-1-2.8C673.7,621.4,673.5,622,674.8,623.4z"/>
	<path fill="none" d="M500.5,537c-3.4-3.2-4.1-7-5.1-10.6c-1.8-6-4.8-11.3-7.2-17.2c1.4-2.7,1.6-5.9,2.2-8.9
		c1.9-9.3,4-18.5,6.4-27.6c0.9-3.5,2.7-6.8,4.1-10.2c1.5-3.8,2-7.7,2.2-11.8c0.3-4.9,1.5-9.7,1.9-14.6c0.4-4.3,2.4-7.9,3.9-11.6
		c2.5-6.1,7.4-9.7,13.9-11.1c1.6-0.4,3.3-0.4,4.9,0.2c4.6,1.8,9,3.8,13.5,5.9c5.4,2.5,8.2,6.4,10,11.9c2.3,7.4,6,14.5,7.5,22.2
		c2.2,11.1,4.1,22.3,6.7,33.4c3.1,13.6,3.8,27.5,6.3,41.2c1,5.7,0.7,11.5,0.6,17.8c-2.5-1-4.5-1.9-6.5-2.5c-2.1-0.6-4.2-0.7-6.6-0.5
		c-2.3-2.6-5.5-2.6-8.6-2.4c-4.8,0.3-9.5,1-14.2,1.9c-6.3,1.2-12.4,3.1-18.7,4.6c-4.1,1-8,2.2-11.9,4.6c-1.5-3.3-3-6.4-4.4-9.6
		c1.3-2.1,1.7-4.5,3.6-6.4c1.8,4.6-1.3,9.4,1.2,13.7c0.7-0.2,0.9-0.5,0.8-0.9c-0.5-4.4-0.1-8.8,0.1-13.2c0.1-3.5,1-7,1.3-10.5
		c0.5-5.9,0.9-11.8,1.4-17.8c0.5-6.2,1.5-12.3,1.4-18.5c-0.1-6.1,0.4-12.3,0-18.4c-0.5-6.9-0.7-13.9-2.3-20.7
		c-0.2-0.8,0.1-1.7,0.1-2.6c0-2.6,0-5.2,0-8.5c-1.7,3.1-2.3,5.9-2.3,8.8c-0.1,5.6,0.5,11.1,1.1,16.6c0.4,3.7,1.6,7.6,0.7,11.3
		c-1.4,6.2-0.4,12.3-0.5,18.4c0,3.9-0.9,7.8-1.4,11.6c-0.8,6-1.2,12.1-1.4,18.1c-0.1,2.4-0.5,4.5-1.9,6.4
		C501.8,531.4,500.6,533.8,500.5,537z M536.1,418.9c1.2,2.1,2.5,4,4.6,5.3C539.6,422,538.3,420,536.1,418.9z M504.3,468.3
		c-1.3,1.7-1.8,3.6-1.6,5.7C503.5,472.2,505,470.6,504.3,468.3z"/>
	<path fill="none" d="M491.1,577.2c4.9-4.1,9.9-8.2,14.8-12.4c1.7-1.5,3.6-2.7,5.8-3.6c1.6,0.4,2.9,1.9,4.8,1.7
		c-0.3-1-2.6-3.8-3.7-5.4c-1.6-2.2-4.5-1.3-6.6-3.5c2.9-1.3,5.5-2.7,8.3-3.4c10.2-2.5,20.4-4.4,30.8-6c1.8-0.3,3.1,0.7,4.7,0.8
		c3.7,0.1,7.3,0.5,10.9,0.8c2.3,0.2,4.5,0.6,6.6,1.4c2.6,1,4.5,2.7,6,5.6c-9,2.1-18.1,3.2-27,6.2c1.5-2,1.4-2,4.1-3.5
		c1.5-0.8,3.1-1.6,4.5-2.6c-6.3,0.2-12.4,1.4-18.7,1.7c-1.1,0.4-1.1,1.8-2.5,2.3c-0.5,0.1-1.4,0.2-2.1,0.3c-1.4-0.1-1.7-1.7-3.1-1.9
		c-3.8,0.2-7.2,2.5-11.3,3.4c0.5,0.4,0.7,0.7,0.8,0.7c4.6-0.5,9.2-0.1,13.9,0.2c3.4,0.2,7-0.8,10.5-1.3c0.5-0.1,1-0.3,1.5,0
		c-0.9,1.5-2.5,2-3.9,2.8c-5.3,2.9-10.4,6-14.6,10.6c-2.9,3.3-5.1,6.9-6.8,10.8c-0.8,1.8-1.5,3.7-2.4,5.7
		c-8.3-1.4-16.5,0.3-24.6,0.3c-5.8,0-11.6,0-17.3-1.6c-2.2-0.6-4.5-0.7-7-1.1c-1.1-2.2-3.5-2.3-5.7-2.4c-4.7-0.3-9.3,0.1-14,0.2
		c-1,0-2,0.3-3.1-0.2c-0.1-2.4,0.4-4.5,1.8-6.4c3.7-5.1,7.1-10.4,11.1-15.3c5.3-6.5,11.8-11.1,20.6-12.3c5.4-0.7,10.8-1.4,16.1-2.1
		c2-0.3,4-0.6,6-1.2c2.2,3.5,4.5,6.9,5.3,11c2,0.3,3.8-0.2,5.1,1.2c0.3,1.7-0.8,2.3-2,3.1c-6.3,4-11.7,9.1-17.2,14.1
		c-0.4,0.3-0.6,0.8-0.8,1.2c-1.1,0.8-1.9,1.8-2,3.3c-0.7,0.3-1.1,0.8-1.1,1.6c0.8-0.3,1-0.9,1-1.7
		C490,579.6,490.5,578.3,491.1,577.2z M481.8,574c2.5-1.8,4.6-4.2,7.2-5.9c2.7-1.8,5.4-3.6,8.4-5c2.7-1.3,5.7-2.1,8-4
		c-0.5-0.8-0.9-0.9-1.2-0.7c-7.3,2.5-14.2,5.9-19.7,11.4C483.3,570.8,481.8,572,481.8,574c-1.5,0.9-1.9,2.3-1.9,3.9
		C480.6,576.6,481.8,575.5,481.8,574z M511.2,566.8c-5.2,5.3-9.6,11.2-10.8,18.9C503.1,578.9,506.8,572.7,511.2,566.8z M517.5,560.5
		c1.2,1.8,2.2,1.8,3.8,1.5C520.1,560.9,519,560.9,517.5,560.5z"/>
	<path fill="none" d="M325,580.1c1.2,2.7,1.8,5.1,2.3,7.6c0.8,3.4,2.4,6.4,5.5,8.3c0.9,0.6,2,1.1,2.8,2.6c-5.8,0.4-10.8,3-16.4,3.4
		c1.4,4.5,2.8,6.1,13.9,5.6c-4.8,4.3-10.5,5-15.6,6.9c1.1,2.7,1.1,2.7,7.6,5.3c-0.6,0.7-1.6,0.6-2.3,0.8c-0.8,0.3-1.7,0.4-1.9,1.7
		c1.6,1.4,4.2,1.4,5.5,3.8c-7.1,0.4-14.1,1.5-21.2,0.2c-6.5-1.2-11.3-4.6-13.8-11c-0.8-2-1-3.9-0.5-5.9c0.7-2.7,1.1-5.4,2.2-8
		c0.8-1.9,0.8-3.9,1.2-6.4c3.4,0.4,6.7,0,10.1,0c4.8,0.1,8.7-1.6,11.9-5.4C319,586.5,322.2,583.6,325,580.1z"/>
	<path fill="none" d="M566.9,578.4c-0.3,0.7-0.4,1.5-0.9,2.1c-2,2.7-3.2,5.7-3.2,8.9c-1.2,1.7-2.8,1.9-4.5,2
		c-5.4,0.4-10.8,1.1-16.5,2.1c-0.9-0.8-2.2-1.8-3.7-2.1c-0.5-2.1,0.4-3.7,1.1-5.3c1.1-2.4,2.4-4.7,2.6-7.4c0.9-2.3,1.6-4.8,3.3-6.7
		s3.4-3.7,5.6-6.2c-5.7,2.3-8.9,7.3-8.9,12.9c-2.6,3.6-4.2,7.6-5.8,11.8c-1,0.6-2,0.2-3.3-0.3c0-3.2,1.3-6.2,2.1-9.9
		c-2.7,3-3,6.3-4,9.2c-0.9,0.6-1.5,0.4-2.3-0.3c0.1-1.7,0.5-3.5,0.1-5.4c-1.8,1.3-0.8,3.5-1.9,5.1c-1.7,0.6-3.5-0.8-5.4-0.1
		c3-11.8,10.9-19.1,20.5-24.9c0.7-0.4,1,0.8,1.9,0.5c5.1-1.8,10.4-2.8,15.5-4.7c5-1.8,10.3-2.2,15.7-3.6c0.2,1.8-0.7,3.1-1.5,4.3
		c-1.9,3.2-2.9,6.7-3.3,10.4c-0.3,2.5-0.5,5.1-2.3,7.1c-0.3,0.4-0.6,0.8-1.2,0.8c-0.3-0.8-0.8-0.9-1.4-0.4c-1.7,1.5-3.4,2.9-5,4.5
		c-1.2,1.1-2.7,2.1-3.6,4.5C560.9,584.3,564,581.4,566.9,578.4z"/>
	<path fill="none" d="M778.3,671.7c0,1,1.4,1.1,1.3,2.2c-4.3,0.6-8.1-0.4-11.8-2.7c-6.9-4.2-12.8-9.4-17.2-16.2
		c-5.1-7.8-7.4-16.2-6-25.6c0.6-4,0.4-8,0.6-12c0.1-2.4,0.3-4.8,0.3-7.2c0-5.7-0.6-11.1-5.7-14.7c0.9-3.3,0.9-3.3,3.5-5.6
		c3.1,1.5,5.3,4.1,7.1,6.9c3.5,5.4,5.5,11.3,6.1,17.7c0.2,2.2,0.2,4.4,0.9,6.6c0.7,2.1-0.2,4.7-0.5,7.1c-1.3,10.1-0.1,19.6,5.2,28.6
		c-2.2-1.1-4.1-2.5-5.7-4.4c-1.5-1.8-2.9-3.6-4.3-5.5c-1,1.1-0.3,1.7,0.1,2.2c2.4,3.6,5.2,6.8,8.6,9.5c4,3.3,8.2,6.3,12.3,9.4
		c0.5,0.4,1,0.8,1.7,0.6c0.2,0.1,0.3,0.2,0.5,0.3c0.4,1.6,1.7,2.3,3.1,2.7L778.3,671.7z"/>
	<path fill="none" d="M526.5,639.5c-2.4,0.9-4.3,1.2-6.3,1.1c-5.9-0.1-11.8,0-17.8,0.1c-11.7,0.2-23.2-1.4-33.3-7.9
		c-3.8-2.5-6.5-5.4-8.8-9.1c1.2-0.6,2.5-0.2,3.6-0.5c1.2-0.3,2.4-0.6,3.7-1c1,0.2,2.2,0.8,3.2,0.7c7.8-0.5,14.7,3.1,22.2,4.3
		c3.3,0.5,6.3,3.1,9.7,3.9c7.3,1.9,13.9,6,21.4,7.5C524.7,638.8,525.3,639.1,526.5,639.5z"/>
	<path fill="none" d="M774.2,641.4c-2.5,1.1-5,0.5-7.3,0.7c-2.2-2.1-0.4-4.7-1.7-6.9c-1.3-2.3,0.5-4.6,0.9-6.9
		c0.5-2.3,0.6-4.8,3-6.1c-0.3-1.1-0.9-0.3-1.6-0.8c0.1-1.8,0.2-3.9,0.5-5.9c1.2-7.8-0.4-15.4-2.1-22.9c-0.8-3.6-3.1-6.3-6.6-7.8
		c-0.5-0.2-0.9-0.4-1.3-0.7c-0.1-0.1-0.2-0.2-0.4-0.5c0.1-1.3,0.5-2.8,0.2-4.8c4.8,4.3,9.1,8.1,11.1,14c1.6,4.6,4,9,6,13.5
		c0.5,1,0.9,2.1,1.1,3.2c0.3,1.9,0.9,3.7,2,5.2c1.3,1.8,1.4,3.7,0.9,5.8c-0.7,3.3-1.2,6.7-2.6,9.8
		C774.5,633.7,774.8,637.6,774.2,641.4z M773.7,616.9c-1.9,0.3-2.6,1.3-3.1,3.2C772.4,619.4,773.4,618.8,773.7,616.9z"/>
	<path fill="none" d="M434.3,572.4c1.8,4,3.5,7.9,5.4,12.2c-9.3,1.5-18.3,3-26.9,5.7c-2-1.4-2.4-3-2.3-5.1c0.2-2.1-0.2-4.3-0.1-6.4
		c0.1-2.5,0.1-5.1,3.3-6.7C420.2,575.4,427.1,573.2,434.3,572.4z"/>
	<path fill="none" d="M744.9,588.8c0.6-0.2,0.9-0.5,1-0.4c6.9,4.1,13.4,8.6,17.1,16.1c0.7,1.4,1.2,2.8,1,4.4
		c-1,8.1-0.8,16.4-1.5,24.5c-0.4,4.7,0.4,9.6,2.5,14c3.1,6.4,7.3,12.1,12.9,16.6c0.4,0.3,0.9,0.5,1.2,0.9c-3.8,0-6.6-1.2-9.3-3.8
		c-1.6,0.5-2.8-0.2-3.6-1.6c-5.1-8.7-8-17.9-7.1-28.1c0.7-7.4,1.7-14.8,1.3-22.3c-0.2-3.8-1.7-6.5-5.8-7.6
		C752.7,596.2,749,592.4,744.9,588.8z"/>
	<path fill="none" d="M752.9,583.6c-1,0.6-2.2,0.8-3.9,0.6c0.1-4.2-0.4-8.4-1-12.6c-1.7-12.2-5.2-23.9-11.3-34.6
		c-1.4-2.5-3.1-4.8-5.7-6.4c-2.3-1.5-4.1-3.7-5.9-5.8c-3.3-3.8-6.1-8-9.8-11.6c8.7,5.7,17.5,11.3,23.7,19.8c2,2.7,3.5,5.5,4.5,8.7
		c1.8,5.9,3.4,11.8,4.9,17.8c1.7,7.4,3.3,14.7,4.6,22.2C753,582.2,753.3,582.8,752.9,583.6z"/>
	<path fill="none" d="M737.3,546c2.1,0.9,2.8,2.9,3.2,4.7c2.2,9.2,4.3,18.4,5.2,27.8c0,0.2-0.1,0.5-0.3,1.1
		c-2.4-8.7-4.8-16.9-9.2-24.5c-4.3-7.4-9.4-14.3-14.2-21.7c1.4-0.6,2.2,2.2,3.6,0.3c5.2,4.8,8.8,10.8,12.9,16.5
		c0.7-0.9,0-1.6-0.3-2.3C738,547.3,737.6,546.7,737.3,546L737.3,546z"/>
	<path fill="none" d="M367.4,597.4c-4.4-0.3-8.7-0.5-13.1-0.8c-1.5-0.1-2.9-0.3-4.9-0.5c2.5-2.7,5.4-4.6,5.5-8.2c4.2,0,7.9,0,11.7,0
		c0.9,0.4,0.9,1.4,1.3,2.4c-1.6,1-1.5,2.6-1,4.2C367.2,595.5,367.2,596.5,367.4,597.4L367.4,597.4z"/>
	<path fill="none" d="M736.6,542.9c-0.4,1.2,1.3,1.9,0.6,3.1l0.1-0.1c-1.2-0.8-1.8-2.1-2.6-3.2c-8.7-12.4-19.9-22-33.2-29.2
		c-1.3-0.7-2.7-1.3-4.1-1.9c-0.9-0.4-1.8-0.8-2.2-1.8c1.2-0.8,2,0.1,2.9,0.5c9.4,4,17.7,9.6,25.8,15.7c1.6,1.2,2.9,2.8,4,4.5
		c2.3,3.5,4.6,7,6.9,10.4c0.5,0.8,0.8,1.9,2,2.1L736.6,542.9z"/>
	<path fill="none" d="M741.1,624.3c-0.8,13.2-0.7,26.2,4.5,38.8c-1.4-0.4-1.7-1.4-2.1-2.2c-4.2-7.5-6.5-15.6-6.1-24.3
		C737.6,632.3,738.2,628,741.1,624.3z"/>
	<path d="M687.2,513.1c1,2.3,2.8,4.2,4.4,6c8.7,9.6,15.5,20.5,22.3,31.3c1.4,2.2,2.8,4.5,4.1,6.8c1,1.7,2,3.5,2.8,6
		c-1.5-1-1.9-2.1-2.4-3c-6.9-11.3-13.8-22.6-21.9-33.1c-3.6-4.7-8-8.7-11.1-13.8c0.1-0.7,0.7-0.5,1.1-0.6
		C686.8,512.8,687,512.9,687.2,513.1z"/>
	<path fill="none" d="M709.2,618.8c6.1-1.6,11.8-4.5,17-7.4c1-0.3,1.3,0.8,2.4,0.2c1.1-0.9,2.4-2.1,4.5-3.9c-2.1,5-4.4,8.5-9.5,9.2
		c-3.5,0.5-6.9,1.6-10.4,2.2c-1.3,0.2-2.8,0.7-3.9-0.6L709.2,618.8z M726.5,613.1c-0.8-0.1-1.4,0-1.1,0.8
		C725.8,613.6,726.2,613.3,726.5,613.1z"/>
	<path fill="none" d="M775.2,669.1c-0.1-0.1-0.3-0.2-0.5-0.3c-0.2-0.8-1.4-1-1.5-2.5c5.8,3.5,12.5,3.9,18.1,7.5c-3.1,0-6.3,0-9.4,0
		c-1.4-0.2-2-2-3.7-2l0.1,0.1C777.8,670.4,776.5,669.8,775.2,669.1z"/>
	<path fill="none" d="M709.4,618.7c-4.6,0.7-9.1,0.2-13.7-0.5c8.7-0.1,16.9-2.3,24.6-6.2c-0.7,1.4-2.1,1.8-3.3,2.4
		c-1.3,0.7-2.7,1.3-4.1,2c-1.3,0.7-3,0.8-3.6,2.4L709.4,618.7z"/>
	<path fill="none" d="M752.8,590.9c5.6-0.4,11.2,6.2,10.7,12.4C760.7,598,757.7,593.6,752.8,590.9z"/>
	<path fill="none" d="M758.1,615.5c-1.1-3.9-1.5-7.8-2.3-11.7C760,607,758,611.5,758.1,615.5z"/>
	<path fill="none" d="M738.1,565.7c2.1,3.9,4,10.1,4.4,14.6C740.2,575.1,738.9,570.5,738.1,565.7L738.1,565.7z"/>
	<path fill="none" d="M735.8,560.4c-2.9-3.9-4.8-8.4-7-12.7c0.1-0.1,0.3-0.2,0.4-0.3C732.1,551.3,734.5,555.5,735.8,560.4
		L735.8,560.4z"/>
	<path d="M346.4,594c-0.7,0.2-1.2,0.1-1.7-0.8c1.3-2.2,3.5-3.7,5.7-5.5c0,2.8-2.4,4.2-3,6.4C347.1,594.1,346.8,594.1,346.4,594z"/>
	<path fill="none" d="M702.9,594.1c3.2,1.9,6.3,4,9.4,6C707.7,600.4,705.8,596.4,702.9,594.1z"/>
	<path d="M385,533.8c-2.4,0.8-4.5,2.6-7.2,2.7c2.1-2.1,4.6-3.6,7.1-4.9c0.8,0.4,0.7,0.9,0.8,1.4C385.4,533.2,385.2,533.5,385,533.8z
		"/>
	<path fill="none" d="M701.8,516.3c4.4,1.9,8.7,4.1,12,7.7l0,0c-4.3-2.2-8.4-4.6-12.2-7.5L701.8,516.3z"/>
	<path fill="none" d="M741.8,620.3c-1.5,0.1-1.8,1.4-2.8,2.2c1.2-3,1.5-6.3,2.8-9.9c0.9,1.6,0.3,2.8,0.2,3.9
		C742.1,617.6,741.9,618.8,741.8,620.3z"/>
	<path fill="none" d="M736.7,543c-0.6-2.7-2.4-4.8-3.8-7.2c-0.6-1-1.2-2-1.7-3.1c3.1,2.1,4.8,5.2,6,8.6c0.2,0.7-0.1,1.2-0.6,1.6
		L736.7,543z"/>
	<path fill="none" d="M793.1,677.4c-3.9,1.3-7.1,1.7-10.5,0.9C785.8,677.5,789.1,677.1,793.1,677.4z"/>
	<path fill="none" d="M749.1,588c2.9-1.2,5.8-1.4,8.5,0.7c-2.4-0.3-4.8-1.2-7.1,0.4C750,589.4,749.3,588.8,749.1,588z"/>
	<path fill="none" d="M738.2,565.6c-1.2-1.6-2.2-3.2-2.3-5.3h0.1C737.5,561.8,737.7,563.8,738.2,565.6L738.2,565.6z"/>
	<path fill="none" d="M701.7,516.4c-1.5-0.1-2.6-1.2-4.4-2.3c2.2,0.2,3.5,0.9,4.5,2.1L701.7,516.4z"/>
	<path fill="none" d="M717,526.2c1.3,0,1.8,1.2,2.6,2C718.3,528.1,717.5,527.3,717,526.2L717,526.2z"/>
	<path fill="none" d="M713.9,523.9c1.4,0.3,2.5,0.9,3.1,2.2l-0.1,0.1C715.6,525.9,714.4,525.3,713.9,523.9L713.9,523.9z"/>
	<path fill="none" d="M332.7,574.4c-0.8,1.4-1.3,2.2-2.2,2.5C329.8,575.3,331.1,575.3,332.7,574.4z"/>
	<path fill="none" d="M524.6,259.2c-1.6,1.9-4.1,1.6-6.4,2.8c2.3,1.4,4.5,0.1,6.5,0.1c2.2,0,4.3,0.5,6.4,0.8
		c2.3,0.3,4.5-0.3,6.8-0.6c2.1-0.2,4.2-0.9,7.3-0.6c-3.8,2.5-6,6-10.4,6.5c-1.3,0.2-2.6,1.1-3.6,2c-7.3,5.9-12,13.6-14.3,22.7
		c-0.7,2.9-1.9,5.8-1,9.3c-8.7-2.4-17.1-5.4-26.5-5.5c1.3,1.8,2.7,2.4,4.1,2.6c8.2,1.1,16,3.5,23.9,5.6c3.6,0.9,7.3,0.4,10.9,1.2
		c8.5,1.9,17,3.6,25.6,5.2c10.4,2,20.9,3.2,31.5,3.7c7.7,0.4,15.3,1.6,22.9,2.4c4,0.4,7.9,1.1,11.8,2.3c5.6,1.6,11.2,0.3,16.9-0.7
		c14.4-2.4,28-7.4,42-11.3c4.5-1.3,9-2.6,13.4-4c1.3-0.4,2.6-0.9,3.7-1.8c1-1,0-3.2,2.1-3.7l-0.1-0.1c0.2,0.6,0.7,0.8,1.1,0.5
		c1.3-0.8,2.5-1.7,3.7-2.7c8.1-7.2,17.8-9.6,28.4-9.4c6.8,0.1,12.8,2.4,18.5,6c0.6,0.4,1.5,0.8,1.8,1.4c2.5,4.6,6.2,8.6,7.4,13.9
		c0.4,1.9,0.6,3.7,0.4,5.6c-0.7,5-1.5,10-2.2,15c-0.6,4.6-2.6,8.7-4.8,12.6c-0.5,0.8-1.4,1.5-1.2,2.7l0.1-0.1
		c-1.3-0.2-1.8,1.3-2.9,1.5c-0.5-0.2-0.9-0.4-1.5-0.5c-4.2,3.2-9.1,4.9-14,6.4c-4.7,1.4-9.3,3.1-13.8,5c-9.2,4-19,4.8-28.9,4.5
		c-1.1,0-2-0.4-2.6-1.6c11.1-3.9,22.8-5.2,33.8-9.6c-2.5-0.6-4.9-0.1-7.3,0.1c-6.9,0.8-13.6,2.9-20.3,4.5
		c-6.5,1.5-12.9,2.3-19.5,2.1c-9.3-0.2-18.7,0.3-28-0.9c-4.8-0.6-9.6-0.4-14.4-0.5c-1,0-2.1-0.1-3,0.3c-7.2,3.1-14.7,3.1-22.3,1.8
		c-6.1-1.1-12.2-2.1-18.3-2.9c-3.4-0.5-6.7-1.3-9.9-2.6c-8.3-3.3-16.8-6.1-25-9.9c-3.6-1.6-6.8-3.7-9.8-6.3
		c-4.8-4.2-10.6-6.8-16.4-9.3c-4.8-2-9.6-3.9-14.6-5.4c-1.2-0.4-2.5-0.5-2.8-2c-1.1,0.7-2.1,1.3-1.2,2.7l0.1-0.1
		c-2.3,0.1-0.9-2.4-2.1-3c-1.1,0.7,0,1.9-0.8,2.9c-0.2,0.1-0.5,0.3-0.8,0.4c-1.7,0.7-3.3,0-4.8-0.4c-7.5-1.8-14.9-3.8-22.3-5.7
		c-3.5-0.9-6.9-1-10.5-0.6c-4.4,0.5-8.8,0.4-13.2-0.3c-1.3-0.2-2.4-0.6-3.2-2.1c6.2-0.7,11.9-3.2,18.2-2.6c1.6,0.2,1.6,0,3.8-1.3
		c-3.8-1-7.3-0.8-10.8-0.5c-1.5,0.1-3,0.5-4.4,1.1c-2.6,1-5.4,1.3-8.2,0.4c-0.9-0.7-1.5-1.6-1.5-2.9c3.8-0.4,7.3-1.7,10.9-2.9
		c3.7-1.3,7.6-1.5,11.5-2.1c1.2-0.2,2.1,0.7,3.2,0.9c1.5,0.3,2.9,0.7,4.3,0.6c1.2-0.9,0.4-2.5,1.9-2.8c2.8-1.1,6.2-0.2,8.7-2.6
		c-0.5-1.1-1.2-0.7-1.8-0.6c-8.4,1.8-16.9,2.4-25.4,3.7c-1.3,0.2-2.4,0.7-3.6,1.1c-2.9,1.1-5.9,2.2-9.4,2.5
		c-0.1-1.9-0.6-3.3-1.6-4.8c-1.4-2.2-2.3-4.8-2-7.6c0.2-1.6,0.2-3.3,0.3-4.9c0.1-2.6,0.9-4.9,2.5-7c3.4-4.7,6.6-9.5,10.3-14.1
		c5.5-6.9,12.4-11.7,21.5-12.8c5.6-0.7,11.3-1.5,16.9-2.2c1.5-0.2,2.9-0.7,4.5-1c2.4,3.3,4.2,7,5.5,11c1.9,0.5,3.8-0.2,5.2,1.3
		c0.1,1.4-0.8,2.2-1.9,2.9c-6.4,3.8-11.7,9.1-17.3,14c-1.7,1.5-2.9,3.3-3.6,5.4c6.7-7.8,15-13.7,23.1-19.8c1.9,0.8,3.5,1.5,5.7,2.4
		c-0.8-2.9-3.1-4-4.2-5.9c-1.3-2.3-4.4-1.4-6.5-3.7c13.1-5.8,26.9-7.2,40.8-9.5c2,1.1,4.5,0.9,7,1.1c2.9,0.3,5.8,0.5,8.7,0.8
		c3.3,0.3,6.3,1.7,9,3.6c0,2.8,0,5.6,0,8.5c-3.2,0.5-4.9-2.4-7.6-2.8c-2.6-0.4-5.2-0.3-7.7-0.7c3.6-0.6,7.1-1.6,10.6-0.6
		c0.5-1.2-0.2-1.6-1-1.8c-1.4-0.4-2.8-0.2-4.1-0.1c-8.4,0.9-16.8,1.8-24.7,2.6c-1.6,0.3-1.5,1.5-2.4,2.1c-0.9,0.2-2,0.4-3,0.6
		c-1.1-0.4-1.3-1.7-3-2.1C527.8,258.2,526.3,259.5,524.6,259.2c-0.8-0.5-1.6-0.7-2.5-0.3C522.9,259.1,523.8,259.1,524.6,259.2z
		 M505.7,261.6c-8.7,0.7-24.9,11-25.4,19.6c2-4.7,5.5-7.6,9.1-10.3c4-2.9,8.4-5,12.9-7C503.5,263.4,505,263.2,505.7,261.6z
		 M509.3,311c3.3,3.5,9.8,4.8,13.7,2.9C520.4,312.8,511.5,310.8,509.3,311z M511.7,269.6c-6.7,6.4-11.2,14.6-11.1,20.2
		C503.4,282,507.2,275.6,511.7,269.6z M678.1,347.9c-0.1-0.4-0.1-0.8-0.2-1.1c-2.4,0.4-4.9,0.7-7.3,1.1c-2.4,0.4-4.7-0.6-7-0.2
		C668.5,350.3,673.3,349.4,678.1,347.9z M615.9,338.6c3.6,0.8,8.6-0.1,10.5-1.7c0.6-0.5,0.5-1-0.2-1.4
		C623,336.5,619.8,337.4,615.9,338.6z M597.6,346.1c-2.9-1.5-5.9-2.2-9.1-2.2C591.3,345.7,594.3,346.4,597.6,346.1z M529.3,317.3
		c-1.2-1.3-2.7-2-5-1.8C525.8,317.2,527.5,317.3,529.3,317.3z M494.5,301.9c1.4,1.3,2.8,1.3,4.6,1.3
		C497.6,301.6,496.3,301.5,494.5,301.9z M512.6,272c1.3-0.3,2-1.2,2.2-2.5C514.1,270.3,513.3,271.1,512.6,272z M749.2,319.9
		c-2.1,0.5-3.5,0.8-5.3,1.2C745.9,321.8,747.4,321.7,749.2,319.9z M518.4,264.1c0.7,1,1.5,1.4,2.8,0.8
		C520.4,263.8,519.5,263.6,518.4,264.1z M535,318.5c-1.2-1.6-2-1.9-3.7-1.2C532.6,317.7,533.4,318,535,318.5z M572.8,339.5
		c0.1-0.1,0.2-0.1,0.3-0.2c0-0.1,0-0.2-0.1-0.3c-0.6-0.5-1.2-1.1-2.2-0.5C571.4,339.2,572,339.6,572.8,339.5z"/>
	<path fill="none" d="M385.7,236.6c-2.7,3.9-5.8,7.6-8.3,11.7c-2.1,3.5-3.5,7.2-4.6,11.1c-1.1,3.9-2.6,7.6-4.2,11.3
		c-2.2,5.1-4.2,10.2-5.1,15.8c-0.1,0.5-0.4,0.9-0.6,1.3c-1.1,0.7-2.3,0.5-3.4,0.5c-5.8-0.1-5.8-0.1-8,5.1c-0.9,2-2,3.8-4.6,3.9
		c1.4-1.8,3.4-3.4,3.7-6.4c-2.3,1.7-4.2,3.3-5.6,5.2c0.5,1.3,1.3,1.2,2,1.1c-2.8,2.4-6.1,3.3-10.1,2.9c0.7-1.9-0.4-3-1.6-3.8
		c-3.5-2.6-5-6.2-6-10.2c-0.5-2-0.2-3.4,1.6-4.6c0.9-0.6,1.7-1.5,2.5-2.3c0.6-0.4,1,0.8,2,0c3-4.6,5.8-9.7,8.3-14.9
		c0.3-0.7,0.7-1.4,0.7-2.1c0.6-7.1,3.8-13.5,5.5-20.4c2-7.8,4.2-15.6,6.1-23.5c0.7-3.1,2.4-5.8,3.1-8.9c1.1-5.3,2-10.6,3.7-15.8
		c1.5-4.9,3.2-9.8,4.9-14.7c1.9-5.3,4.1-10.6,4.8-16.3c0.4-3.4,1.7-6.6,2.4-9.9c0.9-4.1,2-8.1,2.4-12.2c0.5-5.8,3-10.6,6.5-15.1
		c1.7-2.2,2.8-4.4,3.1-7.2c0.3-2.9,1.9-4.9,4.8-5.6c0.9-0.2,1.7-0.6,2.5-0.8c6.9-1.1,13.7-3.5,20.8-3.4c5.2,0.1,9.4,2.6,13.1,6.1
		c6.1,5.9,11.3,12.6,16.1,19.6c3.8,5.6,7.9,11.1,11.5,16.9c3.9,6.3,7.7,12.7,11.1,19.4c6.7,13.2,11.9,27,17.3,40.7
		c2.2,5.6,4.9,11.1,7.3,16.7c2.6,6.3,4.8,12.7,8,19.1c-4.2,0.4-8.2,0.9-12.2,1.1c-6,0.4-11.7,1.5-17.4,3.4c-2.7,0.9-4.7,2.9-6.7,4.8
		c-1.2,1.2-2.3,2.3-3.7,3.3c-5.6,4.2-10.7,8.9-13.2,15.7c-0.1,0.4-0.3,0.7-0.5,1c-1.1,1-2.3,1.9-2.6,3.6c-0.2,1.3-0.6,2.7-0.9,4
		c-1.2-0.3-1-1.4-1.2-2.2c-2.4-7.3-4.8-14.6-7.7-21.7c-2.9-7-5.4-14.2-7.8-21.3c-1.5-4.3-1.5-8.9-2.4-13.4
		c-1.4-7.2-3.6-14.2-6.1-21.1c-3.3-9.1-6.5-18.3-9.8-27.4c-2.7-7.4-6.2-14.5-11.2-21.1c-0.2,1.5,0,2.8,0.7,3.6
		c2.8,3.5,2.9,8,4.8,11.8c2.7,5.5,4.1,11.4,5.7,17.2c3.1,11,2.6,10.3-1.9,20.3C400.3,218.9,393.9,228.5,385.7,236.6
		c0-0.6,0.3-1.4-0.6-2c-2.3,1.4-4.8,2.6-7,4.9C381.3,239.4,383.1,237,385.7,236.6z M353.3,280.2c-2.2,4.7-2.2,4.7-2,7.5
		C353.2,285.6,354,283.6,353.3,280.2z M354.6,270.4c1.7-1.4,1.9-2.9,1-5.3C354.2,267,354.4,268.7,354.6,270.4z M357.4,258.9
		c-0.8,1.2-1.7,2.3-1,3.8C357.9,261.8,357.6,260.4,357.4,258.9z M374.5,240.6c-0.8-0.7-1.4-0.4-1.9-0.1c-0.5,0.3-1.4,0.3-1.3,1.3
		C373,241.6,373,241.6,374.5,240.6z M394.7,156.1c-1-1.4-2-1.9-3.6-1.1C392.2,155.9,393,156.5,394.7,156.1z M354.3,274
		c-0.7,0.8-1.3,1.7-0.9,2.9C354.9,276.3,354.7,275.2,354.3,274z M389.1,154.2c0.3,0.4,0.7,0.2,1,0s1-0.2,0.6-0.9
		C389.9,153,389.3,153.3,389.1,154.2z M367.9,236.1c0.1-1.2,0.1-1.2-1.1-1.3C366.9,235.4,367.3,235.8,367.9,236.1z"/>
	<path fill="none" d="M508.5,127.5c1.8-2,3.1-4.5,5.2-6.3c1.9-1.7,4-3.1,6.4-4c3.3-1.3,6.4-1.2,9.9,0c5.7,2,10.6,5.2,15.9,7.8
		c1.7,0.8,2.8,2.2,3.4,3.9c2.6,6.7,5.1,13.4,7.6,20.2c2,5.6,2.7,11.5,3.9,17.3c2,10,4.1,20,6.1,30c1.4,7.1,2,14.2,3,21.4
		c0.3,2.3,0.3,4.6,0.9,6.7c1.8,6.4,1.2,13,1.8,19.6c0.1,1.5,0.3,3-0.6,4.7c-4-1.8-8-3.5-12.6-2.9c-2.1-2.5-5-2.6-7.9-2.4
		c-4.9,0.3-9.7,0.9-14.6,1.8c-6.6,1.2-12.9,3.2-19.4,4.8c-4,1-7.8,2.2-11.4,4.5c-1.5-3.3-2.9-6.4-4.4-9.6c1-2.1,2-4.1,3-6.2
		c0.9,1.6,1.5,2.9,1.1,4.8c-0.9,3.8-0.5,6,0.8,8.7c1.1-0.5,0.8-1.4,0.7-2.3c-0.7-5.2,0-10.3,0.5-15.4c0.7-6.3,1.3-12.5,1.7-18.9
		c0.5-7.9,1.6-15.8,1.8-23.8c0.3-12.8,0.7-25.7-2-38.4c-0.6-3,0.3-6,0.1-9.1c-0.1-0.9,0.6-2-0.6-3.1c-1.1,2.9-1.9,5.7-1.9,8.7
		c0,5.4,0.5,10.8,1.2,16.2c0.4,3.4,0.7,6.8,0.9,10.1c0.1,1.6,0.1,3.1-0.8,4.7c-0.9,1.6-0.6,3.7-0.3,5.6c1.1,8-0.4,15.8-1.3,23.7
		c-0.6,5.3-0.9,10.6-1.1,15.9c-0.1,2.1-0.6,3.9-1.7,5.7c-1.5,2.3-3.1,4.7-2.8,8.3c-1.8-1.9-2.9-3.5-3.5-5.3
		c-0.7-2.1-1.7-4.2-2.2-6.4c-1.4-5.8-4.8-10.8-6.8-16.4c1.3-2.5,2-5.2,2.1-8c0.1-1.5,0.3-3.1,0.7-4.5c2.2-6.9,3.5-14,4.9-21
		c0.8-4.1,3.1-7.7,4.5-11.6c1.6-4.4,2.4-8.9,2.7-13.6c0.4-6.1,1.7-12.2,2.7-18.3c0.1-0.7,0.3-1.6,0.8-2.1c1.5-1.6,1.6-3.7,1.8-5.7
		L508.5,127.5z M540.2,126.3c-0.9-1.9-1.9-3.6-4-4.5C537.3,123.6,538.4,125.3,540.2,126.3z M505.1,170.7c-2,2.9-2.3,3.9-2.1,6.7
		C503.8,175.4,505.1,173.7,505.1,170.7z"/>
	<path fill="none" d="M558,262.4c7.9,1.7,15.8,2.6,23.8,2.9c3.9,0.1,7.8,0.1,11.7,0.7c3.3,0.5,6.5-0.3,9.8-0.8
		c3-0.5,5.9-1.2,8.9-1.5c5.2-0.5,10.3,0.5,15.7,0.9c-0.6,17.5-1.6,34.9,0.5,52.2c-2.6,1.3-4.9-0.1-7.4,0.1c-2.7-2.3-5.8-4.1-9.5-5.8
		c0.8,2.3,2.7,2.7,3.7,4.3c-6.8-1.3-13.7-1-20.1-3.2c-0.3-0.1-0.7-0.3-1-0.3c-18.9-0.1-37.5-1.8-55.8-6.5c-6.5-1.6-13-3.1-20-3.1
		c1.9-7.7,4.1-15,8.1-21.6c1.1-1.9,2.6-3.4,4.4-4.6C537.8,271.3,549.7,265.4,558,262.4z M595.4,272.7c1.6,0,2.8-0.4,3.9-0.9
		c3.5-1.5,7-2.4,10.9-2.1c4.4,0.3,8.8,0.1,13.2,0.1c0.7,0,1.6,0.4,1.7-0.9c-1.1-0.9-2.4-0.6-3.6-0.6c-4,0-8.1,0.2-12.1,0
		C604.2,267.9,599.9,269.8,595.4,272.7z M551.3,268.8c3.5,2.4,6.8,0.4,9.6,1.4c0.9-0.7,1.4-1.4,1.2-2.6
		C558.8,267.7,555.2,265,551.3,268.8z M569.8,271.5c8-0.1,16-1,23.9-1.9C585.7,268.8,577.8,270.5,569.8,271.5z M589.5,275.7
		c-2.7-0.1-5.2,0.7-7.5,2.1C584.7,277.8,587.2,277.2,589.5,275.7z M604.5,302c0.6,1.5,0.6,1.5,2,1.5
		C605.8,302.9,605.7,302.1,604.5,302z M573.1,281.8c-1.4,0.8-2.8,0.6-3.4,2.5C571,283.5,572.3,283.7,573.1,281.8z M562.6,285.4
		c-0.3-0.3-0.7-0.3-1.1-0.2c-0.5,0.2-0.8,0.5-0.3,1.1C561.8,286.2,562.4,286.1,562.6,285.4z"/>
	<path fill="none" d="M631.4,316.9c-1.5-7.7-1.9-45.2-0.6-51.8c1.5,0.2,1.9,1.9,3.2,2.4c3.1,1.2,8.1,0.3,10.5-2
		c1.7-1.7,3.1-3.5,4.5-5.5c4.9-7.3,11.8-12,20.4-14c2.3-0.5,4.6-0.5,6.8,0c5.6,1.4,11.3,2.6,16.9,5.1c-0.2,2.1,1.2,3.3,2.8,4.4
		c5.4,3.9,10.8,7.8,16.3,11.7c0.3,0.2,0.6,0.4,1,0.6c7.1,2.6,12.4,8,18.3,12.5c1.5,1.1,2.9,2.3,4.8,3.8c-3.1,0.3-5.1-0.3-7-2.3
		c-5.5-5.7-12.4-9-20-10.9c-4.8-1.2-9.2,0.4-13.5,2.6c-5.3,2.7-9.4,6.7-11.9,12.2c-2.8,6-5.4,11.9-5.4,18.8
		c-7.5,2-14.8,4.5-22.3,6.2c-4.7,1.1-9.3,2.4-13.8,4C638.8,316,635.2,316.3,631.4,316.9z M667,302.5c0.8,1,1.9,1.2,3.7,1.4
		C669.1,303,668.1,302.4,667,302.5c-3.4-2.2-7-3.7-10.8-5C659.8,299.2,662.9,301.9,667,302.5z M655,301.1c0-1.9-1.2-2.7-2.1-3.7
		c-3.9-4.1-6.4-8.7-5.8-14.6c0.3-3.1-0.1-6.3,0.5-9.4c0.2-1.1,0.2-2-1.2-2.3c-1.7,1.9-2,2.6-2.2,5.4c-0.2,3.5,0.5,7,0.6,10.5
		c0.1,3.3,1.1,5.9,2.7,8.4C649.3,297.9,651.3,300.3,655,301.1z M640.8,305.2c0.2,1.1,0.4,2.2,0.7,3.9
		C641.9,307.4,641.9,306.4,640.8,305.2z M647.5,304.1c0.1,0.9-0.6,2,0.5,3C648,305.9,648.6,305,647.5,304.1z"/>
	<path fill="none" d="M508.6,320.7c1.9,0.7,3.8,1.4,6,2.3c0,8.5,3.2,15.5,11.3,19.8c-0.1,0.2-0.3,0.5-0.4,0.7c-4.5,0-8.9,0-13.4,0
		c-3.3,0-6.6,0.2-9.8,0.2c-11.5,0-22.8-1.3-32.6-7.8c-7.3-4.8-12.2-11.8-16.8-20.1c6.7,1.8,12.7,0.3,18.7,0.1
		c3.3-0.1,6.2,0.9,9.3,1.7c6.6,1.8,13.1,3.7,19.6,5.6c0.6,0.2,1.2,0.3,1.8,0.4c3.3,0.6,4.5,0,6.5-3.1L508.6,320.7z"/>
	<path fill="none" d="M434.6,275.4c3.2,8.2,7.8,15.6,8.9,24.6c-3.2-0.3-6.4-0.6-9.6-0.8c-6.1-0.4-11.9-1.6-17.6-3.9
		c-1.5-0.6-2.9-1.4-4.2-2.6c-1.1-1-1.6-2.1-1.6-3.7c0.1-2.4-0.1-4.8,0-7.2c0.1-2.5,0.3-5.1,3.2-6.8
		C420.4,278.2,427.3,276.1,434.6,275.4z"/>
	<path fill="none" d="M694.3,298.8c-0.3,1.3-1.2,2.3-2.4,2.7c-2.9,0.8-5.8,1.4-8.9,2.1c-0.5-2.5,0.1-4.4,0.7-6.3
		c1.2-4.2,3.1-8.3,5.1-12.2c2.1-4.1,5.6-7.2,9.6-9.4c3.2-1.8,6.8-1.6,10.4-1.3c5.2,0.5,13.6,4.9,17.8,9c-2.2,0.3-4.3,0.5-6.4,0.9
		c-5.1,0.8-9.7,2.8-13.5,6.3c-2.8,2.5-5.7,4.9-8.5,7.4l0.1,0.1c-0.4-1.6,1.5-2.1,1.7-3.7C697.4,295.2,696.5,298,694.3,298.8
		c-0.5-1.4,1-2.6,0.5-4.7C693.7,295.9,692.5,297.2,694.3,298.8z"/>
	<path fill="none" d="M550.4,343.9c-4.4-0.6-8.6-1.1-12.9-1.1c-8.6-0.1-18.4-6.1-19.9-16c-0.1-0.7-0.4-1.4-0.7-2.6
		C529.6,328.6,540.4,335.4,550.4,343.9z"/>
	<path fill="none" d="M607.9,260.8c-5.5,0.8-10.9,2-16.5,1.7c-5.4-0.3-10.8,0.4-16.3-0.9c-0.6-2.2,0-4.4,0.3-6.8
		c4.3,2,8.8,1.3,13.1,1.6c4.8,0.3,9.5,1.1,14.1,2.6C604.4,259.7,606.1,260.2,607.9,260.8z"/>
	<path fill="none" d="M831.2,358.2c-1-1.7-1-3.3-1.1-4.9c-0.3-8.6,1.3-16.8,3.9-24.9c2.4-7.5,5-15,7.6-22.6c0.1-0.2,0.4-0.3,0.8-0.7
		c0.6,5,0,9.8-0.7,14.6c-0.6,4.3-2,8.3-4.2,12.1c-1.6,2.7-2.8,5.6-4,8.6c-1.8,4.6-2.7,9.4-2.1,14.4
		C831.6,355.9,831.9,357,831.2,358.2z"/>
	<path fill="none" d="M841.5,349.7c1.3,0.6,1.3,1.3,1.5,1.8c1.9,4.1,4.6,7.5,8.7,9.6c2.8,1.5,5.5,3.4,8.8,3.8
		c1.3,0.2,2.3,1.4,3.3,2.5c-6.5,0.9-5.2,0.6-15.4-3.1c-0.1-1.3,1.4-1.3,1.7-2.3c-0.2-0.3-0.6-0.4-0.9-0.2c-1.3,0.6-2.2,1.6-3.1,2.4
		c-4.2-1.5-5.4-4.4-5-8.4C841.3,353.9,841.4,351.9,841.5,349.7z"/>
	<path fill="none" d="M861.7,379.6c-7-0.4-13.6-1.6-18.3-6.4c-0.3-1.5,0.3-1.6,0.9-1.9c0.2-1.2-1.7-3.1,0.6-4.1
		C847.5,375.4,854.8,377.1,861.7,379.6z"/>
	<path fill="none" d="M839,357c-3-1.7-2.3-4.6-3.8-6.3c1.9-4.6,3.7-9.1,5.6-13.6C841,343.7,838.3,349.9,839,357z"/>
	<path fill="none" d="M845.1,285.7c2.3,7.2,4.4,14.5,2.7,22.6C846.9,305.9,844.7,288.7,845.1,285.7z"/>
	<path fill="none" d="M663.9,359.6c6.3-1.2,12.6,0,18.9-0.8c0.5-0.1,0.8,0.4,1,1c-2,1.3-3.6,1.5-10,1
		C670.4,360.5,667.2,360,663.9,359.6z"/>
	<path fill="none" d="M842.5,334.7c3.3-8.4,4.3-17.4,7.8-25.6C849.2,318.2,846.5,326.7,842.5,334.7z"/>
	<path fill="none" d="M866.8,284.3c-1-5.3-3-10.1-7.4-13.8c3.6-0.1,5.7,1.3,6.9,4.6C867.3,278.1,867.4,281.2,866.8,284.3z"/>
	<path fill="none" d="M713.8,265.9c-5.4-4-10.8-8-16.2-12c1.9,0.1,3.2,1.1,4.6,2.1c3.1,2.2,6.2,4.3,9.2,6.6c1,0.8,1.8,2,2.7,2.9
		C714,265.6,713.9,265.7,713.8,265.9z"/>
	<path fill="none" d="M832.1,359.8c2.3-1.2,0.8-3.2,2.1-4.8c1.4,2.2,2.7,4.5,5.1,6.4C836.5,361.6,834.7,360.3,832.1,359.8z"/>
	<path fill="none" d="M881.5,368c-4.5,2.4-9.2,2.3-14,1.6C872,368.1,876.8,369,881.5,368z"/>
	<path fill="none" d="M864.9,371.2c-3.9-0.6-8,1-11.6-1.6c2,0.2,3.9,0.2,5.9,0.2C861.2,369.8,863.1,370.3,864.9,371.2z"/>
	<path fill="none" d="M330.6,280.2c-0.6-2.1,1.1-2,2-2.5C332.4,278.9,331.6,279.5,330.6,280.2z"/>
	<path fill="none" d="M850.7,367.8c-1.6,0.2-2.6,0.3-3.5-0.8C848.5,366.2,849.3,366.9,850.7,367.8z"/>
	<path fill="none" d="M842.6,366.1c-0.3-0.4-0.5-0.8-0.3-1.1c0.3-0.4,0.6-0.2,0.8,0.1C843.4,365.5,843.2,365.8,842.6,366.1z"/>
	<path fill="none" d="M800,269.6c1-0.8-0.2-2.2,1-3.1c1.7,2,0.2,3.9-0.1,5.6c-2.6,2.2-5,1.3-8.2-0.1c1.3-0.4,2.1-0.6,2.8-0.8
		c1.3-1.5,0-3.1,0.2-4.6c0.8-0.7,1.7-0.2,2.4-0.3C799.3,267.2,798.4,269,800,269.6z"/>
	<path fill="none" d="M331.8,312.1c-0.7,0.6-0.4,1-0.3,1.3c0.1,0.4,0.3,0.7-0.2,0.9c-2.3-1-2.9-1.9-2.4-3.8c0.4-1.4,1.2-2.3,2.7-2.2
		c2.1,0.2,2.5,1.8,2.4,3.3C333.2,312.9,332.4,311.5,331.8,312.1z"/>
	<path fill="none" d="M324.4,309.8c0,1.7-1.2,3.1-2.6,3.1c-1.3,0-2.5-1.2-2.6-2.7c-0.1-1.7,1.3-3.4,2.9-3.3
		C323.4,307,324.4,308.2,324.4,309.8z"/>
	<path fill="none" d="M311.8,307.7c-0.2-1-0.2-1.5,0.3-2.1c1.1-0.4,2.1-0.3,3,0.7C314.5,308.4,314.5,308.4,311.8,307.7z"/>
	<path d="M375.9,612.3c2.9-2.1,9.7-1.3,12.8,1.5C381.5,614.8,378.4,614.5,375.9,612.3z"/>
	<path d="M457.7,601.2c2.9,0.1,11.5,2.3,13.1,3.4C468.1,607.4,461.3,605.6,457.7,601.2z"/>
	<path d="M583.9,624.3c-4.6,4-9.9,2.4-15.1,1.1c2.6,0,5.1-0.1,7.7,0C579.1,625.6,581.4,624.5,583.9,624.3z"/>
	<path d="M586.9,595.7c-5,1.8-10.2,0.5-15.3,0.4C576.7,595.7,581.8,594.9,586.9,595.7z"/>
	<path d="M456.6,600.4c-1.7,1.4-3.4,0.3-5,0c-1.7-0.3-3.4,0.6-5-0.3C450,598.3,453.3,599.8,456.6,600.4z"/>
	<path d="M494.1,619.9c2.9,0.6,5.1,2.1,6.9,5.1C497.3,624.5,496.3,621.4,494.1,619.9z"/>
	<path d="M381.3,602.1c-1.9,2-3.5,3.2-5.6,4C376.2,603.4,377.1,602.7,381.3,602.1z"/>
	<path d="M531.9,597.4c-2.4,2.4-5.1,0.3-7.7,0.6C526.7,596.5,529.3,597.1,531.9,597.4L531.9,597.4z"/>
	<path d="M460,615c-2,1.6-4,1.5-6.2,1.3C456.3,614.9,456.6,614.8,460,615z"/>
	<path d="M610.9,614.9c1.3-0.7,2.6-2,4.5-0.9C614,615.6,612.6,615.9,610.9,614.9z"/>
	<path d="M549.7,623c-0.9,1.3-2.1,1.2-3.4,0.9C547.2,622.2,548.5,622.8,549.7,623z"/>
	<path d="M353.3,605.4c2-1.5,3.4-1.1,5.2-1.1C356.2,605.3,356.2,605.3,353.3,605.4z"/>
	<path d="M515.9,597.3c-1.1,1.9-2.2,2.1-3.9,1.6C513.1,598,514.1,597.8,515.9,597.3z"/>
	<path d="M605.6,615.2c0.8-1.4,1.4-0.8,2.2-0.5C607.1,616.1,606.4,615.4,605.6,615.2z"/>
	<path d="M486,613.4c-1.1-0.2-1.7-0.9-2.2-1.8C484.5,610.8,485.2,611.3,486,613.4z"/>
	<path d="M562.5,625.8c-1.1,0.7-1.9,0.8-2.7,0.1C560.6,625,561.4,624.7,562.5,625.8z"/>
	<path d="M441.7,598.6c-0.9,1.1-1.6,1.4-2.6,0.7C439.6,598,440.4,597.9,441.7,598.6z"/>
	<path d="M446.5,616.8c-0.8,0.6-1.5,0.6-2.2-0.1C445.1,616.3,445.8,616,446.5,616.8z"/>
	<path d="M351.1,584.3c-0.7-2.4,0.7-4.3,1.5-7C354,580.5,352.6,582.4,351.1,584.3z"/>
	<path d="M354.1,567.7c-0.3-1.9,0.1-3.5,0.8-5.1C356.3,565.1,356.3,565.1,354.1,567.7z"/>
	<path d="M357.3,555.7c0.2,1.4,0.1,2.8-0.8,4C356,557.8,356,557.8,357.3,555.7z"/>
	<path d="M390.8,452.3c1.6-1.2,2.5-0.4,3.6,0.7C392.8,454,391.9,452.3,390.8,452.3z"/>
	<path d="M370.6,538.8c1.1-1.1,2-1.9,4-1.3C373.3,538.7,372.2,539.3,370.6,538.8z"/>
	<path d="M353.2,573.9c-0.5-1.3-0.3-2.4,0.9-3.4C354.7,572,354.6,573.1,353.2,573.9z"/>
	<path d="M390.8,450.2c-0.4,1.3-1.4,1-2.4,1.4C388.9,450.3,389.7,450.2,390.8,450.2z"/>
	<path d="M369.6,536.8c-0.9,1-1.3,0.4-1.7-0.1C368.4,536,368.9,536.2,369.6,536.8z"/>
	<path d="M367.9,532.8c-0.9,0.2-1.1-0.3-1.2-1C367.6,531.5,368,531.8,367.9,532.8z"/>
	<path d="M388.2,460.9c0.5-0.8,0.7-1.4,1.5-1.1C389.7,460.5,389.2,460.7,388.2,460.9z"/>
	<path d="M730.6,589.9c-1.4,0.1-2.4-0.8-3.4-1.4c-15.5-9.9-29.7-21.4-41.1-36c-2.2-2.7-3.9-5.7-5.3-9.2c2.9-0.1,2.8,2.5,3.9,3.7
		c1.2,1.2,2.4,2.4,3.9,3.4c-4.1-7.1-7.6-14.3-9.9-22.2c1.5-0.2,1.5,0.8,1.7,1.3c2.7,6.2,5.1,12.6,8.7,18.4c3.7,6.1,8.7,11,14.5,14.7
		c3.4,2.1,5.6,5.2,8.8,7.4c5.5,3.8,10.7,8,16,12.1c2,1.5,3.8,3.1,5.3,5.2c-1.2,0.6-1.7-0.2-2.2-0.6c-2.9-2.3-5.9-4.2-9.4-5.5
		c-3.7-1.4-6.5-4.2-9.1-7.2c-3.9-4.4-8.5-7.8-13-11.5c-1.9-1.5-3.7-3.1-5.5-4.7c-1.4-1.2-2.8-2.4-4.7-3.2c0.5,0.6,1,1.2,1.5,1.8
		c8.9,9.9,19,18.4,29.8,26.2C724.3,584.9,727.7,587,730.6,589.9L730.6,589.9z"/>
	<path d="M666.1,572.5c-3.2-2.2-5.4-5.2-6.6-9.6c-0.7,3.2,0.4,5.1,1.7,6.7c1.4,1.7,0.2,4.1,1.8,5.6c-4.1-3.2-5.1-7.6-5.5-12.4
		c2-1,3.1-2.5,4.2-4.4c-0.2-1.8-0.4-3.8-0.6-5.8c-0.3-2.5-0.8-4.9,0.1-7.5c0.7-2.2-0.8-4.4-0.5-7.2c1.1,0.9,1.9,1.7,2.7,2.4
		c-0.7,2.2-0.2,4.2,0.6,6.3c1.9,4.9,4.1,9.8,6.6,14.4c0.3,0.6,1.1,1.2,0.4,2.2c-2.9-2.9-3.9-7-6.2-10.2c0.9,7.2,5.9,12.7,7.8,20
		c-5.2-2.8-8.3-6.7-10.2-11.7c-1,0.1-0.7,0.7-0.7,1.1c0,0.4,0.1,0.7,0.2,1.1c0.9,3.9,3.8,6.4,6.5,9.1
		C667.6,572.6,666.8,572.5,666.1,572.5L666.1,572.5z"/>
	<path d="M668.2,572.6c0.7,1.4,2.1,2.2,3.2,3.2c3.6,3.1,3.8,7.4,0.5,10.9c-0.9,0.9-1.8,1.8-2.4,2.9c-2.2,3.7-5.8,4.7-9.6,5.2
		c-3.2,0.4-9.4-3.9-10.5-6.9c-1-2.7-0.1-4.8,2-7.1c0.9,1.7,0,3.2,0.4,4.7c0.8,1.9,2.5,3.2,4.3,4.4c3.8,2.4,7.6,1.8,10.3-1.7
		c1.3-1.7,2.7-3.3,4.2-5.1c0-3-1.2-5.4-3.9-7.1c-1.1-0.7-2.4-1.4-2.7-3c0.7-0.6,1.5-0.5,2.2-0.5l-0.1-0.1c0.3,0.7,0.8,1.3,1.8,1.1
		C667.9,573.3,668.1,573,668.2,572.6z"/>
	<path d="M703.2,559.1c-2-3.7-4.8-6.8-7.2-10.1c-5.6-7.4-9.9-15.5-12.1-24.5c-0.2-0.8-0.7-1.7-0.1-2.6c1.1,0.8,1.2,2.1,1.5,3.3
		c2,7.4,5.6,14,10,20.2c4.4,6.3,9.2,12.3,15.1,17.4c3,2.6,6.1,4.8,9.4,7c1.9,1.3,4.3,2.1,5.5,4.3l0,0c-5.7-2.3-10.7-5.6-15.3-9.7
		C707.8,562.4,706,560.1,703.2,559.1L703.2,559.1z"/>
	<path d="M714.5,562c-2.9-2.5-4.9-5.7-7.1-8.8c-5.8-8.1-11.4-16.3-16.5-24.9c-1.5-2.4-3-4.9-3.6-7.7c0.6-0.5,0.8,0,1,0.2
		c7.2,13.5,15.9,26,24.9,38.3c0.6,0.8,1.4,1.4,1.6,2.5C714.7,561.8,714.6,561.9,714.5,562z"/>
	<path d="M720.6,641.7c-0.4-5.5,0.2-10.2,2.5-14.4c1.7,0.1,2,1,2.1,2C725.7,633.1,723.9,638.2,720.6,641.7z"/>
	<path d="M656.2,583.9c-0.1-1.5-0.3-2.9-0.4-4.7c2.1,0.3,3.5-0.6,4.6-2.1c1.5,0.7,2.8,1.4,4.3,2.1c-0.6,1.4-2.3,1.2-2.8,2.3
		c-0.9,1.1,0.6,2.7-1.4,3.8c-1.3,0.4-2.6-1.5-4.3-1.6L656.2,583.9z"/>
	<path d="M657.6,588.6c1.3-1.8,3.3-1.1,5.1-2.4c1-0.9,1-3.5,3.1-3.9c0.8-1.2-0.6-2.5,0.8-3.5c1.6,0.8,2.1,2.3,2.5,3.8
		c-0.5,1.6-2,1.7-2.9,2.5C663.9,589.3,660.9,590.6,657.6,588.6z"/>
	<path d="M673.6,531.7c3.1,9.9,7.5,19.2,12.6,28.2C679.9,551.5,675.4,542.2,673.6,531.7z"/>
	<path d="M688.8,603.2c-3.9,0.7-7.7,0.1-11.9-0.4c1.8,1.8,4.6,1.2,5.7,3.4c-0.9,0.8-1.8,0.3-2.5-0.1c-3.2-1.9-7.1-2.5-9.8-5.3
		C676.5,601.2,682.6,602.9,688.8,603.2z"/>
	<path d="M667.8,598.5c6.6-0.3,12.9,1.2,19.3,2.5C680.6,601.4,674.2,600,667.8,598.5z"/>
	<path d="M672.7,588c3.9,0.5,7.7,1,11.1,3.9C679.4,591.9,675.9,590.4,672.7,588z"/>
	<path d="M668.4,594.2c3.5,2.2,7.8,1.6,11.5,3.9c-2.8-0.2-5.3-0.4-7.8-0.6C670.2,597.2,668.9,596.2,668.4,594.2z"/>
	<path d="M656.1,583.8c0.5,1,1.6,1.6,1.6,3.2c-2-0.4-2.8-2.2-4.7-2.7c1.4-1.4,2.3-0.1,3.2-0.3L656.1,583.8z"/>
	<path d="M669,617.4c-0.6,2.2-1.2,4.4-1.9,7.2C666.7,621.5,667.2,619.1,669,617.4z"/>
	<path d="M652.7,532.4c0.3,1.6-0.1,2.9-1,4.1C651.4,534.9,651.6,533.5,652.7,532.4z"/>
	<path d="M679.7,629.3c-1.7-0.8-2.3-2.5-3.4-3.9C677.7,626.6,679.3,627.4,679.7,629.3L679.7,629.3z"/>
	<path d="M714.8,561.7c1,0.6,1.5,1.5,2.2,3c-1.4-0.9-2.1-1.7-2.5-2.7C714.6,561.9,714.7,561.8,714.8,561.7z"/>
	<path d="M725.2,574c1-0.1,1.7,0.5,2.6,1.3C726.5,575.3,725.7,574.9,725.2,574L725.2,574z"/>
	<path d="M676.2,591.8c-0.7,0.4-1.4,0.4-2-0.3C675,590.5,675.6,591.4,676.2,591.8z"/>
	<path d="M682.1,595.9c-1.1-0.1-2.1-0.1-3.9-0.2C680,595.3,681.1,595.2,682.1,595.9L682.1,595.9z"/>
	<path fill="none" d="M668.2,572.6c-0.1,0.3-0.3,0.6-0.4,0.9c-1,0.1-1.4-0.4-1.8-1.1c0.8,0.1,1.5,0.2,2.3,0.3L668.2,572.6z"/>
	<path d="M730.5,589.9c0.8,0,1.3,0.5,2.2,1.3C731.5,591.1,730.7,590.9,730.5,589.9L730.5,589.9z"/>
	<path d="M703.2,559.1L703.2,559.1c0.1,0.4,0.3,0.8,0.7,1.5C703.2,560,702.4,559.8,703.2,559.1z"/>
	<path d="M674.8,623.4c-1.3-1.3-1.1-2-1-2.8C674.7,621.3,674.1,622,674.8,623.4z"/>
	<path d="M682.8,585.4c-0.7-0.1-1.4-0.3-2-1C681.9,584.1,682.4,584.6,682.8,585.4L682.8,585.4z"/>
	<path d="M536.1,418.9c2.2,1.1,3.5,3.1,4.6,5.3C538.6,422.9,537.2,421,536.1,418.9z"/>
	<path d="M504.3,468.3c0.7,2.3-0.8,3.9-1.6,5.7C502.4,471.9,503,470,504.3,468.3z"/>
	<path d="M481.9,574c-0.1-2,1.4-3.2,2.6-4.4c5.6-5.5,12.4-8.9,19.7-11.4c0.4-0.1,0.7,0,1.2,0.7c-2.3,1.9-5.3,2.7-8,4
		c-3,1.4-5.6,3.2-8.4,5C486.4,569.8,484.4,572.2,481.9,574L481.9,574z"/>
	<path d="M511.2,566.8c-4.4,5.9-8.1,12.1-10.8,18.9C501.6,578,505.9,572.1,511.2,566.8z"/>
	<path d="M517.5,560.5c1.6,0.4,2.6,0.5,3.8,1.5C519.7,562.3,518.6,562.3,517.5,560.5z"/>
	<path d="M481.8,574c-0.1,1.6-1.2,2.6-1.9,3.9C480,576.3,480.4,574.9,481.8,574L481.8,574z"/>
	<path d="M491.1,577.2c-0.6,1.1-1.1,2.4-2.5,2.8l0.1,0.1c0.1-1.4,0.9-2.4,2-3.3C490.9,576.9,491,577.1,491.1,577.2z"/>
	<path d="M488.6,580c0,0.8-0.2,1.3-1,1.7C487.6,580.8,488,580.3,488.6,580L488.6,580z"/>
	<path d="M541.9,578.7c0-5.6,3.2-10.7,8.9-12.9c-2.2,2.5-3.9,4.3-5.6,6.2C543.4,573.8,542.6,576.2,541.9,578.7L541.9,578.7z"/>
	<path d="M566.9,578.4c-2.9,3.1-5.9,5.9-10.1,8.7c0.9-2.4,2.4-3.3,3.6-4.5c1.6-1.6,3.3-3,5-4.5c0.6-0.5,1.1-0.4,1.4,0.4L566.9,578.4
		z"/>
	<path d="M775.2,669.1c1.2,0.7,2.6,1.3,3.1,2.7C776.9,671.4,775.7,670.8,775.2,669.1z"/>
	<path d="M773.7,616.9c-0.3,1.9-1.3,2.6-3.1,3.2C771.1,618.2,771.8,617.2,773.7,616.9z"/>
	<path d="M726.5,613.1c-0.3,0.3-0.7,0.5-1.1,0.8C725.2,613.1,725.8,613,726.5,613.1z"/>
	<path d="M505.7,261.6c-0.7,1.6-2.2,1.8-3.4,2.3c-4.5,2-8.9,4-12.9,7c-3.7,2.7-7.1,5.6-9.1,10.3C480.8,272.6,497,262.3,505.7,261.6z
		"/>
	<path d="M509.3,311c2.3-0.2,11.2,1.8,13.7,2.9C519,315.8,512.5,314.5,509.3,311z"/>
	<path d="M511.7,269.6c-4.6,6-8.4,12.4-11.1,20.2C500.5,284.2,505,276,511.7,269.6z"/>
	<path d="M678.1,347.9c-4.8,1.5-9.6,2.5-14.5-0.3c2.3-0.4,4.7,0.6,7,0.2c2.4-0.4,4.9-0.7,7.3-1.1C678,347.1,678.1,347.5,678.1,347.9
		z"/>
	<path d="M615.9,338.6c3.9-1.2,7.1-2.1,10.3-3.1c0.7,0.4,0.8,0.9,0.2,1.4C624.4,338.5,619.4,339.4,615.9,338.6z"/>
	<path d="M597.6,346.1c-3.2,0.3-6.3-0.4-9.1-2.2C591.7,343.9,594.7,344.6,597.6,346.1z"/>
	<path d="M529.3,317.3c-1.9,0-3.5-0.1-5-1.8C526.6,315.3,528.1,316,529.3,317.3z"/>
	<path d="M494.5,301.9c1.8-0.5,3.2-0.3,4.6,1.3C497.2,303.3,495.8,303.3,494.5,301.9z"/>
	<path d="M512.6,272c0.7-0.8,1.5-1.7,2.2-2.5C514.6,270.8,513.9,271.7,512.6,272z"/>
	<path d="M749.2,319.9c-1.8,1.8-3.3,1.9-5.3,1.2C745.7,320.7,747.1,320.4,749.2,319.9z"/>
	<path d="M518.4,264.1c1.1-0.5,1.9-0.3,2.8,0.8C520,265.5,519.1,265.1,518.4,264.1z"/>
	<path d="M535,318.5c-1.6-0.5-2.4-0.8-3.7-1.2C533,316.6,533.8,316.8,535,318.5z"/>
	<path d="M572.8,339.5c-0.8,0.1-1.4-0.3-2-1c1-0.6,1.6,0.1,2.2,0.5c0.1,0.1,0.1,0.2,0.1,0.3C573.1,339.4,572.9,339.5,572.8,339.5z"
		/>
	<path d="M524.6,259.2c-0.8-0.1-1.6-0.2-2.5-0.3C523,258.5,523.8,258.7,524.6,259.2L524.6,259.2z"/>
	<path d="M347.1,297.2c-0.8,0.1-1.5,0.1-2-1.1c1.3-1.9,3.2-3.4,5.6-5.2c-0.2,3-2.2,4.6-3.7,6.4L347.1,297.2z"/>
	<path d="M385.7,236.6c-2.6,0.5-4.4,2.9-7.7,2.9c2.2-2.4,4.8-3.5,7-4.9C386,235.2,385.7,235.9,385.7,236.6L385.7,236.6z"/>
	<path d="M353.3,280.2c0.7,3.4-0.1,5.5-2,7.5C351.1,284.8,351.1,284.8,353.3,280.2z"/>
	<path d="M354.6,270.4c-0.1-1.7-0.4-3.4,1-5.3C356.5,267.4,356.2,269,354.6,270.4z"/>
	<path d="M357.4,258.9c0.2,1.5,0.5,2.8-1,3.8C355.7,261.2,356.6,260.1,357.4,258.9z"/>
	<path d="M374.5,240.6c-1.5,1.1-1.5,1.1-3.3,1.2c0-1,0.8-1,1.3-1.3C373,240.2,373.6,239.8,374.5,240.6z"/>
	<path d="M394.7,156.1c-1.7,0.4-2.5-0.2-3.6-1.1C392.7,154.2,393.6,154.7,394.7,156.1z"/>
	<path d="M354.3,274c0.4,1.2,0.7,2.3-0.9,2.9C353,275.7,353.6,274.8,354.3,274z"/>
	<path d="M389.1,154.2c0.2-0.8,0.8-1.1,1.7-0.9c0.4,0.7-0.3,0.7-0.6,0.9C389.8,154.4,389.4,154.6,389.1,154.2z"/>
	<path d="M367.9,236.1c-0.6-0.3-1-0.6-1.1-1.3C368,234.9,368,234.9,367.9,236.1z"/>
	<path d="M540.2,126.3c-1.9-1-3-2.7-4-4.5C538.3,122.7,539.4,124.4,540.2,126.3z"/>
	<path d="M505.1,170.7c0,3-1.3,4.7-2.1,6.7C502.8,174.6,503,173.6,505.1,170.7z"/>
	<path d="M595.4,272.7c4.5-2.9,8.8-4.8,14-4.5c4,0.2,8,0,12.1,0c1.2,0,2.5-0.3,3.6,0.6c-0.1,1.2-1,0.9-1.7,0.9
		c-4.4,0-8.8,0.2-13.2-0.1c-3.9-0.3-7.4,0.6-10.9,2.1C598.2,272.3,597,272.7,595.4,272.7z"/>
	<path d="M551.3,268.8c3.9-3.8,7.4-1.1,10.8-1.1c0.2,1.2-0.3,1.8-1.2,2.6C558.1,269.2,554.8,271.2,551.3,268.8z"/>
	<path d="M569.8,271.5c8-1,15.9-2.7,23.9-1.9C585.8,270.5,577.8,271.5,569.8,271.5z"/>
	<path d="M589.5,275.7c-2.3,1.4-4.8,2.1-7.5,2.1C584.3,276.4,586.7,275.6,589.5,275.7z"/>
	<path d="M604.5,302c1.3,0.1,1.3,1,2,1.5C605.1,303.5,605.1,303.5,604.5,302z"/>
	<path d="M573.1,281.8c-0.8,2-2.1,1.8-3.4,2.5C570.3,282.4,571.7,282.5,573.1,281.8z"/>
	<path d="M562.6,285.4c-0.2,0.7-0.7,0.9-1.4,0.9c-0.5-0.6-0.2-0.9,0.3-1.1C561.9,285.1,562.2,285,562.6,285.4z"/>
	<path d="M655,301.1c-3.7-0.7-5.6-3.2-7.4-5.7c-1.7-2.5-2.7-5.1-2.7-8.4c-0.1-3.5-0.8-7-0.6-10.5c0.2-2.8,0.5-3.4,2.2-5.4
		c1.3,0.3,1.4,1.3,1.2,2.3c-0.6,3.1-0.2,6.3-0.5,9.4c-0.6,5.9,1.9,10.5,5.8,14.6C653.8,298.3,654.9,299.2,655,301.1z"/>
	<path d="M667,302.5c-4.1-0.5-7.2-3.2-10.8-5C660,298.8,663.6,300.3,667,302.5L667,302.5z"/>
	<path d="M640.8,305.2c1.1,1.1,1.1,2.2,0.7,3.9C641.2,307.5,641,306.3,640.8,305.2z"/>
	<path d="M666.9,302.6c1.2-0.2,2.1,0.5,3.8,1.3C668.9,303.7,667.8,303.5,666.9,302.6L666.9,302.6z"/>
	<path d="M647.5,304.1c1,0.8,0.5,1.8,0.5,3C646.9,306.1,647.6,305.1,647.5,304.1z"/>
	<path d="M694.3,298.8c-1.8-1.6-0.6-2.9,0.5-4.7C695.3,296.1,693.8,297.4,694.3,298.8L694.3,298.8z"/>
</g>
</svg>
