<?xml version="1.0" encoding="utf-8"?>
<!-- Generator: Adobe Illustrator 19.2.0, SVG Export Plug-In . SVG Version: 6.00 Build 0)  -->
<svg version="1.1" id="Layer_2" xmlns="http://www.w3.org/2000/svg" xmlns:xlink="http://www.w3.org/1999/xlink" x="0px" y="0px"
	 viewBox="0 0 900 600" style="enable-background:new 0 0 900 600;" xml:space="preserve">
<g>
	<path d="M293.6,236.1c0.1,1.2,0.2,2.4,0.1,3.6c-0.1,1.7-0.1,3.5-0.6,5c-1.5,4-3.7,7.6-7.2,10.3c-1.4,1.1-2.5,2.3-3,3.9
		c-0.8,2.4-1.8,4.7-3,6.9c-1.1,2-1.6,4.3-2.3,6.5c-0.4,1.3-0.5,2.6-1,3.9c-1.8,4.4-0.6,8.6,0.7,12.7c0.4,1.3,0.8,2.5,0.8,3.8
		c0.1,2.4,0,4.8,1.2,7.1c0.3,0.5,0.2,1.2,0.2,1.8c0.1,0.8,0,1.7,0.2,2.5c1,5.4,0.7,10.8,0.5,16.2c-0.1,4-1,7.9-1.5,11.8
		c-0.3,2-0.5,4.1-0.7,6.1c-0.2,1.9-0.4,3.8-0.5,5.8c-0.1,4-0.1,8-0.2,12c0,1.2,0.1,2.4,0.1,3.6c-0.1,1.2-0.3,2.4-0.4,3.7
		c0.4,0.5,0.9,1.1,1.4,1.5c3.9,3.2,5.8,7.6,7,12.4c0.7,2.7,0.8,5.5-0.3,8.2c-0.3,0.9-0.3,1.9-0.3,2.8c0,4.1,0.1,8.2,0,12.3
		c0,2.3-0.3,4.6-0.6,6.8c-0.1,1-0.1,1.9,0.3,2.8c1.4,3.7,2.8,7.5,4.2,11.2c0.3,0.7,0.8,1.3,0.9,2c1.1,6.9,2.5,13.8,2.5,20.8
		c0,1.9,0,3.8,0.5,5.8c0.3,1.1,0.1,2.4,0.1,3.6c0,6.9-0.2,13.8-0.1,20.7c0.1,4.6,0.7,9.1,1.1,13.7c0.1,1.6,0.4,3.1,0.4,4.7
		c0.2,3.9,1,7.7,2.4,11.3c1.6,4.3,3.6,8.4,5.4,12.7c0.5,1.2,1.4,2.3,0.5,3.7c-0.1,0.1-0.1,0.2-0.1,0.4c0.2,3.2,0.5,6.5,0.7,9.6
		c4,1.1,4,1.1,4.3,5.1c0.2,1.7,0.3,3.4,0.4,5.1c0.1,1.3,0.2,2.6,0.9,3.8c0.5,0.8,0.4,1.8,0.5,2.8c0.2,1.9,0.2,3.9,0.4,5.8
		c0.3,2.3,1.3,4.4,2.4,6.4c0.9,1.6,1,3.1-0.4,4.6c-0.8,0.9-1.3,2-2.4,2.7c-2.6,1.7-2.9,3.7-1.3,7c1.1,2.2,1.5,4.3,1.4,6.6
		c-0.1,1.6,0,3.1-1,4.5c-0.6,0.8-0.8,2-1.1,3c-0.4,1.5-1.4,2.5-2.8,3.2c-1.7,0.9-3.6,1.5-5.5,1.6c-2.8,0.1-5.6,0.2-8.3,0.2
		c-5.6-0.2-11.1-0.2-16.6-0.9c-5.8-0.8-11.4-2-16.9-4.7c-0.1-0.8-0.4-1.7-0.4-2.7c0-1.3,0.2-2.7,0.2-4c-0.1-4.7,1.8-8.7,4.3-12.4
		c0.9-1.3,1.7-2.7,2.4-4c1.2-2.2,2.2-4.6,3.9-6.5c0.4-0.4,0.8-1,0.9-1.5c1.2-3.6,2.2-7.2,1.8-11c-0.1-1.4-0.1-2.9,0.1-4.3
		c0.4-2.7,1.1-5.3,4-6.4c0.3-0.1,0.6-0.4,0.9-0.7c-0.1-0.9-0.2-1.7-0.4-2.5c-0.5-2.1-1-4.2-1.5-6.3c-0.6-2.6-1.1-5.2-0.9-7.9
		c0.1-1.7-0.1-3.4-0.7-5c-0.2-0.6-0.3-1.2-0.5-1.8c-1.4-4.5-2.4-9-5-13.1c-2.5-4-4.4-8.3-6.6-12.5c-0.4-0.7-0.9-1.4-1.5-2.4
		c-0.7,1.7-1.3,3.2-1.9,4.6c-5.2,10.9-11.1,21.5-18.7,31c-0.3,0.4-0.6,0.8-0.9,1.1c-3.9,5.5-9.6,8.3-15.9,9.9
		c-0.9,0.2-1.8,0.4-2.8,0.1c-2.8-0.8-5.6-1.5-8.4-2.2c-1-0.2-1.7-0.7-2.4-1.4c-2.1-2-4.3-3.9-6.5-5.7c-0.8-0.7-1.8-1.2-2.8-1.6
		c-5.4-2.2-10.3-5.3-14.8-9c-1.5-1.2-3.1-2.4-4.4-3.7c-2-2-4.4-3.4-6.8-4.8c-7.3-4.1-14.4-6.7-22.4-8.3c-1.2,0.7-2.1,1.5-3.2,1.8
		c-2.3,0.6-4.7,1-7.1,1.4c-1.8,0.3-3.6,0-5.4,0.6c-1.3,0.4-2.6-0.3-3-1.5c-0.6-1.6-1.9-2.7-2.4-4.3c-0.4-1.4-1-2.7-1.4-4.1
		c-1.4-5.4-1.1-10.5,2.2-15.2c0.5-0.7,1-1.7,1.1-2.6c0.1-1.5,0.8-2.8,1.5-4c0.6-1,1.1-2.1,1.8-3.6c2.4-1.3,5.2-0.9,8,0.1
		c0.9,0.3,1.4,1.3,1.9,2.1c0.2,0.3,0.8,0.4,1.3,0.6c-0.9-3.1-1.7-4.1-4.1-4.3c-3-0.2-6-0.4-8.9,0.5c-0.4-0.5-0.6-0.8-1-1.2
		c-1-0.4-1.9,0.2-2.7,0.7c-1.7,1-3.5,1.7-5.3,2.3c-2.4,0.8-4.7,1.8-7,2.8c-0.6,0.3-1.3,0.7-1.7,1.2c-1.2,1.4-2.3,2.8-3.4,4.3
		c-0.7,1-1.6,2.1-0.9,3.6c0.2,0.3-0.2,0.9-0.4,1.4c-1.1,3-1.2,6.1-1.1,9.3c0.1,2.5,0.9,4.7,2.6,6.6c1.3,1.6,2.7,3.1,4.2,4.5
		c2.1,2,3,4.2,2.4,7.1c-0.3,1.5-0.1,3.1-0.1,4.7c0.1,3.1-0.8,6-2.6,8.5c-3.1,4.4-3.8,9.3-3.3,14.5c0.1,0.8,0.3,1.5,0,2.4
		c-0.3,0.7-0.2,1.7-0.2,2.5c-0.2,2.5,0.7,4.2,3.3,4.8c0.3,0.1,0.8,0.2,1,0.4c1.4,1.7,3.4,1.7,5.3,2c3.3,0.4,6.7,0.9,10.1,1.2
		c3.1,0.3,6.3,0.3,9.4-0.5c1.6-0.4,3.3-0.2,5-0.9c2.5-1,4-2.6,4.6-5.2c0.4-1.6,0.8-3.3,1.2-4.9c0.5-1.8,0.6-3.6,0.2-5.6
		c-2-0.8-3.6-2.1-4.7-4.1c-0.8-1.5-1.6-3-1.6-4.7c0-0.3,0.2-0.6,0.3-0.9c0.9-0.1,1.1,0.6,1.3,1.1c0.6,1.8,1.9,3.1,3.4,4.1
		c0.2,0.1,0.4,0.3,0.6,0.4c3.5,1.9,4.3,5.1,3.6,8.7c-0.5,2.6-1.1,5.2-2,7.7c-0.9,2.6-2.6,4.7-5.3,5.6c-1.6,0.5-3.2,0.9-4.9,1.2
		c-1.9,0.3-3.8,0.7-5.7,0.7c-2.6,0-5.3-0.2-7.9-0.5c-2.9-0.3-5.8-0.6-8.6-0.9c-2.4-0.3-4.7-1-6.9-2.1c-3.8-1.8-4.9-5-5-8.9
		c0.5,0,0.9,0.1,1.4,0.1c0.1-1.8,0.2-3.6,0.2-5.3c-0.1-4,0.8-7.7,2.3-11.3c0.1-0.3,0.3-0.7,0.5-1c2.7-4.2,2.7-8.9,2.3-13.7
		c-0.2-2.6-0.9-4.9-3-6.7c-1.9-1.7-3.3-3.9-4.2-6.3c-1.3-3.5-1.1-7.1-0.4-10.7c0.4-2,1.2-3.9,1-6c0-0.3,0.1-0.7,0.2-1.1
		c2-4.4,4.6-8.2,9.1-10.3c1.6-0.8,3.3-1.4,5-2c1.9-0.7,3.9-1.4,5.8-2.1c1.8-0.7,3.6-1.2,5.6-0.5c1,0.3,2.1,0.1,3.2,0.2
		c1.6,0.1,3.1,0.3,4.7,0.5c2.1,0.2,3.5,1.5,4.4,3.4c0.4,0.9,0.9,1.7,1.4,2.6c1.4,1,3.2,0.9,4.8,1.2c4.4,0.8,8.8,1.4,13.2,2.2
		c2.1,0.3,4,0.3,6.1-0.3c5.9-1.8,11.9-1.9,18-1.5c4.3,0.3,8.1,2.3,11.6,4.8c0.9,0.6,1.7,1.4,2.5,2.1c0.4,0.3,0.8,0.5,1.4,0.8
		c1-7.1,3.1-13.9,3.3-20.9c0-0.7,0.1-1.5,0.3-2.2c0.6-2.4,0.2-4.8-0.1-7.2c-0.9-5.9-1.9-11.7-2.3-17.6c-0.4-5.9,0-11.8,0.1-17.7
		c0-1.4,0.2-2.9,0.3-4.5c-0.7-0.3-1.3-0.6-2-0.8c-3.5-1-6.8-2.5-9.8-4.5c-2-1.3-4.2-2.3-6.5-3c-6-1.9-11.9-3.9-17.4-7.2
		c-4.9-3-9.1-6.7-12.7-11.2c-5.3-6.6-9.3-13.8-12.4-21.6c-1.4-3.6-1.6-7.3-1.2-11.1c0.9-9,2.8-17.9,6.2-26.4
		c3-7.5,7.3-14.1,13.3-19.6c0.5-0.5,0.9-1.1,1.3-1.7c1-1.2,1.9-2.5,3.1-3.5c1.4-1.3,3-2.4,4-4.1c0.5-0.9,1.6-1.4,2.4-2.2
		c2.2-1.9,4.4-3.8,6.6-5.7c0.6-0.6,1.2-1.2,1.6-1.9c0.4-0.6,0.6-1.3,0.9-2c-0.5-2.9-2.2-5.6-1.9-8.7c-1.2-2.7-1.3-5.8-2.8-8.6
		c-0.5,0.2-0.8,0.2-1.1,0.4c-3.7,3.1-7.9,5.6-12.2,7.8c-5.1,2.5-10.3,4.9-15.4,7.3c-0.4,0.2-1,0.3-1.3,0.7c-1.4,1.9-3.6,2.3-5.7,2.9
		c-2,0.5-4,1-6,1.5c-2,0.5-3.5-0.3-3.6-2.3c-0.1-1.6-0.8-2.7-1.4-4c-1.3-2.6-2.7-5.1-3.8-7.8c-0.5-1.1-0.5-2.4-0.5-3.5
		c0-6.3,0.1-12.6,0.2-18.9c0-1.6,0-3.1-0.5-4.6c-0.4-1.2-0.3-2.6-0.1-3.9c0.3-1.9,0.7-3.8,1.2-5.7c1.8-5.9,4.1-11.6,7.4-16.8
		c1.2-1.9,1.9-3.9,1.9-6.2c0-3.1,0-6.2-0.4-9.4c-1.2-8.8,0.5-17.1,5.9-24.4c1.1-1.5,2.5-2.9,3.8-4.4c0.5-0.5,1.2-0.9,1.5-1.6
		c0.9-2.2,2.9-3.2,4.7-4.3c2.1-1.2,4.2-2.3,6.4-3.4c7.7-3.7,15.5-7.3,23.2-11c5-2.4,9.9-5.1,14.6-8c3-1.8,6.1-3.5,9.1-5.2
		c2.7-1.5,4.8-3.6,6.1-6.5c0.8-1.6,1.1-3.2,0.7-4.9c-0.2-1.1-0.4-2.1-0.6-3.2c-0.5-3.2-0.7-6.5-3.2-9c-1.5-3.9-3.4-7.7-4.4-11.9
		c-0.1-0.3-0.2-0.7-0.4-1.2c-2.4-0.7-3.4-2.7-4.2-4.9c-0.5-1.6-1.3-3.2-1.7-4.8c-0.5-1.9-1.2-3.6-2.2-5.3c-1.1-1.8-1.4-3.9-1.5-5.9
		c-0.1-0.7,0.1-1.5,0.4-2.1c0.6-1.4,1.1-3,2.1-4.2c0.9-1.1,1-2.2,0.8-3.3c-0.9-6.3,0.2-12.5,1.1-18.7c0.3-2,0.7-4,0.7-6.1
		c0-0.8,0.1-1.8,0.6-2.4c1-1.7,0.4-3.8,1.7-5.4c1.1-1.4,1.9-3.1,2.8-4.7c1.1-2,2.6-3.8,4.6-5.1c2-1.3,4.2-2.4,6.4-3.3
		c2.3-1,4.7-1.9,7.3-1.4c0.6,0.1,1.2-0.1,2-0.2c0.3-0.6,0.6-1.2,0.9-1.8c0.6-1.3,1.7-2,2.6-3c2-2.3,4.6-2.9,7.4-3.4
		c3.9-0.6,7.7,0.1,11.3,1.4c1.1,0.4,2,1.7,2.8,2.5c0.2,1.4,0.3,2.6,0.5,3.8c0.3,1.3,0.6,2.5,0,3.9c-0.4,1,0.2,1.9,1.1,2.4
		c2,1.2,3.6,2.8,5.3,4.4c2.4,2.4,4.3,5.2,5.2,8.6c1,3.5,1.9,7,1.8,10.7c-0.1,1.3,0.2,2.6,0.3,4c0.1,1.2,0.3,2.4-0.3,3.6
		c-0.1,0.1-0.1,0.2-0.1,0.3c0.7,3.7-0.5,7.4,0.5,11.3c1.3-0.2,1.7-1.8,3.3-2c0.3,0.2,1.1,0.5,1.4,1c2,3,2.8,6.5,2.1,10
		c-0.2,1.4-1.1,2.7-2,3.8c-0.9,1.1-1.5,2.1-1.8,3.5c-0.4,1.7-0.9,3.2-2.6,4.1c-0.6,0.3-0.8,1.1-1.3,1.9c-0.8-0.5-1.5-0.9-2.2-1.3
		c-0.2,0.1-0.4,0.2-0.5,0.4c-1.1,4.7-2.5,9.3-3.1,14.1c-0.1,0.8-0.4,1.6-0.7,2.4c-0.4,1.3-0.9,2.5-1.4,3.7c-1.3,2.8-1.4,5.8-1.4,8.8
		c0,1.9,0.4,3.6,1.5,5.1c1.1,1.6,2.1,3.3,3.3,4.8c0.9,1.1,2.1,2,3.3,2.7c4.4,2.6,8.6,5.4,12.4,8.8c1.8,1.6,3.8,3,5.8,4.3
		c1,0.7,2.2,1.1,3.3,1.5c3.4,1.2,6.9,2.2,10.2,3.8c1.6,0.8,3.5,1,5.2,1.4c2.7,0.6,5.3,1.2,7.8,2.7c2.3,1.4,5.1,2.2,7.7,3.1
		c2.3,0.8,4.4,2,6,3.9c0.6,0.7,1.3,1.4,2,2.1c6.7,6.3,10.4,14.1,12.1,23c0.7,3.5,0.9,7.2,2,10.7c0.3,1.1,0.7,2,1.4,2.8
		c3.1,3.9,6,7.9,8.2,12.4c1.3,2.6,2.4,5.3,2.9,8.2c0,0.2,0,0.5,0.1,0.7c2.3,4.8,2.7,10,3.9,15c0.4,1.7,0.9,3.6,1.7,5.1
		c1.4,2.7,1.9,5.7,2.5,8.6c0.6,3.1,0.1,6-1.6,8.7c-0.3,0.5-0.6,1.1-0.9,1.5c-1.1,1.6-2.1,3.2-2.6,5.1c-0.3,1-0.9,2-1.4,2.9
		c-2.5,0.7-4.9,0.5-7.2-0.1c-8.2-1.8-16-4.8-23.1-9.2c-4.7-2.9-9.2-6.2-13.7-9.4c-1.3-0.9-2.5-1.9-3.6-3.1c-3.2-3.5-7.2-6-10.6-9.2
		c-0.4-0.6-0.8-1.2-1.3-1.7c-3.2-3.9-6.3-7.9-9.5-11.8c-3.3-4-6.6-8-9.8-12c-1.5-1.8-3.1-3.4-4.4-5.3c-2.1-3.3-5.3-4.9-8.9-5.7
		c-6.2-1.5-10-5.5-12.2-11.2c-0.9-2.1-1.9-4.1-3.3-5.9c-0.2-0.5,0.2-1.3-0.7-1.6c0.2-1.6,0.1-3-1-4.2c-2.6,0-2.6,0-2.4,2.6
		c1.1,0.5,2.3,1,3.4,1.6c0.2,0.5,0.5,1,0.7,1.6c0,0.5,0.2,1,0,1.4c-0.7,2.1-1.1,4.2-1,6.4c0,0.1,0,0.2-0.1,0.4
		c-0.2,1.3-0.9,1.8-2.3,1.7c-0.6,0-1.2-0.1-1.7,0c-0.7,0.2-1.3,0.8-1.9,0.8c-0.7,0.1-1.5-0.2-2.5-0.4c0,1.1,0,2,0,2.8
		c0.2,4-1.2,7.5-3.5,10.8c-0.1,0.2-0.3,0.4-0.4,0.6c-0.7,0.9-1.2,1.8-1.1,3c0.1,0.9-0.4,1.6-1,2.2c-0.6,0.5-1.3,1-2.3,1.7
		c3.7,1.8,7.1,2.8,10.5,3.4c0.5,0.1,1.1-0.1,1.6-0.1c0.1-1.7-0.8-2.7-1.3-3.9c-0.5-1.3-0.8-2.8-1.2-4.1c-0.4-1.2-1.4-2.3-1-3.8
		c2.4,0.9,2.1,3.6,3.7,4.9c0.9-0.5,1.8-1.1,2.8-1.6c0.3-0.1,0.8,0.1,1.5,0.2c-1.3,1.6-2.3,2.9-3.3,4.2c0,1.7,0.7,3.1,1.2,4.5
		c2.7,0.5,5-0.2,7.2-1.2c2.7-1.3,5.3-2.8,8.1-4.1c2.3-1.1,3.8-2.9,5-5.1c0.5-0.8,1-1.6,1.4-2.3c1,0.2,1.3,0.7,1,1.3
		c-1.3,3.2-3.2,6-6,8c-1.7,1.2-3.4,2.3-5.1,3.5c-4,2.6-8.3,3.7-13.1,3.3c-4.3-0.4-8.2-2-12-3.9c-1.1-0.5-2.1-1.2-3.3-1.9
		c-0.8,0.7-1.7,1.4-2.4,2.1c-3.3,3.2-6.6,6.4-9.9,9.5c-2.5,2.3-5.1,4.4-7.6,6.8c-7,6.6-14,13.3-21.1,19.9c-0.5,0.5-0.9,1.1-1.3,1.6
		c2.3,2.1,5,3.4,7.8,4c3.3,0.7,6.7,1.1,10,1.5c3.4,0.4,6.7,0.6,10.1,0.9c0.6,0.1,1.5,0.1,1.5,1.3c-0.5,0.1-1.1,0.3-1.7,0.4
		c-3.6,0.6-7.2,0.4-10.8,0.2c-5.3-0.3-10.6-1.2-15.2-4.1c-0.3-0.2-0.7,0-1,0c-0.1-0.1-0.1-0.1-0.2-0.2c0.1,0.1,0.2,0.1,0.3,0.2
		c0,2.5,1.1,4.6,1.7,6.9c1,0.3,1.8,0.4,2.5,0.7c6,2.3,12.4,3.2,18.8,3.3c2.4,0,4.8,0,7.2,0.2c4.8,0.5,9.6,0.7,14.4-0.1
		c0.7-0.1,1.4-0.1,2.2-0.1c8.9-0.4,17.8-0.9,26.8-1.1c7.1-0.1,13.9-1.6,20.7-3.6c0.5-1.2,1.1-2.4,1.6-3.6c0.2-0.5,0.6-1.1,0.1-1.5
		c-2.2,0.5-4.3,1.3-6.4,1.5c-2.1,0.3-4.5,0.8-6.8-0.9c1.1-0.4,1.8-0.8,2.6-1c1.9-0.5,3.7-1,5.6-1.5c3.4-0.9,6.6-2.4,9.2-4.8
		c2.7-2.4,5.1-5.2,7-8.2c1.2-1.9,1.9-3.9,2-6.1c0.1-1.1,0.1-2.1,0.2-3.3C292.7,236.2,293.1,236.2,293.6,236.1z M275.3,535.6
		c0.2-0.1,0.4-0.2,0.6-0.3c-0.2,0.1-0.4,0.3-0.5,0.4c-0.2,0.3-0.5,0.5-0.7,0.8c-0.9-0.3-1.5,0.2-1.7,0.9c-0.6,1.6-1,3.2-0.7,4.9
		c0.9,5.7-0.3,11-2.7,16.2c-0.4,0.9-0.9,1.9-1.7,2.3c-1.8,0.9-2.6,2.4-3,4.2c-0.4,1.6-0.9,3.2-2.7,4c-0.6,0.3-1,1.4-1.3,2.1
		c-1.4,2.7-1.9,5.7-2.1,8.7c-0.1,1.9-0.3,3.8,0.3,5.8c11,4.1,22.3,4.6,34,4.4c-1.5-1.8-1.6-2-3.1-2.6c-3.5-1.5-7-2.5-10.9-2.5
		c-2,0-4.1-0.2-5.8,1.4c-0.6,0.5-1.6,0.2-1.9-0.4c-0.3-0.6-0.1-1.5,0.5-1.9c0.7-0.5,1.4-0.9,2.2-1.1c1.2-0.3,2.4-0.5,3.6-0.4
		c3.9,0.1,7.7,0.8,11.3,2.3c2.8,1.2,5.4,2.7,6.6,5.7c2,0.6,3.7-0.1,5.4-0.5c3.5-0.8,4.8-2.5,5.2-6.1c0-0.4,0.1-0.7,0-1.1
		c-0.1-1.7,0.1-3.3,1.4-4.4c0-1.5-0.8-2.3-1.4-3.1c-0.9-1.1-1.3-2.3-1.1-3.7c0.4-2.6,0.7-5.3,3.2-7c0.4-0.3,0.7-0.7,1-1
		c0.3-1.7,0.2-3.4-0.3-5c-0.6-2.3-1.1-4.7-1.4-7.1c-0.2-2.1-0.3-4.2-1.3-6.3c-0.6-1.1-0.6-2.6-0.7-3.9c-0.2-2.4-0.4-4.8-0.6-7.3
		c-2.1,2.5-2.1,2.5-5.1,3.9c-1.1-2-2.2-4-3.2-6c-0.3-0.7-0.6-1.7-0.4-2.4c0.4-2.2-0.5-3.9-1.5-5.7c-4.7-0.3-9.2-0.5-13.8-0.8
		c-0.9,1.8-0.9,1.8-1,3.9c0,2.7,0.3,5.3,1.8,7.6c0.4,0.1,0.8,0.2,1.1,0.2c5,0.2,9.8,1.2,14.5,2.6c0.8,0.2,1.6,0.3,2.5,0.4
		c0.7,0.5,1.3,0.9,1.9,1.3c-0.1,1.2-0.8,1.3-1.5,1.3c-1.2-0.1-2.4-0.3-3.6-0.5c-3.5-0.5-7.1-1.1-10.6-1.6c-3.2-0.4-6.4-0.8-9.5,0.8
		c-0.8,0.4-1.7-0.1-2-1c-0.2-0.6-0.1-1.2-0.2-1.8C274.8,536.2,275.1,535.9,275.3,535.6z M261.6,52.7c0.2-0.2,0.4-0.4,0.6-0.6
		c-0.1-0.1-0.3-0.2-0.4-0.3c-0.1,0.2-0.2,0.4-0.2,0.6C261.5,52.5,261.6,52.7,261.6,52.7c-0.3,0.1-0.6,0.1-0.3,0.5
		C261.4,53.1,261.5,52.9,261.6,52.7z M266.6,69.4c-0.4,0.3-0.8,0.7-1.3,1.2c1.3,0.1,1.3-0.6,1.2-1.3c1.3-0.1,1.3-0.1,1.3-1.5
		C267.3,68.5,267,68.9,266.6,69.4z M216.6,331.2c0.3,0.1,0.5,0.3,0.3,0.2C217.1,331.4,216.8,331.3,216.6,331.2
		c-0.5-0.9-1.4-0.8-2.2-0.7c-0.1-0.2-0.1-0.5-0.3-0.6c-5.5-2.4-10.9-5.2-16.7-6.9c-3.8-1.2-7.5-2.6-11.3-3.8
		c-9.2-3.1-15.6-9.3-19.5-18.2c-0.3-0.7-0.6-1.3-0.9-2c-0.1-0.2-0.4-0.3-0.7-0.6c-0.4,0.3-0.9,0.7-1.2,1.1
		c-5.7,6.6-9.9,14-12.2,22.4c-2,7.6-3.4,15.3-4.2,23.1c-0.3,3.7,0.2,7.2,1.7,10.6c4.2,9.4,10.4,17.3,18.1,24.2
		c0.3,0.3,0.7,0.7,1.4,0.2c-0.2-0.6-0.4-1.2-0.6-1.9c-3.5-9.1-4.3-18.5-2.8-28.1c1.2-7.9,5-14.3,11.7-18.8c2.1-1.4,4.4-2.4,6.6-3.7
		c0.4-0.2,0.6-0.6,1.1-1.1c-3.3-0.6-6.3-1-9.3-1c-2.3,0-4.6-0.1-6.9-0.1c-1.3,0-1.6-0.8-1.7-1.8c-2.4-0.6-4.7-1.1-7-1.7
		c-0.7-0.2-1.4-0.4-1.6-1.3c2.8,0.5,5.5,1.1,8.2,1.5c2.7,0.4,5.4,1.4,8.3,1c-2.8-1.2-5.5-2.4-8.3-3.7c-0.5-0.2-1.2-0.5-1-1.3
		l-0.1,0.1c1.8,0.7,3.5,1.6,5.3,2.2c3.9,1.2,7.8,2.3,11.8,3.5c0.3,0.1,0.7,0,1.5-0.1c-2.2-1-4-1.8-5.7-2.7c-1-0.5-2-1.3-2.9-2
		l0.2-0.2c0.2,0,0.5,0,0.7,0.1c4.5,1.9,9,3.9,13.5,5.8c0.5,0.2,1.1,0.4,1.7,0.5c6.6,1.6,13.3,3.3,19.9,4.9c1,0.2,2.1,0.3,3.2,0.4
		C214.9,331.5,215.8,331.1,216.6,331.2z M249.3,21.5c0,0.3,0.1,0.6,0,0.2C249.5,22,249.4,21.7,249.3,21.5c0.1-1-0.1-2-1.1-2.7
		c-1.4,0.2-2.7,0.4-4.1,0.6c0.7-1.4,2.6-1,3.5-1.9c-1.6-3.2-4.8-2.7-7.3-3.5c-1.9-0.6-4.1-0.3-5.9,0.7c-1.7,1-3.6,1.7-4.7,3.9
		c1.8,0.2,3.3,0.4,4.9,0.5c1.5-2,2.9-4.3,6.1-4c-1.3,1.1-2.4,2-3.4,2.9c-0.4,0.3-0.5,0.8,0,1.2c0.8-0.4,1.6-0.9,2.5-1.3l-0.1-0.1
		c0,0.6,0,1.1,0,1.9c1.6,0.4,3,0.7,4.4-0.4c0.2,0.3,0.4,0.7,0.6,0.7C246.3,20.6,247.8,21,249.3,21.5z M202.8,88.3
		c0-0.2,0-0.4-0.1-0.6c0-0.1-0.1-0.2-0.2-0.2c-0.1,0.1-0.2,0.2-0.2,0.2C202.5,87.9,202.7,88,202.8,88.3c0.2,3.1,0.6,4.5,2,6.1
		C204.9,91.9,204.3,90,202.8,88.3z M212.3,33.8c0,0.3,0.1,0.5,0.1,0.3C212.5,34.3,212.4,34.1,212.3,33.8c-0.3-2.1-0.6-4.3-0.9-6.5
		c0.3,0.5,0.9,0.9,1,1.4c0.7,2.3,1.2,4.6,1.9,7.2c-0.4,0.3-0.8,0.5-1.1,0.9c-0.3,0.3-0.1,1-0.9,0.8c-0.1-1.4-1.4-2.1-2.2-3.1
		c-0.8-1-1.3-2.2-2.2-3.7c-0.1,3.4,2.1,5.3,3.8,8.4c-3.3-1-4.2-3.9-6.3-5.1c-1.2,1.3,0.2,2.7-0.4,3.8c-0.5,0.4-1.1,0.7-1.4,1.1
		c-0.3,0.4-0.4,1.1-0.6,1.6c0.7,0.9,1.3,1.6,1.8,2.4c0.3,0.4,0.4,0.9-0.1,1.2c-0.5-0.3-1-0.5-1.6-0.9c-0.8,2.3,1.2,4,1,6
		c-1.4-0.3-1.2-1.9-2.4-2.3c-0.4,1.7,0.3,3,0.8,4.3c0.5,1.4,1.3,2.8,0.9,4.5c-0.1,0.3,0.4,0.8,0.8,1.4c0.5-0.8,0.8-1.4,1.4-2.3
		c0.3,2,0.6,3.6,0.9,5.3c-0.5,0.6-1,1.2-2.2,2.6c0.3-3-1-4.3-2.8-5.7c0,1.1,0,1.9,0,2.3c0.9,0.7,1.7,1.1,2.1,1.8
		c0.6,0.9,0.3,1.9-0.6,2.5l-0.1-0.3l0.2,0.2c-0.1,2-0.3,4-0.4,6c0,2,0,4.1,0.1,6.1c0.1,1.4,0.3,2.9,0.3,4.3
		c-0.1,2.4,0.5,4.5,1.6,6.6c1.6,3.3,2.8,6.7,3.4,10.3c0.8,4.2,2.6,8,4.5,11.8c1.4,3,3.7,5.4,6.6,7c1.6,0.9,3.1,1.9,4.7,2.8
		c4.4,2.5,9,3.4,13.9,1.7c1-0.4,2.1-0.5,3.1-0.9c3.1-1,6.1-2.6,8.3-5c2.8-2.8,4.9-6.3,6.1-10.2c0.7-2.2,1.4-4.4,2-6.6
		c0.7-2.3,1.3-4.6,1.7-7c0.7-3.5,1.4-7.1,3.1-10.4c0.4-0.8,0.8-1.9,0.8-2.8c-0.1-3,0.2-6.1-1.1-8.9c-0.4-1-0.5-1.8-0.4-2.8
		c0.1-0.6,0.3-1.3,0.1-1.8c-0.9-2.4-0.2-4.7,0.2-7.1c1.1-0.5,1.6-1.2,1.2-2.5c-0.9,0.8-1.4,1.5-1.1,2.6c-0.5,0.3-1,0.5-1.4,0.7
		c-1.9-1.1-2.1-2.5-1.1-4.1c0.8-1.4,1.8-2.8,2.8-4.5c-0.2-0.6-0.4-1.6-0.7-2.6c-0.4,1.2-0.7,2.2-1.2,3.1c-0.2,0.4-0.7,0.7-1.1,1.2
		c-0.6-1.8-0.4-3.3,0.3-4.8c0.6-1.4,1.2-2.9,1.6-4.4c0.6-2,0.1-3.6-1.4-5.2c-0.1,1,0,1.8-0.2,2.6c-0.5,2.1-0.1,4.3-1.3,6.3l0.1,0.1
		c-0.1-1.1,0-2.2-0.4-3.2c-0.3-0.9-1.2-1.7-1.7-2.4c-0.2-1.2,0.5-2.4-0.5-3.6c-0.6,0.8-1.2,1.5-1.8,2.3c-0.4,0.4-0.8,0.4-1.2-0.2
		c0.8-1.5,1.5-3,2.3-4.4c0.3-0.6,1.5-0.6,1.8,0.1c0.3,0.8,0.5,1.6,0.8,2.4c0.1,0.2,0.2,0.3,0.4,0.5c0.3-1.1,0.7-2.2,0.9-3
		c-1.9-3.6-3.4-5-6.3-5.9c-0.3,0.7-0.6,1.5-0.9,2.2c-0.2,0.5-0.5,1-0.7,1.5c-0.8,0.1-1.1,0.9-1.5,1.5c-0.5,0.8-1,1.7-1.6,2.4
		c-0.3,0.4-0.8,0.4-1.3-0.2c1-3,3.6-5.2,5-7.9c-0.4-1-0.7-1.8-1.8-1.7c-3.5,8.1-3.5,8.1-6.4,10c2.1-3.2,4.3-5.7,4.5-9.7
		c-1.8,3.1-3.3,5.8-4.8,8.5c-0.2,0.3-0.4,0.6-0.7,0.8c-0.1,0.1-0.4,0.1-0.7,0.1c0.1-0.4,0-0.7,0.2-1c1-1.9,2.2-3.8,3.1-5.7
		c0.6-1.2,1-2.4,1.4-3.7c0.2-0.7-0.2-1.4-0.7-1.4c-0.8-0.1-1,0.5-1.2,1.1c-0.1,0.2-0.2,0.5-0.2,0.7c-0.3,3.5-2.2,6.4-3.9,9.2
		c-1.2,1.9-2.6,3.5-4.6,4c-1-0.3-1.9-0.6-2.8-0.9c-0.3-3.4,0.2-6.7,0.6-10.1c0.1-0.7,0.5-1.3,1.1-2.5c0,1.9,0,3.1,0,4.4
		c1.5-0.7,0.4-2.6,1.9-3.4c0.6,1.6,0.1,3,0,4.4c-0.2,1.5-0.4,3-0.5,4.5c0.9-1.4,1.5-2.8,2.1-4.3c0.7-1.7,1.4-3.3,2-5l-0.1-0.1
		c0.2,1.8-0.1,3.5-0.6,5.2c-0.3,1.1-0.5,2.3-0.7,3.4l-0.2,0.1l0.1-0.1c1.6-2.6,3.2-5.1,3.9-8.1c0.3-1.2,0.7-2.3,0.1-3.5
		c-1.1-0.4-2.2-0.9-3.2-0.5c-1.3,0.9-0.4,2.6-1.8,3.3c-1.9-0.5,0.1-2.6-2.1-3.4c-0.6-0.1-1.9-0.2-3.4-0.4c-0.1,0.7-0.2,1.3-0.2,1.9
		c0.1,0.7,0.5,1.4,0.4,2.1c-0.2,2.5-0.4,5-0.7,7.6c-0.2,1.7-0.4,3.3,0.1,5c0.1,0.4-0.2,0.8-0.3,1.6c-2.1-2.3-4.6-0.7-6.7-1.4
		c-3.3-5-5.3-9.3-5.4-11.5c0.2,0,0.5,0,0.9,0c-0.5-1.3-0.3-2.8-1.4-4.2c-0.7,0.2-1.3,0.3-2,0.5c0.1,3.5,1.3,6.5,3,9.2
		c-0.2,0.4-0.4,0.7-0.7,1.2c0.2,0.4,0.5,1,0.8,1.5c0.3,0.5,0.7,1,1,1.5c0.2,0.4,1,0.8,0.4,1.5c-1.7-0.7-2.1-2.9-3.9-3.5
		c-0.2-0.1-0.4-0.3-0.5-0.5c-0.2-0.4-0.4-0.9-0.6-1.3c-0.7-1.9-1.2-3.9-1.1-6c0.1-0.8-0.1-1.7-1.4-2c-0.7,0.8-1.5,1.7-2.3,2.6
		c-0.5,0.2-1.2,0.3-1.5,0.7c-0.3,0.4-0.5,1.1-0.5,1.6C209.7,31.5,210.6,32.9,212.3,33.8z M268.2,78.2c-0.7,0.3-1.4,0.6-1.5,1.4
		c-0.3,2.1-1.6,3.4-3.4,3.9c-1.2,3.3-1.2,3.3,1,3.8c0.7-1.1,1.5-2.2,2-3.4c0.7-1.9,1.2-3.9,1.8-5.9c0.9-0.1,1.2-0.7,1.3-1.4
		c0.1-1.5,0.1-3.1,0-4.6c0-0.4-0.3-0.7-0.6-1.2c-1.4,1.2-2.3,2.4-2.9,3.9C266.7,75.9,268.2,76.5,268.2,78.2z M227.4,162.1
		c1.8,0.2,3.3-0.5,4.8-1.2c2.6-1.2,5.2-2.6,7.8-3.8c0.4-0.2,0.9-0.4,1.4-0.5c3.9-0.6,7.8-1.1,11.8-1.7c0.3,0,0.5-0.2,0.8-0.4
		c-0.6-1.1-1.5-1-2.3-0.8c-0.9,0.2-1.9,0.6-2.8,0.6c-2.2,0-4.3,0.5-6.4,1.1c-1.1,0.3-2.4,0.7-3.5,0.5c-1.2-0.2-2.1,0.2-3,0.8
		C233.1,158.5,230.3,160.3,227.4,162.1c0,0.2,0,0.2-0.1,0.3C227.4,162.3,227.4,162.2,227.4,162.1z M228.2,334.9
		c-0.2-0.6-0.5-0.8-1-0.3C227.6,334.7,227.9,334.7,228.2,334.9c0.6,0.9,1.7,0.9,2.5,1.2c7.1,2.8,14,5.9,20.6,9.7
		c2.1,1.2,4.2,1.8,6.5,1.9c1.9,0.1,3.9,0.1,5.8,0.3c2.9,0.2,5.7,0.5,8.6,0.8c-2.6,0.3-5.1,0.4-7.6,0.3c-2.5-0.1-5-0.3-7.6-0.4
		c0.2,0.4,0.3,0.7,0.4,0.8c2.1,1.8,4.5,3.2,6.1,5.6c0.1,0.2,0.3,0.4,0.5,0.5c3,1.2,5.5,3.5,8.3,5c0.6,0.3,1.3,0.6,2.2,0.9
		c0.1-0.9,0.2-1.6,0.2-2.3c0-5.8,0.3-11.6,1.1-17.3c0.1-0.9,0.3-2,0-2.9c-0.5-1.5-0.3-2.8,0-4.3c0.5-3.7,0.9-7.4,1.5-11.5
		c-0.9,0.6-1.4,0.9-1.8,1.3c-2.5,2.1-5.3,3.7-8.3,5c-4.2,1.8-8.6,3.1-13.1,4.1c-7.1,1.6-14.3,2.3-21.5,1.2
		C231.1,334.8,229.6,334.9,228.2,334.9z M194,144.7c0.3,0.7,0.6,1.3,0.7,2c0.2,1.2,0.1,2.4,0.3,3.6c2.3,15.1,6.8,29.6,13,43.6
		c0.6,1.3,1.4,2.5,3.1,3.1c0.7-2.3,1.3-4.3,1.8-6.4c1-3.5,1.7-7,2.9-10.5c0.7-2.2,1.1-4.4,1.2-6.7c0.1-1.3,0-2.7,0.1-4
		c0.1-1.1,0.2-2.2,0.4-3.2c0.2-1.3,0.9-2.2,2.1-2.8c1.2-0.6,2.4-1.1,3.4-1.6c0.7-3.4,2.3-5.9,5-7.9c1.1,0.6,2,1.1,2.8,1.5
		c0.3,0.9,0.5,1.6,0.7,2.4c1.5-0.5,2.5-1.7,3.7-2.4c0.8-0.4,1.9-1.2,2.6-1c1.8,0.5,3.3-0.1,4.8-0.8c3.3-1.4,6.8-1.4,10.3-1.4
		c1.4,0,2.6,0.4,3.2,1.8c1,0.1,2-0.8,2.8,0.3c0.6,1.9-0.8,3.1-1.8,4.3c0.4,0.7,0.8,1.4,1.1,2c2.7-0.1,5.3-0.2,8,0.4
		c-0.5,0.5-0.7,0.9-1,1c-1.7,0.5-3.4,1-5.1,1.5c1.5,3.7,6.4,11.4,8.3,13.3c0.1-0.2,0.2-0.5,0.2-0.7c-0.1-8.6-0.1-17.2-0.2-25.7
		c-0.1-4.2-0.5-8.4-1.4-12.6c-1.6-1.3-3.2-2.5-4.9-3.7c-2.1-1.5-4.1-3-5.8-4.8c-3-3.3-5.3-6.8-5.1-11.5c0-0.5-0.2-0.9-0.3-1.5
		c-1.4,0.3-1.4,1.9-2.8,2.2c-1.1,0.2-2.2,1-3.3,1.5c-2.2,1.2-4.8,1.5-6.8,3.3c-0.2,0.2-0.4,0.2-0.7,0.3c-3.7,0.7-7.4,0.9-10.8-1.3
		c-1.5-1-3.2-1.6-4.8-2.4c-0.9-0.4-1.7-0.8-2.6-1.2c-1-0.5-1.9-1-3-1.6c0,2.8-0.2,5.5,0,8.1c0.2,2.3-0.5,4.3-1.8,6.1
		c-0.8,1.2-1.8,2.3-2.7,3.4c-0.1,0.2-0.4,0.3-0.6,0.4c-0.5-0.1-1.1-0.2-1.8-0.3c-1.4,0.9-2.8,1.9-4.2,2.8c-1.5,1-3,2-4.5,3
		c-2.2,1.5-4.4,2.9-6.6,4.4c-2.7,1.4-5.4,2.7-8,4.1c-0.3,0.2-0.6,0.4-0.9,0.7c0.5,1.1,1.1,2,1.5,3c1.1,2.6,2.2,5.1,3,7.7
		c2,6.6,1.7,13.4,0.5,20.1c-1.5,7.8-3.5,15.5-7.2,22.6c-2.7,5.1-5.6,9.9-9.8,13.7c-0.4,0.4-0.9,0.8-1.1,1.4
		c-0.2,0.6-0.6,1.4,0.5,1.9c5.5-2.2,11.1-4.4,16.7-6.7c1.5-0.6,2.9-1.2,4.3-2c0.8-0.4,1.7-1,2.3-1.7c3-4.2,7.1-6.9,11.4-9.3
		c0.5-0.3,0.9-0.6,1.3-0.9c-1.1-2-2.3-3.7-3.1-5.5c-1.4-3.1-2.7-6.2-3.9-9.3c-2.9-7.6-5-15.4-6.3-23.4
		C194.2,155.8,193.4,150.3,194,144.7z M221,166.6L221,166.6c0.4,2.3,0.5,4.6,0,7c-0.6,0.1-1.1,0.2-1.6,0.4c-0.2,1.6-0.4,3.1-0.5,4.7
		c-0.2,3.3-0.8,6.5-2.4,9.4c-1.6,3-2.5,6.3-3.6,9.4c-0.3,0.8-0.6,1.6-0.9,2.3c-0.5,0.3-0.9,0.6-1.3,0.8c-3.3,1.5-6.2,3.7-8.9,6.1
		c-0.5,0.5-1.2,1.1-1.3,1.7c-0.3,1.9-1.7,2.9-3.1,3.8c-2.7,1.9-5.7,3.2-8.7,4.5c-5.1,2.1-10.4,4-15.5,6.2c-4.2,1.8-8.6,3.2-13,4.3
		c-2.8,0.7-5.7,1.1-8.5,1.6c-1.5,0.2-2.7,0.8-4,1.5c-4.7,2.6-9.3,5.2-13.5,8.4c-0.5,0.4-1,0.7-1.6-0.1c0.3-0.6,0.6-1.2,1-1.8
		c0.5-0.7,1-1.4,1.7-1.9c5.1-3.9,10.4-7.4,17-8.3c3.5-0.4,6.9-1.2,10.3-2c2.5-0.6,4.7-1.7,6.6-3.4c-0.4-3.4-0.7-6.6-1.1-9.9
		c-0.3-2.2-0.6-4.3-0.8-6.5c-0.1-0.8,0.1-1.6,0.2-2.7c1.6,0.1,2-1.1,2.6-2.1c0.4-0.7,0.8-1.6,2.1-1.4c0.3,2.4-1.2,4.5-1.6,6.7
		c0.5,1.1,1.1,2.1,1.5,3.1c0.4,1,0.6,2.1,0.9,3c-1.5,1.7-1.5,1.7-0.8,3.9c0.5-0.4,1-0.8,1.4-1.2c4.1-4.3,7.1-9.2,8.9-14.8
		c1.7-5.2,2.8-10.5,3.9-15.8c1.2-5.6,1.5-11.2,1.4-16.9c-0.1-3.2-0.7-6.2-1.8-9.2c-0.6-1.7-1.3-3.4-2-5c-0.3-0.6-0.7-1.2-1.1-1.9
		c-2.9,1.2-5.7,2.4-8.5,3.4c-7.7,2.7-14.7,6.8-21,11.9c-5.2,4.2-9,9.4-10.9,15.9c-1.2,4.1-2,8.2-2.4,12.4c-0.2,2-0.1,4.1,0.2,6.1
		c0.6,4,0.5,7.8-1.2,11.7c-2.4,5.3-4.5,10.7-6.7,16.1c-0.8,2-1.2,4.1-1.3,6.4c0,4.2-0.2,8.5-0.2,12.7c0,5.3,0.3,10.6,0.1,15.9
		c0,2.2,0.5,4,1.8,5.6c2,2.5,4.1,5,5.4,8.1c0.7-0.1,1.3-0.3,1.9-0.4c2.1-0.4,4.1-0.9,5.6-2.8c0.9-1.2,2.5-1.9,3.9-2.6
		c3.2-1.7,6.4-3.4,9.6-5.1c3.7-2,7.5-3.8,11.3-5.8c4.2-2.3,8-5,10.9-8.8c1.8-2.3,4-4.2,6-6.3c10.8-11.2,23.3-20.7,34.7-31.3
		c0.8-0.8,2-1.2,3.4-2.1c1.2-1.7,2.7-3.7,4.1-5.8c0.8-1.2,1.5-2.5,2.3-3.7c0.8-1.3,0.9-2.7,0.9-4.2c-0.1-4.8-0.2-9.7-0.1-14.5
		c0.1-2.5,0.7-4.8,2-7.1c1.6-2.9,3.9-4.9,6.6-6.6c2.4-1.5,4.8-2.8,7.2-4.1c1.4-0.7,2.8-1.4,4.2-2c1.1-0.5,2.2-1,2.7-2.2
		c0.2-0.4,0.4-0.9-0.2-1.3c-0.7,0.3-1.5,0.9-2.2,0.8c-2.1-0.2-3.7,0.7-5.5,1.5c-1.1,0.5-2.2,1.1-3.4,1.3c-2.7,0.6-5.2,1.8-7.7,3
		c-2.5,1.2-5,2.4-7.1,4.3c-0.3,0.3-0.8,0.4-1.1,0.6c-0.6-0.5-0.6-1-0.2-1.4c1-1,2.1-2,3.3-2.8c2.8-1.8,5.8-2.8,8.9-3.9
		c2.3-0.8,4.5-1.6,6.7-2.7c2.1-1,4.1-2,6.4-2.3c1.6-0.2,3-0.9,3.8-2.7c-3.6,0.5-7,1.2-10.4,1.6c-3.4,0.3-6.5,1.4-9.6,2.9
		c-3.8,1.8-7.7,3.4-11.6,5c-0.3,0.1-0.7,0-1.2,0c0.1-0.6,0.3-1.2,0.4-1.7c0.3-0.1,0.5-0.1,0.3-0.1c0.2-0.2,0,0-0.2,0.2
		c-1.8-0.1-3.2,0.9-5,1.4c0,0.8,0,1.5,0,2.4C220.2,167.1,220.6,166.8,221,166.6z M245.7,400.6c0.1,0.5,0.4,1,0.4,1.5
		c0,2.7,0.1,5.3-0.1,8c-0.6,7.3-1.1,14.7-1.1,22.1c0,1.7,0,3.4,0.2,5.1c0.7,6.4,1.9,12.6,3.8,18.8c2.4,7.8,6.3,14.9,9.9,22.1
		c0.3,0.5,0.6,1.1,1,1.5c1.7,1.2,2.6,3.1,3.7,4.9c5.9,9.8,9.6,20.5,12.3,31.6c0.8,3.3,1.6,6.6,0.8,10c-0.1,0.3,0.2,0.6,0.4,1
		c0.7-0.4,0.4-1.1,0.5-1.6c0.6-3.3,2.6-5.4,5.7-6.4c0.4-0.1,0.8,0.1,1.3,0.2c-0.3,0.7-0.5,1.2-0.7,1.8c4.3,0.8,8.6,0.2,12.8,1.3
		c0.9,2.2,1.7,4.3,1.9,6.6c0.1,1,0.3,2,1.5,2.9c0.1-2.7,0.1-4.9,0.3-7.2c0.2-3.5-0.2-7-1.6-10.3c-0.9-2.1-1.7-4.3-2.6-6.4
		c-0.7-1.6-1-3.5-2.5-4.8c-0.5-0.4-0.6-1.3-0.8-2c-0.3-1.5-0.7-3.1-0.9-4.6c-0.6-5.2-1.1-10.3-1.6-15.5c-0.8-8-0.5-15.9-0.1-23.9
		c0.1-2.5,0.2-5.1,0.1-7.6c-0.3-4-0.8-7.9-1.3-11.9c-0.5-3.9-1.2-7.9-1.9-11.8c-0.9-5.1-2.7-10-4.3-14.9c-0.8-2.3-1.4-4.6-0.9-7.1
		c0.2-0.8,0-1.7,0-2.5c0-6.9-0.3-13.8,0.4-20.6c0.1-0.8,0.1-1.7-0.2-2.5c-1.8-5.9-4.5-11.1-10-14.6c-3.7-2.4-7.5-4.9-10.5-8.3
		c-0.6-0.6-1.3-1.1-2-1.5c-3.5-2.1-7-4.2-10.7-6.1c-11.3-5.8-23.1-10.5-35.4-13.8c-7.3-2-14.7-3.9-22-6c-1.6-0.4-3-0.4-4.6,0.2
		c-3.9,1.6-7.6,3.6-11,6.3c-4,3.2-6.6,7.3-8,12.2c-0.9,3.2-1.3,6.4-1.4,9.7c-0.5,8.7,1.7,17,4.5,25.2c0.5,1.3,1.3,2.3,2.5,2.9
		c3.9,2,7.7,4,11.6,6c3.9,1.9,7.8,3.8,11.8,5.5c2.5,1.1,5.2,2,7.9,2.7c4.3,1.2,8.8,1.7,13.2,1.9c4.7,0.2,9.4,0.3,14.1-0.6
		C236.7,399,241.1,398.9,245.7,400.6z M137.4,462.5c-1-0.5-1.9-0.6-2.5,0.1c-1.1,1.4-2.4,2.8-2.6,4.7c-0.1,1.9-1,3.4-2,4.9
		c-2.5,3.6-2.5,3.6-2.3,8c0,0.6,0,1.2,0.1,1.8c0.4,2.7,1.2,5.4,2.6,7.8c3.5-1.8,6.9-2.5,10.6-1.5c0.6,0.2,1.2,0,1.8,0
		c1.7,0.1,3.4,0.1,5,0.5c2.7,0.6,5.4,1.3,8.1,2c7.3,2,14.1,5.1,20.4,9.2c2.1,1.4,4.2,2.9,5.6,5c0.6,0.9,1.5,1.6,2.4,2.1
		c3.4,2,6.9,3.9,10.4,5.8c1.3,0.7,2.6,1.2,4,1.7c1.6,0.6,2,2.4,3.2,3.4c1.5,1.2,2.6,2.8,4.3,4.5c3.8,1.1,8.1,2.3,12.4,3.5
		c1.2,0.3,2.4,0.3,3.6-0.2c2.3-1,4.7-2,7-2.9c0.9-0.4,1.5-1.1,2.1-1.9c2.2-3.6,4.4-7.2,6.9-10.6c5.8-8.1,10.6-16.7,15.2-25.5
		c0.8-1.5,1.4-3.1,1.9-4.7c0.5-1.6,0.5-3.3-0.3-4.9c-1-1.9-1.9-3.9-2.9-5.8c-2.7-4.8-4.7-9.8-6.3-15c-2.1-7.2-3.6-14.5-3.7-22.1
		c0-2.9-0.1-5.9,0.5-8.7c0.5-2.3,0.6-4.5,0.7-6.8c0.1-2.4,0.3-4.8,0.4-7.2c0.1-2.2,0.1-4.3,0.2-6.5c0-0.3-0.2-0.7-0.2-0.9
		c-0.3-0.2-0.5-0.4-0.7-0.4c-3.8,0.4-7.7,0-11.5,1.2c-1.2,0.4-2.6,0.6-3.9,0.6c-5.4,0.1-10.9,0.3-16.3-0.6c-0.9-0.2-1.8-0.6-2.8,0
		c0,0.4-0.1,0.7-0.1,1.1c0.1,4.8,0.1,9.7,0.4,14.5c0.2,3.6,0.6,7.2,0.9,10.8c0.4,4.3,1.5,8.6,1.2,13c-0.4,8.2-0.7,16.4-1.2,24.6
		c-0.1,1.4-0.3,2.9-0.9,4.2c-0.6,1.2-0.8,2.5-1.1,3.8c-0.9,4.2-1.8,8.5-2.8,12.7c-0.4,1.5-1.1,3-1.8,4.3c-0.3,0.5-1,0.8-1.9,1.6
		c0.3-6.8,2.3-12.8,2.9-19c-1.8-1.6-3.6-3-5.5-4.2c-3.6-2.3-7.4-4-11.9-3.4c-0.6,0.1-1.2,0-1.8,0c-3,0-6,0.2-9,1
		c-3.2,0.9-6.3,1.4-9.6,0.9c-3.9-0.5-7.9-0.8-11.9-1.2c-4.7-0.4-9.2-2-14-1.8c-1.1,0-2.1-0.3-3-1.3
		C137.5,464,137.5,463.2,137.4,462.5z M184.4,268.9c-0.6,0.8-0.3,1.3-0.1,1.9c0.5,1.6,1,3.2,1.5,4.8c0.4,1.4,0.8,2.9-1.5,3.2
		c-0.2,0-0.3,0.3-0.5,0.5c-1.7,2.4-3.9,4.2-6.2,6.1c-0.5,0.4-1,0.7-1.3,1.3c-0.9,1.7-2.4,2.7-3.8,3.8c-1.5,1.3-3,2.5-4.4,3.8
		c-0.7,0.6-1.1,1.5-1.6,2.2c1.9,4,4.3,7.3,6.9,10.5c2.1,2.7,4.7,4.9,7.6,6.6c2.4,1.4,4.9,2.7,7.4,3.8c10.2,4.4,20.6,8.3,31,12.1
		c5,1.8,10.2,3,15.5,3.7c2.5,0.3,5,0.7,7.6,0.2c3.7-0.7,7.4-1.4,11-2.2c5.4-1.2,10.8-2.8,15.8-5.2c2.6-1.3,5-3,7-5
		c0.7-0.7,1.3-1.4,1.3-2.5c0.4-5.3,0.4-10.6-0.8-15.8c-0.8-3.7-1.6-7.5-1.1-11.4c0-0.3,0-0.7-0.1-1.1c-0.4-2.1-0.9-4.2-1.4-6.6
		c-2,3.2-1.8,7-4.4,9.7c-0.8-1.3-0.1-2.2,0.2-3.2c1.3-3.8,2.7-7.5,2.4-11.6c0-0.5,0.2-1.2,0.5-1.7c1.5-2.6,2-4.2,2.3-7.7
		c-0.3,0-0.7-0.1-1,0c-6.6,1.7-13.2,3-20,2.8c-0.6,0-1.2,0.1-1.8,0.1c-4.1,0.2-8.2,0.4-12.3,0.5c-8.4,0.2-16.9,0-25.3,1.2
		c-0.6,0.1-1.2,0.1-1.8,0c-3.1-0.7-6.2-0.2-9.4-0.3c-0.5,1.1-0.9,2-1.5,3.5c-0.2-1.6-0.3-2.6-0.4-3.6c-2.2-0.3-4.3-0.5-6.3-0.8
		c-1.9-0.3-3.8-0.8-5.6-1.3C188,270.5,186.1,269.6,184.4,268.9z M350,265.1c1.8-3.2,3.5-6.4,5.2-9.6c0.9-1.6,1.3-3.4,1.2-5.2
		c0-3.4-0.6-6.8-1.9-9.9c-1.2-3-2.6-5.9-5.1-8.3c-2.1-2.1-4.5-3.7-7.2-4.7c-4.5-1.7-9-3.4-13.5-5.1c-3.4-1.3-6.7-2.8-9.5-5.1
		c-0.8-0.7-1.8-1.2-2.8-1.6c-4-1.5-7.6-3.7-11.2-5.9c-2.7-1.8-5.5-3.5-8.5-4.9c-2.8-1.3-5.2-3-7.6-4.8c-0.8-0.6-1.4-1.4-2.2-1.9
		c-4.3-2.4-7.9-5.9-12.5-7.9c-2-0.8-3.8-2.5-4.1-4.7c-0.3-1.5-1-2.6-1.8-3.9c-3.1-4.9-6.1-9.8-9.2-14.8c-0.9-1.4-1.6-2.9-2.2-4.2
		c-1.6,0.8-3.1,1.6-4.6,2.4c-1.4,0.7-2.9,1.3-4.1,2.3c-1.6,1.4-3.4,2.3-5.2,3.3c-1.3,0.7-2.5,1.5-3.7,2.2c-0.2,0.1-0.3,0.4-0.4,0.7
		c0.3,0.5,0.6,1,0.8,1.4c1.7,0.2,3.2,0.4,4.6,0.6c0.9,1.5,1.7,2.8,2.5,4.2c0.4,0.7,0.8,1.5,1.1,2.3c0.9,3,1.7,6,2.5,9
		c0.2,0.6,0.4,1.2,0.8,1.5c2,1.9,4.2,3.5,6.9,4.4c3.3,1.1,6.4,2.8,9.5,4.3c0.5,0.2,1,0.8,1.2,1.3c0.4,1.5,1.5,2.4,2.6,3.5
		c5.9,6,11.4,12.4,16.6,19.1c1,1.2,2,2.4,3,3.7c5.4,6.6,11.2,12.6,18.1,17.6c5.4,3.9,11,7.4,16.9,10.5
		C333.7,261.2,341.6,263.9,350,265.1z M282,148.2c0.9,19,6.2,36.1,13.2,52.8c2.9,1.6,5.7,3,8.4,4.5c0.1,0,0.2,0.1,0.3,0
		c0.1,0,0.2-0.2,0.3-0.3c-0.5-1.7-1.1-3.4-1.6-5.1c-0.3-1-0.3-2.1-0.4-3.2c-0.1-0.6,0.6-1.4,1-1.3c0.4,0.2,0.9,0.5,1,0.9
		c1.1,3.8,2.1,7.6,3.2,11.4c2.8,2,5.7,3.6,8.6,4.9c1.8,0.8,3.5,1.6,5.2,2.5c0.7,0.4,1.6,0.9,1.9,1.6c0.5,1.4,1.6,1.7,2.7,2.2
		c4.7,1.8,9.5,3.7,14.3,5.3c3.7,1.2,7.3,2.5,10.2,5.1c0.1,0.1,0.2,0,0.6,0c-0.2-2.1-0.4-4.2-1.4-5.9c-1.6-2.7-2.6-5.7-3.9-8.6
		c-1.7-4.1-3.3-8.4-6.1-11.9c-2.7-3.2-3.7-6.9-4.7-10.7c-0.2-0.7-0.4-1.4-0.3-2.1c0.3-1.8-0.3-3.3-0.8-4.9c-1.2-4.1-2.8-8-4.9-11.7
		c-3.8-6.8-8.9-12.3-16.2-15.4c-2.1-0.9-4.3-1.7-6.4-2.5c-1-0.4-2.3-0.4-3-1c-1.4-1.2-3-1.3-4.6-1.8c-3-0.9-6-1.8-9-2.7
		C287.1,149.6,284.8,149,282,148.2z M289.7,196.7c0.1-0.7-0.1-1.2-0.3-1.8c-1-2.6-2-5.2-2.8-7.8c-3.8-11.5-6.5-23.2-6.4-35.4
		c0-1-0.2-1.9-0.2-2.9c0-1.9-0.9-3.2-2.5-4.1c-2.1-1.4-4.2-2.8-6.3-4.2c-0.4-0.2-0.7-0.7-1.4-0.1c0.1,0.5,0.2,1,0.3,1.6
		c0.5,3.6,1.3,7.1,1.5,10.7c0.3,7,0.2,14,0.3,21c0,2.2-0.3,4.3-0.5,6.5c-0.5,5.5,1,7.1,4.9,8.8c0.8,0.3,1.5,0.8,2.2,1.2
		c1.3,0.8,2.6,1.8,3.9,2.6C284.7,194.1,287.2,195.3,289.7,196.7z M227.2,37.1c-0.1-2.1-0.1-4.1-0.2-6.2c0-0.4,0-0.8-0.2-1
		c-0.9-1.1-0.7-2.5-0.9-3.8c-0.2-1.3-0.6-2.5-1-3.7c-1.9,0.2-2.2,0.4-2.3,1.4c-0.1,1.1-0.2,2.2-0.2,3.3
		C222.3,30.7,224,34.2,227.2,37.1z M238,174.4c-2.3,2.1-3.2,4.4-3.1,7c0.1,1.3,0.6,2.1,1.8,2.4c1.5,0.4,3,0.6,4.5,0.8
		c0.3-0.5,0.6-0.8,0.7-1.1c0.1-0.4,0-0.9,0-1.4c-1.5-0.9-2.9-1.8-4.4-2.6C238.3,177.9,239.4,176.5,238,174.4z M234.7,184.2
		c0.1,0.7,0,1.2,0.2,1.4c1.8,1.8,3.3,4.2,6.1,4.8c0.6-1.7,0.7-1.7,0-3.7C239,185.9,237.1,185.2,234.7,184.2z M132.2,491.2
		c0.7,0.5,1.1,1,1.5,1c1.6,0.2,3.3,0.4,4.9,0.4c1,0,2.2,0.2,3-0.7c-0.8-1.3-2.2-1.3-3.4-1.5C136.3,490.2,134.4,490,132.2,491.2z
		 M229.2,156c-1.5,0.8-3.2,2.6-3.8,3.9c-0.1,0.2,0.2,0.6,0.3,0.9c1.5,0.3,2.3-0.6,3.3-1.3C230.4,158.5,230.4,157.9,229.2,156z
		 M198.6,75.6c-0.5,4.4-0.5,4.5,1.8,7.2c0-2,0-3.7,0-5.6C200,76.8,199.7,75.9,198.6,75.6z M227.2,22.2c-0.1,1.2-0.2,2.5-0.3,3.9
		c2.2-0.4,2-2.3,2.6-3.5c0.1-0.1-0.1-0.4-0.2-0.7c-0.3,0-0.6-0.1-1-0.1C227.9,21.8,227.6,22,227.2,22.2z M237.7,191.2
		c-1.2-1.1-1.9-1.8-2.8-2.6C234.8,190.7,234.8,190.7,237.7,191.2z M230,30.2c0.6-1.3,0.8-2.5,0-3.8C229.2,27.7,229.6,28.9,230,30.2z
		 M199.3,72.8c0.4,0.3,0.7,0.6,1.1,0.8c0.1,0,0.3,0,0.3,0c0.1-0.2,0.2-0.4,0.1-0.6C200.5,72.4,200.1,72.2,199.3,72.8z M145.4,491.5
		c0.2-0.1,0.4-0.1,0.6-0.2c0-0.1-0.1-0.2-0.1-0.2c-0.2,0-0.4,0-0.6,0C145.3,491.2,145.3,491.3,145.4,491.5z"/>
	<path d="M559,195.6c0.2-1.9,0.3-3.8,0.6-5.7c0.7-4,1.3-8.1,2.2-12.1c1.7-7.6,5.4-14.1,10.9-19.7c3.5-3.6,7.2-6.3,12-7.7
		c2.1-0.6,4.1-1.5,5.9-2.7c0.9-0.7,2.2-0.9,3.4-1.2c1.3-0.3,2.6-0.5,3.9-0.8c1.4-0.3,2.9-0.5,4.2-1.2c3.1-1.6,6.5-2.5,9.8-3.7
		c2-0.7,3.7-1.7,5.4-2.9c5.6-4,10.6-8.8,16.8-11.9c1.5-0.8,2.7-1.9,3.6-3.4c1-1.6,2.1-3.2,3.2-4.7c-0.3-2.3-0.6-4.5-0.9-6.6
		c-0.1-0.6-0.3-1.2-0.6-1.7c-3.3-4.7-4.8-10.2-6.8-15.9c-0.7-0.5-1.8-1-2.5-1.9c-0.8-1-1.2-2.3-1.7-3.6c-0.6-1.6-1.3-3.2-1.7-4.8
		c-0.4-1.5-0.9-3-1.8-4.3c-1.3-1.9-1.6-4-1.8-6.2c-0.1-0.7,0-1.5,0.3-2.1c0.7-1.6,1.6-3.2,2.4-4.8c0.3-0.5,0.5-1.1,0.6-1.6
		c0.1-0.7,0-1.5-0.1-2.2c-0.6-4.7,0-9.4,0.6-14c0.4-3.3,1.4-6.6,1.3-10c0-0.7,0.1-1.5,0.5-2.1c1-1.7,0.6-3.8,1.6-5.5
		c1-1.6,2-3.3,2.9-5c1.2-2,2.6-3.8,4.6-5c2.1-1.3,4.5-2.4,6.8-3.4c2.1-1,4.2-1.7,6.6-1.2c0.7,0.1,1.4-0.2,2.1-0.3
		c0.8-1.3,1.4-2.6,2.3-3.7c0.8-1,1.9-1.8,2.9-2.7c0.6-0.4,1.2-0.8,1.9-1c4.3-1.1,8.5-1.4,12.9-0.1c2.2,0.7,3.9,1.6,5,3.4
		c0.3,1.6,0.5,3,0.8,4.4c0.2,0.8,0.4,1.6,0,2.5c-0.7,1.3,0,2.3,1.1,3.1c1.8,1.4,3.6,2.9,5.2,4.4c2.4,2.3,4.1,5,5.1,8.2
		c1.1,3.6,2,7.2,1.8,11c-0.1,1.3,0.3,2.6,0.2,4c0,1.7-0.3,3.3-0.3,5c0,1.7,0.4,3.3,0,5c-0.3,1.6,0,3.3,0.5,5.2
		c1.1-0.8,2-1.5,2.8-2.1c1.4,0.1,1.9,0.9,2.4,1.7c1.5,2.7,2,5.7,1.7,8.8c-0.2,1.6-0.8,3.1-2,4.2c-1.1,1.1-1.7,2.3-2,3.7
		c-0.4,1.5-0.9,3-2.4,3.8c-0.7,0.4-1,1.3-1.6,2c-0.8-0.5-1.5-0.9-2.2-1.3c-0.1,0.2-0.3,0.4-0.4,0.6c-1,4.6-2.4,9.1-3,13.8
		c-0.1,0.8-0.4,1.6-0.7,2.4c-0.5,1.6-1,3.2-1.7,4.8c-1.6,3.6-1.2,7.3-0.7,11c0.1,0.5,0.3,0.9,0.3,1.4c-0.3,3.7,2,6,4.3,8.3
		c0.6,0.6,1.4,1,2.1,1.4c7.1,4.1,14.3,8.1,21.4,12.1c2.4,1.3,5,2.4,7.5,3.6c7.6,3.7,15.2,7.3,22.8,11.1c1.4,0.7,2.7,1.5,4.1,2.4
		c0.6,0.4,1.3,0.8,1.6,1.4c1.1,2.1,3,3.5,4.5,5.2c5,5.8,7.9,12.4,8,20.1c0,2.8-0.2,5.6-0.5,8.3c-0.4,3-0.2,6,0,9
		c0.1,1.7,0.8,3.3,1.7,4.7c3.7,6,6.3,12.5,8.2,19.3c1,3.5,1.1,7.2,1.5,10.8c0.3,2.2,0.5,4.4,1.4,6.3c1.3,2.8,1.5,5.8,1.9,8.8
		c0.3,2.7,0.1,5.4-1.5,7.7c-2.3,3.4-4.7,6.7-6.3,10.4c-1.9,0.4-3.5,0.3-5.2-0.1c-5.8-1.3-11.3-3.7-16.5-6.5
		c-8.4-4.5-15.7-10.4-22.6-16.9c-0.8-0.7-1.6-1.5-2.2-2.4c-1.7-2.1-3.4-4-5.6-5.6c-0.9-0.6-1.7-1.4-2.2-2.4
		c-1.8-3.3-4.8-5.6-6.8-8.8c-1.9-3.2-4.1-6.3-6.2-9.4c-2.6-3.8-5.3-7.5-8-11.2c-1.2-1.7-2.5-3.2-3.1-5.3c-0.3-1.2-1.1-2.1-2.6-2.6
		c-2.2,2.4-4.3,4.8-6.5,7.1c-1.1,1.2-2.2,2.5-3.5,3.7c-1.5,1.4-3.1,2.7-5.3,3c-0.9,0.1-1.8,0.7-2.7,1c-2.6,1.1-5.2,1.9-7.9,2.4
		c-4.2,0.8-8.2,0.3-12-1.7c-1.5-0.8-2.9-1.7-4.3-2.6c-0.8-0.5-1.6-1-2.5-1.6c-0.9,0.7-1.7,1.4-2.5,2.1c-3,2.4-6,4.8-9.1,7.2
		c-6.9,5.5-13.9,10.9-20.8,16.4c-0.7,0.6-1.4,1.3-2,1.9c2.2,5.9,8.1,12.3,13.5,14.7c1.8,0.8,3.6,1.3,5.5,1.8c1.8,0.6,3.7,1,5.6,1.6
		c0.4,0.1,0.6,0.6,1.2,1.1c-4.7,1.1-8.9,0.2-13.2-1.2c-0.4,1.2,0.4,2,0.7,2.8c0.3,0.8,0.7,1.5,1.1,2.5c6.6,1.7,13.2,3.6,20.2,3.5
		c1.2,0,2.4,0,3.6,0.1c7.1,0.3,14.2,0.6,21.4,0.9c1.6,0.1,3.1,0.2,4.7,0.3c4,0.3,7.9,0.5,11.9,0.1c4.7-0.4,9.4-0.4,14.1-0.7
		c4.7-0.3,9.3-1.1,13.8-2.9c0.9-0.3,1.8-0.5,2.9-0.8c0.6-1.9,1.2-3.9,1.7-5.8c0.1-0.3,0-0.7-0.1-1.3c-0.6,0.2-1,0.4-1.3,0.6
		c-4.1,2.4-8.5,3.4-13.1,3.6c-4.2,0.2-8.5,0.5-12.7,0c-0.5-0.1-0.9-0.2-1.3-0.2c-0.3-0.7,0-1.1,0.5-1.2c1.9-0.3,3.8-0.6,5.7-0.8
		c3.4-0.3,6.8-0.4,10.1-0.8c4.7-0.6,9.2-1.9,13-4.9c1.3,0.2,2,1,2.6,1.9c0,0.3,0.2,0.5,0.1,0.7c-0.9,3-1.8,6-2.7,9
		c-0.1,0.4-0.3,1-0.2,1.4c0.4,1.2-0.2,2.1-0.5,3.1c-0.1,0.3-0.2,0.7-0.4,1c-1.5,2.8-0.6,5.1,1.7,7.1c2.1,1.8,4.2,3.7,6.3,5.5
		c1.4,1.2,3,2.1,3.7,3.9c0.2,0.4,0.6,0.7,1,1c2.1,1.8,4.4,3.5,5.5,6.1c0.1,0.3,0.5,0.5,0.8,0.8c8.1,7.5,13.2,16.9,16,27.5
		c1.5,5.6,2.9,11.2,3.4,17c0.2,2.4,0.3,4.8,0.2,7.2c-0.1,1.5-0.4,3.1-0.9,4.6c-3.4,9-8.1,17.3-14.5,24.5
		c-5.4,6.1-12.1,10.3-19.7,13.2c-3.3,1.2-6.6,2.3-9.9,3.4c-1.2,0.4-2.5,0.9-3.6,1.6c-6.3,3.9-6.2,3.7-13.3,6.1c0,1-0.1,2,0,3.1
		c1.1,12.4,0.3,24.6-2.1,36.8c-0.5,2.5-0.7,5-0.1,7.5c0.2,0.8,0.2,1.7,0.3,2.5c0.3,6.8,2.2,13.3,3.3,20.3c0.7-0.4,1.3-0.7,1.7-1
		c1.9-1.7,4-3.1,6.3-4.3c3.1-1.6,6.3-2.3,9.7-2.5c5.7-0.2,11.3,0.3,16.9,1.9c0.8,0.2,1.7,0.4,2.5,0.3c6.2-0.9,12.4-1.9,18.6-2.9
		c0.6-0.1,1.2-0.3,1.8-0.5c0.6-1.1,1.2-2.1,1.7-3.2c0.9-1.8,2.4-2.7,4.2-3c0.9-0.2,1.9-0.3,2.9-0.4c2.1-0.2,4.3,0.1,6.5-0.5
		c1-0.3,2.2,0,3.2,0.3c3.6,1.3,7.2,2.7,10.9,4c4.9,1.8,7.5,5.8,9.8,10.1c0.1,0.2,0.2,0.4,0.3,0.7c0,3.8,1.6,7.3,1.7,11.1
		c0.2,4.9-1.2,9.2-4.7,12.5c-2.7,2.6-3.5,5.7-3.5,9.1c0,0.7,0,1.5,0,2.2c-0.2,3,0.5,5.7,1.8,8.4c1,1.9,1.8,4,2.4,6
		c0.7,2.2,1,4.5,1,6.8c0,2,0.1,4.1,0.1,6.2c0.4-0.1,0.7-0.1,1.1-0.2c0.1,0.3,0.3,0.6,0.3,0.9c-0.4,3.9-2.1,6.8-6,8.3
		c-2.2,0.8-4.3,1.4-6.7,1.6c-1.7,0.1-3.4,0.2-5,0.6c-3.5,0.7-7,0.9-10.5,0.8c-2.9-0.1-5.8-0.4-8.6-1c-4.3-0.9-7-3.5-8.1-7.8
		c-0.4-1.8-0.9-3.5-1.3-5.3c-0.2-0.9-0.3-1.9-0.4-2.9c-0.3-2.7,0.7-4.7,2.9-6.2c0.5-0.3,1-0.7,1.5-1.1c1.6-1,2.8-2.3,3.4-4.1
		c0.1-0.4,0.5-0.8,0.7-1.2c1,0,1.1,0.6,1,1.2c-0.8,3.7-2.3,6.9-6.2,8.5c-0.7,1.8-0.4,3.7,0,5.6c0.4,1.8,0.9,3.5,1.3,5.3
		c0.6,2.4,2,4.1,4.4,4.9c0.5,0.2,0.9,0.4,1.4,0.4c4.9,0.8,9.7,1.8,14.7,1c3.1-0.5,6.2-0.8,9.3-1.2c1.5-0.2,3-0.5,4.2-1.8
		c0.6-0.6,1.8-0.7,2.6-1.2c1-0.5,1.7-1.4,1.8-2.6c0.1-0.7-0.1-1.5,0.1-2.2c0.4-1.4-0.9-2.4-0.5-3.8c0.3-1.1,0.3-2.4,0.3-3.6
		c0.1-4.1-1-7.9-3.3-11.3c-1.8-2.6-2.7-5.3-2.8-8.5c0-2,0-4-0.3-6.1c-0.3-1.8,0.4-3.8,1.9-5.3c1.6-1.5,3-3.1,4.5-4.7
		c2.1-2.2,3-4.9,3-7.9c0-2.8-0.1-5.6-1.1-8.2c-0.3-0.8-0.6-1.5-0.3-2.4c0.2-0.4-0.1-1.2-0.4-1.6c-1.3-1.9-2.7-3.7-4.1-5.5
		c-0.4-0.5-1.1-0.9-1.8-1.1c-1.5-0.7-3.1-1.4-4.7-2c-2.9-1.1-5.9-2-8.6-3.7c-0.5-0.3-1.1-0.4-1.8-0.6c-0.2,0.5-0.4,0.9-0.6,1.5
		c-0.5-0.1-1.1,0-1.7-0.2c-2.1-0.6-4.3-0.4-6.5-0.3c-2.3,0.1-4.2,1-4.9,3.5c0.3,0.8,1,0.7,1.3,0.1c1-2.1,2.7-2.6,4.8-2.6
		c1.7,0,3.4-0.3,4.9,0.4c0.8,1.6,1.7,3.1,2.4,4.5c0.4,0.9,0.9,1.8,1,2.7c0.1,1.3,0.5,2.3,1.3,3.3c3,4.1,3.4,8.7,2.6,13.5
		c-0.6,3.7-2.4,7-4.2,10.3c-0.5,0.9-1.5,1.4-2.5,1.2c-3.8-0.5-7.6-0.9-11.4-1.6c-2.4-0.4-2.4-0.6-4.5-2.2c-9.3,1.9-18,5.4-26,10.4
		c-1,0.6-1.9,1.5-2.8,2.3c-5,4.4-10.1,8.6-16.2,11.5c-0.2,0.1-0.4,0.2-0.6,0.3c-5,1.8-9,5.1-12.6,8.9c-0.5,0.6-1.4,1-2.2,1.2
		c-2.7,0.8-5.4,1.4-8.1,2.1c-0.8,0.2-1.7,0.3-2.5,0.1c-4.3-1-8.3-2.6-11.9-5.1c-1.5-1-2.6-2.5-3.8-3.9c-5.8-7.1-11-14.7-15.2-22.9
		c-2.5-4.8-4.8-9.7-7.3-14.7c-0.4,0.6-0.8,1.2-1.1,1.8c-2.1,4.1-4.2,8.1-6.4,12.2c-0.5,0.9-1.1,1.8-1.7,2.8
		c-0.4,0.7-0.9,1.5-1.1,2.3c-1.2,3.9-2.4,7.9-3.5,11.8c-0.3,1-0.3,2.2-0.3,3.2c0.1,3.1-0.4,6-1.1,9c-0.7,2.7-1.2,5.4-1.9,8.2
		c0.7,0.5,1.3,1,1.9,1.3c1.5,0.8,2.3,2,2.7,3.6c0.5,2,0.8,4,0.6,6.1c-0.5,3.8,0.4,7.4,1.6,11c0.2,0.7,0.7,1.3,1,1.9
		c0.4,0.6,1,1.1,1.3,1.7c2.7,4.8,5.4,9.7,8.1,14.5c0.2,0.3,0.4,0.6,0.5,1c0.3,1.5,0.6,3.1,0.7,4.6c0.1,2.5,0.8,5-0.1,7.7
		c-2.1,1.3-4.6,2.1-7,2.8c-3.8,1.2-7.8,1.8-11.7,2.2c-6.9,0.6-13.7,1-20.6,0.9c-2.4-0.1-4.8-0.5-7.1-1.4c-2-0.8-3.5-2.1-4.1-4.3
		c-0.3-1.1-1-2.2-1.4-3.3c-0.2-0.6-0.4-1.2-0.4-1.7c0-2.6-0.5-5.3,1.1-7.8c0.2-0.4,0.3-0.9,0.3-1.4c0-1.7,0-3.4,0-5.2
		c-1.4-1.2-2.9-2.4-3.9-4c-0.8-1.3-1-2.4-0.5-3.7c0.2-0.6,0.5-1.1,0.8-1.6c1.5-2.8,2.2-5.8,2.3-9c0-2.1-0.1-4.3,1.2-6.3
		c0.5-0.7,0.3-1.9,0.4-2.8c0.2-2.2,0.3-4.3,0.6-6.5c0.2-2,0.6-2.3,2.7-2.7c0.5-0.1,0.9-0.2,1.5-0.3c0.1-1.2,0.1-2.2,0.2-3.3
		c0.1-1.9,0.3-3.8,0.4-5.8c0-0.2,0.2-0.5,0.1-0.7c-1.1-1.9,0.2-3.4,0.9-5.1c1.7-3.9,3.4-7.7,4.9-11.7c1.4-3.7,2.2-7.6,2.5-11.6
		c0.2-2.8,0.4-5.5,0.8-8.3c1.1-8.2,0.9-16.4,0.8-24.6c0-2.1-0.1-4.1-0.2-6.2c0-1.6-0.1-3.1,0.3-4.7c0.2-0.8,0.2-1.7,0.2-2.5
		c0.1-6.8,0.9-13.5,2.2-20.1c0.8-4.3,3.1-8.1,4.2-12.2c0.2-0.8,0.6-1.6,0.9-2.4c0.6-1.6,0.8-3.2,0.4-4.9c-0.4-1.9-0.4-3.8-0.4-5.8
		c0-4.2,0-8.5,0-12.7c0-0.8,0.1-1.8-0.3-2.5c-1.4-3.2-0.9-6.4,0-9.6c1.2-4.4,3.1-8.4,6.8-11.3c0.5-0.4,0.8-0.9,1.3-1.4
		c-0.7-3-0.5-6-0.3-9c0.1-4.2-0.2-8.4-0.4-12.7c-0.3-5.1-0.9-10.1-1.9-15.1c-0.7-3.7-0.7-7.5-0.6-11.2c0-2,0-4.1,0-6.2
		c0-0.7,0.1-1.4,0.2-2.2c0.2-1.7,0.5-3.3,0.6-5c0.1-1.2,0.4-2.3,0.8-3.5c0.5-1.6,0.6-3.3,0.7-5c0.1-1.7,0.4-3.3,1-4.9
		c0.8-2.5,1.1-5.2,1.6-7.8c0.1-0.6,0-1.2-0.2-1.8c-0.8-3.1-1.7-6.3-2.6-9.4c-0.6-2.1-1.4-4.1-2.6-6c-0.7-1.2-1.1-2.6-1.6-4
		c-0.7-2-1.8-3.6-3.6-4.9c-2.8-1.9-4.3-4.9-5.9-7.7c-0.5-0.8-0.9-1.7-1.4-2.7c-0.7,0.5-1.2,0.8-1.6,1.1c-3,2.6-6.3,4.8-9.2,7.6
		c-1.5,1.5-3.6,2.5-5.5,3.5c-7,3.6-14.3,6.5-21.7,9c-1.2,0.4-2.5,0.8-3.5,1.8c-0.6,0.6-1.7,0.9-2.6,1.1c-2.8,0.6-5.7,1.1-8.6,1.5
		c-1.8,0.3-3.2-0.7-3.2-2.5c0-1.7-0.7-3-1.3-4.4c-1.1-2.7-2.2-5.3-3.2-8.1c-0.3-0.9-0.3-1.9-0.2-2.8c0.3-3.4,0.7-6.7,1-10.1
		c0.1-1.3,0.1-2.7,0.1-4c-0.1-2,0.1-3.9,1.4-5.5c0.3-0.4,0.5-0.8,0.7-1.3c2.3-6.8,6.5-12.6,9.8-19c1.8-3.6,2.9-7.4,3.6-11.3
		l-0.1,0.1C559.6,196.1,559.2,195.8,559,195.6L559,195.6z M688.7,49.1c0.2-0.2,0.4-0.4,0.6-0.6c-0.1-0.1-0.3-0.2-0.4-0.3
		c-0.1,0.2-0.2,0.4-0.2,0.6C688.7,48.9,688.7,49,688.7,49.1c-0.3,0.1-0.6,0.1-0.3,0.5C688.5,49.4,688.6,49.3,688.7,49.1z
		 M693.8,65.7c-0.4,0.3-0.8,0.7-1.3,1.2c1.3,0.1,1.3-0.6,1.2-1.3c1.3-0.1,1.3-0.1,1.3-1.5C694.5,64.8,694.1,65.3,693.8,65.7z
		 M676.5,17.8c0,0.3,0.1,0.6,0,0.2C676.7,18.3,676.5,18.1,676.5,17.8c0.1-1-0.1-2-1.1-2.7c-1.4,0.2-2.7,0.4-4.1,0.6
		c0.7-1.4,2.6-1,3.6-2c-0.9-1.3-1.9-2.4-3.2-2.5c-2.5-0.3-4.8-1.5-7.4-1c-2,0.3-3.6,1.2-5.2,2.3c-0.8,0.6-1.9,0.9-2,2.4
		c1.6,0.2,3.1,0.3,4.7,0.5c1.5-2,2.9-4.3,6.1-4c-1.3,1.1-2.4,2-3.4,2.9c-0.4,0.3-0.5,0.8,0.1,1.3c0.3-0.3,0.7-0.6,1.1-0.8
		c0.4-0.2,0.8-0.4,1.2-0.6l-0.1-0.1c0,0.6,0,1.1,0,1.7c1.6,0.6,3,0.8,4.4-0.3c0.2,0.3,0.4,0.7,0.6,0.7
		C673.5,16.9,675,17.4,676.5,17.8z M630,84.7c0-0.2,0-0.4-0.1-0.6c0-0.1-0.1-0.2-0.2-0.2c-0.1,0.1-0.2,0.2-0.2,0.2
		C629.7,84.2,629.9,84.4,630,84.7c0.2,3.1,0.6,4.5,2,6.1C632,88.3,631.5,86.3,630,84.7z M639.5,30.1c0,0.3,0.1,0.5,0.1,0.3
		C639.7,30.6,639.5,30.4,639.5,30.1c-0.3-2.1-0.6-4.3-0.8-6.5c0.3,0.5,0.9,0.9,1,1.4c0.7,2.3,1.2,4.6,1.8,6.9
		c-0.4,0.5-0.8,0.8-1.1,1.1c-0.3,0.3-0.1,1-0.9,0.8c-0.1-1.4-1.4-2.1-2.2-3.1c-0.8-1-1.3-2.2-2.2-3.7c-0.1,3.4,2.1,5.3,3.3,7.6
		c-0.7,0.7-1.2,0.5-1.7,0c-1.1-1.1-2.1-2.3-3.2-3.5c-0.3-0.3-0.7-0.6-1-0.8c-1.2,1.3,0.2,2.7-0.5,3.9c-1,0.8-1.5,1.5-1.9,2.8
		c0.6,0.7,1.2,1.5,1.7,2.3c0.3,0.4,0.4,0.9-0.1,1.2c-0.5-0.3-1-0.5-1.6-0.9c-0.8,2.3,1.2,4,1,6.4c-0.9-1.1-1.5-1.9-2.5-3.1
		c0,0.9-0.1,1.5,0,2c0.2,0.9,0.5,1.9,0.9,2.7c0.6,1.4,1.3,2.8,0.9,4.5c-0.1,0.3,0.4,0.7,0.8,1.3c0.5-0.8,0.8-1.4,1.4-2.3
		c0.3,2,0.6,3.6,0.9,5.4c-0.5,0.6-1,1.2-1.8,2.2c-0.4-2.4-1.1-4.1-3.2-5.1c0,1,0,1.8,0,2.2c0.9,0.7,1.7,1.1,2.1,1.8
		c0.6,0.9,0.3,1.9-0.6,2.5l-0.1-0.3L630,60c-0.1,2-0.3,4-0.4,6c0,2,0,4.1,0.1,6.1c0.1,1.4,0.3,2.9,0.3,4.3c-0.1,2.4,0.5,4.5,1.6,6.6
		c1.6,3.3,2.8,6.7,3.4,10.3c0.8,4.2,2.6,8,4.5,11.8c1.4,3,3.7,5.4,6.6,7c1.6,0.9,3.1,1.9,4.7,2.8c4.4,2.5,9,3.4,13.9,1.7
		c1-0.4,2.1-0.5,3.1-0.9c3.2-1,6.1-2.6,8.3-5c2.8-2.8,4.9-6.3,6.1-10.2c0.7-2.2,1.4-4.4,2-6.6c0.7-2.3,1.3-4.6,1.7-7
		c0.7-3.5,1.4-7.1,3.1-10.4c0.4-0.8,0.8-1.9,0.8-2.8c-0.1-3,0.2-6.1-1.1-8.9c-0.4-1-0.5-1.8-0.4-2.8c0.1-0.6,0.3-1.3,0.1-1.8
		c-0.9-2.4-0.2-4.7,0.2-7.1c1.1-0.5,1.6-1.2,1.2-2.5c-0.9,0.8-1.4,1.5-1.1,2.6c-0.5,0.3-1,0.5-1.4,0.7c-1.9-1.1-2.1-2.5-1.1-4.1
		c0.8-1.4,1.8-2.8,2.8-4.5c-0.2-0.6-0.4-1.6-0.7-2.6c-0.4,1.2-0.7,2.2-1.2,3.1c-0.2,0.4-0.7,0.7-1.1,1.2c-0.6-1.8-0.4-3.3,0.3-4.8
		c0.6-1.4,1.2-2.9,1.6-4.4c0.6-2,0.1-3.6-1.4-5.2c-0.1,1,0,1.8-0.2,2.6c-0.5,2.1-0.1,4.3-1.3,6.3l0.1,0.1c-0.1-1.1,0-2.2-0.4-3.2
		c-0.3-0.9-1.2-1.7-1.8-2.6c0.1-1.1,0.4-2.3-0.3-3.6c-0.7,0.9-1.3,1.7-1.9,2.4c-0.4,0.4-0.8,0.4-1.2-0.2c0.8-1.5,1.5-3,2.3-4.4
		c0.3-0.6,1.5-0.6,1.8,0.1c0.3,0.8,0.5,1.6,0.8,2.4c0.1,0.2,0.2,0.3,0.4,0.5c0.3-0.9,0.6-1.7,0.8-2.5c0.1-0.2,0-0.5,0-0.8
		c-1.8-3.4-3.2-4.8-6.2-5.7c-0.3,0.7-0.6,1.5-0.9,2.2c-0.2,0.5-0.5,1-0.7,1.5c-0.8,0.1-1.1,0.9-1.5,1.5c-0.5,0.8-1,1.7-1.6,2.4
		c-0.3,0.4-0.8,0.4-1.3-0.2c0.9-3.1,3.6-5.3,4.9-8.1c-0.7-1.2-0.7-1.2-1.8-1.6c-3.5,8.1-3.5,8.1-6.4,10c2.1-3.2,4.3-5.7,4.5-9.7
		c-1.8,3.1-3.3,5.8-4.8,8.5c-0.2,0.3-0.4,0.6-0.7,0.8c-0.1,0.1-0.4,0.1-0.7,0.1c0.1-0.4,0-0.7,0.2-1c1-1.9,2.2-3.8,3.1-5.7
		c0.6-1.2,1-2.4,1.4-3.7c0.2-0.7-0.2-1.4-0.7-1.4c-0.8-0.1-1,0.5-1.2,1.1c-0.1,0.2-0.2,0.5-0.2,0.7c-0.3,3.5-2.2,6.4-3.9,9.2
		c-1.2,1.9-2.6,3.5-4.6,4c-1-0.3-1.9-0.6-2.8-0.9c-0.3-3,0.2-6,0.5-9c0-0.6,0.2-1.2,0.3-1.8c0.1-0.4,0.5-0.8,0.9-1.6
		c0,1.6,0,2.9,0,4.2c1.5-0.7,0.4-2.6,2-3.4c0.5,3.2-0.4,6-0.5,9c0.8-1.4,1.3-2.9,1.9-4.3c0.7-1.7,1.4-3.3,2-5l-0.1-0.1
		c0.2,1.8-0.1,3.5-0.6,5.2c-0.3,1.1-0.5,2.3-0.7,3.4l-0.2,0.1l0.1-0.1c1.6-2.6,3.2-5.1,3.9-8.1c0.3-1.2,0.7-2.3,0.1-3.5
		c-1.1-0.4-2.2-0.9-3.2-0.5c-1.3,0.9-0.4,2.6-1.7,3.2c-0.8-0.1-1-0.5-0.9-1.2c0-0.7-0.2-1.3-0.4-2c-1.5-0.2-2.7-0.4-4.2-0.6
		c-0.1,0.7-0.2,1.3-0.2,1.9c0.1,0.7,0.5,1.4,0.4,2.1c-0.2,2.5-0.4,5-0.7,7.6c-0.2,1.7-0.4,3.3,0.1,5c0.1,0.4-0.2,0.8-0.3,1.6
		c-2.1-2.3-4.6-0.7-6.7-1.4c-3.3-5-5.3-9.4-5.4-11.6c0.2,0,0.5,0,0.9,0c-0.3-1.3-0.6-2.5-0.9-4c-0.9,0.1-1.6,0.2-2.4,0.3
		c0.1,3.6,1.3,6.5,3,9.3c-0.3,0.6-0.8,1.1-0.4,1.7c0.7,1,1.4,2,2,3c0.1,0.2,0.1,0.6,0.2,1c-2-0.8-2.3-3-4.1-3.6
		c-0.2-0.1-0.4-0.3-0.5-0.5c-0.2-0.4-0.4-0.9-0.6-1.3c-0.7-1.9-1.2-3.9-1.1-6c0.1-0.8-0.1-1.7-1.3-2c-0.5,0.4-1.1,0.9-1.6,1.4
		c-0.3,0.3-0.5,0.8-0.8,1.2c-0.6-0.1-1.2,0-1.5,0.6c-0.3,0.5-0.5,1.1-0.5,1.6C636.9,27.9,637.8,29.3,639.5,30.1z M664.2,175.9
		c0,0.3,0.1,0.6,0.1,0.3C664.3,176.5,664.2,176.2,664.2,175.9c-0.2-1.1-0.2-2.3-0.4-3.4c-0.2-0.8-0.9-1-1.7-1.1
		c-0.8-0.1-1.4,0.3-1.5,1.1c-0.1,0.4-0.1,0.9-0.1,1.3C661.7,174.6,662.9,175.2,664.2,175.9z M695.3,74.5c-0.7,0.3-1.4,0.6-1.5,1.4
		c-0.3,2.1-1.6,3.4-3.4,3.9c-1.2,3.3-1.2,3.3,0.9,3.8c2.3-2.7,3-6,3.9-9.2c0.9-0.1,1.2-0.7,1.3-1.4c0.1-1.5,0.1-3.1,0-4.6
		c0-0.4-0.3-0.7-0.7-1.3c-0.8,1-1.4,1.7-2,2.4c-0.3,0.5-0.6,1-0.9,1.5C693.9,72.2,695.4,72.9,695.3,74.5z M649.5,155.6
		c1.9,0.3,3.5-0.4,5.2-1.1c2.5-1,4.9-2,7.4-2.9c0.5-0.2,1.2-0.3,1.8-0.3c3.8-0.3,7.7-0.6,11.5-0.9c0.3,0,0.5-0.3,0.8-0.5
		c-0.7-1-1.5-0.8-2.3-0.7c-0.9,0.1-1.9,0.5-2.8,0.4c-1.7-0.2-3.3,0.1-5,0.3c-1.9,0.2-3.7,1.2-5.7,0.4c-0.4-0.2-1.2,0.2-1.7,0.5
		C655.7,152.3,652.7,154,649.5,155.6c-0.2,0.2-0.4,0.3-0.2,0.2C649.2,156,649.3,155.8,649.5,155.6z M630.8,351.5
		c1.2,0,2.1-0.5,2.7-1.5c1.1-1.6,2.6-2.8,4.2-4c0.5-0.4,1-0.9,1.9-1.8c-5.5,0-10.4,0.4-16-0.3c6-0.4,11.2-0.8,16.5-1.1
		c1.5-0.1,2.8-0.4,4.1-1.1c7.1-4.2,14.6-7.6,22.2-10.5c0.8-0.3,1.5-0.6,2.3-1c-1.2-0.3-2.2-0.2-3.2-0.1c-5.3,0.8-10.6,0.8-15.9,0.2
		c-5-0.6-10-1.8-14.8-3.4c-5.2-1.7-10.1-3.9-14.3-7.5c-0.2-0.2-0.6-0.2-1.1-0.3c0.3,2.5,0.7,4.7,0.8,7c0.2,3,1.4,5.9,0.4,8.9
		c-0.2,0.6,0,1.4,0.1,2.2c0.8,5.9,1.1,11.8,1.1,17.7c0,0.6,0.2,1.1,0.3,1.8c0.7-0.2,1.2-0.2,1.5-0.4
		C626.2,354.7,628.5,353,630.8,351.5L630.8,351.5z M724.3,312.4L724.3,312.4c-0.4,0.4-0.7,0.9-1.2,1.2c-3,1.7-6.1,3.4-9.3,5.2
		c0.7,0,1.3,0.1,1.8,0c5.4-1.5,11-2.7,15.9-5.6c0.2-0.1,0.5-0.1,0.7-0.1l-0.1-0.1c-0.4,0.4-0.6,1-1.1,1.2c-2.2,1.1-4.5,2.1-6.7,3.1
		c-0.5,0.2-1,0.6-1.4,0.9c-0.2,0.1-0.4,0.2-0.7,0.3c0.2-0.1,0.4-0.3,0.6-0.4c1.4-0.1,2.9,0,4.3-0.2c3.1-0.5,6.2-1.2,9.2-1.8
		c0.6-0.1,1.2,0,2.6,0c-2.7,1.4-4.8,1.8-6.9,2.1c-0.9,0.1-1.9,0.2-2.3,1.4c-0.1,0.4-0.9,0.8-1.4,0.9c-1.2,0.2-2.4,0.2-3.6,0.3
		c-2.4,0.1-4.8,0-7.2,0.1c-1.8,0.1-3.6,0.2-5.5,1.1c0.7,0.4,1.3,0.8,1.9,1.1c1.8,1,3.7,1.9,5.4,3c5.3,3.4,9,8,11,14
		c1.1,3.2,1.6,6.6,1.8,9.9c0.5,8.3-0.6,16.4-3.7,24.2c-0.2,0.5-0.7,1,0.1,1.6c1.1-0.9,2.2-1.8,3.2-2.8c4.7-4.6,8.8-9.7,12.1-15.3
		c1.4-2.4,2.7-4.9,3.8-7.4c1.4-3.1,1.8-6.4,1.5-9.9c-0.7-7.6-2.1-15.1-4-22.4c-2.2-8.9-6.6-16.5-12.6-23.4c-0.4-0.4-0.7-1-1.5-0.8
		c-0.3,0.6-0.6,1.3-0.9,1.9c-0.3,0.7-0.6,1.3-0.9,2c-3.8,7.9-9.7,13.4-18,16.4c-4,1.4-8,2.8-12,4.1c-6.8,2.1-13.1,5.5-19.6,8.3
		c0.5,0.1,1,0.1,1.4-0.1c5.5-1.4,11-2.8,16.5-4.3c4.4-1.2,8.9-2,13.1-3.9c3.7-1.7,7.6-3,11.2-5.1
		C722.7,312.9,723.5,312.7,724.3,312.4z M597.4,532.9c-2.8,0.2-4.4-1.4-5.7-4.3c-0.3,3-0.5,5.2-0.7,7.5c-0.2,2.2-0.3,4.3-1.5,6.3
		c-0.4,0.6-0.5,1.4-0.4,2.1c0.1,3.3-0.5,6.5-1.5,9.6c-0.5,1.7-0.6,3.3-0.1,5c0.3,0.3,0.7,0.6,1,1c3.5,3.3,4,6.9,1.3,11
		c-0.5,0.8-0.9,1.7-0.8,2.8c1,0.9,1.3,2.1,1.4,3.5c0.1,1.4,0.3,2.9,0.6,4.3c0.3,1.5,1.4,2.5,2.8,3c2.3,0.9,4.6,1.4,7.2,1
		c1.1-2.8,3.3-4.3,5.9-5.4c4.4-1.9,9-2.8,13.8-2.5c1.5,0.1,2.9,0.5,4,1.6c0.4,0.4,0.7,1,0.6,1.6c0,0.6-0.6,1-1.5,1
		c-1.9-1.9-4.4-2-6.9-1.7c-3.4,0.4-6.7,1-9.8,2.5c-1,0.5-1.9,1-2.8,1.6c-0.3,0.2-0.5,0.7-0.9,1.4c5.6-0.2,11-0.3,16.2-0.7
		c5.4-0.4,10.8-1.3,15.9-3.2c0.8-0.3,1.5-0.7,2.2-1c0.4-3.7,0.2-7.2-0.7-10.6c-0.7-2.5-1.2-5.2-3.9-6.7c-0.4-0.2-0.5-0.8-0.7-1.2
		c-0.3-0.9-0.6-1.8-0.9-2.7c-0.4-1.3-0.9-2.4-2.3-3c-1.3-0.6-1.9-1.8-2.4-3.1c-2.1-5.1-3.3-10.3-2.5-15.9c0.2-1.4-0.1-2.9-0.5-4.2
		c-0.3-1.3-1.3-2-2.7-1.7c0.1,0-0.1-0.2,0.1-0.1c0.7,0.8,1.1,1.7,0.3,2.6c-0.6,0.7-1.5,0.8-2.3,0.3c-1.3-0.8-2.7-0.9-4.2-0.8
		c-2.9,0.2-5.8,0.3-8.6,0.6c-2.5,0.3-5,0.8-7.5,1.3c-0.8,0.1-1.7,0.3-2.5,0.3c-0.9,0.1-1.8-0.4-1.7-0.9c0-0.7,0.5-1,1.1-1.2
		C596.4,533.4,597.1,533.5,597.4,532.9c0.6-0.1,1.4,0,2.1-0.2c4.3-1.3,8.7-2,13.2-2.5c0.8-0.1,1.6-0.3,2.2-0.4
		c1.5-2.8,1.7-5.5,1.6-8.3c-0.1-1.1,0-2.2-1-3.1c-2.1,0.2-4.4,0.5-6.7,0.7c-2.4,0.2-4.8-0.2-7.3,0.2c-0.6,2.1-1.9,3.8-1.2,6
		c0.2,0.6-0.2,1.4-0.4,2.1C599.1,529.2,598.2,531,597.4,532.9z M702.5,140.5c0.1,1.2,0.4,2.4,0.3,3.6c-0.2,4.5-0.7,8.9-1.4,13.3
		c-1.5,8.8-4,17.4-7.3,25.7c-0.2,0.4-0.2,0.9-0.4,1.6c0.8,0.5,1.6,1.1,2.3,1.6c0.7,0.5,1.4,0.9,2.1,1.4c1.3,1,2.6,2.1,4,3.1
		c1.3,0.9,2.6,1.7,4,2.5c1.3,0.7,2.1,2.3,3.9,1.8c0.7,0.7,1.3,1.4,2,2.1c0.3,0.3,0.6,0.9,1.1,0.3c-0.8-1.7-1.7-3.4-2.3-5.2
		c-2.4-7.3-4.5-14.7-5.1-22.5c-0.4-5.6,0.1-11.1,2-16.4c0.8-2.3,2-4.4,3-6.6c0.3-0.6,0.4-1.3,0.7-2c-2.6-1.4-5-2.7-7.5-4
		C703.5,140.4,702.9,140.6,702.5,140.5c-0.2-0.9-1-1.2-1.7-1.7c-2.5-1.6-5.1-3.3-7.6-4.9c-2.1-1.4-4.2-2.8-6.2-4.1
		c-0.6,0.2-1.1,0.3-1.7,0.5c-1-1.2-2-2.4-3-3.6c-2.3-2.5-1.5-6.3-3.5-9c-0.2-0.2-0.1-0.7-0.1-1.1c0-1,0-1.9-0.1-2.9
		c0-0.4-0.2-0.8-0.3-1.3c-1.1,1.8-3,2.1-4.5,2.9c-1.6,0.8-3.3,1.4-5,2.2c-1.3,0.6-2.4,1.7-3.8,2c-3.7,1-7.4,1.1-10.8-1.1
		c-1.1-0.7-2.2-1.5-3.5-1.9c-2.1-0.7-4-1.7-5.9-2.8c-0.4-0.2-0.8-0.6-1.2-0.3c0,2.3,0,4.6,0,6.6c-3.5,5.8-9.2,8.8-14,12.7
		c-0.1,0.4-0.3,0.8-0.3,1.1c-0.4,4-1.1,7.9-1.2,11.9c-0.2,7.1,0,14.3-0.2,21.4c-0.2,6.5,1,12.7,2.5,19c0.1,0.3,0.4,0.6,0.7,1
		c1-1.4,1.3-2.9,1.8-4.3c1.3-3.5,2.4-7.1,3.8-10.6c0.7-1.8,1.3-3.6,1.5-5.6c0.1-1.4,0.4-2.9,0.5-4.3c0.1-1.8,0.5-3.6,1.5-5.5
		c1.5-0.7,3.3-1.5,5-2.2c0.9-3.1,2.7-5.6,5.6-7.3c0.9,0.5,1.7,0.9,2.5,1.3c0.2,0.5,0.3,1,0.5,1.4c0.2,0.4,0.4,0.7,0.7,1.2
		c0.8-0.5,1.4-0.9,2-1.2c1.7-1,3.4-2.4,5.7-1.2c0.4,0.2,1.2-0.1,1.7-0.3c3.6-1.4,7.4-1.2,11.1-1.1c1.4,0,2.9,0.2,3.8,1.7
		c0.2,0.3,0.8,0.3,1.3,0.4c0.5,0.1,1.1,0.3,1.6,0.4c-0.3,2.4-0.3,2.4-1.8,4c-0.4,3,2.7,2.8,3.7,4.5c-0.5,0.4-0.9,0.8-1.3,1.2
		c0.2,0.3,0.5,0.6,0.7,0.8c4.3-1.2,8.6-2.4,12.9-3.5c0.6-0.2,1.2,0,1.3,0.9c-1,1.3-2.6,1.6-4.1,1.9c-2.6,0.5-5.3,0.8-7.9,1.1
		c-0.7,0.1-1.3,0.3-2.1,0.5c3.1,6.4,6.1,12.6,9.1,18.9c0.4-0.8,0.7-1.5,1-2.3c0.9-2.5,1.7-5,2.6-7.6c3-9.4,5.5-19,6.3-29
		C702,141.3,702.3,140.9,702.5,140.5z M729.4,210.9c-1.5-0.1-2.6-1.1-3.8-1.9c-1.6-1.1-3.1-2.3-4.7-3.3c-1.6-1.1-3.3-2-5.3-2.2
		c-0.9-0.1-2-0.4-2.7-1c-1.9-1.5-3.7-3.1-5.5-4.7c-1.1-0.9-2.2-1.9-3.3-2.8c-2-1.6-3.9-3.2-5.9-4.8c-0.8-0.6-1.5-1.4-2.3-1.7
		c-1.9-0.7-3.1-2.3-4.5-3.6c-0.6-0.5-1.2-1.4-1.2-2.2c0-2-1-3.4-1.9-5c-1.6-2.9-3.2-5.7-4.6-8.6c-1.7-3.4-3.3-6.9-5.1-10.5
		c-1,0.5-1.9,1-2.8,1.4c-1.1,0.5-2.3,0.8-3.4,1.2c-0.9,0.4-1.9,0.7-2.6,1.3c-1.5,1.3-3.3,2-5,2.8c-1.6,0.7-3.3,1.4-4.8,2.5
		c0.7,3.1,3.7,1.8,5.5,3c0.7,1.5,1.6,3.1,2.3,4.7c0.3,0.5,0.6,1.1,0.6,1.7c0,3.2,1.6,6.1,1.8,9.2c0,0.6,0.3,1.2,0.7,1.6
		c1.7,2,3.7,3.7,6.2,4.8c3.3,1.5,6.4,3.4,9.5,5.2c0.5,0.3,1,0.8,1.1,1.3c0.4,1.8,1.6,3,2.7,4.2c5.1,6.1,9.9,12.5,14.2,19.2
		c1.1,1.6,2.2,3.2,3.3,4.8c4.6,6.7,9.7,13,16,18.2c4.4,3.7,9.1,7.1,13.8,10.5c5.1,3.7,10.7,6.6,16.6,8.9c1.6,0.6,3.2,1.1,4.8,1.6
		c1.6,0.5,3.2,0.8,4.7,1.2c1.1-1.9,1.8-3.8,3-5.2c4.3-4.9,5.2-10.4,3.8-16.6c0-0.1,0-0.2,0-0.4c-0.8-3.8-2.3-7.3-4.7-10.4
		c-2-2.7-4.7-4.5-7.7-5.9c-4.5-2-9-4.2-13.4-6.3c-4.9-2.3-9.2-5.2-11.9-10.1c2.7,0.5,4.8,2.2,7,3.7c0.3,0.2,0.6,0.5,0.6,0.8
		c0.2,1.6,1.6,2.1,2.7,2.6c4.5,2.1,9,4.2,13.5,6.2c3.6,1.5,7.1,3.1,9.8,6c0,0,0.2,0,0.3,0c0.4-0.6,0.2-1.2-0.3-1.6
		c-0.7-0.6-1-1.3-1-2.2c0-2-0.7-3.8-1.4-5.6c-2.2-5.4-4.3-10.8-6.7-16.1c-1.6-3.5-1.6-7-1.1-10.6c0.2-1.4,0.4-2.9,0.4-4.3
		c0-4.4-1-8.6-2-12.8c-1.7-7.2-5.6-13.1-11.3-17.7c-3.9-3.1-7.9-6-12.4-8.1c-2.9-1.4-5.8-2.9-8.9-4c-1.9-0.7-3.8-1.5-5.7-2.3
		c-0.9-0.4-1.8-0.7-2.8-1.1c-1.7,3.5-3.2,6.9-4,10.6c-1.2,5.5-1.1,11.1-0.4,16.6c1,7.4,2.6,14.8,5,21.9c0.6,1.7,1.3,3.4,2.1,5
		c0.4,0.8,1,1.8,1.7,2.3c2.3,1.7,4.6,3.5,7.6,4.4c0.3-0.4,0.7-0.8,0.8-1.2c0.1-0.7,0.1-1.4,0.1-2.2c0-2,0.4-4,0.6-5.8
		c1.2-0.2,1.6,0.4,1.6,1.2c0,3,0,6-0.1,9.1C728.4,208.8,728.7,209.9,729.4,210.9z M643.1,159.4L643.1,159.4
		c-0.3,2.3-0.5,4.7-0.8,7.1c-0.8,0-1.3,0.1-1.9,0.1c-0.1,0.8-0.2,1.5-0.3,2.2c-0.6,4.2-1.4,8.4-3.6,12.1c-1.6,2.7-2.8,5.6-4.1,8.4
		c-0.2,0.4-0.4,0.9-0.6,1.3c-0.4,1.1-1.2,1.7-2.3,2.2c-3.3,1.3-6.3,3.1-9,5.3c-0.6,0.5-1.3,1.1-1.6,1.9c-0.5,1.5-1.6,2.4-2.9,3.1
		c-2.5,1.2-5,2.5-7.6,3.4c-4.7,1.6-9.4,3-14.1,4.5c-2.3,0.7-4.5,1.8-6.8,2.3c-5.6,1.3-11.3,2.7-17.1,2.9c-1.5,0-3.2,0.3-4.6,0.9
		c-4.3,2-8.5,4.1-12.6,6.3c-1.8,0.9-3.6,2-5.4,3.1c-0.7,1.3-1,2.8-1.1,4.4c-0.2,3.9-0.5,7.7-0.7,11.6c-0.1,2.3-0.1,4.6-0.5,6.9
		c-0.4,2,0.2,3.5,1.2,5.1c1.8,2.8,3.9,5.5,4.9,8.9c2-0.3,3.9-0.6,5.9-0.9c1.5-2,3.8-3,5.9-4c3.5-1.6,7.1-3.1,10.6-4.6
		c5.1-2.2,10.3-4.1,15.2-6.8c2.1-1.2,4.1-2.5,5.8-4.3c1.2-1.2,2.4-2.4,3.6-3.5c1.3-1.2,3-2.2,3.9-3.8c1-1.7,2.9-1.6,4-2.9
		c0.2-0.3,0.5-0.5,0.8-0.7c6.7-5.6,13.6-10.9,20.7-15.9c3.3-2.3,6.3-4.9,9.4-7.3c1.8-1.4,3.5-2.9,5.8-3.2c1.5-1.8,2.9-3.4,4.2-5.2
		c1.2-1.5,2.3-3.1,3.4-4.7c0.7-0.9,1.1-1.9,1-3c-0.4-4.4,0.4-8.7,0.8-13c0.3-3.2,0.9-6.3,2.8-9.1c2-2.8,4.4-4.8,7.4-6.1
		c4.1-1.8,7.9-4.2,12.2-5.4c1.3-0.4,2.2-1.3,2.6-3c-1.2,0.3-2.2,0.7-3.2,0.7c-1.8-0.1-3.3,0.3-4.9,0.9c-1.2,0.5-2.5,1-3.8,1.2
		c-2.6,0.5-5.1,1.3-7.6,2.2c-2.8,1.1-5.6,2.2-8.1,4c-0.2,0.2-0.6,0.2-0.9,0.2c-0.6-0.6-0.3-1.1,0-1.3c1.1-0.9,2.3-1.8,3.5-2.5
		c2.9-1.6,6.1-2.3,9.2-3.2c2.3-0.6,4.7-1.3,6.9-2.2c2-0.8,4-1.6,6.2-1.7c1.7-0.1,3.3-0.6,4.3-2.4c-1.1,0.1-2.2,0.3-3.2,0.3
		c-3.9,0.3-7.7,0.5-11.6,0.7c-0.6,0-1.2,0.2-1.8,0.4c-5,1.8-10,3.5-15,5.3c-0.6,0.2-1.1,0.5-1.8,0c-0.1-0.4-0.1-0.8-0.2-1.3
		c0.2,0,0.5,0,0.7,0c0.1,0,0.2-0.1,0.3-0.1c-0.2-0.1-0.4-0.3-0.5-0.2c-0.2,0.1-0.3,0.3-0.5,0.5c-1.7-0.2-3.2,0.4-4.8,1.1
		c-0.1,0.9-0.1,1.7-0.2,2.4C641.8,160.2,642.4,159.8,643.1,159.4z M707.2,322.7c-5.2,1.4-10.6,2.8-15.9,4.3
		c-9.8,2.6-19.5,5.4-28.9,9.3c-8.5,3.5-16.8,7.4-24.6,12.4c-1.1,0.7-2.3,1.4-3.2,2.3c-1.7,1.8-3.6,3.2-5.5,4.6
		c-2.1,1.5-4.1,3-6.2,4.4c-1.9,1.3-3.5,3-4.7,5c-1,1.8-1.9,3.6-2.8,5.5c-1.1,2.3-1.6,4.8-1,7.4c0.2,0.7,0.1,1.4,0.1,2.2
		c0,5.6,0.1,11.1,0.1,16.7c0,1.1-0.1,2.2,0,3.3c0.3,1.6,0.1,3.1-0.4,4.6c-0.6,1.8-1.1,3.7-1.8,5.5c-1.6,4.7-2.9,9.5-3.7,14.4
		c-0.9,5.8-1.3,11.8-2.2,17.6c-0.6,4-0.6,7.9-0.1,11.9c0.1,0.8,0.1,1.7,0.1,2.5c0,5,0,9.9,0,14.9c0,1.1-0.1,2.2-0.2,3.3
		c-0.4,4.3-0.8,8.7-1.3,13c-0.2,2-0.4,4.1-0.8,6.1c-0.4,2.1-0.5,4.3-2.4,5.9c-0.4,0.3-0.5,1.1-0.8,1.6c-1.1,2.8-2.1,5.7-3.3,8.4
		c-1,2.4-1.6,4.8-1.6,7.4c0,3.1,0.2,6.3,0.4,9.4c0,0.1,0.1,0.1,0.5,0.4c1.4-3,1.1-6.5,3-9.3c1.8-0.9,3.7-0.7,5.7-0.7
		c2.2-0.1,4.4,0.1,6.5-0.6c0.2-0.1,0.3-0.3,0.5-0.5c-0.2-0.5-0.5-0.9-0.8-1.6c1.8-0.2,2.8,0.6,3.9,1.3c2.3,1.5,3.1,3.9,3.7,6.4
		c0.2-0.6,0.1-1.2,0.2-1.8c0.1-1.8,0-3.6,0.3-5.4c2.5-12.6,6.7-24.7,13.3-35.8c0.9-1.4,1.7-2.9,3.1-4c0.5-0.4,1-1.1,1.3-1.7
		c2.3-4.4,4.7-8.7,6.7-13.3c6.1-14,8.3-28.7,6.9-43.9c-0.4-4.1-0.7-8.2-0.9-12.3c-0.1-1.9-0.1-3.9,0-5.8c0-0.7,0.3-1.4,0.4-2
		c3.8-1.7,7.6-1.8,11.5-1.2c2,0.3,4.1,0.8,6.1,0.9c6,0.1,12.1,0.3,18.1-0.7c5.5-1,10.9-2.3,15.7-5.2c0.9-0.5,2-0.9,2.9-1.4
		c6-2.6,11.9-5.3,17.5-8.6c1.5-0.8,2.4-1.9,2.9-3.5c0.8-2.8,1.7-5.6,2.5-8.3c2.1-7.6,2.4-15.2,1.1-23c-1.1-6.7-4.4-12.2-10-16.2
		C715.7,326.2,711.7,324.1,707.2,322.7z M695.2,488.5c-1.5-0.1-1.9-0.9-2.2-1.7c-0.8-2-1.6-4.1-2.1-6.2c-0.9-3.5-1.5-7.1-2.2-10.6
		c-0.2-0.8-0.2-1.8-0.6-2.4c-1.2-2-1.3-4.1-1.4-6.3c-0.2-3.3-0.4-6.5-0.5-9.8c-0.2-5.4-0.4-10.9-0.5-16.3c0-1.4,0.2-2.9,0.4-4.3
		c1-7.1,1.8-14.1,1.8-21.3c0-3.3,0.2-6.5,0.3-9.8c0-0.6,0-1.1,0-1.7c-0.6,0-0.9-0.1-1.3-0.1c-2.9,0.3-5.7,0.8-8.6,1
		c-4.5,0.3-9,0.5-13.4-0.6c-3.5-0.8-6.9-1-10.4-1.2c-0.6,0-1.1,0.2-1.9,0.3c0,2.7,0,5.2,0.2,7.7c0.2,2.5,0.3,5.1,0.4,7.6
		c0.1,2-0.2,4.1,0.7,6c0.2,0.5,0.2,1.2,0.2,1.8c0.4,6.2,0.3,12.3-0.9,18.4c-1.7,8.8-4.1,17.4-8.6,25.3c-0.7,1.3-1.4,2.6-2,3.9
		c-2.4,5-2.4,5.8-0.2,10.9c0.2,0.4,0.4,0.9,0.6,1.3c4.7,9,9.6,17.8,15.7,26.1c2.3,3.1,4.2,6.5,6.2,9.8c0.5,0.9,1.1,1.6,2,2
		c2.6,1.1,5.1,2.1,7.7,3.2c0.9,0.4,1.8,0.4,2.8,0.1c4.3-1.2,8.6-2.4,13.1-3.7c1-2.3,3.3-3.7,4.8-5.6c1-1.3,2.2-2.1,3.6-2.8
		c4.4-1.9,8.8-4.1,12.8-6.8c1-0.7,2-1.4,2.7-2.4c1.5-2,3.4-3.5,5.4-4.8c2.7-1.7,5.4-3.2,8.2-4.7c7-3.6,14.7-5.4,22.4-7.1
		c0.8-0.2,1.7-0.2,2.5-0.1c1.1,0.2,2.1,0.1,3.2-0.1c1.1-0.2,2.2-0.1,3.2-0.2c2.3-0.1,4.4,0.8,6.4,1.7c1.9-3.6,2.5-5.9,2.8-9.1
		c0.3-3.3-0.2-6.2-2.5-8.7c-0.8-0.9-1.5-2.1-1.6-3.2c-0.2-2.6-1.5-4.5-3.1-6.5c-1,0-1.9,0-2.9,0c-0.8,0-1.6,0.1-2.4,0.2
		c0.6,0.2,1.2,0.2,1.8,0.3c0.6,0.1,1.2,0.5,1.2,1.2c0,0.5-0.4,1.3-0.8,1.5c-0.9,0.4-1.8,0.5-2.8,0.6c-2.3,0.3-4.6,0.4-6.8,0.8
		c-5.2,0.9-10.5,1.8-15.8,2c-1.6,0.1-3.2,0-4.7,0.3c-1.6,0.3-3.1,0.2-4.6-0.3c-4.3-1.3-8.7-1.9-13.2-1.7c-1.2,0.1-2.4-0.1-3.6,0
		c-1.1,0.1-2.2,0.2-3.2,0.5c-4.3,1.5-8,3.9-11.3,7.1C693,476.2,694.9,482.1,695.2,488.5z M622.2,278.3c-0.3,4-1.9,7-1.1,10.3
		c-0.5,3.3-1,6.7-1.5,10c-0.2,1.1-0.4,2.1-0.5,3.2c-0.5,3.7-0.4,7.5-0.1,11.2c0.1,1.3,0.5,2.3,1.4,3.2c2,2,4.2,3.6,6.7,4.9
		c4.6,2.3,9.4,3.8,14.3,4.9c4.5,1,9,1.9,13.5,2.7c1,0.2,2.2,0.2,3.2,0.1c6.9-0.7,13.6-2.1,20.1-4.5c10-3.7,19.9-7.3,29.7-11.6
		c10.8-4.8,14.2-7.6,21-18.5c0.5-0.8,0.8-1.7,1.2-2.5c-0.9-2.1-2.6-3.3-4.2-4.6c-1.5-1.2-3.3-2.2-4.4-3.7c-1.5-2-3.4-3.4-5.1-5.1
		c-0.9-0.8-1.7-1.7-2.5-2.6c-0.4-0.4-0.7-1-1.1-1.4c-0.5-0.4-1.2-0.6-1.8-0.9c-0.5-1.8,0.3-3.2,0.6-4.7c0.3-1.5,1.4-2.8,1.1-4.7
		c-2.1,0.8-3.9,1.7-5.8,2.3c-2,0.6-4,0.9-6,1.4c-2,0.5-4.1,0.1-6,0.9c-0.1,1-0.3,1.9-0.4,3.2c-0.6-1.4-1-2.2-1.4-3.2
		c-2.8,0-5.6,0-8.4,0c-1.8,0-3.6,0-5.4-0.1c-2.7-0.1-5.3-0.4-7.9-0.5c-9.7-0.3-19.3-0.6-29-0.9c-2.2-0.1-4.3-0.2-6.5-0.3
		c-4.1-0.3-8.1-1.3-12.1-2.2c-0.8-0.2-1.6-0.7-2.5,0.3c0.4,1.7,0.9,3.6,1.4,5.4c0.1,0.4,0.4,1,0.7,1.2c1,0.7,0.9,1.7,0.9,2.6
		c-0.2,3.1,0.6,6,1.6,8.8c0.4,1.1,0.9,2.3,1.2,3.4c0.2,0.5,0.1,1.1,0.2,2.3C624.1,285.8,624.2,282,622.2,278.3z M550.9,221.5
		c1-0.5,1.3-0.7,1.7-0.9c3-1.5,6-3.1,9-4.6c1.9-0.9,3.9-1.3,5.9-1.5c2.6-0.2,5.3-0.4,7.9-0.7c4.2-0.5,8.4-1,11.7-4
		c0.5-0.4,1.4-0.7,2-0.5c1.5,0.2,2.5-0.5,3.5-1c1.1-3.7,0.9-7.5,2.5-10.9c1.7,0.1,1,1.8,1.8,2.4c3.8-3.9,6.5-8.2,8.3-13.2
		c4.8-13.3,8.3-27,9.2-41.2c0-0.6-0.1-1.1-0.2-1.8c-1.6,0.4-3,0.7-4.3,1.1c-1.5,0.5-2.9,1.1-4.4,1.5c-2.8,0.8-5.6,1.5-8.4,2.3
		c-0.6,0.2-1.3,0.1-1.7,0.4c-2.4,1.7-5.4,2.1-8,3.2c-4.3,1.8-8.6,3.7-12.1,7.1c-4.8,4.6-8.1,10.2-10.6,16.3
		c-1.1,2.7-1.7,5.5-1.6,8.5c0.1,1.9-0.1,3.9,0.1,5.8c0.5,3.8-0.5,7.2-2,10.5c-0.5,1.1-1,2.2-1.6,3.3c-2.4,4.7-4.8,9.5-7.1,14.2
		C552.1,218.8,551.6,219.8,550.9,221.5z M598.4,206c0.4,0.2,0.5,0.3,0.6,0.3c4.2-1.4,8.5-2.8,12.7-4.1c1.2-0.4,2.1-1.1,2.9-2.1
		c1.6-2,3.6-3.5,5.9-4.8c1.9-1.1,3.8-2,5.8-3.1c0.7-0.4,1.4-0.9,2.1-1.3c-0.6-3-1.1-5.9-1.7-8.7c-0.3-1.5-0.3-3.2-0.8-4.6
		c-0.7-2-0.9-4-1-6.1c0-6.3,0-12.6,0-18.8c0-5.6,0.6-11.1,1.9-16.5c0.1-0.3-0.1-0.6-0.2-1c-2.7,1.7-5.2,3.4-7.7,5
		c-1.4,0.9-2.2,2.2-2.2,3.9c0,1.4-0.2,2.9-0.2,4.3c-0.1,2.7-0.1,5.3-0.4,8c-1.2,9.7-3.6,19.2-6.8,28.5c-1.7,5.1-4.3,9.6-7.8,13.7
		c-0.3,0.4-0.5,0.8-0.7,1.2C600,201.8,599.2,203.9,598.4,206z M654.6,187c-0.2,0.3-0.2,0.4-0.3,0.5c-0.1,0.7-0.3,1.4-0.3,2.1
		c0,4.1-1.7,7.4-4.2,10.5c-0.2,0.2-0.3,0.4-0.5,0.6c-0.7,0.8-1.3,1.7-1.3,2.9c0,1.1-0.7,1.8-1.5,2.4c-0.8,0.5-1.7,1-2.4,1.5
		c-0.4,0.3-0.8,0.8-1.2,1.3c2.9,1.9,5.7,3.2,8.7,4c1.4,0.4,2.8,0.5,4.3-0.1c0.4-1.4,0.7-2.8,1.1-4.1c-1-1.3-2-2.4-2.8-3.5
		c-0.3-0.4-0.4-0.9,0.3-1.3c1.1,0.6,2.4,1.2,3.5,1.8c1.5-1.5,1.3-3.9,3.5-4.8c0,0.6,0.2,1.1,0,1.5c-1.3,2.7-1.9,5.7-3.1,8.4
		c-0.3,0.6-0.9,1.5,0,2.4c4.7-0.4,8.9-2.6,13.4-3.7c3.3-4.1,7-7.7,10.3-11.7c-1.4-0.9-2.5-1.8-4.1-2c-0.9-0.1-1.8-0.7-2.6-1.1
		c-4.2-2.6-6.9-6.3-8.2-11c-0.7-2.4-0.7-2.6-2.3-4.5c-2.2,2.2-1.2,5.5-2.7,8c-1.6,0.4-3.2-0.7-4.6,0.6c-0.3,0.3-1.1,0-1.7-0.1
		C655.4,187.2,655,187.1,654.6,187z M650.2,18.9c-1.7,5.8,0,10.4,4,14.7c0.2-5.8-0.4-8.1-2.3-15C651.4,18.7,650.8,18.8,650.2,18.9z
		 M658.7,168.7c-0.7,0.8-1.1,1.3-1.6,1.8c-1.4,1.5-1.7,3.4-1.7,5.4c0,0.8,0.3,1.5,1,1.8c1.8,0.6,3.5,1.7,5.6,1c0-0.7,0.1-1.4,0.1-2
		c-1.5-1.1-2.8-2-4.2-3C659.9,171.1,660,170.5,658.7,168.7z M654.8,178.3c0.6,2.8,3.1,5.4,6.2,6.8c0.1-0.6,0.3-1.2,0.3-1.8
		c0-0.7-0.1-1.4-0.2-2.1C659.1,180.3,657.1,179.4,654.8,178.3z M754.9,487.8c2.5,0,4.7,0,7,0c1,0,1.8-0.4,2.3-1.5
		c-1.7-1.1-3.3-0.6-4.9-0.7c-1.3,0-2.6,0.2-3.7,1C755.2,486.9,755.1,487.3,754.9,487.8z M647.4,154.2c2.1,0.3,3.3-0.7,4.4-1.5
		c0.7-0.5,0.6-1.3,0.5-2c-0.1-0.8-1.1-1.2-1.7-0.7c-1,0.9-2,1.8-2.8,2.7C647.5,153,647.5,153.6,647.4,154.2z M625.9,71.7
		c-0.7,4.4-0.4,5.5,1.8,7.3c0-1.8,0-3.4,0-5.4C627.2,73.2,626.6,72.5,625.9,71.7z M656.7,18.5c-0.9-0.7-1.6-0.5-2.5,0.3
		c-0.1,1.1-0.1,2.4-0.2,3.7C656.3,21.8,656.1,19.9,656.7,18.5z M657.2,22.8c-0.6,1.7-0.7,1.7,0,3.7
		C657.8,24.7,657.8,24.7,657.2,22.8z M657.2,185.4c-1-1.2-1.6-1.9-2.3-2.6C654.5,184.6,654.5,184.6,657.2,185.4z M627.7,70.3
		c0.3-1.3-0.1-1.6-1.3-1.3C626.9,69.4,627.3,69.8,627.7,70.3z M751.8,486.5c-0.6,0-0.9-0.1-1.3-0.1c-0.1,0-0.2,0.1-0.3,0.2
		c0.3,0.1,0.6,0.3,0.9,0.3C751.3,487,751.4,486.8,751.8,486.5z"/>
	<path d="M143.2,517.5c-1.4-2.8,0.4-5.1,0.6-7.8c-2.4,0.6-4.6,1.1-7,1.6c0.8,0.4,1.7,0.6,2.3,1.1c1.1,0.9,1,2.8-0.4,3.3
		c-2.6,0.9-5.4,1.5-8.1,0.4c-1.9-0.7-2.2-2-0.9-3.6c0.2-0.3,0.5-0.5,0.8-0.9c-0.6-0.3-1.1-0.5-1.6-0.8c-0.8-0.5-1-1.3-0.8-2.2
		c0.2-0.9,0.9-1.5,1.7-1.7c0.6-0.1,1.2-0.2,1.8-0.2c1.3,0,2.7,0.1,4,0.1c2,0.1,4.1,0.1,6.1,0.2c0.9,0,1.9,0.2,3,0.3
		c0.3-0.7,0.5-1.4,0.8-2.1c-0.3-0.3-0.5-0.5-0.7-0.5c-3.5,0.3-7,0.6-10.5,0.9c-1,0.1-1.9,0.2-2.9,0.3c-1,0.1-1.9-0.1-2.7-0.9
		c-0.9-1-0.5-2-0.1-3.1c-0.6-0.6-1.3-1.3-1.8-1.9c0.1-1.2,0.7-1.7,1.6-1.8c1-0.1,1.9-0.1,2.9-0.1c4.3-0.1,8.7-0.2,13-0.4
		c0.9,0,1.7,0,2.4,1.1c-0.3,0.4-0.6,1-1,1.2c-1.2,0.4-2.5,0.7-3.8,1c-1.2,0.2-2.4,0.2-3.6,0.6c2.6,0.3,5.3,0.7,8,1
		c1.1-2,1.4-4,1.9-6c0.1-0.6,0.1-1.2,0.3-1.8c0.2-0.5,0.6-1,1.1-1.3c0.5-0.3,1.4,0.6,1.4,1.4c0,1-0.1,1.9-0.3,2.8
		c-1.4,6-3.7,11.7-6.2,17.4C144.2,515.9,143.7,516.7,143.2,517.5z"/>
	<path d="M750.9,500.1c0.4,1.2,0.6,1.8,0.8,2.4c0.4,0.1,0.6,0.2,0.8,0.2c4.7-0.5,9.4-0.5,14.1-0.4c0.9,0,1.6,0.6,1.9,1.5
		c0.3,0.9,0,1.8-0.9,2.5c-0.3,0.2-0.7,0.3-1,0.5c-0.2,0.1-0.3,0.2-0.5,0.4c0.1,0.1,0.1,0.2,0.2,0.3c0.8,0.5,1.6,1.1,1.4,2.3
		c-0.2,1.3-1.2,1.8-2.3,2c-2.3,0.4-4.6,0.4-6.8-0.3c-2-0.6-2.4-2.3-0.9-3.8c0.2-0.2,0.4-0.2,0.6-0.4c0.1-0.2,0.2-0.4,0.3-0.7
		c-1.8-0.5-3.7-1-5.5-1.5c-0.6,0.5-0.1,1.1,0,1.6c0.4,1.6,0.9,3.3,1.2,4.9c0.1,0.4-0.1,0.9-0.2,1.2c-0.9,0.3-1.1-0.3-1.2-0.7
		c-2.9-6.1-5.4-12.4-7-19c-0.2-0.9-0.3-1.9-0.4-2.8c0-0.8,0.7-1.5,1.3-1.5c0.7,0.1,1,0.6,1.1,1.2c0.4,1.9,0.8,3.8,1.3,5.6
		c0.2,0.7,0.5,1.3,0.7,2.1c3.1-0.2,6.1-0.4,9.2-0.6c-3.1-1.1-6.6-0.3-9.2-2.4c-0.2-1.2,0.4-1.5,1.2-1.6c0.6-0.1,1.2,0,1.8,0
		c4.2,0.1,8.4,0.3,12.7,0.4c1,0,1.9,0,2.9,0.2c0.4,0.1,0.8,0.5,1,0.9c0.4,0.6,0,1.2-0.5,1.6c-0.4,0.3-0.8,0.5-1.4,0.8
		c0.2,0.4,0.4,0.8,0.5,1.2c0.3,1.6-0.4,2.7-1.9,2.9c-0.7,0.1-1.4,0.1-2.2,0c-2.2-0.2-4.3-0.4-6.5-0.6
		C755.5,500.2,753.5,500.1,750.9,500.1z"/>
	<path d="M748.3,521.1c0.6-0.3,0.9-0.6,1.2-0.6c6.5-0.7,13-0.8,19.4,0.9c0.8,0.2,1.6,0.5,2.3,0.9c0.5,0.3,0.8,0.9,0.6,1.5
		c-0.3,0.6-0.7,1-1.4,0.9c-0.5,0-0.9-0.2-1.4-0.3c-4-1.1-8-1.7-12.1-1.7c-2.2,0-4.3-0.1-6.5-0.2
		C749.6,522.5,749.6,522.5,748.3,521.1z"/>
	<path d="M148.3,526.6c-0.7,0.2-1.3,0.5-1.9,0.6c-2.4,0.2-4.8,0.4-7.2,0.4c-3.9,0.1-7.7,0.3-11.4,1.5c-0.7,0.2-1.4,0.3-2.1,0.2
		c-0.4,0-0.8-0.5-0.9-0.9c-0.1-0.2,0.1-0.8,0.3-1c0.4-0.4,0.9-0.8,1.5-0.9c2.5-0.6,4.9-1.3,7.4-1.5c4-0.2,7.9-0.1,11.9,0
		C146.8,524.9,147.8,525,148.3,526.6z"/>
	<path d="M634.3,255.2c2.7-0.6,4.9-0.8,7.1-1.3c0,0.6,0.1,0.9,0,1c-1,1-2.4,1-3.6,1.2C636.7,256.3,635.6,256.3,634.3,255.2z"/>
	<path d="M673,256.4c2.7-0.5,4.4,0,6.1,0.5c0.2,0.8-0.2,1.1-0.7,1.1C676.7,258.2,675.2,257.8,673,256.4z"/>
	<path d="M670,255c-0.6-0.3-1.1-0.5-1.8-0.9C669.3,253.2,669.7,254,670,255z"/>
	<path d="M645.7,251.9c0.4-0.5,0.9-0.6,1.3,0C646.6,252.3,646.1,252.6,645.7,251.9z"/>
	<path d="M559,196.3c-0.1-0.2-0.2-0.4-0.2-0.5c0-0.1,0.1-0.1,0.2-0.2l-0.1-0.1C558.9,195.8,558.9,196.1,559,196.3L559,196.3z"/>
	<path d="M279.5,428.1c-1-2.2-1.3-4-1.3-5.8c0-2.2,0-4.3,0-6.5c0-0.6,0.1-1.2,0.3-1.8c0.1-0.3,0.5-0.6,0.8-0.6
		c0.3,0,0.7,0.3,0.8,0.5c0.2,0.3,0.3,0.7,0.3,1c0,3.3,0,6.5-0.1,9.8C280.2,425.7,279.9,426.6,279.5,428.1z"/>
	<path d="M268.6,387.3c-3.9-0.1-5.6-2.3-7.4-4.2c-0.6-0.6-1.4-1.4-0.5-2.4c0.2,0,0.6-0.1,0.7,0.1
		C263.6,382.7,265.7,384.7,268.6,387.3z"/>
	<path d="M296.1,513.1c-2-4-3.9-7.7-5.7-11.4c-0.1-0.3-0.1-0.7-0.3-1.4c1.5,1.2,2,2.7,2.7,3.9c1.4,2.5,2.9,4.9,3.6,7.7
		C296.5,512.2,296.3,512.5,296.1,513.1z"/>
	<path d="M258.8,379.6c-1.7-1.5-2.3-2.6-2.4-3.9c-0.1-1.7-0.5-3.5,0.5-5.2c0.4,0.3,0.9,0.5,0.9,0.7
		C258.1,373.7,258.4,376.2,258.8,379.6z"/>
	<path d="M225.6,392.1c0.4-1.2,1.3-1.2,2.1-1.2c3.4-0.3,4.9-0.1,6.8,1C231.5,392.7,228.6,392.5,225.6,392.1z"/>
	<path d="M245.7,432.6c-0.1-2.5-0.1-5-0.2-7.5c0-0.3,0.2-0.7,0.3-1.1C246.7,426.1,246.7,428.8,245.7,432.6z"/>
	<path d="M244.8,393.9c1.4,1.9,0.8,3.3,0.8,5C244,397.3,244,397.3,244.8,393.9z"/>
	<path d="M283.8,453c-1.9-1.5-2-2.2-0.7-3.5C284,450.6,284.4,451.6,283.8,453z"/>
	<path d="M247.6,436.1c0.1,1.1,0.2,2.1,0.3,3.7C246.5,436.7,246.5,436.7,247.6,436.1z"/>
	<path d="M268.4,395c-0.4-1.8-0.4-1.8-0.1-3.1C269.5,393,269.5,393,268.4,395z"/>
	<path d="M249.6,446.3c-1.1-0.6-1.3-1.5-1.3-2.8C249.9,444.6,249.9,444.6,249.6,446.3z"/>
	<path d="M287.9,496c-0.3-0.8-0.6-1.7-1.1-3.1C288.1,494.6,288.1,494.6,287.9,496z"/>
	<path d="M280.7,441.1c-0.2-0.1-0.5-0.2-0.6-0.3c-0.1-0.4-0.1-0.8-0.2-1.2c0,0,0.4-0.2,0.6-0.1c0.6,0.4,0.7,0.9,0.4,1.5
		C280.8,441,280.7,441.1,280.7,441.1z"/>
	<path d="M284.8,489.7c0-1.1-0.1-1.9-0.1-2.6C285.5,487.8,285.6,488.5,284.8,489.7z"/>
	<path d="M281.4,444.8c0.3,0.2,0.4,0.3,0.4,0.4c0.2,0.4,0.5,0.8,0,1.2c-0.1,0.1-0.3,0-0.3,0c-0.2-0.4-0.3-0.8-0.4-1.2
		C281.1,445.2,281.2,445.1,281.4,444.8z"/>
	<path d="M251.1,450.9c0.3,0.3,0.6,0.6,0.8,1c0.1,0.2,0,0.4,0,0.6c-0.3-0.1-0.6-0.1-0.7-0.3C250.9,451.9,250.5,451.5,251.1,450.9z"
		/>
	<path d="M283.4,480c0.3,0.2,0.5,0.4,0.5,0.5c0,0.4-0.1,0.8-0.2,1.2c-0.2-0.3-0.5-0.5-0.5-0.8C283.1,480.7,283.3,480.4,283.4,480z"
		/>
	<path d="M241.1,390.3c0.2-0.1,0.4-0.1,0.6-0.2c0.1,0.2,0.2,0.4,0.1,0.6c0,0.1-0.4,0.2-0.5,0.2C241.2,390.8,241.2,390.5,241.1,390.3
		z"/>
	<path d="M253.4,457.7c-0.3,0.1-0.5,0.3-0.6,0.3c-0.2,0-0.4-0.3-0.4-0.4c0-0.1,0.2-0.3,0.3-0.5C252.9,457.2,253.2,457.4,253.4,457.7
		z"/>
	<path d="M219.1,392.5c-0.1,0-0.2,0.1-0.3,0.1c-0.1,0-0.1-0.2-0.2-0.3c0.1,0,0.2,0,0.3,0C219,392.4,219.1,392.5,219.1,392.5z"/>
	<path d="M279.4,433.8c0.1,0.2,0.1,0.4,0.2,0.6c0,0.1-0.1,0.2-0.2,0.3c-0.1-0.2-0.1-0.4-0.2-0.6
		C279.2,433.9,279.3,433.8,279.4,433.8z"/>
	<path d="M213.4,515.4c-3.3,0-5-2.1-6.5-4.4c-1.8-2.8-2.7-5.8-0.8-9.4c0.4,0.6,0.8,1,0.8,1.3c-0.2,5.1,2.3,8.6,6.1,11.6
		C213.2,514.7,213.2,515,213.4,515.4z"/>
	<path d="M174.1,487.7c-2.3-0.6-3.3-2.1-4.2-3.7c-0.8-1.5-1.2-3.1-0.9-4.9c0-0.2,0.1-0.5,0.3-0.7c0.3-0.3,0.7-0.6,1.1-0.7
		c0.2,0,0.6,0.3,0.8,0.6c0.2,0.2,0.3,0.4,0.3,0.7c0,2.7,1.2,5.1,2.4,7.5C174,486.7,174,487,174.1,487.7z"/>
	<path d="M141.7,470.2c-0.4,0.4-0.6,0.7-0.9,0.8c-1.9,0.5-3.8,0.5-5.7,0.2c-0.6-0.1-1.1-0.5-1.2-1.1c-0.1-0.7,0.5-1.5,1.3-1.5
		C137.4,468.4,139.6,468.9,141.7,470.2z"/>
	<path d="M198.8,497.9c-0.5-1.8-0.5-3.1,0.7-4.4C200.5,495.4,199.8,496.5,198.8,497.9z"/>
	<path d="M177.1,490.3c1.3,0.6,1.2,1.8,1.5,3C176.5,492.5,176.4,492.3,177.1,490.3z"/>
	<path d="M183.9,496.2c1.3,1.2,2.1,2,3.5,3.2c-1.2-0.2-1.7-0.1-1.9-0.3C184.7,498.6,183.8,498.1,183.9,496.2z"/>
	<path d="M150.8,470.8c-0.5,0.4-0.7,0.8-1,0.8c-0.5,0.1-1,0-1-0.6c0-0.2,0.4-0.6,0.6-0.6C149.8,470.4,150.1,470.6,150.8,470.8z"/>
	<path d="M222.3,516.4c0.5-0.4,0.8-0.7,1.2-0.8c0.5-0.1,1.1,0.4,0.9,0.7c-0.1,0.2-0.5,0.4-0.8,0.5
		C223.3,516.8,223,516.6,222.3,516.4z"/>
	<path d="M217.5,517.5c0.2-0.4,0.3-0.7,0.4-0.7c0.4,0,0.8,0.1,1.2,0.2c-0.1,0.2-0.3,0.7-0.5,0.7C218.3,517.8,218,517.6,217.5,517.5z
		"/>
	<path d="M144,471.6c0.5-0.8,1.1-0.6,1.7-0.1C145.2,472.2,144.6,472.2,144,471.6z"/>
	<path d="M177.8,161c-1.1-0.1-2,0-2.7-0.3c-1.5-0.7-3-1.5-4.4-2.3c-0.2-0.1-0.3-0.8-0.2-1.2c0.1-0.2,0.6-0.3,0.9-0.5
		c0.1,0,0.2,0,0.3,0.1c1.9,1,3.8,2,5.7,3C177.5,159.8,177.5,160.2,177.8,161z"/>
	<path d="M164.3,193.5c1.7-3,3-5.3,4.4-7.7c0.1-0.2,0.6-0.4,0.9-0.3c0.5,0.1,0.7,0.7,0.5,1.1c-0.8,2.5-2.1,4.8-4.1,6.6
		C165.8,193.4,165.4,193.3,164.3,193.5z"/>
	<path d="M139.4,249.4c-1.7,0.7-3.4,1.1-5.5,0.4c0.5-0.4,0.7-0.9,1.1-0.9C136.4,248.6,137.9,248.3,139.4,249.4z"/>
	<path d="M224.2,173.5c0.4,2.2,0.5,3.9,0,5.5c0,0.2-0.3,0.3-0.5,0.4C222.8,177.3,222.8,176,224.2,173.5z"/>
	<path d="M185.7,160.9c-2,0.4-3.3,0.3-4.5-0.3C182.3,159.4,182.3,159.4,185.7,160.9z"/>
	<path d="M204.4,208.4c0.7-0.9,1.4-1.7,2.4-3C206.4,207.3,206.4,207.3,204.4,208.4z"/>
	<path d="M213.7,200.9c1.4-0.6,2.2,0,3,1.2C214.8,202.2,214.8,202.2,213.7,200.9z"/>
	<path d="M144.5,248.2c-1.6,1-1.6,1-2.9,0C142.5,247.6,143.3,247.7,144.5,248.2z"/>
	<path d="M176.7,191.5c-0.6,0.7-1.1,1.2-1.7,1.8C174.4,191.5,174.6,191.2,176.7,191.5z"/>
	<path d="M174.2,195.8c0.1,0.1,0.2,0.2,0.2,0.3c-0.1,0.5-0.2,1-0.4,1.5c0,0-0.5,0.1-0.6-0.1c-0.5-0.5-0.3-1.1,0.1-1.5
		C173.7,195.9,174,195.9,174.2,195.8z"/>
	<path d="M159.8,196.4c-0.3,0.3-0.5,0.6-0.7,0.8c-0.2-0.2-0.5-0.5-0.5-0.7c0-0.3,0.3-0.5,0.5-0.8C159.2,196,159.5,196.2,159.8,196.4
		z"/>
	<path d="M192.6,217.1c-0.3,0.4-0.6,0.8-0.9,1.3C191.1,217.4,191.7,217.1,192.6,217.1z"/>
	<path d="M221,166.6c0.2-0.3,0.3-0.6,0.6-0.8c0.1-0.1,0.4,0,0.5,0.1c-0.1,0.2-0.1,0.5-0.3,0.5C221.5,166.5,221.2,166.5,221,166.6
		L221,166.6z"/>
	<path d="M148.8,246.1c-0.4,0.1-0.9,0.1-1.3,0.2c0-0.1,0-0.3-0.1-0.4c0.4-0.1,0.9-0.1,1.3-0.2C148.8,245.8,148.8,246,148.8,246.1z"
		/>
	<path d="M199.3,214.3c-0.1-0.3-0.2-0.5-0.2-0.6c0.1-0.2,0.2-0.3,0.4-0.4c0,0,0.4,0.3,0.3,0.3C199.7,213.8,199.5,214,199.3,214.3z"
		/>
	<path d="M156.2,200.4c-0.2-0.2-0.4-0.4-0.4-0.5c0.1-0.3,0.3-0.5,0.5-0.7c0.2,0.1,0.5,0.3,0.4,0.4
		C156.6,199.9,156.4,200.1,156.2,200.4z"/>
	<path d="M224.7,173c-0.2-0.3-0.3-0.5-0.3-0.5c0.2-0.2,0.4-0.3,0.7-0.5c0.1,0.1,0.2,0.2,0.2,0.3C225.1,172.5,224.9,172.7,224.7,173z
		"/>
	<path d="M237.5,320.4c-2.4-1.2-4.3-0.8-6.2-0.9c-0.8,0-1.6-0.2-2.4-0.4c-0.2-0.1-0.5-0.5-0.5-0.8c0-0.3,0.2-0.8,0.5-0.9
		c1.8-0.8,3.7-0.7,5.6-0.3C235.9,317.4,236.6,318.4,237.5,320.4z"/>
	<path d="M205.8,288.4c-0.2,0-0.5,0-0.6-0.1c-1.7-2.2-2.7-4.8-3.1-7.6c0-0.3,0.1-0.7,0.3-1.5c0.7,1.9,1.3,3.4,1.8,4.9
		C204.6,285.6,205.9,286.7,205.8,288.4L205.8,288.4z"/>
	<path d="M237.5,303c0.4,2.8-0.6,5-1.9,7.5c-0.4-0.5-0.8-0.8-0.7-1c0.5-1.9,1.1-3.7,1.7-5.5C236.8,303.6,237.1,303.4,237.5,303z"/>
	<path d="M204.8,311.1c-0.8-1.9-0.9-3.3-0.5-4.7c0.1-0.2,0.5-0.4,0.8-0.5c0.1,0,0.4,0.2,0.5,0.4C206,307.8,206.1,309.2,204.8,311.1z
		"/>
	<path d="M204.1,315c0-0.2,0.1-0.7,0.2-1.1c0.1-0.3,0.5-0.6,0.8-0.6c0.3,0,0.7,0.3,0.8,0.5c0.2,0.4,0.3,0.9,0.4,1.3
		c0,0.8-0.3,1.4-1.1,1.6C204.6,317,204.1,316.2,204.1,315z"/>
	<path d="M206.3,297.1c-0.8-1.2-0.9-2.3-0.4-3.5c0.1-0.2,0.3-0.3,0.5-0.3c0.2,0,0.5,0.1,0.6,0.3
		C207.5,294.8,207.5,295.9,206.3,297.1z"/>
	<path d="M227.1,317.2c0,0.1,0,0.3,0,0.3c-0.5,0.3-0.9,0.6-1.4,0.9c0,0-0.4-0.3-0.4-0.5c0-0.7,0.6-0.9,1.2-1
		C226.7,316.9,226.9,317.1,227.1,317.2z"/>
	<path d="M266.7,304.5c0-0.8,0.1-1.7,0.1-2.5c0.1,0,0.3,0,0.4,0c-0.1,0.8-0.1,1.7-0.2,2.5C267,304.5,266.8,304.5,266.7,304.5z"/>
	<path d="M238,296.9c-0.6-0.9-0.3-1.4,0.7-1.8C239.2,296,238.8,296.5,238,296.9z"/>
	<path d="M206,301.4c-0.1-0.3-0.1-0.6-0.1-0.9c0-0.1,0.3-0.2,0.5-0.3c0.1,0.3,0.2,0.5,0.2,0.8C206.7,301.1,206.3,301.2,206,301.4z"
		/>
	<path d="M240.2,289.5c0,0.1,0.1,0.2,0.1,0.3c0,0.1-0.1,0.2-0.2,0.3c0-0.1-0.1-0.2-0.1-0.3C240,289.7,240.1,289.6,240.2,289.5z"/>
	<path d="M205.7,288.4c0.2,0.1,0.4,0.2,0.5,0.3c0.1,0.1-0.1,0.3-0.2,0.5c-0.1-0.1-0.2-0.2-0.2-0.3
		C205.8,288.8,205.8,288.6,205.7,288.4L205.7,288.4z"/>
	<path d="M261.8,260.2c-1.9,0.9-3.7,0.7-5.5,0.1c-0.6-0.2-1.1-0.4-1.1-1.4C257.5,258.9,259.6,259.4,261.8,260.2z"/>
	<path d="M222.8,261.2c-1.2,1.3-2.8,1.7-4.5,1.6c-0.4,0-0.7-0.5-1.2-0.8C218.9,260.6,220.8,260.9,222.8,261.2z"/>
	<path d="M228.2,258c-0.3,1.6-0.9,1.6-1.8,1.1C226.9,258.8,227.3,258.5,228.2,258z"/>
	<path d="M251,257.2c-0.4-0.1-0.8-0.3-1.2-0.4c-0.1,0,0.1-0.4,0.1-0.6c0.4,0.1,0.8,0.2,1.2,0.3C251.1,256.7,251,257,251,257.2z"/>
	<path d="M207.5,70.3c0.4-0.8,0.4-1.1,0.6-1.2c4.5-2.5,8.9-2.7,13.2,0.5c0.7,0.5,1.2,1.2,1.7,1.8c0.4,0.6,0.2,1.1-0.9,2
		c-0.5-0.3-1-0.6-1.5-1c-0.2,0-0.5,0-0.7,0.1c-0.8,0.8-1.5,1.6-2.7,1.4c-1.5-0.2-2.8-0.6-3.4-2.3c0-0.1-0.2-0.1-0.5-0.3
		c-0.4,0.2-0.9,0.4-1.4,0.7c-0.5,0.3-0.9,0.8-1.3,1.2c-1.1,0-2-0.2-2.5-1.4c1.5-0.9,3-1.8,4.6-2.8c-1-0.8-1.7-0.1-2.4,0.1
		C209.6,69.5,208.8,69.8,207.5,70.3z"/>
	<path d="M253.4,69c-2.3,0-4.3-1.7-7-0.9c2.5,1.1,4.6,2.1,6.7,3c0,1.1-0.6,1.1-1.2,1c-1.3-0.4-2.5-0.8-3.9-1.3
		c-0.6,0.6-1.2,1.3-1.8,2c-3.1,0.2-3.1,0.2-5.3-1.5c-1.2,0.6-1.9,2.7-4,1c1-1,2.3-1.7,2.8-2.8c1.4-2.9,3.8-3.3,6.6-3
		c2.4,0.2,4.7,0.8,6.8,2C253.3,68.5,253.3,68.7,253.4,69z"/>
	<path d="M220,102.7c1.2-0.4,1.6-0.7,2-0.7c1.6,0.1,3.1-0.3,4.5-1c2.3-1.1,4.6-1.1,7-0.7c1.7,0.3,3.3,0.6,4.9,1
		c1.5,0.4,3,0.7,4.6,0.1c0.6-0.2,1.1,0.2,1.1,1c-0.8,1.1-2.1,1-3.3,1.1c-1.4,0.1-2.9-0.1-4.3,0c-3.7,0.1-7.4,0.2-11.2,0.2
		C223.8,103.8,222.3,103.7,220,102.7z"/>
	<path d="M222.5,107.3c1.3,0,1.9-0.1,2.4,0c4,1.4,8,0.9,12,0.4c0.7-0.1,1.3-0.7,1.9-0.9c0.4-0.2,0.9-0.3,1.4-0.3
		c0.2,0,0.4,0.2,0.6,0.3c-1.3,1.4-2.4,2.9-4.5,3.2c-2.9,0.5-5.6,1.1-8.5-0.2c-1.1-0.5-2.3-0.7-3.4-1.2
		C224,108.4,223.6,108,222.5,107.3z"/>
	<path d="M255.4,62.3c-0.6,0.2-0.7,0.2-0.8,0.2c-5.6-1.3-11-0.3-16.4,0.8c-0.9,0.2-1.9,0.5-2.8,0.6c-0.4,0-0.8-0.2-1.6-0.5
		c0.7-0.6,1.1-1.1,1.6-1.3c1.5-0.5,3-1.1,4.5-1.2c3.5-0.2,7-0.2,10.5-0.2C252,60.7,253.6,61.1,255.4,62.3z"/>
	<path d="M207.1,62.6c0.5-0.5,0.8-0.9,1.1-1c5.1-1.7,10-1,14.8,1.1c0.7,0.3,1.6,0.7,1.4,2.1c-0.4-0.1-0.9,0-1.3-0.2
		c-3.1-1.5-6.4-2.1-9.8-2.3c-1.7-0.1-3.4-0.2-5,0.5C208.2,62.8,207.8,62.7,207.1,62.6z"/>
	<path d="M250.7,31.7c0.8-0.2,0.7-0.9,0.7-1.5c0.4-0.1,0.9-0.1,1.4-0.2c0.5,0.6,0.1,1.1-0.1,1.7c-0.2,0.6-0.3,1-0.1,1.7
		c0.5,1.4,0.5,1.4-0.6,3.4c-0.8-0.2-1.7-0.4-2.5-0.7C249.3,34.4,251,33.3,250.7,31.7z"/>
	<path d="M239,86.9c1.3,1.7,1.3,3.1,0.6,4.5c-0.2,0.4-0.7,0.8-1.1,0.8c-1.7,0.1-3.5,0.5-5-1.3c0.8-0.4,1.4-0.8,2.2-1.2
		c0.9,0.5,1.6,1,2.4,1.5C240.1,90.3,238.2,88.7,239,86.9z"/>
	<path d="M231.1,92c-1.4,0.3-2,0.5-2.5,0.5c-0.7,0.1-1.2-0.4-1.1-1c0.2-0.6,0.6-1.1,1.2-1C229.3,90.7,229.9,91.2,231.1,92z"/>
	<path d="M236.5,66.5c-0.6,1.1-1.2,2.2-2,3.6c0.3-3,0.3-3.1,1.7-4C236.2,66.1,236.3,66.3,236.5,66.5z"/>
	<path d="M255.4,56.8c1,0.9,1,1.8,0.8,3C255,59.1,255,59.1,255.4,56.8z"/>
	<path d="M214.8,75.5c1.7-0.6,3-0.7,4.7-0.1C217.8,76.4,216.5,76.2,214.8,75.5z"/>
	<path d="M246.6,74.3c-0.3,0.2-0.7,0.5-1,0.6c-0.3,0.1-0.6-0.1-1.7-0.3c1.3-0.4,1.9-0.6,2.5-0.7C246.5,74,246.6,74.1,246.6,74.3z"/>
	<path d="M224.1,71.1c1.4-0.1,1.3,0.8,1.5,1.3c0,0.1-0.2,0.4-0.3,0.4c-0.2,0-0.5-0.1-0.5-0.3C224.6,72.2,224.4,71.8,224.1,71.1z"/>
	<path d="M225.7,87c0.5,0.9,0.1,1.5-0.3,2c-0.1,0.1-0.3,0.2-0.5,0.3c-0.1-0.2-0.2-0.5-0.2-0.6C225,88.2,225.3,87.6,225.7,87z"/>
	<path d="M225.1,90.8c0.3,0.3,0.6,0.6,0.8,1c0.1,0.1,0,0.5-0.1,0.6c-0.1,0.1-0.4,0.1-0.5,0C224.9,91.9,224.5,91.5,225.1,90.8z"/>
	<path d="M233.9,88.3c-0.4,0.1-0.7,0.3-1.1,0.4c0-0.2-0.2-0.5-0.1-0.6c0.2-0.2,0.5-0.4,0.8-0.6C233.6,87.8,233.7,88,233.9,88.3z"/>
	<path d="M233.6,74.8c-0.2-0.7-0.3-0.9-0.3-1.2c0-0.2,0.2-0.4,0.3-0.6c0.1,0.2,0.2,0.4,0.2,0.6C233.8,73.9,233.7,74.1,233.6,74.8z"
		/>
	<path d="M208.5,39.8c-0.4,0.2-0.5,0.4-0.7,0.5c-0.1-0.3-0.3-0.5-0.4-0.8c0-0.1,0.2-0.2,0.2-0.2C207.8,39.4,208.1,39.6,208.5,39.8z"
		/>
	<path d="M205.5,48.1c-0.7-0.5-0.7-1,0-1.5C205.5,47.2,205.5,47.6,205.5,48.1z"/>
	<path d="M239.9,26c0-0.2,0-0.4,0.1-0.6c0-0.1,0-0.2,0.1-0.3c0.1,0.1,0.2,0.3,0.2,0.4C240.1,25.6,239.9,25.8,239.9,26L239.9,26z"/>
	<path d="M205.7,41.1c0.4,0.2,0.7,0.5,0.2,1.2C205.9,41.8,205.9,41.4,205.7,41.1L205.7,41.1z"/>
	<path d="M257.9,45.4c0,0.1-0.1,0.2-0.1,0.3C257.9,45.6,258,45.6,257.9,45.4L257.9,45.4z"/>
	<path d="M205.8,41c-0.1-0.1-0.3-0.1-0.4-0.2c0.1,0,0.1,0,0.2,0C205.7,41,205.7,41.1,205.8,41L205.8,41z"/>
	<path d="M335.7,256.2c0.5-0.1,0.8-0.3,0.9-0.2c1.5,0.7,7,4.9,7.9,5.8c-0.9,0.6-1.6,0-2.3-0.3C340,260.4,337.5,258.4,335.7,256.2z"
		/>
	<path d="M277.1,202.8c-1.1,0.5-2.1,0.1-3-0.5c-1.9-1.1-3.2-2.5-4.2-4.8c0.4,0,0.8-0.1,1,0c2.1,1.6,4.2,3.2,6.2,4.9
		C277.1,202.4,277,202.6,277.1,202.8z"/>
	<path d="M285.1,209.2c-0.7-0.3-1.3-0.6-1.9-1c-1.4-1-2.8-2.2-4.6-3.8c1,0,1.4-0.2,1.7,0c1.5,0.9,3.1,1.9,4.6,2.8
		C285.4,207.6,285.4,207.8,285.1,209.2z"/>
	<path d="M291.8,215c-1.7-1.1-3.5-1.8-4.1-4c1.4-0.8,2.2,0.1,2.9,0.8C291.3,212.7,292.4,213.4,291.8,215z"/>
	<path d="M265.2,192.9c-0.7,1.3-0.8,2.6-2.4,2.6C263.4,193.2,263.4,193.2,265.2,192.9z"/>
	<path d="M334.9,253.9c-0.7-0.4-1.3-0.8-2.1-1.3C333.9,252.4,333.9,252.4,334.9,253.9z"/>
	<path d="M328.2,251.1c0-0.1,0.1-0.1,0.1-0.2c0.1,0.1,0.1,0.2,0.2,0.3C328.4,251.1,328.3,251.1,328.2,251.1z"/>
	<path d="M213.1,165.3c-4.1,0.6-8,0.1-11.8-1.2c-0.5-0.2-1-0.6-1.5-0.9c-0.1-0.1-0.3-0.5-0.2-0.6c0.2-0.3,0.5-0.5,0.8-0.6
		c0.2-0.1,0.5,0,0.7,0c3.4,1.3,6.9,2,10.4,2.7C212.1,164.8,212.6,165.1,213.1,165.3z"/>
	<path d="M221,138.9c-0.5-0.5-1.2-0.9-1.3-1.5c-0.8-2.7-1.5-5.5-2.1-8.3c-0.1-0.6,0.1-1.2,0.7-1.5c0.2,0.1,0.6,0.1,0.6,0.2
		C219.8,131.5,220.9,135.2,221,138.9L221,138.9z"/>
	<path d="M250.7,130c0.3,3.1,0.2,5.7-2.1,8.3c0-3,0.7-5.3,1-7.7C249.7,130.4,250.1,130.3,250.7,130z"/>
	<path d="M224,145.1c1.1,0.8,1.5,1.6,1.3,3.1C224,147.3,223.6,146.5,224,145.1z"/>
	<path d="M220.9,139c1.7,0.4,1.7,1.6,1.4,3.1C221.3,141.2,221.4,139.9,220.9,139L220.9,139z"/>
	<path d="M247,142.8c0.1,0.1,0.2,0.3,0.4,0.4c-0.2,0.1-0.4,0.2-0.6,0.4c-0.1-0.1-0.2-0.2-0.2-0.3C246.8,143.1,246.9,143,247,142.8z"
		/>
	<path d="M290.1,158.1c0,2.7-0.2,4.6-0.7,6.4c0,0.1-0.1,0.2-0.2,0.3c-0.3,0.5-1.2,0.9-1.5,0.5c-0.3-0.3-0.5-0.9-0.5-1.2
		C287.7,162.2,288.4,160.4,290.1,158.1z"/>
	<path d="M307.7,164c0.5-2,1.6-2.8,2.7-3.7c0.8,0.2,1,0.7,0.7,1.3C310.5,162.8,309.7,163.7,307.7,164z"/>
	<path d="M292.4,155.5c-1.5,0.3-2.5,0.5-3.5,0.6c-0.1,0-0.2-0.1-0.3-0.2C289.7,154.2,290.2,154.2,292.4,155.5z"/>
	<path d="M298.7,190.4c0-1.5,0-2.5,0-3.6C299.7,188.1,299.7,188.1,298.7,190.4z"/>
	<path d="M302.2,164.4c0.2-1.1,0.9-1,2-0.8C303.6,164.5,302.9,164.6,302.2,164.4L302.2,164.4z"/>
	<path d="M301.5,193.3c-0.9-0.4-1-1-0.9-1.6c0-0.1,0.2-0.2,0.3-0.2c0.1,0,0.3,0,0.3,0C301.3,192.1,301.4,192.6,301.5,193.3z"/>
	<path d="M298.2,165.5c-0.2-0.3-0.3-0.4-0.4-0.6c0.3-0.1,0.5-0.3,0.8-0.4c0,0,0.2,0.1,0.3,0.2C298.7,165,298.5,165.2,298.2,165.5z"
		/>
	<path d="M302.2,164.4c0,0.1-0.1,0.2-0.1,0.2C302.1,164.6,302.2,164.5,302.2,164.4L302.2,164.4z"/>
	<path d="M300.8,545.8c-0.9,0.3-1.6,0.6-2.2,0.6c-1.2-0.1-2.4-0.4-3.5-0.7c-3.1-0.9-6.4-1.3-9.6-1.5c-2.4-0.2-4.8-0.3-7.1,0.6
		c-1.2,0.5-2.2-0.1-2.5-1.3c-0.3-1,0.4-2.1,1.6-2.4c0.6-0.2,1.2-0.3,1.8-0.3c6.1-0.2,12,0.5,17.8,2.4
		C298.3,543.6,299.8,543.8,300.8,545.8z"/>
	<path d="M297.3,550.9c-0.9,0-1.6,0-2.3,0c-3.8-0.2-7.7-0.5-11.5-0.6c-1.5,0-3.1,0.3-4.6,0.5c-0.5,0.1-0.9,0.2-1.4,0.2
		c-0.9,0-1.6-0.6-1.9-1.4c-0.2-0.8,0-1.5,0.6-1.9c0.6-0.4,1.2-0.7,1.9-0.9c0.4-0.1,1-0.1,1.4-0.1c4.7,0,9.4,0.5,14,1.4
		c1.1,0.2,2.1,0.6,3.1,1C297.2,549.3,297.5,549.8,297.3,550.9z"/>
	<path d="M285.9,557.2c-1.3,0-3.1,0-4.9,0c-0.8,0-1.7-0.1-2.5-0.2c-0.8-0.1-1.2-0.7-1.4-1.5c-0.1-0.7,0.5-1.7,1.3-2
		c0.3-0.1,0.7-0.2,1.1-0.2c4-0.1,8,0.1,11.9,1c0.6,0.1,1.2,0.3,1.7,0.5c0.9,0.3,1.5,1.1,1.5,1.8c0,0.6-0.9,1.2-2,1.1
		C290.5,557.6,288.5,557.4,285.9,557.2z"/>
	<path d="M175.2,319c-1.5-0.3-2.6-1.1-3.5-2.3l-0.1,0.1c1.7-0.1,2.8,0.8,3.8,2L175.2,319z"/>
	<path d="M161.4,316.1c0.5,0.2,1,0.4,1.6,0.6l0.1-0.1C162.4,316.7,161.9,316.6,161.4,316.1L161.4,316.1z"/>
	<path d="M160.2,314.4c-0.5-0.2-1.1-0.3-1.6-0.5l0,0.1C159,314.1,159.6,314.3,160.2,314.4L160.2,314.4z"/>
	<path d="M163.6,317.5c0.6-0.1,1.2,0,1.5,0.6l0.1-0.1C164.6,318.2,164,318.1,163.6,317.5L163.6,317.5z"/>
	<path d="M171.6,316.7c-0.4-0.1-0.7-0.3-0.6-0.9l-0.1,0.1C171.2,316.2,171.4,316.5,171.6,316.7L171.6,316.7z"/>
	<path d="M163.7,317.4c-0.5-0.1-0.8-0.3-0.6-0.9l-0.1,0.1C163.2,316.9,163.4,317.2,163.7,317.4L163.7,317.4z"/>
	<polygon points="158.6,313.9 158.5,313.7 158.5,314 	"/>
	<path d="M160.8,315.1c-0.5,0-0.7-0.3-0.7-0.8l-0.1,0.1C160.3,314.7,160.5,315,160.8,315.1L160.8,315.1z"/>
	<path d="M161.5,316c-0.2-0.3-0.5-0.6-0.7-0.9l-0.1,0.1C161,315.5,161.2,315.8,161.5,316L161.5,316z"/>
	<polygon points="171.1,315.9 170.8,315.9 171,315.9 	"/>
	<path d="M255.1,341.7c3.1-0.4,6.2-0.4,9.2,0.1C261.3,342.2,258.2,342.3,255.1,341.7z"/>
	<path d="M240.6,17.2c0.1-0.2,0.3-0.3,0.4-0.5c0.1-0.1,0.2,0,0.3,0c-0.1,0.1-0.1,0.3-0.2,0.4c-0.2,0.1-0.4,0-0.6,0L240.6,17.2z"/>
	<path d="M239.8,17.9c0.2-0.2,0.5-0.5,0.7-0.7l-0.1-0.1C240.5,17.6,240.3,17.9,239.8,17.9L239.8,17.9z"/>
	<path d="M617.4,423c-0.9-1.2-1.1-2.3-1.1-3.5c-0.1-3-0.1-6-0.1-9.1c0-0.3,0.1-0.7,0.3-1c0.2-0.3,0.5-0.6,0.8-0.6
		c0.3,0,0.6,0.3,0.9,0.5c0.2,0.1,0.2,0.4,0.2,0.7c0,3.4,0,6.8-0.2,10.1C618.2,421,617.7,421.9,617.4,423z"/>
	<path d="M635.7,375.4c0.3,0.7,0.7,1.1,0.6,1.3c-1.5,3-3.7,5.2-7.1,5.9c-0.1,0-0.2-0.1-0.4-0.3c0.1-1.2,1.2-1.6,2-2.2
		c0.8-0.7,1.7-1.3,2.5-2.1C634,377.3,634.7,376.5,635.7,375.4z"/>
	<path d="M600.5,508.2c-0.5-0.7-0.3-1.4,0-2c1.1-3.1,4.3-8.6,6-10.4C605.9,498.4,604,502.3,600.5,508.2z"/>
	<path d="M638.1,375c-0.1-1.1-0.2-1.4-0.2-1.8c0.2-2.1,0.5-4.2,0.8-6.3c0.1-0.6,0.4-1.1,1.3-1C640.6,368.9,640.7,371.8,638.1,375z"
		/>
	<path d="M662.2,387.1c2.9-0.8,5.6-1.1,8.3-0.5c0.1,0,0.2,0.4,0.5,0.8c-2.6,0.7-5.2,0.3-7.7,0.3C663,387.6,662.6,387.3,662.2,387.1z
		"/>
	<path d="M651.3,394.3c-0.4-1.8-0.7-3.3,0.2-4.8c1.1,1.4,1.2,1.8,0.8,3.7C652.2,393.5,651.8,393.8,651.3,394.3z"/>
	<path d="M650.6,427.8c-0.5-2.8-0.7-5.6,0.1-8.3C651.3,422.2,651.1,425,650.6,427.8z"/>
	<path d="M612.7,448.4c-0.4-1.4-0.2-2.6,0.9-3.6C614.9,446.2,614.7,447.1,612.7,448.4z"/>
	<path d="M646.9,441.9c0-1.8,0-1.8,0.9-3.1C648.5,439.8,648.5,439.8,646.9,441.9z"/>
	<path d="M628.2,387.2c0.8,1.2,0.5,2.1-0.2,3.2C627.3,388.6,627.3,388.6,628.2,387.2z"/>
	<path d="M649.9,431.7c0,1-0.3,1.9-1,2.8c0.1-1,0.2-1.9,0.3-2.9C649.4,431.6,649.7,431.7,649.9,431.7z"/>
	<path d="M608.4,491.5c-0.3-1.5,0.3-2.3,1-3.3C609.8,489.6,609.2,490.4,608.4,491.5z"/>
	<path d="M645.7,446c0.5,1.1-0.2,1.6-0.8,2.2C644.4,447.1,645,446.6,645.7,446z"/>
	<path d="M611.8,482.1c0,0.8,0,1.5,0,2.3c-0.1,0-0.3,0-0.4,0c0-0.7-0.1-1.5-0.1-2.2C611.5,482.1,611.7,482.1,611.8,482.1z"/>
	<path d="M616,436.4c-0.9-1.1-0.2-1.5,0.5-2C617.2,435.4,616.9,435.9,616,436.4z"/>
	<path d="M615.7,441.2c-0.3,0.2-0.6,0.4-0.9,0.6c-0.1-0.2-0.2-0.4-0.2-0.6c0.1-0.6,0.6-1.1,0.8-0.8
		C615.5,440.5,615.5,440.8,615.7,441.2z"/>
	<path d="M612.8,477c0-0.5,0-1,0-1.7C613.4,476.1,613.4,476.1,612.8,477z"/>
	<path d="M654.9,385.4c0.2,0.1,0.4,0.2,0.5,0.3c0.1,0.1-0.1,0.5-0.2,0.5c-0.2,0-0.5-0.1-0.5-0.2
		C654.7,385.8,654.9,385.6,654.9,385.4z"/>
	<path d="M617.3,428.1c0.1,1.1,0.1,1.4,0.2,1.7c-0.1,0-0.3,0-0.4,0C617.1,429.5,617.1,429.2,617.3,428.1z"/>
	<path d="M643.8,452.4c0.2,0.2,0.3,0.4,0.4,0.5c-0.2,0.2-0.5,0.4-0.7,0.6c-0.1-0.1-0.2-0.2-0.2-0.3
		C643.4,452.9,643.6,452.7,643.8,452.4z"/>
	<path d="M683.1,510.4c0.7-0.6,1.4-1.3,2.1-1.9c2.7-2.5,4.5-5.3,4.4-9.1c0-0.7-0.1-1.5,0.7-1.9c1.4,1.4,1.7,3.2,0.9,5.8
		c-0.7,2.2-1.9,4.2-3.7,5.7C686.3,510,685,510.8,683.1,510.4z"/>
	<path d="M726.1,472.7c1.3,0.6,1.5,1.5,1.6,2.3c0,1.8-0.4,3.6-1.5,5.1c-0.8,1.2-1.7,2.3-3.4,2.7c0-0.5-0.2-0.8,0-1.1
		c1.2-2.4,2.3-4.7,2.4-7.5C725.2,473.8,725.8,473.3,726.1,472.7z"/>
	<path d="M754.9,465.6c2.2-1.4,4.5-1.9,6.9-1.6c0.4,0.1,0.8,0.6,0.9,0.9c0.2,0.6-0.1,1.2-0.7,1.4c-0.6,0.2-1.2,0.3-1.8,0.3
		C758.1,466.8,757.5,466.7,754.9,465.6z"/>
	<path d="M710.1,494.7c0.5-1.2,1.1-2.3,3-2.4C712.4,493.7,711.6,494.6,710.1,494.7z"/>
	<path d="M696.8,489.2c1.5,0.7,1.5,0.7,1.1,3.6C696.5,491.8,696.4,490.6,696.8,489.2z"/>
	<path d="M718.1,489.1c0.3-1.9,0.1-3,1.6-3.4C720.5,487.1,719.7,487.9,718.1,489.1z"/>
	<path d="M747.9,466.6c-0.3,0.1-0.7,0.3-1,0.2c-0.3,0-0.5-0.4-0.7-0.5c0.2-0.2,0.4-0.6,0.7-0.7c0.5-0.2,0.9,0.1,1.1,0.6
		C747.9,466.3,747.9,466.4,747.9,466.6z"/>
	<path d="M679.4,512.9c-0.7,0.1-1.2,0.3-1.5,0.2c-0.2,0-0.2-0.5-0.4-0.8c0.3-0.1,0.6-0.3,0.9-0.3C678.7,512,678.9,512.4,679.4,512.9
		z"/>
	<path d="M672.2,511.1c0.6,0,1.2,0,1.8,0C673.1,512.5,673,512.5,672.2,511.1z"/>
	<path d="M752,466.1c0.2,0.4,0.4,0.6,0.5,0.9c0,0.1-0.3,0.4-0.5,0.3c-0.3-0.1-0.5-0.3-0.7-0.5C751.5,466.7,751.6,466.4,752,466.1z"
		/>
	<polygon points="716.3,490 716.4,489.8 716.2,489.9 	"/>
	<polygon points="716.2,489.9 716.2,490.1 716.3,490 	"/>
	<path d="M659.3,315.2c1-2,2.2-3,4.3-2.9c1.1,0.1,2.1,0,3.2,0.1c0.8,0,1.4,0.3,1.6,1.1c0.2,0.7-0.7,1.3-1.8,1.3
		c-1.2,0-2.4-0.2-3.6-0.1C661.8,314.7,660.7,315,659.3,315.2z"/>
	<path d="M694.3,274.9c0.3,3.3-1,6.6-3.6,9.5c-0.1-0.1-0.2-0.2-0.2-0.2c0-0.1-0.1-0.2,0-0.3C691.7,280.9,693,278,694.3,274.9z"/>
	<path d="M660.9,305.9c-1.1-2.6-2-4.9-1.9-8.2c1.9,2.7,2.3,5.1,2.8,7.4C661.7,305.3,661.4,305.4,660.9,305.9z"/>
	<path d="M692,301c0.8,1.6,0.7,3.1-0.1,4.9c-1.5-1.1-1-2.6-1.1-3.9C690.8,301.6,690.9,301.5,692,301z"/>
	<path d="M692.6,310.5c0,0.2-0.1,0.7-0.3,1.1c-0.1,0.3-0.5,0.4-0.8,0.5c-0.2,0-0.5-0.1-0.6-0.3c-0.2-0.6-0.5-1.3-0.5-2
		c0-0.6,0.4-1.2,1.1-1.2c0.7,0,0.9,0.6,1,1.2C692.6,310,692.5,310.2,692.6,310.5z"/>
	<path d="M690.4,288.3c0.9,1.4,0.8,2.5,0.1,3.8c-1.4-0.7-1.1-1.8-1-2.8C689.6,289,690,288.7,690.4,288.3z"/>
	<path d="M629.5,299.9c-0.1-0.9-0.1-1.8-0.2-2.8C630.5,298,629.8,299,629.5,299.9z"/>
	<path d="M669.5,312.7c0.9-0.6,1.6-0.3,2,0.6C670.5,313.8,670.5,313.8,669.5,312.7z"/>
	<path d="M658.9,292.3c-1.1-0.4-1.3-1.1-1.1-2C659,290.7,659,291.4,658.9,292.3z"/>
	<path d="M690.9,296.3c-0.3,0.1-0.6,0.3-0.6,0.3c-0.2-0.3-0.3-0.5-0.5-0.8c0.3-0.2,0.5-0.3,0.8-0.5
		C690.7,295.7,690.8,296,690.9,296.3z"/>
	<polygon points="656.5,285.3 656.4,285.1 656.6,285.1 	"/>
	<path d="M640.5,67.6c-1.2,0.9-2,1.5-2.9,2.1c-1-0.1-1.9-0.3-2.3-1.4c1.5-0.9,3.1-1.8,4.9-2.9c-2.1-0.6-3.4,1-5.1,1
		c-0.4-0.6,0.1-1,0.5-1.1c1.3-0.5,2.7-1.1,4.1-1.4c4-0.9,7.3,0.7,10.1,3.5c0.8,0.8,0.7,1.2-0.4,2.6c-0.6-0.3-1.1-0.7-1.7-1.1
		c-0.2,0.1-0.5,0.1-0.6,0.2c-1,1.3-2.2,1.8-3.8,1.1c-0.3-0.1-0.7-0.2-1.1-0.3C641.7,69.3,641.2,68.6,640.5,67.6z"/>
	<path d="M664,68.5c1.8-1.3,3.2-2.4,4-4.1c0.4-0.9,1.3-1.4,2.3-1.5c3.5-0.2,7,0.1,10.1,2c0.1,0,0.1,0.2,0.2,0.6
		c-2.3,0-4.3-1.7-7-0.9c2.5,1.1,4.7,2.1,6.8,3c0,1.1-0.7,1.1-1.2,0.9c-1.3-0.4-2.5-0.8-3.9-1.3c-0.6,0.7-1.3,1.3-1.8,2
		c-3.1,0.2-3.1,0.2-5.3-1.5c-1,0.5-1.5,2-3,1.7C664.9,69.3,664.6,69,664,68.5z"/>
	<path d="M671.3,98.9c-0.8,1.1-2.1,1-3.3,1c-1.4,0.1-2.9-0.1-4.3,0c-3.7,0.1-7.4,0.2-11.2,0.2c-1,0-1.9-0.1-2.9-0.2
		c-0.6-0.1-1.1-0.3-1.6-0.4c-0.2-0.8,0.2-1.1,0.7-1.1c1.7,0,3.4-0.2,4.9-1c2.2-1.2,4.6-1.1,7-0.7c1.7,0.3,3.3,0.6,4.9,1
		c1.5,0.4,3,0.7,4.6,0.1C670.7,97.7,671.3,98.1,671.3,98.9z"/>
	<path d="M668.2,102.7c-1.4,2.3-3,3.3-5.2,3.8c-3,0.6-5.9,0.9-8.7-0.7c-0.8-0.5-1.8-0.5-2.7-0.8c-0.4-0.1-0.7-0.5-1.5-1
		c0.8-0.2,1.3-0.5,1.6-0.4c4,1.5,8,1.1,12,0.6c0.8-0.1,1.5-0.7,2.3-0.9C666.5,103,667.2,102.9,668.2,102.7z"/>
	<path d="M682.6,58.7c-0.6,0.1-0.7,0.2-0.8,0.2c-5.6-1.3-11-0.3-16.4,0.8c-1.2,0.3-2.5,0.9-3.7,0.4c-0.4-0.7-0.1-1.1,0.3-1.3
		c1.6-1,3.4-1.4,5.2-1.5c3.5-0.2,7-0.2,10.5-0.2C679.2,57.1,680.8,57.5,682.6,58.7z"/>
	<path d="M634.5,59c0.3-0.4,0.4-0.8,0.6-0.9c5.4-1.9,10.7-1.3,15.7,1.3c0.3,0.2,0.6,0.5,0.7,0.8c0.1,0.2,0.1,0.4,0.1,0.9
		c-0.5-0.1-0.9,0-1.3-0.2c-3.1-1.5-6.4-2.1-9.8-2.3c-1.7-0.1-3.4-0.3-5,0.5C635.4,59.2,634.9,59,634.5,59z"/>
	<path d="M677.8,28c0.8-0.2,0.7-0.9,0.7-1.5c0.4-0.1,0.9-0.1,1.4-0.2c0.5,0.6,0.1,1.1-0.1,1.7c-0.2,0.6-0.4,1.1,0,1.7
		c0.8,1.2,0.2,2.3-0.6,3.4c-0.8-0.2-1.7-0.4-2.5-0.7C676.4,30.8,678.2,29.7,677.8,28z"/>
	<path d="M665.4,87.7c0.7-1.5,0.7-1.5,0.5-3.8c0.6-0.4,0.9,0.1,1,0.5c0.9,3.5-0.5,5-4,4.3c-0.8-0.1-1.4-0.6-2.3-1
		C662.6,86,662.6,86,665.4,87.7z"/>
	<path d="M658.2,88.4c-1.3,0.3-1.9,0.5-2.4,0.5c-0.4,0-0.8-0.3-1.1-0.6c-0.1-0.2,0-0.7,0.2-0.9c0.3-0.2,0.9-0.5,1.2-0.4
		C656.7,87.2,657.1,87.6,658.2,88.4z"/>
	<path d="M661.9,66.2c-0.2-1.5,0.2-2.7,1.3-4c0.1,0.4,0.3,0.7,0.3,0.9C663,64.2,662.4,65.2,661.9,66.2z"/>
	<path d="M683.3,56.2c-0.4-0.1-0.7-0.1-0.8-0.2c-0.5-0.9-0.5-1.8,0-2.7c0.7,0.3,0.8,0.9,0.9,1.5C683.5,55.2,683.4,55.7,683.3,56.2z"
		/>
	<path d="M641.9,71.9c1.8-0.6,3.1-0.8,4.7-0.1C645,72.8,643.7,72.6,641.9,71.9z"/>
	<path d="M673.8,70.5c-0.4,0.8-1,0.8-2,0.6C672.4,70.4,672.9,69.9,673.8,70.5z"/>
	<path d="M652,85.9c-0.4-1.2,0.5-1.7,0.9-2.6C653.3,84.5,652.8,85.2,652,85.9z"/>
	<path d="M652.6,69.2c-0.1,0-0.2,0-0.3,0c-0.6-0.4-0.9-1.3-0.6-1.7c0.1-0.1,0.2-0.1,0.3-0.1c0.5,0.1,1,0.9,0.9,1.6
		C652.8,69.1,652.7,69.1,652.6,69.2z"/>
	<path d="M653,89c-0.7-0.4-1.3-0.7-0.8-1.7C652.9,87.6,653.4,88,653,89z"/>
	<path d="M661,84.7c-0.1,0.1-0.3,0.3-0.5,0.4c-0.2,0.1-0.4-0.1-0.6-0.1c0.1-0.3,0.1-0.6,0.3-0.9c0.1-0.1,0.4-0.1,0.6,0
		C660.9,84.2,660.9,84.5,661,84.7z"/>
	<path d="M660.7,68.9c0.2,0.8,0.3,1.1,0.3,1.3c0,0.2-0.1,0.4-0.2,0.6c-0.1-0.2-0.2-0.4-0.2-0.6C660.5,70,660.5,69.8,660.7,68.9z"/>
	<path d="M634.9,35.6c0.2,0.3,0.3,0.6,0.5,0.9c-0.2,0-0.5,0.2-0.6,0.1c-0.2-0.1-0.2-0.4-0.3-0.6C634.5,35.9,634.7,35.7,634.9,35.6z"
		/>
	<path d="M632.7,44.5c-0.7-0.5-0.7-1,0-1.5C632.7,43.5,632.7,44,632.7,44.5z"/>
	<path d="M667,22.4c0-0.2,0-0.4,0.1-0.6c0-0.1,0-0.2,0.1-0.3c0.1,0.1,0.2,0.3,0.2,0.4C667.3,22,667.1,22.1,667,22.4L667,22.4z"/>
	<path d="M632.9,37.5c0.2,0.1,0.4,0.3,0.4,0.4c0.1,0.1,0,0.3-0.2,1.4C633,38.1,633,37.8,632.9,37.5L632.9,37.5z"/>
	<path d="M685.1,41.8c0,0.1-0.1,0.2-0.1,0.3C685.1,42,685.1,41.9,685.1,41.8L685.1,41.8z"/>
	<path d="M633,37.4c-0.1-0.1-0.3-0.1-0.4-0.2c0.1,0,0.1,0,0.2,0C632.8,37.3,632.9,37.4,633,37.4L633,37.4z"/>
	<path d="M645.2,166.6c0.5,1.8,0.1,3.5-0.1,5.3c-0.1,0.4-0.5,0.7-1,1.4C643.7,170.6,643.4,168.4,645.2,166.6L645.2,166.6z"/>
	<path d="M549.7,235.9c1-1.3,1.9-1.4,5.2-0.1C552.5,236.6,552.3,236.6,549.7,235.9z"/>
	<path d="M632.5,193.7c1.2-1.1,1.2-1.1,3.1,0.9C634.3,195.1,633.5,194.3,632.5,193.7z"/>
	<path d="M557.3,235c0.9-0.6,1.7-0.5,2.6,0.1C558.5,235.9,558.5,235.9,557.3,235z"/>
	<path d="M624.2,199.2c-0.1-1,0.5-1.4,1.3-1.8C625.4,198.5,625.4,198.5,624.2,199.2L624.2,199.2z"/>
	<path d="M609,208.5c0.3-0.4,0.6-0.8,1-1.3C610.7,208.3,609.7,208.5,609,208.5z"/>
	<path d="M563.7,233.5c-0.1-0.2-0.2-0.4-0.2-0.6c0.2-0.1,0.4-0.2,0.6-0.2c0.1,0,0.1,0.3,0.2,0.5
		C564.1,233.4,563.9,233.5,563.7,233.5z"/>
	<path d="M618,205c-0.3,0.1-0.5,0.1-0.8,0.2c0-0.2,0-0.5,0.1-0.6c0.1-0.1,0.4-0.2,0.6-0.2C617.9,204.6,618,204.7,618,205z"/>
	<path d="M645.3,166.7c0.3-0.5,0-1.5,1.2-1.3C646.4,166.2,645.6,166.3,645.3,166.7L645.3,166.7z"/>
	<path d="M568.9,231.6c0-0.1,0.1-0.2,0.1-0.2c0.1,0,0.2,0,0.3,0.1c0,0.1-0.1,0.2-0.1,0.2C569.1,231.7,569,231.6,568.9,231.6z"/>
	<path d="M643.1,159.4c0.2-0.2,0.4-0.4,0.6-0.6c0,0,0.2,0.1,0.3,0.1c-0.1,0.1-0.1,0.4-0.3,0.4C643.5,159.3,643.2,159.3,643.1,159.4
		L643.1,159.4z"/>
	<polygon points="628.5,200 628.4,200.1 628.6,200.1 	"/>
	<path d="M623.4,199.9c-0.1,0.2-0.2,0.3-0.3,0.5C622.8,199.9,623.3,200,623.4,199.9L623.4,199.9z"/>
	<path d="M628.6,200.1c0.1-0.1,0.1-0.3,0.2-0.4c0,0,0,0.1-0.1,0.1C628.7,199.9,628.6,199.9,628.6,200.1L628.6,200.1z"/>
	<path d="M623.5,200c-0.1-0.5,0.1-0.8,0.7-0.8l0,0C624.2,199.7,623.9,200,623.5,200L623.5,200z"/>
	<path d="M750.9,257.4c2.5,2,5,4,7.5,6c0.1,0.1,0.1,0.4,0.1,0.8c-1.7,0-2.9-1-4.1-2c-1.5-1.3-3.3-2.3-4.1-4.2
		C750.5,257.8,750.7,257.6,750.9,257.4z"/>
	<path d="M696,199.8c-0.5,0.3-0.7,0.5-0.8,0.5c-2.6-0.6-4.4-2.2-5.6-4.6c-0.1-0.2,0.3-0.6,0.4-0.8c0.3,0.1,0.6,0.1,0.8,0.2
		C692.4,196.6,694.1,198.1,696,199.8z"/>
	<path d="M697.8,201.7c2.2,1.3,5,1.9,5.9,4.7c0,0.1-0.3,0.3-0.6,0.6C700.9,205.7,699.1,204,697.8,201.7z"/>
	<path d="M709.7,213.6c-1.8-1.5-3.5-2.5-4.2-4.7c0.6,0,1.2-0.2,1.5-0.1C708.8,209.9,709.5,211.1,709.7,213.6z"/>
	<path d="M681.8,192.1c0.3-1.9,1-2.7,2.2-3.3C684.2,190.4,684.2,190.4,681.8,192.1z"/>
	<path d="M749.7,255c-1.3,0.3-1.8-0.6-2.8-1.6C748.5,253.4,749.2,254,749.7,255L749.7,255z"/>
	<path d="M729.3,210.8c1.1,0,1.8,0.6,2.3,1.6C730.7,212,729.7,211.8,729.3,210.8z"/>
	<path d="M743.2,251.9c-0.1,0-0.2,0.1-0.3,0.1c0,0-0.1-0.1-0.1-0.2c0.1,0,0.2-0.1,0.3,0C743.1,251.7,743.1,251.8,743.2,251.9z"/>
	<path d="M731.4,212.2c0.6,0.1,1.3,0,1.6,0.8C732.5,212.8,732,212.5,731.4,212.2z"/>
	<path d="M749.7,255c0.1,0.1,0.2,0.1,0.3,0.2C749.9,255.2,749.8,255.1,749.7,255L749.7,255z"/>
	<path d="M732,188.6c-0.4,0.1-0.7,0.3-0.8,0.2c-2.4-1.8-3.8-4.3-4.6-7.1c-0.1-0.3,0.1-0.8,0.3-1c0.2-0.1,0.8-0.1,0.9,0.1
		C729.3,183.3,730.9,185.8,732,188.6z"/>
	<path d="M718.8,156.1c0.3-0.6,0.4-1,0.7-1.2c1.7-1,3.4-1.9,5.1-2.7c0.3-0.1,0.7-0.1,1.1-0.1c0.3,0.1,0.6,0.4,0.8,0.6
		c0.1,0.1,0,0.5-0.1,0.6C724.1,154.9,722.1,156.6,718.8,156.1z"/>
	<path d="M711,156.3c2.6-1.4,2.6-1.4,4.5-0.8c-0.2,0.3-0.4,0.7-0.7,0.7C713.8,156.3,712.7,156.3,711,156.3z"/>
	<path d="M737.6,190.8c0.3,0.4,0.6,0.7,0.6,0.9c0,0.2-0.3,0.5-0.4,0.7c-0.2-0.2-0.6-0.4-0.6-0.7C737,191.6,737.3,191.3,737.6,190.8z
		"/>
	<path d="M740.4,195.7c-0.2-0.4-0.4-0.8-0.5-1.1c0.2-0.1,0.5-0.3,0.6-0.2C740.9,194.7,741,195.1,740.4,195.7z"/>
	<path d="M675.8,134.8c0.1-1.3,0-2.6,0.2-3.9c0.4-2.2,0.8-4.5,1.3-6.7c0.1-0.4,0.4-0.8,0.8-1.5c0.4,0.7,1,1.2,1,1.6
		c-0.6,3.6-0.9,7.4-3.4,10.5L675.8,134.8z"/>
	<path d="M630.3,155.8c2.2,0,4.4,0,6.5,0C634.1,158.7,632.3,158.8,630.3,155.8z"/>
	<path d="M646.2,125.3c0.4,0.3,0.9,0.5,0.9,0.8c0.4,2,0.7,4,0.9,6c0,0.3-0.2,0.6-0.4,1.2C645.8,130.7,645.5,128.2,646.2,125.3z"/>
	<path d="M671.3,143.4c-0.4-1.3,0.2-2,1-2.7C672.8,141.9,672.8,141.9,671.3,143.4z"/>
	<path d="M675.7,134.7c-0.4,0.8-0.7,1.7-1.3,2.8c-0.1-0.7-0.2-1.1-0.2-1.4c0-0.3,0.2-0.7,0.2-0.9c0.4-0.6,1-0.3,1.4-0.4L675.7,134.7
		z"/>
	<path d="M650,138.2c-0.1,0.2-0.1,0.4-0.2,0.6c-0.2-0.1-0.5-0.2-0.5-0.3c-0.1-0.1,0.1-0.4,0.2-0.5C649.6,138,649.8,138.1,650,138.2z
		"/>
	<path d="M607,154.2c1.4,1.6,2,3.5,2.4,5.5c0.1,0.3-0.3,0.8-0.5,0.9c-0.4,0.1-1,0-1.3-0.2c-0.3-0.3-0.6-0.8-0.7-1.2
		c-0.2-1.4-0.4-2.8-0.5-4.3C606.4,154.7,606.7,154.5,607,154.2z"/>
	<path d="M586.1,155.5c1.4,1.1,2.4,2,2.8,3.6C586,158.5,585.2,157.5,586.1,155.5z"/>
	<path d="M604.8,150.8c2-1.1,2-1.1,3.5,0.6C606.9,151.5,605.9,150.9,604.8,150.8z"/>
	<path d="M596.4,194.2c-0.2-0.3-0.5-0.5-0.6-0.8c-0.2-0.8,0.2-1.4,0.8-1.8c0.3-0.2,0.7-0.3,1-0.2c0.5,0.2,0.5,0.7,0.2,1.2
		C597.5,193.2,597.3,193.9,596.4,194.2z"/>
	<path d="M594.6,160c-0.7-0.3-1.4-0.5-2.4-0.9C593.5,158.3,594.1,159.3,594.6,160z"/>
	<path d="M597.7,159.8c0.3-0.1,0.6-0.2,0.7-0.2c0.2,0.2,0.3,0.5,0.4,0.8c-0.2,0-0.4,0.2-0.5,0.1C598,160.3,597.8,160.1,597.7,159.8z
		"/>
	<polygon points="599.2,188.6 599.3,188.8 599.1,188.8 	"/>
	<path d="M596.1,541.2c0.2-1.5,1-1.8,1.8-2.1c2.9-1.3,5.9-2,9-2.5c3-0.5,6-0.6,9-0.8c1.1-0.1,2.2,0.1,3.2,0.4
		c1.5,0.4,2.1,1.4,1.7,2.6c-0.4,1.1-1.3,1.6-2.6,1.1c-1.6-0.7-3.3-0.6-5-0.6c-4.1,0-8.1,0.8-12.1,1.7c-1.1,0.2-2.1,0.5-3.2,0.6
		C597.4,541.7,596.8,541.4,596.1,541.2z"/>
	<path d="M599.6,546.2c-0.5-0.4-0.6-1,0-1.4c0.7-0.5,1.4-0.9,2.2-1c2.6-0.5,5.2-1,7.8-1.3c2.5-0.3,5-0.3,7.6-0.3
		c0.8,0,1.7,0.1,2.5,0.3c0.9,0.3,1.6,1.4,1.4,2.3c-0.2,1-1.3,1.9-2.5,1.6c-2.1-0.6-4.3-0.6-6.4-0.6C608,545.8,603.8,546,599.6,546.2
		z"/>
	<path d="M612.9,552.3c-2.3,0.2-4.5,0.4-6.8,0.6c-0.8,0.1-1.7,0.2-2.5,0.2c-0.8,0-1.6-0.6-1.6-1.2c0-0.8,0.4-1.4,1.1-1.7
		c0.4-0.2,0.9-0.4,1.3-0.5c4.3-1.2,8.8-1.1,13.2-1c1.1,0,1.9,1,1.9,1.8c0,0.9-0.9,1.8-1.9,1.8c-1.6,0.1-3.1,0-4.7,0
		C612.9,552.3,612.9,552.3,612.9,552.3z"/>
	<path d="M734.3,311.6c-0.4,1-1.1,1.6-2.2,1.4l0.1,0.1C733,312.6,733.7,312.1,734.3,311.6L734.3,311.6z"/>
	<path d="M724.3,312.4c0.5-0.4,0.9-0.9,1.6-1.5C725.7,312.2,725,312.3,724.3,312.4L724.3,312.4z"/>
	<path d="M734.4,311.6c0.6-0.8,1.3-1.3,2.3-1.3l-0.1-0.1C736,310.9,735.4,311.6,734.4,311.6L734.4,311.6z"/>
	<polygon points="738.1,308.7 738.2,308.6 738,308.6 	"/>
	<path d="M738,308.6c-0.2,0.3-0.5,0.5-0.7,0.8l0.1,0.1C737.6,309.2,737.9,309,738,308.6L738,308.6z"/>
	<path d="M736.7,310.3c0.2-0.3,0.5-0.5,0.7-0.8l-0.1-0.1C737.1,309.7,736.8,309.9,736.7,310.3L736.7,310.3z"/>
	<path d="M640.9,337.5c-3.4,0-6.7,0-10.1,0C634.2,337.2,637.5,336,640.9,337.5z"/>
	<path d="M630.9,351.4c-0.7,0-1.4-0.1-2.1-0.1c0-0.1,0-0.1,0-0.2C629.5,351.2,630.1,351.3,630.9,351.4L630.9,351.4z"/>
	<path d="M667.7,13.6c0.1-0.2,0.3-0.3,0.4-0.5c0.1-0.1,0.2,0,0.3,0c-0.1,0.1-0.1,0.3-0.2,0.4c-0.2,0.1-0.4,0-0.6,0L667.7,13.6z"/>
	<path d="M667,14.3c0.2-0.2,0.5-0.5,0.7-0.7l-0.1-0.1C667.7,14,667.5,14.3,667,14.3L667,14.3z"/>
</g>
</svg>
