<?xml version="1.0" encoding="utf-8"?>
<!-- Generator: Adobe Illustrator 19.2.0, SVG Export Plug-In . SVG Version: 6.00 Build 0)  -->
<svg version="1.1" id="Layer_2" xmlns="http://www.w3.org/2000/svg" xmlns:xlink="http://www.w3.org/1999/xlink" x="0px" y="0px"
	 viewBox="0 0 900 600" style="enable-background:new 0 0 900 600;" xml:space="preserve">
<g>
	<path d="M559.4,232.2c1,2.1,2.9,2.6,4.9,2.9c1,0.1,2,0.1,3,0.3c0.9,0.2,1.5,0.9,1.7,1.8c0.2,0.7-0.3,1.8-1.1,2.2
		c-0.8,0.4-1.7,0.9-2.5,0.8c-5.5-0.6-10.1-2.7-13-7.8c-0.2-0.4-0.5-0.9-0.6-1.4c-0.1-0.6,0-1.3,0.2-1.8c0.3-0.8,1.2-0.8,2-0.8
		c0.1,0,0.1,0.1,0.2,0.1c-0.1,0-0.2,0-0.3,0c-0.1-0.4,0-1-0.2-1.3c-1.2-1.8-2.4-3.5-3.8-5.4c-0.5,0.5-1.1,0.9-1.6,1.4
		c-2.6,3.2-4.7,6.8-6.6,10.5c-1.2,2.4-1.7,5-1.8,7.7c-0.4,7.6,0.7,15,2.6,22.4c0.4,1.5,1.1,2.5,2.3,3.2c2.5,1.5,5.2,2.6,8.2,1.7
		c0.8-0.3,1.7-0.3,3-0.5c2.5-2.6,5.3-5.3,7.8-8.3c1.8-2.1,3.5-4.3,5.2-6.5c0.6-0.8,1-1.7,1.4-2.6c0.6-1.4,0.9-2.8,2.1-3.9
		c0.5-0.4,0.6-1.3,0.7-2c0.2-1.4,1.1-2.4,1.8-3.5c0.2,5.3-1.9,9.8-4.4,14.2c-0.5,0.9-1.1,1.7-1.5,2.6c-2.2,4.9-5.8,8.4-10.2,11.3
		c-1.3,0.8-2.6,1.3-4.2,1.4c-1.5,0-2.9,0.6-4.4,0.8c-1.6,0.2-3.3,0.4-4.9,0.4c-2.6-0.1-4.5-1.5-5.4-4c0-0.1-0.1-0.2-0.1-0.4
		c-0.8-5-3.2-9.5-3.6-14.6c-0.4-4.5-0.4-9.1,0.7-13.5c0.8-3.1,2.3-6.1,3.8-9c2-3.8,4.4-7.3,7.3-10.5c0.3-0.4,0.6-0.8,0.9-1.3
		c-0.7-2.4-1.4-4.8-2.2-7.2c-0.9-2.8-1.2-5.7-1-8.6c0.1-1.3,0.1-2.5,0.8-3.6c0.3-0.5,0.4-1.2,0.6-1.8c1.7-8.8,4.8-17.2,9.7-24.8
		c0.3-0.5,0.6-1.1,1-2c-0.4-1.1-0.9-2.4-1.3-3.7c-2.8-7.6-3.4-15.4-1.7-23.4c0.9-4.2,2.9-8,5-11.8c1.3-2.3,2.6-4.6,3.8-6.9
		c0.5-0.9,0.6-2,1.1-2.9c0.4-0.9,1.1-1.7,1.6-2.6c0.3-0.7,0.6-1.4,0.7-2.1c0.9-5.4,2.9-10.4,5.2-15.3c2-4.4,4.7-8.3,8.5-11.5
		c0.2-1.2,0.5-2.5,0.7-3.7c0.4-1.7,0.6-3.4,1.9-4.8c0.6-0.6,0.7-1.6,1-2.4c0.7-1.8,1.3-3.6,1.9-5.3c0.3-0.7,0.5-1.5,1.1-2
		c1.8-1.4,2.3-3.5,3.1-5.5c2.2-5.5,4.8-10.8,8.5-15.5c0.7-1,1.7-1.8,2.7-2.8c0.4-3,0.4-3,3-4.9c1.4-1,2.9-1.9,4.4-2.9
		c1.7-1.1,3.4-2.2,4.7-3.8c0.8-0.9,1.9-1.6,3.1-2.4c0.2-1,0.3-2.1,0.5-3.2c1.7-10.3,7.3-18,16-23.6c4-2.5,8.5-3.8,13.2-4
		c2.4-0.1,4.8-0.1,7.2,0c6.9,0.3,12.6,3.2,17.6,7.7c0.4,0.4,0.6,1.1,0.9,1.6c-0.3-0.2-0.7-0.3-1-0.5c-8.1-6.1-17.3-7.5-27.1-6
		c-5,0.7-5.1,0.9-8.4,4.2c-0.1-0.3-0.2-0.7-0.2-1c-0.3,0-0.6,0-0.7,0.1c-7.5,4.4-12.3,10.9-14.7,19.2c-0.3,1.2-0.7,2.6-0.4,3.7
		c0.5,1.8,0.6,3.4-0.2,5.1c-0.3,0.5-0.1,1.2-0.1,1.9c-0.2,3.2,0.4,6.3,0.9,9.4c0.5,2.5,1.4,4.8,2.8,7c1.4,2.2,1.8,2.4,5.2,2.4
		c-0.5-0.9-0.9-1.8-1.3-2.7c-1.2-2.5-2-5.2-2.2-7.9c-0.4-5.9,0-11.8,1.7-17.5c1.5-4.9,3.5-9.7,5.9-14.3c0.3-0.6,0.5-1.4,1.4-1.6
		c-0.4,1.2-0.8,2.4-1.3,3.5c-1.8,3.9-3.3,7.9-4.4,12c-0.3,1-0.4,2,0.5,2.8l-0.1-0.1c0,3.3,0,6.5,0,9.8l0.1-0.1
		c-0.8-0.4-0.7-1.3-0.7-2c-0.1-2-0.1-4-0.5-6.5c-0.7,4.7-0.8,8.8-0.6,13c0.3,4.4,1.9,8.3,4.3,11.9c1.2,1.7,2.7,2.1,4.6,1.7
		c0.6-0.1,1.2-0.4,1.8-0.7c1.9-1.1,3.8-0.9,5.8-0.3c2.8,1,5.7,2,8.6,3c0.6,0.2,1.2,0.5,1.8,0.1c0-0.2,0-0.5-0.1-0.7
		c-1.8-4.6-3.5-9.1-5.3-13.7c-0.1-0.3-0.1-0.7-0.1-1.1l-0.1,0.1c0.6,0.5,1.2,1,2,1.7c0.1-1.6,0.1-3,0.2-4.4c0.1-2.1,0.1-2.1,1.1-3.9
		c0,2.2,0,4.2,0,6.2c-0.2,6.8,3.1,12,7.7,16.6c0.3,0.3,0.6,0.5,0.9,0.7c3.1,1.4,6.3,2.4,10.2,1.8c-0.7-0.6-1.1-1.1-1.5-1.4
		c-3.7-2.8-6.3-6.4-8.2-10.6c-1.7-3.7-2.5-7.6-2.8-11.7c-0.4-5.2,0.1-10.3,1.4-15.3c0.2-0.9,0.3-2,1.4-2.4l-0.1-0.1
		c-0.1,0.6,0,1.3-0.2,1.8c-1.6,5.2-1.6,10.6-1.1,15.9c0.4,4.3,1.8,8.3,3.9,12c0.3,0.5,0.5,1.2,1.3,1.1c-0.1,0.6,0,1.2,0.6,1.6
		c0.1,0.1,0.1,0.1,0.2,0.2c-0.1,0-0.2-0.1-0.3-0.1c0-0.6,0-1.2-0.7-1.6c-0.1-0.4,0-0.8-0.2-1.1c-3.6-8.1-4-16.5-2.9-25.1
		c0.4-3.3,1.3-6.4,3.4-9.1c0.3-0.4,0.8-1.1,1.6-0.4c-1.9,2.6-2.6,5.6-2.9,8.8c-0.4,3.8-0.2,7.5,0,11.3c0.2,5.4,1.8,10.4,4.1,15.2
		c2,4,4.9,7.3,8.4,10c1.3,1,2.6,1.5,4.2,1.2c2-0.3,4-0.6,5.9-1c0.5-0.1,1-0.5,1.9-1c-2.5-1-4.7-1.6-6.6-2.8
		c-1.8-1.2-3.3-2.9-4.7-4.6c-1.4-1.7-2.8-3.6-3.8-5.6c-1.1-2-1.8-4.1-2.6-6.2c-0.8-2.2-0.9-4.4-0.7-6.7c0.1-2.2,0-4.5,1.6-6.4
		c-1.2,8.6,1.6,15.9,7.3,22.3c1-0.1,1.9-0.2,2.9-0.3c-0.5-2.4-1.9-3.7-3.9-4.6c0.6-0.4,1-0.7,1.1-0.8c-0.8-3-1.6-5.7-2.1-8.4
		c-0.8-4.7-1.5-9.4-2.1-14.1c-0.7-5.1-3.7-8.4-8-10.7c-0.7-0.4-1.7-0.5-2.5-0.6c-3.3-0.3-6.5,0.2-9.5,1.6c-1.1,0.5-2.3,0.9-3.4,1.4
		l0.1,0.1c0.1-0.2,0.1-0.5,0.3-0.6c2.4-1.6,5.1-2.8,8-3.2c1.3-0.2,2.7-0.3,4.6-1c-2.8-0.6-4.9-0.6-6.9-0.3
		c-6.3,0.9-11.7,3.2-13.8,9.5c-1.2,1-2.3,1.7-3.1,2.5c-3.5,3.4-5.3,7.6-5.5,12.5c-0.2,3-0.1,6,0,9.1c0.1,2.4,0.8,4.7,1.9,6.9
		c0.7,1.4,1.7,2.8,2.5,4.2c0.2,0.4,0.8,0.6,0.2,1.4c-0.6-0.2-1.3-0.3-1.9-0.7c-3.1-2.2-4.6-5.3-5.1-8.9c-0.7-5.3-0.4-10.5-0.3-15.8
		c0-0.9,0.3-1.9,0.5-3c0.5,0.6,0.7,1,1.1,1.4c1.8-4.1,4.5-7.4,8.1-9.7c1.4-5.4,5.1-8.3,9.9-10.1c2.8-1,5.6-1.3,8.5-1.3
		c3.5,0,6.6,1.3,9.3,3.7c1.3,1.2,2.5,2.5,3.7,3.8c0.4,0.4,0.8,0.6,1.3-0.2c-0.4-0.8-0.9-1.6-1.4-2.5c-0.4-0.7-0.2-1.4,0.1-2.1
		c4.4,4.2,5.1,9.4,4.4,15.1c0,0.4-0.1,0.8-0.2,1.1c-1,3.1-0.9,3.1-0.6,5.6c0.4,3.2,1.3,6.4,2.4,9.4c0.7,2,1.9,2.4,3.8,1.3
		c2.5-1.6,3.8-3.8,3.7-6.8c0.1-0.1,0.1-0.1,0.2-0.2c0,0.1-0.1,0.2-0.1,0.3c-1.8-0.3-3.3,0.7-4.9,1.6c-0.4-0.5-0.7-0.9-1.1-1.5
		c0.5-0.3,0.9-0.5,1.4-0.6c0.9-0.2,1.7-0.2,2.6-0.4c2-0.4,3.2-1.5,3.6-3.7c0.9-4.7,1.9-9.3,2.2-14.1c0.1-1.6,0.4-3.2,0.6-5
		c1,0.5,0.7,1.3,0.7,1.9c0.3,4.7-0.4,9.3-1,13.9c-0.5,3.6-1.3,7.1-2.4,10.6c-0.2,0.6-0.2,1.2-0.2,1.8l-0.2,0.1l0.1-0.2
		c3.7-3.9,5.6-8.5,6-13.8c0.1-1.4,0.1-2.7,0.2-4c0.9-0.1,1.2,0.3,1.2,0.8c0.7,8.2-2.2,15-7.9,20.7c-1.5,1.4-3.5,2.3-5.6,3.6
		c0.1,1.1,0.9,2,1.9,2.9c2.7,0,5-1.2,7.3-2.5c2.3-1.4,3.3-3.6,3.8-6c0.9,0,1.2,0.3,1.3,0.8c0.2,1.9-0.6,3.4-1.9,4.7
		c-1.5,1.6-3.3,2.7-5.3,3.5c-1,0.4-2.1,0.8-3,1.2c-0.2,1.1,0.6,1.4,1,1.9c0.6,0.6,1.3,1.1,2,1.7c0.6,0.5,1.2,0.9,2.2,1.7
		c-3.6,0-5.2-2.5-7.6-4c-0.2,0.5-0.5,1-0.5,1.4c0,0.4,0.3,1,0.7,1.2c2.3,1.8,4.8,3.2,7.5,4.1c4.5-1.2,5.7-2.1,8.4-6
		c0.1,1,0.3,1.9,0.4,2.7c0,0-0.1-0.1-0.1-0.1c1.8-0.8,2.4-2.4,3-4.2c-1.1-1.1-2.7-1.9-2.5-4c1.2-0.1,2.4,0.8,3.6,0.1
		c0.3-0.2,1,0.2,1.4,0.4c4.5,2.4,8.6,5.1,12.4,8.5c4.9,4.5,7.7,10.2,9.3,16.5c0.7,2.9,1.5,5.8,2.1,8.8c1.1,5,1.6,10.2,1.6,15.3
		c0.1,3.1,0.2,6.3-0.5,9.4c-0.1,0.4-0.2,0.7-0.4,1c-0.3,0.5-0.8,0.6-1.5,0.1c0-0.3-0.1-0.8-0.1-1.3c0.1-3,0.2-6,0.3-9
		c0.3-6.9-1.2-13.5-3.2-20c-0.8-2.4-1.5-4.8-2.3-7.2c-1.5-4.3-3.7-8.3-7-11.5c-0.6-0.6-1.4-1.2-2.2-1.3c-1.9-0.3-3.2-1.3-4.7-2.3
		c-1.2-0.8-2.5-1.7-3.9-2.7c-1,1.7-1.8,3.2-2.7,4.6c-0.9,1.3-1.9,2.6-3,3.8c-1.2,1.3-2.5,2.5-3.8,3.7c-1.2,1.1-2.6,2-4.1,3.1
		c0.4,0.6,0.8,1.3,1.2,1.8c1.1,1.2,2.2,2.4,3.3,3.6c2.9,3,5.5,6.2,7.1,10.1c0.3,0.8,0.9,1.5,1.5,2.1c0.7,0.7,1.4,1.4,2.2,2.1
		c2.7,2.6,5,5.6,6.5,9.1c0.4,1,1.1,1.7,2.3,1.6l-0.1-0.1c-0.2,0.4-0.5,0.9-0.8,1.4c1.5,2.1,3.6,3.5,5.9,4.6c2.8,1.3,5,3.3,7.3,5.2
		c0.8,0.7,1.6,1.7,2,2.7c0.7,2.2,2,4.1,3,6.1c1.8,3.8,2.6,7.9,3.1,12c0.6,5.6,1,11.3,0.3,16.9c-0.4,3.6,0.6,6.9,1.7,10.3
		c1.1,3.3,2.2,6.7,3.4,10c1.9,5.3,3.3,10.8,4,16.5c0.1,1,0.3,2.1,0,3c-0.5,1.8-0.4,3.5-0.3,5.2c0.3,7.2-0.2,14.3-0.7,21.5
		c-0.4,5.1-0.6,10.3-1,15.4c-0.2,2.9-0.7,5.7-1.2,9c0.7,0.9,1.1,2.4,1.3,4.1c0.5,4.6,1.1,9.3,0.9,13.9c-0.1,2.5-0.4,5-0.6,7.5
		c0,0.4-0.1,0.8-0.1,1.1c0.1,6-1.2,11.7-2.2,17.6c-1.1,6.7-2.1,13.4-3.2,20.1c-0.6,3.5-1.3,6.9-1.8,10.4c-1.1,7.2-2.2,14.4-2.4,21.7
		c-0.1,3.1,0.2,6.3,0.3,9.3c1.9,2.3,3.6,4.4,5.4,6.5c0.4,0.4,1,0.8,1.5,1c2,0.4,3.6,1.7,5.3,2.8c2.3,1.5,4.3,3.4,7.1,4.2
		c0.6,0.2,1.2,0.9,1.6,1.5c0.2,0.3,0,0.9,0,1.6c-3.1-1.7-6.3-2.8-8.9-5c-1.4-1.2-3-2.3-5-2.5c-1.5-0.2-2.5-1.2-3.2-2.4
		c-1.5-2.2-3.5-4-4.5-6.5c0-0.1-0.1-0.3-0.2-0.3c-2.5-1.4-2-3.7-2.2-5.9c-0.4-5.6,0.8-11,1.8-16.4c0.9-4.8,1.8-9.6,2.6-14.5
		c0.1-0.6,0.1-1.3,0.1-1.9c-0.2-5.7,0.9-11.3,1.8-16.8c1-6.1,2.2-12.1,3.3-18.2c0.5-2.7,0.9-5.5,0.8-8.2c0-1.5-0.2-3.1,0.2-4.5
		c1.1-4.4-0.6-8.4-0.9-12.8c-1.5,1.2-1.3,3.4-3.1,3.9l0.1,0.1c0.3-1.2,0.4-2.5,0.8-3.7c0.4-1.4,0.9-2.8,1.4-4.4
		c-1.9-2.3-2.1-5.3-1.9-8.4c0.4-7.2,1.5-14.2,2.5-21.3c1.2-8.5,1.9-17,1.7-25.6c0-0.7-0.1-1.5-0.1-2.7c-0.8,1.2-0.5,2.2-0.7,3
		c-0.3,1.9-0.8,3.7-2.4,5c-0.4,0.3-0.9,0.4-1.4,0.6l0.1,0.1c0.4-1.7,0.7-3.4,1.1-5.2c0.4-1.7-0.3-3.5,0.7-5.2c0.6,0,1.2,0.1,1.9,0.1
		c0.3-1.4-0.1-2.7-0.4-4c-0.3-1.7-1.3-3.3-0.5-5.1c0.2-0.5-0.3-1.4-0.6-2.1c-1.6-4.6-3.4-9.2-4.9-13.9c-0.6-1.9-0.9-3.9-1-5.9
		c-0.2-4-0.2-8-0.3-12.1c0-1.4,0.2-2.8-0.7-4l0.1,0.1c0.2-7.6-1.6-14.7-6.7-20.6c-0.9-1-1.3-2.1-1.1-3.5c-3.8-3.5-8.4-5.8-12.7-8.6
		l0.1,0.1c-0.3-0.3-0.6-0.6-0.9-0.9l0.1,0.1c-1.1-2.3-2.9-4.1-4.6-5.8c-4.1-4.1-8.4-8-12.7-11.8c-2-1.7-4.3-3-6.5-4.5
		c-1-0.7-2.1-1.4-3.8-1.3c-2.8,4.1-5.6,8.4-7.2,13.4c-1.4,4.5-2.3,9-2.8,13.7c-1.4,11-1.3,22.1-0.7,33.2c0,0.7,0.2,1.5,0.3,2.1
		c1,0.6,1.5-0.2,2.1-0.6c0.6-0.4,1.2-0.8,2-1.3c-0.4,1.5-0.4,1.6-1.4,2.4c-0.8,0.6-1.6,1.2-2.4,1.9c0.1,0.8,0.1,1.6,0.4,2.2
		c1.7,3.8,3.4,7.6,5.1,11.3c0.3,0.6,0.8,1.2,1.4,2c1.7-2.1,4.1-3.3,4.6-6c1.1,0.2,2.2,0.4,3.3,0.5c0.1-0.8,0.2-1.3,0.3-1.9
		c0.3,0,0.6-0.1,0.7,0c2.6,1.7,4.6,3.9,6.4,6.3c2.5,3.2,4.8,6.5,7.2,9.7c0.9,1.2,1.9,2.3,3.2,4c0.2,1.6,0.5,3.8,0.7,6.1
		c0.5,5.4,0.8,10.8,1.6,16.1c0.8,5.2,1.3,10.5,1.9,15.7c0.6,4.5,1.6,8.9,3,13.2c0.7,2.2,1.3,4.3,2,6.5c0.4,1.3,0.6,2.6,2.2,3.2
		c0.5,0.2,0.9,1.2,1.1,1.9c0.3,1.6,0.6,3.2,0.7,4.9c0.4,6.5-0.1,12.8-2.1,19c-0.6,1.7-0.8,3.4-0.8,5.2c0.1,7.8,0.2,15.6,0.4,23.4
		c0.1,3.3,0.3,6.5,0.3,9.8c0.1,5.7-0.3,11.3-1.1,16.9c-0.1,0.9,0,1.8,0,2.6c0.4,7.8-0.7,15.6-1.1,23.4c-0.1,2.5-0.7,5-1.2,7.4
		c-0.8,4-0.5,8-0.6,12c0,1.1,0.5,2,1.4,2.6c2.6,2,5.2,3.9,8.6,4.4c1.8,0.3,3.7,0.5,5.3,1.8c0.6,0.5,1.6,0.6,2.5,0.8
		c1.6,0.2,3.2-0.1,4.8,0.7c0.6,0.3,1.9-0.6,2-1.3c0.1-0.6,0.1-1.3,0.2-1.9c0.1-0.6,0.2-1.1,0.3-1.6c1-0.3,1.5,0.2,1.8,0.7
		c0.4,0.9,1.1,1.9,0.9,2.8c-0.3,1.9,0.5,3.2,1.5,4.5c1,1.4,1.5,2.9,1.5,4.5c0.1,1.1,0.1,2.3,1.1,3.3c1.1-0.9,2.2-1.7,3.3-2.5
		c0.1-1.1,0.1-2.1,0.2-3.1c0-2-0.1-4,0.5-6c0.2-0.6,0.1-1.2,0.1-1.9c0.1-1.6-0.1-3-1.5-4.1c-0.4-0.3-0.5-1-0.8-1.6
		c0.5,0,0.8-0.2,0.9-0.1c0.9,0.8,1.9,1.7,3,2.7c-0.2,0.6-0.5,1.3-0.5,2c0,0.6,0.3,1.2,0.3,1.9c0.1,2.5,0.5,5-0.4,7.5
		c-0.4,1-0.2,2.2-0.3,3.4c-0.2,1.5-0.4,3-0.7,4.8c-0.7-0.4-1.2-0.7-1.7-1c-0.1,0.1-0.4,0.1-0.5,0.2c-1,1.4-2.6,2.5-2,4.8
		c3.4-2,6.5-4.2,9.5-6.8c0.2-4.1,0.8-8.2-0.7-12.2c-0.4-1.1-0.4-2.5-0.4-3.7c0-0.4,0.5-0.8,0.9-1c0.2-0.1,0.8,0.1,1,0.3
		c0.5,0.5,1,1.2,1.3,1.5c0,1.6,0.1,3,0.1,4.3c0,1.6-0.2,3.3-0.2,4.9c0,1-0.2,2,0,3c0.6,2.7,0,4.9-2.3,6.6c-2,1.5-3.9,3.2-5.8,4.8
		c-1.1,0.9-2.5,1.2-3.9,0.7c-0.7,3-1,6.9-0.6,9.3c0.4,2.3,0,4.5-0.4,6.7c-0.5,2.8-2.6,4.2-5.2,4.9c-1.1,0.3-2.2,0.4-3.4,0.5
		c-4.8,0.3-9.5,0.7-14.3,0.9c-4.7,0.2-9.3,0.4-14,0.6c-0.4,0-0.7,0.1-1.3,0.3c-0.1,0.7-0.3,1.4-0.4,2.1c-0.3,3.5-0.6,7-0.7,10.5
		c-0.1,4.5,0,9.1,0.1,13.6c0,1.9,0.1,3.8,0.1,5.7c-0.1,15.6-0.3,31.2-0.4,46.8c0,1.1,0,2.3-0.2,3.4c0,0.4-0.5,0.7-1.1,1.3
		c-0.3-1.1-0.6-1.8-0.6-2.4c-0.1-2.9-0.1-5.8-0.1-8.7c0.1-9.8,0.2-19.6,0.4-29.5c0.1-8.6,0.4-17.1,0.6-25.7c0-0.6,0-1.3,0-1.9
		c-0.3-4.8-0.6-9.5-0.8-14.3c0-0.2-0.1-0.5-0.2-0.7c-1.6-0.5-1.6-0.5-3.5-0.1c-0.1,0.1-0.2,0.2-0.2,0.3c0.2,3.5,0.5,7,0.7,10.5
		c0.1,1.3,0.2,2.5,0.3,3.8c1,12.1,0.8,24.1,0.7,36.2c0,2.9,0,5.8,0,8.7c-0.1,4.5-0.2,9.1-0.3,13.6c-0.1,3.8-0.1,7.5-0.1,11.4
		c2-0.2,3.7-0.3,5.4-0.4c0.1-2.4,0.2-2.6,2-2.8c2.4-0.2,4.8-0.4,7.1-0.4c7.3-0.1,14.6-0.1,21.9,0c9.2,0.1,18.4,0.2,27.6,0.4
		c1,0,2,0.1,3.1,0.2c0.5,0.9,0.9,1.8,1.4,2.7c2,4.2,4.1,8.4,6.7,12.2c0.8,1.2,1.4,2.7,1.8,4.1c0.4,1.7-0.5,2.6-2.2,2.6
		c-14.9,0.1-29.7,0.1-44.6,0.3c-5.5,0.1-11.1,0.5-16.6,0.6c-3.5,0.1-7-0.1-10.6-0.2c-0.9,0-1.8-0.2-2.3-1.1c0-1.1,0.7-1.6,1.6-1.6
		c1.8-0.1,3.5,0,5.3,0c2.8,0.1,5.5,0.5,8.3,0.3c15.2-0.9,30.5-0.5,45.7-0.3c3.5,0,7,0.2,10.6,0.3c0.2,0,0.4-0.2,0.8-0.4
		c-0.1-1.4-0.8-2.6-1.4-3.8c-1.6-3.8-3.3-7.6-5-11.4c-0.2-0.5-0.7-0.9-1.1-1.4c-0.1-0.4-0.1-0.9-0.2-1.3c-2.3,0-4.3,0-6.3,0
		c0,0.1,0,0.1,0,0.2c2.2,0.3,4.4,0.7,6.6,1c-0.4,0.3-0.8,0.7-1.2,0.7c-1.1,0.1-2.3,0.1-3.4,0.1c-12.6-0.1-25.2,0.3-37.8,0.7
		c-5.7,0.2-11.3,0.1-17,0.1c-2,0-4,0.1-6,1c-0.7,1.2-0.5,2.6-0.5,4c0,10.7,0.1,21.4,0.3,32.1c0.1,4,0.5,8,0.8,12.1
		c0.1,1.1,0.3,2.2,0.4,3.4c1.7,0.8,3.5,0.9,5.2,0.9c4.1,0.2,8.3,0.4,12.4,0.4c13,0,25.9-0.2,38.9-0.2c4.7,0,9.3,0.2,14,0.5
		c2.8,0.2,5.5,0.6,8.2,1c3.1,0.5,6.2,1,9.7,1.6c0.7,1.1,2.1,1.9,3.7,2.3c1.6,0.4,2.6,1.6,3,3.1c2.3,8.1,5.9,15.8,8.8,23.7
		c0.3,0.7,0.5,1.4,0.7,2.1c0.8,2.8-0.9,5.3-3.8,5.7c-0.4,0-0.8,0-1.1,0c-10.9,0.2-21.9,0.4-32.8,0.6c-12.6,0.2-25.2-0.5-37.7-1.2
		c-5.4-0.3-10.8-0.7-16.2-0.8c-12.3-0.3-24.7-0.7-37-0.8c-19.3-0.1-38.5,0-57.8-0.1c-7.3,0-14.6-0.5-21.9-0.7c-1,0-2-0.1-3-0.1
		c-8-0.3-16.1-0.6-24.1-0.9c-2.6-0.1-5.3,0-7.9,0c-0.6,0-1.3,0.2-1.9,0c-0.5-0.2-1.2-0.8-1.2-1.2c-0.1-1.2,0-2.5,0.2-3.7
		c1-5.8,2.5-11.6,4.6-17.1c1.3-3.5,2.9-7,3.1-10.8c0.8-0.4,1.5-0.8,2.2-0.9c3.8-0.4,7.3-1.9,10.8-3.1c1.8-0.6,3.6-1,5.5-1
		c16.2,0,32.5-0.5,48.7,0.3c8.9,0.4,17.8,0.9,26.8,1.4c0.6,0,1.2,0,2,0c0.8-2.3,1.1-4.7,1.1-7.1c0-9.6,0-19.1-0.1-28.7
		c0-0.2-0.2-0.5-0.3-0.9c-1.5,0.1-3.1,0.2-4.7,0.3c-7.4,0.1-14.8,0.1-22.3,0.1c-4.7,0-9.3-0.1-14,0c-2.1,0-4.3,0.2-6.4,0.6
		c-4.3,0.7-8.5,0.2-12.8,0c-1-0.9-1.9-1.7-2.7-2.5c0.2-6.2,4-17.5,7.2-21.5c2.3,1,4.7,0.6,7.2,0.2c6.4-1,12.8-0.8,19.2-0.6
		c2.6,0.1,5.3,0.2,7.9,0.3c5.7,0.1,11.3,0.2,17,0.2c1.1,0,2.2,0,3.5,0c0.1-0.9,0.4-1.6,0.3-2.3c-0.2-6-0.5-12.1-0.7-18.1
		c-0.3-6-0.8-12.1-0.8-18.1c0-8.8,0.3-17.6,0.4-26.4c0.1-5.4,0.2-10.8,0.3-16c-0.3-0.3-0.5-0.6-0.7-0.7c-5.9-1.1-11.9-2.2-17.9-2.4
		c-1.9,0-3.8-0.1-5.6,0.6c-0.7,0.3-1.5,0.3-2.2,0.4c-5,0.6-9.9,1.6-15,1.3c-1.5-0.1-3-0.2-4.1-1.4c-0.5-0.5-1.3-0.7-2-0.9
		c-1.8-0.6-3.4-1.5-5.1-2.5c-1.7-1-2.4-2.5-2.4-4.4c0-2.3,0-4.5,0-6.8c0-3-0.3-6-1.4-8.9c-1.4-4-0.1-7.7,2.4-10.9
		c1.1-1.5,2.5-2.8,3.9-4.3c0.3-2.6-1.2-5.2-0.5-8.1c1.3,0.9,1.3,0.9,2,2.3c0.6,0,1.1-0.1,1.8-0.1c0.4,1,0.8,2,1.2,3
		c2.7-0.6,3.1-1,2.5-3.2c-0.6-1.9,0-3.2,1.5-4.2c3-1.8,5.9-3.6,8.9-5.5c0.2-0.1,0.5-0.2,0.7-0.1c0.2,0,0.5,0.2,0.6,0.3
		c0.1,0.2,0.2,0.5,0.1,0.7c-0.6,1.4-1.8,2.1-3,2.7c-0.9,0.5-1.9,0.7-2.8,1.2c-0.8,0.4-1.5,0.9-1.4,2c-1.8,0.8-2.6,2.2-2.1,4.2
		c0.1,0.4,0.5,0.8,0.9,1c0.4,0.2,1.2-0.5,1.2-1.2c0-1.4,0-2.7,0-4.1c1.5-0.5,1.5,1.7,2.8,1.5c1-0.1,2-0.4,2.9,0.4
		c3.7-2.4,8.1-3.2,12.2-4.8c0.3-0.4,0.6-0.8,0.7-1.3c0.9-3.9,1.8-7.8,0.5-11.8c-1.2-3.6-2.2-7.2-3.9-10.6c-1.8-3.8-3.2-7.9-4.6-12
		c-2-6.1-3.3-12.4-5.5-18.4c-2-5.4-3.2-11.1-5.1-16.6c-2-6-4.1-11.9-6.4-17.7c-1.5-3.9-3.2-7.7-5.6-11.1c-0.3-0.4-0.5-0.8-0.8-1.3
		c-2.9-5.4-3.6-5.9-3.8-12.7c-0.1-4.3-0.3-8.5-0.7-12.8c-0.3-2.6-0.2-5.3-0.1-7.9c0.1-4.1-0.6-8-1.8-11.9c-1.1-3.5-2.5-6.9-3.8-10.3
		c-0.5-1.4-1.1-2.7-1.1-4.3c0-1.1-0.4-2.1-1.2-3c-0.7-0.7-0.7-2.1-0.9-3.1c-0.1-0.5,0.2-1,0.1-1.5c-1.4-3.9-2.2-8-4.6-11.5
		c-0.5-0.8-0.9-1.5-0.6-2.4c0.1-0.5,0-1-0.1-1.5c-0.8-2.6-0.4-5.2,0.1-7.8c0.4-1.7,1.3-3.3,0.6-5.1c-0.1-0.2,0-0.5,0.1-0.7
		c1.9-3.6,1.8-7.5,2-11.4c0.2-4,0.2-8.1,0.4-12.1c0-1.8,0.1-3.5,0.2-5.2c1-0.7,1,0.6,1.6,0.6c0.2-0.1,0.5-0.2,0.5-0.4
		c0.8-2.9,0.3-5.7,0.1-8.6c-0.1-0.7-0.2-1.5-0.4-2.2c-0.3-1.8-0.3-1.8,0.6-3.7c-2.4-10.1-1.5-20.2-0.8-30.6
		c-0.7,0.5-1.1,0.8-1.6,1.2l0.1,0.1c0-1.5,0.7-2.7,1.4-3.9c0.7-1.2,1.1-2.5,0.9-4c-0.3-2.4,0.4-4.5,1.6-6.5
		c3.4-5.9,7.9-10.7,13.6-14.4c1.8-1.2,3.8-1.9,5.9-2.4c1.3-0.3,2.8-0.3,3.8-1.7c-2.6-2.7-4.4-5.8-5.2-9.4c-0.7-3.4-1.2-6.9-1.8-10.4
		c-0.1,0-0.3,0-0.4,0c-2.2,1-4,2.6-5.6,4.3c-2.3,0.5-4,2-5.8,3.4c-0.6,0.5-1.1,1.1-1.5,1.7c-1.1,1.5-2.1,3.1-3.1,4.7
		c-3.4,5-6.3,10.3-8.2,16.1c-1.1,3.2-2.7,6.2-4.6,9c-0.5,0.7-0.9,1.5-1.1,2.3c-0.7,2-1.3,4-2,6.1c0.5,0.7,0.9,0.2,1.3-0.1
		c0.9-0.6,1.8-1.3,2.8-1.9c1.7-1,3.4-2.1,5.2-3c0.9-0.4,2-0.4,2.9-0.4c0.5,0,0.9,0.6,1.7,1.1c-1,0.5-1.7,0.7-2.3,1
		c-1.7,0.8-3.4,1.6-5,2.5c-0.5,0.3-1.1,0.9-1.2,1.4c-0.2,1.5-1.3,2.1-2.4,2.7c-1.4,0.8-2.8,1.8-4.3,2.3c-1.3,0.5-2.1,1.3-2.8,2.3
		c-3.3,4.5-5.7,9.5-7.6,14.7c-0.8,2.1-1.5,4.3-2.3,6.4c-0.8,2.1-1.6,4.2-3.1,6c-0.9,1.1-1.3,2.3-1.6,3.7c-0.3,1.4-0.9,2.9-1.7,4.1
		c-2.7,4.1-3.7,8.8-4.7,13.4c-1.2,5.5-1.2,11-0.7,16.5c0.4,4.9,1.4,9.7,2.4,14.5c1.3,6.4,2.6,12.8,3.9,19.2c0.4,2,0.4,2-0.3,4.5
		c0.7,1.5,1.4,3.2,2.1,4.8c0.5,1.2,1,2.3,2.7,2.2c-0.1,3.5,1.2,6.1,2.8,8.7c0.3,0.5,0.7,1.3,0.5,1.7c-0.5,1.2-0.1,2.2,0.2,3.3
		c0.9,3.4,1.7,6.8,2.6,10.2c0.4,1.4,0.8,2.9,1.4,4.3c1.1,2.5,2.3,5,3.6,7.5c0.9,1.7,1.5,3.4,1.1,5.4c-0.1,0.5,0,1,0.1,1.5l0.1-0.1
		c-1.1-1.6-2.2-3.3-3.4-4.9c-1.5-2.2-2.8-4.4-3.5-7c-0.5-1.9-1.2-3.8-1.9-5.7c-0.6,0.2-1,0.2-1.2,0.4c-2.5,2.4-5.6,2.5-8.8,2
		C561.5,232.6,560.4,232.4,559.4,232.2c-0.1-0.2,0-0.7-0.5-0.2C559,232,559.2,232.1,559.4,232.2z M665.1,68.2
		c0.2,0.3,0.5,0.6,0.7,0.9c0.2,0,0.4,0.1,0.6,0.1c-0.2,0-0.5,0-0.7,0C665.9,68.6,665.6,68.4,665.1,68.2c-0.2,0-0.2,0-0.3-0.1
		C665,68.2,665,68.2,665.1,68.2z M696,65.2l0.3-0.1l-0.1,0.2c-0.3,0.3-0.5,0.5-0.8,0.8c-0.4,0-0.8-0.1-1.1,0.1
		c-2.1,1-4.2,2.1-6.2,3.2c-0.1,0.1-0.1,0.4-0.3,0.8c0.6,0.1,1.3,0.4,1.7,0.2c2.2-1.1,4.4-2.2,5.8-4.4
		C695.6,65.8,695.8,65.5,696,65.2z M623.5,372c-0.2,0.1-0.3,0.2-0.5,0.3c0.1,0,0.3,0.1,0.4,0.1C623.4,372.2,623.4,372.1,623.5,372
		l0.2-0.1L623.5,372z M659.9,89.4c0.1,0.5,0.1,1,0.2,1.5c0.2-0.5,0.3-1-0.3-1.4c-0.1-0.8-0.1-1.6-0.2-3
		C659,88,659.2,88.7,659.9,89.4z M684.7,67.5c-1,0.1-2,0.1-3,0.2C682.8,68.2,683.8,68.6,684.7,67.5c0.5-0.1,1.2-0.1,2.1-0.1
		C685.8,66.6,685.2,67.1,684.7,67.5z M665,122.6c0.2-0.1,0.5-0.3,0.5-0.4c0.6-2.9,1.2-5.9,1.6-8.8c0.1-0.8,0-1.7-0.1-3.2
		c-0.4,2.1-0.7,3.5-0.9,4.8C665.8,117.5,665.5,120.1,665,122.6c-0.5,0.5-0.7,1,0,1.9C665,123.7,665,123.2,665,122.6z M605.4,78.9
		c-2,1.9-3.6,4.1-4.2,6.9c-0.5,2.5-0.8,4.9-1.1,7.4c-0.1,0.7,0.1,1.4,0.2,2.1c1.3-4.7,2.5-9.2,4.3-13.7
		C605,80.8,605.1,79.8,605.4,78.9c0-0.1,0.1-0.1,0.2-0.2c0,0,0.1-0.1,0.1-0.2C605.6,78.7,605.5,78.8,605.4,78.9z M658.4,83.3
		c0,0.6,0.1,1.1,0.1,1.7C658.9,84.4,658.8,83.8,658.4,83.3c-0.3-1-0.3-2.2-0.6-3.2c-1.3-4.6-3.2-9-5.5-13.2
		c-0.2-0.4-0.5-0.9-0.8-1.3c-0.8-0.8-1.7-1.3-3-1.2c0.8,2.1,1.6,3.9,2.3,5.8c1.9,5.3,3.6,10.7,4.7,16.3c0.1,0.6,0,1.6,1.1,1.5
		c1-1.9-0.9-3.9,0.3-5.9C657.5,82.5,658,82.9,658.4,83.3z M671.8,102.9c1.3-1.9,1.5-4.2,2.2-6.2c1.6-4.7,3.7-9.1,6.8-13
		c1.7-2.1,1.6-2.1,2.1-4.6c1-0.8,2.1-0.8,3.2-0.5c2.7,0.7,5.2,1.8,7.6,3.3c0.7,0.5,1.5,0.9,2.2,1.4c0.7,0.4,1.4,0.8,2.5,1.4
		c-0.7-2.1-2-3.1-3.1-4.3c-1.2-1.3-2.3-2.6-3.5-3.9c-1.1-1.2-2.2-2.4-3.3-3.5c-3.9,1.6-7.8,2-12.1,2.3c1.2,1.5,2.5,1.8,3.9,2
		c0.6,0.1,1.2,0.2,1.4,1c-0.2,0.9-1,1.2-1.7,1.1c-1.2-0.3-2.4-0.7-3.5-1.2c-1.7-0.7-3.3-0.9-5.1-0.4c0.1,0.6,0.3,1.1,0.4,1.6
		c0.3,1.4,0.6,2.7,0.7,4.1c0.1,1.4,0.8,2.6,1,3.9c0.2,1.3-0.5,2.7-0.6,4c-0.3,3.9-0.5,7.8-0.8,11.6c-0.9,0.9-0.6,1.9-0.1,2.9
		C671.8,104.9,671.8,103.9,671.8,102.9z M647.6,91.1c0.7,0.7,1.3,1.5,2.3,2.5c0,8.9,0,18.3,0,27.7c0,3.1-0.7,6.2-1.6,9.2
		c-0.2,0.7-0.3,1.4-0.4,2.2c-0.4,0-0.7,0-1.3,0c0.3-1.2,0.6-2.3,0.9-3.5c0.8-3.2,1.3-6.4,1.2-9.7c0-0.5,0.2-1.2-0.7-1.5
		c-0.9,2.4-1.8,4.8-2.6,7.1c-2,5.3-4.8,10.2-8.2,14.7c-0.3,0.4-0.6,1.2-1.5,0.4c0.8-1.3,1.7-2.5,2.4-3.8c0.3-0.5,0.3-1.2,0.4-1.7
		c0.1,0,0.2,0,0.3,0c0.1,0,0.1-0.1,0.2-0.1c-0.1,0.1-0.2,0.2-0.4,0.2c-1.3,0.6-2.1,1.7-2.9,2.9c-0.6,1-1.2,1.9-1.9,2.8
		c-0.4,0.4-1,0.6-1.5,1c-0.2-0.4-0.4-0.6-0.4-0.8c-0.2-2.9,0.1-5.8,0.4-8.6c0.9-8,1.7-16,2.6-24c0.3-2.4,0.6-4.7,1-7.1
		c0.3,2.2,0.1,4.3,0,6.4c-0.2,4.2-1.6,8.4-0.3,12.7c0.2,0.7,0.1,1.5,0,2.3c-0.1,3.5-0.6,7-1.3,10.5c-0.3,1.3-0.5,2.6-0.8,3.9
		c0.8-0.7,1.3-1.4,1.5-2.2c1.2-4,2.4-7.9,3.5-11.9c0.4-1.6,0.8-3.2,1.1-4.8c0.4-2.1,1-4.2,1-6.3c0.1-7.8,0.2-15.6-0.1-23.4
		c-0.2-6.3-1.4-12.5-3.5-18.5c-0.5-1.3-1-2.6-1.7-3.8c-0.3-0.6-0.9-1.2-2.1-0.7c-0.6,6.2-1.4,12.6-1.8,18.9
		c-0.4,6.3-0.5,12.7-0.7,19c-0.5-6.4-0.7-12.8-0.2-19.2c0.4-5.8,1.2-11.5,1.8-17.2c0.1-0.5,0.1-1,0-1.5c-0.1-1.4-2-3.8-3.3-4.2
		c-1,0.4-1.9,0.7-2.8,1.1c-0.1,0.9,0.3,1.9-0.7,2.4c-0.8,0.5-1.2,1.3-1.3,2.2c-0.3,1.5-0.6,3-0.8,4.4c-0.7,4.7-0.6,9.5-0.6,14.3
		c0,3.5,0.5,7,1.1,10.5c1,5.5,2.7,10.7,4.4,16c0.2,0.7,0.7,1.4,0,2.2c-1.5-1.5-2-3.5-2.6-5.4c-0.7-2-1.3-4.1-1.8-6.1
		c-0.5-1.9-1-3.9-1.4-5.9c-0.4-2.1-0.8-4.2-1-6.3c-0.2-2-0.2-4-0.2-6c0-2.1-0.1-4.3,0-6.4c0.1-2,0.4-4,0.5-6c0.1-2.1,1-4.1,1-6.6
		c-0.7,0.3-1.3,0.3-1.5,0.6c-0.4,0.4-0.6,1-0.9,1.6l0.1,0.1c0.1-0.8,0.1-1.5-1-1.6c-1.2-0.1-2.2,0.4-3.1,1c-2.9,1.9-5,4.4-6.5,7.6
		c0-0.1-0.1-0.1-0.1-0.2c0.1,0,0.2,0.1,0.2,0.1c-0.5,1.4-0.9,2.8-1.5,4.2c-1.6,4.2-2.8,8.5-3.5,13c-0.3,1.8-0.5,3.6-0.1,5.7
		c0.8-3.4,1.4-6.4,2.1-9.4c0.1-0.4,0.5-0.8,0.7-1.2l-0.1-0.1c0,0.8,0,1.5-0.1,2.3c-1.4,6.9-2.2,13.9-2.5,20.9
		c-0.1,1.9-0.2,3.8-0.2,5.7c0,2,0,4,0,6c0,1.9,0.1,3.8,0.2,5.6c1.5,1.8,0.1,3.8,0.5,5.7c0.2,0.9,0.4,1.7,0.6,2.6
		c0.1,0.3,0,0.7,0,1.9c-2-3-1.4-5.9-2.7-8.4c-0.6,0.1-1.1,0.2-1.7,0.3c-0.2,1.5-0.3,2.7-0.5,3.9c-0.4,2.8-0.6,5.5,0.8,8.1
		c0.4,0.8,0.5,1.7,0.6,2.6c0.2,4,1.8,7.5,3.6,11c1,1.9,1.8,3.9,2.8,5.7c2.3,4.2,4.7,8.3,8.8,11.1c1.3,0.9,2.9,1.6,2.9,3.7
		c0,0.2,0.2,0.5,0.4,0.6c1.3,1,2.5,2.1,3.9,3c1.4,0.9,3,1.3,4.7,0.4c-0.7-1.4-2-1.7-3.3-2.2c-2.3-0.7-2.9-1.4-4.5-4.4
		c0.7,0.2,1.1,0.3,1.5,0.5c1.7,0.9,3.2,1.9,4.9,2.7c1,0.5,2.1,0.7,3.3,0.8c1.4,0.1,2.7-0.4,3.4-1.8l-0.1,0.1c0.5,0.4,1,0.7,1.6,1.2
		c-0.6,0.6-1.1,1-1.4,1.5c-0.3,0.5-0.9,0.9-0.3,1.9c2.3-0.7,4.6-1.1,6.1-3.6c1.9-3,4-5.8,6.8-8c0.6-0.5,1-1.1,1.4-1.7
		c2-3,4-6.1,6-9.1c1.4-2.1,2.4-4.4,3-6.9c0.8-3.3,1.5-6.6,2.3-9.9c0.2-0.7,0.4-1.7,0.1-2.2c-0.8-1.3-0.3-2.4,0-3.6
		c0.3-1.2,0.5-2.4,0.8-3.8c-0.8,0.3-1.4,0.5-2.1,0.8c0.2-1,0.4-1.8,0.5-2.7c0.1-1,0.2-2,0.2-3c0-0.9,0-1.8,0-2.6
		c0-0.9-0.2-1.7-0.2-2.5c-0.1,0-0.3,0-0.4,0c-1.2,5-2.4,10-3.6,15.1c-0.7-0.4-1.4-0.9-2.2-1.4c0.7-0.3,1.1-0.5,1.6-0.8
		c1.1-4.9,2.2-9.8,3.1-14.7c0.9-4.9,1.7-9.9,1.1-14.9c-0.4,2.5-0.6,5-0.9,7.4c-0.3,2.9-0.7,5.7-1.2,8.6c-0.6,3.4-1.5,6.6-2.9,9.7
		c-0.5,1-0.2,1.8-0.1,2.6c-2.8,2.1-5.6,4.2-8.3,6.2c-0.1,0.1-0.3,0-0.4,0c-0.1,0-0.2-0.1-0.4-0.2c0.8-1.9,2.5-3.4,2.6-5.6
		c0.5-0.9,1.1-1.7,1.3-2.6c1-3.1,1.9-6.2,2.8-9.4c2-7.7,3.3-15.5,4.1-23.4c0.2-1.7,0.2-3.4-0.4-5.2c-2.5-7.5-4.7-15.1-7.2-22.6
		c-0.6-1.8-1.4-3.5-2.2-5.2c-0.3-0.6-0.6-1.1-1.1-1.5c-0.3-0.3-0.8-0.2-1.7-0.4c0.4,1.1,0.7,1.8,0.9,2.4c1.2,3.2,2.5,6.3,3.6,9.5
		c1.6,4.6,3,9.3,3.1,14.3c0,1,0.2,2-0.9,3.3c-2.8-8.7-4.4-17.5-8.3-25.6c-1.4,0-2.8,0-4.3,0c0.3,0.7,0.5,1.3,0.7,1.8
		c0.8,2.5,1.8,5,2.5,7.5c0.6,2.3,0.8,4.7,2.1,6.8c0.4,0.6,0.3,1.4,0.4,2.2c0.1,1,0.2,2,0.3,3c0.6,6.3,0.7,12.6,0,18.8
		c-0.6,5.5-1.6,10.9-2.4,16.4c-0.1,0.5-0.4,1.1,0.5,1.6c1-2.1,2-4.1,3-6.1c0.3-0.7,0.6-1.6,1.2-1.9c1.2-0.6,1.4-1.7,1.6-2.8
		c1.4-5.7,1.5-11.4,0.8-17.2C647.9,94.5,647.9,92.7,647.6,91.1L647.6,91.1z M638.6,180c2-0.1,4-0.4,6-0.1c3.2,0.3,6.3,0,9.4-0.3
		c6.2-0.6,11.5-3.3,16.3-7.2c0.6-0.5,1.1-1.2,1.6-1.7c-0.8-2-1.6-3.7-2.2-5.5c-1.6-5.1-3.2-10.3-4.8-15.5c-1-3.1-1.7-6.3-1.5-9.6
		c0-0.6-0.1-1.1-0.1-2.1c-0.5,0.5-0.8,0.8-0.9,1.1c-0.6,2.4-1.2,4.9-1.7,7.3c-0.2,0.8-0.1,1.7,0,2.6c0.4,2.6,0.2,4.9-1.9,6.8
		c-0.3,0.3-0.7,0.8,0.1,1.4c1.2-0.6,2.5-1.2,3.9-1.8c0.6-0.2,1.3-0.1,2.6-0.2c-3.1,2.9-5.7,5.4-9.9,5.4c-0.7,1-1.6,2.2-2.3,3.3
		c-1.1,1.7-2.1,3.4-3.3,5c-0.7,1-1.6,2-2.7,2.6c-1.7,0.8-2.9,2.1-3.6,3.7c-0.6,1.5-1.7,2.4-2.9,3.3c-0.7,0.5-1.3,1.1-2,1.6
		c-0.4,0.1-0.8,0.1-1.1,0.2C638.2,180.5,638.2,180.5,638.6,180z M621.4,409.8c0.8,0.6,1.6,1.1,2.7,1c1.9-0.2,3.8-0.1,5.6-0.4
		c3.6-0.6,7.3-0.6,10.8-1.7c0.8-0.2,1.7-0.1,2.6-0.1c4.5,0,9,0.5,13.5,1.4c9.6,1.8,19.2,2.4,28.9,2.3c10.1-0.1,20.1-0.1,30.2-0.2
		c7.8-0.1,15.6-0.4,22.9-0.7c1.7-1,2.5-2.1,2.8-3.5c0.4-2.1,0.7-4.2,0.2-6.3c-0.6-2.7-0.6-5.5,0.2-8.2c0.2-0.7,0.2-1.5,0.3-2.2
		c0.2-1.4,0.3-2.7,0.5-4.1c0.1-0.5,0.2-1,0.2-1.5c-0.3-1.9-0.6-3.7-0.9-5.6c-0.2-0.7-0.5-1.4-0.9-2c-0.9-1.2-1.9-2.3-2.8-3.4
		c-2.6-0.3-5-1.2-7.5-0.9c-1,0.1-2-0.1-2.8-0.8c-1.1-0.9-2.5-1.3-3.8-1.3c-3.9-0.1-6.9-2-9.9-4.1c-1.5-1.1-2.2-2.6-2.2-4.6
		c0.1-3.4,0.2-6.8,0.2-10.2c0-0.7-0.1-1.4-0.1-2.4c-1-0.1-1.9-0.2-2.7-0.2c-15.8,0-31.7,0.1-47.5,0c-5.5,0-10.1,2.4-14.9,4.6
		c0,3-0.4,5.7-1.3,8.3c-0.4,1.3-1.2,2.1-2.6,2.5c-1.8,0.5-3.6,1.2-5.3,1.9c-2.2,0.8-4.5,1.7-6.7,1.8c-2.3,1.9-4.3,3.7-6.5,5.4
		c-0.5,0.4-1.5,0.6-2.1,0.4c-0.9-0.2-1.7-0.9-2.4-1.3c-2.8,1.6-5.6,3.2-8.7,4.9c3.7,2.6,7.5,3.6,11.6,3.5c1,0,2,0,3,0
		c2.9,0.1,5.8,0.3,8.7,0.5c0.7,0,1.3,0.2,2.6,0.3c-3.9,1.8-7.7,0.9-11.2,1.9c0.2,5.3,1.2,10.3,1.8,15.4c-0.5-0.9-0.9-1.8-1.1-2.8
		c-0.6-3.3-1.2-6.7-1.8-10c-0.2-1,0-2-1.2-2.8c-1.2,0-2.5-0.1-3.9-0.1c-0.7,0-1.4,0.2-2.1,0.4c-0.6,8,0.5,15.5,3,22.8
		c0.3,0.8,0.5,1.7,0.8,2.5c-0.9-0.1-1.2-0.8-1.5-1.5c-0.6-1.6-1.1-3.3-1.6-5c-1.4-5-1.8-10.1-1.6-15.3c0-1.3,0.4-2.8-0.4-4.1
		c-2-0.9-4.1-1.9-6.4-2.9c-0.6,3.2-0.8,6.1,0.2,9.1c0.5,1.5,0.6,2.9,0.5,4.4c-0.1,3.1,0.1,6.3,0.1,9.4c0,2.1,1,3.6,3,4.3
		c1.9,0.7,3.8,1.4,5.6,2.1C620.2,410.7,620.8,410.3,621.4,409.8z M711.8,346.3c0.8-1.2,0.7-2.3,0.9-3.4c0.2-1.8,0.3-3.5,0.5-5.3
		c1.5-9.7,2-19.5,1.8-29.3c-0.1-4.7-0.1-9.3-0.1-14c0.2-10.2,0.4-20.4,0.7-30.6c0-1.2,0.2-2.5,0.5-3.7c1.2-4.5,1.6-9.1,1.7-13.8
		c0-1.6-0.4-2.9-1.1-4.3c-1.5-2.8-2.9-5.6-4.3-8.4c-3.9-7.9-5.8-16.4-5.7-25.1c0.1-8.9-0.6-17.8-0.9-26.8c-0.1-1.6-0.2-3.2-0.2-4.7
		c-4.4-3.8-7-8.8-10.7-12.8c-1.3,0.6-1.5,1.8-2,2.8c-3.3,5.9-6.7,11.8-11.1,17.1c-8.1,9.8-17.4,18.5-27.4,26.4
		c-2.7,2.1-5.2,4.3-7.4,7c-5.5,6.8-11,13.7-17.4,19.8c0,1.4,0,2.6,0,3.9c0.1,5.2-1.2,10.2-3.1,15c-0.4,0.9-0.9,1.8-1.4,2.6
		c-2.2,3.3-4.5,6.6-6.9,10c0.5,1.1,1.1,2.2,1.6,3.3c4,9.9,7.5,20,10.6,30.2c0.8,2.6,1.4,5.3,2,8c0.3,1.3,0.3,2.8,0.6,4.1
		c2.2,8.2,4.7,16.2,8.1,23.9c0.9,2.1,1.9,4.1,2.4,6.3c0.5,2,1.5,3.9,2.3,6.1c1.8-1.6,3.8-2.3,5.9-2.6c0.8-0.1,1.9-0.4,2.4-1
		c1-1.2,2.1-1.1,3.4-0.6c0.7,0.3,1.5,0.5,2.2,0.5c2.3,0,4.4,0.6,6.7,0.3c2.3-0.3,4.7,0,7.1,0.1c0.3,0,0.5,0,0.8-0.1
		c4.8-0.2,9.5-0.6,14.3-0.7c6.8-0.2,13.6-0.2,20.4-0.3C709.9,346.5,710.9,346.4,711.8,346.3z M692.8,512.5c-0.1,0-0.2,0-0.3,0
		c0-0.6,0-1.2,0-1.9c0-14.3-0.1-28.7-0.7-43c-0.4-9.6-0.6-19.1-1-28.7c-0.3-6.9,0.1-13.8,0.2-20.8c0-0.7,0.5-1.4-0.3-2.3
		c-1.6-0.3-3.3-0.1-5.1-0.1c-1.6,0-3.3,0-4.9,0c-1.8,0-3.5,0-5.3-0.1c-1.6-0.1-3.3-0.3-4.9-0.4c-1.7-0.1-3.4-0.6-5.3,0
		c0,1-0.1,1.9-0.1,2.8c0.1,4.3,0.3,8.6,0.4,12.8c0.3,12.2,0.1,24.4,1,36.6c0.5,7.3,0.9,14.6,1.1,21.9c0.2,6.5,0.1,13.1,0,19.6
		c-0.2,6.9-0.8,13.8-1,20.7c-0.1,4.4,0.1,8.8,0.3,13.2c0.2,3.8,0.5,7.5,0.6,11.3c0,1,0,2.1-0.3,3c-1,2.5-2.3,5-3.4,7.4
		c-0.3,0.1-0.5,0.3-0.8,0.3c-0.6,0.1-1.3,0.1-1.9,0.1c-17.4,0-34.7-0.3-52-2.4c-2.2-0.3-4.5-0.3-6.8-0.1c-2.8,0.2-5.5,0.2-8.3,0
		c-3.8-0.2-7.5-0.7-11.3-1.1c-4.5-0.5-8.9-0.6-13.2,0.7c-2.6,9.5-6.4,18.6-7.1,28.7c2-0.4,3.7-0.8,5.4-1c7.5-0.8,15.1-1.1,22.6-0.7
		c4.5,0.2,9,0.5,13.6,0.6c12.8,0.2,25.7,0.3,38.5,0.3c24.4,0.1,48.8-0.5,73.2,1c7.9,0.5,15.8,0.7,23.7,1.2
		c6.8,0.4,13.5,1.2,20.3,1.4c11.6,0.5,23.1,0.7,34.7,1c1.5-1.9,1.5-1.8,3.3-1.4c1.2,0.3,2.3,0.9,3.8,0.6c-1.9-6.3-3.7-12.5-5.4-18.6
		c-0.9-3.4-1.7-6.8-2.6-10.2c-4.5,0-9-0.1-13.5,0c-4.5,0.1-9.1,0.3-13.6,0.4c-4.5,0.1-9.1,0.1-13.6,0.1c-4.5,0-9.1,0-13.6,0
		c-4.5,0-9.1,0-13.6-0.1c-4.5,0-9.1-0.1-13.6-0.2c-4.5-0.1-9,0-13.4-0.3c-1.5-2.1-1.3-2.1-1.4-3.9c0-2.3-0.4-4.5-0.4-6.8
		c-0.1-5.2,0-10.3,0-15.5c0-1.4,0-2.6-0.8-3.9c-0.7-1.2-0.7-2.9-0.9-4.4c-0.2-1.2-0.1-2.5-0.2-3.8c-0.4-5.8-1-11.5-1.1-17.3
		c-0.2-9.7-0.2-19.4-0.2-29.1c0-1.3,0-2.5,0.2-3.8c0.6-3.1,0.5-6.3,0.5-9.4c0.1-8.7,0.3-17.4,0.4-26c0-0.3,0-0.5,0-0.8
		c0.2-5.3,0.5-10.6,0.7-15.8c0.1-2.6,0.1-5.3,0.1-7.9c0-0.2-0.2-0.4-0.4-0.8c-0.7,0-1.6,0.1-2.3,0.1c-0.7,1.5-0.5,2.9-0.6,4.3
		c-0.3,8.6,0.1,17.1,0.9,25.6c0.7,7.3,0.9,14.6,0.6,21.9c-0.1,2.4-0.5,4.7-0.6,7.1c-0.2,11.8-0.2,23.7-0.4,35.5
		C692.9,511,692.8,511.7,692.8,512.5z M593.3,174c0.8,2.5,1.5,4.9,2.2,7.3c0.3,1.2,1.2,1.9,2.2,2.4c1.7,0.8,3.4,1.7,5.2,2.3
		c1.3,0.4,2.7,0.5,4.1,0.7c0.7,0.1,1.5-0.2,2.2-0.1c6.5,0.9,12.8,0,19-1.9c0.8-0.2,1.6-0.9,2.5-0.3c-0.1,0.2-0.2,0.5-0.4,0.6
		c-4.1,1.7-8.2,3.2-12.5,4c-3.5,0.7-7,0.8-10.5-0.3c-0.8-0.2-1.7-0.2-2.6-0.3c-1.2,2.1-2.2,4.1-3.3,6.1c-0.5,0.8-0.7,1.6-0.4,2.5
		c1.4,4.4,1.4,9.2,3.6,13.4c0.5,0.9,0.5,1.9,0.7,2.9c0.6,2,1,4.2,1.9,6.1c1.1,2.5,1.6,5,1.7,7.7c0,3.3,0.5,6.5,1,9.8
		c1.3-0.5,2.4-1.1,3.6-1.5c0.6-0.2,1.2-0.1,1.4,0.9c-0.6,0.4-1.2,0.8-1.8,1.2c-1.1,0.7-2.2,1.3-3.2,2c-0.4,0.3-0.7,0.7-0.2,1.4
		c1.2-0.2,2.6-0.3,3.9-0.5c4.6-0.7,9.1-2.1,13.3-4.1c1.3-0.6,2.4-1.3,3.3-2.5c4.1-5.6,8.9-10.6,13.4-15.8c1.9-2.2,3.6-4.5,5.7-6.5
		c6.1-5.7,12-11.5,18.1-17.2c9.2-8.6,17.2-18,23.4-29c0.7-1.3,1.6-2.5,1.9-3.9c-1.1-2.4-3.3-2.3-5.1-2.8c-0.4,0.3-0.8,0.5-1,0.8
		c-1,1.1-2.1,2.2-2.8,2.9c-0.3,1.7-0.4,2.9-0.7,4.1c-1.6,4.8-4,9.2-7.1,13.2c-1,1.3-2.2,2.4-3.5,3.4c-6.8,5.3-14.7,7.5-23.2,7.6
		c-4,0-7.8-0.7-11.3-2.4c-0.8-0.4-1.6-0.8-2.3-1.4c-1.5-1.3-2.9-2.7-4.6-4.2c3.7,0.9,7.2,1.8,10.1,4.3c1.6,0,3.2-0.1,4.8,0
		c8.5,0.3,16.4-2,23.8-6.2c3-1.7,5.6-3.8,7.5-6.8c1.6-2.4,2.9-5,3.9-7.9c-1.1-0.5-2.2-1-2.7-2.3c-0.7-1.7-1.8-3.3-2.6-5
		c-3.1-6.1-6-12.2-5.8-19.3c0-0.2,0-0.5-0.1-0.8c-0.9-6.8-0.7-13.6-0.2-20.3c0.1-1.5,0.2-3.1-0.1-5.4c-0.2,2-0.3,3.3-0.5,4.5
		c-0.6,2.8-1.3,5.6-2,8.4c-0.5,2.2-1.3,4.4-1.6,6.6c-0.3,2.4,0.1,4.8,0,7.1c-0.1,3.2,0.4,6.3,1.3,9.3c1.4,5,2.7,9.9,4.1,14.9
		c0.7,2.6,1.5,5.2,2.4,8.1c-4.3,5.4-9.7,9-16.7,10.4c-3.9,0.8-7.8,0.2-11.6-0.3c-1.2-0.2-2.5-0.4-3.7-0.4c-2.9,0.1-5.8-0.7-8.7-0.1
		c-0.6,0.1-1.2-0.2-1.8-0.3c-3.5-0.5-7-1-10.5-0.1c-2.9,0.7-5.8,0.3-8.4-1.1c-2.1-1.1-4.1-2.5-6.1-3.7c-2.4-1.5-3.9-3.9-5.2-6.3
		c-0.5-0.8-0.7-1.9-0.7-2.9c0-1.7,0.2-3.5,0.3-5.2c0.1-0.6,0.4-1.3,0.2-1.8c-0.5-1.4-0.1-2.8,0.1-4.1c0.7-4.3-0.3-8.5-0.7-12.7
		c0-0.2-0.3-0.4-0.5-0.6c-0.3,0.2-0.7,0.4-0.8,0.7c-0.1,0.9-0.1,1.7-0.1,2.6c-0.1,4.9,0.3,9.8-0.7,14.7c-0.1,0.2-0.1,0.5,0,0.7
		c1.1,2.3-0.3,4.1-1,6.1c-0.4,1.1-1.1,2-1.4,3.1C595.3,172,594.6,173.1,593.3,174z M664.2,516.8c0.1-1.1,0.1-1.7,0.1-2.3
		c-0.2-4.3-0.4-8.5-0.6-12.8c0-0.3-0.3-0.6-0.4-0.7c-5.4,0.2-10.5,0.6-15.6,0.6c-2.1,0-4.2-0.5-6.3-0.9c-0.5-0.1-1.2-0.1-1.2-1
		c0.3-0.1,0.5-0.2,0.7-0.2c6.2,0,12.3-0.1,18.5-0.1c1.1,0,2.2-0.2,3.4-0.4c0.6-0.1,0.8-0.5,0.6-1.3c-0.5-0.1-1.1-0.2-1.7-0.2
		c-1.5,0.1-3,0.3-4.5,0.3c-10.9,0.1-21.9,0.3-32.8,0.4c-5.3,0.1-10.4,1.1-15.7,1.6c-2.2,5-3.5,10.1-4.7,15.2c-0.1,0.6,0,1.2,0,1.9
		c4.2,0.6,8.1,0.3,12.1-0.1c3.2-0.3,6.5-0.7,9.8-0.7c5.8,0,11.6,0.2,17.3,0.3c5.7,0.1,11.3,0.3,17,0.5
		C661.4,517,662.7,516.9,664.2,516.8z M571.4,227.8c0-0.5,0.1-0.9,0-1.2c-1-3.7-2-7.5-3.2-11.2c-1.6-4.9-3.5-9.7-5-14.6
		c-1.1-3.7-2.7-7.3-1.6-11.3c0.2-0.6-0.1-1.2-0.2-1.9c-0.7-3.6-1.4-7.2-2.1-10.7c-0.1-0.4-0.4-0.8-0.7-1.5c-0.9,1.6-1.6,2.9-2.2,4.2
		c-0.6,1.4-1.1,2.8-1.6,4.2c-1.8,5.5-3.5,11-5.5,16.4c-1.1,3.1-1.2,6.1-0.2,9.2c1.4,4.3,2.6,8.7,3.9,13c0.3,0.9,0.7,1.9,1.2,2.7
		c2.3,3.1,5.3,5.3,9.3,5.9C566.9,231.7,569.7,231,571.4,227.8z M787.1,560.3c-2.2-0.2-4-0.2-5.7-0.4c-6.5-1.1-13-1.4-19.5-1.3
		c-14.6,0.2-29.2,0.2-43.8,0.3c-4.4,0-8.8-0.1-13.2-0.9c-0.9-0.2-1.7-0.2-2.6-0.2c-0.2,0-0.4,0.2-0.7,0.4c-0.2,1.1-0.4,2.1,0.6,3.3
		c28.7,0.5,57.6,0.9,86.8,1.4C788.2,561.9,787.7,561.1,787.1,560.3z M617.1,266c3.8-2.8,5.6-7.1,8.2-10.8c1.8-5.4,3.3-10.8,2.6-16.7
		c-1.3,0.6-2.4,1.2-3.6,1.7c-1.2,0.5-2.3,0.9-3.5,1.3c-1.3,0.4-2.7,0.7-4,1.1c-1.1,0.3-2.4,0.1-3.8,1c0.8,0.5,1.4,0.7,1.7,1.1
		c0.3,0.3,0.6,1,0.5,1.3c-0.3,0.6-1.1,1-1.3,1.7c-0.3,0.8,0,1.7-0.2,2.5c-0.1,0.4-0.6,0.7-1,1c-0.5,0.3-1.2,0.5-1.7,0.8
		c-0.9,0.6-1.3,1.5-1,2.6c0.1,0.5,0.3,1,0.5,1.4C612.2,259.5,613.8,263.2,617.1,266z M663.4,557.4c-1.7,0-3.1-0.1-4.5-0.1
		c-7.9-0.1-15.9,0-23.8-0.4c-7.2-0.4-14.3-0.5-21.5-0.5c-4.8,0-9.6,0-14.3,0c-1.4,0-2.8-0.1-4.1-0.3c-3.9-0.4-7.8-0.1-11.7,0.3
		c-1,0.1-1.9,0.4-2.5,1.3c0.4,0.1,0.8,0.2,1.2,0.2c7.8-0.1,15.6,0.3,23.4,0.9c7.8,0.7,15.5,1.5,23.3,1.8c10.9,0.4,21.9,0.4,32.8,0.5
		c0.6,0,1.1-0.3,1.7-0.5C663.4,559.5,663.4,558.7,663.4,557.4z M602,170c3.6,3,7.2,5.9,11.4,8c2.5,1.2,5.2,1.6,8.3,1.1
		c-0.9-0.9-1.7-1.5-2.4-2.2c-0.7-0.8-1.3-1.9-2-2.7c-1.2-1.3-2.7-2.3-3.4-4c-0.1-0.3-0.5-0.6-0.8-0.7c-1.3-0.4-1.9-1.6-2.5-2.7
		c-1.5-2.5-3-5-4.5-7.4c-0.7-1.1-1.2-2.2-2.7-2.6c-0.5,1.4-0.9,2.8-0.6,4.3c0.7,0.4,1.4,0.8,2.3,1.3c-1,0.6-1.7,1-2.6,1.5
		C602.3,165.9,602.2,167.9,602,170z M656.2,67.4c0.4,1.2,0.4,1.6,0.6,1.9c3.8,7.2,4.8,15.2,6.7,23c0.2,0.8,0.1,1.7,0.1,2.6
		c0,0.2-0.2,0.3-0.2,0.4c-0.7-0.7,0.2-2.4-1.5-2.6c-0.9,0.9-0.6,1.9-0.4,2.8c1.1,5.3,2.3,10.5,3.4,15.6c1.6-5.7,2.3-13.9,1.6-18.7
		c-0.3,0.3-0.6,0.7-1.1,1.3c-0.4-3.6-0.5-6.9-1.1-10.2c-0.6-3.4-1.7-6.7-2.6-10.1c0.4-0.1,0.9-0.1,1.2-0.3c0.4-0.5,0.1-1-0.3-1.3
		C660.5,70.6,658.7,69.2,656.2,67.4z M657.2,97.9c-0.2,2.2-0.3,3.7-0.5,5.2c-0.2,1.5-0.4,3-0.7,4.5c-0.2,1.5-0.5,3-0.8,4.5
		c-0.3,1.5-0.6,3-0.9,4.4s-0.7,2.9-1.1,4.4c-0.4,1.5-0.7,2.9-1.1,4.4c-0.4,1.5-0.9,2.9-1.3,4.3c-0.4,1.4-1.3,2.6-1.3,4.3
		c1.6-0.4,2.4-1.3,2.9-2.5c0.5-1.3,1.1-2.5,1.5-3.9c2.2-6.2,3-12.7,3.5-19.2C657.6,105.1,657.7,101.9,657.2,97.9z M602.6,127.3
		c-0.8-11.6-0.4-23,0.3-34.3c-1.2,4.4-1.9,8.8-2.1,13.3c-0.1,3.1,0.1,6.3-0.2,9.4c-0.2,3.2,1.1,6.2,1,9.3
		C601.7,125.8,602.3,126.6,602.6,127.3z M661.6,105.8c-0.2,0.4-0.5,0.7-0.6,1c-0.3,1.9-0.5,17.5-0.2,19.5
		C662.9,121.8,663.3,113,661.6,105.8z M667,83.9c1.1-2.2,1.1-4.3,0.9-6.4c-0.9-1.2-1.8-2.4-3.2-3.1c-0.1,0.4-0.3,0.6-0.2,0.8
		C665.3,78.2,666.1,81.1,667,83.9z M678.6,73.6c2.7-0.8,5.4-0.5,8-2.1c-1.7-0.2-3.1-0.6-4.4-0.5c-2.7,0.1-5.4,0.5-8.1,0.7
		c0,0.1,0,0.1,0,0.2c1.3,0.1,2.6,0.3,3.9,0.4C678.1,72.6,678.3,72.9,678.6,73.6z M670.2,98.2c0.4-4.4-0.1-8.4-0.9-12.9
		C668.6,95.2,668.7,96.3,670.2,98.2z M640.1,62.2c-1.4,0-2.4,0-3.3,0c-0.9,0-1.8-0.1-3.3-0.3c2.4,2,4.3,3.2,6.8,3.3
		c0.3,0,0.6-0.3,1-0.5C640.9,63.9,640.6,63.1,640.1,62.2z M602.3,188.3c-1-0.5-1.7-0.8-2.3-1.1c-0.6-0.2-1.2-0.9-1.9-0.4
		c0.5,2.9,0.5,2.9,2,4.9C600.7,190.7,601.4,189.6,602.3,188.3z M710.8,500C710.8,500,710.8,500,710.8,500c2.1,0,4.1,0,6.2,0
		c0,0,0,0,0,0C714.9,500,712.8,500,710.8,500z M669.4,74.9c1.9,0.4,3.1,0.4,4.6-0.1C672.6,73,671.4,73.7,669.4,74.9z M672.2,68.6
		c0,0.1-0.1,0.1-0.1,0.2c1.2,0,2.4,0,3.7,0c0-0.1,0-0.1,0-0.2C674.5,68.6,673.4,68.6,672.2,68.6z M680.8,57.5
		c0.4-0.4,0.7-0.6,0.8-0.9c0.1-0.6-0.4-0.8-0.9-0.8c-0.6,0-1.1,0.4-0.9,0.8C680,56.9,680.4,57.1,680.8,57.5z M670.7,110.5
		c0,0,0.1,0,0.1,0c0-0.4,0-0.9,0-1.3c0,0-0.1,0-0.1,0C670.7,109.6,670.7,110,670.7,110.5z M680.2,48.3c0.1-0.2,0.3-0.4,0.2-0.5
		c-0.1-0.2-0.3-0.2-0.5-0.3c-0.1,0.2-0.2,0.4-0.2,0.6C679.7,48.2,680,48.3,680.2,48.3z M632.6,179.7c0-0.1-0.1-0.2-0.1-0.2
		c-0.2,0-0.4,0.1-0.7,0.1c0,0.1,0.1,0.2,0.1,0.2C632.2,179.8,632.4,179.7,632.6,179.7z M674.7,22.6c-0.1-0.2-0.1-0.4-0.2-0.6
		c-0.1,0.2-0.1,0.4-0.2,0.6c0,0.1,0.1,0.2,0.1,0.3C674.6,22.8,674.6,22.7,674.7,22.6z M603.4,91.1c0.1,0,0.1,0,0.2,0
		c0-0.3,0-0.7,0-1c-0.1,0-0.1,0-0.2,0C603.4,90.4,603.4,90.7,603.4,91.1z M615,372l-0.2,0l0.1,0.3L615,372z M604.4,87.1l-0.1,0.2
		l0.1,0L604.4,87.1z M688.8,66.4c-0.1-0.1-0.1-0.2-0.2-0.2c-0.1,0-0.2,0-0.3,0c0.1,0.1,0.1,0.2,0.2,0.3
		C688.6,66.6,688.7,66.5,688.8,66.4z"/>
	<path d="M293.4,31.2c-0.6,0.6-1.1,1.3-1.8,1.8c-2.6,2.1-4.4,4.8-5.6,7.9c-0.1,0.2-0.1,0.5-0.1,0.7c0,0.1,0.1,0.2,0.3,0.6
		c0.6-0.4,1.2-0.8,1.7-1.2c3.4-2.7,7-4.9,11-6.4c4.7-1.7,9.5-2.3,14.4-1.4c3.2,0.6,6,2,8.4,4.1c5.3,4.6,8.6,10.4,10.9,16.9
		c0.2,0.6,0.1,1.2,0.2,1.9c-1,0-0.9-0.8-1.2-1.2c-1.9-3.4-3.7-6.9-5.8-10.2c-1.3-2.1-3.1-4-4.9-5.7c-3.6-3.5-8.1-4.9-13.1-4.6
		c-3.2,0.2-6.2,0.8-9.2,2c-4.7,1.9-8.8,4.8-12.6,8.2c-1.2,1.1-1.5,2.2-0.9,3.7c1.2,0,1.8-0.8,2.5-1.5c4-4,8.9-5.6,14.3-5.8
		c2.1-0.1,4.3-0.1,6.4,0c5.6,0.2,10.5,2.1,14.7,5.8c2.5,2.2,4.7,4.5,6.5,7.3c0.5,0.8,1.2,1.7,0.8,2.8l0.1-0.1
		c-0.9-0.4-1.7-0.8-2.8-1.4c0,0.7-0.2,1.3-0.1,1.8c1.1,4,2.2,8,5.3,11c0.3,0.3,0.4,0.9,0.6,1.3c1.4,2.8,3.4,4.9,6.5,5.9
		c4.2,1.5,8.5,2,12.9,2.4c0.7,0.1,1.4,0.3,2.2,0.5c0.1,0,0.1,0.2,0.1,0.3c-0.1,0.7-0.7,0.6-1.1,0.6c-2.4,0.1-4.8,0.1-7.2,0.1
		c-0.8,0-1.6-0.3-2.2,0c-1.7,0.8-3.1,0.1-4.6-0.7c-1.5-0.9-3.1-1.7-4.6-2.5c-8.5-4.5-14.2-11.4-17.5-20.4c-0.7-2-1.1-4.1-1-6.3
		c0.1-0.9,0-1.7,0-2.5c-4.5-2.7-11.2-3.5-15.8-2c1.5,2.3,3.1,4.6,4.8,7.2c0.4-0.7,0.6-1.2,1-2c0.3,0.7,0.6,1.2,0.6,1.7
		c0.1,3,1.3,5.6,2.8,8.1c4.4,7.2,10.2,13.1,17.5,17.3c1.7,1,3.5,2.1,5.6,2.1c0.2,0.2,0.5,0.3,0.3,0.2c0.1,0-0.1,0-0.4-0.1
		c-0.3-0.2-0.5-0.6-0.8-0.7c-7.3-4.2-12.5-10.4-16.6-17.7c-1.6-2.8-3-5.8-3.9-9c-0.3-1.2-0.7-2.4-0.3-4.3c1.3,4.4,2.9,8,4.9,11.4
		c3.7,6.4,8.2,12,14.1,16.5c1.5,1.1,3.1,2.1,4.7,3.1c2.8,1.7,5.7,2.4,9,2.4c5.2,0,10.3-0.4,15.3-1.6c5-1.2,10-2.3,14.9-4.1
		c0.2-0.1,0.5,0.1,0.8,0.2c-0.2,1-1.1,1.3-1.8,1.6c-3.2,1.4-6.5,2.8-9.8,3.9c-6.5,2.2-13.1,3.5-20,3.4c-9.4-0.1-17.5-3.3-24.2-9.8
		c-0.6-0.6-1.3-1.2-1.9-1.8c-0.6-0.6-1.2-1.2-2.3-2.2c0.2,2.5,0.6,4.4,1.8,5.9c1.1,1.4,1.4,2.9,1.8,4.5c0.3,1.2,0.5,2.5,0.7,3.8
		c7.9,7.3,11.4,16.9,13.7,27.1c0.2,0.8,0.5,1.7,0.9,2.5c0.6,1.3,1.9,2.3,2.1,3.9c0.2,1.6,1.2,2.9,1.9,4.3c0.7,1.3,1.6,2.6,2.3,3.9
		c0.7,1.3,1.4,2.7,2.1,4c2.1,4.1,3.3,8.4,3.7,13c0.5,6.5-0.3,12.8-2.8,18.9c-0.4,0.9-0.7,1.9-1.1,3c0.5,0.9,1,2,1.6,2.9
		c4.5,7.1,7.2,14.9,9,23.1c0.1,0.6,0.1,1.3,0.4,1.8c1.8,3.9,1.3,7.9,0.3,11.8c-0.7,2.8-1.6,5.5-2.5,8.4c0.6,0.7,1.1,1.4,1.7,2.1
		c4.2,4.9,7.3,10.5,9.8,16.5c0.3,0.8,0.6,1.7,0.7,2.5c0.9,5.9,1.1,11.8-0.2,17.6c-0.3,1.1-0.5,2.2-1,3.2c-0.7,1.5-1,3.1-1.3,4.7
		c-1.1,5.3-3.4,7-8.8,6.5c-1.5-0.1-3-0.5-4.5-0.8c-0.6-0.1-1.2-0.5-1.8-0.4c-2.5,0.3-4.4-1-6.2-2.4c-3.7-2.8-7-6.2-8.8-10.6
		c-0.3-0.7-0.8-1.3-1.2-1.9c-2.1-3.2-3.4-6.7-4.4-10.4c-0.4-1.3-0.3-2.7-0.4-4.1c1,0.2,1.1,1.1,1.5,1.7c0.3,0.5,0.5,1.2,0.6,1.8
		c0.1,1.1,0.5,1.9,1.3,2.6c0.6,0.6,1,1.5,1.2,2.3c0.6,2.1,1.9,3.7,3.2,5.4c3.3,4.1,6.7,8.2,10.4,11.9c0.4,0.4,0.6,0.8,0.8,1
		c2,0.3,3.6,0.6,5.2,0.9c1.1,0.2,2.2,0,3.3-0.5c4.2-1.7,4.9-2.5,5.9-6.9c1.4-6,2.2-12.1,2.1-18.3c-0.1-4.2-0.9-8.2-3.1-11.9
		c-1.4-2.2-2.8-4.5-4.2-6.7c-0.7-1-1.5-1.9-2.5-3.1c-1.1,1-1.5,2.2-2.2,3.1c-0.7,1-1.5,2-2.2,3.1c-0.1,0.1,0.1,0.5,0.1,0.7
		c0,0-0.1-0.1-0.1-0.1c0.8,0,1.6,0,2,0.8c0.5,0.8,0.4,1.7,0,2.5c-1.9,3.4-4.5,6.1-8.2,7.3c-1.5,0.5-3.1,0.9-4.8,1.1
		c-0.9,0.1-1.9-0.4-2.8-0.7c-0.8-0.4-1.3-1.5-1.1-2.2c0.2-0.9,0.8-1.6,1.7-1.8c1-0.2,2-0.1,3-0.3c2-0.3,3.9-0.9,4.9-2.9
		c0.2-0.1,0.8,0.1,0.3-0.4c-0.1,0.2-0.2,0.4-0.2,0.5c-0.7,0.1-1.5,0-2.2,0.2c-3.8,1-7.4,0.8-10.3-2.1c-1,0.1-1.1,0.8-1.3,1.4
		c-0.4,1.2-0.9,2.3-1.2,3.5c-0.8,3.2-2.4,6-4.3,8.6c-1,1.3-1.8,2.7-2.7,4l0.1,0.1c0-0.1,0.1-0.2,0.1-0.4c-0.4-3,0.4-5.6,2-8.2
		c0.6-1.1,1.1-2.3,1.7-3.4c1.6-2.9,2.5-5.9,3.2-9.1c1-5.3,2.7-10.4,4.6-15.4c0.4-0.9,1-1.8,0.6-2.8c0.1,0,0.2,0,0.3,0
		c0.1,0,0-0.2,0.1-0.2c-0.1,0.1-0.2,0.2-0.3,0.3c-0.9,0.3-1.8,0.7-2.8,1c-0.4,0.1-0.9,0.2-1.8,0.5c0.3-0.8,0.4-1.3,0.7-1.7
		c0.7-0.8,1.4-1.4,2.1-2.1c1.1-1.1,2.2-2.3,3.6-3.7c0.1,0,0.7-0.2,1.4-0.4c0.5-1,1-2.1,1.4-3.1c0.2-0.5,0.5-1.1,0.3-1.4
		c-1.1-1.9-0.2-3.7,0.2-5.5c1.7-8.4,3.7-16.7,5.1-25.1c1.5-8.8,1.9-17.8-0.6-26.6c-1-3.5-2-7-4-10.1c-1-1.6-1.8-3.3-2.1-5.2
		c-0.1-0.9-0.7-1.9-1.3-2.6c-1.6-2-2.5-4.3-3.4-6.7c-1.3-3.5-2.5-7.1-4-10.6c-1.1-2.5-2.5-4.9-3.8-7.3c-1.5-2.7-3.3-4.9-6.5-5.9
		c-1.6-0.5-3.1-1.7-4.8-2.7c-0.2,0.8-0.4,1.4-0.4,2c-0.2,2.3-0.3,4.5-0.4,6.8c-0.1,0.9-0.1,1.8-0.2,2.6c-0.6,3.6-1.4,7.2-1.9,10.8
		c-0.9,7.4-2.7,14.6-4.4,21.2c0.3,2,0.6,3.5,0.6,4.9c0.2,4.8,0.2,9.6,0.4,14.3c0.2,3.3,0.5,6.5,0.9,9.8c0.1,0.6,0.1,1.4,0.5,1.8
		c0.8,1,0.9,2,0.6,3.2c-0.1,0.5,0.2,1.2,0.3,1.8c0.8,3.4,1.8,6.9,0.4,10.4c0.5,1.8-0.6,3-1.3,4.5c-1.5,3.3-2.6,6.8-3.8,10.2
		c-0.2,0.5,0.2,1.2,0,1.8c-0.2,1.1-0.4,2.3-1,3.1c-0.7,0.8-1.1,1.7-1.1,2.7c0.1,1.9-0.7,3.4-1.3,5c-2.2,5.1-4.1,10.3-4.9,15.8
		c-0.3,2-0.5,4-0.4,6c0.2,3,0,6-0.2,9c-0.2,3.4-0.4,6.8-0.6,10.2c-0.1,1.9,0,3.7-0.2,5.6c-0.1,0.9-0.3,1.7-0.7,2.5
		c-1.2,2.5-2.3,5-3.8,7.4c-2,3.2-3.6,6.6-5.1,10.1c-4.4,10.4-7.8,21.3-11.1,32.1c-2.2,7.3-4.2,14.7-6.4,22.1
		c-1.4,4.7-3.4,9.2-5.4,13.7c-1.8,4-3.3,8.1-3.6,12.6c-0.3,5.1,2.4,9.1,6.7,10c0.7,0.2,1.4,0.4,2.2,0.6c2.3,0.7,4.5,1.5,6.3,3.3
		c0.3,0.3,0.8,0.6,1.1,0.8c1,0.1,0.9-0.9,1.5-1.2c1,0.2,0.9,1.1,0.9,1.8c0,0.9-0.5,1.7-0.4,2.6c0,0.5,0.6,1.1,1,1.4
		c0.6,0.4,1.3,0.1,1.7-0.4c0.4-0.5,0.7-1.1,0.8-1.6c0.2-1,0.2-2,0.3-3.1c-0.6-0.8-1.2-1.6-1.8-2.4c-0.8-1.1-1.9-1.9-3.2-2.4
		c-1.4-0.5-2.6-1.5-3.8-2.4c-0.5-0.3-0.7-1-1.1-1.8c0.7-0.1,1.3-0.4,1.6-0.2c3.2,1.9,6.4,3.8,9.6,5.8c1.1,0.7,1.7,1.9,1.2,3.3
		c-0.1,0.4-0.3,0.7-0.3,1.1c-0.1,1.4,0.1,2.8-0.8,4c-0.7,1-1.6,1.9-2.6,2.7c-1,1.4,0.3,3.4-1.4,4.9c-2-1.6-0.6-3.8-1.1-5.7
		c-0.6-0.9-1.3-1.8-1.8-2.7c-1.2-2.1-3-3.3-5.2-4.1c-2.4-0.8-4.8-1.5-7.2-2.3c-1.4-0.5-2.8-1.1-4.2-1.7c-0.5-0.3-1.1-0.8-1.2-1.3
		c-0.1-0.5,0.3-1.1,0.6-2c-0.6-1.5-1.4-3.2-2.1-4.9c-0.7-0.1-1.3-0.2-2-0.2c-14.3,0.1-28.7,0.2-43,0.1c-4.6,0-9.3-0.4-13.9-0.7
		c-1.9-0.1-3.7-0.6-5.8-1c-0.1,0.7-0.2,1.4-0.2,2.1c0,2.3-0.1,4.5,0,6.8c0.1,2.3-0.8,3.9-2.6,5.1c-2.9,1.9-5.9,3.8-9.6,3.8
		c-1.2,0-2.3,0.7-3.5,1.2c-0.7,0.3-1.3,0.8-2,0.9c-3.2,0.3-6.5,0.5-10.1,0.7c-1.3,0.7-2.9,1.7-4.5,2.6c-0.7,0.4-1.2,0.2-1.6-0.5
		l-0.1,0.1c1-0.6,1.9-1.1,3-1.7c0.6-1.7,1.2-3.5,1.8-5.3c0.3-0.9,0.8-1.9,2.2-2c1.3,1.3-0.5,4.2,1.8,4.9c1.9-0.2,3.5-0.4,5.1-0.6
		c1-0.1,2.2-0.1,2.9-0.7c1.7-1.3,3.7-1.6,5.6-1.9c3.3-0.6,6-2.4,8.6-4.4c0.9-0.7,1.3-1.8,1.3-3c-0.1-3-0.2-6-0.3-9c0-1,0-2-0.1-3
		c-0.1-1-0.3-1.9-0.5-2.9c-0.3-1.5-0.9-2.9-0.9-4.4c-0.4-7.9-1.3-15.8-1.1-23.7c0.1-3.6-0.6-7.2-0.8-10.9c-0.2-4.8-0.3-9.6-0.3-14.3
		c0.1-9.3,0.4-18.6,0.6-27.9c0-1.1-0.2-2.3-0.6-3.3c-1.6-5.2-2.6-10.5-2.4-16c0-1.5-0.1-2.9-1.1-4.3c-1.6-2.4-1.5-5.2-1.1-8
		c0-0.3,0.5-0.7,0.7-0.7c0.6-0.1,0.9,0.4,1,0.9c0.2,1.9,0.3,3.7,0.5,6.4c0.4-1.6,0.5-2.4,0.8-3.2c0.2-0.6,0.6-1.3,1-1.5
		c1.4-0.5,1.7-1.7,2.1-2.9c2.2-6.9,4.5-13.9,5.4-21.2c0.6-4.9,1-9.8,1.7-14.6c0.8-5.4,1.1-10.8,1.6-16.1c0.2-2.1,0.5-4.2,0.7-6
		c1.3-1.6,2.4-2.9,3.4-4.3c3.2-4.6,6.5-9.3,10.6-13.3c1-1,2.1-1.8,3-2.6c1.2,0.4,0.5,1.2,0.8,1.8c1.1,0.8,2.2-0.6,3.4-0.1
		c0.6,2.1,1.3,2.9,4.7,5.7c2.5-3.4,3.8-7.3,5.5-11c0.6-1.3,1.3-2.7,1.1-4.3c-1.2-1.5-3.1-2.1-4.1-3.9c1.8-0.3,2.5,1.7,4,1.7
		c0.7-0.3,0.7-1,0.7-1.6c0.1-3.5,0.3-7,0.4-10.6c0.1-9.3-0.3-18.6-1.7-27.8c-1.3-8.1-4.2-15.5-9.1-22.1c-0.1-0.2-0.4-0.3-0.7-0.5
		c-1.4,0-2.5,0.8-3.7,1.5c-3.4,1.9-6.5,4.3-9.4,6.9c-4.9,4.3-9.6,8.9-13.7,14c-0.2,0.3-0.3,0.7-0.4,1l0.1-0.1
		c-0.3,0.3-0.6,0.6-0.9,0.9l0.1-0.1c-0.7,0.4-1.5,0.8-2.2,1.3c-1.1,0.7-2,1.6-3.1,2.1c-2.7,1.2-4.8,3.2-7.3,5c0.1,1.5-0.4,2.8-1.5,4
		c-3.9,4.5-5.6,10-6.3,15.9c-0.5,4.3-0.8,8.5-0.7,12.8c0,2.5-0.1,5-0.2,7.5c-0.1,2.4-0.6,4.7-1.5,7c-1.7,4.5-3.2,9-4.7,13.5
		c-0.2,0.5-0.5,1.1-0.3,1.4c0.8,1.7-0.2,3.2-0.4,4.8c-0.4,3.1-1,6.2-1.1,9.3c-0.3,8.3,0.5,16.6,1.7,24.8c1,7.1,2.1,14.2,2.5,21.4
		c0.1,2-0.2,4-0.6,6c-0.1,0.8-0.8,1.5-1.3,2.4c0.8,2.6,2,5.2,2.2,8.1l0.1-0.1c-0.5-0.5-1.1-1-1.5-1.5c-0.5-0.7-0.8-1.5-1.4-2.9
		c-0.6,3.6-1.1,6.6-1.5,9.6c-0.1,0.4-0.1,0.8,0,1.1c1,3.1,0.4,6.2,0.7,9.4c0.4,3.5,1,7,1.6,10.4c1.3,7.7,2.6,15.4,3.8,23.1
		c0.2,1,0.4,2,0.4,3c-0.2,6.9,1.5,13.5,2.7,20.1c0.5,3.1,1.4,6.2,1.7,9.3c0.3,3.6,0.2,7.3,0.2,10.9c0,0.6-0.3,1.3-0.7,1.7
		c-2.2,2.1-3.5,4.8-5.4,7.1c-1.4,1.7-2.6,3.2-5,3.6c-1.4,0.2-2.6,1.4-3.9,2.2c-2,1.3-3.7,3-6.2,3.5c-0.8,0.2-1.4,0.9-2.1,1.4
		c-1-0.3-0.9-1-0.6-1.5c0.5-0.7,1.2-1.4,1.9-1.7c2.2-0.7,4-2.1,5.8-3.4c2-1.4,3.8-2.8,6.2-3.4c0.7-0.2,1.3-0.7,1.8-1.2
		c1.7-1.9,3.2-3.8,4.9-5.8c1.4-6.2,0.6-12.5,0-18.8c-0.4-4.5-1.2-9-1.9-13.4c-0.6-3.8-1.4-7.7-2-11.5c-1.6-9.7-3.3-19.3-4.7-29
		c-0.7-5.1-0.9-10.3-1.2-15.4c-0.3-5.2,0.6-10.3,1-15.4c0.1-0.9,0.7-1.8,1.2-3c-1-3.8-1.3-8.1-1.5-12.4c-0.3-5.5-0.9-11-1.1-16.5
		c-0.2-5.7-0.2-11.3-0.3-17c0-1.5-0.2-3-0.3-4.5c-0.1-1-0.2-2-0.1-3c0.7-5.1,1.8-10.1,3.5-15c1.8-5.3,3.6-10.7,5.4-16.1
		c0.2-0.7,0.4-1.5,0.4-2.2c0-1.8-0.1-3.5-0.1-5.3c-0.3-6.7,0-13.3,1.2-19.9c0.6-3.4,1.7-6.6,3.4-9.5c0.6-1,1-2,1.4-3.1
		c0.6-1.7,1.6-3.2,3-4.3c2.3-1.7,4.4-3.7,7.1-4.9c2.2-1,4.1-2.4,5.6-4.4c-0.4-0.6-0.6-1-0.9-1.4l-0.1,0.1c0.7-0.1,1.5-0.1,1.9-0.9
		c0.2-0.3,0.4-0.7,0.5-1c1.7-4,4.6-7.2,7.7-10.1c1.2-1.1,2.2-2.4,2.8-3.9c1.4-3.3,3.7-6,6.1-8.6c1.5-1.7,3.1-3.3,4.6-5
		c3.2-3.7,7-6.5,11.5-8.4c6.8-2.9,14-5,21.2-6.8c6.1-1.5,12.3-2.4,18.6-3.1c0.4,0,0.7-0.2,1.1-0.3c0.9-1,0.7-2.4,0.9-3.6
		c0.7-4.9,2.2-9.6,5-13.7c0.9-1.4,2-2.6,3-3.9c-0.1-0.9-0.8-0.9-1.4-0.9c-2-0.1-4-0.2-6-0.2c-4.2,0-8.3,0.2-12.5,0
		c-3.7-0.2-7.2,0.6-10.7,1.9c-2.6,1-5.2,1.9-7.8,2.8c-3.6,1.2-7,2.9-10.2,4.9c-3.1,1.9-6.2,3.7-9,6.2c-1.7,1.6-4,2.6-6.1,3.7
		c-1.5,0.8-3.2,1.5-4.8,2.2c-3.3,1.4-6.3,3.1-9.1,5.3c-1.7,1.3-3.4,2.6-5.7,2.8c-0.6,0.1-1.3,0.7-1.8,1.2c-3,2.8-5.2,6.2-6.5,10
		c-2.2,6-4.2,12.1-5.4,18.5c-1,5-0.8,10-0.7,15.1c0,1.6,0.2,3.3,0.2,4.9c0,0.3-0.3,0.7-0.6,0.8c-0.6,0.3-1-0.1-1.1-0.6
		c-0.3-1.6-0.7-3.2-0.7-4.8c-0.1-8.2,0.2-16.4,2.7-24.3c0.4-1.2,0.6-2.4,0.8-3.7c1.7-9.6,6.8-16.9,14.9-22.3
		c1.9-1.3,3.8-2.4,5.8-3.6c1.2-0.7,2.4-1.4,3.9-0.9c0.4,0.1,1-0.2,1.4-0.3c1.2-0.4,2.3-0.9,3.5-1.3c1.2-0.4,2.2-1.1,3-2.1
		c1.5-1.8,3.4-3.3,5.5-4.6c4-2.4,7.8-5.2,12-7c2-0.9,4-1.6,6-2.3c3.2-1.2,6.4-2.2,9.6-3.4c3.1-1.2,6.2-2,9.5-1.9
		c5.7,0.2,11.3,0.2,17,0.4c2.3,0.1,4.5,0.4,7.1,0.6c0.4-0.3,1.2-0.7,1.9-1.3c8-6,17-9.7,27-10.9c3.6-0.4,7.3-0.5,10.9-0.2
		c5.3,0.5,9.8,2.9,13.4,7c0.2,0.3,0.4,0.7,0.7,0.9c2.8,1.5,4,4.4,5.6,6.9c2.3,3.6,4.5,7.2,7.5,10.4c0.8,0.8,1.4,1.7,2.1,2.7
		c4.8,7,11.4,11.2,19.7,12.8c3.2,0.6,6.4,1.2,9.7,1.8c7.1-5.2,12.4-16.9,9.5-25.3c0.6,0.2,1.2,0.3,1.4,0.6c0.6,0.7,1.2,1.6,1.7,2.4
		c0.8,1.6,1.4,3.2,2.2,4.8c1,2.1,1.2,4.4,1.4,6.6c0.3,3.7-0.2,7.3-1.2,10.8c-1.4,4.8-3.6,9.1-6.6,13c-4.9,6.3-11.4,9.8-19.6,9.5
		c-2.8-0.1-5.5,0-8.2-0.8c-2.3-0.7-2.3-0.7-4.5-2.6c0.8-0.6,1.3,0.3,2,0.4c0.6,0.1,1.2,0.4,1.8,0.5c5.6,0.6,11.1,0.5,16.4-1.3
		c3.4-1.1,6.3-3.2,8.6-5.9c4.5-5.1,7.5-11,8.9-17.7c0.2-1,0.2-2-0.1-3c-0.4,1.2-0.7,2.4-1.2,3.6c-3.2,8.2-8.3,14.6-16.2,18.7
		c-5.6,2.9-11.5,3.4-17.6,2.5c-1.9-0.3-3.7-1-5.2-2.2c-0.4-0.4-0.6-1-0.9-1.5l-0.1,0.1c7.9,3.8,15.7,2.7,23.2-1.2
		c8.2-4.4,13.2-11.4,15.7-20.3c0.7-2.6,0.6-5.2,0.2-8.2c-1.6,7.7-5.4,13.8-11,18.8c-3.9,3.5-8.4,5.5-13.6,5.7
		c-2.8,0.1-5.5,0.1-8.3-0.1c-2.1-0.1-4.2-1-5.9-2.2c-0.7-0.5-0.7-0.5-1.7-2.7c5.5,4.2,11.6,3.8,17.7,3c3.2-0.4,6.3-1.3,8.8-4.1
		c-2.6-0.2-4.8-0.4-7.1-0.7c-6.6-0.7-12.3-3.5-17.1-8.1c-3.5-3.3-6.6-7-9.1-11c-2.9-4.6-7.1-7.7-11.7-10.4c-1.4-0.8-3-1.2-4.6-1.8
		c2.8-1.2,3.3-1.1,9.6,2.2c-0.8-3.7-2.3-5.9-5.2-7.5c-3.2-1.8-6.7-2.9-10.4-2.9c-5.9-0.1-11.8,0.3-17.6,1.5c-4.8,1-8.6,3.3-11.8,7
		c-4.3,4.9-6.9,10.5-8.1,16.8c-0.7,3.8-0.8,7.7-1,11.9c0.6,0,1.2,0.1,1.4-0.1c0.6-0.7,1.2-1.2,2.2-1c-0.1-1.7-0.2-3-0.3-4.4
		c-0.3-4.2,0.9-8,2.8-11.6c2.6-4.7,6.3-8.5,10.9-11.2c6.3-3.7,13.1-5.6,20.3-6.4c0.6-0.1,1.2,0,1.9,0.1c-4.3,0.9-8.7,1.9-12.8,3.5
		c-6.5,2.5-12,6.4-16,12.1c-0.5,0.7-0.8,1.5-1.2,2.3c-0.2,0.5-0.4,1-0.7,1.6l-0.3,0.1l0.2-0.2c0.3,0,0.5,0,0.8,0.1
		c0,0.5,0.1,1.1,0.1,1.6c-2,1.3-2.7,2.9-2.6,6c0.7-0.9,1.4-1.4,1.7-2.2c0.4-1.3,0.6-2.6,0.8-3.9c0.2-0.5,0.5-1,0.7-1.5l0.1-0.1
		l-0.1,0.2c-0.3,0-0.6,0-0.9,0c0-0.6,0-1.2,0-1.7c1,0.1,1.4-0.9,2.1-1.4c1.7-1.3,3.3-2.6,5-3.8C292,31.6,292.8,31.5,293.4,31.2
		L293.4,31.2z M325.9,65.4l-0.1-0.2L325.9,65.4c0.3,0.2,0.5,0.4,0.8,0.6c0.2,0.3,0.5,0.5,0.7,0.8c2,2.4,2,2.4,4,3.4
		c-1.1-2.4-1.4-2.7-4.1-3.3c0.1-0.6-0.2-0.8-0.8-0.8C326.4,65.9,326.1,65.6,325.9,65.4z M243.5,72.9c-0.2,0.5-0.5,1-0.7,1.5
		c-1.9,1.2-3,3-3.5,5.1c-1.1,4-1.5,8-1.5,12.2c1.4-5.5,2.7-10.9,4.9-16.2c0.1-0.3,0-0.7,0-1.1C243.6,74.1,243.4,73.4,243.5,72.9
		l0.1-0.1L243.5,72.9z M297.3,82.6c0,0.6,0.1,1.2,0.1,1.9c0.6-0.8,0.5-1.4-0.3-1.8c-0.1-0.8-0.1-1.6-0.2-2.6
		C296.4,81.2,296.5,82,297.3,82.6z M320,54.6c0,0.5,0.1,1,0.1,1.5c0.1,0,0.3-0.1,0.4-0.1C320.3,55.5,320.1,55.1,320,54.6
		c-0.1-1.5-0.1-3.2-0.2-4.8c0-0.5-0.5-1-1-1.8c-0.6,2.1-0.3,3.6,0.2,5.2C319.2,53.7,319.2,54.4,320,54.6z M302.4,118.8
		c0.2-0.2,0.5-0.3,0.5-0.5c1-3.7,1.9-7.5,1.8-11.4c0.1-0.5,0.3-0.9,0.4-1.4c-0.1,0-0.1,0-0.2,0c0,0.5-0.1,1-0.1,1.5
		c-0.2,0.3-0.5,0.6-0.6,0.9c-0.3,1.6-0.6,3.2-0.8,4.8C303.1,114.7,302.8,116.8,302.4,118.8c0,0.3-0.1,0.5-0.1,0.7
		C302.3,119.2,302.4,119,302.4,118.8z M240.6,88.8c-0.2,0.2-0.5,0.3-0.5,0.5c-0.4,2.1-0.7,4.2-1,6.3c-0.8,5.1-0.7,10.2-0.7,15.4
		c0,3.3,0.9,6.4,1.3,9.6c0.1,0.5,0.4,0.9,0.7,1.3c0.1,0.1,0.4,0.1,0.7,0.2c-0.2-1.9-0.5-3.7-0.7-5.6c-0.5-6-0.4-12-0.1-18
		C240.4,95.2,240.4,92,240.6,88.8c0.7-0.8,0.6-1.6,0-2.5C240.6,87.1,240.6,88,240.6,88.8z M328.2,64.5c0,0.4,0,0.8,0.5,0.3
		C328.5,64.7,328.4,64.6,328.2,64.5c0-0.5,0.1-1-0.1-1.5c-1.1-2.5-1.6-5-1.5-7.7c0-0.5-0.2-1-0.3-1.3c-3.4-3.3-3.4-3.3-5.7-3.9
		c0.5,5.9,2.6,10.7,7.2,14.4C327.9,64.6,328.1,64.5,328.2,64.5z M286.6,59.3c0-0.1,0-0.2-0.1-0.3c0,0-0.1,0-0.2,0
		C286.4,59,286.6,59.1,286.6,59.3c0.3,0.8,0.4,1.6,0.7,2.4c2.4,6.1,4.3,12.3,5.8,18.7c0.1,0.5,0.2,1,0.3,1.5
		c0.1,0.5-0.1,1.1,0.5,1.5c0.8-0.9,0.9-1.8,0.6-2.9c-0.4-1.8-0.4-1.8,0.2-3.5c0.3,0.3,0.6,0.5,0.8,0.7c0.2,0.2,0.3,0.4,0.7,0.8
		c-1-5.7-3.7-12.8-6.4-17.2C289.1,60,288.3,59,286.6,59.3z M301.1,88.6c-0.4-0.5-0.9-1.1-1.4-1.7c-0.9,1-0.9,2.2-0.6,3.5
		c1.3,4.7,2.4,9.5,2.9,14.4c0,0.3,0.3,0.6,0.6,1.4c1.9-9.6,2.3-14.4,1.5-17.8c-0.5-0.1-0.9-0.1-1.3-0.2c-0.4-3.5-0.5-6.9-1.1-10.2
		c-0.6-3.4-1.7-6.7-2.6-10.1c0.5,0.2,0.9,0.3,1.4,0.5c0.1-0.3,0.2-0.5,0.2-0.7c-0.4-1.6-2-2.2-3.1-3c-1.5-1.1-1.6-1.1-3.2-1.3
		c0,0.1-0.1,0.2-0.1,0.3c3.3,6.6,4.7,13.8,6.2,20.9C300.9,85.9,300.9,87.3,301.1,88.6L301.1,88.6z M234.3,85.5L234.3,85.5
		c0.6-0.9,1.1-1.9,1.5-2.9c0.3-0.8,0.7-1.7,0.6-2.5c-0.5-3.2,0.6-5.9,2.3-8.5c3-4.7,6.7-8.7,11.2-12c2.3-1.7,4.9-3,7.8-3.6
		c1.9-0.4,3.9-0.7,5.6-1.9c1.5-0.8,2.5-0.3,3.5,1.2c-0.4,0.4-0.8,0.8-1.2,0.9c-1,0.2-1.6,0.6-1.5,1.7c0,0.4-0.3,1-0.6,1.3
		c-1.1,0.7-1.3,1.9-1.5,2.9c-0.4,2.1-0.9,4.2-0.9,6.3c-0.2,5.1-0.2,10.3-0.1,15.5c0,1.5,0.3,3,0.5,4.5c0.9,5.9,2.6,11.5,4.4,17.1
		c0.3,1,0.8,2,0.7,3.4c-1.7-1.3-2.1-2.9-2.6-4.4c-3-8.6-5.1-17.3-4.8-26.5c0.1-1.9,0-3.8,0.1-5.7c0.1-3.6,0.4-7.3,1.3-10.8
		c0.1-0.4,0-0.9,0-1.3c-3.5,0.1-6.4,1-8.7,3.3c-1.3,1.3-2.4,2.5-3.2,4.2c-0.3,0.8-0.8,1.5-1.2,2.3l-0.1-0.2l0.2,0.1
		c-0.3,1.1-0.6,2.2-1,3.2c-1.5,3.6-2.6,7.3-3.3,11.1c-0.5,2.9-1.3,5.9-0.8,9.3c0.8-3.6,1.4-6.7,2.1-9.9c0.1-0.3,0.4-0.6,0.6-0.8
		l-0.1-0.1c-0.1,1.4-0.2,2.7-0.3,4.1c-0.6,4.7-1.2,9.5-1.8,14.2c-0.2,1.7-0.2,3.5-0.2,5.3c0,1.6,0,3.3,0,4.9c0,1.8,0,3.5,0,5.3
		c0,1.6-0.1,3.3,0.1,4.9c0.3,1.7,0.9,3.3,0.2,5c-0.1,0.4,0.2,1,0.3,1.5c0.2,1.1,0.4,2.1,0.8,4c-2.5-2.7-1.7-5.7-2.8-8.3
		c-0.6,0-1.2,0.1-2,0.1c-0.1,1.6-0.3,3.1-0.4,4.6c-0.3,2.8-0.3,5.5,0.9,8.1c0.3,0.7,0.5,1.5,0.5,2.2c0,4.2,2,7.7,3.8,11.3
		c0.8,1.6,1.5,3.2,2.3,4.7c2.3,4.5,4.9,8.8,9.2,11.7c0.9,0.6,1.8,1.4,2.5,2.3c0.3,0.4,0.1,1.4,0.5,1.7c1.7,1.3,3.1,3,5.2,3.7
		c1.2,0.4,2.3,0.5,3.5-0.2c-1.5-1.4-1.5-1.4-3.2-2c-2.3-0.8-2.9-1.4-4.5-4.4c0.7,0.2,1.1,0.3,1.5,0.5c1.5,0.8,3.1,1.7,4.6,2.6
		c1.4,0.8,2.8,1,4.4,0.9c0.6-0.1,1.2-0.3,1.4-1l-0.1,0.1c0.8,0.1,1.7-0.8,2.3,0.5c-0.6,0.9-1.2,1.9-1.9,3c3.5-0.1,5-0.9,6.6-3.1
		c2.1-2.9,4.2-6,7.1-8.3c0.6-0.5,1-1.1,1.4-1.8c2.1-3.1,4.2-6.3,6.2-9.4c0.9-1.4,1.7-2.8,2.1-4.4c1.3-4.8,2.4-9.7,3.5-14.5
		c-0.5-0.2-0.8-0.4-1.1-0.5c0.1-2.1,1.5-4,1.1-6.2c0.1-0.1,0.1-0.2,0.2-0.2c0,0.1-0.1,0.2-0.1,0.3c-0.6,0.2-1.3,0.5-1.9,0.7
		c0.6-3.3,0.9-6.6,0.2-10.9c-1.6,5.5-2.4,10.3-3.7,15c-0.8-0.6-1.3-1-2.2-1.6c1.1-0.2,1.8-0.6,1.5-1.7c0.2-0.4,0.5-0.9,0.6-1.3
		c1-4.5,2.1-9,2.9-13.6c1-5.1,1.3-10.2,0.5-15.3c-0.3,9.9-1.2,19.7-5.3,28.8c0.5,0.5,0.9,1,1.3,1.4c-0.4,0-0.8-0.1-1.1,0
		c-2.5,1.7-5.2,3-7.3,5.2c-0.3,0.3-0.7,0.8-1.4,0.2c1-2,2.6-3.9,2.9-6.3c0.8-0.6,0.7-1.5,0.8-2.3c1.2-1.2,1.4-2.9,1.8-4.4
		c2.7-9.7,4.5-19.6,5.4-29.6c0.1-0.8-0.1-1.8-0.3-2.6c-2.2-7.3-4.5-14.7-6.9-22c-0.7-2.1-1.7-4.2-2.6-6.3c-0.3-0.7-0.7-1.3-1.2-1.9
		c-0.3-0.3-0.8-0.6-1.4,0c-0.2,1,0.5,1.8,0.8,2.7c2.5,6.2,4.8,12.4,5.9,19c0.3,2,0.3,4,0.4,6c0,0.5-0.1,1-1.2,0.9
		c-2.8-9.7-5-19.8-9.7-29c-2.2-0.1-4.2-0.2-6.1-0.3c-1,1.8-1,1.8-1,3.1c-0.1,2.4-0.1,4.8-0.4,7.2c-0.5,4.6-1.2,9.2-1.3,13.9
		c0,4-0.1,8.1-0.1,12.1c0,1.3-0.1,2.6-0.1,4c-0.5-3.1-1.1-6.2-0.6-9.4c0.2-1.2,0-2.5,0.1-3.8c0.1-3.4,0.2-6.8,0.5-10.2
		c0.2-3.1,0.8-6.2,1.1-9.4c0.2-2.2,0.2-4.5,0.1-6.8c-0.1-1.9-0.5-3.6-1.5-5.4c-2-3.4-2.2-7.7-0.7-12.7c0.2,1.8,0.3,2.8,0.4,3.9
		c0.1,1.1,0,2.3,0.2,3.4c0.1,1.1-0.2,2.3,1.4,3c0.1-2.6,0.1-5.1,0.1-7.6c0-2.3,0.2-4.5,0.9-6.7c0.1-0.2,0.4-0.4,1.1-1
		c-1,5.7-0.3,10.8-0.3,15.9c0,1,0.2,2,0.4,3c0.1,0.5,0.5,0.8,1.3,0.6c0.5-1.4,0.1-2.9,0.1-4.3c-0.5-8.5,1.7-16.2,6.8-23
		c0.4-0.6,0.7-1.3,1.1-1.9c0.1,0,0.2,0,0.3-0.1c0,0,0-0.2,0-0.2c-0.1,0.1-0.2,0.3-0.3,0.4c-0.6,0.2-1.4,0.2-1.7,0.5
		c-1.2,1.6-2.7,2.8-4.7,3.4c-0.3,0.1-0.6,0.4-0.9,0.7c-5.5,4.6-9.4,10.3-10.5,17.6c-0.4,2.4-0.3,4.9-0.4,7.4
		c-0.6-1.2-1.3-2.4-1.9-3.6c-7.3,0.8-14.5,1.9-21.5,3.8c-6.4,1.7-12.8,3.6-18.9,6.4c-2.6,1.2-5.2,2.6-7.4,4.5
		c-0.6,0.6-1.2,1.3-1.8,1.9c-1.1,1.4-2.1,2.8-3.2,4.1c-1.6,1.8-3.3,3.5-4.8,5.3c-0.6,0.7-1.4,1.4-1.4,2.8c1.8-1.1,3.3-2,4.9-3
		c2.3-1.4,4.7-2.4,7.3-3.1c1.2-0.3,2.2-0.3,3.2,0.6c0.4,2.4,0.3,2.4,1.6,4c3.6,4.4,6,9.3,7.5,14.7c3.7,12.5,4.4,25.2,3.7,38.1
		c-0.1,1.8-0.4,3.5-0.4,5.3c0,2-0.4,4-0.9,5.9c-1.2,4-2.8,7.8-4.8,11.5c-1,1.8-2,3.5-2.8,5.3c-0.5,1.2-1.5,1.5-2.6,2.1
		c0.6,1.3,1.1,2.5,1.7,3.8c2.4,5.4,6.4,9.1,11.6,11.9c8.1,4.3,16.6,5.6,25.6,5.1c0.6,0,1.4-0.1,1.8-0.4c2.7-2.2,6-2.9,9.4-3.8
		c-1.7,1.6-3.2,3-4.7,4.4c-0.4,0.3-0.8,0.5-1.3,0.8c-2.7,1.5-5.6,2.4-8.6,2.7c-8.3,0.8-16-0.9-23.2-5c-2.6-1.5-5.1-3.3-6.9-5.8
		c-3.1-4-5.5-8.4-7.1-13.2c-0.2-0.7-0.4-1.4-0.5-2.2c-0.1-0.5,0.1-1,0.2-1.6c-1.3-1.3-2.6-2.7-3.8-3.9c-4.1,0.7-4.1,0.7-5.5,3
		c0.2,0.5,0.5,1.1,0.8,1.7c4.7,8.2,9.8,16.2,16.5,22.9c5.8,5.8,11.8,11.4,17.7,17.1c3.6,3.5,7.3,7,10.8,10.6
		c2.6,2.7,4.9,5.7,7.4,8.6c2.8,3.4,5.8,6.6,8.5,10.1c1.5,2,3.3,3.3,5.6,4.3c5,2.3,10.3,3.3,15.7,4c0.2,0,0.4-0.3,0.6-0.5
		c-0.5-1.3-1.8-1.6-2.8-2.3c-0.9-0.7-2.3-0.9-2.9-2.2c2.1-1.2,3.4,0.8,5.2,0.9c0.5-3.5,1-6.9,1-10.4c0-2.2,0.3-4.3,1.4-6.2
		c1.1-2.1,1.7-4.5,2.2-6.8c0.2-1,0.3-2,0.7-2.9c1.3-2.9,2.2-5.9,2.5-9c0.2-2,1.3-4,1-5.9c-0.3-1.9-1.7-3.6-2.7-5.4
		c-0.3-0.6-0.6-1.1-0.9-1.8c-0.9,0.1-1.8,0-2.6,0.3c-3.9,1.1-7.8,1-11.6,0c-3.8-1-7.4-2.4-11.1-3.6c-0.3-0.1-0.6-0.4-0.9-0.6
		c0.7-0.4,1.2-0.3,1.6-0.2c2.2,0.6,4.4,1.2,6.6,1.7c5.7,1.4,11.5,0.6,17.3,0.5c0.7,0,1.5-0.2,2.2-0.5c2-0.8,3.9-1.7,5.8-2.6
		c1-0.4,1.6-1.2,1.9-2.2c0.7-2.4,1.5-4.8,2.2-7.1c-0.6-0.7-1.3-1.2-1.6-1.8c-1-2.2-1.9-4.4-2.7-6.6c-0.5-1.4-1.2-2.8-0.3-4.3
		c0.1-0.2-0.1-0.7-0.1-1.1c-0.2-1.4-0.4-2.7-0.5-4.1c-0.1-5.3,0-10.6-0.1-15.9c0-0.8,0.3-1.7-0.5-2.4c-0.7,0-0.9,0.5-1,0.9
		c-0.5,1.8-0.9,3.7-1.4,5.5c-0.6,2.1-0.7,4.1,0,6.3c0.4,1.2,0.4,2.5,0.7,3.7c0.6,3.5,0.1,7,0.7,10.4c0.3,1.7,0.3,3.5-0.6,5.2
		c-1.4,2.4-2.8,4.8-5.2,6.4c-1.5,1-2.9,2-4.4,2.9c-4.5,2.8-9.2,3.1-14.1,0.8c-2.5,1.2-5.3,1.5-8,1.6c-3,0.1-6,0.1-9,0.1
		c-1.2,0-2.5,0.2-3.7,0.4c-3.1,0.4-6.2,0.9-9.4,0.7c-6.4-0.6-11.8-3.4-16.4-7.8c-1.1-1-2.2-2.1-2.7-3.5c1.3-1,0.8-2.6,1.2-3.9
		c1.2-3.6,2.2-7.2,3.2-10.9c1.9-7,4.1-14,5.2-21.2c0.2-1.5,0.3-3,0.2-4.5c-0.1-2.1-0.3-4.3-0.8-6.3c-0.4-1.4,0.8-2,0.9-2.8
		c-0.4-1.6-0.8-2.9-1.1-4.3c-0.2-1.5-0.4-3-0.4-4.5c0-5.5,0.1-11.1,0.1-16.6c0-0.9,0.1-1.8,0.1-2.6c0-0.8,0.1-1.7,0.2-2.4
		C235,85.8,234.7,85.7,234.3,85.5z M205.7,158.5c-3.9,4.6-6.7,9.5-10.9,13.3c-0.3,5.9-0.7,12-0.9,18c-0.2,4.7-0.1,9.3-0.2,14
		c-0.2,6.6-1.1,13-3.5,19.2c-1.7,4.6-3.9,9-6.3,13.3c-0.8,1.3-1.4,2.6-1.4,4.2c0,4.5,0.3,9.1,1.5,13.5c0.5,1.9,0.7,3.7,0.8,5.6
		c0,4.7-0.1,9.3,0.2,14c0.5,9.8,0.5,19.6,0.5,29.4c0,6.2,0.2,12.3,0.6,18.5c0.4,6.1,1.3,12.3,1.9,18.4c0.2,2,0.3,4,0.4,5.8
		c1,1.2,2.2,1.4,3.5,1.6c5,0.8,10,0.5,15.1,0.3c4.4-0.2,8.8-0.5,13.2-0.6c8.7-0.2,17.4-0.3,26-0.4c1.5,0,3,0.2,4.5,0.4
		c1.3,0.1,2.5,0.4,3.8-0.5c0.2-0.5,0.4-1,0.6-1.6c1.1-3.2,2.2-6.4,3.4-9.6c0.9-2.4,2-4.6,2.9-7c2.8-7.5,5.5-15.1,6.7-23.1
		c0.2-1.5,0.5-3,1-4.4c3-10.3,6.3-20.4,10.3-30.4c0.9-2.3,1.9-4.6,2.8-6.7c-1.7-2.6-3.3-5-4.9-7.4c-0.3-0.5-0.6-1.1-1-1.6
		c-1.6-1.6-2.4-3.6-3-5.6c-1.5-4.6-2.6-9.2-2.4-14.1c0-1,0-2,0-2.5c-4.3-4.9-8.3-9.3-12.3-13.9c-2.1-2.5-4.1-5.1-6.3-7.6
		c-1.3-1.5-2.7-3-4.3-4.2c-6.5-4.8-12.2-10.5-18.1-15.9c-9.2-8.6-16.6-18.5-22.5-29.6C206.8,160.3,206.4,159.6,205.7,158.5z
		 M328.9,222.4c1.8,3.2,4.6,4.1,8.1,3.5c0.7-0.1,1.5-0.2,2.2-0.5c3.8-1.5,6.9-3.8,8.2-7.8c1.6-4.8,2.8-9.6,4.3-14.4
		c0.8-2.5,0.6-4.9-0.2-7.4c-1.1-3.1-2-6.2-3-9.3c-1.8-5.2-3.4-10.5-6-15.4c-0.1-0.2-0.5-0.4-1-0.7c-0.7,3.4-1.4,6.6-1.9,9.8
		c-0.4,1.9-1.3,3.9-0.2,5.9c0.2,0.3,0,0.7-0.1,1.1c-0.7,3.3-1.2,6.7-2.5,9.9c-3,7.9-5.6,15.8-7.8,24
		C328.9,221.4,328.9,221.9,328.9,222.4z M260.9,174.9c-0.5-0.6-0.7-1-1-1.2c-1.8-1.2-3.3-2.6-4.6-4.4c-1.2-1.7-3.1-2.9-4.1-4.9
		c-2.2-0.7-2.8-2.8-3.9-4.4c-1-1.6-2-3.2-2.9-4.6c-3.6-0.5-6.6-2.3-9-5.4c2.2-0.7,3.6,1.4,5.9,1.5c-0.5-1.1-0.9-1.9-1.2-2.6
		c-1.2-2.7-2.1-5.4-2-8.4c0-0.7-0.1-1.5-0.2-2.3c0-0.2-0.3-0.4-0.7-0.9c-2.7,9.6-5.3,18.9-8.9,28.1c0.8,0.7,1.5,1.5,2.4,2.2
		c1.2,0.9,2.4,1.8,3.7,2.5c3.9,2.2,8,3.5,12.4,4.1C251.6,174.9,256,174.4,260.9,174.9z M287.5,238.2c-1.9-0.9-3.7-0.7-5.2-1.3
		c-1.6-0.6-3.4-1-5-1.6c-1.6-0.6-3.1-1.3-4.9-2.1c-0.5,6.2,0.9,11.7,2.9,17.2c0.1,0.3,0.3,0.8,0.6,0.9c1.2,0.6,1.4,1.7,1.9,2.7
		c1.2,2.5,3.7,5.2,5.9,6.5c0.5-0.7,1-1.4,1.6-2c2.6-2.5,3.6-6,5-9.1c0.6-1.3,0-2.3-1.4-3.1c-0.2-0.1-0.4-0.3-0.7-0.3
		c-1.9-0.5-2.1-1.9-1.6-3.5C283.9,240.2,284.8,239.6,287.5,238.2z M294.2,56.5c0.5,0.3,0.7,0.5,1.1,0.7c3.5,1.6,6.3,4.1,8.2,7.5
		c0.5,0.8,1.1,1.7,1.9,2.3c1.6,1.2,2.5,2.8,3.2,4.5c0.9,2.2,1.4,4.5,1.6,6.9c0.1,0.8,0.3,1.7,0.5,2.7c1.7-0.5,3.1,0,4.5,0.8
		c0.4,0.3,0.8,0.6,1.3-0.1c-0.2-0.4-0.4-0.8-0.6-1.3c-1.5-4.8-3.2-9.5-5.4-14c-0.2-0.3-0.4-0.8-0.3-1c0.7-1.4-0.2-2.4-0.8-3.4
		c-0.6-1.2-1.3-2.4-1.9-3.6c-0.4,0.1-0.7,0.1-1.1,0.2c-2.7-4.6-5.3-9.4-9-13.4c-1.8,0.5-3.6,0.7-4.8,2.1
		C293.2,50.3,293.7,53.3,294.2,56.5z M297.6,155.9c0.2-1.9-0.3-3.7-0.6-6.1c-0.8,1.1-1.2,1.6-1.6,2.2c-2.4,3.7-4.8,7.3-7.3,11
		c-1,1.5-2,2.8-3.7,3.6c-1.1,0.6-2,1.8-2.8,2.9c-0.5,0.7-0.6,1.6-1,2.3c-0.5,0.7-1.2,1.1-2,1.8c3.9,0.6,5.3,0.4,8.2-0.8
		c3.3-1.4,8.7-5.4,11.6-8.5c-0.1-1.8-0.3-3.8-0.4-5.5c-0.7-1-2-0.8-2.4-1.9C296.3,156.5,296.9,156.2,297.6,155.9z M286.8,129
		c2.9-2,3-1.9,3.6-3.3c0.8-2.1,1.6-4.2,2.2-6.4c2.4-8.5,2.8-17.3,2.7-26.1C293.3,105.1,291.6,117,286.8,129z M298.1,121.3
		c0.3-0.2,0.5-0.3,0.6-0.4c0.3-0.6,0.6-1.1,0.7-1.7c1.3-5.7,0.9-11.5,0.3-17.2c-0.1-0.8-0.4-1.6-0.6-2.5c-0.4,2.4-0.5,4.8-0.5,7.2
		c-0.1,2.5-0.2,5-0.1,7.5C298.6,116.6,297.5,118.9,298.1,121.3z M301.8,68.4c1.2,4.2,2.3,7.7,3.3,11.1c0.4-0.9,0.5-1.7,0.6-2.5
		c0-1.6,0-3.2,0-4.8C304.6,70.9,303.7,69.8,301.8,68.4z M307.4,79.9c-0.3,4.4-1.3,8.8,0,14c0.4-1.5,0.8-2.1,0.8-2.8
		C308,87.4,307.7,83.7,307.4,79.9z M300.7,186.9c0.7-2.1,1.7-3.6,1.8-5.9c-1.6,0.7-2.9,1.3-4.4,1.9
		C299,184.3,299.7,185.4,300.7,186.9z M280.6,50.5c1.1,1,2.2,2,3.7,3.4c-0.3-1.3-0.6-2.1-0.7-2.9c-0.2-0.8-0.2-1.7-0.3-2.6
		C281.9,48.5,281.1,49.1,280.6,50.5z M286.6,54c1.2,0.7,2.3,1,4,0.9c-0.8-1.4-1.3-2.4-2-3.5c-0.1-0.1-0.4-0.1-0.8-0.2
		C287.4,52.1,287.1,53,286.6,54z M290.7,47.8c0.5,5.5,0.5,5.5,2.1,7.7C292,52.8,292.1,50.5,290.7,47.8z M298.3,86.5l0.1,0l0-0.3
		L298.3,86.5z M241.7,83.2c0,0.1,0,0.2-0.1,0.3c0.1-0.1,0.1-0.1,0.2-0.2C241.8,83.3,241.7,83.2,241.7,83.2z M269.8,174.4
		c0.1,0,0.2,0.1,0.3,0.1c-0.1-0.1-0.1-0.2-0.2-0.3C269.8,174.3,269.8,174.4,269.8,174.4z"/>
	<path d="M298,500.4c-0.4,0.3-0.8,0.7-1.2,0.7c-1.1,0.1-2.3,0.1-3.4,0.1c-12.6-0.1-25.2,0.3-37.8,0.7c-5.7,0.2-11.3,0.1-17,0.1
		c-2,0-4,0.1-6,1c-0.7,1.2-0.5,2.6-0.5,4c0,10.7,0.1,21.4,0.3,32.1c0.1,4,0.5,8,0.8,12.1c0.1,1.1,0.3,2.2,0.4,3.4
		c1.7,0.8,3.5,0.9,5.2,0.9c4.1,0.2,8.3,0.4,12.4,0.4c13,0,25.9-0.2,38.9-0.2c4.7,0,9.3,0.2,14,0.5c2.8,0.2,5.5,0.6,8.2,1
		c3.1,0.5,6.2,1,9.7,1.6c0.7,1.1,2.1,1.9,3.7,2.3c1.6,0.4,2.6,1.6,3,3.1c2.3,8,5.8,15.5,8.6,23.3c0.3,0.8,0.6,1.7,0.8,2.5
		c0.8,2.8-0.9,5.3-3.8,5.7c-0.4,0-0.8,0-1.1,0c-10.9,0.2-21.9,0.4-32.8,0.6c-12.6,0.2-25.2-0.5-37.7-1.2c-5.4-0.3-10.8-0.7-16.2-0.8
		c-12.3-0.3-24.7-0.7-37-0.8c-19.1-0.1-38.3,0-57.4,0c-7.4,0-14.8-0.5-22.3-0.7c-1,0-2-0.1-3-0.1c-8-0.3-16.1-0.6-24.1-0.9
		c-2.6-0.1-5.3,0-7.9,0c-0.6,0-1.3,0.2-1.9,0c-0.5-0.2-1.2-0.8-1.2-1.2c-0.1-1.2,0-2.5,0.2-3.7c1-5.8,2.5-11.6,4.6-17.1
		c1.3-3.5,2.9-7,3.1-10.8c0.8-0.4,1.5-0.8,2.2-0.9c3.8-0.4,7.3-1.9,10.8-3.1c1.8-0.6,3.6-1,5.5-1c16.2,0,32.5-0.4,48.7,0.3
		c8.9,0.4,17.8,0.9,26.8,1.4c0.6,0,1.2,0,2,0c0.8-2.4,1.1-4.7,1.1-7.1c0-9.6,0-19.1-0.1-28.7c0-0.2-0.2-0.5-0.3-0.8
		c-3.4,0.1-6.9,0.3-10.4,0.4c-9.2,0-18.4,0-27.6-0.1c-3.4,0-6.8,0.2-10.2,0.6c-3.9,0.4-7.8,0.2-11.6,0.2c-1.2-1-2.2-1.9-3.1-2.7
		c0.3-6.3,4-17.5,7.2-21.5c2.3,1.1,4.7,0.6,7.2,0.2c6.4-0.9,12.8-0.8,19.2-0.6c2.6,0.1,5.3,0.2,7.9,0.3c5.7,0.1,11.3,0.2,17,0.2
		c1.1,0,2.2,0,3.5,0c0.1-0.9,0.3-1.6,0.3-2.3c-0.2-6-0.5-12.1-0.7-18.1c-0.3-6-0.8-12.1-0.8-18.1c0-8.8,0.3-17.6,0.4-26.4
		c0.1-5.4,0.2-10.8,0.3-15.9c-0.6-1.1-1.5-1-2.2-1.1c-5.5-0.8-10.9-2-16.5-2c-1.9,0-3.8-0.1-5.6,0.6c-0.1,0-0.2,0.1-0.4,0.1
		c-5.6,0.8-11.2,1.9-16.9,1.6c-1.6-0.1-3-0.2-4.1-1.5c-0.5-0.5-1.3-0.7-2-0.9c-1.8-0.6-3.4-1.5-5-2.5c-1.7-1-2.4-2.5-2.4-4.4
		c0-2.3,0-4.5,0-6.8c0-3-0.4-6-1.3-8.9c-0.6-1.8-0.5-4-0.7-6.3c-2.2-1.9-2.2-5-3.1-8c2.6-5.1,5.4-10.1,10.1-13.7
		c1.1,0,1.5,0.6,1.5,1.4c0,1,0,2-0.4,3c-0.8,2.1-1.7,4.2-2.6,6.3c-0.4,0.9-0.9,1.8-0.3,2.8c2.1-0.4,2.7-0.7,5.6-2.9
		c0.1-1.6,0.2-3.3,0.2-5.1c0-1.6,1.2-3.2-0.3-4.8c1.3-1.1,2.4-2,3.6-3.1c0.7,0.3,0.4,0.9,0,1.4c-0.5,0.7-1.1,1.3-1.7,2
		c0,1.7-0.1,3.3,0,4.9c0,1,0.3,2,0.4,2.7c0.9,0.9,1.6,0,2.3,0.3c0.4,0.2,0.6,0.7,0.9,1l0.1-0.1c-1.1,0.5-2.3,0.8-2.6,2.4
		c-0.1,0.6-1,1-1.7,1.4c-1.5,0.9-3.1,1.6-4.6,2.5c-0.4,0.3-0.7,0.9-1,1.5c3.4,2.4,7.1,3,10.9,3c0.6,0,1.3-0.2,1.9-0.1
		c3.9,0.3,7.7,0.6,12.2,0.9c-0.9,0.4-1.4,0.7-1.8,0.8c-1.9,0.3-3.7,0.4-5.6,0.6c-1.1,0.1-2.2,0.2-3.4,0.2c-0.5,1.9,0.1,3.6,0.3,5.3
		c0.1,1.6,0.4,3.2,0.6,4.9c0.3,1.7,0.6,3.4,0.9,5.5c-1.1-1.2-1.3-2.4-1.5-3.6c-0.3-1.4-0.5-2.7-0.8-4.1c-0.2-1.2-0.4-2.5-0.7-3.7
		c-0.3-1.3,0-2.8-1-4.2c-0.9-0.1-2-0.2-3.1-0.2c-1,0-1.9,0-3.1,0.1c-0.1,0.9-0.2,1.6-0.2,2.4c-0.2,7.6,0.9,15,3.7,22.1
		c0.1,0.3,0.1,0.7,0.2,1.1c-0.9-0.1-1.2-0.8-1.5-1.5c-0.6-1.6-1.1-3.3-1.6-5c-1.4-4.9-1.8-9.9-1.6-14.9c0-1.5,0.3-3-0.3-4.4
		c-2.1-1-4.1-1.9-6.4-2.9c-0.8,3.1-0.8,6.1,0.1,9c0.4,1.5,0.6,2.9,0.5,4.4c-0.1,3.1,0.1,6.3,0.1,9.4c0,2.1,1,3.6,3,4.3
		c1.9,0.7,3.8,1.4,5.6,2.1c0.8,0.3,1.4-0.1,2-0.6c0.8,0.6,1.6,1.1,2.7,1c0.9-0.1,1.8,0,2.6-0.1c4.1-0.6,8.2-1.2,12.3-1.7
		c1.5-0.2,3-0.3,4.5-0.4c6.1-0.1,12,1.2,18,2.1c5.6,0.9,11.2,1.5,16.9,1.5c17-0.1,34-0.3,51-0.5c2.8,0,5.5-0.3,8.3-0.4
		c2,0,3.1-1.2,3.6-2.8c0.7-2,1-4.2,0.6-6.3c-0.8-3.8-0.6-7.5,0.6-11.2c0.7-2.1,0.7-4.2,0.2-6.3c-0.5-2.1-0.8-4.2-1.1-6.3
		c-0.1-0.4-0.1-0.8,0-1.1c0.1-0.3,0.4-0.8,0.7-0.8c0.4,0,1,0.1,1.3,0.4c0.3,0.3,0.5,0.8,0.6,1.3c0.1,0.5,0.2,1,0.3,1.4
		c2-0.5,3-1.6,3.2-3.5c0.1-0.9,0.2-1.7,0.4-2.5c1.2-3.5,2.6-7.1,3.9-10.6c0.6-0.6,1.2,0.1,1.8-0.1c0.5-0.7,1-1.5,1.5-2.3
		c0.4,0.3,0.6,0.4,0.7,0.6c0.1,0.2,0.1,0.5,0.1,0.7c-0.7,3.7-1.1,7.5-1.2,11.2c0,0.5-0.2,1-0.3,1.6c-2.6,2-5.4,3.6-7.5,6.2
		c-0.4,0.5-1.3,0.7-2.1,1.2c0.1,1.1,0.2,2.4,0.2,3.6c0.1,1.9-0.1,3.7-0.4,5.6c-0.5,3.6-1,7.2-0.6,10.9c0.3,2.2,0,4.5-0.4,6.7
		c-0.5,2.6-2.6,3.9-5,4.6c-1.1,0.3-2.2,0.4-3.4,0.5c-4.6,0.3-9.3,0.7-13.9,0.9c-4.8,0.2-9.6,0.4-14.3,0.6c-0.5,0-0.9,0.2-1.3,0.3
		c-0.2,0.3-0.3,0.4-0.3,0.5c-0.4,5.6-0.9,11.3-1,16.9c-0.1,7.7,0.2,15.3,0.1,23c-0.2,13-0.1,25.9-0.2,38.9c0,1.1-0.2,2.2-0.4,3.3
		c0,0.1-0.4,0.3-0.6,0.3c-0.2,0-0.6-0.1-0.6-0.3c-0.2-0.6-0.3-1.2-0.4-1.8c-0.1-2.9-0.1-5.8-0.1-8.7c0.1-10.4,0.2-20.9,0.4-31.3
		c0.1-7.8,0.4-15.6,0.5-23.4c0-0.8,0.1-1.5,0-2.3c-0.3-4.6-0.5-9.3-0.8-13.9c0-0.4-0.2-0.7-0.3-1.3c-1.1,0-2.2,0-3.2,0
		c-0.7,0.5-0.4,1.2-0.3,1.8c0.4,6.4,0.6,12.8,1.3,19.2c0.7,6.9,0.4,13.8,0.5,20.7c0.1,7.5,0,15.1-0.1,22.7
		c-0.1,5.9-0.3,11.8-0.5,17.7c0,0.9,0.1,1.7,0.1,2.7c1.9-0.2,3.6-0.3,5.3-0.5c0.1-0.7-0.1-1.5,0.2-1.9c0.3-0.4,1-0.8,1.5-0.8
		c2.2-0.2,4.5-0.4,6.8-0.5c7.6-0.1,15.1-0.1,22.7,0c9.2,0.1,18.4,0.2,27.5,0.4c1,0,2,0.1,3,0.2c0.9,1.9,1.7,3.7,2.7,5.5
		c1.7,3.1,3.5,6.1,5.2,9.2c0.6,1,1.2,1.9,1.6,3c0.3,0.7,0.3,1.5,0.3,2.2c0,1.1-0.8,1.8-2,1.8c-3.6,0.1-7.3,0.1-10.9,0.2
		c-10.4,0-20.9,0-31.3,0.1c-4.8,0-9.6,0.4-14.3,0.5c-5,0.1-10.1-0.1-15.1-0.1c-0.4,0-0.8,0-1.1-0.1c-0.9-0.1-1.6-0.8-1.5-1.4
		c0.2-0.9,0.9-1.2,1.7-1.2c1.8,0,3.6-0.2,5.3,0.1c2.9,0.5,5.8,0.4,8.7,0.2c11.6-0.8,23.1-0.5,34.7-0.5c5.5,0,11.1,0.1,16.6,0.2
		c1.7,0,3.5,0.1,5.6,0.2c-0.6-1.6-1.1-2.9-1.6-4.1c-1.6-3.8-3.3-7.6-5-11.4c-0.2-0.5-0.7-0.9-1.1-1.4c-0.1-0.4-0.1-0.9-0.2-1.3
		c-2.3,0-4.3,0-6.3,0c0,0.1,0,0.1,0,0.2C293.6,499.7,295.8,500,298,500.4z M285.2,368.3c-1.8,2.2-2.7,5-2.4,7.4
		c0.5-0.5,1.2-0.8,1.3-1.3C284.6,372.3,285.6,370.4,285.2,368.3c0.5-0.4,0.6-0.9,0.1-1.7C285.3,367.3,285.2,367.8,285.2,368.3z
		 M143.1,366c-2.7,2.4-4.1,5.6-5.8,8.6c-0.7,1.2-0.3,2.5,0.2,3.6c0.4,1,0.7,2.2,2.3,2.3c0.7-1.2,1.7-2.4,2.2-3.7
		c0.7-1.6-0.8-2.7-1.3-4.1c0.3-0.8,0.6-1.5,0.9-2.2c0.3-0.8,0.8-1.6,1-2.4C142.9,367.4,142.9,366.6,143.1,366l0.1-0.1L143.1,366z
		 M225.1,415.9c-0.1,1.4-0.3,2.6-0.3,3.9c-0.3,8.8,0.1,17.6,0.9,26.4c0.6,6.8,0.8,13.6,0.6,20.4c-0.1,2.8-0.6,5.5-0.6,8.3
		c-0.2,11.8-0.2,23.7-0.4,35.5c0,0.7,0,1.5,0,2.2c-0.4-0.6-0.4-1.2-0.4-1.9c-0.1-14.3-0.1-28.7-0.7-43c-0.4-9.7-0.6-19.4-1-29
		c-0.3-6.5,0.1-13.1,0.2-19.6c0-1,0.6-1.9,0-3.2c-4.2-0.2-8.5-0.1-12.7-0.1c-4.2,0.1-8.4-1-12.9-0.6c0,1.4-0.1,2.7-0.1,3.9
		c0.1,4.3,0.3,8.6,0.4,12.8c0.4,11.7,0.1,23.4,1,35.1c0.5,6.8,0.6,13.6,1,20.4c0.4,7.7,0.5,15.3,0,23c-0.3,4.9-0.6,9.8-0.8,14.7
		c-0.3,6-0.4,12.1,0.2,18.1c0.4,3.6,0.5,7.3,0.6,10.9c0,1,0.1,2.1-0.3,3c-1,2.5-2.3,5-3.5,7.6c-1.1,0-2.2,0.1-3.3,0.1
		c-17.3,0-34.5-0.4-51.6-2.4c-2-0.2-4-0.3-6-0.1c-2.7,0.2-5.5,0.2-8.3,0c-3.6-0.2-7.3-0.6-10.9-1c-4.7-0.6-9.4-0.6-14,0.5
		c-2.5,9.5-6.4,18.6-7.1,28.5c4.1-0.5,7.9-1.1,11.8-1.3c8.2-0.5,16.4-0.3,24.5,0c5.8,0.2,11.6,0.7,17.3,0.7c13.3,0.1,26.7,0.1,40,0
		c24.7-0.1,49.3,0.1,74,1.8c6.5,0.5,13.1,0.8,19.6,1.2c8,0.4,16.1,0.8,24.1,1.2c6.8,0.3,13.6,0.4,20.4,0.6c0.2,0,0.5-0.2,0.7-0.3
		c0.4-1.3,1.3-1.8,2.6-1.4c0.6,0.2,1.2,0.4,1.8,0.5c0.7,0.1,1.4,0.7,2.3,0c-1.5-5.4-3.1-10.8-4.7-16.2c-1.2-4.1-2.5-8.1-3-12.7
		c-5.4,0.1-10.7,0.1-16,0.3c-5.3,0.2-10.6,0.3-15.9,0.4c-5.3,0.1-10.6,0.1-15.9,0.2c-5.3,0-10.6,0-15.9,0c-5.3,0-10.6-0.1-15.9-0.2
		c-5.3-0.1-10.5-0.1-15.7-0.3c-1.1-1.3-1.9-2.3-1.4-3.9c0.2-0.8,0.1-1.7,0-2.6c-0.1-2.9-0.4-5.8-0.4-8.7c-0.1-3.9,0.1-7.8,0-11.7
		c0-0.8-0.1-1.8-0.5-2.5c-1-1.6-1.1-3.3-1.2-5.1c-0.1-1.3-0.1-2.5-0.2-3.8c-0.4-5.9-1-11.8-1.1-17.7c-0.2-9.6-0.2-19.1-0.2-28.7
		c0-1.3-0.1-2.5,0.2-3.8c0.6-3.1,0.5-6.3,0.5-9.4c0.1-8.7,0.3-17.4,0.4-26c0-0.3,0-0.5,0-0.8c0.2-5.3,0.5-10.6,0.7-15.8
		c0.1-2.6,0.1-5.3,0.1-7.9c0-0.2-0.2-0.4-0.4-0.8C227,415.8,226.1,415.9,225.1,415.9z M136.3,516.6c0.4,0.3,0.6,0.5,0.9,0.5
		c3.9,0.3,7.8,0.2,11.7-0.3c2.9-0.3,5.7-0.7,8.6-0.7c6,0,12.1,0.2,18.1,0.3c6,0.1,12.1,0.3,18.1,0.5c1,0,2,0.3,2.9-0.6
		c0.4-2.6,0-5.2-0.3-7.8c-0.3-2.6,0.4-5.2-0.5-7.8c-3,0.3-5.9,0.6-8.8,0.8c-3.9,0.2-7.8,0.4-11.6-0.4c-1.1-0.2-2.1-0.4-3.2-1.6
		c0.9,0,1.6,0,2.2,0c6.2-0.1,12.3-0.1,18.5-0.2c1.1,0,2.3,0.1,3.3-1.1c-0.4-0.3-0.8-0.7-1.1-0.7c-1.6,0-3.3,0.2-4.9,0.3
		c-9.8,0.1-19.6,0.4-29.4,0.3c-6.6,0-13,0.9-19.6,1.6C138.9,505.3,137.1,510.9,136.3,516.6z M234.1,561.3c0.9,0.1,1.4,0.1,1.9,0.2
		c12.9,0.2,25.9,0.5,38.8,0.7c12.2,0.2,24.4,0.3,36.6,0.5c3,0,6,0.3,9,0.4c0.2,0,0.3-0.2,0.7-0.5c-0.6-0.8-1.2-1.6-1.7-2.3
		c-2.1-0.2-4-0.2-5.8-0.5c-6.2-1-12.5-1.4-18.8-1.3c-15.3,0.1-30.7,0.3-46,0.3c-3.6,0-7.3-0.5-10.9-0.8c-1.1-0.1-2.2-0.2-3.4-0.2
		c-0.2,0-0.4,0.3-0.7,0.5C233.9,559.2,234,560.1,234.1,561.3z M113.4,557.7c0.5,0.1,0.8,0.2,1.2,0.2c7.8-0.1,15.6,0.3,23.4,0.9
		c7.8,0.7,15.5,1.5,23.3,1.8c10.9,0.4,21.9,0.4,32.8,0.5c0.6,0,1.1-0.3,1.6-0.5c0.2-1.2,0.4-2.2-0.4-3.2c-1.2,0-2.4-0.1-3.7-0.1
		c-7.5-0.1-15.1,0-22.6-0.4c-7-0.3-14.1-0.6-21.1-0.6c-5.4,0-10.8,0-16.2,0c-1.4,0-2.8-0.1-4.1-0.3c-3.9-0.4-7.8-0.1-11.7,0.3
		C114.9,556.4,114,556.7,113.4,557.7z M243.1,499.9C243.1,500,243.1,500,243.1,499.9c2.1,0.1,4.2,0.1,6.3,0.1c0,0,0-0.1,0-0.1
		C247.3,499.9,245.2,499.9,243.1,499.9z"/>
	<path d="M314.6,266.9c-3.8,7.8-7.4,15.1-10.8,22.6c-3.1,6.8-6.7,13.2-11.3,19.1c-2,2.6-3.8,5.3-5.6,8c-3.6,5.5-6.3,11.4-8.5,17.6
		c-0.7,2-1.4,4-2.2,6c-0.3,0.8-0.8,1.5-1.2,2.2c-1.1-0.2-1.1-0.9-0.8-1.4c0.8-2,1.8-3.8,2.6-5.8c1.1-2.7,2.1-5.3,2.7-8.2
		c1.3-5.4,3.5-10.5,6.9-15c2-2.7,4-5.5,6.1-8.2c3.4-4.5,6.4-9.3,8.7-14.5c2.1-4.8,4.6-9.5,7-14.2c1-1.9,1.7-3.8,3.3-5.4
		c1.3-1.3,1.7-3.3,1.7-5.3c0.2-5.3,1.7-10.4,3.4-15.4c0.1-0.2,0.4-0.3,0.7-0.6c0.3,1,0.6,1.9,0.8,2.7c-0.5,0.6-1.1,1.1-1.3,1.7
		c-0.5,1.8-0.8,3.7-1.2,5.5c-0.2,0.7-0.2,1.5-0.5,2.2C313.9,262.7,314.2,264.9,314.6,266.9z"/>
	<path d="M625.9,348.3c-0.8-1.4-1.3-2.1-1.6-2.9c-0.8-2-1.5-4-2.2-6c-2.8-8.3-6.9-15.9-12.1-22.9c-1-1.3-1.9-2.6-2.9-3.9
		c-4.2-5.3-7.3-11.1-10.1-17.2c-3.5-7.6-7.3-15.2-11.1-23.1c0.1-0.6,0.2-1.7,0.3-2.8c0-0.4,0.1-0.8,0-1.1c-1.4-3.3-1.7-6.8-2.6-10.2
		c-0.1-0.5-0.7-0.9-1.2-1.6c0.1-0.6,0.3-1.4,0.5-2.2c0-0.2,0.3-0.3,0.5-0.6c0.3,0.5,0.6,0.9,0.7,1.3c1.1,4,2.1,8,3.1,12
		c0.2,0.7,0.1,1.5,0.1,2.2c0,2.6,0.8,4.9,2.7,6.8c0.4,0.3,0.8,0.7,1,1.1c2.9,5.8,6,11.6,8.6,17.6c2.1,4.9,4.9,9.3,8.1,13.6
		c2.2,3,4.5,6.1,6.7,9.1c3.4,4.5,5.5,9.6,6.8,15c1.1,4.6,2.9,8.8,4.9,13C626.3,346.2,626.4,346.2,625.9,348.3z"/>
	<path d="M554.1,246.6c-0.2-0.3-0.3-0.7-0.6-0.9c-1.4-1.1-2.4-2.5-2.7-4.4c-0.1-1.1-0.9-2.1-1.1-3.2c-0.2-0.8-0.1-1.7,0.1-2.6
		c0.3-1,1.8-1.3,2.4-0.5c0.7,1,1.3,2.1,1.9,3.2c1.8,3.5,4.6,5.9,8.5,6.8c0.8,0.2,1.6,0.5,1.7,1.3c0.1,0.7-0.2,1.4-0.4,2.1
		c-2.5,0.7-4.6-0.3-6.8-0.9c-1.1-0.3-2.1-0.8-3.2-1.1L554.1,246.6z"/>
	<path d="M346.4,241.2c-2,0.7-4,1.4-6,2c-1.2,0.4-2.4,0.6-3.9,0c-0.1-0.6-0.5-1.3-0.4-2c0.1-0.8,0.9-1.1,1.7-1.3
		c3.9-0.9,6.7-3.3,8.5-6.8c0.6-1.1,1.2-2.2,1.9-3.2c0.6-0.9,2.2-0.6,2.4,0.5c0.2,0.9,0.2,2,0,2.9c-0.3,1.5-0.8,2.9-1.4,4.3
		c-0.3,0.8-0.9,1.5-1.5,2.1c-0.4,0.6-1,1.1-1.4,1.6L346.4,241.2z"/>
	<path d="M287.9,358.4c-1.6-0.8-1.6-2.3-2.6-3.3c-4.1-1.8-8.1-4-10.5-8.5c0.2-0.9,0.4-1.9,0.6-3.1c0.5,0.5,0.8,0.9,1.1,1.3
		c1.3,1.7,2.8,3.2,4.8,4c0.9,0.4,1.8,1,2.6,1.5c2.6,1.5,3.5,4.1,4.2,6.8C288.3,357.3,288,357.7,287.9,358.4z"/>
	<path d="M625.5,351.7c-2.3,4.2-4.4,5.9-10.4,8.7c-1,0.9-0.9,2.7-2.6,3.2c-0.1-0.5-0.4-1-0.3-1.4c0.7-2.5,1.6-5,4-6.5
		c0.3-0.2,0.7-0.4,1-0.6c1.5-0.9,3.2-1.6,4.5-2.6c1.2-1,2.1-2.4,3.3-3.7C625.2,349.8,625.4,350.8,625.5,351.7z"/>
	<path d="M207.8,112c1.3-0.2,1.9-0.5,2.5-0.4c1.5,0.2,2.9,0.8,4,1.9c2.7,2.5,4.5,5.7,5.7,9.2c0.3,1.1,0.5,2.2-0.2,3.3
		c-0.1,0.2-0.4,0.4-0.6,0.4c-0.3,0-0.8-0.1-0.9-0.4c-0.4-0.8-0.7-1.6-0.9-2.4c-1.2-4-3.6-7.1-6.8-9.8
		C210,113.2,209.2,112.8,207.8,112z"/>
	<path d="M692.2,117.3c-3,1.8-5.1,4-6.9,6.5c-1.7,2.4-2.2,5.5-3.8,8.4c-0.6-0.8-1.2-1.1-1.2-1.5c-0.1-1-0.2-2,0.1-3
		c1.1-3.4,2.9-6.4,5.4-8.9c1.2-1.2,2.7-1.9,4.4-2C690.8,116.8,691.3,117.1,692.2,117.3z"/>
	<path d="M234,382.6c0.6-0.4,0.8-0.7,1.1-0.7c3.2-0.3,6.5-0.4,9.7,0c0.2,1.6-1.5,1.1-2.2,2.5c-0.5,6.4-1,13.4-1.5,20.3
		c-0.1,0-0.2,0-0.3,0c-0.1-0.6-0.3-1.2-0.3-1.8c0.2-4.1,0.3-8.2,0.6-12.4c0.1-2.1,0.3-4.2,0-6.4C238.8,383.4,236.3,383.9,234,382.6z
		"/>
	<path d="M346.2,241.3c1-0.5,2-1,3-1.5c0.7-0.3,1.8-0.1,2,0.5c0.2,0.5,0.3,1.3,0.1,1.7c-1.5,2.4-3.3,4.6-6,6.2
		c-0.7-0.8-1.2-1.6-1.8-2.3c0.2-0.6,0.3-0.9,0.4-1.2c0.6-1.4,2.2-2,2.5-3.6L346.2,241.3z"/>
	<path d="M554,246.5c0.3,0.5,0.5,1.1,0.9,1.6c0.7,0.9,1.4,1.7,1.9,2.5c-0.1,1.5-0.7,2.4-1.9,3c-2.5-1.5-4.3-3.7-5.8-6.1
		c-0.3-0.4-0.1-1.2,0.1-1.7c0.2-0.6,1.3-0.8,2-0.5c1,0.5,2,1,3,1.5L554,246.5z"/>
	<path d="M257.5,382.4c-0.4,5.2-0.8,10.2-1.2,15.7c-1.2-1.8-1-3.2-0.9-4.6c0.1-3.1,0.2-6.2,0.3-9.4c0-0.4-0.1-0.7-0.1-1.2
		c-1.4-0.9-3.1,0.1-4.6-0.6c1.5-1.1,3.1-1.1,4.7-1.2c1.6-0.1,3.2-0.3,4.9-0.4c-0.2,1-0.9,1-1.6,1.2
		C258.4,382,257.8,382.2,257.5,382.4z"/>
	<path d="M316.4,127.8c-0.5,0.4-1,0.9-1.6,1.4c-1.6,1.2-3.2,2.4-4.8,3.5c-0.3,0.2-0.6,0.5-0.9,0.6c-0.4,0.1-1.1,0.1-1.4-0.2
		c-0.3-0.2-0.4-0.8-0.5-1.3c0-0.1,0-0.2,0.1-0.4c1.5-2.8,3.8-4.5,6.9-4.9C315.2,126.4,316.1,126.5,316.4,127.8z"/>
	<path d="M583.8,133.1c0.7-1.3,1.6-1.4,2.5-1.3c3,0.5,5.2,2.1,6.6,4.8c0.3,0.6,0.3,1.2-0.3,1.7c-0.5,0.5-1.2,0.5-1.7,0.1
		C588.6,136.7,586.3,134.9,583.8,133.1z"/>
	<path d="M203.4,384.4c-5.9,0.9-13.3,0.2-17.7-1.7c0.5-0.3,0.9-0.8,1.3-0.8c1.1-0.1,2.3-0.1,3.4,0.1c3.6,0.7,7.1,1.3,10.7,1.5
		C201.9,383.6,202.8,383.6,203.4,384.4z"/>
	<path d="M724.4,359.6c1.2-0.2,1.7-0.4,2.1-0.2c1,0.5,2.1,1,2.9,1.7c1.3,1.2,2.8,2.1,4.4,2.8c1.4,0.7,2.7,1.5,4,2.9
		C735.6,366.8,735.6,366.8,724.4,359.6z"/>
	<path d="M163.1,361.9c-0.2-1.4,0.9-1.7,1.5-2c2.7-1.5,5.4-3,7.8-5.1c0.7-0.6,1.7-1.2,2.8-0.4c-0.2,0.3-0.3,0.6-0.5,0.8
		c-1.1,0.8-2.3,1.5-3.3,2.4c-1.1,1-2.1,2.1-3.8,2.1c-0.6,0-1.2,0.7-1.9,1.1C164.9,361.4,164.1,361.9,163.1,361.9z"/>
	<path d="M733.1,138.5c-0.3,3.1-0.5,6.3-0.8,9.4c-0.1,0.7-0.1,1.6-1.3,1.7c-0.1-0.5-0.3-0.9-0.3-1.4c0.1-3.4,0.3-6.8,0.4-10.2
		c0-0.3,0.3-0.6,0.6-1.2c0.5,0.7,0.9,1.2,1.3,1.8L733.1,138.5z"/>
	<path d="M207.9,382.1c0.6,2.8-0.1,5.4-0.3,8.1c-0.3,2.7-0.4,5.4-0.7,8.1c0.1-5.3-1.2-10.6,0.3-15.9
		C207.2,382.2,207.5,382.2,207.9,382.1z"/>
	<path d="M161,177.2c0.4,0.1,0.6,0.1,0.7,0.2c0.7,2.3,0.6,4.6,0.9,7c0.1,0.4-0.2,0.9-0.2,1.3c-0.8,0.2-1.1-0.3-1.2-0.7
		C160.3,182.7,160.3,180,161,177.2z"/>
	<path d="M188.4,100c1.6-0.1,3.2-0.1,5-0.2c0.5,0.3,0.4,0.9-0.1,1.4c-1.2,1-2.6,1.6-4.1,1.6c-1,0-1.4-0.6-1.4-2l-0.1,0.1
		c0.3-0.3,0.6-0.6,0.9-0.9L188.4,100z"/>
	<path d="M712.7,106c0,1.4-0.3,1.9-1.1,1.9c-2,0.1-3.7-0.5-4.9-2.1c-0.1-0.1,0.1-0.4,0.2-0.7c1.7,0.1,3.4,0.1,5.1,0.2l-0.1-0.1
		C712.2,105.5,712.4,105.8,712.7,106L712.7,106z"/>
	<path d="M576.3,110.6c0.5,1.8-0.4,3.1-3.4,4.8c-0.5-0.3-0.5-0.8-0.2-1.2C573.6,112.8,574.5,111.3,576.3,110.6z"/>
	<path d="M163.3,259.5c-1.6-1.6-1.4-3.1-1-4.6c0.1-0.3,0.5-0.6,0.8-0.6c0.3,0,0.8,0.2,0.9,0.4C164.6,256.2,164.5,257.7,163.3,259.5z
		"/>
	<path d="M737.3,264.5c-1.7-1.2-1.3-2.8-1-4.4c0-0.2,0.5-0.6,0.8-0.6c0.3,0,0.8,0.2,0.9,0.5C738.6,261.6,738.7,263.1,737.3,264.5z"
		/>
	<path d="M328.5,110.2c-1-0.2-1.5-0.1-1.7-0.3c-1-1.1-2-2.2-3-3.3c-0.3-0.4-0.2-0.9,0.7-1.2C326.1,106.3,327.2,107.8,328.5,110.2z"
		/>
	<path d="M602.1,250c1.7,1.7,3.1,3.1,4.7,4.7c-1.5,0.8-2.5-0.1-3.3-1C602.7,252.8,601.5,251.9,602.1,250z"/>
	<path d="M222.6,382.8c0.2-0.3,0.4-0.7,0.7-0.8c1.8-0.5,3.5-0.3,5.5,0.5C226.6,383.6,225.9,383.6,222.6,382.8z"/>
	<path d="M578.5,221.5c-1.4-1.8-4.2-2.1-4.9-4.7c0.4-0.2,0.7-0.4,0.8-0.3c1.8,1.1,3.6,2.3,4.5,4.2
		C579,220.8,578.7,221.1,578.5,221.5z"/>
	<path d="M176.5,101c0.3-0.2,0.6-0.5,0.9-0.5c1.8-0.4,3.6-0.7,6.2-1.2C181,101.3,178.7,101.2,176.5,101z"/>
	<path d="M717.7,104.7c1.8,0.3,3.6,0.7,5.4,1c0.3,0.1,0.6,0.4,1.3,0.8C721.6,106.8,719.6,106.2,717.7,104.7z"/>
	<path d="M170.8,342.9c1.9,0.8,3.8,1.6,6.2,2.6c-2.8,0.1-2.9,0.1-4.3-0.5C171.7,344.7,170.9,344.2,170.8,342.9z"/>
	<path d="M730.3,347.9c-2,2.5-2,2.5-6.1,3.3c0.4-0.9,0.4-0.9,2.3-1.7C727.5,349.1,728.5,348.7,730.3,347.9z"/>
	<path d="M634.9,347.6c-2.6,0.3-4.6,0.5-6.8-1.3C630.6,346.2,632.6,346.2,634.9,347.6z"/>
	<path d="M272.3,340.9c-2.2,2-4.2,1.7-6.8,1.5C267.8,340.9,269.7,341,272.3,340.9z"/>
	<path d="M175.4,97.4c5-0.7,6.5-0.7,7.7,0C180.8,98.1,179.4,98.2,175.4,97.4z"/>
	<path d="M731.4,369.8c1-1.1,1.9-1.4,2.9-1.6c1-0.2,2.1-0.6,3.4,0.4C735.6,369.2,733.8,369.9,731.4,369.8z"/>
	<path d="M168.8,364.5c-2.2,0.1-4-0.6-6.2-1.2C165.6,362.5,166.2,362.7,168.8,364.5z"/>
	<path d="M724.4,102.4c-2.4,1.2-4.8,0.9-7.5,0.6c0.4-0.5,0.7-0.9,0.9-0.9C720,102.2,722.2,102.3,724.4,102.4z"/>
	<path d="M220.5,56.3c-1.6-1.2-1.8-3-2.3-4.7C219.7,52.7,220,54.6,220.5,56.3z"/>
	<path d="M737.5,253.2c0,1.5,0.8,3-0.4,4.5c-1.5-1.9-1.4-2.7,0.5-4.4L737.5,253.2z"/>
	<path d="M320.3,213.6c0.7,2,0.5,3.3,0.2,4.8c-0.4-0.2-0.8-0.2-0.9-0.4C319,216.7,319.2,215.5,320.3,213.6z"/>
	<path d="M162.7,248c1.8,1.6,1.8,1.6,0.9,4.3c-0.6,0.2-0.9-0.3-0.9-0.8c0-1.2,0.1-2.4,0.1-3.6L162.7,248z"/>
	<path d="M737.5,195.9c0,2.2,0,2.2-1,4c-0.9-1.8-0.7-2.5,1.1-4L737.5,195.9z"/>
	<path d="M166.6,196.5c-1.7-1.8-1.7-1.8-0.9-3.4C166.6,194.4,166.7,194.4,166.6,196.5z"/>
	<path d="M722.8,229.1c-0.2-0.6-0.5-1.2-0.6-1.7c0-0.2,0.1-0.4,0.2-0.6C724,227.6,724.1,227.9,722.8,229.1z"/>
	<path d="M328,125.3c-0.1,1.1-0.9,1.4-1.8,1.4c-0.2,0-0.5-0.2-0.6-0.4c-0.1-0.2,0-0.5,0.1-0.7C326.4,124.9,327.1,124.7,328,125.3z"
		/>
	<path d="M574.8,131.9c-1.5,0.3-2.2-0.2-2.6-1.3C574.1,130.3,574.1,130.3,574.8,131.9z"/>
	<path d="M324.6,209.8c0.4-0.8,0.7-1.6,1.1-2.5c0.4,0.2,0.7,0.3,0.8,0.5c0.4,0.9,0.1,1.7-0.6,2.3
		C325.5,210.5,325.1,210.3,324.6,209.8z"/>
	<path d="M177.9,221.3c0.7,0.9,0.1,1.5-0.3,2.3c-0.9,0.1-1-0.4-0.9-1.1C176.9,222,177.1,221.3,177.9,221.3z"/>
	<path d="M733.5,203.3c0.9,0.9,0.1,1.8,0.2,2.8C732.2,204.9,732.2,204.9,733.5,203.3z"/>
	<path d="M596.3,92.4c0,1.8-0.1,3.5-0.1,5.3C595.9,95.9,595.1,94.1,596.3,92.4L596.3,92.4z"/>
	<path d="M728,159.8c1.3,1.6,1.3,1.6-0.2,2.5C727.9,161.4,728,160.6,728,159.8z"/>
	<path d="M323.6,127.8c-0.8,0-1.4,0-2.2,0C322.5,126.3,322.5,126.3,323.6,127.8z"/>
	<path d="M576.8,133.1c1.2-1.5,1.2-1.5,2.2,0C578.2,133.1,577.6,133.1,576.8,133.1z"/>
	<path d="M584.1,111.5c-0.5-0.4-0.9-0.7-0.9-0.9c0.1-0.4,0.4-0.8,0.7-1.2c0.3,0.2,0.7,0.4,0.7,0.6
		C584.6,110.5,584.3,110.9,584.1,111.5z"/>
	<path d="M161,352.9c0.3,0.4,0.5,0.7,0.8,1c-0.3,0.2-0.5,0.5-0.8,0.6c-0.5,0.1-1.1-0.4-0.9-0.8C160.3,353.4,160.6,353.3,161,352.9z"
		/>
	<path d="M740.6,359.3c-0.7,0.2-1.1,0.4-1.4,0.4c-0.2,0-0.6-0.4-0.6-0.7c0-0.6,0.6-0.7,1-0.6C739.9,358.5,740.1,358.8,740.6,359.3z"
		/>
	<path d="M729.6,151.9c0.9,1.3,0.9,2.5,0.2,4C728.7,154.4,729.1,153.1,729.6,151.9z"/>
	<path d="M727.8,167.1c-0.1,0.4,0,0.7-0.1,0.9c-0.1,0.2-0.4,0.5-0.5,0.4c-0.3-0.1-0.5-0.4-0.7-0.7c-0.1-0.2-0.1-0.5,0.1-0.7
		c0.1-0.2,0.4-0.4,0.6-0.4C727.3,166.7,727.5,167,727.8,167.1z"/>
	<path d="M316.4,103.9c0.4,0.5,0.7,0.8,0.8,1.2c0.1,0.2-0.4,0.5-0.6,0.8c-0.3-0.3-0.7-0.6-0.9-0.9
		C315.7,104.8,316.1,104.4,316.4,103.9z"/>
	<path d="M582.7,223.9c-0.3,0.3-0.5,0.7-0.5,0.6c-0.4-0.2-0.7-0.5-1.1-0.7c-0.1,0-0.1-0.3,0-0.3c0.2-0.1,0.5-0.4,0.6-0.3
		C582,223.3,582.4,223.6,582.7,223.9z"/>
	<path d="M163.6,189c0-0.8,0.1-1.4,0.1-2.2C164.9,188.1,164.9,188.1,163.6,189z"/>
	<path d="M696.5,113.3c0.1,0.2,0.4,0.4,0.4,0.5c-0.1,0.4-0.3,0.8-0.6,1.2c-0.1,0.1-0.4-0.1-0.6-0.1c0.1-0.4,0.1-0.9,0.3-1.2
		C696,113.5,696.3,113.4,696.5,113.3z"/>
	<path d="M203.7,107.9c0.4,0.3,0.7,0.4,0.9,0.7c0.2,0.3,0.2,0.7,0.2,1c0,0.1-0.5,0.3-0.6,0.2c-0.3-0.2-0.6-0.4-0.7-0.7
		C203.4,108.7,203.6,108.3,203.7,107.9z"/>
	<path d="M215.9,47.4c-0.2-0.5-0.4-0.9-0.6-1.5C216.3,46.3,216.3,46.7,215.9,47.4z"/>
	<path d="M716.5,100.8c0.6-0.7,1.3-1.4,2.3-1.3l-0.1-0.1c-0.7,0.6-1.3,1.4-2.4,1.3L716.5,100.8z"/>
	<path d="M184,95.3c-1.1,0.2-1.7-0.7-2.4-1.3l-0.1,0.1C182.6,94.1,183.3,94.8,184,95.3L184,95.3z"/>
	<path d="M744.9,362.4c-0.9,1.3-0.9,1.3-1.9-0.2C743.7,362.2,744.2,362.3,744.9,362.4z"/>
	<path d="M157.3,357.2c0,0.1,0,0.3-0.1,0.3c-0.4,0.2-0.8,0.4-1.2,0.5c-0.1,0-0.3-0.4-0.3-0.5c0.1-0.7,0.6-0.6,1-0.6
		C156.9,356.9,157.1,357.1,157.3,357.2z"/>
	<path d="M600.5,244.1c0.1,0.2,0.4,0.4,0.4,0.6c0,0.2-0.2,0.4-0.4,0.6c-0.1-0.2-0.4-0.4-0.4-0.6
		C600.1,244.5,600.3,244.3,600.5,244.1z"/>
	<path d="M203.6,99.1c-0.1,0.3-0.2,0.7-0.3,0.7c-0.3,0-0.6-0.2-0.8-0.3c0.1-0.2,0.2-0.5,0.3-0.6C203,98.9,203.3,99,203.6,99.1z"/>
	<path d="M320.3,106.2c0.1-0.3,0.2-0.4,0.3-0.6c0.2,0.2,0.5,0.4,0.7,0.6c0.1,0.1-0.1,0.4-0.2,0.6
		C320.8,106.5,320.6,106.3,320.3,106.2z"/>
	<path d="M579.7,110.7c0.2,0.3,0.4,0.6,0.3,0.7c-0.2,0.3-0.5,0.4-0.7,0.6c-0.1-0.2-0.3-0.4-0.2-0.6
		C579.2,111.2,579.5,111,579.7,110.7z"/>
	<path d="M698,104.7c-0.3,0.2-0.5,0.4-0.6,0.4c-0.2-0.2-0.4-0.4-0.6-0.6c0,0,0.4-0.4,0.4-0.4C697.5,104.3,697.7,104.5,698,104.7z"/>
	<path d="M295,30.6c0.3-0.6,0.8-0.8,1.7-0.4C296,30.4,295.5,30.4,295,30.6L295,30.6z"/>
	<path d="M597.8,238.4c0,0.1-0.1,0.2-0.1,0.3c-0.1-0.1-0.2-0.2-0.3-0.4c0,0,0.1-0.1,0.2-0.2C597.7,238.2,597.7,238.3,597.8,238.4z"
		/>
	<path d="M319,242.6c-0.1,0.3-0.1,0.6-0.1,0.6C318.9,243.3,319,243,319,242.6L319,242.6z"/>
	<path d="M581.3,248c0.1,0.3,0.3,0.5,0.2,0.4C581.5,248.5,581.4,248.2,581.3,248L581.3,248z"/>
	<path d="M162.3,261.2c0.1,0,0.2,0,0.2,0c0,0.2,0,0.4,0.1,0.6c-0.1,0-0.3,0-0.4,0C162.2,261.6,162.3,261.4,162.3,261.2z"/>
	<path d="M737.9,266.5c0.1,0.1,0.4,0.2,0.4,0.3c0,0.2-0.2,0.4-0.3,0.5c-0.1-0.1-0.2-0.2-0.2-0.3
		C737.8,266.9,737.8,266.7,737.9,266.5z"/>
	<path d="M720.4,97.8c0-0.2,0-0.5,0-0.7C720.4,97.4,720.4,97.6,720.4,97.8L720.4,97.8z"/>
	<path d="M180.1,92.4c-0.1-0.2-0.2-0.4-0.4-0.6c0.1,0.2,0.2,0.5,0.2,0.7L180.1,92.4z"/>
	<path d="M293.4,31.3c0.3-0.8,0.9-0.8,1.6-0.7l-0.1-0.1C294.7,31.3,294,31.3,293.4,31.3L293.4,31.3z"/>
	<path d="M700.6,112.9c0.2,0.1,0.4,0.2,0.6,0.3c-0.1,0.2-0.2,0.5-0.4,0.5c-0.2,0-0.4-0.2-0.6-0.2C700.3,113.2,700.4,113,700.6,112.9
		z"/>
	<path d="M199.6,108.3c-0.1-0.2-0.2-0.3-0.3-0.5c0.2-0.1,0.4-0.3,0.6-0.2c0.1,0,0.3,0.3,0.4,0.5C200,108.2,199.8,108.2,199.6,108.3z
		"/>
	<path d="M330.4,57c0.1,0.1,0.2,0.2,0.4,0.2c-0.1,0-0.2,0-0.2,0C330.5,57.1,330.5,57,330.4,57L330.4,57z"/>
	<path d="M180.8,93.2c-0.2-0.3-0.5-0.5-0.7-0.8l-0.1,0.1c0.2,0.3,0.5,0.5,0.7,0.8L180.8,93.2z"/>
	<path d="M181.6,94c-0.3-0.3-0.5-0.5-0.8-0.8l-0.1,0.1C181,93.6,181.3,93.9,181.6,94L181.6,94z"/>
	<path d="M184.7,96.2c-0.5-0.1-0.7-0.3-0.7-0.8l-0.1,0.1C184.1,95.7,184.4,96,184.7,96.2L184.7,96.2z"/>
	<path d="M184.6,96.3c0.2,0.3,0.5,0.6,0.7,0.9l0.1-0.1C185.2,96.8,184.9,96.5,184.6,96.3L184.6,96.3z"/>
	<path d="M715.6,101.5c-0.2,0.3-0.5,0.5-0.7,0.8l0.1,0.1C715.3,102.1,715.5,101.9,715.6,101.5L715.6,101.5z"/>
	<path d="M719.7,98.6c0.2-0.3,0.5-0.5,0.7-0.8l-0.1-0.1C720.1,98,719.8,98.3,719.7,98.6L719.7,98.6z"/>
	<path d="M718.9,99.4c0.3-0.3,0.5-0.5,0.8-0.8l-0.1-0.1C719.3,98.8,719,99.1,718.9,99.4L718.9,99.4z"/>
	<path d="M715.7,101.6c0.3-0.3,0.5-0.6,0.8-0.8l-0.1-0.1C716.1,100.9,715.9,101.2,715.7,101.6L715.7,101.6z"/>
	<path d="M344.2,68.2c-0.2-0.1-0.3-0.1-0.5-0.2c0.1,0,0.2,0,0.2,0C344,68.1,344,68.2,344.2,68.2L344.2,68.2z"/>
	<path d="M693.2,518.9c0.3,0.6,0.6,0.8,0.6,1c-0.7,7.5,1.4,14.9,1.9,22.3c0,0.1-0.2,0.2-0.3,0.4c-0.2-0.2-0.6-0.4-0.7-0.7
		C693.4,534.3,692.3,526.9,693.2,518.9z"/>
	<path d="M694.2,551.7c0.4,1.9,0.7,3.3,1,4.7c0,0.2-0.3,0.6-0.4,0.5c-0.3-0.1-0.8-0.3-0.8-0.5C694,555,694.1,553.5,694.2,551.7z"/>
	<path d="M708.3,404.6c-0.1-0.6-0.2-1.2-0.2-1.8c0.2-4.1,0.4-8.2,0.6-12.4c0.1-1.6,0.1-3.2,0.2-4.9c0-0.5-0.2-1-0.3-1.5
		c-2.2-0.6-4.5-0.5-6.6-1.2c-0.1-0.8,0.4-1,0.9-1c2.9-0.1,5.8-0.1,8.6-0.1c0.3,0,0.7,0.2,1,0.3c0,1.3-1.4,1-2.1,2
		C709.6,390.7,709.1,397.6,708.3,404.6z"/>
	<path d="M728.8,380.7c-1.6,0.7-2.7,1.2-3.9,1.8c0.3,5-0.7,10-1.1,15.6c-1-2-0.8-3.5-0.8-4.9c0.1-3.1,0.2-6.2,0.3-9.4
		c0-0.3-0.1-0.7-0.3-1.3c-1.5,0-2.9,0-4.9,0C721.1,381,721.1,381,728.8,380.7z"/>
	<path d="M653.3,382.8c0.5-0.3,0.8-0.8,1.2-0.8c1.1-0.1,2.3-0.1,3.4,0.1c3.6,0.7,7.1,1.2,10.7,1.5c0.8,0.1,1.6,0.4,3,0.7
		C665.5,385.3,658.3,384.7,653.3,382.8z"/>
	<path d="M675.4,382.2c0.7,5.4-1.1,10.7-0.8,16.1C673.8,385.1,673.8,384.7,675.4,382.2z"/>
	<path d="M690.3,382.9c1.1-1.4,2.8-1.6,6.1-0.5C694.5,383.5,693.8,383.6,690.3,382.9z"/>
	<path d="M612.3,133.9c-0.7,0.1-1.3-0.2-1.5-0.9c-0.9-3-1.7-6-2.6-9.3c-0.6,3.8-0.3,6.5,1.2,10.3c0.2,0.5,0.2,0.5-1.2,1.3
		c-0.7-2.1-1-4.2-1.2-6.2c-0.3-2.2-0.4-4.5-0.6-6.7c-0.2-2.8-0.1-5.5,0.6-8.2c0.2-1,1.5-1.2,1.3-2.5c-0.2-1-0.1-2-0.1-3
		c0.1-4.8,0.1-9.5,0.4-14.3c0.3-4.9,1.2-9.7,2.9-14.3c0.2-0.4,0.5-0.7,0.8-1.1l-0.1-0.1c-0.1,1-0.2,2-0.4,2.9
		c-1.6,6.1-2.4,12.3-2.5,18.6c0,3.3,0,6.5-0.1,9.8c-0.2,5.6,1.1,11,1.8,16.5c0.3,2,0.3,4,1.2,5.9
		C612.4,132.9,612.2,133.5,612.3,133.9L612.3,133.9z"/>
	<path d="M609.4,152.8c2,0.3,2.8,1.8,4.4,1.4c-0.9-1.7-0.9-1.8-3.6-3.8c-1.4-1-2.9-1.9-4.2-3.4c2.1,0.2,2.1,0.2,6.3,3.3
		c1.8,1.3,3.9,2.4,4.9,4.6c1.9,0.4,3.7,0.7,5.5,1.1c0.7,0.2,1.4,0.4,2.1,0.7c0.2,0.1,0.4,0.6,0.4,1c0,0.3-0.3,0.7-0.6,0.9
		c-1.3,0.7-2.7,0.6-4,0.3c-2.4-0.6-4.8-1.4-7.1-2.3c-1.1-0.4-2.1-1.3-3.1-2C609.9,154.2,609.8,153.6,609.4,152.8z"/>
	<path d="M634.9,174.8c-2.5,1.1-4.8,0.9-7.1-0.6c-2.1-1.4-4.3-2.5-6.5-3.7c-0.4-0.2-0.8-0.6-1.6-1.2c1.1,0,1.8,0,2.4,0
		c-0.6-2-0.6-2,0.5-5c0.2,0.4,0.4,0.7,0.4,0.9c-0.1,1.9,0.7,3.4,1.9,4.7c0.6,0.6,1.3,1.2,1.9,1.8c1.8,1.7,3.8,2.4,6.2,1.6
		c1.2-1.5,2.6-2.9,3.8-4.5c0.6-0.8,0.8-1.9,1.3-2.9c1.2,2.3,1.1,2.5-1.5,5.7c0.8,0.2,1.5,0.5,2.3,0.7c-0.5,1.4-1.8,1.1-2.6,1.6
		c-0.6,0.4-1.5,0.2-1.8,1.1L634.9,174.8z"/>
	<path d="M652.4,149.1c0.9,0.6,0.6,1.2,0.3,1.7c-1.3,1.9-2.8,3.6-4.8,4.7c-1,0.6-1.3,1.4-1.6,2.5c-1.4,0.7-2.9,0.8-4.3,0.2
		c-1.8-0.7-3.6-0.8-5.5-0.8c-0.6,0-1.3-0.1-1.4-1c0.3-0.2,0.5-0.5,0.8-0.5c3.4-0.2,6.6-1.4,9.6-3c1-0.5,2-1.1,3.4-0.2
		C650.1,151.5,651.3,150.3,652.4,149.1z"/>
	<path d="M619.8,69.8c-0.3,1.5-0.6,2.9-1,4.4c-1.1,4.4-1.8,8.9-1.9,13.4c-0.2,4.1-0.2,8.3-0.2,12.4c0,2.1,0.4,4.2,0.6,6.3
		c0.1,0.7,0,1.4-0.2,2.1c-1.3-3.2-1.5-6.6-1.7-9.9c-0.4-8.3,0.2-16.5,2.1-24.7c0.2-0.9,0.4-1.7,0.8-2.5c0.3-0.6,0.7-1.3,1.6-1.4
		L619.8,69.8z"/>
	<path d="M612.5,112.7c1.9,3.9,2.3,7.6,3.2,11.1c1,3.5,1.9,7,2.7,10.4c2.9,1.9,6.1,3,8,5.9c-0.4,0.1-0.6,0.3-0.7,0.2
		c-2.2-1.5-4.2-3.2-6.7-4.1c-1.4-0.5-1.7-1.7-2.1-3.1c-1-4.5-2.4-9-3.6-13.5c-0.4-1.6-0.7-3.2-1-4.8
		C612.3,114.3,612.5,113.9,612.5,112.7z"/>
	<path d="M623.6,134.7c-0.5-0.4-1.1-0.7-1.3-1.2c-2.5-5.3-4.7-10.8-6.1-16.6c-0.1-0.6,0-1.2,0.3-1.9c1,2.7,1.9,5.4,2.9,8.1
		c1.2,3.3,2.5,6.5,3.8,9.8C623.3,133.6,623.4,134.2,623.6,134.7L623.6,134.7z"/>
	<path d="M629.9,140.4c-0.9-0.8-0.7-1.9-0.8-2.8c-0.6-5.6-0.6-12.5,0-15.7C630,126.6,630.5,136.8,629.9,140.4z"/>
	<path d="M636.6,98.4c0-4.9,0-9.7,0-14.6c0.1,0,0.2,0,0.3,0c0,2.4,0.1,4.7,0.1,7.1c0,2.5-0.1,5-0.1,7.5
		C636.8,98.4,636.7,98.4,636.6,98.4z"/>
	<path d="M643.9,137c-1.8,2.3-4,3.8-6.8,4.5l0.1,0.1C638.9,139.8,641.3,138.1,643.9,137L643.9,137z"/>
	<path d="M607.8,86.6c0-0.5,0.1-1.1,0.1-1.8C608.4,85.6,608.1,86,607.8,86.6L607.8,86.6z"/>
	<path d="M612.3,78.9c-0.1-0.9,0-1.7,0.7-2.3l-0.1-0.1C612.8,77.4,613.2,78.3,612.3,78.9L612.3,78.9z"/>
	<path d="M620.4,67.4c0,0.9,0.3,1.8-0.6,2.5l0.1,0.1c-0.2-0.9,0-1.7,0.6-2.4L620.4,67.4z"/>
	<path d="M613,76.7c0.1-0.6,0.1-1.2,0.8-1.5l-0.1-0.1c-0.2,0.6,0,1.3-0.8,1.4L613,76.7z"/>
	<path d="M613.8,75.2c0-0.2,0-0.5,0.1-0.7c0-0.1,0.2-0.2,0.4-0.2c0,0.1,0,0.3,0,0.3c-0.1,0.2-0.3,0.3-0.5,0.5L613.8,75.2z"/>
	<path d="M637.1,141.5c-0.2,0.2-0.4,0.4-0.6,0.6c-0.1-0.1-0.2-0.3-0.3-0.4C636.6,141.7,636.9,141.7,637.1,141.5L637.1,141.5z"/>
	<path d="M644,137.1c0.1-0.1,0.2-0.2,0.3-0.4c0,0.1,0,0.2-0.1,0.2C644.1,137,644,137,644,137.1L644,137.1z"/>
	<path d="M623.5,134.8c0.1,0,0.2,0.1,0.3,0.1C623.7,134.8,623.6,134.8,623.5,134.8L623.5,134.8z"/>
	<polygon points="612.2,134 612.4,134.2 612.3,133.9 	"/>
	<path d="M617.2,231.7c-0.1,0-0.1-0.1-0.2-0.1c0.1-0.1,0.2-0.1,0.3-0.2C617.2,231.6,617.2,231.7,617.2,231.7z"/>
	<path d="M621,227.3c-0.1-0.2-0.3-0.3-0.3-0.5c0-0.1,0.2-0.3,0.3-0.4c0.1,0.1,0.2,0.2,0.2,0.3C621.2,226.9,621.1,227.1,621,227.3z"
		/>
	<path d="M647.3,31.8c0.6-0.2,1.1-0.5,1.4-0.4c0.8,0.3,1.6,0.8,2.1,1.4c0.6,0.6,1,1.5,1.3,2.3c2.3,5.7,2.8,11.5,1.7,17.6
		c-0.2-1.2-0.3-2.4-0.5-3.7c-0.1-1.1-0.3-2.2-0.4-3.4c-0.3-3.3-0.9-6.5-2.2-9.5C649.9,33.6,649.8,33.6,647.3,31.8z"/>
	<path d="M643.1,36.5c-0.1,1.4,0,2.7-0.2,4.1c-0.5,6-0.3,12,1.5,17.8c0,0.1-0.1,0.2-0.3,0.5c-0.5-0.6-1.1-1.1-1.3-1.7
		c-0.5-1.5-1-3.1-1.1-4.7c-0.2-3.9-0.3-7.7-0.2-11.6C641.5,39.3,641.6,37.6,643.1,36.5L643.1,36.5z"/>
	<path d="M638.6,48.6c-0.3-0.9-0.9-1.8-1-2.8c-1.1-7.4-0.9-14.6,3.9-20.8c0.4-0.6,0.7-1.4,1.7-1.3l-0.1-0.1
		c-0.2,0.6-0.4,1.2-0.7,1.7c-4.4,5.9-5.2,12.6-4.2,19.6c0.2,1.2,0.2,2.5,0.2,3.7L638.6,48.6z"/>
	<path d="M646.9,19.9c-0.9,1.6-2.1,2.9-3.8,3.8l0.1,0.1C644.1,21.6,644.8,20.9,646.9,19.9L646.9,19.9z"/>
	<path d="M662.1,20c-0.8,1.5-1.5,3-2.3,4.5l0.1,0.1c-0.1-1.9,0.7-3.4,2.3-4.5L662.1,20z"/>
	<path d="M628.9,46.2c-1.1-1.1-0.7-2.5-0.8-3.7l-0.1,0.1C629.1,43.7,628.5,45.1,628.9,46.2L628.9,46.2z"/>
	<path d="M647.8,19.2c0.5-1,1.2-1.5,2.3-1.5l-0.1-0.1C649.5,18.6,648.8,19.2,647.8,19.2L647.8,19.2z"/>
	<path d="M629.6,29c0-1.1,0.7-1.7,1.5-2.3l-0.1-0.1C631.1,27.8,630.7,28.6,629.6,29L629.6,29z"/>
	<path d="M634.1,13.2c0.1-1.1,0.7-1.9,1.6-2.4C635.6,11.9,635.1,12.8,634.1,13.2z"/>
	<path d="M628.2,32.9c-0.1-0.9-0.5-1.8,0.7-2.3l-0.1-0.1C628.8,31.4,629,32.3,628.2,32.9L628.2,32.9z"/>
	<path d="M628.9,46.3c0.2,0.5,0.4,0.9,0.5,1.4c-0.1,0-0.2,0.1-0.3,0.1C629.1,47.3,629,46.8,628.9,46.3L628.9,46.3z"/>
	<path d="M647.7,47.2c-0.4-0.5-0.8-0.9-0.2-1.8C647.6,46.2,647.6,46.7,647.7,47.2L647.7,47.2z"/>
	<path d="M646.5,43.5c0-0.3,0-0.6-0.1-1c0.1,0,0.1,0,0.2,0c0,0.3,0,0.6,0,1C646.7,43.5,646.6,43.5,646.5,43.5z"/>
	<path d="M628.9,30.6c-0.1-0.7-0.1-1.3,0.7-1.6l-0.1-0.1C629.6,29.6,629.6,30.2,628.9,30.6L628.9,30.6z"/>
	<path d="M662.7,18.4c-0.2,0.5-0.4,1.1-0.6,1.6l0.1,0.1C662.4,19.5,662.6,19,662.7,18.4L662.7,18.4z"/>
	<path d="M633.3,14.7c0-0.7,0.1-1.4,0.9-1.7C634.2,13.8,634.1,14.4,633.3,14.7z"/>
	<path d="M638.5,48.7c0.1,0.1,0.3,0.1,0.4,0.2c-0.1,0-0.1,0-0.2,0c-0.1-0.1-0.1-0.2-0.2-0.2L638.5,48.7z"/>
	<path d="M643.2,36.6c0.1-0.1,0.2-0.2,0.3-0.3c0,0.1-0.1,0.2-0.1,0.2C643.3,36.5,643.2,36.5,643.2,36.6L643.2,36.6z"/>
	<path d="M631.8,26c-0.3,0.2-0.5,0.4-0.8,0.7l0.1,0.1C631.3,26.5,631.6,26.3,631.8,26L631.8,26z"/>
	<path d="M631.9,26.1c0.3-0.2,0.5-0.5,0.8-0.7l0-0.1C632.4,25.5,632.1,25.8,631.9,26.1L631.9,26.1z"/>
	<path d="M632.7,25.4c0.1-0.1,0.1-0.1,0.2-0.2C632.8,25.2,632.7,25.3,632.7,25.4L632.7,25.4z"/>
	<path d="M647.7,19.1c0.1,0.6-0.2,0.8-0.7,0.8L647,20C646.9,19.4,647.3,19.2,647.7,19.1L647.7,19.1z"/>
	<path d="M662.8,18.5c0.3-0.2,0.5-0.5,0.8-0.7l-0.1-0.1C663.3,17.9,663,18.1,662.8,18.5L662.8,18.5z"/>
	<polygon points="663.6,17.8 663.7,17.5 663.5,17.7 	"/>
	<path d="M633.8,500.2c-2.9,0-5.7,0-8.6,0c0-0.1,0-0.2,0-0.2c2.9,0,5.8,0,8.7,0C633.9,500,633.8,500.1,633.8,500.2z"/>
	<path d="M620.9,500.6c-1.3,0.7-2.1,0.9-3.2,0C618.8,500.6,619.6,500.6,620.9,500.6z"/>
	<path d="M554,216.8c-0.5-1.2-0.3-2.3,0.5-3.4c1.3,0.6,1,1.6,0.8,2.5C555.2,216.6,554.9,217.1,554,216.8z"/>
	<path d="M558.1,208.9c0.1,0.1,0.2,0.2,0.2,0.3c-0.2,0.1-0.4,0.2-0.6,0.2c-0.1,0-0.2-0.1-0.2-0.2C557.7,209.1,557.9,209,558.1,208.9
		z"/>
	<path d="M647,88c0.9,0.9,0.8,2,0.7,3.1l0.1-0.1c-1-0.9-0.7-2-0.7-3.1L647,88z"/>
	<path d="M647.1,87.9c-0.2-0.1-0.4-0.2-0.5-0.4c0,0,0-0.2,0.1-0.3c0.1,0.3,0.3,0.5,0.4,0.8L647.1,87.9z"/>
	<path d="M286.7,124.2c-0.9,0.5-0.7,1.5-0.8,2.3c-0.4,0.1-0.9,0.2-1.5,0.4c0.9-4.1,2-7.9,2.1-12c0-0.9,0-1.9-0.4-2.9
		c-0.3,0.5-0.6,1.1-0.8,1.6c-2.4,7.6-5.8,14.7-10.6,21.2c-0.1,0.2-0.1,0.5-0.2,0.7l0.1-0.1c-0.4,0-0.7-0.1-1.1-0.1
		c-0.2-0.9,0.5-1.3,0.8-1.9c0.6-1.1,1.7-1.8,1.6-3.2c0.2-0.1,0.8,0,0.2-0.5c-0.1,0.2-0.1,0.4-0.2,0.6c-0.9-0.3-1.4,0.4-1.8,1
		c-0.9,1.3-1.8,2.7-2.7,4.1c-0.4,0.5-0.9,0.9-1.6,0.6c-0.5-3.7,0-7.5,0.4-11.2c0.7-5.9,1.3-11.8,2-17.6c0.4-3.4,0.9-6.7,1.3-10.1
		c0.2-2,0.3-4,0.7-6c0,1.6,0.1,3.2,0,4.8c-0.3,3.4-0.7,6.8-1,10.1c-0.3,2.7-0.8,5.5,0.1,8.2c0.3,0.9,0.2,2,0.1,3
		c-0.5,4.1-0.6,8.3-1.8,12.3c-0.1,0.5-0.1,1-0.2,2.4c0.7-1.4,1.1-1.9,1.3-2.5c1.1-3.6,2.2-7.2,3.3-10.8c0.7-2.5,1.3-5.1,1.9-7.7
		c0.1-0.6,0.3-1.2,0.3-1.9c0.5-7.7,0.7-15.3,0.3-23c-0.3-4.5-0.6-9-1.4-13.5c-0.8-4.3-2.2-8.5-3.9-12.5c0.7-0.7,1.1-0.1,1.3,0.2
		c0.9,1.7,1.8,3.3,2.4,5.1c0.8,2.5,1.4,5.1,2.1,7.6c0.2,0.7,0.2,1.6,0.5,2.2c1.5,2.2,1.6,4.7,1.8,7.2c0.6,10.6,0.3,21.1-1.8,31.6
		c-0.2,0.9-0.3,1.7-0.4,2.6c-0.2,0.9-0.3,1.7-0.6,3.3c0.7-1,1.1-1.4,1.4-1.8c1.7-2.6,2.1-5.9,4.8-8c0.3-0.3,0.4-0.9,0.5-1.4
		c1.7-6.8,1.6-13.7,0.5-20.6c-0.2-1.2-0.3-2.5-0.4-3.7l-0.1,0.1c3.2,5.8,2.8,4.4,2.8,9.3c0,8-0.2,16-0.4,24
		C287.4,119.8,287,122,286.7,124.2z"/>
	<path d="M245.9,119.7c-0.3,3.3-0.2,6.5,1.3,9.6c-0.3,0.4-0.6,0.7-1.1,1.2c-1.1-3.2-1.3-6.3-1.7-9.5c-0.3-2.6-0.3-5.3-0.6-7.9
		c-0.1-1.2,0.3-2.3,0.8-3.2c1.1-1.8,1.2-3.8,1.1-5.8c0-3.4-0.1-6.8,0.1-10.2c0.3-6.3,1-12.5,3.1-18.5c0.3-0.9,0.3-2,1.5-2.3
		l-0.1-0.1c-0.3,1.5-0.6,2.9-1,4.4c-1.1,4.1-1.9,8.3-2,12.6c-0.2,5.8-0.7,11.5-0.3,17.3c0.2,4.1,0.8,8.2,1.4,12.3
		c0.1,0.9,0.3,1.7,0.4,2.6c0.1,1.8,0.4,3.5,1.1,5.1c0.2,0.5,0.2,1.2,0.3,1.9c-1.1-0.3-1.7-0.5-1.9-1.6c-0.5-2.4-1.3-4.8-2.1-7.2
		C246.3,120,246,119.9,245.9,119.7c-0.1-0.6-0.2-1.3-0.3-2C245.5,118.4,245,119.2,245.9,119.7z"/>
	<path d="M247.4,147.2c1.6,0.7,2.5,2.1,4,1.7c-0.9-1.7-1.2-2-3.6-3.8c-1.4-1-2.8-2.1-4.4-3.3c2-0.1,2-0.1,6.2,3.1
		c1.9,1.4,4.1,2.5,5,4.5c2.8,1.5,6,0.6,8.3,2.5c0,1.1-0.6,1.6-1.3,1.7c-1,0.1-2.1,0.3-3,0c-2.9-0.8-5.7-1.8-8.5-2.9
		c-1-0.4-1.8-1.3-2.5-2.1C247.4,148.4,247.5,147.9,247.4,147.2z"/>
	<path d="M271.6,170.2c-2.5,0.2-4.7-0.5-6.8-1.8c-2.2-1.4-4.7-2.3-6.6-4c0.1-0.8,0.7-0.6,1.1-0.8c0.2,0.4,0.4,0.6,0.7,0.2
		c0,0-0.3-0.3-0.5-0.4c-0.1-1.9-0.2-1.9,1-4.1c0.1,0.1,0.3,0.2,0.3,0.2c0,4.1,2.9,6.2,5.7,8.2c1.3,0.9,2.9,0.5,4.4,0.4
		c1.3-1.6,2.7-3,3.9-4.6c0.6-0.8,0.8-1.9,1.2-3.1c0.8,1.4,1.1,2.4,0.7,3.1c-0.6,0.9-1.3,1.7-2.1,2.7c0.8,0.3,1.5,0.5,2.5,0.8
		c-0.5,0.5-0.8,0.8-1.2,1c-0.9,0.4-2,0.5-2.8,0.9c-0.6,0.3-1.1,1-1.6,1.5L271.6,170.2z"/>
	<path d="M291.2,143.7c-1.4,3.2-2.1,4.1-5.3,6.4c-1,0.7-1.5,1.6-1.9,2.6c-1.1,0.6-2.3,0.7-3.3,0.4c-2.3-0.7-4.6-1-7-1.1
		c-0.3,0-0.6-0.5-1-1c0.7-0.2,1-0.4,1.3-0.4c3.1-0.2,5.9-1.2,8.6-2.6c1.3-0.7,2.7-1.3,4.1-0.8C288.4,146.5,288.8,144.2,291.2,143.7z
		"/>
	<path d="M257.2,65.3c-0.1,0.9-0.1,1.8-0.3,2.6c-1.7,6.4-2.2,12.9-2.5,19.4c-0.2,4.1-0.3,8.3,0.4,12.4c0.1,0.9,0.1,1.8,0.1,2.6
		l0.1-0.1c-0.2-0.1-0.6-0.2-0.6-0.4c-0.3-1.8-0.8-3.7-0.9-5.5c-0.5-8.8-0.4-17.6,1.5-26.2c0.3-1.3,0.6-2.7,1.1-4
		C256.2,65.7,256.8,65.6,257.2,65.3L257.2,65.3z"/>
	<path d="M255.1,129.5c-0.3-1.2-0.4-2.1-0.6-2.9c-1.3-5-2.6-10-3.9-15c-0.3-1.1-0.2-2.2-0.1-3.3c1.6,3.3,2.1,6.8,3,10.2
		c0.9,3.5,1.9,7,2.8,10.4c2.9,1.8,6.1,2.9,7.9,5.9c-0.4,0.1-0.7,0.2-0.8,0.1C260.7,133.2,257.9,131.3,255.1,129.5z"/>
	<path d="M261,128.7c-0.3-0.1-0.8-0.2-0.9-0.4c-2.5-5.2-4.7-10.5-5.9-16.1c-0.1-0.5,0-1,0-1.5l-0.1,0.1c0.3,0.4,0.7,0.7,0.9,1.1
		c1,2.7,1.9,5.4,2.9,8.2c0.9,2.4,1.8,4.7,2.7,7C260.7,127.5,260.8,128.1,261,128.7L261,128.7z"/>
	<path d="M266.6,116.4c1.2,4,1.7,13.4,1,18.6c-0.2-0.1-0.4-0.2-0.4-0.2c-0.3-5.7-0.6-11.5-0.8-17.2
		C266.4,117.2,266.5,116.8,266.6,116.4z"/>
	<path d="M274.8,87.6c0-4.8,0-9.7,0-14.5c0.1,0,0.2,0,0.2,0c0,4.9,0,9.8,0,14.7C274.9,87.7,274.8,87.6,274.8,87.6z"/>
	<path d="M276.1,135.6c1.1-1.6,2.7-2.5,4.5-3.1l-0.1-0.1C279.3,134.3,278.4,134.9,276.1,135.6L276.1,135.6z"/>
	<path d="M257.2,65.3c-0.2-1.2,0.4-2.2,1.3-3.6C258.4,63.4,258.2,64.5,257.2,65.3L257.2,65.3z"/>
	<path d="M274.5,135.5c0.5,0,1,0,1.6,0l-0.1-0.1c-0.3,1-1,1.4-2,1.2c0.3-0.5,0.5-0.9,0.7-1.3L274.5,135.5z"/>
	<path d="M280.6,132.5c0.2-0.8,0.9-0.9,1.7-0.8C281.7,132,281.1,132.2,280.6,132.5L280.6,132.5z"/>
	<path d="M254.9,102.3c0.6,0.4,0.7,0.8,0.2,1.8C255,103.2,255,102.7,254.9,102.3L254.9,102.3z"/>
	<path d="M285.1,84.2c-0.9-0.6-0.6-1.5-0.6-2.3l-0.1,0.1C285.1,82.6,285.1,83.4,285.1,84.2L285.1,84.2z"/>
	<path d="M245.2,82.7c0-0.6,0-1.2,0-2C245.9,81.6,245.8,82.2,245.2,82.7L245.2,82.7z"/>
	<path d="M250.5,73c-0.1-0.9-0.2-1.7,0.7-2.3l-0.1-0.1C251,71.4,251.1,72.2,250.5,73L250.5,73z"/>
	<path d="M254.2,110.6c-0.6-0.3-0.7-0.8-0.2-1.8C254,109.7,254.1,110.2,254.2,110.6L254.2,110.6z"/>
	<path d="M251.9,69.1c-0.3,0.5-0.6,0.9-0.9,1.4l0.1,0.1C251.3,70.1,251.2,69.4,251.9,69.1L251.9,69.1z"/>
	<path d="M252,69.2c0-0.3,0.1-0.6,0-0.4C252.2,68.6,252,68.9,252,69.2L252,69.2z"/>
	<path d="M260.9,128.7c0.2,0.1,0.4,0.2,0.5,0.4c0,0.1-0.2,0.3-0.3,0.5c-0.1-0.1-0.2-0.2-0.2-0.3C261,129.1,261,128.9,260.9,128.7
		L260.9,128.7z"/>
	<polygon points="284.5,81.9 284.3,81.8 284.4,81.9 	"/>
	<path d="M226.9,71c-2.2,1.7-4.1,2.7-6.4,3.1c-0.9,0.2-1.8-0.1-1.8-1.2c0.2-0.2,0.3-0.5,0.5-0.6c2.2-0.6,4.3-1.1,6.5-1.7
		C226,70.6,226.2,70.7,226.9,71z"/>
	<path d="M233.8,88.7c-0.1,1-0.1,1.9-0.3,3.3c-0.3-1.5-0.5-2.4,0.4-3.2L233.8,88.7z"/>
	<path d="M234.3,85.5c0.1,1.1,0.2,2.3-0.6,3.3l0.1,0.1C233.7,87.7,233.8,86.6,234.3,85.5L234.3,85.5z"/>
	<path d="M279.7,221.7c-0.1,0.1-0.3,0.1-0.4,0.2c0-0.2,0-0.4,0-0.6c0-0.1,0.2-0.1,0.2-0.2C279.6,221.3,279.7,221.5,279.7,221.7z"/>
	<path d="M283.3,226.5c-0.1,0-0.2-0.1-0.2-0.1c0-0.1,0-0.2,0.1-0.3c0.1,0,0.2,0.1,0.2,0.1C283.4,226.3,283.3,226.4,283.3,226.5z"/>
	<path d="M346,208.2c0.6,1.1,0.9,2.2,0.2,3.5c-1.2-0.2-1.3-1.1-1.3-1.9C344.9,209.1,344.9,208.4,346,208.2z"/>
	<path d="M342.3,203.6c0.2,0.1,0.4,0.2,0.6,0.3c-0.1,0.1-0.2,0.2-0.2,0.2c-0.2,0-0.4-0.1-0.6-0.2
		C342.1,203.8,342.2,203.7,342.3,203.6z"/>
	<path d="M296,54.6c0-0.7,0-1.4,0-2.1c0.1,0,0.1,0,0.2,0c0,0.7,0,1.5,0,2.2C296.1,54.6,296.1,54.6,296,54.6z"/>
	<path d="M301,88.6c0.2,0.3,0.4,0.7,0.5,1c0.1,0.6,0,1.2-0.3,1.9C301.2,90.5,301.1,89.5,301,88.6L301,88.6z"/>
	<path d="M225.8,519.2c0.1,0.2,0.4,0.4,0.4,0.6c-0.6,7.5,1.3,14.9,1.9,22.3c0,0.1-0.2,0.2-0.2,0.3c-0.2-0.1-0.6-0.1-0.6-0.2
		C225.7,535.5,224.4,523.9,225.8,519.2z"/>
	<path d="M226.6,551.7c0.4,1.9,0.7,3.3,1,4.8c0,0.2-0.3,0.6-0.4,0.5c-0.3-0.1-0.8-0.3-0.8-0.5C226.3,555,226.5,553.5,226.6,551.7z"
		/>
	<path d="M157.6,499.9c2.9,0,5.7,0,8.6,0c0,0.1,0,0.2,0,0.2c-2.9,0-5.7,0-8.6,0C157.6,500,157.6,500,157.6,499.9z"/>
	<path d="M149.9,500.6c1.3,0,2.1,0,3.6,0C152,501.3,151.2,501.4,149.9,500.6z"/>
</g>
</svg>
