<?xml version="1.0" encoding="utf-8"?>
<!-- Generator: Adobe Illustrator 19.1.0, SVG Export Plug-In . SVG Version: 6.00 Build 0)  -->
<svg version="1.2" baseProfile="tiny" id="Layer_2" xmlns="http://www.w3.org/2000/svg" xmlns:xlink="http://www.w3.org/1999/xlink"
	 x="0px" y="0px" width="900px" height="600px" viewBox="144 97 900 600" xml:space="preserve">
<g>
	<path d="M524.6,681.5c2.3-0.6,2.6-2.3,2.3-4.3c-0.2-1.5-1-2.7-1.8-3.9c-3.4-5-6.8-10-10.1-15.1c-0.7-1.1-1.5-2.3-1.7-3.6
		c-0.6-3.9-3-6.5-5.9-8.8c-0.3-0.2-0.6-0.4-0.8-0.6c-0.1-1.1-1-1.7-1.6-2.4c-1.2-1.4-2.2-2.9-2.2-4.9c-0.1-1.8-0.9-2.9-2.6-4
		c-2.6,0.5-5.5,0-8.3,0.9c-2.6,3.2-1.6,8.2-5.5,10.6c-1.7-0.3-2-1.5-2.1-2.7c-0.1-0.7,0.1-1.4,0.1-2.2c0.4-4.2-0.4-8.2-1.2-12.2
		c-1.8-9.2-2.8-18.5-3.9-27.8c-1.1-9-3.4-17.7-5.9-26.3c-2-6.7-2.9-13.5-3.2-20.5c-0.3-5.7-0.9-11.4-0.1-17.1c0.4-3,1-5.9,1.5-9
		c-2.5-2.3-3.6-5.3-4.4-8.3c-1.3-4.8-2.9-9.5-4.4-14.3c-1.7-5.3-2.5-10.8-2.3-16.5c0.2-4.1-1-8.2-1.7-12.2c-0.6-3.6-1.3-7.2-2-10.7
		c-0.4-2.1-0.8-4.3-1.8-6.3c-4.5-8.6-6.9-17.8-9-27.2c-1.8-8.3-4.6-16.4-5.6-24.9c-0.1-1.2-0.6-2.1-2.1-2.1c-1.8,2.3-2.5,5.1-3,7.9
		c-3.2,18.7-9.4,36.4-16.9,53.7c-3.1,7-5.1,14.4-6.9,21.8c-1.1,4.6-0.8,9.4-1.8,14.1c-0.5,2.2-0.8,4.6-1.6,6.7
		c-2.6,7.3-4.3,14.9-7.3,22.1c-0.7,1.6-0.9,3.2-0.9,5c0.1,3.5-0.4,7-0.9,10.5c-0.4,2.5-0.7,5.1-0.8,7.6c-0.3,7.9-2.5,15.3-6.2,22.3
		c-2.7,5-4.1,10.4-4.8,16c-1.3,10.7-3.1,21.4-5.3,32c-0.5,2.4-0.9,4.8-1,7.2c2.6,1.4,2.8,4,3.3,6.5c0.6,3.3-0.3,6.5-0.2,10
		c3.7,4,2,8.8,1.6,13.4c-2.6,3.8-5.4,7.4-10,9.3c0.4,1.9,1.1,3.7,0.7,5.6c-0.5,2-1.8,3.3-3.4,4.3c-0.3,1.1,0.9,0.7,0.9,1.4
		c-6.1,5-26.2,5.7-34.1-0.7c-0.3-1.1,0.6-1.2,1.2-1.4c-1.3-4.1-1.3-8.3-1.1-12.6c1.7-0.9,2.3-2.6,2.8-4.3c0.7-2.5,2.2-4.6,4-6.4
		c1.6-1.7,3.1-3.5,3.9-5.7c1.5-3.9,4.1-7.1,6.6-10.3c0.8-1,1.2-2,1.6-3.2c0.6-1.6,1.2-3.2,2.4-4.6c0.7-1,2.4-0.2,3.1-1.4
		c0.7-1.6,0.6-3.2,0.5-4.9c-0.4-6.7-0.8-13.3-1-20c-0.1-4,0-8,0-12c0.1-5.7-1.1-11.4-1.8-17c-1.1-8.5-1.6-16.9-0.8-25.4
		c0.4-4.2,0.9-8.4,0.4-12.7c-0.1-1.1,0.7-2.3,0.9-3.5c1.2-5.7,3.4-11.2,6.1-16.3c2.1-4.2,2.4-8.7,2.4-13.1c0.1-4.5,0.7-8.9,1.8-13.3
		c1.2-4.5,1.5-9,1.2-13.7c-1.3-19.4-2.1-38.8-1.6-58.3c0.2-7.8,1.3-15.5,2.4-23.2c1.2-8.8,3.2-17.4,5.6-26
		c1.5-5.7,2.2-11.7,2.8-17.6c0.6-6.2,2.3-11.9,5.3-17.3c1.6-3,3.4-5.9,5.1-8.8c1.8-3,3-6.3,4.6-9.5c3.2-6.6,2.1-13.3,1.6-20
		c-0.5-6.2-2.2-12.2-2.6-18.4c-0.1-1.8-1.4-3.3-2.1-5c-2.4-6.2-3.3-12.7-4.4-19.1c-0.1-0.8-0.2-1.7-0.6-2.4
		c-3.6-6.7-5.6-14-8.4-20.9c-2-4.9-4.9-9.1-10.1-11.2c-2.6-1-4.9-2.6-7.1-4.3s-4.7-3.1-7.3-4.1c-3.9-1.5-7.3-3.8-10.6-6.2
		c-8.1-6.1-15.1-13.3-20.8-21.8c-2.3-3.4-5-6.5-7.5-9.8c-2.7-3.5-5.1-7.1-7.2-10.9c-0.5-0.8-0.9-1.8-1.6-2.4
		c-3.7-3.2-4.2-7.5-4.1-12c0-2.7,0.5-5.3,3.2-6.9c0.6-0.3,0.9-1.1,1.4-1.9c9.2,0.2,18.2-2.2,27.4-2.8c9.2-0.6,18.5-0.1,27.7,0.8
		c2.3,0.2,4.6,0.5,6.9,0.3c4.3-0.3,8.5,0.5,12.7,1.1c5.3,0.8,10.4,0.1,15.4-1.3c2.1-0.5,4-1.8,6.3-0.5c0.3,0.1,0.7,0,1.1-0.1
		c2.8-0.5,5.7-1,8.8-1.6c0.6-4,1.3-8,1.8-12.1c0.4-3.5,1.4-6.7,3.1-9.9c2.9-5.6,7.4-8.4,13.5-9.3c1.2-0.2,2.4-0.4,3.6-0.6
		c2.6-5.3,7-7.2,12.6-6.6c5.2,0.5,8.1,4.2,7.8,9.5c0,0.4,0.1,0.7,0.1,0.9c0.5,0.9,1.3,1.3,1.9,1.8c5.7,4.2,8.2,10,8.4,17
		c0.1,3,0.6,6-0.2,8.9c2.5,1.2,4.7,1.3,6.9,0.3c2.7-1.2,5.3-1.2,8.1-0.6c6.4,1.4,12.8,2.7,19.4,3c3.4,0.1,6.7-1,10.1-1.4
		c8.6-1,17.1-2,25.7-2.9c4.9-0.5,9.7,0.1,14.4,1.4c5.3,1.4,10.5,3,16,3.3c2.2,0.1,3.4,1.7,4.7,3.3c0.5,0.4,1.3-0.6,2.1,0.7
		c0.4,2.6,0.9,5.7,1.4,8.6c-1.1,2.7-2.9,4.7-4.4,7c-6.2,9.8-11.7,20.2-19.1,29.3c-8.1,10-17.3,18.7-27.9,25.9
		c-7,4.8-12.9,10.7-16.8,18.3c-2.2,4.3-5.1,8.3-7.6,12.4c-2.5,4.1-4.7,8.5-6.9,12.8c-0.6,1.1-0.8,2.5-1.1,3.8
		c-3.8,13.5-6.7,27.1-9.2,40.8c-1.4,7.8-0.1,15,3.2,21.9c2.7,5.7,4.9,11.6,6.3,17.8c1.1,5,1.8,10.1,3,15.1
		c1.7,7.5,3.9,14.8,6.2,22.1c1.8,5.6,1.9,11.5,2.5,17.3c1.3,12.3,0.8,24.5-0.3,36.8c-0.5,5.1-0.2,10.2-0.2,15.3
		c0.1,9.1-0.2,18.2-2.1,27.2c0.9,0.9,1.2,1.9,0.9,3.2c-1.8,8.4-2.2,17.1-3.3,25.6c-0.5,3.9,0.5,7.7,1.2,11.5
		c1.2,6.4,3.2,12.7,4.2,19.2c1.5,9.9,1.4,19.8,0.8,29.8c-0.3,6.2-2.1,12.3-2,18.5c0.2,9.5-1.8,18.8-2.5,28.3c-0.1,1.6-0.2,3.2,0,4.7
		c0.3,3.6,0.6,7.3-0.4,10.9c-0.2,0.6,0,1.2,0,2c2.8,1.3,3.6,3.7,3.7,6.5c0.2,2.7,1.4,4.9,3.5,6.6c3.6,2.8,5.9,6.1,7.2,10.6
		c0.9,3.4,2.8,6.6,5.1,9.5c2.4,3.1,4.5,6.6,6.7,9.9c1.2,1.8,1.5,3.9,1.1,6s-0.9,4-3.5,4.4c-0.6,0.1-1.1,0.5-1.6,0.9
		c-3.4,2.7-7.4,3.2-11.6,3.3c-4.8,0.1-9.4-0.5-14.1-1.6c-4.6-1.1-7.3-4-8.6-8.5c-0.5-1.8,0.9-3.3,0.5-4.6c-0.3-0.8-0.9-1.1-1.3-1
		c-5.1,0.1-8.3-2.6-10.5-6.8c-0.4-0.8-0.8-1.5-1.4-2.1c-1.7-1.6-2-3.7-1.2-5.7c2.9-7.1,4.5-14.5,5.7-22.1c0.1-0.8,0.2-1.7,1.2-2.1
		c1.3,0.5,0.9,1.6,0.9,2.5c-0.5,5.7-0.8,11.4-3.7,16.6c-0.7,1.3-1.1,3-1.4,4.5c-0.4,1.9,0.1,3.6,1.1,5.2c0.2,0.4,1,0.6,1.1,1
		c1.2,4.4,4.6,5.9,8.5,6.9c1.2,0.3,2.3,0.9,3.1,2.3c0.5,1.9-0.4,4.1,0,6c2.4,5,6.6,6.4,11.5,6.6c3,0.1,6.1,0,9.1,0.1
		c4.5,0.2,8.3-1.2,11.7-4L524.6,681.5z M470.6,153.3c2.9-1.5,1.2-3.9,1.4-6.7c-1.3,1.6-2,2.4-2.7,3.4
		C469.9,151.1,471.5,151.8,470.6,153.3c-1.2,1.4-1.3,3.6-3.4,4.1c-0.2,1.6-0.2,1.6,0.6,3.1C469.3,158.2,470.9,156.1,470.6,153.3z
		 M458.9,120.3c1.1-0.7,1-2.5,1.8-2.7c1.8-0.1,1.4,1.6,2.5,1.6c0.2-3.1-1.2-5-4.6-6c-0.2,0.5-0.4,1.1-0.6,1.6c-0.3,0.5-0.6,1-1,1.5
		c-1.4,0.5-1.1,2.6-2.8,2.9c-0.7-1.1,0.3-1.6,0.6-2.3c0.8-1.4,1.8-2.6,2.5-4c0.5-0.9,0.4-1.6-0.9-1.9c-1.1,2.8-2,5.7-4.4,7.8
		c-0.7-0.1-1.4-0.2-2.1-0.2c-0.2-0.6,0.6-1.3-0.2-1.9c-1.3,2.1-2.4,4.1-4.9,4.8c-0.6-0.4-1.4-0.4-1.8-1.3c0.2-2.7-0.3-5.6,0.8-8.4
		c0.1-0.4,0.3-0.4,0.4-0.1c0.1,0.7,0.3,1.3,0.4,2.1c0.6-0.7,0.2-1.8,1.2-2.2c0.4,0.9,0.2,1.9,0.1,2.9c-0.1,0.8-0.4,1.7,0.1,2.7
		c1.4-1.7,1-4,2.5-5.6c0.8,1.7-0.7,3.1-0.4,5.1c1.9-2.5,2.6-5,2.7-7.7c-1-0.3-1.7-0.7-2.7-0.4c-1.1,0.8-0.6,2.9-2.4,3.3
		c0.1-1.1,0.5-2.1-0.3-3.4c-0.9,0.1-2-0.9-3.1,0.2c0.8,4.6-1,9.1,0,14.4c-2-2.4-4-1.1-5.7-1.7c-2-2.6-2.9-5.6-4.4-8.3
		c0.9-3.7,0.5-4.3-2-3.6c0.9,4,2.2,8,4,11.7c-1.6-1.5-3.3-2.6-4.3-4.6c-1-1.9,0-4.3-1.3-6.2c-1.2,0.5-1.8,1.2-2.3,2
		c-2.2,1.7-2.1,2.2,0.8,5.5c-0.5-2.1-1-3.8-0.9-5.6c1.8,1.7,1.8,4.1,2.2,6.2c0.2,1-0.3,2.4-2.1,1.9c-0.2-2.1-2-3.2-3-4.8
		c0.5,1.9,0.8,3.9,2.9,4.8c-0.1,0.4-0.1,1-0.7,1.2c-1.4-1.3-2.8-2.5-4.2-3.8c-0.8,0.9,0,1.9-0.3,3c-0.8,0.4-1.6,0.9-1.5,2
		c0.2,1.1,1.5,1.6,1.4,2.8c-0.6,0.5-1.1-0.6-1.6,0.1c-0.3,1.4,0.9,2.6,1,4c-1.2,0.2-1.1-1.2-2.2-1.2c0.2,2.6,1.9,4.7,1.8,7.2
		c1,0,0.6-1.2,1.7-1c0.1,1.4,0.6,2.9,0.2,4.6c-2.2,1.2-2.8,3.1-2.7,5.6c0,4.7-0.4,9.5,1.3,14c1.2,3.3,2.4,6.6,3.3,10
		c1.8,6.8,4.8,12.4,11.6,15.8c7.3,3.7,17.3,1.8,22.2-4.8c3.5-4.7,4.7-10.3,6.1-15.9c0.8-3.2,1.3-6.4,2.7-9.4
		c0.6-1.4,0.8-2.8,0.6-4.3c-0.5-4.6-1.9-9.2-1.3-13.9c1-0.3,1.7-0.8,1.2-2.1c-0.9,0.6-1.1,1.3-1.1,2.2c-1.5,0.4-1.8-0.8-2.2-1.7
		c0.3-2.1,1.9-3.4,2.8-4.8c-0.1-0.8,0-1.4-0.7-2.1c-0.4,1.2-0.2,2.7-1.8,3.1c-0.9-2.2,0.6-4,1.2-5.8s1.1-3.6-0.6-5.4
		c-0.7,2.3,0.2,4.7-1.7,7.2c0.6-3-2-4.6-1.5-7.1c-1.3,0.2-1.1,1.9-2.4,1.7C458.6,121.2,458.7,120.7,458.9,120.3L458.9,120.3
		L458.9,120.3z M449.6,102.3c-3.7-1.2-6.7,0-8.6,3.4c1.3,0,2.4,0,3.8,0C445.8,103.8,447.6,102.8,449.6,102.3
		c-0.4,0.6-0.9,1.2-1.4,1.9c0.4,0.2,0.7,0.4,1.1,0.6c-0.2,0.6-0.9,0.9-0.4,1.6c1.3,0.6,2.6,0.2,3.7-0.6c0.6,2,2.9,1.1,3.9,2.5
		c-0.1-1.1-0.2-2-1-2.4c-1.1,0-2.1,0-3,0c0.2-1.2,2.2-0.3,2.2-1.8C453.4,102.4,451.5,102.3,449.6,102.3z M375.1,668.3
		c4.3-0.7,6.5-3.4,7.4-7.4c0.7-2.9,1.1-5.7,0.6-8.9c-2.4-2.3-2.6-5.4-1.6-8.5c-1-0.4-1.6,0.4-3-0.6c-2-2.1-3.1-5.9-5.8-8.8
		c-3.4,0.7-6.8-0.6-10.1-0.2c-1.8,3.1-1.7,6.6-4.2,9.5c2,0,3.4-0.1,4.9,0c2.9,0.3,5.8,0.8,8.4,2.1c1.1,0.6,2.1,1.3,1.1,3
		c-5.3-2.4-10.8-2.7-16.5-2.3c-0.9,0.8-2.2,1.3-2.1,3.1c1.6-0.2,3-0.3,4.5-0.5c3.4-0.3,6.8-0.4,10.2,0.3c1.5,0.3,3.1,0.5,3.4,2.8
		c-6.5,0-12.7,0-18.9,0c-0.5,0.5-1.2,1-0.7,2c2.7-1.3,5.6-1.5,8.5-1.2c2.8,0.3,6-0.1,8.1,2.3c-0.3,0.9-0.6,1.4-1.1,1.4
		c-5.7,0.6-11.3,0-16.8-0.7c-4.2,3.6-6.5,8.4-9.5,12.6c-0.1,3.5,0.1,7,0.7,10.5c3.1-1.6,6.4-2,9.9-2.1c1.4,3.2,6,1.5,7.8,4.7
		c-0.4,0.2-0.6,0.5-0.8,0.4c-1.6-0.4-3.3-0.8-4.9-1.3c-4.4-1.3-6.2-1.2-11.5,0.9c6.5,1.6,12.4,2.8,18.7,1.9c3.4-0.5,6.5-1.2,9.3-3.6
		c2.1-1.9,3.3-3.8,2.8-6.6c-0.1-1-0.2-1.9-0.3-2.9C373.8,669.5,375,669.3,375.1,668.3L375.1,668.3z M484.6,259.1L484.6,259.1
		c-0.3-1.5,1.2-2.6,1.1-3.5c-6.6-15-11-30-11.3-46c-2.3-0.1-4,0.7-5.8,1.3c-0.2,1.4,0.2,2.7,0.4,4c0.7,4.5,0.1,8.8-2.2,12.7
		c-5.4,8.9-13.4,13.1-23.8,12.2c-3.7-0.3-7.5-0.9-11.2-1c-5-0.1-8.6-2.4-11.1-6.5c-2.7-4.3-3.3-9.1-2.8-14c0.3-3.2,0.6-6.5,0.9-9.9
		c-1.4-0.4-2.5-1.3-4-0.9c-0.7,0.9-0.8,2-1,3.1c-1.6,7.2-3.7,14.3-5.6,21.4c-2.7,10.2-7.2,19.7-13.4,28.4c2.6,6.6,4,13.5,6.1,20.3
		c11.7,2.9,23.3,5.3,35.3,4.4c4.6-0.4,9.2-0.2,13.8-0.1c3.3,0.1,6.4,1.4,9.7,1.1c2.8-0.3,5.6-0.6,8.3-0.9c6.1-0.6,11.7-3.2,17.8-4.5
		c1.9-6.5,3-13.2,5.4-19c-1.6-1.8-3-3.3-4.3-4.7C485.8,257.3,485.8,258.9,484.6,259.1z M442.4,404.3l-0.1-0.1
		c2.3,4.5,2.3,9.6,4,14.2c4.3,1.4,8.6,2.2,12.9,2.6c7,0.7,14.1,0.5,21.1,0.8c8,0.3,15.5-2,22.9-4.7c-0.1-9.8-0.8-19.2-1.5-28.6
		c-0.1-1.4-0.2-2.9-0.6-4.3c-3-11.1-6.2-22.2-10.1-33c-2.4-0.5-4.8,0.2-7.2,0.6c-8.3,1.4-16.5,2.9-24.9,3c-6.5,0.1-13.1,0-19.6,0.4
		c-5.1,0.3-10.2-0.3-15.2-0.9c-12.1-1.7-23.6-6.5-36.3-6.2c-0.9,2.7-0.7,6-1.4,9.3c7.5,0.7,14.8,1.3,22,1.9
		c-7.4,0.7-14.7,0-21.9-0.3c-0.7,1.3-0.8,2.4-1,3.5c-0.8,4.4-1.4,8.9-2.9,13.1c-2.6,7.4-4,15-4.9,22.7c-0.6,4.7-1.5,9.3-1.6,14.1
		c4,3.1,8,5.7,13.3,5c0.7-0.1,1.5,0,2.2,0.2c3.8,1,7.7,1.1,11.5,1.9c9.9,2.2,19.2-0.3,28.5-3.1c1.4-4.4,2-8.8,3.8-12.8
		c1.4-0.1,2.5-0.9,3.7-1.4C440.4,402.5,441.3,403.6,442.4,404.3z M464.1,195.1c1-4.6,1.8-9.2,1.7-14c-0.1-5.1-0.8-10.1-0.3-15.8
		c-1.6,4-2.1,7.4-1.5,11c0.5,3.3,0.9,6.6,0,10.1c-0.9-1.2-0.2-2.6-0.8-3.7c-0.5,0.5-0.2,1.6-1.3,1.6c-0.3-0.4-0.6-0.7-0.9-1.1
		c-0.1,0.2-0.2,0.5-0.1,0.7c1.3,3.3,2.5,6.6,2.9,10.1C463.7,194.4,464,194.7,464.1,195.1c-1,2.9,0.7,5.6,1.5,9
		c-2.1-1.9-3.9-3.3-4.3-5.6c-0.7-4.5-2.6-8.6-3.1-13.1c-0.1-0.8,0.1-1.8-1-2.4c-0.7,1.2-1.8,1.9-3,2.4c-1.8,0.8-3.7,1.4-5.3,2.4
		c-3.7,2.3-7.3,1.9-11-0.1c-2.5-1.4-5.1-2.5-7.9-3.8c0.5,6.1-0.3,11.5-4.9,15.5c0.3,0.7,0.8,1.2,0.6,1.5c-1.1,1.3-2.8,1-3.8,2.1
		c-0.1,1.3-0.2,2.8-0.3,4.2c6.2,3,12.7,4.8,19.1,8.8c-4.3,0.5-6.4-2.9-9.6-3.4c-3.3-0.5-6.2-2.5-9.7-3.2c-0.1,4.6-1.1,8.8-0.4,13.2
		c1.6,10.4,8.1,15.6,18.7,15c0.7-1.2,0.2-3,1.8-3.8c0.9,1.1,0.1,2.7,1.1,3.9c3.6-0.2,7.1-1,10.5-2.3c9.8-3.6,9.9-4.7,12.5-13.5
		c1-3.3,1.5-6.8,0.6-10.5c-5.3,1.1-10.2,3-15.5,3.4c2-2.2,4.8-2.5,7.4-3.2c2.8-0.8,5.6-1.5,8.1-2.2c0.9-2.3-0.7-4.7,1.3-6.6
		c0.9,0.1,1.8,0.2,2.8,0.4c3.5,0.5,6.7,1.7,10.1,2.6l-0.1-0.1c-0.9,1.8-3.1,0.1-4.3,1.5c1.3,11.9,2.6,23.8,7.6,34.9
		c0.8,1.8,1.7,3.7,1.6,5.9c-0.1,1.3,0.6,2.7,1.9,3.5c1.7-3,1.8-6.4,3.4-9.1c0.7,0.1,1,0.3,1,0.6c0.2,4-1.8,7.4-3.1,11.1
		c1.2,1.1,2.4,2.1,3.6,3.2c5.5-9.6,10.1-19.7,16.9-28.6c3.3-4.3,6.4-8.9,11.2-11.8c3.2-2,6.2-4.2,9.1-6.6
		c6.6-5.4,12.5-11.5,18.8-17.2c0.8-0.7,1.4-1.7,2.1-2.5c8.7-11.5,16.1-23.9,24.1-35.9c0.4-0.6,0.7-1.3,1.1-2
		c-0.4-2.3-0.7-4.7-1.1-7.1c-1.6-1.1-3.1-2.1-4.5-3.1c-5.7-0.6-11.4-1.2-16.8-3c-5.1-1.6-10.3-1.8-15.5-1.3
		c-9.8,0.9-19.6,1.5-29.3,3.4c-5.1,1-10.2,0.2-15.2-0.7c-3.8-0.7-7.6-1.6-11.4-2.3c-0.9-0.2-2-0.2-2.9,0.1c-3.2,1.1-6.6,1.1-10,1.8
		c0,1.4-0.1,2.7,0.3,4c1.1-0.3,1.5-1.6,2.6-1.5c3.4,2.9,4.3,7.4,1.9,10.9c-0.9,1.3-1.4,2.8-2.1,4.2c-0.4,0.8-0.1,1.4,1,1.5
		c3.2-4.6,6.1-9.6,12.4-11c0.1,0.5,0.1,0.7,0.1,0.8c-0.4,0.3-0.7,0.6-1.2,0.8c-3,1.1-5.2,2.8-6.8,5.7c-1.8,3.3-4.1,6.2-7.6,7.7
		c-0.9-0.1-0.9-1.4-2.1-0.8c-0.1,1.4-0.4,2.9,0.2,4.4c2.4,0.3,3.9-1.7,5.9-2c3.5-0.5,6-2.4,8.6-4.4c3-2.4,6.4-4,10.2-4.5
		c6.9-0.9,13.8-0.5,20.7-0.6c4.9-0.1,9.6,1.1,14.3,2.5c4.4,1.3,8.8,2.7,13.6,3.1c1.8-0.9,3.7-2.1,5.8-2.7l-0.1-0.1
		c0.1,1.1-0.7,1.4-1.4,1.9s-1.8,0.9-2,1.5c-0.8,2.5-3,2.9-4.9,3.9c-1.6,0.9-3.8,1.2-4.8,2.5c-1.7,2.4-4.1,3.3-6.3,4.6
		c-4.6,2.8-8.6,6.2-12.2,10.2c-0.8,0.9-1.6,1.7-2.5,2.6l-0.2-0.1c1.6-5.8,5.3-10,10.4-13c4.8-2.8,9.8-5.3,14.7-8
		c0.7-0.4,1.6-0.4,1.8-1.8c-7-0.7-13.7-3.2-20.5-4.7c-0.9-0.2-1.9-0.2-2.9-0.2c-6.7,0-13.4-0.2-20,0.1c-3.9,0.2-7.8,1-11.1,3.6
		c-2.9,2.3-6.1,4.2-9.9,5.1c-2.6,0.7-5,2.1-7.4,3.2c-0.2,2,0,3.7,0.2,5.4c0.7,5.5,0.5,10.9-1,16.2
		C466.1,192.8,465.8,194.4,464.1,195.1z M469.1,519.1c2.6,0.9,3.5,2.6,4,4.7c0.9,3.5,0.6,7,0.3,10.5c-1.4,13.4-0.3,26.7,2.9,39.7
		c2.2,8.8,5,17.5,5.7,26.6c0.5,6.2,1,12.3,1.8,18.5c0.5,4.1,1.2,8.1,2.3,12.2c1.1-0.6,0.5-1.7,1-2.3c0.6,2.6,0.2,5.3,0.4,8.5
		c1.4-1.9,1.2-4,2.6-5.4c2.9-1.7,6.2-1.4,9.2-1.6c0.7-4.1,0.6-8,0.5-11.9c-0.2-4.1,0.1-8.2,0.6-12.4c0.7-5.2,1.1-10.4,1.5-15.6
		c0.9-12.6,1.8-25.2,2.4-37.8c0.5-8.9-0.8-17.7-3.1-26.3c-1.1-3.9-1.7-8-2.9-11.9c-1.1-3.4-0.7-7.2-0.2-10.9
		c0.9-6.6,2.2-13.2,2.5-19.9c0.7-14.1,1.7-28.1,1.4-42.2c-0.1-3.5,0.2-7,0.5-10.5c0.4-3.7,0.8-7.4,0.3-11.3
		c-5.1,2.4-10.3,3.7-15.7,3.9c-3,0.1-6.1,0-9.1,0c-10.6,0-21.3,1.4-31.8-2.9c1.2,3.3,2.2,6.2,2.8,9.1c1,5,2.8,9.8,4.7,14.5
		c6.1,15.1,9.8,30.8,9.7,47.1c0,5.7,1.1,11.1,3.2,16.3C468.1,511.6,470,514.9,469.1,519.1z M378.3,635.7c0.4-6.7,1.8-13.2,2.9-19.8
		c1.3-7.9,2.1-15.9,3.5-23.8c1.1-6.1,1.8-12.3,4.6-17.9c2.2-4.3,3.4-8.8,4.2-13.5c0.9-5.2,1.1-10.4,1.7-15.6
		c0.9-8.5,4-16.5,6.5-24.6c2.3-7.3,4.7-14.6,5.5-22.2c1.5-14.3,5.9-27.7,11.6-40.8c0.8-1.8,1.6-3.6,2.1-5.4c3-9.7,6-19.5,8.9-29.3
		c0.3-1.1,1.1-2.2,0.5-3.7c-6.1,2.5-12.5,3.9-19,4.4c-2.1,0.2-4.1,0.5-6.1-0.2c-3.9-1.3-8.1-2-12.1-2.2c-6.1-0.4-12-1-17-4.8
		c-0.2,0.5-0.4,0.7-0.4,0.9c-0.6,9.7-1.4,19.4-0.9,29.1c0.5,9.6,1.2,19.1,1.1,28.8c0,1.2-0.2,2.5,0.1,3.6c1.4,6.8,0.2,13.3-1.8,19.7
		c-0.9,3-1.2,6.1-1.5,9.3c-0.4,5.4-0.5,10.8-3,15.8c-0.7,1.3-1.2,2.7-1.7,4c-0.5,1.2-1,2.5-1.3,3.8c-1.8,10.4-3,20.9-2.8,31.5
		c0.2,8,1.1,16,1.7,24c0.8,11.3,1.1,22.6,1.6,33.8c0.1,2.7,0.1,5.3,0.1,8c0,0.8-0.5,1.7,0.4,2.5c1.8,0.2,3.7,0.4,5,0.5
		c1.7,0.6,1.7,2.2,2.9,2.4c0.7-1.1-0.3-2.4,0.6-3.4C377.8,632.1,376.9,634.2,378.3,635.7z M415.9,140c-6.4,0.9-12.4,1.6-18.1,3.7
		c-2,0.8-4,1.1-6.1,0.7c-5.5-1-11.1-1.4-16.7-1.4c-1.7,0-3.4-0.2-5.1-0.4c-6.6-0.6-13.3-1.6-20-1.5c-12.9,0.3-25.6,1.9-38.4,3.7
		c-3.4,0.5-5.1,2.6-4.7,6.1c0.5,3.8,0.2,7.9,4.2,10.3c0.2,0.1,0.3,0.4,0.5,0.6c4.6,6.1,9.4,12.1,13.9,18.3c3.2,4.4,6.2,9,9.6,13.2
		c4.5,5.6,9.9,10.8,16.3,14.4c8.5,4.7,16.4,10.3,25.3,14.3c1.8,0.8,3.2,2.1,4.3,3.8c2,3.2,3.5,6.7,4.5,10.3c1.4,5,3.4,9.8,5.8,14.5
		c1.1,2.1,2.2,4.1,2.3,6.7c1.6-0.6,2-1.8,2.5-2.9c1.9-4.2,4.1-8.3,5.5-12.6c2.4-7,4.3-14.2,6.3-21.3c1.1-3.7,2.3-7.4,3-11.3
		c-2-2.8-4.7-4.8-7.4-7.8c3.6,1.2,5.5,3.7,7.8,5.4c0.8-1.2,0.1-1.8-0.5-2.4c-1.6-1.5-3.3-2.8-5.3-3.9c-3.6-2-7.2-4-10.8-6.1
		c-3.8-2.2-7.5-4.3-11.9-5c-2.5-0.4-4.9-1-7.5-1.6c1.2,1.9,2.3,3.5,3.5,5.4c-1.7,0.1-1.9-1-2.5-1.7c-7.7-9.5-16.7-17.3-28.2-21.8
		c-4.4-1.7-8.6-3.8-12.9-5.9c-0.6-0.3-1.7-0.3-1.8-1.6c3.4,0.7,6.4,2.3,9.6,3.7c8.6-4.6,18-6.4,27.6-6.9c7.5-0.4,15.1,0.4,22.6,0.5
		c4.6,0.1,8.9,1.4,12.6,4.2c4.7,3.5,9.9,5.2,15.6,5.9c0.3-1.1-0.2-1.7-1-2.1c-0.9-0.5-1.5-1.1-1.9-2.1c-1.2-3-2.5-6-4-8.9
		c-0.9-1.7-1.8-3-3.4-4c-1-0.6-2.4-0.9-3.2-2.5c2.3-0.2,3.5,1.6,5.3,2c0.1-2.7,2-4.7,3.1-7.2C416.4,143.6,416.2,142.1,415.9,140z
		 M484.4,285.3c-0.9-0.5-1.6,0-2.2,0.2c-11.6,2.9-23.4,4.4-35.4,2.9c-2.3-0.3-4.6-0.2-6.9,0.2c-12.3,1.7-24.1-0.9-36-3.8
		c-0.7-0.2-1.4-1-2.5-0.2c2.3,8.1,3.2,16.3,2.4,24.7c-0.5,5.6-1.6,10.8-4.4,15.6c-2.8,4.8-5.7,9.6-8.5,14.4
		c-0.8,1.4-1.9,2.8-2.1,4.6c0.7,0.2,1.1,0.4,1.6,0.4c6.1,0.5,12.1,1.7,17.9,3.4c16.9,4.9,34.1,4.2,51.3,3.8c3.5-5.6,3.6-5.7,6.2-7.2
		c-1.2,2.4-3.2,4.3-4,7.4c9.8-0.8,19.1-3.1,28.8-4.1c-0.3-5.3-1.2-10.3-3.3-15c-1.6-3.5-3.6-6.8-5-10.4c-1.6-4.4-2.4-9.1-2.2-13.9
		c0.2-4.6,0.9-9.2,2-13.7C482.8,291.5,483.7,288.3,484.4,285.3z M411.1,202.2c3.1-0.9,6-1.3,8.9-1.8c1.3-0.2,2.6-0.4,3.6-1.6
		c3.4-4.5,4.6-9.4,4-15c-0.3-3-2.5-5-3.2-7.6c-0.7-2.7-2.3-4.2-5-4.5c-5.5-0.7-10.1-3.3-14.5-6.3c-0.4-0.3-0.8-0.5-1.3-0.7
		c-3-1.7-6.3-2.5-9.7-2.6c-2.7,0-5.4,0.1-8-0.3c-12.3-1.5-24.2-0.4-35.9,3.5c-1.1,0.4-2.4,0.3-3.3,1.6c1.8,0.8,3.6,1.5,5.4,2.3
		c7.9,3.2,14.5,8.3,20.4,14.4c1.3,1.4,2.6,2.2,4.6,2.5c8.9,1.2,17.3,3.9,24.6,9.3C404.6,197.8,407.8,199.9,411.1,202.2z
		 M438.6,120.5c0.5-4.5-1-8.2-1.8-12.1C433.7,110.5,434.3,114.8,438.6,120.5z M474.5,207.5c-1.9-2.2-4.3-1.7-6.6-2.4
		c-0.1,1.5-0.4,2.7,0.6,3.8C470.5,208.7,472.5,208.9,474.5,207.5z M418.7,206.3c0.5-1.2,0.8-2.1,0.3-3.3c-1.4,0.2-3-0.3-4.4,0.8
		C415.3,206,417.2,205.6,418.7,206.3z M417.5,156.3c-0.5-1.7,1.2-3.9-1.2-5.3C415.8,154.1,415.8,154.1,417.5,156.3z M453.6,109.1
		c-2,2-1.7,4.2-2.2,6.1C452.6,113.6,453.9,111.9,453.6,109.1z M419.2,160.5c0.1,1.8,0.4,3.5,1.5,4.9
		C421.1,163.5,420.3,162,419.2,160.5z M438.9,111.4c1.3-1,1.4-2.1,1.6-3c-0.8-0.4-1.2-0.3-1.6,0
		C438.5,109.3,438.5,110.2,438.9,111.4z M418.3,138.2c0.6,0.6,1.2,0.8,2.3,0.7c-0.7-1.1-1.3-2-2.1-2.6
		C418,137,418.2,137.6,418.3,138.2z M441.2,112.2c-0.8,0.9-0.8,0.9,0.1,1.6C441.6,113.2,441.5,112.7,441.2,112.2z M380.1,638.1
		c-0.2-0.1-0.3-0.4-0.5-0.4c-0.4,0-0.7,0.2-0.6,0.7c0,0.2,0.3,0.4,0.5,0.4C379.9,638.8,380.1,638.5,380.1,638.1z M451.9,117.1
		c0.1,0.3,0.3,0.4,0.5,0.3c0.5-0.5,1.1-0.9,0.7-1.8C452.2,115.8,452.1,116.5,451.9,117.1z"/>
	<path d="M801.1,566.9c-4,0.1-7.7-0.6-11.2-2.7c-1.5-0.9-3.3-0.9-4.8-1.5c-6.6-2.9-13.2-5.6-18.5-10.6c-0.4-0.4-0.9-0.9-1.5-1
		c-5.7-1.5-11.4-2.3-17.2-0.5c-2.5,0.8-4.8,1.9-6.9,3.7c-3.6,3.1-8.2,4.8-12.7,6.3c-4.3,1.4-8.6,2.5-13.1,2.8
		c-1.2,0.1-2.4,0.4-3.9-0.5c3.5-1.9,7.5-1.5,10.8-3.5c3.2-1.9,6.9-2.9,10.5-4.2c3.5-1.3,7.3-1.9,10.4-4.9c1.1-3,0.9-6.1-1.1-8.8
		c-5.2-7.3-10.2-14.8-16.3-21.4c-4-4.3-8.5-7.7-14.3-8.9c-4.5-0.9-8.9,0.3-13.1,2c-0.9,0.3-1.8,1.1-2.2,1.9
		c-2.6,4.5-6.6,7.7-9.8,11.7c-0.4,0.5-0.8,0.9-1.2,1.4c-6.3,6.9-8.9,15.2-9.3,24.2c-0.2,3.6-1,7-2,10.5c1.6,0.9,1.5,2.4,1.3,4
		c-0.8,9.3-0.1,18.6,2.4,27.6c1.6,6,4,11.7,6.4,17.4c4,9.6,8.8,18.9,11,29.3c3.4-0.1,6.5,0,9,1.9c0.5,1.8-1,3.4,0.5,5
		c0.6,0.5,1.6,0.4,2.8,0.1c-0.4-2.2-0.8-4.4-1.3-6.9c1.7,1,1.6,2.7,2.7,4c-0.4-3.3-0.8-6.2-1-9.2c-0.5-7.3-1.3-14.5-1.4-21.8
		c0-3,0.2-6,1.1-9c2.5-8.7,2.2-17.5,0.6-26.3c-0.5-2.9-1.3-5.7-1.9-8.5c-0.3-1.5-0.7-3.1-0.2-4.6c0.6-0.1,1.1,0.1,1.2,0.7
		c0.5,2.6,1.6,5,2.7,7.5c3.1,7.2,3.4,14.6,2.3,22.2c-0.7,4.4-1.3,8.9-3.3,13c-0.6,1.1-0.7,2.4-0.4,3.6c1.8,6.4,1.2,13,1.7,19.5
		c0.2,2.8,0.2,5.6,0.7,8.1c3.9,4.3,6,9,4.8,14.7c-0.2,0.7-0.5,1.5-0.3,2.1c0.9,3.8-0.7,7.6,0.7,11.4c0.6,1.4-0.6,2.7-1.6,3.8
		c-2.4,2.6-8.3,5.1-13,5.4c-1,1.3-1.5,2.7-1.6,4.7c-0.3,3.7-2.9,6.7-6.5,8.1c-7.8,3.2-15.9,3.1-23.9,0.7c-4.1-1.2-7.4-6.7-6.7-10.8
		c0.5-2.8,1.5-5.5,3.6-7.4c3.7-3.4,6.3-7.7,10-11.1c1.3-1.3,2.1-3,2.8-4.7c1.7-4.5,5.5-7.4,8.7-10.6c1.5-1.5,2.8-3.2,4.7-4.6
		c-1.3-4.8-2.4-9.6-4.5-14.2c-3.8-8.1-7.8-16.3-10.4-24.8c-2.1-6.9-4.3-13.9-5.1-21.2c-0.5-4.9-0.8-9.9,0.6-14.8
		c0.2-0.7,0.3-1.5,0-2.2c-1.1-2.9-0.4-5.8,0-8.6c0.4-2.6,0.6-5.3,0.7-8c0.1-4.7,1.5-9.1,4.6-12.8c1-1.2,1.7-2.6,2.4-4.1
		c2.4-5.2,5.5-10,9.9-13.8c2.3-2,3.6-4.4,3.5-7.6c-0.1-5.2,2.5-9.4,6.3-12.6c3.6-3,6.1-6.9,9.9-9.7c-1-2.7-1.9-5.2-2.9-7.7
		c-1.5-3.8-2.1-7.7-1.8-11.8c0.2-1.7-0.1-3.3-0.6-5c-2.2-7.2-5.2-14.1-8.3-21.2c-3.1-1-6.3-2-9.7-3.1c-6.9,1.8-13.8,1.4-20.7-0.7
		c-7.7-2.3-15-5.3-21.8-9.8c-1.8-1.2-3.4-2.8-5-4.3c-1.2-1.2-2.4-2.5-3.7-3.5c-4.1-2.7-5.4-6.7-5.4-11.3c2.7-2.2,4-5.4,5.9-8.1
		c2.3-3.4,5.2-5.8,8.7-7.6c3.8-1.9,7.7-3.7,11.6-5.3c5.1-2.1,10.3-4.2,15.1-7c4.3-2.5,9.1-3.2,14-3.8c5.3-0.6,10.5-1.7,15.4-4.1
		c3.8-1.8,8.1-2.6,12.5-2.9c5.2-4.4,12-4.4,18.3-6.5c0.6-3.7,1.4-7.5,1.7-11.3c0.3-4.9,2.1-9.1,4.8-13.1c2.2-3.3,5.6-5,9.2-6
		c2-0.5,4-0.7,6.1-1.1c2.3-5.1,6.5-6.8,11.8-6.7c4.7,0.1,9.6,3.6,8.4,10.5c3.8,3.2,8,6.4,9.4,11.9c1.4,5.1,1.5,10.2,1.1,15.5
		c1.7,0.9,3.5,0.8,5.3,0.7c3.2-0.2,6.2,0.2,9.1,1.8c3.2,1.8,6.8,2.4,10.4,3c2.3,0.4,4.4,1.3,6.4,2.5c3.8,2.4,8,4,12.4,5.1
		c7.3,1.9,14.6,3.7,21.6,6.4c10.4,4,20.4,9.1,29.5,15.7c2.6,1.8,3.5,4.3,3.3,7.2c-0.1,1.4,0.1,2.6,0.5,3.8c-1.6,4.1-5.1,6.6-7.9,9.5
		c-2.7,2.8-5.9,5.1-8.8,7.7c-2.1,1.9-4.5,3.3-7,4.5c-9.8,4.9-20.1,7.8-31.1,8.1c-2.9,0.1-5.7,1.1-8.6,2.3c-2.2,3.4-4.5,7-6.9,10.5
		c-2.6,3.8-4,8.3-6,12.4c-0.5,1-0.4,1.9-0.2,2.8c0.5,4-0.3,7.7-1.8,11.4c-1.1,2.7-2.2,5.4-3.3,8c13.6,10.8,15,15.6,16,26.7
		c5.2,3.5,9,8.7,13.3,13.5c2,2.3,3.1,5.3,4,8.1c1.5,4.4,3.7,8.7,4.7,13.3c0.4,1.9,0.7,3.8,1.9,5.4c0.6,0.7,0.6,1.6,0.5,2.4
		c-0.4,3.7,0.4,7.1,2,10.4c0.9,2,0.3,4.1,0,6.1c-0.3,1.9-1,3.8-1.4,5.6c-0.8,3.6-1.6,7.1-2.1,10.7c-0.3,2.9-1.1,5.7-2.2,8.4
		c-1.7,4.2-3.2,8.4-4.5,12.7c-2.5,8.4-6.6,16.2-9.6,24.4c-0.9,2.4-1.4,4.9-2.8,7c1,4.5,2.3,8.6,5.6,11.8c0.8,0.8,1.5,1.9,2.1,3
		c3.8,6.8,9,12.3,14.6,17.5c2.3,2.2,3.7,4.7,4.5,7.7c1.2,4.6-1.2,8.7-5.5,10.5c-7.5,3-14.9,2.8-22.5,0.7c-1.4-0.4-2.8-0.7-3.6-2.1
		c-0.6-1-1.8-1.2-2.8-1.6c-2-0.8-3.4-2.1-4.1-4.3c-0.8-2.4-2-4.7-3-7.1c-3.6-1.4-7.1-3.2-9.8-6.1c-0.1-0.6-0.3-1.3-0.2-1.8
		c1.4-6,0.9-12.1,1.6-18.1c0.3-2.4,0.7-4.8,3-6.2c1.5-11.9,1.2-23.8,3.1-36.3c-1.9-4.9-1.8-11-3-16.8c-0.4-2.1,0.4-4.3,0.9-6.5
		c1.2-4.7,2.5-9.4,3.7-14.1c0.2-0.9,0.3-1.9,0.4-2.7c-1.3-2-3.2-2.5-5.2-3.1c0.2-0.3,0.5-0.5,0.7-0.7c-0.2-1.1-1.6-1.5-1.5-2.9
		c3.1,1.4,5.7,3.2,8.1,5.1c0,1.4,0.2,2.8,0,4.1c-1.3,5.9-1.9,12-3.8,17.8c-0.4,1-0.5,2-0.3,3.2c1.1,7.8,2.1,15.6,1.6,23.5
		c-0.7,9.8-1.6,19.6-2.5,29.4c-0.1,1.4-0.8,2.8-0.2,4.5c1.5-1.6,0.8-3.5,1.5-5c0.6-1.5,0.8-3.2,2.2-4.4c-0.4,2.4-0.7,4.8-1.1,7.2
		c1.9-1.9,2.3-4.5,4.4-6.3c2.5-2.1,5.3,0.6,7.6-0.8c1.5-1.9,2.7-3.8,3.5-6c1.4-3.9,2.5-8,4.5-11.5c4.4-7.7,6.1-16.3,9.4-24.4
		c2.6-6.5,3-13.5,5-20.1c0.5-1.6,0.4-3.3,0.5-5c-1.3,0.1-1.5,1.7-3.1,1.7c0.7-2.2,1.8-3.9,3.2-5.6c-0.1-1.9,1.1-4,0-5.9
		c-1.3-2.3-1.1-4.7-0.8-7.1c0.3-2.5,0-4.8-1.6-6.8l0.1,0.1c-0.2-0.6-0.2-1.2-0.5-1.7c-3-5.2-5.1-10.7-7.3-16.2
		c-0.5-1.2-1-2.2-1.8-3.1c-4-4.9-8.3-9.5-13-13.7c-2.4-2.1-5-3.3-8-3.8c-3.2-0.5-6.5-0.5-9.9-0.1c-1.4,1.7-3.2,3-4.9,4.3
		c-3.1,2.3-6.3,4.5-9.5,6.7c-1.2,0.8-2.2,1.8-3,3.1c-3.3,5.7-6.5,11.4-9.5,17.2c-1.1,2.2-1.6,4.5-1.8,6.8c0.8,1.2,1.8,1.9,2.9,2.5
		c7.2,4.3,14.8,7.8,22.6,10.9C796.8,564.6,799.1,565.4,801.1,566.9z M766.7,344.5c0.3-2.3,2.3-3.9,2.7-6.2c0.1-0.8,0.4-1.4-1.1-1.7
		c-0.3,3.1-2.1,5.7-3,8.6c-1.5,1.2-2.4,3.4-4.7,3.7c-0.5-0.3-1.1-0.7-1.7-1.1c0.1-2.9-0.4-5.9,1-8.9c0.2,0.8,0.4,1.3,0.6,2
		c0.5-0.8,0.4-1.9,1.2-2.4c0.5,2.3-0.3,4.5-0.4,7.2c1.7-2.3,1.5-4.8,3-6.8c0.8,2.2-0.8,3.9-0.8,5.8c2.3-3.3,2.7-4.4,3.1-8.4
		c-0.8-0.5-1.7-0.8-2.5-0.5c-1.2,0.7-0.4,2.9-2.4,2.8c0-0.9,0.5-1.9-0.5-2.9c-0.9,0.1-1.9-0.7-3,0.2c0.7,4.5-1,8.9-0.1,13.9
		c-2-1.6-3.8-0.9-5.7-1.3c-2-2.6-3-5.7-4.5-8.5c0.7-1.5,1-2.9-0.3-4c-0.6-0.2-1,0-1.6,0.6c0.6,4.1,2.1,8,3.9,11.9
		c-1.4-1.7-3.3-2.7-4.3-4.7c-1-1.9,0-4.3-1.5-6.2c-1.4,1.1-2.6,2.1-3.6,2.9c-0.2,2,0.7,3.1,2,4.4c0.2-1.8-1.3-3.2,0.3-5.5
		c-0.1,3.3,2.6,5.6,0.2,8.4c-1.1-1.3-2.1-2.4-3.1-3.6c-0.1-0.6,0-1.4-1-1.8c-0.1,0.9,0,1.5,0.7,2c-0.2,1.7,2,2.5,1.9,4.6
		c-2.1-1-2.7-3.2-5.1-4c1.1,2.3-0.2,3.5-1,4.4c-0.3,1.7,1.7,2.1,1.1,3.6c-0.5-0.2-0.9-0.3-1.3-0.5c-1,1.1,1,2.3-0.2,3.3
		c-0.4,0-0.9-0.5-1.1,0.8c0.9,1.8,1.5,4.1,1.9,6.5c1-0.2,0.3-1.7,1.6-1.1c0.1,1.1,0.3,2.1,0.3,3.2s-0.5,1.8-1.7,1.9
		c0.1-1.6-0.5-2.7-2-3.6c-1,2.2,1.4,2.3,2.1,3.5c-1.3,1.6-1.2,3.5-1.3,5.4c-0.2,4.5-0.4,9.1,1.2,13.3c1.3,3.7,2.5,7.3,3.5,11.1
		c1,3.9,2.5,7.6,5.2,10.7c2.4,2.7,5.7,4.1,8.8,5.6c2.9,1.5,6,1.6,9.1,0.3c1.6-0.7,3.1-1.4,4.7-1.9c3.6-1.2,5.8-3.9,7.5-7.1
		c2.2-4.2,3.4-8.8,4.4-13.4c0.6-2.8,1-5.8,2.3-8.4c1.5-2.8,1.2-5.8,0.5-8.5c-0.9-3.3-1-6.6-0.8-9.9c0.6-0.7,1.6-1.3,1.3-2.7
		c-1.3,0.7-1.2,1.7-1.2,2.8c-1.2-0.1-1.9-0.9-2.2-1.9c0-1.6,1.5-2.5,1.4-4c1.3-0.8,1.3-0.8,0.9-2.2c-0.5,0.7-1,1.3-0.8,2.2
		c-0.4,0-0.7,0.1-1.1,0.1c-0.9-2.2,0.5-3.9,1.1-5.7c0.7-1.9,1.3-3.8-0.6-5.7c-0.5,2.5,0.1,5-1.5,7c0.6-2.7-2.2-4.3-1.6-6.9
		c-1.2,0.2-1.1,2.3-2.8,1.3c1.3-1.2,1.4-3.1,3-4c0.6,0.9,1.1,1.6,1.7,2.5c0.4-3.4-0.6-4.9-4.3-6.7c-0.5,0.3-0.5,0.8-0.5,1.3l0.1-0.1
		c-1.9,1.2-2.1,3.9-4.3,5.3c-0.5-1.4,0.8-2,0.7-2.9c1.2-1,2-2.4,2.7-3.7c0.4-0.7,0.1-1.4-1.1-1.4c-0.6,1.6-1.3,3.3-1.9,4.9
		c-0.6,0.2-0.6,1-1.3,0.9c-0.2-1.7,1.7-2.8,1.2-4.6C768.8,341.3,768.6,343.6,766.7,344.5z M764.6,332c0.2,0.5-0.3,1.2,0.4,1.6
		c2,0.1,2,0.1,5.3-2.3c-5.8-4-11.2-2.7-13.6,1.4c1.2,0.1,2.4,0.2,3.5,0.4c1.1-1,1.7-2.2,3-2.8c0.8-0.4,1.6-0.7,2.2,0.3
		c-1.5,0.3-2.6,1.1-3.6,3.2C763.1,332.9,763.9,332.4,764.6,332z M830.2,664.5L830.2,664.5c-0.1-1.3-1.5-1.9-2-3.1
		c-4.8,1.7-9.6,1.5-14.4,1.5c-0.2-1.6,1.7-1.4,1.9-2.5c-1.7-0.6-3.4,0.6-5.5,0c3.6-4.4,9.1-3.5,13.4-5.7c-4.4,0.6-8.8,1.6-13.9,1.5
		c2.6-5.1,7.1-4,10.9-5.1c-1.4-1.4-0.7-3.1-0.5-4.6c-0.8-0.7-1.5-1.4-2.4-2.1c-1.8,0.6-3.8,0-5.9-0.1c-2.3,3.7-3,8.1-5.7,11.5
		c-1.7-0.8-3-1.3-4.4-2c-1.2,5.8-1.9,11.4-2.6,17.2c1.6,1.5,3.5,2.6,5.4,3.6c0.8-0.1,1.3-0.9,2.5-0.4c1.8,1.5,2.5,4.1,3,6.5
		c1.1,4.7,4.1,7.1,8.4,8.5c2.5,0.8,4.9,2.3,7.4,2.9c5.7,1.2,11.4,0.4,16.7-2c2.6-1.2,3.6-3.5,3-6.4c-0.7-3.1-1.9-6-4.6-8
		c-3.5-2.6-6.5-5.9-8.8-9.6C831.6,665.4,831.3,664.4,830.2,664.5z M774.1,528.9L774.1,528.9c0.9-1.3,2.5-1.6,3.4-2.9
		c4.1-6.1,9.8-10.4,16.2-13.8c7.1-3.9,14.3-4.5,21.3,0.4c0.3,0.2,0.4,0.2,0.7-0.6c-2.5-3.5-4.1-7.8-6.3-11.8
		c-2.3-4.2-6.3-7-8.6-11.5c-1.3,2-2.6,3.8-3.7,5.6c-1.1,1.8-3.1,2.7-4.7,4.7c0.8,0,1,0,1.3,0l-0.1-0.1c-2.1,1.7-4.3,3.4-6.4,5.1
		c-2.2,1.7-5.3,1.8-7.1,4.2c2.8-0.5,5.2-2.4,8.1-2.3c-9.5,5.4-19.2,10.1-30,12.2c-0.8,0.1-1.7-0.1-2.3,0.8c-0.9,0.1-1.8,0.1-2.7,0.2
		c0.9,0.2,1.9,0.5,2.7-0.3c1.1,0,2.2,0.1,3.3,0.1s2.1,0,3.2,0c-5.2,1.2-10.4,2-15.7,0.4c0.7-1,1.6-0.2,2.1-0.8c0-0.4,0-0.7,0-0.9
		c2.9-0.6,5.9,0.4,9.1-1.5c-4.1,0.1-7.3-0.7-10.7-1.4s-6.8-1.6-10.3-2.3c0.1,0.6,0.7,0.8,0.3,1.4c-1.3,0.2-2.6-0.1-3.8-0.6
		c-2.8-1.2-5.4-2.5-7.8-4.7c-3.4-3-7.1-5.9-10.6-8.8c-2.2-1.8-4.1-4-6.5-6c-4.9,5.5-9.8,10.5-12.4,17.7c12.2-4.8,22.5-2.2,30.4,6.2
		c6.7,7.1,12.1,15.2,17.8,23.1c1.6,2.3,2.1,4.9,1,7.6c-0.3,0.7-1,1.5,0.2,2.4c2.4-2.4,5.5-3.1,9.1-2.7c0-2.9,0-5.4,0-8
		c1.7,2.3,1.5,4.7,1,7.4c3.9-0.8,7.3,0.8,11.5,1.3c-1.2-2.7,0.4-4.6,1.2-7.1c-2,0.8-3.6,1.1-5.1-0.1c1.8-0.2,3.7-0.5,5.7-0.8
		c2-3.6,4-7.2,6-10.8C774.8,529.4,774.5,529.1,774.1,528.9z M774.1,416l0.1,0.1c1.3-2.3-1.4-3.6-1.1-6.1c-3.1,2.6-6.3,4.1-9.7,5.5
		c-3.5,1.4-6.5,1.2-9.6-0.6c-3.2-1.8-6.7-3.2-10.6-5.8c0.5,5.3,2.4,9.3,4.2,13.3c-4.5-3.5-5.5-8.7-6.6-14.1
		c-1.8,0.4-3.5-0.1-5.1,0.5c0.7,3.9,1.8,7.6,2.3,11.4c1.1,7.8,1.6,15.7,0.8,23.6c-0.5,4.8-0.7,9.7-0.3,14.5
		c0.3,3.8,0.4,7.7,1.5,11.3c4.2,3.1,9.6,4.4,16.3,4c0.6-1.4,0-3.1,1.3-4.6c1.1,1.6,1.7,3.2,0.8,5.1c2,0.3,3.6,1,5.4,0.6
		c4.2-1,8-2.7,11-5.9c3.3-3.5,5.2-7.8,7-12.2c0.2-0.5,0.3-1.2,0.2-1.8c-0.2-5.9-0.5-11.9-0.8-17.8c0-0.9-0.4-1.3-1.2-1.5l0.1,0.1
		c0.6-0.9,1.1-1.7,1-2.9c-0.2-7.4-0.5-14.9,0.2-22.5c-1.6-0.2-3-0.3-4.2,0.2C775.9,412.4,776.9,415.2,774.1,416z M821.4,414.4
		L821.4,414.4c0.4-2.2,2.3-3.2,3.8-4.6c0.6-0.5,1.7-0.5,1.6-1.8c-2-0.2-4.1-0.5-6.1-0.6c-5-0.3-9.9-0.7-14.7,1.6
		c-0.7,0.4-1.7,0.6-2.5,0.4c-1.7-0.4-3.1,0.2-4.6,0.7c-1,0.4-2,1-3.1,0.8c0.9-1.7,2.3-2.9,4-3.5c2-0.7,3.7-1.8,6.1-1.5
		c1.9,0.3,4-1.6,6.2-1.5c0.7,0,1.5,0.1,2.2,0.1c1.9,0.1,3.9,0.3,5.8,0.4c3.5,0.1,7,0.6,10.3,1.9c1.8-0.6,3.7-1.2,5.9-2
		c-8.7-8.7-18.8-13.5-30-15c-5.1,1.8-8.3,5.5-12,8.3c-2.8,2.1-5.4,2.3-8.4,1.1c-1-0.4-1.8-0.6-3,0.3c0.2,2.6,0.5,5.3,0.8,8.1
		c3,0.2,5.9,0.8,8.2,2.3c1.4,0.9,2.7,0.6,4.1,0.9c-0.7,1.3-1.9,1.7-3.2,1.5c-1.1-0.1-2.2-0.5-3.3-0.8c-1.8-1.3-3.9-1.6-6.9-1.2
		c2.4,4,1.7,8,2.1,11.9c0.8,7.5,1.4,15,1,22.6c-0.4,6.9-1.4,13.8-4.2,20.2c-2.8,6.5-8.3,10-14.8,11c-5.9,0.9-12.1,1-18.2,0.1
		c-5.1-0.8-9.3-2.3-11.1-8.5c-1.6-5.4-3-10.7-2.9-16.3c0.1-9.4,0.5-18.7,0.4-28.1c0-4.8-0.6-9.6-0.9-14.5c-2.7,0.3-5.1,0.6-7.7,0.9
		c1,2.4,1.6,4.8,1.9,7c0.4,3.1,0.6,6.2,0.6,9.4c0,8.2-0.8,16.2-2.7,24.2c-1,4.2-2.1,8.2-4.6,11.7c-3.3,4.6-7.2,7.9-13.6,6.6
		c-0.3,4.7,1.1,8.8,2.6,12.9c2.1,5.6,5.9,9.9,10.8,13.4c2.8,2,5.6,3.2,9.1,3c5.3-0.3,10.7-0.5,16-0.7c0.5,0,1,0,1,1.1
		c-3.4-0.3-6.5,1-9.8,1.7c-2.6,0.5-5.3,0.7-8,0.7c-3,0.1-5.7-0.7-8.5-1.7c3.8,4,7.4,8.2,12.8,9.9c5.7,1.8,11.4,3.3,17.1,4.9
		c1.6,0.5,3.4,0.6,5.1,0.4c4.5-0.4,8.9-1.2,13.2-2.7c0.7-0.2,1.5-0.3,1.9-1c1-1.6,2.7-2,4.1-2.8c3.6-2,7.2-3.8,10.7-7.2
		c-7,1.3-13.2,1-19.6-2.1c1,0,1.3,0,1.7,0c6.6-0.1,13.1-0.3,19.6-1.6c1.8-0.4,3.6-0.8,4.8-2.3c3.3-3.9,6.3-8,8-12.9
		s2.2-9.9,3.4-14.9c-1.7-1.8-3.3-3.6-4.9-5.4c-1.7-2-2.1-4.7-3.3-6.8c-2.6-4.4-3.8-9.1-5-14c-2-8-3-16-2.6-24.2
		c0.1-1.7-0.4-3.8,1.6-4.9c0.3,1.4,1.3,2.1,2.5,2.5c-0.5,0.8-1.6,0.9-1.9,1.9c1.2,17.2,2.9,34.2,14.8,49c0.8-7.2,4.6-12.3,8-17.5
		c4.1-6.2,9.4-10.4,17.5-9.5c1.6,0.2,3.1-0.1,4-1.6c4.6,0,8.9-1,13-2.5c8.8-3,17.2-6.6,23.9-13.4c0.2-0.2,0.4-0.3,0.6-0.5
		c3.5-1.9,5.3-5.2,6.6-8.8c0.1-0.2,0.3-0.3,0.5-0.4c0.2,0.7,0.3,1.4,0.5,2.3c1.1-0.9,1.9-1.9,1.7-3.1c-0.3-2-0.8-4-1.3-6
		c-0.2-0.9-0.7-1.6-1.5-2c-3.6-2.1-6.5-5.1-10.1-7c-6.2-3.4-12.9-5.7-19.2-8.6c-0.8-0.4-1.6-0.6-2.4-0.8c-7.3-2.2-14.6-4.4-22-6.6
		c-2.3-0.7-4.6-1.6-6.6-2.9c-3.4-2.3-7.1-3.6-11.1-4.3c-2.7-0.5-5.5-1.1-8-2.4c-4.7-2.5-9.4-2.3-14.6-1.5c0.1,1.5,0.2,2.8,0.3,4.2
		c1.4-0.2,1.6-1.9,3.3-1.4c2.1,2.1,2.3,5.5,4.6,7.8c-2.9,1.3-4.2,3.7-5,6.1c-0.9,2.7-2.4,4.6-4.7,5.9c0,1-0.3,1.9,0.7,2.5
		c1.4,0.3,2.2-0.7,3.1-1.3c0.1-0.9-0.7-1.7,0.1-2.4c2.1-1.6,2.6-4.9,6.2-5.8c-2.3,5.2-5.1,9.2-9.9,11.8c0.1,0.5-0.3,1.3,0.5,2.1
		c2.5,0.2,5.2,1.2,8.2,0.6c1.1-0.9,2.5-1.8,3.4-3c2.2-2.8,5-4.5,8.1-6c1-0.5,2-0.7,3.1-0.6c11.2,0.5,20.5,5.2,28.5,12.9
		c3.6,3.5,6.9,7.2,11,10.1c0.8,0.5,1.8,1.1,1.8,2.5c-4-1.2-6.5-4-9.1-6.5c-3.8,0.5-7.2,1.3-10.3,3.4
		C826,411.8,824,413.6,821.4,414.4z M731.1,384.6l0.1,0.1c-2-3.9-2.4-7.8,0.5-11.5c0.3-0.4,0.6-0.7,0.6-1.5c-0.4-1.3,0-3-0.8-4.5
		c-1.5,0.3-3,0.6-4.6,0.9c-5.8,1.2-11.2,4-17,5.3c-3.5,0.8-7,1.9-10.2,3.7c-2.9,1.5-6,2.7-9.3,3.1c-3.5,0.5-6.9,1.4-10.1,2.8
		c-1.4,0.6-3,1.1-4.5,1.6c-10.3,3.3-20.3,7.3-29.9,12.5c-1,0.5-2.1,0.9-2.7,1.7c-2.6,3.3-5.8,5.9-8.9,8.6c-1.5,1.3-2.2,2.9-1.5,5.2
		c1.9,1.5,2.6,4.2,4.5,6.2c2.7,2.9,5.6,5.3,8.6,7.8c4.7,3.8,9.8,6.6,15.7,8c2.2,0.5,4.5,1,6.7,1.7c3.8,1.1,7.6,1.7,11.5,1.5
		c6.4-0.3,12.8-0.3,18.9,3.3c2.9,8.2,7.6,16.1,9.7,25c2.2,1,4.3,0.9,5.9-0.6c4.6-4.1,8.4-8.8,9.4-15.2c1.4-8.3,1.8-16.7,2.1-25
		c0.1-3.6,0-7.3-0.9-10.7c-2.5-1.5-4.9-2.9-7.8-3.3c-0.9-0.1-2-0.4-2.7-1c-2.1-1.7-4.6-1.9-7.1-2.3c-5.5-0.8-10.9-0.6-16,1.7
		c4.4,4.8,8.4,11.3,8.8,14.3c-2.4-2.1-2.9-5.3-4.9-7.6c-2.1-2.4-5.1-3.7-6.8-6.4c-3.2-0.3-6.2-0.3-9.2-0.1c-2.6,1.3-4.5,3.4-6.7,5.2
		c-2.2,1.8-4.1,3.9-7.5,4.9c2.1-4,4.9-6.3,8-8.2c0.9-0.6,2.1-1,2.7-1.8c3.1-3.8,7.2-6.5,11.1-9.5c5.5-4.3,11.7-7.3,18.8-8.1
		c0.7-0.1,1.5-0.1,2.1-0.6c1.4-1,3-0.9,4.6-0.9c4.2,0.1,7.8,1.7,10.7,4.8c1.9,2,4,2.8,6.9,2.2c2.4-0.6,5-1.1,7.5,0.3
		c0.1,0.1,0.4-0.2,0.8-0.3c-0.2-0.9-0.5-1.8-0.7-2.9c-1.9-0.6-2.6-2.2-3.4-3.9C732.8,389,732.8,386.5,731.1,384.6z M683.2,655.8
		c5.1-0.3,10.3-0.7,14.9,2.2c-1.1,3.2-3.5,0.9-5.1,1.8c0.6,0.7,1.8,0.9,1.4,2.6c-4.6,1.5-9.2,0.9-13.6-1.1c-3.4,2.9-6,6.5-9.4,9.1
		c-4.3,3.4-5,8.4-7.1,12.6c0.3,1.3,0.5,2.2,0.7,3.3c2.1-1.1,3.8-2.6,6.1-3.2c3.6,0.8,6.8,2.3,8.6,5.9c-1,0.5-1.9,0.6-2.8,0.2
		c-2.2-3-2.4-3.2-6.3-4.2c-1.2,0.9-3.1,1-4.3,2.7c0.8,0.3,1.4,0.5,1.9,0.7c6.7,2.5,13.6,2.6,20.4,1.4c4.1-0.8,7.2-3,8.2-7.6
		c0.8-3.3,2.6-6.2,5.7-8.1c0.3-0.2,0.7-0.3,0.9-0.4c0.7,0.2,0.7,1.1,1.7,1.1c2.5-1.4,5.7-2,7.5-4.3c0.9-3.9,0.2-7.4-0.2-10.9
		c-0.2-1.5-0.2-2.9,0.3-4.3c0.8-2.2,0.6-4.5-0.3-7c-1,1.5-1,3.7-3.2,3.8c-1.5,0-2.8-1.6-4.3-0.9c-0.5,1.2,1,1.8,0.5,2.9
		c-3.8-1.8-5.2-5-5.2-9c-2.5,0.1-4.5,0.5-6.3,1.7c-0.6-0.4-1-1-1.9-0.6c-2,1.5-2.1,5.1-5.5,5.1c0.5,1.3,1.3,0.9,2,1
		c3,0.1,6.1,0.4,9,1.2c1.3,0.4,2.9,0.8,2.7,3.1c-5.5-0.7-10.8-1.5-16-2.2C683.6,654.6,683.1,655,683.2,655.8z M688.5,408.4
		c9.5-5,18.6-5.3,26.5,0.3c9.1-1,17.1-3.2,25.4-3.8c-0.3-1.5-0.6-2.8-1.6-3.8c-2-0.4-4-0.9-5.8-1.7c-0.8,0.2-1.5,0.3-2.2,0.5
		c-3.2,1-5.9,0.3-8.5-1.8c-1.4-1.1-2.9-2.2-4.5-3.1c-2.5-1.4-5-2.3-7.9-1c-1.2,0.5-2.6,0.5-3.9,0.7c-8.8,1.6-16.5,5.2-22.6,12.5
		C685.4,407.1,687,407.4,688.5,408.4z M709.5,492.9c1.1,1.3,2,3.2,3.4,3.6c3.1,1,4.3,3.9,6.6,5.5c1.3,0.9,2.3,2.3,4,2.5
		c-4.1-4.6-6.9-10.3-12-14.1C710.8,491.1,710,491.8,709.5,492.9z M754.3,347.2c0.6-4.2-1-7.8-1.7-11.5
		C749.4,337.6,750.1,342.5,754.3,347.2z M783.4,387.5c4.3-5.6,5.3-9.2,3.7-12.8c-0.9,0.6-1.5,1.5-2,2.5c0,1.1,1.5,1.3,1.3,2.6
		c-1.1,1.4-1.1,3.6-3.3,4.7C782.5,384.8,781.4,386.6,783.4,387.5z M780.2,395.1c0,2.2-0.1,4.4,0,6.5c0.2,2-1,4.2,0.8,6.6
		C781.9,403.4,780,399.3,780.2,395.1z M681.1,659.8c3-0.2,5.6-0.3,8.3-0.4c-2.5-0.5-4.9-0.8-7.3-1.4c-0.3,0.3-0.5,0.4-0.6,0.6
		C681.4,658.9,681.3,659.2,681.1,659.8z M732,378.2c-0.6,3.2-0.6,3.2,1.4,5.5C732.8,381.6,734.3,379.5,732,378.2z M736.6,393.4
		c-0.1-3.4-0.1-3.4-2.1-5.8C735.3,389.6,735.3,391.3,736.6,393.4z M756.3,335c-1.9,1.2-1.9,1.2-1.3,3.2
		C755.9,337.5,756.1,336.5,756.3,335z M721.5,410.5c0.6,1.2,1.4,1.8,2.7,1.8c0.4-0.7,0.5-1.4-0.1-2
		C723.3,410,722.5,410.1,721.5,410.5z M771.2,333c-1-0.2-1.9,0.2-3,1.4c1.6-0.6,2.5,0.5,3.5,0.5C771.9,333.9,771.7,333.4,771.2,333z
		 M826.5,658.9c-1.5-1.6-2.5-0.2-3.6,0.3C824,659.4,825.2,659.8,826.5,658.9z M786.9,372.1c-0.4,0.1-0.5,0.1-0.6,0.1
		c-0.5,0.5-1,1-1.4,1.6c-0.1,0.2,0.3,0.4,0.5,0.2c0.5-0.5,1-1,1.5-1.5C787,372.6,786.9,372.5,786.9,372.1z M711.7,646.1
		c0.1-1.1-0.1-1.7-0.9-2C710.5,644.9,710.9,645.5,711.7,646.1z M756.5,339.2c-0.2,0.6-0.4,0.9-0.3,1.2c0,0.5,0.3,0.8,0.9,0.6
		C757.3,340.4,757.3,339.9,756.5,339.2z"/>
	<path d="M514.5,659.7c-5.2,2.3-9.9,1-14.8,1.2c0.4-2.1,2.1-2.3,3.3-3.4c-2.4-0.2-4.6,0.3-6.9,0.5c-0.3-1.9,0.9-2.8,2.3-3.4
		c3.7-1.4,7.5-1.7,11.4-1.7c1.1,0,1.8,0.6,2,1.8c-1.1,2-3.5,1.1-5.1,2.2C509,658,512.4,655.7,514.5,659.7z"/>
	<path d="M494.3,655.4c-0.7-2.3,0.1-3.8,1.9-4.7c4.1-1.9,8.3-2.3,12.7-1.3c0.2,0,0.3,0.4,0.5,0.7c-0.6,1.8-2.4,1.7-3.8,2
		c-1.9,0.4-3.8,0.5-5.7,0.9C497.9,653.4,495.9,653.8,494.3,655.4z"/>
	<path d="M506.6,645.1c0.3,0.2,0.6,0.4,0.8,0.6c0,0.6,0,1.2-0.8,1.9c-4,0.4-8.5,0.2-12.2,2.8c-1.3-0.7-1.2-1.7-0.6-2.8
		c0.9-1.8,2.6-2.5,4.5-2.7C501,644.5,503.8,644.7,506.6,645.1z"/>
	<path d="M524.8,681.4c-1.2-0.2-2.4-0.3-3.6-0.7c-2.9-0.9-5.5-0.2-8,1.4c-1.3,0.8-2.5,1.9-4.2,1.9c-0.3-5.7,11-7.8,16-4.2
		c0.4,0.7-0.5,1.1-0.4,1.7L524.8,681.4z"/>
	<path d="M517.3,663.7c-2.5,2.1-8,2.3-13.2,0.6C507.2,661.7,514,661.3,517.3,663.7z"/>
	<path d="M705,607.6c-1.8-3.1-2.3-6.4-2.6-9.8c1.6,1.8,2.4,3.9,3.1,6.2c0.3,0.9,0.8,1.8,0.4,2.8C705.8,607,705.4,607.2,705,607.6z"
		/>
	<path d="M683.6,575.9c-3-2.7-5.3-5.7-6.6-9.5C679.8,569.2,682.4,572.1,683.6,575.9z"/>
	<path d="M715.2,557.2c-1,3.9-5.5,5-6.7,8.6c-1.5-0.3-1.2-1-0.9-1.7c0.5-1.1,1.3-2.1,2.3-2.7C711.9,560.2,713.6,558.8,715.2,557.2z"
		/>
	<path d="M516.3,667.9c-2.2,1.9-4.1,0.8-6.4-0.3C514.3,666,515,666.1,516.3,667.9z"/>
	<path d="M678.8,554c0,2.8-1.2,5.2-2.1,7.7C676.2,558.8,677,556.3,678.8,554z"/>
	<path d="M703.9,563.5c0.1-2.2-0.1-4.5,1.1-6.6C705.9,559.3,705.6,561.5,703.9,563.5z"/>
	<path d="M710.8,549.5c0,2.3-1.4,3.5-3.5,3.8C708.4,552,709.6,550.8,710.8,549.5z"/>
	<path d="M689.1,550.2c1.1,0.7,2.3,1.3,4,2.3c-2.7,0.6-3.3-0.8-4.4-1.6C688.7,550.7,688.9,550.5,689.1,550.2z"/>
	<path d="M700.4,591.9c1.7,1,1.5,2,1.3,3.2C699.9,594.5,700.6,593.3,700.4,591.9z"/>
	<path d="M704.1,633.2c1.3,1.5,1.6,2.7,1.2,4.2C703.9,636.4,704,635.2,704.1,633.2z"/>
	<path d="M700.3,565.5c-0.3,1.6-0.7,2.3-1.9,2.8C698.4,567.1,699,566.4,700.3,565.5z"/>
	<path d="M681.5,539.2c-0.1-0.7,0.5-1,1-1.4C682.6,538.9,682.6,538.9,681.5,539.2z"/>
	<path d="M698.8,584.2c-0.7-0.3-0.6-0.9-0.5-1.5c0.7-0.3,0.6,0.4,0.8,0.7C699.3,583.8,699.2,584.1,698.8,584.2z"/>
	<path fill="none" d="M546.5,158.4c-2.1,0.6-4,1.7-5.8,2.7c-4.8-0.4-9.2-1.8-13.6-3.1c-4.7-1.4-9.4-2.6-14.3-2.5
		c-6.9,0.2-13.8-0.2-20.7,0.6c-3.8,0.5-7.2,2.1-10.2,4.5c-2.6,2-5.1,4-8.6,4.4c-2,0.3-3.5,2.2-5.9,2c-0.6-1.4-0.3-3-0.2-4.4
		c1.1-0.7,1.2,0.7,2.1,0.8c3.5-1.5,5.8-4.3,7.6-7.7c1.5-2.9,3.8-4.6,6.8-5.7c0.4-0.2,0.8-0.5,1.2-0.8c0,0,0-0.2-0.1-0.8
		c-6.3,1.4-9.2,6.4-12.4,11c-1.1-0.1-1.4-0.7-1-1.5c0.7-1.4,1.2-2.8,2.1-4.2c2.4-3.5,1.5-8-1.9-10.9c-1.1-0.1-1.4,1.2-2.6,1.5
		c-0.4-1.3-0.3-2.6-0.3-4c3.4-0.7,6.8-0.7,10-1.8c0.9-0.3,2-0.3,2.9-0.1c3.8,0.7,7.6,1.6,11.4,2.3c5,0.9,10.1,1.7,15.2,0.7
		c9.7-2,19.5-2.5,29.3-3.4c5.2-0.5,10.5-0.3,15.5,1.3c5.5,1.8,11.1,2.4,16.8,3c1.5,1,3,2.1,4.5,3.1c0.4,2.4,0.7,4.8,1.1,7.1
		c-0.4,0.8-0.7,1.4-1.1,2c-8,12-15.4,24.4-24.1,35.9c-0.7,0.9-1.3,1.8-2.1,2.5c-6.3,5.7-12.2,11.8-18.8,17.2
		c-2.9,2.4-5.9,4.7-9.1,6.6c-4.8,2.9-7.9,7.4-11.2,11.8c-6.8,8.8-11.4,19-16.9,28.6c-1.2-1.1-2.4-2.1-3.6-3.2
		c1.3-3.7,3.3-7.1,3.1-11.1c0-0.4-0.4-0.6-1-0.6c-1.6,2.7-1.7,6.1-3.4,9.1c-1.3-0.8-2-2.2-1.9-3.5c0.1-2.2-0.8-4-1.6-5.9
		c-5-11.2-6.3-23.1-7.6-34.9c1.2-1.4,3.3,0.3,4.3-1.5c3.5,0.4,4.2,0.1,6.3-2.4c-2.3,1.1-4.7,0.6-6.2,2.5c-3.4-0.9-6.6-2.1-10.1-2.6
		c-0.9-0.1-1.9-0.3-2.8-0.4c-2,1.9-0.4,4.3-1.3,6.6c-2.6,0.7-5.4,1.4-8.1,2.2c-2.6,0.8-5.4,1.1-7.4,3.2c5.3-0.4,10.2-2.3,15.5-3.4
		c0.9,3.7,0.4,7.2-0.6,10.5c-2.6,8.8-2.7,9.9-12.5,13.5c-3.4,1.2-7,2-10.5,2.3c-1-1.2-0.2-2.8-1.1-3.9c-1.6,0.8-1,2.6-1.8,3.8
		c-10.6,0.7-17.1-4.6-18.7-15c-0.7-4.4,0.3-8.7,0.4-13.2c3.5,0.7,6.4,2.8,9.7,3.2c3.3,0.4,5.3,3.8,9.6,3.4c-6.4-4-12.9-5.8-19.1-8.8
		c0.1-1.5,0.2-2.9,0.3-4.2c1-1.2,2.7-0.8,3.8-2.1c0.2-0.3-0.3-0.8-0.6-1.5c4.6-4,5.5-9.4,4.9-15.5c2.8,1.4,5.5,2.4,7.9,3.8
		c3.7,2,7.2,2.4,11,0.1c1.6-1,3.5-1.6,5.3-2.4c1.2-0.5,2.4-1.2,3-2.4c1.1,0.6,0.9,1.6,1,2.4c0.5,4.5,2.4,8.6,3.1,13.1
		c0.3,2.3,2.1,3.7,4.3,5.6c-0.8-3.3-2.5-6-1.4-9l-0.1,0.1c1.7-0.7,2-2.3,2.4-3.8c1.5-5.3,1.7-10.8,1-16.2c-0.2-1.7-0.4-3.4-0.2-5.4
		c2.4-1.1,4.8-2.5,7.4-3.2c3.8-1,7-2.9,9.9-5.1c3.4-2.6,7.2-3.5,11.1-3.6c6.7-0.3,13.3-0.1,20-0.1c1,0,2,0,2.9,0.2
		c6.9,1.5,13.5,4,20.5,4.7c-0.2,1.4-1.2,1.4-1.8,1.8c-4.9,2.7-9.9,5.2-14.7,8c-5.1,3-8.8,7.2-10.4,13c-1.4,0.4-1.7,2-3.3,2.5
		c-0.6-0.5-1.4-0.4-2.3-0.3c-1.1,0.1-2.2,0.3-3.2,0.5c-8.5,1.6-15.5,6.2-22.2,11.2c-1.2,0.9-2.2,2-2.9,3.3c-0.4,0.6-0.7,1.3,0.1,1.8
		c8.4-7.9,18.6-12.2,29.5-15.3c0.4,1.5-1.3,2.2-0.4,3.5c1.4-1.6,2.7-3.1,4.1-4.6c0.6-0.7,1-1.4,0.8-2.3c0.8-0.9,1.7-1.7,2.5-2.6
		c3.6-4,7.6-7.4,12.2-10.2c2.2-1.3,4.7-2.2,6.3-4.6c0.9-1.3,3.2-1.6,4.8-2.5c1.8-1,4.1-1.5,4.9-3.9c0.2-0.6,1.3-1,2-1.5
		C545.7,159.7,546.6,159.4,546.5,158.4c0.9,0,1.9-0.1,2.3-1.3C547.6,156.8,547.3,158,546.5,158.4z M498.7,211.9
		c-2.8,3.5-4.6,7.4-5.2,11.8C496.6,220.2,498.9,215,498.7,211.9z M516.2,205.9c-4,0.8-7.8,1.9-11.8,4.4
		C507.5,210.9,511,209.6,516.2,205.9z M431,188.8c0.9,4.8,1.6,9.4,4.5,13.3c-1.3-4.2-2.5-8.5-3.7-12.7
		C431.8,189.2,431.3,189,431,188.8z M458.7,193.4c-1.2,2.9-2.8,5.7-2.9,8.9C457.1,199.4,459,196.7,458.7,193.4z M491.4,147.2
		c2.2,1.4,4.3,0.2,7.2,0.1C495.7,146.3,493.6,145.8,491.4,147.2z M453.8,192.3c1.4-2.9,1.4-2.9,0.2-6
		C453.5,188.4,453.2,190,453.8,192.3z M505.9,147c-2.9-0.2-2.9-0.2-4.7,0.8C502.9,148.7,504.1,148.3,505.9,147z M443.9,216.4
		c1.7,0.5,2.8,0.6,3.9-0.7C446.4,215.2,445.3,214.9,443.9,216.4z M524.2,203.4c1.3-0.2,1.9-0.7,2.2-1.8
		C525.2,201.7,524.5,202.1,524.2,203.4z M492.3,228.8c-1.1,0.8-1.2,1.6-0.7,2.6C491.5,230.5,492.7,230.2,492.3,228.8z M476.1,140.5
		c-1.2,0.5-1.2,1.2-0.8,2.3C476,142.1,476.6,141.6,476.1,140.5z M487.7,202.5c1,0.3,1.4-0.3,2-1C488.5,201.2,488,201.5,487.7,202.5z
		 M551.7,154.3c-0.5,0.4-1.7,0.1-1.4,1.3C551.3,155.7,551.6,155.1,551.7,154.3z M507.7,146.8c1.3,0.1,2.1,0.6,2.7-0.3
		C509.8,145.8,509.1,145.8,507.7,146.8z M439,209.1c-0.3,0.3-0.3,0.7,0,1s0.6,0.8,1.1,0.3C440.2,209.4,439.9,209,439,209.1z"/>
	<path fill="none" d="M442.4,404.3c-1.1-0.8-1.9-1.8-3.3-2.2c-1.2,0.4-2.3,1.3-3.7,1.4c-1.8,4.1-2.3,8.5-3.8,12.8
		c-9.3,2.8-18.6,5.3-28.5,3.1c-3.8-0.8-7.7-0.9-11.5-1.9c-0.7-0.2-1.5-0.3-2.2-0.2c-5.3,0.7-9.3-1.8-13.3-5c0.1-4.8,1-9.4,1.6-14.1
		c0.9-7.7,2.2-15.3,4.9-22.7c1.5-4.2,2.1-8.7,2.9-13.1c0.2-1.1,0.2-2.2,1-3.5c7.2,0.3,14.5,1,21.9,0.3c-7.3-0.6-14.6-1.3-22-1.9
		c0.6-3.3,0.4-6.6,1.4-9.3c12.7-0.3,24.2,4.5,36.3,6.2c5.1,0.7,10.2,1.2,15.2,0.9c6.6-0.4,13.1-0.2,19.6-0.4
		c8.4-0.2,16.7-1.6,24.9-3c2.4-0.4,4.7-1.1,7.2-0.6c4,10.9,7.2,21.9,10.1,33c0.4,1.4,0.5,2.9,0.6,4.3c0.7,9.4,1.4,18.9,1.5,28.6
		c-7.4,2.7-14.8,5-22.9,4.7c-7-0.3-14.1-0.1-21.1-0.8c-4.4-0.4-8.6-1.3-12.9-2.6c-1.7-4.6-1.7-9.8-4-14.2c7-0.9,13.8-2.4,20.5-4.9
		c-6.4,1-12.8,2.2-19.2,3.4C442.6,402.9,442.5,403.6,442.4,404.3z M445.8,399c1.5-0.7,2.9-1.4,4.4-2.1c0.7-0.1,1.5-0.1,2.2-0.2
		c-0.8-0.2-1.5-0.5-2.1,0.2c-2-0.1-4,0.1-5.7,1.3C445.1,398.4,445.8,398.4,445.8,399c-0.5,0.6-1.1,1.1-1.3,2.1
		C445.8,400.6,446,399.9,445.8,399z M407.3,412.6c-0.6-1.6,0.1-2.5,0.1-3.6c0.2-2.6-1.4-4.4-4-4.5c-2.4-0.1-4.3,1.5-4.4,3.8
		c-0.1,2.6,1.5,4.4,4.1,4.4C404.4,412.7,405.5,412.3,407.3,412.6z M383.1,403.2c-0.8,2.4-0.9,4.9-0.3,7.4c0,0.1,0.4,0.1,0.6,0.2
		c1.1-0.3,0.3-2,1.5-2.2c1.5,0.1,1.5,1.8,2.5,2.4c0.3,0.2,0.6,0.3,1,0c0.3-0.9-0.7-1.5-0.6-2.5c1.1-1.3,2.3-2.8,0.6-4.8
		C386.8,403.2,385,402.8,383.1,403.2z M398.6,407.9c-1.3-3.3-2.9-4.5-5.4-4.1c-2,0.4-3.5,2.1-3.5,4c0,2,1.4,3.6,3.4,4
		C395.8,412.4,397.1,411.4,398.6,407.9z M416.1,396.5c3.4,1.4,6.9,2.5,10.6,3C423.5,397.5,419.9,396.7,416.1,396.5z M493.4,363.1
		c0-0.1,0-0.1,0-0.2c-2.6,0-5.2,0-7.8,0c0,0.1,0,0.1,0,0.2C488.2,363.1,490.8,363.1,493.4,363.1z M473.7,368c2.3,0.5,4,0.1,5.5-0.7
		C477.5,367.1,475.8,366.8,473.7,368z"/>
	<path fill="none" d="M469.1,519.1c0.8-4.2-1-7.6-2.4-11c-2.2-5.2-3.3-10.6-3.2-16.3c0.1-16.4-3.6-32-9.7-47.1
		c-1.9-4.7-3.6-9.5-4.7-14.5c-0.6-3-1.6-5.8-2.8-9.1c10.6,4.2,21.3,2.9,31.8,2.9c3,0,6.1,0.1,9.1,0c5.4-0.2,10.5-1.4,15.7-3.9
		c0.5,4,0.1,7.7-0.3,11.3c-0.4,3.5-0.6,7-0.5,10.5c0.3,14.1-0.8,28.2-1.4,42.2c-0.3,6.6-1.6,13.2-2.5,19.9
		c-0.5,3.6-0.9,7.4,0.2,10.9c1.3,3.9,1.8,8,2.9,11.9c2.4,8.6,3.6,17.4,3.1,26.3c-0.7,12.6-1.6,25.2-2.4,37.8
		c-0.4,5.2-0.9,10.4-1.5,15.6c-0.5,4.1-0.8,8.2-0.6,12.4c0.2,3.9,0.2,7.8-0.5,11.9c-3,0.2-6.3-0.1-9.2,1.6c-1.4,1.3-1.2,3.4-2.6,5.4
		c-0.2-3.2,0.2-5.9-0.4-8.5c-0.5,0.6,0.1,1.7-1,2.3c-1.1-4-1.8-8.1-2.3-12.2c-0.8-6.1-1.3-12.3-1.8-18.5c-0.8-9.1-3.6-17.8-5.7-26.6
		c-3.2-13.1-4.3-26.3-2.9-39.7c0.4-3.5,0.7-7-0.3-10.5C472.6,521.8,471.8,520,469.1,519.1z M475.1,507c-1.2,0.5-1.4,0.9-1.3,1.4
		c0.6,3.3,3,5.8,4.7,8.3c-1.7,6-1.3,7,4.5,9.8c0.1-1.1-0.5-1.9-1.2-2.5c-2.5-2.1-3-4.6-2.1-7.6C477.8,513.4,476.9,510,475.1,507z
		 M495.6,516.2c0.9-3.9,0.6-5.1-1.6-6.6C494.2,512,494.5,514.2,495.6,516.2z M493.9,507.3c0.8-2,1-4.1,0.1-6.2
		C493.4,503.1,492.9,505.2,493.9,507.3z M483.1,530.1c0.3,2.3,1.2,4.2,2.9,5.8C485.5,533.7,485,531.5,483.1,530.1z M461.5,455.2
		c2.4-1,2.6-2.9,2.5-5.8C462.9,451.8,462.2,453.5,461.5,455.2z M494.3,527.4c1.3-2.2,1.5-4.2,1.2-6.3
		C494.7,523,493.6,524.8,494.3,527.4z M487.1,624.1c0.4-1.3,0.8-2.7,0-4.1C486.8,621.4,486.2,622.7,487.1,624.1z M488.8,546.2
		c0.1,1.7,0,2.7,1.2,3.4C490.5,548.4,490.2,547.5,488.8,546.2z M487.8,617.2c0.2-0.9,0.8-1.6-0.3-2.3
		C486.9,615.6,486.7,616.3,487.8,617.2z M490.5,560.1c0.6-0.4,0.9-0.9,0.2-1.5C490.4,559.1,489.9,559.5,490.5,560.1z"/>
	<path fill="none" d="M378.3,635.7c-1.4-1.4-0.5-3.6-2-4.9c-1,1,0,2.3-0.6,3.4c-1.2-0.3-1.2-1.8-2.9-2.4c-1.3-0.1-3.2-0.3-5-0.5
		c-0.9-0.8-0.4-1.7-0.4-2.5c0-2.7,0-5.3-0.1-8c-0.5-11.3-0.8-22.6-1.6-33.8c-0.5-8-1.5-16-1.7-24c-0.2-10.6,0.9-21.1,2.8-31.5
		c0.2-1.3,0.8-2.5,1.3-3.8c0.5-1.4,1-2.7,1.7-4c2.5-5,2.6-10.5,3-15.8c0.2-3.2,0.5-6.3,1.5-9.3c2-6.5,3.2-12.9,1.8-19.7
		c-0.2-1.2-0.1-2.4-0.1-3.6c0-9.6-0.6-19.2-1.1-28.8c-0.5-9.7,0.3-19.4,0.9-29.1c0-0.2,0.2-0.4,0.4-0.9c5.1,3.8,10.9,4.4,17,4.8
		c4,0.2,8.1,1,12.1,2.2c2,0.6,4.1,0.3,6.1,0.2c6.5-0.5,12.9-1.9,19-4.4c0.5,1.5-0.2,2.6-0.5,3.7c-2.9,9.8-5.9,19.5-8.9,29.3
		c-0.6,1.8-1.4,3.6-2.1,5.4c-5.7,13.1-10.1,26.5-11.6,40.8c-0.8,7.6-3.2,14.9-5.5,22.2c-2.5,8.1-5.6,16-6.5,24.6
		c-0.6,5.2-0.8,10.4-1.7,15.6c-0.8,4.7-2,9.2-4.2,13.5c-2.8,5.6-3.5,11.8-4.6,17.9c-1.4,7.9-2.2,15.9-3.5,23.8
		C380.1,622.4,378.6,628.9,378.3,635.7z M390.4,521.5c3.3-1.3,3.3-4.4,3.9-7.2c0.3-1.1,0.3-2.4-1.7-3
		C392.2,514.9,391.4,518.3,390.4,521.5c-2,1.5-2.2,3.6-2,5.7c-1.3,2.6-3.1,4.7-3.2,7.6c1.5-2.3,3-4.6,4.7-7.2
		C388.8,525.6,390.6,523.7,390.4,521.5z M379.7,497.8c-2.2,3.9-1.6,7.7-0.1,11.3c-3.7,5.7-5.3,10.5-0.3,14.4c-0.4-2-0.8-3.8-0.5-5.6
		s0.6-3.6,1.1-5.3c1.4-4.7-0.1-9.5,0.7-14.2C380.5,498.3,380.3,498.2,379.7,497.8z M415,461.3c1.7-2.4,1.7-2.5,1.2-5.2
		C415.2,457.7,415.3,459.5,415,461.3z M376.7,626.4c0.8-1.8,0.8-2.9-0.1-4.3C375.8,623.6,375.8,624.6,376.7,626.4z M382.5,542.5
		c-1.7,1.9-1.7,1.9-1.6,3.6C381.8,545.3,382.2,544.4,382.5,542.5z"/>
	<path fill="none" d="M415.9,140c0.3,2.1,0.5,3.5,0.6,4.8c-1.1,2.5-2.9,4.5-3.1,7.2c-1.8-0.4-3-2.2-5.3-2c0.8,1.6,2.2,1.8,3.2,2.5
		c1.6,1,2.5,2.2,3.4,4c1.5,2.9,2.7,5.9,4,8.9c0.4,0.9,1,1.6,1.9,2.1c0.8,0.4,1.3,1,1,2.1c-5.7-0.6-10.9-2.4-15.6-5.9
		c-3.7-2.8-8-4.1-12.6-4.2c-7.5-0.1-15-0.9-22.6-0.5c-9.7,0.5-19,2.3-27.6,6.9c-3.2-1.5-6.1-3.1-9.6-3.7c0.1,1.3,1.1,1.3,1.8,1.6
		c4.2,2.1,8.4,4.2,12.9,5.9c11.5,4.4,20.5,12.3,28.2,21.8c0.5,0.7,0.8,1.8,2.5,1.7c-1.2-1.9-2.3-3.5-3.5-5.4
		c2.7,0.6,5.1,1.2,7.5,1.6c4.4,0.8,8.1,2.8,11.9,5c3.6,2.1,7.2,4.1,10.8,6.1c1.9,1.1,3.7,2.4,5.3,3.9c0.6,0.6,1.4,1.1,0.5,2.4
		c-2.3-1.7-4.2-4.2-7.8-5.4c2.7,3,5.4,5,7.4,7.8c-0.7,3.9-1.9,7.5-3,11.3c-2.1,7.1-4,14.3-6.3,21.3c-1.5,4.3-3.6,8.4-5.5,12.6
		c-0.5,1.1-0.9,2.3-2.5,2.9c-0.1-2.5-1.3-4.6-2.3-6.7c-2.4-4.7-4.4-9.5-5.8-14.5c-1-3.6-2.5-7.1-4.5-10.3c-1.1-1.7-2.4-3-4.3-3.8
		c-8.9-4-16.9-9.6-25.3-14.3c-6.4-3.6-11.8-8.7-16.3-14.4c-3.4-4.2-6.4-8.8-9.6-13.2c-4.5-6.2-9.2-12.2-13.9-18.3
		c-0.1-0.2-0.3-0.4-0.5-0.6c-4-2.4-3.7-6.5-4.2-10.3c-0.4-3.6,1.3-5.7,4.7-6.1c12.7-1.8,25.5-3.4,38.4-3.7c6.7-0.1,13.3,0.9,20,1.5
		c1.7,0.1,3.4,0.4,5.1,0.4c5.6,0,11.2,0.4,16.7,1.4c2.1,0.4,4,0,6.1-0.7C403.5,141.6,409.5,141,415.9,140z M393.7,229.8
		c0.6-0.6,0.6-1.1,0.4-1.5c-1.2-4.3-2.3-8.6-4.3-12.7c-0.5-1-1-1.9-1.7-2.8c-0.4-0.6-1-1.1-2-0.1C389.5,218,391,224.1,393.7,229.8z
		 M366,203.4c3.7,2.3,7.4,4.6,11.4,6.2c0.4,0.2,0.9,0.5,1.3,0C377.2,207.2,371.3,204.3,366,203.4z M389,148.7
		c2.1,1.1,4.4,1.7,6.8,1.1C393.7,148.4,391.4,148.2,389,148.7z M395.1,232.9c-0.3,2.2-0.1,4.2,1.5,6.1
		C396.7,235.7,396.5,234.9,395.1,232.9z M399.6,157.4c0.2-1.6,0.8-2.8-0.2-4.4C398.5,154.5,398.7,155.6,399.6,157.4z M360.1,199.4
		c-0.2,0.1-0.3,0.2-0.3,0.3s0,0.2,0.1,0.3c0.7,0.8,1.4,1.7,3.2,1.7C362,200.3,361.2,199.7,360.1,199.4z M396.9,145.5
		c-0.2,0.9,0,1.8,0.9,2.6C397.5,147.1,398.1,146.1,396.9,145.5z M380.3,197.6c0.1-1.4-0.2-2.2-1.6-2.9
		C378.6,196.1,379.3,196.8,380.3,197.6z M411.2,149.5c1.2,0,1.2,0,1.5-0.7C412.2,148.7,411.8,148.8,411.2,149.5z"/>
	<path fill="none" d="M484.4,285.3c-0.8,3.1-1.6,6.2-2.4,9.3c-1,4.5-1.7,9-2,13.7c-0.2,4.8,0.5,9.6,2.2,13.9c1.3,3.5,3.4,6.9,5,10.4
		c2.1,4.7,3,9.7,3.3,15c-9.7,1-18.9,3.3-28.8,4.1c0.8-3.1,2.8-5,4-7.4c-2.7,1.5-2.7,1.5-6.2,7.2c-17.2,0.4-34.4,1.1-51.3-3.8
		c-5.8-1.7-11.8-2.9-17.9-3.4c-0.5,0-0.9-0.3-1.6-0.4c0.3-1.8,1.3-3.2,2.1-4.6c2.8-4.8,5.7-9.6,8.5-14.4s3.9-10,4.4-15.6
		c0.8-8.5-0.1-16.7-2.4-24.7c1-0.8,1.7,0,2.5,0.2c11.8,2.9,23.7,5.5,36,3.8c2.3-0.3,4.6-0.4,6.9-0.2c12,1.4,23.7,0,35.4-2.9
		C482.9,285.3,483.5,284.7,484.4,285.3z M443.7,321.7c-0.7,2.7-3.6,2.6-5,4.3c1.5,1.2,1.5,1.2,3.1,1.6
		C444.5,325.1,444.7,324.8,443.7,321.7z M405.6,325.4c0.3-1.4,0.7-2.9-0.4-4.5C403.9,322.9,405.1,324.1,405.6,325.4z M473.6,335.3
		c1.9-1.4,2-2.7,2.2-4.4C474,332,474.2,333.4,473.6,335.3z M471.2,336.8c-1.7,1.6-2.5,2.8-2.4,4.8
		C470.4,340.4,470.8,339,471.2,336.8z M442.1,299.8c0.3-1,0.4-1.8-0.7-2.7C441,298.3,441.1,299.1,442.1,299.8z M441.2,310.4
		c-0.7,1.6-0.8,2.7,0,4C442,313.1,441.8,311.9,441.2,310.4z M410.6,336.5c-0.6,0.8-0.2,1.1,0.6,1.2
		C411.7,336.9,411.2,336.6,410.6,336.5z"/>
	<path fill="none" d="M484.6,259.1c1.2-0.2,1.2-1.8,2.5-2.2c1.3,1.4,2.7,2.9,4.3,4.7c-2.3,5.8-3.5,12.5-5.4,19
		c-6.2,1.3-11.7,3.8-17.8,4.5c-2.8,0.3-5.6,0.6-8.3,0.9c-3.3,0.4-6.4-1-9.7-1.1c-4.6-0.1-9.2-0.2-13.8,0.1
		c-12,0.9-23.7-1.4-35.3-4.4c-2.1-6.9-3.5-13.7-6.1-20.3c6.1-8.7,10.6-18.2,13.4-28.4c1.9-7.1,4-14.2,5.6-21.4
		c0.2-1.1,0.3-2.2,1-3.1c1.5-0.4,2.5,0.6,4,0.9c-0.3,3.4-0.6,6.7-0.9,9.9c-0.5,5,0.1,9.7,2.8,14c2.5,4.1,6.1,6.4,11.1,6.5
		c3.7,0.1,7.5,0.6,11.2,1c10.5,0.9,18.4-3.3,23.8-12.2c2.3-3.9,2.9-8.2,2.2-12.7c-0.2-1.3-0.6-2.6-0.4-4c1.8-0.6,3.5-1.3,5.8-1.3
		c0.3,16,4.8,31,11.3,46C485.8,256.5,484.3,257.6,484.6,259.1c-0.9,0.4-1.3,1.1-1.2,2.2C484.2,260.6,484.8,260,484.6,259.1z
		 M440.8,265.4c2.7,3.3,5.8,5.1,9.6,5.2c-3.9-1.9-6.3-4.5-8.4-7.3C441,263.8,440.8,264.5,440.8,265.4z M430,268.7
		c2.1,0.7,3.5,0.4,3.3-2.2C432.2,267.2,431.1,267.9,430,268.7z M482.1,263.8c-1.4,0.7-2.3,1.7-2.9,3.1
		C480.8,266.4,481.9,265.5,482.1,263.8z M426.2,269.6c-1.5-0.5-2.5-0.5-4,0.7C423.8,270.1,424.8,270.5,426.2,269.6z M465.4,274.2
		c0.9-0.3,1.8-0.1,1.9-1.1C466.4,272.7,465.9,272.9,465.4,274.2z M473.3,271.7c0.4,0.2,0.7-0.1,0.8-0.3c0.3-0.3,0.5-0.7-0.1-1
		C473.6,270.8,473,271,473.3,271.7z"/>
	<path fill="none" d="M445.9,111.8c-1,0.4-0.5,1.5-1.2,2.2c-0.2-0.7-0.3-1.4-0.4-2.1c-0.1-0.3-0.3-0.2-0.4,0.1
		c-1.1,2.8-0.6,5.7-0.8,8.4c0.5,0.9,1.3,0.9,1.8,1.3c2.5-0.6,3.6-2.6,4.9-4.8c0.8,0.6,0,1.3,0.2,1.9c0.7,0.1,1.4,0.2,2.1,0.2
		c2.4-2.2,3.3-5.1,4.4-7.8c1.3,0.2,1.4,1,0.9,1.9c-0.8,1.4-1.8,2.6-2.5,4c-0.4,0.6-1.3,1.2-0.6,2.3c1.6-0.3,1.4-2.5,2.8-2.9
		c-0.2,0.9-0.4,1.8-0.7,2.9c0.9,0.2,1.6,1,2.6,0.9c-0.2,0.4-0.4,0.9-0.1,1.4c1.3,0.2,1.1-1.4,2.4-1.7c-0.5,2.5,2.1,4,1.5,7.1
		c1.9-2.4,1-4.8,1.7-7.2c1.7,1.8,1.2,3.5,0.6,5.4s-2.1,3.6-1.2,5.8c1.6-0.4,1.4-1.9,1.8-3.1c0.7,0.6,0.6,1.3,0.7,2.1
		c-1,1.4-2.5,2.7-2.8,4.8c0.4,0.9,0.6,2.1,2.2,1.7l-0.1-0.1c-0.6,4.7,0.9,9.3,1.3,13.9c0.1,1.5,0,2.9-0.6,4.3
		c-1.4,3-1.9,6.3-2.7,9.4c-1.4,5.5-2.6,11.1-6.1,15.9c-4.9,6.6-14.9,8.4-22.2,4.8c-6.8-3.4-9.8-9-11.6-15.8c-0.9-3.4-2-6.7-3.3-10
		c-1.7-4.5-1.3-9.3-1.3-14c0-2.5,0.5-4.4,2.7-5.6c0.4-1.7-0.1-3.2-0.2-4.6c-1.1-0.2-0.7,1-1.7,1c0.2-2.5-1.6-4.6-1.8-7.2
		c1.1,0,1,1.4,2.2,1.2c-0.1-1.4-1.3-2.5-1-4c0.5-0.6,1.1,0.5,1.6-0.1c0.1-1.2-1.2-1.7-1.4-2.8c0-1.1,0.7-1.6,1.5-2
		c0.3-1.1-0.5-2.1,0.3-3c1.4,1.3,2.8,2.5,4.2,3.8c0.6-0.2,0.5-0.7,0.7-1.2l0.1-0.1c1.7,0.5,2.3-0.9,2.1-1.9
		c-0.4-2.1-0.4-4.5-2.2-6.2l0.1,0.1c0.6-0.8,1.2-1.5,2.3-2c1.3,1.9,0.3,4.2,1.3,6.2s2.8,3.2,4.3,4.6c-1.8-3.8-3.1-7.7-4-11.7
		c2.5-0.7,2.9,0,2,3.6c1.5,2.7,2.5,5.7,4.4,8.3c1.7,0.5,3.8-0.8,5.7,1.7c-1-5.3,0.8-9.8,0-14.4c1.1-1.1,2.2-0.1,3.1-0.2
		c0.9,1.3,0.4,2.3,0.3,3.4L445.9,111.8z M427.8,147.4c0.7,1.7,1.9,2.2,3.2,2.4c1.1,0,1.4-1.3,2.4-1.3c0.8,0.3,1.5,1.3,2.2,0
		c-2.7-4.7-8.8-5.8-12-2.1c1.3,0.3,2.2-1.3,3.6-0.8c-0.9,1.4-2.6,1.3-3.5,2.5c0.3,0.9,1,1,1.8,0.9
		C426.2,148.6,426.8,148.1,427.8,147.4z M459.6,145.6c-2.7-2.2-5.8-2.6-9.6-1.3c-0.5,0.7-1.1,1.3-1.5,2c-0.5,0.8-1.8,0.9-1.8,2.1
		c1.5,1.4,1.9-0.8,3-0.8c3.6,2.2,3.4,1.4,5.8-0.5c1.3,0.2,2.4,1.6,4.1,0.7c-1.4-1.8-3.8-1.5-5.2-3.1
		C456.3,144.2,457.7,146.1,459.6,145.6z M452.1,171.9c-6.2-0.8-12.4-3.1-19.1,1c6.4,0.5,12.1,0.1,17.8,0
		C451.5,173,452.1,172.6,452.1,171.9z M443.7,141.9c6.1-1,11.5-2.7,17.1-1.3C456.5,137.8,447.2,138.4,443.7,141.9z M435.2,175.8
		c4.8,4.1,11.1,3.8,14.8-0.8C444.9,177.5,440.3,176.9,435.2,175.8z M423,140.7c4.8-1.4,9.3,0.2,13.8,1.5
		C433.2,138.5,427.2,137.8,423,140.7z M448.1,164.1c1.1-2.3,1.1-2.3-0.3-4c-0.5,1,1,2.3-0.4,3c-1.9-0.9-1.9-0.9-3.6,0.1
		C445.1,164.6,446.7,164.2,448.1,164.1z M460.9,135.1c-0.2,1.3-0.8,2.5,0.7,3.4C462.3,137.2,461.7,136.2,460.9,135.1z M446.1,143
		c-1.5,1.8-1.5,1.8-1.3,3.5C445.2,145.3,446.2,144.5,446.1,143z M438.4,164.1c1.4,0.2,2.2,0.6,2.9-0.4
		C440.6,162.7,439.9,162.3,438.4,164.1z M436.7,147.2c-0.3,0.3-0.3,0.7-0.1,1c0.2,0.4,0.4,0.9,1,0.4
		C437.7,147.9,437.5,147.3,436.7,147.2z M432.5,150.8c-1.2-0.8-2.1-0.6-3.3,0.2C430.5,151.4,431.3,151.7,432.5,150.8z M452.5,150.1
		c0.6,0.2,1.2,0.8,1.5-0.3C453.4,149.5,452.9,149.6,452.5,150.1z M443.5,150.1c0.9-0.7,0.7-1.1,0-1.3
		C443.1,149.2,443.2,149.5,443.5,150.1z M423.6,123.1c0.6-1,0-1.2-0.8-1.3C422.6,122.5,423,122.8,423.6,123.1z M422.3,124.8
		c0.2-1.1-0.4-1.3-0.8-1.9C421.2,124,421.8,124.3,422.3,124.8z M436.9,163.1c-0.4,0.9,0,1.2,0.8,1.3
		C438.2,163.5,437.7,163.2,436.9,163.1z M443,161.1c0.8,0,0.8,0,0.9-0.8C443.3,160.2,443.1,160.6,443,161.1z M437.7,159.8
		c-0.8,0.6-1.4,1.1-1,2.2C437.5,161.5,438,161.1,437.7,159.8z"/>
	<path fill="none" d="M411.1,202.2c-3.3-2.3-6.5-4.5-9.6-6.8c-7.3-5.4-15.7-8.1-24.6-9.3c-2-0.3-3.2-1.1-4.6-2.5
		c-5.8-6.1-12.5-11.2-20.4-14.4c-1.8-0.7-3.6-1.5-5.4-2.3c0.9-1.3,2.2-1.3,3.3-1.6c11.7-3.9,23.7-5.1,35.9-3.5
		c2.6,0.3,5.3,0.2,8,0.3c3.5,0,6.7,0.9,9.7,2.6c0.4,0.2,0.9,0.5,1.3,0.7c4.5,3,9.1,5.6,14.5,6.3c2.7,0.3,4.3,1.8,5,4.5
		s2.9,4.7,3.2,7.6c0.6,5.6-0.6,10.5-4,15c-0.9,1.2-2.3,1.4-3.6,1.6C417.1,200.9,414.2,201.3,411.1,202.2z"/>
	<path fill="none" d="M375.2,668.2c-0.3,1-1.4,1.2-1.9,2.1c0.1,1,0.2,2,0.3,2.9c0.4,2.8-0.7,4.8-2.8,6.6c-2.7,2.4-5.9,3.1-9.3,3.6
		c-6.3,0.9-12.2-0.3-18.7-1.9c5.2-2.1,7-2.2,11.5-0.9c1.6,0.5,3.3,0.9,4.9,1.3c0.2,0,0.4-0.2,0.8-0.4c-1.8-3.2-6.4-1.5-7.8-4.7
		c-3.6,0.1-6.8,0.5-9.9,2.1c-0.6-3.5-0.8-7-0.7-10.5c3.1-4.2,5.4-9,9.5-12.6c5.5,0.7,11.1,1.3,16.8,0.7c0.5,0,0.8-0.5,1.1-1.4
		c-2.1-2.4-5.3-1.9-8.1-2.3c-2.9-0.4-5.8-0.1-8.5,1.2c-0.5-1,0.2-1.4,0.7-2c6.2,0,12.5,0,18.9,0c-0.2-2.4-1.9-2.5-3.4-2.8
		c-3.4-0.7-6.8-0.6-10.2-0.3c-1.4,0.1-2.9,0.3-4.5,0.5c-0.1-1.8,1.3-2.3,2.1-3.1c5.7-0.4,11.2-0.1,16.5,2.3c0.9-1.7-0.1-2.4-1.1-3
		c-2.6-1.4-5.5-1.9-8.4-2.1c-1.4-0.1-2.9,0-4.9,0c2.5-2.9,2.4-6.4,4.2-9.5c3.3-0.3,6.8,1,10.1,0.2c2.7,2.9,3.9,6.6,5.8,8.8
		c1.4,1,2.1,0.1,3,0.6c-1,3.1-0.8,6.2,1.6,8.5c0.4,3.2,0,6-0.6,8.9C381.6,664.9,379.4,667.6,375.2,668.2c0.7-1.2,1.3-2.6,1.4-4.2
		c-1.1,0.9-1.9,1.9-2.2,3.3C374.3,667.9,374.7,668.2,375.2,668.2z M349.9,660.6c5,0.9,9.3,2,14.1,0.3c-1.4-3.2-4.1-2.8-6.3-2.9
		C355.1,657.7,352.1,657.1,349.9,660.6z M351.8,662.7c-0.1,0.3-0.2,0.5-0.3,0.8c1.4,0.7,2.8,1.6,4.4,2.2c1.5,0.6,2.5,0,2.4-1.8
		C356.3,662.1,354,662.5,351.8,662.7z"/>
	<path fill="none" d="M464.2,195c-0.2-0.3-0.4-0.6-0.5-1c-0.4-3.5-1.6-6.8-2.9-10.1c-0.1-0.2,0.1-0.5,0.1-0.7
		c0.3,0.4,0.6,0.7,0.9,1.1c1.1,0,0.7-1,1.3-1.6c0.6,1.1-0.1,2.5,0.8,3.7c0.9-3.5,0.5-6.8,0-10.1c-0.6-3.7-0.1-7.1,1.5-11
		c-0.4,5.7,0.2,10.8,0.3,15.8C465.9,185.8,465,190.5,464.2,195L464.2,195z"/>
	<path fill="none" d="M438.6,120.5c-4.3-5.6-4.9-9.9-1.8-12.1C437.6,112.3,439.1,116,438.6,120.5z"/>
	<path fill="none" d="M445.9,111.9c1.8-0.3,1.3-2.4,2.4-3.3c0.9-0.2,1.7,0.1,2.7,0.4c0,2.7-0.8,5.2-2.7,7.7
		c-0.3-1.9,1.2-3.4,0.4-5.1c-1.4,1.5-1.1,3.8-2.5,5.6c-0.5-1-0.2-1.8-0.1-2.7c0.1-1,0.2-1.9-0.1-2.9L445.9,111.9z"/>
	<path fill="none" d="M452.6,105.9c-1.1,0.8-2.3,1.2-3.7,0.6c-0.4-0.7,0.3-1.1,0.4-1.6c-0.4-0.2-0.7-0.4-1.1-0.6
		c0.5-0.7,0.9-1.3,1.4-2v0.1c1.9,0,3.8,0.1,5,1.9c0,1.5-2,0.5-2.2,1.8L452.6,105.9z"/>
	<path fill="none" d="M458,114.9c0.2-0.6,0.4-1.1,0.6-1.6c3.4,1,4.9,2.9,4.6,6c-1.2,0-0.8-1.7-2.5-1.6c-0.8,0.2-0.7,2-1.8,2.7
		c0.5-1.8-0.6-3.7,0.4-5.3C458.7,114.6,458.4,114.7,458,114.9z"/>
	<path fill="none" d="M449.7,102.2c-2,0.6-3.8,1.5-4.8,3.5c-1.3,0-2.5,0-3.8,0C442.9,102.3,446,101.1,449.7,102.2L449.7,102.2z"/>
	<path fill="none" d="M474.5,207.5c-2,1.4-4,1.2-6,1.4c-1-1.1-0.7-2.3-0.6-3.8C470.2,205.7,472.6,205.3,474.5,207.5z"/>
	<path fill="none" d="M418.7,206.3c-1.5-0.7-3.4-0.3-4-2.5c1.4-1.1,2.9-0.6,4.4-0.8C419.5,204.2,419.2,205.1,418.7,206.3z"/>
	<path d="M458,114.9c0.3-0.2,0.7-0.3,1.3,0.1c-1,1.6,0.1,3.5-0.4,5.3l0,0c-1,0.1-1.7-0.7-2.6-0.9c0.3-1.1,0.5-2,0.7-2.9
		C457.4,115.9,457.7,115.4,458,114.9z"/>
	<path fill="none" d="M470.7,153.3c0.8-1.6-0.9-2.2-1.4-3.5c0.7-0.9,1.4-1.8,2.7-3.4C471.9,149.4,473.5,151.7,470.7,153.3
		L470.7,153.3z"/>
	<path fill="none" d="M470.6,153.3c0.3,2.8-1.3,4.9-2.7,7.2c-0.8-1.5-0.8-1.5-0.6-3.1C469.3,156.9,469.5,154.7,470.6,153.3
		L470.6,153.3z"/>
	<path fill="none" d="M417.5,156.3c-1.7-2.2-1.7-2.2-1.2-5.3C418.6,152.5,417,154.6,417.5,156.3z"/>
	<path fill="none" d="M453.6,109.1c0.4,2.8-0.9,4.4-2.2,6.1C451.9,113.3,451.6,111.1,453.6,109.1z"/>
	<path fill="none" d="M426.2,112.4c-0.2,1.8,0.4,3.5,0.9,5.6c-2.9-3.3-3-3.8-0.8-5.5L426.2,112.4z"/>
	<path fill="none" d="M426.2,120.6c-2.1-0.9-2.4-2.9-2.9-4.8C424.3,117.3,426.1,118.4,426.2,120.6L426.2,120.6z"/>
	<path fill="none" d="M452.5,106c0.9,0,1.9,0,3,0c0.7,0.4,0.9,1.3,1,2.4c-1-1.4-3.3-0.5-3.9-2.5L452.5,106z"/>
	<path fill="none" d="M419.2,160.5c1.1,1.4,2,2.9,1.5,4.9C419.6,164,419.3,162.3,419.2,160.5z"/>
	<path fill="none" d="M438.9,111.4c-0.4-1.3-0.4-2.2,0-3c0.5-0.3,0.9-0.4,1.6,0C440.3,109.4,440.2,110.5,438.9,111.4z"/>
	<path fill="none" d="M418.3,138.2c-0.1-0.6-0.4-1.2,0.2-1.9c0.9,0.6,1.4,1.4,2.1,2.6C419.5,139,418.9,138.8,418.3,138.2z"/>
	<path fill="none" d="M441.2,112.2c0.4,0.5,0.5,1.1,0.1,1.6C440.4,113,440.4,113,441.2,112.2z"/>
	<path fill="none" d="M380.1,638.1c0,0.4-0.2,0.7-0.6,0.7c-0.1,0-0.4-0.2-0.5-0.4c-0.1-0.5,0.2-0.6,0.6-0.7
		C379.8,637.7,380,638,380.1,638.1z"/>
	<path fill="none" d="M451.9,117.1c0.2-0.6,0.4-1.3,1.1-1.5c0.5,0.9-0.2,1.3-0.7,1.8C452.2,117.5,452,117.4,451.9,117.1z"/>
	<path fill="none" d="M465.7,136.6c0-0.8,0.2-1.6,1.1-2.2c0.5,1.3-0.2,1.7-1.2,2.1L465.7,136.6z"/>
	<path fill="none" d="M838.2,550.7c1.6,2,1.9,4.4,1.6,6.8c-0.3,2.4-0.5,4.8,0.8,7.1c1.1,2-0.1,4,0,5.9c-1.4,1.7-2.5,3.4-3.2,5.6
		c1.6,0,1.7-1.6,3.1-1.7c-0.2,1.7-0.1,3.4-0.5,5c-1.9,6.6-2.4,13.7-5,20.1c-3.3,8.1-5,16.7-9.4,24.4c-2,3.5-3.1,7.6-4.5,11.5
		c-0.8,2.2-1.9,4.2-3.5,6c-2.3,1.4-5.1-1.2-7.6,0.8c-2.1,1.7-2.5,4.3-4.4,6.3c0.4-2.4,0.7-4.8,1.1-7.2c-1.4,1.1-1.6,2.9-2.2,4.4
		c-0.6,1.5,0,3.4-1.5,5c-0.6-1.8,0.1-3.1,0.2-4.5c0.9-9.8,1.8-19.6,2.5-29.4c0.6-8-0.5-15.7-1.6-23.5c-0.2-1.1,0-2.1,0.3-3.2
		c1.9-5.8,2.5-11.9,3.8-17.8c0.3-1.3,0-2.6,0-4.1c-2.5-1.9-5-3.7-8.1-5.1c0,1.4,1.4,1.8,1.5,2.9c-0.2,0.2-0.4,0.5-0.7,0.7l0.1,0.1
		c-2-1.5-4.3-2.4-6.7-3.3c-7.8-3.1-15.4-6.6-22.6-10.9c-1-0.6-2-1.3-2.9-2.5c0.1-2.3,0.6-4.6,1.8-6.8c3-5.8,6.3-11.5,9.5-17.2
		c0.8-1.3,1.8-2.3,3-3.1c3.2-2.2,6.4-4.5,9.5-6.7c1.8-1.3,3.5-2.6,4.9-4.3c3.4-0.5,6.6-0.5,9.9,0.1c3,0.5,5.7,1.7,8,3.8
		c4.7,4.2,9,8.8,13,13.7c0.8,1,1.3,2,1.8,3.1c2.2,5.5,4.3,11.1,7.3,16.2c0.3,0.5,0.4,1.1,0.5,1.7c-1.5-0.3-1.5-1.7-2.1-2.7
		c-1.4-2.3-2.6-4.8-4.9-6.5c0.8,3.5,3.1,6.2,5,9.2c-0.2,2.4-0.4,4.9,0.1,7.6C837.6,555.9,838.7,553.5,838.2,550.7z M805.9,558.1
		c0.1,3.5,0.8,4.4,6,8c0.3-0.9,0.2-1.8-0.5-2.3C809.3,562.2,808.3,559.6,805.9,558.1z M809.1,609.6c3.1-1.1,3.8-3.9,4.5-6.7
		C811.5,604.7,809.5,606.5,809.1,609.6z M821.2,563.4c-0.3-1.8,0.5-4.2-2.7-5.7C818.9,560.3,819.5,562,821.2,563.4z M813.5,573.8
		c-0.5-1.4,0.5-3-0.5-4.6C811.4,571.1,811.8,572.5,813.5,573.8z M827.4,591.5c0.3,0.1,0.6,0.3,0.9,0.4c-0.2-2,2-3.2,0.9-5.5
		C828.6,588.1,828,589.8,827.4,591.5z M807,635.5c-0.7,1-1.4,2.1-0.5,3.6C807.3,637.9,807.5,636.8,807,635.5z M834.8,565.3
		c0.1,0.1,0.1,0.2,0.2,0.3c0.1,0,0.2-0.1,0.3-0.1c0.7-0.6,0.9-1.4,1.1-2.1c0-0.1-0.2-0.3-0.4-0.5
		C835.3,563.5,834.9,564.3,834.8,565.3z M794.2,559.5c0-1.3-0.9-1.5-1.5-1.9c-0.2-0.2-0.6,0-0.7,0.5
		C792.6,558.9,793.2,559.4,794.2,559.5z M798.4,562.1c-0.7-1.2-1.2-1.9-2.4-1.5C796.5,561.5,797,562.1,798.4,562.1z M831.8,583.8
		c-0.5,0.4-1.4,0.3-1.1,1.5C831.5,585.2,831.9,584.8,831.8,583.8z M826.2,598.7c0.8-0.4,1.3-0.7,0.7-1.5
		C826.4,597.4,826.1,597.7,826.2,598.7z"/>
	<path fill="none" d="M731.1,384.6c1.7,1.9,1.7,4.4,2.7,6.6c0.8,1.7,1.4,3.3,3.4,3.9c0.3,1.1,0.5,2,0.7,2.9
		c-0.3,0.1-0.6,0.4-0.8,0.3c-2.4-1.4-5-0.8-7.5-0.3c-2.9,0.7-5-0.2-6.9-2.2c-2.9-3.1-6.5-4.6-10.7-4.8c-1.6-0.1-3.2-0.2-4.6,0.9
		c-0.6,0.5-1.4,0.5-2.1,0.6c-7.1,0.8-13.2,3.8-18.8,8.1c-3.8,3-7.9,5.7-11.1,9.5c-0.7,0.8-1.8,1.2-2.7,1.8c-3.1,2-5.9,4.2-8,8.2
		c3.5-1,5.4-3.2,7.5-4.9c2.2-1.8,4.1-3.8,6.7-5.2c3-0.2,6-0.2,9.2,0.1c1.7,2.7,4.7,4,6.8,6.4c2,2.3,2.5,5.5,4.9,7.6
		c-0.4-3-4.4-9.5-8.8-14.3c5.2-2.4,10.6-2.5,16-1.7c2.5,0.4,5,0.6,7.1,2.3c0.7,0.6,1.8,0.9,2.7,1c2.9,0.4,5.2,1.9,7.8,3.3
		c0.9,3.5,1.1,7.1,0.9,10.7c-0.3,8.4-0.7,16.8-2.1,25c-1.1,6.3-4.8,11-9.4,15.2c-1.6,1.4-3.7,1.6-5.9,0.6c-2.1-8.9-6.8-16.8-9.7-25
		c-6-3.6-12.5-3.6-18.9-3.3c-3.9,0.2-7.7-0.4-11.5-1.5c-2.2-0.7-4.5-1.2-6.7-1.7c-5.9-1.3-11-4.1-15.7-8c-3-2.5-6-4.9-8.6-7.8
		c-1.8-2-2.5-4.7-4.5-6.2c-0.7-2.3,0-3.9,1.5-5.2c3.1-2.7,6.3-5.3,8.9-8.6c0.6-0.8,1.8-1.2,2.7-1.7c9.5-5.2,19.5-9.2,29.9-12.5
		c1.5-0.5,3-0.9,4.5-1.6c3.2-1.4,6.6-2.4,10.1-2.8c3.3-0.4,6.4-1.6,9.3-3.1c3.3-1.8,6.7-2.8,10.2-3.7c5.8-1.3,11.1-4.1,17-5.3
		c1.5-0.3,3.1-0.6,4.6-0.9c0.9,1.5,0.4,3.2,0.8,4.5c0.1,0.7-0.3,1.1-0.6,1.5c-2.9,3.7-2.5,7.6-0.5,11.5c-0.7-0.4-1.1-1.2-2.3-1.3
		c-0.9,0.6-2.4,0.8-3,2.6C728.1,386.7,729.7,385.9,731.1,384.6z M710.2,446.2c0.5,5.1,1.9,9.7,4.8,14.1c1.2-1.7,0.6-2.9,0.2-4.1
		c-1.1-3-3.4-5.5-3.8-8.8C711.3,446.9,711,446.5,710.2,446.2z M706.6,381.7c2.8-0.6,6.3,0.6,8.4-2.3
		C711.9,378.9,709.2,379.9,706.6,381.7z M698,437.6c-2.3-2.7-5-3.3-8.3-1.5C692.6,437.4,695.2,437.4,698,437.6z M649.5,420.8
		c-1.7-0.8-2.8,0.1-4,0.8c-0.7,0.4-1,1-0.6,2.1C647.6,424.8,648.1,421.9,649.5,420.8z M639.8,404.8c-2.4,1.3-3.7,2.5-3.7,5.5
		C637.9,408.5,640.1,408,639.8,404.8z M716.1,386.4c-0.2,1.3-1.7,2.7-0.1,4.2C717.7,389.1,716.5,387.8,716.1,386.4z M727.1,377
		c-1.3,0.7-2.6,1.4-3.2,3.3C726.2,379.9,726.6,378.4,727.1,377z M700,383c-1.9,0.1-1.9,0.1-2.4,1C698.4,384.1,699.2,384.1,700,383z"
		/>
	<path fill="none" d="M795.8,410.9c1.2,0.2,2.1-0.4,3.1-0.8c1.5-0.6,2.9-1.2,4.6-0.7c0.8,0.2,1.7-0.1,2.5-0.4
		c4.7-2.3,9.7-1.8,14.7-1.6c2.1,0.1,4.1,0.4,6.1,0.6c0.2,1.3-1,1.3-1.6,1.8c-1.5,1.4-3.4,2.4-3.7,4.6c-0.9,0.3-1,1-1.4,2.4
		c0.8-1.1,1.4-1.6,1.3-2.4c2.6-0.8,4.6-2.6,6.7-4.1c3.1-2.1,6.5-2.9,10.3-3.4c2.6,2.5,5.1,5.4,9.1,6.5c0-1.4-1.1-1.9-1.8-2.5
		c-4.1-2.9-7.4-6.6-11-10.1c-8-7.7-17.3-12.4-28.5-12.9c-1.1-0.1-2.1,0.1-3.1,0.6c-3.1,1.5-5.9,3.2-8.1,6c-1,1.2-2.4,2.1-3.4,3
		c-3,0.6-5.7-0.4-8.2-0.6c-0.8-0.9-0.4-1.6-0.5-2.1c4.9-2.5,7.7-6.6,9.9-11.8c-3.6,0.9-4.1,4.2-6.2,5.8c-0.9,0.7-0.1,1.5-0.1,2.4
		c-0.9,0.7-1.7,1.7-3.1,1.3c-1-0.5-0.7-1.4-0.7-2.5c2.3-1.2,3.8-3.2,4.7-5.9c0.8-2.4,2.2-4.8,5-6.1c-2.2-2.3-2.5-5.7-4.6-7.8
		c-1.7-0.5-1.9,1.3-3.3,1.4c-0.1-1.4-0.2-2.7-0.3-4.2c5.1-0.8,9.9-1,14.6,1.5c2.4,1.3,5.2,1.9,8,2.4c4,0.7,7.7,2,11.1,4.3
		c2,1.3,4.3,2.2,6.6,2.9c7.3,2.2,14.6,4.4,22,6.6c0.8,0.2,1.6,0.5,2.4,0.8c6.4,3,13,5.3,19.2,8.6c3.7,2,6.6,5,10.1,7
		c0.7,0.4,1.3,1.2,1.5,2c0.5,2,1,4,1.3,6c0.2,1.3-0.6,2.3-1.7,3.1c-0.2-0.8-0.3-1.5-0.5-2.3c-0.2,0.2-0.4,0.3-0.5,0.4
		c-1.3,3.6-3,6.9-6.6,8.8c-0.2,0.1-0.4,0.3-0.6,0.5c-6.7,6.8-15.1,10.3-23.9,13.4c-4.2,1.4-8.4,2.5-13,2.5c-0.8,1.5-2.4,1.7-4,1.6
		c-8.1-0.9-13.4,3.3-17.5,9.5c-3.4,5.2-7.3,10.3-8,17.5c-11.9-14.8-13.6-31.8-14.8-49c0.3-1,1.4-1.1,1.9-1.9
		c-1.2-0.4-2.2-1.1-2.5-2.5v0.1c1.1,0.3,2.2,0.6,3.3,0.8c1.3,0.1,2.5-0.3,3.2-1.5V410.9z M812.2,430.2c-2.8,2.4-5.3,8.9-4.9,12.4
		C809.3,438.4,811.1,434.5,812.2,430.2z M814.9,435.2c3,1,6.4,0.9,8.7-0.1C820.8,434.5,818.2,433.6,814.9,435.2z M801.4,377.5
		c-0.4,1.1,0,1.5,0.6,1.7c2.1,0.6,4.2,1.5,7.1,0.6C806.3,378.6,804.1,377.6,801.4,377.5z M800.1,373.9c-1.4,1.1-1.3,2.2-1,3.7
		C800,376.5,800.6,375.6,800.1,373.9z M849.3,427.2c0.7,0.4,1,0.7,1.3,0.8c0.5,0.1,0.9,0.1,1.4,0.1c0.2,0,0.7,0.2,0.6-0.4
		C851.8,426.8,850.8,426.6,849.3,427.2z M818.7,417.9c-1.6,0.8-2.2,1.6-2.4,3.4C817.6,420.4,818.4,419.8,818.7,417.9z M878.7,405.3
		c-0.7,0.9-0.4,1.7,0.2,2.6C879.8,406.8,879.5,406.1,878.7,405.3z M815.8,423.4c-1.1,0.4-1.6,0.9-1.5,2
		C815.3,425,815.9,424.6,815.8,423.4z M804.3,451.6c0.6-0.8,1.7-1.1,0.8-2.2C804.4,449.8,803.9,450.2,804.3,451.6z M811.8,380.6
		c-0.7-0.5-1.2-0.7-1.7,0.2C810.6,381.1,811,381.5,811.8,380.6z M800,385.3c0.2-0.5,1.2-0.9,0-1.5
		C799.3,384.2,799.5,384.7,800,385.3z"/>
	<path fill="none" d="M789.4,411.5c-2,1.2-1.5,3.2-1.6,4.9c-0.4,8.2,0.6,16.2,2.6,24.2c1.2,4.8,2.4,9.6,5,14
		c1.3,2.1,1.6,4.8,3.3,6.8c1.6,1.8,3.2,3.6,4.9,5.4c-1.2,4.9-1.7,10-3.4,14.9c-1.7,5-4.7,9-8,12.9c-1.3,1.5-3,1.9-4.8,2.3
		c-6.5,1.4-13,1.5-19.6,1.6c-0.4,0-0.7,0-1.7,0c6.5,3.1,12.7,3.5,19.6,2.1c-3.5,3.3-7.1,5.2-10.7,7.2c-1.5,0.8-3.2,1.2-4.1,2.8
		c-0.4,0.6-1.2,0.7-1.9,1c-4.3,1.5-8.7,2.3-13.2,2.7c-1.7,0.2-3.4,0-5.1-0.4c-5.7-1.6-11.5-3.1-17.1-4.9c-5.4-1.7-8.9-6-12.8-9.9
		c2.8,1,5.6,1.8,8.5,1.7c2.7-0.1,5.3-0.2,8-0.7c3.3-0.7,6.4-2,9.8-1.7c0-1.1-0.5-1.1-1-1.1c-5.3,0.2-10.7,0.4-16,0.7
		c-3.5,0.2-6.3-1-9.1-3c-4.9-3.5-8.7-7.8-10.8-13.4c-1.5-4-2.9-8.2-2.6-12.9c6.4,1.3,10.4-2,13.6-6.6c2.5-3.5,3.6-7.5,4.6-11.7
		c1.9-8,2.7-16,2.7-24.2c0-3.2-0.2-6.3-0.6-9.4c-0.3-2.2-0.9-4.6-1.9-7c2.6-0.3,4.9-0.6,7.7-0.9c0.3,4.9,0.9,9.7,0.9,14.5
		c0,9.4-0.3,18.7-0.4,28.1c-0.1,5.6,1.3,10.9,2.9,16.3c1.8,6.2,6,7.7,11.1,8.5c6,0.9,12.2,0.9,18.2-0.1c6.5-1,12-4.5,14.8-11
		s3.8-13.3,4.2-20.2c0.4-7.5-0.2-15.1-1-22.6c-0.4-3.9,0.3-8-2.1-11.9C785.5,410,787.5,410.3,789.4,411.5L789.4,411.5z M755.2,497.3
		c-1.8-0.2-3.7-0.9-5.9,0.6C751.7,498.4,753.5,498.4,755.2,497.3z M764.9,497.5c-2.4-1.5-2.4-1.5-4.8-1.2
		C761.7,496.9,762.7,498,764.9,497.5z M733.7,418.3c-1.2-0.8-1.2-0.8-2.2-0.5C732.2,417.9,732.5,418.8,733.7,418.3z"/>
	<path fill="none" d="M781.4,364.2c-0.2,3.3-0.1,6.6,0.8,9.9c0.7,2.7,1,5.7-0.5,8.5c-1.3,2.6-1.7,5.5-2.3,8.4
		c-1,4.6-2.2,9.2-4.4,13.4c-1.7,3.2-3.9,5.8-7.5,7.1c-1.6,0.6-3.1,1.3-4.7,1.9c-3.1,1.4-6.2,1.2-9.1-0.3c-3.1-1.6-6.4-3-8.8-5.6
		c-2.7-3.1-4.2-6.8-5.2-10.7c-1-3.7-2.2-7.4-3.5-11.1c-1.5-4.2-1.3-8.8-1.2-13.3c0.1-1.9,0-3.8,1.3-5.4l-0.1,0.1
		c1.2-0.1,1.7-0.8,1.7-1.9s-0.2-2.2-0.3-3.2c-1.3-0.6-0.6,1-1.6,1.1c-0.4-2.3-1-4.7-1.9-6.5c0.2-1.3,0.7-0.8,1.1-0.8
		c1.2-1-0.8-2.2,0.2-3.3c0.4,0.1,0.8,0.3,1.3,0.5c0.5-1.4-1.5-1.9-1.1-3.6c0.8-0.9,2.1-2.1,1-4.4c2.4,0.8,3,3,5.1,4
		c0.1-2.1-2.1-2.9-1.9-4.6l0.3-0.2c1,1.2,2,2.3,3.1,3.6c2.4-2.8-0.3-5.1-0.2-8.4c-1.6,2.3-0.1,3.7-0.3,5.5c-1.4-1.3-2.2-2.4-2-4.4
		c1.1-0.9,2.3-1.8,3.6-2.9c1.5,2,0.5,4.3,1.5,6.2c1,2,2.9,3.1,4.3,4.7c-1.7-3.9-3.3-7.9-3.9-11.9c0.5-0.6,1-0.8,1.6-0.6
		c1.2,1.2,0.9,2.5,0.3,4c1.5,2.8,2.5,5.9,4.5,8.5c1.8,0.4,3.7-0.3,5.7,1.3c-0.9-5,0.8-9.5,0.1-13.9c1.1-0.9,2.1-0.1,3-0.2
		c1,1,0.5,2,0.5,2.9l0.1-0.1c-0.8,0.6-0.7,1.6-1.2,2.4c-0.2-0.7-0.4-1.2-0.6-2c-1.4,3-0.9,6-1,8.9c0.7,0.4,1.2,0.8,1.7,1.1
		c2.4-0.3,3.2-2.5,4.7-3.7l-0.1-0.1c0.2,0.4,0.3,0.7,0.5,1.1c0.4-0.1,0.7-0.2,1.1-0.3l-0.1-0.1c0.3,0.3,0.7,0.6,1.2,0.5
		c0.5-0.6,1.2-1.1,1.1-2l-0.1,0.1c0.7,0,0.8-0.8,1.3-0.9c0.1,0.1,0.2,0.2,0.3,0.3c0.1,0.9-1.1,1.6-0.7,2.9c2.1-1.4,2.4-4.1,4.3-5.3
		c-0.7,1.6-1.4,3.2-2.1,4.9c0.5,0.6,1.1,0.8,2,0.9c1.6-1.6,0.2-3.6,0.7-5.4c0,0-0.4-0.2-0.6-0.3c0-0.5,0.1-1,0.5-1.3
		c3.7,1.8,4.7,3.3,4.3,6.7c-0.6-0.9-1.1-1.6-1.7-2.5c-1.6,0.9-1.8,2.8-3,4c1.8,0.9,1.6-1.1,2.8-1.3c-0.6,2.6,2.2,4.2,1.6,6.9
		c1.6-2.1,1-4.6,1.5-7c1.8,1.9,1.3,3.8,0.6,5.7c-0.7,1.8-2,3.6-1.1,5.7c0.4,0,0.8-0.1,1.1-0.1l-0.1-0.1c0.1,1.5-1.4,2.5-1.4,4
		C779.6,363.4,780.2,364.1,781.4,364.2L781.4,364.2z M745.1,378.4c1.2,0.3,2.1,0.5,3-0.3c-0.2-0.5-0.4-0.9-0.6-1.3
		c0.4-0.4,0.9-0.8,1.3-1.2c0.9-0.4,1.6,1.6,2.5,0.1c-2-4.7-7.8-5.9-12.1-2.4c1.3,0.5,2.2-1.1,3.4-0.5c-0.6,1.5-2.5,1.1-3.2,2.5
		c0.4,0.4,0.9,0.8,1.5,0.9c1,0,1.3-1.4,2.8-1.3c0.3,1,1.3,1.5,2.4,1.9C745.8,377.4,745.5,377.8,745.1,378.4z M775.1,372.6
		c-2.3-1.8-4.9-2-7.5-1.9c-0.8,0-1.5,0.3-1.9,0.9c-1.1,1.3-2.2,2.7-3.3,4c1.7,1.4,2.1-1,3.2-0.8c2.6,1.7,3,1.6,5.6-0.5
		c1.2,0.2,2.4,1.6,4,0.6c-1.4-1.7-3.6-1.5-5.4-3C772,371.7,773.4,372.9,775.1,372.6z M768.7,398.7c-2.3-0.2-3.8,0.4-5.3-0.2
		c-4.7-1.8-9.3-0.6-13.9,1.2c5,1.5,10.1,0,15.2,0.7C765.8,400.6,767,400.3,768.7,398.7z M765.5,402.3c-4.8,2.2-9.4,2-14.1,1
		c2.2,1.7,4.6,2.8,7.4,2.6C761.3,405.7,763.8,405.5,765.5,402.3z M776.4,367.5c-4.1-2.1-8.3-1.4-12.5-1c-1.4,0.1-3.1,0.3-4.3,2.4
		C765.5,368.3,770.8,366.1,776.4,367.5z M737.9,367.9c5.5-0.9,10-0.2,15.2,2C749.4,365.9,742.9,365.1,737.9,367.9z M763.2,390.3
		c-1.1-0.1-2.4-1.9-3.6,0.2c1.4,1.1,2.9,1,4.3,0.8c1.2-1.4,1.1-2.6,0.1-4C762.7,388.2,764.3,389.3,763.2,390.3z M753.5,391.7
		c-1.5-1.6,0.1-3.1-0.1-4.9C751.9,389.3,751.9,389.3,753.5,391.7z M760.2,373.7c0.5-1.1,1.8-1.8,1.5-3.8
		C760.6,371.2,759.9,372.2,760.2,373.7z M776.6,362.5c-0.2,1.3-0.8,2.4,0.8,3.1C777.8,364.6,777.6,363.7,776.6,362.5z M755.6,389.8
		c-0.5,0.3-1.1,0.5-0.8,1.3c0.9,0.8,1.6,0.5,2.2-0.3C756.7,390.2,756.2,389.9,755.6,389.8z M769.9,376.7c-0.9-0.4-1.3,0.1-2,1.1
		C768.9,377.6,769.7,377.9,769.9,376.7z M752.2,374.2c0.1,0.7,0,1.1,0.2,1.3c0.2,0.4,0.5,0.8,1,0.3
		C753.5,375.1,753.2,374.7,752.2,374.2z M738.6,348.6c-0.5,1,0,1.3,1,1.5C739.5,349.3,739.2,348.9,738.6,348.6z M758.8,388.8
		c0.4-0.3,1.4-0.3,0.8-1.3C758.8,387.4,758.6,388,758.8,388.8z M759.3,377.2c0.2-0.4,0.6-0.5,0.2-1.2c-0.2-0.4,0.1,0-0.4,0
		C758.9,376.4,758.9,376.7,759.3,377.2z"/>
	<path fill="none" d="M779.9,435.6c0.8,0.1,1.2,0.6,1.2,1.5c0.2,5.9,0.5,11.9,0.8,17.8c0,0.6,0,1.2-0.2,1.8c-1.7,4.4-3.7,8.7-7,12.2
		c-3,3.2-6.8,5-11,5.9c-1.7,0.4-3.3-0.4-5.4-0.6c0.9-1.9,0.3-3.5-0.8-5.1c-1.3,1.4-0.7,3.2-1.3,4.6c-6.7,0.4-12.1-0.9-16.3-4
		c-1.1-3.5-1.2-7.4-1.5-11.3c-0.4-4.8-0.2-9.7,0.3-14.5c0.8-7.9,0.3-15.8-0.8-23.6c-0.5-3.8-1.6-7.5-2.3-11.4
		c1.6-0.6,3.3-0.1,5.1-0.5c1.1,5.4,2.1,10.6,6.6,14.1c-1.8-4-3.7-8-4.2-13.3c3.8,2.6,7.3,3.9,10.6,5.8c3.2,1.8,6.1,2,9.6,0.6
		c3.4-1.3,6.6-2.8,9.7-5.5c-0.2,2.5,2.4,3.8,1.1,6.1c-0.4-0.4-0.8-0.6-1.3-0.4c-0.9,1.2-1.1,2.5-0.8,4.1c1.5-1,1.3-2.7,2-3.8
		c2.9-0.8,1.8-3.6,2.9-5.6c1.2-0.5,2.6-0.4,4.2-0.2c-0.7,7.6-0.4,15.1-0.2,22.5C781,433.9,780.5,434.7,779.9,435.6
		c-1-0.2-1.6,0.4-2.5,1.7C778.9,437,779.7,436.7,779.9,435.6z M775.6,438.8c-5.4,0.6-12.4,4-13.9,6.5c0.2,0.1,0.5,0.3,0.6,0.3
		C766.6,443.4,770.8,441.2,775.6,438.8z M746.6,438.3c3.2,2.7,6.4,5.4,9.5,8.1c0.2-0.2,0.4-0.5,0.6-0.7
		C754.3,442,750.6,439.9,746.6,438.3z M776.9,414.5c-1,1.7-1.3,2.7-0.8,4C777.2,417.4,777.4,416.4,776.9,414.5z M757.2,465.6
		c1.3-0.5,0.9-1.2,0.5-2.1C756.6,464.1,756.4,464.7,757.2,465.6z M741,433c0.6-1.1,0-1.2-0.8-1.1C740.1,432.6,740.5,432.8,741,433z"
		/>
	<path fill="none" d="M793.7,499c-0.2,0-0.5,0-1.3,0c1.5-1.9,3.6-2.9,4.7-4.7c1.1-1.8,2.4-3.6,3.7-5.6c2.3,4.5,6.2,7.3,8.6,11.5
		c2.2,4,3.8,8.3,6.3,11.8c-0.3,0.8-0.4,0.8-0.7,0.6c-7-4.9-14.1-4.2-21.3-0.4c-6.4,3.4-12.1,7.7-16.2,13.8c-0.9,1.4-2.6,1.7-3.4,3
		c-2.2,0.8-9.7,5.4-11,7.2c4.5-1.1,7.8-4.1,10.9-7.3c0.4,0.1,0.7,0.5,0.5,0.8c-2,3.6-4,7.2-6,10.8c-2,0.3-3.8,0.5-5.7,0.8
		c1.6,1.2,3.1,0.9,5.1,0.1c-0.8,2.5-2.4,4.4-1.2,7.1c-4.2-0.5-7.6-2.2-11.5-1.3c0.6-2.7,0.8-5.1-1-7.4c0,2.6,0,5.1,0,8
		c-3.6-0.3-6.7,0.3-9.1,2.7c-1.2-0.9-0.5-1.8-0.2-2.4c1.2-2.7,0.7-5.3-1-7.6c-5.6-7.9-11.1-15.9-17.8-23.1
		c-7.9-8.4-18.1-10.9-30.4-6.2c2.5-7.2,7.5-12.2,12.4-17.7c2.3,2.1,4.2,4.2,6.5,6c3.6,2.9,7.2,5.7,10.6,8.8c2.4,2.2,5,3.5,7.8,4.7
		c1.2,0.5,2.5,0.8,3.8,0.6c0.4-0.6-0.2-0.8-0.3-1.4c3.5,0.7,6.8,1.7,10.3,2.3c3.3,0.7,6.6,1.5,10.7,1.4c-3.2,1.9-6.2,0.9-9.1,1.5
		c0,0.3,0,0.6,0,0.9c-0.5,0.5-1.4-0.2-2.1,0.8c5.3,1.7,10.5,0.8,15.7-0.4c-1.1,0-2.1,0-3.2,0c-1.1,0-2.2-0.1-3.3-0.1l0.1,0.1
		c0.6-0.8,1.5-0.6,2.3-0.8c10.8-2,20.5-6.8,30-12.2c-2.9-0.1-5.3,1.8-8.1,2.3c1.8-2.4,4.9-2.5,7.1-4.2
		C789.3,502.3,791.5,500.6,793.7,499c3.4-0.4,6.4-2.1,9.3-4C799.4,495.3,796.6,497.3,793.7,499z M738.3,518
		c-0.4-0.6-0.8-1.1-1.6-1.1C737.1,517.7,737.7,517.9,738.3,518c0.4,0.8,1,1,2.1,1.2C739.7,518.4,739.1,518,738.3,518z M716.4,505.6
		c-1.1-1.4-2.8-1.3-4.3-1.7C713.4,504.9,714.7,505.8,716.4,505.6c2.5,1.8,5.4,2.6,8.3,3.4C722.2,507.4,719.6,505.9,716.4,505.6z
		 M785,513.5c-0.5-0.6-0.9,0-1.4,0.1c-1.4-0.1-2.5,0.7-3.7,1.2c-6.4,2.8-12.9,5.5-19.5,7.9c-2.8,1-5.5,2-8.7,3.2
		c1.7,0.4,2.8,0,4-0.2c8.3-1.9,15.9-5.6,23.6-9.3c1.2-0.6,2.2-1.5,3.7-1.4c-0.6,1.9-3,1.9-3.7,3.7c-0.7,0.1-1.3,0.1-1.3,1.1
		c0.5-0.4,1.3-0.4,1.2-1.2c0.2,0,0.5,0.1,0.7,0c5.8-3.3,11.1-7.3,15.7-12.2c0.3-0.3,0.6-0.8,0-1.4C792,507.8,789,511.4,785,513.5z
		 M750.9,537.8c-1.4-3.5-4.5-6.4-6.1-6.8C746.3,532.7,748.5,535.2,750.9,537.8z M750.4,545.3c-0.6-2-2.5-2.9-3.9-4.2
		C747.8,542.5,748.5,544.4,750.4,545.3z M795,502.6c1.8-0.4,3.3-1.2,4.8-2.5C796.6,500.6,796.6,500.6,795,502.6z M706.5,497.4
		c0.8,1,1.6,2.1,3.4,2.3C708.9,498.4,707.9,497.5,706.5,497.4z M754.1,533.2c0.2-1,0.7-2.1-0.1-3.3
		C753.5,531.2,753.6,532.2,754.1,533.2z M746.7,529.1c-0.5,0.9,0.1,1.1,0.7,1.4C747.8,529.7,747,529.5,746.7,529.1z"/>
	<path fill="none" d="M683.2,655.8c-0.1-0.9,0.4-1.2,1-1.8c5.2,0.7,10.5,1.4,16,2.2c0.2-2.3-1.4-2.7-2.7-3.1c-2.9-0.8-6-1.1-9-1.2
		c-0.6,0-1.5,0.3-2-1c3.5,0,3.6-3.6,5.5-5.1c0.9-0.4,1.3,0.2,1.9,0.6c1.8-1.1,3.8-1.6,6.3-1.7c0,4,1.4,7.2,5.2,9
		c0.6-1.1-1-1.7-0.5-2.9c1.6-0.6,2.8,0.9,4.3,0.9c2.2-0.1,2.2-2.3,3.2-3.8c0.9,2.5,1.1,4.8,0.3,7c-0.5,1.4-0.4,2.8-0.3,4.3
		c0.4,3.5,1.1,7,0.2,10.9c-1.7,2.4-5,3-7.5,4.3c-1,0-1-0.9-1.7-1.1c-0.3,0.1-0.6,0.2-0.9,0.4c-3.1,1.9-4.9,4.8-5.7,8.1
		c-1.1,4.6-4.1,6.8-8.2,7.6c-6.9,1.2-13.8,1.1-20.4-1.4c-0.6-0.2-1.1-0.4-1.9-0.7c1.2-1.6,3.1-1.7,4.3-2.7c3.9,1.1,4.1,1.2,6.3,4.2
		c0.9,0.4,1.9,0.4,2.8-0.2c-1.8-3.7-5-5.1-8.6-5.9c-2.3,0.6-4,2.1-6.1,3.2c-0.2-1.1-0.4-2-0.7-3.3c2-4.2,2.8-9.2,7.1-12.6
		c3.4-2.7,6-6.3,9.4-9.1c4.4,2,9,2.7,13.6,1.1c0.4-1.7-0.8-2-1.4-2.6c1.5-0.9,4,1.5,5.1-1.8C693.5,655.1,688.3,655.5,683.2,655.8z
		 M680.1,668c-1.1,0.7-2.8-0.2-3.6,1.6c3.3,0.5,6.6,2.6,9.3-1.1c1.4-0.3,3.3,0.4,4-1.6c-2.3-2.4-7.9-2.8-12.3-0.9
		C677.9,667.3,679.5,666.6,680.1,668z"/>
	<path fill="none" d="M830.2,664.5c1.1-0.1,1.4,0.8,1.8,1.5c2.3,3.8,5.3,7,8.8,9.6c2.7,2.1,3.9,4.9,4.6,8c0.6,2.8-0.4,5.2-3,6.4
		c-5.3,2.5-11,3.3-16.7,2c-2.6-0.6-4.9-2.1-7.4-2.9c-4.3-1.4-7.3-3.8-8.4-8.5c-0.5-2.4-1.2-5-3-6.5c-1.2-0.5-1.7,0.2-2.5,0.4
		c-1.9-1-3.8-2.1-5.4-3.6c0.7-5.7,1.4-11.4,2.6-17.2c1.4,0.6,2.7,1.2,4.4,2c2.7-3.4,3.4-7.8,5.7-11.5c2.1,0,4.1,0.7,5.9,0.1
		c0.9,0.8,1.6,1.4,2.4,2.1c-0.2,1.6-0.9,3.2,0.5,4.6c-3.8,1.1-8.3,0.1-10.9,5.1c5.1,0.1,9.4-0.9,13.9-1.5c-4.2,2.2-9.7,1.3-13.4,5.7
		c2.1,0.6,3.8-0.6,5.5,0c-0.2,1.1-2.1,1-1.9,2.5c4.8-0.1,9.6,0.2,14.4-1.5C828.6,662.5,830,663.1,830.2,664.5
		c-6.3-2-11.7-1.1-13.8,2.5c3.5,0,6.8,0,10.8,0c-2.4,1.5-5.4,0.4-6.7,3.1c6.5,0.8,10.6,0.2,11.1-1.6c0-1.2-1.2-1-1.7-1.7
		C830.4,666.2,830.3,665.4,830.2,664.5z M835.5,672.6c-4-1.6-10.2-0.7-12.4,1.6C829.2,675.4,833,675,835.5,672.6z"/>
	<path fill="none" d="M796,410.8c-1.4-0.2-2.7,0.1-4.1-0.9c-2.3-1.5-5.1-2.1-8.2-2.3c-0.3-2.8-0.5-5.6-0.8-8.1c1.1-0.9,2-0.7,3-0.3
		c3,1.3,5.6,1,8.4-1.1c3.8-2.8,7-6.5,12-8.3c11.2,1.5,21.3,6.3,30,15c-2.3,0.8-4.1,1.4-5.9,2c-3.3-1.3-6.7-1.8-10.3-1.9
		c-1.9-0.1-3.9-0.3-5.8-0.4c-0.7,0-1.5-0.1-2.2-0.1c-2.3-0.1-4.3,1.8-6.2,1.5c-2.5-0.4-4.2,0.8-6.1,1.5c-1.7,0.6-3.2,1.7-4,3.5
		L796,410.8z"/>
	<path fill="none" d="M688.5,408.4c-1.5-1-3.1-1.3-5.2-1.2c6.1-7.3,13.8-10.9,22.6-12.5c1.3-0.2,2.8-0.2,3.9-0.7
		c2.9-1.3,5.5-0.4,7.9,1c1.6,0.9,3,2,4.5,3.1c2.6,2,5.3,2.8,8.5,1.8c0.7-0.2,1.4-0.3,2.2-0.5c1.8,0.8,3.8,1.3,5.8,1.7
		c1,1,1.4,2.3,1.6,3.8c-8.3,0.5-16.3,2.7-25.4,3.8C707.1,403.1,698,403.4,688.5,408.4z"/>
	<path fill="none" d="M709.5,492.9c0.4-1.1,1.2-1.8,2.1-2.4c5.1,3.8,7.9,9.5,12,14.1c-1.7-0.2-2.7-1.6-4-2.5
		c-2.3-1.7-3.5-4.5-6.6-5.5C711.6,496.1,710.6,494.2,709.5,492.9z"/>
	<path fill="none" d="M765.3,330.6c-0.6-1-1.3-0.7-2.2-0.3c-1.2,0.6-1.9,1.8-3,2.8c-1.1-0.1-2.3-0.2-3.5-0.4c2.4-4,7.8-5.3,13.6-1.4
		c-3.3,2.4-3.3,2.4-5.3,2.3c-0.7-0.4-0.1-1.1-0.4-1.6l-0.1,0.1c0.8,0.1,1.3-0.3,1.6-1C765.8,330.9,765.6,330.8,765.3,330.6
		L765.3,330.6z"/>
	<path fill="none" d="M754.3,347.2c-4.2-4.7-4.9-9.5-1.7-11.5C753.3,339.4,754.8,342.9,754.3,347.2z"/>
	<path fill="none" d="M761.6,338.6c2,0.2,1.2-2.1,2.4-2.8c0.9-0.3,1.8-0.1,2.5,0.5c-0.3,4-0.8,5.1-3.1,8.4c0-2,1.5-3.6,0.8-5.8
		c-1.5,2-1.2,4.6-3,6.8C761.4,343,762.3,340.8,761.6,338.6L761.6,338.6z"/>
	<path fill="none" d="M783.4,387.5c-2.1-0.9-1-2.7-0.2-3c2.2-1.1,2.2-3.3,3.3-4.7c0.2-1.4-1.3-1.6-1.3-2.6c0.5-1,1.1-1.9,2-2.5
		C788.7,378.3,787.7,381.8,783.4,387.5z"/>
	<path fill="none" d="M780.2,395.1c-0.2,4.2,1.7,8.3,0.8,13.1c-1.8-2.4-0.6-4.6-0.8-6.6C780.1,399.4,780.2,397.2,780.2,395.1z"/>
	<path fill="none" d="M765.3,345.2c0.9-2.9,2.7-5.5,3-8.6c1.4,0.3,1.2,1,1.1,1.7c-0.4,2.3-2.4,3.9-2.7,6.2l0.1-0.1
		C766.1,344.3,766,345.4,765.3,345.2L765.3,345.2z"/>
	<path fill="none" d="M681.1,659.8c0.2-0.6,0.2-0.9,0.4-1.2c0.1-0.2,0.3-0.3,0.6-0.6c2.4,0.7,4.8,0.9,7.3,1.4
		C686.8,659.5,684.1,659.6,681.1,659.8z"/>
	<path fill="none" d="M732,378.2c2.3,1.3,0.8,3.4,1.4,5.5C731.3,381.4,731.3,381.4,732,378.2z"/>
	<path fill="none" d="M770.3,343.6c0.6-1.7,1.3-3.3,1.9-4.9c1.2,0.1,1.5,0.7,1.1,1.4c-0.7,1.4-1.5,2.7-2.7,3.7
		C770.5,343.7,770.4,343.6,770.3,343.6z"/>
	<path fill="none" d="M766.7,344.5c2-0.9,2.1-3.2,3.5-4.6c0.5,1.8-1.5,3-1.2,4.6l0.1-0.1c-1.1-0.1-1.2,1.5-2.3,1.5l0.1,0.1
		c0-0.5,0-1,0-1.6L766.7,344.5z"/>
	<path fill="none" d="M736.6,393.4c-1.3-2.1-1.3-3.8-2.1-5.8C736.5,390.1,736.5,390.1,736.6,393.4z"/>
	<path fill="none" d="M756.3,335c-0.2,1.6-0.4,2.6-1.3,3.2C754.4,336.1,754.4,336.1,756.3,335z"/>
	<path fill="none" d="M721.5,410.5c1-0.4,1.8-0.5,2.6-0.2c0.6,0.6,0.5,1.3,0.1,2C723,412.2,722.1,411.7,721.5,410.5z"/>
	<path fill="none" d="M771.2,333c0.5,0.5,0.7,1,0.5,1.9c-1.1,0-2-1.1-3.5-0.5C769.3,333.1,770.2,332.7,771.2,333z"/>
	<path fill="none" d="M764.6,332c-0.7,0.5-1.5,0.9-2.9,1.8c1.1-2.1,2.1-2.9,3.6-3.2l0,0c0.2,0.7-0.7,0.9-0.8,1.5L764.6,332z"/>
	<path fill="none" d="M826.5,658.9c-1.3,0.9-2.5,0.4-3.6,0.3C824,658.7,825,657.3,826.5,658.9z"/>
	<path fill="none" d="M736.2,367.1c-0.6-1.2-3.1-1.3-2.1-3.5c1.4,0.8,2.1,2,2,3.6L736.2,367.1z"/>
	<path fill="none" d="M780.7,358.3c-0.2-0.9,0.3-1.6,0.8-2.2C781.9,357.4,781.9,357.4,780.7,358.3L780.7,358.3z"/>
	<path fill="none" d="M786.9,372.1c0,0.3,0.1,0.5,0.1,0.5c-0.5,0.5-1,1-1.5,1.5c-0.2,0.2-0.6-0.1-0.5-0.2c0.4-0.6,0.9-1.1,1.4-1.6
		C786.3,372.2,786.5,372.2,786.9,372.1z"/>
	<path fill="none" d="M711.7,646.1c-0.8-0.6-1.2-1.2-0.9-2C711.7,644.3,711.8,645,711.7,646.1z"/>
	<path fill="none" d="M755.9,518.7c-0.8,0.7-1.7,0.5-2.7,0.3C754.1,518.9,755,518.9,755.9,518.7L755.9,518.7z"/>
	<path fill="none" d="M756.5,339.2c0.8,0.8,0.8,1.3,0.5,1.8c-0.6,0.2-0.8-0.1-0.9-0.6C756.1,340.1,756.3,339.8,756.5,339.2z"/>
	<path fill="none" d="M781.5,364.3c0-1-0.1-2.1,1.2-2.8C783,362.8,782,363.4,781.5,364.3L781.5,364.3z"/>
	<path fill="none" d="M739.7,344.5c-0.7-0.5-0.9-1.2-0.7-2c1,0.4,0.9,1.2,1,1.8L739.7,344.5z"/>
	<path d="M512.4,185.5c0.3,0.9-0.2,1.6-0.8,2.3c-1.3,1.5-2.7,3.1-4.1,4.6c-0.9-1.4,0.8-2.1,0.4-3.5c-10.9,3.1-21.1,7.5-29.5,15.3
		c-0.8-0.5-0.5-1.2-0.1-1.8c0.7-1.3,1.7-2.4,2.9-3.3c6.8-5,13.8-9.5,22.2-11.2c1.1-0.2,2.2-0.3,3.2-0.5c0.8-0.1,1.7-0.2,2.3,0.3
		c1.6-0.5,1.9-2.1,3.3-2.5L512.4,185.5z"/>
	<path d="M498.7,211.9c0.3,3.1-2.1,8.3-5.2,11.8C494.1,219.3,495.9,215.4,498.7,211.9z"/>
	<path d="M516.2,205.9c-5.3,3.6-8.7,5-11.8,4.4C508.4,207.8,512.3,206.7,516.2,205.9z"/>
	<path d="M431,188.8c0.3,0.2,0.7,0.4,0.8,0.6c1.2,4.2,2.4,8.5,3.7,12.7C432.7,198.3,432,193.6,431,188.8z"/>
	<path d="M458.7,193.4c0.2,3.3-1.7,6-2.9,8.9C456,199.1,457.5,196.3,458.7,193.4z"/>
	<path d="M491.4,147.2c2.2-1.4,4.4-0.8,7.2,0.1C495.7,147.4,493.5,148.5,491.4,147.2z"/>
	<path d="M453.8,192.3c-0.6-2.3-0.2-3.9,0.2-6C455.2,189.4,455.2,189.4,453.8,192.3z"/>
	<path d="M480.2,205.9c1.5-1.9,3.9-1.4,6.2-2.5c-2.1,2.5-2.8,2.7-6.3,2.4L480.2,205.9z"/>
	<path d="M505.9,147c-1.8,1.3-3,1.7-4.7,0.8C503,146.8,503,146.8,505.9,147z"/>
	<path d="M443.9,216.4c1.4-1.5,2.5-1.3,3.9-0.7C446.7,217.1,445.5,217,443.9,216.4z"/>
	<path d="M524.2,203.4c0.3-1.3,1-1.6,2.2-1.8C526.1,202.7,525.5,203.2,524.2,203.4z"/>
	<path d="M492.3,228.8c0.4,1.4-0.8,1.7-0.7,2.6C491.1,230.4,491.2,229.6,492.3,228.8z"/>
	<path d="M476.1,140.5c0.5,1.2-0.1,1.7-0.8,2.3C474.9,141.7,474.9,140.9,476.1,140.5z"/>
	<path d="M487.7,202.5c0.2-1,0.8-1.3,2-1C489.1,202.2,488.8,202.8,487.7,202.5z"/>
	<path d="M551.7,154.3c-0.2,0.7-0.4,1.4-1.4,1.3C550.1,154.4,551.3,154.7,551.7,154.3z"/>
	<path d="M546.5,158.4c0.8-0.4,1.1-1.6,2.3-1.3C548.4,158.4,547.4,158.4,546.5,158.4L546.5,158.4z"/>
	<path d="M507.7,146.8c1.4-1,2.1-1,2.7-0.3C509.8,147.4,509.1,146.9,507.7,146.8z"/>
	<path d="M439,209.1c0.9-0.1,1.2,0.4,1.1,1.3c-0.5,0.5-0.8,0-1.1-0.3C438.7,209.8,438.7,209.4,439,209.1z"/>
	<path d="M407.3,412.6c-1.8-0.4-2.9,0.1-4.1,0.1c-2.6-0.1-4.3-1.9-4.1-4.4c0.1-2.3,2-3.9,4.4-3.8c2.6,0.1,4.2,2,4,4.5
		C407.4,410.1,406.7,411,407.3,412.6z M405.8,409.5c-0.7-3.9-1.8-4.3-4.7-2.3c-0.2,2.8-0.2,2.8,2.2,3.9c0.9-0.5-0.6-1.7,0.7-2.1
		C404.4,409.2,405,409.3,405.8,409.5z"/>
	<path d="M383.1,403.2c2-0.3,3.7,0.1,5.3,0.6c1.7,2,0.6,3.4-0.6,4.8c-0.1,1,1,1.6,0.6,2.5c-0.4,0.3-0.7,0.1-1,0
		c-1.1-0.5-1-2.3-2.5-2.4c-1.3,0.2-0.5,1.8-1.6,2.2c-0.2-0.1-0.6-0.1-0.6-0.2C382.2,408.1,382.3,405.6,383.1,403.2z M387.6,405.6
		c-0.8-1-1.9-1.2-3.1-0.8c-0.4,1-0.4,1.8,0.7,2.1C386.2,407.2,387.3,407.2,387.6,405.6z"/>
	<path d="M398.6,407.9c-1.5,3.5-2.9,4.5-5.4,3.9c-2.1-0.5-3.4-2-3.4-4c0-1.9,1.5-3.6,3.5-4C395.7,403.4,397.3,404.6,398.6,407.9z
		 M393.7,410.5c1.9-0.1,2.9-1.1,2.9-2.8c0-1.6-1.1-2.3-2.5-2.6C390.7,406.9,390.5,408.1,393.7,410.5z"/>
	<path d="M442.4,404.3c0.1-0.7,0.2-1.4,1.1-1.6c6.4-1.2,12.8-2.4,19.2-3.4c-6.6,2.5-13.5,4-20.5,4.9L442.4,404.3z"/>
	<path d="M416.1,396.5c3.8,0.2,7.4,1,10.6,3C423,399,419.5,397.8,416.1,396.5z"/>
	<path d="M493.4,363.1c-2.6,0-5.2,0-7.8,0c0-0.1,0-0.1,0-0.2c2.6,0,5.2,0,7.8,0C493.4,363,493.4,363,493.4,363.1z"/>
	<path d="M473.7,368c2.1-1.2,3.8-0.9,5.5-0.7C477.6,368.1,476,368.5,473.7,368z"/>
	<path d="M450.2,396.9c-1.5,0.7-2.9,1.4-4.4,2.1l0.1,0.1c-0.2-0.7-0.9-0.7-1.4-0.9C446.3,397,448.3,396.9,450.2,396.9L450.2,396.9z"
		/>
	<path d="M450.3,397c0.6-0.7,1.4-0.5,2.1-0.2C451.7,396.8,451,396.8,450.3,397L450.3,397z"/>
	<path d="M445.8,399c0.2,0.9-0.1,1.6-1.3,2.1C444.7,400.1,445.3,399.6,445.8,399L445.8,399z"/>
	<path d="M475.1,507c1.8,3,2.7,6.5,4.7,9.3c-0.9,3.1-0.4,5.6,2.1,7.6c0.7,0.6,1.3,1.4,1.2,2.5c-5.8-2.8-6.2-3.8-4.5-9.8
		c-1.8-2.6-4.1-5-4.7-8.3C473.7,507.9,473.9,507.4,475.1,507z"/>
	<path d="M495.6,516.2c-1-2-1.3-4.2-1.6-6.6C496.2,511.1,496.5,512.3,495.6,516.2z"/>
	<path d="M493.9,507.3c-0.9-2.1-0.5-4.2,0.1-6.2C494.9,503.2,494.7,505.3,493.9,507.3z"/>
	<path d="M483.1,530.1c2,1.5,2.4,3.6,2.9,5.8C484.3,534.2,483.4,532.3,483.1,530.1z"/>
	<path d="M461.5,455.2c0.7-1.7,1.5-3.4,2.5-5.8C464.1,452.3,463.8,454.3,461.5,455.2z"/>
	<path d="M494.3,527.4c-0.8-2.7,0.4-4.5,1.2-6.3C495.8,523.2,495.6,525.2,494.3,527.4z"/>
	<path d="M487.1,624.1c-0.9-1.4-0.3-2.8,0-4.1C487.9,621.5,487.5,622.8,487.1,624.1z"/>
	<path d="M488.8,546.2c1.4,1.3,1.7,2.2,1.2,3.4C488.8,548.9,488.9,547.9,488.8,546.2z"/>
	<path d="M487.8,617.2c-1.1-0.9-0.9-1.6-0.3-2.3C488.6,615.6,488,616.3,487.8,617.2z"/>
	<path d="M490.5,560.1c-0.6-0.6-0.1-1,0.2-1.5C491.4,559.2,491.1,559.7,490.5,560.1z"/>
	<path d="M379.7,497.8c0.6,0.4,0.8,0.5,0.8,0.6c-0.7,4.7,0.8,9.5-0.7,14.2c-0.5,1.7-0.9,3.5-1.1,5.3c-0.3,1.8,0.1,3.5,0.5,5.6
		c-4.9-3.9-3.3-8.7,0.3-14.4C378.1,505.5,377.5,501.7,379.7,497.8z"/>
	<path d="M390.5,521.6c0.9-3.3,1.7-6.7,2.1-10.3c2,0.6,2,1.9,1.7,3C393.7,517,393.7,520.2,390.5,521.6L390.5,521.6z"/>
	<path d="M390.4,521.5c0.2,2.2-1.6,4.1-0.5,6.1c-1.7,2.6-3.2,4.9-4.7,7.2c0.1-2.9,1.9-5.1,3.2-7.6
		C388.2,525.1,388.4,523,390.4,521.5L390.4,521.5z"/>
	<path d="M415,461.3c0.4-1.7,0.2-3.6,1.2-5.2C416.6,458.8,416.6,458.8,415,461.3z"/>
	<path d="M376.7,626.4c-0.9-1.7-0.9-2.8-0.1-4.3C377.4,623.5,377.4,624.6,376.7,626.4z"/>
	<path d="M382.5,542.5c-0.3,1.9-0.8,2.8-1.6,3.6C380.9,544.5,380.9,544.5,382.5,542.5z"/>
	<path d="M393.7,229.8c-2.7-5.7-4.1-11.9-7.5-17.1c0.9-1,1.5-0.5,2,0.1c0.6,0.9,1.2,1.8,1.7,2.8c2,4,3.1,8.4,4.3,12.7
		C394.2,228.8,394.2,229.2,393.7,229.8z"/>
	<path d="M366,203.4c5.4,0.9,11.2,3.8,12.7,6.1c-0.4,0.5-0.9,0.2-1.3,0C373.4,208,369.7,205.7,366,203.4z"/>
	<path d="M389,148.7c2.4-0.5,4.7-0.3,6.8,1.1C393.4,150.4,391.2,149.8,389,148.7z"/>
	<path d="M395.1,232.9c1.4,2,1.5,2.9,1.5,6.1C395,237.1,394.8,235,395.1,232.9z"/>
	<path d="M399.6,157.4c-1-1.8-1.1-2.9-0.2-4.4C400.4,154.6,399.8,155.8,399.6,157.4z"/>
	<path d="M360.1,199.4c1.1,0.3,2,0.9,2.9,2.2c-1.7,0.1-2.4-0.9-3.2-1.7c-0.1-0.1-0.1-0.2-0.1-0.3
		C359.8,199.5,359.9,199.5,360.1,199.4z"/>
	<path d="M396.9,145.5c1.2,0.6,0.6,1.6,0.9,2.6C396.9,147.2,396.7,146.4,396.9,145.5z"/>
	<path d="M380.3,197.6c-1-0.8-1.6-1.4-1.6-2.9C380.1,195.4,380.4,196.2,380.3,197.6z"/>
	<path d="M411.2,149.5c0.6-0.7,1-0.8,1.5-0.7C412.4,149.5,412.4,149.5,411.2,149.5z"/>
	<path d="M443.7,321.7c1,3.1,0.8,3.5-2,5.9c-1.6-0.4-1.6-0.4-3.1-1.6C440.1,324.2,443,324.4,443.7,321.7z"/>
	<path d="M405.6,325.4c-0.5-1.3-1.7-2.5-0.4-4.5C406.3,322.5,405.9,324,405.6,325.4z"/>
	<path d="M473.6,335.3c0.6-1.9,0.4-3.3,2.2-4.4C475.5,332.6,475.5,333.9,473.6,335.3z"/>
	<path d="M471.2,336.8c-0.4,2.2-0.8,3.6-2.4,4.8C468.7,339.6,469.5,338.4,471.2,336.8z"/>
	<path d="M442.1,299.8c-1-0.7-1-1.5-0.7-2.7C442.5,298,442.4,298.8,442.1,299.8z"/>
	<path d="M441.2,310.4c0.6,1.5,0.8,2.7,0,4C440.4,313.1,440.5,311.9,441.2,310.4z"/>
	<path d="M410.6,336.5c0.6,0.2,1.1,0.4,0.6,1.2C410.5,337.6,410.1,337.3,410.6,336.5z"/>
	<path d="M440.8,265.4c0-1,0.2-1.6,1.3-2.1c2,2.8,4.4,5.4,8.4,7.3C446.6,270.5,443.5,268.7,440.8,265.4z"/>
	<path d="M430,268.7c1.1-0.7,2.2-1.5,3.3-2.2C433.5,269.1,432.1,269.4,430,268.7z"/>
	<path d="M482.1,263.8c-0.2,1.7-1.3,2.7-2.9,3.1C479.8,265.5,480.7,264.4,482.1,263.8z"/>
	<path d="M426.2,269.6c-1.4,1-2.3,0.5-4,0.7C423.7,269,424.7,269.1,426.2,269.6z"/>
	<path d="M465.4,274.2c0.5-1.2,1-1.4,1.9-1.1C467.2,274.1,466.4,273.9,465.4,274.2z"/>
	<path d="M484.6,259.1c0.2,0.9-0.3,1.5-1.2,2.2C483.3,260.1,483.7,259.5,484.6,259.1L484.6,259.1z"/>
	<path d="M473.3,271.7c-0.2-0.7,0.3-1,0.7-1.4c0.6,0.3,0.4,0.7,0.1,1C473.9,271.6,473.7,271.9,473.3,271.7z"/>
	<path d="M427.8,147.4c-1,0.7-1.6,1.2-2.3,1.7c-0.9,0.1-1.5-0.1-1.8-0.9c0.8-1.2,2.6-1.2,3.5-2.5c-1.4-0.5-2.4,1.1-3.6,0.8
		c3.2-3.7,9.3-2.6,12,2.1c-0.7,1.3-1.4,0.3-2.2,0c-1,0-1.3,1.4-2.4,1.3C429.7,149.6,428.6,149,427.8,147.4z"/>
	<path d="M459.6,145.6c-1.8,0.5-3.3-1.4-5.2-0.8c1.4,1.6,3.8,1.3,5.2,3.1c-1.7,0.9-2.8-0.5-4.1-0.7c-2.3,1.9-2.2,2.7-5.8,0.5
		c-1,0.1-1.5,2.3-3,0.8c0-1.2,1.3-1.3,1.8-2.1c0.4-0.7,1-1.3,1.5-2C453.8,143,456.9,143.4,459.6,145.6z"/>
	<path d="M452.1,171.9c-0.1,0.7-0.6,1.1-1.2,1.1c-5.7,0-11.4,0.4-17.8,0C439.8,168.8,446,171.2,452.1,171.9z"/>
	<path d="M443.7,141.9c3.5-3.5,12.8-4,17.1-1.3C455.2,139.2,449.8,140.8,443.7,141.9z"/>
	<path d="M435.2,175.8c5.1,1.2,9.8,1.7,14.8-0.8C446.3,179.6,440,179.9,435.2,175.8z"/>
	<path d="M423,140.7c4.3-2.8,10.3-2.2,13.8,1.5C432.2,140.9,427.8,139.3,423,140.7z"/>
	<path d="M448.1,164.1c-1.5,0.1-3,0.5-4.3-0.9c1.7-1,1.7-1,3.6-0.1c1.3-0.8-0.2-2,0.4-3C449.2,161.8,449.2,161.8,448.1,164.1z"/>
	<path d="M460.9,135.1c0.8,1.1,1.3,2,0.7,3.4C460.1,137.6,460.8,136.4,460.9,135.1z"/>
	<path d="M446.1,143c0,1.5-0.9,2.3-1.3,3.5C444.6,144.8,444.6,144.8,446.1,143z"/>
	<path d="M438.4,164.1c1.4-1.7,2.2-1.4,2.9-0.4C440.6,164.7,439.8,164.3,438.4,164.1z"/>
	<path d="M436.7,147.2c0.8,0.2,1,0.7,0.9,1.4c-0.6,0.4-0.8-0.1-1-0.4C436.4,147.8,436.4,147.5,436.7,147.2z"/>
	<path d="M432.5,150.8c-1.1,0.9-2,0.6-3.3,0.2C430.4,150.2,431.3,150,432.5,150.8z"/>
	<path d="M452.5,150.1c0.4-0.5,0.9-0.6,1.5-0.3C453.7,150.9,453,150.3,452.5,150.1z"/>
	<path d="M443.5,150.1c-0.3-0.6-0.3-0.9,0-1.3C444.2,149,444.4,149.4,443.5,150.1z"/>
	<path d="M423.6,123.1c-0.6-0.2-1-0.6-0.8-1.3C423.6,121.9,424.2,122.1,423.6,123.1z"/>
	<path d="M422.3,124.8c-0.5-0.6-1.1-0.8-0.8-1.9C422,123.5,422.5,123.7,422.3,124.8z"/>
	<path d="M436.9,163.1c0.8,0.1,1.3,0.4,0.8,1.3C436.9,164.3,436.5,164,436.9,163.1z"/>
	<path d="M443,161.1c0.1-0.5,0.3-0.9,0.9-0.7C443.8,161.1,443.8,161.1,443,161.1z"/>
	<path d="M437.7,159.8c0.3,1.3-0.3,1.7-1,2.2C436.3,160.9,436.9,160.4,437.7,159.8z"/>
	<path d="M349.9,660.6c2.2-3.5,5.1-2.9,7.8-2.7c2.2,0.2,4.9-0.3,6.3,2.9C359.3,662.7,354.9,661.5,349.9,660.6z"/>
	<path d="M351.8,662.7c2.2-0.2,4.4-0.6,6.5,1.1c0.1,1.8-0.9,2.4-2.4,1.8c-1.5-0.5-2.9-1.4-4.4-2.2
		C351.7,663.2,351.7,663,351.8,662.7z"/>
	<path d="M375.2,668.2c-0.5,0-0.9-0.3-0.8-0.9c0.2-1.4,1.1-2.4,2.2-3.3C376.6,665.6,375.9,667,375.2,668.2L375.2,668.2z"/>
	<path d="M838.2,550.7c0.5,2.8-0.5,5.1-1.9,7.7c-0.5-2.7-0.3-5.2-0.1-7.6c-1.9-3-4.2-5.7-5-9.2c2.4,1.7,3.5,4.1,4.9,6.5
		c0.6,1,0.6,2.4,2.1,2.7V550.7z"/>
	<path d="M805.9,558.1c2.4,1.5,3.5,4.1,5.5,5.6c0.7,0.5,0.8,1.5,0.5,2.3C806.6,562.5,806,561.7,805.9,558.1z"/>
	<path d="M809.1,609.6c0.5-3,2.4-4.9,4.5-6.7C812.9,605.7,812.2,608.4,809.1,609.6z"/>
	<path d="M821.2,563.4c-1.7-1.4-2.3-3.1-2.7-5.7C821.7,559.2,820.9,561.6,821.2,563.4z"/>
	<path d="M813.5,573.8c-1.7-1.3-2.1-2.8-0.5-4.6C813.9,570.9,813,572.4,813.5,573.8z"/>
	<path d="M827.4,591.5c0.6-1.7,1.2-3.4,1.8-5.1c1.1,2.3-1.1,3.5-0.9,5.5C828,591.8,827.7,591.6,827.4,591.5z"/>
	<path d="M807,635.5c0.5,1.2,0.3,2.3-0.5,3.6C805.5,637.6,806.3,636.5,807,635.5z"/>
	<path d="M834.8,565.3c0.1-1,0.5-1.7,1.2-2.4c0.2,0.2,0.4,0.4,0.4,0.5c-0.3,0.8-0.5,1.6-1.1,2.1c-0.1,0.1-0.2,0.2-0.3,0.1
		C834.9,565.5,834.9,565.4,834.8,565.3z"/>
	<path d="M794.2,559.5c-1-0.1-1.7-0.6-2.1-1.4c0-0.5,0.4-0.6,0.7-0.5C793.4,558,794.3,558.2,794.2,559.5z"/>
	<path d="M798.4,562.1c-1.4,0-1.9-0.6-2.4-1.5C797.2,560.2,797.7,560.9,798.4,562.1z"/>
	<path d="M831.8,583.8c0.1,1-0.3,1.4-1.1,1.5C830.4,584.2,831.3,584.2,831.8,583.8z"/>
	<path d="M826.2,598.7c-0.1-1,0.2-1.3,0.7-1.5C827.4,597.9,826.9,598.3,826.2,598.7z"/>
	<path d="M710.2,446.2c0.8,0.3,1.1,0.7,1.2,1.1c0.4,3.3,2.7,5.8,3.8,8.8c0.4,1.2,1,2.4-0.2,4.1C712.1,455.9,710.7,451.3,710.2,446.2
		z"/>
	<path d="M706.6,381.7c2.5-1.8,5.3-2.9,8.4-2.3C712.9,382.4,709.5,381.1,706.6,381.7z"/>
	<path d="M698,437.6c-2.8-0.2-5.4-0.3-8.3-1.5C693.1,434.3,695.7,434.9,698,437.6z"/>
	<path d="M649.5,420.8c-1.4,1.2-1.9,4.1-4.6,2.8c-0.4-1.1,0-1.7,0.6-2.1C646.7,420.9,647.9,419.9,649.5,420.8z"/>
	<path d="M639.8,404.8c0.3,3.3-1.9,3.7-3.7,5.5C636.1,407.2,637.4,406,639.8,404.8z"/>
	<path d="M731.1,384.6c-1.4,1.3-3,2.1-5.2,1.4c0.5-1.8,2-2.1,3-2.6C730.1,383.5,730.5,384.3,731.1,384.6L731.1,384.6z"/>
	<path d="M716.1,386.4c0.5,1.3,1.6,2.7-0.1,4.2C714.4,389.1,715.8,387.8,716.1,386.4z"/>
	<path d="M727.1,377c-0.4,1.5-0.8,2.9-3.2,3.3C724.4,378.4,725.7,377.7,727.1,377z"/>
	<path d="M700,383c-0.8,1.2-1.6,1.2-2.4,1C698.1,383.1,698.1,383.1,700,383z"/>
	<path d="M812.2,430.2c-1.2,4.2-2.9,8.2-4.9,12.4C807,439.1,809.5,432.6,812.2,430.2z"/>
	<path d="M814.9,435.2c3.2-1.6,5.8-0.7,8.7-0.1C821.3,436.1,817.9,436.2,814.9,435.2z"/>
	<path d="M801.4,377.5c2.7,0.1,4.9,1.2,7.7,2.3c-2.9,0.9-5,0-7.1-0.6C801.4,379,801,378.6,801.4,377.5z"/>
	<path d="M800.1,373.9c0.5,1.7-0.1,2.6-1,3.7C798.7,376.1,798.7,375,800.1,373.9z"/>
	<path d="M849.3,427.2c1.5-0.6,2.5-0.3,3.3,0.5c0,0.5-0.4,0.3-0.6,0.4c-0.5,0-1,0-1.4-0.1C850.3,427.9,850,427.6,849.3,427.2z"/>
	<path d="M818.7,417.9c-0.2,1.8-1.1,2.4-2.4,3.4C816.5,419.5,817.1,418.7,818.7,417.9z"/>
	<path d="M878.7,405.3c0.8,0.8,1,1.5,0.2,2.6C878.3,407,878.1,406.3,878.7,405.3z"/>
	<path d="M815.8,423.4c0.1,1.3-0.5,1.6-1.5,2C814.3,424.2,814.7,423.7,815.8,423.4z"/>
	<path d="M804.3,451.6c-0.4-1.4,0.1-1.8,0.8-2.2C805.9,450.5,804.9,450.8,804.3,451.6z"/>
	<path d="M821.4,414.4c0.1,0.8-0.5,1.3-1.3,2.4C820.5,415.4,820.6,414.8,821.4,414.4L821.4,414.4z"/>
	<path d="M811.8,380.6c-0.8,0.9-1.2,0.5-1.7,0.2C810.6,379.9,811.1,380.1,811.8,380.6z"/>
	<path d="M800,385.3c-0.5-0.6-0.7-1.1,0-1.5C801.2,384.4,800.2,384.9,800,385.3z"/>
	<path d="M755.2,497.3c-1.7,1.1-3.5,1.1-5.9,0.6C751.5,496.4,753.4,497.1,755.2,497.3z"/>
	<path d="M764.9,497.5c-2.2,0.5-3.2-0.6-4.8-1.2C762.4,496,762.4,496,764.9,497.5z"/>
	<path d="M733.7,418.3c-1.1,0.5-1.5-0.5-2.2-0.5C732.5,417.5,732.5,417.5,733.7,418.3z"/>
	<path d="M745.1,378.4c0.4-0.7,0.7-1,1.1-1.6c-1.1-0.4-2.1-0.9-2.4-1.9c-1.4-0.1-1.7,1.3-2.8,1.3c-0.6-0.1-1.1-0.4-1.5-0.9
		c0.6-1.4,2.6-1.1,3.2-2.5c-1.2-0.6-2.1,1-3.4,0.5c4.3-3.5,10.1-2.3,12.1,2.4c-0.9,1.5-1.6-0.5-2.5-0.1c-0.4,0.4-0.8,0.8-1.3,1.2
		c0.2,0.4,0.4,0.8,0.6,1.3C747.2,379,746.3,378.7,745.1,378.4z"/>
	<path d="M775.1,372.6c-1.7,0.3-3.2-0.9-5.3-0.6c1.8,1.4,4,1.3,5.4,3c-1.6,1-2.8-0.4-4-0.6c-2.6,2.1-3,2.1-5.6,0.5
		c-1.2-0.1-1.5,2.3-3.2,0.8c1.1-1.3,2.2-2.7,3.3-4c0.5-0.6,1.2-0.8,1.9-0.9C770.3,370.6,772.9,370.9,775.1,372.6z"/>
	<path d="M768.7,398.7c-1.6,1.6-2.8,1.9-4,1.7c-5-0.7-10.2,0.8-15.2-0.7c4.5-1.8,9.1-3.1,13.9-1.2
		C764.9,399.1,766.4,398.5,768.7,398.7z"/>
	<path d="M765.5,402.3c-1.7,3.2-4.2,3.4-6.7,3.6c-2.8,0.2-5.2-0.8-7.4-2.6C756.1,404.3,760.7,404.5,765.5,402.3z"/>
	<path d="M776.4,367.5c-5.5-1.3-10.9,0.8-16.8,1.4c1.2-2.2,2.9-2.3,4.3-2.4C768,366.1,772.3,365.4,776.4,367.5z"/>
	<path d="M737.9,367.9c5-2.8,11.4-2,15.2,2C748,367.7,743.4,367,737.9,367.9z"/>
	<path d="M763.2,390.3c1.2-1-0.5-2.1,0.9-2.9c1,1.3,1,2.5-0.1,4c-1.5,0.2-2.9,0.4-4.3-0.8C760.7,388.4,762,390.2,763.2,390.3z"/>
	<path d="M774.1,341.5c0.2,0.1,0.6,0.2,0.6,0.3c-0.5,1.8,0.9,3.8-0.7,5.4c-0.9-0.1-1.5-0.3-2-0.9c0.7-1.6,1.4-3.2,2.1-4.9
		L774.1,341.5z"/>
	<path d="M753.5,391.7c-1.6-2.4-1.6-2.4-0.1-4.9C753.7,388.6,752,390.1,753.5,391.7z"/>
	<path d="M760.2,373.7c-0.3-1.5,0.3-2.5,1.5-3.8C762,371.8,760.7,372.5,760.2,373.7z"/>
	<path d="M776.6,362.5c1,1.2,1.2,2.1,0.8,3.1C775.8,364.9,776.4,363.8,776.6,362.5z"/>
	<path d="M755.6,389.8c0.6,0.1,1.1,0.4,1.5,1c-0.6,0.9-1.4,1.1-2.2,0.3C754.5,390.4,755,390.1,755.6,389.8z"/>
	<path d="M769.9,376.7c-0.2,1.1-0.9,0.9-2,1.1C768.6,376.8,769,376.4,769.9,376.7z"/>
	<path d="M766.7,345.9c1.1,0,1.2-1.6,2.3-1.5c0,0.9-0.6,1.4-1.1,2C767.4,346.5,767,346.2,766.7,345.9z"/>
	<path d="M752.2,374.2c1,0.5,1.3,0.9,1.2,1.6c-0.5,0.5-0.8,0.1-1-0.3C752.2,375.3,752.3,374.9,752.2,374.2z"/>
	<path d="M738.6,348.6c0.6,0.2,0.9,0.7,1,1.5C738.6,349.9,738.1,349.7,738.6,348.6z"/>
	<path d="M766.8,344.4c0,0.5,0,1,0,1.6c-0.3,0.1-0.7,0.2-1.1,0.3c-0.2-0.4-0.3-0.7-0.5-1.1C766,345.4,766.1,344.3,766.8,344.4z"/>
	<path d="M758.8,388.8c-0.2-0.8-0.1-1.4,0.8-1.3C760.2,388.5,759.2,388.5,758.8,388.8z"/>
	<path d="M759.3,377.2c-0.4-0.5-0.5-0.8-0.2-1.2c0.5,0,0.1-0.4,0.4,0C760,376.7,759.6,376.8,759.3,377.2z"/>
	<path d="M775.6,438.8c-4.8,2.4-9,4.6-13.3,6.7c-0.1,0.1-0.4-0.2-0.6-0.3C763.2,442.7,770.2,439.4,775.6,438.8z"/>
	<path d="M746.6,438.3c4,1.7,7.7,3.7,10.1,7.3c-0.2,0.2-0.4,0.5-0.6,0.7C752.9,443.6,749.7,441,746.6,438.3z"/>
	<path d="M774.1,416c-0.8,1.2-0.5,2.8-2,3.8c-0.3-1.6-0.1-2.9,0.8-4.1C773.5,415.6,773.9,415.8,774.1,416L774.1,416z"/>
	<path d="M776.9,414.5c0.6,1.9,0.3,2.9-0.8,4C775.5,417.1,775.9,416.2,776.9,414.5z"/>
	<path d="M757.2,465.6c-0.8-0.9-0.5-1.5,0.5-2.1C758,464.4,758.4,465.1,757.2,465.6z"/>
	<path d="M779.9,435.6c-0.2,1.1-1,1.4-2.5,1.7C778.3,436,778.8,435.3,779.9,435.6L779.9,435.6z"/>
	<path d="M741,433c-0.5-0.3-0.9-0.5-0.8-1.1C741,431.8,741.6,431.9,741,433z"/>
	<path d="M782.9,515c-1.4-0.2-2.5,0.8-3.7,1.4c-7.6,3.7-15.2,7.4-23.6,9.3c-1.2,0.3-2.3,0.6-4,0.2c3.2-1.1,5.9-2.2,8.7-3.2
		c6.6-2.4,13.1-5,19.5-7.9c1.2-0.5,2.3-1.3,3.7-1.2c0,0.6-1,0.8-0.8,1.5L782.9,515z"/>
	<path d="M779.2,518.8c0.6-1.8,3.1-1.9,3.7-3.7l-0.1,0.1c1.2,0.1,1.7-0.7,2.2-1.6c4-2.2,7-5.7,10.6-8.4c0.6,0.6,0.3,1.1,0,1.4
		c-4.6,4.9-9.9,8.9-15.7,12.2C779.7,518.8,779.4,518.7,779.2,518.8L779.2,518.8z"/>
	<path d="M774.1,528.9c-3.1,3.2-6.4,6.3-10.9,7.3C764.5,534.5,771.9,529.8,774.1,528.9L774.1,528.9z"/>
	<path d="M750.9,537.8c-2.4-2.7-4.6-5.1-6.1-6.8C746.4,531.4,749.5,534.3,750.9,537.8z"/>
	<path d="M793.7,499c2.9-1.8,5.7-3.7,9.3-4C800.1,496.9,797.1,498.6,793.7,499L793.7,499z"/>
	<path d="M716.4,505.6c3.1,0.3,5.8,1.8,8.3,3.4C721.9,508.3,719,507.4,716.4,505.6L716.4,505.6z"/>
	<path d="M750.4,545.3c-1.9-0.8-2.6-2.8-3.9-4.2C747.9,542.4,749.8,543.2,750.4,545.3z"/>
	<path d="M795,502.6c1.6-2,1.6-2,4.8-2.5C798.3,501.3,796.8,502.2,795,502.6z"/>
	<path d="M716.5,505.6c-1.8,0.2-3.1-0.7-4.4-1.6C713.6,504.3,715.3,504.3,716.5,505.6L716.5,505.6z"/>
	<path d="M706.5,497.4c1.5,0.1,2.4,1,3.4,2.3C708.1,499.5,707.3,498.4,706.5,497.4z"/>
	<path d="M754.1,533.2c-0.5-1-0.6-2-0.1-3.3C754.8,531.1,754.4,532.2,754.1,533.2z"/>
	<path fill="none" d="M785,513.5c-0.5,0.9-1,1.7-2.2,1.6c-0.2-0.8,0.8-0.9,0.8-1.5C784.1,513.5,784.5,513,785,513.5z"/>
	<path d="M746.7,529.1c0.3,0.4,1,0.6,0.7,1.4C746.8,530.2,746.2,530,746.7,529.1z"/>
	<path d="M779.1,518.7c0,0.8-0.8,0.8-1.2,1.2C777.9,518.9,778.6,518.8,779.1,518.7L779.1,518.7z"/>
	<path d="M738.3,518c0.8,0,1.4,0.4,2.1,1.2C739.4,519.1,738.7,518.9,738.3,518L738.3,518z"/>
	<path d="M738.4,518c-0.7,0-1.4-0.2-1.7-1C737.5,517,738,517.4,738.4,518L738.4,518z"/>
	<path d="M680.1,668c-0.6-1.4-2.2-0.7-2.7-1.9c4.4-1.9,10-1.5,12.3,0.9c-0.7,2-2.6,1.3-4,1.6c-2.7,3.7-6,1.5-9.3,1.1
		C677.3,667.8,679,668.7,680.1,668z"/>
	<path d="M830.2,664.5c0.1,0.8,0.3,1.7-0.2,2.5c0.5,0.6,1.7,0.5,1.7,1.7c-0.5,1.8-4.6,2.4-11.1,1.6c1.3-2.7,4.3-1.6,6.7-3.1
		c-4,0-7.4,0-10.8,0c2.1-3.6,7.5-4.6,13.8-2.5L830.2,664.5z"/>
	<path d="M835.5,672.6c-2.5,2.3-6.3,2.8-12.4,1.6C825.3,671.9,831.5,671,835.5,672.6z"/>
	<path d="M764.5,332.1c0.1-0.6,1-0.8,0.8-1.5c0.3,0.2,0.5,0.4,0.8,0.5C765.8,331.8,765.3,332.2,764.5,332.1z"/>
	<path fill="none" d="M405.8,409.5c-0.8-0.2-1.4-0.3-1.8-0.5c-1.4,0.4,0.2,1.6-0.7,2.1c-2.4-1.1-2.4-1.1-2.2-3.9
		C404,405.2,405,405.7,405.8,409.5z"/>
	<path fill="none" d="M387.6,405.6c-0.3,1.6-1.4,1.6-2.4,1.3c-1-0.3-1-1.1-0.7-2.1C385.7,404.4,386.7,404.6,387.6,405.6z"/>
	<path fill="none" d="M393.7,410.5c-3.2-2.5-3.1-3.6,0.4-5.3c1.4,0.3,2.5,1,2.5,2.6C396.6,409.5,395.6,410.4,393.7,410.5z"/>
</g>
</svg>
