<?xml version="1.0" encoding="utf-8"?>
<!-- Generator: Adobe Illustrator 19.2.0, SVG Export Plug-In . SVG Version: 6.00 Build 0)  -->
<svg version="1.1" id="Layer_2" xmlns="http://www.w3.org/2000/svg" xmlns:xlink="http://www.w3.org/1999/xlink" x="0px" y="0px"
	 viewBox="0 0 900 600" style="enable-background:new 0 0 900 600;" xml:space="preserve">
<g>
	<path d="M524.6,118.2c-2.2,0-4.4-0.1-6.6-0.1c-1.3,0-2.6,0-3.9,0.4c0.7,1.2,2,0.2,2.6,1c-1.7,1.3-1.7,1.2-6,1.8
		c-2.1,0.3-4.1,0.7-6.2-0.2c-1.1,2.5-2.8,4.3-4.7,6.2c0.8,2.4,1.3,4.8,2.4,6.9c1.8,3.6,2.7,7.3,3.3,11.2c0.3,1.9,0.7,3.6,2.4,4.8
		c0.4,0.3,0.7,0.7,0.9,1.2c1.1,2.8,2.8,5.4,3.7,8.4c1,3.5,2.3,7,3.7,10.4c0.9,2.3,1.3,4.7,1.8,7.1c0.3,1.7,0.5,3.4,1,5
		c1.6,5.8,3.3,11.5,5.1,17.2c0.5,1.6,1.7,3,2.7,4.3c4,5.2,8.6,9.7,13.5,14c1.4,1.2,2.8,2.4,4,3.4c5.5,0.5,9.3-2.3,12.9-5.5
		c0.2-5.5,0-10.7-1-15.9c-0.6-2.7-1.4-5.4-2-8.2c-0.2-1.1-0.1-2.2-0.3-3.2c-0.7-3.1-1.5-6.2-2.2-9.1c-1.8-1.2-3.4-2.2-5.1-3.3
		c-1,2.3-2,4.6-3.2,7.1c0.6,0.6,1.2,1.5,2.1,2.1c4.6,3.9,6.3,9.1,6.4,15c0,2.1,0.3,4.1,0.4,6.2c-1-0.4-0.9-1.4-0.9-2.2
		c0-2-0.6-3.8-1.5-5.6c-0.6-1.2-1-2.5-1.5-3.8c-1-3.1-2.9-5.6-5.2-7.9c-2.9-2.8-5.8-5.6-8.6-8.6c-2.4-2.6-4.1-5.7-5.3-9.1
		c-1.2-3.6-2.5-7.1-3.8-10.7c-0.4-1.3-0.8-2.6-1.1-3.9c-0.1-0.3,0.2-0.6,0.2-1c0.9-0.2,1.1,0.5,1.3,1c0.9,2.4,1.7,4.8,2.6,7.2
		c1.1,3,2.7,5.8,4,8.6c1.9,4.1,4.9,7.6,7.9,11c0.2,0.3,0.6,0.4,1.1,0.7c0.3-0.5,0.8-0.9,0.9-1.4c0.5-2.4,0.9-4.8,1.3-7.3
		c-1-1.5-2.6-2.5-3.9-3.7c-1.8-1.7-3.4-3.5-4.5-5.7c-1-2.1-2-4.2-0.9-6.6c0.2-0.5,0.1-1.2,0-1.8c-0.7-2.4-0.8-4.8-0.2-7.2
		c0.2-0.7-0.2-1.6-0.3-2.7c1.7-6,5.9-10.8,9.8-15.8c0.4-0.5,0.8-0.9,1.2-1.4c3.7-4.3,3.7-4.3,4.5-10.1c0.3-1.8,0.6-3.6,1-5.4
		c0.5-2.5,2-4.5,4.1-5.8c3.1-1.9,6.3-3.8,9.5-5.5c6.9-3.6,6.4-3.3,7.8-10.7c0.5-2.8,0.8-5.6,1.2-8.4c0.2-1.9,0.4-3.9-0.3-6
		c-2.1,0.3-4.1,0.5-6.1,1c-3.4,0.8-6.6-0.3-9.6-1.4c-2.3-0.8-3.3-3.4-2.7-5.8c0.2-0.8,0.5-1.6,0.9-2.6c-1.3-1.5-1.8-3.3-0.3-5.2
		c-0.5-0.9-1.2-1.7-1.3-2.6c-0.1-0.9,0.3-1.9,0.4-2.9c0.1-0.7,0.1-1.4,0.1-2.1c-0.9-0.6-1.7-1.1-2.4-1.8c-1.5-1.4-1.7-3.6-0.4-5.2
		c2.1-2.5,3.4-5.3,4.2-8.5c-0.6-0.5-1.1-1-1.7-1.4c0.1-0.9,1.1-0.3,1.4-1.3c0,0.2,0.1,0,0-0.2c-3.1-4.1-2.7-8.4-0.6-12.7
		c1.7-3.5,3.1-7.2,4.7-10.7c2-4.6,6.9-8.4,11.9-9.4c1.2-0.2,2.4-0.6,3.5-1c5.5-2,11.2-2.7,17-2.7c3.3,0,6.5,0.7,9.8,1.3
		c2.4,0.4,4.5,1.5,6.3,3.5c1.7,1.8,4,3.2,6.1,4.8c0.4-0.3,0.8-0.5,1.2-0.8c5.9-4.2,14.4-2.6,18.9,3.5c2.9,3.9,4.7,8.3,5.6,13.1
		c0.4,2,0,4.1,0.3,6.2c0.3,2-0.3,4.2,1.4,5.9c0,2.8,1.6,5.1,2.7,7.5c2.2,5.1,2.8,10.3,1.1,15.7c-0.5,1.7-1.2,3.2-2.3,4.5
		c-2.4,2.8-5,5.3-8.4,7c-1.3,0.6-2.6,1.4-3.9,2c-1.2,0.6-2.4,1.2-3.7,1.5c-1.4,0.3-2.5,0.8-3.6,1.6c-1.1,0.8-2.2,1.5-3.7,1.2l0,0.1
		c1.1-0.9,2.4-1.5,2.9-2.9l0.2-0.1l-0.1,0.1c-0.5,0-1,0-1.4-0.1l0.1,0.1c0.4-0.4,0.7-0.9,1.1-1.3c2.3-2,4.6-4,6.9-6
		c0.9-0.8,1.7-1.8,2.4-2.8c1-1.3,0.9-1.7-0.4-3.5c0.8-1.1,1.8,0.3,2.9-0.2c2.7-3.9,5.3-8,5.9-13c0.1-1.2,0.2-2.5-0.1-3.6
		c-0.6-2.3-0.8-4.7-0.9-7.1c-0.1-2.3-0.3-4.6-1.9-6.6c-0.4-0.6-0.6-1.3-0.9-2c-2.5-5.6-6.6-9.3-12.5-11c-1.4-0.4-2.7-1-4.2-0.9
		c-0.5,2.8-0.4,3.2,1.8,4.4c0.5,0.3,1.1,0.5,1.6,0.9c0.3,0.3,0.4,0.8,0.5,1.3l0.1-0.1c-0.4-0.1-0.9-0.3-1.3-0.4
		c-0.5-0.1-1.1-0.2-1.7-0.3c-0.1,0-0.2-0.1-0.2-0.1c0.1,0,0.2,0,0.3,0.1c0.1,1.1,0,2.2,0.3,3.2c0.7,2.3,0.8,4.6,0.6,6.9
		c-0.2,2.4-0.1,4.8,0.5,7.3c1.2,5.2,2,10.6,1.3,16.1c2.6-1.3,5.6-6.2,6.2-9.8c0.7-4.1-0.3-7.8-2.3-11.1c0.7-1,1.2-0.6,1.6-0.1
		c1.7,2.3,2.6,5,2.7,7.9c0.2,3.2-0.5,6.3-1.6,9.3c-0.4,1.1-0.9,2.3-1.3,3.4c-0.6,0.4-0.8,0.9-0.6,1.6c-0.5-0.1-0.8,0.2-0.8,0.7
		c-0.1,0-0.2,0.1-0.3,0.1c0,0,0,0.1-0.1,0.2c0.1-0.1,0.2-0.3,0.2-0.4c0.3-0.2,0.6-0.4,0.9-0.7c0.6-0.4,0.8-0.9,0.6-1.6
		c0.3-0.1,0.7-0.2,0.9-0.4c1.4-1.9,2.3-4,2.8-6.3c0.2-0.7,0.4-1.4,0.7-2.1c0.1-0.2,0.3-0.3,0.6-0.6c0.2,0.3,0.5,0.6,0.5,0.8
		c-0.5,3.1-1.4,6.2-2.7,9.1c-1.9,4.1-4.9,7.3-8.7,9.7c-2.3,1.5-4.6,2.8-7.1,3.9c-1.9,0.9-3.9,1.3-6,2c0,0.6,0,1.3,0,2.1
		c1.8,0.8,3.5,0.7,5.3,0.1c4-1.4,7.5-3.5,10.4-6.6c0.8-0.9,1.7-1.8,2.5-2.6c0.8,0.5,0.3,1,0.1,1.3c-2.5,3.8-5.8,6.5-9.9,8.4
		c-2.5,1.2-5.1,1.4-8.1,0.7c-0.1,0.8-0.3,1.4-0.3,2.1c0.2,2.3,0.6,4.6,0.9,6.9c0.1,0.5,0.2,1,0.4,1.4c2.1,3.1,4.3,6,8.1,7
		c2.5,0.6,5,1.1,7.5,1.7c0.6,0.1,1.2,0.2,1.8,0.5c2.7,1.2,5.4,2.2,8.4,2.6c1.8,1.3,4,1.6,6.1,2.4c2,0.7,3.5,2.3,4.7,4
		c1,1.4,1.9,2.9,2.5,4.4c0.8,2,1.8,3.7,2.8,5.5c1.5,2.5,2.7,5.2,4,7.8c1.3,2.6,2.6,5.3,3.8,7.9c1.1,2.3,2.2,4.6,3.3,6.9
		c1.3,2.6,2.5,5.3,4.8,7.3c0.2,0.2,0.4,0.3,0.5,0.5c2.3,4,5.5,7.5,7.5,11.7c1.3,2.8,2.6,5.5,4.2,8.2c1.2,2.1,2.8,4,3.8,6.2
		c0.4,0.8,0.8,1.5,1.1,2.3c1.8,4.3,3.7,8.6,5.2,12.9c1.3,3.6,2.1,7.3,3.2,10.9c0.1,0.5,0.3,1,0.2,1.4c-0.1,1.6-0.2,3.1-0.5,4.7
		c-0.1,0.4-0.6,0.9-0.9,0.9c-0.4,0-1.1-0.6-1-0.8c0.7-2.1-0.6-3.7-1-5.6c-0.3-1.3-0.6-2.7-0.5-4c0.2-2.8-0.4-5.3-1.5-7.9
		c-1.1-2.7-2.1-5.5-3.4-8.1c-1.2-2.5-2.8-4.8-4.3-7.3c-0.9-1.6-1.8-3.2-2.7-4.8c-3-5.4-6-10.9-9.2-16.3c-1.6-2.7-3.2-5.4-5.6-7.6
		c-0.6-0.6-1-1.4-1.4-2.1c-3.9-7.6-7.8-15.3-11.1-23.1c-0.2-0.4-0.3-0.9-0.6-1.3c-0.8-1.3-0.2-2.9-1.4-4.1c-2.7-2.8-4.8-6.1-8.1-8.5
		c-2.3-1.7-4.9-2-7.5-2.7c-4.1-1.2-8.2-2.2-12.5-2.7c-1.1-0.1-2.1-0.6-3.1-0.9c-6.5,3.3-10.5,9.1-14.1,15c-2,3.2-3.7,6.6-5.6,9.9
		c-0.2,0.4-0.4,0.9-0.7,1.3c-2.3,3.8-1.5,7.4,0.7,11c0.6,0.9,1,2,1.3,3c1.4,4.4,4,7.8,7.8,10.4c2.9,2,5.9,3.9,8.9,5.9
		c0.8,0.5,1.6,1.1,2.7,0.7c0.4-0.1,0.9,0.2,1.4,0.4c2.1,0.9,4.2,1.1,6.5,1c2.2-0.1,4.4-0.2,6.6-0.3c0.7-0.1,1.4-0.4,2.1-0.6
		c0-0.3,0.2-0.6,0.1-0.7c-2.1-3.6-4.2-7.1-6.4-10.6c-0.7-1.2-2.1-1.7-3.4-2c-0.9-0.3-1.9-0.4-2.8-0.6c0.2-1.5,0.7-2.1,1.7-1.8
		c2.1,0.5,3.9,1.6,5.3,3.2c1.1,1.3,1.9,2.8,3.7,3.4c0.4,0.1,0.7,0.9,1,1.5c3.9,6.2,7.7,12.5,11.6,18.7c1,1.6,2.3,3.2,3.5,4.7
		c1.5,1.8,3.1,3.4,3.7,5.8c0.2,0.7,0.9,1.4,1.6,2c2.1,1.9,4.2,3.7,6.4,5.5c1.2,1,2.2,2.1,2.7,3.8c0.4,1.4,1.7,2.6,2.6,4
		c-0.4,2.8-1.8,5.1-3.7,7.3c-4.3,4.7-9.3,8.3-14.8,11.3c-1.9,1.1-3.9,2.1-5.7,3.4c-3.6,2.4-7.7,3.7-11.6,5.5
		c-2.6,1.2-5.4,2.1-7.9,3.8c-1,0.7-2.2,1-3.4,1.2c-5,1.1-5,1-9.8-1.1c-1.4-0.6-2.5-1.4-3.4-2.6c-0.3-0.5-0.7-1-1.1-1.5
		c-4.4-5-3-4.3-9.1-6.1c-3.6-1.1-7.1-2.6-9.5-5.8c-0.5-0.6-1.3-1-2.1-1.7c-0.4,2.8,0.1,5,2.2,6.5c1.6,1.1,3.3,2,5.4,3.3
		c0.5,0.6,1.3,1.7,2,2.7c0.1,0.2,0.3,0.4,0.5,0.6c1.4,2,1,3.8-1.1,4.9c-0.5,0.3-1.1,0.6-1.7,0.7c-3,0.5-5.9,1.6-9.1,1.2
		c-1,1.5-2.5,2.2-4.2,2.7c-1.1,0.3-2.1,0.6-3.1,1.1c-0.9,0.4-1.7,1-1.9,2.1c-0.2,1,0.2,1.9,1,2.5c1.8,0.7,3.6-0.7,5.7,0
		c-0.5,0.5-0.8,0.9-1.2,1.1c-0.8,0.4-1.6,0.6-2.4,0.9c-1.6,0.7-2.7,1.7-2.7,3.5c2,2.5,2.3,2.5,4.8,1.5c1.3-0.6,2.7-1,4.2-1.5
		c0-0.3,0.1-0.6,0.1-1l-0.1,0.1c0.3,0.5,0.5,1.1,0.9,1.8c-1,0.5-1.9,0.9-2.7,1.3c-1.7,0.9-2.4,3.2-1.4,4.7c0.5,0.9,1.5,1.3,2.5,1.3
		c0.5,0,1-0.2,1.4-0.3c0.9-0.1,1.7-0.1,2.6-0.1c0.5,0,0.9,0.1,1.8,0.2c-1.8,1.5-3.7,1.8-5.5,2.6c0.9,1.8,2.1,2.5,3.9,2.5
		c2.5,0,4.8-0.7,7.1-1.6c3.4-1.2,6.8-2,10.3-2.2c4.7-0.3,8.7-2,12.4-4.9c1.1-0.9,1.4-2.2,1.8-3.5c1.1-0.5,2.1-0.9,3.1-1.3
		c0.8-0.3,1.6-0.4,2.5-0.6c0.1,0.5,0.2,0.8,0.3,1.1c0.2,0,0.5,0.2,0.7,0.1c3.3-0.9,6.6-1.9,9.9-2.8c0.2-0.1,0.5-0.2,0.7-0.3
		c3.4-2.9,7.8-4,11.6-6c4.3-2.3,8.7-4.4,13.1-6.6c5.8-2.9,11.6-5.8,17.4-8.7c4.6-2.3,9.1-4.7,13.1-8c0.8-0.6,1.6-0.7,1.9-0.1
		c0.5,0.8-0.1,1.4-0.6,1.9c-1,0.9-2,1.8-3.1,2.5c-1.4,1-2.9,1.9-4.3,2.8c-7.1,4.3-14.6,7.9-22.1,11.5c-1.1,0.5-2.3,0.9-3.4,1.4
		c-1.2,0.5-2.5,1-3.7,1.6c-3.3,1.8-6.7,3.6-10.3,4.9c-0.7,0.2-1.4,0.6-1.9,1c-1.8,1.4-3.7,2.3-5.8,3.1c-0.3,0.1-0.6,0.4-1,0.7
		c0.5,0.7,0.9,1.5,1.4,2.1c1.7,2.3,3.4,4.5,5,6.8c4.2,6.1,7.1,12.8,9.2,19.9c0.7,2.3,1.7,4.6,2.6,6.8c1,2.8,1.4,5.7,1.6,8.6
		c0.3,4.4,0.2,8.8-0.4,13.2c-0.1,0.6-0.3,1.3-0.1,1.8c0.9,2.2,0,4.3-0.5,6.4c-0.5,2-0.7,4.1-1.1,6.1c-0.1,0.4-0.1,0.8,0,1.1
		c1.2,2.1,0.3,4.1-0.3,6c-0.8,2.8-1.7,5.6-2.5,8.4c-2.8,9-5.8,17.9-9.8,26.4c-0.2,0.3-0.2,0.7-0.4,1c0.5,0.6,0.9,0.2,1.3-0.1
		c3.2-2.6,6.4-5.3,9-8.6c1.8-2.3,3.9-4.4,6-6.5c0.8-0.8,1.7-1.4,2.5-2.1c-0.6-1.8-1.1-3.3-1.6-4.8c-0.8-2.3-0.5-4.5,0.7-6.7
		c1.8-3.2,3.3-6.5,4-10.2c0.4-2.2,0.9-4.3,1.6-6.4c1.5-4.9,4.8-8.2,9.5-10c1.1-0.4,2.4-0.6,3.6-0.5c2.7,0.3,5.7,0.4,7.7,2.8
		c0.2,0.3,0.6,0.4,0.9,0.6c4,2.5,6.9,5.8,8.5,10.2c1.1,0.8,2.2,1.5,3.3,2.3c1.3,1,2.8,1.4,4.5,1.1c3.6-0.8,6.7,0.5,9.8,2.3
		c0.4,0.2,1,0.5,1.1,0.9c0.8,2,2.6,2.9,4.1,4.1c2.1,1.6,3.5,3.7,5.1,5.7c0.6,0.7,0.6,1.5,0.4,2.4c-0.4,1.5-0.3,1.5,1.5,1.7
		c0.1,0,0.2,0.2,0.2,0.2c-0.7,1.9-1.3,3.9-2,5.9c-2,0.1-2.4,2.6-4.3,3.6c-1.1-0.2-2.4-0.4-3.7-0.5c-1.3-0.1-2.7-0.2-4,0
		c-6,0.8-11.7,2.5-16.3,6.7c-0.4,0.3-0.8,0.6-1.1,0.9c-3.5,3.8-8.2,3.9-12.9,4.1c-0.4-0.4-0.7-0.8-1.1-1.1c-0.2-0.3-0.4-0.5-0.7-0.9
		c-2.5,2.3-4.7,4.7-6.6,7.4c-0.4,0.5-0.7,1-1,1.5c-5.3,6.5-9.7,13.5-14.3,20.5c-1.9,2.9-3.6,5.9-5.9,8.4c-3.4,3.9-5.8,8.4-8.9,12.5
		c-3.7,4.9-7.5,9.6-11,14.6c-5.2,7.4-11.8,13.7-18.6,19.7c-2.9,2.5-6,4.6-9,6.9c-1,0.8-2,1.7-3.2,2.7c0.6,0.8,1.2,1.3,1.5,2
		c0.4,0.6,0.5,1.4,0.8,2.1c0.5,1.2,1,2.5,1.7,3.6c2.8,4.8,4.8,9.9,6,15.3c0.4,1.5,0.6,3.1,0.6,4.7c0.1,4.3,0,8.6,0,12.8
		c0,0.7,0,1.5-0.1,2.2c-1.1,6.5,0.4,12.9,1.1,19.3c0.7,6.1,2.8,11.9,4.2,17.8c1.2,5.1,2.6,10.2,4.4,15.1c0.7,2.1,1.5,4.1,2.2,6.2
		c0.1,0.2,0.1,0.5,0.3,0.7c1.4,2,2.8,3.9,4.3,6c1.2-2.1,2.9-2.3,5.1-1.6c0.9,2.9,2.1,5.7,2,8.8c-0.1,2.7,0.7,5,2.1,7.3
		c0.4,0.6,0.7,1.3,1.1,1.9c1.6,2.2,2.1,4.6,2.5,7.2c0.6,3.5,1.1,7,3.3,9.9c1.6,2.1,1.4,3.6-1.5,5.3c-0.2,0.1-0.4,0.2-0.7,0.3
		c-3.7,0.2-7.1,1.7-10.7,2.3c-0.9,0.2-1.9,0.4-2.7,0.9c-1.8,1-3.7,1.1-5.7,0.9c-3.5-0.4-7.1-0.7-10.6-1.1c-1.6-0.2-3.1,0.1-4.7,0.6
		c-4,1.1-8,2.1-12,3.2c-2.1,0.6-4.1,1.3-6.3,1.8c-2.4,0.5-4.8,1-7.3,0.9c-5.9-0.1-11.7,0.2-17.6-0.4c-3.2-0.3-6.4-0.1-9.5-0.9
		c-0.9-0.2-1.9-0.5-2.8-0.8c-3.9-1.6-4.4-2.4-4.6-6.5c-0.2-4.3,0.2-8.5,2.1-12.5c1.4-0.9,3-1,4.6-1.2c1.7-0.2,3.4-0.4,5.1-0.8
		c1.5-0.3,3.1-0.8,4.5-1.5c1.4-0.7,2.6-1.7,4.4-2.9c0.9-0.1,2.5-0.2,3.9-1.1c1.1-0.8,1.9-1.6,2.6-2.9c1-1.9,2.5-3.6,4-5.2
		c2.3-2.4,4.7-4.7,7-7c0.6-0.6,1.3-1.1,1.9-1.7c1.4-1.4,2.3-3,2-5.2c-0.2-2.1,0.1-4.4,0.3-6.4c2-2.1,4.4-1.3,6.7-1.1
		c0.1-0.5,0.4-0.9,0.3-1.2c-1.3-5.9-2.8-11.7-5.3-17.1c-0.3-0.6-0.4-1.2-0.7-1.7c-2.4-3.5-3.5-7.5-5-11.4c-0.6-1.6-1.4-3.1-2.1-4.7
		c-2.6-5-5-10.1-6.9-15.4c-2.4-6.8-5.2-13.5-7.5-20.3c-2.6-7.6-5-15.3-7.3-23.1c-0.8-2.7-0.8-5.5-1.3-9.1c-0.5-0.6-1.4-2-2.5-3.1
		c-1.5-1.5-2.4-3.3-3.1-5.3c-0.1-0.3-0.4-0.7-0.4-1c-0.1-3.7-0.2-7.3-0.2-11c0-3.9,0.3-7.8,0-11.7c-0.3-3.5-1.3-7-2-10.4
		c-1.2-5.4-2.5-10.7-3.5-16.1c-0.6-3.4-0.9-6.8-1.1-10.2c-0.2-3.7-0.1-7.3,0-11c0.1-2.4,0.3-4.9,0.5-7.3c0.3-3.3,0.5-6.6,0.8-9.9
		c0.8-7.3,1.5-14.6,2.5-21.9c1-7.1,2.3-14.2,3.6-21.3c0.5-2.5,1.3-5,2.1-7.4c0.9-2.8,1.7-5.6,1.7-8.6c0-1.6,0.2-3.2,0.7-4.7
		c1.5-5.3,0.6-10.4-0.3-15.6c-0.9-5.2-1.4-10.3-0.9-15.7c0.7-6.2,0.7-12.4,1-18.7c0-0.7,0.2-1.6-0.1-2.2c-0.9-1.8-1-3.6-0.9-5.9
		c-1.5,1.1-2.7,2-3.9,2.8c-1.8,1.2-3.6,1.9-5.8,1.8c-1.1-0.1-2.1,0.2-3.4,0.4c-3-2.1-5.7-4.7-8.3-7.5c-2.8-3-6-5.8-8.3-9.3
		c-4-3.6-5.3-8.6-7.3-13.3c-1.1-2.7-1.6-5.6-2.5-8.4c-1-3.3-1.6-6.7-1.8-10.1c-0.1-2-0.6-3.8-1.4-5.6c-1.6-3.6-3-7.2-4.2-11
		c-0.8-2.8-2.2-5.4-3.4-8.1c-0.2-0.4-0.5-0.9-0.8-1.2c-1.7-1.4-2.3-3.4-2.8-5.4c-1.4-5.2-3-10.3-4.5-15.5c-0.3-1-0.3-1.9,0.4-2.8
		c1.4-1.7,3.1-3.1,4-5.2c0.5-1,1.7-1.5,2.8-1.4c2.7,0.2,5-0.8,7.4-1.8c0.4-0.2,0.9-0.5,1.4-0.5c2.8,0.1,5.5-1.3,8.2-0.2
		c0.8-0.8,1.4-1.6,2.1-2.2c1.3-1.1,2.9-1.3,4.5-1.2c0.5,0,1.2,0.6,1.3,1.1c0.3,1.3,0.9,2.5,0.5,3.9c-0.3,0.9-0.5,2-0.2,2.9
		c0.7,1.9,0.2,3.6,0,5.4c-0.3,2.2-0.2,4.4-0.4,6.6c-0.1,1.7-0.3,3.4-0.4,5.1c-0.1,1.3-0.6,2.3-1.3,3.4c-0.7,1-1.1,2.2-1.8,3.2
		c-1.1,1.9-1.7,3.7-1.1,5.9c0.2,0.5-0.4,1.3-0.6,2c-0.4-0.3-0.7-0.4-0.7-0.6c-0.4-3.7-0.3-7.3,1.9-10.5c1.8-2.7,2.4-5.7,1.6-9.1
		c-0.6-2.3-0.4-4.9-1.2-7.2c-0.2-0.5-0.5-1-1-2c-0.6,2.9,0.9,4.9,1.1,7.4c-0.7,0.7-1.3,1.7-2.3,2.4c-0.2-0.3-0.3-0.4-0.3-0.5
		c0.3-2.8,0.5-5.5-0.3-8.3c-0.4-1.5,1.1-2.7,0.8-4.2c-0.1-0.3,0.6-0.7,0.9-1.1l-0.1,0.1c1.3-0.4,2.2,0.4,3.4,0.8
		c0.1-1.7,0.7-3.4,0-5.1C526.6,115.1,524.7,115.6,524.6,118.2L524.6,118.2z M567.1,7.9l0.2-0.1L567.1,7.9c-0.2,0.4-0.5,0.6-0.7,0.9
		L566.3,9l0.1-0.2C566.6,8.5,566.9,8.2,567.1,7.9z M572.2,12.3c0.1,0,0.2,0,0.3,0c0.1,0,0.1-0.1,0.2-0.1
		C572.5,12.2,572.4,12.3,572.2,12.3c0,0.2-0.1,0.3-0.1,0.4c0,0.2,0.1,0.4,0.2,0.6c-0.2,0.4-0.3,0.9-0.6,1.6c0.8-0.2,1.4-0.3,1.9-0.5
		c2.5-1.1,4.9-2.2,7.4-3.2c1.2-0.5,2.6-0.8,3.9-0.9c1.5-0.2,3.1-0.1,4.7-0.2c0.1,0.2,0.1,0.4,0.3,0.8c5.2-1,10.5-2,15.7-3
		c0.1,0,0.2-0.1,0.3-0.2c0.1-0.1,0-0.2,0-0.4c-0.1-0.2-0.2-0.5-0.4-0.6c-1.8-1.7-3.8-2.6-6.3-2.1c-0.2,0-0.3,0.2-0.5,0.3
		c0.3,0.2,0.6,0.4,0.9,0.6c-0.3,0.2-0.5,0.5-1,0.8c1.1,0.2,2,0.4,2.9,0.6c-2.6,0.4-5.2,0.6-7.7,0.6c-2.9,0-5.9-0.5-8.5,1.3
		c-3.5,0.3-6.5,2-9.6,3.3c-1.1,0.5-2.3,0.8-3.4,1.2C572.2,13,572.2,12.7,572.2,12.3z M562.7,11.6l0.2,0L562.7,11.6l0,0.3L562.7,11.6
		z M570.1,133.6c0.4-0.1,0.8-0.1,1.2-0.2c0-0.1,0-0.2,0-0.3c-0.4,0-0.8-0.1-1.2-0.1c0.6-1.1,1.5-1.8,2.7-2.4
		c2.7-1.4,5.4-2.8,7.2-5.5c0.3-0.5,0.9-0.8,1.4-1.1c2.1-1.2,3.7-2.8,5.3-4.5c2.5-2.7,5-5.4,7.4-8.1c1-1.1,1.9-2.2,2.8-3.4
		c2.9-3.9,5.7-7.9,9.2-11.4c1.1-1.1,2.2-2.2,3.4-3.3c0.2-0.2,0.6-0.1,1.3-0.3c-0.4,0.8-0.5,1.2-0.8,1.5c-1.8,2-3.6,4-5.5,6
		c-2.4,2.5-4.3,5.3-5.9,8.4c-0.6,1.1-1.3,2.1-2,3c-1.7,2.1-3.5,4.1-5.2,6.2c-3.5,4.2-7.4,7.8-12,10.6c-0.5,0.3-1.2,0.6-1.4,1.1
		c-1.7,3.1-4.6,4.7-7.4,6.4c-4.1,2.6-8.7,3.9-13.5,4.4c-1.5,0.2-3.2,0-4.7-0.4c-2.4-0.6-4.1-2.1-4.7-4.6c-0.4-1.8-0.1-3.4,0.8-4.9
		c1.5-0.2,1.8-1.4,2.2-2.5c0.7-1.6,1.3-3.2,1.9-4.8c0-0.1,0.1-0.2,0.1-0.3c0,0.1,0,0.2,0,0.3c-0.9,0-1.2,0.7-1.7,1.2
		c-1.3,1.6-2.5,3.3-3.9,4.9c-2.5,2.9-5,5.7-7.6,8.7c0.4,1.1,0.6,2.1-0.1,3.1c-2,2.7-2.8,6-3.4,9.2c-0.5,2.4-0.5,4.9,0.1,7.3
		c0.2,0.8,0.6,1.7,0.5,2.5c-0.3,1.4,0.3,2.4,1.1,3.3c0.9,1.1,1.9,2.2,3,3.2c2.3,2,4.8,3.8,6.9,6c2,2,4.3,3.6,6.2,5.3
		c0.3,2.1,0.6,4.1,1,6c0.3,1.9-0.3,4,1.1,5.8c1.5,0.5,3.1,1,4.8,1.4c2.1,0.6,4.2,1.3,6.4,0.6c0.7-0.2,1.5,0,2.2,0.1
		c3.9,0.3,7.8,0.6,11.7,0.9c2.4,0.2,4.9,0.5,7.3,0.8c1.1,0.1,2.2,0.3,3.3,0.2c4.8-0.7,9.7-0.9,14.5-2.2c2.7-0.7,5.4-1.5,8.2-1.9
		c5.1-0.7,10-2.2,14.8-4.4c0.2-0.4,0.5-0.8,0.5-1.3c0.6-5.2,1.9-10.3,3.6-15.3c0.4-1.1,0.6-2.4,0.7-3.6c0.4-2.9,0.7-5.7,1.6-8.5
		c-1.9-0.7-3.6-0.5-5.4-0.1c-3.4,0.7-6.8,0.8-10.1-0.6c-1-0.4-2.1-0.6-3.2-0.9c-1.5-0.5-3.1-0.8-4.5-1.4c-3.1-1.3-5.8-3.1-8.4-5.2
		c-3.3-2.7-5.5-6.1-6.6-10.3c-0.4-1.4-0.7-2.8-1.1-4.1c-0.8-0.4-1.4-0.7-2.1-1c-0.1-1.2-0.2-2.3-0.3-3.4c-0.2-2.4,0.1-4.6,1.5-6.7
		c0.6-0.9,0.9-2,1.2-3c2.1-6.7,5.4-12.8,9.7-18.4c1.9-2.5,4.1-4.5,7-5.7c0.5-0.2,1.2-0.2,1.3-1.2c-0.4-0.3-0.8-0.7-1.3-1.1
		c-2.4-1.9-2.4-1.9-3.7-5.4c-0.1-0.3-0.4-0.6-0.5-1c-2.1-5.2-3-10.6-2.5-16.1c0.1-1.7,0.2-3.4,0.3-5.1c-1-0.6-1.8-1.1-2.6-1.7
		c-0.8-0.5-1.1-1.2-0.6-2.1c1.7-0.3,3.3-0.6,5-1c0.5,0.2-0.6,1.3,0.9,1.1c0.3-0.5,0.7-1.1,1-1.7c0.3-1,1.1-1.9,1.1-3
		c-2.7,0.8-5.2,1.6-8,2.5c-0.7,0.9-1.6,2.1-2.5,3.3c-1.1-0.2-2.1-0.3-3-0.5c-0.9-0.2-1.5-0.8-1.8-1.7c-0.2-0.6-0.1-1.2,0.6-1.5
		c0.8,0.5,1.5,1,2.5,1.6c0.8-0.7,1.7-1.2,2.3-1.9c2.3-3,4.5-6.1,6.7-9.2c0.5-0.7,0.6-1.3-0.2-1.9c-0.8,0.3-1.5,0.5-2.2,0.8
		c-0.2,1-0.2,1.9-0.5,2.7c-0.5,1.3-1.2,2.4-2.6,2.9c-0.4,0.1-1.1,0-1.3-0.3c-0.2-0.3-0.3-1-0.1-1.3c1.1-1.7,2.5-3.4,2.1-5.8
		c-0.7-0.8-1.5-1.7-2.4-2.8c-0.5,0.8-0.9,1.4-1.2,1.9c0.6,0.9,1,1.6,1.5,2.3c-0.8,1.9-1.5,3.6-2.2,5.3c-0.5-0.1-0.7-0.1-0.9-0.2
		c-0.4-0.3-0.7-0.7-1-1.1c-0.8-1.2-0.7-1.8,0.6-2.7c0.6-0.4,1.1-0.8,1.7-1.2c-0.3-0.6-0.5-1.1-0.6-1.5c-0.4-1.2-0.3-2.6,0.6-3.5
		c1.2-1.2,2.6-2.2,4-3.2c0.6-0.4,1.6-0.1,1.9,0.5c0.6,1.1,1.1,2.2,1.6,3.3c0.3,0.6,0.5,1.3,0.9,2.1c0.3-0.4,0.5-0.6,0.5-0.8
		c0.1-3.1-1.3-5.4-3.7-7.2c-0.9-0.7-2.1-0.6-3.1,0.2c-0.7,0.6-1.3,1.4-1.9,2.2c-1,1.3-2.3,2.2-3.8,2.8c-0.7,0.2-1.5,0.3-2.1,0.1
		c-0.9-0.2-1.8-0.7-2.1-2.1c1.6,0.1,3.1,0.6,4.5-0.1c-1.5-0.6-3.1-0.8-4.1-1.7c-1.9-1.6-3.9-2.9-5.9-4.4c-1.1-0.9-2.2-1.9-3.2-2.8
		c0.3-0.4,0.8-0.8,0.7-0.9c-0.5-1.1-1-2.2-1.8-3c-0.6-0.6-1.2-1.1-1.2-2.1c0-0.7-0.3-1.4-0.5-2.1c-0.7-2.3-0.8-3.9-0.5-6.4
		c2.7,1.1,5.3,0.8,8-0.7c-0.5-0.2-0.7-0.4-0.9-0.4c-0.7,0.1-1.4,0.2-2.2,0.3c-1,0.1-1.9,0.4-2.7-0.5c0.5,0,1-0.1,1.8-0.1
		c-0.9-0.6-1.3-0.2-1.7,0.2c-2.5-1.2-5.1-1.2-7.7,0.2c-0.9-0.6-1.9-1.3-3.1-2.1c-1.3,0.5-2.6,1.1-4,1.7c-1.6-1.2-3.6-0.7-5.4-1.6
		c-0.8,0.5-1.6,1-2.6,1.7c-0.8,2.5-1.5,5.1-2.3,7.6c-0.9,2.6-1.8,5.3-2.7,7.8c0.4,1.1,1.1,1.8,1.9,2.3c1.1,0.6,1.5,1.6,1.5,2.8
		c0,1-0.1,1.9-0.4,2.9c-0.8,3.2-2.3,6.2-4.2,8.9c-0.6,0.8-1.2,1.5-0.9,2.7c1,0.9,2,1.4,3.5,0.7c1.3-0.6,2.3,0.3,2.8,1.6
		c-0.8,0.2-1.4,0.4-1.8,0.5c-0.6,1.7-1.1,3.2-1.6,4.8c0.3,0.3,0.6,0.9,1.1,1.2c0.6,0.3,1.4,0.6,2.1,0.6c1.1,0.1,2.2-0.1,3.3-0.1
		c0.4,0,0.8,0.2,1.4,0.4c-1.8,2.4-4,0.8-5.7,1.1c-0.9,0.6-1.8,1.1-1.7,2.3c0.6,0.9,1.2,1.8,1.8,2.6c-0.4,1.2-0.9,2.2-1.1,3.3
		c-0.3,1.6,0.4,3.4,1.6,3.7c2.6,0.7,5.2,1.8,7.9,1c1.6-0.4,3.1-0.4,4.7-0.4c3.9,0.2,5,1.2,5,5.1c0,3.8-0.6,7.5-1.7,11.2
		c-0.8,2.8-1.6,5.6-2.4,8.3c-1.1,1.4-2,2.8-3.1,4.2c-2.1,2.6-4,5.3-6.3,7.6c-1.4,1.4-2.7,2.9-3.5,4.6c-1.7,3.5-3.2,7.1-4.8,10.7
		c-1.4,3.2-2.7,6.5-4,9.8c-0.1,0.2,0,0.4,0,0.7c0.8,1,1.8,1,2.9,0.7c1.4-1.6,2.8-3.1,4-4.5c0-1.5-0.8-2.9,0.1-4.6
		c0.6,1.1,1,1.9,1.5,2.9c0.9-0.6,1.8-1.2,2.7-1.8c0.8-0.5,1.6-1.1,2.7-0.9l-0.1-0.1c-0.4,1.4-1.5,2.2-2.4,3.1
		c-1.4,1.4-2.8,2.7-4.2,4.1c-0.4,0.4-0.8,0.9-1.6,1.9c4.1-0.6,7.6-1.1,10.8-2.4c0.9-0.3,1.7-1,2.5-1.5
		C569.1,134.2,569.9,134.4,570.1,133.6z M575.3,8.8c0.3-0.1,0.6-0.2,1-0.3C575.7,8.1,575.5,8.4,575.3,8.8c-0.6,0-1.2,0-1.5,0.7
		c-1.4,0.7-2.9,1.4-4.3,2.3c-0.4,0.2-0.5,1-0.8,1.4c-1,0.2-1.7,0.6-1.8,1.8c1.8,0,1.8-0.2,1.7-1.9c1.9-1,3.8-1.9,5.1-3.7
		C574.4,9.6,575,9.5,575.3,8.8z M583.3,11.7c-0.5,0.1-1,0.2-1.8,0.3C582.5,12.4,583,12.3,583.3,11.7c0.5-0.1,1.1-0.1,1.9-0.1
		C584.3,10.7,583.8,11.2,583.3,11.7z M529,123.4c-1.2,0.4-1.1,1-0.2,2.2C528.9,124.7,528.9,124,529,123.4c0.1-0.2,0.3-0.3,0.4-0.5
		c0,0-0.1-0.2-0.1-0.3C529.2,122.9,529.1,123.2,529,123.4z M613.5,52.9c-1.1-0.1-1.7,0.7-2.3,1.4c-1,0.4-2,0.8-3,1.2
		c-0.6,0.2-1.2,0.2-1.5-0.5c1.9-0.5,3.6-1.5,5.1-2.8c0.5-0.4,1.3-0.7,1.2-1.6c-0.3-0.5-1.3,0.4-1.4-0.6c5.7-5,6.5-6.1,6.5-9.9
		c-1,0-1.8,1.3-3,0.6c2.9-2.2,3.2-2.5,3.8-5.2c-2.7,1.8-5.3,3.5-9.2,3.7c0.9-0.6,1.3-0.8,1.7-1c1.5-0.8,3.1-1.5,4.6-2.2
		c1.2-0.6,2.2-1.6,2.8-2.8c0.2-0.4,0.4-0.9-0.1-1.2c-1.8,0.5-3.6,1.3-5.3,1.4c-4.8,0.3-9.3,2-14.2,2.5c0.6,1,1.3,1.5,2.2,1.1
		c2.4-1.1,4.2-0.1,6,1.4c1.5,1.2,1.7,2.9,2,4.6c0.3,1.7,0.5,3.3,0.9,5.6c-0.2,1-1.1,2.3-2.1,3.6c-0.6,0.9-1.6,1.6-1.4,2.9
		c-1.1,0.5-2,1.3-2,2.8c2.3-0.2,4.3-0.9,5.9-2.4c0.3-0.3,0.2-0.9,0.4-1.3c0.4,0,0.9,0.1,1.3,0C613.3,54.2,613.6,53.6,613.5,52.9
		c0.3-0.1,0.7-0.1,0.2-0.6C613.6,52.5,613.6,52.7,613.5,52.9z M625.2,58.1c-1.1,0.6-2,1.5-2.2,2.9c-1.4,0.1-2,1.2-3,1.9
		c-1.8,1.3-3.5,2.6-5.3,3.9c-1.5,1-3.2,1.8-4.9,0.9c-0.9,0.6-1,1.2-0.3,2.1c0.4-0.1,0.9-0.1,1.3-0.2c3.8-1.3,7.3-3.4,10.7-5.5
		c1.2-0.7,1.6-1.8,1.5-3.1C624.4,60.5,624.8,59.2,625.2,58.1l0.1-0.2L625.2,58.1z M578.2,3.6c-2,0-3.8,0.9-5.5,1.8
		c-0.2,0.1-0.3,0.5-0.5,0.9C574.8,6,576.5,5.1,578.2,3.6c0.5-0.1,1-0.1,1.6-0.1C579.1,3.1,578.6,3.2,578.2,3.6z M558.3,112.2
		c0.2-0.1,0.5,0,0.6-0.2c1.5-2,3.1-4,4.6-6.1c0.2-0.3,0.6-0.8,0.3-1.3C561,106.5,559.8,108.3,558.3,112.2c0,0.3-0.1,0.5-0.1,0.4
		C558.2,112.8,558.2,112.5,558.3,112.2z M609.1,21.2c-2.4,1-4.9,2-7.3,3.1c-1.8,0.8-3.5,1.4-5.5,1.6c-1.7,0.2-3.3,0.8-5.7,1.5
		c3.2,0.7,5.4,1.6,7.9,1.4c1.6-0.1,3.2-0.2,4.7-0.2c-0.3,0.2-0.6,0.5-0.9,0.6c-2.4,0.8-5,0.8-7.3,2.3c-0.5,0.3-1.4,0.3-2.1,0.1
		c-1.9-0.3-3.8-0.7-5.7-1.1c-0.3-0.1-0.6,0-1,0.1c0.7,1.3,1.8,1.4,2.8,1.7c2.5,0.7,5,1.3,7.4,2.1c1.1,0.4,2.1,0.6,3.2,0.4
		c1.6-0.3,3.1-0.5,4.7-0.9c3.2-0.9,6.3-1.9,9.4-2.8c0.2,0.4,0.3,0.8,0.5,1.3c1.7-1,3.4-1.7,4.7-3.3c-0.1-1.9,0.2-3.8-1.1-5.5
		c-2.5,1.5-4.9,2.9-7.4,4.2c-2.5,1.3-5,2.5-7.8,3.1l0.1,0.1c0.2-1.3,2-0.9,2.2-2.3c-0.6,0-1.2,0-1.7,0c1.2-0.4,2.5-1.3,3.7-1.2
		c2.1,0,3.8-0.9,5.4-1.8c1.5-0.8,2.9-1.8,4.3-2.8c0.9-0.7,1-1.6,0-2.7c-4.4,2.7-8.9,5.3-14.3,5.3c2.3-1,4.7-1.7,6.9-2.8
		c2.3-1.1,5-1.8,6.6-4c-0.3-1.1-1-0.9-1.6-0.9c0.2-0.8,0.5-1.6,0.7-2.5c-1.6-1.5-3.2-3-4.8-4.4c-0.9-0.8-1.9-1.1-3-0.9
		c-5.3,0.8-10.7,0.4-15.9,1.8c-0.5,0.1-1,0.2-1.4,0c-1.8-0.6-3.1,0.3-4.7,1.2c0.6,0.3,1,0.5,1.5,0.7c-1.3,0.5-2.5,1-3.8,1.4
		c1.1,0.3,2.2,0.2,3.3,0.1c1.3-0.1,2.7-0.3,4-0.5l-0.1-0.1c0.5,0.3,1,0.8,1.5,0.8c0.8,0,1.7-0.2,2.5-0.4c2.8-0.7,5.7-1.4,8.5-2.1
		c1.7-0.4,3.4-0.6,5.1-0.9c1-0.2,2-0.1,2.8,0.6c0.3,0.3,0.6,0.9,0.5,1.2c-0.1,0.3-0.7,0.8-1,0.8c-1.5-0.3-2.9-0.2-4.4,0.1
		c-1.7,0.3-3.4,0.6-5,0.9c-4,0.8-8.1,1.2-12,3.1c0.7,0.2,1.3,0.4,1.9,0.6c0.2,0.6,0.3,1.1,0.5,1.8c-3.4,0.3-6.7,0.2-9.7-1.5
		c-0.1-0.1-0.4,0.1-0.7,0.2c0.1,0.7,0.2,1.3,0.2,1.9c0.5,0.2,0.7,0.4,0.9,0.4c2.6-0.2,5,0.3,7.5,1.2c1.5,0.5,3.1,0.6,4.7,0.9
		c1.5,0.3,2.9,0.1,4.3-0.2c3.3-0.8,6.5-2.1,9.6-3.5C608.1,20.7,608.6,21,609.1,21.2z M686.1,341.6c1.4,0.1,2.1-1.6,3.8-1.1
		c-0.1,0.5-0.1,0.9-0.3,1.3c-0.9,1.4-2.2,2.2-3.6,3.1c-1.5,0.9-3.1,1.7-4.6,3.2c1.9,0.1,3.5,0,5-0.4c0.6-0.2,1.2-0.3,1.7-0.6
		c3.9-3,7.1-6.4,7.6-11.6c0.1-1.1,0.1-2.3,1.5-2.6c0.9-0.2,1.5,0.9,1.6,2.8c0.1,1-0.4,2.1,0.4,3.4c0.4-0.6,0.9-1,0.8-1.3
		c0-0.7-0.4-1.4-0.5-2.1c-0.2-1.2,0.8-2.5,2-2.7c0.9-0.2,2,0.4,2.4,1.3c0.3,0.7,0.3,1.4,0.5,2.1c0.1,0.4,0.2,0.9,0.4,1.7
		c0.6-0.6,1-0.9,1.1-1.2c0.2-0.7,0.2-1.5,0.4-2.1c0.3-1.2,1.7-1.7,2.6-0.8c0.7,0.7,1.2,1.5,2.4,1.1c0.2-0.1,0.5,0.1,0.6,0.3
		c1,2.2,3,1.7,4.8,1.9c1.2-1.4,2.1-2.8,2.8-4.7c-0.8-2-2-4.1-2.5-6.3c-0.6-2.7-2.3-4.5-4.2-6.2c-0.4-0.3-0.7-0.7-1-1
		c-2-2.2-4.5-3.2-7.5-3.1c-1.5,0-2.9,0-4.4-0.2c-1.7-0.2-3.3-0.8-4.4-2.3c-0.5-0.6-1.3-1.1-2-1.6c-1.5-1-3.5-1.5-3.2-3.9
		c0-0.2-0.2-0.4-0.4-0.6c-1.8-1.8-3.6-3.6-5.5-5.4c-3.1-3-6.8-3-10.6-2.1c-1.7,0.4-3.3,1.5-5,2.3c-1.5,0.7-2.2,1.8-2.5,3.4
		c-0.4,2.3-0.8,4.6-1.4,6.8c-0.9,3.9-1.9,7.8-4.5,11.1c-1.3,1.7-1.9,3.9-2.4,6.1c0.9,0.9,1.8,1.7,2.7,2.6c0.7-0.9,1.3-1.7,1.9-2.5
		c0.4-0.4,0.8-0.5,1.2,0.2c-0.8,1.3-1.6,2.6-2.6,3.9c-1.2,1.6-2.4,3.1-3.7,4.5c-4.2,4.7-8.3,9.3-12.5,13.9c-0.9,1-1.8,2-3,2.7
		c-1.1,0.6-2.5,0.8-4,1.3c-0.4,0.8-0.8,1.8-1.2,2.8c-0.8,1.9-1.5,3.9-2.3,5.8c-1.8,4.1-3.6,8.3-5.6,12.4c-0.6,1.3-0.1,2.3,0,3.5
		c-2.3,2.9-4.6,5.8-6.1,9.2c-0.1,0.2-0.3,0.4-0.4,0.6c-2.1,2.5-3.4,5.4-4.4,8.4c-0.3,0.8-0.6,1.6-1,2.4c-1.5,3.1-3,6.1-4.5,9.2
		c-0.5,1.1-1.1,2.3-1.2,3.4c0,2.1-0.7,4.1-1,6.1c0,0.2-0.3,0.5-0.6,0.7c-0.2-0.4-0.5-0.6-0.5-0.7c-0.1-4,0.6-7.7,2.8-11.1
		c1.1-1.7,1.6-3.5,2.1-5.4c1.2-5.1,2.9-10.1,5.9-14.5c2-2.9,3.8-5.9,5.3-9.2c2.6-6.1,5.7-11.9,8.1-18c3.3-8,6.2-16.2,9.3-24.3
		c0.6-1.7,1.2-3.5,1.9-5.2c1.9-5,3.8-10,4-15.5c0-0.6,0.3-1.2,0.4-1.8c1.4-7.2,2.7-14.4,3.4-21.7c0.9-9.2-0.6-18-4-26.6
		c-0.5-1.4-0.8-2.8-1.3-4.2c-0.6-1.6-1-3.3-1.9-4.8c-2-3.3-4.3-6.5-6.5-9.7c-1.5,1.2-2.8,2.3-4.1,3.3c-1.3,1-3.1,1.4-4.4,2.7
		c0.8,1.6,1.7,3.1,2.4,4.6c0.3,0.5,0.3,1.1,0.5,1.7l0.1-0.1c-1.4-0.4-1.5-1.8-2.2-2.7c-0.7-1.1-1-2.5-2.4-3.3
		c-2.4,0.5-4.9,1.2-7.4,1.7c-4.3,0.8-8.7,1.4-13,2.2c-5.9,1-11.7,2.3-17.8,2.2c-0.5,0-1,0-1.4,0.2c-1.4,0.7-2.9,0.5-4.3,0.5
		c-3.7-0.1-7.3-0.3-11-0.6c-4.7-0.3-9.2-1.1-13.3-3.6c-0.4-0.2-0.8-0.3-1.3-0.5c-0.1,0.6-0.2,1-0.1,1.3c0.6,3.4,1.1,6.7,1.7,10.1
		c0.4,2.2,0.6,4.4,0.1,6.5c-0.3,1.3,0.1,2.4,0.8,3.4c-0.5,0.2-0.9,0.3-1.5,0.6c0,1.1,0,2.1,0,3c1.5,0.7,2.7,1.3,4,2l0.1-0.1
		c-1.4,0-2.8-0.1-4.3-0.1c-0.1,0.3-0.3,0.7-0.2,1c0.8,1.7,0.4,3.4,0.1,5c-0.3,1.6-0.6,3.1-1,4.7c-1.3,5.5-2.7,10.9-4,16.4
		c-0.2,0.9-0.6,1.9,0.2,2.9c1.5,0.5,3.3,0.3,5,0.2c2.7-0.2,5.3-0.2,8,0.1c6.4,0.6,12.6,1.5,18.6,4.3c0.3-1.1,0.5-2.2,0.8-3.2
		c0.4-1.5,0.4-2.9-0.2-4.3c-1-2.2-1.9-4.5-2.9-6.7c-0.3-0.6-0.6-1.2,0.1-1.8c1.6,1.7,2.5,3.7,3.2,5.8c0.5,1.5,1.2,2.9,1.7,4.4
		c0.2,0.8-0.2,1.7,0,2.5c0.2,0.9,0.8,1.7,1.1,2.6c0.1,0.2,0,0.5,0,0.7c-0.7,2.2-0.9,4.5-0.6,6.8c0.1,0.9-0.2,1.9-0.5,2.9
		c-0.3,1.2-0.7,2.4-0.9,3.6c-1.9,8.4-3.7,16.7-5.5,25.1c-1.3,6-3.8,11.6-5.7,17.4c-0.9,2.7-1.8,5.4-2.8,7.9
		c-2.8,6.7-4.6,13.7-6.3,20.7c-1.3,5.4-2.6,10.9-2.8,16.6c0,1.5-0.2,2.9,0.1,4.4c0.9,4.4,1.6,8.9,2.5,13.3c0.3,1.3,0.9,2.5,2.5,2.9
		c0.5,0.2,1.1,0.6,1.4,1.1c0.7,1.3,2,1.7,3.2,2.2c2,0.8,4,1.2,6.1,1.2c1.6,0,3.2,0.2,4.8,0.3c1.6,0.1,3.2,0.3,4.8,0.4
		c1.6,0.1,3.1-0.3,4.5-1.2c1-0.7,2.1-1.4,3.2-1.7c1.7-0.5,3-1.5,4.3-2.7c0.7-0.6,1.5-1.3,2.4-1.6c1.5-0.4,2.7-1.2,3.8-2.2
		c2-1.8,3.8-3.8,5.6-5.8c1.9-2.1,3.5-4.5,5.5-6.4c3-2.8,5.6-5.8,7.9-9.1c3.3-4.7,6.6-9.4,10-14.1c3.1-4.3,6.1-8.5,9.5-12.6
		c2.7-3.2,5-6.6,7.1-10.2c1.7-2.8,3.4-5.7,5.3-8.4c2.4-3.6,5-7,7.4-10.5c3-4.5,6.7-8.5,10.6-12.2c1.6-1.5,4.1-2.3,6.6-2.4
		c0.9,0,1.7-0.3,1.9-1.3L686.1,341.6z M605.9,560.4c1.4,0.7,2.9,1.5,4.5,2.1c0.7,0.3,1.4,0.5,2.1,0.5c3.3-0.1,6.4-1.1,9.3-2.8
		c2.2-1.3,3.4-3,3.7-5.7c-0.5-0.6-1-1.4-1.7-1.9c-1.5-1-2.3-2.4-3.1-4c-2-3.9-3.8-7.9-5.3-12.1c-1.6-4.7-2.6-9.4-3.8-14.2
		c-1-3.8-1.8-7.6-2.5-11.5c-0.7-3.8-1.1-7.7-1.8-11.6c-0.7-3.6-0.8-7.3-0.7-11c0.1-4.2,0.2-8.3,0.3-12.5c0.1-3.5-0.7-6.8-1.4-10.1
		c-1.5-6.6-4.8-12.5-7.6-18.6c-0.1-0.2-0.3-0.3-0.6-0.6c-1.3,0-2.5,0.6-3.8,1c-2.8,1-5.7,1.4-8.7,1c-1.8-0.2-3.6-0.6-5.4-0.9
		c-0.5-0.1-1.1-0.6-1.8,0.2c0.5,3.5,0.9,7.1,0.8,10.8c-1.8-3.9-3-7.9-2.7-12.2c-1.4-1-3-1.7-4.2-2.9c-3.1-3.1-5.7-6.7-6.6-11.2
		c-0.2-1.3-0.6-2.6-0.8-3.9c0-0.1-0.1-0.2-0.1-0.4c-0.1,0-0.2,0.1-0.2,0.1c-0.2,0.3-0.4,0.6-0.6,1c-1-0.9-1-2-1-3.1
		c0.1-2.4,0.2-4.9,0.3-7.2c-1-1.8-3.6-2.6-2.5-5.2c2,0.1,1.8,1.8,2.6,3.2c0.3-1.3,0.5-2.2,0.7-3.1c0.6-3.1,1.1-6.3,1.9-9.3
		c1.8-6.9,3.6-13.7,5.5-20.5c0.8-2.7,1.5-5.5,2.6-8c2.3-5.3,3.7-10.9,4.9-16.5c2.4-11.5,5.1-22.9,8.3-34.2c0.5-1.7,0.8-3.5,1.2-5.3
		c-1.6-0.4-3-0.8-4.4-1.2c-2.5-0.6-4.9-1.4-7.5-1.9c-6.4-1.2-12.8-2.2-19.2-3.3c-0.8-0.1-1.6,0.1-2.6,0.1c-0.3,1.6-0.7,3-0.9,4.4
		c-1,8.1-2.1,16.3-2.9,24.4c-0.5,4.6-0.8,9.3-1.9,13.8c-0.3,1.1-0.4,2.2-0.4,3.3c-0.2,6.1,0,12.2,1.4,18.2c2,8.7,3.9,17.4,6.4,26
		c0.4,1.3,0.6,2.7,0.1,4c-0.7,1.6-0.4,3.1-0.4,4.7c0.1,5.6,0.7,11.2,0.4,17.1c0.8,1.1,1.7,2.4,2.7,3.7c0.7,0.9,1.2,1.8,1.5,2.9
		c1,3.7,2,7.3,3.1,10.9c1.4,4.5,3.1,9,4.5,13.6c0.7,2.2,1,4.5,1.8,6.7c1.9,5.7,3.9,11.3,6.1,16.9c1.9,5,4.1,9.9,6.2,14.9
		c0.2,0.4,0.4,0.9,0.6,1.3c2.6,3.5,4.3,7.3,5.7,11.4c0.3,0.9,0.7,1.8,1.2,2.7c1.4,2.7,2.5,5.6,3.2,8.6c0.8,3.3,2.3,6.5,3.7,9.6
		c1.6,3.5,3,6.9,4.5,10.4c0.9,2.2,1.2,4.5,0.1,6.6c0.8,2.9,1.7,5.5,3.8,7.7C605,558.2,605.3,559.3,605.9,560.4z M584.6,202.9
		c1.4,1,2.8,1.9,4.2,3c2.9,2.3,6.1,4.1,9.6,5.2c2.2,0.7,4,1.8,5.5,3.4c1.2,1.4,2.6,2.6,3.6,4.2c1.3,2.2,3.2,2.8,5.5,2.9
		c3.5,0.2,6.7-0.9,9.9-2.2c0.8-0.3,1.4-0.8,1.9-1.1c0.3-1.6,0.6-2.9,0.8-4.2c0.1-0.7,0.2-1.4,0.2-2.2c0.1-7.4,1-14.6,2-21.9
		c0.1-0.6,0.3-1.2-0.5-1.7c-2.6,0.6-5.4,1.2-8.1,2c-2,0.6-3.9,1.4-5.9,2.1c-0.8,0.3-1.6,0.5-2.5,0.8c-8.3,2.3-16.8,3.3-25.4,2.8
		c-3.4-0.2-6.8-0.4-10.3-0.5c-4-0.1-8-0.6-12-1.5c-2.2-0.5-4.5-0.8-6.7-1.1c-0.6,0.9-0.3,1.8,0,2.5c2,4.4,2,9,1.8,13.6
		c-0.1,3.2,0.1,6.4,0.1,9.5c0,0.4,0,0.8,0.2,1.1c1.7,2.8,1.2,5.9,1.2,8.9c0,2.4,0.1,4.9,0,7.3c-0.2,5.1,0.3,10.3-1.2,15.3
		c-0.1,0.4,0,1,0,1.5c1.6,1.2,3.5,1.8,5.2,2.5c3.7,1.6,7.7,2.7,11.7,2.7c9-0.1,18.1,0.5,27.1-0.8c4.3-0.6,8.8-0.9,13-2.3
		c0.7-0.2,1.5-0.4,2.1-0.2c0.9,0.4,1.6,0.1,2.5-0.2c2-0.6,4-1.1,6-1.8c2.9-1,5.9-1.8,8.4-3.6c1.2-0.8,2.5-1.6,3-3.2
		c-1.6-2.5-3.3-5-5-7.7c-1,0.4-2,0.7-2.9,1c-1.9,0.7-3.8,1.5-5.9,1.7c-1.7,0.1-3.3,0.9-4.4,2.3c-0.5,0.6-1.3,1-2,1.5
		c-1.3,0.7-2.6,1.4-3.8,2.1c-1.8,1.1-3.6,2-5.6,2.6c-3.2,1-6.4,1.4-9.8,1.3c-1.5-0.1-2.8-0.2-4.2,0.7c-1.4,0.9-3.1,1.3-4.8,1.8
		c-4,1.1-6.5,0-8.7-3.5c-0.4-0.6-0.8-1.2-1.3-1.7c-1.1-0.8-1.6-1.8-1.5-3.1c0-0.7-0.2-1.4-0.2-2c-1.3-0.6-2.8-0.2-3.5-1.5
		c-0.6-1.1-1.3-2.2-1.5-3.3c-0.2-1.1,0.3-2.3,0.5-3.3c-0.6-1.2-1.3-2.2-1.7-3.3c-0.4-1.1-0.2-2.1,0.6-3.1c1.1-1.6,2.5-2.6,4.4-3.1
		c1.4-0.4,2.8-0.7,3.7-2.1c0.5-0.9,1.6-1.2,2.6-1c2.3,0.5,4.4-0.1,6.4-0.9c1.3-0.5,2.9-0.4,4.1-1.9c-1.3-2.6-3.1-4.7-6-5.9
		c-3.2-1.3-5.1-5.3-4.4-8.8C582.7,203.8,583.3,203.3,584.6,202.9z M588,556.1c0.4,0.4,0.7,0.7,1,1c1.6,1.5,3.2,3,4.8,4.6
		c0.6,0.6,1,1.4,1.3,2.2c0.4,1-0.6,2-1.6,1.8c-0.7-0.2-1.4-0.4-2-0.9c-0.8-0.6-1.4-1.3-2.1-2c-1.3-1.3-2.6-2.5-4-3.8
		c-1.5,1.2-2.9,2.2-4.4,3.3c1,1.3,2,2.4,2.9,3.5c0.5,0.6,1.1,1.1,1.3,1.7c0.2,0.5,0.1,1.2,0,1.7c-0.2,0.6-1.4,0.9-1.9,0.6
		c-1.1-0.7-2.2-1.5-3.2-2.4c-0.6-0.5-1-1.3-1.7-2.2c-0.8,1-1.4,1.9-2.1,2.7c0.4,0.8,0.8,1.4,1.1,2.1c0.9,1.7,1,2.9,0.2,3.3
		c-1.2,0.7-2.1-0.2-3-0.8c-0.2-0.1-0.4-0.1-0.6-0.1c-0.6,0.4-1.1,0.9-1.6,1.2c-0.9-0.2-1.4-1.1-2.2-0.4c-0.6,0.5-0.8,1.2-0.5,2
		c0.1,0.3-0.1,0.7-0.2,1.2c-1.2,0.2-2.6,0-3.6,0.5c-1.1,0.6-2,0.8-3.3,0.7c-1-0.1-2,0.8-3.1,1c-2.3,0.4-4.6,0.7-6.9,0.9
		c-1.3,0.1-2.7,0.2-3.9,1.3c-0.2,1.1-0.7,2.2-0.8,3.4c0,3,0.1,6.1,0.2,9.1c1.5,1.6,3.4,1.9,5.3,2.2c1.7,0.2,3.4,0.5,5.1,0.6
		c3.2,0.3,6.3,0.5,9.5,0.7c1.5,0.1,2.9-0.1,3.9-1.2c4.7,0.6,9.3,0.4,13.7-0.3c5.9-0.8,11.9-2,17.5-3.9c3.3-1.2,6.5-1.8,10-1.1
		c1.9,0.3,3.9,0.2,5.8,0.5c2.1,0.3,4.1,0.6,6-0.6c0.4-0.2,0.9-0.3,1.4-0.4c3.1-0.7,6.2-1.3,9.3-2c1.3-0.3,2.6-0.6,3.5-1.8
		c-0.5-1.4-1.2-2.8-1.5-4.2c-0.6-2.7-1-5.5-1.4-8.3c-0.2-1.5-0.7-2.8-1.5-4.1c-3-5-3-5-3.7-10.6c-0.1-0.6-0.1-1.2-0.2-1.8
		c-0.4-1.8-0.9-3.5-1.4-5.3c-0.1-0.3-0.4-0.5-0.6-0.9c-0.4,0.9-0.8,1.6-1.1,2.3c-0.3,0.9-0.5,1.9-0.7,2.8c-0.9,3.7-3,6.4-6.6,7.8
		c-1,0.4-2,0.9-3.1,1.2c-1.5,0.5-3,1-4.7,1.5c-4.2-0.8-8.1-2.8-11.6-5.6c-1.3-1.1-2.4-2.4-3.4-3.8c-1.4-1.9-1.3-4-0.4-6.1
		c0.3-0.7,0.5-1.7,0.3-2.5c-0.4-1.6-0.8-3.3-2.2-4.5c-2.3,0.8-2.3,0.8-4.3-0.4c0,2.1,0,4.1,0,6.2c0,1-0.1,2-0.3,2.9
		c-0.2,1.1-0.8,2-2,2.4C588.6,555.4,588.4,555.8,588,556.1z M627.9,217c2.3-0.5,4.2-1.6,6-2.8c3.4-2.2,6.9-4.2,10.3-6.3
		c3.4-2.1,6.9-4.2,10.3-6.3c3.5-2.1,6-5.3,8.7-8.2c0.4-0.4,0.4-1.1,0.6-1.6c-2.6-3.9-5.4-7.4-8.8-10.4c-2.9-2.6-5.5-5.5-7.3-9.1
		c-0.2-0.4-0.5-0.8-0.8-1.2c-3.1-3.5-5.5-7.5-8-11.4c-0.3-0.4-0.3-1.2-1.5-1.2c1.1,4.2-1,7.8-2.1,11.6c-0.8,2.6-1.6,5.1-2.3,7.7
		c-1,4-1.9,8.1-2.9,12.1c-0.4,1.7-0.7,3.3-0.5,5.1c0.1,0.9-0.1,1.9-0.3,2.9c-0.3,2-0.8,4.1-1,6.1c-0.2,2,0,4.1,0.1,6.2
		c0.1,2-0.4,4.1-0.7,6.2C627.6,216.3,627.7,216.5,627.9,217z M610.4,67c3-1.2,7.3-3.9,8.7-5.6c0.6-0.7,1.2-1.6,1.4-2.5
		c1.4-4.7,1.1-9.4-0.1-14.4c-0.4,0.6-0.7,0.8-0.8,1.1c-0.6,2.4-1.5,4.6-2.5,6.8c-0.3,0.6-0.4,1.4-0.5,2.1c-0.2,1.2-0.1,2.5-2,2.4
		c-0.2,0-0.4,0.3-0.5,0.5C612.6,60.3,611.5,63.3,610.4,67z M628.2,73.2c0.7-0.2,1.1-0.2,1.4-0.3c4-2,7.1-5.1,9.6-8.8
		c2.3-3.4,3.2-7.3,2.9-11.5c-0.1-1.6-0.1-1.6-1.3-3.3c-1.1,4.9-1.6,6.2-4.4,10.7c-1.4,2.3-2.9,4.5-3.9,7c-0.5,1.4-1.7,2.7-2.6,4
		C629.6,71.7,629,72.3,628.2,73.2z M634.2,23.7c0-1.9,0-3.6,0-5.2c0-1.6-0.9-2.8-2.3-3.5c-1.2-0.6-2.4-1.2-3.7-1.5
		c-3.1-0.6-6.3-0.7-9.3,1.6c0.8,0.3,1.3,0.6,1.9,0.7c1.2,0.3,2.4,0.6,3.5,0.9c3.5,1,6.5,2.7,8.7,5.7
		C633.3,22.9,633.8,23.2,634.2,23.7z M629.7,12.4c-4.5-3.8-10.4-4.4-14.8-1.3c0.6,0.3,1.1,0.8,1.6,0.8c1.7,0,3.4,0,5.1-0.3
		c2.2-0.4,4.4,0,6.5,0.5C628.4,12.1,628.9,12.2,629.7,12.4z M558.8,108c-2.4,1.5-4.4,3.3-6,5.6c-1,1.6-1.6,3.2-1.7,5.1
		c0,0.5,0.1,0.9,0.9,0.8C554.5,115.9,555.7,111.4,558.8,108z M579.5,5c2-0.3,3.1-0.5,4.3-0.7c1.3-0.2,2.6-0.5,4-0.6
		c1.2-0.1,2.4-0.1,3.6-0.1c1.3,0,2.7,0,4-0.1c1.1,0,2.2,0.3,3.3-0.4C591.2,2.4,583.9,3,579.5,5z M580.9,24c0.2,0.3,0.2,0.7,0.5,0.9
		c1.3,1,2.9,1.1,4.4,1.5c0.5,0.1,1-0.1,2.1-0.2c-1.9-1-3.3-1.8-4.7-2.4C582.5,23.4,581.6,23.1,580.9,24z M590.8,444.6
		c-3.3-0.1-4.3,0.1-6.9,1.1C586.2,445.6,588.4,446.6,590.8,444.6z M602.1,43.1c1.2,1.7,2,2.8,3.8,4c-0.7-2-0.9-3.4-2.2-4.3
		C603.5,42.7,602.9,43,602.1,43.1z M636.4,25.4c1-0.3,1.3-0.9,1.1-1.5c-0.4-1.1-0.7-2.2-1.9-3C635.4,22.6,635.9,23.9,636.4,25.4z
		 M590.7,6.3c0-0.1,0-0.1,0-0.2c-1.4,0-2.8,0-4.2,0c0,0.1,0,0.1,0,0.2C587.9,6.3,589.3,6.3,590.7,6.3z M595.8,38.7
		c0-0.1,0-0.2,0-0.2c-0.7,0-1.4,0-2.1,0c0,0.1,0,0.2,0,0.2C594.4,38.7,595.1,38.7,595.8,38.7z M583.7,2.7c0-0.1,0-0.2,0-0.2
		c-0.4,0-0.9,0-1.3,0c0,0.1,0,0.2,0,0.2C582.8,2.7,583.2,2.7,583.7,2.7z M589,25.2c0,0.1,0,0.2,0,0.3c0.3,0,0.7,0.1,1,0.1
		c0.1,0,0.2-0.2,0.4-0.6C589.8,25.1,589.4,25.1,589,25.2z"/>
	<path d="M306.5,65.4c-2.1,0.9-3.5,2.5-4.9,4.2c-2.6,2.9-5.5,5.1-9.1,6.5c-0.6,0.2-1.4,0.2-2.1,0.3l0.1,0.1c0.3-0.4,0.5-0.8,0.8-1
		c1-0.7,2-1.4,3-2.2c-5.6,1-11,0.6-15.7-2.8c-4.5-3.3-7.8-7.4-8.3-13.7c-0.6,0.6-1,0.9-1.2,1.3c-0.8,1.8-1.5,3.6-2.2,5.4
		c-0.5,1.1-0.6,2.6-1.3,3.4c-1.6,1.6-1.6,3.5-1.5,5.5c0.2,3.2,0.6,6.3,0.9,9.5c0,0.5,0.3,1,0.3,1.4c-0.3,2.6,1.2,4.4,2.7,6.2
		c1.7,1.9,3.7,3.6,6.4,4.1c2.4,0.4,4.8,1,7.1,1.6c0.9,0.2,1.9,0.4,2.8,0.9c2,1.1,4.2,1.3,6.2,2c3.7,1.3,7.4,2.7,9.3,6.5
		c0.2,0.3,0.5,0.6,0.5,1c0.2,2.7,2,4.7,3,7c1.1,2.5,1.8,5.1,1.9,7.8c0.1,3.2,0.1,6.3-0.7,9.5c-0.4,1.8-0.5,3.6-0.2,5.4
		c0.2,2,0,4.2-0.4,6.2c-1.1,6.5-2.6,12.9-4.2,19.4c-0.3,1.4-0.3,2.9-0.7,4.3c-0.5,2-0.9,4.1-1.7,5.9c-2,4.3-4.1,8.6-6.3,12.8
		c-1,1.9-2.2,3.7-2,6.1c0.1,1.4-0.6,2.8-1,4.3c-1.7,6-3.4,12-4.5,18.2c-0.4,2.3-0.5,4.6-0.5,6.9c0,2.1,0.5,4.1,1.3,6.1
		c2.2,5.5,5.1,10.5,8.8,15.1c6.1,7.6,10.5,16.2,13.4,25.5c0.7,2.3,1.7,4.6,2.5,6.9c1.7,4.8,2.1,9.8,1.8,14.8
		c-0.3,6.7-0.7,13.4-2,20.1c-0.8,4.3-1.7,8.6-2.6,13c-0.2,0.9-0.3,1.9-0.5,2.7c0.3,0.3,0.5,0.5,0.7,0.6c4.4,1.5,8.6,3.6,13,4.9
		c0.9,0.3,1.8,0.8,2.6,1.4c3.9,2.8,6.9,6.6,9.4,10.7c1.9,3.1,0.9,5.9-0.5,8.7c-0.5,1-1.4,1.4-2.5,1.3c-4.6-0.2-9-1-13.2-2.8
		c-2.1-2.2-4.9-1.9-7.5-1.9c-3.6,0-7.1,0.5-10.7,1.6c-0.7,1.2-1.6,2.6-2.3,4c-3.2,5.8-6.5,11.5-9.7,17.3c-0.9,1.6-2,3.1-2.1,5
		c0,0.5-0.3,0.9-0.5,1.4c-2.1,4.7-4.3,9.3-6.3,14.1c-2.2,5.2-5,10.1-6.5,15.5c-0.7,2.6-1.4,5.2-1.7,7.9c-0.4,3.7,0.3,7.3,1.4,10.8
		c0.5,1.6,1.8,3,1.1,4.9c-0.1,0.3,0.2,0.7,0.4,1c1.9,2.9,3.4,5.9,6,8.3c1.3,1.3,2.5,2.7,3.7,4.1c3.3,4.2,5.9,8.7,6.5,14.1
		c0.1,1.1,0.4,2.2,0.7,3.2c0.5,1.9,0.6,3.8,0.3,5.8c-0.2,0.9-0.1,1.9-0.1,2.9c0,1.3,0.1,2.7-0.1,4c-0.8,7.1,0,14.2-0.1,21.2
		c0,2.3,0.1,4.6,0.3,7c0.3,4.8,0,9.5-0.6,14.3c-0.3,2.4-0.5,4.9-0.6,7.3c-0.1,5.1,0,10.2,0,15.5c2.1-1.7,3-1.8,4.7-0.3
		c0.6,0.5,1,1.1,1.5,1.6c0.3,0.4,0.5,0.9,0.7,1.3c2.2,3.1,3,6.4,1.3,9.6c1,4.8,2.2,9.2,2.8,13.7c0.3,2.2,0.5,4.3,1.6,6.3
		c0.6,1.1,1.4,2.2,2.1,3.2c-0.2,1.1-1.3,0.7-1.8,1.2c-0.4,0.5-0.7,1-1.2,1.4c-0.7,0.5-1.5,0.9-2.2,1.2c-1.2,0.5-2.5,0.9-3.8,1.3
		c-0.7,0.3-1.5,0.5-1.9,1c-1.2,1.3-2.7,2.1-4.1,3c-1.1,0.7-2,1.7-2.6,3c-0.5,1.1-1.2,2.1-2.1,2.9c-2.5,2.2-5,4-8.2,5.1
		c-3.8,1.3-7.7,2.4-11.7,3c-2.2,0.3-4.4,0.4-6.6,0.2c-1.6-0.2-3.2-0.4-4.8-0.5c-1.7-0.1-3.4-0.6-4.9-1.3c-1.6-0.8-3.3-1.4-5.2-1.6
		c-2.3-0.1-4.8-3.3-5-5.7c-0.1-1.2,0.8-1.7,1.5-2.4c0.1-1.4,0.1-2.9,0.2-4.4c3.7-2.6,7-5.7,11.1-7.7c1.2-0.6,2.2-2,2.9-3.2
		c2.7-4.5,5.4-9,8-13.6c0.5-0.8,0.5-1.8,0.7-2.8c0.5-2.8,1-5.5,1.5-8.3c0.3-1.5,0.9-2.7,2.3-3.6c1.5-0.9,2.1-2.3,2.1-4
		c0-4.5,0.2-9-1-13.5c-1.1-4.1-1.7-8.4-2.5-12.6c-0.8-4.3-2.2-8.5-3.4-12.7c-1.9-6.5-4.5-12.6-6.8-18.9c-0.9-2.5-1.8-5.1-2-7.8
		c-0.1-1.2-0.6-2.3-1-3.5c-1.2-3.5-2.4-6.9-3.5-10.4c-1.1-3.5-1.9-7.1-2.1-10.8c-0.2-3.6-1.9-6.8-3.2-10.1c-0.4-1-1.3-1.8-2.1-2.5
		c-1.4-1.3-2.4-2.8-3.1-4.5c-0.8-1.8-1.7-3.5-2.5-5.3c-1-2.3-1.3-4.7-0.4-7.2c0.6-1.8,0.9-3.8,1.4-5.9c-1.6-2.1-1.4-4.7-1.2-7.3
		c0-0.6,0.2-1.2,0.3-1.8c0.1-1.3,0.1-1.3-1.7-2.6c-0.5,1.1-0.9,2.2-1.4,3.4c-0.9-0.3-0.5-1-0.4-1.5c0.5-2.2,1-4.3,1.5-6.4
		c0.2-0.7,0.2-1.6,0.7-2c1.3-1.2,1.3-2.8,1.5-4.4c0.3-4,1-8,2-11.9c1.2-5.1,2.3-10.3,3.1-15.5c1-6.4,2.5-12.7,3.9-19
		c1-4.5,2-9.1,3-13.6c0.2-1.1,0.5-2.2,1-3.1c1.2-2.4,1.3-4.9,1.7-7.5c-1.2-1.1-2.7-1.4-4.1-1.8c-2.5-0.6-5-1.1-7.5-1.7
		c-4.4-1.1-8.8-2.3-13.2-3.3c-3-0.7-6-1.3-8.9-1.9c-3.1-0.6-6.2-1.1-9.3-1.7c-0.8,0.5-0.9,1.2-1,1.9c-1.7,7.4-3.3,14.8-5.2,22.1
		c-1.2,4.6-2.7,9.1-4.1,13.7c-1.1,3.7-2.2,7.5-3.4,11.2c-1.2,3.8-1.5,7.6-1.6,11.6c-0.2,7.9-0.5,15.9-0.8,23.8c-0.2,5-0.3,10-0.4,15
		c-0.1,3,0.8,5.8,2,8.5c0.4,0.8,0.8,1.5,1.1,2.3c1.3,3.1,3.9,4.9,6.4,6.8c1.4,1.1,3.1,1.9,5.1,1.8c0.2,0,0.5,0,0.7,0.1
		c5.9,1.6,11-1,16.1-3.5c1.1-0.5,1.6-1.5,1.9-2.6c0.4-1.5,0.6-3.1,1.7-4.4c0.2-0.2,0.2-0.7,0.2-1c-0.2-2.2,1-3.9,2.1-5.7
		c0.1-0.1,0.2-0.1,0.6-0.2c-0.1,1.3-0.2,2.6-0.3,4.1c2.3-1.1,3.4-2.9,5.2-4.9c-0.1,1.3,0.1,2-0.2,2.6c-0.7,1.4-1.3,3-2.5,4
		c-2.6,2.2-4.1,5.1-5.6,8c-0.1,0.2-0.2,0.4-0.3,0.4c-2.7,2.5-6,3.7-9,5.1c-0.9,0.4-1.9,0.5-2.8,0.6c-3.9,0.4-7.8-0.3-11.7-0.9
		c-2.5-0.4-4.7-1.7-6.2-4c-2.6-4-4.1-8.3-5.3-12.8c-2-7.7-2.5-15.4-1.9-23.3c0.5-5.8,0.7-11.7,0.9-17.6c0.3-6.9,1.6-13.6,2.9-20.3
		c1-4.9,2.2-9.8,3.4-14.7c0.9-4,1.9-8.1,2.9-12.1c1.5-5.9,2.8-11.9,4.5-17.8c1.3-4.3,3.1-8.5,4.9-12.6c0.9-2.1,2.3-4,3.7-5.9
		c2.8-3.7,4.6-7.8,5.6-12.2c0.4-1.8,0.3-3.7,0.2-5.5c-0.2-2.6-0.4-5.1-1-7.6c-1.2-5.2-1.4-10.4-1.1-15.7c0.3-4.9,0.5-9.8,0.7-14.7
		c-1.8,0-1.1-1.6-1.9-2.4c-1.6,1.3-3.2,2.5-4.8,3.7c0.4,1.6,2.4,2.6,1.4,4.2c-1.3-1.1-2.5-2.3-3.9-3.3c-1.8-1.3-3.4-2.7-4.2-4.9
		c-2.9-0.1-5.7,0.2-8.5-1.3c-1.3,2.1-1.6,4.6-2.6,6.7c2.3,1.2,2.3,1.2,6.2-2.2c0.9,0.3,0.6,1,0.3,1.4c-0.5,0.8-1.2,1.5-1.9,2.3
		c0.3,0.5,0.7,1.1,1.1,1.7c-3.2,1-5.5-0.9-8-2.1c0.3-0.5,0.5-0.9,0.6-1.1c0.1-0.2,0.3-0.3,0.6-0.6c-0.2-0.2-0.5-0.6-0.7-0.6
		c-1.5,0.3-3.1,0.7-4.4,1c-1.1,1.9-1,3.8-1.2,5.8c3.7,2.6,7.6,4.1,12.4,2.5c0.1-0.6,0.2-1.1,0.3-1.7c0.1-0.6,0.1-1.2,0.2-1.7
		c0.8-0.4,1-0.1,1.1,0.5c0,0.4,0.1,0.8-0.1,1.1c-0.7,1-0.3,2-0.1,3.2c-2.4,1.3-5.1,0.3-7.6,1.2c-2.2-0.9-4.4-1.9-6.5-2.8
		c-1,0.4-1.1,1.2-1,1.9c0.1,1,0.4,1.9,0.6,2.7c4.1,2.4,5.3,2.6,7.9,1.6c0-0.6,0.1-1.2,0.1-1.8l-0.1,0.1c0.2,0.2,0.6,0.4,0.7,0.6
		c0.4,1.9,0.4,1.9,2.3,2.2l-0.1-0.1c-0.4,0.3-0.7,0.7-1.1,0.8c-2.7,0.3-5.4,0.6-8-0.5c-0.9-0.4-1.9-0.6-2.8-0.9
		c-2.1-3.3-1.3-6.3,0.8-9.4c-0.9-1.5-0.1-3.1,0.3-4.7c0.2-0.6,0.8-1.2,1.4-1.6c1.6-1,3.4-1.9,5.4-3.1c0.1-0.2,0.3-0.8,0.7-1.2
		c1.4-2,3-3.3,5.8-2.5c1.7,0.5,3.6,0.3,5.7,0.5c0.8,1.3,1.7,2.7,2.7,4.4c3.4-1.5,6.4-3.5,9.3-6c0.4-6.3,1.5-12.5,0.7-18.9
		c-0.6-5.1-1.4-10.1-3-15.1c-0.1-0.3-0.2-0.7-0.2-1.1c0.1-4-1.6-7.6-2.2-10.9c-2.5-1.9-4.7-3.5-6.7-5.2c-1.9-1.6-3.7-3.2-5.5-4.9
		c-1.9-1.6-3.3-3.6-4.4-5.8c-0.9-1.9-1.7-3.8-0.7-6c0.3-0.6,0.2-1.5,0-2.1c-1.4-4.3-0.1-8.2,1.5-12.1c0.9-2,1.7-4,2.3-6.1
		c0.4-1.5,1.2-2.9,2-4.6c-1.1-3.5-1.6-7.3-1.8-11.2c-0.1-1.7,0-3.5-1.3-5.1c-0.3,0-0.8,0-1.2-0.1c-2.3-0.6-3.1-1.6-2.9-3.9
		c0.1-1.4,0.3-2.7,1.3-3.7c0.7-0.7,1.2-1.5,1.9-2.4c0.9-0.2,1.8-0.4,2.8-0.5c1.9,0,3.5-0.4,4.6-2.1c1.1-1.6,3.2-1.1,4.7-1.8
		c1.8,0.9,3.3-0.2,5-0.4c0.7-0.1,1.4-0.2,2.2-0.3c2.4,0.7,3.9,2.9,5.8,4.2c1.4,0.1,2.5-0.6,3.4-1.3c2.7-2.3,5.1-4.8,6.1-8.5
		c1.3-5,1.9-10.1,2.2-15.2c0.1-1.2,0.1-2.4-0.6-3.6c-2.2,0.4-4.3,0.8-6.5,1.1c-3.3,0.5-6.3-0.4-9.2-1.7c-2.1-1-3-3.2-2.5-5.6
		c0.2-0.8,0.5-1.6,0.8-2.7c-1.3-1.6-1.9-3.5-0.1-5.5c-1.4-1.2-2-2.5-1.4-4.3c0.3-0.9,0.4-1.9,0.6-2.9c-0.7-0.5-1.3-0.8-1.9-1.3
		c-2.4-1.8-2.7-3.9-0.9-6.2c1.9-2.4,3.3-5.1,3.9-8.2c-0.7-0.6-1.3-1.1-2-1.7c0.8-0.2,1.4-0.4,2-0.6c-0.2-0.3-0.2-0.7-0.4-0.9
		c-2.9-3.5-2.5-7.3-0.9-11.1c1.7-4.1,3.5-8.1,5.3-12.1c2.1-4.6,7-8.4,11.9-9.4c1.2-0.2,2.4-0.6,3.5-1c5.5-2,11.2-2.6,17-2.6
		c2.9,0,5.9,0.5,8.7,1c2.9,0.5,5.5,1.6,7.6,4c1.6,1.8,3.8,3,5.8,4.5c0.3-0.2,0.6-0.4,0.9-0.6c6-4.6,14.9-2.8,19.5,3.5
		c2,2.7,3.3,5.7,4.3,8.9c0.9,2.8,1.7,5.6,2.3,8.5c0.3,1.6,0.5,3.2-0.4,5c-0.7,1.3-0.7,3.1-0.8,4.7c-0.4,5.3,0.4,10.5,2.2,15.5
		l0.1-0.1c-1.7-0.8-2.3-2.4-2.8-4.1c-0.9-3.1-1.5-6.2-1.5-9.4c0-3-0.1-6.1,1-9c1-2.8,0.5-5.5-0.8-8.1c-1-2-2.1-3.9-3-5.9
		c-1.2-2.8-3.4-4.1-6.1-4.8c-3.3-0.8-6.5-0.9-9.7,1.5c1.2,0.4,2,0.7,2.9,0.9c1.5,0.5,3.1,0.8,4.5,1.4c5.2,2.1,8.4,6.1,9.9,11.5
		c0,0.2-0.1,0.4-0.2,0.6c-5.2-8.9-10.4-11-17.2-11.7c-0.1,0.1-0.3,0.2-0.3,0.2c0.1,1,0.3,1.9,0.4,2.8c0.4,0.3,0.6,0.6,0.9,0.7
		c3.8,1.3,6.2,4.2,8.4,7.4c0.2,0.3,0.1,0.7,0.1,1l0.1-0.1c-1.5-0.5-2.1-2-3.1-3c-1.6-1.5-3-3.2-5.2-3.9c-0.7,0.5-0.4,1.1-0.2,1.7
		c1,3.3,1.4,6.7,1,10.1c-0.3,2.6,0.3,5.4-0.4,8c-0.1,0.3,0,0.7,0,1.1c1.1,9.4,5.6,16.8,13.4,22.2c2.3,1.6,3.4,1.6,5.7,0
		c1.5-1.1,2.7-2.4,3.3-4.4c-0.9-1-2.1-1.5-3.4-1.9l0.1,0.1c-1.7-2.3-3.5-4.6-5.2-7c-1-1.4-1.7-2.9-1.3-5.2c1.5,1.6,1.5,3.6,2.7,4.9
		c1.1,1.3,2,2.8,3.1,4.1c1.2,1.4,2.4,2.7,4.4,3.4c3-5.6,1.7-11.5,1.5-17.1c0.5,0,0.8,0,1.2,0c0.1-4.1-0.5-7.3-2.2-11.8
		c6.7,2.5,12.8,8,13,22.1c0.8,0.1,1.1-0.5,1.2-1c0.3-1.7,0.6-3.3,0.9-5.1c0.3,0,0.6,0,1,0c0.4-0.7,0.8-1.4,1.6-2.6
		c0,4.9-1.9,8.6-3.2,12.6c-1.2,3.8-3.8,6.8-6.7,9.9C306.5,66.5,306.5,65.9,306.5,65.4c0.5,0,0.7-0.3,0.7-0.8
		c0.2-0.2,0.5-0.5,0.7-0.7c0.3-0.2,0.5-0.4,0.8-0.7l0.1-0.1l0,0.2c-0.2,0.2-0.5,0.5-0.7,0.7c-0.5-0.1-0.8,0.1-0.8,0.7
		C306.7,64.6,306.4,64.8,306.5,65.4z M217.6,12.4c0.3-0.2,0.5-0.5,0.8-0.7c0.2-0.3,0.5-0.5,0.7-0.8l0.2-0.1l-0.1,0.2
		c-0.2,0.3-0.5,0.5-0.7,0.8C218.2,12,217.9,12.2,217.6,12.4l-0.1,0.2L217.6,12.4z M268.9,52.1c-0.7,0.8-1.9,1.1-2.1,2.3
		c-1.1,0.4-2.2,0.7-3.3,1.1c-0.9,0.3-1.6,0.1-2.1-0.6c2.9-0.4,4.9-1.6,6.8-4.2l0.1-0.1l-0.1,0.2c-0.5-0.1-0.9-0.3-1.6-0.5
		c1.5-1.4,3-2.7,4.3-4.1c1.6-1.6,2.7-3.5,2.3-5.9c0,0,0.3-0.2,0.1,0.1c-1.1-0.1-1.9,1.2-3.1,0.5c0.9-0.8,2.1-1.4,2.7-2.3
		c0.5-0.8,2.3-1.2,1.2-3c-2.7,2-5.5,3.5-8.8,3.6c1-0.7,2.1-1.1,3.2-1.7c2-1,4-1.8,5.3-3.8c0.3-0.5,0.6-1.1,0-1.7
		c-0.9,0.3-1.7,0.8-2.6,1c-0.9,0.3-1.9,0.5-2.9,0.6c-4.6,0.2-9,1.9-13.6,2.4c0.7,1.1,1.3,1.3,2.3,0.9c2.1-0.9,3.7-0.1,5.3,1.3
		c1.7,1.4,2.3,3.1,2.4,5.1c0,0.7,0,1.5,0.1,2.2c0.2,0.8,0.6,1.5,1,2.3c-0.2,1.5-1,2.8-1.9,4c-0.8,1.1-1.6,2.2-2.4,3.2
		c-0.5,0.9-1.1,1.8-1.8,3c2.2-0.2,3.9-0.7,5.4-1.8c0.7-0.5,1.1-1.2,1.6-1.9C268.7,54.1,268.8,54,268.9,52.1L269,52L268.9,52.1z
		 M236.7,4.4c1.5-0.1,3.1,0.2,4.4-0.7c4.2,0,8.3-0.1,12.5-0.4c-3.6-0.3-7.2-0.7-10.9-0.2c-0.5,0.1-1,0.5-1.6,0.7
		c-1.1,0-2.2-0.1-3.3,0C237.5,3.8,237.2,4.2,236.7,4.4c-0.1,0.1-0.4,0.1-0.6,0.1c-0.1,0-0.2,0.2-0.2,0.3c0.1,0,0.2,0,0.3,0
		C236.4,4.7,236.5,4.5,236.7,4.4z M227.9,10.3c1.1-0.4,2.3-0.6,3.1-2c-1.3,0.6-2.5,0.9-3,2.1c-0.7-0.2-1.3-0.1-1.6,0.6
		c-2.1,1-2.1,1-4.1,3.7c0.3,0.5,1,0.6,1.2,0.2c0.7-1.5,2.3-2.4,2.9-4C227,11.1,227.5,10.9,227.9,10.3z M275.5,53
		c0-0.8-0.1-1.5-0.2-2.6C274.7,51.5,274.9,52.3,275.5,53c0.5,2.2,1.1,4.3,3.1,5.7c0.2,0.6,0.4,1.3,0.6,1.9c0.2,0.6,0.5,1.2,0.8,1.8
		l0,0c-0.9,0-1.2-0.7-1.7-1.2c-1.7-2.4-3.2-4.9-4.2-7.7c-0.3-0.8-0.6-1.6-1-2.7c-2,3.3-1.5,6.4-0.3,9.3c1.1,2.7,3,5,5,7.2
		c2.4,2.5,5.3,3.9,8.6,4.5c2.7,0.5,5.1,0.1,7.4-1.1c-0.6-0.5-1.1-1.2-1.7-1.3c-1.7-0.3-2.7-1.6-4-2.3c-3.3-1.8-5.9-4.3-8.2-7.2
		c-0.3-0.4-0.9-0.7-1.4-1.1C277.9,56.6,277.1,54.6,275.5,53z M233.7,3.7c-2.2-0.1-4.2,0.8-6,2c-0.1,0.1,0,0.4-0.1,0.9
		C229.8,5.7,231.9,5.1,233.7,3.7c0.4-0.1,0.9-0.2,1.4-0.2c0-0.1-0.1-0.2-0.1-0.4C234.6,3.3,234.1,3.5,233.7,3.7z M264.6,22
		c3.3-0.7,5-1.7,6.4-4c-0.7-0.1-1.4-0.2-2.1-0.3c0.4-0.7,0.8-1.4,1.2-2.2c-2-2.2-3.9-4.2-6.4-5.7c-3.5,0.3-7,0.6-10.5,0.9
		c-1.8,0.2-3.6,0.2-5.4,0.6c-1.2,0.3-2.3,0.5-3.6,0.4c-1.9-0.1-1.9,0-4.1,1.5c0.9,0,1.6,0,2.3,0l-0.1-0.1c-1.2,1.3-3.1,0.8-4.6,2.3
		c1.3-0.1,2.4-0.2,3.4-0.3c1.4-0.1,2.8-0.2,4.3-0.4l-0.1-0.1c0.4,0.2,0.8,0.7,1.1,0.7c0.8,0,1.7-0.2,2.5-0.4
		c2.9-0.7,5.7-1.4,8.5-2.1c1.8-0.4,3.6-0.7,5.4-0.9c1.1-0.1,2.2,0.2,2.9,1.2c0.3,0.5-0.1,1.4-0.6,1.5c-1.5,0-2.9-0.1-4.4,0.1
		c-2.8,0.4-5.5,0.9-8.3,1.4c-3,0.6-6,1.1-8.8,2.5c0.7,0.3,1.3,0.5,1.9,0.8c0,0.6,0,1.1,0,1.8c-1.3,0-2.5,0.1-3.7,0
		c-1.1-0.1-2.2-0.3-3.2-0.6c-1.1-0.3-2.1-0.8-3.6-1.3c0.4,1.1,0.6,1.9,0.9,2.8c1.6,0,3.1-0.2,4.5,0c1.4,0.2,2.8,0.9,4.2,1.3
		c0.9,0.3,1.9,0.4,2.9,0.6c2.1,0.4,4.1,0.5,6.1-0.3c3.1-1.1,6.2-2.2,9.3-3.2c0.5,0.3,1,0.5,1.5,0.8C264.6,21.5,264.6,21.8,264.6,22
		c-2.6,0.2-5,1-8.1,3c-2.6,0.5-5.1,1-7.7,1.6c-0.7,0.2-1.5,0.4-2.2,1.2c2.4,0.4,4.4,0.9,6.4,1c1.9,0.1,3.9-0.2,5.8-0.3
		c0,0.3,0,0.6-0.1,0.8c-2.4-0.4-4.5,0.8-6.8,1.1c-1.8,1.7-3.8,1.2-5.9,0.9c-1.5-0.3-3-0.6-4.7-1c0.5,1.3,1.6,1.5,2.5,1.7
		c2.2,0.6,4.6,0.9,6.7,1.8c2.7,1.2,5.3,0.9,7.9,0.2c3.1-0.8,6.1-1.9,9.1-2.8c0.4-0.1,0.9-0.2,1.2-0.3c0.3,0.5,0.5,0.8,0.7,1.2
		c1.6-1,3.3-1.6,4.5-3.1c0-1.9-0.3-3.6-0.9-5.6c-1.1,0.6-2,1.2-2.9,1.7c-4.5,2.7-9.2,5-14.3,6.4l0.1,0.1c0.1-0.9,1-0.8,1.5-1.3
		c0.4-0.4,1.2-0.3,1.2-1.1c0.4-0.1,0.8-0.1,1.2-0.2c0-0.1,0-0.2,0-0.3c-0.4-0.1-0.8-0.1-1.2-0.2c1.2-0.9,2.5-1.4,4-1.3
		c1.2,0.1,2.1-0.3,3.1-0.8c1.5-0.8,3-1.6,4.4-2.5c0.9-0.6,1.9-1.1,2.4-2.4c-0.2-0.4-0.5-0.9-0.8-1.4c-1,0.6-1.8,1.1-2.6,1.6
		c-3.1,1.9-6.5,3.2-10.1,3.9c-1,0.2-1.9,0.3-2.6-0.7c2.9,0,5.5-1.2,8-2.6C264.5,22.3,264.5,22.1,264.6,22z M283.7,11.7
		c0,0.6,0.6,0.8,0.8,0.4C284.7,11.6,284,11.7,283.7,11.7c-0.3-0.3-0.5-0.8-0.9-1c-4.2-2.3-8.5-2.1-13.2,0.1c1,0.5,1.6,1,2.2,1
		C275.8,11.4,279.7,11.2,283.7,11.7z M299,67.4c0.6,0.3,1.2,0.1,1.6-0.4c0.7-0.8,1.5-1.7,1.9-2.6c1-2.2,2.1-4.4,2.8-6.7
		c1.3-4,1.3-8,0.6-12.1c-0.2,0.7-0.3,1.4-0.3,2.1c-0.3,3.5-0.6,7-1.8,10.4C302.7,61.5,301,64.5,299,67.4c0,0.1-0.1,0.2-0.1,0.3
		c0,0,0,0.1,0,0.2C298.9,67.7,299,67.6,299,67.4z M306.4,61.6c0.3-0.1,0.8-0.1,1-0.3c2.3-2.3,3.8-4.7,3.6-8.3
		c-0.3-4-1.1-7.7-2.9-11.3c-1.4-2.8-3.2-4.7-6.1-6.6c1.2,1.7,1.6,3.5,3,4.6c1.8,1.4,2.4,3.4,2.8,5.4c0.6,3,0.9,6.1,0.3,9.1
		C307.6,56.7,307,59.2,306.4,61.6l-0.1,0.2L306.4,61.6z M240.4,9.5c-0.4-0.9-1.2-0.6-1.8-0.4c-3.9,1.2-7.7,3-11.3,4.9
		c-0.3,0.2-0.5,0.5-0.8,0.7c-1.3,0.7-2.5,1.4-3.9,2.1c-0.9-0.5-1.9-1-2.8-1.5l0.3,0l-0.2,0.1c-1,0.9-1.8,0.1-2.5-0.3
		c-2.2,0.6-3.2,2.2-3.7,4.2c-0.3,1.2-0.7,2.4-1,3.5c-0.8,2.4-1.3,4.9-2.5,7.3c-1,2-0.9,2.8,0.9,4.1c1.6,1.1,1.8,2.5,1.8,4.1
		c0,0.7-0.3,1.4-0.4,2.1c-0.9,3.1-2.2,5.9-4.1,8.5c-0.6,0.8-1.2,1.6-0.9,2.8c0.8,0.8,1.7,1.5,3.1,0.8c1.6-0.8,2.5,0.2,3.3,1.7
		c-0.8,0.2-1.5,0.3-2.4,0.5c-0.1,0.8-0.1,1.6-0.3,2.4c-0.2,0.8-0.7,1.5-1.1,2.1c1.6,1.7,2,2,3.4,2c1.2,0,2.4-0.1,3.7-0.1
		c0.5,0,0.8,0.4,0.7,1c-1.7,1.5-3.7,0.5-5.8,0.6c-0.6,0.7-1.1,1.4-1.7,2.1c0.8,1,1.5,1.9,2.2,2.8c-0.4,1-0.9,1.8-1.2,2.7
		c-0.6,1.7,0.2,4,1.7,4.3c2.7,0.6,5.4,1.8,8.3,0.9c1.8-0.6,3.7-0.3,5.5-0.2c2.3,0.1,3.3,1.2,3.6,3.4c0.1,0.8,0.3,1.7,0.2,2.5
		c-0.4,3.5-0.7,7-1.8,10.5c-0.9,2.9-2.1,5.7-2.3,8.8c-0.1,0.9-0.7,1.8-1.2,2.6c-0.6,0.9-1.4,1.7-2,2.6c-1,1.6-2.5,2.2-4.3,2.3
		c0-0.2,0-0.4,0-0.6c0-0.1-0.1-0.2-0.2-0.3c-0.1,0.2-0.3,0.4-0.3,0.5c0.1,0.2,0.3,0.3,0.5,0.4c0.5,1.7,1.8,3.2,1.4,5.1
		c0,0.3,0.2,0.7,0.5,0.9c0.8,0.9,0.8,2,0.6,3.1c-0.7,3.7,0.2,7.2,0.7,10.7c0.7,0.2,1.4-0.4,2,0.5c-0.4,0.6-1,1.2-1.4,1.9
		c-0.5,0.9-0.6,1.8,0.3,2.6c1.1,0.1,2-0.1,2.8-0.8c0.5-0.5,1.1-1,1.7-1.3c2.8-1.5,5.7-2.9,7.5-5.7c0.1-0.2,0.4-0.3,0.6-0.5
		c3.7-2.3,6.4-5.7,9.3-8.8c3.8-4.1,7.3-8.5,10.7-13c2.6-3.5,5.9-6.5,8.8-9.8c0.2-0.2,0.6-0.1,0.9-0.2c0.5,0.8-0.1,1.3-0.5,1.7
		c-1.7,1.9-3.5,3.8-5.2,5.7c-2.5,2.6-4.5,5.5-6.1,8.6c-0.5,1-1.1,1.9-1.8,2.7c-1.6,2-3.3,3.9-5,5.9c-3.6,4.4-7.7,8.2-12.5,11.2
		c-0.6,0.4-1.2,0.9-1.6,1.5c-0.7,1.1-1.6,1.8-2.8,2.3c-1.8,0.8-3.6,1.5-5.4,2.3c-0.4,0.2-0.7,0.5-1.1,0.8c2.5,1.9,3.6,3.3,5,6
		c0.8,1.6,1.7,3.3,2.7,4.8c2.7,3.9,5.6,7.7,8.4,11.6c1.6,2.2,2.9,4.5,4.6,6.6c2.1,2.8,4.4,5.6,7.5,7.4c1.4-0.2,2.7-0.5,4-0.7
		c0.1,0,0.3,0.2,0.5,0.3c-0.6,0.9-2,0.8-2.7,1.9c1.9,1.7,3.9,3.2,6.1,4.3c1,0.7,1.9,1.6,3,2.1c3.6,1.9,5.5,5.1,7.3,8.3
		c-0.5,0.9-1.2,0.7-1.5,0.2c-2.4-3.5-5.9-5.7-9.5-7.9c-3-1.9-5.9-4-8.4-6.4c-6.1-5.9-11.3-12.5-16.2-19.4c-2.7-3.8-5-7.8-7.2-11.9
		c-1.7-3.1-3.6-6.3-6.8-8.3c0-0.7,0-1.4-0.1-1.9c-0.8-5.3-1.4-10.6-1-16.1c0.1-1.6-0.1-3.2-0.3-4.7c-0.1-0.7-0.6-1.3-0.9-1.9
		c-1.6-2.6-4-4.2-6.3-6.1c-1.6-1.3-3.1-1.1-4.8,0.2c0.7,0.7,1.2,1.3,1.9,1.8c0.6,0.6,1.4,1,2,1.6c0.5,0.5,1.5,0.5,1.7,1.6
		c-2.6-0.6-3.8-1.2-5.9-2.9c-0.8-0.7-1.7-1.4-2.7-1.8c-0.7-0.3-1.7-0.5-2.4-0.3c-0.7,0.2-1.2,1-1.9,1.5c1.8,1.8,3.5,3.3,5.8,4.2
		c0.1,0,0.2,0.3,0.3,0.6c-0.7,0.3-1.4,0.5-2.1,0.8c-2.1-1.5-3.8-3.6-6.4-4.4c-0.4,0.4-0.9,0.8-1.2,1.1c0.4,2.5,2.1,4.6,2,7
		c-0.9,0.2-1.3-0.2-1.6-0.8c-0.7-1.7-1.3-3.4-2-5.1c-0.3-0.7-0.7-1.3-1.6-1.2c-1.9,1.4-2.4,3.5-2.7,5.6c0.4,0.7,0.7,1.4,1.7,1
		c0.5-0.7-0.8-1.6,0.3-2.5c0.4,0.5,1.1,1,1.2,1.5c0.5,1.5,1.2,2.9,1.8,4.4c1.2,2.7,2.6,5.5,1.6,8.8c-0.2,0.5,0,1.2,0.1,1.8
		c0.4,1.5,0.9,3,1.3,4.6c0.8,2.9,2,5.5,4.9,7c0.3,0.2,0.5,0.5,0.8,0.8c0.8,0.9,1.8,1.7,3.1,1.8c1.3,0.1,1.9,0.9,2.5,1.9
		c0.3,0.5,0.5,1.1,0.8,1.6c3.1,4.4,5.7,9.1,7.2,14.3c1.5,4.9,3.7,9.6,5.6,14.3c2.3,5.5,5.3,10.8,8.2,16c0.5,0.8,1.1,1.6,1.7,2.3
		c1.4,1.6,3,3.1,4.3,4.8c3.6,4.5,7.7,8.5,11.9,12.4c1.6,1.5,3.5,2.9,4.6,4.7c1,1.6,2.3,2.8,3.6,4c1.5,1.5,3.2,2.6,5.5,2.9
		c3.6-2.1,6.7-4.7,9.3-8c4-5.2,7.1-10.8,9.4-16.9c0.9-2.4,1.7-4.9,2.8-7.2c2.2-4.6,4.5-9.2,6.9-13.8c2.5-4.9,4.5-10,4.6-15.7
		l-0.1,0.1c0.3-0.5,0.6-1,0.8-1.6c1.5-6.4,2.9-12.9,4.5-19.2c1-4,1.6-8.1,1.9-12.3c0-0.7,0.1-1.5,0.4-2.1c0.6-0.9,0.5-1.8,0.3-2.8
		c-0.5-2.4-1-4.8-1.6-7.1c-0.3-1.3-0.6-2.6,0.1-4c-1.2-1.6-2.5-3.1-3.5-4.8c-2.1-3.4-5.3-5-8.9-5.9c-3.8-0.9-7.5-2.1-11.4-2.7
		c-1.8-0.3-3.6-0.7-5.5-1.1c-3,2-6.1,4.2-8.4,7.2c-4.6,5.9-8,12.6-11.7,19c-0.2,0.4-0.4,0.9-0.6,1.3c-2.1,5.6-1,10.8,2.4,15.6
		c0.6,0.8,1.4,1.4,2.1,2c2.7,2.1,5.7,3.1,9.3,3.7c0.9-1.9,1.8-3.8,2.5-5.2c-0.2-1.7-0.5-2.8-0.5-4c0-1.2,0.4-2.3,1.3-3.4
		c1.3,1.4,1.9,2.8,1.7,4.5c-0.2,1.7-0.6,3.4-1.1,5c-1.5,4-3.2,7.9-4.6,12c-1.2,3.7-2.1,7.5-2.6,11.4c-0.2,2.2-0.5,4.4-1,6.5
		c-0.4,1.5-0.9,3-0.7,4.7c0.1,0.7-0.5,1.1-1.2,1.1c-0.4-3.5-0.3-7.1,0.3-10.6c1-5.6,1.9-11.3,4.1-16.7c0.3-0.8,0.5-1.6,0.8-2.6
		c-0.8-0.3-1.5-0.6-2.2-0.7c-3.3-0.5-5.8-2.5-8.2-4.6c-2.6-2.2-4.2-5.1-4.8-8.4c-0.3-1.9-0.6-3.9-0.6-5.8c0-1.5,0.6-3.1,1.1-4.6
		c0.5-1.5,1.3-2.9,1.8-4.4c2.2-6.6,5.4-12.6,9.7-18c1.8-2.3,3.9-4.4,6.7-5.5c0.5-0.2,1-0.6,1.7-1c-1.8-1.6-3.4-3.1-4.7-4.3
		c-0.3-1.3-0.4-2.3-0.8-3.1c-2.3-5-2.9-10.3-2.7-15.8c0.1-1.9,0.2-3.9,0.3-5.9c-1.8-1-3.6-1.9-3.9-4.1c1,0.1,1.9,0.3,2.9,0.2
		c0.9-0.1,1.8-0.5,2.7-0.8c0.1,0.5,0.2,0.9,0.2,1.4c1.7-1.5,1.7-1.5,2.6-5.1c-2.3,1.2-4.5,2-6.9,2.3c-1.1,0.1-1.6,1-1.5,2.1
		c-0.7,0.5-1.4,1-2.2,1.6c-0.9-0.2-2-0.2-3-0.6c-1-0.3-1.6-1.1-1.5-2.2c0-0.3,0.3-0.6,0.5-0.9c0.8,0.6,1.4,1,2.1,1.5
		c1.3-0.3,2.3-1.1,3-2.1c0.9-1.3,1.9-2.6,2.8-3.9c1.4-2,2.8-4,4.2-6c-1-1.5-1.9-0.5-2.8-0.1c-0.2,0.9-0.4,1.9-0.7,2.8
		c-0.4,1.2-1.2,2.2-2.3,2.7c-0.9,0.4-1.7,0.4-2.1-1c1-1.8,3-3.5,2.5-6.3c-0.8-0.6-1.3-1.9-2.3-2.7c-2.4,1.8,0.3,2.9,0.3,4.2
		c-0.8,1.8-1.5,3.6-2.3,5.5c-1.4-0.7-2.3-1.6-2.6-3.2c1-0.8,1.9-1.5,2.8-2.2c-0.1-0.4,0-0.6-0.2-0.8c-1.1-2.1-0.5-3.8,1.2-5.2
		c0.8-0.6,1.5-1.2,2.3-1.8c1.5-1,2.4-0.8,3.2,0.8c0.4,0.8,0.7,1.5,1.1,2.3c0.3,0.7,0.5,1.4,0.9,2.3c0.9-1.9,0.3-3.5-0.6-4.8
		c-0.8-1.2-1.9-2.2-3-3.2c-0.7-0.5-1.7-0.5-2.4,0.1c-0.7,0.6-1.4,1.3-2,2.1c-1,1.4-2.4,2.5-4,3c-0.7,0.3-1.7,0.2-2.5,0
		c-0.9-0.3-1.7-0.8-2-2.1c0.9,0.1,1.7,0.3,2.6,0.4c0.8,0,1.5-0.2,2.8-0.4c-3.8-0.8-3.8-0.8-6.5-3.2c-0.4-0.3-0.7-0.6-1.1-0.9
		c-2.1-1.5-4.1-2.9-6.5-4.6c1.7-1,0-1.7,0.1-2.5c0.2-1.6-1.3-1.6-1.9-2.5c-0.1-0.8,0-1.7-0.3-2.4c-1.1-2.3-1.1-4.7-1-7.2l-0.1,0.1
		c0.6,0.1,1.2,0,1.8,0.2c2,0.6,3.8-0.2,5.6-0.7c0.1,0,0.2-0.4,0.3-0.6c-0.9-0.5-1.9-0.2-2.8,0c-0.8,0.2-1.6,0.1-2.4-0.4
		c-2.5-1.5-5-1.2-7.7,0.1c-0.6-0.5-1.4-1.1-2.1-1.7c3.3-2,6.7-3.7,10.4-4.6c1-0.2,1.9-0.9,2.9-1.3c0.1,0.2,0.3,0.5,0.4,0.6
		c0.9,0.1,1.9,0.3,2.8,0.1c1.1-0.2,1.7,1.2,3,0.5c1-0.5,2.3-0.5,3.5-0.8c3.2-0.6,6.4-1.2,9.7-1.8c0.4-0.1,1,0.1,1.2-0.7
		c-1.8-2.2-4.1-3.1-6.9-2.7c-0.2,0-0.3,0.2-0.6,0.3c0.8,0.2,1.5,0.3,2.2,0.5c-0.5,0.2-1,0.5-2,0.9c1.5,0.2,2.4,0.4,3.4,0.5
		c-1.6,0.4-3.1,0.5-4.7,0.5c-2.8,0.1-5.6,0.1-8.4,0.2C242.5,7.6,241.2,8.2,240.4,9.5z M291.1,263.6c-0.4-0.2-1-0.3-1.2-0.6
		c-1.4-2-2.7-4.1-4-6.2c-0.6-0.9-1.1-1.8-1.7-2.8c-0.8,0.1-1.4,0.1-1.9,0.3c-2,0.5-4,1-6.1,1.4c-4.2,0.8-8.4,1.4-12.6,2.1
		c-5.9,1.1-11.7,2.4-17.8,2.2c-0.5,0-1,0-1.4,0.2c-1.6,0.8-3.4,0.5-5.1,0.5c-2.9-0.1-5.8-0.3-8.8-0.5c-5.3-0.2-10.4-1-15.1-3.8
		c-0.3-0.2-0.8-0.6-1.2,0c0.5,2.9,0.9,5.8,1.4,8.7c0.6,2.9,1,5.8,0.5,8.7c-0.3,1.6,0.2,2.8,1.4,3.9l0.1-0.1c-0.2,0-0.5,0-0.7,0
		c-1.9,0-2.3,0.2-2.7,1.7c-0.4,1.2-0.6,2.4-1.2,3.5c-1.8,3.2-3,6.7-4.4,10c-1.7,4.2-3,8.5-4.4,12.8c-0.1,0.3,0.1,0.7,0.2,1
		c0.8,0.1,1.6,0.1,2.3,0.2c3.3,0.3,6.6,0.5,9.6,2.1c0.7,0.4,1.7,0.3,2.5,0.5c4.7,0.7,9.4,1.4,14.1,2.2c1.6,0.3,3.1,0.7,4.7,1
		c1.7,0.4,3.3,0.7,5,1.2c1.5,0.4,2.9,1,4.5,1.5c0.2-0.5,0.5-0.7,0.6-1.1c0.4-2.3,0.7-4.6,1-6.9c0.2-1.6,0.4-3.1,0.8-4.7
		c0.1-0.4,0.5-0.7,1.2-1.5c0.1,1.4,0.3,2.2,0.2,3c-0.5,4.2-1.1,8.5-1.7,12.7c-0.4,3-0.9,6-1.3,9.1c-0.3,2.4-0.5,4.9-1,7.3
		c-1.4,6.8-2.9,13.6-4.4,20.5c-0.4,1.7-0.6,3.4-1,5c-1.2,4.4-2.7,8.6-3.6,13.1c-1.4,6.3-3,12.6-3.2,19.1c0,1.8-1,3.6,0.3,5.3
		c0.2,0.3,0.1,1,0.1,1.4c-0.1,2.2-0.1,4.4-0.3,6.6c-0.1,1.5-0.1,3,0.6,4.3c0.6,1.2,0.5,2.3,0.1,3.5c-0.7,2.1-1.3,4.2-1.9,6.3
		c-0.5,1.7-0.4,3.3,0.6,4.9c0.9,1.5,1.6,3,2.3,4.6c0.8,1.6,2,2.8,3,4.1c1.1,1.4,1.5,3.3,2.4,4.9c0.9,1.5,2,2.7,3,4
		c-0.3,1-0.6,1.9-0.3,2.9c1,3.4,1.7,6.9,2.6,10.3c0.8,3.2,1.7,6.4,2.7,9.5c1.6,5.2,3.4,10.5,5.1,15.7c0.5,1.4,0.9,2.8,1.5,4.1
		c1.9,4.9,4,9.7,5.9,14.6c1.3,3.4,2.5,6.8,1.9,10.6c-0.1,0.7,0.1,1.5,0.2,2.2c0.3,1.9,0.7,3.8,1.1,5.8c0.3,1.9,0.4,3.9,1.9,5.5
		c0.2,0.2,0.3,0.7,0.4,1c0.3,2.9,0.6,5.8,0.9,8.7c0.2,1.8-0.1,3.6,0.3,5.6c0.8,0,1.6,0,2.3,0.1c1.7,0.3,3.4,0.5,5,1
		c1.7,0.5,3,1.6,3.2,3.6c0.2,1.7,1,3.3,2,4.8c2.2,0.6,4.3,1.5,6.7,1.1c0.8-0.7,1.5-1.4,0.9-2.5c-0.7,0.1-1.2,0.1-1.8,0.1
		c-0.9-1.1-1.6-2-1.8-3.5c-0.5-6.7-1-13.4-0.8-20.1c0.1-2.1-0.3-4.2,0.5-6.2c0.2-0.4,0-1,0-1.4c-0.3-4.8-0.6-9.5-0.8-14.3
		c-0.2-7.7-0.3-15.4-0.4-23.1c0-1.5-0.1-2.9-0.3-4.4c-0.3-2.1-0.3-4.1,0.1-6.2c0.6-3.4,0.4-6.8,0.2-10.3c-0.1-1.1-0.4-2.2-0.9-3.1
		c-1.7-2.8-3.4-5.7-5.4-8.3c-3.1-4.1-6.1-8.3-8.6-12.8c-1.3-2.3-2.3-4.5-2.4-7.2c0-1.5-0.2-2.9-0.4-4.4c-0.2-1.3-0.1-2.7-0.9-3.9
		c-0.3-0.5-0.4-1.2-0.3-1.7c1-4.7,1.7-9.4,3.5-13.9c1-2.5,1.9-5,2.7-7.5c1.2-4,2.8-7.8,4.6-11.6c3.2-6.5,6.7-12.8,10-19.2
		c2.4-4.5,5-9,7.2-13.6c2.1-4.3,3.9-8.7,5.7-13.1c0.4-1,0.8-2,1.1-3.1c3.4-12.5,6.2-25.2,7.7-38.1c1.1-9.8-0.1-19.3-3.9-28.4
		c-0.5-1.2-0.9-2.5-1.2-3.8c-0.6-2.3-1.4-4.4-2.7-6.4c-1.5-2.2-3-4.5-4.5-6.7c-0.4-0.6-0.9-1.1-1.5-1.9c-2,3.1-5.3,4.1-8.1,6
		c1,2.3,2.1,4.3,3.3,6.2C289.7,261,290.3,262.4,291.1,263.6L291.1,263.6z M213.8,252.7c6.7,3.6,13.4,5.6,20.7,5.2
		c1.8-0.1,3.7,0,5.5,0c5.9,0,11.7,0.1,17.6-0.8c4.5-0.7,9-0.9,13.3-2.4c0.6-0.2,1.3-0.5,1.7-0.3c1.3,0.7,2.4,0,3.5-0.3
		c1.6-0.5,3.3-0.9,4.9-1.5c3-1,6.1-1.9,8.7-3.7c1.2-0.8,2.5-1.6,2.8-3.2c-1.5-2.4-3-4.8-4.4-7.3c-2.1-3.7-4.4-7.4-5.5-11.5
		c-1.9-3-2.4-6.4-2.5-9.8c-0.1-2.1,0.1-4.2,0.2-6.2c0.1-1.5,0.3-3,0.2-5.1c-0.8,1.1-1.2,1.7-1.6,2.3c-1.5,2.2-3.1,4.4-4.6,6.6
		c-2.5,3.6-5.6,6.5-9.9,7.8c-0.3,0.1-0.7,0.3-1,0.5c-0.8,0.8-1.8,0.6-2.8,0.5c-1.9-0.4-3.8-1-5.2-2.5c-1.1-1.3-2.2-2.6-3.3-4
		c-0.8-0.9-1.5-1.9-2.3-2.8c-2.7-2.8-5.5-5.5-8.3-8.3c-0.5-0.5-0.9-1.2-1.5-1.6c-2.5-1.3-3.9-3.6-5.5-5.8c-0.9-1.3-1.8-2.6-3.1-3.6
		c-3.3-0.1-6.7,0.1-9.9-0.3c-3.3-0.4-6.6-1.2-10.3-1.9c0.3,1.2,0.4,2.2,0.7,3.1c0.4,1.3,0.8,2.5,1.1,3.8c0.8,3,0.5,6.1,0.9,9.1
		c0.1,0.7,0,1.6,0.4,2.1c1.2,1.4,0.9,3,0.8,4.5c-0.1,2-0.5,3.9-0.3,5.8c0.7,5.1-0.5,10.2,0.3,15.3c-0.6,4.7,0.2,9.5-1.2,14.2
		C213.7,251.2,213.8,251.9,213.8,252.7z M262.8,554.7c-1.9,1.2-1.9,1.2-3.1,3.3c3.7-0.9,6.6,0.8,9.5,2.2c0.6,0.3,1.3,0.8,1.7,1.3
		c0.3,0.3,0.3,0.9,0.2,1.3c-0.2,0.6-0.8,1-1.4,0.8c-1.3-0.4-2.5-0.9-3.8-1.3c-2.4-0.9-4.7-1.9-7.2-2.9c-0.5,0.8-0.9,1.3-1.4,2.1
		c1.5,0.4,2.8,0.7,4,1.1c1.9,0.6,3.7,1.4,4.9,3c0.2,0.3,0.3,1,0.1,1.3c-0.2,0.4-0.7,0.8-1.1,0.8c-0.7,0-1.4-0.2-2.1-0.5
		c-1.1-0.5-2.2-1-3.3-1.5c-1.2-0.5-2.4-1.1-3.7-1.6c-1.1,1.6-2,3-3,4.4c-0.3,0.5-0.7,1-0.3,1.7c0.9,0.3,1.8,0.5,2.7,0.9
		c0.4,0.2,0.9,0.5,1.2,0.8c0.2,0.2,0.3,0.7,0.2,1c-0.1,0.3-0.5,0.6-0.8,0.6c-0.6,0-1.3,0-1.7-0.3c-0.9-0.5-1.7-1.3-2.7-2
		c-1,1.1-1.8,2.1-2.8,3c-0.9,0.9-1.8,2-3.2,2.4c-2.9,0.7-4.8,2.7-6.9,4.3c0,2.6,0,5.1,0,7.4c0.4,0.3,0.6,0.6,0.9,0.8
		c3.6,1.4,7.3,2.7,11.3,3c2.3,0.2,4.6,0.5,6.9,1c2.3,0.6,4.4,0.3,6.5-0.5c1-0.4,2.1-0.7,3.2-0.8c3.3-0.5,6.4-1.6,9.4-3.1
		c1.5-0.8,3.1-1.7,3.6-3.4c0.9-2.7,2.7-4.6,5-6c0.8-0.5,1.6-1.2,2.4-1.7c1.2-0.7,2.5-1.5,3.8-2.1c1.1-0.5,2.3-0.9,3.4-1.4
		c1.9-0.9,2.9-3,2-4.9c-0.9-2.2-1.1-4.5-1.5-6.8c-1-5.5-2.7-10.9-2.1-16.6c0-0.1,0-0.2,0-0.4c-0.2-1.7-0.8-3.4-2-4.6
		c-1.1-1.1-2.6-1.7-4.1-2.6c-0.3,0.7-0.7,1.2-0.8,1.7c-0.1,0.3,0.2,0.9,0.4,0.9c2.1,0.4,2.4,2.3,3,3.8c1.1,3-1.2,5.9-4.3,5.2
		c-2.3-0.5-4.5-1.2-6.6-1.8c-0.9-2.1-1.6-4.1-2.4-6c-0.7-1.6-1.9-2.1-3.6-1.4c-1.7,0.7-3.5,1-5.3,1c-0.6,0-1.2,0.1-1.8,0.1
		c-0.9,0.1-1.7,0.6-2,1.4c-1,2.7-1.9,5.5-1.6,8.6c0.7,0.1,1.3,0.2,1.9,0.2c2.7,0.2,5.2,1.1,7.7,2.2c1.5,0.6,2.8,1.6,3.8,2.8
		c0.7,0.8,0.5,1.3-1,2.4C271.3,557.1,267.1,555.9,262.8,554.7z M197.4,137.6c-0.9,1.1-1.6,2-2.2,2.9c-3.6,5.7-5.4,11.7-3.6,18.5
		c0.1,0.5,0.3,1,0.2,1.4c-0.5,1.2,0.1,2.2,0.8,3c1,1.2,2.1,2.4,3.3,3.4c1.5,1.3,3.1,2.4,4.6,3.7c2.9,2.6,5.8,5.2,8.6,7.8
		c0.3,1.9,0.6,3.8,1,5.7c0.4,1.9-0.3,3.9,0.9,5.8c6,2,12.1,3.8,18.8,2.6c-0.6-1.6-1.2-3.1-2.1-4.3c-2.7-3.6-5.2-7.4-6.7-11.4
		c-2-1-3.6-1.7-5.2-2.6c-0.8-0.5-1.5-1.2-2.2-1.9c-0.2-0.2-0.1-0.8,0.1-1c0.2-0.2,0.7-0.4,0.9-0.3c0.9,0.3,1.8,0.8,2.7,1.2
		c0.5,0.2,1,0.7,1.6,0.1c-1.1-3.1-2.2-6.2-3.2-9.4c-1.4-4.4-3.1-8.7-5.4-12.8c-1-1.8-2.3-3.2-3.9-4.3
		C203.1,143.4,200.2,140.8,197.4,137.6z M304.1,343.5c3.8-0.2,7.5,0.7,11.1,2c3.9,1.4,7.9,2.3,12,3c0.7,0.1,1.4,0.2,1.6-0.4
		c0.8-1.8,1.7-3.6,0.5-5.5c-1.9-3.2-4.3-5.9-7.1-8.3c-3.8-3.1-8.1-5-12.7-6.4c-1.5-0.5-3-0.9-4.6-1.3c-0.3,0.6-0.6,1-0.7,1.5
		c-1.3,5.3-3.2,10.5-5.5,15.5c-0.1,0.1,0.1,0.4,0.2,0.7c0.8-0.3,1.5-0.5,2.1-0.7c0.3-1.1,0.6-2,1-3.4
		C303,341.5,303.4,342.3,304.1,343.5z M302.8,40.3c0,2.9,0.1,5,0,7.2c-0.1,2.5-0.4,5.1-0.7,7.6c0,0.4,0,0.7,0,1.1
		c0,0.1,0.1,0.2,0.1,0.3c0,0,0.2,0,0.4-0.1c1.2-3.7,1.4-7.5,1.4-11.4C304,43.6,303.9,42.2,302.8,40.3z M243.3,26.3
		c-1.9-1-3.3-1.8-4.6-2.5c-0.3-0.2-0.7-0.3-1-0.3c-0.6-0.1-1.2-0.2-1.5,0.8C237.9,26.1,240.2,26.3,243.3,26.3z M260.6,46.7
		c-0.6-2.5-0.7-2.7-1.4-3.7c-0.4-0.5-0.9-0.2-1.5,0.7C258.5,44.8,259.2,45.9,260.6,46.7z M241.4,6.1c0,0.1,0,0.1,0,0.2
		c1.3,0,2.6,0,3.9,0c0-0.1,0-0.1,0-0.2C244,6.1,242.7,6.1,241.4,6.1z M250.7,38.7c0-0.1,0-0.1,0-0.2c-0.5,0-1,0-1.6,0
		c0,0.1,0,0.1,0,0.2C249.6,38.7,250.1,38.7,250.7,38.7z M238.9,2.7c0-0.1,0-0.2,0-0.3c-0.5,0-1,0-1.5,0.1c0,0.1,0,0.2,0,0.2
		C237.9,2.7,238.4,2.7,238.9,2.7z M244.1,25.3c0.5,0.2,0.7,0.4,0.9,0.4c0.2,0,0.4-0.1,0.6-0.2c-0.2-0.1-0.3-0.3-0.5-0.3
		C244.9,25.1,244.7,25.2,244.1,25.3z M240.5,11.3c-0.2-0.1-0.4-0.3-0.5-0.3c-0.2,0-0.4,0.1-0.6,0.2c0.2,0.1,0.4,0.2,0.6,0.3
		C240.1,11.6,240.3,11.4,240.5,11.3z M301.8,58.8l-0.1-0.3l-0.1,0.3L301.8,58.8z M238.4,16.6c-0.1,0-0.2-0.1-0.2-0.1
		c-0.1,0-0.2,0-0.3,0.1c0.1,0.1,0.2,0.1,0.2,0.1C238.2,16.6,238.3,16.6,238.4,16.6z M294.9,68.7c-0.1-0.1-0.1-0.2-0.2-0.2
		c-0.1,0-0.2,0-0.3,0c0.1,0.1,0.1,0.2,0.2,0.3C294.7,68.9,294.8,68.7,294.9,68.7z M237.4,12c-0.1,0-0.2,0.1-0.3,0.1
		c0.1,0.1,0.1,0.2,0.2,0.1c0.1,0,0.3-0.1,0.4-0.2C237.6,12,237.5,12,237.4,12z M232.3,10l0-0.2L232,9.9L232.3,10z"/>
	<path d="M209,250.7c-1.8,1.9-3.3,3.5-4.8,5c-2.4,2.2-5,2.4-8,0.7c-0.2-0.1-0.5-0.2-0.8-0.3c-0.3,0.1-0.7,0.2-0.9,0.4
		c-1.7,1.8-3.5,1.9-5.7,1.1c-2-0.7-3.8-1.5-5.2-3.3c-0.8-1-1.8-1.9-2.9-3c1.7,0.3,1.8,0.3,2.3,0.8c0.7,0.5,1.3,1,1.8,1.4
		c2.2-0.2,4.1-0.5,6-0.7c1.4-0.2,2.6-0.5,3.4-1.9c0.2-0.4,0.6-0.7,0.9-1.1c0.6,0.9,0.4,1.5-0.1,2.1c-1.1,1.3-2.5,2.3-4.4,2.3
		c-1,0-1.9,0-2.8,0c-0.5,0.7-0.2,1,0.2,1.3c0.9,0.7,2,0.9,3,0.7c1.3-0.8,2.5-1.6,3.7-2.4c1.7,0.7,3.1,1.7,5,1.5
		c1.2-0.1,2.2-0.4,2.9-1.3c0.8-0.9,1.6-1.9,2.3-2.8c0.4-0.5,0.6-1.1,1.1-1.5c0.4-0.4,1.1-0.8,1.5-0.7
		C208.1,249.3,208.4,250,209,250.7z"/>
	<path d="M516.5,136.6c-0.7,0.5-1.4,1-2.1,1.5c-3.3,2.3-6.1,1.4-7.6-1.8c-0.2-0.4-0.3-0.9-0.5-1.3c0.6-1,1.4-0.7,1.9-0.3
		c0.6,0.4,1.1,1,1.4,1.6c0.5,0.9,1.2,1.1,2,1.3c0.2-0.1,0.5-0.1,0.7-0.3c0.8-0.6,1.5-1.3,2-1.7c1.3-3.9-0.7-7.1-1.2-10.5
		c-2.8-1-5.7,0.8-8.4-0.7c0.2-0.3,0.4-0.8,0.6-0.8c2.2-0.2,4.4-0.3,6.6-0.3c1.5,0,2.4,0.7,3,2.2
		C516.5,129.1,517.2,132.8,516.5,136.6L516.5,136.6z"/>
	<path d="M294.7,60.1c0,0.4-0.1,0.7-0.1,1.2c-0.3,0-0.7,0.2-1,0.1c-5-2-9-5.4-12.4-9.4c-0.8-1-1.4-2.3-1.8-3.6
		c-0.8-2.6-1.5-5.2-2-7.8c-0.5-2.6,0.5-5,1.4-7.3c0.9-0.1,1.2,0.3,1,0.8c-1.6,5.1,0.1,9.9,1.7,14.6c1.3,3.9,8.2,10.5,12.3,11.5
		c0.3,0.1,0.7,0,1.1,0L294.7,60.1z"/>
	<path d="M516.5,136.6c1.4-0.8,2.7-1.5,4.1-2.3c-0.2-4-1.9-7.8-1-12.3c0.4,0.7,0.7,1,0.7,1.4c0.6,2.8,1.3,5.7,1.7,8.6
		c0.4,3.1,0.2,3.1-2.2,5.6c0.3,0.8,0.7,1.8,1.1,2.7c-0.3,0.1-0.4,0.3-0.4,0.2c-1.3-1.1-2.6-2.1-3.9-3.2
		C516.4,137.2,516.5,136.8,516.5,136.6L516.5,136.6z"/>
	<path d="M509.6,132.5c-0.4-0.3-0.8-0.5-1.3-0.8c-0.4,0.3-0.9,0.6-1.3,1c-1.4-0.5-3.1-0.5-4.1-2.4c1.3,0.1,2.5,0.3,3.7,0.1
		c1.3-0.2,2.5-0.8,3.9-1.3c0,0.4,0.1,0.8,0,1.2C510.2,131.1,509.9,131.8,509.6,132.5z"/>
	<path d="M517,148.4c1.2-1,2.4-1.9,3.7-2.9c0.6-0.4,1.1-0.3,1.6,0.5c-0.2,0.3-0.4,0.8-0.7,1.1c-1,0.7-1.6,1.4-1.5,2.7
		c0,0.6-0.6,0.7-1,0.2C518.5,149.2,518,148.6,517,148.4z"/>
	<path d="M586.3,240.2c0.5,0.4,1.1,0.9,1.6,1.4c0.6,0.6,1.1,1.3,1.7,2c-1.9,0.3-2.6-0.1-3.9-2c-0.1-0.2-0.1-0.5-0.1-0.7
		C585.7,240.6,585.9,240.5,586.3,240.2z"/>
	<path d="M196.2,243c0-0.8,0-1.6-0.1-2.4c-0.1-0.6-0.4-1.3-0.6-2.1c0.6,0,1-0.1,1.2,0c1.2,0.6,1.1,1.7,1,2.8
		C197.6,242.1,197.4,243,196.2,243z"/>
	<path d="M582.2,227.2c0.3,0.2,0.5,0.3,0.5,0.3c-0.1,1.4-0.2,2.8-0.3,4.3C580.5,230.6,580.5,230.2,582.2,227.2z"/>
	<path d="M672.2,191.3c-0.7,1.6-1.9,2.1-3.3,2.4c-0.2,0-0.5-0.3-0.9-0.5C669.7,191.8,669.7,191.8,672.2,191.3z"/>
	<path d="M191.1,249.7c0.1-0.2,0.2-0.5,0.4-0.6c1.5-0.7,2.9-1.4,4.4-2C195.2,249.3,194.5,249.6,191.1,249.7L191.1,249.7z"/>
	<path d="M521.7,160.3c-1.4-2.1-1.4-2.1-0.5-3.7C522,157.9,522,157.9,521.7,160.3z"/>
	<path d="M522.7,161.4c0.1,1,0.1,1.7,0.1,2.3c0,0.1-0.3,0.3-0.5,0.4c-0.2,0-0.5-0.1-0.6-0.3C521.3,163,521.3,162.3,522.7,161.4z"/>
	<path d="M637,231.1c1.2-0.9,2.1-1,3-0.5C639.9,231.5,639.1,231.7,637,231.1z"/>
	<path d="M520.1,152.3c0,0.7,0,1.4,0,2.3C519.1,153.2,519.1,153.2,520.1,152.3z"/>
	<path d="M674.9,188c-0.1,0.8-0.9,0.8-1.5,1.1C673.3,188.2,673.3,188.2,674.9,188z"/>
	<path d="M633,232.8c-1,0.9-1,0.9-2.1,0.5C631.5,232.6,632.2,232.3,633,232.8z"/>
	<path d="M225.2,400.7c-0.4,0.5-0.8,1.1-1.3,1.8C223.6,400.9,223.6,400.9,225.2,400.7z"/>
	<path d="M285.2,32.1c-0.9-0.4-1.5-1.1-1.5-2.1l-0.1,0.1C284.8,30.4,284.9,31.4,285.2,32.1L285.2,32.1z"/>
	<path d="M627.2,235.8c-0.5,0.2-0.9,0.4-1.3,0.5c-0.1,0-0.3-0.2-0.4-0.4c0.4-0.2,0.7-0.5,1.1-0.6
		C626.7,235.2,626.9,235.5,627.2,235.8z"/>
	<path d="M582.6,237.2c-0.8-0.1-0.8-0.7-0.9-1.3c0-0.2,0.1-0.5,0.3-0.6c0.1-0.1,0.5,0.1,0.5,0.2
		C582.5,236.1,582.5,236.7,582.6,237.2L582.6,237.2z"/>
	<path d="M224.3,407.3c-0.2,0.2-0.3,0.3-0.5,0.5c-0.1-0.2-0.2-0.3-0.3-0.5c0-0.1,0.2-0.3,0.2-0.2C224,407.1,224.1,407.2,224.3,407.3
		z"/>
	<path d="M298.5,37.3c-0.8-0.2-0.8-0.7-0.5-1.8C298.2,36.4,298.3,36.9,298.5,37.3L298.5,37.3z"/>
	<path d="M299.2,39.5c-1-0.5-0.8-1.4-0.7-2.2l-0.1,0.1C299.1,38,299,38.8,299.2,39.5L299.2,39.5z"/>
	<path d="M299.1,39.6c0.2,0.5,0.4,0.9,0.9,1.8C298.9,40.7,299.3,40.1,299.1,39.6L299.1,39.6z"/>
	<path d="M315.7,41.7C315.6,41.3,315.7,41.5,315.7,41.7C315.7,41.5,315.6,41.3,315.7,41.7z"/>
	<path d="M620.8,75.6c-0.5,1.1-1.5,0.6-2.2,0.6l0,0.1C619.3,76.1,620.1,75.9,620.8,75.6L620.8,75.6z"/>
	<path d="M287.4,77.6c-0.3,0-0.6,0-0.9-0.1c0,0,0-0.1,0-0.1c0.3,0,0.6,0,0.9,0.1C287.4,77.5,287.4,77.5,287.4,77.6z"/>
	<path d="M626.9,28c0.1-0.1,0.2-0.3,0.3-0.4c0.1,0.2,0.3,0.4,0.4,0.6c0,0-0.2,0.2-0.2,0.2C627.2,28.3,627,28.2,626.9,28z"/>
	<path d="M297.6,56.5c-0.2-0.5-0.4-1.1-0.6-1.6l-0.1,0.1C297.1,55.5,297.3,56.1,297.6,56.5L297.6,56.5z"/>
	<path d="M286,33.6c-0.2-0.5-0.5-1-0.7-1.5l-0.1,0.1C285.4,32.7,285.6,33.2,286,33.6L286,33.6z"/>
	<path d="M285.9,33.7c0.1,0.2,0.3,0.5,0.2,0.3C286.1,34.2,286,33.9,285.9,33.7L285.9,33.7z"/>
	<path d="M513.3,148.3c-0.1,0-0.1,0.1-0.2,0.1c0-0.1-0.1-0.2-0.1-0.3c0,0,0.1-0.1,0.2-0.1C513.3,148.1,513.3,148.2,513.3,148.3z"/>
	<path d="M290.3,76.3c-0.1,0.2-0.2,0.4-0.4,0.5c-0.2,0.1-0.4,0-0.6-0.1c0.1-0.1,0.2-0.3,0.4-0.4C289.9,76.3,290.1,76.4,290.3,76.3
		L290.3,76.3z"/>
	<path d="M187.8,239.8c0.1,0.2,0.1,0.4,0.2,0.6c0,0.1-0.1,0.1-0.2,0.2c-0.1-0.2-0.1-0.4-0.2-0.6
		C187.6,239.9,187.7,239.8,187.8,239.8z"/>
	<polygon points="618.6,76.2 618.5,76.4 618.6,76.3 	"/>
	<polygon points="619.3,78.4 619.2,78.7 619.3,78.5 	"/>
	<path d="M525.4,118.9c-0.3-0.3-0.5-0.5-0.8-0.8l-0.1,0.1c0.3,0.3,0.5,0.5,0.8,0.8L525.4,118.9z"/>
	<path d="M622.9,24.3c0.1,0,0.2,0.1,0.3,0.1C623.2,24.3,623.1,24.2,622.9,24.3L622.9,24.3z"/>
	<path d="M297.5,56.6c0.1,0,0.2,0.1,0.4,0.1C297.8,56.6,297.7,56.6,297.5,56.6L297.5,56.6z"/>
	<polygon points="188.2,246.8 188.1,246.6 188.1,246.9 	"/>
	<path d="M645.5,325.3c-1.5,0-2.3,0.2-3.1,0c-2.5-0.7-4.9-1.5-7.3-2.2c-1.4-0.4-2.7-1-4.1-1.4c-4.1-1.1-8.4-1.6-12.7-1.6
		c-3-0.1-6.1-0.4-9.1-0.5c-1.4,0-2.9,0.2-4.4,0.4c-3.6,0.6-7.2,1-10.7,2.4c-0.6,0.2-1.4,0-2.2,0c0.2-0.6,0.3-1.1,0.5-1.2
		c1.2-0.6,2.4-1.3,3.7-1.6c5.2-1.1,10.4-2.4,15.9-2.1c8.1,0.4,16,1.2,23.6,4.2c1.9,0.8,4,1,6,1.4
		C642.9,323.3,644.2,323.6,645.5,325.3z"/>
	<path d="M686.2,341.5c-0.4,0-0.7-0.1-1.3-0.1c-0.6-1.7-1.1-3.5-1.8-5.3c-0.7-1.7-1.6-3.3-0.9-5.4c-2.2-0.5-4.2-0.9-6.4-1
		c-0.7,1.1-1.3,2.3-2.1,3.3c-0.8,1-1.6,2.1-3,2.7c-0.7-1.1,0.4-1.6,0.6-2.3c0.2-1,0.5-1.9,0.7-2.8c0.1-0.8,0.1-1.7,0.2-2.4
		c-1.2-0.9-2.4-0.6-3.6-0.6c-1,0-1.9,0.3-2.9,0.3c-0.4,0-0.8-0.4-1.3-0.6c0.3-0.5,0.5-0.9,0.7-1c2.4-0.7,4.7-1.1,7.2-0.5
		c1.9,0.5,3.8,0.8,5.7,1.2c2.6,0.5,4.8,1.6,5.7,4.5c0.3,1,0.9,2,1.5,2.9c1.4,2.3,1.8,4.7,0.9,7.3L686.2,341.5z"/>
	<path d="M669,306.5c0.3,0.8,0.7,1.4,0.7,1.9c-0.2,1.6-0.2,3.2-0.8,4.6c-0.7,1.5-0.9,3-1.1,4.5c-0.3,1.6-0.6,3.1-0.9,4.6
		c-0.1,0.2-0.6,0.5-0.9,0.4c-0.3-0.1-0.6-0.4-0.7-0.7c-0.1-0.3-0.1-0.7-0.1-1.1c0.1-0.5,0.2-1,0.3-1.4c0.7-1.9,1.5-3.9,2-5.8
		c0.5-1.9,0.6-3.8,0.9-5.7C668.5,307.5,668.7,307.2,669,306.5z"/>
	<path d="M603.2,295.2c1.4-0.2,2.9-0.5,4.3-0.7l-0.1-0.1c-0.7,0.4-1.4,0.9-2.1,1.2c-3.2,1.3-6.2,3-9.7,3.6c0.1-0.2,0-0.5,0.2-0.6
		c1.8-1.2,3.6-2.4,5.2-3.8c1-0.8,2.1-1.7,3.7-1.8C604.2,293.9,603.8,294.6,603.2,295.2l-0.1,0.1L603.2,295.2z"/>
	<path d="M643.3,279.4c1.3-0.3,2.7-0.6,4.6-1.1c-0.9,1.1-1.6,1.3-2.3,1.6c-0.8,0.3-1.6,0.6-2.5,1c-0.1,0.6-0.3,1.1-0.4,1.7
		c-0.1,0.1-0.1,0.1-0.2,0.2c-0.3-0.8-0.7-1.5-1.8-1.7c2.4-1.6,0.9-4.2,1.6-6.3C643.5,276.1,642.2,277.9,643.3,279.4z"/>
	<path d="M568.1,297.8c2,0,9,1.8,11.5,3c-0.5,0.3-0.9,0.7-1.3,0.7c-1.1-0.2-2.1-0.5-3.1-0.8c-2-0.6-3.9-1.2-5.8-1.9
		C569,298.6,568.7,298.3,568.1,297.8z"/>
	<path d="M578.6,295.7c-0.4,0.2-0.7,0.4-0.9,0.3c-3.4-0.9-6.7-1.8-10.1-2.8c-0.3-0.1-0.5-0.3-1.4-1c4.3,1,7.8,1.4,11.2,2.7
		C577.8,295,578.1,295.4,578.6,295.7z"/>
	<path d="M604.5,303.2c-3,1.9-6.5,2.6-9.6,4.2c-0.4,0.2-0.8,0.2-1.3,0.4c-0.1-1.2,0.7-1.4,1.3-1.6
		C598,304.8,601.1,303.4,604.5,303.2L604.5,303.2z"/>
	<path d="M638.7,286.9c2.6-1.8,5.8-2.2,9.4-3c-1.5,1.9-3.3,1.7-4.8,2.2C641.8,286.6,640.2,286.6,638.7,286.9z"/>
	<path d="M665.2,343c-0.4,1.7-1.4,2.2-2.6,2.5C662.6,343.8,662.8,343.6,665.2,343z"/>
	<path d="M606.9,427.7c0-0.9,0-1.6,0-2.3c0-0.5,0.6-1,0.9-0.7c0.2,0.2,0.5,0.5,0.5,0.9C608.4,426.1,608.3,426.3,606.9,427.7z"/>
	<path d="M582.5,293c0.7,0.7,1.4,1.3,1.3,2.9c-0.6-0.8-1-1.1-1.2-1.6C582.4,293.9,581.9,293.5,582.5,293z"/>
	<path d="M591.8,302.9c-1,0.7-1.7,1.2-2.5,1.8c-0.1-0.3-0.3-0.6-0.3-0.6C590,303.2,590,303.2,591.8,302.9z"/>
	<path d="M604.7,432.5c0-0.7-0.1-1.1,0-1.4c0.1-0.2,0.5-0.2,0.8-0.4c0,0.3,0.1,0.6,0.1,0.9C605.6,431.9,605.3,432,604.7,432.5z"/>
	<path d="M667.9,339.4c-0.3-0.6-0.2-1.2,0.3-1.6c0.1-0.1,0.5-0.2,0.6-0.1c0.2,0.1,0.3,0.4,0.2,0.6C669,339,668.5,339.3,667.9,339.4
		L667.9,339.4z"/>
	<path d="M634.7,262.2c1.1,0.3,1.3,1.2,1.5,2.2l0.1-0.1C635.3,263.9,634.8,263.2,634.7,262.2L634.7,262.2z"/>
	<path d="M634.8,262.2c-1-0.4-1.6-1.1-1.5-2.2l-0.1,0.1C634.4,260.3,634.8,261.1,634.8,262.2L634.8,262.2z"/>
	<path d="M604.6,303.3c0.4-0.5,0.9-0.6,1.6-0.2C605.6,303.2,605.1,303.2,604.6,303.3L604.6,303.3z"/>
	<path d="M609.7,301.8c-0.4,0.4-0.8,0.8-1.6,0.4C608.7,302,609.2,302,609.7,301.8L609.7,301.8z"/>
	<path d="M611.9,301c-0.4,1.1-1.4,0.6-2.2,0.8l0.1,0.1C610.3,301.1,611.2,301.3,611.9,301L611.9,301z"/>
	<path d="M611.9,301.1c0.5-0.2,1-0.4,1.4-0.6c0,0.1,0.1,0.3,0.1,0.4C612.9,301,612.4,301,611.9,301.1L611.9,301.1z"/>
	<path d="M607.6,294.5c0.2-0.1,0.5-0.3,0.3-0.2C608.1,294.3,607.8,294.4,607.6,294.5L607.6,294.5z"/>
	<path d="M669.1,304.6c-0.1,0.2-0.1,0.4-0.2,0.6c-0.1-0.1-0.2-0.2-0.2-0.2c0-0.2,0.1-0.4,0.2-0.6C669,304.5,669.1,304.6,669.1,304.6
		z"/>
	<polygon points="667.8,339.3 667.6,339.5 667.9,339.4 	"/>
	<path d="M564.2,282.7c0.1,0.1,0.2,0.2,0.3,0.3c-0.1,0-0.1-0.1-0.2-0.1C564.3,282.8,564.3,282.7,564.2,282.7L564.2,282.7z"/>
	<path d="M636.2,264.4C636.4,264.6,636.3,264.4,636.2,264.4L636.2,264.4z"/>
	<path d="M587.6,172.1c-1.6,1.5-3.4,2.1-5.3,2.7c-3.3,1-6.8,1-10.2,0.6c-1.5-0.2-2.9-0.4-4.4-0.4c-7-0.3-12.3-3.6-16.1-9.4
		c-0.3-0.4-0.3-0.4,0.1-1.7c1.2,1.3,2.4,2.5,3.6,3.7c2.1,2.3,4.8,3.8,7.8,4.7c1.2,0.4,2.3,0.8,3.5,1.1c0.5,0.1,1.1,0.4,1.4,0.2
		c1.8-1.3,3.5-0.2,5.3-0.1c3.7,0.2,7.3-0.1,10.9-1C585.2,172.1,586.2,171.7,587.6,172.1z"/>
	<path d="M595,61.4c0.1,0.6,0.4,1,0.3,1.4c-0.3,1.3-0.7,2.6-1.1,3.9c-0.3,1-1,1.6-2,2c-3.6,1.6-7.4,2.9-11.5,2.9
		c2.1-0.9,4.2-1.8,6.3-2.6c0.9-0.4,1.8-0.6,2.7-1c2-0.8,3.5-2.1,3.8-4.5C593.8,62.5,593.9,62.5,595,61.4z"/>
	<path d="M570.3,40.2c-1.1,1.5-2.6,0.3-3.2,1.1c-0.7,1-1.3,1.6-2.5,1.8c-0.2,0-0.5-0.1-0.8-0.1c-0.1-1-0.1-2.1-0.5-3
		c-0.3-0.8-1-1.5-1.7-2.4c1.5-0.4,2.9-0.5,4.3,0.3C567.4,38.5,568.7,39.3,570.3,40.2z"/>
	<path d="M572.2,35.7c-1.7-0.6-3.4-1.2-4.9-1.7c-2.8,0.3-5,1.9-7.7,1.9c0.7-1.8,1.6-2.3,4.6-3.1C567.5,32,570.2,32.9,572.2,35.7z"/>
	<path d="M580.5,111.3c-1.6,2.1-5.4,3.2-7.4,2c-1.5-0.9-3-1.9-4.1-3.7C574.3,111.1,573.4,111.8,580.5,111.3z"/>
	<path d="M585.6,80.1c0-3.1,1.3-5.6,3.3-7.8c0.1-0.1,0.2,0,0.4,0c0.1,0.2,0.4,0.5,0.4,0.6C588.4,75.3,587.6,78,585.6,80.1
		L585.6,80.1z"/>
	<path d="M588.4,171.5c1.1-1.5,2.6-1.5,4.4-1.6C591.5,171.3,590.4,172.3,588.4,171.5z"/>
	<path d="M591.4,108.5c-2.6,1.7-2.6,1.7-4.5,1.1C588.1,108.1,589.6,108.4,591.4,108.5z"/>
	<path d="M584.9,110c-0.5,0.2-1,0.5-1.6,0.7c-0.3,0.1-0.7,0-1.4,0c0.5-0.4,0.6-0.6,0.9-0.7c0.6-0.2,1.3-0.3,2-0.5
		C584.8,109.7,584.9,109.8,584.9,110z"/>
	<path d="M563.5,129.3c0.2-1,0.9-1.2,2-1.2C565.1,129.1,564.4,129.4,563.5,129.3L563.5,129.3z"/>
	<path d="M549.4,159.3c0.4,0.3,0.7,0.4,0.7,0.5c0,0.5-0.2,0.9-0.8,0.9c-0.2,0-0.5-0.3-0.5-0.3C549,160.1,549.2,159.7,549.4,159.3z"
		/>
	<path d="M570.2,132.9c0,0.3,0,0.6,0,0.8c-0.5,0-1.1,0-1.6,0C569.1,133.4,569.6,133.1,570.2,132.9z"/>
	<path d="M595.7,168.3c0.2,0.1,0.4,0.1,0.6,0.2c-0.1,0.1-0.2,0.4-0.4,0.4c-0.2,0-0.4-0.1-0.6-0.2
		C595.5,168.5,595.6,168.4,595.7,168.3z"/>
	<path d="M580.3,91c0,0.2-0.1,0.4-0.1,0.5C579.7,91.1,580.3,91.2,580.3,91L580.3,91z"/>
	<path d="M580.4,91.1c0.1-0.1,0.3-0.2,0.4-0.3c0,0.1-0.1,0.2-0.1,0.2C580.6,91,580.4,91,580.4,91.1L580.4,91.1z"/>
	<path d="M583.3,85.9c-0.1,0.1-0.2,0.2-0.3,0.4c0-0.1,0-0.2,0.1-0.2C583.2,86,583.3,86,583.3,85.9L583.3,85.9z"/>
	<path d="M583.4,86c0.1-0.1,0.2-0.3,0.3-0.4c0,0.1,0,0.2,0,0.2C583.5,85.9,583.4,85.9,583.4,86L583.4,86z"/>
	<path d="M568.7,133.6c0,0.3,0,0.6,0,0.9C568.1,134.2,568.3,133.9,568.7,133.6z"/>
	<path d="M585.5,80c0,0.1-0.1,0.2-0.1,0.3C585.5,80.2,585.5,80.2,585.5,80L585.5,80z"/>
	<path d="M615.4,545.1c2.1,1.4,3.5,3.4,4.6,5.5c0.2,0.3,0.2,0.7,0.1,1.1c-0.1,0.3-0.3,0.7-0.6,0.8c-0.3,0.1-0.7,0.1-1,0
		c-0.2-0.1-0.4-0.2-0.6-0.4c-1.3-1.9-2.5-3.9-2.8-6.2C615,545.7,615.2,545.5,615.4,545.1z"/>
	<path d="M557.2,406.5c1.1-0.6,1.4,0,1.6,0.6c0.4,1.4,0.4,2.8,0.2,4.4C557.8,409.9,557.6,408.3,557.2,406.5z"/>
	<path d="M581.7,467.6c-0.5-0.9-1-1.9-1.5-2.8c-0.2-0.4-0.3-0.9-0.4-1.3c0.4-0.5,0.8-0.8,1.2-0.3c0.2,0.2,0.3,0.4,0.4,0.6
		c0.1,0.3,0.3,0.7,0.3,1c0.1,0.9,0.2,1.8,0.2,2.7C581.9,467.5,581.8,467.5,581.7,467.6z"/>
	<path d="M588.3,480.2c-1.2-0.5-1.6-1.4-1.9-2.3c-0.1-0.3,0.1-0.7,0.3-0.9c0.4-0.4,0.9-0.1,1.2,0.2
		C588.6,478.1,588.7,479,588.3,480.2z"/>
	<path d="M610,535.6c1.3,0.7,1.5,1.7,1.7,2.8c0,0.2-0.2,0.5-0.4,0.5c-0.2,0.1-0.5,0-0.7-0.1C609.8,538,609.6,537.1,610,535.6z"/>
	<path d="M614.6,544.1c-0.6,0.3-0.9,0.5-1.4,0.7c-0.8-1-1.4-2-0.9-3.7C613.1,542.2,613.7,543.1,614.6,544.1z"/>
	<path d="M608.3,532c-0.7-1.1-1.1-1.5-1.3-2.1c-0.2-0.4-0.1-0.9-0.2-1.5C608.5,529.7,608.5,529.7,608.3,532z"/>
	<path d="M583.7,472c0.2-0.1,0.3-0.2,0.5-0.4c0.1,0.2,0.3,0.5,0.4,0.7c-0.2,0.1-0.4,0.2-0.5,0.2C583.9,472.4,583.8,472.1,583.7,472z
		"/>
	<path d="M609,21.3c-0.2-0.8-0.9-0.7-1.5-0.8c0.8-0.3,1.5-0.5,2.3-0.8C609.8,20.4,610.2,21.3,609,21.3z"/>
	<path d="M588.6,12.7c0,0.1,0.1,0.1,0.1,0.2c-0.1,0-0.2,0.1-0.3,0.1c0,0-0.1-0.1-0.1-0.2C588.4,12.7,588.5,12.7,588.6,12.7z"/>
	<path d="M607.2,18c-0.2,0-0.3,0.1-0.4,0.1c0,0-0.1-0.1-0.1-0.1C606.8,18,607,18,607.2,18z"/>
	<path d="M614.3,17.6c-0.5,0.3-1.1,0.5-1.6,0.8C613.2,18.1,613.7,17.8,614.3,17.6z"/>
	<path d="M612.8,18.3c-0.5,0.3-1.1,0.5-1.6,0.8C611.5,18.4,612.2,18.5,612.8,18.3z"/>
	<path d="M611.3,19c-0.5,0.3-1.1,0.5-1.6,0.8C610,19.1,610.7,19.2,611.3,19z"/>
	<path d="M589.9,14.7c0.2-0.1,0.5-0.2,0.3-0.1C590.4,14.5,590.1,14.5,589.9,14.7L589.9,14.7z"/>
	<path d="M602.5,30.8c-0.6,0.8-1.5,0.6-2.3,0.7l0.1,0.1C600.9,30.8,601.7,30.9,602.5,30.8L602.5,30.8z"/>
	<path d="M600.2,31.5c-0.1,0.2-0.3,0.4-0.4,0.5c-0.1,0-0.3-0.1-0.5-0.2c0.1,0,0.2-0.1,0.3-0.1c0.2,0,0.5-0.1,0.7-0.1L600.2,31.5z"/>
	<path d="M253.4,317.1c0.4-0.5,0.5-0.9,0.8-1c0.6-0.2,1.2-0.3,1.8-0.2c4.7,0.4,9.5,0.7,14.2,1.3c7.2,0.9,14.5,1.9,21.5,4.1
		c2.2,0.7,4.5,1.2,6.7,1.8c0.6,0.2,1.1,0.5,1,1.2c-0.1,0.1-0.2,0.2-0.3,0.2c-3.8-0.8-7.8-0.3-11.5-1.8c-6.7-1.1-13.5-2.2-20.2-3.2
		c-4.1-0.6-8.2-1-12.3-1.6C254.5,317.8,254,317.4,253.4,317.1z"/>
	<path d="M293.7,286.4c1.2-0.4,2.5-0.9,3.7-1.3c0.5-1.7,0.7-3.2-1.3-4.1c1.8-1.9,0.7-4.3,1.1-6.8c0.4,0.6,0.8,0.9,0.9,1.4
		c0.2,1.2,0.2,2.4,0.2,3.4c1.6,0.8,2.9-1.1,4.4-0.3c-1.1,1.4-3,1.1-4.4,2.4c-0.2,1.1-0.3,2.3,0.5,3.7c1.4-0.3,2.8-0.6,4.4-1
		C301.4,285.5,301.4,285.5,293.7,286.4z"/>
	<path d="M250.3,452.6c-0.4-0.5-0.9-0.8-1-1.2c-0.3-1.8-0.6-3.6-0.7-5.4c-0.1-1.8-0.1-3.6,0.9-5.3c0.5-0.9,0.6-2.1,1-3.1
		c0.2-0.5,0.6-0.7,1.4-0.2c0.1,1.6-0.2,3.3-1.1,4.6c-0.6,0.9-0.8,1.7-0.7,2.7c0.1,1.3,0.3,2.6,0.4,4
		C250.6,449.9,250.8,451.1,250.3,452.6z"/>
	<path d="M263.1,294.5c-4,1.8-7.9,3.7-12.2,4.9c-0.1-1.1,0.5-1.3,1-1.5c1.3-0.5,2.3-1.2,3.2-2.3c1.2-1.4,2.8-2.2,5.4-2.7
		c-1.3,1.1-1.9,1.7-2.6,2.3l-0.1,0.2l0.1-0.3c0.7,0,1.4-0.1,2.1-0.1c1.1-0.1,2.1-0.2,3.2-0.3L263.1,294.5z"/>
	<path d="M272.4,454c0.7,1.1,1.1,1.5,1.4,2c1,2.5,1.2,5.1,1.6,7.7c0,0.1-0.2,0.2-0.2,0.2c-1.2-1.3-2-3-2.8-5.7
		C271.9,457.1,271.7,456,272.4,454z"/>
	<path d="M272.3,452.1c-2-1.8-2.6-3.1-4.1-7.9c0.3-0.5,0.8-0.6,1.2-0.1c0.6,0.7,1.3,1.5,1.6,2.4C271.7,448.2,272.2,450,272.3,452.1z
		"/>
	<path d="M242.6,290.9c2,1.3,3.3,3.2,4.4,5.2c0.1,0.3,0,0.7-0.1,1.3c-0.6-0.4-1-0.6-1.2-1C244.7,294.6,242.8,293.1,242.6,290.9
		L242.6,290.9z"/>
	<path d="M254.3,291.6c-1.7,1.3-3.4,2.7-5.1,4c-0.8-0.5-0.6-0.9-0.2-1.2c1.6-1.3,3.1-2.7,5.4-2.6L254.3,291.6z"/>
	<path d="M240.1,403.4c-0.2,3.1-0.2,3.1-1.7,4C237.6,405.5,239.1,404.6,240.1,403.4z"/>
	<path d="M243.3,299.7c3.3,1.3,3.3,1.4,4.2,3.3C245.7,302.5,245.4,302.2,243.3,299.7L243.3,299.7z"/>
	<path d="M219,282.8c-2.1,0-2.1,0-3.7-0.9C217.1,281.2,217.6,281.4,219,282.8L219,282.8z"/>
	<path d="M233,296.7c1.7-0.2,2.9,0.7,4.3,1.6C235.1,298.4,234.9,298.3,233,296.7L233,296.7z"/>
	<path d="M254,428.7c-0.8-2.4-0.8-2.4,0.8-3.7C254.5,426.1,254.3,427,254,428.7z"/>
	<path d="M249.3,422.9c-1-0.5-1.4-1.4-1.6-3C249,421,249.2,422,249.3,422.9L249.3,422.9z"/>
	<path d="M236.6,295.3c0.3,0.1,0.7,0.1,1,0.2c0.1,0,0.1,0.4,0.1,0.5c-0.1,0-0.2,0-0.3-0.1C237.1,295.8,236.9,295.5,236.6,295.3
		L236.6,295.3z"/>
	<path d="M277.4,473.9c0-0.4,0-0.8,0-1.2c0.1,0,0.2,0,0.3,0c0,0.4,0,0.8,0,1.2C277.6,473.9,277.5,473.9,277.4,473.9z"/>
	<path d="M255.1,290.8c0.5-0.2,0.9-0.5,1.4-0.7l-0.1-0.1C255.9,290.2,255.4,290.5,255.1,290.8L255.1,290.8z"/>
	<path d="M291,263.6c0.2,0.2,0.4,0.3,0.5,0.5c0.1,0.1,0,0.2,0,0.3c-0.1-0.1-0.4-0.1-0.4-0.2C291,264,291.1,263.8,291,263.6
		L291,263.6z"/>
	<path d="M231.5,296c0.6-0.1,1.3-0.2,1.5,0.7l0.1-0.1C232.4,296.8,231.8,296.7,231.5,296L231.5,296z"/>
	<polygon points="237.1,281.8 237.1,282.2 236.9,282.1 	"/>
	<path d="M219,282.8c0.2,0,0.5,0,0.7,0c0.1,0,0.2,0.2,0.2,0.4c-0.1,0-0.2,0-0.3,0C219.3,283.1,219.2,282.9,219,282.8L219,282.8z"/>
	<path d="M230,295.4c0.6,0.1,1.3-0.2,1.5,0.7l0.1-0.1C231.1,295.7,230.6,295.5,230,295.4L230,295.4z"/>
	<path d="M258.1,289.5c0.2-0.2,0.3-0.3,0.5-0.5C258.4,289.1,258.2,289.2,258.1,289.5L258.1,289.5z"/>
	<path d="M258,289.4c-0.6,0.2-1.1,0.4-1.7,0.6l0.1,0.1C257,289.9,257.6,289.7,258,289.4L258,289.4z"/>
	<path d="M236,294.4c-0.2,0-0.5,0-0.7-0.1c0.2,0.1,0.4,0.1,0.6,0.2L236,294.4z"/>
	<path d="M263.2,294.6c0.1-0.2,0.2-0.4,0.4-0.5c0,0,0.2,0,0.3,0.1c-0.3,0.1-0.5,0.3-0.8,0.4L263.2,294.6z"/>
	<path d="M278.3,478.9c-0.1,0-0.1,0.1-0.2,0.1c0-0.1,0.1-0.3,0.1-0.4C278.2,478.7,278.3,478.8,278.3,478.9z"/>
	<path d="M276.8,468.3c0,0.1,0.1,0.2,0.1,0.3c-0.1,0-0.2,0.1-0.4,0.1c0-0.1,0-0.2,0-0.3C276.6,468.3,276.7,468.3,276.8,468.3z"/>
	<path d="M266.4,440.4c0,0.1,0.1,0.2,0.1,0.3c0,0.1-0.1,0.2-0.2,0.3c0-0.1-0.1-0.2-0.1-0.3C266.3,440.6,266.4,440.5,266.4,440.4z"/>
	<path d="M249.2,423c0.1,0.2,0.3,0.3,0.4,0.5c0,0.1,0,0.2,0,0.3c-0.1-0.1-0.3-0.1-0.4-0.2C249.2,423.4,249.2,423.2,249.2,423
		L249.2,423z"/>
	<path d="M242,401c0.1,0,0.2,0,0.2,0c0.1,0.1,0.1,0.2,0.1,0.3c-0.2,0-0.3,0-0.5,0C242,401.2,242,401.1,242,401z"/>
	<path d="M255,290.7c-0.2,0.3-0.5,0.6-0.7,0.9l0.1,0.1C254.6,291.4,254.8,291.1,255,290.7L255,290.7z"/>
	<path d="M242.6,290.8c-0.1-0.1-0.3-0.2-0.4-0.2c0.1,0,0.2,0,0.2,0C242.5,290.7,242.5,290.8,242.6,290.8L242.6,290.8z"/>
	<polygon points="217.5,277.6 217.7,277.7 217.6,277.5 	"/>
	<polygon points="243.4,299.6 243.1,299.5 243.3,299.7 	"/>
	<path d="M235.9,294.5c0.2,0.3,0.4,0.6,0.7,0.9l0.1-0.1c-0.2-0.3-0.4-0.6-0.6-0.9L235.9,294.5z"/>
	<path d="M230.1,295.3C229.7,294.9,230.1,295.4,230.1,295.3L230.1,295.3z"/>
	<path d="M295.5,160c-1,1.5-2,3-3,4.5c-0.1,0.2-0.4,0.3-0.6,0.4c-0.1-0.2-0.4-0.4-0.4-0.4c0.9-1.9,1.9-3.8,2.9-5.6
		c1.2,0.1,1,0.7,1,1.3L295.5,160z"/>
	<path d="M213.1,112.1c2.1,2,0.9,3.8,0.6,5.9C212.5,115.2,212.5,115.2,213.1,112.1z"/>
	<path d="M266.7,205.1c-1.6,0.8-1.6,0.8-6.5-2.3c0.4-0.1,0.7-0.4,0.9-0.3c1.5,0.6,3,1.1,4.4,1.8
		C265.9,204.5,266.3,204.8,266.7,205.1z"/>
	<path d="M267.3,124c0.5,1.7,0.7,2.8-0.9,3.4C265.6,126.1,266,125.2,267.3,124z"/>
	<path d="M285,171.8c-0.5,1.6-1.3,2.3-2.3,2.6C282.9,173.1,282.9,173.1,285,171.8z"/>
	<path d="M214.3,126.1c0,0.9,0.1,1.4,0,1.7c-0.1,0.3-0.4,0.5-0.8,1.1c0-0.6-0.1-1.1,0-1.4C213.6,127.1,213.8,126.9,214.3,126.1z"/>
	<path d="M270.3,193.1c-0.4-0.3-0.7-0.5-0.8-0.7c-0.1-0.3,0-0.6,0-0.9c0.3,0.1,0.6,0.2,0.8,0.4C270.4,192.2,270.3,192.6,270.3,193.1
		z"/>
	<path d="M205.9,120.7c0.3,0.2,0.6,0.3,0.6,0.4c0,0.3-0.1,0.6-0.1,0.9c-0.2-0.1-0.4-0.2-0.5-0.3
		C205.9,121.5,205.9,121.2,205.9,120.7z"/>
	<path d="M213.5,121.8c-0.1,0.1-0.2,0.3-0.2,0.4c-0.1-0.1-0.2-0.1-0.2-0.2c0-0.2,0-0.3,0-0.5C213.2,121.6,213.4,121.7,213.5,121.8z"
		/>
	<path d="M267.4,130.6c-0.1-0.2-0.2-0.3-0.3-0.5c0.2-0.1,0.5-0.3,0.7-0.4c0,0.2,0.1,0.5,0.1,0.6
		C267.8,130.4,267.6,130.5,267.4,130.6z"/>
	<path d="M287.4,168.9c0.2-0.3,0.3-0.6,0.5-0.9c0.1-0.1,0.4,0,0.6,0c0,0.2,0,0.5-0.2,0.6C288,168.8,287.6,168.8,287.4,168.9
		L287.4,168.9z"/>
	<polygon points="270.8,195.4 270.9,195.2 270.9,195.4 	"/>
	<path d="M287.3,168.9c-0.1,0.2-0.1,0.3-0.2,0.5C286.6,168.9,287.2,169,287.3,168.9L287.3,168.9z"/>
	<path d="M216.5,37.1c1.4,0,2.2-0.1,3,0c0.7,0.1,1.4,0.5,2,0.8c1.3,0.7,2.7,1.4,4.3,2.6c-0.8,0.3-1.2,0.6-1.6,0.6
		c-1.1,0-2-0.2-2.7,1.1c-0.4,0.7-1.6,1.1-2.6,0.7C218.7,39.8,218.7,39.8,216.5,37.1z"/>
	<path d="M236,72c1.8-1.5,4-2.2,6.1-3c1.5-0.6,2.9-1.2,4.3-1.9c1.1-0.6,1.9-1.4,2.1-2.8c0.1-0.9,0.5-1.8,0.8-2.7
		c1-0.3,1.4,0.3,1.2,0.9c-0.3,1.5-0.8,3.1-1.4,4.5c-0.3,0.7-1.1,1.4-1.8,1.7C243.7,70.3,240,71.8,236,72L236,72z"/>
	<path d="M227.6,35.4c-1.5,0.4-2.5-0.5-3.6-0.9c-1.2-0.4-2.3-0.6-3.5-0.1c-1.4,0.5-2.7,1-4.2,1.4c-0.5,0.1-1.1-0.1-1.9-0.2
		c0.9-1.7,2.4-2.2,3.7-2.5c1.8-0.5,3.7-1.1,5.7-0.3C225.3,33.5,226.8,33.9,227.6,35.4z"/>
	<path d="M235.8,111.3c-4.1,3.8-7.3,3.4-11.6-1.7c0.7,0.2,1.1,0.2,1.5,0.3c2.8,1.3,5.6,2.3,8.7,1.2
		C234.8,111,235.2,111.2,235.8,111.3z"/>
	<path d="M240.6,80.8c-0.3-2.5,1-4,1.6-5.8c0.4-1.1,0.8-2.3,2.1-2.7c0.2,0.2,0.5,0.4,0.4,0.5C243.8,75.5,242.4,78,240.6,80.8z"/>
	<path d="M241.9,109.5c1.3-1.5,2.9-1.2,4.7-1.2C244.9,110,243.9,110.3,241.9,109.5z"/>
	<path d="M240.7,109.6c-1.4,0.9-2.3,1.5-3.8,1C238,109.7,239.1,109.6,240.7,109.6z"/>
	<path d="M236.5,91.1c-0.4,0.4-0.8,0.8-1.3,1.3c-0.6-1.4,0.5-1.3,0.5-2C235.9,90.7,236.2,90.9,236.5,91.1z"/>
	<path d="M238.8,85.9c-0.2,0.2-0.4,0.4-0.7,0.5c0,0-0.2-0.1-0.2-0.2c0.2-0.2,0.4-0.5,0.7-0.7C238.6,85.6,238.7,85.7,238.8,85.9z"/>
	<path d="M235.9,71.9c-0.1,0.1-0.1,0.3-0.2,0.4c0-0.1,0-0.2,0-0.2C235.8,72,235.9,72,235.9,71.9L235.9,71.9z"/>
	<polygon points="234.5,18.4 234.4,18.2 234.4,18.4 	"/>
	<path d="M226.3,14.6c0.3,0.3,0.6,0.6,0.9,0.9C226.9,15.2,226.6,14.9,226.3,14.6z"/>
	<path d="M225.3,241.5c0.2-0.5,0.5-1,0.8-1.8c-1.1-1.1-2.2-2.3-3.3-3.4c0.8-1.3,1.5-1.7,2.2-1.2c0.8,0.5,1.6,1.2,2,2
		c0.6,1.1,1,2.4,1.5,3.8c-1,0.4-1.9,0.7-2.7,1C225.7,241.9,225.5,241.7,225.3,241.5z"/>
	<path d="M249.8,238.7c0.9,0.2,0.9,1.1,1.2,1.7c1.1,2.5,1.4,5.2,1.6,7.8c0.1,0.8,0.1,1.7-1.1,2.1c-0.1-0.3-0.2-0.6-0.2-0.9
		c0.2-2.5-0.4-4.8-0.9-7.2C250.1,241.1,250.1,239.9,249.8,238.7L249.8,238.7z"/>
	<polygon points="245.8,225.6 245.8,225.3 245.9,225.4 	"/>
	<path d="M247.3,231.8c0.1,0,0.1,0.1,0.2,0.1c-0.1,0.1-0.2,0.1-0.2,0.2C247.2,232,247.3,231.9,247.3,231.8z"/>
	<path d="M249.9,238.7c-0.2-0.1-0.4-0.2-0.5-0.4c-0.1-0.1,0-0.4,0.1-0.6c0.1,0.1,0.3,0.2,0.3,0.3
		C249.9,238.3,249.8,238.5,249.9,238.7L249.9,238.7z"/>
	<path d="M254.7,567.5c0.6-0.4,1.1-0.8,1.6-0.9c1.9-0.1,3.6,0.4,5,1.7c0.3,0.3,0.4,0.9,0.2,1.3c-0.1,0.4-0.7,0.9-1,0.8
		C258.3,570.1,256.3,569.6,254.7,567.5z"/>
	<path d="M211.6,167.9c0.5,0.4,0.9,0.9,1.5,1.5C211.9,169.5,211.9,169.5,211.6,167.9z"/>
	<path d="M207.6,162.9c0.7,0.1,1,0.5,0.8,1.1c0,0.1-0.4,0.3-0.6,0.3C207.2,164,207.2,163.5,207.6,162.9z"/>
	<path d="M242.5,13.2c0.4-0.5,0.9-0.8,1.8-0.2C243.5,13,243,13.1,242.5,13.2L242.5,13.2z"/>
	<path d="M261,18.4c0.4-0.4,0.8-0.6,2.1-0.4c-1.1,0.2-1.6,0.2-2.2,0.3L261,18.4z"/>
	<path d="M269,17.6c-0.3,0.8-1,0.7-1.6,0.8C268,18.1,268.5,17.8,269,17.6z"/>
	<path d="M260.9,18.3c-0.2,0.2-0.5,0.4-0.2,0.2c-0.3,0.1,0,0,0.3-0.1L260.9,18.3z"/>
	<path d="M267.6,18.3c-0.3,0.7-1,0.7-1.6,0.8C266.5,18.8,267,18.6,267.6,18.3z"/>
	<path d="M266.1,19c-0.3,0.7-1,0.7-1.6,0.8C265,19.6,265.6,19.3,266.1,19z"/>
	<path d="M264.6,20.6c-0.5,0-1.1,0-1.6,0c0.5-0.3,1.1-0.6,1.6-0.8C264.6,20,264.6,20.3,264.6,20.6z"/>
	<path d="M245.5,14.7c0.2-0.2,0.4-0.4,0.2-0.2C245.9,14.5,245.7,14.6,245.5,14.7L245.5,14.7z"/>
	<path d="M280,62.4c1.2,0.3,1.6,1.3,2.2,2.2l0.1-0.1C280.8,64.6,280.2,63.8,280,62.4L280,62.4z"/>
	<path d="M283,65.4C283,65.4,283,65.3,283,65.4L283,65.4z"/>
	<path d="M283.1,65.3c-0.5-0.1-0.8-0.3-0.7-0.8l-0.1,0.1C282.5,64.8,282.7,65.1,283.1,65.3L283.1,65.3z"/>
	<path d="M255.8,31.6c-0.5,0.3-0.9,0.8-1.9,0.1C254.8,31.7,255.4,31.7,255.8,31.6L255.8,31.6z"/>
	<path d="M264.6,21.3c0-0.3,0-0.6,0-0.9C265.2,20.8,265,21,264.6,21.3z"/>
</g>
</svg>
