<?xml version="1.0" encoding="utf-8"?>
<!-- Generator: Adobe Illustrator 19.2.0, SVG Export Plug-In . SVG Version: 6.00 Build 0)  -->
<svg version="1.1" id="Layer_2" xmlns="http://www.w3.org/2000/svg" xmlns:xlink="http://www.w3.org/1999/xlink" x="0px" y="0px"
	 viewBox="0 0 900 600" style="enable-background:new 0 0 900 600;" xml:space="preserve">
<g>
	<path d="M626.8,402.4c1.7-1.3,3.3-2.5,4.9-3.7c6.2-4.6,13.1-8.3,20.1-11.5c4.6-2.1,9.2-4.2,13.9-6.1c1.8-0.8,3.6-1.7,5.7-1.6
		c0.5,0,1.1-0.2,1.5-0.5c3.8-2.5,8-3.3,12.5-3c3.3,0.3,6.6,0.6,9.9,1c3.2,0.5,6.1,1.7,8.7,3.8c1,0.8,2.1,1.7,3.1,2.5
		c2.6,2.1,4.3,4.7,5.4,7.8c1.4,3.7,2.2,7.3,2,11.3c-0.2,3.9,0,7.7,0,11.6c0,3.6,0.7,7.1,2.2,10.4c2.4,5.5,5.5,10.7,8.5,15.8
		c3.2,5.4,7.8,9,13.1,12c0.7,0.4,1.5,0.7,2.2,0.8c2.6,0.1,5.2,0.5,7.9,0.2c3.8-0.3,7.4-1,10.3-3.5c4.8-1.9,9.5-4.2,14.8-5.3
		c0.3-0.5,0.8-1,1.1-1.6c0.6-1.3,1.7-2.1,2.9-2.6c2.9-1.1,5.7-2.3,8.6-3.2c1.7-0.5,3.3-1,4.7-2c2.2-1.5,4.7-1.8,7.2-2
		c0.9-0.1,1.9,0.2,2.7,0.5c1.6,0.6,3.3,1.2,4.6,2.3c1.4,1.1,2.9,1.1,4.5,1c5.6-0.5,11.2-0.2,16.7,0.7c4.2,0.7,8.4,1,12.7,1.6
		c0.8,0.1,1.5,0.4,2.3,0.6c1.9,0.5,3.9,0.9,5.7,1.7c1.8,0.8,3.4,2,5.1,3c1.9,1.1,3.6,2.3,5.1,3.8c2.7,2.7,4,6.3,5.7,9.6
		c0.5,1.1,1,2.2,1.3,3.3c0.4,1.7,1.5,3.4,0.4,5.4c-0.3,0.5,0.1,1.3,0.1,1.9c1.5,0.9,2.9,1.6,4.1,2.6c1.2,1,2.2,2.3,3.2,3.5
		c0.6,0.7,1,1.6,1.3,2.4c1.2,4.2,1.4,8.4,0.7,12.7c-0.5,3.2-2.4,5.6-4.9,7.5c-0.6,0.4-1.5,0.6-2.2,0.7c-2,0.5-4,1.4-6.2,0.4
		c-0.8-0.4-1.3,0.1-2.5,1.6c1.7,1,3.4,2,5.1,3c1.6,1,3.2,1.9,4.8,2.9c3.5,2.2,6.9,4.5,10.4,6.7c0.4,0.3,0.7,0.8,1,1.2
		c0.1,0.2,0,0.5-0.1,0.7c-0.1,0.2-0.4,0.4-0.6,0.4c-0.5-0.1-1.1-0.2-1.5-0.5c-3.9-2.6-7.8-5.1-11.6-7.8c-2.8-1.9-5.7-3.4-9-4.2
		c-2.4,1.4-3.8,3.7-5.9,5.5c2,1.8,5.5,0.8,6.4,4.1c-0.6,0.1-1.1,0.3-1.6,0.2c-1-0.2-2.1-0.6-3.1-0.8c-3.1-0.7-6.1-1.3-9.3,0.3
		c-2.6,1.3-5.6,1.2-8.6,0.7c-7.1-1.1-14.3-1.8-21.4-2.8c-6.9-1-13.8-0.9-20.8-0.7c-0.7,0-1.4,0-2,0.1c-5,1-10.1,0.8-15.1,0.9
		c-7.5,0.2-14.9,1.2-22.1,3.1c-2.4,0.6-4.9,1.4-7.3,2c-1,0.2-2.1,0.3-3.3,0.4c1.1-2.1,1.4-2.2,5.4-3.8c1.9-0.7,3.9-1.4,6.2-2.3
		c-0.9-0.6-1.4-1-1.9-1.3c-1.1-0.7-2.4-1.2-3.4-2.1c-3-2.6-6.6-3.9-10.3-5c-1.4,0.2-2.4,1.2-3.4,1.9c-3.1,2.3-5.9,5-8.3,8
		c-3.9,4.9-7.9,9.8-11.8,14.6c-0.6,0.7-1.1,1.5-1.8,2.1c-1.5,1.5-3.2,2.8-4.5,4.5c-1.2,1.5-1.9,3.4-2.9,5.3c1.7,2.5,5.1,2.3,7.4,4
		c5.9-2.2,11.8-1.7,17.8-1.2c1.6,0.2,3.2,0.5,4.8,0.4c8.4,0,16.8,1.1,25.1,2.2c4,0.5,7.9,1.3,11.9,1.8c1.6,0.2,3.2,0.3,4.8,0.3
		c4.3,0,8.5,0,12.8-0.2c10.8-0.4,21.6-0.9,32.4-1.3c12-0.5,24-1.2,36-0.8c5.7,0.2,10-2.1,13.8-6c1.3-1.3,2.3-3,4.4-3.3
		c0.4-0.1,0.7-0.4,1-0.7c1.6-2,3.1-3.9,3.9-6.5c0.6-2.1,0.6-3.9-0.6-5.7c-0.7-1-1.3-2-1.8-3.1c-0.2-0.4-0.2-1-0.3-1.3
		c0.7-0.7,1.2-0.3,1.5,0c1.1,1.2,2.2,2.3,3.1,3.7c1.2,1.9,1.5,4,0.8,6.1c-0.6,1.7-1.3,3.6-2.3,5c-1.9,2.7-3.6,5.6-6.8,7.1
		c-0.8,0.4-1.3,1.3-2,1.9c-3.4,3.1-7.4,4.7-11.9,5c-5.1,0.3-10.1,0.4-15.2,0.7c-9.2,0.6-18.3,1.4-27.5,2c-15.6,1-31.1,1.9-46.7,0.6
		c-2.1-0.2-4.3-0.2-6.4-0.4c-1.2-0.1-2.6-0.2-3.4-0.9c-1.2-1.1-2.6-1.2-4-1.4c-8.1-1-16.2-1.5-24.3-1.6c-2.4,0-4.8-0.1-7.2-0.4
		c-2.7-0.3-5.3,0-8.2,0.9c0.9,0.5,1.6,1.1,2.3,1.2c3.6,0.4,7.1,0.9,10.7,1c2.8,0.1,5.6-0.2,8.4,0.3c0.4,0.1,0.8,0.1,1.2,0.1
		c6.9,0.2,13.4,2,19.9,3.9c1,0.3,2.1,0.4,3.1,0.4c3.3,0.1,6.7,0.1,10,0.1c1.6,0,3.1,0.3,4.5,1.2c3.1,1.9,6.4,3.3,10,3.9
		c4.9,0.8,9.5,2.5,14.5,2.8c0.9,0,1.5,0.6,1.6,1.5c0.1,0.9-0.5,1.5-1.2,1.8c-1.5,0.7-2.8,0.5-4-0.7c-0.5-0.4-1-1-1.5-1.1
		c-2.5-0.4-4.8-1.5-7.4-1.4c-1.9,0-3.9-0.7-5.8-1.4c-2.3-0.9-4.7-2-6.8-3.3c-1.5-0.9-2.9-1.2-4.5-1.2c-4.5,0.1-9.1-0.1-13.6-0.8
		c-3.1-0.5-6.3-1-9.4-1.9c-3.6-1.1-7.4-1.1-11.1-1.6c-1.4-0.2-2.9,0.5-4.3,0.4c-4.8-0.4-9.5-1-14.3-1.7c-0.8-0.1-1.5-0.5-2.2-0.9
		c-4.2-1.9-8.5-3.9-12.7-5.8c-1.4-0.7-2.9-1.2-4.7-0.8c-0.2-0.7-0.4-1.2-0.4-1.7c-0.1-0.5,0-1.1,0-1.5c-0.2-0.3-0.3-0.6-0.5-0.7
		c-7.2-6-13.5-12.9-19.4-20.2c-1.3-1.6-2.6-3.1-4.2-4.2c-2.1-1.5-3.8-3.4-5.2-5.5c-1.6-2.3-3.1-4.6-4.5-7.1c-1.1-2.1-2.7-4-4.3-5.8
		c-5.4-5.9-10.3-12.2-15.1-19.1c-2.7-0.7-4.6-3-6.7-5c-1.9-1.8-3.5-4.1-5.8-5.5c-0.4-0.3-0.8-0.7-1-1.2c-0.7-2.1-1.4-4.3-1.9-6.5
		c-0.1-0.3,0.4-0.8,0.7-1.3c1.6,1.8,1,4.5,3.1,6c0.5-0.1,1.1-0.2,1.7-0.4c4.3-1.3,8.2-3.3,11.6-6.1c4-3.4,7.8-6.9,11.7-10.3
		c5.7-5.1,11.4-10,17.6-14.5c0.8-0.6,1.5-1,2.5-1c2-0.1,3.9-0.4,6.2-0.7c0.6,0.4,0.2,1-0.4,1.3c-1.1,0.5-2.2,1-3.4,1.1
		c-2,0.1-3.5,1-5,2.1c-6.4,4.6-11.9,10.3-17.1,16.2c-3.4,3.9-7.5,7.2-11.7,10.3c-2.9,2.2-6.1,3.8-9.8,5c0.5,0.7,0.7,1.3,1.2,1.7
		c2,1.9,4.1,3.8,6.1,5.7c1.7,1.7,3.5,3.2,5.1,5.1c3.4,4,6.6,8,9.9,12.1c0.4,0.5,0.8,1,1.2,1.4c1.1,0.1,1.2-0.7,1.4-1.3
		c1.2-3.3,2.2-6.6,3.5-9.8c7.1-18.7,20.2-31.3,38.5-39c3.2-1.3,6.5-2.5,9.7-3.8c0.6-0.2,1.2-0.5,1.9-0.9c-0.7-2.4-2-4.4-3.3-6.5
		c-6.3,4.6-13.5,6.7-20.8,8.1c-4.8,0.9-9.8,1.4-14.7,0.5c-1.2-0.2-2.3-0.3-3.2-1.7c3.7-0.5,7.2-1.1,10.7-1.6
		c6.9-1,13.7-2.4,20.2-4.7c2.2-0.8,4.5-1.6,6.5-3.2c0-1.6-0.1-3.2-0.6-4.7c-1-2.9-1.3-6-1.3-9.1c0-3.9,0-7.7-0.1-11.6
		c0-1.9-0.3-3.7-0.5-5.6c-0.5-6.3-4.3-10.1-9.6-12.8c-3.1-1.6-6.3-3-9.8-3.2c-3.9-0.2-7.7-0.4-11.6-0.5c-0.9,0-1.9,0.2-2.7,0.5
		c-11.9,4.4-23.2,10.1-34.1,16.6c-8.4,5.1-16.1,11-22.9,17.9c-6,6.1-11.7,12.4-17.6,18.6c-2.6,2.8-4.6,6.2-8.2,8.1
		c-0.7,0.4-1.1,1.5-1.6,2.2c-1.3,1.8-2.6,3.6-4.8,4.6c-1.8,0.8-2.4,2.7-2.9,4.6c-0.4,1.4-0.5,2.9-1,4.3c-1.3,3.1-0.6,6,0.4,9
		c0.3,1,1.1,1.8,1.8,2.6c2.5,2.9,5.1,5.8,7.7,8.6c0.4,0.5,0.9,1.1,1.5,1.2c2,0.5,3.2,1.9,4.5,3.2c1.8,1.8,3.5,3.7,5.2,5.6
		c11.1,12,23.3,22.7,36.2,32.7c0.5,0.4,1.3,0.7,1.5,1.3c0.8,2.1,2.6,3,4.3,3.9c7.9,4.5,15.2,9.9,22.6,15.1c1.5,1.1,3.1,2.1,4.8,2.9
		c7.1,3.6,13.3,8.3,18.6,14.3c0.8,0.9,1.6,1.8,2.4,2.6c1.1,0.2,2.2,0.2,3.1,0.8c1.1,0.7,2.1,1.7,2.9,2.7c1.5,1.9,3.2,3.5,5.3,4.7
		c1.7,1,3.4,1.5,5.3,1.6c4.9,0.2,9.8,0.4,14.8,0.7c1.2,0.1,2.3,0,3.5-0.6c1.9-1,4-1.3,6.2-1.3c7.1-0.1,14.1-0.3,21.1,1.1
		c1.3,0.3,2.6,0.4,3.9,0.8c5,1.4,10,2.7,15.3,2.9c0.7,0,1.3,0.2,2,0.3c1.7,0.3,3.4,0.4,5-0.7c0.8-0.5,1.9-0.7,3-1.1
		c-0.5-1.5-1.3-2.2-2.6-2.3c-1.3-0.2-2.7-0.2-4-0.4c-3.7-0.5-7.3-1.3-10.5-3.5c-0.7-0.5-1.7-0.8-2.6-0.8c-4.3-0.1-8.4-0.9-12.6-1.4
		c-0.1,0-0.2-0.1-0.6-0.4c0.4-0.3,0.7-0.9,1.1-0.9c2-0.1,4-0.2,6,0c4.1,0.5,8.1,1.5,11.9,3c3.6,1.4,7.3,2.5,11.2,2.6
		c2.1,0.1,11.6-0.2,13.4-0.7c0.4-0.1,0.7-0.3,1.3-0.5c-0.4-0.9-1.3-0.8-1.9-1c-3.3-0.9-6.7-2.1-10.1-2.5c-3.7-0.4-7-1.6-10.4-2.8
		c-0.3-0.1-0.5-0.1-0.8-0.3c-3.3-2.3-7.3-2.2-11.1-2.8c-2.1-0.3-4.1-0.7-6.7-1.1c0.7-0.5,1-0.9,1.2-0.9c4.6,0.4,9.3,0.8,13.9,1.2
		c0.6,0.1,1.3,0.3,1.9,0.6c4.1,2.4,7.6,3.6,11.9,4c4.6,0.4,11.1,2.1,15.6,4c-0.1,0.5,0.1,1.3-0.2,1.7c-1.4,2.2-3.5,3.1-6.1,3.2
		c-2.1,0-4.2,0.1-6.4,0.2c-0.3,1-0.4,1.9-0.8,2.7c-0.4,0.6-1,1.3-1.7,1.5c-1.2,0.5-2.6,0.8-3.9,0.9c-8.6,0.8-17-0.1-25-3.7
		c-1.7-0.8-3.3-1.1-5-0.9c-3.3,0.3-6.6,0.2-9.9,0.9c-2.1,0.4-4.2,0.4-6.4,0.6c-2.4,0.1-4.8,0.2-7.2,0.3c-3.7,0.2-7.5,0.3-11.2,0.5
		c-0.1,0-0.3,0-0.4,0c-3.3-0.6-6.5-1-9.9-0.7c-3.7-1.1-7-2.5-8.7-6.4c-0.3-0.6-0.5-1.2-0.9-1.7c-0.5-0.6-1.1-1.2-2-0.8
		c-1.2,0.5-2-0.2-2.8-0.9c-2-1.9-4-3.9-6-5.9c-1.3-1.2-2.6-2.3-3.9-3.4c-1.8,0.2-3.1,1.1-4.4,2.1c-1.4,1-2.8,2-4.2,3
		c-3.1,2-6.5,3.2-10.1,3.7c-7.2,1-14.4,0.9-21.4-1c-0.5-0.1-1-0.4-1.5-0.4c-2.8,0.2-5.2-1.2-7.5-2.3c-4.7-2.3-8.9-5.3-12.8-8.8
		c-1.7-1.6-3.6-2.6-6-2.8c-4.9-0.6-9.7-1.5-14.6-2.2c-1.7-0.2-3.1-0.6-4-2.4c-1.5,0-2.9,0-4.4,0c-11.7,0.1-23.5-0.3-35.2-0.9
		c-2.5-0.1-5.1-0.5-7.6-0.4c-9.6,0.2-19.2,0.1-28.7,2c-4.4,0.9-8.8,2-13.3,3c-2.2,0.5-4.5,0.8-6.7,1.1c-2.4,0.3-4.8,0.5-7.2,0.6
		c-2.6,0.1-5,0.7-7.4,1.6c-6.7,2.4-13.3,4.7-20,7c-5.9,2-11.9,3.9-18.2,4.5c-1.2,0.1-2.3,0.5-3.5,0.8c-7,1.6-14.2,2.3-21.3,3.3
		c-4.9,0.7-9.8,1.1-14.7,1.7c-0.5,0.1-1.1,0-1.6,0.3c-2.2,1.3-4.6,1.1-7,1.3c-4.5,0.5-9,1-13.5,1.7c-10,1.5-20,3.1-30,4.6
		c-9.8,1.5-19.5,2.9-29.3,4.3c-5.9,0.8-11.9,1.3-17.9,1.4c-11.7,0.3-23.5,0.1-35.2-0.3c-5.1-0.2-10.1-0.8-15.1-1.1
		c-2.7-0.2-5.3-0.1-8-0.1c-3.5,0-6.9,0.1-10.4,0.1c-0.9,0-1.9,0.1-2.8,0.3c-2.5,0.6-5.1,0.5-7.5,0c-4.8-1-9.6-2.2-14.1-4.4
		c-1.4-0.7-2.7-0.9-4.2-0.8c-5.2,0.1-10.4,0.3-15.5-0.9c-11.6-2.7-22.9-6.1-33-12.7c-3.7-2.4-7.4-4.7-11.2-7c-1-0.6-2-1.1-3.3-1.2
		c-1.1-0.1-2.2-0.8-3.3-1.3c-3.4-1.8-6.8-3.7-10.3-5.6c-0.8,0.4-1.5,0.7-2.2,1.1c-3,1.6-6.1,2.5-9.5,2.8c-3.7,0.3-7.5,0.4-11.1-0.4
		c-0.6-0.1-1.3-0.1-2-0.1c-4.8,0.1-9.6-0.3-14.3-1.4c-4-1-8-0.6-11.9-0.6c-0.6,0-1.3,0.2-1.9,0.5c-5.6,2.3-11.5,3.2-17.6,3.2
		c-6.7,0-13.3-0.4-19.8-2c-4.4-1.1-8.6-2.7-12.7-4.8c-2.4-1.2-4.8-2.4-7.1-3.7c-1.5-0.9-2.9-2-4-3.2c-2.4-2.6-4.2-5.5-5.4-8.8
		c-0.5-1.2-0.9-2.5-1.4-3.9c1-4.8,2.9-9.3,5-13.8c1.3-2.8,3.7-4.9,5.6-7.2c0.7-0.8,2-1.3,3.1-1.6c1.9-0.6,3.9-1,6.1-1.5
		c2.4-3,6-3.7,10.7-3.2c-1.7-1.5-2.9-2-4.2-1.8c-1.9,0.3-3.4-0.5-4.8-1.4c-4.9-3.3-9.1-7.4-12.3-12.4c-2.2-3.5-3.1-7.3-2.1-11.5
		c1.2-5.2,2.5-10.4,5.2-15c0.8-1.4,1.7-2.7,2.6-4c1.5-2,3.5-3.2,6.2-3.2c1.9,0,3.7-0.1,5.6-0.1c1.2,0,2.4,0.1,3.6,0
		c7.7-0.5,15.4-0.4,23.2,0.1c5.7,0.4,11.5,0.3,17.2,0.3c2.5,0,5-0.6,7.4-1.3c4.4-1.4,8.9-2.8,13.4-3.9c2.4-0.6,5-0.7,7.5-1
		c0.8-0.1,1.5,0.2,1.8,1.1c-0.6,1.1-1.6,1.1-2.5,1.1c-4.4,0.4-8.6,1.8-12.8,3.2c-1.6,0.5-2.7,1.6-3.7,2.9c-2.4,3.4-3.1,7.3-3.4,11.3
		c-0.2,2.3-0.1,4.5-0.3,6.8c-0.1,1.6-0.4,3.2-0.8,4.7c-0.4,1.3-2.1,1.6-2.8,0.4c-0.5-0.9-1-1.9-1.1-2.9c-0.4-6.2-0.3-12.3,2.6-18
		c0.2-0.5,0.4-1,0.7-1.7c-2.2-0.1-4.1,0.5-6.2,0.7c0.6,1.6,0.6,2.9,0.2,4.4c-0.5,1.9-0.7,3.9-0.8,5.9c-0.1,2.4,0,4.8-0.1,7.2
		c0,0.9-0.1,1.9-0.4,2.8c-0.2,0.8-1,1.4-1.8,1.3c-0.6-0.1-1.2-0.6-1.6-1c-0.3-0.4-0.4-1-0.5-1.5c-0.8-4-0.9-8-0.4-11.9
		c0.2-1.7,1-3.3,1.6-4.9c0.2-0.6,0.6-1.1,1.1-1.9c-2.6-0.3-4.8-0.1-6.9,0.2c-0.8,1,0.4,1.4,0.4,2.2c0,0.7,0.1,1.3,0,2
		c-0.1,0.8-0.2,1.6-0.3,2.4c-0.3,2-0.5,4-0.8,5.9c-0.1,0.5-0.2,1.1-0.3,1.6c-0.3,0.9-1.2,1.7-2,1.7c-0.8,0-1.8-0.7-2.1-1.6
		c-0.2-0.6-0.4-1.3-0.4-1.9c-0.2-3.5,1.2-8.6,3.4-11.9c-0.7-0.1-1.3-0.3-1.9-0.3c-4.8-0.2-9.6-0.3-14.4-0.6c-4.3-0.3-8.5-0.7-12.7-1
		c-2.5-0.2-5-0.2-7.6-0.1c-1.7,0.1-3.1,0.8-4,2.4c-1.4,2.6-2.9,5.1-4.2,7.7c-1.4,2.9-2.6,5.8-3.7,8.8c-1.1,3-1,6.1,0.5,8.9
		c3.3,6.1,7.6,11.2,14.5,13.7c5.8,2.1,11.6,3.9,17.7,4.8c2.4,0.4,4.8,0.4,7.2,0.4c0.9,0,1.9-0.1,2.7-0.5c4.6-1.8,9.5-2.7,14.1-4.4
		c1.9-0.7,3.8-1,5.7,0.2c1,0.6,2.3,0.5,3.5,0.6c4.5,0.5,8.4,2.6,12.3,4.5c0.3,0.2,0.7,0.5,0.9,0.8c0.9,2.1,2.4,2.1,4.3,1.6
		c1.9-0.5,3.9-0.7,5.7-1.6c1.2-0.6,2.9-0.5,4.3-0.3c3.7,0.6,7.4,1.2,11,2.1c3.6,0.9,7.2,2.1,10.7,3.2c1.6,0.5,2.8,1.4,3,3.2
		c0.1,0.6,0.4,1.2,0.8,1.7c0.7,1,1.5,1.8,2.3,2.7c0.9,1,1.8,1.9,1.6,3.5c-0.1,0.5,0.5,1.2,0.8,1.8c0.9,1.4,1.1,3,0.8,4.8
		c1.2,0.1,2.4,0.4,3.5,0.4c4.8,0.2,9.6,0.3,14.4,0.5c5.5,0.3,10.9-0.6,16.3-1.2c8.8-1,17.6-0.6,26.2,1.4c3.8,0.9,7.3,2.5,10.7,4.3
		c1.6,0.9,3.1,1.3,4.9,0.7c1.1-0.4,2.4-0.4,3.5-0.6c2.8-0.4,5.5-0.8,8-2.2c2.3-1.3,4.9-2.1,7.7-1.3c0.7,0.2,1.6-0.1,2.3-0.3
		c9.6-2.2,19.2-4.5,28.8-6.8c16.6-4,32.8-9.4,48.2-16.9c4.6-2.2,9.3-4.1,13.9-6.1c1-0.4,1.9-1,2.8-1.5c6.1-3.2,12.7-4.8,19.5-5.6
		c7.2-0.9,14.4-0.7,21.6-0.2c3.7,0.3,7.4,0.5,11.2,0.8c0.9,0.1,1.7,0.4,2.5,0.6c0.2,1.1-0.4,1.5-1,1.6c-1.3,0.2-2.6,0.2-4,0.3
		c-1.3,0.1-2.6-0.4-3.9,0.4c2.3,4.1,4.8,8,6.9,12.1c3.1,6.2,6,12.5,9,18.7c0.5,1,0.9,1.9,1.4,2.9c3.2,6.2,5.5,12.7,6.6,19.6
		c0.8,5.6,0.6,11.2-0.1,16.8c-0.1,1-0.3,2.1-0.4,3.1c1.2,0.8,2.2,0.2,3.2,0.2c0.9,0,1.9-0.2,2.8-0.3c8.1-1,16.1-2,24.2-3
		c5.9-0.8,11.9-1.6,17.8-2.4c1.3-0.2,2.6-0.7,3.8-1.1c6.3-2.1,12.7-4.2,19-6.3c0.9-0.3,1.8-0.6,2.5-1.1c1.9-1.7,4.3-2.1,6.6-2.6
		c1.8-0.4,3.7-0.6,5.8-1c0.1-0.9,0.3-1.8,0.2-2.6c-0.4-2.1-0.9-4.2-1.6-6.2c-2.5-6.9-3.4-13.9-3.6-21.2c0-2.1-0.2-4.3-0.3-6.4
		c-0.4-4.8,0.1-9.6,0.6-14.4c1.9-15.9,4.2-31.7,5.7-47.6c0.3-3.7,0.6-7.4,1-11.1c0.4-3.2,0.9-6.3,1.4-9.5c0.3-1.6,0.3-3.1-0.1-4.7
		c-0.4-1.5-0.3-3.2-0.5-5.1c-1.7-1.5-4-2.6-5.6-3.5c-2.1-0.1-3.5-0.1-4.9-0.3c-2.4-0.3-4.7-0.8-7.1-1.2c-3.5-2.3-7.6-1.9-11.4-2.9
		c-3.9-1-7.9-1.4-11.8-2.3c-5.8-1.3-11.6-2.9-17.4-4.3c-1.9-0.5-4-0.8-5.8-1.5c-3.1-1.3-6.1-2.7-9-4.3c-2.7-1.5-5.2-3.2-7.8-4.8
		c-0.6-0.4-1.4-0.7-2-1c-0.2,0.3-0.3,0.4-0.3,0.5c-0.8,10.8-3.9,21.2-6.6,31.6c-1.8,6.8-3.8,13.6-6,20.3c-2,6.1-4.7,11.9-7.9,17.5
		c-2.7,4.8-5.9,9.2-10.3,12.9c1.1,0.7,2.1,1.4,3.1,2c2.7,1.7,5.4,3.5,7.6,5.8c1.3,1.3,2.6,2.6,3.1,4.5c0.4,1.2,1.4,2.2,2.2,3.3
		c-1.1,0.7-1.4-0.5-2-0.7c-0.7-0.3-1.5-0.5-2.3-0.7c-2-4.4-2.4-5-6.4-7.8c-2.8-2-5.7-4-8.7-5.7c-1.1-0.7-2.5-0.8-3.8-1
		c-7.5-1.2-14.9-3.1-22-5.9c-6.1-2.4-11.9-5.3-17.5-8.8c-11.4-7.2-22.8-14.4-34-21.8c-5.7-3.8-10.9-8.2-15.8-12.9
		c-1.7-1.7-3.4-3.4-3.8-5.9c-0.1-0.7-0.7-1.4-1.3-1.9c-4.3-4.2-8.8-8.2-13.7-11.7c-0.5-0.4-1.1-0.7-1.7-1
		c-5.5-2.6-11.1-5.1-16.6-7.9c-2.4-1.2-4.7-1.8-7.3-0.4c-1.5,5-4.1,9.6-6.6,14.3c-0.2,0.5-0.6,0.9-0.9,1.3
		c-3.6,3.3-7.2,6.7-10.9,9.9c-2.4,2.1-5.2,3.8-7.8,5.6c-0.2,0.2-0.5,0.2-0.7,0.4c-2.5,2.7-6,3.4-9.3,4.1c-5.6,1.3-10.9,3.4-16.2,5.7
		c-0.8,0.4-1.7,0.8-2.5,1.3c-6.5,4.2-13,8.4-19.4,12.7c-1.9,1.2-3.6,2.7-5.4,4.1c-1.8,1.4-3.6,2.7-5.3,4.2c-0.7,0.6-1.2,1.3-1.8,1.9
		c1.5,1.1,3,2,4.3,3.2c2.7,2.6,3.2,5.8,1.6,9.2c-1.2,2.5-2.3,5.1-4.8,6.9c-0.6,3.4-0.4,6.9,0.7,10.2c0.9,2.8,0.2,4.8-1.5,6.9
		c-2,2.5-4.1,4.9-6.7,6.9c-1.2,0.9-2.4,1.7-4,1.6c-0.5,0-1-0.2-1.5-0.3c-0.1-1.4,0.9-2,1.6-2.7c2.1-2.1,4.2-4,6.4-6.1
		c0.7-0.6,1.3-1.4,1.9-2c1.2-1.2,1.5-2.5,0.8-4c-1.4-3-1.3-6.2-1.1-9.4c0.2-2.4,0.8-4.7,3-6.3c0.9-0.7,1.5-1.9,2-3
		c1-2.1,0.8-4.2-1.1-5.8c-1.2-1.1-2.6-1.9-4-2.9c-2.2,1.6-3.2,3-4.6,6.9c1.3-0.2,2.4-0.4,3.6-0.5c0.7-0.1,1.4,0.1,1.6,0.8
		c0.2,0.8-0.3,1.2-1,1.5c-0.4,0.1-0.8,0.3-1.1,0.4c-0.5,0.1-1,0.3-1.6,0.4c-3.3,0.8-6.2,2.3-8.7,4.6c-2.9,2.7-6.1,5.2-9.2,7.7
		c-1.6,1.2-3.3,2.3-5,3.3c-0.8,0.5-1.9,0.7-2.5-0.2c-0.7-1-1.8-1.1-2.8-1.4c-5.8-1.9-10.3-5.5-13.7-10.5c-2.4-3.4-2.1-7.1-0.4-10.6
		c0.8-1.6,1.4-3.1,1.4-4.9c0-3,1.1-5.7,2.7-8.2c0.8-1.2,1.8-2.3,1.8-3.9c0-0.9,0.8-1.3,1.6-1.6c1.6-0.5,3.2-0.3,4.7,0.1
		c1,0.3,1.9,0.8,3.2,1.3c1.2-1.1,2.5-2.2,3.8-3.4c6.7-6.7,12.7-14,18.8-21.3c7.6-9.2,14-19.1,20.8-28.8c3.5-5,7.2-10,11-14.7
		c1.9-2.4,4.3-4.3,6.5-6.5c3.3-3.2,6.5-6.3,9.8-9.4c2.5-2.4,5-4.8,7.4-7.3c2.8-2.8,5.5-5.7,8.1-8.8c3.2-3.9,6.8-7.5,10.3-11.1
		c1.4-1.4,3-2.6,4.7-3.7c1.3-0.9,2.5-1.8,3.6-3c2.1-2.2,4.6-3.5,7.9-2.9c7.7,1.5,15.4,2.8,23.2,4.3c13.7,2.6,27.5,5.3,41.2,8
		c10.8,2.2,21.7,4.3,32.4,7.3c5.3,1.5,10.4,3.2,15.5,5.4c8.9,3.9,17.9,7.5,26.8,11.5c14.8,6.6,28.7,14.6,41.9,24.1
		c3.5,2.5,7.1,4.8,10.6,7.2c2.9,1.9,6,3.3,9.4,4.2c8.2,2.3,16.4,4.6,24.8,6.2c1.2,0.2,2.4,0.5,3.5,0.6c4.4,0.4,8.6,1.3,12.9,2.1
		c1.3,0.2,2.7,0.2,4,0.3c2.7,0.1,5.3,0.5,7.8,1.5c3.8,1.5,7.6,3.1,11.1,5.3c4.6,2.9,9.1,6,13.7,8.9c1.6,1,3.2,1.9,5,2.5
		c4.2,1.6,8.5,3.1,12.8,4.7c4.3,1.6,8.9,1.6,13.4,1.6c0.6,0,1.3-0.2,1.9-0.6c5.1-2.9,10.8-4.6,16.2-6.8c6-2.5,12.1-5,18.1-7.5
		c0.6-0.2,1.4-0.6,1.6-1.1c0.8-2.2,2.8-2.2,4.6-2.8c5.2-1.6,10.5-3,15.7-4.6c4.8-1.5,9.6-3.3,14.4-5
		C623.9,401.1,623.9,401.2,626.8,402.4z M120.9,448.9c1.4-0.1,2.3-0.9,3-2.4c-1,0-1.8,0-2.7,0C121.1,447.3,121,448.1,120.9,448.9
		c-1.6-0.2-2.3,0.8-3.1,2.1C119.7,450.3,119.7,450.3,120.9,448.9z M848.1,483.4C848.2,483.4,847.8,482.9,848.1,483.4
		c3.8,2.5,7.7,4.5,12.6,4.5c0.4-1.5,1-2.8,0.6-4.4c-1.2-0.4-2.4-0.9-3.6-1.4c0-0.5,0.1-0.9,0.1-1.2c1.1-0.4,2.4,0.4,3.6-1
		c0.4-1.3,0.6-2.8,0.4-4.6c-0.7-0.1-1.3-0.4-1.9-0.3c-0.9,0.1-1.8,0.6-2.7,0.5c-2.4-0.1-4.8-0.3-7.2-0.6c-2.5-0.3-5-0.7-7.5,0.1
		c-0.4,0.1-0.9-0.2-1.6-0.5c0.6-0.9,1.1-1.5,1.5-2c0-1.9,0-3.7,0-5.6c0.3-0.3,0.6-0.6,0.9-0.8c3.8-2,7.6-3.9,11.3-5.9
		c0.1-0.1,0.3-0.1,0.4-0.1c0.5,0.3,0.9,0.7,1.5,1.2c1.3-0.6,3.1-0.2,4.5-1.6c-0.2-0.7-0.4-1.4-0.6-2.2c-2.7-0.1-5.1,0.6-7.5,1.5
		c-1.5,0.6-2.8,2.2-4.7,1.3c-0.3-0.1-1,0.3-1.4,0.6c-1,0.7-1.9,1.4-2.9,2.1c-0.3,0.2-0.7,0.1-1,0.2c-0.1-0.3-0.1-0.5-0.1-0.5
		c1.6-1.7,3.2-3.4,4.9-5.1c0.4-0.4,0.9-0.5,1.4-0.7c2-0.8,4.1-1.2,6.2-1.1c1.2,0,2.4,0,3.2-1.5c-0.7-1.1-1.4-2.1-2.8-2.5
		c-3.3,1.2-6.7,2.1-10,2.7c-0.8-0.7-1.5-1.3-2.2-1.9c1-0.7,1.8-1.3,2.6-2c0.8-0.6,1.7-1.3,2.5-2c0.8-0.6,2-0.6,2.6-2
		c-1.9,0.2-3.3,0.9-4.7,1.6c-1.4,0.6-2.3,2.2-4.9,2.9c1.5-3.5,4.4-4.8,6.2-7c-1.5-1.7-3.1,0.1-4.6-0.4c-1.4-1.8-1.4-1.8-3.3-2.3
		c-1.5,0.4-2.3,2.2-4.3,2.3c0.4-1,0.7-1.7,1.1-2.7c-2.6-0.5-4.5,1.4-6.8,1.5c0-1.5,1.9-1.5,2-2.9c-2-0.2-3.5,0.6-5.1,1.2
		c-1.5,0.6-2.9,1.4-4.6,0.8c-0.2-0.1-0.6,0.1-0.7,0.2c-0.3,0.2-0.4,0.6-0.6,0.9c0.7,0.4,1.4,0.7,2,1c-0.2,0.3-0.2,0.5-0.3,0.5
		c-1.4,0.2-2.9,0.5-4.3,0.7c-2.1,0.3-2.7-0.3-3.3-2.8c2.7,1,4-0.7,5.8-2.8c-1.4,0-2.4,0-3.5,0c-0.2,1.4-0.9,2.4-2.2,2.9
		c-1.3,0.3-2.2-0.8-3.2-1.2c-1.4-0.6-2.6,0.1-3.9,0c-3.3-0.3-6.6-0.2-9.9-0.2c-1.9,0-3.7,0.5-5.6,0.5c-1.9,0-3.7,0.4-5.4,1.2
		c-4.1,1.9-8.3,3.6-12.8,4.3c-5.1,0.9-9.6,3.1-14.1,5.3c-3.2,1.6-5.8,3.7-7.6,6.8c-1.4,2.4-3,4.7-4.3,7.2c-2.4,4.8-3.6,9.7-1.6,15
		c0.3,0.9,0.5,1.8,0.8,2.7c1.8,6.2,5.2,11.4,10.9,14.7c2.9,1.7,5.7,3.3,9.1,4.1c2.5,0.6,4.9,1.4,7.2,2.3c3.2,1.2,6.5,1.4,9.8,1.2
		c11.2-0.8,22.3-0.8,33.5,0.6c1,0.1,2.2,0.1,3.1-0.2c1.3-0.5,2.3-0.3,3.4,0.3c1.1,0.5,2.1,1.1,3.2,1.7c1.5,0.8,3,1.2,5.2,0.5
		c-2.3,0-3.8-0.7-5.1-2.3c2.1-0.7,3.8-0.6,5.6,0.2c1.5,0.6,3,1.2,4.5,1.8c2.3,1,4.4,0.5,6.5-0.6c0.2-0.1,0.2-0.5,0.3-0.8
		c-1.1-0.1-2.1-0.1-3.2-0.3c-2.3-0.3-4.8-0.3-6.9-1.5l-0.1,0.1c3.8-0.3,3.8-0.3,6.3-2.5c2.6,0.1,2.6,0.1,4.3-0.5
		c-2.3-1.9-2.3-1.9-2.9-3.4c0.7-0.1,1.3-0.1,2-0.2c0.4,0.5,0.7,1.1,1.2,1.4c0.9,0.6,1.8,1,2.8,1.5c0.4,2.8-2.2,2.2-3.4,3.1
		c3.2,1.6,3.6,1.6,6-0.4c1-0.8,1.9-1.8,2.7-2.6c-0.6-2.4-2.6-2.4-4-3.2c-0.7,0.3-1.3,0.6-1.9,0.8c-1.2-0.2-2.3-0.4-3.5-0.6
		c0.4-1.2,0.9-2.4,1.4-3.8c1,0.4,2,0.8,2.9,1.2c1,0.3,2,0.6,3,0.9c0.3,0.4,0.6,0.8,1,1.2c0.4,0.4,0.9,0.8,1.5-0.2
		c-0.9-0.3-1.8-0.6-2.6-0.9c-0.4-1.3-1.6-1.7-2.6-2.3c-0.9-0.6-1.9-1-2.7-1.7c-0.6-0.5-0.6-1.2,0.5-1.6c0.5,0.3,1,0.6,1.6,0.9
		c2.1,1.4,4.2,2.8,6.3,4.2c1.3,0.8,1.7,0.7,3.2-1.3c-2.1-0.9-4.2-1.7-6.2-2.7c-3.2-1.5-4-2.3-5.3-4.7c3.4,2.1,6.3,4.6,10.8,4.9
		c-1.1-0.7-1.6-1-2.1-1.3c-2.8-1.6-5.5-3.1-8.3-4.8c-0.4-0.3-0.8-0.7,0.1-1.4c2.4,1.4,5,2.7,7.5,4.2c1.4,0.8,2.9,1.4,4.5,1.6
		c0.7,0.1,1.6-0.4,1.4-1c-0.1-0.4-0.5-0.8-0.9-1.1c-0.2-0.2-0.5-0.2-0.8-0.2c-4.1-0.4-7.5-2.5-11-4.5c-2.4-1.5-4.5-3.2-5.2-6
		c0.4-1,0.8-1.9,1.2-2.8c3.8-0.2,7.5,0.2,11.2,0.6c0.6,0.1,1.2,0.4,1.8,0.7c0.2,0.1,0.3,0.3,0.4,0.5c-1,0.5-2.3-0.3-3.3,0.8
		c0.9,0.3,1.7,0.4,2.4,0.7c0.7,0.3,1.3,0.9,1.9,1.4c-1.7-0.1-3.4-0.2-5.2-0.4c-1.6-0.2-3.2-0.8-5.4-0.2c3.3,2,6.8,2.2,9.7,4
		c-1.8,0.6-3.2-0.1-4.7-0.3C851,483.8,849.5,483.6,848.1,483.4z M864.9,489.6c1.5,0.8,1.2,2.8,2.2,4c3.3-1.6,3.2-4.8,3.9-7.5
		c0.7-2.6,0.8-5.3-0.6-7.8c-1.1-2-2-4.3-4.6-5.5c-0.1,1.2-0.3,2.1-0.3,3c-0.1,0.9-0.2,1.8-0.2,2.6c1.2,1,2.3,1.8,3.1,2.7
		c0.9,1,1.7,2.3,1.1,4c-2.4-3-2.4-3-4.3-3.8c-0.1,0.1-0.2,0.3-0.2,0.3c0.3,0.4,0.5,0.9,0.8,1.3c0.7,0.8,1.5,1.5,1.3,2.8l0.1-0.1
		c-0.9-0.4-1.4-1.7-2.8-1.2c-0.5,1.8-0.8,3.6,0.5,5.3c-0.4,0.1-0.7,0.3-1.1,0.4c-0.6,3.3-0.6,3.3-2.3,5.8c1.6-0.1,2.9-0.5,4-1.5
		C865.4,492.7,865.2,491.2,864.9,489.6z M729.7,497.7c-0.3-0.3-0.7-0.5-1-0.8c-0.2,0.3-0.4,0.5-0.5,0.8c-1.3-0.4-2.5-0.8-3.8-1.3
		c-0.4-0.2-1-0.5-0.5-1.4c2.7-0.3,5.4,0,8.1,0.6c5.1,1.2,9.9,3.1,14.5,5.6c1.5,0.8,3.1,1.5,4.8,1.8c2.9,0.4,5.8,1,8.7,1.4
		c1,0.2,2.1,0.2,3.5,0.3c-1.6-0.8-3-1.2-4.2-2c-1.8-1.2-3.4-2.6-5-3.9c-5.1-4.1-5.5-4.7-7.9-10.3c-0.8-1.9-1.2-4.1-2.8-5.7
		c-0.4-0.4-0.5-1.2-0.6-1.9c-0.8-4.2-0.6-8.2,1.8-11.9c1.2-1.8,2.1-3.7,2.7-5.7c0.5-1.5,1.4-2.9,2.1-4.3c0.3-0.6,0.6-1.1,0.9-1.8
		c-0.6-0.1-1-0.3-1.4-0.2c-3.4,0.6-6.8,1.3-10.2,1.9c-1.7,0.3-3.4,0.7-5.1,0.9c-0.3,0-0.9-0.6-1.1-1c-0.1-0.2,0.2-0.9,0.4-1
		c1-0.5,2.1-0.9,2.9-1.3c-1.2-1.3-2.3-2.5-3.5-3.7c-0.4-0.4-0.7-0.9-1.1-1.2c-4.3-3.3-7.3-7.7-10.3-12.1c-0.4-0.6-1-1.2-1.5-1.7
		c-3.1,1.3-6.1,2.6-9.1,3.7c-12.1,4.5-21.6,12.4-29.6,22.3c-7.1,8.8-10.6,19.3-14,29.8c-0.1,0.2-0.1,0.6-0.1,0.8
		c0.2,0.5,0.4,0.9,0.6,1.3c2.5-0.2,4.9-0.6,7.3-0.6c1.9,0,3.3-0.7,4.5-2c0.7-0.8,1.4-1.8,2.7-2.2c0.1,2.1-2,2.5-2.4,4.3
		c2.5,0.8,5,1.5,7.6,2.3c4.5,1.5,4.9,1.7,6.9,3.6c-0.8,0.9-1.7,0.2-2.5,0c-1.7-0.4-3.3-1-5-1.1c-1.2,0-2.3-0.2-3.5-0.5
		c-1.4-0.4-2.8-0.9-4.2-1.2c-3-0.7-6.3-0.6-8.9,0.2c0,0.3-0.1,0.6,0,0.7c1.5,2.7,3.1,5.3,5.4,7.3c1.6,1.4,3,3,4.3,4.7
		c1.3,1.6,2.9,2.2,4.9,2.1c3.5-0.1,6.9-0.5,10.2-1.6c5.4-1.8,10.9-3.4,16.2-5.6c5.6-2.3,11.1-5.2,16.6-7.9c0.2-0.1,0.2-0.4,0.4-0.7
		C728.7,497.6,729.2,497.6,729.7,497.7c-0.3,0.5-0.5,1.1-0.9,1.5c-0.8,0.7-1.9,1.1-2.6,1.8c-3,3-6.6,4.9-10.4,6.6
		c-6,2.6-12.1,4.7-18.5,6.4c-3.6,1-7.3,1.5-11.1,1.2c-0.8-0.1-1.5,0-2.4,0c2.9,5.1,14.7,17.3,19.5,20.1c1.6-0.6,2.3-2,3.2-3.4
		c1.3-2.2,2.6-4.4,4.1-6.4c3.5-4.6,7-9,10.6-13.5c3.7-4.7,8-8.5,13.4-11.2c0.5-0.3,0.9-0.7,1.6-1.3
		C733.8,498.8,732,497.4,729.7,497.7z M414,385.8c-1.2-0.9-2.3-1.6-3.4-2.4c-10.5-7.4-22-13-33.5-18.6c-6.5-3.1-13.2-5.6-19.6-9
		c-9.1-4.9-18.8-8.2-28.9-10.2c-10.6-2.2-21.1-4.3-31.7-6.4c-9.8-1.9-19.5-4.2-29.1-7.1c-2.4-0.7-4.8-1.6-7.3-2
		c-5.8-1-11.6-1.8-17.4-2.4c-2.9-0.3-5.8,0.2-8.4,2c-1,0.7-2.1,1.3-3.2,1.5c-1.8,0.4-3.2,1.2-4.5,2.4c-2,1.8-4,3.5-5.8,5.5
		c-3.8,4.1-7.4,8.4-11.2,12.5c-7.7,8.5-15.7,16.7-24.1,24.6c-2.5,2.4-4.9,4.9-6.8,7.8c-0.7,1.1-1.5,2.2-2.2,3.3
		c-4.9,7.1-9.6,14.4-14.7,21.4c-5.2,7.1-10.8,13.9-16,21c-5.7,7.6-12.5,14.2-19.7,20.4c-1,0.9-2.1,1.7-3.2,2.4c-2.5,1.5-5,3-7.5,4.5
		c-0.2,0.1-0.2,0.5-0.4,0.8c0.3,0.6,0.7,1.3,1.1,2.1c-0.5,0.7-1,1.3-1.3,1.9c-0.3,0.7-0.5,1.4-0.6,2c-0.9,0.2-1.5,0.3-2.1,0.4
		c-0.6,2.3-0.9,4.4,0.5,6.3c3,3.8,6.4,7.2,10.6,9.6c1.5,0.9,3.2,1.3,4.9,1.5c1.7,0.2,3.1-0.2,4.4-1.3c4.1-3.5,8.7-6.6,12.6-10.4
		c1.4-1.4,2.6-2.9,2.9-4.6c0.4-2,1.4-3.4,2.6-4.8c2-2.4,4.4-4.2,6.9-6c1-0.7,2.1-1.3,2.8-2.3c1.8-2.5,4.1-4.2,6.6-5.8
		c4.1-2.7,8.4-5.2,12.5-7.9c1-0.6,2.1-1.2,2.9-2.1c1.2-1.3,2.6-2.2,4.2-3c6.1-2.9,12.4-5.6,19-7.3c2.8-0.7,5.2-1.9,7.6-3.4
		c5.8-3.7,11.1-7.9,16-12.5c3.7-3.5,7.3-7,9.7-11.6c0.3-0.5,0.9-0.9,1.4-1.4c1.5-1.5,2-2.5,2.2-4.7c-1.4-0.3-2.8-0.6-4.2-1
		c-0.6-0.2-1.3-0.5-1.3-1.5c1.4-0.5,2.9-1,4.5-1.2c1.5-0.1,3-0.2,4.3-0.7c2.5-0.8,4.7-0.2,6.9,1c4.5,2.3,9.1,4.4,13.6,6.7
		c2.9,1.5,5.9,3.2,8.5,5.2c3.2,2.4,6.2,5,9.2,7.7c3.4,3.2,6.6,6.6,9.9,9.9c4.4,4.5,9.2,8.4,14.6,11.7c6.9,4.1,13.5,8.5,20.4,12.7
		c7.4,4.5,14.8,8.9,22.4,13.2c9.2,5.2,19,8.9,29.3,11.4c1.6,0.4,3.1,0.7,4.9,0.5c1.8-2.1,3.6-4.2,5.1-6.5
		c4.7-7.3,8.3-15.2,10.8-23.5c2-6.8,3.8-13.6,5.7-20.4c1.7-6.3,3.1-12.7,5.2-18.9C413.9,394.6,414.2,390.5,414,385.8z M382.6,487.2
		c-1.2-0.1-2.3-0.2-3.3-0.2c-4.1,0-8.3,0.1-12.4,0.2c-7.5,0.3-14.8,1.8-21.7,4.9c-7.8,3.5-15.5,7.1-23.3,10.7
		c-7.4,3.4-14.7,6.9-22.7,8.8c-2.1,0.5-4.1,1.1-6.2,1.7c-8.9,2.9-17.9,5.2-27,7.2c-7.7,1.7-15.2,3.9-23.1,4.5
		c-1.6,0.1-3.2,0.7-4.4,1.8c-1.6,1.5-3.3,2.1-5.4,2.1c-0.9,0-1.8,0.3-2.8,0.4c-3.3,0.5-6.6,1.1-9.9,1.6c-0.7,0.1-1.3,0-1.6-0.9
		c0.4-0.8,0.8-1.6,1.3-2.5c-1-0.5-1.9-1.1-2.9-1.5c-4.2-1.6-8.5-3.2-12.8-4.7c-0.9-0.3-1.8-0.4-2.7-0.4c-5.1,0.1-10.1,0.4-15.1,1.2
		c-5,0.8-10,1.6-15.1,0.6c-1.9-0.4-4-0.4-6-0.2c-3.7,0.4-7.5,0.4-11.2,0c-6.9-0.8-13.8-1.6-20.6-2.7c-3.4-0.5-6.8-1.4-10.1-2.2
		c-0.9-0.2-1.8-0.6-1.8-1.8c0.5-1,1.4-1.2,2.4-1c2.1,0.3,4.2,0.6,6.3,0.9c1.7,0.3,3.4,0.6,5,0.8c0.1-0.4,0.2-0.5,0.2-0.6
		c-0.1-0.2-0.1-0.5-0.3-0.7c-2.5-2.8-5.8-4.1-9.4-4.8c-0.4-0.1-0.9-0.1-1.2,0.1c-1.6,1.1-3.3,0.8-5,0.9c-2.8,0.3-5.4,1-7.4,2.9
		c1,1.5,2,2.7,2.8,4c0.8,1.4,1.4,2.8,2,3.9c0,2.1,0,4,0,6.1c-1,1.1-2.9,2.3-1.4,4.6c0.5,0.2,1.1,0.4,1.8,0.6
		c8.9,3.2,17.7,6.8,26,11.2c7.4,3.9,14.8,7.9,22.1,12.1c6.4,3.6,13.1,6.6,19.9,9.2c6,2.2,11.9,4.6,18.4,4.8c3.1,0.1,6.2,0.5,9.2,0
		c2.5-0.4,4.7-0.2,7.1,0.4c1.2,0.3,2.3,0.7,3.4,1c4.6,1.4,9.1,3.1,14,3.1c0.4,0,0.8,0.1,1.2,0.2c1.4,0.8,2.8,0.4,4.3,0.1
		c2.8-0.5,5.5-1,8.3-1.2c3.9-0.2,7.7-0.1,11.6,0c1.4,0,3,0.1,4.3,0.7c1.5,0.8,3,0.8,4.6,0.8c13.2-0.5,26.4-0.6,39.6-1.5
		c11.3-0.8,22.6-2,33.8-3.8c11.4-1.8,22.9-3.4,34.5-4.6c3.2-0.3,6.3-0.7,9.5-1.2c4.5-0.7,8.9-1.4,13.4-2.2c1.9-0.3,4-0.3,5.6-1.4
		c0.1-0.4,0.3-0.6,0.3-0.9c0.1-1.5,0.2-2.9,0.2-4.4c0.2-7.9-0.3-15.7-3.2-23.2c-1.6-4.1-3.5-8.1-5.2-12.1c-0.9-2.1-2.2-3.9-2.3-6.3
		c0-0.9-0.6-1.7-1-2.6c-1.7-3.3-3.2-6.7-5-10C389.3,496.9,386.6,491.9,382.6,487.2z M502.7,416.1c-0.6,8.4-1.2,16.3-1.6,24.3
		c-0.4,10.4-1.6,20.7-2.9,31c-1,8.2-2.2,16.4-3.3,24.5c-0.1,0.8-0.2,1.7,0.1,2.3c0.8,1.6,0.6,3.1,0.3,4.7c-0.5,2.8-0.8,5.5-0.6,8.3
		c0.4,7.6,1.6,15.1,4.2,22.3c0.8,2.2,1.2,4.6,1.7,7c0.1,0.6,0.2,1.2,0.4,2c1.4,0,2.6,0,3.8,0c0.7,0,1.3-0.1,2-0.4
		c4.7-1.9,9.8-2.6,14.8-3.4c6.3-1,12.7-1.4,19.1-0.8c4.8,0.4,9.6,0.6,14.4,0.2c3.6-0.3,7.2-0.4,10.8-0.3c7.9,0.2,15.7,0.4,23.6,0.7
		c2.9,0.1,5.8,0.4,8.8,0.5c1.1,0,1.8,0.7,2.7,1c3.1-8.4,4.4-13.5,5.3-21.4c0.6-4.9,0.7-9.8,0.1-14.8c-0.3-2.6-0.9-5.3-1.3-7.9
		c-0.9-5.5-0.9-5.5-4.3-10c-0.4-0.5-0.8-1.1-1.2-1.6c-1.2-1.5-2-3.5-4.2-4c-0.6-0.1-1-0.9-1.4-1.4c-3.5-3.7-6.9-7.4-10.3-11.1
		c-0.9-1-1.8-1.9-1.9-3.4c-0.1-0.9-0.4-1.8-0.8-2.7c-0.9-2.4-0.6-4.7,0.4-7c1.6-3.7,3.1-7.3,5.6-10.5c2.1-2.6,4-5.3,6.6-7.5
		c0.4-0.3,0.6-0.8,0.9-1.2c-1.1-3.1-2.1-6.2-3.2-9.2c-1.1-3-1.5-6.1-3-8.8c-0.6,0-0.9-0.1-1.1,0c-1,0.4-1.9,0.9-2.9,1.4
		c-8.6,4.3-17.4,8.1-26.5,11.1c-1.9,0.6-3.9,0.7-5.4,2.3c-0.3,0.3-1,0.4-1.5,0.4c-2.2,0.3-4.5,0.5-6.8,0.7c-4.2,0.4-8.2-0.4-12.1-2
		c-4.5-1.8-8.8-3.9-12.9-6.4c-4.1-2.5-8.2-5-12.3-7.5C505.6,417.1,504.5,416.4,502.7,416.1z M142.3,507.4c-1.5-1.2-2.5-2.2-3.7-3.1
		c-0.6-0.5-1.3-1-2-1.2c-5-1.3-10.1-2.6-15.1-3.7c-0.9-0.2-2-0.2-2.7,0.1c-1.5,0.8-3.1,0.7-4.7,0.7c-2.9-0.1-5.6,0.6-8,2.1
		c-2.5,1.5-5.2,2.3-8.1,3c-4.8,1.2-9.4,1-14.2-0.2c-5.9-1.5-11.7-3.8-17.8-4.6c-7.6-2.6-15.5-2.4-23.3-2.2c-1.2,0-2.4,0.4-3.4,0.9
		c-0.4,0.1-0.4,1-0.7,1.7c-1.3,0.3-2.8,0.6-4.2,0.9c-4.5,0.9-7.6,3.7-9.6,7.7c-0.6,1.2-1.1,2.4-1.6,3.7c-0.7,1.7-1.2,3.6-1.9,5.2
		c-1.3,2.6-1.1,5.2,0.2,7.7c3.4,6.6,7.6,12.5,15.4,14.7c1.7,0.5,3.3,1.2,4.9,1.7c10.9,3.4,22,3.5,33.1,3.1c2.4-2,2.5-2.1,5-2.4
		c1.3-0.2,2.6-0.4,4-0.4c4.1-0.1,8.3-0.4,12.4,0c4.5,0.5,9,1.2,13.5,1.5c1.1,0.1,2.1,0.2,3.1,0.6c1,0.3,1.8,0.9,2.6,1.3
		c2.6-0.2,5-0.3,7.4-0.6c2.9-0.3,5.8-0.7,8.6-1.8c0.5-0.2,1.3-0.3,1.3-1.3c-1.6-1.1-3.5-1.7-5.6-2.5c-1.9,2.3-4.5,2.6-7.2,2.4
		c-1.2-0.1-2.3,0-3.4,0.7c-1.1,0.6-2.1,0.2-2.8-0.8c-1.5-2.1-2.5-4.4-2.6-7c-0.1-3.6,0.2-7.2,1.8-10.5c0.5-1,1-1.9,0.7-3
		c-0.6-2.1-0.8-4.5-3.4-5.5c-0.2-0.1-0.4-0.3-0.6-0.5c-0.6-0.5-0.7-1.6-0.3-2.2c0.4-0.5,0.8-1.1,1.4-1.4c2.2-1.3,4.4-2.8,6.9-2.9
		c4.1-0.3,8.3-0.4,12.4-0.3c2.6,0.1,4.7,1.7,6.6,3.4c1.2,1.2,1.4,1.8,1.8,4.9c3.5,0.5,7.1,1.6,11.1,1.5c-0.3-0.9-0.3-1.6-0.7-2.1
		c-0.8-1.1-1.6-2.2-2.6-3C144,512,142.7,510,142.3,507.4z M603.3,540.4c4.8,0.8,9.2,1.5,13.5,2.2c2.7,0.4,5.1,1.4,7.2,3.2
		c1,0.9,2,1.8,3.1,2.5c3.1,2.3,6.3,4.5,9.4,6.7c2.2,1.6,4.8,2.2,7.4,2.7c4.8,0.8,9.6,0.7,14.4,0.5c3.4-0.1,6.9-0.4,10.3-1.3
		c4.6-1.2,8.5-3.5,12-7c-1.2-1.3-2.7-2.1-4-2.9c-3-1.8-6-3.5-8.8-5.5c-6.1-4.1-12.1-8.2-18.2-12.4c-2.2-1.5-4.5-2.9-6.6-4.5
		c-4.3-3.2-8.5-6.4-12.7-9.7c-0.7-0.6-1.6-1.1-2.1-1.8c-1.4-2-3.4-3.3-5.2-4.9c-4.3-3.8-8.5-7.7-12.8-11.5c-0.5-0.4-1-0.8-1.9-1.5
		c0.1,1.5,0.2,2.6,0.3,3.6c0.3,2.2,1,4.5,1.1,6.7c0.6,10.5-0.5,20.8-4.6,30.5C604.4,537.4,603.9,538.8,603.3,540.4z M596.4,433.7
		c2.3-2.3,4.4-4.1,6.1-6.3c5.4-7,11.5-13.2,17.9-19.3c0.7-0.6,1.3-1.3,1.9-2c-10.1,2.7-19.9,6.6-30,9c-0.5,0.1-0.9,0.5-1.4,0.9
		C592.5,421.9,594.1,427.6,596.4,433.7z M103.9,499.7c-1.6-1-3-1.6-4-2.6c-0.9-1.1-2.1-1.6-3.3-2.1c-3.7-1.6-7.7-2-11.7-2
		c-0.8,0-1.6,0.2-2.3,0.6c-3,1.4-6.2,2.3-9.5,3c-0.6,0.1-1.1,0.5-1.8,0.8c0.6,0.4,0.9,0.7,1.3,0.8c4.8,1.4,9.7,2.9,14.5,4.3
		c1.4,0.4,2.9,0.6,4.3,0.8c1.5,0.2,2.8,0,4.2-0.8c1.3-0.7,2.7-1,4.1-1.5C101,500.5,102.2,500.2,103.9,499.7z M844.4,469.6
		c2.6,0,4.7,0,6.8,0c0.6,0,1.4-0.1,1.9-0.4c1-0.8,2.2-0.9,3.4-1c0.5,0,1.1-0.1,1.6-0.2c1.1-0.3,2.3-0.6,3.4-0.9c0-0.5,0.1-0.9,0-1.2
		c0-0.2-0.2-0.5-0.3-0.7c-0.3-0.3-0.6-0.5-1-0.6c-1.2-0.2-2.4-0.3-3.6-0.3C852,464,848.2,465.6,844.4,469.6z M124.3,539.8
		c-0.2-0.5-0.3-1-0.6-1.1c-2-0.9-4.1-1.7-6.2-2.5c-0.4-0.1-0.9,0-1.4,0.1c0.2,2.3,1.4,3.3,3.3,3.4
		C121,539.9,122.6,539.8,124.3,539.8z M790.4,438.5c2.7,0,4.7,0,6.9,0c0.4-0.4,1-0.9,1.6-1.4c0.1-0.1,0.1-0.5,0.2-0.8
		C796.2,435.7,793.4,435.6,790.4,438.5z M846.6,452.8c3.5-0.7,6-1.3,8.6-1.8c0.2-1.1-0.5-1.5-1.2-1.8c-1.2-0.4-2.4-0.1-3.4,0.6
		C849.5,450.6,848.4,451.4,846.6,452.8z M861.8,472.6c0.2-0.6,0.4-0.9,0.3-1.3c-0.1-0.5-0.3-1-0.5-1.5c-1.5-0.2-2.9-0.3-4.9-0.6
		C858.1,471.6,859.9,472,861.8,472.6z M784.5,441.2c-3,0.1-4.3,0.5-6.9,1.8C779.6,443.9,781.1,443.6,784.5,441.2z M855.9,473.4
		c-1-1.3-1.9-1.3-2.8,0.2C854.3,473.5,855.1,473.4,855.9,473.4z M803.1,437.9c-0.1-0.2-0.2-0.4-0.4-0.5c-0.4,0.3-0.8,0.5-1.2,0.8
		c-0.1,0.1-0.1,0.4-0.2,0.7c0.3,0,0.8,0.1,1,0C802.7,438.6,802.8,438.2,803.1,437.9z M490.7,409.1c-0.1,0.1-0.2,0.1-0.3,0.2
		c0.1,0.1,0.1,0.2,0.1,0.2c0.1-0.1,0.3-0.2,0.4-0.2C490.9,409.2,490.8,409.2,490.7,409.1z"/>
	<path d="M794.7,206.3c0.2,1,1.1,1,1.8,1.4c0.6,0.3,1.2,0.4,2,0.7c-0.1,0.7-0.1,1.4-0.4,1.9c-1.5,2.3-3.9,3.1-6.5,3.2
		c-2,0.1-4,0.1-5.9,0.2c-0.5,1.3-0.8,2.4-1.2,3.5c-2.3,1-4.6,1.5-7,1.5c-0.5,0-1.1-0.1-1.6,0c-7.7,1.1-14.8-0.9-21.7-3.8
		c-1.9-0.8-3.8-1-5.8-0.9c-5.8,0.3-11.6,1.8-17.5,1.4c-1.4-0.1-2.9,0.4-4.4,0.4c-4.3,0.1-8.5,0.2-12.8,0.3c-0.3,0-0.6,0.1-0.8,0
		c-2.4-0.9-5-0.4-7.5-0.5c-4.1-0.2-7.3-2.2-9.5-5.8c-0.7-1.1-0.9-2.5-2.4-3.2c-0.5,0.1-1.1,0.2-2,0.4c-4.3-2.9-7.2-7.6-11.8-10.4
		c-2.1,0.2-3.5,1.4-5,2.6c-4,3.1-8.3,5.4-13.3,6c-6,0.8-12,0.8-17.9-0.1c-2.5-0.4-4.9-1.3-7.4-1.4c-1.1,0-2.3-0.7-3.4-1.2
		c-5.5-2.4-10.5-5.9-14.9-9.9c-1.7-1.5-3.4-2.4-5.6-2.7c-4.6-0.6-9.2-1.4-13.8-2.1c-2.9-0.4-3.1-0.4-5.5-2.4c-1,0-2.2,0-3.4,0
		c-10.7-0.2-21.3-0.5-32-0.7c-2.9-0.1-5.8-0.4-8.8-0.6c-8.1-0.4-16.3,0.3-24.4,0.9c-3.3,0.2-6.6,1.1-9.8,1.7
		c-5.2,1-10.4,2.2-15.6,3.2c-2.3,0.4-4.8,0.5-7.2,0.6c-3.1,0.2-6.1,0.8-9,1.8c-7.8,2.8-15.6,5.5-23.4,8.1c-4.3,1.4-8.6,2.8-13.2,3
		c-0.4,0-0.8,0.1-1.2,0.2c-13.1,3.1-26.5,4.3-39.9,5.9c-0.7,0.1-1.4,0.1-1.9,0.4c-1.7,1-3.6,1.1-5.4,1.1c-5.6,0.2-11.1,1.3-16.6,2.1
		c-9.7,1.5-19.5,3-29.2,4.5c-7.8,1.2-15.5,2.4-23.3,3.5c-7.7,1.1-15.4,1.8-23.1,2c-14.4,0.4-28.8-0.1-43.2-0.8
		c-8.4-1.4-16.8-0.4-25.2-0.6c-0.7,0-1.4-0.1-2,0.1c-3.7,1.2-7.4,0.4-11-0.5c-3.9-1-7.7-2-11.3-3.8c-1.1-0.6-2.2-0.7-3.5-0.7
		c-3.2,0-6.4-0.1-9.6-0.2c-7.4-0.4-14.4-2.6-21.3-4.9c-7-2.3-13.6-5.4-19.7-9.6c-3.1-2.1-6.3-4-9.5-6c-0.7-0.4-1.4-1-2.1-1
		c-2.5,0-4.2-1.4-6.2-2.5c-2.9-1.6-5.9-3.1-8.8-4.7c-3.1,1.9-6.3,3.2-9.8,3.7c-3.6,0.6-7.2,0.7-10.8,0.1c-2.1-0.3-4.2-0.5-6.3-0.5
		c-4,0-8-0.4-11.9-1.4c-3.9-0.9-8-0.7-11.9-0.7c-1,0-2,0.6-3,0.9c-4.8,1.7-9.7,2.8-14.9,2.8c-5.3,0-10.6,0-16-0.8
		c-6.9-1.1-13.5-3.2-19.6-6.6c-1.4-0.8-2.7-1.7-4.2-2.3c-2.9-1.1-5-3-6.8-5.4c-2.3-3-4-6.3-5.1-9.9c-0.3-1.1-0.4-2.1-0.1-3.1
		c1.2-4.4,2.7-8.7,5-12.6c1.4-2.4,3.2-4.6,5.1-6.6c0.9-1,2.5-1.4,3.9-1.9c1.5-0.5,3-0.9,5-1.5c-1.4-1-2.5-1.7-3.5-2.5
		c-3.6-2.4-6.8-5.1-9.3-8.7c-1-1.5-1.7-3-1.8-4.8c-0.1-2.8,0-5.6,0.7-8.3c0.9-3.6,2.7-6.7,6-8.6c1.3-0.8,2.2-1.9,3.2-3
		c2-2.3,4-4.7,6.1-6.9c4.3-4.4,9.4-7.3,15.5-8.6c3.8-0.8,7.6-1.6,11.5-1.3c0.8,0.1,1.5,0.3,2.5,0.4c0,0.6-0.1,1.1-0.1,1.6
		c0.2,0.2,0.3,0.5,0.6,0.5c2.7,0.7,5.5,1.2,8.1,2c6.6,2,13.2,4.2,19.8,6.2c2.5,0.8,5.1,1.4,7.7,2c0.7,0.2,1.6,0,2.4-0.2
		c2.8-0.7,5.7-1.5,8.5-2.2c1.3-0.3,2.6-0.6,3.4-1.9c0.6-0.8,1.6-0.8,2.6-0.8c3.9-0.3,7.7,0.3,11.4,1.3c3.3,1,6.6,2,10.1,3
		c0.5,0.7,0.7,1.7,1.8,2.2c3.1,1.3,6,2.8,9,4.2c2.3,1.2,4.3,2.8,5,5.4c0.7,2.6,0.7,5.3-0.9,7.7c-0.1,0.1,0,0.2,0,0.4
		c0.3,0.8,1.1,0.6,1.7,0.7c3.7,0.1,7.4,0.1,11.1-0.5c5.6-1,11.3-2,17-2.3c9.2-0.6,18.4-1.1,27.6-0.6c0.9,0.1,1.9,0.3,2.8,0.2
		c3.6-0.4,6.9,0.6,10.1,2c2.9,1.4,5.7,2.9,8.5,4.5c3.8,2.1,3.8,2.2,7.8,0.8c4.1-1.5,8.3-2.9,12.3-4.7c3.8-1.6,7.4-3.6,11.1-5.4
		c2.5-1.3,4.7-2.9,7.5-3.8c1.2-0.4,2.2-1.4,3.3-2.2C286.9,99,302.3,88,318.4,78c9.5-5.9,19.2-11.6,29.1-16.8
		c7.6-3.9,15.4-7.2,23.7-9.6c1.9-0.5,3.9-0.8,5.8-1.3c0.8-0.2,1.5-0.4,2.3-0.7c12-5.3,24.7-8.5,37.6-10.5c8.7-1.3,17.5-1.4,26.3-1.1
		c6.8,0.3,13.5,1.1,20.2,2.7c4,0.9,7.9,2.3,11.7,3.9c3.5,1.5,7,3.2,10.6,4.7c5.7,2.4,10.9,5.6,16.2,8.6c3.6,2,6.8,4.7,10.3,6.9
		c1.8,1.1,3.7,2.2,5.6,3c4.2,1.7,8.5,3.1,12.8,4.7c4.2,1.6,8.6,1.4,13,1.6c0.9,0,1.8-0.4,2.6-0.8c3.5-1.9,7.3-3.2,11-4.7
		c7.7-3,15.3-6.2,22.9-9.4c0.6-0.2,1.3-0.6,1.5-1.2c0.5-1.3,1.6-1.7,2.7-2.1c0.6-0.2,1.3-0.5,1.9-0.6c9.5-2.2,18.6-5.6,27.8-8.8
		c1.1-0.4,2.3-0.8,3.4-1.2c1.8-0.6,1.8-0.5,4.2,0.8c0.7-0.5,1.4-1,2.1-1.6c7.2-5.8,15.3-10.2,23.7-14c4.7-2.2,9.5-4.2,14.3-6.2
		c1.3-0.6,2.8-0.7,4.2-1.1c0.6-0.2,1.3-0.3,1.9-0.6c4.1-2.7,8.6-3.5,13.3-2.9c3.2,0.3,6.4,0.6,9.5,1.1c3.2,0.5,6.1,1.8,8.6,4
		c1,0.9,2.1,1.6,3.1,2.5c2.3,1.9,3.9,4.3,5,7.1c1.5,3.9,2.4,7.8,2.2,12.1c-0.2,3.9,0,7.7,0,11.6c0,3.5,0.8,6.8,2.2,10
		c2.5,5.8,5.7,11.2,8.9,16.5c3.2,5.2,7.9,8.6,13,11.5c0.8,0.4,1.8,0.6,2.7,0.7c4,0.5,8,0,11.9-0.4c0.6,0,1.3-0.3,1.8-0.7
		c5.6-3.8,12-5.8,18.5-7.8c0.2-0.2,0.6-0.6,0.8-1.1c0.6-1.5,1.7-2.4,3.1-2.9c2.7-1.1,5.4-2.2,8.2-3c1.8-0.5,3.6-1.1,5.1-2.1
		c1.9-1.3,4.2-1.7,6.4-2c1.6-0.2,3.2,0,4.6,1c1.5,1.2,3.5,1.2,4.9,2.6c0.3,0.3,1,0.2,1.5,0.2c0.8,0,1.6-0.1,2.4-0.1
		c5.3-0.6,10.6,0,15.9,0.6c3.9,0.5,7.8,1.5,11.8,1.5c1.2,0,2.3,0.5,3.5,0.8c1.7,0.4,3.4,0.7,5,1.4c1.6,0.7,2.9,1.9,4.4,2.7
		c4.3,2.1,7.6,5.2,9.8,9.6c1.5,3.1,3,6.2,4,9.5c0.3,1.2,0.6,2.3,0,3.5c-0.3,0.5,0,1.3,0.1,2.1c0.6,0.3,1.1,0.6,1.7,0.9
		c1.3,0.5,2.3,1.3,3.2,2.3c0.3,0.4,0.6,1,1,1.3c2.6,1.8,3.2,4.5,3.5,7.3c0.2,2.8,0.3,5.6,0.1,8.4c-0.2,3.5-2.2,6.2-4.9,8.3
		c-0.3,0.2-0.7,0.6-1,0.6c-2.5,0.2-4.7,1.9-7.4,0.7c-1-0.4-2,0.1-2.6,1.5c0.7,0.4,1.4,0.8,2,1.2c5.5,3.4,11.1,6.8,16.6,10.3
		c0.9,0.6,1.7,1.3,2.5,2c0.2,0.2,0.3,1,0.2,1.1c-0.4,0.3-0.9,0.5-1.4,0.4c-0.5-0.1-1-0.4-1.4-0.7c-4-2.7-7.9-5.4-11.9-8.1
		c-2.6-1.7-5.3-3-8.6-3.8c-1.8,1.9-3.6,3.9-5.5,6c0.8,0.3,1.7,0.6,2.5,0.9c1,0.4,2,0.7,2.9,1.2c0.5,0.3,0.6,1,0.9,1.5
		c-0.4,0.3-0.7,0.6-0.9,0.5c-3-0.6-5.9-1.3-8.8-2c-0.5,0.1-0.9,0.2-1.2,0.4c-4.6,2.2-9.4,2.4-14.4,1.3c-4.3-1-8.7-1.2-13.1-1.7
		c-5.4-0.6-10.8-1.2-16.3-1.4c-5.7-0.1-11.4,0-17.1,0.9c-1.8,0.3-3.7,0.2-5.6,0.2c-9.9-0.2-19.7,1-29.2,3.8c-2,0.6-4.1,1.1-6.2,1.6
		c-0.5,0.1-1,0-1.9,0c0.4-0.6,0.6-1.2,0.9-1.3c1.6-0.9,3.3-1.7,5-2.5c1.8-0.8,3.7-1.3,5.5-2c-0.1-0.3,0-0.5-0.1-0.5
		c-2.9-1.9-5.6-4-8.6-5.7c-1.8-1-3.9-1.6-6-2.2c-0.6-0.2-1.6,0.1-2.2,0.5c-1.5,1-3,2.2-4.4,3.4c-3.8,3.2-6.8,7.2-9.9,11
		c-2.6,3.2-5.1,6.5-7.7,9.7c-1,1.2-2,2.6-3.2,3.5c-2.9,2.2-4.1,5.4-6,8.2c1.9,2.5,5.1,2.3,7.4,4c3.7-1.2,7.5-1.9,11.4-1.7
		c0.7,0,1.4-0.1,2,0.1c5.8,1.1,11.7,0.8,17.5,1.4c5.8,0.5,11.7,1.2,17.5,1.9c4.1,0.5,8.2,1.3,12.2,1.8c1.3,0.2,2.7,0.2,4,0.2
		c10.1-0.2,20.3-0.4,30.4-0.8c9.1-0.3,18.1-0.9,27.2-1.3c2-0.1,4-0.1,6-0.2c5.9,0,11.7-0.3,17.6,0c5.3,0.2,9.2-2.1,12.8-5.5
		c0.7-0.6,1.2-1.4,1.9-2.1c0.6-0.5,1.2-1.2,1.9-1.5c4.2-1.8,5.6-5.4,6.5-9.4c0.3-1.4-0.3-2.6-1-3.8c-0.7-1.1-1.4-2.3-2-3.4
		c-0.2-0.4-0.2-0.9-0.2-1.5c1.7,0,2.4,1.1,3.1,1.9c2.6,2.9,3.6,6.2,1.9,9.9c-1.9,4-4.2,7.7-8,10.2c-0.9,0.6-1.6,1.4-2.4,2.1
		c-3.7,3.4-8.1,5.2-13,5.3c-8,0-16,0.8-23.9,1.3c-10.4,0.7-20.7,1.4-31.1,2c-6.7,0.4-13.3,0.7-20,0.6c-6.9-0.1-13.8-0.8-20.7-1.2
		c-1.2-0.1-2.3-0.2-3.3-1.2c-0.5-0.5-1.4-0.7-2.2-0.7c-4.6-0.5-9.3-1.1-13.9-1.3c-6.8-0.4-13.6-0.7-20.4-1c-2.1-0.1-4.2-0.1-6.6,1.2
		c1.3,0.5,2,1.1,2.9,1.2c3.8,0.5,7.6,1.2,11.5,0.9c2.5-0.2,5,0.2,7.6,0.3c5.6,0.2,11.1,1.4,16.5,2.8c0.4,0.1,0.8,0.1,1.2,0.2
		c3.5,1.8,7.3,1.4,11,1.5c0.7,0,1.3,0,2,0c3.4-0.2,6.5,0.1,9.5,2.2c2.3,1.5,5,2.3,7.8,2.8c5,0.8,9.9,1.9,14.9,2.9
		c0.9,0.2,1.6,0.9,1.5,1.6c-0.1,0.9-0.6,1.4-1.4,1.8c-1.3,0.6-2.6,0-3.9-0.1c-0.1-0.4-0.1-0.8-0.2-1.3c-2.9-0.7-5.7-2-8.9-1.8
		c-0.9,0.1-1.9-0.2-2.7-0.5c-3.1-1.2-6.3-2.3-9.1-3.9c-1.9-1.1-3.6-1.4-5.7-1.4c-6.8,0-13.6-0.6-20.2-2.2c-1.9-0.5-3.8-1.3-5.8-1.4
		c-3.5-0.2-7.1-1.4-10.7-0.3c-0.7,0.2-1.6,0.1-2.4,0c-3.8-0.5-7.7-0.9-11.5-1.5c-1.3-0.2-2.6-0.6-3.8-1.2c-2.2-1-4.2-2.2-6.4-3.2
		c-3.5-1.5-7-3.3-11-3.7c-0.1-1-0.2-2-0.4-3.2c-7.2-5.7-13.5-12.6-19.3-19.9c-1.5-1.9-3.1-3.6-5-5.1c-1.6-1.3-3.1-2.9-4.4-4.6
		c-1.7-2.4-3.1-4.9-4.7-7.4c-1.3-2-2.7-4-4.3-5.8c-5.4-6-10.5-12.4-15.3-19.3c-1.9-0.3-3.4-1.8-5-3.3c-1.3-1.3-2.6-2.7-3.9-4
		c-1.3-1.3-2.7-2.5-4.6-4.2c-0.5-1.7-1.2-3.9-1.8-6.3c-0.2-0.6,0-1.3,1-1.3c1.3,1.6,0.7,4.3,2.9,5.7c0.5-0.1,1.2-0.2,1.8-0.4
		c5.5-1.7,10.1-4.7,14.4-8.4c5.8-4.9,11-10.5,17-15.1c3.6-2.8,7.1-5.6,10.5-8.4c1.4,0,2.6,0,3.8,0c1.3,0,2.4-1.2,3.9-0.7
		c-0.2,0.5-0.2,1-0.5,1.1c-1.1,0.5-2.2,1.1-3.3,1.2c-1.6,0.1-3.2,0.3-4.4,1.5c-1.1,1.1-2.9,1.5-3.3,3.3c-0.9-0.2-1.5,0.4-2.1,0.9
		c-3.4,2.8-6.6,5.8-9.4,9.2c-4,4.8-8.6,9.1-13.6,12.9c-2.8,2.1-5.7,3.9-9,5.1c-0.7,0.2-1.6,0.2-1.8,1.6c1.9,1.8,3.7,3.9,5.9,5.7
		c2.5,2,4.8,4.2,6.9,6.7c3.2,3.9,6.4,7.9,9.6,11.8c0.4,0.5,0.8,0.9,1.5,1.5c0.4-1.1,0.7-1.8,1-2.5c1.3-3.5,2.5-7,3.8-10.5
		c6.2-15.5,16.8-26.9,31.6-34.6c4.9-2.5,10-4.4,15.1-6.4c1-0.4,1.9-0.9,3-1.4c-1.2-2.3-2-4.5-3.6-6.2c-1.5,0.9-2.8,1.9-4.3,2.6
		c-9.4,4.6-19.3,6.8-29.8,6c-1.2-0.1-2.3-0.4-3.5-0.7c-0.9-0.2-1.2-1-1.4-1.8c1.1,0,2.1,0.2,3.2,0.1c4.1-0.5,8.2-1.1,12.3-1.8
		c5.8-1,11.5-2.3,17-4.4c1.8-0.7,3.8-1.3,5.3-2.8c0.1-1.5,0.1-2.9-0.5-4.3c-1.1-3.1-1.3-6.2-1.4-9.5c-0.1-3.5,0-6.9-0.1-10.4
		c-0.1-2.5-0.3-5.1-0.6-7.6c-0.4-3-1.7-5.6-3.8-7.8c-3.1-3.3-7.1-5.3-11.3-6.5c-4.5-1.3-9.2-1.5-13.9-1.6c-2,0-3.9,0.4-5.8,1.3
		c-1.3,0.7-2.7,1.1-4.1,1.6c-3.2,1.3-6.5,2.5-9.6,4c-4.2,2-8.3,4.2-12.4,6.4c-11.6,6.3-22.1,13.9-31.3,23.4
		c-6.5,6.8-12.9,13.8-19.3,20.8c-1.2,1.3-2.2,2.8-3.7,3.6c-1.2,0.7-2,1.6-2.8,2.7c-1.1,1.7-2.1,3.5-4,4.4c-2.4,1-3.3,2.9-3.9,5.2
		c-0.5,1.9-1,3.9-1.4,5.8c-0.8,3.7,0.1,7.1,2.6,10c1.6,1.9,3.5,3.7,5.2,5.6c1.7,2,3.1,4.3,5.9,5.1c0.6,0.2,1,0.8,1.5,1.3
		c1.1,1.1,2.3,2.3,3.3,3.4c12,13.3,25.3,25.2,39.5,36.1c0.4,0.3,1,0.6,1.2,1c0.9,2.4,3.1,3.2,5,4.4c4.3,2.9,8.8,5.6,13.1,8.5
		c3.2,2.1,6.3,4.5,9.5,6.7c1.3,0.9,2.7,1.8,4.1,2.5c7.1,3.5,13.3,8.3,18.6,14.3c0.9,1,1.8,1.9,2.8,3c2.1-0.4,3.6,0.7,4.8,2.2
		c0.7,0.8,1.3,1.7,2.1,2.4c2.7,2.8,5.7,4.7,9.7,4.8c4.5,0.1,9.1,0.4,13.6,0.6c1.8,0.1,3.4-0.2,5-0.8c1.6-0.6,3.4-0.9,5.1-0.9
		c4.7-0.1,9.3-0.1,14,0.1c3.7,0.1,7.5,0.6,11,1.6c5.4,1.6,10.9,2.4,16.4,3.1c3.4,0.4,6.2-0.4,9.1-1.7c-0.1-0.4-0.1-0.7-0.2-0.9
		c-0.9-1.2-2.2-1.3-3.5-1.5c-5.2-0.5-10.4-1.2-14.1-4.5c-4.9-0.5-9.2-0.8-13.6-1.3c-0.4,0-0.8-0.5-1.2-0.8c0.3-0.3,0.4-0.4,0.5-0.4
		c0.4-0.1,0.7-0.3,1.1-0.3c5.7-0.5,11.2,0.7,16.4,2.7c3.1,1.2,6.3,2.3,9.6,2.7c5,0.7,10.1,0.3,15.1-0.3c0.6-0.1,1.2-0.3,1.9-0.5
		c-0.3-0.4-0.4-0.7-0.6-0.7c-4.1-1-8.2-2.1-12.4-3.1c-1.3-0.3-2.6-0.3-3.9-0.8c-2.9-1-5.9-1.7-8.5-3.4c-0.6-0.4-1.5-0.5-2.3-0.6
		c-3.8-0.6-7.6-1.1-11.5-1.7c-0.4-0.1-0.7-0.5-1.3-1c0.8-0.1,1.2-0.2,1.6-0.2c3.6,0.4,7.1,0.8,10.7,1.2c2.1,0.2,4.3-0.1,5.9,1.9
		c0.2,0.3,0.7,0.3,1.1,0.5c3.3,1.1,6.5,2.2,10,2.6c2.6,0.3,5.2,1,7.9,1.4C792.3,206.3,793.5,206.2,794.7,206.3z M850.6,136.8
		c0.1,0.2,0.2,0.4,0.4,0.5c0.1,0.1,0.3-0.1,0.5-0.2c-0.1-0.1-0.2-0.1-0.3-0.2C851,136.9,850.7,136.9,850.6,136.8
		c-2.5-1.9-5.2-3.5-8.1-4.7c-0.2-0.1-0.5,0-0.8,0c0.2-0.7-1.3-1.2-0.1-2.2c2.3,1.3,4.8,2.6,7.2,4c1.5,0.9,3.1,1.5,4.8,1.8
		c1,0.1,1.5-0.4,1.4-1.4c-0.9-0.9-2.1-1.1-3.2-1.2c-1.9-0.2-3.6-0.9-5.2-1.8c-1.4-0.8-2.8-1.6-4.1-2.4c-2.3-1.4-4.4-3-5.1-5.7
		c0.3-1,0.6-1.9,0.9-2.9c4.2-0.5,9.3-0.2,12.6,0.7c0.2,0,0.3,0.3,0.4,0.5c-0.9,0.7-2.2,0-3.4,0.9c2.2,0.8,4,1.4,5.9,2
		c1,0.3,1.8,0.2,2.7-0.8c0.1-1,0.4-2.1,0.5-3.3c0.1-1-0.9-2-1.8-1.6c-2.2,1-4.4,0.4-6.7,0.3c-1.1-0.1-2.1-0.2-3.2-0.4
		c-2.5-0.3-5-0.6-7.5-0.1c-0.4,0.1-0.9-0.2-1.5-0.3c1-1.8,1.1-2.1,1.1-4.5c0-1,0-2.1,0-3c3.4-2.5,9.8-5.8,13.5-6.9
		c0.2,0.3,0.4,0.7,0.6,1c-0.1,0.1-0.1,0.1-0.2,0.2c0-0.1,0.1-0.2,0.1-0.2c1.6,0.2,3.1-0.1,4.7-1.1c-0.3-0.9-0.5-1.7-0.8-2.5
		c-4.1,0.2-7.5,1.5-10.5,3.5c-0.8-0.2-1.4-0.4-1.9-0.6c-1.7,1.1-3.1,2-4.5,3c0,0-0.2-0.1-0.3-0.2c-0.3-0.8,0.4-1.1,0.8-1.6
		c0.9-0.8,2-1.4,2.6-2.4c0.7-1.1,1.7-1.7,2.8-2.1c2-0.8,4-1.4,6.2-1.2c1.3,0.1,2.3-0.1,3.2-1.3c-0.8-1.3-1.8-2.3-3.1-3
		c-0.2-0.6-0.3-1.4-0.7-1.7c-0.4-0.4-1.2-0.6-1.8-0.6c-2.2-0.1-3.5,1.4-5.3,3c3-0.3,5.4-0.5,7.9-0.8c-0.6,0.4-1.2,1.1-1.9,1.3
		c-2.5,0.7-5.1,1.3-7.8,2c-0.7-0.7-1.4-1.4-2.2-2.1c2.6-1.9,5-3.7,7.5-5.5c-2.6,0.2-3.9,0.7-5.8,2c-0.8,0.5-1.5,1.1-2.3,1.5
		c-0.2,0.1-0.6-0.3-0.9-0.5c0.4-1.6,1.7-2.1,2.6-3c1-1,2.1-1.9,3.2-2.9c-1.6-1.6-3.2,0-4.9-0.5c-0.5-1.3-1.3-2.5-3.1-2.3
		c-1.5,0.5-2.2,2.3-4.1,2.3c0.1-0.4,0.1-0.8,0.3-1.1c0.2-0.4,0.4-0.8,0.7-1.5c-2.6-0.6-4.4,1.5-7,1.1c1.1-0.9,1.9-1.6,2.9-2.4
		c-1.7-0.6-2.9,0-4.1,0.5c-2.1,0.8-4.1,1.9-6.5,1.5c-0.3-0.1-0.8,0.5-1.5,1c1.1,0.4,1.8,0.7,3.1,1.2c-2.4,0.9-4.4,1-6.4,1
		c-0.6,0-1.2-0.5-1.6-1c-0.3-0.3-0.2-1-0.2-1.5c2.5,0.5,3.8-1.1,5.2-2.7c-1-0.9-2-0.7-2.8-0.4c-0.9,1.2-1.6,2.2-2.3,3.2
		c-0.6-0.2-1.3-0.3-1.8-0.8c-0.9-0.8-1.9-0.9-3-1c-1.7-0.1-3.4-0.1-5.1-0.1c-4.5,0.2-9,0.4-13.6,0.6c-1.6,0.1-3.1,0.4-4.6,1.1
		c-4.2,1.9-8.6,3.7-13.2,4.5c-5,0.8-9.3,3.1-13.8,5.2c-3.7,1.8-6.6,4.4-8.6,8.1c-0.9,1.8-2.1,3.4-3.1,5.2c-2.9,5.1-4,10.4-2,16.1
		c0.4,1.3,0.7,2.6,1.1,3.9c1.2,3.9,3.3,7.4,6.2,10.1c3.3,3.1,7.3,5.3,11.7,6.8c3.3,1.1,6.6,2,9.9,3c2.7,0.9,5.5,1.1,8.3,0.9
		c2.8-0.2,5.6-0.4,8.4-0.4c8.8-0.2,17.6-0.1,26.3,1c0.6,0.1,1.5,0.3,1.9,0c1.8-1.1,3.3-0.3,4.9,0.5c1.4,0.7,2.7,1.8,4.4,1.7
		c0.8,0.8,1.6,0.6,2.5,0.1c-0.9,0-1.7,0-2.6,0c-0.5-0.7-1.1-1.4-1.8-2.2c2-0.7,3.7-0.6,5.4,0.2c1.5,0.6,3,1.2,4.5,1.8
		c2.4,0.8,4.7,0.5,7.2-1c-3.7-1.2-7.4-0.4-10.9-2.3c1.5-0.1,2.8,0.1,3.8-0.3c1.1-0.4,1.9-1.3,2.8-2.1c2.5,0.3,2.5,0.3,4.5-0.3
		c-0.8-1.3-2.9-1.4-3.2-3.1c0.3-0.2,0.4-0.4,0.5-0.4c2,0.5,3.5,1.8,5.3,2.6c0.6,0.3,0.5,1.7-0.2,2.1c-0.9,0.4-1.9,0.8-3.3,1.4
		c1.6,0.5,2.7,0.8,3.7,1.1c2.2-1.1,3.9-2.5,5.3-4.5c-0.5-2.3-2.6-2.3-4.1-3.1c-0.7,0.4-1.3,0.7-1.8,1c-1.1-0.4-2.4-0.4-3-1.7
		c0.4-0.9,0.7-1.7,1.1-2.7c2,0.8,4,1.5,5.9,2.3c0.6,0.6,1,1.6,2.2,1.3c-0.5-1.1-1.4-1.2-2.3-1.2c-0.4-0.5-0.6-1.2-1.1-1.5
		c-1.2-0.8-2.5-1.5-3.7-2.3c-0.5-0.3-0.8-0.9-1.6-1.7c1,0,1.6-0.3,1.9-0.1c1.8,1.1,3.6,2.3,5.4,3.4c1.1,0.7,2.2,1.4,3.3,2.2
		c0.9-0.6,1.9-0.8,1.8-2.1c-4.2-1.8-8.8-3-11.8-6.9c0.5-0.3,0.8-0.5,1.2-0.7C844,134.9,846.9,136.6,850.6,136.8z M844.2,127.2
		c-0.3-0.1-0.6-0.3-0.2-0.1C843.6,127,844,127.1,844.2,127.2c0.1,0,0,0.2,0.1,0.3c3.3,2.7,7.1,4,11.3,4.2c0.7-1.5,0.9-2.9,0.7-4.3
		c-1.3-1.4-3.6-0.7-4.5-2.6c-0.1-0.2-0.5-0.2-0.7-0.2c-3.1-0.4-6.2-0.7-9.8-1.1c3.8,2.6,8.1,2.9,12,5.2c-1.9-0.3-3.3-0.4-4.8-0.7
		C847.1,127.8,845.6,127.5,844.2,127.2z M860.1,133.6c1.5,0.8,1,2.7,2.2,3.8c1.7-1.3,3.2-2.8,3.2-5.2c0-0.6,0.2-1.3,0.4-1.9
		c1.4-4.5,0.5-9.4-4.9-13.9c-0.2,1-0.3,1.9-0.4,2.8c-0.1,1-0.2,2.1-0.2,3c2.2,1.7,4.7,3.1,4.5,6.8c-0.9-1.1-1.4-1.8-2-2.5
		c-0.8-0.9-0.8-0.9-2.9-1.4c0.6,0.8,1,1.5,1.5,2c0.6,0.7,1.1,1.5,1,2.5l0.1-0.1c-0.9-0.5-1.4-1.6-2.9-1.4c-0.7,1.9-0.8,3.8,0.6,5.5
		c-0.4,0.1-0.8,0.1-1.3,0.2c-0.1,0.7-0.2,1.5-0.3,2.3c-0.2,0.6-0.5,1.2-0.8,1.8c-0.2,0.6-1.4,0.8-0.8,1.8c1.4-0.5,2.9-0.5,3.6-1.7
		C860.5,136.4,860.3,135,860.1,133.6z M136.1,119.2c0.2,0.2,0.4,0.4,0.6,0.5c3.7,1.4,7.6,1.2,11.2,1.9c0.3-0.4,0.4-0.6,0.6-0.8
		c1.7-1.5,1.5-3.6,1.3-5.5c-0.2-2.2-1.5-3.6-3.5-4.5c-3.6-1.7-7.2-3.4-10.8-5.2c-2.1-1.1-4.6-1.4-6-3.6c-0.3-0.5-1.2-0.6-1.8-0.8
		c-1.7-0.4-3.4-0.7-5-1.3c-1.7-0.5-3.4-0.4-5.1,0.2c-1.1,0.4-2.3,0.8-3.4,1.2c-4.8,1.6-9.6,3.1-14.6,3.9c-2,0.4-4,0.7-5.7-0.9
		c-0.3-0.2-0.7-0.3-1.1-0.4c-4.8-1.5-9.7-2.9-14.5-4.4c-7-2.1-14-4.2-21-6.4c-1.7-0.5-3.4-0.7-5.1-0.4c-4.8,1.1-9.5,2.7-13.5,5.7
		c-2.9,2.1-5.4,4.7-7.8,7.5c-2.4,2.7-4.7,5.5-7.8,7.4c-1.4,0.9-2,2.1-2.3,3.6c-0.9,3.6-0.8,7.1-0.1,10.7c0.6,2.8,1.8,5.2,4.2,7
		c0.3,0.2,0.6,0.5,0.9,0.8c2.2,1.9,4.4,3.8,7.6,3.9c1.4,0,2.8,0.9,4.1,1.5c1.8,0.8,3.6,1.6,5.5,2.4c2.1,0.9,4.1,1.8,6.2,2.7
		c1.6,0.7,3.3,0.9,5,0.2c1.1-0.4,2.3-0.5,3.5-0.5c4.9-0.3,9.8,0.3,14.7,1.1c6.3,1.1,12.5,2.4,19,2.1c2.2-0.1,4.2,0.6,6.2,1.3
		c1.9,0.7,3.8,1.4,5.8,1.3c2.7,0,5.3,0,8-0.1c1,0,1.9-0.3,3.3-0.5c-3.2-1.3-4.2-4.2-6.3-6c-0.3-0.2-0.3-0.7-0.3-1.1
		c-0.1-0.5-0.1-1.1-0.1-1.6c-0.1-3.2,0.1-6.4,0.8-9.5c0.6-2.6,0.4-5.3,1.8-7.7c0.1-0.2,0-0.4-0.1-0.6c-0.6-0.2-1.2-0.4-2.1-0.6
		c1.6-3.5,4.9-4.6,7.5-6.8c-0.2-1.6,0.8-2.6,2.2-3.2c0.6-0.3,1.2-0.6,1.9-0.7c5-1,9.8-0.6,14.4,1.5c1.1,0.5,2,1.3,2.9,2
		c0.4,0.3,0.6,0.8,0.9,1.3c0.3,0.6,0,1.4-0.8,1.5C137.1,119.4,136.5,119.3,136.1,119.2c-0.2-0.9-1-1.2-1.7-1.5
		c-5.3-2.5-10.7-3-16.3-1.4c-0.3,0.1-0.6,0.5-0.9,0.7c0.8,0.7,1.5,1.4,2.4,2.2c-1.2,1.4-2.2,2.6-3.2,3.8c0.6,1.3,0.1,2.4-0.5,3.4
		c-3,5-3.5,10.5-3.8,16.2c-0.1,1.7,0.3,3.1,1.7,4.1c2.1-0.3,4-0.9,6-0.9c4.9,0,9.9,0.1,14.8,0.3c4.8,0.2,9.5,1.3,14.1,2.3
		c6,1.3,11.5,3.5,16.2,7.3c3.7,2.9,7.7,5.2,11.9,7.2c3.5,1.7,6.8,3.6,10.2,5.5c1.9,1,3.9,1.8,6,2.1c2.8,0.4,5.6,0.6,8.3,0.9
		c0.5,0,0.9-0.1,1.5-0.2c-0.3-0.8-0.5-1.4-0.6-2c0.3-0.1,0.6-0.3,0.8-0.2c0.6,0.1,1.3,0.2,1.9,0.5c1.5,0.8,3,1.7,4.5,2.5
		c1.2,0.6,2.4,1.2,3.7,1.5c5.7,1.3,11.4,2.5,17.2,3.8c2,0.4,3.9,0.7,5.9,0.6c6.1-0.3,12.2-0.6,18.4-0.8c5.5-0.2,10.9-0.5,16.2-2
		c6.4-1.8,12.8-3.5,19.1-5.7c10.3-3.5,20.7-7.1,31.3-9.6c1.9-0.5,3.8-1.2,5.6-2c12.8-5.2,26-8.6,39.7-10.5c7.1-1,14.2-2.1,21.3-3.1
		c1.4-0.2,2.8,0,4.6,0c0.6-1.1,1.3-2.3,2-3.6c2.2-4.7,3-9.7,3.2-14.7c0.3-10.3-0.4-20.5-2.4-30.6C393,84,389,73.6,383.4,63.8
		c-2-3.5-4.3-6.7-7.7-9.3c-1.9,0.8-3.9,1.6-5.8,2.3c-2.1,0.8-4,2-6.2,2.3c-0.4-0.5-0.6-0.8-0.8-1.2c-0.4,0.1-0.7,0.2-1.1,0.4
		c-2.3,1.1-4.6,2.2-6.8,3.3c-20.6,10.7-40.3,22.9-59.3,36.2c-8,5.6-16,11-24.4,16c-3.3,2-6.7,3.8-9.6,6.4c-0.7,0.6-1.5,1.1-2.3,1.6
		c-5.8,3.3-11.9,5.9-18.5,7.2c-0.9,0.2-1.9,0.3-2.7,0.7c-2.4,1.3-4.7,0.8-6.9-0.2c-1.5-0.6-2.8-1.5-4.3-2.2
		c-2.4-1.2-4.7-2.4-7.1-3.6c-2.8-1.4-5.7-2-8.9-2c-8.3,0.2-16.5,0.3-24.8,0.4c-1.7,0-3.5-0.3-5.2-0.1c-1.8,0.3-3.5,1.2-5.3,1.6
		c-6.8,1.5-13.6,2.5-20.6,2.4c-3.8-0.1-7.4-0.5-11-1.6c-4.6-1.3-9.3-2.5-13.9-3.7c-0.6-0.2-1.3-0.4-1.8-0.8c-0.3-0.2-0.3-0.7-0.4-1
		c2.4-0.6,2.5-0.5,4.3-0.2C133.5,118.8,134.8,119,136.1,119.2z M387.4,64.1l-0.1-0.1c0.1,1.8,1.2,3.2,2,4.7c2.9,6,5.5,12.1,7.3,18.6
		c2.4,8.8,3.7,17.7,4,26.8c0.2,6,0.3,12-1.8,17.8c-0.3,0.7-0.3,1.6-0.3,2.4c-0.3,4.8-2.2,9-4.8,13c-0.5,0.8-1.1,1.6-2.1,1.6
		c-1.3-0.1-1-1.3-1.4-2.1c-0.1-0.1-0.2-0.2-0.3-0.2c-0.3,0-0.6-0.1-0.8,0c-7.1,2.3-14.5,3.5-21.8,4.8c-8.7,1.5-17.3,3.1-25.8,5.5
		c-5.4,1.5-10.7,3.2-16.1,4.6c-7.6,2-15.2,4.2-22.6,6.7c-7.2,2.4-14.4,4.7-21.6,7.1c-1.1,0.4-2.3,0.8-3.4,1.3
		c-8.1,3.4-16.6,5-25.3,5.1c-3.6,0.1-7.2,0-10.8-0.1c-0.9,0-1.9-0.1-2.8-0.3c-6.5-1.4-13-2.8-19.5-4.1c-1.3-0.3-2.7-0.8-3.9-0.6
		c-2,0.3-3.7-0.4-5.3-1.3c-1.1-0.6-2.1-1-3.4-1.1c-4.8-0.4-9.5-1-14.3-1.5c-1.7-0.2-3.3-0.6-4.8-1.6c-2.1-1.3-4.5-2.2-6.8-3.3
		c-0.6-0.3-1.3-0.4-1.9-0.5c-5.2-0.4-10.4-0.8-15.5-1.1c-0.9-0.1-1.9-0.2-2.8,0c-4.3,0.7-8.5,0.4-12.7-0.1
		c-3.7-0.4-7.4-0.7-11.1-1.3c-5.4-0.9-10.7-2-16.1-3c-1-0.2-2-0.6-3-1.1c-0.3-0.2-0.5-0.9-0.5-1.3c0-0.3,0.5-0.7,0.8-0.7
		c1.5,0,2.9,0,4.4,0.2c2.2,0.3,4.5,0.8,6.7,1.2c0.6,0.1,1.2-0.1,2.2-0.1c-0.7-0.9-1-1.5-1.5-1.9c-2-1.8-4.5-2.8-7.1-3.6
		c-3.9-1.1-7.9-0.8-11.9-0.7c-5.2,0.2-10.4,0.3-15.3-1.9c-0.5-0.2-1-0.4-1.5-0.5c-0.5-0.1-1.1-0.2-1.5,0.1c-1.8,1.1-3.6,0.6-5.5,0.4
		c-4.6-0.6-9.2-1.3-13.8-2c-6.9-1.1-13.8-1.4-20.7-1.2c-2.2,0.1-4.2-0.2-6.2-1.1c-1.1-0.5-2.2-0.9-3.3-1.3c-4.9-2-4.9-2.2-10-1.3
		c-7.7,1.3-10.5,2.5-14,10.7c-1.1,2.6-1.9,5.3-2.9,7.9c-0.6,1.4-0.6,2.9-0.1,4.3c0.4,1.1,0.8,2.3,1.3,3.3c2,3.9,4.8,7,7.8,10.1
		c0.6,0.6,1.5,1.1,2.4,1.5c4.5,2,9.1,3.9,14,4.8c4.2,0.8,8.4,1.5,12.6,1.9c5.4,0.5,10.9,0.3,16.5,0.1c0.7-1.7,2-2.1,3.6-2.3
		c5.7-0.9,11.4-0.7,17.2-0.6c0.4,0,0.8,0.1,1.2,0.1c4,0.5,7.9,1,11.9,1.4c2.3,0.2,4.5,0.5,6.2,1.8c12.1-0.7,14.5-1.1,17.6-3.5
		c-1.7-1.2-3.6-1.7-5.6-2.5c-2.3,2.1-5.1,2.7-8.1,2.3c-0.8-0.1-1.5,0-2.3,0.5c-0.5,0.3-1.2,0.5-1.8,0.7c-0.5-0.4-1.1-0.7-1.3-1.1
		c-1.7-2.4-2.9-5.1-2.8-8.2c0.1-3.2,0.4-6.4,1.9-9.3c0.9-1.7,0.9-3.2,0.3-5c-0.5-1.6-1.1-2.9-2.8-3.7c-2-0.9-1.5-2.9-0.2-3.8
		c1-0.7,2-1.4,3.1-1.8c0.9-0.4,1.8-0.1,2.1,1.4c-0.9,0.7-1.9,1.6-3.4,2.8c3.9,1.3,3,5.4,5.3,7.3c0,1.7-0.1,3,0,4.3
		c0.1,1.3-0.1,2.3-1.2,3.1c-1.1,0.9-0.8,2.1-0.3,3.4c0.5,0.2,1,0.3,1.5,0.5c8.8,3.1,17.4,6.7,25.7,11c7.7,4,15.3,8.2,22.8,12.5
		c8.7,5,18,8.7,27.5,11.8c2,0.7,4.1,1.6,6.1,1.7c4.8,0.3,9.6,0.5,14.4,0.3c2.3-0.1,4.5-0.1,6.7,0.6c3.1,0.9,6.1,1.9,9.2,2.7
		c3.7,0.9,7.5,1.8,11.3,2.1c2,0.2,4.2-0.7,6.3-1.1c1-0.2,2.1-0.3,3.2-0.3c4.5,0,9.1-0.1,13.6,0c1.3,0,2.7,0.2,3.8,0.8
		c1.2,0.6,2.3,0.7,3.4,0.7c4.5-0.2,9.1-0.4,13.6-0.5c11.1-0.2,22.1-0.6,33.1-1.5c8.6-0.7,17.2-1.8,25.8-3c10.8-1.5,21.6-3,32.5-4.5
		c3.8-0.5,7.7-0.8,11.5-1.4c5.3-0.8,10.5-1.7,15.8-2.6c1.7-0.3,3.4-0.5,5.1-1.4c0.8-9,0.7-17.9-2.3-26.5c-1.8-5-4.1-9.8-6.2-14.7
		c-0.6-1.3-1.3-2.6-1.8-3.8c0.5-0.7,0.9-1.2,1.3-1.7c-0.8-1.1-1.4-2.1-2.1-3.1c-0.5-0.8-1.1-1.5-1.5-2.3c-0.3-0.5-0.4-1.1,0.2-1.4
		c0.4-0.1,1,0.1,1.4,0.4c0.3,0.2,0.6,0.5,0.8,0.8c2.1,2.5,3.8,5.1,5,8.1c0.4,1.1,0.9,2.2,1.4,3.3c1.2,2.8,2.6,5.5,3.7,8.4
		c2.6,6.6,4.1,13.5,3.8,20.7c-0.1,2.8-0.4,5.6-0.6,8.4c-0.1,1-0.6,2.1,0.4,3.3c1.2-0.1,2.5-0.2,3.7-0.4c2.9-0.4,5.8-0.8,8.7-1.2
		c9.1-1.1,18.2-2.3,27.4-3.4c5.7-0.7,11.3-1.9,16.7-3.9c3.7-1.4,7.6-2.6,11.4-3.8c2.1-0.7,4.3-1.2,6.2-2.7c0.7-0.6,1.7-0.8,2.6-1
		c2.1-0.5,4.2-0.9,6.3-1.3c0.8-0.2,1.5-0.4,2.2-0.6c0.6-2.8-0.1-5.2-1-7.6c-2.9-7.6-4-15.5-3.9-23.5c0-0.9,0.1-1.9-0.1-2.8
		c-0.7-3.2-0.6-6.4-0.3-9.6c0.7-7,1.6-14,2.4-21.1c1.2-10.7,2.6-21.4,3.7-32.2c0.8-7.7,1.3-15.4,2.8-23c0.2-0.8,0.3-1.6,0.2-2.4
		c-0.3-2.2-0.6-4.4-1-6.9c-1.2-0.7-2.5-1.6-3.9-2.4c-7.2-4.1-14.7-7.6-22.6-10c-3-0.9-6.2-1.5-9.4-1.9c-11.4-1.4-22.9-1.4-34.3-0.6
		c-7.4,0.5-14.8,2-22.1,3.5c-7.2,1.5-14.3,3.3-21.2,5.9c-0.8,0.3-1.9,0.3-2.1,1.8c2.8,2.5,5,5.7,7.1,8.9
		C386.6,63.4,387.1,63.8,387.4,64.1z M596,183.9c1.8-5.5,3.7-11,4.6-16.8c1.1-7.7,1.9-15.3,0-23c-0.2-0.9-0.2-1.8-0.4-2.8
		c-0.5-4.4-1.5-8.6-4.8-11.9c-1.8-1.8-2.8-4.5-5.5-5.5c-0.4-0.2-0.8-0.7-1.1-1.1c-3.4-3.7-6.9-7.4-10.3-11.1
		c-0.7-0.8-1.3-1.7-1.7-2.7c-0.5-1.4-0.8-2.8-1.1-4.2c-0.3-1.4-0.4-2.9,0.1-4.3c1.2-3.4,2.4-6.8,4.5-9.8c2.7-3.9,5.5-7.9,9.3-10.9
		c-1.1-3.2-2.1-6.2-3.2-9.2c-1.1-3.1-1.6-6.4-3.3-9.5c-1.7,0.8-3.3,1.5-4.8,2.3c-8.5,4.3-17.2,7.9-26.2,10.8
		c-1.6,0.5-3.4,0.7-4.6,2.1c-0.4,0.4-1.2,0.5-1.9,0.5c-2.1,0.2-4.2,0.4-6.4,0.6c-3.6,0.3-7.2-0.2-10.6-1.4c-4.9-1.8-9.6-4-14-6.7
		c-4.2-2.6-8.4-5.1-12.6-7.7c-1.1-0.7-2.2-1.6-3.9-1.4c-0.4,3.4-0.8,6.8-1,10.2c-0.5,7.4-0.9,14.9-1.3,22.3
		c-0.6,9.7-1.9,19.3-3.2,29c-0.8,5.9-1.6,11.9-2.4,17.8c-0.1,0.8-0.3,1.7,0,2.3c1.1,2,0.5,3.9,0.3,5.9c-0.2,1.2-0.4,2.4-0.4,3.6
		c-0.2,8.3,0.9,16.5,3.6,24.4c1.1,3.3,2.2,6.6,2.4,10.1c0,0.2,0.3,0.4,0.6,0.7c2.2,0.2,4.4,0.2,6.6-0.8c1-0.4,2-0.7,3.1-0.9
		c8.7-2.1,17.5-3.5,26.5-3c3.6,0.2,7.2,0.4,10.8,0.6c1.1,0,2.1,0.1,3.2,0c5.7-0.8,11.4-0.6,17.2-0.4c7.9,0.2,15.7,0.5,23.6,0.7
		c2,0.1,4,0.2,6,0.5C594,183.1,594.9,183.5,596,183.9z M698.3,179.3c1.7-1,2.5-2.3,3.3-3.7c1-1.7,2-3.5,3.2-5.1
		c4-5.2,8-10.3,12.1-15.4c3.4-4.2,7.4-7.6,12.2-10.2c0.7-0.3,1.3-0.8,2.1-1.3c-1.7-1.2-3.4-1.5-5-2.1c-1.2-0.5-2.3-0.9-3.8-0.6
		c-1.5,0.4-2.1-0.2-3.7-2c2.1-0.5,4-0.3,5.9,0c6.1,1.1,11.8,3.4,17.3,6.1c1.2,0.6,2.4,1.2,3.7,1.5c2.6,0.6,5.2,1,7.9,1.4
		c1,0.2,1.9,0.3,2.8,0c-3.7-3-7.3-5.9-10.8-8.9c-0.8-0.7-1.3-1.7-1.8-2.6c-2-3.3-2.6-7.3-5.1-10.3c-0.1-0.1-0.1-0.2-0.1-0.4
		c-0.9-4-1.3-8.1,1-11.6c2.6-4.1,3.7-8.8,6.4-12.9c-0.6-0.1-1-0.4-1.3-0.3c-3.4,0.6-6.8,1.2-10.2,1.8c-1.7,0.3-3.4,0.7-5.1,1
		c-0.4,0-1-0.5-1.1-0.8c-0.1-0.4,0.2-1,0.6-1.3c0.4-0.3,1-0.4,1.4-0.6c0.5-0.2,1.4,0.1,1.6-1c-1.6-0.4-2.6-1.7-3.5-2.9
		c-0.6-0.8-1.5-1.5-2.2-2.3c-0.9-0.8-1.8-1.6-2.6-2.5c-2.3-2.9-4.5-5.9-6.8-8.9c-0.5-0.6-1-1.1-1.5-1.7c-3.2,1.3-6.1,2.5-9.1,3.6
		c-11.1,4.2-20.2,11.2-27.8,20.2c-3.7,4.4-7,9.1-9.2,14.5c-2.3,5.5-4.3,11.2-6.4,16.8c-0.2,0.5-0.4,1-0.3,1.5
		c0.1,0.5,0.4,0.9,0.7,1.3c2.5-0.3,4.9-0.8,7.3-0.8c2.1,0,3.6-0.6,4.9-2.2c0.6-0.7,1.2-1.7,2.5-1.8c-0.1,2-2.1,2.5-2.5,4.3
		c2.5,0.7,5,1.4,7.5,2.2c2.5,0.8,5,1.6,7,3.4c-0.5,1-1.2,0.6-1.8,0.5c-1.7-0.4-3.3-1-5-1.4c-2.7,0.8-4.9-0.7-7.3-1.3
		c-3.4-0.8-6.8-0.8-10.2-0.4c0,0.4-0.1,0.8,0,1c1.3,2.6,2.9,5.1,5.1,7.1c1.6,1.4,2.9,3.1,4.4,4.6c0.7,0.8,1.5,1.5,2.2,2.3
		c3.7,0.1,7.3,0.2,10.8-0.7c9.9-2.7,19.6-6,28.7-10.9c2.2-1.2,4.5-2.2,6.8-3.3c0.4-0.2,0.8,0,2,0c-1.7,1.3-3,2-4,3
		c-2.7,2.7-5.9,4.5-9.3,6.1c-6.7,3.1-13.6,5.4-20.7,7.2c-3.5,0.9-7.1,1.3-10.7,0.8c-0.5-0.1-1,0-1.6,0
		C682,164.2,692.9,175.6,698.3,179.3z M598.3,184.2c1,0.2,1.5,0.3,2,0.4c3.3,0.5,6.6,1,9.9,1.3c4.1,0.5,7.5,2.3,10.6,5
		c3,2.6,6.4,4.8,9.6,7.2c3.1,2.3,6.6,3.3,10.4,3.5c6.1,0.4,12.3,0.4,18.4-0.2c5.7-0.5,10.8-2.9,15.1-6.6c0.4-0.3,0.6-0.8,1-1.2
		c-0.9-1.3-2.1-1.8-3.2-2.5c-3-1.8-6-3.5-8.9-5.4c-6.3-4.2-12.6-8.5-18.8-12.8c-2.9-1.9-5.8-3.8-8.5-5.9c-3.7-2.7-7.2-5.5-10.8-8.2
		c-0.8-0.6-1.6-1.4-2.4-2.1c-1.2-1.1-2.2-2.3-3.4-3.3c-4.7-4.3-9.5-8.5-14.3-12.8c-0.4-0.4-1-0.7-1.7-1.2c-0.3,1.8,0.1,3.3,0.3,4.7
		c0.3,2,0.8,3.9,0.9,5.9c0.5,10.5-0.7,20.7-4.9,30.5C599.2,181.5,598.9,182.7,598.3,184.2z M617.3,50.1c-0.1-0.2-0.3-0.4-0.4-0.6
		c-2,0.7-4,1.3-6,2c-7.6,2.5-15,5.5-22.9,7.1c-0.7,0.2-1.3,0.7-2.2,1.2c1.7,5.6,3.4,11.1,5.2,16.5c0.1,0.3,0.5,0.5,0.9,0.8
		c2.2-2.3,4.4-4.3,6.3-6.7c5.1-6.4,10.7-12.2,16.6-17.8C615.5,51.7,616.4,50.9,617.3,50.1z M134.9,149.4c0.7,0.5,1.4,0.9,2,1.3
		c1.6,1.1,3.3,2.2,4.8,3.5c2.6,2.2,4.6,4.8,4.2,8.4c0.4,0.2,0.6,0.4,0.8,0.5c8.6,0.3,17.2,0.9,25.8,1.8c0.4,0,0.8-0.1,1.2-0.1
		c0.1,0,0.1-0.1,0.3-0.4c-0.7-0.8-1.7-1.1-2.7-1.5c-2.7-1.1-5.3-2.3-7.3-4.6c-0.7-0.8-1.6-1.3-2.6-1.9c-6.9-4.1-14.4-6.7-22.3-8
		C137.6,148.1,136.3,148.3,134.9,149.4z M133.3,160.6c4.9,1.6,8.2,2,10.8,1.3c-0.1-1.4-0.9-2.5-1.8-3.4c-3.2-3.3-7-5.7-11.4-7
		c-1.1-0.3-2.4-0.4-3.5-0.4c-0.5,0-1,0.6-1.8,1.1c1.3,0.7,2.2,1.2,3.1,1.7C132.1,155.9,132.7,156.7,133.3,160.6z M856.1,108.4
		c-7.1-0.9-8.2-0.9-11.3,0.9c-1.9,1.1-4.1,1.8-5.4,4c2,0,3.8-0.1,5.5,0c1.8,0.2,3.3-0.5,4.9-1.3c0.2-0.1,0.5,0,0.8-0.1
		c1.9-0.4,3.9-0.7,6-1.1C856.4,110,856.3,109.3,856.1,108.4z M119.8,183c-2.8-1.5-5.5-2.3-8-3.3c-0.2-0.1-0.5,0.1-0.8,0.2
		c0.2,1.3,0.5,2.7,1.9,3.1C115,183.6,117.2,183.9,119.8,183z M785.6,82.2c2.4,0,4.4,0,6.7,0c0.4-0.4,1.2-1.1,2.3-2.1
		C791.2,79.5,788.3,79.3,785.6,82.2z M857,116.1c0.1-0.9,0.3-1.8-0.7-2.6c-1.3,0.2-2.8-0.8-4.4-0.2
		C853.6,115.4,853.6,115.4,857,116.1z M772.7,86.8c3.7,0.4,4.4,0.1,7.2-2.4C777.2,85.2,774.8,85.4,772.7,86.8z M851.5,116.4
		c-1.1-0.4-2.1-0.6-3.2,0.3C849.8,117.7,849.8,117.7,851.5,116.4z M797.8,81.2c-0.8-0.2-1.1,0.3-1.5,0.8c-0.1,0.1,0,0.3,0,0.4
		c0.2,0.1,0.5,0.3,0.6,0.2C797.6,82.4,798.1,82.1,797.8,81.2z"/>
	<path d="M454.6,407.7c-1.2,6.4-2.3,12.6-3.7,19.8c-0.8-4.3,0.3-7.4,0.6-10.6c0.3-3.1,1.5-6.2,1.4-9.5c-4.2-1.8-8.7-1.4-12.8-3.1
		c0.6-0.1,1.2-0.2,1.7-0.1c2.1,0.2,4.2,0.6,6.3,0.9c1.7,0.2,3.4,0.4,5.1,0.7c1.5,0.3,3.1,0.8,4.6,1c1.5,0.2,2.7,0.8,4.4,1.8
		C459.4,409.3,457.3,407.5,454.6,407.7z"/>
	<path d="M64.9,459.4c0.3-1.6,0.5-3.1,0.9-4.5c0.2-0.7,0.8-1.3,1.4-1.9c0.5-0.5,1.7-0.2,2,0.5c0.2,0.5,0.4,1,0.3,1.5
		c-0.2,2.4-0.4,4.7-0.6,7.1c0,0.4-0.1,0.9-0.4,1.1c-0.4,0.4-1,0.9-1.6,1c-0.4,0.1-1.1-0.5-1.2-0.9C65.4,462.1,65.2,460.7,64.9,459.4
		z"/>
	<path d="M433.8,520c-0.4-0.5-0.8-1-1.1-1.5c-1.3-2.6-2.5-5.3-3.8-7.9c-2-4.1-4.5-7.8-7.7-11.1c-0.5-0.6-1-1.2-1.4-1.9
		c0,0,0.1-0.2,0.1-0.3c0.8-0.3,1.2,0.4,1.6,0.8c5.1,5,8.5,11.2,11,17.8c0.5,1.4,0.8,2.8,1.1,4.2L433.8,520z"/>
	<path d="M61.3,456.7c-0.2,0.8-0.4,2.1-0.7,3.4c-0.1,0.4-0.8,0.9-1.2,0.8c-0.6-0.1-1.4-0.4-1.6-0.8c-0.8-1.9-0.7-3.8,0.2-5.7
		c0.4-0.7,1-1.3,1.9-1.1c0.9,0.2,1.2,0.9,1.3,1.7C61.4,455.4,61.3,455.8,61.3,456.7z"/>
	<path d="M665.1,393.6c-1.1,0-1.4-0.7-1.2-1.5c0.2-0.6,0.5-1.3,1-1.7c2.4-2.1,5.2-3.6,8.1-4.7c0.3-0.1,0.7,0.2,1.4,0.4
		c-0.6,0.6-1,1.1-1.5,1.4c-1.3,0.8-2.8,1.5-4.1,2.4c-1.6,1-3.1,2-3.9,3.8L665.1,393.6z"/>
	<path d="M468.7,492.2c0.3-0.3,0.6-0.7,0.9-0.7c1.4,0,2.9,0,4.3,0.2c2.2,0.4,4.4,0.8,6.6,0.1c0.8-0.2,1.8,0.1,2.7,0.4
		c0.3,0.1,0.6,0.6,0.6,0.9c0,0.2-0.5,0.6-0.8,0.6c-0.6,0-1.3-0.1-1.9-0.4c-1.8-0.8-3.5-0.8-5.4-0.6
		C472.2,493.2,471.5,493.1,468.7,492.2z"/>
	<path d="M693.7,426.1c1.9-1.7,4.3-1.3,6.5-2.3c0,0.6,0.1,1.1,0,1.2C698.2,426.6,696.8,426.8,693.7,426.1z"/>
	<path d="M723.5,166.8c2.3-2.8,2.4-2.9,4.7-2.4C727.2,166.5,726.9,166.6,723.5,166.8z"/>
	<path d="M748.3,554.6c1.6-1.2,2.9-1,4.3-0.5c0.3,0.1,0.7,0.7,0.6,0.9c-0.2,0.4-0.6,0.9-1,1C750.9,556.2,749.6,555.8,748.3,554.6z"
		/>
	<path d="M733.6,521.1c-1.6,1.3-2.9,2.5-5.1,1.9c0.9-1.7,2.2-2.4,3.8-2.7C732.6,520.2,733,520.7,733.6,521.1z"/>
	<path d="M463.3,491.6c-4,0.5-4.2,0.5-7.7-1C458.2,490.3,460.5,490,463.3,491.6z"/>
	<path d="M472.7,549c-0.1-2.7-0.1-5.4,0.5-8C473.7,543.7,474.1,546.4,472.7,549z"/>
	<path d="M699.4,558c-1.7,0.6-1.8,0.5-4.2-2.9c0.2-0.7,0.7-0.7,1.2-0.5C697.8,555.3,699,556.3,699.4,558z"/>
	<path d="M865.9,175.9c-0.2-0.2-0.4-0.3-0.5-0.6c-0.3-1.2-0.5-2.5-0.8-3.8c1.3-0.3,1.8,0.4,2.1,1.3
		C867.3,174.5,867.2,174.9,865.9,175.9z"/>
	<path d="M869.7,527.7c2.5,1.1,2.9,2.5,1.2,4.8C870,531.1,869.9,529.5,869.7,527.7z"/>
	<path d="M420.1,458.5c-1.6,1.6-3.1,3.2-4.8,4.7c-0.4,0.4-1.1,0.5-1.7,0.8l0.1,0.1c1.4-2.3,3.6-3.9,5.7-5.4c0.2-0.1,0.5,0,0.8,0
		L420.1,458.5z"/>
	<path d="M427.4,460.9c1.8-1.9,3.7-3.7,5.5-5.6l-0.1-0.1c-1.1,2.6-2.9,4.5-5.5,5.6L427.4,460.9z"/>
	<path d="M424.2,485.6c2.6,0.1,5.2,0.2,7.8,0.3c0,0.1,0,0.1,0,0.2c-2.2,0-4.5,0-6.7,0C424.9,486.1,424.6,485.7,424.2,485.6
		L424.2,485.6z"/>
	<path d="M688.9,548.9c2.3,0.4,2.3,0.4,4.3,2.7C691.4,552,690.7,551.5,688.9,548.9L688.9,548.9z"/>
	<path d="M412.9,464.8c-1.1,1.9-2.6,3.3-4.8,4l0.1,0.1C409.6,466.8,410.6,465.9,412.9,464.8L412.9,464.8z"/>
	<path d="M451.3,490c-1.6,0.6-2.8,0.1-4.5-0.7C448.7,489,450,488.8,451.3,490z"/>
	<path d="M404.2,472.1c0.8-1.7,2.1-2.8,4-3.2l-0.1-0.1C407.3,470.5,405.9,471.6,404.2,472.1L404.2,472.1z"/>
	<path d="M424.3,485.5c-1.7,0-3.3,0-5-0.1C420.9,485,422.6,484.7,424.3,485.5L424.3,485.5z"/>
	<path d="M858.8,161.1c0.4-0.1,0.6-0.2,0.7-0.1c0.7,0.2,1.1,0.7,1.1,1.4c0,0.2-0.3,0.4-0.4,0.6c-0.4-0.3-0.8-0.5-1.1-0.9
		C858.9,161.9,858.9,161.6,858.8,161.1z"/>
	<path d="M409.3,494.3c-1.3-0.7-2-1.5-2.7-2.7C408.4,492,408.4,492,409.3,494.3z"/>
	<path d="M864.7,519.2c-0.3-0.5-0.6-1-0.8-1.5c0-0.1,0.2-0.4,0.4-0.5c0.1-0.1,0.3-0.1,0.4,0c0.3,0.5,0.6,1,0.9,1.6
		C865.5,518.8,865.2,519,864.7,519.2z"/>
	<path d="M404.1,472c-0.6,1.5-1.9,2-3.2,2.3l0.1,0.1C401.8,473.3,402.6,472.3,404.1,472L404.1,472z"/>
	<path d="M665,393.6c0.6,0.3,1,0.8,0.7,1.5c-0.4,0.7-0.9,1.3-2,0.6c0.5-0.7,0.9-1.4,1.4-2.2L665,393.6z"/>
	<path d="M413.7,484.1c1.1,0.1,2.2,0.2,3.2,0.2c-1.1,0.5-2.3,0.7-3.2-0.3L413.7,484.1z"/>
	<path d="M681,541.4c-0.3,0.3-0.5,0.4-0.6,0.5c-0.3-0.4-0.5-0.8-0.8-1.2c0,0,0.2-0.3,0.2-0.3C680.2,540.8,680.6,541.1,681,541.4z"/>
	<path d="M686.4,545.9c-0.4,0.2-0.8,0.4-0.9,0.4c-0.3-0.3-0.6-0.7-0.9-1.1c0.2-0.1,0.5-0.3,0.7-0.3
		C685.7,545.2,686,545.5,686.4,545.9z"/>
	<path d="M744,554c0.1,0.2,0.3,0.3,0.4,0.5c-0.2,0.1-0.3,0.3-0.5,0.3c0,0-0.2-0.2-0.2-0.2C743.8,554.4,743.9,554.2,744,554z"/>
	<path d="M443.4,412c0.1-0.5,0.1-1.1,0.3-1.9c0.5,1,0.2,1.4-0.4,1.8L443.4,412z"/>
	<path d="M858.8,514.6c0.1-0.2,0.2-0.3,0.3-0.5c0.2,0.2,0.3,0.4,0.4,0.6c0,0-0.2,0.2-0.2,0.2C859.1,514.9,859,514.7,858.8,514.6z"/>
	<path d="M739,518.5c0-0.1-0.1-0.3-0.1-0.3c0.2-0.1,0.4-0.2,0.6-0.2c0,0,0.1,0.2,0.1,0.2C739.3,518.4,739.2,518.5,739,518.5z"/>
	<path d="M663.9,399.5c0.2,0,0.4,0,0.4,0.1c0.1,0.2,0.2,0.5,0.1,0.6c-0.2,0.2-0.5,0.3-0.8,0.5c0,0-0.2-0.2-0.2-0.3
		C663.6,400,663.7,399.7,663.9,399.5z"/>
	<path d="M433.7,520c0.9,0.6,0.6,1.6,0.8,2.4l0.1-0.1c-0.8-0.6-0.8-1.5-0.8-2.4L433.7,520z"/>
	<path d="M740.5,554.6c-0.2-0.1-0.4-0.2-0.7-0.4c0.3-0.2,0.5-0.4,0.8-0.5c0.1,0,0.3,0.3,0.5,0.4
		C740.9,554.3,740.7,554.4,740.5,554.6z"/>
	<path d="M413.8,484c-0.6,0-1.3-0.1-2.1-0.1c0.9-0.8,1.5-0.4,2,0.2L413.8,484z"/>
	<path d="M675.7,537.5c0.1,0,0.2,0,0.3,0c0.1,0.1,0.1,0.2,0.1,0.3c-0.2,0-0.3,0-0.5,0C675.6,537.8,675.6,537.7,675.7,537.5z"/>
	<path d="M854.3,158.6c-0.1,0-0.2,0.1-0.3,0.1c-0.1-0.1-0.1-0.2-0.2-0.3c0.2,0,0.3-0.1,0.5-0.1C854.4,158.3,854.4,158.4,854.3,158.6
		z"/>
	<path d="M434.5,522.4c0.2,0.2,0.3,0.5,0.2,0.3c0,0.2,0-0.1-0.1-0.4L434.5,522.4z"/>
	<path d="M443.3,411.9c-0.1,0.3-0.1,0.7-0.1,0.4c-0.2,0.3,0,0,0.2-0.3L443.3,411.9z"/>
	<path d="M421.7,465.7c-0.5,0.2-1.1,0.4-1.6,0.7l0.1,0.1c0.4-0.7,1-0.7,1.6-0.6L421.7,465.7z"/>
	<path d="M409.9,482.7c0,0.1,0.1,0.1,0.1,0.2c-0.2,0-0.3-0.1-0.5-0.1C409.7,482.8,409.8,482.8,409.9,482.7z"/>
	<path d="M424.9,463.3c-0.6,0.2-1.1,0.4-1.7,0.6l0.1,0.1c0.6-0.2,1.1-0.4,1.7-0.6L424.9,463.3z"/>
	<path d="M426.6,461.7c0.3-0.3,0.5-0.5,0.8-0.8l-0.1-0.1c-0.3,0.3-0.5,0.5-0.8,0.8L426.6,461.7z"/>
	<path d="M426.5,461.6c-0.2,0.3-0.5,0.6-0.7,0.9l0.1,0.1c0.2-0.3,0.5-0.6,0.7-0.9L426.5,461.6z"/>
	<path d="M425,463.4c-0.1-0.6,0.3-0.8,0.8-0.9l-0.1-0.1c-0.3,0.3-0.5,0.6-0.8,0.9L425,463.4z"/>
	<path d="M413.7,464c0.1,0.6-0.2,0.8-0.8,0.8l0.1,0.1C412.9,464.3,413.2,464.1,413.7,464L413.7,464z"/>
	<path d="M689,548.9c-0.1-0.1-0.2-0.2-0.3-0.4c0.1,0,0.2,0.1,0.2,0.1C688.9,548.7,688.9,548.8,689,548.9L689,548.9z"/>
	<path d="M423.2,463.9c0.1,0.5-0.2,0.8-0.7,0.9l0.1,0.1c0.2-0.3,0.5-0.6,0.7-0.8L423.2,463.9z"/>
	<path d="M422.5,464.8c-0.3,0.3-0.5,0.6-0.8,0.9l0.1,0.1c0.3-0.3,0.5-0.6,0.8-0.9L422.5,464.8z"/>
	<polygon points="400,475.3 399.9,475.4 400.1,475.4 	"/>
	<path d="M400.9,474.4c-0.3,0.3-0.6,0.6-0.9,0.9l0.1,0.1C400.4,475.1,400.7,474.8,400.9,474.4L400.9,474.4z"/>
	<path d="M420.1,466.3c0,0.1-0.1,0.2-0.1,0.4c0.1-0.1,0.1-0.2,0.2-0.3L420.1,466.3z"/>
	<polygon points="425.8,452.9 425.9,452.7 425.7,452.8 	"/>
	<path d="M425.7,452.8c-0.3,0.3-0.5,0.5-0.8,0.8l0.1,0.1C425.3,453.4,425.6,453.1,425.7,452.8L425.7,452.8z"/>
	<path d="M424.9,453.6c-0.3,0.3-0.5,0.5-0.8,0.8l0.1,0.1C424.5,454.2,424.8,454,424.9,453.6L424.9,453.6z"/>
	<path d="M734.4,162.1c-0.1,0.1-0.2,0.2-0.3,0.2c-0.1,0-0.1-0.1-0.2-0.2c0.1-0.1,0.2-0.2,0.3-0.2C734.3,161.8,734.3,162,734.4,162.1
		z"/>
	<polygon points="433.8,454.4 433.9,454.3 433.7,454.3 	"/>
	<path d="M424.1,454.4c-0.3,0.3-0.5,0.5-0.8,0.8l0.1,0.1C423.7,455,424,454.8,424.1,454.4L424.1,454.4z"/>
	<path d="M432.9,455.3c0.3-0.3,0.6-0.6,0.9-0.8l-0.1-0.1c-0.3,0.3-0.6,0.6-0.9,0.9L432.9,455.3z"/>
	<path d="M423.3,455.2c-0.3,0.3-0.5,0.5-0.8,0.8l0.1,0.1C422.9,455.8,423.2,455.6,423.3,455.2L423.3,455.2z"/>
	<path d="M422.5,456c-0.3,0.3-0.5,0.6-0.8,0.8l0.1,0.1C422.1,456.6,422.4,456.4,422.5,456L422.5,456z"/>
	<path d="M421.1,457.7c0.3-0.3,0.5-0.5,0.8-0.8l-0.1-0.1c-0.3,0.3-0.5,0.5-0.8,0.8L421.1,457.7z"/>
	<path d="M421,457.6c-0.3,0.3-0.6,0.6-0.9,0.9l0.1,0.1c0.3-0.3,0.6-0.6,0.9-0.9L421,457.6z"/>
	<path d="M213.1,390.3c-3,1.9-6.1,2.7-8.7,4.4c-2.6,1.6-5.1,3.2-7.6,4.8c-0.7-0.4-0.7-0.9-0.3-1.4c0.5-0.6,0.9-1.3,1.5-1.8
		c3.2-2.8,6.9-5,10.9-6.4C210,389.5,211.3,389,213.1,390.3z"/>
	<path d="M308.7,407.7c-1.8,1-3.5,0-5.3-0.4c-8.7-2.2-9.3-2.5-11.2-4.4c0.3-0.8,1-0.8,1.6-0.7c2.6,0.6,5.1,1.3,7.7,2
		c1.9,0.5,3.8,1,5.7,1.7C308,406.2,308.8,406.5,308.7,407.7z"/>
	<path d="M132.5,467.4c4.3-0.7,6.4-3.9,9.4-5.9c0.2,0.6,0.5,1,0.4,1.3c-1.5,3.2-4,5.2-7.3,6.2c-0.5,0.1-1.1,0-1.5-0.2
		C133.2,468.7,133.1,468.2,132.5,467.4z"/>
	<path d="M233.5,342.2c-1.1-2.7-1-4.4,0.1-6c0.3-0.4,0.7-0.7,1.2-0.9c0.3-0.1,0.8,0,1,0.1c0.2,0.2,0.5,0.7,0.4,1
		C235.5,338,234.7,339.6,233.5,342.2z"/>
	<path d="M190.8,403.8c0.4-1.4,1.3-2.3,2.5-2.9c0.3-0.1,1,0.1,1.3,0.4c0.5,0.4,0.3,1-0.1,1.4C193.5,403.7,192.4,404.4,190.8,403.8z"
		/>
	<path d="M234.2,388.6c-1.8,0.7-3.1,0.5-4.7,0c0.8-1.2,2-1.2,3.1-1.3C232.8,387.4,232.8,387.4,234.2,388.6z"/>
	<path d="M158.9,444.5c-1.6,1.9-3.1,2.1-4.7,2.5C155.2,445.2,155.2,445.2,158.9,444.5z"/>
	<path d="M142.9,458.2c1-1.6,1-1.6,3.6-2C145.9,458.3,145.5,458.5,142.9,458.2z"/>
	<path d="M313,407.6c2.1-0.6,3.4,0.2,5.4,0.7c-1.5,1.1-2.6,0.7-3.6,0.5C314.2,408.7,313.8,408.2,313,407.6z"/>
	<path d="M149.4,451.4c0.6-1.1,1.3-1.8,2.8-1.7C151.3,451.3,151.3,451.3,149.4,451.4z"/>
	<path d="M341.7,413.4c1-0.7,1.6-0.3,2.2,0.3c0.2,0.2,0.2,0.6,0.2,0.8c-0.7,0.6-1.1,0.2-1.5-0.1C342.2,414.2,342,413.7,341.7,413.4z
		"/>
	<path d="M185.1,407.8c0-0.1,0.1-0.3,0.1-0.4c0.3-0.7,0.9-1,1.6-0.7c0.2,0.1,0.5,0.8,0.3,0.9c-0.4,0.5-1,0.8-1.7,0.4
		C185.3,408,185.2,407.8,185.1,407.8z"/>
	<path d="M324.6,410.2c-0.1,0.1-0.2,0.2-0.3,0.2c-0.7,0.1-1.5-0.4-1.5-0.9c0-0.1,0.1-0.2,0.2-0.3c0.7-0.3,1.2,0.1,1.5,0.6
		C324.6,410,324.6,410.1,324.6,410.2z"/>
	<path d="M181.1,410.6c0.2,0.4,0.6,0.8,0.5,1c-0.1,0.2-0.5,0.5-0.8,0.5c-0.2,0-0.6-0.5-0.5-0.7C180.4,411.1,180.8,410.9,181.1,410.6
		z"/>
	<path d="M233.2,347.8c-0.6-0.5-0.7-1-0.1-1.5c0.1,0,0.2,0,0.3,0C234,346.9,233.8,347.4,233.2,347.8z"/>
	<path d="M333,412c-0.2,0-0.5,0.1-0.7,0c-0.1,0-0.3-0.3-0.4-0.4c0.2,0,0.5-0.2,0.6-0.1C332.7,411.6,332.7,411.9,333,412L333,412z"/>
	<path d="M174.8,418.8c-0.1-0.1-0.2-0.3-0.2-0.3c0.1-0.1,0.2-0.2,0.4-0.3c0,0.1,0,0.3,0,0.4C175,418.6,174.9,418.7,174.8,418.8z"/>
	<path d="M332.9,412.1c0.1,0.1,0.2,0.2,0.3,0.3c-0.1,0-0.2,0-0.2-0.1C333,412.2,333,412.1,332.9,412.1L332.9,412.1z"/>
	<path d="M204.9,535.9c-0.7,1.3-2.1,1.1-3.2,1.3c-3.7,0.7-7.5,1.2-11.7,1c0.7-0.5,1-0.9,1.3-1c4-0.8,8.1-1.5,12.2-2.2
		C204.1,534.8,204.7,535,204.9,535.9z"/>
	<path d="M208.1,536.8c1.1-2,3.4-2.5,3.6-4.6c1.2-1.2,2.5-1.9,4.2-1.4c0.4,0.1,0.6,0.7,1.2,1.2c-0.8,0.5-1.3,0.8-1.8,1.1
		c-1.1,0.5-2.1,0.7-2.6,2.1C211.9,536.8,210.2,537,208.1,536.8z"/>
	<path d="M225,569.9c-3.5-2.6-3.8-3.1-4.1-6c1.9,0.8,2.7,2.6,3.8,3.9C225,568.1,224.8,568.7,225,569.9z"/>
	<path d="M209,566.7c2-0.2,3.5,0.4,4.6,1.8c0.1,0.1,0,0.3,0,0.4c-0.1,0.2-0.3,0.4-0.6,0.7C211.5,569.1,209.8,568.7,209,566.7z"/>
	<path d="M222.1,555c0.8,2.2-0.4,3.5-1.4,5c-0.5-0.4-0.9-0.7-1.4-1.2c0.4-0.5,0.7-0.8,1-1.2c0.3-0.4,0.4-0.9,0.7-1.4
		C221.3,555.8,221.6,555.5,222.1,555z"/>
	<path d="M183.1,538.1c-1.6,0.9-1.6,0.9-3-0.1C181.2,537.1,182.1,536.9,183.1,538.1z"/>
	<path d="M172.2,537.8c0.9-0.9,1.7-1,2.7-0.3C174.3,538.5,174.3,538.5,172.2,537.8z"/>
	<path d="M205.2,564.4c0.2-0.2,0.3-0.3,0.4-0.3c0.7-0.2,1.4,0.2,1.4,0.8c0,0.2-0.3,0.6-0.3,0.6c-0.5-0.1-0.9-0.3-1.3-0.5
		C205.4,564.9,205.4,564.7,205.2,564.4z"/>
	<path d="M519,532.3c5.4-0.1,10.8,0,16.2-0.5c5.2-0.5,10.4-1.5,15.6-2.3c0.4,1.2-0.4,1.4-0.9,1.5c-3.7,0.9-7.5,1.9-11.2,2.5
		c-4.6,0.7-9.2,1.1-13.9,0.8c-1.7-0.1-3.4-0.4-5.1-0.6c-0.3,0-0.6-0.4-0.9-0.6C518.9,532.8,518.9,532.6,519,532.3z"/>
	<path d="M534.4,460.5c-0.2,0.9-0.9,1.1-1.6,1.1c-7,0.2-14.1,0.5-21.1-0.9c-0.9-0.2-1.7-0.6-2.5-1c0-0.9,0.5-1.2,1-1.1
		c6.6,1.1,13.3,0.8,19.9,1C531.6,459.7,533.1,459.6,534.4,460.5z"/>
	<path d="M541.8,499.1c-2.2,0.8-3-1.4-4.7-1.6c-1,0.7-1.7,2.3-3.6,2.1c-1.2-1.9,0.7-3.4,0.5-5.2c2.4-0.6,4.1,0.4,5.8,1.4
		C541.1,496.6,541.3,497,541.8,499.1z"/>
	<path d="M568.3,470.4c-1.4-0.6-2.5-1-3.5-1.4c-0.9-0.3-2.2,0-2.7-1.5c1.9-0.3,3.6-0.3,5.3,0.5C568.2,468.3,568.3,468.7,568.3,470.4
		z"/>
	<path d="M550.4,462.2c0.4-0.4,0.7-1,0.8-0.9c1.2,0.4,2.5,0.7,3.7,1.3c0.7,0.4,1.2,1.2,2.3,2.2C554.2,464.7,552.6,463,550.4,462.2z"
		/>
	<path d="M546.1,461.2c-2.2,0.4-2.2,0.4-6-0.6c-0.3-0.7,0.2-1,0.7-1.1c1.8-0.4,3.4,0.1,5,1C545.9,460.7,546,461,546.1,461.2z"/>
	<path d="M557.6,530.7c3.2-0.6,6-0.6,8.8-0.6c0.1,0,0.2,0.4,0.5,0.8c-1.4,0.7-3,0.7-4.5,0.7C560.9,531.6,559.4,531.8,557.6,530.7z"
		/>
	<path d="M521.5,499.1c-2,0-4.1,0-6.6,0C517.7,498.1,517.8,498.1,521.5,499.1z"/>
	<path d="M579.1,528c0.3-1.3,1-1.2,1.8-0.9c0.2,0.1,0.4,0.3,0.4,0.6c0,0.2-0.2,0.5-0.4,0.5C580.4,528.1,579.8,528,579.1,528z"/>
	<path d="M570.7,530.9c-0.6,0-1.2,0-1.7,0c0-0.1,0-0.2,0-0.3c0.6,0,1.2,0,1.7,0C570.7,530.7,570.7,530.8,570.7,530.9z"/>
	<path d="M589.3,524.4c0.1,0,0.2-0.1,0.3-0.1c0,0.1,0.1,0.2,0.1,0.4c-0.1,0-0.2,0-0.3,0C589.3,524.6,589.3,524.4,589.3,524.4z"/>
	<polygon points="576.5,475 576.4,474.8 576.6,474.8 	"/>
	<polygon points="595.4,515.2 595.6,515 595.3,515.2 	"/>
	<polygon points="595.3,515.2 595.2,515.4 595.4,515.2 	"/>
	<path d="M802.6,461.7c-2.5-3.1-2.8-5,1.5-8.2c-0.7-1-1.5-2.1-2.3-3.3c-0.1-1,0.2-1.9,1.2-2.5c0.3,0.1,0.6,0.2,0.7,0.4
		c1,1.5,1.9,3.1,3.1,5.1c0.6-2.6-1.1-4.1-1.4-6.2c0.6,0.2,1.1,0.1,1.2,0.3c3.3,5,2.9,11.9-1.2,16.3c-0.6,0.6-1.5,1.1-2.3,1.4
		c-0.7,0.3-1.5-0.7-1.3-1.5c0.1-0.4,0.4-0.7,0.6-1C802.5,462.2,802.6,462,802.6,461.7z"/>
	<path d="M804.7,494.1c-3.4-2.3-3.3-5.6-0.6-8.2c-0.8-1-1.5-2.1-2.4-3.2c0.4-0.5,0.6-0.9,0.9-1.2c0.4,0.1,0.8,0,0.9,0.2
		c1.2,1.4,2.5,2.8,4.1,3.7c1.5,0.9,2.1,2.3,2.1,4c0.1,3.4-0.5,6.6-1.7,9.7c-0.2,0.5-0.6,0.8-1.3,1.8c0-1.1-0.1-1.5,0-1.9
		c0.4-1.4,0.9-2.8,1.3-4.2c0.2-0.7,0-1.4-0.1-2.7c-1.5,2.8-2.7,5.2-3.9,7.5c0,0.1-0.2,0.1-0.6,0.1
		C802.6,497.8,804.4,496.2,804.7,494.1z"/>
	<path d="M767.6,461.4c0.4,1.3,0.8,1.7,0.7,2.2c-0.1,1.8,0.3,3.4,1,5c1.3,2.9,1.3,5.9,0.8,9c-0.2,1.3-0.6,2.6-0.9,3.9
		c-0.6,2.4-1.3,4.9-0.3,7.2c-0.7,0.9-1.4,1-1.7,0.2c-0.4-1.2-0.8-2.6-0.8-3.9c0.1-6,0.2-12-0.3-17.9
		C766,465.5,766.3,463.8,767.6,461.4z"/>
	<path d="M813.4,477.8c0.5,0.4,1.1,0.7,1.3,1.1c0.5,1.3,1.1,2.7,1.3,4.2c0.4,3.4,0.7,6.9,0.8,10.3c0,2.2-0.5,4.5-0.9,6.7
		c-0.1,0.6-0.5,1.1-1.3,1.6c0-0.8-0.2-1.7,0-2.5c0.7-3,0.7-6,0-9.1c-0.6-2.9-1.1-5.7-1.5-8.6C813,480.4,812.4,479.2,813.4,477.8z"/>
	<path d="M763.1,485.8c-2.7-1.8-3.9-3.7-4.3-6.2c-0.5-3.1-1-6,0.4-9c0.5-0.9,0.6-2,1-3c0.3-0.8,0.7-1.7,1.1-2.4
		c1.1,0.1,1.4,0.7,1.1,1.3c-1.6,3-1.2,6.2-1.3,9.3c-0.1,2.8,0.1,5.6,1.8,8C763.1,484.2,763,484.8,763.1,485.8z"/>
	<path d="M811.7,466.2c0.7-1.7,1.4-3.3,1.9-4.9c0.5-1.6,0.7-3.4,1-5.1c0.2-1.6,0.1-3.2,0.4-4.8c0.3-1.7-1.3-3.1-0.5-4.9
		c0.4,0.2,0.7,0.3,0.8,0.4c1.2,2.8,1.7,5.8,1.3,8.9c-0.3,2.1-0.6,4.2-1.2,6.2c-0.4,1.5-1.3,2.9-2.1,4.2
		C812.9,466.8,812.4,467,811.7,466.2z"/>
	<path d="M780.2,481.7c-0.7-1.8-0.7-1.8,0.6-4.5c1.4,0.4,1.7,1.6,1.6,2.7C782.2,481,781.3,481.7,780.2,481.7L780.2,481.7z"/>
	<path d="M780.1,481.6c0.4,0.5,0.8,1,1.3,1.6c1.2,0,2.4,0,3.6,0c0.5,0.7-0.1,1.1-0.5,1.2c-2.4,0.8-3.6,0.5-4.8-1.2
		C779.3,482.6,779.4,482,780.1,481.6L780.1,481.6z"/>
	<path d="M798.9,460.4c-0.6-1.5-0.7-3,0.1-4.6C800.6,458.4,800.6,459.3,798.9,460.4z"/>
	<path d="M779.6,473.3c-0.1-0.6-0.3-1.2-0.3-1.9c0-0.8,0.5-1.4,1-1.4c0.7,0.1,1.5,1,1.3,1.7C781.4,472.7,781,473.5,779.6,473.3z"/>
	<path d="M809.9,480.7c-1.4-0.7-2.8-1.5-4.3-2.3C808.2,478,810.1,479.1,809.9,480.7z"/>
	<path d="M817.1,503.1c1.4-1.1,2.6-1,3.8-0.5C819.2,503.9,819.2,503.9,817.1,503.1z"/>
	<path d="M785.8,468.3c-1.2,0-2.3-0.2-3-1.6C784.3,466.6,785.1,467.4,785.8,468.3z"/>
	<path d="M804.7,466.8c-0.6,1-1.4,1.6-2.6,0.9C802.7,466.6,803.5,466.1,804.7,466.8z"/>
	<path d="M784,475.9c0.2,0.1,0.5,0.2,0.7,0.3c0.5,0.4,0.6,1.2,0.2,1.2c-0.3,0.1-0.7-0.1-1-0.2c-0.2-0.1-0.4-0.4-0.4-0.6
		c0-0.2,0.1-0.5,0.2-0.7C783.7,475.9,783.9,475.9,784,475.9z"/>
	<path d="M781.1,467c0.2,1-0.6,1.2-1.3,1.5C779.4,467.3,779.4,467.3,781.1,467z"/>
	<path d="M837.5,445.2c0.6-0.4,1.2-0.7,1.8-1.1c0,0.4,0.1,0.7,0,0.8c-0.3,0.2-0.6,0.5-1,0.6C838.2,445.5,837.9,445.3,837.5,445.2z"
		/>
	<path d="M800.4,490.2c0.6,0.8,0.8,1.5,0.2,2.2C799.8,491.6,800.2,491,800.4,490.2z"/>
	<path d="M840.6,447.8c0-1,0-1,1.2-1.2C841.9,447.5,841,447.3,840.6,447.8z"/>
	<path d="M832.2,443.6c0.2,0.2,0.3,0.3,0.5,0.5c-0.3,0.1-0.5,0.3-0.8,0.4c-0.1-0.2-0.3-0.5-0.2-0.6
		C831.7,443.7,832,443.7,832.2,443.6z"/>
	<path d="M801.8,477.3c-0.2,0-0.5,0.1-0.7,0.1c0-0.2,0-0.3-0.1-0.5c0.2,0,0.5,0,0.7,0.1C801.8,477,801.8,477.2,801.8,477.3z"/>
	<path d="M834.6,505.7c-0.3-0.2-0.1,0-0.1,0.1L834.6,505.7z"/>
	<path d="M715.9,491.9c-1.8,0.6-3.5,0.3-5.2-0.9C713.4,490.3,713.4,490.3,715.9,491.9z"/>
	<path d="M731.6,460.3c-1.8,0.7-3,1.4-4.7,1.3C728.8,459.3,729.6,459,731.6,460.3z"/>
	<path d="M700,502.1c-0.7,1.1-1.5,1-2.2,0.6c-0.3-0.1-0.6-0.6-0.5-0.9c0-0.3,0.4-0.7,0.8-0.8C698.9,500.8,699.5,501.2,700,502.1z"/>
	<path d="M705.1,503.7c0.4-0.4,0.7-0.8,1.2-0.2c0,0.1,0,0.2,0,0.3C705.9,504.4,705.5,503.9,705.1,503.7z"/>
	<path d="M96.7,526.1c0.1-3.6,0.1-7.2,0.3-10.8c0.1-1.2,0.3-2.4,0.6-3.5c0.3-0.8,1-1.2,1.9-1.1c0.9,0.1,1.5,0.6,1.8,1.4
		c0.2,0.6,0.3,1.3,0.3,2c-0.1,8-0.7,15.9-1.9,23.9c0,0.1,0,0.3-0.1,0.4c-0.2,0.9-0.3,1.9-1.4,2.2c-0.8,0.2-1.4-0.7-1.5-2.4
		C96.7,534.1,96.7,530.1,96.7,526.1C96.7,526.1,96.7,526.1,96.7,526.1z"/>
	<path d="M93.5,525.1c0,2.5,0.1,5.1,0,7.6c0,1.2-0.3,2.4-0.7,3.5c-0.1,0.4-0.8,0.8-1.2,0.8c-0.4,0-1-0.4-1.3-0.7
		c-0.3-0.4-0.5-0.9-0.6-1.5c-1-5.7-1.1-11.4-1-17.1c0-1.2,0.3-2.4,1.1-3.4c0.5-0.7,1.3-0.9,2.1-0.8c0.9,0.2,1.5,0.7,1.6,1.6
		c0.1,0.8,0.1,1.6,0.1,2.4c0,2.5,0,5.1,0,7.6C93.7,525.1,93.6,525.1,93.5,525.1z"/>
	<path d="M80.2,521.3c0-1.3-0.1-2.7,0-4c0.2-2.2,1.1-3.6,2.4-3.6c1.4-0.1,2.2,1.2,2.4,3.5c0.1,1.5,0,2.9,0.1,4.4
		c0.1,3.3,0.3,6.6,0.4,9.9c0,0.4,0.1,0.8,0.1,1.2c0,1-0.2,1.9-1.1,2.4c-0.7,0.4-1.8-0.4-2.3-1.7c-1.3-3.1-1.8-6.3-1.9-9.7
		C80.2,522.9,80.2,522.1,80.2,521.3C80.2,521.3,80.2,521.3,80.2,521.3z"/>
	<path d="M77.2,524.2c-0.1,1.6-0.1,3.2-0.3,4.7c-0.1,0.8-0.3,1.6-0.6,2.3c-0.3,0.8-1,1.3-1.8,1.3c-0.9,0-1.5-0.6-1.8-1.4
		c-0.3-0.9-0.6-1.8-0.6-2.7c-0.1-2.6-0.2-5.3-0.1-7.9c0-0.9,0.3-1.8,0.7-2.7c0.3-0.7,0.9-1.5,1.7-1.4c0.7,0.1,1.5,0.6,1.9,1.2
		c0.5,0.7,0.7,1.7,0.8,2.6c0.1,1.3,0,2.6,0,4C77.1,524.2,77.2,524.2,77.2,524.2z"/>
	<path d="M63.3,522.9c0.2-1.5,0.2-2.9,1.1-4.2c0.8-1.3,2.5-1.2,3.2,0.1c0.2,0.3,0.4,0.7,0.5,1.1c0.5,2.9,0.4,5.8-0.6,8.6
		c-0.3,0.9-1.2,1.4-1.8,1.2c-0.5-0.3-1.3-0.7-1.4-1.2C63.8,526.6,63.6,524.7,63.3,522.9z"/>
	<path d="M623.6,536.3c-0.3,1.1-0.6,2.1-0.9,3.1c-0.1,0.2-0.4,0.4-0.6,0.4c-0.3-0.1-0.8-0.2-0.9-0.5c-0.8-2.1-0.5-4.1,0.5-6.1
		c0.2-0.4,1.2-0.3,1.4,0.1C623.2,534.3,623.4,535.4,623.6,536.3z"/>
	<path d="M621.5,521.1c0.4-0.4,0.7-0.8,1-0.8c0.7-0.1,0.9,0.5,0.9,1c0,0.5-0.2,1.2-0.9,1C622.1,522,621.9,521.5,621.5,521.1z"/>
	<path d="M867.2,485.7c0.1,0,0.2,0,0.3,0C867.5,485.7,867.4,485.7,867.2,485.7L867.2,485.7z"/>
	<path d="M91.7,167.9c0.1-2.1,0.2-5.7,0.3-9.2c0.1-1,0.2-2.1,0.6-3.1c0.3-0.8,1-1.2,1.9-1.2c0.9,0,1.5,0.5,1.8,1.3
		c0.2,0.8,0.4,1.6,0.4,2.3c-0.4,8-0.5,15.9-2,23.8c-0.3,1.7-0.9,2.4-1.7,2.2c-1.1-0.4-1.2-1.4-1.2-2.3
		C91.7,177.7,91.7,173.6,91.7,167.9z"/>
	<path d="M88.6,168.3c0,2.7,0.1,5.3,0,8c-0.1,1.3-0.4,2.6-0.8,3.9c-0.3,0.9-1.8,0.9-2.3,0.1c-0.3-0.6-0.6-1.2-0.7-1.8
		c-1.1-5.6-1.1-11.3-1-17c0-1.2,0.3-2.4,1.1-3.3c0.6-0.6,1.3-1.2,2.1-0.8c0.7,0.3,1.3,0.9,1.6,1.6c0.3,0.7,0.2,1.6,0.2,2.3
		c0,2.4,0,4.8,0,7.2C88.8,168.3,88.7,168.3,88.6,168.3z"/>
	<path d="M75.3,165.2c0-1.6-0.1-3.2,0-4.8c0.2-1.9,1.3-3.1,2.6-3c1.2,0.1,1.9,1.1,2.1,3c0.1,1.2,0.1,2.4,0.1,3.6
		c0.2,4,0.4,7.9,0.5,11.9c0,0.8-0.2,1.6-0.4,2.3c-0.3,0.8-1.5,1-2,0.3c-0.6-0.9-1.1-1.8-1.5-2.7C75.4,172.4,75.1,168.8,75.3,165.2z"
		/>
	<path d="M72.2,168c-0.1,1.6-0.1,3.2-0.3,4.7c-0.1,0.9-0.5,1.8-0.9,2.6c-0.6,1.1-2.3,1.1-3,0.1c-0.4-0.5-0.6-1.2-0.8-1.8
		c-0.7-3.3-0.7-6.6-0.3-9.8c0.1-0.6,0.3-1.3,0.5-1.9c0.4-1,1.2-1.8,2-1.7c1,0.1,1.7,0.7,2.1,1.6c0.3,0.8,0.5,1.8,0.6,2.7
		C72.2,165.6,72.1,166.8,72.2,168C72.2,168,72.2,168,72.2,168z"/>
	<path d="M426,158.3c-3.1-1.6-5.3-3.9-7.9-5.8c-2.6-1.9-5.2-3.7-7.9-5.7c-2.3,0.3-4.6,0.7-7,1c-4,0.6-4.7,0.6-6.8-0.3
		c0-0.7,0.5-0.9,1-1c2-0.4,3.9-0.7,5.9-1.2c3.4-0.8,6.6-0.4,9.7,1.2c4.6,2.3,8.6,5.3,12.1,9C425.7,156.1,426.5,156.7,426,158.3z"/>
	<path d="M458.2,52.7c-0.8,0-1.4,0.1-1.9,0c-7.7-1.2-15.4-0.3-23,1.3c-6.4,1.3-12.7,2.7-19.1,4c-1.3,0.3-2.6,0.5-4.4,0.3
		c0.7-0.6,1-1,1.3-1.1c9.5-1.9,19-3.9,28.5-5.7c5.5-1,11.1-0.9,16.7-0.2c0.5,0.1,1,0.4,1.4,0.6C457.9,51.9,457.9,52.1,458.2,52.7z"
		/>
	<path d="M426.5,122.4c0.1-0.6,0.1-1.3,0.4-1.9c6-10.9,9.9-22.6,13.9-34.3c1.2-3.6,2.4-7.3,3.8-11.2c0.4,1.4,0.1,2.4-0.1,3.5
		c-1.9,7.6-4.7,15-7.3,22.3c-2.4,6.8-5.5,13.3-9,19.5C427.8,121.2,427.6,122.2,426.5,122.4L426.5,122.4z"/>
	<path d="M58.4,166.4c0.2-0.9,0.3-2.2,0.7-3.4c0.2-0.8,0.8-1.4,1.7-1.4c0.8-0.1,1.9,0.5,2.1,1.5c0.8,3.3,0.8,6.6-0.8,9.6
		c-0.5,1-2.1,1-2.6,0c-0.3-0.6-0.6-1.2-0.7-1.8C58.6,169.5,58.6,168.2,58.4,166.4z"/>
	<path d="M466.4,51.7c2.3,0,4.6,0.4,6.7,1.1c3.5,1.2,7,2.6,10.4,3.9c2.5,1,5,2.2,8,3.6c-1,0.5-1.6,1.1-2,1c-1.3-0.3-2.6-0.7-3.8-1.2
		c-6.1-2.8-12.3-5.5-18.8-7.7C466.7,52.4,466.6,52,466.4,51.7z"/>
	<path d="M408.4,142.9c0-0.2-0.1-0.3-0.1-0.5c0-0.1,0-0.3,0.1-0.4c0.1-0.2,0.3-0.5,0.5-0.6c3.9-3.7,7.8-7.4,11.9-11.2
		c0.1,1.9-0.7,3-1.6,4.2c-2.7,3.4-5.7,6.6-9.7,8.7C409.2,143.2,408.8,143,408.4,142.9z"/>
	<path d="M200,179.7c-3.4,1.7-10.3,2.6-14.9,1.7c1.3-0.4,2.2-0.7,3-0.8c3.4-0.6,6.8-1.3,10.2-1.9C199,178.5,199.6,178.6,200,179.7z"
		/>
	<path d="M437.1,117.6c0.8-2.7,5.8-11.6,8-14.6c0.1,1.8,0.1,1.8-1.5,4.8c-0.9,1.8-1.9,3.5-2.9,5.2
		C439.7,114.5,438.8,116,437.1,117.6z"/>
	<path d="M387.4,64.1c0.1-0.5,0.1-1.2,0.4-1.4c2.3-2,6.8-3,10.5-2.4c-1.4,1.9-3.6,1.3-5.4,2c-1.8,0.7-3.8,1.1-5.7,1.7
		C387.3,64,387.4,64.1,387.4,64.1z"/>
	<path d="M439.3,143.6c2.4-1,4.8-1.5,7.5,0.2C444,145.1,441.6,144.6,439.3,143.6z"/>
	<path d="M215.8,207.8c2.1,0.7,3,2.6,4.1,4.3c0.1,0.2-0.1,0.7-0.2,1.3C217.4,212.2,216.2,210.4,215.8,207.8z"/>
	<path d="M418.8,142.9c3.6-0.7,7.2-0.7,10.7,0.9C426,143.5,422.4,143.2,418.8,142.9z"/>
	<path d="M427.3,158.3c0.4-0.2,0.6-0.5,0.8-0.5c1.2,0,1.7,1.1,2.3,1.8c0.7,0.9,1.3,1.8,1,3.5C429.7,161.5,428.2,160.2,427.3,158.3z"
		/>
	<path d="M215.6,203.6c-0.3-0.3-0.7-0.7-1.1-1c0.8-1.3,1.4-2.5,2.1-3.7c0.9,0,1.1,0.7,0.9,1.3C217.1,201.4,216.8,202.7,215.6,203.6z
		"/>
	<path d="M208.9,212.6c-0.5,0.3-0.9,0.7-1.3,0.7c-1.4-0.3-2.6-0.9-3.5-2.2C206.2,210.2,206.5,210.3,208.9,212.6z"/>
	<path d="M423.3,148c-2.2,0.2-3.8-1.4-6.2-1.9C419.8,145.3,421.4,145.9,423.3,148L423.3,148z"/>
	<path d="M472,144.3c0.9,0,1.8,0,2.7,0C474,145.4,474,145.4,472,144.3z"/>
	<path d="M178.2,182.3c-1,0-1.8,0.1-2.8,0.1C176.3,180.5,176.8,180.5,178.2,182.3z"/>
	<path d="M170.4,181.3c-1.2,1-2,1-3,0.2C168.3,180.6,169.1,180.7,170.4,181.3z"/>
	<path d="M433.8,167.4c2.3,0.6,2.4,0.8,2.3,2c0,0.2-0.2,0.4-0.4,0.5c-0.1,0-0.3,0-0.3-0.1C434.9,169.2,434.5,168.5,433.8,167.4z"/>
	<path d="M200.4,208.3c0.1-0.1,0.2-0.3,0.2-0.3c0.5,0,1,0.1,1.4,0.2c0.1,0,0.2,0.5,0.1,0.7c-0.4,0.6-0.9,0.3-1.3,0
		C200.6,208.8,200.5,208.5,200.4,208.3z"/>
	<path d="M461.8,145.6c-0.7-0.2-1.4-0.4-2.1-0.7C460.8,143.4,461.2,145,461.8,145.6z"/>
	<path d="M437.9,177.3c0.2-0.3,0.3-0.5,0.4-0.7c0.3,0.2,0.6,0.4,0.9,0.7c0,0-0.2,0.4-0.4,0.6C438.5,177.7,438.2,177.5,437.9,177.3z"
		/>
	<path d="M425.1,125.7c0.1-0.6-0.3-1.4,0.8-1.6l-0.1-0.1C425.5,124.6,425.2,125.1,425.1,125.7L425.1,125.7z"/>
	<path d="M425.8,124.1c-0.2-0.7-0.2-1.4,0.7-1.7l-0.1-0.1c0.1,0.7,0,1.3-0.7,1.7L425.8,124.1z"/>
	<path d="M423.3,148.1c0.2,0.1,0.3,0.2,0.5,0.3c-0.1,0-0.3,0-0.3,0C423.4,148.2,423.4,148.1,423.3,148.1L423.3,148.1z"/>
	<path d="M425,125.6C424.6,126,425.1,125.5,425,125.6L425,125.6z"/>
	<path d="M221.6,156c1.3-2.8,2.4-5.5,5.5-6.3c1.3-5.8,5.5-8.6,10.8-10.1c2.4-0.7,4.9-1.3,7.3-1.9c0.3-0.1,1.1,0.4,1.2,0.7
		c0.1,0.4-0.2,1.1-0.5,1.3c-0.6,0.5-1.4,0.7-2.2,1c-1.5,0.6-3,1.2-4.5,1.6c-4.2,1.3-7.5,3.9-10.5,6.9c-0.2,0.2-0.5,0.3-0.5,0.6
		c-0.6,2.9-3.7,3.6-5.2,5.7C222.7,155.9,222,155.9,221.6,156z"/>
	<path d="M219.2,134.7c-1,1.1-2.2,0.9-3.4,0.6c-2.3-0.5-4.6-0.8-6.5-2.4c0.5-0.9,1.2-0.7,1.8-0.6c2.5,0.5,4.9,1,7.3,1.5
		C218.8,133.9,218.9,134.4,219.2,134.7z"/>
	<path d="M122.6,121.9c0.5-0.4,1-0.9,1.4-0.8c1.9,0.2,3.9,0.3,5.4,1.8c-0.1,1.3-1.1,1.2-1.8,1.1
		C125.7,123.8,123.9,123.8,122.6,121.9z"/>
	<path d="M222.9,170.2c1.9,0.6,3.5,1.6,4.9,3C225.9,174.1,224.5,173.3,222.9,170.2z"/>
	<path d="M199.8,165.4c-2.6,0.3-3.7-0.2-5.2-2.3c0.8-0.8,1.5-0.2,2.1,0.1C197.8,163.8,199.3,163.9,199.8,165.4z"/>
	<path d="M136.9,125.3c-1.5,0.3-2.3,0.1-2.4-0.7c0-0.3,0.3-0.8,0.5-0.9C135.9,123.3,136.4,123.8,136.9,125.3z"/>
	<path d="M190.3,158.5c-1.6-0.5-2.5-0.8-3.5-1.1c0.2-0.4,0.3-0.7,0.4-0.7C188.3,156.6,189.3,156.7,190.3,158.5z"/>
	<path d="M181,155.6c-0.2-0.1-0.5-0.1-0.6-0.3c-0.1-0.1,0.1-0.4,0.2-0.6c0.2,0.1,0.5,0.1,0.6,0.3C181.3,155.2,181.1,155.4,181,155.6
		z"/>
	<path d="M194.3,131.9c-0.2,0.1-0.5,0.3-0.5,0.3c-0.2-0.2-0.4-0.4-0.5-0.7c0.2,0,0.5-0.2,0.7-0.1
		C194.1,131.4,194.2,131.7,194.3,131.9z"/>
	<path d="M201.3,133.1c0.1-0.1,0.2-0.2,0.3-0.2c0.2,0,0.4,0.2,0.6,0.2c-0.1,0.1-0.2,0.2-0.3,0.2
		C201.7,133.3,201.5,133.2,201.3,133.1z"/>
	<path d="M659.3,40c-1.1-1,0.2-1.6,0-2.3c-0.1-0.6-0.6-1.3-0.5-1.8c0.1-0.6,0.5-1.3,0.9-1.7c2.5-2.4,5.6-3.8,8.5-5.1
		c0.9,0.7,0.7,1.2,0.3,1.5c-1.3,0.9-2.7,1.6-4.1,2.4c-1.5,1-3.3,1.8-4.1,3.5c0.1,0.7,0.4,1.5,0.3,2.2
		C660.5,39.4,659.8,39.7,659.3,40z"/>
	<path d="M688.7,70.1c0.6-1.7,2-1.2,3.1-1.6c1-0.3,2-0.6,3.1-0.8c0.6,0.3,0.8,0.9,0.3,1.2C693.2,70.3,691.1,70.8,688.7,70.1z"/>
	<path d="M743,198.5c1.8-1.2,3.1-1,4.4-0.7c0.3,0.1,0.8,0.6,0.7,0.8c-0.1,0.4-0.5,1-0.8,1.1c-0.6,0.1-1.3,0-1.9-0.2
		C744.7,199.4,744.2,199,743,198.5z"/>
	<path d="M689.8,198.3c3.5,0.7,4.6,1.9,4.1,4.2C692.1,201.8,691.1,200.3,689.8,198.3z"/>
	<path d="M683.3,191.9c2.4,0.9,3.9,1.8,5,3.6c-0.5,0.1-0.9,0.3-1.2,0.2C685.8,195,684.5,194.1,683.3,191.9z"/>
	<path d="M681.2,189.6c-0.2,0.2-0.4,0.5-0.4,0.5c-0.4-0.2-0.8-0.5-1.1-0.8c-0.1-0.1,0.1-0.5,0.3-0.6
		C680.5,188.4,681.2,189,681.2,189.6z"/>
	<path d="M674.9,184.2c0.3,0.2,0.6,0.3,0.7,0.5c0.1,0.3,0.1,0.6,0.2,0.9c-0.3-0.1-0.7-0.2-0.8-0.4
		C674.8,185,674.9,184.6,674.9,184.2z"/>
	<path d="M658.1,44.2c0.4-0.4,0.7-0.7,1-0.9c0,0,0.4,0.4,0.4,0.4c-0.2,0.3-0.4,0.6-0.7,0.9C658.8,44.6,658.5,44.4,658.1,44.2z"/>
	<path d="M738.9,198.4c-0.1-0.1-0.2-0.3-0.4-0.4c0.2,0,0.4-0.1,0.7-0.1c0.1,0,0.2,0.2,0.3,0.2C739.3,198.2,739.1,198.3,738.9,198.4z
		"/>
	<path d="M671.2,181.4c0,0.1-0.1,0.2-0.1,0.3c-0.1-0.1-0.2-0.2-0.4-0.4c0.1-0.1,0.2-0.2,0.3-0.2C671,181.2,671.1,181.3,671.2,181.4z
		"/>
	<path d="M736,197.9c-0.1,0.2-0.3,0.4-0.4,0.4c-0.2,0-0.4-0.2-0.7-0.2c0.1-0.1,0.3-0.4,0.4-0.4C735.5,197.6,735.8,197.8,736,197.9z"
		/>
	<path d="M546.5,173.8c-1.9,1.5-3.9,1.7-5.8,2.1c-7.4,1.7-15,2.4-22.6,1.9c-1.1-0.1-2.1-0.2-3.2-0.4c-0.4-0.1-0.7-0.6-1.1-0.9
		c0.5-0.2,0.7-0.5,0.9-0.5c10.6,0.5,20.9-1.1,31.3-2.7C546,173.3,546.1,173.5,546.5,173.8z"/>
	<path d="M503.7,102.6c1.4-0.1,2.1-0.3,2.7-0.2c5.5,1,11.2,0.8,16.7,0.9c1.6,0,3.2,0.1,4.8,0.3c0.6,0.1,1.1,0.4,1.8,0.7
		c-0.9,1.2-2,1.1-3,1.2c-6,0.1-12,0.3-17.9-0.7C507.2,104.5,505.5,104.5,503.7,102.6z"/>
	<path d="M529.1,137.9c2.9,0.1,4.9,0.9,6.6,2.4c0.5,0.4,0.8,1,1.1,1.6c0.1,0.3,0,0.8-0.2,1c-0.2,0.2-0.7,0.4-1,0.3
		c-0.6-0.2-1.1-0.6-1.7-0.9c-0.5-0.3-1.1-0.7-1.6-1.1c-1.3,0.7-1.8,2.9-4,1.9C527.7,141.3,529.2,139.9,529.1,137.9z"/>
	<path d="M562.1,173.7c-0.4,0.8-0.5,1.1-0.7,1.2c-2.9,0.7-5.8,0.4-9.4,0.2c1-0.7,1.4-1.1,1.8-1.1
		C556.5,173.8,559.1,173.8,562.1,173.7z"/>
	<path d="M541.3,105.3c-2.3,0.4-4.2-0.5-6-0.6c-0.4-0.9,0-1.2,0.5-1.3c1.7-0.3,3.4,0,4.9,0.8C541,104.3,541.1,104.8,541.3,105.3z"/>
	<path d="M557.2,111.3c1.4,0,2.7-0.1,4,0c0.7,0.1,1.4,0.6,2,1c0.5,0.5,0.5,1.1-0.1,1.7c-1.1-0.4-2.1-0.9-3.2-1.3
		C559,112.5,557.9,112.6,557.2,111.3z"/>
	<path d="M551.6,108.4c-2.2-0.3-3.9-1.4-5.9-2.4c0.3-0.4,0.5-1,0.6-1C548.6,105.3,550.5,106.1,551.6,108.4z"/>
	<path d="M516.1,142.9c-1.5,0-3.1,0-4.6,0c-0.2,0-0.3-0.3-0.5-0.5C513.5,141.6,513.9,141.6,516.1,142.9z"/>
	<path d="M573.4,171.7c1.8-1.5,2.5-1.4,3.4,0C575.8,171.7,575,171.7,573.4,171.7z"/>
	<path d="M567.1,174.3c-1.4,0-2.1,0-2.9,0C565.2,173.9,565.2,173.9,567.1,174.3z"/>
	<path d="M590.4,158.4c0,0.2-0.1,0.5-0.1,0.7C590.4,158.8,590.4,158.6,590.4,158.4L590.4,158.4z"/>
	<polygon points="584.5,168.5 584.4,168.3 584.6,168.3 	"/>
	<polygon points="590.5,158.4 590.6,158.3 590.4,158.4 	"/>
	<path d="M802.1,97c0.2-2.6-1.1-4.2-1.6-5.8c0.7-0.8,1.2-0.3,1.4,0.1c2.7,5.3,2.9,10.4-0.8,15.3c-0.6,0.8-1.5,1.5-2.4,2
		c-0.3,0.2-1.1,0.1-1.5-0.2c-0.6-0.4-0.6-1.1-0.2-1.7c0.2-0.3,0.4-0.7,0.8-1.2c-0.6-1.4-2.3-2.4-1.9-4.4c0.4-1.9,1.8-2.7,3.2-3.8
		c-0.4-0.7-0.7-1.3-1.1-1.8c-0.4-0.5-0.9-1-1.4-1.6c0.3-0.9,0.7-1.7,1.1-2.7C800.1,92.5,800.2,95.1,802.1,97z"/>
	<path d="M801.9,144.1c-0.1-2.6,2-4.9,1.2-7.8c-2,2.4-2.1,5.5-4,7.5c-1-0.3-1-1-0.8-1.6c0.4-1.4,0.9-2.8,1.5-4.3
		c-0.9-1.2-2.8-1.8-2.7-4c0.1-1.7,0.7-3.1,2.3-4.1c-0.8-1-1.5-1.8-2.1-2.6c-0.5-0.7-0.3-1.2,0.8-2c1.7,1.4,3.4,2.9,5.2,4.3
		c0.9,0.7,1.5,1.6,1.6,2.7c0.4,4-0.3,7.9-2.2,11.5C802.6,143.9,802.2,143.9,801.9,144.1z"/>
	<path d="M762.8,133.3c-0.3-0.4-0.7-0.7-0.8-1.2c-0.2-1.2-0.4-2.4-0.4-3.6c0-3.1,0.1-6.1,0.1-9.2c0-2.5-0.2-5-0.4-7.6
		c-0.2-2,0.1-3.9,0.9-5.7c0.8-0.2,1.2,0.2,1.2,0.7c-0.1,2.6,0.9,4.9,1.7,7.3c0.4,1.1,0.6,2.4,0.5,3.5c-0.3,2.9-0.7,5.8-1.3,8.7
		c-0.4,1.9-0.8,3.6-0.2,5.5C764.1,132.5,763.7,133.1,762.8,133.3z"/>
	<path d="M756.4,108.8c0.4,0.3,0.7,0.5,1.2,0.8c-0.2,0.7-0.4,1.3-0.6,1.9c-0.5,1.2-0.8,2.5-0.7,3.9c0.2,2.2,0,4.5,0,6.8
		c0,1.8,0.3,3.4,1.4,4.9c0.3,0.4,0.4,1,0.4,1.5c0,0.2-0.2,0.5-0.4,0.8c-2.2-1.5-3.5-3.3-3.9-6c-0.6-3.3-1-6.6,0.8-9.7
		c0.5-0.9,0.5-2,0.9-3C755.6,110,756,109.4,756.4,108.8z"/>
	<path d="M809.7,146c-0.2-0.6-0.3-0.7-0.3-0.8c1.6-6.6,0.3-13-1-19.4c-0.2-1-0.4-2.1-0.6-3.1c0-0.2,0.1-0.5,0.3-0.7
		c0.2-0.2,0.5-0.2,0.7-0.3c1.1,0.5,1.4,1.6,1.6,2.6c1.3,6.2,1.9,12.4,0.7,18.6c-0.1,0.6-0.4,1.3-0.6,1.9
		C810.4,145.2,810.1,145.5,809.7,146z"/>
	<path d="M809,89.6c0.9,0.8,1.4,1.1,1.5,1.4c0.5,1.9,1.1,3.9,1.1,5.8c0.1,4.3-0.5,8.5-2.7,12.3c-0.4,0.7-0.8,1.4-2.1,1
		c0.1-0.4,0-0.9,0.2-1.3c2.3-4.4,2.6-9.2,2.8-14c0-0.9-0.4-1.8-0.5-2.7C809.2,91.5,809.2,90.9,809,89.6z"/>
	<path d="M777.5,123.6c-0.5,0.8-1.2,1.6-1.7,2.4c0.6,1.3,1.6,1.4,2.7,1c0.7-0.2,1.4-0.8,2.2,0.4c-1.4,1.1-2.8,1.5-4.4,0.9
		c-0.9-0.3-1.6-1-1.6-2.1c0-1.8-0.3-3.7,1.2-5.2C777.2,121.3,777.3,122.4,777.5,123.6z"/>
	<path d="M774.6,117.5c0-1.3-0.1-2.2-0.1-3.1c0-0.4,0.9-0.7,1.3-0.4c0.6,0.4,1,0.9,0.8,1.6C776.5,116.4,776,117,774.6,117.5z"/>
	<path d="M804.9,124.4c-1.4-0.7-2.7-1.4-4.4-2.3C803.4,122.1,803.5,122.1,804.9,124.4z"/>
	<path d="M794,103.9c-0.8-1.4-0.6-2.7-0.2-4.2C795.6,102.1,795.6,102.5,794,103.9z"/>
	<path d="M812.7,147c1.1-1.4,1.1-1.4,3-0.5C814.3,147.3,814.3,147.3,812.7,147z"/>
	<path d="M795.6,135.8c-0.9-0.5-0.7-1.3-0.6-2C796.1,134.6,796.1,134.6,795.6,135.8z"/>
	<path d="M797.1,111.8c1-1.7,1-1.7,2.6-1.3C799.3,111.6,798.5,111.7,797.1,111.8z"/>
	<path d="M781,112.1c-1.3,0-2.2-0.3-2.9-1.2C779.2,110.7,779.2,110.7,781,112.1z"/>
	<path d="M774.3,111.8c0.4-1,0.9-1.5,2-1C776,111.8,775.5,112.4,774.3,111.8z"/>
	<path d="M779.7,121.6c-0.5-0.7-1-1.2-1.6-2C780.1,120,780.1,120,779.7,121.6z"/>
	<path d="M796.4,121.1c-0.2-0.1-0.3-0.3-0.5-0.4c0.3-0.1,0.6-0.3,0.9-0.3c0.1,0,0.2,0.3,0.3,0.5C796.8,120.9,796.6,121,796.4,121.1z
		"/>
	<path d="M835.3,90.8c0.6-0.4,1.1-0.6,2.1-1.2C836.9,90.9,836.5,91.3,835.3,90.8z"/>
	<path d="M834.2,88.6c-0.3,0.2-0.5,0.5-0.9,0.7c-0.2,0.1-0.4-0.1-0.8-0.2c0.5-0.3,0.9-0.6,1.3-0.9C834,88.3,834.1,88.4,834.2,88.6z"
		/>
	<path d="M828.3,87.6c-0.8,0.2-1.1,0.4-1.4,0.4c-0.1,0-0.3-0.3-0.4-0.4c0.1-0.1,0.2-0.2,0.3-0.2C827.1,87.4,827.4,87.5,828.3,87.6z"
		/>
	<path d="M726.8,103.3c-2.6,1.7-2.6,1.7-5.5,2C722.7,103.8,724.1,103,726.8,103.3z"/>
	<path d="M711.7,135.8c-2.6,0.3-4.3,0.4-6-1.2C707.8,134,709.5,134.1,711.7,135.8z"/>
	<path d="M695,146c-1.2,0.8-2,0.7-2.7-0.1C693.1,144.3,693.5,144.3,695,146z"/>
	<path d="M700.7,148c-0.1-0.3-0.3-0.6-0.4-0.9c0-0.1,0.5-0.4,0.6-0.3c0.3,0.2,0.4,0.5,0.6,0.8C701.3,147.7,701.1,147.8,700.7,148z"
		/>
	<path d="M98.3,117c-0.1,0.8-0.3,1.7-0.4,2.6c-1,6.2-1.1,12.4-1.1,18.6c0,1.7,0.6,3.4,1,5c0.1,0.5,0.4,1,0.4,1.5
		c0,0.5-0.3,1.1-0.6,1.3c-0.4,0.2-1.1,0.3-1.5,0.1c-0.7-0.4-1.4-0.9-1.7-1.6c-0.7-1.4-1.3-2.9-1.7-4.4c-1.3-5.3-1.3-10.8-1.1-16.2
		c0.1-2.1,0.4-4.2,0.7-6.3c0.1-0.9,0.4-1.8,0.8-2.7c0.5-1.2,1.7-1.7,2.9-1.5c1.1,0.2,1.8,1,2.1,2.1C98.2,116,98.3,116.4,98.3,117z"
		/>
	<path d="M89.7,142.8c-0.6,0.5-1,1-1.4,1c-0.8,0.1-1.6,0-2.3-0.3c-1.3-0.6-2.1-1.7-2.5-3c-0.4-1.2-0.9-2.5-1-3.8
		c-0.5-6.5-0.7-13,0.7-19.4c0.2-0.9,0.4-1.9,1-2.5c0.4-0.5,1.3-0.8,2-0.9c0.9-0.1,1.8,0.8,1.9,1.7c0.1,0.5,0.1,1.1,0.1,1.6
		c-0.2,1.4-0.4,2.9-0.7,4.3c-0.7,3.8-1.2,7.6-1.3,11.4c0,0.9-0.1,1.9-0.1,2.8C86.3,139.7,86.4,139.9,89.7,142.8z"/>
	<path d="M77.9,129.9c0,2.8,0,5.6,0,8.3c0,0.8,0,1.6-0.1,2.4c-0.1,0.3-0.4,0.8-0.7,0.8c-0.5,0.1-1.1,0-1.5-0.2
		c-0.4-0.3-0.8-0.8-1-1.2c-0.4-1-0.8-2-1-3c-0.9-5-0.9-10-0.8-15.1c0-1.2,0.4-2.4,1.3-3.2c0.7-0.6,1.5-1.1,2.5-0.8
		c1,0.3,1.5,1.2,1.5,2.1c0.1,1.2,0,2.4,0,3.6c0,2.1,0,4.2,0,6.4C78.1,129.9,78,129.9,77.9,129.9z"/>
	<path d="M68.7,125.8c0.1,2.5,0,5,0.9,7.5c0.2,0.5,0.2,1.1,0.1,1.6c-0.1,0.4-0.5,1-0.9,1.1c-0.4,0.2-1.1,0.1-1.5-0.2
		c-0.6-0.5-1.1-1.2-1.4-1.9c-1.6-3.6-2-7.4-1.6-11.3c0.1-0.9,0.5-1.8,1-2.6c0.4-0.7,1.3-1.1,2.1-0.7c0.5,0.3,1.2,0.9,1.3,1.3
		C68.8,122.3,68.7,124.1,68.7,125.8z"/>
	<path d="M55.3,127.9c0-2.6,0.4-4.4,1.6-5.9c0.5-0.6,1.2-0.9,1.9-1.3c0.5-0.2,1.4,0.4,1.5,0.9c0.1,0.4,0.2,0.8,0.1,1.2
		c-0.7,2.3-1.2,4.6-1.3,7c0,0.4-0.3,0.7-0.5,1.1c-0.4,0.8-2,0.8-2.4,0C55.9,129.7,55.5,128.5,55.3,127.9z"/>
	<path d="M617.1,183.9c-0.6-0.5-1.1-0.7-1.2-1c-0.7-2-0.3-3.9,0.6-5.7c0.1-0.2,0.5-0.4,0.6-0.4c0.3,0.1,0.9,0.2,0.9,0.5
		C618.8,179.5,618.8,181.6,617.1,183.9z"/>
	<path d="M617.2,166c-0.1-0.3-0.4-0.7-0.4-1c0-0.5,0.2-1.1,0.9-0.9c0.3,0.1,0.6,0.5,0.7,0.8c0.1,0.5-0.1,1-0.7,1.1
		C617.6,166,617.4,165.9,617.2,166z"/>
	<path d="M862.4,129.7c0.1,0,0.2,0,0.3,0.1C862.7,129.7,862.6,129.6,862.4,129.7L862.4,129.7z"/>
</g>
</svg>
