<?xml version="1.0" encoding="utf-8"?>
<!-- Generator: Adobe Illustrator 19.1.0, SVG Export Plug-In . SVG Version: 6.00 Build 0)  -->
<svg version="1.2" baseProfile="tiny" id="Layer_2" xmlns="http://www.w3.org/2000/svg" xmlns:xlink="http://www.w3.org/1999/xlink"
	 x="0px" y="0px" width="900px" height="600px" viewBox="144 97 900 600" xml:space="preserve">
<g>
	<path d="M1027.7,643.9c0.7,0.1,1.6-0.3,2.2,0.3c0.4,0.6,0.3,1.1-0.4,1.9c-1.1,0.6-2.7,1.2-3.8,2.6c-0.9,1.2-2.5,1.4-4,1.3
		c-1.3-0.1-2.6-0.5-3.8-0.2c-1.9,3.3-2,3.3-6.2,4.6c0,0.8,0.9,1.4,0.6,2.2c-0.2,0.5-0.6,0.9-1.4,1.2c-5.7-0.9-11.7-1.8-17.6-3.2
		c-4.8-1.2-9.6-1.9-14.4-2.9c-4.7-1-9.4-1.5-14.2-0.9c-1,0.1-2.1,0-3.1,0.5c-0.7,0.3-1.5,0.3-2.3,0.3c-4.2,0-8.5,0.1-12.7-0.3
		c-3.4-0.3-6.9-0.8-10.3-0.5c-4.8,0.3-9.2-0.6-13.6-2.3c-2-0.8-3.6-2-4.7-4c-1.4-2.7-3.2-5.2-4.8-7.6c-1.2-0.4-2.3,0.1-3.7-1
		c-0.2-0.2-0.7-0.8-1.2-1.4c-4.4-6-8.5-12.2-12.4-18.5c-2.5-4.2-5.1-8.4-7.7-12.5c-1.1-1.8-2.3-3.5-3.8-5.1
		c-1.7-1.9-3.3-3.8-4.8-5.8c-6.3-8.1-12.5-16.2-18.8-24.2c-4.2-5.3-8.4-10.6-12-16.4c-1.9-3.2-3.7-6.4-4.7-10.1
		c-0.1-0.5-0.2-1-1-1.3c-1.3,0.7-2.5,1.8-3.5,3c-2.8,3.2-6.1,5.9-9.1,8.8c-2.2,2.2-4.5,4.1-7.1,5.8c-2.5,1.7-5,3.5-7,5.8
		c-1.8,2.1-3.5,4.3-5.4,6.3c-1.5,1.5-2.4,3.5-3.9,5c-2.9,2.7-5.6,5.7-9.3,7.4c-1.1,0.5-2.1,1.2-3,2c-2.2,1.8-4.6,3.1-7,4.5
		c-1.9,1.1-3.8,1.9-5.9,1.3c-1,0.5-1.8,0.9-2.6,1.4c-0.7,0.4-1.5,0.4-2.3,0.3c-1,0-1.2-1.5-2.4-1.1c-0.9,1.2-1.9,2.5-1.9,4.2
		c0.2,1,1.6,1.4,1.2,3.1c-1.5,2-3.3,4.2-5,6.4c-3.7,0-3.7,0-8.2,1.9c-0.4,0.7,0,1.7-1,2.1c-6.6,0.8-12.8,2.9-18.6,6.4
		c-5.1,3.1-10.4,5.9-15.6,8.8c-1.4,0.8-2.8,1.6-4.3,2.1c-3.6,1.3-7.3,2.5-11,3.5c-4.2,1.2-8.5,2-12.7,3.3
		c-10.5,3.3-21.3,5.6-32.1,7.4c-1.4,0.2-2.9,0.4-4,0.6c-0.8,0.7-0.8,1.7-1.8,1.9c-1.7,0.1-3.5-0.1-5.2,0.1c-4.9,0.7-9.8,0.8-14.7,1
		c-0.1,0-0.3,0-0.4,0c-4.3,0.8-8.7,0.7-13.1,0.7c-2.7,0-5.3,0-8,0.2c-8.6,0.7-17.2,0.7-25.9,0.7c-6,0-11.9-0.3-17.9-1.5
		c-1.5,0.5-3.1,0.8-4.5,1.5c-5.9,3.1-12.3,4.8-18.6,7.1c-1.1,0.4-2.2,1-3.4,0.6c-0.4-0.3-0.8-0.6-1.1-0.9c-1,0.3-1.7,1.2-2.8,0.7
		c-1-0.3-1-1.8-2.3-2c-5.3,1.6-10.8,2.2-16.4,1.4c-7.3-1.1-14.7-2-21.5-4.8c-4.5,0.7-8.9,1.1-13.1,2c-7,1.6-13.4,0.2-19.7-2.8
		c-1.4-0.7-2.7-0.9-4.2-0.9c-3,0.1-6.1,0-9.2,0.1c-2.5,0.1-5,0-7-1.4c-1.6,0.4-2.9,0.8-4.1,1.1c-5,1.2-10.1,2.1-15.4,1.6
		c-5-0.4-10-0.9-15-1.3c-7.1-0.6-14.2-1.8-21.2-3.2c-3.8-0.8-7.6-1.2-11.4-1.3c-9.2-0.4-18.3-1-27.4-2c-2.9-0.3-5.8-0.4-8.7-0.8
		c-5-0.8-9.9-1.7-14.9-2.5c-2.9-0.5-5.8-1-8.6-1.2c-3.8-0.3-7.7-0.1-11.5-0.7c-3.2-0.6-6.6-0.6-9.8-1.1c-4.3-0.7-8.6-1.3-13-1.1
		c-2.4,0.1-4.8,0-7.2,0c-0.8,0-1.6-0.1-2.6,0.5c-0.5,0.8,0,2.2-1.1,3.2c-0.4,0.2-0.9,0.5-1.4,0.6c-2.6,0.7-5,1.5-7.1,3.3
		c-1.2,1-2.7,0.9-4.2,0.9c-2.6,0-5,0.7-7.3,1.9c-0.8,0.4-1.6,0.9-2.3,1.3c-0.7-0.1-1.2-0.1-1.7-0.2c-6-1.2-12.1-1.6-18.1-2
		c-1.8-0.1-3.4-0.6-4.9-1.4c-2.6-1.4-5.4-2-8.3-2.5c-1.6-0.3-3.1-0.5-4.7-0.7c-4.9-0.4-9.7-1.5-14.6-1.4c-3.3,0.1-6.5-0.5-9.7-1.6
		s-6.5-2.2-10-2.5c-2.2-0.2-4.5-0.5-6.7-0.5c-1.7,0-3.5,0-5.1-0.7c-2.2-0.9-4.6-1.1-6.9-1.7c-0.8-0.2-1.6-0.2-2.3-0.6
		c-1.8-0.8-3.7-1.3-5.7-1c-2.5-2.5-2.1-5.8-2.8-8.4c-0.6-0.5-1.1-0.7-1-1.4c0.2-0.8,0.3-1.8,1.2-2.7c0.8-0.5,1.8-1.2,2.9-1.7
		c1.3-0.6,2.2-1.7,2.5-3c0.7-3.1,2.9-5.3,4.2-8.1c1.2-2.5,3-4.3,5.4-5.7c0.7-0.4,1.3-0.9,2.2-1.4c0.3-2.3,2.1-3.4,4.1-4.3
		c1.3-0.6,2.7-1.1,4.1-1.5c1-0.3,2-0.6,3.1-0.8c2.2-0.4,3.9-1.4,5.4-3c2-2.2,4.2-4,6.5-5.8c1.8-1.4,3.6-2.8,5.1-4.4
		c2.3-2.5,5.1-4.1,8.6-4.8c0.3-2.8,2.1-4.7,4.1-6.5c1-0.9,2-1.7,3.1-2.5c4-3,8.5-4.8,13.1-6.5c3.5-1.3,7-2.5,10.5-3.2
		c0.2-0.7,0.2-1.3,0.4-1.7c2.3-4.8,5.5-9,9.3-12.8c0.7-0.7,1.7-1.3,2.6-1.8c2.2-1.3,4.6-2,6.8-2.1c2.8-1.5,5.2-2.8,7.7-4.2
		c3.1-1.7,6.4-2.7,10-1.7c3,1.7,5.2,4.2,6.4,7.3c0.7,1.7,1.5,3.4,2.4,5c1.3,2.3,2.7,4.6,3.9,6.9c1.3,2.4,2.7,4.6,4.5,6.5
		c0.8,0.8,1.8,1.6,1.8,2.9c-0.4,0.4-0.8,0.7-1.8,0.4c-2.2-1.8-4.5-3.9-6.3-6.6c-3.8-5.8-7.8-11.4-10.8-17.7
		c-0.3-0.7-0.7-1.5-1.5-1.8c-3.2,0.6-5.5,1.3-8.3,3.5c-2.3,1.9-5.1,2.8-7.6,4.3c-2,1.1-4,2-6.2,1.8c-4.6,4.5-6.1,6.6-7.2,10
		c2.6,0.4,4.6,1.8,6.2,3.9c1.2,1.6,2.4,3.1,3.5,4.8c2.6,4,5.2,8,7.8,12.2c1.9-1.6,3.7-3.1,5.4-4.5c0.6-1,0.2-2.3,1.2-3.2
		c1-0.7,2.2-1,3.6-0.6c1,0.3,2,0.7,3,1.1c2.8,1.1,5.6,2.3,8.4,3.5c0.9-0.9,0.8-2.2,1.9-3c1.8-1.2,3.6-1.6,5.7-1.2
		c0.9,0.2,1.8,0.5,2.7,0.6c1.1,0.1,2.1-0.3,2.4-1.5c-1-1.2-2.8-1.7-2.6-3.7c0.2-0.2,0.4-0.5,0.6-0.5c1.9,0.4,3.8-1.1,5.7-0.2
		c5.1-0.8,10.3-0.1,15.5-1c5.1-0.9,10.3-1.2,15.4-2.1c2.2-0.4,4.5-0.4,6.7-0.9c5.7-1.5,11.4-2.4,17.2-3c2.4-0.3,4.8-0.5,7.1-1
		c9.1-1.7,18.4-2.5,27.6-3.4c5.7-0.6,11.3-1.5,16.8-2.9c4.1-1.1,8.2-1.9,12.4-2.2c6.6-0.4,13.2-0.6,19.8-1.3
		c6.6-0.7,13.2,1,19.8,0.8c0.3,0,0.5,0.1,0.8,0.2c4.2,1.1,8.6,1.8,12.7,3.4c1.4,0.5,2.8,0.9,4.2,1.1c5.6,0.8,11.3,1.1,16.9,2.2
		c0.4,0.1,0.8,0.1,1.2,0.1c2.3,0,4.5,0.3,6.7,0.8c3.2,0.7,6.4,0.6,9.5-0.1c2.6-0.6,5.2-1,7.7-1.7c5-1.4,10.2-1.6,15.3-2
		c4-0.3,7.7-1.5,10.7-4.5c1-1,2.2-2,4-2.4c1.1,0.6,2.5,0.6,3.9,0.4c4.2-0.5,8.4-0.8,12.7-1.1c2.6-0.2,5.3-0.3,7.9-0.8
		c2.6-0.5,5.2-0.8,7.9-1s5.3-0.6,7.8-1.4c1.5-0.5,3-1,4.5-1.5c1.3-0.4,2.5-0.8,3.8-0.1c0.2,1.2-0.7,1.6-1.6,2
		c-4,2.1-8.3,3.4-12.8,4.1c-3.3,0.5-6.6,1-9.8,1.6c-2,0.4-3.9,0.7-5.9,0.9c-5,0.4-10,1-15.1,1.4c-1.1,0.1-2.1,0.1-3.2,0.9
		c-0.8,4.8-0.4,9.8-1.6,14.9c2.5,0,4.7-0.1,6.9,0c2.8,0.1,5.6-0.1,8.3-0.8c3.5-0.8,6.9-1.7,9.7-4.2c1.8-1.6,4.1-2.4,6.4-3.2
		c2.1-0.7,4.3-1.5,6.3-2.4c3.1-1.3,6-2.8,9.1-4c7.4-2.9,14.6-6.2,22.1-9.5c1.3-2.6,3.6-4.3,6.4-5c0.9,0.4,1.6,0.7,2.3,1
		c3.4-3,6.2-6.9,11-8.3c-0.1,0.5,0,0.8-0.2,0.9c-1.8,1.4-3.1,3.2-4.3,5.1c-1.1,1.8-2.5,3.5-3.8,5.1c-1.5,1.8-2.8,2-4.8,0.7
		c-0.4-0.3-0.8-0.6-1.3-0.9c-0.9,0.4-1.8,0.8-2.3,1.5c-0.3,0.7-0.5,1.5-0.7,2.1c-0.8,0.4-1.6,0.7-2.3,1c-5.7,2.9-11.2,6-17.1,8.4
		c-8.3,3.5-16.2,7.9-24.9,9.5c-5,4.2-10.5,6.3-16.6,6.6c-4.6,0.3-9.3,0.6-13.9,0.9c-1.8,0.1-3.7,0.2-5.5,1.3
		c0.6,1.5,1.3,2.9,1.9,4.4c1.8,4.6,3.7,9.1,5.2,13.7c2,5.8,2.9,11.8,3.1,18c0.1,2.5,0.5,4.7,2.1,6.7c0.9,1.2,1.5,2.5,1.9,3.9
		c1,3.5,2.8,6.6,4.9,9.5c1.4,1.9,2.1,4,2.3,6.3c0.1,1.2-0.2,2.3-0.2,3.5c-0.1,4.2-1.6,7.8-4.4,10.8c-1.9,2-3.7,4.1-6.4,5.3
		c-0.3,1.3-1.5,2.3-0.9,3.7c1.6,0.5,1.7,0.5,2.2,0.3c5.6-2.5,11.4-4.2,16.8-7.1c4.8-2.6,9.9-3.9,15.3-2.2c0.6,0.2,1.3,0.2,2,0.3
		c7.8,0.9,15.6,0.6,23.4,0.3c4.9-0.2,9.8-0.4,14.7-0.4c5.4,0,10.9-0.2,16.3-0.1c3.2,0,6.3-0.1,9.3-1.6c0.5-0.2,1-0.4,1.5-0.5
		c4.6-0.9,9.1-1.8,13.7-2.6c8.7-1.5,17.4-3.4,26-5.5c4.9-1.2,9.7-2.6,14.7-3.6c8.2-1.7,16.2-4.2,23.3-8.8c0.3-0.2,0.7-0.3,1.1-0.5
		c3.3-1.7,6.7-3.2,9.8-5.2c4.8-3,10-4.7,15.5-6.1c1-2.3,2.9-3.6,5.2-4.4c2-0.7,4-1.3,5.9-2.4c0.2-0.1,0.4-0.3,0.5-0.5
		c-0.3-0.6-0.6-1.2-0.9-1.7c-0.7-0.3-1.7,0-2.2-1.1c0.3-1.5,0.7-3.1,1-4.6c-0.5-0.9-1.7-0.5-1.8-1.5c0.1-1.2,1.7-0.8,1.9-1.8
		c-0.1-0.8-1.5-0.8-1.2-1.8c0.5-1.2,2.3-1.1,2.1-2.7c-0.6-1.6-2.7-0.6-3.6-1.8c0.5-0.7,1-0.6,1.5-0.4c0.8,0.3,1.6,0.2,2.2-0.4
		l-0.1,0.1c1,0.3,2,0.7,3.1,1.1c-0.8,0.4-1.5,0.7-2.1,1.1c-0.3,0.3,0.1,0.7,0.4,0.9c1.3,0.1,2.1-0.8,3.2-1.4
		c-0.4-3.1-0.8-6.2-1.3-9.4c-0.1-0.7,0-1.6-1.2-2.1c-1.3,0.5-2.8,0.9-4.2,1.6c-3.8,1.6-7.7,2.8-11.7,3.8c-0.7,0.2-1.6,0.6-2.3-0.3
		c1.3-0.4,2.6-0.8,3.8-1.2c2.5-0.9,5-1.6,7.4-2.8c0.7-0.4,1.4-0.7,1.8-1.7c0.1-2.4-1.2-4.7-1.7-7.1c-0.4-2.1-2-3.6-3-5.5
		c1.3-1,2.6-0.2,3.8-0.2l-0.1-0.1c-0.3,0.6-0.5,1.1-0.8,1.8c0.6,1.2,1.2,2.3,1.8,3.4c1,0.6,2.2,0.1,3,0.9c-0.7,0.7-1.9,0.3-2.6,1.4
		c0.1,1.6,0.1,3.4,0.8,5.2c1.5,0.1,2.9,0.5,4.3-0.6c-0.1-2.9-0.1-5.8-0.3-8.7c-0.1-2.5-0.2-5-0.7-7.5c-1-4.8-2.2-9.5-4.5-13.9
		c-0.7-1.3-1.2-2.7-1.7-4c-2.1-5-4.7-9.7-8-14.1c-0.6-0.8-1.2-1.7-2.3-2.1l0.1,0.1c-0.2-0.5-0.2-1.1-0.6-1.4
		c-1.9-2.2-3.8-4.4-5.7-6.6c-0.6-0.7-1.2-1.5-2.3-1.5c-1.3,0.8-3.2,0.8-4.6,2.2c0.8,1.2,1.6,2.4,2.3,3.6c1,1.7,2.1,3.4,3.1,5
		c0.4,0.6,0.6,1.2,0.4,1.9l0.1-0.1c-0.1,0-0.3,0-0.4-0.1c-2.9-3.7-6-7.4-8.7-11.3c-3.9-5.5-7.8-11-12.1-16.2c-0.9-1.1-2-2.2-1.9-3.8
		c0-0.7-0.2-1.3-0.9-1.8c-2.6-0.3-5.3-0.8-8.1-0.8c-3.2,0-6.4-0.4-9.3-1.7c-2.9-1.2-5.9-1.5-8.9-0.9c-2,0.4-3.9,0.9-5.8,1.3
		c-2.2,0.5-4.4,1-6.7,0.9c-0.6,0-1-0.2-1.2-1c0.4-0.5,1.5-0.6,1.4-1.6c-1.4-0.5-2.5,0.2-3.7,0.8c-5.2,2.9-10.3,6-15.9,8.2
		c-0.6,0.2-1.3,0.5-1.8,0.9c-2.8,2.6-5.9,5-8.3,7.9c-0.4,0.5-0.9,1-0.7,1.8c-0.4,0.1-0.7,0.3-0.8,0.8l-0.3,0.1l0.2-0.1
		c0.3-0.3,0.5-0.6,0.8-0.8c5.2-4.1,10.9-7.5,17.3-9.4c0.6-0.2,1.2-0.5,1.8,0.3c-0.4,1.5-1.8,1.8-2.9,2.4c-1.6,0.9-3.1,1.9-4.5,3.2
		c-2.3,2.2-4.6,4.3-7.1,6.3c-2.3,1.8-4.4,3.9-6.2,6.1c-2.3,2.8-5.3,4.8-8.3,6.6c-0.4,0.2-0.7,0.1-1.1-0.4c1-1.7,3.3-2.1,4.2-3.6
		c0.7-2-0.3-3.6-0.3-5.5c1.4-2.8,3.4-5.4,5.3-8.1c0.8-1.1,2.2-2,2.4-3.5c0.2-0.1,0.4-0.2,0.6-0.3c-0.5-0.4-0.6-0.2-0.6,0.3
		c-0.9-0.3-1.5,0.3-2.1,0.8c-3.9,3.4-7.7,6.9-11.2,10.7c-3,3.3-5.7,6.9-9,9.9c-0.9,0.2-1.9-0.4-2.8,0.4c-0.5,1-0.1,2.3-0.8,3.4
		c-2.2,2-2.4,2.3-4.4,2c-4.3-0.6-8.4,0-12.5,1.2c-0.9,0.3-1.8,0.4-2.7,0.2l0.1,0.1c0-0.1,0-0.3,0.1-0.4c4.1-2.4,8.4-3.8,13.2-2.7
		c0.2,0.1,0.5-0.1,0.7-0.1c0.9-0.8,1.8-1.6,2.5-2.2c0.1-1.4,0.2-2.4,0.2-3.1c1.2-2.5,3.5-1.4,4.8-1.8c1.5-2.3,2.6-4.4,4.2-6.2
		c3.8-4.4,7.8-8.7,12.4-12.3c0.9-0.7,1.9-1.5,2.6-2.4c1.4-1.9,3.3-3,5.4-3.9c8.5-3.7,17.1-7.1,25.2-11.9c4.6,0,9.2-0.3,13.8,0.4
		c1.2,0.2,2.3,0.1,3.5,0c1.4-0.2,2.9-0.2,4.4-0.2c0.9,0,1.9,0.2,2.6,0.8c2,1.6,4.3,1.9,6.7,2.2c3.5,0.5,7.1,0.5,10.6,1.4
		c1.2,0.3,2.3,0.1,3.5-0.3c2.3-0.8,4.6-1.4,6.1-1.8c1.7-1.4,2.8-2.6,4.1-3.5c2.8-1.9,5.1-4.2,7-6.9c0.1-0.1,0.2-0.2,0.3-0.3
		c1.5-1.4,2.5-3.1,2.7-5.2c0.1-0.8,0.4-1.5,0.9-2.2c1.4-2.2,2-4.6,2.2-7.1c0.1-1.3,0.4-2.6,0.5-3.9c0.4-3.3,0.9-6.5,0.5-9.9
		c-0.3-2.8-0.2-5.6-1.3-8.2c-0.2-0.4-0.2-0.8-0.2-1.2c-0.3-6.2-1.3-12.4-3.2-18.3c-1.4-4.5-2-9.1-1.6-13.8c0.2-2.9-0.2-5.8,0.4-8.7
		c0.1-0.7-0.1-1.6-0.2-2.4c-0.4-5.1-1.2-10.3-1.3-15.4c-0.2-10.2,2-20,6.3-29.3c1.7-3.8,2.6-7.8,3.4-11.8c0.2-0.9,0.2-1.9,0.1-2.8
		c-0.5-3.8,0.3-7.4,2-10.8c1.2-2.4,2.1-4.9,3-7.3c1.7-4.5,4.2-8.3,9.2-9.8c2.1-3,4.2-5.9,6.1-8.9c2.5-4.1,4.2-8.5,4.8-13.1
		c-1.7-3.7-5.5-5.7-6.6-9.5c-6.4-5-13.6-8.3-21-11.5c-0.3-0.8-0.7-1.6-1.1-2.6c-1.1-0.4-2.2-1-3.4-1.1c-2.7-0.2-4.8-1.6-6.6-3.3
		c-5.4-4.9-10.7-9.9-13.8-16.7c-1-0.5-1.9-1-2.6-1.4c-2-2.6-2.3-5.2-1.6-7.8c-0.3-0.9-0.7-1.5-1.5-1.7c-1.3-0.1-2.2,1.4-3.8,1.1
		c-0.2-0.1-0.5-0.4-1-0.7c-0.2-1.4,0.4-2.8,0-3.9c0.4-1.1,1.3-1.4,1.3-2.4c0.2-1.2-1.1-2.3-0.5-3.7c0.7-0.8,1.9-0.1,2.5-1.1
		c-0.3-1.5-2-2.6-1.6-4.3c0.7-1.9,2.7-1.2,4.1-1.8c0-1.1,0.1-2,0-2.9c-0.4-2.9,0.2-5.5,1.5-8.1c0.7-1.4,1.5-2.8,2.3-4.2
		c1.2-1.9,2.4-3.8,3.7-5.7c-0.1-1.6-0.7-3.1-0.3-4.7c0.2-0.8,0.5-1.5,1.4-1.5c1.5,0.2,0.7,2.5,2.5,2.3c1.5-1.1,2.3-2.7,3.1-4.4
		c1.7-3.4,3.9-6.3,7.4-8c0.5-0.2,1.2-0.5,1.3-0.8c0.4-1.6,2.1-1.5,3.1-2.4c0.9-2.1,1.3-4.5,3.2-5.9c0.4-1.4,0.6-2.6,1-3.7
		c0.4-1.1,0.9-2.2,1.6-3.2c0.6-0.8,1.5-1.1,2.8-0.3c1.1,0.4,0,2.3,1.2,3.3c1.3-0.9,1.2-2.8,2.5-3.5c1.5-0.8,2.2-2.2,3.2-3.5
		c0.9-1.1,1.4-2.6,3.1-3.2c0.6,0.1,1.4,0.2,2.2,0.3c0.4-0.8,0.8-1.6,1.2-2.2c2.6-1.6,4.6,0.8,6.9,1c0.4-1.5-0.6-2.4-0.8-3.5
		c-0.3-1.4-1-2.8-0.5-4.3c0.1-0.3,0.5-0.6,0.6-0.7c1.3-0.6,2.1,0.7,3.3,0.4c1.2-0.2,1.7-2,3.2-1.9c0.6,0.2,1,0.5,1,1.1
		c0,0.9-0.1,1.8,0,2.8c0,0.5,0,1.1,0.9,1.1c1.6-2.2,1.8-5.2,3.5-7.3c1.4-0.6,2.8-1,4.4-0.6c1,0.6,1.8,1.5,2.5,2.5
		c0.8,1.1,1.5,2.1,2.2,3c0.9,0.2,1.5-0.4,2.2,0.2c1.2,0.9,0.1,2.5,0.8,3.5c0.5,0.6,1.5,0.1,1.7,1.5c-1,5.3-4.1,10.3-6.4,15.7
		c2,0.7,3,2.6,4.9,3.4c3.9,1.7,7.7,3.4,11.7,4.9c3.3,1.2,5.8,3.6,7.3,6.6c-0.2,1.2-0.3,2.1-0.5,3.1c5.4,2.2,10.8,3.6,16.2,5.3
		c0.5,0.2,1.1,0.1,1.6,0.2c2.4,0.3,4.6,1.3,5.7,2.4c2.5,3,1.2,5.7,1.4,8c1.5,2.3,4.7,2,5.5,4.9c-0.2,0.7-0.4,1.6-0.5,2.5
		c0,0.3,0.3,0.7,0.4,1.1c1.1,0.1,2.1,0.2,3,0.4c3.5,3.2,3.5,3.2,5.1,7.5c0.3,0.8,0.7,1.4,1.5,2.1c4.5,0.7,7.3,3.7,8.6,8.1
		c1,3.2,0.6,6.3-2.1,8.8c-0.8,0.7-1.7,1.4-2.1,2.3c-1.1,2.4-2.9,4.1-4.9,5.7c-1.6,1.3-2.6,2.9-3.2,4.9c-0.5,1.8-1,3.6-1.4,5.4
		c-1.2,4.8-1.5,9.6,0.1,14.5c0.9,2.8,1.2,5.7,1.7,8.6c0.4,2.4,0.4,4.8-0.1,7.1c-0.6,2.8-0.5,5.5,0,8.2c0.5,3.4,1.9,6.6,1.1,10
		c0.5,0.7,1,1.1,1.7,1.3c1.6,0.4,2.9,1.4,4.1,2.3c4.8,3.6,9.2,7.7,12.6,12.6c3.7,5.5,7.4,11,10.6,16.8c2.4,4.3,4.6,8.7,6.3,13.3
		c0.6,1.8,1.2,3.5,2.7,4.6c0.5,3.1,1.6,5.8,2.6,8.5c1,2.6,2,5.2,3,7.8c2.2,5.9,3,12,2.7,18.3c-0.2,4.5-0.2,9-0.7,13.5
		c-0.5,5.4-1.5,10.8-2.9,16c-1.5,5.4-3.3,10.6-5.3,15.8c-2.4,6.3-5.3,12.4-7.9,18.7c-1.3,3-2.6,6.1-3.9,9.1
		c0.3,3.6,0.7,7.2,0.9,10.8c0.1,2.2,0.6,4.2,1.7,6.1c0.8,1.4,1.5,2.8,2,4.3c0.5,1.4,1.2,2.6,2.2,3.7c4.6,4.9,7.8,10.7,10.1,17
		c1.8,5,3,10.2,3.7,15.4c0.2,1.6,0.5,3.1,1.1,4.6c5.3,13.6,9.6,27.5,14,41.4c0.4,1.1,0.7,2.2,1,3.1c1.1,0.7,2.1,0.7,3,0.6
		c3.5-0.1,6.8,0.8,10,2.1c1.1,0.4,2.3,0.7,3.5,0.9c6.3,1.1,12.4,2.8,18.6,4.2c1.1,0.2,2.4,0.5,2.7,2.1c-0.2,0.3-0.5,0.5-0.7,0.8
		c-4.7-0.2-8.9-2.5-14.3-3c7.7,3.6,14.8,6.2,22.3,7.4c0.4,0.9,0.7,1.6,0.5,2.4c-0.8,1.9-2.5,2.2-4.1,2.4c-1.5,2.5-4.2,3.3-6,4.9
		c-1.9,0.6-3.5-0.2-5-0.5c-2.2-0.5-4.4-0.9-6.7-0.9c-1.2,0-2.4-0.2-3.5-0.4c-0.8-0.1-1.5-0.4-2.3-0.1v-0.3l0.1,0.2
		c0,0.9,0.3,1.9-0.2,2.7c-0.6,1.1-2,1.3-2.5,2.5s-2.2,0.8-2.9,2c0.9,2.8,1.8,5.7,2.7,8.4c2.2,1.8,4.1,3.5,6.1,5
		c2.1,1.7,3.8,3.6,4.3,5.6c1.9,2.8,4.2,3.9,6.6,4.7c5.1,1.6,10.3,2.5,15.6,3.1c3.7,0.4,7.3,0.7,10.9,1.8c3.1,0.9,6.5,1.2,9.7,1.8
		c0.4,0.1,0.8,0,1.2,0c3.8,0,7.7,0,11.5,0c0.8,0,1.6-0.1,2.4,0.1c4.1,1.3,8.3,1.4,12.6,1.5c2.8,0,5.5,0.6,8,2.1
		c2.4,1.5,5.1,2.3,7.8,2.8c1.8,0.4,3.6,0.8,5.4,1.2c1.2,0.3,2.3,0.7,2.9,1.8c0.8,1.3-0.6,2.2-0.5,3.4c0.6,0.8,1.9,0,2.4,1
		c-0.5,2.9-0.9,3.3-4.4,4.7c-0.6-0.1-1-0.4-1.2-1.1c0.2-0.3,0.5-0.8,0.9-1.1c0.3-0.4,0.8-0.7,0.7-1.3c-1.3-0.9-2.9-1.2-4.4-1.7
		c-1.4-0.4-2.5,0.8-4.6,0.3c-3.6-1.3-8.2-2.3-12.3-4.6c-3.8-2.1-7.9-2.9-12.2-2.8c-1.6,0-3.2,0-4.8-0.1c-3.6-0.1-7.1-0.8-10.3-2.6
		c-2.1-1.1-4.3-2.1-6.7-2.2c-2.7-0.1-5.2-0.9-7.9-1.1c-2.4-0.2-4.8-0.2-7.1-0.8c-6.9-1.9-14-2.7-20.5-5.8c-2.8,2.9-3.6,3.3-6.1,3.6
		c0.8-1.1,1.6-1.9,2.1-2.9c0.6-1.1,1.1-2.4,1.1-4c-1.6-1.4-3.2-2.9-4.5-4.8c-1.4-2-3.4-3.6-6.1-3.8c-0.9-2.2-2.5-3.6-4-5.1
		c-0.4-0.3-0.5-0.9-0.8-1.3c0.4-0.8,0.8-1.5,1.2-2.2c-1.3-3.2-2.5-6.4-3.7-9.4c-0.9-0.5-1.6-0.9-2.1-1.2c-1.5-2.8-2.6-5.7-3.5-8.6
		c-3.2-9.4-6.4-18.8-9.5-28.2c-1.4-4.1-3-8.2-4.5-12.3c-2-5.2-3.6-10.5-5.4-15.8c-0.4-1.2-1-2.4-1.6-3.6c-0.6-1.2-0.3-2.9-0.6-4.3
		c-1.5-7.4-3.5-14.7-7.1-21.5c-0.9-1.7-1.8-3.3-3.1-4.6c-2.2-2.3-3.8-5.1-5.5-7.8c-1.7-2.9-1.9-6.3-3.3-9.3
		c-0.7-5.5-2.5-10.9-2-16.6c-1.8-1.8-2.2-4.2-2.2-6.6c0-2.9-0.1-5.9,0.3-8.7c1-6.9,0.5-13.8-0.7-20.6c-1.2-7.5-2.6-14.9-3.6-22.4
		c-0.9-6.5-2.8-12.7-4-19c0-0.2-0.2-0.5-0.3-0.7c-0.4-0.1-0.7-0.2-1.2-0.4c-0.3-2.2,0.6-4.2,1.1-6.2c1.5-6.2,3.2-12.3,4.7-18.5
		c1.5-6.1,1.9-12.3,0.8-18.6c-0.1-0.6-0.3-1.3,0.1-1.9c0.4-0.5,1-0.8,1.9-0.7c0.2,0.5,0.5,1.1,0.8,1.7c1.6,3.7,1.9,7.7,2.2,11.6
		c0.6,7.7-0.5,15.1-2.4,22.4c-1,3.7-2.4,7.3-4.2,10.6c0.8,2.2,1.5,4.2,2.2,6.2c0.2,0.5,0.5,0.9,1.3,1c1.4-1.5,3.1-3,4.4-4.8
		c1.6-2.1,2.8-4.4,3.5-7.1c1.6-6.6,2.9-13.2,3.2-20c0.2-4-0.3-7.9-0.9-11.9c-0.2-1.2-0.7-2.3-1.2-3.3c-1.7-3.1-3.4-6.3-5.1-9.4
		c-2.6-4.6-5.3-9.2-8.7-13.3c-0.3-0.3-0.5-0.6-0.6-0.8c-1-0.2-1.8-0.4-2.5-0.5c-1.1-1.3-2.1-2.5-3.2-3.7c-1-1.1-2-2.2-3.1-3
		c-4.1-3.1-8.4-6.1-12.8-8.8c-2.3-1.4-4.7-2.5-7.2-3.3c-0.9-0.3-1.8-0.5-2.7-0.6c-7.9-0.4-15.9-0.7-23.8-1c-3.1-0.1-6.1-0.3-8.9-1
		c-1.4,0.1-2.4,0.8-3.4,1.4c-1.5,0.9-2.9,1.9-4.3,2.9c-5.1,3.6-10.1,7.3-13,13.1c-0.2,0.5-0.5,0.9-0.9,1.3c-4.6,5.9-6.3,13-8.3,19.9
		c0.6,1.1,0.7,2.2,0.8,3.2c0.6,6.2,0.9,12.4,2.1,18.6c2.4,12.6,6,24.7,12,36.1c1.4,2.6,2.8,5.1,4.8,7.3c0.7,0.7,1.4,1.7,2.9,1.3
		c0.2-2.7,0.3-5.4,0.5-8.2c0.4-5.7,0.6-11.4,0.6-17.1c0-4.4-1-8.3-3.9-11.8c-1.7-2-3.1-4.3-4-6.9c-0.2-0.5-0.3-1,0.3-1.3
		c4.1,2.8,6.6,5.3,8.8,9c1.4,2.4,2.9,4.8,3.2,7.7c0.4,3.2,0.7,6.4,0.6,9.5c-0.3,12.3-0.8,24.7-1,37c-0.2,10-1,7.5,5.1,16.9
		c0.1,0.2,0.3,0.4,0.5,0.6s0.5,0.2,0.7,0.4c0.6-0.2,0.8-1.1,1.6-1c0.2,0.1,0.6,0.1,0.7,0.3c4.4,7.9,8.7,15.8,13,23.5
		c-0.3,1.5-1.7,2.2-1.7,4.3c2.9,6,4.6,12.9,6.7,19.6c0.9,0.4,1.6,0.8,2.4,1.3c2.3,4.2,4.9,8.3,5.3,13.5c2.3,1.8,3.3,4.4,3.8,7.2
		c0.5,2.6,1,5.2,1.3,7.8c0.6,6.4,2.4,12.4,5.5,18.1c2.6,4.6,5.6,9,6.3,14.4c2.7,6.2,5.3,12.4,9.6,17.8c6.7,8.6,13.6,17,20.9,25.1
		c5.4,5.9,10.1,12.3,14.4,19c5.2,8.3,10.4,16.6,15.3,25.1c2.3,0.9,2.3,0.9,3.7,2.8c3.5,4.6,7.2,9.2,10,14c5.5,2.5,7.5,3,12.9,3.2
		c6.8,0.3,13.5,0.5,20.3,0.8c0.4,0,0.8-0.1,1.1-0.1c0.5-0.4,1.1-0.8,1.5-1.2c1.7,0,3.3,0,4.9,0c1.5,0,2.9,0.2,4.4,0.1
		c3.3-0.3,6.6-0.1,9.9,0.6c6.2,1.3,12.5,2.2,18.7,3.8c3.7,0.9,7.4,2,11.5,1.9c1.3-2.1,4-1.4,6-3c-1.9-0.6-3.5-1.2-5.2-1.5
		c-1.8-0.4-3.6-0.9-5.2-1.9c-3.8-2.4-8.1-3.2-12.4-3.9c-3.3-0.6-6.5-1.1-9.8-1.6c-1.2-0.2-2.3-0.5-3.4-1.1c-0.6-0.3-0.6-0.9,0-1.8
		c3.2,0.5,6.3,0.9,9.5,1.4c6,1,12.1,1.7,17.5,4.6c1.1-1,2.3-1,3.5-0.7c4.6,1.3,9.5,0.9,14.1,2.2c0.9,0.2,1.8,0.2,2.8,0.2
		c1.2-0.6,2.4-1.2,3.6-1.8c0.2-0.1,0.3-0.4,0.4-0.6L1027.7,643.9z M771.7,296.9c0.5,0.6,0.4,0,0.5-0.2c0.5-0.1,0.9-0.2,0.8-0.8
		c0.7,0.2,1.2-0.3,1.8-0.6c2.9-1.7,5.7-3.4,9.2-3.2c2.2-1,4.8-0.4,6.7-2.1c3.4,0.2,6.1-2.4,9.9-2.2c1.2,0.7,2.8,1,4.6,0.9
		c5.6-0.1,11.1,0.1,16.7,0.6c2.9,0.3,5.8,0.2,8.7,0.1c2-0.1,3.9,0.3,5.8,1c2.9,1,5.6,2.3,8.2,4c1.1,0.7,2.2,1.4,3.6,2.2
		c0.4-2.6-0.5-4.4-1.8-6c0-2.9,0-5.7,0-8.5c0-2.1-0.4-4.3-0.1-6.3c0.4-2.6,0-5-0.3-7.5c-0.1-1-0.4-2.1-0.7-3.1
		c-1.1-3.6-0.9-7.4-1.2-11c-0.1-1.7,0.3-3.4,0.8-5.1c0.6-2.2,1.5-4.2,2.4-6.3c0.4-1.1,0.9-2.2,2.1-2.8c0.4-0.2,0.8-0.7,1-1.2
		c0.8-2.4,2.5-4,4.1-5.8c1.4-1.6,2.5-3.5,3.4-5.4c0.8-1.6,1.3-3.2,0.6-5.3c-0.5-0.7-1.2-1.7-1.9-2.5c-0.4-0.3-0.8-0.5-1.1-0.6
		c-0.8-0.4-1.7-0.8-2.5-1.1c-2.7-1-4.3-2.9-4.9-5.8c-0.1-0.6-0.4-1.3-0.7-1.8c-0.3-0.6-0.8-1.1-1.1-1.5c-1.2-0.5-2.4-0.4-3.6-0.1
		c-0.2,0.3-0.5,0.6-0.6,1c-0.2,0.9-0.2,1.8-0.3,2.7c-0.2,1.1-0.7,2-1.9,2.4c-1.3-0.3-1.5-1.2-1.5-2.4c1.2-3.4,4.1-6.4,2.3-10.5
		c-1.6-1-3.3-1.7-4.6-3c-1.4,0.8-0.8,2.5-1.4,2.8c-1.8,1.6-3.3,2-5.2,1.5c-1.1-0.6-1.8-1.6-1.8-2.8c0.9-1.4,2.1,0,3.3-0.7
		c1.2-1.5,2.1-3.6,4-4.9c0.3-0.2,0.5-0.7,0.6-1c0.2-0.5,0.2-1,0.3-1.4c-0.5-1.9-1.7-2.7-3.3-3.3c-4.1-1.5-8.4-2.3-12.7-3.2
		c-1.7-0.4-3.4-0.7-5-1.2c-2.9-0.9-4.6-2.9-4.9-6.1c-0.1-0.7-0.2-1.3-0.2-1.9c-1.6-1.9-3.3-3.3-5.8-4c-4.7-1.1-8.7-3.8-13-5.9
		c-1.1-0.6-1.6-1.7-2.6-2.5c-1.2,0.2-1.8,1.5-3.1,1.9c-0.6,0-1.3,0-2,0c-2.9,4.5-4,6.6-4.2,8.8c1.3,0.3,1.4-1.5,2.8-1.4
		c0.2,2.1-0.4,4.1-1.5,5.8c-1.2,1.8-3,2.9-4.7,4.2c-0.4,2.1,1.2,3.5,1.6,5c0,3.8-0.1,7.4,0,11c0.1,5.7,0.5,11.4,1.5,17
		s2.9,10.8,7.1,15c2.2,1.5,4.9,1.1,7.6,1.3c-0.6,1.4-0.6,1.4-4.8,3c-0.1,0.3-0.3,0.7-0.4,1c0.1,1.4,1.9,1.5,2,2.9
		c-0.1,0.6-0.6,0.9-1.1,0.8c-2.7-0.5-5.5-0.7-8-2c-1.8-0.8-3.8-1.1-5.6-1.6c-4.3,2-8.5,4-12.6,5.9c-0.1,0.6-0.2,1-0.1,1.4
		c0.9,2.4,1.5,4.8,2,7.3c0.4,2.7,1.8,4.9,4.1,6.6c1.6,1.1,3.3,1.7,5.2,1.5c1.4-0.2,2.9-0.5,4.3-0.8c2.5-0.5,4.9-1,7.3-0.2
		c3.1-1,6.1-1.7,8.2-3.4c1.1-1.4,0.3-2.7,0.8-3.7c0.8-0.8,1.5,0.1,2.2,0.1c0.9,0.1,1.1-1.2,2-1c0.7,0.6,0.2,1.5,0.6,2.3
		c2,3.1,5.1,4,9,3.8c2.2-1.8,5.3-1.8,8.2-2.5c2.8-0.7,5.5-1.9,8.4-2c-0.1,0.5-0.2,0.9-0.2,1.3c-0.1,0.2-0.2,0.4-0.2,0.5
		s0.1,0.2,0.2,0.3c-1.9,2.2-4.4,3.2-7.1,4c-1.4,0.4-2.9,0.6-4.3,0.7c-1.8,0.2-3.6,0.3-5.3,1.3c-1,0.6-2.3,0.7-3.5,0.4
		c-1.7-0.4-3.3-0.8-5-1.2c-1.2-0.6-0.7-2.4-2.3-2.9c-1.7,1.3-3.6,2.8-5.8,3.5c-2.1,0.6-4.3,1-6.5,1.5c-0.4,0.1-0.7,0.3-1.2,0.6
		c0,1.2,1.6,1.4,1.6,2.6c-0.1,0.2-0.2,0.5-0.3,0.8c-0.8,0.9-1.9,0.4-2.7,0.9c0-0.2,0-0.3-0.1-0.4c0,0,0.1,0.2,0.2,0.3
		c0.9,1,2.4,1.7,2.4,3.3c-0.2,1.2-1.3,1.2-2,1.8c0.3,0.6,0.6,1.2,0.9,1.8c-0.5,1.5-2.9,0.9-2.9,2.1c-0.7,1.6,0.1,2.6,0,4.1
		c-0.8,2.2-1.8,4.9-1.9,7.6c-0.6,1.1-1.7,1.1-2.6,1.8c-0.6,2.3-2.3,4.4-3.3,6.9c-0.5,0-0.9,0.2-0.8,0.8
		C772.1,296.8,771.9,296.9,771.7,296.9z M924.4,568.7c0.2,0.1,0.4-0.1,0.7-0.2c-0.5-0.5-1.1-0.2-1.7-0.3c-0.7-1.1-1.6-0.8-3-0.4
		c1.3,0.1,2.2,0.2,3.1,0.3C923.8,568.4,924.1,568.6,924.4,568.7z M727.1,492.5c0.9,0,1.6,0,2.2,0c-0.3,0.4-0.6,0.8-1.1,1.4
		c1.1,0.6,2.1,1.2,3.6,0.8c-0.7-1-1.3-2-2.6-2.1C728.7,491.9,728.1,491.5,727.1,492.5z M730.6,501c-0.2,0.2-0.1,0.2,0.3,0.2
		c0,0.4,0.3,0.7,0.6,0.9c1.3,0.5,2.7,1,4,1.4c0.5-1-0.1-1.4-0.5-1.9c-1.3-0.6-2.8-0.3-4.2-0.3C730.8,501.2,730.7,501.1,730.6,501z
		 M765.4,590.8c-0.4,1.2-0.3,2.3-0.3,3.3c0.7,0.6,1.2,0.3,1.8-0.1c0.6-1.5,1.3-3.2,1.3-5.1c0.7-0.4,1.4-0.7,2.1-1.1
		c0.3-1.2,0.1-2.3-0.8-3.5c-0.8,1.5-2.9,1.2-3.3,3c0.3,0.9,1,0,1.2,0.4c0.7,0.4,0.9,0.8,0.9,1.4
		C767.3,589.6,766.1,589.9,765.4,590.8z M256.3,569.8c-0.1-0.7-0.1-1.3-0.2-2.2c-3.1-3.7-4.3-8.9-8.2-12.6c-1.3-0.4-2.7,0.1-4,0.5
		c-5.2,1.5-10.4,3-15.5,4.9c-5.1,1.8-9.5,4.6-13.3,8.6c-1.5,3.9-3.2,7.8-4.7,11.7c-0.6,1.5-1.2,2.9-1.2,4.6c0,1.6-1,2.7-2.5,3.2
		c-2.1,0.7-4.3,1.5-6.6,1c-4.8-1-9.5-0.4-14.4,1.3c-1.1,1.2-2.8,2.2-4.6,3c-3.7,1.8-6.9,4.4-10.3,6.8c-1,0.7-1.6,1.7-2.2,2.8
		c-1.1,2.3-2.5,4.4-4,6.4c-0.5,0.6-0.9,1.3-1.2,2.1c-0.7,2-1.9,3.5-3.6,4.2c-1.8,2.5-1.7,4.9-0.4,7.5c1.4,0.5,2.9,1.1,4.4,1.6
		c0.9-0.1,1.9-0.5,2.7-0.3c5.1,1.2,10.2,1,15.3,1.2c4.9,0.2,9.6,1.6,14.3,3.2c0.4,0.1,0.8,0.2,1.1,0.3c0.7,0.2,0.8-0.5,1.4-0.7
		c2.7,0.1,5.4,0.3,7.9,1.7c0.9,0.5,2,0.5,3.2,0.1c0.2-1-0.7-2-0.2-3.1c0.4-0.8,0.4-0.8,2.3-1.3c1.6,0.7,2.9,2,4.4,3.1
		c1.8,1.5,3.4,3.4,6.1,3.3c1.5,1.5,3.7,1.3,5.5,1.9c2,0.7,4,1.2,5.8,2.5c0.8,0.6,1.9,1,2.9,1.1c3.3,0.4,6.6,0.6,9.9,0.8
		c0.9-0.1,1.3-0.9,2.1-1.3c3.6-0.3,7.1-2.2,10.7-0.4c6-1.1,11.3-4.3,17.5-5c-1.3-0.7-2.3-0.5-3.3-0.5c-2,0-4,0.2-6,0.1
		c-3.3-0.2-6.2,0.9-8.9,2.8c-1.9,0.6-3.7,0.1-5.4-0.7c-1.6-0.7-3.1-1.4-4.9-2.2c-1.6-3.7-5.8-6-7-10.4c0-2.7,1.2-5.5,0.6-8.5
		c2.5-2.7,4.9-5.4,7.4-8.1c1.1-0.5,2.5-0.3,3.6-1.2c2.3-1.7,5-2.4,7.6-3c1.6-0.4,3-0.9,4.5-1.9c3.2,1.2,6.4,1.6,9.6,0
		c0.8-1,0-1.9-0.2-3.1c-1.5-0.4-2.8-1.4-3.6-2.6c-0.6,0-1.1-0.1-1.6-0.1c-1.4-1.5-2.6-3.1-3.2-5.1
		C263.6,581.4,260,575.6,256.3,569.8L256.3,569.8z M782.5,552.2c-3.2,3.2-7,4.6-11.4,4.6c-0.8,0.9-0.5,2-0.4,3
		c0.8,9.5,1.8,19,3.8,28.3c0.1,0.4,0.2,0.7,0.4,1.4c3.3-2.7,7.4-3.4,10.9-5.5c0.9,0,1.9-0.1,2.8-0.1c2.1-1.4,4.2-2.7,6.4-4.1
		c0.2-0.7,0.4-1.5,0.6-2.3c2.2-2.4,4.7-4.7,7.6-6.3c3.7-2,6.5-5.1,9.2-8.1s5.7-5.6,9-7.7c2.5-1.6,4.7-3.4,6.7-5.5
		c1.9-2.2,4.2-4.1,6.2-6.2c2.1-2.2,3.9-4.7,4.6-8c-4.9-14.8-7.6-30.3-11.1-45.3c-1.6-1.4-3-2.4-4.2-3.6c-2.7-2.7-4.4-6-5.5-9.6
		c-0.6-1.9-1.1-3.8-1.6-5.7c-1.7-6.6-4.1-12.9-7.3-18.8c0.3-3.3-0.9-6-2.7-8.5c-2.3-3.2-4.5-6.6-7.1-9.6s-3.9-6.5-5.6-9.9
		c-0.4-0.8-0.9-1.8-0.8-2.6c0.5-3-0.6-5.8-1-8.6c-0.6-4.2-0.9-8.4-0.9-12.7c0-0.8,0-1.6,0-2.4c-3.8-0.9-6.2-2.9-7.7-6.4
		c-1-2.3-2.7-4.2-4.3-6.2c-6.5-8.6-9.9-18.4-11.6-28.9c-1-6.4-1.8-12.8-2-19.4c-0.3-7.4,1.1-14.5,3.4-21.5c0.2-0.5,0.3-1,0.6-1.5
		c3.7-6.4,7.3-13,13.3-17.7c0.7-0.6,1.4-1.2,2.2-1.8c0.1-0.1,0.2-0.2,0.4-0.6c-6.1,0.7-10,4.8-14.5,8c-0.1,0.8-0.3,1.6-0.4,2.4
		c-2.6,2.2-4.9,4.8-8.5,5c-2.3,1.6-3.4,3.6-4.3,5.9c-1,2.6-2,5.2-3.1,7.8c-0.9,2.2-1.2,4.6-1.3,7c-0.1,2.8-0.9,5.5-1.2,8.2
		c-0.1,0.5-0.3,1-0.5,1.5c-1.7,3-2.6,6.4-3.7,9.6c-2.3,6.5-3.8,13.2-4.2,20.1s0.2,13.8-0.2,20.7c-0.2,3,0,6.1,0.7,9.1
		c0.4,1.7,0.3,3.4,0.4,5.2c0.1,3.3,0.5,6.6,1.2,9.9c0.7,3.1,1.2,6.2,1.1,9.5c-0.1,2,0.3,4,0.8,5.9c0.7,2.8,1.6,5.6,2.2,8.5
		c1.5,6.8,1.3,13.4-1.7,19.8c-1,2.2-1.4,4.6-1.6,6.9c-0.2,1.7-0.6,3.3-1.3,4.9c-0.3,0.6-0.3,1.3-0.5,2.1c3.3,0.8,6.3,2.1,9.7,4.2
		c-3.8-0.7-6.6-2.4-10-3.1c-1.5,1.7-2.9,3.5-4,5.8c3.6,1.7,7.7,1.4,11.1,4.5c-2.7,0.1-4.5-1.3-6.5-1.5c-2.1-0.2-4.2-0.6-6.3-0.8
		c-3.3,1.2-5.1,4.3-7.9,5.7c-0.2,1.1,0.6,1.5,1.1,2c1.6,1.6,3.1,3.2,4.8,4.8c4.1,3.9,7.4,8.4,9.7,13.5c1,2.3,2.5,4.3,4.3,6.2
		c2.7,2.8,5,5.8,7.2,9c1.7,2.4,3.2,4.9,4.4,7.5c1.8,4.3,3.6,8.6,5.3,12.9c0.8,2.1,1.2,4.3,1.6,6.6c0.2,1.4,0.6,2.8,0.9,4.3
		c3.1,0.4,6,0.1,8.8-0.7C780,552.7,781.2,552,782.5,552.2L782.5,552.2z M267,628.7c7.8,0,15.7,0.1,23.5,0c4.7-0.1,9.2,0.5,13.8,1.2
		c4.6,0.7,9.2,1.3,13.8,1.3c6.9,0.1,13.7,1.1,20.5,2.3c4.6,0.8,9.1,1.5,13.8,2c8.7,0.9,17.4,1.7,26.1,2.5c1,0.1,2.3,0.3,3.1-0.2
		c1.8-1,3.6-0.7,5.4-0.3c4.9,1,9.9,1.8,14.9,2.3c4.5,0.4,8.9,1.3,13.4,1.8c6.1,0.6,12.2,1.1,18.2,1.5c5.3,0.4,10.6-0.7,15.8-1.4
		c1-0.1,2.1-0.2,2.7-0.3c1.3,0.3,1.4,1.3,2.2,1.8c0.3,0.1,0.7,0.2,1.1,0.2c4.6,0.1,9.3-0.2,13.9,0.3c0.8,0.1,1.6,0,2.3,0.3
		c3,1.2,6.1,1.7,9.2,2.4c3.8,0.9,7.5,1,11.4-0.1c3-0.9,6.2-1.3,9.4-1.6c2.9-0.4,5.8,0.4,8.6,1c5.3,1.3,10.6,2.2,16,2.9
		c6,0.8,11.9,0.1,17.8-1.4c1.5-3.4,4.1-5.8,7-7.9c0.8-0.5,1.4-1.2,2.1-1.9c3.2-3.1,5-6.8,4.7-11.7c-2.6-2-4.6-4.9-6-8
		c-2-4.3-3.8-8.7-5.9-13c-0.5-1.1-0.7-2.3-0.7-3.5c0-4.8-0.7-9.5-1.6-14.2c-0.4-2.3-1.1-4.6-1.8-6.9c-1-3.4-2.1-6.8-3.2-10.2
		c-1.6-0.3-2.8,0.5-4,0.9c-4.1,1.5-8.3,2.9-12.4,4.1c-4.1,1.2-8,2.7-12.1,4c-2.8,0.9-5.6,1.5-8.6,1.5c-1.8,0-3.7,0.4-5.5,0.6
		c-1.3,0.1-2.6,0.3-4,0.3c-4.6,0.1-9.3,0.1-13.9,0.2c-2.5,0-5-0.3-7.4-1.2c-1.7-0.7-3.6-0.8-5.4-1.3c-6.5-1.8-13.2-2.7-19.9-3.8
		c-1.3-0.2-2.6-0.5-3.9-0.7c-3.5-0.6-7.1-1-10.7-0.9c-2.1,0-4.2-0.1-6.3-0.5c-2.5-0.4-5-0.4-7.5,0.2c-1.5,0.4-3.1,0.5-4.7,0.8
		c-3.4,0.7-6.6,1.8-9.8,3.1c-4,1.7-8.2,3.1-12.5,4.1c-1,0.2-2.1,0.5-3,1c-4.4,2.4-9.1,3.5-14,4.2c-4.9,0.6-9.6,1.7-14.5,2.7
		c-5.9,1.1-11.7,2.4-17.5,3.5c-3.5,0.7-7.1,1-10.6,1.6c-3.4,0.6-6.8,1.2-10.1,1.9c-2.2,0.5-4.3,1.3-6.4,2c-3.4,1.1-6.8,2.1-10.2,3.2
		c-1.9,0.6-3.9,0.6-5.9,0.9c-5.3,0.8-10.5,1.2-15.9,1c-1.9-0.1-3.7,0.2-5.5,0.7c-3,0.9-5.9,1.3-9,1.3c-0.4,0-0.8,0.1-1.2,0.2
		c-1.5,1.5-3,3-4.4,4.6c-1,1.1-1.5,2.5-1.6,4c-0.1,3.2,0,6.4,0.8,9.5c0.4,1.8,1.2,3.5,2.4,4.7C264.9,629,266,628.7,267,628.7z
		 M300.4,564.6c-2.9,1.6-6.5,1-10,2.4c-0.1,0.2-0.5,0.5-0.7,1c-0.9,2.3-2.4,3.8-5,3.6c-4.8,4.1-7.6,9.2-9.8,14.7
		c0.2,2.9,1.6,4.9,3.2,6.5c0.6,1.2-0.4,1.7-0.3,2.6c0.1,0.6,0.2,1.3,1,1.9c1.1-0.4,2.3-0.8,3.5-1.3c3-1.6,6.3-1.9,9.7-1.9
		c6.9,0,13.8-0.3,20.7,0.4c1.3,0.1,2.6,0.1,3.9-0.3c6.4-1.8,12.9-3.1,19.4-3.9c4.1-0.5,8.1-1.5,12.1-2.2c4.3-0.7,8.6-1.5,12.9-2.3
		c1.6-0.3,3-0.6,4.3-1.8c1.4-1.3,3.4-1.5,5.2-1.9c8-2,16-3.8,23.7-6.6c0.9-0.3,1.8-0.7,2.7-0.6c2.6,0.1,4.9-0.9,7.3-1.8
		c8.1-3,16.5-3.9,25-2.9c0.7,0.1,1.3,0.2,2,0.2c4.9-0.1,9.8,0.9,14.6,1.8c0.4,0.1,0.8,0.1,0.5,0.1c1.5,0.1,2-0.7,2.8-0.9
		c2.4,0,4.6,1,6.9,1.7c2.7,0.8,5.3,1.7,7.9,2.6c3,1.1,6.2,1.4,9.4,1.4c4.2,0.1,8.5,0.2,12.7,0.3c1.7,0,3.4,0.6,5.1-0.3
		c0.5-0.3,1.3,0,2,0c1.7,0,3.4,0.1,5.2,0.1c3.1,0,6-0.5,9-1.5c8.2-2.7,16.4-5.4,24.6-8c1.8-0.6,3.6-0.9,5.4-1.3
		c0.6-2.2-1.8-2.2-2.6-3.4c1.8-2.8,3.4-3.4,11.2-4.6c0.7-0.8,0.5-1.7,0.3-2.6c-0.5-2.1-0.7-4.1,0-6.3c0.5-1.5,0.2-1.8-1.3-3.5
		c-1.2,0.3-2.5,0.6-3.7,1c-1.5,0.5-3.1,0.8-4.7,0.7c-0.5,0-1.1-0.1-1.6,0.1c-4.1,1.1-8.4,1.2-12.5,2.5c-1,0.3-2.1,0.5-3.1,0.6
		c-4,0.3-7.9,0.6-11.9,0.9c-0.8,0.1-1.6,0.1-2.4,0c-4.2-0.9-8.4-1-12.6-1.4c-2.1-0.2-4.2-0.4-6.3-0.7c-5.2-0.6-10.1-2.1-15.1-3.4
		c-5.7-1.4-11.3-2.7-17.2-2.6c-3.4,0.1-6.9-0.6-10.3-0.4c-0.8,0.1-1.6-0.1-2.4,0.1c-3.4,0.7-6.9,0.6-10.3,0.9
		c-2.8,0.2-5.5,0.6-8.3,0.5c-0.3,0-0.5,0-0.8,0c-4.3,0.8-8.7,1.2-13,1.2c-1,0-2.1,0.4-3.1,0.7c-6.4,1.6-13,2.5-19.6,3.2
		c-8,0.9-16,2.3-24,3.6c-5.5,0.9-11,1.7-16.5,2.7c-0.4,0.1-0.8,0.1-1.2,0.2c-6.1,1.8-12.5,2.1-18.8,2.9c-6.9,1-13.9,2.1-20.9,1.7
		c-0.3,0-0.5,0.1-0.8,0.1C301.9,562,301.5,563.4,300.4,564.6z M883.2,360.2c-0.6,5.6-2.3,10.9-4.8,15.9c-1.5,2.9-3.2,5.5-5.6,7.6
		c-1.5,1.3-2.9,2.7-3.7,4.5c0.8,4,1.7,7.8,2.3,11.7c0.5,3,1,6,1.1,9.1c0.2,4.9,0.8,9.8,1.3,14.6c0.4,3.8,0.5,7.7-0.1,11.5
		c-0.3,2-0.4,3.9-0.7,6.1c1.9,2.1,1.7,5.1,2.8,7.8c1-1.6,1.8-2.9,2.6-4.3c0.7-1.3,1.3-2.6,1-4.2c-0.3-1.4,0.2-2.6,0.8-3.8
		c0.8-1.5,1.6-3.1,2.4-4.6c3-5.5,5.7-11.1,6.7-17.3c0.6-3.3,1.5-6.5,2.1-9.7c1.4-7.5,1.4-15,1.5-22.6c0-1-0.2-2.1-0.3-3.2
		c-0.5-3-1.1-6-1.7-9c-0.1-0.7-0.2-1.3-0.4-1.9c-1.6-4.5-3.1-9-4.7-13.5c-0.3-0.8-0.5-1.8-1.9-2.2
		C883.7,355.5,883.4,357.9,883.2,360.2z M917.7,573.6c3.8,0.6,7.4,1.3,11.1,1.1c2.4-0.1,4.7,0.3,6.8,1.8c0.5,0.4,1.2,0.6,1.8,0.8
		c3.3,1,6.6,1.9,9.9,2.9c1.4,0.4,2.7,1,3.9,1.5c-0.2,1-0.8,1.2-1.5,1.5c-4.4-0.6-8.7-1.9-12.9-3.6c-0.9-0.3-1.8-0.7-2.5-1.2
		c-1.3-1-2.8-1.5-4.5-1.8c-3.3,1.7-6.8,0-10.3-0.1c-0.6,0.9,0,1.6,0.2,2.3c0.2,0.6,0.5,1.2,0.9,1.9c1.7,0.6,3.5,1.1,5.3,1.3
		c0.9,0.1,1.9,0.3,2.6,0.8c3.1,1.8,6.4,2.3,9.9,2.2c2.6-0.1,5,0.6,7.6,1c1.9-1.5,5.3-0.8,6.2-4.1c1.5-0.3,3.2,0.7,4.1-1.4
		c-3.2-0.6-6.2-1.9-9.6-1.9c-1.9,0-3.6-0.7-5.3-1.6c-2.1-1.1-4.4-1.8-6.6-2.6c-4.1-1.4-8.3-2.7-12.6-3.5c-2.4-0.4-4.7-1-5.7-3.5
		c-0.1-0.2-0.5-0.2-0.7-0.2c-0.1,0-0.2,0-1,0.1C915.8,569.5,916.8,571.5,917.7,573.6z M258.6,605.2c-3,0.5-4.8,1.3-6.4,3
		c-1.4,1.4-2.7,2.9-4,4.4c-1.7,1.9-2.5,4-2.4,6.5c0.1,1.8,0.2,3.7-0.5,5.4c2,2.4,4.1,4.4,7,5.5c1.7-0.4,3.6-0.3,5.3-1.3
		c0.7,0.4,1.4,0.8,2,1.1c0.1-0.2,0.2-0.5,0.2-0.7c-0.7-1.7-1.4-3.4-2.1-5.1c-0.8-1.9-1.3-4-3.2-6
		C255.5,613.7,256.8,609.4,258.6,605.2z M1023.3,632.6c-2.3-0.6-4.6-1.3-6.6-2.6c-2.4-1.5-5.1-2.2-7.9-2.2c-2.3,0-4.5,0-6.7-0.5
		c-1.1-0.2-2.1,0.1-3.1,0.3c-4-2-8.1-1.1-12.1-1.2c-0.1,0.9,0.3,1.2,0.8,1.3c2.9,0.5,5.8,1,8.7,0.8c1.2-0.1,2.4,0,3.6-0.1
		c3.8-0.1,7.4,0.6,10.7,2.4c1.9,1,3.9,1.7,6,2.1c3.9,0.8,7.8,1.7,11.7,2.5c0.9,0.2,1.9,0.4,2.6-1.1
		C1028.2,633.8,1025.7,633.2,1023.3,632.6z M271,581.8c1.9-4.6,4.6-8.7,8-12.5c-1.3-0.6-2.5-1-3.7-1.2c-4,2.1-6.8,4.8-8.4,8.4
		C267.9,578.7,268.4,581,271,581.8z M204.8,576.3c-2.8,3-6,5.6-9.1,8.2c-0.3,0.2-0.3,0.7-0.6,1.3c3.7,0.1,7.2,0.7,10.9-0.5
		c0.3-3.5,3.2-6.4,2.4-10.1C206.8,575.1,205.7,575.3,204.8,576.3z M302,597.6c-5,0-10,0-15,0c-2.6,1-5.4,0.5-8.1,1.2
		c0,0.4,0.1,0.7,0.1,1c0.3,0.1,0.7,0.4,1,0.4c7.1,0.6,14.2-0.5,21.3-1.3c0.7-0.1,1.6-0.2,2.1-0.9C303,597.5,302.5,597.6,302,597.6z
		 M787.2,161.8c0.2-2.2,1-4.3,1.8-6.4c0.7-1.8,1.3-3.7,1.6-5.7c0.3-2.2-0.1-4.2-1.4-6c-0.1-0.2-0.4-0.2-0.6-0.3
		c-0.1,0.1-0.2,0.2-0.2,0.3c1.4,5.5-0.6,10.4-3,15.2c-1,2-1.4,3.4-1.5,6.3C785.5,164.6,786.1,163.1,787.2,161.8z M732.8,505.5
		c1,1.6,1.9,3.1,2.9,4.7c0.1,0.2,0.4,0.3,0.9,0.6c1.3-0.4,2.7-0.9,4.5-1.5c-0.8-1.7-2.1-2.6-3.1-3.9c-1.9-0.5-3.7-1-5.6-1.5
		C732.1,504.7,732.5,505.1,732.8,505.5z M928.5,588c-0.1-1.1-0.9-2.2-0.6-3.8c-1.9-0.1-3.7-0.3-5.5-0.4c0.5,2.9,1.1,4.4,3.2,7.6
		C926.7,590.1,927.5,589.1,928.5,588z M771.6,158.8c1.5-0.8,1.3-2,1.4-3.2c-0.4-1.3-1.4-1.9-2.3-2.5c-0.6,0.1-0.6,0.1-0.9,2
		c-0.4,0.6-1.1,0.8-1.8,0.6c-0.9-0.3-1.7-0.7-2.6-1c-1.3,1.1-2,2.5-2.4,4.3C766,156.4,768.8,156.5,771.6,158.8z M737.1,211.8
		c-1-1-2.1-0.3-3.1-0.3c-0.9,0-1.7-0.7-2.9-0.1c-0.1,1.7,0.9,3,1.7,4.3c1.2-0.2,1.4-1.4,2.3-1.8c0.7-0.3,1.6-0.2,2.1-1.2
		C737.1,212.5,737.1,212.2,737.1,211.8z M732.5,497.6c-1.7,0.2-3.3-0.6-5-0.9c-0.5,0.8,0.2,1.3,0.6,1.5c1.8,1.1,3.8,1.8,5.9,1.4
		c0.8-0.3,0.9-1,1.2-1.7c-0.6-0.7-1.3-1.4-1.9-2.1c-0.9-0.4-1.7-0.2-2.7,0.1C731.3,496.8,732.4,496.5,732.5,497.6z M772.7,193.9
		c-0.6-0.1-0.9,0.4-1,0.9c-0.3,1.5-0.7,3.1-0.9,4.6c-0.2,1.4,0,2.8,1.3,3.8C773,200.8,773.1,198.5,772.7,193.9z M773.1,171.4
		c-0.7,1.4-1.4,2.8-2.4,4c-0.5,0.6-0.7,1.4,0,2.2c1.9-1.2,3.6-3.7,5.6-8.1C774.4,169.6,773.6,170.4,773.1,171.4z M758.8,189.8
		c-0.2-0.1-0.6-0.2-0.7-0.1c-1.4,1.2-3.2,1.6-4.8,1.6c-0.7,0.8-1.1,1.4-0.3,2.4c1.9-0.2,3.7-1.4,5.8-1.3
		C759.4,191.3,759.3,190.5,758.8,189.8z M745.4,208.5c0.1-0.1,0.3-0.2,0.3-0.3c0.3-1,0.5-2,0.7-2.9c-0.3-0.4-0.5-0.7-0.7-0.7
		c-1-0.2-2-0.6-3.3-0.2c-0.5,1.4,0.3,2.6,0.6,3.8C743.9,208.9,744.6,209,745.4,208.5z M769.5,190.9c1.4-2.1,1.4-2.5,0.7-7.8
		C769,185.2,768.9,186.5,769.5,190.9z M738.9,245.5c0.1,1.1,0.4,2.4,1.8,3.2c1.7-1.6,1.6-2.2-0.3-4.7
		C739.6,244.2,739.2,244.5,738.9,245.5z M749.3,232.7c-1,0.5-2,1.1-3,1.7c-1,0.6-2.1-0.4-3,0.4c-0.3,0.2-0.2,0.5,0.1,0.6
		c1.3,0.5,2.6,0,3.9,0c0.9,0,1.9,0.1,2.7-0.5C750.4,234,750.2,233.3,749.3,232.7z M763.5,240c-0.1-0.3-0.1-0.7-0.3-1
		c-0.6-0.7-1.4-0.6-2.1-0.2c-0.8,0.4-1,1.1-0.5,2.2C761.9,241.4,762.8,241,763.5,240z M751.7,169c1.1-0.9,0.3-1.8,0-2.9
		c-1.3,0.4-1.9,1-2.2,2.1C750.1,168.9,750.9,169,751.7,169z M725.6,222.1c0,1.7,0.6,2.9,1.6,4.3
		C728.3,224.5,728.1,224.2,725.6,222.1z M720,204c1.4-1,1.4-1,1.5-4.1C720.5,201.2,718.9,202.1,720,204z M745.5,256.3
		c0.7-1.3-0.4-2.2-0.8-3.1c-0.8-0.4-0.9-0.3-1.6,1C743.6,255.2,744.2,256,745.5,256.3z M761.5,184.4c1.5,0.4,3.1,0,4.2,0.9
		c0.8-0.3,0.9-0.7,0.8-1.5c-1.4-0.2-2.9-0.3-4.6-0.5C761.7,183.8,761.6,184,761.5,184.4z M721.9,213.5c-0.8,0.8-0.6,1.4,0.7,2.6
		c0.6-0.1,0.9-0.5,1.1-1.1C723.3,213.9,722.7,213.5,721.9,213.5z M774.2,262.9c1.8,0.3,3.3,0.5,5.4,0.2
		C777.9,262,777.9,262,774.2,262.9z M759.9,263.2c0.3-1.4-0.6-2-1.5-2.7c-0.6,0-0.9,0.3-1,0.9C758,262.2,758.4,263.2,759.9,263.2z
		 M750.4,241.6c0.4,1.3,1.2,1.8,2.5,2.1C752.9,241.5,752.6,241.3,750.4,241.6z M774.2,146.7c0.6-0.9,0.7-1.8,0.3-2.8
		c-0.5-0.5-0.9-0.2-1.5,0.1C772.8,145.3,773,146.1,774.2,146.7z M774.1,212.9c0.8-0.9,0.6-1.8,0-2.7
		C772.7,211.2,772.7,211.4,774.1,212.9z M764.7,214.5c0.7-0.8,0.6-1.6-0.1-2.7C763,213.1,763,213.2,764.7,214.5z M724.7,232.2
		c0.7-1.2,0.7-1.2-0.7-2.7C723.5,230.7,723.9,231.5,724.7,232.2z M774.1,178.8c1.2-0.6,1.2-0.6,1.8-2.3
		C774.6,177.1,774.1,177.8,774.1,178.8z M766.1,259.5c0.1,2,0.1,2,2.6,1.8C768.3,260,767.2,259.8,766.1,259.5z M763.1,221.7
		c0.6-0.7,0.5-1.4,0-2c-1-0.4-1.4,0.2-1.7,1C761.6,221.5,762.2,221.9,763.1,221.7z M773.6,236.5c-1.3-0.8-2.2-0.3-3.7,0.7
		C771.6,237.3,772.6,237.3,773.6,236.5z M722.7,491.2c-0.1,1.1,0.6,1.4,1.5,1.8C724.2,491.3,724.2,491.3,722.7,491.2z M769.1,226
		c0.2,0.2,0.5,0.1,0.6-0.2c0.1-0.8-0.1-1.5-1.1-1.9C768,224.9,768.5,225.5,769.1,226z M762.2,161.2c-1.3,0.2-1.2,1-1.1,2.2
		C762.5,162.6,762.6,162,762.2,161.2z M274.3,592.6c0.2,0.3,0.5,0.5,0.8,0.7c0,0,0.3-0.2,0.2-0.3c-0.1-0.3-0.3-0.7-0.5-1
		c-0.1-0.1-0.2-0.2-0.6-0.4C274.2,592.2,274.1,592.5,274.3,592.6z M721,206.1c-0.2,0-0.3,0.3-0.3,0.6c0,0.1,0.1,0.2,0.2,0.3
		c0.2-0.2,0.4-0.3,0.6-0.5C721.4,206.3,721.3,206.1,721,206.1z M722.1,225.3c0.2,0.2,0.5,0,0.5-0.3c0-0.2-0.1-0.4-0.2-0.6
		c-0.2,0.1-0.4,0.2-0.7,0.3C721.9,224.9,721.9,225.2,722.1,225.3z M759,252.2c-0.1-0.1-0.6,0-0.6,0.2c-0.3,0.6,0.1,0.8,0.6,1
		C759.5,253,759.4,252.6,759,252.2z M776,233.1c0-0.2-0.1-0.5-0.3-0.6c-0.1-0.1-0.4,0.1-0.6,0.2c0.1,0.2,0.2,0.5,0.3,0.6
		s0.2,0.1,0.4,0.1C775.9,233.3,776,233.2,776,233.1z M740,214.9l0.1-0.3h-0.2L740,214.9z M934.6,570.9L934.6,570.9h0.3H934.6z"/>
	<path d="M856.6,534.7c-0.7,0.3-1.4,0.1-1.8-0.4c-2.3-2.7-4.7-5.4-6.1-8.5c0.1-0.7,0.3-1.2,0.4-1.7c-2.3-4.7-4.6-9.3-5.3-14.6
		c0.4-2,0.8-4.1,1.2-6.1c-0.9-2.2-2.6-3.7-4.3-5.2c-1.3-1.1-2.9-2.2-3.4-3.8c-0.5-1.9-1.8-3.2-2.8-4.7s-2.2-3-2.3-4.7
		c0.4-0.8,0.8-1,1.6-0.6c1.9,3.6,5,6.7,6.3,10.5c6.4,4.5,7.3,5.7,7.5,9.3c-0.3,1.4-1.9,1.9-2.1,3.2c1.9,6.5,3.8,12.8,5.9,19.4
		c1.2,1.5,2.7,3.2,4,5C856.1,532.5,857,533.4,856.6,534.7L856.6,534.7z"/>
	<path d="M1027.9,643.8c-0.5,0-1.1,0.1-1.6,0c-4.9-1.6-10.2-1.9-14.8-4.4c-0.5-0.2-1-0.3-1.5-0.5c-5.7-2.1-11.6-2.3-17.6-3
		c-3-0.3-6.1-0.6-9.1-1c-0.9-0.1-1.9-0.2-2.1-1.5c0.8-1.1,2-1,3.1-0.9c6.6,0.6,13.2,1.2,19.7,2c2.8,0.4,5.7,1.2,8.4,2.3
		c2.5,1,5,1.8,7.5,2.4c1.9,0.4,3.8,1,5.7,1.6c0.8,0.2,1.5,0.6,2,1.5c0,0.5-0.1,1.1-0.1,1.7L1027.9,643.8z"/>
	<path d="M600,627.6c-3.2-0.4-6.3,0.3-9.3,1.2c-5.2,1.6-10.1,3.9-14.3,7.4c-1.4,1.2-2.9,2.2-4.4,3.3c-0.4,0.3-0.9,0.5-1.2,0.6
		c-0.8-0.2-1.1-0.6-1.1-1.2c0.2-1.4,1.2-2.3,2.3-3.1c2-1.5,4-3.1,6-4.6c2.9-2.1,6.2-3.5,9.6-4.7c4.7-1.6,9.2-0.9,13.8,0.2
		C601.1,627.7,600.5,627.7,600,627.6z"/>
	<path d="M629,635.8c-2.3,1.4-4.8,2.2-7.5,2.3c-3,0.1-6.1,0-9.1-0.2c-1.4-0.1-2.9-0.4-4.2-1.1c-0.6-0.3-1.1-0.7-1.3-1.4
		c0.2-0.6,0.7-0.9,1.2-0.8c4.6,1.1,9.2,0.4,13.8,0.5c2.8,0,5.4-0.5,7.9-2c0.2,0.3,0.4,0.6,0.6,0.9
		C630.1,635.1,629.6,635.5,629,635.8z"/>
	<path d="M823,423.8c-0.6,0.9-1.3,0.5-1.8,0.3c-3.1-1.1-5.6-3.1-7.7-5.5c-1.8-2.1-3.4-4.4-3.8-7.1c0.3-1.2,0.8-1.9,2.5-1.7
		C815.2,415,818.5,419.9,823,423.8z"/>
	<path d="M665.2,616.8c1.7-1.7,3.6-3.1,5.9-4c0.3-0.1,0.8,0,1.1,0.1c0.7,0.5,0.8,1.1,0.5,1.8c-9.3,7.3-7.7,7.1-14.2,15.2
		C659.5,624.9,661.6,620.5,665.2,616.8z"/>
	<path d="M584.3,584.9c1.2-0.2,2,0.5,2.9,1c6.5,3.6,12.7,7.6,18.5,12.3c3.1,2.5,5.7,5.5,7.9,8.8c0.2,0.3,0.3,0.7-0.2,1
		c-1.1,0-1.5-0.9-2.1-1.6c-3.5-3.8-6.8-7.8-11.1-10.7c-4.6-3.1-9.2-6.2-13.8-9.3C585.6,586.1,584.6,585.9,584.3,584.9L584.3,584.9z"
		/>
	<path d="M875.6,502c0.6,0.8,1.2,1.7,1.7,2.6c0.3,0.5,0.2,1-0.3,1.4c-0.6,0.1-1.1-0.1-1.3-0.5c-0.9-1.5-2.5-2.3-3.9-3.3
		c-2-1.3-3.9-2.6-5.9-4c-0.8-0.5-1.5-1.1-1.9-2c-0.1-0.2-0.1-0.5-0.1-0.7c0.1-0.8,0.6-1.2,1.5-1.5
		C869.3,495.7,873.1,498.7,875.6,502z"/>
	<path d="M683.7,625.6c5.8-5,10.7-10.5,12.7-18.3c0.4-1.5,0.2-3.1,0.5-4.7c0.5,0,0.9,0,1.2,0c0.9,1.2,0.4,2.4,0.2,3.5
		c-1.1,6.6-4.7,12-9.1,16.9c-1.9,2.1-4.1,3.7-6.8,4.6c-0.4,0.1-0.8,0.2-1.2-0.2C682,626.9,682.9,626.3,683.7,625.6z"/>
	<path d="M755.4,541c-0.2,1.4,0,2.6,1.2,3.8c0.9,0.1,1.9,0.2,2.9,0.4l-0.1-0.1c-0.2,0.5-0.7,0.7-1.2,0.7c-0.8,0.1-1.5,0.2-2,0.8
		l0.1-0.1c-0.4,0-0.8-0.1-1.4-0.1c0.4-1.4-0.3-2.5-0.9-3.7c-0.7-1.4-1.3-2.9-1.9-4.3c-2.1-4.7-4.4-9.3-8-13
		c-0.7-0.8-1.5-1.5-1.3-2.7l-0.1,0.1c1.8,0.7,2.9,2.5,4.6,3.3c0.5-0.1,0.9-0.2,1.4-0.4c0,1,0,2,0,3c1.3,2.1,2.3,4.2,3.6,5.8
		c1.6,0.6,2.7-0.8,4.1-0.2c-0.7,1.2-2.5,0.8-3.3,2.2C753.5,538.2,753.7,540.1,755.4,541L755.4,541z"/>
	<path d="M609.7,575.5c0.8,0,1.1,0.7,1.4,1.2c1.7,2.5,3.3,5.1,5,7.7c3.3,5.3,6.9,10.4,10.9,15.1c0.4,0.5,1.4,1,0.3,2
		c-1.9-1.2-3.4-2.9-4.7-4.7c-4.6-5.9-8.2-12.3-11.8-18.8C610.3,577.2,610.1,576.2,609.7,575.5L609.7,575.5z"/>
	<path d="M839,365.5c5.2,2.7,9.4,6.7,13.6,10.7c0.5,0.5,0.9,1,0.7,1.6c-0.3,0.5-0.7,0.6-1.1,0.5c-0.6-0.3-1.2-0.6-1.7-1
		c-3.7-3-7.4-5.9-11-9c-1-0.8-2-1.6-2.4-2.9C837.8,364.9,838.4,365.2,839,365.5z"/>
	<path d="M862.2,488.7c0.9,1.7,1.3,3.5,1,5.3c-0.2,1.7-0.4,3.4-0.1,5.1c0.1,0.4,0.2,0.7,0.3,1c0.5,0.6,1.4,0.2,1.7,1.1
		c0.1,0.4,0.2,0.9-0.2,1.4c-0.9-0.5-1.7,0.7-2.6,0c-0.8-0.8-0.9-1.9-1.5-2.9c-0.7-0.2-1.5-0.4-1.7-1.3c0.4-1.7,0.8-3.3,1.2-5
		c0.4-1.8-0.7-3.6-0.6-5.8C861.9,488.1,861.9,488.1,862.2,488.7z"/>
	<path d="M635.1,531.7c0.5-0.1,1.1-0.1,1.5,0c2,0.7,4,1.4,5.9,2.3c1.7,0.8,3.6,1.5,5.6,3c-3.5,0.4-6.5,0.6-9.4-0.2
		c-2-0.5-4.1-1.3-4.9-3.7C634.2,532.2,634.5,531.7,635.1,531.7z"/>
	<path d="M643.9,549.2c-2.1-2.5-4.4-4.9-6.8-7.1c-1.5-1.4-2.8-3.1-4.2-4.7c-0.3-0.4-0.7-0.8-0.3-1.4c0.6-0.3,1,0.1,1.3,0.4
		c2.6,2.5,5.1,4.9,7.7,7.4c1.8,1.8,3.2,3.8,4.5,6c0.2,0.3,0.3,0.7-0.4,1.8C645.1,550.7,644.5,549.9,643.9,549.2z"/>
	<path d="M694.1,598.4c-0.8,1.1-2.1,0.9-3.2,1.3c-6.6,2-13.2,3.8-20,4.8c-3.5,0.5-7.8,0.5-11.4-0.2c3.4-0.3,6.7-0.1,10-0.7
		c7.1-1.1,14-2.8,20.9-4.8c1.3-0.4,2.6-0.5,3.9-0.4L694.1,598.4z"/>
	<path d="M849.4,398.6c0.4,0.1,0.8,0,1.1,0.2c3.2,2.3,4.8,5.6,5.4,9.4c0.1,0.5-0.1,1-0.6,1.4c-0.5,0.1-1,0-1.6-0.7
		C852.7,405.5,851,402.1,849.4,398.6L849.4,398.6z"/>
	<path d="M627.2,548.6c1.1-1.9,0.1-3.2-0.4-4.6c-0.3-0.9-0.5-1.8-0.3-2.7c0.1-0.9,0.6-1.4,1.8-1.4c1.1,1.6,1.6,3.6,2.3,5.6
		C630,546.9,629.7,548.3,627.2,548.6z"/>
	<path d="M916.9,621.4c-0.5-1.6-0.5-1.6,0-3c2.2,2.5,3.3,5.6,5.2,8.3c-0.3,0.4-0.5,0.8-0.8,1.3C918.9,626.3,918.1,624.9,916.9,621.4
		z"/>
	<path d="M685.5,500.2c-1.2-0.1-2.3-0.6-3.4-0.9c-0.4-0.1-1-0.3-0.7-1.2c3-0.2,5.9,1,8.9,1.3c1.6,0.2,3.4,0.4,4.9,1.8
		C691.8,500.9,688.7,500.6,685.5,500.2z"/>
	<path d="M880.6,567.5c1.4,1.4,3.1,1.9,3.9,3.4c0,0.6-0.2,0.9-0.6,1c-3.4-1.7-4.8-5.3-7.3-7.8c-0.4-0.4-0.6-1.1-0.9-1.7
		c0,0,0.1-0.2,0.4-0.5C878.4,563.3,879.9,565.2,880.6,567.5z"/>
	<path d="M649.6,587.3c1.9,2.3,3.3,5,4.7,7.6c0.2,0.4-0.1,0.7-0.4,0.9c-1.9-1.3-2-1.3-2.6-2.7C650.5,591.3,649.1,589.5,649.6,587.3
		L649.6,587.3z"/>
	<path d="M682.1,493c-2.9,1.5-6,2.1-9.3,1.7C675.7,492.4,678.9,493,682.1,493z"/>
	<path d="M868.6,551.3c-3.5-2.2-5.3-4.8-5-7.8C866,545.8,867.7,548.3,868.6,551.3L868.6,551.3z"/>
	<path d="M907.6,603.7c0.3,0.7,1.1,1.6-0.1,2.7c-1.5-1.8-3.1-3.4-3.8-6.3C906.1,600.7,906.9,602.2,907.6,603.7z"/>
	<path d="M756.7,550.6c1.7,0.2,3.2,0.3,4.6,0.5c-0.2,0.9-0.8,1-1.5,1.1s-1.3,0.1-2,0.1c-0.8,0-1.6,0.1-2.4,0.1
		c-0.6,0-1.2,0.6-2.5-0.2C754.6,551.5,755.8,551,756.7,550.6z"/>
	<path d="M830.5,427.9c-2.8,0.2-4.9-0.9-6.3-3.4c1-0.9,1.9-0.7,2.7-0.2c1.5,0.9,2.7,2.1,3.5,3.7L830.5,427.9z"/>
	<path d="M953.6,574.9c-0.1-0.6-1-0.9-0.7-1.6c3.1,0,3.4,0.2,2.9,2.7c-0.6,0.6-1.3,0.8-2.2,0.8C952.5,576.2,954.2,575.5,953.6,574.9
		z"/>
	<path d="M671.9,510c-2.4-0.5-3.6-2.4-4.9-4.2c-0.3-0.4-0.3-1,0.6-1.1C669.2,506.3,670.7,508,671.9,510L671.9,510z"/>
	<path d="M781.5,338.7c1.1,1.8,2.1,3.4,1.3,6C781,342.1,781,342.1,781.5,338.7z"/>
	<path d="M831.5,431.2c0-0.1,0.1-0.2,0.1-0.3c2.7,0.6,2.9,0.8,2.8,4C833.4,433.7,832.4,432.5,831.5,431.2z"/>
	<path d="M762.3,576.2c1.3-1.2,2.9-0.9,4.9-1.6c-2,1.9-2,1.9-5.5,2.8C761.4,576.9,761.9,576.6,762.3,576.2z"/>
	<path d="M861.8,535.8c0.9,1,2.3,1.6,2.7,3.8c-2.1-1.1-3.5-2-4.4-3.8C861,535.2,861.4,535.5,861.8,535.8z"/>
	<path d="M715.7,615.1c0.8-3.6,0.8-3.6,2.6-4.8c0.2,0.2,0.3,0.4,0.7,0.8C717.8,612.3,717.4,614.3,715.7,615.1L715.7,615.1z"/>
	<path d="M831.9,362.8c2.1,0.2,3.1,1.6,4.2,3.3C833.8,366.2,833.5,365.9,831.9,362.8L831.9,362.8z"/>
	<path d="M820.2,351.2c2.2,0.4,2.6,0.9,2.5,3.8C821.5,353.9,820.5,352.9,820.2,351.2z"/>
	<path d="M913.5,612.5c1.3,0.6,2,1.6,2.3,2.9C913.9,615.9,913.2,615,913.5,612.5z"/>
	<path d="M870.5,553.8c1.7,1.3,2.8,2.8,3.4,4.7C870.8,556.2,870.8,556.1,870.5,553.8z"/>
	<path d="M909.4,607.5c2-0.2,2-0.2,3,2.8C910.7,610.4,910.7,610.4,909.4,607.5z"/>
	<path d="M843.7,392.4c0.2,0.5,0.1,1-0.6,1.3c-1.1-0.4-1.7-1.4-1.9-2.6C843,391.1,843.2,391.2,843.7,392.4z"/>
	<path d="M849.5,398.6c-0.7,0.2-1.4,0.2-1.8-0.4c-0.7-0.9-1.6-1.8-1.1-3.2C848.3,395.7,849,397.1,849.5,398.6L849.5,398.6z"/>
	<path d="M827.4,360.4c-1.5-0.3-1.6-1.5-2-3.1C827.9,359,827.9,359,827.4,360.4z"/>
	<path d="M619.2,614.3c-1.4,1.4-3.1,0.6-5.3,0.9c0.8-0.4,0.9-0.5,1.1-0.6C616.5,614.5,617.9,614.4,619.2,614.3L619.2,614.3z"/>
	<path d="M838.5,438.7c-1-0.1-1.5-0.8-1.9-2.1C838.5,437.2,838.5,437.2,838.5,438.7z"/>
	<path d="M749.9,519.6c-1.8,1.3-2.4,1-3-1.4C748.1,518.5,748.8,519.8,749.9,519.6L749.9,519.6z"/>
	<path d="M780.5,329.7c0.5,0.7,0.6,1.4,0,2.1C779.9,330.4,779.9,330.4,780.5,329.7z"/>
	<path d="M609.1,616c0.9-1.1,2-0.8,3.1-0.4c-1.1,0.1-2.1,0.2-3.2,0.3L609.1,616z"/>
	<path d="M619.3,614.4c0.9-1,2.1-0.6,3.2-0.8l-0.1-0.1C621.6,614.7,620.3,614.2,619.3,614.4L619.3,614.4z"/>
	<path d="M742.7,516.1c0.6-0.2,0.8,0.3,1.2,0.6C743.1,517.2,742.9,516.7,742.7,516.1z"/>
	<path d="M652.7,519.9c0.9-0.4,1,0.4,1.5,0.8C653.2,521.3,652.8,520.8,652.7,519.9z"/>
	<path d="M751.5,530.4c0.6-0.4,1.2-0.4,1.8,0C752.6,530.7,752.1,530.9,751.5,530.4z"/>
	<path d="M596.1,620.5c-1,0.1-1.5,0.1-2.6,0.1C594.5,620.1,595.1,620,596.1,620.5z"/>
	<path d="M755.5,541.1c0.3-0.7,0.8-0.8,1.5-0.4C756.5,541.2,755.9,541,755.5,541.1L755.5,541.1z"/>
	<path d="M756.3,546.7c0.2,0.5,0.8,0.9,0.3,1.4C756.5,547.6,756.4,547.1,756.3,546.7L756.3,546.7z"/>
	<path d="M598.7,619.2c0.5-0.5,1-1.1,2-0.1C599.8,619.1,599.2,619.1,598.7,619.2L598.7,619.2z"/>
	<path d="M604.1,617.5c-0.5,0.5-1,1.1-1.9,0.3c0.7-0.1,1.3-0.1,2-0.1L604.1,617.5z"/>
	<path d="M606.5,616.7c-0.6,0.9-1.5,0.7-2.4,0.8l0.1,0.1C604.7,616.6,605.8,617,606.5,616.7L606.5,616.7z"/>
	<path d="M621.3,554c0.1,0,0.4,0.4,0.3,0.5c0,0.4-0.2,0.8-0.7,0.7c-0.2,0-0.3-0.3-0.4-0.5C620.7,554.3,620.9,553.9,621.3,554z"/>
	<path d="M606.6,616.8c0.6-1.1,1.7-0.6,2.5-0.7L609,616C608.3,616.8,607.4,616.7,606.6,616.8L606.6,616.8z"/>
	<path d="M648.7,585.8c0.7,0.3,0.7,0.9,0.9,1.5l0.1-0.1c-0.8-0.2-0.7-1-0.8-1.5L648.7,585.8z"/>
	<path d="M584.4,584.8c-0.7,0.1-1.3-0.1-1.6-0.7l-0.1,0.1C583.3,584.2,584,584.1,584.4,584.8L584.4,584.8z"/>
	<path d="M694.2,598.5c0.2-0.4,0.4-0.8,1-0.3C694.8,598.3,694.4,598.3,694.2,598.5L694.2,598.5z"/>
	<path d="M569.1,608c-0.2-0.2-0.7,0-0.7-0.5C569,607.4,569,607.7,569.1,608L569.1,608z"/>
	<path d="M569,608.1c0.6,0.1,1.4-0.2,1.6,0.8l0.1-0.1C570.2,608.5,569.7,608.3,569,608.1L569,608.1z"/>
	<path d="M570.6,608.9c0.3,0.2,0.9-0.2,1.2,0.5C571.3,609.1,571,609,570.6,608.9L570.6,608.9z"/>
	<path d="M622.5,613.6c0.3-0.3,0.5-0.9,1.2-0.2c-0.5,0-0.9,0.1-1.2,0.1V613.6z"/>
	<path d="M715.6,615c0.1,0.5,0.3,0.9-0.3,1.3c-0.1-0.2-0.2-0.5-0.1-0.6C715.3,615.4,715.5,615.3,715.6,615L715.6,615z"/>
	<path d="M598.6,619.1c-0.2,0.7-0.4,0.9-1.1,0.3c0.5-0.1,0.8-0.1,1.2-0.2L598.6,619.1z"/>
	<path d="M569.1,622.8c-0.3-0.1-0.2-0.3,0.2-0.3c0,0,0.1,0.1,0.1,0.2C569.3,622.8,569.2,622.9,569.1,622.8z"/>
	<path d="M761.1,557.9c0.2-0.7,0.5-0.8,1.1-0.2C761.8,557.7,761.4,557.7,761.1,557.9L761.1,557.9z"/>
	<path d="M607.4,571.3c-0.2-0.2-0.6-0.4-0.3-0.9C607.2,570.8,607.2,571.1,607.4,571.3L607.4,571.3z"/>
	<path d="M609.1,573.6c-0.8-0.2-0.7-0.9-0.8-1.5l-0.1,0.1c0.2,0.5,0.5,1,0.7,1.5L609.1,573.6z"/>
	<path d="M609.8,575.4c-0.7-0.4-0.6-1.1-0.7-1.8l-0.1,0.1C609.5,574.2,609.7,574.8,609.8,575.4L609.8,575.4z"/>
	<polygon points="746.7,577.4 746.7,577.2 747,577.3 	"/>
	<path d="M765.1,580.9c-0.2-0.2-0.6-0.4-0.4-0.8C764.8,580.4,764.9,580.7,765.1,580.9L765.1,580.9z"/>
	<path d="M647.9,584.2c0.8,0.3,0.7,1,0.8,1.6l0.1-0.1C648.2,585.3,648.1,584.7,647.9,584.2L647.9,584.2z"/>
	<path d="M648,584.1c-0.3-0.2-0.8-0.4-0.3-1C647.8,583.5,647.8,583.9,648,584.1L648,584.1z"/>
	<path d="M673.4,511.8c0.4,0,0.5,0.1,0.3,0.2C673.7,512,673.6,511.8,673.4,511.8L673.4,511.8z"/>
	<polygon points="868.6,551.4 868.7,551.6 868.6,551.3 	"/>
	<polygon points="759.5,545.2 759.6,545 759.4,545.1 	"/>
	<path d="M673.5,511.7c-0.3-0.3-0.5-0.5-0.8-0.8l-0.1,0.1c0.5,0.1,0.7,0.4,0.8,0.8L673.5,511.7z"/>
	<polygon points="605,528.3 604.9,528.5 605.1,528.4 	"/>
	<path d="M672.8,510.9c-0.3-0.3-0.6-0.6-0.8-0.9l-0.1,0.1C672.3,510.2,672.5,510.5,672.8,510.9L672.8,510.9z"/>
	<path d="M856.6,534.8c0.4,0,0.4,0.3,0.2,0.2C856.2,534.8,856.8,535.2,856.6,534.8L856.6,534.8z"/>
	<path d="M832,362.7c-0.1-0.1-0.3-0.2-0.3-0.2C831.7,362.6,831.8,362.7,832,362.7L832,362.7z"/>
	<path d="M582.8,584.1c-0.1-0.1-0.2-0.2-0.2-0.2C582.5,583.9,582.6,584.1,582.8,584.1L582.8,584.1z"/>
	<path d="M838.1,388.6c0,0-0.1,0.2-0.2,0.2c-0.1-0.1-0.1-0.2-0.2-0.2C837.8,388.4,838,388.3,838.1,388.6z"/>
	<path d="M830.4,428c0.1,0.1,0.1,0.3,0.2,0.3c0-0.1,0-0.2-0.1-0.4L830.4,428z"/>
	<path d="M607.3,571.4c0.3,0.2,0.6,0.5,0.9,0.8l0.1-0.1C607.8,572.1,607.6,571.7,607.3,571.4L607.3,571.4z"/>
	<path fill="none" d="M261.3,623.7c-0.8-3.1-0.9-6.3-0.8-9.5c0.1-1.5,0.5-2.9,1.6-4c1.4-1.5,2.9-3,4.4-4.6c0.4-0.1,0.8-0.2,1.2-0.2
		c3.1,0.1,6-0.4,9-1.3c1.8-0.5,3.6-0.8,5.5-0.7c5.3,0.2,10.6-0.2,15.9-1c2-0.3,4-0.2,5.9-0.9c3.4-1.1,6.8-2.1,10.2-3.2
		c2.1-0.7,4.3-1.5,6.4-2c3.4-0.8,6.7-1.4,10.1-1.9c3.5-0.6,7.1-1,10.6-1.7c5.9-1.1,11.7-2.4,17.5-3.5c4.8-0.9,9.6-2,14.5-2.7
		s9.6-1.7,14-4.2c0.9-0.5,2-0.8,3-1c4.3-1,8.4-2.4,12.5-4.1c3.2-1.3,6.5-2.4,9.8-3.1c1.6-0.3,3.2-0.4,4.7-0.8c2.5-0.6,5-0.6,7.5-0.2
		c2.1,0.4,4.2,0.5,6.3,0.5c3.6-0.1,7.1,0.3,10.7,0.9c1.3,0.2,2.6,0.5,3.9,0.7c6.7,1.1,13.4,2,19.9,3.8c1.8,0.5,3.7,0.6,5.4,1.3
		c2.4,1,4.9,1.3,7.4,1.2c4.6-0.1,9.3-0.1,13.9-0.2c1.3,0,2.6-0.2,4-0.3c1.8-0.2,3.7-0.6,5.5-0.6c3,0,5.8-0.6,8.6-1.5
		c4-1.3,8-2.8,12.1-4c4.2-1.3,8.3-2.6,12.4-4.1c1.2-0.4,2.4-1.2,4-0.9c1.1,3.4,2.2,6.8,3.2,10.2c0.7,2.3,1.3,4.6,1.8,6.9
		c0.9,4.7,1.6,9.4,1.6,14.2c0,1.2,0.1,2.4,0.7,3.5c2.1,4.2,3.9,8.6,5.9,13c1.4,3.1,3.4,6,6,8c0.3,4.9-1.5,8.6-4.7,11.7
		c-0.7,0.6-1.3,1.3-2.1,1.9c-3,2.1-5.6,4.4-7,7.9c-5.9,1.5-11.8,2.2-17.8,1.4c-5.4-0.7-10.7-1.6-16-2.9c-2.8-0.7-5.7-1.4-8.6-1
		c-3.1,0.4-6.3,0.8-9.4,1.6c-3.8,1.1-7.6,1-11.4,0.1c-3.1-0.7-6.2-1.2-9.2-2.4c-0.7-0.3-1.6-0.2-2.3-0.3c-4.6-0.5-9.3-0.2-13.9-0.3
		c-0.4,0-0.8-0.1-1.1-0.2c-0.8-0.5-0.8-1.5-2.2-1.8c-0.6,0.1-1.6,0.2-2.7,0.3c-5.3,0.7-10.5,1.8-15.8,1.4
		c-6.1-0.4-12.2-0.9-18.2-1.5c-4.5-0.5-8.9-1.3-13.4-1.8c-5-0.5-10-1.2-14.9-2.3c-1.8-0.4-3.6-0.8-5.4,0.3c-0.8,0.5-2.1,0.3-3.1,0.2
		c-8.7-0.8-17.4-1.7-26.1-2.5c-4.6-0.5-9.2-1.2-13.8-2c-6.8-1.2-13.6-2.2-20.5-2.3c-4.6,0-9.3-0.6-13.8-1.3
		c-4.6-0.7-9.2-1.3-13.8-1.2c-7.8,0.1-15.6,0-23.5,0c-1,0-2.1,0.2-3.4-0.3C262.5,627.2,261.7,625.5,261.3,623.7z M535.2,579.8
		c0.9-0.2,1.9-0.4,1.9-1.8c-1.4-0.8-2.7-0.1-4.1,0.2c-2.7,0.7-5.3,1.5-8,2.2c-0.8,0.2-1.6,0.3-2.3,0.5c-1.6,0.5-3.2,1.1-4.4,2.4
		c-0.3,0.1-0.6,0.1-0.5,0.1c-0.1,0,0.2-0.1,0.4-0.2C523.9,582.1,529.7,581.4,535.2,579.8z M500.6,621.5c1.3,5.6,3.5,10.8,7,15.4
		c1.9,2.5,6.3,5.1,9.6,6c0.6-0.1,0.9-0.5,1.2-1.3c-2.4-3.2-6.5-4.1-9.9-6.2c-1.1-1.5-1.7-3.4-2.4-5.2c-1-2.9-2-5.7-3.1-8.6
		c-0.4-0.9-0.6-2.1-2-2.2C500.3,619.9,500.4,620.7,500.6,621.5z M453.6,625c-1.7,0.7-3.4,1.4-5.1,2.3c-4.4,2.3-9,3.8-13.9,4.6
		c-4.7,0.8-9.4,1.5-14.2,1.5c-0.9,0-1.8-0.1-2.9,0.8c5.3,0.6,10.2,0.5,15.2-0.1c7.9-1,15-4.4,21.9-8c0.3-0.1,0.3-0.6,0.5-0.9
		C454.6,624.7,454.1,624.8,453.6,625z M413.4,633.5c-7.1-0.8-14.3-0.9-21.4-0.9c-0.5,0-1-0.1-1.5,0.6c3.9,0.7,7.6,1.4,11.4,1.7
		c2.5,0.2,5,0.1,7.5,0.6c1.1,0.2,2.4,0.1,3.6,0.1c0.8,0,1.6-0.3,2-1.1C414.7,633.9,414.1,633.6,413.4,633.5z M479.7,630.6
		c-1,0-2.1,0.2-3.1,0.3c-3.2,0.5-6.5,1-9.7,1.6c-2.3,0.5-2.5,0.7-4.4,2.7c3.5,0.1,6.6-0.9,9.8-1.3c3.2-0.4,6.3-1.6,9.5-2.4
		C481.3,630.8,480.5,630.6,479.7,630.6z M274.8,614.2c-0.1,0.5,0.1,0.9,0.5,0.9c5.8,0,11.5,0.3,17.3-0.7c0.2,0,0.4-0.3,0.5-0.5
		C287.3,613.1,278.3,613.3,274.8,614.2z M499.7,634.9c0.4,0,0.8-0.1,0.9-0.5c0.2-0.5-0.2-0.8-0.5-0.9c-4.7-1.4-9.5-2-14.5-2.1
		C490.2,633,494.9,634.4,499.7,634.9z M503.7,587.8c2.8,1.3,5.2-0.1,7.6-0.8C508,586.2,507.3,586.2,503.7,587.8z M380.9,631.6
		c0-1.3-1-1.1-1.7-1.1c-2.5-0.1-2.7-0.1-3.8,1.2C377.3,631.9,379.1,632,380.9,631.6z M500.7,587.7c-1.9-1.3-3.4-1.3-5.5,0
		C497.4,588.8,498.9,588.5,500.7,587.7z M311.8,615.6c-1.4-1.3-3.1-1.3-4.7-1.7c-0.1,0.5-0.1,0.7-0.2,1
		C308.5,615.4,309.9,616.4,311.8,615.6z M482.1,586.5c1.8,1.7,1.9,1.7,4.3,0.8C485.1,586.3,483.7,586.5,482.1,586.5z M347.3,628.3
		c1.5,0.9,2.9,1.5,5.3,0.8C350.4,628.8,349.2,627.7,347.3,628.3z M298,615.5c1.6,0.8,2.6-0.1,4.1-0.9
		C300.3,614.5,299.1,614.5,298,615.5z M362.3,629.4c-0.6,0-1.3,0-2,0.6c1.8,0.5,3.4,0.4,5.7,0.1
		C364.4,629.2,363.3,629.4,362.3,629.4z M490,588.5c0.8,0.7,1.6,0.5,2.5,0.1C491.4,587.3,491.4,587.3,490,588.5z"/>
	<path fill="none" d="M782.8,552.1c0-0.2-0.1-0.2-0.2,0.3c-1.4-0.3-2.6,0.4-3.9,0.8c-2.8,0.8-5.7,1.1-8.8,0.7
		c-0.3-1.5-0.7-2.9-0.9-4.3c-0.3-2.2-0.7-4.5-1.6-6.6c-1.7-4.3-3.5-8.6-5.3-12.9c-1.2-2.7-2.7-5.2-4.4-7.5c-2.2-3.1-4.5-6.2-7.2-9
		c-1.8-1.8-3.2-3.8-4.3-6.2c-2.3-5.1-5.6-9.6-9.7-13.5c-1.6-1.6-3.2-3.2-4.8-4.8c-0.5-0.5-1.3-0.9-1.1-2c2.9-1.4,4.7-4.5,7.9-5.7
		c2.1,0.3,4.2,0.7,6.3,0.8c2.1,0.2,3.8,1.6,6.5,1.5c-3.4-3-7.5-2.8-11.1-4.5c1.1-2.3,2.5-4.1,4-5.8c3.4,0.8,6.3,2.4,10,3.1
		c-3.3-2.1-6.3-3.4-9.7-4.2c0.2-0.8,0.2-1.5,0.5-2.1c0.7-1.6,1.1-3.2,1.3-4.9c0.3-2.3,0.6-4.7,1.6-6.9c3-6.4,3.1-13.1,1.7-19.8
		c-0.6-2.8-1.4-5.6-2.2-8.5c-0.5-1.9-0.9-3.9-0.8-5.9c0.1-3.2-0.5-6.3-1.1-9.5c-0.7-3.2-1.1-6.5-1.2-9.9c-0.1-1.7,0-3.5-0.4-5.2
		c-0.7-3-0.8-6.1-0.7-9.1c0.4-6.9-0.2-13.8,0.2-20.7c0.4-7,1.9-13.6,4.2-20.1c1.1-3.2,2-6.6,3.7-9.6c0.3-0.5,0.5-1,0.5-1.5
		c0.3-2.8,1.2-5.4,1.2-8.2c0.1-2.4,0.4-4.8,1.3-7c1-2.6,2.1-5.2,3.1-7.8c0.9-2.3,2-4.3,4.3-5.9c3.5-0.2,5.9-2.8,8.5-5
		c0.1-0.9,0.3-1.6,0.4-2.4c4.4-3.2,8.4-7.3,14.5-8c-0.2,0.4-0.3,0.5-0.4,0.6c-0.7,0.6-1.4,1.2-2.2,1.8c-6,4.7-9.6,11.2-13.3,17.7
		c-0.3,0.5-0.4,1-0.6,1.5c-2.3,7-3.6,14.1-3.4,21.5c0.2,6.5,0.9,13,2,19.4c1.7,10.5,5.1,20.3,11.6,28.9c1.5,2,3.3,4,4.3,6.2
		c1.5,3.5,3.9,5.5,7.7,6.4c0,0.8,0,1.6,0,2.4c0,4.2,0.3,8.5,0.9,12.7c0.4,2.9,1.4,5.7,1,8.6c-0.1,0.8,0.4,1.8,0.8,2.6
		c1.7,3.4,3.1,6.9,5.6,9.9c2.6,3,4.8,6.4,7.1,9.6c1.8,2.5,3,5.2,2.7,8.5c3.2,6,5.6,12.2,7.3,18.8c0.5,1.9,1,3.8,1.6,5.7
		c1.1,3.6,2.8,6.9,5.5,9.6c1.2,1.2,2.6,2.2,4.2,3.6c3.5,15,6.2,30.5,11.1,45.3c-0.7,3.3-2.5,5.8-4.6,8c-2,2.1-4.2,4-6.2,6.2
		s-4.3,3.9-6.7,5.5c-3.3,2.2-6.3,4.7-9,7.7s-5.5,6.1-9.2,8.1c-2.9,1.6-5.3,3.9-7.6,6.3c-0.2,0.8-0.4,1.6-0.6,2.3
		c-2.2,1.4-4.3,2.8-6.4,4.1c-0.9,0-1.9,0.1-2.8,0.1c-3.5,2-7.6,2.8-10.9,5.5c-0.2-0.6-0.4-1-0.4-1.4c-2-9.3-2.9-18.8-3.8-28.3
		c-0.1-1-0.4-2.1,0.4-3c4.4,0,8.3-1.4,11.4-4.6C782.6,552.2,782.9,552.1,782.8,552.1z M766,416.4c-0.1-0.1-0.2-0.2-0.3-0.2
		c0-0.5-0.3-0.8-0.8-0.8c-0.3-2.3-1.1-4.3-2.6-6c-0.8,0.1-1.1,0.5-0.9,1.1c0.6,2,1.1,4.1,3.5,4.9c0.1,0.4,0.3,0.7,0.8,0.8
		C765.9,416.2,766,416.3,766,416.4z M759.2,482c-0.2,0,0.1,0,0.4,0.1c0.4,1.2,1.5,0.7,2.3,0.8c0.3,0.3,0.4,0.8,1,0.3
		c-0.4-0.1-0.8-0.1-1.1-0.2c-0.5-1-1.4-0.7-2.2-0.9C759.3,482.1,759,481.9,759.2,482z M812.5,473.1c0,0,0,0.2,0,0.3
		c0.1,0.1,0.2,0,0.4,0.1c0,1.1,0.6,1.5,1.6,1.5v0.2l-0.1-0.2c-0.4-0.7-0.6-1.6-1.6-1.5C812.8,473.1,812.7,473,812.5,473.1z
		 M754.9,471.2c1.6,1.5,1.6,1.5,3.9,2.2c0,0.8,0.7,1.1,1.2,1.4c2.7,1.6,5.6,2.7,8.8,4.2c-0.4-0.6-0.5-0.8-0.6-0.9
		c-3.1-1.7-6.1-3.6-9.5-4.6C757.1,472,757.1,472,754.9,471.2z M757.6,396.2c-0.7-2-1.5-4-2.2-5.9c-1.8-4.6-2.7-9.4-2.9-14.3
		c0-0.8-0.3-1.6-0.4-2.5c1.4-4.8,3.5-9.5,4.4-14.6c0-0.2-0.2-0.4-0.3-0.7c-0.6,0-1,0.3-1.2,0.8c-1.8,4.4-3.2,9-4.3,13.6
		c-0.1,0.5-0.1,1.1-0.2,1.6c-2.1,6.7-0.8,13.1,2.4,19.1c1.9,3.8,4.1,7.4,6.2,11.1c0.2,0.3,0.5,0.6,1,1.2
		C759.3,402.2,758.7,399.2,757.6,396.2z M768,467.6c-2.9-0.5-5-1-7.1-1.3c-2.2-0.4-4.2-1.5-6.6-1.1
		C758.4,467.1,762.6,468.2,768,467.6z M800.6,456.7c-1,0.1-0.9,0.6-0.8,1.1c0.3,1.2,0.9,2.2,1.8,3.1c1.4,1.4,2.8,2.7,4.2,4.1
		C804.7,461.6,801.9,459.7,800.6,456.7z M758.7,347c-2.6,4-2.9,5.9-1.1,8.7C758,352.6,758.3,350.1,758.7,347z M779.3,424.2
		c0.7,1.9,0.8,1.9,3.8,2.1C781.8,425,780.6,424.5,779.3,424.2z M786.4,550.5c1.6,0.8,2.4,0.2,3.3-0.9
		C788.3,548.8,787.5,549.5,786.4,550.5z M774.9,422.8c0.4,1.5,0.4,1.5,2.4,1.8C776.6,423.8,775.9,423.1,774.9,422.8z M768.5,418.8
		c0.5,0.9,1.2,1.3,2.6,0.9C770.3,418.9,769.6,418.2,768.5,418.8z M792.7,545.4c0.9,0.3,0.9,0.3,2.2-0.7
		C793.8,544.3,793.2,544.6,792.7,545.4z M760.8,337.4c-1.1,0.5-1.3,1.2-0.9,2.1C761.1,339.1,761.1,338.4,760.8,337.4z M764,445.5
		c-0.5,0.7-0.3,1.2,0,2C764,446.7,764,446.2,764,445.5z M771.5,468.2c-0.3-0.1-0.7-0.3-1,0.1C770.8,468.4,771.2,468.6,771.5,468.2z
		 M763.1,443.4c0-0.2,0-0.4-0.1-0.6C763.1,443,763.1,443.2,763.1,443.4z M800.2,541.7c0.4-0.1,0.4-0.2,0.1-0.4c-0.1,0-0.2,0-0.3,0.1
		c-0.1,0-0.1,0.1-0.1,0.2S800.1,541.7,800.2,541.7z"/>
	<path fill="none" d="M304.2,561c7.1,0.4,14-0.7,20.9-1.7c6.3-0.9,12.7-1.1,18.8-2.9c0.4-0.1,0.8-0.1,1.2-0.2c5.5-1,11-1.8,16.5-2.7
		c8-1.3,15.9-2.7,24-3.6c6.6-0.7,13.1-1.6,19.6-3.2c1-0.3,2.1-0.7,3.1-0.7c4.4,0,8.7-0.4,13-1.2c0.3,0,0.5-0.1,0.8,0
		c2.8,0.1,5.6-0.3,8.3-0.5c3.4-0.3,6.9-0.2,10.3-0.9c0.8-0.2,1.6,0,2.4-0.1c3.5-0.2,6.9,0.4,10.3,0.4c5.9-0.1,11.6,1.2,17.2,2.6
		c5,1.2,9.9,2.8,15.1,3.4c2.1,0.2,4.2,0.5,6.3,0.7c4.2,0.4,8.5,0.5,12.6,1.4c0.8,0.2,1.6,0.1,2.4,0c4-0.3,7.9-0.6,11.9-0.9
		c1-0.1,2.1-0.3,3.1-0.6c4.1-1.3,8.4-1.3,12.5-2.5c0.5-0.1,1.1-0.1,1.6-0.1c1.6,0.1,3.2-0.2,4.7-0.7c1.2-0.4,2.5-0.7,3.7-1
		c1.6,1.7,1.8,2,1.3,3.5c-0.7,2.1-0.5,4.2,0,6.3c0.2,0.9,0.5,1.8-0.3,2.6c-7.8,1.1-9.5,1.8-11.2,4.6c0.9,1.1,3.2,1.1,2.6,3.4
		c-1.8,0.4-3.6,0.7-5.4,1.3c-8.2,2.6-16.4,5.3-24.6,8c-2.9,1-5.9,1.5-9,1.5c-1.7,0-3.4,0-5.2-0.1c-0.7,0-1.5-0.2-2,0
		c-1.7,0.9-3.4,0.4-5.1,0.3c-4.2-0.1-8.5-0.2-12.7-0.3c-3.2-0.1-6.3-0.4-9.4-1.4c-2.6-0.9-5.3-1.8-7.9-2.6c-2.3-0.7-4.5-1.7-6.9-1.7
		c-0.8,0.2-1.2,1.1-2.8,0.9c0.3,0-0.1,0-0.5-0.1c-4.8-1-9.6-1.9-14.6-1.8c-0.7,0-1.3-0.2-2-0.2c-8.6-1-16.9-0.1-25,2.9
		c-2.4,0.9-4.6,1.9-7.3,1.8c-0.9,0-1.8,0.3-2.7,0.6c-7.7,2.8-15.8,4.6-23.7,6.6c-1.8,0.4-3.8,0.7-5.2,1.9c-1.3,1.2-2.7,1.5-4.3,1.8
		c-4.3,0.8-8.6,1.6-12.9,2.3c-4,0.7-8,1.7-12.1,2.2c-6.6,0.8-13.1,2.2-19.4,3.9c-1.3,0.4-2.6,0.4-3.9,0.3
		c-6.9-0.7-13.8-0.4-20.7-0.4c-3.3,0-6.6,0.4-9.7,1.9c-1.1,0.6-2.4,0.9-3.5,1.3c-0.7-0.6-0.8-1.3-1-1.9c-0.2-0.8,0.9-1.4,0.3-2.6
		c-1.5-1.6-2.9-3.6-3.2-6.5c2.2-5.4,5.1-10.6,9.8-14.7c2.6,0.2,4.1-1.3,5-3.6c0.2-0.5,0.6-0.9,0.7-1c3.5-1.3,7.2-0.8,10-2.4
		c1.1-1.2,1.5-2.5,3-3.4C303.7,561.1,304,561,304.2,561z M298.6,569c-3,0.5-6,1-9,1.6c-0.2,0-0.4,0.3-0.6,0.5c0,0.9,0.7,1,1.3,1.1
		c2.3,0.2,4.5-0.4,6.6-1c1.6-0.5,3.2-1.1,4.6-2.1l0.1-0.1l-0.1,0.2C300.7,568.8,299.7,568.8,298.6,569z M503.4,559.4
		c1.4-0.7,2.5-1.8,3.6-2.5c0.4-1.4-0.2-1.8-1.1-1.8c-0.5,0-1.1,0.2-1.5,0.4c-2.4,1.7-4.1,3.8-5.5,7.3
		C500.9,561.5,501.9,560.2,503.4,559.4z M307.6,566.4c2,0.6,3.8,0.1,5.8-1.3c-2-0.8-3.6,0.1-5.4,0
		C307.8,565.8,307.8,566,307.6,566.4z M328.2,560.9c0.4,1.1,1.2,0.8,1.9,0.8c0.7,0,1.2-0.4,1.4-1.2
		C330.3,560.3,329.2,560,328.2,560.9z M323,563.1c-1.9-0.9-3-0.1-4.4,0.7C320.3,564.7,321.4,563.6,323,563.1z"/>
	<path fill="none" d="M824.7,254.6c0.2-0.2,0.4-0.3,0.6-0.5c-0.2-0.2-0.4-0.3-0.6-0.5l0.1,0.1c0.1-0.4,0.1-0.8,0.2-1.3
		c-2.9,0.2-5.6,1.3-8.4,2c-2.9,0.8-6.1,0.8-8.2,2.5c-3.9,0.3-7-0.7-9-3.8c-0.4-0.7,0.1-1.6-0.6-2.3c-0.9-0.2-1.2,1.1-2,1
		c-0.7,0-1.4-0.9-2.2-0.1c-0.5,1,0.3,2.3-0.8,3.7c-2.2,1.7-5.1,2.4-8.2,3.4c-2.3-0.8-4.8-0.3-7.3,0.2c-1.4,0.3-2.9,0.6-4.3,0.8
		c-1.9,0.3-3.7-0.3-5.2-1.5c-2.3-1.6-3.7-3.8-4.1-6.6c-0.4-2.5-1.1-4.9-2-7.3c-0.1-0.3,0-0.8,0.1-1.4c4.1-1.9,8.3-3.9,12.6-5.9
		c1.8,0.5,3.8,0.8,5.6,1.6c2.6,1.2,5.3,1.5,8,2c0.5,0.1,1-0.2,1.1-0.8c-0.1-1.4-1.9-1.5-2-2.9c0.1-0.3,0.3-0.6,0.4-1
		c4.2-1.6,4.2-1.6,4.8-3c-2.7-0.1-5.4,0.2-7.6-1.3c-4.2-4.2-6.1-9.4-7.1-15s-1.4-11.3-1.5-17c-0.1-3.6,0-7.2,0-11
		c-0.4-1.5-2-2.9-1.6-5c1.6-1.3,3.5-2.4,4.7-4.2c1.1-1.8,1.8-3.7,1.5-5.8c-1.4-0.1-1.6,1.7-2.8,1.4c0.2-2.2,1.2-4.4,4.1-8.8
		c0.7,0,1.5,0,2,0c1.3-0.4,1.9-1.7,3.1-1.9c1,0.9,1.5,2,2.6,2.5c4.3,2.1,8.3,4.8,13,5.9c2.5,0.6,4.2,2,5.8,4
		c0.1,0.6,0.2,1.3,0.2,1.9c0.3,3.1,2,5.1,4.9,6.1c1.6,0.5,3.3,0.9,5,1.2c4.3,0.9,8.5,1.8,12.7,3.2c1.6,0.6,2.8,1.4,3.3,3.3
		c-0.1,0.4-0.2,0.9-0.3,1.4c-0.1,0.4-0.3,0.8-0.6,1c-1.9,1.3-2.9,3.4-4,4.9c-1.2,0.7-2.4-0.7-3.3,0.7c0,1.2,0.6,2.1,1.8,2.8
		c1.8,0.5,3.4,0.1,5.2-1.5c0.7-0.4,0-2,1.4-2.8c1.3,1.3,3,2,4.6,3c1.8,4.1-1.1,7.1-2.3,10.5c0,1.1,0.3,2.1,1.5,2.4
		c1.2-0.4,1.7-1.3,1.9-2.4c0.2-0.9,0.2-1.8,0.3-2.7c0.1-0.4,0.4-0.7,0.6-1c1.2-0.3,2.4-0.4,3.6,0.1c0.3,0.5,0.8,1,1.1,1.5
		c0.3,0.6,0.6,1.2,0.7,1.8c0.6,2.8,2.2,4.8,4.9,5.8c0.9,0.3,1.7,0.7,2.5,1.1c0.4,0.2,0.7,0.4,1.1,0.6c0.7,0.9,1.4,1.8,1.9,2.5
		c0.6,2.1,0.2,3.7-0.6,5.3c-0.9,1.9-2,3.7-3.4,5.4c-1.5,1.8-3.3,3.4-4.1,5.8c-0.2,0.5-0.6,0.9-1,1.2c-1.1,0.7-1.6,1.7-2.1,2.8
		c-0.8,2.1-1.7,4.2-2.4,6.3c-0.5,1.6-1,3.4-0.8,5.1c0.3,3.7,0.1,7.4,1.2,11c0.3,1,0.6,2.1,0.7,3.1c0.3,2.5,0.7,4.9,0.3,7.5
		c-0.3,2.1,0,4.2,0.1,6.3c0,2.8,0,5.6,0,8.5c1.3,1.6,2.3,3.4,1.8,6c-1.4-0.9-2.5-1.5-3.6-2.2c-2.6-1.6-5.3-2.9-8.2-4
		c-1.9-0.7-3.8-1-5.8-1c-2.9,0.1-5.9,0.2-8.7-0.1c-5.6-0.5-11.1-0.7-16.7-0.6c-1.8,0-3.4-0.3-4.6-0.9c-3.8-0.2-6.5,2.4-9.9,2.2
		c-1.9,1.7-4.6,1.1-6.7,2.1c-3.5-0.2-6.4,1.5-9.2,3.2c-0.6,0.3-1,0.8-1.8,0.6l0.1,0.1c0.9-2.4,2.6-4.5,3.3-6.9
		c0.9-0.7,2-0.7,2.6-1.8c0.1-2.7,1.1-5.4,1.9-7.6c0.1-1.5-0.7-2.5,0-4.1c0-1.3,2.4-0.6,2.9-2.1c-0.3-0.6-0.6-1.2-0.9-1.8
		c0.6-0.6,1.8-0.6,2-1.8c0-1.7-1.5-2.3-2.4-3.3l-0.1,0.1c0.8-0.4,1.9,0,2.7-0.9c0.1-0.2,0.2-0.6,0.3-0.8c-0.1-1.3-1.6-1.5-1.6-2.6
		c0.5-0.3,0.9-0.5,1.2-0.6c2.2-0.5,4.4-0.8,6.5-1.5c2.2-0.7,4.1-2.2,5.8-3.5c1.6,0.5,1.1,2.3,2.3,2.9c1.6,0.5,3.3,0.9,5,1.2
		c1.2,0.3,2.4,0.2,3.5-0.4c1.7-1,3.5-1.1,5.3-1.3c1.4-0.1,2.9-0.3,4.3-0.7C820.4,257.7,823,256.7,824.7,254.6L824.7,254.6z
		 M833.4,274.2c0,0.1,0.1,0.1,0.1,0.2c0.1,0.1,0.2,0.2,0.4,0.3c0-0.1-0.1-0.2-0.1-0.2c-0.1,0-0.2,0-0.3,0
		C833.4,274.4,833.4,274.3,833.4,274.2z M809.6,283.9c0-0.7-0.1-1.3-0.9-1.5C808.6,283.3,808.6,283.3,809.6,283.9L809.6,283.9z
		 M767.9,250.4c0.6,2,1.4,4.1,1,6.5c1.8,1.4,4,0.9,6,0.7c0.7-0.1,1.6,0,1.8-1.2c-1.4-1.1-3.4-0.2-4.8-1.5c-0.7-0.8-0.5-1.7-0.4-2.5
		c0.4-0.2,0.6-0.5,0.9-0.5c2.6-0.1,4.8,1.1,7,2.5c0.3-0.3,0.4-0.5,0.6-0.6c-2.2-3-3.7-3.8-9.2-5.1c-0.6-1.1-1.3-2.3-1.9-3.4
		c0.4-1,1-1.1,1.7-1.1c1.2,0,2.4-0.4,3.6,0.1c1.1,0.8,1.2,2.2,2,3.3c0.7,1,1.5,1.9,2.2,2.8c1,0.4,2,0.8,2.8,1.1
		c0.8,0.6,0.5,1.7,1.4,2.1c0.2,0,0.5,0.1,0.7,0.1c2-0.8,3.1-2.4,4.2-4.1c0.5-0.7,0.5-1.5,0.4-2.3c-0.2-1.4-1.4-2.3-2.8-2.2
		c-1,0.1-1.5,0.4-3.3,2c-1,0.2-2.1,0.2-3.1-0.1c-1-0.7-1.3-1.9-1.6-2.8c-0.1-1.3,2.3-1.4,1.3-3c-0.3-0.1-0.5-0.3-0.8-0.2
		c-2,0.2-3.9,0.5-5.9,0.6c-1.7,0.1-3.4,0.5-5.1,0.9c-0.8,0.2-1.5,0.6-1.8,2C765.8,246.5,767.3,248.3,767.9,250.4z M803,180.2
		c-1.7-0.2-3,0.7-4.1,1.9c-3.6,3.7-7.1,7.5-9.3,12.2c-0.5,1.1-0.9,2.2-0.8,3.4c0.1,1.3,0.2,2.6,0.3,3.8c0.6,0.5,1.1,0.3,1.4-0.1
		c0.7-0.8,1.4-1.6,2-2.3c0.1-0.5,0.3-0.9,0.3-1.3c0.1-3.3,1.7-5.7,4.2-7.7c2-1.5,3.9-3.2,5.8-4.8c0.7-0.6,1.4-1.2,1.8-2.4
		C804.5,181.7,804.1,180.8,803,180.2z M806.7,189.1c-0.5-0.5-0.3-1.6-1.6-1.8c-3,3.5-4.5,7.6-4.8,12.3c0.4,0.7,0.9,0.9,1.6,0.7
		c1.4-0.6,1.3-2.2,2.2-3.3c1-0.6,2.1-1.3,3.1-1.9c1.1-1.5,1-3.1,1.5-4.1C808.3,189.5,807.2,189.6,806.7,189.1z M792.5,261.2
		c-0.4,0.4-0.4,0.9-0.2,1.5c1.1,2.7,3.3,5.5,5.5,7.2C796.6,266.3,794.4,262.6,792.5,261.2z M821.3,260.2c-0.8,0.7-0.3,1.2,0,1.4
		c0.9,0.7,2,1.3,2.9,1.9s1.8,1.2,3.5,2.3C825.6,263,823.8,261.1,821.3,260.2z M804.2,279.2c-0.6-2.2-0.6-2.2-2.4-3.3
		C801.7,277.5,801.7,277.6,804.2,279.2z M808.6,231.6c0.1-0.7-0.3-0.9-0.9-0.9c-1,0.1-2.1,0.1-2.6,1.2
		C806.6,233.1,806.6,233.1,808.6,231.6z M802.1,233.6c-1.4-1.6-2.6-1.3-3.5,0.7C800,235.2,801,234.3,802.1,233.6z M829.2,251.9
		c0.4-0.2,0.8-0.5,0.9-1c0-0.1-0.2-0.2-0.3-0.2c-0.5,0-0.9,0.2-1.2,0.7c0,0.1,0,0.2,0,0.3C828.8,251.7,829.1,251.9,829.2,251.9z
		 M830.7,270.9c0.1-1.1,0.1-1.1-1.1-1.2C829.6,270.5,830.2,270.7,830.7,270.9z M811.8,280.3c0.2,0.1,0.3,0.2,0.5,0.3
		c0,0,0.1-0.2,0.2-0.2c-0.1-0.1-0.2-0.1-0.3-0.2C812,280.2,811.9,280.2,811.8,280.3z"/>
	<path fill="none" d="M250.6,562.3c-1.2-1.8-2.7-3.3-4.2-4.8c-0.7-0.7-0.9-0.6-2.4-0.1c-0.4,0.9,0.1,1.6,0.6,2.2
		c3.6,4.6,7.2,9.1,10.8,13.7c0.1,0.1,0.2,0.1,0.4,0.2c0.8-0.1,1.1-0.6,1-1.3c-0.1-0.8-0.3-1.6-0.5-2.3c3.7,5.8,7.3,11.7,9.5,18.3
		c0.6,1.9,1.8,3.5,3.2,5.1c0.5,0,1,0.1,1.6,0.1c0.9,1.3,2.1,2.2,3.6,2.6c0.2,1.2,1,2.1,0.2,3.1c-3.2,1.6-6.5,1.2-9.6,0
		c-1.5,1-2.9,1.5-4.5,1.9c-2.7,0.6-5.4,1.3-7.6,3c-1.1,0.8-2.5,0.7-3.6,1.2c-2.5,2.7-4.9,5.4-7.4,8.1c0.6,3-0.6,5.8-0.6,8.5
		c1.2,4.5,5.4,6.7,7,10.4c1.8,0.8,3.4,1.4,4.9,2.2c1.7,0.8,3.5,1.3,5.4,0.7c2.6-1.9,5.5-3,8.9-2.8c2,0.1,4-0.1,6-0.1
		c1,0,2.1-0.2,3.3,0.5c-6.2,0.7-11.5,3.8-17.5,5c-3.6-1.8-7.1,0-10.7,0.4c-0.8,0.4-1.2,1.2-2.1,1.3c-3.3-0.2-6.6-0.5-9.9-0.8
		c-1-0.1-2.1-0.5-2.9-1.1c-1.8-1.3-3.8-1.8-5.8-2.5c-1.8-0.6-4-0.4-5.5-1.9c-2.7,0.1-4.3-1.8-6.1-3.3c-1.4-1.1-2.8-2.4-4.4-3.1
		c-1.9,0.5-1.9,0.5-2.3,1.3c-0.4,1.1,0.5,2.1,0.2,3.1c-1.1,0.4-2.3,0.4-3.2-0.1c-2.5-1.4-5.2-1.7-7.9-1.7c-0.6,0.2-0.7,0.9-1.4,0.7
		c-0.4-0.1-0.8-0.2-1.1-0.3c-4.7-1.6-9.4-3-14.3-3.2c-5.1-0.2-10.3,0-15.3-1.2c-0.8-0.2-1.8,0.2-2.7,0.3c-1.5-0.6-3-1.1-4.4-1.6
		c-1.3-2.6-1.5-5,0.4-7.5c1.7-0.7,2.9-2.3,3.6-4.2c0.3-0.7,0.7-1.4,1.2-2.1c1.5-2,2.9-4.1,4-6.4c0.5-1.1,1.2-2.1,2.2-2.8
		c3.3-2.4,6.5-5,10.3-6.8c1.8-0.8,3.5-1.8,4.6-3c4.9-1.7,9.6-2.3,14.4-1.3c2.3,0.5,4.5-0.4,6.6-1c1.5-0.5,2.5-1.6,2.5-3.2
		c0-1.7,0.7-3.1,1.2-4.6c1.5-3.9,3.1-7.9,4.7-11.7c3.7-4,8.2-6.8,13.3-8.6s10.3-3.3,15.5-4.9c1.4-0.4,2.8-1,4-0.5
		c3.9,3.7,5.1,8.9,8.2,12.6c0.1,0.9,0.2,1.5,0.2,2.2C254.1,567.6,252.3,564.9,250.6,562.3z"/>
	<path fill="none" d="M885.9,355.1c1.6,4.5,3.2,9,4.7,13.5c0.2,0.6,0.3,1.3,0.4,1.9c0.6,3,1.1,6,1.6,9c0.2,1,0.4,2.1,0.3,3.2
		c-0.1,7.6-0.1,15.1-1.5,22.6c-0.6,3.3-1.5,6.5-2.1,9.7c-1.1,6.3-3.7,11.9-6.7,17.3c-0.8,1.5-1.6,3-2.4,4.6
		c-0.6,1.2-1.1,2.5-0.8,3.8c0.3,1.6-0.3,2.9-1,4.2c-0.8,1.4-1.6,2.7-2.6,4.3c-1.2-2.7-0.9-5.7-2.8-7.8c0.2-2.2,0.4-4.1,0.7-6.1
		c0.5-3.8,0.5-7.7,0.1-11.5c-0.5-4.9-1.1-9.7-1.3-14.6c-0.1-3-0.6-6.1-1.1-9.1c-0.7-3.9-1.5-7.8-2.3-11.7c0.8-1.8,2.3-3.2,3.7-4.5
		c2.4-2.2,4.2-4.8,5.6-7.6c2.6-5,4.2-10.3,4.8-15.9c0.3-2.4,0.5-4.7,0.8-7.3C885.4,353.3,885.6,354.3,885.9,355.1z"/>
	<path fill="none" d="M915.7,567.1c0.3,0.1,0.7,0.1,0.7,0.2c1.1,2.6,3.3,3.1,5.7,3.5c4.3,0.8,8.5,2.1,12.6,3.5
		c2.3,0.8,4.5,1.4,6.6,2.6c1.6,0.9,3.4,1.6,5.3,1.6c3.4-0.1,6.4,1.3,9.6,1.9c-0.9,2-2.6,1.1-4.1,1.4c-0.8,3.3-4.2,2.6-6.2,4.1
		c-2.7-0.4-5.1-1.1-7.6-1c-3.5,0.1-6.8-0.4-9.9-2.2c-0.8-0.5-1.7-0.7-2.6-0.8c-1.9-0.2-3.6-0.7-5.3-1.3c-0.3-0.7-0.7-1.2-0.9-1.9
		s-0.9-1.4-0.2-2.3c3.4,0.1,6.9,1.8,10.3,0.1c1.8,0.2,3.2,0.7,4.5,1.8c0.7,0.6,1.6,0.9,2.5,1.2c4.2,1.7,8.5,3,12.9,3.6
		c0.7-0.3,1.3-0.4,1.5-1.5c-1.3-0.5-2.6-1.1-3.9-1.5c-3.3-1-6.6-1.9-9.9-2.9c-0.6-0.2-1.3-0.4-1.8-0.8c-2-1.5-4.4-1.8-6.8-1.8
		c-3.7,0.1-7.3-0.6-11.1-1.1c-1-2.1-1.9-4.1-2.9-6.4C915.5,567.1,915.6,567,915.7,567.1z"/>
	<path fill="none" d="M257.8,624c0.7,1.7,1.4,3.4,2.1,5.1c0.1,0.2-0.1,0.5-0.2,0.7c-0.7-0.4-1.4-0.7-2-1.1c-1.7,1.1-3.6,1-5.3,1.3
		c-2.9-1.1-4.9-3.1-7-5.5c0.7-1.7,0.5-3.5,0.5-5.4c-0.1-2.5,0.7-4.7,2.4-6.5c1.3-1.5,2.6-3,4-4.4c1.6-1.7,3.4-2.5,6.4-3
		c-1.8,4.2-3.1,8.4-4,12.8C256.5,620,257,622.1,257.8,624z"/>
	<path fill="none" d="M1028.3,635.5c-3.9-0.8-7.8-1.7-11.7-2.5c-2.1-0.4-4.1-1.1-6-2.1c-3.3-1.8-7-2.5-10.7-2.4
		c-1.2,0-2.4,0-3.6,0.1c-2.9,0.2-5.8-0.3-8.7-0.8c-0.6-0.1-0.9-0.4-0.8-1.3c4,0.1,8.1-0.8,12.1,1.2c1-0.2,2-0.5,3.1-0.3
		c2.2,0.5,4.5,0.5,6.7,0.5c2.9,0,5.5,0.6,7.9,2.2c2,1.3,4.3,2,6.6,2.6c2.4,0.6,4.9,1.2,7.6,1.8
		C1030.1,635.9,1029.2,635.7,1028.3,635.5z"/>
	<path fill="none" d="M275.4,568.2c1.2,0.1,2.4,0.5,3.7,1.2c-3.5,3.8-6.1,7.9-8,12.5c-2.6-0.9-3.2-3.1-4.1-5.2
		C268.6,573,271.4,570.3,275.4,568.2z"/>
	<path fill="none" d="M205.9,585.3c-3.6,1.2-7.2,0.6-10.9,0.5c0.3-0.7,0.3-1.1,0.6-1.3c3.2-2.6,6.3-5.2,9.1-8.2
		c0.9-0.9,2-1.2,3.5-1.2C209.1,578.9,206.3,581.8,205.9,585.3z"/>
	<path fill="none" d="M301.3,598.9c-7.1,0.7-14.1,1.9-21.3,1.3c-0.4,0-0.7-0.3-1-0.4c0-0.3,0-0.6-0.1-1c2.6-0.7,5.5-0.2,8.1-1.2
		c5,0,10,0,15,0c0.5,0,1-0.1,1.4,0.4C302.8,598.7,302,598.8,301.3,598.9z"/>
	<path fill="none" d="M785.4,158.9c2.3-4.8,4.4-9.6,3-15.2c0-0.1,0.1-0.2,0.2-0.3c0.2,0.1,0.5,0.1,0.6,0.3c1.3,1.8,1.7,3.8,1.4,6
		c-0.3,2-0.9,3.9-1.6,5.7c-0.8,2.1-1.6,4.2-1.8,6.4c-1,1.3-1.6,2.8-3.3,3.4C784,162.3,784.4,160.9,785.4,158.9z"/>
	<path fill="none" d="M738,505.4c0.9,1.3,2.2,2.2,3.1,3.9c-1.7,0.6-3.2,1-4.5,1.5c-0.5-0.3-0.8-0.4-0.9-0.6c-1-1.5-2-3.1-2.9-4.7
		c-0.3-0.4-0.6-0.8-0.4-1.6C734.3,504.4,736.1,504.9,738,505.4z"/>
	<path fill="none" d="M922.4,583.8c1.8,0.1,3.6,0.3,5.5,0.4c-0.4,1.6,0.5,2.8,0.6,3.8c-1,1.1-1.8,2.1-2.9,3.3
		C923.5,588.1,922.9,586.7,922.4,583.8z"/>
	<path fill="none" d="M765.4,154.7c0.9,0.4,1.8,0.8,2.6,1c0.7,0.2,1.3,0,1.8-0.6c0.3-1.9,0.3-1.9,0.9-2c0.9,0.6,1.9,1.2,2.3,2.5
		c-0.1,1.1,0.1,2.4-1.4,3.2c-2.8-2.3-5.7-2.3-8.6,0.2C763.4,157.2,764.1,155.8,765.4,154.7z"/>
	<path fill="none" d="M735.1,214c-0.9,0.4-1.1,1.6-2.3,1.8c-0.8-1.3-1.8-2.6-1.7-4.3c1.2-0.6,2,0.1,2.9,0.1c1,0,2.1-0.7,3.1,0.3
		c0,0.3,0.1,0.7,0.1,0.9C736.7,213.8,735.7,213.7,735.1,214z"/>
	<path fill="none" d="M733.3,495.8c0.6,0.6,1.2,1.4,1.9,2.1c-0.3,0.7-0.4,1.4-1.2,1.7c-2.1,0.4-4.1-0.3-5.9-1.4
		c-0.4-0.3-1.1-0.7-0.6-1.5c1.7,0.3,3.3,1,5,0.9c-0.1-1.1-1.2-0.8-1.8-1.7C731.7,495.7,732.4,495.4,733.3,495.8z"/>
	<path fill="none" d="M770.8,199.4c0.2-1.6,0.5-3.1,0.9-4.6c0.1-0.5,0.4-0.9,1-0.9c0.4,4.6,0.3,6.9-0.5,9.3
		C770.8,202.2,770.7,200.8,770.8,199.4z"/>
	<path fill="none" d="M770.7,177.6c-0.6-0.7-0.4-1.6,0-2.2c1-1.2,1.7-2.6,2.4-4c0.5-1,1.3-1.9,3.1-2
		C774.3,173.9,772.5,176.4,770.7,177.6z"/>
	<path fill="none" d="M753,193.7c-0.9-1-0.4-1.6,0.3-2.4c1.7,0,3.4-0.3,4.8-1.6c0.1-0.1,0.5,0.1,0.7,0.1c0.5,0.7,0.5,1.4,0,2.6
		C756.7,192.3,754.9,193.5,753,193.7z"/>
	<path fill="none" d="M742.4,204.4c1.3-0.3,2.3,0,3.3,0.2c0.2,0,0.3,0.4,0.7,0.7c-0.2,0.9-0.5,1.9-0.7,2.9c0,0.1-0.2,0.2-0.3,0.3
		c-0.7,0.5-1.5,0.4-2.3-0.3C742.8,207.1,742,205.8,742.4,204.4z"/>
	<path fill="none" d="M769.5,190.9c-0.6-4.3-0.6-5.7,0.7-7.8C771,188.3,770.9,188.8,769.5,190.9z"/>
	<path fill="none" d="M768.2,588.9c0.1,1.9-0.7,3.6-1.3,5.1c-0.6,0.5-1.1,0.7-1.8,0.1c-0.1-1-0.1-2.1,0.3-3.3c0.8-0.9,2-1.3,2.9-1.9
		L768.2,588.9z"/>
	<path fill="none" d="M768.3,589c0-0.5-0.2-1-0.9-1.4c-0.2-0.4-0.9,0.6-1.2-0.4c0.4-1.7,2.5-1.5,3.3-3c1,1.2,1.1,2.3,0.8,3.5
		c-0.7,0.4-1.4,0.7-2.1,1.1L768.3,589z"/>
	<path fill="none" d="M740.7,248.7c-1.4-0.8-1.7-2.2-1.8-3.2c0.3-1,0.7-1.3,1.5-1.5C742.4,246.5,742.4,247.1,740.7,248.7z"/>
	<path fill="none" d="M747.3,235.4c-1.3,0-2.6,0.4-3.9,0c-0.4-0.1-0.4-0.3-0.1-0.6c0.9-0.8,2.1,0.2,3-0.4c1-0.6,2-1.1,3-1.7
		c0.9,0.6,1.1,1.3,0.6,2.1C749.2,235.5,748.2,235.4,747.3,235.4z"/>
	<path fill="none" d="M730.8,501.3c1.4,0,2.9-0.3,4.2,0.3c0.4,0.6,1,1,0.5,1.9c-1.3-0.5-2.6-0.9-4-1.4
		C731.2,502,730.9,501.7,730.8,501.3L730.8,501.3z"/>
	<path fill="none" d="M761.1,238.9c0.7-0.4,1.5-0.5,2.1,0.2c0.2,0.3,0.2,0.7,0.3,1c-0.8,1-1.6,1.4-2.9,1
		C760.1,240,760.4,239.3,761.1,238.9z"/>
	<path fill="none" d="M751.8,166.1c0.2,1.1,1,2,0,2.9c-0.8,0-1.6-0.1-2.1-0.8C749.9,167.2,750.5,166.5,751.8,166.1z"/>
	<path fill="none" d="M725.6,222.1c2.5,2.1,2.7,2.4,1.6,4.3C726.2,224.9,725.6,223.8,725.6,222.1z"/>
	<path fill="none" d="M720,204c-1.1-1.9,0.5-2.8,1.5-4.1C721.4,203.1,721.4,203.1,720,204z"/>
	<path fill="none" d="M744.7,253.2c0.4,1,1.5,1.8,0.8,3.1c-1.3-0.3-1.9-1.1-2.3-2.1C743.8,252.9,743.9,252.8,744.7,253.2z"/>
	<path fill="none" d="M766.5,183.8c0.1,0.8,0,1.2-0.8,1.5c-1.1-0.9-2.8-0.5-4.2-0.9c0.1-0.4,0.2-0.6,0.4-1.2
		C763.6,183.4,765.1,183.6,766.5,183.8z"/>
	<path fill="none" d="M729.2,492.6c1.3,0.2,1.9,1.1,2.6,2.1c-1.5,0.4-2.5-0.2-3.6-0.8C728.7,493.3,729,492.9,729.2,492.6
		L729.2,492.6z"/>
	<path fill="none" d="M722.6,216.1c-1.3-1.2-1.5-1.7-0.7-2.6c0.8,0,1.4,0.3,1.8,1.5C723.5,215.6,723.3,216,722.6,216.1z"/>
	<path fill="none" d="M774.2,262.9c3.6-0.9,3.6-0.9,5.4,0.2C777.5,263.4,776.1,263.2,774.2,262.9z"/>
	<path fill="none" d="M758.4,260.5c0.8,0.7,1.8,1.4,1.5,2.7c-1.5,0-1.9-1-2.4-1.8C757.5,260.8,757.8,260.4,758.4,260.5z"/>
	<path fill="none" d="M750.4,241.6c2.3-0.4,2.6-0.1,2.5,2.1C751.6,243.4,750.7,242.9,750.4,241.6z"/>
	<path fill="none" d="M774.5,143.9c0.3,1,0.3,1.9-0.3,2.8c-1.2-0.6-1.4-1.4-1.2-2.7C773.6,143.7,774.1,143.4,774.5,143.9z"/>
	<path fill="none" d="M774.1,212.9c-1.4-1.5-1.4-1.7,0-2.7C774.7,211.1,774.9,212,774.1,212.9z"/>
	<path fill="none" d="M764.7,214.5c-1.7-1.3-1.7-1.4-0.1-2.7C765.3,212.9,765.4,213.7,764.7,214.5z"/>
	<path fill="none" d="M724.7,232.2c-0.9-0.7-1.3-1.6-0.7-2.7C725.4,231.1,725.4,231.1,724.7,232.2z"/>
	<path fill="none" d="M774.1,178.8c0-1,0.5-1.7,1.8-2.3C775.3,178.2,775.3,178.2,774.1,178.8z"/>
	<path fill="none" d="M766.1,259.5c1.1,0.3,2.2,0.5,2.6,1.8C766.2,261.5,766.2,261.5,766.1,259.5z"/>
	<path fill="none" d="M763.1,219.7c0.5,0.7,0.7,1.3,0,2c-0.9,0.2-1.5-0.1-1.7-1C761.7,219.9,762.1,219.3,763.1,219.7z"/>
	<path fill="none" d="M773.6,236.5c-1.1,0.7-2.1,0.8-3.7,0.7C771.5,236.2,772.4,235.7,773.6,236.5z"/>
	<path fill="none" d="M722.7,491.2c1.5,0.1,1.5,0.1,1.5,1.8C723.3,492.7,722.6,492.3,722.7,491.2z"/>
	<path fill="none" d="M769.7,225.7c0,0.3-0.3,0.4-0.6,0.2c-0.7-0.5-1.1-1.1-0.6-2.2C769.6,224.2,769.8,224.9,769.7,225.7z"/>
	<path fill="none" d="M762.2,161.2c0.5,0.8,0.3,1.5-1.1,2.2C761,162.1,760.9,161.3,762.2,161.2z"/>
	<path fill="none" d="M923.5,568.2c-0.9-0.1-1.7-0.1-3.1-0.3c1.4-0.5,2.3-0.7,3,0.4L923.5,568.2z"/>
	<path fill="none" d="M274.8,592c0.2,0.3,0.4,0.7,0.5,1c0,0.1-0.2,0.3-0.2,0.3c-0.3-0.2-0.6-0.4-0.8-0.7c-0.1-0.2,0-0.5,0-1
		C274.6,591.9,274.7,591.9,274.8,592z"/>
	<path fill="none" d="M720.8,207c-0.1-0.1-0.2-0.2-0.2-0.3c0.1-0.2,0.2-0.5,0.3-0.6c0.3-0.1,0.5,0.1,0.5,0.4
		C721.2,206.7,721,206.8,720.8,207z"/>
	<path fill="none" d="M722.4,224.4c0.1,0.2,0.2,0.4,0.2,0.6c0,0.3-0.3,0.4-0.5,0.3c-0.2-0.1-0.2-0.4-0.3-0.6
		C722,224.6,722.2,224.5,722.4,224.4z"/>
	<path fill="none" d="M758.4,252.4c0.1-0.1,0.5-0.2,0.6-0.2c0.4,0.3,0.5,0.8,0,1.1C758.6,253.2,758.2,252.9,758.4,252.4z"/>
	<path fill="none" d="M729.3,492.5c-0.6,0-1.3,0-2.2,0c1-0.9,1.6-0.5,2.1,0.1L729.3,492.5z"/>
	<path fill="none" d="M923.4,568.3c0.6,0,1.2-0.2,1.7,0.3c-0.2,0.1-0.5,0.2-0.7,0.2C924.1,568.7,923.8,568.4,923.4,568.3
		L923.4,568.3z"/>
	<path fill="none" d="M775.5,233.3c-0.1-0.2-0.2-0.4-0.3-0.6c0.2-0.1,0.5-0.3,0.6-0.2c0.2,0.1,0.2,0.4,0.3,0.6
		c0,0.1-0.1,0.2-0.2,0.3C775.7,233.4,775.5,233.4,775.5,233.3z"/>
	<polygon fill="none" points="740,214.6 740,214.9 739.9,214.6 	"/>
	<polygon fill="none" points="934.6,571 934.6,570.9 934.9,570.9 	"/>
	<path fill="none" d="M650.4,499.7c0-0.5,0.1-0.8,0.6-0.3C650.8,499.5,650.6,499.6,650.4,499.7L650.4,499.7z"/>
	<path fill="none" d="M730.9,501.2c-0.4,0-0.5,0-0.3-0.2C730.7,501.1,730.8,501.2,730.9,501.2L730.9,501.2z"/>
	<path fill="none" d="M649.6,505.3c-0.3,0.3-0.5,0.6-0.8,0.8h0.1C649,505.7,649.3,505.4,649.6,505.3L649.6,505.3z"/>
	<polygon fill="none" points="648.9,506.1 648.7,506.2 649,506.1 	"/>
	<polygon fill="none" points="931.5,586.5 931.3,586.3 931.4,586.6 	"/>
	<path fill="none" d="M772.2,296.7c-0.1,0.2,0,0.9-0.5,0.2C771.9,296.9,772.1,296.8,772.2,296.7L772.2,296.7z"/>
	<path fill="none" d="M773,295.8c0.1,0.6-0.3,0.8-0.8,0.8l0.1,0.1C772.2,296.2,772.5,295.9,773,295.8L773,295.8z"/>
	<path fill="none" d="M782.5,266.5c-0.1-0.1-0.1-0.3-0.2-0.3c0,0.1,0,0.2,0.1,0.4L782.5,266.5z"/>
	<path fill="none" d="M824.7,253.6c0,0.3,0,0.6,0,0.9l0.1-0.1c-0.1-0.1-0.2-0.2-0.2-0.3C824.6,253.9,824.7,253.7,824.7,253.6
		L824.7,253.6z"/>
	<path d="M503,621.5c1.1,2.8,2,5.7,3.1,8.6c0.7,1.9,1.3,3.7,2.4,5.2c3.4,2.1,7.5,3,9.9,6.2c-0.3,0.8-0.6,1.2-1.2,1.3
		c-3.3-0.9-7.6-3.5-9.6-6c-3.6-4.6-5.7-9.8-7-15.4c-0.2-0.8-0.3-1.6,0.5-2.2C502.4,619.4,502.7,620.5,503,621.5z"/>
	<path d="M454.7,626c-6.9,3.6-14,7-21.9,8c-5,0.6-10,0.7-15.2,0.1c1-0.9,2-0.8,2.9-0.8c4.8,0,9.5-0.7,14.2-1.5
		c4.9-0.8,9.5-2.3,13.9-4.6c1.6-0.9,3.4-1.5,5.1-2.3c0.5-0.2,1-0.3,1.6,0.2C455,625.4,454.9,625.9,454.7,626z"/>
	<path d="M413,635.7c-1.2,0.1-2.4,0.2-3.6-0.1c-2.5-0.5-5-0.5-7.5-0.6c-3.8-0.2-7.6-1-11.4-1.7c0.5-0.7,1-0.6,1.5-0.6
		c7.1,0,14.3,0.1,21.4,0.9c0.7,0.1,1.3,0.3,1.6,1C414.6,635.4,413.8,635.6,413,635.7z"/>
	<path d="M472.3,634c-3.2,0.4-6.3,1.3-9.8,1.3c1.9-2,2.1-2.2,4.4-2.7c3.2-0.6,6.5-1.1,9.7-1.6c1-0.2,2.1-0.3,3.1-0.3
		c0.8,0,1.6,0.2,2,1C478.6,632.4,475.5,633.6,472.3,634z"/>
	<path d="M518.4,583.4c1.1-1.4,2.7-2,4.4-2.4c0.8-0.2,1.5-0.3,2.3-0.5c2.7-0.7,5.3-1.5,8-2.2c1.3-0.4,2.7-1,4.1-0.2
		c0,1.4-1,1.5-1.9,1.8C529.7,581.4,523.9,582.1,518.4,583.4L518.4,583.4z"/>
	<path d="M292.5,614.4c-5.7,1-11.5,0.7-17.3,0.7c-0.4,0-0.6-0.4-0.5-0.9c3.5-0.9,12.5-1.1,18.3-0.3
		C292.9,614,292.7,614.3,292.5,614.4z"/>
	<path d="M500.1,633.4c0.3,0.1,0.6,0.5,0.5,0.9s-0.5,0.6-0.9,0.5c-4.9-0.5-9.5-1.8-14-3.5C490.6,631.4,495.5,631.9,500.1,633.4z"/>
	<path d="M503.7,587.8c3.6-1.5,4.2-1.6,7.6-0.8C508.9,587.6,506.5,589.1,503.7,587.8z"/>
	<path d="M379.2,630.4c0.7,0,1.6-0.1,1.7,1.1c-1.8,0.4-3.6,0.4-5.5,0C376.5,630.4,376.7,630.3,379.2,630.4z"/>
	<path d="M500.7,587.7c-1.8,0.8-3.4,1.1-5.5,0C497.3,586.5,498.9,586.4,500.7,587.7z"/>
	<path d="M307.1,613.9c1.6,0.4,3.2,0.4,4.7,1.7c-1.9,0.8-3.4-0.2-4.9-0.7C307,614.5,307,614.3,307.1,613.9z"/>
	<path d="M482.1,586.5c1.5,0,2.9-0.2,4.3,0.8C484,588.2,483.9,588.2,482.1,586.5z"/>
	<path d="M347.3,628.3c1.9-0.6,3.1,0.5,5.3,0.8C350.2,629.8,348.9,629.2,347.3,628.3z"/>
	<path d="M298,615.5c1.1-1,2.4-1.1,4.1-0.9C300.6,615.5,299.6,616.3,298,615.5z"/>
	<path d="M360.3,630c0.6-0.6,1.3-0.6,2-0.6c1,0,2.1-0.2,3.8,0.7C363.7,630.3,362.1,630.5,360.3,630z"/>
	<path d="M490,588.5c1.4-1.2,1.4-1.2,2.5,0.1C491.6,589,490.8,589.2,490,588.5z"/>
	<path d="M518.3,583.3c-0.3,0.1-0.5,0.3-0.4,0.2C517.8,583.5,518.1,583.5,518.3,583.3L518.3,583.3z"/>
	<path d="M758.9,404.5c-2.1-3.7-4.2-7.3-6.2-11.1c-3.1-6.1-4.5-12.4-2.4-19.1c0.2-0.5,0.1-1.1,0.2-1.6c1-4.7,2.5-9.2,4.3-13.6
		c0.2-0.5,0.6-0.8,1.2-0.8c0.1,0.2,0.4,0.5,0.3,0.7c-0.9,5.1-3,9.8-4.4,14.6c0.2,0.9,0.4,1.7,0.4,2.5c0.2,4.9,1.1,9.7,2.9,14.3
		c0.8,2,1.5,4,2.2,5.9c1.1,2.9,1.7,6,2.4,9.4C759.4,405.1,759.1,404.8,758.9,404.5z"/>
	<path d="M760.9,466.3c2.1,0.3,4.2,0.8,7.1,1.3c-5.4,0.6-9.6-0.5-13.7-2.4C756.7,464.8,758.7,465.9,760.9,466.3z"/>
	<path d="M801.6,460.9c-0.8-0.9-1.4-1.9-1.8-3.1c-0.1-0.5-0.3-1,0.8-1.1c1.3,2.9,4.1,4.9,5.2,8.3C804.4,463.7,803,462.3,801.6,460.9
		z"/>
	<path d="M758.7,473.5c3.4,1,6.4,2.9,9.5,4.6c0.2,0.1,0.2,0.3,0.6,0.9c-3.2-1.5-6.1-2.6-8.8-4.2
		C759.4,474.5,758.8,474.2,758.7,473.5L758.7,473.5z"/>
	<path d="M758.7,347c-0.4,3.1-0.7,5.6-1.1,8.7C755.8,352.9,756.1,351,758.7,347z"/>
	<path d="M765.1,415.3c-2.4-0.7-2.9-2.8-3.5-4.9c-0.2-0.6,0.1-1,0.9-1.1C763.8,411.1,764.7,413.1,765.1,415.3L765.1,415.3z"/>
	<path d="M779.3,424.2c1.4,0.3,2.5,0.8,3.8,2.1C780,426.2,780,426.1,779.3,424.2z"/>
	<path d="M786.4,550.5c1.1-1,1.8-1.7,3.3-0.9C788.9,550.7,788,551.2,786.4,550.5z"/>
	<path d="M758.7,473.4c-2.3-0.7-2.3-0.7-3.9-2.2C757.1,472,757.1,472,758.7,473.4L758.7,473.4z"/>
	<path d="M774.9,422.8c1.1,0.3,1.7,1,2.4,1.8C775.3,424.3,775.3,424.3,774.9,422.8z"/>
	<path d="M768.5,418.8c1.1-0.6,1.7,0.1,2.6,0.9C769.8,420.1,769.1,419.7,768.5,418.8z"/>
	<path d="M792.7,545.4c0.4-0.7,1-1.1,2.2-0.7C793.6,545.7,793.6,545.7,792.7,545.4z"/>
	<path d="M760.8,337.4c0.4,1,0.3,1.7-0.9,2.1C759.5,338.6,759.6,337.9,760.8,337.4z"/>
	<path d="M764,445.5c0,0.7,0,1.2,0,2C763.7,446.7,763.5,446.2,764,445.5z"/>
	<path d="M771.5,468.2c-0.3,0.4-0.7,0.2-1,0.1C770.8,467.9,771.1,468.1,771.5,468.2z"/>
	<path d="M814.5,474.9c-1.1,0.1-1.7-0.3-1.6-1.5l-0.1,0.1C813.9,473.4,814,474.3,814.5,474.9L814.5,474.9z"/>
	<path d="M761.9,482.9c-0.8-0.2-1.8,0.3-2.3-0.8l-0.1,0.1c0.8,0.1,1.8-0.1,2.2,0.9L761.9,482.9z"/>
	<path d="M759.6,482.1c-0.3-0.1-0.6-0.1-0.4-0.1C759,481.9,759.3,482.1,759.6,482.1L759.6,482.1z"/>
	<path d="M761.8,483c0.4,0.1,0.7,0.1,1.1,0.2C762.3,483.8,762.1,483.2,761.8,483L761.8,483z"/>
	<path d="M763.1,443.4c0-0.2,0-0.4-0.1-0.6C763.1,443,763.1,443.2,763.1,443.4z"/>
	<path d="M799.9,541.4c0.1-0.1,0.3-0.1,0.4-0.1c0.3,0.1,0.3,0.3-0.1,0.4c-0.1,0-0.2-0.1-0.3-0.1
		C799.9,541.5,799.9,541.4,799.9,541.4z"/>
	<path d="M782.6,552.3c0.1-0.4,0.2-0.5,0.2-0.3C782.9,552.1,782.6,552.2,782.6,552.3L782.6,552.3z"/>
	<path d="M765,415.4c0.5,0,0.8,0.3,0.8,0.8l0.1-0.1C765.4,416,765.2,415.7,765,415.4L765,415.4z"/>
	<path d="M765.8,416.2c0.1,0.1,0.2,0.2,0.3,0.2C766,416.3,765.9,416.2,765.8,416.2L765.8,416.2z"/>
	<path d="M812.9,473.4c-0.1,0-0.3,0-0.4-0.1c-0.1,0-0.1-0.3,0-0.3C812.7,473,812.8,473.1,812.9,473.4L812.9,473.4z"/>
	<polygon points="814.4,475 814.5,475.1 814.5,474.9 	"/>
	<path d="M301.7,569c-1.4,1-3,1.6-4.6,2.1c-2.1,0.7-4.3,1.3-6.6,1c-0.7-0.1-1.3-0.2-1.3-1.1c0.2-0.2,0.4-0.5,0.6-0.5
		c3-0.6,6-1.1,9-1.6C299.7,568.8,300.7,568.8,301.7,569L301.7,569z"/>
	<path d="M504.4,555.6c0.4-0.3,1-0.4,1.5-0.4c0.9,0,1.5,0.4,1.1,1.8c-1.1,0.8-2.2,1.9-3.6,2.5c-1.5,0.7-2.5,2.1-4.5,3.4
		C500.3,559.4,502,557.2,504.4,555.6z"/>
	<path d="M313.4,565.1c-2,1.4-3.8,1.9-5.8,1.3c0.1-0.3,0.2-0.6,0.4-1.2C309.8,565.2,311.4,564.3,313.4,565.1z"/>
	<path d="M330.1,561.7c-0.7,0-1.6,0.3-1.9-0.8c1-0.9,2.2-0.6,3.3-0.4C331.3,561.4,330.8,561.7,330.1,561.7z"/>
	<path d="M323,563.1c-1.5,0.6-2.6,1.6-4.4,0.7C319.9,563,321.1,562.2,323,563.1z"/>
	<polygon points="301.7,569.1 301.8,568.9 301.7,569 	"/>
	<path d="M766.6,242.6c1.7-0.5,3.3-0.8,5.1-0.9c2-0.1,3.9-0.4,5.9-0.6c0.2,0,0.5,0.1,0.8,0.2c1,1.6-1.4,1.6-1.3,3
		c0.3,1,0.6,2.1,1.6,2.8c1.1,0.2,2.1,0.3,3.1,0.1c1.8-1.6,2.3-1.9,3.3-2c1.4-0.2,2.6,0.8,2.8,2.2c0.1,0.8,0.1,1.6-0.4,2.3
		c-1.1,1.6-2.3,3.3-4.2,4.1c-0.2,0.1-0.5,0-0.7-0.1c-0.9-0.3-0.6-1.4-1.4-2.1c-0.8-0.3-1.7-0.7-2.8-1.1c-0.7-0.9-1.5-1.8-2.2-2.8
		c-0.7-1.1-0.8-2.5-2-3.3c-1.2-0.4-2.4-0.1-3.6-0.1c-0.7,0-1.3,0.1-1.7,1.1c0.6,1.1,1.3,2.3,1.9,3.4c5.5,1.2,7,2.1,9.2,5.1
		c-0.2,0.2-0.3,0.4-0.6,0.6c-2.2-1.4-4.4-2.6-7-2.5c-0.2,0-0.4,0.2-0.9,0.5c-0.1,0.8-0.3,1.6,0.4,2.5c1.3,1.2,3.4,0.4,4.8,1.5
		c-0.1,1.2-1,1.1-1.8,1.2c-2.1,0.2-4.2,0.6-6-0.7c0.4-2.4-0.4-4.5-1-6.5c-0.7-2.1-2.1-3.9-3.2-5.8
		C765.2,243.2,765.8,242.8,766.6,242.6z"/>
	<path d="M802.9,185.3c-1.9,1.6-3.8,3.3-5.8,4.8c-2.6,2-4.2,4.4-4.2,7.7c0,0.4-0.2,0.8-0.3,1.3c-0.6,0.7-1.3,1.5-2,2.3
		c-0.4,0.4-0.8,0.6-1.4,0.1c-0.1-1.2-0.2-2.5-0.3-3.8c-0.1-1.2,0.3-2.3,0.8-3.4c2.2-4.8,5.8-8.5,9.3-12.2c1.1-1.2,2.4-2.1,4.1-1.9
		c1.2,0.6,1.5,1.6,1.8,2.8C804.3,184.1,803.6,184.7,802.9,185.3z"/>
	<path d="M807.2,195c-1,0.6-2.1,1.3-3.1,1.9c-0.8,1.1-0.8,2.7-2.2,3.3c-0.7,0.3-1.3,0-1.6-0.7c0.2-4.6,1.8-8.8,4.8-12.3
		c1.3,0.1,1.1,1.3,1.6,1.8c0.6,0.5,1.6,0.3,2,1.8C808.2,191.9,808.3,193.5,807.2,195z"/>
	<path d="M792.2,262.7c-0.2-0.5-0.1-1,0.2-1.5c1.9,1.4,4.1,5.1,5.3,8.7C795.5,268.2,793.4,265.3,792.2,262.7z"/>
	<path d="M824.3,263.5c-1-0.6-2-1.2-2.9-1.9c-0.3-0.3-0.8-0.7,0-1.4c2.5,0.9,4.3,2.8,6.5,5.6C826.1,264.7,825.2,264.1,824.3,263.5z"
		/>
	<path d="M804.2,279.2c-2.5-1.7-2.5-1.7-2.4-3.3C803.7,277,803.7,277,804.2,279.2z"/>
	<path d="M807.8,230.7c0.6-0.1,0.9,0.2,0.9,0.9c-2,1.5-2,1.5-3.4,0.3C805.7,230.8,806.8,230.8,807.8,230.7z"/>
	<path d="M802.1,233.6c-1.1,0.7-2.1,1.6-3.5,0.7C799.6,232.3,800.8,232,802.1,233.6z"/>
	<path d="M828.6,251.3c0.2-0.5,0.7-0.7,1.2-0.7c0.1,0,0.3,0.1,0.3,0.2c0,0.5-0.4,0.8-0.9,1c-0.2,0.1-0.4-0.1-0.6-0.2
		C828.6,251.6,828.6,251.4,828.6,251.3z"/>
	<path d="M830.7,270.8c-0.6-0.2-1.1-0.4-1.1-1.2C830.8,269.7,830.8,269.7,830.7,270.8z"/>
	<path d="M809.7,283.9c-1-0.5-1-0.5-1-1.4C809.4,282.7,809.6,283.2,809.7,283.9L809.7,283.9z"/>
	<path d="M812.4,280.3c-0.1,0.1-0.2,0.2-0.2,0.2c-0.2-0.1-0.3-0.2-0.5-0.3c0.1,0,0.2-0.1,0.3-0.1
		C812.2,280.2,812.3,280.2,812.4,280.3z"/>
	<path d="M809.6,283.9L809.6,283.9L809.6,283.9z"/>
	<path d="M833.5,274.5c0.1,0,0.2,0,0.3,0s0.1,0.1,0.1,0.2C833.8,274.6,833.7,274.5,833.5,274.5L833.5,274.5z"/>
	<path d="M833.5,274.4c0-0.1-0.1-0.1-0.1-0.2C833.4,274.3,833.4,274.4,833.5,274.4L833.5,274.4z"/>
	<path d="M825.3,254.1c-0.2,0.2-0.4,0.3-0.6,0.5c0-0.3,0-0.6,0-0.9C824.9,253.8,825.1,253.9,825.3,254.1z"/>
	<path d="M256.3,569.7c0.2,0.8,0.3,1.6,0.5,2.3c0.1,0.7-0.2,1.3-1,1.4c-0.1-0.1-0.3-0.1-0.4-0.2c-3.6-4.6-7.3-9.1-10.8-13.7
		c-0.5-0.6-1-1.3-0.6-2.2c1.5-0.5,1.8-0.6,2.4,0.1c1.5,1.5,3,3,4.2,4.8C252.3,564.9,254.1,567.6,256.3,569.7L256.3,569.7z"/>
</g>
</svg>
