<?xml version="1.0" encoding="utf-8"?>
<!-- Generator: Adobe Illustrator 20.0.0, SVG Export Plug-In . SVG Version: 6.00 Build 0)  -->
<svg version="1.2" baseProfile="tiny" id="Layer_2" xmlns="http://www.w3.org/2000/svg" xmlns:xlink="http://www.w3.org/1999/xlink"
	 x="0px" y="0px" viewBox="0 0 900 600" xml:space="preserve">
<g>
	<path d="M333.1,341.2c0.5,0.5,0.9,1.1,1.4,1.5c4.9,4.5,8.8,9.8,12,15.5c1.2,2.1,2.2,4.3,3.5,6.4c1.4,2.4,2.9,4.7,4.6,6.9
		c1.2,1.5,1.7,2.9,1.7,4.7c0,3.5-0.2,6.9-1.1,10.3c-0.3,1.2-0.7,2.4,0.1,3.7c1.3-0.4,2.5-1.2,3.5-2.1c2.3-1.9,4.6-3.8,6.9-5.7
		c1.7-1.4,3.4-2.8,5.1-4.2c1.4-1.1,3-1.7,4.8-1.7c3.6,0,7.1,0,10.7,0c1,0,2,0.1,2.9-0.7c0.8-0.7,2-0.5,3-0.4
		c2.5,0.1,4.6,1.3,6.8,2.3c1.2,0.5,2.1,1.8,2.8,2.9c2.6,3.6,4.2,7.7,5.4,11.9c1.8,6.3,2,12.7,1.2,19.2c-0.4,3.2-1,6.3-1.5,9.7
		c0.9,0.7,2.2,0.8,3.4,0.8c5.1,0.3,10.1,0.3,15.1-1c3.8-1,7.7-1.4,11.6-1.5c1.5,0,2.7-0.5,3.8-1.4c1.1-1,2.3-2,3.2-3.1
		c1.6-1.9,3.1-4,4.7-6c1-1.3,2-2.6,3-3.8c1.3-1.5,2.8-2.7,4.7-3.4c0.6-0.2,1.2-0.6,2.1-1c-0.4-0.8-0.6-1.5-1-2.2
		c-0.6-1.1-1.5-2-1.8-3.5c0.8-0.4,1.5-0.7,2.2-1c-0.1,0,0.1,0.2-0.1,0.1c-0.8-0.7-1.7-0.4-2.6-0.4c-2.2,0.1-4.4,0.3-6.5,0.4
		c-1.8,0.1-3.4-0.3-4.2-2.3c-0.1-0.4-0.5-0.7-0.9-1c-1.1-0.8-2.3-1.5-3.3-2.5c-0.9-1-1.6-2.2-2.5-3.5c-0.8,2.3-0.6,4.5-0.5,6.7
		c0,1.3,0.2,2.5,0.4,3.8c0.4,2.8,1.3,5.4,3.7,7.2c0.8,0.6,1.5,1.4,1.7,2.5c-0.3,1.2-1,1.7-2.2,1.8c-1.3,0.1-2.5-0.3-3.5-1.1
		c-1.6-1.3-2.6-3-3-4.9c-1.5-7.6-3.8-14.9-6.1-22.3c-0.5-1.4-0.6-2.9-0.9-4.4l-0.1,0.1c1.1,0.2,0.9,1.3,1.2,1.9
		c1.7,4.3,3.2,8.6,4.8,13c0.2,0.5,0.5,1,0.9,1.9c0.3-0.7,0.5-1.1,0.6-1.5c0.5-2.4,0.9-4.8,1.6-7.1c0.8-2.7,0.4-5.2-1-7.6
		c-3.8-6.4-5.3-13.4-5.9-20.8c-0.1-0.7,0.1-1.5,0.5-2.2c0.3,1.6,0.6,3.1,0.8,4.7c0.9,6,2.6,11.7,5.5,17c1.1,2,1.7,4.3,1.8,6.6
		c0,0.9-0.1,1.7,0.9,2.4c0.5,0.3,0.5,1.2,0.7,1.9c0.8,1.9,1.1,2.4,3.4,4.1c-0.6-1-1-1.7-1.4-2.3c-1.5-2.6-2.6-5.4-2.8-8.5
		c-0.1-0.9-0.2-1.9-0.6-2.7c-2.8-5.5-4.1-11.5-5.4-17.4c-0.4-1.9-0.7-3.9-1.1-5.9c-2.3-1.3-3.3-3.6-4.2-6
		c-3.5-9.6-4.6-19.5-3.6-29.6c0.1-1.3,0.5-2.5,0.8-3.7c0.1-0.3,0.5-0.5,0.9-0.9c0.6,1.8-0.5,3.3-0.4,4.8c0.1,1.6-0.3,3.2,0.2,4.9
		c1.6,0.3,3.1,0.6,4.6,0.9c0.3,1-0.3,1.2-0.9,1.1c-1.2-0.2-2.4-0.5-3.8-0.8c0,0.4,0,0.9-0.1,1.2c1.4,1,3.3-0.1,4.6,1.2
		c-0.4,1-1.2,0.8-1.8,0.8c-0.8,0-1.6-0.1-2.2,0.7l0.1-0.1c-1,0.9-0.7,2.2-0.5,3.2c0.9,3.9,1.9,7.8,3,11.7c0.4,1.5,1.1,3,1.7,4.5
		c0.2,0.5,0.6,0.9,1,1.6c0-2.8,0-2.8-0.8-4.6c0.2-0.8,0.6-1.5,0.7-2.3c0.2-0.9-0.2-1.5-0.9-2.1c-0.7-0.6-1.8-1-2.2-2.3
		c1,0.2,1.8,0.4,2.9,0.7c0.1-0.7,0.3-1.3,0.4-2.1c-1.8-0.3-3.2-1.1-4.7-2.6c0.9,0,1.4,0,1.8,0.1c0.9,0.3,1.7,0.6,2.5,1
		c0.2-0.3,0.4-0.5,0.4-0.7c0.2-4,0.4-8,0.6-12c-1.9-1.4-1.9-1.4-5.8-2c-0.3-0.8,0.4-1,0.9-1.1c1.9-0.3,2.5-0.2,5,0.9
		c0.2-0.3,0.4-0.5,0.5-0.8c0.9-6.8,2.5-13.4,4.2-20c0.5-2,0.9-4.1,1.2-6.1c0.1-0.6-0.1-1.3-0.2-2.2c-2.4-0.6-4.7-1.2-6.6-3
		c-0.8,1.7-1.3,3.3-1.7,5c3.3-0.9,4.5-0.7,6.1,1.2c-0.2,0.6-0.7,0.5-1.1,0.5c-1.3-0.1-2.5-0.4-3.8-0.5c-0.4,0-0.8,0.5-1.4,0.9
		c1.6,1,3.4,0.5,4.7,1.7c0.1,0.1,0,0.2,0,0.3c-1.4,0.8-1.4,0.8-5.9,0.1c-1.5,3.3-2.2,7-4,10.7c0-2,0.4-3.5,0.8-4.9
		c0.9-3.1,1.9-6.2,2.9-9.2c1.2-3.6,2.5-7.1,2.5-11.2c1.3-0.1,2.4-0.2,3.8-0.4c-1.4-1.5-3.1-2.2-4.4-3.4c-1.4-1.2-2.8-2.4-4.1-3.5
		c-4-1.1-6.5,0.8-8.5,3.8c-1.2,1.9-1.9,4-2.1,6.2c-0.5,4.8-0.6,9.7,0.5,14.5c0.9,4.1,2.7,7.8,5.1,11.3c0.6,0.8,1.4,1.5,2.1,2.3
		c-0.1,0.6-0.5,0.7-1,0.5c-2.3-0.6-4-2.2-5.4-4.1c-1.7-2.5-2.8-5.3-3.4-8.3c-1.2-5.7-1-11.5,0.1-17.2c0.3-1.3,0.8-2.7,1.3-3.9
		c1.9-4.2,4.5-6,9.3-6.7c-0.5-1.4-1.7-2.2-2.5-3.3c-0.4-0.6-0.9-1.1-1.4-1.5c-1-0.9-2.2-1.3-3.5-1.2c-1.3,0.1-2.5,0.2-3.8,0.3
		c-1.8,0.1-3.7,0.2-5.6,0.2c-0.9,0.7-1.9,1.4-2.9,2.2c-3.4,2.5-7.3,3.9-11.2,5.3c-0.8,0.3-1.8,0.3-2.7,0.3c-1.8,0.1-3.7,0-5.5,0.1
		c-2.1,0-4.2,0-6.1-1c-0.9-0.4-1.8-0.4-2.7-0.1c-4.7,1.8-9.5,3.6-14.3,5.5c-0.2,0.6-0.4,1.2-0.8,1.8c-1.5,2.9-3.9,4.8-7.1,5.6
		c-1,0.3-2,0.5-3.1,0.5c-2.2,0-4.1,0.6-5.9,1.7c-3.5,2.1-6.9,4.2-10.3,6.3c-0.2,0.1-0.3,0.4-0.5,0.7c2.7,0.8,4.8,2.4,7,3.9
		c4.9,3.4,10.2,6.1,15.5,8.8c0.6-0.5,0.2-0.9,0.1-1.3c-0.3-0.6-0.7-1.2-0.9-1.9c-1.1-2.7-2.8-5-4.9-7c-2.1-2.1-4.1-4.3-6.3-6.7
		c1.8,0.5,1.8,0.5,3.8,2.6c1,1.1,2.1,2.1,3.2,3.3c0.4-0.3,0.8-0.5,1.2-0.8c1.3,2.4,2.3,5,5,6.7c-0.3,0.4-0.5,0.7-0.9,1.3
		c0.9,1.8,1.9,3.8,2.9,5.7c1.1,2.3,2.2,4.5,3.3,6.9c0.3,0.6,0.3,1.3,0.4,2l0.1-0.1c-0.4-0.5-0.9-1-1.3-1.5c-0.9-1.5-1.7-3-2.5-4.5
		c-4.5-0.2-8.4-1.9-12.2-3.9c-4.4-2.4-8.6-4.9-12.4-8.2c-1.3-1.1-2.6-2.3-2.4-4.5c-1.3,0.7-2.3,1.3-3.3,1.9
		c-1.6,0.9-3.2,1.8-4.9,2.6c-2.3,1.1-4.6,2.1-6,4.3c-0.8-0.3-0.7-0.7-0.5-1.2c0.4-1.3,1.1-2.3,2.1-3.1c1.1-0.8,2.2-1.7,3.4-2.4
		c4.8-2.8,9.6-5.5,14.4-8.3c2.7-1.6,5.6-2.6,8-4.7c0.4-0.3,1.1-0.4,1.6-0.5c1.5-0.4,2.9-0.7,4.4-1.1c2.7-0.6,4.9-2,6.3-4.5
		c0.7-1.2,1.6-1.9,2.9-2.3c4.5-1.5,8.9-3.2,13.4-4.6c3.4-1.1,6.9-1.9,10.5-1.8c3.2,0.1,6.4-0.5,9.7,0.2c0.7,0.1,1.6-0.2,2.3-0.5
		c2.8-1,5.6-2.3,7.9-4.3c1.5-1.3,3.1-2,5-2.2c2.6-0.2,5.3-0.4,7.9-0.3c2.5,0.1,4.7,1.2,6.2,3.3c1.5,2.2,3.5,4,5.4,5.8
		c2.4,2.2,4.9,4.2,7.3,6.4c0.9,0.8,2.1,1.5,2.1,3c0,0.3,0.3,0.6,0.6,0.8c0.3,0.2,0.7,0.2,0.9,0.5c1.5,2.3,3.8,2.3,6.2,2.1
		c2.4-0.1,4.8-0.3,7.3-0.5c1.7-0.2,3.4-0.3,5-1.1c0.7-0.4,1.5-0.5,2.3-0.6c3.1-0.5,5.7-1.9,8-3.9c2.2-1.9,4.4-3.7,6.6-5.6
		c0.5-0.4,1-1,1.4-1.5c1.8-2.5,4.1-4.4,6.7-6c6-3.5,11.9-7,17.9-10.5c1.6-0.9,3.2-1.9,4.9-2.7c3.1-1.5,5.4-3.9,7.5-6.5
		c0.2-0.3,0.5-0.6,0.5-0.9c-0.2-1,0.6-1.5,1.2-1.9c8.1-6.2,17-10.6,26.8-13.2c5.1-1.3,10.2-1.8,15.4-1.9c2.5,0,5.1-0.1,7.6,0
		c2.5,0.1,4.8-0.3,7.1-1.3c2.7-1.2,5.4-2.5,8.2-3.8c2-0.9,3.9-1.9,5.9-2.9c0.7-0.4,1.5-0.7,2-1.2c3.3-3,7.3-4.3,11.5-5.2
		c0.8-0.2,1.6-0.4,2.4-0.5c3.6-0.2,7-1.4,10.3-2.9c3.6-1.6,7.3-2.9,10.9-4.3c1.5-0.6,3-1,4.7-1.2c2.1-0.2,4.1-0.9,6.1-1.1
		c8.6-0.8,17.3-0.9,25.8,0.9c0.9,0.2,1.8,0.4,2.7,0.7c4.3,1.6,8.7,3.2,12.9,4.9c1.8,0.7,3.6,1.6,5.3,2.6c1,0.6,2.1,0.9,3.3,0.9
		c1.8-0.1,3.6,0,5.5-0.5c1.6-0.4,3.4-0.1,5.2-0.2c0.7,0,1.4-0.1,2.1-0.1c0.7-0.9,1-2,2-2.7c3.4-2.6,6.3-5.7,9.1-9
		c0.7-0.9,1.4-1.8,2.7-2c0.5-0.1,0.9-0.6,1.3-1c0.9-1.2,1.8-2.4,2.7-3.6c2.4-3,4.7-5.9,7.1-8.9c0.4-0.5,0.9-1,1.5-1.4
		c3.4-2.4,6.5-5.1,10.2-7.1c0.4-0.2,0.9-0.4,1.1-0.8c0.9-1.6,2.7-2.5,3.8-3.9c1.3-1.7,2.8-3,4.5-4.2c3-2,5.9-4,9-5.8
		c3.7-2.2,7.5-4.1,11.9-4.6c1-1.9,2.4-3.1,4.6-3.2c1.9-0.1,3.7-0.1,5.1,1.3c0.9-0.4,1.6-0.7,2.2-1c0.1-0.4,0.2-0.7,0.2-0.8
		c-0.2-0.9-0.6-1.8-0.7-2.7c-0.2-1,0.8-1.8,1.7-1.6c1.1,0.2,2.2,0.6,3.6,0.9c0.3,0.4,0.7,1,1.1,1.6c1.6,0.5,3.1-0.4,4.7,0.5
		c-0.1,0.9-0.2,1.7-0.4,2.5c0.3,0.2,0.6,0.4,0.7,0.3c1.1-0.3,2.2-0.7,3.3-0.9c1.2-0.2,2.1,0.5,2.1,1.7c0,0.9-0.3,1.8-0.4,2.8
		c1,0.8,2.3,0.8,3.5,0.9c2.3,0.1,4.2,1,6.1,2.3c3.3,2.3,6,5.3,8.7,8.3c0.2,0.3,0.5,0.5,0.8,0.9c0.7,0,1.5,0.1,2.3,0.2
		c0.9,0.1,1.8,0.2,2.7,0.5c0.8,0.3,1.3,0.9,1,2.1c-0.9,0.2-2,0.5-3,0.8c0.8,2.1,1.5,3.2,3.3,4.4c2.8,1.8,4.4,4.7,6.1,7.4
		c0.4,0.6,0.3,1.6,0.5,2.3c0.1,0.5,0.4,1.1,0.7,1.5c1,1.3,1,1.3,1.4,3.2c0.6,0.4,1.4,1,2.1,1.5c0.7,0.5,1.5,0.8,1.9,1.4
		c1,1.8,2.8,2.4,4.3,3.3c1.1,0.7,2.1,1.4,3.1,2.2c0.3,0.3,0.6,0.7,0.7,1.1c0.3,0.9-0.3,2-1.3,2.1c-0.7,0-1.4-0.1-2-0.2
		c-0.4,0-0.8,0-1.2,0c-0.2,1.1,0.4,1.5,1,1.8c1.2,0.7,1.9,1.5,2.3,2.9c0.2,0.7,0.8,1.3,1.4,1.9c0.7,0.8,1.5,1.5,2.2,2.2
		c1.8,2,1.8,2.4,0.2,4.8c0.4,0.2,0.7,0.5,1.1,0.7c1.6,1,2,2.2,1.1,3.7c-0.5,0.9-1.3,1.6-1.9,2.4c-0.3,0.4-0.7,0.8-1.3,1.5
		c0.8,0.1,1.2,0.3,1.6,0.3c1.8-0.1,3.7-0.3,5.5-0.4c0.5,0,0.9,0.1,1.4,0.2c0.8,0.2,1.3,1.2,0.9,1.9c-0.4,0.7-0.9,1.3-1.4,2.1
		c0.5,1.1,0.9,2.1,1.3,3.2c0.3,0.8-0.5,1.7-1.3,1.5c-0.9-0.2-1.8-0.5-2.7-0.8c-0.5-0.1-1.1-0.2-2.2-0.3c1,1,1.5,1.6,2.1,2.1
		c1.3,1,2.6,1.9,4,2.7c1.1,0.7,1.6,1.6,1.5,2.9c-0.1,0.9-0.2,1.8-0.3,2.7c-1,1.1-2.3,1.6-3.6,2.1c-1.1,0.5-2.3,0.9-3.5,1.4
		c0,0.8,0,1.4,0,2c-1,0.7-1.8,0.4-2.7,0.1c-0.8-0.3-1.7-0.5-2.8-0.7c0.5,0.9,0.9,1.5,1.4,2.6c-3.7-0.7-5.9-3-8.4-4.6
		c-2.6-1.7-4.9-3.8-7.5-5.9c-1,0.9-1.7,2.3-3.2,2.6c-0.2,0-0.4,0.3-0.5,0.5c-2.6,3.6-5.4,7.2-7.8,11c-1.6,2.6-3.9,4.2-6.4,5.6
		c-1.4,0.8-2.8,0.9-4.2-0.2c-0.2-0.2-0.6-0.2-1.1-0.3c-1.6,3.1-4,5.7-5.2,8.9c-0.2,0.6-0.7,1.2-1.1,1.7c-1.5,1.7-2.5,3.6-3.1,5.7
		c-0.6,2.1-2.1,3.6-3.5,5.1c-1.1,1.1-3.7,1.3-5.5,0.6c-0.7-0.3-1.5-0.7-2.2-0.9c-0.2-0.1-0.5,0-0.9,0c-1.2,0.5-1.9,1.7-2.8,2.7
		c-1.7,1.9-2.1,2-4.4,1c-0.6-0.3-1.3-0.3-1.8-0.4c-0.3,0.3-0.6,0.4-0.6,0.6c-0.2,3.7-3.2,4.4-5.7,5.6c-0.8,0.4-1.8,0.2-2.7,0.3
		c-1,0.1-2,0.4-3,0.6c-0.9,1.9-1.8,3.6-3.5,4.8c-2.8,2-5.9,2.7-9.2,2.2c-1.8-0.3-3.5-0.9-5.2-1.7c-0.8-0.3-1.4-1.2-1.8-2
		c-1.2-2-2.4-3.9-4.1-5.5c-0.3-0.3-0.7-0.8-0.7-1.1c0-2.3-1.5-3.8-3-5.5c-2.9,0-5.9,0-8.9,0c-2.1,0-4.1-0.3-6.1-0.9
		c-3-1-3.1-0.9-6.3,0.6c1,1.8,0.8,3.8,0.4,5.7c-1.3,6.6-3.5,12.9-7.1,18.7c-0.8,1.2-1.2,2.5-1.4,3.9c-0.4,3.2-0.6,6.4,0.2,9.6
		c0.3,1.2,0.6,2.5,1.1,3.6c2.5,5.7,4.4,11.7,5.6,17.8c1.1,5.4,1.3,11,1.2,16.5c0,0.8-0.1,1.6-0.3,2.4c-1.1,3.8-0.4,7.6,0.5,11.3
		c0.4,1.4,0.9,2.9,1.4,4.5c1.6,1.6,3.9,2,6.2,2.4c1.5,0.3,2.9,0.4,4.1,1.6c0.4,0.4,1.2,0.6,1.9,0.7c10.2,2.1,19.9,5.9,29.8,9.1
		c2.2,0.7,4.4,1.5,6.4,2.6c3.6,1.9,7.5,2.3,11.4,2.7c1,0.1,2.1,0.1,3.1,0.1c5.1-0.2,10.1,0.4,15.2,0.9c6.4,0.6,12.9,0.8,19.3-0.6
		c1.1-0.2,2.3-0.4,3.4-0.2c3.1,0.5,6.2,0.6,9.1,2c0.9-0.3,1.8-0.5,2.7-0.9c4.6-2,9.5-2.7,14.3-4c1.7-0.4,3.4-0.3,5,0.6
		c2.3-0.8,4.6-1.4,7.1-1.4c1.2,0,2.2,0.3,3.3,0.8c4.2,2.4,8.6,4.4,13.3,5.6c1.3,0.3,2.6,0.9,3.8,1.6c1.1,0.7,2.2,1.3,3.5,1.4
		c1.5,0.2,2.3,1,2.4,2.5c0,0.5,0.1,0.9,0.1,1.5c0.6,0.5,1.2,1,1.7,1.6c1.2,1.6,1.3,2.7,0.1,4.4c-1,1.6-2.3,2.9-4.1,3.7
		c-0.5,0.2-1,0.5-1.6,0.7c0.7,2.7,0,5.1-1.5,7.2c-0.5,0.7-1.2,1.4-1.9,2c-1.4,1.1-2.4,2.4-2.4,4.3c0,2-0.3,4-1.9,5.4
		c-1.9,1.7-4,3.1-6.7,3.3c-1,0.1-2.1,0.2-3.1,0.2c-3.7,0.1-7.4,0.2-11.1,0.2c-0.3,0-0.6-0.2-1.3-0.4c0.6-0.4,1-0.9,1.5-1
		c1.5-0.3,3-0.5,4.4-0.7c3.1-0.3,6.2-0.7,9.3-0.9c2-0.1,3.5-1.2,4.8-2.5c1.2-1.1,1.4-2.6,1.2-4.1c-0.4-0.1-0.7-0.4-1-0.4
		c-2.7,0.1-5.3-0.5-7.9-1c-2.1-0.5-4.3-0.5-7.2-0.8c2.6-0.5,4.6-0.8,6.5-1.2c1.5-0.3,3-0.2,4.4,0.4c0.1,0,0.2,0.1,0.3,0.1
		c2.6,0.8,5,0.8,7.1-1.2c1.4-2.4,0.5-5.4,1.8-8.2c0.6,1.7,1.1,3,1.6,4.5c0.6,0.1,0.8-0.5,0.9-1c0.2-0.8,0.3-1.6,0.3-2.4
		c0-0.9-0.5-1.5-1.3-1.9c-1.3-0.5-2.6-1-3.9-1.4c-1.5-0.5-3.1-0.7-4.6-1.5c-0.8-0.4-1.8-0.3-2.7-0.4c-1.5-0.2-3-0.3-4.5-0.4
		c-1.9-0.2-3.5-0.7-5.2-1.6c-1.5-0.8-3.2-1.2-4.7-2.2c-0.7-0.4-1.2-1-2.2-1.8c0.9,0,1.4-0.2,1.7-0.1c0.9,0.3,1.7,0.8,2.5,1.2
		c2.3,1.3,4.7,1.7,7.3,1.3c1.6-0.2,3.2-0.5,4.6,0.7c0.3,0.3,0.9,0.2,1.3,0.3c1.2,0.1,2.2,0.4,3.1,1.4c0.7,0.8,1.7,1.2,2.7,1.3
		c0.3,0,0.7,0.1,1,0.2c2.5,1.2,5.2,0.8,7.9,0.4c0.9-1.4,2.4-2.4,2.7-4.5c-0.5-0.2-0.9-0.5-1.2-0.4c-1.5,0.2-2.9-0.1-4.3-0.7
		c-5.5-2.3-11-4.6-16.6-6.9c-3.2-1.3-6.4-2.5-9.5-4c-1.1-0.5-2.4-1-3.4-1.6c-1-0.6-2-0.7-3-0.4c-3.9,0.9-7.9,1.7-11.8,2.7
		c-1.7,0.4-3.3,1-4.9,1.4c-0.2,0.7-0.2,1.5-0.6,2c-0.3,0.4-0.9,0.7-1.4,0.9c-2.9,1.1-5.9,2.1-8.8,3.2c-1.8,0.7-3.6,1-5.4,0.9
		c-2.3-0.1-4.6,0.4-6.8,1.1c-4,1.3-7.9,2.4-11.9,3.6c-0.4,0.1-1,0.1-1.3,0.4c-1.5,1.4-3.4,1.3-5.2,1.3c-5.1-0.2-10.1-0.4-15.2-0.6
		c-3.4-0.1-6.9-0.2-10.3,0.1c-1.8,0.2-3.7,0.2-5.5,0.3c-7.9,0.2-15.7-0.2-23.5-1.3c-3.8-0.5-7.4-1.6-11-2.9c-2.3-0.9-4.6-1.5-7-2
		c-3.6-0.8-7.1-1.9-10.7-2.7c-5.3-1.2-10.6-2.2-15.9-3.4c-1.6-0.3-3.1-0.8-4.7-1.1c-0.8-0.2-1.6-0.3-2.4-0.4
		c-0.5,0.6-0.9,1.1-1.4,1.6c-0.1-0.1-0.4-0.3-0.3-0.4c0.3-3.2,0.2-6.4,1-9.6c1.1-3.9,1.9-7.8,2.7-11.8c0.3-1.2,0.5-2.5,0.3-3.8
		c-0.7-5.8-1.4-11.7-2.4-17.5c-0.7-4.4-1.7-8.8-2.7-13.2c-0.5-2.1-0.6-4.1-0.5-6.2c0.2-2.2-0.3-4.4-1-6.4c-0.9-2.4-0.8-2.6,1.7-3.8
		c2.4-6.9,6.5-12.9,9.7-19.4c1.2-2.4,2.5-4.7,3.7-6.9c1,0.1,1,0.7,0.9,1.3c-0.3,3.5-0.8,6.9-2.3,10.1c-1.1,2.5-2.5,5-3.7,7.4
		c-0.4,0.8-1.1,1.5-0.7,2.6c-0.3,0.2-0.6,0.4-0.8,0.7l-0.2,0.1l0.1-0.2c0.3-0.2,0.6-0.4,0.8-0.7c0.8-0.9,1.7-1.9,2.5-2.8
		c2-2,3.1-4.3,3.5-7.3c0.4-3.2,1.5-6.3,2.4-9.4c0.3-1,0.6-1.9,0.2-3c-0.3-0.9-0.2-2-0.2-3.1c-0.1-4.7-0.1-9.5-0.2-14.2
		c-0.2-9.5-3.4-17.7-9.5-25c-6.5-7.8-14.1-13.8-23.5-17.8c-6.6-2.8-13.2-5.6-20.2-7c-2.7-0.5-5.5-0.8-8.2-1
		c-1.2-0.1-2.5-0.3-3.6,0.7c-0.2,0.2-0.6,0.1-0.9,0.1c-1,0.1-2.1,0.1-3,0.5c-3.5,1.4-7.3,1.9-10.8,3.4c-6.9,3-13.7,6.1-20.1,10
		c-8.5,5.2-14,12.6-16.5,22.2c-0.1,0.2-0.1,0.5-0.2,0.7c-3.4,7.8-4.5,16.2-6.3,24.4c-1.4,6.5-1,13.1,0.5,19.6
		c0.1,0.6,0.3,1.1,0.5,1.7c0.1,0.3,0.3,0.6,0.5,1.1c6.1,1.6,12.4,3,18.9,3.9c0.2-2.5,0.6-4.8,0.2-7.3c-0.3-1.7-0.2-3.4-0.2-5.2
		c0-1.1,0.2-2.3,1.3-3.1c1.1-0.1,1.5,0.6,1.6,1.4c0.2,2.3,0.5,4.6,0.4,6.9c0,3.6-0.4,7.1-0.4,10.7c0,6.6,0,13.2,0.2,19.7
		c0.2,4.8,0.7,9.7,1.2,14.5c0.1,1.3,0.7,2.7,1.2,3.9c1.8,3.8,4,7.3,6.4,10.7c4.7,6.4,9.4,12.9,14.1,19.3c0.5,0.7,1,1.5,1.5,2.3
		c0.5,0.8,1,1.5,0.6,2.6c-0.2,0.4,0.2,1.1,0.5,1.6c1,1.9,2,3.9,3.1,5.8c2.1,3.7,3.3,7.6,4.3,11.6c0.2,0.9,0.6,1.9,0.5,2.7
		c-0.4,1.9,0.4,3.3,1.3,4.8c1.1,1.8,2.2,3.5,3.2,5.3c1,1.8,2.3,3.4,2.7,5.5c0.1,0.6,0.6,1.3,1.1,1.7c1.5,1.4,3,2.9,4.7,4.1
		c1.3,1,2.2,2,2,3.7c0,0.2,0.2,0.4,0.3,0.7c2.8,0,5.6,0,8.5,0c0.3-0.4,0.7-0.8,1.1-1.2c0.4,0.1,0.8,0.1,1,0.3
		c3.9,2.6,8.2,3.5,12.8,3.3c1.4-0.1,2.7,0.1,4.1,0.5c1.2,0.4,2.5,0.6,3.7,0.7c11.4,1.2,22.8,1.9,34.2,1.6c5.7-0.1,11.3-0.9,16.8-1.8
		c2.8-0.5,5.6-0.9,8.6-0.7c3.1,0.3,6.2-0.2,9.3-0.3c1.4-0.1,2.7,0,4.1,0.3c1.3,0.3,2.8,0.2,4.1,0c3.9-0.6,7.7-1.2,11.6-2
		c7.6-1.5,15.3-2.5,23-2.7c4.1-0.1,8.3-0.1,12.4,0.5c4,0.5,8,0.6,12.2,0.9c0.2,0.4,0.4,0.8,0.6,1.2c3,1,6.1,2,9.1,2.9
		c2.3,0.7,4.5,1.7,6.5,3.2c1.1,0.8,2.4,1.3,3.7,1.7c1.8,0.5,3.6,0.9,5.4,1.2c0.6,0.1,1.4,0,2-0.1c2.7-0.6,5.4-1.1,8.1-1.8
		c1.9-0.5,3.6-1.4,5.6-2.2c0.8-1.2,1.7-2.5,2.7-3.9c-0.8-0.8-1.7-0.5-2.4-0.5c-0.8,0-1.6,0-2.4,0c-0.8,0-1.6-0.1-2.3-0.2
		c-0.2-0.9,0.4-1.1,0.9-1.2c1.3-0.1,2.5-0.1,3.8-0.2c1.5-0.2,3-0.3,4.4-0.7c1.7-0.4,3.3-1,4.1-2.8c0.1-0.2,0.3-0.4,0.5-0.5
		c0.3-0.1,0.8-0.2,0.9-0.1c0.3,0.2,0.7,0.8,0.6,1.1c-0.4,1.6-1.3,3-3,3.5c-0.9,0.3-1.7,0.6-2.7,0.9c-0.9,1.7-1.8,3.4-2.8,5.1
		c-0.6,1.1-1.5,1.9-2.7,2.5c-2.8,1.5-5.7,2.4-8.8,2.8c-1.9,0.3-3.8,0.8-5.7,1.3c-1.4,0.4-2.7,0.4-4.1,0.2c-3.4-0.6-6.4-1.9-9.3-3.5
		c-4.3-2.4-8.9-4.4-13.4-6.5c-3.5-1.6-6.9-1.3-10.5-1.1c-1.8,0.1-3.7,0.3-5.5,0.3c-9.1,0.1-18.2,0.8-27.2,2
		c-5.1,0.7-10.3,1.1-15.5,1.3c-3.1,0.1-6.2-0.2-9.3-0.5c-2-0.1-3.9,0.1-5.8,0.5c-5.2,1.1-10.4,2-15.6,2.8c-2.5,0.4-5.1,0.3-7.6,0.3
		c-4.4,0-8.8,0-13.2,0c-5.7,0-11.3-0.5-16.9-1.2c-2.4-0.3-4.8-0.5-7.2-0.8c-4.2-0.5-8.5-1-12.7-1.7c-1.5-0.2-2.9-0.7-4.3-1.2
		c-1.1-0.4-2.2-0.5-3.4-0.4c-1.4,0.1-2.8,0-4.1-0.2c-3.1-0.5-6.1-1-9.2-1.5c-0.3-0.1-0.7-0.1-1,0c-2,0.3-3-0.8-3.8-2.3
		c-1-2.1-2.1-4.1-3.1-6.2c-0.4-0.7-0.7-1.4-1.6-1.7c-1.1-0.3-1.7-1.2-2-2.2c-0.6-1.5-1.2-3-1.7-4.5c-0.8-2-1.5-4.1-2.3-6.2
		c-0.2-0.6-0.5-1.5-1-1.8c-1.5-1-1.7-2.7-2.1-4.2c-1-3.9-1.9-7.8-3-11.7c-1.1-3.9-2.9-7.5-4.9-11c-0.5-0.8-1-1.5-1.7-2.2
		c-5.3-5.1-9.2-11.2-12.7-17.6c-1.9-3.4-3.6-6.9-5.4-10.4c-0.2-0.4-0.5-0.9-0.8-1c-1.5-0.5-1.8-1.7-2-3c-0.3-2.1-0.5-4.1-0.7-6.2
		c-0.3-4.3-0.6-8.5-0.9-12.8c0-0.3-0.2-0.7-0.3-1.1c-2-0.9-3.9-2.2-6.2-2.9c-5-1.5-8.7-4.7-11.1-9.3c-1-1.9-1.8-4-2.7-6
		c-1.5-1.2-3-2.4-5-4c-2-0.5-4.6-1-6.9-2.5c0.1-0.7,0.6-0.6,1-0.5c2.8,0.5,5.7,1,8.7,1.5c0.1-0.8,0.3-1.4,0.2-2
		c-1.7-9.8-1.1-19.6,1-29.2c1.2-5.3,2.2-10.6,3.1-16c1.7-10.5,7.2-18.6,15.9-24.6c9.3-6.4,19.5-10.9,30.7-13.1
		c2-0.4,4.1-0.8,6.2-0.4c0.8,0.1,1.6,0,2.4-0.2c8.1-1.6,16.1-1,23.8,1.9c3.7,1.3,7.3,2.8,10.9,4.3c9.2,3.8,16.7,9.8,22.9,17.4
		c1.2,1.4,2.3,2.9,3.4,4.4c4.6,6.6,6.9,14,6.7,22.1c-0.1,5.1-0.4,10.1-0.6,15.2c0,0.3,0.1,0.6,0.2,1.7c0.5-2.1,1-3.6,1.2-5
		c1.7-8.9,2.8-17.8,2.5-26.8c-0.2-5.9-1.7-11.4-3.9-16.8c-0.4-1.1-0.9-2.1-1.4-3.2c-1.7-4-4.1-7.4-7.1-10.5
		c-3.4-3.5-6.6-7.1-9.9-10.6c-0.8-0.9-1.4-1.8-1.5-3c-0.1-1.3-0.6-2.5-0.8-3.7c-0.6-3.7,0.7-5.6,4.5-6.4c0.4-0.1,0.8-0.1,1.8-0.3
		c-1.3-0.5-2-0.9-2.7-1.1c-2.6-0.9-5.2-2-7.5-3.6c-1.1-0.7-2.3-1.1-3.6-1.2c-1.7-0.1-3.5-0.3-5.2-0.2c-6.6,0.1-13.2,0.2-19.7,0.2
		c-1.8,0-3.7,0-5.5-0.1c-1.2,0-2.3,0.2-3.4,0.6c-4,1.7-8.1,3.4-12.1,5.1c-0.4,0.2-0.7,0.5-1.5,1c3.1,0.3,5.7,0.5,8.3,0.8
		c3.3,0.4,6.6,0.9,9.9,1.5c1.3,0.2,2.6,0.8,3.9,1.4c0.5,0.2,0.8,0.7,1.3,1.1c-0.4,0.2-0.6,0.5-0.7,0.4c-3.1-1.3-6.5-1.7-9.8-2.1
		c-3.8-0.5-7.6-0.7-11.4-1c-1.4-0.1-2.7-0.4-4.1-0.5c-1-0.1-2.1-0.1-3.1,0.1c-3.1,0.9-6.2,1.9-9.2,3c-2.1,0.7-3.9,1.9-5.6,3.3
		c-0.7,0.6-1.4,1.2-2.2,1.6c-0.7,0.4-1.5,0.8-2.2,0.8c-0.6,0-1.2-0.5-1.9-0.7c-5.3,2.8-10.4,6.3-16.6,7.5c1.5,0.5,3,1,4.5,1.4
		c0.3,0.8-0.2,1.1-0.7,1.3c-2.6,1.4-5.3,1-7.5-0.7c-1.9-1.5-4.1-1.8-6.2-1.6c-6.2,0.6-12.4,1.6-18.3,3.6
		c-7.5,2.6-14.4,6.2-20.8,10.7c-0.8,0.5-1.5,1.1-2.1,1.8c-4.1,4-8.6,7.4-13.4,10.3c-6.6,4-13.2,8-19.9,11.9c-2,1.2-3.9,2.5-5.5,4.1
		c-2.5,2.4-5,4.8-7.6,7c-2,1.8-4.2,3.2-6.8,4c-4.6,1.3-9.2,2.7-14.2,2.7c-2.9,0-5.7,0.5-8.6,0.7c-0.5,0.4-0.3,1-0.2,1.5
		c0.1,2.5-0.5,4.8-1.1,7.2c-1.1,4.9-2.3,9.9-3.3,14.8c-1.9,8.9-2.2,17.8-1.3,26.9c0.1,0.8,0.1,1.6,0.1,2.4c0.1,4.4,0.7,8.7,1.9,13
		c1.7,6.1,3.2,12.3,4.7,18.4c0.6,2.2,1.2,4.4,1.6,6.7c0.3,1.4,1,2.6,1.9,3.6c0.6,0.8,1.2,1.7,2,2.4c1.2,1.2,1.9,2.5,1.8,4.3
		c1.6,0.4,3.1,0.3,4.6,0.2c2.4-0.2,4.8-0.7,7.2-0.9c3.3-0.1,6.7-0.1,10,0c5.9,0.2,11.7,0.7,17.6,0.9c2.3,0.1,4.6-0.4,6.9-0.6
		c4.1-0.4,8.3-0.9,12.4-1.2c7.5-0.5,14.8-2.2,22-4.3c11.4-3.4,23-6,34.5-9c6-1.5,11.9-3.5,17.9-5.3c1.1-0.3,2.1-0.7,3.2-0.7
		c0.2,0.9-0.3,1.3-0.8,1.6c-1.1,0.6-2.3,1.1-3.4,1.6c-12.6,5.2-25.5,9.5-38.6,13.1c-6.7,1.8-13.3,3.8-20,5.5
		c-7.3,1.9-14.8,2.4-22.3,2.3c-5.2-0.1-10.4-0.1-15.6-0.1c-1.7,0-3.4,0.3-5.2,0.3c-2.5,0-5.1-0.1-7.6-0.2c-3.2-0.1-6.5-0.2-9.7-0.2
		c-0.5,0-1.1,0.3-1.5,0.4c-0.9,1.5-0.7,2.7,0.4,3.9c0.5,0.5,0.9,1.1,1.3,1.6c1.2,2.1,0.7,4.2-1.4,5.3c-0.5,0.3-1,0.5-1.6,0.7
		c-2.3,0.7-4,2.2-5.4,4.1c-1.7,2.3-3.4,4.7-5.2,6.9c-1.4,1.7-2.9,3.2-4.5,4.8c-0.9,0.9-2.1,1.4-3.5,1.2c-5.6-0.7-11,0.4-16.5,1.5
		c-2.7,0.6-5.4,1.1-8.2,1.2c-0.7,0-1.4,0.1-2.1,0.3c-2.4,0.6-4.8,0.6-7.1-0.6c-0.2-0.1-0.4,0-0.9-0.1c-0.2,0.5-0.3,1-0.5,1.5
		c-0.5,1.3-0.8,2.7-1.4,3.9c-1.8,3.4-3.7,6.7-5.6,10c-1.2,2-2.9,3.5-4.8,4.9c-2.5,1.8-5,2.5-8,2.4c-2.6-0.1-5.3,0.3-7.9,0.4
		c-5.2,0.2-10.4,0.3-15.6,0.5c-6.6,0.3-13.2,0-19.7-0.4c-6.2-0.4-12.4-1.1-18.6-1.7c-4.8-0.5-9.6-1-14.4-1.6
		c-1.1-0.1-2.3-0.4-3.4-0.5c-1.7-0.2-3.3-0.4-5.1,0c-1.9,0.4-3.9,0.3-5.8,0.3c-6.7,0.1-13.4,0.3-20.1,0.1c-4.8-0.2-9.6-1-14.4-1.5
		c-2.4-0.3-4.8-0.6-7.2-1c-2-0.3-2-0.3-3.9-1.5c-0.9,0.5-1.9,1.1-2.9,1.7c-3.1,1.8-6.2,3.6-9.6,4.8c-3.5,1.3-7.1,2-10.9,1.1
		c-1-0.2-2.1-0.2-3.1-0.1c-3.7,0.4-7.3,0.8-10.8,2.3c-0.8,0.4-1.8,0.4-2.7,0.4c-1.6,0.1-3.2,0-4.8,0c-5,0.1-9.6-1.2-13.4-4.8
		c-2.1,0.5-3.7-0.3-5.2-1.8c-0.8-0.8-1.8-1.4-2.7-2.1c-1.6-1.2-3.1-2.3-5-3.1c-2.6-1.1-5.2-2.5-6.7-5.3c-0.2-0.3-0.4-0.6-0.7-0.7
		c-2.2-1-3.5-3-4.9-4.8c-4.2-5.5-8.2-11.1-11.6-17.2c-1.1-1.9-2.3-3.7-3.4-5.6c-0.4-0.6-0.6-1.4-0.9-2c0.9-0.9,1.7-0.3,2.5-0.3
		l-0.1-0.1c0,0.5,0.3,0.8,0.8,0.8l-0.1-0.1c0.1,0.3,0.1,0.7,0.3,0.9c2.4,3,4.2,6.3,5.8,9.8c0.4,0.8,0.9,1.6,1.4,2.4
		c2.9,4.6,6,9,10.3,12.5c0.7,0.6,1.4,1.2,1.5,2.2c0.1,2.2,1.7,3.2,3.5,3.8c1.1,0.4,2.2,0.5,3.3,0.8c3.9,1.1,7.7,2.4,10.8,5.2
		c1.4,1.3,2.9,2.2,4.7,2.6c0.7,0.2,1.3,0.4,1.9,0.7c2.6,1.1,5.3,1.5,8.1,1.5c2.6,0,5.3-0.1,7.9,0.5c0.9,0.2,1.8,0,2.7-0.2
		c2.2-0.3,4.3-0.7,6.5-0.9c1.6-0.2,3.3-0.4,4.8-0.2c4.1,0.7,7.8-0.1,11.4-1.9c3.3-1.6,6.6-3.3,9.8-5.2c6.4-3.6,12.7-7.4,19.5-10.4
		c0.8-0.4,1.6-0.9,2.4-1.4c3.2-1.9,6.3-3.8,9.5-5.7c6.7-4,13.5-8,20.2-12c0.9-0.5,1.9-1.1,2.4-1.9c0.7-1.1,1.6-1.6,2.6-2.1
		c4.9-2.5,10.1-4.6,15.4-6c10.6-2.9,20.9-6.6,31.1-10.3c0.3-0.1,0.6-0.4,0.9-0.6c0.9-4,0.7-8,0.6-12c0-0.6-0.3-1.4-0.7-1.9
		c-2.7-3.3-4.7-7.1-6.7-10.9c-4.2-8-9.6-15.2-15.8-21.8c-1.6-1.7-3.2-3.3-4.8-5c-0.4-0.4-0.6-0.8-1.4-1.8c1.5,0.6,2.3,0.9,3.1,1.2
		l-0.1-0.1c0.5,0.9,1.1,1.5,2.2,1.5l-0.1-0.1c0,0.5,0.4,0.7,0.8,0.8l-0.1-0.1c0.5,0.8,1.2,1.5,2.2,1.5l-0.1-0.1
		c0,0.5,0.3,0.8,0.8,0.8l-0.1-0.1c0.3,0.3,0.5,0.5,0.8,0.8l-0.1-0.1c0.3,0.3,0.5,0.5,0.8,0.8L333.1,341.2z M705.7,285.8
		c-2.7,1.1-3.5,3.6-4.2,6c-1.4,4.3-3.3,8.4-5.5,12.3c-3.8,6.5-8.1,12.6-12.9,18.4c-1.2,1.4-2.4,2.8-3.8,4.1c-2.1,2-4.2,4-7.1,4.7
		c-0.5,0.1-0.9,0.7-1.4,1.1c0.5,2.5,1,5,1.5,7.5c0.8,4.2,1.9,8.3,3.6,12.2c0.6,1.4,1,2.8,1.3,4.3c0.7,3.3,1.2,6.6,1.8,9.9
		c0.8,4.5,0.6,8.9-0.6,13.4c-0.9,3.3-1.7,6.7-1.7,10.2c0,3.1-0.7,6.1-2.5,8.9c0.4,0.3,0.7,0.5,1,0.6c3.1,0.6,6.1,1.2,9.2,1.6
		c8.6,1.1,17,3,25.1,6.2c3,1.2,6.1,2.1,9.3,2.6c1.7,0.2,3.5,0.2,5.2,0.5c7,1,14,1.3,21,1.3c3.2,0,6.4,0.3,9.7,0.5
		c1.5,0.1,3,0.4,4.5,0.4c3-0.1,6-0.4,9-0.6c4.5-0.2,9-0.4,13.5-0.5c1.3,0,2.5,0,3.7-0.4c3.5-1.2,7-2.3,10.5-3.6
		c2.4-0.9,4.8-1.7,7.4-1.5c3.8,0.2,7-1.5,10.8-3.2c-2.6-0.8-4.7-1.1-6.9-0.4c-2.7,0.9-5.4,1-8.2,1c-2.7,0-5.3,0.1-8,0
		c-2.5-0.1-5-0.4-7.6-0.6c-1.8-0.2-3.6-0.6-5.5-0.7c-8.5-0.1-16.7-2-24.5-5.4c-0.7-0.3-1.5-0.5-2.3-0.8c-5.4-1.8-10.7-3.5-16.1-5.4
		c-4.7-1.6-9.3-3.5-14.1-4.6c-0.8-0.2-1.6-0.4-2.4-0.4c-4.7-0.1-8.2-2.6-11.5-5.6c-0.3-0.3-0.7-0.8-0.7-1.2c0-2.5-1.1-4.7-1.4-7.1
		c-0.2-1.5-0.5-3-0.9-4.4c-1.1-3.3-1.6-6.7-1.7-10.2c-0.1-2.1-0.1-4.2-0.4-6.2c-1.2-9.4-2.5-18.7-3.7-28.1c-0.4-3.1-0.3-6.2-0.3-9.3
		c0-1,0.3-2,0.7-3c1-2.9,2.2-5.8,3.1-8.8C703.4,296.1,704.7,291,705.7,285.8c0-0.1,0.1-0.2,0.2-0.3
		C705.8,285.7,705.7,285.8,705.7,285.8z M700.2,288.6c-1.1,0-2.3,0-3.4,0c-0.6,0-1.2-0.4-1.2-1c0-0.5,0.4-1.1,0.8-1.4
		c0.4-0.3,1-0.5,1.6-0.7c4.6-1.3,9.3-2.6,14-3.8c0.9-0.2,1.8-0.2,2.7-0.2c2.2,0,4.4,0,6.6,0c1.5,0,3,0,4.5,0.2
		c1.1,0.1,2.2,0.5,3.5,0.9c-0.1-0.9-0.1-1.7-0.2-2.5c-0.2-1.2-0.6-2.5-0.8-3.7c-0.2-0.8,0-1.6,0.8-2.3c0.9,0.9,1.3,2.1,1.9,3.2
		c-0.5,2.1,1,3.7,1.2,5.6c0.1,0.9,0.5,1.8,0.9,2.6c1.3,2.4,2.8,4.8,4.2,7.1c0.3,0.5,0.8,0.8,1.2,1.2c1.3,1.1,2.6,2.3,3.9,3.3
		c1.9,1.5,3.9,2,6.1,0.8c0.9-0.5,1.9-0.9,2.6-1.2c1.2-1.5,2.2-2.7,3.2-4c1.4-1.9,3.3-2.8,5.6-2.8c1.6,0,3.2-0.3,4.7-1.3
		c0.2-1.2,0.5-2.4,0.7-3.7c-1-0.4-1.8-0.9-2.7-1c-1.7-0.3-2.6-1.3-3.2-2.7c1.6-1.4,2.5-1.5,3.9-0.4c1.5,1.1,2.9,2.2,4.4,3.3
		c1.4,1,2.9,1.3,4.4,0.9c1.5-1.6,2.9-3.1,4.3-4.6c-0.4-0.3-0.6-0.5-0.9-0.6c-2.3-1.1-3.2-2.8-2.6-5.2c0.4-1.8,1.9-2.5,4.2-1.9
		c-0.3,0.9-0.6,1.9-0.9,2.9c0.6,0.6,1.2,1.2,1.7,1.8c0.7,0.8,1.4,1.6,1.8,2.5c0.7,1.6,1.8,2.3,3.3,2.6c2.5-0.8,2.4-0.9,2.9-1.7
		c1.3-2.1,2.6-4.1,3.7-6.2c1.4-2.8,2.5-5.6,3.8-8.5c0.4-0.8,0.8-1.7,1.3-2.5c1.7-3,4.2-4.4,7.8-3.7c0.6,0.1,1.5,0.2,2-0.1
		c1.8-1,3.5-2.1,4.6-4.1c1-2,2.3-4,3.7-5.8c1.7-2.2,3.6-4.2,5.4-6.3c0.6-0.7,1.3-1.3,2.3-1.4c0.4-0.1,0.7-0.4,1.2-0.6
		c-0.5-1-1-1.8-1.4-2.6c-0.5-1.1-0.3-1.4,1.2-2.3c0.1,2.5,1.6,4.1,3.6,5c1.8,0.8,3.4,1.8,5,2.9c1.1,0.8,2.4,1.4,3.6,2.1
		c2.5,1.5,5.3,1.5,8,0.9c0.3-0.1,0.6-0.5,1.3-1c-1.1-0.1-1.8-0.1-2.5-0.1c-0.9-0.1-1.9,0-2.7-0.3c-3.6-1.2-7-3-9.8-5.5
		c-1.2-1.1-2.1-2.4-4-2.4c-0.4,0-0.8-0.7-1.3-1c-0.4-0.2-0.8-0.3-1.2-0.4c-2.5-2.2-5-4.4-7.5-6.6c-0.4-0.4-1-0.6-1.5,0.2
		c0.5,0.8,1,1.7,1.5,2.5c-0.3,0.2-0.6,0.4-0.7,0.4c-1.4-0.6-2.8-1.1-4-1.9c-2.5-1.6-3.2-4.4-4.4-7c-1,0.1-1.9,0.1-2.8,0.4
		c-2.1,0.8-4.1,0.4-6.1-0.2c-5.4-1.5-10.9-2.9-16.6-3.4c-2.2-0.2-4.4-0.4-6.5-0.7c-5.9-0.6-11.5,0.4-16.8,3c-0.5,0.2-1.2,0.6-1.3,1
		c-0.7,1.8-2.2,3.3-2,5.4c0,0.5-0.4,0.9-0.8,1.8c-0.5-0.8-0.9-1.3-1-1.8c-0.2-1.2-0.2-2.5-0.4-3.8c-0.2-1-1.3-1.4-2.1-0.8
		c-0.5,0.3-0.8,0.8-1.3,1.1c-0.7,0.4-1.3,0.2-1.6-0.6c0.5-1.4,1-2.8,1.6-4.2c0.3-0.6,0.7-1.2,1-1.8c1.4-2.3,2.9-4.7,4.2-6.8
		c-0.8-4-1.5-7.7-2.2-11.5c-0.2-1.1-0.2-2.3-1.2-3c-3.2,0-6.3,0-9.4,0.1c-5.5,0.2-9,3.6-9.4,9.1c-0.1,1.5-0.1,3-0.1,4.5
		c0,1.5-0.1,3-0.9,4.4c-0.6,1-0.6,2-0.5,3c0.2,1.7,0.4,3.4,0.7,5.1c0.4,2.5,0.6,2.6,3.3,3.1c0.5,0.1,0.9,0.4,1.4,0.7
		c-0.4,1.2-1.2,1.7-2.1,1.9c-2.2,0.6-3.2,0.3-4.3-1.7c-2.1-3.7-2.4-7.6-1-11.6c0.8-2.2,0.6-3-1.2-4.5c-0.3-0.3-0.7-0.6-1.1-0.9
		c0.8,0,1.6,0,2.5,0c0.5-2.2,1-4.2,0.6-6.4c-1,2.2-2.4,4.1-2.9,6.5c-2.3,0.4-3.9,1.9-5.3,3.5c-0.7,0-1.2,0-1.8,0
		c-1.3,0-2.6-0.3-3.8,0c-1.9,0.4-3.8,0.6-5.8,0.4c-0.9-0.1-1.8,0.2-2.7,0.3c-1.6,0.3-3.2,0.7-4.8,0.8c-4.1,0.3-8.2,1-12.3-0.3
		c-0.7-0.2-1.6-0.1-2.4-0.1c-1.7,0-3.5,0.3-5.2,0.2c-3.3-0.3-6.4,0.5-9.6,1c-0.4,0.1-0.8,0.4-1.2,0.6c-0.5,2.2,0.4,4.2,0.7,6.2
		c0.2,1.2,1.3,1.9,2,2.7c0.8,1,1.7,1.9,2.5,2.8c1.3,1.4,2.6,3,4.1,4.2c8.1,6.5,12.8,15,15.2,24.9c1.1,4.6,1.3,9.4,1.2,14.1
		c-0.1,6.6-1,13.1-2.9,19.4c-1.5,4.7-3.1,9.4-4.5,14.1c-0.6,2-1,4-1.5,6c-0.1,0.2-0.3,0.3-0.4,0.5c0,0,0.1,0.2,0.1,0.2
		c0.1-0.3,0.1-0.5,0.2-0.8c0.7,0.2,1-0.4,1.3-0.8c3.8-5.3,7.4-10.8,10.3-16.6C698.8,293.2,699.8,291,700.2,288.6l0.1-0.2
		L700.2,288.6z M396.1,378c-1.4-0.2-2.6-0.5-3.9-0.7c-1.1-0.1-2.2-0.1-3.2,0.9c-0.8,0.9-2,1-3.2,1c-1.8,0-3.7,0-5.5,0.1
		c-3.7,0.2-7,1.1-9.8,3.7c-1.4,1.3-2.8,2.4-4.2,3.6c-2.5,2-5.2,3.9-8.1,5.3c-2.5,1.2-5,1.8-7.4,0.1c-0.5,0.2-0.8,0.3-1.1,0.4
		c-10.6,4.8-21.7,8.3-33.2,10.7c-1.7,0.4-3.3,1-4.7,2c-5.4,3.6-10.8,7.1-16.2,10.6c-11.2,7.2-22.7,13.8-35.3,18.2
		c-2.9,1-5.5,2.7-8.3,4.8c0.9,0.2,1.4,0.4,2,0.5c2.2,0.3,4.4,0.5,6.5,0.8c3.8,0.5,7.5,1,11.3,1.4c1.7,0.2,3.5,0.3,5.2,0
		c1.9-0.4,3.9-0.5,5.8-0.5c2.5,0,5.1,0,7.6,0c9.3,0.1,18.7-0.3,28,0.7c6.7,0.7,13.3,1.1,20,1.7c6.7,0.6,13.3,1.2,20,1.1
		c2.5,0,5.1,0.1,7.6,0.1c3.6,0,7.2-0.1,10.7,0.1c3.7,0.2,7.3-0.5,11-0.1c0.2,0,0.5,0,0.7,0c1,0,1.8-0.4,2.3-1.3
		c0.5-0.7,0.8-1.4,1.2-2.1c0.1-0.2,0.3-0.3,0.5-0.4c0.4,0.1,0.9,0.1,1.5,0.2c0.9-1.2,1.9-2.5,2.8-3.8c1.3-1.9,2.5-3.9,3.7-5.8
		c3.9-6,5.7-12.5,4.8-19.7c-0.3-2.9-0.6-5.7-0.8-8.6c-0.7-7.9-2.9-15.4-7.1-22.2C397,379.9,396.6,379.1,396.1,378z M566.9,324.8
		c0,0.1-0.1,0.2-0.1,0.3c1.8,4.6,4.8,8.1,9.4,10c1.9,0.8,3.8,1.6,5.2,3.3c0.2,0.3,0.8,0.3,1.2,0.4c0.5-3.5,0.4-10.2-0.1-12.5
		c-5-0.6-10-1.2-15-1.8C567.3,324.5,567.1,324.7,566.9,324.8z M872,406.6c-1.2-0.5-2.5-0.9-3.6-1.6c-1.6-1-3.2-1.7-5-2.1
		c-4.2-0.9-8-2.8-11.7-4.9c-1.8-1-3.6-1.4-5.6-1.1c-0.4,0.1-0.7,0.4-1.3,0.6c2.5,1.6,5,2.4,7.4,3.3c3,1.1,5.9,2.5,9,3.5
		c1.4,0.5,2.3,1.4,2.9,2.4c1.4,0.4,2.6,0.9,3.8,1.1c1,0.2,2,0.3,3,0.3C871.7,408.2,872,407.5,872,406.6z M830.2,226.8
		c1.2,1.3,2.3,1.9,3.9,2.1c0.9-0.7,1.8-1.4,2.7-2.1c0.1-0.1,0.2-0.4,0.3-0.7c-0.9-0.1-1.9-0.3-2.7-0.4c-0.3-1.5,0.2-2.4,1-3.3
		c0.4-0.4,0.6-0.9,1-1.5c-2.3-2-4.4-3.8-6.6-5.7c-0.1-0.1-0.4-0.1-0.7-0.1c-0.2,0-0.4,0.2-0.5,0.3c-0.1,0.2-0.1,0.5,0,0.6
		c0.7,0.4,1.4,0.8,2,1.2c3.2,1.9,3.6,5.8,0.9,8.4C831.1,226,830.8,226.3,830.2,226.8z M787.2,180.5c-0.8-2.4,0.4-4,1-5.8
		c-0.3-0.2-0.5-0.4-0.7-0.4c-1.5,0.2-3,0.5-4.7,1.1c0.7,0.9,1.3,1.6,1.6,2.4c0.3,0.8,0.1,1.7,0.1,2.7
		C785.4,180.5,786,180.5,787.2,180.5z M796.8,219.6c-2.4-1.7-4.8-2.9-7.5-3.3c-1-0.2-1.7,0.1-3,0.8c0.1,0.2,0.2,0.5,0.4,0.5
		c3.1,0.8,6.2,1.6,9.4,2.3C796.2,220,796.4,219.8,796.8,219.6z M803.5,207.3c-0.5-1.5-0.9-2.4-1-3.4c-0.1-1,0-2,0-3.1
		c-0.6-0.6-1.3-1.2-2.4-0.5c0.2,1.1,0.4,2.1,0.4,3.1c0,1-0.2,2-0.4,3.2C801,206.8,802,207,803.5,207.3z M819.1,229.2
		c0.5-2.2-0.4-3.3-1.4-4.2c-1.1-0.9-2.4-1.7-3.2-3c-0.5-0.8-1.5-1.3-2.9-0.6C813.7,224.2,816.2,226.4,819.1,229.2z M787.2,190.1
		c1.6,0.2,2.5,1.2,3.9,1.1c0.5-1.3,0.9-2.5,1.4-4c-1.8-0.2-3.3-0.5-4.9,0.2C787.5,188.2,787.3,189,787.2,190.1z M807,219
		c-2.3-1.2-6.6-2.1-9-1.7c2.7,1.9,5.7,2.1,8.6,2.6C806.8,219.6,806.9,219.3,807,219z M751.2,177.7c0.7-0.2,1.3-0.2,1.8-0.5
		c0.3-0.2,0.7-0.7,0.7-1c0.1-0.6-0.2-1.1-0.8-1.4c-1.3-0.4-2.5-0.2-3.7,0.3c-0.6,0.3-0.7,1.5-0.2,1.7
		C749.8,177.3,750.5,177.5,751.2,177.7z M762.8,188c-0.4-1.1-0.7-2.1-1-3c-0.3-1.1,0.3-2,0.6-3c0-0.1,0.1-0.2,0-0.3
		c-0.1-0.3-0.3-0.7-0.5-0.8c-0.2-0.1-0.8,0.2-0.8,0.4c-0.6,2.3-1,4.6-0.8,6.9C761.3,188.8,762,188.7,762.8,188z M438,286.8
		c-0.5-0.7-0.7-1.2-1-1.3c-1-0.3-2-0.3-3-0.6c-1-0.4-1.8-1.1-3.2-2c0.3,1.2,0.2,1.8,0.9,2.5C433.5,285.6,435.1,287,438,286.8z
		 M807.1,216.4c0.6-1.8,1.2-3.2,1.5-4.6c0.2-0.7-0.1-1.3-1.3-1.2c-0.5,1.4-0.6,3.1-1.8,4.2c-0.1,0.1,0,0.4,0,0.8
		C805.9,215.9,806.4,216.1,807.1,216.4z M751.4,197.4c0.1,1.1-0.3,2.2,0.8,3.1c1.8-0.5,2.2-1.1,1.8-2.5
		C753.7,197,753,196.8,751.4,197.4z M828.6,205.5c-0.9-1.6-1.4-2.7-2.7-3.4c-0.4,1.1-0.7,2-1.1,3.1
		C825.9,205.3,826.9,205.4,828.6,205.5z M801.5,168.4c0.1-0.1,0.3-0.2,0.4-0.3c-0.7-0.8-1.3-1.7-2.1-2.5c-0.3-0.3-0.8-0.5-1.2-0.5
		c-0.4,0-1,0.2-1.1,0.5c-0.1,0.3,0.1,1,0.3,1.1C799,167.3,800.3,167.9,801.5,168.4z M778.9,167c-1.7-0.8-3-0.2-4.4,0.1
		c-0.2,0.1-0.6,0.6-0.5,0.7c0.2,0.4,0.6,0.8,0.9,0.8C776.3,168.6,777.7,168.2,778.9,167z M744.1,178.5c0-1.2-0.5-1.8-1.4-1.7
		c-1.1,0.2-2.1,0.8-2.7,1.9C741.7,179.3,741.7,179.4,744.1,178.5z M780.1,217.6c-0.5-1.3-1.4-1.7-2.5-1.6c-0.7,0-1.4,0.2-1.5,1.2
		C777.3,217.8,778.6,217.9,780.1,217.6z M733,198.2c-0.9-0.7-1.7-0.6-2.3,0c-0.8,0.7-1.3,1.7-0.9,3.1
		C731.2,200.4,732,199.2,733,198.2z M753,211.4c1.4-0.9,1.5-2.2,0.3-4.4C752.7,208.6,752.7,209.9,753,211.4z M729.3,192.3
		c1.8-0.5,3-0.7,3.9-1.8c0.1-0.1,0.2-0.4,0.1-0.6c-0.1-0.2-0.3-0.4-0.4-0.5C731.5,189.3,730.5,190.1,729.3,192.3z M750.7,188.8
		c0.7,1,1.5,0.8,2.2,0.4c0.9-0.5,1.1-1.3,1-2.8C752.3,186.9,751.4,187.7,750.7,188.8z M845.2,231.1c-2.7-0.1-2.7-0.1-3.7,0.8
		c1.1,0.7,2.2,1.1,3.6,1.1C845.1,232.4,845.1,231.9,845.2,231.1z M776.2,207.6c1.5,0.2,2.5,0.8,3.5,0.2c0.3-0.9,0-1.5-0.8-1.6
		C778,206.1,777.1,206.4,776.2,207.6z M771.6,202.1c-0.9,0.7-1.6,1.2-1.3,2.3c1,0.3,2,0.8,2.8-0.7
		C772.6,203.2,772.1,202.7,771.6,202.1z M784.9,164.9c-0.2,0.9,0.1,1.5,0.9,1.7c1.2,0.3,1.9-0.4,2.2-1.7
		C786.9,164.2,785.9,164.3,784.9,164.9z M767.5,164.3c2.1,0.3,3.4,0.6,4.6-1.1C770.5,163.1,769.3,162.9,767.5,164.3z M810.1,224.2
		c-0.2,0.3-0.4,0.6-0.3,0.7c0.5,0.7,1,1.4,1.6,2c0.2,0.2,0.7,0,1.4,0C811.9,225.6,811.3,224.6,810.1,224.2z M763.6,209.4
		c2.7,0.3,2.7,0.3,4-0.8c-0.3-0.1-0.6-0.4-0.9-0.3C765.6,208.3,764.6,208.4,763.6,209.4z M739.3,193.3c1,0.5,1.7,0.4,2.4-0.2
		c0.1-0.1,0.2-0.4,0.2-0.6c-0.1-0.2-0.3-0.4-0.5-0.4C740.5,191.9,739.8,192.2,739.3,193.3z M784.3,183c-1.5-0.9-1.5-0.9-2.2,0.1
		C782.8,183,783.4,183,784.3,183z M777.5,162.7c-0.5-0.2-0.8-0.5-1.2-0.5c-0.1,0-0.5,0.5-0.4,0.7c0,0.5,0.4,0.8,0.9,0.7
		C777,163.5,777.1,163.1,777.5,162.7z M756.5,214.7c0.3-0.4,0.6-0.7,0.9-1c-0.3-0.2-0.5-0.5-0.8-0.5c-0.5,0-1,0.2-0.9,0.8
		C755.8,214.1,756.2,214.3,756.5,214.7z M722.2,208c-0.2-0.2-0.4-0.6-0.6-0.5c-0.2,0-0.7,0.3-0.7,0.5c0,0.4,0.2,0.8,0.3,1.1
		c0,0,0.3,0,0.3,0C721.8,208.8,722,208.4,722.2,208z M715,203c-0.3,0.5-0.7,0.9-0.9,1.4c-0.1,0.1,0.1,0.5,0.2,0.6
		c0.1,0.1,0.5,0.1,0.6-0.1C715.4,204.4,715.7,203.8,715,203z M756.5,220.3c-0.3-0.1-0.4-0.2-0.5-0.2c-0.4,0-0.9-0.1-1,0.5
		c0,0.1,0,0.2,0.1,0.3c0.4,0.4,0.8,0.1,1.1-0.2C756.3,220.7,756.3,220.6,756.5,220.3z M768.8,216.3c1.7,0.2,1.7,0.2,2.4-0.8
		C770.3,215.8,769.8,215.9,768.8,216.3z M796,166c-0.4-0.5-0.7-0.8-1-1.1c-0.1-0.1-0.5,0.2-0.5,0.2c0.1,0.4,0.2,0.8,0.4,1.1
		C794.9,166.4,795.4,166.2,796,166z M823.3,226.9c-0.2-0.1-0.5-0.3-0.7-0.5c-0.1,0.2-0.3,0.5-0.4,0.7c0.3,0.1,0.5,0.3,0.8,0.3
		C823,227.5,823.1,227.1,823.3,226.9z M779.4,172.8c-0.3-0.1-0.5-0.3-0.6-0.2c-0.3,0.1-0.5,0.4-0.7,0.6c0.2,0.1,0.4,0.2,0.6,0.2
		C778.9,173.3,779.1,173,779.4,172.8z M769.8,198.9c0,0.1,0.1,0.3,0.1,0.3c0.3,0.2,0.6,0.3,0.9,0.4c0.1-0.2,0.2-0.5,0.1-0.5
		c-0.3-0.2-0.6-0.3-0.9-0.4C770,198.7,769.9,198.9,769.8,198.9z M765.1,198.2c-0.1,0.1-0.1,0.2-0.2,0.2c0.1,0.1,0.3,0.1,0.4,0.1
		c0,0,0.1-0.2,0.1-0.3C765.3,198.3,765.2,198.2,765.1,198.2z"/>
	<path d="M36,416.7c-1.7,0.9-3.1,0.4-4.2-1.1c-0.3-0.5-0.7-1-0.9-1.5c-1.5-3.5-3-7-4.3-10.6c-0.7-1.8-1-3.8,0.5-5.6
		c0.4-0.5,0.5-1.3,0.6-2c0.4-2.5,1.3-4.9,2.5-7.2c4.2-8,9-15.6,15.7-21.8c0.4-0.4,1-0.7,1.2-1.2c0.8-2,2.6-2.8,4.3-3.7
		c3.5-1.8,7-3.5,10.8-4.7c3.3-1.1,6.6-2.2,9.8-3.5c8.2-3.4,16.7-4.3,25.4-3.3c1.6,0.2,3.2,0.1,4.8-0.2c3.4-0.7,6.9-0.9,10.3-0.9
		c5.9,0.1,11.8-0.2,17.6-1c1.4-0.2,2.8-0.2,4.1-0.1c3.3,0.3,6.3-0.9,9.3-2.1c0.1,0,0.1-0.2,0.2-0.5c-0.9-0.4-1.7-0.9-2.6-1.3
		c-1.6-0.7-3.3-1-4.7-1.9c-3.3-2.1-6.4-4.5-8.4-8.1c-2.7-5-3.4-10.2-2.4-15.7c0.3-1.5,0.7-2.9,0.9-4.4c0.3-1.8,0.7-3.6,0.8-5.5
		c0.1-3.2,0.6-6.2,2-9.1c2.1-4.3,1.6-8.8,1.6-13.2c0-0.3-0.1-0.7-0.2-1c-1.6-2.2-2.5-4.9-4.6-6.9c-3.7-3.4-5-7.7-5.2-12.7
		c-0.3-7.4,2.2-13.5,7.3-18.8c0.8-0.8,1.6-1.7,2.3-2.6c2.5-3.2,5.7-5.3,9.4-6.9c1.8-0.8,3.7-1.1,5.7-0.5c1.4,0.4,2.9,0.6,4.4,1
		c0.8,0.2,1.4,0.9,0.9,2c-0.9,0.4-1.3-0.6-2-0.7c-2.8-0.2-5.5-0.3-8.1,1c-4.8,2.4-9,5.5-11.9,10.2c-2.8,4.5-4,9.3-3.6,14.5
		c0.5,7.2,3.1,13.7,7.9,19.1c0.1,0.2,0.2,0.4,0.4,0.8c-0.9,1.6-0.5,3.4-0.3,5.2c0.1,1.1,0.1,2.3,0.3,3.4c0.2,1.5-0.1,3-0.7,4.4
		c-0.5,1.4-1.1,2.8-1.6,4.2c-0.8,2.1-1.3,4.2-1.4,6.4c0,1.1-0.2,2.3-0.4,3.4c-0.6,3.9-1.5,7.7-1.8,11.6c-0.3,3.9,0.9,7.6,3.6,10.5
		c2,2.2,4.3,4.1,7.2,5.1c2.5,0.9,4.6,2.6,7.2,3.3c1.2,0.3,1,1.7,1.7,2.5c2-0.5,4-0.9,6.1-0.4c0.5,0.1,1.2,0,1.6-0.3
		c2.9-2,6.3-2.7,9.6-3.2c3.3-5.6,6.1-17.8,5-22.8c-0.9,0.7-2.1,1-2.1,2.5c0,1.4-0.9,2-2,2.5c-0.2,0.1-0.4,0.2-0.6,0.3
		c-3.9,0.6-7.8,0.7-11.6-0.8c-0.5-0.2-1-0.6-1.5-0.9c-0.2-0.2-0.4-0.6-0.5-0.8c0.1-0.9,0.7-1.2,1.4-1.3c0.8-0.1,1.6-0.2,2.9-0.3
		c-3.8-1.6-7.3-2.7-9.3-5.8c0.2-1.3,0.9-1.6,1.8-1.6c0.6,0,1.2,0.1,1.7,0.2c0.9,0.2,1.8,0.4,2.7,0.7c4.5,1.6,9.2,2,14,1.7
		c1.1-0.1,2.2,0.1,3.5,0.2c0-0.6,0-1.2,0-2c-1.3-0.4-2.7-0.4-4-0.1c-1,0.3-2,0.6-3,0.6c-5-0.1-9.5-1.5-13.7-4.2c-1.5-1-2-2-1.5-2.7
		c0.7-1,1.8-0.8,2.8-0.6c1.2,0.3,2.4,0.7,3.6,1.1c2.5,0.7,5.1,1.3,8.5,1.4c-3.6-1.8-6.7-3.3-9.8-4.8c-0.7,0.1-1.5,0.3-2.2,0.1
		c-0.7-0.2-1.4-0.8-1.9-1.4c-1.3-1.4-1.9-3.2-2-5.1c-0.3-4.5-0.2-9,2-13c-0.8-3.2-0.5-4.4,2.1-5.8c1.9-1.1,3.9-2,5.9-2.8
		c1.6-0.6,2.8-1.5,3.5-3c0.9-2.1,2.5-3.6,4.4-4.8c1.9-1.2,3.8-1.6,6.1-0.3c-0.1,0.5-0.2,1-0.2,1.5c0.3,0.2,0.5,0.5,0.8,0.6
		c1.9,0.3,3.8,0.8,5.8,0.9c4.2,0.4,8.5,0.5,12.8,0.9c4.3,0.5,8.5,0.5,12.8,0.5c4.1,0,8.3,0,12.4-0.8c3.5-0.6,7.1-1,10.7-0.9
		c7.7,0.2,15.4,1,22.8,3.7c1,0.4,2,0.7,2.9,1.2c3.7,2.3,7.5,4.5,10.8,7.4c5.7,4.9,11.1,10,16.4,15.4c0.7,0.7,1.7,1.2,2.5,1.8
		c1.7,1.2,3.5,2.3,5.1,3.5c4.7,3.6,10,5,15.9,4.9c0.9,0,1.8-0.5,2.6-0.9c2.4-1.1,4.7-2.4,7.1-3.5c0.9-0.5,1.9-0.9,2.9-1.2
		c0.6-0.2,1.3,0,2.1,0c-1.9,2.1-1.9,2.2-11.6,7.1c-4,2-8.1,3.8-12.3,5.8c0.8,0,1.5,0.1,2.2,0.1c2.5,0,5.1,0,7.6,0
		c6.5,0.1,12.9-0.8,19.3-1.7c3.4-0.5,6.8-1.2,10.3-1c0.8,0.1,1.7-0.1,2.1,0.9c-0.1,0.1-0.3,0.3-0.4,0.3c-4.8,0-9.4,1-14.1,1.8
		c-8.9,1.5-17.8,2.2-26.9,1.4c-0.2,0-0.4,0.1-0.9,0.2c0.4,0.3,0.7,0.7,1,0.7c4.7,1.1,9.5,2,14.2,3.1c1.7,0.4,3.3,1.1,4.8,1.9
		c6,3.2,11.8,6.8,16.9,11.3c1.5,1.4,2.9,3,4.3,4.5c0.4,0.4,0.6,0.9,1,1.6c-0.6,0.2-1,0.4-1.4,0.5l0.1,0.1c0-0.5-0.3-0.8-0.8-0.8
		l0.1,0.1c-0.3-0.3-0.5-0.5-0.8-0.8c0,0,0.1,0.1,0.1,0.1c-0.3-0.3-0.5-0.5-0.8-0.8l0.1,0.1c-0.6-0.7-1.2-1.4-2.2-1.5l0.1,0.1
		c-0.3-0.3-0.5-0.5-0.8-0.8l0.1,0.1c-0.5-0.9-1.1-1.5-2.2-1.5l0.1,0.1c-0.2-0.3-0.2-0.7-0.5-0.9c-4.7-3.5-9.7-6.6-14.9-9.4
		c-0.8-0.4-1.7-0.6-2.6-0.8c-2.4-0.4-4.8-0.8-7.1-1.2c-3.5-0.6-7-1.1-10.6-1.6c-2.1-0.3-4.1,0.1-5.8,1.5c-1.2,1-2.7,1.8-4.1,2.6
		c-6.4,3.7-12.7,7.4-19.1,11.1c-0.8,0.4-1.7,0.8-2.6,0.9c-1.7,0.3-2.9,1.3-3.8,2.7c-0.5,0.8-0.8,1.7-1.5,2.3
		c-0.7,0.7-1.7,1.1-2.5,1.6c-0.1,0.1-0.1,0.2-0.1,0.2c0.1,0.5,0.2,0.9,0.2,1c-1.6,2.1-3,3.9-4.4,5.7c-0.4,0.4-0.7,0.9-1.2,1.2
		c-4.7,3.6-9.3,7.1-14,10.7c-1.2,0.9-2.5,1.6-4.1,1.8c-0.9,0.1-1.5,0.4-2.1,1c-3.3,2.9-6.9,5.4-11.1,6.9c-0.4,0.2-0.8,0.4-1.2,0.6
		c-3.2,2.1-6.7,3.5-10.1,5.2c-0.3,0.2-0.8,0.1-1.6,0.2c1.1-1.4,2.1-2.5,2.8-3.6c1.9-2.9,4.7-4.7,7.8-6c0.6-0.3,1.2-0.6,2.1-0.9
		c-3.8-4.2-8-7.1-13.5-8c-2.4-0.4-4.8-0.9-7.2-1.2c-5-0.6-9.9-0.7-14.7,0.9c-4.9,1.7-9.9,3.2-14.9,4.8c-2.7-1-3-1-5.6-0.7
		c-1.1,0.1-2.3,0.2-3.4,0.3c-4.3,0.3-8.4,1.5-12.2,3.5c-3.6,1.9-6.1,4.8-8,8.3c-1.1,2.1-1.1,4.2-0.7,6.4c0.4,2.1,1.6,3.5,3.7,4.2
		c0.9,0.3,1.7,0.7,2.5,1.1c0.6,0.3,1,0.9,1,1.7c0,0.5-0.7,1,0,1.8c2,0.8,4.2,1.8,6.4,2.7c0.2,0.4,0.5,0.6,0.7,0
		c1.5,1.5,3.2,2.9,4.6,4.6c1.2,1.5,2.2,3.2,3.2,4.8c0.3,0.4,0.2,1,0.4,1.7c-1.3-0.8-2.4-1.5-3.4-2.1c0,0,0.1,0.1,0.1,0.1
		c-0.3-0.3-0.5-0.5-0.8-0.8l0.1,0.1c-1.4-1.1-2.8-2.3-4.3-3.4c-0.8,0.9-1.4,1.8-2.1,2.3c-0.7,0.5-1.6,0.8-2.5,1.1
		c-3.8,1.4-7.7,2.1-11.8,2.2c-6.3,0.2-12.6,1.5-18.6,3.5c-3.9,1.3-7.8,2.8-11.6,4.5c-6.8,3-13.9,4.8-21,6.8
		c-4.3,0.3-8.2,2.2-12.5,2.6c-1.6,0.1-3.2,0.4-4.8,0.5c-3.7,0.1-7.4,0.1-11.1,0c-3.4-0.1-6.7-0.6-9.9-1.4c-1.4-0.4-2.8-1-4.2-1.6
		C36.6,419.3,36,418.1,36,416.7c1.3-0.4,2.6-0.2,4,0.2c1.6,0.5,3.3,1,5,1.1c3,0.3,6,0.5,9,0.5c8.1,0.3,16.1-0.7,24.1-1.1
		c0.7,0,1.3-0.3,2-0.6c2.2-0.9,4.4-1.9,6.7-2.7c5.7-1.9,11.2-4.2,16.5-7c1.3-0.7,2.8-1.1,4.2-1.6c1.1-0.4,2.2-0.6,3.3-1
		c7.4-2.5,14.9-4,22.7-3.9c1.5,0,3-0.3,4.4-0.6c2.6-0.6,5.1-1.3,7.8-2c-0.9-0.9-1.8-1.5-3-1.6l0.1,0.1c-0.9-0.5-1.7-1.2-2.6-1.6
		c-1.2-0.6-2.6-1-3.8-1.7c-1.1-0.7-1.9-1.9-3-2.7c-2.4-2-3.1-4.4-2.4-7.4c0.5-2.2,0.8-4.5,1.2-7c-1.2,1.1-2.3,1.9-3.2,2.9
		c-1.8,1.7-3.2,3.7-3.2,6.3c0,0.3-0.2,0.6-0.3,0.8c-1.3,0.2-1.9-0.4-2.1-1.4c-0.1-0.9-0.1-1.9,0.2-2.7c0.5-1.2,1.2-2.6,2.2-3.5
		c1.4-1.3,2.3-2.8,3.1-4.5c0.9-2.1,1.8-4.2,2.6-6.4c0.5-1.4,1.2-2.7,2.4-3.7c1.9-1.6,3.8-3.4,5.7-5c0.2-0.1,0.4-0.2,0.7-0.3
		c0.5,0.2,1,0.3,1.6,0.5c3.7-1.5,3.7-1.5,9.7-0.7c1.3-2.4,3.6-1.8,5.7-1c2.1,0.8,4.2,1.9,6.2,3c0.9,0.5,1.7,1.1,2.6,1.8
		c6.5-3.9,13.4-6,21.2-5.6c-0.7-3.1-2.3-5.4-4.7-6.8c-2.2-1.3-4.5-2.3-7-3c-4.7-1.3-9.6-0.9-14.4-0.3c-3.4,0.4-6.8,1.3-10.3,0.4
		c-0.6-0.2-1.4,0.1-2,0.3c-2.9,0.9-5.7,1.8-8.5,2.8c-2.8,1-5.7,1.9-8.7,1.6c-1.1-0.1-2.3,0.2-3.4,0.4c-4.2,0.6-8.5,1.1-12.7,1.1
		c-3.6,0-7.2,0-10.7-0.1c-1,0-1.7,0.4-2.3,0.7c-1.3-0.2-2.4-0.6-3.5-0.6c-2-0.1-3.9,0-5.9,0c-6.4,0.1-12.6,1.2-18.5,3.9
		c-4.8,2.2-9.9,3.9-15,5.2c-1.6,0.4-3.3,0.5-4.6,1.2c-1.4,0.7-2.3,2.2-3.5,3.3c-4.7,4.2-8.7,8.9-12,14.2c-1.5,2.5-3,4.9-4.4,7.4
		c-0.9,1.6-1.7,3.3-2.6,4.9c-0.9,1.7-1.9,3.4-2.6,4.7c1.6,5.6,3.6,10.7,6.1,15.5C36.6,414.4,36.5,415.6,36,416.7z M134.4,370.3
		c3.7-4.2,8.3-6.8,13.8-7.9c2.5-0.5,5-0.5,7.2-0.8c-5.4-1.9-5.4-1.9-8.8-1.4c-0.6,0.6-1.2,1.2-1.9,2c-0.2-0.9-0.4-1.5-0.6-2.1
		c-3.1,1.1-5.1,3.5-7.5,5.4C135,366.7,134.3,368.3,134.4,370.3l-0.1,0.1L134.4,370.3z M151.8,301.8c1.1,0.5,1.9,0.9,2.6,1.2
		c2.9,1.3,5.7,3.1,9.1,2.6c0.2,0,0.5,0.1,0.7,0.2c1.2,0.7,2.4,0.6,3.7,0.3c0.7-0.2,1.4-0.2,2-0.2c0.7,0.5,1.4,1,2.1,1.3
		c1.2,0.6,1.5,1.6,1.1,2.6c-0.5,1.4-0.4,2.7-0.4,4.1c0.1,4.5,0,9-0.9,13.4c-0.3,1.2-0.7,2.5-0.8,3.7c-0.2,3.3-0.5,6.6-1.3,10
		c1.6,0.4,3.2,0.7,4.7,1.3c2.7,1,5.3,2.2,8,3.3c4.2,1.7,6.6,4.9,7.4,9.3c0.1,0.7,0.3,1.3,0.4,2.1c1.2-0.1,2.2-0.3,3.2-0.4
		c3-0.3,6-0.6,9,0c5.5,1,9.8,3.9,13.1,8.3c0.6,0.8,1.2,1.6,1.9,2.4c2.5-1.2,4.5-2.7,6.4-4.5c0.7-0.7,1.5-1.4,2.4-1.1
		c1.3,0.4,2.2-0.1,3.2-0.8c3.1-2.2,6.2-4.5,9.2-6.7c0.5-0.4,1-0.9,1.4-1.5c2.7-4,5.8-7.7,9.3-11.4c-4-4.3-8.5-7.9-11.6-13.1
		c-3,0.1-6-1.2-9.2-0.3c-1,0.3-2.3,0-3.4-0.4c-2-0.6-3.9-1.3-5.8-2.2c-3.1-1.5-6.2-3.2-9.1-5c-7.8-4.9-16.1-8.5-24.7-11.7
		c-1.1-0.4-2.2-0.6-3.4-0.8c-5.5-0.8-10.7-2.5-15.8-4.9c-3.4-1.6-5.4-4.2-5.9-7.9c-0.1-1-0.3-2.1-0.2-3.1c0.1-2,0.1-3.9,0.4-5.9
		c0.9-4.9,3.2-9.1,6.8-12.5c0.8,0,1.5,0,2.2,0c0.7-0.1,1.1,0.1,1.1,0.9c-2.4,1.5-4.1,3.6-5.4,6.1c-2.2,4.2-2.4,8.6-1.9,13.1
		c0.1,0.6,0.3,1.1,0.6,1.6c1.4,2.3,2.7,4.5,4.1,6.8c3.3,1.5,6.5,3,10.2,2.8c0.7,0,1.4,0.1,2.1,0.2c7.2,1,14.2,2.8,20.7,6.3
		c1.5,0.8,3.1,1.6,4.6,2.4c2.5,1.3,4.8,2.7,6.9,4.6c1.4,1.3,3,2.2,4.8,2.6c3,0.8,6,1.5,9,2.3c0.9,0.2,1.9,0.2,2.7,0.7
		c1.9,1,4,1.1,6,1.2c1.2,0.1,2.3,0.1,3.5,0.2c1.5,0.2,3,0.3,4.5,0.6c1.2,0.2,1.5,1,1.2,2.3c-0.1,0.3-0.1,0.6-0.1,0.8
		c2.7,2.6,5.3,5,7.9,7.5c0.5,0.4,1.1,0.8,1.7,1.2c8.7-5.9,17.9-10.6,27.1-15.7c-0.4-0.4-0.7-0.6-1-0.8c-0.8-0.5-1.1-1.2-0.9-2
		c0.3-1,1.1-1.5,2.1-1.6c0.7-0.1,1.4-0.1,2.1-0.1c1.5,0,3,0,4.5-0.1c1,0,1.6-0.5,2-1.6c-0.6,0-0.9,0.1-1.2,0.1
		c-0.3,0-0.6-0.2-1.4-0.5c3.2-1.7,6.3-2.7,9.3-4.5c-1.7-0.4-3-0.8-4.3-1.1c-3.8-0.9-6.9-3.1-10.1-5c-0.2-0.1-0.3-0.3-0.4-0.5
		c-1-2.3-3-3.8-4.8-5.4c-4.1-3.6-8.3-7-12.3-10.6c-3.6-3.2-7.5-6-11.9-8.3c-2.6-1.4-5.2-2.5-7.9-3.3c-5-1.5-10.1-2.2-15.3-2.7
		c-4.4-0.4-8.7-0.8-13.1-1.1c-1.1-0.1-2.3,0-3.4,0.2c-7.6,1.3-15.2,1.2-22.8,0.7c-4.7-0.4-9.4-1-14.1-1.1c-1.4,0-2.8-0.2-4.1-0.5
		c-2.3-0.5-2.5-0.7-4-3c-0.6,0.4-1.2,0.7-1.7,1.1c-0.7,0.6-1.3,1.3-1.9,2c-1.9,2.5-4,4.6-7.2,5.7c-1.8,0.6-3.7,1.3-5.2,2.8
		c0.7,1.9,0.7,3.7,0.2,5.5c-1,3.7-1.1,7.5-1,11.3C151.2,299,151.6,300.4,151.8,301.8z"/>
	<path d="M362,281.1c0.5,0.4,1.1,0.8,1.5,1.3c0.9,1.1,1.6,2.2,2.4,3.4c3.3,4.7,7.2,8.6,11.7,12.2c2.2,1.7,4.3,3.5,6.5,5.2
		c5.1,4.1,7.6,9.4,7.3,16c-0.1,3-0.2,6-0.3,9c0,0.6,0.1,1.4-1,1.7c-0.1-0.8-0.2-1.6-0.3-2.4c-0.6-3.9-2-7.5-3.4-11.2
		c-1.8-4.6-4.6-8.1-8.5-11c-7.5-5.4-12.2-13.1-16-21.3C361.6,283,361.2,282.1,362,281.1z"/>
	<path d="M360.7,295.6c0.4-1.3-0.6-2.7,0.3-3.9c0.3,0.1,0.6,0,0.7,0.2c1,1.6,2.2,3.1,2.5,5.1l0.1-0.1c-0.6,0.5-0.5,1,0,1.5l-0.1-0.1
		c0.2,1.3,0.4,2.6,1.4,3.5c0,0.1,0.1,0.2,0.1,0.2c0,0,0.1,0,0.2,0c-0.1-0.1-0.2-0.1-0.4-0.2c0-0.7,0.1-1.4,0.1-2.2l-0.1,0.1
		c1.3,1,1.8,2.5,1.1,3.9c-0.5,1.1-0.2,2,0.1,2.9c1.8,5.3,4,10.5,6.6,15.6c3,5.7,5.6,11.6,8,17.6c1.1,2.8,1.8,5.7,2,8.7
		c0.1,0.9,0.2,1.8-1,2.5c-2.3-2.9-4.2-6-5.6-9.4c-3.7-8.8-7.1-17.7-9.8-26.9c-1-3.3-2-6.6-3-9.9c-0.8-2.7-1.7-5.3-3.2-7.6
		c-0.3-0.5-0.5-1-0.7-1.5l-0.1,0.1C360.3,295.6,360.6,295.5,360.7,295.6c0.1,0,0.1,0.1,0.2,0.2c0,0,0.1,0,0.2,0.1
		C361,295.7,360.9,295.6,360.7,295.6z"/>
	<path d="M510.2,339.7c-1.7,0.2-3.6,0.5-5.4,0.6c-1.8,0.2-3.5,0.9-5.3,0.3c0.1-1,0.8-0.9,1.3-1.1c2.9-1,5.9-0.9,8.8-1.1
		c0.6,0,1.3,0.3,2,0.6c4.3,1.4,8.5,3,12.8,4.2c4.7,1.2,9.5,2,14.2,2.9c1.6,0.3,3.1,0.7,4.7,1.1c1.4,0.4,2.2,1.3,2.1,2.9
		c-1.3,0.4-2.7,0.5-3.8-0.4c-0.8-0.7-1.6-0.8-2.5-1c-4.5-0.5-8.9-1.2-13.2-2.3C520.4,345,515,343.2,510.2,339.7z"/>
	<path d="M392.3,339.7c0.3,0.8,0.6,1.1,0.7,1.6c0.2,1,0.3,2.1,0.3,3.1c-0.1,5.1,1.1,10,2.6,14.9c1.2,4,2.3,7.9,3.3,11.9
		c0.3,1,0.2,2,0.1,3c0,0.2-0.4,0.6-0.7,0.7c-0.3,0.1-0.8,0-0.9-0.2c-0.6-1-1.3-1.9-1.6-3c-1-3.2-1.9-6.4-2.7-9.6
		c-1.2-4.7-2.5-9.3-2.5-14.2c0-2.1,0.2-4.1,0.4-6.2C391.4,341.1,391.9,340.6,392.3,339.7z"/>
	<path d="M458.5,292.5c1.2,0.7,1.2,1.6,1.2,2.3c0.1,1.6,0.1,3.2,0.1,4.8c0,8.7,0,17.5,0,26.2c0,4.3,0.4,8.5,1.4,12.7
		c0.3,1.2,0,2.9,1.8,3.3c0.1,0.7,0.3,1.3,0.2,2c0,0.4-0.4,0.9-0.8,1c-0.3,0.1-1-0.1-1.2-0.4c-0.4-0.7-0.8-1.4-1-2.2
		c-0.7-2.8-1.4-5.6-1.8-8.4c-0.4-3.4-0.7-6.9-0.7-10.3c0-9.7,0.2-19.3,0.4-29C458.3,293.9,458.4,293.4,458.5,292.5z"/>
	<path d="M402.4,309.6c0.1-3.3,0.3-6.7,0.3-10c0-4.6-0.1-9.2-0.4-13.8c-0.2-3.8-1.5-7.4-3.3-10.6c0.4-0.8,0.9-0.6,1.2-0.3
		c0.8,0.8,1.7,1.6,2.3,2.6c1.5,2.4,2.3,5,2.7,7.8c0.8,6.1,1.1,12.2,0.2,18.3c-0.3,1.8-0.9,3.6-1.4,5.3c-0.1,0.4-0.5,0.7-0.8,1
		C402.8,309.7,402.6,309.6,402.4,309.6z"/>
	<path d="M422.7,366.4c0.9,1.1,1,2.2,1.1,3.4c0.7,12.4,0.5,24.8-2,37.1c-0.6,3-1.5,6-2.3,9c-0.1,0.2-0.5,0.4-0.8,0.5
		c-0.7-1.3-0.3-2.6-0.1-3.8c0.7-4.7,1.5-9.3,2.1-14c0.4-3.2,0.8-6.4,1-9.6c0.4-7,1.1-14,0.9-21C422.4,367.6,422.6,367.2,422.7,366.4
		z"/>
	<path d="M172.1,266.8c-0.5-0.4-1.1-0.7-1.5-1.1c-1.4-1.6-2.5-3.3-4-4.8c-3.2-3.3-6-6.9-8.1-11.1c-0.9-1.8-2.6-3.2-3.9-4.8
		c-0.9-1.2-1.8-2.4-2.6-3.6c-0.2-0.3-0.1-0.9,0.1-1.3c0.4-0.5,1-0.5,1.5-0.3c0.6,0.3,1.2,0.7,1.7,1.2c1,1,1.9,2,2.8,3
		c2.2,2.3,3.9,4.9,4.7,7.9c0.5,1.8,1.5,3.3,2.9,4.6c2.4,2.3,4.5,5,6.3,7.8C172.4,265.2,172.9,265.9,172.1,266.8z"/>
	<path d="M549.5,373c0.6,1.1,0.1,1.5-0.3,1.8c-2,1.2-3.9,2.5-6,3.5c-4.6,2.2-9.4,3.8-14.4,4.9c-3,0.6-5.9,0.7-8.9,0.3
		c-0.6-0.1-1.1-0.6-1.7-0.9c0.6-1.1,1.6-1.1,2.5-1.3c2.7-0.4,5.5-0.6,8.2-1.2c6.2-1.3,12.2-3.3,17.9-6.1
		C547.7,373.7,548.5,373.4,549.5,373z"/>
	<path d="M601.6,289.7c1.8,0,2.7,0.8,3.2,2.5c0.6,2.2,1.6,4.3,2.3,6.5c0.1,0.4,0.1,0.8,0.2,1.3c-2.6-0.3-4.3-1.3-5.5-3.6
		c-1.1-2-1.9-4-0.6-6.3c-2.8-2.6-3.5-5.9-3.5-9.5c-0.2-6.6,0.3-13.1,1.4-19.6c0.1-0.8,0.4-1.5,0.6-2.2c0.2-0.1,0.3-0.1,0.3-0.1
		c0,0.1,0.1,0.2,0.1,0.3c-0.2,2.4-0.4,4.8-0.7,7.2c-0.7,5.4-0.5,10.8-0.4,16.2C599.1,284.9,599.8,286.6,601.6,289.7z"/>
	<path d="M662.7,441.5c-0.3,0.3-0.6,0.7-1,0.8c-1.4,0.1-2.8,0.3-4.1,0.1c-4-0.5-7.9-1.4-11.5-3.4c-1.5-0.8-2.9-1.8-3.8-3.4
		c-0.2-0.3-0.2-1,0-1.3c0.2-0.3,0.8-0.5,1.2-0.5c0.5,0,1.1,0.2,1.6,0.5c4.6,2,9.3,4,13.8,6.1C660.2,441.1,661.4,441.6,662.7,441.5
		L662.7,441.5z"/>
	<path d="M421.6,294.9c-1.4-1.4-1.6-3.1-1.1-4.6c0.8-2.7,2-5.4,3.1-8c0.2-0.4,0.6-0.7,0.9-1c0.8-0.7,2.2-0.4,2.6,0.6
		c0.3,0.8,0.5,1.9,0.2,2.7c-0.8,2.6-1.9,5.2-2.9,7.7c-0.3,0.6-0.8,1.1-1.3,1.6C422.5,294.3,422.1,294.6,421.6,294.9z"/>
	<path d="M360.9,327.2c-1.4,0.2-2.4-0.8-3.4-1.5c-4-2.6-7.9-5.2-11.8-7.8c-3.9-2.6-7.8-5.3-11.8-7.9c-3.2-2.1-6.4-4-9.6-6.1
		c0-0.7,0.5-0.5,0.9-0.3c1.4,0.7,2.9,1.4,4.3,2.3c8.5,5.5,17,11,25.4,16.7C357,324,358.9,325.7,360.9,327.2L360.9,327.2z"/>
	<path d="M593.1,356.6c2.8,4.9,6.7,8.4,10.9,11.6c0.7,0.5,1.4,1.2,2,1.9c0.2,0.2,0.3,0.6,0.4,0.8c-0.2,0.7-0.6,0.7-1.1,0.6
		c-0.2,0-0.4-0.1-0.7-0.2c-5.4-2.3-9.4-6.1-12-11.2c-0.3-0.7-0.4-1.5-0.4-2.3C592.3,357.5,592.7,357.1,593.1,356.6z"/>
	<path d="M529.6,330.6c0.8,0.5,1.3,0.8,2,1.2c0.2,2.9,3,4.8,3.7,7.7c-1.1,0.2-1.4-0.5-1.8-1c-0.6-0.8-1-1.8-1.7-2.6
		c-0.9-1.1-2.6-1.5-2.7-3.3c-0.1-1.3-0.5-2.7-0.8-4c-0.3-1.7-0.4-3.4,0.3-5.1c0.3-0.7,0.8-1.1,1.6-1c0.7,0.1,1.5,0.9,1.4,1.7
		c-0.1,0.9-0.4,1.8-0.7,2.7C530.6,328.1,530.2,329.3,529.6,330.6z"/>
	<path d="M658.5,261.6c-0.8-1.1-1.5-2.2-2.3-3.3c-0.8-1.1-1.7-2.1-2.7-3.1c-0.9-1-2-1.9-3-2.9c-1-0.9-2.1-1.7-3.1-3.2
		c3.6,0.4,5.7,2.5,7.7,4.7C657,255.9,659.3,258,658.5,261.6z"/>
	<path d="M158.9,328.4c-1.2-0.2-2.2-0.2-3.2-0.5c-0.4-0.1-1-0.8-1-1.2c0-0.4,0.3-1.1,0.7-1.4c0.7-0.4,1.5-0.7,2.3-0.7
		c1.8,0.1,3.6,0.5,5.4,0.9c0.3,0.1,0.7,0.6,0.7,1c0,0.3-0.4,0.9-0.7,1C161.7,327.9,160.3,328.2,158.9,328.4z"/>
	<path d="M151.1,252.6c3.4,2.4,6.5,5.2,8.8,8.7c0.9,1.3,1.6,2.8,2.2,4.3c0.2,0.5-0.1,1.2-0.2,2.1c-0.5-0.4-0.9-0.6-1-0.8
		c-0.3-2-1.3-3.7-2.5-5.2c-2-2.6-4-5.3-7-7C150.5,254,150.7,253.2,151.1,252.6L151.1,252.6z"/>
	<path d="M449.9,305.3c-0.7,4.7-1.5,9.3-2,14c-0.5,4.7-0.7,9.4-1,14c-0.7-2.7-0.9-8.8-0.2-14C447.5,314.5,447.8,309.7,449.9,305.3z"
		/>
	<path d="M701.5,443.7c-2-0.3-3.8,0.1-5.8,0.4c-4.3,0.7-8.6,1-12.9-0.4c-0.4-0.1-0.7-0.5-1-0.7c0-0.9,0.5-1.2,1.1-1.1
		c1,0.1,2,0.4,3,0.7c2.8,0.8,5.6,1,8.5,0.8c1.9-0.2,3.9-0.1,5.8,0c0.4,0,0.8,0.4,1.2,0.5L701.5,443.7z"/>
	<path d="M546.2,332.6c-0.9-2.9-0.3-5.5,1.2-8c0.2-0.4,0.5-0.8,0.9-1c0.3-0.2,0.9-0.3,1.3-0.2c0.6,0.2,0.8,0.7,0.8,1.4
		c0,0.1,0,0.2-0.1,0.3C549.3,327.8,547.8,330.2,546.2,332.6z"/>
	<path d="M513.2,257.6c0.2-0.6,0.2-1,0.4-1.4c1.3-2.1,4.7-5,8.1-7.2c0.7,0.2,0.9,0.6,0.6,1.3c-0.1,0.2-0.2,0.4-0.3,0.6
		C520.5,252.8,516.1,256.2,513.2,257.6z"/>
	<path d="M546.7,348.7c0.2-0.9,0.7-1.1,1.3-1.2c3.6-0.7,7.2-0.7,10.8,0.2c0.2,0.1,0.4,0.5,0.8,1C555.2,348.7,551,348.7,546.7,348.7z
		"/>
	<path d="M415.3,364.7c-0.9-4.3-0.9-9-0.2-21.6c0.5,1.3,0.8,2.3,0.7,3.4C415.8,352.3,415.7,358.1,415.3,364.7z"/>
	<path d="M470.1,315.1c0.3,2.5-0.2,9.5-0.8,13.2c-0.1,0.3-0.3,0.5-0.5,0.9C467.6,326.3,468.1,320.8,470.1,315.1z"/>
	<path d="M830.6,452.6c2.2-1.9,3.8-4,4.7-6.8c1.3,1.2,1.5,2.4,1.1,3.5c-0.7,2.1-2.1,3.5-4.3,4c-0.2,0-0.5,0-0.7-0.1
		C831.2,453.2,831.1,453,830.6,452.6z"/>
	<path d="M835.1,422.6c-1.7,1.5-2.2,1.7-4.8,1.7c-1.6,0-3.4,0.4-4.8-1.1c0.3-0.3,0.5-0.6,0.8-0.7C828,422,832.2,422.1,835.1,422.6z"
		/>
	<path d="M560.9,350.8c2,1.5,4.5,2.1,6.3,4.1c-0.7,0.3-1.2,0.6-1.7,0.6c-1.8-0.1-3.4-0.7-4.7-1.9C560.1,352.8,559.8,352,560.9,350.8
		z"/>
	<path d="M388.6,292.7c-0.4-0.4-0.8-0.8-1-1.2c-1.5-3.5-2.9-7-4.3-10.5c-0.4-1.1-0.6-2.4-0.6-3.7c0.4,0.1,0.7,0.2,0.7,0.3
		c1,4.4,2.7,8.5,4.3,12.7C388.1,291,388.3,291.9,388.6,292.7L388.6,292.7z"/>
	<path d="M627.5,319.8c-1.8-0.3-2.6-1.1-3.5-1.8c-1.3-1-2.5-2-3.7-3.1c-0.1-0.1,0-0.4-0.1-0.6c0.8-0.6,1.6-0.2,2.3,0.2
		C624.6,315.6,626.2,317.2,627.5,319.8z"/>
	<path d="M633,426.3c2.3,2.7,2.5,5.8,2.6,9c0,0.6-0.1,1.1-1,1.3C634,433.1,633.5,429.7,633,426.3z"/>
	<path d="M515.9,382.4c-3.5,2.1-4.7,2-6.7,0C511.4,380.9,513.5,381,515.9,382.4z"/>
	<path d="M683,299.8c-0.5-2.3-0.1-5.8,0.7-8.5c0.7,0.1,0.7,0.7,0.8,1.2c0.5,2.1,0,4.1-0.6,6C683.8,298.9,683.5,299.1,683,299.8z"/>
	<path d="M146.2,247.6c-0.9-0.1-1.8-0.3-2.8-0.4c-1-1.4-2-2.8-2.2-4.4c0.6-0.7,1.2-0.5,1.5-0.1c0.7,0.8,1.4,1.8,2,2.7
		C145.2,246.1,145.7,246.9,146.2,247.6L146.2,247.6z"/>
	<path d="M797.9,432.9c-1.2,0.8-2,0.4-2.6-0.1c-1.6-1-3.4-1.9-4.3-3.7c0.5-0.6,0.9-0.4,1.3-0.1C794.1,430.2,795.8,431.5,797.9,432.9
		z"/>
	<path d="M359.7,351c2.2,2.5,2.3,5.5,3.3,8.5c-1.3-0.6-1.4-1.7-1.7-2.5c-0.4-0.9-0.8-1.9-1.2-2.9C359.7,353.2,359.1,352.3,359.7,351
		z"/>
	<path d="M662.8,441.6c0.1-0.3,0.1-0.7,0.2-1c2.9-0.8,5.6-0.6,7.8,0.6c-1.2,0.2-2.2,0.4-3.2,0.4
		C665.9,441.7,664.3,441.6,662.8,441.6L662.8,441.6z"/>
	<path d="M428.3,410.5c1.1,3.3,1.1,3.3,3.4,5.2c-0.1,0.7-0.6,0.5-1,0.5c-1-0.1-1.7-0.6-2.3-1.3C427.2,413.4,427.1,412.2,428.3,410.5
		z"/>
	<path d="M491,345c1.8-1.6,4.1-0.4,6-1.5c-0.5,1.7-1.8,2-3.1,2.3C492.9,346,491.8,346.1,491,345z"/>
	<path d="M517.2,324.4c-1,2.8-1.7,4.7-2.3,6.7c-0.6-0.1-0.8-0.6-0.7-1.2c0.1-1.6,0.4-3.2,1.5-4.5C515.8,325.1,516.3,325,517.2,324.4
		z"/>
	<path d="M619.9,312.7c-2.1,0.5-3.5-0.1-4.6-1.6c-0.1-0.1,0.2-0.8,0.3-0.8c0.8,0.1,1.5,0.2,2.3,0.4
		C618.8,310.9,619.7,311.2,619.9,312.7z"/>
	<path d="M607.3,374.6c2.6,0.2,2.8,0.4,4.5,2.9c-0.7,0.8-1.4,0.3-2.1-0.1C608.6,376.9,607.4,376.4,607.3,374.6z"/>
	<path d="M425.9,326.7c1.4,0.5,2.8,1,4.1,1.6c0.2,0.1,0.5,0.5,0.5,0.8c0,0.3-0.4,0.5-0.6,0.9c-1-0.6-2.1-1-3-1.6
		C426.2,328,425.7,327.4,425.9,326.7L425.9,326.7z"/>
	<path d="M427.9,299.2c1.7-0.4,3.2-0.2,4.7-0.1c0.3,0,0.6,0.5,1.1,1C431.5,300.6,429.7,300.9,427.9,299.2z"/>
	<path d="M621.6,387.8c1,0.7,1.9,1.5,2,2.9c-1.7,0.1-2.1-0.1-2.8-1.7C620.6,388.4,621,388,621.6,387.8z"/>
	<path d="M587.8,230.1c-1.4,0.8-2.8,0.7-4.2,0.1C584.7,228.6,586.1,228.6,587.8,230.1z"/>
	<path d="M843.5,429.2c-2.1-0.2-3.5,0.3-4.7-1.2C840.5,427.4,841.7,428,843.5,429.2z"/>
	<path d="M823.5,422.5c-2.6,0.7-2.6,0.7-3.8-0.6C821.1,421.6,822.3,421.2,823.5,422.5z"/>
	<path d="M546.4,316.2c-1.2,0.8-2.2,0.2-3-0.2c-0.3-0.8,0.1-1,0.6-1C544.9,315,545.7,315.2,546.4,316.2z"/>
	<path d="M607.2,252.1c-0.2,1.7-1.2,2.3-2,3c-1-0.4-0.8-0.9-0.6-1.4C605.1,252.9,605.8,252.3,607.2,252.1z"/>
	<path d="M582.2,293.7c-1.3-1.3-1.3-1.3-0.7-3.2c0.4,0.4,0.8,0.6,0.9,0.9C582.4,292.2,582.2,292.9,582.2,293.7z"/>
	<path d="M665.6,405.6c-0.3-1.8-0.3-2.9,1.2-3.5C666.9,403.7,666.9,403.7,665.6,405.6z"/>
	<path d="M610.1,303.3c1.7,0.9,2.7,1.7,3,3.1c0,0.1-0.3,0.3-0.5,0.6C611.7,306,610.8,305.1,610.1,303.3z"/>
	<path d="M701.4,443.8c1.3,0.3,2.7-0.3,4.1,1c-1.8,0.7-3.1,0.3-4-1.1L701.4,443.8z"/>
	<path d="M679.3,440c1.7-1.2,1.7-1.2,3.3-0.3C681.4,440.3,681.4,440.3,679.3,440z"/>
	<path d="M828.9,437.8c-2.3,0.8-3.9,0.9-5.4-0.4c0.3-0.2,0.4-0.5,0.6-0.4C825.5,437.1,826.9,437.4,828.9,437.8z"/>
	<path d="M473,382c2,0.3,2.8,1,3.7,2C475.1,384,474.2,383.4,473,382z"/>
	<path d="M485,384.5c-1.7,1.1-2.8,0.9-4,0.2C482.7,384.1,482.7,384.1,485,384.5z"/>
	<path d="M505.1,383.6c-1.6,0.7-2.6,0.9-3.6-0.4C502.7,382.4,503.7,382.7,505.1,383.6z"/>
	<path d="M673.8,440.3c1.1,0,2.2,0,3.3,0C675.8,441.7,675.8,441.7,673.8,440.3z"/>
	<path d="M423,359.4c0.2,0.1,0.5,0.2,0.5,0.3c0.4,1.4,0.7,2.9,1,4.3l0.1-0.1c-0.2-0.1-0.5-0.2-0.5-0.3
		C423.7,362.2,423.4,360.7,423,359.4L423,359.4z"/>
	<path d="M546.8,339.1c-1-1.5-1-1.5,0.1-2.6C547.9,337.8,547.9,337.8,546.8,339.1z"/>
	<path d="M576.4,231.8c0.7-1.4,1.4-1.4,2.2-1.1c0.2,0.1,0.3,0.3,0.3,0.5c0,0.2-0.2,0.5-0.3,0.5C578.1,231.8,577.4,231.8,576.4,231.8
		z"/>
	<path d="M783.5,425.4c-1.2,0.3-2.2,0.1-3.5-0.8C781.6,424,782.6,424.5,783.5,425.4z"/>
	<path d="M425.8,369.7c1.2,1.6,1.4,2.3,1.4,4.8l0.1-0.1C426.2,373,426,371.3,425.8,369.7L425.8,369.7z"/>
	<path d="M837.6,439.1c0,1.3-0.2,2-1.1,2.3C836.4,440.2,836.4,440.2,837.6,439.1z"/>
	<path d="M546,343.9c-0.7-1-0.8-1.8,0-2.5C547,342.3,547,342.3,546,343.9z"/>
	<path d="M616.5,383.1c1.5-0.4,1.9,0.6,2.8,1.5C617.8,384.8,617.2,384,616.5,383.1z"/>
	<path d="M495.7,383.7c-0.9,0.9-1.7,1-2.6,0.2C494.3,383.3,494.3,383.3,495.7,383.7z"/>
	<path d="M631.5,416c-1.1-0.6-1.5-1.2-1.3-2.4C631.4,414.1,631.6,414.8,631.5,416z"/>
	<path d="M817.7,421.5c-0.3,1-0.8,1.3-1.6,1.1c-0.2-0.1-0.4-0.4-0.9-0.9C816.3,421.7,816.9,421.6,817.7,421.5z"/>
	<path d="M665.5,411.9c-0.6,0.4-1.2,0.8-2,1.3C663.9,411.9,663.9,411.9,665.5,411.9L665.5,411.9z"/>
	<path d="M421.8,354.3c-0.3-0.3-0.5-0.7-0.8-1c-0.2-0.3-0.3-0.6-0.5-0.9c0.8-0.3,0.9,0.3,1.1,0.7
		C421.7,353.5,421.7,353.9,421.8,354.3L421.8,354.3z"/>
	<path d="M633,422.1c-1.2-0.8-0.6-1.9-0.7-3.5C633.2,420.2,633.2,421.2,633,422.1L633,422.1z"/>
	<path d="M536.9,313.3c0.4-0.9,0.9-1.1,1.5-0.5c0.1,0.1,0.2,0.5,0.1,0.6C537.9,314,537.4,313.7,536.9,313.3z"/>
	<path d="M503.1,267.3c0.4,0.2,0.6,0.2,0.7,0.3c-0.2,0.3-0.3,0.7-0.6,1c0,0-0.5-0.2-0.5-0.2C502.9,268,503,267.7,503.1,267.3z"/>
	<path d="M683.2,283.6c0.6,0.8,0.8,1.6-0.1,2.5C682.4,285.2,682.5,284.4,683.2,283.6z"/>
	<path d="M838.6,434.7c-0.1,0.6-0.2,1.1-0.3,2C837.8,435.6,837.8,435.6,838.6,434.7z"/>
	<path d="M712.7,444.7c-0.5,0.1-0.8,0.2-1.2,0.2c-0.1,0-0.3-0.3-0.3-0.4c0.2-0.5,0.6-0.6,1.1-0.5C712.4,444,712.4,444.3,712.7,444.7
		z"/>
	<path d="M613.3,379.2c0.5,0.4,1,0.8,1.6,1.3C613.1,380.5,613.1,380.5,613.3,379.2z"/>
	<path d="M717.6,442.7c-0.2,0.6-0.5,0.9-1.2,0.7c-0.1,0-0.2-0.4-0.2-0.5C716.6,442.3,717.1,442.3,717.6,442.7z"/>
	<path d="M422.4,356.5c1.1,0.7,0.7,1.8,0.7,2.8l0.1-0.1C422.9,358.3,422.7,357.4,422.4,356.5L422.4,356.5z"/>
	<path d="M818.8,436.1c0.8,0,1.4,0.1,2.2,0.1C820.2,436.8,819.6,436.9,818.8,436.1z"/>
	<path d="M425.2,366.9c1,0.7,0.8,1.8,0.7,2.8l0.1-0.1C425.1,368.8,425.3,367.8,425.2,366.9L425.2,366.9z"/>
	<path d="M425.2,366.8c-1-0.8-0.7-1.9-0.6-2.9l-0.1,0.1C425.3,364.9,425.2,365.9,425.2,366.8L425.2,366.8z"/>
	<path d="M421.7,354.4c1,0.5,0.6,1.4,0.6,2.2l0.1-0.1C421.7,355.9,421.8,355.1,421.7,354.4L421.7,354.4z"/>
	<path d="M363.5,320.5c0.1,0.1,0.3,0.3,0.4,0.4C363.8,320.8,363.7,320.6,363.5,320.5L363.5,320.5z"/>
	<path d="M364.9,298.3c0.8,0.2,0.7,0.8,0.7,1.4l0.1-0.1C365.1,299.3,365,298.8,364.9,298.3L364.9,298.3z"/>
	<polygon points="812.7,421.9 813,421.8 813,422 	"/>
	<path d="M633,422.2c0.1,0.2,0.3,0.4,0.1,0.2C633.1,422.7,633.1,422.4,633,422.2L633,422.2z"/>
	<path d="M644.5,429.1c0,0.1-0.1,0.2-0.1,0.3c-0.1-0.1-0.2-0.2-0.2-0.3c0,0,0.1-0.1,0.2-0.2C644.4,428.9,644.4,429,644.5,429.1z"/>
	<path d="M362.9,319.1c0.8,0.2,0.6,0.9,0.6,1.5l0.1-0.1C362.9,320.2,362.9,319.6,362.9,319.1L362.9,319.1z"/>
	<path d="M789,425.5c0.1,0.1,0.4,0.2,0.4,0.3c0,0.1-0.2,0.3-0.3,0.4c-0.1-0.1-0.2-0.1-0.2-0.2C788.8,425.9,788.9,425.7,789,425.5z"
		/>
	<path d="M359.5,294.1c0.2,0.5,0.4,1,0.6,1.5l0.1-0.1C359.9,295.1,359.7,294.6,359.5,294.1L359.5,294.1z"/>
	<path d="M510.6,263.1c0.1,0.1,0.2,0.1,0.2,0.2c-0.2,0.1-0.4,0.2-0.5,0.2c-0.1,0-0.2-0.1-0.2-0.2
		C510.2,263.2,510.4,263.2,510.6,263.1z"/>
	<path d="M364.2,296.9c0.8,0.2,0.7,0.9,0.7,1.4l0.1-0.1c-0.3,0-0.5,0-0.8,0l0.1,0.1C364.3,297.8,364.3,297.3,364.2,296.9
		L364.2,296.9z"/>
	<path d="M389.2,294.1c-0.6-0.3-0.7-0.8-0.6-1.4l-0.1,0.1C389.3,293,389.2,293.6,389.2,294.1L389.2,294.1z"/>
	<path d="M356.4,287.9c0,0.1-0.1,0.1-0.1,0.2c0-0.1-0.1-0.2-0.1-0.3c0-0.1,0.1-0.1,0.1-0.2C356.4,287.7,356.4,287.8,356.4,287.9z"/>
	<polygon points="360.8,327.3 360.9,327.4 360.9,327.2 	"/>
	<polygon points="389.1,294.2 389.4,294.2 389.2,294.1 	"/>
	<path d="M359.5,294.1c-0.1,0-0.2-0.1-0.3-0.1C359.3,294,359.4,294.1,359.5,294.1L359.5,294.1z"/>
	<polygon points="665.6,411.9 665.7,411.7 665.5,411.9 	"/>
	<path d="M146.1,247.7c0.2,0.2,0.5,0.5,0.7,0.7l0.1-0.1C146.6,248.1,146.4,247.8,146.1,247.7L146.1,247.7z"/>
	<path d="M147.5,249c-0.2-0.2-0.4-0.5-0.7-0.7l-0.1,0.1C147,248.6,147.2,248.9,147.5,249L147.5,249z"/>
	<path d="M147.4,249.1c0.2,0.2,0.5,0.5,0.7,0.7l0.1-0.1C148,249.5,147.7,249.3,147.4,249.1L147.4,249.1z"/>
	<path d="M148.1,249.8c0.2,0.2,0.5,0.5,0.7,0.7l0.1-0.1C148.7,250.2,148.4,250,148.1,249.8L148.1,249.8z"/>
	<path d="M148.8,250.5c0.2,0.2,0.5,0.5,0.7,0.7l0.1-0.1C149.4,250.9,149.1,250.7,148.8,250.5L148.8,250.5z"/>
	<path d="M149.5,251.2c0.3,0.2,0.5,0.4,0.8,0.6l0.1-0.1C150.1,251.5,149.9,251.3,149.5,251.2L149.5,251.2z"/>
	<path d="M151.2,252.5c-0.3-0.2-0.5-0.5-0.8-0.7l-0.1,0.1C150.5,252.1,150.8,252.3,151.2,252.5L151.2,252.5z"/>
	<path d="M219.8,430c-1.4,2.9-2.7,5.6-4,8.3c-0.4,0.7-0.7,1.5-1.1,2.1c-0.5,0.7-1.5,0.9-2.2,0.7c-0.7-0.2-1.2-1.1-1.1-2
		c0.4-4.2,3.3-7.9,7.4-9.1C219,429.9,219.4,430,219.8,430z"/>
	<path d="M178.2,408.9c-1.2-1.6-1.2-1.9-1.1-5.9c0.1-4.2,1-8.2,4-11.9c0.3,1.5-0.5,2.2-0.8,3.1c-0.3,0.9-0.6,1.7-0.9,2.6
		c-0.3,1-0.5,2-0.6,3c-0.1,1-0.2,2.1-0.2,3.1c-0.1,0.9,0,1.8-0.1,2.8C178.3,406.7,178.4,407.7,178.2,408.9z"/>
	<path d="M184.2,426.9c-2.8,0.6-4.4-0.3-5.7-1.9c-1.9-2.2-3.2-4.7-2.5-8.2c0.5,0.5,0.9,0.7,1.1,1c0.3,0.7,0.4,1.6,0.7,2.3
		c0.9,2.4,2.3,4.5,4.7,5.7C182.9,426,183.2,426.3,184.2,426.9z"/>
	<path d="M324.5,390.7c-2.5,2.5-6.6,5.2-8.8,5.8c-0.1,0-0.3-0.2-0.5-0.4c1.5-1.6,6.7-5.1,8.4-5.6
		C323.8,390.4,324.2,390.6,324.5,390.7z"/>
	<path d="M342,378.5c-1.3,0.8-2.6,1.7-3.9,2.5c-0.6-0.1-0.6-0.6-0.4-1c0.4-1.3,1-2.6,2.5-3.1C341.1,376.6,341.7,377,342,378.5z"/>
	<path d="M215.3,387.1c-2.3,1.8-4.2,3.1-6.4,4c-0.6-0.6-0.7-1.2-0.3-1.6C210.4,387.7,212.4,386.9,215.3,387.1z"/>
	<path d="M192.7,396.4c-0.8-0.4-0.7-1-0.3-1.5c1.2-2.1,3.1-3.3,5.4-3.8c0.2,0,0.4,0.1,0.6,0.2C196.5,393,194.7,394.6,192.7,396.4z"
		/>
	<path d="M232.6,418.1c-0.6,2.4-1.3,3.2-3.1,4.5C229.4,420,229.8,419.4,232.6,418.1z"/>
	<path d="M224.5,385c-1.3,1-2.6,1.4-3.9,1.6c-0.7-0.9-0.3-1.6,0.4-2c0.6-0.3,1.3-0.4,1.9-0.3C223.4,384.2,223.9,384.6,224.5,385z"/>
	<path d="M189.8,372.3c2.7,0.4,4,1.3,4.8,3.1c0.1,0.2-0.2,0.6-0.4,1.1c-0.5-0.4-1-0.8-1.4-1.1C191.9,374.4,191,373.4,189.8,372.3z"
		/>
	<path d="M227.2,424.7c-0.2,1.8-1,2.4-1.8,2.9c-0.7,0.5-1.7,0.4-1.8-0.1c-0.1-0.7,0.3-1,0.8-1.3
		C225.1,425.7,225.9,425.4,227.2,424.7z"/>
	<path d="M174.2,426.6c0.7,0.9,1.5,1.8,2.3,2.9c-1.5,0.5-2.3-0.2-2.9-1.2C173.3,427.6,173.2,427,174.2,426.6z"/>
	<path d="M191.9,383.6c-1.1,1.7-3,2-4.8,2.5c0.1-0.3,0.1-0.5,0.1-0.5C188.8,384.9,190.4,384.3,191.9,383.6z"/>
	<path d="M235.7,416.4c-0.5-1.5,0-2.3,0.7-2.8c0.5-0.4,1.2-0.4,1.7-0.5c0.2,0.3,0.3,0.4,0.3,0.4
		C237.6,414.4,236.7,415.3,235.7,416.4z"/>
	<path d="M168.9,370.9c0.3-1,0.8-1.3,1.5-1c0.3,0.1,0.5,0.6,0.8,0.9c-0.3,0.2-0.7,0.7-1,0.7C169.8,371.5,169.4,371.1,168.9,370.9z"
		/>
	<path d="M334.3,384.3c-0.5,0.3-0.6,0.4-0.9,0.5c-0.4,0.1-0.9,0.2-1.4,0.3c0-0.4-0.2-0.8,0-0.9C332.8,383.3,332.8,383.3,334.3,384.3
		z"/>
	<path d="M329.5,387.3c-1.3,1.2-1.3,1.2-2.8,0.7C327.9,386.9,327.9,386.9,329.5,387.3z"/>
	<path d="M177.8,370.1c0.2,0.5,0.4,0.8,0.5,1.2c-0.3,0.1-0.6,0.3-0.9,0.2c-0.2-0.1-0.5-0.5-0.5-0.7
		C177,370.7,177.4,370.5,177.8,370.1z"/>
	<path d="M184.1,371.9c-0.7,0.8-1.3,0.6-1.9,0.2c-0.1-0.1-0.2-0.4-0.2-0.6c0.2-0.1,0.4-0.2,0.6-0.2
		C183.1,371.5,183.5,371.7,184.1,371.9z"/>
	<path d="M242.5,411.2c0-0.6,0-1.1,0-2C243.2,410.2,243.2,410.7,242.5,411.2L242.5,411.2z"/>
	<polygon points="242.4,411.1 242.2,411.3 242.5,411.2 	"/>
	<path d="M148.3,394.6c-0.3,0-0.5,0-0.8,0C147.7,394.3,148,394.2,148.3,394.6z"/>
	<path d="M732.8,210.5c-1.1-1.8-0.5-3.2-0.4-4.4c0.2-1.6,0.5-3.2,2-4.4c0.4,0.2,0.9,0.4,1.2,0.6c0.5,0.4,1,0.5,1.6,0.2
		c0.3-0.2,0.7-0.4,1-0.3c2.5,0.9,4.7-0.4,6.9-1.1c0.7-0.2,1.3-0.4,2-0.6c0.3-0.1,0.7,0.1,1,0.1c1,0.8,0.9,1.9,1,2.9
		c0,1.3-0.1,2.5-0.3,3.8c-0.3,2.3-0.5,4.6-0.9,6.8c0,0.3-0.4,0.7-0.6,0.7c-0.4,0-0.9-0.2-1.1-0.5c-0.3-0.6-0.5-1.2-0.7-1.8
		c-1.5-0.1-2.7,0.2-3.9,0.9c-0.3,1.1-0.6,2.1-1,3.4c1.5,1,1.9,2.4,1.4,4.2c-0.3,1.1-1.2,1.8-2.3,1.6c-0.9-0.1-1.9-0.4-2.5-1
		c-1.3-1.3-2.4-2.8-3-4.6c-0.3-0.9,0.1-1.5,1.2-1.5c0.3,0,0.7,0.1,1,0.1c0.2-0.2,0.5-0.3,0.6-0.5c1-2.5,3.1-3.6,5.6-4.2
		c1-0.3,2-0.5,3.1-0.8c0.5-1.9,1.1-3.8,0.9-6c-1.9,0.5-3.5,0.9-5.1,1.3c-0.2,0.6-0.3,1-0.4,1.4c-0.4,1.8-1.3,3.2-2.7,4.3
		c-0.9,0.7-1.7,1.5-2.7,2.2c-0.4,0.3-1,0.4-1.2-0.1c-0.1-0.3,0-1,0.3-1.2c1.9-1.2,2.7-3.1,3.6-5c0.2-0.4,0.3-0.9,0.5-1.5
		c-0.7-0.2-1.3-0.6-1.9-0.6c-1.2-0.2-1.7,0.2-2.2,1.2c-0.4,0.8-0.6,1.7-0.9,2.6C733.5,209.2,733.3,209.6,732.8,210.5z"/>
	<path d="M798.9,253.8c-1.5-1.6-2.3-3.4-3.2-5.1c-0.7-1.3-1.4-2.7-1.9-4.1c-1.3-2.9-3.2-4.9-6.4-5.8c-0.7-0.2-1.4-0.8-1.9-1.4
		c-0.7-0.8-1.2-1.7-1.8-2.5c0.1-0.7,0.5-1,1.2-0.9c0.8,0.2,1.6,0.6,2.3,0.5c2-0.1,3.5,1,4.9,2.1c1.1,0.9,2.1,1.8,3.1,2.8
		c0.4,0.4,0.9,0.8,1.2,1.2c1.6,2.4,3.3,4.7,4.8,7.1c0.5,0.9,0.9,1.9,1.2,2.8c0.2,0.6,0,1.3,0,2C801.3,253.6,800.3,253.9,798.9,253.8
		z"/>
	<path d="M794.4,253.9c-0.6,0-1.3-0.1-2-0.1c-0.3,0.6-0.5,1.3-0.8,2c-0.5-0.1-1.1,0-1.6-0.2c-0.6-0.2-1.2-0.7-1.8-1
		c-1.1-0.5-1.9-1.4-2-2.6c-0.2-1.7-1-2.7-2.4-3.5c-0.5-0.3-0.8-1-1.1-1.6c-0.3-0.6,0.5-1.4,1.2-1.3c0.3,0.1,0.7,0.1,1,0.3
		c0.4,0.2,0.8,0.6,1.2,0.7c3.5,0.7,5.6,3.4,8.2,5.5C794.7,252.5,794.6,252.6,794.4,253.9z"/>
	<path d="M726.2,250.6c-2.8-4.8-1.7-9.5,0.1-14.2c0.1-0.2,0.2-0.5,0.3-0.6c1.9-1.2,3.1-3.4,5.4-4.1c0.3-0.1,0.7,0,1,0
		c0.6,0,1,0.9,0.6,1.3c-0.9,0.9-1.6,1.9-1.9,3.1c-0.2,0.7-1,1.2-1.7,1.6c-1.4,1-2.1,2.3-2.4,4C727.1,244.7,726.7,247.6,726.2,250.6z
		"/>
	<path d="M722.1,224.1c-1,1.1-2.2,1.2-3.3,1.3c-2.8,0.1-5.5,1.2-8.7,0.6c0.6-0.5,0.9-0.9,1.3-1.1c3-1.4,6.2-1.6,9.4-1.9
		c0.3,0,0.6,0.2,0.9,0.4C721.8,223.5,721.9,223.8,722.1,224.1z"/>
	<path d="M729.4,264.4c2,2.3,2.3,4.8,1.5,8.5c-0.3-0.2-0.7-0.3-0.8-0.6c-0.3-1.9-0.7-3.8-0.9-5.7C729.1,266,729.3,265.5,729.4,264.4
		z"/>
	<path d="M751,247.1c-1.6-1.4-1.9-2.5-0.9-3.8c0.1-0.1,0.4-0.2,0.6-0.2c0.2,0,0.4,0.2,0.5,0.4C751.5,244.7,751.5,245.8,751,247.1z"
		/>
	<path d="M750.1,240.7c-1-1.8-1.2-3.1-0.6-4.6C751.4,236.7,751.5,237.3,750.1,240.7z"/>
	<path d="M385,407.3c-0.7-2.4-0.7-4.7-0.3-6.9c0.8-3.9,2.1-7.5,3.7-11.1c0.9-1.9,1.9-3.7,2.7-5.6c0.6-1.5,1.8-2.2,3.2-2.9
		c0,0,0.2,0.1,0.4,0.3c-2.1,4.2-4.2,8.4-5.9,12.8C387.1,398.2,386.2,402.8,385,407.3z"/>
	<path d="M392.4,436.6c-1.2,0.7-2.1,0.1-2.9-0.5c-0.2-0.2-0.5-0.6-0.5-0.9c0.1-2.5-1.2-4.6-2.1-6.7c-0.9-2.2-1.3-4.4-1.1-6.7
		c0-0.6,0.2-1.1,1.1-1.3c0.9,2.8,0.3,5.8,1.5,8.6C389.5,431.7,390.9,434.1,392.4,436.6z"/>
	<path d="M311.9,430.2c-4-0.5-7.3-2.1-9.4-5.5c-0.3-0.5-0.4-1.1,0.5-1.5c1.3,1.3,2.5,2.8,4,3.9C308.5,428.3,310.2,429.2,311.9,430.2
		z"/>
	<path d="M344.2,430.5c-0.9-0.1-1.8-0.2-2.7-0.3c-1-0.2-1.9-0.5-3.2-0.8c0.5-0.4,0.8-0.8,1-0.8C341.2,428.6,342.9,429,344.2,430.5
		L344.2,430.5z"/>
	<path d="M325.1,429.8c1.8-1.1,3.1,0.1,5.1,1.2C328.1,430.9,326.5,430.7,325.1,429.8z"/>
	<path d="M350.2,429.7c1.5-1.4,1.8-1.4,4.6,0C353.1,430,351.7,430.2,350.2,429.7z"/>
	<path d="M396.6,401.4c-1.6,1.1-2.6,0.2-3.8-0.2C394.5,399.9,394.5,399.9,396.6,401.4z"/>
	<path d="M396.2,391.7c-1.1-0.2-1.8,0.4-2.5,1.5c-0.3-2-0.2-2.5,0.5-2.6C395.2,390.3,395.9,390.7,396.2,391.7L396.2,391.7z"/>
	<path d="M398.2,413.4c0.7,1,0.2,1.9-0.2,2.9C397.1,414.3,397.1,414.3,398.2,413.4z"/>
	<path d="M393.9,423.2c0,0.6,0,1-0.1,1.4c0,0.1-0.4,0.3-0.5,0.2c-0.2,0-0.4-0.2-0.4-0.4C392.8,423.9,393.1,423.5,393.9,423.2z"/>
	<path d="M396.7,393.3c0.8,0.7,0.5,1.6,0.4,2.5C397.1,394.9,396.9,394.1,396.7,393.3L396.7,393.3z"/>
	<path d="M391.6,413.8c-0.2,0.1-0.3,0.2-0.5,0.3c-0.1-0.3-0.3-0.7-0.4-1c0-0.1,0.3-0.3,0.4-0.3C391.5,412.8,391.7,413.4,391.6,413.8
		z"/>
	<path d="M397.8,425.3c0-0.1,0-0.2,0.1-0.3c0.4-0.6,1-0.8,1.3-0.5c0.1,0.1,0.1,0.2,0.1,0.2c0,0.5-0.7,0.9-1.3,0.7
		C398,425.5,397.9,425.3,397.8,425.3z"/>
	<path d="M396.8,393.2c-0.2-0.5-0.4-1-0.7-1.5l-0.1,0.1C396.8,392,396.6,392.7,396.8,393.2L396.8,393.2z"/>
	<path d="M361.2,429.9c0.1,0.1,0.1,0.2,0.2,0.2c-0.1,0.1-0.2,0.2-0.2,0.2c-0.1,0-0.1-0.1-0.2-0.2C361.1,430,361.1,430,361.2,429.9z"
		/>
	<path d="M344.1,430.6c0.1,0.1,0.2,0.1,0.4,0.2c-0.1,0-0.2,0-0.2,0C344.3,430.7,344.2,430.6,344.1,430.6L344.1,430.6z"/>
	<polygon points="389.5,404.6 389.6,404.5 389.6,404.7 	"/>
	<path d="M698.8,386.7c1.2-1.9,2.9-2.5,4.6-2.9c0.2,0,0.5,0.1,0.6,0.3c0.1,0.2,0.1,0.5,0,0.6C702.7,386.3,701.1,387.1,698.8,386.7z"
		/>
	<path d="M688.9,391.7c-0.2-0.4-0.6-0.9-0.5-0.9c0.4-0.4,0.8-0.7,1.3-1c0.1-0.1,0.5,0.1,0.6,0.2c0.1,0.1,0.1,0.5,0,0.6
		C689.9,391,689.4,391.3,688.9,391.7z"/>
	<path d="M695.3,389.7c-0.3,0.2-0.5,0.5-0.7,0.6c-0.1,0-0.3-0.2-0.4-0.3c0.1-0.2,0.3-0.4,0.4-0.5C694.8,389.5,695,389.6,695.3,389.7
		z"/>
	<path d="M251.2,308.4c2.8,1.2,5.6,2.6,8.5,3.4c2.8,0.7,5.8,0.8,8.9,1.1c-0.8,1-1.8,1.2-2.8,1.3c-3.1,0.3-6.2,0.4-9.1-0.9
		C254.3,312.3,252.3,310.9,251.2,308.4z"/>
	<path d="M195.1,304.8c3.2,0.9,6.1,2.1,8.7,4c0.5,0.3,0.6,1.1,0.9,1.7c-1.9,0.2-2,0.2-5.5-1.6C196.7,307.5,196.2,307.1,195.1,304.8z
		"/>
	<path d="M210.4,279.9c-0.2,0.1-0.3,0.4-0.5,0.4c-1.8,0.2-3.6,0.3-5.8,0.4c0.4-0.7,0.6-1.2,0.9-1.3c1.7-0.9,3.5-0.9,5.2-0.1
		C210.3,279.4,210.4,279.7,210.4,279.9z"/>
	<path d="M232.1,298.2c-1.6-0.3-2.4-0.8-3-1.7c-0.2-0.2-0.2-0.7-0.1-0.9c0.2-0.2,0.6-0.3,0.9-0.2
		C230.9,295.9,231.5,296.7,232.1,298.2z"/>
	<path d="M246.3,307.3c-0.9-0.9-1.6-1.6-2.4-2.3C245.6,305,245.6,305,246.3,307.3z"/>
	<path d="M238,300.1c0.8,0.7,1.4,1.3,2,1.9C239.3,302.6,238.5,301.8,238,300.1z"/>
	<path d="M187.5,290.1c-0.3,0.1-0.5,0.3-0.6,0.3c-0.4-0.1-0.6-0.7-0.3-1.1c0.1-0.1,0.5-0.1,0.5-0.1
		C187.3,289.5,187.4,289.8,187.5,290.1z"/>
	<path d="M193.6,299.7c-0.4-0.5-0.7-0.8-0.9-1.2c-0.1-0.2-0.1-0.6-0.1-1.2C193.6,298,194.1,298.5,193.6,299.7z"/>
	<path d="M190.1,292.9c0.1,0.4,0.3,0.8,0.4,1.2c0,0.1-0.2,0.3-0.4,0.4c-0.2-0.4-0.4-0.7-0.6-1.1
		C189.5,293.4,189.8,293.2,190.1,292.9z"/>
	<path d="M126.2,393.8c0,0.9,0,1.8,0,2.7c-0.1,1-0.9,1.6-1.9,1.6c-1,0-1.8-0.3-2.5-1.1c-0.7-0.8-1.3-1.6-1.7-2.5
		c-1.7-3.7-2.9-7.5-3-11.6c-0.2-4.3,0-8.5,0.6-12.7c0.1-0.8,0.4-1.6,0.7-2.3c0.4-0.7,1.7-0.8,2-0.1c0.4,0.8,0.7,1.7,0.8,2.6
		c0.3,2.7,0.5,5.5,0.6,8.3c0.1,3.1,0.6,6.2,1.5,9.2c0.2,0.6,0.5,1.3,0.8,2c0.5-0.8,0.9-1.5,1.3-2.2c0.4,0.1,0.7,0.1,0.8,0.2
		c2.1,2.9,4.8,4.9,8.1,6.1c0.4,0.2,0.9,0.3,1.2,0.6c1.9,1.9,4.3,2,6.7,2c0.1,0,0.2,0,0.3,0l-0.1-0.1c0,0.3,0,0.7,0,1
		c-0.9,0.7-1.9,0.9-2.9,0.9c-1.8,0.1-3.7,0.2-5.5,0.1c-2.2-0.1-3.9-1.2-5.6-2.5C127.8,395.4,127,394.6,126.2,393.8l-0.2-0.1
		L126.2,393.8z"/>
	<path d="M115.9,396.6c-0.1,1.3-0.3,2.1-1.1,2.5c-0.8,0.4-1.9,0.4-2.5-0.3c-0.7-0.9-1.4-1.9-1.8-2.9c-1.4-3.6-2.1-7.3-2.3-11.1
		c-0.2-4.4,0.1-8.8,0.5-13.1c0.1-0.7,0.3-1.4,0.6-2c0.2-0.3,0.7-0.7,1.1-0.7c0.4,0,0.8,0.3,1.1,0.7c0.7,0.8,0.7,1.9,0.8,3
		c0.2,3.3,0.5,6.7,0.6,10c0.1,4,1,7.8,2.3,11.5C115.4,395.1,115.7,396.1,115.9,396.6z"/>
	<path d="M99.4,380.3c0.3-2.2,0.5-4.3,0.8-6.5c0.1-0.4,0.3-0.8,0.5-1.2c0.3-0.4,1.3-0.4,1.5,0c0.3,0.5,0.6,1,0.6,1.6
		c0.2,1.5,0.4,3,0.4,4.4c0.2,5.1,1.3,10,3.8,14.5c0.3,0.5,0.5,1,0.7,1.6c0.3,1-0.1,1.8-0.8,2.5c-0.6,0.6-1.9,0.7-2.6,0.1
		c-0.8-0.7-1.5-1.5-1.9-2.3c-2-4.1-3.2-8.3-3-12.9c0-0.6,0.1-1.1,0.1-1.7C99.5,380.3,99.4,380.3,99.4,380.3z"/>
	<path d="M94.5,384.4c-0.2,2.8,0.4,5.5,1.5,8.1c0.4,0.8,0.8,1.7,1,2.5c0.4,1.6-0.2,2.9-1.6,3.4c-1.1,0.5-2.4,0-3.2-1.3
		c-0.7-1.1-1.2-2.2-1.7-3.4c-1.5-3.8-2-7.8-1.2-11.8c0.2-0.9,0.5-1.8,1.1-2.5c1.1-1.5,3.2-1.2,3.9,0.5c0.3,0.7,0.4,1.6,0.4,2.3
		C94.7,383,94.5,383.7,94.5,384.4z"/>
	<path d="M76.6,387.8c0.1-1.4,0.1-2.3,0.3-3.2c0.2-1.2,1.3-2.1,2.4-2.2c1.1-0.1,2.2,0.7,2.6,1.9c0.2,0.4,0.3,0.9,0.4,1.3
		c0.3,2,0.5,4.1,0.7,6.1c0.1,1.1-0.3,2-1.2,2.7c-0.8,0.6-2.2,0.6-2.9-0.1c-0.6-0.5-1.1-1.2-1.3-1.9C77.1,390.7,76.9,389,76.6,387.8z
		"/>
</g>
</svg>
