<?xml version="1.0" encoding="utf-8"?>
<!-- Generator: Adobe Illustrator 19.2.0, SVG Export Plug-In . SVG Version: 6.00 Build 0)  -->
<svg version="1.1" id="Layer_2" xmlns="http://www.w3.org/2000/svg" xmlns:xlink="http://www.w3.org/1999/xlink" x="0px" y="0px"
	 viewBox="0 0 900 600" style="enable-background:new 0 0 900 600;" xml:space="preserve">
<g>
	<path d="M543.4,23.3c-1.1-0.4-0.5-1.8-1.3-2.4c-0.8,0-0.6,0.6-0.5,1c0.2,2.1,0.5,4.2,0.9,6.6c-1.4-1.1-1.3-2.8-2.5-4
		c-0.1,1.7-0.2,3.2-0.3,4.9c-2.4-5.4-0.6-9.8,2.8-14.5c-1,0.2-1.4,0.2-1.6,0.3c-0.9,0.8-1.8,1.5-2.6,2.4c-1,1.1-1.8,2.4-2.8,3.6
		c-1.4,1.7-2.8,3.5-3.6,5.6l0.1-0.1c-0.9,0.3-1.1,1.2-1.4,1.9c-0.7,1.5-1.4,3-2.1,4.4c0,0.3-0.1,0.5,0,0.7c1.8,4.5,0.4,8.2-3,11.4
		c-1,0.9-2.2,1.8-3.2,2.7c-0.6,0.5-1.1,1.1-1.7,1.7l0.1-0.1c-2.1,1.1-4.2,1.9-6.7,1.6c-1-0.1-2.1,0.3-3.1,0.5
		c-2.9,0.7-5.7,1.4-9,2.1c-1.1,0.7-2.1,2.2-2.7,3.9c0.3,0.9,1.2,0.6,1.8,0.8c1.1,0.4,2.3,0.6,3.4,1.1c1.7,0.8,3.3,1,5.1,1
		c1.9,0,3.8,0.3,5.6,0.6c1.8,0.3,3.4,0.9,4.8,2.1c0.9,0.8,1.9,1.3,3.1,2.2c-0.1-1.3-0.1-2.2-0.2-3.1c0.2,0.1,0.4,0.1,0.5,0.2
		c1,1.6,1,3.3,1.1,5.1c-1.3-0.1-2-1.1-3-1.8c-2-1.5-4.1-2.7-6.7-2.8c-1.8-0.1-3.5-0.4-5.3-0.5c-1.8-0.1-3.5-0.4-5-1.4
		c-1.2-0.8-2.5-1.2-3.9-1.5c-1.2-0.2-2.5-0.5-3.4-1.7c0.3-1.1,0.5-2.2,0.8-3.3c0.2,0,0.4,0,0.6,0c0.1,0,0.2-0.1,0.3-0.2
		c-0.2-0.1-0.4-0.3-0.5-0.2c-0.2,0.1-0.2,0.3-0.3,0.5c-0.3,0-0.7-0.1-1,0c-5.4,2.1-10.5,4.9-15.4,7.9c-0.3,0.2-0.5,0.5-0.8,0.7
		c-2.6,1.8-5.1,3.9-7.9,5.4c-5.4,3-10.5,6.4-14.9,10.9c-0.5,0.5-0.9,1-1.4,1.5c0.3,0.7,0.5,1.2,0.8,1.8c0.2,0.5,0.5,1.1,0.7,1.7
		c3.3,9,7.8,17.2,14.3,24.3c0.4,0.4,0.8,0.9,1.2,1.4c1.9,2.7,4.2,5.1,5.6,8.2c0.7,1.7,2,3.1,3.7,4c1.3-1.1,2.5-2.1,3.7-3.1
		c0.9,0.3,1.8,0.4,2.4,0.9c2.8,1.8,5.8,1.7,8.9,1.1c1.2-0.2,2.3-0.6,3.4-0.9c2.4-0.8,4.6-1.7,6.1-3.9c0.5-0.7,1.5-1.2,2.2-1.8
		c0.5-0.4,1-0.9,1.7-1.4c-0.6-1.3-1.1-2.5-1.7-3.6c-0.6-1.3-1.2-2.6-1.7-3.8c-2.3-0.7-4.4-1.3-6.6-2c-4.6-1.4-8-5.8-8.2-10.6
		c-0.1-2-0.1-4,0-6c0.4-5.1,2.1-9.7,6.1-13.2c4-3.5,8.6-5.8,13.7-7.2c2.8-0.8,5.7-0.7,8.3,0.7c1,0.5,1.9,0.7,3,0.7
		c0.1-0.3,0.2-0.5,0.3-0.7c0.4,0.3,1,0.6,1.3,1.1c0.5,0.8,0.7,1.7,1.1,2.6c2.2-0.5,3.8-2,5.7-2.9c1.8-0.8,3.5-1.9,5.1-2.7
		c1.8,0,2.8,1,3.7,2.1c1.2,1.5,2.4,2.9,3.7,4.3c0.4,0.4,0.9,0.7,1.6,1.2c0.8-0.5,1.8-0.8,2.3-1.5c1-1.3,2.2-2,3.8-2.2
		c0.6-0.1,1.1-0.4,1.6-0.5l-0.1-0.1c-0.2,0.4-0.3,1.1-0.5,1.2c-2,0.7-3.3,2.1-4.8,3.5c-0.2,0.2-0.6,0.4-1.1,0.6
		c-1-0.2-2.1-0.5-3.4-0.8c-1,3.3-1.1,7-4.2,9.3c-0.5-3.9-0.3-11,0.4-13.4c-0.6-0.8-1.3-1.6-1.8-2.3c-1.2-0.1-1.5,0.7-2.3,1.1
		c-0.1,2.8-0.1,5.5,0.3,8.2c0.4,2.1,0.7,4.2,0.9,6.3c0.2,2.4,0.8,4.6,2.8,6.8c-0.9-0.2-1.3-0.1-1.4-0.3c-1-0.9-1.7-1.9-2.2-3.2
		c-2-4.7-3.8-9.5-4.2-14.6c0-0.2-0.2-0.4-0.4-0.8c-1.4,0.4-2.9,0.8-4.3,1.3c0,0.3,0,0.4,0,0.5c3.7,4.5,4.9,9.9,5.6,15.5
		c0.2,1.5,0.3,3.1,0.4,4.6c0.2,1.8,0.2,3.5-0.3,5.3c-0.2,0.8-0.2,1.6-0.3,2.5c-0.2,1.6,0.2,3,0.9,4.5c2.2,4.6,4.5,9.2,6.4,13.9
		c1.5,3.9,3.4,7.6,5.6,11.1c0.9,1.4,2,2.7,3.1,3.9c2,2.2,3.8,4.5,5.3,7.1c1.2,2.1,2.2,4.2,2.2,6.7c0,0.8,0.3,1.6,0.5,2.4
		c1.8,6.4,3.4,12.8,5.3,19.2c1.3,4.5,2.9,9,4.4,13.5c0.3,1,0.9,1.9,1.2,2.8c0.4,0.2,0.6,0.3,0.8,0.3c6.8,0.1,13.5,0.4,20.3,0.3
		c2.5,0,4.6,0.7,6.7,2c1.9,1.3,3.8,2.4,5.6,3.7c5,3.4,10,6.8,15,10.3c3.2,2.2,6.4,4.5,9.6,6.8c1.8,1.3,3.4,2.9,5.5,3.8
		c2.3,1,3.6,4.1,2.7,6.3c-0.6,1.5-0.3,3-0.2,4.6c0,2,0.1,4-0.4,6c-0.6,1.9-1.6,3-3.7,3.3c-2.3,0.3-4.7,0.9-7,1.5
		c-4.9,1.2-9.8,1.7-14.8,2c-0.2,0-0.4,0.1-0.9,0.3c-0.5,0.9-0.3,2.2-0.4,3.3c-0.1,1.1-0.1,2.1-0.2,3.2c-0.1,6.9,0.2,13.8,0.7,20.6
		c0.2,2,0.3,4,0.4,6c0.3,9.5,1.1,19,0.9,28.5c-0.1,4.7-0.1,9.5-0.1,14.2c0,2,0,4,0.6,6c0.3,1,0.2,2.1,0.3,3.4
		c0.6,0.1,1.2,0.4,1.9,0.4c17.2,0,34.4,0,51.6-0.1c2.4,0,5.1,1.1,7.3,3.2c-0.2,0.6-0.6,1.2-0.6,1.9c-0.1,0.8,0,1.7,0.1,2.5
		c0.1,2.3,0.2,4.5,0.2,6.8c0,0.8-0.3,1.6-0.4,2.5c-0.8,0.2-1.5,0.4-2.2,0.4c-2.4,0.1-4.7,0.2-7.1,0.3c-15.4,0.6-30.9,0.3-46.3-0.3
		c-11.9-0.4-23.7-0.4-35.6-0.4c-12,0-24-0.1-35.9-0.2c-2.8,0-5.7-0.4-8.5-0.7c-0.8-0.1-1.6-0.4-2.3-0.6c-1.2-3.7-1.5-8.3-1.2-14.4
		c0.6-0.4,1.4-0.7,1.9-1.2c0.6-0.7,1.4-0.9,2.2-0.9c2.5-0.1,5-0.3,7.5-0.3c7,0.2,14,0.4,21,0.8c8.4,0.5,16.8,0.4,25.3,0.2
		c1.5,0,3.1,0,4.4,0c-0.1-3.7-0.2-7.1-0.4-10.5c-0.1-2.6-0.3-5.2-0.5-7.8c-0.1-1.4-0.2-2.8-0.2-4.3c0.1-5.9,0.2-11.9,0.2-17.8
		c0-2,0.3-4-0.1-5.9c-0.3-0.2-0.5-0.4-0.7-0.4c-4.4,0.1-8.8,0.2-13.1,0.3c-1.2,0-2.4,0.2-3.5,0.2c-10.2,0.5-20.4,0.1-30.6-0.1
		c-3.8-0.1-7.6-0.4-11.3,0.5c-0.3,0.1-0.7-0.2-1.2-0.4c-0.2-0.9-0.7-1.9-0.8-2.9c-0.1-1.9,0-3.8,0.2-5.7c0.2-1.8,1-2.5,2.8-2.7
		c0.2,0,0.5,0,0.7,0c10.1,0,20.1-1.2,30.2-0.2c0.2,0,0.4-0.1,0.9-0.3c0-0.6,0.1-1.3,0.1-1.9c-0.4-6.3-0.3-12.6-0.2-18.9
		c0.1-4.4-0.1-8.8,0-13.2c0-1.9-0.6-3.4-1.6-4.9c-5.4-8.6-10.8-17.3-16.1-26c-0.6-0.9-1.2-1.9-1.4-2.9c-0.3-2-0.4-4-0.4-6
		c0-1.5,0.8-2.7,2-3.6c0.5-0.4,1.2-0.8,1.9-1.3c-0.7-2.2-1.7-4.2-2.6-6.2c-0.9-2-1.9-3.8-2.8-5.8c-1.1-2.2-2.4-4.3-3.9-6.4
		c-2.2-3.1-4.3-6.3-6.3-9.5c-2.4-3.8-3.8-8.1-5-12.5c-0.7-2.5-1.4-5-2.2-7.5c-0.1-0.4-0.4-0.8-0.7-1.2c-4.3-4.7-7.4-10.1-10.7-15.5
		c-0.9-1.5-1.8-3-2.8-4.7c-1.9,0.9-3.4,1.9-4.6,3.4c-0.9,1.2-2.1,1.9-3.5,2.3c-2.2,0.6-4.4,1.1-6.5,1.7c-3.6,0.9-7,0.4-10.2-1.7
		c-0.4-0.3-0.8-0.4-1.2-0.6c-4.4,4.1-8.9,7.9-13.6,11.5c-0.4,0.3-0.8,0.6-1.2,0.8c-3.2,1.4-5.9,3.5-8.4,5.9
		c-2.7,2.5-5.8,4.6-9.2,6.1c-0.4,0.2-0.9,0.4-1.2,0.7c-2.1,2.1-4.8,3.5-7.2,5.2c-0.8,0.5-1.4,1.2-2,1.9c-1.6,1.9-3.1,3.9-4.7,5.8
		c-0.8,1-1.7,2-2.8,2.7c-4.6,3.4-8.6,7.4-12.6,11.5c-1.4,1.4-2.4,3.2-3.5,4.9c-1.2,1.9-2.3,3.9-3.5,5.8c-1.3,2-2.7,3.9-4.7,5.3
		c-0.5,0.3-0.9,0.8-1.3,1.2c-4,4.2-8.5,7.9-13.3,11.2c-4.9,3.4-9.8,6.7-14.6,10.1c-0.2,0.1-0.4,0.3-0.6,0.4
		c-6.8,3.9-13.6,7.8-20.7,11.1c-2.3,1.1-4.7,1.7-7.8,1.7c1.7-1,3-1.5,4.3-2.1c1.6-0.7,3.3-1.2,5-1.9c1.5-0.7,3-1.4,4.4-2.2
		c6.7-4.2,13.4-8.5,20.1-12.7c6.4-3.9,12.4-8.3,18.2-13.1c0.6-0.5,1.2-1.1,1.9-1.7c-0.5-0.4-0.8-0.7-1.2-1c-3.7-2.6-7.2-5.4-9.9-9.1
		c-0.2-0.3-0.5-0.5-0.7-0.8c-2.6-2.3-5.2-4.5-7.8-6.7c-0.4-0.3-1.1-0.3-1.6-0.5l0.1,0.1c-0.4-0.7-0.6-1.6-1.1-2.1
		c-3.2-3.2-6.1-6.6-8.9-10.2c-0.1-0.2-0.4-0.2-0.7-0.4c-2.1,2.3-4.3,4.6-6.5,7c-0.6,0.6-1.1,1.2-1.7,1.8
		c-10.6,10.4-20.3,21.5-30.4,32.4c-1.6,1.7-3.4,3.3-5.1,4.9c-0.5,0.5-1.1,0.9-1.6,1.4c-1.9,2.2-4.1,4-6.6,5.4
		c-0.5,0.3-1.1,0.6-1.5,1c-2.4,2.9-5.9,4.3-8.9,6.4c-3,2.1-6.3,3.8-9.6,5.4c-1.5,0.7-3,1.5-4.3,2.5c-5.5,4.1-10.9,8.3-16.4,12.5
		c-0.7,0.6-1.3,1.4-1.9,2.1c-2.8,3.2-5.6,6.4-8.4,9.7c-1.5,1.8-3,3.7-4.4,5.6c-3.7,5-8.3,9.1-13.4,12.6c-1.4,0.9-2.9,1.7-4.5,1.4
		c-0.3,0.3-0.5,0.6-0.7,0.9c-2.4,2.8-2,5.9-1.1,9c0.4,1.5,1.4,2.5,2.6,3.3c0.5,0.4,1.3,0.6,2,0.5c3.9-0.4,7.7-1.1,10.6-4.3
		c0.9-1.1,2.1-1.9,3.2-2.8c3.4-2.5,6.9-5,10.4-7.5c1.4-0.9,2.8-1.8,4.3-2.4c4.2-1.9,8.4-3.7,12.7-5.5c3.9-1.7,7.8-3.5,11.1-6.2
		c1.4-1.1,2.9-2.1,4.4-3c3.3-1.9,6.3-4.2,9.1-6.7c1.2-1.1,2.5-2.1,3.9-3.1c2.7-2,5.1-4.3,6.7-7.3c0.4-0.7,0.8-1.2,1.7-1l-0.1-0.1
		c-0.1,0.6-0.3,1.2-0.5,2c1.5-0.2,2.8-0.4,4.1-0.6l-0.1-0.1c-1.2,1.2-2.7,1.7-4.2,2.3c-0.6,0.3-1.3,0.6-1.8,1
		c-0.8,0.6-1.5,1.2-2.1,1.9c-3.8,4.5-8.7,7.7-13.4,11.1c-1.4,1.1-2.9,2-4.4,3c-7.1,5.1-14.9,8.8-23,12c-2.9,1.2-5.6,2.6-8.1,4.5
		c-1.3,1-2.8,1.8-4.1,2.8c-1.5,1.1-3,2.2-4.8,3.5c0.9,0.6,1.7,0.8,2.1,1.4c0.5,0.6,0.7,1.5,1,2.3c0.6,2.3,1.6,4.5,0.6,6.8
		c1.4,2.1,3.7,3.2,4,5.5c1.4,0.8,2.7,1.4,3.9,2.1c1.1,0.7,2.1,1.6,3,2.4c2,0.2,3.9,0.3,5.6,0.4c4.1,3.7,4.5,5.7,2.3,9.6
		c0,0.2-0.1,0.5-0.1,0.7c0.5,1.9,0.5,3.7-0.7,5.4c-1.4,2-3.2,3.5-5.5,4.3c-0.1,0-0.2,0.1-0.3,0.1c-4.5,0.5-8.9,1.3-13.4,0.8
		c-1.2-0.1-2.4-0.3-3.5-0.3c-2.3-0.1-4.4-0.8-6.5-1.6c-0.7-0.3-1.4-0.8-2-1.4c-1.4-1.4-2.8-2.9-4.2-4.4c-1.6-1.9-3.2-3.8-4.8-5.7
		c-0.4-0.1-0.7-0.3-1-0.3c-3.6,0.2-6.6-1.6-9.7-3.1c-2.8-1.4-5.1-3.4-7.1-5.9c-0.5-0.6-0.9-1.4-1.4-2c-0.8-1-1.5-2.2-2.4-3.1
		c-1.3-1.3-2.1-2.8-2.4-4.8c0.6-0.7,1.1-1.5,1.8-2.3c-0.1-0.3-0.1-0.6-0.2-0.9c-0.6-1.3-0.2-2.4,0.9-3.1c3.6-2.7,7.2-5.4,10.9-8.1
		c2-1.4,4.3-2.5,6.2-4.2c0.9-0.7,2.1-1.1,3.2-1.7c0.9,0.5,1.7,1,2.6,1.5c3.4-2.3,6.7-4.6,9.1-7.9c0.6-0.9,1.3-1.7,2.1-2.4
		c6.4-6.2,11.9-13.2,17.8-19.9c1.3-1.5,2.7-3,4.1-4.5c1.7-1.8,3.3-3.7,5-5.5c1.9-2,3.8-3.9,5.8-5.8c5.6-5.4,12.3-9.2,19.5-12.1
		c3-1.2,5.8-2.6,8.7-4c0.7-0.4,1.4-0.8,2-1.4c10.8-9.6,20.5-20.1,29.7-31.1c3.7-4.5,8-8.4,12.4-12.2c2.1-1.8,4.1-3.6,6.2-5.4
		c1.8-1.6,2.7-3.5,2.5-6c-0.2-2.7-0.3-5.5,0.7-8.1c2.2-5.5,5.4-10.2,10.4-13.5c0.5-0.3,1.1-0.5,1.5-0.9c4.2-4,9.5-5.7,14.8-7.3
		c2.6-0.8,5.3-1.1,8.1-0.9c1.7,0.2,3.5-0.1,5.1-0.2c1.6-1.4,3-2.8,4.6-4c5.2-4.2,9.7-9,14.3-13.9c5.3-5.7,10.6-11.5,15.2-17.9
		c1.1-1.5,2.4-2.9,3.8-4.3c2.2-2.2,4.4-4.3,6.7-6.3c2.5-2.2,5.5-3.7,8.3-5.5c5.2-3.2,10.4-6.7,15.5-10c5.6-3.7,11.6-6.5,18.4-7
		c2.2-0.2,4.5-0.6,6.7-1.1c1.9-0.5,3.7-0.8,5.8-0.4c2.8-1.9,5.6-3.8,8.4-5.8c2.4-1.7,3.6-4,2.9-7c-0.1-0.6-0.1-1.2,0-1.8
		c0.7-3.8,0.8-7.8,2.7-11.4c-1-3-0.8-6.1-0.8-9.1c0-0.8,0.3-1.8-0.1-2.4c-1.2-2-0.2-3.7,0.7-5.3c1.9-3.1,4.8-5.2,8.1-6.8
		c2.5-1.1,4.9-0.7,7.1,0.7c2.4,1.6,4.1,3.9,5.2,6.6c0.2,0.4,0.1,1-0.1,1.3c-0.3,0.5-0.9,0.7-1.8,0.3c-0.1-0.5-0.5-1.2-0.5-1.8
		c-0.2-2.9-2.1-4.5-4.5-5.5c-2.3-1-4.6-0.6-6.6,1.2c0.1,0.8,0.7,0.4,1.1,0.5c0.5,0.1,0.9,0,1.4,0c2.7,0,4.8,0.8,5.9,3.6
		c0.5,1.2,1.4,2.1,2.2,3.4c3.8-1.1,7.6-0.4,11.5,0.2c1,0.2,2.1,0.6,3,1c3.1,1.5,6,3.4,8.6,5.6c1.1,0.9,2.1,2,3.3,2.7
		c1.9,1.2,3,2.9,3.8,5c0.2,0.6,0.4,1.1,0.7,1.6c1.6,2.8,2.3,5.9,2.3,9.2c0,1.8-0.2,3.5-0.8,5.2c-1.6,4.4-4.3,8.2-7.1,11.9
		c-0.6,0.8-1.6,1.3-2.6,1.8c-1.5,0.7-2.6,1.6-3.1,3.2c-0.5,1.3-1,2.7-1.5,4c-0.3,1-0.7,2-1,2.9c-0.9,0-0.8-0.6-0.7-1
		c0.3-1.4,0.6-2.8,1-4.2c0.9-3.1,2.5-5.6,5.5-6.4c1.3-1.7,2.3-3.2,3.4-4.5c1.4-1.7,2.5-3.4,3.4-5.4c0.8-1.5,0.7-2.9-0.5-4.2
		c-0.4-0.5-0.6-1.1-0.3-1.6c0.6-1.2,0.4-2.3,0-3.5c-0.7-2.4-1.5-4.7-2.3-7.1c-0.2-0.7-0.5-1.3-0.7-2l-0.1,0.1
		c0.4,0.2,0.9,0.3,1.1,0.6c0.6,1,1.2,2,1.7,3c0.4,0.8,0.7,1.6,1.4,3c0.1-1.2,0.1-1.8,0.1-2.3c0-0.1,0.1-0.2,0.1-0.2
		c0,0.1,0,0.2,0,0.3c-0.1-0.4-0.4-0.9-0.4-1.3c0.2-0.8-0.1-1.4-0.5-2c-1.4-2.2-3.1-4.2-5.3-5.7c-3.2-2.1-6.2-4.3-9.5-6.2
		c-3.1-1.8-6.5-2.8-10.1-2.6l-0.1-0.2l0.2,0.1c1,0.5,2,1,3,1.6c0.7,0.4,1.6,0.3,1.9,1.3l0.1-0.1c-1.5,0.3-2.7-0.7-4-1.2
		c-2.2-0.8-4.5-1.6-6.9-1.3c-0.7,0.1-1.4,0.3-1.9,0.4c-1.2,1.3-1.6,2.7-1.4,4.3c0.2,1,0.3,2.1,0.4,3.2
		C543.1,21.2,543.2,22.3,543.4,23.3L543.4,23.3z M231.3,282.5c0.5,0,0.7-0.3,0.7-0.8l0.2,0l-0.1,0.1
		C231.9,282,231.6,282.3,231.3,282.5c-0.3,0.2-0.7,0.3-0.6,0.8c-1.7,0.5-1.7,0.5-1.4,1.6c0.8-0.3,1.4-0.7,1.3-1.7
		C231.2,283.2,231.4,283,231.3,282.5z M234.3,280.4c0.2-0.3,0.4-0.5,0.6-0.8c0.2-0.3,0.4-0.5,0.7-0.8l0.2,0l-0.1,0.1
		c-0.2,0.2-0.5,0.5-0.7,0.7C234.8,280,234.6,280.2,234.3,280.4l-0.1,0.1L234.3,280.4z M237.9,277.5c0.2-0.3,0.4-0.5,0.7-0.8
		c0.2-0.3,0.4-0.5,0.7-0.8l0.2-0.1l-0.1,0.2c-0.2,0.2-0.5,0.5-0.7,0.7C238.4,277.1,238.2,277.4,237.9,277.5c0,0.1-0.1,0.2-0.2,0.2
		C237.7,277.7,237.8,277.6,237.9,277.5z M261.3,263.3c0.2-0.2,0.5-0.4,0.7-0.7c0.2-0.3,0.5-0.5,0.7-0.8c0.2-0.3,0.5-0.5,0.7-0.8
		l0.2-0.1l-0.1,0.2c-0.2,0.3-0.4,0.5-0.7,0.8c-0.2,0.2-0.5,0.5-0.7,0.7C261.9,262.9,261.6,263.1,261.3,263.3l-0.1,0.2L261.3,263.3z
		 M284.1,237.6c0.5,0,0.7-0.2,0.7-0.7c0.5,0,0.8-0.1,0.7-0.7c0.5-0.2,1.1-0.3,1.6-0.6c7.5-5.4,15-10.8,23.2-15.1
		c0.3-0.2,0.6-0.4,0.9-0.5c1.4-0.7,2.7-1.7,4.1-2.1c1.3-0.3,2-1.1,2.8-1.9c1.7-1.7,3.5-3.1,5.5-4.5c4.4-2.9,8-6.6,11.1-10.9
		c0.2-0.2,0.5-0.5,0.7-0.7c0.4-0.3,0.8-0.5,1.1-0.8c4.8-5.1,9.7-10.1,14.5-15.2c3.8-4.1,7.6-8.2,11.4-12.2c2.6-2.7,5.5-5.3,8.1-8
		c1.2-1.2,2.2-2.5,3.3-3.7c0.3-0.3,0.7-0.7,0.1-1.3c-2.8,2.5-5.6,5.1-8.5,7.6c-3.2,2.7-6,5.7-8.7,8.9c-6.3,7.5-12.7,15.1-19.7,22
		c-0.7,0.7-1.2,1.7-1.9,2.5c-0.3,0.2-0.5,0.5-0.8,0.7c-0.4,0.2-0.9,0.4-1.2,0.7c-3.1,2.9-6.2,5.7-9.9,7.9c-1.5,0.9-3,1.8-4.7,2.3
		c-1.6,0.5-3.1,1.1-4.5,1.9c-3.3,1.8-6.5,3.8-9.8,5.6c-3.5,2-6.7,4.4-9.6,7.2c-1.9,1.9-4,3.7-5.8,5.6c-1.3,1.3-2.7,2.6-3.4,4.4
		c-0.5,0-0.7,0.2-0.7,0.7C284.6,237.2,284.4,237.5,284.1,237.6c0,0.1-0.1,0.2-0.2,0.2c0,0-0.1,0.1-0.1,0.2
		C283.9,237.8,284,237.7,284.1,237.6z M422.3,118.7c0.2-0.3,0.4-0.5,0.6-0.8c0.2-0.2,0.5-0.5,0.7-0.7c0.3,0,0.5-0.1,0.3-0.1
		c0.2-0.1,0,0-0.2,0.2c-0.2,0.2-0.5,0.5-0.7,0.7C422.8,118.3,422.6,118.5,422.3,118.7l-0.1,0.1L422.3,118.7z M426.6,115.2
		c-0.1,0.1-0.2,0.2-0.2,0.2c0,0.2,0.1,0.3,0.2,0.5c-1.1,2.4-3.1,3.7-5.1,5.1c-1.3-1-1.3-1-1.9,0c1.7,1.9,3.5,3.9,5.2,5.8
		c1.6,1.9,3.1,3.9,4.8,5.7c1.7,2,3.5,3.8,5.3,5.8c1.7,1.9,3.3,3.8,4.9,5.6c1.7,1.9,2.8,4.3,4.7,6.3c2.2-1.5,4.4-2.7,6.1-4.5
		c1.5-1.5,3.1-2.5,4.7-3.7c2.6-1.8,5.3-3.6,7.7-5.7c1.9-1.7,3.9-3.1,6.1-4.2c3.7-1.9,7.2-4.1,10.4-6.8c0.6-0.5,1-1.2,1.5-1.8
		c-1.9-2.4-3.6-4.7-5.3-7c-2.6-3.5-5.1-7.1-8.2-10.3c-0.9-0.9-1.7-2-2.4-3.1c-4-6-7.5-12.4-9.3-19.5c-0.1-0.5-0.1-1.2-1.1-1.4
		c-0.3,0.3-0.8,0.7-1.2,1.1c-2.1,3.3-4.9,6.1-7.3,9.1c-4.9,6-9.7,12-15.2,17.4c-0.4,0.4-0.7,0.9-1,1.4c-0.2,0.2-0.5,0.5-0.7,0.7
		c-0.7,0.7-1.4,1.4-2.1,2.1C427.1,114.7,426.8,115,426.6,115.2z M381.7,138c-0.8,0.5-1.3,1.2-1.4,2.1c-1.3,1.5-2.2,3.1-1.8,5.8
		c0.8-2.1,1.3-3.5,1.8-4.9c0.1-0.3,0-0.7,0-1C381.2,139.8,381.5,138.9,381.7,138c0.2-0.3,0.5-0.5,0.7-0.7c0.2-0.1,0.4-0.2,0.5-0.4
		c1.9-2.2,3.7-4.4,6.4-5.7c0.7-0.3,1.1-1.1,1.6-1.7c0.2,0,0.5,0,0.7-0.1c3.5-1.6,6.9-3.2,10.4-4.7c2.6-1.1,5.3-1.7,8.3-0.8
		c-0.4,0.2-0.6,0.4-0.8,0.4c-3.8,0-7.2,1.4-10.4,3.2c-0.7,0.4-1.4,0.8-2.2,1.1c-3.4,1.3-6.3,3.3-9,5.6c-3.3,2.7-5.7,6-6.9,10.1
		c-1.2,4.1-2.2,8.2-3.3,12.3c-0.8-0.2-1.6-0.5-1.8,0.8c0.1,0.2,0.1,0.5,0.3,0.6c4.6,5.1,9.1,10.3,14.1,15.1c2.9,2.7,5.7,5.7,8.4,8.7
		c2.4,2.6,5.1,5,8.1,6.9c0.6,0.4,1.3,0.5,1.8,0.8c1.4-0.7,2.1-1.8,2.9-2.9c2.8-4,5.6-8,8.3-12c2.6-3.7,5.5-7,9.2-9.8
		c3.5-2.6,6.8-5.5,10.1-8.4c0.8-0.7,1.4-1.6,2.1-2.4c0.6-0.8,1.2-1.7,1.7-2.5c-1.8-2.5-3.4-4.9-5-7.2c-0.5-0.7-0.9-1.4-1.5-2
		c-5.8-5.9-11.2-12.3-16.4-18.7c-0.7-0.9-1.4-1.9-3-2.5c-1,0.2-2.4,0.5-3.8,0.7c-0.7,0.1-1.4,0.3-2.1,0.2c-2.2-0.3-4.3,0-6.3,0.7
		c-4.3,1.4-8.5,2.9-12.4,5.2c-0.6,0.3-1,0.9-1.5,1.3c-1.9,0.4-3.5,1.4-4.8,2.6c-1.6,1.5-3.2,3.1-3.6,5.4
		C382,137.3,381.8,137.6,381.7,138z M552.6,186.4c-0.1-0.1,0.1-0.7-0.4-0.3C552.3,186.2,552.5,186.3,552.6,186.4
		c0.8,2.8,2.2,5.4,3.1,8.1c0.4,1.2,1.5,2,3.3,2.1c-0.5-1.1-0.9-2-1.3-2.7C556.1,191.4,554.9,188.5,552.6,186.4z M583.2,195
		L583.2,195c-0.9-1-2-1.4-3.4-1.4c-1.6,0-3.3-0.1-5-0.2c-0.2,0-0.5-0.4-0.8-0.7c0.5-0.2,0.8-0.5,1.1-0.5c1.7-0.1,3.3-0.1,5-0.2
		c1.1,0,2.1,0.1,3,0.7c2.2,1.3,4.5,1.9,7.1,1.7c1.7-0.2,3.4,0.2,5.5,0.4c-1.9-1.2-3.7-1.8-5.6-2.1c-1.7-0.2-3.5-0.6-5.2-1.2
		c-3.6-1.3-7.2-1.1-10.8-0.7c-0.9,0.1-1.8,0.5-2.8,0.9c0.7,1.5,0.5,3.2,1.8,4.4c0.9,0,1.8,0.1,2.8,0c2.7-0.2,5.4-0.4,8,0.6
		c0.5,0.2,1.3-0.3,2.4-0.6C585,195.6,584.1,195.3,583.2,195z M532.6,20.6c1.7-0.7,2.5-2,2.7-3.8c0.1-0.9,0.5-1.8,0.8-2.7
		c0.2-0.4,0.6-0.8,1.1-0.3c0.1,1-1.1,1.8-0.2,3c1.6-1.2,3.2-2.4,4.6-3.4c0-0.5,0.1-0.8,0.1-1C541,9.5,539,8,536.1,7.7
		c-0.6-0.1-1.2,0-1.8-0.2c-0.6-0.2-1.2-0.5-1.9-0.8c-0.4,0.7-1.1,1.4-1.2,2.1c-0.4,3.2-1,6.3-0.7,9.5c0.1,1.2,0.2,2.3,1,3.5
		C532.1,21.5,532.5,21.1,532.6,20.6L532.6,20.6z M555.4,198.5c-0.4,0-0.8,0-1.3,0c-0.1,0.8-0.3,1.6-0.4,2.3
		c-0.4-0.4-0.6-0.8-0.5-1.2c0.2-2.3-0.3-4.4-1.7-6.2c-0.3-0.3-0.2-0.9-0.3-1.3l-0.1,0.1c0.5,0.2,1,0.4,1.5,0.6
		c0.1,0.2,0.2,0.5,0.3,0.7c0-0.1,0.1-0.2,0.1-0.3c-0.1-0.1-0.3-0.3-0.5-0.4c0.1-2.2-0.9-4-2.4-5.7c-0.7,0.3-1.2,0.5-1.7,0.7
		c-0.3,0.2-0.6,0.5-0.7,0.7c-0.2,0.4-0.5,0.9-0.5,1.3c-0.2,2.5-0.2,5,1.1,7.2c2.5,4.1,5.1,8.3,7.7,12.4c0.2,0.4,0.5,0.8,1.1,0.5
		c0.7-1.4-0.1-3.2,1.1-5c0.3,2.8,0,5.1-0.2,7.5c3.2,5.5,7,10.7,10.7,15.9c0.3,0.5,0.8,0.9,1.3,1.2c2,1.3,4.2,2.1,6.7,1.4
		c0.1-0.4,0.2-0.7,0.3-1c0.3-2.8,0.6-5.7,0.9-8.5c0-0.4,0.4-0.7,0.9-1.7c0.2,4.5-1,8.1-0.7,11.9c0.8,0.2,1.5,0.5,2.2,0.6
		c4.9,0.8,9.8,1.7,14.8,1.8c7.7,0.1,15.4,0.2,23.1-0.7c3.3-0.4,10.1-2.1,13.2-3.5c0.2-1.3,0.2-2.7,0.7-4c0.9-2.6,0.3-5.2,0.6-7.8
		c0.1-1.1-0.4-2.2-1.8-2.8c-0.9-0.4-1.8-1.1-2.5-1.9c-3.7-3.5-7.9-6.3-12-9.2c-1.8,2.3-1.8,2.3-4.7,2.7c-0.4,0.1-1,0.2-1.2,0.5
		c-0.6,0.7-1.3,0.9-2.2,1.1c-2.5,0.5-5,0.4-7.4-0.3c-4-1.2-8-1-11.9,0c-5.6,1.3-11.3,0.9-17,0.5c-0.8-0.1-1.6-0.3-2.4-0.5
		c-2.9-0.7-5.1-2.3-6.6-4.9c-0.7-1.3-1.5-2.7-2.1-3.7c-1.6-0.6-2.8-1.1-4-1.5C556.3,198.1,555.8,198.4,555.4,198.5L555.4,198.5z
		 M608.1,206.8c-2.2-1.5-4.7-2.5-6.4-2.7c-2.4-0.2-4.8-0.4-7.8-0.9c1.9-0.9,3.3-0.9,4.7-0.9c3.7,0,7.2,1,10.6,2.6
		c1.6,0.7,3.1,0.8,5-0.4c-3.2-1.2-6.4-1.2-9.1-2.8c-0.6-0.3-1.4-0.3-2.1-0.4c-0.2,0-0.5,0-0.7-0.1c-2.2-0.2-4.6-0.1-6.7-0.8
		c-2.1-0.7-4.4-0.6-6.4-1.4c-1.2-0.5-2.6-0.3-3.9-0.1c-3.2,0.7-6.5,1.3-9.9,0.8c-0.6-0.1-1.3,0.3-2.1,0.4c-0.5-0.9-1-1.7-1.4-2.5
		c-0.4-0.7-0.6-1.6-1.2-2.2c-0.9-0.9-1.3-1.9-1.7-3.1c-2.4-6.3-5-12.6-6.9-19c-2.7-9-4.8-18.1-7.1-27.2c-0.3-1.2-0.7-2.2-1.3-3.3
		c-2.6-4.9-6.9-8.7-9.7-13.5c-0.8-1.3-1.8-2.5-2.5-3.8c-2.8-5.2-5.1-10.7-6.9-16.4c-0.3-1.1-0.6-2.4-1.3-3.3c-1.2-1.4-1.3-3-1.2-4.7
		c0.1-1.3,0.2-2.6,0.3-3.9c0.1-1.3,0.3-2.6,0.2-3.9c-0.6-4.1-1.2-8.2-2-12.3c-0.5-2.5-1.4-4.8-3.1-6.7c-1.5-1.8-3.3-3.5-5.1-5
		c-1.6-1.3-3.5-2.2-5.6-1.9c-7.3,1-13.7,3.7-18.2,9.9c-1,1.4-1.6,3.1-2.5,4.7c-1.8,3-1.9,6.2-1.6,9.6c0.6,5.8,6,10,9.9,10.9
		c0.6,0.1,1.3-0.2,2.1-0.3c-0.7-2.8-1.3-5.3-2-7.8c-0.6-0.6-1.9-0.3-2-1.6c1,0,2.1,0,3.3,0c0.4,1.3,0.8,2.6,1.2,3.8
		c0.6,1.9,1.1,3.9,1.7,5.8c1.7,5.1,4.3,9.8,7.1,14.3c4,6.4,8.2,12.8,12.3,19.1c0.3,0.5,0.7,0.8,1.2,1.1c2.3,1.4,3.2,2.3,4.3,4.3
		c-0.7,0.4-1.1-0.2-1.5-0.4c-0.5-0.3-0.9-0.8-1.4-1.1c-0.4-0.3-0.7-1-1.4-0.6c1.9,8.7,2.8,11,7.6,18.3c0.8,1.3,1.7,2.6,2.5,3.9
		c2.6,4.5,6.2,8.4,7.8,13.5c0.1,0.4,0.5,0.8,0.8,1.2c0.9,1.3,1.8,2.5,2.7,3.8c2.4,3.5,5.3,6.6,7,10.6c1.7,3.8,4.1,7.2,6.2,10.8
		c2.1,3.5,5.2,5.4,9.3,5.7c0.8,0,1.7,0,2.5,0.2c3.8,0.7,7.6,0.4,11.3-0.5c2.2-0.5,4.3-1.3,6.6-0.7c0.2,0.1,0.5,0,0.7-0.1
		c1.5-0.5,3-0.1,4.6,0.2C601.8,206.9,604.7,207.4,608.1,206.8z M534.2,322.4c-1.4,1.2-1.8,2.4-1.7,3.8c0.1,1.8,0.1,3.6,0.2,5.3
		c0.1,1.4,0.2,2.8,0.8,4.3c0.6,0.1,1.2,0.2,1.8,0.3c6.2,1,12.6,0.5,18.8,0.7c12,0.2,24,0,35.9,0.1c5.1,0,10.2,0.1,15.3,0.2
		c9.5,0.3,19,0.8,28.4,1c10.4,0.2,20.9,0.2,31.3,0.3c0.8,0,1.6-0.1,2.7-0.2c-0.1-4.1,0.2-8.1,0-11.9c-1.8-1.9-3.8-2.4-6-2.3
		c-5.5,0.1-10.9,0.1-16.4,0c-11-0.1-22.1,0.3-33.1-0.6c-0.8-0.1-1.7-0.1-2.5,0c-0.7,0.1-1.4,0.6-2.3,1c-0.1-1-0.2-1.7-0.2-2.4
		c-0.1-3.1-0.1-6.2-0.2-9.2c-0.1-1.7-0.4-3.3-0.3-5c0.4-6.6,0-13.3-0.1-19.9c0-3.7-0.3-7.3-0.4-11c-0.4-10.3-0.7-20.6-1-30.9
		c-0.1-2.5,0.1-5,0.1-7.5c0-0.7-0.2-1.3-0.3-2.2c-2.1,0-4-0.1-5.8,0c-2,0.1-4-0.4-6,0.2c0,2.4,0,4.7,0,6.9c0,4.7-0.1,9.5,0.2,14.2
		c0.7,10.6,0.5,21.1,0.1,31.7c-0.2,5.3-0.3,10.7,0.2,16c0.1,1.5,0.4,3.1-0.2,4.6c-0.2,0.5,0,1.2,0,1.8c0.2,2.7,0.5,5.4,0.7,8.1
		c0.1,0.9,0,1.8,0,2.7c-2.6,0.2-4.9,0.5-7.2,0.6c-6,0.1-12.1,0.3-18.1,0.2c-10.2-0.2-20.4-0.7-30.6-1
		C537,322.2,535.6,322.3,534.2,322.4z M250.7,306.3c2,2.5,3.5,4.8,5.4,6.7c6,6.3,4,5,12.7,6.7c1.7,0.3,3.5,0.5,5.3,0.3
		c3.4-0.2,6.8-0.8,10.2-1.1c1.4-0.1,2.4-0.8,3.4-1.7c1.4-1.2,2.2-2.7,2.4-4.2c-1-2.4-2-4.5-2.8-6.5c-1.8-0.4-3.3-0.5-4.7-1.1
		c-1.3-0.5-2.6-1.3-3.6-2.3c-1.1-1-1.8-2.4-2.7-3.6c-1-0.1-2.1,1.3-2.8-0.6c0.6-0.7,1.3-1.4,1.9-2.1c-0.2-0.9-0.2-1.8-1.2-2.1
		c-0.7,0.5-1.3,1.1-1.9,1.6c-0.9,0.6-1.6,0.3-2.1-0.8c0.8-0.9,1.7-1.8,2.6-2.6c-0.3-0.8-0.7-1.3-1.6-1.2c-1,0.9-1.9,1.8-2.9,2.6
		c-0.8,0.6-1.3,0.2-1.6-0.7c1-1.8,2.5-3.1,4.2-3.9c1.2-2.7-0.5-5-0.5-7.5c0-0.3-0.4-0.5-0.7-0.8c-1.7,0.6-3.3,1.2-5,1.8
		c-0.3,0.1-0.6,0.3-0.9,0.6c-2.8,2.1-6.2,2.9-9.5,3.7c-4,1-7.4-2.2-7.8-5.4c-0.4-2.9-0.7-5.9,0.7-8.7c0.3-0.6,0.8-1.2,0.1-2.1
		c-0.3,0.3-0.8,0.5-1,0.8c-1.6,2.1-3.7,3.6-5.8,5.2c-3.3,2.4-6.3,5-9,8c-1.3,1.4-2.5,2.8-3.8,4.2c0.4,0.9,0.6,2,1.2,2.3
		c1.4,0.7,2,2,2.7,3.2c1.5,2.5,3.4,4.6,5.8,6.2c4,2.6,8,5.1,13,5.1C250.5,306.1,250.7,306.3,250.7,306.3z M576.1,265.5
		c1.4,0,2.6,0,3.8,0c1.1,0,2.4-0.5,3.8,0.6c-1.8,0.1-3.2,0-4.6,0.1c-1.4,0.1-2.7,0.3-4.2,0.5c-0.9-5.6-0.4-11-0.6-16.5
		c-0.2-5.6-0.4-11.1-0.6-16.8c-0.9-0.4-1.7-0.9-2.5-1.3c-0.9-0.4-1.7-1.3-3-1c-0.1,1.5-0.2,2.9-0.3,4.3c-0.4-1.5-0.4-3.1-0.4-4.6
		c0-0.7-0.3-1.3-1.5-1.3c0.1,11.8,0.6,23.7,0.8,35.1c0.3,0.8,1.4,0.6,0.9,1.6c-1.2,0.1-2.5,0.2-3.8,0.3c-1.2,0.1-2.4,0.2-3.5,0.3
		c-1.3,0.1-2.6,0.4-3.9,0.4c-1.2,0-2.5,0.3-3.7-0.3c0.1-0.3,0.2-0.4,0.2-0.5c3.9-0.5,7.7-0.9,11.6-1.4c-5.8-0.2-11.6-0.1-17.4,0
		c-3.7,0.1-7.3,0.7-11,0.3c-1-0.1-2.1,0-3.2,0.1c-0.4,0-0.8,0.3-1.1,0.5c0.2,1.5,1.3,0.8,2,1.2c-0.5,0.1-1.1,0.3-1.7,0.5
		c-0.5,1.7-0.7,3.4-0.3,5.4c1.4,0,2.7,0.1,4,0.1c5.9,0.1,11.9,0,17.8,0.3c7,0.4,14,0.3,21,0.1c5.1-0.1,10.2-0.3,15.3-0.4
		c0.6,0,1.1-0.1,1.8-0.1c0.3-2.2,0.2-4.2,0-6.2c0-0.2-0.3-0.4-0.4-0.5c-0.8-0.3-2.1,0.8-2.7-0.6c0.9-0.6,2,0.1,2.9-1
		c-5.1-0.1-10-0.2-15-0.3c-0.1,0-0.2,0.1-0.2,0.2C576.3,264.8,576.3,264.9,576.1,265.5z M575.8,234.3c-0.6,1.7-0.3,3.5-0.2,5.2
		c0.1,2.6,0.3,5.2,0.4,7.8c0.1,4.4,0.2,8.8,0.3,13.2c0,0.9-0.2,1.9,0.9,2.8c4.6,0.1,9.4-0.1,14.2-0.4c0.5-2.3,0.9-21.3,0.6-26.6
		C586.5,234.8,579.6,234,575.8,234.3z M570.7,190.4c1.7-0.3,2.9-0.7,4.2-0.8c2.8-0.3,5.7-0.8,8.5,0.1c2.5,0.8,5.1,1.2,7.6,1.5
		c1,0.1,2.1,0.5,3.1,0.8c2.1,0.7,4.3,1.1,7.3,1.4c-3.4-2.2-6.2-4-9.1-5.6c-0.6-0.3-1.3-0.5-2-0.5c-3.4-0.1-6.8-0.2-10.3-0.5
		c-3-0.3-6.2,0-9.2,0.1c-0.4,0-0.9,0.2-1.5,0.4C569.8,188.4,570.2,189.3,570.7,190.4z M290.3,309.7c0.5-1.5,1-2.2,0.9-2.7
		c-0.4-1.4-1-2.9-1.8-4.2c-0.5-0.9-1.5-1.2-2.5-1c-0.3,0.1-0.7,0.1-1,0.3c-1.7,0.8-2.9,0.1-4.1-1c-1-1-2.1-1.9-3.2-2.8
		c-0.3-0.3-0.7-0.7-1.2-0.2c0.3,2.4,1.8,4,3.8,5.2c1.5,0.9,3,1.8,4.9,1.8c0.8,0,1.6,0.4,2.3,0.6
		C288.9,306.7,289.4,307.8,290.3,309.7z M613.4,202.7c-1.9-2.3-6.1-5.6-9.1-7c-0.9,0.5-1.6,1.3-2.1,2.3c1.1,1.1,2.5,1.4,3.8,1.8
		c1.7,0.6,3.4,0.9,4.8,2.2C611.4,202.4,612.4,202.4,613.4,202.7z M537.2,6c1.5,0.9,2.8,1.4,3.8,2.3c1,0.9,1.7,2,3.1,3.7
		c-0.3-1.8-0.4-2.8-0.6-3.8c-0.2-1-0.9-1.6-1.8-2C540.2,5.8,538.9,5.6,537.2,6z M596.9,197.5c-2.7-1.2-5.5-1.4-8.3-1.7
		c-0.6-0.1-0.7,0.5-0.5,1.1C590.9,197.6,593.7,198.3,596.9,197.5z M535.2,78.3c0.4-2.9,0-6.9-1-9C533.9,72.5,533.9,75.4,535.2,78.3z
		 M541.4,77.7c1.6-3.9,1.6-5,0.2-6.5C541.1,73.3,541.3,75.3,541.4,77.7z M579.7,198c-1.6-0.2-3.2-0.5-4.9-0.7
		c-0.6-0.1-0.9,0.2-0.7,1C576,198.6,577.9,198.7,579.7,198z M579.5,33.9c-0.4-1.3-0.6-2.2-0.9-3.4C578.2,31.9,578.2,32.8,579.5,33.9
		z"/>
	<path d="M446.5,482c-0.2-0.8-0.1-1.7-0.5-2.4c-2-4-4-8.1-6-12.1c-0.1-0.2-0.3-0.3-0.5-0.4c-1.1,0.5-2.1,0.9-3.2,1.4
		c0-0.9,0.9-1.2,1.4-1.7c0.4-0.4,0.9-0.7,0.7-1.3c0.1-0.1,0.2-0.1,0.3-0.2c-0.1,0.1-0.1,0.2-0.2,0.2c-2.4,1.2-4.9,2.3-7.3,3.5
		c-4.9,2.4-9.6,5-14.1,8.2c-5.6,4-11.3,7.7-16.9,11.6c-0.3,0.2-0.5,0.7-0.8,1c-1.5,0.1-2.7,0.8-3.6,2.1c-0.8,0.3-1.6,0.5-2.2,0.9
		c-5.3,3.3-10.7,6.5-16.8,8.3c-1.6,0.5-3.2,0.9-4.8,1c-1.8,0.1-3.5,0.3-5.3,0.7c-3.7,0.9-7.3,1.9-11,2.9c-3.9,1.1-7.6,2.5-11.1,4.7
		c-1.7,1.1-3.4,2.2-5.2,3.1c-2.9,1.3-5.3,3.4-8,5.1c0.6,0.5,1,0,1.4-0.2c4.6-2.1,9.5-3.8,14.3-5.3c3.7-1.2,7.2-2.9,11.2-3.5
		c2.7-0.4,5.3-1.6,7.9-1.8c3-0.2,4.8-2.3,7.3-3.2c0.7-0.2,1.4-0.4,2-0.7c1.8-0.7,3.6-1.2,5.2-2.2c5-2.9,9.9-6.1,14.8-9.1
		c0.2-0.1,0.2-0.4,0.3-0.6c1.6-0.1,2.8-0.8,3.5-2.2c0.5-0.2,1.2-0.2,1.6-0.5c2.3-1.3,4.5-2.6,6.7-4c3.9-2.5,7.7-5.2,11.6-7.6
		c5.2-3.1,10.5-6,15.8-8.9c0.4-0.2,0.9-0.2,1.3-0.3c-0.1,0.9-0.8,1.1-1.4,1.5c-2.8,1.7-5.6,3.5-8.6,5.1c-5.9,3.1-11.2,7.1-16.8,10.6
		c-6.4,4-12.8,8.2-19.2,12.2c-1.6,1-3.3,1.8-5,2.7c-0.5,0.3-1.1,0.4-1.6,0.8c-2.6,1.9-5.6,3.1-8.7,3.9c-0.5,0.1-0.9,0.3-1.3,0.5
		c-5,2.9-10.6,4-16,5.6c-1,0.3-2.1,0.4-3.1,0.6c-2.2,0.6-4.4,1-6.5,1.8c-6.3,2.5-12.5,5.1-18.7,7.8c-0.9,0.4-1.6,0.9-2.4,1.5
		c-3.5,2.5-6.9,5.1-10.6,7.2c-1.8,1.1-3.5,2.5-5.1,3.8c-5,4.1-10.6,7.1-16.8,9.2c-1.5,0.5-3.2,0.5-5.6,0.9c-0.5,0.4-1.5,1.3-2.6,2.3
		c-0.3,1.3-0.6,2.6-0.8,3.8c-0.1,0.8-0.2,1.7-0.1,2.5c0.6,3.2,1.9,4.9,4.9,5.1c3.6,0.3,7.1,0.2,10.2-2c1-0.7,2.3-1.2,3.5-1.6
		c4-1.6,7.9-3.1,11.9-4.6c1.9-0.7,3.9-1.1,5.9-1.4c6.2-0.9,12.4-2,18.6-3c0.2,0,0.5-0.1,0.7-0.2c6-2.2,12.2-3.9,18.1-6.4
		c2.8-1.2,5.6-2.6,8.4-3.8c2.7-1.2,5.3-2.6,7.4-4.8c0.9-0.9,1.8-1.1,2.9-0.9L378,529c-0.5,0.6-1.1,1.1-1.9,1.9
		c2.3,0.5,4.2,0.1,6.1,0.2l-0.1-0.1c-0.2,0.2-0.4,0.7-0.6,0.7c-2.1,0.3-4.2,0.4-6.3,0.9c-1.5,0.3-3,0.9-4.2,1.8
		c-5,3.4-10.6,5.3-16.1,7.4c-1,0.4-2,0.7-3,1.1c-8.5,3.4-17.5,5.2-26.6,6.3c-3.3,0.4-6.5,1.1-9.6,2.5c-1.1,0.5-2.2,1-3.3,1.2
		c-2.3,0.4-4.2,1.5-6.5,2.6c0.5,0.4,0.9,0.6,1.2,1c0.3,0.3,0.6,0.8,0.7,1.2c0.1,0.6,0.1,1.2,0.1,1.8c0,2.4,0.4,4.8-1.1,6.8
		c1,2.2,1.9,4.4,3,6.7c1.6,1.8,3.3,3.7,5.2,5.8c1.5,0.5,3.3,1.2,5,1.8c3.2,4.4,3.1,6.6-0.4,10.1c0.3,2.1-0.4,4-2.2,5.5
		c-2.1,1.7-4.4,2.8-7.2,2.6c-1.1-0.1-2.1-0.3-3.2-0.4c-1.9-0.3-3.8-0.5-5.6-1c-4-1.1-8-2.3-11.5-4.5c-1.6-0.9-2.8-2.1-3.6-3.8
		c-1.8-3.7-3.7-7.4-5.8-11.4c-0.2-0.1-0.7-0.4-1.2-0.6c-3.3-0.7-5.6-3.1-8-5.1c-2.2-1.8-3.9-4.2-5.1-6.8c-0.5-1-0.8-2-1.2-3
		c-0.5-1.3-1-2.6-1.6-3.9c-0.3-0.7-0.6-1.3-0.8-2c-0.7-2.7-0.6-2.9,1.9-4.7c0-0.3,0.2-0.6,0.2-0.9c-0.2-1.7,0.5-2.7,2.1-3.2
		c5.3-1.9,10.4-4.6,16-6c0.7-0.2,1.3-0.5,2-0.8c0.4-0.2,0.9-0.4,1.3-0.6c2.5-0.9,3.3-0.7,5.4,1.4c3.5-1.2,7-2.5,10.1-4.8
		c1-0.8,2-1.7,3.2-2.3c7.6-4.3,14.7-9.6,22-14.5c2-1.3,4-2.5,6-3.8c1.8-1.2,3.5-2.4,5.3-3.5c2.1-1.3,4.2-2.6,6.4-3.8
		c7.2-4.1,15-6.4,23.2-7.4c1.8-0.2,3.5-0.3,5.3-0.7c2.8-0.6,5.4-1.3,8-2.6c11.4-5.9,22.2-12.8,32.7-20.1c5.8-4,11.7-7.6,18.1-10.6
		c2.4-1.1,4.7-2.3,7-3.5c1.9-1,3.1-2.5,3.4-4.7c0.1-1.2,0.4-2.3,0.8-3.5c1.2-3.4,2.8-6.5,5.8-8.7c1.3-0.9,2.5-1.9,3.6-2.9
		c1.9-1.7,4.1-2.9,6.6-3.3c0.6-0.1,1.1-0.3,1.7-0.6c3.9-2.1,8.1-2.5,12.4-2.9c2-0.2,4-0.1,6-0.1c0.7,0,1.5,0,2.1,0.2
		c2.8,1,5.7,1.4,8.3,1.9c2.2-1,4.2-2,6.2-3c5.4-2.5,10.4-5.6,15.5-8.8c6.9-4.4,13.8-8.7,20.1-14c2.7-2.3,5.9-3.9,9.1-5.5
		c1.2-0.6,2.6-1.1,3.5-2.2c-1.5-4.3-1.5-4.3-0.4-8.3c2.1-2,4.8-2.9,7.4-4.1c1.3-0.6,2.7-0.9,4.1-1c7.5-0.5,14.9-1.2,22.4-1
		c3.5,0.1,6.9,0.6,10,2.1c3.1,1.5,6.4,1.8,9.7,1.9c2.1,0,4,0.3,6.2,1c2.9-1,6-2.1,9.1-3.2c2.9-1.1,4.8-2.9,4.9-6.2
		c0-0.5,0.2-0.9,0.4-1.4c1.6-3.7,2.8-7.6,5.7-10.7c-0.1-3.1,0.7-6.1,1.5-9.1c0.3-1.1,1.2-2.1,0.3-3.4c-0.2-0.2,0.2-0.9,0.4-1.3
		c0.8-1.7,2-2.9,3.5-3.9c2.2-1.5,4.6-2.4,7.2-3c2.4-0.6,4.5,0,6.4,1.4c1.5,1.1,2.4,2.6,3.1,4.2c1.1,2.4,1.2,3,1.1,5.6
		c-0.5,0.1-1,0.3-1.5,0.4c-0.2-0.3-0.4-0.5-0.5-0.7c-0.1-0.6-0.1-1.2,0-1.8c0.3-2.1-0.5-3.7-1.7-5.2c-2.1-2.6-4.9-3-8.2-1.3
		c1.4,0.5,2.9,0.8,4.2,1.4c1.6,0.7,2.7,1.9,3,3.7c0.3,1.4,0.9,2.8,1.3,4.3c1.8,0.3,3.7,0.6,5.5,1.1c1.7,0.5,3.3,1.2,4.9,2
		c1.2,0.6,2.3,1.2,3.3,2c2.6,2.3,5,4.8,6.9,7.6c0.9,1.4,1.8,2.8,2.9,4c1.1,1.2,1.6,2.6,1.9,4.1c0.3,1.9,0.6,3.7,0.9,5.6
		c0.2,1.4,0.2,2.8-0.2,4.2c-0.1,0.3-0.3,0.7-0.2,1c0,3.4-1.9,5.7-3.8,8.2c-2.3,3.1-5.4,5.3-8.3,7.7c-0.8,0.6-1.9,0.9-3,1
		c-1.6,0.2-2.9,0.9-3.8,2.3c-0.8,1.2-1.6,2.3-2.5,3.5c-0.8,1.2-1.7,2.3-2.5,3.4c0,0,0.1,0.1,0.1,0.1c-0.1-3.2,2-5.5,3.7-7.8
		c1.5-2,3.7-2.8,5.7-3c1.5-1.2,2.7-2.3,3.9-3.2c2.4-1.6,4.4-3.5,6.1-6.1c-0.1-1-0.3-2.2-0.5-3.7c1.2-1.6,1.2-3.9,1.2-6.1
		c0-2.1-0.1-4.3-0.7-6.3c-0.2-0.5,0-1.2-0.1-1.8l-0.1,0.1c1.2,0.8,1.3,2.1,1.6,3.4c0.3,1.5,0.6,2.9,0.9,4.9c0.4-2,0.7-3.5,0.9-4.8
		c-0.9-4.1-3.1-7.2-5.9-10.1c-1.1-1.1-2.1-2.3-3-3.4c-2.6-3.2-5.6-5.6-9.4-7.3c-0.8-0.3-1.5-0.7-2.4-0.4c0-0.1,0.1-0.2,0-0.3
		c0-0.1-0.1-0.1-0.2-0.2c0.1,0.1,0.2,0.3,0.3,0.4c1,0.8,2,1.6,2.9,2.5c0.3,0.3,0.4,0.7,0.6,1.1l0.1-0.1c-0.5,0-1,0-1.5-0.1l0.1,0.1
		c-1.9-2.8-4.7-4.1-7.9-4.9c-2.2-0.6-3.8,0.7-4.3,3c-0.5,2.1-0.8,4.2-0.7,6.3c0,1.3-0.1,2.6-0.2,4c-0.1,0-0.2,0-0.3,0
		c-0.1-2.1-0.2-4.2-0.3-6.8c-1.8,2.5-1,5.3-1.7,7.9c-1.3-1.2-0.6-2.8-1.5-4.3c-0.5,1.8-0.9,3.2-1.5,5.2c-0.4-3.4-0.2-6.2,1.6-8.6
		c1.1-1.4,2.3-2.6,3.5-4c0.3-0.4,0.6-0.8-0.1-1.3c-1.4,0.6-3,1-4.1,2.5c-0.3,0.5-0.9,0.8-1.4,1.1c-4.6,2.8-8.3,6.6-11.4,11
		c0,0.4,0,0.7,0,1.1c0.4,4-1.4,6.9-4.7,8.9c-1.5,0.9-3.2,1.6-4.7,2.4c-0.8,0.4-1.8,0.5-2.4,1.4l0.1-0.1c-1.2,0.2-2.6,0.1-3.6,1.4
		c0.7,0.9,1.3,1.7,2,2.5c1.9,2,3.8,3.8,5.6,5.8c2.5,2.7,4.1,5.8,3.8,9.6c0,0.4,0.2,0.9,0.3,1.2c0.4,0,0.6,0,0.9,0
		c0.2,0,0.5-0.1,0.7-0.2c3.7-0.8,4.3-0.5,5.7,2.9c0.7,1.6,1.5,3.2,2.4,4.7c0.3,0.6,0.9,1,1.3,1.3c1.8,0.1,2.8-1.1,4-1.7
		c1.3-0.6,2.8,0.3,4.1-0.7c0.2-0.1,0.4-0.2,0.6-0.4l-0.1-0.1c0,0.9-0.4,1.9-1.3,1.9c-2.3,0.1-3.9,1.4-5.8,2.3
		c-0.2,0.1-0.5,0.1-0.9,0.1c-0.9-0.5-1.9-1.1-3-1.7c-0.9,1.7-1.6,3.4-2.7,4.9c-1,1.4-2.4,2.4-4.1,4c0.7-4.2,2.1-7.7,2.9-11.4
		c0.2-0.8,0.7-1.5,1.2-2.5c-0.4-0.8-0.8-1.8-1.4-3c-0.9,0.4-1.6,0.7-2.5,1.1c-0.1,1-0.2,2.1-0.3,3.1l0.1-0.1
		c-1.2,1.3-0.9,3.1-1.2,4.7c-0.5,2.1-0.6,4.2-0.8,6.3c-0.1,1.2-0.3,2.4-0.2,3.5c0.1,1.2,0.4,2.3,0.6,3.4c-1.4-0.9-1.7-1.4-2-3.1
		c-0.3-2.7-0.6-5.4-0.8-8.1c-0.1-0.6,0-1.2,0-2.1c-0.6,0.4-1,0.5-1.2,0.8c-1.6,1.5-2.7,3.5-4,5.3c-2.6,3.4-5.6,6.4-8.5,9.6
		c-0.9,1-1.9,1.8-2.9,2.7c-0.4,0.4-0.8,0.8-1.1,1.2c0.5,1.2,1.4,1.8,2.4,2.3c9.9,5.5,18.6,12.7,27.9,19.1c1.8,1.3,3.5,2.8,5.5,3.8
		c2.1,1.1,3.3,3.3,2.7,5.7c-0.6,2.1-0.3,4.2-0.3,6.4c0,2.5-0.1,5-1.8,7.4c-3.8,1.1-8.1,1.8-12.2,2.8c-4.2,1-8.4,1-12.7,1.4
		c-0.5,2.5-0.6,4.9-0.6,7.2c-0.1,6.9,0.3,13.8,0.8,20.6c0.1,1.9,0.3,3.8,0.4,5.7c0.3,9.5,1.1,19,0.9,28.5c-0.1,4.9-0.1,9.7-0.1,14.6
		c0,1.8,0.4,3.5,0.6,5.3c0.1,1.2,0.2,2.3,0.4,3.7c0.9,0.1,1.8,0.2,2.7,0.2c16.7,0,33.5,0,50.2,0c3,0,5.5,1,7.8,2.8
		c-0.2,1.2-0.4,2.2-0.5,3.2c-0.1,0.9,0.1,1.9,0.1,2.8c0,1.9,0.1,3.8,0.1,5.7c0,0.8-0.3,1.5-0.6,2.5c-3.8,0.2-7.5,0.6-11.2,0.6
		c-11.6,0.1-23.3,0.2-34.9-0.1c-15.3-0.5-30.6-0.7-45.9-0.6c-5.3,0.1-10.7-0.2-16-0.3c-1.1,0-2.1,0-3.2,0
		c-6.6,0.2-13.3-0.2-19.9-0.2c-2.3,0-4.5-0.4-6.7-1.1c-1.4-4.8-1.2-9.6-1.2-14.4c1.2-0.8,2.2-1.7,3.4-2.1c1.2-0.4,2.6-0.3,3.9-0.3
		c5.6,0.1,11.1,0.2,16.7,0.4c11.1,0.3,22.3,1,33.4,0.4c1.3-0.1,2.6,0,3.9,0.1c0.2,0,0.3,0.3,0.5,0.4c-0.1,0.8-0.8,0.7-1.3,0.8
		c-7.1,0.5-14.2,0.9-21.3,0.7c-8.5-0.2-17.1-0.6-25.6-0.9c-1.8-0.1-3.5-0.3-5.3-0.4c-1.5,0-3.1,0.1-4.3,0.1c-1.5,1.2-2,2.4-1.8,4
		c0.2,3.1-0.1,6.2,0.9,9.4c0.7,0.2,1.5,0.5,2.3,0.5c2.6,0.2,5.2,0.3,7.8,0.3c7.1,0.1,14.2,0.2,21.3,0.3c4.4,0.1,8.8,0.1,13.2,0.1
		c11.3,0.1,22.5,0,33.8,0.2c10.1,0.2,20.2,0.7,30.2,1c0.7,0,1.4,0,2.1,0c7,0,14,0.1,21,0.1c0.7,0,1.4,0,2.2,0
		c0.9-2.1,0.3-4.2,0.4-6.3c0.1-2,0-4,0-5.9c-1.6-1.7-3.4-2.3-5.6-2.3c-9.7,0.1-19.5,0.1-29.2,0c-6.9-0.1-13.8-0.4-20.6-0.5
		c-0.8,0-1.7-0.1-2.5,0c-0.7,0.1-1.3,0.5-1.9,0.7c-0.7-0.3-0.7-0.9-0.7-1.5c-0.1-3.1,0.1-6.2-0.2-9.2c-0.5-5,0-9.9-0.2-14.9
		c-0.4-11.6-0.7-23.2-1.1-34.9c-0.2-5.3-0.4-10.7-0.5-16c-0.1-2.5,0.1-5,0.1-7.5c0-1.2,0.2-2.4-0.3-3.7c-0.8-0.1-1.6-0.2-2.4-0.2
		c-2.3,0-4.5,0-6.8,0c-4.3-0.1-8.5-0.6-12.7-1.5c-2.4-0.5-4.9-0.6-7.5-0.8c-0.1,0.7-0.3,1.1-0.3,1.6c0.3,9.1,0.7,18.2,1,27.5
		c0.7,0.2,1.4,0.5,2.1,0.5c4-0.1,8.1-0.3,12.1-0.5c0.2,0,0.4-0.1,0.9-0.3c0.1-0.8,0.2-1.7,0.2-2.6c0.1-6.6,0.1-13.3,0.2-19.9
		c0-0.8,0-1.7,0.2-2.5c0-0.3,0.4-0.5,0.8-0.9c0.2,0.9,0.4,1.6,0.4,2.2c0,1.8-0.1,3.6-0.1,5.3c0.1,5.6,0.4,11.1,0.4,16.7
		c0.1,7.1,0.1,14.2,0.1,21.4c0,4.9-0.3,9.7-0.4,14.6c0,2.8,0.2,5.7,0.4,8.5c0.1,1.4,0,2.8-0.1,4.2c-0.1,3.2,0.3,6.4,0.5,9.6
		c0.1,0.9,0.1,1.9,0.1,2.8c0,0.2-0.5,0.4-0.9,0.8c-0.5-2-0.9-3.8-0.9-5.7c-0.1-2,0-4-0.1-6c-0.1-2.6-0.3-5.2-0.5-7.8
		c-0.1-1.4-0.2-2.8-0.2-4.3c0.1-6.1,0.2-12.1,0.3-18.1c0-1.9,0.2-3.7-0.2-5.8c-1.1-0.1-2-0.3-2.9-0.3c-5.3,0.2-10.7,0.3-16,0.6
		c-7.4,0.4-14.7,0.5-22,0c-5.1-0.3-10.2-0.2-15.3-0.2c-0.9,0-1.8,0.4-2.8,0.5c-0.8,0.1-1.5-0.2-1.7-0.9c-0.3-1-0.6-2.1-0.6-3.1
		c-0.1-1.4,0-2.8,0.1-4.3c0.2-2.5,0.8-3.1,3.2-3.3c1.9-0.1,3.8,0,5.7,0c0.4,0,0.7,0,1.1,0c7.3-0.8,14.7-0.5,22-0.4
		c0.7,0,1.4,0,2.1-0.1c0.1,0,0.2-0.1,0.5-0.4c0-0.5,0.1-1.2,0.1-1.8c-0.1-6-0.1-12.1-0.2-18.1c0-4.9-0.1-9.7-0.1-14.6
		c0-1.1-0.3-2.1-0.9-3c-4.6-7.2-9.1-14.5-13.6-21.7c-0.3-0.5-0.7-1-1.1-1.6c-0.7,0.3-1.4,0.5-2,0.7c-3.8,1.8-7.5,3.5-11.6,4.3
		c-1.3,0.2-2.5,0.8-3.6,1.4c-3.9,2.1-7.9,3.7-12.2,4.7c-2.5,0.6-4.9,1.8-7.3,2.6c-3.1,0.9-5.8,2.6-8.3,4.6c-2.6,2.1-5.4,3.8-8.5,5.1
		c-4.8,2-9.3,4.7-13.7,7.5c-1.4,0.9-2.6,2.1-3.8,3.2c-1.1,1-2.2,2.2-3.3,3.3c-2.4,2.3-4.9,4.4-8.1,5.8c-3.2,1.5-6.3,3.4-9.4,5
		c-1.6,0.8-3.2,1.5-4.9,2.1c-6.5,2.5-13,5.2-19.7,7.1c-3.1,0.9-6.2,1.7-9.3,2.5c-1.7,0.5-3.4,0.9-5.2,1.3c-3.6,0.7-7.2,1.5-10.8,2.1
		c-1.9,0.3-2.5,0.1-5.7-1c3.1-0.3,5.9-0.6,8.7-1c2-0.3,4-0.6,5.9-1.2c7.4-2.3,14.7-4.7,22-6.9c7.3-2.2,14.4-4.8,21.2-8.1
		c0.8-0.4,1.6-0.9,2.7-1.4c-0.6-0.7-1-1.3-1.4-1.8c-2.7-3.3-5.2-6.8-6.8-10.8c-0.2-0.4-0.5-0.8-0.7-1.2c-1.8-2.6-3.6-5.3-5.4-7.9
		C447.7,482.4,447.2,482,446.5,482L446.5,482z M450.8,447.8c0.2-0.3,0.4-0.5,0.6-0.8c0.5,0,0.8-0.2,0.7-0.8c1.1,0.2,1.8-0.6,2.5-1.1
		c3.8-2.5,8.1-3.7,12.6-4.5c2.4-0.4,4.9-0.9,7.3-1.2c2.5-0.4,5-0.2,7.3,0.8c0.3,0.1,0.4,0.4,0.9,1c-4.7-1.2-9-0.7-13.3,0.6
		c-0.4,0.1-0.9,0.2-1.4,0.2c-4.6,0.5-8.7,2.3-12.6,4.6c-2.3,1.3-4.2,3.1-5.6,5.3c-1.4,2.1-2.6,4.2-3.9,6.4c-1,1.8-2,3.7-2.9,5.6
		c-0.9,0.1-2-0.7-2.2,1c3,6,6,12.2,9.7,18c2.3,3.6,4.5,7.3,6.2,11.2c1.5,3.3,3.7,6.1,6.1,8.7c0.5,0.5,1.1,0.8,1.9,1.4
		c3.6-3,7.3-5.8,10.8-8.8c2.8-2.4,5.7-4.7,8.5-7c0.6-0.5,1.3-1,2.1-1.3c5-2.1,10-4.3,14.9-6.8c2.3-1.2,4.2-2.6,6.1-4.2
		c-1.2-3.3-2.3-6.4-3.5-9.4c-0.2-0.6-0.5-1.1-0.8-1.6c-3.9-6.9-7.3-14.1-10.6-21.3c-0.6-1.3-1-2.7-2.2-3.7c-1.3-0.1-2.6-0.8-4.1-0.4
		c-0.5,0.2-1.2,0-1.7-0.2c-2.6-1.1-5.3-1.1-8-0.9c-5.2,0.3-10.3,1.3-15.4,2.7c-3.5,1-6.3,2.6-8.7,5.2c-0.2,0.2-0.5,0.5-0.7,0.7
		C451,447.1,450.8,447.3,450.8,447.8c-0.5,0-0.8,0.2-0.6,0.8c-0.6-0.1-0.8,0.1-0.7,0.7c-0.6-0.2-0.8,0.1-0.8,0.6
		c-0.6-0.1-0.7,0.2-0.7,0.7c-1.2,1-1.3,1-1.6,3c0.8-0.9,1.7-1.7,1.5-3c0.6,0.1,0.7-0.2,0.7-0.7c0.3-0.2,0.5-0.4,0.8-0.7
		c0.2-0.2,0.5-0.5,0.7-0.7C450.3,448.3,450.5,448,450.8,447.8z M303.9,536.7c0.3,0,0.6-0.1,0.3,0c0.2-0.1,0,0-0.2,0.1
		c-0.2,0.1-0.3,0.2-0.5,0.3c0.1,0,0.2,0.1,0.2,0.1C303.9,537,303.9,536.8,303.9,536.7z M278.5,544.7c-0.2,0-0.4,0-0.6,0
		c-0.1,0-0.2,0.2-0.3,0.3c0.1,0,0.2,0,0.3,0C278.1,544.9,278.2,544.8,278.5,544.7c0-0.2,0.1-0.2,0.1-0.3c0,0,0-0.1,0-0.1
		C278.6,544.5,278.5,544.6,278.5,544.7z M274.8,546c-0.5,0.2-0.9,0.5-1.4,0.7c-0.3,0.1-0.6,0.2-0.9,0.2c0.5,0.5,0.7,0,0.9-0.3
		C273.9,546.6,274.5,546.7,274.8,546c0.1-0.1,0.3-0.1,0.5-0.2c0.1,0,0.2-0.2,0.3-0.3c-0.1,0-0.2,0-0.3,0.1
		C275.1,545.8,275,545.9,274.8,546z M497.8,437.8c0.5-0.2,1-0.5,1.5-0.7c0.5,0,1-0.1,1.5-0.1c-1.9,2-4.2,3.2-6.9,3.8
		c-0.2-0.5-0.4-0.9-0.6-1.4c-0.5,0.4-0.8,0.7-1.1,0.9c1.3,2.6,2.5,5,3.7,7.5c2.2,4.3,4.3,8.7,6.5,13c2,3.9,4,7.8,5.4,12
		c0.2,0.8,0.7,1.5,1.1,2.3c2.5-0.9,5-1.5,7.1-2.7c1.9-1.1,3.8-1.8,5.9-2.4c3.1-0.9,6.1-2.1,8.9-3.6c1.9-1.1,3.9-1.8,6-2.2
		c4.3-0.9,8.5-2.2,12.5-4.1c0.7-0.3,1.3-0.8,1.9-1.2c-1.6-3.8-3-7.5-4.5-11.1c-1-2.3-1.9-4.6-3-6.8c-4.2-8.4-6.6-17.2-6.6-26.7
		c0-0.7-0.1-1.4-0.2-2.2c-1.6,0.4-2.6,1.5-3.7,2.3c-1.5,1.2-3,2.3-4.5,3.5c-1.3,1-2.8,1.8-4.1,2.8c-6.1,4.5-12.3,8.9-18.9,12.7
		c-0.8,0.5-1.4,1.1-2.1,1.7l0.1-0.1c-0.5,0.1-1,0.2-1.2,0.9c-0.2,0.8-0.8,1.3-1.6,1.3c-0.5-0.3-1-0.7-1.3,0.1
		C498.8,437.3,498.1,437.1,497.8,437.8c-0.2,0.1-0.5,0.2-0.3,0.2C497.3,438.1,497.5,437.9,497.8,437.8z M621.6,428.4
		c1.7-0.9,1.7-2.6,2.1-4.1c0.1-0.2-0.3-0.5-0.5-0.9c-0.3,0.4-0.6,0.6-0.7,0.9C622.2,425.7,621.9,427.1,621.6,428.4
		c-0.1,0.3-0.2,0.6,0,0.3C621.5,429,621.5,428.7,621.6,428.4z M635.9,359.5c-0.2-0.1-0.5-0.3-0.2-0.1
		C635.4,359.3,635.7,359.3,635.9,359.5c0.3,0.3,0.5,0.7,0.8,1c1.5,1.1,2.4,2.6,2.8,4.4c0.1,0.3,0.3,0.5,0.6,0.9
		c0.9-1.4,1-2.6,0.5-3.9c-0.4-1.1-1.2-1.8-2.3-2.1C637.5,359.6,636.7,359.6,635.9,359.5z M629.5,366.6L629.5,366.6
		c0,0.8-0.3,1.2-1.3,1.3c0,1.3-1.1,2.5-0.6,4c1.6-0.5,2.5-1.4,3.1-2.9c0.3-0.9,0.9-1.6,1.5-2.4c0.2-0.3,0.8-0.6,1.2-0.1
		c0.2,1-1.7,1.5-0.6,2.9c1.6-0.9,3.5-1.1,5-2.2c0.3-3.4-0.5-5.1-3.3-6.4c-1.4-0.7-2.7-1.2-4.3-2c-0.5,0.5-1.2,1.1-1.5,1.8
		c-0.9,2.1-1.7,4.2-2.3,6.3c-0.5,1.6-0.7,3.2-1,4.9c-0.1,0.4,0.1,1,1,0.9c0.4-1.9-0.1-4.2,1.4-6
		C628.4,366.7,628.9,366.7,629.5,366.6z M561.9,458.4c0.1,0.2,0,0.7,0.4,0.2C562.1,458.6,561.9,458.5,561.9,458.4
		c0.2-1.2-0.8-1.9-1.3-2.7c-3.6-5.6-6.8-11.4-8.9-17.7c-0.1-0.3-0.4-0.5-0.7-0.8c-0.8,0.3-1.6,0.6-2.3,0.9c-0.8,0.3-1.5,0.8-2.5,0
		c1.7-0.8,3.3-1.5,4.8-2.2c0.4-1.8,0.3-3.4-0.1-5.1c-0.7-3-1.5-6-2.1-9c-0.5-2.8-0.9-5.6-1.3-8.4c-0.1-0.8,0-1.8,0.4-2.4
		c1.6-2.4,3.2-4.7,6.2-5.6c0.8-0.2,1.5-0.6,2.3-1c0.7-0.3,1.4-0.7,2.8-1.5c-9.4,1.9-15.4,4.3-21,8.2c0.2,2,0.2,4,0.5,6
		c1.4,8.6,3.2,17,7.4,24.7c0.2,0.4,0.4,0.8,0.6,1.3c1.2,3.2,3,6.2,3.5,9.7c0.3,1.8,1.2,3.5,2.6,5c1.5-0.8,2.9-1.4,4.4-2.2
		c1,0.7,1.9,1.5,2.8,2.1C560.5,458,561.2,458.2,561.9,458.4z M556.2,458.4c-1.1-0.1-1.7,0.5-2.4,1.2c-0.6,0.6-1.9-0.2-2.4,0.9
		c1.5,3.3,3.9,6.9,5.7,8.5c0.9-1.5,0.1-3.3,1.1-5.1c0.6,2.7,0.1,5.1,0,7.7c3.2,5,6.5,10.1,10,15c0.9,1.2,1.9,2,3.1,2.8
		c1.7,1.1,3.6,0.8,5.5,1c0.2-1.3,0.4-2.4,0.6-3.6c0.2-1.3,0.2-2.6,0.4-3.9c0.1-1.1-0.1-2.4,1.2-3.7c0,4.1-0.9,7.7-0.9,11.5
		c0.5,0.2,1.1,0.5,1.6,0.6c7.5,1.5,15,2.2,22.6,2.1c4.7-0.1,9.5-0.3,14.2-0.6c5-0.4,9.8-1.8,14.5-3.4c0.1,0,0.2-0.2,0.3-0.2
		c0.9-3.2,1.8-9.3,1.5-11.9c-0.1-1.3-0.5-2.5-2.1-2.9c-0.8-0.2-1.5-1.1-2.2-1.7c-1.7-1.4-3.4-3-5.2-4.4c-4.9-3.8-9.8-7.4-14.7-11.2
		c-4.4-3.4-9.2-6.2-14.1-9c-2.5,2-4.8,4.1-6.7,6.5c-2.1,2.6-4.5,4.5-7.6,5.6c-0.3,0.1-0.4,0.5-0.7,1c0.6,0.1,1,0.3,1.5,0.3
		c2.8,0.2,5.4-0.4,8.1-1c2.2-0.5,4.5-0.6,6.7-0.1c1.9,0.4,3.8,0.5,5.6,0c1.6-0.4,2.9,0,4.4,0.7c2.9,1.4,5.7,2.9,8.9,3.4
		c1.6,0.2,2.7,1.3,3.7,2.4c-0.5,1.7-0.7,2.1-1.5,2.3c-1.9,0.5-3.9,1-5.8,1.3c-1.2,0.2-2.4,0.4-3.5,0.3c-3.4-0.3-6.8-0.8-10.2-1.2
		c-1.1,0.3-2.2,0.6-3.3,0.8c-2.4,0.4-4.9,0.6-7.4,1.2c-3.3,0.7-6.6,0.6-9.9,0.1c-1.1-0.1-2.1-0.3-3.2-0.3c-3.6,0-6.1-1.6-7.5-4.9
		c-0.7-1.6-1.5-3.2-2.3-5c-3-0.1-4.7-2.4-6.8-4.1C556.4,457.8,556.3,458.2,556.2,458.4L556.2,458.4z M550.5,421.4l-0.1-0.1
		c0.2,1.2,0.2,2.4,0.5,3.5c0.7,3.2,1.7,6.4,2.2,9.7c0.4,3,1.3,5.8,2.6,8.4c1.4,2.9,3,5.7,4.6,8.4c1.6,2.8,3.4,5.4,5,8.2
		c0.4,0.7,0.9,1.5,1,2.3c0.1,2.2,1.3,3.8,2.4,5.5c0.9,1.4,2.2,2.2,3.8,2.4c4.7,0.4,9.4,0.7,14.2-0.3c4.3-0.9,8.6-1.9,13-1
		c0.9,0.2,1.9,0.1,2.8,0.1c2.3,0,4.5,0,6.7,0.5c0.5,0.1,1.1,0.3,1.5-0.5c-2.3-1.6-4.6-2.7-7.5-2.4c-2,0.2-4-0.3-6-0.6
		c-0.4-0.1-0.7-0.5-1.5-1.1c1.3-0.1,1.9-0.2,2.6-0.1c2.1,0.1,4.2,0.4,6.4,0.4c1.6,0,3,0.3,4.4,1.1c1.7,0.9,3.5,1.4,5.3,2
		c0.7,0.2,1.6,0.3,2.3-0.8c-0.5-0.2-0.8-0.5-1.2-0.6c-2.5-0.6-5-1.3-7.4-2.4c-0.8-0.4-1.8-0.5-2.7-0.6c-3.7-0.3-7.3-0.5-10.9-1.5
		c-1.3-0.4-2.9-0.4-4.2-0.1c-3.9,0.8-7.7,1-11.6,0.7c-1.1-0.7-1.5-1.8-1.9-2.9c-1.1-3.6-2.1-7.3-3.4-10.9
		c-2.1-5.8-1.8-11.6-1.2-17.5c0.2-1.5,0.4-3.1,0.4-4.6c0.1-3.2-0.1-6.4-1.3-9.3c1-0.7,1.4-0.8,1.6-0.5c0.4,0.8,0.9,1.7,1.1,2.6
		c0.4,1.5,0.5,3,0.8,4.6c3.4,1.7,6.9,2.5,10.6,2.5c2.7,0,5.5,0,8.2,0c0.6,0,1.2,0.1,1.3,1.1c-0.6,0.2-1.2,0.7-1.9,0.7
		c-2.6,0.2-5.2,0.3-7.8,0.2c-3.3-0.1-6.5-1.2-9.5-2.6c-0.6,1.3-0.3,2.5,0.2,3.6c2.4,4.7,6,7.9,11.3,9c3,0.6,6.1,0.5,9.1-0.6
		c2.3-0.8,4.7-1.6,7.1-2.4c0.7-0.3,1.5-0.8,2-1.3c1-1,2.1-2,2.7-3.2c0.8-1.6,2-2.8,2.7-4.4c0.5-1.3,1.2-2.6,1.6-3.9
		c0.4-1.2,0.4-2.6,0.9-3.8c1.1-2.7,0.7-5.1-0.9-7.4c-0.5-0.8-1.2-1.6-1.3-2.5c-0.1-1.3-0.8-1.9-1.6-2.6c-4.9-4.1-10.7-6-17-6.2
		c-1.4-0.1-2.9-0.3-4.2,0c-2.1,0.6-4.2,0.4-6.3,0.6c-2,0.1-4,0.3-6,0.6c-3.8,0.5-7.4,1.7-11,2.8c-1.7,0.5-3.4,1.1-5.2,1.1
		c-1.5,0.1-2.7,0.5-4,1.1c-2.9,1.3-4.8,3.7-6.6,6.3c0.5,1.5-0.5,3.2,0.5,4.5C550.6,418.5,549.4,420.2,550.5,421.4z M288.1,541.7
		c-1,0.2-1.3,0.2-1.6,0.3c-2,1-3.9,2.4-6,3.1c-2.7,1-5.2,2.3-7.8,3.5c-3.1,1.5-5.8,3.6-8.6,5.3c-0.2,1.3-0.3,2.4,0.6,3.2
		c0.9,0.8,1.1,1.8,1.3,2.8c1.4,5,4.3,8.9,8.4,12.1c0.8,0.6,1.5,1.1,2.2,1.8c0.8,0.8,1.7,1.3,2.7,1.5c1.9,0.5,3.6,1.2,3.6,3.7
		c0,0.6,0.3,1.1,0.6,1.7c1.6,2.9,3.1,5.9,4.8,8.7c0.4,0.7,1.1,1.2,1.8,1.6c2.8,1.7,5.8,3.3,9,4.1c3.9,0.9,7.9,1.4,11.9,2.1
		c1.6,0.3,3-0.3,4.4-1.1c1.3-0.8,2.2-1.8,2.8-3.1c-0.2-1.2-0.4-2.3-0.5-3.5c-0.1-1.2,0.1-2.4-0.6-3.6c-1.3-0.7-2.8-1.2-4-2.1
		c-1.2-0.9-2.3-2.1-3.1-3.3c-0.8-1.3-1.1-2.8-1.6-4.1c-1-0.2-2.3,0.9-2.6-1.2c0.8-0.5,1.6-1.1,2.3-1.5c0.1-1.1,0.2-1.9-0.5-2.3
		c-1.1,0.4-2,0.8-3,1c-0.3,0.1-0.8-0.4-1-0.8c-0.1-0.2,0.1-0.7,0.4-0.9c0.9-0.5,1.8-1,2.9-1.5c-0.4-0.6-0.8-1.2-1.2-1.7
		c-1.3,0.7-2.4,1.4-3.6,1.9c-0.3,0.1-1,0-1.2-0.3c-0.2-0.2,0-1,0.2-1.2c1.3-1.2,2.9-2,4.5-2.2c1.9-2.1,1.1-4.5,1.5-6.7
		c0.1-0.5-0.2-1.1-0.3-1.7c-2,0.2-4.1-0.1-5.8,0.6c-3.3,1.3-6.8,1-10.2,1.3c-2,0.2-3.7-0.6-5-2.2c-1.2-1.4-1.9-3.1-1.6-4.9
		c0.4-2.9,0.7-5.9,2.8-8.3C287.1,543.3,287.4,542.7,288.1,541.7z M532,532.1c1.3,0,2.2,0,3.1,0c4,0,8.1-0.1,12.1,0.1
		c9,0.5,18,0.5,27,0.3c3.9-0.1,7.8-0.4,11.7-0.5c0.9,0,1.9,0,2.8,0c0.9,0,1.8,0.1,2.7,0.2c0.6-3.1,0.6-4.3-0.1-6.7
		c-1.1-0.1-2.2-0.2-3.3-0.3c0.9-0.5,1.9-0.5,2.8-0.7c0.2,0,0.4-0.4,0.6-0.7c-2.4-0.4-13.3-0.4-15.3-0.1c0,0.1,0,0.3,0,0.3
		c2.2,1.5,4.8-0.2,7.7,1.1c-1.6,0.1-2.5,0.2-3.4,0.2c-0.9,0-1.9,0-2.8,0.1c-0.9,0.1-1.8,0.2-2.9,0.4c-0.2-2.2-0.4-4.2-0.4-6.2
		c-0.2-8.7-0.4-17.3-0.6-26c0-0.5-0.2-0.9-0.3-1.4c-0.9-0.4-1.8-0.9-2.6-1.2c-0.8-0.3-1.5-1.2-2.7-0.8c-0.1,1.3-0.2,2.6-0.3,3.8
		c-0.3-1.5-0.3-3-0.5-4.5c-0.1-0.7-0.3-1.3-1.5-1.1c0,11.9,0.6,23.7,0.9,35.5c0.2,0.5,1.4,0.2,0.9,1.2c-3.5,0.3-7,0.7-10.6,1
		c-1.8,0.1-3.6,0.2-6.2-0.5c4.3-0.5,7.9-0.9,11.4-1.3c-6.3-0.5-12.6-0.7-18.8-0.1c-2.4,0.2-4.7,0.5-7.1,0.1
		c-1.3-0.2-2.8,0.2-4.2,0.4c-0.1,0-0.4,0.4-0.4,0.5c0.1,0.3,0.3,0.8,0.5,0.8c1.7,0.1,3.4,0.2,5.1,0.2c0,0.1,0,0.3,0,0.4
		c-1.8,0-3.5,0-5.3,0C531.7,528.5,531.7,530.1,532,532.1z M578.5,457.6c1.1-0.3,1.9-0.7,2.7-0.7c1.7,0,2.9-0.8,3.8-2.2
		c1.9-2.9,4.4-5.2,6.9-7.6c2.4-2.3,4.9-4.5,7.3-6.8c0.5-0.4,0.9-0.9,1.9-2c-4,1.5-7.2,2.5-10.7,2.5c-3.4,0-6.5-1-9.4-2.7
		c-3-1.8-4.8-4.7-7-7.8c-0.3,1.2-0.7,2-0.8,2.7c-0.2,2.2-0.3,4.5-0.4,6.7c0,0.6,0.2,1.2,0.3,1.7
		C573.8,447.2,576.3,452.2,578.5,457.6z M545.5,397.9c-1.2,2.8-0.4,4.9,1.1,6.8c4.8-1.6,9.6-2.7,14.3-4.4c3.7-1.3,7.5-2.1,11.1-3.7
		c1-0.4,2-0.6,3.1-0.9c2.7-0.6,5.5-1.2,8.6-1.8c-2.3-0.6-4.3-0.9-6.3-0.9c-7.1-0.1-14.2,0.9-21.2,1.3
		C552.2,394.5,548.7,395.8,545.5,397.9z M560.3,402.5c0,0.1,0.1,0.2,0.1,0.3c0.6-0.1,1.1-0.1,1.7-0.3c2.3-0.7,4.5-1.4,6.8-2
		c4.3-1.2,8.7-2.1,13.3-2c4.6,0.1,9.2-0.1,13.9,0c1.3,0,2.6,0.4,3.8,0.7c1.2,0.3,2.4,0.8,4,1.3c-0.3-0.9-0.5-1.4-0.7-2
		c-0.2-0.5-0.4-1-0.7-1.6c-0.7-0.2-1.3-0.4-1.8-0.5c-1.3-0.1-2.6-0.1-3.9-0.1c-3.2-0.1-6.4,0.2-9.5-0.4c-2.6-0.4-4.9-0.3-7.4,0.3
		c-3.5,0.7-6.9,1.5-10.4,2.3c-0.8,0.2-1.6,0.5-2.4,0.8C564.8,400.5,562.5,401.5,560.3,402.5z M309.8,575.1c-0.3,2,0.2,3.6,1.3,5.1
		c1.5,1.9,3.1,3.5,5.5,4.2c0.6,0.2,1.2,0.6,1.7,0.9c0.3,1.4,0.5,2.6,0.8,3.9c1.6-1.3,1.7-1.4,1.7-2.3c-0.1-0.8-0.2-1.6-0.4-2.4
		c-0.5-2.6-1.1-3.1-3.8-3c-1.5,0.1-2.5-0.5-3.3-1.6c-0.5-0.8-0.9-1.6-1.5-2.4C311.4,576.5,311,575.5,309.8,575.1z M617,419.4
		c-1.8,2.5-2.4,5.5-2.1,10.1c0.3-0.8,0.6-1.3,0.7-1.8C616.1,425,616.5,422.4,617,419.4z M266.9,550.4c0.9-0.6,1.8-1.1,2.7-1.7
		C268.4,548.9,267.1,548.6,266.9,550.4z M669.1,393c-0.1,0-0.2,0-0.3,0c0,1,0,2,0,3c0.1,0,0.2,0,0.3,0
		C669.1,395,669.1,394,669.1,393z"/>
	<path d="M546.8,36.8c0.4,0.9,0.7,1.7,1.1,2.6c-1.2,0.5-1.5,0.5-1.8-0.4c-0.4-1.3-0.7-2.7-1.1-4.2c-0.2,1.3-0.3,2.5-0.5,3.8
		c-0.6,0.2-1.3,0.4-1.8,0.8c-0.5,0.4-0.9,1-1.3,1.6c-1,0-1.9-0.1-2.4-1.1c0.2-0.5,0.5-0.9,0.6-1.4c0.1-1,0-2,0-3
		c0.6,0.2,0.8-0.1,0.8-0.7c0.2,0,0.4,0,0.7,0c0.1,0,0.2-0.1,0.3-0.1c-0.1-0.1-0.3-0.3-0.4-0.3c-0.2,0.1-0.3,0.3-0.4,0.4
		c-0.3,0.2-0.5,0.5-0.8,0.7c-0.6,1.4-0.7,2.9-0.6,4.4c-1.2,0.2-1.3,1.5-2.8,2.2c1.3,0.3,1.9,0.4,2.8,0.6c-1.8,1.6-1.8,1.6-3.5,0.3
		c0.7-1.4,1.4-2.9,1.9-4.4c0.2-0.6,0-1.4,0-2.2c-0.5-0.1-0.9-0.1-1.4-0.1l0.1,0.1c0.3-1,0.6-2,1-3c0.2,0.4,0.4,0.9,0.7,1.4
		c2.6-2.2,3-2.3,7.8-1.5c1.1,1.1,0,2.8,1.1,3.8L546.8,36.8z M540.7,38.4c1.2-0.1,2.2-0.3,3.5-0.4c-0.4-0.6-0.8-0.9-0.9-1.3
		c-0.1-0.3,0.1-0.7,0.1-1.1C540.7,35.6,540.6,35.7,540.7,38.4z"/>
	<path d="M559.4,584.5c0.7-0.1,1.4-0.1,2.1-0.2c7.3-0.2,14.7-0.4,22-0.6c2.1,0,4.3,0,6.4,0.1c0.8,0,1.5,0.4,2.3,0.8
		c-4.5-0.4-8.8,0.5-13.2,0.5c-4.5,0-9,0.1-13.5,0.1C563.4,585.4,561.4,585.4,559.4,584.5z"/>
	<path d="M634.8,584.7c0.6,0,1.2,0,1.7,0c7.1,0.4,14.2,0,21.2-0.4c1.4-0.1,2.8-0.1,4.3,0c0.4,0,0.8,0.2,2.1,0.6
		c-4,0.3-7.1,0.7-10.3,0.8c-3.2,0.1-6.4,0.1-9.6,0c-3.2-0.1-6.3-0.4-9.5-0.7C634.7,584.9,634.7,584.8,634.8,584.7z"/>
	<path d="M595.5,518.7c-0.9-0.3-0.8-1.1-0.8-1.7c-0.1-3.5-0.1-7.1-0.1-10.6c0-1.9,0-3.8,0.1-5.7c0-0.9,0-1.9,1-2.5
		c0.1,0.1,0.3,0.2,0.3,0.2c0,6.6,0,13.2-0.1,19.8C595.8,518.3,595.6,518.5,595.5,518.7z"/>
	<path d="M338.1,235c1.3-0.1,2.1-1,3-1.7c1-0.8,2.1-1.5,3.2-2.1c1.5-0.9,3.2-1.5,4.7-2.5c1.4-0.9,2.6-1.9,4-2.9
		c0.6,0.5,0.2,0.8-0.1,1.1c-2.1,2.1-4.2,4.1-7,5.3c-1.5,0.6-2.8,1.7-4.1,2.7c-1.2,0.8-2.2,1.8-3.9,1.4
		C337.9,235.7,338,235.3,338.1,235L338.1,235z"/>
	<path d="M596.6,563.8c-0.6-1-1-1.3-1.1-1.7c-0.2-0.8-0.2-1.6-0.3-2.5c-0.2-6.7-0.4-13.5-0.6-20.2c0-0.4,0.1-0.9,0.2-2
		C596.4,546.4,595.7,554.8,596.6,563.8z"/>
	<path d="M382.3,531.1c4-1.6,8-3.5,12.4-4.2c1.8-0.3,3.6-1.2,5.4-1.8c0.4-0.1,0.8-0.2,2-0.5c-2.9,2.3-5.4,3.6-8.2,4.1
		c-2.1,0.4-4.2,0.8-6.1,1.9C386,531.6,384.1,531,382.3,531.1L382.3,531.1z"/>
	<path d="M554.1,69c0-0.7-0.2-1.4-0.8-1.8c-0.5-0.3-1-0.5-1.5-0.9c-0.2-0.2-0.2-0.6-0.3-0.9c0.3-0.1,0.7-0.3,0.9-0.2
		c0.6,0.3,1.1,0.8,1.7,1.2c0.5,0.3,1,0.6,1.4,0.9c2.1-1.6,2.1-1.6,2.3-4c2.2,0.7,3.4,3.2,6,3c0.1,1.3-0.7,1.3-1.3,1.1
		c-1.1-0.4-2.1-1-3.3-1.5c-0.4,0.3-1,0.6-1.3,1c-0.6,1.1-1.4,1.5-2.6,1.4C554.8,68.3,554.4,68.7,554.1,69L554.1,69z"/>
	<path d="M645.8,424.2c-0.2,0.9-1,1.1-1.6,0.7c-1.1-0.7-2-1.5-3.2-2.5c-0.9,0.5-1.7,1.1-2.8,1.8c-0.7-0.2-1.5-0.5-2.4-0.8l0.1,0.1
		c-0.7-1-1.5-2-2.3-3.2c0.6-0.1,1-0.3,1.1-0.2c0.6,0.6,1.1,1.2,1.6,1.9c1,1.2,1.8,1.2,3,0.2c0.3-0.3,0.7-0.7,0.9-1.1
		c0.2-0.4-0.3-1.1,0.6-1.4c0.8,1,1.7,2,2.5,3C644,423.5,644.8,424.2,645.8,424.2L645.8,424.2z"/>
	<path d="M561,51.9c0.1-0.3,0.1-0.6,0.2-0.9l-0.1,0.1c2.5,0,2.5,0,6.8,2.8c-2.7-0.4-4.7,0.1-6.6,1.3C560.4,54.1,560,53,561,51.9
		c0.2,0.1,0.3,0.2,0.4,0.4c0.1-0.1,0.1-0.2,0.2-0.4C561.4,51.9,561.2,51.9,561,51.9z"/>
	<path d="M553,584c-5,1-10.1,0.8-15.2,0.3c2.5-0.7,5-0.3,7.5-0.3C547.8,584,550.4,584,553,584z"/>
	<path d="M538.3,47.1c-0.6,1.2-0.9,1.9-1.3,2.6c-1.1,2-1.1,4-0.3,6.1c0.3,1,0.6,2,0.9,3c0,0.1-0.1,0.2-0.3,0.4
		c-1.4-2-2.5-4.1-2.2-6.5C535.3,50.7,535.9,48.6,538.3,47.1z"/>
	<path d="M549,29.1c1,0.9,2.1,1.8,3.1,2.8c0.8,0.9,2.5,0.9,2.6,2.5c0,0.1,0.7,0.1,1,0.3c0.3,0.2,0.5,0.6,1,1.1
		c-1.9,0.4-3.3-0.4-4.1-1.3C551,32.9,549.2,31.5,549,29.1L549,29.1z M553,33.5l-0.1,0.2l0.2,0L553,33.5z"/>
	<path d="M596.3,582.8c0.1-4.1-1.2-8.2-0.7-12.6C596.5,574.9,596.7,577.4,596.3,582.8z"/>
	<path d="M534.8,26.9c1.1,2.7,0,5.3-0.3,8c-0.1,0.9-0.5,1.8-0.8,2.9c-0.1-0.6-0.2-1-0.2-1.3c0.3-3,0.6-6.1,0.9-9.1
		C534.4,27.2,534.7,27.1,534.8,26.9L534.8,26.9z"/>
	<path d="M572.9,35.5c-0.2,0.2-0.5,0.4-0.9,0.8c0.1-1.2-0.4-2.3,0.4-3.7c1.6,1.5,2.8,3,3.1,5c-0.4,0.6-0.9,0.6-1.2,0.2
		C573.8,37.1,573.4,36.2,572.9,35.5z"/>
	<path d="M556.9,29.8c1.3,1.8,2.8,3.4,5,4.2l0-0.1c-1.8,1.5-3.5,0.5-5.3-0.2c0.4-0.2,0.7-0.4,1-0.6c0.5-0.7-0.5-1.1-0.5-1.7
		C557.1,30.8,557,30.3,556.9,29.8L556.9,29.8z"/>
	<path d="M617.8,585.5c-1.1,0.2-1.5,0.3-1.9,0.3c-3,0-6,0-9.1-0.3C610.3,585.5,613.7,585.5,617.8,585.5z"/>
	<path d="M402.3,509.6c-2.5,2-4.2,2.9-6.7,3.4C396.9,511.4,398,510.9,402.3,509.6z"/>
	<path d="M379.6,514.8c1.1-2,2.6-3.1,5.1-4C382.9,513.1,382.8,513.1,379.6,514.8z"/>
	<path d="M537.5,74.1c-0.7-1.6-0.8-3.3-0.3-5.2C538.2,71,538.2,71,537.5,74.1z"/>
	<path d="M565.3,46.7c2.5,1.4,4.5,2.2,5.1,4.7C568.1,50.1,566.8,49,565.3,46.7z"/>
	<path d="M333.4,216.1c-1.4,3.7-1.4,3.7-3.7,5.3c0-0.4-0.1-0.8,0-1C330.9,218.9,332.1,217.5,333.4,216.1z"/>
	<path d="M563.3,31.9c-0.5-1.2-1.8-2.1-1.4-3.7l-0.1,0.1c0.3,0,0.7-0.1,1-0.1c0.5,1,1.1,2,1.7,3.2C564,31.6,563.6,31.7,563.3,31.9
		L563.3,31.9z"/>
	<path d="M618,422.3c0.4-0.7,0.8-1.4,1.2-2.1c0.7,0,0.7,0.5,0.6,0.9c-0.4,1.5-0.8,2.9-1.3,4.7c-0.7-1.4-0.2-2.6-0.4-3.8L618,422.3z"
		/>
	<path d="M548.4,34.9c0.8,0.2,1.4,0.4,1.9,0.5c0.5,0.1,0.9,0.1,1.4,0.2c0.5,0.1,1.1,0.3,1.9,0.5C551.4,37,550.7,36.8,548.4,34.9z"/>
	<path d="M531.5,30.4c0.2,1.9,0.5,3.8,0.7,5.7C530.8,34.4,531.2,32.4,531.5,30.4z"/>
	<path d="M289.8,551.9c0.9,0.5,1.7,1.1,2.6,1.6c-0.4,0.8-1.1,1-1.9,0.6C289.7,553.8,289.6,553.2,289.8,551.9z"/>
	<path d="M348.2,212.8c-0.6,1.7-2.2,2.2-3.1,3.4c-0.8-0.4-0.6-0.9-0.3-1.2C345.9,214.1,346.6,212.9,348.2,212.8L348.2,212.8z"/>
	<path d="M252,280.5c1.4,0.4,2.3,0.7,3.6,1.1c-0.8,0.4-1.4,0.9-2,0.9C252.7,282.5,252.2,281.8,252,280.5z"/>
	<path d="M547.5,36.9c1.3,0.5,2.7,1.1,4.3,1.7C549.3,39.2,548.9,39,547.5,36.9L547.5,36.9z"/>
	<path d="M568.3,33.3c-1.5-1.7-1.7-2.3-2.1-4.9l-0.1,0.1C567.9,31.2,568,31.2,568.3,33.3L568.3,33.3z"/>
	<path d="M395.1,523.3c1-0.2,1.9-0.4,3.2-0.7C397.2,523.8,397.2,523.8,395.1,523.3z"/>
	<path d="M292.7,548.9c-0.5,1-1.4,1.4-2.1,2c-0.6-0.4-0.6-0.8-0.2-1.1C291,549.2,291.7,548.6,292.7,548.9L292.7,548.9z"/>
	<path d="M555.4,16.2c-1.4,0.1-2.5-0.5-3.6-1.4l-0.1,0.1C553.3,14.6,554.5,15.1,555.4,16.2L555.4,16.2z"/>
	<path d="M595.1,583.4c0.6,0.9,0.1,1.5-0.7,2C594,584.4,594,584.4,595.1,583.4z"/>
	<path d="M601.7,586c0.8,0,1.7-0.1,2.8-0.1C603.5,586.8,602.6,586.2,601.7,586z"/>
	<path d="M534.9,27c0-1,0-2.1,0-3.1C535.6,25,535.5,26,534.9,27L534.9,27z"/>
	<path d="M334.6,237.7c0.4-0.7,1-0.8,1.7-0.6C335.9,237.9,335.3,237.7,334.6,237.7L334.6,237.7z"/>
	<path d="M256.9,273.3c0.1,1-0.2,1.6-1.2,1C256.1,274,256.5,273.7,256.9,273.3z"/>
	<path d="M555.4,16.3c1.5,0.1,1.8,0.4,2.1,1.5l0.1-0.1C556.7,17.4,555.8,17.2,555.4,16.3L555.4,16.3z"/>
	<path d="M253.6,277.7c-0.3,0.6-0.6,1.2-1,1.9c-0.5-1.2-0.5-1.2,0.8-2.1L253.6,277.7z"/>
	<path d="M547.5,27c1.1,0.2,1.5,1.1,1.5,2.1L549,29C548,28.7,547.7,27.9,547.5,27L547.5,27z"/>
	<path d="M570.7,34c0-0.5,0-0.9,0-1.4c0.1,0,0.1,0,0.2,0c0,0.5,0,0.9,0,1.4C570.8,34,570.7,34,570.7,34z"/>
	<path d="M349.7,526.1c0.2-0.7,0.7-1,1.4-1C350.9,526,350.3,526,349.7,526.1L349.7,526.1z"/>
	<path d="M386.6,508.7c0.6-0.5,1-0.8,1.7-1.4C387.8,508.5,387.8,508.5,386.6,508.7z"/>
	<path d="M296.5,546.4c-0.3,0.7-0.7,1.1-1.5,0.7C295.2,546.3,295.7,546.1,296.5,546.4z"/>
	<path d="M405.9,506.9c0.1-0.8,0.7-1,2.1-1.1C406.9,506.3,406.3,506.6,405.9,506.9L405.9,506.9z"/>
	<path d="M531.7,38.2c0,0.5,0,1.1-0.1,1.6c-0.1,0-0.3,0-0.4,0c0.1-0.5,0.1-1.1,0.2-1.6C531.5,38.2,531.6,38.2,531.7,38.2z"/>
	<path d="M261.1,271.4c-0.3,0.1-0.6,0.2-0.8,0.3c0-0.2-0.1-0.4-0.1-0.5c0.1-0.2,0.4-0.3,0.6-0.3
		C260.8,270.9,260.9,271.2,261.1,271.4z"/>
	<path d="M543.3,23.3c0.5,0.7,0.5,0.7,0.2,1.6C543.5,24.4,543.4,23.8,543.3,23.3L543.3,23.3z"/>
	<path d="M526.9,46.8c0.5-0.5,0.9-0.9,1.4-1.4l-0.1-0.1C528.1,46.5,528.1,46.6,526.9,46.8L526.9,46.8z"/>
	<path d="M385.4,528.6c-0.4,0.6-0.8,0.7-1.3,0.1C384.4,528.1,384.9,528.1,385.4,528.6z"/>
	<path d="M299.1,545c0.9-0.2,1.2-0.3,1.5-0.3c0.1,0,0.2,0.1,0.3,0.2c-0.1,0.1-0.2,0.4-0.3,0.4C300.2,545.3,299.9,545.2,299.1,545z"
		/>
	<path d="M573.2,25.5c-0.2-0.2-0.5-0.4-0.7-0.6c-0.1-0.1-0.1-0.2-0.1-0.3c0.2,0,0.5,0,0.5,0.1C573.1,24.9,573.1,25.2,573.2,25.5
		L573.2,25.5z"/>
	<path d="M546.9,25.4c-0.7-0.3-0.6-0.8-0.3-1.3C546.7,24.5,546.8,25,546.9,25.4L546.9,25.4z"/>
	<path d="M338.2,234.9c-0.2-0.4-0.5-0.8-0.8-1.3c0.5-0.1,0.8-0.1,1.3-0.2C338.4,234.1,338.2,234.5,338.2,234.9L338.2,234.9z"/>
	<path d="M336,213.6c-0.2,0.1-0.5,0.3-0.7,0.4c0,0-0.2-0.2-0.2-0.2c0.2-0.2,0.4-0.5,0.6-0.7C335.7,213.2,335.8,213.3,336,213.6z"/>
	<path d="M348.1,225.5c-0.2,1-0.8,0.8-1.8,0.3C347.1,225.7,347.7,225.6,348.1,225.5L348.1,225.5z"/>
	<path d="M348.2,225.6c0.4-0.7,0.9-1,1.8-0.1C349.2,225.5,348.7,225.5,348.2,225.6L348.2,225.6z"/>
	<path d="M353.1,207c0,0.2,0,0.4,0,0.6c0,0.1-0.1,0.2-0.2,0.3c-0.1-0.2-0.2-0.3-0.3-0.5C352.8,207.3,353,207.2,353.1,207L353.1,207z
		"/>
	<path d="M559.6,19.2c0.2,0,0.4,0,0.7,0.1C560,19.2,559.9,19.2,559.6,19.2L559.6,19.2z"/>
	<path d="M559.7,16.2c0.4,0.3,0.9,0.5,1.3,0.8l0.1-0.1c-0.6-0.1-1.4,0.3-1.3-0.8L559.7,16.2z"/>
	<path d="M563.2,31.8c-0.1,0.5-0.4,0.7-1.2,0.3C562.6,32,563,32,563.2,31.8L563.2,31.8z"/>
	<path d="M561.2,51c-0.4,0-0.8,0-1.5,0c0.9-0.7,1.1-0.3,1.4,0.1L561.2,51z"/>
	<path d="M311.3,233.5c0-0.3,0.1-0.6,0-0.3C311.5,233,311.4,233.2,311.3,233.5L311.3,233.5z"/>
	<path d="M558.3,15.5c0.5,0.2,1,0.5,1.4,0.7l0.1-0.1C559.2,16.2,558.5,16.5,558.3,15.5L558.3,15.5z"/>
	<path d="M556.8,14.8c0.6-0.1,1.2,0,1.5,0.7l0.1-0.1C557.7,15.6,557,15.7,556.8,14.8L556.8,14.8z"/>
	<path d="M546.8,25.5c0.8,0.2,0.8,0.8,0.7,1.5l0.1-0.1C546.9,26.6,546.9,26,546.8,25.5L546.8,25.5z"/>
	<path d="M561.1,16.9c0.5,0.2,1,0.5,1.4,0.7l0.1-0.1C562,17.4,561.3,17.7,561.1,16.9L561.1,16.9z"/>
	<path d="M381.6,521.1c-0.2,0.1-0.3,0.3-0.5,0.4c-0.1,0.1-0.2,0-0.3,0c0.1-0.1,0.1-0.3,0.3-0.4C381.2,521.2,381.5,521.2,381.6,521.1
		L381.6,521.1z"/>
	<path d="M559.1,18.2c-0.7,0.2-1.2,0-1.5-0.6l-0.1,0.1C558.1,17.5,558.6,17.7,559.1,18.2L559.1,18.2z"/>
	<path d="M566.2,28.3c-0.7-0.2-0.6-0.9-0.7-1.4l-0.1,0.1C565.6,27.4,565.8,27.9,566.2,28.3L566.2,28.3z"/>
	<path d="M531.9,26.9c0.3,0.2,0.8,0.4,0.3,1C532.1,27.5,532,27.2,531.9,26.9L531.9,26.9z"/>
	<path d="M568.2,33.3c0.6,0.2,0.8,0.6,0.2,1.3C568.3,34,568.3,33.6,568.2,33.3L568.2,33.3z"/>
	<polygon points="356.7,522.5 356.6,522.7 356.7,522.6 	"/>
	<path d="M303.4,543.2c0.1-0.1,0.2-0.2,0.2-0.3c0,0.1,0,0.1-0.1,0.2C303.5,543.1,303.4,543.1,303.4,543.2L303.4,543.2z"/>
	<polygon points="356.7,522.6 356.9,522.4 356.7,522.5 	"/>
	<path d="M446.5,481.9c-0.1,0.1-0.3,0.2-0.4,0.3c0-0.1,0.1-0.2,0.1-0.2C446.3,482,446.4,482,446.5,481.9L446.5,481.9z"/>
	<path d="M303.3,543.1c-0.1,0.1-0.2,0.2-0.3,0.4c0-0.1,0-0.2,0.1-0.2C303.2,543.2,303.3,543.2,303.3,543.1L303.3,543.1z"/>
	<path d="M358.8,521.1c-0.1,0.1-0.2,0.2-0.2,0.4c0-0.1,0-0.1,0.1-0.2C358.7,521.2,358.8,521.2,358.8,521.1L358.8,521.1z"/>
	<path d="M548.2,14.8c-0.1-0.1-0.1-0.1-0.2-0.2C548.1,14.7,548.1,14.8,548.2,14.8L548.2,14.8z"/>
	<polygon points="381.7,521.2 381.8,521 381.6,521.1 	"/>
	<polygon points="359.6,520.4 359.7,520.2 359.5,520.3 	"/>
	<path d="M358.9,521.2c0.2-0.3,0.5-0.5,0.7-0.8l-0.1-0.1C359.5,520.8,359.2,521,358.9,521.2L358.9,521.2z"/>
	<path d="M378.1,529.1c0.2-0.3,0.5-0.5,0.7-0.8l-0.1-0.1C378.5,528.4,378.3,528.7,378.1,529.1L378.1,529.1z"/>
	<path d="M378.8,528.3c0.1-0.2,0.2-0.3,0.3-0.5c0.4,0.6-0.2,0.3-0.4,0.4L378.8,528.3z"/>
	<path d="M562.5,17.6c0.1,0.1,0.2,0.2,0.3,0.3c0,0-0.1-0.1-0.1-0.1C562.6,17.7,562.6,17.6,562.5,17.6L562.5,17.6z"/>
	<path d="M405.8,506.8c-0.1,0.2-0.2,0.4-0.2,0.6C405.1,506.8,405.6,506.9,405.8,506.8L405.8,506.8z"/>
	<polygon points="349.6,526 349.5,526.2 349.7,526.1 	"/>
	<path d="M551.9,14.8c-0.1-0.1-0.2-0.2-0.3-0.3c0.1,0,0.2,0,0.2,0.1C551.8,14.7,551.8,14.8,551.9,14.8L551.9,14.8z"/>
	<polygon points="548.2,14.8 548.4,14.9 548.2,14.8 	"/>
	<path d="M292.7,549c0-0.1,0-0.2,0-0.3C292.7,548.8,292.7,548.9,292.7,549L292.7,549z"/>
	<path d="M559,18.3c0.2,0.3,0.4,0.6,0.6,0.9l0.1-0.1C559.5,18.8,559.3,18.5,559,18.3L559,18.3z"/>
	<path d="M386,172.9c-0.1,0.1-0.2,0.3-0.4,0.4C385.4,172.8,385.8,172.9,386,172.9L386,172.9z"/>
	<polygon points="382.9,176.8 382.7,176.9 382.7,176.7 	"/>
	<path d="M554.7,30.5c0.1,0,0.1,0.1,0.2,0.1C554.9,30.6,554.8,30.5,554.7,30.5L554.7,30.5z"/>
	<path d="M354,206.4c0-0.1,0.1-0.2,0.1-0.3C354,206.2,353.9,206.3,354,206.4L354,206.4z"/>
	<path d="M353.9,206.3c0,0.5-0.2,0.8-0.8,0.7l0.1,0.1C353.2,206.6,353.5,206.4,353.9,206.3L353.9,206.3z"/>
	<path d="M349.6,211.3c0.1-0.1,0.2-0.2,0.3-0.3c0,0.1,0,0.2-0.1,0.2C349.8,211.3,349.7,211.2,349.6,211.3L349.6,211.3z"/>
	<path d="M349.5,211.3c0.1,0.5-0.1,0.8-0.7,0.8l0.1,0.1C349.2,211.8,349.4,211.6,349.5,211.3L349.5,211.3z"/>
	<path d="M348.9,212c0.1,0.6-0.1,0.8-0.6,0.8l-0.1-0.1C348.1,212.2,348.5,212,348.9,212L348.9,212z"/>
	<polygon points="554.8,30.5 554.6,30.3 554.7,30.5 	"/>
	<path d="M332.6,227.8c0.1-0.1,0.2-0.3,0.3-0.4c0,0.1,0,0.2-0.1,0.2C332.7,227.6,332.6,227.6,332.6,227.8L332.6,227.8z"/>
	<path d="M332.5,227.7c-0.1,0.1-0.2,0.2-0.3,0.3c0-0.1,0-0.2,0.1-0.2C332.4,227.8,332.5,227.8,332.5,227.7L332.5,227.7z"/>
	<path d="M310.6,234.2c0.2-0.2,0.5-0.5,0.7-0.7l-0.1-0.1C311,233.6,310.7,233.9,310.6,234.2L310.6,234.2z"/>
	<path d="M309.8,234.8c0.3-0.2,0.5-0.4,0.8-0.7l-0.1-0.1C310.2,234.3,310,234.5,309.8,234.8L309.8,234.8z"/>
	<path d="M332.7,234.9c0.1-0.2,0.1-0.3,0.2-0.5c0,0.1,0,0.2,0,0.2C332.8,234.7,332.7,234.8,332.7,234.9L332.7,234.9z"/>
	<path d="M309.7,234.8c-0.2,0.2-0.5,0.5-0.7,0.7l0,0.1C309.3,235.3,309.5,235.1,309.7,234.8L309.7,234.8z"/>
	<path d="M332.6,234.9c-0.3,0.2-0.5,0.4-0.8,0.6l0.1,0.1C332.1,235.3,332.4,235.1,332.6,234.9L332.6,234.9z"/>
	<path d="M309,235.4c-0.1,0-0.1,0.1-0.2,0.1C308.9,235.6,309,235.5,309,235.4L309,235.4z"/>
	<path d="M536.2,36.1c-0.1,0.1-0.2,0.2-0.3,0.3c0-0.1,0-0.2,0.1-0.2C536,36.2,536.1,36.2,536.2,36.1L536.2,36.1z"/>
	<path d="M546.9,36.9c0.2-0.3,0.5-0.8,0.7,0l0.1-0.1c-0.3,0-0.6,0-0.8-0.1L546.9,36.9z"/>
	<path d="M530.9,41.2c0.1,0.1,0.1,0.2,0.2,0.2c-0.1,0-0.3,0-0.4,0C530.7,41.4,530.8,41.3,530.9,41.2z"/>
	<path d="M528.4,45.4c0.1-0.2,0.2-0.4,0.3-0.5C529,45.5,528.7,45.4,528.4,45.4L528.4,45.4z"/>
	<path d="M526.3,47.6c0.2-0.2,0.4-0.5,0.7-0.7l-0.1-0.1C527,47.3,526.7,47.5,526.3,47.6L526.3,47.6z"/>
	<path d="M526.2,47.5c-0.1,0.1-0.1,0.2-0.2,0.3C526.1,47.7,526.2,47.7,526.2,47.5L526.2,47.5z"/>
	<path d="M520.5,49.6c0,0.2-0.1,0.4-0.1,0.6l0.1,0.1C520.5,50.1,520.6,49.8,520.5,49.6L520.5,49.6z"/>
	<path d="M520.4,50.2c0,0.1,0,0.2,0,0.3C520.4,50.5,520.5,50.4,520.4,50.2L520.4,50.2z"/>
	<polygon points="561.8,34 561.9,34.1 561.9,33.9 	"/>
	<polygon points="565.5,26.9 565.3,26.8 565.4,26.9 	"/>
	<path d="M331.8,235.4c-0.3,0.3-0.5,0.5-0.8,0.8l0.1,0.1C331.3,236,331.6,235.8,331.8,235.4L331.8,235.4z"/>
	<path d="M304.1,239.9c0-0.2,0.1-0.4,0.1-0.6C304.8,239.8,304.2,239.7,304.1,239.9L304.1,239.9z"/>
	<path d="M556.9,29.7c-0.1-0.1-0.3-0.1-0.4-0.2c0.1,0,0.1,0,0.2,0.1C556.8,29.6,556.8,29.7,556.9,29.7L556.9,29.7z"/>
	<path d="M304,239.8c-0.1,0.1-0.2,0.3-0.3,0.4C303.5,239.7,303.9,239.9,304,239.8L304,239.8z"/>
	<path d="M263.1,268.4c0.1,0.1,0.1,0.2,0.2,0.2c-0.1,0.1-0.2,0.2-0.2,0.2c-0.1,0-0.1-0.1-0.2-0.2C263,268.6,263,268.5,263.1,268.4z"
		/>
	<polygon points="254.3,276.9 254.3,276.7 254.2,276.9 	"/>
	<path d="M253.4,277.5c0.1-0.5,0.4-0.7,0.9-0.5l-0.1-0.1c-0.2,0.3-0.4,0.5-0.6,0.8L253.4,277.5z"/>
	<path d="M561.9,28.2c-0.1-0.1-0.3-0.1-0.4-0.2c0.1,0,0.2,0,0.2,0C561.8,28.1,561.8,28.2,561.9,28.2L561.9,28.2z"/>
	<path d="M516.1,71.2c2.3,0.1,2.6,0.2,6.2,3C520.4,74.8,518.8,74.1,516.1,71.2z"/>
	<path d="M547,144.3c-2.1-0.8-3.1-2.6-4.3-4.2c0.6-0.8,1.2-0.9,1.7-0.5c1.4,1.2,2.6,2.7,2.5,4.7L547,144.3z"/>
	<path d="M510.5,94.6c-2.6-2.3-3.3-3.7-2.9-5.5C509,90.7,509.6,91.9,510.5,94.6z"/>
	<path d="M535.8,144.3c-1.1-0.7-1.1-0.7-0.7-1.7C536.2,143.4,536.2,143.4,535.8,144.3z"/>
	<path d="M513.6,72.1c-0.2,0.1-0.4,0.2-0.6,0.2c-0.1,0-0.2-0.4-0.2-0.5c0.1-0.1,0.4-0.3,0.5-0.2C513.4,71.6,513.5,71.9,513.6,72.1z"
		/>
	<path d="M525.9,76.7c0.1,0.2,0.1,0.4,0.2,0.6c-0.2,0-0.3,0-0.5,0c0-0.2,0-0.4,0.1-0.6C525.6,76.7,525.8,76.7,525.9,76.7z"/>
	<path d="M512.3,95.1c0.2,0.1,0.4,0.2,0.6,0.3c0.1,0.1-0.1,0.3-0.2,0.5c-0.2-0.1-0.5-0.1-0.6-0.2C512.1,95.6,512.3,95.3,512.3,95.1z
		"/>
	<path d="M497.8,92.1c-0.1,0-0.2,0.1-0.3,0.1c-0.1,0-0.2-0.1-0.3-0.2c0.2-0.1,0.3-0.1,0.5-0.2C497.7,92,497.7,92.1,497.8,92.1z"/>
	<polygon points="514.3,97 514,97.1 514,96.9 	"/>
	<path d="M549,148.7c-0.1,0.1-0.3,0.2-0.4,0.3c0-0.2-0.1-0.4-0.1-0.6c0-0.1,0.2-0.1,0.3-0.2C548.8,148.3,548.9,148.5,549,148.7z"/>
	<path d="M546.9,144.4c0.2,0.1,0.4,0.2,0.6,0.3c-0.1,0.2-0.2,0.3-0.3,0.5c-0.1-0.1-0.2-0.2-0.2-0.3c0-0.2,0-0.4,0.1-0.6L546.9,144.4
		z"/>
	<polygon points="517.5,99.1 517.3,99.2 517.3,99 	"/>
	<path d="M592.1,326c-5.1-0.1-10.2,0.2-15.3,0.4c-4.9,0.2-9.7,0.2-14.6,0.2c-1,0-2.1,0.2-3-0.7c0.4-0.8,1-0.5,1.5-0.5
		c4.5-0.1,9,0,13.5-0.1c3.1-0.1,6.2-0.2,9.2-0.4c2.7-0.2,5.4,0.1,8.1,0.6C591.8,325.5,591.9,325.8,592.1,326z"/>
	<path d="M595.6,259.9c-0.2-0.1-0.5-0.2-0.6-0.3c-0.9-6.2-0.3-12.5-0.2-18.7c0-0.5,0.2-1.2,1-1.4c0.1,0.1,0.3,0.3,0.3,0.4
		c0,6.5-0.1,13-0.2,19.5C595.9,259.6,595.7,259.7,595.6,259.9z"/>
	<path d="M596.3,304.2c-1-0.4-0.9-1.3-0.9-2.1c-0.2-4.6-0.4-9.2-0.5-13.8c-0.1-3.1,0-6.1,0-9.9C595.6,282.6,596.6,300.6,596.3,304.2
		z"/>
	<path d="M663.2,325.4c-9.5,1.9-19.1,1.2-28.5,1.2c-0.1-0.2-0.1-0.3-0.2-0.3c0.6-0.1,1.2-0.2,1.7-0.2c3.4,0,6.9,0,10.3-0.1
		c3.4-0.1,6.9,0,10.3-0.5C658.9,325.1,661.1,325.4,663.2,325.4z"/>
	<path d="M553.1,325.7c-5.5,0.5-10.5,0.2-16.1,0.3C539.9,325,547.6,325,553.1,325.7z"/>
	<path d="M601.6,327.1c2.8-0.4,10.5-0.4,13.6-0.1C610.8,327.4,603.9,327.5,601.6,327.1z"/>
	<path d="M595.3,312c1,3.8,1.5,7.8,0.9,11.8c0-0.4-0.1-0.8-0.1-1.2C595.8,319,595.6,315.5,595.3,312z"/>
	<path d="M595.1,324.7c0.5,1,0.1,1.5-0.9,1.8C593.8,325.6,594.1,325,595.1,324.7z"/>
	<path d="M403.8,157.2c2.4,1.9,4.3,4.2,6.9,7c-1-0.3-1.3-0.4-1.5-0.5c-1.6-1.7-3.2-3.4-4.8-5.1C404,158.2,403.6,157.8,403.8,157.2
		L403.8,157.2z"/>
	<path d="M380.2,157.9c1.4,1.1,2.8,2.3,4.6,3.7c-2.6-0.5-3.6-1.1-5.9-3.5C379.4,158,379.8,158,380.2,157.9L380.2,157.9z"/>
	<path d="M386.6,160.1c-1-0.4-1.9-0.7-2.8-1.2c-1.2-0.6-2.3-1.2-3.6-1l0.1,0.1c0-0.3,0-0.7,0.1-1c0.2-0.1,0.5-0.3,0.6-0.2
		c1.7,0.8,3.5,1.7,5.2,2.6C386.3,159.5,386.4,159.9,386.6,160.1L386.6,160.1z"/>
	<path d="M423.6,145.1c-0.9,1.2-2,2.1-3.6,2.1l0.1,0.1C421.1,146.1,422.1,145.2,423.6,145.1L423.6,145.1z"/>
	<path d="M408.8,157.2c0.1-0.2,0.1-0.5,0.2-0.6c0.6-0.5,1.3-1,2-1.4c0.7,0.5,0.3,0.9-0.1,1.1C410.3,156.8,409.6,157.4,408.8,157.2
		L408.8,157.2z"/>
	<path d="M423.7,145.2c0.3-1.1,1.1-1.5,2.1-1.4l-0.1-0.1C425.4,144.7,424.6,145,423.7,145.2L423.7,145.2z"/>
	<path d="M425.8,143.7c0.4-1,1.2-1.4,2.2-1.4l-0.1-0.1C427.5,143.2,426.8,143.7,425.8,143.7L425.8,143.7z"/>
	<path d="M388.1,160.8c0.2,0,0.4,0.1,0.6,0.1c0.1,0,0.2,0.1,0.2,0.2c-0.2,0-0.4,0.2-0.5,0.1C388.3,161.1,388.2,160.9,388.1,160.8
		L388.1,160.8z"/>
	<path d="M388.2,160.7c-0.6,0.1-1.2,0.1-1.5-0.6l-0.1,0.1C387.2,160,387.8,160.1,388.2,160.7L388.2,160.7z"/>
	<path d="M418,148.6c0.4-0.5,0.9-0.8,1.5-0.6l-0.1-0.1C419.1,148.6,418.5,148.7,418,148.6L418,148.6z"/>
	<path d="M428,142.3c0.1-0.2,0.2-0.3,0.3-0.5C428.7,142.4,428.1,142.2,428,142.3L428,142.3z"/>
	<path d="M420,147.2c0.2,0.6-0.2,0.7-0.6,0.8l0.1,0.1C419.3,147.5,419.7,147.3,420,147.2L420,147.2z"/>
	<path d="M417.9,148.5c0,0.1-0.1,0.3-0.1,0.4c0-0.1,0-0.1,0-0.2C417.8,148.7,417.9,148.7,417.9,148.5L417.9,148.5z"/>
	<polygon points="403.1,156.4 402.9,156.3 403,156.5 	"/>
	<path d="M403.9,157.1c-0.6,0.1-0.7-0.2-0.8-0.7l-0.1,0.1C403.3,156.7,403.5,156.9,403.9,157.1L403.9,157.1z"/>
	<path d="M408.7,157.2c-0.1,0.2-0.2,0.3-0.2,0.5C408,157.1,408.6,157.3,408.7,157.2L408.7,157.2z"/>
	<polygon points="403.4,162.5 403.4,162.7 403.3,162.6 	"/>
	<path d="M489.7,105.2c0.9-1.1,1.5-1.9,2.8-2.5C491.4,104.7,491.4,104.7,489.7,105.2z"/>
	<path d="M486.8,107.2c-0.1-0.1-0.2-0.1-0.3-0.2c0.2-0.2,0.4-0.4,0.6-0.5c0.1,0.2,0.1,0.3,0.2,0.5
		C487.2,107.1,487,107.2,486.8,107.2z"/>
	<path d="M486,116.3c-0.1,0.1-0.2,0.2-0.3,0.2c-0.2-0.1-0.4-0.2-0.6-0.3c0.1-0.1,0.2-0.3,0.2-0.2C485.6,116.1,485.8,116.2,486,116.3
		z"/>
	<path d="M465,133c1.9-1.9,3.7-3.8,5.6-5.7c0.1,0.1,0.2,0.2,0.4,0.2c-0.1,0.3-0.1,0.6-0.3,0.7c-1.4,1.4-2.8,2.9-4.2,4.2
		C466.1,132.9,465.4,132.8,465,133L465,133z"/>
	<path d="M454.1,108.6c0.5,1.2,0.2,2.3-0.2,3.4C452.7,110.7,452.7,110.3,454.1,108.6z"/>
	<path d="M459.9,104.6c-1.2-1.8-1.2-1.8,0-2.8C459.9,102.8,459.9,103.7,459.9,104.6z"/>
	<path d="M459.7,108.6c0,0.6,0,1.2,0,1.8C458.6,109.5,458.6,109.4,459.7,108.6z"/>
	<path d="M429.3,112.3c0.5,0,0.8-0.1,0.7-0.7c0.5,0,1,0.1,1.5,0.1l-0.1-0.1c-0.3,0.3-0.5,0.7-0.8,1
		C430.1,113.1,429.6,112.9,429.3,112.3z"/>
	<path d="M460.3,113.4c0-0.2-0.1-0.3-0.1-0.4c0,0,0.1-0.1,0.1-0.1C460.4,113.1,460.4,113.2,460.3,113.4z"/>
	<polygon points="432.3,110.9 432.4,110.8 432.2,110.8 	"/>
	<path d="M432.2,110.8c-0.2,0.3-0.5,0.5-0.7,0.8l0.1,0.1C431.8,111.5,432,111.2,432.2,110.8L432.2,110.8z"/>
	<path d="M427.2,115.3c0-0.3,0-0.6,0-0.9C428,114.7,427.7,115,427.2,115.3z"/>
	<path d="M426.5,116c0-0.3,0-0.6,0-0.8c0.3,0,0.5,0,0.8,0C427,115.4,426.8,115.7,426.5,116z"/>
	<path d="M464.9,132.9c-0.1,0.2-0.1,0.4-0.2,0.6c-0.1-0.1-0.2-0.1-0.3-0.2C464.6,133.2,464.8,133.1,464.9,132.9L464.9,132.9z"/>
	<polygon points="461.6,136 461.6,135.8 461.5,135.9 	"/>
	<path d="M460.8,136.6c0-0.6,0.2-0.8,0.8-0.7l-0.1-0.1C461.2,136.1,461,136.3,460.8,136.6L460.8,136.6z"/>
	<path d="M460.7,136.5c-0.2,0.2-0.5,0.5-0.7,0.7l0.1,0.1C460,136.8,460.3,136.6,460.7,136.5L460.7,136.5z"/>
	<path d="M460,137.3c-0.1,0.1-0.1,0.2-0.2,0.3C459.9,137.5,460,137.4,460,137.3L460,137.3z"/>
	<path d="M629.7,216.7c-1.5,1.5-3.1,1.7-4.5,2.1c-4.7,1.4-8.2,1.9-11.9,1.6c2.8-1.5,5.6-1.2,8.1-1.8
		C624,218,626.5,216.9,629.7,216.7z"/>
	<path d="M589.5,220.3c3.4-0.6,12.8-0.7,17.1-0.1c-1,0.2-1.5,0.3-2,0.4c-2.2,0.1-4.5,0.1-6.7,0.1c-2.4,0.1-4.7-0.2-7.1,0.4
		C590.3,221.2,589.6,221.2,589.5,220.3z"/>
	<path d="M618,230.9c-0.9-0.3-0.9-0.8-0.9-1.2c0-2.2,0-4.5,0-6.7c0-0.1,0.3-0.3,0.5-0.4c0.1,0.1,0.4,0.3,0.4,0.4
		C618,225.6,618,228.2,618,230.9z"/>
	<path d="M626.6,228c-0.1-0.4-0.4-0.8-0.3-1.2c0.2-3.3,0.5-4.4,1.7-6C628.5,223.3,627.5,225.5,626.6,228z"/>
	<path d="M555.4,198.5c2.1,1.4,3,3.6,4.3,5.5C557.3,202.2,556.2,200.7,555.4,198.5L555.4,198.5z"/>
	<path d="M551.2,192.1c-1.3-0.5-1.4-1.7-2.2-3C550.6,189.8,551.1,190.8,551.2,192.1L551.2,192.1z"/>
	<path d="M578.2,218.5c1.4,0.1,2.7,0.2,4.1,0.2C581,219,579.6,219.4,578.2,218.5L578.2,218.5z"/>
	<path d="M597.6,229.1c-0.1-0.8-0.2-1.6-0.2-2.3c0-0.4,0.1-0.9,0.5-1.3c0.1,0.4,0.2,0.8,0.2,1.3c0,0.8-0.1,1.6-0.1,2.4
		C597.8,229.1,597.7,229.1,597.6,229.1z"/>
	<path d="M578.3,218.4c-0.8,0-1.6,0-2.3,0C576.8,217.8,577.5,217.8,578.3,218.4L578.3,218.4z"/>
	<path d="M592.2,222.4c0.1,0.1,0.2,0.2,0.2,0.2c0,0.2-0.1,0.4-0.2,0.5c-0.1-0.1-0.2-0.2-0.2-0.2C592,222.7,592.1,222.6,592.2,222.4z
		"/>
	<path d="M277.4,303.7c-0.2,0.1-0.4,0.2-0.6,0.2c-0.1,0-0.2-0.2-0.3-0.4c0.2-0.1,0.4-0.2,0.5-0.2
		C277.2,303.3,277.3,303.5,277.4,303.7z"/>
	<path d="M567.9,256c0-1.5,0-3,0-4.5c0,0,0.1,0,0.1,0c0,1.5,0,3,0,4.5C568,256,567.9,256,567.9,256z"/>
	<path d="M549.2,266.5c-2.3,0.5-3.9,0.5-6.1,0.1C545.4,266,546.9,266.2,549.2,266.5z"/>
	<path d="M532.7,20.5c-1.3-1.9-1.4-3.1-0.4-5.2c0.1,0.2,0.4,0.3,0.4,0.5C532.7,17.3,532.6,19,532.7,20.5L532.7,20.5z"/>
	<path d="M534,11.2c-0.1,1.2-0.1,2.3-0.2,3.8C533.1,12.8,533.1,12.8,534,11.2L534,11.2z"/>
	<path d="M534.1,11.3c0-0.6-0.2-1.3,0.7-1.4l-0.1-0.1C534.5,10.3,534.3,10.8,534.1,11.3L534.1,11.3z"/>
	<path d="M534.9,9.9c0-0.1,0-0.2,0-0.3C534.8,9.7,534.8,9.8,534.9,9.9L534.9,9.9z"/>
	<polygon points="583.2,195 583.1,195.1 583.3,195 	"/>
	<path d="M495.2,462.8c-2.4,1.5-7.8,3.3-11.8,4C487.5,464.7,491.4,464,495.2,462.8z"/>
	<path d="M445,466.2c0.6,0.8,1.3,1.6,1.9,2.5c0.4,0.6,0.6,1.2,1,1.8l0.1-0.1c-0.1,0-0.3,0.1-0.3,0.1c-1.9-1-3-2.6-4.1-4.3
		C444.3,465.4,444.7,466.1,445,466.2L445,466.2z"/>
	<path d="M445,464.9c0.2,0,0.5-0.1,0.7,0c1.4,0.9,2.8,1.9,3.7,3.5l0.1-0.1c-0.8,0.2-1.2-0.4-1.7-0.8c-0.8-0.6-1.5-1.4-2.7-1.3
		l0.1,0.1C445.1,465.9,445.1,465.4,445,464.9L445,464.9z"/>
	<path d="M467.7,472.1c0.2,0,0.5-0.1,0.6,0.1c0.8,1,1.6,2,1.6,3.4l0.1-0.1C468.6,474.8,468.3,473.4,467.7,472.1L467.7,472.1z"/>
	<path d="M472.1,472.7c1.1-0.7,2.2-1.5,3.9-1.2C474.7,472.7,473.4,472.9,472.1,472.7L472.1,472.7z"/>
	<path d="M470.6,477c1.1,0.4,1.3,1.3,1.6,2.3C471.2,478.8,471.2,478.8,470.6,477L470.6,477z"/>
	<path d="M469.9,475.5c0.8,0.2,0.8,0.8,0.7,1.5l0.1-0.1C469.9,476.7,469.8,476.1,469.9,475.5L469.9,475.5z"/>
	<path d="M467.8,472c-0.1-0.2-0.3-0.4-0.4-0.6c0-0.1,0-0.2,0-0.3c0.1,0.1,0.4,0.2,0.4,0.3C467.8,471.6,467.7,471.9,467.8,472
		L467.8,472z"/>
	<polygon points="447.9,470.5 448,470.7 447.9,470.5 	"/>
	<path d="M449.3,468.4c0.5,0,0.7,0.2,0.7,0.7l0.1-0.1C449.5,469.1,449.2,468.9,449.3,468.4L449.3,468.4z"/>
	<path d="M450.7,469.9c0.5,0,0.7,0.2,0.7,0.7l0.1-0.1C451,470.5,450.7,470.3,450.7,469.9L450.7,469.9z"/>
	<path d="M450,469.1c0.5,0,0.7,0.2,0.7,0.7l0.1-0.1C450.3,469.8,450,469.6,450,469.1C450.1,469.1,450,469.1,450,469.1z"/>
	<path d="M472,472.6c0,0.1,0,0.2,0,0.3C472,472.8,472.1,472.7,472,472.6L472,472.6z"/>
	<path d="M452.1,471.3c0.1,0.1,0.2,0.1,0.4,0.2c-0.1,0-0.1,0-0.2-0.1C452.2,471.4,452.2,471.3,452.1,471.3L452.1,471.3z"/>
	<polygon points="465.9,476.5 466.1,476.5 466,476.7 	"/>
	<path d="M451.4,470.6c0.5,0,0.7,0.3,0.7,0.8l0.1-0.1C452,471,451.7,470.8,451.4,470.6L451.4,470.6z"/>
	<path d="M445.1,464.9c-0.1-0.1-0.2-0.1-0.2-0.2C444.9,464.8,444.9,464.9,445.1,464.9L445.1,464.9z"/>
	<path d="M604.4,428c-2.1,1.5-4.6,1.5-8.3-0.1C599,427.7,601.6,427.8,604.4,428z"/>
	<path d="M582,406.1c1.7-1.7,3.7-2,5.9-1C586.3,405.8,583.9,406.3,582,406.1z"/>
	<path d="M559.5,411c-0.9,0.6-1.5,1-2.2,1.5c-0.2,1.1-0.4,2.2-0.6,3.7c-1.1-1.4-0.7-2.5-0.4-3.6c0.2-0.9,0.6-1.5,1.4-1.9
		C558.2,410.5,558.7,410.2,559.5,411z"/>
	<path d="M593.1,422.8c2,0.9,3,1.8,4.6,2.6C595.1,425.8,594.7,425.6,593.1,422.8z"/>
	<path d="M593.4,420.8c0,0.1,0,0.2,0,0.3c-0.2,0-0.4,0-0.6,0c0-0.2,0-0.4,0-0.6C593,420.6,593.2,420.7,593.4,420.8z"/>
	<path d="M577.5,408.8c0.1,0.1,0.2,0.2,0.3,0.4c-0.2,0.1-0.4,0.2-0.6,0.3c0,0-0.2-0.2-0.2-0.3C577.2,409.1,577.3,408.9,577.5,408.8z
		"/>
	<path d="M550.5,421.4c0.1-0.6,0.5-0.7,1-0.5c0.1,0,0.1,0.3,0.2,0.5c0,0.1-0.2,0.2-0.2,0.2c-0.3-0.1-0.7-0.2-1-0.3L550.5,421.4z"/>
	<path d="M580.5,407.8c-0.1-0.1-0.2-0.3-0.2-0.4c0.2,0,0.4-0.1,0.5-0.1c0.1,0,0.1,0.2,0.2,0.2C580.8,407.7,580.7,407.7,580.5,407.8z
		"/>
	<path d="M635.2,390.9c-0.3,0.4-0.6,0.7-0.8,1.1c-0.3,0.6-0.8,0.9-1.4,0.9c-0.7-0.1-1.3,0-1.8,0.6c-0.7,0.7-1.5,0.3-2.3-0.4
		c0.2-0.8,0.3-1.7,0.5-2.6c-1.2,1.2-2.2,2.3-3.4,3.5c0.6,0.3,1.2,0.5,1.8,0.8c-1.4,1.3-1.7,1.3-3.4-0.3c0.8-2.1,3.7-3.1,3.4-6.1
		c-0.3-0.1-0.8-0.3-1.3-0.6l0.1,0.1c0.7-0.9,1.4-1.9,2.1-2.8l-0.1-0.1c0,0.6,0.1,1.1,0.1,1.8c1-0.3,2-1,2.9-0.9
		c1.7,0.2,3.4,0.8,5,1.3c0.6,1.4,0,2.5,0,3.6c0,0.8-0.2,1.7,0.7,2.2l-0.1-0.1c0,0.2,0,0.5,0,0.7c-0.1,0.3-0.3,0.8-0.4,0.8
		c-0.4-0.1-1-0.3-1.1-0.5C635.5,392.8,635.3,391.8,635.2,390.9c0.6-0.7,0.7-1.4,0.2-2.3C635.4,389.5,635.3,390.2,635.2,390.9z
		 M630.2,388.6c0.2-0.2,0.4-0.5,0.6-0.7c0.5,0,1-0.1,1.8-0.1c-1-0.4-1.5-0.5-1.7,0.2C630.5,388,630.2,388.2,630.2,388.6
		c0,0.2-0.1,0.2-0.2,0.3C630.1,388.8,630.1,388.7,630.2,388.6z M633.7,389.4c-2.3-1-2.7-0.7-3.2,2.1c0.6,0,1.1,0,1.7,0
		c0.5,0.1,1,0.7,1.6,0c0-0.4,0-0.9,0-1.4c0.1-0.1,0.2-0.2,0.2-0.3C633.9,389.7,633.8,389.5,633.7,389.4z"/>
	<path d="M648,409.4c0.8-0.2,1.4,0.1,1.9,0.6c0.7,0.8,1.4,1.6,2.4,2.7c-1.3-0.2-2.2-0.4-3.1-0.4c-1,0-2,0.3-3.2,0.5
		c-0.1-1.2-0.6-2.5,0.7-3.5l-0.1-0.1C647,410.3,647.1,410.3,648,409.4L648,409.4z"/>
	<path d="M622.4,410.2c-2.4-5-1.3-8.5,3.4-10.8c-0.7,0.8-1,1.2-1.4,1.6c-1.9,1.8-2.5,4-2.2,6.4C622.3,408.3,622.3,409.2,622.4,410.2
		z"/>
	<path d="M640.8,384.4c1.3,1.4,2.3,3.1,3,4.9c-0.2,0.1-0.3,0.2-0.5,0.3c0.2,0.1,0.3,0.2,0.5,0.3c0.1,0.2-0.1,0.7,0.4,0.4
		c-0.2-0.1-0.3-0.2-0.5-0.3c0-0.3,0-0.5,0-0.8c0.9,0.1,1.5,0.4,1.8,1.4c0.1,0.5,0.6,0.9,1,1.3c-0.2,0.3-0.5,0.7-0.8,1.1l0.1-0.1
		C642.4,391.1,641,388.1,640.8,384.4L640.8,384.4z"/>
	<path d="M647.2,390.8c0.3-0.1,0.7-0.2,1-0.3c0-1.2,0-2.3,0-3.9c1,2.3,1.3,4.4,3.7,5.1c-0.7,0.9-1.3,1.3-2.1,0.9
		C648.9,392.1,648.1,391.4,647.2,390.8L647.2,390.8z"/>
	<path d="M628.1,378c-0.1,3.2-1.6,6-3.1,8.8c-0.1,0.2-0.4,0.3-0.6,0.4l0.1,0.1c0-0.1-0.1-0.2,0-0.3c0.8-2.9,1.9-5.7,3-8.6
		C627.6,378.2,628,378.2,628.1,378L628.1,378z"/>
	<path d="M661.4,395.2c0.4-0.4,0.8-0.8,1.4-1.3c0.7,2,2.1,3.7,1.3,6c-1.8-0.6-1.1-2.2-1.4-3.3c-0.1,0-0.2,0-0.3,0
		c-0.1,0.1-0.1,0.2-0.2,0.3c-0.2,0.1-0.3,0.2-0.6,0.3C661.6,396.5,661.6,395.8,661.4,395.2L661.4,395.2z"/>
	<path d="M652.3,406.1c3.2,2.7,3.2,2.7,3.4,6.1c-1.2-2.4-2.9-3.8-3.6-5.9C652.1,406.3,652.3,406.1,652.3,406.1z"/>
	<path d="M653.7,390.8c-0.1-0.7-0.2-1.4-0.3-2.1c-0.1-0.7-0.2-1.4-0.3-2.2c1.9,1.6,1.9,1.6,1.9,4.3l0.1-0.1c-0.5,0-1-0.1-1.4-0.1
		L653.7,390.8z"/>
	<path d="M657.6,387.3c0.1,2.4,1.8,4.6,0.7,7.6C658,392.1,657.1,389.8,657.6,387.3z"/>
	<path d="M637.3,393c0-0.6,0-1.1,0-1.9c1.4,1.3,2.6,2.4,4,3.6c-2,0.4-2.8-1.4-4.1-1.9L637.3,393z"/>
	<path d="M650.1,372.2c0.1,1.2,1.2,1.6,1.8,2.4c0.4,0.6,1.2,1.1,1,2l0.1-0.1c-1.5-1.3-3.3-2.4-4.2-4.3l-0.1,0.1c0.5,0,1,0,1.5,0
		L650.1,372.2z"/>
	<path d="M640.9,384.4c-1.4-1.7-1.5-3.6-1-5.6C640.2,380.7,640.5,382.5,640.9,384.4L640.9,384.4z"/>
	<path d="M639.4,390.3c1.3,0.7,2.6,1.4,4.5,2.4c-1.1,0-1.6,0.2-1.9,0c-1-0.5-2.1-0.9-2.8-1.9c0-0.1-0.1-0.2-0.1-0.3
		C639.2,390.4,639.3,390.4,639.4,390.3z"/>
	<path d="M655.9,375.7c-0.2,0-0.5,0.1-0.7,0c-1.4-0.9-2.9-1.8-3.7-3.5l-0.1,0.1c0.4,0.1,0.9,0.2,1.2,0.4
		C653.8,373.7,654.8,374.8,655.9,375.7L655.9,375.7z"/>
	<path d="M613.8,396.4c1-0.5,1.9-0.9,2.9-1.4l-0.1-0.1C616.2,396.6,614.9,396.4,613.8,396.4L613.8,396.4z"/>
	<path d="M628.2,378.1c-0.2-1,0.1-1.8,1-2.7C629.3,376.6,628.7,377.3,628.2,378.1L628.2,378.1z"/>
	<path d="M623.1,383c-0.1,0.7-0.2,1.5-0.4,2.7C622.4,384.4,622,383.5,623.1,383L623.1,383z"/>
	<path d="M661.5,395.1c-0.2-0.6-0.4-1.3-0.6-1.9c0.1,0,0.3-0.1,0.4-0.1C661.3,393.8,661.4,394.5,661.5,395.1L661.5,395.1z"/>
	<path d="M648.8,372.2c-0.9,0.2-1.3-0.4-2-1C647.9,371.1,648.4,371.5,648.8,372.2L648.8,372.2z"/>
	<path d="M623.2,383.1c-0.2-0.8-0.2-1.6,0.5-2.3l-0.1-0.1C623.8,381.6,623.7,382.4,623.2,383.1L623.2,383.1z"/>
	<path d="M621,390.8c-0.2-0.8,0-1.6,0.6-2.2l-0.1-0.1C621.5,389.3,621.8,390.2,621,390.8L621,390.8z"/>
	<path d="M620.9,390.7c-0.2,0.6,0,1.5-1.3,1.1C620.2,391.4,620.6,391.1,620.9,390.7L620.9,390.7z"/>
	<polygon points="646.3,387.9 646.1,387.9 646.2,387.6 	"/>
	<path d="M624.5,387.2c0,0.2,0,0.5-0.1,0.7c0,0.1-0.2,0.2-0.3,0.3c0-0.2-0.1-0.5,0-0.6C624.1,387.4,624.4,387.4,624.5,387.2
		L624.5,387.2z"/>
	<path d="M622.4,388c0.1-0.2,0.2-0.5,0.3-0.7c0,0.1,0.1,0.2,0.1,0.2C622.7,387.6,622.5,387.8,622.4,388L622.4,388z"/>
	<path d="M646.6,408.6c0.5,0.1,1.2,0,1.4,0.7l0.1-0.1c-0.5,0-1,0-1.5,0l0.1,0.1C646.6,409.1,646.6,408.8,646.6,408.6L646.6,408.6z"
		/>
	<path d="M616.6,395.1c0.2-0.2,0.4-0.4,0.6-0.6c0.1,0.1,0.1,0.3,0.2,0.4C617.2,394.9,616.9,394.9,616.6,395.1L616.6,395.1z"/>
	<polygon points="648.8,393.9 648.8,394.1 648.5,394 	"/>
	<path d="M645.7,393.1c0.2,0,0.4-0.1,0.6,0c0.1,0,0.2,0.2,0.3,0.3c-0.1,0-0.2,0-0.3,0C646.1,393.2,646,393.1,645.7,393.1
		L645.7,393.1z"/>
	<path d="M656.6,376.5c-0.5,0-0.7-0.3-0.6-0.8l-0.1,0.1C656.1,376,656.3,376.3,656.6,376.5L656.6,376.5z"/>
	<path d="M652.9,376.6c0.5-0.1,0.7,0.2,0.7,0.6l0.1-0.1C653.5,377,653.2,376.8,652.9,376.6L652.9,376.6z"/>
	<path d="M656.5,376.5c0.2,0.2,0.5,0.5,0.7,0.7l0.1-0.1C657,376.9,656.8,376.7,656.5,376.5L656.5,376.5z"/>
	<path d="M654.4,378c-0.2-0.3-0.4-0.5-0.7-0.8l-0.1,0.1C653.8,377.5,654.1,377.7,654.4,378L654.4,378z"/>
	<path d="M657.2,377.3c0.2,0.2,0.5,0.5,0.7,0.7l0.1,0C657.7,377.7,657.5,377.4,657.2,377.3L657.2,377.3z"/>
	<path d="M625.3,378.7C625.2,378.7,625.2,378.6,625.3,378.7L625.3,378.7z"/>
	<polygon points="654.3,378 654.5,378.1 654.4,378 	"/>
	<polygon points="657.9,378 658.1,378.1 657.9,377.9 	"/>
	<path d="M625.2,378.6c-0.1,0.1-0.2,0.2-0.2,0.4c0,0,0-0.1,0.1-0.1C625.1,378.8,625.2,378.7,625.2,378.6L625.2,378.6z"/>
	<path d="M623.7,380.8C624.1,380.4,623.6,380.9,623.7,380.8L623.7,380.8z"/>
	<path d="M628.7,385.1c0.1-0.1,0.2-0.2,0.3-0.3c0,0-0.1,0.1-0.1,0.1C628.8,385,628.7,385,628.7,385.1L628.7,385.1z"/>
	<path d="M665.2,386.5c-0.1-0.1-0.3-0.2-0.4-0.3c0.1,0,0.2,0,0.2,0.1C665,386.3,665,386.5,665.2,386.5L665.2,386.5z"/>
	<path d="M622.3,387.9c-0.3,0.2-0.6,0.4-0.8,0.7l0.1,0.1C621.9,388.4,622.1,388.2,622.3,387.9L622.3,387.9z"/>
	<path d="M626.5,387.8c-0.1,0.2-0.1,0.3-0.2,0.5c0-0.1,0-0.2,0-0.2C626.4,388,626.5,388,626.5,387.8L626.5,387.8z"/>
	<path d="M647.3,390.8c-0.1-0.1-0.3-0.2-0.4-0.3c0.1,0,0.2,0,0.2,0.1C647.2,390.6,647.2,390.7,647.3,390.8L647.3,390.8z"/>
	<path d="M653,390.7c-0.1,0-0.2,0-0.3,0c0.1,0.1,0.1,0.1,0.2,0.2L653,390.7z"/>
	<path d="M653.6,390.7c-0.1,0.2-0.2,0.4-0.3,0.6c-0.1-0.2-0.2-0.4-0.3-0.6l-0.1,0.1c0.3,0,0.5,0,0.8,0L653.6,390.7z"/>
	<polygon points="655,390.9 655.3,390.9 655.1,390.8 	"/>
	<path d="M613.7,396.3c0,0.1,0,0.2,0,0.3C613.7,396.5,613.8,396.5,613.7,396.3L613.7,396.3z"/>
	<path d="M608.1,397.1c0,0.2,0,0.5,0,0.7l0.1,0.1C608.2,397.6,608.2,397.3,608.1,397.1L608.1,397.1z"/>
	<polygon points="608.1,397.8 608,398 608.2,397.9 	"/>
	<path d="M646.6,408.5c-0.2-0.1-0.4-0.1-0.6-0.2C646.5,407.8,646.5,408.4,646.6,408.5L646.6,408.5z"/>
	<polygon points="643.7,370.1 643.5,370 643.7,370.1 	"/>
	<polygon points="643.7,370.1 643.8,370.2 643.7,370.1 	"/>
	<path d="M539,460.6c-2,2.1-3.6,2.9-7.2,3.4C534.6,462.6,536.6,461.1,539,460.6L539,460.6z"/>
	<path d="M535.9,431.6c0.5,1.4-0.1,2.4-1,3.8C534.7,433.8,534.6,432.6,535.9,431.6z"/>
	<path d="M529.4,437c-0.8,1.7-1.3,2.7-1.9,4C527.2,438.4,527.3,438.2,529.4,437z"/>
	<path d="M539,460.6c0.2-0.3,0.3-0.6,0.5-0.8c0.2-0.2,0.6-0.3,0.9-0.5c0,0.2,0.1,0.5,0,0.6C540,460.2,539.5,460.4,539,460.6
		L539,460.6z"/>
	<path d="M533.7,438.7c0.5,0.5,0.4,1-0.1,1.5C533.2,439.7,533.2,439.2,533.7,438.7z"/>
	<path d="M506.4,434.3c0.1-0.2,0.2-0.4,0.4-0.5c0,0,0.2,0,0.3,0.1c-0.2,0.1-0.5,0.2-0.7,0.4L506.4,434.3z"/>
	<path d="M506.3,434.2c-0.5,0.3-0.9,0.5-1.4,0.8l0.1,0.1c0.1-1,0.8-0.7,1.4-0.8L506.3,434.2z"/>
	<path d="M504.9,435c-0.5,0.5-1,0.9-1.4-0.1l-0.1,0.1C503.9,435,504.4,435,504.9,435L504.9,435z"/>
	<path d="M528.3,465.5c-0.2,1-0.9,0.7-1.5,0.6l0.1,0.1C527.4,466,527.9,465.8,528.3,465.5L528.3,465.5z"/>
	<path d="M528.4,465.6c0.1-0.2,0.2-0.3,0.3-0.5C529,465.7,528.5,465.5,528.4,465.6L528.4,465.6z"/>
	<path d="M526.8,466.1c0,0.1,0,0.2,0,0.4C526.8,466.4,526.9,466.3,526.8,466.1L526.8,466.1z"/>
	<polygon points="533.7,443.3 533.6,443.1 533.8,443.1 	"/>
	<path d="M589.5,479.6c5.4-1.5,10.9-1,16.5-0.8c-0.6,0.2-1.1,0.5-1.7,0.6c-1.9,0.1-3.8,0.2-5.7,0.2
		C595.6,479.7,592.6,479.6,589.5,479.6z"/>
	<path d="M629.1,475.9c-4.7,2.2-9.6,3.5-14.8,3.2c2.3-1.1,4.9-1.2,7.3-1.7C624.1,476.8,626.5,475.8,629.1,475.9z"/>
	<path d="M617.5,481.6c0.8,2.7,0.4,5.5,0.6,8.6C616.8,488.3,616.6,485.3,617.5,481.6z"/>
	<path d="M626.8,486.8c-0.2-0.3-0.6-0.6-0.5-0.8c0-2.6,0.6-4.7,1.5-6.3C628.2,482.2,628.1,483.5,626.8,486.8z"/>
	<path d="M580.2,477.4c-1.1,0-2.3,0-3.4,0c0-0.1,0-0.2,0-0.3c1.1,0,2.2,0,3.3,0C580.1,477.3,580.2,477.3,580.2,477.4z"/>
	<path d="M598,484.2c0,1.1,0,2.2,0,3.3c-0.1,0-0.2,0-0.3,0c-0.1-0.6-0.2-1.1-0.3-1.7c0-0.6,0-1.1,0.1-1.7
		C597.7,484.2,597.8,484.2,598,484.2z"/>
	<path d="M556.1,458.5c1.4,0.7,1.7,1.3,2.1,2.8l0,0C556.9,460.5,556.5,460,556.1,458.5L556.1,458.5z"/>
	<path d="M558.2,461.3c0.9,0.1,1.3,0.7,1.3,1.6C558.4,462.9,558.2,462.2,558.2,461.3L558.2,461.3z"/>
	<path d="M592.2,481.5c0,0.2,0.1,0.4,0.1,0.5c0,0.1-0.1,0.1-0.2,0.2c-0.1-0.2-0.1-0.4-0.1-0.6C592,481.6,592.1,481.5,592.2,481.5z"
		/>
	<path d="M561.1,466.9c-0.1,0-0.2-0.1-0.3-0.1C560.9,466.8,561,466.9,561.1,466.9L561.1,466.9z"/>
	<path d="M561.8,467.7c-0.2-0.3-0.4-0.5-0.7-0.8L561,467C561.2,467.2,561.5,467.5,561.8,467.7L561.8,467.7z"/>
	<path d="M561.7,467.7c0.1,0.1,0.1,0.1,0.2,0.2C561.8,467.8,561.8,467.8,561.7,467.7L561.7,467.7z"/>
	<path d="M308.2,580.5c-0.1,0.1-0.3,0.4-0.3,0.4c-0.2-0.1-0.4-0.2-0.6-0.3c0.1-0.1,0.2-0.2,0.3-0.2
		C307.8,580.3,308,580.4,308.2,580.5z"/>
	<path d="M544.3,525.7c1.2-0.3,2.6-1,4,0C546.9,525.7,545.6,525.7,544.3,525.7z"/>
	<path d="M568,510.1c0,1.4,0,2.8,0,4.2c0,0-0.1,0-0.1,0c0-1.4,0-2.9,0-4.3C568,510,568,510.1,568,510.1z"/>
	<path d="M557.5,452.8c-0.1,0.1-0.3,0.1-0.4,0.2c0-0.2,0-0.4,0-0.6c0-0.1,0.2-0.1,0.2-0.1C557.4,452.5,557.5,452.7,557.5,452.8z"/>
	<path d="M549,401.7c-0.4-0.4-0.9-0.7-1.3-1.1c-0.1-0.1-0.1-0.5,0-0.6c0.1-0.1,0.4-0.1,0.5-0.1c0.4,0.4,0.8,0.8,1.1,1.3
		C549.3,401.4,549.1,401.5,549,401.7z"/>
	<path d="M631.5,362.2c-0.2,1.7-0.9,3.2-2,4.4l0.1,0.1c-0.2-1.9,0.8-3.2,2-4.4L631.5,362.2z"/>
	<path d="M631.6,362.3c0.1-0.1,0.3-0.2,0.4-0.4c-0.2,0.1-0.3,0.2-0.5,0.3L631.6,362.3z"/>
	<path d="M633.8,389.3c0,0.3,0,0.6,0,0.9C633.2,389.9,633.1,389.6,633.8,389.3z"/>
</g>
</svg>
