<?xml version="1.0" encoding="utf-8"?>
<!-- Generator: Adobe Illustrator 19.1.0, SVG Export Plug-In . SVG Version: 6.00 Build 0)  -->
<svg version="1.2" baseProfile="tiny" id="Layer_2" xmlns="http://www.w3.org/2000/svg" xmlns:xlink="http://www.w3.org/1999/xlink"
	 x="0px" y="0px" width="900px" height="600px" viewBox="144 97 900 600" xml:space="preserve">
<g>
	<path d="M799.2,530.9c1.2,0,2,0.8,2.9,1.5c5.4,3.7,11.4,6.2,17.5,8.6c1.7,0.7,3.6,0.9,5.4,1.3c4.3,0.8,8.4-0.4,12-2.5
		c4.7-2.8,9.5-5.6,14.3-8.4c2.5-1.5,4.8-3.5,7.8-3.8c0.2,0,0.4-0.2,0.7-0.3c2.7-1.3,5.4-2.2,8.2-3.3c2.4-0.9,4.7-1.2,7.1-1.3
		c3.4-0.1,6.9,0.1,10.3-0.8c0.3-0.8,0.7-1.5,1-2.3c2.4-5.4,4.7-10.8,7.1-16.2c0.4-1,0.6-2.1,1.7-2.7l-0.1-0.1
		c0.3,1.1-0.1,2.2-0.4,3.2c-1.3,5.4-3.3,10.5-5.5,15.6c-0.3,0.6-0.9,1.2-0.3,2.2c2.5,0.4,5-0.3,7.5-0.7c5.9-1,11.8-2.3,17.7-3.2
		c9.9-1.7,19.2-5.1,27.8-10.3c2.4-1.5,4.8-2.9,7.2-4.4c2.2-1.3,4.6-2.4,6.2-4.5c0.5-0.6,1.4-1,2.1-1.4c3.9-2.1,7.6-4.5,11.1-7.2
		c1.7-1.3,3-2.9,4.8-4c1.4-0.9,2.2-2.2,2.7-3.5c1-0.3,1.7-1.1,2.6-0.4c0,1.2-0.6,2.1-1.5,2.8c-0.8,0.7-1.6,1.5-2.1,2.5
		c-4.1,7.7-8,15.5-10.3,24c-1.8,6.6-3.8,13.2-2.7,20.2c0,0.2,0,0.5,0,0.7c0,2.6,0.2,5.2,0.7,7.7c0.8,4.3,0.6,8.5,0.4,12.8
		c-0.3,7-1.6,13.9-2.8,20.8c-0.4,2-1,4-1,6.3c1.2-1,0.9-2.5,2-3.4c0.4,2.8-0.8,5.1-1.5,7.6c-1.7,1.6-2.3,4-3.8,5.6
		c-0.8,0.6-1.9,0.1-2.4,1.5c0.2,1.2,0.8,2.5,1.5,3.6c2,1.3,4.2,1.9,6.4,2.1c1.5,0.1,3,0,4.2-1c2.4-2,5.1-3.4,8-4.7
		c0.3-2.5-0.5-5.2,0.9-7.6c1.3-2.2,2.7-4.3,5.1-5.2c0.6-2.7,1.1-5.1,1.7-7.4c0.8-3,1.5-6,3.1-8.6c0.7-1.3,1.4-2.6,1.8-4
		c1.4-5.2,3.8-10.1,5.8-15.1c2.2-5.5,4.7-10.8,7-16.2c3-7.3,5.8-14.6,8.7-21.9c2.5-6.2,4.5-12.5,5.9-19c0.7-3.2,1.6-6.4,2.7-9.6
		c1.5-4.3,2.3-8.8,3.1-13.2c0.2-1.1,0-2.2,0-3.3c-1.8-2-3.6-4-4.2-6.8c-0.1-0.6-0.6-1.1-1-1.5c-1.6-1.7-3.2-3.4-4.9-5
		c-2.3-2.1-5.1-2.8-8.1-2.8v-0.2v0.1c0.5,0.8,1.1,1.5,0.9,2.8c-1.5-0.9-2.7-1.8-3.2-3.3c-0.3-1.2-1.2-1.8-2.2-2.4
		c-1,0.2-2.1,0.5-3.2,0.8c0.4,1.7,0.2,3.2-0.9,4.5c-1.4,1.7-3.1,0.7-4.5,0.5c-0.8,0.4-1.3,0.7-1.5,1.4c1,1.8,0.4,3.5-0.6,5.1
		c-0.6,1-1.5,1.5-2.7,1.7c-1.1,0.1-2.2-0.4-3.3,0.4c-0.1,1.7-0.7,3-2.3,3.9s-3.1,0.2-4.4-0.5c-1.1,0.8-1.6,2.1-3,2.4
		c-1-0.3-2.1,0-3.2-0.7c-1.8-2.1-2.1-5-2.9-7.8c-2.5,0-4.8,0.1-7.1-0.3c-4.5-0.9-8.9-1.6-13.3-2.7c-2.5-0.6-4.8-0.6-7.2,0.2
		c-0.6,0.2-1.1,0.4-1.7,0.6c-3.9,1-7.7,2.4-11.7,3.2c-4.2,0.9-8.4,1.9-12.2,3.9c-1,0.5-2,0.9-2.9,1.6c-1,0.7-2.3-0.3-3.3,1
		c-0.2,1.8-0.4,3.9-0.9,5.9c-0.4,2-1.2,3.9-1.8,5.8c-0.3-0.1-0.5-0.1-0.8-0.1c-0.6,1-1.5,1.9-0.8,3.3c0.4-0.3,0.7-0.6,1.1-1
		c0,0.6,0.1,1.1,0,1.6c-0.4,2.9-0.8,5.8-1.4,8.7c-0.5,2.8-1.1,5.5-1.7,8.3c-0.1,0.4-0.4,0.5-1,0.4c-0.2-0.9-0.5-1.8-0.7-2.6
		c0.4-1.4,1.1-2.6,1.2-4c0.2-2.4,0.5-4.9,0.7-7.3c1.2-0.4,1.5-1.3,1.3-2.6c-0.7,0.9-1.3,1.6-1.2,2.7c-1.2,0.6-1.4,1.8-1.9,2.8
		c-1,2-1.8,4.1-3.3,5.9l0.1,0.1c-0.3-0.4-0.6-0.2-0.9,0l0.1-0.1c-0.3,0.5-0.5,1-0.8,1.6l0.1-0.1c-0.5,0.1-0.7,0.4-0.8,0.8l0.1-0.1
		c-0.6,0.2-0.8,0.9-1.5,0.8c-0.2-1.1,0.8-1.7,1.2-2.5c0.8-1.4,2.2-2.5,2.5-4.2c0.1-0.1,0.2-0.2,0.3-0.3c-0.1,0-0.2,0-0.2,0.1
		s0,0.2,0,0.3c-0.2,0-0.5-0.1-0.7,0c-4.1,2.3-8.1,4.5-12.1,6.8c-1.6,0.9-3.3,1.5-5.1,2c-4.3,1.1-8.7,0.9-13.1,0.5
		c-1.7-0.2-3.4-0.3-5.1-0.3c-4.6,0.1-9-0.4-13.3-2.1c-1.1-0.5-2.3-0.7-3.5-1.1c-3.6-1.1-7.2-2.5-10.4-4.6c-1.1-0.7-2.2-1.6-2.9-2.8
		c-1.8-2.9-3.7-5.8-5.5-8.7c-1-1.6-1.6-3.3-1.2-5.2l0.1-0.1v0.2c-0.7-0.3-1.2,0.1-1.7,0.4c-1.4,0.8-2.7,1.7-4.1,2.4
		c-4.3,1.9-8.2,4.4-12.1,7c-3.4,2.2-6.3,5.1-8.7,8.4c-3.9,5.4-6.6,11.5-9,17.1c0.1,1.5,0.2,2.5,0.3,3.4c0.1,1.1,0.3,2.2,0.6,3.3
		c0.2,1,0.5,1.9,0.8,2.8c0.4,1,0.9,2,1.3,3c0.4,0.9,0.8,1.8,1.3,2.7c0.5,1,1.2,1.9,1.8,2.8c0.5,0.7,1.5,1.2,1.1,2.4
		c-4-4.3-7.5-8.8-8.6-14.9c-1.3,0.9-1.6,2.1-2.2,3.2c-2.3,4.9-5.4,9.3-9.4,13c-0.7,0.7-1.5,1.4-1.9,2.2c-0.9,1.8-2.5,3-4,4.2
		c-2.5,1.9-5.1,3.8-7.7,5.7c-4.7,3.6-9.4,7.1-13.6,11.2c-3.2,3.1-6.6,5.8-10,8.7c-1.1,1-2.3,1.8-3.5,2.7c-2,1.4-4.2,2.4-6.8,2.7
		c-2.8,0.3-2.8,0.3-5,1.8c-0.4-0.2-1.1-0.4-0.6-1c0.7-0.8-0.6-0.8-0.4-1.5c2.4-0.1,4.7-0.9,6.9-2.2c0-0.5,0.4-1,0-1.6
		c-1-0.9-2.5-1.1-3.9-1.5c-2.5-0.7-5-1.3-7.4-2.3c-3-1.3-6.1-1.6-9.3-2.1c-1.3-0.2-2.7,0-4,0.2c-2.8,0.5-5.6,1-8.4,1.1
		c-5.8,0.1-11.5,0-17.2-1.1s-10.7-3.5-15.3-6.8c-0.3-0.2-0.5-0.5-0.5-0.9l-0.1,0.1c1.2,0,2,0.8,3,1.2c7.5,3.4,15.3,5.2,23.5,5.6
		c4.1,0.2,8.1-0.6,12-1.2c3.7-0.6,7.3-0.6,11-0.1c4.9,0.7,9.4,2.8,14.2,3.8c0.9,0.2,1.8,0.8,2.6,1.3c1.2,0.6,2.4,1.3,3.8,1.4
		c3.1-1.1,5.8-2.8,8.2-5.2c4-4,7.9-8.1,12.5-11.3c3-2.1,5.8-4.5,8.5-7c4.8-4.4,9.8-8.6,14.6-12.9c4.5-4.1,7.5-9,8.3-15.1
		c0.1-0.5,0.2-1,0.4-1.4c3.2-10,7.9-19,15.9-26c5.7-5,11.9-9.1,19.5-10.6c0.9-0.2,1.9-0.4,2.8-0.9c2.7-1.7,5.4-3.3,7.2-6.1
		c0.8-1.3,1.8-2.4,2.7-3.5c2-2.5,2.9-5.4,2.9-8.5c0-4.7,0.8-9.3,0.3-14c0.7-3.4,0.1-6.8-0.2-10.3c-0.1-1.6-0.2-3.2-0.2-4.8
		c0-5.2-0.7-10.3-2.4-15.2c-2-5.7-3.6-11.5-5.6-17.1c-1-2.8-2-5.5-3.1-8.3c-1.3-3.3-2.8-6.5-4.1-9.8c-2-5-3.7-10.2-4.7-15.5
		c-0.7-3.7-1.8-7.4,0.1-11.1c0.2-0.4,0-1,0-1.4c0-0.9-0.1-1.7-0.1-2.6c-0.3-5.1,1-9.7,4-13.9c0.7-1,1.3-2.1,1.8-3.2
		c1.1-2.4,2.7-4.3,4.8-5.9c1.1-0.8,2.2-1.6,3.1-2.2c1.8-2.2,2.2-4.6,2.3-7.1c0.1-3.3,0.2-6.6,0.2-9.9c0-4.3-0.2-8.6-0.1-12.9
		c0.1-5.6-0.5-11-1.9-16.4c-1.3-5-2-10.1-1.7-15.3c0.1-1,0.1-2-0.1-2.9c-0.6-3.4-0.3-6.9,0.1-10.3c0.6-4.8,2.2-9.3,5.9-12.7
		c1.2-1.1,1.4-1.7,1.8-3.9c-1.5,1.2-3.2-0.2-4.9,0.6c-4.8,4.2-7.8,9.4-7.9,16.1c0,2,0,4.1,0,6.6c-1-2.1-1.4-3.7-1.3-5.5
		c0.1-1.6,0.1-3.2,0.3-4.8c0.2-1.7,0.6-3.4,1.5-4.9c0.8-1.4,1.7-2.7,2.6-4c0.9-1.4,2.5-2.2,3.3-3.7c-0.8-0.5-1.4-0.3-2-0.2
		c-3.7,0.6-6.2,3.4-9.1,5.2c-0.3,0.2-0.5,0.6-0.7,0.9c-2,4-3.7,8-3.3,12.6c0.3,4.2,1.5,8.2,2.7,12.2c1.2,4.2,3.4,8.1,3.6,12.6
		c0.1,1.5,0.8,3.1,1.4,4.6c1.3,3.6,2.6,7.1,3.9,10.7c0.5-0.5,0.3-1.1,0.2-1.6c-1-6.9-1.4-13.9-4.3-20.5c1.1,0.3,1,1.4,2.1,1.5
		c-0.3-1.6-0.6-3.1-0.9-4.7c0-0.1,0-0.2,0-0.3s0.2-0.1,0.3-0.1c0.5,0.3,0.6,0.7,0.7,1.2c1.5,6.2,2.7,12.5,3.6,18.8
		c1.1,7.5,1.2,14.9,0.5,22.4c-0.2,2.5-0.4,5.1-0.1,8c1.1-1.9,1.8-3.8,1.5-5.5c-0.3-2-0.3-3.9-0.1-5.8c0.5-5.3,0.5-10.5,0-15.8
		c-0.2-1.8,0-3.6,0-5.4c1.3,5.3,2.2,10.5,2.3,15.9c0.1,5.3-0.9,10.5-1.9,15.7c-0.3,1.8-1.2,3.5-1.9,5.2c-0.6,1.4-0.7,1.4-2.8,2.3
		c0.6-3.7,1-7.4,0.3-11.8c-0.7,2.5-0.8,4.3-1.7,6c-0.2,0.4-0.4,0.9-1,0.7c-0.5-0.7-0.3-1.4-0.2-2.1c0.3-2.6,0.7-5.1,1.1-7.7
		c0.8-4.7,0.8-9.3-0.4-13.9c-0.6-2.1-1-4.3-1.7-6.4c-2.1-5.9-3.5-12-4.6-18.2c-0.2-1-0.4-1.9-0.9-2.8c-1.9-3.6-3.1-7.5-4.1-11.4
		c-1.2-4.9-0.6-9.5,2.3-13.7c1.3-1.9,2.3-4,3.2-6.2c0.4-1,0.8-2,1.3-3c1.9-4.2,5.2-6.1,9.7-6c1.2,0,2.5,0.1,3.7,0.2
		c2.4,0.2,4.9,0.5,7.5,0.7c2.4-2.9,5.3-5.3,8.5-7.5c0.2-0.1,0.4-0.3,0.6-0.5c1.5-2.4,4-3.2,6.4-3.9c3.9-1.2,8-1.6,12-1.6
		c6.6,0,13.2,0.9,19.5,3.2c1,0.4,2.1,0.8,3.1,1c6.4,1.2,10.9,4.9,13.7,10.6c2.2,4.5,4.3,9.1,6.1,13.8c1.6,4.2,2,8.4-1.1,12.2
		c-0.2,0.3-0.3,0.6-0.5,1c0.7,0.2,1.4,0.4,2.1,0.6c-0.2,1.2-1.7,1.2-2,2.4c0.6,3.9,2.8,7.1,5.2,10c1.2,3.8-0.9,5.7-3.6,7
		c-0.5,1.2-0.2,2.2,0,3.1c0.2,1,0.7,1.9,0.4,3.2c0,0.8-1.2,1.1-1.5,2.1c0.2,1,1,1.8,1.1,3c0.1,1.4-1.3,2.1-1.4,3.2
		c0.3,0.9,0.5,1.7,0.8,2.5c0.6,1.6,0.4,3.1-0.4,4.6c-0.3,0.5-0.7,1-1,1.6c-0.9,1.7-2.4,2.6-4.2,2.6c-4.5,0.1-9.1,0.4-13.5-1.2
		c-0.4-0.2-0.9-0.2-1.4-0.2c-1.3,1-1.7,2.4-1.9,3.9c-0.6,4.6-1.2,9.2-2.4,13.8c-0.1,0.2,0,0.5,0.1,0.7c1.6,2.1,3.8,3,6.3,3.3
		c0.9,0.1,1.7,0.2,2.6,0.3c1.7,0.3,3.5-0.2,5.1,0.2c3.2,0.8,6.5,1.3,9.2,3.5c0.6,0.5,1.2,0.8,2,1.2c0.9,1.8,2.2,3.4,3.4,5.1
		c3.2,4.6,6,9.3,6.5,15c0.1,1.2,0.7,2.3,1.5,3.3c3.2,3.7,6.4,7.4,9.6,11.1c0.8,0.9,1.6,1.9,2.3,2.9c2.5,3.3,4,7,4.6,11.1
		c0.2,1,0.2,1.9,0.3,3c0.9,0.4,1.6,1.2,2,2c1.1,2.3,2.9,3.9,4.9,5.4c2.3,1.8,4.6,3.7,6.9,5.5c2.6,2.1,5,4.3,7,7
		c0.4,0.6,1,1.2,1.6,1.5c1,0.4,1.5,1.2,2,2c2,3,3.4,6.3,5,9.4c1.3,2.5,2.3,5.1,3,7.9c1.2,5.4,3.4,10.5,5.3,15.7
		c0.1,0.2,0.4,0.3,0.7,0.6c0.8-0.1,1.6-1,3-0.8c0.1,0.1,0.6,0.2,1,0.4c0.6,0.2,1.1,0.5,1.6,0.7c3.4-0.7,3.4-0.7,6.7,0.5
		c0.5,0.8,1,1.8,1.5,2.7c2.4,1.4,5.4,1.8,7.3,4c0.4,0.9,0.4,1.8,1.2,2.6c2.3,1,4.5,2.5,5.9,4.9c3.3,0.8,6.1,2.5,8.7,4.6
		c1.6,1.3,3,2.9,4.4,4.4s3.2,2.4,4.5,4.1c1,1.4,2,2.8,2.4,4.5c1.4,6.3,0.9,12.4-2.4,18.2c-0.5,1-1.1,1.9-1.6,2.9
		c-0.9,1.5-1.5,3.1-1.6,4.9c-0.2,2.4-0.9,4.5-1.6,6.8c-0.5,1.8-1,3.6-1.4,5.3c-0.9,3.8-1.7,7.7-3.2,11.3
		c-3.4,8.6-6.8,17.1-10.8,25.4c-0.7,1.4-1.5,2.9-1.9,4.4c-1.9,6.5-4.5,12.7-7,19c-2.7,6.7-4.9,13.6-6.7,20.6c-0.1,0.4-0.4,0.9,0,1.4
		c1.1,0.8,2.4-0.4,3.8,0.4c0.6,0.7,1.2,2,2.2,2.6c1.7,1,2.2,2.5,2.8,4.1c0.6,1.7,1.3,3.4,2.6,4.9c4.8,5.3,9.5,10.6,14.2,15.9
		c0.8,0.9,1.8,1.6,3,2c2.2,0.8,4.4,1.6,6.5,2.6c3.8,1.7,7.7,3.3,11.6,4.6c1.7,0.6,3.6,1,5,2c0.9,1.3,0.9,2.6,0.9,4c0,1.3,0,2.7,0,4
		c0,3.5-1.5,6.1-4.6,7.8c-2.8,1.5-5.8,2.7-9,3.3c-2.3,0.4-4.6,0.6-6.7,1.7c-0.4,0.2-1,0.2-1.4,0.3c-8.9,1.4-17.3,0.1-25.5-3.7
		c-4-1.9-8-3.7-12-5.6c-1.8-0.8-3.6-1.4-5.7-1.1c-1.5,0.3-3.2,0-4.8,0c-1.8,0-3.7-0.2-5.5,0c-4.6,0.7-8.8-0.6-12.6-3
		c-2.5-1.5-5-3.2-7.4-4.8c-0.6-0.4-1.2-0.8-1.4-1.7c-0.2-1.4,0.7-2.5,1.4-3.6c1.6-2.5,2.7-5.2,3.8-8c0.3-0.7,0.6-1.4,0.5-2.1
		c-0.1-1.6,0.5-2.8,1.3-4.1c0.8-1.2,1.6-2.7,1.3-4.1c-0.7-3.3,0.7-6.3,1.1-9.4c2.5-0.7,4.1-2.8,6-3.6c1.7-2.3,2.5-4.6,2.9-7
		c0.8-4.3,1.6-8.7,2.2-13.1c0.7-5.2,1.1-10.5,0.4-15.8c-0.6-4.1-0.5-8.3,0.3-12.5c0.2-1.2,0.3-2.5,0.2-3.7
		c-0.2-4.3-0.1-8.6,0.6-12.8c1.1-7.9,3.1-15.6,6.6-22.9c0.4-0.9,1-1.7,0.8-2.8l0.2-0.2l-0.2,0.2c-0.3,0.1-0.7,0.1-1,0.3
		c-6.5,4.7-12.8,9.5-19.4,14c-7.5,5.1-15.5,9-23.9,12.2c-0.8,0.3-1.6,0.5-2.5,0.7c-1.8,0.3-3.7,0.4-5.4,0.9c-2.5,0.6-5.2,0.4-7.6,1
		c-4,1.1-8.2,1.6-12.3,2.4c-4.2,0.8-8.5,1-12.8,0.9c-3.9-0.1-7.8-0.4-11.5-1c-1.3,0.5-2.3,0.9-3.3,1.3c-6.2,2-12,4.9-17.4,8.6
		c-1,0.7-2,1.4-3.1,2c-6.1,3.5-11.7,7.7-17.2,11.9c-2.8,2.2-5.7,4.2-8.4,6.6c-5.4,4.8-10.7,9.8-16.1,14.6c-1,0.9-2.1,1.7-3.3,2.3
		c-4,2.1-7.9,4.6-11.5,7.2c-5.4,3.9-11.3,7-17.2,9.9c-3.6,1.8-7.2,3.6-10.9,5.4c-1.2,0.6-2.5,1.1-3.7,1.5c-7.1,2.4-14.4,4-21.8,5.3
		c-5.2,1-10.5,1-15.6-0.9c-4.5-1.7-9-3.1-13.7-4.3c-4.6-1.2-9.2-2.7-13.4-4.9c-1.2-0.6-2.4-1.2-3.7-1.6c-8.4-3.1-15.9-7.6-23-12.9
		c-3.2-2.4-6.5-4.3-10.1-6c-5.8-2.7-11.5-5.5-16.9-9c-1.6-1-3.2-1.2-4.7,0.1c-0.8,0.7-1.8,0.7-2.8,0.5c-1.1-0.2-2.2-0.5-3.2-0.8
		c-2.1-0.7-4.2-1.4-6.3-2.1c-0.6-0.2-1.2-0.4-1.8-0.2c-1.1,0.3-2.2,0.1-3.3-0.2c-2.1-0.5-4.3-0.9-6.2-1.3c-4.2,0.7-8,1-11.9-0.3
		c0-0.1-0.1-0.2-0.1-0.3c0.1,0.1,0.1,0.1,0.2,0.2c-1.1,0.9-1.8,1.1-2.5,0.5c-0.6-0.5-1.1-1-1.4-1.6c-2.2-4.1-2.6-8.4-1.1-12.8
		c0.4-1.2,1.1-2.2,1.3-3.4c0.5-2.3,1.9-3.9,3.6-5.3c1.9-1.5,3.8-2.2,6.1-1.5c0.3,0.1,0.4,0.3,0.2,0.6c-0.5,0.9-1.6,0.4-2.5,1.1
		c-0.6,0.7-1.4,1.7-2.3,2.4c-1.2,1-1.9,2.1-2.4,3.6c-0.3,1-0.7,2-1.6,2.8c-0.9,0.7-1.1,1.9-1.1,3c0,3.3,0.8,6.3,2.7,9.2
		c1.3-0.5,2.6-0.4,3.9-0.3c2.2,0.3,4.5,0.4,6.6,0c1.9-0.4,3.6-0.4,5.4,0c1.7,0.3,3.4,1,5.1,0.7c2-0.3,3.6,0.1,5.3,0.9
		c1.6,0.7,3.2,1.3,4.8,2c1,0.5,2.1,0.6,3.9,0.9c-3.5-1.9-5.2-4.4-5.9-7.4c-0.8-3.5,0.6-6.2,3.1-8.3c1.4-0.2,2.5,0.2,3.4,0.7
		c2.3,1,4.5,0.9,6.8,0.4c1.3-0.3,2.6-0.6,3.9-0.9c2.5-0.4,5.1-0.8,7.3-2.2c0.2-0.1,0.5-0.1,0.7-0.1c0.7,0.8,0.5,1.6,0,2.3
		c-0.8,1.2-2,1.7-3.5,1.7c-2.8,0-5.6,0.5-8.3,1.2c-0.9,0.3-1.9,0.3-2.9,0.3s-2-0.1-2.9-0.2c-1.1-0.1-1.9-1.2-3.1-0.8
		c-2.2,2.6-2.4,5.3-0.6,8.1c0.5,0.8,1,1.7,1.4,2.5c1,0.7,1.9,1.5,3.3,1.4c0.5,0,0.9,0.2,1.4,0.4c6.9,2.7,13.6,5.7,20.1,9
		c5,2.5,10,5.3,14.4,8.8c2.8,2.2,5.7,3.7,9,4.9c1.6,0.6,3.3,1.1,4.8,1.8c6.8,3,13.7,6.1,20.5,9.1c4.7,2.1,9.4,4.1,14.4,5.3
		c0.8,0.2,1.7,0.4,2.5,0.4c6.5,0.1,13,0.3,19.4-1.1c4.2-0.9,8.4-1.6,12.3-3.6c2.4-1.2,4.8-2.3,7.1-3.7s4.8-2.5,7.1-3.7
		c4.7-2.6,9.5-5.1,14.2-7.7c7.2-4,13.8-9,20.4-13.8c0.3-0.2,0.6-0.5,0.9-0.7c2.8-2.2,5.4-4.6,8-7.1c3.7-3.6,7.6-6.9,11.9-9.9
		c0.5-0.4,1.4-0.7,1-1.7c-3.2,0.1-6.3-0.2-9.3-1.5c-4.4-1.8-8.8-3.8-12.8-6.5C803.5,535.3,801,533.4,799.2,530.9z M885.6,217
		l-0.2-0.1c0-0.1-0.1-0.2-0.1-0.3c0.1,0.1,0.1,0.1,0.2,0.2L885.6,217z M881.5,212.3c-0.1,0,0.2,0,0.4,0.1c0.2,0.7,0.8,0.7,1.4,0.7
		c0.2,0.9,0.9,0.8,1.5,0.7c0.3,1.1,1.1,1.5,2.1,1.6c0.7,1.2,1.7,1.9,3,2.1c0,0.6,0,1.2,0,1.7c0.5,0.7,1.1,0.8,1.7,0.4
		c0-0.2,0-0.5-0.1-0.6c-0.5-0.5-1.1-0.9-1.7-1.4c-0.6-1.2-1.5-2.1-3-2.2c-0.3-1.1-1.3-1.2-2.1-1.6c-0.4-0.5-0.9-0.7-1.5-0.7
		c-0.2-0.7-0.9-0.6-1.4-0.7C881.6,212.4,881.4,212.3,881.5,212.3z M871.2,216c0.7,0.1,1.3,0.1,1.9,0.1c0.4,0.5,0.9,0.6,1.5,0.3
		c-0.5-0.1-1-0.1-1.5-0.2C872.6,215.5,872,215.3,871.2,216z M834.4,268.7c-0.6,0.6,0,0.9,0.2,1.4c0.3,0.7-0.3,1.7,0.8,2.1
		c0,0.1,0,0.2,0,0.3c0-0.1-0.1-0.1-0.1-0.2c-0.2-0.7,0-1.6-0.8-2.1C834.5,269.6,834.5,269.2,834.4,268.7z M822.4,220.8
		c-1.4-0.3-2.2,0-2.5,1.3c-0.7,0-0.8,0.6-1.3,1.1c1.1-0.1,1.3-0.5,1.2-1.2C820.9,222.2,821.6,221.5,822.4,220.8z M839.2,261.8
		c0.4,2.3,0.4,2.3,3,2.1c-0.1,0.9,0.2,1.7,1,2.2c1.8,1.1,3.7,1.7,6,2.1c0-1.7-1.5-2.3-1.9-3.5c-0.8-1.2-1.7-2.4-2.5-3.6
		c-0.9-1.3-1.8-2.6-2-4.6c2.1-2.5,0.5-6.1,2.4-9.1c3.8-3.8,4.1-3.8,8.8-2.7c0.3-0.2,0.6-0.4,0.9-0.6c0.1-0.1,0.1-0.2,0.1-0.5
		c-5-0.6-9.7-2.4-14.7-2.7c-2.3-0.2-4.5-0.8-6.5-1.9c-0.7,0.6-0.5,1.1-0.3,1.5c0.8,1.3,1.8,2.3,3.1,3.1c2,1.2,4.1,2.1,6.3,3
		c-0.4,0.9-1,0.6-1.5,0.5c-2.1-0.4-3.9-1.3-5.8-2.3c-0.7-0.4-1.3-1.2-2.2-1.2c-1,1.2,0.6,1.6,0.9,2.4s1,1.4,1.8,1.8
		c0.8,0.5,1.7,1,2.7,1.6c-1.1,0.5-1.9,0-2.6-0.2c-0.8-0.3-1.5-0.7-2.5-1.2c0.5,5.7,4.7,8.4,8.2,11.7c-0.5,0.9-1.2,0.1-1.7,0.4
		c0.7,1.5,0.7,1.6,2.2,2.5c1.5,1,2.9,2.3,4.9,2.1c-0.1,0.3-0.2,0.7-0.4,1.1c-1.8-0.1-3.4-0.8-4.8-1.8
		C841.1,263.3,840.1,262.6,839.2,261.8C838.8,261.5,839.3,261.9,839.2,261.8z M851.9,252.1c-0.2-0.6-0.4-0.9-1.3-1
		c-1.1,1.1-2,2.4-1.9,4.2c-0.1,0-0.2,0.1-0.3,0.1c0.1-0.1,0.1-0.1,0.2-0.2C850.3,254.7,851.1,253.3,851.9,252.1z M878.1,207
		c0.5,0.5,1.1,0.3,1.6,0.3c1.6,1.7,3.8,2,6.2,3.4c-0.9-2.1-2.4-2.8-6.2-3.3C879.2,206.8,878.7,206.6,878.1,207z M844.9,225.7
		c0.8,0,1.4,0.3,2.1,0.6c3,1.5,6.1,2.5,9.3,3.4c2.2,0.7,4.3,0.7,6.5,0.3c3.1-0.6,6.3-1.2,9-2.5c1.6,0.4,3,0.8,4.4,0.1
		c0.5-0.8,0.6-1.6,0-2.4c-3.6,1.8-7.5,2.2-11.4,1.9c-0.3-0.6,0.3-0.9,0.4-1.3c0-0.4,0.1-0.7,0.1-1.1c0.5-0.2,1.1-0.4,1.8-0.7
		c-4.3-1.9-8.7-2.5-13.1-3.3c-1.8-0.3-3.6-0.6-5.4-1c-2.6-0.6-2.6-0.6-5.4,0c-0.2-0.1-0.5-0.2-0.6-0.4c-0.2-0.3-0.3-0.6-0.5-1
		c0.6-1.5,1.9-2,3.3-1.8c1.8,0.2,3.7,0.4,5.5,0.7c3.4,0.7,6.7,1.6,10,2.4c1.5,0.3,3,1,4.7,0.7c-0.3-0.5-0.5-0.9-0.7-1.3l-0.1,0.1
		c1.2-0.1,2.4,0.2,3.6,0.4c1.3,0.2,2.6,0.5,4.5,0c-2.5-0.8-4.6-1.5-6.9-2.3c1-0.4,1.8-0.2,2.5,0.1c0.9,0.4,1.9,0.4,2.9,0.2
		c0.2,0.4,0.4,0.8,0.9,0.3c-0.4-0.1-0.7-0.1-1-0.2c-0.7-1.1-2.2-0.9-3.1-1.7c-1.8,0.3-3.6,0.3-5.4-0.2c-2-0.5-4.1-0.5-6.2-0.7
		c-3.9-0.4-7.8-0.7-11.9-1.1c-2.7,2.1-5.4,4.3-7.5,6.9c0.2,1.1,1,1.3,1.6,1.6c1.1,0.6,2.3,0.8,3.1,1.8c-1.6,0.1-2.9-1.1-4.2-1.4
		c-0.8,0.2-1,0.5-0.8,1.3c1.6,1.3,3.3,2.8,5.8,3c0.7,1.2,1.9,1.4,3,1.8c1.9,0.7,3.9,1.4,5.9,2c0.5,0.2,0.9,0.4,1,0.9
		c-4,0.1-9.5-1.9-16.6-6c-1,0.2-0.9,1-1,1.8c0.7,1.2,1.9,1.9,3,2.5c1.6,0.9,3.2,1.8,4.8,2.7c1,0.5,1.9,0.9,3.1,0.7
		c1-0.1,2.2,0.3,3.2,0.7c1.9,0.6,3.8,0.8,5.8,1c3,0.4,5.8-0.5,8.7-1.2c-2.4-1.5-3.7-1.8-8.1-2c-2.5-1.8-5.6-2.5-8.3-3.7
		c-0.9-0.4-2-0.3-2.5-1.3c0.3-0.1,0.6-0.2,1-0.3c-0.4-0.1-0.7-0.2-1-0.3C844.9,226.3,844.9,226,844.9,225.7z M841.2,277.1
		c-0.7-1,0.2-1.7,0.3-2.7c-0.6-1.9-1.3-3.9-2.8-6.3c0.4,3.3,0.8,6.1,0.7,9c0,0.6,0.1,1.2,0.2,1.8c0.1,0.3,0.3,0.7,0.4,1
		c1.2-0.5,1.5-1.5,2-2.5c0.1-0.1,0.3-0.2,0.3-0.2s-0.1,0.2-0.2,0.3C841.7,277.3,841.4,277.1,841.2,277.1z M868.5,214.3
		c0.6,0,1.2-0.2,1.7-0.3c0.5-1-0.2-1.4-0.8-2.2c-5.4-0.1-11-0.3-16.5-0.4c-0.2-1,0.5-0.9,0.9-1c0.5-0.1,0.9-0.2,1.4-0.3
		c-0.4-1.1-1.6-0.2-2.2-1.1c1.2-0.1,2.4-0.2,3.6-0.4c0-0.1,0-0.2,0-0.3c-1.4,0-2.9,0-4.7,0c-1.3,0.6-2.9,1.4-4,3.1
		c0.6,0.2,1.1,0.5,1.5,0.6c5.7,0.5,11.2,2.5,16.9,3.1c0-0.5,0-0.8,0-1.2l-0.1,0.1C867.1,214.1,867.8,214.3,868.5,214.3z
		 M862.9,238.7c-1,0.1-1.9,0.3-3.2,0.1c-0.7-1.1-1.9-1.7-3.4-1.9c-2.3-0.3-4.5-1-7.2-1.6c1.2,1.4,2.6,1.7,3.8,2.3
		c1.3,0.6,2.7,1.1,4,1.9c-4-0.6-7.6-2.3-11.3-3.9s-7.2-3.6-10.4-5.9c-0.9,0.2-1,0.8-1.1,1.4c-0.2,1.6-0.4,3.1-0.6,4.8
		c1.8,1.4,3.3,3,5.7,3.1l0.1,0.3l-0.2-0.2c0-0.3,0.1-0.7,0.2-1.3c1.1,0.4,2.1,0.7,3.1,1c0.9,0.3,1.9,0.6,2.8,0.8
		c2.2,0.6,4.4,1.3,6.7,1.9c2.6,0.7,5.2,1.1,7.8-0.4c0.7-0.4,1.6-0.5,2.5-0.6c2.3-0.3,4.5-1.1,6.7-1.8c0.6-0.2,1.1-0.5,1.3-1.2
		l0.1-0.2l-0.1,0.3C867.6,237.5,865.3,238.5,862.9,238.7z M827.9,260c-0.6,1-0.4,1.5,0.1,1.9c0.3,3.6,1.3,7,2.1,10.4
		c0.2,0.7,0.5,1.4,0.6,2.1c0.4,6.2,1.6,12.4,1.1,18.7c-0.4,4.5-0.5,9.1-0.6,13.6c0,0.8-0.3,1.7,0.1,2.5c0.6,0.1,0.9-0.2,1-0.7
		c1.1-3.3,1.9-6.6,2.3-10c0.2-1.7,0.6-3.3,1.2-5.3c0.4,4.9-0.7,9.3-1.2,14c1.4,0,2.1-0.8,2.8-1.5c0.1-0.3,0.2-0.5,0.3-0.7
		c0.1-2.8,0.2-5.6,0.4-8.4c0.2-2.1-0.5-4-1.1-6c-1.2-3.9-2-7.8-3.1-11.7c-1.6-5.5-3.5-11-5.2-16.5c-0.1-0.2-0.4-0.3-0.6-0.4
		C827.9,261.4,827.9,260.9,827.9,260z M954.3,430.3c0.3-0.5-0.1-0.4-0.4-0.4c0.2-0.5-0.1-0.9-0.4-1.3c-1.7-2.1-3.5-4.1-5.5-5.9
		c-1-0.9-2-1.8-3-2.8c-2.8-3.1-5.5-6.2-8.9-8.8c-2-1.6-3.4-3.8-4.9-5.9c-1.2-1.6-1.6-3.6-2.1-5.5c-0.7-2.6-2.2-4.6-4.3-6.3
		c-1-0.8-2-1.8-3.1-2.8c-0.5,0.1-1.1,0.1-1.7,0.2c0.5-0.9,1-1.9,1.6-2.9c0.7,0,1.5-0.1,2.2-0.1c-0.1,1.4,0.5,2.4,1.5,3.2
		c2.3,1.8,3.8,4.1,5,6.7c1.1,2.6,2.5,5.1,3.8,7.5c1,2,2.5,3.7,4.3,4.9c0.8,0.6,1.5,1.2,2.1,2c3.1,3.5,6.3,6.9,9.7,10
		c2.6,2.3,4.8,4.9,7,7.6c1.2-0.4,2.2-0.8,3.2-1c1.1-0.2,2.2-0.1,3.3-0.1c1,0,1.9-0.2,2.8-0.6c0.7-0.3,1.3-0.6,2-0.9
		c0.7-0.2,1.4-0.3,2.1-0.4c0-0.5,0.2-0.8,0.1-1.1c-3.5-9.4-7.1-18.8-10.6-28.2c-0.8-2.1-2-3.9-3.6-5.5c-2.9-2.8-5.7-5.7-8.5-8.6
		c-2.1-2.2-4.6-4-7-5.9c-1.8-1.5-3.7-2.9-5-4.8c-0.3-0.4-0.7-0.6-1-0.8c-0.9-0.1-1.2,0.5-1.4,1.1c-0.6,1.7-1.3,3.4-1.7,5.2
		c-0.6,2.7-1.7,5.1-4,6.7c-1.2,0.8-1.9,2.3-3.5,2.4c0.1-1,0.9-1.4,1.5-2c4-4.9,6-10.6,6.7-16.8c0.5-4.6-0.9-8.7-3.4-12.5
		c-2-3.1-4.7-5.6-6.9-8.4c-1.3,0.5-0.9,1.4-1.1,2c-0.6,2.5-2.2,4-4.5,4.9c-0.1,0-0.2,0.1-0.3,0.1c-8.4,1.8-16.5,2.1-24-3.2
		c-2-1.4-4-2.9-6-4.3c-1.4-1-2.8-1.9-4.3-2.8c-2.4-1.5-4.6-3.3-6.2-5.6c-0.8-1.1-1.8-2-2.8-2.9c-6-4.9-11.7-10.1-17.3-15.3
		c-2.5-2.3-5-4.7-8.3-6c-0.8-0.3-1.1-0.9-1.1-1.7c2.1,0,3.8,0.9,5.5,1.9c1.1,0.7,2.2,1.5,3.4,2.3c5.9,0.5,11.8,0.7,17.8,2.1
		c-2.5,0.7-4.8,1.1-7.1,1s-4.6-0.3-7.1-0.5c0.5,1.2,1.5,1.8,2.3,2.5c4.9,4.3,9.5,8.9,14.1,13.5c5.5,5.6,11.4,10.7,18.5,14.4
		c2.3,1.2,4.6,2.3,7.1,3c2.1,0.6,4.3,0.8,6.7,0.2c-2.3-3.3-5.2-5.8-8-8.2c0.3-0.4,0.7-0.5,1-0.3c2.3,1.6,4.6,3.2,6.9,4.8
		c1.7,1.2,3.4,2.5,4.7,4.3c1.9-0.1,3.5-0.8,5-1.9c1.9-1.4,2.4-3.3,1.8-5.5c-0.3-1.1-0.8-2.1-1.5-2.9c-1.6-2-3.3-4-5.2-5.7
		c-2.5-2.1-5.4-3.9-7.1-6.9c-0.3-0.6-1.1-0.9-1.7-1.3c-2.1-1.5-4.3-2.9-6.3-4.4c-1.9-1.4-3.6-2.9-4.8-5c-0.5-0.9-1.4-1.7-2.1-2.5
		c-1.4-1.5-3.1-2.8-4.2-4.8c-1.6-0.5-3.1-1.5-4.4-2.7c-0.6,0.7-0.5,1.3-0.4,1.9l0.1-0.1c-0.6-0.1-0.7-0.6-0.7-1.1
		c0-2.4-0.1-4.9,0.1-7.3c0.3-3.4,0.8-6.8,1.1-10.2c0.2-2.2,0.9-4.3,2.4-6.2c3.1,0.1,6.3,0.4,9.4,1.1c2.2,0.5,4.3,0.6,6.6,0.3
		c3.3-0.4,5.2-3.5,4.1-6.7c-0.3-0.9-1.1-1.7-1.1-2.6c0.2-1.4,1.5-1.9,2.1-3c-0.6-1.4-0.6-1.4-1.9-2.4c-4.9,0.1-4.9,0.1-6.6-1.1
		c0.1-0.6,0.4-0.9,0.9-0.9c1.1,0,2.2,0.1,3.3,0.2c1.9,0.1,3.6-0.3,4.8-2.3c-0.9-1.5-2-3-1.4-4.8c-0.7-1.1-1.8-0.1-2.4-0.9
		c0.9-2.3,1.5-2.5,4.4-1.5c0.9-0.3,1.9-0.5,2.5-1.3c0.3-1.1-0.2-1.9-0.8-2.7c-2.5-3.1-4.1-6.7-5.1-10.5c-0.3-1.2-0.5-2.4-0.3-3.6
		c0.2-1.1,0.6-2.1,1.7-2.7c0.9-0.5,1.6-1.1,2-2.4c-0.9-2.8-2-5.7-2.9-8.7c-0.9-2.9-1.5-5.9-2.9-8.6c-0.8-1-2.1-1-2.6-1.9
		c-0.9,0.1-1.2,0.7-1.7,1c-0.4-0.2-0.9-0.4-1.3-0.5c-1.1,0.5-2.2,1-3.3,1.5c-1.5-0.8-2.9-1.8-4.6-2.1c-0.2-0.6-0.5-1.1-1.1-1.4
		c-4.2-2-8.3-4-12.8-5.3c-0.4-0.1-0.9-0.4-1.3,0.1c-0.1,0.4,0.2,0.7,0.5,0.9c1,0.4,2,0.9,3.1,1.1c3.2,0.9,6.2,2.1,9.1,3.8
		c0.9,0.5,1.7,1,2.7,0.7c-1,1.2-2.1,2.3-3.7,2.7c-0.7,0-0.5-0.8-1.1-1.1c-1.8-0.2-3.8-0.1-5.8,0.1c-0.4,0-0.8,0.4-1.3,0.7
		c-0.3-0.4-0.7-0.6-1.3-0.5c0.3,0.6,1,0.2,1.4,0.4c-0.3,1.2-2,0.3-2.2,1.5c1.5,1,2,0.9,5.1-0.3c0.1,2.7,0.2,5.3-0.9,7.8
		c-0.5,1.1-0.5,2.1-0.4,3.2c-0.4,0.9-1.4,1-2,1.6c-0.5,1-0.3,2.2-1.3,2.9c0.2,0.3,0.4,0.6,0.7,0.9c-0.1,0.2-0.1,0.5-0.2,0.6
		c-2.4,1.7-4.3,4-7,5.2c-0.4,0.2-0.8,0.6-1.1,1c-1.8,2-3.9,3.3-6.8,3.2c2.5,0.8,2.5,0.8,5.3,0.3c-0.5,1.7-1.5,2.6-3.1,2.7
		c-1,0.1-1.9-0.2-2.8-0.7c-1.4-0.8-2.7-1.8-3.5-3.1c-0.6-1-1.4-1.7-2.3-2.3c-0.9-0.5-1.9-0.6-2.8,0c-1.5,1.1-2.8,2.4-3.5,4.1
		c-0.6,1.5-1.1,3-0.3,4.7c0.7-1.7,1.3-3.4,2.1-5.1c0.9-1.9,2.1-2.3,3.8-1.1c1.4,1,2.7,2.1,4,3.2c0.3,1,0.5,2,0.7,2.9
		c-0.4,0.9-0.7,1.8-1.1,2.6c1,1.3,3,1.2,3.2,3.2c-0.4,1.2-1.2,2.2-2.3,2.9c-0.6-0.2-1-0.4-1.1-0.9c-0.4-1.8-1.2-3.5-2-4.9
		c0-1.4,1.3-2,1.6-2.9c-0.2-0.8-0.4-1.5-1.4-1.8c-0.8,1-1.6,2-2.4,3c-0.2,1.4,0.1,2.7,0.8,3.9c0.7,1.2,1.7,2.1,2,3.3
		c-0.4,1.1-1.2,1.4-2.1,1c-1.7-0.7-2.7-2.1-3.1-3.9c-0.2-0.8-0.2-1.7-0.3-2.4c-0.7-0.8-2.1,0.5-2.1-1.1c-0.7,0.3-1,0.6-1.1,1.4
		c0.2,0.3,0.5,0.8,0.8,1.3c2.2,3.1,4.5,6.1,6.7,9.2c1.1,1.5,1.1,1.5,3.4,2.4c1.1,0.1,1.4-1.4,2.4-1.4c0.7,1.8,0.4,3-1,3.5
		c-0.6,0.2-1.2,0.2-1.8,0.3c-0.6,0.1-1.2,0.3-1.7,0.5c-1.9-0.8-2.1-2.8-3.5-4.1c-2.9-0.3-5.8-1.2-8.5-2.5c0-0.1-0.1-0.2-0.2-0.2
		c0.1,0.1,0.2,0.1,0.2,0.2c0.1,2,1,3.7,2.1,5.3c0.2,0.3,0.5,0.4,1,0.3c0.4-0.7-0.7-0.9-0.4-1.6c0.1,0,0.4-0.3,0.5-0.2
		c1.7,0.8,3.4,1.5,5.2,0.9c0.8,0.7,0.5,1.4,0.4,2.1c-0.8,1.3-2.5,1.5-3.7,2.7c0.1,1.8,0.1,3.8,0.3,5.7c0.6,5.5-0.4,10.7-1.9,16
		c-0.4,1.5-1.3,2.9-2.2,4.2c-1.4,2.2-3,4.1-5.6,5.4c1,0.8,2,0.9,3,1.3c2,0.8,4.3,1,5.8,2.9c-3.4,0-6.5-1.2-9.7-1.9
		c-0.8-0.2-1.6-0.7-2.4,0c0,1.1,0.9,1,1.6,1.1c5.5,1.2,10.3,3.8,14.7,7.2c1.5,1.2,3,2.5,4.3,4c2.2,2.5,4.7,4.6,7.2,6.8
		c3.6,3,6.9,6.3,10.1,9.6c1.8,1.9,3.2,4,4.2,6.4c1.3,3.2,1,6.2-0.6,9.2c-0.4,0.7-0.9,1.5-1.3,2.1c0.4,1.4,1.3,2.1,2.2,3
		c2.1,2.3,3.8,4.8,5.5,7.3c3.6,5.4,6.7,11.1,10,16.7c1.8,3.1,3.8,6,5.6,9c0.4,0.6,0.8,1.2,1.2,1.8c2.5,3.4,4.7,5.1,8.6,6.5
		c0.4,0.2,1,0.4,1.4,0.3c1.4-0.5,2.6,0.2,3.9,0.5c0.9-1.1,0.5-2.1,0.1-3.1c-1.5,0.3-2.6,1.5-4.1,1.6c-0.7-0.1-1.2-0.5-1.5-1.3
		c2.1-0.9,4.2-1.8,6.4-2.8c1.3-1.9,1.6-4.9,4.7-5.5c0.1,2.9-1.4,5.1-3,7.3c-0.2,1.5-0.3,3.1-0.4,4.3c0.7,1.1,1.5,1.4,2.2,1.9
		c2.4,1.5,4.5,3.4,6.7,5.1c5.2,3.9,10.4,7.7,15.9,11.1c3.9,2.3,7.6,4.9,11.3,7.4c0.8,0.5,1.5,1.3,2.6,1.2
		C954.1,430,954.2,430.1,954.3,430.3z M995.8,439.6c1.3-0.6,2.3,0.7,3.7,0.2c-1.3-2.1-2.7-3.9-5.4-3.3c-0.7-1.1,0.1-2.3-0.7-3.4
		c-0.2-0.2-0.6-0.4-1-0.6c-0.5,0.2-1,0.4-1.6,0.6c-1.1-2.2-2.9-3.5-5.1-4c-0.4-0.7-0.7-1.2-1-1.8c-1.8-1.6-3.8-1.2-5.8-0.4
		c-1.1-0.5-2.1-0.9-2.9-1.3c-1,0-1.6,0.4-2.2,0.8c-1.2,0.8-2.6,1.3-3.9,2c-2.9,1.6-5.9,2.4-9.1,2.1c-0.3,0-0.7,0.1-0.9,0.2
		c-0.9,0.6-0.6,1.3-0.6,2.1c1.4,1.5,3.3,1.6,5.1,1.7c0.2,1-0.4,1.2-1,1.3c-1,0.3-1.9,0-2.9-0.4c-1.8-0.8-3.6-1.5-5.5-2
		c-1.3-0.4-2.5-1.1-3.6-1.8c-3.7-2.2-7.2-4.6-10.7-7.1c-4.2-3-8.5-5.8-12.7-8.7c-0.9-0.6-1.6-1.5-2.5-2.1c-3-2.2-5.9-4.4-8.9-6.5
		c-1.9-1.3-4.1-2.2-6.4-2.7c-3.9-0.9-7.4-2.6-11-4.2c-0.3-0.1-0.5-0.5-0.7-0.6c-0.3-0.8,0.3-1.2,0.7-1.6c-0.1-0.2-0.1-0.5-0.2-0.6
		c-5.8-8-11.9-15.9-17.3-24.3c-1.7-2.7-3.5-5.3-4.8-8.2c-0.4-0.9-1-1.7-1.7-2.4c-0.9-1-1.8-2-2.6-3.1c-1.4-1.8-3.2-3.4-3-6.1
		c-1.6-2.8-1.3-6.2-2.7-9.1c-0.2-0.3,0.1-0.7,0.6-0.9c0.7,0,0.9,0.6,1.1,1.1c0.8,2.1,1.5,4.1,2.2,6.2c0.5,1.5,1.1,3,2.2,4.1
		c2-2.3,2.6-4.9,1.7-7.5c-0.3-1.1-0.9-2-1.6-2.9c-3.8-4.7-7.9-9-12.3-13.1c-1.5-1.4-3.2-2.7-4.2-4.6c-0.2-0.4-0.6-0.7-1-1.1
		c-3.3-2.9-6.8-5.7-10.6-8s-7.9-3.8-12.5-4.7c-4.1,3.1-8.7,5.8-12.4,9.8c0,1.7-0.9,3.2-1.6,4.7c-1.8,3.4-2.6,7.1-3,10.9
		c-0.9,8.1,0.3,15.9,2.6,23.6c0.7,2.3,1.5,4.7,2.2,7c0.9,3.2,2.4,6.1,4,9.2c2.3,0.4,4.6,0.3,6.9,0.3c2.2,0,4.3,0,6.6,0
		c-0.5-2.2-0.8-3.2-1.9-3.8c-2.2-1.3-3-3.5-4-5.5c-0.6-1.3-1-2.8-1.4-4.2c-0.1-0.3,0.1-0.7,0.2-1c0.7-0.2,1,0.1,1.2,0.6
		c0.7,1.4,1.2,3,2.1,4.3c1.5,2.1,3.2,4,4.9,6c4.6,5.5,9.5,10.6,14.4,15.8c5.1,5.4,10.1,11.1,15.4,16.3c3.3,3.2,6.8,6.1,10.7,8.3
		c0.6,0.4,1.3,0.8,1.8,1.2c0.5,0.3,0.4,0.8,0.2,1.4c2.8,2.2,5.5,4.5,7.6,7.3c1,1.3,2.4,2.1,3.8,2.9c0.5-0.1,1-0.2,1.6-0.4
		c1.8,0.7,3.5,2,5.2,3.2c-0.1,0.3-0.2,0.5-0.4,0.8c1.6,1.3,3.5,2,5.4,2.8c3.7,1.4,7.3,2.8,11,4.1c6.5,2.2,12.8,5,19.4,7
		c2,0.6,4,1.2,6,1.5c1.8,0.3,3.5,1,5.3,1.4c4.3,0.9,8.6,1.7,13,2.6c0.6,0.1,1.2,0.2,1.8,0.1c3.1-0.5,6.1,0.1,9.1,0.6
		c2.5,0.5,4.8,0.3,7.1-1.1c1.4-0.9,3.1-1.5,4.6-2.3c2.9-1.4,5.6-3,7.7-5.5c0.7-0.8,1.5-1.6,2.3-2.5
		C993.4,440.1,994.7,440.1,995.8,439.6z M899.6,435.2c-4.1-1.8-7.5-4.7-11.2-7c-0.8-0.5-1.5-1.3-1.7-2.3c-0.3-1.5-1.2-2.4-2.3-3.2
		c-5.4-4.2-10.8-8.4-16.3-12.7c-1.1-0.9-2.4-1.1-3.8-1.2c-5.6-0.3-11.3-0.5-16.9-0.9c-4.1-0.4-8.3-1.1-12.4-1.7
		c-0.3,0-0.7-0.3-1,0.1c-0.5,0.8-0.2,1.7-0.1,2.5c1.5,10.6,2.3,21.2,2.1,31.9c0,0.5,0,1,0,1.5c-0.2,7.7-1.2,10.9-5.6,17.1
		c-1.5,2.2-3.2,4.3-4.8,6.5c-0.7,0.9-1.3,1.8-1.9,2.7c-0.9,1.6-0.9,3.1-0.4,4.9c0.9,3.8,3.3,6.6,6.2,8.9c4.7,3.7,10.1,6,16,7.2
		c0.1,0,0.2,0,0.4,0c5.7,1.7,11.7,1.5,17.4,2.6c1.5,0.3,2.9,0.3,4.4,0.1c3.1-0.5,6.3-1.1,9.4-1.7c0.1,0,0.2,0,0.4-0.1
		c10-3.3,17.2-7.9,21.8-17.3c0.4-0.8,0.7-1.6,0.9-2.4c0.7-3.4,1.3-6.7,1.9-10.1c1.2-7,2.6-14,4.6-20.8c0.1-0.3,0.1-0.7,0.2-1.4
		C904.3,437.3,902,436.2,899.6,435.2z M1008.5,610.9c-0.9,0.3-1.9,0.6-2.9,0.4c-1-0.2-1.5-0.7-1.3-1.6c0.5-1.4,2.2-1.2,2.8-2.2
		c-0.4-1-1.2-1.1-1.8-0.9c-1.3,0.3-2.6,0.8-3.8,1.3c-0.7,0.3-1.4,0.6-2.1,0.5c-0.5,0-0.9-0.3-1.2-0.7c-0.2-0.5-0.2-1,0.1-1.4
		c0.4-0.5,0.9-0.8,1.4-1.2c0.6-0.5,1.7-0.5,2-1.5c-0.1-0.6-0.5-0.8-1.1-1.1c-3.3,1-6.6,2.9-10.3,2.7c-0.8-1.6-0.8-2-0.2-2.7
		c0.8-0.9,1.9-1.1,2.9-1.5c1.9-0.6,3.7-1.1,5.5-1.7c0.3-0.9-0.2-1.3-0.5-1.8s-0.7-1-1.1-1.6c-4,1.7-8.1,2.6-11.9,4.6
		c-0.9,0.5-1.8,0.7-2.7-0.1c-0.4-0.8,0-1.5,0.6-1.9c1-0.7,2-1.5,3.1-2c2.9-1.3,5.8-2.5,9.1-3c-0.1-0.3-0.2-0.7-0.4-0.9
		c-0.4-0.5-0.8-0.9-1.1-1.3c-5.2,2.4-10.9,3.5-15.3,6.7c-1.3-0.2-1.5-0.9-1.2-1.7c0.3-0.5,0.7-1,1.2-1.4c0.9-0.6,1.8-1.3,2.8-1.7
		c3.5-1.6,7-2.9,10.9-3.8c-2-3.1-5.1-5.3-5.6-9.2c-2.3,0-4.2,0-6.3,0c-1,0.9-2.1,1.8-2.9,3.3c-0.5,3.2,0.6,6.9-2.5,9.6
		c-0.9,0.3-1.8,0-2.7,0.7c-1.8,1.5-3.9,2.6-5.4,4.5c-0.9,1.2-2.1,2.1-3.9,2.2c-1.1-0.5-2.3-1.5-3.8-1.7c-2.2-0.3-3.9-1.3-5.2-3
		c-0.2-0.3-0.5-0.5-0.8-0.8c-0.4-1.1-0.8-2.2-1.3-3.5c0.8-1.2,2.4-2.3,1.5-4.3c-1.1,0.1-1.7,1.1-2.7,1.4c-0.7,2-1,4-0.7,5.9
		c0.4,2.4-0.2,4.4-1.3,6.3c-0.9,1.5-1.3,3.1-1.6,4.8c-0.6,3.3-1.7,6.4-3.4,9.3c-0.4,0.6-0.7,1.3-1.1,1.9c2.8,2.5,6,4.1,9.3,5.7
		c2.3,1.1,4.7,2,7.3,2.5c1.4,0.3,2.9,0.6,4.3-0.2c0.9-0.5,1.9-0.3,2.9-0.2c2.4,0.4,4.9,0.6,7.3-0.2c2.2,1.2,4.4,2.3,6.6,3.4
		c2.4,1.3,4.8,2.4,7.4,3.1c2.1,0.6,4.2,1.4,6.2,2.2c6.4,2.4,12.8,3,19.5,1.7c3.2-0.6,6.5-1.2,9.8-1.6c2.9-0.4,5.3-1.8,7.9-3
		c1.2-0.6,2.1-1.7,2.8-3.2c-0.3-2.8,0.8-5.8-0.1-9c-1-0.4-2-0.9-3.1-1.1c-3.7-0.6-7-2.3-10.3-3.8c-2.9-1.3-5.8-2.7-8.8-3.6
		C1010.3,610.1,1009.4,610.6,1008.5,610.9z M827.8,380.6c-0.5,0.3-1.1,0.7-1.9,1.2c0.9,2.4,1.9,4.7,2.7,7.2c0.8,2.4,1.5,4.9,2.3,7.4
		c0.7,2.5,1.5,4.9,2.2,7.4c10.5,1.5,20.8,3.1,31.2,3.1c0.1-1-0.5-1.3-0.9-1.7c-6.4-5.7-12.2-12.1-18-18.3c-1.2-1.2-2.3-2.6-3.1-4.1
		c-0.5-1-1.2-1.9-2.5-2.3C835.9,380.9,831.9,380.2,827.8,380.6z M907.5,444.8c-0.9,3.7-1.6,7.4-3,11c-0.1,0.3-0.1,0.7-0.1,1
		c0.6,0.6,1.2,0.3,1.8,0.1c1-0.4,2-0.9,3-1.4c5.3-2.8,10.9-4.2,16.8-4.8c3.4-0.3,6.6-1.5,10.4-2.7c-9.3-2.9-18-5.6-26.8-8.3
		C908.6,441.3,908,443,907.5,444.8z M889,313.3c1.4,1.7,2.7,3,4.1,4.2c4.7,4.1,9.3,8.3,14.3,12.1c1.6,1.3,3.1,2.7,4.6,4.2
		c1.1,1,2.1,2,3.1,3c0.6-0.5,0.4-1,0.2-1.4c-2-5-4.5-9.8-7.7-14.1c-1-1.4-1.9-2.8-3-4.5C899.8,315.3,895,313,889,313.3z
		 M840.6,283.3c-0.2,1.2-0.2,2.5,0.2,3.6c1,3.7,1.4,7.4,1.3,11.2c0,0.5,0.1,1,0.2,1.7c0.3-0.5,0.6-0.7,0.6-1
		c1.2-5.4,2-10.8,1.8-16.3c0-0.7-0.2-1.5-0.3-2.2c-0.1-0.6-0.6-1-1.4-1.2C841.5,280,840.9,281.6,840.6,283.3z M829.7,249.2
		c0.4,3.3,1.1,6.5,1.8,9.7c0.8,3.2,2.4,5.8,4.7,9.1c-0.5-3.9-1-6.8-2.1-9.7c-0.8-2.3-1.7-4.6-2.6-6.9c-0.2-0.4-0.4-0.9-0.3-1.4
		c0.5-2.6-0.9-5-0.9-7.6c0-2.4,0.2-4.8-0.5-7.6C828.8,240,829.1,244.6,829.7,249.2z M971.1,454c-1.4-0.6-2.8-0.7-4.5-0.4
		c-0.1,2.4,0.8,4.3,1.9,6.1C971.7,458.6,972,457.9,971.1,454z M835,219.9c0.1-0.3,0.1-0.7,0.2-1c-6.5-1.4-11.1-1.3-13.4,0.8
		c4.4-0.6,8.6-1.8,12.4,1.5C834.5,220.7,834.8,220.3,835,219.9z M855.3,207.1c5.7,0,10.6,0,15.5,0
		C865.9,206.1,861,205.6,855.3,207.1z M980.9,450.9c0.1,1.2,0.9,1.6,1.3,2.2c2.7-0.2,3.3-1.1,3.1-4.5
		C983.8,449.4,982.3,450.2,980.9,450.9z M975,457.1c1.1,0.9,2,0.3,3-0.5c0.4-1.1,0.5-2.4-0.4-3.5c-1.2,0-2,0.8-3,1.2
		C974.5,455.5,974.5,456.3,975,457.1z M872.8,232.2c1-0.2,2.1-0.4,2.9-1.2c0.2-0.2,0.4-0.6,0.6-1c-1.1-0.8-2.1-0.5-3,0
		c-1.3,0.8-2.7,1.5-4.8,2.2C870.5,232.9,871.7,232.5,872.8,232.2z M864.4,209.8c0,0.1,0,0.1,0,0.2c1.8,0,3.6,0,5.3,0
		c0-0.1,0-0.1,0-0.2C868,209.8,866.2,209.8,864.4,209.8z M868.9,222.5c0.8,1.3,1.8,1.3,3.1,0.7C871.2,222,870.1,222.4,868.9,222.5z
		 M859,246.8c0.8,0.2,1.6,0.4,2.3-0.1C860.5,246.4,859.7,246.4,859,246.8z M872.9,207.7c0.8,0.4,1.5,0.5,2.6,0.1
		C874.5,207.3,873.7,207.3,872.9,207.7z M865.9,231.6c0.6,0.6,0.9,0.3,1.3-0.3C866.7,231.1,866.3,231.1,865.9,231.6z M989.6,444.9
		c0.1,0.1,0.3,0.4,0.4,0.4c0.2,0,0.5-0.1,0.6-0.3c0.1-0.1-0.1-0.4-0.2-0.7C990.2,444.5,989.9,444.7,989.6,444.9z M837.3,281.9
		L837.3,281.9c-0.1,0.2-0.1,0.5-0.1,0.7h0.1C837.3,282.3,837.3,282.1,837.3,281.9z M875,206.2L875,206.2c0.3,0.1,0.6,0.1,0.9,0.2
		c0-0.1,0-0.2,0.1-0.2C875.6,206.2,875.3,206.2,875,206.2z M873.1,205.7c0.1,0,0.2-0.1,0.3-0.1c-0.1,0-0.2-0.1-0.3-0.1
		s-0.2,0.1-0.3,0.1C872.9,205.6,873,205.7,873.1,205.7z"/>
	<path d="M215.1,558.4c0.5,0.1,1,0,1.4,0.2c2.4,1.3,5,2.1,7.5,3c5.6,2,11.4,2.8,17.3,3.2c3.5,0.3,6.8-0.4,10.2-1.1
		c6.9-1.4,13.7-1,20.3,1.6c0.3,0.1,0.5,0.1,0.6-0.2c0.3-0.5,0-0.9-0.1-1.4c-0.4-1.8-1-3.6-1.2-5.4c-0.6-5.1-1.1-10.3-1.4-15.4
		c-0.5-8.5-1-16.9-0.6-25.4c0.1-1.9,0.1-4-0.3-5.9c-1-4.8-2.1-9.6-3.6-14.2c-1.8-5.7-3.6-11.5-5-17.3c-1.6-6.9-1.6-13.9-0.2-20.8
		c1.6-7.7,5-14.6,8.7-21.4c2-3.6,4.5-6.6,7.6-9.4c6.8-5.9,12.3-13,17.6-20.2c1.3-1.8,2-3.9,2.2-6.1c0.6-6.5,0.6-13,0.7-19.5
		c0-2.1-0.3-4.2-0.4-6.2c-0.1-1.5-0.4-2.9-0.3-4.4c0.1-7.4-1.4-14.4-4.2-21.1c-0.3-0.8-0.6-1.6-0.8-2.4c-1.9-7.6-4.9-14.9-7.9-22.2
		c-1.3-3.1-2.5-6.1-3.7-9.2c-2-5.4-3.4-11-4-16.8c-0.2-2.1-0.5-4.2,1.2-5.7c-0.1-0.8-0.2-1.4-0.2-2c-0.7-5.7,0.4-11,3.7-15.7
		c0.8-1.2,1.5-2.5,2.2-3.8c1-2,2.4-3.7,4.2-5.1c1.3-1,2.6-1.9,3.8-2.8c1-1.7,1.9-3.5,1.9-5.5c0.1-3.3,0.2-6.6,0.3-9.9
		c0-0.8,0.1-1.6-0.6-2.5c-0.4,2.6-0.8,4.9-1.1,7.2c-0.4,2.6-1.1,5-2.3,7.4c-0.6,1.1-1.2,2.1-3,2.4c0.9-3.9,1-7.7,0.5-11.5
		c-0.7,1.8-1.3,3.7-1.8,5.6c-0.2,0.5-0.5,0.8-1.1,0.8c-0.6-0.8-0.4-1.6-0.3-2.5c0.3-2.1,0.7-4.1,1-6.2c0.8-5.2,1.2-10.5-0.4-15.7
		c-0.7-2.5-1.3-5-2.1-7.4c-1.7-5-2.9-10.1-3.7-15.4c-0.3-1.7-0.8-3.3-1.6-4.9c-1.9-3.9-3.1-8-3.9-12.2s0.1-8.1,2.4-11.6
		c1.6-2.4,2.7-4.9,3.8-7.5c0.6-1.3,1.2-2.7,2-3.9c1.5-2.5,3.8-3.8,6.7-4c1.2-0.1,2.5-0.1,3.7,0c3.2,0.1,6.3,0.2,9.4,0.8
		c2.2-2.8,4.7-4.9,7.4-6.8c0.6-0.4,1.3-0.8,1.7-1.4c1.3-2.1,3.4-2.7,5.5-3.5c4-1.4,8.2-1.7,12.3-1.9c3.3-0.1,6.6,0.5,9.9,0.8
		c5.3,0.4,10.1,2.9,15.3,3.7c5.2,2.2,9.6,5.4,11.9,10.8c1.9,4.4,4,8.7,5.8,13.1c1.7,4.2,2.1,8.3-1,12.2c-0.2,0.2-0.3,0.4-0.4,0.6
		c0,0.2,0,0.4,0.1,0.6c0.4,0.4,1.2,0.1,1.5,0.9c-0.6,0.5-1.2,1.1-1.9,1.7c0.5,1.4,0.9,2.8,1.5,4.2c1,2.4,2.7,4.4,4.3,6.4
		c0.1,1.3,0.2,2.5-0.3,3.7c-0.8,1.7-2.7,2-3.7,3.1c-0.3,1-0.1,1.7,0.1,2.4c0.2,1.1,0.4,2.2,0.5,3.2c0.1,1.2-1.4,1.7-1.5,2.7
		c0.5,1.1,1.1,2,1.1,3.2s-1.3,1.8-1.3,3.2c0.2,0.5,0.5,1.2,0.7,1.9c1,3.9-0.5,6.7-4.4,8c-2.4,0.8-4.8,1-7.3,0.6
		c-2.3-0.4-4.6-0.7-6.9-1c-0.7-0.1-1.5-0.3-2.3,0.4c-1.2,1.5-1.4,3.6-1.6,5.7c-0.4,3.4-1,6.8-1.8,10.1c-0.2,0.8-0.7,1.6-0.3,2.5
		c2.3,2.1,2.8,2.6,4.2,2.8c2.5,0.4,5.1,0.9,7.6,1c1.5,0,2.9,0.2,4.3,0.5c3.3,0.7,6.2,2.2,9,4.3c0.7,1.4,1.7,2.8,2.7,4.2
		c3.6,4.9,6.6,10.1,7.1,16.3c0.1,1.2,0.8,2,1.5,2.9c3.3,3.8,6.6,7.6,9.8,11.4c1.1,1.3,2.2,2.7,3.1,4.1c3.3,5.1,4.3,10.6,3.2,16.6
		c-0.2,0.8-0.4,1.7-0.6,2.5c2,3.8,3,7.8,4,11.8c0.5,0.5,0.8,1,1.3,1.4c4.4,4,8.3,8.4,11.3,13.5c0.4,0.7,1,1.4,1.5,2.1
		c4.2,6.4,8.2,12.8,10.7,20.1c0.8,2.3,1.7,4.6,2.6,6.9c3.2,7.6,6,15.3,8.5,23.1c0.7,2.3,1.5,4.6,2.3,7c4.3,0.7,8.4-0.2,12.6,0.3
		c2.2-0.8,4.1,0.1,6,0.8s3.7,1.8,5.9,1.8c1.6,2.5,3.2,5,4.7,7.5c0.6,1,1.2,2.1,2.3,2.8c1.7,1.1,3.1,2.5,3.8,4.1
		c1.3,0.7,2.4,1.2,3.5,1.8c0.8,0.4,1.5,0.9,1.8,1.7c0.1,0.3,0.1,0.5-0.2,0.6c-0.6,0.4-1.1-0.4-1.9-0.1c-0.1,1.3-1.7,1.3-2.4,2.2
		c0.1,0.7,0.6,1.1,1.1,1.4c1.9,1.1,3.8,2.2,5.8,3.3c1.8,1,3.5,2.2,4.6,4.1c1.2,5.4,1.6,10.9,1.6,16.4c0,2,0.1,4,0.8,5.8
		c0.7,1.6,0.8,3.3,1.1,5c0.4,2.5,0.9,5.1,1.4,7.6c0.4,2.3,0.9,4.6,1.2,6.9c0.8,5.7,0.8,11.5,1.2,17.3c0.5,8.3-0.2,16.7,0.9,25
		c0.6,4.7,0.6,9.5,1,14.3c0.3,4.3,0.4,8.6,1.2,12.8c1,5.7,1.9,11.4,2.9,17c0.4,2.1,1.1,4,2.6,5.5c3.3-0.3,6.3-1.7,9.4-1.4
		c1.3,0.9,1.6,2.4,2.9,3.1c1.2,0.6,1.8,1.7,2.1,2.9c1,3.2,2.7,6,5.1,8.4c0.7,0.7,1.3,1.5,1.9,2.2c3.3,3.6,6.6,7.3,9.9,10.9
		c0.7,0.8,1.5,1.6,2.6,2c6.4,2.2,12.3,5.4,18.8,7.4c1.7,0.5,3.6,0.9,5.1,2.2c0.2,0.4,0.4,0.9,0.5,1.3c0.5,2.7,0.3,5.4,0.1,8.1
		c-0.2,2.5-1.6,4.7-3.9,5.9c-1.8,1-3.7,2-5.7,2.6c-4.2,1.4-8.6,1.8-12.8,3.2c-7.3,0.6-14.5,0.5-21.3-2.5c-4.7-2-9.4-4.2-14.1-6.3
		c-1.7-0.8-3.3-1.6-5.2-2c-2,0.7-4,0.7-6.1,0.4c-2.3-0.3-4.6-0.5-6.9,0.1c-1.3,0.3-2.7,0.2-4-0.1c-2.4-0.5-4.7-1.3-6.9-2.6
		c-2.9-1.8-5.8-3.7-8.7-5.6c-0.4-0.3-0.6-0.7-0.8-1c-0.3-1.7,0.5-2.8,1.2-3.9c1.6-2.5,2.8-5.2,3.8-8c0.3-0.7,0.6-1.4,0.5-2.1
		c-0.1-1.6,0.4-2.8,1.2-4.1c1-1.7,1.6-3.5,1.3-5.6c-0.4-3,0.7-5.7,1.5-8.5c0.8-0.5,1.7-0.3,2-1.4c-0.3-4.5-0.9-9.1-2.3-13.5
		c-0.4-1.2-0.7-2.3-1.1-3.5c-1.8-6.8-4-13.4-7.7-19.4c-1.6-2.5-2.9-5.1-3.9-7.9c-1.1-3.1-2.1-6.2-3.6-9.2c-2.7-5.4-4.4-11.2-5.7-17
		c-1.7-7.5-1.7-15.1-1.6-22.7c0.1-2.7,0.1-5.4-0.5-8.1c-1.1-2.2-2.8-3.6-5.2-4.3c-1.3-0.4-2.5-1-3.7-1.6c-1.5-0.8-3.1-1-4.6-0.6
		c-2.1,0.6-4.1,0.5-6.2,0.6c-2.1,0.1-4.2,0.1-6.2,0.4c-3.6,0.5-7.3,0.8-11,1.2c-0.7,0.1-1.5,0.2-2.1-0.3v0.1
		c0.2-1.1,1.1-1.3,1.9-1.4c3.5-0.6,7-1.3,10.5-1.5c2.8-0.2,5.6-0.5,8.4-0.6c2.3-0.1,4.7-0.3,6.9,0.3c0.6,0.2,1.2,0.1,1.8-0.2
		c0.8-0.5,1.7-0.3,2.5-0.1c3,0.8,5.7,2.2,8.1,4.2c1.1,0.9,1.9,2.3,2,3.8c0.2,2.9,0.6,5.8,0.3,8.8c-0.8,6.4-0.1,12.7,0.5,19.1
		c0.5,5,1.8,9.9,3,14.8c0.3,1.3,0.8,2.6,1.5,3.7c2.6,4.4,4.9,9,7.8,13.3c1.6,2.4,2.6,5.3,3.8,7.9c3.3,7.6,5.2,15.6,7.3,23.5
		c0.5,1.7,0.4,3.6,1.4,5.2l-0.1-0.1c0.2,1.8,0.4,3.6,0.6,5.7c1,0.7,2.2,1.6,3.3,2.4c1.1,0.8,2.1,1.7,2.7,3c0.2,0.4,0.2,0.4-0.7,1.6
		c-1.8-1.3-3.1-3.4-5.4-4.5c-0.4,2.4-0.1,4.5,1.4,6.7c1.7,1.2,3.8,1.7,6,2c1.9,0.2,3.6-0.1,5.1-1.4c2.1-1.9,4.7-2.9,7.4-4.3
		c-0.2-3.1,0.1-6.2,1.2-9.3c-0.6-1.9-1.2-3.7-1.8-5.6c-0.4-1-1-2-1.2-3c-1.1-4.8-2.2-9.6-3-14.4c-0.5-2.9-0.8-5.8-0.4-8.8
		c0.3-2.1-0.3-4.4-0.6-6.6c-0.2-1.6-0.5-3.1-0.3-4.7c0.1-0.5,0-1,0-1.5c-0.3-8.3-0.5-16.7-0.9-25c-0.2-5.5-0.7-11-1.1-16.5
		c-0.1-2-0.3-3.9-0.3-5.9c-0.2-6.2-1.2-12.2-2.4-18.2c-0.7-3.4-1.3-6.7-1.9-10.1c-0.1-0.6-0.2-1.2-0.1-1.8c0.2-0.8,0.6-1.6,0.4-2.5
		c-0.5-2.8-1-5.6-1.6-8.3c-0.3-1.2-0.3-2.5-1.5-3.8c-2.1-1.1-4.6-2.3-7.2-3.6c-1.1,0.6-2.2,1.2-3.3,1.8c-0.6,1-1.1,2.4-2.4,3.2
		c-3,1-4.5-1.3-6.4-3.6c0.1,2.8,0.2,5.1,0.3,7.1c-0.8,1.1-1.9,1.2-2.5,1.7c-2.6-0.4-4-1.9-4.8-4.2c-0.6-1.7-0.6-3.4-1.1-5
		c-0.3-1.2-0.1-2.5-0.7-3.6c-0.8-0.4-1.4-0.2-2.2,0.3c-1.3,2.4-1.1,5.4-1.5,8.1c-0.5,2.8-2.1,5.2-2.4,8.2c-2.4-1.2-3.8-2.8-4.3-5.3
		c-0.3-1.8-0.6-3.6-0.4-5.5c0.2-1.7,0.2-3.4,0.3-4.7c-0.3-0.9-0.7-1.1-1.2-1.2c-0.3-0.1-0.7-0.1-1.1-0.1c-0.2,0.2-0.4,0.4-0.4,0.6
		c-0.2,1.4-0.1,3-1.4,4.3c-0.9,0.8-2.6-0.1-3.5,1.7c-1.7-4-4.5-6.7-6.8-10c-6.7-1.9-13-5.3-19.2-8.7c-1-0.5-2-1-3-1.4
		c-2.3-1-4.6-2.3-7.3-1.9c-5.6-1.1-11.2-0.7-16.9-0.9c-0.6,0-1.2,0.1-2,0.1c-3.1,5.2-6.2,10.5-9.3,15.8c-0.7,1.3-1.3,2.6-1.4,4.1
		c0,0.7-0.4,1.4-0.7,2.1c-2.9,6.1-5.6,12.3-8,18.6c-0.2,0.5-0.3,1.2-1,1.4l0.1,0.1c-0.3-1.3,0.1-2.4,0.5-3.6c1.3-4.5,3.2-8.7,5.1-13
		c2.2-4.9,4.5-9.8,6.7-14.7c1.4-3.3,2.8-6.5,4.8-9.5c0.2-0.3,0.2-0.7,0.3-1.2c-4.5-0.4-8.9,0.1-13.1-0.3c-1.1,1.4-0.8,3.1-0.9,4.6
		c-0.4-0.1-0.6-0.1-0.8-0.2c-0.1,0.1-0.2,0.1-0.2,0.2c-1.7,6.5-6.5,10.2-11.9,13.3c-2.6,1.5-5.4,2.9-8.1,4.3
		c-4.5,2.5-9.5,3.2-14.6,2.7c-3.1-0.3-6.1-0.5-9.2-0.4c-4.3,0.1-8.5-0.7-12.6-2.1c-2.2-0.8-4.4-1.4-6.6-2.2
		c-2.7-0.9-5.2-2.1-7.6-3.7c-3-2-5.6-4.4-7.1-7.8c-0.8-1.8-2.3-3.2-2.3-5.3c-0.9-0.1-1.3,0.4-1.7,0.8c-3.1,3.6-6.3,7.2-9.3,10.9
		c-2.3,2.9-4.3,6-5.8,9.4c-0.4,1-0.9,2-1.4,3c-3,5.9-4.3,12.2-4.3,18.8c0,2,0.1,3.9,0,5.9c-0.2,5.1,0.7,10,2.1,14.8
		c1.5,4.8,3.3,9.5,4.5,14.3c2.9,1.4,5.7,2.8,8,5l0.1-0.1c-1.6,0.4-2.8-0.5-4.2-1.1c-0.7-0.3-1.3-1.2-2.5-0.7c0.1,0.8,0,1.6,0.2,2.4
		c0.5,2.5,1.1,5,1.6,7.5c0.2,0.8,0.4,1.7,0.4,2.5c0.2,8.2,0.6,16.4,0.6,24.6c-0.1,8.4,1,16.6,2.7,24.8c0.2,1.1,0.5,2.1,0.4,3.3
		l0.1-0.1c-1-0.5-1.1-1.8-2.3-2.2c-6.1-2.3-12.2-4.2-18.9-2.6c-0.6,0.1-1.2,0.3-1.8,0.3c-7.1,0.4-14.1,0.7-21.2-0.5
		c-5.8-1-11-3.2-15.7-6.7C215.5,559,215.4,558.6,215.1,558.4z M517.2,588.6c-0.2-1.3-1.3-2-2-3c-1.2-1.6-2.6-3-2.9-5
		c-0.1-0.6-0.6-1.1-1.5-1.4c-2.2,0.1-4.6,0.6-6.7,1.7c-0.9,1-1.3,2.1-1.4,3.4c0,1.5-0.2,2.9-0.5,4.4c-0.4,2-1.1,3.8-3.7,3.8
		c-2.2,1.3-4.4,2.7-6.1,4.6c-1.1,1.2-2.1,2.4-4.1,2.6c-1.2-0.6-2.5-1.5-4.1-1.8c-4.1-0.7-6.2-3.6-7.1-7.4c-0.3-1.2-0.4-2.4-0.6-3.6
		c-0.8,0.1-0.8,0.6-0.9,1.1c-0.3,2.2-0.8,4.3-0.4,6.6c0.4,1.9-0.4,3.7-1.3,5.3s-1.4,3.4-1.7,5.2c-0.5,3.3-1.9,6.5-4.4,11
		c5.2,4.2,11,6.9,17.5,8.4c1,0.2,1.9,0.3,2.9-0.2c0.9-0.5,1.9-0.4,2.9-0.4c2.3,0.1,4.6,0.4,7,0c0.9-0.1,1.7,0.2,2.5,0.6
		c1.5,0.8,3.1,1.6,4.6,2.4c2.7,1.5,5.5,2.7,8.4,3.6c1.6,0.5,3.3,1,4.9,1.7c3.9,1.7,8,2.3,12.1,2.7c2.2,0.2,4.4,0.1,6.6-0.4
		c3.2-0.7,6.5-1.2,9.8-1.6c3.2-0.4,6.1-1.6,9-3.1c2.1-1.1,3.5-2.7,3.2-5.2c-0.2-2.2,0.6-4.4,0-6.7c-1-1.2-2.5-1.5-3.9-1.7
		c-2.6-0.4-4.9-1.5-7.3-2.5c-3.1-1.3-6.1-2.6-9.1-3.9c-1.3-0.6-2.5-0.7-3.9,0c-1.1,0.5-2.3,0.8-3.5,1c-0.9,0.2-1.3-0.3-1.8-1.8
		c0.5-1.5,2.3-1.2,3.2-2.3c-0.8-1.1-1.8-1.2-2.9-0.8c-1.7,0.6-3.4,1.3-4.9,1.9c-1-0.1-1.4-0.5-1.6-1.1c-0.2-0.8,0.2-1.4,0.8-1.9
		c0.5-0.3,1-0.6,1.6-0.9c0.4-0.3,0.8-0.5,1.2-0.8c-0.3-1-0.9-1.3-1.7-1c-0.8,0.2-1.6,0.6-2.4,0.9c-2.2,0.8-4.4,1.5-6.6,1.8
		c-0.9-0.3-1.5-0.7-1.5-1.5c0-0.7,0.3-1.2,0.8-1.6c0.7-0.5,1.5-0.8,2.3-1.1c2-0.7,4-1.2,6.1-1.9c-0.2-1.5-1.2-2.4-1.9-3.5
		c-2.2,1.1-4.6,1.7-6.8,2.5c-2.3,0.9-4.5,1.9-6.6,2.7c-0.8-0.3-1.3-0.6-1.3-1.6c1.2-2.1,3.5-3,5.8-3.8c2.3-0.9,4.5-1.9,7.1-2
		c-0.2-1.2-0.9-2-1.8-2.7c-0.3-0.2-0.5-0.5-0.8-0.7C517.7,589.1,517.4,588.9,517.2,588.6z M298.1,221.4c-0.4,0.9-0.3,1.4,0.3,1.7
		c0.1,0.5,0.1,1,0.2,1.7c0.6-0.9,0.2-1.3-0.3-1.7C298.3,222.7,298.2,222.2,298.1,221.4z M340.2,158.8c0.7,0,1.2,0.1,1.7,0.1
		c0.4,1.1,1.3,0.8,2.1,0.8c1.2,1.7,3.3,1.9,4.9,2.8c0.6-0.9-0.1-1.3-0.5-1.5c-1.4-0.6-2.8-1.5-4.5-1.3c-0.5-1-1.4-0.6-2.2-0.8
		C341.4,158.8,341,158.3,340.2,158.8z M334.2,167.7c0.4,0.1,0.8,0.1,1.1,0.2c0.4,0.8,1,0.6,1.6,0.2c-0.6,0-1.1-0.1-1.7-0.1
		C335,167.6,334.8,167.1,334.2,167.7z M350,167.1c0.4,1.5,1.6,1.9,3,2.2c0.1,0.7,0.2,1.4,0.3,2.1c0.4,0.2,0.6,0.5,1,0.6
		c0.3,0.1,0.7,0.2,1.1-0.3c-0.4-1.1-1.5-1.7-2.4-2.3C352.3,168.1,351.3,167.4,350,167.1c-0.4-0.7-1-0.6-1.7-0.6
		c-0.3-0.8-0.8-1.1-1.6-1.3c0.1,1.1,1,1,1.7,1.2C348.8,167.1,349.4,167.2,350,167.1z M284.9,173.3c-1.2-0.1-1.2-0.1-1.9,1.2
		c-0.2,0.1-0.3,0.2-0.5,0.4c0.6,0.3,0.5-0.1,0.4-0.4C283.8,174.6,284.3,174,284.9,173.3z M339.8,160.3c-0.8-0.8-1.7-0.5-2.4-0.5
		c-0.1-0.2-0.3-0.5-0.4-0.5c-5.6-1.1-11.3-1.3-17.1-0.5c0.9,0.1,1.8,0.2,2.6,0.1c5-0.1,10,0.4,15,0.8
		C338.1,160.4,338.8,160.4,339.8,160.3z M305,226.4c-0.8-1.8-1.6-3.6-2.5-5.7c-0.2,0.4-0.4,0.6-0.4,0.8c0.5,3.3,0.7,6.7,0.7,10.2
		c1.5-0.1,1.9-1,2.1-1.9c0.3-0.3,0,0.1,0.1,0.1C303.8,228.8,304.4,227.7,305,226.4z M333.5,166.4c0.5,0,0.8-0.3,0.9-0.9
		c1,0.5,1.9,1.2,3,1.5c3.9,1.1,7.7,2.5,11.2,4.6c0.3,0.2,0.7,0.2,1,0c0.1-0.1,0.1-0.2,0.4-0.5c-0.3-0.2-0.6-0.4-0.9-0.5
		c-4-1.9-8-3.8-12.2-5.1c-0.9-0.3-1.7-0.4-2.4,0.3c-1-1.7-2.7-1.9-4.4-2c-3.4-0.1-6.9-0.1-10.3-0.1c-1.7,0-3.3-0.1-5-0.6
		c1.4-0.1,2.9-0.3,4.6-0.4c-1.4-0.9-2.7-0.3-3.9-0.8c1.4-0.7,3-0.1,4.4-0.9c-3.4-0.9-6.3-0.3-8.6,2.9c1.8,0.3,3.3,0.5,4.8,0.8
		c3.8,0.8,7.7,1.6,11.5,2.4c0.9,0.2,2,0.5,2.7-0.5l-0.1,0.1C331.2,166.4,332.3,166.4,333.5,166.4z M308.5,178.6
		c-0.7-0.2-1-0.3-1.3-0.4c-0.3-0.8-1-0.9-1.6-1.3c-0.5-0.3-1.1-0.4-1.4-1c2.2,0.1,3.9,1.4,5.8,2.3c3.6,1.7,7.3,3,11.1,3.9
		c1.1,0.3,2.1,0.5,3.3,0.3c3.6-0.7,7.3-1,10.7-2.7c1.5,0,3.1,0.9,4.7,0.2c0.7-0.8,0.7-1.7,0.5-2.7c-0.2,0-0.5-0.1-0.6,0
		c-3.4,2.2-7.2,2-10.9,1.8c-0.3-0.7,0.6-1.2,0-1.8c0.6-0.8,1.6-0.3,2.4-0.9c-1.5-0.9-3.2-1.5-4.8-1.8c-5-1-10.1-1.9-15.2-2.9
		c-1.6-0.3-3.1,0-4.5,0.1c-1.1-1-0.8-1.7-0.1-2.4c0.8-0.7,1.8-0.7,2.8-0.7c2.3,0.1,4.6,0.6,6.9,1.1c3,0.7,6,1.5,8.9,2.2
		c1.1,0.3,2.1,0.6,3.2,0.3c0.1-0.3,0.1-0.7,0.2-1c3,0.2,5.9,1.4,9.6,0.9c-2.7-0.9-5-1.6-7.5-2.4c1.9-0.8,3.2,0.8,4.6,0.2
		c-2.3-1.5-2.3-1.4-4.6-1.7c-1.8-0.2-3.7,0-5.4-0.7c-0.2-0.1-0.5-0.1-0.7-0.2c-5.4-0.4-10.7-0.8-15.8-1.1c-1.3,0.4-2.1,1.1-2.8,1.8
		c-1.7,1.6-3.4,3.1-4.8,4.4c-0.4,1.2,0.3,1.5,0.4,2.1c-0.5,0.4-1.1,0.6-1.2,1.5c2,2.3,4.9,3.3,7.7,4.5c2.7,1.2,5.4,2,8.3,3.1
		c-1.7,0.6-1.7,0.6-5.9-0.5c-1.9-0.5-3.7-1.2-5.4-2.2c-1.8-1-3.6-2-5.4-3.1c-0.6,0.2-0.8,0.8-0.9,1.4c0.1,0.8,0.7,1.3,1.3,1.7
		c2.4,1.8,5,3.1,7.6,4.5c0.2,0.1,0.5,0.3,0.7,0.3c3.2-0.5,6.1,1.2,9.3,1.5c2.6,0.2,5.1,0.1,7.6-0.5c0.9-0.2,1.9-0.5,3.2-0.9
		c-3.1-1.1-5.9-1.9-8.8-1.9c-3-1.7-6.1-2.7-9.2-3.8c-1-0.4-2.2-0.3-2.9-1.4C307.5,178.8,307.8,178.7,308.5,178.6z M312.1,187.6
		c0.4,0,0.7,0.1,1.1,0.1c0.2,1.1,1.2,1.1,1.9,1.4c1.3,0.7,2.8,1.2,4.1,2c-7.6-2-14.7-5.2-21.1-9.7c-0.7,1-0.7,2-0.9,3
		c-0.2,1.1-0.2,2.2-0.3,3.3c1.4,1.8,3.4,2.4,5,3.5c0.9-0.2,0.4-0.8,0.9-1.3c5.9,1.5,11.6,4.1,17.9,4.4c1.6-1,3.3-1.5,5.2-1.8
		c2-0.3,4-1.1,6-1.7c0.6-0.2,1.2-0.4,1.5-1c-0.2-0.7-0.7-0.3-1.1-0.2c-2.3,0.6-4.5,1.1-6.9,1.2c-1.1,0.1-2.2,0.1-3.1-0.8
		c-0.2-0.3-0.6-0.5-0.9-0.6c-2.8-0.4-5.4-1.7-8.3-1.6C312.7,187.4,312.7,187.4,312.1,187.6z M291.5,212.4c-0.6,1.2-0.6,2,0.3,2.6
		c-0.3,2,0.4,3.9,0.8,5.8c0.7,3.1,1.4,6.2,1.7,9.3c0.7,5.7,1.2,11.4,0.7,17.2c-0.4,4.3-0.3,8.6-0.5,12.8c0,0.3,0.2,0.6,0.4,1.2
		c1.3-1.5,1.4-3.3,1.8-4.9c0.4-1.5,0.6-3.1,1-4.7c0.3-1.7,0.6-3.4,1.1-5.7c0.8,4.9-0.3,9-0.9,13.1c1.7-0.3,1.7-0.2,3.2-2
		c0.1-3.5,0.1-7.2,0.2-10.9c0-0.6,0-1.3-0.2-1.8c-1.5-3-1.9-6.3-2.8-9.5c-1.2-4-2.1-8.1-3.6-11.9c-0.9-2.3-1.5-4.7-2.2-7
		c-0.1-0.5-0.2-0.9-0.8-1.1C291.6,214.3,291.6,213.6,291.5,212.4z M303.3,212.1c1.9,2.4,2.7,3.1,6.9,4.9c0.4-0.8-0.3-1.3-0.6-1.9
		c-0.3-0.5-0.7-1-1.1-1.5c-1.2-1.4-2.2-3-2.4-5.1c0.9-1,1.3-2.4,1.2-3.9c-0.1-1.8,0.4-3.4,1.2-5.2c1.4-1.3,2.9-2.8,4.8-3.4
		c1.5-0.1,2.8,0.5,3.9,0.9c0.5-0.3,1-0.6,1.4-0.8c-0.1-0.2-0.2-0.6-0.3-0.6c-5.3-0.6-10.5-2.5-15.9-2.8c-1.9-0.1-3.7-1-5.3-1.8
		c-0.7,0.6-0.4,1-0.2,1.4c0.8,1.4,1.9,2.5,3.4,3.3c2.2,1.1,4.4,2.2,7.2,3.6c-4.5-0.1-7.6-1.9-10.6-4c-0.9,0.6-0.6,1.2-0.1,1.8
		c1.4,1.7,3.1,3.1,5.4,4.2c-2.1,0.7-3.2-0.9-4.7-0.9c0.1,2.5,0.8,4.4,2.5,6.2c1.4,1.4,2.9,2.7,4.3,4c0.4,0.4,1,0.7,0.8,1.5l0.1-0.1
		C304.4,212.1,303.9,212.1,303.3,212.1z M412.9,403.2c0-0.1,0-0.2,0-0.2c-0.1-0.1-0.2-0.1-0.3-0.1c0.2-1-0.5-1.6-0.9-2.3
		c-1.9-2.9-3.9-5.7-5.6-8.6c-1.9-3.3-4.4-6.1-6.8-9c-2-2.5-3.8-5.1-5.3-7.9c-1.9-3.6-3.8-7.2-5.4-10.9c-2.2-5-5-9.5-8-14
		c-1.2-0.1-1.4,0.8-1.5,1.7c-0.3,2.3-0.4,4.6-0.7,7c-0.2,1.8-0.6,3.6-1,5.4c-0.1,0.5-0.5,1-0.3,1.4c0.9,2.6-0.5,4.8-1.2,7.1
		c-0.2,0.7-0.7,1.3-0.4,2.5c2.6,2.2,5.3,4.6,8.1,6.9c8.4,6.8,17.1,13.2,26,19.2c1,0.7,1.8,1.7,3.2,1.6
		C412.7,403,412.8,403.1,412.9,403.2z M290.2,171c2.5-0.3,4.8,0.1,6.7,2c-1,2.3-3,1-5.1,1.6c-2.8,2.3-5.2,5.4-6.7,9.3
		c-1.4,3.8-1.3,7.9-1.6,12.6c-0.9-2.5-0.9-4.5-0.8-6.4c0-2.1,0.2-4.2,0.9-6.2c0.7-1.9,1.6-3.6,2.9-5.1c1.2-1.5,2.5-2.9,4.1-4.7
		c-2.4-0.2-4.2,0.5-5.9,1.4c-1.7,1-3.3,2.1-4.9,3.3c-0.7,0.5-1.1,1.3-1.6,2c-3,5.4-3.9,11-2.4,17c1.2,5,2.9,9.9,4.6,14.7
		c0.5,1.2,1.2,2.4,0.8,3.9c-0.2,0.5,0.1,1.2,0.3,1.8c0.8,2.3,1.5,4.7,2.3,7c0.7,2.2,1.5,4.4,2.3,6.6c0.2,0.6,0.5,1.1,1,2.1
		c-0.3-4.2-0.8-7.9-1.5-11.5c-0.6-3.2-1.3-6.5-1.9-9.7l-0.1,0.1c0.7-0.5,0.8-1.2,0.7-1.9c-0.2-1.1-0.4-2.1-0.6-3.3
		c1.1,0.3,1.1,1.1,1.3,1.8c1.2,5.4,2.4,10.8,3.1,16.2c0.4,2.9,0.7,5.8,1.1,8.8c0.4,3.5,0.3,7.1,0,10.6c-0.2,2.8-0.4,5.6-0.4,8.4
		c0,0.9-0.2,2,0.4,3.2c0.5-1.4,0.9-2.6,1.3-4c-0.6-1.6-0.5-3.2-0.4-5c0.5-5.6,0.4-11.3,0.2-16.9c-0.1-1.6,0-3.2,0.1-4.8l-0.1,0.1
		c0.6,0.3,0.7,1,0.8,1.6c0.4,2.7,0.7,5.3,1.2,7.9c0.5-3.4,0.5-6.8-0.1-10.2c-0.6-3.5-1.4-7-2.2-10.4c-0.4-1.9-0.8-3.9-0.8-5.8
		c-0.1-5.3-0.3-10.5-0.3-15.8c0-4.5,1.4-8.7,3.6-12.6c0.4-0.7,0.8-1.6,1.5-2.1c2.8-1.9,3.1-5.1,4.7-7.5c-0.4-0.4-0.6-0.7-0.8-0.7
		c-4-0.6-8-1-12,0.3c-0.3,0.1-0.6,0.4-0.9,0.6l-0.1,0.1v-0.2C286.8,171.8,288.5,171.2,290.2,171z M381.7,347.4
		c0.2,0.4,0.2,0.7,0.4,0.9c5.6,9.2,10.1,19,15.3,28.5c0.5,0.9,1,1.7,1.6,2.5c1.5,1.9,3.1,3.8,4.7,5.7c4.5,5.3,7.9,11.2,11.2,17.2
		c0.6,1.1,1.2,2.1,1.8,3.2c1.4,0.7,2.9,1.4,4.3,2.1c1.2,0.6,2.5,1.1,3.5,1.9c3,2.2,6.5,2.7,10.1,2.5c0.6,0,1.2,0,1.8-0.1
		c0.1,0,0.2-0.1,0.3-0.2c0.4-0.2,0.2-0.6,0.1-1c-2.3-6.5-4.5-13-6.8-19.4c-2-5.8-4.9-11.2-7.4-16.8c-0.6-1.3-1.4-2.6-1.5-4.1
		c0-1-0.6-1.8-1.1-2.7c-3.6-6.1-7.4-12.1-11.5-18c-1.2-1.7-2.6-3.3-4-4.8c-1.3-1.5-2.6-2.9-4-4.3c-0.9-1-1.6-2.1-2-3.4
		c-0.7-2.1-1.6-4.1-2.5-6.1c-1.2,0.2-1.2,1.3-1.6,2c-1.3,2.5-4,5.1-7,6.7c0.1-0.3,0.2-0.7,0.4-1c4.3-3.9,6.1-9.1,7.5-14.5
		c1.3-4.9,0.6-9.7-1.7-14.3c-2.1-4.1-5.5-7.1-8.2-10.6c-1.1,0.4-0.8,1.1-0.8,1.6c-0.3,2.6-1.8,4.3-4.1,5.2c-1.7,0.7-3.5,1.1-5.4,1.1
		c-1.2,0-2.5-0.1-3.7,0.2c-3.9,0.9-7.5-0.1-11.1-1.6c-2.2-0.9-4.2-2.1-6.1-3.5c-3.3-2.4-6.5-4.8-10-6.9c-2-1.2-3.7-2.8-5.1-4.8
		c-0.8-1.1-1.8-2-2.8-2.9c-5.9-4.9-11.7-10.1-17.4-15.4c-2.5-2.3-5-4.7-8.3-6c-1.4-1.9-3.6-1.9-5.6-2.3c-2.1-0.5-4.3-1.1-6.4-1.6
		c-0.5-0.1-1-0.1-1.1,0.6c0.4,0.9,1.4,0.9,2.1,1c7.3,1.7,13.3,5.6,18.4,10.9c2.4,2.5,4.9,4.8,7.5,7c3.6,3,6.9,6.3,10.1,9.7
		c1.6,1.7,2.8,3.7,3.8,5.8c1.8,3.9,1.1,9.3-3.2,13c-0.9,0.8-2,1.5-2.9,2.3c-0.5,0.4-0.8,0.9-1.2,1.3c5.5,13.5,12.2,26.3,18.9,39.3
		c5.4-1,10.8-0.1,16.1-1.2c2.6-0.6,5.3-1,7.7-2.3c0.6-0.3,1.4-0.5,2.1-0.7c0.6-1.2,1.2-2.4,1.9-3.5c0.6-1,1.3-1.8,2.6-1.7
		C381.7,345.2,381.7,346.4,381.7,347.4z M358,172.2l0.2,0.1c-0.7,1.3-2.3,0.7-3,1.9c-1.6-0.7-2.8-1.9-4.7-2c-0.9,0.6-2,1.4-3.2,2.2
		c-2.5-1.9-5.3-1.3-7.9-0.5c-1.4,0.5-2.8,0.8-4.2,0.6c-0.8-0.1-1.6-0.4-2.5,0.3c1.1,1.4,3.1,0.1,4.2,1.5c1.5-0.2,3.1-0.4,4.6-0.7
		c0.6,3.7-1.1,7.1-1.4,10.9c-0.6,0.4-1.3,0.9-2,1.3c0,1.1-0.2,2.1-1.3,2.7l-0.1,0.1v-0.2c0.3,0.4,0.6,0.7,1.1,1.2
		c-2,1.7-3.8,3.6-6,4.9c-1.2,0.7-2.3,1.4-3.2,2.4c-1.3,1.6-3.3,2-5.4,2.7c1.6,1.1,3.1,0.1,4.5,0c-0.5,2.2-2.5,3.3-4.6,2.5
		c-1.8-0.6-3.2-1.8-4.4-3.2c-0.5-0.7-1-1.4-1.6-2c-1.5-1.5-3-1.5-4.6-0.2c-2.1,1.7-3.3,4-3.6,6.6c-0.1,0.4-0.1,0.9,0.5,1.3
		c1.1-2,1.4-4.5,3.1-6.2c0.2-0.2,0.7-0.3,1.1-0.5c2.4,0.8,4,2.6,5.6,4.1c1.2,2,0.6,3.8-0.2,5.3c0.7,1.4,2.3,1.3,2.9,2.5
		c-0.1,2.3-0.5,2.9-2.8,3.6c-0.9-1.8-1-4-2.3-5.3c-0.3-1.6,1-2.2,1.3-3.1c0.1-0.8-0.4-1.4-0.8-1.9c-0.3,0.1-0.6,0.1-0.7,0.2
		c-0.8,0.9-1.5,1.9-2.2,2.8c-0.3,2.9,1.5,4.9,2.9,6.9c-0.9,1.4-1.4,1.6-2.3,1.2c-1.3-0.6-2.1-1.7-2.7-2.9c-0.5-1-0.6-2.1-0.6-3.2
		c-1.1-0.3-1.9-1-3-0.7c-0.1,0.5-0.2,0.8-0.1,0.9c1.5,2.2,3.1,4.4,4.6,6.6c0.9,1.3,1.9,2.5,2.8,3.9c0.8,1.3,1.9,2.2,3.3,2.7
		c1.3,0,1.6-1.2,2.3-1.7c0.4,0,0.8,0.2,0.9,0.5c0.4,1.6-0.3,2.9-1.9,3.3c-1.1,0.3-2.2,0.3-3.2,0.5c-1.6-0.8-2-2.5-3.1-3.8
		c-2.9-0.8-6-1-8.7-2.9c0.3,2.9,0.9,4.2,2.7,5.6c0.8-0.5-0.7-1.1,0.4-1.6c0.7,0.2,1.7,0.7,2.7,0.9c0.9,0.2,1.9,0.1,2.8,0.2
		c0.6,0.6,0.3,1.2,0.2,1.8c-0.8,1.3-2.4,1.7-3.8,2.5c0.1,2,0.1,4.1,0.3,6.1c0.4,5-0.4,9.8-1.6,14.6c-0.5,2-1.6,3.8-2.7,5.6
		c-1.3,2.2-3.2,3.7-5,5.1c-0.1,0.8,0.4,0.9,0.9,1c3.9,0.9,7.3,2.9,10.9,4.3c1.9,0.7,3.5,2.2,5.4,3.3c6.3,0.4,12.8,0.8,19.3,2.4
		c-5.2,0.5-10.2,0.6-15.3,0.3c0.2,1.5,1.2,1.9,1.9,2.6c3.9,3.5,7.9,7,11.5,10.9c4.9,5.2,10.1,10,16,14c3.8,2.6,7.8,4.7,12.2,5.9
		c2,0.6,4.1,0.7,6.5,0.4c-2.3-3.6-5.4-6-8.4-8.6c0.3-0.5,0.7-0.5,1-0.3c2.3,1.6,4.6,3.2,6.9,4.8c1.8,1.3,3.5,2.7,4.9,4.3
		c1.4,0.3,2.5-0.3,3.6-0.9c3.5-1.8,4.5-4.9,2.4-8.3c-1.3-2.2-3.1-4.1-5-5.9c-1.2-1.1-2.5-2-3.7-3.1c-1.4-1.3-3.1-2.4-4-4.2
		c-0.4-0.7-1.2-1.2-1.9-1.7c-1.9-1.4-3.9-2.6-5.7-4c-2.2-1.6-4.3-3.2-5.6-5.8c-0.4-0.8-1.3-1.5-1.9-2.2c-1.5-1.6-3.2-3-4.5-5.1
		c-2.1-0.3-3.4-2.1-5-3.1c-0.3-2.4-0.2-4.8,0-7.1c0.3-3.1,0.6-6.1,1-9.1c0.3-2,0.8-4.1,2.2-6c1.8,0.1,3.7,0.1,5.7,0.3
		c2.4,0.2,4.9,0.6,7.3,1c1.5,0.2,2.9,0,4.3-0.6c2.7-1,3.8-3.6,2.9-6.3c-0.3-0.8-0.7-1.5-1-2.1c0-1.8,1.7-2.2,2.1-3.6
		c-0.1-1.3-1-1.8-2.1-2.5c-2,0.2-4.3,1.1-6.1-0.7c-0.1-0.1,0-0.4,0-0.7c0.6-0.6,1.3-0.4,2.1-0.4c1.1,0,2.2,0.1,3.3,0.1
		c1.4-0.1,1.7-0.3,3.5-2.1c-0.9-1.6-1.8-3.3-1.4-5.4c-0.9,0-1.6,0-2.3,0c-0.1,0-0.2-0.2-0.4-0.3c0.3-1.5,1.6-1.9,2.4-2.2
		c1.2-0.2,1.6,0.4,2.1,0.7c1,0,1.8-0.5,2.6-1.1c0.1-0.4,0.1-0.8,0.1-1.1c0-0.9-0.7-1.5-1.2-2.2c-2.1-2.9-3.6-6.1-4.6-9.6
		c-0.3-1.2-0.5-2.4-0.4-3.6c0.1-1.4,0.5-2.6,1.9-3.3c0.9-0.4,1.5-1.3,1.8-2.4c-0.1-0.3-0.1-0.9-0.4-1.3c-1.6-3.2-2.4-6.7-3.4-10.1
		c-0.6-2.1-1.2-4.3-2.3-6.3c-0.8-0.4-1.6-0.9-2.3-1.2c-1-0.2-1.1,0.7-1.6,0.9c-0.7,0-1.1-0.5-1.6-0.8L358,172.2z M470.4,427.6
		c0-0.1,0-0.2,0-0.2c-0.1-0.1-0.2-0.1-0.3-0.1c-0.6-1.3-2-1.7-3-2.5c-1.5-1.2-3.1-2.3-4.8-3.3c-0.4-0.3-1-0.4-1.5-0.5
		c0-1.1,1.1-0.8,1.5-1.2c1-0.1,1.6,1.1,2.7,0.8c0.1,0.1,0.1,0.3,0.2,0.4c0-0.1,0-0.1,0-0.2c-0.1-0.1-0.2-0.1-0.3-0.2
		c-0.5-1.7-2.2-2.6-2.5-4.4c-0.8,0-1.4,0-2.1,0c-0.7,0.4-0.2,1.3-0.7,1.9c-0.2-0.1-0.5,0-0.6-0.2c-1.1-0.7-1.5-1.9-1.9-3
		c-1.1-0.8-2.2-1.1-3.5-0.8c-1.5,0.3-2.9,0.1-4.4,0.2c-2.7,0.1-5.4,0.2-8.1,0.4c-4.6,0.3-9.1-0.5-13.5-1.5c-1.8-0.4-3.5-1-5-2.2
		c-0.7-0.5-1.5-0.8-2.3-1.2c-2.2-1.1-4.4-2.1-6.6-3.3c-3.3-1.8-6.7-3.5-9.6-6c-4.1-3.4-8.5-6.3-12.8-9.3c-5-3.5-9.8-7.3-14.5-11.3
		c-3.6-3.1-7.4-6.1-11.7-8.2c-0.3-0.2-0.7-0.3-1-0.5c-1.7-2.1-4.2-2.9-6.4-4.2c-0.6-0.4-1.4-0.8-1.6-1.4c-0.5-1.6-1.8-2.6-2.8-3.8
		c-0.8-1.1-1.7-2.1-2-3.5c-0.3-1.6-1.1-3-2-4.3c-5.3-8.7-9.9-17.8-14.3-27c-0.6-1.2-1.2-2.4-0.4-3.8c-2.6-4.2-4.5-8.6-6.1-13.1
		c-0.5-1.4-1-2.7-0.9-4.3c0-1.1-0.3-2.2-0.5-3.3c-0.3-2.1-0.5-4.1,0-6.2c0.2-0.8,0.4-0.9,1.8-1.3c0.5,0.5,0.6,1,0.5,1.7
		c-0.1,2.6-0.2,5.1-0.2,7.7c0,3.7,0.3,4.5,2.5,8.3c0.8,0,1.3-0.6,1.8-1.1c1.7-1.9,3.2-4,4.1-6.5c1.2-3.3,0.7-6.2-1.6-8.9
		c-4.2-5-8.7-9.7-13.5-14c-0.6-0.6-1.4-1.1-1.8-1.9c-1-1.9-2.7-3.2-4.3-4.5c-3.5-2.9-7.2-5.6-11.3-7.6c-3-1.5-6.1-2.4-9.4-3.1
		c-4.2,3.1-8.6,5.8-12.3,9.6c-0.3,1.8-1,3.4-1.9,5.1c-1.5,2.9-2.3,5.9-2.7,9.1c-0.6,4.4-0.5,8.8-0.1,13.2c0.7,7.4,3.4,14.3,5.5,21.3
		c0.8,2.6,2.3,4.9,3.3,7c1.3,0.7,2.2,0.4,3.1,0.3c0.1-0.4,0.2-0.6,0.1-0.8c-0.4-1.3-1.5-2.3-1.3-3.6c0.2-0.7,0.6-0.9,1.1-0.9
		c0.2,0.1,0.5,0.2,0.6,0.3c2.4,4.6,5.8,8.5,9.1,12.5c5.3,6.3,10.4,12.7,15.4,19.2c2.6,3.4,5.5,6.6,8.5,9.7
		c5.7,6.1,10.8,12.7,16.1,19.2c0.7,0.8,1.2,1.7,2.4,2.2c0.9,0.3,1.5,1.3,2.2,1.9c0.8,0.7,1.5,1.7,2.7,1.7l-0.1-0.1
		c0.1,0.7,0.7,1,1.1,1.3c7.8,5.4,15.8,10.4,24.2,14.7c6.2,3.2,12.7,5.8,19.3,8.1c3,1.1,6,2.1,9.1,3c1,0.3,2.1,0.6,3.2,0.9
		c0.8,0.2,1.7,0.4,2.4,0.8c3.8,2.4,7.9,4,11.8,5.9c2,1,3.9,2,5.8,3.2c3,2,6.4,3,9.9,3.9c3.2,0.8,6.5,1.4,9.7,2.1
		c3.4,0.7,6.9,0.4,10.3,0c4.3-0.5,8.6-0.6,12.8-0.7c1.5,0,3-0.1,4.2-0.9c0.9-0.5,1.9-0.4,3.5-0.8c-4.1-0.7-7.5-2-11.1-2.3
		c-1.7-0.1-3.4-0.2-5.1-0.4c-1.2-0.1-2.4-0.3-3.3-0.9c0-0.7,0.3-0.9,0.7-0.8c2.9,0.2,5.9,0.3,8.8,0.5c1.3,0.1,2.7,0.4,4,0.6
		c1.3,0.2,2.7,0.4,4,0.7c1,0.5,1.7,1.5,3.2,1.2c-0.9-1.3-2.1-1-3.2-1.1c-1-1.6-2.7-1.9-4.2-2.4c-2.1-0.7-4.2-1.2-6.3-1.9
		c-0.6-0.2-1.1-0.5-1-1.2c0.6-0.5,1.2-0.3,1.8-0.1c2.4,0.6,4.6,1.7,7.1,1.8C470.1,427.5,470.1,427.6,470.4,427.6z M360.1,403.9
		c-2.6-1.1-5-2.6-7.2-4.3c-2.9-2.3-5.7-4.6-8.5-7c-1.1-0.9-2.3-1.9-3.3-2.7c-1.2,0-1.3,0.8-1.7,1.4c-1,1.4-1.9,2.8-3.2,4
		c-0.6-0.9,0-1.5,0.3-2.1c0.4-0.8,0.9-1.5,1.3-2.2c0.4-0.6,0.7-1.3,1.2-2.1c-1.4-1.6-1.7-3.9-3.3-5.5s-2.9-3.3-4.3-5
		c-1.5-1.8-3-3.6-4.5-5.4c-3.8-4.5-7.8-8.8-12.2-12.7c-5.7-0.8-11.4-1.5-17.3-2.3c-0.3,1.1,0.1,2,0.2,3c0.8,5.2,1,10.5,1.5,15.7
		c0.7,7.3,0.6,14.7,0.1,22c-0.2,2.5-0.9,4.8-2,7c-2.1,4.2-5,7.9-7.8,11.6c-0.7,1-1.4,2-2.1,3c-0.7,1.1-1.1,2.4-0.8,3.5
		c0.5,2,0.7,4.1,2,5.8c1.3,1.8,2.8,3.4,4.6,4.8c4.6,3.4,9.7,5.5,15.3,6.9c5.6,1.4,11.4,1.6,17,2.6c2.9,0.5,5.9,0.5,8.7-0.4
		c0.7-0.2,1.4-0.3,2.2-0.4c1.1-0.2,2.2-0.3,3.3-0.5c5.2-0.8,14-5.7,17.5-9.6c1.4-1.6,2.7-3.2,3.8-4.9c1.8-2.7,3-5.6,3.1-8.9
		c0-0.5,0.1-1,0.3-1.4c1.4-3.2,1.1-6.7,1.7-10.2C364,406,362.1,404.8,360.1,403.9z M375.6,364.2c1.5-7.7,1.6-10,0.8-12.8
		c-3.4,1.8-7,2.6-10.8,3.3c-3,0.5-6.1,0.5-9.1,0.5c-1.7,0-1.7,0-3.4,0.9c0.4,1.9,1.6,3.2,2.8,4.6c1.4,1.5,2.8,3.1,4.2,4.6
		c0.6,0.6,1.2,1.2,2,1.6c3.5,1.8,6.9,3.7,10.2,6C374.4,370.2,375.1,367.2,375.6,364.2z M289.3,333.8c1.3,3.8,2.7,7.5,3.9,11.2
		c1.2,3.6,2.1,7.3,3.2,10.9c5.2,0.7,10.4,1.3,15.9,2c-1.3-2.3-2.5-4.3-4-6c-5.1-5.8-10-11.7-14.7-18.1
		C292,333.7,290.7,333.4,289.3,333.8z M357.2,265.5c-1.4-0.4-2.9-0.2-4.3-0.3c-0.2,0.9,0.4,1.2,0.8,1.6c4.3,4.3,8.9,8.1,13.5,11.9
		c3.3,2.8,6.7,5.3,9.7,8.5c0.6,0.6,1.3,1.1,1.9,1.7c0.7-0.7,0.1-1.2-0.1-1.6c-1.9-5-4.4-9.6-7.5-13.9c-1-1.4-2-2.8-2.8-4.7
		C364.5,267.6,360.9,266.4,357.2,265.5z M368.8,408.8c-1.2,1.6-0.9,3.4-1.1,5c-0.2,1.7-1,3.3-0.8,4.9c0.4,0.2,0.6,0.3,0.8,0.3
		c8.3-0.3,16.6,0,25,0c0,0,0.1-0.1,0.2-0.4C384.7,415.8,376.6,412.9,368.8,408.8z M297.4,210.2c-0.8-2.1-1.5-4.1-2.3-6.2
		c-0.1-0.3-0.4-0.7-0.4-1c0.3-3.2-1.2-6.2-0.9-9.4c0.2-1.7-0.3-3.4-0.8-5c-0.7,3.4-0.6,6.9-0.3,10.4c0.4,4,1.1,8,2.1,11.9
		c0.8,3.4,2.6,6.3,5,9.7C299,216.5,298.5,213.3,297.4,210.2z M307.8,232c-0.6-0.7-1-0.7-1.7-0.7c-2,1.7-2.7,4-2.1,6.5
		c1,4.2,1.4,8.4,1.5,12.7c0,0.2,0.2,0.4,0.7,1.3C307.6,244.8,308.6,238.4,307.8,232z M462.1,437.2c-1.5-0.6-3-0.3-4.3-0.1
		c-0.7,0.7-0.6,1.3-0.5,1.9c0.4,2.5,0.7,5.1,1.6,7.5c0.6,1.8,1.8,2.8,4,2.7C463.1,446.5,462.6,439.4,462.1,437.2z M447,438.4
		c-1.4,5.1-1.1,9.3,0.9,12.8c0.8,0.2,1.1-0.4,1.3-1c0.6-2.5,1.9-4.8,1.7-7.4c-0.1-1.3,0.8-2.6,0.5-4.4
		C449.9,438.4,448.4,438.4,447,438.4z M466.6,441.9c0.6,1.2,1.7,1.7,2.9,2c0.5,0.1,0.9-0.1,1.2-0.7c0.3-1.1-0.5-1.9-0.8-3
		c-0.3-0.9-0.5-1.9-0.7-2.9c-1.3-0.8-2.7-0.6-4.1-0.2C465.2,438.9,465.9,440.4,466.6,441.9z M438.2,441.4c0.9,0.1,1.3-0.3,1.5-0.9
		c0.2-0.7,0.4-1.4,0.5-2.1c0-0.3-0.1-0.7-0.2-1.2c-1.6-1.2-3.6-1.1-6.2-2.1C435.6,437.8,437,439.6,438.2,441.4z M339.2,182.9
		c0.4-0.3,0.5-0.8,0-1.3c-0.2,0-0.6-0.1-0.9,0c-2.3,0.4-3.9,2.2-6.2,2.9C334.8,184.9,337.1,184.3,339.2,182.9z M312.6,219.9
		c-0.1-0.3-0.2-0.7-0.4-1s-0.5-0.5-0.7-0.8c-1-0.2-1.9-0.3-2.9-0.6c-0.9-0.2-1.7-0.8-2.8-0.8C307.1,219,309.5,220,312.6,219.9z
		 M474,439.5c-0.9-2.5-0.9-2.5-2.4-3.2c-0.4,1.5-0.2,2.8,0.7,4.1C473.4,440.4,473.8,440.1,474,439.5z M314.3,203.1
		c-1.6,1-1.9,2.6-2.5,4.1c0.8,0.2,1.1-0.2,1.4-0.5c0.8-0.7,1.6-1.5,2.1-2.8C314.9,203.5,314.6,203.4,314.3,203.1z M302.1,213.7
		c0.6,1.6,0.9,2.7,2.5,2.4C304.3,214.9,303.4,214.5,302.1,213.7z M328.3,161.7v-0.1c-1,0-2,0-3.1,0l-0.1,0.1
		C326.2,161.7,327.2,161.7,328.3,161.7z M325.4,198.5c-1-0.1-1.4-0.3-2,0.1C324,198.6,324.4,198.6,325.4,198.5z M330.2,183.6
		c-0.6-0.4-1.1-0.3-1.6,0C329.1,184.1,329.7,184.3,330.2,183.6z M337.7,157.9c-0.4-0.3-0.9-0.4-1.3,0
		C336.8,158.3,337.3,158.2,337.7,157.9z M339.1,169h-0.3v0.1L339.1,169z M336.6,173.3v0.2l0.3-0.1L336.6,173.3z"/>
	<path d="M193.7,571.5c0.3-0.7,0.9-0.8,1.5-0.5c6.9,2.9,13.8,5.8,20.5,9.2c5,2.6,10,5.4,14.4,8.9c2.5,1.9,5.1,3.5,8,4.5
		c5.4,1.8,10.6,4,15.6,6.4c2.2,1.1,4.4,2.1,6.8,2.7c0.7,0.2,1.4,0.5,2,0.8c5.8,2.7,12,3.5,18.3,3.1c0.9,0,1.7-0.2,2.5,0
		c1.1,0.2,1.3,1.4,2.2,1.8c5.1,0.6,9.6,0.1,13.8-1.5c1.6-0.6,3.2-1.2,4.5-2.4c1.7-1.6,3.4-3.2,5.1-4.8c1.6-1.5,2.6-3.2,3.1-5.3
		c0.4-1.8,1-3.6,1.6-5.3c3.3-8.4,4.7-17.2,6.1-26.1c0.5-3.5,0.7-7.1,1.6-10.5c0.8-3,1.3-6,1.8-9c0.2-1,0.2-2,0.4-2.9
		c1.9-10.2,2.4-20.5,2.9-30.8c0-0.6,0.2-1.2-0.3-1.7c-0.2,0.1-0.5,0.1-0.7,0.2c-6,4.3-12.9,5.8-20.2,5.9c-5.3,0-10.5-1-15.6-2.4
		c-3.1-0.9-6.1-1.8-9.3-2.3c-1.5-0.2-3.1-0.6-4.2-1.9l-0.1,0.1c2.2,0,4.4,0.6,6.5,1.1c1.6,0.3,3.1,0.9,4.7,1c5.5,0.4,11,1,16.5,1
		c4.3,0,8.6-0.4,12.7-1.5c2-0.5,4-1.2,5.9-2.1c1.3-0.6,2.7-1.2,4.3-1.8c0.3-2.8,0.9-5.8,1.7-8.7c0.4-1.4,0.7-2.9,1.4-4.2
		c1.5-3.2,3.2-6.3,4.9-9.5c3.6-7,8.8-13,13.7-19c1.6-1.9,3.1-3.8,4.7-5.6c0.5-0.5,0.8-1.2,1.7-1.3c0.6,0.3,0.6,0.8,0.3,1.2
		c-0.5,0.8-1,1.7-1.6,2.5c-2.7,3.6-5.4,7.3-8.2,10.9c-1.8,2.4-3.4,5-5.2,7.7c3.3,1.4,6.5,1.6,9.6,1.8c8.5,0.5,16.9,0.3,25.4-0.3
		c1.7-0.1,3.4-0.1,5.1-0.2c7.8-0.5,15.6-1.1,23.5-1.6c2.4-0.2,4.8-1,7.3-0.6v-0.1c-0.3,0.5-0.7,0.6-1.2,0.7
		c-7.9,2.5-16,3.8-24.2,4.3c-7.8,0.5-15.7,0.7-23.6,0.8c-4.9,0.1-9.8-0.4-14.7-1.1c-2.8-0.4-5.5-1.1-8.3-1.9c-0.4,0.6-0.8,1-1.1,1.5
		c-1.8,2.8-3.2,5.7-4.6,8.8c-1.4,2.9-2.4,5.9-2.7,9.1c-0.3,2.8-0.7,5.6-1,8.4c-0.6,4.4-1.2,8.7-1.8,13.1c-0.6,4.8-1,9.5-1.5,14.3
		c-0.2,2-0.5,3.9-0.7,5.8c-0.5,5.6-1.3,11.2-2.7,16.7c-0.9,3.4-1.8,6.9-2,10.5c-0.1,2.1-0.6,4.1-1,6.2c-1,5.6-3,10.9-4.7,16.2
		c-0.3,0.9-0.8,1.9-0.8,2.8c0,3.5-1.8,6-4.1,8.3c-1.7,1.7-3.6,3.3-5.9,4.3c-1.4,0.6-2.5,1.6-3.5,2.3c-1.1,0.1-1.9,0.2-2.7,0.4
		c-3.1,0.8-6.3,1-9.5,0.8c-2-0.1-3.8-0.8-5.8-0.9c-2.4-0.2-4.9-0.1-7.4-0.1c-8.2-0.2-16-2.3-23.4-5.8c-2.2-1-4.5-2.1-6.7-2.9
		c-6.9-2.7-13.2-6.5-19.2-10.7c-4.3-3.1-8.7-5.9-13.6-8.1c-4.8-2.1-9.5-4.6-14-7.4c-1.6-1-3.1-1.9-4.8-2.6L193.7,571.5z"/>
	<path d="M193.8,571.7c-0.5,1.9-1.9,2.4-3.6,2.3c-1.5-0.1-2.9-0.5-4.2-1c-2.3-0.9-4.6-1.9-7-1.9c-2.5,0-4.9-0.4-7.2-1
		c-1.6-0.4-3-0.4-4.6-0.1c-3.1,0.5-6.3,0.5-9.4-0.4v0.1c-0.3-0.3-0.6-0.6-0.8-0.8l0.1,0.1c-0.1-0.5-0.1-1,0.5-1.4
		c0.7-0.4,1.6-0.1,2.4-0.1c2.2,0.1,4.5,0.4,6.6,0c2.5-0.4,4.9-0.2,7.3,0.3c1.6,0.3,3.1,0.6,4.7,0.3c1.1-0.2,2.2,0.1,3.2,0.6
		c2.1,0.9,4.3,1.8,6.5,2.6c0.7,0.3,1.4,0.6,2.4,0.2c-6.4-4.2-7-11.7-2-15.2c1.4-0.3,2.7,0.2,3.9,0.8c1.6,0.8,3.4,1,5,0.5
		c2.9-0.8,5.8-1.3,8.7-1.7c1.3-0.2,2.3-0.9,3.4-1.4c0.6-0.3,1.2-0.4,1.8,0.3c-0.1,0.9-0.3,1.8-1.1,2.5c-0.9,0.8-1.9,1.2-3,1.2
		c-3.1,0.1-6.1,0.4-9.1,1.4c-2,0.6-4.1,0.4-6.1-0.4c-0.6-0.3-1.3-0.8-2.2-0.3c-1.1,1.5-1.8,3.3-1.7,5.4c0.9,1.7,1.8,3.4,2.6,5
		c1.1,0.8,2.1,1.6,3.1,2.3L193.8,571.7z"/>
	<path d="M192.5,527.5c-0.7,0.3-1.3,0.6-2,0.8c-3.7,1.1-7.5,2.3-11.2,3.3c-1.3,0.4-2.5,0.9-3.6,1.7c-3.3,2.5-5.9,5.8-8.6,8.7
		c-0.5,1.2-0.1,2.4-1,3.4c-1.9-1-1.3-2.6-1.3-4.4c1-0.7,1.6-2,2.2-3.1c1.3-2.2,3-4,5.2-5c2.9-1.3,5.5-3.2,8.8-3.6
		c0.7-0.1,1.5-0.3,2-0.8c1.3-1.3,3-1.5,4.7-1.9c2.1-0.5,4.3-0.8,6.1-2.2c1-0.8,2.3-0.7,3.5-0.2c0.3,0.1,0.5,0.5,0.2,1.6
		C195.6,525.5,194.1,526.6,192.5,527.5z"/>
	<path d="M636.9,515.1c-0.4,0.2-0.9,0.4-1.4,0.5c-3.7,1.1-7.5,2.4-11.3,3.4c-1.7,0.4-3.1,1.2-4.5,2.2c-3.1,2.4-5.5,5.5-8.1,8.3
		c-0.5,1.1,0.2,2.6-1.3,3.4c-1.7-1.2-1-2.8-1-4.2c0.5-0.9,1.3-1.3,1.7-2.2c1.6-3.3,4.3-5.6,7.7-7.1c2.5-1.1,4.8-2.4,7.5-2.8
		c0.5-0.1,1-0.3,1.3-0.6c1.3-1.4,3-1.5,4.7-1.9c2.1-0.6,4.3-0.8,6.2-2.2c1-0.8,2.3-0.6,3.5-0.2c0.4,0.1,0.4,0.5,0.3,1.2
		C640.2,513,638.6,514.2,636.9,515.1z"/>
	<path d="M156.9,568.6c0.3,0.3,0.6,0.6,0.8,0.8v-0.1c-1.8,0.8-2.6,0.8-3.5-0.4c-1-1.2-1.8-2.7-2.1-4.3c-0.8-3.7-0.9-7.3,0.8-10.8
		c0.5-1,0.8-2.1,1.1-3.1c0.9-3,3.3-4.5,5.7-5.9c1.1-0.6,2.4-0.7,3.6-0.3c0.3,0.1,0.4,0.5,0.7,0.9c-1,0.2-1.8,0.5-2.5,0.6
		c-0.9,1-1.6,2-2.6,2.7c-1.2,1-2,2.1-2.4,3.6c-0.3,0.9-0.5,1.9-1.3,2.6c-1.3,1-1.3,2.4-1.3,3.9C153.8,562.7,155,565.8,156.9,568.6z"
		/>
	<path d="M215.2,558.3c-1.4-0.2-2.5-0.8-3.4-1.8c0.1-1.5,0.6-2.8,0.2-4.2c-2.4-3-4.9-6-7.8-8.6c-1-0.9-1.9-2-2.3-3.3
		c-0.8-2.2-1.9-4.2-3.4-6c-1.7-2.2-2.5-4.7-1.7-7.5c0.2,0,0.4-0.1,0.5,0c0.3,0.2,0.7,0.4,0.7,0.7c0.6,2.7,1.8,5,3.4,7.2
		c0.9,1.2,1.5,2.5,1.9,3.9c0.4,1.7,1.2,3.1,2.5,4.4c1.7,1.7,3.3,3.5,5.3,5c3.4,2.6,3.6,3.9,2.3,7.9c-0.1,0.2-0.1,0.4-0.1,0.7
		C213.8,557.4,215.1,557.4,215.2,558.3z"/>
	<path d="M657.8,544.8c-0.5,0-1,0-1.3-0.5c-0.7-1.4,0.5-2.6,0.2-4.1c-2.2-3-4.8-5.9-7.6-8.6c-1.4-1.3-2.4-2.7-3-4.5
		c-0.5-1.5-1.2-2.9-2.3-4.1c-1.9-2.2-2.7-4.9-2.6-7.8c0-0.5,0.3-0.9,0.9-0.9c0.2,0.2,0.6,0.5,0.6,0.8c0.4,2.6,1.5,4.9,3.1,6.9
		c1.1,1.4,1.8,2.9,2.2,4.6c0.3,1.2,0.7,2.4,1.6,3.2c2,1.8,3.3,4.2,5.8,5.5c0.7,0.4,1.2,1.2,1.8,1.8c1.4,1.3,1.7,2.9,1.3,4.7
		C658.4,542.8,658.1,543.8,657.8,544.8z"/>
	<path d="M251.7,595c3.3-0.5,6.6-0.4,9.8-1.1c0.5-0.1,0.9,0.3,1,0.9c-0.2,0.8-0.9,1.1-1.6,1.2c-3.1,0.7-6.3,1-9.5-0.4
		C251.6,595.2,251.7,595,251.7,595z"/>
	<path d="M705.7,583.5c-2.9,0.7-5.8,0.7-8.6,0.1c-0.4-0.1-1.2-0.2-1-1.1c1.8-0.1,3.6-0.1,5.5-0.2c1.8-0.1,3.7-1.3,5.6-0.3
		C707.1,583,706.3,583.3,705.7,583.5z"/>
	<path d="M647.8,538.5c-2.7-2.6-5.1-5.5-6.6-9c0-0.1,0.1-0.2,0.2-0.4c2.6,3.2,5.1,6.5,8.1,9.3C648.8,539.1,648.3,539,647.8,538.5z"
		/>
	<path d="M197.4,542.9c0.2,0.1,0.5,0.1,0.7,0.2c2.2,2.5,4.4,4.9,6.5,7.4c0.3,0.3,0,0.7-0.3,0.9c-2.7-1.6-5.7-5.3-6.9-8.2
		C197.4,543.1,197.5,543,197.4,542.9z"/>
	<path d="M275.5,570.9c0.5,0.2,0.9,0.7,0.7,1.1c-0.9,1.6-0.6,3.3-0.8,5c-0.1,0.5-0.2,0.9-1,0.9c-0.5-1.7-1.2-3.4-0.6-5.2
		C274.5,572.1,275,571.5,275.5,570.9z"/>
	<path d="M985.8,493.7c-0.1-0.7-0.1-1.5-0.1-2.2c0-0.5,0.3-0.9,1.3-0.8c0.3,2.5,1.5,5.1-0.2,8.4
		C986.4,496.8,986.1,495.3,985.8,493.7z"/>
	<path d="M307.2,593c-0.4,2.2-1.2,4.1-2.8,5.5c-0.5,0.4-1.1,0.6-1.6-0.1C304.4,595.7,305.3,594.4,307.2,593z"/>
	<path d="M820.7,492.5c2.6-3.5,4-4.9,6.3-5.9c-1.8,2.3-3.3,4-5.1,5.4C821.6,492.3,821.1,492.5,820.7,492.5z"/>
	<path d="M640.9,549.7c0.4,0.4,0.8,0.8,1.4,1.4c-1.8,0.1-3-0.3-4-1.2c-0.1-0.6,0.1-0.9,0.5-1.2C639.8,548.9,640.3,549.3,640.9,549.7
		z"/>
	<path d="M270.1,576.9c0.3,0.3,0.2,0.6-0.4,1c-1.3-0.6-2.4-1.6-3.3-2.9C268,575.1,269.2,575.8,270.1,576.9z"/>
	<path d="M870.7,516.1c-0.8,2.9-1.1,3.3-3,4.9C868.1,518.7,869.1,517.2,870.7,516.1z"/>
	<path d="M194.6,534.7c-1.9-2.7-1.9-2.7-2-4.6c0.2,0.1,0.5,0.1,0.6,0.2c0.2,0.3,0.5,0.6,0.6,0.9C194,532.4,194.3,533.6,194.6,534.7z
		"/>
	<path d="M193.6,561.7c2-0.8,2.7,0.5,3.9,1.6C195.6,563.7,194.4,563.5,193.6,561.7z"/>
	<path d="M638.6,521.3c1.5,1.7,2.1,3.7,1.9,5.9C640.2,525.1,638.6,523.5,638.6,521.3z"/>
	<path d="M961.3,572.2c0.6-1.4,0.7-2.7,2-3.6C962.9,571.5,962.9,571.5,961.3,572.2z"/>
	<path d="M965.8,561.4c-0.1,1.7-0.3,2.8-1.2,3.8C964.2,563.7,964.3,562.6,965.8,561.4z"/>
	<path d="M638.7,521.2c-1-0.7-1.5-1.8-1.9-2.9c0-0.1,0.2-0.4,0.3-0.6C638.8,518.4,638.6,519.9,638.7,521.2z"/>
	<path d="M1011,484.7c-0.6-1.3-0.5-2.3,0.1-3.4C1011.6,482.4,1011.8,483.4,1011,484.7z"/>
	<path d="M1008.8,477.5c-0.3-0.7-0.3-1.4,0.1-2C1010,477,1010,477,1008.8,477.5z"/>
	<path d="M886.2,499.1c-0.2,1.4-1,2.3-2.2,2.9l0.1,0.1C884.2,500.7,884.9,499.7,886.2,499.1z"/>
	<path d="M888.4,496.2c-0.2,1.4-0.8,2.5-2.2,3l0.1,0.1C886.6,497.8,887.2,496.8,888.4,496.2z"/>
	<path d="M245.3,592.3c0.8,0,1.9-0.4,1.9,1.1C246.3,593.5,245.6,593.2,245.3,592.3z"/>
	<path d="M692.1,580.6c-1.1,0.7-1.7,0.1-2.4-0.8C690.8,579.4,691.5,580,692.1,580.6z"/>
	<path d="M985.3,508.9c-0.4-0.9-0.5-1.6,0.3-3.2C985.7,507.2,985.9,508.1,985.3,508.9z"/>
	<path d="M711.3,565.2c0.5-0.6,0.9-0.6,1.5-0.2C712.4,565.8,712,566.2,711.3,565.2z"/>
	<path d="M967.4,555.9c0,0.3,0.1,0.9-0.5,0.9c-0.3-0.6-0.3-1.1,0.1-1.6C967.3,555.3,967.4,555.6,967.4,555.9z"/>
	<path d="M646.9,553.2c-0.6,0.3-0.8-0.2-1.1-0.6C646.5,552.2,646.8,552.6,646.9,553.2z"/>
	<path d="M967.7,549.1c0.4,0.7,0.3,1.2,0,1.7C967.1,550.2,967.2,549.7,967.7,549.1z"/>
	<path d="M195.2,536.3c0.9,0.6,0.8,1.4,0.4,2.4C195.2,537.9,195.2,537.1,195.2,536.3z"/>
	<path d="M882.5,503.5c0.1,0.8-0.2,1.3-1.4,1.7C881.6,504.4,881.9,503.8,882.5,503.5z"/>
	<path d="M895.1,500.7c0-1-0.1-2.1,0.8-2.9l-0.1-0.1C895.6,498.7,896.1,499.8,895.1,500.7z"/>
	<path d="M896.5,494.7c-0.1,1,0.3,2.2-0.7,3l0.1,0.1C895.9,496.7,895.7,495.6,896.5,494.7z"/>
	<path d="M888.5,496.2c0.1-1,0.6-1.7,1.5-2.2l-0.1-0.1C890,495.1,889.5,495.8,888.5,496.2z"/>
	<path d="M889.1,491.7c0.1,0.8-0.2,1.3-1.5,1.7C888.3,492.6,888.4,491.9,889.1,491.7C889.2,491.8,889.1,491.7,889.1,491.7z"/>
	<path d="M889.9,494c0.1-1,0.5-1.8,1.5-2.1l-0.1-0.1C891.2,492.7,890.9,493.6,889.9,494z"/>
	<path d="M241.2,590.7c-0.2,0-0.4-0.1-0.6-0.2c0.2-0.1,0.4-0.2,0.6-0.3c0.2,0,0.4,0.1,0.6,0.2C241.6,590.5,241.4,590.7,241.2,590.7z
		"/>
	<polygon points="821,248.8 821,248.6 821.1,248.6 	"/>
	<path d="M891.3,490.3c0.3,0,0.6,0,0.8,0l-0.1-0.1c0,0.6,0,1.2-0.7,1.5l0.1,0.1C891.5,491.3,891.4,490.8,891.3,490.3z"/>
	<path d="M892.9,489.6c0-0.5,0-1.1,0-1.6l-0.1,0.1c0.3,0,0.6,0,0.9,0l-0.1-0.1C893.4,488.6,893.4,489.2,892.9,489.6z"/>
	<path d="M307.3,589.4c0-0.3,0.1-0.6,0.1-1C307.9,588.9,307.8,589.2,307.3,589.4z"/>
	<path d="M201.4,565.4c0-0.1,0.1-0.2,0.1-0.2c0.2-0.2,0.7,0,0.7,0.2c0,0.1-0.2,0.1-0.2,0.2C201.8,565.5,201.6,565.5,201.4,565.4z"/>
	<path d="M676.8,555.6c0,0-0.1-0.1-0.1-0.2c0.1,0,0.2-0.1,0.3-0.1l0.1,0.1C677,555.6,676.9,555.6,676.8,555.6z"/>
	<path d="M650.7,553.8c0.1,0,0.2,0.1,0.3,0.2c-0.3,0.4-0.6,0.3-0.9,0C650.3,554,650.4,553.9,650.7,553.8z"/>
	<path d="M206.5,566.6c0.1,0,0.2,0.1,0.3,0.2c-0.3,0.4-0.6,0.3-0.8,0C206.1,566.7,206.3,566.6,206.5,566.6z"/>
	<path d="M657.8,544.9c0.7-0.1,1.2,0,1.5,0.7l0.1-0.1C658.7,545.6,658.1,545.6,657.8,544.9z"/>
	<path d="M196.7,541.5c0.6,0.3,0.9,0.8,0.7,1.4l0.1-0.1C196.7,542.7,196.8,542,196.7,541.5z"/>
	<path d="M196.7,541.4c-0.1-0.2-0.6-0.4-0.4-0.8C196.5,541,196.6,541.2,196.7,541.4z"/>
	<path d="M195.3,536.3c-0.8-0.3-0.8-0.9-0.7-1.5l-0.1,0.1C195.2,535.1,195.3,535.7,195.3,536.3z"/>
	<path d="M795.5,528c0.5,0.2,1,0.4,1.5,0.6l0.1-0.1C796.6,528.3,796.1,528.1,795.5,528z"/>
	<polygon points="679.4,576.1 679.1,576.2 679.1,576 	"/>
	<polygon points="980.9,522.7 981.1,522.6 981,523 	"/>
	<polygon points="686.4,578.4 686.3,578.2 686.7,578.3 	"/>
	<path d="M870.8,516.2c0.1-0.3,0.1-0.5,0.2-0.9C871.3,515.8,871,515.9,870.8,516.2z"/>
	<polygon points="983.9,515.4 983.8,515.5 983.8,515.1 	"/>
	<path d="M1003.1,448.6c0.1,0.1,0.1,0.2,0,0.3c-0.1,0.3-0.3,0.2-0.4-0.1c0-0.1,0.1-0.2,0.1-0.3
		C1003,448.6,1003.1,448.6,1003.1,448.6z"/>
	<path d="M795.6,527.9c0-0.1-0.1-0.1-0.1-0.2C795.5,527.8,795.5,527.9,795.6,527.9z"/>
	<path d="M797.1,528.6c0.2,0.3,0.5,0.5,0.7,0.8l0.1-0.1C797.6,529,797.4,528.7,797.1,528.6z"/>
	<path d="M799.3,530.8c-0.2-0.3-0.5-0.5-0.7-0.8l-0.1,0.1C798.8,530.4,799,530.6,799.3,530.8z"/>
	<path d="M797.8,529.3c0.3,0.3,0.5,0.5,0.8,0.8l0.1-0.1C798.4,529.8,798.1,529.5,797.8,529.3z"/>
	<path d="M245.4,592.2c-0.1,0-0.2,0-0.3-0.1c0,0-0.1-0.1-0.1-0.2C245.1,592.1,245.2,592.2,245.4,592.2z"/>
	<path d="M307.2,589.3c0,0.1,0,0.2-0.1,0.3l-0.2,0.1C306.8,589.4,307,589.3,307.2,589.3z"/>
	<path d="M892.2,490.3c0-0.3,0-0.6,0-0.8l-0.1,0.1c0.3,0,0.6,0,0.8,0l-0.1-0.1c-0.1,0.4-0.3,0.7-0.8,0.7L892.2,490.3z"/>
	<path d="M981.3,479.3c-0.1,0.1-0.1,0.2-0.2,0.3c0,0-0.1,0-0.2,0C980.9,479.3,981.1,479.2,981.3,479.3z"/>
	<path d="M981.4,479.3c0-0.1-0.1-0.2,0-0.3c0-0.1,0.1-0.1,0.2-0.2C981.4,479,981.4,479.1,981.4,479.3z"/>
	<path d="M798.5,518.2"/>
	<path d="M798.5,518.3c0.2-0.2,0.5-0.5,0.7-0.7l-0.1-0.1C799.2,518,798.9,518.2,798.5,518.3z"/>
	<path d="M799.3,517.6c0.2-0.3,0.5-0.5,0.7-0.8h-0.1C799.9,517.2,799.6,517.4,799.3,517.6z"/>
	<polygon points="800,516.8 800.1,516.7 799.9,516.8 	"/>
	<polygon points="802.1,514.5 802.1,514.8 802.2,514.6 	"/>
	<path d="M802.2,514.6c0.1-0.4,0.3-0.7,0.8-0.7l-0.1-0.1C802.9,514.3,802.6,514.5,802.2,514.6z"/>
	<path d="M803,513.9c0-0.5,0.2-0.8,0.7-0.7l-0.1-0.1C803.7,513.6,803.4,513.8,803,513.9z"/>
	<path d="M803.8,513.2c0-0.5,0.2-0.7,0.7-0.8l-0.1-0.1C804.4,512.9,804.2,513.1,803.8,513.2z"/>
	<path d="M804.5,512.4c0.1-0.4,0.3-0.7,0.7-0.8l-0.1-0.1C805.1,512.1,804.9,512.3,804.5,512.4z"/>
	<path d="M805.2,511.7c0.1,0,0.1-0.1,0.2-0.1C805.3,511.5,805.2,511.6,805.2,511.7z"/>
	<path d="M889.9,491c0,0.5-0.2,0.8-0.8,0.7l0.1,0.1C889.2,491.3,889.4,491,889.9,491z"/>
	<path d="M820.6,492.4c0,0.1,0,0.2-0.1,0.3c0,0.1-0.2,0.1-0.2,0.1C820.2,492.6,820.4,492.5,820.6,492.4z"/>
	<path d="M896.6,494.8c0-0.1,0.1-0.1,0.2-0.2C896.6,494.6,896.5,494.6,896.6,494.8z"/>
	<path d="M813.3,500.6c0-0.1,0-0.2,0.1-0.3c0,0,0.1,0,0.2-0.1C813.5,500.4,813.4,500.5,813.3,500.6z"/>
	<path d="M813.3,500.6c0,0.5-0.2,0.7-0.7,0.7l0.1,0.1C812.6,500.9,812.8,500.6,813.3,500.6z"/>
	<path d="M811.9,502.1c0-0.4,0.3-0.7,0.7-0.7l-0.1-0.1C812.5,501.7,812.3,502,811.9,502.1z"/>
	<path d="M884,502c0,0.5-0.2,0.8-0.7,0.7l0.1,0.1C883.3,502.3,883.5,502,884,502z"/>
	<path d="M811.8,502c-0.1,0.1-0.1,0.1-0.2,0.2C811.7,502.2,811.8,502.1,811.8,502z"/>
	<path d="M883.3,502.8c0,0.5-0.2,0.8-0.8,0.7l0.1,0.1C882.6,503.1,882.8,502.8,883.3,502.8z"/>
	<path d="M844.7,322.7c1.1,0.3,2.2,0.4,3.1,1.2c0.5,0.4,0.8,0.9,0.5,1.6c-0.2,0.1-0.4,0.4-0.6,0.4c-3.3-0.7-6.6-1.5-9.8-2.6
		c-0.1-0.1-0.2-0.4-0.4-0.9C839.9,321.9,842.3,322.1,844.7,322.7z"/>
	<path d="M907.8,428.4c-3.5,0.2-5.7-1.1-7.7-3c-0.3-0.3,0-0.7,0.6-1.1C902.9,425.6,905.3,426.5,907.8,428.4z"/>
	<path d="M833,320.4c1.2-0.5,1.8,0,2.4,1.3C834.1,322.1,834.1,322.1,833,320.4z"/>
	<path d="M905.4,432.5c-0.8,0.5-1.6,0.4-2.6-0.1C904,431.5,904.7,431.9,905.4,432.5z"/>
	<path d="M926.9,434c-1,0.2-1.7-0.3-2.4-0.9C926.2,433,926.2,433,926.9,434z"/>
	<path d="M992,435.8c-0.3-0.2-0.5-0.5-0.3-0.9c0.1-0.2,0.4-0.4,0.5-0.3c0.3,0.2,0.6,0.4,0.8,0.6c0.2,0.3,0,0.7-0.3,0.9
		C992.5,436,992.2,436,992,435.8z"/>
	<path d="M911.8,429c-0.2,0-0.3-0.1-0.5-0.2c0.3-0.2,0.5-0.3,0.8,0.1C912,428.9,911.9,429,911.8,429z"/>
	<path d="M919.8,431c0.1,0.1-0.1,0.4-0.1,0.6c-0.3-0.2-0.5-0.3-0.8-0.5C919.2,430.7,919.5,430.7,919.8,431z"/>
	<path d="M829.6,319.4c0.3,0.1,0.3,0.3,0.1,0.5c-0.3,0.2-0.6,0.2-1.1-0.1C828.9,319.2,829.3,319.2,829.6,319.4z"/>
	<path d="M896.5,453.9c1,1.3,0.8,2.5,0.5,3.6c-0.4,1.5-1.6,2.3-3,2.7C894.3,458,895,455.9,896.5,453.9z"/>
	<path d="M856.4,419.1c-3.1-1.7-3.4-2.2-3.1-3.9C855.3,416.3,855.7,416.7,856.4,419.1z"/>
	<path d="M872.6,443.3c0.7-2.8,0.7-2.8,2.5-4.3C875.4,441.1,874,441.9,872.6,443.3z"/>
	<path d="M894.8,469.3c0.2,1.7,0.2,1.7-0.8,3.5C893.9,471,893.9,471,894.8,469.3z"/>
	<path d="M870.5,451c0,0.4-0.1,0.7-0.6,0.6c-0.1-0.2-0.3-0.4-0.3-0.6c0-0.4,0.3-0.6,0.7-0.6C870.4,450.5,870.5,450.8,870.5,451z"/>
	<path d="M854.8,430.9c0.1,0.2-0.3,0.4-0.5,0.2c-0.3-0.2-0.5-0.6-0.1-1C854.4,430.3,854.7,430.6,854.8,430.9z"/>
	<path d="M859.8,422.4c-0.5,0.1-0.8-0.1-0.8-0.7l-0.1,0.1C859.4,421.8,859.6,422.1,859.8,422.4z"/>
	<path d="M859.7,422.4c0,0.1,0.1,0.1,0.1,0.2C859.8,422.6,859.8,422.5,859.7,422.4z"/>
	<path d="M859,421.7c-0.3,0-0.7,0.1-0.4-0.5C858.8,421.4,858.9,421.6,859,421.7z"/>
	<path d="M873.4,283.7c-3.4-0.3-6.3-1.9-9.4-3c-0.9-0.3-1.8-0.7-2.4-1.6c-1.1-1.8-1.7-3.8-1.9-5.9c0-0.7,0.3-1.1,1.3-1.1
		c1.1,1.5,0.8,3.7,2,5.4c1.6,1.4,3.4,2.2,5.4,2.9c2.2,0.7,4.4,1.5,6.4,2.7c0.7,0.4,1.7,0.3,2.1,1.6
		C875.7,284.2,874.6,283.8,873.4,283.7z"/>
	<path d="M893.1,245.5c1.6-0.8,3.2-0.8,4.8-0.3c0,1.4-1.4,1.4-1.7,2.4c-0.1,0.5-0.1,1-0.3,1.4c-0.4,0.8,0.6,1.6-0.1,2.4
		c-0.8,0.4-1.6,0.1-2.5-0.1c-1-0.3-1.5-1-1.8-1.9c-1.1-0.3-2.7,0.7-3.5-1.1C889.7,247.3,891.4,246.4,893.1,245.5z"/>
	<path d="M888.2,240.6c1.8-0.9,3.7-1.2,5.7-0.9c2.3,0.3,4.5,1,6.4,2.5c0.2,0.2,0.2,0.6,0.3,1.2c-3.3,0.6-5.8-1.8-8.7-2
		c-2.1,0.2-3.7,1.8-6,1.9C886.8,241.4,887.1,241.2,888.2,240.6z"/>
	<path d="M884.1,324.5c-1.1-0.3-1.9-1-2.6-1.8c-0.8-0.9-1.8-1.6-2.8-2.3c-0.1-0.1,0-0.4,0-0.8c0.4-0.1,0.9-0.2,1.4-0.2
		c0.5,0,0.9,0.1,1.5,0.1C882.6,321.1,884.2,322.3,884.1,324.5z"/>
	<path d="M870,289.1c-1.7-1.4-3.1-3.1-4.3-4.8c-0.3-0.4-0.3-0.9,0.4-1.3c1.3,1.1,2.4,2.6,3.3,4.1C869.8,287.8,870,288.4,870,289.1z"
		/>
	<path d="M881.1,311.9c1.1,0.9,1.6,2,1.4,3.4c0,0.2-0.2,0.3-0.4,0.7c-0.5-1.1-1.4-1.7-1.4-2.9C880.9,312.7,881.1,312.2,881.1,311.9
		L881.1,311.9z"/>
	<path d="M885.5,318.3c0.4-0.1,0.7,0.2,0.7,0.6c-0.5,0.8-1.1,1.2-2.4,1C883.8,318.6,884.7,318.4,885.5,318.3z"/>
	<path d="M873.8,296.8c0.8,0.3,0.8,1.1,1,1.9C873.5,297.6,873.5,297.6,873.8,296.8z"/>
	<path d="M877.2,303.3c0,0.1-0.1,0.1-0.2,0.2c-0.1-0.2-0.2-0.4-0.2-0.6c0-0.1,0.1-0.2,0.2-0.2C877.1,303,877.2,303.2,877.2,303.3z"
		/>
	<path d="M884,324.5c0.3,0.1,0.8,0,0.3,0.5C884.2,324.9,884.1,324.7,884,324.5z"/>
	<polygon points="870.8,290 870.9,290 870.8,289.9 	"/>
	<path d="M869.9,289.2c0.3,0.3,0.6,0.5,0.8,0.8l0.1-0.1C870.6,289.6,870.3,289.4,869.9,289.2z"/>
	<path d="M978,592.1c0.1,0,0.3,0,0.3,0.1c0.2,0.2,0.1,0.3-0.2,0.3c-0.1,0-0.2-0.1-0.3-0.1C977.9,592.3,978,592.2,978,592.1z"/>
	<path d="M900.6,390.3c3.6-2,6.5-4.7,8.3-8.5c0.3-0.5,0.6-1.1,1-1.5c0.2-0.2,0.6-0.2,1.2-0.4c0.2,2.4-1,4.1-2.1,5.8
		c-2.2,3.3-5.1,5.8-8.7,7.1c-0.8-0.3-1.1-0.6-1.3-1.5C899.6,390.9,900.1,390.5,900.6,390.3z"/>
	<path d="M920.2,390.8c-0.4,0.5-1,0.7-1.6,0.8C918.9,390.8,919.6,390.9,920.2,390.8z"/>
	<path d="M924.6,387.1c0,0.6-0.3,0.8-0.8,0.9C923.7,387.3,924.1,387.1,924.6,387.1z"/>
	<path d="M929.7,391.5c-0.6,0.1-1.2-0.3-1-1.2c0.6-0.2,1.3-0.5,2-0.6s1.2-0.9,2.1-0.5C932.6,391,931.2,391.4,929.7,391.5z"/>
	<polygon points="935.3,385.3 935.1,385.4 935.2,385.1 	"/>
	<path d="M845,222.9c1.4-0.1,2.8,0.2,3.9,1.3C847.6,223.7,846.1,223.8,845,222.9z"/>
	<path d="M845.1,222.8c-1.2-0.3-1.3-0.3-0.6-0.3C844.6,222.5,844.8,222.7,845.1,222.8z"/>
	<path d="M843.6,225.1c-0.7,0-1.4,0-1.6-0.8C842.6,224.3,843.2,224.4,843.6,225.1z"/>
	<path d="M845,225.8c-0.7,0.1-1.4,0.1-1.6-0.8C844.1,225.1,844.8,225,845,225.8z"/>
	<polygon points="864.9,219.1 864.7,219 864.9,219.2 	"/>
	<path d="M842.7,227.3c0.6-0.8,1.4-0.9,2.3-0.8c0,0.3,0,0.6,0,0.8C844.3,227.3,843.5,227.3,842.7,227.3z"/>
	<path d="M866.5,213.9c-0.2-0.2-0.6,0.2-0.7-0.3C866,213.7,866.2,213.9,866.5,213.9z"/>
	<path d="M359.5,479c-0.1,0.2-0.1,0.5-0.3,0.6c-0.2,0.2-0.6,0.3-1.1,0.6c-0.9-4.8,1.7-8.8,2.6-13.1C360.2,471,360.6,475.1,359.5,479
		z"/>
	<path d="M446.4,454.5c2.2,0.8,4.3,1.7,6.5,2.5c0.3,0.1,0.5,0.5,0.8,0.7c-4.4,0.5-6,0-8.9-2.5C445.3,454.4,445.9,454.3,446.4,454.5z
		"/>
	<path d="M360.3,445.6c-0.1-0.9,0.1-1.7,0.3-2.5c1.2-3.7,3.1-7,5.6-10l-0.1-0.1c0.1,2.1-1.1,3.6-2,5.3c-1.2,2.2-2.5,4.4-3.4,6.8
		C360.7,445.4,360.4,445.4,360.3,445.6z"/>
	<path d="M469.4,492c-2-1.8-3.3-4-4.4-6.1c0.3-0.7,0.6-0.8,1.2-0.7c1.3,1.5,2.4,3.1,3.1,5.1C469.4,490.8,469.3,491.5,469.4,492z"/>
	<path d="M478.9,579c0-1.5-0.3-3.1,0.1-4.8c1.5,3.2,1.8,4.4,1.6,7.5c-0.2,0.1-0.4,0.1-0.7,0.2c-0.8-0.8-0.2-2.2-1.1-3L478.9,579z"/>
	<path d="M291.8,451.5c0-0.4,0-0.7,0.1-1.1c0.6-2.2,1.4-4.4,1.1-6.8c0-0.3,0.3-0.6,0.7-0.7c0.7,0.3,0.8,0.9,0.6,1.5
		c-0.5,1.8-0.9,3.5-1.5,5.2C292.6,450.4,292.6,451.2,291.8,451.5z"/>
	<path d="M473.4,448.7c1.9,0.5,3.1,1.5,4,3.4C475.2,451.9,475.1,451.8,473.4,448.7z"/>
	<path d="M477.8,569.9c-0.8-1.5-1.1-2.5,0-4.6C478.1,567.2,478.3,568.3,477.8,569.9z"/>
	<path d="M476.3,559c0.1-0.3,0.3-0.4,0.6-0.2c0.6,0.8,0.6,1.7,0.3,3C476.3,560.9,476,560.1,476.3,559z"/>
	<path d="M285.1,455.7c1.8,0.9,2.8,1.4,4.5,2.3C287.1,457.7,287.1,457.7,285.1,455.7z"/>
	<path d="M345.6,464.8c0.6-1.9,0.6-1.9,2.3-3.5C347.1,462.9,346.8,464.2,345.6,464.8z"/>
	<path d="M471,500.5c-0.1-0.2,0.1-0.4,0.2-0.7c0.2,0.1,0.4,0.2,0.5,0.4c0.3,0.5,0.7,1,0.2,1.8C471.6,501.5,471.3,501,471,500.5z"/>
	<path d="M370.9,430.1c0-0.2,0-0.5,0-0.7h0.1C371,429.7,371,429.9,370.9,430.1C371,430.1,370.9,430.1,370.9,430.1z"/>
	<path d="M367.6,429.4c-0.1,0.8,0.2,1.7-0.7,2.2l0.1,0.1C366.9,430.9,366.9,430,367.6,429.4z"/>
	<path d="M359.6,447.8c0.1-0.8-0.1-1.7,0.7-2.2l-0.1-0.1C360.2,446.4,360.5,447.3,359.6,447.8z"/>
	<path d="M359.5,447.8c0,0.8,0.1,1.7-0.7,2.2l0.1,0.1C358.9,449.3,358.7,448.4,359.5,447.8z"/>
	<path d="M361.7,463.3c0,0.5-0.1,1.1-0.1,1.6C361.2,464.3,361,463.7,361.7,463.3z"/>
	<path d="M283.9,468.5c0,0,0.1,0,0.2,0c0,0.2,0,0.5,0,0.7c0,0-0.1,0-0.2,0C283.9,468.9,283.9,468.7,283.9,468.5z"/>
	<path d="M473.4,546.2c0.4,0.4,0.5,0.8,0,1.2C473.1,547,473,546.6,473.4,546.2z"/>
	<path d="M475.3,552.8c-0.1-0.3,0-0.6,0.4-0.7c0.1,0.2,0.2,0.4,0.3,0.6c0,0.3,0,0.6-0.4,0.7C475.5,553.2,475.3,553,475.3,552.8z"/>
	<path d="M281.5,457.4c-0.3,0-0.6-0.1-1-0.2C281,456.7,281.1,457.2,281.5,457.4z"/>
	<path d="M469.3,492.1c0.3,0.1,0.6,0.3,0.3,0.8C469.5,492.5,469.4,492.3,469.3,492.1z"/>
	<path d="M288.8,461.2c0.2,0.1,0.4,0.2,0.6,0.3C289.2,461.3,289.1,461.2,288.8,461.2z"/>
	<path d="M288.9,461.1c-0.6-0.1-1.2,0-1.5-0.7l-0.1,0.1C287.9,460.5,288.5,460.6,288.9,461.1z"/>
	<path d="M287.4,460.3c-0.6,0-1.3,0.1-1.5-0.7l-0.1,0.1C286.5,459.7,287.1,459.7,287.4,460.3z"/>
	<path d="M284.4,458.9c0.6,0,1.2,0,1.5,0.7l0.1-0.1C285.3,459.6,284.7,459.7,284.4,458.9z"/>
	<path d="M284.5,458.9c-0.6,0-1.3,0.1-1.4-0.8l-0.1,0.1C283.5,458.2,284.2,458.2,284.5,458.9z"/>
	<path d="M281.4,457.5c0.6,0,1.2,0.1,1.6,0.7l0.1-0.1C282.4,458.1,281.7,458.2,281.4,457.5z"/>
	<path d="M474.5,517.1c-0.2-0.2-0.5-0.4-0.2-0.9C474.3,516.6,474.3,516.9,474.5,517.1z"/>
	<polygon points="473.3,508.2 473.4,508.2 473.4,508.4 	"/>
	<path d="M367.7,429.5c0.1-0.3,0.1-0.7,0.2-1C368,429,368,429,367.7,429.5z"/>
	<path d="M291.7,451.4c0,0.2,0,0.4,0,0.6c0,0.3-0.1,0.4-0.3,0.2c0,0,0-0.2,0-0.3C291.5,451.8,291.6,451.7,291.7,451.4z"/>
	<path d="M349.3,453c0.1-0.3,0.2-0.5,0.3-0.9C349.8,452.6,349.5,452.8,349.3,453z"/>
	<path d="M358.8,450c-0.1,0.3-0.1,0.7-0.2,1.1C358,450.5,358.5,450.3,358.8,450z"/>
	<path d="M366.9,431.6c0,0.6,0.1,1.3-0.7,1.5l0.1,0.1C366.2,432.5,366.1,431.9,366.9,431.6z"/>
	<path d="M345.5,464.8c0,0.1,0,0.2-0.1,0.3c0,0-0.1,0.1-0.2,0.1C345.4,465,345.5,464.9,345.5,464.8z"/>
	<polygon points="349.2,452.9 349.1,453.1 349.3,453 	"/>
	<polygon points="474.4,517.1 474.6,517.2 474.5,517.1 	"/>
	<path d="M305.8,276.7c-1.6-0.5-3.5-0.5-5.2-2c3-1.5,5.5-0.3,8.1,0.2c1.2,0.2,2.7,0.5,3.1,2.2c-0.2,0.3-0.4,0.6-0.8,1
		C309.1,277.6,307.4,277.2,305.8,276.7z"/>
	<path d="M413.9,419.5c0.2-0.4,0.5-0.4,1.1-0.4c2,2.1,4.6,3.3,7.5,3.8c0.5,0.1,1,0.3,1.4,0.5c0.3,0.2,0.4,0.6,0.8,1.1
		C420.3,425.5,418.2,424.5,413.9,419.5z"/>
	<path d="M353,380c-0.2,0-0.5,0.2-0.7,0.1c-2.5-1-4.3-2.7-5.2-5c0.2-0.8,0.5-1.1,1.1-1.2c0.3,0.1,0.7,0.2,0.9,0.5
		C350.7,376,351.8,378,353,380z"/>
	<path d="M314.6,345.4c-2.6,0.2-4.5-1.3-6.6-2.6c-0.6-0.4-1.2-0.8-1-1.7c0.4-0.6,0.9-0.6,1.3-0.3c2.1,1.1,4.2,2.3,6,4
		C314.5,345,314.5,345.3,314.6,345.4z"/>
	<path d="M347.8,391.9c-0.4-1.3-2.1-1.7-2.1-3.2c0.2-0.4,0.4-0.6,1-0.6c1.4,1.8,3.6,2.8,5.2,4.7c-1.8,0.6-2.8-1.2-4.3-1.1
		L347.8,391.9z"/>
	<path d="M456.7,419.5c-1,1-1,1-4.4-0.7C454.3,418.6,455.6,418.5,456.7,419.5z"/>
	<path d="M297.5,274.1c-0.6-0.3-0.9-0.9-1-1.5c0-0.2,0.2-0.3,0.3-0.5c0.9,0.1,1.6,0.5,1.7,1.7C298.2,274.2,297.9,274.3,297.5,274.1z
		"/>
	<path d="M446.9,426.6c0.5-0.7,1-0.5,1.6,0.3C447.8,427.1,447.3,427.3,446.9,426.6z"/>
	<path d="M409.7,417c0.4-0.2,0.9-0.1,1.2,0.3c0,0.1,0,0.2,0,0.3c-0.4,0.5-0.8,0.1-1.2-0.1c-0.1,0-0.1-0.2-0.1-0.3L409.7,417z"/>
	<path d="M292.4,271.2c0.2,0,0.5,0,0.6,0.2c0.1,0.1,0,0.5-0.1,0.6c-0.3,0.2-0.6,0-0.8-0.3C292,271.4,292.1,271.2,292.4,271.2z"/>
	<path d="M314.6,345.5c0.5,0,1.2-0.2,1.1,0.8C315.1,346.1,314.6,346.1,314.6,345.5z"/>
	<path d="M355.3,393.9c0.5,0.1,1.1,0.2,1,1c-0.6,0.1-1-0.1-1.3-0.7C355.1,394.1,355.2,394,355.3,393.9z"/>
	<path d="M445.4,418.8c0.1-0.1,0.2-0.1,0.3-0.2c0.1,0,0.2,0.1,0.3,0.1c-0.1,0.1-0.2,0.1-0.3,0.2
		C445.6,418.8,445.5,418.8,445.4,418.8z"/>
	<path d="M404.5,414.6c-0.5,0.1-0.9,0.1-1.2-0.3c0.2-0.1,0.4-0.3,0.5-0.3C404.2,414.1,404.4,414.3,404.5,414.6z"/>
	<polygon points="318.3,346.7 318.2,346.5 318.6,346.5 	"/>
	<polygon points="364.9,399.6 364.6,399.7 364.6,399.5 	"/>
	<path d="M352.9,380c0.1,0.1,0.2,0.1,0.3,0.2c0,0,0,0.1,0,0.2C353.1,380.3,353.1,380.1,352.9,380z"/>
	<path d="M360.3,397c0.1,0,0.2,0.1,0.3,0.1c0,0,0,0.1,0,0.2C360.4,397.4,360.3,397.3,360.3,397z"/>
	<polygon points="360.4,397 360.2,396.9 360.3,397 	"/>
	<path d="M355,394.2c-0.3-0.1-0.7-0.2-0.4-0.6c0.3-0.3,0.5,0,0.7,0.3C355.2,394,355.1,394.1,355,394.2z"/>
	<path d="M397.9,412.4"/>
	<path d="M397.8,412.5c0.1,0.1,0.8-0.1,0.3,0.4C398,412.8,398,412.6,397.8,412.5z"/>
	<polygon points="449.7,418.9 449.7,418.6 450,418.7 	"/>
	<polygon points="404.4,414.7 404.6,414.8 404.5,414.6 	"/>
	<path d="M326.7,232.4c-0.7-0.3-1.3-0.7-1.7-1.3c-1.1-1.8-1.8-3.7-1.8-5.9c0-0.6,0.2-1.2,1.2-1c1,1.5,0.9,3.4,1.7,5.1
		c1.8,1.8,4.1,2.6,6.4,3.4c2.6,0.8,5.1,1.9,7.9,3.7C335.3,235.8,331,234.2,326.7,232.4z"/>
	<path d="M356.6,197.5c1.6-0.8,3.2-0.9,4.9-0.3c-2.4,3.2-2.5,3.4-2.2,6.1c-1.1,0.8-2.1,0.1-3.1-0.2c-0.9-0.3-0.5-1.3-1-1.8
		c-1.2-0.2-2.6,1.2-3.8-1C353.2,199.3,354.9,198.3,356.6,197.5z"/>
	<path d="M349.3,195.2c0-0.2-0.1-0.5,0.1-0.7c1.6-2.1,4-2.9,6.4-2.9c2.6,0,5.1,0.7,7.3,2.1c0.4,0.3,0.7,0.6,0.8,1.1
		c-0.1,0.5-0.5,0.8-1.2,0.9c-1.2-0.4-2.7-0.8-4-1.4c-2.4-1-4.7-1.2-7,0.3C350.9,195.1,350.1,195.3,349.3,195.2z"/>
	<path d="M347.8,276.8c-1.4-0.2-2.2-1.4-3.1-2.2c-0.8-0.7-1.6-1.4-2.5-2c-0.1-0.1-0.1-0.4-0.1-0.6c0.7-0.5,1.5-0.7,2.7-0.4
		C346.2,272.9,347.3,274.7,347.8,276.8z"/>
	<path d="M333.7,241.5c-1.9-1.7-3.7-3.4-4.9-5.7c-0.1-0.1,0.1-0.4,0.2-0.6C331.2,236.4,332.5,238.2,333.7,241.5z"/>
	<path d="M344.1,265.6c-0.2-0.6,0.1-1.2,1.2-0.9c0.5,1.1,0.8,2.3,0.7,3.8C345.1,267.5,344.4,266.7,344.1,265.6z"/>
	<path d="M350.2,270.5c-0.8,1-1.6,1.6-3.4,1.5C347.7,270.3,348.8,270.1,350.2,270.5z"/>
	<path d="M337.4,249.7c-0.4,0.1-0.7-0.1-0.6-0.6c0-0.1,0.3-0.3,0.4-0.3C337.5,249,337.6,249.3,337.4,249.7z"/>
	<path d="M337.4,249.7c0.7,0.1,0.8,0.4,0.4,0.9C337.4,250.3,337.3,250.1,337.4,249.7z"/>
	<path d="M340.4,255.5c-0.2-0.1-0.4-0.2-0.5-0.4l0.1-0.3C340.5,254.9,340.4,255.3,340.4,255.5z"/>
	<path d="M347.8,276.9c0.1,0.1,0.2,0.1,0.3,0.2c0,0,0,0.1,0,0.2C347.9,277.1,347.9,277,347.8,276.9z"/>
	<path d="M349.2,195.1c-0.1,0-0.1,0.1-0.2,0.1C349.1,195.2,349.2,195.2,349.2,195.1z"/>
	<polygon points="333.7,241.6 333.9,241.7 333.7,241.5 	"/>
	<path d="M340.3,255.6c0.4,0.1,0.4,0.1,0.2,0.2C340.5,255.7,340.5,255.6,340.3,255.6z"/>
	<path d="M360.5,405.5c0.3,1.8,0.2,3.6-0.6,5.2c-0.5,0.9-1.2,1.4-2.4,1.1c0.4-2.5,1.2-4.6,2.3-6.8
		C360.1,405.3,360.5,405.4,360.5,405.5z"/>
	<path d="M316.4,368.3c-0.3-0.6-0.4-1.1,0.7-1.4c1.4,1,2.3,2.6,3,4.3C318.5,370.6,317.2,369.7,316.4,368.3z"/>
	<path d="M357.4,425c-0.2-2.5-0.2-2.5,0.8-3.4c0.5,0.7,0,1.4-0.2,2.1C357.9,424.2,357.6,424.6,357.4,425z"/>
	<path d="M318.2,383.4c-0.6-0.3-1-0.6-1.1-1.8C317.8,382.3,318.5,382.6,318.2,383.4z"/>
	<path d="M333.4,402.6c0.4,0.5,0.3,0.9,0,1.3C333,403.4,332.9,403,333.4,402.6z"/>
	<path d="M322.7,374.1c-0.9,0-1.1-0.5-1-1.3C322.6,373.1,322.8,373.6,322.7,374.1z"/>
	<path d="M357.3,425c-0.1,0.3-0.1,0.7-0.2,1C356.6,425.4,356.9,425.2,357.3,425z"/>
	<path d="M323.5,374.9c0,0.2,0.5,0.3,0.2,0.6C323.6,375.3,323.6,375.1,323.5,374.9z"/>
	<path d="M322.7,374.2c0.5,0,0.7,0.3,0.8,0.7l0.1-0.1C323,374.9,322.7,374.7,322.7,374.2z"/>
	<path d="M351.8,346.2c2.6-0.3,5-1,7.5-1.8c5.8-2,10.5-5.2,13.2-10.9c0.3-0.6,0.5-1.4,1.6-1.5c0.1,0.3,0.4,0.6,0.4,0.9
		c-0.1,0.7-0.3,1.4-0.6,2.1c-2.7,5.9-7.3,9.4-13.4,11c-3.3,0.8-6.7,1.2-10.1,1.7c-0.2,0-0.5-0.1-0.8-0.3
		C350.1,346.3,351,346.3,351.8,346.2z"/>
	<path d="M387.6,339.5c-0.5,0.7-1,1.3-1.4,2c-0.6,1-1.4,1.1-2.4,1C384.7,341.1,385.9,340,387.6,339.5z"/>
	<path d="M383.9,342.4c-0.3,0.7-1,0.7-1.6,0.8C382.7,342.7,383.3,342.5,383.9,342.4z"/>
	<path d="M382.4,343.2c-0.1,0.5-0.4,0.7-0.8,0.9C381.6,343.5,382,343.3,382.4,343.2z"/>
	<path d="M518.8,590c-0.5,0.7-1.1,1.2-2,1.5c-4.5,1.5-9,3-13.1,5.6c-0.2,0.1-0.5,0-0.7,0c-0.9-0.7-0.6-1.5,0-2.2
		c1.4-1.5,3.1-2.4,4.9-3.1c3.1-1.2,6.2-2.2,9.3-3.3c0.2,0.3,0.5,0.5,0.7,0.8C518.2,589.5,518.5,589.8,518.8,590z"/>
	<path d="M395.7,355.9c-0.2-1.9,0.5-3.4,1.9-4.9c0.4,1.2,0.3,2.2,0.1,3.1c-0.3,1.1,0.6,2.1,0.1,3.2
		C396.3,357.1,395.8,356.8,395.7,355.9z"/>
	<path d="M397.2,347.4c0.2,0,0.3,0.3,0.4,0.5c0,0.4-0.2,0.7-0.5,0.7c-0.4,0-0.5-0.3-0.5-0.7C396.6,347.6,396.8,347.3,397.2,347.4z"
		/>
	<path d="M396.5,344.7c0-0.1,0-0.2,0-0.3c0.2-0.2,0.3-0.1,0.3,0.2c0,0.1-0.1,0.2-0.2,0.3C396.6,344.8,396.5,344.8,396.5,344.7z"/>
	<path d="M290.3,226.1c-0.5-0.4-0.7-0.9-0.2-1.7C290.1,225.1,290.2,225.7,290.3,226.1z"/>
	<path d="M282.9,211.4c0.9,0.1,0.8,0.8,0.7,1.4l0.1-0.1C283,212.6,283,212,282.9,211.4z"/>
	<path d="M282.9,211.4c0-0.1-0.1-0.1-0.1-0.2C282.8,211.2,282.8,211.3,282.9,211.4z"/>
	<path d="M307.3,174.8c1.1-0.1,1.5-0.2,1.8-0.1c1.4,0.5,2.8,0.7,3.9,1.9C311.3,176.1,309.7,175.5,307.3,174.8z"/>
	<path d="M328.5,169.1c-0.2-0.1-0.1-0.2,0.2-0.2c0,0,0.1,0.1,0.1,0.2C328.7,169,328.6,169.1,328.5,169.1z"/>
	<path d="M302.9,175.3c-0.7,0-1.3,0-1.6-0.8C301.9,174.6,302.6,174.5,302.9,175.3z"/>
	<path d="M304.3,176c-0.6-0.1-1.3,0-1.6-0.8C303.4,175.2,304.1,175.2,304.3,176z"/>
	<path d="M365.6,360.9c0.8-1.4,0.4-3.4,2.4-4.2c0.8,1.5,0.2,2.7-0.3,4c-0.8,1.9-2,3.5-4.2,5C364.4,363.6,364.9,362.2,365.6,360.9z"
		/>
	<path d="M305,212.1c0.1,0.1,0.1,0.1,0.2,0.2C305.1,212.2,305.1,212.1,305,212.1z"/>
	<path d="M307.3,178.1c0,0.3,0,0.6,0,0.9C306.5,178.7,306.6,178.4,307.3,178.1z"/>
	<path d="M330.1,166.4c-0.1,0-0.2-0.1-0.3-0.1c0,0,0-0.1,0-0.2C330,166.1,330.1,166.2,330.1,166.4z"/>
</g>
</svg>
