<?xml version="1.0" encoding="utf-8"?>
<!-- Generator: Adobe Illustrator 19.1.0, SVG Export Plug-In . SVG Version: 6.00 Build 0)  -->
<svg version="1.2" baseProfile="tiny" id="Layer_2" xmlns="http://www.w3.org/2000/svg" xmlns:xlink="http://www.w3.org/1999/xlink"
	 x="0px" y="0px" width="900px" height="600px" viewBox="144 97 900 600" xml:space="preserve">
<g>
	<path d="M455.9,419c-0.2-0.3-0.3-0.6-0.5-1c0.5-0.9,1.3-0.3,1.9-0.5c0.7-0.2,1.5-0.2,2.2-0.4c5.2-1,10.4-2.1,15.6-3
		c4.1-0.7,8.3-1.4,12.5-1.2c1.1,0,2.2-0.2,3.3-0.4c3.7-0.8,7.5-1.3,11.3-1.4c9-0.2,18-0.2,26.9-0.9c0.6,0,1.2-0.1,1.8-0.1
		c12.1-0.1,24.1-0.4,36.2,0.1c1.8,0.1,3.7,0.1,5.6,0.6c6.4-4.6,13.4-8.3,19.5-13.4c1.7-1.4,3.6-2.6,5.3-4c1.7-1.4,3.3-3,5-4.4
		c7.7-6.5,16.6-10.4,26.5-12.3c1.2-0.2,2.4-0.5,3.7-0.8c-0.5-1.5-1.7-2-2.9-2.5c-4.2-1.8-8.4-3.6-12.6-5.4c-1.6-0.7-3.3-1.1-4.8-1.8
		c-4.3-1.9-8.9-2.6-13.5-3.6c-5.8-1.3-11.5-2.6-17.3-3.9c-1.4-0.3-2.9-0.6-4.4-1c-4.3,1.8-8.4-0.6-12.5-0.9
		c-0.9,0.5,0.2,1.3-0.5,1.8c-1.4,1.1-2.9,0.5-4.4,0.2c-1.7-1.4-2-3.5-3.5-4.8c-1.4-1.3-2.7-2.8-4.1-4.3c-5.1-0.8-9.2-3.6-12.8-7
		c-1.4-1.3-2.2-2.8-2.5-4.8c-0.7-4.2-0.5-8.3-0.3-12.5c0.1-1.8,0.4-3.7,0.5-5.5c0.1-2.9,1.5-5.2,3.5-7.1c2.4-2.4,5.4-3.9,8.6-4.8
		c0.8-0.2,1.7-0.4,2.6-0.5c0.2,0.2,0.5,0.5,0.8,0.7c0.2,0.1,0.4,0.3,0.7,0.4c1.7-0.3,3.5-0.5,5.4-0.8c1.8-0.3,3.7,0,5.6-1
		c-1.9-2.2-3.7-4.2-6.6-5c-2.4-0.6-4.8-1.2-7.2-1.5c-5.1-0.6-10.1-2-15.4-3.6c-3.3,1.3-7.5,0.8-11,2.8c-1.1-0.8-1.4-1.4-0.7-2.2
		c1.1-1.5,2.4-2.8,4.1-3.6c0.9-0.4,1.8-0.7,2.7-1.1c0.4-1.1-0.4-1.3-1-1.6c-0.4-0.2-1-0.3-1.4-0.1c-3.1,1-6.5,1.2-9.4,2.8
		c-0.6-0.1-0.9-0.5-1-1c1.5-3.8,4.8-5.3,8.4-6.5c-0.8-1.2-1.7-2.1-2.8-2.8c-3.1,0.1-6.1,1.6-9.3,0.9c-0.2,0-0.3-0.4-0.5-0.6
		c0.7-2.9,3-3.9,5.4-4.9c-0.5-1.1-1.2-1.7-2.3-2.2c-2.3,0.6-4.8,1.4-7.3,0.4c-0.4-0.7,0.1-1.2,0.5-1.6c0.9-1,2.2-1.5,3.6-2.3
		c-1.2-1.2-2.1-2.3-3.1-3.3c-1.9-0.4-4.1-0.2-5.4-2.1c0.2-1.7,1.6-0.3,2.2-0.9c0.1-0.2,0.3-0.5,0.2-0.6c-2.2-4.5-3.8-9.3-6.5-13.7
		c-0.5-0.8-1-1.7-1.5-2.6c-1.5-3.1-4-4.9-7.3-5.6c-2.6-0.6-5.3-1.3-7.7-2.5c-0.4-0.2-0.9-0.4-1.4-0.4c-1-0.1-2,0-3,0
		c-2.4,2.1-3.8,4.9-5.9,7.2c0.4,1.5-0.1,2.9-0.5,4.3c-0.9,2.8-1.6,5.7-2.2,8.6c-0.7,3.7-1.2,7.5-1.9,11.3c-0.3,1.5-0.4,2.9-0.2,4.4
		c0.1,0.5,0.3,1,0.2,1.5c-0.3,1.3-0.4,2.6-0.1,4c0.3,1.3,0.3,2.7,0.5,4c0.6,0.4,1.2,0.8,2.1,1.3c0.2,2,0.6,4,0.7,6.1
		c0.2,5.5,1.8,10.6,4,15.6c0.9,2,2,3.9,2.3,6.2c0.2,1.8,1.5,3.1,2.8,4.2c2.5,2,4.1,4.6,5.6,7.3c1.5,2.8,2.2,5.7,2.7,8.8
		c0.3,2.4,0.1,4.7-1.5,6.6c0.2,1.9-0.4,3.8,0.3,5.7c-0.6,1.5-2,2.9-1.1,4.7c0.3,0.8,1.2,0.7,1.8,1.2c2.9,4.2,4.6,9,7,13.4
		c1.3,2.4,2.5,4.8,3.8,7.2c1,1.9,2.1,3.6,4,4.8c1.2,0.8,1.7,2,2.3,3.3c0.8,1.8,1.6,3.6,2.4,5.2c1.4,0.6,2.6,0.2,3.6-0.6
		c2.9-2.1,6.2-3.4,9.7-4.4c0.9-0.3,2-0.4,2.8-1c2.8-2.1,6-2.7,9.3-3.4c0.2-0.1,0.4-0.2,0.7-0.3c1-0.7,1.3-1.7,1.8-2.7
		c2.9-6.8,8-10.7,15.5-11.4c2.3-0.2,4.6-0.5,6.3-1.6c1-0.8,0.4-1.5,0.7-2c0.7-0.9,1.4-0.8,2.2,0c0.1,0.3,0.3,0.6,0.3,1
		c0.1,1.5-0.6,2.6-1.9,3.3c-2.2,1.4-4.6,2.4-7.2,2.7c-5.8,0.7-9.2,4.2-11.6,9.1c-0.4,0.8-0.7,1.6-1.1,2.3c-1.1,1.9-2.7,3.2-5,3.5
		c-4.2,0.6-8,2.5-12,3.4c-2.7,0.6-5.2,1.8-7.3,3.4c-2.2,1.7-4.6,2.2-7.1,2.1c-1.2-0.4-2.2-1.2-2.6-2.2c-1.2-2.9-3.4-5.1-4.8-7.9
		c-2.3-4.9-5.4-9.4-8.3-13.9c-1.8-2.9-3.3-6-5-9c-0.9-1.7-1.9-3.4-3-5.3c0-0.4-0.2-0.9-0.1-1.3c0.8-4,0.8-8.1,1.3-12.1
		c0.4-3,0-5.9-0.6-8.8c-0.2-1.3-0.9-2.3-1.7-3.2c-1.2-1.4-2.1-3-3.3-4.4c-1.6-1.9-2.9-3.9-3.5-6.4c-0.1-0.5-0.3-0.9-0.6-1.3
		c-4-5.2-5.7-11.4-6.6-17.8c-0.3-1.8-0.7-3.6-1.4-5.4c-1.6-4.3-2.6-8.7-2.3-13.4c0-0.1,0-0.2,0-0.4c-1.3-6.5,0.9-12.7,2.2-18.9
		c0.6-2.9,1.8-5.6,2.7-8.4c0.2-0.7,0.4-1.4,0.5-2.1c1-4.7,2.7-7.3,6.8-10.7c3.7-0.2,7.5,0,11.1,1.5c1.5,0.6,3.1,0.9,4.6,1.4
		c3.1,1,5.4,2.8,7.1,5.5c2.6,4,4.6,8.4,6.8,12.7c2.3,4.3,5,8.1,8.6,11.4c5.6,5.3,10.8,11.1,16.2,16.7c0.6,0.6,1.2,1.3,1.5,2.1
		c1.3,2.8,3.6,4.2,6.5,4.9c2.2,0.5,4.3,1.1,6.4,1.7c0.6,0.2,1.2,0.3,1.8,0.3c4.1-0.3,8,1.2,12.3,1.6c2.9,3.3,7.2,5.7,9,10.1
		c-0.3,0.5-0.5,0.8-0.9,1.3c-1.4,0-3.1-0.9-4.5,0.7c0.7,0.3,1.4,0.7,2.1,1c3.6,1.3,7.3,2.2,11,3c2.2,0.4,4.4,0.4,6.6,0.5
		c4.8,0.2,9.5,1.2,14.2,2c3.4,0.6,6.8,1.2,10.2,1.7c1.8,0.3,3.7,0.4,5.5,0.3c3.6-0.1,7.1-0.3,10.6-0.7c8.5-1.1,16.9-0.9,25.4-0.8
		c1.6,0,3.2,0,4.7,0c0.2-1.2-0.9-1.6-0.8-3.1c0.3-1.2,0.9-3,1.7-4.7c1.7-0.7,3.4-0.3,5-0.6c1.6,0.4,2.7,1.4,4,2.1
		c0.8,0.5,1.6,1.3,2.6,1.1c0.4,0.6,0.7,0.7,0.6,0.2c0-0.3-0.3-0.4-0.6-0.3c-0.2-1.1-1.2-1.5-1.7-2.4c-0.4-0.8-1-1.4-1.3-2.2
		c-0.6-1.6,0-3,1.6-3.5c2.1-0.8,4.3-0.9,6.6-0.7c1.1,0.1,2,0.8,3,1.4c0.7,0.4,1,1.4,2,1.5c1.1-0.7,0.2-2.2,1-3
		c1.7-1.9,4.2-1.7,6.1-2.3c1.5,0.7,1.3,2.4,2.7,3c1.3-1.3,2.6-2.8,4.1-4c0.8-0.7,2-0.8,2.8-1.1c2-0.1,3.6,0.8,5.3,1.2
		c1.1,0.3,2,1,2.7,1.9c0.9,1,1.7,2.1,2.6,3.1c0.9,1,1.6,2.2,2.7,2.9c0.7,0.1,1.2-0.3,1.6-0.8c2.7-2.6,4.9-3.5,9-3.6
		c1.6,1.4,2.8,3.5,5,4.9c1.9-2.1,4.9-1.6,7.3-2.6c1,0.3,1.9,0.6,2.6,0.8c3-0.2,5.6-1.5,8.4-1c2.1-0.8,4-2.1,6.2-1.6
		c1.7,0.9,2,2.6,3,4.1c1.8-0.2,3.6-0.2,5.4-0.9c1.1-0.4,2.4-0.5,3.6-0.6c1-0.2,1.9,0.1,3.2,1.1c1,2.1,2.2,4.7,3.4,7.2
		c0.3,0.7,0.5,1.4,0.4,2.1c-0.4,2.1,0.6,3.8,1.1,5.8c0.8-0.4,1.5-0.7,2.2-0.9c1.8,0.1,3.1,1.5,4.3,1.7c1.1,0.8,1.2,1.5,1.3,2.4
		c0.4,0.3,0.8,0.8,1.3,1.1c1.5,0.9,2.3,2.1,2.7,3.8c0.2,0.8,0.5,1.7,0.9,2.4c1.3,2.1,2.1,4.5,3.2,6.7c2.2,4.5,3.4,9.2,4.7,13.9
		c2.2,7.9,0.9,15.4-2.8,22.5c-2.5,4.7-5.8,8.9-9.6,12.6c-1.2,1.2-2.4,2.4-3.2,4c-1,1.9-2.4,3.4-4,4.8c-2.6,2.4-5.3,4.7-7.9,7.2
		c-2.7,2.5-5.4,5.1-8,7.7c-3.4,3.4-6.8,6.8-10.7,9.6c-0.7,0.5-1.5,0.9-1.7,1.9c3.5,0.6,6.9,1.2,10.4,1.8c0.7,0.1,1.5,0.3,2.2,0.4
		c2.8,0.7,5.5,0.9,8.4,0.6c3.5-0.4,7.1-0.4,10.7-0.6c2.4-1.5,5-2.5,7.2-4.4c1.6-1.4,3.8-1.8,5.9-2c2.2-0.2,4.4-0.4,6.6-0.5
		c1.3-0.1,2.7-0.1,3.9-0.8c0.9-0.5,1.9-0.4,2.9-0.4c1,0.1,2,0.1,2.9,0.2c6.4,0.5,12.8,0.9,19.1,1.4c2.2,0.2,4.4,0.7,6.5,1.1
		c0.6,0.1,1.2,0.5,1.8,0.4c2.7-0.2,5,1.1,7.3,2.1c3.7,1.7,7.4,3.4,11.1,5c1.5,0.6,2.9,1.4,4.4,1.9c1.6,0.6,3,1.6,4.2,2.8
		c0.6,0.6,1.2,1.2,1.9,1.7c4.2,2.7,8.2,5.8,12.7,8.3c0.4,0.2,0.9,0.5,1.3,0.8c2.7,2.2,5.9,2.8,9.1,3.2c0.9-0.3,0.8-1,1.2-1.5
		c1.7-1.1,3.6-0.4,5.5-0.9c0.7-0.1,0.9-1,1.6-1.6c2.9-0.9,6.1-1.2,9.1-2.4c0.6-0.2,1.2-0.3,1.7-0.6c2.4-1.1,3.4-2.8,2.9-5.4
		c-0.6-2.9-0.4-5.6,0.6-8.3c0.5-1.2,0.4-2.4,0.4-3.6c0.2-3.6,2.2-5.9,5.2-7.4c2.3-1.1,4.6-1.5,7.2-1.2c2.1,0.2,3.6,1.4,5.1,2.4
		c1.2,0.1,2.2-0.1,3-0.6c2-1.2,4.1-1.5,6.4-1.2c0.6,0.1,1.2,0.1,1.5,0.1c1.5,0.4,1.9,1.6,2.8,2.2c0.4-0.1,0.8-0.1,1-0.3
		c0.7-0.7,1.3-1.5,2-2.3c2.6-1.5,4.8,1.5,7.4,1c1.3-0.5,1.7-2,3-3.1c0.8-0.4,1.9-0.9,3-1.3c2.7,0.1,4.9,1.1,6.7,2.9
		c1.5,1.4,3.3,2.5,5.2,3.5c1.1,0.5,2.1,1.3,3.1,1.9c2.6,1.5,5.3,3,7.7,4.4c1.4-0.3,1.3-1.5,1.5-1.6c1.9-1.2,3.3-1.3,4.8-1.2
		c3,0.3,5.7,1.1,8.3,2.6c3.3,1.9,6.9,3.3,10.3,4.9c0.5,0.2,1.2,0.4,1.8,0.4c1.2-0.2,2.1,0.6,3.5,0.7c0.6-1.4,1.2-2.8,1.8-4.2
		c0.6-1.4,1.1-2.8,1.7-4.1c0.7-1.4,1.5-2.8,2.2-4.3c0.7-1.3,1.4-2.6,2.6-3.6c0.4,0.4,0.8,0.8,1.2,1.2c1.5-0.1,1.9-2.3,3.6-2.1
		c0.8,0.1,0.8,1.1,1.7,1.5c2.4,0.2,5-1.1,7.5,0.1c1,0.9,1.7,2,2.2,3.5c-0.1,3-2.9,5.2-3.2,8.5c2-0.5,2.5-2.7,4.4-2.9
		c0.9,0.1,1.2,0.7,1.3,1.5c0.1,0.8-0.3,1.7,0.1,2.5c0.5,1.3,2.4,0.8,2.7,2.3c0.2,0.8-0.3,1.4-0.9,1.9c-1.3,1-2.8,1.6-4.3,2.2
		c-0.7,0.3-1.5,0.3-1.9,1.2c1.5,1.8,5.2,1.3,5.4,4.8c-0.3,0.5-0.6,1.2-0.9,1.9c0,1.1,1.3,1,1.6,1.7c0.9,1.7-0.1,3.2-0.4,4.7
		c-0.3,1.6-1,3.1-0.6,4.7c0.4,1.6-1.5,2.8-0.8,4.5c1.4,0,2-1.7,3.6-1.5c0.1,0.1,0.5,0.1,0.8,0.4c0.3,0.2,0.4,0.6,0.7,1
		c-0.1,3-2.1,5.1-3.7,7.6c0.2,2.4-1.3,4.2-2.1,5.6c-0.5,1.6,0.1,2.4,0.3,3.3c-0.2,0.6-0.3,1.3-0.6,2.2c1.3,2,1,4.4,0.6,6.7
		c-0.4,2.2-0.6,4.3-1.8,6.3c-0.8,1.3-1.1,2.9-0.7,4.4c1.2,0.9,2-0.4,3.1-0.1c0.1,0.1,0.4,0.4,0.6,0.6c0,0.3,0.1,0.6,0,0.8
		c-0.3,1.2-1.3,1.8-2.2,2.4c-0.7,0.5-1.5,0.9-2.2,1.3c-0.6,2.3-1.2,4.6-1.9,6.8c-0.5,1.6-1.1,3.3-1.7,4.9c-1.1,2.7-2.6,5-5.2,6.5
		c-0.8,0.5-1.8,0.9-2.2,2.1c0.7,1.1,2.2,1.9,1.7,3.9c-0.2,0.5-0.8,0.8-1.6,1.1c-1,0.3-2.2,0.2-3,0.8c-0.4,1.3,1.3,1.6,0.9,2.8
		c-0.7,1.1-2.3,1.1-3.4,2.1c-0.5,0.5-0.2,1.3-0.6,2.2c-1,0.9-2.2,2-3.3,3c-2.6-0.4-1.7-2.9-2.6-3.9c-0.8-0.6-1.5-0.3-2.2-0.2
		c-3.6,4.2-5.6,4.9-10.1,3.3c-2.8,0.7-5.8,1.3-8.9,1.4c-5.2,0.2-10.3-0.1-15.4-1.1c-1.7-0.3-3.3-0.9-4.6-2.2c-1-1.1-2.5-1.5-3.8-2.1
		c-0.7,0.3-1.4,0.6-2.1,1c-3.2-1.3-6.3-2.7-9.5-4c-5.3-2.3-11-3.6-16.5-5.2c-3.1-0.9-6.2-1.7-8.9-3.4c-1.3-0.8-2.8-0.8-4.3-1
		c-3.5-0.3-6.8-1.1-10-2.4c-1.6-0.7-3.3-0.7-5-0.5c-3.8,0.5-7.6,1-11.5,1.5c-3.3,4.1-7.3,7.9-11.1,11.7c-0.6,0.6-1.2,1.3-1.7,2
		c-2.4,3.5-5.6,6.2-9.3,8.3c-7.8,4.7-14.6,6.6-24.8,7c-2.9,2.3-6.6,3.3-10.3,4.3c-11.8,3.2-23.7,5.4-36,5.9
		c-3.8,0.2-7.6,0.1-11.4-0.8c-1.6-0.4-3.2-0.3-4.8-0.3c-8.5,0.1-17-0.7-25.4-1.8c-10.5-1.4-20.8-3.9-31.2-5.7
		c-3.5-0.6-7.1-0.5-10.7-0.8c-0.5,0-1,0.1-1.5,0c-8.1-1.8-16.3-2.3-24.5-2.9c-4.7-0.4-9.3-0.4-14-0.1c-5.2,0.3-10.3,0.3-15.5-0.1
		c-4-0.3-8.1-0.3-12.2-0.3c-1.6,0-3.2-0.1-4.7-0.7c-2.2-0.9-4.5-1.1-6.9-0.8c-1.1,0.1-2.2,0.3-3.4-0.1c-0.5-0.5-1.2-1-1.9-1.7
		c-3.9,2.1-8.1,3.4-12.5,4.4c-3.6,0.8-7.3,1.3-11,1.4c-1.5,0-3,0-4.4-0.5c-4-1.4-8.2-1.3-12.4-1.9c-5.1-0.6-10.3-1.2-15.4-1.9
		c-4.5-0.7-8.9-1.6-13.4-2.4c-4.8-0.9-9.1-3-12.8-6.2c-1.8-1.5-3.7-2.9-5.5-4.3c-1.8-1.5-3.6-3-5.4-4.4l0.1,0.1
		c-0.3-0.3-0.6-0.6-0.8-0.8l0.1,0.1c-2.3-2.8-5.2-4.8-7.9-7.2c-0.9-0.8-1.9-1.6-2.8-2.4c-0.2-0.2-0.2-0.7-0.3-0.9
		c0.3-0.9,0.9-1.3,2-1.2c1.7,0.8,3.3,2.2,4.9,3.5c4.8,4.1,9.7,8,14.8,11.7c1.1,0.8,2.1,1.7,3.1,2.6c3.4,3.5,7.8,5.1,12.1,6.8
		c0.2,0.1,0.5,0.2,0.7,0.1c3.1-0.4,6.1,0.6,9.1,0.9c7.8,0.8,15.7,1.6,23.5,2.4c2,0.2,3.9,0.5,5.8,1.2c1.2,0.4,2.4,0.7,3.6,0.8
		c1.9,0.1,3.7,0.3,5.5,0.8c1.5,0.4,2.9,0.1,4.2-0.6c2.4-1.2,4.9-2.4,7.4-3.4c6.7-2.6,11.7-7.1,15.5-13.1c1.5-2.4,2.7-5,3.7-7.6
		c0.4-0.9,0.7-1.8,1.1-2.7c0.2-0.4,0.6-0.8,1.2-0.5c0.6,0.5,0.6,1.1,0.5,1.7c-1.3,6.7-3.7,13-8.1,18.4c-0.4,0.5-1.1,1-1,1.8
		c0.5,0.5,1.2,0.4,1.8,0.4c1.7,0,3.4,0.3,5,1c2,0.9,4,1.2,6.1,1c0.9-0.1,1.7,0,2.6,0c10.1,0.4,20.2,0.7,30.3,0.6
		c3.6,0,7.1,0.1,10.7,0.4c8.2,0.7,16.4,1.8,24.5,3.2c2.9,0.5,5.8,1,8.8,0.4c1.9-0.4,3.9-0.2,5.9,0.2c5,0.9,9.9,1.9,14.8,3.1
		c2.7,0.7,5.5,1.3,8.3,1.8c7.4,1.3,14.8,2.2,22.4,2.6c7.2,0.4,14.5,0.6,21.7-0.5c0.6-0.1,1.2-0.1,1.8-0.3c0.6-0.2,1.4,0,1.8-0.8
		c-2.2-1.3-4.4-2.2-6.9-2.7c-5.6-0.9-10.9-2.9-15.9-5.8c-1.8-1.1-3.5-2.3-5-3.8c-1-1-1.8-2.1-2.1-3.4c-0.2-0.7,0-1.5-0.7-2
		c-1.4-0.3-2.9-0.5-4.3-0.8c-5.2-1.1-10-3.3-14.7-5.9c-2.1-1.2-4.3-2.4-6.6-3.1c-1.9,1-3.8,1.8-5.9,2.2c-2.3,0.4-4.1,1.6-5.2,3.5
		c-1.5,0.7-2.9,1-4.4,1c0.3-1,1.2-1.3,1.8-1.9c0.3-0.4,0.8-0.6,1.2-0.8c2.7-1.2,5-3.1,7.5-4.7c0.3-0.2,0.6-0.5,0.5-1.2
		c-3.5-0.7-6.7-2.5-10.1-4.1c-1.8,0.4-3.6,0-5.4-0.5c-2-0.5-4-1.2-5.9-2c-5.2-2.2-10.3-4.7-14.6-8.5c-2-1.7-4.1-3.1-6.7-3.9
		c-0.6,0.2-1.3,0.5-2,0.8c-0.6-0.3-1.4-0.5-2-0.9c-0.7-0.4-1.4,0.7-2.4-0.3c-0.7-0.7-1.1-1.9-1.5-3.2c-1.5-4.4-1.7-9-1.6-13.5
		c0.1-3.4-1-6.2-2.6-9.2c-0.1-3.6-1.5-7-2.6-10.6c-3,3.7-6.8,6.4-9.8,9.8c-0.2,7.5-2,14.4-3.7,21.4c-0.3-3.3,1.2-6.5,1.2-9.8
		c0-3.2,1.1-6.4,0.6-9.7c-1.2,0.2-1.7,0.9-2.3,1.5c-0.2,0.2-0.3,0.6-0.5,0.9l0.1-0.1c-2.3,0.7-3.9,2.4-5.8,3.7c-0.4,2-0.4,4-0.4,5.9
		c0.1,1.2,0.1,2.5,0.2,3.7c0.1,3.1-1,5.7-3.5,7.8c-3.7,3-7.3,6.2-11.3,8.8c-2.6,1.7-5.2,3.3-7.6,5.3c-0.3,0.2-0.6,0.3-1,0
		c-0.5-0.7,0.8-1.2,0-2.1c-2.8,0-5.7,0.1-8.6,0.8c-2.8,0.7-5.2,2.1-7.5,3.8c-2.4,1.8-3.4,4.7-5.5,6.8c-1-0.9-1-1.9-0.7-2.8
		c0.5-1.4,1.3-2.7,2.3-3.7c2.3-2.4,5.1-4.2,8.2-5.5c2.2-0.9,4.9-0.8,6.7-2.7c3.2-0.4,6.1-1.9,9.5-2c0.4,0.4,0.8,0.9,1.2,1.3
		c-0.5,0-0.7,0.3-0.8,0.7c-1.4-0.1-2.8-0.1-4.3,1.1c1.3,0.2,2.1,0.7,3.1,0.4c0.6-0.3,1.2-0.7,1.2-1.6c0.5,0,0.7-0.3,0.8-0.7
		c0.2,0,0.5,0,0.7-0.1c4.2-3.6,8.5-7.1,12.7-10.7c1.1-0.9,1.7-2.1,2.1-3.6c-0.1-0.7-0.1-1.6-0.3-2.4c-0.2-0.9,0-1.9-0.8-2.6
		c-2.4,1.1-4.8,2.1-7.1,3.3c-2.4,1.2-5,1.3-7.4,2c-2.4,0.7-4.8,0.9-7.3,1c-8.9,0.3-17.7-0.3-26.5-1c-2.1-0.2-4.1-0.5-6.2-0.8
		c-0.1,0-0.2-0.1-0.3-0.2c-0.2-0.4,0.6,0-0.3-0.4c1.9-0.1,3.4-0.2,4.8-0.2c4.8,0.1,9.6,0.2,14.4,0.3c7,0.2,14,0.3,21-0.2
		c1.1-0.8,2.3-1.4,3.6-1.7c1.7-0.4,3.2-1.2,4.6-2.3c1.9-1.5,4.1-2.7,6.4-3.5c0.2-0.1,0.4-0.3,0.6-0.4c0.6-0.7,0.5-1.9,1.4-2.5
		c0.6-0.1,1.2-0.3,1.7-0.4c2.3-2.6,4.5-5.3,6.8-7.8c2.3-2.5,4.8-4.9,7.2-7.3c-1.6-1.8-3.5-2.6-5.4-3.4c-5.8-2.2-11.7-4.4-17.6-6.7
		c-2-0.8-4.1-1.5-5.7-3.1l-0.1,0.1c7,1.2,13.9,3.3,20.5,5.8c1.8,0.7,3.6,1.5,5.4,2.3c1.8,0.8,3.1,2.3,4.6,3.6
		c0.7-0.5,1.3-0.9,1.9-1.4c0.6-0.4,1.5,0.2,2.1-0.5c0.3-1.3-0.4-2.6-0.7-3.8c-2.7-9.2-3.4-18.6-3.7-28.1c-0.2-9.5-0.1-18.9-0.1-28.4
		c0-2.4-0.7-4.3-2.6-5.8c-1.8-1.5-3.3-3.3-4.8-5.1c-1.4-1.7-2.7-3.5-4.1-5.3c-11.2,1.1-21.9-0.5-31.6-6.4c-9,3.5-17.9,6.8-26.1,11.6
		c-3.7,2.2-7.6,4.1-11.6,5.7c-2.2,0.9-4.2,2.2-5.9,3.8c-3.7,3.5-7.8,6.4-12,9.2c-5.1,3.4-10.4,6.6-15.7,9.6
		c-2.2,1.3-4.5,2.5-6.9,3.3c-4,1.2-7.7,3.2-11.5,5c-3.3,1.6-5.9,4-7.8,7.1c-0.9,1.5-1.8,2.9-2.7,4.4c-1.6,2.9-3.2,5.8-4.8,8.7
		c-0.8,1.4-1.5,2.8-2.8,3.7c-0.7-1-0.3-1.7,0.1-2.5c2.2-4.1,4.3-8.3,6.8-12.3c4.3-7,10-12.4,17.5-15.6c1.2,0.4,2.2,0.7,3.4,0.3
		c2.2-0.7,4.8-0.9,6.6-2.3c1.7-1.4,3.5-2.9,5-5c-0.8-0.1-1.3-0.1-1.8-0.1c-6.3,0.2-12.5,0.1-18.8,0.5c-8.2,0.5-16.5,0.8-24.7,1.4
		c-6.8,0.5-13.5,0.6-20.3,0.1c-0.7-0.1-1.4-0.1-2.2,0.1c-1.8,0.6-3.6,0.6-5.5,0.7c-4.8,0.4-9.6,0.6-14.3,1.2
		c-5.2,0.7-10.4,1.9-15.6,3c-2.5,0.5-4.9,0.6-7.3-0.1c-0.6-0.2-1.2-0.2-1.8-0.3l0.1,0.1c-0.1-0.4-0.4-0.7-0.9-0.9L455.9,419z
		 M764.7,325.9c0.8-0.6,0.9-1.4,0.8-2.3c-0.6-3.3-0.8-6.6-2.7-9.5c-0.5-0.7-0.7-1.6-1-2.4c-0.3-0.7-0.4-1.5-1.4-1.9
		c-2.3,0.6-4.8,0.6-7.3,0.7c-0.1,0.4-0.3,0.7-0.2,0.9c1.9,3.1,3.1,6.6,5.3,9.5c0.3,2.7-1,5.1-1.1,7.6c-0.7,0.6-1.2,1-1.7,1.4
		c-0.3,1-0.7,1.8,0.1,2.5c0.7,0.3,1.2,0.1,1.8-0.1c0.7-0.2,1.4,0.7,2.3-0.1C761.3,330.3,763,328.1,764.7,325.9L764.7,325.9z
		 M554.9,312c-1.2-0.5-2.4-0.1-3.6,0.2c-1.7,0.4-3.3,0.8-5,1.2c-3.2,0.7-5.1,2.5-5.3,5.7c-0.5,5.9-1.1,11.8-0.7,17.7
		c0.1,1,0,2,0.6,3c3.3,2.4,6.6,5.2,10.8,6.7c0.5-0.2,0.9-0.4,1.3-0.6c0.1,0,0.1-0.2,0.2-0.2c0.2-0.6-0.1-1-0.2-1.4
		c-1.7-4.7-2.2-9.6-2.2-14.5c0-4.8,0.5-9.6,2.7-14C554,314.4,554.4,313.1,554.9,312l0.1-0.3L554.9,312z M871.9,460.2
		c-0.1,0.6,0.2,1.2,0.5,1.7c1.3,1.9,2.5,3.9,3.8,5.9c2.5,3.6,4.6,7.5,6.3,11.6c0.5,1.1,0.9,2.1,1.6,3.6c0.2-1.2,0.1-1.9-0.1-2.6
		c-0.9-2.4-1.7-4.8-2.6-7.2c-0.3-0.9-0.6-1.9-1.2-2.7C877.8,466.8,875.2,463.2,871.9,460.2c-4.4-4.5-9.1-8.6-13.8-12.8
		c-3.9-3.4-7.8-6.8-11.7-10.2c-1.5-1.3-2.9-2.6-3.7-3.8c-0.2-1.5,1.2-1.6,1.1-2.6c-0.7-0.8-1.7-1-2.6-1.4c-4.1-1.7-7.9-3.9-12.5-4.2
		c-2.9-0.2-5.8-0.9-8.8-1.1c-5.9-0.4-11.8-0.2-17.7-0.8c-1.3-0.1-2.7,0.1-4,0.3c-1.3,0.1-2.7,0.4-4,0.5c-4.6,0.2-9.1,0.8-13.5,1.7
		c-0.9,0.6-1.8,1-2.6,1.6c-0.7,0.5-1.7,0.6-1.9,1.9c2.5-0.7,5-1.5,7-2.1c1.3,0.1,1.2,1.3,2.2,1.3c2.2-0.3,4.4-1.4,7-1.2
		c-2.5,1.3-4.4,1.9-7.1,2c-1.1,0-2.2,0.3-3.2,0.8c-3.4,1.8-7,2.9-10.6,4c-0.7,1.4-1.5,2.6-2.1,4c-0.3,0.7-0.3,1.4-0.6,2.1
		c-0.1,0.3-0.5,0.4-0.9,0.2c-1.1-4,0.7-7.1,3.2-9.8c-0.4-0.6-0.7-1-1.4-1.1c-3.1,0.8-6.4,0.8-9.7,1.2c-2.2,0.3-4.4,0.1-6.6-0.2
		c-4.9-0.6-9.7-1.6-14.7-1.1c-1-0.4-2-0.9-3.1-1.3c-0.6,0.5-1.5,0.1-1.8,1.2c2.3,5.6,4.5,11.3,6.8,17.1c0.2,0.5,0.4,0.9,0.7,1.3
		c2.2,2.4,3.2,5.5,4.7,8.4c3,0.3,6,0.8,9.1,0.8c1.6,0,3.2,0,4.8,0.3c3,0.5,5.9,0.3,8.8,0c6.1-0.5,12.3-0.7,18.4,0.4
		c1.5,0.3,3.1,1,4.9,0.5c0.6-0.7,1.4-1.5,2.2-2.3c1.1-1,2.4-1.6,3.9-1.9c8.4-1.5,16.8-2.6,25.2-3.4c1.2-0.1,2.5-0.2,3.7,0.2
		c3.8,1.2,7.8,1.2,11.7,1.6c6.5,0.6,12.9,1.8,19.2,3.7c4.1,1.3,8,3,11.6,4.9C870.5,460.5,871.2,460.4,871.9,460.2z M727.8,383.6
		L727.8,383.6c-1.4,2.2-3.6,3.1-6,3.7c0,5.8,0.3,11.4,1.3,17c1.5,8.3,5.2,15.8,9.5,23.3c0.4-0.9,1.1-1.3,1.7-1.5
		c1.6-0.5,2.8-1.6,3.9-2.7c1.7-1.6,3.4-3.2,4.9-5.1c1.4-1.8,2.6-3.9,4.2-5.6c4-4,7.4-8.6,11.2-12.8c5.8-6.5,12.3-12.3,19.6-17.4
		c2.9-5.6,6.6-11.1,7.9-18.1c-0.3-8.2-2.2-18.1-4.4-22.1c-0.4-0.4-1.2-0.3-1.6-1.4c-1.7-3-2.5-6.8-3.5-10.5
		c-2.6-1.7-5.2-3.3-7.8-4.9c-3.1,2.8-5.2,6.7-8.9,8.6c-1.3,0.4-2.2-0.4-3.2-0.7c-0.6,0.2-1.2,0.4-1.8,0.6c-0.7,0.6-0.9,1.8-2.2,2.1
		c-1.1-0.2-2-1-2.6-1.4c-1.3-1.7-2-3.1-1.7-4.8c0.3-2.4-0.5-4.6-1.4-6.8c-2-4.7-5-9.1-5.9-14.2c0-0.2-0.3-0.4-0.5-0.7
		c-1.9-0.4-3.7,0.6-6,1c1.2,1.8,1.1,3.6,1.3,5.2c1,2,2.5,3.4,2.8,4.5c0.2,2.1-1.2,2.6-1.1,4c1.2,1.8,2.1,4,2.8,6.2
		c1.1,3.6,2.8,4.5,6.5,3.8c0.5,0.9,0.1,1.6-0.6,2.3c-0.2,0.1-0.4,0.2-0.7,0.3c-0.2,0.1-0.5,0.1-0.7,0.1c-2-0.2-3.4-1.9-5.4-1.8
		c-2.2-3.2-1.9-7.4-5-9.9c-2.1,0-4.2-0.2-6.2-0.6c-1.6,2.1-3,4.1-4.4,6.1c-0.6,0.9-1.1,1.9-1.6,2.8c0.4,0.8,1.8,0.3,1.8,1.5
		c-0.9,0.5-1.8-0.4-2.9,0.6c-2,3.8-3.9,8-3.5,12.8c0.4,0.3,0.6,0.4,0.8,0.5c0.1,0.1,0.3,0.1,0.3,0.1c0.2-0.4,0.6,0.4,0.2,0.1
		c-0.8,0.4-2-0.2-2.8,0.8c0,0.4,0,0.9,0.1,1.3c1.1,5.3,2.9,10.4,3.6,15.5c0.7,0.7,1.2,1,2.2,1.1c7.1-4.3,14.9-8.1,22-13
		c0.3-0.2,0.7-0.2,1-0.3l0,0c-1.3,2.1-3.3,3.5-5.1,5.1c-5.3,4.7-11.3,8.6-17.8,11.7c-0.8,4.8-0.7,9.5-0.4,14.3
		c0,0.3,0.4,0.5,0.6,0.8C724.1,384.7,725.7,383.4,727.8,383.6z M908.8,504c2.7-0.9,5.4,0.2,8.2,0.2c1.7-0.5,3.5-1.6,5.5-0.6
		c0.1,1,0.5,1.6,1.8,0.9c0.3-0.7,0.7-1.6,1-2.3c1.9-1.7,4.2-0.6,6.1-1.5c0.1-1.3-0.3-2.3-1-3.2c-1.8-2.5-2.6-5.3-2.5-8.3
		c0-0.5-0.1-1-0.7-1.4c-1-0.4-1.9,0.9-3.5,0.4c-1.6-0.8-3.4-2.3-5.1-3.6c-1.1-2-2-3.9-2.7-5.8c-1.1-3-1.8-6.1-3.2-8.9
		c-1.1-2.2-1.7-4.6-2.3-7c-0.2-1-0.6-1.9-0.9-2.8c-0.1-0.4-0.1-0.7,0.3-0.8c0.6,0.3,0.8,0.9,1,1.4c1.6,3.6,3.2,7.2,4.7,10.8
		c0.3,0.7,0.6,1.4,0.6,2.1c-0.2,1.9,0.7,3.4,1.9,4.6c2,2.1,4.2,4.2,6.8,5.8c1.4,0.1,2.9,0.2,3.5,0.2c1.6-0.2,1.9-1.6,2.9-1.1
		c0.7,0.6-0.3,1.5,0.4,2.1c0.5,0.7,1.7,0.5,2,1.7c-0.6,1.1-2.4,1.2-2.7,3.3c0.4,2.5,1.6,5.3,3,8.4c2.4,1.3,3.7,3.8,5.1,6.3
		c0.5,1,1.1,1.9,1.7,2.8c2.3,3.4,5.6,4.2,9.4,3.5c1.2-0.2,2.4-0.6,3.4-1.3c2-1.4,4.2-2.5,6.6-3.3c0.3-0.1,0.6-0.4,0.8-0.6
		c0.1-0.3,0.3-0.6,0.3-0.8c-1.3-4.5-2.6-8.9-3.9-13.3c-1.5-1-2.8-2.3-4.3-2.9c-3-1.2-5.5-3.2-7.8-5.3c-0.1-0.1-0.1-0.4-0.2-0.6
		c0-0.5,0.4-0.7,0.8-1c0.8,0.1,1.7,0.2,2.6,0.3c0.3-0.3,0.6-0.4,0.7-0.6c0.1-0.3,0.2-0.7,0.3-1c-0.5-1.3-1.1-2.5-1.5-3.8
		c-0.2-0.6-0.2-1.2,0.8-1.5c1.5,2,3.3,3.8,5.7,4.8c6,0.4,11.3-1.6,16.3-4.8c6.5-4,12.5-8.7,18-14c1.4-1.4,2.7-2.8,4.3-3.8
		c1.8-0.5,3.5-0.7,5-1.9c0.1-2.2-0.4-4.4,0.1-6.6c0.4-2,1.5-3.6,3.6-5.2c0.8,0.6,0.2,1.3,0.3,2c0,0.5,0,1,0.7,1.1
		c0.7-0.1,0.9-0.7,1.1-1.3c0.8-2.2,1.6-4.4,2.5-6.6c0.9-2.3,1.8-4.5,3.7-6.2c1-3.8,2.9-7.2,5.3-10.4c1.2-1.6,2.6-3,4.5-3.6
		c0.5-0.1,0.8-0.4,0.5-1.4c-2.2,0.5-4.4,1-6,3c-1.2,1.5-2.3,3.2-3.2,4.9c-1.1,2.2-2.2,4.4-3.7,6c-0.9,1.9-0.7,3.8-1.2,5.7
		c-1.3-1.1-1.2-1.1-1.3-1.4c-0.3-1,0.4-2.2-0.5-3.1c-1.1,0-2.2,0.4-3.3-0.1c-4.6-1.8-9.4-3.2-13.4-6c-2.2-1.5-4.5-1.9-6.7-1.9
		c-0.4,0.1-0.5,0.1-0.6,0.2c-0.4,0.2-0.9,0.5-1.3,0.8c-2.8,2.3-5.6,2.1-8.5,0.3c-1.6-1-3-2.1-4.5-3.2c-3.4-2.6-6.9-5.1-10.7-7.2
		c-1.4-0.8-2.7-1.1-4.2-0.5c-0.9,0.7-1.7,1.6-1.6,2.7c0.2,2.3-0.7,4.3-1,6.2c0.3,1.3,1.8,1.4,1.9,2.5c-1.4,1.2-2.1,1.6-3.1,1.2
		c-2.1-0.9-2.7-2.7-2.8-4.8c0.6-1,1.1-1.9,1.7-3c-2.2-0.6-4.1-1.2-6-1.8c-3.3,1.8-3.3,1.8-6.3,8.8c-0.9,0.7-1.8,1.4-2.9,0.4
		c-0.5-1-0.1-2,0.2-2.6c0.8-1.5,2.6-2,2.6-3.8c-0.7-1-1.3-2-2.6-2.7c-0.6,0.1-1.4,0-2.1,0.2c-0.7,0.2-1.4,0.5-2,0.8
		c-2.3,1.3-4.7,1.3-7.1,0.1c-1.3-0.7-2.7-1.2-4.2-1.8c-1.1,0.1-2.3,0.2-3.4,0.3c-0.4,0.3-0.7,0.5-1,0.8c-0.5,0.4-0.9,0.8-1.5,1.2
		c-3.3,6.7-3.8,13.8-3.1,21.3c-2,0.9-3.7,2-4.6,4.2c-3.3,1.1-6.6,1.9-10,2.4c-2.7,0.3-5.3,0.7-7.8,2c-1.8,0.9-3.7,1-5.7,0.6
		c-1.7-0.3-3.3-1.1-4.8-1.8c-2.9-1.4-5.5-3.3-8.5-4.4c-4-1.4-7.7-3.3-11.2-5.5c-0.7-0.4-1.3-1.1-2.3-1.1c-2.4-2.8-2.4-2.8-4-2.9
		c1.4,0.9,2.1,2.6,3.9,3c1,2,2.9,3.2,4.6,4.6c7.2,6,14,12.3,20.5,19l0.2,0.1l-0.3-0.1c-0.2-0.6-0.2-1.2-0.5-1.7
		c-1-2-2.1-3.9-3.5-5.6c-0.5-0.7-1.1-1.3-1-2.7c0-0.1,0.3-0.5,0.7-0.8c0.2-0.1,0.5-0.2,0.7-0.2c0.5,0,1,0,1.4,0.3
		c0.6,0.4,1.2,0.9,1.7,1.4c1.9,2.1,3.3,4.6,4,7.4c0.9,3.3,1.2,6.8,2.3,10.1c0.2,0.5,0,1.2,0,1.9c0.5,0.9,1.1,1.9,1.5,2.9
		c1.1,2.3,2.1,4.7,2.6,7.3c0.3,1.4,0.6,2.9,0.9,4.3c1.1,4.5,2.2,9.1,3.2,13.6c1,4.7,1.1,9.5,0.7,14.3c-0.3,0-0.4,0-0.5,0
		c-1.4-0.4-0.6-2.3-2.1-2.8c0,1.6,0,3.2,0,4.8c1.1,0.1,1.6-1.3,2.5-1.2c0.6,0.2,1,0.3,1.2,0.3c2.1-0.9,3.9-1.7,5.7-2.4
		c1.8-0.7,3.7-1.3,5.6-1.9c2.4-0.7,4.6-1.6,6.4-3.1c1-0.2,2.2,0.8,2.5-1.1C911.7,505.2,909.9,505.3,908.8,504L908.8,504z M877,475.1
		c0.1,0.1,0.2,0.2,0.2,0.2C877.2,475.3,877,475.3,877,475.1c-0.5-3.9-2.4-7.3-4.3-10.6c-1.2-0.1-2.1,0.1-3.1-0.3
		c-7.3-3.5-15-5.6-22.8-7.1c-5.1-1-10.1-2.1-15.2-3.1c-2.4-0.5-4.9-0.6-7.3-0.1c-8.3,1.5-16.7,3-25,4.5c-0.8,0.1-1.6,0.2-2.3,1.1
		c5,1.6,9.8,3,14.8,3.7c1.9,0.3,3.9,0.4,5.8-0.5c3.9-1.8,8-2.3,12.2-2.4c2.5-0.1,4.9-0.3,7.3-0.7c4.2-0.7,8.3-0.1,12.3,1.5
		c0.5,0.2,0.8,0.5,0.9,1.5c-1.4-0.1-2.8-0.7-4.3-0.4c-1.3,0.2-2.7,0.2-4,0c-4.4-0.4-8.8-0.4-13.2,0.5c-3.5,0.7-7.1,1.1-10.4,2.8
		c-1.2,0-2.4-0.1-3.6,0c-3.9,0.5-7.6-0.1-11.2-1.4c-3-1-6.1-1.7-9.3-2.4c-4.3-1-8.7-1.6-13.2-1.6c-4.9-0.1-9.8,0.4-14.8-0.2
		c-4,0.7-8.1,0-12.2,0.1c-2.6,0.1-5.2,0-7.6-1.2c-0.4-0.2-1-0.1-1.7,0.5c-0.6,1.5-0.8,3.5-2,5.1c-0.5,0.6-0.3,1.6-0.4,2.5
		c-0.2,1.6-0.4,3.2-1.6,4.4l0.1,0.1c0-2.2-0.3-4.5,0-6.6c0.5-2.8,0.4-5.6,0.8-8.4c0.2-1.7-0.1-3.1-1-4.6c-3.5-6.3-5.4-13.4-8.9-19.8
		c-0.8-1.5-1.5-3.1-2.4-4.6c-5-8.2-8.3-17-9.7-26.5c-0.3-2.2-0.3-4.4-0.5-6.6c-0.6-5.6-1.5-11.2-1.8-16.8
		c-0.3-5.4-1.5-10.7-2.2-16.1c-0.7-4.6-2.2-9.1-1.6-13.9c0.3-0.4,0.7-0.9,1-1.4c0.2-1.8,0.2-3.5,0.6-5.2c1.6-5.9,3.8-11.4,7.8-16.1
		c0.7-0.8,1.4-1.8,1.9-2.7c0.7-1.3,1.2-2.7,0.8-4.2c-0.5-1.9-1.1-3.8-2.4-5.3c-2-2.3-4.2-4.5-6.3-6.6c-0.6,0-1.1,0.1-1.6,0.1
		c-1.6-0.1-2.1,2.1-3.8,1.8c-0.2,0-0.4,0.3-0.5,0.5c-0.2,0.2-0.3,0.4-0.4,0.6c-0.2,0.3-0.1,0.5,0.1,0.6c0.8,0.2,1.5,0,2.2-0.2
		c0.5-0.2,1-0.1,1.2,0.4c-2.1,3.4-3.5,4.2-6.7,3.8c-1-0.7-0.7-2-1.5-2.9c-1.9-2.1-3.7-4.3-5.5-6.4c-0.6-0.7-1.2-1.3-2-1.5
		c-1.5-0.4-3-1.1-4.8-1.1c-3.4,3.3-5.5,8-10.2,9.9c-0.9-0.3-1-0.9-1-1.5c0.8-2.3,3.2-1.8,5.1-3c-1.8-0.4-2.3-2.1-3.4-2.8
		c-1,0-1.8,0.2-2.5,0.8c-1.3,1.7-1.4,3.9-2.4,5.8c-1.6-0.2-2.5-1-3.3-2.2c-0.9-1.4-2.1-2.4-4-2.5c-1.4,0.3-2.9,0.6-4.7,1
		c0.6,1.2,1,2.2,1.5,3.1c0.6,1.1,0.3,2.4,0.3,3.4c0.5,0.9,1.6,1,1.8,2.1c0,0.7-0.5,1-1.2,1.2c-2.8-0.3-5-2.3-7.7-3.5
		c-1.4,1.8-3.3,3.3-2.7,6.4c3,1.6,4.6,5.1,8.3,6.2c1.3,4,3.7,7.7,5.2,11.7c0.8,2.2,1.7,4.3,2.7,6.5c1.3,2.7,2.7,5.2,5,7.2
		c1,0.9,1.7,2.1,2.2,3.4c0.6,1.5,0.9,3,2.3,4.1c0.7,0.5,0.7,1.5,0.8,2.4c0.3,2.1,0.3,4.2,0.1,6.3c-0.6,7-1.2,14-1,21
		c0.1,5.4,0,10.8-0.4,16.2c-0.2,4-1.1,8,0,12.1c0.1,0.2,0,0.5,0,0.7c-0.3,6.7,0.1,13.3,0.6,19.9c0.2,2.9,0.6,5.9,1,8.8
		c1,7.2,2.8,14.2,3.4,21.5c0,0.5,0.2,1,0.3,1.4c1.1,3.4,2.2,6.8,3.3,10.2c0.9,2.6,1.7,5,1.5,7.9c-0.1,2.8,0.2,5.6,1.1,8.3
		c0.7,0.3,1.2,0.6,1.8,0.7c4,0.7,7.4,2.6,10.5,5c1.6,1.3,3.3,2.5,5,3.8c1.3,1,2.6,1.8,4,2.6c5.6,3.2,11.8,4.9,18.2,5.8
		c7.2,1,13.8,3.4,20,7.1c4.7,2.8,9.6,4.9,14.7,6.8c1.7,0.6,3.5,1,5.4,0.9c2.2-0.1,4.4-0.1,6.6-0.1c6.8,0.1,13.5,1.2,20.2,1.8
		c1.9,0.2,3.9,0.6,5.8,1.2c4.3,1.4,8.6,3,12.8,4.6c3.5,1.3,7,2.4,10.6,3c2.1,0.3,4.2,0.7,6.1,1.4c1.9,0.7,3.8,0.8,5.8,0.5
		c3.4-0.4,6.8-0.8,10.2-1.5c6.8-1.3,13.3-3.5,19.3-7.1c1.4-0.8,2.7-1.7,3.7-3c2.3-2.6,4.6-5.2,6.9-7.7c0.7-0.8,1.5-1.7,1.6-2.8
		c0.3-1.9,0.7-3.9,0.5-5.9c-0.4-3.8-0.7-7.6-1.2-11.4c-0.5-3.8-1.2-7.5-2.4-11.1c-1,0.3-1,1.1-1.4,1.7c-0.4,0.6-0.8,0.9-1.6,0.8
		c-1.2-0.8-1-2.1-1.1-3.3c-0.1-2.2-0.2-4.4-0.8-6.6c-1-3.6-2.1-7.1-4.6-9.9c-0.3-0.4-0.5-0.9,0-1.3c0.9-0.2,1.3,0.6,1.8,1.1
		C875.1,473.6,875.7,474.7,877,475.1z M655.3,320.4c-3.6,0.5-7.1,0.5-10.7,0.4c-7.5-0.2-15,0.4-22.5,1.1c-4.3,0.4-8.6,0.1-12.9-0.1
		c-3.4-0.2-6.8-0.9-10.2-1.5c-6.4-1.1-12.9-2.2-19.4-1.9c-1,0-2-0.1-2.9-0.3c-2.8-0.6-5.5-1.2-8.3-2c-3-0.9-6.1-1.7-8.7-3.7
		c-0.7,0.6-0.9,1.4-1.2,2.2c-2.1,6.2-2.6,12.5-1.9,18.9c0.5,4,1.1,8,1.2,12.1c0,0.3,0.3,0.6,0.4,0.9c1.1,0.5,2.2,0.6,3.3,0.7
		c1.1,0.1,2.3,0.8,3.2,0.5c1.3-0.5,2.1,0.2,3.2,0.3c1.1,0.1,2.2,0.1,3.3,0.2c1,0,2-0.4,3.2,0.2c-1.9,1.4-3.9,2.1-6,2.3
		c-1.7,0.2-3-0.9-4.3-1.7c-1.6,1-3.3,0.2-4.9,0.7c0.1,1.5,0.8,2.6,1.5,3.7c3.7,0.6,7.3,1.3,10.9,1.9c2.5-1,5-0.8,7.6-0.1
		c7.6,2.1,15.3,3.9,23,5.2c1.5,0.3,3,0.5,4.2,1.4c1.1,0.8,2.2,1,3.4,1.2c4.1,0.7,8.2,1.8,12,3.5c4.3,1.9,8.5,3.9,12.8,5.8
		c1.6,0.7,3.1,1.4,3.9,2.6c4.3,1,8.2,1.9,12.2,2.9c6.4,1.7,12.8,2.3,19.4,1.8c2.7-0.2,5.4-0.5,8.1-0.8c0.7-0.1,1.5-0.1,2.2-0.9
		c0.8-6,1.6-12.2,2.4-18.3c-0.5-1.1-1.1-2-1.4-3.1c-0.4-1.6-1.4-2.9-2.6-3.9c-1.2-1.1-2.3-2.2-3.5-3.2c-1.6-1.3-2.8-2.8-3.6-4.6
		c-1.2-2.8-2.4-5.6-3.7-8.5c-0.3-0.6-0.3-1.5-1.1-1.8c-3.9,0.4-11.2-0.2-13.9-1.2c1.6-0.9,3-0.1,4.3-0.2c1.6-0.1,3.2-0.2,4.8-0.4
		c1.4-0.1,2.9,0.2,4.4-0.8c-0.1-1.3-0.2-2.7-0.3-4c-0.8,0.1-1.4,0.2-2.1,0.2C661.2,325.6,658.3,323,655.3,320.4z M795.8,542
		c1.5-0.8,2.8-0.1,4.2,0.5c3.8,1.7,7.7,3.3,11.7,4.4c2.6,0.7,5.1,0.7,7.7,0.3c3-0.4,6.1-0.8,9.1-1.3c3.4-0.6,6.8-0.6,10.4-1.8
		c-3.8-0.9-7.3-1.1-10.4-0.6c-1.5-0.2-1.4-1.5-2.2-1.8c-3-0.9-6-1.7-8.6-3.3c-2.7-1.6-5.3-3.5-8-5.2c-1,0.4-1.9,0.6-2.9,0.5
		c-2.6-0.4-5.1-0.7-7.7-0.7c-5.7,0-11.3-0.3-17-0.8c-0.9-0.1-1.9-0.3-3.1,0.2C784,536.5,789.8,538.9,795.8,542z M750.4,324.8
		c0.3,3,0.1,5.8-0.4,8.5c0.8,0.6,1.6,0.6,2.5,0.1c0.5-1.6,1.1-3.2,1.6-4.8c0.9-3,1-6-0.2-9c-0.5-1.2-0.9-2.5-1.4-3.8
		c-0.4-0.9-0.7-1.8-1.4-2.5c-1.4-1.4-2.3-3.1-3-5c-0.3-0.8-0.5-1.7-1.6-2c-1,0.3-2.2,0.3-3.2,1.4c0.5,5.6,3.6,10.2,6.1,15.1
		c0.8,0.4,2,0.1,2.3,1.4C751.3,324.3,751,324.5,750.4,324.8z M724.6,309.9c1.6,2.2,2.6,4.1,2.9,6.4c0.2,1.7,0.7,3.3,2,4.7
		c1.1,0.1,2.3,0.4,3.5,0.4c1.2,0,2.4-0.3,2.9-1.7c-0.1-0.3-0.2-0.6-0.3-0.8c-1.6-2.6-3.1-5.2-3.6-8.3c-0.1-0.7-0.5-1.4-1.6-1.8
		c-1,0.1-2.3,0.3-3.6,0.5C726.1,309.3,725.6,309.6,724.6,309.9z M680.3,392.5c-0.1-3.9,0.3-6.9-0.2-10.1c-1.2,0.3-2.3,0.4-3.3,0.8
		c-1,0.3-2.2,0.1-3.1,1.2c1.1,1.3,2.2,2.4,3.2,3.7C677.9,389.2,678.8,390.5,680.3,392.5z M1019.8,440.8c1.1,1.4,3.2,0.9,4.4,2.4
		c1.2,1.4,1.1,3.1,1.6,5c1.3-1.6,1.4-3.1,1.8-4.4c-0.6-1.2-1.6-1-2.3-1.4c-0.8-0.4-1.4-1-1.3-1.7c0.2-1.2,1.5-1.2,1.6-2.2
		c-1.1-0.5-2.3-0.7-3.6-0.5C1020.8,438.6,1020.1,439.5,1019.8,440.8z M1002.6,510.1c2-1.1,3.7-0.8,4.8-2.1c-0.3-1.2-1.4-1.4-2.1-2.1
		c-0.8-0.7-0.8-2.1-1.9-2.4c-0.8,0.1-1.2,0.4-1.5,1.3C1002.8,506.1,1002.8,507.8,1002.6,510.1z M1006.1,455c1.2-0.1,1.9-0.9,2-1.8
		c0.2-1.5,0.7-2.8,1.3-4.2c0.6-1.2,0.6-2.6-0.6-3.9c-1.3,2-1.6,4.3-2.2,6.3C1006.2,452.5,1005.5,453.6,1006.1,455z M1007.7,477.5
		c-1.2-1.3-2.1-2.9-2.2-4.8c0-0.1-0.3-0.3-0.5-0.4c-1,0.2-1.8,0.7-2,2c1.4,1.2,1.9,3,2.6,4.6c0.1,0.3,0.6,0.4,0.8,0.5
		C1007.1,479.1,1007.5,478.6,1007.7,477.5z M985.8,470.9c0.6,0.5,1.1,0.2,1.7,0c1.7-0.6,2.6-2.1,3.7-3.5c0.7-0.9,1.7-1.7,1.6-3.1
		C989.8,466.1,986.7,469,985.8,470.9z M1001.6,496.8c1.2-0.6,2.6-1,3.7-2.3c-1.1-0.9-2.1-1.7-3.2-2.6c-1.1,1-1.9,1.9-2.4,3
		C999.9,495.9,1000.4,496.4,1001.6,496.8z M981.7,514.7c-2.3-2.7-2.3-2.7-3.1-6.1c-0.5-0.2-1-0.2-1.4,0.1c-0.3,0.2-0.6,0.4-0.8,0.5
		c1.8,3.2,3.3,5.2,4.5,5.9C980.9,515.1,981.2,514.9,981.7,514.7z M996.5,464.9c2.4-1.3,4.4-3,6.1-5c-0.2-0.4-0.4-0.6-0.6-0.9
		C999.8,460.5,997.5,462.1,996.5,464.9z M971.8,525.4c0.5,0.3,0.8,0.6,1.1,0.7c1,0.2,1.9-0.3,2.8-0.8c0.5-0.4,0.8-0.9,0.9-1.5
		c-0.1-0.5-0.4-0.9-1.2-1.1C973.9,522.8,972.6,523.4,971.8,525.4z M656.4,314.2c0.4,0.7,0.7,1.4,1.7,1.7c0.4-1.4,1.3-2.6,2.3-4
		c-0.9,0-1.3,0-1.8,0c-0.5,0-1,0.1-1.3,0.2C656.7,312.7,656.5,313.2,656.4,314.2z M938.4,509.9c-0.4-2.3-0.8-2.9-3.3-4.8
		c-0.8,0.2-1.3,0.5-1.1,1.6C935.3,507.6,936.8,508.7,938.4,509.9z M1008,465.4c-0.7-0.7-1.3-1.1-1.8-1.6c-0.6-0.5-0.8-1.5-1.8-1.7
		c-0.8,0.5-0.8,0.5-1,1.9c2-0.2,2.4,1.9,4,2.7C1007.6,466.2,1007.8,465.9,1008,465.4z M963.7,502.1c-0.5,1.9-0.2,2.8,0.9,3.3
		c0.9,0,1.3-0.4,1.6-1.2c0-0.9-0.3-1.6-1.2-2.2C964.6,502.1,964.1,502.1,963.7,502.1z M966.3,525.7c-1.2,0.3-2.4,0.4-3.3,1.5
		c1.1,1.1,2.3,0.9,3.4,0.5C967,527.1,967.2,526.6,966.3,525.7z M1021,511.6c1.6-0.9,1.4-2.4,1.5-4.6c-1.1,1.6-2.2,2.3-2.6,3.5
		C1020,511.2,1020.3,511.5,1021,511.6z M1027.8,464.8c0.6-1.2,0.9-2.1,0.3-3.2c-1.1,0.2-2,0.6-2.5,1.7
		C1026.1,464,1026.7,464.4,1027.8,464.8z M998.6,520.6c2.1,0.4,2.1,0.4,3.8-1.2C1000.2,518.8,999.3,519,998.6,520.6z M1029.6,428.9
		c-1.6,1.2-1.6,1.2-1.9,2.6c1.2,0.2,2.1-0.1,2.8-1.1C1030.6,429.6,1030.2,429.2,1029.6,428.9z M967.8,513.3c1.2,0.6,2.2,1.2,3.3,0.4
		c0-1-0.6-1.4-1.3-1.6C969.1,512,968.4,512.2,967.8,513.3z M1011.9,516.8c-1.1-1.2-1.7-1.3-2.6-0.4c-0.2,0.6-0.2,1.2,0.6,1.6
		C1010.7,518,1011.5,517.7,1011.9,516.8z M976.8,475.8c0.3,0.8,0.7,0.8,1.2,0.7c0.7-0.2,1.2-0.7,1.5-1.4c0.1-0.4,0-0.7-0.4-1
		C978.3,474.4,977.4,474.8,976.8,475.8z M984.9,483.3c-0.5-0.3-0.8-0.5-1.2-0.8c-0.5,0.8-1.8,0.7-1.9,2.2
		C983,485,984.1,485,984.9,483.3z M979.2,491.4c0.9-0.5,1.2-1.1,0.6-2.1c-1.7,0.1-2.1,0.3-2.1,1.2
		C978,491.2,978.6,491.3,979.2,491.4z M952,520.9c-2.6-0.8-2.6-0.8-4,0.4C949.3,522,950.4,522.1,952,520.9z M1002.9,453.1
		c1-1.5,1-1.5,0.7-3.1C1002.7,451.2,1002.7,451.2,1002.9,453.1z M961,495.5c-0.4-2.6-0.4-2.6-2-3C959.3,493.8,959.9,494.6,961,495.5
		z M943.7,513c0.3,1.2,1.1,1.6,2.1,1.8c0.5-0.1,1-0.3,1.1-1C946,513.2,945.1,512.5,943.7,513z M969.9,488.8c0.6,0.4,1.2,0.2,1.7,0
		c0.4-0.2,1-0.2,1-0.9C971.1,487.3,971.1,487.3,969.9,488.8z M998.1,525.8c-1.2-0.7-2-0.3-2.7,0.9
		C996.6,527.3,997.5,527,998.1,525.8z M955.9,514.8c1.1,0.8,1.1,0.8,1.7-0.4C956.9,514,956.4,514.1,955.9,514.8z M1023.6,452.2
		c1.3-0.2,1.5-0.8,0.9-1.8C1023.8,450.7,1023.3,451,1023.6,452.2z M933,510.8c-0.1-1-0.4-1.6-1.3-1
		C931.6,510.6,932.1,510.9,933,510.8z M960.5,489c0.2-0.1,0.5-0.1,0.6-0.3c0.1-0.1-0.1-0.5-0.2-0.6c-0.4-0.2-0.7,0-0.7,0.4
		C960.1,488.6,960.4,488.8,960.5,489z M1013.3,444.8c-0.1-0.3-0.2-0.4-0.5-0.3c-0.1,0-0.2,0.2-0.2,0.2c0.1,0.2,0.2,0.3,0.3,0.5
		C1013.1,445.1,1013.2,444.9,1013.3,444.8z M1017.8,511.9c-0.4,0.4-0.4,0.8,0,1.2C1018.5,512.5,1018.5,512.5,1017.8,511.9z
		 M553.7,347.6c0.2,0.2,0.4,0.4,0.6,0.6c0,0,0.2-0.1,0.2-0.2C554.5,347.6,554.2,347.5,553.7,347.6z M956.5,482.9
		c0.2,0,0.3,0,0.5,0.1C956.8,482.9,956.6,482.9,956.5,482.9z M971.5,479.8l0,0.2l0.3-0.1L971.5,479.8z M1003.3,523.9
		c-0.1-0.1-0.2-0.3-0.4-0.5c-0.1,0.1-0.3,0.2-0.2,0.2c0,0.2,0.1,0.4,0.2,0.6C1003,524.2,1003.1,524,1003.3,523.9z"/>
	<path d="M539.4,523.1c-0.4,0.5-0.8,1-1.2,1.4c-1.5,1.6-3.4,2-5.4,1.4c-3-0.9-6-1.1-9.1-0.8c-1.6,0.1-3.2-0.1-4.8-0.3
		c-2.2-0.2-4.4-0.1-6.6,0.6c-1.7,0.6-3.6,0.9-5.4,1.2c-2.1,0.4-4.1-0.4-6.3-0.6c-2.4-2-5.1-3.3-7.9-4.6c-1.9-0.9-3.9-1.3-6.1-1.2
		c-4.8,0.2-9.1,1.8-13.4,3.7c-3.5,1.5-7,3.1-10.4,4.7c-0.9,0.4-1.8,0.8-2.6,0.3c-0.7-0.6-0.7-1.4-0.8-2.1c-0.4-2.8-0.6-5.5-1.6-8.2
		c-1-2.6-1.3-5.5-1.9-8.3c-0.3-1.2-0.4-2.4-0.9-3.6c-0.8-1.8-0.8-3.6-0.6-5.4c0.1-0.5,0.1-1,0.3-1.5c1.5-5.9,1-11.7,0-17.5
		c-0.6-3.4-0.7-6.8-1-10.4c-1.1-0.5-1.5-1.6-2-2.8c-4.2,0.8-8.4,1.2-12.5,0.7c-1.1-0.1-2.1-0.4-3-0.6c-0.2-0.5-0.1-0.7,0.2-0.7
		c3.1,0.2,6.1-0.2,9.1-0.8c2.4-0.5,4.8-0.8,7.3-1c0.3-0.9,0.7-1.7,0.9-2.5c2-7.2,5.2-13.8,9.2-20c1.2-1.9,2.5-3.7,3-5.9
		c0.1-0.5,0.2-0.9,0.3-1.3c-1-1.7-9.8-12.3-12-14.5c-5,0.6-10,1.1-15,1.7c-0.6,0.1-1.2,0.2-1.8,0.1c-7.2-0.3-14.1,1.7-21,3.4
		c-3.1,0.8-6.1,2-9.1,3.1c-2,0.8-3.9,1.6-6,1.8c-0.6,0.1-1.3,0.1-1.8,0.4c-2.2,1.1-4.5,1.1-7,1c-1.5,1.8-3.7,2.2-6,2.1
		c-3.5-0.1-6.9,0.2-10.2,1.2c-2.3,0.7-4.3,1.6-6.2,3.2c-2.9,2.4-6.1,4-10,4.2c-2.2,0.1-4.1,0.9-5,2.9c-4.4,0.9-8.5,2.2-12.6,3.6
		c-2.8,1-5.7,1.6-8.6,1.9c-3.7,0.3-7.3,1-10.9,1.9c-5.3,1.2-10.6,2.3-15.9,3c-5.8,0.8-11.7,1.6-17.5,2.6c-4.7,0.8-9.4,1.9-14.1,3
		c-6.1,1.4-12.3,2.5-18.6,2.9c-3.1,0.2-6.1,0.6-9.1,1.3c-3.2,0.7-6.4,0.7-9.6,0.6c-6.5-0.3-13-0.8-19.4-2.2c-0.2,0-0.5,0-0.7,0
		c-0.2,0.2-0.4,0.3-0.5,0.5c-1.4,3.3-2.7,6.6-4.2,9.8c-1.4,3.1-1.7,6.4-1.5,9.9c4.1,1.2,8.2,2.4,12.6,2.3c-4,2-8.3,2.3-12.7,2
		c-0.9,2.5-0.6,5-0.7,7.4c-0.1,0.7,0,1.5,0.6,2.1c0.9,0.5,1.9,0.3,2.8,0.3c10.5,0.2,20.9,0.4,31.4,0.5c5.7,0,11.3,0.3,17,0.7
		c5.3,0.3,10.6,0.4,15.8,1.1c6.2,0.8,12.5,0.8,18.7,1.6c9.3,1.2,18.7,1,27.9-0.8c5.8-1.1,11.5-2.7,17.1-4.5
		c3.7-1.2,7.5-2.2,11.3-3.3c4.1-1.1,8.3-2.2,12.4-3.3c0.5-0.1,0.9-0.3,1.4-0.3c5.2-0.3,10.3-1.2,15.5-0.8c2,0.1,3.9,0,6.5,0
		c-2.6-2.1-5.1-3-7.4-4.9c1.6-0.1,2.9,0.3,4.1,0.7c4.5,1.6,9.1,2.9,13.8,4.1c2.4,0.6,4.8,1.1,6.9,2.5c1.5,0.9,3.3,1,5,1.1
		c3.6,0.3,7.1,0.9,10.6,1.6c5.4,1,10.9,1.7,16.5,2.3c2.9,0.3,5.9,0.5,8.8,0.8c1.2,0.1,2.4,0.4,3.6,0.6c0.9,0.2,1.5,0.8,1.7,1.7
		c-0.3,1.3-1.3,1.7-2.5,1.7c-2.1,0.1-4.2,0.2-6.3,0.2c-7,0.2-14-0.4-20.9-1.6c-3.9-0.7-7.6-2.2-11.2-3.8c-5.8-2.6-11.8-4.2-18-5.6
		c-7.2,1.8-14.6,0.9-21.9,0.5c-2.1,1.7-4.6,1.9-7,2.4c-2.5,0.5-5,1.2-7.4,2.1c-3.8,1.4-7.7,2.5-11.6,3.7c-3,1-6.1,1.9-9.1,3
		c-6.4,2.2-13.1,3.3-19.8,4.5c-0.6,0.1-1.2,0.2-1.8,0.2c-5.8,0.2-11.6,0.4-17.3-0.1c-1-0.1-2-0.1-2.9-0.4c-4.3-1.3-8.7-1.4-13.1-1.8
		c-2.7-0.3-5.4-0.5-8.1-1c-2.3-0.4-4.7-0.3-7-0.4c-3.9-0.2-7.9-0.5-11.8-0.8c-2-0.1-3.9-0.2-5.9,0c-0.9,0.1-1.7,0-2.6,0
		c-4.9,0-9.8-0.1-14.8-0.1c-2.3,0-4.7,0.3-6.9-0.6c-0.3-0.1-0.7-0.1-1.1-0.1c-3.7,0-7.4,0-10.8,0c-1,0.8-0.1,1.3-0.2,1.8
		c0,0.5,0,1,0,1.4c-2.4,3.1-5.6,4.8-8.9,6.4c-3.4,1.6-7,2.2-10.7,2.8c-2.7,0.4-5.4,0.7-8.1,1c-2.5,0.3-4.9,0.7-6.8,2.5
		c-1,1-2.4,1.2-3.8,1.1c-1.2-0.1-2.5,0-3.8,0c-1.9,1.1-3.8,2.6-6.1,2.3c-1.1,0.3-1.4,1.4-2.3,1.4c-0.5,0-1-0.1-1.3-0.5
		c-0.9-1.1-1.3-2.4-1.4-3.7c-0.3-2.1-0.5-4.1-0.6-6.2c-0.2-2.6-0.9-5.1-2.2-7.3c-2.1-3.6-3.5-7.6-5.2-11.4c-0.9-2.2-0.9-4.6-0.7-6.9
		c0.4-4.2,0.9-8.3,2.3-12.3c0.7-1.9,1.3-3.7,2.9-5.1c0-5.6-2.4-10.6-3-16c-3.1-3-3.4-6.6-2.7-10.6c1.2-6.8,2.2-13.6,3.4-20.4
		c0.6-3.5,1.6-6.9,2.4-10.4c0.1-0.6,0.3-1.3,0.7-1.7c1.3-1.3,1.8-2.9,2.5-4.5c2.2-4.4,5.2-8.3,8-12.4c0.7-1,1.5-1.9,2.4-2.5
		c1.3-0.5,2.2,0,2.9,0.6c2.3,2.1,5.1,3.4,7.8,4.9c2.2,1.2,4.3,2.5,5.6,4.9c-0.3,1.1-0.5,2.4-0.1,3.8c0.7,3,1.7,5.9,1.7,9
		c0,0.6,0.3,1.2,0.5,1.7c1.7,3.7,3.4,7.4,4.7,11.2c0.3,1,0.8,1.8,1.5,2.5c0.6,0.6,1.2,1.3,1.9,1.8c4.3,3.5,8.7,6.9,13,10.3
		c0.9,0.7,1.7,1.5,2.8,1.2c1.8,1.8,3.4,3.5,4.9,5.2c1,1.1,2.1,2.1,3.3,2.9c1.4,1,2.8,2.1,3.9,3.3c1.6,1.6,2.8,3.4,2.5,5.6
		c-0.7,1-1.4,1.1-2,0.5c-0.6-0.6-1-1.3-1.5-2c-0.8-2.2-2.8-3.3-4.5-4.7c-1.4-1.1-2.8-2-3.8-3.5c-0.4-0.6-0.6-1.4-1.6-1.4
		c-4.2,3.2-8.8,5.3-14.2,5.5c-0.2-0.3-0.4-0.5-0.6-0.9c1.7-2.2,4.2-3.4,6.6-4.7c1.4-0.7,2.8-1.5,4.2-2.2c0.3-0.2,0.4-0.3,0.1-0.8
		c-0.4-0.6-1.1-1-2.1-1.3c-3.2,2.3-6.7,3.9-10.8,1.9c0.9-2.4,0.9-2.4,5.6-6.2c-1.5-1.3-2.7-2.8-4.7-3.5c-1.4,1-2.7,2-4.4,2
		c-1.7,0-3.4-0.1-4.6-1.6c0.2-2.8,3-2.7,4.4-4.1c-0.1-1.1-0.9-1.7-1.7-2.3c-0.9-0.2-1.9-0.3-3-0.5c-0.5-1-2-1.5-1.6-2.9
		c0.7-0.9,2.1-0.3,2.5-1.7c-0.6-1.4-1.5-2.9-2.1-4.5c-0.9-2.3-2.6-4.3-2.6-6.8c-0.1-4.3-1.6-8.2-2.3-12.4c-1.3-0.7-2.6-1.4-3.9-2.1
		c-1.2-0.6-2.4-1.2-3.6-1.8c-1.3-0.7-2.5-1.5-3.9-2.4c-2.8,6-8,9.9-11.6,14.8c0.1,2.7-0.2,5.1-0.7,7.5c-0.6,3-1.2,6-1.5,9.1
		c-0.3,3.6-0.9,7.1-1.8,10.5c-1.2,4.1-1.3,8.3-0.2,12.4c1.3,4.9,2.6,9.7,3.7,14.6c0.5,2.1,0.7,4.1,0.3,6c-1,1.7-2.9,2.4-3.5,4.1
		c0.2,0.9,0.4,1.8,0.1,2.8c-0.5,1.6-0.8,3.4-0.6,5.1c0.3,2.2,0.7,4.4,0.9,6.6c0.4,3.6,1.7,6.9,2.3,10.4c0.3,1.6,0.8,3.1,1.6,4.5
		c1.5,2.3,2.3,4.9,2.5,7.6c0.1,1,0.3,1.9,0.5,2.9c1.3,0.9,2.1,2.2,3.6,2.3c3.3-1.9,3.3-1.9,9.4-2.3c2.3-2,5.2-2.9,8.3-3.2
		c2.2-0.2,4.4-0.6,6.6-0.9c4.2-0.6,8.5-1.3,12.9-2c1.8-1.3,4.3-1.8,5.9-4c-1.9-0.6-2.9-1.7-3.9-3c-2.7-3.5-5.5-6.9-9.2-9.5
		c-1.7-1.2-2.8-2.7-3.1-4.6c0.1-1,0.1-1.9,0.2-2.7c0.4-3.8,1.1-7.4,3.7-10.5c4.5-5.4,9.9-9.9,14.9-15.1c2.2,0.6,4.4,0,6.5-0.4
		c1-0.1,2-0.1,2.9-0.1c0.6,0,1.2,0.1,1.8-0.2c0,0.9,0.1,1.7-0.5,2.7c2.4,0.4,4.5,1,6.7,1.1c2,0.1,3.9,0.3,5.9,0.6
		c3.2,0.5,6.3,0.2,9.5-0.4c5.1-0.9,10.2-1.2,15.4-1.8c4.9-0.5,9.7-1.2,14.5-2.3c6.5-1.5,13-2.7,19.6-3.5c3.9-0.5,7.8-1.1,11.7-1.7
		c1.1-0.2,2.2-0.5,3.2-0.8c3.7-1,7.3-2.1,11-3.1c3.8-1.1,7.7-1.8,11.6-2c3.3-0.2,6.6-0.7,9.8-1.6c2.6-0.7,5.2-1.3,7.9-1.8
		c1.8-0.3,3.3-0.8,4.5-2.2c1.2-1.4,2.8-2.1,4.6-1.8c3,0.5,5.1-1.3,7.4-2.7c0.5-0.3,0.9-0.8,1.4-1.2c1.9-1.7,4-2.7,6.5-3.1
		c3.8-0.6,7.5-1.1,11.4-0.9c2,0.1,3.9-0.2,5.7-1.2c0.8-0.5,1.8-0.8,2.8-0.9c2.3-0.2,4.3-1.1,6.2-2.2c7-3.9,14.5-5.7,22.4-7
		c4.6-0.7,9.2-1.3,13.9-1.5c4.9-0.1,9.8-0.9,14.7-1.3c1.1-0.1,1.7-0.9,2.7-1.1c0.6,0.1,1.2,0.2,1.8,0.4l-0.1-0.1
		c0.1,0.5,0.4,0.8,0.9,0.9l-0.1-0.1c0.4,1.8,1.8,2.9,2.9,4.2c2.6,3,5.3,5.8,7.9,8.8c1.7,1.9,2.2,4.1,1.8,6.5
		c-0.2,1.5-0.6,2.9-1.3,4.2c-0.7,1.3-1.4,2.6-2.2,3.9c-2.6,4.1-5.1,8.1-7.7,12.2c-1.5,2.4-3,4.8-3.4,7.8c1.6,1.7,2,3.9,2.1,6.3
		c0.1,2.8,0.5,5.6,1.5,8.1c3.9,0.8,4.2,0.8,7.3,0.1c0.6-1.9,1.4-3.8,2-5.8c1.9-6.7,5.3-12.7,8.8-18.6c0.4-0.6,0.8-1.2,1.3-1.8
		c2.2-2.9,5-5.3,8.2-6.7c3.5-1.6,6.8-3.4,10.2-5.1c6.6-3.3,12.3-7.6,17.1-13.3c0.2-0.3,0.5-0.5,0.8-0.8c1.2-1.2,2.4-2.5,3.6-3.7
		c1.3-1.3,1.8-3.1,2.5-4.6c1.2-0.6,1.9-0.3,2.3,0.7c0.2,1-0.4,1.9-0.8,2.8c-3.9,7.5-9.3,13.9-16.3,18.7c-0.2,0.1-0.4,0.3-0.6,0.4
		c-3.4,2.3-7.1,3.9-10.7,5.7c-1.9,1-3.8,1.8-5.8,2.2c-1.2,0.3-2.3,0.8-3.3,1.5c-2.2,1.4-3.9,3.3-5.1,5.7c-2.1,4.1-4.2,8.1-6.1,12.2
		c-1.5,3.2-2.3,6.6-3.3,10.3c3.4,0.3,6.4-1.2,10-1c-3.5,2-7.2,1.9-10.8,3.1c-0.6,5.1-2.8,9.8-3.3,15c-1.2,0.4-1.8-0.3-2.2-1.3
		c-0.8-2-0.6-4.1-0.3-6.2c0.3-1.7,0.8-3.4,1.1-5c0.1-0.7,0.5-1.4-0.4-2.2c-1.8-0.1-3.7-0.3-5.6,0.3c0.2,1.6,0.2,3.1,0.5,4.5
		c0.5,2.8,0.2,5.6-0.2,8.4c-0.2,1.5-0.6,2.9-1,4.3c-0.3,1.1-0.5,2.1-0.3,3.1c0.5,1.7,1.8,2.5,2.8,3.5c0,1-1.2,1-1.4,2
		c0.3,1.2,0.7,2.6,1.1,4c0.8,3.1,2,6.1,2,9.3c0,0.6,0.1,1.2,1,1.6c0.5-0.2,1.2-0.4,1.9-0.7c2.4-1.1,4.7-2.2,7-3.3
		c4.5-2,9.1-3.7,14.1-4.2c2.4-0.2,4.7,0,6.9,0.9c2.6,1.1,5.3,2.1,7.6,3.8c1.8,1.3,3.8,1.7,5.9,1.7c1.6-0.1,3.2-0.2,4.7-0.3
		c0.7-0.5,1.2-0.9,1.8-1.3c1.8,0.1,3.5,0.2,5.2,0.3c2,0.1,4,0.2,5.9-0.3c2.4-0.6,4.9-0.5,7.2-0.4c1.2,0.6,2.3,1.1,2.9,1.4
		c1.9,0,3.2,0,4.6,0l-0.1-0.1C538.8,522.7,539.1,522.9,539.4,523.1L539.4,523.1z M215.1,465c-1.3-0.4-2.4,0.2-3.3,1.1
		c-3.1,2.9-6.4,5.8-9.4,8.9c-1.9,1.9-3.7,3.9-5.1,6.4c0.2,1.6-0.9,3.4-0.5,4.7c0.6,2.7,2.2,4.8,4,6.4c2.3,2.1,4.2,4.7,6.9,6.4
		c0,0.1,0,0.2,0,0.3c0,0.1,0.1,0.1,0.2,0.1c-0.1-0.1-0.2-0.2-0.3-0.3c-0.1-0.5,0-1-0.2-1.4c-1.4-4-1.6-8.2-1.1-12.3
		c0.3-3.3,0.5-6.6,2.3-9.5C210.7,472,212.9,468.4,215.1,465c0-0.1,0-0.2,0-0.3C215.1,464.8,215.1,464.9,215.1,465z"/>
	<path d="M329.5,471.2c0.3-0.4,0.7-0.3,1-0.3c2.1,0.3,4.1,0.8,6.2,0.9c4,0.2,7.7,1.5,11.4,2.5c0.8,0.2,1.6,0.6,2.2,1.2
		c0.3,0.3,0.4,0.6,0.2,1c-0.4,0.4-0.9,0.3-1.4,0.2c-6.5-1.5-12.9-3.9-19.5-4.9c-0.1,0-0.1-0.2-0.2-0.3
		C329.4,471.4,329.5,471.3,329.5,471.2z"/>
	<path d="M390,436.9c0.7,0.2,1,0.5,1.1,1.1c-0.1,0.2-0.1,0.6-0.2,0.7c-1,0.7-2,1.4-2.9,2.1c-2.3,1.8-4.6,3.6-6.7,5.8
		c-0.5,0.5-0.9,1.1-1.7,1.1c-0.5-0.3-0.5-0.7-0.2-1c1.1-1.6,2.3-3.1,3.5-4.7c1-1.4,2.3-2.6,3.6-3.6
		C387.6,437.5,388.7,436.9,390,436.9z"/>
	<path d="M377.1,456.4c-1-0.1-1.9-0.5-2.4-1.4c-0.9-1.8-1.1-3.7-0.5-5.7c0.4-1.3,1.3-2,2.9-1.8c0.6,2.3,0.6,4.7,0.9,7.1
		C378.1,455.2,378,455.9,377.1,456.4z"/>
	<path d="M311.9,470.8c3-1.7,6.2-2,9.5-1.4c0.3,0.1,0.7,0.3,0.6,0.8c-0.1,0.1-0.2,0.4-0.4,0.4C318.4,470.7,315.1,471.2,311.9,470.8
		L311.9,470.8z"/>
	<path d="M363.5,448.4c-0.8-0.8-0.8-1.7-0.4-2.7c0.5-0.9,1.6-1.2,2.5-0.7c0.9,0.6,1.1,1.8,0.4,2.6
		C365.5,448.2,365.2,448.3,363.5,448.4z"/>
	<path d="M227.2,489.7c0.2-0.4,0.4-0.7,0.6-1c2-0.5,3.7,0.6,5.5,0.9C231.3,489.5,229.3,491.6,227.2,489.7z"/>
	<path d="M429.9,467.8c-1.4,1.3-1.4,1.3-6.6,0C425.8,467.8,427.6,467.8,429.9,467.8z"/>
	<path d="M377.7,484.2c0.2,1.2-0.7,1.4-1.5,1.7c-0.6,0-1.2-0.3-1.4-0.9C375.6,484.1,376.6,483.8,377.7,484.2z"/>
	<path d="M367.8,481.9c-1.7,1.7-1.8,1.7-4,0C365.1,481.5,366.3,481.6,367.8,481.9z"/>
	<path d="M240.7,490.3c-1.1,0.6-2.1,0.5-2.9-0.6C239.5,489.1,239.5,489.1,240.7,490.3z"/>
	<path d="M355.3,481c1.3-0.5,2.4-0.5,3.5,0.3C357.1,482.3,357.1,482.3,355.3,481z"/>
	<path d="M289.1,476.1c-0.3,1-0.9,1.3-1.9,1C287.9,476,287.9,476,289.1,476.1z"/>
	<path d="M296.2,474.4c-0.7,0.5-1.1,0.5-1.5,0.3C295,474.3,295.3,473.7,296.2,474.4z"/>
	<path d="M302,472c0.8-0.6,1.3,0,1.8,0.5C303,472.9,302.4,473,302,472z"/>
	<path d="M420.8,468.2c-0.9,0.8-1.7,0.6-2.6,0C419,467.7,419.8,467.5,420.8,468.2z"/>
	<path d="M245.8,490.3c0.4-0.3,0.8-0.4,1.3,0C246.6,490.9,246.2,490.8,245.8,490.3z"/>
	<path d="M252.2,489.5c0-0.4,0.3-0.6,0.7-0.6c0.2,0,0.3,0.3,0.2,0.5C252.8,489.7,252.5,489.8,252.2,489.5z"/>
	<path d="M311.8,470.7c-0.4,0.7-1,0.9-1.8,0.2C310.7,470.8,311.3,470.8,311.8,470.7L311.8,470.7z"/>
	<path fill="none" d="M538.7,522.5c-1.3,0-2.7,0-4.6,0c-0.6-0.3-1.7-0.8-2.9-1.4c-2.4-0.2-4.8-0.3-7.2,0.4c-1.9,0.5-3.9,0.5-5.9,0.3
		c-1.7-0.1-3.4-0.2-5.2-0.3c-0.6,0.4-1.2,0.8-1.8,1.3c-1.5,0.1-3.1,0.3-4.7,0.3c-2.1,0.1-4.1-0.4-5.9-1.7c-2.3-1.7-5-2.7-7.6-3.8
		c-2.2-0.9-4.5-1.1-6.9-0.9c-5,0.5-9.6,2.2-14.1,4.2c-2.4,1-4.7,2.2-7,3.3c-0.7,0.3-1.4,0.5-1.9,0.7c-0.9-0.4-1-1-1-1.6
		c0-3.3-1.3-6.2-2-9.3c-0.3-1.4-0.8-2.8-1.1-4c0.3-1.1,1.4-1,1.4-2c-1-1-2.3-1.8-2.8-3.5c-0.2-0.9,0-2,0.3-3.1
		c0.4-1.4,0.8-2.9,1-4.3c0.4-2.8,0.8-5.6,0.2-8.4c-0.3-1.4-0.3-2.9-0.5-4.5c2-0.6,3.9-0.4,5.6-0.3c0.9,0.8,0.5,1.5,0.4,2.2
		c-0.3,1.7-0.8,3.3-1.1,5c-0.3,2.1-0.6,4.2,0.3,6.2c0.4,1,1,1.7,2.2,1.3c0.5-5.2,2.7-9.9,3.3-15c3.6-1.2,7.3-1.1,10.8-3.1
		c-3.5-0.2-6.5,1.3-10,1c1-3.6,1.8-7.1,3.3-10.3c2-4.1,4-8.2,6.1-12.2c1.2-2.3,2.9-4.2,5.1-5.7c1.1-0.7,2.1-1.2,3.3-1.5
		c2.1-0.4,4-1.3,5.8-2.2c3.6-1.8,7.3-3.5,10.7-5.7c0.2-0.1,0.4-0.3,0.6-0.4c7-4.9,12.4-11.2,16.3-18.7c0.4-0.9,1-1.7,0.8-2.8
		c-0.4-1-1.1-1.2-2.3-0.7c-0.7,1.5-1.2,3.3-2.5,4.6c-1.2,1.2-2.4,2.5-3.6,3.7c-0.3,0.3-0.5,0.5-0.8,0.8c-4.7,5.7-10.5,9.9-17.1,13.3
		c-3.4,1.7-6.7,3.5-10.2,5.1c-3.2,1.4-6,3.8-8.2,6.7c-0.5,0.6-0.9,1.2-1.3,1.8c-3.6,5.9-7,11.9-8.8,18.6c-0.6,2-1.3,3.9-2,5.8
		c-3,0.7-3.4,0.7-7.3-0.1c-1-2.5-1.4-5.3-1.5-8.1c-0.1-2.4-0.5-4.6-2.1-6.3c0.5-3,1.9-5.4,3.4-7.8c2.6-4.1,5.2-8.1,7.7-12.2
		c0.8-1.2,1.5-2.6,2.2-3.9c0.7-1.3,1.1-2.7,1.3-4.2c0.4-2.5-0.1-4.6-1.8-6.5c-2.6-2.9-5.3-5.8-7.9-8.8c-1.1-1.3-2.5-2.4-2.9-4.2
		c0.6,0.1,1.2,0.2,1.8,0.3c2.4,0.7,4.8,0.6,7.3,0.1c5.2-1.1,10.3-2.2,15.6-3c4.7-0.7,9.6-0.9,14.3-1.2c1.8-0.1,3.7-0.1,5.5-0.7
		c0.7-0.2,1.4-0.2,2.2-0.1c6.8,0.5,13.5,0.4,20.3-0.1c8.2-0.6,16.5-0.8,24.7-1.4c6.3-0.4,12.5-0.3,18.8-0.5c0.5,0,1,0.1,1.8,0.1
		c-1.5,2.1-3.2,3.6-5,5c-1.8,1.4-4.3,1.6-6.6,2.3c-1.1,0.4-2.2,0.1-3.4-0.3c-7.5,3.2-13.3,8.7-17.5,15.6c-2.4,4-4.5,8.2-6.8,12.3
		c-0.4,0.8-0.8,1.5-0.1,2.5c1.3-1,2.1-2.4,2.8-3.7c1.6-2.9,3.2-5.8,4.8-8.7c0.9-1.5,1.8-3,2.7-4.4c2-3.1,4.5-5.4,7.8-7.1
		c3.7-1.9,7.4-3.9,11.5-5c2.5-0.7,4.7-2,6.9-3.3c5.4-3,10.6-6.3,15.7-9.6c4.2-2.8,8.3-5.7,12-9.2c1.7-1.6,3.7-2.9,5.9-3.8
		c4-1.6,7.8-3.6,11.6-5.7c8.2-4.8,17.1-8.1,26.1-11.6c9.7,5.9,20.3,7.5,31.6,6.4c1.4,1.8,2.8,3.5,4.1,5.3c1.5,1.8,2.9,3.6,4.8,5.1
		c1.9,1.5,2.6,3.4,2.6,5.8c-0.1,9.5-0.2,19,0.1,28.4c0.2,9.5,1,18.9,3.7,28.1c0.4,1.3,1.1,2.5,0.7,3.8c-0.6,0.7-1.5,0.1-2.1,0.5
		c-0.6,0.4-1.2,0.9-1.9,1.4c-1.5-1.2-2.7-2.8-4.6-3.6c-1.8-0.8-3.6-1.6-5.4-2.3c-6.7-2.5-13.5-4.6-20.5-5.8c-0.4-0.7-1-0.9-1.8-0.7
		c0.4,0.8,1.2,0.5,1.9,0.6c1.6,1.6,3.7,2.3,5.7,3.1c5.8,2.3,11.7,4.4,17.6,6.7c1.9,0.7,3.9,1.6,5.4,3.4c-2.4,2.5-4.9,4.8-7.2,7.3
		c-2.3,2.5-4.5,5.2-6.8,7.8c-0.6,0.1-1.2,0.3-1.7,0.4c-0.9,0.6-0.8,1.8-1.4,2.5c-0.2,0.2-0.4,0.3-0.6,0.4c-2.4,0.8-4.5,2-6.4,3.5
		c-1.4,1.1-2.9,1.9-4.6,2.3c-1.3,0.3-2.6,0.8-3.6,1.7c-7,0.6-14,0.4-21,0.2c-4.8-0.1-9.6-0.2-14.4-0.3c-1.5,0-2.9,0.1-4.8,0.2
		c0.9,0.3,0.1-0.1,0.3,0.4c0,0.1,0.2,0.2,0.3,0.2c2.1,0.3,4.1,0.6,6.2,0.8c8.8,0.7,17.6,1.3,26.5,1c2.5-0.1,4.9-0.4,7.3-1
		c2.5-0.7,5.1-0.8,7.4-2c2.3-1.1,4.7-2.2,7.1-3.3c0.8,0.7,0.6,1.8,0.8,2.6c0.2,0.8,0.2,1.7,0.3,2.4c-0.4,1.5-1,2.7-2.1,3.6
		c-4.2,3.6-8.4,7.1-12.7,10.7c-0.2,0.1-0.5,0.1-0.7,0.1l0.1,0.1c-0.4-0.4-0.8-0.9-1.2-1.3c-3.4,0.1-6.3,1.6-9.5,2
		c-1.8,1.9-4.5,1.8-6.7,2.7c-3.1,1.3-5.9,3.1-8.2,5.5c-1,1.1-1.8,2.3-2.3,3.7c-0.3,0.9-0.4,1.9,0.7,2.8c2.1-2.2,3.1-5,5.5-6.8
		c2.3-1.7,4.7-3.1,7.5-3.8c2.9-0.7,5.8-0.8,8.6-0.8c0.8,0.9-0.5,1.4,0,2.1c0.3,0.4,0.7,0.3,1,0c2.4-2,5-3.6,7.6-5.3
		c4-2.6,7.6-5.8,11.3-8.8c2.5-2,3.5-4.6,3.5-7.8c0-1.2-0.1-2.5-0.2-3.7c-0.1-2-0.1-3.9,0.4-5.9c1.9-1.3,3.5-3,5.8-3.7
		c-1,1.3-1.4,2.8-1.6,4.4c-0.9,5.3-1.9,10.6-2.7,15.9c-0.7,4.3-1.6,8.6-1.7,13c-0.7,0.6-0.6,1.4-0.7,2.2c-0.8,0.6-0.7,1.5-0.7,2.3
		c-0.5,0.4-0.8,0.8-0.3,1.7c0.1-0.8,0.1-1.3,0.2-1.8c0.9-0.6,0.6-1.5,0.7-2.3c1-0.5,0.7-1.4,0.7-2.2c1.4-2.1,1.8-4.5,2.3-6.8
		c1.1-5.4,2.1-10.8,3.1-16.2c0.3-1.6,0.5-3.1,0.8-4.7c0.3-1.7,0.7-3.3,1-5c-0.5-0.2-0.9-0.3-1.2-0.4c0.1-0.3,0.2-0.7,0.5-0.9
		c0.6-0.6,1.1-1.3,2.3-1.5c0.5,3.3-0.7,6.5-0.6,9.7c0,3.3-1.5,6.4-1.2,9.8c1.8-7,3.6-14,3.7-21.4c3-3.4,6.8-6.1,9.8-9.8
		c1.1,3.6,2.5,7.1,2.6,10.6c1.6,3,2.6,5.8,2.6,9.2c-0.1,4.5,0.1,9.1,1.6,13.5c0.4,1.3,0.8,2.6,1.5,3.2c1,1,1.7-0.2,2.4,0.3
		c0.6,0.4,1.3,0.6,2,0.9c0.7-0.3,1.4-0.6,2-0.8c2.6,0.8,4.8,2.2,6.7,3.9c4.3,3.8,9.4,6.3,14.6,8.5c1.9,0.8,3.9,1.5,5.9,2
		c1.8,0.5,3.6,0.8,5.4,0.5c3.4,1.6,6.6,3.4,10.1,4.1c0,0.8-0.2,1-0.5,1.2c-2.4,1.7-4.7,3.5-7.5,4.7c-0.4,0.2-0.9,0.5-1.2,0.8
		c-0.6,0.6-1.5,0.9-1.8,1.9c1.5,0,2.9-0.3,4.4-1c1.1-1.9,2.9-3.1,5.2-3.5c2.1-0.4,4-1.2,5.9-2.2c2.4,0.8,4.5,1.9,6.6,3.1
		c4.6,2.6,9.4,4.8,14.7,5.9c1.4,0.3,2.9,0.6,4.3,0.8c0.7,0.5,0.5,1.3,0.7,2c0.3,1.4,1.1,2.4,2.1,3.4c1.5,1.5,3.2,2.7,5,3.8
		c4.9,2.9,10.2,4.9,15.9,5.8c2.5,0.4,4.7,1.3,6.9,2.7c-0.4,0.8-1.2,0.6-1.8,0.8c-0.6,0.2-1.2,0.2-1.8,0.3
		c-7.2,1.1-14.5,0.9-21.7,0.5c-7.5-0.4-15-1.2-22.4-2.6c-2.8-0.5-5.5-1.1-8.3-1.8c-4.9-1.2-9.8-2.2-14.8-3.1c-2-0.3-4-0.6-5.9-0.2
		c-3,0.6-5.9,0.1-8.8-0.4c-8.1-1.4-16.3-2.5-24.5-3.2c-3.6-0.3-7.1-0.5-10.7-0.4c-10.1,0.1-20.2-0.2-30.3-0.6c-0.9,0-1.7-0.1-2.6,0
		c-2.1,0.2-4.2-0.1-6.1-1c-1.6-0.7-3.3-1-5-1c-0.6,0-1.2,0.1-1.8-0.4c-0.1-0.8,0.6-1.3,1-1.8c4.4-5.4,6.8-11.6,8.1-18.4
		c0.1-0.6,0.2-1.2-0.5-1.7c-0.5-0.2-1,0.1-1.2,0.5c-0.4,0.9-0.8,1.8-1.1,2.7c-1,2.6-2.2,5.2-3.7,7.6c-3.7,6.1-8.8,10.5-15.5,13.1
		c-2.5,1-5,2.1-7.4,3.4c-1.4,0.7-2.7,1-4.2,0.6c-1.8-0.5-3.6-0.7-5.5-0.8c-1.2-0.1-2.4-0.4-3.6-0.8c-1.9-0.7-3.8-1-5.8-1.2
		c-7.8-0.8-15.7-1.6-23.5-2.4c-3-0.3-6-1.2-9.1-0.9c-0.2,0-0.5-0.1-0.7-0.1c-4.4-1.7-8.7-3.4-12.1-6.8c-0.9-1-2-1.8-3.1-2.6
		c-5.1-3.7-10-7.6-14.8-11.7c-1.6-1.3-3.2-2.7-4.9-3.5c-1.1-0.1-1.6,0.3-2,1.2c0.1,0.3,0.1,0.7,0.3,0.9c0.9,0.9,1.8,1.6,2.8,2.4
		C533.4,517.6,536.4,519.7,538.7,522.5z M591.1,495.1l-0.2,0.1L591.1,495.1c0.3-0.2,0.6-0.4,0.7-0.9c0.1,0,0.3,0.1,0.4,0
		c3.8-2,6.2-5.4,8-9.2c0.3-0.5,0.3-1.2-0.5-1.4c-2,2.7-3.9,5.3-5.9,8c-0.6,0.9-1.5,1.6-1.9,2.7C591.6,494.6,591.3,494.9,591.1,495.1
		z M585.9,502.6l-0.2,0.1L585.9,502.6c0-0.2,0.1-0.3,0.2-0.3C586.1,502.3,586,502.4,585.9,502.6z M612.5,454.4l0.2-0.1L612.5,454.4
		c-0.2,0.4-0.4,0.6-0.7,0.9c-2.2,0.6-3.3,2.3-4.4,4c-1.6,2.4-2.7,5.1-3.6,7.9c-0.1,0.4,0,0.9,0,1.4c-0.9,0.3-1.6,1-2.7,0.8
		c-1.7-0.3-3.4,0.2-5.1,0.7c-8.2,2.1-16.4,4.3-24.5,6.5c-4,1.1-7.9,2.7-11.7,4.4c-1.1,0.5-2.4,0.8-2.6,2.3c-0.2,0.1-0.7,0-0.3,0.5
		c0.1-0.2,0.1-0.4,0.2-0.5c0.7,0.2,1.2-0.2,1.7-0.4c4.9-1.9,9.8-3.7,14.9-5c7.5-1.8,14.9-3.8,22.4-5.6c1.1-0.3,2.1-0.6,3.2-0.7
		c1-0.1,2.1,0.1,3.1,0.1c0.6-1,1.1-2,1.2-3.1c1.2-1.2,1.9-2.8,2.6-4.4c1.4-3.2,3.1-6.3,5.5-9C612,454.9,612.2,454.7,612.5,454.4z
		 M634.6,439.6c0.1-0.1,0.1-0.1,0.2-0.2C634.8,439.5,634.8,439.6,634.6,439.6c-0.2,0.1-0.7,0-0.2,0.5
		C634.5,440,634.6,439.8,634.6,439.6z M596.2,532.1c0-0.5-0.1-0.8-0.7-0.8c-0.9-2.1-1-2.2-3.7-3.1c1.3,1.5,2.2,2.6,3.7,3.1
		C595.6,531.7,595.8,532,596.2,532.1l0.2,0.1L596.2,532.1z M624.3,446.2c0.6-0.1,1.2,0.1,1.6-0.6c0.6,0,1.2-0.1,1.5-0.7
		c0.9-0.3,1.7-0.6,2.1-1.6c0.6,0,1.2,0,1.5-0.6l0.1-0.1l-0.1,0.2c-0.6,0.1-1.2,0-1.5,0.7c-0.9,0.2-1.9,0.4-2.1,1.6
		c-0.6-0.1-1.2,0-1.5,0.7C625.4,445.9,624.9,446.1,624.3,446.2C624,446.5,624.3,446.2,624.3,446.2z M655.3,426.2
		c0.6-0.1,1.2,0.1,1.6-0.6c0.9-0.2,1.8-0.5,2.2-1.5c1.1,0.1,1.9-0.3,2.2-1.5c0.4,0,0.8,0.1,1.1-0.1c4.4-2.7,8.7-5.5,12.5-9.1
		c0.2-0.2,0.5-0.6-0.1-0.9c-0.3,0.2-0.6,0.3-0.9,0.5c-3.6,3-7.4,5.7-11.2,8.3c-0.5,0.3-1.1,0.6-1.2,1.3c-1,0.1-1.7,0.6-2.2,1.5
		c-1,0.1-1.8,0.6-2.1,1.5C656.3,425.7,655.8,426,655.3,426.2C655.3,426.3,655.3,426.3,655.3,426.2z M529,503.9
		c0,0.5,0.2,0.8,0.8,0.7c0.3,1.3,0.3,1.3,1.2,1.6c-0.2-0.7-0.6-1.2-1.3-1.6C529.7,504.3,529.5,504,529,503.9
		c-0.2-0.9-0.6-1.7-1.5-2.1c0.2-1.2-0.6-2.1-1-3.1c-3.5-8.5-5.1-17.2-1.7-26.2c0.1-0.4,0.1-0.7-0.2-1c-0.8,0-1,0.6-1.2,1.1
		c-1.5,3.3-2.1,6.8-2,10.4c0.2,5.7,1.4,11.2,4.1,16.3c0.5,0.9,0.8,2.1,2.1,2.3C527.5,502.8,528,503.5,529,503.9z M573.3,522.5
		c0.5,0.1,0.9,0.7,1.5,0.3C574.2,522.6,573.7,522.6,573.3,522.5c-1.1-1-2.3-1.6-3.8-2.2C570.5,522.1,570.5,522.1,573.3,522.5z
		 M649.4,523.8c0.1,0,0.3-0.1,0.3-0.1c1.6-4,2.8-8.1,3.9-12.2c0-0.1-0.3-0.4-0.4-0.5c-0.6-0.1-1,0.4-1.1,0.8
		C650.8,515.7,649.5,519.6,649.4,523.8c-0.4,0.4-0.6,0.9-0.3,1.5C649.5,524.9,649.4,524.3,649.4,523.8z M488,478.7
		c0.9-2,2-3.3,3.2-4.6c1.9-1.9,3.7-4,5.7-5.7c2.2-1.9,3.5-4,3.8-6.9c0.2-2.3,1.1-4.2,2.4-6.1c2.6-3.9,5.9-7.2,9.4-10.3
		c2.8-2.4,5.8-4.7,8-8.2c-1.4,0.1-2.3,0.8-3.1,1.4c-2.5,2-5.1,3.9-7.4,6.1c-3.6,3.3-7.2,6.8-9.5,11.2c-0.9,1.8-1.7,3.5-1.7,5.6
		c0.1,2.4-1,4.1-2.8,5.7c-2.9,2.5-5.7,5.1-8,8.2c-2.8,3.9-5.5,7.9-7.8,12.1c-3.3,5.8-4.9,12-5.7,18.6c-0.3,2.3-0.3,4.6,0.1,6.9
		c0.4,0.2,0.7,0.4,1,0.5c1-0.3,1.1-1,1.1-1.8c-0.1-3.1,0.4-6.1,0.8-9.2c1.1-7.9,4.6-14.7,8.9-21.2c0.1-0.2,0.4-0.3,0.7-0.5
		c5.3,1.5,10.1-1.3,15-2.6c0.2,0.3,0.3,0.4,0.3,0.5c-0.3,1.7-0.6,3.4-1,5.1c-1.8,8.3-2.4,16.8-1.9,25.3c0.1,1.9,0.4,3.7,1.1,5.4
		c0.3,0.7,0.7,1.3,1.9,0.7c-0.2-2.9-0.6-5.9-0.7-9c-0.1-3.2,0-6.4,0.3-9.6c0.2-3.1,0.7-6.1,1.2-9.1c0.5-3.1,0.9-6.3,2.1-9.4
		c1.9-0.2,3.7-0.4,5.3-1.1c2.8,0.9,2.8,0.9,3.1,0.5c-0.5-0.6-1-1-1.7-1.2c-2.2-0.2-4.1,0.7-6.2,0.5c-0.1-0.5-0.2-0.7-0.1-0.9
		c0.8-3.8,1.9-7.6,3.1-11.3c-1.1-0.3-1.4,0.5-1.7,1.1c-1.3,2.3-2.1,4.7-2.9,7.2c-0.4,1.4-0.5,2.9-1.7,4.2
		C498,477.6,493.4,479.7,488,478.7z M653.3,480.4c-0.5-0.9-1.2-1.2-1.9-1.4c-1.4-0.4-2.9-0.7-4.3-0.9c-3.9-0.7-7.8-1.2-11.6-1.9
		c-6.6-1.3-13.2-2.9-19.8-4.3c-3.2-0.7-6.5-1.5-9.8-1.1c-0.2,0-0.4,0.2-0.6,0.3c-0.6,0.6-0.4,1.1,0,1.7c1.4,1,3,1.6,4.7,1.9
		c1.5,0.2,2.9,0.5,4.3,0.9c9,2.1,17.9,4.5,27.1,5.3c3.1,0.3,6.1,0.6,9.2,0.8C651.5,481.7,652.5,481.7,653.3,480.4z M640.1,496.6
		c-13.1,4-26,8.2-38.8,13c-0.2,0.1-0.2,0.4-0.4,0.6c0.1,0.6,0.7,0.7,1.1,0.7c1.5-0.1,3-0.2,4.4-0.5c2.7-0.7,5.4-1.5,8.1-2.4
		c6.3-2,12.6-4.1,18.9-6.1c2-0.6,4-1.3,5.7-2.5c0.6-0.4,1.2-0.9,1.4-1.8C640.5,497.2,640.3,496.9,640.1,496.6z M559.6,435.1
		c1.3,0,2.7,0,4,0c3.8-0.1,7.6-0.1,11.4-0.4c5-0.5,10-0.6,15.1-1.1c8.3-0.9,16.7-1.1,25-0.5c4.1,0.3,8.3,0.7,12.2,2.5
		c0.1,0,0.4-0.2,0.7-0.4c-1.2-1.9-3.1-2.3-5-2.7c-6.5-1.2-13.1-1.9-19.8-1.3c-5,0.4-10,0.7-15.1,1.1c-5.3,0.4-10.5,1-15.8,1.3
		C568.1,433.9,563.8,434.3,559.6,435.1z M637.2,429.2c1.7-0.4,2.2-0.9,2.1-1.8c-0.1-0.9-0.6-1.6-1.1-2.3c-2.2-3-5.1-5.2-8.4-7
		c-3.3-1.7-6.6-3.2-10.1-4.4c-5.4-1.9-11-3.6-16.2-6.1c-0.4-0.2-0.7-0.1-1,0.2c0,0.6,0.5,0.8,0.9,1c4.1,2,8.1,4.2,12.3,5.9
		c3.4,1.4,6.8,2.9,10.1,4.4c2.5,1.1,4.8,2.5,7,4.1c1.8,1.3,3.3,2.9,4.5,4.5C637.3,428.3,637.3,428.6,637.2,429.2z M584.6,507.7
		c3.1,2.7,4.2,4.4,5.3,8.1c-2,1.3-4.5,0.1-7.3,1.3c3.2,0.1,5.6,0.1,7.7,0.2c1.7,1.6,1,3.9,2.6,5.4c0.4-1.1,0.1-1.9,0-2.7
		c-0.1-0.8-0.6-1.6,0.1-2.7c2.2-0.2,4.5-0.5,6.8-0.7c4.9-0.5,9.7-1.7,14.3-3.2c0.5-0.2,0.8-0.5,0.7-1.1c-1.1-0.6-2.1-0.1-3.2,0.2
		c-5.6,1.5-11.3,2.4-17,3.2c-0.9,0.1-1.9,0.5-3-0.3c-0.4-0.9-1-1.9-1.5-2.8c-0.5-1-1.5-1.8-1.7-3.1c2.3-0.4,4-1.7,5.8-2.6
		c0.3-0.2,0.9-0.5,0.4-1.2c-1.5,0.3-3,0.8-4.5,1.2C588.6,507.3,586.9,507.4,584.6,507.7z M641.1,515c-1,2-2.6,3.1-4.2,4.2
		c-7.6,5.4-15.4,10.6-23.8,14.9c-0.3,0.1-0.7,0.2-0.6,0.7c1.5,0.5,3-0.1,4.3-0.7c2.4-1,4.7-2.1,7-3.3c4.8-2.6,9.3-5.6,13.6-8.8
		c1.6-1.2,3.2-2.4,4.3-4C642.4,517.1,642.6,516.1,641.1,515z M666.1,467.3c0-0.7-0.4-1.2-1-1.4c-1-0.4-2.1-0.8-3.1-1.1
		c-11.6-3.5-23.5-5.1-35.5-6.5c-0.8-0.1-1.6-0.3-2.6,0.5c4.2,0.4,7.9,1.3,11.8,2.2c4.2,1,8.4,1.7,12.6,2.7
		c5.1,1.2,10.3,2.5,15.4,3.7C664.5,467.6,665.3,468,666.1,467.3z M515.1,514.1c0.9-0.4,1.2-1,1.4-1.8c0.3-1.8,0.7-3.6,0.9-5.5
		c0.3-3.1,0.7-6.1,1.1-9.1c0.3-2.2,1.1-4.3,1.5-6.4c0.1-0.6-0.1-1.2-1.2-1c-0.8,2.2-1.6,4.5-2.6,6.7c-2.1,4.7-2.3,9.8-2.7,14.8
		c0,0.5,0.1,1,0.2,1.4C513.9,513.7,514.3,514.1,515.1,514.1z M585.8,504.1c-1.7,0-2.9,0-4.2,0c-1.2,0-2.5,0-3.7-0.2
		c-1.3-0.2-2.6-0.5-4-0.7c-1.2-0.2-2.4-0.4-3.6-0.6c-1.2-0.2-2.4-0.4-3.6-0.7c-1.2-0.3-2.4-0.5-3.6-0.8s-2.4-0.6-3.6-0.9
		c-1.2-0.3-2.3-0.7-3.5-1.1c-1.3-0.5-2.5-1-3.8-1.5c-1.1-0.5-2.2-1.1-3.4-1.5c-1.1-0.4-2-1.3-3.7-1.2c0.7,1.3,1.7,1.9,2.6,2.3
		c3,1.4,6,2.8,9.2,3.8c7.1,2.3,14.3,3.5,21.7,3.6c2.1,0,4.2-0.1,6.2,0.4C585.1,505,585.3,504.7,585.8,504.1z M550.3,415.3
		c-0.5,0.1-1,0.2-1.4,0.4c-1.2,0.7-2.3,1.3-3.4,2.1c-5.2,3.7-8.2,9-11.2,14.2c0.3,0.6,0.5,0.8,1,0.7c5.9-8.1,5.9-8.1,16.2-15.7
		C551.5,416.4,551.2,415.9,550.3,415.3z M683,470c-0.5,0.4-0.8,0.5-0.8,0.7c-0.3,2.2-0.7,4.3-0.9,6.5c-0.5,5.4-0.9,10.7-1.3,16.1
		c-0.1,1-0.1,2-0.1,2.9c0,1,0,2,0.1,2.9c0,0.8-0.3,1.7,0.3,2.6c0.2-2.1,0.2-4.1,0.5-6c0.9-5.6,1.7-11.1,1.9-16.8
		c0.1-1.5,0.3-2.9,0.5-4.4C683.4,473.1,683.6,471.7,683,470z M529.2,457.5c0.6,0,0.7-0.5,0.9-0.9c2-4.4,4.7-8.3,7.5-12.2
		c1.1-1.6,2.1-3.3,3.1-5c0.3-0.6,0.3-1.2-0.2-1.7c-0.3,0.1-0.7,0.1-0.9,0.3c-0.7,0.7-1.3,1.5-1.8,2.3c-3.5,5-5.9,10.7-8.7,16.1
		C528.9,456.9,528.9,457.2,529.2,457.5z M633,404.5c1.9,2.1,3.5,4.3,4.9,6.8c0.3,0.4,0.5,1.2,1.4,0.7
		C638.8,408.2,635.8,406.4,633,404.5z M723.7,531.8c0.5,0.3,0.8,0.3,1,0c0.1-0.1-0.1-0.5-0.2-0.6
		C724.2,531.1,723.9,531.3,723.7,531.8z"/>
	<path fill="none" d="M741,471.3c1.2-1.2,1.4-2.8,1.6-4.4c0.1-0.8,0-1.9,0.4-2.5c1.2-1.6,1.5-3.6,2-5.1c0.7-0.6,1.2-0.7,1.7-0.5
		c2.4,1.2,5,1.2,7.6,1.2c4.1-0.1,8.1,0.6,12.2-0.1c4.9,0.6,9.8,0.1,14.8,0.2c4.4,0.1,8.8,0.7,13.2,1.6c3.1,0.7,6.2,1.4,9.3,2.4
		c3.6,1.2,7.4,1.9,11.2,1.4c1.2-0.2,2.4,0,3.6,0c3.3-1.7,6.9-2.1,10.4-2.8c4.4-0.9,8.8-0.9,13.2-0.5c1.3,0.1,2.7,0.2,4,0
		c1.5-0.3,2.8,0.3,4.3,0.4c-0.1-0.9-0.4-1.3-0.9-1.5c-4-1.6-8.1-2.2-12.3-1.5c-2.4,0.4-4.9,0.6-7.3,0.7c-4.2,0.1-8.3,0.6-12.2,2.4
		c-1.9,0.9-3.9,0.8-5.8,0.5c-5-0.7-9.8-2.1-14.8-3.7c0.7-0.9,1.6-1,2.3-1.1c8.3-1.5,16.7-3,25-4.5c2.5-0.4,4.9-0.4,7.3,0.1
		c5.1,1,10.1,2.1,15.2,3.1c7.9,1.5,15.6,3.6,22.8,7.1c1,0.5,1.9,0.2,3.1,0.3c1.9,3.3,3.8,6.7,4.2,10.7l0.1-0.1
		c-1.3-0.4-1.8-1.6-2.7-2.4c-0.5-0.5-0.9-1.2-1.8-1.1c-0.5,0.4-0.3,0.9,0,1.3c2.5,2.9,3.6,6.4,4.6,9.9c0.6,2.2,0.7,4.4,0.8,6.6
		c0.1,1.2-0.1,2.5,1.1,3.3c0.8,0.1,1.2-0.2,1.6-0.8c0.4-0.6,0.4-1.5,1.4-1.7c1.1,3.6,1.8,7.4,2.4,11.1c0.5,3.8,0.8,7.6,1.2,11.4
		c0.2,2-0.2,3.9-0.5,5.9c-0.2,1.1-0.9,2-1.6,2.8c-2.3,2.6-4.6,5.1-6.9,7.7c-1.1,1.2-2.3,2.2-3.7,3c-6,3.5-12.5,5.8-19.3,7.1
		c-3.4,0.6-6.8,1-10.2,1.5c-2,0.3-3.9,0.2-5.8-0.5c-1.9-0.7-4-1.1-6.1-1.4c-3.7-0.5-7.2-1.7-10.6-3c-4.3-1.6-8.5-3.2-12.8-4.6
		c-1.9-0.6-3.8-1-5.8-1.2c-6.7-0.6-13.4-1.7-20.2-1.8c-2.2,0-4.4,0-6.6,0.1c-1.9,0.1-3.7-0.3-5.4-0.9c-5.1-1.9-10.1-3.9-14.7-6.8
		c-6.2-3.7-12.8-6.1-20-7.1c-6.4-0.9-12.5-2.5-18.2-5.8c-1.4-0.8-2.8-1.6-4-2.6c-1.6-1.3-3.3-2.5-5-3.8c-3.1-2.5-6.5-4.4-10.5-5
		c-0.6-0.1-1.1-0.4-1.8-0.7c-0.9-2.7-1.3-5.6-1.1-8.3c0.1-2.8-0.6-5.3-1.5-7.9c-1.2-3.4-2.2-6.8-3.3-10.2c-0.2-0.5-0.3-1-0.3-1.4
		c-0.5-7.3-2.3-14.3-3.4-21.5c-0.4-2.9-0.8-5.9-1-8.8c-0.5-6.6-0.9-13.3-0.6-19.9c0-0.2,0.1-0.5,0-0.7c-1-4-0.2-8.1,0-12.1
		c0.3-5.4,0.5-10.8,0.4-16.2c-0.2-7,0.4-14,1-21c0.2-2.1,0.3-4.2-0.1-6.3c-0.1-0.9-0.2-1.9-0.8-2.4c-1.4-1.1-1.7-2.7-2.3-4.1
		c-0.5-1.3-1.1-2.5-2.2-3.4c-2.3-2-3.7-4.5-5-7.2c-1-2.1-1.9-4.3-2.7-6.5c-1.5-4-3.9-7.7-5.2-11.7c-3.7-1.1-5.4-4.6-8.3-6.2
		c-0.6-3,1.3-4.5,2.7-6.4c2.7,1.1,4.9,3.1,7.7,3.5c0.8-0.2,1.3-0.5,1.2-1.2c-0.1-1.1-1.2-1.2-1.8-2.1c0-1.1,0.3-2.3-0.3-3.4
		c-0.5-1-1-2-1.5-3.1c1.8-0.4,3.3-0.7,4.7-1c1.9,0.1,3.1,1.1,4,2.5c0.8,1.2,1.7,2,3.3,2.2c1-1.9,1.2-4.1,2.4-5.8
		c0.7-0.6,1.5-0.8,2.5-0.8c1.2,0.7,1.6,2.3,3.4,2.8c-1.9,1.2-4.4,0.7-5.1,3c0,0.7,0.1,1.2,1,1.5c4.7-1.9,6.9-6.6,10.2-9.9
		c1.8,0,3.3,0.6,4.8,1.1c0.9,0.2,1.5,0.9,2,1.5c1.8,2.2,3.6,4.4,5.5,6.4c0.8,0.9,0.5,2.2,1.5,2.9c3.1,0.4,4.5-0.5,6.7-3.8
		c-0.2-0.6-0.7-0.6-1.2-0.4c-0.7,0.2-1.4,0.5-2.2,0.2c-0.2-0.1-0.3-0.3-0.1-0.6c0.1-0.2,0.3-0.4,0.4-0.6c0.2-0.2,0.4-0.5,0.5-0.5
		c1.7,0.3,2.2-1.9,3.8-1.8c0.5,0,1,0,1.6-0.1c2.1,2.2,4.2,4.4,6.3,6.6c1.3,1.5,2,3.4,2.4,5.3c0.4,1.5-0.1,2.9-0.8,4.2
		c-0.5,1-1.1,1.9-1.9,2.7c-4,4.7-6.2,10.3-7.8,16.1c-0.4,1.6-0.4,3.4-0.6,5.2c-0.3,0.5-0.7,0.9-1,1.4c-0.5,4.8,1,9.3,1.6,13.9
		c0.8,5.3,1.9,10.6,2.2,16.1c0.3,5.6,1.2,11.2,1.8,16.8c0.2,2.2,0.2,4.4,0.5,6.6c1.4,9.5,4.7,18.3,9.7,26.5c0.9,1.5,1.5,3.1,2.4,4.6
		c3.5,6.4,5.4,13.5,8.9,19.8c0.8,1.5,1.2,2.9,1,4.6c-0.4,2.8-0.3,5.6-0.8,8.4C740.7,467,741.1,469.2,741,471.3
		c-0.1,0.4-0.6,0.6-0.1,1.1C740.9,472,740.9,471.7,741,471.3z M860,467.1c0-0.4-0.3-0.7-0.7-0.8c-1.5-1.4-1.5-1.4-3-1.4
		c0.9,1.1,1.9,1.5,3.1,1.3C859.3,466.7,859.6,466.9,860,467.1l0.1,0.1L860,467.1z M761.1,497.9l0,0.2L761.1,497.9
		c-2.6-2-2.6-2-4.2-2.1C758.8,497.8,758.8,497.8,761.1,497.9z M819.3,467.6c2.5,0.1,3.2-0.1,5.7-1.3c-0.1-0.7-0.6-0.7-1.1-0.6
		C822.3,466.1,820.7,466.5,819.3,467.6l0,0.2L819.3,467.6z M700.5,315.5c0,0.3,0.1,0.6,0.1,0.9c0.1-0.2,0.1-0.4,0-0.6
		C700.6,315.7,700.5,315.6,700.5,315.5c0.4-0.8,0.7-1.7,0.7-2.7c-0.1-1.2-0.6-2.1-1.6-2.3c-0.7-0.1-0.9,0.2-1.2,0.8
		C699.2,312.5,699.2,314.3,700.5,315.5z M690.1,360.6c0.1,0,0.1,0.1,0.2,0.1C690.2,360.7,690.1,360.7,690.1,360.6
		c-0.4-1.9-0.7-4-1.1-6c0-0.2-0.4-0.2-0.6-0.4c-0.3,0.2-0.7,0.4-0.8,0.6c-0.8,1.9,0,4.5,1.8,5.7
		C689.6,360.7,689.9,360.6,690.1,360.6z M690.7,407.3c0-0.3-0.1-0.6-0.1-0.9C690.3,406.8,690.7,407,690.7,407.3
		c0.1,1.9,0,3.9,0.1,5.8c0.2,3.3,0.8,6.6,2.1,9.7c0.2,0.5,0.6,0.8,1.2,0.1c-1.5-4.6-2.5-9.4-2.9-14.3
		C691.3,408.1,691,407.7,690.7,407.3z M766.2,499.5c-0.2-0.2-0.3-0.6-0.9-0.2C765.7,499.4,766,499.4,766.2,499.5c0,0,0,0.2,0,0.3
		c2.4,3.4,5.1,6.5,7.9,9.5c0.4,0.4,1.1,0.4,1.7,0.6c0.9,1.3,1.7,2.7,2.7,3.9c1.3,1.7,2.9,3,4.9,3.8c1.1,0.5,2.3,0.9,3.6,0.8
		c1-0.1,1.4-0.7,1.3-2.4c-3.5-0.6-6.3-2.9-9.3-4.7c-0.7-0.4-1.4-1-2.2-1.4c-0.3-0.1-0.7,0-1.1,0c0.5-1.7-0.2-3.1-1.4-4.3
		c-1.1-1.2-2.5-1.9-3.8-2.7c-0.9-0.6-1.8-1.1-2.2-2.3C768,499.8,767.2,499.4,766.2,499.5z M730.7,488c-3.2,0.7-3.3,0.7-6.2-0.8
		c-1.1-0.6-2.1-1.2-3.2-1.9c-0.7-0.4-1.4-1-2.2-1.4c-0.8-0.4-1.3-1.4-2.6-1.5c-0.5,2,0.1,3.6,1.5,4.9c2.4,2.4,5.4,3.8,8.7,4.6
		c1.4,0.3,2.7,0.1,3.9-0.7c0.6-0.5,1-1.1,1-1.8C731.7,488.8,731.4,488.2,730.7,488z M876.5,494.2c-1.2,1.2-2.3,2.3-3.5,3.4
		c-3.8,3.4-8.3,5.6-13.2,7c-2.9,0.9-5.9,1.5-8.9,2.3c-0.4,0.1-1,0.1-1,0.8c0.2,0.1,0.4,0.4,0.5,0.4c3.6-0.7,7.2-1.3,10.8-2.1
		c2.5-0.6,4.9-1.5,7.2-2.8c3.2-1.9,6.1-4.1,8.1-7.3C876.8,495.5,877.2,495.1,876.5,494.2z M709.1,467.9c-2.2-4.6-4.2-9.1-6.1-14.5
		c0.1,4.5,2.7,12.1,4.8,14.7C708,468.4,708.4,468.4,709.1,467.9z M714.7,473c-0.2,2.5-1,5.2,1.8,7.4
		C717.1,477.5,716,475.2,714.7,473z M687.9,321.9c-0.4-1.7-0.7-2.6-0.8-3.5c-0.1-1.1-0.1-2.2-1.2-2.9c-0.6-0.2-1.2-0.1-1.7,0.7
		C685.1,318,685.3,320.3,687.9,321.9z M794.5,477c3.3-0.6,6.6,0.1,10-1.4C801.1,474.8,797.9,475.2,794.5,477z M677.2,313.6
		c-1.2-1-2.4-0.8-3.5-0.3c-1.1,0.4-1.7,1.3-1.8,2.4c0.2,0.6,0.5,0.9,1,1c0.9-0.1,1.3-1,1.9-1.6C675.5,314.4,676.3,314.1,677.2,313.6
		z M838.5,508.2c1.7,1.3,2.5,1.3,4.2,0C840.9,507.4,840.9,507.4,838.5,508.2z M777.1,479c1.6-0.4,3.2-0.7,4.8-1c0-0.8-0.4-1-1.2-1.1
		C779.5,477.3,778.1,477.5,777.1,479z M696.4,305.4c-1.4-0.4-2.6-0.5-3.4,0.8c0.2,0.3,0.3,0.7,0.5,1.1
		C694.6,307.1,695.6,306.8,696.4,305.4z M690.9,328.4c0.6,2.6,0.7,2.6,2,3.5C693.2,330.4,692.9,329.3,690.9,328.4z M691.5,362.6
		c-0.6,1.4-1.4,2.3-0.2,3.2C691.8,364.9,692.7,364.1,691.5,362.6z M700.7,439.8c-0.4,1.6-0.6,2.7,0.3,4
		C701.7,442.5,701.3,441.4,700.7,439.8z M700.8,320.7c-0.3,0.9-0.6,1.6,0.4,2.1C701.5,322.1,702.1,321.4,700.8,320.7z M698.6,412.9
		c1.3-1.2,1.3-1.2,0.1-2.2C698.1,411.4,697.9,412.1,698.6,412.9z M703,326.6c-1,0.7-1.2,1.2-0.8,2
		C702.9,328.4,703.1,327.8,703,326.6z M692,371.2c0.2-1,0.7-1.7-0.3-2.4C691.7,369.6,691.3,370.3,692,371.2z M715.4,469
		c0.6-0.8,0.3-1.2-0.6-1.3C714.5,468.4,714.6,468.8,715.4,469z M714.9,464.6c0.5,0.1,0.9-0.2,0.8-0.7c0-0.4-0.4-0.6-0.7-0.4
		C714.6,463.7,714.5,464.1,714.9,464.6z M702.4,451.1c-0.3,0.6-0.5,1,0,1.3C702.4,452.1,702.4,451.7,702.4,451.1z M701.4,448.5
		c0,0,0.1,0,0.1,0c0-0.2,0-0.4,0-0.7c0,0-0.1,0-0.1,0C701.4,448.1,701.4,448.3,701.4,448.5z M698.6,420.4l-0.1,0l0,0.3L698.6,420.4z
		 M698.7,423.9c-0.1,0-0.2,0-0.2,0.1c0,0.1-0.1,0.2-0.1,0.3c0.1,0.3,0.2,0.2,0.3-0.1C698.8,424.1,698.7,424,698.7,423.9z
		 M703.8,332.5c0.1-0.1,0.2-0.2,0.2-0.3c0-0.3-0.2-0.4-0.5-0.3c-0.1,0-0.2,0.2-0.2,0.3C703.4,332.3,703.6,332.4,703.8,332.5z
		 M698.8,431.4c-0.1-0.1-0.1-0.2-0.2-0.3c-0.1,0.1-0.2,0.1-0.2,0.2c-0.1,0.3,0.1,0.5,0.3,0.4C698.8,431.7,698.8,431.5,698.8,431.4z"
		/>
	<path fill="none" d="M876.9,461.1c-6.4-6.8-13.3-13.1-20.5-19c-1.7-1.4-3.6-2.6-4.6-4.6l0.1-0.1c1-0.1,1.6,0.6,2.3,1.1
		c3.6,2.2,7.3,4.1,11.2,5.5c3,1.1,5.6,3,8.5,4.4c1.5,0.7,3.1,1.5,4.8,1.8c2,0.4,3.9,0.3,5.7-0.6c2.5-1.2,5.1-1.6,7.8-2
		c3.4-0.4,6.7-1.2,10-2.4c0.9-2.1,2.6-3.3,4.6-4.2c-0.7-7.5-0.2-14.6,3.1-21.3c0.5-0.5,1-0.9,1.5-1.2c0.3-0.2,0.6-0.4,1-0.8
		c1.1-0.1,2.3-0.2,3.4-0.3c1.5,0.6,2.9,1.1,4.2,1.8c2.4,1.2,4.7,1.2,7.1-0.1c0.6-0.4,1.3-0.6,2-0.8c0.7-0.2,1.5-0.2,2.1-0.2
		c1.3,0.6,1.9,1.7,2.6,2.7c-0.1,1.8-1.8,2.3-2.6,3.8c-0.2,0.6-0.7,1.5-0.2,2.6c1.1,0.9,2,0.3,2.9-0.4c3-7.1,3-7.1,6.3-8.8
		c1.8,0.5,3.8,1.1,6,1.8c-0.6,1.1-1.2,2.1-1.7,3c0.1,2.1,0.7,3.9,2.8,4.8c1,0.4,1.8,0.1,3.1-1.2c-0.1-1.1-1.5-1.2-1.9-2.5
		c0.2-1.9,1.2-3.9,1-6.2c-0.1-1.1,0.7-2.1,1.6-2.7c1.5-0.7,2.8-0.3,4.2,0.5c3.8,2.1,7.3,4.6,10.7,7.2c1.5,1.1,2.9,2.2,4.5,3.2
		c2.9,1.8,5.8,2,8.5-0.3c0.4-0.3,0.8-0.5,1.3-0.8c0.1-0.1,0.2-0.1,0.6-0.2c2.2,0,4.5,0.4,6.7,1.9c4.1,2.8,8.9,4.2,13.4,6
		c1.1,0.5,2.2,0,3.3,0.1c0.9,0.9,0.2,2.1,0.5,3.1c0.1,0.3,0,0.4,1.3,1.4c0.5-1.8,0.4-3.7,1.2-5.7c1.5-1.6,2.6-3.8,3.7-6
		c0.9-1.8,2-3.4,3.2-4.9c1.6-2,3.8-2.5,6-3c0.3,0.9-0.1,1.2-0.5,1.4c-2,0.7-3.3,2.1-4.5,3.6c-2.4,3.2-4.3,6.6-5.3,10.4
		c-2,1.7-2.8,4-3.7,6.2c-0.9,2.2-1.6,4.4-2.5,6.6c-0.2,0.5-0.4,1.2-1.1,1.3c-0.7-0.1-0.6-0.6-0.7-1.1c0-0.7,0.6-1.4-0.3-2
		c-2,1.6-3.2,3.3-3.6,5.2c-0.5,2.2,0,4.4-0.1,6.6c-1.5,1.3-3.2,1.4-5,1.9c-1.6,1-2.9,2.4-4.3,3.8c-5.5,5.3-11.5,10-18,14
		c-5,3.1-10.3,5.1-16.3,4.8c-2.4-1-4.2-2.8-5.7-4.8c-1,0.3-1.1,0.9-0.8,1.5c0.5,1.3,1,2.5,1.5,3.8c-0.1,0.3-0.1,0.7-0.3,1
		c-0.1,0.2-0.3,0.3-0.7,0.6c-0.8-0.1-1.8-0.2-2.6-0.3c-0.5,0.3-0.8,0.5-0.8,1c0,0.1,0,0.5,0.2,0.6c2.4,2.1,4.8,4.1,7.8,5.3
		c1.6,0.6,2.9,1.9,4.3,2.9c1.3,4.4,2.6,8.9,3.9,13.3c0.1,0.2-0.1,0.5-0.3,0.8c-0.2,0.2-0.5,0.4-0.8,0.6c-2.3,0.8-4.5,1.9-6.6,3.3
		c-1,0.7-2.2,1.1-3.4,1.3c-3.8,0.7-7.1-0.1-9.4-3.5c-0.6-0.9-1.2-1.9-1.7-2.8c-1.4-2.5-2.7-5-5.1-6.3c-1.4-3.1-2.7-5.8-3-8.4
		c0.3-2.1,2.1-2.2,2.7-3.3c-0.3-1.2-1.5-1-2-1.7c-0.6-0.6,0.4-1.4-0.4-2.1c-1-0.5-1.3,0.9-2.9,1.1c-0.7,0-2.1-0.1-3.5-0.2
		c-2.6-1.6-4.8-3.6-6.8-5.8c-1.2-1.2-2.1-2.7-1.9-4.6c0.1-0.7-0.3-1.4-0.6-2.1c-1.5-3.6-3.1-7.2-4.7-10.8c-0.2-0.5-0.4-1.1-1-1.4
		c-0.5,0.1-0.5,0.4-0.3,0.8c0.3,0.9,0.7,1.9,0.9,2.8c0.6,2.4,1.2,4.8,2.3,7c1.4,2.9,2.1,6,3.2,8.9c0.7,2,1.6,3.8,2.7,5.8
		c1.7,1.4,3.5,2.9,5.1,3.6c1.7,0.5,2.6-0.8,3.5-0.4c0.6,0.4,0.7,0.9,0.7,1.4c-0.1,3,0.7,5.8,2.5,8.3c0.7,0.9,1.1,1.9,1,3.2
		c-1.8,0.9-4.2-0.2-6.1,1.5c-0.3,0.7-0.7,1.5-1,2.3c-1.3,0.8-1.7,0.2-1.8-0.9c-2-1-3.8,0.2-5.5,0.6c-2.8,0-5.5-1.1-8.2-0.2
		c-0.2-0.1-0.4-0.2-0.3-0.2c-0.1,0,0.1,0,0.3,0.1c1,1.4,2.8,1.3,4.1,2.2c-0.3,1.8-1.5,0.9-2.5,1.1c-1.8,1.5-4,2.4-6.4,3.1
		c-1.9,0.5-3.8,1.2-5.6,1.9c-1.8,0.7-3.6,1.5-5.7,2.4c-0.2,0-0.6-0.2-1.2-0.3c-1-0.1-1.4,1.3-2.5,1.2c0-1.6,0-3.1,0-4.8
		c1.5,0.5,0.7,2.4,2.1,2.8c0.1,0,0.2,0,0.5,0c0.4-4.8,0.3-9.6-0.7-14.3c-1-4.6-2.2-9.1-3.2-13.6c-0.3-1.4-0.7-2.9-0.9-4.3
		c-0.5-2.6-1.5-4.9-2.6-7.3c-0.5-1-1-2-1.5-2.9c0-0.7,0.2-1.3,0-1.9c-1.1-3.3-1.4-6.7-2.3-10.1c-0.7-2.8-2.1-5.3-4-7.4
		c-0.5-0.5-1.1-1-1.7-1.4c-0.4-0.2-0.9-0.2-1.4-0.3c-0.2,0-0.5,0.1-0.7,0.2c-0.4,0.3-0.7,0.7-0.7,0.8c-0.1,1.4,0.5,2,1,2.7
		c1.4,1.7,2.5,3.7,3.5,5.6C876.7,459.9,876.7,460.6,876.9,461.1L876.9,461.1z M906.6,475.9c-0.9-0.9-0.9-0.9-1.8-0.9
		C905.2,475.6,905.9,475.9,906.6,475.9c0.7,1.6,2,2.7,3.5,3.5c0.5,0.3,1.2,0.3,1.6-0.3c0.1-0.8-0.4-1.4-1-1.8
		C909.4,476.5,908.1,476,906.6,475.9z M944.6,497.9c3.1,0.9,5.7-0.5,8.3-0.7c1.4,1.4,2.6,2.7,3.3,4.5c-1.6,0.9-3.2,0.8-4.9,1.4
		c-2.3-3.2-5.7-3.8-9.2-4.2c-0.7,0.5-0.7,0.9-0.3,1.5c2.4,0.3,4.5,1.5,6.3,3.2c0.2,0.2,0.3,0.6,0.4,0.9c-0.5,1-1.3,1.5-2.4,1.7
		c-1.6-0.3-2.4-1.7-3.5-2.5c-0.4-0.3-0.9-0.5-1.4,0.3c1.1,2.4,2.3,4.7,5.1,5.8c0.2,0.1,0.5,0,0.7,0c0.7-0.3,0.7-1,1.1-1.4
		c0.7-0.6,1.8-0.2,2.3-1c0.7-1,1.8-1.2,2.9-1.4c1.3-0.3,2.7-0.5,4-0.7c0.9-0.1,1.7-0.3,2.2-1.1c0.4-0.8,0.3-1.5-0.1-2.2
		c-0.8-1.4-1.6-2.8-2.5-4.1c-1.3-1.9-2.7-3.8-4.1-5.7c-0.1-0.2-0.4-0.2-0.7-0.3c-0.2,0.2-0.5,0.4-0.7,0.5c-0.5,0.9,0.5,1.8-0.3,2.8
		c-0.9,0.3-2,1-3.3,0.7c-0.9-0.6-1.7-1.4-2.3-2.3c0.1-0.7,0.2-1.4,0.3-2.2c-0.3-0.6-0.6-1.3-1.1-1.9c-1-1.2-2.4-1.3-3.6-0.3
		c-0.6,0.5-1.1,1-1.3,1.8c-0.5,1.7-0.8,3.4-0.6,5.1c0.1,0.6,0.3,1.2,1.1,1.5c0.7-0.2,1.5-0.4,2.2-0.6
		C943.4,497.3,944.2,497.7,944.6,497.9z M979,432.6c-0.7,2.6-0.5,5.1-0.4,7.7c0.1,1.3,0.2,2.7,0.3,4c0.1,2.3-0.6,4.6-2.1,6.1
		c-1.7,1.7-2,3.5-2.2,5.6c0,0.5,0.1,1,0.8,1.1c1.1-0.3,1.5-1.6,2.5-2c1.9-0.8,2.6-2.4,3.3-4.2c0.4-1.3,0.9-2.5,1.3-3.8
		c0.3-0.8,0.6-1.7,0.6-2.5c-0.1-1.6,0.3-3.2,0.5-4.7c0.1-1.2,0.4-2.4,0.4-3.7c0-1.7-0.1-3.5-1.7-4.5
		C981,431.5,980.1,431.8,979,432.6z M971,434.5c-2.9,2.2-2.9,5-2.1,7.8c-1.1,3-1.1,3-0.5,4.7c0.5,0.2,0.9,0.2,1.7-0.3
		c0.8-1.8,3.1-3.1,3.7-5.4c0.6-2.1,2.3-4,1.7-6.3c-1-0.6-1.6,0.2-2.3,0.3C972.4,435.2,972,434.3,971,434.5z M889.2,468.8
		c0.9,0.5,1.2,0.7,1.5,0.9c2.5,1.3,4.9,2.6,7.4,3.8c0.1,0.1,0.4-0.1,0.8-0.2c-0.4-1.6-1.9-2.1-3-2.7
		C894.2,469.5,892.4,468.3,889.2,468.8z M941.9,465.2c-0.5-1.5-0.8-2.7-2-3.4c-0.7,1.3-0.8,1.4-0.5,1.9
		C939.8,464.6,940.1,465.6,941.9,465.2z M942.3,468.1c-0.3,1.7,0.3,2.9,1.2,3.9c0.8,0,1.1-0.3,1.2-1.1
		C944.5,469.7,943.9,468.6,942.3,468.1z M897.2,501.3c1.1,0.6,2.1,1.5,3.4,0.3c-0.3-1-1.1-1.1-1.8-1.2
		C898.2,500.4,897.5,500.4,897.2,501.3z M891.7,500.8c1,1.1,1.7,1.5,2.6,0.6C893.4,500.4,893.4,500.4,891.7,500.8z M908.5,449.8
		c0.5-0.5,0.4-1-0.2-1.4C907.9,448.9,907.8,449.4,908.5,449.8z"/>
	<path fill="none" d="M655.3,320.4c3,2.6,5.9,5.2,8.8,7.8c0.7-0.1,1.3-0.2,2.1-0.2c0.1,1.3,0.2,2.6,0.3,4c-1.4,1-2.9,0.6-4.4,0.8
		c-1.6,0.2-3.2,0.3-4.8,0.4c-1.4,0-2.8-0.7-4.3,0.2c2.7,1,10,1.6,13.9,1.2c0.8,0.3,0.8,1.2,1.1,1.8c1.2,2.8,2.4,5.6,3.7,8.5
		c0.8,1.8,2,3.4,3.6,4.6c1.2,1,2.3,2.2,3.5,3.2c1.2,1.1,2.1,2.3,2.6,3.9c0.3,1,0.9,2,1.4,3.1c-0.8,6.1-1.6,12.3-2.4,18.3
		c-0.7,0.8-1.5,0.8-2.2,0.9c-2.7,0.3-5.4,0.6-8.1,0.8c-6.6,0.5-13-0.2-19.4-1.8c-3.9-1-7.9-1.9-12.2-2.9c-0.8-1.2-2.3-1.9-3.9-2.6
		c-4.3-1.9-8.5-3.9-12.8-5.8c-3.8-1.7-7.9-2.8-12-3.5c-1.2-0.2-2.4-0.4-3.4-1.2c-1.2-0.9-2.7-1.1-4.2-1.4c-7.8-1.4-15.4-3.2-23-5.2
		c-2.6-0.7-5.1-0.9-7.6,0.1c-3.6-0.6-7.3-1.3-10.9-1.9c-0.8-1.1-1.4-2.3-1.5-3.7c1.6-0.5,3.3,0.4,4.9-0.7c1.3,0.7,2.6,1.9,4.3,1.7
		c2.1-0.3,4-0.9,6-2.3c-1.2-0.6-2.2-0.2-3.2-0.2c-1.1,0-2.2,0-3.3-0.2c-1.1-0.1-1.9-0.7-3.2-0.3c-0.9,0.3-2.1-0.4-3.2-0.5
		c-1.1-0.1-2.2-0.2-3.3-0.7c-0.1-0.3-0.4-0.6-0.4-0.9c-0.1-4.1-0.7-8.1-1.2-12.1c-0.7-6.5-0.2-12.8,1.9-18.9
		c0.3-0.8,0.4-1.7,1.2-2.2c2.6,2,5.7,2.8,8.7,3.7c2.7,0.8,5.5,1.4,8.3,2c1,0.2,2,0.4,2.9,0.3c6.6-0.3,13,0.8,19.4,1.9
		c3.4,0.6,6.8,1.3,10.2,1.5c4.3,0.2,8.6,0.5,12.9,0.1c7.5-0.7,15-1.3,22.5-1.1C648.2,320.8,651.7,320.8,655.3,320.4z M587.9,349.3
		c-2.2-0.5-3.8-0.9-5.5-1.2c-0.8-0.2-1.7-0.4-2.5,0.1c-0.2,0.1-0.3,0.4-0.4,0.6c-0.1,0.6,0.3,0.9,0.6,1.2
		C583.8,350.7,585.3,350.6,587.9,349.3z M661.7,347.1c8.6,0.1,8.6,0.1,9.6-0.9C669,345.6,669,345.6,661.7,347.1z M646.9,333.4
		c-1.4-0.2-1.4-0.2-2.7,0.3c0.7,0.5,1.4,0.8,2.2,0.5C646.9,334.1,647,333.8,646.9,333.4z M598.8,349.1c-1.1-0.8-1.1-0.8-1.5,0.1
		C597.8,349.5,598.3,349.6,598.8,349.1z M639.5,333.4c0.1,0.1,0.3,0.2,0.5,0.2c0,0,0.2-0.2,0.2-0.2c-0.1-0.2-0.2-0.3-0.3-0.5
		C639.7,333.1,639.6,333.2,639.5,333.4z M632,334.4c-0.5-0.4-0.9-0.4-1.3,0.1C631.2,334.9,631.6,334.9,632,334.4z M604.7,349.2
		c-0.4-0.4-0.7-0.5-1.1-0.4c-0.3,0.1-0.4,0.3-0.1,0.5C603.9,349.6,604.2,349.6,604.7,349.2z M609.6,349.2l0-0.1l-0.2,0L609.6,349.2z
		 M654.7,347.6c-0.1,0-0.2-0.1-0.3-0.1c0,0-0.1,0.1-0.1,0.2c0.1,0,0.2,0.1,0.3,0.1C654.7,347.8,654.7,347.7,654.7,347.6z"/>
	<path fill="none" d="M744.8,353.3c-0.3,0.1-0.8,0.1-1,0.3c-7.1,4.9-14.8,8.7-22,13c-1-0.1-1.5-0.4-2.2-1.1
		c-0.8-5-2.5-10.2-3.6-15.5c-0.1-0.5-0.1-1-0.1-1.3c0.8-1,2-0.5,2.8-0.8c0.5,0.3,0.1-0.6-0.2-0.1c0,0-0.2-0.1-0.3-0.1
		c-0.2-0.1-0.4-0.3-0.8-0.5c-0.4-4.8,1.5-9,3.5-12.8c1.1-0.9,2,0,2.9-0.6c0-1.1-1.3-0.7-1.8-1.5c0.5-0.9,1-1.9,1.6-2.8
		c1.4-2,2.9-4,4.4-6.1c2.1,0.4,4.1,0.6,6.2,0.6c3.1,2.5,2.8,6.8,5,9.9c2-0.1,3.4,1.7,5.4,1.8c0.2,0,0.5,0,0.7-0.1
		c0.2-0.1,0.5-0.2,0.7-0.3c0.7-0.6,1.1-1.3,0.6-2.3c-3.7,0.7-5.4-0.2-6.5-3.8c-0.7-2.2-1.6-4.4-2.8-6.2c-0.1-1.4,1.3-2,1.1-4
		c-0.3-1.1-1.8-2.6-2.8-4.5c-0.2-1.5-0.1-3.4-1.3-5.2c2.3-0.4,4-1.3,6-1c0.2,0.3,0.5,0.4,0.5,0.7c0.9,5.2,3.9,9.5,5.9,14.2
		c0.9,2.2,1.8,4.3,1.4,6.8c-0.2,1.7,0.4,3.1,1.7,4.8c0.6,0.4,1.5,1.2,2.6,1.4c1.3-0.3,1.4-1.5,2.2-2.1c0.6-0.2,1.2-0.4,1.8-0.6
		c1.1,0.2,2,1.1,3.2,0.7c3.8-1.9,5.8-5.7,8.9-8.6c2.6,1.6,5.1,3.2,7.8,4.9c1,3.7,1.8,7.4,3.5,10.5c0.4,1,1.1,0.9,1.6,1.4
		c2.2,4,4.1,13.9,4.4,22.1c-1.2,7-4.9,12.5-7.9,18.1c-7.3,5.1-13.8,10.9-19.6,17.4c-3.8,4.2-7.2,8.8-11.2,12.8
		c-1.6,1.6-2.8,3.7-4.2,5.6c-1.4,1.9-3.1,3.5-4.9,5.1c-1.2,1.1-2.4,2.1-3.9,2.7c-0.7,0.2-1.3,0.7-1.7,1.5c-4.3-7.5-8-15-9.5-23.3
		c-1-5.5-1.3-11.2-1.3-17c2.4-0.7,4.6-1.5,5.9-3.8c0.9,0.2,1.6-0.1,2-1.1c-1,0-1.7,0.2-1.9,1.2c-2-0.1-3.7,1.1-5.7,1.6
		c-0.2-0.3-0.6-0.5-0.6-0.8c-0.3-4.8-0.4-9.5,0.4-14.3c6.5-3.2,12.4-7,17.8-11.7C741.4,356.7,743.4,355.3,744.8,353.3
		c0.5,0,0.7-0.3,0.7-0.8c0.1,0,0.2,0,0.3-0.1c0,0,0-0.1,0-0.2c-0.1,0.1-0.2,0.2-0.2,0.3C745,352.5,744.7,352.7,744.8,353.3z
		 M755.9,341.6c1.3,1.6,1.6,1.8,3.3,1.5c2.8-0.5,5.3-1.7,7.6-3.4c0.3-0.2,0.4-0.6,0.9-1.2c-2.1,0.4-3.8,0.8-5.6,1.2
		c-1.8,0.4-3.7-0.3-5.3,0.4C756.2,340.5,755.9,341,755.9,341.6z M738.9,339.1c0.8-0.4,1.3-0.6,1.1-1.2c0-0.1-0.1-0.2-0.3-0.5
		c-3.2-1.8-6.9-2.9-10.6-3.7c-0.3-0.1-0.6,0.3-0.6,0.9C731.9,336.2,735.3,338,738.9,339.1z M772.5,336.2c-1.8-0.8-2.7-0.3-3.7,1
		C770.3,337.9,771.2,337.2,772.5,336.2z M749.8,347.2c-1.4,0.4-2.4,0.7-2.7,1.8c0.2,0.1,0.4,0.4,0.6,0.4
		C748.8,349.3,749.4,348.6,749.8,347.2z M773.3,351.1c0.3-0.7,0.5-1.4-0.1-2.1C772.6,349.8,772.7,350.5,773.3,351.1z"/>
	<path fill="none" d="M871.9,460.2c-0.7,0.1-1.4,0.3-2.4,0.5c-3.6-1.8-7.5-3.6-11.6-4.9c-6.3-1.9-12.7-3.1-19.2-3.7
		c-3.9-0.4-7.9-0.4-11.7-1.6c-1.2-0.4-2.4-0.3-3.7-0.2c-8.4,0.8-16.9,1.9-25.2,3.4c-1.5,0.3-2.8,0.9-3.9,1.9
		c-0.8,0.8-1.5,1.6-2.2,2.3c-1.9,0.4-3.4-0.3-4.9-0.5c-6.1-1.1-12.3-0.9-18.4-0.4c-3,0.2-5.9,0.5-8.8,0c-1.6-0.3-3.2-0.3-4.8-0.3
		c-3.1,0.1-6.1-0.5-9.1-0.8c-1.6-2.9-2.5-6-4.7-8.4c-0.3-0.3-0.5-0.8-0.7-1.3c-2.3-5.7-4.6-11.4-6.8-17.1c0.2-1.1,1.2-0.7,1.8-1.2
		c1.1,0.5,2.1,0.9,3.1,1.3c5-0.5,9.8,0.5,14.7,1.1c2.2,0.3,4.4,0.5,6.6,0.2c3.3-0.4,6.6-0.4,9.7-1.2c0.7,0.1,1,0.5,1.4,1.1
		c-2.5,2.8-4.3,5.9-3.2,9.8c0.4,0.2,0.8,0.1,0.9-0.2c0.3-0.7,0.3-1.5,0.6-2.1c0.6-1.3,1.4-2.6,2.1-4c3.6-1.1,7.2-2.2,10.6-4
		c1-0.5,2-0.7,3.2-0.8c2.7-0.1,4.6-0.7,7.1-2c-2.6-0.2-4.8,0.9-7,1.2c-1,0-0.9-1.2-2.2-1.3c-2,0.6-4.4,1.3-7,2.1
		c0.2-1.3,1.2-1.4,1.9-1.9c0.8-0.6,1.7-1,2.6-1.6c4.4-0.9,8.9-1.4,13.5-1.7c1.3-0.1,2.7-0.3,4-0.5s2.7-0.4,4-0.3
		c5.9,0.6,11.8,0.4,17.7,0.8c2.9,0.2,5.9,0.9,8.8,1.1c4.6,0.3,8.4,2.5,12.5,4.2c0.9,0.4,1.9,0.6,2.6,1.4c0.1,1-1.3,1-1.1,2.6
		c0.8,1.2,2.3,2.5,3.7,3.8c3.9,3.4,7.8,6.7,11.7,10.2C862.8,451.6,867.6,455.7,871.9,460.2L871.9,460.2z M770,441.2
		c-1,0.5-1.1,1.1-0.9,1.7c0.5,1.5,1.3,2.2,3.2,3.1C771.9,444.1,772,442.2,770,441.2z M776.3,450.5c-0.1,0-0.2,0-0.2,0.1
		c0,0.1-0.1,0.2,0,0.3c0.1,0.3,0.3,0.2,0.3-0.1C776.4,450.7,776.3,450.6,776.3,450.5z"/>
	<path fill="none" d="M795.8,542c-5.9-3.2-11.8-5.5-16.9-9.6c1.2-0.5,2.2-0.3,3.1-0.2c5.6,0.5,11.3,0.8,17,0.8
		c2.6,0,5.2,0.3,7.7,0.7c1,0.2,1.9-0.1,2.9-0.5c2.7,1.7,5.3,3.5,8,5.2c2.7,1.6,5.6,2.4,8.6,3.3c0.8,0.3,0.7,1.6,2.2,1.8
		c3.1-0.4,6.6-0.3,10.4,0.6c-3.5,1.2-7,1.2-10.4,1.8c-3,0.5-6.1,0.8-9.1,1.3c-2.6,0.4-5.1,0.3-7.7-0.3c-4.1-1.1-7.9-2.7-11.7-4.4
		C798.6,541.9,797.2,541.2,795.8,542z"/>
	<path fill="none" d="M554.9,311.9c-0.5,1.3-0.9,2.5-1.5,3.7c-2.2,4.4-2.7,9.2-2.7,14c0,4.9,0.5,9.8,2.2,14.5
		c0.2,0.4,0.5,0.9,0.2,1.4c0,0.1-0.1,0.2-0.2,0.2c-0.4,0.2-0.9,0.4-1.3,0.6c-4.2-1.5-7.4-4.3-10.8-6.7c-0.6-1.1-0.6-2.1-0.6-3
		c-0.3-5.9,0.2-11.8,0.7-17.7c0.3-3.2,2.2-5,5.3-5.7c1.7-0.4,3.3-0.8,5-1.2C552.5,311.9,553.7,311.5,554.9,311.9L554.9,311.9z"/>
	<path fill="none" d="M764.8,325.8c-1.7,2.2-3.5,4.5-5,6.5c-1,0.7-1.6-0.2-2.3,0.1c-0.6,0.2-1.2,0.4-1.8,0.1
		c-0.9-0.7-0.4-1.5-0.1-2.5c0.5-0.4,1-0.8,1.7-1.4c0.1-2.5,1.4-4.8,1.1-7.6c-2.2-2.9-3.5-6.4-5.3-9.5c-0.1-0.2,0.1-0.5,0.2-0.9
		c2.5-0.1,5-0.1,7.3-0.7c1,0.4,1.1,1.2,1.4,1.9c0.3,0.8,0.6,1.7,1,2.4c1.8,2.9,2.1,6.2,2.7,9.5C765.6,324.5,765.5,325.3,764.8,325.8
		c-1.4-1-3-1.4-4.6-2.1c-0.6-0.2-1.2,0.1-1.1,0.9c0.5,0.9,1.2,1.2,2.1,1.2C762.3,325.9,763.6,325.9,764.8,325.8z"/>
	<path fill="none" d="M750.4,324.8c0.6-0.3,0.9-0.5,1.2-0.7c-0.3-1.3-1.5-1-2.3-1.4c-2.5-4.9-5.6-9.5-6.1-15.1c1-1.1,2.2-1,3.2-1.4
		c1,0.3,1.2,1.2,1.6,2c0.7,1.9,1.6,3.6,3,5c0.7,0.7,1.1,1.6,1.4,2.5c0.5,1.3,0.9,2.5,1.4,3.8c1.2,3,1.2,6,0.2,9
		c-0.5,1.6-1.1,3.2-1.6,4.8c-0.9,0.6-1.7,0.6-2.5-0.1C750.6,330.6,750.8,327.8,750.4,324.8z"/>
	<path fill="none" d="M724.6,309.9c1-0.3,1.5-0.5,2.1-0.6c1.3-0.2,2.6-0.4,3.6-0.5c1.1,0.4,1.5,1.1,1.6,1.8c0.4,3.1,1.9,5.7,3.6,8.3
		c0.1,0.2,0.2,0.5,0.3,0.8c-0.5,1.3-1.7,1.6-2.9,1.7c-1.2,0-2.4-0.2-3.5-0.4c-1.2-1.5-1.7-3-2-4.7C727.2,314,726.2,312,724.6,309.9z
		"/>
	<path fill="none" d="M871.8,460.3c3.4,2.9,5.9,6.5,8.4,10.1c0.5,0.8,0.8,1.8,1.2,2.7c0.9,2.4,1.7,4.8,2.6,7.2
		c0.3,0.7,0.4,1.4,0.1,2.6c-0.6-1.5-1.1-2.5-1.6-3.6c-1.7-4.1-3.8-7.9-6.3-11.6c-1.3-1.9-2.5-3.9-3.8-5.9
		C872.1,461.4,871.9,460.9,871.8,460.3L871.8,460.3z"/>
	<path fill="none" d="M680.3,392.5c-1.5-1.9-2.4-3.2-3.4-4.4c-1-1.2-2.1-2.4-3.2-3.7c0.8-1.1,2.1-0.8,3.1-1.2c1-0.4,2.1-0.5,3.3-0.8
		C680.6,385.6,680.2,388.6,680.3,392.5z"/>
	<path fill="none" d="M1019.8,440.8c0.4-1.3,1-2.3,2.2-2.9c1.2-0.2,2.4,0.1,3.6,0.5c-0.1,1-1.4,1-1.6,2.2c-0.1,0.7,0.5,1.3,1.3,1.7
		c0.7,0.4,1.7,0.3,2.3,1.4c-0.4,1.3-0.5,2.8-1.8,4.4c-0.5-1.9-0.5-3.6-1.6-5C1023,441.7,1020.9,442.2,1019.8,440.8z"/>
	<path fill="none" d="M1002.6,510.1c0.2-2.3,0.2-4-0.8-5.3c0.3-0.8,0.7-1.2,1.5-1.3c1.1,0.3,1.1,1.7,1.9,2.4
		c0.7,0.6,1.8,0.8,2.1,2.1C1006.3,509.3,1004.6,509.1,1002.6,510.1z"/>
	<path fill="none" d="M1006.1,455c-0.6-1.3,0.1-2.5,0.5-3.6c0.6-2.1,0.9-4.3,2.2-6.3c1.2,1.3,1.2,2.7,0.6,3.9
		c-0.6,1.4-1.1,2.7-1.3,4.2C1008,454.1,1007.3,454.9,1006.1,455z"/>
	<path fill="none" d="M1007.7,477.5c-0.3,1.1-0.6,1.6-1.3,1.9c-0.2-0.1-0.7-0.3-0.8-0.5c-0.7-1.7-1.2-3.5-2.6-4.6c0.2-1.3,1-1.7,2-2
		c0.2,0.1,0.5,0.3,0.5,0.4C1005.6,474.6,1006.5,476.1,1007.7,477.5z"/>
	<path fill="none" d="M985.8,470.9c0.9-1.9,4-4.8,7-6.6c0.1,1.5-1,2.2-1.6,3.1c-1,1.3-2,2.8-3.7,3.5
		C986.9,471.1,986.4,471.4,985.8,470.9z"/>
	<path fill="none" d="M1001.6,496.8c-1.1-0.4-1.6-0.9-1.9-1.9c0.4-1.1,1.3-2,2.4-3c1.1,0.9,2.1,1.7,3.2,2.6
		C1004.2,495.8,1002.8,496.2,1001.6,496.8z"/>
	<path fill="none" d="M981.7,514.7c-0.5,0.2-0.8,0.4-0.9,0.4c-1.2-0.7-2.7-2.7-4.5-5.9c0.2-0.2,0.5-0.4,0.8-0.5
		c0.4-0.2,0.9-0.3,1.4-0.1C979.4,512,979.4,512,981.7,514.7z"/>
	<path fill="none" d="M996.5,464.9c1-2.8,3.2-4.3,5.5-5.9c0.2,0.3,0.4,0.5,0.6,0.9C1000.9,461.8,998.9,463.5,996.5,464.9z"/>
	<path fill="none" d="M971.8,525.4c0.8-2,2.2-2.6,3.6-2.8c0.8,0.2,1,0.6,1.2,1.1c0,0.6-0.3,1.1-0.9,1.5c-0.8,0.5-1.7,1-2.8,0.8
		C972.6,526.1,972.3,525.7,971.8,525.4z"/>
	<path fill="none" d="M656.4,314.2c0.1-1,0.3-1.5,0.9-2.1c0.3-0.1,0.8-0.2,1.3-0.2c0.5,0,1,0,1.8,0c-1,1.4-2,2.6-2.3,4
		C657.1,315.5,656.8,314.9,656.4,314.2z"/>
	<path fill="none" d="M938.4,509.9c-1.6-1.2-3-2.2-4.4-3.2c-0.2-1.1,0.3-1.4,1.1-1.6C937.5,507,937.9,507.5,938.4,509.9z"/>
	<path fill="none" d="M1008,465.4c-0.2,0.6-0.4,0.9-0.5,1.3c-1.6-0.8-2-2.9-4-2.7c0.2-1.4,0.2-1.4,1-1.9c1,0.2,1.2,1.2,1.8,1.7
		C1006.7,464.2,1007.3,464.7,1008,465.4z"/>
	<path fill="none" d="M963.7,502.1c0.4,0,0.9,0,1.2-0.1c0.9,0.6,1.2,1.3,1.2,2.2c-0.2,0.8-0.7,1.2-1.6,1.2
		C963.4,505,963.2,504.1,963.7,502.1z"/>
	<path fill="none" d="M966.3,525.7c0.8,0.9,0.6,1.4,0.1,2c-1.1,0.4-2.3,0.6-3.4-0.5C964,526.1,965.2,526.1,966.3,525.7z"/>
	<path fill="none" d="M1021,511.6c-0.7,0-1-0.3-1.1-1.1c0.3-1.2,1.5-1.9,2.6-3.5C1022.4,509.1,1022.6,510.7,1021,511.6z"/>
	<path fill="none" d="M1027.8,464.8c-1.1-0.4-1.7-0.8-2.2-1.5c0.5-1.1,1.4-1.5,2.5-1.7C1028.7,462.7,1028.3,463.7,1027.8,464.8z"/>
	<path fill="none" d="M998.6,520.6c0.8-1.6,1.6-1.8,3.8-1.2C1000.6,521,1000.6,521,998.6,520.6z"/>
	<path fill="none" d="M1029.6,428.9c0.6,0.3,1,0.7,0.9,1.5c-0.7,1-1.6,1.3-2.8,1.1C1028,430.1,1028,430.1,1029.6,428.9z"/>
	<path fill="none" d="M967.8,513.3c0.6-1.2,1.2-1.3,2-1.1c0.7,0.2,1.3,0.5,1.3,1.6C970,514.5,969,513.9,967.8,513.3z"/>
	<path fill="none" d="M1011.9,516.8c-0.4,0.9-1.2,1.2-1.9,1.2c-0.9-0.4-0.8-1-0.6-1.6C1010.2,515.5,1010.8,515.6,1011.9,516.8z"/>
	<path fill="none" d="M976.8,475.8c0.6-1,1.5-1.4,2.3-1.7c0.4,0.3,0.5,0.6,0.4,1c-0.3,0.7-0.8,1.2-1.5,1.4
		C977.5,476.6,977.1,476.5,976.8,475.8z"/>
	<path fill="none" d="M851.8,437.5c-1.8-0.4-2.5-2.1-3.9-3C849.5,434.7,849.5,434.7,851.8,437.5L851.8,437.5z"/>
	<path fill="none" d="M984.9,483.3c-0.8,1.8-1.9,1.7-3.1,1.4c0-1.4,1.3-1.4,1.9-2.2C984.1,482.7,984.4,482.9,984.9,483.3z"/>
	<path fill="none" d="M646.4,506.9c0,0.9-0.6,1.2-1.2,1.6c-1,0.3-1.8-0.2-3.1-0.4C643.7,506.8,645.1,506.8,646.4,506.9L646.4,506.9z
		"/>
	<path fill="none" d="M979.2,491.4c-0.6,0-1.2-0.1-1.5-0.8c-0.1-0.9,0.3-1.1,2.1-1.2C980.4,490.2,980.1,490.9,979.2,491.4z"/>
	<path fill="none" d="M952,520.9c-1.6,1.2-2.7,1.1-4,0.4C949.4,520.1,949.4,520.1,952,520.9z"/>
	<path fill="none" d="M1002.9,453.1c-0.2-1.9-0.2-1.9,0.7-3.1C1003.9,451.6,1003.9,451.6,1002.9,453.1z"/>
	<path fill="none" d="M961,495.5c-1.1-0.9-1.7-1.7-2-3C960.6,492.9,960.6,492.9,961,495.5z"/>
	<path fill="none" d="M943.7,513c1.3-0.5,2.3,0.1,3.2,0.8c-0.1,0.8-0.6,0.9-1.1,1C944.8,514.7,944,514.2,943.7,513z"/>
	<path fill="none" d="M969.9,488.8c1.2-1.4,1.2-1.4,2.7-0.9c0,0.7-0.5,0.7-1,0.9C971.1,488.9,970.5,489.1,969.9,488.8z"/>
	<path fill="none" d="M998.1,525.8c-0.6,1.3-1.5,1.5-2.7,0.9C996.1,525.5,996.9,525.1,998.1,525.8z"/>
	<path fill="none" d="M955.9,514.8c0.4-0.7,1-0.8,1.7-0.4C957.1,515.6,957.1,515.6,955.9,514.8z"/>
	<path fill="none" d="M1023.6,452.2c-0.4-1.2,0.2-1.6,0.9-1.8C1025.1,451.4,1025,452,1023.6,452.2z"/>
	<path fill="none" d="M933,510.8c-0.9,0-1.4-0.2-1.3-1C932.6,509.3,932.9,509.8,933,510.8z"/>
	<path fill="none" d="M960.5,489c-0.1-0.2-0.4-0.3-0.4-0.5c0.1-0.4,0.4-0.6,0.7-0.4c0.1,0.1,0.3,0.4,0.2,0.6
		C961,488.8,960.7,488.9,960.5,489z"/>
	<path fill="none" d="M1013.3,444.8c-0.1,0.1-0.3,0.3-0.4,0.4c-0.1-0.2-0.2-0.3-0.3-0.5c0,0,0.1-0.2,0.2-0.2
		C1013.1,444.4,1013.3,444.5,1013.3,444.8z"/>
	<path fill="none" d="M1017.8,511.9c0.8,0.6,0.8,0.6,0,1.2C1017.3,512.7,1017.3,512.3,1017.8,511.9z"/>
	<path fill="none" d="M553.7,347.6c0.5-0.1,0.8,0,0.8,0.4c0,0.1-0.2,0.2-0.2,0.2C554.1,348.1,553.9,347.9,553.7,347.6z"/>
	<path fill="none" d="M956.5,482.9c0.2,0,0.3,0,0.5,0.1C956.8,482.9,956.6,482.9,956.5,482.9z"/>
	<polygon fill="none" points="971.5,479.8 971.8,479.9 971.5,480 	"/>
	<path fill="none" d="M1003.3,523.9c-0.1,0.1-0.3,0.2-0.4,0.4c-0.1-0.2-0.2-0.4-0.2-0.6c0-0.1,0.2-0.1,0.2-0.2
		C1003,523.6,1003.2,523.8,1003.3,523.9z"/>
	<path fill="none" d="M667.2,312.5c0.3-0.1,0.5,0,0.6,0.3c0,0.5-0.3,0.4-0.6-0.2L667.2,312.5z"/>
	<polygon fill="none" points="554.9,312 555,311.7 554.9,311.9 	"/>
	<path fill="none" d="M539.4,523.2c-0.3-0.3-0.6-0.6-0.8-0.8C538.9,522.7,539.1,522.9,539.4,523.2z"/>
	<path fill="none" d="M456.7,419.8c-0.5-0.1-0.8-0.4-0.9-0.9C456.2,419.1,456.5,419.4,456.7,419.8z"/>
	<path fill="none" d="M876.9,475.2c0.1,0,0.3,0.1,0.3,0.1C877.2,475.3,877.1,475.2,876.9,475.2L876.9,475.2z"/>
	<polygon fill="none" points="876.9,461.2 877.1,461.2 876.9,461.1 	"/>
	<path fill="none" d="M646.5,507c0.1-0.4,0.3-0.7,0.8-0.7l-0.1-0.1C647.2,506.6,646.9,506.8,646.5,507L646.5,507z"/>
	<path fill="none" d="M224,460.2c-0.6,0.3-1.2,0.3-1.8,0.2c-1,0-2-0.1-2.9,0.1c-2.2,0.3-4.3,1-6.5,0.4c-5,5.2-10.4,9.7-14.9,15.1
		c-2.6,3.1-3.3,6.7-3.7,10.5c-0.1,0.8-0.1,1.7-0.2,2.7c0.3,1.9,1.5,3.4,3.1,4.6c3.6,2.6,6.5,6.1,9.2,9.5c1,1.3,2.1,2.4,3.9,3
		c-1.7,2.2-4.1,2.7-5.9,4c-4.4,0.7-8.6,1.3-12.9,2c-2.2,0.3-4.4,0.7-6.6,0.9c-3.1,0.3-6,1.1-8.3,3.2c-6.1,0.5-6.1,0.5-9.4,2.3
		c-1.6-0.1-2.4-1.5-3.6-2.3c-0.2-1-0.4-1.9-0.5-2.9c-0.2-2.8-1-5.3-2.5-7.6c-0.9-1.4-1.4-2.8-1.6-4.5c-0.6-3.5-1.9-6.9-2.3-10.4
		c-0.3-2.2-0.7-4.4-0.9-6.6c-0.2-1.7,0.1-3.5,0.6-5.1c0.3-1,0-1.9-0.1-2.8c0.6-1.8,2.5-2.4,3.5-4.1c0.5-1.9,0.2-3.9-0.3-6
		c-1.1-4.9-2.4-9.8-3.7-14.6c-1.1-4-1-8.3,0.2-12.4c1-3.5,1.5-6.9,1.8-10.5c0.3-3.1,0.8-6.1,1.5-9.1c0.5-2.4,0.8-4.9,0.7-7.5
		c3.6-5,8.8-8.8,11.6-14.8c1.5,0.9,2.7,1.7,3.9,2.4c1.2,0.6,2.4,1.2,3.6,1.8c1.3,0.7,2.6,1.4,3.9,2.1c0.7,4.2,2.2,8.1,2.3,12.4
		c0,2.5,1.7,4.5,2.6,6.8c0.6,1.6,1.4,3.1,2.1,4.5c-0.5,1.4-1.9,0.8-2.5,1.7c-0.4,1.5,1.1,2,1.6,2.9c1.1,0.2,2.1,0.3,3,0.5
		c0.8,0.6,1.5,1.2,1.7,2.3c-1.4,1.4-4.1,1.4-4.4,4.1c1.2,1.6,2.9,1.7,4.6,1.6c1.7,0,3-1,4.4-2c2,0.7,3.2,2.2,4.7,3.5
		c-4.7,3.9-4.7,3.9-5.6,6.2c4.1,2,7.6,0.4,10.8-1.9c1,0.3,1.7,0.7,2.1,1.3c0.3,0.4,0.2,0.6-0.1,0.8c-1.4,0.7-2.8,1.5-4.2,2.2
		c-2.4,1.3-4.8,2.5-6.6,4.7c0.2,0.4,0.4,0.6,0.6,0.9c5.4-0.2,10-2.3,14.2-5.5c1,0,1.2,0.8,1.6,1.4c1,1.4,2.4,2.4,3.8,3.5
		c1.7,1.3,3.7,2.4,4.5,4.7L224,460.2z"/>
	<path fill="none" d="M207.7,498.7c-2.7-1.7-4.6-4.3-6.9-6.4c-1.7-1.6-3.4-3.7-4-6.4c-0.3-1.3,0.8-3.1,0.5-4.7
		c1.4-2.5,3.3-4.5,5.1-6.4c3-3.1,6.2-5.9,9.4-8.9c0.9-0.9,2-1.4,3.3-1.1l-0.1-0.1c-2.2,3.5-4.3,7.1-6.5,10.6c-1.8,2.9-2,6.3-2.3,9.5
		c-0.4,4.2-0.3,8.3,1.1,12.3C207.6,497.8,207.5,498.3,207.7,498.7L207.7,498.7z"/>
	<path fill="none" d="M215.1,465c0-0.1,0-0.2,0-0.3C215.1,464.8,215.1,464.8,215.1,465L215.1,465z"/>
	<path fill="none" d="M207.6,498.8c0.1,0.1,0.2,0.2,0.3,0.3c-0.1,0-0.2,0-0.2-0.1C207.7,499,207.7,498.8,207.6,498.8L207.6,498.8z"
		/>
	<path d="M488,478.7c5.4,1,10-1.1,14.6-2.2c1.2-1.2,1.3-2.8,1.7-4.2c0.8-2.5,1.6-4.9,2.9-7.2c0.3-0.6,0.6-1.4,1.7-1.1
		c-1.2,3.7-2.3,7.5-3.1,11.3c0,0.2,0.1,0.5,0.1,0.9c2,0.1,4-0.7,6.2-0.5c0.6,0.2,1.2,0.6,1.7,1.2c-0.3,0.4-0.3,0.4-3.1-0.5
		c-1.6,0.7-3.4,0.9-5.3,1.1c-1.2,3.1-1.6,6.3-2.1,9.4c-0.5,3-0.9,6.1-1.2,9.1c-0.2,3.2-0.3,6.4-0.3,9.6c0.1,3,0.5,6.1,0.7,9
		c-1.2,0.7-1.6,0-1.9-0.7c-0.7-1.7-1-3.5-1.1-5.4c-0.5-8.5,0.1-17,1.9-25.3c0.4-1.7,0.7-3.4,1-5.1c0-0.1-0.1-0.2-0.3-0.5
		c-4.9,1.3-9.7,4.1-15,2.6c-0.3,0.2-0.6,0.4-0.7,0.5c-4.4,6.5-7.8,13.4-8.9,21.2c-0.4,3-0.9,6.1-0.8,9.2c0,0.8-0.1,1.5-1.1,1.8
		c-0.3-0.1-0.6-0.3-1-0.5c-0.4-2.3-0.3-4.6-0.1-6.9c0.7-6.5,2.4-12.8,5.7-18.6c2.4-4.2,5-8.2,7.8-12.1c2.3-3.1,5.1-5.7,8-8.2
		c1.8-1.6,2.8-3.4,2.8-5.7c0-2.1,0.7-3.8,1.7-5.6c2.4-4.4,5.9-7.9,9.5-11.2c2.3-2.2,5-4.1,7.4-6.1c0.8-0.7,1.7-1.3,3.1-1.4
		c-2.2,3.5-5.1,5.8-8,8.2c-3.6,3-6.9,6.4-9.4,10.3c-1.2,1.9-2.2,3.8-2.4,6.1c-0.2,2.9-1.5,5-3.8,6.9c-2.1,1.7-3.9,3.8-5.7,5.7
		C489.9,475.4,488.8,476.7,488,478.7z"/>
	<path d="M653.3,480.4c-0.7,1.2-1.8,1.2-2.7,1.1c-3.1-0.2-6.1-0.5-9.2-0.8c-9.2-0.9-18.1-3.2-27.1-5.3c-1.4-0.3-2.9-0.7-4.3-0.9
		c-1.8-0.2-3.3-0.9-4.7-1.9c-0.4-0.6-0.6-1.1,0-1.7c0.2-0.1,0.4-0.3,0.6-0.3c3.4-0.3,6.6,0.5,9.8,1.1c6.6,1.4,13.2,2.9,19.8,4.3
		c3.9,0.8,7.8,1.3,11.6,1.9c1.5,0.2,2.9,0.6,4.3,0.9C652.1,479.2,652.8,479.5,653.3,480.4z"/>
	<path d="M640.1,496.6c0.2,0.3,0.3,0.6,0.5,0.8c-0.2,0.9-0.8,1.3-1.4,1.8c-1.7,1.2-3.7,1.9-5.7,2.5c-6.3,2-12.6,4.1-18.9,6.1
		c-2.7,0.9-5.4,1.7-8.1,2.4c-1.4,0.4-2.9,0.4-4.4,0.5c-0.4,0-1,0-1.1-0.7c0.1-0.2,0.2-0.5,0.4-0.6
		C614.1,504.8,627.1,500.6,640.1,496.6z"/>
	<path d="M559.6,435.1c4.2-0.9,8.5-1.3,12.8-1.5c5.3-0.3,10.5-0.9,15.8-1.3c5-0.4,10-0.7,15.1-1.1c6.7-0.6,13.2,0.2,19.8,1.3
		c1.9,0.3,3.8,0.8,5,2.7c-0.3,0.2-0.5,0.4-0.7,0.4c-3.9-1.7-8.1-2.2-12.2-2.5c-8.3-0.6-16.7-0.4-25,0.5c-5,0.5-10,0.7-15.1,1.1
		c-3.8,0.4-7.6,0.4-11.4,0.4C562.3,435.2,560.9,435.1,559.6,435.1z"/>
	<path d="M637.2,429.2c0.1-0.6,0.1-1,0.2-1.6c-1.2-1.6-2.7-3.2-4.5-4.5c-2.2-1.6-4.5-3-7-4.1c-3.4-1.5-6.7-3-10.1-4.4
		c-4.2-1.7-8.2-3.9-12.3-5.9c-0.4-0.2-0.9-0.4-0.9-1c0.3-0.3,0.6-0.4,1-0.2c5.2,2.6,10.7,4.2,16.2,6.1c3.5,1.2,6.9,2.7,10.1,4.4
		c3.3,1.7,6.2,4,8.4,7c0.5,0.7,1,1.4,1.1,2.3C639.4,428.3,638.9,428.8,637.2,429.2z"/>
	<path d="M603.6,468.5c-0.1,1.1-0.6,2.1-1.2,3.1c-1-0.1-2.1-0.2-3.1-0.1c-1.1,0.1-2.2,0.4-3.2,0.7c-7.5,1.9-14.9,3.8-22.4,5.6
		c-5.1,1.2-10,3.1-14.9,5c-0.6,0.2-1.1,0.6-1.7,0.4l0.1,0.1c0.2-1.5,1.5-1.8,2.6-2.3c3.8-1.7,7.7-3.3,11.7-4.4
		c8.2-2.2,16.3-4.4,24.5-6.5c1.7-0.4,3.4-1,5.1-0.7C602.1,469.6,602.8,468.9,603.6,468.5L603.6,468.5z"/>
	<path d="M584.6,507.7c2.3-0.4,4-0.5,5.6-0.9c1.5-0.4,3-0.9,4.5-1.2c0.5,0.7-0.1,1-0.4,1.2c-1.8,1-3.5,2.2-5.8,2.6
		c0.2,1.3,1.2,2.1,1.7,3.1c0.5,1,1,2,1.5,2.8c1,0.7,2,0.4,3,0.3c5.7-0.8,11.4-1.7,17-3.2c1.1-0.3,2.1-0.7,3.2-0.2
		c0.1,0.6-0.2,1-0.7,1.1c-4.7,1.5-9.4,2.7-14.3,3.2c-2.3,0.2-4.6,0.5-6.8,0.7c-0.6,1-0.2,1.9-0.1,2.7c0.1,0.8,0.4,1.7,0,2.7
		c-1.6-1.4-0.8-3.8-2.6-5.4c-2.1-0.1-4.5-0.1-7.7-0.2c2.8-1.2,5.3,0,7.3-1.3C588.9,512.1,587.8,510.4,584.6,507.7z"/>
	<path d="M641.1,515c1.5,1.1,1.2,2.1,0.7,2.9c-1.1,1.7-2.7,2.9-4.3,4c-4.3,3.2-8.8,6.3-13.6,8.8c-2.3,1.2-4.6,2.3-7,3.3
		c-1.3,0.5-2.8,1.1-4.3,0.7c-0.1-0.5,0.3-0.5,0.6-0.7c8.3-4.3,16.1-9.5,23.8-14.9C638.5,518.1,640.1,517,641.1,515z"/>
	<path d="M666.1,467.3c-0.8,0.7-1.6,0.4-2.4,0.2c-5.1-1.2-10.3-2.5-15.4-3.7c-4.2-1-8.4-1.7-12.6-2.7c-3.8-0.9-7.6-1.8-11.8-2.2
		c1-0.8,1.8-0.6,2.6-0.5c12,1.4,23.9,3,35.5,6.5c1.1,0.3,2.1,0.7,3.1,1.1C665.6,466.1,666.1,466.5,666.1,467.3z"/>
	<path d="M515.1,514.1c-0.8-0.1-1.2-0.4-1.3-0.8c-0.2-0.4-0.3-1-0.2-1.4c0.4-5,0.6-10.1,2.7-14.8c1-2.2,1.7-4.6,2.6-6.7
		c1.1-0.3,1.3,0.4,1.2,1c-0.5,2.2-1.2,4.2-1.5,6.4c-0.5,3-0.8,6.1-1.1,9.1c-0.2,1.8-0.6,3.6-0.9,5.4
		C516.3,513.1,516,513.7,515.1,514.1z"/>
	<path d="M585.8,504.1c-0.5,0.6-0.6,0.9-0.7,0.9c-2.1-0.4-4.2-0.3-6.2-0.4c-7.4-0.1-14.6-1.4-21.7-3.6c-3.2-1-6.2-2.4-9.2-3.8
		c-1-0.4-1.9-1-2.6-2.3c1.6-0.1,2.6,0.8,3.7,1.2c1.2,0.4,2.2,1,3.4,1.5c1.2,0.5,2.5,1,3.8,1.5c1.2,0.4,2.3,0.8,3.5,1.1
		c1.2,0.3,2.4,0.6,3.6,0.9s2.4,0.6,3.6,0.8c1.2,0.3,2.4,0.5,3.6,0.7c1.2,0.2,2.4,0.4,3.6,0.6c1.3,0.2,2.6,0.6,4,0.7
		c1.2,0.1,2.5,0.1,3.7,0.2C582.8,504.1,584.1,504.1,585.8,504.1z"/>
	<path d="M665,510.6c0.1-4.4,1.1-8.7,1.7-13c0.8-5.3,1.8-10.6,2.7-15.9c0.3-1.6,0.6-3.1,1.6-4.4l-0.1,0.1c0.3,0.1,0.7,0.2,1.2,0.4
		c-0.4,1.7-0.7,3.3-1,5c-0.3,1.6-0.5,3.1-0.8,4.7c-1,5.4-2,10.8-3.1,16.2C666.6,506,666.2,508.4,665,510.6L665,510.6z"/>
	<path d="M550.3,415.3c0.9,0.6,1.2,1,1.1,1.7c-10.3,7.7-10.3,7.7-16.2,15.7c-0.4,0.1-0.7-0.1-1-0.7c3-5.2,6-10.5,11.2-14.2
		c1.1-0.8,2.3-1.5,3.4-2.1C549.3,415.6,549.8,415.5,550.3,415.3z"/>
	<path d="M683,470c0.6,1.7,0.4,3.2,0.2,4.6c-0.2,1.5-0.4,2.9-0.5,4.4c-0.2,5.6-1,11.2-1.9,16.8c-0.3,1.9-0.4,3.9-0.5,6
		c-0.6-1-0.3-1.8-0.3-2.6c0-1-0.1-2-0.1-2.9c0-1,0-2,0.1-2.9c0.4-5.4,0.8-10.7,1.3-16.1c0.2-2.2,0.6-4.4,0.9-6.5
		C682.2,470.5,682.5,470.3,683,470z"/>
	<path d="M527.6,501.7c-1.3-0.2-1.6-1.4-2.1-2.3c-2.7-5.1-3.9-10.6-4.1-16.3c-0.1-3.6,0.5-7.1,2-10.4c0.2-0.5,0.4-1.2,1.2-1.1
		c0.4,0.3,0.4,0.6,0.2,1c-3.4,9-1.9,17.6,1.7,26.2C526.9,499.7,527.7,500.6,527.6,501.7L527.6,501.7z"/>
	<path d="M529.2,457.5c-0.3-0.3-0.3-0.7-0.1-1c2.8-5.4,5.2-11.1,8.7-16.1c0.6-0.8,1.2-1.6,1.8-2.3c0.2-0.2,0.6-0.2,0.9-0.3
		c0.6,0.6,0.5,1.2,0.2,1.7c-1,1.7-2,3.4-3.1,5c-2.8,3.9-5.5,7.8-7.5,12.2C529.9,457,529.8,457.6,529.2,457.5z"/>
	<path d="M591.8,494.3c0.4-1.1,1.2-1.8,1.9-2.7c2-2.7,3.9-5.3,5.9-8c0.8,0.2,0.8,0.9,0.5,1.4c-1.8,3.8-4.2,7.2-8,9.2
		C592,494.3,591.9,494.3,591.8,494.3L591.8,494.3z"/>
	<path d="M661.3,422.7c0.2-0.7,0.7-1,1.2-1.3c3.8-2.7,7.6-5.4,11.2-8.3c0.3-0.2,0.6-0.4,0.9-0.5c0.6,0.3,0.3,0.6,0.1,0.9
		c-3.8,3.6-8.1,6.4-12.5,9.1C662,422.7,661.6,422.6,661.3,422.7L661.3,422.7z"/>
	<path d="M649.5,523.9c0-4.2,1.4-8.2,2.6-12.2c0.1-0.4,0.5-0.9,1.1-0.8c0.1,0.2,0.4,0.4,0.4,0.5c-1.1,4.1-2.3,8.3-3.9,12.2
		C649.7,523.8,649.5,523.8,649.5,523.9L649.5,523.9z"/>
	<path d="M611.7,455.2c-2.4,2.6-4.1,5.7-5.5,9c-0.7,1.5-1.3,3.1-2.6,4.4l0.1,0.1c0-0.5-0.1-1,0-1.4c0.9-2.7,2-5.4,3.6-7.9
		C608.5,457.6,609.6,455.9,611.7,455.2L611.7,455.2z"/>
	<path d="M633,404.5c2.8,1.9,5.8,3.7,6.4,7.4c-0.9,0.5-1.2-0.2-1.4-0.7C636.5,408.9,634.9,406.6,633,404.5z"/>
	<path d="M595.5,531.3c-1.5-0.5-2.5-1.6-3.7-3.1C594.4,529.1,594.5,529.2,595.5,531.3L595.5,531.3z"/>
	<path d="M573.3,522.5c-2.8-0.3-2.8-0.3-3.8-2.2C571,520.8,572.2,521.5,573.3,522.5L573.3,522.5z"/>
	<path d="M650.3,451.4c-0.6-0.1-1.4,0.2-1.9-0.6C649.2,450.7,649.8,450.8,650.3,451.4L650.3,451.4z"/>
	<path d="M661.2,422.6c-0.3,1.2-1.1,1.5-2.2,1.5l0.1,0.1C659.6,423.3,660.3,422.8,661.2,422.6L661.2,422.6z"/>
	<path d="M659,424.1c-0.3,1.1-1.2,1.3-2.2,1.5l0.1,0.1C657.3,424.8,658.1,424.3,659,424.1L659,424.1z"/>
	<path d="M529.8,504.7c0.7,0.3,1,0.9,1.3,1.6C530.1,505.9,530.1,505.9,529.8,504.7L529.8,504.7z"/>
	<path d="M627.4,445c0.2-1.1,1.1-1.4,2.1-1.6l-0.1-0.1C629,444.3,628.2,444.6,627.4,445L627.4,445z"/>
	<path d="M529,503.9c-1-0.4-1.5-1.1-1.5-2.2l-0.1,0.1C528.4,502.2,528.9,503,529,503.9L529,503.9z"/>
	<path d="M663.4,515.1c-0.1,0.5-0.1,1-0.2,1.8C662.7,515.9,663.1,515.5,663.4,515.1L663.4,515.1z"/>
	<path d="M649.4,523.8c0,0.5,0.1,1.1-0.3,1.5C648.7,524.7,649,524.3,649.4,523.8L649.4,523.8z"/>
	<path d="M573.2,522.5c0.5,0.1,1.1,0.1,1.6,0.2C574.2,523.2,573.8,522.6,573.2,522.5L573.2,522.5z"/>
	<path d="M664.9,510.5c-0.1,0.8,0.2,1.7-0.7,2.2l0.1,0.1C664.3,512,664.2,511.2,664.9,510.5L664.9,510.5z"/>
	<path d="M723.7,531.8c0.2-0.5,0.5-0.7,0.9-0.6c0.1,0,0.3,0.4,0.2,0.6C724.5,532.1,724.2,532,723.7,531.8z"/>
	<path d="M663.5,515.1c0-0.8-0.1-1.7,0.7-2.3l-0.1-0.1C664.1,513.6,664.4,514.5,663.5,515.1L663.5,515.1z"/>
	<path d="M655.3,426.3c0.5-0.3,1-0.6,1.6-0.6l-0.1-0.1C656.5,426.3,655.9,426.2,655.3,426.3L655.3,426.3z"/>
	<path d="M629.5,443.4c0.3-0.7,0.9-0.6,1.5-0.7l-0.1-0.1C630.6,443.3,630,443.3,629.5,443.4L629.5,443.4z"/>
	<path d="M627.3,444.9c-0.3,0.6-0.9,0.7-1.5,0.7l0.1,0.1C626.2,444.9,626.7,444.9,627.3,444.9L627.3,444.9z"/>
	<path d="M624.3,446.3c0.5-0.2,1-0.4,1.6-0.6l-0.1-0.1C625.5,446.3,624.8,446.1,624.3,446.3L624.3,446.3z"/>
	<polygon points="596.2,532.1 596.4,532.2 596.3,532 	"/>
	<path d="M595.5,531.3c0.6,0,0.7,0.3,0.7,0.8l0.1-0.1C595.8,532,595.6,531.7,595.5,531.3L595.5,531.3z"/>
	<path d="M557.1,483.2c-0.1,0.2-0.1,0.3-0.2,0.5C556.4,483.3,556.9,483.4,557.1,483.2L557.1,483.2z"/>
	<path d="M655.3,426.2C655.3,426.3,655.3,426.3,655.3,426.2L655.3,426.2z"/>
	<path d="M634.7,439.7c0-0.1,0.1-0.2,0.1-0.3C634.8,439.5,634.7,439.6,634.7,439.7L634.7,439.7z"/>
	<path d="M634.6,439.6c-0.1,0.2-0.2,0.4-0.2,0.5C634,439.6,634.5,439.8,634.6,439.6L634.6,439.6z"/>
	<polygon points="631,442.7 631.1,442.6 630.9,442.7 	"/>
	<path d="M624.3,446.2C624.3,446.2,624,446.5,624.3,446.2L624.3,446.2z"/>
	<polygon points="612.6,454.5 612.7,454.3 612.5,454.4 	"/>
	<path d="M612.5,454.4c-0.3,0.3-0.5,0.6-0.8,0.8l0.1,0.1C612.1,455,612.3,454.7,612.5,454.4L612.5,454.4z"/>
	<path d="M529.9,504.6c-0.6,0.1-0.8-0.2-0.8-0.7L529,504C529.5,504,529.7,504.3,529.9,504.6L529.9,504.6z"/>
	<polygon points="585.8,502.5 585.7,502.7 585.9,502.6 	"/>
	<path d="M585.9,502.6c0.1-0.1,0.2-0.3,0.2-0.3C586.1,502.3,586,502.4,585.9,502.6L585.9,502.6z"/>
	<polygon points="591,495.1 590.9,495.2 591.1,495.1 	"/>
	<path d="M591.1,495.1c0.3-0.3,0.5-0.5,0.8-0.8l-0.1-0.1C591.7,494.7,591.4,494.9,591.1,495.1L591.1,495.1z"/>
	<path d="M730.7,488c0.6,0.3,0.9,0.8,0.9,1.5c0,0.8-0.4,1.4-1,1.8c-1.2,0.8-2.5,1-3.9,0.7c-3.3-0.8-6.2-2.2-8.7-4.6
		c-1.4-1.3-2-2.9-1.5-4.9c1.3,0,1.8,1,2.6,1.5c0.8,0.4,1.4,0.9,2.2,1.4c1,0.6,2.1,1.3,3.2,1.9C727.5,488.7,727.5,488.7,730.7,488z"
		/>
	<path d="M876.5,494.2c0.7,0.9,0.3,1.3,0.1,1.7c-2,3.2-4.9,5.4-8.1,7.3c-2.2,1.3-4.6,2.3-7.2,2.8c-3.6,0.8-7.2,1.4-10.8,2.1
		c-0.1,0-0.3-0.3-0.5-0.4c0-0.7,0.6-0.7,1-0.8c3-0.8,6-1.4,8.9-2.3c4.9-1.4,9.4-3.6,13.2-7C874.2,496.6,875.3,495.4,876.5,494.2z"/>
	<path d="M775.7,510c0.4,0,0.8-0.1,1.1,0c0.8,0.4,1.5,0.9,2.2,1.4c3,1.8,5.8,4.1,9.3,4.7c0,1.7-0.4,2.3-1.3,2.4
		c-1.3,0.1-2.4-0.3-3.6-0.8c-2-0.9-3.6-2.2-4.9-3.8C777.5,512.6,776.7,511.2,775.7,510L775.7,510z"/>
	<path d="M766.2,499.5c1-0.1,1.8,0.3,2.1,1.1c0.4,1.2,1.3,1.7,2.2,2.3c1.4,0.8,2.7,1.6,3.8,2.7c1.2,1.2,1.9,2.5,1.4,4.3l0.1-0.1
		c-0.6-0.2-1.3-0.2-1.7-0.6c-2.8-3-5.5-6.1-7.9-9.5C766.2,499.7,766.2,499.6,766.2,499.5L766.2,499.5z"/>
	<path d="M709.1,467.9c-0.7,0.6-1,0.5-1.3,0.2c-2.2-2.6-4.8-10.2-4.8-14.7C704.8,458.8,706.9,463.3,709.1,467.9z"/>
	<path d="M690.7,407.3c0.2,0.4,0.6,0.8,0.6,1.3c0.3,4.9,1.3,9.7,2.9,14.3c-0.6,0.7-1,0.4-1.2-0.1c-1.3-3.1-1.9-6.4-2.1-9.7
		C690.7,411.1,690.8,409.2,690.7,407.3L690.7,407.3z"/>
	<path d="M690.1,360.6c-0.2,0-0.5,0.1-0.7,0c-1.8-1.2-2.6-3.8-1.8-5.7c0.1-0.3,0.5-0.4,0.8-0.6c0.3,0.2,0.6,0.3,0.6,0.4
		C689.4,356.6,689.7,358.6,690.1,360.6L690.1,360.6z"/>
	<path d="M714.7,473c1.3,2.2,2.5,4.4,1.8,7.4C713.6,478.2,714.4,475.5,714.7,473z"/>
	<path d="M687.9,321.9c-2.6-1.6-2.8-3.9-3.7-5.7c0.5-0.8,1-0.9,1.7-0.7c1.1,0.7,1.1,1.8,1.2,2.9
		C687.2,319.3,687.5,320.2,687.9,321.9z"/>
	<path d="M794.5,477c3.5-1.8,6.6-2.2,10-1.4C801.1,477,797.7,476.4,794.5,477z"/>
	<path d="M677.2,313.6c-0.9,0.4-1.8,0.8-2.4,1.5c-0.6,0.6-0.9,1.5-1.9,1.6c-0.5-0.1-0.9-0.4-1-1c0.1-1.1,0.7-2,1.8-2.4
		C674.9,312.8,676,312.6,677.2,313.6z"/>
	<path d="M700.5,315.5c-1.3-1.2-1.2-3-2.1-4.2c0.3-0.5,0.5-0.8,1.2-0.8c1,0.3,1.5,1.1,1.6,2.3C701.2,313.8,700.9,314.7,700.5,315.5
		L700.5,315.5z"/>
	<path d="M819.3,467.7c1.3-1.1,3-1.6,4.6-1.9c0.5-0.1,1-0.1,1.1,0.6C822.5,467.5,821.8,467.7,819.3,467.7L819.3,467.7z"/>
	<path d="M838.5,508.2c2.4-0.8,2.4-0.8,4.2,0C841,509.5,840.2,509.5,838.5,508.2z"/>
	<path d="M777.1,479c1-1.5,2.5-1.7,3.6-2.2c0.8,0.1,1.2,0.3,1.2,1.1C780.3,478.3,778.7,478.6,777.1,479z"/>
	<path d="M696.4,305.4c-0.8,1.4-1.7,1.7-2.9,1.9c-0.2-0.4-0.4-0.7-0.5-1.1C693.8,304.9,694.9,305,696.4,305.4z"/>
	<path d="M690.9,328.4c1.9,0.8,2.3,2,2,3.5C691.6,331,691.6,331,690.9,328.4z"/>
	<path d="M761.1,497.9c-2.3-0.2-2.3-0.2-4.2-2.1C758.5,495.9,758.5,495.9,761.1,497.9L761.1,497.9z"/>
	<path d="M691.5,362.6c1.1,1.5,0.3,2.3-0.2,3.2C690.1,364.9,690.9,364,691.5,362.6z"/>
	<path d="M859.4,466.2c-1.2,0.2-2.2-0.1-3.1-1.3C857.8,464.8,857.8,464.8,859.4,466.2L859.4,466.2z"/>
	<path d="M700.7,439.8c0.7,1.6,1,2.6,0.3,4C700,442.5,700.3,441.4,700.7,439.8z"/>
	<path d="M700.8,320.7c1.3,0.7,0.8,1.4,0.4,2.1C700.2,322.3,700.5,321.6,700.8,320.7z"/>
	<path d="M698.6,412.9c-0.6-0.8-0.4-1.5,0.1-2.2C699.9,411.6,699.9,411.6,698.6,412.9z"/>
	<path d="M703,326.6c0.1,1.3,0,1.8-0.8,2C701.8,327.8,702,327.3,703,326.6z"/>
	<path d="M692,371.2c-0.6-0.9-0.3-1.6-0.3-2.4C692.7,369.4,692.2,370.2,692,371.2z"/>
	<path d="M715.4,469c-0.8-0.1-0.9-0.6-0.6-1.3C715.7,467.8,716,468.2,715.4,469z"/>
	<path d="M714.9,464.6c-0.4-0.4-0.4-0.9,0.1-1.1c0.3-0.2,0.7,0.1,0.7,0.4C715.8,464.4,715.5,464.6,714.9,464.6z"/>
	<path d="M702.4,451.1c0,0.6,0,0.9,0,1.3C701.9,452.1,702.1,451.7,702.4,451.1z"/>
	<path d="M701.4,448.5c0-0.2,0-0.4,0-0.7c0,0,0.1,0,0.1,0c0,0.2,0,0.4,0,0.7C701.5,448.5,701.5,448.5,701.4,448.5z"/>
	<path d="M766.3,499.5c-0.3,0-0.5-0.1-0.9-0.2C765.9,499,766,499.3,766.3,499.5L766.3,499.5z"/>
	<path d="M690.8,407.2c-0.2-0.2-0.5-0.4-0.2-0.9C690.7,406.7,690.7,407,690.8,407.2L690.8,407.2z"/>
	<polygon points="698.6,420.4 698.5,420.7 698.5,420.4 	"/>
	<path d="M698.7,423.9c0,0.1,0.1,0.2,0.1,0.3c-0.1,0.3-0.2,0.4-0.3,0.1c0-0.1,0-0.2,0.1-0.3C698.5,424,698.6,424,698.7,423.9z"/>
	<path d="M703.8,332.5c-0.2-0.1-0.4-0.2-0.6-0.3c0.1-0.1,0.1-0.2,0.2-0.3c0.3-0.1,0.5,0,0.5,0.3C704,332.3,703.8,332.4,703.8,332.5z
		"/>
	<path d="M700.4,315.5c0.1,0.1,0.2,0.2,0.2,0.2c0.1,0.2,0.1,0.4,0,0.6C700.6,316.1,700.5,315.8,700.4,315.5L700.4,315.5z"/>
	<path d="M698.8,431.4c0,0.1-0.1,0.3-0.1,0.3c-0.2,0.1-0.3-0.1-0.3-0.4c0-0.1,0.2-0.1,0.2-0.2C698.7,431.2,698.8,431.3,698.8,431.4z
		"/>
	<path d="M741,471.3c0,0.3-0.1,0.7-0.1,1.1C740.4,471.9,740.9,471.7,741,471.3L741,471.3z"/>
	<polygon points="819.3,467.6 819.3,467.8 819.3,467.7 	"/>
	<polygon points="860,467.1 860.1,467.1 860.1,467 	"/>
	<path d="M860.1,467c-0.5,0-0.8-0.2-0.7-0.8l-0.1,0.1C859.7,466.4,860,466.6,860.1,467L860.1,467z"/>
	<path d="M690,360.7c0.1,0,0.2,0.1,0.2,0.1C690.2,360.7,690.2,360.6,690,360.7L690,360.7z"/>
	<polygon points="761,498 761.1,498.1 761.1,497.9 	"/>
	<path d="M944.6,497.9c-0.4-0.2-1.2-0.6-2-1.1c-0.7,0.2-1.5,0.4-2.2,0.6c-0.8-0.3-1-0.9-1.1-1.5c-0.2-1.7,0.1-3.4,0.6-5.1
		c0.2-0.7,0.7-1.3,1.3-1.8c1.2-1,2.6-0.9,3.6,0.3c0.5,0.6,0.7,1.3,1.1,1.9c-0.1,0.8-0.2,1.5-0.3,2.2c0.7,0.9,1.4,1.8,2.3,2.3
		c1.3,0.3,2.4-0.4,3.3-0.7c0.9-1-0.2-1.9,0.3-2.8c0.2-0.1,0.4-0.3,0.7-0.5c0.3,0.1,0.6,0.2,0.7,0.3c1.4,1.9,2.8,3.8,4.1,5.7
		c0.9,1.3,1.7,2.7,2.5,4.1c0.4,0.7,0.5,1.4,0.1,2.2c-0.5,0.8-1.3,0.9-2.2,1.1c-1.3,0.2-2.7,0.4-4,0.7c-1.1,0.2-2.2,0.4-2.9,1.4
		c-0.5,0.8-1.7,0.4-2.3,1c-0.4,0.5-0.4,1.2-1.1,1.4c-0.2,0-0.5,0.1-0.7,0c-2.7-1.1-4-3.4-5.1-5.8c0.5-0.7,1-0.6,1.4-0.3
		c1.2,0.9,2,2.2,3.5,2.5c1.1-0.2,1.8-0.7,2.4-1.7c-0.1-0.3-0.2-0.7-0.4-0.9c-1.9-1.6-4-2.9-6.3-3.2c-0.5-0.6-0.5-1,0.3-1.5
		c3.4,0.4,6.9,1,9.2,4.2c1.7-0.6,3.4-0.5,4.9-1.4c-0.8-1.9-2-3.2-3.3-4.5C950.3,497.4,947.7,498.8,944.6,497.9z"/>
	<path d="M979,432.6c1.2-0.9,2.1-1.1,3.2-0.9c1.6,1,1.7,2.8,1.7,4.5c0,1.2-0.3,2.4-0.4,3.7c-0.2,1.6-0.6,3.1-0.5,4.7
		c0.1,0.8-0.3,1.7-0.6,2.5c-0.4,1.3-0.9,2.5-1.3,3.8c-0.6,1.8-1.3,3.4-3.3,4.2c-1,0.4-1.4,1.8-2.5,2c-0.7-0.1-0.8-0.6-0.8-1.1
		c0.2-2.1,0.5-4,2.2-5.6c1.6-1.5,2.2-3.8,2.1-6.1c-0.1-1.3-0.2-2.7-0.3-4C978.4,437.7,978.3,435.2,979,432.6z"/>
	<path d="M971,434.5c1-0.2,1.5,0.7,2.1,0.7c0.8,0,1.3-0.9,2.3-0.3c0.6,2.3-1.1,4.2-1.7,6.3c-0.6,2.3-2.9,3.6-3.7,5.4
		c-0.7,0.5-1.2,0.5-1.7,0.3c-0.6-1.7-0.6-1.7,0.5-4.7C968.1,439.6,968.1,436.7,971,434.5z"/>
	<path d="M889.2,468.8c3.1-0.5,5,0.7,6.8,1.8c1.2,0.7,2.6,1.1,3,2.7c-0.4,0.1-0.7,0.3-0.8,0.2c-2.5-1.3-5-2.5-7.4-3.8
		C890.4,469.5,890.1,469.3,889.2,468.8z"/>
	<path d="M906.6,475.9c1.5,0.1,2.9,0.6,4.1,1.4c0.6,0.4,1.1,0.9,1,1.8c-0.4,0.6-1.1,0.6-1.6,0.3
		C908.6,478.6,907.3,477.5,906.6,475.9L906.6,475.9z"/>
	<path d="M941.9,465.2c-1.8,0.4-2.1-0.6-2.6-1.5c-0.3-0.5-0.2-0.6,0.5-1.9C941.1,462.6,941.4,463.8,941.9,465.2z"/>
	<path d="M942.3,468.1c1.6,0.6,2.2,1.6,2.5,2.8c-0.1,0.8-0.5,1.1-1.2,1.1C942.6,470.9,942,469.7,942.3,468.1z"/>
	<path d="M897.2,501.3c0.3-1,1-0.9,1.6-0.9c0.7,0,1.5,0.1,1.8,1.2C899.3,502.8,898.3,502,897.2,501.3z"/>
	<path d="M891.7,500.8c1.8-0.4,1.8-0.4,2.6,0.6C893.4,502.3,892.6,501.9,891.7,500.8z"/>
	<path d="M906.6,475.8c-0.8,0.1-1.4-0.2-1.9-0.9C905.6,475,905.6,475,906.6,475.8L906.6,475.8z"/>
	<path d="M908.5,449.8c-0.6-0.4-0.6-0.9-0.2-1.4C908.9,448.8,909,449.2,908.5,449.8z"/>
	<path d="M908.9,503.9c-0.2-0.1-0.5-0.1-0.3-0.1C908.4,503.8,908.6,503.9,908.9,503.9L908.9,503.9z"/>
	<path d="M587.9,349.3c-2.6,1.3-4.1,1.4-7.7,0.7c-0.3-0.3-0.7-0.7-0.6-1.2c0.1-0.2,0.2-0.4,0.4-0.6c0.8-0.5,1.7-0.3,2.5-0.1
		C584.1,348.4,585.7,348.8,587.9,349.3z"/>
	<path d="M661.7,347.1c7.2-1.5,7.2-1.5,9.6-0.9C670.3,347.2,670.3,347.2,661.7,347.1z"/>
	<path d="M646.9,333.4c0.1,0.4-0.1,0.7-0.5,0.9c-0.8,0.3-1.5,0-2.2-0.5C645.6,333.2,645.6,333.2,646.9,333.4z"/>
	<path d="M598.8,349.1c-0.5,0.5-1,0.4-1.5,0.1C597.6,348.3,597.6,348.3,598.8,349.1z"/>
	<path d="M639.5,333.4c0.1-0.1,0.3-0.3,0.4-0.4c0.1,0.2,0.2,0.3,0.3,0.5c0,0-0.2,0.2-0.2,0.2C639.8,333.6,639.6,333.5,639.5,333.4z"
		/>
	<path d="M632,334.4c-0.4,0.6-0.9,0.5-1.3,0.1C631.1,333.9,631.5,334,632,334.4z"/>
	<path d="M604.7,349.2c-0.5,0.4-0.8,0.4-1.2,0.1c-0.3-0.2-0.2-0.4,0.1-0.5C604,348.7,604.3,348.8,604.7,349.2z"/>
	<polygon points="609.6,349.2 609.4,349.2 609.6,349.1 	"/>
	<path d="M654.7,347.6c0,0.1-0.1,0.1-0.1,0.1c-0.1,0-0.2,0-0.3-0.1c0-0.1,0.1-0.2,0.1-0.2C654.5,347.6,654.6,347.6,654.7,347.6z"/>
	<path d="M755.9,341.6c-0.1-0.7,0.2-1.2,0.9-1.6c1.6-0.6,3.5,0.1,5.3-0.4c1.7-0.4,3.5-0.7,5.6-1.2c-0.4,0.6-0.6,1-0.9,1.2
		c-2.3,1.7-4.8,2.9-7.6,3.4C757.6,343.5,757.2,343.2,755.9,341.6z"/>
	<path d="M738.9,339.1c-3.7-1.1-7-2.9-10.3-4.5c-0.1-0.6,0.2-1,0.6-0.9c3.7,0.9,7.3,1.9,10.6,3.7c0.2,0.3,0.2,0.3,0.3,0.5
		C740.2,338.5,739.8,338.7,738.9,339.1z"/>
	<path d="M772.5,336.2c-1.3,1-2.2,1.7-3.7,1C769.8,336,770.7,335.5,772.5,336.2z"/>
	<path d="M749.8,347.2c-0.4,1.4-1,2.1-2.1,2.2c-0.2,0-0.4-0.2-0.6-0.4C747.5,348,748.4,347.7,749.8,347.2z"/>
	<path d="M727.8,383.6c0.2-1,0.9-1.2,1.9-1.2C729.3,383.4,728.6,383.7,727.8,383.6L727.8,383.6z"/>
	<path d="M773.3,351.1c-0.6-0.7-0.7-1.3-0.1-2.1C773.7,349.8,773.6,350.4,773.3,351.1z"/>
	<path d="M745.5,352.5c0.1-0.1,0.2-0.2,0.2-0.3c0,0.1,0,0.2,0,0.2C745.7,352.4,745.6,352.4,745.5,352.5
		C745.5,352.5,745.5,352.5,745.5,352.5z"/>
	<path d="M744.8,353.3c-0.1-0.6,0.2-0.8,0.8-0.7l-0.1-0.1C745.5,353,745.2,353.2,744.8,353.3C744.7,353.2,744.8,353.3,744.8,353.3z"
		/>
	<path d="M770,441.2c2,1.1,1.9,3,2.3,4.8c-1.9-0.9-2.7-1.6-3.2-3.1C768.9,442.3,769,441.7,770,441.2z"/>
	<path d="M776.3,450.5c0,0.1,0.1,0.2,0.1,0.3c-0.1,0.3-0.2,0.3-0.3,0.1c0-0.1,0-0.2,0-0.3C776.1,450.5,776.2,450.5,776.3,450.5z"/>
	<path d="M764.8,325.8c-1.2,0-2.4,0.1-3.6,0.1c-0.9,0-1.6-0.4-2.1-1.2c0-0.8,0.5-1.1,1.1-0.9C761.7,324.4,763.4,324.8,764.8,325.8
		L764.8,325.8z"/>
</g>
</svg>
