<?xml version="1.0" encoding="utf-8"?>
<!-- Generator: Adobe Illustrator 19.1.0, SVG Export Plug-In . SVG Version: 6.00 Build 0)  -->
<svg version="1.2" baseProfile="tiny" id="Layer_2" xmlns="http://www.w3.org/2000/svg" xmlns:xlink="http://www.w3.org/1999/xlink"
	 x="0px" y="0px" width="900px" height="600px" viewBox="144 97 900 600" xml:space="preserve">
<g>
	<path d="M409.3,391.6c1,0.2,1.8-0.4,2.6-0.8c6.5-2.8,13.3-4.3,20.1-6c0.4-0.1,0.9-0.2,1.4,0.3c-4,1.2-7.9,2.4-11.7,3.7
		c-3.2,1.1-6.4,2.2-9.5,3.5s-6.1,2.9-8.3,5.6c-0.8,1-1.3,2.2-1.9,3.1c-1.9,0.7-3.3-0.7-4.9-0.8c-1.5-0.1-3-0.1-4.5-0.2l0.1,0.1
		c0.4-1,1.4-1.1,2.3-1.4c0.7-0.3,1.6,0.1,2.3-0.5c0.3-0.6-0.4-0.8-0.4-1.3c1.3-1,2.3,0.5,3.5,0.3c0.1-0.2,0.2-0.4,0.4-0.7
		c-3.1-0.7-6.1-1.5-9.2-1.6c-1-0.1-2.1,0.2-3.1,0.4c-2,0.5-3.6,1.7-4.6,3.5c-0.8,1.5-1.4,3.2-1.7,4.9c-0.6,3.6-1.2,7.1-1.8,10.7
		c-0.6,3.2-1.1,6.4-1.9,9.6c-0.7,2.8-0.7,5.5-0.2,9.1c1.2-6.2,2.3-11.7,3.4-17.2c0.9-0.1,0.7,0.5,0.6,0.9
		c-0.9,6.6-1.7,13.2-2.6,19.8c-0.3,2.1-0.4,4.2-0.3,6.1c0.4,0.5,0.7,0.2,1,0.2c0.1,0.1,0.3,0.3,0.3,0.5c-0.2,3.5-0.4,7-0.6,10.5
		c-0.1,2.3,0.1,4.7,0.6,6.9c0.4,1.7,0.8,3.4,0.8,5.2c0,1,0.1,2.1,1.2,3c-0.1-3.6,0.1-6.9-0.5-10.3c-0.7-3.9-0.2-7.9,0.3-11.8
		c0.9-6.7,2.7-13.2,4.3-19.8c0.8-3.3,1.4-6.6,2.5-9.8c1.4-3.8,2.9-7.6,4.7-11.3c0.5-0.8,1.8-0.5,2.2-1.6c0.3-0.8,0.8-1.4,1.7-1.7
		c0.6,0.2,0.8,0.7,0.4,1c-2,1.8-3.1,4.1-4.3,6.3c-0.9,1.6-1.5,3.4-1.6,5.3c0.4,0.2,0.7,0.3,1,0.4l-0.1-0.1c-0.2,0.5-0.3,1.1-0.6,1.6
		c-1.8,3.2-2.4,6.8-2.8,10.4c-0.5,4.3-1,8.6-1.4,12.8c-0.3,3.4-0.8,6.7,0.5,10c0.1,0.2,0.1,0.5,0.1,0.7c0.2,5.3,0.6,10.7,0.6,16.1
		c0,4.6-0.8,9-2.3,13.4c-0.8,2.3-1.7,4.6-2.2,7.1c-1.3,0.6-2.1,1.8-3.1,2.8l0.1,0.1c-0.4-1.5,0.3-2.7,0.7-4.1
		c0.5-1.9,1.4-3.7,1.4-5.7c0.9-1.3,1-2.8,1.2-4.3s0.4-3,0.5-4.5c0.5-5.2,0.6-10.5,0.2-15.7c-0.2-2.9-0.5-5.8-0.6-8.7
		c0-0.9-0.1-1.9-0.2-2.8c0-0.5-0.1-0.9-0.9-0.7c-0.7,4.7-0.6,9.5,0.1,14.2c0.8,6.3,1,12.5-0.2,18.8c-0.2,1.3-0.4,2.5,0,3.8
		c-1,0.6-1.2,1.6-1.5,2.6c-0.1,0.4-0.3,0.9-0.9,0.9c-0.6-0.7-0.2-1.5-0.1-2.3c0.1-1.4,0.2-2.8,0.3-4.2c0.1-1.2-0.1-2.3-0.6-3.4
		c-1.9-4.5-3.8-9-5.4-13.6c-2.1-6-2.9-12.2-2.2-18.6c0.5-5.2,1.3-10.4,1.4-15.7c0.1-5.8,0.5-11.7,1.3-17.4c0.5-3.5,1.2-6.9,2.4-10.2
		c0.6-1.7,1.5-3.2,2.7-4.5c2.9-3.2,6.5-3.9,10.5-3.4c2.8,0.4,5.4,1.4,8,2.4c0.7,0.3,1.3,0.9,2.1,1.5c0.6-0.1,1.3-0.2,1.9-0.4
		c0.2-0.3,0.5-0.6,0.6-0.9c1.3-2.8,3.2-4.8,6-6.2c1-0.5,1.8-1.1,2.6-1.8c4.1-3.5,8.8-5.6,14-6.7c6.1-1.3,12.2-1.8,18.4-2.1
		c0.7,0,1.5,0.1,2.1-0.1c1.8-0.7,3.4-0.2,5.1,0.5c3.2,1.3,6.5,2.6,9.7,3.9c1.9,0.7,3.5,1.8,5,3.2c1.4,1.4,2.9,2.7,4.4,4
		c2.1,1.8,3.5,4,4.1,6.7c0.2,0.9,0.5,1.8,0.8,2.7c1.9,4.3,3,8.8,3.4,13.5c0.1,1.3,0.4,2.5,0.6,3.8c0.3,1.8,0.3,3.5-0.5,5.1
		c-0.3,0.6-0.5,1.3-0.7,2c-0.8,1.8-0.6,3.5-0.1,5.4c1.3,5,4.2,9.3,6.2,14.3c0.1,1.1-0.6,2-1.8,2.3c-1.6,0.5-3.1,0.9-4.7,1.3
		c-0.7,0.9-0.9,1.9-0.6,2.9c0.2,0.9,0.6,1.8,0.2,2.7c-0.3,1.1-1.6,1.3-2.2,2.3c0.3,0.8,0.7,1.6,0.9,2.5c0.2,0.8,0,1.7-0.5,2.4
		c-0.5,0.8-1.1,1.5-1.7,2.2c0,2.5,0.5,5.1-0.5,7.7c-1.6,1.4-3.5,2.2-5.6,2.4c-2,0.2-4,0.2-5.9-0.1c-0.9-0.1-1.8-0.3-2.8-0.3
		c-1.8,0-3.5-0.3-5-1.2c-0.8-0.5-1.6-0.8-2.7-0.7c0.3,2.9,0.7,5.6,0.9,8.3c0.3,2.7,0.5,5.3,0.8,8c1.4,1.4,2.9,2.7,4.2,4.2
		c0.6,0.7,1.3,1.3,2.1,1.8c2.8,1.7,5.2,4,8.4,4.8c1.1,0.3,2,1.2,2.9,2c2.3,2,4.9,3.5,7.6,5c1.8,1,3.6,2.1,5.3,3.4
		c3.2,2.4,6.3,4.8,9.8,6.8c2.7,1.6,4.9,3.9,6.8,6.5c2.1,2.8,3.9,5.8,5.4,9c1.2,2.6,2.3,5.1,2.2,8c0,0.3,0.1,0.7,0.2,1
		c1.4,4.7-0.2,8.7-2.9,12.4c-2.2,3-4.2,6.2-7.1,8.6c-0.3,0.3-0.5,0.8-0.8,1.2c0.2,3.1,2.4,5.6,2.6,8.7c1.1,1,1.9,2.2,2.3,3.5
		c0.4,1.2,0.7,2.5,1.1,3.7c0.8,0.9,2.1,1,2.7,2.2c0.5,1,1,2.1,1.5,3.2c0.3,0.1,0.7,0.2,1.1,0.3c0.5-2,0.5-4,0.4-5.9
		c-0.2-5.2,0.8-10.2,1.4-15.3c1.1-8.9,3.3-17.7,4.9-26.5c0.7-3.5,1.5-7.1,2.4-10.6c0.7-2.8,1.6-5.6,3.1-8.2c0.6-1,0.9-2.2,1.2-3.3
		c1.5-5.4,3.4-10.6,5.7-15.8c1.8-4.2,4.5-7.9,7.2-11.5c0.7-0.9,1.5-1.8,2.1-2.8c0.8-1.4,1.8-2.4,3.3-3c0.8-2.3,1.8-4.4,3.8-5.8
		c1.9-1.2,4-1.8,6.2-2.3c3-0.7,6-0.9,9-0.5c2.2,0.3,4.5,0.7,6.3,1.8c3.5,2,7.1,3.5,10.8,4.8c2.5,0.9,5,1.8,7.2,3.4
		c1.6,1.1,3.5,1.8,5.4,2.4c6.2,1.8,12.3,3.7,18.5,5.2c7.8,1.9,15.6,4.1,23.3,6.3c5.1,1.4,10.1,3,15.1,4.4c3.6,1,7.3,1.8,10.9,2.6
		c0.7,0.2,1.4,0.3,2.1,0.2c3.1-0.2,6,0.7,9,1.3c7.1,1.6,14.2,2.7,21.4,3.6c1.6,0.2,3.3,0.3,5.1,0c0.9-0.8,1.6-2.2,3.3-2.1
		c2.3-2.1,5.4-2,8.2-2.7c0.5-0.1,0.9-0.2,1.3-0.4c5.4-2.3,10.8-4.5,16.1-6.8c1.7-0.7,3.4-1.6,4.9-2.7c0.6-0.4,1.2-0.8,1.8-1.1
		c4.4-1.7,7.3-4.9,9.6-8.8c1.7-2.8,3.5-5.5,5.6-8c0.9-1.1,1.7-2.2,3.3-2.7c2.7-0.1,5,1,7,3.1c1.4,1.5,2.6,3,3.6,4.7
		c0.5,0.9,1,1.8,1.5,2.6c0.8,0.3,1.2-0.2,1.6-0.5c1.1-0.7,2.3-1,3.7-0.9c0.3,0,0.7,0,1,0.1c7.1,1,7.2,1.6,10.1,7.1
		c1.7,3.4,2.5,7,2,10.8c-0.4,3.1-0.7,6.3-1.4,9.3c-0.3,1.5-0.6,3-0.9,4.5c-0.5,3.1-1.8,5.7-4,8c-2.4,2.4-4.6,5-6.9,7.4
		c-1.1,1.2-2.4,2.2-3.6,3.3c-1.7,1.6-3.5,2.6-5.8,3c-3.1,0.5-5.7,2-7.7,4.4c-0.7,0.9-1.7,1.6-2.7,2.2c-1.9,1.1-2.8,2.8-3.2,4.8
		c-1,5.7-4,10.1-8.5,13.6c-3.8,3-7.6,5.8-11.1,9.1c-0.4,0.4-0.9,0.7-1.3,0.9c-0.7,0.1-1.1-0.1-1.4-0.4c-0.6-0.7,0.1-1.4-0.2-2.1
		c-0.4-0.9-0.8-1.7-1.2-2.5c-0.8-0.8-1.9-1-2.8-1.4c-2.8-1.2-5.1-2.8-6.1-5.8c-0.2-0.5-0.6-1-0.9-1.5c-1.8-2.3-3.6-4.6-5.5-6.8
		c-2.7-3-4.1-6.7-5.6-10.1c0.1-1,0.4-1.6,1.1-2.2c0.2-0.1,0.6-0.2,0.9-0.2c1.5,0,2.9,0.9,4.7,0.8c0.9-1.3,2.5-2,4-2.8
		c2.2-1.2,3.9-2.8,4.8-5.3c1.3-3.7,0.7-6.9-2.1-9.7c-0.9-0.9-1.9-1.8-2.9-2.5c-1.2-0.9-2.5-1.7-3.9-2.7c-1.8,0.9-3.7,0.4-5.6,0
		c-8.2-1.9-16.4-3.8-24.5-5.7c-3.9-0.9-7.8-1.6-11.7-2.3c-7.2-1.3-14.4-3-21.4-5.1c-8.3-2.5-16.6-4.7-24.9-7.1
		c-9.6-2.8-19.3-5.6-28.9-8.4c-3.2-0.9-6.1-2.4-8.7-4.4c-1.2-0.9-2.6-1.6-4.1-1.9c-4.1-0.9-8.1-2.4-11.9-4.2
		c-2.8-1.3-5.7-1.9-8.8-1.4c-2.5,0.4-5.1,0.7-7.5,1c-1.2,0.8-1.9,1.9-2.5,3c-1.5,2.9-3.5,5.5-6.1,7.6c-1.9,1.5-3,3.5-3.6,5.8
		c-1.2,4.4-2.6,8.7-3.9,13.1c-0.2,0.7-0.4,1.3-0.5,2c-1,6.2-2.1,12.4-3.1,18.6c-0.5,3.3-0.8,6.7-1,10.1c-0.4,9.2-1.7,18.4-3.1,27.5
		c-1,6.6-1.8,13.2-2.5,19.8c-0.5,4.5-0.7,9.1-0.8,13.6c-0.1,2.7-0.9,5.3-0.6,8.1c0.7,1.2,1.5,2.5,2.2,3.8c1.9,3.1,4.2,5.9,7,8.2
		c4.1,3.3,8,6.7,12.1,10c8.2,6.6,17.4,11.2,27.2,15c2.3,0.9,4.8,0.9,7.2,1.3c1.5,0.2,3,0.4,4.5,0.7c1.1,0.2,1.9,0.9,1.9,2.2
		c-0.9,1-2.1,0.8-3.3,0.6c-3.3-0.6-6.6-1.2-9.9-1.8c-3-0.5-5.9-1.5-8.6-2.7c-4.8-2.2-9.4-4.6-13.6-7.8c-8.1-6.1-15.9-12.5-22.9-19.8
		c-1.1-1.1-2.4-2-4.1-2.7c-0.4,2.4-0.1,4.4,0.4,6.5c0.6,2.5,1.7,4.8,1.7,7.4l0.1-0.1c-1.1-0.2-0.8-1.8-2.1-2c0,2.5,0.8,4.8,1.8,7.1
		c1.1,2.3,2.2,4.6,3.4,6.9c1.8,3.6,4,7.1,5.4,10.9c0.2,0.5,0.7,1.1,0.1,1.9c-2.6-5.1-5.1-10.1-7.7-15c-0.5-0.9-0.7-2-1.6-2.6
		c-0.2-0.4-0.4-0.4-0.7,0c-0.9-3.3-1.5-6.6-1.9-9.9c-0.1-1.3-0.3-2.5-0.6-3.8c-0.6-2.9-1-6-1.5-8.8c0.4-0.7,0.7-1.3,1.1-2
		c-0.3-1.1-0.6-2.2-0.8-3.3c-1.1,0.5-1.2,1.5-1.6,2.5c0.7,1.5,0.3,3.1-0.2,4.7c-1.7,5.6-4,10.9-6.2,16.3c-3.8,9.3-6.4,19-8.4,28.8
		c-1.3,6.2-1.8,12.7-1.4,19.3c1.9,1.2,3.6,2.7,5.8,3.7c6.3,2.8,13,3.6,19.8,4c6.6,0.4,13.3-0.2,19.9-0.9c3.4-0.3,6.8-0.3,10.1-0.4
		c0.5,0,1.3-0.3,1.6,0.6c-1.1,0.4-2.2,0.8-4,1.4c3.3-0.2,5.8-0.4,8.2-0.6c4.2-2.3,7.5-5.4,10.1-9.2c1.9-2.9,4.1-5.7,5.2-9.1
		c2-5.7,3.9-11.5,5.9-17.2c0.3-1,0.7-2,0.4-3.1c0.9-0.4,1-1.3,1.2-2c1.1-3.2,2-6.5,2.2-9.9c0.6-7.3,1-14.7,0.5-22
		c-0.4-7.1-0.8-14.2-1.2-21.3c-0.1-1.9-0.3-3.7-0.6-5.6c-1-6.6-2.1-13.1-3.1-19.7c-1.4-9.3-2.9-18.7-2.7-28.2c0-1.6-0.1-3.3-0.2-4.9
		c-0.5-4.5,0-8.9,0.5-13.3c0.1-0.8,0.3-1.6,0.9-2.2c0.3-0.3,0.6-0.3,1.1,0c-0.1,1-0.3,2.1-0.4,3.2c1.9,1.8,4,2.9,6.2,3.9
		c4.8,2.2,9.6,4.3,14.4,6.4c3.4,1.5,7,2.5,10.8,2.6c0.7,0,1.4,0,2.1,0.2c5.5,1.2,11,0.8,16.3-0.2c5.8-1.1,11.6-1.4,17.4-1.9
		c7.4-0.7,14.9-1,22.4-0.6c7.1,0.3,14.2,0.4,21.3,1.4c3.1,0.4,6.2,1,9.3,1.6c1.3,0.3,2.8,0.5,3.6,2.2c-1.7,1-3.4,1.1-5.3,0.8
		c-3-0.6-6-1-9-1.5c-0.8-0.1-1.6-0.3-2.4-0.3c-7.1-0.3-14.2-0.7-21.3-0.9c-6.5-0.2-13.1,0.2-19.6,0.4c-0.9,0-1.9,0.1-2.8,0.1
		c-3.4,0.1-6.7,0.5-9.9,1.8c-4,1.7-8.3,2.3-12.7,2.2c-3.7-0.1-7.5,0-11.2-0.7c-5.1-0.9-10-2.5-14.6-4.7c-3.9-1.9-7.7-3.9-11.4-6.2
		c-0.7-0.4-1.4-0.8-2-1.1c-0.8,0.2-0.9,0.8-1,1.4c-0.1,1.7-0.3,3.5-0.1,5.2c0.3,3.4,0.1,6.8,0.6,10.1c0.4,3,0.7,6,1.4,9
		c0.9,3.6,1.1,7.4,1.4,11.1c0.8,8.8,2.1,17.6,3.4,26.4c0.6,4.3,1.2,8.6,1.1,12.9c-0.1,9.5-0.1,18.9-0.3,28.3
		c-0.2,6.4-0.7,12.8-2.5,19c-1.1,3.6-2.3,7.1-3.8,10.5c-1.5,3.3-2.7,6.7-4.4,9.9c-1.5,2.7-2.8,5.4-5.1,7.4c-0.6,0.5-1.2,1.2-1.5,1.9
		c-0.8,2-2.3,3.2-3.9,4.3c-1,0.8-2.1,1.5-3.2,2.2c-1.6,1-3.3,1.6-5.3,1.5c-1.5-0.1-3,0-4.5,0.4c-0.9,0.3-1.9,0.3-2.8,0
		c-1.7-0.6-3.5-0.5-5.2-0.5c-3.3,0-6.5-0.1-9.8,0c-5.4,0.2-10.7-0.4-16-1c-4.1-0.5-8.2-0.6-12.1-1.8c-3.3,0.2-6.1-0.9-8.4-3.3
		c-0.9-1-2.4-1.4-3.6-2.1c-1.1-0.6-2.1-1.4-2.7-2.6c-0.7-1.4-1.8-2.4-3.2-3.1c-1.3-0.6-2.4-1.5-3.2-2.6c-1.1-1.5-2.6-2.7-4.1-3.8
		c-1.4-0.9-2.7-1.8-4.1-2.7c-2.3-1.4-4.5-2.8-6.5-4.7c-0.8-0.8-1.8-1.4-2.8-2.1c-3.7-2.5-7.2-5.2-10.7-8c-2-1.6-3.9-3.3-5.6-5.3
		c-4.5-5.1-8.8-10.2-12.9-15.7c-3.7-5-6.9-10.2-9.1-16.3c-9.2-7.6-15.4-17.5-19.3-29.1c-1.9,1.5-2.7,3.4-3.6,5.4
		c1.8,5.6,2.3,11.4,2.7,17.2c0.2,2.8,0.2,5.6,0,8.4c-0.5,5.8-0.3,11.7-0.4,17.5c0,0.6-0.1,1.2,0.1,1.7c2,5.2,2.5,10.7,3.8,16
		c1.5,5.9,3,11.7,4,17.7c0.1,0.3,0.3,0.6,0.3,0.9c0.6,0.7,1.4,0.6,2,0.5c1.1-0.2,2.3-0.6,3.4-0.7c3.6-0.5,7.2-0.9,10.7-1.4
		c0.8-0.1,1.6,0.1,2.4,0.4c1.1,0.4,2.2,0.7,3.3,1.2c2.3,1,4.5,1.9,7.1,1.5c0.4-0.1,0.9,0.1,1.4,0.3c3,0.9,6,0.9,9,0.8
		c2.6,0,5.1,0,7.6,0c0.7,1.5,0.7,1.5,0,4.4c1.6,0.7,3.4,0.5,5.1,0.8c1.8,0.4,3.2,2,5.2,1.7c1.3,1.2,3.3,0.9,4.5,2.2
		c-0.7,0.8-1.4,0.6-2.1,0.4c-1.9-0.5-3.9-0.9-5.7-1.6c-3.7-1.4-7.8-1.7-11.4-3.4c-1.2-0.6-2.5-0.3-3.8-0.1c-2.9,0.5-5.8,0.3-8.6,0.3
		c-0.5-0.9,0-1.2,0.5-1.7c1.1-0.1,2.2-0.3,3.4-0.2c1.8,0.2,3.5-0.1,5.2-0.2c0.9,0,1.9-0.2,2.8-0.1c0.9,0.1,1.8,0.4,2.7,0.6
		c0.3-0.2,0.6-0.4,0.8-0.7c0.2-0.3,0.2-0.6,0.3-1c-2.6-0.2-5.2-0.3-7.7,0.2c-1.9,0.4-3.9,0.5-5.9-0.2c-1.3-0.4-2.8-0.4-4.2-0.3
		c-1.3,0.1-2.5-0.1-3.6-0.4c-3.6,0.3-6.6,2.1-9.9,2.9c-3.3,0.7-6.6,1.2-10,1.4c0,1.3,0.7,2.3,0.1,3.3c-0.6,0.1-0.7-0.4-1-0.7
		c-2.2-3.3-4.1-6.8-5.5-10.5c-1.4-3.8-2.9-7.6-4-11.6c-0.7-2.8-1.6-5.6-2.5-8.4c-2.1-6.5-3.2-13.1-3-20c0.1-2,0-4-0.2-5.9
		c-0.2-1.5-0.2-3,0-4.5c0.6-7.8,0.3-15.6-0.3-23.4c-0.1-1.8-0.9-3.4-1.4-4.9c-0.1-1.5,0.6-2.6,1.3-3.7c1.7-2.8,3.5-5.5,5.3-8.2
		c5.7-9.1,11.5-18.1,17.2-27.2c2.6-4.2,4.8-8.5,7.2-12.8c1.1-1.9,2.3-3.8,3.5-5.7c2.2-1.2,4.4-2.5,6.4-4c0.9,0.4,0,1.2,0.7,1.8
		c1.5,0.3,3.5-0.5,5,1c-1.9,1.6-6,2.3-10.1,1.7c-1.3,2.6-2.5,5.4-3.9,8c-1.4,2.8-3.1,5.5-4.6,8.3c-1.4,2.6-3.6,4.9-4.7,7.9
		c2.4-0.1,4.6-0.3,6.6-1.4c4.4-2.4,8.8-4.9,13.2-7.2c3.4-1.8,6.1-4.2,8.4-7.3c2.5-3.5,5.1-6.9,7.6-10.4c2.4-3.3,4.3-7,6-10.7
		c-0.8-3.9-2.2-7.3-4.8-10.4c-2.2-2.6-4.1-5.4-6.1-8.1c-0.8-1-1.6-2-2.6-2.8c-5.1-4.1-10.8-7.4-16.3-10.9c-0.6-0.4-1.3-0.6-1.9-0.8
		c-1.1-0.4-2.2-0.7-3.3-1.1c-4.1-1.8-8.4-2.8-12.9-3.2c-4.1-0.4-8.2-0.4-11.9,1.8c-0.5,0.3-1.1,0.5-1.7,0.7
		c-1.7,1.9-2.7,4.3-3.8,6.6c-0.8,1.7-1.5,3.4-2.4,5.1c-1,2-1.4,4,0,5.9c-0.8,3.8-2.1,7.5-3.4,11.1c-1.2,3.3-2.4,6.6-3.6,9.9
		c-0.8,2.3-1.5,4.7-2.2,7c-0.6,2-1.2,4-2,6c-2.4,5.5-4,11.2-5.8,16.9c-0.9,2.9-1.8,5.8-2.7,8.7c-1.4,4.3-2.6,8.7-3.4,13.2
		c-1.2,7.1-3.6,13.8-6.8,20.1c-0.8,1.6-1,3.1-0.7,4.7c0.7,1.8,2.1,3.2,2.5,5.1l0.1-0.1c-0.3-0.1-0.6-0.2-0.9-0.3
		c-0.6,0.5-0.3,1.1-0.2,1.6c1,6,3.1,11.7,4.6,17.6c3.3,12.3,7.9,24.2,13.9,35.4c1.2,2.3,2.3,4.6,3.6,6.8c0.8,1.4,1.5,2.9,2.5,4.2
		c1.2,1.6,2.1,3.3,3,5.1c1.5,3.2,3.3,6.2,6.3,8.3c1.7,1.2,2.8,3.1,4,4.8c0.4,0.5-0.2,1.2,1.1,1.9c0.7,0.2,2,0.4,3,1.7
		c0.6,0.8,1.6,0.9,2.5,1.1c3.9,0.8,7.8,1.6,11.7,2.3c1.7,0.3,3.5,0.3,5.2,0.1c3.4-0.4,6.7-0.6,10-1.7c0.9-0.3,1.8-0.4,2.7-0.2
		c1.7,0.4,3.4,0.2,5.2-0.1c2.5-0.4,5.1-0.6,7.6-0.8c0.9-0.1,1.8,0,2.8,0.2c3.8,1,7.6,0.7,11.4-0.1c1.7-0.3,3-1.3,4.1-2.3
		c2.5,0.1,2.5,0.1,6-2.2c0.6,0.3,0.3,0.8,0,1.1c-1.6,2-2.1,2.3-5.3,3c-2.5,3.3-6.1,3.4-9.8,3.1c-2.1-0.1-4.1-0.6-6.2-1.1
		c-0.9-0.2-1.8-0.4-2.8-0.3c-2.7,0.2-5.3,0.5-8,0.8s-5.3,0.9-7.9,1.3c-3.9,0.6-7.8,1.5-11.8,1.5c-3.8,0-7.7,0.1-11.4-1.5
		c-0.6-0.3-1.4-0.3-2.1-0.4c-2-0.3-3.9-0.9-5.5-2.1c-0.9,0-1.8,0-2.7,0c-0.3-0.3-0.7-0.5-0.8-0.7c-0.7-1.7-1.4-3.4-2.2-5.3
		c-2.5-0.3-3.6-2.6-5.5-4.3c-3.2-0.6-5.2-3-7.3-5.4c-2.8-3.2-5-6.7-7.1-10.4c-1.1-2-2.4-4-3.9-5.8c-4.1-5.1-7-10.7-8.9-16.9
		c-1.3-4.1-3.1-8.1-4.6-12.1c-3.8-10.3-8.2-20.4-11.5-30.8c-0.8-2.5-1.6-5.1-2.2-7.7c-0.5-2-0.3-3.9,1.2-5.6
		c0.1-0.1,0.1-0.2,0.2-0.3c3-3.3,4.6-7.2,5.9-11.4c2.8-9,5.6-18,9.3-26.8c2.9-7,5.9-14,8.9-20.9c0.7-1.7,1.6-3.4,2.5-5
		c4.3-8.4,8-17.1,11.6-25.8c0.6-1.5,1.3-2.9,2.6-4.1c1-0.9,1.8-2.1,2.3-3.5c1-2.5,2.4-4.8,4-6.9c1.9-2.5,2.9-5.2,3.3-8.3
		c0.8-6.1,1.4-12.3,1.1-18.5c-0.1-2.3-0.6-4.3-1.7-6.3c-1.1-1.9-2.4-3.7-3.7-5.5c-0.9-1.3-1.9-2.7-2.8-4c-2.1-3.3-3.6-6.8-4.1-10.7
		c-0.1-0.8-0.3-1.5-0.4-2.4c-0.3,0.3-0.6,0.4-0.6,0.6c-1.8,4.8-3.1,9.7-3.5,14.9c-0.6,6.8,0,13.5,0,20.3c0,3.5,0.1,7,0,10.5
		c-0.2,5.9-1.6,11.5-4.3,16.8c-0.8,1.6-1.5,3.2-2.2,4.7c-0.3,0.6-0.7,1.2-1,1.7c-0.6-0.3-0.6-0.6-0.4-1c4.1-7.5,4.8-15.8,5.1-24.1
		c0.1-2.9,0-5.8,0.1-8.8c0-1.2,0-2.3,0.2-3.5c0.1-0.9,0.2-1.9-0.2-2.8c-0.6-1.8-0.6-3.7-0.7-5.5c-0.1-2.1-0.1-4.2-0.2-6.3
		c-0.1-2.2,0.1-4.4,0.5-6.6c0.1-0.7,0.2-1.5,0.6-2c1.4-1.6,1.7-3.6,2.3-5.4c1-2.9,2-5.7,3.4-8.4c1.1-2.1,1.7-4.3,1.8-6.7
		c0.1-2,0.4-3.9,0.7-5.9c0.2-1.3,0.4-2.5,1.2-3.6c1.2-0.1,2.1,0.3,2.8,1.1c4,4.1,9,7.1,13.7,10.3c0.8,0.5,1.6,0.9,2.4,2
		c-1.8-0.3-3-1.2-4.3-1.9c-1.2-0.7-2.4-1.4-3.6-2.2c-1.3-0.8-2.5-1.6-3.8-2.4c-0.6,0.6,0,0.9,0.2,1.2c2.3,2.8,5.1,5.1,8.2,7.1
		c0.9,0.6,2.1,1,2.7,2.1l0.1-0.1c-2.1-0.1-4-0.9-5.9-1.8c-0.8-0.4-1.5-1.1-2.5-1c-0.1-0.2,0.1-0.7-0.4-0.3c0.2,0.1,0.3,0.1,0.5,0.2
		c-0.1,0.7,0.3,1.1,0.6,1.5c1.8,2.1,3.8,4.1,6.1,5.7c0.7,0.4,1.5,0.7,1.8,1.6c-0.2,0.1-0.5,0.3-0.6,0.2c-2.7-1.6-5.4-3.2-7.8-5.2
		c-3.9-3.4-6.6-7.4-7.3-12.7c-0.1-1-0.4-2-0.7-3c-0.1-0.5-0.5-0.7-1.1-0.7c-0.7,1.9-0.8,3.8-1,5.8c0,0.3-0.1,0.8,0.1,1
		c1,1.6,0.8,3.4,0.8,5.1c-0.1,3.4,0.3,6.7,1.2,10l0.1-0.1c-0.4,0.3-0.4,0.6,0,0.8l-0.1-0.1c0.5,4.6,1.6,8.9,4.6,12.6
		c1.5,1.8,2.8,3.8,4.1,5.7c0.7,1.1,1.1,2.3,1.3,3.6c0.8,5.5,1,10.9,0.2,16.4c-0.1,1-0.2,2.1-0.5,3.1c-0.3,1.3-0.2,2.5,0.4,3.8
		c1.9-0.1,3.7-1,5.7-0.7c1.8,0.4,3.7,0.6,5.5,0.7c4.1,0.3,8.1,1.1,11.9,2.5c2.6,1,5.2,2,7.6,3.6c2,1.3,4.1,2.2,6.3,3
		c0.7-0.9,0.4-1.8,0.3-2.7c-0.3-3.3-0.7-6.5-0.5-9.8c0.1-1,0.1-2.1,1-3c0.9-0.5,2-0.6,3-0.3c1.9,0.6,3.9,0.5,5.8,1.1
		c3.1,0.9,6.2,0.8,9.4,1c1.1,0.1,2.1-0.1,3.1-0.9c0.3-0.9,0.6-1.9,0.9-2.9c-0.1-0.5-0.1-1.1-0.2-1.6c-0.4-1.7,0-3.2,1.2-4.5
		c1.1-1.3,1.8-2.7,1-4.4c-0.6-0.6-1.2-0.8-1.9-0.6c-0.7,0.2-1.3,0.6-1.9,0.7c-0.8,0.1-1.6,0-2.1-0.8c0-1.1,0.7-1.4,1.6-1.5
		c1.3-0.1,2.6-0.1,3.8-0.2c1-0.1,1.8-0.4,2.4-1.4c0.5-1.5-0.3-2.9-0.4-4.3c-0.8-1-2.8-0.5-2.6-2.4c3.1-0.4,6.2-0.5,9.2-1.4
		c0.4-0.1,0.7-0.5,1.1-0.8c-0.2-1.4-1.5-1.8-2-2.9c-0.4-1-1-1.8-1.5-2.8c-1-2-2-4-2.8-6c-1.4-3.6-1.7-7,0.6-10.3
		c0.1-0.2,0.2-0.4,0.3-0.8c-0.4-1.5-0.9-3.2-1.2-4.9c-0.3-1.7-0.2-3.5-0.5-5.2c-0.5-3.7-1.5-7.3-2.7-10.8c-0.4-0.7-1.1-0.5-1.8-0.9
		c-0.3-0.4-0.7-0.9-1.2-1.4c-0.7-0.3-1.1,0.8-1.9,0.4c-4.3-6.5-10.8-9.7-17.8-12.1c-1.2-0.4-2.4-0.7-3.6-1.1
		c0.4-1.1,1.2-0.8,1.9-0.7c3.4,0.4,6.6,1.4,9.7,2.9c0.9,0.4,1.7,1.3,2.9,1c0,0.3,0,0.7,0.4,0.3c-0.2-0.1-0.3-0.1-0.5-0.2
		c0-0.6-0.5-0.9-0.9-1.3c-0.5-0.5-1.1-0.7-1.3-1.4l0.2-0.2c1.9,0.2,3,1.6,4.4,2.6c0.8,0.6,1.3,1.6,2.6,1.6c0,0.5,0.2,0.7,0.7,0.7
		c0.1,0.1,0.1,0.3,0.1,0.2c0.1,0.1,0,0-0.2-0.1c0-0.4-0.2-0.7-0.7-0.7c0.1-0.7-0.3-1.1-0.7-1.5c-1.9-2.1-4.3-3.5-7-4.2l0.1,0.1
		c-0.7-0.7-1.6-0.9-2.5-1.1c-2.7-0.6-5.5-1.1-8.2-1.4s-5.3,0.2-8,0.7c-5,0.9-10,1.8-15.1,2.6c-2.5,0.4-4.9,1.4-7.2,2.6
		C415.4,387.1,412,388.8,409.3,391.6v0.2V391.6z M529.8,500.3c0,0.1-0.1,0.1-0.1,0.2C529.7,500.4,529.7,500.3,529.8,500.3
		c0-0.1,0.1-0.2,0.1-0.3C529.9,500.2,529.8,500.2,529.8,500.3z M440.8,481.4l-0.1-0.2L440.8,481.4c0.6,0.6,1.2,1.2,2.1,1.4
		c0.3,0.6,0.9,0.7,1.5,0.6c0,0.6,0.4,0.8,0.8,1c3.7,2.4,7.5,4.7,11.2,7.1c0.4,0.3,0.8,0.5,1.3,0.4c0,0.5,0.3,0.7,0.7,0.7
		c0.5,0.8,1.2,1.3,2.2,1.2c0,0.5,0.2,0.8,0.7,0.8c-0.3,1,0.4,1.6,0.9,2.2c1.9,2.4,3.8,4.7,5.8,7c2.5,2.9,4.6,5.9,5.1,9.8
		c0.1,0.6,0.3,1.1,0.4,1.1c-0.5,4.9-2.8,8.6-4.9,12.4c-2.1,3.8-4.9,7.1-8.1,10c-1.1,3.9-3.6,6.5-6.8,8.7c-5.4,3.7-11.3,6.5-17,9.7
		c-1.1,0.6-2.4,0.9-3.7,0.9c-1.9,0-3.7,0.1-5.5,0.2c-1.5,1.8-12.6,19.5-13.6,21.5c1.3,5.7,3.8,10.8,7,15.4c4.5,0,8.8-0.1,13-1
		c0.9-0.2,1.9-0.2,2.8-0.3c5.3-0.2,10.4-1.5,15.5-2.7c3.2-0.7,6.3-1.7,9.1-3.4c0.5-0.3,1-0.5,1.6-0.7c7.5-2.2,14.6-5.5,21.8-8.5
		c3.2-1.4,6.4-2.8,9.6-4.3c1.8-0.8,3.4-2,4.6-3.8c-1.1-2.8-2.6-5.5-2.2-8.6c0.5-0.9,1.2-1.8,1.6-2.7c0.9-2.3,2.2-4.4,3.5-6.4
		c0.7-1.1,1.4-2.1,2.1-3.2c2.5-4,3.1-8.2,2-12.7c-1-4.2-3.3-7.7-5.5-11.2c-2.6-4-5.8-7.3-9.9-9.7c-1.5-0.9-3-1.9-4.3-3
		c-3-2.6-6.4-4.7-9.8-6.7c-0.9-0.5-1.8-1.1-2.7-1.7c-4.1-2.6-8.3-5.2-12.4-7.8c-0.2-0.3-0.5-0.5-0.7-0.8c-0.7-0.5-1.2-1.3-2.2-1.2
		c0-0.5-0.2-0.7-0.7-0.8c0-0.5-0.3-0.9-0.6-1.2c-2.1-1.5-4.1-3.1-6.3-4.4c-2-1.2-4-2.4-6.3-2.9c-0.3-0.6-0.9-0.7-1.5-0.6
		C442.5,481.9,441.6,481.7,440.8,481.4z M398.8,673.9c0,0.1,0,0.2,0.1,0.3l0.2,0.1C399.2,674.1,399.1,674,398.8,673.9
		c-0.1-0.4-0.1-0.9-0.3-1.3c-0.8-2.1-2.2-3.9-3.3-5.8c-3-5.1-5.7-10.4-8.5-15.7c-5.3-9.8-9-20.2-11.4-31.1c-0.4-1.8-0.9-3.6-1.4-5.4
		c-1.8-6.2-2.9-12.5-3.6-18.9c-0.1-0.8,0-1.7,0.2-2.4c0.7-2.2,1.2-4.5,2.2-6.6c2.5-5.4,3.8-11,4.7-16.8c0.5-3.4,1.3-6.6,2.4-9.9
		c1.4-4.4,2.9-8.9,4.3-13.3c2.5-8,6-15.7,7.8-23.9c0.1-0.7,0.4-1.3,0.7-2c1.4-3.6,2.7-7.2,4.1-10.8c0.8-2.2,1.7-4.3,2.5-6.5
		c0.8-2.3,0.9-3.2,0.4-5.6c-0.2,0.3-0.5,0.6-0.6,0.9c-1.9,7.1-4.7,13.9-8,20.5c-2.1,4.3-4.3,8.6-6.3,12.9c-2.5,5.4-5.1,10.7-8,16
		c-2.3,4.2-4.1,8.6-5.2,13.3c-1.6,6.5-3.8,12.7-6.2,18.9c-0.7,1.6-1.5,3.1-2.6,4.6c-1,1.4-2.1,2.8-2.6,4.4
		c1.6,5.7,3.4,11.2,5.6,16.6c1.4,3.6,2.8,7.2,4,10.8c0.9,2.9,2,5.7,3.1,8.6c2.8,7.2,5.5,14.4,8.2,21.6c1.3,3.4,2.9,6.6,5.5,9.2
		c0.5,0.5,0.8,1.1,1.2,1.7c3.3,4.9,5.9,10.3,9.7,14.9C397.9,673.4,398.2,673.9,398.8,673.9z M423,596.6c1.1,1.4,1.7,2.4,2.5,3.2
		c2,2.1,4.1,4.1,6.2,6.2c0.9,0.9,1.8,1.8,2.2,3.1c1.7,5.3,4.7,9.9,8,14.3c3.1,4.1,6.3,8.1,9.2,12.3c2,2.8,4.2,5.3,6.9,7.4
		c1.5,1.3,3.2,2.4,4.8,3.5c3.3,2.3,6.9,4.5,10,7c2.6,2.1,5.3,3.8,8.1,5.4c2.8,1.5,5.3,3.4,7.7,5.4c1.3,1.1,2.4,2.2,3.1,3.8
		c0.8,1.9,2.4,3,4.1,3.8c0.6-0.5,0.5-1,0.5-1.5c0.2-5.4,0.7-10.7,1.7-16c1.3-6.8,2.8-13.5,4.2-20.2c0.8-3.8,2-7.4,3.7-10.9
		c2.5-5.2,4.7-10.7,7.6-15.6c-0.3-0.8-1.2-1-1.1-2.1c1-2.2,2.3-4.6,4.1-6.5c0.8-0.9,1.4-1.9,1.6-3.1c0.3-1.6,0.5-3.2,0.3-5
		c-2.5,0.5-4.4-1-6.7-1.6c-0.5,0.8-0.9,1.5-1.4,2.2s-0.8,1.5-2.1,2.3c1-2.5,1.6-4.4,2.9-6.1c-1.4-2.3-2-4.9-4.9-5.8
		c-0.2-0.6-0.4-1.3-0.6-2c-0.3-0.6-0.4-1.4-1.1-1.9c-0.7-0.2-1.5-0.4-2.2-0.6c-0.6-1.9-1.2-3.8-1.8-5.7c-0.2-0.5-0.4-1.1-1.3-1.1
		c-2.4,2.8-5.7,4.5-9.1,6.1c-1.8,0.9-3.6,1.7-5.4,2.5c-5.5,2.4-10.8,5.1-16.4,6.9c-2.7,0.8-5.3,1.8-7.7,3.2
		c-1.2,0.7-2.6,1.1-3.9,1.6c-3.3,1.2-6.7,2.1-10.1,2.6c-7,1.2-14,2.2-21.2,2.4C424.8,596.5,424.3,596.5,423,596.6z M724,563.1
		c2.6-2,5.2-4,7.8-6c2.5-1.9,5-3.8,6.4-6.8c0.1-0.3,0.4-0.6,0.6-0.8c1.2-1.3,2-2.9,2.2-4.7c0.4-2.9,2-5.2,4.1-7.2
		c0.8-0.7,1.6-1.4,2.3-2.2c2.2-2.8,5.1-4.4,8.6-5c2.2-0.3,4-1.3,5.6-2.7c2.6-2.3,5.2-4.7,7.4-7.4c1.1-1.5,2.1-3.1,3.5-4.4
		c1.2-1.1,1.8-2.4,2.2-3.9c0.8-3.5,1.6-7,2.3-10.6c0.4-1.9,0.9-3.9,0.7-5.9c-0.5-4.2-2-8.1-4.2-11.7c-2.4-0.8-4.8-1.5-7.2-1.9
		c-1.7-0.2-3,0.3-3.8,1.8c-1.9,3.9-4.9,6.8-8.2,9.4c-0.9,0.7-2,1.2-2.6,2.1c0.5,0.9,1.7,0.2,2,1.1c-1.1,1.4-1.3,1.4-2.1,1.5
		s-1.6-0.2-2.4-0.4c-0.2,0-0.4,0.1-0.6,0.2c0.2,0.4,0.3,0.9,0,1.4c-0.9,1.2-2.2,0.8-3.5,0.7c0,0.7,0.1,1.3,0.1,1.8
		c-0.9,1.2-2,1.2-3.1,0.7c-0.8-0.4-1.5-1.1-2.3-1.5s-1.5-0.6-2.1,0.3c0.6,1,1.2,2,1.7,3c0.6,1.3,0.2,2-1.6,2.8
		c-2.9-0.6-4.1-3.7-6.8-4.8c-0.5,0.1-1,0.2-1.6,0.4c-0.1,0-0.1,0.2-0.1,0.3c3.2,4.6,3.6,6.2,1.7,7.9c-1.2-1.1-2.4-2.1-3.5-3.3
		c-1.2-1.2-2.3-2.6-3.4-3.8c-0.6,0.1-1,0-1.2,0.2c-3.3,1.8-7.1,2.4-10.4,4c-0.9,0.4-2,0.6-3,0.7c-1.1,0.1-2.2,0-3.3,0
		c0,0.8,0.4,1.1,0.7,1.4c2.3,2.1,4.7,4.2,7,6.3c0.9,0.8,1.7,1.6,2.4,2.5c1.6,2.3,2.4,4.8,1.8,7.6c-0.5,2.7-1.3,5-3.9,6.7
		c-2.3,1.5-5,2.5-6.4,4.7c-1.9,0.7-3.5,0-5.2,0.5c0.7,1.3,1.4,2.4,1.8,3.6c0.5,1.5,1.5,2.6,2.6,3.6c1.5,1.4,3,2.9,4.4,4.5
		c1.2,1.4,2.3,2.9,2.6,4.9c0.2,1.4,1.1,2.3,2.3,2.9c1.2,0.6,2.6,1.1,3.8,1.6c1.4,0.6,2.7,1.3,3.3,2.9
		C723.4,562.6,723.8,562.8,724,563.1z M528.8,502.7c-1.4,2.3-1.9,4.4-2.5,6.4c-1.3,3.7-2.5,7.5-4,11.2c-0.9,2.3-1.8,4.6-2.4,6.9
		c-1.9,8.3-3.9,16.6-5.6,24.9c-1,5-1.3,10.2-2.2,15.2c-0.7,4.4-0.6,8.8-0.7,13.2c-0.1,2.5,0.6,4.8,1.9,7c0.1,0.2,0.4,0.2,0.6,0.3
		c0.8,0.1,1.1-1.3,2.1-1c0.9,0.1,1.1,1.6,2.4,1.2c0-1.2,0-2.3,0-3.5c0-3.6,0.3-7.2,0.6-10.8c0.5-6.3,1.9-12.4,2.6-18.7
		c1-8.5,2.1-16.9,2.5-25.4c0.2-4.3,0.9-8.6,1.8-12.8C526.9,512.3,528.2,507.8,528.8,502.7z M728.6,499.4c2.1,0.3,4-0.5,5.9-0.7
		c4.1-0.4,8.1-1.3,11.8-3c4.7-2.2,8.8-5.3,12.3-9.1c0.5-0.5,1-1,1.1-2.1c-0.7-2.7-2-5.4-3.9-7.8c-1.5-2-3.6-3.3-6.1-3.3
		c-2,0.9-3.1,2.3-4,4c-1.1,2.2-2.3,4.3-3.5,6.5c-1.1,2.1-2.5,3.9-4.3,5.5c-0.5,0.4-1.2,0.7-1.2,1.6c0.6,0.8,1.8,1.1,2,2.3
		c-0.2,0.7-0.8,0.8-1.4,0.9c-1.7,0.3-2.6-1.3-3.7-1.9c-0.7,0.4-1.4,0.4-1.4,1.2c0.2,1,1.5,1.5,1.4,2.8c-2.6,1.8-3.9-0.6-5.5-1.6
		c-0.9,0.3-1.5,0.5-1.8,1.4C727.2,497,727.9,498.2,728.6,499.4z M715.9,500.5c-1.1,0.4-2.5,0.8-3.7,1.4c-2.1,1.1-4.3,1.8-6.6,2.1
		c-2.2,0.3-4.2,1.1-6.2,2.2c1,1.5,2,2.9,2.8,4.3c0.7,0.1,1.1,0.2,1.4-0.3c-0.1-1.1-1.1-2.1-0.5-3.6c1.5-0.1,3.1-0.2,4.7-0.2
		c4,0.1,7.1-1.8,10.4-4C717.5,501.7,717,500.9,715.9,500.5z M423.5,670.7c5.4-1.5,10.7-1.5,15.9-3.4c-1.4-1.3-2.8-2-4.6-1.8
		c-2.8,0.3-5.6,0.5-8.3,1c-2,0.3-4.1,0.6-6,1.4c0.1,1.2,0.6,1.9,1.4,2.5C422.5,670.5,423,670.6,423.5,670.7z M420.3,475.5
		c-3.8-0.7-6-0.5-8.3,0.8c-0.6,0.3-0.7,0.9,0.2,1.4C414.6,476.4,417.4,476.2,420.3,475.5z M722.4,497.5c-1,0.7-2.2,0.6-2.6,1.7
		c0.5,0.7,0.9,1.4,1.8,1.6c2.6-0.7,2.6-0.7,2.6-1.4C723.7,499,723.2,498.4,722.4,497.5z M376.7,439.5c-0.1,1.4-0.3,2.7-0.3,4.1
		c0,1,0.1,2.1,0.2,3.1c0,0.4,0.2,0.4,0.5,0C377.1,444.4,377.2,441.9,376.7,439.5z M697.7,508.9c-1-1.5-1-1.5-3-0.5
		C695.8,508.6,696.6,509.1,697.7,508.9z M377.4,436.7C377.4,436.4,377.5,436.1,377.4,436.7C377.4,436.1,377.4,436.4,377.4,436.7z"/>
	<path d="M371.8,104.8c-1.1-1-2.5-1.1-3.8-1.3c-5.9-0.7-11.8-0.2-17.5,1.8c-4.1,1.5-8.4,2.5-12.6,3.7c-1.9,0.6-3.6,1.5-5.4,2.5
		c-2.7,1.6-5.2,3.5-7.6,5.5c-1,0.9-2.2,1.7-2.7,3.1l-0.1,0.1l0.1-0.2c0.6,0.1,1.1-0.3,1.6-0.6c6.3-3.8,13.2-6.3,20.1-8.9
		c0.3-0.1,0.7,0,1.2,0c-1.1,1-2.3,1.3-3.4,1.8c-4.3,2-8.7,4-13,6c-2.4,1.1-4.7,2.5-6.9,4.1c-2.7,2-4.8,4.4-5.8,7.6
		c-0.7,0.7-1.6,0.7-2.3,0.5c-2.3-0.8-4.6-0.6-6.9,0.1c-0.3-0.9,0.3-1.2,0.7-1.4c1-0.5,2.1-0.8,3.2-1.2c0.3-0.7-0.7-0.9-0.4-1.5
		c1.2-0.8,2.4,0.5,3.6-0.1c0.4-0.2-0.4-0.1,0-0.3c-0.2-0.1-0.3-0.3-0.5-0.3c-2.3-0.2-4.6-0.4-6.9-0.6c-0.8,0-1.6,0.1-2.4,0.3
		c-4.3,0.8-6.2,2.6-7.1,7c-0.4,1.7-0.6,3.4-0.6,5.2c-0.2,5-0.4,10-0.7,15c-0.1,1.3-0.3,2.5-0.4,3.8c-0.1,1.4-0.4,2.8,0,4.2
		c0.8,3.3,0.7,6.7,0.6,10.1c-0.1,2-0.1,4,0,5.9c0,0.6,0.1,1.2,0.7,1.5c0,0.3,0.1,0.6,0.1,0.9c0.3-0.5,0-0.7-0.2-0.9
		c0-1.2,0.1-2.3,0-3.5c-0.5-5.7-0.2-11.4,0.5-17.1c0.3-2.7,0.3-5.4,0.4-8c0-0.8-0.1-1.6,0.5-2.3c0.8,0.3,0.6,1,0.5,1.4
		c-0.7,6.4-0.1,12.8-0.3,19.2c-0.1,2.3,0.1,4.6,0.6,7c0.4-0.3,0.6-0.5,1.1-0.9c0.3,1.8,0.2,3.5,0.3,5.2c0.1,1.7,0.3,3.5,0.5,5.2
		c0.1,1.9,0.2,3.7,0.8,5.5c0.5,1.7,1.1,3.3,1.6,5s0.5,3.5,1.7,5.1c0.1-3.1-0.2-6-1-8.6c-0.8-2.7-1.3-5.4-1.5-8.2
		c-0.4-5.6,0.1-11.2,0.7-16.7c0.6-5.3,1.2-10.7,2-16c0.7-5.1,2.2-10,3.8-14.4c0.8-0.8,1.4-0.6,2-0.4l-0.1-0.1
		c0.1,1.4-0.6,2.6-1.1,3.9c-0.8,1.9-1.5,3.8-0.9,5.9c0,0.1-0.1,0.1-0.1,0.2c0-0.1,0-0.2,0.1-0.3c0.3,0,0.7,0,1.1,0
		c-0.1,0.4-0.2,0.9-0.4,1.3c-1.7,4.5-2,9.1-1.8,13.8c0.1,3.3,0.1,6.5,0.2,9.8c0,3.6-0.2,7.3,1.6,10.6c0.2,0.3,0.1,0.7,0.2,1
		c0.8,4.5,1.5,9,2.3,13.5c0.9,5.8,0.7,11.6-0.7,17.4c-0.4,1.8-0.8,3.7-1.2,5.7c-0.7,0.7-1.4,1.5-2.2,2.4c-0.6-0.8-0.4-1.5-0.2-2.1
		c1.9-8.6,1.8-17.3,0.8-26.1c-0.3-3-1.1-5.9-1.7-8.9c-0.5-3-1.1-5.9-1.6-8.9c-0.9,0-0.8,0.5-0.8,1c0,4.9,0.7,9.8,2,14.5
		c1.5,5.6,2.1,11.2,1.9,17c-0.1,2.5-0.1,5.1-0.9,7.6c-0.1,0.3-0.3,0.6-0.7,0.7c-0.7-0.6-0.5-1.5-0.4-2.2c0.4-4.1-1-7.7-3.1-11.2
		c-2.6-4.4-5.1-8.9-7-13.7c-1.8-4.6-2.5-9.4-2.6-14.4c-0.1-5.2,0.1-10.5-0.5-15.7c-0.6-5-0.6-10-0.9-15c-0.2-3.2,0.1-6.3,0.6-9.4
		c0.3-1.6,0.6-3.2,1.2-4.7c1.4-3.9,4.2-6.5,8.3-7.2c4.7-0.8,9.2,0.2,14,2.2c0,0,0.5-0.1,0.9-0.2c0.3-0.1,0.6-0.3,1-0.5
		c0.9-3.5,3.1-6.1,6.1-8.1c0.7-0.4,1.2-1.1,1.8-1.7c3.6-4,8-6.6,13.2-8.2c4.6-1.4,9.1-2.7,13.9-3.5c2.6-0.4,5.3-0.6,7.7-1.8
		c3.1,0.2,5.8,1.4,8.6,2c1.1,0.2,2.2,0.6,3.4,0.9c2.9,0.6,5.5,1.8,7.8,3.7c1.3,1.1,2.8,2.1,4.3,3c1.8,1.2,3.2,2.8,4,4.8
		c0.7,2,1.8,3.8,2.8,5.6c1.8,3.4,3,7.1,3.9,10.9c0.3,1.2,0.6,2.5,1,3.7c0.6,1.7,0.8,3.4,0.2,5.1c-0.3,0.9-0.4,1.8-0.7,2.7
		c-0.4,1.5-0.1,2.9,0.5,4.4c1.9,5.1,5.5,9.2,8.1,14.2c0,0.2-0.1,0.8-0.5,1.5c-1.5,1.3-3.5,1.9-5.4,2.5c-2,2,0.3,3.8,0,6
		c-0.1,1-1.5,1.4-2,2.6c2.2,2.5,1.3,4.8-0.5,7c0.5,2.7,1.2,5.1,0.5,7.7c-2,2-4.4,3.1-7.1,3.3c-2.8,0.2-5.6,0.3-8.4,0.5
		c-1.1,0.1-2.1-0.3-3.1-0.6s-1.9-0.8-3.2-0.3c-0.2,2.9,0.2,5.9,0.6,8.5c0.9,0.9,1.6,0.8,2.3,0.8c5.5-0.1,11-0.2,16.4-0.3
		c3.1-0.1,6.3-0.1,9.4-0.2c1.6-0.1,3.3-0.3,4.9-0.4c2.7-0.2,5.3-0.3,8,0.2c2.6,0.5,5.3,0.5,8,0.7c4,0.4,7.8,1.5,11.3,3.4
		c2.6,1.4,4.8,3.3,6.3,5.9c1.9,3.2,3.5,6.6,4.3,10.3c0.6,2.7,0.6,5.3,0,8c-0.3,1.5-0.5,3-0.8,4.5c4.4,2.1,9.4,2.6,12.8,6.1
		c4.9,1.4,9.7,2.8,14.3,5c2.1,1,4.5,1.3,6.8,1.6c1.9,0.3,3.6,0.9,5.4,1.5s3.3,1.6,4.4,3.1c0.7,0.1,1.1,0.2,1.6,0.2
		c3.8-0.1,7.3,1.3,10.8,2.6c3,1.1,5.9,2.3,8.8,3.4c2,0.7,4.1,0.8,6.2,1.1c1.4,0.2,2.8,0.3,4.1,0.7c5.8,1.4,11.6,1.1,17.3-0.4
		c3.6-1,7.2-2,10.5-3.9c1.2-0.7,2.6-1.1,3.9-1.5c5.5-1.6,10.8-3.6,16.2-5.6c4.8-1.7,9.7-3.4,14.8-4.1c0.9-0.1,1.9-0.3,2.8-0.3
		c5.8-0.2,11.6-0.9,17.5-0.8c8.6,0.1,17.3,0.2,25.9,0.2c4.4,0,8.9-0.2,13.3-0.4c4.8-0.3,9.5,0.3,14.3,0.5c1.5,0.1,3,0.2,4.5,0.3
		c1.3,0.1,2.6,0,3.8,0.3c1.2,0.2,2.4,0.8,3.8,1.2c2.2-0.3,4.5-0.4,6.8-0.9c2.5-0.5,4.9-0.4,7.3-0.1c1.3,0.1,2.5,0.5,3.7,1
		c1.7,0.7,3.5,1.4,5.2,2c2.1,0.7,3.9,1.5,4.4,3.8c2.2,1.4,4.5,2,6.7,2.5c6.5,1.5,13,2.9,19.6,3.8c3.9,0.6,7.8,1.6,11.7,2.3
		c8.9,1.5,17.7,3.3,26.4,5.2c3.6,0.8,7.4,1.2,11.1,1.8c0.6,0.1,1.2,0.2,1.7,0.1c3.9-0.4,7.7,0.4,11.5,1c2.7,0.4,5.3,0.6,8,0.8
		c4.3,0.3,8.6,0.9,12.9,0.7c1.5-0.1,3-0.2,4.1-0.2c1.6-0.6,1.3-2.1,2.3-2.6c1.1-0.6,2.4-0.7,3.4-1.6c0.8-0.6,2-0.7,3-0.9
		c2.8-0.5,5.4-1.2,8-2.5c2.4-1.2,5-2,7.5-3c3.8-1.6,7.6-3,10.9-5.5c0.5-0.3,1-0.6,1.5-0.8c3.8-1.5,6.6-4.3,8.8-7.7
		c1.7-2.8,3.4-5.6,5.5-8.1c1-1.2,1.9-2.4,3.2-3.3c2.7-0.5,5,0.2,7,2.1c1.8,1.7,3.4,3.5,4.5,5.7c0.4,0.8,0.7,1.7,1.5,2.3
		c0.2,0,0.5,0.1,0.7,0c1.6-1.3,3.4-1.5,5.3-1.3c0.9,0.1,1.9,0.2,2.8,0.3c3.1,0.5,5.4,1.9,6.7,4.9c1,2.1,2,4.2,2.6,6.5
		c0.4,1.6,0.4,3.2,0.4,4.8c-0.2,5.5-1.7,10.8-2.7,16.2c-0.4,2.1-1.2,4-2.6,5.6c-2.4,2.7-4.9,5.4-7.4,8c-1.4,1.4-2.9,2.7-4.3,4.1
		c-1.7,1.5-3.6,2.6-5.8,3c-3,0.5-5.5,1.8-7.5,4.2c-0.7,0.9-1.7,1.7-2.6,2.3c-2.1,1.2-3.1,3.1-3.5,5.4c-0.2,1.5-0.8,2.9-1.3,4.3
		c-0.9,2.6-2.5,4.7-4.5,6.6c-0.8,0.7-1.5,1.4-2.4,2.1c-3.8,3.1-7.8,6-11.3,9.3c-0.9,0.8-0.9,0.8-2.7,0.6c0-1.6-0.3-3.1-1.3-4.6
		c-0.9-0.9-2.2-1.1-3.3-1.7c-2.5-1.2-4.6-2.7-5.6-5.5c-0.3-0.7-0.8-1.4-1.3-2c-1.4-1.7-2.6-3.6-4.2-5.2c-3.2-3.3-4.9-7.3-6.6-11.4
		c0.2-0.8,0.4-1.4,0.5-2.1c-0.3-0.2-0.6-0.5-0.9-0.5c-4.3-0.5-8.6-1.1-12.9-0.7c-1.9,0.1-3.7,0.2-5.6,0.2c-6.7-0.1-13.3,0.3-19.9,1
		c-4.3,0.4-8.6,1.2-12.9,1.5c-5.1,0.4-9.8,1.7-14.4,3.9c-2.1,1-4.4,1.4-6.7,1.8c-8.8,1.3-17.4,1.1-25.9-1.7
		c-5.1-1.7-10-3.9-14.8-6.3c-2-1-4-1.9-5.9-3c-2.8-1.7-6-2.4-9.1-3.5c-2.4-0.8-4.9-0.5-7.2,0.4c-7.9,2.8-16,5.2-24.3,6.5
		c-2.1,0.3-4.1,0.9-6,1.7c-3.1,1.4-6.4,2.2-9.7,2.9c-6.4,1.2-12.6,3.3-18.7,5.8c-0.1,0-0.2,0.1-0.3,0.1c-3.6,2.3-7.7,3.2-11.8,4.3
		c-3.3,0.8-6.4,2.2-9.6,3.4c-0.5,0.2-1.1,0.4-1.5,0.8c-2.6,2.8-6,4.4-8.9,6.8c-0.5,0.4-1.1,0.9-1.6,1.3c-0.1,0.5,0.1,1-0.8,1.8
		c0.3-0.3,0.2-0.1,0,0c-3.6,1.5-6.8,3.6-10,5.8c-0.9,0.6-1.7,1.1-2.8,1.3c-0.9,0.2-1.8,0.5-2.7,0.9c-2.9,1.4-6,1.7-9.2,1.8
		c-2.3,0.1-4.6,0.1-7,0.5c-1.8,0.3-3.7,0.3-5.6,0.1c-5.8-0.7-11.7-0.4-17.5-0.4c-6.2,0-12.4,0.2-18.5-0.7c-4.6-0.6-8.7-2.3-12.4-5.2
		c-2.1-1.7-4.6-2.7-7.2-3.4c-1.1-0.3-2.3-0.5-3.3-1c-4.5-2.2-9.4-3.4-14.3-4.5c-5.4-1.1-10.8-1.9-16.2-2.8c-1.2-0.2-2.3,0.1-3.6,0.3
		c-0.9,1.3-1.6,2.8-3.8,2.9c-0.9-0.2-2-0.4-3.2-0.7c-0.6-0.1-1.2-0.3-1.7-0.2c-2.6,0.7-5.1,0.1-7.6-0.3c-3-0.4-6-0.3-9,0.4
		c-2,0.5-4.1,0.9-6.2,0.6c-2.2-0.2-4.4-0.6-6.4-1.7c-1.5-0.9-3.3-1.1-4.7-2.3c-5.6-0.3-10.9-1.9-16.1-3.6c-1.4-0.5-2.8-1.3-4.2-1.7
		c-2.1-0.6-4.3-1.2-6.5-1.5c-4.6-0.7-9.1-1.9-13.8-2.2c-0.8,0-1.6-0.4-2.3-0.7c-2.3-1.1-4.7-2.1-7-3.3c-2.8-1.4-5.8-2.3-8.9-2.7
		c-1,0.7-1.3,1.8-1.9,2.6c-0.5,0.7-1.4,1.3-1.5,2.3c0.1,0.8,0.7,0.9,1.2,1.1c2.2,0.7,4.5,1.3,6.7,2c2.4,0.7,4.6,1.8,6.6,3.2
		c3.7,2.6,7.8,4.2,12.1,5.3c3.8,1,7.7,2,11.5,3.1c1,0.3,2.1,0.3,3.1,0.5c6.1,0.6,12.3,0.9,18.4,2.1c2.1,0.4,4.1,0.7,6,2
		c1.2-0.1,2.3-0.1,3.5-0.2c1,0.4,1.9,0.8,2.8,1.2c5.9-1.2,11.8-2.1,17.6-3.4c3.3-0.8,6.7-0.9,10,0c2.3,0.6,4.6,0.5,7,0.5
		c2.7,0,5.3,0,7.8,0c0.9,0.6,0.8,1.3,0.8,2c0,0.8-0.8,1.4-0.4,2.4c2.4,0.9,5.4,0.2,7.6,2c2.5,0.3,4.6,1.8,7.1,2.2
		c-0.3,1.3-0.9,1.2-1.4,1c-2.8-0.7-5.6-1.6-8.4-2.4c-1-0.3-2-0.7-3-0.8c-1.8-0.2-3.4-0.7-5-1.5c-1.7-0.8-3.3-0.9-5.1-0.6
		c-2.9,0.5-5.8,0.5-8.6,0.2c-0.2-0.6-0.1-1-0.2-0.9c1-0.8,1.6-0.8,2.2-0.8c3-0.1,6.1-0.2,9.1-0.3c1.2,0,2.3,0.2,3.3,0.7
		c0.9-0.2,1.4-0.6,1.3-1.6c-2.3-0.2-4.5-0.4-6.9,0.1c-2.2,0.4-4.3,0.6-6.6-0.1c-1.2-0.4-2.5-0.4-3.8-0.3c-1.4,0.1-2.8,0.1-3.9-0.5
		c-2.4,0.4-4.4,1-6.3,1.8c-4,1.5-8.1,2.4-12.3,2.3c-3.6,0-7.2-0.6-10.7-1.5c-5.2-1.3-10.5-2.3-15.9-2.2c-3.3,0.1-6.5-0.4-9.7-1.3
		c-3.6-1-7.2-2.1-10.8-3c-5.5-1.4-10.5-3.8-15.3-6.8c-1.7-1.1-3.4-2-5.3-2.6c-2.6-0.8-5.1-1.6-7.7-2.5c-1.3-0.5-2.8,0.1-4.1-0.8
		c0.9-1.7,3.1-0.5,4-2.1c1.4-6.3,4-12.5,6.1-18.8c2.8-8.3,6-16.4,8-25c0.7-3,1.7-5.8,2.9-8.6c0.6-1.3,1-2.6,0.4-3.8
		c0.8-2.2,2-3.9,3.5-5.4c8.2-3.2,8.5-3.3,11.2-2.9c-2,2.2-6.9,4.7-10.5,5.2c-1,1.5-1.9,3.1-1.7,5.1c0,0.2,0,0.5-0.1,0.7
		c-1.5,4.7-1.8,9.6-3.5,14.2c-1.6,4.4-3.1,8.8-4.6,13.3c1.6,0.7,2.9,0.2,4.2-0.4c2-0.9,3.9-2.1,5.7-3.4c4.6-3.3,8.4-7.4,11.4-12.2
		c2.1-3.2,3.9-6.6,5.8-10c1.7-3.1,3-6.3,4-9.7c0.6-2,1.3-4,2-6c0.8-2.2,1.1-4.5,0.9-6.9c-0.3-3-0.5-6-1.3-9
		c-0.7-2.8-2.2-4.8-4.8-6.1c-2.6-1.3-5.3-2.3-8.1-3.2c-3.8-1.1-7.7-2-11.4-3.5c-0.6-0.3-1.3-0.4-2-0.5c-4.9-0.5-9.7-1.1-14.6-1.4
		c-3.3-0.3-6.5,0.1-9.7,1.1c-2.8,0.9-5.6,1.7-7.9,2.4c-1,0.9-0.9,1.6-1,2.3c-0.4,1.8-0.9,3.6-2.2,5.1c-1.1,1.3-1.4,2.9-1.8,4.5
		c-1.2,4.4-1.7,9-1.6,13.5c0.1,6-1.6,11.5-4.4,16.7c-0.9,1.6-1.5,3.4-2.1,5.2c-1.5,4.5-2.7,9.2-3.4,13.9c-1,6.7-2.5,13.3-4.1,19.9
		c-0.7,3-1,6-1.1,9c-0.1,4-0.1,7.9-0.1,11.9c0,0.9,0.1,1.9,0.2,2.8c0.2,0.9,0.2,1.8,0.1,2.8c-0.3,1.9-0.3,3.7,0.3,5.5
		c0.3,0.7,0,1.6,0,2.4c0,2.3-0.1,4.7,1.2,7c0.4,0.2,0.8,0.7,1.3,0.9c5.1,2.1,9.9,4.7,15.2,6.2c2.1,0.6,4.3,1.2,6.5,1.4
		c4.4,0.4,8.8,0.8,13.2,1.2c1.7,0.2,3.5,0.4,5.2,0.5c3.6,0.3,7.2,0.4,10.8,0.2c3.3-0.2,6.5-0.2,9.8,0.1c3.2,0.3,6.3,0.1,9.4-0.5
		c0.8-0.2,1.6-0.3,2.4-0.3c5,0,10-0.9,15-0.6c0.3,0,0.6-0.1,1-0.2c-0.1-0.4-0.1-0.7-0.2-1.2c1.9,0,3.9,0,5.9,0
		c0.7,0.2,0.3,1,1.1,1.7c1.1,0.2,2.6,0.8,3.8,2.1c0.7,0.7,1.9,0.8,2.9,1c3.6,0.7,7.1,1.4,10.7,2c0.7,0.1,1.4,0.2,2.1,0.2
		c4.5,0.1,8.8-0.6,13.1-1.7c1-0.3,2-0.5,3.1-0.3c1.7,0.3,3.5,0.2,5.2-0.1c2.5-0.4,5.1-0.6,7.7-0.8c0.8-0.1,1.6,0,2.4,0.2
		c3.6,1,7.2,0.7,10.8,0.1c2-0.3,3.8-1.1,5.1-2.6c1.3,0.1,2.4,0.4,3.5-0.4c0.9-0.7,1.6-1.6,3-1.8c-1.5,2.9-2.1,3.4-5.7,4.1
		c-2.4,3.4-6.1,3.4-9.7,3.2c-2.2-0.1-4.4-0.7-6.5-1.2c-0.9-0.2-1.8-0.3-2.8-0.2c-2.6,0.2-5.1,0.5-7.7,0.7c-2.7,0.3-5.4,0.4-7.9,1.4
		c-0.2,0.1-0.4,0.2-0.7,0.2c-5.7,0.6-11.3,1.8-17,1.1c-0.8-0.1-1.6-0.2-2.4-0.4c-2.3-0.7-4.7-1.4-7.1-1.8c-1.4-0.2-2.5-1.2-3.9-1.7
		c-1.9-0.1-3.8-0.2-5.8-0.5c-6.7-0.8-13.3-0.2-19.9,0.6c-3.6,0.5-7.2,0.6-10.8,0.4c-3.1-0.2-6.3-0.2-9.4-0.1
		c-5.6,0.2-11.2-0.3-16.8-0.9c-4.3-0.4-8.6-0.9-12.9-1.2c-2.6-0.2-5-1-7.5-1.6c-5.2-1.3-10.2-3.1-14.7-6.2c-0.7-0.5-1.5-0.7-2.2-1
		c-2.5-4-2.6-8.7-4.1-13c0.5-2.1,0.6-4.5,0.7-6.8c0.1-2.8,0.1-5.6,0.2-8.4c0.1-5.8,1-11.6,1.4-17.4c0-0.2,0-0.5,0.1-0.7
		c1.3-6.9,2.6-13.8,3.9-20.6c1.2-6.3,3.5-12.3,6-18.3c0.9-2.1,2.1-4.1,2.6-6.4c0.5-2.1,0.8-4.1,0.8-6.2c-0.1-4.6,0.3-9.1,1.4-13.5
		c0.3-1.1,0.5-2.3,1-3.4c1.2-2.9,2.3-5.9,2.6-9c0.1-0.7,0.4-1.3,0.7-2c1-2,1.4-4.2,1.3-6.5c0-3.4,0-6.8,0-10.2
		c0-3.9-0.7-7.7-1.4-11.5c-0.2-1.3-0.7-2.4-1.5-3.5c-1.1-1.6-2.3-3.2-3.7-4.7c-1.6-1.7-3.2-3.4-4.7-5.2c-2.4-2.9-4.2-6.2-5.2-9.8
		c-0.2-0.7-0.2-1.6-0.8-2.2c-0.8,0.4-0.8,1.1-0.9,1.8c-1.8,7.7-1.5,15.5-0.4,23.3c0.9,6.2,1.8,12.5,2.7,18.7
		c0.9,6.8,0.3,13.5-2.2,20c-0.6,1.6-1.1,3.3-1.6,5c-0.2,0.6-0.3,1.1-0.9,1.4c-0.4-0.4-0.3-0.8-0.1-1.2c2.9-7.5,2.7-15.3,2.2-23.1
		c-0.3-3.5-0.8-6.9-1.2-10.4c-0.2-2.7-0.5-5.2-1.4-7.8c-0.8-2.1-0.8-4.6-1.1-6.9c-0.2-1.5-0.6-3-0.7-4.5c-0.1-2,0-4,0-6
		c1-1.4,1.4-2.9,1.7-4.5c0.7-3.8,1.6-7.5,2.9-11.2c0.6-1.8,0.9-3.6,0.8-5.5c-0.1-2.3,0-4.7,0-7c0-1.1-0.1-2.4,0.9-3.4
		c1-0.1,2,0.1,2.8,0.8c4.4,3.6,9.5,5.8,14.5,8.5c0.9,0.5,2,0.6,2.7,1.9c-4.6-1.2-8.4-3.4-12.7-5.4c0.5,1.3,1.2,1.8,1.9,2.4
		c2.4,2,5.1,3.7,7.9,5.1c1,0.5,2.2,0.7,3,1.7l0.1-0.1c-3.1,0.3-5.9-1-9.2-2.2c0.9,1.8,2,2.5,3,3.4c1.1,0.9,2.2,1.7,3.4,2.5
		c1.1,0.8,2.5,1.1,3.4,2.2c-0.2,0.1-0.4,0.3-0.4,0.3c-3.9-1.6-7.7-3.4-10.9-6.2c-2.8-2.4-4.9-5.3-5.9-8.9c-0.3-1-0.6-2-0.9-3
		c-0.2-0.6-0.5-1.1-1.1-1.3c-0.6,0.1-0.8,0.5-0.8,0.9c0,1.7,0,3.5,0,5.5c1.3,1.5,1.5,3.6,1.7,5.7c0.2,1.8,0.5,3.7,0.9,5.5
		c0.3,1.5,0.9,2.9,2.1,3.9l0.1-0.1c-0.2,0.3-0.5,0.5-0.8,0.8c0.1,0.4,0,0.9,0.2,1.3c1,2.4,2,4.7,3.1,7c0.3,0.7,0.8,1.5,1.4,2
		c1.9,1.6,3.3,3.6,5,5.3c1.7,1.6,2.7,3.5,3.2,5.7c1.1,4.9,1.9,9.8,1.8,14.9c-0.1,2.1-0.1,4.2-0.2,6.3c0,0.7-0.2,1.4,0.3,2.1
		c0.3-0.1,0.7,0,0.9-0.2c3.1-1.9,6.5-2.1,10.1-2.2c5.8-0.1,11.7,0.5,17.5,0.5c1.5,0,3,0.3,4.5,0.4c1.5,0.2,3,0.4,4.6,0
		c0.2-3.5-1.7-6.9-0.5-10.2c0.9-0.9,1.9-0.9,2.8-0.9c2.3,0,4.7,0,7,0.4c3.3,0.5,6.5-0.2,9.8-0.4c0.7,0,1.3-0.5,1.9-1.2
		c0.2-0.9,0.4-2.1,0.6-3.1c-0.2-0.9-0.5-1.7-0.6-2.5c-0.2-1.2-0.1-2.3,0.6-3.3c0.7-0.9,1.1-2,1.3-3.1c-0.1-0.8-0.3-1.5-0.9-2
		c-0.8-0.4-1.6-0.3-2.3,0.2c-0.8,0.6-1.7,0.8-2.6,0.6c-0.5-0.1-0.8-0.4-0.9-0.9c0-0.5,0.4-0.8,0.7-1.1c2.2-0.8,4.9-0.3,6.7-2.3
		c0.4-1.7-0.7-3-0.7-4.2c-0.7-0.9-1.5-0.6-2.1-0.9c-0.5-0.3-1-0.6-1.1-1.3c0.7-0.7,1.7,0.1,2.5-0.4s1.8-0.6,2.7-0.9
		c0.9-0.2,1.8-0.4,2.7-0.7c0.9-0.3,1.7-0.7,2.2-1.8c-1.4-1.2-2.5-2.6-3.6-4.1c-1.6-2.2-3-4.5-4.2-6.8c-1.7-3.1-2.3-6.3-0.6-9.7
		c0.2-0.3,0.2-0.7,0.4-1.2c-1.5-2.5-2-5.5-2.6-8.5c-0.8-4.1-2.6-8-4.3-11.9c-1.2-0.2-2.5-0.4-3.1-1.7c-0.7,0.3-1.2,0.5-1.7,0.7
		c-0.2-0.1-0.5-0.1-0.6-0.3c-1.3-2-3.1-3.4-5.2-4.6c-6.3-3.7-13-5.6-20.3-5.6l0.1,0.1c3.6-1.3,7.2-1.2,10.9-0.4
		c2.5,0.5,4.9,1.4,7.7,2.5c-1.3-2.1-3.6-2.4-4.8-3.9C370.7,104.5,371.3,104.8,371.8,104.8c2.7,1.7,5.4,3.4,8.1,5.2
		c0.1,0.1,0.2,0.1,0.3,0.1c0.1,0,0.2-0.1,0.5-0.4c-0.8-0.7-1.6-1.4-2.4-2C376.4,106.2,374.4,104.7,371.8,104.8z M568,250.4
		c1.2,0.2,2.3,0,3.5-0.2c2.7-0.5,5.5-1.1,8.2-1.5c8.9-1.6,17.9-3,27-3.4c4.1-0.2,8.1-0.4,12.2-0.5c1.7,0,3.5,0,5.1-1
		c-4.9-0.2-9.7,0.1-14.4,0.2c-6.2,0.2-12.3,0.3-18.5,0.6c-7.4,0.4-14.5,2.2-21.4,4.8C569.1,249.6,568.3,249.6,568,250.4
		c-0.2,0.1-0.5,0.2-0.8,0.3C567.6,250.9,567.8,250.7,568,250.4z M860.8,260.2c-0.1,0-0.1,0-0.2-0.1
		C860.6,260.1,860.7,260.1,860.8,260.2c-0.3,0.6,0.3,1.6-0.8,2.5c-2.2,1.3-3.6-1.3-5.3-1.7c-0.8,0-1.2,0-1.6,0.5
		c0.7,1.7,3,3.2,1.3,5.4c-1.7,0.8-2.8-0.1-3.9-1c-1.3-1.2-2.4-2.5-3.8-3.4c-0.8-0.1-1.5-0.2-2,0.8c1.8,2,3.4,4.3,2.5,7.2
		c-0.6,0.2-1.1,0.2-1.4-0.2c-1.2-1.2-2.5-2.4-3.7-3.7c-1-1-1.7-2.2-3-3c-2.5,1.2-4.9,2.3-7.5,2.9c-0.7,0.2-1.4,0.4-2,0.7
		c-2.6,1.4-5.4,2.1-8.7,1.3c0.5,0.7,0.7,1.1,1.1,1.4c2.5,1.9,4.5,4.4,7,6.3c1,0.7,1.9,1.7,2.7,2.8c1.7,2.2,2.2,4.8,1.8,7.6
		c-0.4,2.7-1.4,5-3.9,6.7c-2.3,1.5-5,2.5-6.4,4.8c-1.9,0.8-3.5,0.1-5.3,0.1c0.7,1.4,1.5,2.5,2,3.8c0.6,1.6,1.6,2.8,2.9,3.9
		c1.8,1.5,3.4,3.2,4.8,5.1c0.9,1.1,1.7,2.2,1.9,3.7c0.2,1.8,1.4,2.9,3,3.6c1.2,0.5,2.4,1,3.6,1.4c1.2,0.5,2.3,1.1,2.8,2.4
		c0.2,0.4,0.4,0.8,1,1c2.1-1.6,4.3-3.4,6.5-5.1c3.4-2.4,6.3-5.1,8.4-8.7c0.8-1.4,1.7-2.7,2-4.4c0.4-2.8,1.8-5,3.8-6.9
		c0.8-0.7,1.6-1.4,2.2-2.2c2.3-3,5.5-4.7,9.2-5.3c1.9-0.3,3.5-1.2,4.9-2.4c0.4-0.3,0.7-0.6,1.1-0.9c4.4-3.5,7.6-8.2,11.2-12.4
		c0.5-0.6,0.8-1.4,1-2.2c1-4.3,1.9-8.7,2.8-13c0.3-1.6,0.4-3.2,0.1-4.9c-0.7-3.7-1.9-7.2-3.9-10.5c-2.8-1.2-5.7-1.9-8.6-2.2
		c-2,1.2-2,1.2-2.6,2.3c-1.4,2.5-3.2,4.9-5.4,6.8c-1.6,1.4-3.3,2.6-4.9,4c-0.1,0.1-0.1,0.4-0.2,0.6c0.5,0.5,1.8,0.1,1.7,1.3
		c-0.5,0.8-1.2,1.1-2.1,1.1c-0.9,0-1.9-0.1-2.8-0.1c0-0.1,0-0.2,0-0.3c0-0.1-0.2-0.1-0.2-0.1c-0.1,0.2,0,0.3,0.3,0.3
		c-0.3,1.7-0.6,2.1-1.8,2.2C861.9,260.4,861.3,260.3,860.8,260.2z M585,319.4c4.1-3.4,8.4-6,12.6-8.7c2.9-1.8,5.8-3.5,9.3-3.9
		c0.3,0,0.7-0.2,1-0.3c5-1.7,10-3.3,14.9-5.1c4.3-1.6,8.6-3,13-4.2c2.4-0.6,4.7-1.3,7.1-2c6.1-1.7,12.1-3.3,18.2-4.9
		c3.7-1,7.6-1.6,11.2-2.9c3.5-1.3,7.2-1.8,10.8-2.8c1-0.3,2.1-0.5,3.1-0.1c3.1,1,6.3,1.7,9.1,3.5c2.3,1.4,4.7,2.6,7.2,3.5
		c5.3,1.9,10.5,3.8,15.8,5.6c3.1,1.1,6.3,1.7,9.6,1.6c1.2-0.1,2.3,0,3.5,0.1c4.3,0.4,8.6,0,12.9-0.9c5.9-1.4,11.8-3,17.8-3.4
		c0.3,0,0.7-0.2,1-0.2c6.3-1.2,12.7-1.8,19.1-2.4c7-0.6,14-0.6,21-0.7c2,0,4-0.1,5.9,0.2c2.3,0.4,4.6,0.5,7,0.6
		c1.3,0.1,2.5,0.3,3.7,0.9c0.5,0.2,1,0.6,1,1.2c-0.3,1.3-2.1,0.4-2.3,1.8c1,0.2,2,0.6,3.2,0.2c0.6-1.2,2-1.6,3.2-2.3
		c2.1-1.1,4-2.4,4.9-4.8c1.7-4.6,1.1-7.7-2.1-10.9c-2-2-4.4-3.3-6.7-5.1c-1.2,1.2-2.6,1.1-4,0.9c-4.7-0.7-9.5-1.3-14.2-1.9
		c-6.2-0.9-12.4-2.1-18.7-2.8c-5-0.6-10-0.9-14.9-1.7c-2.8-0.5-5.5-0.8-8.3-1.3c-4.1-0.8-8.2-1.8-12.3-2.6
		c-10.4-2.1-20.8-4.1-31.2-6.2c-4.7-0.9-9.3-2.1-14-3c-3.5-0.6-6.7-1.9-9.8-3.7c-2.1-1.3-4.4-2.2-6.5-3.3c-3-1.5-6-1.8-9.2-1.5
		c-4.1,0.4-8.1,1.1-12.1,1.6c-0.4,0.1-0.9,0.2-1.3,0.8c0.7,0.2,1.3,0.3,1.9,0.5c0.7,0.3,1.6,0.2,2,1.1c-2.1,0.8-3.8,0.7-7.3-0.5
		c-1-0.3-2.3-0.5-2.7-1.7c0.5-1,1.7-0.1,2-1c-0.3-0.8-0.9-0.7-1.5-0.7c-10.3-0.2-20.5,0.1-30.8,0.9c-4.8,0.4-9.5,0.8-14.3,1
		c-5,0.2-10,0.7-15,1.2c-7.2,0.7-14.3,2.2-21.4,3.4c-5.2,0.9-10.3,2-15.5,3c-0.7,0.1-1.4,0.1-1.9,1.2c0.1,0.5,0.2,1.1,0.3,1.8
		c0.4,2.3,1.6,4.4,2.3,6.6c1.1,3.9,2.1,7.9,3.1,11.8c0.6,2.4,1.4,4.7,2.4,6.9c2,4.2,4.2,8.3,6.5,12.4c1.8,3.2,3.4,6.4,4.7,9.8
		c1.6,4.1,3.1,8.3,4.6,12.5C584.3,318.4,584.5,318.7,585,319.4z M335.5,206.3c2.6-0.7,4.5-1.2,6.3-1.9c3.5-1.3,7.1-1.3,10.7-1.3
		c5.6,0.1,11.2,0.8,16.7,1.8c1.8,0.3,3.8,0.6,5.3,1.6s3.2,1.4,4.8,1.8c4,1,7.8,2.3,11.5,4.2c2.8,1.4,4.6,3.5,5.4,6.5
		c1.4,4.9,2,9.8,0.6,14.8c-0.9,3.4-1.7,6.8-2.6,10.2c-1.4,5.9-4.2,11.1-7.5,16.1c-1.3,2-2.8,3.7-4.5,5.3c-1.1,1-2.1,2.2-3,3.4
		c-4.1,5.1-9,9.1-15.3,11.2c-0.4,0.2-0.8,0.3-0.8,1c0.4,0.2,0.7,0.5,1.1,0.7c5.1,2.6,9.9,5.6,14.6,9c9.1,6.5,18.8,11.7,29.3,15.3
		c1.1,0.4,2.1,0.9,3.5,0.8c2.5-4.6,6.1-8.3,9.7-11.9c0.7-0.7,1.3-1.3,1.9-2c1.8-2.1,3.9-4.1,5.5-6.4c2.7-3.8,5.5-7.5,8.3-11.2
		c2.3-3,4.4-6,5.7-9.6c1.9-5.4,4.3-10.6,6.8-15.7c1.3-2.7,2.6-5.5,3.8-8.2c0.3-0.6,0.7-1.3,0.2-2c-0.7-0.7-1.6-0.9-2.4-1.2
		c-1.8-0.8-3.7-1.5-5.5-2.3c-1.2-0.5-2.4-1-3-2.2c-0.4-1.4-0.4-2.8,0.1-4.2c0.4-1.1,0.5-2.3,0.4-3.4c-0.4-4.3-1.6-8.4-3.7-12.3
		c-0.4-0.7-0.9-1.3-1.4-2c-0.6-0.8-1.4-1.6-2-2.5c-1.6-2.3-3.8-3.7-6.5-4.3c-5.7-1.4-11.4-2.2-17.3-1.9c-0.8,0-1.7,0.2-2.4,0
		c-2.9-1-5.8-0.4-8.7-0.3c-1,0-2.1,0.2-3.1,0.1c-2.8-0.3-5.6-0.3-8.4-0.3c-5.7,0-11.4,0-17.1,0c-3.7,0-7.5-0.1-11.2-0.1
		c-2.3,0-4.7-0.1-7-0.3c-3.7-0.2-7.5-0.2-11.2,0C340.4,202.5,337.7,203.4,335.5,206.3z M500.8,324.8c1.5-2.2,2.1-4.3,2.8-6.4
		c0.9-3.1,1.9-6.2,3.4-9.2c0.5-1.1,0.8-2.2,1-3.3c0.4-3.4,0.3-6.7,0.5-10.1c0.2-6.4,0.4-12.8,0.6-19.2c0.1-2.4,0.1-4.9,0.2-7.3
		c0-0.6,0.1-1.2-0.6-1.7c-1.8,0-3.8,0-5.7,0c-0.1,0-0.3-0.3-0.4-0.5c1.8-1.4,4.2-1.2,6.3-2.1c-0.2-2.1-0.4-4.1-0.7-6.3
		c-1.3-0.5-2.5-0.9-3.6-1.5c-1.8-0.9-3.7-1.4-5.5-2c-4.5-1.6-9.4-1.9-13.4-4.6c-0.2-0.1-0.4-0.2-0.6-0.3c-2.1-0.7-4.2-1.5-6.3-2.1
		c-3.5-1-7-1.8-10.4-2.9c-3.2-1-6.3-2.4-9.5-3.6c-0.6-0.2-1.2-0.7-1.9-0.5c-0.6,0.3-0.6,1-0.8,1.5c-0.8,2.2-1.5,4.4-2.5,6.5
		c-2.1,4.7-4.3,9.3-6.4,14c-0.4,0.8-0.8,1.7-1.1,2.6c-1.4,5.1-4.3,9.3-7.6,13.2c-2.2,2.6-4.4,5.1-6.4,7.9c-2.4,3.3-5.3,6.2-8.1,9.1
		c-3,3.1-6,6.2-8.6,9.7c-0.4,0.6-1.1,1.2-0.8,2.2c1.8,0.5,3.5,1.3,5.4,0.3c3.2,1.4,6.5,1.8,9.9,2.3c5.4,0.9,10.8,1.9,16.3,2.2
		c7.8,0.5,15.6,1.3,23.3,2.4c5.3,0.7,10.6,1.4,15.6,3.6c2,0.9,4.1,1.7,6.2,2.3C494.4,321.8,497.6,322.9,500.8,324.8z M510.6,258.7
		c1.9,3.6,1.7,7,1.6,10.3c0,2.5-0.2,5.1-0.2,7.7c-0.2,8.3-0.4,16.5-0.6,24.8c0,1.3-0.2,2.6-0.3,3.8c-0.2,1.5-0.6,3-1.3,4.3
		c-1.4,2.6-2.4,5.3-3.2,8.1c-0.9,3-1.9,6-3.5,8.8c-0.1,0.2,0,0.4,0,0.8c0.3,0.2,0.7,0.5,1.1,0.7c3.8,1.8,7.9,2.8,12.1,3
		c5.6,0.1,11.2,0.1,16.8,0.1c5.7,0,11.4-0.3,17.1,0.4c1.3,0.2,2.6,0.2,3.8-0.2c3.9-1.2,8-1.7,12-2.4c1-0.2,2.1-0.3,3-0.8
		c3.3-1.5,6.5-3.1,9.7-4.7c1.1-0.6,2.4-1.1,3-2.3c0-0.3,0-0.7-0.1-1c-1.7-5.8-3.5-11.6-6.6-16.9c-1.5-2.6-3-5.3-4.4-7.9
		c-2.9-5.3-5.8-10.6-7.6-16.5c-1.8-6-3.4-12.1-5-18.2c-0.2-0.8-0.4-1.6-0.5-2.4c-0.1-0.6-0.1-1.2-0.9-1.5c-1.1,0-2.4,0.3-3.6,0.6
		c-3,0.8-6.1,1.7-9.1,2.5c-7.7,2.1-15.5,2.9-23.5,2.1c-1.7-0.2-3.2-0.5-4.6-1.4C514.3,259.4,512.8,259.1,510.6,258.7z M453.3,316.6
		c-0.4-0.5-1-0.5-1.6-0.5c-2.4-0.3-4.9-0.5-7.3-0.8c-4.7-0.6-9.5-1.3-14.2-1.9c-3.1-0.4-6.3-0.6-9.4-1.2c-3.7-0.7-7.2-1.8-10.9-2.6
		c-6.3-1.5-12.1-4-17.8-7.1c-6.8-3.7-13.1-8.1-19.3-12.6c-3.7-2.7-7.4-5.2-11.4-7.4c-0.5-0.3-1-0.7-1.8-0.3c-2,4.9-4.3,9.8-4.8,15.2
		c0.6,0.6,1.2,0.7,1.8,0.8c2.9,0.4,5.6,1.4,8.3,2.7c1.7,0.8,3.4,1.6,5.1,2.3c1,0.4,2,0.8,3,1c3.9,0.6,7.8,1.2,11.8,1.6
		c2.8,0.3,5.5,1,8.2,1.6c1,0.3,2.1,0.6,2.9,1.2c1.4,1.2,3.1,1.6,4.8,2c2.3,0.5,4.6,1,6.8,1.5c0.9,0.2,1.8,0.4,2.8,0.4s2-0.4,2.8-0.5
		c1.1,0.2,1.9,0.5,2.5,1.4c1.7,2.4,4.2,3.3,6.9,3.6c2.6,0.3,5.4,0.6,8,0c4.7-1,9.3-0.4,14.1,0.7c1.6-0.7,3.4-0.6,5.3-0.2
		c0.8,0.2,1.6,0.1,2.4,0.1C452.7,317.5,453.2,317.2,453.3,316.6z M875.3,245.2c-0.7-2.9-1.9-5.2-3.4-7.5c-1.6-2.4-3.7-4.1-6.8-4.1
		c-1.7,0.7-2.8,1.8-3.5,3.4c-0.5,1-1.1,2-1.7,3.1c-3.3,6.2-3.3,6.2-7.6,10.8c0.3,1.2,1.9,1.4,2,2.8c-2.1,1.8-3.5,0-5-1.1
		c-0.7,0.1-1.2,0.2-1.6,1c0.3,1,1.6,1.5,1.4,2.9c-2.4,1.4-3.9-0.2-5.2-1.7c-1,0-1.5,0.5-2.1,1.2c0.7,1.2,1.5,2.4,2.3,3.7
		c2.7-0.3,5.2-0.5,7.7-0.9c5.9-1,11.5-2.9,16.3-6.7C870.7,250,873.3,248.1,875.3,245.2z M817.3,270.7c0.8,0.2,1.3,0.2,1.6-0.2
		c0-1.2-1.3-2.3-0.5-3.5c2.5-0.1,5-0.2,7.4-0.3c0.5,0,0.9-0.1,1.4-0.3c2-1,4.1-1.7,5.8-3.1c0.2-0.1,0.2-0.4,0.3-0.6
		c-0.4-0.7-0.9-1.3-1.9-1.7c-1.5,0.2-3,0.9-4.4,1.6c-1.7,0.8-3.4,1.4-5.3,1.7c-2.4,0.4-4.7,1.2-7,2.3
		C815.6,267.9,816.7,269.1,817.3,270.7z M835,259.5c0.8,0.6,1.1,1.4,2.1,1.6c0.9-0.2,2,0,2.6-1.1c-0.4-0.9-1-1.5-1.9-1.8
		C836.8,258.2,836,258.6,835,259.5z M666,243.7c-2.3,0-3.8,0-5.6,0C662.1,244.7,663.6,245.2,666,243.7z M809.8,269.6
		c2.1,0.4,2.1,0.4,3.4,0c-0.2-0.6-0.6-1-1.1-1.2C811.3,268.5,810.5,268.5,809.8,269.6z"/>
	<path d="M447.9,680.3c0.4-0.3,0.6-0.5,0.8-0.5c3.4-0.1,6.7-0.8,10-1.4c1.8-0.3,3.4,0.1,5.1,0.6c4.6,1.2,9.2,2.5,13.9,3.2
		c1,0.1,2.1,0,3.1,0.3c1.1,0.3,2.3,0,3.2-0.4c0.2-0.6,0-1-0.6-1.5c-0.2,0-0.7-0.2-1.1-0.2c-5.7-0.1-11.3-1.7-16.9-2.5
		c-1.8-0.3-3.5-1.1-5.4-1.4c-2.1-0.3-4.2-0.6-6.3-0.6c-1.4,0-2.8-0.1-4.7-1c4.6-0.7,8.4-0.3,11.7-0.1c1.4,0.2,1.6,1,2.5,1.5
		c5.4,1.1,11.4,1,17.1,3.2c1.6,0,3.5,0,5.3,0c0.8,0.7-0.2,1.3,0,1.9c0.2,0.6,0.3,1.4-0.4,2.2c-3.1,0.1-6.4,0.5-9.8-0.1
		c-3.6-0.6-7.1-1.4-10.5-2.5c-2.9-0.9-5.7-1-8.6-0.5c-2.3,0.4-4.6,0.4-7,0.3C448.9,680.9,448.4,680.9,447.9,680.3z"/>
	<path d="M449.5,329.2c3.8-0.8,7.7-0.4,11.2-0.2c1,0.2,1.2,1,2.1,1.5c5.4,1.2,11.4,1,17.2,3.2c1.6,0,3.6,0,5.5,0
		c0.3,0.9-0.8,1.2-0.4,2.1c0.3,0.5,0.3,1.1,0,1.6c-0.4,0.6-1,0.6-1.6,0.6c-0.5,0-0.9-0.1-1.4-0.1c-6.2,0.7-12.1-0.9-17.8-2.7
		c-2.9-0.9-5.7-1-8.6-0.5c-2.3,0.4-4.6,0.4-7,0.4c-0.5,0-0.9-0.1-1.3-0.2c-0.2-0.7,0.2-1,0.7-1c3.4,0,6.7-0.8,10-1.3
		c1.8-0.3,3.4,0,5.1,0.5c4.5,1.3,9,2.4,13.5,3.2c1.3,0.2,2.5,0.1,3.8,0.4c1,0.2,2-0.1,2.9-0.2c0.5-0.9,0-1.3-0.5-1.9
		c-5.3-0.1-10.7-1.5-16.1-2.2c-1-0.1-2.1-0.4-3.1-0.7c-3.4-1-6.8-1.6-10.3-1.7C452.2,330.1,450.8,330,449.5,329.2z"/>
	<path d="M332,154.6c1.7,0.9,2.4,2.8,3.7,4.1c0.4,0.5,0.7,1.3,1.7,1c0.8-1.2-0.7-2.1-0.4-3.3c1.1-3.4,3.6-5.8,5.9-8.3
		c2.2,0.4,2.2,0.4,5.7,3.3c1.8,0.7,3.7,0.1,5.5,0.5c-0.1,1.3-0.8,2-1.9,2.6c-1.9-0.2-3.5-1.8-5.4-2.1l0.1,0.1
		c-0.6-1.5-1.9-2-3.1-2.6c-0.8,0.6-1,1.2-1.2,1.9l0.1-0.1c-0.7,0.3-0.6,0.9-0.8,1.5l0.1-0.1c-0.3,0.3-0.5,0.5-0.8,0.8l0.1-0.1
		c-2.4,2.5-2.4,3.8,0,6.4l-0.1-0.1c0.1,0.4,0.4,0.7,0.8,0.8l-0.1-0.1c0.1,0.3,0.2,0.7,0.4,0.9c1.7,1.9,2.8,4,3,6.5
		c0,0.2,0.2,0.4,0.4,0.6c1.5-0.3,0.8-2.5,2.4-2.7c1,0.3,0.9,1.2,0.7,1.9c-0.5,1.8-1.5,3.1-3.6,3.2c-1.7-1.5-2.1-3.6-2.5-5.8
		c-1-1.1-2.1-2.3-3.2-3.5c-0.2-0.2-0.6-0.3-0.8-0.5c-1.2,0.6-0.4,2-1.2,3c-1-1-0.5-2.3-1.3-3.7C334.7,159.1,332.9,157.1,332,154.6
		L332,154.6z"/>
	<path d="M424,434.4c0.1,0.4,0.2,0.9,0.5,1.3c1.3,1.9,2.1,3.8,1.9,6.2c0,0.3,0.1,0.7,0.7,0.9c1-0.4,1-2,2.3-2.3
		c0.2,0.1,0.5,0.3,0.8,0.4c-0.3,3.2-1.2,4.2-4.3,4.3c-1.2-1.7-1.6-3.7-1.5-5.6c-1.1-1.8-2.1-3.5-3.5-4.8c-1.5,0.6-0.6,2-1.4,2.8
		c-0.5-0.1-0.8-0.4-0.8-0.9c-0.1-0.8-0.1-1.6-0.1-2.4c-1.2-1.9-2.6-3.7-2.8-5.9l-0.1,0.1c1.2,0.3,1.4,1.4,2,2.2
		c0.6,0.8,0.8,1.9,2,2.4c0.9-1.3-0.4-2.5,0.2-3.7c1.7-3.1,4.3-5.3,7.1-7.5c2.2,0.8,3.3,2.6,4.6,3.9c1.8,1,3.7,1,5.6,1.3
		c0,1.4-0.9,1.9-2,2.4c-3.2-0.9-5.3-3.5-7.8-5.6c-0.5,0.4-0.9,0.7-1.2,1l0.1-0.1c-0.4,0.4-0.8,0.9-0.8,1.5l0.1-0.1
		c-0.4,0.1-0.7,0.4-0.8,0.8l0.1-0.1c-0.3,0.3-0.5,0.5-0.8,0.8l0.1-0.1c-0.3,0.3-0.5,0.5-0.8,0.8l0.1-0.1c-1.5,0.9-1.6,2.2-1.2,3.6
		c0.2,0.7,0.8,1.4,1.2,2.1l-0.1-0.1c0.2,0.4,0.4,0.7,0.8,0.8L424,434.4z"/>
	<path d="M415.6,410c1.2-0.1,2.2,0.5,3.3,1c3.3,1.5,6.8,2.5,10.4,2.8c2.6,0.2,5.1,0.1,7.6-0.7c0.4-0.1,0.9-0.3,1.4,0
		c0.3,0.6-0.2,0.8-0.5,1c-0.8,0.4-1.7,0.7-2.6,1c0.3,0.9,0.9,0.7,1.3,0.5c0.7-0.3,1.5-0.7,2.1-1.2c0.8-0.6,1.5-1.4,2.3-2.1
		c0.8,0,0.6,0.9,1.2,1.1c0.7-0.2,1.5-0.4,2.2-0.6l-0.1-0.1c-0.3,1.1-1.2,1.7-2.2,2c-2,0.8-4.1,1.5-6.2,2.3
		c-3.9-0.9-7.7-1.8-11.5-2.8c-2.7-0.7-5.3-1.7-7.7-3.2C416.3,410.8,415.8,410.6,415.6,410L415.6,410z"/>
	<path d="M346.6,152.3c0.2,1.6,2,2.2,2.4,3.7c-0.1,1.2-0.9,2.1-1.6,3c0.3,0.8,1.2,1.1,1.2,2c-0.1,1.7-1.9,1.8-2.5,3.2
		c-1.4-1.6-2.5-3.1-4.4-3.5l0.1,0.1c-0.1-0.4-0.4-0.7-0.8-0.8l0.1,0.1c-0.7-2.1-1.1-4.3,0-6.4l-0.1,0.1c0.3-0.3,0.5-0.5,0.8-0.8
		l-0.1,0.1c0.4-0.4,0.7-0.9,0.8-1.5l-0.1,0.1c0.6-0.3,1-1,1.7-0.8c1,0.3,1.4,1.6,2.6,1.5L346.6,152.3z M344.9,159
		c0.7-1.6,2.1-1.7,2.7-2.8c-0.4-0.5-0.8-1.1-1.5-1.3c-0.9,0-1.5,1.1-2.5,0.6c0-0.9,1.6-1.1,0.9-2.5c-1.4,0.9-2.3,2-2.8,3.3
		c-0.1,2.4,1.5,3.4,3.2,4.2c0.2,0.1,0.4-0.1,0.6-0.1C345.3,159.9,345.1,159.4,344.9,159z"/>
	<path d="M358.6,137.7c0,0.1,0,0.3,0,0.3c-1.1,1.7-3.1,1.9-4.6,2.9c-1.5,1.1-3.2,1-5,0.8c-3.5-0.3-7-0.7-10.4-1.3
		c-3-0.5-5.9-1.4-8.9-3.2c1.5-0.1,2.5,0.3,3.5,0.6c1.9,0.6,3.8,1,5.8,1.4c4.6,0.8,9.1,0.6,13.4-1.3c0.4-0.2,0.9-0.3,1.3,0.1
		c-0.4,1.4-2.2,1.1-2.8,2.3c2.1,0.1,2.5-0.2,5.3-3.7c0.8,0,0.5,0.9,1,1.2C357.5,137.9,358.1,137.8,358.6,137.7L358.6,137.7z"/>
	<path d="M426.1,424.7c0.5,0,0.9,0.1,1.4,0.1c1.6,1.7,3.1,3.4,4.2,5.4c0,1.6-1.2,2.3-2,3.2c0.3,0.7,1.1,1.2,1,2.2
		c-0.3,1.6-2.2,1.6-3,3c-1-1.9-2-3.4-3.9-4.1l0.1,0.1c-0.1-0.4-0.3-0.8-0.8-0.8l0.1,0.1c-0.2-1.9-0.3-3.8,0-5.7l-0.1,0.1
		c0.4-0.1,0.6-0.4,0.8-0.8l-0.1,0.1c0.3-0.3,0.5-0.5,0.8-0.8l-0.1,0.1c0.3-0.3,0.5-0.5,0.8-0.8l-0.1,0.1
		C426.1,425.8,426.1,425.2,426.1,424.7L426.1,424.7z M427.6,434.4c0.1,0.3,0.1,0.4,0.2,0.2C427.7,434.6,427.6,434.5,427.6,434.4
		c0-0.6-0.3-1.3,0.3-2.1c0.4-0.8,1.8-0.6,2.4-1.7c-0.1-0.6-0.5-1.2-1.2-1.5c-0.9-0.3-1.6,1-2.7,0c0.6-0.4,1.1-0.8,1.5-1.2
		c-0.1-0.6-0.4-0.7-0.9-0.7c-0.9,1.1-2.4,1.7-2.8,3.3C424.6,432.5,425.4,434,427.6,434.4z"/>
	<path d="M386.7,150.5c0.4,0.7,0.6,1.1,0.9,1.5c-0.2,0.1-0.4,0.3-0.6,0.3c-2-0.2-3.6-1.2-5.2-2.2c0.4-1.2,1.3-0.2,1.9-0.9
		c0.3-0.4,0.3-1,0.2-1.5c-0.1-0.3-0.3-0.3-0.6-0.3c-1.1,0.3-1.7,1.1-2.5,1.8c-0.6,0.4-1.2,0.7-2.1,0c3.2-2.1,5.7-5.1,9.7-5.7
		c1-0.1,1.9-0.7,2.8-1.1c0.1,2-1.7,2.3-2.8,3.3C388,147.2,387.8,149,386.7,150.5z"/>
	<path d="M464.6,427.4c-0.8,0-1.5,0.7-2.3,0.1c-0.2-0.4,0-0.6,0.3-0.8c1-0.4,1.9-0.9,2.7-1.5c1.6-1.2,3.4-2,5.4-2.2
		c1.5-0.1,2.9-0.5,4.4-1.2c-0.3,2.1-2,2.2-3.3,3.1c-0.4,1.6-0.8,3.3-2.1,4.6c0.2,0.4,0.3,0.7,0.5,1c0.1,0.2,0.1,0.4,0.2,0.7
		c-0.2,0.1-0.4,0.2-0.6,0.2c-1.9-0.5-3.3-1.7-4.9-2.7C464.8,428.2,464.7,427.8,464.6,427.4c0.6,0.2,1.3,0.8,2.2,0.4
		c0.4-0.9,0.4-0.9,0-1.8C465.9,426.2,465,426.4,464.6,427.4z"/>
	<path d="M471.9,684.3c1.3,0.4,1.3,1.3,2,1.5c1.1,0,2.3,0,3.4,0c0.1,1-0.6,0.9-1.1,1.1c-1.3,0.4-2.5,0-3.8-0.4
		c-1.6-0.5-3.1-0.8-4.8-0.7c-2.1,0.1-4.1-0.6-6.1-1.2c-2.1-0.7-4.3-1.1-6.5-0.5c-1.5,0.3-2.9,0.2-4.5,0.1c0.6-0.7,1.3-0.8,2-0.9
		c1.7-0.3,3.4-0.6,5.2-0.8c1.4-0.2,2.7-0.1,4,0.7c1.7,1,3.8,1,5.8,1.1C469.1,684.4,470.9,684.3,471.9,684.3z"/>
	<path d="M450.1,338.5c0.6-0.8,1.2-0.9,1.7-0.9c1.5-0.2,3-0.4,4.5-0.6c1.7-0.3,3.3-0.3,5,0.7s3.8,0.9,5.8,0.9c1.5,0.1,3,0,3.7,0
		c1.6,0.2,1.9,0.9,2.4,1.4c1.3,0.1,2.6,0.1,4.4,0.2c-1.6,1-2.7,1.2-4,1c-0.9-0.2-1.8-0.4-2.7-0.7c-0.9-0.3-1.8-0.5-2.7-0.4
		c-2.5,0.1-4.8-0.4-7.2-1.3c-2.1-0.8-4.3-1-6.5-0.5C453.1,338.6,451.7,338.6,450.1,338.5z"/>
	<path d="M367.5,185.6c-0.2,0.1-0.4,0.3-0.6,0.3c-3-0.3-6-1.1-8.6-2.8c-3.7-2.4-5.9-5.8-6-10.4c0-0.3,0.2-0.7,0.2-1
		c0.5-0.1,0.7,0.2,0.8,0.5c1,5.7,4.3,9.4,9.8,11.1c1.2,0.4,2.4,0.8,3.6,1.2C367.3,184.7,367.6,185,367.5,185.6z"/>
	<path d="M418,441.4c-1.3-0.6-2-1.5-2.6-2.5c-3-4.8-6.8-8.9-10.1-13.3c-0.7-0.9-1.4-1.9-1.7-3c-0.1-0.3,0-0.7,0.4-0.9
		c0.9,0.3,0.9,1.2,1.4,1.8c0.5,0.6,1,1.3,1.5,1.9s1,1.3,1.5,2c0.5,0.9,1.3,1.2,2.4,1.4c2.1,4.3,5.1,8,7.6,12
		C418.3,440.8,418.2,441,418,441.4z"/>
	<path d="M446.8,462.2c-5.3-0.4-10.3-3.6-12.5-7.9c-1.2-2.4-1.7-5-0.9-7.7c0.3,0.2,0.6,0.3,0.6,0.4c0.4,5.6,2.9,9.7,8,12.2
		c1.2,0.6,2.3,1.1,3.5,1.6C446.1,461,446.7,461.2,446.8,462.2z"/>
	<path d="M325.6,156.3c1,0.2,1.5,0.2,2,0.3c2.7,4,6,7.6,9.2,11.1c-0.4,0.8-0.8,0.5-1.2,0.2c-1.5-1-2.6-2.3-3.7-3.6
		c-1.7-2.2-3.7-4.2-5.8-6c-2-1.8-3.9-3.6-5.5-5.8c-0.4-0.5-0.8-1.1-0.4-2.1c1,1.1,2,2.1,2.9,3.1C324.1,154.5,325,155.6,325.6,156.3z
		"/>
	<path d="M445.7,406.4c0.2,0,0.5,0.1,0.7,0.1l-0.1-0.1c0,0.6,0.2,1.2-0.4,2c-2.1,1.1-4.6,2.3-7.5,3.7c0.5-1.8,2.4-1.9,2.8-3.2
		c-2.6-1-5.2-1.8-7.7-3.4c0.8-0.5,1.3-0.1,1.9,0c2.2,0.4,4.2,1.2,6.4,1.4c1.4-0.1,2.4-1.1,3.5-1.6
		C445.8,405.5,445.8,406,445.7,406.4c0,0.1,0,0.2-0.1,0.3C445.6,406.5,445.7,406.4,445.7,406.4z"/>
	<path d="M461.2,394.5c-0.2,0.9,1.2,1.5,0.7,2.5c-0.2,0-0.5,0.1-0.6,0.1c-1.6-1.6-3.1-3.1-4.8-4.9c3.8-0.1,7,0.8,10.1,2.3
		c0.4,0.2,0.7,0.6,1,1c0.1,0.2,0.1,0.4,0.2,0.8c-0.9,0.5-2,0.2-2.8,0.2C463.4,396.2,462.6,394.7,461.2,394.5c-0.1,0-0.1-0.2-0.2-0.2
		h-0.2C460.8,394.4,460.9,394.5,461.2,394.5z"/>
	<path d="M353.7,136.3c0.3-1.3,1.9-1.6,2.4-3c-2.8-0.4-5.4-1.2-8.6-2.3c3.4-0.8,6.1,0.9,8.9,0.2c1.3-0.3,2.1-1.4,3.2-2.1
		c0.6,0.4,0.4,1,0.5,1.6c-0.1,0.1-0.3,0.1-0.1-0.1c0.3,0.1,0.5,0.1,0.8,0.2l-0.1-0.1c0,0.3,0.1,0.7,0.1,1.1
		c-1.9,1.8-4.1,3.1-6.4,4.3C354.1,136.3,353.9,136.2,353.7,136.3L353.7,136.3z"/>
	<path d="M706.9,529.1c1.2-1.4,0.2-3.7,1.9-4.7c1,0.2,1.1,1,1.1,1.6c0,1.8,0.3,3.7-0.9,5.2c-5.4,0.1-5.4,0.1-8.6-1.2
		c1.1-0.7,2.1-0.8,3.2-0.9C704.8,529,706,529.4,706.9,529.1z"/>
	<path d="M374.7,119.6c-1.9-1.7-3.6-3.3-5.6-4.4c0.2-0.9,0.7-0.5,1.1-0.6c0.3-0.1,0.7-0.1,1-0.1c2.2-0.1,4.4,0.4,6.5,0.8
		c1.2,0.3,2.5,0.7,2.8,2.2c-1.1,0.5-2.1,0.5-3.3,0.5c-1.1-0.6-2.5-1.3-3.8-2c-0.4,0.6,0.2,0.7,0.4,1c0.2,0.3,0.5,0.5,0.7,0.7
		C374.8,118.3,375.1,118.6,374.7,119.6z"/>
	<path d="M404.4,429.6c1,0.1,1.1,1.1,1.5,1.7c1.7,2.8,3.5,5.5,5.9,7.8c0.7,0.1,1.3,0.1,2,0.2c1.8,2.6,3.5,5.2,5.3,7.8
		c0.4,0.5,0.7,1.2-0.1,1.8c-1.8-2.7-4.1-5.2-5-8c-0.9-1.1-1.9-0.5-2.6-0.9c-1.3-0.8-2.3-1.9-3.1-3.2c-1.2-1.8-2.3-3.8-3.4-5.6
		C404.5,430.7,404.3,430.2,404.4,429.6L404.4,429.6z"/>
	<path d="M413,394.7c0.3-1.4,1.5-1.7,2.4-2.1c4.8-1.9,9.7-2.7,14.9-2.8c-2.7,1.3-5.7,1.5-8.6,2.2C418.8,392.9,416,393.8,413,394.7z"
		/>
	<path d="M463.9,416.8c4.4-1.2,8.3-2.3,12.3-0.5c0.5,0.2,0.7,0.5,0.5,1.2c-1.7,0.3-3.4-0.5-5.1-0.2c-1.6,0.3-3.2,0.3-4.8,0.4
		C466,417.7,465.1,417.7,463.9,416.8z"/>
	<path d="M342.4,115.9c-0.2,0.5-0.6,0.6-1.1,0.8c-5.2,1.7-10.3,3.4-14.9,6.2c-0.8-0.5-0.4-1-0.1-1.2c1.5-1.3,3.3-2.2,5.1-2.9
		C335,117.5,338.5,116,342.4,115.9L342.4,115.9z"/>
	<path d="M369.3,121.8c-5.9-1.1-11.5-2.9-17-4.8c4.1,0.2,7.9,1.4,11.8,2.4c1.6,0.4,3,1.1,4.5,1.7
		C368.9,121.2,369.1,121.6,369.3,121.8z"/>
	<path d="M440.1,392.5c0.5,0,1-0.1,1.4,0.1c4.5,1.5,9.1,2.9,13.3,5.2c0.5,0.3,1,0.6,1.1,1.2c-0.2,0.1-0.4,0.3-0.5,0.3
		C450.3,397.1,445.1,395.1,440.1,392.5L440.1,392.5z"/>
	<path d="M392.6,137.5c-2.6,0.5-4.7,0.3-6.8,0.9c-1.9,0.5-3.8,1.1-5.9,0.5c0.2-0.3,0.3-0.7,0.6-0.8c2.6-0.8,5.1-2.3,8-1.9
		C389.7,136.3,391,136,392.6,137.5z"/>
	<path d="M440.8,397.4c0.7-0.1,1.3,0.2,2,0.5c1.8,0.8,3.7,1.3,5.6,1.8c-0.3,0.9-1.1,0.4-1.6,0.7c-0.5,0.3-0.9,0.6-1.3,0.9
		c-3.5-0.6-4.1-0.8-7-2.7c1-0.5,1.8,0.5,2.6,0C441.1,398.1,441,397.7,440.8,397.4L440.8,397.4z"/>
	<path d="M353,121.6c0.6,0.1,1.2,0,1.7,0.2c2.2,0.8,4.4,1.3,7,1.4c-0.5,1.2-1.8,1.2-2.4,1.9c-2.1,0.4-4.8-0.3-7-1.8
		c0.9-0.5,1.8,0.4,2.8,0.1c0.2-0.1,0.1-0.2-0.1-0.4C354.4,122.3,353.4,122.4,353,121.6L353,121.6z"/>
	<path d="M368.5,213.8c0.5-0.5,0.9-0.8,1.4-0.6c0.3,0.1,0.7,0.2,1,0.4c1.4,0.9,4.2,4.2,5.4,6.4C374.4,219.2,370.2,215.9,368.5,213.8
		z"/>
	<path d="M553,477.9c0.2-0.4,0.2-0.6,0.4-0.8c0.3-0.2,0.6-0.5,0.9-0.5c1.6-0.1,3.2-0.1,4.8-0.1c0.4,0,0.9,0.1,1.1,0.6
		c-0.1,0.9-0.8,1-1.4,1.2c-1.5,0.4-3.1,0.9-4.7,0.6C553.6,478.8,553.3,478.5,553,477.9z"/>
	<path d="M343,210.5c-0.9,3.2-2.2,4.7-5.1,5.8c0-0.2-0.2-0.5-0.1-0.6c0.9-2.2,2.5-3.9,3.8-5.7C342.3,209.6,342.8,209.8,343,210.5z"
		/>
	<path d="M432.1,424.2c3,0,5.7-1.1,8.2-2.4c0.2,0.4,0.4,0.6,0.3,0.8c-0.6,1.7-2.2,2.3-3.8,2.6C435.2,425.5,433.5,425.8,432.1,424.2z
		"/>
	<path d="M430.6,421.6c1.8-0.8,3.4-1.3,4.8-2s2.7-1.7,4-2.6c0.3,0.2,0.4,0.4,0.7,0.6c-0.4,1.4-1.7,2.1-2.8,2.7
		C435.4,421.5,433.3,422.2,430.6,421.6z"/>
	<path d="M347.4,147.2c2.9-1.4,5.3-3.6,7.8-5.5c0.3,0.4,0.4,0.5,0.6,0.9C353.9,145.6,351.1,147.2,347.4,147.2z"/>
	<path d="M350.3,180.6c0.3-0.6,0.5-0.8,0.9-0.8c2,1.6,3.4,3.5,5.2,7.1C354.1,185.8,353.4,185,350.3,180.6z"/>
	<path d="M689.9,527.8c2.9-0.2,5.7-0.6,8.5,0.2c0.2,0.1,0.2,0.4,0.4,0.6c-0.3,0.6-0.7,0.9-1.3,0.9
		C694.8,529.8,692.4,528.7,689.9,527.8z"/>
	<path d="M357.3,146c-0.6,2.5-2,3.4-3.5,4c-1.8,0.8-3,0.7-5.5-0.3c1.7-0.5,3.1-0.8,4.5-1.3C354.1,147.8,355.3,147,357.3,146z"/>
	<path d="M435.3,461.7c-0.3-0.1-0.7,0-1-0.2c-1.8-1.7-3-3.9-4-6.1c-0.1-0.2,0.1-0.6,0.2-0.9c0.6-0.1,1,0.1,1.3,0.5
		C433.2,457.1,434.7,459.2,435.3,461.7L435.3,461.7z"/>
	<path d="M332.7,167.7c-0.8,0.1-1.6,0.2-2.4,0.3c-1.3-0.3-2.2-1.1-3.1-2c-1.2-1.3-2.2-2.6-3.3-3.9c-0.3-0.4-0.5-0.8-0.3-1.3l0,0
		c1.1,0.1,1.4,1.1,2,1.7c1.2,1.1,2.3,2.3,3.4,3.5c0.4,0.4,0.9,0.7,1.3,1c0.7,0,1.2,0,1.9,0C332.3,167.2,332.5,167.5,332.7,167.7
		L332.7,167.7z"/>
	<path d="M416.3,551c1.1-3.3,2.2-4.6,5-6.8c0.4,0.1,0.5,0.5,0.4,0.8C420.3,547.4,418.5,549.3,416.3,551z"/>
	<path d="M593.4,508.6c-6.5-1-8.7-1.7-10.8-3.3c0-0.1,0.1-0.3,0.1-0.3C584.2,505,590.7,507.2,593.4,508.6z"/>
	<path d="M452.7,494.5c0.8-0.3,1.1-0.2,1.3,0.1c1.2,1.9,1.9,4.9,1.9,8.3C454.1,500.2,453.9,497.2,452.7,494.5z"/>
	<path d="M325.9,331.4c-0.3,0.4-0.4,0.6-0.7,0.9c-2.2-0.8-2.7-3-3.7-4.6c0.6-0.8,1-0.4,1.3-0.2C324.2,328.4,325.3,329.6,325.9,331.4
		z"/>
	<path d="M332.6,167.8c0.1,0,0.3,0,0.3,0.1c1.9,2.2,3.8,4.3,5.7,6.5c0.4,0.5,0.3,1-0.1,1.9c-0.8-1.5-1.9-2.5-2.9-3.5
		C334.3,171.3,333,169.8,332.6,167.8L332.6,167.8z"/>
	<path d="M320.4,274.4c0.2,0,0.4,0,0.8-0.1c1.1,1.8,0.6,3.9,1.1,6.2C320.2,278.6,319.9,277.4,320.4,274.4z"/>
	<path d="M407.6,490.8c1.5-1.6,2.7-2.1,6.7-2.6C413.9,489.3,411.1,490.3,407.6,490.8z"/>
	<path d="M379.9,613c-1.6-1.5-3.1-4.2-3.5-6.1c0-0.1,0.2-0.3,0.5-0.7C378.2,608.4,379.4,610.6,379.9,613L379.9,613z"/>
	<path d="M345.6,133.7c2,0.3,3.9,0.6,5.9,0.9c0,0.8-0.6,0.8-1.1,0.7C348.7,134.9,346.9,134.7,345.6,133.7z"/>
	<path d="M407.5,398.5c2.1-1.3,4-0.9,5.9-0.8C411.5,398.1,409.8,398.8,407.5,398.5z"/>
	<path d="M371.2,118.7c-2.1-0.3-3.6-1.7-5.5-2.4c1.9-0.2,3.6,0.4,5.1,1.6C371,118.1,371,118.5,371.2,118.7L371.2,118.7z"/>
	<path d="M453.5,393.2c1.8,0.1,3.3,0.9,4.6,2.2c0.3,0.3,0.4,0.6,0.1,0.9c-0.2,0-0.4,0-0.5-0.1C456.3,395,454.5,394.6,453.5,393.2
		L453.5,393.2z"/>
	<path d="M431.1,408c1.8,0.5,3.7,1,5.7,1.6C434.6,410,434.6,410,431.1,408z"/>
	<path d="M361.3,125.5c-1.6,2.1-1.7,2.1-4.6,2.7C358.2,127,359.7,126.1,361.3,125.5z"/>
	<path d="M442.8,403.7c1.4-0.7,2.7-1.3,4.1-1.9c0.2-0.1,0.4,0.1,0.9,0.2C446.4,403.5,444.7,403.8,442.8,403.7z"/>
	<path d="M396.1,339.2c1.9-1.3,1.9-1.3,3.7-0.2C398.6,339.8,397.4,339.5,396.1,339.2z"/>
	<path d="M416.6,488.2c1-1.4,2.2-1.3,3.6-0.9C419.2,488.7,418,488.6,416.6,488.2z"/>
	<path d="M581.6,485.2c1.5-1.1,2.5-1.2,3.8-0.6C584.4,485.9,583.3,485.5,581.6,485.2z"/>
	<path d="M321,127c1.7-1.1,3.1-1.3,4.6-0.9C324.2,126.3,322.9,127.2,321,127z"/>
	<path d="M603.2,511.2c-1.2,0.2-2.5,0.3-3.7-0.5C600.7,510.4,600.7,510.4,603.2,511.2z"/>
	<path d="M310.3,135.7c-0.1-1.5,0.3-2.6,1.6-3.4c0.6,0.3,0.7,0.7,0.4,1.1C311.8,134.3,311.2,135.1,310.3,135.7L310.3,135.7z"/>
	<path d="M360.7,191.4c-1.4-0.8-2.1-1.5-1.9-2.8C360.1,189,360.3,189.9,360.7,191.4z"/>
	<path d="M385.8,238.3c-0.6,1.2-1.4,1.2-2.5,0.7C384.1,237.7,384.1,237.7,385.8,238.3z"/>
	<path d="M389,399.4c0.9-1.3,2.1-2,4.3-1.9C391.6,398.5,390.5,399.4,389,399.4L389,399.4z"/>
	<path d="M680.7,525.7c1-0.5,2-0.5,2.9,0.2c0.1,0.7-0.4,0.9-0.8,0.9C682,526.7,681.1,526.7,680.7,525.7z"/>
	<path d="M359.3,137c0.1-1.1,0.8-1.8,1.4-3.4C360.8,135.6,360.8,135.6,359.3,137L359.3,137z"/>
	<path d="M437.6,464.1c1.1,1,1.1,1,1.1,2.7C437.9,465.9,437,465.4,437.6,464.1z"/>
	<path d="M303.3,130c0.5-1.4,1.6-2,3.6-2C305.4,128.9,304.6,129.9,303.3,130L303.3,130z"/>
	<path d="M430.9,453.3c-1-0.8-1.4-1.4-0.9-2.4C430.8,451.4,431.1,452.1,430.9,453.3z"/>
	<path d="M321.4,158.1c1.4,0.4,1.9,1.4,2.2,2.7l0,0C322.2,160.4,321.8,159.2,321.4,158.1L321.4,158.1z"/>
	<path d="M350,176.6c0.6,0.5,1.3,0.9,0.8,1.9C349.8,177.7,349.8,177.7,350,176.6z"/>
	<path d="M455.1,528.8c-0.4,0-0.7-0.2-0.7-0.6c0-0.1,0.2-0.4,0.4-0.4c0.4-0.1,1.1,0.5,0.9,0.8C455.5,528.8,455.3,528.8,455.1,528.8z
		"/>
	<path d="M324,283.8c-0.6-0.8-0.8-1.3-0.5-1.9C324.7,282.3,324.8,282.4,324,283.8z"/>
	<path d="M460.3,383.4c-0.7,0-1.2-0.3-1.5-1c0.1-0.6,0.6-0.5,1-0.5l-0.1-0.1c0.3,0.4,0.6,0.9,0.8,1.3L460.3,383.4z"/>
	<path d="M333.8,221c0.3,0.5,0.4,1-0.1,1.6C333.1,222,333.3,221.5,333.8,221z"/>
	<path d="M361.5,130c0.1-0.7,0.5-1.1,1.3-1.1C362.7,129.7,362,129.8,361.5,130L361.5,130z"/>
	<path d="M445.1,412.1c0-0.7,0.1-1.3,0.8-1.7C446.2,411.3,446.2,411.3,445.1,412.1L445.1,412.1z"/>
	<path d="M419,421.3c0.5,0,1,0,1.9,0C420,422,419.5,421.4,419,421.3L419,421.3z"/>
	<path d="M674.8,525.2c-0.2,0-0.4,0-0.7,0c0,0,0-0.1,0-0.2c0.2,0,0.4,0,0.7,0C674.8,525,674.8,525.1,674.8,525.2z"/>
	<path d="M388.8,236.8c0.5-0.5,0.9-0.5,1.4,0C389.8,237.4,389.3,237.3,388.8,236.8z"/>
	<path d="M334.2,219.2c0.3-0.3,0.5-0.5,0.8-0.9C335.4,219.4,335.1,219.5,334.2,219.2z"/>
	<path d="M385.3,339.1c-0.2,0.3-0.5,0.5-0.9,0.3c-0.3-0.2-0.3-0.4,0-0.5C384.9,338.6,385.1,338.7,385.3,339.1z"/>
	<path d="M412.2,556.2c-0.3,0.2-0.6,0.4-0.9,0.5c-0.2,0.1-0.4,0-0.5-0.3c0-0.1,0-0.2,0.1-0.3C411.2,555.7,411.5,555.5,412.2,556.2z"
		/>
	<path d="M335.4,148.3c0.5,0,1.1,0,1.9,0C336.4,149,335.9,148.5,335.4,148.3L335.4,148.3z"/>
	<path d="M426.3,484.1c-0.1,0.1-0.3,0.3-0.4,0.4c-0.1-0.2-0.2-0.3-0.2-0.5c0-0.1,0.1-0.2,0.2-0.2
		C426.1,483.8,426.3,483.9,426.3,484.1z"/>
	<polygon points="419.4,440.9 419.4,440.6 419.5,440.7 	"/>
	<path d="M577.9,505.5c0-0.1,0.1-0.2,0.1-0.2c0.3,0,0.4,0.1,0.2,0.3C578.1,505.6,578,505.5,577.9,505.5z"/>
	<path d="M403.7,428.2c0.5,0.3,0.7,0.8,0.6,1.4l0.1-0.1C403.7,429.3,403.8,428.7,403.7,428.2L403.7,428.2z"/>
	<path d="M425.7,676.2c0.3,0.1,0.3,0.3,0.2,0.6c-0.1,0.1-0.2,0.1-0.3,0.2c-0.1-0.2-0.2-0.4-0.2-0.6
		C425.4,676.4,425.6,676.3,425.7,676.2z"/>
	<path d="M380.5,492.6c-0.1,0.3-0.1,0.5-0.2,0.9C380.1,493,380.4,492.8,380.5,492.6L380.5,492.6z"/>
	<path d="M415.6,428.2c-0.3-0.2-0.5-0.4-0.4-0.8C415.7,427.5,415.5,427.9,415.6,428.2L415.6,428.2z"/>
	<path d="M440.2,392.4c-0.3-0.1-0.5-0.1-0.8-0.2C439.8,391.9,440,392.3,440.2,392.4L440.2,392.4z"/>
	<path d="M453.5,393.1c-0.3,0-0.5-0.1-0.9-0.2C453.1,392.6,453.3,392.9,453.5,393.1L453.5,393.1z"/>
	<path d="M321.5,158c-0.6-0.4-0.7-0.9-0.6-1.6l-0.1,0.1C321.2,157,321.5,157.5,321.5,158L321.5,158z"/>
	<path d="M440.9,397.3c-0.6,0.1-1.1-0.1-1.4-0.6l-0.1,0.1C440,396.7,440.6,396.7,440.9,397.3L440.9,397.3z"/>
	<path d="M447.9,405.8c0.1-0.5,0.3-0.8,0.9-0.3C448.4,405.6,448.1,405.7,447.9,405.8L447.9,405.8z"/>
	<path d="M447.8,405.7c-0.3,0.7-0.9,0.6-1.5,0.6l0.1,0.1C446.8,405.9,447.3,405.8,447.8,405.7L447.8,405.7z"/>
	<path d="M376.5,222.5c-0.1,0-0.2-0.1-0.2-0.1c0-0.1,0-0.2,0.1-0.3c0.1,0,0.2,0.1,0.2,0.1C376.6,222.3,376.5,222.4,376.5,222.5z"/>
	<path d="M305.4,224.5c0.1-0.2,0.2-0.5,0.3-0.7C305.8,224.2,305.5,224.3,305.4,224.5L305.4,224.5z"/>
	<path d="M342.5,116c0.2-0.2,0.3-0.5,0.7-0.3C342.9,115.8,342.6,115.9,342.5,116L342.5,116z"/>
	<path d="M353.1,121.5c-0.3-0.1-0.6-0.1-0.9-0.2C352.6,121,352.8,121.3,353.1,121.5L353.1,121.5z"/>
	<path d="M415.7,409.9c-0.6,0-1-0.2-1.5-0.6v0.1C414.7,409.4,415.3,409.4,415.7,409.9L415.7,409.9z"/>
	<polygon points="305.3,224.4 305.3,224.6 305.4,224.5 	"/>
	<polygon points="332,154.5 331.9,154.4 332,154.6 	"/>
	<path d="M356.5,106.8c0,0.1-0.1,0.2-0.1,0.2S356.5,106.9,356.5,106.8L356.5,106.8z"/>
	<path d="M371.2,118.8c0.1,0,0.1,0.1,0.2,0.1C371.3,118.8,371.3,118.8,371.2,118.8L371.2,118.8z"/>
	<path d="M303.2,129.9c-0.1,0.1-0.2,0.2-0.2,0.2C303.1,130.2,303.2,130.1,303.2,129.9L303.2,129.9z"/>
	<path d="M360.7,130.8c0.1-0.4,0.4-0.6,0.7-0.8l-0.1-0.1C361.2,130.2,360.9,130.5,360.7,130.8L360.7,130.8z"/>
	<path d="M379.8,613.1c0.1,0,0.2,0,0.3,0.1C380,613.1,380,613.1,379.8,613.1L379.8,613.1z"/>
	<polygon points="374.9,601.9 375.1,602 375,601.8 	"/>
	<path d="M353.6,136.2c0,0.1,0,0.2-0.1,0.3C353.6,136.4,353.7,136.4,353.6,136.2L353.6,136.2z"/>
	<path d="M359.3,137c0,0.5-0.2,0.7-0.7,0.7l0,0C358.6,137.2,358.8,137,359.3,137L359.3,137z"/>
	<path d="M435.2,461.8c0.1,0,0.2,0.1,0.3,0.2C435.4,462.1,435.3,462.1,435.2,461.8L435.2,461.8z"/>
	<path d="M439.5,396.6c-0.1-0.1-0.2-0.1-0.3-0.2C439.2,396.6,439.3,396.6,439.5,396.6L439.5,396.6z"/>
	<path d="M388.9,399.3c0,0.1,0,0.2-0.1,0.3C388.9,399.6,389,399.5,388.9,399.3L388.9,399.3z"/>
	<path d="M392.5,400.1c0,0.1,0,0.2-0.1,0.3C392.4,400.3,392.5,400.2,392.5,400.1L392.5,400.1z"/>
	<polygon points="414.3,409.3 414.1,409.1 414.2,409.3 	"/>
	<path d="M445,412c0,0.5-0.2,0.7-0.7,0.7l0.1,0.1C444.3,412.3,444.6,412.1,445,412L445,412z"/>
	<polygon points="393.3,415.6 393.3,415.4 393.2,415.6 	"/>
	<path d="M403,427.5c0.3,0.2,0.5,0.5,0.8,0.7l0.1-0.1c-0.3,0-0.6,0-0.9,0l0.1,0.1C403,427.9,403,427.7,403,427.5L403,427.5z"/>
	<polygon points="380.6,492.6 380.7,492.4 380.5,492.6 	"/>
	<path d="M382,490.5C381.7,490.8,382.1,490.5,382,490.5L382,490.5z"/>
	<path fill="none" d="M423,596.6c1.3-0.1,1.8-0.2,2.4-0.2c7.1-0.2,14.2-1.3,21.2-2.4c3.4-0.6,6.8-1.5,10.1-2.6
		c1.3-0.5,2.7-0.9,3.9-1.6c2.4-1.4,5.1-2.4,7.7-3.2c5.7-1.8,11-4.5,16.4-6.9c1.8-0.8,3.6-1.6,5.4-2.5c3.4-1.6,6.7-3.3,9.1-6.1
		c0.9,0,1.1,0.5,1.3,1.1c0.6,1.9,1.2,3.8,1.8,5.7c0.8,0.2,1.6,0.4,2.2,0.6c0.7,0.5,0.9,1.2,1.1,1.9c0.3,0.6,0.4,1.3,0.6,2
		c2.9,0.9,3.5,3.6,4.9,5.8c-1.3,1.7-1.9,3.6-2.9,6.1c1.2-0.8,1.6-1.7,2.1-2.3s0.9-1.4,1.4-2.2c2.2,0.5,4.2,2.1,6.7,1.6
		c0.2,1.8,0,3.4-0.3,5c-0.2,1.2-0.8,2.2-1.6,3.1c-1.8,2-3.1,4.3-4.1,6.5c-0.1,1.1,0.8,1.4,1.1,2.1c-2.9,5-5.1,10.4-7.6,15.6
		c-1.7,3.5-2.9,7.1-3.7,10.9c-1.4,6.7-2.9,13.5-4.2,20.2c-1,5.3-1.5,10.6-1.7,16c0,0.5,0.1,0.9-0.5,1.5c-1.7-0.8-3.3-1.9-4.1-3.8
		c-0.7-1.6-1.8-2.7-3.1-3.8c-2.4-2-5-3.9-7.7-5.4c-2.9-1.6-5.6-3.3-8.1-5.4c-3.1-2.6-6.7-4.7-10-7c-1.6-1.1-3.3-2.3-4.8-3.5
		c-2.6-2.2-4.9-4.6-6.9-7.4c-2.9-4.2-6.1-8.2-9.2-12.3c-3.4-4.4-6.3-9-8-14.3c-0.4-1.3-1.3-2.2-2.2-3.1c-2.1-2.1-4.1-4.1-6.2-6.2
		C424.8,599,424.1,598,423,596.6z M505.3,583.7c-0.1,0-0.2,0-0.3,0.1c0,0,0,0.1,0,0.2C505.1,583.8,505.1,583.7,505.3,583.7
		c0.2-0.1,0.6,0,0.3-0.5C505.5,583.3,505.4,583.5,505.3,583.7z M506.2,598.2c1.4-0.4,1.8-1.2,2.2-1.9c0.1-0.2,0.1-0.4-0.4-0.6
		C507.3,596.1,506.7,596.9,506.2,598.2z"/>
	<path fill="none" d="M461.2,494.7c4.1,2.6,8.3,5.2,12.4,7.8c0.9,0.6,1.8,1.1,2.7,1.7c3.4,2.1,6.8,4.1,9.8,6.7
		c1.3,1.1,2.8,2.1,4.3,3c4.1,2.4,7.3,5.8,9.9,9.7c2.3,3.5,4.5,7.1,5.5,11.2c1.2,4.6,0.6,8.8-2,12.7c-0.7,1.1-1.4,2.1-2.1,3.2
		c-1.4,2-2.7,4.1-3.5,6.4c-0.4,1-1,1.8-1.6,2.7c-0.4,3.1,1.1,5.8,2.2,8.6c-1.2,1.8-2.7,2.9-4.6,3.8c-3.2,1.5-6.4,2.9-9.6,4.3
		c-7.2,3.1-14.3,6.3-21.8,8.5c-0.6,0.2-1.1,0.4-1.6,0.7c-2.8,1.8-5.9,2.7-9.1,3.4c-5.1,1.2-10.2,2.5-15.5,2.7
		c-0.9,0-1.9,0.1-2.8,0.3c-4.2,0.9-8.5,1-13,1c-3.2-4.7-5.7-9.7-7-15.4c1-2,12.1-19.7,13.6-21.5c1.8-0.1,3.6-0.2,5.5-0.2
		c1.3,0,2.6-0.3,3.7-0.9c5.7-3.1,11.6-6,17-9.7c3.2-2.2,5.7-4.8,6.8-8.7c3.2-2.8,6-6.2,8.1-10c2.1-3.7,4.4-7.4,4.9-12.4
		c0,0-0.3-0.6-0.4-1.1c-0.5-3.9-2.6-6.9-5.1-9.8c-2-2.3-3.9-4.7-5.8-7C461.6,496.2,460.9,495.6,461.2,494.7L461.2,494.7z"/>
	<path fill="none" d="M582.2,643.7c0.3,1.1-0.1,2.1-0.4,3.1c-2,5.7-3.9,11.5-5.9,17.2c-1.1,3.4-3.3,6.2-5.2,9.1
		c-2.5,3.9-5.8,7-10.1,9.2c-2.4,0.2-5,0.3-8.2,0.6c1.8-0.6,2.9-1,4-1.4c-0.3-0.9-1.1-0.6-1.6-0.6c-3.4,0.1-6.8,0.1-10.1,0.4
		c-6.6,0.6-13.2,1.2-19.9,0.9c-6.8-0.4-13.5-1.2-19.8-4c-2.2-0.9-3.9-2.5-5.8-3.7c-0.4-6.6,0.2-13,1.4-19.3c2-9.8,4.7-19.5,8.4-28.8
		c2.2-5.4,4.5-10.8,6.2-16.3c0.5-1.6,0.9-3.1,0.2-4.7c0.3-1,0.4-2,1.6-2.5c0.3,1.1,0.6,2.2,0.8,3.3c-0.4,0.7-0.7,1.3-1.1,2
		c0.5,2.9,0.9,5.9,1.5,8.8c0.3,1.3,0.5,2.5,0.6,3.8c0.3,3.3,1,6.6,1.9,9.9l-0.1-0.1c0,4.6,1.1,9,2.1,13.4c1.7,7,3.1,10.7,5.1,13
		c-0.5-1.8-0.9-3.1-1.3-4.4c-1.8-5.9-3.5-11.8-4.9-17.8c-0.3-1.4-0.6-2.7-0.2-4.1l-0.1,0.1c0.9,0.6,1.2,1.7,1.6,2.6
		c2.5,5,5.1,9.9,7.7,15c0.6-0.8,0.1-1.4-0.1-1.9c-1.4-3.8-3.6-7.3-5.4-10.9c-1.1-2.3-2.3-4.6-3.4-6.9c-1-2.2-1.8-4.5-1.8-7.1
		c1.3,0.2,1,1.8,2.1,2c0,0.3-0.2,0.7,0.4,0.9c0-0.2,0-0.3,0-0.4c-0.1-0.2-0.3-0.3-0.4-0.4c-0.1-2.6-1.1-5-1.7-7.4
		c-0.5-2-0.8-4.1-0.4-6.5c1.7,0.7,3,1.5,4.1,2.7c7,7.3,14.8,13.7,22.9,19.8c4.2,3.2,8.8,5.6,13.6,7.8c2.8,1.2,5.6,2.2,8.6,2.7
		c3.3,0.6,6.6,1.2,9.9,1.8C580.2,644.6,581.3,644.8,582.2,643.7L582.2,643.7z"/>
	<path fill="none" d="M724,563.1c-0.2-0.3-0.6-0.5-0.7-0.8c-0.6-1.6-1.9-2.3-3.3-2.9c-1.3-0.5-2.6-1-3.8-1.6s-2.1-1.5-2.3-2.9
		c-0.3-1.9-1.4-3.5-2.6-4.9c-1.4-1.6-2.9-3.1-4.4-4.5c-1.1-1-2.1-2.1-2.6-3.6c-0.4-1.2-1.1-2.3-1.8-3.6c1.7-0.5,3.3,0.3,5.2-0.5
		c1.4-2.1,4.1-3.2,6.4-4.7c2.6-1.7,3.4-4,3.9-6.7c0.6-2.8-0.1-5.3-1.8-7.6c-0.7-0.9-1.5-1.8-2.4-2.5c-2.3-2.1-4.7-4.2-7-6.3
		c-0.3-0.3-0.7-0.6-0.7-1.4c1.1,0,2.2,0.1,3.3,0c1-0.1,2.1-0.3,3-0.7c3.4-1.6,7.1-2.2,10.4-4c0.3-0.2,0.7-0.1,1.2-0.2
		c1.1,1.2,2.2,2.6,3.4,3.8c1.1,1.2,2.4,2.2,3.5,3.3c1.8-1.7,1.4-3.4-1.7-7.9c0-0.1,0.1-0.3,0.1-0.3c0.6-0.1,1.1-0.3,1.6-0.4
		c2.7,1.2,3.9,4.3,6.8,4.8c1.8-0.9,2.2-1.5,1.6-2.8c-0.5-1-1.1-2-1.7-3c0.6-0.9,1.4-0.8,2.1-0.3c0.8,0.4,1.5,1.1,2.3,1.5
		c1.1,0.5,2.3,0.6,3.1-0.7c0-0.5-0.1-1.1-0.1-1.8c1.2,0.1,2.6,0.5,3.5-0.7c0.3-0.5,0.2-0.9,0-1.4c0.2-0.1,0.4-0.2,0.6-0.2
		c0.8,0.2,1.5,0.5,2.4,0.4c0.8-0.1,0.9-0.1,2.1-1.5c-0.4-0.9-1.6-0.2-2-1.1c0.6-1,1.7-1.4,2.6-2.1c3.3-2.6,6.3-5.5,8.2-9.4
		c0.7-1.5,2.1-2.1,3.8-1.8c2.4,0.3,4.8,1.1,7.2,1.9c2.2,3.6,3.6,7.5,4.2,11.7c0.3,2-0.3,4-0.7,5.9c-0.7,3.5-1.5,7.1-2.3,10.6
		c-0.3,1.5-1,2.7-2.2,3.9c-1.3,1.3-2.3,2.9-3.5,4.4c-2.2,2.8-4.7,5.1-7.4,7.4c-1.6,1.4-3.4,2.3-5.6,2.7c-3.4,0.5-6.4,2.1-8.6,5
		c-0.6,0.8-1.5,1.4-2.3,2.2c-2,2-3.7,4.2-4.1,7.2c-0.2,1.8-1,3.3-2.2,4.7c-0.2,0.3-0.5,0.5-0.6,0.8c-1.4,3-3.9,4.9-6.4,6.8
		C729.2,559,726.7,561,724,563.1z"/>
	<path fill="none" d="M398.8,673.9c-0.7,0-1-0.5-1.3-1c-3.8-4.6-6.4-10-9.7-14.9c-0.4-0.6-0.7-1.2-1.2-1.7c-2.6-2.6-4.2-5.8-5.5-9.2
		c-2.7-7.2-5.4-14.4-8.2-21.6c-1.1-2.8-2.1-5.7-3.1-8.6c-1.2-3.7-2.6-7.2-4-10.8c-2.2-5.4-4-11-5.6-16.6c0.5-1.7,1.6-3,2.6-4.4
		s1.9-2.9,2.6-4.6c2.5-6.2,4.7-12.4,6.2-18.9c1.1-4.7,3-9.1,5.2-13.3c2.8-5.2,5.5-10.6,8-16c2-4.3,4.2-8.6,6.3-12.9
		c3.3-6.6,6.1-13.4,8-20.5c0.1-0.3,0.3-0.6,0.6-0.9c0.4,2.3,0.4,3.3-0.4,5.6c-0.8,2.2-1.7,4.4-2.5,6.5c-1.4,3.6-2.7,7.2-4.1,10.8
		c-0.2,0.7-0.5,1.3-0.7,2c-1.8,8.2-5.3,15.9-7.8,23.9c-1.4,4.4-2.9,8.9-4.3,13.3c-1,3.2-1.8,6.5-2.4,9.9c-0.9,5.8-2.2,11.4-4.7,16.8
		c-1,2.1-1.5,4.4-2.2,6.6c-0.2,0.8-0.3,1.6-0.2,2.4c0.8,6.4,1.8,12.7,3.6,18.9c0.5,1.8,1,3.6,1.4,5.4c2.4,10.9,6.1,21.3,11.4,31.1
		c2.8,5.2,5.5,10.6,8.5,15.7c1.1,1.9,2.5,3.7,3.3,5.8C398.7,673.1,398.7,673.5,398.8,673.9L398.8,673.9z"/>
	<path fill="none" d="M528.8,502.7c-0.6,5.2-2,9.6-2.9,14.2c-0.8,4.2-1.5,8.5-1.8,12.8c-0.5,8.5-1.6,16.9-2.5,25.4
		c-0.7,6.3-2.1,12.4-2.6,18.7c-0.3,3.6-0.5,7.2-0.6,10.8c0,1.2,0,2.3,0,3.5c-1.3,0.4-1.5-1.1-2.4-1.2c-1-0.3-1.2,1-2.1,1
		c-0.2-0.1-0.5-0.2-0.6-0.3c-1.3-2.1-2-4.4-1.9-7c0.1-4.4-0.1-8.8,0.7-13.2c0.8-5.1,1.2-10.2,2.2-15.2c1.7-8.3,3.7-16.6,5.6-24.9
		c0.6-2.4,1.5-4.7,2.4-6.9c1.4-3.7,2.6-7.5,4-11.2C527,507.1,527.4,505,528.8,502.7z"/>
	<path fill="none" d="M728.6,499.4c-0.7-1.2-1.4-2.4-2.1-3.5c0.2-0.9,0.9-1.1,1.8-1.4c1.5,1,2.9,3.4,5.5,1.6
		c0.1-1.3-1.2-1.8-1.4-2.8c0-0.8,0.7-0.8,1.4-1.2c1.1,0.6,1.9,2.3,3.7,1.9c0.6-0.1,1.1-0.2,1.4-0.9c-0.2-1.2-1.4-1.5-2-2.3
		c-0.1-0.9,0.7-1.2,1.2-1.6c1.7-1.6,3.2-3.4,4.3-5.5c1.2-2.2,2.4-4.3,3.5-6.5c0.9-1.7,2-3.1,4-4c2.5,0.1,4.6,1.3,6.1,3.3
		c1.8,2.4,3.2,5.1,3.9,7.8c-0.1,1.1-0.6,1.6-1.1,2.1c-3.5,3.8-7.6,6.9-12.3,9.1c-3.7,1.8-7.7,2.6-11.8,3
		C732.5,498.9,730.6,499.7,728.6,499.4z M743.6,489.6c-0.6-1.5-1.1-1.9-2.4-1.7c-0.9,0.1-1.4,0.6-1.1,1.7
		C741.3,490.2,742.4,490.1,743.6,489.6z"/>
	<path fill="none" d="M715.9,500.5c1.1,0.4,1.6,1.2,2.3,2.1c-3.3,2.1-6.4,4.1-10.4,4c-1.6,0-3.2,0.1-4.7,0.2
		c-0.6,1.5,0.4,2.4,0.5,3.6c-0.3,0.5-0.8,0.4-1.4,0.3c-0.9-1.3-1.8-2.7-2.8-4.3c2-1.1,4-1.9,6.2-2.2c2.3-0.3,4.5-1,6.6-2.1
		C713.4,501.3,714.7,500.9,715.9,500.5z"/>
	<path fill="none" d="M423.5,670.7c-0.5-0.1-1-0.2-1.5-0.3c-0.9-0.6-1.4-1.3-1.4-2.5c1.9-0.8,4-1.1,6-1.4c2.8-0.4,5.5-0.7,8.3-1
		c1.7-0.2,3.1,0.5,4.6,1.8C434.3,669.2,428.9,669.2,423.5,670.7z"/>
	<path fill="none" d="M384.2,480.8c-0.4-1.3-0.2-2.5,0-3.8c1.2-6.2,1.1-12.5,0.2-18.8c-0.6-4.7-0.7-9.5-0.1-14.2
		c0.8-0.2,0.9,0.2,0.9,0.7c0.1,0.9,0.1,1.9,0.2,2.8c0.1,2.9,0.4,5.8,0.6,8.7c0.4,5.2,0.3,10.5-0.2,15.7c-0.1,1.5-0.3,3-0.5,4.5
		C385.2,477.9,385,479.4,384.2,480.8L384.2,480.8z"/>
	<path fill="none" d="M444.3,483.5c2.3,0.5,4.3,1.7,6.3,2.9c2.2,1.3,4.2,2.9,6.3,4.4c0.4,0.3,0.7,0.6,0.6,1.2l0.1-0.1
		c-0.5,0.1-0.9-0.1-1.3-0.4c-3.7-2.4-7.5-4.7-11.2-7.1C444.8,484.2,444.4,484,444.3,483.5L444.3,483.5z"/>
	<path fill="none" d="M420.3,475.5c-2.9,0.8-5.7,1-8.1,2.3c-0.9-0.5-0.8-1.1-0.2-1.4C414.3,475,416.5,474.8,420.3,475.5z"/>
	<path fill="none" d="M460.5,383.2c-0.3-0.5-0.6-0.9-0.8-1.3c2.7,0.7,5.1,2.1,7,4.2c0.4,0.4,0.8,0.8,0.7,1.5l0.1-0.1
		c-1.2,0-1.7-1-2.6-1.6C463.5,384.9,462.4,383.4,460.5,383.2z"/>
	<path fill="none" d="M722.4,497.5c0.8,0.9,1.4,1.5,1.8,2c0,0.7,0,0.7-2.6,1.4c-0.9-0.2-1.3-0.9-1.8-1.6
		C720.2,498.1,721.4,498.2,722.4,497.5z"/>
	<path fill="none" d="M376.7,439.5c0.6,2.5,0.4,4.9,0.3,7.1c-0.3,0.5-0.4,0.4-0.5,0c-0.1-1-0.2-2.1-0.2-3.1
		C376.4,442.2,376.5,440.8,376.7,439.5z"/>
	<path fill="none" d="M697.7,508.9c-1,0.2-1.9-0.3-3-0.5C696.7,507.4,696.7,507.4,697.7,508.9z"/>
	<path fill="none" d="M458.3,492.7c1-0.1,1.5,0.7,2.2,1.2l0.1-0.1C459.5,493.9,458.9,493.4,458.3,492.7L458.3,492.7z"/>
	<path fill="none" d="M440.8,481.4c0.8,0.3,1.7,0.4,2,1.4l0.1-0.1C442,482.6,441.4,482,440.8,481.4L440.8,481.4z"/>
	<path fill="none" d="M377.4,436.7C377.4,436.4,377.4,436.1,377.4,436.7C377.5,436.1,377.4,436.4,377.4,436.7z"/>
	<path fill="none" d="M442.8,482.9c0.6,0,1.2,0,1.5,0.6l0.1-0.1C443.8,483.5,443.2,483.4,442.8,482.9L442.8,482.9z"/>
	<path fill="none" d="M529.7,500.2c0,0.1,0,0.2,0,0.3C529.7,500.5,529.7,500.4,529.7,500.2L529.7,500.2z"/>
	<path fill="none" d="M529.8,500.3c0-0.1,0.1-0.2,0.1-0.3C529.8,500.1,529.8,500.2,529.8,500.3L529.8,500.3z"/>
	<path fill="none" d="M398.8,674c0.3,0,0.4,0.1,0.3,0.3c0,0-0.2,0-0.2-0.1C398.8,674.2,398.9,674,398.8,674L398.8,674z"/>
	<path fill="none" d="M520.7,630.6c0.2-0.4,0.4-0.4,0.7,0l0.1-0.1C521.2,630.5,520.9,630.5,520.7,630.6L520.7,630.6z"/>
	<path fill="none" d="M410.8,418.3c-0.2-0.1-0.3-0.1-0.5-0.2C410.7,417.7,410.6,418.2,410.8,418.3L410.8,418.3z"/>
	<path fill="none" d="M403,427.4c0,0.3,0,0.6,0,0.8C402.7,427.9,402.7,427.7,403,427.4z"/>
	<path fill="none" d="M461.2,494.6c-0.5,0-0.7-0.3-0.7-0.8l-0.1,0.1C460.7,494.2,460.9,494.4,461.2,494.6L461.2,494.6z"/>
	<path fill="none" d="M457.6,491.9c0.5,0,0.7,0.3,0.7,0.8l0.1-0.1C458,492.5,457.6,492.3,457.6,491.9L457.6,491.9z"/>
	<path fill="none" d="M462.5,386.2c0.2,0.1,0.3,0.1,0.5,0.2C462.6,386.8,462.6,386.4,462.5,386.2L462.5,386.2z"/>
	<path fill="none" d="M467.4,387.6c0.5,0,0.7,0.2,0.7,0.7l0.1-0.1C467.7,388.2,467.4,388,467.4,387.6L467.4,387.6z"/>
	<path fill="none" d="M468.1,388.2c0.1,0.1,0.3,0.2,0.2,0.1C468.3,388.4,468.3,388.3,468.1,388.2L468.1,388.2z"/>
	<polygon fill="none" points="440.9,481.4 440.7,481.3 440.8,481.4 	"/>
	<polygon fill="none" points="409.3,391.6 409.2,391.8 409.3,391.7 	"/>
	<path fill="none" d="M585,319.4c-0.4-0.7-0.7-0.9-0.8-1.2c-1.5-4.2-3.1-8.3-4.6-12.5c-1.3-3.4-2.9-6.6-4.7-9.8
		c-2.3-4.1-4.5-8.1-6.5-12.4c-1-2.2-1.9-4.5-2.4-6.9c-1-4-2-7.9-3.1-11.8c-0.6-2.2-1.9-4.3-2.3-6.6c-0.1-0.7-0.2-1.4-0.3-1.8
		c0.4-1,1.2-1,1.9-1.2c5.1-1,10.3-2,15.5-3c7.1-1.3,14.2-2.7,21.4-3.4c5-0.5,10-1,15-1.2c4.8-0.2,9.5-0.6,14.3-1
		c10.2-0.8,20.5-1.2,30.8-0.9c0.6,0,1.2-0.1,1.5,0.7c-0.4,0.9-1.6,0-2,1c0.4,1.2,1.6,1.4,2.7,1.7c3.5,1.2,5.3,1.3,7.3,0.5
		c-0.4-0.9-1.3-0.8-2-1.1c-0.6-0.2-1.3-0.3-1.9-0.5c0.3-0.6,0.8-0.7,1.3-0.8c4-0.6,8.1-1.2,12.1-1.6c3.1-0.3,6.2,0,9.2,1.5
		c2.2,1.1,4.4,2,6.5,3.3c3,1.8,6.2,3.1,9.8,3.7c4.7,0.8,9.3,2,14,3c10.4,2.1,20.8,4.1,31.2,6.2c4.1,0.8,8.2,1.8,12.3,2.6
		c2.7,0.5,5.5,0.9,8.3,1.3c4.9,0.9,9.9,1.2,14.9,1.7c6.3,0.7,12.5,1.9,18.7,2.8c4.7,0.7,9.5,1.3,14.2,1.9c1.4,0.2,2.8,0.3,4-0.9
		c2.3,1.8,4.7,3.1,6.7,5.1c3.2,3.2,3.8,6.3,2.1,10.9c-0.9,2.4-2.8,3.6-4.9,4.8c-1.2,0.7-2.6,1.1-3.2,2.3c-1.2,0.4-2.2,0-3.2-0.2
		c0.2-1.5,2-0.6,2.3-1.8c0-0.7-0.5-1-1-1.2c-1.2-0.5-2.4-0.8-3.7-0.9c-2.3-0.1-4.6-0.2-7-0.6c-1.9-0.3-4-0.2-5.9-0.2
		c-7,0.1-14,0.1-21,0.7c-6.4,0.6-12.8,1.2-19.1,2.4c-0.3,0.1-0.7,0.2-1,0.2c-6.1,0.5-11.9,2.1-17.8,3.4c-4.2,1-8.5,1.3-12.9,0.9
		c-1.2-0.1-2.3-0.1-3.5-0.1c-3.3,0.2-6.5-0.5-9.6-1.6c-5.3-1.9-10.5-3.8-15.8-5.6c-2.5-0.9-5-2.1-7.2-3.5c-2.8-1.8-6-2.5-9.1-3.5
		c-1-0.3-2.1-0.1-3.1,0.1c-3.6,1-7.3,1.5-10.8,2.8c-3.6,1.3-7.4,1.9-11.2,2.9c-6.1,1.6-12.2,3.3-18.2,4.9c-2.4,0.6-4.7,1.3-7.1,2
		c-4.4,1.2-8.7,2.6-13,4.2c-4.9,1.9-9.9,3.4-14.9,5.1c-0.3,0.1-0.7,0.2-1,0.3c-3.5,0.4-6.4,2.1-9.3,3.9
		C593.3,313.3,589.1,316,585,319.4z M825.3,284.2c-2,1.3-0.8,3.6-2,5.1c-2,0.6-4.3-0.2-6.2,1.3c2.8,1.5,5.7,1.1,8.8,0.6
		C826.6,288.8,826.9,286.6,825.3,284.2z M815.3,289c-3-0.6-6.9-0.4-9,0.4C812.7,291,814,291,815.3,289z M697.8,275.2
		c0,0.7,0.6,0.9,1.1,1c2.3,0.5,4.5,1,6.8,1.4c0.7,0.1,1.4,0,2.6-0.1C703.6,276,699.9,275.1,697.8,275.2z M796.9,287.9
		c1.6,1.2,2.1,1.2,3.2,0C799,287.5,797.9,287.3,796.9,287.9z M673.9,253c0.1-0.2,0.2-0.4,0.4-0.6c-0.7-0.7-1.2-1.6-2.5-1
		C672.1,252.6,673,252.7,673.9,253z M695.6,255.4c0.7,0,1.4,0,2.1,0c0.3,0,0.7-0.1,0.8-0.5C697.5,254.3,697.5,254.3,695.6,255.4z
		 M715.1,279.5c1.1,0.4,2.2,0.5,3.3,0C717.4,279.4,716.3,278.9,715.1,279.5z M730.4,281c-0.2-0.3-0.5-0.2-0.7-0.1
		C730,281.2,730.2,281.1,730.4,281z M791.4,287.8c-0.1,0-0.2-0.1-0.3-0.1c-0.2,0-0.3,0.1-0.5,0.2C790.9,288,791.1,288.2,791.4,287.8
		z"/>
	<path fill="none" d="M335.5,206.3c2.2-2.9,4.8-3.8,7.7-3.9c3.7-0.1,7.5-0.2,11.2,0c2.3,0.1,4.6,0.3,7,0.3c3.7,0,7.5,0.1,11.2,0.1
		c5.7,0,11.4,0,17.1,0c2.8,0,5.6,0,8.4,0.3c1,0.1,2.1,0,3.1-0.1c2.9-0.1,5.8-0.7,8.7,0.3c0.7,0.3,1.6,0,2.4,0
		c5.9-0.3,11.6,0.5,17.3,1.9c2.7,0.7,4.9,2,6.5,4.3c0.6,0.9,1.3,1.6,2,2.5c0.5,0.6,1,1.3,1.4,2c2.1,3.8,3.3,7.9,3.7,12.3
		c0.1,1.2,0,2.3-0.4,3.4c-0.5,1.3-0.5,2.7-0.1,4.2c0.6,1.2,1.8,1.7,3,2.2c1.8,0.8,3.7,1.5,5.5,2.3c0.8,0.4,1.8,0.6,2.4,1.2
		c0.4,0.8,0.1,1.4-0.2,2c-1.3,2.8-2.5,5.5-3.8,8.2c-2.5,5.1-4.8,10.4-6.8,15.7c-1.3,3.6-3.5,6.6-5.7,9.6c-2.8,3.7-5.6,7.4-8.3,11.2
		c-1.6,2.3-3.6,4.3-5.5,6.4c-0.6,0.7-1.3,1.4-1.9,2c-3.6,3.7-7.2,7.4-9.7,11.9c-1.3,0.1-2.4-0.4-3.5-0.8
		c-10.5-3.7-20.3-8.9-29.3-15.3c-4.7-3.3-9.5-6.4-14.6-9c-0.4-0.2-0.8-0.5-1.1-0.7c0-0.6,0.4-0.8,0.8-1c6.2-2.2,11.2-6.1,15.3-11.2
		c1-1.2,1.9-2.4,3-3.4c1.8-1.5,3.3-3.3,4.5-5.3c3.3-5,6-10.2,7.5-16.1c0.8-3.4,1.7-6.8,2.6-10.2c1.3-5,0.7-9.9-0.6-14.8
		c-0.8-3-2.6-5.1-5.4-6.5c-3.7-1.9-7.5-3.2-11.5-4.2c-1.7-0.4-3.3-0.7-4.8-1.8c-1.5-1-3.5-1.3-5.3-1.6c-5.5-1-11.1-1.8-16.7-1.8
		c-3.6,0-7.2,0-10.7,1.3C340,205.1,338.1,205.6,335.5,206.3z M439.7,241.2c0.5,0,0.7-0.2,0.8-0.6c2.1-1.5,2.1-1.6,2.5-3.9
		c-1,1.4-2.2,2.4-2.4,4C440.2,240.7,439.9,240.9,439.7,241.2c-0.2,0.3-0.2,0.4,0,0.3C439.8,241.5,439.7,241.3,439.7,241.2z
		 M441,226.5c0.1-1.5,0.4-2.7,0.1-4c-0.1-0.5-0.3-1.1-1.2-1c0,2.5,0,5,0,7.7c-2.3,3.9-4.5,8-7.5,11.6c-1.9,0.5-3.7,0.9-5.5,1.4
		c-1.7,0.5-3.6,0.5-5.1,2.3c2,0.8,3.8,0.7,5.6,0.1c2-0.7,3.9-1.6,5.8-2.3c2.3-0.8,4-2.3,5.3-4.3c1.5-2.3,2.4-4.8,3.3-7.3
		c0.2-0.8,0.4-1.6,0.1-2.5C441.7,227.6,441.4,227.1,441,226.5z M412.5,245.4c1.7,1.1,1.7,1.1,2.7-0.1
		C414.4,244.6,413.6,244.7,412.5,245.4z M406.7,245.1c0,0.1,0,0.2,0.1,0.2s0.2,0.1,0.3,0c0.3-0.1,0.2-0.2-0.1-0.3
		C406.9,245,406.8,245.1,406.7,245.1z"/>
	<path fill="none" d="M500.8,324.8c-3.2-1.9-6.3-3-9.6-4c-2.1-0.7-4.2-1.5-6.2-2.3c-5-2.1-10.3-2.8-15.6-3.6
		c-7.7-1.1-15.5-1.9-23.3-2.4c-5.5-0.3-10.9-1.4-16.3-2.2c-3.3-0.5-6.7-0.9-9.9-2.3c-1.9,1-3.6,0.2-5.4-0.3c-0.4-1,0.3-1.6,0.8-2.2
		c2.6-3.5,5.5-6.6,8.6-9.7c2.8-2.9,5.7-5.8,8.1-9.1c2-2.8,4.2-5.3,6.4-7.9c3.4-3.9,6.2-8.1,7.6-13.2c0.2-0.9,0.7-1.7,1.1-2.6
		c2.1-4.7,4.3-9.3,6.4-14c0.9-2.1,1.7-4.3,2.5-6.5c0.2-0.5,0.2-1.2,0.8-1.5c0.7-0.2,1.3,0.2,1.9,0.5c3.2,1.2,6.3,2.5,9.5,3.6
		c3.4,1.1,7,1.9,10.4,2.9c2.1,0.6,4.2,1.4,6.3,2.1c0.2,0.1,0.5,0.1,0.6,0.3c4.1,2.8,9,3,13.4,4.6c1.8,0.7,3.8,1.1,5.5,2
		c1.1,0.6,2.3,1,3.6,1.5c0.2,2.1,0.4,4.2,0.7,6.3c-2.1,0.9-4.5,0.8-6.3,2.1c0.2,0.2,0.3,0.5,0.4,0.5c2,0,3.9,0,5.7,0
		c0.7,0.5,0.6,1.2,0.6,1.7c0,2.4-0.1,4.9-0.2,7.3c-0.2,6.4-0.4,12.8-0.6,19.2c-0.1,3.4,0,6.8-0.5,10.1c-0.1,1.2-0.4,2.3-1,3.3
		c-1.5,2.9-2.5,6-3.4,9.2C502.9,320.5,502.2,322.7,500.8,324.8z M431.6,291.4c0.9,1.2,1,1.3,1.5,1.3c1.9,0.3,4.2-0.2,6.2-1.6
		c-1.3-0.1-2.4-0.2-3.6-0.3c-1.1-0.1-2.3-0.7-3.5-0.2C432,290.8,431.8,291.1,431.6,291.4z M446.3,301.3c-2.5-0.2-2.5-0.2-3.6,1.1
		C444.3,303.3,445.2,302.1,446.3,301.3z M437.3,303.4c0.1-0.5-0.1-0.7-0.6-0.9c-1.1,0.4-2.5,0.4-3.8,1.6
		C434.6,304.2,436,304.1,437.3,303.4z M492.8,269c1.2,0.2,2,0.3,2.8-0.8C494,268,494,268,492.8,269z M446.6,289.9
		c-1.1-0.4-2-0.5-2.7,0.6C445.1,291.3,445.8,290.7,446.6,289.9z M444.7,276.6c-0.2-0.1-0.4-0.2-0.6-0.2s-0.5,0.1-0.6,0.2
		s0,0.5,0.1,0.6s0.4,0.1,0.6,0.1C444.5,277.1,444.8,277,444.7,276.6z"/>
	<path fill="none" d="M510.6,258.7c2.2,0.4,3.7,0.8,5.1,1.7c1.4,1,2.9,1.3,4.6,1.4c8,0.8,15.8,0,23.5-2.1c3-0.8,6.1-1.7,9.1-2.5
		c1.2-0.3,2.5-0.7,3.6-0.6c0.8,0.4,0.8,0.9,0.9,1.5c0.1,0.8,0.3,1.6,0.5,2.4c1.7,6.1,3.2,12.2,5,18.2c1.7,5.8,4.7,11.2,7.6,16.5
		c1.5,2.7,2.9,5.3,4.4,7.9c3.1,5.3,4.9,11,6.6,16.9c0.1,0.3,0.1,0.7,0.1,1c-0.7,1.2-1.9,1.7-3,2.3c-3.2,1.6-6.5,3.2-9.7,4.7
		c-0.9,0.4-2,0.6-3,0.8c-4,0.8-8.1,1.2-12,2.4c-1.2,0.4-2.5,0.4-3.8,0.2c-5.7-0.7-11.4-0.4-17.1-0.4c-5.6,0-11.2,0-16.8-0.1
		c-4.2-0.1-8.3-1.1-12.1-3c-0.4-0.2-0.8-0.5-1.1-0.7c0-0.4-0.1-0.6,0-0.8c1.5-2.8,2.5-5.7,3.5-8.8c0.9-2.8,1.8-5.6,3.2-8.1
		c0.8-1.3,1.1-2.8,1.3-4.3c0.2-1.3,0.3-2.6,0.3-3.8c0.2-8.3,0.4-16.5,0.6-24.8c0.1-2.6,0.2-5.1,0.2-7.7
		C512.3,265.7,512.5,262.2,510.6,258.7z"/>
	<path fill="none" d="M864.1,258.2c0.9,0,1.9,0.1,2.8,0.1c0.9,0,1.6-0.3,2.1-1.1c0.1-1.2-1.2-0.8-1.7-1.3c0.1-0.2,0.1-0.5,0.2-0.6
		c1.6-1.3,3.3-2.6,4.9-4c2.3-1.9,4-4.2,5.4-6.8c0.7-1.2,0.6-1.2,2.6-2.3c2.9,0.3,5.8,1,8.6,2.2c2,3.3,3.2,6.8,3.9,10.5
		c0.3,1.6,0.2,3.3-0.1,4.9c-0.9,4.3-1.8,8.7-2.8,13c-0.2,0.8-0.5,1.6-1,2.2c-3.6,4.2-6.8,8.9-11.2,12.4c-0.4,0.3-0.7,0.6-1.1,0.9
		c-1.4,1.2-3,2.1-4.9,2.4c-3.7,0.6-6.8,2.3-9.2,5.3c-0.6,0.8-1.5,1.5-2.2,2.2c-2,1.9-3.4,4.1-3.8,6.9c-0.3,1.7-1.1,3-2,4.4
		c-2.1,3.6-5,6.3-8.4,8.7c-2.3,1.6-4.4,3.4-6.5,5.1c-0.7-0.2-0.9-0.6-1-1c-0.6-1.3-1.6-1.9-2.8-2.4s-2.4-0.9-3.6-1.4
		c-1.6-0.7-2.7-1.8-3-3.6c-0.2-1.5-1-2.6-1.9-3.7c-1.4-1.9-3-3.6-4.8-5.1c-1.3-1.1-2.3-2.3-2.9-3.9c-0.5-1.3-1.2-2.4-2-3.8
		c1.8,0,3.5,0.6,5.3-0.1c1.4-2.2,4.1-3.2,6.4-4.8c2.5-1.7,3.4-4,3.9-6.7c0.5-2.8-0.1-5.4-1.8-7.6c-0.8-1-1.6-2-2.7-2.8
		c-2.6-1.9-4.5-4.4-7-6.3c-0.3-0.3-0.5-0.7-1.1-1.4c3.4,0.8,6.1,0.1,8.7-1.3c0.6-0.3,1.3-0.5,2-0.7c2.6-0.7,5.1-1.8,7.5-2.9
		c1.3,0.8,2,2,3,3c1.2,1.2,2.5,2.5,3.7,3.7c0.4,0.4,0.8,0.4,1.4,0.2c1-3-0.7-5.2-2.5-7.2c0.5-1,1.2-0.9,2-0.8
		c1.4,0.9,2.6,2.2,3.8,3.4c1.1,1,2.2,1.8,3.9,1c1.7-2.3-0.7-3.7-1.3-5.4c0.4-0.5,0.8-0.6,1.6-0.5c1.6,0.5,3.1,3.1,5.3,1.7
		c1.1-0.9,0.5-1.9,0.9-2.6l-0.1,0.1c0.6,0,1.1,0.2,1.6,0.1C863.6,260.2,864,259.8,864.1,258.2L864.1,258.2z"/>
	<path fill="none" d="M453.3,316.6c-0.1,0.5-0.5,0.8-1,0.9c-0.8,0.1-1.6,0.1-2.4-0.1c-1.9-0.4-3.7-0.5-5.3,0.2
		c-4.8-1.1-9.4-1.7-14.1-0.7c-2.6,0.6-5.4,0.3-8,0c-2.7-0.3-5.3-1.2-6.9-3.6c-0.6-0.9-1.4-1.2-2.5-1.4c-0.8,0.2-1.8,0.5-2.8,0.5
		c-0.9,0-1.8-0.2-2.8-0.4c-2.3-0.5-4.6-0.9-6.8-1.5c-1.7-0.4-3.4-0.8-4.8-2c-0.8-0.6-1.9-1-2.9-1.2c-2.7-0.7-5.4-1.3-8.2-1.6
		c-3.9-0.5-7.9-1-11.8-1.6c-1-0.2-2-0.6-3-1c-1.7-0.7-3.4-1.5-5.1-2.3c-2.7-1.2-5.4-2.2-8.3-2.7c-0.6-0.1-1.2-0.2-1.8-0.8
		c0.5-5.4,2.8-10.3,4.8-15.2c0.8-0.4,1.3,0,1.8,0.3c4,2.2,7.8,4.7,11.4,7.4c6.2,4.5,12.5,8.9,19.3,12.6c5.6,3.1,11.5,5.6,17.8,7.1
		c3.6,0.8,7.2,1.9,10.9,2.6c3.1,0.6,6.2,0.8,9.4,1.2c4.7,0.6,9.5,1.3,14.2,1.9c2.4,0.3,4.9,0.5,7.3,0.8
		C452.2,316.2,452.8,316.1,453.3,316.6z"/>
	<path fill="none" d="M875.3,245.2c-2,2.9-4.6,4.8-7.2,6.9c-4.8,3.8-10.3,5.7-16.3,6.7c-2.5,0.4-5,0.6-7.7,0.9
		c-0.8-1.3-1.5-2.5-2.3-3.7c0.6-0.7,1.1-1.2,2.1-1.2c1.3,1.4,2.8,3,5.2,1.7c0.2-1.4-1.2-2-1.4-2.9c0.4-0.8,0.9-0.9,1.6-1
		c1.4,1.1,2.8,2.9,5,1.1c-0.1-1.4-1.7-1.7-2-2.8c4.3-4.6,4.3-4.6,7.6-10.8c0.6-1,1.1-2,1.7-3.1c0.8-1.5,1.9-2.6,3.5-3.4
		c3,0,5.2,1.7,6.8,4.1C873.4,240,874.6,242.3,875.3,245.2z M855.4,249.4c1.5,1,1.5,1,2.5,0.9c0.6,0,1.1-0.2,1.3-0.9
		c-1.1-1.2-1.3-1.3-2.1-1.3C856.3,248.2,855.6,248.4,855.4,249.4z"/>
	<path fill="none" d="M568,250.5c0.2-0.8,1-0.9,1.6-1.1c6.9-2.5,13.9-4.4,21.4-4.8c6.2-0.3,12.3-0.4,18.5-0.6
		c4.8-0.2,9.5-0.4,14.4-0.2c-1.6,1-3.4,1-5.1,1c-4.1,0.1-8.1,0.3-12.2,0.5c-9.1,0.4-18.1,1.8-27,3.4c-2.7,0.5-5.5,1-8.2,1.5
		C570.3,250.4,569.1,250.6,568,250.5L568,250.5z"/>
	<path fill="none" d="M817.3,270.7c-0.6-1.6-1.7-2.8-2.6-4.2c2.4-1.1,4.6-2,7-2.3c1.9-0.3,3.6-0.8,5.3-1.7c1.4-0.7,2.9-1.4,4.4-1.6
		c0.9,0.4,1.5,1,1.9,1.7c-0.1,0.2-0.1,0.5-0.3,0.6c-1.7,1.4-3.9,2.1-5.8,3.1c-0.4,0.2-0.9,0.3-1.4,0.3c-2.4,0.1-4.9,0.2-7.4,0.3
		c-0.9,1.3,0.5,2.3,0.5,3.5C818.6,270.9,818.2,270.8,817.3,270.7z"/>
	<path fill="none" d="M371.8,104.8c2.6-0.1,4.6,1.3,6.5,2.8c0.8,0.6,1.6,1.3,2.4,2c-0.3,0.3-0.4,0.4-0.5,0.4s-0.2,0-0.3-0.1
		C377.2,108.3,374.6,106.5,371.8,104.8L371.8,104.8z"/>
	<path fill="none" d="M835,259.5c1-0.9,1.8-1.2,2.7-1.3c0.9,0.3,1.5,1,1.9,1.8c-0.6,1.1-1.7,0.9-2.6,1.1
		C836.1,260.9,835.8,260.1,835,259.5z"/>
	<path fill="none" d="M666,243.7c-2.4,1.5-3.9,1-5.6,0C662.1,243.7,663.7,243.7,666,243.7z"/>
	<path fill="none" d="M809.8,269.6c0.7-1,1.5-1.1,2.2-1.2c0.6,0.3,0.9,0.7,1.1,1.2C811.9,270,811.9,270,809.8,269.6z"/>
	<path fill="none" d="M296.2,178.3c0.2,0.2,0.5,0.4,0.2,0.9C296.4,178.8,296.4,178.5,296.2,178.3L296.2,178.3z"/>
	<path fill="none" d="M568,250.4c-0.2,0.3-0.3,0.5-0.8,0.3C567.5,250.6,567.8,250.5,568,250.4L568,250.4z"/>
	<polygon fill="none" points="322.1,120.1 322.1,120.3 322.2,120.2 	"/>
	<path fill="none" d="M308.1,145.3c0,0.1,0,0.2-0.1,0.3C308.1,145.5,308.2,145.5,308.1,145.3L308.1,145.3z"/>
	<path fill="none" d="M864.2,258.1c-0.3,0-0.4-0.1-0.3-0.3c0,0,0.2,0,0.2,0.1C864.2,258,864.1,258.1,864.2,258.1L864.2,258.1z"/>
	<path fill="none" d="M860.8,260.1c-0.1,0-0.2,0-0.3,0C860.6,260.2,860.7,260.2,860.8,260.1L860.8,260.1z"/>
	<path fill="none" d="M341.1,153.7c-1.1,2.1-0.7,4.3,0,6.4C338.7,157.5,338.7,156.3,341.1,153.7z"/>
	<path fill="none" d="M346.7,152.4c-1.2,0-1.6-1.2-2.6-1.5c-0.7-0.2-1.1,0.5-1.7,0.8c0.2-0.7,0.4-1.3,1.2-1.9
		C344.8,150.5,346.2,150.9,346.7,152.4z"/>
	<path fill="none" d="M342.5,151.6c0,0.6-0.3,1.1-0.8,1.5C341.9,152.6,341.9,151.9,342.5,151.6z"/>
	<path fill="none" d="M341,160c0.4,0.1,0.7,0.4,0.8,0.8C341.4,160.7,341.2,160.4,341,160z"/>
	<path fill="none" d="M341.8,153.1c-0.3,0.3-0.5,0.5-0.8,0.8C341.3,153.6,341.6,153.3,341.8,153.1z"/>
	<path fill="none" d="M423.4,428.1c-0.3,1.9-0.2,3.8,0,5.7c-0.4-0.7-1-1.3-1.2-2.1C421.8,430.3,421.9,428.9,423.4,428.1z"/>
	<path fill="none" d="M426.1,424.6c-0.1,0.6-0.1,1.2-0.8,1.5C425.4,425.5,425.8,425,426.1,424.6z"/>
	<path fill="none" d="M423.3,433.7c0.5,0,0.7,0.4,0.8,0.8C423.6,434.4,423.4,434.1,423.3,433.7z"/>
	<path fill="none" d="M424.1,427.4c-0.2,0.4-0.4,0.7-0.8,0.8C423.5,427.9,423.8,427.7,424.1,427.4z"/>
	<path fill="none" d="M424.8,426.7c-0.3,0.3-0.5,0.5-0.8,0.8C424.2,427.2,424.5,427,424.8,426.7z"/>
	<path fill="none" d="M425.5,426c-0.3,0.3-0.5,0.5-0.8,0.8C424.8,426.4,425.1,426.1,425.5,426z"/>
	<path fill="none" d="M344.9,159c0.2,0.4,0.4,1,0.6,1.5c-0.2,0-0.5,0.2-0.6,0.1c-1.7-0.8-3.3-1.8-3.2-4.2c0.5-1.3,1.4-2.4,2.8-3.3
		c0.7,1.4-1,1.6-0.9,2.5c1,0.4,1.6-0.6,2.5-0.6c0.8,0.1,1.1,0.7,1.5,1.3C347.1,157.3,345.6,157.4,344.9,159z"/>
	<path fill="none" d="M427.6,434.4c-2.1-0.4-3-1.9-3.4-3.9c0.5-1.6,1.9-2.2,2.8-3.3c0.5,0,0.8,0.1,0.9,0.7c-0.4,0.3-1,0.7-1.5,1.2
		c1.1,1,1.9-0.3,2.7,0c0.7,0.3,1,0.9,1.2,1.5c-0.6,1-2,0.9-2.4,1.7C427.2,433.1,427.6,433.8,427.6,434.4L427.6,434.4z"/>
	<path fill="none" d="M427.5,434.5c0.1,0,0.2,0.1,0.3,0.1C427.7,434.8,427.6,434.7,427.5,434.5L427.5,434.5z"/>
	<path fill="none" d="M464.6,427.4c0.4-1,1.3-1.3,2.2-1.3c0.4,0.8,0.4,0.8,0,1.8C465.9,428.3,465.3,427.7,464.6,427.4L464.6,427.4z"
		/>
	<path fill="none" d="M445.7,406.4c0,0.1,0,0.2-0.1,0.3C445.7,406.6,445.7,406.5,445.7,406.4L445.7,406.4z"/>
	<path fill="none" d="M461.2,394.5c-0.3,0-0.4-0.1-0.4-0.3h0.2C461.1,394.4,461.1,394.5,461.2,394.5L461.2,394.5z"/>
	<path fill="none" d="M360,130.6C359.8,130.9,359.9,130.8,360,130.6L360,130.6z"/>
	<path d="M506.2,598.2c0.6-1.3,1.1-2.1,1.8-2.6c0.4,0.2,0.5,0.4,0.4,0.6C508,597,507.5,597.8,506.2,598.2z"/>
	<path d="M505.2,583.6c-0.1,0.1-0.1,0.2-0.2,0.4c0-0.1,0-0.2,0-0.2C505.1,583.7,505.2,583.7,505.2,583.6L505.2,583.6z"/>
	<path d="M505.3,583.7c0.1-0.2,0.2-0.3,0.3-0.5C505.9,583.7,505.5,583.5,505.3,583.7L505.3,583.7z"/>
	<path d="M520.6,630.5c0.3,0,0.5,0,0.8,0c-0.4,1.4-0.1,2.7,0.2,4.1c1.4,6,3,11.9,4.9,17.8c0.4,1.3,0.8,2.6,1.3,4.4
		c-2-2.3-3.4-6-5.1-13C521.7,639.5,520.6,635.1,520.6,630.5z"/>
	<path d="M522,623.5c0.1,0.1,0.3,0.3,0.4,0.4c0.1,0.1,0,0.2,0,0.4C522,624.2,522.2,623.8,522,623.5L522,623.5z"/>
	<path d="M743.6,489.6c-1.2,0.6-2.3,0.6-3.5-0.1c-0.3-1.1,0.2-1.6,1.1-1.7C742.5,487.7,743,488.1,743.6,489.6z"/>
	<path d="M825.3,284.2c1.5,2.3,1.3,4.6,0.5,7.1c-3,0.5-5.9,0.9-8.8-0.6c1.9-1.6,4.3-0.8,6.2-1.3
		C824.5,287.8,823.3,285.5,825.3,284.2z"/>
	<path d="M815.3,289c-1.3,1.9-2.6,1.9-9,0.4C808.4,288.6,812.3,288.4,815.3,289z"/>
	<path d="M697.8,275.2c2.1-0.1,5.8,0.7,10.6,2.3c-1.2,0.1-1.9,0.2-2.6,0.1c-2.3-0.4-4.5-0.9-6.8-1.4
		C698.4,276.1,697.8,275.9,697.8,275.2z"/>
	<path d="M796.9,287.9c1.1-0.6,2.1-0.5,3.2,0C799,289.2,798.5,289.2,796.9,287.9z"/>
	<path d="M673.9,253c-0.9-0.2-1.8-0.4-2.1-1.6c1.2-0.6,1.8,0.3,2.5,1C674.1,252.6,674,252.8,673.9,253z"/>
	<path d="M695.6,255.4c1.8-1.1,1.8-1.1,2.8-0.5c-0.1,0.4-0.5,0.5-0.8,0.5C697,255.4,696.3,255.4,695.6,255.4z"/>
	<path d="M715.1,279.5c1.2-0.6,2.2-0.1,3.3,0C717.3,280,716.2,279.9,715.1,279.5z"/>
	<path d="M730.4,281c-0.2,0.1-0.5,0.2-0.7-0.1C730,280.8,730.2,280.6,730.4,281z"/>
	<path d="M791.4,287.8c-0.2,0.4-0.5,0.2-0.8,0.1c0.2-0.1,0.3-0.2,0.5-0.2C791.2,287.7,791.3,287.8,791.4,287.8z"/>
	<path d="M441,226.5c0.4,0.7,0.7,1.1,1,1.6c0.3,0.9,0.2,1.7-0.1,2.5c-0.8,2.6-1.8,5-3.3,7.3c-1.3,2-3,3.5-5.3,4.3
		c-2,0.7-3.9,1.6-5.8,2.3c-1.8,0.6-3.6,0.7-5.6-0.1c1.5-1.7,3.4-1.7,5.1-2.3c1.8-0.6,3.6-1,5.5-1.4c2.9-3.6,5.1-7.7,7.5-11.6
		c0-2.6,0-5.1,0-7.7c0.8-0.1,1,0.5,1.2,1C441.4,223.7,441.1,225,441,226.5z"/>
	<path d="M440.6,240.7c0.2-1.6,1.4-2.6,2.4-4C442.6,239,442.5,239.1,440.6,240.7L440.6,240.7z"/>
	<path d="M412.5,245.4c1.1-0.6,1.9-0.8,2.7-0.1C414.2,246.4,414.2,246.4,412.5,245.4z"/>
	<path d="M406.7,245.1c0.1,0,0.2-0.1,0.3-0.1c0.3,0.1,0.3,0.2,0.1,0.3c-0.1,0-0.2,0-0.3,0C406.7,245.3,406.7,245.2,406.7,245.1z"/>
	<path d="M440.5,240.6c0,0.5-0.3,0.7-0.8,0.6l0.1,0.1C439.9,240.9,440.2,240.7,440.5,240.6L440.5,240.6z"/>
	<path d="M439.7,241.2c0,0.1,0,0.3,0,0.3C439.5,241.6,439.5,241.5,439.7,241.2L439.7,241.2z"/>
	<path d="M431.6,291.4c0.2-0.3,0.4-0.5,0.6-0.8c1.2-0.5,2.3,0.1,3.5,0.2c1.1,0.1,2.3,0.2,3.6,0.3c-2,1.4-4.3,1.9-6.2,1.6
		C432.6,292.6,432.5,292.5,431.6,291.4z"/>
	<path d="M446.3,301.3c-1,0.8-2,2-3.6,1.1C443.8,301.2,443.8,301.2,446.3,301.3z"/>
	<path d="M437.3,303.4c-1.3,0.7-2.7,0.8-4.4,0.7c1.3-1.2,2.7-1.2,3.8-1.6C437.2,302.7,437.4,303,437.3,303.4z"/>
	<path d="M492.8,269c1.3-0.9,1.3-0.9,2.8-0.8C494.8,269.2,493.9,269.1,492.8,269z"/>
	<path d="M446.6,289.9c-0.8,0.8-1.5,1.5-2.7,0.6C444.6,289.3,445.5,289.4,446.6,289.9z"/>
	<path d="M444.7,276.6c0,0.4-0.2,0.6-0.6,0.7c-0.2,0.1-0.5,0-0.6-0.1s-0.2-0.5-0.1-0.6c0.1-0.2,0.4-0.2,0.6-0.2
		C444.3,276.3,444.5,276.5,444.7,276.6z"/>
	<path d="M855.4,249.4c0.3-1.1,0.9-1.2,1.6-1.3c0.9,0,1,0.1,2.1,1.3c-0.2,0.6-0.7,0.8-1.3,0.9C856.8,250.4,856.8,250.4,855.4,249.4z
		"/>
</g>
</svg>
