<?xml version="1.0" encoding="utf-8"?>
<!-- Generator: Adobe Illustrator 19.1.0, SVG Export Plug-In . SVG Version: 6.00 Build 0)  -->
<svg version="1.2" baseProfile="tiny" id="Layer_2" xmlns="http://www.w3.org/2000/svg" xmlns:xlink="http://www.w3.org/1999/xlink"
	 x="0px" y="0px" width="900px" height="600px" viewBox="144 97 900 600" xml:space="preserve">
<g>
	<path d="M564.7,594.3c-0.2,0.4-0.2,0.8,0.1,1.2c1.6,2.9,3.1,5.8,4.7,8.7c0.7,0.7,1.7,0.8,2.6,1.1c3.9,1,7.3,2.9,10.6,5
		c0.9,0.6,1.6,1.3,2.7,0.5c0.8,1.3-0.5,2.3,0.1,3.1c-0.7,0.9-1.3,0.3-2.1,0.3c-1.3,2.3-3.7,3.7-5.7,5.3c-2.4,1.9-4.5,4.1-6.2,6.8
		c-2.9,4.7-5.6,9.5-6.9,15c-0.8,3.4-2.1,6.7-3.3,10c-1,2.9-3.3,4.7-6,5.9c-1,0.5-2,0.2-3.1-0.2c-7.5-2.8-12-7.8-13.5-15.9
		c-0.9-5.2-2.3-10.4-2.7-15.7c-0.3-3.4-0.4-6.8,0.3-10.2c0.5-2.2,1.6-4.1,2.1-6.3c0.6-3.1,0.8-6.1,0.2-9.2
		c-1.4-7.4-0.2-14.7,2.4-21.6c1-2.7,3.1-5.2,5.4-7.4c-3.8,0.5-7.4,1.2-11.1,0.7c-1.7-0.2-3.4-0.3-5.1-0.7c-3.4-0.7-6.7-0.2-9.5,1.6
		c-6,3.9-12.9,5.5-19.6,7.5c-11.1,3.4-21.8,7.9-32.6,12.2c-3.3,1.3-6.8,2.5-10,4.9c-1,4.1-4.1,7.4-7.1,10.4c-2,2.1-4.1,4.3-6.2,6.4
		c-0.6,0.6-1.3,1.2-1.6,2c-1.6,4.1-2.4,8.4-2.1,12.8c0.1,1,0.7,1.7,1.4,2.4c3.5,3.8,2.4,9.1-2.5,11.4c0.2-1.6,0.9-2.9,1.5-4.2
		c1-2.2,1.1-4.3-0.9-6.1c-1.1-1-1.5-2.3-1.5-3.7c-2.8-1.3-2.8-1.3-6.5-7.6c2.3-0.1,4,2.1,6.3,1.4c0.4-0.4,0.5-0.9,0.3-1.5
		c-1.1-0.8-3,0.2-4-1.5c1-2,3.2-1.1,4.7-1.7c0.3-0.3,0.5-0.7,0.4-1.3c-1.5-0.7-3.7-0.3-4.8-2.1c-0.2-1.4,1.4-1.3,1.7-2.3
		c-0.5-0.7-1.7-0.8-1.9-2.1c0-0.7,0.5-1.3,1.3-1.3c2.3,0.2,4.7,0.1,6.6,1.8c-0.6,2.3-2.6,1.4-4.2,2c1,0.4,1.8,0.7,2.6,1
		c2-1.1,3.1-2.9,4.5-4.7c-3.4-0.9-7.3,0-9.6-3.7c2.5-1.4,4.6,0,6.7,0.1s4.2,0.7,6.5,0.4c1.4-1.2,2.3-2.8,3.9-4.9
		c-5.7,2.2-10.8,2.3-16.1,0.9c-0.9-1.8-2.7-3-3.8-4.4c-0.3-0.6-0.2-0.9,0-1.1c0.2-0.2,0.4-0.4,0.8-0.8c-0.6-1.7-0.8-3.6-1.1-5.5
		c-0.5-3,0.5-5.2,2.7-7c1.5-1.2,3-2.4,4.4-3.7c0.8-0.8,1.5-1.8,2.5-3c4.9-2.2,10.1-4.5,15.4-6.8c2.8-1.2,5.2-2.8,7.5-4.8
		c7-6.3,15.2-10.5,23.7-14.2c1.2-0.5,2.2-1.2,3.3-1.9c5.6-3.5,11.6-5.3,18.2-5.2c2.9,0,5.7-0.7,8.5-1.2c3.5-0.6,6.9-0.9,10.5-1.2
		c4.4-0.4,8.6-1.7,12.6-3.5c12.3-5.5,24.6-11.1,37.8-14.9c0.5-3.1,0.2-6.3,0.6-9.5c1.2-9.6,4.8-18.1,11-25.4c1.8-2.2,4.1-4,6.6-5.5
		c2.5-1.6,4.9-3.5,7.6-4.7c9.4-4.2,19.2-6.1,29.6-4.5c1.9,0.3,3.8,0.3,5.7,0.5c1,0.1,1.9,0,2.9,0.2c9.1,1.8,17.9,1.5,26.6-2.2
		c2.3-1,4.8-1.7,7.3-2.2c0.4-0.1,0.9-0.1,1.2-0.3c8.3-4.5,17.4-7.2,26.4-10c6.1-1.9,12.2-3.7,18.6-4.4c1.5-0.2,2.9-0.8,4.4-1
		c1.7-0.2,3.4-0.7,5,0.1c0.5,0.2,1.1,0.2,1.6,0.1c7-1.7,12.6,1.9,18.4,4.6c0.2,0.1,0.4,0.2,0.7,0.3c2.5-0.8,5.2-1.5,6.7-2.9
		c2.2-2.6,1.5-5.6,3.5-7.4l-0.1-0.1c0.1,0.9-0.2,1.7-0.4,2.5c-0.3,1-0.3,1.9,0.5,2.7c-0.8,0.3-1.4,0.8-1.1,1.9c1-0.5,1.3-1.1,1-2
		c0.9,0.1,1.3-0.4,1.7-1.2c1.5-3.5,4-6.5,5.9-9.8c0.8-1.4,2.2-2.3,3-3.7c1.3-2.2,2.9-4.2,3.6-6.7c0.2-0.6,0.6-1.1,1-1.6
		c2.3-2.8,4.3-5.8,7-8.3c-2.3-3.8,0.4-7,1.6-10.7c-3.1,2.7-3.3,6.1-4,9.4c-0.9-2.4-0.8-4.8,0.3-7c0.7-1.5,1.6-3,2.5-4.4
		c2.2-3.3,5.1-5.6,9.1-6.5s7.4,0.1,10.3,2.9c1.7,1.7,3.3,3.6,4.8,5.5c0.8,1,1.3,2.2,1.4,3.5c0,0.7-0.1,1.3-0.9,1.5
		c-0.8-0.2-0.8-0.9-1-1.5c-1-3.1-3-5.7-5.3-7.8c-2.4-2.2-5.6-3.1-9-2c-1.3,0.4-2.3,1.2-3.2,2.3c-2.1,2.7-3.9,5.5-5.1,8.8
		c-0.5,1.5-1,3-0.5,4.9c1.1-0.3,2-0.6,3.2-1c-0.7-2.6-0.8-5.2,0.7-7.6c0.8-1.2,1.7-2.4,3.3-2.7c-2.4,2.8-4.4,5.7-2.6,9.8
		c2.1-1.5,0.5-4.4,2.7-5.6c0.4,1.4-0.9,2.6-0.6,4.2c1.2,0.3,1.7-0.8,2.5-1.1c1-2.1-0.4-3.3-1.3-4.7c2,0.6,2.6,2.2,2.9,3.8
		c0.8,0.3,1.2,0,1.6-0.4c-0.2-4.7-0.9-5.9-5.2-8.7c2.5-0.4,3.7,1.2,4.8,2.6c1.4,1.8,1.4,4,1.6,6c2.3,1,4.6,1,6.9,1.2
		c0.9-0.5,0.2-1.6,0.9-2.3c0.1,0.8,0.1,1.5,0.2,2.3c2.1,0.5,4.2,1,6.2,1.6c3.1,1,5.8,2.7,7.6,5.5c1.2,1.8,3,2.9,4.4,4.6
		c4.5,5.7,7.1,12.1,7.9,19.2c0.3,2.8,0.5,5.5,1.5,8.1c0.4,1.1,0.2,2.1-0.1,3.1c-0.8,4-2.4,7.6-4.3,11.2c-2.3,4.3-4.7,8.6-7.6,12.6
		c-1.9,2.6-4.6,4.1-6.9,6.1c-0.7,0.6-1.6,0.5-2.4,0.5c-0.9,0-1.9-0.4-3.2,0.3c-1,10.8-0.2,21.4,6.8,31.5c-2-1-2.4-3-4.2-2.7
		c-0.8-1.3-1.5-2.5-2.6-4.4c0,3.4,2.1,4.9,3.8,7c-4.9-2.1-9.3-9.4-11.7-19.2c-1.1,0.2-2.2-0.3-3.3-0.4c-0.5,2.6-0.3,3.7,1.1,7
		c0.8-1.7,0-3.5,1.4-5.4c0.7,5-1,9.7,2,14.1c-4.1-2.1-6-7.2-6.3-16.2c-0.2-0.2-0.5-0.4-0.8-0.5c-0.7-0.1-1.2,0.3-1.6,1
		c1.5,1.1,1.1,2.8,1.4,4.4c0.4,1.6,0.8,3.3,1.2,5.2c-2-2.2-2-2.2-3.5-8c-1.2-0.2-2.4-0.4-3.6-0.6c-1.1,0.6-1,2.1-1.4,2.2
		c-0.8,0.4-1,0.5-1.2,0.5c-1.9,0.3-3.8-0.2-5.8,0.5c-2.5,0.9-5.3,0.4-7.5-1.5c-0.3-0.3-0.7-0.4-1.1-0.6c-0.5,0.7-0.3,1.5-0.4,2.2
		c-0.3,4.8-0.7,9.5-2,14.2c-1,3.4-1.2,7-1.1,10.5c0.2,7.4-0.9,14.7-1.4,22c-0.3,3.6,0.1,7.2-0.1,10.8c0,0.8,0.4,1.4,0.7,2.1
		c3.2,6.3,6,12.7,7.6,19.6c0.3,1.2,0.6,2.5,0.8,3.8c0.4,2.7,0.7,5.5,1.4,8.2s0.8,5.5,0.7,8.3c-0.4,10.7,0.9,21.2,3.6,31.6
		c0.6,2.4,1,4.8,1.9,7.4c5.1,3.2,10.7,6,17.3,5.6c1.4,1.2,2.6,2.7,4.7,2.1c3,1.9,6.8,1.7,9.9,3.5c0.9,0.5,2,0.7,3,0.9
		c2.9,0.6,5.8,1.5,8.5,2.6c1.3,2.4,1.3,2.4,0.1,4.2c-1,0.6-2.1,0-3.4,0.4c-0.9,2.1-2.8,2.3-5,1.8c-1.6-0.3-3.2-0.5-4.7-0.7
		c-2.9-0.3-5.7-1-8-2.8c-0.4-0.3-0.9-0.5-1.6-0.5c-0.7,2.5-2.5,3.6-5,3.7c-3.5,0.2-7,0.7-10.2-1.5c-0.8-0.6-1.8-0.5-2.8-0.4
		c-4.1,0.7-7.9-0.7-11.4-2.3c-2.9-1.3-4.8-4.1-5.7-7.3c-0.7-2.6-1.1-5.2-1.4-7.8c-0.1-1-0.4-1.9-0.8-2.7c-2.3-5.8-4.6-11.7-7-17.5
		c-1-2.4-2.1-4.6-3.8-6.6c-1.4-1.7-2.5-3.7-3.3-5.8c-3.5-9.2-7-18.3-8.5-28.1c-0.8-5.1-1.5-10.3-0.7-15.6c0.7-5.2,0.2-10.4-1-15.6
		c-1.5-6.4-2-12.8-1.8-19.3c0-1.1,0.1-2.2-0.6-4c-2.8,6.9-6.5,12.3-13.2,15.1c-6.1,2.6-12.2,4.7-19.2,3.4c-0.8,3.3-1.5,6.6-2.3,10.1
		c0.5,1.2,0.5,2.6,0.4,4.2c-0.5,6.5-2.4,12.5-4.6,18.6c-1.2,3.2-1.5,6.6-1.1,9.7c0.8,6.2,0.4,12.3-0.4,18.5
		c-1.1,8.2-2,16.5-2.7,24.8c-0.6,6.3-1.3,12.7,0.1,19c0.4,2,0.9,3.9,1.3,5.9c0.8,4.2,0.9,8.5,0.1,12.7c3.5,3.6,7.4,6.1,12.5,6.6
		c2.2,0.2,4.5,0.5,6.6,1.1c3.8,1.2,7.3,3.3,11.5,3.2c3,2.5,6.9,2.6,10.4,3.6c1.3,0.4,2.5,0.6,2.6,2.2c-0.2,0.8-1,0.8-1.5,1.2
		c-0.2-1.5-0.2-1.5-1.4-1.6c0.2,0.8,0.8,1.2,1.5,1.5c0.6,1.2,1.9,1.5,3.7,1.6c-2.6,2.4-5.1,2.4-7.8,2.1c-2.8,2.6-6.2,3-9.6,1.9
		c-3.4-1.2-6.9-1.1-10.3-2.5c-0.3,1.1,0.8,1.4,0.7,2.3c-2.3,1.8-5.2-0.7-7.3,0.8c-2.1-0.7-3.7-1.7-5.5-2.6c-1.8,0.3-3.6,0-5.3-0.4
		c-1-0.3-2.1-0.5-3.2-0.4c-6.7,0.1-11.8-2.9-15.9-7.9c-0.4-1.3-0.2-2.6-0.2-3.8c0.3-10.1-1.2-19.9-3.7-29.7
		c-3.2-12.5-5.2-25.2-5.5-38.1c-0.2-7.5,0.1-14.9,0.1-22.4c0-4.1,1-8,2.3-11.9c0.3-1,0.9-1.9,0.9-3c-0.1-0.2,0-0.5-0.2-0.6
		c-4-4.6-6.8-10-10-15.1c-0.6-1-1.3-2-2-2.9c-4.4-5.6-8.8-11.2-13.3-16.8c-0.7-0.9-1.4-1.9-2.3-2.4c-8.3-2.1-16.4-1.6-24.4,1
		c-6.3,2-12.8,3.4-19.3,4.6c-2.8,0.5-5.2,1.7-7.3,3.8c4.5,6.4,9,12.7,13.4,19c0.9,1.3,2.1,2.4,2.1,4.2c0,0.9,0.8,1.5,1.4,2.1
		c3.5,4.1,7.5,7.9,11.7,11.4c3.2,2.6,6.4,5.1,9.4,8.1c2.9,2.9,6,5.7,9.5,8c0.4,1.1,0.7,2.1,1.1,3.2c-3.2-3.4-7.4-3.4-11.4-4.3
		c-1.8-0.4-3.5-0.8-5.3-1.2c-3.4-0.9-6.9-1.4-10.4-1.1c-2.8,0.2-5.5-0.1-8.3-0.4c-3.4-0.4-6.7-0.9-10.2-0.8
		c-4.1,0.1-7.8-1.1-11.2-3.2c-3-1.8-6.2-2.7-9.6-3.4c-3.6-0.8-7.4-1.1-11-2.7c-1.2,0.2-2.6,0.4-4,0.6c-1.1,1.4-1.4,3.1-2.5,5
		c2.5-1,3.8,0.5,5.4,1.4c2.5-0.5,2.5-0.5,4.9,1.5C571.6,594.1,567.9,592.4,564.7,594.3c-0.3-0.6,0.2-1.4-0.2-2.1
		c-0.7,0.1-1.1,0.5-1,1.3C563.7,594,564.1,594.2,564.7,594.3z M754.6,504.3c-1.8,1.3-2.5,3.4-3.6,5.2c-2,3.1-3.8,6.1-6.9,8.3
		c-3.4,2.3-6.8,4.7-10.2,7c-0.6,0.4-1.3,0.8-2,0.9c-0.9-0.1-1.6-0.6-1.9-1.5c0.2-3,1.1-5.8,2.3-8.5c1.1-2.4,2-5,2.5-7.6
		c1.3-6.2,3-12.3,3.1-18.8c0.2-6.7-1.2-12.8-4.1-18.8c-1.4-2.9-2.3-6.1-4.3-8.8c-0.6-0.8-0.7-1.8-0.7-3c0-0.8,1.1-1.3,1.2-2.6
		c-3.1,0.1-6.2,0.3-9.1,1.2c-7.8,2.4-15.7,4.7-23.3,7.7c-5.3,2.1-10.6,4.4-16.2,5.4c-2.5,2.6-4.7,5.2-6.8,7.9
		c-2.6,3.4-4.1,7.2-4.7,11.4c-0.9,6.1-0.5,12,0.8,18c1.8,8.3,5.9,15.2,11.1,21.6c0,0.1,0.2,0,0.6,0.1c1.2-3.6,3.5-6.9,3.9-11
		c-3.3-1.6-6.1-3.9-8-7c-2.6-4.2-3.5-8.9-2.7-13.8c0.7-4.6,2.7-8.8,4.6-12.9c3-6.4,8-10.8,14.6-13c2.9-1,5.5-2.3,8-3.7
		c0.5-0.3,0.9-0.5,1.4-0.8c6.5-3.4,12.9-2.7,19.4-0.1c0.6,0.2,1.1,0.6,1.6,1c3,2.1,5.4,4.8,7.5,7.8c1.4,2.1,2.3,4.5,2.5,7.2
		c0.4,6.8,0,13.6-1.7,20.3c-0.8,3.1-1.8,6.2-3.8,8.7c-3.6,4.6-6.6,9.7-11.2,13.5c-1.7,1.5-2.6,3.3-2.7,5.6c0,1.9-0.4,3.8-0.8,5.7
		c-0.5,2.5-1.1,5-1.6,7.5c1.7,0.9,3.3,1.5,5,1.4c6-0.4,11.5-2.5,16.2-6s8.1-8.6,10.1-14.2c1.6-4.4,3.8-8.3,6.1-12.2
		C752.5,510.5,753.7,507.4,754.6,504.3c1.5-1.6,1.8-3.5,1.4-5.5C754.9,500.5,754.8,502.4,754.6,504.3z M642.2,526.7
		c-1.1-2-2.6-3.4-4.7-4.5c-2.4-1.2-4.9-2.1-7.5-2.7c-6-1.4-12-2.8-18-4.2c7.6,0.4,14.8,2.3,22.2,3.9c-2.2-2.1-4.6-4-6.2-6.7
		c2.2,1.8,4.3,3.5,6.5,5.3c-1.1-2.8-1.8-5.5-1.9-8.2c-7-6.6-12.9-16-13.3-21.4c3.5,7.2,7,13.6,12.3,18.7c-0.3-1.3-0.9-2.4-1.4-3.5
		c-1.3-3-1.7-6.1-0.9-9.3c1-4.2,6.7-13,10.3-15.4c0.3-0.2,0.6-0.3,0.8-0.5c0.5-0.4,1.4-0.4,1.6-1.7c-6.5,0-12.9-1.8-19.3-0.2
		c-6.2,1.5-12.4,2.8-18.3,5.5c-5,2.3-8.7,5.7-10.8,10.7c-0.6,1.5-1.5,2.8-2.5,4c-2.7,3.1-4.4,6.7-5.2,10.8c-0.9,4.3-1.3,8.6-1.1,13
		c0.4,8.7,3.7,16.1,9.6,22.4c0.8,0.9,1.6,2,3.2,1.9c0.2-0.1,0.6-0.2,0.8-0.4c2.3-3.1,5.6-4.4,9.3-5.1c6.8-1.2,13.6-2.3,20.3-4.1
		c7-1.8,13.9-2.9,21.4-0.9c-2.1-2.9-5-4.4-6.9-7l0.2-0.2L642.2,526.7z M779.5,456.3c-0.5-0.3-1.3,0.4-1.5-0.4
		c-0.3-0.6,0.7-0.7,0.4-1.4c-1.2,0.3-2.2,0.9-2.6,2.1c-1.1,3.2-2.2,6.4-3.3,9.6c0,0.1,0.2,0.4,0.3,0.5c1.9,0.9,2.9-1.1,4.6-1.6
		c-1.8,3.7-3.8,4.2-6.4,1.8c1.1-3.1,2.1-6.4,2.6-9.7c0.1-1.1,0.4-2.5,1.4-3.1c2.6-1.7,5.2-3.6,8.7-3.3c-0.2-8.4,0-16.7,2.5-25.3
		c-1.2,0.6-1.5,1.4-1.6,2.2c-0.5,2-0.9,3.9-1.3,5.9c-0.7,4.1-1.4,8.2-2.1,12.3c-0.7-6.1,0.1-11.9,2.2-17.6c-4.8,5.9-6.8,13-9,20.5
		c-0.9-1.3-0.6-2.2-0.4-3.1c0.2-0.9,0.7-1.7,0.5-2.9c-1.8,2.5-3.2,4.9-3.6,7.6c-0.6,0.4-1.3-0.5-2.1,0.4c-0.2,0.4-1.1,0.9-0.7,1.8
		c0.7,0.6,1.5-0.6,2,0.3c-3.6,1.2-5.9,2.9-6.9,5.2c-2,0.1-3.9,0.5-5.6,1.4c-1.2,0.6-2.7,1.7-3.8,1.5c-2.7-0.5-5.2,0.7-7.9,0.4
		c-0.2-2.1-3.2-1-3.8-3.4c3.3,1.2,6.4,0.9,9.8,0.1c-8.2-2.8-12.2-3.1-19.4-1.2c-0.7,0.7-1.5,1.4-1.8,2.9c1.3,2.6,2.6,5.5,4.2,8.2
		c3,5.1,4.6,10.5,5,16.3c0.3,4-0.2,7.8-0.9,11.7c-1.2,7.6-2.4,15.1-6.3,22c-0.5,0.8-1,1.9-0.5,3c1.7-0.6,2.1-2.8,3.9-3.5
		c0.8,1.2-0.9,1.7-0.2,3.1c4.3-3.4,9.6-5.5,12.3-10.6c2.1-4,4.8-7.7,4.6-12.8c5.4-2.4,11.7-2.6,17.5-5.2c-0.9-2.6-1.7-5.4-2.9-8.1
		c-1.9-4.3-0.6-8.1,1.5-11.8c0.3-0.5,0.6-1.1,1.5-0.9c-0.9,1.7-1.8,3.2-2,5.1c-0.2,2.4-0.1,4.6,0.8,6.8c2.2,5.5,3,11.5,6.5,16.6
		c2.1,3,6.1,4.4,9.7,3.1c0.4-0.4-0.5-1,0.4-1.6c1.5,1.1,3.4,1,5.2,1.2c0.2-0.3,0.4-0.4,0.5-0.6c0.2-0.2,0.4-0.5,0.2-0.8
		c-3.9-1.6-4-1.7-5.2-4.5c1.1-1,1.8-0.2,2.2,0.7c0.7,1.8,2.1,2.2,3.8,2.4c1.3,0.2,2.5,0.4,3.8,0.5c0.7-0.8,1.3-1.4,1.5-2.3
		c-0.7-0.8-1.9-1.1-1.7-2.6c0.8-1.1,1.2-3.1,3.8-2.7c-2,1.5-2,1.5-2.6,3.1c4,3.4,4.3,3.5,7.2,2.9c0.9-2.7,2.9-4.9,4-7.5
		s2.9-4.3,5.5-5.3c-1.3-3.4-4-5.4-7.3-6.7c-0.6-0.2-1.2-0.5-1.7-0.8c-0.4-0.2-1-0.5-0.4-1.5c4.9,1.7,9.1,4.1,11.3,9.2
		c3.6-0.3,6-1.7,7.8-4.3c4-5.8,7.6-11.8,10.6-18.2c0.8-1.7,1-3.4,0.6-6c-2.2,4.3-2.2,8.9-5.7,12.2c-0.2-2.1,1.6-3.1,1.5-4.9
		c-1.5,1.7-2.9,3.2-4.2,4.7c-1.1,0.1-1.9,0.2-2.4-0.8c0.5-1.2,2.1-1.4,2.5-2.6c0-0.9-0.9-0.3-1.2-1.2c1.6-7,0.7-14.3-0.5-21.5
		c1.4,4.4,2.4,8.8,2.5,14.1c1-1.8,1.2-2.9,1.3-4.1c0.2-1.2,0.4-2.3,0.5-3.5c0.1-1.1,0.2-2.1,0.1-3.2c0-1.2-0.2-2.3-0.2-3.5
		c0-1-0.8-2.1,0.1-3.3c1.3,1.9,1.4,3.9,1.7,5.9c0.3,1.9,0.1,3.8,0.2,5.7c0.2,1.9-1,3.8-0.2,5.9c2.3-0.9,1.4-3.4,2.7-4.7
		c0.6,1.6,0,3.2-0.2,5c0.8-1.2,1.8-1.9,1.7-3.3c-0.5-5-1-10-2.9-14.7c-1.6-3.8-3.8-7.4-5.8-11c-1.3-2.4-2.8-3.8-4.7-4.8
		c4.1,7.9,6.2,16.2,6,25c-0.3-2.6-1.1-5.2-1.7-7.7c-1.6-6.6-4-12.8-7.2-18.7c-0.7-1.3-1.4-2.7-3.5-2.6c1.6,3.1,2.7,6,2.9,9.2
		c-1.2-2.5-2-5.1-3.2-7.7c-1-2.1-2.5-3.2-5-3.3c1.7,4,2.7,7.8,3.5,11.8c0.2,1,0.2,2.4,0.8,3c1.5,1.6,1.2,3.6,1.4,5.4
		c0.4,5.9-0.6,11.7-1.1,17.5c-0.6,0.7-1,1.4-2.2,1.6c-2.1-4.5-3.1-9.3-3.8-14.2c1.1,3.3,2.2,6.7,3.4,10c1-4.9,1.6-9.6,2-14.3
		c0.1-1.4,0-2.8-0.3-4.1c-1-3.9-2-7.8-3.1-11.7c-0.6-2-1.2-4.1-2.5-5.9c-1,0.1-2-0.5-3.1,0.2c-0.1,3.2,0.2,6.5-0.2,9.9
		c-1.1-3.5-0.8-7-1.2-10.5c-1.3,2.7-0.7,5.6-1.4,8.4c-0.7,2.7,0.1,5.6-1.1,8.2c-1-3.5,1.1-7.1-0.4-10.9c-2.4,6-4.7,11.7-7.2,17.9
		c-0.5-4.2,1.5-13.5,4.9-22.7c-1.5,0.3-2.7,0.9-3.7,1.6c-7.7,13.3-11.6,27.3-9.4,33.5c1.3-1.3,2-2.7,2-4.5c0-5,0.8-10,1.9-14.9
		c0.2-0.9,0.2-1.9,1.3-2.6c0.1,3.3-0.6,6.3-0.9,9.4c-0.7,5.4-1.8,10.7-0.6,16.2c0,0.1-0.1,0.3-0.2,0.5c-0.5,0-0.8-0.7-1.4-0.2
		c0.1,0.6,0.5,0.9,0.9,1.2c0.5,0.3,1.2,0.5,1.1,1.4c-1.4,0.5-2-1.2-3.2-1.4c-0.5,1.2,1.2,1.5,0.7,2.6c-1.3-0.5-1.3-0.5-3.5-6.3
		c-0.6,1.2-0.1,2.5-0.5,3.8c-0.8,0.7-1.7,1.5-2.5,2.2c-0.7,0.7,0,1.6-0.6,2.2c-0.8,0.4-1.3,1.4-2.4,1.3c-0.4,0-0.8-0.3-0.9-0.9
		c0.3-0.5,0.6-1.2,0.9-1.7c0-0.8-0.9-1.3-0.2-2.5C777.7,458.1,778.9,457.4,779.5,456.3c0.9,0,2,0.3,2.5-1.3
		C780.7,455,780,455.6,779.5,456.3z M683,498.9c1-0.6,1.4,0.1,1.8,0.5c1.7,1.7,2.7,3.8,3.3,6.1c0.2,0.8,0.2,1.9,0.7,2.4
		c1.7,1.9,1.2,4,0.9,6.1c-0.6,4.9-1.8,9.6-3.3,14.3c-2,6-3.6,12-3.6,18.4c0,3.2-0.3,6.4-0.5,9.6c0,0.6-0.1,1.3,0.1,1.9
		c0.6,1.6,0.4,3.1,0.4,4.7c0,3.3-1,6.5-0.4,9.9c0.1,0.7-0.4,1.2-0.6,1.8c-1.8,5.3-3.2,10.6-3.5,16.2c-0.6,9.8-0.5,19.6,0.6,29.4
		c1.3,10.2,2.5,20.4,4.9,30.5c2.4,10.4,4.6,20.8,4.1,31.2c3,6.5,9.1,6.6,14.4,8.2c0.6-0.9-0.5-1.6,0-2.3c0.2-0.2,0.4-0.4,0.6-0.6
		c1.1,0.3,0.7,1.9,2.2,1.9c0.6,0.1,0.2-1.2,1.2-1c0.4,0.5,0.9,1.1,1.2,1.5c1.2,0.3,2.3-0.1,3.2,0.6c2,2.9,4.4,3.2,7.3,2.2
		c-1.5-0.9-3.3-1.4-4.1-3c-1.2-2.2-3.1-3.5-5.3-4.3c-0.7-0.3-1.6-0.4-1.6-1.7c4.9,0.1,7.4,3.8,10.1,6.1c5,1.1,9.5,1.7,13.9,3
		c2.3,0.7,4.6,1.4,7.3,0c-1.9-0.8-3.5-1.8-5.4-1.6c-1.3,0.1-2.5-0.5-3.6-1.1c-1.3-0.8-2.5-1.7-3.7-2.5c-11.7-1.8-11.7-1.8-12.8-4.3
		c0.3-0.3,0.7-0.4,1.2-0.2c3.2,1.4,6.5,1.9,9.9,2.1c1,0.1,2.2,0.2,3.1,0.8c3.4,2.3,7.4,3.2,11.2,4.6c1.7,0.6,3.6,0.6,5.5,0.9
		c-0.2-2.2-2-2.6-3.4-3.1c-2.7-1.1-5.2-2.5-7.2-4.3c-3.7-0.5-7.4,0.2-10.7-1.1c-0.1-0.5-0.1-0.7-0.1-0.9c-0.1-0.3-0.1-0.6-0.2-1.2
		c-7.3-0.4-14.4-1.5-19.7-7.4c-1.8,0.8-3.5,0.6-5.5,1c1.5-1.5,3.3-1.3,4.6-2.2c-0.2-5-0.8-9.8-1.7-14.6c-0.9-4.4-1.5-8.8-1.2-13.3
		c0.6-11.8,1.3-23.6,3.2-35.3c1.1-7,2.1-14.1,1.1-21.3c-0.4-2.4,0.1-4.8,0.9-7.2c1.3-3.9,2.8-7.8,3.4-12c0.5-3.7,1-7.4,1.3-11.1
		c0.8-9.4,3.3-18.4,6.1-27.4c0.4-1.2,1.1-2.3,1.8-3.3c4.4-6.2,8.6-12.5,9.8-20.2c0.5-3.4,1.8-6.7,1.7-10.3c0-0.1,0.3-0.2,0.9-0.6
		c1.2,3.6,0.4,7.1,0.9,10.6c1.7-4.2,2.6-8.7,3.7-13.1c0.4-1.7,0.1-3.4-0.5-5c-0.2-0.6-0.1-1.3-0.1-1.9c0.4-5.4-1.8-9.8-5.5-13.4
		c-2.8-2.7-6-5-10.2-5.4c-4.3-0.4-8.2,0.8-11.8,3c-4.3,2.6-8.6,5.1-13.3,6.8c-0.7,0.3-1.4,0.6-2,1c-6,4.5-10,10.4-11.5,17.8
		c-1.1,5.8-0.3,11.2,4,15.7c1.1,1.1,2,2.5,3.1,3.6c0.4,0.4,0.5,1.3,1.4,0.9c-1-2-0.9-2-0.9-3.7C686.1,507.5,686.2,502.8,683,498.9z
		 M541.7,564c0.7-0.5,1.1-0.1,1.6,0.1c4.3,1.1,8,3.7,12.2,5.4c1.7-1.2,3.6-1.6,5.7-1.5c1.8,0.1,3.6,0,5.4-0.2
		c3.7-0.4,7.4-0.6,11.1-1.1c3.9-0.5,7.9-0.2,11.7-1.3c5.1-1.5,10.3-2.7,15.4-4.1c0.8-0.2,1.7-0.1,2.3-1.2c-2.8-3.9-5.6-7.9-8.1-11.6
		c-1-0.5-1.7,0.2-2.1-0.5c0-0.5,0-0.9,0-1c-3.8-3.1-7.1-6.3-9.9-10.1c-2.9-3.9-4.6-8.3-5.5-13.3c-2.4,0.8-4.6,1.4-6.6,2.2
		c-7.4,3-14.8,6-22.5,8.1c-0.6,0.2-1.5,0.2-1.6,0.8c-0.3,1.4-1.5,1.5-2.4,1.8c-6.5,2-12.6,4.8-19.5,5.7c-4.8,0.7-9.7,1.3-14.5,1.8
		c-3.7,0.4-7.4,0.2-11,1.4c-5.1,1.7-9.7,4.6-14,7.5c-4.6,3.2-9.2,6.5-13.7,9.9c-3,2.2-6.2,4.2-9.5,5.8c-3,1.4-6,2.8-9,4.2
		c-3.7,1.8-7.5,3.5-11.7,3.8c-1.4,2.9-3.6,4.9-6,6.7c-2.1,1.6-3.9,3.8-3.6,6.4c0.5,3.9,1.4,7.8,5.7,9.6c3-0.3,5.9-1.3,8.9-0.8
		c1.4,0.2,2.8-0.4,3.7-1.5c1-1.2,2.3-1.9,3.6-2.6c8.8-4.4,17.7-8.4,26.8-11.9c7.1-2.7,14.3-4.8,21.6-7c7.3-2.1,14.2-5.5,21.8-7.1
		c2.2-0.5,4.3-0.6,6.2,0.3c1.7,0.8,3.2,0.9,4.9,0.7c1.9-0.2,3.8-0.4,5.7-0.6c1.4-0.2,2.7-0.2,3.8,0.6c0.6-0.5,1.2-0.5,1.2-1.4
		C546.9,566.9,543.8,566.5,541.7,564z M786.2,644.6c-0.8-3.3-2.1-6.2-2.9-9.3c-2.4-9.7-4.5-19.6-3.7-29.7c0.5-5.4-0.2-10.6-1.6-15.8
		c-0.7-2.6-1.2-5.2-2-7.7c-1.6-4.8-2.6-9.9-5.4-14.3c-0.6-1-1.1-2.2-1.1-3.3c-0.1-4-1-8-0.6-12.1c0.4-4.9,0.6-9.8,0.9-14.7
		c0.5-6.3,0-12.6,1.5-18.8c1.3-5.4,1.7-10.9,2.3-16.4c0.3-2.6-0.2-4.8-1.8-7c-2.1,0.2-4.2,0-6.3-0.2c-1.2-0.1-2.3,0.2-3.3,0.9
		c-1,0.6-2,1.2-2.7,1.6c-1.7,6-3.6,11.6-6.9,16.8c2.2,1.6,5.2,1.3,7.3,3.8c-3.2,0.1-6,0.4-8.6-1.4c-2,3.1-3.5,6.3-4.8,9.4
		c0.8,1.5,1,2.9,1.2,4.4c0.7,7.5,1.4,15,3.3,22.4c1.6,6,1.6,12,0.4,18.1c-0.3,1.6-0.3,3.2-0.2,4.8c0.3,9.1,3.3,17.5,6.3,26
		c0.1,0.4,0.3,0.8,0.6,1.1c1.6,1.7,2.2,3.9,3,5.9c0.9,2.4,1.8,4.8,2.9,7.1c3.7,7.9,7.1,15.9,10.4,24c0.8,2.1,1.9,4.2,1.9,6.4
		c0.1,2.3,0.7,4.4,1.1,6.6c0.4,2.5,1.9,4.2,3.9,5.1c2.9,1.3,6,2.5,9.2,1.8c1.9-0.4,3.6-0.1,5.2,0.9c1.5,0.9,3.1,1.3,4.9,1.2
		c1.4-0.1,2.8,0,4.1,0.5c0.9,0.4,1.6,0,1.9-1.1c-1.5-0.8-3-1.3-4.5-1.8c-3.1-1.1-5.4-3.7-8.6-4.6c-0.9-0.2-1.7-0.9-1.4-2.1
		c2.4,0.1,5.3,1.1,6.9,2.7c1.5,1.5,3.5,2.5,5.4,2.3c3.6-0.4,6.7,0.4,9.7,2.1c1.3,0.8,2.7,1.1,4.2,1.4c2.1,0.3,4.2,0.7,6.3,1
		c0.5,0.1,1.1,0.3,1.4-0.8c-2.2-0.5-4.5-1-6.5-2.1c-5-2.6-9.5-6.1-14.6-7c-1.1-0.7-0.4-1.7-1.4-1.9c-5.6,0.3-10.5-2-15-5.1
		c-1.8,0.2-3.4,1.1-5.3,0.6C784.2,645.6,785.1,645.1,786.2,644.6z M641.4,596.8c-2.3-2.6-4.7-4.8-7.5-6.6
		c-6.6-4.3-12.5-9.6-17.6-15.7c-2.6-3.1-5.2-6.2-6.4-10.2c-0.2-0.7-0.6-1.4-1.3-1.5c-5.1,1.7-10,3.4-15,4.9
		c-7.3,2.3-14.7,3.4-22.4,3.1c-2.7-0.1-5.4-0.5-8.1,0.2c0,0.5,0.4,0.7,0.7,1c2.8,2.1,5.9,3.3,9.2,4.4c2.9,1,4.5,3,5.7,5.7
		c0.2,0.5,0.4,1.2-0.4,1.6c-0.7,0-0.9-0.5-1.1-1c-1.2-2.6-3.2-4.1-5.9-4.9c-3-0.9-5.8-2.1-8.3-4.1c-0.7-0.6-1.6-1.1-2.6-1.2
		c-3.2-0.4-6.2-1.3-9.2-2.5c-4.7,3.5-8.5,7.4-9.4,13.5c-0.8,5.6-1.6,11.2,0,16.8c0.8,2.7,0.6,5.5-0.2,8.2c-0.5,1.7-1.1,3.4-1.7,5.2
		c-0.9,2.9-1.6,5.7-1.3,8.8c0.6,5.8,1.5,11.6,3,17.3c0.4,1.5,0.8,3.1,0.2,4.4c2.5,4.9,4.5,6.8,11.5,10.7c3.9-1.2,5.9-3.9,6.9-7.7
		c1.2-4.3,2.8-8.5,4.2-12.7c0.8-2.5,2.3-4.7,3.3-7.2c-2.6-1.1-5.3-1.7-6.4-4.6c1.2-0.9,2.4-0.7,3.5-0.4c1.5,0.3,2.9,0.8,4.2,1.4
		c0.8,0.4,1.4,0.2,1.5-0.9c-2.8-1.4-6.4-1.8-7.8-5.1c0.3-0.7,0.7-0.9,1.2-0.9c3.5,0.2,6.3,2.5,9.7,3c0.7-0.3,1.4-0.6,1.6-1.6
		c-8.4-1.8-10.1-2.7-10.4-6.4c4.5,2,8.8,3.4,13.4,4.3c1.3-1.1,2.7-2.1,4.2-3.3c-3.2-2.3-6.3-3.8-9.7-4.8c-3.2-0.9-5.3-2.9-6.7-5.9
		c-1.2-2.5-2.7-4.8-4-7.3c-0.4-0.7-1.1-1.3-0.9-2.4c1-1.5,2.4-2.8,3.2-4.6c2-4.5,5.6-6.2,10.7-5.3c0.7,0.3,0.2,1.2,0.9,1.5
		c3.4,0.8,6.8,1.6,10.2,2.5c2.8,0.7,5.6,1.4,8.1,2.9c3.1,1.9,6.5,2.7,10,2.7c2.8,0,5.5,0.2,8.3,0.6c2.5,0.4,5.1,0.9,7.6,0.5
		c4.1-0.6,8.1,0,12,1C635.2,595.3,638.3,596,641.4,596.8z M639.9,482.3c0.2,1.3-0.7,2.2-1.5,3.2c-1.1,1.3-2.1,2.7-3.1,4.1
		c-2,2.7-2.6,5.8-2.3,9.1c0.2,1.9,0.6,3.8,1.3,5.6c2,5.9,4.1,11.7,8.6,16.2c0.9,1,0.4,1.9,0.4,2.9c3,2.8,6.5,5,9,8.4
		c4.1-0.8,8.2-0.6,12.2-0.6c3.7,0,7.4,0.8,11.1,1c1.6,0.1,3.3,0.4,5.2-0.4c-2.5-2.4-3.7-5.3-5.7-7.7c-2.2-2.6-3.6-5.5-4.5-8.7
		c-0.7-2.6-1.7-5-2.5-7.6c-3.2-9.7-2.4-19.1,2.3-28.1c1.2-2.3,2.6-4.4,3.3-7.1c-1.5,0.1-2.8,0.6-4,1.2c-4.7,2.2-9.7,3.2-14.9,3.1
		C649.1,476.7,644.3,478.6,639.9,482.3z M654.4,535c0.2,0.5,0.3,0.7,0.4,0.8c6.4,4.8,11.1,11.1,15.8,17.4c1.6,2.1,3,4.4,4.2,6.8
		c1.3,2.5,2.9,4.8,4.4,7.3c0.5-10.8-0.6-21.4,2-32.2C672.2,535.3,663.4,533.6,654.4,535z M811.3,511c-0.8-5-2.1-9.9-1.6-15.1
		c0.7,1,0.3,2.3,1.5,3.4c0.5-3.3-0.6-6.4,0.1-9.5c-1.8,2.5-2.9,5.5-4.8,7.7C807.1,502.5,808.6,506.9,811.3,511z M832,659.8
		c-3.3-1-6-2-8.8-2.5c-2.8-0.6-5.1-2.8-8.3-2.5C821.3,659.6,828,661.7,832,659.8z M439.2,623.2c-0.7-0.1-1.2-0.2-1.6,0.4
		c0.3,0.8,0,2.1,1.5,2.3C439.6,625,439.5,624.2,439.2,623.2z M791.2,422.6c0,0.4,0.1,0.4,0.3,0.1c0.4-0.4,1-0.8,0.4-1.7
		C791.1,421.3,791,421.9,791.2,422.6z M799.8,418.2c1-0.2,1.5,0,1.7-0.8C801,417,800.5,417,799.8,418.2z"/>
	<path d="M765.8,149.4c0.5-0.4,0.9-0.8,1.2-1.4c2.2-4.6,5.1-8.7,8.3-12.7c1.7-2.1,3.3-4.4,4-7.2c0.2-0.8,0.6-1.3,1.1-1.9
		c2.3-2.8,4.3-5.8,7.1-8.4c-1.3-2-0.9-4.2-0.2-6.3c0.3-1,1-1.9,0.9-3c0.8-0.3,0.9-0.9,1-1.8c-0.7,0.6-1.2,1-1.1,1.8
		c-1.8,1.3-2.1,3.3-2.5,5.2c-0.2,0.9,0.2,1.9-0.8,2.9c-1-2.6-0.5-4.9,0.4-7.1c0.7-1.5,1.6-3,2.5-4.5c2-3.1,4.8-5.4,8.4-6.4
		c4.3-1.2,8-0.2,11.2,2.9c1.6,1.6,3.2,3.4,4.6,5.3c1.1,1.5,2.1,3.2,0.9,5.1c-1,0-1-0.5-1.1-1c-0.9-3.3-3-6-5.4-8.2
		c-2.6-2.5-6-3.1-9.6-1.9c-1.8,0.6-2.5,2.2-3.6,3.4c-2.4,2.7-3.8,5.9-4.8,9.3c-0.3,1-0.5,2.1,0.2,3.2c1-0.3,1.9-0.7,3-1.1
		c-0.5-2.5-0.8-5,0.6-7.4c0.9-1.5,2-2.6,3.9-3.4c-4.2,5.6-4.5,6.6-3,10.3c2.1-1.3,0.5-4.2,2.5-5.4c0.5,1.4-1,2.6-0.2,4.2
		c1.2-0.2,2-0.8,2.6-1.6c0.4-1.4-0.7-2.3-0.7-3.6c1.7,0.4,1.4,2.2,2.1,3.1c1,0.2,1.5-0.1,1.5-1.1c-0.1-2.7-0.9-5-3.2-6.6
		c-0.6-0.4-1.5-0.4-1.7-1.3c3.7,0.3,5.1,2.2,6.4,8.8c2.2,0.7,4.4,1,6.9,0.9c0.2-0.7,0.5-1.3,0.7-2.1c0.8,0.7-0.1,1.4,0.2,2.3
		c1.4,0.3,2.9,0.6,4.4,1c3.9,1,7.2,2.9,9.7,6.3c1.4,1.9,3.4,3.4,4.9,5.4c3.7,5.1,6.1,10.7,6.9,17c0.4,3.3,0.5,6.6,1.8,9.7
		c0.2,0.5,0.2,1.1,0.1,1.6c-0.7,3.3-1.4,6.7-3.1,9.7c-1.3,2.3-2.5,4.7-3.7,7c-1.9,3.5-4.2,6.7-6.6,9.8c-1.6,2.1-3.9,3.2-6,4.7
		c-1.4,1-3.1,0.2-5.1,0.2c-1.1,5.3-0.7,10.6,0.1,16c0.7,5.5,2.6,10.5,5.7,15.2c-1.3-0.5-2.3-1.4-3.4-2c-1.1-0.7-1.6-2.4-2.5-3.9
		c-0.6,2.3,1.2,3.4,1.6,4.9c-0.7,0.7-1.1,0-1.5-0.4c-3.7-4.3-6.2-9.1-7.6-14.6c-0.2-0.7-0.4-1.4-0.6-2.2c-1.2-0.1-2.3-0.3-3.4-0.4
		c-0.4,2.7-0.1,4.5,1.3,7.2c0.6-1.8-0.1-3.7,1.4-5.8c0,2.5,0.1,4.4,0,6.3c-0.2,3.5,0.4,6.7,3.5,9.7c-3.2-1.4-4.2-4-6-5.7
		c0.1-2.3-1.1-4.3-1.6-6.4c-0.4-2.1,0.3-4.4-0.8-6.3c-1.2,0.1-1.7,0.5-2.1,1.5c0.4,0.1,1,0.1,1.3,0.8c-0.1,2.8,1.3,5.6,1.5,8.5
		c-2.4-2.2-2.6-5.2-3.2-8.1c-1.3-0.2-2.5-0.5-4-0.7c-1,2.6-2.7,3-5.5,2.8c-2.1-0.2-4.4,0.8-6.9,0.9c-1.4-0.8-3-1.6-4.9-2.7
		c0,1.5,0,2.6,0,3.8c-0.2,3.8-0.5,7.6-1.6,11.4c-1,3.5-1.5,7.1-1.4,10.7c0.2,8-1.1,15.9-1.4,23.9c-0.1,3.3,0,6.6-0.1,9.9
		c0,0.9,0.4,1.6,0.8,2.4c3.5,6.7,6.5,13.7,7.8,21.2s2.9,15,2.5,22.8c-0.4,9,1.2,17.8,3.5,26.5c0.7,2.7,1,5.4,2.1,8.2
		c5.2,3.3,10.8,6,17.3,5.7c0.8,0.7,1.6,1.3,2.3,2c0-0.1,0.1-0.2,0.1-0.3c7.9,2.4,15.7,4.8,23.7,7.3c0.4,0.9,0.8,1.7,1.2,2.4
		c-0.2,1-0.6,1.6-1.2,2c-1,0.5-1.9,0-3.1,0.2c-1.1,2.2-3.1,2.2-5.3,1.8c-1.7-0.3-3.4-0.5-5.1-0.7c-2.6-0.3-5-0.9-7.2-2.5
		c-0.5-0.4-1.1-0.7-1.9-0.6c-0.8,2.7-2.9,3.5-5.5,3.7c-3.3,0.2-6.6,0.6-9.6-1.4c-0.9-0.6-2-0.6-3.1-0.4c-4.1,0.6-8-0.7-11.4-2.4
		c-3-1.5-5.1-4.4-5.8-8c-0.4-2-0.7-4-1-6c-0.4-2.9-1.6-5.5-2.6-8.1c-1.8-4.6-3.6-9.1-5.4-13.7c-0.9-2.2-2-4.2-3.5-6.1
		c-1.3-1.6-2.3-3.4-3-5.2c-4-10.2-7.8-20.5-9.2-31.5c-0.5-4.2-1-8.4-0.4-12.7c0.8-6,0-11.9-1.3-17.8c-1.2-5.3-1.5-10.7-1.5-16.2
		c0-1.6-0.2-3.1-0.5-4.7c-1.2,2.2-2.3,4.3-3.5,6.4c-1.9,3.1-4.4,5.5-7.6,7.1c-4,2-8,3.8-12.5,4.5c-2.8,0.4-5.7,1-8.9-0.3
		c-0.4,4.3-2.4,7.9-1.9,12.2c0.4,3.6-0.5,7.4-1.5,11c-0.8,2.8-1.5,5.6-2.6,8.2c-1.8,4.5-2,9.1-1.4,13.8c0.9,6.6-0.4,13.2-1.1,19.7
		c-0.8,7.2-1.8,14.4-2.3,21.6c-0.3,4.4-1,8.9-0.6,13.4c0.3,4,1.5,7.7,2.1,11.6c0.7,4,0.6,8,0,12.2c3.4,3.5,7.3,6.1,12.4,6.5
		c2.4,0.2,5,0.4,7.2,1.3c3.5,1.2,6.7,3,10.6,2.9c3.4,2.5,7.5,2.8,11.3,3.9c1.7,0.5,1.7,0.5,1.8,2.6c-0.6,0.3-1-0.1-1.2-0.6
		c-0.2-0.4-0.6-0.6-1-0.3c1.2,2.3,1.8,2.7,4.5,3.3c-2.1,2.6-4.9,2.3-7.6,2c-2.9,2.8-6.5,2.9-9.9,1.8c-3.3-1.1-6.7-1.1-9.8-2.3
		c-0.5,1.1,0.9,1.3,0.2,2.6c-4.1,0.2-8.4,1.1-12.2-2.3c-1.8,0.5-3.4,0.2-5.1-0.2c-1.1-0.3-2.3-0.6-3.5-0.6c-6.7,0.2-11.9-2.7-16-7.8
		c-0.4-1-0.3-1.9-0.2-2.9c0.3-10.6-1.3-21-3.9-31.3c-3.1-12.3-5-24.8-5.4-37.5c-0.2-7.5,0.1-14.9,0.1-22.4c0-4.4,1.1-8.7,2.6-12.8
		c0.9-2.4,1.1-4.9,1.2-7.5c0.2-8.3-0.6-16.6,0-24.9c0.3-3.6,0.7-7.2,1.6-11.2c-2.6,1.2-4.9,1.6-7.4,1.6c-1.5,0-2.6,1.3-4.1,1.7
		c-3.1,0.8-6.3,1.3-9.4,1.6c-3.5,0.3-6.9,1.1-10.3,2c-8.8,2.4-17.7,4.8-26.5,7.2c-3.4,0.9-6.5,2.7-9.5,4.5c-2.2,1.3-4.5,2.4-7.1,2.8
		c-1,0.2-1.8,0.6-2.7,1c-8.4,4-17,7.4-26.1,9.3c-3.6,0.7-7.1,1.3-10.8,1.5c-4.6,0.2-9.1,1.1-13.5,2.4c-6.4,1.8-12.7,3.5-19.3,4.5
		c-1,0.2-2.1,0.5-3.1,0.9c-5.6,2.2-11.3,2.8-17.2,2.6c-4.7-0.2-9.4,0.5-14,1c-0.6,0.1-1.3,0.1-2,0.2c-0.9-0.5-1.8-1-2.8-1.6
		c-2.2,1.7-4.9,2.3-7.6,3c-2,0.6-4.1,1-6.1,1.7c-2.6,0.9-5.2,1.4-7.9,0.8c-4-0.8-8.1-1.1-12.2-1.6c-0.5-0.1-1.1,0-1.6,0
		c-6,1-12.1,1.2-18.1,0.6c-2.6-0.2-5.1,0.1-7.6,0.5c-2.4,0.4-4.9,0.7-7.3,0.5c-4-0.3-7.9,0.2-11.3,0.4c-1.3,0.3-0.8,1.3-0.9,1.4
		c-1.8,1.2-3.6,1-4.9,2.2c-0.5,5.6-0.2,11.3-1,17c-0.2,1.8,0.1,3.6,0.8,5.3c1.1,3.1,2.8,5.7,6.6,6c2,0.1,3.6,1.4,5.1,2.5
		c2.7,1.9,3.4,8.8,1.3,11.5c-1.1,1.3-2.6,1.8-4.2,2.1c-3.5,0.6-6.9,1.1-10.4,1.5c-1.6,0.2-3.2,0.3-4.4-0.8c-1.3,0.9-1,2.2-1.2,3.6
		c-5.4,2.7-11.1,4.9-17.5,3.8c-2.6-0.5-5.2-1.1-7.8-1.3c-0.4,0-0.8-0.2-1.2-0.2c-4.3,0.4-8.4-2.2-9.7-6.5c-1.4-4.6-2.8-9.2-1.7-14.1
		c0.1-0.5,0-1.1-0.1-1.6c-1.2-7.3-4.1-13.8-8.7-19.6c-2.3-2.9-4.3-5.8-4.1-9.7c0.1-0.8-0.4-1.7-0.6-2.5c-1.4-4.4-0.6-8.6,0.5-12.9
		c0.2-0.9,0.9-1.7,1.4-2.6c5.1-1.3,10.3-2.3,15.6-2c1.8,0.1,3.6-0.4,5.3-0.8c2.8-0.6,5.3-0.3,7.3,1.9c7.9-0.3,15.6-1.3,22.9-4.2
		c9.8-3.9,19.5-7.9,29.3-11.8c1.6-0.6,2.9-1.8,4.3-2.7c1.4-1,2.9-1.8,4.6-2.1c3.6-0.6,7.1-1.5,10.7-1.4c4.3,0,8.4-1.2,12.6-2
		c8.3-1.4,16.5-1.4,24.6,0.4c4.2-1.2,7.8-3.3,11.2-5.6c4.2-2.8,8.5-5.4,13.2-7c6.4-2.2,11.9-5.7,17.3-9.5c0.6-2.5,2.3-4.3,3.8-6.1
		c3.9-4.7,7.4-9.6,10.9-14.6c3.2-4.7,7.1-8.8,11.7-12.2c2.4-1.8,4.9-3.3,8.1-3.5c1.4-0.1,2.9-0.8,4.3-1.3c2.7-0.9,5.5-1.7,8.4-1.8
		c1.8-0.1,3.6-0.4,5.2,0.9c0.2,0.1,0.4,0.2,0.6,0.2c3.7-0.3,6.9,1.6,10.4,2.3c4,0.8,8.1,1.5,12.1,2.7c6,1.8,11.6,1,17.1-1.6
		c4.4-2.1,8.8-4.2,13-6.9c1.7-1.1,3.6-1.9,5.5-2.6c6.2-2.3,12.2-4.9,17.7-8.8c4.8-3.4,10.3-5.5,15.8-7.5c1.8-0.7,3.5-1.3,5.1-2.6
		c1.5-1.3,3.4-1.6,5.3-2.2c3.4-1,6.8-1.8,10.1-3.1c3.4-1.3,6.9-0.9,10.5-0.7c6,0.2,11.9,0.8,17.9,0.6c5.4-0.2,10.8,0.5,16.2-0.3
		c0.8-0.1,1.5-0.1,2.2,0.3c3.7,1.8,7.8,2.9,11.5,5.2c2.5-0.7,5.2-1.5,7.2-3.2c1.7-2.3,1.5-5.3,3.5-8c-0.4,2-0.7,3.4-1,4.6
		C764.7,148.8,765.5,148.9,765.8,149.4c-1.4-0.3-1.7,0.6-1.8,1.8C765.1,150.9,765.4,150.1,765.8,149.4z M779.2,153.2
		c-0.5-0.1-1-0.2-1.6-0.3c0.2-0.5,0.4-1,0.5-1.5c-1,0-1.8,0.3-2.2,1.2c-1.3,3.5-2.5,7.1-3.8,10.6c2.1,1.5,3.3-1,5.1-1.1
		c-2.3,3.5-3.7,3.9-6.5,1.7c1.2-3.2,2.2-6.5,2.7-10c0.1-1,0.4-2.2,1.3-2.8c2.6-1.7,5.2-3.6,8.8-3.3c-0.3-8.4,0.1-16.7,2.4-25.1
		c-1.4,0.5-1.5,1.6-1.7,2.4c-0.7,3.4-1.4,6.9-2,10.3c-0.4,2.4-0.8,4.8-1.1,7.3c-0.7-6.1-0.2-11.9,2.2-17.5
		c-4.9,5.9-6.9,13.2-9.2,20.9c-1.1-2.5,0.4-4.1,0.2-6.1c-1.8,2.5-3.1,4.9-3.6,7.7c-0.7-0.1-1.2-0.1-1.6-0.2
		c-0.8,0.6-1.2,1.4-1.3,2.1c0.8,0.8,1.5-0.6,2.1,0.6c-3.1,0.5-5.3,2.4-6.9,4.9c-2.2,0.2-4.2,0.7-6.2,1.8c-1,0.6-2.3,1.5-3.2,1.2
		c-2.6-0.8-5,0.8-7.7,0.3c-0.4-2.1-3.3-1-4-2.9c1.7-0.8,3.2,1,4.9,0.4c1.5-0.5,3.4,0.1,4.9-0.9c-5.5-1.9-10.9-2.9-16.7-1.7
		c-2.1,0.4-3.6,1-4.4,3.3c0.9,2.8,2.4,5.5,4,8.1c3.5,5.8,5.1,12.1,5.4,18.8c0.2,4-0.8,7.8-1.4,11.7c-1,6.9-2.4,13.6-5.9,19.8
		c-0.5,0.9-1,2.1-0.7,3.3c1.8-0.8,2.3-2.8,4.1-3.7c0.2,0.8,0,1.2-0.3,1.6c-0.2,0.4-0.7,0.9-0.1,1.3c9.5-4.9,15.8-12.2,17.2-23.3
		c5.3-2.4,11.5-2.6,17.2-5.1c0.1-0.3-0.2-0.8-0.3-1.3c-1-2.8-1.9-5.6-2.9-8.5c-1.5-4.4,0.5-7.9,2.9-11.7c0.1,0.7,0.3,1,0.2,1.1
		c-2.2,3.6-2.4,7.3-0.9,11.3c0.9,2.4,1.7,4.8,2.3,7.3c0.8,3.6,2.6,6.7,4.5,9.8c1.7,2.7,6.1,3.9,9.3,2.7c0.4-0.4-0.4-1,0.3-1.6
		c1.6,0.9,3.5,1.1,5.3,1.2c0.3-0.4,0.9-0.7,0.6-1.6c-2.2-0.5-4.3-1.5-5.2-4c0.1-0.2,0.2-0.4,0.3-0.5c0.2-0.2,0.5-0.4,0.9-0.2
		c2.9,3.2,2.9,3.2,8.8,4c0.5-0.7,0.9-1.4,1.4-2.1c-0.7-1-1.9-1.2-1.8-2.5c1.8-3.2,1.9-3.3,3.9-2.7c-0.9,0.9-2.8,0.8-2.7,3.1
		c2.4,0.7,3.8,4.1,6.5,3c4-4.7,4.4-11,10.1-13.2c-1.2-5.2-6.2-5.8-9.5-8.6c5.1,1.3,9.5,3.7,11.8,9c3-0.6,5.7-1.6,7.6-4.3
		c4-5.9,7.8-12,10.7-18.5c0.8-1.7,1-3.6,0.9-5.9c-1.8,2.1-1.8,4.5-2.6,6.5c-1.2,3.2-1.8,4.1-3.4,5.2c-0.5-1.3,1.6-2,0.8-3.4
		c-1.6,1-2.3,2.9-3.9,3.7c-0.9-0.1-1.6-0.1-2.1-0.9c0.4-1.4,2.3-1.5,2.6-2.9c-0.2-0.8-1-0.1-1.3-0.5c0.4-2.5,0.9-5,1-7.5
		c0.1-2.7-0.2-5.3-0.5-8c-0.2-1.7-0.9-3.3-0.6-5l-0.1,0.1c1.2,1.8,1.3,4,1.7,6s0.4,4,0.6,6c2.3-5.5,2.5-11.1,1.7-16.8
		c2.8,5.6,2.1,11.5,1.6,17.5c2.9-0.8,1.5-3.9,3.2-5.1c0.6,1.6-0.4,3.1-0.2,4.8c1.3-1.1,1.8-2.3,1.4-3.8c-0.2-0.9-0.2-1.9-0.4-2.8
		c-0.8-3.7-0.9-7.6-2.7-11.1c-1.6-3.2-3.4-6.4-5.1-9.6c-1.1-2.1-2.6-4.1-4.7-5.4c3.4,7.9,5.8,15.9,5.4,24.5c-0.3-2-0.7-3.9-1.2-5.8
		c-1.7-7.1-4.1-13.9-7.6-20.3c-0.7-1.4-1.4-2.9-3.6-2.8c1.8,3.5,3,6.9,3.3,10.7c-1.3-2.9-2.1-5.9-3.4-8.8c-1-2.3-2.6-3.4-5.1-3.6
		c0.6,1.8,1.2,3.5,1.8,5.2c1.4,3.6,1.1,7.8,3.4,11.2c0.2,0.3,0.1,0.8,0.2,1.3c0.1,4.3,0.4,8.5-0.2,12.8c-0.4,2.9-0.7,5.9-0.5,8.9
		c-0.3-0.3-0.5-0.5-0.7-0.7c-0.7-0.1-1,1.2-2,0.5c-0.5-1.3-1-2.7-1.5-4.1c-0.5-1.4-0.9-2.9-1.2-4.3c-0.3-1.3-1-2.6-0.7-4.4
		c1.6,3.1,1.8,6.2,3.6,9.6c0.3-6.6,2.4-12.5,1.3-18.4c-1.2-6.2-2.5-12.5-5.4-18.3c-1.1-0.1-2.1-0.2-3.4-0.4
		c-0.1,3.3,0.3,6.5-0.3,9.7c-0.3-1.7-0.3-3.4-0.5-5.1c-0.2-1.6,0.5-3.3-0.7-4.8c-0.9,5.6-1.7,11.1-2.2,16.8
		c-1.1-3.5,0.9-7.1-0.5-10.9c-2.4,6-4.7,11.7-7,17.5c-0.2-0.1-0.4-0.1-0.6-0.2c1.2-7.4,1.8-15,5.7-22.2c-1.9,0.4-3,0.9-4,1.6
		c-6,10.4-11,21.1-9.8,33.6c2.1-2.2,2.2-2.2,2.2-5c0.2-4.6,0.7-9.1,1.7-13.6c0.2-1.2,0.3-2.5,1.1-3.5c0.9,0.7,0.4,1.3,0.3,1.9
		c-0.4,7.9-3.2,15.7-1.5,23.6c-0.6,0.6-1.2-0.2-1.5,0.3c-0.1,1.5,2.1,1.2,2,2.8c-1,0.3-1.6-0.5-2.3-0.9c-0.3-0.2-0.5-0.3-0.8,0
		c-0.3,0.8,1.3,1.2,0.4,2.3c-1.5-0.4-1.9-1.6-2.2-2.8c-0.3-1.3-0.2-2.7-1.3-4c-0.1,1.6-0.2,2.8-0.2,4.1c-1,0.9-2,1.7-2.9,2.6
		c0,0.6,0,1.1,0,1.8c-1,0.3-1.5,1.6-3,1.4c-0.7-1.6,0.9-3.3-0.2-4.7C777.6,154.9,778.7,154.3,779.2,153.2c1-0.1,2.2,0.2,2.8-1.7
		C780.6,152,779.7,152.3,779.2,153.2z M683.1,195.6c2.8,1,3.8,3.5,4.6,5.9c0.4,1,0.2,2.3,0.8,3.1c1.9,2.2,1.3,4.6,0.9,7
		c-0.6,4.7-1.9,9.2-3.2,13.7c-1.5,5-3.3,9.9-3.4,15.2c-0.1,4.3-0.5,8.5-0.7,12.8c0,0.5,0,1.1,0.1,1.6c1.1,6.2,0.3,12.3-1.1,18.3
		c-1.3,5.2-2.7,10.3-3,15.7c-0.8,18.2,1.1,36.1,4.7,53.9c0.8,4.1,1.7,8.1,2.5,12.2c1.6,7.9,2.9,15.9,2.5,23.8
		c3,6.5,9.2,6.6,14.8,8.1c-0.1-1.1-0.1-1.9-0.2-2.9c1.6,0.2,1.2,2.2,2.7,1.9c0.3-0.4,0.6-0.8,0.9-1.1c1,0.2,0.9,1.5,1.7,1.6
		c1.1,0.3,2.1,0,3,0.5c2.4,2.8,3.2,3.1,7.6,2.6c-1.3-1.3-3.3-1.4-4.1-3c-1.3-2.4-3.4-3.7-5.8-4.7c-0.6-0.2-1.5-0.4-1.2-1.5
		c4.9,0,7.4,3.8,10,5.9c5.2,1.1,9.7,2,14.1,3.1c3,0.8,4.9,1,7-0.4c-1.6-0.5-3-1.4-4.4-1.3c-2.3,0.1-4.2-0.8-5.8-2.1
		c-1.7-1.4-3.5-1.9-5.6-2c-2.5-0.1-4.9-0.6-7.2-1.5c-1-0.4-2.3-0.7-2.4-2.1c0.5-0.5,1-0.6,1.5-0.4c3.2,1.4,6.5,1.8,10,2
		c1,0,2,0.1,2.7,0.7c1.4,1.1,3,1.6,4.6,2.2c3.9,1.6,7.8,3.1,12.2,3.3c-0.2-2.3-2.1-2.6-3.6-3.2c-2.6-1.1-5-2.4-7-4.2
		c-3.7-0.5-7.4,0.1-10.8-1.1c0-0.6-0.1-1.1-0.1-2c-7.4-0.4-14.6-1.6-19.9-7.3c-1.9,0.5-3.6,0.9-5.6,0.7c1.6-1.3,3.3-1.2,4.8-2.1
		c-0.8-3-0.3-6.1-0.9-9.1c-1.3-6.6-2.6-13.2-2.2-19.9c0.6-11.1,1.3-22.1,3-33.1c1.2-7.5,2.3-15,1.1-22.6c-0.3-2.2,0.1-4.4,0.8-6.6
		c1.4-4.4,3.1-8.8,3.8-13.5c0.5-3.4,0.6-6.8,1-10.2c1.1-9.4,3.3-18.4,6.3-27.3c0.3-0.9,0.6-1.8,1.3-2.5c1.9-2.2,3.3-4.7,4.8-7.1
		c2.5-4.1,4.7-8.4,5.4-13.2c0.5-3.5,1.8-7,1.8-10.6c0-0.1,0.3-0.2,0.5-0.4c0.2,0.1,0.5,0.1,0.6,0.2c1.3,3.2,0.1,6.7,1,10
		c1.2-6.2,5-11.8,3-18.5c-0.1-0.5-0.1-1.1,0-1.6c0.6-5.5-2-9.8-5.6-13.4c-2.5-2.5-5.5-4.6-9.3-5.2c-4.8-0.7-9.1,0.7-13,3.1
		c-3.5,2.2-7.1,4.4-11,5.8c-3,1.1-5.4,2.9-7.6,5.1c-3.4,3.3-5.5,7.3-7,11.6c-1.5,4.2-1.4,8.6-0.3,12.9c0.2,0.9,0.6,1.8,1.2,2.6
		c2.1,2.6,4.2,5.1,6.3,7.6c0.2,0.2,0.5,0.3,0.8-0.2c0-0.8-1.3-1.1-1.1-2.5C685.9,205.3,686.4,200.1,683.1,195.6z M529.6,221.8
		c-1,0.6-1.4,0.8-1.7,1.1c-3.9,3.6-8.7,5.7-13.5,7.7c-2.3,0.9-4.5,2-6.7,3c-0.6,0.3-1.4,0.5-1.6,0.9c-1.1,2-3.1,2.5-4.9,3.3
		c-3.8,1.6-7.7,3.1-11.6,4.6c-3.6,1.3-7.3,2.2-11.2,2.5c-3,0.2-5.9-0.7-8.9-0.4c-3,0.4-6,0-8.9-0.2c-3.2-0.2-6.4-0.3-9.5,0.1
		c-2.8,0.4-5.8,0.3-8.5,1.5c-13,5.5-26.1,11-39.2,16.4c-3.7,1.5-7.7,2.7-11.8,2.7c-4.8,0-9.5,0.9-14.3,1c-1.6,0-3.4,0.3-4.9,1.7
		c-0.6,3.5-1.9,7-3.3,10.5c1.3,1.4,2.6,3,4.3,3.1c2.1,0.2,3.9,0.9,5.9,1.2c2,0.3,4,0.5,6,0c2.7-0.7,5.4-1.6,8.1-1.7
		c2.6-0.1,5.2-0.5,7.7-1.1c8.8-2.2,17.8-3.1,26.9-2.9c2.1,0,4.3,0,6.4-0.3c3.4-0.6,6.8-0.6,10.2-0.2c5.9,0.7,11.7,0.1,17.5-1
		c2.3-0.4,4.4-0.3,6.4,0.8c1.5,0.9,3.2,1,4.9,1.2c5.7,0.5,11-1.1,16.3-2.7c3.2-0.9,6.3-1.7,9.7-1.8c3.4,0,6.8-0.5,10.2-0.8
		c0.5,0,1.1,0,1.6-0.3c2.3-1.4,4.9-1.6,7.3-2c9.4-1.4,18.6-3.4,27.9-5.2c0.6-0.1,1.3,0.1,1.6-0.9c-0.7-0.5-1.5-1.1-2.2-1.7
		c-2.8-2.5-6.1-4.7-8-8c-1-1.7-1.8-3.6-2.7-5.4c-3.4-6.1-5.2-12.6-5.3-19.5C529.6,226.8,529.6,224.6,529.6,221.8z M659.6,169
		c-5.3,2.8-10.5,5.3-15.9,7.5c-1.1,0.4-2.1,1.1-3.1,1.7c-4.2,2.5-8.8,4.3-13.5,5.7c-0.9,0.3-1.9,0.5-2.7,0.8
		c-7.2,2.9-14.7,3.4-22.2,1.7c-2-0.5-3.9-0.7-5.9-0.6c-1.1,1-1.7,2.3-2.3,3.5c-2.9,5.4-5.1,11-6.6,16.9c-1,4-1.7,8.1-0.9,12.3
		c1.1,5.8,3.1,11.3,6,16.4c1.6,2.7,3.7,4.9,6.1,6.9c1.2,1,2.5,1.5,4,1.7c4.5,0.6,8.9,0.4,13.3-0.4c10.4-1.8,20.4-5.1,30.7-7.6
		c4.2-1,8.4-2.3,12.8-2.7c3.2-0.3,6.5-0.3,10-1.4c-1.7-1.7-2.9-3.4-3.7-5.4c-1.1-2.8-2.4-5.4-3.8-8.1c-4.3-7.7-5.5-16.3-7.2-24.7
		c-1.2-5.8-0.5-11.4,2-16.8C657.7,174,658.6,171.5,659.6,169z M596.4,244.6c-0.5-1-1.2-1.9-2.1-2.7c-1.7-1.5-3-3.3-4.2-5.2
		c-5.6-9.6-7.2-20-5.5-30.8c1.1-7,4.2-13.4,7.9-19.4c0.4-0.7,1.3-1.2,1-2.2c-3.1-0.7-6.2-1.4-9.3-2.2c-1.9-0.5-3.7-0.4-5.7-0.1
		c-4,0.7-7.9,1.8-11.8,2.9c-4.3,1.2-8,3.3-10.9,6.8c-1.3,1.6-2.8,2.9-4.2,4.3c-4.9,5.1-9.4,10.4-12.7,16.5c0.8,2.5,1.6,4.9,2.4,7.4
		c-1.8-1.4-2-3.5-3.2-5.3c-2.3,2.1-4.4,4-6.6,6c-0.8,3,0.7,5.6,1,8.5c0.6,6.4,2.2,12.6,5.7,18.1c1.6,2.6,3.3,5.2,4.8,7.9
		c2.2,3.8,5.5,5.9,9.8,6.2c1.1,0.1,1.5,1,2.4,1.1c7.7-2.5,14.9-6.2,22.8-7.7c-3.2,2.4-6.8,3.7-10.3,5.8c0.5,0.1,0.7,0.3,0.9,0.3
		c7.1-1.6,14.1-3.2,21.1-5.3c7.3-2.2,14.3-5.5,21.9-7c0.6-0.1,1.5-0.2,1.9-1.1C607.6,247.1,601.9,247.8,596.4,244.6z M786.1,341.3
		c-0.8-3.5-2.1-6.5-3-9.7c-1.6-5.8-2.6-11.7-3.3-17.6c-0.5-3.9-0.6-7.8-0.2-11.8c0.4-4.5,0.3-8.9-1-13.3c-1.1-3.7-1.8-7.5-2.9-11.1
		c-1.4-4.5-2.5-9.2-5.1-13.3c-0.7-1-1.1-2.3-1.2-3.6c-0.3-4.9-0.7-9.7-0.4-14.7c0.4-7.5,1.2-15.1,1.3-22.6c0-2.8,0.4-5.5,1.1-8.2
		c1.4-5.5,1.7-11.1,2.2-16.8c0.2-2.3-0.4-4.4-1.8-6.2c-4.5,0.1-9.1-1.3-12.5,2.4c-1.6,5.9-3.6,11.4-6.8,16.5c1.1,1,2.4,1,3.6,1.5
		c1.2,0.5,2.6,0.6,3.3,2.2c-3,0.3-5.7,0.3-8.3-1.5c-1.8,3.2-3.3,6.2-4.7,9.4c1.1,2.3,1.3,4.9,1.5,7.4c0.4,6.1,1.1,12.1,2.6,18
		c1.6,6.3,2,12.6,0.8,19c-0.4,2-0.3,4-0.2,6.1c0.3,9,3.4,17.3,6.4,25.6c0.1,0.3,0.2,0.6,0.4,0.8c1.6,1.6,2.1,3.7,2.9,5.6
		c1.1,3,2.3,5.9,3.7,8.8c3.5,7.6,6.9,15.3,9.9,23.2c0.7,1.8,1.6,3.6,1.6,5.5c0.1,2.6,0.8,5,1.3,7.5c0.2,1.1,0.7,1.9,1.5,2.7
		c3.3,3.1,7.3,3.7,11.5,3.4c1.5-0.1,3.1-0.3,4.3,0.5c2.2,1.4,4.5,1.8,7,1.6c1.3-0.1,2.5,0.6,3.7,0.7c0.5-0.3,1.1-0.5,1-1.5
		c-4.9-0.8-8.6-4.4-13.2-6.2c-0.8-0.3-1.8-0.9-0.9-2.4c2.3,1,5,1.2,7,3.3c1.4,1.5,3.5,2.2,5.5,2c2.5-0.4,5.1,0,7.1,1.1
		c3.9,2.3,8.1,2.5,12.2,3.3c0.5,0.1,1.2,0.4,1.7-0.6c-2.6-0.7-5.1-1.5-7.5-2.7c-4.3-2.1-8-5.3-12.9-6.2c-1.3-0.2-1.3-1.4-1.9-2.1
		c-5.8,0.2-10.7-2.1-15.1-5.1c-1.8-0.1-3.2,1.2-5,0.3C784.3,342.3,785.1,341.8,786.1,341.3z M686.3,215.3c-3.5-1.8-6.4-4.1-8.3-7.4
		c-2.9-5-3.5-10.5-1.9-16.1c1-3.6,2.4-7.1,4-10.4c3.1-6.4,8.1-10.7,14.7-12.9c2.8-0.9,5.3-2.2,7.7-3.6c1-0.6,2.1-1.1,3.1-1.6
		c2.5-1.1,5.1-1.7,7.8-1.7c8.4,0.1,14.6,4.1,19.1,10.9c1.2,1.8,2.2,3.9,2.4,6.2c0.6,7.6,0.3,15.1-1.9,22.5c-0.8,2.9-1.9,5.7-3.7,8.1
		c-3.7,4.6-6.7,9.6-11.2,13.4c-1.6,1.3-2.3,3-2.3,5c0,2.3-0.5,4.4-1,6.6c-0.5,2.3-1,4.5-1.5,6.9c1.7,0.9,3.3,1.5,5,1.4
		c6-0.4,11.5-2.6,16.2-6.1s8-8.4,9.9-13.9c1.7-4.6,3.9-8.7,6.4-12.8c1.5-2.4,2.3-5.2,3.1-7.9c-1.6,1.2-2.2,3-3.2,4.6
		c-2,3-3.8,6.2-7,8.1c-3.2,1.9-6,4.3-9.2,6.3c-0.4,0.3-0.9,0.6-1.3,0.9c-1.4,0.8-2.6,0.6-3.4-0.9c0.1-3.1,1.1-5.9,2.3-8.6
		c0.8-1.8,1.5-3.5,1.9-5.4c1.6-6.9,3.5-13.7,3.7-21c0.2-6.8-1.2-13.1-4.3-19.1c-0.3-0.7-0.8-1.3-0.9-2c-0.1-1.8-1.1-3.2-2.1-4.5
		c-1.1-1.5-1.8-3.1-1.7-4.8c0.5-1.6,2.1-2.4,2-4c-0.7-0.4-1.3-0.3-2-0.3c-6.1,0-12.2,0.3-18.2-0.1c-7-0.4-13.8,0.8-20.5,2.4
		c-2.6,0.6-5.3,1.2-7.3,3.1c-1.7,1.5-3.7,2.5-5.8,3.3c-3.5,1.5-7.1,2.9-10.6,4.4c-1.2,0.5-2.4,0.9-3.1,1.8
		c-1.8,4.9-3.4,9.6-5.2,14.3c-1,2.7-1.3,5.4-1.1,8.2c0.6,7,2.3,13.8,4.2,20.6c1,3.7,3.2,7,4.4,10.6c1.2,4,3.4,7.3,6,10.5
		c2.7-3.5,6.9-2.5,10.6-3.3C683.3,223.2,685.7,219.7,686.3,215.3z M354.2,266.8c-0.9,5.2-1.4,9.8-0.3,14.5c0.4,1.8,0.5,3.6,0.2,5.1
		c0.5,1.4,1.4,2.2,2.1,3.1c2.4,3.1,4.9,6.2,6.8,9.6c3,5.4,3.8,11.5,4.5,17.5c0.1,1.2-0.5,2-1,2.8c0.2,1.5,0.2,3,1.1,4.1
		c2.8,3.6,6.3,6.4,10.6,7.9c2.1,0.7,4.4,0.9,6.5,1.5c5.3,1.5,10.1-0.6,15-1.9c0.9-0.2,1.4-0.8,1.1-2.1c-2.7,0.2-5.4,0.4-8.6,0.6
		c2.5-2.6,5.5-1.5,8.1-2.4c-0.4-2-1.5-3.1-3.1-3.9c-2-1.2-4.2-2.5-4.9-4.8c-1.4-4.2-3.3-8.4-2.3-13c0.2-1,0.2-2.1-0.3-3
		c-5.9,1.4-7.3,1.3-9.2-0.6c1.2-1.5,3-1.4,4.7-1.6s3.3-0.7,5-0.5c0.3-1.1,1-2,0.6-3.1c-8,2.1-9.3,2-10.8-0.6
		c3.8-1.8,8.2-1.3,12.1-2.9c0.4-0.8,0.8-1.6,0.4-2.7c-3.6,1.3-7.3,1.8-11,1.8c-1.2,0-2.6,0-3.3-1.8c4-1.2,8.2-0.8,12-1.8
		c1.1-0.3,2.1-0.1,3.3-0.1c0.2-2.2,2.4-4.2,0.5-6.5c-5.1,2.8-10.3,4.1-16,2.5c-0.8-0.2-1.7-0.5-2.5-0.5c-4,0.1-6.4-2.3-9-5.1
		c1.5-3.9,3.5-7.7,4-11.3c1.8-2.5,4.7-1.9,6.1-4.1C369.2,264.9,361.5,264.5,354.2,266.8z M396.9,282.5c-1.1,4.6-2.1,8.8-3.2,13
		c-1.8,6.9-2.3,13.8,0.2,20.6c0.7,1.8,1.6,3.3,3.3,4c2.9,1.3,5,3.2,6,6.2c1.5,0,2.8,0.7,4.2,0.5c3.4-0.4,6.8-0.7,10.2-1.1
		c0.7-0.1,1.5-0.2,2.2-0.4c2.1-0.7,2.5-1.5,2-3.6c-0.2-1-0.5-2.1-0.6-3.1c-0.1-2.1-1.2-3.3-3.1-3.9c-2.6-0.8-5.2-1.8-7.2-2.5
		c-3.3-4-4.2-8.3-4.4-12.8c-3.7,0.4-3.7,0.4-5.2-1.6c1.3-2.4,3.4-1.3,5.3-1.2c0.5-0.5,0.5-1.2,0.5-1.8c0.1-0.4,0.2-0.9-0.2-1.2
		c-5.5,0.9-6.3,0.7-7.9-1.9c2.5-2.4,5.8-0.7,8.5-1.6c0.3-0.8,0.4-1.6-0.1-2.8c-1.5,1.7-3.5,1.5-5.3,1.7c-1.9,0.2-4.1,1-5.2-1.5
		c0.8-3.1,3.6-1.7,5.7-2.6c-1.4-0.8-1.9-2-2.8-2.9C398.7,282.2,397.8,282.4,396.9,282.5z M806.3,194.3c1.3,6.8,3.1,11.6,5.4,14.1
		c-1.2-5.3-2.5-10.4-2.4-16c1.4,1.2,0.7,2.8,1.8,3.7c0.6-3.2-0.5-6.4,0.2-9.6C809.5,189.1,808.3,192,806.3,194.3z M465.2,242.3
		c4.3,0.5,8.5,0.5,12.8,0.9c2.5,0.2,5-0.6,7.9-1.9C478.4,240.1,471.7,240.6,465.2,242.3z M815.3,351.5c5.4,4.8,12.8,7.2,16.5,5.1
		C826.1,354.8,820.6,353.5,815.3,351.5z M413.7,279.4c-2.4-0.1-4.4,0-6.8,1C409.7,281.5,411.4,279.9,413.7,279.4z M408,286.5
		c0.1-1.1,0.6-1.9,0-2.8c-0.9,0.3-1.9,0.6-3.3,1C406,285.4,406.8,285.9,408,286.5z M754.4,200.7c1.2-1.6,2.1-3.1,1.6-5.1
		c-0.3,0.2-0.6,0.2-0.7,0.4C755,197.5,754.7,199.1,754.4,200.7z M801.6,114.3c-1-0.7-1.3-0.2-1.7,0.4
		C800.6,115,801,114.9,801.6,114.3z M792.2,117.4c-0.5,0.6-1.8,0.7-0.2,2.1C791.7,118.6,792.7,118.4,792.2,117.4z"/>
	<path d="M445,573.7c-0.9,1.2-2,0.9-3,0.9c-3.2,0.1-6.4-0.3-9.5-0.9c-3.1-0.7-6.1-0.7-9.2,0.1c-2.1,0.6-4.2,0.2-6.5,0
		c-2.3,3.8-2.5,8.1-2.6,12.3c0,3,0.5,6,1.5,8.8c1.5,4.3,1.5,8.7,1.3,13.2c-0.4,6.8-0.8,13.6-0.3,20.4c0.2,2.3,0.9,3.9,2.7,5.1
		c0.9,0.6,1.7,1.3,2.6,1.8c1.5,0.9,3,1.7,3.5,3.3c4.7,1.9,9.5,1.7,14.6,1.6c-1.3,1.8-2.7,2.2-4.2,2.3c-4.1,0.2-8.1-0.3-11.8-2.2
		c-4-2-7-5.2-9.5-8.7c-1-1.4-0.8-3.3-0.8-5c-0.2-6.4-0.1-12.8,0.7-19.1c0.3-2.9,0.4-5.7-0.6-8.5c-0.2-0.5-0.3-1.1-0.6-1.5
		c-3.1-4-3.1-8.8-2.6-13.4c0.4-3.7,2-7.3,3.1-11c0.5-1.4,1.7-2,3.1-1.6c2.8,0.8,5.5,0.4,8.2-0.2c2.2-0.5,4.4-0.3,6.6,0.1
		c3.8,0.8,7.5,1.4,11.4,1.3C443.7,572.7,444.4,572.7,445,573.7z"/>
	<path d="M587,610.9c1.4-0.1,2.4,0.7,3.5,1.2c6.2,2.9,12.3,5.8,18.5,8.8c10.2,4.9,20.7,9,32,10.6c2.2,0.3,4.4,0.8,6.1,2.5
		c0.5,0.6,1.3,0.7,2,0.8c4.5,1.1,9.1,2.4,13.7,3.2c3.5,0.6,7-0.2,10.5-0.7c1.4-0.2,2.9-0.6,4.3-0.3c0,1.1-0.7,1.2-1.2,1.4
		c-8.9,2.4-17.7,1.8-26.4-0.9c-1.6-0.5-3.2-1.2-4.6-2.2c-2.4-1.6-5-2.3-7.8-2.6c-5.9-0.7-11.6-2.4-17.2-4.6
		c-9.6-3.6-18.8-8-27.3-13.7c-1.4-0.9-3-1.5-4.5-2.3C587.8,612,587.1,611.9,587,610.9z"/>
	<path fill="none" d="M800.4,207c-0.3-3-1.7-5.7-1.5-8.5c-0.3-0.7-0.8-0.7-1.3-0.8c0.4-1,0.9-1.4,2.1-1.5c1.1,1.9,0.4,4.2,0.8,6.3
		c0.4,2.2,1.6,4.1,1.6,6.4C801.3,208.4,800.4,208,800.4,207z"/>
	<path d="M641.2,617.4c4,0,8-0.5,12.3,0.1C651.7,618.8,647.1,618.7,641.2,617.4z"/>
	<path d="M637.3,616.4c-2.6,0.3-4.2-0.7-6.2-1.1C633.1,614.3,634.7,614.6,637.3,616.4z"/>
	<path d="M659.8,623.9c2,1.7,1.5,3.5,1.9,5.5C660.2,627.8,659.8,626.3,659.8,623.9z"/>
	<path d="M582.2,608.1c1.7-0.1,3.3,0.1,5.2,1.4C585,609.8,583.7,608.8,582.2,608.1z"/>
	<path d="M588.2,595.4c-1.2,0.3-2.1,0-3-0.7C586.7,593.7,586.7,593.7,588.2,595.4z"/>
	<path d="M577.9,594.1c1.2-0.8,1.9-0.4,2.6,0.4C579.5,595.1,578.8,594.8,577.9,594.1z"/>
	<path d="M652.3,609c-1.2-0.1-1.2-1.3-1.8-1.9C651.6,607.3,652,608.1,652.3,609L652.3,609z"/>
	<path d="M765.4,447.3c-0.1-0.8,0.5-1.2,1.1-1.8C766.6,446.6,766.1,447,765.4,447.3L765.4,447.3z"/>
	<path d="M622,612.5c0.6-0.6,1.1-0.4,1.5,0.1C623,613.2,622.5,613.1,622,612.5z"/>
	<path d="M652.2,609.1c0.7,0.3,1,0.8,1.3,1.8C652.5,610.3,652.1,609.8,652.2,609.1L652.2,609.1z"/>
	<path d="M617.5,609.9c-0.3,0.3-0.6,0.2-0.8-0.1c-0.2-0.2-0.1-0.4,0.2-0.5C617.3,609.3,617.5,609.4,617.5,609.9z"/>
	<path fill="none" d="M683,498.9c3.2,3.9,3.2,8.5,3.1,13.2c0,1.7-0.1,1.7,0.9,3.7c-0.9,0.4-1-0.5-1.4-0.9c-1.1-1.2-2-2.5-3.1-3.6
		c-4.3-4.5-5.2-9.9-4-15.7c1.5-7.4,5.5-13.3,11.5-17.8c0.6-0.4,1.3-0.8,2-1c4.7-1.8,9.1-4.2,13.3-6.8c3.6-2.2,7.5-3.4,11.8-3
		c4.2,0.4,7.4,2.7,10.2,5.4c3.7,3.6,6,8,5.5,13.4c0,0.6-0.1,1.3,0.1,1.9c0.5,1.6,0.9,3.3,0.5,5c-1.1,4.4-2,8.8-3.7,13.1
		c-0.4-3.5,0.4-7-0.9-10.6c-0.6,0.4-0.9,0.5-0.9,0.6c0,3.5-1.2,6.8-1.7,10.3c-1.2,7.7-5.4,14-9.8,20.2c-0.8,1.1-1.4,2.1-1.8,3.3
		c-2.8,8.9-5.3,18-6.1,27.4c-0.3,3.7-0.8,7.4-1.3,11.1c-0.6,4.1-2.1,8-3.4,12c-0.8,2.4-1.2,4.8-0.9,7.2c1.1,7.2,0.1,14.3-1.1,21.3
		c-1.9,11.7-2.6,23.5-3.2,35.3c-0.2,4.5,0.4,8.9,1.2,13.3c0.9,4.8,1.5,9.6,1.7,14.6c-1.3,0.9-3.1,0.7-4.6,2.2c2.1-0.3,3.8-0.2,5.5-1
		c5.3,5.9,12.4,7,19.7,7.4c0.1,0.7,0.2,0.9,0.2,1.2c0,0.2,0.1,0.4,0.1,0.9c3.4,1.2,7.1,0.5,10.7,1.1c2.1,1.8,4.6,3.2,7.2,4.3
		c1.3,0.5,3.1,0.9,3.4,3.1c-1.9-0.3-3.8-0.2-5.5-0.9c-3.8-1.4-7.7-2.3-11.2-4.6c-0.9-0.6-2-0.7-3.1-0.8c-3.4-0.2-6.8-0.7-9.9-2.1
		c-0.4-0.2-0.8-0.1-1.2,0.2c1,2.5,1,2.5,12.8,4.3c1.2,0.9,2.4,1.7,3.7,2.5c1.1,0.7,2.3,1.3,3.6,1.1c1.9-0.2,3.5,0.8,5.4,1.6
		c-2.7,1.4-5,0.7-7.3,0c-4.4-1.3-8.9-1.9-13.9-3c-2.7-2.2-5.2-6-10.1-6.1c-0.1,1.3,0.9,1.4,1.6,1.7c2.3,0.8,4.2,2.1,5.3,4.3
		c0.9,1.6,2.7,2,4.1,3c-2.9,1-5.3,0.7-7.3-2.2c-0.9-0.7-2.1-0.4-3.2-0.6c-0.4-0.5-0.8-1-1.2-1.5c-1-0.2-0.6,1.2-1.2,1
		c-1.5,0.1-1.1-1.6-2.2-1.9c-0.2,0.2-0.5,0.3-0.6,0.6c-0.5,0.7,0.6,1.3,0,2.3c-5.3-1.6-11.5-1.6-14.4-8.2
		c0.5-10.4-1.7-20.8-4.1-31.2c-2.4-10.1-3.6-20.3-4.9-30.5c-1.2-9.7-1.3-19.6-0.6-29.4c0.3-5.6,1.7-10.9,3.5-16.2
		c0.2-0.6,0.7-1.1,0.6-1.8c-0.6-3.3,0.4-6.6,0.4-9.9c0-1.6,0.2-3.2-0.4-4.7c-0.2-0.6-0.2-1.3-0.1-1.9c0.2-3.2,0.5-6.4,0.5-9.6
		c0-6.4,1.6-12.4,3.6-18.4c1.5-4.7,2.7-9.4,3.3-14.3c0.3-2.1,0.7-4.2-0.9-6.1c-0.5-0.6-0.5-1.6-0.7-2.4c-0.6-2.3-1.6-4.4-3.3-6.1
		C684.4,499.1,684,498.4,683,498.9z M715.7,486.8c-1.1,3.3,1.4,6.4,5.1,7.3c1.3,0.5,1.1,1.8,2.2,2c0.7-2.9-1.7-3.1-3.2-4
		C718.6,490.3,717.5,488.3,715.7,486.8z M686.4,542.6c-1.1,2.4-0.3,4.5,2.3,6.1C687.7,546.8,688.3,544.3,686.4,542.6z M682.8,583.2
		c1.8,1.4,1.8,1.4,3.5,1.1C684.7,582,684.7,582,682.8,583.2z M690.3,669.1c-0.6,2-0.1,3.1,1.1,3.8c0.8,0.5,1.6,0.4,2.1-0.9
		C692,671.8,691.4,670.5,690.3,669.1z M690,549c1.4,1.6,1.1,4.2,2.9,5.6C691.8,552.8,692.7,550,690,549z M727.3,478.2
		c-1.7,0.2-1.7,0.2-2.5,1.5C725.9,479.6,726.8,479.2,727.3,478.2z M687.1,588.2c-0.5,0.4-0.4,0.9-0.1,1.4c0.3,0.3,0.2,1,1,1
		C688.2,589.6,688.3,588.7,687.1,588.2z M700.6,526.8c0.4-0.5,0.3-0.9,0-1.2c-0.1-0.1-0.4,0-0.5,0.1
		C699.9,526.2,700,526.5,700.6,526.8z M693.8,558.1c-0.6,0.8-0.1,1.1,0.4,1.6C694.7,558.8,694.6,558.4,693.8,558.1z"/>
	<path fill="none" d="M779.4,456.2c-0.5,1.2-1.7,1.9-2.1,2.5c-0.7,1.2,0.2,1.7,0.2,2.5c-0.3,0.6-0.7,1.2-0.9,1.7
		c0.2,0.6,0.5,0.9,0.9,0.9c1.1,0.1,1.6-0.9,2.4-1.3c0.6-0.7-0.1-1.6,0.6-2.2c0.8-0.7,1.7-1.5,2.5-2.2c0.4-1.3-0.1-2.6,0.5-3.8
		c2.2,5.8,2.2,5.8,3.5,6.3c0.5-1.1-1.2-1.4-0.7-2.6c1.1,0.2,1.7,1.9,3.2,1.4c0.1-0.9-0.6-1.1-1.1-1.4c-0.4-0.3-0.9-0.6-0.9-1.2
		c0.5-0.5,0.9,0.2,1.4,0.2c0.1-0.1,0.2-0.3,0.2-0.5c-1.2-5.4-0.1-10.8,0.6-16.2c0.4-3,1-6,0.9-9.4c-1.1,0.8-1.1,1.8-1.3,2.6
		c-1.1,4.9-1.8,9.8-1.9,14.9c0,1.8-0.7,3.2-2,4.5c-2.2-6.2,1.8-20.3,9.4-33.5c1.1-0.7,2.2-1.3,3.7-1.6c-3.4,9.2-5.5,18.4-4.9,22.7
		c2.5-6.1,4.8-11.9,7.2-17.9c1.5,3.8-0.7,7.4,0.4,10.9c1.2-2.6,0.4-5.5,1.1-8.2c0.7-2.7,0.1-5.7,1.4-8.4c0.4,3.5,0.1,7,1.2,10.5
		c0.4-3.4,0.1-6.7,0.2-9.9c1.1-0.7,2.2-0.1,3.1-0.2c1.3,1.8,2,3.8,2.5,5.9c1.1,3.9,2.1,7.8,3.1,11.7c0.4,1.4,0.5,2.7,0.3,4.1
		c-0.5,4.7-1,9.5-2,14.3c-1.1-3.3-2.2-6.7-3.4-10c0.7,4.9,1.8,9.7,3.8,14.2c1.1-0.2,1.6-0.9,2.2-1.6c0.5-5.8,1.5-11.6,1.1-17.5
		c-0.1-1.9,0.1-3.8-1.4-5.4c-0.6-0.7-0.6-2-0.8-3c-0.7-4-1.8-7.9-3.5-11.8c2.5,0.2,4,1.2,5,3.3c1.1,2.5,2,5.1,3.2,7.7
		c-0.2-3.2-1.3-6.2-2.9-9.2c2.1-0.1,2.8,1.3,3.5,2.6c3.2,6,5.6,12.2,7.2,18.7c0.6,2.6,1.4,5.1,1.7,7.7c0.2-8.8-1.9-17.1-6-25
		c1.9,1,3.4,2.4,4.7,4.8c2,3.6,4.2,7.2,5.8,11c2,4.6,2.5,9.7,2.9,14.7c0.1,1.3-0.9,2.1-1.7,3.3c0.1-1.9,0.8-3.4,0.2-5
		c-1.3,1.3-0.4,3.7-2.7,4.7c-0.7-2.1,0.4-4,0.2-5.9s0-3.9-0.2-5.7c-0.3-2-0.4-4-1.7-5.9c-0.9,1.2,0,2.2-0.1,3.3
		c0,1.2,0.2,2.3,0.2,3.5c0,1.1,0,2.1-0.1,3.2c-0.1,1.2-0.4,2.3-0.5,3.5c-0.2,1.2-0.3,2.3-1.3,4.1c-0.1-5.3-1.1-9.7-2.5-14.1
		c1.3,7.2,2.2,14.5,0.5,21.5c0.2,0.9,1.2,0.3,1.2,1.2c-0.4,1.2-2,1.4-2.5,2.6c0.5,1,1.4,0.9,2.4,0.8c1.3-1.4,2.7-3,4.2-4.7
		c0.1,1.8-1.7,2.8-1.5,4.9c3.4-3.3,3.5-7.9,5.7-12.2c0.3,2.6,0.1,4.3-0.6,6c-2.9,6.4-6.5,12.4-10.6,18.2c-1.8,2.6-4.2,3.9-7.8,4.3
		c-2.2-5.1-6.4-7.5-11.3-9.2c-0.6,0.9,0,1.2,0.4,1.5c0.5,0.3,1.1,0.6,1.7,0.8c3.3,1.3,5.9,3.2,7.3,6.7c-2.6,1-4.4,2.7-5.5,5.3
		c-1.1,2.6-3.1,4.8-4,7.5c-2.9,0.7-3.2,0.5-7.2-2.9c0.6-1.6,0.6-1.6,2.6-3.1c-2.6-0.4-3,1.6-3.8,2.7c-0.2,1.5,1,1.8,1.7,2.6
		c-0.3,0.8-0.9,1.5-1.5,2.3c-1.2-0.2-2.5-0.4-3.8-0.5c-1.6-0.2-3.1-0.6-3.8-2.4c-0.3-0.9-1-1.7-2.2-0.7c1.2,2.8,1.3,2.9,5.2,4.5
		c0.2,0.3-0.1,0.6-0.2,0.8c-0.1,0.2-0.3,0.3-0.5,0.6c-1.8-0.2-3.7-0.1-5.2-1.2c-0.9,0.6,0.1,1.1-0.4,1.6c-3.6,1.3-7.6-0.2-9.7-3.1
		c-3.5-5-4.4-11-6.5-16.6c-0.9-2.3-1-4.4-0.8-6.8c0.2-1.9,1.1-3.4,2-5.1c-1-0.2-1.3,0.4-1.5,0.9c-2.1,3.7-3.4,7.5-1.5,11.8
		c1.2,2.7,2,5.6,2.9,8.1c-5.8,2.6-12.1,2.8-17.5,5.2c0.1,5.1-2.5,8.9-4.6,12.8c-2.7,5.2-8,7.2-12.3,10.6c-0.7-1.4,1-1.9,0.2-3.1
		c-1.7,0.7-2.1,2.8-3.9,3.5c-0.5-1.1,0-2.2,0.5-3c3.8-6.8,5.1-14.4,6.3-22c0.6-3.9,1.2-7.8,0.9-11.7c-0.5-5.8-2.1-11.3-5-16.3
		c-1.6-2.7-2.9-5.6-4.2-8.2c0.3-1.5,1.1-2.2,1.8-2.9c7.2-1.8,11.1-1.6,19.4,1.2c-3.4,0.8-6.5,1.1-9.8-0.1c0.6,2.4,3.6,1.3,3.8,3.4
		c2.7,0.3,5.2-0.9,7.9-0.4c1.1,0.2,2.6-0.9,3.8-1.5c1.8-0.9,3.7-1.3,5.6-1.4c1-2.3,3.3-4.1,6.9-5.2c-0.5-0.9-1.4,0.3-2-0.3
		c-0.3-1,0.5-1.4,0.7-1.8c0.8-0.8,1.4,0,2.1-0.4c0.4-2.8,1.8-5.1,3.6-7.6c0.2,1.3-0.3,2.1-0.5,2.9c-0.2,0.9-0.6,1.7,0.4,3.1
		c2.2-7.5,4.2-14.6,9-20.5c-2.1,5.7-2.9,11.5-2.2,17.6c0.7-4.1,1.3-8.2,2.1-12.3c0.4-2,0.8-4,1.3-5.9c0.2-0.8,0.4-1.6,1.6-2.2
		c-2.4,8.5-2.7,16.9-2.5,25.3c-3.5-0.3-6.1,1.6-8.7,3.3c-1,0.7-1.3,2-1.4,3.1c-0.5,3.4-1.5,6.6-2.6,9.7c2.6,2.4,4.6,1.8,6.4-1.8
		c-1.7,0.6-2.7,2.5-4.6,1.6c-0.1-0.2-0.3-0.4-0.3-0.5c1.1-3.2,2.2-6.4,3.3-9.6c0.4-1.3,1.3-1.8,2.6-2.1c0.3,0.7-0.7,0.8-0.4,1.4
		C778.2,456.6,779,456,779.4,456.2L779.4,456.2z M792.2,447.4c0-0.6,0.2-1.3-0.4-1.9C791.8,446.2,791.8,446.8,792.2,447.4
		c0.6,3.7,1.5,7.3,3,10.8c-0.2-1.8-0.5-3.6-1-5.2C793.5,451.1,793.5,449,792.2,447.4z M803.1,457.1c0.2,0.4,0.4,0.7,1,0.8
		c-0.4-2-0.8-3.9-1.3-5.8c-0.4-2-0.9-4-1.3-5.9c0.1,3.4,0.4,6.8,1.5,10c-1.1-0.4-1.3-1.6-1.9-2.4c-0.3-2.4-1.2-4.8-0.8-7.2
		c0.5-3.4-0.1-6.6-0.1-10.3c-2.1,4.7-2.2,16.9-0.3,19.6c0.8-0.5,0.5-1.6,1.2-2.1c-0.2,1.3,0.2,2.4,0.8,3.5
		C802.4,457.6,802.8,457.3,803.1,457.1z M820.1,460.2c1.9-0.7,1.3-3,2.5-4.1c0.8,1.3-0.3,2.8,0.4,4.1c1-1.9,1.1-3.8,0.9-5.8
		c-0.8-7.5-1.6-15-2.5-22.5c-0.1-0.5,0.1-1.3-1.1-1.2c0.5,4.9,0.4,9.7,0.3,14.6c0,4.8-0.6,9.7-1.8,14.2
		C819.3,460.1,819.7,460.2,820.1,460.2z M803.3,478.9c0.7,1.7,2.1,2.9,3.9,4.6c-3-1-4.5-3.2-7-4.2c0.7,2.8,2,4.8,4.2,6.4
		c1.3-1.7,3.1,0.5,4.7-0.6C808.4,481.8,805.7,480.4,803.3,478.9z M807.6,456.5c-1.7-6.5-3-13-4.9-19.4
		C803.8,443.7,804.6,450.4,807.6,456.5z M779.8,438.1c-3.7,6.7-4.9,10.8-4,13.4C776.5,446.8,779.6,442.9,779.8,438.1z M798,458.4
		c0-3.1-0.4-6.2-1.3-9.2C796.6,452.3,796.9,455.4,798,458.4z M792.3,458.5c0.6-2.1-0.1-4.1-0.5-6.1
		C791.7,454.5,791.3,456.6,792.3,458.5z M790.7,458.3c0.4-1.8-0.4-3.4-0.8-5.2C789.7,454.9,790.2,456.6,790.7,458.3z M746,497.5
		c1.2,0.4,2.2,0.8,3.2,0C748.2,496.7,747.3,496.9,746,497.5z M818.9,449.3L818.9,449.3c-0.1,0.3-0.1,0.7-0.1,1
		C818.8,450,818.8,449.7,818.9,449.3z M739.7,458.2c-0.3-0.8-0.7-0.6-1.3-0.3C738.8,458.3,739.2,458.7,739.7,458.2z"/>
	<path fill="none" d="M541.7,564c2.1,2.5,5.2,2.9,7.9,3.9c0,0.9-0.7,0.9-1.2,1.4c-1.1-0.8-2.4-0.8-3.8-0.6c-1.9,0.3-3.8,0.4-5.7,0.6
		c-1.7,0.2-3.3,0-4.9-0.7c-1.9-0.9-4.1-0.7-6.2-0.3c-7.5,1.6-14.4,5-21.8,7.1c-7.2,2.1-14.5,4.3-21.6,7c-9.2,3.5-18.1,7.5-26.8,11.9
		c-1.3,0.7-2.6,1.4-3.6,2.6c-0.9,1.1-2.3,1.7-3.7,1.5c-3-0.4-5.9,0.5-8.9,0.8c-4.3-1.7-5.2-5.7-5.7-9.6c-0.4-2.6,1.4-4.8,3.6-6.4
		c2.4-1.8,4.6-3.8,6-6.7c4.2-0.3,7.9-2,11.7-3.8c3-1.4,6-2.8,9-4.2c3.4-1.6,6.5-3.5,9.5-5.8c4.5-3.4,9.1-6.8,13.7-9.9
		c4.3-2.9,8.9-5.8,14-7.5c3.6-1.2,7.4-1,11-1.4c4.9-0.5,9.7-1.2,14.5-1.8c6.9-0.9,13.1-3.7,19.5-5.7c0.9-0.3,2.1-0.4,2.4-1.8
		c0.1-0.7,1-0.7,1.6-0.8c7.7-2.1,15.1-5.1,22.5-8.1c2.1-0.8,4.2-1.4,6.6-2.2c0.9,5.1,2.6,9.5,5.5,13.3c2.8,3.8,6.1,7,9.9,10.1
		c0,0.1,0,0.5,0,1c0.4,0.8,1.1,0,2.1,0.5c2.5,3.6,5.3,7.6,8.1,11.6c-0.5,1-1.5,0.9-2.3,1.2c-5.1,1.4-10.3,2.7-15.4,4.1
		c-3.9,1.1-7.8,0.8-11.7,1.3c-3.7,0.5-7.4,0.7-11.1,1.1c-1.8,0.2-3.6,0.3-5.4,0.2c-2-0.1-4,0.2-5.7,1.5c-4.2-1.7-7.9-4.3-12.2-5.4
		C542.8,564,542.4,563.5,541.7,564z M516.2,563.3c-0.1-0.1-0.2-0.2-0.2-0.2c-4.6,1.4-9.2,3.1-14.1,3.4c0,0-0.1,0.1-0.1,0.2
		c-0.1,0.4,0.4,0.1,0.1,0.3C506.8,568.1,513.6,566.3,516.2,563.3z M442.4,587.3c0.4,1.7-0.6,3.8,1.5,5.1c1.3-1.5,0.1-3.1,0.7-4.5
		c0.5-1.1,2.1-1.2,2.7-2.7C445.2,585.3,443.6,585.7,442.4,587.3z M448,584.3c1.9-0.5,3.2-1,4.7-2.6
		C450.7,582.2,449.2,582.3,448,584.3z M528.3,567.7c-1-2.1-2.2-2.6-3.6-2.9C525.7,565.6,526.3,567,528.3,567.7z M495.1,567.3
		c1.3,0,2.3,0.5,3.3-0.9C497.1,566.3,496.1,566.1,495.1,567.3z M530.7,559.9c0.9,0.4,1.5,0.6,2.3,0.2
		C532.4,559.4,531.8,559.2,530.7,559.9z M456.1,580.8c1-0.2,1.6-0.7,2.1-2C457.1,579.5,456.2,579.5,456.1,580.8z"/>
	<path fill="none" d="M786.2,644.6c-1.1,0.6-2,1.1-3.1,1.6c1.9,0.5,3.5-0.4,5.3-0.6c4.5,3.1,9.3,5.4,15,5.1c1,0.2,0.3,1.2,1.4,1.9
		c5.1,1,9.6,4.5,14.6,7c2.1,1.1,4.3,1.6,6.5,2.1c-0.3,1.1-0.9,0.9-1.4,0.8c-2.1-0.3-4.2-0.7-6.3-1c-1.5-0.2-2.9-0.6-4.2-1.4
		c-3-1.7-6.1-2.5-9.7-2.1c-1.9,0.2-3.9-0.8-5.4-2.3s-4.5-2.6-6.9-2.7c-0.3,1.2,0.5,1.8,1.4,2.1c3.2,0.9,5.4,3.5,8.6,4.6
		c1.4,0.5,3,1,4.5,1.8c-0.3,1.1-1,1.5-1.9,1.1c-1.3-0.5-2.7-0.6-4.1-0.5c-1.8,0.1-3.3-0.2-4.9-1.2c-1.6-1-3.3-1.3-5.2-0.9
		c-3.3,0.7-6.4-0.5-9.2-1.8c-2-0.9-3.5-2.6-3.9-5.1c-0.4-2.2-1-4.3-1.1-6.6c-0.1-2.2-1.1-4.3-1.9-6.4c-3.2-8.1-6.6-16.1-10.4-24
		c-1.1-2.3-1.9-4.7-2.9-7.1c-0.8-2.1-1.4-4.3-3-5.9c-0.3-0.3-0.4-0.7-0.6-1.1c-3-8.4-6-16.9-6.3-26c-0.1-1.6-0.1-3.2,0.2-4.8
		c1.3-6,1.2-12.1-0.4-18.1c-1.9-7.4-2.5-14.9-3.3-22.4c-0.1-1.5-0.4-2.9-1.2-4.4c1.4-3.2,2.9-6.3,4.8-9.4c2.6,1.8,5.4,1.5,8.6,1.4
		c-2.1-2.4-5.1-2.2-7.3-3.8c3.3-5.2,5.2-10.8,6.9-16.8c0.7-0.4,1.7-1,2.7-1.6s2.1-1,3.3-0.9c2.1,0.3,4.2,0.4,6.3,0.2
		c1.7,2.1,2.1,4.4,1.8,7c-0.6,5.5-1,11-2.3,16.4c-1.5,6.2-1,12.5-1.5,18.8c-0.4,4.9-0.5,9.8-0.9,14.7c-0.4,4.1,0.5,8.1,0.6,12.1
		c0,1.1,0.5,2.3,1.1,3.3c2.8,4.4,3.8,9.4,5.4,14.3c0.8,2.5,1.4,5.1,2,7.7c1.4,5.2,2,10.4,1.6,15.8c-0.9,10.1,1.2,19.9,3.7,29.7
		C784.1,638.3,785.4,641.3,786.2,644.6z M765.8,565.9c-2.1,0.8-3.5,2.2-4.3,5C763.3,569,765.1,568,765.8,565.9z M777.3,645.6
		c0.7-1.9,0-3-0.8-4.3C776.3,643.4,776.3,643.4,777.3,645.6z M772.6,629.1c0.5-0.7-0.2-1.1-0.4-1.6
		C771.8,628.2,771.8,628.7,772.6,629.1z M763.7,520.5c0.2-1-0.2-1.4-1-1.5C762.6,519.8,762.8,520.3,763.7,520.5z"/>
	<path fill="none" d="M641.4,596.8c-3.1-0.8-6.2-1.5-9.2-2.3c-3.9-1.1-7.9-1.6-12-1c-2.6,0.4-5.1-0.1-7.6-0.5
		c-2.7-0.4-5.5-0.7-8.3-0.6c-3.6,0-6.9-0.8-10-2.7c-2.5-1.5-5.3-2.2-8.1-2.9c-3.4-0.9-6.8-1.6-10.2-2.5c-0.7-0.3-0.2-1.3-0.9-1.5
		c-5.1-0.9-8.6,0.8-10.7,5.3c-0.8,1.8-2.2,3.1-3.2,4.6c-0.2,1.1,0.5,1.7,0.9,2.4c1.4,2.4,2.8,4.8,4,7.3c1.4,3,3.5,5,6.7,5.9
		c3.4,1,6.5,2.5,9.7,4.8c-1.5,1.2-2.8,2.2-4.2,3.3c-4.5-1-8.9-2.4-13.4-4.3c0.3,3.6,2,4.6,10.4,6.4c-0.2,1-0.9,1.3-1.6,1.6
		c-3.4-0.6-6.2-2.9-9.7-3c-0.4,0-0.8,0.2-1.2,0.9c1.4,3.3,5,3.7,7.8,5.1c-0.1,1.1-0.7,1.3-1.5,0.9c-1.4-0.6-2.8-1.1-4.2-1.4
		c-1.1-0.2-2.3-0.5-3.5,0.4c1.1,2.9,3.8,3.5,6.4,4.6c-1,2.5-2.5,4.7-3.3,7.2c-1.4,4.3-3,8.4-4.2,12.7c-1,3.8-3.1,6.5-6.9,7.7
		c-7-3.9-9-5.8-11.5-10.7c0.6-1.4,0.2-2.9-0.2-4.4c-1.6-5.7-2.5-11.4-3-17.3c-0.3-3,0.4-5.9,1.3-8.8c0.5-1.7,1.2-3.4,1.7-5.2
		c0.7-2.7,0.9-5.5,0.2-8.2c-1.6-5.6-0.8-11.2,0-16.8c0.9-6.1,4.7-10,9.4-13.5c3,1.3,6,2.2,9.2,2.5c1,0.1,1.8,0.7,2.6,1.2
		c2.5,2,5.3,3.2,8.3,4.1c2.7,0.8,4.8,2.3,5.9,4.9c0.2,0.5,0.4,1,1.1,1c0.8-0.4,0.6-1.1,0.4-1.6c-1.1-2.6-2.8-4.7-5.7-5.7
		c-3.2-1.1-6.4-2.3-9.2-4.4c-0.3-0.3-0.8-0.4-0.7-1c2.7-0.8,5.4-0.4,8.1-0.2c7.6,0.3,15.1-0.8,22.4-3.1c5-1.6,9.9-3.2,15-4.9
		c0.7,0.1,1.1,0.8,1.3,1.5c1.2,4,3.8,7.1,6.4,10.2c5.1,6.1,10.9,11.3,17.6,15.7C636.7,592,639.1,594.2,641.4,596.8z M554.8,613.3
		c2.6-1.5,3.3-2.9,2.8-4.9c-0.4-1.5-1.7-2.5-3.3-2.5c-1.7-0.1-3.1,0.9-3.6,2.5c-0.6,1.9,0.2,3.4,2.6,4.8c-2.8,2.4-2.8,2.5-1.9,7.3
		c1,0.1,2,0.3,3.1,0.2c2.2,0,3.6-1.6,3.5-3.7C557.8,615.2,556.8,613.9,554.8,613.3z M550.7,604.6c0.9,0.1,1.3-0.7,2.1-0.9
		c1.1,0.9,2.2,1.5,3.8,0.7c1.4-1.6,0.9-3.4,0.5-5.3c-2.2-0.3-4.3-0.1-6.4,0.4c-0.1,0-0.1,0.4-0.2,0.6c0.3,0.9,1.7,0.2,2,1.5
		c-0.1,0.5-0.5,0.9-1,1.3C551.1,603.2,550.4,603.5,550.7,604.6z M558.9,627.7c1,2.2,2.4,3.4,4.1,3.7c1.1,0.2,1.8-0.1,2.1-1.5
		C563.5,628.2,561.6,627.2,558.9,627.7z M557.6,633.7c1.9,3.2,3.4,3.5,4.8,1C561,633.2,559.4,633.1,557.6,633.7z"/>
	<path fill="none" d="M642.2,527.2c1.9,2.5,4.8,4.1,6.9,7c-7.5-2-14.4-0.9-21.4,0.9c-6.7,1.8-13.5,2.9-20.3,4.1
		c-3.7,0.7-6.9,2-9.3,5.1c-0.2,0.2-0.5,0.3-0.8,0.4c-1.5,0.1-2.4-1-3.2-1.9c-5.8-6.3-9.2-13.7-9.6-22.4c-0.2-4.4,0.2-8.7,1.1-13
		c0.8-4.1,2.6-7.6,5.2-10.8c1-1.2,1.9-2.5,2.5-4c2.2-5,5.8-8.4,10.8-10.7c5.9-2.7,12.1-4,18.3-5.5c6.4-1.6,12.9,0.2,19.3,0.2
		c-0.1,1.3-1,1.3-1.6,1.7c-0.2,0.2-0.5,0.3-0.8,0.5c-3.6,2.5-9.3,11.2-10.3,15.4c-0.8,3.2-0.4,6.3,0.9,9.3c0.5,1.1,1.1,2.3,1.4,3.5
		c-5.3-5.1-8.7-11.5-12.3-18.7c0.3,5.4,6.3,14.7,13.3,21.4c0.2,2.7,0.8,5.5,1.9,8.2c-2.2-1.8-4.3-3.5-6.5-5.3c1.6,2.7,4,4.5,6.2,6.7
		c-7.4-1.6-14.7-3.5-22.2-3.9c6,1.4,12,2.7,18,4.2c2.6,0.6,5.1,1.5,7.5,2.7c2.1,1,3.6,2.5,4.7,4.5c-0.8-0.1-1.1-1.6-2.5-1
		C640.3,526.8,641.1,527.2,642.2,527.2z M610.5,510.9c4,0.8,7.6,1.6,11.2,2.3C619.2,511.6,614.6,510.7,610.5,510.9z"/>
	<path fill="none" d="M639.9,482.3c4.4-3.7,9.1-5.7,14.8-5.5c5.2,0.1,10.2-0.9,14.9-3.1c1.2-0.6,2.5-1.1,4-1.2
		c-0.8,2.6-2.1,4.8-3.3,7.1c-4.7,9-5.5,18.4-2.3,28.1c0.8,2.5,1.8,5,2.5,7.6c0.9,3.2,2.4,6.1,4.5,8.7c2,2.4,3.2,5.3,5.7,7.7
		c-1.9,0.8-3.6,0.5-5.2,0.4c-3.7-0.2-7.4-1-11.1-1c-4,0-8.1-0.2-12.2,0.6c-2.4-3.4-6-5.5-9-8.4c0.1-1,0.6-1.9-0.4-2.9
		c-4.4-4.6-6.6-10.4-8.6-16.2c-0.6-1.8-1.1-3.7-1.3-5.6c-0.3-3.3,0.3-6.4,2.3-9.1c1-1.4,2-2.7,3.1-4.1
		C639.2,484.5,640.2,483.6,639.9,482.3z"/>
	<path fill="none" d="M754.5,504.2c-0.8,3.2-2,6.3-3.7,9.1c-2.3,3.9-4.5,7.9-6.1,12.2c-2,5.6-5.3,10.6-10.1,14.2
		c-4.7,3.5-10.2,5.7-16.2,6c-1.7,0.1-3.3-0.5-5-1.4c0.6-2.6,1.1-5.1,1.6-7.5c0.4-1.9,0.8-3.8,0.8-5.7c0-2.3,0.9-4.1,2.7-5.6
		c4.5-3.8,7.6-8.9,11.2-13.5c2-2.5,3-5.6,3.8-8.7c1.8-6.7,2.1-13.4,1.7-20.3c-0.2-2.6-1-5.1-2.5-7.2c-2-3-4.4-5.7-7.5-7.8
		c-0.5-0.4-1.1-0.7-1.6-1c-6.5-2.6-13-3.3-19.4,0.1c-0.5,0.2-0.9,0.5-1.4,0.8c-2.6,1.5-5.2,2.8-8,3.7c-6.6,2.2-11.7,6.6-14.6,13
		c-1.9,4.2-3.8,8.3-4.6,12.9c-0.8,4.9,0.1,9.6,2.7,13.8c1.9,3.1,4.7,5.4,8,7c-0.4,4.1-2.6,7.4-3.9,11c-0.4-0.1-0.5-0.1-0.6-0.1
		c-5.2-6.4-9.4-13.3-11.1-21.6c-1.3-6-1.7-12-0.8-18c0.6-4.2,2.1-8,4.7-11.4c2.1-2.7,4.3-5.3,6.8-7.9c5.6-1,10.9-3.2,16.2-5.4
		c7.6-3,15.5-5.3,23.3-7.7c2.9-0.9,6-1.1,9.1-1.2c-0.2,1.3-1.3,1.8-1.2,2.6c0,1.3,0.1,2.3,0.7,3c2,2.7,2.9,5.8,4.3,8.8
		c2.8,6,4.2,12.1,4.1,18.8c-0.2,6.5-1.8,12.6-3.1,18.8c-0.5,2.6-1.4,5.1-2.5,7.6c-1.2,2.7-2.1,5.5-2.3,8.5c0.4,0.9,1,1.4,1.9,1.5
		c0.8-0.1,1.4-0.5,2-0.9c3.4-2.4,6.8-4.7,10.2-7c3.1-2.1,5-5.2,6.9-8.3C752.1,507.7,752.8,505.6,754.5,504.2L754.5,504.2z"/>
	<path fill="none" d="M654.4,535c9-1.4,17.8,0.3,26.8,0c-2.6,10.8-1.5,21.4-2,32.2c-1.5-2.4-3.1-4.8-4.4-7.3
		c-1.2-2.4-2.6-4.6-4.2-6.8c-4.7-6.3-9.5-12.6-15.8-17.4C654.6,535.7,654.6,535.5,654.4,535z"/>
	<path fill="none" d="M811.3,511c-2.7-4.1-4.2-8.6-4.8-13.5c1.9-2.2,3-5.2,4.8-7.7c-0.7,3.1,0.4,6.2-0.1,9.5c-1.2-1-0.7-2.4-1.5-3.4
		C809.2,501.1,810.5,506,811.3,511z"/>
	<path fill="none" d="M832,659.8c-4,1.9-10.7-0.2-17.1-5c3.3-0.3,5.6,1.9,8.3,2.5C826,657.9,828.7,658.8,832,659.8z"/>
	<path fill="none" d="M754.6,504.3c0.2-1.9,0.3-3.8,1.4-5.5C756.3,500.8,756.1,502.7,754.6,504.3L754.6,504.3z"/>
	<path fill="none" d="M439.2,623.2c0.2,1,0.4,1.9-0.1,2.7c-1.6-0.1-1.2-1.4-1.5-2.3C438,623,438.5,623.1,439.2,623.2z"/>
	<path d="M642.2,527.2c-1.1,0.1-1.9-0.4-2.5-1.5c1.4-0.6,1.7,0.8,2.5,1l0.2,0.2L642.2,527.2z"/>
	<path fill="none" d="M564.7,594.3c-0.5-0.1-1-0.3-1.2-0.9c-0.1-0.8,0.3-1.2,1-1.3C564.9,592.9,564.4,593.7,564.7,594.3L564.7,594.3
		z"/>
	<path fill="none" d="M745.6,689c-0.7-0.3-1.3-0.7-1.5-1.5C745.3,687.6,745.3,687.6,745.6,689L745.6,689z"/>
	<path fill="none" d="M779.5,456.3c0.6-0.7,1.2-1.2,2.5-1.3C781.5,456.6,780.4,456.2,779.5,456.3L779.5,456.3z"/>
	<path fill="none" d="M791.2,422.6c-0.2-0.7-0.1-1.4,0.8-1.6c0.5,0.9,0,1.2-0.4,1.7C791.3,423,791.2,423,791.2,422.6z"/>
	<path fill="none" d="M799.8,418.2c0.7-1.2,1.2-1.2,1.7-0.8C801.3,418.2,800.8,418.1,799.8,418.2z"/>
	<path fill="none" d="M765.3,452.4c0.3,0.9,0,1.5-1,2C764,453.2,764.7,452.8,765.3,452.4L765.3,452.4z"/>
	<path fill="none" d="M683.1,195.6c3.4,4.5,2.9,9.7,2.9,14.3c-0.2,1.5,1.1,1.7,1.1,2.5c-0.2,0.5-0.6,0.5-0.8,0.2
		c-2.1-2.5-4.2-5.1-6.3-7.6c-0.6-0.8-1-1.7-1.2-2.6c-1.1-4.3-1.2-8.7,0.3-12.9c1.5-4.4,3.7-8.3,7-11.6c2.2-2.2,4.6-4,7.6-5.1
		c3.9-1.4,7.5-3.6,11-5.8c4-2.4,8.2-3.9,13-3.1c3.8,0.6,6.8,2.7,9.3,5.2c3.6,3.6,6.2,7.9,5.6,13.4c-0.1,0.5-0.1,1.1,0,1.6
		c1.9,6.7-1.9,12.4-3,18.5c-0.8-3.3,0.4-6.8-1-10c-0.1-0.1-0.4-0.1-0.6-0.2c-0.2,0.1-0.5,0.2-0.5,0.4c0,3.6-1.2,7.1-1.8,10.6
		c-0.7,4.8-2.9,9.1-5.4,13.2c-1.5,2.5-2.9,5-4.8,7.1c-0.7,0.7-1,1.6-1.3,2.5c-2.9,8.9-5.2,18-6.3,27.3c-0.4,3.4-0.5,6.8-1,10.2
		c-0.7,4.7-2.3,9.1-3.8,13.5c-0.7,2.2-1.2,4.4-0.8,6.6c1.2,7.6,0,15.1-1.1,22.6c-1.7,11-2.4,22-3,33.1c-0.4,6.8,0.9,13.4,2.2,19.9
		c0.6,3,0.1,6.1,0.9,9.1c-1.5,0.9-3.2,0.8-4.8,2.1c2,0.2,3.7-0.2,5.6-0.7c5.3,5.7,12.5,6.9,19.9,7.3c0.1,0.9,0.1,1.4,0.1,2
		c3.5,1.3,7.1,0.7,10.8,1.1c2,1.8,4.4,3.1,7,4.2c1.4,0.6,3.4,0.9,3.6,3.2c-4.3-0.2-8.3-1.7-12.2-3.3c-1.6-0.6-3.2-1.1-4.6-2.2
		c-0.7-0.6-1.8-0.7-2.7-0.7c-3.4-0.2-6.8-0.6-10-2c-0.5-0.2-1-0.2-1.5,0.4c0.2,1.4,1.4,1.7,2.4,2.1c2.3,0.9,4.7,1.3,7.2,1.5
		c2.1,0.1,3.9,0.6,5.6,2c1.6,1.3,3.5,2.2,5.8,2.1c1.4-0.1,2.8,0.8,4.4,1.3c-2.1,1.3-4,1.1-7,0.4c-4.4-1.1-8.9-2-14.1-3.1
		c-2.6-2.1-5.1-6-10-5.9c-0.3,1.1,0.6,1.3,1.2,1.5c2.5,0.9,4.6,2.2,5.8,4.7c0.8,1.6,2.8,1.8,4.1,3c-4.3,0.5-5.2,0.2-7.6-2.6
		c-0.9-0.5-1.9-0.2-3-0.5c-0.8-0.1-0.7-1.4-1.7-1.6c-0.3,0.4-0.6,0.8-0.9,1.1c-1.5,0.3-1.1-1.7-2.7-1.9c0.1,1,0.1,1.8,0.2,2.9
		c-5.6-1.5-11.7-1.7-14.8-8.1c0.4-7.9-0.9-15.9-2.5-23.8c-0.8-4.1-1.7-8.1-2.5-12.2c-3.6-17.8-5.5-35.7-4.7-53.9
		c0.2-5.4,1.7-10.5,3-15.7c1.4-6,2.2-12.1,1.1-18.3c-0.1-0.5-0.1-1.1-0.1-1.6c0.2-4.3,0.6-8.5,0.7-12.8c0.2-5.3,1.9-10.2,3.4-15.2
		c1.4-4.5,2.6-9,3.2-13.7c0.3-2.4,0.9-4.8-0.9-7c-0.6-0.7-0.4-2.1-0.8-3.1C686.8,199.1,685.9,196.6,683.1,195.6z M719.9,189.1
		c-1.6-1.9-2.3-4.1-4.4-5.3c-0.7,3.5,1.6,6.3,5.8,7.2c0.4,0.6,0.8,1.3,1.4,2C723,190.5,723,190.5,719.9,189.1z M688.7,245.6
		c-1.1-1.9-0.4-4.4-2.4-6.2C685.1,241.8,685.9,243.8,688.7,245.6z M690.4,366.2c-0.5,2.1-0.3,3,0.9,3.6c0.9,0.4,1.6,0.2,2-1.1
		C691.8,368.6,691.3,367.2,690.4,366.2z M692.7,251.4c-1.4-5.1-1.4-5.1-3.7-5.9C691.4,247.4,691.1,249.9,692.7,251.4z M682.6,279.4
		c0.7,2,2.2,1.8,3.9,2.2C685.6,279.9,685,278.8,682.6,279.4z M687.6,287.5c0.2,0.1,0.4,0.1,0.5-0.2c0.2-1.1-0.1-1.9-1.5-2.5
		C686.7,286,687.1,286.8,687.6,287.5z M724.6,176c1.5,0,1.5,0,2.5-1.4C726.1,175,725.1,174.9,724.6,176z M693.9,256.5
		c0.5-0.3,0.6-0.6,0.5-0.9c-0.1-0.4-0.3-0.7-0.8-0.5C693.3,255.6,693.5,256,693.9,256.5z M690.1,362.5c0-0.6,0.1-0.9-0.7-0.9
		C689.2,362,689.4,362.3,690.1,362.5z"/>
	<path fill="none" d="M825.2,141.7c-0.2,1.7,0.5,3.4,0.6,5c0.3,2.6,0.6,5.3,0.5,8c-0.1,2.6-0.6,5.1-1,7.5c0.4,0.5,1.1-0.3,1.3,0.5
		c-0.3,1.5-2.2,1.6-2.6,2.9c0.5,0.8,1.2,0.8,2.1,0.9c1.5-0.9,2.2-2.7,3.9-3.7c0.7,1.4-1.4,2.1-0.8,3.4c1.6-1.1,2.2-2.1,3.4-5.2
		c0.8-2,0.8-4.4,2.6-6.5c0.1,2.3-0.1,4.2-0.9,5.9c-2.9,6.5-6.7,12.6-10.7,18.5c-1.8,2.7-4.5,3.7-7.6,4.3c-2.3-5.3-6.6-7.7-11.8-9
		c3.3,2.7,8.3,3.4,9.5,8.6c-5.6,2.2-6.1,8.5-10.1,13.2c-2.8,1.1-4.2-2.3-6.5-3c0-2.2,1.8-2.2,2.7-3.1c-2-0.6-2.1-0.5-3.9,2.7
		c-0.1,1.2,1.1,1.5,1.8,2.5c-0.4,0.7-0.9,1.4-1.4,2.1c-5.9-0.8-5.9-0.8-8.8-4c-0.3-0.1-0.6,0-0.9,0.2c-0.1,0.1-0.2,0.4-0.3,0.5
		c0.9,2.4,3,3.4,5.2,4c0.4,0.9-0.2,1.1-0.6,1.6c-1.9,0-3.7-0.3-5.3-1.2c-0.7,0.5,0.1,1.1-0.3,1.6c-3.2,1.2-7.6,0-9.3-2.7
		c-1.9-3-3.7-6.2-4.5-9.8c-0.6-2.5-1.4-4.9-2.3-7.3c-1.5-3.9-1.3-7.7,0.9-11.3c0.1-0.1-0.1-0.4-0.2-1.1c-2.5,3.8-4.5,7.3-2.9,11.7
		c1,2.8,1.9,5.6,2.9,8.5c0.2,0.5,0.4,1,0.3,1.3c-5.7,2.5-11.9,2.7-17.2,5.1c-1.4,11.1-7.7,18.4-17.2,23.3c-0.6-0.4-0.1-0.9,0.1-1.3
		c0.3-0.5,0.5-0.9,0.3-1.6c-1.8,0.9-2.3,2.9-4.1,3.7c-0.2-1.2,0.2-2.4,0.7-3.3c3.5-6.1,4.9-12.9,5.9-19.8c0.6-3.9,1.6-7.7,1.4-11.7
		c-0.4-6.7-1.9-13-5.4-18.8c-1.6-2.6-3-5.3-4-8.1c0.8-2.2,2.4-2.9,4.4-3.3c5.7-1.1,11.2-0.1,16.7,1.7c-1.5,1-3.4,0.4-4.9,0.9
		c-1.7,0.6-3.2-1.2-4.9-0.4c0.8,2,3.6,0.8,4,2.9c2.6,0.5,5-1.1,7.7-0.3c0.9,0.3,2.2-0.7,3.2-1.2c1.9-1,4-1.6,6.2-1.8
		c1.6-2.6,3.8-4.4,6.9-4.9c-0.5-1.3-1.3,0.1-2.1-0.6c0.1-0.7,0.5-1.5,1.3-2.1c0.5,0,0.9,0.1,1.6,0.2c0.5-2.8,1.8-5.2,3.6-7.7
		c0.2,2-1.3,3.6-0.2,6.1c2.3-7.8,4.3-15,9.2-20.9c-2.4,5.6-3,11.5-2.2,17.5c0.4-2.4,0.7-4.9,1.1-7.3c0.6-3.5,1.3-6.9,2-10.3
		c0.2-0.9,0.2-1.9,1.7-2.4c-2.4,8.3-2.7,16.7-2.4,25.1c-3.6-0.3-6.1,1.6-8.8,3.3c-0.9,0.6-1.2,1.9-1.3,2.8c-0.5,3.5-1.5,6.8-2.7,10
		c2.8,2.2,4.2,1.9,6.5-1.7c-1.8,0.1-3,2.6-5.1,1.1c1.2-3.5,2.5-7.1,3.8-10.6c0.3-0.8,1.2-1.2,2.2-1.2c-0.2,0.5-0.3,0.9-0.5,1.5
		c0.6,0.1,1.1,0.2,1.6,0.3l-0.1-0.1c-0.4,1.1-1.5,1.7-2.4,2.9c1.1,1.4-0.6,3,0.2,4.7c1.6,0.2,2-1.2,3-1.4c0-0.7,0-1.3,0-1.8
		c0.9-0.8,1.9-1.7,2.9-2.6c0.1-1.2,0.1-2.5,0.2-4.1c1.1,1.4,1,2.8,1.3,4s0.7,2.4,2.2,2.8c0.9-1.1-0.7-1.4-0.4-2.3
		c0.2-0.3,0.5-0.2,0.8,0c0.7,0.4,1.2,1.2,2.3,0.9c0.1-1.6-2-1.3-2-2.8c0.3-0.6,0.9,0.3,1.5-0.3c-1.7-7.9,1.1-15.6,1.5-23.6
		c0-0.6,0.5-1.2-0.3-1.9c-0.8,1-0.9,2.4-1.1,3.5c-1,4.5-1.5,9-1.7,13.6c-0.1,2.7-0.2,2.7-2.2,5c-1.3-12.6,3.7-23.2,9.8-33.6
		c1-0.6,2.1-1.1,4-1.6c-3.9,7.3-4.5,14.8-5.7,22.2c0.2,0.1,0.4,0.1,0.6,0.2c2.3-5.7,4.6-11.5,7-17.5c1.4,3.8-0.6,7.4,0.5,10.9
		c0.6-5.6,1.4-11.2,2.2-16.8c1.2,1.5,0.5,3.2,0.7,4.8c0.2,1.7,0.2,3.4,0.5,5.1c0.6-3.1,0.2-6.3,0.3-9.7c1.3,0.1,2.3,0.2,3.4,0.4
		c3,5.7,4.2,12,5.4,18.3c1.1,5.9-1,11.8-1.3,18.4c-1.8-3.4-2-6.5-3.6-9.6c-0.3,1.8,0.5,3.1,0.7,4.4c0.3,1.5,0.7,2.9,1.2,4.3
		c0.5,1.4,1,2.8,1.5,4.1c1,0.7,1.3-0.6,2-0.5c0.2,0.2,0.4,0.4,0.7,0.7c-0.2-3,0.1-6,0.5-8.9c0.6-4.3,0.3-8.5,0.2-12.8
		c0-0.4,0.1-0.9-0.2-1.3c-2.3-3.4-2.1-7.5-3.4-11.2c-0.6-1.7-1.2-3.4-1.8-5.2c2.5,0.2,4.1,1.4,5.1,3.6c1.3,2.9,2.1,5.9,3.4,8.8
		c-0.3-3.7-1.4-7.2-3.3-10.7c2.2-0.1,2.8,1.4,3.6,2.8c3.5,6.4,5.9,13.2,7.6,20.3c0.5,1.9,0.9,3.9,1.2,5.8c0.4-8.6-2-16.7-5.4-24.5
		c2.2,1.4,3.6,3.3,4.7,5.4c1.7,3.2,3.4,6.4,5.1,9.6c1.8,3.5,1.9,7.4,2.7,11.1c0.2,0.9,0.2,1.9,0.4,2.8c0.3,1.5-0.1,2.7-1.4,3.8
		c-0.2-1.7,0.7-3.2,0.2-4.8c-1.7,1.2-0.4,4.3-3.2,5.1c0.5-6,1.2-11.9-1.6-17.5c0.9,5.7,0.6,11.3-1.7,16.8c-0.2-2-0.2-4-0.6-6
		C826.4,145.7,826.4,143.6,825.2,141.7c0-0.6,0-1.3-0.3-2C824.6,140.5,824.6,141.1,825.2,141.7z M790,151.3c0-0.6,0.2-1.3-0.3-1.8
		C789.6,150.2,789.5,150.8,790,151.3c0.1,1.3,0,2.8,0.4,4c0.5,0.2,0.8,0.1,0.9-0.2c0.4,0.1,0.7,0.5,1.3,0c0-2.1-0.2-4.2-1.2-6.9
		c0,2.8,0,4.9,0,7C790.1,154.2,791.2,152.3,790,151.3z M801.5,144.3c0-0.8,0.2-1.7-0.7-2.8C801.2,142.7,800.8,143.6,801.5,144.3
		c0.2,4.3,1.1,8.3,2.6,10.5c-0.5-2.4-0.8-4.5-1.4-6.6C802.3,146.9,802.6,145.4,801.5,144.3z M804.6,178.9c-1.5-0.6-2.5-2.1-4.4-2.6
		c0.3,2.7,1.8,4.4,3.7,6.1c1.5-1.1,3.3,0.3,5.1-0.4c-0.8-3.6-3.6-5-6.2-7.1c0.2,1.9,2,2.3,2.2,3.7
		C804.8,178.7,804.7,178.8,804.6,178.9z M822.7,157c1.2-0.6,1.1-1.4,1.2-2.1c0.2-1.8,0.1-3.6-0.1-5.4c-0.8-6.9-1.6-13.7-2.4-20.6
		c-0.1-0.6,0.2-1.3-1.1-1.5c0.6,4.9,0.4,9.7,0.3,14.6c-0.1,4.9-0.5,9.7-1.8,14.3c0.5,0.6,0.9,0.9,1.4,0.7c1.6-0.8,1.3-2.7,2.5-4.2
		C822.7,154.4,822.7,155.5,822.7,157z M800,132.7c-1.7,6.5-1.8,16.7-0.3,19.9c1-0.1,0.5-1.7,1.8-1.5
		C799.2,145.1,801.2,138.9,800,132.7z M807.7,153.4c-2-6.6-3.3-13.4-5.1-20C803,140.4,805.6,150.8,807.7,153.4z M775.4,148.2
		c0.8-4.6,4.2-8.4,4.1-13.3C777.6,139.2,775.2,143.3,775.4,148.2z M792.4,143.7c0.3,3.8,1,7.5,2.9,10.9
		C794.3,151,793.3,147.4,792.4,143.7z M797.9,155.1c-0.1-3.1-0.5-6.3-1.3-10C796.2,148.8,796.9,151.9,797.9,155.1z M745.7,194.5
		c1.3,0.1,2.3,0.6,3.5-0.2C747.9,193.4,746.9,193.5,745.7,194.5z M817.9,153.2c-0.1,0-0.1,0-0.2,0.1c0,0.4,0,0.8,0.1,1.2
		c0.1,0,0.1,0,0.2,0C817.9,154,817.9,153.6,817.9,153.2z M759.1,157.9c0.8-0.1,0.8-0.1,1-0.7C759.4,157.1,759.1,157.3,759.1,157.9z"
		/>
	<path fill="none" d="M529.6,221.8c0,2.8,0,5,0,7.2c0.2,6.9,2,13.4,5.3,19.5c1,1.8,1.7,3.7,2.7,5.4c2,3.4,5.2,5.5,8,8
		c0.7,0.6,1.5,1.2,2.2,1.7c-0.3,1-1.1,0.8-1.6,0.9c-9.3,1.8-18.6,3.8-27.9,5.2c-2.5,0.4-5.1,0.6-7.3,2c-0.4,0.3-1,0.2-1.6,0.3
		c-3.4,0.3-6.8,0.8-10.2,0.8c-3.4,0-6.5,0.8-9.7,1.8c-5.3,1.6-10.6,3.2-16.3,2.7c-1.7-0.2-3.4-0.3-4.9-1.2c-2-1.2-4.1-1.3-6.4-0.8
		c-5.8,1.1-11.6,1.7-17.5,1c-3.4-0.4-6.8-0.4-10.2,0.2c-2.1,0.4-4.2,0.4-6.4,0.3c-9.1-0.1-18.1,0.8-26.9,2.9c-2.5,0.6-5.1,1-7.7,1.1
		c-2.7,0.1-5.4,1-8.1,1.7c-2,0.5-4,0.3-6,0s-3.8-1.1-5.9-1.2c-1.7-0.1-3.1-1.7-4.3-3.1c1.5-3.5,2.8-7,3.3-10.5
		c1.5-1.4,3.3-1.6,4.9-1.7c4.8-0.1,9.5-0.9,14.3-1c4,0,8-1.2,11.8-2.7c13.1-5.3,26.1-10.9,39.2-16.4c2.7-1.1,5.6-1.1,8.5-1.5
		c3.2-0.4,6.4-0.3,9.5-0.1c3,0.2,6,0.5,8.9,0.2c3-0.4,5.9,0.6,8.9,0.4c3.9-0.3,7.6-1.2,11.2-2.5c3.9-1.4,7.8-3,11.6-4.6
		c1.8-0.8,3.8-1.3,4.9-3.3c0.3-0.5,1.1-0.7,1.6-0.9c2.2-1,4.4-2.1,6.7-3c4.9-1.9,9.6-4.1,13.5-7.7
		C528.2,222.6,528.6,222.5,529.6,221.8z M374.6,271c0.4,2.1-1.7,3.2-2.1,4.9c0.4,0.7,1,0.9,1.5,0.7c2.1-0.9,2.4-3.1,3.1-4.5
		c1.5-1.3,3.3-1.5,4.2-3C378.3,267.6,377.1,270.6,374.6,271z M453.2,264c3.9,0.4,4.6,0.3,6.8-0.9C457.4,263.1,455.3,263.1,453.2,264
		z M485.8,245.7c2-0.2,3.8-0.9,5.8-2.1C488.7,243.9,488.5,244,485.8,245.7z M490.1,271.8c-1.5-1.5-3-0.9-5.1-0.7
		C487,272.1,488.4,272.2,490.1,271.8z M382.6,269.6c1.6,0.3,2.4,0,3.2-1.1C384.5,268.1,383.6,268.1,382.6,269.6z M467.5,248.2
		c0.4,0.6,0.9,0.7,1.3,0.7c0.5,0,1.1,0,1-0.9C469.1,247.9,468.3,247.8,467.5,248.2z M389.7,267.9c0.9,0.5,1.3,0.2,1.7-0.7
		C390.5,266.8,389.9,266.8,389.7,267.9z M397.4,265.8c-1.1,0-1.6,0.1-1.1,0.9C396.5,266.5,396.8,266.3,397.4,265.8z"/>
	<path fill="none" d="M659.6,169c-1,2.4-1.9,4.9-3,7.3c-2.5,5.4-3.2,11.1-2,16.8c1.7,8.4,2.9,17,7.2,24.7c1.4,2.6,2.7,5.3,3.8,8.1
		c0.8,2,2,3.7,3.7,5.4c-3.5,1.1-6.8,1.1-10,1.4c-4.4,0.4-8.5,1.7-12.8,2.7c-10.2,2.4-20.3,5.8-30.7,7.6c-4.4,0.8-8.9,1-13.3,0.4
		c-1.5-0.2-2.8-0.7-4-1.7c-2.4-2-4.5-4.2-6.1-6.9c-2.9-5.1-4.9-10.6-6-16.4c-0.8-4.2-0.1-8.3,0.9-12.3c1.5-5.9,3.8-11.5,6.6-16.9
		c0.7-1.2,1.2-2.5,2.3-3.5c2-0.2,3.9,0.1,5.9,0.6c7.6,1.7,15,1.2,22.2-1.7c0.9-0.4,1.8-0.6,2.7-0.8c4.7-1.3,9.3-3.2,13.5-5.7
		c1-0.6,2-1.2,3.1-1.7C649.1,174.3,654.3,171.8,659.6,169z"/>
	<path fill="none" d="M596.4,244.6c5.5,3.2,11.2,2.5,16.8,2.5c-0.4,0.9-1.3,1-1.9,1.1c-7.6,1.5-14.5,4.8-21.9,7
		c-6.9,2.1-14,3.6-21.1,5.3c-0.2,0-0.4-0.1-0.9-0.3c3.5-2,7.2-3.4,10.3-5.8c-7.9,1.5-15.1,5.3-22.8,7.7c-0.8,0-1.2-1-2.4-1.1
		c-4.3-0.3-7.6-2.4-9.8-6.2c-1.6-2.7-3.2-5.3-4.8-7.9c-3.5-5.5-5.1-11.7-5.7-18.1c-0.2-2.8-1.8-5.5-1-8.5c2.1-1.9,4.3-3.9,6.6-6
		c1.2,1.8,1.4,3.9,3.2,5.3c-0.8-2.4-1.5-4.8-2.4-7.4c3.3-6.1,7.8-11.4,12.7-16.5c1.4-1.5,3-2.8,4.2-4.3c2.9-3.5,6.6-5.6,10.9-6.8
		c3.9-1.1,7.8-2.2,11.8-2.9c1.9-0.3,3.7-0.4,5.7,0.1c3.1,0.8,6.2,1.5,9.3,2.2c0.3,1-0.6,1.5-1,2.2c-3.7,6.1-6.8,12.4-7.9,19.4
		c-1.7,10.8-0.1,21.2,5.5,30.8c1.1,1.9,2.5,3.7,4.2,5.2C595.2,242.7,595.9,243.6,596.4,244.6z M579.8,253.4c2,0.3,7.1-1.6,9.4-3.1
		C585.6,250.5,582.7,252,579.8,253.4z M536.4,219.6c0.2-0.9,0-1.3-0.7-1.4C535.4,219,535.5,219.4,536.4,219.6z"/>
	<path fill="none" d="M786.1,341.3c-0.9,0.5-1.8,0.9-2.7,1.5c1.8,0.8,3.2-0.4,5-0.3c4.4,3,9.2,5.2,15.1,5.1c0.6,0.7,0.6,1.9,1.9,2.1
		c4.8,0.9,8.6,4.1,12.9,6.2c2.4,1.2,4.8,2,7.5,2.7c-0.5,1-1.2,0.7-1.7,0.6c-4.2-0.8-8.4-1-12.2-3.3c-2-1.2-4.5-1.5-7.1-1.1
		c-2,0.3-4.1-0.4-5.5-2c-1.9-2.1-4.6-2.3-7-3.3c-0.9,1.5,0.1,2,0.9,2.4c4.6,1.8,8.3,5.4,13.2,6.2c0.1,1-0.5,1.2-1,1.5
		c-1.2-0.1-2.4-0.7-3.7-0.7c-2.5,0.2-4.8-0.2-7-1.6c-1.3-0.8-2.8-0.7-4.3-0.5c-4.2,0.3-8.3-0.3-11.5-3.4c-0.8-0.8-1.3-1.6-1.5-2.7
		c-0.5-2.5-1.3-4.9-1.3-7.5c0-1.8-1-3.7-1.6-5.5c-3-7.9-6.4-15.6-9.9-23.2c-1.3-2.9-2.6-5.9-3.7-8.8c-0.7-2-1.3-4.1-2.9-5.6
		c-0.2-0.2-0.3-0.5-0.4-0.8c-3-8.3-6.1-16.6-6.4-25.6c-0.1-2-0.2-4.1,0.2-6.1c1.3-6.4,0.8-12.8-0.8-19c-1.5-5.9-2.2-11.9-2.6-18
		c-0.2-2.5-0.4-5.1-1.5-7.4c1.4-3.2,2.9-6.2,4.7-9.4c2.6,1.8,5.3,1.8,8.3,1.5c-0.6-1.6-2.1-1.7-3.3-2.2c-1.1-0.5-2.5-0.6-3.6-1.5
		c3.2-5.1,5.2-10.6,6.8-16.5c3.4-3.7,8-2.4,12.5-2.4c1.4,1.8,2,3.8,1.8,6.2c-0.5,5.6-0.9,11.3-2.2,16.8c-0.7,2.7-1.1,5.5-1.1,8.2
		c0,7.6-0.8,15.1-1.3,22.6c-0.3,4.9,0.1,9.8,0.4,14.7c0.1,1.3,0.5,2.6,1.2,3.6c2.7,4.1,3.7,8.8,5.1,13.3c1.2,3.6,1.9,7.4,2.9,11.1
		c1.3,4.4,1.4,8.8,1,13.3c-0.4,4-0.3,7.9,0.2,11.8c0.7,5.9,1.7,11.8,3.3,17.6C784,334.8,785.3,337.9,786.1,341.3z M760.8,268.8
		c1.1-1.1,1.6-2.2,2.5-3.1c1-0.9,2.3-1.5,2.7-3C763.3,263.5,762.5,264.3,760.8,268.8z M777.5,342.4c0.1-2.4-0.7-3.9-1.5-5.3
		C776.1,338.7,775.7,340.5,777.5,342.4z M762.7,215.8c-0.3,1.1,0.1,1.5,1,1.3C763.8,216.4,763.5,216.1,762.7,215.8z M771.8,324.3
		c0,0.9,0.2,1.3,0.8,1.7C772.7,325.3,772.6,324.8,771.8,324.3z"/>
	<path fill="none" d="M686.3,215.3c-0.6,4.4-3,7.9-4.2,11.9c-3.7,0.8-7.9-0.1-10.6,3.3c-2.6-3.2-4.8-6.5-6-10.5
		c-1.1-3.6-3.4-6.9-4.4-10.6c-1.9-6.8-3.6-13.6-4.2-20.6c-0.2-2.8,0.1-5.5,1.1-8.2c1.8-4.7,3.4-9.4,5.2-14.3
		c0.7-0.9,1.9-1.3,3.1-1.8c3.5-1.5,7.1-2.9,10.6-4.4c2.1-0.9,4-1.8,5.8-3.3c2-1.8,4.7-2.4,7.3-3.1c6.7-1.7,13.5-2.9,20.5-2.4
		c6,0.4,12.1,0.1,18.2,0.1c0.6,0,1.3-0.1,2,0.3c0.1,1.6-1.5,2.4-2,4c0,1.7,0.6,3.4,1.7,4.8c1.1,1.4,2,2.7,2.1,4.5
		c0,0.7,0.5,1.4,0.9,2c3.1,6,4.4,12.2,4.3,19.1c-0.2,7.2-2.1,14.1-3.7,21c-0.4,1.9-1.2,3.6-1.9,5.4c-1.2,2.7-2.2,5.5-2.3,8.6
		c0.8,1.5,2,1.7,3.4,0.9c0.5-0.3,0.9-0.6,1.3-0.9c3.1-2,6-4.4,9.2-6.3c3.2-1.9,5.1-5.1,7-8.1c1-1.6,1.6-3.4,3.2-4.6
		c-0.8,2.7-1.6,5.5-3.1,7.9c-2.5,4.1-4.7,8.2-6.4,12.8c-2,5.4-5.3,10.4-9.9,13.9c-4.7,3.5-10.2,5.7-16.2,6.1c-1.8,0.1-3.3-0.5-5-1.4
		c0.5-2.3,1-4.6,1.5-6.9c0.5-2.2,1-4.4,1-6.6c0-2,0.8-3.7,2.3-5c4.6-3.8,7.6-8.9,11.2-13.4c1.9-2.3,2.9-5.2,3.7-8.1
		c2.2-7.4,2.5-14.9,1.9-22.5c-0.2-2.2-1.2-4.3-2.4-6.2c-4.5-6.8-10.8-10.8-19.1-10.9c-2.7,0-5.3,0.5-7.8,1.7c-1.1,0.5-2.1,1-3.1,1.6
		c-2.5,1.4-5,2.7-7.7,3.6c-6.7,2.2-11.6,6.6-14.7,12.9c-1.6,3.4-3,6.9-4,10.4c-1.6,5.6-1,11,1.9,16.1
		C679.9,211.2,682.8,213.5,686.3,215.3z"/>
	<path fill="none" d="M354.2,266.8c7.3-2.3,15-1.9,22.4-3.4c-1.5,2.2-4.3,1.6-6.1,4.1c-0.5,3.5-2.5,7.3-4,11.3
		c2.6,2.8,5.1,5.2,9,5.1c0.8,0,1.7,0.2,2.5,0.5c5.7,1.6,10.9,0.2,16-2.5c1.9,2.3-0.3,4.3-0.5,6.5c-1.3,0-2.2-0.2-3.3,0.1
		c-3.9,1.1-8,0.7-12,1.8c0.7,1.8,2,1.8,3.3,1.8c3.7,0,7.4-0.5,11-1.8c0.4,1-0.1,1.9-0.4,2.7c-3.9,1.6-8.2,1.1-12.1,2.9
		c1.6,2.7,2.8,2.7,10.8,0.6c0.4,1.1-0.3,2-0.6,3.1c-1.7-0.2-3.4,0.3-5,0.5c-1.7,0.2-3.4,0.1-4.7,1.6c1.9,2,3.2,2.1,9.2,0.6
		c0.5,1,0.5,2,0.3,3c-0.9,4.6,1,8.8,2.3,13c0.7,2.3,2.9,3.6,4.9,4.8c1.5,0.9,2.7,2,3.1,3.9c-2.6,0.9-5.6-0.2-8.1,2.4
		c3.2-0.2,5.9-0.4,8.6-0.6c0.3,1.2-0.1,1.8-1.1,2.1c-4.9,1.3-9.7,3.4-15,1.9c-2.1-0.6-4.4-0.8-6.5-1.5c-4.3-1.5-7.8-4.3-10.6-7.9
		c-0.9-1.1-0.9-2.6-1.1-4.1c0.5-0.8,1.1-1.6,1-2.8c-0.7-6-1.4-12.1-4.5-17.5c-1.9-3.5-4.5-6.5-6.8-9.6c-0.7-0.9-1.6-1.7-2.1-3.1
		c0.3-1.5,0.3-3.4-0.2-5.1C352.8,276.6,353.3,272,354.2,266.8z M372.1,311.8c0.9-0.2,1.6-0.3,2.3-0.5c2.5-0.5,3.7-2.4,3.1-4.5
		s-2.8-3.3-4.7-2.6c-2.1,0.7-2.9,3-2,5.2C371.1,310.2,371.6,310.9,372.1,311.8z M371.3,303.6c2.2,0,3.7-1.4,3.7-3.5
		c0-2-1.6-3.7-3.6-3.8c-2-0.1-3.6,1.5-3.6,3.6C367.8,302.2,369.2,303.6,371.3,303.6z M368.7,295.2c1.6,0.8,2.9,0.7,3.8-0.9
		c0.4-1.8-0.5-3.2-1-4.8c-2.3,0.5-4.4,1.2-6.4,2.1c0.5,1.9,2.2-0.1,2.7,1.5c0.2,1-1.2,1.5-1.3,2.6c0,0.3,0.2,0.6,0.2,0.8
		C367.6,296.4,367.8,295.6,368.7,295.2z M388.3,308.1c-2.9-0.6-4.9,0.3-6,2.7C386.1,311.7,388.2,310.8,388.3,308.1z M385.6,315.9
		c2.7,0.9,2.8,0.9,3.7-1.1C387.2,314,387.2,314,385.6,315.9z"/>
	<path fill="none" d="M396.9,282.5c0.9-0.1,1.9-0.3,2.9-0.5c0.8,0.9,1.4,2,2.8,2.9c-2.1,0.9-4.9-0.4-5.7,2.6
		c1.1,2.5,3.3,1.7,5.2,1.5c1.8-0.2,3.8,0,5.3-1.7c0.5,1.2,0.4,2,0.1,2.8c-2.8,0.9-6-0.8-8.5,1.6c1.6,2.6,2.4,2.8,7.9,1.9
		c0.4,0.3,0.3,0.8,0.2,1.2c-0.1,0.6,0,1.3-0.5,1.8c-1.8-0.1-4-1.2-5.3,1.2c1.4,2,1.4,2,5.2,1.6c0.2,4.5,1.1,8.8,4.4,12.8
		c2,0.7,4.6,1.6,7.2,2.5c2,0.6,3,1.9,3.1,3.9c0.1,1.1,0.4,2.1,0.6,3.1c0.4,2.1,0,2.9-2,3.6c-0.7,0.2-1.4,0.4-2.2,0.4
		c-3.4,0.4-6.8,0.7-10.2,1.1c-1.4,0.2-2.7-0.5-4.2-0.5c-1-2.9-3.1-4.9-6-6.2c-1.7-0.8-2.6-2.2-3.3-4c-2.5-6.9-2-13.7-0.2-20.6
		C394.7,291.3,395.7,287.1,396.9,282.5z M405.7,303.6c-1.5-0.9-2.8-1.4-4.4-0.4C402.9,305.2,402.9,305.2,405.7,303.6z"/>
	<path fill="none" d="M806.3,194.3c2-2.4,3.2-5.2,4.9-7.8c-0.7,3.2,0.4,6.4-0.2,9.6c-1-1-0.4-2.5-1.8-3.7c0,5.7,1.2,10.7,2.4,16
		C809.4,205.9,807.6,201.2,806.3,194.3z"/>
	<path fill="none" d="M465.2,242.3c6.6-1.8,13.2-2.2,20.6-1c-2.8,1.3-5.4,2.2-7.9,1.9C473.7,242.8,469.4,242.8,465.2,242.3z"/>
	<path fill="none" d="M815.3,351.5c5.3,2,10.8,3.3,16.5,5.1C828.1,358.6,820.7,356.3,815.3,351.5z"/>
	<path fill="none" d="M413.7,279.4c-2.3,0.5-4,2.1-6.8,1C409.4,279.4,411.3,279.3,413.7,279.4z"/>
	<path fill="none" d="M408,286.5c-1.2-0.6-2-1.1-3.3-1.8c1.4-0.4,2.4-0.7,3.3-1C408.6,284.6,408.1,285.4,408,286.5z"/>
	<path fill="none" d="M754.4,200.7c0.3-1.6,0.6-3.2,1-4.8c0-0.1,0.3-0.2,0.7-0.4C756.5,197.5,755.6,199.1,754.4,200.7z"/>
	<path fill="none" d="M779.2,153.2c0.6-0.9,1.4-1.2,2.8-1.7C781.4,153.4,780.2,153.1,779.2,153.2L779.2,153.2z"/>
	<path fill="none" d="M801.6,114.3c-0.6,0.7-1,0.7-1.7,0.4C800.3,114.1,800.6,113.5,801.6,114.3z"/>
	<path fill="none" d="M792.2,117.4c0.5,1-0.5,1.2-0.2,2.1C790.4,118.1,791.7,118,792.2,117.4z"/>
	<path fill="none" d="M765.8,149.4c-0.4,0.7-0.7,1.5-1.8,1.8C764.1,150,764.4,149.1,765.8,149.4L765.8,149.4z"/>
	<path fill="none" d="M788.1,108.4c-0.1-0.7,0.3-1.2,1.1-1.8C789,107.5,788.9,108.1,788.1,108.4L788.1,108.4z"/>
	<path d="M715.7,486.8c1.8,1.5,2.8,3.4,4.1,5.3c1.5,0.8,3.9,1.1,3.2,4c-1.1-0.2-0.9-1.5-2.2-2C717.1,493.3,714.7,490.1,715.7,486.8z
		"/>
	<path d="M686.4,542.6c1.9,1.7,1.3,4.2,2.3,6.1C686,547,685.2,544.9,686.4,542.6z"/>
	<path d="M682.8,583.2c1.9-1.2,1.9-1.2,3.5,1.1C684.5,584.6,684.5,584.6,682.8,583.2z"/>
	<path d="M690.3,669.1c1.1,1.4,1.7,2.7,3.1,2.9c-0.5,1.3-1.3,1.4-2.1,0.9C690.2,672.2,689.7,671.1,690.3,669.1z"/>
	<path d="M690,549c2.6,1,1.7,3.8,2.9,5.6C691.1,553.2,691.5,550.6,690,549z"/>
	<path d="M727.3,478.2c-0.5,1.1-1.4,1.4-2.5,1.5C725.6,478.4,725.6,478.4,727.3,478.2z"/>
	<path d="M687.1,588.2c1.2,0.5,1.1,1.4,0.9,2.4c-0.8,0.1-0.7-0.6-1-1C686.7,589.2,686.6,588.7,687.1,588.2z"/>
	<path d="M700.6,526.8c-0.5-0.3-0.7-0.6-0.5-1.1c0-0.1,0.4-0.2,0.5-0.1C700.8,525.9,701,526.3,700.6,526.8z"/>
	<path d="M693.8,558.1c0.8,0.3,0.9,0.7,0.4,1.6C693.7,559.2,693.2,558.9,693.8,558.1z"/>
	<path d="M820.1,460.2c-0.4-0.1-0.8-0.1-1.2-0.8c1.2-4.5,1.8-9.3,1.8-14.2c0-4.8,0.2-9.7-0.3-14.6c1.2-0.1,1,0.7,1.1,1.2
		c0.8,7.5,1.7,15,2.5,22.5c0.2,2,0.1,4-0.9,5.8c-0.7-1.3,0.3-2.8-0.4-4.1C821.4,457.3,822,459.6,820.1,460.2z"/>
	<path d="M801.3,453.6c-0.7,0.5-0.4,1.6-1.2,2.1c-1.9-2.7-1.8-14.9,0.3-19.6c0,3.7,0.6,7,0.1,10.3
		C800.1,448.8,800.9,451.2,801.3,453.6L801.3,453.6z"/>
	<path d="M803.3,478.9c2.4,1.6,5.1,2.9,5.7,6.3c-1.6,1.1-3.4-1.2-4.7,0.6c-2.2-1.6-3.4-3.6-4.2-6.4c2.6,1,4,3.2,7,4.2
		C805.4,481.8,804,480.6,803.3,478.9z"/>
	<path d="M807.6,456.5c-3-6.1-3.8-12.8-4.9-19.4C804.6,443.5,805.8,450.1,807.6,456.5z"/>
	<path d="M779.8,438.1c-0.2,4.8-3.4,8.7-4,13.4C774.9,448.9,776.1,444.8,779.8,438.1z"/>
	<path d="M803.1,456.1c-1.1-3.2-1.4-6.6-1.5-10c0.4,2,0.9,4,1.3,5.9c0.4,1.9,0.8,3.9,1.3,5.8c-0.7-0.1-0.9-0.4-1-0.8
		C803.1,456.7,803.1,456.4,803.1,456.1z"/>
	<path d="M792.2,447.4c1.3,1.6,1.3,3.7,1.9,5.6c0.5,1.7,0.9,3.4,1,5.2C793.7,454.7,792.8,451.1,792.2,447.4L792.2,447.4z"/>
	<path d="M798,458.4c-1-3-1.4-6-1.3-9.2C797.6,452.2,798,455.2,798,458.4z"/>
	<path d="M792.3,458.5c-1-2-0.6-4.1-0.5-6.1C792.2,454.4,792.9,456.4,792.3,458.5z"/>
	<path d="M790.7,458.3c-0.5-1.7-1.1-3.4-0.8-5.2C790.3,454.9,791.2,456.5,790.7,458.3z"/>
	<path d="M803.1,456.1c0,0.3,0,0.7,0,1c-0.3,0.3-0.7,0.5-1,0c-0.7-1.1-1-2.2-0.8-3.5l-0.1,0.1C801.8,454.5,802,455.7,803.1,456.1z"
		/>
	<path d="M746,497.5c1.3-0.7,2.1-0.8,3.2,0C748.2,498.3,747.3,497.9,746,497.5z"/>
	<path d="M792.2,447.3c-0.4-0.5-0.5-1.1-0.4-1.8C792.3,446.1,792.2,446.8,792.2,447.3L792.2,447.3z"/>
	<path d="M818.9,449.3c0,0.3-0.1,0.7-0.1,1C818.8,450,818.8,449.6,818.9,449.3C818.8,449.3,818.8,449.3,818.9,449.3z"/>
	<path d="M739.7,458.2c-0.5,0.5-0.9,0.1-1.3-0.3C739,457.6,739.4,457.4,739.7,458.2z"/>
	<path d="M516.2,563.3c-2.6,3-9.4,4.8-14.3,3.7c0.4-0.2-0.1,0.1-0.1-0.3c0-0.1,0.1-0.2,0.1-0.2c4.9-0.2,9.4-2,14.1-3.4
		C516,563.1,516.1,563.2,516.2,563.3z"/>
	<path d="M442.4,587.3c1.2-1.6,2.8-2,4.9-2c-0.5,1.5-2.2,1.5-2.7,2.7c-0.6,1.4,0.6,3-0.7,4.5C441.8,591.2,442.8,589,442.4,587.3z"/>
	<path d="M448,584.3c1.1-2,2.6-2.1,4.7-2.6C451.2,583.3,450,583.8,448,584.3z"/>
	<path d="M528.3,567.7c-2.1-0.7-2.6-2.1-3.6-2.9C526.1,565.1,527.3,565.6,528.3,567.7z"/>
	<path d="M495.1,567.3c1-1.2,2-1.1,3.3-0.9C497.5,567.9,496.4,567.4,495.1,567.3z"/>
	<path d="M530.7,559.9c1.1-0.8,1.7-0.5,2.3,0.2C532.2,560.5,531.6,560.3,530.7,559.9z"/>
	<path d="M456.1,580.8c0.1-1.4,1-1.3,2.1-2C457.7,580.2,457.2,580.6,456.1,580.8z"/>
	<path d="M765.8,565.9c-0.7,2-2.5,3-4.3,5C762.3,568.1,763.7,566.7,765.8,565.9z"/>
	<path d="M777.3,645.6c-1-2.2-1-2.2-0.8-4.3C777.3,642.6,777.9,643.7,777.3,645.6z"/>
	<path d="M772.6,629.1c-0.7-0.4-0.7-0.9-0.4-1.6C772.4,628,773.1,628.4,772.6,629.1z"/>
	<path d="M763.7,520.5c-0.9-0.2-1.2-0.7-1-1.5C763.6,519.1,763.9,519.5,763.7,520.5z"/>
	<path d="M554.8,613.3c1.9,0.6,3,1.9,3.1,3.8c0.1,2.1-1.3,3.7-3.5,3.7c-1,0-2.1-0.2-3.1-0.2c-0.9-4.9-0.9-5,1.9-7.3
		c-2.4-1.5-3.2-3-2.6-4.8c0.5-1.6,1.9-2.6,3.6-2.5c1.6,0.1,2.9,1.1,3.3,2.5C558.2,610.3,557.4,611.7,554.8,613.3z M554.1,611.6
		c1.3,0,2.2-0.9,2.2-2.2s-0.9-2.2-2.2-2.2s-2.2,0.9-2.2,2.2C551.9,610.8,552.8,611.7,554.1,611.6z M554,619.3c2.3-0.6,3-1.4,2.5-2.9
		c-0.4-1.2-1.6-1.8-2.8-1.4c-1.1,0.4-1.8,1.6-1.4,2.4c0.4,0.7,1.2-0.5,1.7,0.4C553.9,618.2,553.9,618.6,554,619.3z"/>
	<path d="M550.7,604.6c-0.3-1.1,0.3-1.4,0.8-1.8c0.5-0.4,1-0.8,1-1.3c-0.3-1.3-1.7-0.6-2-1.5c0.1-0.3,0.1-0.6,0.2-0.6
		c2.1-0.4,4.1-0.7,6.4-0.4c0.4,1.9,0.9,3.8-0.5,5.3c-1.6,0.9-2.7,0.3-3.8-0.7C552.1,603.9,551.6,604.6,550.7,604.6z M554.1,600.8
		c0,1-0.1,1.9,1,2.5c1.5-0.6,1.1-1.7,0.8-2.6C555.2,600.3,554.8,600.2,554.1,600.8z"/>
	<path d="M558.9,627.7c2.7-0.5,4.6,0.5,6.3,2.2c-0.3,1.4-1.1,1.7-2.1,1.5C561.3,631.1,559.8,629.9,558.9,627.7z"/>
	<path d="M557.6,633.7c1.9-0.5,3.5-0.5,4.8,1C560.9,637.2,559.4,636.9,557.6,633.7z"/>
	<path d="M610.5,510.9c4.1-0.2,8.7,0.7,11.2,2.3C618.2,512.5,614.6,511.7,610.5,510.9z"/>
	<path d="M719.9,189.1c3.1,1.4,3.1,1.5,2.8,4c-0.5-0.8-1-1.5-1.4-2c-4.2-1-6.5-3.8-5.8-7.2C717.6,185,718.3,187.2,719.9,189.1z"/>
	<path d="M688.7,245.6c-2.8-1.8-3.5-3.8-2.4-6.2C688.2,241.1,687.5,243.7,688.7,245.6z"/>
	<path d="M690.4,366.2c0.9,1.1,1.4,2.4,2.9,2.5c-0.4,1.3-1.1,1.5-2,1.1C690.1,369.2,689.9,368.3,690.4,366.2z"/>
	<path d="M692.7,251.4c-1.6-1.6-1.3-4.1-3.7-5.9C691.3,246.4,691.3,246.4,692.7,251.4z"/>
	<path d="M682.6,279.4c2.4-0.7,3,0.5,3.9,2.2C684.8,281.2,683.3,281.5,682.6,279.4z"/>
	<path d="M687.6,287.5c-0.5-0.7-0.9-1.5-1-2.7c1.5,0.6,1.7,1.5,1.5,2.5C688,287.6,687.8,287.6,687.6,287.5z"/>
	<path d="M724.6,176c0.4-1.1,1.5-1,2.5-1.4C726.2,176,726.2,176,724.6,176z"/>
	<path d="M693.9,256.5c-0.4-0.5-0.6-0.9-0.3-1.4c0.5-0.2,0.7,0.2,0.8,0.5C694.5,255.9,694.4,256.2,693.9,256.5z"/>
	<path d="M690.1,362.5c-0.6-0.2-0.9-0.4-0.7-0.9C690.1,361.5,690.1,361.9,690.1,362.5z"/>
	<path d="M822.7,157c0-1.4,0-2.6,0-4.2c-1.2,1.5-0.9,3.4-2.5,4.2c-0.5,0.2-1-0.1-1.4-0.7c1.3-4.6,1.8-9.4,1.8-14.3
		c0.1-4.8,0.3-9.7-0.3-14.6c1.2,0.1,1,0.9,1.1,1.5c0.8,6.9,1.6,13.7,2.4,20.6c0.2,1.8,0.3,3.6,0.1,5.4
		C823.8,155.6,823.8,156.4,822.7,157z"/>
	<path d="M804.9,178.6c-0.2-1.4-2-1.8-2.2-3.7c2.6,2.1,5.5,3.5,6.2,7.1c-1.8,0.7-3.5-0.7-5.1,0.4c-1.9-1.7-3.3-3.4-3.7-6.1
		c1.8,0.6,2.8,2.1,4.4,2.6c0.5,0.5,0.8,1.4,1.8,0.7C805.9,179.2,805.5,178.7,804.9,178.6z"/>
	<path d="M800,132.7c1.2,6.3-0.8,12.5,1.5,18.3c-1.3-0.1-0.8,1.4-1.8,1.5C798.2,149.3,798.3,139.2,800,132.7z"/>
	<path d="M807.7,153.4c-2.1-2.6-4.7-13-5.1-20C804.4,140,805.7,146.8,807.7,153.4z"/>
	<path d="M775.4,148.2c-0.2-4.9,2.2-9,4.1-13.3C779.7,139.8,776.2,143.6,775.4,148.2z"/>
	<path d="M792.4,143.7c1,3.6,1.9,7.3,2.9,10.9C793.4,151.2,792.7,147.5,792.4,143.7z"/>
	<path d="M797.9,155.1c-1-3.2-1.7-6.2-1.3-10C797.5,148.8,797.8,152,797.9,155.1z"/>
	<path d="M801.5,144.3c1.1,1.1,0.8,2.5,1.1,3.8c0.6,2.1,0.9,4.3,1.4,6.6C802.6,152.6,801.7,148.6,801.5,144.3L801.5,144.3z"/>
	<path d="M791.4,155.2c0-2.1,0-4.2,0-7c1,2.7,1.2,4.8,1.2,6.9C792.1,155.6,791.7,155.2,791.4,155.2L791.4,155.2z"/>
	<path d="M745.7,194.5c1.2-1,2.2-1.2,3.5-0.2C748,195.1,747,194.6,745.7,194.5z"/>
	<path d="M791.3,155.1c-0.2,0.3-0.4,0.4-0.9,0.2c-0.4-1.3-0.3-2.7-0.3-4.1l-0.1,0.1C791.2,152.3,790.1,154.2,791.3,155.1
		L791.3,155.1z"/>
	<path d="M801.6,144.2c-0.8-0.7-0.4-1.6-0.7-2.8C801.7,142.6,801.5,143.5,801.6,144.2L801.6,144.2z"/>
	<path d="M825.2,141.7c-0.6-0.5-0.7-1.2-0.3-2C825.2,140.4,825.2,141.1,825.2,141.7L825.2,141.7z"/>
	<path d="M790.1,151.3c-0.5-0.5-0.4-1.1-0.4-1.7C790.1,150.1,790,150.7,790.1,151.3L790.1,151.3z"/>
	<path d="M817.9,153.2c0,0.4,0,0.8,0,1.2c-0.1,0-0.1,0-0.2,0c0-0.4,0-0.8-0.1-1.2C817.7,153.3,817.8,153.2,817.9,153.2z"/>
	<path d="M759.1,157.9c0-0.7,0.3-0.9,1-0.7C759.9,157.9,759.9,157.9,759.1,157.9z"/>
	<path d="M374.6,271c2.5-0.4,3.7-3.5,6.7-2c-0.9,1.6-2.8,1.7-4.2,3c-0.7,1.4-1,3.6-3.1,4.5c-0.5,0.2-1,0.1-1.5-0.7
		C372.9,274.2,375,273.1,374.6,271z"/>
	<path d="M453.2,264c2.1-0.9,4.2-0.8,6.8-0.9C457.8,264.3,457,264.4,453.2,264z"/>
	<path d="M485.8,245.7c2.8-1.8,3-1.8,5.8-2.1C489.6,244.9,487.8,245.5,485.8,245.7z"/>
	<path d="M490.1,271.8c-1.8,0.4-3.1,0.3-5.1-0.7C487.1,270.9,488.6,270.4,490.1,271.8z"/>
	<path d="M382.6,269.6c1-1.5,1.9-1.6,3.2-1.1C385,269.6,384.2,269.9,382.6,269.6z"/>
	<path d="M467.5,248.2c0.8-0.5,1.5-0.3,2.3-0.2c0.1,0.9-0.4,0.9-1,0.9C468.4,248.9,468,248.8,467.5,248.2z"/>
	<path d="M389.7,267.9c0.2-1.1,0.8-1.1,1.7-0.7C391,268.1,390.6,268.4,389.7,267.9z"/>
	<path d="M397.4,265.8c-0.6,0.5-0.8,0.7-1.1,0.9C395.8,265.9,396.3,265.9,397.4,265.8z"/>
	<path d="M579.8,253.4c2.9-1.4,5.8-2.9,9.4-3.1C586.9,251.9,581.7,253.7,579.8,253.4z"/>
	<path d="M536.4,219.6c-0.9-0.2-0.9-0.6-0.7-1.4C536.4,218.3,536.6,218.7,536.4,219.6z"/>
	<path d="M760.8,268.8c1.7-4.5,2.5-5.4,5.2-6.1c-0.4,1.5-1.7,2.2-2.7,3C762.4,266.6,761.9,267.7,760.8,268.8z"/>
	<path d="M777.5,342.4c-1.8-1.9-1.3-3.7-1.5-5.3C776.8,338.5,777.6,340,777.5,342.4z"/>
	<path d="M762.7,215.8c0.8,0.3,1,0.7,1,1.3C762.8,217.2,762.4,216.9,762.7,215.8z"/>
	<path d="M771.8,324.3c0.8,0.5,0.9,1,0.8,1.7C772,325.6,771.8,325.2,771.8,324.3z"/>
	<path d="M372.1,311.8c-0.5-0.9-1-1.6-1.3-2.4c-1-2.3-0.1-4.5,2-5.2c1.9-0.7,4.1,0.5,4.7,2.6c0.6,2.2-0.6,4-3.1,4.5
		C373.7,311.4,372.9,311.6,372.1,311.8z M374.5,309.8c1.6-0.6,2.2-1.6,1.6-3.1c-0.4-0.9-1.4-1.3-2.4-1.1c-1.3,0.3-1.7,1-1.6,3.2
		c0.7,0.3,1-0.8,1.9-0.2C374.1,308.7,373.7,309.4,374.5,309.8z"/>
	<path d="M371.3,303.6c-2.2-0.1-3.5-1.5-3.5-3.7c0-2.1,1.6-3.7,3.6-3.6s3.5,1.8,3.6,3.8C375.1,302.2,373.5,303.7,371.3,303.6z
		 M371.5,297.8c-1.5,0.3-2.6,1-2.3,2.8c0.2,1.1,1,1.6,2.1,1.5c1.2-0.1,2.1-0.6,2.4-1.7C374,298.8,372.9,298.1,371.5,297.8z"/>
	<path d="M368.7,295.2c-0.9,0.5-1.1,1.2-1.9,1.4c-0.1-0.3-0.3-0.6-0.2-0.8c0.1-1.1,1.4-1.6,1.3-2.6c-0.5-1.6-2.2,0.5-2.7-1.5
		c2-0.9,4.1-1.5,6.4-2.1c0.5,1.6,1.4,3,1,4.8C371.7,295.9,370.3,296,368.7,295.2z M370.8,294.2c0.9-1.1,0.5-2,0-2.7
		c-0.8-0.2-1.3-0.1-1.8,0.6C369.3,292.8,369.2,293.9,370.8,294.2z"/>
	<path d="M388.3,308.1c-0.1,2.7-2.2,3.6-6,2.7C383.4,308.4,385.4,307.5,388.3,308.1z"/>
	<path d="M385.6,315.9c1.5-1.9,1.5-1.9,3.7-1.1C388.4,316.8,388.3,316.8,385.6,315.9z"/>
	<path d="M405.7,303.6c-2.8,1.6-2.8,1.6-4.4-0.4C402.9,302.2,404.2,302.7,405.7,303.6z"/>
	<path fill="none" d="M554.1,611.6c-1.3,0-2.2-0.9-2.2-2.2s0.9-2.2,2.2-2.2s2.2,0.9,2.2,2.2C556.4,610.7,555.4,611.6,554.1,611.6z"
		/>
	<path fill="none" d="M554,619.3c-0.1-0.7-0.1-1.1-0.1-1.4c-0.4-0.9-1.2,0.3-1.7-0.4c-0.4-0.9,0.3-2.1,1.4-2.4
		c1.2-0.4,2.4,0.2,2.8,1.4C556.9,617.9,556.3,618.7,554,619.3z"/>
	<path fill="none" d="M554.1,600.8c0.7-0.6,1.2-0.5,1.8-0.1c0.3,0.9,0.7,2-0.8,2.6C554,602.7,554,601.8,554.1,600.8z"/>
	<path fill="none" d="M804.9,178.6c0.6,0.1,1,0.6,1.5,1c-1,0.7-1.3-0.2-1.8-0.7C804.7,178.8,804.8,178.7,804.9,178.6z"/>
	<path fill="none" d="M374.5,309.8c-0.8-0.3-0.4-1.1-0.7-1.2c-0.9-0.6-1.2,0.6-1.9,0.2c-0.1-2.1,0.3-2.9,1.6-3.2
		c1.1-0.2,2,0.2,2.4,1.1C376.7,308.1,376.1,309.1,374.5,309.8z"/>
	<path fill="none" d="M371.5,297.8c1.4,0.3,2.4,1,2.1,2.6c-0.2,1.2-1.2,1.7-2.4,1.7c-1.1,0-1.9-0.4-2.1-1.5
		C368.9,298.8,370,298.1,371.5,297.8z"/>
	<path fill="none" d="M370.8,294.2c-1.6-0.3-1.5-1.4-1.7-2.2c0.5-0.6,1-0.7,1.8-0.6C371.3,292.3,371.7,293.1,370.8,294.2z"/>
</g>
</svg>
