<?xml version="1.0" encoding="utf-8"?>
<!-- Generator: Adobe Illustrator 19.1.0, SVG Export Plug-In . SVG Version: 6.00 Build 0)  -->
<svg version="1.2" baseProfile="tiny" id="Layer_2" xmlns="http://www.w3.org/2000/svg" xmlns:xlink="http://www.w3.org/1999/xlink"
	 x="0px" y="0px" width="900px" height="600px" viewBox="144 97 900 600" xml:space="preserve">
<g>
	<path d="M576.3,114.4c2,2.7,4.4,5,7.1,7.3c0.2-1.1,0.4-1.9,0.6-2.6c0.7-0.6,1.5-0.7,2.2-0.4c3.7,1.4,6.7,3.4,7,7.8
		c0.1,1.6,1.2,2.7,1.7,4.3c0,1,0,2.2,0,3.3c-0.4,0.7-1.3,0.4-1.6,1.3c0.7,1.8,1.7,3.7,3,5.4c1,1.3,1.7,2.7,2.3,4.2
		c0.5,1.3,1,2.6,1.8,3.7c1.9,2.8,3.2,5.9,4.6,8.9c3.1,6.7,8,11.6,14.7,14.7c3.5,1.6,6.9,3.4,10.7,4.4c1.9,0.5,3.9,1,5.8,1.2
		c7.2,0.8,10.6,1.6,17.4,3.6c3.3,1,6.1,2.8,8.5,5.2c5,5.2,7.8,11.5,8.8,18.6c0.3,2.1-0.3,4.4-0.7,6.6c-0.3,1.8-0.8,3.7-1.5,5.4
		c-1,2.6-1.3,5.3-1.2,8.1c0.1,3.4,0.2,6.7,0.2,10.1c0,0.5,0,1,0.1,1.5c1.3,4.2,1.2,8.6,1,13c-0.2,6.1-0.3,12.2-1,18.2
		c-0.1,1.1-0.2,2.2,0.1,3.3c0.2,0.6,0.4,1.2,0.3,1.8c-0.4,2.9,0.7,5.4,1.7,7.9c1.2,2.8,2.2,5.5,3.4,8.3c2.4,5.8,3.7,11.8,3.5,18.2
		c-0.1,2.1,0.3,4.2,0.7,6.3c1.8,10.4,5,20.5,7.6,30.8c1.8,7,2.6,12.4,2.8,19.3c1,1.2,1.2,2.8,1.2,4.4c-0.1,4.8,0.9,9.4,2.1,14
		c0.9,3.4,1.4,6.8,1.9,10.2c0.2,0.9-0.1,2-0.3,3c-0.5,2.3-0.5,4.7-0.6,7c-0.2,4.6-0.5,9.2-2.1,13.4c0,1,1,1.7,0.5,2.8
		c-0.2,0.1-0.5,0.4-0.8,0.4c-1.1-0.1-2.2-0.3-3.2-0.4c-0.9-0.8-1.5-1.8-1.8-2.9c-1-3.8-2-7.7-1.6-11.7c0.2-2.2,0.3-4.5,0.2-6.7
		c0-1.3,0.3-2.4,0.9-3.6c-1-1.2-2-2.3-3-3.5c-0.3,0.6-0.6,0.9-0.6,1.2c0,0.7,0,1.5,0.2,2.2c0.5,2.5-0.1,4.7-1.8,6.6
		c-0.4,0.5-0.7,1-1.1,1.5c-0.1,3.1,0.7,6,1.1,8.9c0.9,5.7,1.9,11.3,2.4,17c0.1,1.6,0.4,3.2,0.4,4.8c0,6,0.4,11.9,0.8,17.9
		c0.8,10.7,1.6,21.3,3.1,31.9c0,0.1,0,0.2,0.1,0.4c1.4,5.6,1.5,11.3,1.8,17c0.2,4,0.9,7.9,1.5,12c1.4,1.6,2.2,3.7,2.8,5.9
		c1.1,4,2.5,7.8,4.2,11.5c2.6,5.6,4,11.5,5.2,17.5c1,4.8,1.5,9.6,1.5,14.5c0,5.1,0.4,10.2,0.4,15.3c0.1,7,0.8,13.9,1.3,20.8
		c0.5,6.9,1.1,13.9,1.9,20.8c0.4,3.5,0.4,6.9,0.7,10.4c0.2,2,0.1,2-1.1,4c0.6,1,2,1.8,1.3,3.3c-0.8-0.1-1.4-0.6-2-1
		c-1.2-0.7-2.5-1.2-3.9-1.2c-2.8,0-5.4,0.3-8,1.3c-1.7,0.7-2.9,1.7-4,3.2c-1,1.3-1.1,2.7-1.3,4.2c0.5,1.2,0.3,2.8,1.7,3.8
		c3-1.4,6.2-1.7,9.4-1.1c3.2,0.5,6.7,0.3,9.3,2.2c0.5,1.2,0.2,1.8-0.2,2.5c0.6,1.1,2,2.1,0.6,3.8c-0.8,0.5-2,0.8-3.3,0.9
		c-3.5,0.2-7,0.3-10.4,0c-1.1-0.1-2.2-0.4-3.3-0.7c-0.9-0.3-1.5-0.9-1.6-1.9c1.1-1.6,1.1-1.6,2.1-1.7c1.5-0.1,3-0.1,4.5-0.1
		c2.2,0,4.4,0,6.7-0.1c-4.9-1.5-9.9-1.3-14.7-1.8c-1.3,0.9-0.6,2.3-1.2,3.2c-0.4,0.4-1,0.7-1.3,2.2c0,0.9-0.1,2.6-0.2,4.3
		c-0.1,1.7-0.3,3.5-0.5,5.2c-0.3,3.5-0.4,6.9,0.5,10.4c0.5,2,0.5,4.2-0.1,6.3c-0.5,1.7-0.6,3.4-0.3,5.1c1.8,2.1,1.8,2.1,4.3,2.4
		c2.5-3.9,2.6-3.9,10.5-6c0.3-0.6,0.6-1.3,0.9-1.8c2.1-0.3,2.2-0.3,3.7,0.3c2.3,0.8,4.7,1.6,6.4,3.3c0.1,0.6,0.1,0.9-0.5,1.3
		c-2.2-0.6-4.2-2.2-6.8-2.6c-0.4,1.3-1.5,1.6-2.6,1.8c-1.5,0.3-2.9,0.5-4.4,0.8s-2.8,1-3.9,2.1c-0.4,0.4-1.1,0.7-0.6,1.5
		c1.1,0.2,2.2,0.4,3.3,0.6c2.3,0.4,4.6,0.5,7-0.3c1.8-0.6,3.6-0.7,5.5-0.9c3.7-0.4,7.4-1,10.6-2.4c0.9-1.3,1.3-2.4,0.9-3.7
		c-0.3-1.3-0.7-2.7-0.7-4c0.1-4-1.2-7.6-2.8-11.1s-2.5-7-3.1-10.8c-1.5-1.4-2-3.3-2.2-5.3c-0.2-1.5-0.3-3-0.4-4.4
		c-0.2-2.8-0.6-5.5-2.9-7.4c-0.8-0.6-0.6-1.6-0.9-2.4c3.8,0.3,5.8,2.5,6.6,6c0.3,1.3,0.5,2.7,0.6,4.1c0.1,4.4,1.3,8.6,2,12.9
		c0.2,1.3,0.6,2.7,1.2,3.9c1,1.9,1.6,3.9,2.4,5.9c1,2.7,1.8,5.4,1.8,8.3c0,1.5,0.4,3,0.7,4.4c0.4,2.3-0.3,4.1-2.1,5.6
		c-1.2,1-2.5,1.6-3.9,2.1c-3.6,1.2-7.3,1.7-11,1.8c-4.1,0.1-8.2,0.3-12.3-0.3c-1.1-0.2-2.2-0.4-3.3-0.5c-2.5-0.3-4.5-1.4-5.8-4
		c0.2-2.7-0.4-5.6,0.3-8.6c0.3-1.2-0.1-2.7-0.4-4c-0.7-3-0.7-5.9-0.2-8.9c0.3-2.2,0.3-4.5,0.3-6.7c-0.1-3.3,0.7-6.4,2.1-9.4
		c0.3-0.6,0.5-1.1,0.7-1.8c-0.5-2.6-1.7-5.2-1.3-8.2c0.5-1.3,1.8-2.5,2.2-4.4c-0.5-1.8-0.9-3.8-1.6-5.8c-2.1-5.7-3.6-11.6-5.2-17.5
		c-0.4-1.4-0.3-3.1-1.8-3.6c-2.5-9.4-5.3-18.4-8.4-27.3c-0.4-1.3-1.1-2.5-1.9-3.6c-3-4.5-4.8-9.5-6.4-14.6c-1-3.1-1-6.4-1.4-9.6
		c-0.9-6.9-1.3-13.9-1-20.8c0.2-5.4-0.9-10.6-3.9-15.3c-2.8-4.4-5.3-9-8.4-13.2c-0.8-1.1-1.3-2.4-1.8-3.7c-0.8-2.2-1.7-4.4-2.2-6.7
		c-0.6-2.4-2.2-4.4-2.6-6.9c-0.3-2.5-0.9-4.9-1.5-7.3c-1.2-5.1-2.8-10.1-4.3-15.1c-1.3-4.2-2.6-8.3-3.2-12.6c-0.2-1.6-1-3-1.8-4.4
		c-3.2-5.2-6.1-10.6-8.6-16.1c-1.6-3.4-2.9-6.9-3.8-10.5c-0.6-2.4-1.2-4.8-1-7.4c0.1-1.9-0.3-3.7-1-5.4c-1.3-3.1-2.5-6.2-3.7-9.4
		c-0.2-0.6-0.5-1.1-0.3-1.9c0.2-0.2,0.5-0.4,0.8-0.6c0.9,0,1.5,0.5,1.8,1.2c0.7,1.7,1.5,3.4,2,5.2c0.6,2.3,1.4,4.5,2.4,6.8
		c2.7,0.4,5.3,0,8-0.6c0.3-0.4,0.5-0.8,0.9-1.3c0.5-0.1,1.1-0.1,1.7-0.2c4.7-0.7,9.4-1.4,14.1-1.1c4.4,0.3,8.7-0.5,12.8-1.8
		c5.2-1.6,10.3-3.5,15.6-5.2c0.1-2.9-0.6-5.6-0.9-8.2c-1.1-8.9-3.3-17.6-5.1-26.4c-0.5-2.4-1.4-4.8-2.3-7.1
		c-1.9-4.8-3.2-9.7-4.2-14.7c-0.3-1.3-0.6-2.6-0.9-3.9c-1.6-1.1-3.3-0.9-4.8-0.6c-3.9,0.8-7.8,1.4-11.5,3.1c-2.6,1.2-5.4,1.7-8.3,2
		c-8.3,0.7-16.6,1-25,0c-0.6-0.1-1.2,0-2.1,0c-0.6,4.1-0.3,8.2-0.8,12.8c-0.4-4.6-0.7-8.6-0.5-12.6c-1.3-0.7-2.5-0.5-3.7-0.7
		s-2.5-0.3-3.7-0.4c-3.7-0.4-7.4-0.9-11.1-1.3c-1.6-0.2-3.2-0.5-4.8-0.5c-3.2,0.1-6.2-0.5-9.2-1.5c-4.3-1.4-8.8-1.4-13.4-1.9
		c-3.2,9-5,18-4.8,27.6c-1.4,0.9-1.8,2.5-2.1,4.1c-1.3,6.5-2.5,12.9-3.8,19.4c-0.4,2.1-0.9,4.1-1.3,6.2c-0.2,0.8-0.5,1.7,0,2.7
		c3.4,1.8,7.2,3,11,4.1c3.7,1,7.5,1.7,11.3,2c0.3,0.6,0.4,1,0.7,1.6c3.3,0.4,6.6,0.7,10,0.6c3.5-0.1,7-0.3,10.4-0.5
		c3.3-0.2,6.5-1.2,9.6-1.3c0.5,1.1,0.2,1.6-0.4,2c-1.1,0.8-2.5,1.1-3.8,1.4c-10.5,2.5-21,2.2-31.3-1.3c-2-0.7-4.1-1.1-6.1-1.6
		c-3.3-0.8-6.4-1.9-9.5-3.3c-0.9-0.4-1.6-1.1-2.9-1c-4,11.3-4.9,23.2-5.9,35.2c0.9,1.4,1.1,3.1,1.1,4.9c0,1.7,0.1,3.5,0,5.2
		c-0.4,10.9-0.6,21.9-0.4,32.8c0.1,5.5-0.3,10.9,0.5,16.4c-0.8,1.8-1.2,3.8-1.5,5.7c-0.6,4.1-1.7,8-3.1,11.9
		c-0.4,1.1-0.8,2.1-0.6,3.3c0.5,3.1-0.5,5.9-1.9,8.6c-3.8,7.3-6.2,15.2-8.4,23.3c0.6,1.7,0.4,3.5,0.2,5.4c-0.5,5.3-0.5,10.7,0,16
		c0.8,8.3,0.7,16.6-0.1,25c-0.1,0.6-0.1,1.2-0.1,1.9c-0.5,6.1-1,12.1-1.4,18.2c-0.4,6.8-1.1,13.6-1,20.5c0,0.6-0.1,1.3,0.5,1.9
		c1.4-0.1,2.8-0.4,4.2-0.8c1.5-0.4,2.9-0.5,4.4-0.4c1.7,0.1,2.8,0.9,3.2,2.5c-0.2,0.6-0.4,1-1,1.1c-0.9,0.1-1.4-1-3-1
		c-1.4,0.3-3.5,0.8-5.6,1.1c-1.9,0.3-3.2,1.3-4.1,2.9c-0.5,0.9-1,1.7-1.6,2.6c-0.3,1.5-0.1,2.9,0,4.3c0.7,0.7,1.5,0.5,2.2,0.6
		c4.2,0.1,8.4,0.8,12.5,1.7c1.5,0.3,3.2,0.6,4.2,2c0.2,0.6,0,1.1-0.6,1.5c-1.8,0.6-3.7-0.7-6.1-0.4c1,0.8,1.9,1.4,2.2,2.4
		c0,0.7-0.3,1.2-1.2,1.5c-3.4-0.7-7.1-0.4-10.9-0.2c-3,0.1-3.7,0-6.2-1.1c0-1.2,0.9-1.7,1.8-2c1.8-0.5,3.6-0.8,5.5-0.9
		c2-0.1,4-0.1,6-0.6c-3-0.3-6-0.6-9-0.8c-1.6-0.1-3.3-0.2-4.3,1.3c-0.7-0.6-0.7-1-0.6-1.5c0.3-1.1,1.1-1.9,1.8-2.5
		c0.1-0.7,0.1-1.2-0.3-1.7c-0.6,0.3-1.3,0.7-1.8,1c-1.8,3.2-2.3,6.7-2.8,10.1c-0.7,4.4-1.8,8.8-2.7,13.1c-0.4,2-1.6,3.6-2.5,5.4
		c-0.6,1.2-1.1,2.5-1.4,3.8c-0.4,1.7-0.7,3.4-1.6,4.7c0.1,1.6,0.6,2.9,1.3,4.3c4.7,2.5,10,3.5,15.4,3.3c4.2-0.2,8.5-0.2,12.7-0.2
		c1.1,0,2.3,0.2,3.4-0.8c-0.4-2.4,0.6-4.5,1.7-6.6c0.3-0.5,0.6-1.1,0.9-1.6c2.1-3.4,2.3-7,1.6-10.8c-0.2-1.2-0.3-2.4-0.1-3.7
		c0.2-1.6,0.3-3.2,0-4.8c-0.4-3.1-0.5-6.2,0.6-9.4c-1.7-5.3-3.5-10.7-5.2-16c0.3-0.8,0.6-1.3,1.4-1.4c0.9,0.1,1.5,0.6,1.9,1.4
		c1.3,2.7,2.5,5.5,2.7,8.5c0.1,2.3,0.6,4.4,1.2,6.5c0.1,0.4,0.1,0.7,0.2,1.4c-1.3,1.5-1.1,3.5-1,5.5c0.1,3.4,0.6,6.7-0.2,10
		c-0.1,0.3,0,0.8,0.1,1.1c0.9,2.4,0.3,4.9,0.5,7.4c0.1,1.1-0.4,2.2-0.7,3.3c-0.7,2.5-1.4,5-1.9,6.8c0,1.4,1.1,1.4,0.9,2.4
		c-1.7,2.6-4.1,3.9-7.4,3.8c-4.6-0.1-9.2,0-13.8,0.2c-4.1,0.2-8.2-0.6-12.1-2.2c-0.7,0.3-1.3,0.5-2,0.7c-3.8-2.5-5.2-5.8-4.2-9.9
		c0.9-3.5,1.7-7,3.3-10.3c1.5-3,1.7-6.5,2.3-9.8c0.5-2.6,0.9-5.1,2.2-7.5c0.4-0.8,0.6-1.6,0.7-2.5c0.2-1.4,0.4-2.7,1.3-3.9
		c0.7-1,0.2-2.2,0.8-3.2c1.2-1.3,3.2-1.3,4.3-2.7c0.5-0.7,0.5-1.4,0.6-2.2c0.1-1.7,0.7-3.2,1.7-4.5s1.3-2.6,1.3-4.2c0-1,0.1-2,0-3
		c-0.2-5.5,0-10.9,0.5-16.4c0.4-4.5,0.6-8.9,0.8-13.4c0.4-7.7,0.6-15.4,1-23.1c0.2-4.5,0-9-0.3-13.4c0-0.4-0.1-0.7-0.1-1.1
		c0.1-7.7-0.2-15.5,1.5-23c1.6-6.9,4.2-13.5,8.1-19.5c0.6-1,1-2.1,0.8-3.2c-0.4-2.9,0.5-5.7,1.2-8.4c0.2-0.8,0.5-1.7,0.8-2.5
		c1.3-3.9,2.2-7.9,2.1-12.1c-0.1-3.1,0.7-6.2,1.2-9.2c0.3-2,0.3-3.9,0.1-5.9c-0.5-5.9-1.4-11.9-0.8-17.8c0.1-1.1,0-2.2-0.1-3.4
		c-0.8-11.6-1.2-23.1-0.1-34.7c0.6-6.1,1.4-12.1,2.3-18.1c0.3-1.8,0.8-3.6,1.4-5.4c0.9-3.1,1.5-6.3,2.2-9.4c1.6-7.7,3-15.4,5-22.9
		c0.7-2.5,0.9-5.1,1.2-7.7c0.7-6.5,2.6-12.6,4.7-18.8c1.1-3.3,2.1-6.6,2.8-10c1.2-5.5,2.9-10.8,4.7-16.1c1.2-3.4,2.3-6.8,3.4-10.3
		c1.1-3.5,1.1-7.2,0.5-10.7c-0.8-4.8-2.1-9.5-3.1-14.2c-0.4-1.7-0.6-3.4-0.7-5.1c-0.2-2.6-1.1-5.2-2.7-7.2
		c-2.8-3.7-4.7-7.9-6.2-12.3c-1.3-3.8-2.5-7.6-3.7-11.3c-0.7-2.1-1.2-4.3-3-5.9c-0.8-0.8-1.1-1.9-1.3-3c-0.4-2.1-1.2-4-2-6
		c-0.7-1.7-1.1-3.5-1.7-5.3c-0.5-1.8-1.1-3.6-1.6-5.2c-0.7-0.6-1.2-1.2-1.8-1.6c-4.4-3.1-8.6-6.3-13.2-9.1
		c-7-4.3-14.5-7.6-21.8-11.4c-7.1-3.8-13.5-8.3-19.1-14.1c-6.7-6.9-12.8-14.2-17.8-22.4c-1.1-1.9-2-3.7-1.6-6c0.2-0.8,0.9-1.4,1.5-2
		c0.7-0.7,1.4-1.4,1.9-2.3c2.4-4.4,6.3-7.4,10-10.4c3-2.4,6.1-4.7,9.2-7c0.9-0.7,1.8-1.3,2.6-2.1c2.3-2.3,5-4.1,7.8-5.7
		c4.3-2.5,8.6-4.9,13-7.3c2.5-1.4,4.9-2.9,7.2-4.6c3.2-2.3,6.5-4.6,10.2-6.2c2.3-2.2,5.4-2.9,8.1-4.4c3.4-1.8,7.1-2.4,10.8-2
		c2.5,0.2,5,0.2,7.4-0.3c2.1-0.4,4.2-0.1,6.3,0.3c0.3,0.1,0.7,0.3,0.7,0.8c-0.1,0.4-0.4,0.7-0.7,0.6c-3.8-0.8-7.7,0.1-11.5,0.2
		c-1.4,0-2.7,0.2-4.1,0.1c-2.9-0.1-5.7,0.3-8.3,1.6c-1.4,0.7-3,1.2-4.6,1.8c-3.8,4.3-9,6.8-13.7,10c-6.8,4.7-14.2,8.3-21.3,12.3
		c-1.7,1-3.3,2.1-4.9,3.4c-3.4,2.8-6.8,5.5-10.3,8c-3.2,2.4-6.1,5.1-8.7,8.1c-2,2.3-3.9,4.5-6.3,6.4c-0.3,0.2-0.5,0.6-0.7,0.9
		c-0.3,1.8,0.2,3.4,1.2,4.9c2.4,3.7,4.6,7.7,8,10.7c1.2,1.1,1.9,2.6,3,3.8c2.3,2.8,5,5.2,7.8,7.5c4.5,3.9,9,7.8,14,11.1
		c2.5,1.6,5,3.2,8,3.9c0.8,0.2,1.6,0.6,2.4,1c7.3,4,14.6,8,21.9,12c1.3,0.7,2.2,1.6,2.5,2.9c2,1.2,4,2.2,6.1,2.7
		c1.6,1.3,2.8,2.7,2.9,4.7c0,0.1,0,0.3,0.1,0.4c2.5,3.5,2.6,7.7,3.8,11.6c0.3,0.9,0.6,1.9,0.9,2.9c0.6,0.2,1.2,0.4,1.8,0.5
		c1.2,0.2,2.5,0.3,3.5,0.4c1.6-0.5,2.6-1.4,3.5-2.4c3.6-3.9,6.5-8.2,9.2-12.6c1.4-2.3,2.2-4.6,2.3-7.4c0-3.2,0.5-6.4,0.7-9.7
		c0.1-2.2,0.7-4.4-0.1-6.6c-0.2-0.6,0.1-1.5,0.1-2.2c0-1.5,0.1-3-0.8-4.5c-0.5-0.3-1.1-0.8-1.7-1.1c-4.7-2.3-9.3-4.7-14-6.9
		c-1.9-0.9-4-1.4-6.1-1.5c-1,0-2,0-3,0c-3.8,0.1-7.5-0.1-10.9-1.9c-4.8-0.8-8.6-3.7-12.7-6c-0.9-0.5-1.7-1-2.3-1.8
		c-1.3-1.6-3-2.6-4.7-3.6c-0.9-0.5-1.8-0.9-2.6-1.4c-4.2-2.1-8.6-3.8-11.8-7.2c-1.5-0.1-2.4,0.5-3.4,1.1c-1.6,1-3.2,1.2-5.4,0.3
		c4.2-1,7.2-3.4,10.4-5.6c2.3-1.6,4.3-3.3,5.7-5.8c0.4-0.6,0.9-1.2,1.4-1.7c3.4-3.6,6.9-7.2,10.3-10.8c1.4-1.4,2.7-2.9,3.9-4.5
		c3.2-4.2,6.4-8.2,10-12.1c0.8-0.9,1.2-1.9,1.7-2.9c-0.3-0.7-0.5-1.4-0.8-2c0.3-0.6,0.4-1.2,1-1.6c1.1-0.1,1.4,0.9,2,1.4
		c0.8-0.5,1.4-0.3,2,0.3c-0.3,0-0.4,0.1-0.2,0.2l0.1-0.3c1.7,1,3.4,0.3,5-0.4c1.1-0.5,2.2-1.2,3.3-1.8c1.4-0.8,2.8-1.5,4.3-2.3
		c2.7,0.3,5.5,0,8.2,0.8c0.1,0,0.2,0,0.4,0c4.4-0.3,8.6,1,12.8,2.1c0.2,0.1,0.5,0,0.8,0c0.9,0.6,1.6,1.5,2.8,1.6l-0.1-0.1
		C575.8,113.9,576.1,114.2,576.3,114.4L576.3,114.4z M660,330.8c0,0.6-0.1,1.3,0.7,1.5c-0.2,0.9,0.1,1.7,0.4,2.5
		c0.9,2.2,1.3,4.5,1.7,6.8c0.4,2.2,0.7,4.4,0.9,6.6c0.3,2.6,1.1,5.1,2.3,7.4c0.8,1.4,1.4,2.9,1.9,4.4c1.1,3,2.1,6.1,3.1,9.1
		c0.5,1.5,1.1,3,1.8,4.6c0.4-0.3,0.7-0.5,0.9-0.7c0.5-1.2-0.2-2.3,0.1-3.4c0.5-0.8,0.9-1.5,1.4-2.2c0.4-0.8,0.6-1.7,0.3-2.5
		c-0.9-2.4-1.4-5-2.9-7.2c-1.5-2.4-3-4.8-3.8-7.6l0.2-0.1l-0.1,0.2c-0.8-0.4-1.3-1-1.1-2c0.3,0,0.5,0.1,0.9,0.1
		c-0.3-1.2-0.7-2.3-1.5-3.4c-0.5-0.7-0.9-1.5-1.2-2.3c-1.2-3.4-3-6.5-4.6-9.7c-0.2-0.3-0.5-0.5-0.8-0.7
		C660.7,331.8,660.7,331.2,660,330.8c-0.1-0.5,0-1.2-0.9-1.4c-0.4-2.4-3.4-9.7-5-12.3c-1.3-2.1-2.5-4.3-3.8-6.4l-0.1-0.1l0.2,0.1
		c-0.5,2.2,0.4,4.1,1,6.1c1.3,0.6,1.9,1.7,2.5,3c1.5,3.3,3.3,6.5,5.3,9.6C659.3,329.9,659.2,330.6,660,330.8z M575.6,117.4l0.1,0.2
		L575.6,117.4c0-0.3,0.2-0.7-0.4-1C574.9,116.9,575,117.2,575.6,117.4z M561.4,167.5c-0.1-0.3-0.3-0.6-0.8-0.4
		C560.9,167.2,561.2,167.3,561.4,167.5c1.5,1.1,1.6,1.1,2.6,0.9C563.3,167.5,562.4,167.3,561.4,167.5z M591.1,128
		c0.1-0.4,0.3-0.9-0.2-1.2C590.4,127.3,590.9,127.6,591.1,128c0.4,0.9,0.3,1.8,0.1,2.8s0.1,2,1.2,2.6c0.3-0.1,0.6-0.2,1-0.4
		c0-1.4-0.4-2.7-1-3.9C592.2,128.6,591.9,128,591.1,128z M544.2,118.1c0,0.5,0.2,0.8,0.8,0.7c0,1.4,1.2,2.1,1.8,3.1
		c0.7,1.1,2.2,1.5,2.8,2.9c-2.1,0.3-2.6,2.4-4.4,3c-2.9-0.3-5.6-1.6-8.4-2.6c-0.8-1.1-1.3-2.5-2.9-2.6c-0.6,0.1-0.8,0.5-0.8,1.3
		c2.8,2.5,6.6,3.6,10.1,5.3c-1.7,0.5-4.3,0.3-5.5,0c-1.9-0.6-2.9-2.7-4.9-3c-0.9,1.3-0.3,2.2,0.4,3.1c-0.5,0-1,0-1.3,0.5
		c1,2.2,1.3,2.3,3.6,1.9c-0.6-1.1-2.3-1.1-2.5-2.6c2,0.3,3.5,1.6,4.9,2.4c0.4,0.7,0.4,1.2,0.2,1.7c-1.4,0.6-2.9,0.2-4.3,0.4
		c-0.2-0.5-0.4-0.8-1-0.3c0.4,0.1,0.8,0.1,1.1,0.2c0.7,1.1,2,0.8,3,1.1c0.5,0.1,0.9,0.3,0.9,1c-1.6,0.8-3.4-0.2-5,0.4
		c-0.1,1.2,1.2,1.2,1.6,1.9c0.1,0.9-0.4,2,0.7,2.7c0.8,0.2,1.7,0.4,2.5,0.7c-0.2,0.7-0.9,0.6-0.9,1.4c0.8,0.8,1.9,1.2,3.2,1.4
		l-0.1-0.1c-0.1,1.1-1.2,0.6-1.7,1.2c0.5,1,1.5,1.2,2.4,1.6c1.2,0.5,2.3,1,3.1,2c0.2,0.2,0.4,0.1,0.7-0.3c0.4-0.2-0.8-0.8,0.2-1.2
		c0.9,0.8,2.2,1.4,2.9,2.7c0.1,1.1-0.4,2.4,0.4,3.7c2.4,2.9,5.2,5.6,8.2,8.2c1.7,1.5,3.6,2.7,5.7,3.4c2.3,0.8,4.3,1.9,6.3,3.2
		c3,2.1,6.4,3.2,9.9,4.3c2,0.6,4.2,0.6,6.3,0.1c1.7-0.4,3.4-0.8,5-1.4c3.4-1.1,6.3-2.9,7.9-6.3c0.4-0.8,0.7-1.6,1.8-1.9
		c0.3,0.1,0.6,0.2,1,0.2l-0.1-0.1c-0.3,4-2.5,6.9-6.2,8.1c-3.3,1.1-6.5,2.5-9.8,3.5c-1.5,0.4-2.9,0.7-4.4,0.3
		c-0.5-0.1-0.9-0.4-1.3,0.4c0.9,2.9,1.9,5.9,3.7,8.6l0.1-0.1c-0.4,0.2-1,0.1-1.2,0.7c0.2,2.9,0.5,5.9,0.8,8.8c0.3,3.1,1,6.1,0,9.2
		c-0.1,0.3-0.1,0.7,0,1.1c0.2,2.7,0.5,5.4,0.7,8.1c0.1,1.2,0.4,2.4,1,3.5c3.8,7.3,11.7,11.3,20.1,10.1c0.1-0.1,0.3-0.2,0.3-0.3
		c0-2.7,0-5.4,0-8.2c0.5,0.4,0.9,0.7,1.4,1.1l-0.1-0.1c0.3,2.7,0.7,5.4,1.1,8.2c2.4,0.3,4.8,0.6,6.8,0.8c4.7-1.9,7.6-5.3,9.5-9.4
		c1.4-3.1,2.5-6.5,2.9-10c0.5-4.4,0.8-8.9,1.5-13.3s0.4-8.9,1.4-13.3c0.2-0.9,0.3-2-0.3-3c-2.9-1.4-5.8-2.8-8.7-4.1
		c-0.2-0.1-0.5-0.2-0.7-0.2c-1.9-0.1-3.2-1.3-4.5-2.4c-2.5-2.1-4.7-4.4-6.5-7.1c-2.3-3.5-4.8-7-6.3-11c-2.3-5.8-5.1-11.3-8.5-16.5
		c-1.3-2-2.7-3.9-3.5-6.2c-0.6-1.8-1.7-3.3-3.2-4.5c-1.2-0.9-2.1-2.1-3.6-2.6c-0.6-0.2-1.1-0.6-1.5-1c-1.4-1.4-2.9-2.7-4.4-4.1
		c-1,0.2-1.9,0.3-2.8-0.4c-1.1-1.4-1.2-3.1-1.6-4.7c-0.9,0.4-0.3,1.3-1,1.8c-2.6-2-5.3-3.7-8.7-4c-0.4,0.4-0.8,0.7-1.1,1
		c-1.1-1.1-2.1,0.2-3.2,0.1c-0.4-0.3-0.7-0.6-1.1-0.9c-0.6,0.7,0.3,1.7-0.8,2.5c-0.3-0.4-0.7-0.9-1.1-1.3c0.1-0.6,0.2-1.2,0.4-1.9
		c-2-0.5-3.8-0.4-5.5,0.3c-1.3,0.6-2.7,1.4-3.8,2.3s-2.8,1-3.5,2.4C542.8,116.9,543.2,117.9,544.2,118.1z M649.6,222.6
		c0.1,0.7-0.3,1.7,0.9,1.9c0.1-0.3,0.2-0.5,0.4-0.8C650.4,223.4,650,223,649.6,222.6c1.1-3.2,1.1-3.2,2.7-4.6
		c0.4,0.9-0.4,1.6-0.1,2.5c0.9,2.4,0.3,4.6-1.1,6.6c0.4,2.2,0.7,4.3,0.5,6.4c-0.3,3.5-0.3,7-2,10.1c-1.2,2.2-2,4.5-2.2,7.2
		c1.4,3.1,0.7,6.4,0.3,9.7c-0.1-0.5-0.1-0.9-0.3-1.4c-0.1-0.5,0.1-1.1-0.7-1.3c-0.3,1.4-0.2,2.8,0,4.1c0.9,5.3,1.5,10.6,1.4,16
		c0,0.9,0,1.8,0.4,2.5c0.7,1.4,0.7,2.9,0.7,4.4c0,3.5,0.1,7,1.1,10.3c0.1,0.5,0.2,1,0.3,1.4c0.3,2.6,0.4,5.2,0.8,7.7
		c0.1,1,0.5,1.9,0.9,2.8c1.1,2.4,2.3,4.7,3.5,7c4.1,7.8,8,15.7,11.5,23.8c1.8,4.1,3.4,8.3,5.3,12.4c1.7,3.7,3.4,7.5,4.5,11.4
		c0,0.2,0.2,0.3,0.4,0.4c0.4-0.2,0.3-1,1-0.8c0.2,0.2,0.4,0.4,0.5,0.6c1,3.8,0.4,7.4-1.7,10.7c-0.3,0.4-0.6,0.8-0.9,1.2
		c-1.2,1.8-1.7,3.7-1.2,6c0.8,3.1,1.3,6.4,1,9.6c-0.3,2.8,0.2,5.4,0.6,8.1c0.1,0.4,0.1,1,0.8,0.9c0.7-0.5,0.9-1.2,0.8-2
		c0-0.6-0.2-1.2-0.3-1.8c-0.6-2.6-0.3-4.9,1.3-7.1c0.9-1.3,1.5-2.8,2-4.4c0.2-0.7,0.4-1.4,1.3-1.7c0.4,0.1,0.7,0.3,0.8,0.9
		c-0.4,1.8-0.8,3.7-1.1,5.4c0.2,0.6,0.3,1,0.5,1.3c2.4,2.8,3.2,6,3.2,9.6c0.1,3.1,0.4,6.2,0.2,9.3c-0.2,2.3,0.1,4.7,0.1,7.1
		c0,0.6,0.1,1.2,0.7,1.6c0.8-0.5,0.9-1.4,1.1-2.2c0.8-3.1,1.3-6.4,1.4-9.6c0.2-4.1,0.7-8.2,1.6-12.2c-2.1-5.5-3.4-11.2-4.1-17
		c-0.6-4.5-0.7-9.1-1.2-13.7c-0.7-6.3-1.6-12.6-3.5-18.7c-1.3-4.2-2.7-8.3-3.7-12.5c-1.9-8-3.6-16-5.3-24c-0.5-2.5-1.1-5.1,0-7.5
		c-0.9-4.1-2.1-7.9-3.8-11.5c-0.7-1.5-1.4-2.9-2.1-4.4c-2.1-4.9-3.1-9.9-2.6-15.3c0.4-3.9,0.8-7.9,0.5-11.9c0-0.6,0.1-1.2,0.1-1.8
		c0.5-4.7,0.6-9.4-0.2-14.1c-0.8-4.9-1.3-9.9-1.1-14.9c0.1-3,0.5-5.9,1.9-8.6c0.2-0.4,0.4-0.9,0.5-1.4c0.7-4.2,1.1-8.4,0.2-12.6
		c-0.5-2.5-1-5.1-1.5-7.7c-3.4-4.2-7-8.1-11.5-10.7c-1-0.3-1.8,0.4-2.7-0.3c-0.5-0.4-1.4-0.6-2.1-0.7c-2.6-0.4-5.2-0.6-7.7-0.9
		c-0.2,0-0.4,0.2-0.8,0.4c-0.2,2.6,0,5.3,0.3,8c0.7,5.5,2.2,10.7,3.7,16c0.9,3.2,2,6.4,3,9.6c0.1,0.2,0,0.5,0,0.7
		c-0.3,0.7-1.3,0.9-0.9,2.4C647.7,220,648.6,221.3,649.6,222.6z M636.8,333.2L636.8,333.2c-0.1,1.9-2.4,2.7-2.6,4.8
		c2.8-0.1,5.3-1,7.8-1.6c2.4-0.6,4.8-1.2,7.3-1.6c2.5-0.5,5-0.9,7.7-1.4c-0.2-0.7-0.3-1.2-0.4-1.6c-1.2-3.8-3.4-7.2-5.2-10.7
		c-1.7-3.2-3.2-6.4-4.6-9.8c-0.8-2-1.6-3.9-2.4-5.9c-1.5-3.6-2.7-7.2-3.1-11.1c-0.2-2-0.5-3.9-0.9-5.9c-0.3-1.6-0.6-3.2-0.8-4.8
		c-0.2-1.1-0.3-2.2-0.4-3.3c-0.1-1.2,0.2-2.5-0.3-3.5c-0.4-0.2-0.6-0.3-0.8-0.3c-4.6,0-9.1-0.8-13.6-2.1c-1.5-0.5-3.1-0.8-4.8-0.8
		c-11.6-0.3-23.1,0.1-34.6,0.8c-3.3,0.2-6.7,0.4-10,0.6c-0.5,0-1,0-1.5,0.1c-2.3,0.4-4.7,0.5-6.8,1.7c0.3,2.1,1.4,3.9,1.2,5.9
		c-0.1,1.5,0.2,3,0.6,4.4c1.1,4.1,1.4,8.3,1.2,12.6c-0.2,4.5-0.7,8.9-1.6,13.3c-0.4,2.1-0.7,4.2-1.1,6.4c-1-0.7-0.2-1.9-1-2.9
		c-1.1,2.8-2.2,5.5-3.2,8.1c-1,2.7-2.5,5.3-3,8.4c0.8,0.1,1.4,0.1,2.1,0.1c3.8-0.1,7.4,0.5,11.1,1.3c3.8,0.8,7.6,1.2,11.4,1.6
		c0.9,0.1,1.9,0.4,2.8-0.2c0-1.4-1.8-2-1.4-3.7c1.6,1.5,3.1,3,4.7,4.5c3.8,0.3,7.6,0.7,11.4,1c4.5,0.4,8.9,0.6,13.4,1
		c5.4,0.5,10.6-0.3,15.7-0.3c1.5-1.6,2.8-3,4.1-4.3C635.7,333.6,636.1,333.1,636.8,333.2z M619.2,410.8c-0.3,1.5-0.2,2.5,0,3.4
		c0.6,3.3,1.6,6.5,2.9,9.6c3.6,8.5,8.2,16.5,12.6,24.5c1.4,2.5,2.1,5.3,3.2,7.9c0.1,0.2,0.1,0.5,0,0.7c-0.4,1.3,0.2,2.5,0.5,3.6
		c1,3.6,2,7.2,3.1,10.7c2.3,7.5,4.8,14.9,6.1,22.7c0.5,3,1.6,5.4,3.3,7.8c2.4,3.3,4.7,6.7,7,10.2c0.9,1.4,1.9,3,2.4,4.6
		c2,6.3,3.4,12.7,2.7,19.4c-0.3,2.4-0.2,4.7-0.1,7.1c0.2,3.1,0.4,6.2,0.6,9.3c0.1,2.5,0.7,4.9,1.4,7.3c1.8,6,4.7,11.5,8,16.8
		c1.3,2.1,2.4,4.3,3.2,6.7c1.8,5.4,3.5,10.9,5.4,16.3c2.6,7.6,4.6,15.3,5.6,23.4c0.7-0.4,0.2-1.3,1-1.7c0.8,3.6,1.9,7,2.2,10.8
		c1.1-0.1,2.3-0.1,3.5-0.3c1.1-0.1,2.2-0.4,3.3-0.5c1.2-0.1,2.5-0.2,3.7-0.2s2.4,0.2,3.6,0.4c-0.5-2.4-0.4-4.6-0.1-6.9
		c0.1-0.9,0.3-1.8,0.1-2.6c-1.3-6.2-1.8-12.5-2.2-18.9c-0.2-3.2-0.4-6.5-0.7-9.7c-0.6-5.8-1.3-11.6-1.8-17.4c-0.3-3.5-0.5-7,1-10.1
		c-0.4-3.9-0.8-7.6-1.3-11.3c-0.8-6.6-1.9-13-4.2-19.3c-1.5-4.2-3-8.4-4.5-12.6c-1.2-3.1-2-6.4-3.4-9.5c-1.3-2.9-1.9-5.9-2.3-9
		c-0.4-3.1-0.5-6.2-0.5-9.3c0-1.1,0-2.2-0.2-3.3c-0.4-2.6-1-5.1-1.4-7.7c-1.3-6.9-1.9-13.8-2.4-20.7c-0.1-1.6-0.3-3.2-1.4-4.5
		c0.7-4.9,0.2-9.7-0.3-14.6c-0.1-0.5-0.1-1-0.1-1.5c-0.1-4.4-0.8-8.7-1.5-13c-1.1-6.7-2.3-13.5-3.4-20.2c-0.5-3.2-1.1-6.3-1.6-9.5
		c-1.1-0.3-1.8,0.4-2.6,0.7c-3.4,1.3-6.7,2.7-10.1,4c-3.3,1.2-6.7,2-10.1,2.4c-1.8,0.2-3.7,0.4-5.5,0.9c-5.3,1.4-10.8,1.7-16.2,2.3
		c-1.4,0.1-2.7,0.3-4.1,0.4C622.3,410.7,620.8,410.8,619.2,410.8z M629.9,180c0.3,12.7-1.7,24.7-5.8,35.7c-0.1,1.5,1,1.8,0.6,3.4
		c-1.1,3.3-3.7,6.1-6.9,8.4c0,0.6,0,1.1,0,1.7c-4.4,0.1-8.8,0.3-13.1,0.4c-2.2,0-4.5,0-6.7,0c-4.3-0.1-8.3-1.4-11.9-3.9
		c-0.3-0.2-0.7-0.8-1.3-0.1c0.5,0.8,1,1.6,1.5,2.5c0.2,0.4,0.5,0.8-0.2,1.3c-3.3-4.4-6-9.1-6.9-14.7c-1.1-7.4-1.9-14.8-1.5-22.3
		c0.1-1.5,0-3,0.1-4.5s0.3-2.9,0.5-4.8c-2.2,1.2-4.3,1.9-5.9,3.6c1.6,3.8,1.8,7.8,1.4,11.8c-0.5,4.5-1.2,8.9-2.4,13.2
		c-0.3,1.1-0.7,2.2-0.6,3.3c0.3,2.7-1.4,5-1.3,7.6c0,0.1-0.1,0.2-0.2,0.3c-0.5,0-0.9,0.1-1.5,0.2c-0.4,0.6-0.8,1.2-1.2,1.8
		c-1.7,3.2-4.1,5.9-6.4,8.7c-1.3,1.5-2.8,2.8-4.6,3.7c-0.9,0.5-1.8,0.8-2.8,0.7c-0.5,0-1.2-0.6-1.6,0.4c1,2.2,2,4.4,3.2,6.7
		c4.5,8.8,8.2,17.9,11.2,27.2c0.2,0.6,0.2,1.2,1,1.6c2.5-0.4,5-1.2,7.6-1.3c4.8-0.2,9.7-0.5,14.5-0.6c3.7-0.1,7.5-0.3,11.1-0.9
		c6.3-1,12.6-0.6,19-0.2c3.6,0.2,7.1,1.4,10.7,2.4c3.4-2,6.2,0.3,9.4,1.6c1-4.7,0.5-9.5,3.7-13.1c-0.1-4.1,1-8,1-11.9
		c-1-0.3-1.6,0.2-2.2,0.6c-3.1,2-6.5,2.7-10,2.1c-2.8-0.4-5.7-0.6-8.5-0.8c-3.3-0.3-6.3-1.2-9.1-3.1c-1-0.7-2-1.5-2.6-2.6
		c-0.3-0.6-0.3-1.2,0.8-1.7c3.8,3.7,8.8,5,13.2,5.7c5.4-0.3,9.8-1.5,14.4-2c2.2-0.2,3.7-1.3,4.8-3c1.5-2.2,2.4-4.6,3.2-7.1
		c0.9-2.7,1.2-5.3,0.3-8.1c-0.3-0.9-0.5-1.9-0.6-2.9c-0.1-1.8-0.8-3.3-1.6-4.9c-1-1.9-1.9-3.8-2.8-5.7c-1.3-2.6-1.9-5.4-2.3-8.2
		c-0.3-2.3-0.7-4.7-1.1-7c-0.7-3.3-1.1-6.6-1.2-10c0-1.4-0.1-2.7-0.4-4.1c-0.3-1.7-0.7-3.4-0.4-5C635.2,180.7,632.8,180.6,629.9,180
		z M500.4,155.8c1.7,1.9,3.5,2.9,5.4,3.8c2.7,1.3,5.4,2.6,8,4c1.9,1,3.6,2.2,5,3.9c0.5,0.7,1.3,1.2,2,1.6c3.2,1.9,6.4,3.8,9.7,5.6
		c1.3,0.8,2.7,1.1,4.3,1.1c4.1,0,8.2,0.3,12.3,0.4c2.9,0.1,5.7,0.8,8.1,2.5c3.5,2.5,7.4,4.1,10.8,6.2c1.4,0.1,2.5,0.1,3.7,0.2
		c2.8-1.2,5.4-2.8,8-5c-2-2-2.9-4.4-4-6.5c-2.4-1.1-4.5-2.2-6.8-3.3c-2,0.8-3.9,0-5.9-0.9c-0.7-0.3-1.4-0.6-2-1
		c-1.5-0.8-3.1-1.6-4.8-2.1c-2.7-0.8-4.9-2.4-5.5-5.5c-0.2-1.1-0.7-2.1-1.1-3.1c-1.5-1.5-3.3-2.7-4.7-4.3s-2.7-3.3-4-4.9
		c-1.7-2-2.9-4.3-4.8-6.1c-0.4-0.4-0.7-1-1-1.6c-1.4-2.3-2.3-4.9-2.9-7.6c-0.6-2.4-0.8-4.9,0.1-7.3c0.2-0.5,0.7-1-0.2-1.6
		c-0.8,0.8-1.5,1.6-2.2,2.5c-4.4,5.3-8.8,10.5-13.5,15.4C509.9,147,506.1,152.1,500.4,155.8z M644.4,271.6c-0.3,2.6-0.5,4.9-0.7,7.2
		c-0.1,1,0,2-0.4,2.9c-0.8,1.7-0.6,3.4,0.3,5c0.9,1.7,1.3,3.5,1.6,5.3c-0.4,0.7-0.7,1.3-1.1,2c0.8,4,1.8,8,3.6,12.1
		c0.5-1.6,0.1-2.8-0.1-4c-0.3-2.1-0.8-4.2-0.5-6.3c0.1-1.4,0-2.7-0.3-4.1c-0.4-2.1-0.8-4.2-0.7-6.3c0.2-4.4-0.4-8.6-1-12.9
		C645,272.2,644.7,272.1,644.4,271.6z M545.6,125.7c-0.4-1.2-1.4-1.6-2-2.3c-0.3-0.4-0.6-0.9-1.1-1c-1.6-0.6-2.9-1.8-4.4-2.6
		c-0.4-0.2-0.7-0.7-1.3-0.5c-0.5,0.2-0.7,0.6-0.6,1.2C538.2,124.1,541.3,125.8,545.6,125.7z M591.3,125.4c-1.4-1.8-2.3-3.2-4.3-4
		c0.1,1.4,0.2,2.5,0.8,3.6C588.7,125.1,589.7,125.2,591.3,125.4z M555.3,165.2c-0.3-1.2-0.3-1.2-2-2.9c-0.5-0.1-1-0.2-1.5,0.3
		C552.5,164.1,553.6,165,555.3,165.2z M538.1,117.6c1.4,1.7,1.4,1.7,1.9,1.6c-0.2-2.1-0.4-2.3-1.3-2.3
		C538.5,117,538.4,117.2,538.1,117.6z M544.4,152.2c0.4-0.2,1-0.5,1.8-0.8c-1-0.7-1.9-0.9-2.9-0.6
		C543.2,151.4,543.6,151.8,544.4,152.2z M542.2,119.2c0.2,0.4,0.4,0.9,1,0.5C543.1,119,542.8,118.9,542.2,119.2z M585.1,120.9
		l0.3,0.1l0.1-0.2l-0.3-0.1L585.1,120.9z M551.2,160.3c0-0.3-0.1-0.3-0.4-0.1l0.1,0.2C550.9,160.4,551.1,160.4,551.2,160.3z"/>
	<path d="M606.2,402.7c-1.3,7.4-3.3,14.3-5.5,21.1c-2.6,8.2-5.4,16.3-8.2,24.4c-1.6,4.7-3.8,9.2-5.9,13.7c-1.7,3.5-3.1,7.1-4.4,10.7
		c-0.2,0.6-0.5,1.2-0.6,1.8c-0.4,8.3-3.3,16-6,24c0.6,1.1,0.4,2.4,0.1,3.8c-2.1,8.3-5.4,16-9.6,23.4c-1.3,2.3-1.9,4.5-1.9,7.1
		c0.1,3.7,0.2,7.5,0.2,11.2c0,4.7,0.2,9.5-0.2,14.2c-0.5,8-2.5,15.7-7.2,22.4c-3.5,5-5,10.8-6.1,16.7c-0.2,0.9-0.1,1.8-0.4,2.6
		c-1.3,3.9-2.6,7.8-4.1,11.6c-2.6,6.1-4.6,12.3-6.9,18.5c-0.5,1.5-1.1,3-1.9,4.9c-0.7-3.6,0.1-6.5,0.8-9.5c0.6-2.7,1.4-5.3,2.3-7.9
		c1.3-4.1,2.9-8.2,4.1-12.4c1.9-6.6,4-13.1,6.1-19.6c1.3-4,3-7.9,5.3-11.5c0.7-1.2,1.5-2.3,2.6-2.9c1-1.8,1.2-3.7,1.6-5.5
		c0.5-1.9,0.8-3.9,1.3-5.8c0.3-1.2,0.4-2.4,0.4-3.7c-0.2-5.5-0.2-10.9-0.5-16.4c-0.3-5,0-9.9,1.3-14.8c0.7-0.5,1.3-0.9,2-1.4
		c1.7-4.4,3.5-8.9,5.2-13.4c0.2-0.6,0.5-1.2,0.5-1.8c0.6-5.4,2.4-10.4,4.1-15.5c1.4-4,2-8.2,2.8-12.3c1.4-7.2,3.9-14.1,7.3-20.7
		c1.4-2.8,2.6-5.6,3.4-8.7c3-11.2,6.9-22.1,10.5-33c2.2-6.6,3.8-13.4,4.4-20.3c0-0.4,0.2-0.7,0.3-1.3c2.2-0.6,3.6-3.2,6.4-2.6
		c0.4,0.7-0.1,1-0.4,1.3c-0.5,0.4-1.1,0.6-1.6,0.9c-1.2,0.8-1.9,1.9-2.4,3.2C605,400.4,605.6,401.5,606.2,402.7z"/>
	<path d="M572.5,108.5c-1.1-2.1-3-3.2-5.2-3.9c-1.6-0.6-3.3-1-4.9-1.6c-0.6-0.2-1.1-0.5-1.6-0.9c-0.2-0.1-0.2-0.4-0.4-0.7
		c1.2-0.8,2.3,0.8,3.5,0.1c0-0.3-0.1-0.7-0.1-1c0.2-0.1,0.5-0.3,0.6-0.2c4.4,1.1,8.1,3.5,11,6.9c0.9,1.1,2.2,1.5,3.5,2.7
		c0.2,0.5,0.6,1.2,1,2.1c-0.3,0.7-0.5,1.4-0.8,2c-0.9,0.7-2,0.3-2.9,0.5l0.1,0.1c-0.3-0.3-0.6-0.6-0.9-0.9l0.1,0.1
		c-1.5-2.4-3.8-3.8-6.4-4.8c-3.5-1.3-6.8-3-10.5-3.7c-0.6-0.1-1.2-0.4-1.4-1.3c2.7-0.2,5.2,0.5,7.6,1.5
		C567.4,106.6,570,107.4,572.5,108.5l0.2,0.1L572.5,108.5z M575.3,110c-0.2,0.4-0.4,0.5-0.3,0.5c0.5,1.2,1.5,1.5,2.6,1.7
		c0.2,0,0.4-0.2,0.6-0.4C577.3,111.1,576.5,110.4,575.3,110z"/>
	<path d="M558.4,219.6c-2-3.8-4.3-7.4-5.9-11.4c-0.5-1.1-1.2-2.2-1.8-3.3c-0.6-1.1-1.4-2-1.3-3.4c0.1-1-0.8-1.8-1.3-2.6
		c-2.8-4.3-4.6-9-6.5-13.8c-0.1-0.4-0.1-0.7,0.2-1c1,0.2,1.2,1.2,1.5,1.9c1.1,2.4,2.1,4.8,3.2,7.1c1.6,3.4,3.3,6.7,5.8,9.5
		c2,2.3,3.3,5,3.5,8.1c0.1,0.9,0.3,1.7,0.5,2.4c0.6,0.5,1,0.9,1.6,1.3C558,216.3,558.1,218,558.4,219.6L558.4,219.6z"/>
	<path d="M535,659.6c-0.4,1.5-1.5,1.8-2.6,1.7c-2.1-0.1-4.2-0.3-6.3-0.6c-2.5-0.3-4.9-0.7-7.4-1c-0.1-0.9,0.4-1.4,1.1-1.8
		c1.8-1.1,3.8-1.9,6-1.5c2.1,0.3,4.2,0.6,6.2,1C533.2,657.7,534.5,657.9,535,659.6z"/>
	<path d="M526,682c2.2,1.5,3.6,3.8,5.2,6c-0.7,0.9-1.3,0.6-1.6,0.1c-1.4-2-3.4-3.2-5.6-4.4c-3.8,0.7-7.6,1.6-10.7,4.7
		c0-1.2,0-2.2,0-3c0.4-0.6,0.9-1,1.5-1.2C518.3,682.5,521.8,681,526,682z"/>
	<path d="M518.3,665.8c2.7-1.6,5.7-2.3,8.8-2.3c0.8,0,1.7,0.2,2.5,0.5c1,0.4,1.5,1.3,0.8,2.6c-1.7,1.2-3.9,0.9-5.9,0.8
		c-2-0.1-3.9-0.6-5.8-0.9C518.5,666.5,518.5,666.1,518.3,665.8z"/>
	<path d="M560.2,500.3c1.8-2.5,3.2-4.7,4.8-6.7c1.5-2,2.2-4.4,3.4-6.6c0.5,0.3,0.7,0.5,1,0.7C568.9,492.7,565.4,497.5,560.2,500.3z"
		/>
	<path d="M556,499.2c0.8,2.7-1.1,5.2,0.2,7.5c-1.5,4.1-1.5,4.1-3.7,6.1c0.2-2.4,1.7-4.1,1.9-6.2c0.2-2,0-4,0-6.1
		c-0.2-0.1-0.4-0.4-0.7-0.6C554,498.6,554.9,499.1,556,499.2z"/>
	<path d="M526.7,670.2c-0.2,0.9-0.7,1.3-1.6,1.3c-2.2,0.1-4.1-0.7-6.1-2.7c2.3-0.8,4.3-0.9,6-0.4C526,668.7,526.6,669.3,526.7,670.2
		z"/>
	<path d="M520.2,190.8c4,0.4,7.5,3.1,11.7,2.8c-0.4,1.1-1.2,1.2-1.9,1.1C526.4,194.4,523.1,193,520.2,190.8z"/>
	<path d="M554.8,536.2c-0.1-0.8,0.3-1.4,0.7-2.1c1-1.8,2.1-3.6,3-5.3c0.7-0.2,1-0.1,1.3,0.5C559,532.2,557.2,534.5,554.8,536.2
		L554.8,536.2z"/>
	<path d="M550.7,545.8c0.2,2.2,0.1,2.3-1.8,4.7C549,547.6,549.2,547,550.7,545.8z"/>
	<path d="M653.1,342.6c-1.9,0-3.8,0-5.7,0C649.3,342.1,651.3,342,653.1,342.6z"/>
	<path d="M550.5,519.3c-0.5-0.9-0.6-1.8,0-2.6C551.3,517.5,551.3,517.5,550.5,519.3z"/>
	<path d="M643.4,347.3c-0.5,0.9-1.3,0.8-2.4,0.4C642.1,347.5,642.8,347.4,643.4,347.3L643.4,347.3z"/>
	<path d="M592.9,386c-1.1,0.2-1.6-0.7-2.4-1.3l-0.1,0.1C591.5,384.7,592.1,385.4,592.9,386L592.9,386z"/>
	<path d="M594.9,388.5c1.1-0.1,1.6,0.7,2.3,1.3l0.1-0.1C596.3,389.8,595.6,389.1,594.9,388.5L594.9,388.5z"/>
	<path d="M637.9,348.3c0.6,0.1,0.9,0.1,1.1,0.1c-0.2,0-0.3,0.1-0.5,0.1C638.4,348.6,638.3,348.5,637.9,348.3z"/>
	<path d="M543.9,569.5c0.2,0.4,0.3,0.7,0,1.1C543.5,570.2,543.7,569.9,543.9,569.5z"/>
	<path d="M557,103c-0.4-0.1-0.7-0.1-1-0.2l0.2-0.2C556.5,102.7,556.8,102.5,557,103z"/>
	<path d="M621.9,386.2c-0.5,0.2-1,0.4-1.6,0.6l0.1,0.1C620.9,386.7,621.4,386.5,621.9,386.2L621.9,386.2z"/>
	<path d="M592.8,390.7c0.5,0.1,1.2,0,1.4,0.8l0.1-0.1C593.7,391.3,593.2,391.1,592.8,390.7L592.8,390.7z"/>
	<path d="M594.1,391.5c0.6,0,1.3-0.2,1.5,0.7l0.1-0.1C595.1,392.1,594.6,392,594.1,391.5L594.1,391.5z"/>
	<path d="M597.2,392.9c-0.6-0.1-1.2-0.1-1.5-0.8l-0.1,0.1C596.3,392.2,597,392.1,597.2,392.9L597.2,392.9z"/>
	<path d="M597.1,393c0.4,0,0.8-0.2,1.1,0.3C597.7,393.6,597.5,393.2,597.1,393L597.1,393z"/>
	<path d="M514.4,187.6c0.3,0.1,0.6,0.1,1,0.2C514.9,188.3,514.7,187.8,514.4,187.6L514.4,187.6z"/>
	<polygon points="546.8,560.3 546.7,560 546.9,560 	"/>
	<path d="M643.5,347.4c0.2-0.4,0.5-0.7,1-0.4C644.3,347.5,643.8,347.3,643.5,347.4L643.5,347.4z"/>
	<polygon points="553.8,536.9 553.8,537.1 553.9,537 	"/>
	<path d="M554.7,536.2c-0.3,0.3-0.6,0.5-0.9,0.8l0.1,0.1C554.2,536.8,554.5,536.5,554.7,536.2L554.7,536.2z"/>
	<polygon points="514.5,187.6 514.3,187.5 514.4,187.6 	"/>
	<polygon points="558.3,219.7 558.5,219.8 558.4,219.6 	"/>
	<polygon points="589.7,383.9 589.6,383.8 589.6,384 	"/>
	<path d="M589.6,384c0.4,0.1,0.7,0.4,0.8,0.8l0.1-0.1C590.2,384.5,590,384.2,589.6,384L589.6,384z"/>
	<polygon points="618.2,384.7 618.3,384.5 618.1,384.6 	"/>
	<polygon points="623.5,384.7 623.5,384.5 623.4,384.6 	"/>
	<path d="M617.4,385.4c0-0.5,0.4-0.7,0.8-0.7l-0.1-0.1C618,385,617.8,385.3,617.4,385.4L617.4,385.4z"/>
	<path d="M622.7,385.4c0.2-0.3,0.5-0.5,0.7-0.8l-0.1-0.1C623.1,384.9,622.9,385.1,622.7,385.4L622.7,385.4z"/>
	<path d="M617.4,385.4c0,0.5-0.2,0.7-0.7,0.7l0.1,0.1C616.7,385.7,617,385.5,617.4,385.4L617.4,385.4z"/>
	<path d="M621.9,386.3c0.3-0.3,0.5-0.6,0.8-0.9l-0.1-0.1C622.4,385.7,622.1,385.9,621.9,386.3L621.9,386.3z"/>
	<path d="M593.5,386.8c-0.5,0-0.7-0.3-0.7-0.8l-0.1,0.1C593,386.4,593.2,386.7,593.5,386.8L593.5,386.8z"/>
	<polygon points="616.6,386.1 616.6,386.2 616.7,386.2 	"/>
	<path d="M593.5,386.9c0.4,0.1,0.7,0.3,0.7,0.8l0.1-0.1C593.8,387.5,593.6,387.3,593.5,386.9L593.5,386.9z"/>
	<path d="M619.7,387.7c0.2-0.3,0.5-0.5,0.7-0.8l-0.1-0.1c-0.1,0.4-0.3,0.7-0.7,0.8L619.7,387.7z"/>
	<path d="M595,388.4c-0.2-0.3-0.5-0.6-0.7-0.8l-0.1,0.1C594.6,387.8,594.9,388,595,388.4L595,388.4z"/>
	<polygon points="615.8,391.3 615.7,391.6 615.9,391.4 	"/>
	<path d="M616.6,390.6c-0.1,0.5-0.3,0.7-0.8,0.7l0.1,0.1C616,391,616.1,390.6,616.6,390.6L616.6,390.6z"/>
	<path d="M617.4,389.9c-0.1,0.4-0.3,0.7-0.8,0.7l0.1,0.1C616.7,390.2,616.9,389.9,617.4,389.9L617.4,389.9z"/>
	<polygon points="597.2,389.8 597.3,390 597.3,389.8 	"/>
	<polygon points="592.8,390.6 592.6,390.5 592.8,390.7 	"/>
	<path d="M617.5,390c-0.1-0.5,0.2-0.8,0.7-0.8l-0.1-0.1C618.1,389.6,617.8,389.8,617.5,390L617.5,390z"/>
	<path d="M618.8,388.4c0,0.5-0.3,0.7-0.7,0.8l0.1,0.1C618.2,388.7,618.4,388.5,618.8,388.4L618.8,388.4z"/>
	<path d="M618.9,388.5c0.1-0.4,0.4-0.7,0.8-0.8l-0.1-0.1C619.6,388.1,619.3,388.3,618.9,388.5L618.9,388.5z"/>
	<path d="M663.7,500.4c-0.2-0.6-0.1-1.2,0.2-1.8c1.4-2.9,2.6-5.8,3-9c0.4,0.1,0.7,0,0.8,0.2c0.2,0.3,0.5,0.7,0.4,1
		C667.8,494.5,666.9,498,663.7,500.4L663.7,500.4z"/>
	<path d="M666,501.1c2.4,2.1,2.7,3.6,1.9,7.9c-0.1,0-0.3,0-0.4-0.1c-1.3-2.1-1.2-4.7-2.1-6.9C665.4,501.8,665.7,501.6,666,501.1z"/>
	<path d="M671.8,528.7c-2-2.1-3.9-4.3-5.8-6.4c0.7-0.7,1.2-0.5,1.5-0.1C669.3,524.2,671.4,525.9,671.8,528.7L671.8,528.7z"/>
	<path d="M667.8,511.6c1.1,1.1,2.1,2.2,3.1,3.3C668.3,514.8,667.7,514.2,667.8,511.6z"/>
	<path d="M677.3,545.5c1,0.7,1.3,1.4,1.2,2.4C677.5,547,677.5,547,677.3,545.5z"/>
	<path d="M677,511.1c0.6-0.2,1.3-0.4,2-0.6C678.4,511.3,678.4,511.3,677,511.1z"/>
	<path d="M675.3,536.8C675.3,537.2,675.3,537.4,675.3,536.8C675.2,537.4,675.3,537.2,675.3,536.8z"/>
	<path d="M657.5,500.8c0.2,0,0.4,0,0.6,0C657.9,501.1,657.7,501,657.5,500.8z"/>
	<path d="M676.1,539.9c0,0.1-0.1,0.2-0.1,0.3c-0.1-0.1-0.2-0.3-0.2-0.4l0.2-0.2C676,539.7,676.1,539.8,676.1,539.9z"/>
	<polygon points="687.3,613.6 687.3,613.9 687.1,613.9 	"/>
	<polygon points="672.6,529.6 672.8,529.7 672.7,529.5 	"/>
	<path d="M671.8,528.8c0.5,0.1,0.7,0.4,0.9,0.8l0.1-0.1C672.4,529.3,672.1,529,671.8,528.8L671.8,528.8z"/>
	<path d="M662.9,501.1c-0.1,0.1-0.2,0.2-0.3,0.3l0.1-0.2C662.8,501.2,662.9,501.2,662.9,501.1L662.9,501.1z"/>
	<path d="M663.7,500.4c-0.1,0.5-0.3,0.7-0.8,0.8l0.1,0.1C663,500.7,663.2,500.4,663.7,500.4L663.7,500.4z"/>
	<path d="M613.5,322c-1.9,1.1-4.1,1.6-6.2,2c-1.1,0.2-1.9-0.3-2-1.7c0.7-1.5,2.7-1.6,3.4-2.9c1.4-0.3,2,0.7,2.8,1.2
		C612.1,321,613.2,320.8,613.5,322z"/>
	<path d="M627.9,284.6c-0.2-0.1-0.5,0-0.7-0.2c-2.6-2.6-5.2-5.2-7.8-7.8c-0.3-0.3-0.7-0.8-0.2-1.3c0.4-0.3,0.7-0.2,1,0.1
		c2.8,2.6,5.2,5.6,7.5,8.6C627.8,284.1,627.8,284.4,627.9,284.6L627.9,284.6z"/>
	<path d="M634.1,294.5c0.1,4.3,1.7,8.6,0.9,13.2C634.6,303.1,633,298.9,634.1,294.5z"/>
	<path d="M594.3,280.9c0.4-2.3,2.4-3.6,3.7-5.4c0.3,0.4,0.6,0.6,0.6,0.7C597.7,278.2,596.5,280.1,594.3,280.9L594.3,280.9z"/>
	<path d="M639.6,327.5c0.1,1.7-0.6,2.4-1.6,3.1C638.3,329,638.3,329,639.6,327.5z"/>
	<path d="M593.4,281.6c-0.6,1.3-0.6,1.3-1.9,2.1C592.2,283,592.8,282.3,593.4,281.6L593.4,281.6z"/>
	<path d="M577.1,319.7c0.5,0.2,0.9,0.5,0.7,1.2C577,320.7,577.1,320.2,577.1,319.7L577.1,319.7z"/>
	<path d="M577.2,319.6c-0.1,0-0.2,0-0.3,0H577.2L577.2,319.6z"/>
	<path d="M628.6,285.4c0.1,0.1,0.2,0.2,0.2,0.2S628.7,285.5,628.6,285.4L628.6,285.4z"/>
	<path d="M627.8,284.7c0.5,0,0.7,0.3,0.8,0.8l0.1-0.1C628.1,285.4,627.9,285.1,627.8,284.7L627.8,284.7z"/>
	<path d="M593.5,281.7c0.1-0.4,0.3-0.7,0.8-0.7l-0.1-0.1C594.2,281.4,593.9,281.6,593.5,281.7L593.5,281.7z"/>
	<path d="M636.8,333.2c0-0.1,0-0.2,0.1-0.3L636.8,333.2L636.8,333.2z"/>
	<polygon points="642.9,322 642.9,321.9 642.8,321.9 	"/>
	<path d="M642.8,321.9c-0.1,0.1-0.2,0.2-0.2,0.3C642.6,322.2,642.8,322.1,642.8,321.9L642.8,321.9z"/>
	<path d="M544.9,118.9c0-0.5-0.2-0.8-0.8-0.7c0-0.5,0-1,0.1-1.5l-0.1,0.1c0.3,0,0.7,0.1,1.1,0.1c0.5-0.3-0.1-1,0-1.5
		c1.8,0.4,1.9,2.4,3.4,2.7c0.1,0.3,0.1,0.6,0.2,1c0.4-0.6,0.2-0.8-0.3-0.9c0.4-1.5-1-2.5-1.1-3.8c1.1,0.4,1.1,0.4,2.2,1.8
		c0.9-0.9-0.8-2,0.2-2.9c1.4-0.1,0.8,1.7,1.8,1.9c-0.2,1.6,0.3,3.2,0.4,4.8c-0.2,0.7-0.4,1.4-0.6,2c-0.6,0.6-1.2,0.9-2,1
		c-1.2-0.6-1.9-1.8-2.9-2.8C546.1,119.7,545.8,119,544.9,118.9z"/>
	<path d="M554.7,151c0.1-2,1.7-2.8,3.2-3.5c1.6-0.7,3.2-1,5-0.9l-0.1-0.1c0.2,0.5,0.3,0.9,0.4,1.3c-0.2,0.8-0.9,0.8-1.6,1.2
		c-0.1,0.6-0.2,1.3-0.3,2.1l0.1-0.1c-0.3,0.3-0.6,0.6-0.9,0.9l0.1-0.1c-1,0.4-2.1,0.7-3.2,0.3c-1.1,0.6-0.3,1.9-0.6,2.2
		c-0.8,0.8-1.3,1-1.8,1c-0.1-0.2-0.4-0.4-0.4-0.6c0.1-0.8,0.4-1.7,0.5-2.5C555.4,151.6,555.1,151.2,554.7,151L554.7,151z"/>
	<path d="M574.8,130c-0.2,0.5-0.4,1.1-0.6,1.6l-0.2,0.2c0-0.1,0.1-0.2,0.1-0.3c1,0.2,1.9-0.4,2.8-0.7c0.7-0.2,1.3-0.7,2.1-0.4
		c-0.8,1.3-0.8,1.3-3,2.4c-0.2,1.1,0.1,2.3-0.5,3.4l0.1-0.1c-1,0.3-2.1,0.6-3.1,1c-0.7,0.7,0.1,2.4-1.8,2.4
		c-0.1-1.9-0.2-3.9-0.4-5.8C571.7,132.2,572.6,130.3,574.8,130L574.8,130z"/>
	<path d="M578.3,164.9c1-1.8,2-3.7,3-5.5c0.9-1.6,2.5-2.7,4.1-3.7c1.7-1.1,3.7-2,4.6-3.9c1,0.1,1.1,0.6,0.8,1.1
		c-0.4,0.9-1.1,1.6-1.8,2.3c-2.4,2.5-4.8,4.9-7.2,7.4C580.8,163.7,579.9,164.6,578.3,164.9z"/>
	<path d="M574.6,124.4c-0.2,0.5-0.3,0.8-0.4,0.9c-3.4,2.2-5.5,5.6-7.7,8.8c-0.5,0.7-1,1.4-1.6,2c-0.1,0.1-0.4-0.1-0.8-0.2
		c0-1.1,0.5-2.1,1.1-2.9c2-2.7,4-5.3,6.7-7.3C572.7,125.1,573.4,124.5,574.6,124.4z"/>
	<path d="M607.5,200.9c3.8-1.3,7.7-1.4,11.8-3c-2.9,2.3-3.8,2.6-10.1,3.8c-2.4,2.1-2.4,2.1-5.2,2.8
		C605.3,203.2,606.4,202.1,607.5,200.9z"/>
	<path d="M589,198.1c0.8,0.1,1.7,0.1,2.5,0.4c3.4,1.1,6.7,2.4,9.7,4.4c-0.2,0.3-0.3,0.6-0.4,0.8c-1,0.4-1.9-0.1-2.8-0.5
		C594.9,201.6,591.7,200.4,589,198.1L589,198.1z"/>
	<path d="M582.4,165.9c5.5-4.2,5.5-4.2,8.9-9.7c0.1,1.3,0.4,2.4-0.1,3.4c-1.2,2.3-2.6,4.4-5.3,5.4c-1,0.4-2,0.9-3,1.3
		C582.8,166.4,582.6,166.1,582.4,165.9z"/>
	<path d="M559.5,142.6c-4.2,1.7-7.7,4.2-10.5,8.4c-0.2-2,0.9-3,1.7-4c1.7-2.4,4.1-3.8,6.8-4.9C558,141.9,558.8,141.5,559.5,142.6z"
		/>
	<path d="M579.9,146.8c2,0.1,2.1,0.2,2.4,2.8c-0.9,0.9-1.5,2.4-3.5,1.8c0.2-0.6,0.4-1,0.6-1.5c0.7-0.3,1.4-0.6,2-0.8
		C581.7,147.8,580,147.9,579.9,146.8z"/>
	<path d="M592,183.9c1.4,0.8,2.1,2.3,3.1,3.2c-0.4,0.8-0.7,0.7-1,0.5C593.2,186.5,592.2,185.3,592,183.9L592,183.9z"/>
	<path d="M551.6,115.2c0.1-0.8-0.3-1.6,0.3-2.3c0.7,0.3,0.4,1.4,1.3,1.5c-0.1,0.8,0.4,1.7-0.3,2.5
		C552.5,116.3,552.1,115.7,551.6,115.2z"/>
	<path d="M553.1,114.4c0.1-0.6,0.2-1.2,0.3-1.8c0.4,0.1,0.9,0.2,1.3,0.3c-0.1,0.8-0.2,1.6-0.3,2.4
		C553.7,115.4,553.7,114.5,553.1,114.4z"/>
	<path d="M577.4,153.8c0.3,1.1-0.3,1.4-1.1,1.5c-0.2-0.1-0.4-0.3-0.6-0.4C575.9,153.8,576.5,153.6,577.4,153.8z"/>
	<path d="M581.9,178.9c-1-0.2-1.6-0.7-2.2-1.5C581.8,177.2,581.8,177.2,581.9,178.9z"/>
	<path d="M567.6,139.3c-0.7-0.6-1.2-1.2-0.7-2.2C567.5,137.7,568,138.3,567.6,139.3z"/>
	<path d="M561.4,151c0.5,0,0.9-0.1,1.3,0.4c-0.3,0.8-0.8,1.4-1.8,1.6c-0.1-0.5-0.1-0.9-0.2-1.3l-0.1,0.1
		C560.9,151.5,561.2,151.2,561.4,151L561.4,151z"/>
	<path d="M589.1,198c-1-0.1-1.9-0.1-2.9-0.2C587.2,197.4,588.2,197.1,589.1,198L589.1,198z"/>
	<path d="M604.6,218.9c0.6-0.3,0.7-1.4,1.7-1.2c0.7,0.8-0.1,1.2-0.5,1.9C605.4,219.3,605,219.1,604.6,218.9L604.6,218.9z"/>
	<path d="M562.9,146.6c0.1-0.3,0.3-0.7,0.4-1c0.5-0.1,1,0.1,1.2,0.6C564,146.7,563.4,146.4,562.9,146.6L562.9,146.6z"/>
	<path d="M572,121.3c1.4-0.1,1.7,0.4,2,0.9C573,122.9,572.8,122.1,572,121.3z"/>
	<path d="M581.5,184.6c1.1-0.1,1.7,0.6,2.2,1.4l0,0C582.8,185.9,581.9,185.6,581.5,184.6L581.5,184.6z"/>
	<path d="M553.9,152.5c0.1,0.6,0.2,1.2-0.4,1.6C553,153.3,553,152.8,553.9,152.5L553.9,152.5z"/>
	<path d="M599.6,163.8c0-0.6,0-1.2,0-1.9C600.4,162.7,599.9,163.2,599.6,163.8L599.6,163.8z"/>
	<polygon points="585.4,195.3 585.4,195.5 585.1,195.4 	"/>
	<path d="M577.4,149.9c0.1,0.2,0.3,0.5,0.2,0.6c-0.1,0.3-0.4,0.3-0.5,0C577.1,150.3,577.3,150.1,577.4,149.9z"/>
	<path d="M576.4,129.4c0.1-0.8,0.5-0.8,1.1-0.4C577.2,129.4,576.8,129.4,576.4,129.4L576.4,129.4z"/>
	<path d="M554,152.6c-0.1-0.7-0.2-1.3,0.7-1.5l-0.1-0.1C554.7,151.6,554.7,152.2,554,152.6L554,152.6z"/>
	<path d="M575.4,156.6c-0.2,0.3-0.5,0.3-0.8,0.1v-0.2C574.9,156.2,575.1,156.2,575.4,156.6z"/>
	<path d="M572.9,155.2c-0.3-0.3-0.3-0.6,0-0.9C573.2,154.6,573.3,154.9,572.9,155.2z"/>
	<polygon points="537.4,140.1 537.7,140.2 537.4,140.2 	"/>
	<path d="M536.6,137.8c0.1,0,0.2-0.1,0.3-0.1c0.4,0.1,0.4,0.2,0.1,0.4c-0.1,0-0.2,0-0.3-0.1L536.6,137.8z"/>
	<path d="M574.8,130.1c0.3-0.7,0.8-0.9,1.5-0.7l-0.1-0.1C576.1,130.1,575.5,130.2,574.8,130.1L574.8,130.1z"/>
	<path d="M592.1,183.8c-0.2-0.1-0.4-0.1-0.6-0.2C592.1,183.1,591.9,183.7,592.1,183.8L592.1,183.8z"/>
	<polygon points="583.7,186.1 583.9,186.2 583.8,186 	"/>
	<path d="M576.4,136.1c0.1-0.2,0.1-0.4,0.2-0.5C577.1,136.1,576.6,136,576.4,136.1L576.4,136.1z"/>
	<path d="M539.8,143.5c-0.1-0.1-0.2-0.2-0.4-0.3l0.2,0.1C539.7,143.3,539.7,143.4,539.8,143.5L539.8,143.5z"/>
	<path d="M575.4,136.2c0.3,0,0.6-0.1,1-0.1l-0.1-0.1C576.1,136.6,575.8,136.3,575.4,136.2L575.4,136.2z"/>
	<path d="M539.7,143.5c0.1,0.2,0.2,0.3,0.2,0.5l-0.2,0.2l0.1,0.1C539.8,144,539.8,143.8,539.7,143.5L539.7,143.5z"/>
	<path d="M600.9,248c0.1,0.8-0.1,1.5-0.7,2c-0.5,0.4-1,0.7-1.6,1c-4.9,2.6-10.1,4.2-15.6,4.8c-2.3,0.3-4.4-0.4-6.5-1.2
		c-1-0.4-2-1-3-1.5c-0.9-0.4-1.8-0.7-2.8-1c0.6-0.9,1.4-0.6,2.1-0.4c1.2,0.2,2.4,0.6,3.6,0.8c4.3,0.8,8.4-0.3,12.5-1.1
		c1.3-0.3,2.5-0.9,4-0.6c0.5,0.1,1.2-0.3,1.7-0.5C596.8,249.7,598.7,248.4,600.9,248L600.9,248z"/>
	<path d="M572.7,251c-1.5-0.3-2.2-0.7-2.6-1.8C571.3,249.2,572,249.7,572.7,251z"/>
	<polygon points="603.3,245.8 603.4,245.6 603.2,245.7 	"/>
	<path d="M602.5,246.6c0.2-0.3,0.5-0.5,0.8-0.8l-0.1-0.1C602.9,246,602.7,246.2,602.5,246.6L602.5,246.6z"/>
	<path d="M601,248.1c0.2-0.3,0.5-0.5,0.7-0.8l-0.1-0.1C601.4,247.5,601.1,247.8,601,248.1L601,248.1z"/>
	<path d="M601.7,247.4c0.3-0.3,0.5-0.5,0.8-0.8l-0.1-0.1C602.2,246.7,601.9,247,601.7,247.4L601.7,247.4z"/>
	<path d="M664.9,285.4c0.7,1.6-0.1,2.5-0.6,3.4c-1.7,3.2-2.3,3.9-4.6,5.4c-0.5-0.4-0.3-0.8-0.1-1.3c1.2-2.5,2.3-5.1,4.2-7.3
		C664,285.5,664.4,285.5,664.9,285.4z"/>
	<path d="M651.1,273.7c-0.9-0.4-0.5-1.2-0.7-1.7c0.8-0.3,1,0.1,1.1,0.5C651.5,273,651.6,273.4,651.1,273.7z"/>
	<path d="M649.8,267.5c-0.3-0.7-0.3-1.4,0-2c0.4-0.2,0.6,0,0.9,0.3C650.7,266.5,650.5,267.1,649.8,267.5z"/>
	<path d="M676.9,353c-0.4-0.6-0.5-1.1,0.3-1.5C677.8,352.1,677.9,352.6,676.9,353z"/>
	<path d="M678.1,358.7c-1.1-1.2-0.8-1.8-0.8-2.6C678.4,356.7,678.3,357.4,678.1,358.7z"/>
	<path d="M691.5,657c1.1-0.8,2.5-1.1,3.8-1.2c3.5-0.4,6.9-0.3,10.4-0.2c1.1,0,2.3,0.2,2.9,1.5c0.1,0.4,0.1,0.9-0.2,1.3
		c-0.5,0.7-1.1,1-1.9,1c-3.7,0.3-7.4,0.7-11.1,0.2c-1.1-0.2-2.2-0.4-3.2-1C691.7,658.3,691.4,658,691.5,657z"/>
	<path d="M693.8,662.4c1.4-1.1,2.8-1.5,4.3-1.5c2.3,0,4.4,0.6,6.6,1c0.8,0.1,1.1,0.6,2,1.9c-0.2,0.8-0.7,1.4-1.5,1.4
		c-3.8,0.3-7.4-0.1-10.8-1.9C694.2,663.2,694.2,662.9,693.8,662.4z"/>
	<path d="M703,667.9c0.4,0.3,0.8,0.6,0.8,1.3c-0.3,1.7-1.8,1.7-3.1,1.8c-2.3,0.1-4.6-0.1-6.3-2.2C696.6,667.6,698.7,667.4,703,667.9
		z"/>
	<polygon points="544.3,116.7 544.1,116.6 544.2,116.8 	"/>
</g>
</svg>
