<?xml version="1.0" encoding="utf-8"?>
<!-- Generator: Adobe Illustrator 19.1.0, SVG Export Plug-In . SVG Version: 6.00 Build 0)  -->
<svg version="1.2" baseProfile="tiny" id="Layer_2" xmlns="http://www.w3.org/2000/svg" xmlns:xlink="http://www.w3.org/1999/xlink"
	 x="0px" y="0px" width="900px" height="600px" viewBox="144 97 900 600" xml:space="preserve">
<g>
	<path d="M650.6,352.2c-1.9-0.6-1.9-0.6-3.8-0.2c-1.2-0.5-1.5-1.5-1.4-2.7c0-1.7,0-1.7,1.1-2.9c0.8,1.3-0.4,3,0.7,4.2
		c0.7,0.1,1.2-0.1,1.8-0.9c-0.3-1.2-0.6-2.6-0.9-4c-1.4-0.9-2.8-0.8-4.2-0.1l0.1-0.1c-1.5-0.2-3-0.1-4.6,0.1c0,1.8,0,3.6,0,5.6
		c-1.9-1.6-1.3-3.7-1.7-5.7c-1.7,0-3.3-0.5-4.7,0.1c-0.6,1.6,0.5,3,0.2,4.5c-0.8,0.3-1-0.4-1.3-0.9c-0.5-1.1-0.4-2.4-1.2-3.5
		c-0.1-0.1-0.2-0.1-0.3-0.2c-0.6,0-0.8,0.4-0.9,0.9c-0.1,1.4,0.6,2.9-0.1,4.4c-1.3-1.6-0.8-3.7-1.9-5.2c0-0.1-0.2,0-0.5,0
		c-0.8,1.3,0.1,2.8-0.5,4.2c-0.8,0.1-0.9-0.6-1.1-1.1c-0.5-1-0.1-2.3-1.3-3.2c-1.5-0.4-3.2-0.3-4.9,0l0.1,0.1
		c-0.5-0.4-1.1-0.6-1.7-0.6c-2.8-0.2-5.6-0.6-8.5-0.1c-0.6,1.5-0.2,3-0.4,4.4l0.1-0.1c-1.2-1.2-0.9-3-2-4.4c-2.5-1-5.2-0.8-7.6-0.5
		c-1.3,1-0.6,2.3-1.1,3.3c-0.2,0.2-0.4,0.1-0.5-0.2c-0.2-1-0.3-1.9-0.5-2.8c-0.6-0.4-1-0.5-1.6,0c-0.8,1.4,0,3,0.1,4.6
		c-0.5,0.4-1,0.8-1.5,1.1c-1.2-1.3-0.9-3-1.8-4.2c0.2-0.6,0.4-1.2,0.7-1.8c-2,0-4,0-6,0c-0.2,0.5-0.5,0.9-0.7,1.3l0.1-0.1
		c-1,0.2-1.1-0.7-1.9-1.2c-1.8,0-3.8-0.6-5.7,0.5l0.1-0.1c-1.2-0.1-2.4-0.2-3.6-0.4c0,0.4,0.8,1.2,1.7,1.6c0.6,1.4,0.3,2.8,0.3,4.3
		c-1.5-0.1-2.9,0.3-4-1.8c-0.1-0.5-0.3-1.7-0.5-2.8c-0.8-0.6-1.3-0.1-1.7,0.2c-0.7,1.6,0.6,3,0.2,4.4c-0.8,0.8-1.6,0.1-2.3,0.3
		c-0.9-0.6-1.1-1.3-0.9-2.1c0.2-0.8,0-1.4-0.8-1.8c-0.5,0.3-0.8,0.7-0.8,1.2c0,1.1,0,2.2-0.1,3.4c-0.1,1.8-0.7,3.4-2.3,4.4
		c-0.6-0.1-1.2-0.2-2-0.3c-1.5,4.7-2.5,9.6-4.8,14l0.1-0.1c-1.4,1.2-1.6,3.4-3.4,4.2c-0.5-0.5-0.1-1,0.1-1.4
		c2.2-5.1,4.1-10.4,5.4-15.8c0.3-1.2,0.7-2.4,1.4-3.4c1-1.4,1.7-2.9,1.5-4.4c0.5-1.5,2.1-1.4,2.3-2.8c-1.1-3.8-1.4-7.9-1.6-12
		c-0.1-2.1-0.3-4.2-0.5-6.3c-0.2-1.9-0.4-3.7,0.1-5.5c0.2-0.7,0.1-1.5,0-2.2c-0.6-2.8-1.1-5.6-1.6-8.4c-1-5.2-2.1-10.5-3-15.7
		c-0.9-5.5-2.6-10.9-3.8-16.3c-0.7-3.4-1.4-6.8-2.6-10.1c-0.5-1.3-1-2.5-1.7-3.7c-3-5-4.6-10.5-6-16c-0.6-2.5-1.2-5.1,0-7.5
		c-0.6-3.3-1.2-6.5-1.8-9.6c-1-5.2-0.7-10.4-0.9-15.6c-0.1-1.9-0.4-3.6-1.4-5.3c-1.9-3.2-3.5-6.5-5.3-9.8c-0.4-0.8-0.8-1.5-1.3-2.2
		c-2.6-3.5-4.5-7.4-7.2-10.8c-2.2-2.7-3.3-6.1-4.5-9.4c-1.8-4.9-3.6-9.8-4.3-15c-0.2-1.7-0.8-3.4-1.3-5c-1.1-3.7-1.6-7.5-2.1-11.3
		c-0.2-1.6-0.3-3.2-0.3-4.8c0-2.6-0.3-5.2,0.8-7.7c0.2-0.4,0.3-1,0.3-1.4c0.1-5.3,0.8-10.6,1.4-16.1c0.3-0.5,0.8-1.1,1.1-1.8
		c0.6-1.2,1.6-1.8,2.9-2.1c1.2-0.3,2.4-0.6,3.7-0.7c6.1-0.3,12-2,17.9-3.4c2.5-0.6,5-1.4,7.4-2.3c4.5-1.7,9.1-2.2,13.9-1.9
		c2.6,0.2,5.2-0.1,7.8-0.4c2.2-0.2,4.4-0.2,6.7,0c3.5,0.2,6.9,0.2,10.4,0.3c6.4,0.3,12.9,0.6,19.3,0.8c1.1,0.1,2.2-0.2,3.3-0.5
		c3.6-1.1,7.1-2.3,10.3-4.3c2.6-1.6,5.3-2.7,8.1-3.5c1.7,0,2.5,1.6,3.9,2.3c3,0.1,6.1,0.2,8.9,0.3c1,0.3,1.5,0.8,1.9,1.5
		c0.9,1.3,2.2,2,3.4,2.9c1.8,1.2,3.1,2.7,4,4.7c0.9,2,2.3,3.9,3.8,5.4c2.3,2.2,3.8,4.9,5.7,7.3c1.5,2,2.8,4.1,4.2,6.1
		c3.3,4.6,6.6,10.2,7.7,15.3c-0.5,1-0.6,2.2-0.6,3.5c0,8.3-0.3,16.6-0.8,24.9c-0.1,0.9-0.3,1.7-0.4,2.6c-0.1,1.1-0.4,2.3-0.2,3.3
		c0.7,4.4,0.8,8.9,2.3,13.2c1,2.7,1.3,5.6,1.2,8.4c-0.1,2.6-0.3,5.2-0.5,7.8c-0.2,2.6-1.2,5.1-2.6,7.3c-0.8,1.4-1.7,2.7-2.6,4.1
		c0,2.7,0.1,5.4,0.6,8.1c1.1,5.4,1,10.9-0.1,16.3c-0.8,4-1.5,8.1-2.7,12c-0.2,0.7-0.2,1.6-0.8,2c-1.5,1.1-1.9,2.8-2.6,4.4
		c-0.4,1-0.8,2.1-1.4,3.1c-4,7.2-5.7,15-7.2,23c-1.2,6.6-2.3,13.2-3.4,19.8c-0.1,0.6-0.2,1.2-0.2,1.8c-0.4,6.3-0.7,12.6-1.1,19
		c-0.2,3.5-0.4,6.9-0.6,10.4c-0.1,1.8-0.2,1.8-1.7,3.5c-0.5-0.1-0.9-0.4-1-1c-0.1-0.4-0.1-0.7-0.1-1.1c1-6.4,0.8-12.9,1.4-19.3
		c0.6-6.5,0.7-13.1,2.1-19.6c1.2-5.7,2.1-11.5,3.2-17.2c0.6-2.9,1.4-5.8,2.2-8.7c0.1-0.2,0.1-0.5,0.2-0.7c2.4-2.9,2.3-6.7,3.8-10
		c1.5-3.2,2.8-6.6,4.2-9.9c-0.9-1.6-2.1-2.9-3.4-4c-4.3-3.5-7.7-7.8-10.5-12.5c-4.5-7.6-8.8-15.3-12.8-23.1
		c-2.7-5.5-4.8-11.2-5.5-17.3c-0.1-0.7-0.3-1.4-0.6-2.2c-0.1-0.2-0.3-0.3-0.6-0.7c-0.9,2-1.8,3.9-2.8,5.7c-1,1.7-2.1,3.3-3.2,5.1
		c0.9,0.9,1.7,1.8,2.6,2.7c0.7,1.6,0.2,3.1-0.1,4.6c-1,0.9-2,0.6-2.9,0.3c-1.7-0.4-3.1-1.5-4.8-2.3c-1.2,1.2-3.1,1.5-3.9,3.2
		l0.1-0.1c-1,0.4-2.2-0.5-3.4,0.5c0.3,4.5,3,8.2,4.8,12.2c-0.3,2.6-0.4,5.3-2.6,7.3c-1.5,0-1.8-1.4-2.3-1.8
		c-0.6-0.3-0.6-0.2-0.8,0.1c-0.5,1.2-1.4,2-2.5,2.6c-0.5,0.3-0.9,0.1-1.4-0.3c0.3-1.3,2-1.4,2.2-2.2c0-2.6,0-4.7,0-6.8
		c0.1-2.6-0.7-5.2-1.1-7.7c-0.3-1.5-0.5-2.9-0.5-4.4c0.1-2.1-1-4.1-0.5-6.6c1.1-1.1,2.4-2.5,3.2-4.1c0.4-0.7,0.8-1.6,1.9-1.5
		l-0.1-0.1c0.1,2.5-1.3,4.1-2.9,5.6c0.9,3.1,1.7,3.9,5,4.7c0.8,0.1,1.3-0.7,1.9-1c0.5-0.3,1.1-0.5,1.6-0.8c-1.2-3.4-3.4-6.4-3.9-10
		c0.7-0.3,1,0.1,1.2,0.5c0.5,1.1,0.9,2.3,1.3,3.5c1.5,4,4.5,6,8.5,6.7c0.3-0.2,0.4-0.3,0.5-0.4c0.1-0.3,0.1-0.7,0.2-1
		c-0.9-0.9-1.9-1.7-2.7-2.6c-2-2.2-3.2-4.7-1.9-7.8c0.4-1,0.1-2-0.6-2.8c-2-2.1-2.5-4.8-2.7-7.5c-0.1-1.9-0.4-3.7-1.3-5.4
		c-1.5-1.7-3.4-2.8-5.3-3.7c-0.4-0.8-0.1-1.3,0.3-1.8c1.6-1.8,2.5-4,3.6-6.1c0.9-1.9,2-3.6,3.8-5c2.3-1.9,4.3-4.1,6.5-6.2
		c1.2-1.1,2.5-2.1,3.7-3.1c1.2-1,2.4-1.7,4.1-1.5c0.6,0.1,1.2-0.2,1.8-0.4c3.5-1.6,6.9-3.5,9.8-6c2.2-2,4.5-3.9,6.8-5.8
		c0.8,0.6,0.2,1.1-0.1,1.5c-3.9,4.6-8.4,8.5-13.9,11c-1.7,0.8-3.4,1.6-5,2.3c-0.7,1-0.9,2.1-0.8,3.2c0.5,4.2,1.1,8.4,2.6,12.3
		c0.1,0.3,0.4,0.6,0.6,0.8c0.6,0.3,1.1-0.1,1.5-0.2l-0.1-0.1c0.1,1.3-0.3,2.4-1.1,3.5c-1.7,2.5-3.3,5-4.9,7.5
		c-1.1,1.8-1.1,1.8-1.1,4c2,2.2,3.9,4.3,5.9,6.5c0.2,0,0.5-0.1,0.9,0c0.2,0,0.4,0.3,0.6,0.4c0,0.4,0,0.4-1.2,1.2
		c-0.5-0.3-1-0.6-1.6-0.8c-0.5,1-0.1,2,0.2,2.9c1.5,5.1,3.4,10.1,6,14.8c4.4,7.8,8.8,15.6,13.3,23.3c1.6,2.7,3.4,5.2,5.2,7.8
		c1.8,2.7,4.1,4.9,6.8,7.2c1.2-1.7,1.6-3.6,1.7-5.6c0.1-1.5,0.3-3,0.5-4.4c0.3-2,0.4-4,0.3-5.9c-0.1-2.2-0.1-4.5,0.2-6.7
		c0.2-1.3-0.1-2.7-0.1-4.1c0-2.1,0-4.2,0-6.5c1.9-3.3,3.1-7.1,3.7-11c0.5-3.2,0.6-6.4,0.8-9.6c0.2-3,0-6-1-8.8
		c-0.4-1.2-0.6-2.4-0.6-3.7c0-0.6,0-1.2-0.1-1.9c-1.2-6.3-0.5-12.6-0.2-18.9c0.2-4.5,0.3-8.9-0.1-13.4c-0.4-3.8-0.7-7.6-1.7-11.4
		c-0.3-1.3-0.9-2.6-1.5-3.8c-1-1.8-2.3-3.5-2.4-5.8c0-0.6-0.6-1.3-1.1-1.9c-1.5-2-2.8-4.1-4-6.3c-1.3-2.2-2.6-4.5-4.4-6.4
		c-1.7-1.8-3-4-4.4-5.9c-2.5-1.5-5.5-1.5-7.7-3c-0.9,0-1.2,0.4-1.5,0.8c-0.2,0.2-0.1,0.4,0.2,0.5c2.4,0.8,3.6,2.5,3.8,4.9
		c-0.8,1.2-2.1,1.7-3.3,2.5c-2.5,0-5,0-7.5,0c-1.3,1.3-3,2.1-3.8,3.9c-0.3,0.7-1.2,1.2-2,1.6c-2.2,1.4-4.4,2.9-6.6,4.1
		c-5.3,2.9-8.7,7.4-11.1,12.7c-2.3,5.2-4.2,10.6-6.3,15.9c-0.4,1.1-0.8,2.3-1.7,3.3c-1.1,1.3-1.6,3-1.8,4.8
		c-0.1,0.1-0.1,0.1-0.2,0.2c0-0.1,0.1-0.2,0.1-0.3c0.7,0.1,1-0.4,1.4-0.8c0.5-0.5,1-0.9,1.5-1.4l-0.1-0.1c0.1,0.5-0.1,0.9-0.4,1.3
		c-0.8,1.2-1.6,2.4-2.6,3.9c-0.4,0.5-1.3-0.1-1.8,0.4c-1.2,1.3-1.6,3.1-2.5,4.5c-0.5,0.2-1,0.5-1.8,0.9c-0.5,1.2-1.1,2.6-1.6,3.9
		c-0.5,1.1-0.7,2.3-1.8,3.1c0.2-1.6,0.4-3.2,0.6-4.8c0-0.2-0.1-0.5-0.2-0.7c-0.5-0.4-1-0.7-1.3-1c-0.6-1.1-0.3-2.1-0.4-3.1
		c-0.1-1.2-0.2-2.5-0.4-3.7c-0.1-0.7-0.6-1-1.4-0.9c0-0.4-0.2-0.4-0.2-0.2c0.1,0.5-0.2-0.1,0.3,0.1c0,0.4-0.1,0.7-0.1,1.1
		c0.9,4.1,1.1,8.2,0.9,12.4c0,0.4,0,0.8,0.1,1.1c0.1,0.3,0.5,0.5,0.8,0.9c0.5-0.5,0.9-0.9,1.3-1.4c-1.3,5-0.2,9.8,0.7,14.7
		c0.5,2.4,1.2,4.8,1.8,7.2c0.6,0.3,1.1,0.5,1.6,0.7c0.7,1.6,0.1,3.1,0.6,4.9c1.3,1.8,2.9,3.8,4.5,5.9c1.2-1.9-0.8-3.7,0.1-5.4
		c1.2,0.1,1.4,1.1,1.7,1.9c0.2,0.8,0.3,1.7,0.3,2.6c0.1,1.3,0.5,2.4,1.3,3.4c-1.1,1.8-1.4,3.5-0.4,5.3c2.1,3.7,2.8,7.6,2.7,11.8
		c0,1.1,0.4,2.2-0.2,3.2c-0.6,0.1-1-0.1-1.2-0.6c-0.4-1.1-0.4-2.2-0.3-3.3c0.2-2.4-0.2-4.7-1-6.9c-0.9-2.7-1.8-5.4-2.1-8
		c-2.3-2.1-4.7-0.5-6.9-0.9c0.1-0.3,0.2-0.7,0.4-1.2c-7-4.2-11.1-10.3-12.3-18.2c-0.5-0.4-0.9-0.4-1.3,0.1c1.4,2.8,1.2,5.9,1.1,8.9
		c-0.4,9.1-1.6,18-4.2,26.7c-0.4,1.4-1.2,2.8-0.4,4.3l0.1-0.1c-0.5,0-1,0.1-1.2,0.6c-0.5,1.3-1,2.5-1.5,3.8
		c-1.7,4.8-3.9,9.4-6.3,13.9c-2.1,3.9-4.7,7.6-8.2,10.5c-2,1.7-3.8,3.5-5.9,5.4c1.4,4,2.1,8.3,2.9,12.6c0.1,0.4,0.1,0.8,0.2,1.1
		c2.6,5.7,3.1,12,4.4,18c0.4,1.7,0.5,3.4,1,5.1c1.4,5.6,1.9,11.2,2.6,16.9c0.3,2.2,0.5,4.4,0.7,6.7c0.1,1.1,0.1,2.2,0.1,3.3
		c-0.1,2.2,0,4.5,0.4,6.7c0.2,1.5,0.5,2.9,1.4,4.2c1.7,0.1,3.2-0.7,4.8-0.9c0.6-0.1,1.2-0.5,1.8-0.4c3.8,0.7,7.6-0.4,11.4-0.2
		c3.8,0.2,7.7,0.1,11.5,0.1c2.8,0,5.7-0.2,8.5,0.6c0.2,0.1,0.5,0.1,0.7,0.1c5.2-0.3,10.4,0.6,15.6,0.6c7.8,0,15.6,0,23.5,0
		c1.3,0,2.7-0.1,4.1-0.2c1.8,0.9,1.4,2.7,1.7,4.3C652,349.6,651.1,350.9,650.6,352.2L650.6,352.2z M602.2,130.1
		c-0.5,0-0.8,0.2-0.8,0.7c-0.5,0-0.8,0.2-0.7,0.7c-0.5,0-0.8,0.2-0.7,0.7c-0.6,0-0.8,0.2-0.7,0.8c-0.5,0-0.7,0.3-0.7,0.8
		c-0.1,0.1-0.3,0.2-0.1-0.1c0.4-0.1,0.7-0.3,0.8-0.8c0.5,0,0.8-0.2,0.7-0.7c0.5,0,0.8-0.2,0.7-0.7c0.5,0,0.7-0.2,0.7-0.8
		C601.8,130.8,602,130.5,602.2,130.1c0.3-0.2,0.7-0.3,0.7-0.9c0.3,0.1,0.6,0.3,0.9,0.3c0.1,0,0.4-0.3,0.4-0.4c0-0.4-0.3-0.6-0.7-0.5
		c-0.4,0.1-0.5,0.4-0.5,0.7C602.4,129.4,602.2,129.6,602.2,130.1z M587.2,133.8c-0.1,0.1-0.2,0.2-0.2,0.2
		C587,134,587.1,133.8,587.2,133.8c0.5,0.1,0.7-0.2,0.7-0.8c1.5,0,2.3-1.8,4-1.5c0.5,0.1,0.8-0.4,0.6-1c-1.4-0.8-2.6-0.6-3.5,0.7
		c-0.4,0.6-1,1.1-1,1.9C587.5,133.1,587.3,133.4,587.2,133.8z M595.4,137.6c-0.1,0.1-0.2,0.1-0.2,0.2
		C595.2,137.7,595.3,137.6,595.4,137.6c0.2-0.4,0.4-0.7,0.7-1c0.4,0.2,0.8,0.5,1.2,0.6c0.8-0.5,1.3-1,0.6-1.9
		c-0.7,0.3-1.3,0.7-1.7,1.3C595.9,137,595.7,137.3,595.4,137.6z M592.4,136.1c-0.7,0.3-0.8,0.8-0.7,1.5c-0.6,0.7-0.6,0.7-0.2,1.6
		c0-0.7,0.1-1.1,0.1-1.6C592.6,137.3,592.4,136.6,592.4,136.1l0.1-0.1L592.4,136.1z M593.2,126.3c0.3-0.3,0.6-0.7,0.9-1.1
		C593.2,125.3,593.3,125.9,593.2,126.3C593.3,126.4,593.1,126.6,593.2,126.3z M593.9,139.8c-0.7,0.6-0.8,1.4-0.7,2.2
		c-0.7,1.3-0.7,1.3-0.3,2.8c0.3-0.9,0.4-1.9,0.2-2.8C594.1,141.5,593.8,140.5,593.9,139.8l0.2-0.2L593.9,139.8z M590.1,154.6
		c0.9-0.4,0.8-0.9,0.4-1.6C590.1,153.5,590.1,154.1,590.1,154.6c-0.6,0.5-0.8,1,0,2C590.1,155.7,590.1,155.2,590.1,154.6z
		 M587.9,128.6c-0.8,0.5-1.6,1-2.2,2.3C587.2,130.4,587.8,129.7,587.9,128.6C587.8,128.7,588.3,128.2,587.9,128.6z M600.5,127.7
		c1.1,0,2.1-0.1,2.4-1.5c-0.4-0.2-0.7-0.4-1-0.5C601.1,126.2,601.1,127.1,600.5,127.7l0,0.2L600.5,127.7z M608.8,135.2
		c0.7-0.3,1.2-0.9,1.5-1.6c0.3-0.6,0.2-1.2-0.8-1.2C609,133.3,608.9,134.3,608.8,135.2l-0.1,0.2L608.8,135.2z M610.2,128.6l0.2,0.1
		L610.2,128.6c0-0.9,0.1-1.9,0.2-2.6c0.4-1.2,1.7-0.6,2-1.8c-0.4-0.2-0.8-0.5-1.2-0.7c-0.4-0.2-0.9-0.4-1.6,0.2
		C608.9,125.4,608.6,127.1,610.2,128.6z M633.5,106.9c2.8,0,5.7-0.2,8.2-0.8c1.9,0.7,3.6,1.4,5.4,2c0.5,0.2,1.1,0.6,1.6-0.2
		c-2.4-1.7-4.9-3.3-6.7-5.5c-2.3-0.1-4.4-0.2-6.5-0.3c-2.2-0.2-4.4,0.1-6.4-0.6c-0.1-0.6-0.1-1-0.2-1.3c0.4-0.1,0.4-0.3,0.2-0.2
		c-0.5,0.1,0-0.2-0.1,0.3c-1.9-0.3-3.4,0.6-4.9,1.4c-1.8,0.9-3.4,2-5.2,2.8c-4.1,1.8-8.2,3.6-12.8,3.2c-1-0.1-2,0.1-3,0.3
		c-1.7,0.3-3.5,0.4-5.2,0.4c-5.6,0-11.2,0-16.7-0.5c-3-0.2-5.9-0.4-8.9-0.6c-3.5-0.2-6.9-0.4-10.4,0c-0.7,0.1-1.5,0.2-2.2,0
		c-2-0.6-3.9-0.4-5.9,0.2c-2.8,0.9-5.7,1.8-8.5,2.8c-0.8,0.3-1.5,0.9-2.4,0.8c-1.4-0.1-2.7,0.4-4,0.8c-3.1,0.9-6.2,1.7-9.4,2.2
		c-2.3,0.3-4.7,0.7-7,1c-1.8,0.2-3.4,0.8-4.4,2.8c-0.3,3.8-0.7,7.9-1,12c-0.3,3.4-0.2,6.9-1.2,10.3c-0.2,0.7-0.1,1.5,0,2.2
		c0.6,5.1,1.2,10.1,1.8,15.2c0.2,1.8,0.5,3.7,1.4,5.4c0.5,1,0.8,2.1,0.9,3.2c0.2,1.8,0.8,3.4,1.4,5c0.9,2.4,1.7,4.9,2.7,7.3
		c1.7,4,3.1,8.1,5.9,11.6c4,4.9,7.5,10.2,10.5,15.7c1.9,3.5,3.2,7.2,3.3,11.3c0.1,4.5,0.3,8.9,1,13.4c0.7,4.2,1.2,8.3,1.9,12.5
		c0.1,1,0.4,2,0,2.9c-0.6,1.4-0.2,2.7,0.2,4c1.5,4.7,3,9.5,4.5,14.2c0.2,0.7,0.5,1.4,0.8,2.1c0.3,0.6,0.5,1.4,1.7,1.6
		c2.2-1.5,4.3-3.4,6-5.8c2-2.8,3.7-5.9,5.2-9c3.2-6.8,6-13.9,8.4-21.1c3.2-9.7,5.1-19.7,6.4-29.8c0.3-2.6,0.3-5.1-0.5-7.6
		c-1.8-0.5-3.4,0-4.8,0.6c-3.2,1.3-5.6,3.6-7.9,6.1c-0.6,0.6-0.8,1.6-1.8,1.8l0.1,0.1c-0.4-1.7,0.5-2.9,1.5-4
		c3.1-3.4,6.7-6.2,11.7-6.4c0.8,0,1.4-0.5,1.6-1.5c-0.3-0.5-0.5-1.3-0.9-1.9c-2.7-3.5-5.1-7.4-8.5-10.3c-2.4-2.1-4.4-4.3-4.9-7.6
		c-1.4-2.1-1.3-4.5-1.3-6.8c0-0.9,0-1.7,0-2.6c0.1-1.3-0.3-2.4-1.1-3.5c-2.6-3.4-5-7.1-8.6-9.7c-2-1.5-3.8-3.1-4.6-5.6
		c3.2,0.4,5.8,2.2,8.1,4.2c5.4,4.5,8.4,10.3,8.5,17.4c0,2.2,0,4.4,0,6.8c1.9,1.8,3.8,3.8,5.8,5.6c3.5,3.1,6.1,6.8,7.5,11.3
		c0.3,1.1,0.7,2.1,1.6,3c0.8,0.3,1.7,0.6,2.8,1c0.8-1.5,2.7-1.7,3.6-3.3c-0.5-2.2-0.8-4.4-0.6-6.6c0.3-3.2-0.1-6.4-0.1-9.7
		c0-1.2-0.1-2.5-0.7-3.8c-0.8-0.7-1.6-1.6-2.6-2.4c-0.8-0.7-1.4-1.5-1.6-2.4c-0.4-1.5-1.1-2.7-2-4c-1.4-2.1-1.7-4.4-0.9-6.7
		c0.4-1.1,0.8-2.1,1.2-3.2c-0.6-2.2-0.5-4.6-0.7-6.9c-0.2-1.7,0.3-3.1,1.3-4.3c-0.5-4.5-0.7-8.7-0.4-13.1c-0.7,0.1-1.3,0-1.7,0.2
		c-1.7,0.7-3.4,1.4-5.1,2.3c-2.8,1.4-5.1,3.9-8.4,4.2c-0.2,0-0.4,0.2-0.7,0.3c-4.7,2.9-9.5,5.8-14.5,8.3c-0.2,0.6-0.3,1.2-0.5,1.8
		c-1.1-0.4-1.4-1.2-1.2-2.5c1.1-0.9,2.1-2,3.4-2.7c5.8-3.3,11.3-7.2,17.8-9.2c1.2-0.4,2.2-1.1,3.3-1.6c2.4-1.2,4.9-2.3,7.5-3.1
		c6-1.8,12-2.9,18.2-3.8c1.8-0.3,3.7-0.1,5.6-0.2c1.1,1,2.1-0.1,3.3-0.2c0.4,0.1,1,0.3,1.6,0.5c2.4,1,4.8,1,7.3,0.9
		c1.1-0.1,2.2-0.2,3.2-0.9c2.5-1.9,5.4-3,8.1-4.4c2.4-1.3,5.1-1.8,7.9-1.4c1.7,0.2,3.5,0.1,5.2,0c0.8,0,1.5-0.2,2-1
		c0.2-1.3-0.6-2.2-1.5-3.1c-2.7-0.1-5.4-0.1-8.1-0.9l0.1,0.1c-0.7-0.9-1.7-1-2.7-0.9c-3.1,0.4-6.2-0.1-9.2,0.6
		c-0.6,0.1-1.4,0.4-2.1-0.2c1.6-1.3,3.5-0.9,5.3-1.1c1.9-0.3,3.9,0,5.8-0.9c0.1-0.4,0.2-0.7,0.2-1
		C631.9,106,632.8,106.1,633.5,106.9l-0.2,0.1L633.5,106.9z M626,172.7c-1,1.6-1.7,2.5-2.9,2.7c-1,0.2-1.5-0.7-2.2-0.9
		c-0.7,0.3-1.4,0.6-1.9,0.8c-0.8,0.7,0,2.1-1.3,2.4c-0.9-0.6-0.3-2.2-1.7-2.3c-0.6,0.8-0.1,2-0.9,2.7c-0.3,0.5-1.3,0.1-1.4,1
		c1.3,1.1,2.6,2.2,3.7,3.1c1.4,3.1,1.6,6.2,1.9,9.3c1.7,2.5,3,5.2,2.9,8.3c0,1.1,0.5,2.1,1.4,3.2c2.1-3.2,3.8-6.3,4.5-9.7
		c-0.3-0.9-0.8-1.4-1.4-1.9c-1.6-1.2-1.8-2.8-1.4-4.7c0.2-0.7,0.5-1.4,0.5-2.1C625.5,181,625.2,177.3,626,172.7z M599,212.9
		c-1.7-2.1-3.2-3.3-4.9-4.2c-0.1-2.2-0.2-4.3-0.4-6.3c-0.5-0.3-0.9-0.5-1.3-0.7c-0.6-1.9-1.1-3.7-1.7-5.4c-0.6-1.8-0.5-3.9-1.8-5.8
		c-1.7,1.5-2.9,3.2-4.2,4.7c0.2,2.6,1.1,4.7,2.4,6.8c1.6,2.7,3.7,5,5.7,7.3C594.3,211,596.3,211.8,599,212.9z M628.3,184
		c1.8-2.4,3.2-4.1,4.6-5.9c-0.3-0.5-0.4-1-0.7-1.4c-1.2-1.5-1.7-3.2-1.9-5.1c-0.1-1.5-0.4-2.9-0.7-4.4c-0.2-1.1-0.3-2.2-1.1-3.4
		c-0.2,2.1-1.3,3.6-1.8,5c0.3,2.7,0.7,5,0.9,7.3C627.8,178.5,628,180.8,628.3,184z M609.1,213.2c-0.3,1.8-0.6,3.1-0.4,4.4
		c0.6,3.6,1.2,7.3,1.8,11c1.1,1,1.7,2.4,3.2,3.2c0.3-1.1,0.5-2,0.7-2.6C613.3,223.5,611,218.6,609.1,213.2z M581.6,152.6
		c-0.5,2.3-1.2,4.5,0.3,7.6c0-2.7,0.2-4.6,1.3-6.3c0.3-0.4,0-0.9-0.5-1.3C582.5,152.5,582.1,152.5,581.6,152.6z M585.2,163.2
		c0.2-2.2,0.2-2.2-1.8-3.9C583.8,160.7,583.4,162.4,585.2,163.2z M595.8,147.5c0.3-1.2,0.5-2.2,0.7-3.1c0.1-0.5,0.1-1,0.1-2.3
		C596,144.3,595.3,145.6,595.8,147.5z M597.2,161.7c0.9-0.7,1.7-1.1,1.7-2c-0.1-0.6-0.5-0.7-0.9-0.7
		C597.6,159.7,597.2,160.4,597.2,161.7z M588.2,148.7c1.4-1.7,1.4-1.8,0-2.7C587.6,146.9,587.6,147.8,588.2,148.7z M626.3,119.2
		c1,0.2,1,0.2,1.8-1.4C627.4,118,626.6,118.2,626.3,119.2z M616.3,127c-0.5-0.4-0.8-0.7-1.1-0.9c-0.3-0.2-0.6-0.5-1-0.1
		c-0.1,1,0.4,1.5,1.3,1.7C615.7,127.6,615.8,127.4,616.3,127z M605.6,127.4c-0.1-0.2-0.2-0.4-0.4-0.5c-0.2-0.2-0.5-0.1-0.6,0.2
		c-0.2,0.4,0.1,0.6,0.5,0.6C605.3,127.7,605.5,127.5,605.6,127.4z M606.2,125.9c0.2,0.1,0.4,0.2,0.6,0.2c0.1,0,0.2-0.1,0.3-0.2
		C606.8,125.6,606.5,125.6,606.2,125.9z M637.4,108.8c-0.1-0.1-0.1-0.1-0.2-0.2c-0.1,0-0.2,0-0.3,0c-0.2,0.1-0.1,0.2,0.2,0.3
		C637.2,108.9,637.3,108.8,637.4,108.8z M586.1,165.6c0,0.2-0.1,0.3-0.1,0.5C586.1,165.9,586.1,165.7,586.1,165.6z M626.4,162.5
		c-0.1,0.2-0.5,0.5,0.1,0.7C626.4,163,626.4,162.8,626.4,162.5z M628.6,160.9c-0.3,0.1-0.3,0.3-0.1,0.6c0.1-0.1,0.2-0.2,0.2-0.3
		C628.7,161.1,628.6,161,628.6,160.9z M603.2,141c0,0.1-0.1,0.2-0.1,0.3c0.1,0.2,0.2,0.1,0.2-0.2C603.4,141,603.3,141,603.2,141z
		 M605.4,142.9l0.2,0l-0.1-0.3L605.4,142.9z M569.7,349.8l0.1-0.2l-0.2,0L569.7,349.8z"/>
	<path d="M618.6,455.7c-0.4,0-0.7,0-1.2,0c-1.6,7.6-2.1,15.2-1.6,22.9c0.3,4.2,0.6,8.4,0.9,12.6c0.2,2.9,0,5.7-0.7,8.8
		c3.3-0.6,6.3-0.3,9.3-0.4c7.7-0.2,15.4,0.8,22.9,2.1c4.2,0.7,8.3,1.3,12.6,1.2c1.7,0,3.5,0,5.2-1.2c-0.2-1.5-0.4-3.1-0.5-4.7
		c-0.1-1.6-0.2-3.2-0.2-4.8c-0.3-10.8-0.7-21.6-0.2-32.4c0.2-4.1,0.6-8.2,1.3-12.2c0.2-1.4,0.3-2.7,0.1-4.1
		c-0.3-1.8-0.4-3.7-0.6-5.5c-0.1-0.8-0.4-1.5-1.2-1.7l0.1,0.1c0.5-2.6,0.5-5.2,0.5-7.8c0-3.8,0.1-7.7,0.1-11.5
		c0-0.7-0.1-1.5-0.2-2.2c-0.9-3.9-1.2-7.8-1.9-11.7c-0.7-3.6-1.2-7.3-2.3-10.9c-0.9-3.2-1.3-6.6-2.1-9.8c-1.1-4.7-1.5-9.5-2.2-14.3
		c-0.2-1.1-0.3-2.2-0.4-3.3c-0.4-2.6-1.4-5-3.2-7c-1.3-1.6-2.6-3.3-2.3-5.7l-0.1,0.1c0.4,0.1,0.9,0.1,1,0.3c1.8,2.9,4.1,5.6,5.3,8.9
		c0.2,0.6,0.5,1.2,0.6,1.8c0.8,4.1,2.1,8.1,2.4,12.3c0.1,1.5,0.5,2.9,0.9,4.4c1.3,5.9,2.6,11.9,3.2,17.9c0,0.2,0,0.5,0.1,0.7
		c1.7,5.1,1.8,10.5,3,15.7c0.3,1.2,0.7,2.4,1,3.6c0.2,1.1,0.4,2.2,0.4,3.3c0,5.5,0.2,10.9,0.8,16.4c0.1,1.2,0,2.5-0.2,3.7
		c-0.7,4.1-0.8,5.3,0.1,9.4c-0.3,1.1-0.8,2.4-0.7,3.8c0.1,8.6,0.1,17.1,0.3,25.7c0.1,5,0.3,9.9,0.4,14.9c0,1.8-0.2,3.5-0.8,5.1
		c-0.3,1-0.3,1.9,0.2,2.8c-2,2.7-5,2.7-7.8,3.4c-0.4,1.4-0.2,2.7,0,4.1c0.8,4.8,1.6,9.5,2.4,14.3c0.2,1.5,0.7,2.9,1.3,4.2
		c2.7,6.7,5,13.5,6.6,20.5c0.4,1.7,0.7,3.4,0.6,5.2c0,1.1,0.2,2.2,0.3,3.3c0.2,1.4,0.4,2.7-0.2,4c-0.3,0.6-0.2,1.5-0.3,2.2
		c-0.5,5.4-0.8,10.9-1.4,16.3c-0.6,4.5-1.5,9-2.4,13.6c-0.8,4.4-1.8,8.8-2.7,13.1c-1.3,6.1-2.9,12.1-5,17.9
		c-1.1,3.1-1.8,6.1-2.1,9.4c-0.5,5.3-1.3,10.6-2,15.6c0.5,1.8,1,3.3,1.4,4.9c0.1,0.4,0.4,0.6,0.8,0.6c-0.1,0.6,0.2,1.2-0.3,1.8
		c-0.8,0.1-1.6,0.5-2.5-0.1c-0.5-1.3-1-2.7-1.5-4.2c-3.3,0.9-6.7,0.1-9.8,0.5c-1.2,1-0.5,2.6-1.6,3.4c-3.6,0.1-5,3.2-6.7,5.4
		c-1.1,0.2-1.7-0.1-2.1-0.8c-0.4-0.7-1-1.3-0.5-2.2c0.4,0.2,0.7,0.3,1,0.4c0.6-0.9,1.1-1.7,1.7-2.6c2-0.4,3.6-2,5.6-2
		c0.7-1.3,0.1-2.8,1.4-4c0.4-0.4,1.3-0.6,2.1-0.6c1.5,0,3-0.1,4.5-0.1c1.7,0,3.2-0.4,4.5-1.7c-0.2-2.7,0.3-5.3,0.4-8.1
		c0.2-4.2,1-8.4,1.9-12.5c0.6-2.9,1.3-5.8,2.9-8.4c0.3-0.4,0.4-0.9,0.5-1.4c1-4.4,2-8.7,3-13.1c1.6-7.3,3.2-14.6,4.3-21.9
		c1.2-7.9,2.1-15.7,2.6-23.7c0.4-5.4-0.5-10.3-2.4-15.3c-1.8-4.8-3.1-9.7-5-14.4c-2.4-6.1-3.3-12.4-3.7-18.9
		c-0.1-0.9,0.1-1.7,0.5-2.5c0.3-0.7,0.3-1.4-0.4-2.2c-0.9-0.1-2-0.1-3.1-0.3c-5.9-0.7-11.8-1.5-17.7-2.2c-4.4-0.6-8.9-0.7-13.1-2.2
		c-0.6,0.8-0.5,1.5-0.3,2.2c0.4,1.7,0.5,3.5,0.5,5.2c-0.1,3.9,0.8,7.7,2.3,11.2c2,4.8,2.3,9.9,3.7,14.8c0.1,0.4,0.1,0.7,0.1,1.1
		c0.2,6,0.2,11.9-0.3,17.9c-0.5,5.9,0,11.7,0.1,17.5c0,1.1,0.3,2.2,0.6,3.3c1.3,6.2,2.9,12.3,4,18.6c1,5.6,1.8,11.3,3,16.9
		c0.2,0.7,0.4,1.4,0.2,2.2c-0.4,1.2,0,2.5,0.2,3.7c0.7,6,1.4,12.1,0.8,18.2c-0.2,2.3-0.8,4.7-1,7c-0.5,4.6-1,9.1-2.2,13.6
		c-0.2,0.7-0.1,1.5-0.1,2.2c-0.9-0.5-0.9-1.4-0.9-2.3c-0.2-3.1,0-6.2,0.5-9.3c0.2-1.1,0.7-2.1,0.2-3.2c-2.8,0.4-3.3,1.1-4,5.1
		c0.5,1.5,1.7,2.8,0.9,4.8c-1.2,0.3-2.1,1.4-2.7,2.6c-0.5,0.9-1.3,1.5-2.1,2c-1.5,1.1-3.2,1.8-4.9,2c-1.9,2-2.2,4.4-3.5,6.3
		c0.9,3.2,1.2,6.5,2.7,9.3c1.6,1.2,3.1,2.2,5.1,2.1c2-0.1,3.5,1.1,4.8,2.4c1.1,1.1,1.7,2.3,1.3,3.7c-0.8,2.5,0.3,4.3,1.7,6.1
		c1.6,0.4,3.2,0.8,4.7,1c1.3,0.2,2.7,0.2,4.1,0.2c1,0.1,2,0,3,0.2c4.6,1.1,9.1,0,13.6-1.1c1.4-0.4,2.8-1.1,3.4-2.6
		c-0.6-1.3-1.2-2.5-1.8-3.7c-0.4-0.9-0.7-1.8-1-2.8c-0.5-1.7-0.8-3.4-0.6-5.1c0.2-2.9,0-5.7-0.7-8.5c-0.5-2-0.8-4.1-0.5-6.3
		c0.2-1.7-0.1-3.2-1.1-4.5c0-0.6-0.2-1.2,0.5-1.8c1.6,1.3,2.6,2.9,2.6,5c-0.1,2.9,0.5,5.7,1,8.5c0.4,2.3,0.3,4.7,0.3,7
		c0,2.8,0.4,5.4,1.8,7.9c0.4,0.6,0.6,1.4,0.6,2.1c0,1.1,0.3,2.2,0.7,3c-1.1,2.6-3,4-5.4,4.6c-4.2,1-8.4,1.9-12.9,1.2
		c-3.5-0.6-7.1-0.7-10.7-1.5c-4.6-1.1-6.4-4.2-4.9-8.8c0.1-0.2,0.1-0.5,0.1-0.7c-0.1-0.7-0.6-1-1.1-1.4c-0.5-0.4-1-0.7-1.6-1
		c-2.5,0.2-4.9-0.3-7.1-1.7c-1.2-0.7-2-1.7-2.5-3.1c-1-2.9-1.9-5.9-2.2-9.1c0.4-1.3,0.8-2.8,1.2-4.2c0.8-2.8,2.2-5,5.4-5.3
		c0.8-0.1,1.7-0.6,2.3-1.2c1.6-1.5,3.5-2.8,4.6-5c-0.1-1.5-0.2-3.1-0.4-4.7c-0.3-2.7,1-4.5,3.4-5.6c0.8-0.3,1.6-0.7,2.4-1.1
		c1.1-4.2,1.1-8.4,1-12.6c-0.1-3.5-0.5-6.9-0.9-10.4c-0.4-3.8-0.9-7.6-1.4-11.5c-0.1-0.7-0.2-1.5-0.4-2.2
		c-1.7-5.2-2.5-10.6-3.9-15.9c-0.3-1.2-0.4-2.4-1.1-3.5c-0.2-0.4-0.3-0.9-0.4-1.4c-0.7-6.4-1.6-12.8-1.9-19.3
		c-0.2-4.5,0.3-8.9,0.6-13.4c0.1-2.1,0.4-4.2,0.5-6.3c0.1-1.1,0.2-2.2,0.5-3.3c0.6-2.5,0.1-4.9-0.8-7.3c-1-2.8-2.1-5.6-3.1-8.4
		c-0.7-2.1-1.3-4.3-1.9-6.4c-0.4-1.4-0.9-2.8-0.1-4.3c0.2-0.4,0.1-1,0-1.5c-0.3-3.1-0.7-6.1-1-9.4c-1.2-0.5-2.5,0-3.5,0.5
		c-4.1,1.7-8.3,2.4-12.6,3c-0.4,0-0.7,0.2-1.1,0.4c-1.7,3.5-2.9,7.1-2.4,11.1c0.2,1.5-0.1,3-0.5,4.4c-1.1,3.7-2,7.4-2.4,11.3
		c-0.1,0.7-0.3,1.5-0.5,2.4c-0.2-1.9-0.4-3.6-0.6-5.3c-0.4-0.3-0.7-0.6-1.1-1c0.2-2.9,0.9-5.6,1.7-8.3c0.9-3.1,1.3-6.3,1.9-9.5
		c0.3-1.6,0.5-3.2,1.2-4.6c-1-0.7-2-0.4-2.9-0.2c-5.4,0.8-10.8,1.2-16.3,1.5c-5.1,0.3-10.1,0.8-15.2,1.3c-1.7,0.2-3.4,0.7-5.1,1.1
		c0,1.8-0.1,3.4,0,5c0.5,6.1,0.5,12.1,1.3,18.2c0.3,2.1,0,4.2-0.2,6.3c-0.5,4.7-1.2,9.4-1.9,14c-0.1,0.7-0.3,1.5-0.3,2.2
		c0.1,6-0.4,11.9,0.3,17.9c0,0.2,0.1,0.5,0.1,0.7c-0.4,7.3,1.4,14.3,2.8,21.4c1.1,5.6,1.8,11.3,2,17c0.1,3.9,1.1,7.6,1.7,11.4
		c0.7,4.3,1.2,8.6,1.9,12.9c-0.5,0-0.7-0.1-0.9-0.1c-0.3,0.1-0.4,0.3-0.4,0.6c0,1,0,2,0,3c0.6,0.4,1.1,0.7,1.6,1
		c0,0.2,0.1,0.5,0,0.7c-0.9,3.7-1.7,7.5-2.6,11.2c-0.3,1.4,0,2.7,1.1,3.7c0.7,0.7,1.5,1.3,1.8,1.7c1.1,1.3,0.5,2.6,1.4,3.5
		c0.5,0.5,0.9,1.2,1.9,1.6c1.3-0.1,2.6-0.8,3.9-1.4c0.8-1.3,0.9-2.6,1.3-4c0.6-2.2,1.8-3,4.1-2.8c1,0.1,1.9,0.7,3-0.3
		c0.9-2.1,1.3-4.6,1.5-7.1c0.5-5.8,1.1-11.6,1.1-17.5c0-5.8,0.4-11.7,1.2-17.5c0.3-2.1,0.8-4.1,1.3-6.2c0.1-0.5,0.2-1.1,0.5-1.4
		c2.6-2.5,2.7-6,3.6-9.2l-0.1,0.1c0.3-0.5,0.8-1,1-1.5c1.7-4.1,3.4-8.3,4.6-12.7c-0.4-1.1-0.6-2.3-0.6-3.6
		c0.4-6.2-0.6-12.4-1.6-18.5c-0.2-1.3-0.4-2.7-0.6-4.4c0.4-0.3,0.9-0.7,1.5-1.2c0,0.1,0-0.1,0-0.2c-0.5-4.5-0.3-9.2-2.5-13.4
		c-0.3-0.7-0.6-1.3-0.9-2c-0.1-0.3,0-0.7,0.6-0.9c2.5,3.1,4,6.7,4.2,10.8c0.2,3.5,0.2,6.9,0.2,10.4c0,1.9,0.1,3.7,0.4,5.6
		c0.6,3.9,0.8,7.9,0.5,11.9c-0.1,0.7-0.3,1.6,0,2.2c1.1,3,0.2,5.9-0.6,8.8c-1.3,5.1-3.3,9.9-5.7,14.5c-2.1,4.1-2.8,8.5-3.3,12.9
		c-0.7,6.9-1.2,13.9-1.9,20.8c-0.3,3.1-0.2,6.2-0.3,9.3c-0.1,3-0.9,5.9-0.9,8.6c0.3,1.3,1.5,1,2,1.7c1.4,2.9,2.3,6,2.9,9.2
		c0.5,2.6,0.9,5.1,1,7.7c0.2,3.1,0.6,6.1,2.2,9c1,1.8,1.7,3.9,1.8,6c0.1,1.4,1,2.6,0.5,4.2c-0.9,1.2-2.4,1.8-3.8,2.4
		c-2.2,0.9-4.5,1.4-6.9,1.5c-3.6,0.2-7.2,0.1-10.8,0.2c-3.2,0-6.2-0.6-9-1.9c-3-1.3-5.9-2.7-8.8-4.1c-1.1-0.6-2.3-0.9-3.5-1
		c-4-0.3-7.5-1.7-10.4-4.4c-1.8-1.7-3.6-3.4-5.4-5.1c-2.6-2.5-2.8-5.7-2.6-9c0.1-1.9,1.4-3.2,3.2-3.8c1.2-0.4,2.3-1,3.5-1.3
		c2.5-0.6,4.5-2,6.7-3.6c1.6-3.3,4.5-5.6,7.5-7.8c0.6-0.9,0.6-1.9,0.9-2.8c0.7-2.5,1.7-4.7,4.8-5c0.3,0,0.6-0.4,0.9-0.6
		c0.6-1.5,0.4-3,0.4-4.5c0.1-4.1-0.1-8.2,0.3-12.3c0.2-1.8-0.2-3.5-0.6-5.2c-1.4-5.5-2.2-11.2-2.8-16.9c-0.4-4.3-1.6-8.5-2.5-12.8
		c-0.7-3.5-1.4-7.1-1.9-10.6c-0.5-3.3-0.7-6.7,0.3-10c0.3-0.9-0.1-1.7-0.2-2.6c-0.7-7.4-1.2-14.9,0.4-22.2c0.9-3.7,1.5-7.5,2.4-11.3
		c0.4-1.8,0.1-3.7,0.6-5.6c-2.7-6.6-3.5-13.5-2.8-20.5c-0.9-0.6-1.6-0.3-2.3-0.1c-0.9,0.3-1.9,0.7-2.8,1c-1.2,0.4-2.2,0.8-3.6,0.3
		c-1.2-0.5-2.7,0.5-4-0.3c-0.6-0.6-0.7-1.3-0.6-2.1c0.2-2.2,0.5-4.4,0.6-6.7c0.1-4.6,0.2-9.2,0.2-13.8c0-7-0.1-13.9-0.6-20.9
		c-0.1-1.1,0-2.2-0.1-3.4c-0.1-5.5-0.2-10.9-0.2-16.4c0-2-0.1-4,0.1-6c0.6-5.7,0.5-11.4,0.5-17.1c0-0.7,0-1.5-0.1-2.2
		c-0.9-6.1-0.5-12.2-0.5-18.2c0-2.1,0.5-4.2,0.4-6.3c-0.1-3,0.2-5.9,0.3-8.9c0.1-2.5,0.5-4.9,0.7-7.3c0.8-0.5,1.4-0.9,2.2-1.4
		c0.4-2.4,1.6-4.5,2.8-6.6c0.9,0.2,0.6,0.8,0.4,1.1c-1.2,2.8-1.7,5.7-1.8,8.7c-0.1,2-0.5,3.9-0.9,5.9c-1.9,8.6-2.1,17.2-1.6,25.9
		c0.2,3.2,0.4,6.4,0,9.7c-0.1,0.6-0.1,1.2-0.1,1.8c0.9,8.6,0.4,17.1,0.3,25.7c0,4.3,0,8.7,0,13c0,0.3,0.1,0.7,0.3,1.2
		c1.1-0.9,1.4-2.2,1.7-3.3c1.1-3.9,3-7.6,3.6-11.7c0.1-0.4,0.1-0.8,0.3-1.1c1.9-2.5,2.4-5.7,3.6-8.5c0.4-0.9,0.8-1.8,1.2-2.9
		c0.6,1-0.1,1.8-0.3,2.5c-1,3.5-2,6.9-3.2,10.3c-1,2.7-1.4,5.5-1.4,8.4c0,3.4-0.1,6.9-0.4,10.3c-0.7-3.7,0-7.4-0.3-11.2
		c-1.1,0.6-1.1,1.6-1.4,2.3c-1,2.2-1.7,4.4-2.9,6.5c-0.8,1.4-1,2.7-1,4.3c-0.3,6.8-0.3,13.7-1,20.5c-0.4,4.6-0.2,9.2-0.3,13.8
		c0,0.6-0.1,1.2,0.5,2c2.3-0.2,4.7-0.3,7.1-1.1c2.3-0.7,4.5-1.3,6.8-1.9c4.3-1.3,8.8-1.6,13.2-1.9c5.3-0.4,10.7-0.6,16-1
		c1.9-0.1,3.7-0.5,5.5-0.7c4.6-0.5,9.1-1,13.7-1.4c1.2-0.1,2.5-0.3,3.6-0.9c0.9-1.2,0.5-2.5,0.3-3.9c-0.5-4.7-1-9.4-1.4-14.1
		c-0.3-3.3-0.6-6.7-0.5-10c0.1-5.1,0.4-10.2,1.6-15.2c0.7-2.9,1.2-5.8,1.8-8.7c1.6-7.1,1.4-14.3,0.5-21.5c-0.2-1.6-0.4-3.2-0.5-4.2
		c0.2-1.5,1.4-1.3,1.5-2.2c0.2-1.7,0-3.4-0.3-5.1c-0.5-2.4-0.7-4.9-0.5-7.4c0.5-6,0.7-11.9,0.1-17.9c0-0.5,0-1,0.1-1.5l-0.1,0.1
		c1.2,1.5,1.4,3.4,1.4,5.1c0.1,4.4,0.5,8.9-0.3,13.3c-0.4,1.9-0.3,3.9,0.1,5.9c0.3,1.6,0.5,3.2,0.8,4.8c0.3,1.7,0.4,3.5-0.1,5.2
		c-0.7,2.7-0.5,5.4-0.1,8.1c1,5.5,1,11.1-0.2,16.6C618,451,618,453.4,618.6,455.7L618.6,455.7z M552.9,666.3c-2.6,2-5.5,2.3-8.6,2.1
		c-1.8,2.2-4.3,3.8-4.2,7.1c2.8,2.1,5.2,4.4,7.6,6.7c2.6,2.5,5.6,4.1,9.2,4.2c1.8,0.1,3.4,0.7,4.9,1.5c2.1,1.1,4.2,2.2,6.4,3.1
		c7.1,2.7,7.1,2.6,15.2,2.6c2,0,4-0.2,5.8-0.9c0.2-0.1,0.5-0.1,0.7-0.1c0.4,0.2,0.9,0.5,1.3,0.7c1.6-0.2,3.1-0.5,4.6-1.1
		c0.6-0.2,1.2-0.4,1.6-1.1c0.6-2.9-0.7-5.6-1.9-8.1c-1.9-4.2-2.6-8.5-2.5-13c0.1-2.1-0.2-4.2-1-6.2c-0.6-1.5-0.8-3.1-1.2-4.7
		c-0.2-0.7-0.3-1.5-1.2-2c-2.6,0.3-5.4,0.6-8,0.9c-1.3,1.9-1.1,4.3-2.6,6.2c-1.8,0.7-3.5,1.9-5.5,2.3c-1-0.2-1.7-0.7-2.3-1.4
		c-1.4-1.6-2.8-3.2-3.5-5.2c-0.6-1.8-1.5-3.4-2.8-4.6c-0.4-2.2,1-4.2,0.7-6.2c-0.6-0.4-1-0.3-1.7,0.2c-0.8,2.3-1.4,5-2.8,7.3
		C556.8,658.2,555,662.2,552.9,666.3z"/>
	<path d="M612,439.7c0.7,2.4,0.8,4.8,0.4,7.3c-1.1,7.2-2,14.5-3.6,21.7c-1.4,6.2-2.8,12.3-4.2,18.5c-0.8,3.5-1.4,6.9-2.2,11.2
		c-0.5-4.6,0-8.3,0.7-11.9c1-5.2,2-10.5,3.5-15.6c2.4-8.7,3.7-17.7,5.1-26.7C611.8,442.6,611.8,441.1,612,439.7z"/>
	<path d="M634.2,491.6c-1.1-0.3-1.1-1.3-1.3-2c-1.9-6.4-4.4-12.7-5.6-19.3c-0.8-4.3-1.4-8.6-2-12.9c-1-7.8-2.7-15.4-4.3-23
		c-0.2-1.1-0.6-2.1,0-3.4c1.3,3.5,1.8,7,2.6,10.5c2,8.7,3.4,17.5,4.6,26.4c0.5,3.6,1.5,7,2.5,10.5c1,3.6,2,7.2,3.1,10.7
		C634.1,489.9,634.3,490.7,634.2,491.6L634.2,491.6z"/>
	<path d="M656.5,207.9c2.3-2.3,3.1-5.4,5.1-8.4c0,3.6-1,6.4-2.6,8.9c-0.9,1.3-1.8,2.6-2.2,4.3c-0.3,1.3-1.2,2.4-1.7,3.3
		c-0.6,0.2-0.8,0.1-0.8-0.2c0.2-3-0.6-5.6-2.9-7.7c-0.8-0.7-1.3-1.8-2.1-2.7c-2.9-1.6-6-3.3-8.9-4.9c0-0.9,0.5-0.9,1-0.7
		c1,0.4,2,0.9,3,1.4c2.8,1.5,5.5,3.4,8.5,4.6C654.1,206.3,655.2,207.1,656.5,207.9z"/>
	<path d="M618.5,455.8c1.3,2.3,1.5,5,2,7.5c2.2,9.9,2.9,19.9,2.5,29.9c0,0.6,0,1.2,0,1.9c0,0.6,0,1.2,0,1.9c-1-0.2-0.8-0.9-0.9-1.3
		c-0.9-4.4-0.7-8.9-0.8-13.3c-0.1-6.1-1-12.1-1.7-18.1C619.3,461.4,618.3,458.6,618.5,455.8L618.5,455.8z"/>
	<path d="M619.3,365.6c-0.4,0-0.6-0.3-0.8-0.7c-0.4-1-0.8-2-1.3-3.5c-0.3,5.1,0.1,9.7,0.8,14.2c0.4,2.3,0.3,4.7,0.2,7
		c-0.3-5.7-2-11.3-2-17.1c0-2.6-0.7-5.1-1-7.7c-0.1-0.8-0.4-1.7-0.2-2.6c0.6-0.7,1.1-0.1,1.9,0.1
		C617.9,358.7,619.4,361.9,619.3,365.6L619.3,365.6z"/>
	<path d="M557.4,369.3c0.4,0.3,0.7,0.7,1.1,1c-0.7,6-0.1,12.1-0.5,18.1c-0.1,1.9-0.3,3.7-0.4,5.5c0,0.5-0.1,1-0.6,1.3
		c-0.8-0.1-0.9-0.7-0.9-1.3c0.1-2.5,0.2-4.9,0.3-7.4c0.1-1.7,0.2-3.5,0.2-5.2C556.6,377.3,556.9,373.3,557.4,369.3L557.4,369.3z"/>
	<path d="M637.2,443.1c-0.8,0-1-0.7-1.3-1.2c-3.3-6.4-6.4-12.8-8.8-19.5c-0.4-1-0.8-2.1-0.4-3.1c0.2-0.3,0.5-0.3,0.6,0
		c2.5,7,6,13.5,8.7,20.4C636.5,440.8,637.3,441.9,637.2,443.1L637.2,443.1z"/>
	<path d="M600,461.1c0.8,3.7,0.1,7.3-0.6,10.9c-0.6,3.1-1.9,5.9-3.7,8.4c-1.5,2.2-3.5,3.8-5.9,5c-0.2,0.1-0.5,0-0.7-0.1
		c0-0.6,0.5-0.7,0.8-1c5.8-4.1,8.3-10,9.2-16.7C599.4,465.5,599.7,463.3,600,461.1z"/>
	<path d="M609.9,289c-0.3-4.7-0.6-9.3-0.9-14c0-0.2,0.2-0.5,0.3-0.7c0.6-0.2,0.9,0.1,1.1,0.6c0.8,1.9,1,3.9,0.8,5.8
		C610.8,283.5,610.2,286.2,609.9,289z"/>
	<path d="M555.9,506.6c-0.8-0.5-0.9-0.5-0.9-0.6c-0.3-7.8,0.1-15.5,0.5-23.2C556,490.5,555.9,498.3,555.9,506.6z"/>
	<path d="M588.2,369.4c-0.4-5.2-0.3-10.1-0.1-15c0.8,0,1.1,0.3,1.2,0.8c0.1,2.5,0.2,5-0.2,7.4C588.8,364.8,588.5,367,588.2,369.4z"
		/>
	<path d="M608.9,258c-0.5,4.4,0,8.7-0.2,13c0,0-0.1,0.1-0.3,0.2c-1.2-3.8-1-7.6-0.7-11.4C607.7,259.2,607.7,258.3,608.9,258z"/>
	<path d="M595.4,596.7c-1.2,0.8-1.7,2-2.4,3.2c-0.4,0.6-0.8,1.3-1.8,1.1c-0.3-1,0.8-1.4,1.1-2.1c0.4-0.8,0.8-1.5,1.1-2.3
		c0.3-0.7,0.6-1.3,0.8-2c0.3-0.8,0.4-1.7,0.7-2.5c0.2-0.8,0.4-1.6,0.6-2.4c0.7,0.1,1,0.5,0.9,1c-0.1,0.9-0.2,1.7-0.4,2.5
		c-0.2,1.2-0.5,2.4-0.7,3.6L595.4,596.7z"/>
	<path d="M579.1,364.8c0.1-3.9,0.2-7,1.1-10c0-0.2,0.4-0.3,0.6-0.4c0.9,0.2,1.2,0.8,1.1,1.6c-0.1,1.6-0.5,3.2-1.1,4.7
		C580.4,361.9,579.9,363,579.1,364.8z"/>
	<path d="M577.4,235.3c0.1,0,0.3-0.1,0.4-0.1c3.2,0.8,6.6,0.8,9.9,1.1c0.3,0,0.6,0.3,0.9,0.4c0.1,0.9-0.6,1.2-1.2,1.2
		c-2.5,0-4.9-0.2-7.3-0.8c-1.1-0.3-2-0.9-2.6-1.9L577.4,235.3z"/>
	<path d="M594.2,523.7c2,3.5,2.8,7.8,2.4,13.4c-0.7-2.9-1.1-5.1-1.6-7.2C593.8,525,593.7,525,594.2,523.7z"/>
	<path d="M581.8,593.8c0.3,3.5-0.5,6.8-2.3,9.6c-0.8,0-1.2-0.2-1.1-0.8C579.3,599.6,580.3,596.6,581.8,593.8z"/>
	<path d="M625.1,232.8c2.4,0.4,3.2,2.2,4.7,2.9c1.5,0.6,3,1.1,4.7,1.3c-1.5,1.6-3.1,0.9-4.6,0.5C627.6,236.8,626.8,236,625.1,232.8z
		"/>
	<path d="M554.4,423c0.3,1.9-1.1,3.5-0.8,5c-0.5,0.8-1,0.9-1.5,0.9l0.1,0.1c0.2-2.1,0.5-4.1,0.6-6.2c0.1-1.9,0.1-3.8,0.8-5.6
		c0,1.3,0.1,2.7,0.1,4C553.7,421.9,553.7,422.6,554.4,423L554.4,423z"/>
	<path d="M600.3,365.1c-0.7-3-0.2-8.6,0.9-11.8c0.7-0.1,0.8,0.4,0.9,0.8c0,0.4,0,0.7-0.1,1.1C601.3,358.5,600.6,361.7,600.3,365.1z"
		/>
	<path d="M631.9,364.4c-0.5-1.9-1-3.8-1.6-5.6c-0.6-1.7-1.8-3.2-2.9-4.6c0.5-0.7,1-0.6,1.4-0.3c1.3,1,2,2.4,2.4,4.1
		c0.4,2,0.8,4.1,1.1,6.1C632.2,364.3,632.1,364.4,631.9,364.4z"/>
	<path d="M633.2,305.7c-0.1-1.6,0.4-2.5,0.5-3.4c0.2-1,0.4-1.9,0.5-2.9c0.2-0.8,0.3-1.7,0.4-2.5c0.2-0.9-0.5-1.9,0-2.9
		c1.2,1.4,1.1,3.1,0.8,4.6C635.1,300.8,635,303.2,633.2,305.7z"/>
	<path d="M610,303.6c-0.7-2.8-1.8-5.8-0.4-8.7c0.6,0,1,0.3,0.9,0.6C610.1,298.1,610.3,300.8,610,303.6z"/>
	<path d="M593.1,519.3c-2-0.9-1.7-2.6-1.8-3.9c-0.1-1.4,0.6-2.8,0.7-4.3C592.3,513.7,593.5,516.2,593.1,519.3z"/>
	<path d="M651.6,118.8c-2.3,1.7-3.8,1.9-7.6,1.3C646.4,118.8,648.7,118.7,651.6,118.8z"/>
	<path d="M664.7,186c2,1.5,2.6,3.3,1.8,5.5c0,0.1-0.2,0.1-0.3,0.1c-0.2-0.1-0.5-0.2-0.5-0.4C665.4,189.5,665.1,187.7,664.7,186
		L664.7,186z"/>
	<path d="M579.7,295.2c-0.9-0.5-0.7-1.3-0.7-2c0-2.1-0.2-4.1,0.5-6.9c0.6,1.7,0.2,2.6,0.3,3.6c0,0.9,0.1,1.7,0,2.6
		C579.7,293.3,580.3,294.3,579.7,295.2z"/>
	<path d="M579.6,240.1c1.3,2.4-0.1,3.7-1.6,5c-0.1-0.4-0.3-0.6-0.2-0.8C578.4,242.9,579,241.5,579.6,240.1z"/>
	<path d="M609.5,155.4c-1.2,1.9-2.6,3.7-4.7,4.8c-0.4,0.2-0.9,0.4-1.4,0.3l0.1,0.1c0.8-0.9,1.7-1.8,2.4-2.8
		C606.8,156.5,608.1,155.8,609.5,155.4L609.5,155.4z"/>
	<path d="M611.1,310c1.4,4,1.4,4,0.5,6.6c-0.6-1.2-0.2-2.3-0.4-3.4C611,312.2,611.1,311,611.1,310z"/>
	<path d="M611.1,363.2c0-2.7,0-5.4,0-8.1c0-0.2,0.2-0.4,0.4-1C612.1,357.4,611.7,360.3,611.1,363.2z"/>
	<path d="M573,357.4c0.3,1.9-0.1,3.6-1,5.2C571.6,360.4,571.6,360.4,573,357.4z"/>
	<path d="M641.1,346.3c0.7,1.3,0.5,2.5,0.4,3.7c-1.2-1.1-1.3-1.1-1.3-1.7C640.2,347.6,639.9,346.8,641.1,346.3z"/>
	<path d="M634.9,123.7c0.9-1,1.8-2,3.6-1.7C637.5,123.3,636.3,123.7,634.9,123.7z"/>
	<path d="M619.3,345.5c0,1.3,0,2.6,0,4c-1.6-1.4-1.6-1.4-1-3.8c0.3,0,0.7-0.1,1.1-0.1L619.3,345.5z"/>
	<path d="M554.8,403.7c0.4,1.7-0.6,3.2-0.6,4.9C553.8,406.3,553.8,406.3,554.8,403.7z"/>
	<path d="M646.9,250.5c-2.9-1.4-2.9-1.4-3-3.5C645.3,247.9,646.2,248.9,646.9,250.5z"/>
	<path d="M601.8,196.5c-0.2-0.4-0.1-0.7,0.1-1c0.4-0.6,0.8-1.2,1.4-1.9C603.5,196.1,603.4,196.3,601.8,196.5z"/>
	<path d="M636.8,350.1c-1.3-1-1.2-2.4-1.3-3.6C637.1,347.8,637.1,347.8,636.8,350.1z"/>
	<path d="M579,344.8c1.6,1.2,1.3,3,1.4,5c-1.5-1.7-1.5-3.4-1.3-5.1L579,344.8z"/>
	<path d="M655.8,135.3c0.4,1.9-0.5,3.1-1.8,4.3c-0.5-0.4-0.5-0.8-0.3-1.1C654.3,137.4,654.5,135.9,655.8,135.3L655.8,135.3z"/>
	<path d="M554.9,436.6c0,1.4,0,2.8,0,4.1c-0.1,0-0.1,0-0.2,0c0-1.4,0-2.8,0-4.1C554.8,436.6,554.8,436.6,554.9,436.6z"/>
	<path d="M616.7,350.4c-0.4-1.5-0.6-2.5-0.8-3.4c0.8-0.6,1,0,1.1,0.4C617.2,348.1,617.3,349,616.7,350.4z"/>
	<path d="M622.2,216c1.6,0.3,2.6,0.5,3.5,1.7C624.4,217.6,623.4,217.3,622.2,216z"/>
	<path d="M658.8,448.4c0-1.7,0.9-2.8,2.2-3.7l-0.1-0.1C660.8,446.2,660,447.4,658.8,448.4L658.8,448.4z"/>
	<path d="M635.8,238.6c1.1-1.5,1.2-1.5,2.6-0.2C637.5,238.9,636.8,239.2,635.8,238.6z"/>
	<path d="M583.1,348.8c-0.8-0.7-1-1.5-0.9-2.6c0.2,0,0.5,0,0.6,0.1C583.6,347.1,583.6,347.9,583.1,348.8z"/>
	<path d="M643.9,345.5c0.1,0.3,0.4,0.6,0.4,0.9c-0.1,1.2-0.3,2.4-0.4,3.6l0.1-0.1c-0.2-0.2-0.6-0.5-0.6-0.8
		c-0.2-1.3-0.1-2.6,0.7-3.8L643.9,345.5z"/>
	<path d="M612.7,349.4c-0.2-1-0.5-2-0.7-3.2C613.1,347.1,613.1,347.1,612.7,349.4z"/>
	<path d="M584,580.5c0-1.4,0-1.4,0.6-2.4C584.7,579.6,584.7,579.6,584,580.5z"/>
	<path d="M610.6,151.6c-0.6-1.7,0.1-2.5,1-3.2c0.1,0.1,0.3,0.2,0.3,0.2C611.5,149.5,611.1,150.4,610.6,151.6z"/>
	<path d="M581.2,556.5c1.3,0.5,1.6,1.5,1.3,2.9C581.5,558.5,581,557.6,581.2,556.5L581.2,556.5z"/>
	<path d="M604.7,188.4c0.2,1.4-0.2,2-1,2.4C603.7,189.6,603.7,189.6,604.7,188.4z"/>
	<path d="M554.7,476.7c0.2,1,0.4,1.9,0.2,2.9C554.3,478.7,554.5,477.7,554.7,476.7z"/>
	<path d="M610.3,154.6c0.8-0.9,1.8-1.1,3.2-1.2C612.5,154.5,611.5,154.9,610.3,154.6L610.3,154.6z"/>
	<path d="M639.1,369.5c0,0.6,0,1.1,0,1.7c-0.5-0.1-0.2-0.5-0.2-0.7c0-0.3,0.1-0.7,0.1-1C639,369.5,639.1,369.5,639.1,369.5z"/>
	<path d="M653.4,198.4c-0.5-0.6-0.6-1.1-0.1-1.6C653.9,197.3,654.3,197.8,653.4,198.4z"/>
	<path d="M602.8,345.8c0.6,0.2,0.7,0.7,0.5,1.2c-0.1,0.3-0.3,0.4-0.6,0.2c-0.3-0.2-0.5-0.6-0.4-1C602.4,346.1,602.6,346,602.8,345.8
		z"/>
	<path d="M662.8,457.8c0.6,1.1,0.2,1.7-0.7,2.2C661.5,458.9,662.7,458.5,662.8,457.8z"/>
	<path d="M658.8,448.4c-0.1,1-0.6,1.8-1.5,2.2l0.1,0.1C657.4,449.6,657.7,448.8,658.8,448.4L658.8,448.4z"/>
	<path d="M583,584.9c0.5,0.6,0.6,1.1,0.1,1.7C582.3,586,582.9,585.4,583,584.9z"/>
	<path d="M589.2,603.1c0,0.4,0,0.5,0,0.6c-0.2,0.4-0.4,0.8-1,0.8c-0.1,0-0.2-0.2-0.2-0.3c-0.1-0.5,0.1-0.9,0.6-1.1
		C588.8,603.1,588.9,603.1,589.2,603.1z"/>
	<path d="M660.5,181c1.1,0.3,1.6,0.7,1,1.6C660.8,182.5,660.6,182,660.5,181z"/>
	<path d="M596.6,196.9c-0.6-0.7-0.5-1.4,0-2.1C597.3,195.5,597.3,196.2,596.6,196.9z"/>
	<path d="M613,322.4c0,0.2,0,0.4,0,0.7C612.6,322.9,612.9,322.7,613,322.4z"/>
	<path d="M583.7,571.3c0.5,0.3,0.5,0.7,0.2,1.2C583.4,572.2,583.2,571.8,583.7,571.3z"/>
	<path d="M633.8,289.2c-0.4-0.4-0.3-0.8,0-1.2C634.2,288.4,634.2,288.8,633.8,289.2z"/>
	<path d="M554,430.6c0,0.1,0,0.3,0.1,0.5C553.7,431,554.1,430.7,554,430.6z"/>
	<path d="M634.2,491.6c0.7,0.3,0.5,0.9,0.7,1.8C634.1,492.7,634.2,492.1,634.2,491.6L634.2,491.6z"/>
	<path d="M599.6,203.8c-0.5-1.2-0.2-1.4,0.9-1C600.2,203.2,600,203.5,599.6,203.8z"/>
	<path d="M617.1,389.5c-0.6-0.2-0.8-0.5-0.1-1.1C617,388.9,617,389.2,617.1,389.5L617.1,389.5z"/>
	<path d="M578.1,383.6c-0.1,0-0.2,0.1-0.2,0c-0.1-0.1-0.1-0.2-0.1-0.3c0.1-0.3,0.2-0.3,0.3-0.1C578.1,383.4,578.1,383.5,578.1,383.6
		z"/>
	<path d="M619.3,365.6c0.1,0.2,0.2,0.4,0.4,0.6C619.1,366.2,619.5,365.7,619.3,365.6L619.3,365.6z"/>
	<path d="M555.5,420.2c0-0.1,0-0.2,0-0.3c0,0,0.1-0.1,0.1-0.1c0,0.1,0,0.2,0,0.3C555.6,420.2,555.5,420.2,555.5,420.2z"/>
	<path d="M655.8,135.4c0.1-0.2,0.1-0.4,0.2-0.7C656.3,135,655.8,135.1,655.8,135.4L655.8,135.4z"/>
	<path d="M586.4,345.5c0.4,0.1,0.6,0.3,0.4,0.8C586.4,346.1,586.5,345.8,586.4,345.5L586.4,345.5z"/>
	<path d="M554.5,423.1c0-0.3,0.1-0.7,0.1-1.1C555.2,422.6,554.8,422.8,554.5,423.1L554.5,423.1z"/>
	<path d="M551.4,430.5c0.1-0.6,0-1.2,0.7-1.5l-0.1-0.1C552.2,429.6,552.2,430.2,551.4,430.5L551.4,430.5z"/>
	<polygon points="605.4,185.3 605.4,185.1 605.5,185.1 	"/>
	<path d="M639,198.3c-0.3,0.3-0.5,0.3-0.8,0c0,0,0.2-0.2,0.2-0.2C638.6,198.1,638.8,198.2,639,198.3z"/>
	<path d="M599.5,170.9c0.1,0,0.2,0.1,0.2,0.1c0,0.1-0.1,0.2-0.1,0.3c-0.1,0-0.2-0.1-0.2-0.1C599.4,171.2,599.4,171,599.5,170.9z"/>
	<path d="M614.7,214.3c0.2,0.1,0.5,0.1,0.7,0.2C615,214.8,615,214.3,614.7,214.3L614.7,214.3z"/>
	<path d="M661.7,443.1c0.1,0.6,0.1,1.3-0.7,1.5l0.1,0.1C661,444.1,661.2,443.5,661.7,443.1L661.7,443.1z"/>
	<path d="M637.9,444.6c-0.6-0.3-0.7-0.9-0.7-1.5l-0.1,0.1C637.9,443.5,637.7,444.1,637.9,444.6L637.9,444.6z"/>
	<path d="M634.1,283.6c0,0.3-0.1,0.6-0.1,1C633.6,284.1,634,283.9,634.1,283.6L634.1,283.6z"/>
	<path d="M664.7,436.4c-0.1,0.3-0.1,0.6-0.2,1C664.2,436.8,664.6,436.7,664.7,436.4L664.7,436.4z"/>
	<path d="M662.4,441.7c0,0.6,0.2,1.3-0.8,1.5l0.1,0.1C661.8,442.6,662,442.1,662.4,441.7L662.4,441.7z"/>
	<path d="M662.5,441.7c0.1-0.6,0.2-1.2,0.8-1.4l-0.1-0.1C663.1,440.8,663.3,441.5,662.5,441.7L662.5,441.7z"/>
	<path d="M663.3,440.3c0-0.3,0.1-0.6,0.2-1C664,439.8,663.5,440,663.3,440.3L663.3,440.3z"/>
	<path d="M581.3,556.5c-0.2-0.1-0.3-0.1-0.5-0.2C581.3,555.8,581.1,556.3,581.3,556.5L581.3,556.5z"/>
	<path d="M551.4,430.4c0,0.1,0,0.2-0.1,0.3C551.4,430.6,551.4,430.6,551.4,430.4L551.4,430.4z"/>
	<path d="M657.3,450.6c0,0.1-0.1,0.3-0.1,0.3C656.9,450.9,657,450.8,657.3,450.6L657.3,450.6z"/>
	<polygon points="637.8,444.7 638,444.8 637.9,444.6 	"/>
	<path d="M610.3,154.5c-0.3,0.3-0.5,0.6-0.8,0.9l0.1,0.1C609.8,155.2,610.1,154.9,610.3,154.5L610.3,154.5z"/>
	<path d="M629.6,127c0,0.1,0,0.2,0,0.2C629.6,127.2,629.7,127.1,629.6,127L629.6,127z"/>
	<path d="M629.7,127.1c0.1-0.2,0.2-0.3,0.3-0.5C630.3,127.2,629.8,127,629.7,127.1L629.7,127.1z"/>
	<path d="M632.6,120.3c-0.1,0.1-0.2,0.2-0.3,0.3c0-0.1,0-0.2,0.1-0.2C632.5,120.4,632.6,120.4,632.6,120.3L632.6,120.3z"/>
	<path d="M632.7,120.4c0.1-0.2,0.1-0.4,0.2-0.5C633.4,120.4,632.8,120.2,632.7,120.4L632.7,120.4z"/>
	<polygon points="578.7,365.9 578.7,366.1 578.6,366 	"/>
	<path d="M643.8,350c0.3,0,0.4,0.1,0.3,0.3c0,0-0.2,0-0.2,0C643.9,350.2,643.9,350.1,643.8,350L643.8,350z"/>
	<path d="M608.8,349.3c0.1,0.1,0.2,0.2,0.4,0.3c-0.1,0-0.2,0-0.2-0.1C608.9,349.4,608.9,349.3,608.8,349.3L608.8,349.3z"/>
	<polygon points="634.2,283.7 634.3,283.5 634.1,283.6 	"/>
	<polygon points="650.6,253.1 650.7,253.2 650.7,253 	"/>
	<polygon points="650.7,253 650.5,253 650.6,253.1 	"/>
	<path d="M635.7,174.8c0.1-0.1,0.2-0.2,0.4-0.3c0,0.1-0.1,0.2-0.1,0.2C635.8,174.7,635.7,174.7,635.7,174.8L635.7,174.8z"/>
	<path d="M664.8,185.9c-0.3,0.1-0.6-0.2-0.5-0.3C664.8,185.2,664.7,185.7,664.8,185.9L664.8,185.9z"/>
	<polygon points="653.2,193.6 653.3,193.8 653.1,193.8 	"/>
	<path d="M611.8,201.7c0.1-0.1,0.2-0.2,0.3-0.3c0,0.1,0,0.2-0.1,0.2C612,201.6,611.9,201.6,611.8,201.7L611.8,201.7z"/>
	<path d="M620,215c-0.1-0.1-0.3-0.2-0.4-0.3c0.1,0,0.2,0,0.2,0C619.9,214.8,619.9,215,620,215L620,215z"/>
	<path d="M620,215.1c0.1,0.1,0.2,0.2,0.4,0.3c-0.1,0-0.2,0-0.2-0.1C620.1,215.2,620.1,215.1,620,215.1L620,215.1z"/>
	<polygon points="589.8,216 589.9,216.2 589.7,216.2 	"/>
	<path fill="none" d="M549.8,143.4c0.8,2.5,2.6,4.1,4.6,5.6c3.6,2.6,6,6.2,8.6,9.7c0.8,1,1.2,2.2,1.1,3.5c0,0.9,0,1.7,0,2.6
		c-0.1,2.4-0.1,4.7,1.3,6.8c0.4,3.3,2.4,5.5,4.9,7.6c3.4,2.9,5.8,6.8,8.5,10.3c0.4,0.6,0.7,1.3,0.9,1.9c-0.2,1-0.8,1.4-1.6,1.5
		c-5,0.1-8.5,2.9-11.7,6.4c-1,1.1-1.9,2.3-1.5,4c-0.3,0.2-0.6,0.4-0.4,0.9c0.1-0.4,0.2-0.7,0.3-1c1-0.2,1.2-1.2,1.8-1.8
		c2.3-2.5,4.7-4.8,7.9-6.1c1.5-0.6,3-1.2,4.8-0.6c0.8,2.4,0.9,5,0.5,7.6c-1.3,10.1-3.2,20.1-6.4,29.8c-2.4,7.2-5.2,14.2-8.4,21.1
		c-1.5,3.1-3.2,6.2-5.2,9c-1.7,2.4-3.7,4.3-6,5.8c-1.1-0.2-1.4-0.9-1.7-1.6c-0.3-0.7-0.6-1.4-0.8-2.1c-1.5-4.7-3-9.5-4.5-14.2
		c-0.4-1.3-0.7-2.6-0.2-4c0.4-1,0.1-2,0-2.9c-0.6-4.2-1.2-8.4-1.9-12.5c-0.7-4.4-0.9-8.9-1-13.4c-0.1-4.1-1.4-7.7-3.3-11.3
		c-3-5.6-6.5-10.8-10.5-15.7c-2.8-3.4-4.2-7.6-5.9-11.6c-1-2.4-1.8-4.9-2.7-7.3c-0.6-1.6-1.1-3.3-1.4-5c-0.1-1.1-0.4-2.2-0.9-3.2
		c-0.9-1.7-1.2-3.5-1.4-5.4c-0.6-5-1.2-10.1-1.8-15.2c-0.1-0.7-0.2-1.5,0-2.2c1-3.4,0.9-6.8,1.2-10.3c0.3-4.1,0.7-8.2,1-12
		c0.9-2,2.6-2.5,4.4-2.8c2.3-0.3,4.7-0.6,7-1c3.2-0.5,6.3-1.3,9.4-2.2c1.3-0.4,2.6-0.9,4-0.8c0.9,0.1,1.6-0.5,2.4-0.8
		c2.8-1,5.6-1.9,8.5-2.8c1.9-0.6,3.8-0.8,5.9-0.2c0.7,0.2,1.5,0.1,2.2,0c3.5-0.5,6.9-0.3,10.4,0c3,0.2,5.9,0.4,8.9,0.6
		c5.6,0.4,11.2,0.5,16.7,0.5c1.7,0,3.5,0,5.2-0.4c1-0.2,2-0.4,3-0.3c4.6,0.4,8.8-1.4,12.8-3.2c1.8-0.8,3.5-1.9,5.2-2.8
		c1.5-0.8,3-1.8,4.9-1.4l-0.1-0.1c0,0.4,0.1,0.7,0.2,1.3c2,0.7,4.3,0.4,6.4,0.6c2.1,0.2,4.2,0.2,6.5,0.3c1.8,2.2,4.3,3.8,6.7,5.5
		c-0.5,0.8-1.1,0.3-1.6,0.2c-1.7-0.6-3.5-1.3-5.4-2c-2.6,0.7-5.4,0.8-8.2,0.8l0.1,0.1c-0.7-0.9-1.7-1-2.7-0.6
		c-0.1,0.3-0.2,0.7-0.2,1c-1.8,0.9-3.9,0.6-5.8,0.9c-1.8,0.3-3.7-0.2-5.3,1.1c0.7,0.6,1.5,0.4,2.1,0.2c3-0.7,6.1-0.2,9.2-0.6
		c1-0.1,2-0.1,2.7,0.9c-0.4,0-1,0-1.1,0.5c-0.1,0.3,0.2,0.7,0.7,0.7c0.1-0.4,0.2-0.8,0.3-1.3c2.6,0.9,5.4,0.9,8.1,0.9
		c1,0.9,1.8,1.8,1.5,3.1c-0.5,0.8-1.2,1-2,1c-1.7,0-3.5,0.2-5.2,0c-2.8-0.4-5.5,0.1-7.9,1.4c-2.7,1.5-5.7,2.5-8.1,4.4
		c-0.9,0.7-2,0.9-3.2,0.9c-2.5,0.1-5,0.1-7.3-0.9c-0.6-0.2-1.2-0.4-1.6-0.5c-1.2,0.1-2.2,1.2-3.3,0.2c-1.9,0-3.7-0.1-5.6,0.2
		c-6.1,0.9-12.2,2-18.2,3.8c-2.6,0.8-5.1,1.8-7.5,3.1c-1.1,0.6-2.2,1.2-3.3,1.6c-6.5,2-12,5.9-17.8,9.2c-1.3,0.7-2.3,1.8-3.4,2.7
		c-0.2,1.3,0.1,2.1,1.2,2.5L549.8,143.4z M548.4,220.2c0.1,0.1,0.1,0.1,0.2,0.2C548.5,220.4,548.4,220.3,548.4,220.2
		c-0.1,0-0.2-0.1-0.3-0.1C548.3,220.1,548.3,220.2,548.4,220.2z M571.5,201.6c1.8-0.5,2.4-2.3,3.8-3.5c-1.6-0.2-1.6-0.2-1.9,0
		C572.5,199.1,571.7,200.2,571.5,201.6c-0.5,0.2-0.9,0.5-0.8,1.2C571.5,202.7,571.5,202.2,571.5,201.6z M535.8,121.9
		c-0.8-0.3-1.6-0.6-2.4-0.9c-1.4,1.1-2.7,2.2-4.1,3.3c-0.3,0.2-0.5,0.5-0.8,0.8c-1.3,1.7-1.1,3.4,0.6,4.9c0.3,0.2,0.6,0.4,1,0.6
		c0.4,0.2,0.7,0.1,1-0.2c-0.3-0.9-1.1-1.7-1-3.1c0.3-1.3,1.2-2.6,2.2-3.7c0.9-0.2,1.6-0.2,2.3-0.5
		C535.2,123,535.8,122.6,535.8,121.9c0.3,0,0.6,0,0.7-0.4C536.1,121.3,535.9,121.5,535.8,121.9z M526.7,167.8
		c-0.6,0.2-0.8,0.2-0.8,0.3c-1.1,2.5-0.9,5,0.1,7.5c0.1,0.3,0.5,0.5,1.2,0.2C527.9,173.3,526.7,170.7,526.7,167.8z M523.5,131.4
		c-0.1-2.4-0.2-4.6-0.8-6.8c0-0.1-0.4-0.1-0.7-0.2c-0.8,1.5-0.7,3-0.3,4.6C521.8,129.9,522.1,130.9,523.5,131.4z M539,199.4
		c0.8-1.5,0.5-3.1,0.3-4.6c-0.1-0.5-0.4-0.9-1-0.6C537.6,198,537.6,198.2,539,199.4z M548.7,161.4c-0.3,1.8-0.5,3-0.6,4.2
		c0,0.4,0.2,0.7,0.8,0.7C550.3,164.9,550.1,163.4,548.7,161.4z M603.9,117.3c-1.8-1-3.1,0.1-4.8,1.3
		C601.1,118.9,602.5,118.4,603.9,117.3z M560.2,200.3c-0.5-1.5-1.4-2.3-3.3-3.1C557.8,199,558.6,200,560.2,200.3z M555.3,229
		c-1-1.1-1.7-2-3-2.5C553.1,229.3,553.5,229.6,555.3,229z M539.3,191.7c1-0.7,1.2-1.5,0.7-2.6C539.1,189.8,538.7,190.5,539.3,191.7z
		 M607.3,118.2c0.8-0.7,1.4-1.2,1-2C606.8,117,606.8,117,607.3,118.2z M547.4,114.7c-1.3,0.7-1.3,0.7-1.4,1.5
		C546.6,115.9,547.3,115.9,547.4,114.7z M619.7,116.8c0-0.4,0.1-0.8,0-1.1c-0.1-0.4-0.2-0.9-0.9-0.8
		C618.5,115.8,619.1,116.2,619.7,116.8z M523.5,133.4c-0.2,0.2-0.4,0.3-0.4,0.4c-0.1,0.6-0.7,1.2-0.1,1.9c0,0.1,0.2,0,0.3,0
		c0.7-0.5,0.6-1.2,0.5-1.9C523.7,133.7,523.6,133.6,523.5,133.4z M545.8,149.9c-0.1,0.1-0.2,0.2-0.2,0.3c-0.1,0.5-0.1,0.9,0.5,1.1
		c0.1,0,0.2,0,0.3-0.1c0.4-0.5,0.1-0.8-0.2-1.2C546.1,150,545.9,150,545.8,149.9z M542.1,118.8c-0.6-0.3-1.1,0-1.4,0.5
		C541.4,119.9,541.9,119.7,542.1,118.8z M541.7,185.9c-0.2-0.9,0.8-1.3-0.3-2.1C541,184.4,540.7,184.9,541.7,185.9z M527.2,165.9
		c0.5-0.4,0.6-0.8,0-1.3C526.8,165.1,526.9,165.5,527.2,165.9z M551.7,114.1c-0.1-0.1-0.2-0.1-0.2-0.1c-0.1,0-0.2,0-0.3,0.1
		c0.1,0.1,0.2,0.1,0.2,0.1C551.5,114.1,551.6,114.1,551.7,114.1z M528.1,161.4c-0.1-0.1-0.1-0.2-0.2-0.3c-0.1,0.1-0.2,0.1-0.2,0.2
		c-0.1,0.3,0,0.5,0.3,0.4C528.1,161.7,528.1,161.5,528.1,161.4z M527.4,157.5c-0.1-0.1-0.1-0.2-0.2-0.3c-0.1,0.1-0.2,0.2-0.2,0.3
		c0,0.3,0.1,0.4,0.3,0.3C527.4,157.8,527.4,157.6,527.4,157.5z M546.8,153.9l-0.1-0.3l-0.1,0.3L546.8,153.9z M550.5,222.9
		c-0.1-0.3-0.3-0.3-0.5,0c0,0,0.1,0.2,0.2,0.2C550.3,223.1,550.4,222.9,550.5,222.9z"/>
	<path fill="none" d="M549.9,143.5c0.2-0.6,0.3-1.2,0.5-1.8c5-2.5,9.8-5.4,14.5-8.3c0.2-0.1,0.4-0.3,0.7-0.3
		c3.4-0.3,5.6-2.8,8.4-4.2c1.7-0.8,3.4-1.6,5.1-2.3c0.4-0.2,1-0.1,1.7-0.2c-0.4,4.4-0.1,8.7,0.4,13.1c-1,1.1-1.5,2.6-1.3,4.3
		c0.3,2.3,0.1,4.7,0.7,6.9c-0.4,1.1-0.8,2.2-1.2,3.2c-0.8,2.4-0.5,4.7,0.9,6.7c0.8,1.2,1.6,2.5,2,4c0.2,1,0.9,1.8,1.6,2.4
		c0.9,0.8,1.8,1.7,2.6,2.4c0.6,1.4,0.7,2.6,0.7,3.8c0,3.2,0.4,6.4,0.1,9.7c-0.2,2.2,0.1,4.4,0.6,6.6c-0.9,1.6-2.8,1.8-3.6,3.3
		c-1.1-0.4-2-0.7-2.8-1c-0.9-0.9-1.2-2-1.6-3c-1.4-4.5-3.9-8.2-7.5-11.3c-2-1.8-3.9-3.8-5.8-5.6c0-2.4,0-4.6,0-6.8
		c-0.1-7.1-3.1-12.9-8.5-17.4c-2.4-2-4.9-3.8-8.1-4.2L549.9,143.5z"/>
	<path fill="none" d="M626,172.7c-0.9,4.6-0.5,8.3-0.4,11.9c0,0.8-0.3,1.4-0.5,2.1c-0.4,1.8-0.2,3.5,1.4,4.7c0.6,0.4,1.1,1,1.4,1.9
		c-0.7,3.4-2.4,6.5-4.5,9.7c-0.9-1.1-1.4-2.1-1.4-3.2c0-3.1-1.3-5.8-2.9-8.3c-0.4-3.1-0.5-6.2-1.9-9.3c-1.1-1-2.4-2.1-3.7-3.1
		c0.2-0.9,1.1-0.5,1.4-1c0.9-0.7,0.3-1.9,0.9-2.7c1.5,0.1,0.8,1.7,1.7,2.3c1.3-0.3,0.5-1.7,1.3-2.4c0.5-0.2,1.2-0.5,1.9-0.8
		c0.8,0.3,1.3,1.1,2.2,0.9C624.3,175.2,625,174.3,626,172.7z"/>
	<path fill="none" d="M599,212.9c-2.7-1.1-4.7-1.9-6.2-3.7c-2-2.4-4.1-4.6-5.7-7.3c-1.2-2-2.2-4.2-2.4-6.8c1.3-1.5,2.5-3.1,4.2-4.7
		c1.2,1.9,1.1,4,1.8,5.8c0.6,1.7,1.1,3.5,1.7,5.4c0.3,0.2,0.7,0.4,1.3,0.7c0.1,2,0.2,4.1,0.4,6.3C595.8,209.6,597.3,210.8,599,212.9
		z"/>
	<path fill="none" d="M628.3,184c-0.3-3.2-0.5-5.5-0.8-7.8c-0.3-2.3-0.6-4.6-0.9-7.3c0.5-1.4,1.7-2.9,1.8-5c0.8,1.2,1,2.3,1.1,3.4
		c0.2,1.5,0.5,2.9,0.7,4.4c0.2,1.9,0.7,3.6,1.9,5.1c0.3,0.4,0.4,0.8,0.7,1.4C631.5,179.9,630.2,181.6,628.3,184z"/>
	<path fill="none" d="M609.1,213.2c1.9,5.4,4.1,10.3,5.4,16c-0.1,0.6-0.4,1.5-0.7,2.6c-1.5-0.9-2.1-2.3-3.2-3.2
		c-0.6-3.7-1.2-7.3-1.8-11C608.5,216.2,608.8,214.9,609.1,213.2z"/>
	<path fill="none" d="M587.9,164.4c0.7-0.1,1.3,0.2,1.4,0.9c0.2,1.2,0.3,2.4,0.4,3.7c0.1,1-0.2,2,0.4,3.1c0.3,0.2,0.8,0.6,1.3,1
		c0.1,0.2,0.2,0.5,0.2,0.7c-0.2,1.6-0.4,3.2-0.6,4.8l0.1-0.1c-0.4,0.4-0.8,0.9-1.3,1.4c-0.3-0.3-0.7-0.6-0.8-0.9
		c-0.1-0.3-0.1-0.7-0.1-1.1c0.3-4.2,0.1-8.3-0.9-12.4C587.8,165.1,588,164.7,587.9,164.4L587.9,164.4z"/>
	<path fill="none" d="M581.6,152.6c0.5,0,0.9-0.1,1.2-0.1c0.4,0.4,0.7,0.9,0.5,1.3c-1.1,1.7-1.3,3.6-1.3,6.3
		C580.4,157.1,581.1,154.9,581.6,152.6z"/>
	<path fill="none" d="M610.2,128.6c-1.7-1.5-1.3-3.3-0.7-4.8c0.7-0.6,1.2-0.4,1.6-0.2c0.4,0.2,0.8,0.4,1.2,0.7
		c-0.3,1.1-1.7,0.6-2,1.8C610.3,126.7,610.2,127.7,610.2,128.6L610.2,128.6z"/>
	<path fill="none" d="M588,133.1c0-0.8,0.5-1.3,1-1.9c1-1.3,2.2-1.4,3.5-0.7c0.1,0.6-0.1,1.1-0.6,1C590.2,131.2,589.4,133,588,133.1
		L588,133.1z"/>
	<path fill="none" d="M585.2,163.2c-1.8-0.9-1.4-2.6-1.8-3.9C585.4,161,585.4,161,585.2,163.2z"/>
	<path fill="none" d="M595.8,147.5c-0.6-1.9,0.1-3.2,0.9-5.4c-0.1,1.3-0.1,1.8-0.1,2.3C596.4,145.3,596.1,146.3,595.8,147.5z"/>
	<path fill="none" d="M597.2,161.7c0-1.3,0.4-2,0.9-2.7c0.4,0.1,0.7,0.1,0.9,0.7C598.9,160.5,598.1,160.9,597.2,161.7z"/>
	<path fill="none" d="M608.9,135.3c0-1,0.1-1.9,0.6-2.8c1,0,1.1,0.5,0.8,1.2C610,134.3,609.5,134.9,608.9,135.3L608.9,135.3z"/>
	<path fill="none" d="M588.2,148.7c-0.6-0.9-0.5-1.8,0-2.7C589.6,147,589.6,147,588.2,148.7z"/>
	<path fill="none" d="M626.3,119.2c0.2-0.9,1-1.2,1.8-1.4C627.4,119.3,627.4,119.3,626.3,119.2z"/>
	<path fill="none" d="M600.6,127.7c0.5-0.6,0.5-1.6,1.4-2c0.3,0.1,0.6,0.3,1,0.5C602.6,127.6,601.6,127.7,600.6,127.7L600.6,127.7z"
		/>
	<path fill="none" d="M616.3,127c-0.4,0.4-0.6,0.5-0.8,0.7c-0.9-0.2-1.4-0.7-1.3-1.7c0.4-0.4,0.7-0.1,1,0.1
		C615.5,126.3,615.8,126.6,616.3,127z"/>
	<path fill="none" d="M587.8,128.5c0,1.2-0.6,1.9-2.1,2.4C586.4,129.6,587.1,129.1,587.8,128.5L587.8,128.5z"/>
	<path fill="none" d="M593.1,142c0.2,1,0.1,1.9-0.2,2.8C592.5,143.4,592.5,143.4,593.1,142L593.1,142z"/>
	<path fill="none" d="M596.2,136.7c0.4-0.6,1-1,1.7-1.3c0.7,0.9,0.2,1.4-0.6,1.9C596.9,137.1,596.5,136.9,596.2,136.7L596.2,136.7z"
		/>
	<path fill="none" d="M590.2,154.7c-0.1-0.6-0.1-1.2,0.3-1.7C591,153.7,591,154.2,590.2,154.7L590.2,154.7z"/>
	<path fill="none" d="M590.1,154.6c0,0.6,0,1.1,0,2C589.3,155.6,589.6,155.1,590.1,154.6L590.1,154.6z"/>
	<path fill="none" d="M591.7,137.5c0,0.5-0.1,1-0.1,1.6C591.1,138.3,591.1,138.3,591.7,137.5L591.7,137.5z"/>
	<path fill="none" d="M593.8,139.7c-0.1,0.8,0.3,1.7-0.7,2.3l0.1,0.1C593.1,141.2,593.2,140.4,593.8,139.7L593.8,139.7z"/>
	<path fill="none" d="M602.9,129.3c0-0.4,0.2-0.7,0.5-0.7c0.4-0.1,0.7,0.1,0.7,0.5c0,0.2-0.2,0.5-0.4,0.4
		C603.4,129.5,603.1,129.4,602.9,129.3L602.9,129.3z"/>
	<path fill="none" d="M605.6,127.4c-0.2,0.1-0.3,0.3-0.5,0.3c-0.4,0-0.6-0.2-0.5-0.6c0.1-0.3,0.3-0.3,0.6-0.2
		C605.4,127,605.5,127.2,605.6,127.4z"/>
	<path fill="none" d="M593.3,126.4c0-0.6-0.1-1.2,0.8-1.2C593.8,125.7,593.5,126,593.3,126.4L593.3,126.4z"/>
	<path fill="none" d="M591.7,137.6c-0.1-0.6,0-1.2,0.7-1.5l-0.1-0.1C592.4,136.6,592.6,137.3,591.7,137.6L591.7,137.6z"/>
	<path fill="none" d="M606.2,125.9c0.3-0.3,0.6-0.4,0.9,0c-0.1,0.1-0.2,0.2-0.3,0.2C606.6,126.1,606.4,126,606.2,125.9z"/>
	<path fill="none" d="M637.4,108.8c-0.1,0-0.2,0.1-0.3,0.1c-0.3,0-0.4-0.1-0.2-0.3c0.1,0,0.2,0,0.3,0
		C637.3,108.7,637.3,108.7,637.4,108.8z"/>
	<path fill="none" d="M586.1,165.6c0,0.2-0.1,0.3-0.1,0.5C586.1,165.9,586.1,165.7,586.1,165.6z"/>
	<path fill="none" d="M626.4,162.5c0,0.2,0,0.4,0.1,0.7C625.9,163,626.3,162.8,626.4,162.5z"/>
	<path fill="none" d="M628.6,160.9c0,0.1,0.1,0.2,0.1,0.3c0,0.1-0.1,0.2-0.2,0.3C628.3,161.2,628.3,161,628.6,160.9z"/>
	<path fill="none" d="M603.2,141c0.1,0,0.2,0.1,0.2,0.1c0,0.3-0.1,0.4-0.2,0.2C603.1,141.2,603.2,141.1,603.2,141z"/>
	<polygon fill="none" points="605.4,142.9 605.5,142.6 605.6,142.9 	"/>
	<path fill="none" d="M629,100.3c0.2-0.5-0.3-0.2,0.1-0.3C629.3,99.9,629.3,100.2,629,100.3L629,100.3z"/>
	<polygon fill="none" points="633.5,106.9 633.3,107.1 633.5,107 	"/>
	<path fill="none" d="M588,164.3c-0.5-0.2-0.2,0.3-0.3-0.1C587.7,164,587.9,164,588,164.3L588,164.3z"/>
	<path fill="none" d="M600.6,162.8c0,0.1-0.1,0.2-0.1,0.3C600.6,163,600.6,162.9,600.6,162.8L600.6,162.8z"/>
	<polygon fill="none" points="593.9,139.8 594.1,139.6 593.8,139.7 	"/>
	<path fill="none" d="M595.3,137.5c-0.1,0.1-0.1,0.2-0.2,0.3C595.3,137.7,595.3,137.7,595.3,137.5L595.3,137.5z"/>
	<path fill="none" d="M596.1,136.6c-0.3,0.3-0.5,0.6-0.8,0.9l0.1,0.1C595.7,137.3,595.9,137,596.1,136.6L596.1,136.6z"/>
	<polygon fill="none" points="608.8,135.2 608.7,135.4 608.9,135.3 	"/>
	<polygon fill="none" points="592.4,136.1 592.5,135.9 592.3,136 	"/>
	<path fill="none" d="M598.3,133.8C598.1,134,598.3,133.9,598.3,133.8L598.3,133.8z"/>
	<path fill="none" d="M587.1,133.7c0,0.2-0.1,0.3-0.1,0.3C587,134,587.1,133.9,587.1,133.7L587.1,133.7z"/>
	<path fill="none" d="M598.4,133.9c0-0.5,0.2-0.8,0.7-0.8l-0.1-0.1C599.1,133.5,598.8,133.7,598.4,133.9L598.4,133.9z"/>
	<path fill="none" d="M587.9,133c0,0.6-0.2,0.8-0.8,0.7l0.1,0.1C587.3,133.4,587.5,133.1,587.9,133L587.9,133z"/>
	<path fill="none" d="M599.2,133.1c-0.1-0.6,0.2-0.8,0.7-0.8l-0.1-0.1C599.9,132.8,599.6,133,599.2,133.1
		C599.1,133,599.2,133.1,599.2,133.1z"/>
	<path fill="none" d="M600.6,131.5c0,0.5-0.2,0.8-0.7,0.7c0,0,0.1,0.1,0.1,0.1C599.8,131.8,600.1,131.5,600.6,131.5L600.6,131.5z"/>
	<path fill="none" d="M600.7,131.6c0-0.5,0.2-0.8,0.7-0.7c0,0-0.1-0.1-0.1-0.1C601.3,131.3,601.1,131.5,600.7,131.6L600.7,131.6z"/>
	<path fill="none" d="M602.1,130c0,0.5-0.3,0.7-0.7,0.7c0,0,0.1,0.1,0.1,0.1C601.4,130.3,601.6,130.1,602.1,130L602.1,130z"/>
	<path fill="none" d="M602.8,129.3c0.1,0.6-0.3,0.7-0.8,0.8l0.1,0.1C602.2,129.6,602.4,129.4,602.8,129.3L602.8,129.3z"/>
	<polygon fill="none" points="610.2,128.7 610.4,128.7 610.2,128.6 	"/>
	<polygon fill="none" points="600.5,127.7 600.5,127.9 600.6,127.7 	"/>
	<path fill="none" d="M587.9,128.6C588.3,128.2,587.8,128.7,587.9,128.6L587.9,128.6z"/>
	<path fill="none" d="M593.2,126.3C593.1,126.6,593.3,126.4,593.2,126.3L593.2,126.3z"/>
	<polygon fill="none" points="569.7,349.8 569.6,349.6 569.8,349.6 	"/>
	<path fill="none" d="M635.7,657.2c0-0.7-0.1-1.5,0.1-2.2c1.2-4.5,1.8-9,2.2-13.6c0.2-2.3,0.8-4.7,1-7c0.6-6.1-0.2-12.2-0.8-18.2
		c-0.1-1.2-0.5-2.4-0.2-3.7c0.2-0.8,0-1.5-0.2-2.2c-1.2-5.6-2-11.2-3-16.9c-1.1-6.2-2.7-12.4-4-18.6c-0.2-1.1-0.6-2.2-0.6-3.3
		c0-5.8-0.6-11.6-0.1-17.5c0.5-5.9,0.5-11.9,0.3-17.9c0-0.4,0-0.8-0.1-1.1c-1.4-4.9-1.7-10-3.7-14.8c-1.5-3.6-2.3-7.3-2.3-11.2
		c0-1.7-0.1-3.5-0.5-5.2c-0.2-0.7-0.3-1.5,0.3-2.2c4.2,1.5,8.7,1.6,13.1,2.2c5.9,0.8,11.8,1.5,17.7,2.2c1.1,0.1,2.2,0.2,3.1,0.3
		c0.8,0.8,0.7,1.5,0.4,2.2c-0.3,0.8-0.5,1.6-0.5,2.5c0.4,6.5,1.3,12.8,3.7,18.9c1.9,4.7,3.2,9.7,5,14.4c1.9,5,2.8,9.9,2.4,15.3
		c-0.6,7.9-1.4,15.8-2.6,23.7c-1.1,7.4-2.6,14.7-4.3,21.9c-1,4.4-2,8.7-3,13.1c-0.1,0.5-0.2,1-0.5,1.4c-1.6,2.6-2.3,5.5-2.9,8.4
		c-0.9,4.1-1.7,8.3-1.9,12.5c-0.1,2.7-0.7,5.4-0.4,8.1c-1.3,1.3-2.8,1.7-4.5,1.7c-1.5,0-3,0.1-4.5,0.1c-0.9,0-1.7,0.2-2.1,0.6
		c-1.2,1.2-0.7,2.7-1.4,4C639.3,655.1,637.7,656.7,635.7,657.2L635.7,657.2z M635.4,550.1c-1.2-0.3-1.6,0.4-1.7,1.1
		c-0.2,1.5-0.2,3-0.3,4.4c-0.1,1.9,0.2,3.7-0.2,5.6c-0.9,4.4,0,8.6,1.7,12.7c0.2,0.5,0.6,0.8,1.2,0.8c0.1-1.6,0.1-3.2-0.2-4.7
		c-0.8-4.3-1.4-8.5-0.6-12.9C635.8,554.8,635.9,552.4,635.4,550.1z M655.4,539c-0.1,0.2-0.3,0.3-0.3,0.4c1.1,7.1,2.8,14.1,2.6,21.3
		c0,0.3,0.2,0.5,0.6,0.3c0.5-6.2,0.1-12.3-1.4-18.3C656.6,541.5,656.6,540,655.4,539z M647,507.6c-0.5,0.4-0.7,0.5-0.9,0.6
		c-0.6,0.8-0.3,1.7-0.2,2.5c0.2,1.1,0,2.5,1,3.5c0.9-2.7,1.2-4.4,0.9-5.8C647.8,508.2,647.4,508,647,507.6z M637.4,579.4
		c-1,2-0.9,2.5,1.2,5.7C639,583,638.5,581.4,637.4,579.4z M657.1,593c-0.2-1.7-0.1-3.6-1.6-5.3C654.8,590.1,656.1,591.5,657.1,593z
		 M657.3,564.6c-0.8,0.9-0.8,0.9-0.3,3.2C657.7,566.3,657.7,566.3,657.3,564.6z M639.8,592c-0.3,0.5,0.1,0.8,0.4,1.1
		c0.2,0.3,0.4,0.3,0.5,0c0-0.1,0-0.2,0-0.3C640.4,592.4,640.3,591.9,639.8,592z M639.1,588.6c0.3-0.7,0.4-1.3-0.7-1.3
		C638.3,588,638.6,588.4,639.1,588.6z M644.8,523.5c0,0.1-0.1,0.2-0.1,0.3c0.1,0.3,0.2,0.4,0.3,0c0-0.1,0-0.2,0-0.3
		C645,523.5,644.9,523.5,644.8,523.5z M646.6,518.5c0-0.1-0.1-0.2-0.1-0.3c-0.1,0.1-0.2,0.2-0.2,0.2c0,0.1,0.1,0.2,0.2,0.3
		C646.6,518.7,646.6,518.6,646.6,518.5z"/>
	<path fill="none" d="M552.9,666.3c2-4.1,3.8-8.1,8.4-9.7c1.4-2.3,2-5,2.8-7.3c0.7-0.5,1.1-0.6,1.7-0.2c0.3,2-1.2,4-0.7,6.2
		c1.3,1.2,2.2,2.8,2.8,4.6c0.6,2,2.1,3.6,3.5,5.2c0.6,0.6,1.3,1.1,2.3,1.4c2-0.5,3.8-1.6,5.5-2.3c1.5-1.9,1.3-4.2,2.6-6.2
		c2.7-0.3,5.4-0.6,8-0.9c0.9,0.5,1,1.3,1.2,2c0.4,1.6,0.6,3.2,1.2,4.7c0.8,2,1.1,4,1,6.2c-0.2,4.5,0.5,8.8,2.5,13
		c1.2,2.5,2.5,5.2,1.9,8.1c-0.4,0.6-1,0.8-1.6,1.1c-1.5,0.6-3.1,0.9-4.6,1.1c-0.5-0.2-0.9-0.5-1.4-0.7c-0.2,0-0.5,0-0.7,0.1
		c-1.9,0.7-3.8,0.9-5.8,0.9c-8,0-8,0.1-15.2-2.6c-2.2-0.8-4.3-1.9-6.4-3.1c-1.6-0.9-3.1-1.5-4.9-1.5c-3.7-0.1-6.6-1.7-9.2-4.2
		c-2.4-2.3-4.8-4.6-7.6-6.7c-0.2-3.3,2.4-4.9,4.2-7.1C547.4,668.6,550.3,668.3,552.9,666.3z M585.9,659.2c-0.5,1.7-0.2,2.9,0,4.1
		c1,5.1,1.9,10.2,2.9,15.2c0.4,2.1,0.7,4.1,0.6,6.3c0,0.6,0,1.2,0.6,2c1.2-5.8,1.4-11.5-0.2-17.8c-0.6,3.2,1.1,5.7,0,8.4
		c-0.1-1-0.1-1.9-0.3-2.7c-1.1-4.2-2.1-8.3-2.1-12.7c0-0.6-0.1-1.2-0.3-1.8C587,659.9,586.6,659.7,585.9,659.2z"/>
	<path fill="none" d="M635.7,657.1c-0.5,0.8-1.1,1.7-1.7,2.6c-0.3-0.1-0.6-0.3-1-0.4c-0.5,0.9,0,1.5,0.5,2.2c0.4,0.7,1.1,1,2.1,0.8
		c1.8-2.2,3.2-5.2,6.7-5.4c1.1-0.9,0.4-2.5,1.6-3.4c3.2-0.4,6.5,0.4,9.8-0.5c0.5,1.5,1,2.9,1.5,4.2c0.9,0.5,1.7,0.2,2.5,0.1
		c0.5-0.5,0.2-1.2,0.3-1.8l-0.1,0.1c1,1.4,1.3,2.9,1.1,4.5c-0.3,2.1-0.1,4.2,0.5,6.3c0.8,2.8,0.9,5.6,0.7,8.5
		c-0.1,1.8,0.1,3.5,0.6,5.1c0.3,0.9,0.6,1.9,1,2.8c0.6,1.2,1.2,2.5,1.8,3.7c-0.6,1.6-2,2.3-3.4,2.6c-4.4,1.1-8.9,2.2-13.6,1.1
		c-1-0.2-2-0.2-3-0.2c-1.4-0.1-2.7,0-4.1-0.2c-1.6-0.2-3.1-0.7-4.7-1c-1.4-1.8-2.5-3.6-1.7-6.1c0.4-1.3-0.2-2.6-1.3-3.7
		c-1.4-1.4-2.9-2.5-4.8-2.4c-2.1,0.1-3.5-0.8-5.1-2.1c-1.5-2.8-1.8-6-2.7-9.3c1.2-1.9,1.6-4.4,3.5-6.3c1.7-0.1,3.3-0.9,4.9-2
		c0.8-0.6,1.6-1.1,2.1-2c0.7-1.2,1.5-2.2,2.7-2.6c0.8-2-0.4-3.4-0.9-4.8c0.6-4,1.2-4.7,4-5.1c0.5,1.1-0.1,2.2-0.2,3.2
		c-0.5,3.1-0.7,6.2-0.5,9.3C634.8,655.8,634.8,656.7,635.7,657.1L635.7,657.1z M652.7,677.2c1.2-2.1,0.8-4.1-0.2-6.1
		C653,673.1,652.7,675.2,652.7,677.2c-0.8,1.2-0.5,2.5-0.4,3.8C652.9,679.7,652.8,678.4,652.7,677.2z M652,670c0-1.4,0.1-2,0-2.6
		c-0.3-2.6-0.6-5.1-1-7.7c0-0.4-0.2-0.7-0.4-1c-0.1-0.1-0.4,0-0.7-0.1C649.4,662.4,649.9,665.9,652,670z M654.2,681.3
		c0.8-0.2,0.8-0.8,0.8-1.2c0.1-3.4,0.5-6.8-0.4-10.1C654.4,673.7,654.3,677.5,654.2,681.3z"/>
	<path d="M535.7,121.8c0,0.8-0.5,1.1-1,1.3c-0.7,0.3-1.4,0.3-2.3,0.5c-1,1.1-1.9,2.4-2.2,3.7c-0.1,1.4,0.6,2.1,1,3.1
		c-0.3,0.3-0.7,0.3-1,0.2c-0.3-0.2-0.7-0.3-1-0.6c-1.7-1.4-1.9-3.2-0.6-4.9c0.2-0.3,0.5-0.6,0.8-0.8c1.3-1.1,2.7-2.2,4.1-3.3
		C534.2,121.3,535,121.6,535.7,121.8L535.7,121.8z"/>
	<path d="M526.7,167.8c0,2.9,1.2,5.5,0.5,8c-0.7,0.3-1.1,0.1-1.2-0.2c-1.1-2.5-1.2-5-0.1-7.5C526,168.1,526.1,168,526.7,167.8z"/>
	<path d="M523.5,131.4c-1.3-0.5-1.6-1.5-1.8-2.4c-0.3-1.5-0.5-3.1,0.3-4.6c0.3,0.1,0.7,0.1,0.7,0.2
		C523.3,126.8,523.3,129,523.5,131.4z"/>
	<path d="M539,199.4c-1.4-1.2-1.4-1.4-0.7-5.3c0.6-0.2,0.9,0.2,1,0.6C539.5,196.3,539.8,197.9,539,199.4z"/>
	<path d="M548.7,161.4c1.4,2,1.6,3.5,0.2,4.9c-0.6,0-0.8-0.3-0.8-0.7C548.2,164.4,548.4,163.2,548.7,161.4z"/>
	<path d="M603.9,117.3c-1.4,1-2.8,1.5-4.8,1.3C600.8,117.4,602.1,116.3,603.9,117.3z"/>
	<path d="M571.6,201.6c0.1-1.4,0.9-2.5,1.8-3.5c0.3-0.3,0.3-0.3,1.9,0C573.9,199.3,573.3,201,571.6,201.6L571.6,201.6z"/>
	<path d="M560.2,200.3c-1.6-0.2-2.4-1.3-3.3-3.1C558.8,197.9,559.8,198.8,560.2,200.3z"/>
	<path d="M555.3,229c-1.9,0.6-2.2,0.3-3-2.5C553.6,227,554.3,227.9,555.3,229z"/>
	<path d="M539.3,191.7c-0.7-1.2-0.2-1.9,0.7-2.6C540.5,190.3,540.4,191,539.3,191.7z"/>
	<path d="M607.3,118.2c-0.5-1.3-0.5-1.3,1-2C608.7,117.1,608.1,117.5,607.3,118.2z"/>
	<path d="M547.4,114.7c-0.2,1.2-0.8,1.3-1.4,1.5C546.1,115.3,546.1,115.3,547.4,114.7z"/>
	<path d="M619.7,116.8c-0.6-0.6-1.2-1-0.9-1.9c0.7-0.2,0.7,0.4,0.9,0.8C619.8,116,619.7,116.4,619.7,116.8z"/>
	<path d="M523.5,133.4c0.1,0.2,0.2,0.3,0.3,0.4c0.1,0.7,0.2,1.4-0.5,1.9c-0.1,0-0.3,0.1-0.3,0c-0.6-0.7,0.1-1.3,0.1-1.9
		C523.1,133.7,523.3,133.6,523.5,133.4z"/>
	<path d="M545.8,149.9c0.1,0,0.2,0.1,0.3,0.2c0.3,0.3,0.7,0.7,0.2,1.2c-0.1,0.1-0.2,0.1-0.3,0.1c-0.6-0.2-0.5-0.7-0.5-1.1
		C545.7,150.1,545.8,150,545.8,149.9z"/>
	<path d="M542.1,118.8c-0.2,0.9-0.7,1.1-1.4,0.5C541,118.8,541.5,118.5,542.1,118.8z"/>
	<path d="M541.7,185.9c-1-1-0.6-1.5-0.3-2.1C542.4,184.6,541.5,185,541.7,185.9z"/>
	<path d="M633.4,109.9c-0.1,0.4-0.2,0.9-0.3,1.3c-0.5,0-0.8-0.4-0.7-0.7C632.5,110,633.1,110,633.4,109.9L633.4,109.9z"/>
	<path d="M527.2,165.9c-0.3-0.4-0.4-0.8,0-1.3C527.8,165.1,527.7,165.5,527.2,165.9z"/>
	<path d="M571.5,201.6c0,0.6,0,1.1-0.8,1.2C570.6,202.1,571,201.7,571.5,201.6L571.5,201.6z"/>
	<path d="M535.8,121.9c0.1-0.4,0.3-0.6,0.7-0.4C536.4,121.9,536.1,121.9,535.8,121.9L535.8,121.9z"/>
	<path d="M551.7,114.1c-0.1,0-0.2,0.1-0.3,0.1c-0.1,0-0.2-0.1-0.2-0.1c0.1,0,0.2-0.1,0.3-0.1C551.6,113.9,551.6,114,551.7,114.1z"/>
	<path d="M564.8,203.1c-0.1,0.3-0.2,0.6-0.3,1C564.3,203.5,564.6,203.3,564.8,203.1L564.8,203.1z"/>
	<path d="M528.1,161.4c0,0.1-0.1,0.3-0.1,0.3c-0.2,0.1-0.3-0.1-0.3-0.4c0-0.1,0.1-0.1,0.2-0.2C528,161.2,528.1,161.3,528.1,161.4z"
		/>
	<path d="M527.4,157.5c0,0.1,0,0.3-0.1,0.3c-0.2,0.1-0.3,0-0.3-0.3c0-0.1,0.1-0.2,0.2-0.3C527.3,157.3,527.4,157.4,527.4,157.5z"/>
	<polygon points="546.8,153.9 546.5,153.9 546.7,153.6 	"/>
	<path d="M548.4,220.2c-0.1,0-0.2-0.1-0.3-0.1C548.2,220.1,548.3,220.2,548.4,220.2L548.4,220.2z"/>
	<path d="M548.4,220.3c0.1,0,0.2,0.1,0.2,0.1C548.6,220.3,548.5,220.3,548.4,220.3L548.4,220.3z"/>
	<path d="M550.5,222.9c-0.1,0.1-0.2,0.2-0.2,0.2c-0.1,0-0.2-0.2-0.2-0.2C550.2,222.6,550.4,222.6,550.5,222.9z"/>
	<path d="M635.4,550.1c0.5,2.3,0.4,4.7,0,6.9c-0.8,4.4-0.2,8.6,0.6,12.9c0.3,1.6,0.4,3.2,0.2,4.7c-0.7,0-1-0.3-1.2-0.8
		c-1.7-4.1-2.6-8.2-1.7-12.7c0.4-1.8,0.1-3.7,0.2-5.6c0.1-1.5,0.1-3,0.3-4.4C633.8,550.5,634.3,549.8,635.4,550.1z"/>
	<path d="M655.4,539c1.2,1,1.2,2.4,1.5,3.7c1.5,6,1.9,12.2,1.4,18.3c-0.5,0.1-0.7,0-0.6-0.3c0.3-7.2-1.4-14.2-2.6-21.3
		C655.1,539.3,655.3,539.2,655.4,539z"/>
	<path d="M647,507.6c0.4,0.4,0.8,0.6,0.8,0.9c0.3,1.4,0,3-0.9,5.8c-1-1.1-0.7-2.4-1-3.5c-0.2-0.8-0.4-1.7,0.2-2.5
		C646.3,508,646.5,507.9,647,507.6z"/>
	<path d="M637.4,579.4c1.1,2,1.6,3.6,1.2,5.7C636.5,581.9,636.3,581.4,637.4,579.4z"/>
	<path d="M657.1,593c-1-1.5-2.3-2.9-1.6-5.3C656.9,589.4,656.9,591.2,657.1,593z"/>
	<path d="M657.3,564.6c0.4,1.7,0.4,1.7-0.3,3.2C656.5,565.5,656.5,565.5,657.3,564.6z"/>
	<path d="M639.8,592c0.5,0,0.7,0.4,0.9,0.8c0,0.1,0,0.2,0,0.3c-0.1,0.3-0.3,0.3-0.5,0C639.9,592.7,639.4,592.5,639.8,592z"/>
	<path d="M639.1,588.6c-0.6-0.2-0.8-0.6-0.7-1.3C639.5,587.3,639.5,587.9,639.1,588.6z"/>
	<path d="M644.8,523.5c0.1,0,0.2,0,0.2,0c0,0.1,0.1,0.2,0,0.3c-0.1,0.3-0.3,0.3-0.3,0C644.8,523.7,644.8,523.6,644.8,523.5z"/>
	<path d="M646.6,518.5c0,0.1-0.1,0.2-0.1,0.3c-0.1-0.1-0.2-0.2-0.2-0.3c0-0.1,0.1-0.2,0.2-0.2C646.5,518.3,646.6,518.4,646.6,518.5z
		"/>
	<path d="M585.9,659.2c0.7,0.5,1.1,0.7,1.2,1c0.2,0.6,0.3,1.2,0.3,1.8c0,4.3,1,8.5,2.1,12.7c0.2,0.8,0.2,1.7,0.3,2.7
		c1.1-2.6-0.7-5.1,0-8.4c1.6,6.4,1.4,12,0.2,17.8c-0.6-0.7-0.6-1.4-0.6-2c0.1-2.1-0.2-4.2-0.6-6.3c-1-5.1-2-10.2-2.9-15.2
		C585.7,662.1,585.4,660.9,585.9,659.2z"/>
	<path d="M652,670c-2.1-4.1-2.5-7.6-2.2-11.4c0.4,0,0.7,0,0.7,0.1c0.2,0.3,0.4,0.7,0.4,1c0.4,2.6,0.7,5.1,1,7.7
		C652,668,652,668.6,652,670z"/>
	<path d="M654.2,681.3c0.1-3.8,0.2-7.6,0.4-11.3c0.9,3.4,0.5,6.7,0.4,10.1C655,680.5,654.9,681.1,654.2,681.3z"/>
	<path d="M652.8,677.2c-0.1-2.1,0.2-4.1-0.3-6.2C653.5,673.1,654,675.1,652.8,677.2L652.8,677.2z"/>
	<path d="M652.7,677.2c0.1,1.3,0.1,2.5-0.4,3.8C652.2,679.7,651.9,678.4,652.7,677.2L652.7,677.2z"/>
</g>
</svg>
