<?xml version="1.0" encoding="utf-8"?>
<!-- Generator: Adobe Illustrator 19.1.0, SVG Export Plug-In . SVG Version: 6.00 Build 0)  -->
<svg version="1.2" baseProfile="tiny" id="Layer_2" xmlns="http://www.w3.org/2000/svg" xmlns:xlink="http://www.w3.org/1999/xlink"
	 x="0px" y="0px" width="900px" height="600px" viewBox="144 97 900 600" xml:space="preserve">
<g>
	<path d="M492.4,408c3-5,4.8-10.3,5.1-16.1c0.3-6.4-0.4-12.9-3.3-18.5c-2.8-5.4-6.3-10.6-10.7-15.1c-1.4-1.4-2.9-2.9-3.5-4.9
		c-5.8-3.3-12.3-4.5-18.8-5.6c-0.9-0.1-1.7,0.2-2.6,0.5c-7.9,2.7-15.8,5.4-23.7,8.1c-7.2,2.5-14,5.9-20.8,9.1
		c-6.4,3-13,5.6-19.8,7.8c-2.9,0.9-5.1,2.5-6.4,5.4c-0.7,1.6-2,3-3.4,4c-3.4,2.5-6.3,5.6-8.9,8.9c-0.5,0.6-1,1.1-1.7,1.4
		c-9.2,4.2-18.1,9.2-27.7,12.2c-9.5,3-19.2,5.2-28.6,8.6c-4,1.5-8.4,1.7-12.8,1.5l0.1,0.1c1.1-1.1,2.6-1.3,4-1.7
		c5-1.4,9.9-3.1,14.5-5.5c4-2.1,8.3-3,12.6-4.2c11.8-3.4,23.5-7.1,34.6-12.4c1.7-0.8,3.5-1.6,4.3-3.4c0.1-0.1,0.2-0.2,0.3-0.3
		c4.4-4.1,9.1-8,12.1-13.4c1.3-2.2,3.5-3.1,5.9-3.8c6-1.9,11.9-4.2,17.5-6.6c1.2-1.2,1.6-2.6,1.7-4c0.6-5.5,2.4-10.6,4.6-15.6
		c1.1-2.5,1.6-5,1.6-7.7c0-6.3,0.5-12.7,0.1-19c-0.4-7-2.1-13.7-4.9-20.1c-1-2.2-1.9-4.4-3.1-6.5c-3.3-5.9-4.9-12.2-4.2-19.3
		c-9.1-2.3-14.6-7.7-14.5-17.4c-1.8-0.9-3.8,0.1-5.3-0.8c-4.8-2.7-9.9-4.4-15.2-5.6c-1.5-0.3-2.4-1.8-3.4-2.9
		c-1.5,0.2-2.9,0.3-4.2,0.7c-13.3,3.8-26.9,4.6-40.6,3.7c-6.1-0.4-12.1-0.6-18.2-0.6c-2.5,0-5.1,0-7.6-0.8c-8.6,4.1-17.3,8-27.2,5.4
		c2.6-1,5.3-1.4,8-1.3c5.3,0.3,9.8-2.1,14.7-3.4c1.5-0.4,1.4-2,3.2-3.1c24,2.5,48.6,2.9,73.1-2.8c-0.1-2.9-3.1-4.5-2.9-7.4
		c-1-0.4-1.8-0.8-2.5-1.1c-1.8-2.8-0.5-5.9-1.6-9.1c-3.9,0-7.7-1.7-11.6-2.1c-5.2-0.5-10.6-0.2-15.7,1.7c-8.2,3-16.7,5.1-25.4,6.2
		c-2.4,0.3-4.8,0.5-7.2,0.3c-2.4-0.1-4.8-0.1-6.8,2.2c-2.7-6-8.4-8.2-12.7-12c-0.9-0.8-2.1-1-3.2-1.2c-3.6-0.6-7-2-10.8-0.9
		c-0.8,0.2-1.7,0.1-2.8-0.5c2.1-1.8,4.6-1.6,6.6-2.4c4.5,1.4,9,2.1,12.9,4.8c3.6,2.5,7.1,5.2,10.1,8.8c1.7-1.6,3.8-1.2,5.8-1.2
		c9.2-0.2,18.1-1.7,27-3.9c2.4-0.6,4.8-1.3,7.2-2.3c4.7-2,9.7-1.6,14.6-0.9c5,0.7,9.9,1.9,14.9,0.3c3-0.9,6.1-1.7,9.1-2.6
		c1.2-0.4,2.3-0.6,3.6,0.4c-1.8-3-0.8-5.5,0.7-7.9c2.4-0.8,4.6-0.4,6.4,1.2c2-0.4,3.7-1.2,5.2-2.3c1.9-1.4,3.9-2.4,6.2-2.8
		c3.4-0.5,6.6-1.6,9.9-2.7c4.6-1.5,9.2-1.8,13.9-1c3.5,0.6,6.5,0.4,9.6-1.9c2.7-2,5.7-3.7,8.7-5.4c1.5-0.9,3-1.9,5.1-0.4
		c0.8-5.8,0-11-0.8-16.2c1.6-0.6,2.4,0.3,2.6,1.4c1.6,7.7,1.7,15.3-1.7,23c-1.5-1.6,0.2-3.2-0.8-4.7c-2.6,2-5.2,4.1-7.4,6.5
		c-4,4.3-7.6,8.9-8.6,14.9c-0.3,2-0.5,4,0.7,6c2.8-0.6,5.5-1,8.2-1.8c4.2-1.3,8.6-1.9,12.8-3.3c4.5-1.6,9-1.1,13.5,0.6
		c4.8-4.6,9.5-9.2,12.4-15.7c-3.7,1-7.1,1.5-10.6,1.6c-1.8,0-3.5,0.9-5,1.5c-2.8,1.1-5.8,1.3-8.6,2.8c-2.1,1.2-4.6-0.2-7.4-1.3
		c2.5-1.5,4.3,0.1,5.7-0.1c1.4-0.1,1.7-1.2,2.7-1.5c3.2-0.3,6.5-0.2,9.7-2.1c1.5-0.9,3.7-0.7,5.6-0.8c2.9-0.3,5.8-0.5,8.8-0.7
		c3.6-4.7,7.7-9,12.8-11.8c-0.3-0.9-0.7-1.1-1.2-0.9c-0.3,0.1-0.7,0.2-1.1,0.3c-4.9-4.1-7.7-9.3-8.5-15.6c-0.8-6.2-1.1-12.3,0-18.6
		c-1.3-0.2-2.8-0.1-3.3-1.8c1-1.1,1.7,0.8,2.7,0.3c4.6-2.4,7.7-6,8.9-11.1c0.6-2.6,0.1-4.7-2-6.2c-1.6-0.2-2.1,0.8-2.9,1.7
		c1.2,1,1.7-1.1,3-0.4c0.8,1.2,1.5,2.7,1.1,4.5c-1.6-0.2-1.1-2-2.2-2.5c-0.8,1.1-0.8,1.1,0.5,3.9c-1.5,1-2-1.2-3.2-1.1
		c-0.5,1.2,1,2.1,0.4,3.6c-2.2,0.4-1,3.4-2.9,4.4c-1-0.6-1.2-1.5-1.2-2.6c2.3-1.5,2.4-4.2,2.6-6.8c-1.8-1.3-3.8,0.9-6.3-0.1
		c2-0.9,2.6-2.7,4.9-3.3c-2-1-4.1-0.1-5.4-2.4c3,0.1,5.7,0.8,8.7-0.2c-2.1-0.2-3.9-0.2-5.5-0.7c-1.6-0.4-3.4-1-4.3-3.4
		c1.9,0.8,3.2,1.7,4.7,2.1c1.7,0.5,3.5,0.7,5.2,0.9c1.6,0.2,3.2,0.3,4.6,1.5c1.1-1.1,1.4-2.2,1.4-3.6c-6.5,0.1-12.8,0.3-17.9-3.4
		c-0.6-1.3,0.4-1.1,0.5-1.7c-0.3-0.9-1.9-0.9-1.9-2.2c0.7-0.9,1.4,0.8,2.1-0.2c-1.1-1.4-2.3-2.9-3.7-4.6c2-0.3,2.4,2.1,4.1,1.8
		c-0.1-0.5-0.3-1.1-0.5-2.2c2.2,1.7,4.3,1.3,6.7,0.7c-2.2-0.9-4.5-0.8-6.7-2.8c4.9,0.9,9.1,2.2,13.5,1.8c-2.2,1.9-5.2,1.1-7.9,2.7
		c1.8,1.3,3.6,0.6,4.8,0.9c1.8-0.1,2.2-1.9,3.7-1.7c0,0.7-1.3,1.4,0,2.1c-3.5,1.6-7.3,0.3-10.8,1.4c2.7,1.3,5.9,1.1,9,2.1
		c-1.6,1-2.9,0.5-4.1,0.5s-2.4-1-3.7-0.4c4.8,2.5,8.2,2.5,12.5,0.1c1.4-0.8,2.1-1.7,1.2-3.2c-1.6,0.4-2.6,2.4-4.9,1.8
		c1.9-1.4,3.5-2.5,5.1-3.6c0.3-1,0.5-1.9-0.1-2.8c-1.5,0.6-2.4,2.3-4.3,2.1c0.9-2,3.5-2.4,4.1-4.7c0.3-1.1-0.3-1.9-0.6-3
		c-0.5,0.1-0.9,0.1-1.2,0.3c-1.8,1.3-3.6,2-6,1.4c-2-0.5-4.2-0.1-6.9-0.1c2.6,2.2,5.5,0.8,8.1,2.4c-5.1,0.6-9.4-1.9-14.4-1.3
		c1-1.8,2.3-2,3.6-2c4.2,0.1,8.3-0.4,12.5,0.3c1.2-0.9,2.3-1.7,3.6-2.6c-0.8-2.1-2.2-3.7-3.8-5.6c-2.3,3.7-6.2,4.1-10.3,5.3
		c3.6,1.1,6.5-0.8,9.5,0c-3.6,1-7,2.2-10.9,0.7c-1.5-0.6-3.6,0.5-5.4,0c-0.5-0.7,0-1.1,0.4-1.6c0.1-0.1,0.2-0.2,0.3-0.3
		c3,0.9,5.9,0.4,9-1.1c-1.3-0.5-2.3-0.2-3.3-0.2c-1.1,0-2.1,0.9-3.7,0.5c-0.8-0.1-1.4-1.3-2.3-1.8c-1.1-0.6-1.9-0.2-2.1,1.2l0.1-0.1
		c-0.6,0-0.9-0.4-1.2-0.9c-0.2-0.3-0.1-0.6,0.2-0.6c3.3-0.6,6.2-2.9,9.8-1.9c1.5-0.9,2.9-1.8,4.5-2.7c-0.9-1.6-2.1-1.6-3.5-1.2
		c-4.1,1.1-8.3,1.9-12.4,3c-1.5,0.4-2.9,0.8-4.3,0c-2,1-3.8,1.8-5.9,2.8c-1.5-1.1-3.1-0.5-4.3,0.8c-0.8-0.5-1.3-0.8-1.9-1.2
		c2.9-1.8,5.5-3.9,8.7-5c-0.7-1.1-1.5,0.3-2.3-0.5c1.7-1.8,4.3-1.7,6.1-3.2c-4.4,0.5-9,0.2-12.5,4.2c1.6,0.8,2.6-1.5,4.5-0.5
		c-2,1.2-2.9,3.3-5.5,3.1c-1.4-0.1-2,1.7-3.5,2.2c0-0.5,0-0.9,0-1.2c1-0.7,2.3-1.2,1.8-3c-1.1,0.7-1.7,1.6-2.1,2.6
		c-0.7,0.8-1.5,1.7-2.2,2.5c-1.1-0.6,0.6-1.4-0.4-2.1c-5.7,5.1-6.3,12.6-9.2,19.3c2.8,0.2,5.5-0.2,8.2,1.3c-2.6,2.9-5.7-1.2-8.3,1.1
		c-0.1,1.3,0.3,2.8,1.2,4.5c2.3-0.4,4.7-0.7,6.5,1.6c-1.6,0.8-1.7,2.8-3.2,3.7c-2,0-2.5-1.8-3.5-3.5c-2.4,7.1-3.6,14.1-1.4,21.2
		c1.4,4.3,3,8.6,4,13.1c0.4,2,1.4,3.8,2.8,5.3c2.1,1.2,4.6,0.9,7.4,1.7c-3.1,1.7-5.4,0-7.7,0c-2.6-2.6-3.7-5.9-4.5-9.2
		c-0.6-2.3-1.3-4.6-2.3-6.8c-2.9-6.5-3-13.2-1.3-20.1c0.7-3,1.5-5.9,0.5-8.9c-0.9-2.7,0.2-5.3,0.8-7.8c1.5-6.2,3.4-12.2,7.2-17.4
		c1-1.4,2.1-2.5,3.6-3.3c9.5-5.4,19.7-7.1,30.4-5.3c1-0.1,1.4-1,2.2-1.4c4.3-2.4,8.8-2.9,13.4-0.9c3.6,1.5,5.8,4.1,6.2,8
		c0.5,4.6,1,9.2,0.3,14c-0.9,6-0.5,12.1,0.8,18.1c0.6,2.9,0.8,5.7,1.1,8.6c0.3,2.5,0.1,5-0.6,7.5s-0.5,5.3-0.8,7.9
		c-0.5,5.4-1.3,10.8-3.6,15.8c2.3-14.1,3.8-28.3,1.8-42.7c-1.2,1.4-1.6,3.2-3,4.4c0.5,2.2,2,4.2,1.2,6.6c-0.7,2.1-2,3.8-2.7,5.2
		c-0.2,9.3-2.5,17.9-2.9,26.7c3.1-8.5,3.7-17.6,5.8-26.8c0.9,2.6,0.5,4.8,0.1,6.9c-0.5,2.9-1.2,5.7-1.8,8.5
		c-0.3,1.5-0.3,1.5,1.1,3.3c-0.3,2.7-0.9,5.4-1,8.2c-0.1,2.9-1.2,5.4-2.4,7.8c0.2,1.2,0.9,1.9,1.5,2.7c0.7,0.4,1.2-0.4,2.1,0
		c3,2.8,6.8,4.7,10.3,7.2c2.3,1.6,4.7,3,5.9,5.8c0.6,1.3,2,1.9,3.2,2.5c2.5,1.3,5,2.5,7.5,3.8c3,1.5,4.4,3.9,5,7.1
		c1.4,7.2-0.5,13.9-3.3,20.3c-1.4,3.2-2.4,6.4-2.7,9.8c-0.2,2.7-1,5.1-2.1,7.6c-1.7,4-3.8,7.7-6.4,11.2c-0.9,1.1-1.5,2.3-1.8,3.7
		c-1.6,7.8-3.9,15.5-6.3,23.1c-1.4,4.4-1.1,8.5,0.8,12.5c0.8,1.7,1.8,3.4,2.6,5c0.9,1.7,2.1,3.1,2.1,5.2c0,1.3,1.1,2.2,1.8,3.3
		c5.7,8.6,10.3,17.7,12.8,27.8c1.3,5.2,2,10.4,2,15.8c-0.1,4.4,0.2,8.9-0.3,13.3c-1.4,12.5-6.5,23-16.6,30.8c-0.4,0.3-1,0.5-1.2,0.9
		c-4.2,5.7-10.8,6.6-16.9,8.2c-4.7,1.2-9.6,0.7-14.5,0.6c-1.2,2.3-3.1,3.9-5.2,5.4c-1.2-0.3-1.8-1.3-2.8-2.9c1.1,0.7,1.6,1,2.2,1.4
		c1.2-1.2,2-2.5,2.7-4.3c-2.7-0.1-5.1-0.6-7.4-0.3c-9.7,1.1-19.2-0.6-28.7-1.8c-3.4-0.4-6.7-1.3-10.1-1.8c-1.3-0.2-2.3-0.7-3.2-1.6
		c-5.4,1.9-10.8,3.5-12.1,10.4c1.6,0.3,2.9-0.5,4.1-0.9c8-2.7,16.1-3,24.2-0.4c1.8,0.6,3.7,0.7,5.6,1.1c7.5,1.4,14.7,3.6,21.9,6.5
		c1.1-1.3-0.1-3.7,2-4.7c1.4,0.9,1.3,2.4,1.4,3.7c0.3,4.2-0.1,8.4-0.9,12.5c-1.3,7.2-2.9,14.3-3.4,21.7c-0.6,8.8-3.6,17.3-5.2,26
		c-0.7,3.6-1.2,7.2-1.9,10.8c-0.7,3.7,0.8,7.2,0.5,10.9c-0.3,5.2,1.2,10.3,1.2,15.5c0,1.5,1,3.1,1.7,4.6c3,5.7,5,11.9,7.6,17.8
		c1.9,4.4,2,9.2,1.6,13.8c-1.3,16.3-2.7,32.6-5.8,48.6c-1.3,6.6-0.2,13.1,0.4,19.7c0.3,3.6,0.8,7.3,0.9,10.6
		c-0.3,1.3-1.4,1.4-1.8,1.7c-0.8,1.5,0.7,2,0.9,3c-1.3,1.1-2.7,2.1-4.3,2.6c-1.2-0.7-1.3-1.6-0.4-2.2c2.7-1.8,3-4.5,2.7-7.3
		c-0.6-5-1.3-10-1.9-15c0-0.4-0.3-0.8-0.2-1.1c1.2-2.9,0.1-5.3-1.5-7.6c1.1-0.7,1.1,0.4,1.7,0.5c0.1-0.2,0.2-0.4,0.2-0.6
		c0.5-11.4,2.2-22.7,4.3-33.9c1.8-9.2,1.4-18.4,1.1-27.6c-0.1-1.4-0.4-2.8-0.9-4.1c-1.7-4.7-2.8-9.7-5.3-14.1
		c-2.6-4.6-3.6-9.7-4.2-14.9c-0.7-6.2-1.3-12.3-1.8-18.5c-0.5-6.4,0.5-12.6,1.9-18.8c3.4-15.6,6-31.3,8.7-47
		c0.2-1.1,0.2-2.3,0.3-3.4c-1.3-1.3-2.9-1.6-4.5-2.1c-6.5-2.1-13-4.3-19.6-6c-5.9-1.5-11.8-2.4-18-1.8c-5,0.5-9.3,3.1-14.1,4.2
		c-0.3,2.9-0.7,5.4-0.9,7.9c-0.5,8-0.8,16-0.1,23.9c0.6,6.6,2.1,13.2,3.9,19.7c0.8,2.9,1.7,5.8,2.9,8.6c2,4.9,2.9,9.9,3,15.2
		c0.1,8,2.4,15.5,6.1,22.5c1.5,2.9,2.5,5.5,2.1,8.9c-0.6,5.1-0.2,10.4,0.1,15.5c0.4,0.9,1.2,0.1,2,1c0.3,2.2,0.7,4.8,0.9,7.4
		c0.7,14.1,4.2,27.7,7.3,41.4c2.5,11.2,5.4,22.4,6.8,33.9c2.5,3,5.3,5.5,8.5,7.8c1.4,1,3.1,2.2,2.6,4.8c-2-1.7-3.8-3.3-5.6-4.8
		c-1.8-1.4-4.3-1.8-5.2-4.5c-2.3,2.9-3.9,5.8-4.9,9.2c5.1,2.1,10.4,3.8,13.6,8.6c-1.4,1.7-2.4,0.5-3.1-0.1c-3.5-2.4-7.1-4.3-11-5.6
		c-1,0.6-1.1,1.5-1.3,2.4c0.4,0.2,0.7,0.5,1,0.5c3.7,0.7,6.9,2.5,9.6,5c1.5,1.4,1.4,1.9,0.1,4.1c-3.8-2.2-7.3-4.8-11.6-6
		c-0.9,0.3-1.2,1.1-1.6,2.1c2.5,2.3,6.7,2.2,8.7,5.4c-0.6,1.7-1.8,1.7-3.1,1.2c-2.8-1.1-5.6-2.2-8.5-3.3c-1.1,0.6-1.6,1.8-2.5,3
		c1.3,0.2,2.5,0.4,3.6,0.6c1.2,0.3,2.4,0.9,3.3,1.8c1,0.9,1.7,1.9,0.2,3.3c-2.9-0.8-5.4-2.5-8.2-3.7c-1.9,0.9-3.2,2.3-4.1,4.5
		c3-0.6,5.6-0.6,7.4,2.4c-3.1,2.4-5.2-1.1-7.8-0.9c-4.7,4.4-9.5,8.9-14.3,13.4c-0.2,1.6,0.6,3,0.8,4.5c1.8,1.1,4.3,1.3,5.8,3.4
		c-2,0.3-3.2-1.2-4.9-1.2c-0.8,0.8-0.6,1.5,0.1,2.5c7.5,2.9,15.3,1.5,23.4,1.6c1.3-1.8,3.4-2.4,5.8-2.6c3.4-0.3,6.2-1.6,8.4-4.5
		c1.8-2.3,4.1-4.2,6.9-5.3c0.3-0.1,0.8-0.2,1-0.4c2.3-3.5,6.2-3.7,9.8-4.1c4.8-0.5,8.5-3,12.3-5.2c1.2-4.3,0.7-8.2-1.2-11.9
		c-2.3-4.6-4.6-9.2-4.9-14.6c-0.2-2.9-0.4-2.9-3-4.9c-1.3,3.8-2.6,7.6-3.8,11.3c-4.1,0.7-8.5-1.9-11.4-7c3.4,1.5,5.9,3.9,9.6,5.1
		c1.8-4.7,4.7-9.1,3.2-14.5c0.7-0.8,1.4-0.6,2,0c0.5,0.5,1,1.2,1.6,1.6c3.6,2.7,5.1,6.4,5.3,10.8c0.1,3,1,5.8,2.6,8.3
		c1.9,2.9,3,6.1,4,9.3c1.2,3.6-0.4,8.3-3.6,10.3c-4.4,2.8-9,5.1-14.5,5.1c-2.5,0-5,0.7-7.4,1.6c-2.4,3.4-6.1,5.6-8.9,8.8
		c-0.7,0.8-1.9,1.3-2.9,1.7c-4,1.4-8.1,3-12.2,4c-7.1,1.7-14.3,1.5-21.3-1c-0.8-0.3-1.6-0.8-2.4-1.2c-0.7-0.4-1.3-0.8-1.7-1.5
		c-0.3-1,0.7-1.3,1-2.1c-1.8-2.6-2.3-5.6-1.8-9.2c4.2-2.3,6.8-6.7,10.6-9.9c2.1-1.7,3.9-3.6,5-6.1c0.7-1.6,2-2.9,3.1-4.3
		c3.3-3.8,5.4-8.6,9-12.1c0.5-0.5,0.7-1.4,0.8-2.1c0.8-3.3,1.9-6.6,3.6-9.6c0.2-0.4,0.7-1,0.6-1.3c-0.8-2.3,1-3.4,2.2-4.9
		c-2.1-6.1-3.8-12.4-4.8-18.7c-1.5-8.9-5.4-17.1-7-26c-1.5-8.5-3.6-16.8-4.9-25.3c-1.3-8.9-1.3-17.9-1.1-26.9
		c0.1-2.3-0.2-4.4-1.3-6.5c-1.5-2.9-1.9-6.2-3.3-9.3c-3.2-7.2-2.8-15-3.7-22.6c-0.2-1.6-0.2-3.3-1-4.8c-3.3-6.4-4.9-13.3-6.4-20.2
		c-0.9-4.2-1.8-8.4-2.4-12.7c-1.7-11.8-1.2-23.5,1.4-35.1c0-0.2-0.1-0.5-0.1-0.9c-1.3,0.6-2.2,1.6-3.1,2.5
		c-3.9,3.6-8.1,6.8-11.6,10.9c-3.1,3.6-7.4,6-12.1,6.6c-4.5,0.6-8.7,1.9-12.8,3.5c-4,1.6-8.1,2.2-12.2,2.6
		c-5.9,0.5-11.9,0.6-17.8-0.3c-2.8-0.5-5.5,0.1-8.3,0.6c-12.7,2.1-25.5,3.7-38.2,4.5c-1.1,1.4-1.5,2.8-1.7,4.2
		c-2.7,1.7-5,3.8-8.2,4.2c-0.7,0.1-1.4,0.5-2.1,0.9c-3.7,2.2-7.8,3.7-11.9,4.9c-2.6,0.7-5,1.8-7.2,3.3c-1.9,1.3-4,2.3-6.2,2.8
		c-1.9,0.4-2.1,0.3-3.7-1.9c3.9-0.2,7.3-1.9,10.3-2.7c1.6-0.7,1.2-2,2-2.5c9.2-2.8,17.1-8.3,26.7-11.9c-2.2-1-3.9-1.8-5.6-2.6
		c-4.4-1.9-5-3.6-3.2-8c0.8-2,1.9-3.8,2-6c0-0.8,0.7-1.6,1.3-2.3c3.4-3.6,6.6-7.4,11.7-8.6c0.6-0.1,1.2-0.5,1.8-0.7
		c1.6-2.8,1-6.5,3.9-8.7c1.2,0.5,1,1.3,0.9,2c-0.3,1.4-0.7,2.7-0.9,4.1c-0.6,3.1-1.9,5.5-5.5,5.7c-1.2,0.1-2.1,0.9-2.9,1.7
		c-2,1.9-3.9,3.9-6,5.9c-1.5,1.5-2.2,3.3-2.3,5.5c2.7,0.3,4.3,2.1,5.9,3.7c3.1,0.2,6-1.8,9.8,0c-4.5,0.1-7.5,2.7-11.4,2.7
		c-1.5-1.8-3.2-3.6-5.6-4.6c-0.9,1.1-0.9,2.4-0.4,3.8c1.7,1.3,4,1.6,5.5,3.1c3.2-1.4,6.6-1.5,10-1.5c12-0.2,24-1.6,35.9-3.2
		c5.9-0.8,11.8-1.1,17.8-1.4c4.8-0.2,9.5-0.6,14.1-2.4c3.1-1.2,6.3-1.9,9.5-2.7c10.9-2.6,19.4-8.8,26.7-17.1
		c5.2-5.8,11.4-10.2,18.6-13.3c1.7-0.7,3.4-0.9,5.4-0.6c1.1,1.5,2.9,2,4.8,2.2c7.8,1.2,15.5,2.8,23.3,3.4c7.3,0.6,14.7,0.4,22,0.2
		c1.9,0,3.8-0.3,5.7-0.3C482.2,412.2,487.7,411.3,492.4,408c1.2,0.4,2,0.4,2.5-0.9c0.7,0.1,1.3-0.2,1.7-0.7c2.5-2.7,5.4-4.9,7.7-7.8
		c4.4-5.8,7.8-12.1,10.2-19c1.7-4.9,2.5-10,1.8-15.3c-0.9-6.7-2.8-13.1-4.4-19.6c-1.4-5.4-4.7-8.1-9.7-9.5c-0.5-0.1-1-0.3-1.5-0.4
		c-6.1-1.9-12.4-1.9-18.8-1.9c-8.4,0-16.6,1.8-24.8,3.2c-6,1-11.9,2.4-18.1,1.7c-1.8-0.2-3.5-0.3-4.8-0.1c-3.9-3-8.1-0.7-11.7-2
		c-1.9,9.3-6,17.4-7.3,26.8c6-3.2,12.3-4.4,18.1-7.2c12.5-5.9,25.3-11,38.6-14.6c7.4-2,14.8-2.3,22.1,0.9c1.7,0.8,3.4,1.6,4.9,2.2
		c4.1-1.6,7,0.2,9.8,2.4l-0.2,0.2c-2.7-0.5-5.1-2.3-7.5-2.3c-1,0.3-0.3,1.1-1.1,1.3c-5.3-2-10.6-4.5-16.4-4.5
		c-5.7,0.8-11.2,2-17,4.8c2.4,0.6,4.2,0.9,5.9,1.4c7.7,2.2,13.8,6.8,17.9,13.7c1.2,2.1,2.3,4.2,3.8,6.1c2.9,3.6,4.1,7.8,4.6,12.2
		c0.1,1.1,0.2,2.3,0.4,3.4c2.2,8.8,0.6,17-4.2,24.6C493.9,406.8,493.4,408.2,492.4,408z M480.5,110c-0.1-0.1-0.2-0.2-0.3-0.4
		c-0.4-0.5-0.6-1.1-1.7-1.3c-1.8,1-4,2.2-6.6,3.6c2.1,0.9,3.8,0.9,5.2,1.8c2-0.7,3.4-1.8,4.5-3.4C481,110.1,480.8,110.1,480.5,110z
		 M481.3,107.7L481.3,107.7c0.8,1.5,2.8,1.3,4.2,2.7c1.2,2.2,2.5,4.8,3.9,7.5c0.4-3.8-0.2-8.7-1.3-11.6c-0.2-0.6-0.5-1.2-0.8-1.7
		c-2.5-4.5-6-4.9-10.9-1.2c0.9,1.1,2.1-0.4,3.1,0.3c-0.1,0.9-1.3,0.8-1.2,1.8C479,106.6,480.4,106.9,481.3,107.7z M494,199.7
		c-0.9-2-3-2.5-4.4-4c-9.1,7.7-15.2,17.9-23.7,26.6c4.3-1,8.1-1.9,11.9-2.8c0.5-2.5,0.8-4.8,1.7-6.8c2.9-6.6,7.8-10.9,14.7-13.1
		c0.7,1.4-0.4,1.7-1.2,2.3c-4.5,3-8.1,6.9-11.1,11.3c-1.2,1.8-1.8,3.7-2.2,6.3c2.9-1.5,6.1-0.1,8-3c0.4,1,0.8,1.7,0.6,2.7
		c-7.7,3.8-16.4,4-24.7,6.2c-1.1-0.3-2.3-0.8-3.5-1.1c-2-0.4-3.9-1.1-6-0.7c-5.8,1.1-11.7,2-17.3,4c-6.1,2.2-12.4,3.3-18.9,3.4
		c-4.5,0-8.7-0.6-12.4-3.8c-2.3-2-5.3-3.3-7.5-5.5c-0.2-0.2-0.4-0.3-0.6-0.4c-4.9-2.5-9.1-6.3-14.8-7.3c-0.3,0-0.5-0.1-0.8,0.4
		c-0.6,0.4,0.9,1.1,0.1,1.7c-2,0.4-1.3-1.8-2.2-2.3c-1,0.4-1.2,1.1-0.8,1.9c1.2,2.4,3.2,3.5,5.8,3.5c0.8,0,1.8-0.5,2.2,0.9
		c-3.1,1.2-7,0.1-9.3,2.9c-5,0.2-5.3,0.3-7.8,1.9c-0.2,0.8-0.5,1.7,0.1,2.6c4.5,0.6,9.1-0.3,13.6,0.9c-2,1.5-4.3,1.1-6.4,1.2
		c-2.2,0.2-4.5-0.4-6.2,0.1c-1,0.9-0.4,2-1.3,2.1c-1.5-0.7-3-1.4-4.5-2.1c-0.2,2.6-0.2,2.6,1.5,4.9c4.7-1.9,12.1-0.8,16.8,2.6
		c-3.7,1-6.6-1.5-9.8-1.6c-0.8,0.8-0.4,2.1-1.6,2.8c-0.8-1.2-1.3-2.8-3.2-3.4c-0.7,2.5,1.4,3.9,1.7,5.6c1.8,0.9,3.6,0.9,5.3,1.3
		c1.6,0.4,3.2,0.6,4.8,1.2c1.5,0.5,3.5,0.1,4.3,2.5c-4.2,0.3-7.7-2.5-11.7-1.2c-0.4-0.7-1-1.2-1.8-1.1c-0.6,0.3-1,0.7-1.1,1.6
		c0.6,2.1,2.7,2.3,4.5,2.7c3.1,0.7,6.1,1.4,8.9,3c2,1.1,4.2,1.7,6.6,1.5c5.3-0.3,10.5-1.2,15.6-2.6c7-1.9,14-2.9,21.3-1.1
		c8.6,2.1,17.4,3.6,26.3,2.3c3.4-0.5,6.7-1.2,10.1-1.9c0.7-0.1,1.4-0.7,2,0.2c0.1,0.8-0.7,1-1.2,1.2c-6.6,2.4-13.4,4.3-20.4,3.1
		c-6.5-1-13-1.7-19.4-3.2c-4-0.9-8.1-0.9-12.3-0.3c-4.2,0.6-8.1,2.1-12.1,3c-1.6,0.3-3.6-0.4-4.9,1.3c-0.8,6.8,4.5,14,11,14.9
		c1.7,0.2,3,1,4.6,1.7c-0.8,0.9-2.2,0-2.7,1.7c0.7,2.3,0.6,5.2,2.1,7.6c1.4,0.1,2.7,0.4,3.9,0.3c5.6-0.4,11.1-0.3,16.7-0.2
		c3,0.1,6-0.7,9-0.4c5.3,0.5,10.5,1.3,15.8,1.8c5.1,0.5,10.3,0.8,15.1,1.1c1.8-1.1,2.8-2.6,4.7-3.2c-0.1,1.9-2.2,1.9-2.3,3.7
		c7.7,0.3,15.3,0.2,22.7-2.5c2.1-6.5,3.9-13,7.4-19.2c-9.1,1.5-13.5,2.2-17.3-7.6c-15.7-1-17.1-1.3-19.3-3.8
		c0.6-0.9,1.5-0.7,2.4-0.5c3.3,0.7,6.7,1.2,10.1,1.5c3.6,0.3,7.1-0.3,10.7-1c5.7-1.1,11.4-2.1,17-3.8c0.5-0.1,1-0.2,1.5,0.2
		c-5.5,4.8-12.5,5.3-19.2,6.7c1.7,5.8,7.1,8,15.2,6.2c3-5.4,6.3-10.6,8.1-16.9c1.8-6.6,3.4-13.2,4.4-19.9c0.9-5.8-1.8-10.5-7.1-12.9
		c-2.9-1.3-5.5-3-8.1-4.8C499.3,203,497.3,200.4,494,199.7z M422.7,333c2.6,0.9,4.9,0.5,7.2,0.7c8.4,0.8,16.8,1.9,25.3,0.4
		c6.9-1.2,14-1.6,20.8-2.9c10.4-1.9,20.1-0.6,29.6,3.3c0.5,0.2,0.9,0.4,1.4-0.3c-3.6-7-7.3-14.1-9.3-21.8c-0.1-0.4-0.3-0.7-0.5-1
		c-4.4-6.5-4.9-13.6-3.5-21.1c0.4-2,1.3-4.1,0.9-6.5c-4.1,2.4-8.6,1.3-12.5,2.3c-1.7,1.6-2.7,3.5-4.7,4.7c-0.2-2.2,2.1-2.8,2-4.8
		c-3.2,0.5-6.1-0.9-9.1-0.7c-3.5,0.2-7.1-0.2-10.6-0.3c-10.7-0.5-21.2-3.6-32.1-2.2c-0.1,0-0.3,0-0.4,0c-5.3-0.7-10.5,1.2-16.2,0
		c0.9,3.5,1.8,6.3,3.2,8.9c5,9.3,7.3,19.3,8.5,29.7C423.4,325.3,422.7,329.1,422.7,333z M424.9,206.3c-4.3,0.4-7.9-1.3-11.2,0
		c-5.2,2-10.9,1.7-16,4c-3,1.4-6.4,1.8-10.2,3.7c8,2.6,13.2,8.3,19.5,12.4C412.6,219.6,418.5,213.3,424.9,206.3z M440.8,199.1
		c-3.2,0.4-8.8,3.3-10.6,5.7c-6.1,8.2-13.5,15.1-20.6,23.1c5,1.7,9.7,2.1,14.5,0.2c0-0.2,0.1-0.4,0-0.5c-0.1-0.4-0.2-0.7-0.3-1.1
		c-1.6-6.1,0.2-11.6,4.5-15.6C432.5,207.1,436.1,202.6,440.8,199.1z M456.4,105.5c0.6,0.6,1.1,0.3,1.6,0.2c2.5-0.9,5-1.9,7.8-0.7
		c0.7,0.3,1.6,0.5,2.4,0.7c1.9,0.7,2.4,0.5,4.4-1.2C467,102.5,461.7,102.6,456.4,105.5z M471.4,132.7c4.9,2.9,10.3,2.5,15.5,3
		c0.9-1.2,0.6-2.1-0.1-3C481.7,135.8,476.6,133.8,471.4,132.7z M483.5,155.1c-1,0.4-1.3,1-1.3,1.6c0,4.4-0.8,8.7-1.8,13
		c-0.4,1.5-0.3,3.1,0.4,4.6C481.1,167.9,483.5,161.8,483.5,155.1z M473.5,103.1c2.4-0.7,4-2.2,6.5-3.3
		C475.5,99.1,475,99.4,473.5,103.1z M483.9,178.8c-1,1.7-2.2,3.4-2,5.5C483.3,182.7,483.9,180.8,483.9,178.8z M369,227.1
		c-2.3-0.9-2.3-0.9-3.9,0.6C366.4,228.4,367.5,227.8,369,227.1z M480.9,157.5c-2.1,1.1-0.7,2.6-0.9,3.8
		C480.8,160.2,481.4,159,480.9,157.5z M472.6,100.8c-0.9,0.3-1.7,0.3-1.5,1.3C472,102.4,472.5,102,472.6,100.8z"/>
	<path d="M854.3,515.9c1.8-1.8,4.6-1.6,6.6-3.2c1.1-0.8,2.5-1.3,2.3-2.9c10.1-2.4,19.2-6.7,28.4-10.4c4.7-1.9,9-4.6,12.8-8
		c6.1-5.3,11.6-11.2,16.2-18c1.2-1.7,1.5-4,3.1-5.4c2,0.7,1.6,2,1.1,3.2c-0.9,2.5-2.3,4.8-3.7,7c-3.2,4.9-7.1,9.2-12.2,12.8
		c6.9,3.3,13.3,2.4,19.2-1c2.7-1.6,3.8-5,3.5-8.3c-0.3-2.8-0.6-5.5-0.3-8.3c0.1-0.7,0.1-1.6-0.1-2.3c-2-6.9-3.7-13.9-7-20.4
		c-0.6-1.2-1.3-2.6-2.3-3.4c-3.6-2.9-6.4-6.4-9.2-10c-4.2-5.4-10-8.8-16.1-11.9c-8.2,8.4-13.9,18.2-17.9,29.9
		c2.2-1.9,2.3-4.7,4.7-5.6l-0.1-0.1c-1,2.5-2,4.9-2.9,7.4c-0.9,2.4-1,5.2-2.2,7.3c-1.4,0.3-1.3-0.9-2-1.2c-0.5,0.3-0.6,1.2-1.7,0.6
		c1.1-15.8,9.8-27.8,20.6-39.1c-2.6-1.4-4.5-3.3-7.3-4c-3.1,5.4-6.3,10.7-8.1,16.6c-2,6.5-4.2,13-6,19.6c-1.5,5.5-4.4,10.2-7.4,14.9
		c-0.6,1-1.3,2.2-2.7,2.4h0.1c0.3-3.4,1.7-6.3,3.4-9.1c1.3-2.1,2.1-4.3,2.8-6.6c2.2-7.8,4.4-15.6,7.4-23.1c1.3-3.3,2.9-6.4,4.7-9.5
		c1.2-2.1,2.7-3.9,5-5.7c-5.4-2.9-8.6-7.4-11.7-12c-1.7-2.4-2.6-4.9-2.5-7.7c0.1-2.7-0.1-5.3,1-8.2c-1.5-0.3-3.2-0.1-3.6-2
		c1-0.8,1.8,0.9,2.8,0.4c4.5-2.5,7.6-6.1,8.9-11.2c0.6-2.6,0-4.7-2.1-6.2c-1.5,0-2.2,0.8-2.6,1.9c1.1,0.6,1.5-0.8,2.5-0.8
		c1.2,1.2,1.5,2.8,1.7,4.6c-2.1,0.3-1.2-2.1-2.6-2.3c-0.2,0.2-0.5,0.4-0.7,0.6c-0.3,1.5,1.9,1.8,1.4,3.3c-0.7,0.6-1.2,0.2-1.7-0.2
		c-0.4-0.3-0.8-0.6-1.3-1c-0.8,1.4,0.9,2.4,0.1,3.9c-2.2,0.3-1,3.2-2.8,4.3c-1.1-0.4-1.3-1.4-1.2-2.7c2.3-1.5,2.4-4.2,2.6-6.9
		c-1.7-1.1-3.7,1-5.9-0.1c2-0.5,2.1-2.8,4.6-3.1c-2.1-1.1-4.2-0.1-5.4-2.5c3,0.3,5.7,0.8,8.7-0.2c-3.7-0.6-7.5,0.1-9.5-3.8
		c4.2,3.2,9.6,1.9,14.2,3.9c0.9-0.8,1.1-1.9,1.3-3.5c-2.6,0-5,0-7.5,0c-2.6,0-5-0.8-7.4-1.5c-1.4-0.4-2.8-1.1-3.5-2.5
		c0.4-0.3,0.6-0.5,0.9-0.8c-0.3-1-2-1-1.9-2.4c0.7-0.7,1.4,0.9,2.1-0.3c-1.4-1.2-2.4-2.8-3.8-4.5c2-0.2,2.4,2.1,4.1,1.8
		c-0.1-0.5-0.3-1.1-0.5-2.1c2.2,1.4,4.2,1.4,6.5,0.5c-2-0.9-4.3-0.7-6.5-2.7c5,0.9,9.1,2.2,13.5,1.9c-2.2,1.9-5.3,1.1-7.9,2.7
		c1.8,1.1,3.6,0.7,5,0.8c1.6-0.1,2-1.9,3.5-1.7c0,0.7-1.3,1.4,0.1,2.2c-3.6,1.5-7.3,0.4-11.1,1.4c3,1.2,6,1.1,9.5,2.2
		c-3.2,1.1-5.6-0.3-8.5-0.2c4.6,2.7,8.7,2.4,12.9,0.2c1.4-0.7,2.1-1.7,1.2-3.2c-1.6,0.4-2.6,2.4-4.9,1.8c1.9-1.4,3.5-2.5,5-3.6
		c0.3-1,0.5-1.9-0.1-2.8c-0.6,0.4-1.2,0.9-1.8,1.3c-0.7,0.4-1.4,1.1-2.4,0.9c0.9-2,3.5-2.4,4.2-5.1c0.1-0.6-0.2-1.5-0.8-2.5
		c-0.3,0.1-0.7,0.1-1,0.3c-1.8,1.3-3.6,2-6,1.4c-2-0.5-4.2-0.1-6.9-0.1c2.5,2.2,5.5,0.8,7.9,2.4c-5,0.8-9.2-2.2-14.5-0.9
		c1.2-2.2,2.5-2.4,3.9-2.3c4.2,0.1,8.3-0.4,12.3,0.2c1.4-0.8,2.6-1.5,3.7-2.8c-0.8-1.9-2.1-3.5-3.7-5.4c-2.3,3.7-6.2,4.1-10.3,5.3
		c3.6,1.1,6.5-0.8,9.5,0c-3.6,0.9-7,2.2-10.9,0.8c-1.5-0.6-3.6,0.4-5.4-0.1c-0.5-0.7,0-1.1,0.4-1.6c0.1-0.1,0.2-0.2,0.3-0.3
		c3,0.9,5.9,0.4,9-1.1c-2.5-0.9-4.5,0.4-5.9,0.4c-1.9-0.2-2.4-1.4-3.4-1.9c-1.1-0.5-1.9-0.2-2.1,1.2l0.1-0.1c-0.6,0-0.9-0.4-1.2-0.8
		c-0.2-0.3-0.1-0.6,0.2-0.6c3.3-0.6,6.2-2.9,9.8-1.9c1.5-0.9,2.9-1.8,4.5-2.7c-0.9-1.5-2-1.6-3.5-1.3c-4.1,1.1-8.2,2-12.3,3
		c-1.2,0.3-2.3,0.5-3.7,0.3c-2.4-0.4-4.1,1.6-6.7,2.4c-1.3-0.7-2.9-0.5-4.3,0.8c-0.6-0.4-1.2-0.7-1.9-1.1c2.6-1.5,4.7-3.4,7.3-4.6
		c0.1-0.5-0.7-0.4-0.8-1.1c1.6-1.8,4.3-1.4,6.9-3.5c-5.2,0.9-9.9,0.6-13.3,4.6c1.6,1,2.6-1.8,4.3-0.4c-1.9,1-2.8,3.2-5.4,3
		c-1.4-0.1-2,1.7-3.5,2.2c0-0.5,0-0.9,0-1.2c1-0.7,2.3-1.2,1.8-3c-1.1,0.7-1.7,1.6-2.1,2.6c-0.7,0.8-1.5,1.7-2.2,2.5
		c-1.1-0.6,0.6-1.4-0.4-2.1c-5.6,5.2-6.3,12.6-9.2,19.3c2.8,0.2,5.5-0.2,8.1,1.3c-2.6,2.8-5.7-1.2-8.3,1c-0.1,1.3,0.3,2.8,1.1,4.3
		c1.3,0.6,2.5-0.6,3.7-0.1c1,0.4,2.1,0.8,3,1.8c-1.7,0.8-1.8,2.9-3.4,3.8c-2-0.1-2.6-1.7-3.4-3.6c-2.5,7.3-3.7,14.2-1.4,21.4
		c1.3,4.3,3,8.6,4,13.1c0.4,2,1.4,3.8,2.8,5.4c2.1,1.2,4.6,0.9,7.4,1.7c-3.1,1.7-5.4,0-7.7,0c-2.6-2.6-3.7-5.8-4.5-9.2
		c-0.6-2.3-1.3-4.6-2.3-6.8c-2.9-6.5-3-13.2-1.4-20.1c0.7-3,1.5-5.9,0.5-8.9c-0.9-2.7,0.2-5.3,0.8-7.8c1.5-6.2,3.4-12.2,7.2-17.4
		c1.1-1.5,2.3-2.6,3.9-3.5c9.4-5.3,19.5-6.9,30.1-5.1c0.9-0.1,1.4-1,2.1-1.4c4.7-2.8,9.6-2.9,14.5-0.4c3.2,1.6,5,4.3,5.3,7.8
		c0.4,4.6,0.9,9.2,0.3,14c-0.8,6-0.3,12.1,0.8,18.1c0.6,3,0.9,6,1.1,9c0.2,2.3,0,4.5-0.7,6.7c-0.7,2.5-0.6,5.3-0.8,7.9
		c-0.3,4.4-1.1,8.8-2.3,13.1c-0.4,1.4-0.8,2.9-2,3.9c0.2,0.8,0.8,1.3,1.5,1.7c5.1,3,9.9,6.5,15.3,9.2c7.6,3.8,13.9,9.2,18.5,16.4
		c0.3,0.4,0.5,0.9,0.9,1.2c9,9.8,13.1,21.7,14.7,34.6c0.4,3.2,1.6,6,2.4,9c1.4,5,2.5,10,2.9,15.2c0.6,6.9,2.2,13.7,3.9,20.5
		c1.7,7,3.8,13.9,7.8,20c2.9,4.4,4.8,9.5,6.2,14.6c1,3.7,2,7.3,3.2,10.9c1.3,3.7,1.8,7.6,1.5,11.6c-0.3,3.9-0.7,7.8-1.1,11.7
		c-0.2,2.7-0.8,5.2-2,7.7c-1,2.2-1.9,4.4-2.7,6.7c-2.9,8.3-9,13.6-16.4,17.7c-2.4,1.3-4.8,2.6-7,4.4c-4.1,3.4-9.3,4.4-14.4,5.3
		c-10.8,1.9-21.7,1.8-32.6,1.6c-1.1,0-2.3,0-3.8,0c3.4,3.7,5,8.1,6.5,12.5c0.5,1.3,1.3,2.4,2.1,3.6c0.6,0.9,1.5,1.9,1.7,2.9
		c0.5,2.5,2.6,4.9,1,7.6c-1.9,3.3-4.2,6-7.9,7.3c-5.9,2.1-11.7,4.3-18.4,2.4c0,0-0.4-0.5-0.7-1.1c-0.4,0.3-0.9,0.5-1.2,0.9
		c-1.8,2.1-2.8,4.8-4.3,6.9c-2.2,3.1-5.2,6-8.9,7.4c-5.5,2.2-11.2,4.1-17.2,4.4c-1.6,0.1-3.2,0-4.8,0.9s-3.5,0.6-5.2,0.2
		c-3.7-0.9-7.4-1.7-11-2.9c-3.3-1.1-7.4-5-6.8-11.5c0.4-1.1,1.4-1.7,2.4-2.3c5.1-3.2,9.5-7.1,13.2-11.9c1.6-2.1,3.2-4.3,5.4-5.9
		c3.3-2.3,5.5-5.4,7-9.1c1.6-3.8,3.3-7.6,5.6-11.1c-1-0.9-1.9-0.5-2.7-0.3c-5.1,1.4-9.6,3.8-13.2,7.7c-7.8,8.5-16.5,15.6-27.2,20.2
		c-8.8,3.8-17.6,7.6-27.3,8.6c-2.5,0.3-5,0.6-7.6,0.6c-16.1,0.2-32.1,1.3-48,3.9c-2.4,0.4-4.8,0.4-7.2,0c-6-1-12.1,0.1-18.2-0.3
		c-1.4-0.1-2.8,0.2-4-0.6c1.3-2.8,4-2.4,6.3-2.4c6.2,0.1,12.4-0.7,18.6,0.2c1.4,0.2,2.8,0.1,4.2-0.2c5.8-1,11.6-1.4,17.3-2
		c10.2-1.1,20.4-1.7,30.6-2.1c8.2-0.4,16.4-1.5,24.1-4.7c2.8-1.2,5.7-2.1,8.5-3.4c11.6-5.1,22.4-11.2,29.7-22
		c1.8-2.6,4.1-4.3,7.1-5.4c7.7-2.9,15.6-3,23.6-2.6c4.3,0.2,8.6,0.7,12.9,0.5c6.8-0.3,13.7-0.7,20.5-0.7c6.1,0,12.2,0,18.2-0.3
		c5.6-0.3,11.1-0.9,16.6-1.5c3.7-0.4,7.3-1.8,9.6-4.8c3-3.9,5.4-8.4,6-13.4c0.8-6.8,0.9-13.7-0.7-20.4c-1.7-7-3.8-13.9-10.1-18.6
		c-5.4-4-10.8-7.9-17.3-10.1c-0.9,0.2-1.9,0.3-2.9,0.6c-5.5,1.7-11.5,1.7-16.3,5.5c-0.4,0.3-1,0.3-1.4,0.4c-10.1,3-20,6.3-29.8,10.1
		c-1.3,0.5-2.7,0.7-3.9,1c-3.8,1-7.6,1.7-11.2,3.4c-3.6,1.7-7.2,3.9-11.4,3.9c-2.8,0-5.2,0.9-7.3,2.6c-1.7,1.3-3.5,2.5-5.2,3.8
		c-6.4,4.9-11.8,11.2-19.1,14.9c-0.1,0.1-0.2,0.2-0.3,0.2c-3.6,3.5-7.9,5.8-12.2,8.2c-5.9,3.2-12.2,5.6-17.7,9.6
		c-0.7,0.5-1.6,0.8-2.4,1c-7.7,2-15,5.4-22.8,7.2c-3.3,0.8-6.6,1.8-9.7,3.3c-4.8,2.3-10,3.7-14.9,5.6c-5.3,2.1-11,2.6-16.1,5.1
		c-0.6,1.1,0.1,2.3-1.1,3.8c-2.2,1.5-5.5,1.4-7.2,2.2c-6.8,5.2-12.6,9.8-14.4,17.9c0.4,0.9,0.6,2.5,2,3.4c0.2,0.7,0.5,1.4-0.2,2.1
		c-1.8-0.6-1.8-0.6-4.1-3.6c0-1.5-0.1-2.9,0-4.3c0.5-4.8,2.4-8.9,6.7-11.3c5-2.9,9.6-6.6,15.5-7.9c0.1-2.4,0.2-4.6,0.3-7
		c-6.8-5.7-14-11.3-15.7-21.5c0.4-0.8,0.3-2.3,0.1-3.8c-0.8-5.3-1.6-10.5-2.4-15.8c-0.1-0.7-0.4-1.6-0.1-2.3
		c1.8-5.9-0.6-11.2-2-16.5c-4.5-4.2-10.4-3.9-15.9-5.6c-6.7,8.1-15.1,14.8-20.1,24.5c-3.8,7.5-5.6,15.1-4.8,23.5
		c0.6,0.1,1.2,0.1,2.1,0.2c1.1,5.8,4.4,11.2,2.5,17.8c2.8,0.5,5.8,0,8.4,1.2c2.5,1.2,5.4,0.8,8.1,2.6c-2.1,0.3-14.2-1.6-17.1-2.6
		c-1.1,3.8-3.8,6.8-4.9,10.6l0.1-0.1c-0.6,0.4-1.1,0.8-1.7,1.1c-0.2-1.3,1.1-2.3,0.6-4.2c-3.3,6-6.9,11.2-8.2,17.6
		c-1.1,5.3,0,10,3.1,14.4c0.6,0.8,1.6,1.6,1.6,2.5c0.1,2.3,1.3,3.8,3,4.9c2.2,1.4,4.5,2.9,7.4,2.5c0.9-0.1,1.8,0,2.5,0
		c4.6-4.9,8.2-10.4,12.2-15.6c-1.2,4.2-3.3,8-6.3,11.8c3.6-0.6,6.6-1.5,9.4-3.1c4-2.4,8.2-4,12.8-4.5c2.2-0.3,4-1.4,5.9-2.6
		c0.9-0.6,1.7-1.5,2.9-1.3c0.6,1.1-0.2,1.6-0.7,2c-2.3,2.3-5,3.8-8.2,4.5c-3.6,0.8-7,2.2-10.1,4.1c-2,1.3-4.3,2.1-6.7,2.6
		c-1.7,0.4-3.4,0.9-4.9,1.9c-1.4,1-2.9,1.6-4.3,0.1c-5.1,4.1-13.3,2-16.1-4c-0.8-1.7-1.8-3.3-2.8-4.9c-1.8-3-2.6-6.2-2.4-9.7
		c0.2-2.9-0.4-5.7,0.3-8.6c1.9-7.7,5.8-14.2,11.1-20.1c0.5-0.5,1.2-0.9,1.9-1.3c0.5-1.8,1-3.6,1.5-5.4c-0.8-4.1-1.7-8.2-2.6-12.8
		c-0.2,1.4-0.3,2.1-0.4,2.9c-3.6-9.4-2.5-16.8,2.8-28.5c3-6.7,7.7-12.5,12.1-18.3c1.1-1.4,2.8-1.4,3.9-2.7c1.5-1.7,3.3-3.2,5.2-5
		c5.9-0.9,11.2,1.5,16.4,4.6c1.1,0.7,1.7,1.9,2.2,3c2.2,5,4,10.1,2.4,15.8c-0.3,1.2,0,2.5,0.2,3.8c0.7,4,1.3,8,1.8,12
		c0.4,3.1,0.7,6.3,0.1,9.4c3.2,5.6,7.6,10.2,12.3,14.5c2,1.8,3.8,3.6,3.7,6.5c1.2,0.5,2.2,0.7,3-0.1c1.8-1.8,4.1-2.3,6.4-3
		c10.2-3.3,20.3-7,30.4-10.6c7.3-2.6,14.5-5.3,21.9-7.3c1-0.3,2-0.6,2.8-1.2c6.3-4.4,13.5-7,20.2-10.4c2.4-1.2,4.6-2.4,6.6-4.4
		c3-3.1,6.8-5.3,10.5-7.4c1.1-0.6,2.4-1.1,3.2-2c3.2-3.6,6.6-7,11-10c-3.4-3.3-5.7-7-8.7-10.3c-6.9-7.7-12-16.6-15.8-26.2
		c-1-2.5-1.6-5.1-2.1-7.9c-1.4,0-2.7,1.3-4,0.5c-0.2-1,0.9-1,1.4-1.6c-0.3-0.9-1.5-0.7-1.9-1.5c3.2-1.9,7.5-2,9.4-5.6
		c1,0,0.6,0.7,0.9,1.3c2.5-1.3,5.7-0.7,7.9-3l-0.1,0.1c4.2-0.9,8.4-1.6,12.6-2.6c2.8-0.7,5.6-1.6,8.2-2.9c7.2-3.6,14.7-6.6,22.4-9.2
		c1.1-0.4,2-0.9,2.5-2.1L854.3,515.9z M877.3,339.6L877.3,339.6c0.8,1.5,2.8,1.3,4.2,2.7c1.2,2.2,2.5,4.8,3.8,7.3
		c0.3-3.9,0.1-7.7-1.2-11.4c-0.2-0.6-0.5-1.2-0.8-1.7c-2.6-4.6-6-4.9-10.9-1.2c0.9,1.1,2.1-0.4,3.1,0.3c-0.1,0.9-1.3,0.8-1.2,1.8
		C875.1,338.5,876.4,338.8,877.3,339.6z M941.7,562.1c0,1,1.6,1.1,1.3,2.5c-8.4-6-17.6-6.9-27.4-6.1c0.5,1.1,1.5,1.1,2.2,1.4
		c6.9,3.1,13.3,7.1,17.4,13.6c5.5,9,8.1,18.7,6.2,29.4c-1,5.6-2.8,10.9-4.5,16.3c0.7,0.1,1-0.3,1.4-0.6c5.1-4.4,9.5-9.4,13.2-15.1
		c3.8-5.8,6.7-12.1,7.1-19c0.4-7.3-0.5-14.6-2.7-21.7c-0.7-2.4-2.1-4-4.2-5c-4.9-2.4-9.9-4.4-15.3-5.5c-5.5-1.1-11.1-1-16.6-1.5
		c-2.5-0.3-5-0.4-7.5-0.1c-8.7,1-17.3,2.5-26,2.5c-1,0-2.3-0.2-3.2,1c1,2.7,2,5.3,3.1,8.1c0.4-0.1,0.8,0,1.1-0.2
		c6.7-3.1,13.9-4.6,21.2-5.6c5.4-0.7,10.8-1.6,16.2-0.3c4.5,1.1,9.1,1.9,13.4,3.8C939.3,560.6,940.5,561.4,941.7,562.1z M901.7,505
		c1.6,1.5,0.7,2.5,0.1,3.4c-6.5,9.5-14.9,15.8-27,15.7c-3.7,0-7.4,0.7-11.5,0.1c1.7,3.3,3.3,6.1,5.3,8.4c0.9,0.3,1.4-0.5,2.3,0
		c4.8,5.2,6.1,12.6,9.6,18.7c3.1-0.6,6-0.7,8.9-0.8c9.2-0.2,18.4-1,27.6-1.7c10.5-0.8,20.4,0.5,30.1,4.4c2.4,1,4.7,2,7.6,3.8
		c-2.6-6.3-5-11.5-7.8-16.6c-5.9-10.5-9.7-21.7-10.8-33.7c-0.5-5-1.2-10-2.1-15c-0.3-1.7-0.5-3.4-1.4-4.9c-3,4.5-6.9,7.2-11.7,8.7
		c-5.1,1.6-9.9,1.1-14.3-2.3c-2.7,2.4-5.7,4.3-8.8,6c-7.4,4.3-15.3,7.3-23.1,10.5c-1.8,0.7-3.7,1.1-5.5,1.2
		c-1.2,0.1-2.2,0.3-3.2,0.9c-1.8,1-3.6,1.7-5.5,2.6c-2.2,1.1-4.4,2.3-6.4,4.5c1.7-0.1,2.5,0.7,3.5,1.2c4.3,1.8,8.8,3.1,13.6,2.7
		c6-0.5,11.3-2.8,16.3-5.7C893.1,514,897.9,510.2,901.7,505z M822.5,585.9c2-0.9,3.6-2.2,5.4-2.4c3.3-0.3,5.9-2,8.8-3.3
		c3.5-1.5,6.7-3.5,10.4-4.6c9-2.6,18-5.3,27-7.7c2.7-0.7,4.5-2.2,5.5-4.7c0.5-1.3,1.1-2.6,1.6-3.9c0.8-2.2,0.5-4.2-0.7-6.2
		c-2.1-3.6-4.2-7.2-6.1-10.9c-1.3-2.5-2.8-4.7-5.1-6.4c-4.3-3.3-7.2-7.7-8.9-12.8c-2.2-2.1-5.4-1-7.5-3.1c-3.8,1.7-7.5,3.4-11.2,4.9
		c-3.4,1.4-7.1,2.1-10.3,3.9c-4.4,2.5-9.1,3.5-13.9,4.6c-3.2,0.7-6.4,1.2-9.5,2.5c-1.8,0.7-3,2.1-4.7,2.8c-2.1,0.8-4.2,1.5-6.3,2.2
		c0,0.4-0.1,0.6-0.1,0.8c2.1,8.8,6.4,16.5,11.6,23.7C813.2,572,817.9,578.7,822.5,585.9z M840.2,640.4c2.7-0.2,5.3-0.3,7.7,0.3
		c2.2,0.6,5.1,0.1,6.4,3.2c-2.7,1.4-5.1,0-7.5-0.3c-2.6-0.3-5.2-0.9-7.9-1.3c-0.8,1.3-1.5,2.6-1.7,4.1c8.5-0.2,9.7,0.1,11.8,2.6
		c-2,1.8-4.6,1.7-12.8-0.4c-1,0.7-1.6,1.8-2.1,3.1c2.5,0.7,5.8-0.6,7.4,3.1c-3.8,3.3-7.7-0.9-11.6,0.2c-1.9,1.6-4,3.3-5.5,5.5
		c-3.6,5.2-8.3,9.1-13.5,12.7c-0.7,0.5-1.7,0.7-1.7,2.2c3.2,0,6.4,0,9.2,0c1.6,1.6,2.8,2.7,3.9,3.9c1,1.1,2.7,1.6,3.2,3.5
		c-3.9-0.3-5.5-3.3-7.9-5.5c-2.5,0-5.2,0-7.8,0c0.8,3,2,3.9,5.2,5.2c6,2.5,12.3,2.3,18.5,2c7.6-0.3,14.5-3.3,21.1-6.8
		c0.6-0.3,0.9-0.7,1.3-1.3c2-3,4-6,6.3-8.9c2.2-2.8,5.2-4.3,8.7-6c-0.4,2.1-2.6,2.5-2.6,4.6c7-1.9,14.5-1.6,20.2-6.9
		c0.1-1.2,0.2-2.3,0.4-3.4c0.6-0.1,1.1-0.1,1.3-0.6c0-0.1,0-0.3,0-1.1c-4.1-6.6-5.1-15.4-11.1-22c-7.5-1.5-24.9-1.1-36.5,0.4
		c0.1,0.9,0.2,1.8,0.3,2.8c4,0,7.8,0.4,11.5,1.3c1.1,0.3,2.2,0.6,2.1,2.5c-5-0.3-9.9-1.4-14.9-1.4c-0.3,0.4-0.6,0.8-0.9,1.2
		C840.4,639.1,840,639.5,840.2,640.4z M880.5,385c0.4,1.8,0.4,3.4,0.1,5.1c-0.7,5.4-1.9,10.7-2.2,16.1c0,0.6-0.3,1.2,1,1.7
		c1.4-7.8,2.8-15.4,4.3-23.3c0.9,1.1,0.6,2.2,0.6,3.2c-0.2,4.1-1.2,8-2.1,11.9c-0.3,1.5-0.5,2.7,0.9,3.6c-0.1,1.1-0.3,2.3-0.3,3.4
		c0,1.2-0.5,2.5,0,3.8c3.4-7.4,4.9-34.9,2.3-42.2c-0.7,1.7-1.4,3.3-2.9,4.9C885.6,377.4,882.9,381.1,880.5,385z M877.7,342.2
		c-1.6-0.3-2.2,1.6-3.4,0.7c0.1-0.9,1.8-1,1.1-2.6c-2.8,0.3-4.7,2.2-7.8,3.7c2.5,0.5,4.2,0.8,5.5,1.6
		C875,344.9,876.3,343.8,877.7,342.2z M852.7,337.6c3.1-1,6.1-1.9,9.4-0.9c0.7,0.2,1.4,0.5,2.1,0.7c2,0.7,2.3,0.6,4.6-1
		C863.1,334.2,857.7,334.6,852.7,337.6z M867.4,364.5c4.9,2.9,10.3,2.5,15.5,3c0.9-1.2,0.6-2.1-0.2-3
		C877.7,367.7,872.6,365.6,867.4,364.5z M879,387.1c-1,5-1.4,10.1-2.7,15.1c-0.2,0.7-0.2,1.5,0.8,2.6
		C877.6,398.6,879.5,393,879,387.1z M875.5,332c-3.8-1.2-5-0.5-5.7,3.4C871.8,334,873.5,332.7,875.5,332z M883.8,559.8
		c-1,1.5-1.9,2.8-1.9,4.6c1-0.5,1.7-0.9,2.6-1.4C884.3,561.9,884,560.8,883.8,559.8z M876.8,389.1c-1.8,1.4-0.8,2.6-0.8,3.8
		C876.8,391.9,877.4,390.8,876.8,389.1z M868.8,333c-1.1-0.5-1.5,0.2-1.8,0.8C868,334.5,868.3,333.8,868.8,333z"/>
	<path d="M863.4,473.9c0.3,0.2,0.6,0.5,0.9,0.8c4.1-2.7,7.9-5.8,11.7-9.2c1,1.9-0.4,2.8-1.2,3.7c-3.3,3.3-6.7,6.5-10.5,9.3
		c-1.5,1.1-3.1,2.2-4.7,3.2c-3.4,2.2-6.8,4.2-9.7,7.1c-2.5,2.6-5.8,4.3-9.4,5.5c-6.3,2-12.4,4.3-17.7,8.5c-3.4,2.7-7.3,4.5-10.5,7.5
		c-1.4,1.3-3.4,1.4-5.1,2.3c-6.1,3.1-11.9,6.9-18.6,8.6c-1.3,0.3-1.4,1.5-2.1,2c-1.3,0.4-2-0.7-3.1-0.6c-1-0.1-0.9,1-2,1.6
		c-6.5-0.8-10.6-5.4-14.4-10.8c-4.8,0.2-9.6,0.8-14.2,0.6c-0.8,0.8-0.1,1.6-1.2,2c-1.8-1.1-4-2.1-4.8-4.8c2.5-1.6,4.2,1.3,6.5,0.9
		c2.2-0.5,4.5,0,6.8-0.1s4.6,0,7.1-0.7c3.7,4.1,6.9,9,12.4,11c3-2.3,7.1-1.7,10.5-3.9c-0.9-2.4-1-4.9-0.9-7.5
		c0.1-3.6,1.4-6.6,4.1-9.1c2.2-2.1,4.5-4.1,6.3-6.4c1-0.9,2.2,0.3,3.2-0.9c3.2-3.4,7.5-4.1,11.9-3.5c2.5,0.3,4.8,0,7.3-1
		c-0.9-4.8-0.5-9.5,0.7-14.2c0.4-1.5,0.2-3.3,0.3-5.1c-4.4-1.8-8-4.9-12.5-6.3c-2.1-0.6-3.8-1.9-5.4-3.4c-0.5-0.5-1.1-1-0.9-2.1
		c2.7,0,3.9,2.5,6.1,3.3c2.2,0.7,4.2,1.7,6.3,2.6c2.2,1,4.3,2,6.4,3.1c0.8-1.6,0.3-3,0.3-4.3c-0.1-3.7,0-7.3,1.7-10.7
		c0.5-1,0.9-2.1,1.1-3.2c2.3-8.8,5-17.5,8.7-25.9c-1.3-0.5-2,0.4-2.8,0.8c-4.7,2.5-9.6,4.5-14.7,6.1c-1.7,0.5-3.4,1-5.2,1.2
		c-8.4,0.9-16.1,4.1-23.3,8.3c-1.3,0.8-2.7,1.7-3.4,3c-2.8,5-7,8.9-10.1,13.3c-0.5,1,0.7,1.7,0.3,2c-2,2.1-4,2.8-6,3.7
		c-4.2,2-8.7,3.5-12.7,5.9c-3.1,1.8-6.2,3.1-9.7,3.8c-2.2,0.4-4.5,0.6-6.8,1c-4.6,0.8-8.9,2.7-13.3,4.4c-0.6,0.2-1.2,0.5-1.6,1
		c-6.3,6.8-14.6,10.8-22.1,15.9c-1,0.7-2.2,1.2-2.9,2.4c-0.6,1-1.6,1.6-2.6,2.2c-7,4.4-14.2,8.3-22.4,10c0.1,0.8,0.3,1.5,0.3,2.2
		c0,0.1-0.3,0.3-0.7,0.6c-1.2-0.9-0.4-2.4-1.1-3.5c2-1.3,4-2.5,6.3-3.4c6.6-2.6,13-5.6,18.5-10.3c3.9-3.3,8.2-6,12.6-8.5
		c6.2-3.4,11.8-7.8,17.9-11.4c5-2.9,10.2-4.4,15.9-4.5c3.9,0,7.1-1.2,10.2-3.4c3.5-2.5,7.3-4.5,11.3-6.1c3.6-1.4,6.1-3.9,8.3-7
		c2.7-3.8,4.9-7.9,8.1-11.3c5.4-5.7,12.2-8.9,19.8-10.4c9.1-1.8,17.9-4.3,26.3-8.2c2.3-1.1,4.7-1.9,7-2.8c1-0.4,2.1-0.9,3.2-0.1
		c0.1,1.5-1.6,1.1-2.2,2.2c-2.5,7.7-5.7,15.4-7.8,23.5c-0.5,1.8-1.1,3.7-2,5.3c-1.8,3.2-2.3,6.7-2.3,10.2
		c-0.1,5.4,0.1,10.9-0.8,16.3c-0.5,3.2,0.7,6.3,0.9,9.4c0.1,1.8,0.5,3.5,0.8,5.3c0.6,0.9,1.2,1.8,2,3c4.9-1.4,10-2.9,15-4.4
		c2.8-3,5.5-5.9,8.3-8.9c-0.5-1-1.3-0.2-1.9-0.1c-3,0.3-5.9-0.4-8.3-2.1c-5.4-4-9.3-8.9-9.9-15.9c-0.3-3-0.3-6.1,0.4-9.1
		c0.5-2.1,0.7-4.2,1-6.4c1.1-8.4,4.2-16.1,7.5-23.5c0.8-0.4,1.2-0.2,1.6,0.1l-0.1-0.1c-0.5,2.9-1.6,5.5-2.6,8.3
		c-2.8,7.5-4.5,15.2-5.5,23.1c-0.3,2.4-0.4,4.8-0.1,7.2c0.8,7.8,7,14.6,15.1,16.4c0.2-1.9-0.2-3.8,0.5-5.6c0.4-0.9,0.3-2,1.5-3.2
		c-0.2,3.3,0.2,6.1,0.4,8.9c1.3,0.5,2.4,0.4,3.6,0.4C857.9,478.8,861.5,477.4,863.4,473.9L863.4,473.9z M791.5,518
		c1.6-0.2,2.8-0.9,4-1.5c4.5-2.3,8.8-4.9,13.3-7.3c5.9-3.3,10.2-8.7,16.5-11.3c-0.9-1.7-1.6-3.3-2.1-4.2c-8.3-1.7-15.3-0.8-21.6,4.8
		C795.6,503.8,790.6,509.2,791.5,518z"/>
	<path d="M759.7,492.7c-0.2-2.2,1.3-3.2,2.5-4.2c3.1-2.5,6.6-4.3,10.3-5.5c3-0.9,6.1-1.8,9.1-2.7c10-2.7,18.3-8.2,25.3-15.8
		c0.2-0.2,0.4-0.2,0.8-0.4c0.6,2-0.9,3-1.9,4.1c-3.5,3.5-7.4,6.6-11.6,9.1c-4.1,2.5-8.5,4.5-13.2,5.8c-1.8,0.5-3.6,1.1-5.4,1.7
		c-4.7,1.6-8.8,3.7-12.6,7.3c-7.7,7.5-17,12.6-27.3,15.9c-8.8,2.8-17.6,5.5-26.8,7.1c-2.4,0.4-4.6,1.3-6.8,2.3
		c-3,1.3-6.1,2.4-9.4,3.1c-2.5,0.5-4.8,1.6-7.2,2.3s-4.9,1.8-7.8,0.9c0.9-1.6,2.3-1.5,3.4-1.7c2.9-0.4,5.6-1.5,8.3-2.5
		c9.5-3.8,19-7.5,29.2-9.3c10.6-1.8,20.9-5.2,30.3-10.5C752.8,497.8,756.1,495.2,759.7,492.7z"/>
	<path d="M228.5,391.6c0.5,0.2,0.9,0.5,0.9,1c1.1,6.6,4.1,12.5,6.3,18.6c0.1,0.2,0.2,0.5,0.3,0.7c2.9,5.3,2.5,10.4-0.7,15.4
		c-1.9,3.1-2.5,6.6-3.4,10c-1.1,4.4-1.9,8.9-2.8,13.4c-0.3,1.2-0.3,2.5-0.1,3.8c0.4,4.9,3.1,8.2,7.1,10.5c1.8,1,3.5,2.1,5.2,3.1
		c0.7,0.5,1.5,0.9,1.7,2.5c-5.2-2-10.1-3-12.9-8.3c-3.4-6.2-3.3-12.7-2.2-19.1c1.1-6.5,3.2-12.7,5.6-18.8c1.3-3.3,1.7-6.5,0-9.8
		c-3.6-6.9-3.8-14.6-5.3-22C228,392.2,228.1,391.8,228.5,391.6z"/>
	<path d="M242.5,233.4c6.8,0.9,13.6-0.6,20.4,0.4c-0.5,1.6-1.7,1.2-2.6,1.3c-4.6,0.1-9.1,0.2-13.7,0.2c-3.8,0.1-3.8,0-6.8,1.7
		c1.3,2.9,2.3,3.6,5.4,3c4.4-0.8,8.8-0.9,13.2-1c1,0,2.2-0.4,3,0.7c-0.5,1.2-1.5,0.9-2.3,0.9c-4.8,0.2-9.6,0.3-14.3,1.3
		c-1.9,0.4-3.7-0.5-5.6-0.8c-1.1-1-0.2-2.6-1.3-3.2c0.4-1.8,1.8-2.4,2.8-3.3c0-1.5,0-3,0-4.5c1.9-1.8,4-2.5,6.5-2.7
		c4.5-0.4,9.1-0.7,13.6-0.5c3.5,0.2,7.1,0,10.5-1.2c-3.6-0.2-6.6-1.6-9.2-4c0-1.3,0.8-2.1,1.7-2.8c1.5,0.5-0.1,1.6,0.4,2.3
		c4.1,2.2,4.9,2.4,7.7,2.2c0.7,0.1,0.7,1,1.3,1.2c0.4,0.2,0.8,0.5,0.9,0.6c0.5,0.5,0.3,0.7,0.1,0.9c-2.3,1.8-5.2,2.1-7.9,2.2
		c-6.8,0.3-13.6,1.2-20.6,0.8C245,230.3,242.3,230.1,242.5,233.4z"/>
	<path d="M654.5,638.7c-0.6-0.7-0.6-1.3-0.3-1.9c1.3-3,1.2-6.1,1.1-9.3c-0.3-5.6,0.8-14.5,2.3-19.2c1.1,1.3,0.1,2.6,0.1,3.8
		c0,1.4-0.3,2.8-0.4,4.2c-0.1,1.5-0.2,3-0.2,4.5c0,1.4,0,2.8,0.1,4.2s0.3,2.7,0.6,4.6c2.7-4,3.8-8,4.4-12.2c0.5-3,0.7-6,0.9-9.1
		s0.9-6.2,1.2-9.4c0.2-1.9,0.3-3.8,0.2-5.7c-2,3.3-3,7.1-5.6,10.2c0.4-3.1,4.8-12.9,7-15.8c0,2.3,0.2,4.4,0,6.5
		c-0.8,6.8-1.5,13.6-1.3,20.4c0.1,5.1-1.3,10-3.7,14.6c-1.4,2.7-3.4,5-4,8.1C656.5,638.1,655.7,638.8,654.5,638.7z"/>
	<path d="M618.8,527.9c-0.8,0.2-1.4-0.2-1.4-0.8c-0.1-1.1,0-2.2,0-3.4c8.1-5,17.3-7.5,25.9-11.2c-0.9-0.9-2.4-0.8-3.3-2.3
		c1.3-2.6,3.8-4,6.4-5.2c3.5-1.6,7.3-2.8,11.1-3.7c2.5-0.6,4.8-0.4,7,0.7c2.7,1.4,5.3,3,8.2,4c0.5,0.2,0.8,0.6,0.9,1.5
		c-5,0.2-8.4-3.7-12.7-5.2c-6,2.3-12.7,3.4-18.5,7.7c3,1.6,5.6,1.4,8.2,0c1.1-0.6,0.6-2.3,2-2.7c1.1,0.4,0.3,1.2,0.4,1.9l0.1-0.1
		c-1.2,2.2-3.2,3.2-5.6,3.9c-5.8,1.7-11.6,3.3-16.8,6.2c-3.8,2.1-7.6,4.5-11.2,6.1C618.4,526.2,618.9,527.1,618.8,527.9L618.8,527.9
		z"/>
	<path d="M736,554.7c1.3,0.2,2.4,0.2,3.6,0c5.1-0.8,10.2-2,15.3-3c4.2-0.9,8.5-1.1,12.8-1.6c2.7-0.3,5.2-1.1,7.4-2.6
		c0.7-0.5,1.5-1,2.4-1.2c3.4-0.6,6.6-1.7,9.7-3.1c0.4-0.2,1-0.2,2.1-0.3c-2.4,2.8-4.7,4.3-7.7,5c-2.6,0.6-5.1,1.3-7.5,2.6
		c-1.5,0.8-3.3,1.4-5,1.6c-8.4,1-16.7,2.8-25,4.5c-1.6,0.3-3.3,0.3-4.9,0.4C737.7,557.1,736.6,556.3,736,554.7z"/>
	<path d="M734.3,537.1c3.8-0.2,6.8-2.5,10.3-3.5c3.1-0.9,6.3-1.9,8.8-3.9c1.3,0,2.4,0.2,3.2,1.2c-8.3,3-16.6,5.2-24,9.8
		c-1.4,0.2-2.4-0.4-3.4-1.5c-0.8-3.1,0.3-5.4,3-7c1.9-1.1,3.4-2.4,5-3.9c2.5-2.4,5.9-3.3,9-4.8c1.7-0.8,3.4-1.6,4.2-3.6
		c-3-1.4-4.7-3.8-5.4-7.7c2.3,1.1,2.2,3.2,3.5,4.3c1.7,1.2,3.8,1.3,5.3,2c1.6,0.4,2.8-1.3,4.4-0.3c-0.6,1.8-2.4,1.6-3.6,2.2
		c-1.6,0.8-3.3,1.1-4.4,2.8c-0.6,1-1.9,1.2-3,1.6c-5.5,2.3-10.4,5.5-14.4,9.9l0.1-0.1c-2.6,0.9-1.5,2.8-1.3,4.6
		c1.8-0.9,1.8-0.9,2.9-2.3L734.3,537.1z"/>
	<path d="M256.3,354c-2.9,0.4-5.5,0.8-8.5,1.3c2.3-2.4,4.8-3.2,7.7-3.6c0.9-0.1,1.8,0.1,2.4,0.9c2.4,2.9,6,4.6,8.2,7.8
		c0.8,1.1,1.7,2.1,2.3,3.4c2.5,5.3,3.6,11.1,4.3,16.8c0.8,5.9,1.2,11.8,3.5,17.4c0.3,0.7,0.6,1.4-0.1,2.1c-0.4,0.2-0.9,0-1-0.3
		c-1.6-3.8-3.2-7.6-3.7-11.9c-0.8-7.2-2-14.3-3.6-21.3c-0.5-2.4-1.5-4.2-3.5-6C261.7,358.4,259,356.5,256.3,354z"/>
	<path d="M678.7,525.2c1.4,0.9,0.8,1.9,0.3,2.9c-1.6,3-4.2,5.1-7.3,6.4c-5.8,2.4-11.6,5-18,5.6c-4,2.7-8.7,2.1-13.1,2.8
		c-4,0.6-8.1,0.4-12.1-0.4c-0.5-0.1-0.9-0.3-1.4-0.5c-0.2-0.1-0.2-0.4-0.5-1.1c3.9-0.6,7.5,1,11.2,0.6c3.6-0.4,7.3-0.7,11.3-1.1
		c1.1-1.1,2.8-2,4.7-2.3c6.5-0.9,12-4.5,18.1-6.6c2-0.7,3.2-2.4,4.3-4.1C677,526.5,677.3,525.3,678.7,525.2z"/>
	<path d="M641.5,653.4c1.3-0.2,1.2-1.9,2.4-2.2c0.7,2.2,0.7,2.2-1.3,9.9c-0.7-1.5-0.7-1.5-0.7-4c-1.3,1.7-3,3.3-2.6,5.6
		c0.7,3.3,0.4,6.5-0.3,10.3c2.5-2.7,0.9-6,3-8.3c1.1,5.7-1.8,10.8-2.1,16.2c-0.6,0.8-1.3,1.2-2.4,1.1c-1.7-1.6-1.8-3.8-1.5-5.9
		c0.3-1.9,0.8-3.7,1.3-5.5c0.6-2.2,1.3-4.3,0.6-6.7c-0.5-1.6,0.1-3.2,0.7-4.8c0.4-1.2,1.4-2.1,1.4-3.5c1-0.5,1.5-1.2,1.6-2.3
		L641.5,653.4z"/>
	<path d="M643.3,527.8c0.6,1,1.2,1.9,1.8,2.8c-0.4,0.2-0.7,0.4-0.9,0.3c-3.6-1.3-6.9,0-10.3,0.9c-4.8,1.3-9.6,2.7-14.6,4.1
		c0.4,1.7,1.6,2.2,2.9,3c8.7-1.4,17.6-3.5,26.7-4.1c0.2,1.5-0.5,1.5-1.1,1.5c-6.9,0.8-13.7,1.9-20.5,3.3c-1.1,0.2-2.3,0.3-3.4,0.5
		c-2.5,0.5-4.5-0.3-5.2-2.7c-0.4-1.5-3-0.9-2.2-3.2c3.7,0,7.2-1.5,10.8-2.6C632.6,530.2,637.9,529,643.3,527.8z"/>
	<path d="M237.5,430.7c0.9,1.2,0.5,2.4,0.4,3.5c-0.5,4.3,1.4,8.1,1.8,12.2c0.5,4.7-0.1,9.1-1.7,13c-1.9,0.1-1.9,0.1-3.5-0.8
		c-2.2-8.4-2.2-16.5,0.7-24.6C235.7,432.6,236.4,431.6,237.5,430.7z M237,456.3c0.9-6.4,1.9-12.4-1.1-18.7c-0.4,2.1-0.7,3.5-1,5
		c-0.2,1.5-0.6,3-0.6,4.5c0,1.6,0.5,3,0.3,4.7C234.5,453.2,235.3,454.8,237,456.3z"/>
	<path d="M246.3,402.4c2.7-4.1,3.6-8.3,4.2-12.5c0.6-3.6,0.7-7.3,1-10.9c0.4-5.2-1.7-10.2-1.8-15.4c0-0.9-0.7-1.9,0.4-2.8
		c1.1,0.4,0.8,1.4,0.9,2.2c0.3,3.9,0.6,7.8,1.8,11.6c0.6,1.8-0.2,3.4-0.1,5.1c0.1,5.2,0.3,10.4-1,15.5c-0.8,3.3-2,6.5-4,9.4
		c-0.4,0.6-0.8,1.3-2,1.3c-2.2-4.4-4.5-8.8-5.6-13.9C241.6,395.5,243.8,398.7,246.3,402.4z"/>
	<path d="M732.7,552.3c-1.6-0.7-2.8-2-4.4-2.6c-1.5-0.6-2-2.3-1.7-3.9c0.4-2,1.1-3.8,3.9-4.4c-0.3,2.2-2.1,3.6-1.9,5.5
		c0.6,1.1,1.4,1.3,2.4,0.5c0.9-1.3-0.1-3,0.7-4.4c1.6,0.4,0.7,2,1.6,2.9c7.1-3.3,14.7-5,22.2-7.8c0.5-0.4-0.3-1,0.1-1.7
		c1.8-0.6,1.7,0.5,1.3,1.7c0.5,0.8,2-0.2,2.1,1.3c0,0.1-0.3,0.4-0.3,0.4c-1.5-0.8-2.8-0.4-4.3,0.2c-4.9,1.8-9.8,3.4-14.7,5.1
		c-2.7,1-5.2,2.6-7.2,4.6c-0.5,0.9,0.6,1.7,0,2.6L732.7,552.3z"/>
	<path d="M242.9,243c1.1-0.1,0.9,0.9,1.5,1.2c6.5,1.7,13.4-0.1,20,1.9c-1.5,1.2-1.5,1.2-5.8,0.9c-2-0.1-4-0.4-6.1,0.1
		c0.3,2.3,2.1,2.6,3.6,3c3.7,1,7.4,1.7,11.1,2.5c0.5,0.1,1,0.2,1.4,0.4c-0.2,1.2-1,1.2-1.7,1.1c-4.2-0.8-8.4-1.6-12.6-2.7
		c-3.1-0.8-3.5-1.5-4.5-4c-2.1-1.4-5.2,0-6.9-2.5C242.5,244.3,242.3,243.7,242.9,243z"/>
	<path d="M255.3,463.9c-0.6-1-0.2-1.4,0-1.8c3.8-5.7,6.6-11.9,9.8-17.9c1.9-3.5,1.3-7.6,1.4-11.5c0.1-2.7,0-5.5,0-7.7
		c0.6,2.3,1.2,5.1,1.3,8.1c0.1,4.9-0.1,9.7-2.6,14.3c-2.3,4.2-3.7,8.8-6.3,12.9C258,461.7,257.2,463.3,255.3,463.9z"/>
	<path d="M249.3,456c0.9-1.9-0.4-3.2-0.9-4.7c-0.5-1.4-1.4-2.7-0.1-4.9c0.4,2.7,1.2,4.7,2.7,6.9c2-5.6,1-11.3,2.7-16.5
		c1,6.8,1.1,13.5-1.2,20.1C251.6,457,250.8,456.5,249.3,456z"/>
	<path d="M618.7,528c4-0.3,7.9-0.9,11.7-2.7c2.9-1.4,6.1-2.3,9.2-3.3c1.7-0.5,3.3-1,4.6-2.5c0.9,1.7,0.1,2.6-1.2,3.1
		c-1.4,0.5-2.8,1-4.3,1.5c-3.7,1.3-7.4,2.4-10.9,4.2c-2.8,1.5-5.9,0.9-8.7,1.7C618.4,529.2,618.1,528.6,618.7,528L618.7,528z"/>
	<path d="M278.9,400.3c3.1,6.9,10.3,10.2,14.2,16.3c-1.5,1.1-2.2,0.3-2.9-0.4c-2.8-2.7-5.5-5.5-8.7-7.8c-1.1-0.8-1.5-2-1.8-3.3
		C279.5,403.6,279.4,402,278.9,400.3z"/>
	<path d="M656,665.5c-0.3,6-0.8,11.9-4.1,17.1c-0.9,1.4-1.6,2.9-4.2,2.7c-1.2-4.3-0.9-8.7,0.8-12.9c-0.7,3.5,0.6,6.8,0.8,10.2
		c1.4,0.2,1.4-1,1.8-1.7c2.4-4.2,3.3-9,4.3-13.6C655.5,666.7,655.5,666,656,665.5L656,665.5z"/>
	<path d="M231.7,373.6c1.2-5.6,10.3-17.8,14.1-19.5c0.7,0.6,0.7,1.3,0,1.9c-0.3,0.4-0.6,0.8-1,1.2
		C240.5,362.7,236.1,368.1,231.7,373.6z"/>
	<path d="M677.4,609.6c0-10.1,0-19.8,0-29.7c1.8,0.8,1.5,2.3,1.5,3.6c0,5.2,0,10.3-0.1,15.5c0,2.3,0,4.5-0.1,6.8
		C678.7,607,678.8,608.3,677.4,609.6z"/>
	<path d="M257.7,358.7c1.2,0.2,1.6,0.9,1.7,1.6c1.6,6.1,4.6,11.7,5.6,18c0.7,4.6,1.4,9.2,0.5,13.9c-1.2-5.6-1.1-11.5-2.5-17.1
		C261.7,369.6,259.2,364.4,257.7,358.7z"/>
	<path d="M456.2,138.8c0,0.4,0,0.8-0.1,1.2c-1,0.8-1.8-0.8-2.8-0.4c-0.5,1.1-0.9,2.3-2.2,2.9c-1.5,0.4-2.6-0.5-3.7-1.2
		c-0.5-0.7,0.9-1.3,0.1-2.1c-0.8-0.2-1,1.1-2,0.8c-0.1-1.2,1.1-2.4,0.4-3.7c0.9-0.6,1.8-0.5,2.6-0.4c0.3,0.9-1.2,0.4-0.8,1.4
		c2.2-0.2,4.4,0.8,6.8,0.8C455.1,138.3,455.6,138.5,456.2,138.8z"/>
	<path d="M425.8,502.3c4.6,6,4.7,9.1,0.7,12.9C423.9,511,425.9,506.7,425.8,502.3z"/>
	<path d="M850.6,369.8c0.1,1,1.5,0.9,1.5,2c-0.9,0.7-1.5-0.6-2.7-0.4c-0.6,0.9-0.7,2.4-2.3,3c-1.4,0.4-2.5-0.5-3.6-1.2
		c-0.6-0.7,0.8-1.3,0.1-2.1c-0.9-0.3-1,1.1-2,0.7c-0.4-1.3,1.3-2.5,0.3-3.8c1.2-0.6,2-0.4,3.2-0.4c-0.6,0.5-1,0.8-1.7,1.2
		c2.6,0.4,4.9,0.7,7.3,1.1L850.6,369.8z"/>
	<path d="M842.3,425.3c-1.3-4.3-2.5-8.6-3.8-13.2c2.3-0.1,3.2,0.8,3.9,2.5c1.4,3.5,1.8,7,1.2,10.7
		C843,425.9,842.6,425.4,842.3,425.3L842.3,425.3z"/>
	<path d="M732.6,552.4c6.8-2.3,13.8-3.4,20.7-5.4c0.3,1.1-0.5,1.3-1.1,1.6c-1.6,0.7-3.3,1.1-5,1.6c-3.4,0.8-6.9,1.4-10.1,3.1
		c-1.6,0.8-3.4,1.3-4.4-1L732.6,552.4z"/>
	<path d="M663.8,669.4c1.8-9.5,4.4-18.8,8.5-27.6C669.6,651,667,660.2,663.8,669.4z"/>
	<path d="M447.3,162.7c-1.6,1.8-3.5,1.7-4.9,1.5c-3.9-0.6-7.8-1.5-12-0.7c0.2-2.3,1.9-2.2,2.9-2.3c2.7-0.1,5.4-0.7,8,0.9
		C443,163.1,445,161.6,447.3,162.7z"/>
	<path d="M843.2,394.8c-1.7,1.5-3.5,1.4-5.1,1.2c-3.7-0.6-7.4-1.4-11.2-0.8c-0.1,0-0.3-0.4-0.5-0.5c-0.1-0.9,0.5-1.1,1.1-1.2
		c2.9-0.4,5.8-1.5,8.7,0.1c1.3,0.7,2.6,0.8,4,0.5C841.2,393.9,842.1,393.7,843.2,394.8z"/>
	<path d="M246.7,365.4c1,3.8-1.8,13-5.9,19.8C242.2,377.9,244.9,371.8,246.7,365.4z"/>
	<path d="M831.2,386.3c-1,0.7-1.9-0.2-2.8-0.2c-0.4-1.2-0.8-2.3-1.2-3.5c1.9-4.5,5.1-8.4,6.5-13.8c0-1-1.4-2.2-1.3-4
		c2.2,1.9,2.6,2.9,2,5.4c-0.7,3-2,5.7-3.7,8.3c-0.9,1.4-1.7,2.8-2.2,4C828.7,384.4,830.8,384.8,831.2,386.3z"/>
	<path d="M441.8,132.5c0.2-0.6,0.3-1,0.4-1c4.3-1.1,8.5-2.1,13-1c2.6,0.7,2.8,0.9,4.3,4c-0.8,0-1.4-0.5-1.9-1
		c-0.4-0.4-0.9-0.9-1.1-1c-3.5-1.3-6.5-1-9.7-0.3C445.3,132.6,443.6,132.9,441.8,132.5z"/>
	<path d="M855.9,366.4c-2-0.2-2.6-1.7-3.1-2c-3.7-1.4-6.8-1-9.9-0.3c-1.6,0.4-3.3,0.7-5.1,0.2c0.3-0.6,0.3-0.9,0.5-1
		c3.8-0.8,7.5-1.9,11.5-1.2C853.3,362.7,853.5,362.8,855.9,366.4z"/>
	<path d="M432.4,151c0.6,1.7,2.3,2.1,2.7,3.5c-0.9,0.6-1.7,0-2.5-0.1c-1.1-0.9-0.7-2.4-1.6-3.3c2.1-4.7,5.2-8.6,6.6-13.9
		c0-1.1-1.4-2.4-1.3-4.3c2.3,2.1,2.6,3,2,5.5c-0.7,3-2.1,5.7-3.7,8.3C433.8,148,432.8,149.3,432.4,151z"/>
	<path d="M265.1,415.5c-1.5-5.5-1-15.2,1-18.1C266.1,403.9,266.1,409.7,265.1,415.5z"/>
	<path d="M654.8,653.6c0.1,2.4-2.3,8.3-5.2,12.4C649.2,663,651.9,656.7,654.8,653.6z"/>
	<path d="M871.4,448.4c-3.8,2.8-10.1,4-14.6,2.8c0.4-1.1,1.4-1,2.2-0.9c3,0.4,5.7-0.5,8.4-1.5C868.6,448.4,869.9,447.6,871.4,448.4z
		"/>
	<path d="M227.8,390c-0.2-0.4-0.4-0.7-0.6-1c-0.3-0.9-0.6-1.9-0.9-2.8c0.7-2.9,1.6-5.6,3.7-8.2c0.6,1.5,0.2,2.7-0.2,3.9
		c-0.4,1.3-0.7,2.7-1,4C228.4,387.2,228.6,388.6,227.8,390z"/>
	<path d="M401.6,379.2c1,0.2,1.4,0.6,1.6,1.6c-1.4,3-5.3,2.7-7.5,5C395.9,383.7,398.4,380.9,401.6,379.2z"/>
	<path d="M248,443.6c0.2-5.1,1.2-9.3,2.9-14c1.2,2,0.3,3.3,0,4.6c-0.3,1.6-0.5,3.2-1.1,4.8C249.4,440.3,249.8,442,248,443.6z"/>
	<path d="M846,503.6c2.5-2.4,5.3-3.9,8.8-2.9c0.5,1.5-0.1,2.1-1.1,2.2C851.2,503.2,848.6,503.9,846,503.6L846,503.6z"/>
	<path d="M257.2,418c-3.1,1.9-6.7-0.7-9.6,1.3c1.3-2.1,3.4-3.1,6.2-3.1C255.1,416.2,256.6,416,257.2,418z"/>
	<path d="M656.1,665.6c0-3.9-0.4-7.8,0.6-11.7c0.2-0.7,0.3-1.5,1.5-1.7C657,656.7,657.8,661.3,656.1,665.6L656.1,665.6z"/>
	<path d="M448.3,179.5c4.4-1.3,8.8-1.6,13.1-3.5C457.5,179,451.9,180.6,448.3,179.5z"/>
	<path d="M857.5,407.9c-1.9,2.2-4.7,2.7-7.3,3.3c-1.8,0.4-3.7,1.3-6.2,0.3c4.8-1.6,9.4-1.6,13.4-3.7L857.5,407.9z"/>
	<path d="M852.6,448.3c-4.1-2.1-7.5-3.9-11.3-5.8C844.4,442.5,849.9,445.2,852.6,448.3z"/>
	<path d="M677,611.6c0.6,4.6-0.6,8.7-2.3,12.9C674.9,620,676.7,615.9,677,611.6z"/>
	<path d="M828,398.1c3,1,6,0.2,9.1,0.7C834.4,401.3,831.3,401.1,828,398.1z"/>
	<path d="M843.9,427.6c1.9,2.7,3.7,5.5,5.6,8.1C845.8,434.3,844.5,431.2,843.9,427.6z"/>
	<path d="M432,166.2c3,1,6,0.2,9.1,0.7C438.4,169.5,435.2,169.3,432,166.2z"/>
	<path d="M432.3,406.8c-0.7,0.2-0.9,0.3-1.2,0.3c-2.5,0.1-4.9,0.2-7.5,0.4C424.6,405.2,426.4,405,432.3,406.8z"/>
	<path d="M304.9,415.4c-2.1,2.2-2.1,2.2-7.5,2.1C300,415.9,302.3,415.3,304.9,415.4L304.9,415.4z"/>
	<path d="M470.2,167.7c1.1-2.7,1.9-4.7,2.6-6.6c0.2-0.5,0.4-0.9,0.9-1c0.6,1.8,0.6,1.9-0.3,3.8C472.8,165.1,472.2,166.4,470.2,167.7
		z"/>
	<path d="M866.4,399.4c0.9-3,1.8-5.5,3.4-7.9C870.3,394.5,869.5,396.4,866.4,399.4z"/>
	<path d="M895.1,446.1c2.3-1.5,2.3-1.5,5.8,1.6C898.5,447.7,896.7,447.7,895.1,446.1z"/>
	<path d="M913.2,446.6c-3.2,2.3-3.7,2.3-6.4,1C908.9,446.5,911,446.3,913.2,446.6z"/>
	<path d="M837.2,386.1c0.7-0.4,1.2-0.6,1.7-0.9c0.4,0.5,0.3,0.9,0,1.1c-2,1.4-4.1,1-6.3-1.1C834.7,385,834.7,385,837.2,386.1z"/>
	<path d="M436.3,153.5c2.1-1.1,3.3,0.4,4.8,0.8c0.8,0.1,1.1-1,2-0.6C441.4,156.1,440.1,156.1,436.3,153.5z"/>
	<path d="M469.1,176.6c0,2.3-0.5,4.5-1.9,6.4C467.5,180.8,467.4,178.4,469.1,176.6z"/>
	<path d="M845.9,503.5c-1.4,2-3.4,3.2-5.7,4.4c0.1-1.4,1.5-1.9,1.8-2.9C843.5,504.5,844.8,504,845.9,503.5L845.9,503.5z"/>
	<path d="M865,408.4c0.3,2.4-0.7,4.4-1.6,6.4C863.3,412.5,863.7,410.3,865,408.4z"/>
	<path d="M299.2,240.9c-1.5,0.2-2.9,1.6-4.6,0.6C296.3,239.9,296.3,239.9,299.2,240.9z"/>
	<path d="M854.4,515.8c-1.2-1.8-1.1-3.4,0.2-5c1,0.3,1.3,0.8,1.1,1.7c-0.3,1.2-1.5,2.1-1.5,3.4L854.4,515.8z"/>
	<path d="M619.1,533.4c-3.6-1.2-3.9-1.8-2.3-4.1C617.5,530.6,618.2,531.7,619.1,533.4z"/>
	<path d="M388,412c-1.1,2-3.1,2.1-5.7,2.7C384.4,413,386,412.3,388,412z"/>
	<path d="M443.5,541.9c-0.4-2,0.4-3.7,0.7-5.8C445.2,538.5,445.1,539.3,443.5,541.9z"/>
	<path d="M445,568.1c1.5,2.2,0.8,4.1,1,5.9C445,572.3,444.8,570.6,445,568.1z"/>
	<path d="M682.7,516.6c-1.6,1-3.1,2.1-5.3,1C679,515.7,681,516.8,682.7,516.6z"/>
	<path d="M456.2,138.8c-0.5-0.3-1.1-0.5-1.6-0.8c-0.6-1.1-2.1-0.8-2.6-1.9c2.7,0.3,2.7,0.3,5.1,2.3
		C456.9,138.8,456.6,138.8,456.2,138.8z"/>
	<path d="M850.7,369.9c-0.6-1.1-2.1-0.9-2.8-2.1c2.3,0,3.8,0.9,5.3,2.4c-1.3,0.7-1.8-0.6-2.7-0.4L850.7,369.9z"/>
	<path d="M652.8,516.9c0.1,2.9,0.1,2.9-0.9,5C651.4,520.2,651.4,518.8,652.8,516.9z"/>
	<path d="M808.8,532.5c-1.4-0.2-2.7,0.5-4.3,0.7c1.9-1.8,1.9-1.8,5.7-2.2l-0.1-0.1c0,1-1.3,0.9-1.4,1.7L808.8,532.5z"/>
	<path d="M754.5,477.4c-1.2,0.9-2.6,0.7-4,1.3C752.5,475.7,752.7,475.7,754.5,477.4z"/>
	<path d="M280.2,232.8c-2.1-0.4-3.1-1.9-4-3.6C278.2,229.8,279,231.5,280.2,232.8z"/>
	<path d="M652.9,509c1.3-0.3,2.4-0.1,3.7,0.5C654.3,511,654.2,511,652.9,509L652.9,509z"/>
	<path d="M438.3,499c0.3-1.4,1.5-2,2.3-2.9C440.7,498.3,440.7,498.3,438.3,499z"/>
	<path d="M362,230.3c-1.6,1-1.6,1-3.6,0.9C359.4,229.6,360.5,229.9,362,230.3z"/>
	<path d="M444.5,483.7c0.2,2.1,0.5,3.5-1.1,4.6C442.9,486.8,443.3,485.6,444.5,483.7z"/>
	<path d="M353.8,424.6c1.1-1,2.2-1.9,4.1-1.4C356.6,424.3,355.2,424.6,353.8,424.6z"/>
	<path d="M384.2,390.9c-1.3,0.5-2.3,1.2-3.7,0.7C381.7,390.3,381.7,390.3,384.2,390.9z"/>
	<path d="M857.3,407.7c0.5-1.4,1.9-1.7,3-2.5c-0.7,1.1-1.5,2.2-2.9,2.6L857.3,407.7z"/>
	<path d="M270.1,249.8c-2-0.9-2.4-2.2-3.3-3.4C268.7,246.9,268.7,246.9,270.1,249.8z"/>
	<path d="M394.6,392.2c-1.6,0.5-2.7,0.5-3.8-0.6C392.6,391.1,392.6,391.1,394.6,392.2z"/>
	<path d="M446.5,476.3c0.7,1.5,0,2.4-0.6,3.7C445.2,478.5,445.4,477.6,446.5,476.3z"/>
	<path d="M849,473.4c-1.6-0.8-1.5-1.8-1.5-3.1C848.5,471.1,849.1,471.8,849,473.4z"/>
	<path d="M436.7,210.5c1.8-0.5,2.7-0.5,3.4,0.8C438.8,212,438.1,210.7,436.7,210.5z"/>
	<path d="M464.8,189.4c0.5,1.2,0.2,2-0.3,3.1C463.6,191.3,464.6,190.5,464.8,189.4z"/>
	<path d="M800.6,457.8c-1.7,0.1-2.4-0.8-3.5-1.7C798.7,455.9,799.6,456.4,800.6,457.8z"/>
	<path d="M883.9,446c1.1-1.3,2-1.9,3.7-1.5C886.5,445.4,885.7,446.2,883.9,446z"/>
	<path d="M860.9,421.2c0.3,1.2,0.2,2.1-0.6,3.2C859.9,423.1,860.4,422.3,860.9,421.2z"/>
	<path d="M376.1,417.3c-0.9,1.3-1.8,1.2-3.2,0.9C374,417.6,374.6,416.6,376.1,417.3z"/>
	<path d="M443.7,551.3c1.1,1.4,0.6,2-0.1,2.6C442.8,553.1,443.2,552.5,443.7,551.3z"/>
	<path d="M462.1,175.4c0.7-1.2,1.4-1.6,2.6-2.3C464.1,174.3,463.5,174.9,462.1,175.4z"/>
	<path d="M853.3,442.6c1.1,0.4,1.3,1.2,1.3,2.4C853.5,444.3,853.6,443.3,853.3,442.6z"/>
	<path d="M677.7,519.3c0.4,1.2,0.6,2-0.6,2.4C676.3,520.7,676.8,520,677.7,519.3z"/>
	<path d="M253.5,430.7c-0.7-0.5-1.2-1.2-0.7-2.4C254.1,428.9,253.9,429.8,253.5,430.7z"/>
	<path d="M747.1,480c-0.5,0.9-1,1.1-1.9,0.5C745.6,479.9,746.1,479.2,747.1,480z"/>
	<path d="M839.9,342.8c-0.2,1.1-0.7,1.5-2,1.6C838.6,343.7,838.9,343,839.9,342.8z"/>
	<path fill="none" d="M641.6,653.3c-0.1,1.1-0.7,1.9-1.6,2.3c-0.5-0.4-0.3-0.8-0.1-1.2C640.5,654,641,653.7,641.6,653.3z"/>
	<path d="M905.6,439.5c0.8,0.5,1.2,1.2,1,2.1C905.6,440.8,905.6,440.8,905.6,439.5z"/>
	<path d="M418.2,671.9c1.1-1.1,1.5-0.4,2,0C419.5,673.3,418.9,672.7,418.2,671.9z"/>
	<path d="M652.5,529.8c-1.1-0.5-1.4-1.1-0.8-2C652.5,528.2,652.8,528.8,652.5,529.8z"/>
	<path d="M442,112.7c0.6-0.8,1-1.4,1.4-2C443.7,112.2,443,112.4,442,112.7z"/>
	<path d="M853.2,468.4c0.4,0.6,0,0.9-0.5,1c-0.1,0-0.3-0.1-0.3-0.2C852.3,468.7,852.8,468.6,853.2,468.4z"/>
	<path d="M464.3,110.4c-0.4,0-0.9-0.1-1.3-0.1C463.4,110.3,463.9,110.3,464.3,110.4C464.3,110.3,464.3,110.3,464.3,110.4z"/>
	<path d="M241.4,418.7c0.4,1.2-0.3,1.3-0.7,1.6C239.9,419.3,240.8,419.2,241.4,418.7z"/>
	<path d="M883.3,449.7c-0.1-0.9,0.3-1.5,1.2-2.1C884.6,448.7,884.1,449.3,883.3,449.7L883.3,449.7z"/>
	<path d="M364.1,421.2c0.7-0.5,0.9-1.1,1.5-0.8C365.6,421,365.2,421.3,364.1,421.2z"/>
	<path d="M314.7,442.1c0.6-1,1.1-0.5,1.8-0.7C316,442.3,315.6,442.6,314.7,442.1z"/>
	<path d="M465.8,115.4c-0.9-0.3-1.9-0.5-2.1-1.7l0,0c1.2-0.2,1.9,0.4,2.4,1.4C466,115.2,465.9,115.3,465.8,115.4z"/>
	<path d="M436.4,158.9c-0.5-0.6-0.3-1.1,0.3-1.6C437.3,158,437.3,158.5,436.4,158.9z"/>
	<path d="M832.4,390.9c-0.4-0.9-0.2-1.3,0.1-1.6C833,389.9,833,389.9,832.4,390.9z"/>
	<path d="M769.6,537.5c0.3-0.3,0.6-0.3,0.8,0.1c0.1,0.1-0.1,0.5-0.2,0.5C769.8,538.2,769.5,538,769.6,537.5z"/>
	<path d="M734.8,550.5c-0.2-0.6,0.1-1.1,0.6-1.5c0.6,0.2,0.5,0.7,0.3,1.2C735.6,550.6,735.3,550.7,734.8,550.5z"/>
	<path d="M732.7,534.8c1.5,0.1,1.6,1.1,1.5,2.3l0.1-0.1C733,536.8,732.4,536.1,732.7,534.8L732.7,534.8z"/>
	<path d="M654.6,533.7c-0.5,0-0.8-0.3-0.7-0.9C654.6,532.9,654.6,532.9,654.6,533.7z"/>
	<path d="M810.2,530.9c0.7-0.5,1.4-0.9,2.3-0.5c-0.7,1-1.6,0.5-2.4,0.4L810.2,530.9z"/>
	<path d="M689.6,515c-0.1-0.8,0-1.2,0.7-1c0.1,0,0.2,0.2,0.2,0.3C690.5,514.9,690,514.7,689.6,515z"/>
	<path d="M834.4,512.2c-0.2,0.8-0.6,1.1-1.3,1.1C833,512.6,833.3,512.2,834.4,512.2z"/>
	<path d="M836.7,510.6c0.2-0.6,0.5-1,1.3-0.8c0.5,0.6-0.1,0.8-0.4,1C837.2,511.1,836.8,511.1,836.7,510.6z"/>
	<path d="M273.8,243.3c0.9,0.1,1.4,0.6,1.4,1.4C273.8,245.1,274.2,243.8,273.8,243.3z"/>
	<path d="M306.1,240.2c-0.8,0.4-1.4,0.8-2.3,0C304.5,239.8,305.1,239.5,306.1,240.2z"/>
	<path d="M860.3,342.2c-0.5,0-1-0.1-1.4-0.1V342c0.5,0,1,0.1,1.4,0.1V342.2z"/>
	<path d="M861.8,347.2c-0.9-0.3-1.9-0.5-2.1-1.7l-0.1,0.1c1.2-0.2,1.9,0.4,2.4,1.4C862,347,861.9,347.1,861.8,347.2z"/>
	<path d="M741.5,482.6c0.4-1,0.8-0.9,1.3-0.7C742.7,482.5,742.2,482.5,741.5,482.6z"/>
	<path fill="none" d="M494,199.7c3.2,0.7,5.3,3.3,7.9,5.1s5.3,3.5,8.1,4.8c5.3,2.4,8,7.1,7.1,12.9c-1.1,6.7-2.6,13.3-4.4,19.9
		c-1.7,6.3-5,11.5-8.1,16.9c-8.1,1.7-13.5-0.4-15.2-6.2c6.7-1.4,13.7-2,19.2-6.7c-0.5-0.4-1-0.3-1.5-0.2c-5.6,1.7-11.3,2.6-17,3.8
		c-3.6,0.7-7,1.3-10.7,1c-3.4-0.3-6.8-0.8-10.1-1.5c-0.9-0.2-1.7-0.5-2.4,0.5c2.2,2.5,3.6,2.8,19.3,3.8c3.8,9.9,8.3,9.2,17.3,7.6
		c-3.5,6.2-5.3,12.7-7.4,19.2c-7.4,2.7-15,2.8-22.7,2.5c0.1-1.8,2.2-1.8,2.3-3.7c-1.9,0.6-2.9,2.1-4.7,3.2c-4.8-0.4-10-0.6-15.1-1.1
		c-5.3-0.5-10.5-1.3-15.8-1.8c-3-0.3-6,0.5-9,0.4c-5.6-0.1-11.1-0.3-16.7,0.2c-1.2,0.1-2.5-0.2-3.9-0.3c-1.5-2.5-1.4-5.3-2.1-7.6
		c0.5-1.6,1.9-0.8,2.7-1.7c-1.6-0.6-2.9-1.4-4.6-1.7c-6.5-0.9-11.8-8.1-11-14.9c1.3-1.7,3.3-0.9,4.9-1.3c4.1-0.8,8-2.4,12.1-3
		c4.2-0.6,8.3-0.6,12.3,0.3c6.4,1.5,12.9,2.1,19.4,3.2c7,1.1,13.8-0.7,20.4-3.1c0.5-0.2,1.3-0.4,1.2-1.2c-0.6-0.9-1.3-0.4-2-0.2
		c-3.4,0.6-6.7,1.4-10.1,1.9c-8.9,1.3-17.7-0.2-26.3-2.3c-7.3-1.8-14.3-0.8-21.3,1.1c-5.1,1.4-10.3,2.3-15.6,2.6
		c-2.4,0.1-4.6-0.4-6.6-1.5c-2.8-1.6-5.8-2.3-8.9-3c-1.8-0.4-3.9-0.6-4.5-2.7c0-0.9,0.4-1.3,1.1-1.6c0.9-0.1,1.4,0.4,1.8,1.1
		c4-1.3,7.5,1.6,11.7,1.2c-0.8-2.4-2.9-2-4.3-2.5c-1.6-0.5-3.2-0.8-4.8-1.2c-1.7-0.4-3.5-0.3-5.3-1.3c-0.4-1.7-2.5-3.1-1.7-5.6
		c1.8,0.6,2.3,2.2,3.2,3.4c1.1-0.7,0.8-2,1.6-2.8c3.2,0.1,6.1,2.7,9.8,1.6c-4.7-3.4-12.1-4.5-16.8-2.6c-1.7-2.2-1.7-2.2-1.5-4.9
		c1.5,0.7,2.9,1.4,4.5,2.1c1-0.1,0.3-1.3,1.3-2.1c1.7-0.5,3.9,0.1,6.2-0.1c2.2-0.2,4.4,0.3,6.4-1.2c-4.5-1.2-9.1-0.3-13.6-0.9
		c-0.6-0.9-0.4-1.8-0.1-2.6c2.5-1.6,2.8-1.7,7.8-1.9c2.3-2.8,6.1-1.7,9.3-2.9c-0.4-1.4-1.4-0.9-2.2-0.9c-2.6,0-4.6-1.1-5.8-3.5
		c-0.4-0.8-0.2-1.5,0.8-1.9c0.9,0.6,0.2,2.7,2.2,2.3c0.8-0.6-0.7-1.3-0.1-1.7c0.3-0.5,0.5-0.4,0.8-0.4c5.6,1,9.9,4.7,14.8,7.3
		c0.2,0.1,0.5,0.2,0.6,0.4c2.2,2.2,5.2,3.5,7.5,5.5c3.7,3.1,7.9,3.8,12.4,3.8c6.5-0.1,12.8-1.2,18.9-3.4c5.7-2,11.5-2.9,17.3-4
		c2.1-0.4,4,0.3,6,0.7c1.2,0.3,2.4,0.7,3.5,1.1c8.3-2.2,16.9-2.3,24.7-6.2c0.2-0.9-0.2-1.7-0.6-2.7c-1.9,3-5.1,1.5-8,3
		c0.4-2.6,1-4.5,2.2-6.3c3-4.4,6.6-8.3,11.1-11.3c0.8-0.6,1.9-0.9,1.2-2.3L494,199.7z M432.8,265.6c-1.4-1.1-1.3-3.2-3.4-3.4
		c-0.7,1-0.3,1.6,0.3,2.1c2.2,1.9,4.3,3.7,7.2,4.6c5.1,1.5,10.2,1.8,15.4,1c2.1-0.3,4.3-0.3,6.7-2c-5,0.1-9.3,0.3-13.6,0.2
		C441.2,267.8,437.2,265.9,432.8,265.6z M462.6,268c5,0.1,8.6-2.7,12.1-5.9C470.5,263.6,466.8,266.3,462.6,268z M467,233.3
		c-2.1-0.8-4.8-0.6-7.6,0.7C463.1,236,464.9,235.8,467,233.3z M465,245.8c3-0.6,3.1-0.7,2.2-3.6C466.5,243.3,465.9,244.3,465,245.8z
		 M414.5,269.6c1.7,0.9,1.7,0.9,3.8,0.4C416.3,269.2,416.3,269.1,414.5,269.6z M388,225.8c-1.4-0.8-2.2-1.5-2.7,0.1
		C386.5,226.1,386.5,226.1,388,225.8z"/>
	<path fill="none" d="M422.7,333c0-3.9,0.6-7.7,0.2-11.5c-1.2-10.4-3.5-20.4-8.5-29.7c-1.4-2.7-2.4-5.5-3.2-8.9
		c5.7,1.2,10.9-0.7,16.2,0c0.1,0,0.3,0,0.4,0c10.8-1.5,21.4,1.7,32.1,2.2c3.5,0.2,7.1,0.6,10.6,0.3c3.1-0.2,5.9,1.3,9.1,0.7
		c0,2-2.2,2.6-2,4.8c2-1.2,3-3.1,4.7-4.7c3.9-1.1,8.4,0,12.5-2.3c0.3,2.4-0.6,4.4-0.9,6.5c-1.4,7.5-0.9,14.6,3.5,21.1
		c0.2,0.3,0.4,0.7,0.5,1c2,7.8,5.7,14.8,9.3,21.8c-0.5,0.6-0.9,0.5-1.4,0.3c-9.6-3.9-19.2-5.2-29.6-3.3c-6.8,1.3-13.9,1.7-20.8,2.8
		c-8.5,1.5-16.9,0.4-25.3-0.4C427.7,333.5,425.3,333.9,422.7,333z M454.1,304.4c-2.9-2.5-12.2-7.4-14.7-8
		C441.1,299.3,448,303.2,454.1,304.4z M437.6,322.2c-1.9-2.6-4.4-3.5-7.6-2.3c0,1.4,0.5,2.6,1.8,2.4c2-0.2,2.8,1.3,4,2.2
		C436.4,323.8,437,323,437.6,322.2z M433.4,293.9c-2.4-4.2-3.9-5.6-6-5.8C429.2,290.3,430.9,292.2,433.4,293.9z M471.9,329.9
		c2-1.9,2-1.9,2.4-4.1C473.4,327,472.1,327.7,471.9,329.9z M487.3,297.8c-1.5,0.7-2.2,1.4-2.6,2.8
		C486,300.1,486.7,299.4,487.3,297.8z M477,321.9c0.9-1.3,1.5-2.2,0.9-3.5C476.9,319.3,476.3,320.2,477,321.9z M463.6,290.5
		c0.9-0.4,2.5-0.1,2.2-2C465,289.2,464,289.4,463.6,290.5z M467.8,301c-0.9-0.4-1.2,0-1.6,0.8C467.2,302,467.5,301.5,467.8,301z
		 M458.9,311.6c0.3,0.7,0.3,1.3,1.6,0.9C460,312.1,459.9,311.5,458.9,311.6z M459.2,293.1c1.2-0.3,1.9-0.5,1.4-1.2
		C460.4,291.5,459.9,292.3,459.2,293.1z M480.9,314.4c-0.6,0.8-1.6,1-0.8,2C480.8,316.2,481.2,315.8,480.9,314.4z"/>
	<path fill="none" d="M494.9,407.1c4.8-7.6,6.4-15.8,4.2-24.6c-0.3-1.1-0.3-2.2-0.4-3.4c-0.5-4.5-1.7-8.6-4.6-12.2
		c-1.5-1.9-2.6-4-3.8-6.1c-4.1-7-10.1-11.5-17.9-13.7c-1.8-0.5-3.6-0.9-5.9-1.4c5.8-2.8,11.3-4.1,17-4.8c5.8,0,11.1,2.5,16.4,4.5
		c0.8-0.2,0.1-1,1.1-1.3c2.4,0.1,4.8,1.8,7.5,2.3c0.5,0.7,1.1,1.2,2.1,1.1c-0.3-1-1-1.2-1.9-1.3c-2.8-2.2-5.8-4-9.8-2.4
		c-1.5-0.7-3.2-1.4-4.9-2.2c-7.2-3.3-14.7-2.9-22.1-0.9c-13.3,3.6-26.1,8.7-38.6,14.6c-5.8,2.7-12.1,4-18.1,7.2
		c1.4-9.4,5.5-17.5,7.3-26.8c3.7,1.3,7.8-1,11.7,2c1.3-0.3,3.1-0.2,4.8,0.1c6.1,0.8,12.1-0.7,18.1-1.7c8.2-1.4,16.4-3.2,24.8-3.2
		c6.3,0,12.6,0,18.8,1.9c0.5,0.2,1,0.3,1.5,0.4c4.9,1.4,8.3,4.1,9.7,9.5c1.7,6.5,3.5,12.9,4.4,19.6c0.7,5.3-0.1,10.3-1.8,15.3
		c-2.4,6.9-5.8,13.2-10.2,19c-2.2,2.9-5.2,5.2-7.7,7.8C496.1,406.9,495.5,407.2,494.9,407.1L494.9,407.1z M510.9,361.4
		c0,0.8,0.3,1.3,1,1.6C511.8,362.3,511.6,361.7,510.9,361.4c0-0.9-0.5-1.4-1.4-2.1C509.4,360.6,510,361.1,510.9,361.4z M508.3,358.1
		c-4.5-7.3-13.4-13.2-18.4-11.9c3.9,1.4,7.3,2.6,10.3,4.7C503.1,353,505.6,355.7,508.3,358.1z M494.5,339.1
		c-0.6-0.3-0.9-0.5-1.2-0.7c-0.4-0.2-0.9-0.4-1,0.4C492.8,339.2,493.4,339.2,494.5,339.1z"/>
	<path fill="none" d="M424.9,206.3c-6.5,7.1-12.3,13.3-18,20.2c-6.3-4.2-11.5-9.9-19.5-12.4c3.8-1.9,7.2-2.3,10.2-3.7
		c5.1-2.3,10.8-2,16-4C417,205,420.6,206.7,424.9,206.3z"/>
	<path fill="none" d="M440.8,199.1c-4.8,3.6-8.3,8-12.4,11.9c-4.2,4-6.1,9.5-4.5,15.6c0.1,0.4,0.2,0.7,0.3,1.1c0,0.1,0,0.2,0,0.5
		c-4.8,1.9-9.5,1.5-14.5-0.2c7-8,14.5-14.9,20.6-23.1C432.1,202.3,437.6,199.4,440.8,199.1z"/>
	<path fill="none" d="M494.1,199.5c-6.9,2.2-11.8,6.5-14.7,13.1c-0.9,2.1-1.3,4.3-1.7,6.8c-3.7,0.9-7.5,1.8-11.9,2.8
		c8.6-8.7,14.6-18.9,23.7-26.6c1.4,1.5,3.5,2,4.4,4L494.1,199.5z"/>
	<path fill="none" d="M481.3,107.7c-0.9-0.8-2.3-1.1-3-2.2c-0.1-1,1.1-0.9,1.2-1.8c-1-0.7-2.2,0.8-3.1-0.3c4.9-3.7,8.3-3.4,10.9,1.2
		c0.3,0.5,0.5,1.1,0.8,1.7c1.1,2.9,1.6,7.8,1.3,11.6c-1.4-2.7-2.7-5.2-3.9-7.5C484.1,109.1,482.1,109.2,481.3,107.7
		c0.5-0.9,2.1-0.5,2.4-2.3C482.4,106,481,105.9,481.3,107.7z"/>
	<path fill="none" d="M483.4,125.9c1.8,0.2,2.8-1.5,4.3-2.1c0.6,0.9,0.4,1.7,0.1,2.8c-1.5,1.1-3.2,2.2-5.1,3.6
		c2.3,0.6,3.3-1.4,4.9-1.8c0.9,1.6,0.1,2.5-1.2,3.2c-4.2,2.4-7.7,2.4-12.5-0.1c1.3-0.6,2.5,0.4,3.7,0.4s2.5,0.6,4.1-0.5
		c-3.1-1-6.3-0.8-9-2.1c3.6-1.1,7.3,0.2,10.8-1.4c-1.4-0.8-0.1-1.4,0-2.1L483.4,125.9z"/>
	<path fill="none" d="M480.5,110c0.2,0.1,0.5,0.1,1,0.3c-1.1,1.6-2.5,2.7-4.5,3.4c-1.3-0.9-3.1-0.9-5.2-1.8c2.6-1.4,4.8-2.6,6.6-3.6
		c1.2,0.1,1.4,0.8,1.7,1.3c-0.8,0.3-1.9,0.4-1.7,1.8C479.5,111.3,480.1,110.8,480.5,110z"/>
	<path fill="none" d="M456.4,105.5c5.3-2.8,10.6-3,16.2-1c-2,1.7-2.5,1.8-4.4,1.2c-0.8-0.3-1.7-0.4-2.4-0.7
		c-2.8-1.1-5.3-0.2-7.8,0.7C457.5,105.8,457,106.1,456.4,105.5z"/>
	<path fill="none" d="M471.4,132.7c5.1,1.1,10.2,3.1,15.4,0c0.7,1,1,1.8,0.1,3C481.8,135.2,476.3,135.6,471.4,132.7z"/>
	<path fill="none" d="M483.5,155.1c0.1,6.7-2.4,12.8-2.7,19.2c-0.7-1.5-0.8-3-0.4-4.6c1-4.3,1.8-8.6,1.8-13
		C482.1,156.1,482.4,155.5,483.5,155.1z"/>
	<path fill="none" d="M466.1,115.1c-0.5-0.9-1.2-1.6-2.4-1.4c0.1-1.4,1-1.7,2.1-1.2c1,0.5,1.6,1.6,2.3,1.8c1.6,0.4,2.6-0.4,3.7-0.5
		c1,0,2-0.3,3.3,0.2C472,115.5,469.1,116,466.1,115.1z"/>
	<path fill="none" d="M473.5,103.1c1.5-3.8,2-4,6.5-3.3C477.6,100.9,475.9,102.4,473.5,103.1z"/>
	<path fill="none" d="M483.9,178.8c0,2.1-0.6,3.9-2,5.5C481.7,182.2,482.8,180.5,483.9,178.8z"/>
	<path fill="none" d="M369,227.1c-1.6,0.7-2.6,1.3-3.9,0.6C366.7,226.2,366.7,226.2,369,227.1z"/>
	<path fill="none" d="M480.9,157.5c0.5,1.5-0.1,2.7-0.9,3.8C480.2,160,478.7,158.5,480.9,157.5z"/>
	<path fill="none" d="M439.9,110.4c0.4-1,1-1.9,2.1-2.6c0.5,1.8-0.7,2.3-1.8,3C440.2,110.7,440.1,110.6,439.9,110.4z"/>
	<path fill="none" d="M492.4,408c1,0.3,1.5-1.1,2.5-0.9l0,0C494.4,408.4,493.5,408.4,492.4,408L492.4,408z"/>
	<path fill="none" d="M472.6,100.8c-0.2,1.2-0.6,1.6-1.5,1.3C471,101.1,471.7,101.1,472.6,100.8z"/>
	<path fill="none" d="M684.9,673.1c-1.4-0.9-1.6-2.5-2-3.4c1.9-8.1,7.6-12.7,14.4-17.9c1.7-0.7,5-0.7,7.2-2.2
		c1.2-1.4,0.5-2.7,1.1-3.8c5.1-2.6,10.9-3,16.1-5.1c4.9-2,10-3.4,14.9-5.6c3.1-1.4,6.3-2.5,9.7-3.3c7.8-1.8,15.1-5.1,22.8-7.2
		c0.8-0.2,1.7-0.5,2.4-1c5.5-3.9,11.8-6.3,17.7-9.6c4.3-2.4,8.7-4.7,12.2-8.2c0.1-0.1,0.2-0.2,0.3-0.2c7.3-3.7,12.7-10,19.1-14.9
		c1.7-1.3,3.5-2.5,5.2-3.8c2.2-1.7,4.5-2.6,7.3-2.6c4.2,0,7.8-2.2,11.4-3.9c3.6-1.7,7.5-2.4,11.2-3.4c1.3-0.4,2.7-0.5,3.9-1
		c9.8-3.8,19.7-7.1,29.8-10.1c0.5-0.1,1.1-0.1,1.4-0.4c4.8-3.8,10.8-3.8,16.3-5.5c1-0.3,2-0.4,2.9-0.6c6.5,2.2,12,6,17.3,10.1
		c6.3,4.7,8.4,11.6,10.1,18.6c1.7,6.7,1.5,13.6,0.7,20.4c-0.6,5-3,9.5-6,13.4c-2.3,2.9-5.9,4.3-9.6,4.8c-5.5,0.6-11.1,1.3-16.6,1.5
		c-6.1,0.3-12.2,0.3-18.2,0.3c-6.8,0-13.7,0.3-20.5,0.7c-4.3,0.2-8.6-0.2-12.9-0.5c-8-0.4-15.9-0.3-23.6,2.6c-3,1.1-5.4,2.8-7.1,5.4
		c-7.3,10.9-18.2,17-29.7,22c-2.8,1.2-5.7,2.2-8.5,3.4c-7.7,3.2-15.9,4.4-24.1,4.7c-10.2,0.4-20.4,1.1-30.6,2.1
		c-5.8,0.6-11.6,1-17.3,2c-1.4,0.2-2.8,0.3-4.2,0.2c-6.2-0.8-12.4-0.1-18.6-0.2c-2.3,0-5-0.5-6.3,2.4L684.9,673.1z M684.6,667.1
		c1.2,2.6,2.6,2.1,3.9,1.9c3-0.5,5.8-1.6,8.9-1.2c0.6,0.1,1.2-0.2,1-1.8C694.1,667.1,689.6,666.8,684.6,667.1z M805.4,605.7
		c3.9-0.4,7.8-1.2,11.8-1.6C813,602.9,809.1,603.5,805.4,605.7z M834,592.5c-2.2,0.6-5.1-0.8-6.6,1.9c0.2,1.1,0.8,1.7,1.8,1.7
		C831.3,595.7,832.3,593.7,834,592.5z M811.1,628.8c2.3,0,4.6-0.1,7.1-2.1C815.2,626.9,813.1,627.6,811.1,628.8z M707,665.4
		c-2.8-0.6-2.8-0.6-4.3,1C704.2,666.9,705.4,666.6,707,665.4z M782.1,638.4c-1.2,0.4-2.1,0.3-2.5,1.6
		C780.6,640.2,781.4,639.8,782.1,638.4z M799.2,632.2c-1,0.1-1.5,0.4-1.6,1.1C798.2,633.3,798.8,633.2,799.2,632.2z M713.6,664.2
		c-1-0.5-1.7-0.5-2.3,0.8C712.3,665.1,712.9,665.1,713.6,664.2z M719.7,662.9c-0.7-0.4-1.1-0.2-1.1,0.6
		C719.3,663.9,719.7,663.7,719.7,662.9z M787.8,636.9c0.9,0.1,1.5,0.1,1.2-0.9C788.5,636.4,788.1,636.7,787.8,636.9z"/>
	<path fill="none" d="M901.7,505c-3.9,5.2-8.7,9.1-14.1,12.2c-5.1,2.9-10.4,5.2-16.3,5.7c-4.8,0.4-9.3-0.9-13.6-2.7
		c-1-0.4-1.8-1.3-3.5-1.2c2-2.2,4.2-3.4,6.4-4.5c1.8-0.9,3.7-1.6,5.5-2.6c1-0.6,2.1-0.8,3.2-0.9c1.9-0.1,3.8-0.5,5.5-1.2
		c7.9-3.2,15.8-6.2,23.1-10.5c3.1-1.8,6.1-3.6,8.8-6c4.4,3.4,9.2,3.9,14.3,2.3c4.8-1.5,8.7-4.2,11.7-8.7c0.9,1.5,1.1,3.3,1.4,4.9
		c0.8,5,1.6,10,2.1,15c1.1,12,4.9,23.2,10.8,33.7c2.8,5.1,5.2,10.3,7.8,16.6c-2.9-1.8-5.2-2.9-7.6-3.8c-9.7-3.9-19.6-5.2-30.1-4.4
		c-9.2,0.7-18.4,1.5-27.6,1.7c-2.9,0-5.8,0.2-8.9,0.8c-3.5-6.2-4.9-13.5-9.6-18.7c-0.9-0.6-1.4,0.3-2.3,0c-2-2.3-3.6-5.2-5.3-8.4
		c4,0.6,7.7-0.1,11.5-0.1c12.1,0.1,20.5-6.2,27-15.7C902.4,507.5,903.4,506.5,901.7,505z M900,540.1c0.3,0.9,1,1.2,2.2,1.3
		C901.3,540.5,900.8,540,900,540.1c-0.2-0.9-0.8-1.3-2.1-1.3C898.6,539.6,899.1,540.1,900,540.1z M887.1,532.4
		c0.8,1.1,1.9,1.1,3.4,1.4C889.2,532.8,888.2,532.5,887.1,532.4c-1.4-1.2-3.3-1.8-4.9-2.7c-1.5-0.8-2.7-2.3-4.7-2.1
		C880.4,529.8,883.2,532.2,887.1,532.4z M905,502.6c0.2-0.6,0.5-1.1,0.7-1.7c0.1-0.4,0.1-0.7-0.3-1.1
		C904.3,500.4,904.1,501.3,905,502.6z M904.6,542.8c0.9,0.3,1.6,1.4,2.8,0.7C906.6,542.7,905.6,542.6,904.6,542.8z"/>
	<path fill="none" d="M822.5,585.9c-4.5-7.2-9.3-13.9-14.1-20.6c-5.2-7.2-9.5-14.9-11.6-23.7c0-0.2,0-0.5,0.1-0.8
		c2.1-0.7,4.2-1.4,6.3-2.2c1.7-0.7,3-2,4.7-2.8c3.1-1.3,6.3-1.8,9.5-2.5c4.8-1.1,9.5-2.1,13.9-4.6c3.1-1.8,6.9-2.5,10.3-3.9
		c3.7-1.5,7.4-3.2,11.2-4.9c2.1,2,5.4,0.9,7.5,3.1c1.7,5.1,4.6,9.4,8.9,12.8c2.3,1.8,3.8,3.9,5.1,6.4c1.9,3.7,4,7.3,6.1,10.9
		c1.2,2,1.5,4,0.7,6.2c-0.5,1.3-1,2.6-1.6,3.9c-1,2.5-2.8,3.9-5.5,4.7c-9,2.5-18,5.1-27,7.7c-3.7,1.1-6.9,3.1-10.4,4.6
		c-2.9,1.2-5.5,2.9-8.8,3.3C826.1,583.7,824.5,585,822.5,585.9z M832.4,530.6c3.8,3.8,7.3,7.8,10.5,12.2s6,9,8.1,14.1
		c2,5,3,10.2,3.8,15.4C857.8,555.5,843.8,534.3,832.4,530.6z M824.3,552.5c-0.7-4.8-1.9-9.6-2.2-14.3c-0.9-0.4-1.5-0.5-2.2,0.4
		C821.2,543.2,821.8,548.1,824.3,552.5z M830.4,562.8c-0.4-1.1,0-2.7-1.7-3.6C828.9,561.3,828.9,561.3,830.4,562.8z"/>
	<path fill="none" d="M840.2,640.4c-0.2-0.9,0.2-1.3,0.5-1.7s0.6-0.8,0.9-1.2c5,0,9.8,1.1,14.9,1.4c0.1-1.9-1-2.2-2.1-2.5
		c-3.7-0.9-7.5-1.4-11.5-1.3c-0.1-1-0.2-1.9-0.3-2.8c11.7-1.4,29-1.9,36.5-0.4c6,6.6,7,15.4,11.1,22c0,0.9,0,1,0,1.1
		c-0.2,0.6-0.7,0.6-1.3,0.6c-0.1,1.1-0.2,2.2-0.4,3.4c-5.7,5.3-13.2,5-20.2,6.9c0-2.1,2.2-2.6,2.6-4.6c-3.5,1.6-6.5,3.2-8.7,6
		s-4.2,5.9-6.3,8.9c-0.4,0.6-0.8,1-1.3,1.3c-6.6,3.5-13.5,6.6-21.1,6.8c-6.2,0.2-12.5,0.5-18.5-2c-3.2-1.4-4.4-2.2-5.2-5.2
		c2.6,0,5.3,0,7.8,0c2.4,2.2,3.9,5.2,7.9,5.5c-0.5-1.9-2.2-2.4-3.2-3.5c-1.1-1.2-2.3-2.3-3.9-3.9c-2.8,0-6,0-9.2,0
		c0-1.5,1-1.7,1.7-2.2c5.1-3.5,9.9-7.5,13.5-12.7c1.5-2.2,3.6-3.9,5.5-5.5c3.9-1.1,7.8,3.1,11.6-0.2c-1.6-3.7-4.9-2.4-7.4-3.1
		c0.5-1.3,1-2.4,2.1-3.1c8.3,2.1,10.9,2.2,12.8,0.4c-2-2.5-3.3-2.8-11.8-2.6c0.3-1.5,0.9-2.8,1.7-4.1c2.7,0.5,5.3,1,7.9,1.3
		c2.4,0.3,4.8,1.7,7.5,0.3c-1.3-3.1-4.1-2.6-6.4-3.2C845.5,640,842.9,640.2,840.2,640.4z M877.2,650.8c-0.2-1.1-0.4-1.9-0.6-2.8
		c-0.6-2.9-2.9-4.4-5.4-3.6c-2.5,0.8-3.8,3.3-3,5.7c0.9,2.4,3.6,3.5,6.3,2.3C875.3,651.9,876.2,651.4,877.2,650.8z M867.5,651.6
		c0-2.5-1.7-4.4-4.1-4.4c-2.3,0-4.4,1.9-4.5,4.1c-0.1,2.6,1.8,4.5,4.4,4.5C865.8,655.8,867.5,654.1,867.5,651.6z M857.4,655.2
		c0.9-1.4,1.1-3-0.4-4c-2.3-1.5-4.3,0.1-6.4,1c0.8,2.4,1.6,4.7,2.4,6.9c0.1,0.4,0.6,0.4,0.9,0.3c1.4-0.7-0.7-2.2,0.7-2.9
		c1.5-0.5,2.1,1.1,3.3,1.4c0.5,0.1,1,0,1.4-0.4C859,656.6,857.9,656.4,857.4,655.2z M833.4,659.1c-2.8-1.9-3.6-1.9-5.9-0.2
		C831.2,661.1,831.2,661.1,833.4,659.1z"/>
	<path fill="none" d="M938,559.9c-4.3-1.9-8.9-2.7-13.4-3.8c-5.4-1.3-10.8-0.5-16.2,0.3c-7.3,1-14.4,2.6-21.2,5.6
		c-0.3,0.1-0.7,0.1-1.1,0.2c-1-2.7-2.1-5.4-3.1-8.1c0.9-1.2,2.1-1,3.2-1c8.8,0,17.4-1.5,26-2.5c2.6-0.3,5-0.1,7.5,0.1
		c5.5,0.6,11.1,0.4,16.6,1.5c5.4,1.1,10.4,3.1,15.3,5.5c2.2,1.1,3.5,2.7,4.2,5c2.2,7.1,3.1,14.4,2.7,21.7c-0.4,6.9-3.2,13.2-7.1,19
		c-3.7,5.6-8.1,10.6-13.2,15.1c-0.4,0.3-0.7,0.7-1.4,0.6c1.7-5.4,3.6-10.7,4.5-16.3c1.9-10.6-0.7-20.4-6.2-29.4
		c-4-6.5-10.5-10.5-17.4-13.6c-0.8-0.3-1.8-0.3-2.2-1.4c9.7-0.8,19,0.1,27.4,6.1c0.3-1.4-1.3-1.5-1.3-2.5c2.9,0.5,5,3,8,3.5
		c-3.5-2.8-7.2-5.2-11.4-7.3C938.1,559.1,938.1,559.5,938,559.9z M953,578.3c0.2,1,0.8,1.8,1.7,2.8c0.1-1.6-0.5-2.4-1.3-3.2
		c-0.3-1.2-1.1-2-2.8-3.2C951.3,576.6,952.1,577.5,953,578.3z M942.8,570c-0.9-0.8-1.5-2.1-3.7-2.5
		C940.7,568.7,941.5,569.8,942.8,570z M936.3,565.4c1.1,0.6,1.3,1.5,2.1,1C938.1,565.8,937.7,565.5,936.3,565.4z"/>
	<path fill="none" d="M880.5,385c2.4-3.9,5.1-7.6,1.6-12c1.5-1.5,2.2-3.1,2.9-4.9c2.6,7.3,1.1,34.8-2.3,42.2c-0.5-1.3,0-2.5,0-3.8
		c0-1.1,0.2-2.3,0.3-3.4c-1.4-0.9-1.3-2.1-0.9-3.6c0.9-3.9,1.9-7.9,2.1-11.9c0-1,0.3-2-0.6-3.2c-1.4,7.9-2.8,15.6-4.3,23.3
		c-1.3-0.5-1-1-1-1.7c0.3-5.4,1.6-10.8,2.2-16.1C880.8,388.4,880.9,386.8,880.5,385z"/>
	<path fill="none" d="M877.3,339.6c-0.9-0.8-2.3-1.1-3-2.1c-0.1-1,1.2-0.9,1.2-1.8c-1-0.7-2.2,0.7-3.1-0.3c4.9-3.8,8.3-3.4,10.9,1.2
		c0.3,0.5,0.6,1.1,0.8,1.7c1.2,3.7,1.5,7.5,1.2,11.4c-1.3-2.5-2.6-5.1-3.8-7.3C880.1,340.9,878.1,341.1,877.3,339.6
		c0.5-0.9,2.1-0.6,2.4-2C878.3,337.7,877.1,337.8,877.3,339.6z"/>
	<path fill="none" d="M879.4,357.7c1,0.3,1.7-0.4,2.4-0.9c0.6-0.4,1.2-0.8,1.8-1.3c0.6,0.9,0.4,1.8,0.1,2.8c-1.5,1.1-3.1,2.3-5,3.6
		c2.3,0.6,3.3-1.4,4.9-1.8c0.9,1.6,0.2,2.5-1.2,3.2c-4.2,2.2-8.3,2.5-12.9-0.2c2.9-0.1,5.3,1.3,8.5,0.2c-3.5-1.1-6.6-1.1-9.5-2.2
		c3.8-1,7.5,0.1,11.1-1.4c-1.4-0.8-0.1-1.5-0.1-2.2L879.4,357.7z"/>
	<path fill="none" d="M877.7,342.2c-1.4,1.6-2.7,2.7-4.6,3.4c-1.4-0.8-3-1.1-5.5-1.6c3.1-1.5,5-3.4,7.8-3.7c0.7,1.6-1,1.7-1.1,2.6
		C875.5,343.8,876.1,341.8,877.7,342.2z"/>
	<path fill="none" d="M852.7,337.6c5.1-3,10.4-3.4,16.1-1.2c-2.3,1.6-2.6,1.7-4.6,1c-0.7-0.2-1.4-0.5-2.1-0.7
		C858.8,335.7,855.8,336.6,852.7,337.6z"/>
	<path fill="none" d="M867.4,364.5c5.1,1.1,10.2,3.1,15.3,0c0.7,1,1,1.8,0.2,3C877.8,367.1,872.4,367.4,867.4,364.5z"/>
	<path fill="none" d="M879,387.1c0.5,5.9-1.4,11.5-1.9,17.6c-0.9-1.1-1-1.9-0.8-2.6C877.6,397.2,878,392.2,879,387.1z"/>
	<path d="M938,559.9c0-0.4,0.1-0.7,0.2-1.6c4.2,2.1,7.9,4.5,11.4,7.3c-3-0.5-5.1-2.9-8-3.5C940.5,561.4,939.3,560.6,938,559.9z"/>
	<path fill="none" d="M862.1,346.9c-0.5-0.9-1.2-1.6-2.4-1.4c0.1-1.4,0.9-1.7,2.1-1.2c1,0.5,1.5,1.7,3.4,1.9
		c1.4-0.1,3.4-1.3,5.9-0.4C868,347.3,865.1,347.8,862.1,346.9z"/>
	<path fill="none" d="M875.5,332c-2,0.8-3.6,2-5.7,3.4C870.4,331.4,871.6,330.8,875.5,332z"/>
	<path fill="none" d="M883.8,559.8c0.2,1,0.5,2.1,0.7,3.3c-0.9,0.5-1.6,0.8-2.6,1.4C881.9,562.6,882.8,561.3,883.8,559.8z"/>
	<path fill="none" d="M876.8,389.1c0.6,1.6,0,2.7-0.8,3.8C876,391.8,875,390.5,876.8,389.1z"/>
	<path fill="none" d="M835.9,342.3c0.4-1,1-1.9,2.1-2.6c0.5,1.8-0.7,2.3-1.8,3C836.2,342.5,836.1,342.4,835.9,342.3z"/>
	<path fill="none" d="M868.8,333c-0.4,0.8-0.7,1.5-1.8,0.8C867.3,333.2,867.6,332.5,868.8,333z"/>
	<path fill="none" d="M791.5,518c-0.9-8.8,4.1-14.2,10.1-19.6c6.3-5.6,13.4-6.4,21.6-4.8c0.4,0.9,1.2,2.4,2.1,4.2
		c-6.3,2.6-10.6,8.1-16.5,11.3c-4.4,2.5-8.7,5.1-13.3,7.3C794.3,517.2,793.1,517.8,791.5,518z M800.6,501.7c2.2,0.7,2.2,0.7,4.6-1.2
		C803.6,500.7,801.9,500.3,800.6,501.7z"/>
	<path fill="none" d="M732.8,534.7c-0.4,1.4,0.2,2.1,1.5,2.3c-1,1.4-1,1.4-2.9,2.3C731.3,537.5,730.3,535.7,732.8,534.7z"/>
	<path fill="none" d="M237,456.3c-1.7-1.5-2.5-3.1-2.4-4.4c0.2-1.7-0.3-3.1-0.3-4.7c0-1.5,0.3-3,0.6-4.5c0.2-1.5,0.6-3,1-5
		C238.9,444,237.9,449.9,237,456.3z"/>
	<path fill="none" d="M440,667.6c-0.5-0.5-0.7-1-0.5-1.7c1.9-0.8,1.9-0.8,3.3,0.2C442.4,667.6,441.3,667.8,440,667.6z"/>
	<path d="M432.8,265.6c4.4,0.3,8.4,2.2,12.7,2.4c4.3,0.2,8.6-0.1,13.6-0.2c-2.5,1.7-4.7,1.7-6.7,2c-5.2,0.9-10.3,0.6-15.4-1
		c-2.9-0.9-5-2.8-7.2-4.6c-0.6-0.5-1-1.2-0.3-2.1C431.4,262.4,431.4,264.5,432.8,265.6z"/>
	<path d="M462.6,268c4.2-1.7,7.9-4.4,12.1-5.9C471.2,265.3,467.6,268.1,462.6,268z"/>
	<path d="M467,233.3c-2.1,2.5-4,2.6-7.6,0.7C462.3,232.8,464.9,232.5,467,233.3z"/>
	<path d="M465,245.8c0.9-1.5,1.5-2.4,2.2-3.6C468.1,245.1,468.1,245.2,465,245.8z"/>
	<path d="M414.5,269.6c1.8-0.4,1.8-0.4,3.8,0.4C416.1,270.4,416.1,270.4,414.5,269.6z"/>
	<path d="M388,225.8c-1.6,0.3-1.6,0.3-2.7,0.1C385.8,224.3,386.6,225,388,225.8z"/>
	<path d="M454.1,304.4c-6.1-1.2-13-5.1-14.7-8C441.9,297,451.2,301.9,454.1,304.4z"/>
	<path d="M437.6,322.2c-0.6,0.8-1.2,1.5-1.8,2.4c-1.2-0.9-2-2.5-4-2.2c-1.3,0.2-1.8-1.1-1.8-2.4
		C433.2,318.8,435.7,319.6,437.6,322.2z"/>
	<path d="M433.4,293.9c-2.5-1.7-4.2-3.7-6-5.8C429.6,288.4,431,289.8,433.4,293.9z"/>
	<path d="M471.9,329.9c0.3-2.2,1.5-2.9,2.4-4.1C473.9,328,473.9,328,471.9,329.9z"/>
	<path d="M487.3,297.8c-0.6,1.6-1.2,2.3-2.6,2.8C485.1,299.2,485.8,298.5,487.3,297.8z"/>
	<path d="M477,321.9c-0.7-1.7-0.1-2.6,0.9-3.5C478.5,319.8,477.8,320.7,477,321.9z"/>
	<path d="M463.6,290.5c0.3-1.1,1.4-1.3,2.2-2C466.1,290.4,464.6,290.1,463.6,290.5z"/>
	<path d="M467.8,301c-0.3,0.5-0.6,1-1.6,0.8C466.6,301,466.9,300.6,467.8,301z"/>
	<path d="M458.9,311.6c1.1-0.1,1.1,0.6,1.6,0.9C459.2,312.9,459.1,312.3,458.9,311.6z"/>
	<path d="M459.2,293.1c0.7-0.8,1.2-1.5,1.4-1.2C461.2,292.5,460.4,292.7,459.2,293.1z"/>
	<path d="M480.9,314.4c0.3,1.4-0.1,1.8-0.8,2C479.3,315.4,480.3,315.2,480.9,314.4z"/>
	<path d="M508.3,358.1c-2.7-2.4-5.1-5.1-8.1-7.2s-6.4-3.3-10.3-4.7C494.8,345,503.7,350.9,508.3,358.1z"/>
	<path d="M494.5,339.1c-1.1,0.1-1.7,0.1-2.2-0.3c0-0.8,0.6-0.6,1-0.4C493.6,338.6,493.9,338.8,494.5,339.1z"/>
	<path d="M508.7,346.1c0.8,0.1,1.6,0.4,1.9,1.3c-1,0.1-1.6-0.4-2.1-1.1L508.7,346.1z"/>
	<path d="M510.9,361.4c-0.9-0.3-1.4-0.8-1.4-2.1C510.3,360,510.8,360.6,510.9,361.4L510.9,361.4z"/>
	<path d="M510.8,361.5c0.8,0.2,1.1,0.8,1.1,1.6C511.1,362.8,510.9,362.2,510.8,361.5L510.8,361.5z"/>
	<path d="M481.3,107.7c-0.3-1.9,1.1-1.7,2.4-2.3C483.4,107.2,481.8,106.8,481.3,107.7L481.3,107.7z"/>
	<path d="M480.5,110c-0.4,0.8-1.1,1.3-2,1.4c-0.1-1.4,0.9-1.5,1.7-1.8C480.3,109.8,480.4,109.9,480.5,110z"/>
	<path d="M684.6,667.1c4.9-0.3,9.5,0,13.8-1.1c0.2,1.6-0.4,1.9-1,1.8c-3.1-0.4-6,0.6-8.9,1.2C687.2,669.2,685.8,669.7,684.6,667.1z"
		/>
	<path d="M805.4,605.7c3.7-2.2,7.6-2.9,11.8-1.6C813.2,604.5,809.3,605.3,805.4,605.7z"/>
	<path d="M834,592.5c-1.7,1.2-2.7,3.2-4.8,3.6c-1-0.1-1.6-0.6-1.8-1.7C828.9,591.6,831.7,593,834,592.5z"/>
	<path d="M811.1,628.8c2-1.2,4.1-1.9,7.1-2.1C815.7,628.7,813.4,628.8,811.1,628.8z"/>
	<path d="M707,665.4c-1.6,1.1-2.8,1.5-4.3,1C704.2,664.9,704.2,664.9,707,665.4z"/>
	<path d="M782.1,638.4c-0.7,1.4-1.4,1.7-2.5,1.6C779.9,638.8,780.9,638.8,782.1,638.4z"/>
	<path d="M799.2,632.2c-0.4,0.9-0.9,1.1-1.6,1.1C797.7,632.6,798.1,632.4,799.2,632.2z"/>
	<path d="M713.6,664.2c-0.7,0.9-1.4,0.8-2.3,0.8C712,663.7,712.7,663.7,713.6,664.2z"/>
	<path d="M719.7,662.9c0,0.8-0.4,1-1.1,0.6C718.6,662.7,718.9,662.5,719.7,662.9z"/>
	<path d="M787.8,636.9c0.4-0.3,0.8-0.5,1.2-0.9C789.3,637,788.6,637,787.8,636.9z"/>
	<path d="M887.1,532.4c-3.9-0.2-6.7-2.6-9.6-4.8c2-0.3,3.2,1.2,4.7,2.1C883.8,530.6,885.6,531.2,887.1,532.4L887.1,532.4z"/>
	<path d="M905,502.6c-0.9-1.3-0.7-2.2,0.4-2.8c0.5,0.4,0.5,0.8,0.3,1.1C905.5,501.5,905.3,502,905,502.6z"/>
	<path d="M904.6,542.8c1.1-0.2,2-0.1,2.8,0.7C906.2,544.2,905.5,543.1,904.6,542.8z"/>
	<path d="M887,532.5c1.2-0.1,2.2,0.3,3.5,1.3C889,533.5,887.8,533.5,887,532.5L887,532.5z"/>
	<path d="M900,540.1c-0.9,0.1-1.4-0.5-2.1-1.3C899.2,538.8,899.8,539.2,900,540.1L900,540.1z"/>
	<path d="M899.9,540.2c0.9-0.2,1.4,0.4,2.3,1.2C901,541.2,900.3,541,899.9,540.2L899.9,540.2z"/>
	<path d="M832.4,530.6c11.4,3.7,25.4,24.8,22.4,41.8c-0.8-5.3-1.8-10.5-3.8-15.4c-2-5.1-4.9-9.7-8.1-14.1
		C839.7,538.5,836.2,534.4,832.4,530.6z"/>
	<path d="M824.3,552.5c-2.5-4.4-3.1-9.4-4.4-13.9c0.8-0.9,1.3-0.8,2.2-0.4C822.4,543,823.6,547.7,824.3,552.5z"/>
	<path d="M830.4,562.8c-1.5-1.5-1.5-1.5-1.7-3.6C830.4,560.1,830,561.7,830.4,562.8z"/>
	<path d="M833.4,659.1c-2.2,2-2.2,2-5.9-0.2C829.8,657.2,830.6,657.2,833.4,659.1z"/>
	<path d="M942.8,570c-1.4-0.2-2.1-1.3-3.7-2.5C941.3,567.9,941.9,569.2,942.8,570z"/>
	<path d="M953,578.3c-0.9-0.8-1.7-1.7-2.4-3.6c1.6,1.2,2.4,2,2.8,3.2C953.3,578,953.1,578.1,953,578.3z"/>
	<path d="M953.4,577.9c0.8,0.8,1.5,1.5,1.3,3.2c-0.9-1-1.5-1.7-1.7-2.8C953.1,578.1,953.3,578,953.4,577.9z"/>
	<path d="M936.3,565.4c1.4,0.2,1.8,0.5,2.1,1C937.6,566.8,937.4,566,936.3,565.4z"/>
	<path d="M877.3,339.6c-0.2-1.8,0.9-1.9,2.4-2C879.4,339,877.8,338.6,877.3,339.6L877.3,339.6z"/>
	<path d="M800.6,501.7c1.3-1.4,2.9-1,4.6-1.2C802.8,502.4,802.8,502.4,800.6,501.7z"/>
	<path fill="none" d="M856.4,653.2c-0.7,1.5-1.7,1.7-2.9,1.5c-0.5-0.5-0.7-1-0.5-1.9C854.1,652.3,855.2,651.4,856.4,653.2z"/>
</g>
</svg>
