<?xml version="1.0" encoding="utf-8"?>
<!-- Generator: Adobe Illustrator 19.1.0, SVG Export Plug-In . SVG Version: 6.00 Build 0)  -->
<svg version="1.2" baseProfile="tiny" id="Layer_2" xmlns="http://www.w3.org/2000/svg" xmlns:xlink="http://www.w3.org/1999/xlink"
	 x="0px" y="0px" width="900px" height="600px" viewBox="144 97 900 600" xml:space="preserve">
<g>
	<path d="M824.6,185c0.5-4.1,1.8-8,1.6-12.2c-0.1-1.6,0.1-3.2-1.6-5.1c1.6,11-3.7,18.5-10.6,25.2c1.6,1,3.1,2.1,4.7,2.9
		c2.4,1.3,3.5,3.4,4.5,5.8c3,6.7,4.1,13.7,4.7,20.9c0.2,2.1,0.5,4.1,1,6.1c1.4,5.7,2,11.5,1.4,17.3c-0.3,2.8-0.4,5.7-0.2,8.5
		c0.4,5-0.4,10-0.8,15c-0.4,4.4,0.2,8.7,0.5,13c0.2,2,1,3.7,2.4,5.2c3.6,4.1,6.5,8.5,7.3,14.1c0.3,2,1.6,3.5,2.8,5
		c1.5,1.9,3.3,3.5,5.2,5c1.9,1.6,4.2,2.8,4.9,5.5c0.1,0.4,0.6,0.7,0.9,1c2.4,1.9,4.9,3.9,7.9,4.8c5.7,1.6,9.9,5.1,12.9,10
		c1.7,2.8,3.6,5.2,6.1,6.5c1,1.1-0.1,1.9,0.4,2.6c4.4,2.1,9.8,1.3,13.5,4.7c-0.1,2.9-3.1,4-3.3,6.9c5.1,3.6,8.6,8.8,11.4,14.4
		c3,5.9,4.6,12.1,5,18.7c0.9,14.6-2.2,28.6-6.7,42.4c-1.9,5.8-4.1,11.4-6.7,16.9c-5.7,11.8-10.1,24-11.2,37.2
		c-0.6,6.8-3.4,12.8-7.4,18.2c-3.9,5.3-6.9,11-9.7,16.9c-8.5,17.9-15.3,36.4-21.5,55.2c-2.9,9-6.5,17.8-10.3,26.5
		c-2.2,5.1-4.8,10.1-8.2,14.6c-3.2,4.3-7.2,7.6-12,9.9c-3.4,1.6-6.7,3.5-10,5.2c-1.2,0.6-2.4,1.4-3.2,2.5c-2.9,4.2-7.2,6.5-11.5,8.9
		c-3.8,2.1-7.8,3.2-12.1,3.4c-1.8,0.1-3.6,0.4-5.5,0.3c-1.3,0-2.5,0.4-3.5,1c-6,3.7-11.6,7.7-16.3,13c-2.1,2.3-4.1,4.6-6.2,6.9
		c-8.8,9.9-24.7,15.1-37.7,12.4c-0.7-0.1-1.3-0.3-2-0.4c-6.9-1-12.2-4.5-16.8-9.6c-4-4.4-8.2-8.5-10.8-14c-0.6-1.2-1.4-2.4-2.4-3.4
		c-2.5-2.6-4.1-5.8-5.3-9.1c-1.5-4.2-3.3-8.3-3.9-12.7c-0.1-0.8-0.5-1.5-0.9-2.2c-4.7-7.3-6.7-15.5-7.8-23.9
		c-0.8-6.2-1.4-12.5-1.4-18.8c0-13,0.7-26.1,4.1-38.7c3-11,4.3-22.2,5.4-33.4c1.5-15,2.6-30.1,4.7-45c0.9-6.2,2.6-12.3,4.3-18.3
		c3.6-13,5.8-26.3,6.7-39.8c0.3-4.7,0.7-9.3,1.1-14c0.3-3,0-5.9-0.6-8.9c-0.7-3.6-0.3-7.1,0.6-10.5c2.1-8.2,4.2-16.4,5.9-24.6
		c1.1-5.2,3.4-10.1,5.3-15.1c-0.5-1.1-2-0.5-2.5-1.4c-0.9-1.1-1-2.3-1.3-3.7c0.3-0.7,0.7-1.5,1.1-2.2c-0.5-1.1-1.7-1.4-2.1-2.7
		c-0.2-2.1,1.2-3.4,3.1-4.1c2.5-0.9,4.3-2.6,5.8-4.6c1-1.3,2.2-2.3,3.5-3.3c1.4-1,2.8-1.4,4.5-1.1c3.1,0.6,6.1-0.2,9.1-1.2
		c3.4-1.1,6.3-2.9,9.2-5.1c2.2-1.7,4.5-3.1,6.8-4.7c1-0.7,2.3-1.1,3-2.2c0.2-1.4-0.6-2.5-1.3-3.5c-2.1-2.9-2.9-6.4-4.1-9.7
		c-1.1-2.8-1-5.8-1.4-8.7c-0.4-2.5-1-5.2-0.6-7.8c0.2-1.5-0.5-2.9-1.2-4.2c-1.6-3.2-3.2-6.3-5.4-9.1c-1.2-1.5-2.2-3.2-3.3-4.8
		c-1-1.6-1.7-3.4-1.6-5.2c0.3-2.7,0.1-5.5,0.3-8.2c0.3-3.4,1.5-6.5,3.8-9c4.1-4.4,8.2-9,13.2-12.5c5.2-3.7,9.6-8.2,13.7-13.8
		c-5.2,1.7-6.6,6.9-10.3,9.6c0.4-3.4,2.9-8.6,5.1-9.5c2.6-1.2,5.2-3,8.5-1.6c-0.9,1.8-2.6,2.5-3.5,3.8c-0.5,4.4-4.4,7.2-4.9,11.6
		c1.8,1.3,4,0.3,5.7,0.9c1.6-0.5,2.4-2,3.7-2.6c1,1-0.5,1.4-0.2,2.3c0.9,0.3,1.9-0.1,2.8-0.3c3.4-0.9,6.8-1.9,10.2-2.9
		c3.1-0.9,5.6-2.8,7.3-5.4c3.2-5,7.7-8.7,11.8-12.8c0.4-0.4,1-0.6,1.1-1.5c-5.7,0.5-11.4,0.8-17.1,0.9c-1.3,0-2.1,0.7-2.9,1.6
		c-0.7,0.8-1.2,2-2.7,2.5c0.3-2.2,2.2-3.1,3.1-4.9c6.7-0.9,13.4-2.1,20.5-0.5c1.8-1.2,3.8-2.3,5.5-3.8c1.6-1.5,4.3-1.3,5.5-3.5
		c-5.2-6.8-4.7-14.6-4.3-22.4c-0.9-1.3-3.5-1.2-3-4c2,1.1,3.6-1.2,5.9-0.2c0.5-1,1-2.2,1.9-4.2c-2.7,1.9-5.1,2.4-7.5,2.7
		c-0.9,1.1-1.7,2.2-2.4,3.2c-1.9,0-3.5-0.5-4.8-1.6l0.1,0.1c0.2-0.6,0-1.4,0.7-1.9c0.9-0.1,0.9,1.2,2.3,1.3
		c3.9-2.4,5.5-7.3,8.7-10.6c-1-1.3-1.7-0.1-2.6-0.4c-0.2,1.8-0.6,3.6-2.1,4.8c-0.6,0.5-1.3,1-2.3,0.2c-0.4-2.3,3-3.5,2.2-6.1
		c-0.7-0.9-1.4-1.8-2-2.6c-0.9,0-0.8,0.7-1.2,1c-0.2,1.2,1.1,1.5,1.1,2.8c-0.8,1.2-1.2,3-1.9,4.6c-1.5-0.3-1.8-1.5-2.3-2.3
		c0.3-1.6,1.7-1.6,2.5-2.4c-1.3-4-0.4-5.5,4.6-7.8c2,1.1,2,3.4,2.9,5.1c1.1-2.5-0.1-4.8-3.7-7c-1.4,0-2.3,0.9-3,1.9
		c-0.7,1-1.4,1.8-2.4,2.4c-2.3,1.5-3.3,1.4-5.9-1.2c1.9,0.1,3.6,0.8,5-0.1c-5.3-0.7-8.2-5.2-12.4-7.6c0.3-2.2-0.2-3.8-2-4.7
		c0-3-2-5.7-1-9c2.3,1.2,4.6,0.7,7-0.2c-0.1-1-0.9-0.6-1.3-0.5c-1.5,0.2-2.8,0-4.3-0.6c-1.9-0.8-4.2-1-6,0.5
		c-1.1-0.4-1.8-1.1-2.6-1.8c0.3-0.1,0.7,0,1-0.2c5.2-2.7,10.4-5.8,16.7-3.9c0.1,0,0.2,0,0.3,0c4.4-0.9,8.9-1.8,13.4-2.8
		c-1.8-2.4-4-3.1-6.8-2.4c0.8,0.8,1.4,1.8,2.6,2.2c-1.8,0.2-3.5,0.2-5.2,0.2c-1.8,0-3.7,0.3-5.4,0c-1.8-0.3-3.1,0.9-4.7,1.2
		c-4,0.7-7.7,2.7-11.3,4.5c-0.4,0.2-0.4,0.8-0.5,1.2c-1.5-0.3-2.5,0.9-3.9,1.4c-1.3-0.9-3-1.2-4.7-1.1c-1.7,0-2.6,1.1-3.2,2.7
		c-1.4,4.1-2.2,8.4-4,11.8c0.3,1.9,1.8,2.2,2.8,3.6c1.1,5.4-2.6,9.5-5,14.1c0.9,1,1.7,1.8,3.2,1.1c1.5-0.7,2.3,0.3,3,1.2
		c-0.6,1.3-1.5,0-2.3,0.7c0.2,1.4-0.1,2.9-1.1,4.1c1.8,3.2,5,1,7.5,2.1c-1.6,2-3.5,1.3-5.2,1.1c-0.8,0.3-1.4,0.9-1.9,1.6
		c0,1.2,1.6,1.5,1.8,3.2c-0.6,1.5-2.2,3.5,0.2,5.8c2.6,0.6,5.4,1.6,8.6,0.9c2.2-0.5,4.8-0.8,6.8,0.9c1.1,1.6,0.9,3.3,0.9,5
		c-0.2,4.4-1.5,8.5-2.8,12.7c-0.4,1.3-1.5,2.2-2.5,3.1c-2.4,2-5.3,3.4-7.3,6.4c-0.1-3.5,3.3-6.7,8-7.9c1.4-6.1,2.8-12.3,2.4-18.8
		c-2-0.2-3.7,0.3-5.3,0.6c-2.6,0.5-5,0.1-7.4-0.6c-4-1.2-5.1-3.2-3.9-7.2c0.1-0.3,0.2-0.6,0.4-1.2c-1.3-1.4-1.8-3-0.2-4.6
		c-1.4-2.2-1.4-2.2-0.7-6.6c-1.7-1.4-4.3-2.4-3.1-6c1.8-2.2,3.6-4.9,4.2-8.2c-0.4-0.8-1.5-0.8-1.8-1.6c0.4-0.7,1.3-0.1,1.8-0.8
		c-3.3-3.8-2.6-7.8-0.5-12c1.6-3.2,2.7-6.5,4.3-9.7c2.2-4.4,5.8-7.2,10.7-8.2c1-0.2,2-0.6,2.9-0.9c7.3-2.4,14.7-3.1,22.3-1.8
		c3.1,0.5,5.8,1.4,8.2,3.8c2.1,2.2,4.9,3.7,6.9,6.2c1.2,0.1,2.2,0.5,3.2,1.1c1,0.6,1.9,1.2,3,1.8c3-1.1,6-0.7,9,0.1
		c2.5,0.6,4.3,2.1,5.3,4.4c0.9,2,1.6,4,2.6,6c1.4,3,3.2,5.5,6.6,6.3c1.5,1.6,1.8,3.4,1.9,5.5c0.3,3.7,0.9,7.5,2.5,11.1
		c6.3,3.1,13.2,2.8,19.5,3.3c-8.7,3.2-17.6,2.6-25.9-1.7c-0.8,0.2-1.1,0.5-1.3,1.3c9,6.8,19,9.6,30.3,7.9
		c-10.7,2.5-12.4,2.3-26.7-2.9c1.5,2.7,2.3,5.3,2.9,8.1c8,3.3,16.4,2.5,24.8,1.8c-8.1,2.9-16.2,2.7-24.6,0.7
		c-0.4,3.9-1,7.8-2.6,11.3c-0.1,0.3-0.5,0.4-0.9,0.8c-0.2-3,2.4-5.6,0.5-8.4c0.4,0.2,0.8,0.4,1.2,0.1c0-1.4,0-2.9,0-4.2
		c-0.7-0.7-1.3-1.2-2.2-1.2c-0.8,2.1,1.2,3.6,1.1,5.5c-0.3-0.1-0.6-0.3-1.2-0.5c-0.6,2.6-1.1,5.2-1.6,7.8
		C825.5,182.6,825.5,183.9,824.6,185L824.6,185z M758.1,115.1c-1.9,0.2-2.5,1.7-3.2,3.1C756.5,117.7,756.9,116.1,758.1,115.1
		c0.8,0.1,1.2-0.5,2-1.1C758.9,113.9,758.2,114.1,758.1,115.1z M809.3,132.4c3.1,2.6,5.8,5.6,7.7,9.3c1.2-0.7,1-1.5,0.4-2.1
		c-2.3-2.8-4.5-5.7-7.8-7.6c-1.1-1.2-2.3-2.4-4.1-2.5c0,4.1,2.3,6.9,7.2,9c-1.1-2.4-4-3.2-4.8-5.7
		C808.4,132.2,808.9,132.4,809.3,132.4z M773.9,374.4L773.9,374.4c-0.5,4.5,1.5,8.9,0.7,13.9c2.7-1,4.8-1.7,6.9-2.6
		c9.3-3.6,19.1-5.4,29-5.9c4-0.2,7.9-1.2,12-2.9c-1.3-2.1,1.5-2,1.8-3.6c1.1-7.4,2.1-14.7,1.5-22.2c-0.1-1.1-0.4-2.2-0.8-3.3
		c-2-6.4-5.7-11.9-9.3-17.5c-1.1-1.8-2.6-3.1-4.7-3.8c-0.6,0.4-1.2,0.8-1.8,1c-0.6,0.3-1.3,0.4-2,0.5c-12.5,2.4-25,5-36.8,10.1
		c-5.6,2.4-11.4,3.2-17.4,2.9c-4.3-0.2-8.6,0-13.2,0c-0.4,3.4-1.7,6.7-1.5,10.2c0.5,0.3,0.9,0.5,1.3,0.7c-0.3,0.8-1.9,0.7-1.4,2.2
		c0,0.8,1.4-0.2,1.4,0.8c-0.3,0.7-1.1,0.2-1.6,1c-0.2,7.3-0.9,14.8-0.4,22.1c0.7,0.9,1.3,1.4,2,1.7c4,1.7,7.9,3.6,12.2,4.2
		c3.5,0.5,7,1.3,10.5,1.7c3.1,0.4,6.3,1.1,9.6,0.8c0.9-3.5-0.5-6.6-1.1-9.6c-4.6-1.5-8.5-3.7-12.5-5.8c4.4,0.4,8.3,1.9,12,3.9
		c0.6-0.7,0.1-1.6,0.8-2.1C772.6,372.7,773.1,373.7,773.9,374.4z M847.3,343.5c-2.4,0.1-3.7-1.5-5-3.1c-0.8-1-1.3-2.1-1.9-3.2
		c-1.7-3.1-3.9-5.7-7.1-7.7c-2.3-1.5-5-2.1-7.3-3.6c-9.4-6.3-15.5-14.9-18.8-25.6c-0.6-2-1.2-4-1-6c0.4-3.8-0.3-7.5-0.3-11.3
		c0-0.5,0.2-1.2-0.2-1.3c-1-0.1-0.9,1-1.7,0.7c-0.1-2.5-0.2-5-1-8.2c-0.9,4.5-2.5,8-2.2,11.8c0.4,4.7,1,9.3,1.3,14
		c0.2,2.5,1,4.9,2,7.2c2.4,5.7,6.7,10,10.4,14.8c5.6,7.3,10.3,15.1,13.2,23.8c1,3.1,1.7,6.3,1.5,9.4c-0.3,6.5-0.9,13-1.6,19.5
		c-0.9,9.1-2.7,18-4.4,27c-2.2,11.3-4.8,22.5-6.7,33.9c-1.1,6.3-3.1,12.4-4.5,18.6c-1.8,7.7-3.6,15.4-1,23.3
		c0.8,2.4,1.4,4.8,2.4,7.1c1.1,2.4,1.9,4.9,2.4,7.5c0.8,3.8,0.6,7.8,1.3,11.6c1.3,7.2,0.7,14.4-0.7,21.4c-1.5,8.1-3.8,16-5.3,24
		c-1.3,7.2-2.7,14.4-3.5,21.6c-0.2,1.9-0.9,3.8,0.5,5.8c1.7-0.9,2.7,0.3,3.7,1.3c3.7,3.4,6.6,7.6,9.8,11.4c2.7,3.2,3.1,6.7,2.5,10.6
		c-0.4,2.7-1.3,5.3-2.8,7.7c-0.7,1.2-1.1,2.9-2.1,3.4c-1.7,0.8-2.5,2.2-3.6,3.4c-1.7,2-3.4,4-5.9,5.1c-1.7,0.8-2.3,2.5-3,4.6
		c1.8-0.9,3-1.5,4.3-2.1c4.7-2.1,8.5-5.2,11.6-9.4c2.2-3.1,4.2-6.3,5.8-9.7c4.8-10.1,8.8-20.6,12.4-31.2c5.4-15.9,10.8-31.8,17.9-47
		c3.8-8.1,7-16.4,12.4-23.6c4.8-6.4,7.6-13.4,8.3-21.4c0.7-7.9,2.6-15.5,5.7-22.8c3.3-7.5,6.7-15,9.7-22.7
		c5.2-13.6,8.6-27.7,9.1-42.3c0.3-11.3-2.8-21.4-9.3-30.6c-1.4-2-3.1-3.8-4.6-5.7c-1.5,1.1-1.5,2.7-2.5,3.9
		c-2.7-0.8-5.6-1.5-8.4-2.3c-1.2,0.6-1.9,2-3.5,1.8c-2.4-0.6-2.9-2.7-3.3-5c-1.6,2.1-1.6,2.1-6,3c-1.2-0.3-2-1.1-2.5-2.1
		c-0.5-1-0.3-2.2-1.1-3.1c-1,0.8-1.7,1.9-3.2,1.9c-2.2-0.1-3.2-1.9-4.4-3.2c-3.1,1-4.5,0.6-5.8-1.9
		C848.5,346.9,847.9,345.1,847.3,343.5c0.7-0.8,0.6-1.6,0.1-2.3c-0.7-0.5-1.4-0.5-2.2-0.1C846,342,846.6,342.8,847.3,343.5z
		 M695.7,338.8c0.3,1.4-1.2,1.8-1.4,2.9c-0.8,3.8-2.3,7.4-2.8,11.3c-0.9,6.8-2.6,13.5-4.3,20.1c-1.1,4-1.2,8.1-0.9,12.1
		c0.3,3.2,0.3,6.4,0.1,9.5c-0.3,4.6-0.8,9.1-1,13.7c-0.8,14.7-3.3,29-7.5,43.1c-1.9,6.5-3.5,13-4.4,19.7
		c-1.9,15.1-3.1,30.2-4.7,45.3c-0.9,8.5-1.9,17-4.2,25.3c-1.3,4.8-2.8,9.7-3.5,14.7c-1.9,13.4-2.4,26.8-1.1,40.3
		c0.8,8.5,2.3,16.7,6,24.5c0.7,1.5,1.7,3.1,2,4.7c0.9,6.1,4.3,11.2,6.4,16.9c0.8,2.1,2,3.8,3.4,5.5c1.2,1.5,2.5,3,3.3,4.8
		c3.4,7.3,9.7,12,15.1,17.6c0.6,0.6,1.5,1.1,2.3,1.4c5.8,2.2,11.9,4.1,18,3.5c10.3-1.1,19.8-4.5,26.7-12.9
		c5.4-6.5,11.4-12.5,18.6-17.2c0.6-0.4,1.5-0.6,1.6-1.7c-2-0.7-3.5-2.3-5.4-3.4c-0.1-1.6-0.3-3.2-0.4-5c-3.3,1.9-6.6,1.6-9.8,1.1
		c-3.3-0.5-6.3-1.4-6.5-5.6c0-0.4-0.2-0.9-0.4-1.4c2-5.7,5.5-10.5,9-15.2c1.2-1.6,2-3.3,2.6-5.1c1.6-4.6,2.5-9.5,4-14.2
		c1-3.2,1.7-6.3,1.3-9.7c-0.3-2.6-0.6-5.4,0.8-7.7c2.1-1.2,4.4-0.1,6.5-1.5c-0.8-3.9-1.4-8-2.5-11.9c-4.1-14.7-7.2-29.7-10-44.8
		c-2-10.9-4.1-21.8-3.2-33c0.3-4.1-0.7-7.9-1.7-11.7c-1-3.8-1.7-7.6-1.7-11.5c-0.1-5.4-0.5-10.7-2.9-15.7c-0.9-1.9-2.3-3.3-2.8-5.5
		c-1.8-9-3.8-17.9-4.9-27c-0.7-5.8-0.6-11.6-0.9-17.4c-0.5-10.3-1.2-20.5-0.5-30.8c0.1-0.9,0.5-2-0.1-2.7c-1.1-1.3-0.7-2.6-0.5-3.9
		c0.5-2.5,0.5-5,0.6-7.5c0.1-1.8-0.1-3.8,0.7-5.4c1.6-3.4,1.2-6.9,1.4-10.4c0.2-4,0.5-7.9-0.7-11.8c-0.6-2.1-1.1-4.2-1-6.4
		c-0.6-0.2-1.1-0.5-1.4-0.4c-5,1.7-10.3,2.3-14.7,5.7c-2.4,1.9-4.5,3.7-5.5,6.8c-0.6,1.9-1,4-2.2,5.6c-3.3,1.5-6.5,3-9.8,4.5
		C699.2,340.5,697.6,339.7,695.7,338.8z M737.8,382.4c0,8.9-0.8,17.4-0.1,25.8c1,13.4,3.6,26.5,7.9,39.2c2,6,3.5,12.1,2.9,18.5
		c-0.2,1.9-0.1,3.6,0.5,5.4c0.7,2,1.5,4.1,2.2,6.1c0.3,0.7,0.7,1.6,0.6,2.3c-0.6,4.5,0.5,8.9,0.6,13.3c0.2,9.1,1.5,18,3.5,26.8
		c1.1,4.9,1.3,10,2.3,14.9c1.4,6.2,2.7,12.5,4.2,18.7c1.9,7.7,3.1,15.4,5.1,23.3c2.8,1.6,4.3,4.7,6.4,7.4c1.6,0.6,3.2,1.5,5,0.2
		c1,2.7-0.2,5-0.4,7.3c-1,13.6-5.8,25.7-13.7,36.7c-1.3,1.8-2.5,3.6-3.6,5.4c-2,3.2-0.5,7.2,3.2,8.1c1.9,0.5,3.7,0.4,5.6-0.6
		c7.4-3.9,15.1-7.1,22.9-10c1.5-0.6,3-1.2,4.5-1.7c2.1-0.8,3.7-2.2,4.6-4.3c0.8-1.9,2.1-3.5,3.3-5.2c1.5-2.1,3.8-2.9,5.4-4.6
		c3.8-4,7-8.4,8.6-13.8c0.7-2.3,1.2-4.6,2.8-6.7c-3.9-6.1-8.1-11.8-14-17.2c0.3,2.4,0.6,4,0.7,5.6c0.3,2.9-0.4,5.4-2.3,7.6
		c-2.1,2.4-5.5,3-7.9,0.9c-1.6-1.4-3.6-2.4-4.5-4.5c-0.5-1.1-1.7-1.4-2.7-2c-3.1-1.8-6.6-0.8-10-1.7c-0.2-1-1.1-1.6-1.9-2.3
		c-1.1,0.7-1.8,2.1-3.3,1.8c-0.7-0.3-1.2-0.8-1-1.6c0.5-1.6,1.5-2.8,2.7-3.2c1.4-0.3,1.6,0.9,2.7,0.8c0.1-1.8,0.4-3.5,0.1-5.4
		c-1.2-8-0.9-16-0.3-23.9c0.2-2.5,0.4-5,0.1-7.5c-0.4-4.3-0.4-8.7-0.3-13c0-5.2-0.2-10.4,1.2-15.6c1.1-4,1.3-8.1,0.8-12.2
		c-0.4-2.9-0.6-5.9-0.8-8.9c-0.1-1.8-0.5-3.3-1.5-4.8c-1.7-2.5-2.8-5.2-2.9-8.3c-0.1-1.7-0.1-3.5-0.7-5.1c-1.5-3.6-1.8-7.3-1.7-11.1
		c0-0.8,0-1.7-0.3-2.4c-1.4-3.4-1.2-6.9-1.2-10.5c0-4.2,0.1-8.4-0.6-12.7c-0.4-2.6-0.5-5.2-0.7-7.8c-0.9-12.4-0.6-24.9,0.2-37.3
		c0.1-0.9,0.4-1.8-0.3-2.7c-0.3-0.1-0.6-0.2-0.9-0.2c-7.9-0.4-15.7-1.1-23-4.5c-0.4-0.2-0.9-0.3-1.3-0.3
		C743.6,384.5,740.9,383.6,737.8,382.4z M775,391.3c0,9.1-0.1,18.2,0,27.2c0.1,10,1.4,20,0.8,30c0,0.5,0,0.9,0,1.4
		c0,3.6-0.4,7.3,1.2,10.8c0.3,0.7,0.3,1.6,0.3,2.4c0,4.6,0.4,9.1,1.3,13.6c0.8,4.1,2.2,7.7,5.1,10.6c1.9,1.9,2.5,4,2.6,6.5
		c0.1,4.9,0.2,9.8,0.5,14.7c0.5,9.3,1.5,18.4,2.5,27.6c1.6,15.1,2.1,30.2-0.6,45.3c2.2,0.5,4.6,0.9,6.6,2.2c2.3,1.4,2.7,4.2,4.5,6
		c1.3,0.5,2.6,0.9,4-0.1c-0.2-1.3,0.1-2.6-1-4c-1.3-1.7-1.2-4.1-0.9-6.7c1.2,1.3,0.6,2.9,1.9,3.6c0.1-0.3,0.2-0.6,0.2-0.9
		c0.3-9.4,1.6-18.7,3.4-27.9c1.7-9,3.6-17.9,5.3-26.9c0.7-3.7,1.3-7.4,1.2-11.2c-0.1-4.1-0.1-8.2-0.2-12.3c-0.3-6.6-1-13.2-3.9-19.3
		c-1.6-3.3-2.6-6.8-3-10.5c-0.9-7.2,0.4-14.1,2.2-21c1.1-4,2.2-7.9,3.1-11.9c3.9-16.7,6.2-33.7,8.9-50.6c0.5-3,1.2-6,0.7-9.3
		c-4.3,1.5-8.5,2.3-12.9,2.2c-4.8-0.1-9.6,0.8-14.2,2.1C788.1,386.7,781.8,389,775,391.3z M811.4,195c-1.1-0.1-1.5,1.2-2.6,0.7
		c0.4-0.5,0.7-0.8,0.9-1.2c-1.6-1.7-3.3-3.3-5.6-3.9c2-0.3,3.8,0.3,5.4,0c1,0.8,1.7,1.8,3.2,1.8c3-2.8,5.4-6.3,7.6-10.2
		c-1.5-1.9,1.2-3.6,0.5-5.9c-3.4,4.7-3.4,4.7-5.6,4.4c3.7-3.3,7.3-6.8,7.1-12.5c-2.3,3-4.8,5.8-7.7,8.2c-2,1.6-3.9,3.5-6.4,3.8
		c-2.5,0.3-4.4,1.6-6.5,2.7c-0.9,0.5-1.8,0.9-2.8,1.3c-0.6,0.2-1.1-0.1-1.4-1.2c2-1.6,4.9-2.4,6.7-4.7c1.7-2.2,3.4-4.3,5.3-7.2
		c-4.6,2.6-4.6,2.6-7,2.5c8.9-5.4,12.6-10.8,12.4-18.5c-5-6.9-6.6-11-6.1-15.5c-1.8-1.3-3.4-2.9-4.7-5.4c-0.5,8.3-2.4,15.4-6.5,21.9
		c-1.2,1.8-2.1,3.9-2.6,5.9c-0.5,1.9-1.3,3.6-2.6,4.9c-0.2,5.5,0.3,10.9,1.7,16.1c0.3,1.2,0.7,2.2,1.9,2.7c2.2,1,3.7,3.4,7,3.7
		c-2.6,0.7-4.3,0-5.8-0.3c-0.8,0.7-0.1,1.5-0.6,2.2c-2.1-0.4-1.1,1.9-2.1,2.7c-3,2.2-4.8,5.4-7.2,8.1c-6.5,7.1-9.6,17.2-5,26.2
		c0.1-0.2,0.2-0.4,0.3-0.6c0.1-0.3,0.2-0.6,1-0.5c1.2,6.5,5.6,11.5,8.9,17.3c1.8-3.2,1.8-3.2,3.7-4.6c2.1,3-1.7,3.9-2,6.3
		c1.4,1.3,2.9,2.9,5.2,3.7c-0.4-5.5-0.8-10.6-1.1-15.6c-1.1-1-2-1.9-3-2.8c1-0.8,1.8,0.7,2.8-0.1c-0.1-1.7-0.5-3.4-0.2-5.3
		c1.9,1.4,2.4,2.9,2.5,4.9c0.1,4.2,0.5,8.4,0.7,12.6c0.8,0.2,1.4,0,1.7,0.7c-0.1,2.9,0.2,5.7,0.7,8.5c1.4,7.4,2,14.9,3.7,22.2
		c1.4,6.1,1.5,12.5,1.6,18.8c0,2.5,0.6,4.7,1.5,7c1.8,4.3,4.1,8.5,6.5,12.4c2.4,3.9,5.8,7,10,9.1c5.9,3,11.9,6,15,12.4
		c0.1,0.2,0.4,0.2,0.7,0.4c1.5-2.7,2.3-5.9,5.3-7.8c2.1,1.9,4.7,2.3,7.2,3.1c1.2,0.4,2.8,0,3.9,0.8c3.6,2.6,7.8,4.2,11,7.4
		c1.8,1.8,3.9,2.3,7.1,1.5c-2.9-1.2-3.9-3.4-4.9-5.6c-0.4-0.9-1.1-1.7-1.8-2.5c-2.7-2.9-6.2-4.7-9.8-6.1c-2.1-0.8-4.4-1.5-6.2-2.9
		c-8-6.4-15.1-13.5-18.4-23.6c-0.2-0.6-0.6-1.2-0.9-1.8c-2.1-3.7-4.3-7.3-7.2-10.4c-0.8-0.9-2-1.6-1.8-3.1c0.5-0.4,0.9-0.7,1.4-1
		c-2.1-5.5-1.9-11.3-1.2-16.9c0.9-6.7,1.1-13.4,1.4-20.1c0.2-5.7-0.4-11.4-1.4-17c-1.3-7.3-1.4-14.7-3.6-21.8
		C819.4,197.6,820.5,199,811.4,195z M785,330.3c8.5-2.3,16.5-4.2,24.9-5.4c-1.9-3.9-3.4-7.7-6-10.9c-0.9-1.2-2.1-2.4-2.1-3.8
		c-0.1-3.5-1.6-6.6-2.3-9.9c-0.5-2.1-1.4-4.3-0.9-6.4c0.4-1.6,0.3-3.1,0.1-4.7c-0.3-2.6-0.7-5.3,0.3-7.8c0.8-1.9,0.9-3.9,1.3-6
		c-7.9-2.7-15.9-4.7-24-5.8c-8.1-1.1-16.3-2-24.5-2.7c-4.5-0.4-9-1.4-13.9-0.6c-0.7,1.3-2.2,1.7-3.8,1.9c-2.2,0.2-4.2,0.8-6.3,1.8
		c0.3,2.7,0.7,5.4,1,8.1c0.4,4.1,1.5,8.1,3.9,11.5c0.8,1.1,1.4,2.3,2,3.6c1.1,2.4,2.7,4.7,2.7,7.3c0,5.3,0.5,10.7-0.5,16
		c-0.4,1.9-0.2,3.9,0.2,5.8c0.7,3.6,1.4,7.2,1.7,10.8c0.2,1.9,0.6,3.8,1.6,5.8c7.5-0.2,15,0.3,22.7-0.6c0.2-2,1.8-2.2,3.2-2.6
		c5.7-1.7,11.3-3.3,16.9-4.9c0.9-2,0.6-4.4,2.7-6.1C785.7,326.5,785.4,328.2,785,330.3z M792.4,191.3c-3.3,1.9-5.8,4.2-8.3,6.6
		c-4.3,4.1-8.9,7.8-12.3,12.8c-1.2,1.8-2.9,3.2-4.9,4.2c-5.6,3-11.7,4.3-17.9,5.1c-1.9,0.3-3.9-0.1-5.8-0.5
		c-1.2-0.3-2.4-0.7-3.5-1.4c-1.2-0.8-1-2.2-1.4-3.8c-2.2,2.8-4.5,4.7-6.7,6.6c-2.4,2-4.8,3.9-7.2,5.8c-8.3,6.4-11.8,20.8-2.2,29.8
		c0.6,0.5,1.3,1,1.4,1.8c0.6,3.1,3,5.2,3.8,8.2c5.9-2.8,11.7-3.6,17.7-3.1c6.1,0.5,12.2,1.4,18.4,1.9c8.8,0.7,17.5,1.9,26,4.1
		c3.7,1,7.4,2.1,11,3.1c3.6-6.6,1.3-13-0.5-19.4c-1-0.6-2-1.1-3-1.7c-4.8-3-9-6.6-10.9-12.3c-0.2-0.6-0.5-1.3-0.8-1.9
		c-0.3-1-0.9-1.8-1.6-2.6c-8.8-10.3-7-22.8,0.5-32.3c2.7-3.5,5.7-6.8,9.1-9.7c0.1-0.1,0.1-0.4,0.2-0.7
		C793.2,191.8,792.9,191.6,792.4,191.3z M743.9,631.7c5.4,2.7,10.1,3.6,15.1,0.5c10.9-13.6,18.1-32.1,17.2-44.2
		c-1.7-0.5-3.6-0.3-5.1-2c0.4-2.8-1.8-4.5-3.5-6.6c-2.4,0.2-4.7,0.5-7.1,0.7c-0.8,3.7-0.2,7.1,0.2,10.5c7,1.6,7,1.6,8.6,3.9
		c-3.1,3.1-6.7,0.6-9.8,0.7c-0.6,0.5-0.9,1-0.6,1.7c2.4,0.9,5.6,0.9,7,3.8c-2.6,2.7-5.8,0.6-9.1,1.1c1.8,2,5.1,1.4,5.1,4.4
		c-1.9,2.1-4,0.4-5.8,0.5c-0.9,0.6-1.1,1.5-1.3,2.5c1.6,0.7,3.7,0.9,4.1,3.2c-1.8,1.2-3.5,1.1-5.4,0.6c0.6,0.9,1.8,1.2,1.6,2.4
		c-0.7,0.4-2.2,0.7-3.2,0.6c-2.3,5.1-7.5,8.3-9.2,13.6C743.2,630.8,743.7,631.5,743.9,631.7z M706.5,334.4c0.1,1.4-0.8,1.9-1.5,3.2
		c1.9-0.8,3.2-1.4,4.5-2c0.4-0.9,1-1.8,1-2.6c-0.3-4.1,2.3-6.6,5-8.8c3.6-3,7.5-5.5,12.1-6.9c2.2-0.6,4.4-1.1,6.4-2.2
		c0.8-3.5-0.3-6.9,0.1-10.4c-1,0.1-1.8-0.7-3.3,0c-1,0.4-2,1.9-3.5,2.6c-3.3,1.6-6.4,3.5-9.6,5.2c-1.2,0.6-2.2,1.1-3.5,0.1
		c-2.6,2.7-6,3.6-9.1,5.3c-0.4-1.8,0.8-2.4,1.8-3.2c-3.5-1-5.5,0.9-7.2,3.1c-1.9,2.3-3.8,4.5-6.9,5.3c-1.3,0.3-2.4,1.1-2.5,2.9
		c1.4,0,2.5-0.3,3.2-1.2c1.8-2.5,4.2-3.3,7.1-2.5c0.9-1.8,0.7-4.1,3.1-4.6c-0.1,2.3-0.3,2.8-2,5c1.3,2.9-0.4,6.3,2.9,8.9
		c-2.6-0.5-3.5,0.8-4,1.6c-3.5,1.6-5.7,0.1-7.9-1.9c1.8,3.6,4.7,5.3,8.6,5.6C702.9,336.4,704.3,334.9,706.5,334.4z M859.1,336
		c-2.4,1.3-3.9,3-3.6,5.3c0.3,3.3,0.6,6.6,2.6,9.5c1,0.5,1.9,0.7,2.8-0.5c0-3.5-0.5-7.1-1.1-10.7c-0.1-0.8-0.6-1.8,0.6-2.3
		c1.3,1,0.8,2.8,1.8,4.1c1.2-0.4,2.2-1.2,3.9-0.9c3,1.9,1.5,6,3.6,8.8c5.3,2.4,10.9,5,17.1,6.6c0-3.1,1.8-5.4,3.2-8
		c-4.5-1.2-8.9-2.1-12.9-4c-0.3-0.1-0.7-0.3-1-0.2c-2.9,0.3-4.9-1.2-7.1-2.8c-6.2-4.7-13.3-7.7-20.8-9.9c-1.5,2-2.4,4.1-3.1,6.4
		c1,0.7,1.8,1.7,3,2c1.2-0.7,1.5-2.1,2.9-2.6c0.5,0.1,1.1,0.3,1.6,0.4C854.7,336.8,856.1,334.1,859.1,336z M767.3,124.7
		c3.1-0.7,6,0.7,9.1,1.4c3.2,0.7,6,0.3,9-0.6c3.9-1.3,7.5-3.3,11.3-5c0.7-0.3,1.6-0.4,1.7-1.5c-1.8-2-3.7-3.9-5.9-5.3
		c-10.8,0.1-13.9,0.7-22.9,4.6c1.2,0.5,2.3,0.2,3.4-0.1c0.8-0.2,1.7-0.6,2.3-0.1c1.5,1.1,2.8,0.4,4.2,0.1c2.9-0.7,5.8-1.4,8.7-2.1
		c1.6-0.4,3.2-0.6,4.8-0.3c1.3,0.3,2,1,1,2.4c-3.6-0.5-15.6,1.7-19.4,3.6c1.1,0.3,1.9,0.6,1.5,2.1c-3,0.5-6-0.2-8.8-1.2
		C766.7,123.3,766.9,123.8,767.3,124.7z M786.8,567.8c-0.2-6.5,0.5-12.7,0.5-19c0-3.5-0.2-7.1-0.7-10.6c-0.6-4.4-1-8.8-1.3-13.3
		c-0.2-3.4-0.5-6.7-0.9-10.8c-1.2,2-1.4,3.5-1.4,5.1c-0.1,3.4-0.3,6.8-0.4,10.2c-0.1,3.4-0.8,6.8,0.5,10.1c0.3,0.7,0,1.6,0,2.4
		c-0.3,5.3-0.6,10.7-0.8,16c-0.1,2.7-0.1,5.4,0.4,8.1C783.9,567.1,785.5,566.9,786.8,567.8z M784,137.4c0.6,0.9,1.2,1.2,2.1,0.7
		c1.1-0.6,2.2-0.7,3.3,0c2,1.2,3.7,2.8,3.7,5.4c0,1.6,0.2,3.2,1.1,4.3c-0.4,2.6-2.4,4-3.6,6.6c2.8-0.9,4.5-2.1,6-3.8
		c-0.6-0.8-1.3,0.7-1.9-0.4c3.1-2.5,6.2-4.9,6.9-9.5c-1.4,0.5-2.5,1.7-4.3,1.3c2-1.3,4.1-2.3,4.8-4.9c-6,3.1-6,3.1-8.4,2.9
		c7.5-3.9,7.5-3.9,7.7-6.1C795.8,135.5,789.9,136.1,784,137.4z M772,132.5c0.9,1.2,2.3,1.2,3.4,1.6c1.8,0.6,3.9,0.7,5.6,1.5
		c1.6,0.7,3.1,0.7,4.6,0.3c3.7-1,7.5-1.8,11.1-3.3c0.4,0.4,0.6,1.1,1.5,0.8c1-0.7,2.5-1.2,3.3-2.6c-0.2-1.6-0.5-3.1-0.8-5
		c-5.2,3.6-10.5,6.2-16.3,7.6c1.1-1,2.8-1.1,4.2-2.7c-2.5,0.6-4.7,0.6-6.4,1.6c-3.1,1.9-5.9,0.8-8.8,0.2
		C773.1,132.4,772.7,132.1,772,132.5z M805.4,123.2c-0.1-1.2,0.6-1.5,1.4-1.7c0.9-0.2,1.8,0,2.7,0.2c2.9,0.6,5.3,2.2,8,3.7
		c-1.2-3.9-3.8-5.9-7.3-5.6c-3.1,0.3-6.1,0.4-9.5-0.3c2,3.3,2,6.9,2.9,10.3c1-0.5,0.9-0.9,0.6-1.5c-0.3-0.5-0.4-1,0.3-2.1
		c4.6-0.8,9.3,1.2,14,2.3C814.8,125.1,810.7,122.8,805.4,123.2z M777.2,129.3c6,3.2,18.3,0.5,23.1-5.1c-0.1-0.4-0.3-0.9-0.7-1.1
		c-7.3,4-10,5-13.4,4.5c2.5-0.9,4.8-1.5,6.9-2.6c2.1-1.1,4.6-1.6,5.8-3.8c-0.5-0.8-0.9-0.5-1.4-0.3c-2,0.8-3.5,2.6-5.3,3.4
		c-4,1.6-7.7,3.9-12.1,4.2C779.1,128.6,778,128.7,777.2,129.3z M810.5,176.6c5.1-3.9,6.9-9.6,8.3-16.3c0.6,5.2-1.8,8.9-2.9,12.9
		c2.6-2.1,4.6-4.5,6.1-7.2c-0.6-4.1-1.3-5.3-3.8-6.8C816.4,165.4,814.5,171.5,810.5,176.6z M811.9,131.1c4.2,3.6,6.7,8.3,9.8,12.9
		c2.5-4.8,1.7-7.8-2.2-10.3C817.2,132.2,814.7,131.2,811.9,131.1z M822.3,144.8c3.2,3.5,5.3,4.9,8.2,5.6c-0.6-2.7-1.3-5.3-1.7-7.9
		c-0.5-2.8-0.9-3.2-4-3C824.4,141.4,823.8,143.3,822.3,144.8z M865.7,354.1c1,0.8,1.9,0.6,2.9-0.3c-1.1-3.8-1.7-7.7-3.2-11.6
		c-1.4,1-2,2-1.7,3.4C864.4,348.4,865.1,351.2,865.7,354.1z M794.2,634.6c-6,1.7-11.8,4-17.2,7C783.8,641.8,789,638.2,794.2,634.6z
		 M814.8,152c1.9-6,0.7-8.4-4.6-11C811.1,145,812.8,148.5,814.8,152z M854.8,348.8c-1.3-3.1-1.1-6-1.9-8.6c-0.9-0.1-1.7-0.2-2.4,0.2
		c-1,3-0.9,3.9,0.9,7C852.3,347.7,853.2,348.1,854.8,348.8z M782.1,581.4c1,0,1.7,0.2,2.4-0.5c0.8-3.4,1.5-7,1.7-10.6
		c-1.1-0.5-1.9-0.7-2.7,0.1c0.3,1.8,0.4,3.6,0.1,5.4C783.5,577.6,783.3,579.5,782.1,581.4z M696.8,331.8c1.8,0.5,3-0.4,4-1.6
		c-0.4-1.1-0.6-2.1-1.1-2.9c-0.6-0.9-0.6-1.9-1.1-2.8C694.5,325.5,694,327.3,696.8,331.8z M824.7,157.4c2,2.8,0.8,7,4.3,8.9
		C828.4,162.9,827.3,159.8,824.7,157.4z M782.7,107.9c-6.2-1-8.7-0.9-14.9,0.9C772.7,108,777.7,108,782.7,107.9z M788.4,156.7
		c4.2-0.2,7.8-2.3,8.2-4.7C794.9,155.1,791.1,154.4,788.4,156.7z M772.9,128.4c-1.8-0.9-3.2-2.8-6-2.1
		C768.7,128.4,770.8,128.4,772.9,128.4z M829.2,139.1c-1.4-2.5-3.2-3.9-3.9-3.1c-0.2,0.6,0,1.1,0.3,1.5c0.1,0.1,0.2,0.2,0.3,0.2
		C826.8,138.1,827.7,138.5,829.2,139.1z M765.6,108.1c-4.3,0.4-4.9,0.7-6.5,2.8C761.5,109.9,763.5,109,765.6,108.1z M817.2,147.9
		c0,2.6,0,4.5,0,6.3C817.8,152.3,819,150.5,817.2,147.9z M787,143.1c-0.1,2.2,1.3,2.9,2.6,3.7C789.1,145.4,789,143.8,787,143.1z
		 M821.6,150.3c0.3,2.2,1.4,3,3.1,2.2C823.6,151.7,822.8,150.8,821.6,150.3z M870.2,352.6c-0.2,0.9,0,1.2,0.8,1
		C871.2,353,870.9,352.8,870.2,352.6z M818,143c-0.1,0.5-0.5,1.1,0.2,1.4C818.7,143.9,818.3,143.4,818,143z M824.7,149.7
		c-0.4-0.1-0.5-1.4-1.3-0.7C823.3,149.1,824,149.8,824.7,149.7z M875.4,355.8c0.5,0.7,0.9,1,1.4,0.5
		C876.6,355.7,876.2,355.7,875.4,355.8z"/>
	<path d="M382.9,239.2c0.9,0,1.5-0.5,2.1-1c2.6-1.9,5.2-4.1,8.4-5c0.5-0.2,0.9-0.7,1.1-1.6c-5.1-6.6-4.6-14.5-4.1-22.2
		c-1-1.4-3.4-1.2-3.2-3.6c1.6-0.3,3.4-0.1,4.6-1.3c0.9,0.5,0,1,0.1,1.9c2-1.2,1.9-3.3,2.9-4.9c-2.4,1-4.8,2-7.2,2.1
		c-1.1,1.1-1.4,2.4-2.5,3.2c-4.4-0.5-4.4-0.5-4.1-3.4c1.1-0.1,1.1,1.4,2.6,1.4c3.5-2.4,5.1-6.8,8-10c0.4-0.5,0.5-1,0-1.5
		c-0.9-0.4-1.1,1.2-2.2,0.3c-0.1,2.5-0.7,4.4-2.8,5.5c-0.8,0.4-1.3,0.1-1.8-0.8c0.8-1.8,2.7-3.4,2.4-5.8c-0.6-0.8-1.4-1.6-2.1-2.5
		c-0.6,0.2-0.8,0.6-1,1c-0.3,1.2,1.2,1.7,1.1,3c-1.2,1.1-1,3.2-2.2,4.7c-1.2-0.6-1.8-1.5-2.1-2.5c0.2-1.5,1.9-1.3,2.4-2.4
		c-1.5-4.4,0.3-5.3,4.6-7.7c2.3,1,2.1,3.6,3.3,5.3c0.4-2.7-0.9-5.7-3-6.8c-1.5-0.7-2.7-0.1-3.6,1c-0.8,1-1.5,2-2.5,2.8
		c-2.3,1.6-3.7,1.4-6-1c1.5-0.3,2.8,1,4.2,0c-4.5-1.6-7.6-5.2-11.5-7.7c0.5-2.2-0.6-3.6-2.1-4.8c-0.4-2.9-1.6-5.6-1.2-8.7
		c1.3-0.2,2.7,1,4.4,0.2c-2.9-2.3-5.9-2.7-9.1-1.3c-1.1-0.3-1.7-1.2-2.5-1.7c-1.4,0-2.3,0.9-3.6,1.6c-1.3-1-3.1-1-4.9-1.6
		c-1.5,0.5-2.6,1.6-3.2,3.4c-1.2,4-2.2,8.1-3.9,11.6c0.2,1.8,1.7,2.1,2.5,3.1c1.4,2.7,0,5.1-0.9,7.5c-0.9,2.5-2.6,4.5-4,6.9
		c1,1,1.8,1.9,3.3,1.1c1.4-0.7,2,0.4,2.8,1c-0.2,1.2-1.1,0.6-1.9,1c-0.3,1.3,0,3-1.4,3.9c1.9,3.4,5.1,1.2,7.5,2.3
		c-0.9,1.6-2.3,1.3-3.6,1.1c-1.5-0.1-2.7,0-3.3,1.6c0.1,1.2,1.5,1.5,1.7,2.9c-0.7,1.7-2.1,3.8,0.3,6c2.8,0.6,5.6,1.5,8.9,0.6
		c2.5-0.7,4.8,0,6.8,1.4c1.2,3.2,0.4,6.5-0.1,9.7c-0.2,1.5-0.8,2.9-1.1,4.3c-0.7,3.3-2.3,5.9-5.2,7.6c-2.1,1.2-3.9,2.9-5.7,5
		c0-3.5,3.1-6.5,8-7.8c1.5-6.2,2.8-12.5,2.3-19.1c-4.2,0.7-7.8,1.7-11.8,0.7c-3.9-1-6.7-3.7-4.2-8.6c-1.2-1.3-1.8-3-0.3-4.7
		c-0.5-0.8-1-1.6-1.4-2.3c0-1.6,1-2.9,0.6-4.2c-0.3-0.7-0.7-0.8-1.1-1.1c-2.8-2-3-3.5-1-6.2c1.6-2,2.6-4.3,3.3-6.6
		c0-1.3-1.5-1.1-1.7-2.1c0.4-0.7,1.1,0,1.7-0.7c-1.3-1.9-2.5-4.1-2.1-6.7c0.2-1.1,0.2-2.3,0.7-3.3c1.8-4.1,3.5-8.2,5.4-12.2
		c2-4,5.5-6.5,9.6-7.7c1.7-0.5,3.5-1,5.2-1.5c7.5-2.1,15-2.7,22.6-1c2.4,0.5,4.4,1.5,6.2,3.3c2.3,2.2,5.1,3.8,7.1,6.4
		c2.9-0.2,5.8-0.4,8.6-0.6c4-0.3,6.8,1.5,8.4,5.2c1.2,2.8,2.6,5.6,4.2,8.2c1.7,2.8,2,6.1,1.3,9.3c-0.6,2.4-1.2,4.9-2.3,7.2
		c-1.3,2.7-2.1,5.5-2.5,8.5c-0.5,3.4-1.5,6.7-2.7,9.9c-2.4,6.6-3.1,13.3-1.5,20.2c0.4,1.6,0.7,3.3,0.2,5.3c-1.8-1.5-1.1-3.8-2.5-5.7
		c-0.2,3.2-0.4,5.9,0.6,8.7c2.7,1.6,5.8,2.6,8.4,4.5c1.6,1.2,2.8,2.6,3.6,4.4c3.4,7.5,4.8,15.4,5.2,23.6c0.2,4.1,0.6,8.2,0.8,12.3
		c0.4,7.7,0.2,15.3-2.7,22.6c-1.6,4-1.6,8.3-2.2,12.4c-0.1,0.6,0.2,1.3,0.4,2c0.7,2.6,1.6,5.2,2.7,7.8c2.7,6.2,4.2,12.8,4.9,19.5
		c0.8,7.1,1.3,14.4,3,21.3c0.9,3.9,1.8,7.9,3,11.8c1.9,6.3,3.6,12.7,5.5,19.4c2.8,1.1,5.9,1.9,9,2.1c2.6,0.2,5,0.9,6.9,2.6
		c4.8,4.3,10.5,6.3,16.7,7c0.6,0.1,1.1,0.1,1.6,0.7c-0.5,2-1.9,3.4-3.8,4.4c0.2,0.7,0.4,1.4,0.6,2c4.5,1.3,8.3,3.8,12.3,5.9
		c3.7,1.9,6,5.2,7.3,9.1c2.5,7.4,3.6,15,2.8,22.9c-0.9,8-2.3,15.8-4.2,23.6c-1.9,7.6-2.6,15.3-2.9,23.1c-0.2,5.2-1.5,10-3.4,14.9
		c-3.2,8.4-6.5,16.8-8.6,25.6c-2.6,10.6-1.4,20.9,2.5,30.9c3,7.7,5.5,15.5,6.8,23.6c1.7,10.4,1.7,20.7-0.5,31
		c-0.6,3-1.7,5.9-3.1,8.7c-2.1,4.2-3.4,8.7-4.7,13.2c-1,3.4-0.5,6.7,1.1,10c2.8,5.7,6.2,10.9,11.2,15c2.5,2,2.2,5.3-0.3,7.4
		c-1.8,1.5-3.9,1.8-6.1,1.9c-4.1,0.1-8.2-0.6-12.3-1.2c-9-1.2-17.2-4.3-24.7-9.5c-2.9-2-5.8-4.1-9.6-4.6c-2.3,0.5-3.5,2.5-5.2,3.9
		c-0.3,2.4,1.2,4.2,1.4,6.3c-7.5,3.6-15.1,5.3-23.2,4.1c-0.8,0.6-1.6,1.1-2.3,1.7c-1.6,1.4-3.4,2.3-5.5,2.6c-6.3,1-12.6,1.9-19,2
		c-3,0.1-5.9-0.6-8.8-1.1c-3.8-0.7-7.7-1.1-11.4-2c-3.6-0.8-6.9-2.9-7.9-6.4c-0.7-2.4-1.4-5.5,0-8.2c1.5-1.3,3.4-1.4,5.2-1.7
		c4.5-0.8,8.4-2.6,11.5-6.2c0.7-0.9,1.7-1.6,2.5-2.3c1.5-1.4,2.9-2.9,3.8-4.8c1-2.1,2.3-3.9,4.6-5c-0.3-1.2-1.3-1.6-1.9-2.4
		c-1.2-1.5-2.5-2.9-2.8-5c-0.2-1.4-1.2-2.6-2.5-4.5c0.2,3.9-1.5,6.1-3.7,7.9c-2.3,1.9-3.7,2.1-6.1,0.5c-3.5-2.3-7.4-4.1-10.7-6.7
		c-0.2-3.2-2.9-4.7-4.7-6.8c-1.8,0.6-1.5,2.5-2.4,3.6c-0.9,1-1.7,2.1-2.7,3.5c1.5,0.3,2.9,0.6,4.2,1c1.9,0.7,2.2,1.4,1.6,3.7
		c-2.7-0.2-4.8-1.9-7.2-2.6c-1.1,0.5-1.8,1.3-2.1,2.5c1.8,0.6,4.3-0.6,5.3,2.3c-2.4,1.9-4.8,0.4-7.1,0.1c-0.9,0.2-1.6,0.8-1.9,1.7
		c1.3,0.8,3.3,0.4,4,2.5c-1.9,2.7-4-0.1-6,0.1c-1.1,0-0.6,1.3-1.6,1.9c-3.8-0.4-7.2,1.4-10.8,2.9c-1.6,0.7-3.2,1.2-5,1
		c-3.1-0.3-6.1,0.9-9.2,1c-0.7,0-1.5,0.6-2.4,0.9c-0.7,2.6-1.3,5.2-2.1,7.9c2.9,2.6,6.2,4.5,9.8,6c1.7,0.7,3.6,0.9,5.4,0.6
		c4.7-0.7,9.4-0.4,14,0.1c2.9,0.3,5.7-0.3,8.5-0.8c2.9-0.6,5.8-1.1,8.8-0.9c0.6,0,1.1,0.2,1.8,0.7c-0.5,1.1-1.5,2.2-2.7,2
		c-2.7-0.5-5.2,0.6-7.7,1.2c-6.6,1.5-13.4,2.1-20.1,1.6c-7.4-0.6-14.1-3.3-19.6-8.9c1.1-1.7,0.8-3.5,0.6-5.3
		c-0.5-4.1,1.2-6.7,5.3-7.3c3.2-0.5,6.5-1.5,9.8-1.2c1.1,0.1,2.2-0.1,3.3-0.6c1.7-0.7,3.4-1.2,5.1-1.9c1.6-0.6,3.2-1.2,5-1.9
		c2.1-3.7,6-6,8.4-9.8c-4-1.8-8.4-3-11.8-5.8c-0.7-0.6-1.5-1.1-2.1-1.8c-2-2.9-5-4.2-8.3-5.1c-0.7-0.2-1.3-0.4-2-0.6
		c-1.7-0.6-2.9-1.7-3.2-3.6c-1.3-8.1-5.8-14.8-10.3-21.4c-2.4-3.5-4.8-7-6-11.1c-1.7-5.8-0.8-11.5,0.3-17.3
		c1.3-6.6,2.8-13.2,3.9-19.8c1.2-7.2-0.5-13.8-3.4-20.3c-1.9-4.2-4.4-8-6.9-11.9c-2.6-4.1-4-8.7-4.1-13.3
		c-0.1-6.2-0.4-12.6,1.2-18.7c1.6-6.1,1.9-12.4,3.2-18.6c1.2-6.2,1.9-12.4,3.1-18.6c1.2-6.1,0.6-12.1-0.4-18.1
		c-0.8-4.9-1.4-9.9-3.6-14.6c-0.8-1.6-1.1-3.5-0.8-5.2c-1-0.9-2.1,0.1-2.6-0.2c-2.5-1.4-3.5-3.2-3.1-5.6c-0.6-0.2-1-0.4-1.4-0.6
		c-2.3-1-3.1-2.4-1.6-4.2c2.7-3.4,4.1-7.3,5.4-11.3c0.8-2.4,2.4-4.3,5.3-4.7c1.4-0.2,2.8-1.1,3.9-2.1c3.3-2.8,6.5-5.7,8.4-9.7
		c2.3-4.8,5.2-9.1,8.3-13.4c2.5-3.4,4.7-7,6.4-10.9c2.7-6.3,5.9-12.3,10.2-17.9c-2.5-5.9-3.5-12.2-3.6-18.4
		c-0.1-6.4-3.5-11.1-6.6-16.1c-1.1-1.7-2.4-3.3-3.5-5.1c-1.2-1.9-1.8-4-1.5-6.2c0.3-2.6-0.1-5.2,0.3-7.9c0.6-3.5,2-6.6,4.5-9.1
		c4.4-4.5,8.7-9.1,13.9-12.7c4.7-3.3,8.5-7.6,12.3-12.7c-5.2,1.7-6.6,6.8-10.5,9.7c0-1.6,0.8-2.6,1.2-3.7c0.5-1.1,1.6-2,1.5-3.4
		c0-0.3,0.2-0.6,0.4-0.9c1.7-2.3,7.2-4,10.4-3.1c-0.6,1.9-2.7,2.4-3.3,3.6c-0.6,4.5-4.4,7.3-4.8,11.4c0.3,0.6,0.7,0.9,1.3,0.9
		c2.3,0.1,4.6,0.4,6.8,0.2c5.6-0.5,10.9-2.4,16.1-4.4c2.1-0.8,3.9-2.5,5.1-4.5c3.1-5,7.6-8.7,11.8-12.8
		C382.1,240.4,382.9,240.1,382.9,239.2L382.9,239.2z M394.4,198.7c-0.8,0.4-1.5,0.8-2.3,1.2c-0.8,0.4-1.5,0.4-1.9-0.5
		c2.5-0.4,4.3-2,6.2-3.6c-0.8-0.7-1.3,0.1-2.1-0.2c1.5-1.4,3-2.8,4.4-4.1c1.5-1.5,2-3.4,2.7-5.4c-1.5,0.1-2.3,1.6-3.9,0.9
		c1.7-1.5,4.1-2.3,4.3-5.1c-4.7,3.1-5.7,3.5-8.3,3c2.9-1.6,6.8-2.1,8.3-6.3c-6,2.3-12.2,2.1-17.9,4.1c0.7,1,1.4,0.8,2.2,0.5
		c2-0.8,3.5,0.1,4.9,1.4c1.4,1.2,1.9,2.8,2,4.6c0,1.5,0.5,2.9,0.9,4c-0.5,2.7-2.8,4.2-3.6,6.4c-0.7,0.7-1.5,1.4-1.8,2.8
		c1.9-0.4,3.6-0.9,5.1-1.9C394.2,199.9,394.7,199.4,394.4,198.7c0.7-0.1,2,0.7,2-1.1C395.5,197.5,395.1,198.3,394.4,198.7z
		 M394.3,167.1c-1,0.6-1.1,1.9-2.4,2.3c-4.1,1.1-7.7,3.7-12.1,4.1c-1.1,0.1-2.2,0.5-3.8,1c3.1,0.8,5.6,1.5,8.5,1.1
		c2-0.3,4-1.1,6-1.2c3.6-0.1,6-2.4,8.7-4.1c0.9-0.6,1.1-1.4,0.2-2.2c-7.9,4.1-10.5,5-13.9,4.7c4.7-2,9.6-2.9,13.2-6.4
		c-1-1-1.7-0.3-2.4-0.1c0.2-1.1,1.8-1,2-2.3c-1.9-2-3.8-4.1-6.2-5.4c-7.2,0.7-14.3,1.2-21.9,2.6c1,0.5,1.4,0.7,2.1,1
		c-1.2,0.4-2.5,0.3-3.3,1.6c2.5-0.4,4.7-0.7,6.9-1.1c0,0.3,0,0.6,0,1c1.5,0.2,2.9-0.5,4.3-0.8c3.4-0.8,6.9-1.8,10.4-2.3
		c1.6-0.2,3.1-0.2,4,2.1c-7.2,0.5-14,1.7-21.4,4c2,0.4,3,0.8,3,2.3c-3.3,0.3-6.4-0.2-9.5-1.6c-0.2,0.9-0.2,1.7,0.4,2.2
		c1.7,0.7,3.4-0.3,5.1,0.4c5.7,2.5,11.3,1.8,16.8-0.9c0.7-0.3,1.5-0.7,2.2-1.1C392.1,167.5,393.2,167.2,394.3,167.1z M286.9,403.2
		c1.3-0.9,2.7-1.5,4.1-2c0.2-1.9-0.9-4,1.3-5.6c1,2.1,0.5,3.9-0.1,5.8c2.7,1.6,2.2,5.7,5.9,6.6c-2.6,1.3-2.2,4.7-4.8,5.1
		c-2,0.8-3.8,0-5.6-0.3c3.1,2.4,6.4,2.9,10,1.5c1.6-1.3,2-3.4,3.7-4.5c1.3,1.7-0.8,2.7-0.9,4.7c1.7-2,2.9-3.6,4.2-5.1
		c-0.1-1,0.1-2.3-0.4-3c-1.6-2.5-0.7-4.9,0-7.2c1.5-4.6,4-8.8,7.5-12.1c5.5-5.3,10.9-10.8,16.8-15.7c2-1.7,3.8-3.6,5.4-5.6
		c0-2-0.1-4,0-5.9c0.3-3.1-0.9-6.1-0.3-9.2c0.9-4.3-0.6-7.9-2.9-11.5c-2.7,4.1-5.6,7.7-7.8,12.2c0.9,1.7-0.2,3.2-1.1,4.8
		c-2.7,4.7-5.9,9.2-8.8,13.6c0.1,0.6,1,0.5,0.5,1.3c-2,0.7-3.5,2.1-4.1,4.4c-0.1,0.3-0.1,0.7-0.3,0.9c-2.7,2.8-4.7,6.1-7.1,9.2
		c-0.8,1-1.7,1.4-2.9,1.4c-0.7,1.4-1.4,2.7-2.2,4.2c-2.4,0.1-2,3.1-3.9,4.1c-1.4-1.1-0.6-2.3,0.4-3.5c-3,0.9-3.1,0.9-4.1,2.7
		c-1.6,2.7-1.8,5.8-2.9,8.7c-1.6,1.6-3.8,2.7-3.7,5.6c1.5,0,2.2-0.8,2.6-1.9C286.1,405.5,286.4,404.3,286.9,403.2z M452,428
		c0.2-0.6,0.1-1.2-0.4-1.6c-1.3-1-1.8-2.4-2-3.8c-0.5-3.2-2.5-6-2.5-9.2c-1.3-0.8-2.1-0.5-3,0.3c0.3,4.5,2.2,8.5,3.8,12.5
		C449.4,426.8,450.9,426.9,452,428c0.1,0.3-0.1,0.8-0.4,0.7c-2.8-0.7-5.7-1.1-8.6-1.2c-0.2,0-0.4-0.2-0.6-0.3
		c-2.5-1.2-5.1-1.9-7.9-1.3c-0.8,0.2-1.6,0.3-2.4,0.3c-2.4,0-3.9-1.2-4.1-3.6c-0.1-1,0-2,0-3c-1.3,3.8-2.7,7.5-4.3,11.2
		c-1.8,4.2-2.6,8.5-2.1,13c-1.8,3.2-1.9,6.6-1.8,10.1c0.3,8-0.4,16-1.9,23.8c-1.7,8.5-3.6,17-7.1,25c-3.7,8.4-3,17.2-0.4,25.5
		c3.2,10,7.1,19.7,10.6,29.6c1.8,5.2,3,10.5,3,16.1c0,6-0.5,12.1-0.8,18.1c-0.1,3.2-0.7,6.3-1.2,9.5c-0.6,3.8-2.3,7.4-2.8,11.3
		c-0.6,4.5-0.7,9.1-1.5,13.6c-0.8,4.5,0.8,9.1-0.2,13.6c-0.2,0.7,0.1,1.6,0.2,2.4c0.4,2.2,0.8,2.6,3.4,3c1,3.4-1.4,6.3-1.4,9.5
		c0,0.7-0.9,1.3-2.1,1.5c-3.3-1.8-6-4.8-8.8-7.4c-2.7-2.6-4.8-5.8-7.8-8.1c-1.4-1.1-3-2.1-5.2-1.7c-1.4,3.2-1.9,6.9-5.2,9.5
		c1.9,0.7,3.3,1.2,4.7,1.8c1.6,0.7,3.2,1.2,4.6,2.3c0.7,0.6,1.3,1.3,0.3,2.3c-3.7-1.5-7.3-3.1-11.1-3.9c-0.9,0.5-1.8,0.9-2.4,1.8
		c8.2,1.7,9.3,2.3,10.6,5.4c-3.7,0.5-6.9-1.5-10.4-1.7c1.1,1.2,2.5,1.3,3.7,1.8c1.3,0.6,2.8,1,3.1,3c-2.4,1.2-4.5-0.2-6.5-0.6
		c-2.2-0.5-4.4-1.1-6.6-1.6c-0.7,1.5-2.1,2.3-2.3,3.9c7.5,1.2,7.5,1.3,8.9,3c-0.2,0.8-0.9,1-1.6,1c-3.3,0.1-6.2-1-9.1-2.4
		c-5,4.2-10.2,7.5-16.8,7.7c-0.1,0-0.2,0-0.3,0.1c-0.8,0.2-1.6,0.4-1.7,1.7c6.1,0.9,10.1,5.1,13.9,9.6c-4.7-2.7-8.8-6.5-14.4-7.8
		c-0.4,1.2-0.1,2,0.7,2.8c2.4,2.6,5.1,4.6,8.5,5.4c2.7,0.6,5.4,1.2,8.1,1.5c4.6,0.7,9.2,1.5,13.9,1c3.5-0.4,7-1.1,10.5-1.3
		c4.2-0.2,7.4-1.8,10.3-4.6c0.5-0.5,1-1,1.5-1.4c1.4-1.1,2.8-1.2,4.2-0.3c-0.2,0.8-1.3,0.8-1,1.8c6,0.6,11.7-0.4,17.2-3.1
		c-0.7-2.6-1.2-5.1-1.9-7.5c-0.7-2.3-1.5-4.5-1.7-6.9c-0.1-1.4-0.2-2.9-1.2-4.2c-2.1-2.4-2.9-5.3-2.7-8.6c0.1-2-0.1-4.1-2.2-5.3
		c0.4-1.6-2.1-1.3-1.9-3c0.9-1,1.9-0.5,2.8,0.2c2.3,1.8,3.2,4.5,3.5,7.2c0.2,1.3,0.4,2.4,0.8,3.6c1,2.9,2.2,5.7,3,8.7
		c0.5,2,1.1,4,2.3,5.7c0.3-0.2,0.6-0.4,0.9-0.6c2.5-2.4,5.3-2.9,8.5-1.7c1.6,0.6,3.1,1.3,4.6,2.2c4,2.3,7.5,5.2,11.7,7.1
		c8.1,3.6,16.8,4.9,25.6,5.5c0.9,0.1,1.8,0.1,2.7-0.1c1.2-0.2,2.5-0.6,2.7-2.2c-0.2-0.3-0.3-0.6-0.6-0.8c-5.3-4.4-8.9-10-11.8-16.1
		c-1.8-3.8-2.4-7.7-1.4-11.7c1.2-4.5,2.4-9.1,4.5-13.3c3.4-6.8,4.6-14.1,4.9-21.5c0.4-11.9-1.7-23.4-5.8-34.6
		c-1.1-2.9-2.3-5.7-3.2-8.7c-2.2-7.1-3.7-14.4-2.9-21.9c1.3-12.1,6-23.2,10.3-34.3c1.7-4.6,2.9-9,3.2-13.9
		c0.4-8.6,1.4-17.1,3.7-25.4c1.7-6.3,2.9-12.7,3.7-19.1c0.9-7.8,0.7-15.5-1.7-23c-1.3-4-3.7-7-7.3-9.2c-3-1.8-6-3.1-9.8-2.9
		c-0.5,0.5-0.4,1.7-1.7,2.4c-2.1,0.1-4.5,0.3-7,0.8c-0.4,0.8-0.3,2.2-1.4,2.5c-3,0.7-6.1,1.3-9.1,1.8c-0.7,0.1-1.3-0.4-1.8-0.8
		C452.8,427.9,452.4,427.7,452,428z M336.3,538.2c0.6,2.9,1.5,5.6,1.5,8.3c0,5.7,1.5,11.4,0.5,17.1c-0.1,0.4,0,0.9,0.1,1.3
		c0.7,2.7,0.9,5.4,1.2,8.1c0.4,3.5,1.1,7,2.8,10.2c0.8,1.5,1.4,3.1,1.8,4.8c0.9,3.7,0.7,7.7,3,11.1c0.2,0.4,0.2,0.9,0.4,1.3
		c0.9,4,1.9,8,2.8,12c1.7,7.4,3.9,14.8,4,22.4c1.2,1.9,3,3.3,3.3,5.4c4,2.3,7.9,4.4,11.7,6.5c2.1-1.4,3.7-2.7,4.5-4.8
		c-1.9-2.6-2.1-5.6-2.4-8.5c-1.2-9.3-2.5-18.6-2.5-28c0-4.4,0.1-8.7,1.1-12.9c1.2-5.2,1.7-10.5,1.4-15.9c-0.9-12.8-3.9-25-8.4-36.9
		c-0.4-1-0.8-1.8-2.1-2c-0.9,2-0.1,4.4-2,6.4c-0.5-2.3-0.3-4.3,0-6.1c2.8-3.1,3.4-6.9,4.1-10.5c1.1-5.7,1.7-11.5,2.4-17.3
		c0.6-4.3,2-8.4,2.9-12.7c0.4-1.9,0.9-3.8,0.7-5.8c-0.9-7.5-1.1-15-1-22.5c0.2-9.2,0.2-18.4,0.3-27.8c-5.5-0.2-10.7-1.5-15.9-2.7
		c-6-1.4-12.1-2.6-18.1-3.9c-1.4-0.3-3-0.4-3.7-2.1c1.2-1.3,2.6-0.9,3.9-0.6c6,1,11.9,2.3,17.8,3.7c5.3,1.2,10.6,2.7,16.2,3.5
		c0.5-3.3,1.1-6.5,1.6-9.9c-1.4-1.6-1.5-3.5-0.8-6.3c1.6,2.9,2,5.6,3.9,7.4c-2.8,4.2-1.3,8.7-1.9,12.8c3.3,1.4,6.5,1,9.5,1.4
		c5.1,0.6,10.1,2,15.3,0.9c5.5-1.1,11-2,16.4-3.3c2-0.5,4-1,5.9-2.1c0.2-5.5,2-10.5,4-15.5c1.4-3.5,2.3-7.2,2.2-11
		c-0.1-2.9,0.3-5.7,1-8.3c-5.3-10.8-8.8-22.2-14.1-32.6c-0.5-0.1-0.7-0.2-0.9-0.2c-12.7,1.8-25.1,4.7-37.1,9.2c-2,0.8-4,1.6-6.1,2.3
		c-3.5,1.3-7,1.9-10.7,1.9c-4.8-0.1-9.6-0.1-14.4-0.1c-0.9,0-1.8-0.4-2.6,0.3c-0.7,1.2-0.3,2.7-1,4.3c-1.7,1.2-2.8,2.9-1.7,5.5
		c0.8,0.4,1.7,0.8,2.7,1.2c-0.9,0.8-2.1,0-3,0.9c-0.7,1.4-0.5,3-0.5,4.6c1.1,0.6,1.4,1.5,1.2,2.6c-0.2,0.9-0.4,1.8-0.7,2.7
		c-1.3,4.1-2.8,8.2-4,12.4c-1.8,6.5-3,13.1-3.5,19.8c-0.4,5.2-1.2,10.4-1.4,15.7c-0.5,13.1,1.5,26,4,38.8c1,5.4,2.8,10.7,2.3,16.2
		c-0.5,5.1,0.3,10.1,0.5,15.2c0,0.7,0.1,1.4-0.1,2c-0.7,2-0.1,3.8,0.7,5.6c0.5,1.2,1.3,2.4,0.8,4.1c-2-1.7-3.2-4-3-6.3
		c0.3-2.4-0.3-4.5-0.6-6.7c-0.4-3.4-0.9-6.8-1.1-10.2c0-1.3,0.3-2.4,1.2-3.3c-0.9-2.1-1.3-4.1-1.6-6.1c-0.9-5.3-1.5-10.6-2.5-15.9
		c-3.1-16.5-4.3-33.2-1.8-50c1.1-7.2,2.2-14.4,3.4-21.6c0.6-3.6,1.6-7.1,2.7-10.6c1.3-4.2,0.5-8.7,1.5-12.9
		c0.9-3.9,1.9-7.7,1.7-11.7c-0.1-1.5,0-3.1,0.3-4.7c0.5-2.6-0.3-5.3-1.3-8c-8,6.9-14.4,15.1-23.2,20.5c-1.2,3.5-4.3,5.7-5.2,9.3
		c-0.9,3.5,0.4,7,0.2,10.4c-2.5,2.8-4.8,5.6-7.2,8.3c-2,0-3.7,0-5.5,0c-0.2,0.8,0.1,1.3,0.3,1.8c2.8,7.3,4.7,14.8,5.5,22.6
		c0.6,5.5,0.5,10.9-0.9,16.3c-1.1,4.4-1.5,9-2.4,13.5c-0.9,4.4-2,8.7-2.3,13.1c-0.1,1.1-0.5,2.2-0.8,3.3c-0.7,2.1-1.1,4.2-1.4,6.3
		c-1.3,10.9-0.5,21.5,6.3,30.7c0.3,0.4,0.5,0.8,0.7,1.2c6.9,11.1,9.5,22.8,6,35.7c-1.5,5.5-2.3,11.2-3.5,16.8
		c-1.5,7.1-0.3,13.6,4,19.5c1.2,1.7,2.3,3.4,3.5,5.1c4,6,7.6,12.2,8.9,19.5c0.1,0.4,0.4,0.8,0.6,1.3c1.3,0.4,2.6,0.8,3.9,1.2
		c2.7,1,5.3,2.2,7.1,4.5c1.9,2.4,4.4,3.9,7.2,5c2.6,1.1,5.6,1.6,7.7,3.7c1.2-1.6,1.5-3.3,2.2-4.8c0.8-1.6,2.1-2.6,3.9-3.2
		c-0.4-2.1-0.6-4-1-5.9c-1.9-9-3.4-18.2-5.5-27.2c-1-4.2-1.9-8.4-3.5-12.5c-2-5.2-3.6-10.6-3.9-16.3c-0.2-3-0.7-5.9-0.5-8.9
		c0.2-3.6-0.7-7.3-0.6-10.9c0.1-3.3,0.3-6.6-0.6-9.9C334.9,539.3,335.3,538.7,336.3,538.2z M375.2,512.7c0.4,2.6,1.1,5,1.2,7.5
		c0.3,4.9,1.9,9.3,4.4,13.5c0.9,1.6,1.4,3.3,1.3,5.2c-0.2,1.8,0.4,3.7,1.5,4.8c2,2,2.1,4.4,2.7,6.8c0.4,1.3,0.6,2.7,1.1,4
		c2.6,7.3,4.5,14.8,6.7,22.3c0.3,1,0.5,2,0.5,3c-0.2,5.4,1.1,10.6,1.6,15.9c0.8,8.6,2.3,17.2,2.4,25.9c0,0.6,0,1.2,0.1,1.7
		c1.3,4.3,1.4,8.7,0.6,13.4c5.6,2.1,8.6,7.1,12.3,11.1c1.1-0.1,1.5-1.3,2.6-1c0.7,0.7-0.4,1.6,0.4,2.5c0.6,0.5,1.1,1.6,2.4,1.9
		c0.1-1.1,0.2-2.1,0.3-3.1c-1.9-2.6-1.9-5.7-2.1-8.6c-0.5-9,0.8-18,1.6-27c0.6-7.1,3.2-13.8,3.4-20.9c0.1-3.8,0.1-7.6,0.6-11.3
		c0.7-5.2-0.3-10.2-1.5-15.2c-2.4-10.6-6.8-20.5-9.4-31c-1.9-7.6-4.5-15.1-3.2-23.2c0.5-2.9,1.4-5.8,2.1-8.6
		c2.5-10.1,4.7-20.2,7.1-30.3c0.8-3.3,1.6-6.6,0-10c-0.2-0.4,0-0.9,0-1.3c0.4-4.3,0.8-8.6,1.2-12.9c0.1-1.4,0.8-2.8,0.5-4.4
		c-6.8,2.2-13.6,4.3-20.6,5.3c-3.7,0.6-7.3,0.6-10.9,0c-4.8-0.8-9.7-0.6-14.7-1.7c-0.1,1.1-0.1,1.9-0.1,2.6c0,12-0.1,24-0.1,36
		c0,1.3,0,2.5,0.2,3.8c1.2,7.2,2.7,14.3,5,21.3c0.1,0.3,0.1,0.7,0.1,1C376.2,512,375.8,512.2,375.2,512.7z M440.7,400.7
		c-0.1-5.8-1.7-10.5-3.4-15.2c-1.4-3.9-3-7.6-3.7-11.7c-1.9-11.4-4.5-22.6-5.6-34.1c-0.3-2.8-0.7-5.6-3.1-7.7
		c-1.2-1.1-1.4-3.1-1.8-4.8c-0.5-2.6-1-5.2-1.6-7.7c-0.3-1.2-0.4-2.5-0.3-3.7c0.4-6,1.3-11.8,3.3-17.5c0.5-1.4,0.8-2.8,0.9-4.3
		c0.5-7.2-0.1-14.4,0-21.6c0-0.6,0.1-1.3-0.2-1.7c-1.2-1.6-1-3.5-0.9-5.3c0-6.4-1.6-12.4-3.7-18.4c-0.8-2.3-2.1-4-4.4-4.9
		c-4.5-1.7-8.6-4.3-12.7-6.9c-0.5-6.5-1-13.1-0.7-19.8c0.3-6.6,2-13,3.1-19.4c-2,6.4-4.2,12.8-6.1,19.3c-1.5,5.2-2.4,10.4-1.9,15.8
		c0,0.3,0.1,0.7,0.2,1c0.6,0.8,1.2,1.5,2.6,1.7c-0.7-3.8-1.6-7.2-1-11.5c0.9,4.7,1.7,8.7,2.5,12.8c-1.9-0.5-3.6-0.2-5.3-0.9
		c0.1,2.2-2.3,3-2.5,5c-2.9,2.1-4.7,5.2-7,7.9c-6.6,7.5-9.6,15.9-5.7,25.8c0.5-0.2,1-0.4,1.5-0.6c0.2,0.5,0.4,0.9,0.5,1.3
		c1.6,6.1,5.4,11,8.8,16.2c1.6,2.4,3.8,4.3,7,5.7c-0.9-5.5-0.7-10.7-1.2-15.6c-1.1-1.1-2.1-2-3.1-2.9c1.1-0.9,2,0.9,2.9-0.1
		c0.6-1.1-0.2-2.7,1.2-3.9c1.5,2.7,0.9,5.5,1.2,8.1c0.3,2.7,0.3,5.4,0.4,7.9c0.7,0.5,1.5-0.2,1.8,0.9c-0.2,3.4,0.5,7,1,10.6
		c1.1,7.5,2.9,15,1.4,22.6c0.5,0.6,1.3,0.6,1.4,1.5c-0.7,3.8-0.7,7.8-0.8,11.8c-0.1,4.6,0.2,9.1,1.1,13.6c0.4,2.1,1.3,4.1,1.8,6.2
		c1.3,5.1,2.7,10.2,4.9,15c4.9,10.6,9,21.5,13.3,32.3c1.8,4.5,3.3,9.3,7.1,12.9c2.9,0.5,5.9-0.1,8.9,0.1c0-0.8-0.2-1.3-0.5-1.8
		c-1-0.5-2.6,0.2-3.3-1.6c2.8,0.5,4.9-1.4,7.9-1.4c0.3,0.5,0.6,1.2,1,1.8c3.4-1.8,7.6-1.2,9.3-5.1c1.3,0.5-0.2,1.6,1,2.3
		c2.9,0.8,6.2,1.8,9.5,2.7c2.2,0.6,4.4,0.6,6.4-1c-0.3-0.3-0.5-0.5-0.6-0.5c-6.2-0.7-11.5-3.5-16.4-7.2c-1.4-1.1-3-1.8-4.7-1.8
		c-2.6,0-5-0.8-7.3-1.6C443.9,400.5,442.6,399.9,440.7,400.7z M385.2,375c8.2-2,16.1-4.2,24.7-5.2c-1.8-3.6-3.4-7-5.2-10.3
		c-2.8-5.3-4.5-11-5.9-16.8c-0.3-1.3-0.8-2.8-0.4-4c0.6-2.1,0.3-4.1,0-6.1c-0.4-2.7-0.1-5.2,0.8-7.7c0.5-1.5,0.8-3.1,0.8-4.8
		c-3.9-1.5-7.9-2.5-11.8-3.5c-12.2-3.1-24.8-3.8-37.3-5.1c-4.3-0.4-8.6-1.4-12.8-0.8c-2.9,3.1-7.5,1.5-10.7,4.1
		c0.5,1.4,0.7,2.9,0.7,4.3c0.4,6.1,1.9,11.9,5.5,17c2.6,3.8,3.8,8.1,3.7,12.6c-0.2,5.3,0.3,10.5,0.2,15.7
		c-0.1,6.3,0.8,12.5,2.4,18.4c3,0.7,18.4,0.5,22.9-0.3c0.4-1.5,1.6-2.1,3.2-2.4c0.9-0.2,1.8-0.5,2.6-0.7c4.9-1.4,9.8-2.9,14.7-4.3
		c0.4-2,0.6-4,2-5.7C386,371.5,384.6,373,385.2,375z M399.7,298c-7.3-3.4-12.5-8.6-14.8-16.3c-0.2-0.8-0.8-1.4-1.3-2
		c-8.4-10-7.4-21.8-0.1-31.8c2.6-3.5,5.5-6.7,8.8-9.5c0.5-0.4,1.3-0.7,1-1.6c-1.1-0.9-1.9-0.2-2.7,0.4c-2.3,1.5-4.3,3.4-6.3,5.3
		c-4.4,4.2-9.3,8.1-12.8,13.3c-1.2,1.7-2.8,2.9-4.6,4c-3.8,2.3-8,3-12.2,4.2c-3.6,1-7.1,1.4-10.8,0.7c-2.8-0.6-5.5-1.2-5.9-5
		c-4.3,4.5-8.8,8.2-13.5,11.7c-8.4,6.1-12.4,21.1-2.3,30.3c0.6,0.5,1.1,1.1,1.3,1.9c0.7,2.9,2.8,5.1,3.8,7.9
		c5.8-2.7,11.6-3.4,17.6-3c5.1,0.4,10.2,1,15.3,1.5c5.3,0.6,10.7,0.9,16,1.7c8.2,1.3,16.2,3.3,24,6C403.8,311,401.7,304.6,399.7,298
		z M363.4,535.4c0.2,0.6,0.4,1,0.5,1.3c3.4,8.9,7.5,17.6,9.1,27.2c1.4,8.1,2.2,16.3,0.8,24.5c-0.7,4.1-2.3,8.2-0.8,12.5
		c0.1,0.2,0,0.5,0,0.7c-1.2,3.6-0.4,7.3-0.5,10.9c-0.3,8.2,0.6,16.4,2.2,24.5c0.1,0.3,0.2,0.6,0.3,1c0.7-0.2,1.1-1,2.2-0.7
		c1.8,1.4,3.5,3.5,4,5.8c0.8,3.2,3.2,4.8,4.7,7.3c3.3-1.9,4.8-4.8,5.8-8c0.7-2.2,1.5-4.3,3.2-5.8c0.8-1.1,2.3,0.2,3.3-0.9
		c-1.3-3.6-1.1-7.4-1.5-11.2c-0.8-7.5-1.4-15-2.2-22.5c-1-9.1-1.9-18.1-4.2-27c-1.1-4-2.1-7.9-3-12c-1-4.6-2-9.1-3.8-13.5
		c-1.2-3.1-2.6-6.3-2.7-9.7c-0.1-1.9-0.7-3.6-1.5-5.2c-2-3.8-3.8-7.7-4.5-12.1c-0.9-5.5-2.5-10.9-2.4-16.6c0-3.1-1.1-5.7-2.2-8.9
		c-1.4,4.5-1.9,8.7-2.1,12.9c-0.1,2.7-0.2,5.5-0.8,8.2c-0.5,2.2-1.2,4.4-0.3,6.7c0.4,1,0,2.2-0.2,3.4
		C366.1,530.8,364.9,533.1,363.4,535.4z M401.4,164.1c3.7-2.4,5.1-2.3,11,0.9c-1-1.6-1.9-2.9-3.5-3.1c-3-0.5-6-0.4-9.3,0.4
		c1.2,2.1,1.7,4.1,3.1,5.5c3.5,3.4,4.9,7.6,5,12.3c0.1,3.3-0.1,6.6-0.1,9.9c0.1,3.3-0.2,6.6-1.1,9.8c-1.5,5.7-2.3,11.4-1.3,17.6
		c0.1-3.9,0.5-7.5,1.5-11.1c-0.2,8.5-0.6,16.9,1.2,25.3c-1.3-13.6-0.1-26.9,3.8-40c0.6,7.1-2.3,13.9-2.2,21
		c1.6-4.4,3.3-8.9,4.5-13.4c0.3-1.2,0.5-2.6,0.9-3.9c1.8-5.1,3.6-10.1,4.1-15.5c0.5-6.5-3.9-12.9-10.2-14.7c-0.6-0.2-1.4-0.7-2.1,0
		c6.1,6.3,7.8,12.2,5.1,18.1c0.6-7.3-0.8-13.4-6.5-18C404.1,164.6,402.4,166,401.4,164.1z M371.9,177.3c0.7,1,1.6,1.3,2.6,1.5
		c1.9,0.4,3.9,0.6,5.6,1.4c2.4,1.1,4.6,0.8,7,0.2c3-0.8,6-1.4,8.8-2.7c1.3-0.6,0.7,1,1.6,1c1.3-0.7,2.7-1.4,3.9-2.6
		c0.1-1.8-0.1-3.5-0.9-5.2c-4.7,3.4-9.7,5.7-15.3,7.5c0.6-1.2,2-1,2.2-2.4c-2.7,0.8-5.5,0.7-7.6,2.4
		C376.9,178.4,374.4,177.6,371.9,177.3z M402.9,320c-1.5,4.3-2.8,8.4-2.2,13c0.5,3.4,0.6,6.8,0.9,10.2c0.4,4.8,1.9,9.3,4.2,13.7
		c0.7-1.2-0.1-2.2-0.4-3.1c-1.8-6.3-2.7-12.7-1.8-19.3C404.4,329.6,403.2,324.8,402.9,320z M448.7,415.3c1,3,1.9,6.1,3.1,9
		c1.2,2.9,3.4,3.6,6.3,2.6c-2.4-2.7-2.9-6.1-3.7-9.7c-2-0.2-1.9-2.7-3.5-3.6C449.9,413.7,449.3,414.2,448.7,415.3z M358.9,162.8
		c1.1,0.6,1.7-0.4,2.4-0.7c3.6-1.5,7-3.4,11.1-3.3c1.6,0,3.2,0.6,4.9,0.2c4.2-0.8,8.3-1.6,12.6-2.5c-3.2-3.3-4.6-3.6-6.1-1.5
		c0.6,0.3,1.1,0.5,2,1c-1.8,0.2-3.3,0.2-4.8,0.4c-2.7,0.4-5.5-0.3-8.1,0.3c-4.2,1-8.2,2.5-12,4.4
		C360.2,161.6,359.2,161.7,358.9,162.8z M460.8,417c1.8,2.2,4.1,3.2,4.8,5.7c2.4-0.2,4.7-0.4,7.2-0.6c0.1-2.1-0.3-3.9-1-5.9
		C468.1,417.1,464.7,417.1,460.8,417z M464.4,424.9c-0.7-2.8-4.3-6.5-8.6-8.8c0.8,3.4,1.4,6.5,3.3,9.4
		C460.8,425.5,462.8,426.9,464.4,424.9z M430.5,418.3c0.2,1.6-0.5,3.1-0.1,4.7c2.3,1.2,4.5-0.2,6.7-0.1c0.5-1.6,2.6-2.4,1.9-4.6
		C436.3,418.3,433.5,418.3,430.5,418.3z M393.5,210.6c-1.8,2.7-1.3,12.4,1.1,17.2c0-2.4-0.1-4.2,0-6c0.2-1.9,0.8-3.8,1.1-5.7
		C396,214,395.6,212,393.5,210.6z M399.1,201.8c4.6-6.3,6.9-18.5,5.2-25.9c-0.6,1.2-0.4,2.5-0.5,3.7c-0.2,4.5-0.7,9-2.5,13.2
		C400.2,195.4,399.7,198.2,399.1,201.8z M445.9,425.3c-1.6-2.3-0.7-6.1-4.3-8c-1.5,3.7,1,6.1,1.6,8.8
		C444.4,426.1,445.2,426.2,445.9,425.3z M290.2,403.7c-3.2,3.3-2.6,5.4,1.7,7.7c1.5-0.4,2.1-1.6,2.7-2.9
		C293.7,406.5,291.5,405.6,290.2,403.7z M457.1,414.2c1.1,0.8,2.5,1.8,4.7,0.6c-1.9-1-3-2.7-5.3-3.1c-1,1.3-2.7,0.1-4.2,1.1
		c0.6,1,1.1,2,1.6,2.9C454.8,415.4,455.4,414.3,457.1,414.2z M404.9,223.4c-0.4,3.7-0.3,7.4,0.1,11.1c0.9,0.5,1.6,1.4,2.9,0.9
		C405.9,231.6,405.9,227.4,404.9,223.4z M397,202.7c-1.3,1.9-2.6,3.8-1.6,6.3c-0.6,0.1-0.9,0.2-1.3,0.3c0.8,0.7,1.1,1.9,2.4,2.1
		C396.7,208.3,396.6,205.5,397,202.7z M382.7,152.9c-4.5-0.9-9-1-13.7,0.3c2.5,0.4,4.7-0.3,7-0.3
		C378.2,152.9,380.4,152.9,382.7,152.9z M372.6,173.1c-1.8-0.6-3.2-2.6-5.9-2C368.4,173.3,370.5,173.4,372.6,173.1z M428.3,417.1
		c1-0.6,1.8-1.1,2.7-1.7c-1-0.8-1.5-1.9-2.7-2.5C428.3,414.4,428.3,415.7,428.3,417.1z M365.1,153.2c-2.2,0-4.3,0.3-5.7,2.4
		C361.2,154.8,363.2,154,365.1,153.2z M389.3,192c-0.1-1.5-0.7-2.4-1.3-3.3c-0.5-0.7-1.1-0.7-1.6,0.3C387.1,190.1,388,191,389.3,192
		z M357.9,159.9c-1.7,0.4-2.5,1.7-4,3.3C356.5,162.9,356.4,160.5,357.9,159.9z M370.5,165.5c0.2,0.8,0.6,0.9,1.1,0.8
		c0.5-0.1,1.1-0.2,1-1.1C371.9,165.2,371.3,164.9,370.5,165.5z M363.1,157.1c-1.7,0.1-2.4,0.6-3.1,1.2c-0.2,0.2-0.2,0.3,0.3,0.5
		C361,158.4,361.7,158,363.1,157.1z M372.7,155.1c1.1,0.2,2.1,0.4,3.2,0C374.7,155.1,373.7,155.1,372.7,155.1z M466.5,415
		c-0.8,0.2-1.4-1.6-2.4-0.2C464.8,415.6,465.6,415.6,466.5,415z M440,423.3c0.3-0.9-0.2-1.2-0.8-1.7
		C438.7,422.7,439.3,423,440,423.3z M375.7,172.6c-0.5-0.5-0.9-0.7-1.5-0.2C374.7,172.9,375,173.3,375.7,172.6z M378.4,184.7
		c1,0.2,1.7,0.4,2.2-0.1C380,184.5,379.3,184.4,378.4,184.7z M405.1,219.9c-0.4,0.5-0.3,0.9,0,1.5
		C405.1,220.9,405.1,220.5,405.1,219.9z M382.4,655.8c0.6,0.6,1.2,0.4,1.9,0.1C383.6,655.6,383,655.2,382.4,655.8z"/>
	<path d="M382.9,239.1c-3.7,1-7.5,0.8-11.2,0.9c-2.5,0.1-5,0.3-7.4,0.6c-1.8,0.9-2.4,3-4.4,4.1c1.3-3.8,2.9-5.2,6.1-5.7
		c4.6-0.7,9.3-0.8,14-0.6C381,238.5,382.1,238.3,382.9,239.1L382.9,239.1z"/>
	<path d="M379.7,204.7c0.6,4.1-0.7,6.5-3.8,7.7c-3,1.2-6.2,2-10,2.9c3.8-3.1,8.5-3,11.6-5.8C378.5,208,378.2,206.1,379.7,204.7z"/>
	<path d="M780.6,160.3c-0.2,1-0.5,2-0.7,3c-0.5,2.2-1.8,3.4-4,4.2c-2.9,1.1-5.7,2-9.2,2.5c1.6-1.5,3.3-2,4.8-2.6
		c5.8-2.2,5.8-2.1,7.9-7.2c0.4,0.1,0.8,0.1,1.3,0.2L780.6,160.3z"/>
	<path d="M757.6,141.5c-0.7,0.9-1.6,0.4-2.6,0.4c-0.7,0.2-0.7,1.3-1.6,1.5c-0.7,0.2-1.3,0.4-1.9,0.2c0-2.7-0.1-2.9-1.8-5
		C752.8,138.1,754.5,138.7,757.6,141.5z"/>
	<path d="M348.9,183.5c3.9-1,6,1.3,8.6,2.6c-0.8,1.5-1.8,0.7-2.9,0.6c-0.7,1.2-1.5,2.4-3.4,1.6C351.7,186.4,350.9,184.8,348.9,183.5
		z"/>
	<path d="M760.1,137.1c-2.7,0-4.3-2.1-6.6-1.4c-1.8,0.6-3.6,1.5-6,1.7C750.4,133.3,755.9,133.2,760.1,137.1z"/>
	<path d="M354.4,180.4c-2.3,0.4-4.3,1.9-6.9,1.8c2.5-4,8.2-4.2,12.1-0.2C357.5,182,356.1,180.6,354.4,180.4z"/>
	<path d="M772.6,173c0.5-1.7,1.6-2.9,2.9-4.2C775.4,170.8,775.4,170.8,772.6,173z"/>
	<path d="M375.5,214.1c-0.6,1.8-1.8,3.1-3.2,4.2C372.6,216.3,373.9,215.1,375.5,214.1z"/>
	<path d="M824.5,185c0.3,1.6-0.5,3-1.2,4.4C823.2,187.8,823.6,186.3,824.5,185L824.5,185z"/>
	<path d="M769.5,179.7c0.1,1.2-0.4,1.4-0.9,1.9C768.3,180.5,768.7,180.2,769.5,179.7z"/>
	<path fill="none" d="M695.7,338.8c1.9,0.9,3.5,1.7,5.1,2.5c3.3-1.5,6.5-3,9.8-4.5c1.2-1.6,1.6-3.7,2.2-5.6c0.9-3,3.1-4.9,5.5-6.8
		c4.3-3.4,9.7-4,14.7-5.7c0.3-0.1,0.8,0.2,1.4,0.4c-0.1,2.2,0.4,4.3,1,6.4c1.1,3.9,0.9,7.8,0.7,11.8c-0.2,3.5,0.1,7-1.4,10.4
		c-0.8,1.7-0.6,3.6-0.7,5.4c-0.1,2.5,0,5-0.6,7.5c-0.3,1.3-0.6,2.6,0.5,3.9c0.6,0.7,0.2,1.8,0.1,2.7c-0.6,10.3,0,20.5,0.5,30.8
		c0.3,5.8,0.2,11.6,0.9,17.4c1.1,9.1,3.1,18,4.9,27c0.4,2.1,1.9,3.6,2.8,5.5c2.3,5,2.8,10.3,2.9,15.7c0,3.9,0.7,7.7,1.7,11.5
		c1,3.8,2.1,7.6,1.7,11.7c-0.9,11.1,1.2,22,3.2,33c2.8,15.1,5.8,30,10,44.8c1.1,3.9,1.7,8,2.5,11.9c-2.1,1.4-4.4,0.3-6.5,1.5
		c-1.4,2.2-1.1,5.1-0.8,7.7c0.4,3.4-0.2,6.5-1.3,9.7c-1.5,4.7-2.4,9.5-4,14.2c-0.6,1.8-1.4,3.5-2.6,5.1c-3.5,4.7-7,9.6-9,15.2
		c0.1,0.5,0.4,0.9,0.4,1.4c0.2,4.2,3.2,5.1,6.5,5.6c3.3,0.5,6.6,0.8,9.8-1.1c0.2,1.8,0.3,3.3,0.4,5c1.8,1.1,3.3,2.7,5.4,3.4
		c-0.1,1.1-1,1.3-1.6,1.7c-7.2,4.7-13.1,10.6-18.6,17.2c-7,8.3-16.4,11.8-26.7,12.9c-6.2,0.6-12.2-1.2-18-3.5
		c-0.8-0.3-1.7-0.8-2.3-1.4c-5.4-5.5-11.7-10.3-15.1-17.6c-0.8-1.7-2.1-3.3-3.3-4.8c-1.4-1.7-2.6-3.4-3.4-5.5
		c-2.1-5.6-5.6-10.7-6.4-16.9c-0.2-1.6-1.2-3.2-2-4.7c-3.7-7.8-5.2-16-6-24.5c-1.3-13.5-0.8-26.9,1.1-40.3c0.7-5,2.1-9.8,3.5-14.7
		c2.3-8.3,3.2-16.8,4.2-25.3c1.7-15.1,2.8-30.3,4.7-45.3c0.9-6.7,2.5-13.2,4.4-19.7c4.1-14.1,6.7-28.4,7.5-43.1
		c0.2-4.6,0.7-9.1,1-13.7c0.2-3.2,0.2-6.3-0.1-9.5c-0.3-4-0.2-8.1,0.9-12.1c1.7-6.6,3.4-13.3,4.3-20.1c0.5-3.9,2-7.5,2.8-11.3
		C694.5,340.5,696,340.2,695.7,338.8z"/>
	<path fill="none" d="M847.2,343.5c0.7,1.7,1.3,3.4,2.1,5c1.3,2.6,2.6,3,5.8,1.9c1.2,1.3,2.2,3.1,4.4,3.2c1.4,0.1,2.2-1,3.2-1.9
		c0.9,0.9,0.7,2.1,1.1,3.1c0.5,1.1,1.3,1.9,2.5,2.1c4.4-0.9,4.4-0.9,6-3c0.4,2.3,0.9,4.3,3.3,5c1.6,0.2,2.4-1.2,3.5-1.8
		c2.9,0.8,5.7,1.6,8.4,2.3c1-1.2,1-2.8,2.5-3.9c1.5,1.9,3.2,3.7,4.6,5.7c6.5,9.2,9.6,19.3,9.3,30.6c-0.4,14.7-3.9,28.7-9.1,42.3
		c-2.9,7.7-6.4,15.1-9.7,22.7c-3.2,7.3-5.1,14.9-5.7,22.8c-0.7,8-3.5,15-8.3,21.4c-5.4,7.2-8.7,15.5-12.4,23.6
		c-7.1,15.2-12.5,31.1-17.9,47c-3.6,10.6-7.5,21.1-12.4,31.2c-1.6,3.4-3.6,6.6-5.8,9.7c-3.1,4.2-6.9,7.3-11.6,9.4
		c-1.2,0.5-2.4,1.2-4.3,2.1c0.7-2.2,1.3-3.8,3-4.6c2.5-1.1,4.2-3.1,5.9-5.1c1-1.3,1.8-2.7,3.6-3.4c1-0.5,1.4-2.2,2.1-3.4
		c1.5-2.4,2.4-4.9,2.8-7.7c0.6-3.9,0.1-7.4-2.5-10.6c-3.2-3.8-6.1-8-9.8-11.4c-1.1-1-2.1-2.2-3.7-1.3c-1.4-2-0.7-4-0.5-5.8
		c0.8-7.3,2.1-14.5,3.5-21.6c1.5-8.1,3.8-16,5.3-24c1.3-7.1,1.9-14.2,0.7-21.4c-0.7-3.8-0.5-7.7-1.3-11.6c-0.5-2.6-1.3-5.1-2.4-7.5
		c-1.1-2.3-1.7-4.7-2.4-7.1c-2.6-7.9-0.8-15.6,1-23.3c1.5-6.2,3.5-12.3,4.5-18.6c1.9-11.4,4.5-22.6,6.7-33.9c1.8-9,3.5-17.9,4.4-27
		c0.7-6.5,1.3-13,1.6-19.5c0.1-3.2-0.5-6.4-1.5-9.4c-2.9-8.8-7.6-16.5-13.2-23.8c-3.7-4.8-8-9.1-10.4-14.8c-1-2.3-1.9-4.7-2-7.2
		c-0.3-4.7-0.8-9.3-1.3-14c-0.4-3.8,1.3-7.4,2.2-11.8c0.8,3.2,1,5.7,1,8.2c0.9,0.3,0.7-0.8,1.7-0.7c0.5,0.1,0.2,0.8,0.2,1.3
		c0,3.8,0.7,7.5,0.3,11.3c-0.2,2.1,0.4,4.1,1,6c3.2,10.7,9.4,19.3,18.8,25.6c2.3,1.5,5,2.1,7.3,3.6c3.1,2,5.3,4.5,7.1,7.7
		c0.6,1.1,1.2,2.2,1.9,3.2C843.6,342,844.9,343.6,847.2,343.5L847.2,343.5z"/>
	<path fill="none" d="M737.8,382.4c3.2,1.3,5.9,2.1,8.7,2.2c0.4,0,0.9,0.1,1.3,0.3c7.3,3.5,15.1,4.1,23,4.5c0.3,0,0.6,0.2,0.9,0.2
		c0.6,0.9,0.3,1.8,0.3,2.7c-0.8,12.4-1.2,24.9-0.2,37.3c0.2,2.6,0.3,5.3,0.7,7.8c0.7,4.2,0.6,8.4,0.6,12.7c0,3.5-0.2,7.1,1.2,10.5
		c0.3,0.7,0.3,1.6,0.3,2.4c-0.1,3.8,0.2,7.5,1.7,11.1c0.6,1.5,0.6,3.4,0.7,5.1c0.1,3.1,1.2,5.8,2.9,8.3c1,1.5,1.4,3.1,1.5,4.8
		c0.2,3,0.4,5.9,0.8,8.9c0.5,4.1,0.3,8.3-0.8,12.2c-1.4,5.2-1.2,10.4-1.2,15.6c0,4.3-0.1,8.7,0.3,13c0.2,2.5,0.1,5-0.1,7.5
		c-0.6,8-0.9,16,0.3,23.9c0.3,1.9,0,3.6-0.1,5.4c-1,0.1-1.3-1.1-2.7-0.8c-1.2,0.5-2.2,1.6-2.7,3.2c-0.2,0.7,0.3,1.3,1,1.6
		c1.5,0.2,2.1-1.2,3.3-1.8c0.8,0.7,1.7,1.3,1.9,2.3c3.4,0.8,6.9-0.1,10,1.7c1,0.6,2.2,0.9,2.7,2c0.9,2.2,2.9,3.1,4.5,4.5
		c2.4,2.1,5.8,1.5,7.9-0.9c1.9-2.2,2.7-4.8,2.3-7.6c-0.2-1.6-0.4-3.1-0.7-5.6c5.9,5.4,10.1,11,14,17.2c-1.7,2.1-2.2,4.4-2.8,6.7
		c-1.6,5.4-4.8,9.8-8.6,13.8c-1.6,1.7-4,2.5-5.4,4.6c-1.2,1.7-2.5,3.3-3.3,5.2c-0.9,2.2-2.4,3.5-4.6,4.3c-1.5,0.6-3,1.2-4.5,1.7
		c-7.8,2.9-15.5,6.2-22.9,10c-1.9,1-3.7,1.1-5.6,0.6c-3.7-0.9-5.2-4.9-3.2-8.1c1.2-1.8,2.4-3.6,3.6-5.4c7.9-11,12.7-23.2,13.7-36.7
		c0.2-2.3,1.4-4.6,0.4-7.3c-1.8,1.3-3.4,0.4-5-0.2c-2.1-2.7-3.5-5.8-6.4-7.4c-2-7.8-3.2-15.6-5.1-23.3c-1.5-6.2-2.9-12.4-4.2-18.7
		c-1.1-4.9-1.2-10-2.3-14.9c-2-8.8-3.3-17.7-3.5-26.8c-0.1-4.4-1.2-8.8-0.6-13.3c0.1-0.7-0.4-1.5-0.6-2.3c-0.7-2-1.5-4.1-2.2-6.1
		c-0.6-1.7-0.7-3.5-0.5-5.4c0.6-6.4-0.9-12.5-2.9-18.5c-4.2-12.7-6.8-25.8-7.9-39.2C737,399.7,737.8,391.3,737.8,382.4z
		 M779.2,609.5c1.6,0.1,3.2,0.3,4.7,0.5c1.9,0.3,3.8,0.1,5-1.4c-0.1-1.4-1.3-1.5-1.5-2.6c2.6,0,5.2-0.2,7.1-2.2
		c-0.2-0.8-0.7-1.1-1.3-1.2c-4.1-1-8.3-1-12.3-2.7c-1.1-0.5-1.9,0.3-2.1,1.5c0.5,2.1,2.5,2.7,4.1,3.9c-4.6,0.2-4.6,0.2-5.7,2.1
		c0.1,1.2,1.4,1.4,2,2.2c-0.3,0-0.7,0-1,0c-1.4,0.1-2.4,0.8-2.5,2.3c-0.1,1.5,0.9,2.2,2.2,2.6c2.5,0.8,5,1.1,7.4-0.7
		c-0.5-1.6-1.6-2.3-2.9-2.8C781.4,610.5,780.3,610,779.2,609.5z M797.3,598.3c-2.8-1.5-5.8-1.5-8.7-1.7c-3-0.2-5.7-2-8.7-2.2
		c-0.8,2.7-0.7,3.2,1.1,4.2c4.6,2.5,9.5,2.9,14.5,1.3C796.1,599.8,796.7,599.4,797.3,598.3z M808.2,602.9c-1.8-2.2-3.6-4-6.5-2.6
		c-1.5,0.7-2.3,2.7-1.9,4.4c0.3,1.5,1.8,2.9,3.4,2.9C806.4,607.7,807.2,605.2,808.2,602.9z M802.4,610.4c-0.1-2.2-1.7-3.8-4-3.7
		c-2.2,0.1-3.9,1.8-3.9,3.9c0,2,2,3.9,4,3.8C800.6,614.4,802.4,612.5,802.4,610.4z M758.9,459.3c-1.3,3.2-1.4,6.4-0.4,10.2
		c2.5-2.6,3.1-5.4,3-8.4C761.5,460,760.9,459.2,758.9,459.3z M794.3,617.9c0.9-1,1.9-0.2,2.7-0.5c0.3-0.1,0.6-0.3,0.6-0.7
		c-0.5-0.8-1.5-0.2-2.2-1.1c0-0.2-0.1-0.6-0.2-1c-0.1-0.4-0.4-0.8-0.5-1.1c-3.1-0.8-3.6-0.5-5.5,3.4c1.8,1.4,3.5,3,5.5,4
		C796,619.4,793.8,619.1,794.3,617.9z M773.6,617.2c-0.1,1.8,1.1,2.5,2.6,3c1.5,0.5,2.9,0.4,3.7-1.2
		C778.5,615.7,776.5,615.2,773.6,617.2z M765.5,452.2c-1.4,2.3-3.6,3-4.2,5.3c0.4,0.2,0.8,0.4,1,0.4c0.9-0.1,1.4-0.7,1.8-1.4
		C764.9,455.4,765.7,454.3,765.5,452.2z M766.4,493.2c2.1-4,2.5-6.5,1.1-8C766.4,487.8,767.1,490.6,766.4,493.2z M772.9,624.7
		c1.5,0.5,2.4-0.4,3.6-1.4c-1.1-0.9-2.1-1.4-3.3-1.2C772.1,622.9,771.9,623.8,772.9,624.7z M759.6,472.3c-1.3,1.6,0.2,3.5-1.1,4.9
		C760.6,476,760.7,475.5,759.6,472.3z M766.9,500c-0.5,2.1-0.2,3.3,1.2,4.6C768.2,503,768.3,501.7,766.9,500z M777.5,572.1
		c-0.3,1.3-0.9,2.8,0.7,3.9C779.3,574.5,778.7,573.3,777.5,572.1z M776,560.9c-1,1.2-0.8,2.2,0.2,3.4
		C776.7,563,776.8,562.1,776,560.9z M776.1,565.4c-0.1,1.5,0.3,2.5,1.4,4C777.6,567.4,777.1,566.5,776.1,565.4z M775.6,557.8
		c0.4-0.4,0.5-0.9,0.3-1.3c-0.1-0.4-0.1-0.9-0.8-0.8c-0.4,0.3-0.6,0.6-0.5,1.1C774.7,557.3,774.9,557.7,775.6,557.8z M774.9,549.5
		c-1.1,0.6-1.2,1.4-0.4,2.6C775.4,551.2,775.4,550.4,774.9,549.5z"/>
	<path fill="none" d="M775,391.3c6.8-2.3,13.1-4.7,19.6-6.5c4.6-1.3,9.4-2.2,14.2-2.1c4.4,0.1,8.6-0.7,12.9-2.2
		c0.5,3.3-0.3,6.3-0.7,9.3c-2.7,16.9-4.9,33.9-8.9,50.6c-0.9,4-2.1,7.9-3.1,11.9c-1.8,6.9-3.1,13.8-2.2,21c0.4,3.6,1.4,7.1,3,10.5
		c2.9,6.1,3.6,12.7,3.9,19.3c0.2,4.1,0.1,8.2,0.2,12.3c0.1,3.8-0.5,7.5-1.2,11.2c-1.7,9-3.6,17.9-5.3,26.9
		c-1.8,9.2-3.1,18.5-3.4,27.9c0,0.3-0.1,0.6-0.2,0.9c-1.3-0.7-0.7-2.4-1.9-3.6c-0.3,2.6-0.4,5,0.9,6.7c1.1,1.4,0.8,2.7,1,4
		c-1.4,1-2.7,0.6-4,0.1c-1.8-1.8-2.2-4.6-4.5-6c-2.1-1.3-4.4-1.7-6.6-2.2c2.7-15.1,2.2-30.2,0.6-45.3c-1-9.2-2-18.4-2.5-27.6
		c-0.2-4.9-0.4-9.8-0.5-14.7c-0.1-2.5-0.7-4.6-2.6-6.5c-2.9-2.9-4.3-6.5-5.1-10.6c-0.8-4.5-1.3-9-1.3-13.6c0-0.8,0.1-1.7-0.3-2.4
		c-1.6-3.5-1.3-7.1-1.2-10.8c0-0.5,0-0.9,0-1.4c0.6-10-0.7-20-0.8-30C774.9,409.5,775,400.5,775,391.3z M793.7,487.5
		c-2.3,2.2-4.6,6.7-4.5,8.9c0.7,0.1,1-0.4,1.2-0.9c0.9-2.2,1.8-4.4,3.1-6.4c0.3-0.4,0.1-1.1,0.1-1.7c1.2-0.2,1.2-0.2,1.4-1.2
		c-0.4-0.1-0.6,0.2-0.8,0.4C794,486.9,793.8,487.2,793.7,487.5z M792.2,485.4c1.5-0.3,2.1-1.3,2-2.3c-0.1-2.5,0.1-5-1.2-7.4
		c-0.3-0.6-0.6-1.2-1.5-1.2c-1.6,0.9-0.8,2.1-0.5,3.3C791.8,480.2,793.3,482.5,792.2,485.4z M808.4,427.1c-1.3,3-1.9,9.5-1.2,12.8
		C808.6,435.2,809.2,431.3,808.4,427.1z M804.2,478.8c-0.2,3.2-0.4,5.9-0.5,8.6c0,0.7-0.2,1.6,0.5,2.2
		C806.3,481.6,806.3,481.2,804.2,478.8z M787.7,473.9c-0.8,2.1-0.8,2.1-0.3,3.8C788.6,475.8,788.6,475.8,787.7,473.9z M801.8,573.4
		c0.9-2.1,0.7-3.3-0.5-4.5C801.2,570.2,800.8,571.5,801.8,573.4z M806.6,441.3c-1.3,1.7-1.3,1.7-0.8,4.2
		C805.7,444.1,807.2,443,806.6,441.3z M808.6,420c-1.1,3-1.1,3-0.1,4.4C808.9,423.1,808.9,421.9,808.6,420z M805.2,493.9
		c0.7-1.3,0.7-1.3,0.3-2.8C804.8,492.1,804.4,492.9,805.2,493.9z M801.6,561c0-0.6,0.8-1.3-0.3-1.7
		C800.8,559.9,800.4,560.5,801.6,561z M801.4,566.2c0.3-0.4,0.5-0.8-0.1-1.2c-0.2-0.2-0.4-0.1-0.5,0.2
		C800.8,565.5,800.8,565.9,801.4,566.2z"/>
	<path fill="none" d="M811.4,195c9.1,4,8,2.6,11.1,12.4c2.3,7.1,2.3,14.6,3.6,21.8c1,5.6,1.6,11.3,1.4,17
		c-0.3,6.7-0.5,13.4-1.4,20.1c-0.8,5.7-1,11.4,1.2,16.9c-0.5,0.3-0.9,0.7-1.4,1c-0.1,1.5,1,2.2,1.8,3.1c3,3.1,5.1,6.7,7.2,10.4
		c0.3,0.6,0.7,1.2,0.9,1.8c3.3,10.1,10.5,17.2,18.4,23.6c1.8,1.4,4,2.1,6.2,2.9c3.6,1.4,7.1,3.2,9.8,6.1c0.7,0.8,1.3,1.6,1.8,2.5
		c1,2.2,2,4.3,4.9,5.6c-3.2,0.9-5.3,0.3-7.1-1.5c-3.2-3.2-7.5-4.8-11-7.4c-1.1-0.8-2.6-0.5-3.9-0.8c-2.5-0.7-5.1-1.2-7.2-3.1
		c-3,1.9-3.8,5.1-5.3,7.8c-0.3-0.2-0.6-0.2-0.7-0.4c-3.1-6.4-9.1-9.4-15-12.4c-4.2-2.1-7.5-5.2-10-9.1c-2.5-3.9-4.7-8.1-6.5-12.4
		c-0.9-2.2-1.5-4.5-1.5-7c-0.1-6.3-0.2-12.6-1.6-18.8c-1.7-7.3-2.3-14.8-3.7-22.2c-0.5-2.8-0.8-5.6-0.7-8.5
		c-0.3-0.7-0.9-0.6-1.7-0.7c-0.3-4.1-0.6-8.3-0.7-12.6c-0.1-2-0.6-3.5-2.5-4.9c-0.3,1.9,0,3.7,0.2,5.3c-1,0.8-1.8-0.7-2.8,0.1
		c0.9,0.9,1.9,1.8,3,2.8c0.4,5,0.7,10.1,1.1,15.6c-2.3-0.9-3.8-2.4-5.2-3.7c0.3-2.4,4.1-3.4,2-6.3c-2,1.4-2,1.4-3.7,4.6
		c-3.3-5.8-7.7-10.8-8.9-17.3c-0.8-0.1-0.9,0.2-1,0.5c-0.1,0.2-0.2,0.4-0.3,0.6c-4.6-9-1.5-19,5-26.2c2.4-2.7,4.2-5.9,7.2-8.1
		c1-0.8,0.1-3.1,2.1-2.7c0.6-0.8-0.2-1.6,0.6-2.2c1.6,0.4,3.2,1,5.8,0.3c-3.3-0.4-4.8-2.7-7-3.7c-1.1-0.5-1.5-1.6-1.9-2.7
		c-1.4-5.2-1.9-10.5-1.7-16.1c1.3-1.4,2.1-3,2.6-4.9c0.5-2.1,1.4-4.1,2.6-5.9c4.1-6.5,6-13.7,6.5-21.9c1.3,2.5,2.8,4.2,4.7,5.4
		c-0.6,4.5,1,8.5,6.1,15.5c0.2,7.7-3.5,13.1-12.4,18.5c2.3,0.1,2.3,0.1,7-2.5c-1.9,2.9-3.6,5-5.3,7.2c-1.8,2.3-4.6,3.1-6.7,4.7
		c0.4,1.1,0.8,1.4,1.4,1.2c1-0.4,1.9-0.8,2.8-1.3c2.1-1.1,4-2.3,6.5-2.7c2.5-0.3,4.4-2.2,6.4-3.8c3-2.4,5.4-5.2,7.7-8.2
		c0.2,5.7-3.4,9.2-7.1,12.5c2.2,0.3,2.2,0.3,5.6-4.4c0.6,2.3-2.1,4-0.5,5.9c-2.1,4-4.5,7.4-7.6,10.2c-1.5,0.1-2.2-1-3.2-1.8
		c-1.7,0.3-3.5-0.3-5.4,0c2.4,0.7,4,2.2,5.6,3.9c-0.3,0.3-0.5,0.7-0.9,1.2C809.9,196.2,810.4,194.9,811.4,195z M819.7,292
		c2-1,3.7-2.3,4.2-4.7c-0.5-0.6-0.9-1.1-2-0.8C820.3,287.8,820.2,290,819.7,292c-0.5,0.9-1.8,1.6-0.9,3
		C820.3,294.3,819.7,293,819.7,292z M824,260.4c1.8-2.2,0.9-8.4-1.7-11.7C822.9,252.9,823.4,256.5,824,260.4z M820.4,243.7
		c-0.3-1.3-0.6-1.9-1.7-1.9C818.8,242.8,819.4,243.2,820.4,243.7z M795.2,222.8c-0.1,1.3,0.5,1.9,1.9,2.7
		C796.8,224.1,796.2,223.4,795.2,222.8z M821.5,247.3c0.4-1.1,0-1.4-0.7-1.6c0,0.3-0.1,0.5,0,0.7
		C820.9,246.7,821.2,246.9,821.5,247.3z"/>
	<path fill="none" d="M785,330.3c0.4-2.1,0.7-3.8,1-5.8c-2.1,1.8-1.8,4.1-2.7,6.1c-5.6,1.6-11.3,3.2-16.9,4.9
		c-1.4,0.4-3,0.6-3.2,2.6c-7.7,0.9-15.2,0.4-22.7,0.6c-1-2-1.5-3.8-1.6-5.8c-0.4-3.6-1-7.2-1.7-10.8c-0.4-1.9-0.6-3.9-0.2-5.8
		c1-5.3,0.5-10.7,0.5-16c0-2.6-1.6-4.9-2.7-7.3c-0.6-1.2-1.2-2.5-2-3.6c-2.5-3.5-3.5-7.4-3.9-11.5c-0.3-2.7-0.6-5.4-1-8.1
		c2.1-1,4.2-1.6,6.3-1.8c1.6-0.2,3.1-0.6,3.8-1.9c4.9-0.8,9.4,0.2,13.9,0.6c8.2,0.8,16.4,1.6,24.5,2.7c8.1,1.1,16.1,3.1,24,5.8
		c-0.4,2.1-0.5,4.1-1.3,6c-1,2.5-0.6,5.2-0.3,7.8c0.2,1.6,0.3,3.1-0.1,4.7c-0.5,2.1,0.4,4.3,0.9,6.4c0.7,3.3,2.2,6.4,2.3,9.9
		c0.1,1.5,1.2,2.7,2.1,3.8c2.6,3.3,4.1,7.1,6,10.9C801.6,326.1,793.5,328,785,330.3z M747.8,322.8c2.4-3.4,2-6.8-0.8-8.7
		c-0.1-0.1-0.4,0.1-0.7,0.2c0.4,0.8,0.9,1.5,1.2,2.1C747.4,318.5,746.5,320.5,747.8,322.8z M784.8,276.4c3.6-1.3,3.9-1.6,4.5-3.6
		C787.4,273.6,786,274.9,784.8,276.4z M741.9,284.1c0.6,1.5-0.7,3.2,0.8,5C742.9,287.1,743.6,285.4,741.9,284.1z M745.3,309.4
		c0.4-1.8,0.3-2.9-0.7-4C744.2,306.7,744.6,307.7,745.3,309.4z M742.8,294.8c0.1-1.7,0.3-2.8-0.5-3.7
		C742.1,292.2,742.3,293.2,742.8,294.8z M788.4,319.9c-0.7,0.7-1.2,1.1-0.6,1.8C788.5,321.5,788.9,321.2,788.4,319.9z M789.5,286.1
		c-0.4,0.2-0.8,0.3-0.7,0.9C789.2,286.8,789.6,286.7,789.5,286.1z M774.2,282.5c0.6-0.2,1.1,0.1,1.5-1
		C775.1,281.7,774.6,281.5,774.2,282.5z"/>
	<path fill="none" d="M773.9,374.4c-0.8-0.6-1.3-1.7-2.6-1.4c-0.7,0.5-0.1,1.3-0.8,2.1c-3.7-2.1-7.7-3.6-12-3.9
		c4,2.2,7.9,4.4,12.5,5.8c0.6,3,2,6.1,1.1,9.6c-3.3,0.3-6.4-0.4-9.6-0.8c-3.5-0.4-7-1.2-10.5-1.7c-4.4-0.6-8.3-2.6-12.2-4.2
		c-0.7-0.3-1.4-0.8-2-1.7c-0.5-7.3,0.2-14.8,0.4-22.1c0.5-0.7,1.3-0.3,1.6-1c0-1-1.4,0-1.4-0.8c-0.4-1.5,1.1-1.4,1.4-2.2
		c-0.4-0.2-0.8-0.4-1.3-0.7c-0.2-3.5,1.1-6.8,1.5-10.2c4.6,0,8.9-0.2,13.2,0c6,0.3,11.8-0.5,17.4-2.9c11.8-5.1,24.3-7.7,36.8-10.1
		c0.7-0.1,1.4-0.3,2-0.5c0.6-0.3,1.2-0.7,1.8-1c2.1,0.7,3.5,2,4.7,3.8c3.5,5.6,7.2,11.1,9.3,17.5c0.3,1.1,0.7,2.2,0.8,3.3
		c0.6,7.5-0.4,14.8-1.5,22.2c-0.2,1.7-3.1,1.5-1.8,3.6c-4.1,1.7-8,2.6-12,2.9c-10,0.5-19.7,2.3-29,5.9c-2.1,0.8-4.2,1.6-6.9,2.6
		C775.3,383.3,773.3,378.9,773.9,374.4c0.9-0.3,1.3-1.1,1.6-2c0.8-2.1,2.2-3.6,4.1-4.8c0.9-0.6,1.8-1.2,2.9-1.9
		C776.9,366.7,774.3,369.5,773.9,374.4z M797.9,342.6c3.3,0.4,5.8-0.7,8.4-0.9C803.6,341,801.1,341.7,797.9,342.6z M788,338.5
		c-1.9,0.2-3.8,0.3-5.9,1.4C784.6,340.2,786.4,339.7,788,338.5z M776.2,361c-1.1,1-2.3,1.8-2.1,3.9
		C775.6,363.6,775.9,362.3,776.2,361z"/>
	<path fill="none" d="M792.4,191.3c0.5,0.3,0.8,0.5,1.2,0.8c-0.1,0.3-0.1,0.6-0.2,0.7c-3.4,2.9-6.4,6.2-9.1,9.7
		c-7.5,9.5-9.2,22-0.5,32.3c0.7,0.8,1.2,1.6,1.6,2.6c0.2,0.6,0.6,1.3,0.8,1.9c1.9,5.7,6,9.3,10.9,12.3c1,0.6,2,1.1,3,1.7
		c1.8,6.4,4.1,12.7,0.5,19.4c-3.6-1-7.3-2.1-11-3.1c-8.5-2.3-17.2-3.5-26-4.1c-6.1-0.5-12.2-1.4-18.4-1.9c-6-0.5-11.8,0.4-17.7,3.1
		c-0.8-3-3.1-5.1-3.8-8.2c-0.2-0.8-0.9-1.3-1.4-1.8c-9.6-9-6.1-23.5,2.2-29.8c2.4-1.9,4.8-3.9,7.2-5.8c2.3-1.9,4.6-3.8,6.7-6.6
		c0.4,1.6,0.2,3,1.4,3.8c1.1,0.7,2.3,1.1,3.5,1.4c1.9,0.5,3.8,0.8,5.8,0.5c6.2-0.8,12.3-2.1,17.9-5.1c2-1.1,3.6-2.4,4.9-4.2
		c3.4-5,8.1-8.7,12.3-12.8C786.6,195.5,789.1,193.2,792.4,191.3z M744.1,255.3c0,1.6,1.1,1.9,2,2.2c4.2,1.5,8.5,2.5,13,2.5
		c7.1-0.1,13.6-2.6,20-5.4c0.3-0.1,0.9-0.3,0.5-1.1c-2.2,0.7-4.4,1.6-6.7,2c-2.5,0.4-4.9,1.1-7.4,1.4c-2.4,0.4-4.8,0.8-7.1,0.7
		c-2.5,0-5-0.6-7.5-0.9C748.6,256.5,746.5,254.9,744.1,255.3z M739,253.4c1.1,0.7,1.5,1.4,2.4,0.7
		C741.1,253.3,740.6,252.9,739,253.4z"/>
	<path fill="none" d="M743.9,631.7c-0.2-0.2-0.8-0.9-1-2c1.8-5.4,6.9-8.6,9.2-13.6c1,0.1,2.5-0.2,3.2-0.6c0.2-1.2-1-1.5-1.6-2.4
		c1.9,0.6,3.6,0.6,5.4-0.6c-0.4-2.3-2.5-2.5-4.1-3.2c0.2-1.1,0.4-1.9,1.3-2.5c1.9-0.2,4,1.6,5.8-0.5c0-3-3.3-2.5-5.1-4.4
		c3.3-0.5,6.4,1.5,9.1-1.1c-1.4-3-4.6-2.9-7-3.8c-0.3-0.8,0-1.2,0.6-1.7c3.1-0.1,6.7,2.4,9.8-0.7c-1.6-2.3-1.6-2.3-8.6-3.9
		c-0.5-3.4-1.1-6.8-0.2-10.5c2.4-0.2,4.7-0.5,7.1-0.7c1.7,2.2,3.9,3.8,3.5,6.6c1.5,1.7,3.4,1.6,5.1,2c0.9,12.1-6.4,30.6-17.2,44.2
		C754,635.3,749.3,634.4,743.9,631.7z"/>
	<path fill="none" d="M706.5,334.4c-2.2,0.5-3.5,2-5.2,2.7c-3.9-0.3-6.8-2.1-8.6-5.6c2.2,1.9,4.4,3.4,7.9,1.9c0.5-0.8,1.4-2.1,4-1.6
		c-3.3-2.6-1.6-6-2.9-8.9c1.7-2.3,1.9-2.7,2-5c-2.5,0.5-2.3,2.8-3.1,4.6c-2.9-0.8-5.3,0-7.1,2.5c-0.7,1-1.8,1.2-3.2,1.2
		c0.1-1.8,1.2-2.6,2.5-2.9c3.1-0.8,5-3,6.9-5.3c1.8-2.2,3.7-4,7.2-3.1c-1,0.9-2.2,1.4-1.8,3.2c3.1-1.7,6.5-2.5,9.1-5.3
		c1.3,0.9,2.4,0.5,3.5-0.1c3.2-1.7,6.3-3.6,9.6-5.2c1.5-0.7,2.5-2.3,3.5-2.6c1.5-0.7,2.3,0.1,3.3,0c-0.5,3.4,0.7,6.8-0.1,10.4
		c-2,1.1-4.2,1.5-6.4,2.2c-4.6,1.4-8.5,3.9-12.1,6.9c-2.7,2.2-5.3,4.6-5,8.8c0.1,0.8-0.6,1.7-1,2.6c-1.3,0.6-2.6,1.1-4.5,2
		C705.7,336.3,706.6,335.8,706.5,334.4z"/>
	<path fill="none" d="M859.1,336c-3-2-4.4,0.7-6.4,1.2c-0.5-0.1-1.1-0.3-1.6-0.4c-1.4,0.5-1.8,1.9-2.9,2.6c-1.3-0.2-2-1.3-3-2
		c0.7-2.4,1.6-4.4,3.1-6.4c7.5,2.2,14.6,5.1,20.8,9.9c2.1,1.6,4.2,3.1,7.1,2.8c0.3,0,0.7,0.1,1,0.2c4.1,1.9,8.4,2.8,12.9,4
		c-1.4,2.7-3.2,4.9-3.2,8c-6.2-1.5-11.7-4.2-17.1-6.6c-2.1-2.8-0.6-6.9-3.6-8.8c-1.7-0.4-2.7,0.5-3.9,0.9c-1-1.3-0.5-3-1.8-4.1
		c-1.3,0.5-0.8,1.5-0.6,2.3c0.6,3.6,1.1,7.2,1.1,10.7c-0.9,1.2-1.8,1-2.8,0.5c-1.9-2.9-2.2-6.2-2.6-9.5
		C855.2,339,856.7,337.4,859.1,336z"/>
	<path fill="none" d="M767.3,124.7c-0.5-0.9-0.6-1.4-0.1-2c2.8,1,5.8,1.7,8.8,1.2c0.5-1.5-0.4-1.9-1.5-2.1
		c3.8-1.9,15.8-4.2,19.4-3.6c1-1.3,0.3-2.1-1-2.4c-1.6-0.3-3.2-0.1-4.8,0.3c-2.9,0.6-5.8,1.4-8.7,2.1c-1.4,0.3-2.7,1-4.2-0.1
		c-0.6-0.4-1.5-0.1-2.3,0.1c-1.1,0.3-2.2,0.6-3.4,0.1c9.1-3.9,12.1-4.5,22.9-4.6c2.2,1.4,4.2,3.3,5.9,5.3c-0.2,1.2-1.1,1.2-1.7,1.5
		c-3.8,1.7-7.3,3.7-11.3,5c-3,1-5.9,1.4-9,0.6C773.3,125.5,770.4,124,767.3,124.7z"/>
	<path fill="none" d="M786.8,567.8c-1.3-0.9-2.8-0.7-4.1-1.6c-0.5-2.6-0.5-5.4-0.4-8.1c0.2-5.4,0.6-10.7,0.8-16c0-0.8,0.3-1.7,0-2.4
		c-1.3-3.3-0.7-6.7-0.5-10.1c0.1-3.4,0.3-6.8,0.4-10.2c0.1-1.6,0.3-3.1,1.4-5.1c0.3,4.1,0.7,7.4,0.9,10.8c0.3,4.4,0.6,8.9,1.3,13.3
		c0.5,3.5,0.8,7,0.7,10.6C787.3,555.1,786.6,561.3,786.8,567.8z"/>
	<path fill="none" d="M784,137.4c5.9-1.3,11.8-1.9,17.4-3.6c-0.2,2.2-0.2,2.2-7.7,6.1c2.3,0.2,2.3,0.2,8.4-2.9
		c-0.7,2.6-2.8,3.6-4.8,4.9c1.8,0.5,2.9-0.8,4.3-1.3c-0.7,4.6-3.8,7-6.9,9.5c0.6,1.1,1.3-0.4,1.9,0.4c-1.5,1.7-3.2,2.9-6,3.8
		c1.2-2.6,3.2-4.1,3.6-6.6c-1-1.1-1.1-2.7-1.1-4.3c0-2.6-1.6-4.1-3.7-5.4c-1.1-0.6-2.2-0.5-3.3,0C785.3,138.6,784.6,138.3,784,137.4
		z"/>
	<path fill="none" d="M772,132.5c0.7-0.4,1.2-0.2,1.6-0.1c2.9,0.6,5.8,1.7,8.8-0.2c1.6-1,3.9-1,6.4-1.6c-1.4,1.6-3.1,1.7-4.2,2.7
		c5.8-1.4,11.1-4,16.3-7.6c0.3,1.9,0.5,3.5,0.8,5c-0.8,1.4-2.3,1.9-3.3,2.6c-0.9,0.3-1.1-0.4-1.5-0.8c-3.6,1.5-7.4,2.4-11.1,3.3
		c-1.6,0.4-3,0.4-4.6-0.3c-1.7-0.8-3.8-0.9-5.6-1.5C774.3,133.8,772.9,133.7,772,132.5z"/>
	<path fill="none" d="M805.4,123.2c5.2-0.4,9.4,2,13.2,5.3c-4.8-1-9.4-3-14-2.3c-0.7,1-0.6,1.6-0.3,2.1c0.3,0.5,0.4,1-0.6,1.5
		c-0.9-3.4-0.8-6.9-2.9-10.3c3.4,0.7,6.4,0.6,9.5,0.3c3.5-0.4,6,1.6,7.3,5.6c-2.7-1.6-5.1-3.2-8-3.7c-0.9-0.2-1.8-0.4-2.7-0.2
		C806,121.7,805.3,122,805.4,123.2z"/>
	<path fill="none" d="M777.2,129.3c0.9-0.7,1.9-0.8,2.9-0.8c4.4-0.3,8.2-2.7,12.1-4.2c1.8-0.7,3.3-2.5,5.3-3.4
		c0.4-0.2,0.8-0.5,1.4,0.3c-1.2,2.3-3.8,2.8-5.8,3.8c-2.1,1.1-4.4,1.7-6.9,2.6c3.4,0.5,6.1-0.5,13.4-4.5c0.4,0.2,0.6,0.7,0.7,1.1
		C795.5,129.9,783.2,132.6,777.2,129.3z"/>
	<path fill="none" d="M810.5,176.6c4-5.2,5.9-11.2,7.6-17.4c2.5,1.5,3.2,2.7,3.8,6.8c-1.5,2.7-3.5,5.1-6.1,7.2
		c1.2-4,3.6-7.7,2.9-12.9C817.4,167,815.6,172.7,810.5,176.6z"/>
	<path fill="none" d="M758.7,118.5c0-0.5,0-1,0.5-1.2c3.7-1.8,7.3-3.8,11.3-4.5c1.6-0.3,2.9-1.5,4.7-1.2c1.8,0.3,3.6,0,5.4,0
		c1.7,0,3.4,0,5.2-0.2c-1.2-0.4-1.8-1.4-2.6-2.2c2.8-0.7,5,0,6.8,2.4c-4.6,0.9-9,1.9-13.4,2.8c-0.1,0-0.2,0.1-0.3,0
		c-6.3-1.8-11.4,1.2-16.7,3.9C759.4,118.4,759,118.4,758.7,118.5L758.7,118.5z"/>
	<path fill="none" d="M811.9,131.1c2.8,0.2,5.3,1.1,7.6,2.6c3.9,2.5,4.7,5.6,2.2,10.3C818.6,139.4,816,134.7,811.9,131.1z"/>
	<path fill="none" d="M822.3,144.8c1.5-1.5,2-3.4,2.5-5.3c3.1-0.2,3.6,0.2,4,3c0.4,2.6,1.1,5.2,1.7,7.9
		C827.6,149.6,825.6,148.3,822.3,144.8z"/>
	<path fill="none" d="M865.7,354.1c-0.7-2.8-1.3-5.7-2-8.5c-0.3-1.4,0.2-2.4,1.7-3.4c1.5,3.9,2.1,7.9,3.2,11.6
		C867.6,354.7,866.8,354.9,865.7,354.1z"/>
	<path fill="none" d="M794.2,634.6c-5.2,3.6-10.4,7.2-17.2,7C782.4,638.5,788.1,636.3,794.2,634.6z"/>
	<path fill="none" d="M814.8,152c-2-3.5-3.7-7-4.6-11C815.5,143.6,816.8,146,814.8,152z"/>
	<path fill="none" d="M854.8,348.8c-1.5-0.7-2.5-1-3.3-1.4c-1.8-3.1-2-4-0.9-7c0.7-0.4,1.5-0.3,2.4-0.2
		C853.7,342.8,853.5,345.6,854.8,348.8z"/>
	<path fill="none" d="M782.1,581.4c1.2-1.9,1.3-3.8,1.6-5.7c0.2-1.8,0.1-3.6-0.1-5.4c0.8-0.8,1.7-0.5,2.7-0.1
		c-0.2,3.7-0.9,7.3-1.7,10.6C783.8,581.6,783.2,581.5,782.1,581.4z"/>
	<path fill="none" d="M696.8,331.8c-2.8-4.4-2.4-6.3,1.8-7.4c0.5,0.9,0.5,1.9,1.1,2.8c0.6,0.8,0.7,1.9,1.1,2.9
		C699.8,331.4,698.6,332.3,696.8,331.8z M698.1,329.8c1.4-2.1,1.4-2.1-1.1-3.4C695.7,328.5,695.8,328.8,698.1,329.8z"/>
	<path fill="none" d="M809.3,132.4c-0.4,0-0.9-0.2-1.4,0.5c0.8,2.4,3.7,3.3,4.8,5.7c-4.9-2.1-7.2-4.9-7.2-9c1.9,0.1,3,1.3,4.1,2.5
		C809.5,132.2,809.4,132.3,809.3,132.4z"/>
	<path fill="none" d="M824.7,157.4c2.6,2.4,3.7,5.5,4.3,8.9C825.5,164.4,826.7,160.1,824.7,157.4z"/>
	<path fill="none" d="M809.6,132c3.2,1.9,5.4,4.8,7.8,7.6c0.5,0.6,0.8,1.4-0.4,2.1c-1.9-3.7-4.5-6.7-7.7-9.3
		C809.4,132.3,809.5,132.2,809.6,132z"/>
	<path fill="none" d="M782.7,107.9c-5,0.1-10,0.1-14.9,0.9C774,107,776.5,106.9,782.7,107.9z"/>
	<path fill="none" d="M788.4,156.7c2.7-2.4,6.6-1.6,8.2-4.7C796.2,154.5,792.6,156.6,788.4,156.7z"/>
	<path fill="none" d="M828.7,174c0.1-1.9-1.9-3.4-1.1-5.5c1,0,1.6,0.4,2.2,1.2c0,1.3,0,2.8,0,4.2c-0.5,0.4-0.8,0.1-1.2-0.1
		L828.7,174z"/>
	<path fill="none" d="M772.9,128.4c-2.1,0-4.2-0.1-6-2.1C769.7,125.6,771.1,127.5,772.9,128.4z"/>
	<path fill="none" d="M829.2,139.1c-1.5-0.6-2.4-1-3.3-1.4c-0.1,0-0.2-0.1-0.3-0.2c-0.3-0.5-0.5-1-0.3-1.5
		C826,135.2,827.8,136.6,829.2,139.1z"/>
	<path fill="none" d="M765.6,108.1c-2.1,0.9-4.1,1.8-6.5,2.8C760.7,108.8,761.3,108.5,765.6,108.1z"/>
	<path fill="none" d="M817.2,147.9c1.8,2.6,0.6,4.4,0,6.3C817.2,152.3,817.2,150.5,817.2,147.9z"/>
	<path fill="none" d="M787,143.1c2,0.8,2.2,2.3,2.6,3.7C788.3,146,786.9,145.3,787,143.1z"/>
	<path fill="none" d="M821.6,150.3c1.2,0.5,2.1,1.4,3.1,2.2C823,153.3,821.9,152.5,821.6,150.3z"/>
	<path fill="none" d="M758,115c-1.1,1-1.5,2.7-3.2,3.1C755.6,116.8,756.2,115.3,758,115L758,115z"/>
	<path fill="none" d="M847.3,343.5c-0.6-0.7-1.3-1.5-2.1-2.5c0.9-0.3,1.5-0.3,2.2,0.1C847.9,342,848,342.7,847.3,343.5L847.3,343.5z
		"/>
	<path fill="none" d="M758.1,115.1c0.2-1,0.8-1.2,2-1.1C759.3,114.6,758.9,115.2,758.1,115.1L758.1,115.1z"/>
	<path fill="none" d="M870.2,352.6c0.7,0.2,1,0.4,0.8,1C870.2,353.9,870,353.5,870.2,352.6z"/>
	<path fill="none" d="M818,143c0.3,0.5,0.8,0.9,0.2,1.4C817.5,144,817.9,143.4,818,143z"/>
	<path fill="none" d="M824.7,149.7c-0.7,0.1-1.4-0.6-1.3-0.7C824.2,148.4,824.2,149.6,824.7,149.7z"/>
	<path fill="none" d="M875.4,355.8c0.8-0.1,1.2-0.1,1.4,0.5C876.3,356.8,875.9,356.5,875.4,355.8z"/>
	<path fill="none" d="M336.3,538.2c-1.1,0.5-1.4,1.1-1.2,1.8c0.9,3.3,0.7,6.6,0.6,9.9c-0.1,3.7,0.8,7.3,0.6,10.9
		c-0.2,3,0.3,5.9,0.5,8.9c0.3,5.7,1.9,11,3.9,16.3c1.5,4.1,2.5,8.3,3.5,12.5c2,9,3.6,18.1,5.5,27.2c0.4,1.9,0.7,3.8,1,5.9
		c-1.8,0.6-3.2,1.6-3.9,3.2c-0.7,1.5-1,3.2-2.2,4.8c-2.2-2.1-5.1-2.6-7.7-3.7c-2.8-1.2-5.3-2.7-7.2-5c-1.9-2.3-4.4-3.5-7.1-4.5
		c-1.3-0.5-2.6-0.8-3.9-1.2c-0.2-0.5-0.6-0.9-0.6-1.3c-1.3-7.3-4.9-13.5-8.9-19.5c-1.1-1.7-2.2-3.5-3.5-5.1
		c-4.3-5.9-5.5-12.4-4-19.5c1.2-5.6,2-11.3,3.5-16.8c3.5-12.9,0.9-24.6-6-35.7c-0.2-0.4-0.5-0.8-0.7-1.2c-6.8-9.3-7.6-19.8-6.3-30.7
		c0.2-2.2,0.7-4.3,1.4-6.3c0.4-1.1,0.8-2.2,0.8-3.3c0.3-4.5,1.4-8.8,2.3-13.1c0.9-4.5,1.3-9.1,2.4-13.5c1.4-5.4,1.5-10.9,0.9-16.3
		c-0.9-7.7-2.7-15.3-5.5-22.6c-0.2-0.5-0.5-1-0.3-1.8c1.7,0,3.5,0,5.5,0c2.4-2.7,4.7-5.5,7.2-8.3c0.2-3.4-1.1-6.9-0.2-10.4
		c0.9-3.5,4-5.8,5.2-9.3c8.8-5.4,15.2-13.6,23.2-20.5c1,2.7,1.8,5.4,1.3,8c-0.3,1.6-0.4,3.2-0.3,4.7c0.2,4-0.8,7.9-1.7,11.7
		c-1,4.2-0.1,8.7-1.5,12.9c-1.1,3.5-2.1,7-2.7,10.6c-1.3,7.2-2.4,14.4-3.4,21.6c-2.5,16.8-1.3,33.4,1.8,50c1,5.3,1.7,10.6,2.5,15.9
		c0.3,2,0.7,4,1.6,6.1c-0.9,0.9-1.2,1.9-1.2,3.3c0.1,3.4,0.6,6.8,1.1,10.2c0.3,2.2,0.9,4.3,0.6,6.7c-0.3,2.3,1,4.6,3,6.3
		c0.5-1.7-0.2-2.9-0.8-4.1c-0.8-1.8-1.4-3.6-0.7-5.6c0.2-0.6,0.1-1.4,0.1-2c-0.2-5.1-1-10.1-0.5-15.2c0.6-5.5-1.2-10.8-2.3-16.2
		c-2.4-12.8-4.4-25.6-4-38.8c0.2-5.3,1-10.4,1.4-15.7c0.5-6.8,1.7-13.3,3.5-19.8c1.2-4.2,2.7-8.2,4-12.4c0.3-0.9,0.5-1.8,0.7-2.7
		c0.2-1.1-0.1-2-1.2-2.6c0-1.6-0.2-3.2,0.5-4.6c0.9-0.9,2.1-0.1,3-0.9c-1-0.4-1.9-0.9-2.7-1.2c-1.1-2.6,0-4.3,1.7-5.5
		c0.7-1.5,0.3-3,1-4.3c0.8-0.7,1.8-0.3,2.6-0.3c4.8,0,9.6,0,14.4,0.1c3.7,0.1,7.3-0.6,10.7-1.9c2-0.8,4-1.6,6.1-2.3
		c12-4.5,24.4-7.4,37.1-9.2c0.2,0,0.4,0.1,0.9,0.2c5.3,10.4,8.8,21.9,14.1,32.6c-0.7,2.6-1.1,5.4-1,8.3c0.1,3.8-0.8,7.5-2.2,11
		c-2,5-3.8,10-4,15.5c-2,1.1-3.9,1.6-5.9,2.1c-5.4,1.4-11,2.3-16.4,3.3c-5.2,1-10.2-0.3-15.3-0.9c-3-0.4-6.2,0.1-9.5-1.4
		c0.5-4.2-1-8.6,1.9-12.8c-1.9-1.8-2.3-4.5-3.9-7.4c-0.7,2.8-0.6,4.7,0.8,6.3c-0.6,3.4-1.1,6.6-1.6,9.9c-5.6-0.8-10.9-2.3-16.2-3.5
		c-5.9-1.4-11.8-2.7-17.8-3.7c-1.3-0.2-2.7-0.7-3.9,0.6c0.7,1.7,2.3,1.8,3.7,2.1c6,1.3,12.1,2.6,18.1,3.9c5.2,1.2,10.4,2.5,15.9,2.7
		c-0.1,9.5-0.1,18.6-0.3,27.8c-0.1,7.5,0.1,15,1,22.5c0.2,2-0.3,3.9-0.7,5.8c-1,4.2-2.4,8.4-2.9,12.7c-0.8,5.8-1.4,11.6-2.4,17.3
		c-0.7,3.6-1.2,7.4-4.1,10.5c-0.2,1.8-0.4,3.8,0.1,6.1c1.9-1.9,1.1-4.4,2-6.4c1.3,0.2,1.7,1,2.1,2c4.5,11.9,7.6,24.1,8.4,36.9
		c0.4,5.5-0.1,10.7-1.4,15.9c-1,4.3-1.1,8.6-1.1,12.9c0,9.4,1.3,18.7,2.5,28c0.4,2.9,0.6,5.9,2.4,8.5c-0.8,2.1-2.4,3.4-4.5,4.8
		c-3.8-2.1-7.7-4.3-11.7-6.5c-0.3-2.2-2.1-3.6-3.3-5.4c0-7.6-2.3-15-4-22.4c-0.9-4-1.8-8-2.8-12c-0.1-0.4-0.1-1-0.4-1.3
		c-2.3-3.4-2.1-7.4-3-11.1c-0.4-1.7-1-3.2-1.8-4.8c-1.7-3.1-2.3-6.7-2.8-10.2c-0.3-2.7-0.6-5.5-1.2-8.1c-0.1-0.4-0.2-0.9-0.1-1.3
		c1-5.7-0.6-11.4-0.5-17.1C337.9,543.8,336.9,541.1,336.3,538.2z M411.6,381.2c-0.8,0.1-1.7,0.2-2.5,0.2
		C410,381.6,410.9,381.9,411.6,381.2c0.6-0.1,1.3,0.1,1.9-0.5C412.8,380.6,412.1,380.6,411.6,381.2z M371.1,641.6
		c-1.6-1.7,0.2-4-1.2-5.6c-1.5-1.7-0.7-4.3-2.6-6c-0.9,3.8,2.7,6.7,1.5,10.3c-2.4,2.1-2.4,2.1-1.4,3.9
		C368.9,643.8,370,642.8,371.1,641.6z M355.2,554.8c-1.4,3-1.5,6.1,0.1,9.2C355.2,561,357,558,355.2,554.8z M356.3,577.9
		c0.3,0,0.6,0,0.9,0c0.2-2.5-1.1-5-0.5-7.5c0.1-0.4,0-0.9-0.2-1.3c-0.1-0.3-0.3-0.6-0.5-0.8c-0.1-0.1-0.4-0.1-1.1-0.4
		C355.5,571.3,355.9,574.6,356.3,577.9z M342.8,519.9c-3.4-5.8-3.9-6.4-6.4-6.5C338.2,515.9,339.4,518.3,342.8,519.9z M366.9,421.7
		c-1-4.7-2.1-6.4-4.3-7.1c0.5,1.3,1.5,2.2,2,3.6C364.9,419.4,365.2,420.9,366.9,421.7z M397.4,388c2.8-0.4,5.6-0.7,8.5-1.1
		C402.8,385.8,400.1,386.9,397.4,388z M339.2,521.3c0.6,2.3,1.6,4.2,2.9,5.6C341.9,523.1,341.5,522.4,339.2,521.3z M370,420.8
		c2.5-1.2,2.9-3.6,3.7-5.8C371.8,416.5,370.8,418.5,370,420.8z M340.7,534.7c0.8-2.3,0.7-4.1,0.8-5.8c0-0.3-0.4-0.7-1-0.6
		C339.3,530.2,340,532.1,340.7,534.7z M359.5,426.8c2.7,0.3,5.3,1.5,8,1.1C365,426.4,362.2,426.9,359.5,426.8z M388.3,383.5
		c-3,0-4.6,0.4-6.8,1.8C383.9,385,386.1,384.8,388.3,383.5z M368.3,411.3c1.1-1.6,2.2-3.2,3.3-4.8
		C370,407.8,367.7,408.6,368.3,411.3z M359,544.8c-1.7,1.5-2.3,2.6-1.7,4.5C358.4,548.1,358.7,546.9,359,544.8z M345.1,519.3
		c1.9,1.2,1.9,1.2,3.8,0.5C347.8,519,346.7,519,345.1,519.3z M366,625.7c-0.5,1-0.3,1.7,0.7,2.3C367.3,627,366.9,626.3,366,625.7z
		 M342.1,536.5c-0.4,0.5-0.4,0.9,0,1.2c0.3,0.2,0.6,0.1,0.7-0.2C343,537,342.6,536.8,342.1,536.5z"/>
	<path fill="none" d="M421.3,645.2c-2.6-0.4-3-0.8-3.4-3c-0.1-0.8-0.4-1.6-0.2-2.4c1-4.5-0.5-9.1,0.2-13.6c0.8-4.5,0.9-9.1,1.5-13.6
		c0.5-3.8,2.1-7.4,2.8-11.3c0.5-3.2,1.1-6.3,1.2-9.5c0.2-6,0.8-12.1,0.8-18.1c0-5.6-1.2-10.9-3-16.1c-3.5-9.9-7.4-19.6-10.6-29.6
		c-2.6-8.3-3.3-17.1,0.4-25.5c3.5-8,5.4-16.5,7.1-25c1.5-7.8,2.3-15.8,1.9-23.8c-0.1-3.4,0-6.9,1.8-10.1c-0.5-4.5,0.3-8.8,2.1-13
		c1.5-3.7,3-7.3,4.3-11.2c0,1-0.1,2,0,3c0.3,2.4,1.7,3.7,4.1,3.6c0.8,0,1.6-0.2,2.4-0.3c2.8-0.6,5.4,0,7.9,1.3
		c0.2,0.1,0.4,0.3,0.6,0.3c2.9,0.1,5.7,0.5,8.6,1.2c0.3,0.1,0.5-0.4,0.5-0.8L452,428c0.5-0.2,0.9-0.1,1.2,0.2
		c0.5,0.5,1.2,0.9,1.8,0.8c3-0.5,6.1-1.1,9.1-1.8c1.1-0.3,1-1.7,1.4-2.5c2.5-0.5,4.9-0.7,7-0.8c1.2-0.7,1.1-2,1.7-2.4
		c3.8-0.2,6.9,1.1,9.8,2.9c3.6,2.2,6,5.1,7.3,9.2c2.4,7.6,2.7,15.2,1.7,23c-0.8,6.5-2,12.8-3.7,19.1c-2.2,8.3-3.3,16.8-3.7,25.4
		c-0.2,4.8-1.4,9.3-3.2,13.9c-4.2,11.2-9,22.3-10.3,34.3c-0.8,7.5,0.7,14.8,2.9,21.9c0.9,2.9,2.2,5.8,3.2,8.7
		c4.1,11.2,6.2,22.7,5.8,34.6c-0.3,7.5-1.4,14.8-4.9,21.5c-2.1,4.2-3.3,8.8-4.5,13.3c-1.1,4-0.4,7.9,1.4,11.7
		c2.9,6.1,6.5,11.8,11.8,16.1c0.2,0.2,0.4,0.6,0.6,0.8c-0.2,1.6-1.5,1.9-2.7,2.2c-0.9,0.2-1.8,0.2-2.7,0.1
		c-8.8-0.6-17.5-1.9-25.6-5.5c-4.2-1.9-7.8-4.8-11.7-7.1c-1.5-0.9-3-1.6-4.6-2.2c-3.2-1.2-6-0.7-8.5,1.7c-0.2,0.2-0.6,0.4-0.9,0.6
		c-1.3-1.7-1.8-3.7-2.3-5.7c-0.8-3-2-5.8-3-8.7c-0.4-1.2-0.7-2.3-0.8-3.6c-0.3-2.7-1.2-5.4-3.5-7.2c-0.9-0.7-1.9-1.2-2.8-0.2
		c-0.3,1.8,2.3,1.4,1.9,3L421.3,645.2z"/>
	<path fill="none" d="M375.2,512.7c0.6-0.4,1-0.7,1.4-1c0-0.4,0-0.7-0.1-1c-2.3-7-3.8-14.1-5-21.3c-0.2-1.2-0.2-2.5-0.2-3.8
		c0-12,0-24,0.1-36c0-0.8,0.1-1.6,0.1-2.6c5,1.1,9.9,0.9,14.7,1.7c3.6,0.6,7.2,0.6,10.9,0c7-1.1,13.7-3.1,20.6-5.3
		c0.4,1.5-0.3,2.9-0.5,4.4c-0.4,4.3-0.8,8.6-1.2,12.9c0,0.5-0.2,1,0,1.3c1.6,3.3,0.7,6.7,0,10c-2.3,10.1-4.6,20.2-7.1,30.3
		c-0.7,2.9-1.6,5.7-2.1,8.6c-1.3,8.1,1.3,15.5,3.2,23.2c2.6,10.5,7,20.5,9.4,31c1.1,5,2.1,10,1.5,15.2c-0.5,3.7-0.5,7.5-0.6,11.3
		c-0.2,7.1-2.8,13.9-3.4,20.9c-0.8,9-2.1,17.9-1.6,27c0.2,2.9,0.2,6,2.1,8.6c-0.1,1-0.2,2-0.3,3.1c-1.3-0.3-1.9-1.3-2.4-1.9
		c-0.8-1,0.3-1.8-0.4-2.5c-1-0.3-1.5,0.9-2.6,1c-3.7-4-6.8-9.1-12.3-11.1c0.8-4.7,0.7-9.1-0.6-13.4c-0.2-0.5-0.1-1.1-0.1-1.7
		c-0.1-8.7-1.7-17.3-2.4-25.9c-0.5-5.3-1.8-10.5-1.6-15.9c0-1-0.2-2.1-0.5-3c-2.2-7.4-4.2-14.9-6.7-22.3c-0.5-1.3-0.7-2.6-1.1-4
		c-0.6-2.4-0.8-4.8-2.7-6.8c-1.1-1.1-1.6-3-1.5-4.8c0.2-1.9-0.3-3.7-1.3-5.2c-2.5-4.2-4.1-8.6-4.4-13.5
		C376.3,517.7,375.7,515.2,375.2,512.7z M386.1,522c0.2,3.1,0.4,5.6-0.4,8.1c-0.8,2.3,1.6,5.1,4.2,5.7c0.2-1.2-0.7-1.8-1.2-2.6
		c-0.6-1-1.2-1.9-1.4-3C389,525.9,388.9,524.3,386.1,522z M402.7,547.8c0.3,3,0.8,5.8,1.7,8.3c0.9,2.7-0.4,5.9,2.7,8.7
		c-1.1-5.3-1.8-10-2.3-14.6c-0.1-0.5-0.4-1.1-0.6-1.6C404,548.3,403.7,547.9,402.7,547.8z M413.7,630.2c-1.6,3-2,5.4-1.3,7.9
		c0.7,2.3,0,4.9,1.6,7C414.9,640.3,413.3,635.7,413.7,630.2z M391.9,509c-1.9,2.9,0.6,6-0.9,9.5c2-1.4,1.9-2.7,1.6-4.1
		C392.1,512.6,391.6,510.9,391.9,509z M402.9,541.5c0.9-1.4,1.2-2.7,1.1-4c0-1.2,0.7-2.6-1.1-3.8
		C402.9,536.4,402.9,538.8,402.9,541.5z M409.6,462.8c1.1-1.7,1.7-3.6,1.1-5.6c-0.5,1.4-0.8,2.9-1.1,4.3
		C409.6,461.9,409.6,462.4,409.6,462.8z M412.8,624.5c-0.5,1.2-0.5,1.9,0.1,3C413.5,626.4,413.7,625.7,412.8,624.5z M407.1,473.1
		c1-0.6,1-1.2,0.3-2.1C406.7,471.7,406.8,472.3,407.1,473.1z M412.6,610.1c-0.5,0.9-1.2,1.4-0.3,2.1
		C413,611.7,413,611.2,412.6,610.1z M412.8,619.6c-0.3,0.4-0.4,0.7,0,1.1c0.1,0,0.4-0.1,0.5-0.2C413.5,620,413.3,619.7,412.8,619.6z
		"/>
	<path fill="none" d="M440.7,400.7c1.9-0.7,3.2-0.2,4.6,0.2c2.4,0.7,4.8,1.5,7.3,1.6c1.7,0,3.2,0.8,4.7,1.8
		c4.9,3.7,10.2,6.5,16.4,7.2c0.2,0,0.3,0.2,0.6,0.5c-2,1.7-4.2,1.6-6.4,1c-3.3-0.8-6.6-1.9-9.5-2.7c-1.2-0.7,0.2-1.7-1-2.3
		c-1.7,3.9-5.9,3.2-9.3,5.1c-0.3-0.6-0.7-1.3-1-1.8c-3,0-5.1,1.9-7.9,1.4c0.7,1.8,2.3,1.1,3.3,1.6c0.3,0.5,0.5,1,0.5,1.8
		c-3-0.2-6,0.4-8.9-0.1c-3.8-3.6-5.3-8.3-7.1-12.9c-4.3-10.8-8.4-21.7-13.3-32.3c-2.2-4.8-3.6-9.9-4.9-15c-0.5-2.1-1.3-4.1-1.8-6.2
		c-0.9-4.5-1.2-9.1-1.1-13.6c0.1-4,0.1-8,0.8-11.8c-0.1-0.9-0.9-0.9-1.4-1.5c1.5-7.5-0.3-15-1.4-22.6c-0.5-3.6-1.3-7.2-1-10.6
		c-0.3-1.1-1.1-0.4-1.8-0.9c-0.1-2.5-0.1-5.2-0.4-7.9c-0.3-2.6,0.2-5.4-1.2-8.1c-1.4,1.3-0.6,2.8-1.2,3.9c-0.9,1-1.9-0.8-2.9,0.1
		c1,0.9,2,1.8,3.1,2.9c0.5,5,0.3,10.1,1.2,15.6c-3.2-1.4-5.4-3.2-7-5.7c-3.4-5.1-7.1-10.1-8.8-16.2c-0.1-0.4-0.3-0.8-0.5-1.3
		c-0.5,0.2-1,0.4-1.5,0.6c-3.9-9.9-0.9-18.3,5.7-25.8c2.3-2.6,4-5.8,7-7.9c0.2-1.9,2.5-2.8,2.5-5c1.7,0.7,3.4,0.4,5.3,0.9
		c-0.8-4.1-1.6-8.1-2.5-12.8c-0.6,4.3,0.3,7.7,1,11.5c-1.3-0.2-1.9-1-2.6-1.7c-0.1-0.3-0.2-0.6-0.2-1c-0.5-5.4,0.4-10.6,1.9-15.8
		c1.9-6.5,4.1-12.8,6.1-19.3c-1.1,6.5-2.8,12.9-3.1,19.4c-0.3,6.6,0.2,13.2,0.7,19.8c4.2,2.6,8.2,5.2,12.7,6.9
		c2.3,0.9,3.6,2.6,4.4,4.9c2.1,6,3.7,12,3.7,18.4c0,1.8-0.2,3.7,0.9,5.3c0.3,0.4,0.2,1.1,0.2,1.7c-0.1,7.2,0.5,14.4,0,21.6
		c-0.1,1.5-0.4,2.9-0.9,4.3c-1.9,5.7-2.9,11.5-3.3,17.5c-0.1,1.3,0,2.5,0.3,3.7c0.6,2.6,1.1,5.1,1.6,7.7c0.3,1.7,0.5,3.6,1.8,4.8
		c2.3,2.2,2.8,4.9,3.1,7.7c1.1,11.5,3.7,22.8,5.6,34.1c0.7,4.1,2.3,7.8,3.7,11.7C438.9,390.2,440.6,394.9,440.7,400.7z M413,325.4
		c1.5-1,3.5-1.7,3.8-4.6C414.6,322.1,413.7,323.6,413,325.4z M431.7,396.1c0.6,3.4,0.6,3.4,2.3,4.5
		C433.7,398.9,433,397.7,431.7,396.1z M412.7,327.6c-1.1,0.9-1.2,1.7-0.5,2.9C413.2,329.6,413.8,328.9,412.7,327.6z M438.9,400.5
		c-0.5,0.3-1.1,0.2-1.2,1.3C438.3,401.5,439.2,401.9,438.9,400.5z M432.1,403.9c-0.8,0.5-1.4,1-0.9,1.9
		C431.7,405.4,432.4,405.1,432.1,403.9z"/>
	<path fill="none" d="M385.2,375c-0.5-2,0.9-3.5,0.2-5.3c-1.4,1.7-1.6,3.6-2,5.7c-4.9,1.4-9.8,2.9-14.7,4.3
		c-0.9,0.3-1.7,0.6-2.6,0.7c-1.5,0.3-2.8,1-3.2,2.4c-4.5,0.7-19.9,0.9-22.9,0.3c-1.6-6-2.5-12.1-2.4-18.4c0.1-5.2-0.4-10.5-0.2-15.7
		c0.1-4.5-1.1-8.9-3.7-12.6c-3.6-5.1-5.1-10.9-5.5-17c-0.1-1.5-0.2-2.9-0.7-4.3c3.1-2.7,7.8-1,10.7-4.1c4.3-0.7,8.5,0.3,12.8,0.8
		c12.5,1.3,25,2,37.3,5.1c4,1,7.9,1.9,11.8,3.5c0.1,1.7-0.2,3.3-0.8,4.8c-0.9,2.5-1.2,5-0.8,7.7c0.3,2,0.6,4,0,6.1
		c-0.3,1.2,0.1,2.7,0.4,4c1.4,5.8,3,11.5,5.9,16.8c1.8,3.3,3.4,6.7,5.2,10.3C401.3,370.8,393.3,373.1,385.2,375z M347.4,367.6
		c2.7-2.8,2.4-6.6-0.5-8.5c-0.2-0.2-0.6-0.3-0.9,0.2c0.3,0.7,1.3,1.2,1.2,2.4C347.2,363.4,346.5,365.3,347.4,367.6z M342.6,338.1
		c-0.3-2.2-0.4-4.2,0.3-6.3c0.3-0.9-0.1-1.9-1.2-2.7C341.9,332.3,341.5,335.3,342.6,338.1z M384.8,321.3c1.7-0.7,3.4-1.4,5.1-3.4
		C387.1,318.3,385.9,319.9,384.8,321.3z M344.9,354.5c0.6-1.8,0.4-2.8-0.2-4C344.2,351.8,344.5,352.7,344.9,354.5z M388.3,365.3
		c-0.5,0.3-1.4,0.6-0.8,1.3c0.4,0.1,0.7-0.1,0.8-0.4C388.4,365.9,388.3,365.6,388.3,365.3z"/>
	<path fill="none" d="M399.7,298c1.9,6.6,4.1,12.9,0.5,19.6c-7.7-2.7-15.8-4.7-24-6c-5.3-0.8-10.7-1.2-16-1.7
		c-5.1-0.5-10.2-1.2-15.3-1.5c-6-0.4-11.8,0.2-17.6,3c-1.1-2.8-3.1-5-3.8-7.9c-0.2-0.8-0.7-1.4-1.3-1.9c-10.1-9.2-6.1-24.1,2.3-30.3
		c4.7-3.4,9.1-7.2,13.5-11.7c0.4,3.7,3.1,4.4,5.9,5c3.7,0.8,7.2,0.3,10.8-0.7c4.1-1.2,8.4-1.9,12.2-4.2c1.8-1.1,3.4-2.3,4.6-4
		c3.5-5.1,8.4-9,12.8-13.3c2-1.9,4-3.7,6.3-5.3c0.9-0.6,1.7-1.3,2.7-0.4c0.3,0.9-0.5,1.2-1,1.6c-3.3,2.8-6.2,6.1-8.8,9.5
		c-7.3,9.9-8.4,21.7,0.1,31.8c0.5,0.6,1.1,1.2,1.3,2C387.2,289.5,392.4,294.6,399.7,298z M379.8,298.5c-4.8,1.8-9.9,2.3-14.9,3.4
		c-3.1,0.7-6.3,0.8-9.5,0.5c-3.2-0.3-6.3-1-9.3-2.1c-0.8-0.3-1.7-0.9-2.4,0.5c0.7,1.4,2.1,1.7,3.3,2.1c7.1,2.5,14.3,2.7,21.5,0.5
		C372.5,302.3,376.3,300.7,379.8,298.5z M341.4,299.2c0.1-0.6-0.2-0.9-0.7-1c-0.5-0.1-1.1-0.5-1.3,0.4
		C340,299.1,340.5,299.9,341.4,299.2z M384.1,296.5c0.8,0.3,1.3,0.4,1.6-0.2C385.1,296,385.1,296,384.1,296.5z"/>
	<path fill="none" d="M363.4,535.4c1.5-2.3,2.7-4.6,3.3-7.2c0.2-1.1,0.6-2.4,0.2-3.4c-0.9-2.3-0.2-4.5,0.3-6.7
		c0.6-2.7,0.7-5.4,0.8-8.2c0.2-4.2,0.7-8.4,2.1-12.9c1.1,3.2,2.3,5.8,2.2,8.9c-0.1,5.6,1.5,11,2.4,16.6c0.7,4.4,2.4,8.3,4.5,12.1
		c0.9,1.6,1.5,3.3,1.5,5.2c0.1,3.4,1.4,6.6,2.7,9.7c1.7,4.4,2.8,8.9,3.8,13.5c0.9,4,1.9,8,3,12c2.4,8.8,3.2,17.9,4.2,27
		c0.8,7.5,1.4,15,2.2,22.5c0.4,3.7,0.2,7.5,1.5,11.2c-1,1.1-2.4-0.3-3.3,0.9c-1.8,1.5-2.5,3.7-3.2,5.8c-1,3.2-2.5,6.1-5.8,8
		c-1.5-2.5-4-4.2-4.7-7.3c-0.6-2.3-2.2-4.4-4-5.8c-1.1-0.3-1.5,0.4-2.2,0.7c-0.1-0.3-0.2-0.7-0.3-1c-1.6-8.1-2.5-16.3-2.2-24.5
		c0.1-3.6-0.6-7.3,0.5-10.9c0.1-0.2,0.1-0.5,0-0.7c-1.5-4.3,0.1-8.4,0.8-12.5c1.4-8.2,0.6-16.4-0.8-24.5c-1.6-9.6-5.7-18.2-9.1-27.2
		C363.8,536.4,363.6,536,363.4,535.4z"/>
	<path fill="none" d="M421.2,645.3c2,1.2,2.2,3.3,2.2,5.3c-0.1,3.2,0.6,6.1,2.7,8.6c1.1,1.2,1.2,2.8,1.2,4.2c0.2,2.4,1,4.6,1.7,6.9
		c0.7,2.4,1.3,4.8,1.9,7.5c-5.5,2.7-11.2,3.7-17.2,3.1c-0.3-0.9,0.8-1,1-1.8c-1.5-1-2.9-0.8-4.2,0.3c-0.5,0.4-1,0.9-1.5,1.4
		c-2.9,2.8-6.1,4.4-10.3,4.6c-3.5,0.2-7,0.9-10.5,1.3c-4.8,0.5-9.3-0.4-13.9-1c-2.7-0.4-5.4-0.9-8.1-1.5c-3.5-0.8-6.1-2.9-8.5-5.4
		c-0.8-0.9-1.1-1.7-0.7-2.8c5.5,1.2,9.7,5,14.4,7.8c-3.8-4.5-7.7-8.7-13.9-9.6c0.1-1.4,1-1.5,1.7-1.7c0.1,0,0.2-0.1,0.3-0.1
		c6.6-0.2,11.8-3.5,16.8-7.7c2.9,1.4,5.9,2.5,9.1,2.4c0.6,0,1.4-0.2,1.6-1c-1.4-1.7-1.4-1.8-8.9-3c0.2-1.6,1.6-2.4,2.3-3.9
		c2.3,0.6,4.4,1.2,6.6,1.6c2.1,0.4,4.1,1.8,6.5,0.6c-0.3-1.9-1.7-2.4-3.1-3c-1.2-0.5-2.6-0.6-3.7-1.8c3.6,0.1,6.8,2.2,10.4,1.7
		c-1.3-3.1-2.4-3.6-10.6-5.4c0.6-0.9,1.5-1.3,2.4-1.8c3.8,0.8,7.4,2.4,11.1,3.9c1-1,0.5-1.7-0.3-2.3c-1.3-1.1-3-1.7-4.6-2.3
		c-1.4-0.6-2.7-1-4.7-1.8c3.3-2.5,3.8-6.2,5.2-9.5c2.2-0.3,3.8,0.7,5.2,1.7c3,2.3,5.1,5.5,7.8,8.1c2.8,2.7,5.5,5.7,8.8,7.4
		c1.2-0.2,2.1-0.7,2.1-1.5C419.8,651.5,422.3,648.6,421.2,645.3L421.2,645.3z M410.4,665.2c-2.4-3.2-4.8-3.9-7-2.1
		c-1.9,1.6-2.1,4-0.3,5.7c2.1,2.1,4.6,1.4,7.3-1.9c2.2,3.4,2.9,3.6,7.9,2c0.3-4.4-0.3-5.9-2.5-6.6
		C413.7,661.7,412.1,662.6,410.4,665.2z M395.1,663.1c0.2,2.9-0.5,5.3,0.6,7.5c1.7-0.3,0.4-2.4,2.1-2.5c1.4,0.2,1.4,2.4,3.1,2.2
		c0.6-1.1-0.8-1.5-0.6-2.4c1.3-1.9,1.5-2.7,0.8-3.6C399.5,662.2,397.4,663.2,395.1,663.1z M383.4,668.7c-3-1-5.4-0.6-8.2-0.6
		C378.4,670.4,380.4,670.6,383.4,668.7z"/>
	<path fill="none" d="M286.7,403c1.1-2.9,1.3-6,2.9-8.7c1.1-1.8,1.1-1.8,4.1-2.7c-1,1.3-1.8,2.5-0.4,3.5c1.8-1,1.5-4,3.9-4.1
		c0.8-1.6,1.5-2.9,2.2-4.2c1.2,0,2.1-0.4,2.9-1.4c2.3-3.1,4.3-6.4,7.1-9.2c0.2-0.2,0.3-0.6,0.3-0.9c0.6-2.2,2-3.7,4.1-4.4
		c0.5-0.8-0.4-0.7-0.5-1.3c2.9-4.4,6.1-8.8,8.8-13.6c0.9-1.6,2-3.1,1.1-4.8c2.2-4.4,5.1-8.1,7.8-12.2c2.3,3.6,3.8,7.2,2.9,11.5
		c-0.6,3,0.6,6.1,0.3,9.2c-0.2,1.9,0,3.9,0,5.9c-1.6,2-3.4,3.9-5.4,5.6c-5.9,4.9-11.3,10.4-16.8,15.7c-3.5,3.3-6,7.5-7.5,12.1
		c-0.8,2.3-1.6,4.7-0.1,7.2c0.5,0.8,0.3,2,0.4,3c-1.3,1.6-2.5,3.1-4.2,5.1c0.1-2,2.2-3,0.9-4.7c-1.8,1.1-2.2,3.2-3.7,4.5
		c-3.5,1.5-6.9,1-10-1.5c1.8,0.2,3.6,1.1,5.6,0.3c2.5-0.5,2.2-3.8,4.8-5.1c-3.7-0.9-3.3-5-5.9-6.6c0.6-1.8,1.1-3.6,0.1-5.8
		c-2.2,1.6-1.1,3.6-1.3,5.6c-1.4,0.5-2.8,1.2-4.1,2L286.7,403z"/>
	<path fill="none" d="M401.4,164.1c1,1.9,2.7,0.5,3.8,1.1c5.7,4.6,7.1,10.7,6.5,18c2.7-6,1-11.8-5.1-18.1c0.8-0.6,1.5-0.1,2.1,0
		c6.2,1.7,10.7,8.2,10.2,14.7c-0.4,5.4-2.3,10.5-4.1,15.5c-0.4,1.3-0.6,2.6-0.9,3.9c-1.2,4.6-2.8,9-4.5,13.4
		c-0.1-7.1,2.8-13.9,2.2-21c-3.9,13.1-5.1,26.4-3.8,40c-1.8-8.4-1.4-16.9-1.2-25.3c-1,3.6-1.4,7.2-1.5,11.1
		c-1-6.2-0.2-11.9,1.3-17.6c0.9-3.2,1.2-6.5,1.1-9.8c-0.1-3.3,0.2-6.6,0.1-9.9c-0.1-4.7-1.5-8.9-5-12.3c-1.4-1.4-1.8-3.4-3.1-5.5
		c3.3-0.8,6.3-0.9,9.3-0.4c1.7,0.3,2.5,1.6,3.5,3.1C406.5,161.8,405.1,161.7,401.4,164.1z"/>
	<path fill="none" d="M394.3,167.1c-1.1,0.1-2.2,0.4-3.3,0.9c-0.7,0.4-1.4,0.7-2.2,1.1c-5.5,2.7-11.1,3.3-16.8,0.9
		c-1.7-0.7-3.4,0.3-5.1-0.4c-0.6-0.5-0.6-1.2-0.4-2.2c3,1.4,6.2,1.9,9.5,1.6c0-1.5-1-1.9-3-2.3c7.4-2.4,14.2-3.5,21.4-4
		c-0.8-2.3-2.3-2.3-4-2.1c-3.5,0.5-6.9,1.5-10.4,2.3c-1.4,0.3-2.8,1-4.3,0.8c0-0.4,0-0.7,0-1c-2.2,0.3-4.5,0.7-6.9,1.1
		c0.8-1.3,2.1-1.2,3.3-1.6c-0.7-0.3-1.1-0.5-2.1-1c7.6-1.3,14.7-1.9,21.9-2.6c2.4,1.4,4.3,3.4,6.2,5.4c-0.1,1.3-1.7,1.2-2,2.3
		C395.6,166.5,395,166.8,394.3,167.1z"/>
	<path fill="none" d="M390.3,199.4c0.8-2.3,3.1-3.7,3.6-6.4c-0.4-1.1-0.9-2.5-0.9-4c0-1.7-0.6-3.3-2-4.6c-1.5-1.3-3-2.2-4.9-1.4
		c-0.8,0.3-1.5,0.5-2.2-0.5c5.8-2,11.9-1.8,17.9-4.1c-1.5,4.2-5.3,4.7-8.3,6.3c2.6,0.4,3.6,0.1,8.3-3c-0.3,2.8-2.6,3.6-4.3,5.1
		c1.6,0.7,2.4-0.8,3.9-0.9c-0.6,2.1-1.1,4-2.7,5.4c-1.4,1.4-2.9,2.7-4.4,4.1c0.8,0.3,1.3-0.5,2.1,0.2c-1.9,1.6-3.6,3.2-6.2,3.6
		L390.3,199.4z"/>
	<path fill="none" d="M371.9,177.3c2.6,0.3,5.1,1.1,7.9,1c2.1-1.7,4.9-1.6,7.6-2.4c-0.2,1.4-1.6,1.1-2.2,2.4
		c5.6-1.8,10.6-4.1,15.3-7.5c0.7,1.8,0.9,3.5,0.9,5.2c-1.2,1.2-2.6,1.9-3.9,2.6c-0.8,0-0.3-1.6-1.6-1c-2.8,1.4-5.8,1.9-8.8,2.7
		c-2.3,0.6-4.6,0.9-7-0.2c-1.7-0.8-3.7-1-5.6-1.4C373.5,178.6,372.5,178.3,371.9,177.3z"/>
	<path fill="none" d="M402.9,320c0.3,4.9,1.5,9.7,0.8,14.6c-0.9,6.6,0,12.9,1.8,19.3c0.3,0.9,1,1.8,0.4,3.1
		c-2.3-4.4-3.8-8.9-4.2-13.7c-0.3-3.4-0.4-6.8-0.9-10.2C400.1,328.4,401.4,324.2,402.9,320z"/>
	<path fill="none" d="M394.3,167.1c0.7-0.3,1.3-0.5,2-0.8c0.7-0.2,1.4-0.9,2.4,0.1c-3.6,3.5-8.5,4.4-13.2,6.4
		c3.4,0.3,6-0.6,13.9-4.7c0.9,0.9,0.6,1.7-0.2,2.2c-2.7,1.7-5.1,4-8.7,4.1c-2,0.1-3.9,0.9-6,1.2c-2.8,0.4-5.4-0.3-8.5-1.1
		c1.6-0.4,2.7-0.9,3.8-1c4.4-0.4,8-3,12.1-4.1C393.2,169,393.4,167.7,394.3,167.1z"/>
	<path fill="none" d="M448.7,415.3c0.6-1.1,1.2-1.6,2.2-1.7c1.7,0.8,1.5,3.4,3.5,3.6c0.8,3.7,1.3,7.1,3.7,9.7
		c-2.9,1-5.1,0.3-6.3-2.6C450.6,421.4,449.7,418.3,448.7,415.3z"/>
	<path fill="none" d="M358.9,162.8c0.2-1.1,1.3-1.2,2-1.6c3.8-1.9,7.8-3.4,12-4.4c2.7-0.7,5.4,0,8.1-0.4c1.5-0.2,2.9-0.3,4.8-0.4
		c-0.9-0.4-1.4-0.7-2-1c1.4-2.1,2.9-1.8,6.1,1.5c-4.3,0.8-8.4,1.6-12.6,2.5c-1.6,0.3-3.2-0.2-4.9-0.2c-4.1-0.1-7.5,1.8-11.1,3.3
		C360.6,162.4,360,163.4,358.9,162.8z"/>
	<path fill="none" d="M460.8,417c3.9,0.1,7.4,0,10.9-0.8c0.7,2,1.1,3.8,1,5.9c-2.4,0.2-4.7,0.4-7.2,0.6
		C464.9,420.3,462.5,419.2,460.8,417z"/>
	<path fill="none" d="M452.1,427.9c-1.2-1-2.7-1.1-4.2-1.8c-1.6-4-3.5-8-3.8-12.5c0.9-0.8,1.7-1.1,3-0.3c0,3.2,2,6,2.5,9.2
		c0.2,1.4,0.7,2.9,2,3.8C452.1,426.8,452.1,427.4,452.1,427.9L452.1,427.9z"/>
	<path fill="none" d="M464.4,424.9c-1.6,2-3.5,0.6-5.4,0.6c-1.9-2.9-2.4-6-3.3-9.4C460,418.4,463.6,422.1,464.4,424.9z"/>
	<path fill="none" d="M430.5,418.3c3,0,5.8,0,8.6,0c0.7,2.3-1.4,3-1.9,4.6c-2.3-0.1-4.4,1.3-6.7,0.1
		C430,421.4,430.7,419.9,430.5,418.3z"/>
	<path fill="none" d="M393.5,210.6c2.1,1.3,2.6,3.3,2.2,5.6c-0.3,1.9-0.9,3.8-1.1,5.7c-0.2,1.8,0,3.6,0,6
		C392.2,223,391.7,213.3,393.5,210.6z"/>
	<path fill="none" d="M399.1,201.8c0.5-3.6,1.1-6.3,2.2-9c1.8-4.2,2.3-8.7,2.5-13.2c0.1-1.2-0.1-2.5,0.5-3.7
		C406,183.3,403.7,195.5,399.1,201.8z"/>
	<path fill="none" d="M445.9,425.3c-0.8,0.9-1.6,0.8-2.7,0.8c-0.6-2.7-3-5.1-1.6-8.8C445.2,419.2,444.3,423,445.9,425.3z"/>
	<path fill="none" d="M290.2,403.7c1.3,1.9,3.5,2.8,4.4,4.8c-0.6,1.2-1.2,2.5-2.7,2.9C287.6,409.1,287,407,290.2,403.7z
		 M288.9,407.4c0.7,1.1,1.2,2.3,2.9,1.8c1-0.9,0.8-1.8-0.1-2.5C290.7,405.9,289.8,405.9,288.9,407.4z"/>
	<path fill="none" d="M457.1,414.2c-1.7,0.1-2.2,1.1-3.2,1.5c-0.5-1-1-1.9-1.6-2.9c1.5-1,3.3,0.2,4.2-1.1c2.2,0.5,3.4,2.1,5.3,3.1
		C459.6,416,458.2,415,457.1,414.2z"/>
	<path fill="none" d="M404.9,223.4c1,4,0.9,8.2,3,12c-1.3,0.5-2-0.4-2.9-0.9C404.6,230.8,404.5,227.1,404.9,223.4z"/>
	<path fill="none" d="M397,202.7c-0.4,2.9-0.3,5.7-0.5,8.7c-1.4-0.2-1.6-1.4-2.4-2.1c0.4-0.1,0.7-0.2,1.3-0.3
		C394.4,206.5,395.7,204.6,397,202.7z"/>
	<path fill="none" d="M382.7,152.9c-2.3,0-4.5,0-6.8,0c-2.2,0-4.5,0.7-7,0.3C373.7,151.9,378.2,152,382.7,152.9z"/>
	<path fill="none" d="M286.9,403.2c-0.4,1.2-0.8,2.3-1.2,3.5c-0.4,1.1-1.1,1.9-2.6,1.9c-0.1-2.9,2.2-4,3.7-5.6L286.9,403.2z"/>
	<path fill="none" d="M390.2,199.3c0.4,0.9,1.1,0.9,1.9,0.5c0.8-0.4,1.5-0.8,2.3-1.2l-0.1-0.1c0.3,0.8-0.1,1.3-0.7,1.7
		c-1.5,1-3.2,1.5-5.1,1.9c0.3-1.4,1.1-2,1.8-2.8L390.2,199.3z"/>
	<path fill="none" d="M372.6,173.1c-2.2,0.2-4.2,0.2-5.9-2C369.4,170.5,370.8,172.6,372.6,173.1z"/>
	<path fill="none" d="M428.3,417.1c0-1.5,0-2.7,0-4.2c1.2,0.6,1.7,1.7,2.7,2.5C430,416.1,429.3,416.5,428.3,417.1z"/>
	<path fill="none" d="M365.1,153.2c-1.9,0.8-3.8,1.6-5.7,2.4C360.8,153.5,362.9,153.2,365.1,153.2z"/>
	<path fill="none" d="M389.3,192c-1.4-1-2.2-1.9-2.9-3c0.5-1,1.1-1,1.6-0.3C388.7,189.6,389.3,190.5,389.3,192z"/>
	<path fill="none" d="M357.9,159.9c-1.5,0.6-1.4,3-4,3.3C355.4,161.7,356.1,160.3,357.9,159.9z"/>
	<path fill="none" d="M370.5,165.5c0.7-0.5,1.4-0.2,2.1-0.3c0.1,0.9-0.5,1-1,1.1C371.1,166.3,370.7,166.2,370.5,165.5z"/>
	<path fill="none" d="M363.1,157.1c-1.4,0.8-2.1,1.3-2.8,1.7c-0.5-0.2-0.5-0.3-0.3-0.5C360.7,157.7,361.4,157.3,363.1,157.1z"/>
	<path fill="none" d="M372.7,155.1c1,0,2,0,3.2,0C374.8,155.5,373.8,155.2,372.7,155.1z"/>
	<path fill="none" d="M466.5,415c-0.9,0.5-1.7,0.6-2.4-0.2C465.1,413.5,465.7,415.2,466.5,415z"/>
	<path fill="none" d="M440,423.3c-0.7-0.3-1.3-0.5-0.8-1.7C439.8,422,440.3,422.4,440,423.3z"/>
	<path fill="none" d="M375.7,172.6c-0.7,0.7-1.1,0.3-1.5-0.2C374.9,172,375.3,172.2,375.7,172.6z"/>
	<path fill="none" d="M378.4,184.7c0.9-0.4,1.5-0.3,2.2-0.1C380.1,185.2,379.4,184.9,378.4,184.7z"/>
	<path fill="none" d="M394.4,198.7c0.6-0.4,1-1.1,2-1.1C396.4,199.4,395.2,198.6,394.4,198.7L394.4,198.7z"/>
	<path fill="none" d="M405.1,219.9c0,0.5,0,1,0,1.5C404.8,220.9,404.7,220.4,405.1,219.9z"/>
	<path fill="none" d="M382.4,655.8c0.7-0.6,1.2-0.2,1.9,0.1C383.6,656.2,383,656.4,382.4,655.8z"/>
	<path d="M779.3,609.6c-0.6-0.8-1.9-0.9-2-2.2c1.1-1.9,1.1-1.9,5.7-2.1c-1.6-1.2-3.6-1.8-4.1-3.9c0.1-1.2,1-1.9,2.1-1.5
		c3.9,1.7,8.2,1.7,12.3,2.7c0.6,0.1,1.1,0.4,1.3,1.2c-1.9,2-4.5,2.2-7.1,2.2c0.2,1.1,1.4,1.2,1.5,2.6c-1.2,1.5-3.1,1.7-5,1.4
		c-1.6-0.3-3.1-0.5-4.7-0.5L779.3,609.6z"/>
	<path d="M797.3,598.3c-0.5,1.1-1.2,1.5-1.8,1.6c-5,1.5-9.9,1.2-14.5-1.3c-1.9-1-1.9-1.5-1.1-4.2c3,0.2,5.6,2,8.7,2.2
		C791.4,596.9,794.4,596.8,797.3,598.3z"/>
	<path d="M779.2,609.5c1.1,0.5,2.3,1,3.4,1.5c1.2,0.6,2.4,1.2,2.9,2.8c-2.4,1.8-4.9,1.5-7.4,0.7c-1.3-0.4-2.3-1.2-2.2-2.6
		c0.1-1.5,1.1-2.2,2.5-2.3c0.3,0,0.7,0,1,0L779.2,609.5z"/>
	<path d="M808.2,602.9c-1,2.4-1.8,4.8-5,4.7c-1.6-0.1-3-1.5-3.4-2.9c-0.4-1.7,0.4-3.6,1.9-4.4C804.6,598.8,806.3,600.7,808.2,602.9z
		 M804.4,603.6c-0.3-0.8,1.2-0.8,0.7-1.6c-2.2-0.7-2.7-0.7-3.3,0.2c-0.6,0.9-0.7,2,0.1,2.8c0.8,0.9,1.8,1.5,3,0.8
		c0.5-0.3,0.9-0.6,0.9-1.3C805.3,604.1,804.5,604.3,804.4,603.6z"/>
	<path d="M802.4,610.4c0.1,2.1-1.8,4-3.8,4c-2.1,0.1-4-1.8-4-3.8c0-2.2,1.7-3.9,3.9-3.9C800.6,606.6,802.3,608.2,802.4,610.4z
		 M796,610.4c0.3,1.6,1.3,2.5,2.8,2.4c1.3,0,1.9-1,2.2-2.2c-0.3-1.6-1.3-2.5-2.8-2.4C796.8,608.2,796.2,609.2,796,610.4z"/>
	<path d="M758.9,459.3c2-0.2,2.6,0.6,2.6,1.8c0.1,3-0.5,5.8-3,8.4C757.6,465.7,757.6,462.5,758.9,459.3z"/>
	<path d="M794.3,617.9c-0.5,1.2,1.7,1.5,0.4,3c-2-1-3.7-2.6-5.5-4c1.9-4,2.4-4.3,5.5-3.4c0.1,0.3,0.4,0.7,0.5,1.1
		c0.1,0.4,0.2,0.9,0.2,1c0.7,1,1.8,0.3,2.2,1.1c0,0.5-0.3,0.6-0.6,0.7C796.2,617.7,795.2,616.9,794.3,617.9z M793,614.4
		c-1,0.2-1.5,0.8-1.8,1.7c0.3,0.6,0.8,1.1,1.6,1.2C793.5,616.4,794.7,615.6,793,614.4z"/>
	<path d="M773.6,617.2c2.9-2.1,4.9-1.5,6.3,1.7c-0.8,1.6-2.2,1.7-3.7,1.2C774.7,619.7,773.5,619,773.6,617.2z"/>
	<path d="M765.5,452.2c0.2,2.1-0.7,3.2-1.3,4.3c-0.4,0.7-1,1.3-1.8,1.4c-0.3,0-0.6-0.2-1-0.4C761.9,455.3,764.2,454.5,765.5,452.2z"
		/>
	<path d="M766.4,493.2c0.7-2.6,0-5.4,1.1-8C768.8,486.7,768.5,489.2,766.4,493.2z"/>
	<path d="M772.9,624.7c-1-0.9-0.9-1.8,0.3-2.6c1.2-0.2,2.2,0.2,3.3,1.2C775.4,624.3,774.4,625.2,772.9,624.7z"/>
	<path d="M759.6,472.3c1.1,3.3,1,3.7-1.1,4.9C759.8,475.8,758.3,473.9,759.6,472.3z"/>
	<path d="M766.9,500c1.4,1.6,1.3,3,1.2,4.6C766.7,503.4,766.4,502.2,766.9,500z"/>
	<path d="M777.5,572.1c1.2,1.1,1.8,2.3,0.7,3.9C776.6,574.9,777.2,573.5,777.5,572.1z"/>
	<path d="M776,560.9c0.7,1.2,0.7,2.2,0.2,3.4C775.3,563,775,562.1,776,560.9z"/>
	<path d="M776.1,565.4c1.1,1.1,1.5,2.1,1.4,4C776.4,567.9,776,566.8,776.1,565.4z"/>
	<path d="M775.6,557.8c-0.7-0.2-0.9-0.6-0.9-1c-0.1-0.5,0.1-0.9,0.5-1.1c0.6-0.1,0.7,0.4,0.8,0.8C776,556.9,776,557.4,775.6,557.8z"
		/>
	<path d="M774.9,549.5c0.5,1,0.5,1.7-0.4,2.6C773.6,550.9,773.7,550.1,774.9,549.5z"/>
	<path d="M792.2,485.4c1.1-2.8-0.4-5.1-1.1-7.6c-0.3-1.1-1.1-2.4,0.5-3.3c0.9,0,1.2,0.6,1.5,1.2c1.2,2.3,1.1,4.9,1.2,7.4
		C794.3,484.1,793.7,485,792.2,485.4z"/>
	<path d="M808.4,427.1c0.8,4.1,0.2,8.1-1.2,12.8C806.5,436.7,807.1,430.1,808.4,427.1z"/>
	<path d="M804.2,478.8c2.1,2.4,2.1,2.9,0.1,10.8c-0.7-0.6-0.5-1.5-0.5-2.2C803.8,484.7,804,482,804.2,478.8z"/>
	<path d="M793.6,487.4c0,0.6,0.2,1.3-0.1,1.7c-1.3,2-2.2,4.2-3.1,6.4c-0.2,0.5-0.5,1-1.2,0.9c-0.1-2.2,2.2-6.7,4.5-8.9L793.6,487.4z
		"/>
	<path d="M787.7,473.9c0.9,1.9,0.9,1.9-0.3,3.8C786.9,476,786.9,476,787.7,473.9z"/>
	<path d="M801.8,573.4c-1-1.9-0.6-3.2-0.5-4.5C802.6,570.1,802.7,571.3,801.8,573.4z"/>
	<path d="M806.6,441.3c0.6,1.6-0.9,2.8-0.8,4.2C805.3,443,805.3,443,806.6,441.3z"/>
	<path d="M808.6,420c0.3,1.9,0.3,3-0.1,4.4C807.5,423,807.5,423,808.6,420z"/>
	<path d="M805.2,493.9c-0.7-1-0.4-1.8,0.3-2.8C805.9,492.6,805.9,492.6,805.2,493.9z"/>
	<path d="M801.6,561c-1.2-0.5-0.8-1.1-0.3-1.7C802.4,559.7,801.6,560.4,801.6,561z"/>
	<path d="M801.4,566.2c-0.7-0.2-0.7-0.7-0.6-1.1c0.1-0.3,0.3-0.3,0.5-0.2C801.9,565.3,801.7,565.7,801.4,566.2z"/>
	<path d="M793.7,487.5c0.2-0.3,0.3-0.6,0.5-0.9c0.2-0.3,0.4-0.6,0.8-0.4C794.8,487.2,794.8,487.2,793.7,487.5L793.7,487.5z"/>
	<path d="M824,260.4c-0.6-3.9-1.1-7.5-1.7-11.7C825,252,825.8,258.2,824,260.4z"/>
	<path d="M819.8,292c0.4-2,0.6-4.2,2.2-5.6c1-0.2,1.4,0.2,2,0.8C823.4,289.7,821.7,291,819.8,292L819.8,292z"/>
	<path d="M819.7,292c0,1.1,0.6,2.3-0.9,3C818,293.6,819.2,292.9,819.7,292L819.7,292z"/>
	<path d="M820.4,243.7c-1-0.5-1.6-0.9-1.7-1.9C819.8,241.8,820.1,242.4,820.4,243.7z"/>
	<path d="M795.2,222.8c1,0.6,1.6,1.3,1.9,2.7C795.7,224.8,795.1,224.1,795.2,222.8z"/>
	<path d="M821.5,247.3c-0.3-0.4-0.6-0.6-0.7-0.9c-0.1-0.1,0-0.4,0-0.7C821.6,245.9,821.9,246.2,821.5,247.3z"/>
	<path d="M747.8,322.8c-1.3-2.3-0.5-4.3-0.3-6.3c-0.4-0.6-0.8-1.4-1.2-2.1c0.3-0.1,0.6-0.3,0.7-0.2
		C749.8,316,750.3,319.4,747.8,322.8z"/>
	<path d="M784.8,276.4c1.3-1.5,2.6-2.7,4.5-3.6C788.7,274.8,788.4,275.1,784.8,276.4z"/>
	<path d="M741.9,284.1c1.7,1.3,1,3,0.8,5C741.2,287.4,742.5,285.6,741.9,284.1z"/>
	<path d="M745.3,309.4c-0.7-1.7-1.1-2.7-0.7-4C745.7,306.5,745.7,307.7,745.3,309.4z"/>
	<path d="M742.8,294.8c-0.6-1.5-0.7-2.6-0.5-3.7C743.1,292,742.9,293.1,742.8,294.8z"/>
	<path d="M788.4,319.9c0.5,1.3,0.1,1.6-0.6,1.8C787.2,321,787.7,320.6,788.4,319.9z"/>
	<path d="M789.5,286.1c0.2,0.6-0.3,0.7-0.7,0.9C788.7,286.4,789.1,286.3,789.5,286.1z"/>
	<path d="M774.2,282.5c0.4-1,0.9-0.8,1.5-1C775.4,282.6,774.8,282.3,774.2,282.5z"/>
	<path d="M773.9,374.4c0.5-4.9,3.1-7.7,8.6-8.8c-1.1,0.7-2,1.3-2.9,1.9c-1.9,1.2-3.3,2.7-4.1,4.8C775.1,373.3,774.8,374,773.9,374.4
		L773.9,374.4z"/>
	<path d="M797.9,342.6c3.2-0.9,5.7-1.6,8.4-0.9C803.7,341.9,801.2,343,797.9,342.6z"/>
	<path d="M788,338.5c-1.6,1.2-3.4,1.8-5.9,1.4C784.2,338.8,786.1,338.7,788,338.5z"/>
	<path d="M776.2,361c-0.3,1.3-0.6,2.7-2.1,3.9C773.9,362.8,775.1,361.9,776.2,361z"/>
	<path d="M744.1,255.3c2.5-0.4,4.5,1.2,6.8,1.5c2.5,0.3,5,0.9,7.5,0.9c2.4,0,4.8-0.4,7.1-0.7c2.5-0.4,4.9-1,7.4-1.4
		c2.3-0.4,4.5-1.3,6.7-2c0.4,0.8-0.2,1-0.5,1.1c-6.4,2.8-12.8,5.3-20,5.4c-4.5,0-8.8-0.9-13-2.5C745.2,257.1,744,256.9,744.1,255.3z
		"/>
	<path d="M739,253.4c1.5-0.5,2.1-0.2,2.4,0.7C740.6,254.8,740.1,254.1,739,253.4z"/>
	<path d="M698.1,329.8c-2.3-1-2.4-1.3-1.1-3.4C699.4,327.7,699.4,327.7,698.1,329.8z"/>
	<path d="M371.1,641.6c-1.2,1.2-2.2,2.2-3.7,2.6c-1.1-1.8-1.1-1.8,1.4-3.9c1.2-3.6-2.4-6.5-1.5-10.3c1.9,1.8,1.1,4.4,2.6,6
		C371.4,637.7,369.6,640,371.1,641.6z"/>
	<path d="M355.2,554.8c1.8,3.1-0.1,6.1,0.1,9.2C353.7,561,353.8,557.9,355.2,554.8z"/>
	<path d="M356.3,577.9c-0.4-3.3-0.9-6.6-1.4-10.1c0.7,0.2,0.9,0.2,1.1,0.4c0.2,0.2,0.4,0.5,0.5,0.8c0.1,0.4,0.3,0.9,0.2,1.3
		c-0.6,2.5,0.7,5,0.5,7.5C356.9,577.9,356.6,577.9,356.3,577.9z"/>
	<path d="M342.8,519.9c-3.3-1.6-4.6-4-6.4-6.5C338.8,513.5,339.4,514.1,342.8,519.9z"/>
	<path d="M366.9,421.7c-1.6-0.7-1.9-2.3-2.4-3.5c-0.5-1.3-1.4-2.3-2-3.6C364.7,415.2,365.9,417,366.9,421.7z"/>
	<path d="M397.4,388c2.7-1.1,5.4-2.1,8.5-1.1C403,387.2,400.2,387.6,397.4,388z"/>
	<path d="M339.2,521.3c2.3,1.1,2.7,1.8,2.9,5.6C340.8,525.5,339.8,523.6,339.2,521.3z"/>
	<path d="M370,420.8c0.7-2.3,1.8-4.3,3.7-5.8C373,417.2,372.5,419.6,370,420.8z"/>
	<path d="M340.7,534.7c-0.7-2.6-1.4-4.5-0.2-6.3c0.6-0.2,1.1,0.2,1,0.6C341.4,530.6,341.5,532.4,340.7,534.7z"/>
	<path d="M359.5,426.8c2.7,0.2,5.5-0.4,8,1.1C364.7,428.2,362.2,427,359.5,426.8z"/>
	<path d="M388.3,383.5c-2.2,1.4-4.4,1.6-6.8,1.8C383.7,383.9,385.3,383.5,388.3,383.5z"/>
	<path d="M368.3,411.3c-0.6-2.7,1.7-3.6,3.3-4.8C370.5,408.1,369.4,409.7,368.3,411.3z"/>
	<path d="M359,544.8c-0.3,2.1-0.6,3.2-1.7,4.5C356.6,547.4,357.2,546.3,359,544.8z"/>
	<path d="M345.1,519.3c1.6-0.3,2.7-0.3,3.8,0.5C347,520.5,347,520.5,345.1,519.3z"/>
	<path d="M366,625.7c0.9,0.6,1.3,1.3,0.7,2.3C365.7,627.4,365.5,626.7,366,625.7z"/>
	<path d="M342.1,536.5c0.6,0.2,0.9,0.5,0.7,1c-0.1,0.3-0.5,0.4-0.7,0.2C341.6,537.4,341.7,537,342.1,536.5z"/>
	<path d="M411.5,381.1c-0.7,0.8-1.6,0.5-2.4,0.3C410,381.4,410.8,381.3,411.5,381.1L411.5,381.1z"/>
	<path d="M411.6,381.2c0.5-0.6,1.2-0.6,1.9-0.5C412.9,381.3,412.2,381,411.6,381.2L411.6,381.2z"/>
	<path d="M386.1,522c2.8,2.3,2.9,3.9,1.2,8.2c0.2,1.1,0.8,2.1,1.4,3c0.5,0.8,1.4,1.5,1.2,2.6c-2.7-0.6-5-3.4-4.2-5.7
		C386.5,527.6,386.3,525.1,386.1,522z"/>
	<path d="M402.7,547.8c1,0.1,1.3,0.5,1.5,0.9c0.2,0.5,0.6,1,0.6,1.6c0.5,4.7,1.2,9.3,2.3,14.6c-3.2-2.8-1.8-6.1-2.7-8.7
		C403.5,553.7,403,550.8,402.7,547.8z"/>
	<path d="M413.7,630.2c-0.4,5.5,1.2,10.1,0.3,14.9c-1.6-2.1-1-4.7-1.6-7C411.7,635.6,412.1,633.2,413.7,630.2z"/>
	<path d="M391.9,509c-0.2,1.9,0.3,3.6,0.7,5.4c0.3,1.4,0.4,2.7-1.6,4.1C392.4,514.9,390,511.9,391.9,509z"/>
	<path d="M402.9,541.5c0-2.7,0-5.1,0-7.8c1.8,1.2,1.1,2.6,1.1,3.8C404.1,538.8,403.9,540.1,402.9,541.5z"/>
	<path d="M409.6,462.8c0-0.4-0.1-0.9,0-1.3c0.2-1.4,0.5-2.9,1.1-4.3C411.4,459.2,410.7,461.1,409.6,462.8z"/>
	<path d="M412.8,624.5c0.8,1.2,0.7,1.9,0.1,3C412.3,626.4,412.4,625.7,412.8,624.5z"/>
	<path d="M407.1,473.1c-0.3-0.7-0.5-1.4,0.3-2.1C408.1,471.8,408.1,472.4,407.1,473.1z"/>
	<path d="M412.6,610.1c0.4,1.1,0.4,1.6-0.3,2.1C411.4,611.4,412.1,611,412.6,610.1z"/>
	<path d="M412.8,619.6c0.5,0.1,0.8,0.4,0.5,0.9c-0.1,0.1-0.5,0.3-0.5,0.2C412.4,620.4,412.4,620,412.8,619.6z"/>
	<path d="M413,325.4c0.7-1.8,1.7-3.3,3.8-4.6C416.4,323.6,414.5,324.3,413,325.4z"/>
	<path d="M431.7,396.1c1.3,1.6,2,2.9,2.3,4.5C432.3,399.4,432.3,399.4,431.7,396.1z"/>
	<path d="M412.7,327.6c1.1,1.3,0.5,2-0.5,2.9C411.5,329.3,411.6,328.5,412.7,327.6z"/>
	<path d="M438.9,400.5c0.3,1.4-0.6,1-1.2,1.3C437.7,400.8,438.3,400.8,438.9,400.5z"/>
	<path d="M432.1,403.9c0.3,1.2-0.3,1.5-0.9,1.9C430.6,404.9,431.2,404.4,432.1,403.9z"/>
	<path d="M347.4,367.6c-0.9-2.2-0.2-4.1-0.2-5.8c0-1.2-1-1.7-1.2-2.4c0.3-0.6,0.6-0.4,0.9-0.2C349.8,361,350.2,364.7,347.4,367.6z"
		/>
	<path d="M342.6,338.1c-1.1-2.8-0.7-5.8-0.9-9c1.1,0.8,1.5,1.8,1.2,2.7C342.1,333.9,342.3,335.9,342.6,338.1z"/>
	<path d="M384.8,321.3c1.1-1.4,2.3-3,5.1-3.4C388.2,319.9,386.5,320.6,384.8,321.3z"/>
	<path d="M344.9,354.5c-0.4-1.8-0.7-2.7-0.2-4C345.3,351.7,345.4,352.7,344.9,354.5z"/>
	<path d="M388.3,365.3c0,0.3,0.1,0.6,0,0.9c-0.1,0.3-0.4,0.5-0.8,0.4C386.9,365.9,387.8,365.6,388.3,365.3z"/>
	<path d="M379.8,298.5c-3.5,2.2-7.3,3.7-11.2,4.9c-7.2,2.1-14.4,1.9-21.5-0.5c-1.2-0.4-2.7-0.7-3.3-2.1c0.6-1.4,1.6-0.7,2.4-0.5
		c3,1.1,6.1,1.8,9.3,2.1c3.2,0.3,6.4,0.1,9.5-0.5C369.9,300.8,375,300.3,379.8,298.5z"/>
	<path d="M341.4,299.2c-0.9,0.6-1.4-0.1-2-0.6c0.2-0.8,0.8-0.4,1.3-0.4C341.2,298.3,341.5,298.6,341.4,299.2z"/>
	<path d="M384.1,296.5c0.9-0.5,0.9-0.5,1.6-0.2C385.5,296.9,385,296.8,384.1,296.5z"/>
	<path d="M410.4,665.2c1.7-2.7,3.2-3.5,5.4-2.9c2.2,0.6,2.8,2.2,2.5,6.6c-5,1.6-5.6,1.4-7.9-2c-2.8,3.3-5.2,3.9-7.3,1.9
		c-1.7-1.7-1.6-4.1,0.3-5.7C405.7,661.3,408.1,662.1,410.4,665.2z M408.4,665.9c0-1.3-1-2.3-2.4-2.3c-1.3,0-2.4,1.1-2.4,2.3
		c0,1.3,1.3,2.6,2.6,2.5C407.5,668.4,408.4,667.3,408.4,665.9z M417,665.9c0-1.5-0.9-2.3-2.5-2.3c-1.3,0-2.1,0.8-2.2,2.1
		c-0.1,1.5,0.5,2,2.7,2.5c0.5-0.6-0.4-1.3,0.1-1.8C415.6,665.8,416.5,667,417,665.9z"/>
	<path d="M395.1,663.1c2.3,0.1,4.4-0.9,6,1.2c0.7,0.9,0.4,1.7-0.8,3.6c-0.2,0.9,1.3,1.4,0.6,2.4c-1.7,0.2-1.8-2-3.1-2.2
		c-1.7,0.1-0.4,2.2-2.1,2.5C394.6,668.4,395.3,665.9,395.1,663.1z M400.1,665.4c-1.1-1.2-2.1-1.1-3.1-0.7c-0.3,0.6-0.3,1,0,1.6
		C397.9,666.4,399,666.9,400.1,665.4z"/>
	<path d="M383.4,668.7c-2.9,1.9-5,1.8-8.2-0.6C378,668,380.4,667.7,383.4,668.7z"/>
	<path d="M288.9,407.4c0.9-1.5,1.8-1.5,2.7-0.7c0.9,0.8,1.1,1.6,0.1,2.5C290.1,409.7,289.6,408.5,288.9,407.4z"/>
	<path fill="none" d="M804.4,603.6c0.2,0.7,0.9,0.5,1.3,0.9c0,0.7-0.4,1-0.9,1.3c-1.2,0.6-2.2,0.1-3-0.8c-0.7-0.9-0.7-1.9-0.1-2.8
		c0.6-0.9,1.1-0.9,3.3-0.2C805.6,602.8,804,602.8,804.4,603.6z"/>
	<path fill="none" d="M796,610.4c0.2-1.2,0.8-2.2,2.1-2.2c1.6,0,2.5,0.9,2.8,2.4c-0.2,1.2-0.8,2.2-2.2,2.2
		C797.3,612.9,796.3,612,796,610.4z"/>
	<path fill="none" d="M793,614.4c1.7,1.2,0.5,2-0.2,2.9c-0.9-0.1-1.3-0.5-1.6-1.2C791.5,615.2,792,614.6,793,614.4z"/>
	<path fill="none" d="M408.4,665.9c0,1.4-0.9,2.4-2.2,2.5c-1.4,0.1-2.7-1.1-2.6-2.5c0-1.2,1.1-2.3,2.4-2.3
		C407.3,663.6,408.3,664.6,408.4,665.9z"/>
	<path fill="none" d="M417,665.9c-0.5,1.1-1.4-0.1-1.8,0.6c-0.6,0.6,0.4,1.3-0.1,1.8c-2.3-0.5-2.9-1.1-2.7-2.5
		c0.1-1.3,0.9-2.1,2.2-2.1C416.1,663.6,417,664.4,417,665.9z"/>
	<path fill="none" d="M400.1,665.4c-1.1,1.5-2.2,1-3.1,0.9c-0.4-0.6-0.4-1.1,0-1.6C397.9,664.4,398.9,664.3,400.1,665.4z"/>
</g>
</svg>
