<?xml version="1.0" encoding="utf-8"?>
<!-- Generator: Adobe Illustrator 20.0.0, SVG Export Plug-In . SVG Version: 6.00 Build 0)  -->
<svg version="1.2" baseProfile="tiny" id="Layer_2" xmlns="http://www.w3.org/2000/svg" xmlns:xlink="http://www.w3.org/1999/xlink"
	 x="0px" y="0px" viewBox="0 0 900 600" xml:space="preserve">
<g>
	<path d="M416.2,29.5c-1.4-0.5-1.5-1.6-1.4-2.8l-0.1,0.1c0.7-0.2,0.8-0.8,0.8-1.4c0-1.8-0.1-3.6-0.2-5.3c-0.1-1.9-0.3-3.8-0.4-5.7
		c0-1,0.3-2,0.5-2.9c0.9-0.5,1.2,0,1.7,0.4c0.4,0.4,0.4,1.1,1.2,1c-0.1-3.6-0.1-3.6,2.3-5.3c1.7,0.5,2,2.2,2.9,3.3
		c1.1,0.3,2.1,0.6,3.1,0.9c0.2,0.1,0.3,0.3,0.7,0.6c0,1.9,0.8,3.7,1.7,5.5c0.5,1.1,0.9,2.2,1.1,3.4c0.2,2,0.9,3.9,1.8,5.7
		c0.5,1.1,0.8,2.2,1.1,3.4c0.4,1.6,0.7,3.2,1.2,4.8c0.1,0.3,0.4,0.5,0.9,1c0.3-0.6,0.8-1.1,0.7-1.6c-0.3-1.7-0.6-3.5-1.2-5.2
		c-0.7-1.7-1-3.4-0.9-5.4c0.6-0.1,1.3-0.4,1.9-0.2c1.8,0.6,3.1,1.6,3.4,3.7c0.5,2.8,1.1,5.6,1.7,8.6c2.5,1.9,3.3,5.1,4.9,7.9
		c0.3,0.5,0.2,1.1,0.2,1.7c0.1,1.8,0.1,3.5,0.2,5.3c0,1.4,0.2,2.8,0.1,4.3c-0.2,3.8,0,7.6,0.7,11.3c0.2,1,0.4,2.1,0.7,3.1
		c1.3,4.2,2.7,8.4,4,12.5c1.2,3.7,2.5,7.4,3.3,11.2c0.7,3.1,1.9,6.1,3,9.1c2,5.5,3.7,11,4.8,16.7c0.3,1.4,0.7,2.8,1.1,4.1
		c2,6.5,3.5,13.1,4.6,19.7c0.6,3.6,0.8,7.3,0.1,11c-0.2,1,0,2.1,0,3.3c1.3,1,2.6,1.8,4.2,2.3c0.8,0.2,1.6,0.5,2.2,1
		c3.9,2.8,6.9,6.1,8,10.9c0.9,4,2,8,3,12.1c0.6,2.2,0.5,4.4,0,6.7c-0.3,1.3-0.9,2.4-1.8,3.4c-0.6,0.6-1.1,1.2-1.6,1.9
		c0.7,0.3,1.2,0.5,1.9,0.9c-0.8,0.5-1.5,0.9-2.3,1.4c0,3.1,1,6,2.4,8.7c0.3,0.6,0.7,1.3,0.7,2c0.1,1.6-0.4,3.1-2,3.8
		c-0.7,0.4-1.5,0.7-2.5,1.1c-0.1,0.7-0.4,1.5-0.2,2.3c0.4,2,0.1,3.8-1.8,4.8c0.7,3.1,0.7,3.1-1.3,5.7c0.1,0.6,0.3,1.3,0.4,2
		c0.4,3.2-1.4,5.6-4.5,6.1c-1.2,0.2-2.4,0.2-3.5,0.3c-0.5,0-0.9,0.1-1.4,0.2c-0.6,1.7,0.4,3.1,0.5,4.5c0.2,1.5,0.8,3,1.6,4.3
		c2.8,4.6,3.6,5.6,9.1,9.8c2.3,1.8,5,3.3,6.9,5.6c0.1,0.2,0.3,0.4,0.5,0.4c2.4,0.3,3.8,2.3,5.5,3.7c2.2,1.8,4.3,3.7,6.7,5.2
		c2.5,1.6,4.2,3.9,5.1,6.7c2.5,7.5,2.2,14.9-1.2,22.1c-0.9,1.9-2.2,3.6-3.9,5c-1.2,1-2.1,2.2-3.5,3.7c0.1,1.4,0,3.3,0.3,5.2
		c0.9,5.6,1.9,11.2,2.9,16.8c0.3,1.8,0.4,3.4-0.1,5.3c-0.7,2.6-1,5.4-1.5,8c-0.4,2.1-1.2,4.1-2.2,6c-0.6,1.3-1.1,2.6-1.4,4
		c-0.4,2.7-0.6,5.4-0.9,8.1c-0.2,2.1-0.4,4.2-0.6,6.4c-0.4,3.8-0.8,7.5-1.5,11.3c-0.9,5-2.8,9.8-4.9,14.4c-0.1,0.2-0.4,0.3-0.6,0.4
		c-0.1-0.3-0.4-0.6-0.3-0.9c0.2-1.5,0.4-3.1,0.9-4.5c1.3-3.7,1.9-7.6,2.6-11.4c0.4-2.5,1-4.9,1.3-7.3c0.6-3.9,1.2-7.7,1.6-11.6
		c0.4-4.5,1.5-8.9,2.7-13.2c0.9-3.2,1.6-6.4,2.1-9.7c0.4-2.6,0.4-5.2-0.3-7.8c-0.5-1.8-0.7-3.7-1-5.6c-0.1-0.6-0.3-1.1-0.5-1.7
		c-1.5,0.2-2.9,0.4-4.3,0.7c-2.5,0.5-5,0.5-7.4,0.2c-3-0.5-5.9-0.3-8.9-0.1c-8.3,0.6-16.6,1.2-24.8,1.7c-3.7,0.2-7.3,0.4-11,0.7
		c-5.5,0.4-10.7,2-16.2,3.2c0.2,0.7,0.2,1.3,0.4,1.8c2.8,5.3,4.2,11.1,6.3,16.6c1.7,4.5,2.1,9.2,2,14c-0.1,2.3-0.9,4.4-2,6.4
		c-2.4,4.4-4.8,8.7-7.3,13c-3.4,6-6.6,12-8.9,18.6c-0.2,0.6-0.3,1.1-0.5,1.7c0,0.1,0.1,0.2,0.1,0.3c0.2,0.1,0.4,0.2,0.6,0.2
		c3.6-1.4,7.4-1.9,11.2-2c7.8-0.2,15.7-0.2,23.5-0.3c0.7,0,1.4,0.1,2.2,0.5c-0.7,0.2-1.3,0.4-2,0.4c-2.8,0.2-5.7,0.4-8.5,0.5
		c-1.1,0.1-2.1,0-3.2,0.1c-4.1,0.2-8.3,0.4-12.4,0.6c-3.6,0.2-7.1,0.6-10.4,2c-0.6,0.3-1.3,0.6-1.9,1c-1,2.1-1.3,4.3-1.2,6.6
		c0,6.6,0.1,13.3,0.3,19.9c0,1.2,0.2,2.4,0.6,3.5c2.9,7.9,7.5,14.5,14.5,19.3c3.1,2.1,8.2,3.7,11.9,3.9c-0.8-2.7-0.8-2.7-0.1-6.1
		c0.5-2.6,0.8-5.2,1.5-7.7c1-3.9,2.3-7.7,3.5-11.6c1.6-5.1,4.2-9.8,7-14.3c2-3.2,4.1-6.4,6.4-10c-0.3-0.1-0.8-0.3-1.2-0.5
		c1.5-3.1,4.5-4,6.9-5.6c-0.4-0.7-1-0.4-1.5-0.4c-2.1,0.1-4.3,0.2-6.4,0.3c-2.6,0.1-5.2,0.3-7.8,0.3c-3.7,0.1-7.3,0.7-10.9,1.7
		c-0.8,0.2-1.6,0.3-3.1,0.5c1.1-0.9,1.4-1.3,1.9-1.5c2.8-1.1,5.6-1.8,8.7-1.6c2.4,0.2,4.7,0.3,7-0.5c0.3-0.1,0.7-0.1,1.1-0.1
		c8.4,0,16.8-1.3,25.2-1.7c7.2-0.3,14.5-0.5,21.7,0.1c4.5,0.4,9,0.6,13.5,0.9c6.6,0.6,13.2,1.2,19.8,1.9c4.4,0.5,8.7,1.1,13.1,1.6
		c10,1.2,19.3,4.6,27.9,10c2,1.3,3.9,2.7,5.7,4.2c1.1,0.9,1.9,2.1,2.2,3.5c0.9,3.6,1.3,7.2,0.6,10.9c-0.2,1-0.1,2.1,0,3.1
		c0.8,6.2,0.3,12.3-0.7,18.4c-0.1,0.6-0.2,1.2-0.5,1.7c-1.4,2.4-1.3,5-1.2,7.6c0.2,4.7,0.4,9.5,0.6,14.2c0.2,3.1-0.3,6.1-0.9,9.1
		c-0.8,3.9-1.8,7.8-1.9,11.9c0,3.3-1.1,6.5-2.2,9.7c-0.4,1.1-0.8,2.2-1.2,3.3c-0.3,0.9-0.6,1.8-0.7,2.7c-0.9,8.2-0.6,16.3,2.4,24.2
		c0.1,0.3,0.2,0.7,0.4,1c0.1,0.2,0.3,0.4,0.5,0.7c1.2,0.1,2.4,0.3,3.4,0.4c1.7,2,3.2,3.8,4.8,5.6c0.9,0.9,2.3,1.5,2.8,2.5
		c0.7,1.3,1.7,2.3,2.5,3.4c0.8,1,1.7,2,2.4,3.1c1.1,1.7,2.6,3,4.4,4c1.6,0.9,3.1,1.7,4.7,2.4c2.6,1.2,5.1,2.4,7.6,3.9
		c3,1.8,6.4,2.3,9.8,2.9c1,0.2,2.1,0.3,3.2,0.4c2,0.2,3.9,0.6,5.2,2.6c0.5,0.8,1.8,1.1,2.6,1.8c1.3,1.2,2,2.6,0.9,4.4
		c-0.2,0.3-0.4,0.7-0.3,0.9c0.9,1.4,0,2.6-0.6,3.7c-2.5,4.5-5.8,8-10.7,9.9c-2.5,1-5.1,1.8-7.5,3.3c-1.9,1.2-4.2,1.5-6.5,1.5
		c-4.4,0.1-8.7-0.7-13-1.8c-5.6-1.5-11-3.5-16.3-5.9c-2.9-1.4-6.2-1.7-9.4-1.2c-4.4,0.8-8.7,0.5-13-0.9c-2.4-0.8-4.8-1.5-7.1-2.4
		c-3.6-1.4-6.8-3.4-8.6-7.1c1.9-5.2,2-10.6,2.1-16c0-1.4-0.1-2.8-0.7-4.1c-1.2-2.7-1-5.3,1.2-7.5c0.3-0.2,0.6-0.5,0.7-0.8
		c1.2-3,3.7-4.5,6.5-6c0.1-3.6,0.1-7.3-0.1-10.9c-0.2-3.4-0.4-6.9-0.5-10.3c0-0.7-0.1-1.5,0.2-2.1c0.7-1.5,0.4-3,0.2-4.5
		c-0.8-4.8-2.2-9.5-3.6-14.1c-1.3-4.4-2.7-8.8-3.5-13.4c-1.5-8.7-1.2-17.2,1.5-25.7c1.5-4.7,3.6-9,6.7-12.8c0.3-0.4,0.5-0.8,0.7-1.1
		c-0.1-0.9-0.7-1.1-1.2-1.2c-2.7-0.3-5.4-0.5-8.1,0.3c-3.5,1.1-7.1,2-10.5,3.3c-3.7,1.3-7.4,2.4-11.3,3c-4.3,0.7-8.6,1.9-12.8,2.8
		c-9.3,1.9-18.6,3.7-27.9,5.6c-0.2,0-0.4,0.2-0.8,0.4c-0.2,0.5-0.5,1.1-0.7,1.8c-1.9,4.9-4.9,9.2-8.2,13.3
		c-6.3,7.6-12.5,15.3-19,22.6c-4.1,4.6-8.7,8.8-13.3,12.8c-3.6,3.1-7.5,5.7-11.3,8.6c-0.5,0.4-1,0.7-1.4,1.1c-2,2-4.6,2.3-7.3,2.3
		c-2-0.1-3.6-1.3-5.1-2.3c-4.3-2.9-8.5-6-12.9-8.8c-4.5-2.9-9.2-5.4-14.3-7.2c-6.7-2.3-13-5.2-18.5-9.6c-1.7-1.4-3.6-2.6-4.7-4.7
		c-0.4-0.8-1.3-1.4-2-1.9c-3-2.3-6.1-4.5-9.2-6.7c-2-1.4-4.3-2.6-6.2-4.1c-2.8-2.2-6-3.1-9.5-3.9c-1.2,2.5-3.2,4.1-5.3,5.7
		c-3.3,2.6-3.7,6.2-3.6,9.9c0.1,1.8,1.1,3.1,2.3,4.3c1.4,1.3,2.8,2.5,4.2,3.8c0.4,0.4,0.8,0.9,1.1,1.2c0.3,2.9-0.6,5.3-2.4,7.3
		c-0.6,0.7-1,1.6-1.6,2.7c-0.8,0.2-1.8,0.6-2.9,0.6c-5.4,0.2-10.9,0.5-16.2-1.2c-1.6-0.5-3.1-1.1-4.9-1c-0.7,0-1.4-0.3-2-0.6
		c-3.5-1.8-5.8-4.8-7.9-8c-0.5-0.7-0.6-1.8-0.6-2.7c0-2,0.1-4,0.2-6c0-0.9,0.2-1.9,0.3-2.8c0.2-2.6,0.4-5.2-1-7.6
		c-0.5-0.9-0.7-2-0.9-3c-0.9-3.4-2.4-6.7-4.3-9.7c-1.9-3-3.1-6.2-2.8-9.7c0.1-1.3,0.4-2.6,0.7-3.8c0.2-1.2,0.5-2.3,0.8-3.5
		c0.5-2,1.3-3.7,3.4-5.2c-0.1,0.9,0,1.4-0.2,1.7c-0.9,1.3-1.3,2.7-1.5,4.3c-0.1,1.1-0.5,2.1-0.7,3.1c-1.1,4.6-0.4,8.9,2.4,12.8
		c0.4,0.6,0.7,1.3,1.2,1.7c3,2.7,3.8,6.5,4.9,10.1c0.5,1.5,0.4,3.3,0.4,4.9c-0.1,4.5-0.3,9-0.7,13.5c-0.3,3.5,1.7,5.3,4.4,6.6
		c4.3,2.1,9,3,13.7,3.4c1.2,0.1,2.4,0.1,3.5,0.5c2.6,1,5.1,0.7,7.8,0.2c1.3-1.4,2.8-2.8,4.1-4.3c1.1-1.3,1-2.4,0.1-3.5
		c-1.9-2.4-3.9-4.7-5.9-7.1c-1,0.4-1.9,1-2.9,1.2c-0.8,0.2-1.7,0.1-2.4-0.1c-0.4-0.1-0.9-0.8-1-1.3c-0.2-0.6,0.4-1.1,1-1.2
		c1.4-0.4,2.7-0.7,4.3-1.1c0.1-0.7,0.2-1.4,0.2-1.9c-0.4-0.2-0.6-0.4-0.7-0.4c-1.5,0.1-3.1,0.4-4.6,0.4c-0.7,0-1.5-0.1-2.1-0.4
		c-0.5-0.2-1-0.8-1-1.3c0-0.4,0.5-1,0.9-1.4c0.4-0.3,1-0.4,1.5-0.6c-0.9-0.7-1.7-1.4-2.5-2.1c-0.2-0.2-0.2-0.7,0-1
		c0.1-0.3,0.6-0.6,0.8-0.5c0.8,0.1,1.7,0.2,2.4,0.5c1.6,0.6,3.2,0.6,5.7,0.3c-1.3-0.4-1.9-0.6-2.4-0.7c-1.8-0.6-3.6-1.1-5.4-1.7
		c-0.5-0.2-1-0.7-0.7-1.4c0.3-0.6,0.8-0.9,1.4-0.8c0.3,0,0.7,0.1,1,0.2c0.8,0.2,1.6,0.5,2.4,0.8c3.5,1.6,6.4,0.5,9.1-1.9
		c0.1-0.1,0-0.2,0.1-0.5c-0.8-0.1-1.6-0.2-2.4-0.3c-2.8-0.3-5.2-1.4-7.3-3.3c-4.7-4.1-8.5-8.9-10.4-15c-0.1-0.4-0.4-0.9-0.6-1.2
		c-0.3-0.4-0.7-0.6-1-0.9c0-1.8,0.7-3.1,2.1-4c1-0.7,1.6-1.6,2-2.8c0.6-2,1.9-3.6,4.5-3.4c0.2,0.6,0.5,1.2,0.7,1.9
		c0.5,0.1,0.8-0.2,0.8-0.7c-0.1-1.2-0.6-2.1-1.8-2.4c-1.9-0.6-3.9-1.1-5.8-1.5c-1.3-0.2-2.6,0.3-3.6,1.1c-1.5,1.2-3.1,1.3-5,1.3
		c-2.6-0.1-5.2,0.5-7.8,0.7c-0.4,0-0.8-0.1-1.6-0.3c1-1,1.8-1.3,2.7-1.4c1.9-0.2,3.8-0.3,5.7-0.5c0.9-0.1,1.8-0.4,2.7-0.6
		c0.2-0.1,0.4-0.2,0.6-0.3c3.6-1.7,7.3-1.8,11.1-0.5c3.3,1.1,4,2,3.9,5.8c3.4,1.6,7,2.7,10.6,3.9c8,2.7,16.2,4.6,24.4,6.4
		c2.4,0.5,4.8,1.2,7.3,1.7c2,0.4,3.9,0.8,5.9,1.2c1.6,0.4,3.2,0.8,4.8,1.2c6.7,1.9,13.2,4.5,19.7,7c4.5,1.8,7.9,4.7,11,8.2
		c1.9,2.2,3.9,4.5,5.9,6.7c0.5,0.5,1,1,1.5,1.5c1.6-1.6,2.3-3.4,2.7-5.5c1.2-7.4,3.3-14.6,6.2-21.5c0.9-2.2,2-4.3,3.1-6.4
		c0-0.2,0-0.5-0.2-0.7c-2.7-3.3-4.9-7-7.3-10.5c-2.5-3.7-3.7-7.7-3.9-12c-0.3-7.5-0.2-14.9,1.4-22.3c0.8-3.7,1.8-7.3,3.2-10.8
		c2.4-6.1,5.7-11.7,8.9-17.4c2.6-4.7,4.9-9.4,7.4-14.2c0.6-1.1,0.7-2.2,0.6-3.4c-0.5-6.8-1.8-13.4-4.2-19.8
		c-1.6-4.2-3.4-8.3-5.1-12.5c-1-2.5-2.2-5-2.6-7.7c-0.1-1-0.9-1.9-1.4-2.9c-1.4-2.5-2.9-4.9-4.3-7.4c-0.4-0.7-0.8-1.4-1.8-1.6
		c-0.4-0.1-0.8-0.8-1.2-1.2c-1.7-2.6-3.1-5.3-4.4-8.1c-1-2.4-1.7-4.9-3.4-7c-1.1-4.1-3.5-7.8-3.2-12.3c-1.4-0.8-1.8-2.4-2.2-3.8
		c-0.6-2.4-1.1-4.9-1.6-7.3c-0.3-1.3-0.6-2.5-1.7-3.4c-0.6-0.5-0.8-1.4-1.1-2.2c-0.8-2.5-0.9-5.1-1-7.7c-0.4-9.1,1-18,3.5-26.7
		c0.5-1.7,0.7-3.5,1-5.2c1.7-9.7,2.8-19.5,5.6-29c1-3.4,1.8-6.9,2-10.5c0.2-4.1,0.3-8.3-0.6-12.4c-1.3-5.6-2.1-11.2-1.8-16.9
		c0.2-4,0-8.1-0.1-12.1c-0.1-4.1,0.4-8,1.2-12c1-5.4,1.8-10.8,3.1-16.1c1.6-6.4,2.3-12.8,3.3-19.3c0.1-0.8,0.2-1.7,0.1-2.5
		c-0.8-5.1-0.5-10.2-0.7-15.3c-0.1-2.8-0.2-5.7-0.4-8.9c0.1-0.1,0.4-0.5,0.7-1c2.1-3.6,2-3.6,1.2-7.7c-0.9-4.9-3.3-9.1-5.4-13.5
		c-0.6-1.3-1.6-2.3-2.5-3.4c-3.3-4.2-6.7-8.3-10-12.5c-0.9-1.2-1.7-2.5-2.5-3.7c1-1.5,2.3-1.7,3.5-1.1c1.5,0.7,2.9,1.6,4.3,2.5
		c0.7,0.4,1.4,0.9,2.4,1.6c-0.2-3.6-1.2-6.7-1.7-9.8c0.7-1.3,1.8-0.5,2.6-1.1c2.4,2.5,3.4,5.6,4.2,8.6c0.4,1.5,0.9,2.8,1.9,4.1
		c1.1,1.4,1.6,3.4,3,4.8c-0.3,0-0.7,0.1-0.8-0.1c-0.9-0.9-1.8-1.8-2.6-2.9c-1.4-2.1-2.4-4.3-3.3-6.7c-0.6-1.7-1.2-3.3-1.9-5
		c-0.2-0.5-0.6-0.9-1-1.6c-0.3,0.5-0.7,0.8-0.6,1c0.4,3.2,0.8,6.3,1.3,9.5c0.2,1.2,0.6,2.3,1.6,3.1c1.5,1.2,2.9,2.4,4.4,3.6
		c0.3,0.3,0.6,0.6,1.1,1.3c-0.8-0.1-1.1-0.1-1.4-0.2c-1.1-0.7-2.2-1.3-3.3-2.1c-0.6-0.4-1.2-0.8-1.6-1.3c-2.8-3.3-6.5-5.4-9.7-8.3
		c-0.2-0.2-0.6-0.2-1.1-0.3c0,0.4-0.1,0.8,0.1,1c1.3,1.5,2.6,3.1,4,4.5c2.9,2.7,5.4,5.7,7.8,8.8c0.9,1.1,1.8,2.3,2.3,3.6
		c2.2,4.9,4.9,9.5,6.7,14.5c0.4,1.2,0.8,2.5,1,3.8c0.1,0.8,0,1.6,0,2.5c-2.2,1.6-2.7,3.6-2.3,6.2c0.6,3.6,1,7.3,1.3,10.9
		c0.4,4.3,0,8.5-0.9,12.7c-0.5,2.4-0.7,4.9-1,7.4c-0.3,2.8-0.5,5.7-0.8,8.5c-0.1,1.1-0.3,2.2-0.7,3.1c-1.6,3.8-2.1,7.8-2.7,11.7
		c-0.4,2.7-1.1,5.3-1.6,8c-0.3,1.6-0.6,3.3-0.7,4.9c-0.1,3.3-0.1,6.6,0,10c0,0.9-0.1,1.9,0.2,2.8c0.9,3,0.7,6.1,0.4,9.2
		c-0.2,2.3,0,4.5,0.6,6.7c0.7,2.4,1.3,4.8,1.9,7.3c1.2-0.9,1.3-2.7,3.1-3c0.8,1.8-0.2,3.4-0.6,5.1c-0.6,0.3-1.3,0.6-1.8,0.9
		c-1,7.2-2,14.4-3,21.5c-0.2,1.6-0.5,3.3-1,4.9c-1.5,4.8-2.3,9.7-3.2,14.6c-0.2,1-0.4,2.1-0.7,3.1c-1.6,4.1-2.2,8.5-3.1,12.7
		c-0.9,4.2-1.6,8.4-2.3,12.6c-0.6,3.3-0.3,6.6-0.2,9.9c0,0.8,0.4,1.6,0.7,2.3c0.5,1.3,1.2,2.6,1.6,3.9c1.6,4.3,3.2,8.7,4.7,13.1
		c0.9,2.6,1.5,5.2,2.1,7.9c0.4,1.9,0.9,3.7,1.8,5.4c1.7,3.4,3.3,6.8,5,10.2c1.5,2.8,3.1,5.6,4.8,8.3c2,3.3,5.2,4.4,8.8,4
		c4.2-0.5,7.8-2.2,9.9-6.1c1.5-2.8,3-5.7,4.2-8.6c3.1-8,5-16.3,5.5-24.9c0.2-3.3,0.5-6.6-0.1-9.9c-0.6-3.5-1.8-6.9-3.2-10.2
		c-0.4-0.8-1.1-1.5-1.7-2.2c-1.2-1.4-2.5-2.8-3.8-4.3c-1.3-1.5-2.2-3.3-4.2-4.3c-0.8-0.4-1.4-1.6-1.8-2.6c-0.8-1.8-1.4-3.8-2-5.7
		c-0.1-0.3-0.4-0.5-0.6-0.8l0.1,0.1c-0.4-2.2-0.7-4.4-1.1-6.6c-0.6-3-0.9-6.1-0.6-9.2c0.4-4.2,0.9-8.5,1.6-12.7
		c0.9-5.7,1.2-11.5,1.6-17.3c0.3-4.1,0.6-8.3,0.9-12.4c0.5-6.1,0.9-12.3,0.5-18.5c-0.4-6.5-0.6-13-0.9-19.5
		c-0.2-3.4-0.6-6.8-0.1-10.3c0.1-0.8-0.1-1.6-0.3-2.5c-1.9-10.1-2.3-20.2-2.8-30.4c-0.2-4.2-0.3-8.3,0.4-12.4
		c0.2-1.5-0.1-3.1,0.2-4.6c0.7-3,1.4-6,2.5-8.9c0.7-1.7,2-3.3,3.4-4.5c2.7-2.4,4.1-5.3,4.9-8.8c0.4-1.8,0.9-3.6,0.8-5.5
		c-0.2-1.7,0.5-3.3,1.6-4.6c0.7-0.8,1.4-1.6,2.3-2.6c-0.7-0.2-1.1-0.5-1.4-0.4c-0.9,0-1.6,0.4-2,1.2c-0.7,1.6-2,2.6-3.1,3.8
		c-1.2,1.3-2.6,1.2-4,1.7c0.6-1.8,2.3-2.3,3.3-3.4c1-1.1,2.1-2.2,3.1-3.3c-0.3-0.3-0.4-0.6-0.6-0.7c-1-0.5-2.1-1-3.2-1.5
		c-1.8,1.5-1.6,3.7-3,5.6c-0.5,0.2-1.2,0.6-1.8,0.9c-0.7-0.3-0.7-0.7-0.3-1.1c0.4-0.4,1-0.7,1.6-1.1c0.5-1.5,1-3,1.5-4.7
		c-0.8-2.9-1.6-5.8-2.4-8.8c-0.2-0.9-0.5-1.8-0.5-2.8c-0.3-4.5-2.1-8.7-3.4-13c-0.1-0.3-0.3-0.6-0.5-0.9c-0.1-0.1-0.2-0.1-0.5-0.2
		c-0.9,0.4-1.3,1.2-1.1,2.2c0.3,2.1,0.8,4.2,1.1,6.3c0.3,2,0.9,3.9,0.4,6c-0.1,0.5,0,1.2,0.2,1.7c1.2,3.3,1.9,6.8,3.9,9.9
		c0.5,0.8,0.8,1.7,1.1,2.4c-0.6,0.7-1.1,0.9-1.6,0.4c-0.2-0.1-0.3-0.3-0.4-0.5c-1.3-3-2.7-6-3.5-9.3c-0.7-3.2-1.5-6.4-2.1-9.7
		c-0.2-1-0.5-2.1-1-3c-0.3-0.5-0.9-0.9-1.7-1.5c0,0.9-0.1,1.5,0,2.1c0.7,3.4,0.6,6.8,0.7,10.3C417.1,27.4,417,28.6,416.2,29.5
		L416.2,29.5z M478.8,168.3l0.1,0.2L478.8,168.3l-0.1-0.1L478.8,168.3z M466.8,165.5l-0.2-0.1L466.8,165.5l0.1,0.1L466.8,165.5z
		 M464.5,164.1c0.1,0.1,0.1,0.1,0.2,0.2C464.6,164.2,464.5,164.2,464.5,164.1l-0.2-0.1L464.5,164.1z M462.4,157
		c0.5,0.2,1,0.5,1.6,0.7c0.4,0.3,0.9,0.5,1.3,0.8c0.3,0.7,0.8,0.9,1.5,0.7c1,1.6,2.6,2.4,4.4,3.5c-0.2-0.7-0.1-1.1-0.3-1.3
		c-1.2-1.1-2.4-2.2-4.2-2.2c-0.2-0.9-0.9-0.7-1.5-0.7c-0.1-0.8-0.8-0.6-1.3-0.8C463.4,157.5,462.8,157.3,462.4,157
		c-0.5-0.2-1-0.4-1.4-0.7c-0.2-0.1-0.3-0.3-0.5-0.4c-0.1,0-0.2,0-0.3,0c0.1,0.1,0.1,0.3,0.2,0.3c0.2,0,0.4,0,0.6,0
		C461.2,157,461.9,156.8,462.4,157z M457.4,164.9c-0.1-0.2-0.1-0.4-0.3-0.5c-0.1-0.1-0.3,0.1-0.5,0.1c0.1,0.1,0.2,0.2,0.3,0.2
		C457.1,164.7,457.3,164.8,457.4,164.9c0.3,0.6,0.9,0.6,1.5,0.6c0.1,0.2,0.3,0.4,0.4,0.5c0.1,0,0.3-0.1,0.4-0.2
		c-0.1,0-0.2-0.1-0.3-0.1c-0.2,0-0.4,0-0.7,0C458.7,164.8,458,164.9,457.4,164.9z M461.7,158.4c0.2,0.4,0.5,0.7,1.3,0.2
		C462.3,158.5,462,158.5,461.7,158.4c-0.5-1-1.5-0.6-2.3-0.6c-0.2-0.3-0.3-0.7-0.5-0.8c-2-0.7-4-1.5-6.1-1.9c-2.5-0.4-5-1.2-8.1-0.9
		c5.2,1.2,10,2.3,14.7,3.4C460.2,158,461,158.2,461.7,158.4z M443.2,190.4c0.1,0.1,0.1,0.1,0.2,0.2
		C443.3,190.5,443.2,190.5,443.2,190.4c-0.5-0.5-1-0.6-1.8-0.1C442.2,190.3,442.7,190.4,443.2,190.4z M466.7,163.5
		c-0.1-0.1-0.1-0.1-0.2-0.2C466.6,163.3,466.7,163.3,466.7,163.5c0.7,1,1.5,1.9,2.9,2c-0.1,0.5,0.1,0.8,0.6,0.8
		c0.6,1.3,1.6,2.2,2.8,2.9c0,0.7,0,1.3,0,1.9c0.6,0.4,1,0.9,1.8,0.3c-0.4-0.9-0.8-1.8-1.9-2.1c-0.1-1.8-1.2-2.5-2.8-2.9
		c-0.2-0.3-0.4-0.5-0.7-0.8C468.9,164.5,468,163.6,466.7,163.5z M468.8,168.4c-0.5-0.2-1-0.4-1.6-0.7c-0.6-0.3-1.2-0.6-1.9-0.9
		c-2-2.2-4.7-3.4-7.4-4.5c-0.3-0.1-0.9,0-1-0.1c-1.2-2.1-3.5-1.8-5.3-2.2c-3-0.7-6.2-1.2-9.7-1.8c1-0.4,1.5-0.6,2.2-0.8
		c-0.5-0.3-0.8-0.5-1.1-0.7c0.6-0.2,1.1-0.4,1.9-0.7c-4.6-1.1-4.8-1.1-8,1.5c0.4,0.2,0.8,0.5,1.2,0.7c3.6,1.4,7.3,2.7,10.9,4.1
		c1,0.4,2,0.8,3,1c0.3,0.1,0.8-0.3,1.2-0.5l-0.1,0.1c0.8,0.2,1.6,0.5,2.4,0.5c2-0.1,3.6,0.9,5.2,1.7c1.5,0.7,2.9,1.4,4.4,2.1
		c2.6,2.7,3.4,3.3,4.9,3.2C469.6,169.6,469.1,169,468.8,168.4c0.2-0.2,0.5-0.2,0.3-0.2C469.2,168.1,469,168.3,468.8,168.4z
		 M428.2,204.8c0-1.6-0.7-2.8-1.9-4.4c-0.3,1-0.4,1.7-0.6,2.5c0.9,0.6,1.8,1.2,2.6,1.8c-0.2,0.6-0.7,0.5-1.1,0.3
		c-0.7-0.2-1.2-1.2-2.3-0.4c0.7,1.5,2.2,2,3.5,2.6c0.3,0.2,0.8,0.1,1.7,0.1C429.2,206.2,428.7,205.5,428.2,204.8z M438.2,35.3
		c0.1,0,0.1,0.1,0.2,0.1C438.3,35.4,438.2,35.4,438.2,35.3c0.5-2.3,0.1-4.6-0.3-6.9c-0.2-1.1-0.8-2-1.7-2.6
		c-0.4-0.3-0.8-0.5-1.3,0.2c0.4,1.3,1,2.8,1.3,4.2c0.4,1.6,0.6,3.2,0.9,4.8C437.5,35.1,437.8,35.2,438.2,35.3z M431.8,169.8
		c0-0.3,0-0.5,0-0.8c1,0.6,2,1.2,3,1.9c4.7,2.9,9.4,6,15.4,5.2c1.2-0.2,2.3-0.3,3.5-0.5c1.2-0.1,2.3-0.3,3.5,0.3
		c0.8,0.4,1.8,0.2,2.6,0.3c0.6-0.9,0.9-1.6,0.6-2.5c-3.7,1.1-7.3,1-10.4-0.4c0.4-0.5,0.7-1,1.1-1.3c0.4-0.3,0.9-0.3,1.5-0.4
		c-2.3-1.6-4.6-2.6-6.9-3.4c-1.2-0.5-2.4-0.9-3.7-1.4c-1.1-0.4-2.2-0.8-3.4-1.2c-1.2-0.5-2.4-1.1-3.6-1.4c-1.2-0.3-2.5-0.3-3.6-0.5
		c-0.6-0.9-0.4-1.6,0.3-1.9c0.6-0.3,1.4-0.5,2-0.4c1.3,0.2,2.5,0.6,3.7,1.1c3.3,1.3,6.5,2.8,9.8,4.2c1.2,0.5,2.3,1.3,3.7,1
		c0.1,0.2,0.3,0.3,0.4,0.4c0,0,0.2-0.1,0.3-0.1c-0.3-0.1-0.5-0.2-0.8-0.3c0-0.2,0-0.5,0.1-0.7l-0.1,0.1c1.4-0.3,2.4,0.6,3.7,0.9
		c1.3,0.3,2.5,1.2,4.1,0.9c-1-0.7-1.8-1.3-2.6-1.9L456,167c0.5-0.1,1.1-0.2,1.8-0.4c-1.9-1.4-3.6-2.6-5.9-2.5
		c-0.4,0-0.9-0.2-1.3-0.4c-5.4-2.1-11.1-3-16.5-4.7c-2.1,0.9-4,1.9-5.5,3.4c-0.3,3.2-0.3,3.2,1.2,5.3c-0.4,0-0.7,0-1.1,0
		c-0.4,1.7-0.5,1.8,0.4,2.4c2.5,1.6,5,3.1,7.5,4.7c0.5,0.3,1.3,0.3,1.2,1.2c-0.3,0-0.5,0.1-0.7,0.1c-2.9-1.4-5.7-2.7-8.6-4.1
		c-0.7,0.7-0.9,1.8-0.2,2.5c1,1,2,2.2,3.8,2.3c1.2,0,2.5,0.6,3.4,1.7c-0.4,0.1-0.8,0.2-1.2,0.3c1,1,1.7,1.8,2.5,2.6l0.1-0.1
		c-0.7-0.2-1.4-0.3-2-0.7c-1.8-1.1-3.6-2.4-5.4-3.5c-0.5-0.3-1-0.5-1.8-0.9c-0.1,1.6-0.1,2.9-0.2,4.2c3.4,1.8,6.6,3.6,10,4.9
		c1.6,0.6,3.3,1.2,5.1,0.3c0.6-0.3,1.4-0.1,2.1-0.2c2.2-0.2,4.5-0.4,6.7-0.7c0.4-0.1,0.8-0.6,1.8-1.2c-1.4,0.1-2.1,0.2-2.8,0.2
		c-2,0-4-0.1-6-0.2c-0.5,0-1.3-0.3-1.5-0.7c-0.5-1-1.4-1.2-2.2-1.6c-1.4-0.6-3-0.8-4-2.1c1,0.2,2.1,0.2,3.1,0.6
		c2.6,1,5.2,0.5,8.4,0.1c-2.3-1.4-4.2-2.1-6.3-2.7c-0.5-0.2-1.1-0.3-1.6-0.6c-1.3-0.8-2.6-1.6-3.7-2.6c-1.6-1.2-3.6-1.7-4.9-3.3
		C432.4,170.3,432.3,170.1,431.8,169.8z M353.6,480.7l0.1,0.2L353.6,480.7c-0.2-1-1.5-1.8-1.2-3.4c0.7,0.6,1.2,0.8,1.6,1.3
		c2.4,3.2,4.8,6.4,7,9.8c0.5,0.8,1,1.6,1.9,2c5.5,3.2,11,6.6,17.2,8.3c2.5,0.7,5,1.5,7.3,2.8c2.8,1.5,5.6,3.1,8.4,4.6
		c1.1,0.6,2.4,1.4,3,2.4c0.7,1.3,1.6,2,2.8,2.5c3,1.4,5.8,3.2,8.5,5.1c2.7,1.9,5.4,1.7,8,0.4c2.9-1.4,5.5-3.2,8-5.3
		c2.1-1.7,4.1-3.5,6.3-5.2c3.1-2.4,5.8-5.2,8.3-8.3c8.2-10,16.4-20,24.5-30.1c2.1-2.6,3.9-5.4,5.8-8.1c0.4-0.5,0.6-1.2,1-2.1
		c-0.9,0-1.5,0-2,0c-2.5,0.1-5,0.4-7.4,0.4c-3.6,0-7.1-0.1-10.7-0.5c-4.6-0.4-9.2-1-13.7-1.8c-4.7-0.8-9.1-2.7-13.4-4.6
		c-1.4-0.6-2.7-1.4-4.2-1.2c-0.2,0.3-0.4,0.5-0.5,0.7c-3.9,8.6-6.7,17.5-9.1,26.5c-0.9,3.3-3.4,6.9-6.8,8.9c0-0.7,0-1.3,0-2.2
		c-3.4-3.9-6.9-7.9-10.4-11.9c-2.1-2.3-4.5-4.1-7.5-5.2c-3.5-1.2-6.8-2.7-10.3-3.9c-5-1.7-10.1-3.3-15.4-4.2
		c-7.8-1.3-15.6-3.1-23.1-5.6c-4.8-1.6-9.7-3.2-14.5-5c-3.9-1.4-7.7-2.9-11.6-4.4c-1.4,1.8-2.8,3.7-4.3,5.6
		c-0.2,2.2,0.5,4.4,1.4,6.4c1.6,3.5,4.2,6.3,6.8,9.1c1.9,2,3.9,3.4,6.7,3.8c0.4-0.5,0.8-1,1.3-1.6c6.9,0.9,13.6,2.3,19.1,6.9
		c0.5,0.4,1,0.6,1.5,1c2.7,1.8,5.3,3.5,8,5.3C352.2,480.3,352.9,480.5,353.6,480.7z M440.4,192.7l-0.1-0.2L440.4,192.7
		c0.9,0.3,1.8,0.6,2.6,1.1c0.9,0.5,2-0.5,3,0.2c-2.4,1.9-3.8,2.1-5.7,0.6c-1.1-0.9-1.9-2-2.6-3.3c-1.8-3.5-3.8-3.9-6.6-1.2
		c-0.9,0.9-1.6,2.1-2.2,3.2c-0.3,0.7-0.3,1.5-0.6,3.1c0.7-1.1,1-1.5,1.2-1.9c0.7-1.1,1.3-2.2,2.1-3.3c0.9-1.1,2-1.2,3.1-0.2
		c0.6,0.6,1.2,1.2,1.7,1.8c2.2,2.5,2.3,3.3,0.6,6.3c-0.1,0.2,0,0.4,0,0.7c0.6,0.5,1.2,1,1.7,1.6c0.3,0.3,0.4,1,0.3,1.3
		c-0.6,1-1.3,2-2.8,2c-0.4-2-0.9-3.9-1.3-5.9c0.6-0.7,1.3-1.4,2-2.1c-0.3-0.6-0.6-1.2-1-1.9c-1.1,1-2.1,1.9-2.8,2.5
		c-1.1,2.8,1.1,4.7,1.4,6.9c-1.5,0.7-1.9,0.7-2.6,0c-1.4-1.3-1.8-3-1.6-4.9c0-0.3-0.1-0.7-0.2-1c-0.8-0.1-1.4-0.9-2.5-0.5
		c0,0.4,0,0.9,0.2,1.3c1.6,3.4,3.3,6.8,5,10.2c0.5,1.1,1.3,1.9,2.7,2.3c0.3-0.2,0.7-0.4,1.1-0.7c0.4-0.3,0.7-0.7,1.4-0.1
		c-0.1,0.5-0.1,1.3-0.5,1.7c-0.4,0.5-1.2,0.9-1.8,1c-1,0.2-2.1,0-3.1,0c-0.7-1.5-1.3-2.7-2-4c-1.8-0.7-3.7-1.5-5.5-2.2
		c-0.7,0.8-0.7,1.5-0.1,2c0.6,0.5,1.3,1,2.1,1.4c1.1,0.5,2.2,0.8,3.3,1.2c-0.1,0.4,0,0.9-0.2,1c-0.7,0.7-1.6,1.3-2.4,2
		c-0.2,0.9-0.3,1.9-0.6,2.7c-0.5,1.3-0.4,2.5-0.2,3.8c0.4,3.5,1,7,1.2,10.6c0.2,3.2,1.5,5.8,3.8,7.8c2.8,2.5,5.8,4.8,9,6.9
		c3.2,2,6.1,4.5,8.7,7.3c0.3,0.3,0.8,0.6,0.1,1.3c-1.7-0.6-3.3-1.6-4.9-2.5c-1.7-1-3.3-2.2-5.3-3.5c0.1,1.7,0.8,2.7,1.3,3.7
		c2.8,5.9,3.9,12.2,3.5,18.7c-0.3,3.5-1,7-1.7,10.5c-0.9,4.4-2.4,8.7-4.6,12.7c-2,3.7-4.5,7-7.2,10.1c-3,3.4-7,5.3-11.7,5
		c-1-0.1-2.1-0.2-3.4-0.3c0.2,0.6,0.3,1,0.6,1.4c0.8,1.2,1.6,2.4,2.4,3.5c0.7,1,1.3,2,0.6,3.2c-0.1,0.2-0.1,0.7,0,1
		c0.7,1.3,1,2.9,2.5,3.9c2.1-0.6,4.1-1.2,6.2-1.7c1.5-0.4,3-0.9,4.5-1.1c4.2-0.5,8.5-1,12.7-1.3c5.4-0.4,10.9-0.6,16.3-1
		c6.5-0.5,13-0.6,19.5,0c2.5,0.2,5,0,7.4-0.6c1.8-0.4,3.6-1,5.6-1.6c0-1.8,0-3.7,0-5.6c0-2,0-4,0-6c0.4-0.5,0.7-0.9,1.1-1.1
		c2.7-1.8,4.3-4.4,5.6-7.2c1-2.1,1.8-4.4,2.7-6.6c0.7-1.7,0.7-3.4,0.5-5.2c-0.8-6.4-3.3-11.8-8.7-15.7c-1.6-1.2-3.1-2.5-4.3-4.2
		c-0.6-0.9-1.4-1.8-2.9-2.2c0.2,1.8,1.1,3.4,0.3,5.2c-0.5-0.4-0.9-0.8-1.3-1.1l0.1,0.1c-0.2-0.7-0.2-1.4-0.5-2
		c-1.8-2.7-3.8-5.1-6.6-6.8c-1.8-1.1-3.7-2.2-5.6-3c-3.9-1.7-7.6-3.8-11.1-6.3c-0.7-0.5-1.4-0.9-2.3-1.5c-0.2,1.4-0.2,2.6-0.4,3.7
		c-0.2,0.8-0.7,1.2-1.8,0.7c-0.1-0.5-0.2-1-0.2-1.6c0-4.5-0.3-9-1.2-13.4c-0.4-2.1,0.1-3.7,1.9-5c1.6,0.3,3.4,0.2,4.8,0.9
		c3,1.5,6,0.9,9.1,0.9c1,0,1.7-0.7,2.2-1.5c0.5-1,0.7-2,0.4-3.1c-0.2-0.8-0.4-1.6-0.6-2.4c1-0.9,1.8-1.7,2.8-2.6
		c-0.6-0.9-1.1-1.6-1.6-2.2c-2-0.5-4.3,0.3-5.7-2c0.6-0.1,1-0.3,1.4-0.3c1,0.2,2.1,0.5,3.1,0.7c1.4,0.2,2.9,0.1,3.9-1.4
		c-0.2-0.7-0.6-1.4-0.7-2.2c-0.1-0.9,0.1-1.8,0.1-2.7c-0.8-0.2-1.5-0.3-2.3-0.5c0.4-1.2,1.2-1.5,2.2-1.7c1.1-0.3,1.6,0.9,2.6,1
		c0.7-0.2,1.4-0.5,2-0.6c0.7-1.3,0.2-2.1-0.3-3c-1.6-3.3-2.7-6.8-2.8-10.6c-0.1-2.1,0.3-3.9,2.7-4.8c1.7-0.7,2.1-1.7,1.5-3.5
		c-0.8-2.7-1.1-5.5-1.4-8.4c-0.1-1.3-0.4-2.6-0.5-3.9c-0.2-1.9-1-3.3-2.8-4.2c-0.5,0.2-1,0.4-1.6,0.6c-0.4-0.4-0.9-0.8-1.3-1.2
		l-0.2-0.1l0.2,0.1c-0.5,1.3-1.8,0.8-2.7,1.4c-1.3-0.7-2.2-2.2-3.9-2.2c-1.1,0.5-2.1,1-3.3,1.6c-0.3-0.5-0.5-1.1-0.8-1.2
		c-2-0.6-4.1-1.4-6.2-0.6c-1.1,0.4-2,0.4-3.1,0c-0.4-0.2-0.9-0.3-1.4-0.4c-0.5,0-1-0.6-1.6,0c2.3,1.9,3.9,2.3,7.8,2.2l-0.1-0.1
		c0.3,2.2-0.6,4.2-1.4,6.1c-0.5,1.2-1,2.3-1.5,3.5c-0.7,0.6-1.9,0.3-2.1,1.6c-0.2,0.9-1.2,1.7-0.8,2.9c-1.8,1-3.5,2.1-5.3,2.8
		c-1.4,0.6-2.8,1.1-4.1,2.1c-1.1,0.8-2.3,1.1-3.7,1.1C442,192.7,441.2,192.7,440.4,192.7z M545.6,544.9L545.6,544.9
		c0-1.3-0.1-2.7-0.2-4.4c-1.3,0.8-2.2,1.5-3.2,2c-2.1,1-2.8,2.7-3,4.9c-0.2,3.7,0.2,7.3,1.1,10.9c0.4,1.5,1,2.9-0.2,4.3
		c-0.3,0.4-0.1,1.1-0.1,1.7c0,1.1,0,2.1-0.1,3.2c-0.1,1.3-0.5,2.6-1.5,3.5c-0.4,0.4-0.7,0.8-1.1,1.1c1.2,1.8,2.7,2.7,4.2,3.5
		c2.8,1.5,5.8,2.7,8.8,3.8c3.8,1.4,7.6,1.8,11.5,1.6c2.8-0.1,5.7,0,8.5,0c1.9,0,3.7,0.6,5.4,1.5c5.9,2.8,11.9,5.5,18.5,6.1
		c5.1,0.5,10.1,1.1,15.1-1c1.3-0.6,2.7-0.7,4.1-1.1c1-0.3,2-0.6,3-1.1c4.1-1.8,7-4.8,9.3-8.7c-0.9-2.5,0.5-5.6-1.5-8.3
		c-1-0.1-2-0.3-3.1-0.2c-1.6,0.2-3.1-0.1-4.5-0.8c-2.9-1.3-5.8-2.7-8.7-4c-0.7-0.3-1.4-0.7-2.4-1.1c-0.3,0.5-0.6,0.9-0.9,1.2
		c-0.4,0.4-0.9,0.7-1.5,1c-0.2,0.1-0.7,0-0.9-0.2c-0.2-0.2-0.3-0.7-0.1-0.9c0.4-0.7,0.9-1.3,1.4-2.1c-1.1-1-2.2-1.7-3.5-2.1
		c-2.2,1.3-3,3.9-5.4,4.6c-0.6-1.4-0.7-1.4-0.4-1.7c0.7-0.9,1.5-1.8,2.2-2.8c0.4-0.5,1.2-0.8,0.9-2c-1.3-0.8-2.8-1.8-4.3-2.7
		c-1.1,1.4-2,2.6-3,3.8c-0.7,0.8-1.4,1.6-2.2,2.3c-0.9,0.8-2.2,0.2-2.4-1c-0.2-1.2,0.3-2.1,1-2.9c1-1.1,2.1-2.2,3.2-3.4
		c-0.3-1-1-1.9-2.1-2.8c-1.1,0.9-2.1,1.7-3.1,2.5c-1,0.9-1.8,1.9-2.7,2.8c-0.9,0.8-1.5,2.1-3,2.5c-0.2-0.4-0.5-0.7-0.5-1
		c-0.3-2,0.6-3.7,1.9-5.2c1.4-1.6,3.1-2.9,5-3.9c0.1-0.1,0.2-0.4,0.3-0.7c-0.8-0.6-1-1.8-2.4-2c-0.9,0.6-1.9,1.2-2.8,1.9
		c-0.9,0.7-1.8,1.5-2.6,2.4c-0.9,0.8-1.6,1.7-2.5,2.6c-0.8,0.8-1.4,1.8-3,2.5c1.2-5.9,5.3-8.9,9.6-12c-1.4-1.7-2.6-3.2-3.9-4.7
		c-0.7-0.8-1.7-0.8-2.4,0.1c-0.5,0.7-1.1,1.2-2,1.3c-1.1,0.2-1.7,0.8-1.6,2c0.1,1.2-0.7,1.9-1.4,2.7c-3.6,4.3-8.3,7.4-13,10.4
		c-0.6,0.4-1.3,0.6-1.9,0.9c-1.6,0.7-3.2,0.8-4.9,0.6c-0.6-0.1-1.1-0.3-1.1-1.2c0.5-0.1,0.9-0.2,1.4-0.2c2.6,0.1,4.9-0.9,7-2.2
		c3.8-2.3,6.7-5.6,10.1-8.4c0.2-0.1,0.3-0.4,0.4-0.6c1.1-1.8,2.2-3.6,3.4-5.5c-0.6-2.8-1.3-5.7-1.9-8.6c-0.5-2.7-1.3-5.3-1.4-8
		c-0.2-5.1,0.6-10.2,1.5-15.2c0.7-3.5,1.6-6.9,2.1-10.4c1-6.9,1.9-13.9,2.8-20.8c0.2-1.9,0.4-3.8,0.4-5.7c0-5.3,0-10.7,0-16
		c0-2.2-0.2-4.5,1.2-6.5c0.4-0.5,0.3-1.4,0.4-2.1c0.3-2.3,0.7-4.7,1-7c0.2-2.2,0.3-4.5,0.3-6.7c-0.1-3.4-0.3-6.9-0.5-10.3
		c0-0.7-0.1-1.4-0.1-2.1c-0.1-1.3-0.6-2.5-1.6-3.5c-2.2-2.2-4.6-4.1-7.4-5.4c-1.5-0.7-2.9-1.6-4.3-2.5c-4.3-2.9-9-4.7-14.1-5.4
		c-4-0.6-8-1.2-12-1.6c-7.7-0.8-15.3-1.6-23-2.4c-2.9-0.3-5.9-0.6-8.8-0.9c-8.4-1-16.8-1.7-25.2-1.5c-4.5,0.1-9-0.2-13.3,1.5
		c-2.3,0.9-4.6,1.7-7,2.7c-1.9,0.8-3.3,2.1-4.2,4c-1,2-2.3,3.9-3.4,5.8c-2.7,4.6-5.3,9.3-7.9,13.9c-0.6,1-1,2.2-1.4,3.3
		c-0.8,2.1-1.5,4.2-2.2,6.4c-0.8,2.2-1.7,4.4-2.3,6.7c-0.6,2.2-0.9,4.4-1.2,6.6c-0.3,1.6,0.3,3,1.4,4.2c0.9,1.1,1.8,2.2,2.8,3.5
		c1.8,0.2,3.8,0.6,5.8,0.7c12,0.8,23.9,0.1,35.7-2.4c7.3-1.6,14.6-3,22-4.2c7.8-1.2,15.3-3.1,22.6-6.2c3.4-1.4,7-2.2,10.7-2.3
		c1.3,0,2.6-0.1,3.9-0.3c2.2-0.2,4.3,0.2,6.2,1.1c0.5,0.2,0.8,0.7,1.3,1.1c-0.5,1.5-1.2,2.8-2.3,3.7c-1.5,1.3-2.3,3-3.1,4.7
		c-1.7,3.4-3,7-3.8,10.7c-0.8,3.8-1.7,7.6-2.4,11.5c-0.3,1.6-0.3,3.3-0.1,4.9c0.7,6.2,2.2,12.1,4.2,18c1.3,3.9,2.5,7.9,3.7,11.9
		c0.6,2.2,0.9,4.4,0.9,6.7c0.1,3.6,0.3,7.1,0.5,10.7c0.1,1.1,0.3,2.2,0.1,3.2c-0.7,2.9-0.3,5.9-0.3,8.9c0,2.7-0.3,5.4-1.3,8.1
		C546.3,544.9,546,544.9,545.6,544.9z M430,59.9c0.2,0.3,0.4,0.7,0.7,1.1c1.8,2.6,2.9,5.4,2.7,8.6c-0.1,1.1,0.1,2.1,0.1,3.2
		c0.2,3.7,0.5,7.3,1.3,10.9c0.8,3.6,1.8,7.1,2.5,10.7c0.5,2.3,0.8,4.7,1,7c0.3,3.1,0.4,6.2,0.9,9.2c0.4,2.9,1.1,5.8,1.6,8.7
		c1,6,2.3,11.9,1.4,18c-0.4,2.5,0.2,4.7,1.3,6.8c1.2,2.2,2.3,4.4,2.8,6.9c0,0.2,0.3,0.4,0.7,0.9c6.6-0.3,12.9,2.2,19.5,4.5
		c0-0.9,0.1-1.5,0-2.2c-0.2-1.3-0.5-2.6-0.6-3.8c-0.4-3.5-0.5-7.1-1-10.6c-1.3-8.6-3.6-16.9-6.5-25.1c-1.4-3.9-2.8-7.8-4.2-11.7
		c-1.7-4.9-3.3-9.9-4.3-15c-1.4-6.9-2.8-13.7-4.6-20.4c-0.2-0.6-0.3-1.1-0.4-1.7c-0.5-2.4-1-4.9-0.7-7.4c0.5-3.8,0-7.6,0.2-11.4
		c0.1-1.5-0.4-2.8-0.9-4.1c-0.7-1.9-2.2-3-3.4-4.4c-3.2,2.2-5,5-4.7,9c0,0.5,0,1-0.1,1.4c-0.8,3.9-1.3,8-5,10.6
		C430.2,59.5,430.1,59.7,430,59.9z M444.4,151.7c-1.1-3.2-2-6-3-8.8c-1.2-3.5-1.8-7.1-1.7-10.8c0-1.7,0-3.3-0.2-5
		c-0.5-3.8-1.2-7.5-1.7-11.2c-0.6-4.5-1-8.9-1.6-13.4c-0.4-3.6-0.8-7.3-1.3-10.9c-0.5-3.3-1.4-6.5-2-9.7c-0.6-3.7-1.3-7.5-1-11.3
		c0.2-1.8-0.1-3.2-1.1-4.7c-0.6-0.9-1-1.9-1.5-2.8c-0.3-0.5-0.5-1.1-1.4-1c-0.3,0.3-0.7,0.6-0.9,1c-1,2.8-2.2,5.5-2.8,8.4
		c-0.5,2.4-0.4,4.9-0.4,7.4c-0.1,4.6,0.5,9.2,0,13.8c-0.1,0.6,0,1.2,0.1,1.8c0.9,7.8,1.4,15.6,2.8,23.3c0.5,3,0.9,6.1,1.3,9.1
		c0.1,1,0.2,2.2-0.1,3.1c-0.5,1.2-0.5,2.3-0.4,3.5c0.1,1.7,0.3,3.3,0.5,5c0.6,6.1,1.4,12.3,0.4,18.4c-0.1,0.4,0.1,0.9,0.1,1.5
		c2.6-1.4,5.2-2.4,7.3-3.9c2-1.5,4.2-2.1,6.6-2.3C443,151.9,443.5,151.8,444.4,151.7z M461,244.8c1.4,0.7,2.5,1.2,3.7,1.8
		c1.3,0.6,2.5,1.3,3.8,1.9c1.1,0.6,2.1,1.4,3.8,1.7c-1.1-1.6-1.8-2.9-2.7-4c-1.2-1.4-1.9-3-2.4-4.7c-0.3-1-0.7-2-0.9-3.1
		c-1-4.9-0.5-4.4-5.7-5.7c-0.2-0.1-0.4,0-0.7,0.1C459.5,234.9,459.8,237.9,461,244.8z M424.7,12.9c-0.2,0.2-0.4,0.5-0.4,0.6
		c1.6,6.8,2.8,13.6,5.2,20.1c0.9,0.2,1.6,0.4,2.5,0.7c-0.3-3.3-1.1-6.1-2.3-8.8c-0.3-0.8-0.8-1.5-0.8-2.3c-0.4-3.6-2.3-6.6-3-10
		C425.4,13.1,425,13,424.7,12.9z M427.1,192.7c0.5-1.1,0.9-2,1.3-2.8c0.9-1.8,2.7-2.6,4.5-3.2c1.5-0.6,2.7,0.2,3.9,1
		c0.2,0.1,0.4,0.1,0.7,0.2c0.4-0.2,0.8-0.4,1.3-0.6c-0.9-0.6-9.5-4.1-10.8-4.4c-0.2,0-0.4,0.2-0.8,0.4c-0.2,1.4,0,2.9,0,4.4
		C427.3,189.2,426.5,190.8,427.1,192.7z M459.2,177.9c-2.1-0.6-2.1-0.6-6.8,1c1.5,0.8,2.6,0.9,5,0.4
		C458.2,179.1,459.1,179,459.2,177.9z M431,196.5c1.2-0.9,2.4-1.8,3.7-2.8c-0.4-0.5-0.7-0.8-1.1-1.2
		C432.1,193.4,431.4,194.8,431,196.5z M320.5,480.7c-0.2-0.1-0.4-0.3-0.5-0.2c-0.1,0.1-0.2,0.3-0.3,0.5c0.2,0.1,0.4,0.3,0.6,0.2
		C320.4,481.2,320.4,480.9,320.5,480.7z M454.7,158.9c0-0.1,0-0.1,0-0.2c-0.5,0-1.1,0-1.6,0c0,0.1,0,0.1,0,0.2
		C453.6,158.9,454.1,158.9,454.7,158.9z M424.7,210.6c-0.1,0.2-0.2,0.4-0.1,0.6c0.1,0.2,0.3,0.3,0.5,0.4c0.1-0.2,0.2-0.4,0.1-0.6
		C425.2,210.8,424.9,210.7,424.7,210.6z M450.6,158.2c0.2-0.1,0.4-0.1,0.5-0.2c-0.2-0.1-0.4-0.1-0.6-0.2c-0.1,0-0.2,0-0.3,0.1
		C450.4,158,450.5,158.1,450.6,158.2z M449.4,177.7c0,0.1,0,0.3,0,0.4c0.5,0,0.9,0,1.4,0.1c0-0.1,0-0.3,0-0.4
		C450.3,177.8,449.9,177.8,449.4,177.7z M328.2,470.1c-0.2-0.1-0.3-0.2-0.5-0.3c-0.1,0-0.2,0.1-0.2,0.2c0,0.2,0.1,0.3,0.2,0.5
		C327.9,470.4,328,470.2,328.2,470.1z M458.3,170.1c-0.1,0-0.2,0-0.3,0.1c0.1,0,0.2,0.1,0.4,0.1
		C458.3,170.2,458.3,170.1,458.3,170.1z M456.9,159.5c-0.1,0-0.2-0.1-0.3-0.1c0,0-0.1,0.1-0.1,0.1c0.1,0,0.2,0.1,0.3,0.1
		C456.8,159.6,456.9,159.5,456.9,159.5z M424.5,222.6c0-0.1,0-0.2,0-0.3c-0.1,0-0.2,0.1-0.4,0.1c0,0.1,0.1,0.2,0.1,0.3
		C424.3,222.6,424.5,222.6,424.5,222.6z"/>
	<path d="M414.8,26.7c-1-0.1-1.3-0.9-1.6-1.7c-0.5-1.4-1-2.9-1.6-4.3c-0.4-1-1.1-1.5-2.4-1.4c0,0.6-0.2,1.4-0.1,2
		c0.3,1.4,0.8,2.7,1.1,4.1c0.3,1.2,1,2.4,0.5,3.8c-0.2,0.5,0.2,1.1,0.4,1.7c0.3,0.8,0.6,1.5,0.9,2.3c0,0,0.1-0.1,0.1-0.1
		c-1.3-0.5-1.6-1.7-2-2.8c-1-2.8-2.4-5.4-2.7-8.4c-0.2-2-0.9-3.9-1.9-5.7c-0.3-0.5-0.3-1.1-0.5-1.7l-0.1,0.1c1.4,0.5,1.4,2.1,2.3,3
		c2.7-0.6,4.6,0.7,5.6,3.2c0.8,1.9,1.4,3.9,2,5.9L414.8,26.7z"/>
	<path d="M423.2,228.8c0.3,3.4,0.6,6.8,0.9,10.2c0.1,0.9,0,1.8,0,3.4c-0.6-0.8-0.9-1.1-1.1-1.4c-1-2.3-1.9-4.6-2.3-7.1
		c-0.1-0.8-0.2-1.6-0.2-2.5c0-2,0.4-2.4,2.8-2.6L423.2,228.8z"/>
	<path d="M485.7,331c-0.2,0.3-0.3,0.7-0.5,0.9c-2.9,2.2-4.8,5.1-6.6,8.2c-0.6,1.1-1.3,2.3-1.9,3.4c-0.2,0.4-0.6,0.6-1.1,1
		c0.4-4.2,3.6-9.9,7.2-12.7C483.7,331.2,484.4,330.3,485.7,331z"/>
	<path d="M416.2,29.6c3.3,3.1,5.3,6.9,6.3,11.2c0.4,1.6,1,2.8,2.5,3.6c0.5-0.1,1.1-0.2,2-0.3c-0.6,1-1,1.8-1.4,2.5
		c-1.7-0.7-2.7-1.8-3.2-3.3c-1.3-4.1-3.3-7.8-5.4-11.4C416.5,31.1,416.1,30.4,416.2,29.6L416.2,29.6z"/>
	<path d="M481.5,382.2c-0.3,0.6-0.4,1-0.6,1.2c-2.1,2.8-2.1,2.7-2.5,5.6c-0.8-0.3-1.5-0.5-2.4-0.8c-0.5-2.1,0.7-3.4,1.8-4.7
		C479,382.2,479.5,382.1,481.5,382.2z"/>
	<path d="M414.8,42.7c2.7,1.8,3.4,4.6,5.5,6.1c1.5,0,2.5-1.9,4.5-1.1c-1.3,0.7-2.4,1.3-3.8,2c0.2,0.7,0.6,1.4,0.7,2.1
		c0.1,0.7,0,1.4,0,2.5c-0.8-1.6-1.3-2.8-2-4c-0.8-1.3-1.6-2.6-2.6-3.8C416.3,45.5,414.8,45,414.8,42.7z"/>
	<path d="M445.4,383.9c2.1,2.1,2.1,4.2,2.4,6.2c0.2,1.1,0.4,2.4-0.8,3.2c-0.2-0.2-0.6-0.3-0.6-0.4
		C446.1,390.1,445.8,387.3,445.4,383.9z"/>
	<path d="M421.1,405.3c3.7-2.7,6.9-3.7,10.4-3.2C428.4,403,425.1,404,421.1,405.3z"/>
	<path d="M474.9,345.5c0.6,1.8-0.3,2.9-0.9,3.9c-0.6,1.1-1.3,2.1-2.7,2.5c-0.1-0.3-0.3-0.6-0.2-0.7
		C472.3,349.4,473.5,347.6,474.9,345.5z"/>
	<path d="M452.5,328.6c1.2,1.2,2.1,2.3,3.1,3.2c0.9,0.9,2.4,1.2,3.3,3.1c-2.8-1.4-5.1-2.5-6.4-4.8
		C452.4,329.8,452.6,329.3,452.5,328.6z"/>
	<path d="M402.5,16.9c1.5,2.4,1.9,5.1,1.1,7.9C403.3,22.2,402.9,19.5,402.5,16.9L402.5,16.9z"/>
	<path d="M419.6,64.6c0.6,2,0.3,3.4,0,5.1C418.5,67.1,418.5,66.4,419.6,64.6z"/>
	<path d="M417.9,78.4c1.1,1.6,1,2.5,0.3,3.7C417.5,80.7,417.5,80.7,417.9,78.4z"/>
	<path d="M402.6,16.8c-0.2-0.8-0.5-1.5-0.5-2.3c0-0.9,0.7-1.1,1.9-0.7l0.1-0.1C402.8,14.4,402.5,15.6,402.6,16.8L402.6,16.8z"/>
	<path d="M409.9,163.2c-0.2-0.4-0.4-0.7-0.4-1.1c0-0.6,0.2-1.2,0.9-1.3c0.1,0,0.2,0,0.3,0.1c0.6,0.5,0.2,1.1,0,1.6
		C410.6,162.7,410.3,162.9,409.9,163.2z"/>
	<path d="M490.1,335.2c0.8-0.8,1.2-0.3,1.6,0.1c0.3,0.3,0.4,0.8,0.5,1.2c-0.7,0.5-0.9-0.1-1.2-0.4
		C490.7,335.9,490.4,335.5,490.1,335.2z"/>
	<path d="M426.4,253.3c-0.4-0.8-0.7-1.1-0.7-1.4c0-0.3,0.2-0.6,0.2-0.9c0.2,0.2,0.6,0.3,0.7,0.6
		C426.8,251.9,426.6,252.3,426.4,253.3z"/>
	<path d="M425.7,246.8c-0.2,0.2-0.4,0.3-0.6,0.4c-0.2-0.3-0.4-0.5-0.5-0.8c-0.1-0.2,0.1-0.5,0.2-0.6c0.1-0.1,0.4,0,0.5,0.1
		C425.6,246.1,425.6,246.5,425.7,246.8z"/>
	<path d="M467.4,357c0,1-0.5,1.6-1.4,2.1C466.1,357.8,466.1,357.8,467.4,357L467.4,357z"/>
	<path d="M449.9,339.3c1.2,0.3,1.6,0.8,1.8,1.6C450.6,340.8,450.4,340.2,449.9,339.3z"/>
	<path d="M460.8,336.8c0.7-0.5,1,0,1.3,0.5C461.4,337.8,461.1,337.3,460.8,336.8z"/>
	<path d="M428.2,258.1c1,0.1,1.1,0.8,1.1,1.8C428.2,259.6,428.1,258.9,428.2,258.1L428.2,258.1z"/>
	<path d="M413.3,34.6c0.4,0.4,0.9,0.9,1.5,1.5C413.4,36,413.4,35.3,413.3,34.6C413.4,34.5,413.3,34.6,413.3,34.6z"/>
	<path d="M419.2,74.1c-0.1,0.1-0.2,0.2-0.2,0.2c-0.2,0-0.3-0.2-0.5-0.2c0.2-0.1,0.3-0.2,0.5-0.2C419,73.8,419.1,74,419.2,74.1z"/>
	<path d="M429,408.3c-0.5,0.2-1,0.4-1.5,0.5l0.1,0.1C428.1,408.7,428.6,408.6,429,408.3L429,408.3z"/>
	<path d="M430.4,406.8c0.5-0.2,1-0.4,1.5-0.6l-0.1-0.1C431.3,406.4,430.8,406.5,430.4,406.8L430.4,406.8z"/>
	<path d="M436.8,402.6c0.5-0.2,1-0.4,1.4-0.6l-0.1-0.1C437.7,402.1,437.2,402.3,436.8,402.6L436.8,402.6z"/>
	<path d="M440.4,400.4c0.5-0.2,0.9-0.4,1.4-0.6l-0.1-0.1C441.3,399.9,440.8,400.1,440.4,400.4L440.4,400.4z"/>
	<path d="M413.6,41.3c0.1,0.1,0.3,0.3,0.3,0.4c0,0.1-0.2,0.3-0.3,0.4c-0.1-0.1-0.2-0.2-0.2-0.2C413.4,41.7,413.5,41.5,413.6,41.3z"
		/>
	<path d="M444.5,376.8c-0.1,0.2-0.2,0.4-0.2,0.6c-0.1-0.1-0.2-0.2-0.2-0.3c0-0.2,0.1-0.4,0.2-0.6
		C444.3,376.6,444.4,376.7,444.5,376.8z"/>
	<path d="M428.3,258.1c-0.2-0.1-0.4-0.2-0.5-0.4c0-0.1,0.1-0.3,0.2-0.5c0.1,0.1,0.2,0.2,0.2,0.3
		C428.2,257.7,428.2,257.9,428.3,258.1L428.3,258.1z"/>
	<path d="M404.1,13.9c0.2,0.3,0.5,0.5,0.7,0.8l0.1-0.1C404.6,14.3,404.4,14.1,404.1,13.9L404.1,13.9z"/>
	<path d="M412.6,33.9c0.5,0,0.7,0.2,0.7,0.7c0,0,0.1-0.1,0.1-0.1C412.9,34.6,412.6,34.3,412.6,33.9L412.6,33.9z"/>
	<path d="M412.6,33.8c-0.5,0-0.7-0.2-0.7-0.7c0,0-0.1,0.1-0.1,0.1C412.4,33.2,412.6,33.4,412.6,33.8L412.6,33.8z"/>
	<path d="M440.3,400.3c-0.1,0.1-0.1,0.3-0.2,0.4c0-0.1,0-0.1,0.1-0.2C440.2,400.5,440.3,400.5,440.3,400.3L440.3,400.3z"/>
	<path d="M441.8,399.8c0-0.1,0.1-0.2,0.1-0.3C441.9,399.6,441.8,399.7,441.8,399.8L441.8,399.8z"/>
	<path d="M460.9,363c0,0.1-0.1,0.2-0.1,0.2c-0.1-0.1-0.2-0.2-0.3-0.3c0.1-0.1,0.2-0.2,0.2-0.2C460.7,362.8,460.8,362.9,460.9,363z"
		/>
	<path d="M467.4,357c0.1-0.2,0.2-0.4,0.3-0.5C468.2,357.1,467.7,357,467.4,357L467.4,357z"/>
	<path d="M453.2,343.5c0.1,0.1,0.2,0.2,0.3,0.3c-0.1,0-0.2,0-0.2-0.1C453.3,343.6,453.3,343.5,453.2,343.5L453.2,343.5z"/>
	<path d="M453.3,343.4c-0.1-0.1-0.3-0.2-0.4-0.2c0.1,0,0.2,0,0.2,0C453.1,343.3,453.1,343.4,453.3,343.4L453.3,343.4z"/>
	<polygon points="425.3,411.1 425.2,411.3 425.4,411.2 	"/>
	<path d="M425.4,411.2c0.2-0.3,0.4-0.5,0.7-0.8l-0.1-0.1C425.8,410.6,425.6,410.8,425.4,411.2L425.4,411.2z"/>
	<path d="M426.7,409.6c-0.2,0.2-0.5,0.5-0.7,0.7l0.1,0.1C426.3,410.2,426.6,409.9,426.7,409.6L426.7,409.6z"/>
	<path d="M426.8,409.7c0.3-0.3,0.5-0.5,0.8-0.8l-0.1-0.1C427.2,409.1,427,409.4,426.8,409.7L426.8,409.7z"/>
	<path d="M429.1,408.4c0.2-0.3,0.4-0.5,0.7-0.8l-0.1-0.1C429.4,407.8,429.2,408,429.1,408.4L429.1,408.4z"/>
	<path d="M429.7,407.6c0.2-0.3,0.5-0.5,0.7-0.8l-0.1-0.1C430.1,407,429.9,407.3,429.7,407.6L429.7,407.6z"/>
	<path d="M431.9,406.3c0.2-0.3,0.4-0.5,0.6-0.8l-0.1-0.1C432.3,405.6,432,405.9,431.9,406.3L431.9,406.3z"/>
	<path d="M432.6,405.5c0.1-0.1,0.2-0.2,0.3-0.3c0,0-0.1,0.1-0.1,0.1C432.6,405.3,432.6,405.4,432.6,405.5L432.6,405.5z"/>
	<path d="M434.6,404c0,0.1-0.1,0.2-0.1,0.3C434.5,404.2,434.6,404.1,434.6,404L434.6,404z"/>
	<path d="M434.7,404.1c0.1-0.1,0.2-0.2,0.3-0.3c0,0-0.1,0.1-0.1,0.1C434.8,403.9,434.7,403.9,434.7,404.1L434.7,404.1z"/>
	<path d="M436.8,402.5c-0.1,0.1-0.1,0.2-0.2,0.4c0,0,0-0.1,0.1-0.1C436.7,402.6,436.8,402.6,436.8,402.5L436.8,402.5z"/>
	<path d="M438.3,402c0.1-0.1,0.1-0.2,0.2-0.4c0,0,0,0.1-0.1,0.1C438.4,401.8,438.3,401.8,438.3,402L438.3,402z"/>
	<path d="M545.6,544.9c1.3,1.9,2.1,4,2.7,6.1c0.4,1.5,0.4,1.7-0.3,3.8c-1.4-0.2-1.9-1.4-2.2-2.4c-0.9-2.6-2.8-4.9-1.9-7.8
		C544.9,544.1,545.2,544.8,545.6,544.9L545.6,544.9z"/>
	<path d="M553.6,454.7c0.3,2.1-1,7.6-2.6,11.6c-0.5-1.6-0.3-2.9,0-4.2C551.6,459.6,551.9,457,553.6,454.7z"/>
	<path d="M552.4,552.3c-1.7-2.6-3.2-4.4-3.4-6.9c1.3-0.5,1.7,0.4,2,1.1C551.9,548,553.3,549.5,552.4,552.3z"/>
	<path d="M570.4,462c-0.3,0-0.5,0-0.5,0c-0.2-0.1-0.4-0.3-0.5-0.4c-0.4-2-1.2-3.9-1.5-6.7C569.9,457.4,570.2,459.6,570.4,462z"/>
	<path d="M571.3,433.4c2.3,0.2,2.5,0.5,3.4,3.5c-0.3,0.5-0.8,0.5-1.1,0.1C572.9,436,572.2,434.9,571.3,433.4z"/>
	<path d="M550,541.9c-0.9-1.9-0.9-2.1,0.1-3.9C550.9,540,550.9,540,550,541.9z"/>
	<path d="M550.4,532.2c1.4,1.2,0.6,2.4,0.2,3.8C549,533.9,549,533.9,550.4,532.2z"/>
	<path d="M551.8,523.3c-0.6-1.3-0.5-2.3-0.3-3.4c0-0.2,0.5-0.4,0.8-0.5c0.1,0,0.4,0.3,0.4,0.5C552.7,521,552.4,522.1,551.8,523.3z"
		/>
	<path d="M561.7,410.6c1.3-0.6,2.5-0.5,3.7,0c-0.1,0.3-0.1,0.6-0.2,0.7C564.2,411.8,564.1,411.8,561.7,410.6z"/>
	<path d="M550.9,529c-0.7-1.4-0.5-2.4,0.7-3.3C552.3,527.1,551.8,528,550.9,529z"/>
	<path d="M554.1,443.4c-0.9,0.7-1.4,0.3-1.8-0.4c-0.1-0.1-0.1-0.5,0.1-0.6c0.1-0.1,0.5-0.2,0.6-0.1
		C553.3,442.6,553.7,443,554.1,443.4z"/>
	<path d="M551.4,469.3c0,1.1,0,1.6,0,2.2c0,0.2-0.2,0.3-0.3,0.5c-0.2-0.1-0.4-0.2-0.5-0.4C550.3,470.9,550.2,470.3,551.4,469.3z"/>
	<path d="M549.7,486.5c-0.1,0-0.2,0.1-0.2,0.1c0-0.1-0.1-0.2-0.1-0.3c0.1,0,0.2-0.1,0.3-0.1C549.8,486.3,549.8,486.4,549.7,486.5z"
		/>
	<path d="M549.6,478.5c0.1,0,0.1,0.1,0.2,0.1c-0.1,0.1-0.2,0.1-0.3,0.2C549.6,478.7,549.6,478.6,549.6,478.5z"/>
	<polygon points="570,431.4 569.7,431.3 570,431.3 	"/>
	<polygon points="556.5,411.4 556.8,411.4 556.8,411.6 	"/>
	<path d="M462.4,263.1c1.7-0.4,1.5,1,1.7,1.8c2.2,1.5,4.4,3,6.5,4.4c0.5,0.3,1.1,0.4,1.7,0.6c1.7,0.4,4.7,0.4,7.4-0.2
		c-1.1-2.2-3.8-2.8-5-5.1c2.2-0.6,3.5,0.8,4.8,1.9c1.2,1.1,2.2,2.4,3.5,3.8c0.5-0.4,1.2-0.6,1.6-1.1c1-1,1.8-2.2,2.7-3.2l-0.1-0.1
		c0.3,2.8-1.2,4.7-3.3,6.2c-0.5,0.4-1.4,0.6-2,0.4c-1.2-0.3-2.3-0.3-3.5-0.2c-4.1,0.5-7.7-0.6-11-3.1c-2.6-2-5.6-3.6-8.4-5.3
		c-2.5-1.6-4.8-3.4-6.9-5.6c-0.4-0.4-0.7-0.9-1.1-1.3c0.6-0.8,0.9-0.3,1.2,0c2.3,2.3,4.9,4.1,7.7,5.7c0.5,0.3,1.1,0.3,1.6,0.5l0-0.1
		c0.2,0.2,0.5,0.5,0.7,0.7l0.1,0.1l-0.2-0.1C462.4,263.5,462.4,263.3,462.4,263.1L462.4,263.1z"/>
	<path d="M485.3,294c0.3,3.2-1.7,5.4-3.9,7.3c-3.6,3.2-7.8,5.2-13,4.5c0.6-1.2,1.6-1.1,2.5-1.4c1.8-0.6,3.7-0.9,5.4-1.7
		C480.2,300.9,483.4,298.2,485.3,294z"/>
	<path d="M476.3,194.7c-2.6,2.2-2.7,2.4-3.1,5.2c-1.1,0.3-2.4-0.1-2.7-0.9c-0.6-1.3-1.4-1.5-2.5-1.6c-0.4,0-0.8-0.4-1.4-0.8
		c1.9-1.4,4-1.8,5.9-2.3C473.8,193.8,475,194.3,476.3,194.7z"/>
	<path d="M450.4,225.3c-2.1,0-3.8-1.1-5.6-2c-1.4-0.7-2.6-1.6-4-2.4c-1.4-0.7-2.1-1.9-2.4-3.4c-0.2-1.3-0.2-2.6-0.2-3.9
		c0-0.3,0.4-0.7,0.8-1.2c1,1.8,0.5,3.5,1,5.2c1.2,1.6,2.9,2.8,4.8,3.8C446.9,222.5,449,223.5,450.4,225.3L450.4,225.3z"/>
	<path d="M478,193.9c-1.5-0.8-2.9-1.4-4.2-2.2c-1.7-1.1-3.4-1.5-5.3-0.8c-0.7,0.3-1.6,0.2-2.4,0.3c-0.3-1,0.4-1.1,0.8-1.3
		c4.5-2.3,9.3,0.1,11.6,2.6c0.1,0.1,0.2,0.4,0.1,0.6C478.6,193.3,478.4,193.5,478,193.9z"/>
	<path d="M440.9,223.5c1.7,1.2,2.3,3.2,3.2,4.9c0.5,0.9,1,1.9,0.3,3.2c-1.6-2.4-3.1-4.7-3.9-7.4
		C440.4,224.1,440.7,223.9,440.9,223.5z"/>
	<path d="M456.4,303.2c0.4,0,0.8-0.1,1.1-0.1c1.8,0.4,3.6,0.9,5.6,1.4c-1.8,0.9-2.8,1-4.7,0.4C457.6,304.6,456.5,304.5,456.4,303.2z
		"/>
	<path d="M428.7,222c-0.4-1.5-0.4-3.1,0.5-4.6c0.8,1.4,0.8,1.8,0.5,3.9C429.6,221.7,429.4,222.1,428.7,222z"/>
	<path d="M453.8,256.7c2,0,3.2,1.5,5.1,2.6C456.1,258.9,455.8,258.7,453.8,256.7L453.8,256.7z"/>
	<path d="M446.7,236.5c-0.1,0-0.2,0.1-0.3,0c-0.6-0.3-1-1.1-0.8-1.6c0-0.1,0.1-0.2,0.2-0.2c0.5,0,1.1,0.8,1,1.5
		C446.9,236.3,446.8,236.4,446.7,236.5z"/>
	<path d="M492.9,302.6c-0.2,0.4-0.4,0.7-0.5,0.7c-0.5-0.3-0.9-0.6-1.4-0.9c0,0,0.3-0.5,0.3-0.5C491.9,302.1,492.3,302.4,492.9,302.6
		z"/>
	<path d="M450.3,225.4c0.3,0.1,0.7,0.1,0.9,0.2c0.1,0,0.1,0.4,0.1,0.5c-0.2,0-0.5,0-0.6-0.1C450.6,225.9,450.5,225.6,450.3,225.4
		L450.3,225.4z"/>
	<path d="M451.4,300.4c-0.2,0.1-0.4,0.2-0.5,0.3c-0.1-0.2-0.2-0.5-0.3-0.7c0.2-0.1,0.4-0.2,0.5-0.2
		C451.2,299.9,451.3,300.2,451.4,300.4z"/>
	<path d="M448.6,240.6c0.1,0.1,0.2,0.2,0.2,0.2c0.3,0.4,0.3,0.8-0.1,1.2c0,0-0.2,0-0.2,0c-0.1-0.4-0.1-0.8-0.1-1.2
		C448.4,240.7,448.5,240.6,448.6,240.6z"/>
	<path d="M461.7,172.7C462,172.3,461.6,172.7,461.7,172.7L461.7,172.7z"/>
	<path d="M453.9,256.7c-0.1-0.1-0.2-0.2-0.3-0.3c0.1,0,0.2,0.1,0.2,0.1C453.9,256.5,453.8,256.6,453.9,256.7L453.9,256.7z"/>
	<path d="M461.7,263.1c0.2,0,0.5,0,0.7,0l0.1-0.1C462.2,263,461.9,263,461.7,263.1L461.7,263.1z"/>
	<path d="M317.1,452.9c-3,0.4-5.2-0.3-7.5-0.9c-0.2-0.1-0.5-0.2-0.6-0.4c-0.2-0.4-0.3-0.9-0.3-1.3c0-0.3,0.4-0.7,0.7-0.7
		c0.7-0.1,1.4-0.2,2.1,0C313.4,450.2,315.2,451.1,317.1,452.9z"/>
	<path d="M387.6,474.4c-4.1-2.2-5.7-3.5-7.3-5.6c0.6-0.5,1.1-0.1,1.6,0.2C384,470.5,386.3,471.9,387.6,474.4z"/>
	<path d="M319.5,454.1c1.5-0.6,2.5,0.4,3.5,0.6c0.3,0.7,0.1,1.1-0.5,0.9C321.5,455.4,320.3,455.2,319.5,454.1z"/>
	<path d="M397.4,486.5c1.2-2.5,1.4-2.6,3.8-2.6C400.1,485.1,398.9,485.8,397.4,486.5z"/>
	<path d="M392.1,497c-1,0.4-2,0.5-2.9-0.2C390,495.5,391.1,495.5,392.1,497z"/>
	<path d="M380.6,497.2c0.9,0.1,1.8,0.2,2.7,0.3C382.4,497.7,381.4,498.3,380.6,497.2L380.6,497.2z"/>
	<path d="M335.6,457.4c-0.6,0.3-0.8,0.6-1.1,0.6c-0.5,0-1-0.1-0.9-0.7c0-0.2,0.5-0.6,0.7-0.5C334.6,456.8,335,457.1,335.6,457.4z"/>
	<path d="M330.7,456.5c-0.7,0.1-1,0.2-1.3,0.1c-0.1,0-0.3-0.2-0.4-0.4c0.2-0.1,0.4-0.3,0.6-0.2C329.9,456.1,330.1,456.2,330.7,456.5
		z"/>
	<path d="M380.7,497.1c-0.2,0-0.5,0.1-0.7,0.1c-0.1,0-0.2,0-0.3-0.1c0.1-0.1,0.3-0.3,0.4-0.3C380.3,496.9,380.4,497.1,380.7,497.1
		L380.7,497.1z"/>
	<polygon points="367.4,463.3 367.5,463.5 367.3,463.5 	"/>
	<path d="M436.1,52.2c2.4,2,3.4,4.2,3.9,6.6c0.1,0.3-0.4,0.7-0.6,1.1c-0.4-0.2-0.7-0.2-0.8-0.4c-0.9-1.9-1.8-3.8-2.6-5.7
		C435.9,53.6,436.1,53.2,436.1,52.2z"/>
	<path d="M453.5,146.4c2.1,0.4,3.3,1.9,4.9,3.5c-0.8,0.1-1.2,0.3-1.4,0.1C455.6,149.1,454.3,148,453.5,146.4z"/>
	<path d="M442.4,65.5c1.3,2,1.3,2,1.3,4.6C442.5,68.2,442.3,67.5,442.4,65.5z"/>
	<path d="M444,74c0.2,0.1,0.4,0.2,0.4,0.3c0.1,0.2-0.1,0.4-0.1,0.6c-0.2-0.1-0.4-0.2-0.4-0.4C443.8,74.4,443.9,74.2,444,74z"/>
	<path d="M434.7,167.6c0.5,0.3,1,0.5,1.5,0.8c0,0.1-0.1,0.2-0.1,0.3c-0.3-0.1-0.7-0.2-0.9-0.4C435.1,168.2,435,167.8,434.7,167.6
		L434.7,167.6z"/>
	<path d="M431.9,169.1c-1.1,0-1.7-0.7-2.3-1.5C430.7,167.7,431.3,168.4,431.9,169.1z"/>
	<path d="M434.8,167.5c-0.6,0-1.3,0.2-1.4-0.7l-0.1,0.1C433.8,167.2,434.3,167.4,434.8,167.5L434.8,167.5z"/>
	<path d="M456.1,166.9c-0.6,0-1.2,0-1.4-0.7l-0.1,0.1C455.2,166.3,455.9,166.1,456.1,166.9L456.1,166.9z"/>
	<path d="M433.4,166.8c-0.3,0-0.5,0-0.4,0C432.9,166.7,433.1,166.8,433.4,166.8L433.4,166.8z"/>
	<path d="M454.7,166.2c-0.2,0-0.5,0-0.7-0.1c-0.1,0-0.2-0.1-0.3-0.1c0.2-0.1,0.4-0.3,0.5-0.2C454.4,165.9,454.5,166.1,454.7,166.2
		L454.7,166.2z"/>
	<path d="M451,167c0-0.1-0.1-0.2-0.1-0.3C450.9,166.9,450.9,167,451,167L451,167z"/>
	<path d="M438.3,181.9c0.6,0.3,1.1,0.6,2,1.1C439,183.1,438.4,182.8,438.3,181.9L438.3,181.9z"/>
	<path d="M435.3,178.3c0.6,0.1,1.3,0.1,1.6,0.8C436.3,179,435.6,179.1,435.3,178.3z"/>
	<path d="M438.4,181.8c-0.6,0.1-1.3,0.2-1.6-0.6l-0.1,0.1C437.3,181.5,437.8,181.7,438.4,181.8L438.4,181.8z"/>
	<path d="M431.9,169.8c0,0.3,0,0.5,0,0.8c-0.2,0-0.5-0.1-0.7-0.2c-0.1-0.1-0.2-0.2-0.3-0.4c0.1-0.1,0.2-0.1,0.3-0.2
		C431.4,169.8,431.7,169.8,431.9,169.8z"/>
	<path d="M453.2,162.7c-0.1,0-0.2-0.1-0.3-0.1C453,162.6,453.1,162.7,453.2,162.7L453.2,162.7z"/>
</g>
</svg>
