<?xml version="1.0" encoding="utf-8"?>
<!-- Generator: Adobe Illustrator 19.1.0, SVG Export Plug-In . SVG Version: 6.00 Build 0)  -->
<svg version="1.2" baseProfile="tiny" id="Layer_2" xmlns="http://www.w3.org/2000/svg" xmlns:xlink="http://www.w3.org/1999/xlink"
	 x="0px" y="0px" width="900px" height="600px" viewBox="144 97 900 600" xml:space="preserve">
<g>
	<path d="M436.6,480.6c-1.3-0.2-1.9-1.3-2.5-2.3c0-0.8,0.3-1.2,0.9-1.5c1.7-0.8,3.5-1.7,5.4-1.9c3-0.4,6-0.7,9-0.8
		c3.4,0,6.7-0.6,10.1-0.7c0.2,0,0.4-0.2,0.6-0.4c0-0.1,0-0.3,0-0.4c-3.3-7.4-4.1-15.3-4.1-23.3c0-2.3,0.1-4.6,0.2-6.9
		c0.1-2,0.5-4.1,0.7-5.8c0.4-1.3,1.6-1,2.2-1.7c0.1-0.3,0.3-0.6,0.3-0.9c1.3-8.2,4-15.9,8.2-23c2.5-4.1,5-8.2,7.5-12.4
		c1.6-2.6,2.9-5.2,3.9-8c-0.5-1.2-1.3-1.9-2.1-2.6c-2.6-2-4.9-4.3-7-6.8c-1.4-1.6-3-3.2-4.4-4.8c-6.5-7.2-10.7-15.6-13.2-25
		c-0.4-1.4-0.8-2.8-1.1-4.2c-0.8-4.4-2.5-8.5-4.4-12.5c-0.3-0.6-0.4-1.4-0.5-2.1c-0.1-1.3,0.1-2.6,0.5-3.9c1.4-4.3,1.9-8.7,2.6-13.1
		c1-6.2,1.4-12.4,1.5-18.7c0-0.6,0.1-1.2,0.2-1.8c0.7-2.9,1.5-5.8,2.3-8.7c0.4-1.4,0.7-2.8,0.9-4.2c0.2-1.4,0.6-2.8,1.1-4.2
		c0.6-1.8,0.9-3.7,1.2-5.6c0.3-2.6,0.6-5.3,1.4-7.8c0.2-0.8,0.2-1.7,0.2-2.5c-0.1-1.3,0-2.7-0.1-4c-0.4-5.6,0.7-11,1.8-16.5
		c0.4-2,1-3.9,2-5.8c0.6-1,0.9-2.2,1.3-3.4c0.6-1.5,1.1-2.9,1.7-4.4c0.6-1.4,1.5-2.5,2.7-3.3c2.9-2,5.7-4,9-5.2c1.3-0.5,2.7-1,3.9-2
		c1.1-3.6,0.8-7.4,0.8-11.1c-0.7-0.1-0.7,0.5-0.8,0.8c-0.2,0.4-0.3,0.9-0.4,1.4c-0.3,1.8-0.7,3.5-1.8,5c-1-0.4-0.9-1.2-0.8-1.9
		c0.4-2.9,0.7-5.7,1.2-8.6c0.9-5.3,1-10.5-0.4-15.8c-0.7-2.6-1.3-5.1-2.1-7.6c-2-5.6-3.3-11.3-4.3-17.1c-0.3-1.7-0.8-3.2-1.5-4.8
		c-2.1-4.5-3.6-9.2-4.4-14.1c-0.7-4.1,0.3-8,2.5-11.4c1.8-2.9,3.3-5.9,4.5-9c0.3-0.7,0.6-1.3,0.9-2c2.1-4.3,5.6-6.3,10.2-6.1
		c3.8,0.2,7.7,0.2,11.4,1c0.9-0.1,1.2-0.8,1.7-1.4c1.7-1.9,3.6-3.5,5.6-5c1.3-1,2.8-1.8,3.8-3.3c0.5-0.7,1.5-1.1,2.4-1.6
		c3.3-1.7,6.8-2.3,10.4-2.7c9.1-1,18,0,26.7,2.9c1.6,0.5,3.1,1.3,4.9,1.2c0.6,0,1.1,0.3,1.7,0.6c3.8,1.5,6.9,4,9.6,6.9
		c0.6,0.7,1.2,1.6,1.6,2.4c1.7,3.7,3.7,7.3,5,11.2c0.4,1.1,0.9,2.2,1.5,3.3c1.8,3.3,2.2,6.8,1.7,10.5c-0.1,0.9-0.5,1.6-0.9,2.3
		c-0.6,0.9-1.2,1.8-1.7,2.7c0.5,1.1,1.7,0.1,2.2,1c-0.2,1-1.4,1.1-2,1.8c0,0.2-0.2,0.5-0.1,0.7c0.9,3.7,2.5,7,5.1,9.9
		c0.3,0.4,0.6,0.8,0.8,1c1,4-1.4,5.9-4.3,7.4c-0.3,2.1,0.7,3.9,0.9,5.3c0.1,1.8-1.2,2.4-1.8,3.4c1.4,3.6,2,3-0.3,6.7
		c0.3,1,0.7,2,1,3c0.8,3-0.4,6.1-3.2,7.2c-3.7,1.5-7.5,2.6-11.6,1.8c-2.3-0.5-4.8-0.3-6.8-1.4c-1,0.5-0.9,1.3-1,1.9
		c-0.2,2.8,0,5.5,0.4,8.3c0.6,4.3,1,8.6,2.2,12.8c0.3,0.9,0.2,1.9,0.3,2.9l0.1-0.1c-0.6-0.4-1.2-0.7-1.8-1.1
		c-1.4-4.5-3.1-8.9-3.7-13.6c-0.3-2.4-0.6-4.8-0.5-7.2c0-0.8,0.1-1.7,0.3-2.5c0.1-0.6,0.5-1.1,0.7-1.5c1.5-1.2,3.1-1.6,4.8-1.5
		c2.2,0.1,4.3-0.3,6.4,0.6c0.7,0.3,1.7,0.2,2.5,0.1c2.4-0.4,4.7-1,6.9-1.5c2.3-3,2.3-3.7,0.2-8.1c0-1.7,1.7-2.2,2.4-3.6
		c0-1.4-1.3-1.8-2-2.6c-1.8-0.3-3.5,0.7-5.2,0.1c-0.7-0.2-1.4-0.3-1.8-0.7c-0.4-0.7-0.1-1.1,0.4-1.4c1.4-0.3,2.8,0.2,4.2,0.2
		c2,0,3.8-0.4,4.9-2.6c-1.3-1.5-1.7-3.5-1.7-5.4c-1-0.6-1.8,0.4-2.6-0.4c-0.2-1.1,0.6-1.6,1.4-2.1c1.2-0.7,2.3-0.5,3.2,0.4
		c1.2-0.3,2.2-0.6,2.9-1.4c0.4-1.2-0.1-2.1-0.8-3c-2.6-3.3-4.2-7-5.4-10.9c-0.4-1.4-0.7-2.8-0.3-4.3c0.3-1.2,0.6-2.3,1.9-2.8
		c1.1-0.4,1.6-1.4,2-2.5c-0.1-0.5-0.1-1.1-0.4-1.6c-1.8-3.4-2.6-7.2-3.7-10.9c-0.7-2.2-1.2-4.4-2.4-6.5c-0.9-0.5-1.8-1-2.6-1.4
		c-0.9,0-1.1,0.7-1.6,1c-0.4-0.1-0.9-0.3-1.4-0.4c-1.1,0.4-2.3,0.9-3.6,1.4c-1.6-0.8-3.1-2.2-5.2-2c0-0.4,0-0.7,0-1.1
		c-1.1-1.1-2.7-1.5-4-2.2c-3.3-1.5-6.7-3.1-10.2-4.1c-0.8-0.2-1.6-0.6-2.4,0c-0.8,0-0.9-1.1-1.6-1.3c-6.4-0.8-12.9-0.3-19.7-0.9
		c1.8-0.8,3.5-0.2,5.2-1.1c-1.4-0.1-2.5-0.2-3.5-0.3c-0.7,0-1.4,0-2-0.6c1.4,0.3,2.8,0,4.2-0.1c0.5,0,0.9-0.2,0.9-1
		c-1.2,0-2.4-0.1-3.5,0c-0.7,0.1-1.4,0.2-1.6,1.1c-1.6,0-2.4,1.2-3.4,2.4c8.5,1.4,17.2,4,20.1,3.6c0-0.4,0-0.7,0.1-1.1l-0.1,0.1
		c1.5,0.5,2.9,0.5,4.4,0c0.1-0.3,0.3-0.6,0.4-0.9c1.2,1.3,2.7,1.8,4.4,2.3c3.7,1,7.2,2.4,10.5,4.4c0.6,0.4,1.3,0.6,2,0.7
		c-0.7,0.7-1.3,1.4-2.1,2c-0.5,0.4-1.1,0.5-1.6,0.7c-0.5-0.6-0.7-1.4-1.5-1.3c-1.8,0.1-3.6,0.1-5.4,0.1c-0.3,0-0.8,0.1-1,0.3
		c-1.2,1.4-2.8,1.2-4.3,0.8c-1-0.3-2.1-0.3-3.2-0.1c0.2,0.3,0.3,0.7,0.5,0.7c2.5,0.7,5,1.3,7.7,1c0.7-0.1,1.1-0.9,1.9-0.7
		c-0.1,1.3-0.2,2.6-0.2,3.9c-0.1,1.4-0.2,2.9-0.9,4.2c-0.6,1.1-0.6,2.3-0.4,3.4c-0.5,1.1-1.6,1.2-2.3,1.9c-0.5,0.8,0.2,2.2-1.3,2.6
		c0.3,0.5,0.6,0.9,0.9,1.4c-0.2,0.3-0.3,0.7-0.6,0.9c-2.6,1.7-4.6,4.2-7.6,5.4c-0.4,0.2-0.7,0.6-1,1c-2,2.5-4.5,3.5-8,3.1
		c2.2,1.5,4.2,1.1,6.1,0.5c0.6,0.4,0.5,0.9,0.1,1.2c-1.9,1.9-3.6,2.2-5.8,1c-1.6-0.8-3.1-1.9-4-3.5c-0.6-0.9-1.3-1.7-2.2-2.3
		c-1.1-0.7-2.3-0.8-3.4,0c-3.1,2.3-4.8,5.3-4.2,9.9c1.3-2.8,1.7-5.5,3.4-7.4c1-0.6,2-0.6,2.8,0.1c1.6,1.3,3.4,2.3,4.6,3.8
		c0.8,2,1,3.9-0.3,5.3c0.3,1.4,1.3,1.4,2,1.9c0.6,0.4,1.2,0.8,1.4,1.8c-0.2,1.3-1.3,2.2-2.2,3.2c-0.9,0.1-1.4-0.2-1.5-0.9
		c-0.4-2-1.1-3.9-2.1-5.2c0-1.7,1.3-2.2,1.6-3.2c0.1-1-0.5-1.6-1.3-2.3c-1,1.2-1.9,2.3-2.7,3.3c-0.9,3.4,2.1,5.3,3,8
		c-0.3,0.3-0.4,0.7-0.7,0.9c-0.5,0.4-1.2,0.4-1.7,0.1c-1.5-0.7-2.4-1.9-3.1-3.4c-0.5-1-0.5-2.1-0.6-3.1c-0.5-1-2.1,0-2.3-1.7
		c-0.5,0.6-0.8,1-1,1.3c0,0.3,0,0.6,0.1,0.8c2.8,3.9,5.6,7.8,8.4,11.7c0.8,1.1,1.9,1.8,2.9,2c1.6,0,1.8-1.5,2.8-1.8
		c1,0.5,0.9,1.4,0.7,2.2c-0.2,1-1,1.7-1.9,2c-1.1,0.3-2.3,0.5-3.5,0.7c-1.9-0.8-2.2-2.8-3.6-4.3c-3-0.2-6-1.5-9.1-2.4
		c0-0.3,0-0.7-0.4-0.3c0.2,0.1,0.3,0.2,0.5,0.2c0,2,1,3.7,2,5.3c0.3,0.4,0.7,0.7,1.2,0.2c-0.2-0.5-0.4-1-0.6-1.6
		c0.2-0.1,0.5-0.3,0.7-0.2c1.9,0.8,3.7,1.8,5.7,1c1,0.9,0.4,1.7,0.3,2.4c-1,1.3-2.7,1.6-4,2.7c0.1,2.2,0.2,4.5,0.4,6.8
		c0.4,5.4-0.5,10.6-1.9,15.7c-0.6,2.1-1.5,4-3,5.7c-1.3,1.5-1.2,1.7,0.3,3.9c0.8,0.1,1.7,0.3,2.5,0.5c1.8,1.2,3.5,2.3,5.2,3.4
		c1.7,1.2,3.3,2.4,5.1,3.7c4.5-0.5,9.1-1.4,13.8-0.7c4.6,0.7,9.4-0.1,14,1.9c1.4,1.8,3.1,3.5,4.3,5.5c-0.3,0.7-0.8,0.8-1.2,0.4
		c-0.6-0.6-1.2-1.2-1.7-1.8c-0.8-1-1.6-2.1-3.1-3.1c-7.8-0.7-16.1-0.3-24.2-1.7c-0.5,0.6-0.3,0.9-0.1,1.1c3.6,2.9,6.7,6.2,9.9,9.5
		c0.6,0.6,1.2,1.2,1.8,1.7c1.5,1.1,2.5,2.6,3.4,4.1c0.9,1.5,1.9,3.1,3.1,4.4c2.4,2.6,5.1,4.7,8.6,5.7c4.9,1.3,9.7,2.7,14.6,4
		c2.5,0.6,5,0.7,7.5,0.5c1.6-0.2,3.1-0.1,4.7-0.1c1,0,1.9-0.2,2.6-1.3c-1.3-4.5-3.8-8.6-6.4-12.5c0.1-0.7,0.2-1.3,0.3-1.8
		c-1.2-1.7-2.8-3-4.4-4.3c-0.5-0.4-0.6-0.9-0.2-1.5c3.2,1.9,5.8,4.2,8,7.1c1.6,2.1,3.1,4.2,5.2,5.9c2.9,2.4,5.4,5.1,8.6,7.2
		c3,1.9,5.8,4.4,8.3,6.9c2.6,2.6,5.2,5.3,7.9,7.9c5.3,5.2,7.4,11.7,7,19c-0.1,1.2-0.1,2.4,0.1,3.6c0.6,3.2-0.2,6.2-1.9,9
		c-1.4,2.3-2.9,4.4-4.5,6.6c-1.2,1.6-2.4,3.3-4.6,3.8c-2,1.8-4.4,3-6.8,4l0.1,0.1c-0.6-0.8-1.3-0.5-1.8,0c-0.6,0.5-0.3,1,0.3,1.4
		l-0.1-0.1c0,0.2,0.1,0.5,0,0.7c-1.4,4-2.2,8.1-3.1,12.2c-0.5,2.5-1.4,4.8-2.3,7.2c-0.4,1-0.8,2.1-1.5,2.8c-2.9,3-4.7,6.7-6.9,10.1
		c-2.2,3.6-4.7,7-7.5,10.2c-0.9,1-1.6,2.1-1.9,3.4c-0.6,2.3-1.4,4.6-1.7,7c-0.8,5.4-1.5,10.7-0.4,16.1c0.4,1.8,0.5,3.6,0.2,5.4
		c-0.1,0.5,0,1,0,1.4c0.6,5.6,0.6,11.3,2.1,16.8c-0.7,2.1-1.1,4.2-0.8,6.4c0.3,0.2,0.6,0.5,0.9,0.5c4.2,0,8.3,1.1,12.6,1.3
		c1.6,0,3.1,0.2,4.7,0.3c2.8,0.1,5.5,0.5,8.3,0.4c4.2-0.1,8.4,0.1,12.6,0.4c4.1,0.3,8.2,0.7,12.2,1c4.3,0.3,8.6,0.9,12.9,1.1
		c3.5,0.2,6.9,0.8,10.3,1.6c4.4,1,8.8,1.3,13.2,2c7.6,1.1,15.3,1.4,22.9,2.8c2.3,0.4,4.4,1,6.5,2.1c2.5,1.3,5.1,2.7,7.8,4.1
		c1.4,2.3,3.2,4.3,5.5,5.9c1.6,1,2.4,2.5,2.6,4.5c0.5,4.8,1.1,9.6,0.8,14.4c-0.2,4.7-0.3,9.4-0.4,14.1c0,1.1,0.3,2.1,0.5,3.2
		c1.3,6.6,2.5,13.3,2.6,20c0.1,2.3,0.1,4.6-0.1,6.9c-0.4,4-0.3,7.9-0.2,11.9c0.2,6.3,0.6,12.5-0.1,18.8c-0.7,6.9-0.5,13.7-0.5,20.6
		c0,6.4,0,12.8-0.4,19.1c-0.3,5.3-0.3,10.6,0,15.9c0.2,3.7,1,7.4,1.5,11.1c0.1,0.6,0.4,1.2,0.3,1.8c-0.4,3.2,0.5,6.2,1,9.3
		c0.3,1.7,0.5,3.3,0.5,5c0.1,2.8,0.9,5.4,1.6,8.1c1.7,0.3,3.2-1.1,5.1,0.2c0.5,0.9,1.5,1.9,2.6,2.8c4,3.5,7.8,7.2,10.9,11.5
		c1.2,1.7,2.6,3.1,4.5,4c1.3,0.6,2.5,1.4,3.8,2.1c2,1.1,3.9,2.4,5.4,4.1c0.9,1.1,2.1,1.9,3.4,2.7c2.7,1.6,5.3,3.4,7.6,5.5
		c1.3,1.2,2.6,2.5,4.5,2.9c3.4,2.6,7.6,2.9,11.5,3.9c1.4,0.4,2.8,0.8,4.1,1.2c2.1,0.7,3.5,2.2,4.1,4.2c1.1,3.5,1.5,7.1,1,10.7
		c-0.1,1-0.4,1.9-1.4,2.7c-3.6,0.4-7.2,1.9-11.1,1.8c-6.3-0.2-12.5,0.7-18.7,1c-1.8,0.1-3.6,0.1-5.4,0.1c-0.9,0-1.9,0.1-2.7,0.2
		c-1,1.6-0.5,3.5-2,5c-3.1,0.6-6.3,1.3-9.6,1.9c-0.8,0.2-1.7,0.2-2.5,0.1c-3.9-0.6-7.7,0.3-11.5,0.6c-6,0.5-12,0.4-18.1,0.5
		c-2.6,0-5.3-0.1-7.9,0.4c-1,0.2-2.2,0.1-3.2,0c-7.1-0.7-14.1-1.5-21.1-3c-3.1-0.7-6-1.1-9.2-0.6c-7.6,1.1-15.1-0.2-22.6-1.6
		c-2.2-0.4-4.5-1-6.7-1.5c-0.7-0.2-1.4-0.4-2-0.7c-4.3-2-4.1-3.7-2.5-6.8c1.3-2.6,2.2-5.4,2.8-8.2c0.4-2.2,1.1-4.2,2.1-6.1
		c1.4-2.6,2.1-5.4,2.1-8.3c0.1-1.9,0.4-3.8,1.3-5.6c0.7-1.3,0.9-2.7,1.2-4.1c0.5-3,1.5-5.8,4.2-7.5c0.9-0.3,1.3,0.6,2.1,0.6
		c0.1-0.1,0.4-0.3,0.4-0.5c1.2-4.7,1.8-9.4,0.8-14.3c-0.5-2.2-0.6-4.5-0.8-6.8c-0.7-7.6-2.3-15-4.2-22.3c-1.2-4.7-2.5-9.3-3.7-14.1
		c0.2-0.4,0.5-0.9,0.7-1.5c-0.1-0.3-0.1-0.7-0.2-1c-1-3.2-2-6.4-3-9.7c-0.4-1.4-0.9-2.8-1.1-4.2c-0.5-4.1-2.2-7.9-3.7-11.6
		c-3.2-7.8-5.7-15.9-7.1-24.2c-0.5-3.1-1.2-6.1-1.8-9.2c-1.3-7.6-1.1-15.1,0.3-22.6c0.3-1.8,0.4-3.6,1.3-5.2
		c0.3-0.5,0.2-1.1,0.2-1.9c-1.6-0.4-2.9,0.2-4.3,0.6c-1.1,0.3-2.2,0.9-3.4,1.2c-3.1,0.8-6.2,1.8-9.4,1.1c-0.8,0.7-0.6,1.5-0.5,2.1
		c0.1,0.7,0.3,1.4-0.3,2.4c-1.4,0.5-3.1,1.2-4,2.8c-3.6,0.7-7.3,0.6-10.5,1.7c-0.5,0.9-0.4,1.7-0.2,2.3c1.7,6,1.8,12.1,2.7,18.2
		c1.6,11.1,2.6,22.2,4.7,33.3c0.6,3.2,0.8,6.4,1.1,9.7c0.7,6.8,1.2,13.7,2.2,20.5c1.3,8.6,2.1,17.2,3,25.8c0.4,3.8,1.1,7.6,1.6,11.4
		c0.4,2.9,0.8,5.7,1,8.6c0.3,4.9,1.3,9.8,1.9,14.7c0.4,3.1,0.7,6.2,0.8,9.3c0.1,2.2,0.3,4.3,0.7,6.5c0.4,1.9,0.3,3.8,0.4,5.6
		c-1.2,1.6-2.7,2.3-4.3,2.8c-3,0.8-6,0.3-8.9-0.7c-2.1-0.7-3.5-2.6-4.3-4.6c-0.7-1.9-1.4-3.9-1.3-6c0.2-5-0.9-9.8-1.1-14.7
		c-0.2-4.6-0.8-9.1-1.2-13.7c-0.2-2.4-0.5-4.8-0.9-7.2c-0.4-2.5-0.6-5-0.6-7.6c0.1-3.4-0.5-6.7-1-10c-1.5-9.4-2.7-18.8-4.1-28.2
		c-0.4-2.7-1-5.5-1.3-8.2c-0.5-5-1.2-10.1-1.3-15.1c-0.2-5.7-0.6-11.3-1-16.9c-0.3-3.8-0.4-7.7-0.6-11.5c-0.3-3.9-0.3-7.9-1.5-11.7
		c-0.8-2.4-0.8-5-1.2-7.5c-0.2-1.1-0.3-2.1-0.5-3.3c-2.2-0.2-4.2-0.1-6.3,0.1c-6.7,0.5-13.4,1.3-20.3,1c-1.5,1.1-3.2,1.1-5.1,1.3
		c-3.1,0.2-6.2-0.3-9.1-0.1c-0.9,0.6-0.8,1.4-0.8,2.1c0,5.8-0.1,11.6,0,17.3c0.3,21.1,0.7,42.2,0.5,63.2c-0.1,9.6-0.3,19.3-0.6,28.9
		c-0.1,3.1-0.4,6.3-0.8,9.4c-0.6,4.6-0.7,9.1-0.6,13.7c0.2,9.3,0.2,18.5,0.3,27.8c0,3.3,0,6.5,0,9.8c0,1.9-0.2,3.8,0.7,5.7
		c0.4,0.9,0.1,1.9-0.6,2.7c-0.1,0.1-0.2,0.2-0.2,0.3c-2,3-5.1,3.9-8.3,4.4c-3.2,0.6-6.3,0.6-8.6-1.9c-4.9-0.4-5.1-0.6-6.4-5.6
		c0.9-2,1.1-4.2,0-6.4c-0.4-0.9-0.3-2.1-0.3-3.2c0-5.4-0.2-10.8,0.6-16.2c0.3-1.9,0.1-3.8,0.2-5.8c0.1-3.6,0.1-7.2,0.6-10.8
		c0.3-2.3,0.3-4.6,0.3-6.9c0.1-6.5,0.2-13,0.3-19.5c0-3,0.3-6,0.8-9c0.3-1.6,0.3-3.4,0.3-5c0.1-2.2,0-4.3,0-6.5
		c0-4.2-0.1-8.4,0.4-12.6c0.2-1.9,0.2-3.8,0.3-5.8c0.1-3.4,0.2-6.7,0.4-10.1c0.5-7.6,0.7-15.2,1.1-22.7c0.3-5.2,0.4-10.3,1-15.5
		c0.5-4.9,0.9-9.8-0.3-14.7c-0.3-1.2-0.2-2.4-0.1-3.6c0.1-1.1,0.1-2.1,0.2-3.4c-6.5-0.9-13-0.9-19.4-1.6c-6.4-0.8-12.8-1.6-19.4-2.1
		c-0.4,3.9-1.7,7.4-1.5,11.2c0.1,1-0.1,1.9-0.3,2.9c-0.8,4.6-1.6,9.2-2.4,13.9c-1.1,6.4-2.9,12.7-4.3,19c-1.7,7.4-3.3,14.8-5.3,22.1
		c-1.4,5.1-2.1,10.4-2.8,15.6c-1,7.4-2.7,14.7-4.2,22c-0.5,2.6-1.2,5.2-1.7,7.8c-0.4,2.2-0.8,4.5-1,6.8c-0.5,6.6-1.8,13.1-3.4,19.5
		c-0.8,3.3-1.5,6.6-2.3,9.9c-0.5,2.2-1,4.5-1.6,6.7c-1,3.6-2.1,7.1-1.9,10.9c0,0.6-0.2,1.2-0.5,1.7c-0.9,1.7-2.5,2.6-4.1,3.4
		c-1.2,0.6-2.6,0.4-3.8-0.3c-0.2-0.1-0.5-0.1-0.7-0.2c-0.2,0.1-0.5,0.1-0.7,0.2c-3,0.9-4.2,0.5-5.7-2.1c-0.9-1.5-1.2-3.1-0.9-4.9
		c0.7-4.1,1.5-8.3,2.1-12.4c0.5-3.7,0.8-7.4,1.2-11.1c0.5-3.9,1.1-7.9,1.7-11.8c1.4-9.3,3.6-18.4,5.2-27.7c0.7-3.9,2.2-7.6,2.6-11.5
		c0.4-3.8,1.3-7.6,2.1-11.4c0.8-3.9,1.9-7.7,2.6-11.6c1.2-5.8,2.1-11.6,3.3-17.4c1.7-8.2,3.5-16.5,5.3-24.7
		c1.5-6.8,2.4-13.7,2.9-20.7c0.2-2.9,0.9-5.7,2.5-8.2c-3.2-1.2-5.4-1.6-9.1-1.5c-1.4-1.3-1.5-3.2-1.7-5c-0.2-2.1-0.2-4.3-0.2-6.5
		c0-1,0.3-1.9,0.8-2.7C435.7,482,436.1,481.2,436.6,480.6c0.2,0.1,0.5,0.4,0.9,0.8c-1.1,2-0.7,4.2-0.4,6.3c0.3,2.2-0.4,4.6,0.9,6.7
		c0.7,0.2,1.4,0.5,2.1,0.5c2.4,0,4.7,0.8,7.1,1.2c1.4,0.3,2.8,0.6,4.2,0.9c1.1,0.2,2.1,0.2,3-0.2c0.2-0.4,0.3-0.6,0.5-1
		c0.3,1.2,1.1,1.5,1.9,1.7c2.1,0.4,4.2,0.9,6.4,1.2c3.9,0.5,7.9,1,11.8,1.3c3.6,0.3,7.2,0.6,10.8,0.8c4,0.2,7.9,0.4,11.9,0.6
		c1,0,2,0.3,2.9,0c1.9-0.7,3.8-0.5,5.7-0.4c4.1,0.1,8.2,0.4,12.3,0.3c5.8,0,11.5-0.2,17.3-0.5c3.8-0.2,7.7-0.5,11.5-0.8
		c0.5,0,0.9-0.2,1.2-0.3c0.8-1,0.2-2.3,0.9-3.3c0.8,0.8,0.2,2.1,1.2,2.9c0.3,0,0.7,0.1,1,0.1c4.9-0.3,9.9-0.5,14.8-0.8
		c1.7-0.1,3.3-0.6,5-0.7c4.5-0.1,8.8-1.2,13.2-1.5c0.8,0,1.6-0.4,2.4-0.7c0.3-0.1,0.6-0.4,0.8-0.6c0.3-0.9,0.7-1.8,0.5-2.9
		c-1.7-0.2-3.4-0.1-5,0.4c-2,0.5-4,0.6-6.1,0.6c-3.4-0.1-6.7-0.1-10.1-0.2c-1.7,0-3.4,0.2-5-0.5c-0.7-0.3-1.4-0.2-2.1,0
		c-4.8,1.3-9.7,1.9-14.6,2.4c-4.8,0.6-9.6,1.1-14.4,0.4c-1.2-0.2-2.4-0.1-3.6,0.1c-3.6,0.6-7.2,0-10.7-0.6c-8.7-1.4-17.3-2.7-26-4
		c-5.4-0.8-10.6-1.9-16-3.5c-1.2-1.8-2.9-3-5.3-3.2c-0.9-0.1-1.8-0.6-2.8-1c0.5-0.2,0.9-0.2,1-0.7c-1.6-1.4-3.9-1.9-5.4-3.5
		c-0.3-0.8,0.2-1.8-1-2.6c-2.3-0.4-4.9-0.1-7.5,0.3c-4.1,0.6-8.1,1.1-12.2,1c-0.6,0-1.2-0.1-1.8,0.1
		C438.7,478.2,437,478.5,436.6,480.6z M637.5,645.3l0.1,0.1L637.5,645.3c-0.1-0.4-0.3-0.6-0.7-0.7c-0.6-3-0.6-5.9-0.1-8.9
		c0.3-1.5,0.5-3.1,0.9-4.6c0.2-0.8,0.4-1.7-0.3-2.5c-0.8,0.6-0.8,1.3-0.9,2c-0.1,3.4-0.5,6.7-1.6,9.9c-0.4,1.2-0.2,2.4,0.5,3.4
		c0.4,0.5,0.9,0.8,1.5,0.6C636.8,645.1,637.1,645.2,637.5,645.3z M558.8,115.5l-0.2-0.1L558.8,115.5c0.3,0.2,0.5,0.5,0.8,0.7
		c0.2,0.2,0.4,0.5,0.6,0.7l0.2,0.1l-0.2-0.1c-0.2-0.2-0.4-0.4-0.6-0.7C559.2,116,559,115.8,558.8,115.5z M548,117l-0.1-0.1L548,117
		c0.1,0,0.2,0.1,0.3,0.2C548.1,117.1,548,117,548,117z M544.3,112.7c-0.2-0.2-0.3-0.6-0.8-0.3C543.8,112.4,544.1,112.5,544.3,112.7
		c0.4,0.5,0.9,0.6,1.5,0.7c0.3,0.7,0.9,0.8,1.5,0.6c1.2,1.8,3.2,2.6,5,3.7c0.1,0.4,0.3,0.7,0.8,0.7c-0.1,0.7-0.3,1.4,0.4,1.9
		c0.5,0.2,1.1,0.4,1.5-0.2c-0.3-1-1-1.4-2-1.6c0-0.5-0.3-0.7-0.8-0.7c0.1-0.5,0-0.9-0.4-1.2c-1.4-1.1-2.8-2.1-4.5-2.4
		c-0.3-0.7-0.8-0.8-1.5-0.7C545.5,112.6,544.8,112.8,544.3,112.7z M534.2,116.3c-0.4-0.7-0.9-0.9-1.7-0.2
		C533.1,116.1,533.7,116.1,534.2,116.3c0.5,0.5,1,0.8,1.8,0.1C535.3,116.3,534.7,116.3,534.2,116.3z M493.7,174.1
		c-0.1-0.3-0.1-0.6-0.2-1C493,173.7,493.4,173.9,493.7,174.1c0.1,0.8-0.1,1.7,0.9,3.1C494.4,175.7,494.3,174.8,493.7,174.1z
		 M639,424.2c-0.5-0.8-1.3-0.8-2.4-0.3C637.6,424,638.4,424,639,424.2c0.4,0.3,0.8,0.5,1.3,0.5c0.8,0,1.6,0.1,2.4,0.1
		c1,1.1,2.5,1.2,3.8,1.5c3.8,1,7,2.9,9.4,5.9c0.3,0.4,0.6,0.8,0.3,1.6c-0.1,0.4-0.9,0.2-1.4,0.5c0-0.1,0-0.2-0.1-0.3
		c0-0.1-0.2-0.1-0.2-0.1c-0.1,0.2,0,0.3,0.4,0.3c0,0.8,0.6,1.3,1,1.8c0.8,1,1.7,2,2.5,3.1c1.8,2.5,2.8,5.3,2.1,8.4
		c-0.4,0.4-0.7,0.7-1,1c-0.1,3.2-0.2,6.3-0.3,9.4c-0.3,4.2,0.3,8.4-0.4,12.6c-0.1,0.7,0.1,1.5,0.9,1.8c0.7,0.2,1.4-0.7,2.1-0.1
		c-0.3,1.1-1.6,1.5-1.8,2.8c0.6,4.8,1.2,9.8,1.9,14.8c0.5,3.6,0.7,7.2,0.2,10.8c-0.6,4.5-0.4,8.9-0.4,13.3c0.1,4.1,0.4,8.2,0.3,12.3
		c-0.1,4.7-0.5,9.4-0.8,14.1c-0.2,3.7-0.5,7.5,0.4,11.1c0.7,3,1.8,6,2.6,9c2.3,8.1,4.7,16.2,6.4,24.4c0.6,3.1,1.3,6.1,2.1,9.1
		c2.2,8.7,3.7,17.4,3.4,26.4c-0.2,4,0,7.9,0,11.9c0.6,0.8,1.3,1.6,2,2.4c0.6,0.6,1.3,1.1,2.2,1l-0.1-0.1c0.7,1.3,0.7,3.1,2.6,3.8
		c3.9-2.6,8-4.8,12.2-7c1.7-3.5,4.2-6.4,6.7-9c0.3-1.6-0.1-2.9-0.5-4.1c-0.6-2.3-1-4.7-1.1-7.1c-0.1-1.3-0.2-2.6-0.5-3.9
		c-0.8-4.1-1.8-8.2-1.6-12.5c0-0.5-0.2-0.9-0.2-1.4c-0.3-3.3-1.3-6.6-1.2-10c0.1-4.7,0-9.4,0.1-14.1c0.1-5.4,0.4-10.8,0.5-16.2
		c0.1-5.7,0-11.3,0-17c0-1.2-0.1-2.4-0.1-3.6c-0.3-7.2-1.2-14.4,0.4-21.6c0.1-0.3,0-0.7,0-1.1c-0.1-6.6,0.2-13.2-0.4-19.8
		c-0.1-0.8-0.1-1.7,0.1-2.5c0.6-1.9,0.3-3.8,0-5.7c-0.5-3.5-1.1-6.9-1.7-10.3c-0.5-3.1-1.2-6.1-1.3-9.4c1.6-1.2,1.6-3.1,1.5-4.9
		c-0.1-4.5-0.1-8.9,0.9-13.3c0.1-0.2-0.1-0.5-0.1-0.9c-1.4-1.6-3-3.2-4.5-4.9c-0.7-0.8-1.3-1.7-2.1-2.5c-0.9-0.9-0.4-2.4-1.4-3.4
		c-1.1-0.4-2.3-0.9-3.6-1.2c-2.4-0.7-4.9-1.3-7.3-1.9c-3.8-1-7.7-1.9-11.6-2.4c-4.8-0.6-9.5-1.3-14.3-1.9c-3.1-0.4-6.2-1.2-9.3-1
		C641.5,424,640.2,424.4,639,424.2z M541.4,106.9c-0.4-0.5-0.9-0.7-1.8-0.2C540.4,106.7,541,106.7,541.4,106.9
		c2.1,1.4,4.5,2.5,6.9,3c0.2-0.5-0.1-1-0.4-1.2C545.8,107.8,543.8,106.8,541.4,106.9z M532.7,106.9c1.9,0.9,3.9,0.6,5.9,1.1
		C536.8,106.6,534.7,106.9,532.7,106.9c-0.3-0.1-0.6-0.5-0.9-0.5c-1.7-0.3-3.3-0.5-5-0.6c-3.3-0.2-6.7-0.1-10.6,0.9
		C522.2,106.7,527.4,106.8,532.7,106.9z M495.1,171.9l0.2,0.1L495.1,171.9c0-0.3,0.1-0.7,0-1c-0.6-3.2-1.1-6.4-2.2-9.4
		c-0.7-1.8-1.2-3.7-2-5.4c-1-1.9-1.1-3.8-1.1-5.8c0-0.2-0.2-0.5-0.2-0.7c-0.4-2.2-0.8-4.5-0.8-6.8c0-1.9-0.2-3.8-0.3-5.7
		c-0.8,1.4-0.8,2.8-0.8,4.2c-0.1,4.3,0.2,8.6,0.8,12.9c0.9,6.2,2.5,12.2,6.3,17.4C494.9,171.7,495,171.8,495.1,171.9z M503.8,127
		c0.2,0.4,0.4,0.8,0.9,0.3C504.4,127.2,504.1,127.2,503.8,127c-0.3-0.6-1.4-0.6-1.5-1.5c1.5,0,2.8,0.8,4,1.4c3.5,1.7,7.1,2.9,10.8,4
		c2.1,0.6,4.2,0.7,6.4,0.3c3.4-0.6,6.8-1.3,10.1-2.8c1.3,0.7,2.7,0.7,4.2,0.5c0.2,0,0.4-0.3,0.7-0.5c-0.1-0.8,0.8-1.6,0-2.8
		c-4,2.7-8.5,2.6-13.1,2l0.1,0.1c0.3-0.6,1.1-0.8,1-1.8c-0.1-0.8,1.4-0.5,1.4-1.5c-1.8-0.7-3.7-1.5-5.7-1.8
		c-3.5-0.6-7.1-1.2-10.6-1.9c-3-0.6-6-1.6-9.1-0.6c-0.9-1.6-0.9-2-0.2-2.6c0.9-0.8,2-0.8,3-0.8c2.9,0.1,5.7,0.7,8.5,1.4
		c4.2,1,8.3,2.3,12.6,2.8c0.3,0,0.5-0.1,0.3-0.3c-0.5-0.4-0.9-0.8-1.7-1.5c3.6,0.5,6.9,1.6,11.1,1.2c-2.2-0.6-3.7-0.9-5-1.5
		c-0.9-0.4-2.2-0.2-2.8-1.3l-0.1,0.1c1.8-0.4,3.4,1.1,5.5,0.4c-2.3-1.2-4.4-2-6.8-1.8c-1.1,0.1-2.1,0-3.2-0.4
		c-0.8-0.3-1.6-0.4-2.5-0.5c-4.7-0.4-9.3-0.8-14-1.2c-1.1-0.1-2.1-0.3-3.2,0c-3.5,2.5-6.3,5.1-7.8,7.4c0.2,0.8,0.9,1.1,1.5,1.4
		c1,0.5,2.3,0.7,3,1.8c-1.6,0.1-2.8-1.3-4.3-1.4c-0.6,0.3-0.8,0.7-0.6,1.4c0.9,1,2.3,1.8,3.7,2.5c1.4,0.7,2.8,1.4,4.2,2
		c1.6,0.7,3.2,1.1,4.7,1.8c1.4,0.6,3,0.6,4.2,1.6c-0.3,0.6-0.6,0.7-0.9,0.6c-3.6-0.8-7.3-1.5-10.7-3.3c-2-1.1-4.1-2.1-5.9-3.4
		c-0.2-0.1-0.4,0-0.7-0.1c-0.2,0.3-0.4,0.6-0.5,0.9c-0.1,0.3-0.1,0.7-0.1,1.2c2.9,2.9,6.8,4.5,10.3,6.5c1.9-0.6,3.6,0.1,5.3,0.6
		c2.7,0.9,5.5,1.1,8.2,1.1c2.5,0,5-0.8,7.7-1.7c-3.3-1.3-6.4-2-9.7-1.9c-0.8-0.9-1.8-1.3-2.8-1.7c-3.2-1.1-6.3-2.3-9.5-3.4
		c-0.4-0.2-0.9-0.3-0.8-1C503.2,127.2,503.5,127.1,503.8,127z M498,140.8c0,0.1,0.1,0.2,0.1,0.2c0,0,0.1,0,0.2,0
		C498.2,141,498.1,140.9,498,140.8c0.1-0.4,0.2-0.8,0.4-1.3c6.5,1.9,12.7,4.6,19.6,4.8c1.8-1.1,3.6-1.7,5.7-2
		c2.2-0.3,4.4-1.2,6.6-1.9c0.6-0.2,1.4-0.4,1.1-1.6c-3.6,1.1-7.3,1.7-10.9,1.9c-0.3-0.4-0.6-0.6-0.8-0.9c-0.3-0.4-0.5-0.8-0.7-1
		c-3.8-0.2-6.9-1.7-10.3-1.8c1.1,0.8,2.3,1.3,3.5,1.9c0.6,0.3,1.4,0.4,1.7,1.2l0.1-0.1c-0.9,0.2-1.7-0.1-2.5-0.4
		c-5.8-2.1-11.4-4.6-16.4-8.2c-0.5-0.3-0.9-0.8-1.9-0.5c-0.2,2.1-1,4.2-0.7,6.6C494.2,139,495.8,140.4,498,140.8z M506.8,168.2
		c0,0.1,0,0.2,0,0.3c0,0.1,0.1,0.1,0.2,0.1C506.9,168.5,506.8,168.4,506.8,168.2c-0.4-1.4-1.5-2.4-2.3-3.6c-1.1-1.6-2.3-3.1-2.2-5.4
		c1-1.1,1.2-2.7,1.2-4.2c0-1.8,0.3-3.6,1.3-5.3c0.5-0.5,1.2-1,1.8-1.6c1.9-1.9,4.1-2.4,6.6-1.2c0.2,0.1,0.5,0.1,0.7,0.2
		c0.6-0.3,1.4-0.3,1.6-1.1c-0.7-0.7-1.6-0.5-2.4-0.7c-2.1-0.4-4.3-0.7-6.4-1.2c-2.3-0.6-4.7-1-7.1-1.2c-2.2-0.2-4.3-0.6-6.2-1.7
		c-0.4-0.2-0.8-0.5-1.3,0.1c-0.2,0.7,0.2,1.3,0.7,1.9c1.5,2,3.7,3,5.8,4.1c1.3,0.6,2.6,1.1,3.9,1.7c-4.2,0.6-7.4-1.8-10.7-3.9
		c-0.1,0.6-0.3,1.1-0.1,1.3c1.4,2.4,3.6,4,6.2,5.4c-0.8,0.4-1.4,0.3-1.9,0.1c-0.7-0.3-1.3-0.6-2-0.8c-0.5-0.2-0.9-0.9-1.7-0.3
		c0.8,2.8,1.7,5.5,3.9,7.5c1.3,1.1,2.5,2.2,3.8,3.4c0.5,0.5,1.3,0.7,1.2,1.6c-0.6,0.5-1.4-0.5-2.1,0.3c2.1,2.1,4.3,4,7.3,4.7
		C506.5,168.3,506.7,168.2,506.8,168.2z M485,177.1c0.6,0.4,0.6,1,0.7,1.6c0.9,5.1,1.7,10.2,1.7,15.4c0,7.5-1,14.9-3.5,22
		c-0.1,0.3-0.1,0.5,0.4,0.7c1.1,0.1,2.1-0.5,3.1-1.4c0.5-4.2,0.5-8.6,0.5-12.9c-0.1-4.8-0.3-9.6-0.1-14.4c0.2-5.7-0.6-11.3-1.9-16.8
		c-0.9-4.1-2-8.2-1.9-12.5c0.1-3.4-0.1-6.7-0.3-10.1c-0.4-6.5,0.4-12.7,3.8-18.5c0.7-1.1,1.3-2.3,2.5-3.1c1.4-1,2-2.5,2.7-4
		c-1-0.8-1.7,0.3-2.6,0c-0.9-0.3-1.9-0.5-2.8-0.1c-5.8,4.9-8.4,10-8.8,17.5c-0.1,2,0,4,0,6.5c-1.1-1.8-1.3-3.3-1.4-4.9
		c-0.1-2.8,0-5.6,0.8-8.2c1.3-4.4,4.3-7.6,7.5-10.8c-0.4-0.2-0.7-0.4-0.9-0.3c-2.3,0.1-4.5,0.8-6.4,2.2c-1,0.8-2,1.8-3.2,2.3
		c-1.2,0.5-2,1.3-2.5,2.4c-3.1,5.6-4.3,11.4-2.8,17.7c0.8,3.4,1.8,6.7,2.8,10.1c1.2,4,3.4,7.6,3.4,12c0,2,1.1,3.9,1.8,5.8
		c1.1,3.3,2.6,6.5,3.4,9.9c0.1,0.4,0.4,0.7,1.1,1.8c-1.2-8.2-1.7-15.6-4.1-22.8c-0.1-0.3,0-0.7-0.1-1.1l-0.1,0.1
		c0.4,0.2,0.8,0.5,1.3,0.7c0.2-2.1-0.9-3.9-0.5-6c0.7,1.2,1.1,2.6,1.4,4c1.5,6.6,2.6,13.2,3.5,19.9c0.9,6.1,1,12.2,0.5,18.4
		c-0.3,3.2-0.4,6.5-0.5,9.7c0,0.5-0.1,1.1,0.5,1.8c0.5-1.8,1-3.5,1.4-5.3c-0.8-1.2-0.6-2.6-0.5-3.9c0.1-2.3,0.4-4.6,0.4-6.8
		c0.1-2.6,0.2-5.3,0-7.9C485.2,184.2,485,180.6,485,177.1L485,177.1z M734.4,650.4c-2.7,0.3-5.5,0.6-8.2,1c-1.1,0.1-2.2,0.3-3.2-0.1
		c-0.7-0.2-1.3-0.6-1.4-1.5c0.1-1.3,1.1-1.8,2.2-2.1c1.7-0.6,3.5-0.9,5.3-1.1c0.5,0,1.2,0.2,1.5-0.7c-1-1.2-2.3-2-3.8-2.8
		c-0.9,2-2.7,2.6-4.6,3c-1.3,0.3-2.5,0.8-3.8,1.1c-1.6,0.4-3.2,1.1-4.8,1.1c-0.7-1.6-0.8-1.7-0.4-2.4c0.8-1.5,2.1-2.3,3.6-2.9
		c2.3-0.9,4.6-1.2,7-1.6c0-0.8-0.5-1.2-0.9-1.6c-0.4-0.4-0.7-1-1.6-1c-3.8,1.9-7.8,3.9-12.2,4.3c-0.7-1.7-0.7-2.2,0.2-3
		c1.1-1,2.4-1.5,3.8-2c2.1-0.8,4.2-1.6,6.5-2.7c-2.8-4.3-6.6-7.5-9.3-11.5c-3.7,0.9-6.4,3.1-8.4,6.1c-1.9,2.9-4.5,5-7.5,6.7
		c-2.7,1.5-5.4,3.2-8,4.9c-0.6,0.4-1.3,0.6-1.3,1.6c0.5,1.3,1.6,2.1,2.7,2.7c1.3,0.8,2.7,1.6,4.1,2.3c2.5,1.3,4.7,2.9,6.5,5.1
		c0.6,0.7,1.3,1.4,2.1,1.9c3.6,2,6.8,4.6,9.7,7.4c3.6,3.4,8,5.7,12.3,8.2c0.8,0.5,1.8,0.7,2.7,1c2.4,0.7,4.8,1.4,7.1,2
		c1.6,1.3,1.3,3.2,2.2,4.7c0.9,0,1.7,0.1,2.6,0.1c6.5,0,13-0.6,19.5-1.2c3-0.3,6-0.8,9,0c1.7,0.4,3.1,0.2,4.5-0.5
		c0.9-1.9,0.8-1.9,0.5-3.4c-0.6-2.5-1.6-5-1.3-7.9c-3.4-1.5-7.3-1-11.1-2.6c-0.5-1.7-2.5-1.7-3.9-2.5c-1.5-0.8-2.5-2.3-4.2-2.6
		c-1.9-0.2-2.6,1.5-3.9,2.2c-3,0.3-3,0.3-6-0.8c0.1-1.3,0.1-1.4,0.4-1.6c1.2-0.8,2.4-1.5,3.8-2.4c-0.7-0.8-1.1-1.5-2.2-1.4
		c-3.1,2.2-6.9,2.4-10.6,2.8c-0.7,0.1-1.4-0.1-2.1-0.3c-0.7-0.2-1.3-0.7-1.3-1.5c1.1-1.8,1.2-1.9,2.4-2.4c0.9-0.4,1.8-0.6,2.7-0.9
		C733.6,651.5,734.2,651.2,734.4,650.4c0.3-0.1,0.7,0.1,1.1-0.6C734.9,649.9,734.6,649.9,734.4,650.4z M434.4,638.2
		c0.7-0.6,0.7-1.5,0.7-2.3c0-3.4,0.8-6.7,1.6-9.9c0.5-1.9,1.1-3.7,1.2-5.6c0.5-6.5,1.7-12.9,2.7-19.3c0.6-3.6,1.2-7.1,1.7-10.7
		c1-8,1.9-16,4.2-23.8c0.7-2.3,1.2-4.7,1.7-7c1.4-6.2,2.7-12.5,4.2-18.7c2.1-8.5,3.8-17.2,5.3-25.8c0.7-4,1-8.1,1.9-12.1
		c0.2-0.8,0.3-1.7-0.4-2.7c-3.6-0.4-7.5-1.2-11.5-1.5c-1,3.8-1.8,7.4-2.4,11.1c-0.8,5.6-1.4,11.2-2.6,16.8
		c-2.9,13-5.5,26.1-8.1,39.2c-0.9,4.8-2.2,9.6-3.2,14.4c-1.8,8.2-3.2,16.5-5.6,24.6c-0.4,1.4-0.6,2.8-0.9,4.2
		c-1.7,7.5-2.8,15.1-4,22.8c-0.6,4.3-1.2,8.6-1.7,12.9c-0.5,3.8-0.9,7.6-1.4,11.5c-0.4,3.2-1.4,6.3-2.8,9.3c0.6,2.5,1.4,4.8,3.6,5.7
		c1.1-0.2,0.9-1.2,1.8-1.2c0.9,1.1,2.2-0.2,3.2,0.4c0.6,0.4-0.2,1.3,1,1.5c0.9-0.8,2.4-1.1,3-2.5c0-4,0.7-7.7,1.8-11.4
		C431.5,651.5,432.9,644.8,434.4,638.2L434.4,638.2z M567.4,335.9L567.4,335.9c0.1-0.3,0-0.7,0.1-1c1.5-3.7,2.7-7.5,4.5-11
		c1.1-2.1,1.6-4.2,2.2-6.3c-0.3-0.1-0.5-0.3-0.7-0.3c-3.1,0-6.3-0.4-9.3,0.6c-0.8,0.2-1.7,0.2-2.5,0.3c-3.1,0.3-6.2,0.5-9.3,0.8
		c-5.7,0.6-11.5,1.3-17.2,1.8c-7.8,0.7-15.5,2.3-23.1,3.9c-5.4,1.1-10.7,2.8-16,4.3c-0.7,0.2-1.4,0.3-1.8,1.1
		c0.5,2.5,0.7,5.1,1.7,7.6c0.9,2.3,1.1,4.9,0.6,7.5c-0.3,1.8-0.4,3.6-0.6,5.4c-0.1,0.8-0.2,1.8,0.2,2.5c0.6,1.3,0.4,2.6,0.2,3.9
		c-1.5,8.5-3.9,16.6-7.8,24.3c-2.1,4.2-4.2,8.4-6.3,12.6c-0.3,0.6-0.9,1.2-0.4,2c2.7,0.4,5.4,0.8,8.1,1.3c2.7,0.5,5.4,1.2,8.1,1.8
		c2.7,0.6,5.4,1.1,8.1,1.8c2.6,0.7,5.2,1.8,8,1.7c0.5-2.4-1-4.5-0.5-7.1c2,2.5,2.3,5.3,2.9,7.8c0.4,0.2,0.6,0.4,0.8,0.5
		c6.6,1.9,13.2,3.7,19.8,5.5c4.9,1.3,9.8,2.5,14.9,2c3-0.3,6-0.6,9-1c0.5-0.1,0.9-0.3,1.4-0.5c0.2-0.9,0.6-1.8,0.6-2.8
		c0.1-3.1,0.1-6.3,0-9.4c-0.1-2.9-0.5-5.7-0.8-8.6c-0.4-5.4-0.9-10.8-0.8-16.2c0-1.7,0.3-3.3,0.9-4.9c1.1-2.9,2.3-5.8,3.1-8.8
		c1-3.4,2.7-6.4,4.9-9.1c2.5-3.1,4.7-6.4,6.9-9.7c1.8-2.7,3.1-5.7,3.8-8.9c0.3-1.4,0.6-2.8,1.1-4.2c0.7-2.2,1-4.4,1-6.8
		c-1.2-0.5-2.3-1.3-3.4-1.4c-1.3-0.1-1.7-1.7-3-1.5c-0.4,1.1-0.7,2.2-1.2,3.1c-0.8,1.5-1.2,3.1-1.5,4.8c-0.7,3.7-2.3,7.1-5,9.8
		C568.5,335.5,568.1,336,567.4,335.9z M508.1,411.8L508.1,411.8c-1.5-0.9-3.3-1-5-1.6c-5.3-1.6-10.5-3.4-16.1-4
		c-0.3,0-0.6-0.4-0.9-0.6c1.1-0.6,2.2-0.3,3.3-0.2c8.9,1.4,17.7,3.3,26.5,5.5c1.3,0.3,2.1,1,2.8,1.9c3.3,0.1,6.6,0.2,9.8,0.3
		c0.5,0,0.9-0.1,1.4-0.2c0.3,0,0.4-0.2,0.3-0.5c-0.4-0.7-1.2-0.8-1.8-1c-2.1-0.9-4.3-1.7-6.4-2.5c-1.2-0.5-2.5-0.9-3.8-1.3
		c-7.2-1.8-14.5-3.5-21.7-5.2c-2.7-0.6-5.4-1.3-8.1-1.9c-3.2-0.6-6.4-1.2-9.8-1.1c-1.4,2.6-2.9,5-4.2,7.6c-0.8,1.5-1.4,3-2.9,4.1
		c-1,0.8-1.6,2.1-2.3,3.2c-2.8,4.5-4.8,9.4-7.1,14.2c-0.3,0.7-0.6,1.3-0.7,2c-1.6,5.9-3.4,11.8-3.3,18c0,0.6-0.1,1.2-0.2,1.8
		c-0.9,3.2-0.6,6.4,0.2,9.6c1.9,7.8,6.1,14.3,11.1,20.4c1.3,1.5,2.9,2.4,4.9,2.7c1.1,0.2,2.4-0.1,3.4,0.7c0,0.5,0,0.9-0.1,1.5
		c3.2,1.3,6.6,1.9,10.1,2.4c3.5,0.4,6.9,0.9,10.4,1.5c3.4,0.5,6.8,0.9,11.1,0.5c-2.2-0.9-3.6-1.7-4.7-2.8c-1.3-1.2-2.9-1.6-4.3-2.5
		c-1.3-0.8-2.2-1.8-3.1-3c-1.1-1.6-1.9-3.3-2.6-5.1c-2.9-7.6-3.3-15.5-2.7-23.5c0-0.5,0.2-0.9,0.7-1.2l-0.1-0.1
		c0.2,2.6,0.5,5.3,0.6,7.9c0.5,7.7,3.4,14.4,7.7,20.6c2,2.8,4.6,5.2,7.8,6.8c0.8,0.4,1.4,0.9,1.9,1.6c0.5,0.7,1.1,1.3,2,1.5
		c2.7,0.2,5.5-0.4,8.2,0c0,0.4,0,0.7,0.1,1c2.9,0.2,5.8,0.3,8.6,0.6c1.2,0.1,2.4,0.3,3.6,0.2c3.4-0.2,6.7-0.4,10.1-0.6
		c2.3-0.1,4.6-0.4,6.8-1c0.8-0.2,1.6-0.5,2.5-0.5c2.6-0.1,5-0.7,7.5-1.3c10.3-2.5,20.4-5.7,30.2-9.7c2.2-0.9,4.4-1.8,6.7-2.5
		c5-1.4,10-2.5,15.1-3.7c1.1-0.2,2.1-0.4,3.1-1c1.7-1,3.5-1.6,5.3-1.5c1.5-1.3,1.5-1.3,2.7-1.5c-1,1.6-2.1,3.2-3.1,4.8
		c-1.7,2.7-2.6,5.7-2.9,8.8c-0.1,0.6,0,1.2-0.3,1.8c-1.2,2.7-1.7,5.5-2.4,8.3c-0.1,0.6-0.2,1.3-0.6,1.7c-1.4,1.6-1.6,3.5-1.8,5.4
		c-0.6,5.6-0.9,11.3-0.7,17c0,1.2,0.2,2.4,0.5,3.6c1.5,5.9,3.1,11.9,4.7,17.8c2.3,8.3,4.7,16.7,7.3,24.9c4.1,13.3,6.8,26.8,9.9,40.3
		c0.6,2.7,1.2,5.4,1.6,8.2c0.6,3.9,1,7.8,1.5,11.7c0.4-1,0.6-2.1,0.7-3.2c0.1-1.1,0.1-2.2,0.4-3.2c0.2-0.9-0.3-2,0.6-2.9
		c1.1,4.6,1.4,7.4,1.1,11.5c0,0.8-0.1,1.7-0.5,2.4c-0.7,1.1-0.7,2.3-0.4,3.5c0.8,2.9,0.9,5.9,0.9,9c0,1.1,0.2,2.1,0.9,3.1
		c0.4,0.5,0.6,1,0.5,1.9c-0.3,0.4-0.8,0.9-1.3,1.6c0.6,0.4,1.1,0.9,2.3,0.7c4-3.1,8.8-5.6,13.4-8.1c1.7-3.7,4.2-6.6,6.7-9.4
		c0-1.8-0.3-3.3-0.7-4.8c-0.5-2.1-1-4.2-1-6.4c0-2.4-0.5-4.8-0.9-7.2c-0.2-1.4-0.6-2.8-0.7-4.3c-0.3-3.2-0.3-6.5-0.9-9.7
		c-1.4-7.7-1-15.3-0.7-23.1c0.3-9,0.9-18-0.1-27c-0.1-0.5,0-1,0-1.4c0.2-4.7,0.4-9.4,0.2-14.1c-0.1-3-0.2-6-0.3-9
		c-0.1-1.2,0-2.4,0.2-3.6c0.4-2.1,0.8-4.3,0.8-6.4c0-6,0.3-12-0.3-18.1c-0.2-2-0.4-4.1,0.3-6.1c0.3-0.7,0.1-1.7,0-2.5
		c-0.7-4.8-1.5-9.5-2.2-14.3c-0.4-2.6-0.8-5.2-1.2-7.9c0.5-0.8,1-1.6,1.5-2.4c0.1-5.8-0.4-11.6,1.3-17.3c-1.8-2.1-3.5-4.1-5.2-6.1
		c-2-2.4-2-2.4-2.9-5.4c-0.4-0.2-0.8-0.4-1.2-0.6c-4-1.6-8.3-2.5-12.5-3.6c-6.1-1.6-12.3-2.1-18.5-3c-6.2-0.9-12.4-1.5-18.5-3
		c-1.2-0.3-2.4-0.5-3.6-0.6c-7-0.5-13.8-1.8-20.8-2.5c-3.1-0.3-6.2-1.1-9.3-0.9c-5.2,0.3-10.3,0-15.5-0.1c-3.1-0.1-6.2-0.5-9.3-1.1
		c-5.6-1.1-11.2-1.8-16.8-1.2c-0.7,0.1-1.5,0.1-2.2,0c-0.8-0.1-1.6-0.3-2.4-0.5c-3.4,1.1-6.6,2.5-9,5.1c-2.8,3-5.4,6.2-7.9,9.4
		c-1.1,1.3-1.9,2.7-2.7,4.2c-1.3,2.4-2.8,4.7-4.2,7.1l0.1,0.1c0-0.6-0.1-1.2,0.1-1.8c1.1-4.1,2.9-7.9,5-11.5c0.2-0.4,0.6-0.9,1-1
		c1.3-0.3,1.8-1.5,2.5-2.4c3-4,6.4-7.5,11.1-9.4c0.2-0.1,0.3-0.3,0.5-0.5c0.3-0.6,0.4-1.1-0.2-1.9
		C512.5,412.4,510.3,412.1,508.1,411.8z M448.4,332.2c1.3,4.6,3.6,8.5,5.2,12.6c1.1,2.7,2.1,5.4,2.1,8.3c0,0.9,0,1.8,0.6,2.4
		c1.1,1,1.2,2.3,1.7,3.5c1.1,2.6,2,5.2,3.5,7.5c3.5,5.3,7.3,10.4,12.3,14.5c0.9,0.8,1.8,1.6,2,2.9c2.8-0.4,3.2,2.2,4.6,3.8
		c1.6-2.6,2.3-5.4,3.2-7.6c0.8-1,1.4-0.4,2.2-0.9c2-3.8,3.9-7.9,4.8-12.4c-1.1-0.7-1.6-1.5-2-2.6c-1.2-3.4-2.8-6.7-3.4-10.3
		c-0.3-1.8-1-3.5-1.7-5.1c-0.9-2-1.6-4-2-6.2c-0.9-5.1-2.3-10.1-4.5-14.8c0-0.1,0-0.2-0.1-0.6c1.9-2.6,2.9-5.9,4.2-8.9
		c0.4-0.9,0.8-1.8,0.9-2.7c0.4-5.2,3-9.9,3.6-15.1c0-0.2,0.1-0.5,0.2-0.7c1.6-2.8,2.1-5.9,2.7-8.9c0.8-3.8,1.4-7.6,2.1-11.4
		c0.1-0.7,0.2-1.4,0.8-1.9c0.5-0.5,1.5,0,2-1.1c-0.2-2.2,1.1-3.8,3-5.1c0.7,0,1.4-0.1,2.1-0.1c0.6,0,1.3-0.9,2,0.2
		c-0.9,0.7-1.8,1.5-2.6,2.3c-0.9,0.8-1.9,1.6-2.5,2.6c-0.6,1-1.3,2-2.1,2.8c-1,6.1-1.9,12.2-3.3,18.2c-0.1,0.3,0.2,0.6,0.3,1.1
		c6.2-2.5,11.3-6.1,15-11.6c2.5-3.7,4.4-7.7,6.9-11.4c1.5-2.2,2.5-4.7,3.1-7.3c0.2-0.8,0.5-1.6,0.8-2.4c0.1-0.2,0.5-0.4,0.8-0.5
		c0.2,0.3,0.4,0.4,0.5,0.6c0.1,0.2,0.1,0.7,0.7,0.6c2.4-5.7,3.3-11.7,1.9-17.9c-0.6-2.6-1.7-5-2.8-7.4c-1.8-4-4.2-7.6-7.4-10.5
		c-0.7-0.6-1.6-1.3-1.9-2.1c-0.5-1.9-2-2.9-3.2-4.2c-1.3-1.3-2.5-2.6-3.8-3.9c-0.5-0.7,0.2-1.7-0.6-2.3c-0.5-0.3-1.2-0.1-1.6-0.6
		c-0.6-0.9,0.2-2-0.8-2.8c-1.2,0.3-2.5,0.6-3.8,0.9c-0.2-0.3-0.5-0.5-0.7-0.9c1-1.3,2.6-1.8,3.5-3.7c0-1.3,0-3,0-4.7
		c0-3.7,0.5-7.3-1.1-10.9c-1.2-2.7-1.6-5.8-2.4-8.7c-0.7-2.7-1.3-5.4-2.2-8c-1.6-4.4-2.9-8.9-4.3-13.4c-0.2-0.8-0.3-1.7-1.2-2.4
		c0.6,2.9,1,5.6,1.7,8.3c1,4.1,2,8.2,2.3,12.4c0.4,4.4,1.2,8.8,0.8,13.3c-0.3,3.1-0.4,6.2-0.4,9.4c-0.1,3.4-0.1,6.7-0.8,10.1
		c-1.5,1.2-3.4,1.3-5,2c-0.5,0.8-1,1.6-1.5,2.4c-3.7,1.3-7,3-10.4,4.5c-3.1,1.2-4.9,3.4-5.8,6.4c-0.1,0.2-0.2,0.4-0.3,0.7
		c-2.7,7.9-4.9,15.9-4.7,24.3c0,2.5-0.3,5-1.8,7.1c0.4,4,0.6,7.8-0.3,11.6c-0.7,3.2-1.5,6.3-2.3,9.5c-0.4,1.5-0.9,3-1.1,4.6
		c-0.3,2.7-1,5.2-1.9,7.7c-0.3,0.8-0.5,1.6-0.6,2.4c-0.2,3.4-0.4,6.7-0.4,10.1c0.1,5.1-1,10-1.8,15c-0.1,0.4-0.1,0.8-0.3,1
		C449.7,327.8,449.5,330.1,448.4,332.2z M576.2,248.9c0.5,3.6-1.4,5.1-4.2,5.9c-3.3,1-6.6,1.2-10,1.2c-4.9,0-9.3-2.3-14.1-2.8
		c-2-0.2-3.9-1.3-5.7-2.1c-4.6-2-8.7-4.7-11.4-9.1c-0.5-0.8-1.1-1.6-1.7-2.4c-0.5-0.7-1.1-1.3-1.7-1.9c-2.6-2.5-5.2-5-7.8-7.5
		c-3.5-3.4-7.2-6.7-11.1-9.8c-1.3-1-2.6-2.2-4.2-2.6c-0.5,0.4-1.2,0.4-1.5,1.1c0.2,0.9,1.1,1.2,1.6,1.8c2.8,3.1,6.5,5.4,8.5,9.3
		c0.2,0.3,0.5,0.5,0.8,0.8c4.8,4.4,7.2,10.1,8.9,16.2c0.6,2.1,1.2,4.2,1.3,6.4c0.3,7.6-2.1,14.4-6.4,20.7c-2.5,2.1-3.6,5-4.7,7.9
		c-0.5,1.2-1,2.4-1.6,3.6c-1.1,2.2-2.3,4.4-4.1,5.9c-3.4,2.8-6.7,5.8-10.8,7.8c-2.2,1.1-4.5,1.6-7,2.3c-0.7,2.3-1.4,4.5-2.1,6.8
		c1.2,2,1.6,4.1,2.3,6.1c0.7,1.9,1.5,3.8,2.2,5.7c0.8,2,0.9,4.2,2,6.1c1.9-0.7,3.6-1.3,5.3-1.8c7.1-2.2,14.4-3.8,21.7-5.4
		c4.6-1,9.3-1.6,13.9-2c4.7-0.4,9.3-0.9,14-1.3c2.9-0.3,5.7-0.7,8.6-0.9c3.4-0.2,6.7-0.3,10-1.1c0.5-0.1,1-0.1,1.4-0.1
		c5.1-0.1,10.1,0.2,15,1.5c0.6,0.2,1.1,0.4,1.8-0.2c0.1-0.6,0.3-1.3,0.4-2c0.3-1.8,1.3-3,3.1-3.7c1.8-0.7,3.5-1.7,5.2-2.5
		c4.3-2.1,6.7-6.1,9.4-9.8c0.1-0.1,0.1-0.2,0.2-0.3c0.8-3,1.9-5.9,1.9-9.1c0-3.6-0.5-7-1.7-10.3c-1.7-4.9-4.5-9.1-8.6-12.3
		c-6.5-5-12.9-10.1-18.6-16C576.9,249.1,576.7,249.1,576.2,248.9z M669,650.2c-1.3-0.9-1.2-1.7-0.6-2.6c0.7-1.1,1.8-1.6,2.9-2.1
		c2-0.9,4-1.6,6-2.5c0.6-0.3,1.5-0.2,1.7-1.3c-2.7-4-6.3-7.4-9.2-11.4c-3.7,0.9-6.3,3.2-8.2,6.1c-2,3.1-4.7,5.4-7.9,7.2
		c-3.4,1.9-6.6,3.9-9.6,6.3c-2,1.6-3.9,1.7-6,0.5c-1.8-1-3.5-2.1-5.2-3.3c-2-1.4-3.3-3.1-2.8-5.8c-0.9,1.2-1.5,2.5-1.5,4
		c0,1.6-0.5,3.1-1.3,4.5c-1.2,1.9-1.6,4-1.5,6.2c0.2,3.1-0.5,6-1.9,8.7c-0.8,1.6-1.4,3.3-1.8,5.1c-0.7,3.3-1.7,6.5-3.2,9.5
		c-0.1,0.2,0.1,0.4,0.1,0.7c0.2,0.2,0.5,0.5,0.8,0.6c2.8,1.1,5.7,2,8.7,2.5c7.5,1.2,15,1.8,22.6,1c2.3-0.3,4.8,0,7.1,0.5
		c1.5,0.3,3,0.8,4.5,1c3.9,0.5,7.9,1,11.8,1.4c2.6,0.2,5.3,0.5,7.9,0.3c3.9-0.2,7.7-0.2,11.5-0.3c8.1-0.2,16.1-0.8,24.1-1.6
		c2.4-0.3,4.8-0.5,7.2,0.2c1.6,0.5,3.1,0.1,4.5-0.8c0.3-2.6,0.3-5.1-0.3-7.6c-1.3-0.9-2.8-0.9-4.2-1.2c-3.3-0.7-6.4-2-9.2-4
		c-2.6-1.8-5.2-3.4-8-5.1c-1.4,0.4-2.9,1.1-4.5,0.9c-1.6-0.2-3.4,0.2-4.3-1.6c0.2-0.8,0.7-1.2,1.2-1.5c0.9-0.6,1.8-1.1,2.7-1.7
		c0.1-0.1,0.1-0.4,0.2-0.6c-0.5-0.5-1-1.1-2-1.1c-2.7,2.2-6.3,2.3-9.7,2.9c-0.9,0.1-1.9,0-2.9-0.1c-0.8-0.2-1.6-0.7-1.6-1.9
		c0.6-1.5,2-2.2,3.5-2.6c1.5-0.5,3-0.9,4-2.2c-0.3-0.3-0.7-0.2-1-0.1c-2.7,0.7-5.4,1-8.2,1.3c-1.1,0.1-2.2,0.2-3.2-0.2
		c-1.1-0.4-1.5-1.8-0.6-2.6c0.4-0.4,1-0.8,1.5-0.9c1.1-0.4,2.3-0.6,3.5-0.9c1.2-0.2,2.3-0.4,3.8-0.7c-1.3-1.5-2.6-2.5-4.4-3.2
		c-0.5,1.8-1.8,2.5-3.4,2.9c-1.9,0.5-3.7,1.1-5.5,1.6c-1.4,0.4-2.7,0.7-4,1c-1.1-0.9-0.9-1.8-0.5-2.8c0.8-1.5,2.1-2.3,3.6-2.8
		c2.1-0.7,4.2-1.1,6.3-1.6c0.2,0,0.3-0.3,0.5-0.4c-0.6-1-1-1.9-2.2-2.3C677.4,647.6,673.5,649.4,669,650.2z M517.1,683.5
		c-0.4-2.1-0.4-4.2-0.4-6.4c0-9.8,0.1-19.5,0.1-29.3c0-4.5,0-8.9-0.5-13.3c-0.3-2.4-0.3-4.8,0.1-7.2c0.8-5,1-10.1,0.8-15.1
		c-0.2-5.5-0.3-11.1-0.3-16.6c0-18.5,0-37.1,0-55.6c0-1.3,0.3-2.6-0.3-3.9c-1.9-0.2-3.6,0.6-5.4,0.8c-1.9,0.2-3.8,0.2-5.6,0.3
		c-0.7,1-0.5,2-0.6,2.9c-0.4,7.1-0.7,14.2-1.1,21.3c-0.5,7.8-1.2,15.6-1.5,23.4c-0.3,8.2-0.7,16.4-1.3,24.5c-0.7,8.6-1.2,17.3-1,26
		c0,1.3,0,2.7-0.2,4c-0.4,2.6-0.6,5.3-0.5,7.9c0.1,5.3-0.4,10.6-0.9,15.9c-0.4,3.8-0.4,7.7-0.1,11.5c0.2,2.4,0.7,4.7,0.3,7.2
		c-0.1,0.9,0.3,1.6,1,2.2c0.8,0.2,1.6,0.6,2.4,0.3c1.1-2.3,1.2-2.5,0.6-5.2c-0.3-1.6-0.5-3.1-0.3-4.7c0.1-0.4,0.1-1,1-0.7
		c0.2,2.1,0.5,4.2,1,6.3c0.3,1.4,0.2,2.9-0.5,4.2c-0.2,0.5-0.7,0.9-0.5,1.8c1.5,0.1,3,0.3,4.1,1.4
		C511,686.3,514.7,686.9,517.1,683.5z M568.5,528.6c0.3,2.9,0.5,5.5,0.8,8.1c0.6,5,1.1,10,1.3,15.1c0.2,4.1,0.5,8.2,1,12.2
		c0.8,6.9,1.9,13.8,2.6,20.8c1,9.8,2.3,19.6,3.5,29.4c0.7,6,1.6,11.9,3.1,17.8c0.5,1.9,0.8,3.7,1.9,5.4c0.7,1.1,0.9,2.4,0.6,4
		c-2.3-1.2-1.6-4-3.4-5.5c0.5,5,0.9,9.8,1.5,14.5c0.3,2.2,0.6,4.3,0.5,6.5c-0.1,2.4,0.1,4.8,1.1,6.9c1.3,1.2,2.9,1.2,4.3,1.4
		c0.3,0.7,0.6,1,1.3,1.1c2-0.2,4.4,0.1,6.1-1.9c0.1-1.2,0.1-2.2-0.2-3.3c-0.5-1.8-0.5-3.6-0.5-5.4c0-5.4-0.5-10.8-1.7-16.1
		c-0.4-1.9-0.7-3.8-1.1-5.7c-1-5.6-1.8-11.2-2.9-16.7c-1-5.2-1.7-10.4-2.3-15.7c-0.5-4.4-0.9-8.9-1.9-13.2c-0.3-1.6-0.6-3.3-0.8-5
		c-0.6-5.7-1-11.5-1.7-17.2c-0.5-5-0.9-10.1-1.9-15c-0.4-2.2-0.7-4.5-0.9-6.8c-0.7-6.3-1.3-12.7-2-19c-0.3-3.2-0.8-6.5-0.8-9.7
		c0-4.2-0.7-8.4-1.4-12.5c-0.1-0.7,0-1.5-0.7-2c-1.5,0.2-3.1,0.3-4.6,0.6c-1.6,0.3-3.3,0.2-4.8,0.9c0.8,4.3,1.6,8.4,2.3,12.5
		c0.5,3.3,0.8,6.7,1.3,10c0.1,0.6,0,1.2,0.7,1.5c1.4,0.3,2.6-1.1,4.2-1.1C571.5,527.6,571.5,527.6,568.5,528.6z M661.5,563.3
		c-0.4,1.1-0.5,1.3-0.5,1.5c-0.4,8.8-0.6,17.6-0.4,26.4c0,1.2,0.2,2.4,0.4,3.6c0.4,3.1,1.1,6.2,1.2,9.3c0,3,0.5,6,1.1,8.9
		c0.3,1.5,0.4,3.1,0.5,4.7c0.2,3.3,0.9,6.6,1.8,9.7c1.7,0.2,3.3-0.8,4.8,0c0.9,0.3,0.5,2,1.9,1.8c0.2-0.2,0.4-0.3,0.5-0.5
		c0.5-3.4,1.2-6.8,0.4-10.4c-0.5-2.1-0.6-4.3-0.8-6.4c-0.7-6.4-1.7-12.6-3.3-18.8c-1.5-5.8-3.1-11.6-4.6-17.5
		c0.2-0.6,0.4-1.3,0.7-1.9C663.9,570.4,662.8,567.2,661.5,563.3z M504.3,504.5c0,1.5-0.1,2.6,0,3.7c0.1,0.9,0.5,1.9,0.7,2.8
		c0.2,1.1,0.3,2.1,0.3,3.2c0.1,5.5,0.4,11,0,16.6c-0.1,1.3-0.4,2.6,0.4,4.1c3.7,0.8,7.4,0.9,11.3-0.5c0.2-8.5,0.5-16.9,0.7-25.3
		c0-1.2,0-2.4,0-3.6c0-0.1,0-0.2-0.1-0.3c-0.1-0.1-0.2-0.2-0.5-0.5C513,504.5,508.7,504.3,504.3,504.5z M480.7,329.1
		c0.3,0.9,0.4,1.7,0.8,2.5c1.3,3,2,6.1,2.5,9.4c0.8,5.7,2.5,11.2,5,16.4c0.6,1.2,1,2.4,1.6,3.6c0.2,0.4,0.1,1.2,0.9,1.2
		c0.6-0.9,0.5-1.9,0.6-2.8c0.4-4.5,0.6-9.1,1.2-13.6c0.4-3.3,0.1-6.4-0.7-9.6c-0.7-2.8-1.4-5.6-2.1-8.4c-1.2-4.6-2.5-9.2-4.4-14.2
		c-1.6,4.4-2.6,8.6-4.7,12.4C480.9,326.8,480.9,327.9,480.7,329.1z M569.9,490.2c0.5,0.7,1.3,0.5,1.9,0.4c3.8-0.2,7.7-0.4,11.5-0.6
		c2.3-0.1,4.6-0.3,6.7-1c1-0.3,2.1-0.5,3.2-0.5c1.2-0.1,2.4-0.2,3.6-0.5c4.1-1,8.2-2,12.2-3c0.8-0.2,1.7-0.3,2.5-1.2
		c0.5-1.1,1.1-2.4,1.2-3.8c0.2-1.6,1.9-2.5,2.1-4.1c0-0.2,0.1-0.5,0.1-0.7c-2.1-0.2-2-0.2-3.7,0.5c-2.2,0.8-4.4,1.9-6.9,2
		c-3.3,0.1-6.5,0.9-9.4,2c-4.7,1.9-9.3,3.8-14.1,5.4c-0.5,0.2-0.9,0.3-1.3,0.5c-2.9,1.5-5.9,2.8-8.9,3.8
		C570.1,489.5,569.8,489.7,569.9,490.2z M502,206c0.2-0.4,0.3-0.7,0.4-1.1c1.1-4.4,1.6-9,1.9-13.5c0.2-1.9,0-3.8-0.1-5.8
		c-0.1-1-0.5-1.8-1.9-1.9c-1.1,0.7-1.7,1.8-2.2,3.1c-0.7,2-0.5,4,0.1,6c0.9,3.4,1.3,6.8,1.2,10.3C501.5,204.1,501.4,205.1,502,206z
		 M494.1,119.1c-3.2-1.1-6.5-0.8-9.8-0.7c-1.6,0-3.3,0.4-4.7,1.5c0.8,0.7,1.4-0.1,2.1-0.1c0.8,0,1.7-0.1,2.5-0.3
		c3.1-0.7,5.9-0.1,8.4,1.9c0.1,0.1,0.4,0.1,0.7,0.1C493.8,120.9,494.3,120.2,494.1,119.1z M500.9,182.6c-0.2-0.6-0.5-1.2-0.7-1.9
		c0.3-0.7,0.5-1.4,0.8-2.1c-0.4-1-0.7-2-1.2-3c-0.4-0.9-0.6-1.9-1.7-2.8c0.3,3.9,0.6,7.5,0.8,11c0,0.1,0.1,0.2,0.1,0.3
		c0.1,0.1,0.2,0.1,0.3,0.2C500.2,184.3,500.5,183.5,500.9,182.6z M530.3,134c2.4,0.4,4.5-0.6,6.6-1.3c0.7-0.2,1.3-0.7,1.3-1.7
		c-1.1-0.8-2.3-0.4-3.3,0.2c-1.3,0.8-2.7,1.5-4.2,2C530.5,133.3,530.5,133.6,530.3,134z M502,168.7c1.9,2,4.2,3.2,7.2,3.1
		c-0.1-1-0.6-1.5-1.4-2.1C506,169.9,504.2,168.9,502,168.7z M508.6,158.4c1.4-1.1,3-2.1,3.5-3.7c-0.5-0.8-0.9-1-1.8-0.6
		C509.3,155.1,508.8,156.7,508.6,158.4z M522.3,109.3c0,0.1-0.1,0.1-0.1,0.2c2,0,4.1,0,6.1,0c0-0.1,0-0.1,0-0.2
		C526.3,109.3,524.3,109.3,522.3,109.3z M477.1,124c1-0.8,2.1-1.6,3.3-2.5C478.2,120.9,477.6,122.5,477.1,124z M500.8,167.4
		c-2.3-2.2-2.3-2.2-2.6-1.8c0.2,0.8,0.4,1.6,1.4,2C499.8,167.6,500.2,167.5,500.8,167.4z M519.5,149.1c1.2,0.3,2.1,0.4,3.3,0
		C521.6,148.7,520.7,148.8,519.5,149.1z M526.6,133.3c0.8,0.2,1.5,0.1,2.1-0.9C527.8,132.4,527.1,132.3,526.6,133.3z M496.3,186.2
		c-0.3,0.6-0.3,1.1,0.1,1.7C496.4,187.2,496.4,186.8,496.3,186.2z M537.9,105.9c-0.4-0.3-0.7-0.3-1.1,0
		C537.2,105.9,537.6,105.9,537.9,105.9z M535.1,105.2c0-0.1,0-0.2-0.1-0.2c-0.1,0-0.2-0.1-0.3-0.1c-0.3,0.1-0.2,0.3,0.1,0.3
		C534.9,105.3,535,105.2,535.1,105.2z M634.7,423.2l0-0.1l-0.3,0L634.7,423.2z"/>
	<path d="M521.8,176.1c1.1,1.8,1.1,3.8,1.9,5.6c1.6,1.7,3.8,2.6,6.1,3.4c1.7,0.6,3.4,1.2,5,1.9c1.4,0.6,2.7,1.3,4.1,2
		c-0.2,0.6-0.5,0.6-0.8,0.5c-1.4-0.4-2.7-0.8-4.2-1c-3.5-0.5-6.5-2.2-9.8-3.4c-0.7-0.3-1.2-0.7-1.6-1.4c-1.1-1.9-1.8-3.9-2-6.1
		C520.4,176.9,520.8,176.4,521.8,176.1z"/>
	<path d="M561.5,147.4c-0.1,1.3-1.4,1.5-1.9,2.3c-0.2,0.7-0.4,1.5-0.7,2.3c-0.2,0.7,0.8,1.3,0.1,2.1c-1.2,0.5-2.4-0.2-3.5-0.6
		c-0.3-0.6-0.6-1.1-0.8-1.7c-1.3-0.3-2.9,1.1-3.9-0.7c0.1-0.6,0.4-0.8,0.9-1.1c1.6-0.8,3.1-1.7,4.7-2.5
		C558.1,146.7,559.8,146.9,561.5,147.4z"/>
	<path d="M555.5,143.4c-3.1,0-4.8,2.2-7.5,1.8c1.7-2.6,4.2-3.6,6.8-3.7c3.5-0.2,6.9,0.6,9.5,3.1c-0.2,0.9-0.7,1.3-1.3,1.2
		c-0.7-0.1-1.4-0.4-2.1-0.6C558.9,144.6,557,143.9,555.5,143.4z"/>
	<path d="M550.8,220.3c1.1,0.1,2.1,0.2,3.3,0.3c2.5,1.6,5.1,3.3,7,5.8c0.6,0.9,1.3,1.7,1.1,2.9c-0.6,0.8-1.3,0.5-1.8-0.1
		c-0.7-0.8-1.2-1.8-1.8-2.6c-1.3-0.8-2.7-1.6-4-2.5c-1.3-0.9-2.2-2.2-3.6-2.6C551,221,550.9,220.6,550.8,220.3L550.8,220.3z"/>
	<path d="M531.2,193.9c-2-1.5-3.7-3.3-4.9-5.3c0.5-0.7,1-0.7,1.3-0.3C529.2,189.9,530.6,191.6,531.2,193.9z"/>
	<path d="M536.4,204.4c-0.9-0.2-1.3-0.7-1.2-1.7C536.5,202.7,536.3,203.6,536.4,204.4L536.4,204.4z"/>
	<path d="M538.9,209c0.1,0.2,0.2,0.4,0.2,0.6c0,0.1-0.2,0.1-0.2,0.2c-0.1-0.2-0.2-0.4-0.2-0.6C538.6,209.2,538.8,209.1,538.9,209z"
		/>
	<path d="M589.8,312.8c0,0.4-0.2,0.8-0.7,0.7c0,0,0.1,0.1,0.1,0.1C589.1,313.1,589.4,312.9,589.8,312.8L589.8,312.8z"/>
	<path d="M590.5,312.1c-0.1,0.4-0.4,0.7-0.8,0.8l0.1,0.1C589.9,312.5,590.2,312.2,590.5,312.1L590.5,312.1z"/>
	<path d="M536.3,204.5c0.1,0.1,0.2,0.2,0.4,0.2c-0.1,0-0.2,0-0.2,0C536.4,204.6,536.4,204.5,536.3,204.5L536.3,204.5z"/>
	<path fill="none" d="M494.4,441.4c1.4-2.4,2.9-4.7,4.2-7.1c0.8-1.5,1.7-3,2.7-4.2c2.6-3.2,5.2-6.4,7.9-9.4c2.4-2.6,5.6-4,9-5.1
		c0.8,0.2,1.6,0.4,2.4,0.5c0.7,0.1,1.4,0,2.2,0c5.7-0.6,11.3,0.1,16.8,1.2c3.1,0.6,6.1,1,9.3,1.1c5.2,0.2,10.3,0.4,15.5,0.1
		c3.1-0.2,6.2,0.6,9.3,0.9c6.9,0.8,13.8,2,20.8,2.5c1.2,0.1,2.4,0.3,3.6,0.6c6.1,1.5,12.3,2.1,18.5,3c6.2,0.9,12.4,1.4,18.5,3
		c4.2,1.1,8.4,2,12.5,3.6c0.4,0.2,0.8,0.4,1.2,0.6c0.8,3,0.8,3,2.9,5.4c1.7,2,3.5,4,5.2,6.1c-1.6,5.7-1.2,11.5-1.3,17.3
		c-0.5,0.8-1,1.6-1.5,2.4c0.4,2.6,0.8,5.3,1.2,7.9c0.7,4.8,1.5,9.5,2.2,14.3c0.1,0.8,0.3,1.8,0,2.5c-0.7,2-0.5,4.1-0.3,6.1
		c0.6,6,0.3,12,0.3,18.1c0,2.1-0.4,4.3-0.8,6.4c-0.2,1.2-0.2,2.4-0.2,3.6c0.1,3,0.2,6,0.3,9c0.2,4.7,0,9.4-0.2,14.1
		c0,0.5-0.1,1,0,1.4c1,9,0.4,18,0.1,27c-0.3,7.7-0.7,15.4,0.7,23.1c0.6,3.2,0.6,6.5,0.9,9.7c0.1,1.4,0.5,2.8,0.7,4.3
		c0.4,2.4,0.9,4.7,0.9,7.2c0,2.2,0.5,4.3,1,6.4c0.4,1.5,0.6,3.1,0.7,4.8c-2.5,2.8-5,5.7-6.7,9.4c-4.6,2.5-9.4,5.1-13.4,8.1
		c-1.2,0.2-1.7-0.3-2.3-0.7c0.5-0.6,1-1.2,1.3-1.6c0.1-0.8-0.1-1.4-0.5-1.9c-0.7-0.9-0.9-1.9-0.9-3.1c0.1-3,0-6-0.9-9
		c-0.3-1.2-0.3-2.4,0.4-3.5c0.5-0.7,0.5-1.6,0.5-2.4c0.2-4.2,0-6.9-1.1-11.5c-0.8,0.9-0.4,2-0.6,2.9c-0.2,1.1-0.2,2.2-0.4,3.2
		c-0.1,1.1-0.3,2.1-0.7,3.2c-0.5-3.9-0.9-7.8-1.5-11.7c-0.4-2.7-1-5.5-1.6-8.2c-3.1-13.5-5.8-27.1-9.9-40.3
		c-2.5-8.3-4.9-16.6-7.3-24.9c-1.7-5.9-3.2-11.9-4.7-17.8c-0.3-1.2-0.5-2.4-0.5-3.6c-0.2-5.7,0-11.3,0.7-17c0.2-1.9,0.4-3.8,1.8-5.4
		c0.4-0.4,0.4-1.1,0.6-1.7c0.7-2.8,1.2-5.7,2.4-8.3c0.2-0.5,0.2-1.2,0.3-1.8c0.3-3.2,1.2-6.1,2.9-8.8c1-1.6,2.1-3.2,3.1-4.8
		c-1.2,0.2-1.2,0.2-2.7,1.5c-1.8,0-3.6,0.5-5.3,1.5c-0.9,0.6-2,0.8-3.1,1c-5.1,1.1-10.1,2.3-15.1,3.7c-2.3,0.7-4.5,1.6-6.7,2.5
		c-9.8,4-19.9,7.2-30.2,9.7c-2.5,0.6-4.9,1.2-7.5,1.3c-0.8,0-1.6,0.3-2.5,0.5c-2.2,0.6-4.5,0.9-6.8,1c-3.4,0.1-6.7,0.4-10.1,0.6
		c-1.2,0.1-2.4-0.1-3.6-0.2c-2.9-0.3-5.8-0.4-8.6-0.6c0-0.3,0-0.6-0.1-1c-2.7-0.4-5.5,0.2-8.2,0c-0.9-0.3-1.5-0.9-2-1.5
		c-0.5-0.7-1.1-1.2-1.9-1.6c-3.2-1.6-5.8-4-7.8-6.8c-4.3-6.2-7.3-12.9-7.7-20.6c-0.2-2.6-0.4-5.3-0.6-7.9c0.8-0.8,0.6-1.8,0.1-2.7
		c0,0.9,0,1.9,0,2.8c-0.5,0.3-0.7,0.7-0.7,1.2c-0.5,8-0.2,15.9,2.7,23.5c0.7,1.8,1.5,3.5,2.6,5.1c0.8,1.2,1.8,2.2,3.1,3
		c1.4,0.9,3.1,1.3,4.3,2.5c1.1,1,2.5,1.8,4.7,2.8c-4.3,0.4-7.7,0-11.1-0.5c-3.4-0.5-6.9-1-10.4-1.5c-3.5-0.4-6.9-1.1-10.1-2.4
		c0-0.5,0-1,0.1-1.5c-1-0.8-2.3-0.5-3.4-0.7c-2-0.4-3.6-1.2-4.9-2.7c-5-6.1-9.3-12.6-11.1-20.4c-0.8-3.2-1.1-6.4-0.2-9.6
		c0.2-0.6,0.2-1.2,0.2-1.8c-0.1-6.2,1.7-12.1,3.3-18c0.2-0.7,0.4-1.4,0.7-2c2.2-4.8,4.3-9.7,7.1-14.2c0.7-1.1,1.3-2.4,2.3-3.2
		c1.4-1.1,2.1-2.6,2.9-4.1c1.3-2.5,2.8-5,4.2-7.6c3.4-0.1,6.6,0.5,9.8,1.1c2.7,0.5,5.4,1.2,8.1,1.9c7.2,1.7,14.5,3.5,21.7,5.2
		c1.3,0.3,2.5,0.8,3.8,1.3c2.1,0.8,4.3,1.6,6.4,2.5c0.6,0.3,1.4,0.3,1.8,1c0.1,0.3-0.1,0.5-0.3,0.5c-0.5,0.1-0.9,0.2-1.4,0.2
		c-3.2-0.1-6.5-0.2-9.8-0.3c-0.6-1-1.5-1.6-2.8-1.9c-8.8-2.1-17.6-4.1-26.5-5.5c-1.1-0.2-2.1-0.4-3.3,0.2c0.3,0.2,0.6,0.6,0.9,0.6
		c5.6,0.5,10.8,2.4,16.1,4c1.7,0.5,3.5,0.7,5.1,1.6c-4.9-0.2-9.9,0.3-14.8,0.6c-7,0.4-13.9,1-20.8,2.3c-0.3,0.1-0.8,0-0.7,0.5
		c0.4,0.6,0.9,0.6,1.6,0.5c2.1-0.3,4.3-0.7,6.4-0.9c7.9-0.6,15.8-1.1,23.8-1.6c1.4-0.1,2.9,0.1,4.3,0.2c0.5,0,1.2,0.1,1.1,1.1
		c-3.3,0.8-6.5,1.6-9.8,2.4c-5.2,1.2-10.3,2.3-15.5,3.5c-3,0.7-5.6,2-8,3.9c-0.3,0.2-0.8,0.6-0.1,1.1c1.9-1.3,4.1-1.7,6.4-2.2
		c4.5-0.9,8.9-1.9,13.4-2.9c1.6-0.4,3.4-0.7,4.7-1.7c1-0.8,2.1-1.1,3.2-1.5c1.8-0.6,3.6-1.2,5.5-1.9c0.7-0.2,1.4-0.3,1.6-1
		c-0.3-1.4-1.4-2-2.4-2.6c2.3,0.2,4.5,0.6,6.4,1.2c0.6,0.7,0.4,1.3,0.2,1.9c-0.2,0.2-0.3,0.4-0.5,0.5c-4.7,2-8.1,5.4-11.1,9.4
		c-0.7,0.9-1.2,2.1-2.5,2.4c-0.4,0.1-0.7,0.6-1,1c-2.1,3.6-3.9,7.4-5,11.5C494.4,440.3,494.5,440.9,494.4,441.4
		c-0.2,0.3-0.7,0.5-0.2,1C494.3,442.1,494.3,441.8,494.4,441.4z M479.3,409.8c-0.4,0-0.7,0.1-0.5,0.8
		C479,410.3,479.1,410,479.3,409.8c0.1-0.3,0.5-0.5,0.2-0.9C479.2,409.2,479.3,409.5,479.3,409.8z M486.5,436.6
		c-0.6-0.1-1.2,0-1.5,0.6c-1.8,0.2-3,1.4-4.4,2.3c-1.5,0.9-3.1,1.6-4,3.2c3,2.5,4.8,3.1,7.6,2.7c-2.1-0.8-4.4-1-6.2-2.9
		c2-1.4,4-2.8,5.9-4.1c0.5-0.3,1.1-0.6,1.1-1.3C485.6,437.2,486.1,437,486.5,436.6l0-0.2L486.5,436.6z M476.3,437.2l0.1,0.1
		L476.3,437.2c-0.2-0.9-0.4-1.7-1.4-2.1c-0.1-0.5-0.1-0.9-0.3-1.4c-1-2.1-1.3-4.3-0.7-6.6c0.1-0.5,0.4-1-0.2-1.5
		c-0.8,1.5-1.1,3.2-1,4.8c0.1,1.8,0.4,3.5,2.2,4.5C474.9,436,475.6,436.6,476.3,437.2z M492.9,425.6c-1.1-0.1-2.1,0-3.1,0.6
		c-2.6,1.5-5.2,2.9-7.8,4.4c-0.3,0.2-0.6,0.4-0.4,1.1c2.7-1.1,5.4-2.3,8-3.4c0.9-0.4,1.6-1,2.4-1.5
		C492.5,426.4,492.9,426.1,492.9,425.6c0.2-0.1,0.5-0.2,0.3-0.1C493.4,425.4,493.2,425.5,492.9,425.6z M474.9,421.2
		c0.2,0.1,0.5,0.2,0.7,0.1c4.6-0.7,9.2-1.9,13.5-3.7c0.5-0.2,0.8-0.5,0.9-1.1c-0.2-0.1-0.4-0.4-0.6-0.3c-4.2,1.5-8.5,2.6-12.8,3.8
		C475.9,420.3,475.2,420.4,474.9,421.2c-0.3,0.2-0.3,0.3-0.1,0.3C474.8,421.5,474.8,421.3,474.9,421.2z M646.2,450.2
		c-1.3-2.3-1.3-2.3-3.2-2.5C643.8,449.1,644.8,450,646.2,450.2c0,0.3-0.1,0.7,0,1c1.3,2.9,2.5,5.9,4.2,8.6c0.3,0.4,0.6,0.7,1.1,0.7
		c0.1-0.2,0.4-0.4,0.3-0.6c-0.7-3.4-2-6.6-4.1-9.4C647.5,450.1,646.8,450.1,646.2,450.2z M637.6,505c0,1,0.1,2,0.1,3
		C638.1,507,638.3,506,637.6,505c0.2-4.2-1-10.8-2.6-14.2c-0.5,0.1-0.8,0.5-0.9,0.9c-0.3,1.1-0.2,2.1,0.1,3.2
		c0.9,3.1,1.8,6.2,2.8,9.3C637.1,504.5,637.4,504.8,637.6,505z M613.7,466.1c4.7-0.6,9-2.2,13.2-4.3c1.3-0.6,2.5-1.3,3.6-2.4
		c0.4-0.4,0.8-0.9,0.6-1.6c-0.3-0.6-0.8-0.9-1.4-0.8c-0.7,0.1-1.4,0.3-2.1,0.5c-4.6,1.9-8.8,4.3-12.8,7.2
		C614.3,465.1,613.8,465.5,613.7,466.1c-0.1,0.1-0.7,0-0.2,0.5C613.5,466.4,613.6,466.2,613.7,466.1z M639.6,513.5
		c-0.9,0.2-1.1,0.7-1,1.3c0.3,1.6,0.7,3.2,1.7,5.2C640.3,517.5,641.3,515.4,639.6,513.5z M636.4,599.5c1.4-2,1.4-2.8,0-4.2
		C636,596.7,636,598,636.4,599.5z M637.3,603.9c-0.4,2.3-0.4,2.3,0.8,4.4C638.1,606.3,638.7,605,637.3,603.9z M650.2,445
		c0.1,1.2,0.1,2.5,1.4,3.4C651.4,447.1,651.8,445.7,650.2,445z M609.8,467.1c-2-0.7-2-0.7-3,1C608,468.3,609.1,468.6,609.8,467.1z
		 M642.9,442.5c0.4-0.6,0.4-1.1-0.4-1.4C642,441.7,642.2,442.2,642.9,442.5z M640.2,525.2c-0.1,0-0.2,0-0.2,0.1c0,0.1-0.1,0.2,0,0.3
		c0.1,0.3,0.3,0.2,0.4-0.1C640.3,525.4,640.2,525.3,640.2,525.2z M636.8,486.5c-0.1-0.2-0.3-0.3-0.4-0.5c-0.1,0.1-0.2,0.1-0.3,0.2
		c-0.1,0.3,0,0.5,0.2,0.6C636.5,486.9,636.6,486.7,636.8,486.5z"/>
	<path fill="none" d="M654.9,434.3c0.5-0.2,1.2,0,1.4-0.5c0.3-0.8,0-1.2-0.3-1.6c-2.5-3-5.7-4.9-9.4-5.9c-1.3-0.4-2.8-0.4-3.8-1.5
		l-0.1,0.1c3.2-0.2,6.2,0.6,9.3,1c4.8,0.5,9.5,1.3,14.3,1.9c4,0.5,7.8,1.4,11.6,2.4c2.4,0.6,4.9,1.2,7.3,1.9
		c1.3,0.4,2.5,0.8,3.6,1.2c1,1.1,0.5,2.5,1.4,3.4c0.8,0.8,1.4,1.7,2.1,2.5c1.5,1.7,3.1,3.4,4.5,4.9c0.1,0.5,0.2,0.7,0.1,0.9
		c-1,4.4-1,8.8-0.9,13.3c0,1.8,0,3.6-1.5,4.9c0.1,3.3,0.8,6.3,1.3,9.4c0.6,3.4,1.2,6.9,1.7,10.3c0.3,1.9,0.5,3.8,0,5.7
		c-0.2,0.8-0.2,1.7-0.1,2.5c0.6,6.6,0.3,13.2,0.4,19.8c0,0.4,0,0.7,0,1.1c-1.6,7.2-0.7,14.4-0.4,21.6c0,1.2,0.1,2.4,0.1,3.6
		c0,5.7,0.1,11.3,0,17c-0.1,5.4-0.4,10.8-0.5,16.2c-0.1,4.7,0,9.4-0.1,14.1c-0.1,3.4,0.9,6.7,1.2,10c0,0.5,0.2,1,0.2,1.4
		c-0.2,4.3,0.7,8.4,1.6,12.5c0.3,1.3,0.4,2.6,0.5,3.9c0.1,2.4,0.4,4.8,1.1,7.1c0.3,1.3,0.8,2.5,0.5,4.1c-2.5,2.7-5,5.6-6.7,9
		c-4.3,2.2-8.4,4.4-12.2,7c-1.9-0.7-1.9-2.4-2.6-3.8c1.4,0.2,2.5,1.4,4.2,1.1c-1.5-2-2.4-4.4-5.1-4.8c-0.7,0.6-0.5,1.2-0.3,1.7
		c0.4,0.7,1.3,1.1,1.4,2c-0.9,0-1.6-0.4-2.2-1c-0.7-0.8-1.4-1.6-2-2.4c0-4-0.1-8,0-11.9c0.4-9-1.2-17.7-3.4-26.4
		c-0.8-3-1.5-6.1-2.1-9.1c-1.7-8.3-4.1-16.3-6.4-24.4c-0.9-3-1.9-6-2.6-9c-0.9-3.7-0.7-7.4-0.4-11.1c0.3-4.7,0.7-9.4,0.8-14.1
		c0.1-4.1-0.2-8.2-0.3-12.3c-0.1-4.4-0.2-8.9,0.4-13.3c0.5-3.6,0.3-7.2-0.2-10.8c-0.6-5-1.3-10-1.9-14.8c0.2-1.4,1.5-1.8,1.8-2.8
		c-0.7-0.6-1.4,0.2-2.1,0.1c-0.8-0.4-1-1.1-0.9-1.8c0.7-4.2,0.2-8.4,0.4-12.6c0.2-3.1,0.2-6.2,0.3-9.4c0.3-0.3,0.6-0.7,1-1
		c0.7-3.1-0.3-5.9-2.1-8.4c-0.8-1.1-1.7-2.1-2.5-3.1C655.5,435.5,654.9,435.1,654.9,434.3L654.9,434.3z M675.8,479.2
		c-0.1-0.3-0.1-0.5-0.2-0.9C675.3,478.8,675.7,478.9,675.8,479.2c0.2,1.1,0.2,2.2,1.4,3.2C677.2,481,676.9,479.9,675.8,479.2z
		 M680.4,507.8c1.8-5.6,1.6-10.5,1.1-15.4c-0.1-1.4-0.6-2.8-1-4.2c-0.1-0.4-0.4-0.9-1-0.8c-0.7,0.3-0.8,0.9-0.6,1.5
		c0.4,1.8,0.5,3.6,0.7,5.3c0.4,3.6,0.6,7.2,0.5,10.8C680.1,505.7,680.2,506.4,680.4,507.8z M678.3,439c-0.5-0.2-0.9-0.3-1.3,0.4
		c0.4,2.8,0.9,5.7,1.3,8.6c1.6,1.6,1.6,1.6,3.2,1.5c-0.1-0.3-0.2-0.7-0.3-1c-1.2-1.9-1.8-3.9-1.9-6.1
		C679.2,441.2,679.1,440,678.3,439z M693.1,629.7c-0.2-1.4-0.5-2.8-0.6-4.2c-0.1-1.4-0.3-2.7-1.3-3.9c0.1,3-1.1,6,0.8,8.6
		c0.3,0,0.4,0,0.5-0.1C692.8,630,692.9,629.9,693.1,629.7z M679.8,516.8c0.9-1.9,0.9-1.9,0-3.6C679.5,514.6,679.4,515.7,679.8,516.8
		z M691.7,619.5c0.9-1.7,0.4-2.6-0.5-3.6C690.7,617.1,690.9,618.1,691.7,619.5z M689.8,610.9c0-1.4,0-1.4-0.9-2.7
		C689,609.4,688.8,610.3,689.8,610.9z M679.3,524.6c-0.3-0.4,0.7-1.1-0.4-1.5C678.7,523.8,678.6,524.3,679.3,524.6z M688.5,602.8
		c0.1-0.2,0.2-0.4,0.3-0.5c0-0.2-0.1-0.4-0.2-0.6c-0.1,0.2-0.2,0.4-0.2,0.5C688.3,602.4,688.4,602.6,688.5,602.8z"/>
	<path fill="none" d="M448.4,332.2c1.1-2.1,1.3-4.5,2.9-6.2c0.2-0.2,0.3-0.7,0.3-1c0.9-5,1.9-9.9,1.8-15c0-3.4,0.2-6.7,0.4-10.1
		c0-0.8,0.3-1.7,0.6-2.4c1-2.5,1.6-5,1.9-7.7c0.2-1.5,0.7-3,1.1-4.6c0.8-3.2,1.6-6.3,2.3-9.5c0.8-3.8,0.6-7.7,0.3-11.6
		c1.5-2.1,1.8-4.6,1.8-7.1c-0.2-8.4,2-16.4,4.7-24.3c0.1-0.2,0.2-0.4,0.3-0.7c0.9-3.1,2.8-5.2,5.8-6.4c3.4-1.4,6.8-3.2,10.4-4.5
		c0.5-0.7,0.9-1.5,1.5-2.4c1.6-0.8,3.5-0.9,5-2c0.7-3.3,0.7-6.7,0.8-10.1c0.1-3.1,0.1-6.3,0.4-9.4c0.4-4.5-0.4-8.9-0.8-13.3
		c-0.3-4.2-1.3-8.3-2.3-12.4c-0.7-2.7-1.1-5.4-1.7-8.3c1,0.7,1,1.6,1.2,2.4c1.4,4.5,2.7,9,4.3,13.4c1,2.6,1.5,5.3,2.2,8
		c0.8,2.9,1.1,6,2.4,8.7c1.6,3.6,1.2,7.3,1.1,10.9c0,1.7,0,3.4,0,4.7c-0.8,1.9-2.5,2.4-3.5,3.7c0.3,0.3,0.5,0.6,0.7,0.9
		c1.3-0.3,2.6-0.6,3.8-0.9c1,0.8,0.2,1.9,0.8,2.8c0.3,0.5,1,0.3,1.6,0.6c0.8,0.6,0.1,1.6,0.6,2.3c1.3,1.3,2.5,2.6,3.8,3.9
		c1.2,1.3,2.7,2.3,3.2,4.2c0.2,0.8,1.2,1.5,1.9,2.1c3.3,3,5.7,6.5,7.4,10.5c1.1,2.4,2.2,4.8,2.8,7.4c1.4,6.2,0.5,12.2-1.9,17.9
		c-0.7,0.1-0.6-0.3-0.7-0.6c-0.1-0.2-0.3-0.4-0.5-0.6c-0.3,0.2-0.7,0.3-0.8,0.5c-0.3,0.8-0.6,1.6-0.8,2.4c-0.6,2.6-1.6,5.1-3.1,7.3
		c-2.5,3.7-4.4,7.7-6.9,11.4c-3.7,5.5-8.8,9.1-15,11.6c-0.1-0.5-0.4-0.8-0.3-1.1c1.4-6,2.3-12,3.3-18.2c0.8-0.8,1.4-1.8,2.1-2.8
		c0.6-1,1.6-1.8,2.5-2.6c0.9-0.8,1.8-1.5,2.6-2.3c-0.7-1.1-1.3-0.3-2-0.2c-0.7,0-1.4,0.1-2.1,0.1c-2,1.2-3.2,2.9-3,5.1
		c-0.5,1.1-1.4,0.7-2,1.1c-0.6,0.5-0.7,1.2-0.8,1.9c-0.7,3.8-1.3,7.6-2.1,11.4c-0.6,3.1-1.1,6.2-2.7,8.9c-0.1,0.2-0.2,0.4-0.2,0.7
		c-0.6,5.2-3.1,9.9-3.6,15.1c-0.1,0.9-0.5,1.9-0.9,2.7c-1.4,3.1-2.4,6.3-4.2,8.9c0,0.3,0,0.5,0.1,0.6c2.2,4.7,3.6,9.7,4.5,14.8
		c0.4,2.1,1.1,4.2,2,6.2c0.7,1.6,1.4,3.4,1.7,5.1c0.6,3.6,2.3,6.8,3.4,10.3c0.4,1,0.9,1.9,2,2.6c-0.9,4.5-2.8,8.6-4.8,12.4
		c-0.8,0.5-1.5-0.2-2.2,0.9c-0.9,2.2-1.6,5-3.2,7.6c-1.4-1.7-1.8-4.2-4.6-3.8c-0.2-1.4-1.1-2.2-2-2.9c-4.9-4.1-8.8-9.2-12.3-14.5
		c-1.5-2.3-2.5-4.9-3.5-7.5c-0.5-1.2-0.6-2.5-1.7-3.5c-0.6-0.6-0.6-1.5-0.6-2.4c0-3-1-5.6-2.1-8.3
		C452,340.7,449.6,336.8,448.4,332.2z M469.1,366.4c-0.1-0.2,0.1-0.7-0.4-0.4C468.8,366.1,469,366.2,469.1,366.4
		c0.1,0,0.1,0.1,0.2,0.2c0,0,0.1,0,0.2,0C469.3,366.5,469.2,366.5,469.1,366.4z M459,348.2c0.1,0.1,0.1,0.2,0.2,0.2
		C459.1,348.4,459,348.3,459,348.2c-0.4-2.1-1.3-4.1-2.7-6.2C456.1,344.6,456.9,346.4,459,348.2z M494.8,199.5
		c-1.3,5.3-2.1,10.7-3.6,15.9c0,0.1,0.2,0.3,0.4,0.5c1.3-0.5,1.5-0.6,1.6-1.1C494.3,209.8,495.1,204.7,494.8,199.5z M461.1,350.4
		c-0.1,0.7-0.2,0.9-0.1,1.1c0.8,1.3,1.6,2.5,2.8,4.3C463.1,352.7,463.1,352.7,461.1,350.4z M476.7,318.6c-0.4,1.9-0.4,3.2,0,5
		C477.2,321.8,477.1,320.6,476.7,318.6z M462.8,278.4c0.3,1.3,0.3,1.3,1,1.6C464.1,279.2,463.6,278.9,462.8,278.4z M465.1,358.2
		c0,0.1-0.1,0.2-0.1,0.3c0.1,0.2,0.2,0.1,0.2-0.2C465.3,358.3,465.2,358.2,465.1,358.2z"/>
	<path fill="none" d="M567.4,335.9c0.7,0.1,1.1-0.4,1.5-0.8c2.7-2.8,4.3-6.1,5-9.8c0.3-1.7,0.8-3.2,1.5-4.8c0.5-0.9,0.8-2,1.2-3.1
		c1.3-0.3,1.7,1.4,3,1.5c1.1,0.1,2.2,0.8,3.4,1.4c0,2.4-0.4,4.6-1,6.8c-0.4,1.4-0.7,2.8-1.1,4.2c-0.7,3.2-2,6.2-3.8,8.9
		c-2.2,3.3-4.5,6.6-6.9,9.7c-2.2,2.7-3.9,5.7-4.9,9.1c-0.9,3-2,5.9-3.1,8.8c-0.6,1.6-0.9,3.2-0.9,4.9c-0.1,5.4,0.4,10.8,0.8,16.2
		c0.2,2.9,0.6,5.7,0.8,8.6c0.1,3.1,0.1,6.3,0,9.4c0,0.9-0.4,1.9-0.6,2.8c-0.6,0.2-1,0.5-1.4,0.5c-3,0.4-6,0.7-9,1
		c-5.1,0.5-10-0.7-14.9-2c-6.6-1.8-13.2-3.7-19.8-5.5c-0.2-0.1-0.4-0.2-0.8-0.5c-0.6-2.5-0.9-5.3-2.9-7.8c-0.5,2.6,1,4.7,0.5,7.1
		c-2.8,0.1-5.4-1-8-1.7c-2.7-0.7-5.4-1.2-8.1-1.8c-2.7-0.6-5.4-1.3-8.1-1.8c-2.7-0.5-5.4-0.9-8.1-1.3c-0.5-0.8,0.1-1.4,0.4-2
		c2.1-4.2,4.2-8.4,6.3-12.6c3.9-7.7,6.4-15.8,7.8-24.3c0.2-1.3,0.5-2.5-0.2-3.9c-0.3-0.7-0.2-1.6-0.2-2.5c0.1-1.8,0.3-3.6,0.6-5.4
		c0.4-2.6,0.2-5.1-0.6-7.5c-1-2.5-1.2-5.1-1.7-7.6c0.4-0.9,1.2-0.9,1.8-1.1c5.3-1.6,10.6-3.2,16-4.3c7.7-1.6,15.3-3.2,23.1-3.9
		c5.8-0.5,11.5-1.2,17.2-1.8c3.1-0.3,6.2-0.5,9.3-0.8c0.8-0.1,1.7-0.1,2.5-0.3c3.1-0.9,6.2-0.6,9.3-0.6c0.2,0,0.4,0.2,0.7,0.3
		c-0.6,2.2-1.1,4.3-2.2,6.3c-1.8,3.5-3.1,7.3-4.5,11C567.4,335.2,567.5,335.6,567.4,335.9c-0.6,0.6-1.3,1-1.9,1.5
		c-0.2,0.4-0.4,0.8-0.5,1.1c-2.1,6.7-4.5,13.3-7.7,19.7c-0.4,0.7-0.6,1.6-0.8,2.4c-0.2,0.5-0.4,1-0.6,1.5l-0.2,0.1l0.1-0.2
		c0.5-0.4,0.6-0.9,0.6-1.5c1-0.2,1.5-1.1,2.1-1.8C564.1,352,566.8,344.4,567.4,335.9z M536.3,341.8l-0.1-0.2L536.3,341.8
		c0.1,0,0.2,0,0.2,0.1C536.5,341.9,536.4,341.9,536.3,341.8z M544.3,351.2c0.4-0.1,0.7-0.3,0.6-0.8c0.8,0.2,1.4-0.1,2-0.5
		c3.7-1.9,7.5-3.8,11-6.2c1.6-1.1,3.1-2.3,4.4-3.6c1.3-1.4,1.7-2.3,2-5.1c-3.1,3.2-6.8,4.8-10.3,6.9c0.2,0.3,0.5,0.6,0.8,1
		c-2.3,1.5-4.5,3.1-6.7,4.6c-1.2,0.8-2.5,1.5-3.1,2.9C544.6,350.5,544.3,350.7,544.3,351.2C544.5,351.1,544,351.5,544.3,351.2z
		 M537.9,380.7c0,0.7-0.2,1.5,0.3,2.2C538.6,382.1,538.4,381.4,537.9,380.7c-0.2-0.7,0.1-1.5-0.4-2.3
		C537,379.3,537.2,380.1,537.9,380.7z M545,332.4c-0.4-0.3-0.8-0.6-1.4-0.2C544.2,332.2,544.7,332.2,545,332.4
		c1.2,0.6,1.2,0.6,2.8,0C546.9,332.4,546,332.4,545,332.4z M501,349.7c-0.1,0.4-0.2,0.8,0.4,0.9C501.6,350.1,501.4,349.8,501,349.7
		c-0.1-2.4-1.3-4.5-2.1-6.7c0-0.1-0.4-0.1-0.8-0.2C498.4,345.4,498.7,347.9,501,349.7z M554.7,364.4c-1.4,1.5-1.9,3.6-3.7,4.3
		c-0.8,2.3-0.6,4.3,0.2,6.2c1,2.5,1.5,5,1.9,7.7c0.1,0.9,0.4,1.9,0.6,2.8c0.2,0.8-0.2,1.7,0.6,2.5c0-1.3,0.1-2.5,0-3.7
		c-0.2-2-1-4.1-0.7-6c0.4-2.1,0.1-4,0-6c-0.1-2.6,0-5,1.3-7.3C554.9,364.9,554.8,364.7,554.7,364.4z M536.5,352.2
		c-0.2-0.1-0.4-0.3-0.6-0.2c-3,0.6-6,1.5-9.1,1.6c-0.3,0-0.6,0.3-0.9,0.5c-0.3,0.1-0.4,0.2-0.3,0.5c0.5,0.2,0.9,0.8,1.6,0.5
		c0.1-0.3,0.2-0.6,0.3-0.9C535.2,353.6,534.9,353.7,536.5,352.2z M543.7,353.7c-2,2.7-2,2.8-1.8,4.9
		C542.6,357.2,543.4,356.1,543.7,353.7z M546.6,344c1.2,0.7,2,0.7,2.6-0.4C548.3,343.2,547.6,343.2,546.6,344z M510.6,391.5
		c0.4-1.3,0.4-1.3-0.8-1.8c-0.4,0.2-0.3,0.6-0.2,0.9C509.8,391.2,510.1,391.4,510.6,391.5z M503,355.7c0.7-1.3,0.4-2-0.3-2.6
		C502.2,353.9,502.4,354.6,503,355.7z M523,354.9c-0.5-0.2-0.6-0.9-1.3-0.3C522,354.9,522.2,355.4,523,354.9z M539,367.3
		c-0.7,1.1-0.7,1.1-0.1,1.6C539.2,368.6,539.3,368.1,539,367.3z M507.1,371.3c-0.2,0.4-0.1,0.6,0.2,0.8c0.1,0.1,0.2,0.1,0.3,0.1
		c0.1-0.2,0.2-0.4,0.2-0.5C507.6,371.5,507.5,371.2,507.1,371.3z M509.1,385c-0.1,0.2-0.2,0.4-0.2,0.6c0,0.3,0.1,0.7,0.6,0.7
		c0.1,0,0.3-0.1,0.3-0.1c0-0.2,0-0.4,0-0.6C509.6,385.2,509.5,384.9,509.1,385z M553.4,390.9c-0.4,0.5-0.5,1-0.1,1.6
		C553.7,391.9,553.6,391.4,553.4,390.9z M538,328.4c0.4,0.3,0.6,0.6,0.9,0.7c0.1,0.1,0.4-0.1,0.6-0.1c0-0.1-0.1-0.2-0.1-0.3
		C539.2,328.2,538.8,328,538,328.4z M538.8,390.8c0.2-0.7,0.5-1,0-1.3C538.8,389.9,538.8,390.2,538.8,390.8z M541.2,343.2
		c0.2,0.1,0.3,0.3,0.5,0.4c0,0,0.2-0.2,0.2-0.2c-0.1-0.2-0.2-0.4-0.3-0.5C541.3,342.7,541.2,342.9,541.2,343.2z M532.3,340.8
		c0-0.1,0-0.2-0.1-0.2c-0.1,0-0.2-0.1-0.3-0.1c-0.3,0.1-0.3,0.3,0.1,0.4C532,340.9,532.2,340.8,532.3,340.8z M520.3,339.2l0,0.2
		l0.3-0.1L520.3,339.2z M518.1,338.6c0.1,0,0.2,0.1,0.3,0.1c0,0,0.1-0.1,0.1-0.2c-0.1,0-0.2-0.1-0.3-0.1
		C518.2,338.4,518.1,338.5,518.1,338.6z M531.2,325.6l0-0.2l-0.3,0.1L531.2,325.6z"/>
	<path fill="none" d="M576.2,248.9c0.5,0.2,0.7,0.2,0.8,0.2c5.7,5.9,12.1,11,18.6,16c4.1,3.2,6.9,7.4,8.6,12.3
		c1.1,3.3,1.7,6.7,1.7,10.3c0,3.2-1.1,6.1-1.9,9.1c0,0.1-0.1,0.2-0.2,0.3c-2.7,3.7-5.1,7.7-9.4,9.8c-1.7,0.9-3.4,1.9-5.2,2.5
		c-1.8,0.7-2.7,1.9-3.1,3.7c-0.1,0.7-0.3,1.4-0.4,2c-0.7,0.6-1.2,0.3-1.8,0.2c-4.9-1.4-10-1.7-15-1.5c-0.5,0-1,0-1.4,0.1
		c-3.3,0.8-6.7,0.8-10,1.1c-2.9,0.2-5.7,0.6-8.6,0.9c-4.7,0.5-9.3,0.9-14,1.3c-4.7,0.4-9.3,1-13.9,2c-7.3,1.5-14.6,3.2-21.7,5.4
		c-1.7,0.5-3.4,1.2-5.3,1.8c-1.1-1.9-1.3-4.1-2-6.1c-0.7-1.9-1.5-3.8-2.2-5.7c-0.8-2-1.2-4.2-2.3-6.1c0.7-2.3,1.4-4.6,2.1-6.8
		c2.5-0.7,4.8-1.2,7-2.3c4.1-2,7.4-5,10.8-7.8c1.8-1.5,3-3.7,4.1-5.9c0.6-1.2,1.1-2.4,1.6-3.6c1.2-2.9,2.2-5.9,4.7-7.9
		c4.3-6.2,6.8-13,6.4-20.7c-0.1-2.1-0.7-4.3-1.3-6.4c-1.7-6.1-4.1-11.8-8.9-16.2c-0.3-0.2-0.6-0.5-0.8-0.8c-2-3.9-5.7-6.2-8.5-9.3
		c-0.6-0.6-1.4-1-1.6-1.8c0.2-0.7,0.9-0.7,1.5-1.1c1.6,0.4,2.9,1.5,4.2,2.6c3.8,3.1,7.5,6.4,11.1,9.8c2.6,2.5,5.2,5,7.8,7.5
		c0.6,0.6,1.2,1.2,1.7,1.9c0.6,0.8,1.2,1.5,1.7,2.4c2.7,4.4,6.8,7.1,11.4,9.1c1.9,0.8,3.8,1.9,5.7,2.1c4.8,0.5,9.2,2.8,14.1,2.8
		c3.4,0,6.7-0.3,10-1.2C574.8,254,576.7,252.5,576.2,248.9z M520.4,300.7c-0.1-0.1-0.1-0.3-0.1-0.3
		C520.3,300.4,520.4,300.5,520.4,300.7c1.2,1.1,2.5,1.9,4,2.3c1.1,0.3,2.3,0.7,3.4,1.2c2.6,1.3,5.3,2.2,8.1,3
		c9.9,2.9,19.7,2.6,29.4-0.9c1.1-0.4,2.2-1,3.2-1.6c0.5-0.3,0.7-1,0.4-1.6c-0.5-0.5-1.1-0.5-1.7-0.4c-0.8,0.2-1.6,0.5-2.4,0.8
		c-5.6,1.9-11.4,2.9-17.4,2.5c-3.5-0.2-6.9-0.8-10.3-1.6c-2.8-0.6-5.6-1.2-8.5-1.7c-1.7-0.3-3.3-0.6-4.8-1.5
		C522.8,300.6,521.6,300.3,520.4,300.7z M575.3,300.6c-1.9-0.6-2.1-0.5-3.2,1.1C573.5,302.2,574.3,301.5,575.3,300.6z M515.1,297.9
		c-1.1-0.8-1.1-0.8-2.1-0.2C513.7,298.4,514.3,298.5,515.1,297.9z"/>
	<path fill="none" d="M669,650.2c4.4-0.8,8.4-2.5,12.1-4.7c1.2,0.4,1.6,1.4,2.2,2.3c-0.2,0.2-0.3,0.4-0.5,0.4
		c-2.1,0.5-4.2,1-6.3,1.6c-1.5,0.5-2.8,1.3-3.6,2.8c-0.5,0.9-0.7,1.8,0.5,2.8c1.2-0.3,2.6-0.6,4-1c1.9-0.5,3.7-1.1,5.5-1.6
		c1.6-0.4,2.9-1,3.4-2.9c1.7,0.8,3.1,1.7,4.4,3.2c-1.4,0.3-2.6,0.5-3.8,0.7c-1.2,0.3-2.4,0.5-3.5,0.9c-0.5,0.2-1.1,0.6-1.5,0.9
		c-0.9,0.8-0.5,2.2,0.6,2.6c1.1,0.3,2.1,0.3,3.2,0.2c2.8-0.3,5.5-0.6,8.2-1.3c0.3-0.1,0.7-0.2,1,0.1c-1,1.2-2.5,1.7-4,2.2
		c-1.5,0.5-2.9,1.1-3.5,2.6c0.1,1.2,0.8,1.7,1.6,1.9c0.9,0.2,1.9,0.3,2.9,0.1c3.4-0.5,7-0.7,9.7-2.9c1,0.1,1.5,0.6,2,1.1
		c-0.1,0.2,0,0.5-0.2,0.6c-0.9,0.6-1.8,1.2-2.7,1.7c-0.5,0.3-1,0.7-1.2,1.5c0.8,1.8,2.7,1.4,4.3,1.6c1.6,0.2,3.1-0.5,4.5-0.9
		c2.8,1.8,5.4,3.3,8,5.1c2.8,1.9,5.9,3.2,9.2,4c1.4,0.3,2.9,0.3,4.2,1.2c0.5,2.5,0.6,5,0.3,7.6c-1.5,0.9-2.9,1.3-4.5,0.8
		c-2.4-0.7-4.8-0.5-7.2-0.2c-8,0.9-16.1,1.4-24.1,1.6c-3.8,0.1-7.7,0.1-11.5,0.3c-2.6,0.2-5.3-0.1-7.9-0.3c-4-0.4-7.9-0.8-11.8-1.4
		c-1.5-0.2-3-0.7-4.5-1c-2.3-0.5-4.8-0.8-7.1-0.5c-7.6,0.8-15.1,0.2-22.6-1c-3-0.5-5.8-1.4-8.7-2.5c-0.3-0.1-0.6-0.4-0.8-0.6
		c0-0.3-0.2-0.6-0.1-0.7c1.5-3,2.5-6.3,3.2-9.5c0.4-1.8,0.9-3.5,1.8-5.1c1.4-2.7,2.1-5.6,1.9-8.7c-0.1-2.2,0.4-4.3,1.5-6.2
		c0.8-1.3,1.3-2.8,1.3-4.5c0-1.5,0.5-2.7,1.5-4c-0.6,2.7,0.8,4.4,2.8,5.8c1.7,1.2,3.4,2.3,5.2,3.3c2.1,1.2,4,1.1,6-0.5
		c3-2.4,6.3-4.5,9.6-6.3c3.2-1.8,5.9-4.1,7.9-7.2c1.9-3,4.5-5.2,8.2-6.1c2.9,4,6.5,7.4,9.2,11.4c-0.2,1.1-1.1,1.1-1.7,1.3
		c-2,0.9-4,1.6-6,2.5c-1.1,0.5-2.2,1-2.9,2.1C667.9,648.4,667.8,649.3,669,650.2z"/>
	<path fill="none" d="M517.1,683.5c-2.4,3.4-6.1,2.8-9.5,3.7c-1.1-1.1-2.6-1.2-4.1-1.4c-0.3-0.8,0.2-1.3,0.5-1.8
		c0.7-1.4,0.8-2.8,0.5-4.2c-0.5-2.1-0.8-4.2-1-6.3c-0.9-0.2-0.9,0.3-1,0.7c-0.2,1.6,0,3.1,0.3,4.7c0.5,2.6,0.5,2.8-0.6,5.2
		c-0.8,0.3-1.6-0.1-2.4-0.3c-0.7-0.5-1.2-1.2-1-2.2c0.4-2.4-0.1-4.8-0.3-7.2c-0.4-3.8-0.3-7.7,0.1-11.5c0.5-5.3,1-10.5,0.9-15.9
		c0-2.7,0.2-5.3,0.5-7.9c0.2-1.3,0.2-2.6,0.2-4c-0.2-8.7,0.3-17.3,1-26c0.6-8.2,1-16.3,1.3-24.5c0.3-7.8,1-15.6,1.5-23.4
		c0.4-7.1,0.7-14.2,1.1-21.3c0.1-0.9-0.1-1.9,0.6-2.9c1.8-0.1,3.7,0,5.6-0.3c1.8-0.2,3.5-0.9,5.4-0.8c0.5,1.3,0.3,2.7,0.3,3.9
		c0,18.5,0,37.1,0,55.6c0,5.5,0.1,11.1,0.3,16.6c0.2,5,0,10.1-0.8,15.1c-0.4,2.4-0.4,4.8-0.1,7.2c0.5,4.4,0.6,8.9,0.5,13.3
		c0,9.8-0.1,19.5-0.1,29.3C516.7,679.3,516.7,681.5,517.1,683.5z M504.3,641c-0.4,0.5-0.2,0.9-0.1,1.8
		C504.2,642,504.2,641.5,504.3,641z M504.9,625.2l0-0.2L504.9,625.2L504.9,625.2z"/>
	<path fill="none" d="M434.5,638.1c-1.6,6.7-2.9,13.4-4.9,20c-1.1,3.7-1.8,7.5-1.8,11.4c-0.7,1.4-2.2,1.6-3,2.5
		c-1.2-0.2-0.4-1.2-1-1.5c-1-0.6-2.4,0.7-3.2-0.4c-0.9,0-0.6,1-1.8,1.2c-2.3-0.9-3.1-3.2-3.6-5.7c1.4-3,2.4-6,2.8-9.3
		c0.5-3.8,0.9-7.6,1.4-11.5c0.5-4.3,1.1-8.6,1.7-12.9c1.2-7.6,2.3-15.2,4-22.8c0.3-1.4,0.5-2.9,0.9-4.2c2.4-8.1,3.8-16.4,5.6-24.6
		c1-4.8,2.3-9.6,3.2-14.4c2.5-13.1,5.2-26.2,8.1-39.2c1.2-5.5,1.8-11.2,2.6-16.8c0.5-3.7,1.3-7.3,2.4-11.1c4,0.3,7.8,1.2,11.5,1.5
		c0.7,1.1,0.6,1.9,0.4,2.7c-0.9,4-1.2,8.1-1.9,12.1c-1.5,8.6-3.2,17.3-5.3,25.8c-1.5,6.2-2.8,12.4-4.2,18.7c-0.5,2.3-1,4.7-1.7,7
		c-2.3,7.8-3.2,15.8-4.2,23.8c-0.4,3.6-1.1,7.1-1.7,10.7c-1.1,6.4-2.2,12.8-2.7,19.3c-0.2,1.9-0.7,3.8-1.2,5.6
		c-0.9,3.2-1.7,6.5-1.6,9.9C435.1,636.7,435.1,637.6,434.5,638.1c-0.2-0.4-0.2-0.8-0.4-1.6c-0.2,0.8-0.3,1.2-0.4,1.7
		c-2.2,0.4-4.4,0.7-6.6,1.1c2.2,0.6,4.3,0.4,6.4-0.5c0-0.2,0.1-0.5,0.1-0.7C433.9,638.1,434.2,638.1,434.5,638.1z M425,646.2
		c-0.1-0.5-0.3-0.8-0.9-0.3C424.4,645.9,424.8,646,425,646.2c0.6,0.6,1.2,0.9,2.1,0.3C426.3,645.8,425.7,646,425,646.2z
		 M451.5,537.6c0.9-4.1,1.9-8.1,2.8-12.2c0.4-1.7,0.5-3.5,0.1-5.4c-0.2,0.2-0.4,0.3-0.4,0.4c-0.4,4.6-1.5,9.2-2.6,13.6
		C451.1,535.3,451,536.4,451.5,537.6z M448.9,535.2c-1.2-0.9-2-1.6-3.2-0.9C446.3,535.6,447.3,535.7,448.9,535.2z M450.7,541.3
		c0.2-0.5,0.3-1,0-1.5C450.4,540.2,450.4,540.7,450.7,541.3z"/>
	<path fill="none" d="M734.3,650.4c-0.1,0.9-0.8,1.2-1.4,1.4c-0.9,0.3-1.8,0.5-2.7,0.9c-1.3,0.5-1.4,0.7-2.4,2.4
		c0.1,0.8,0.6,1.3,1.3,1.5c0.7,0.2,1.4,0.4,2.1,0.3c3.7-0.5,7.5-0.6,10.6-2.8c1.1-0.1,1.5,0.6,2.2,1.4c-1.4,0.9-2.6,1.6-3.8,2.4
		c-0.3,0.2-0.3,0.2-0.4,1.6c3,1.2,3,1.2,6,0.8c1.2-0.7,2-2.4,3.9-2.2c1.7,0.2,2.7,1.7,4.2,2.6c1.4,0.8,3.4,0.8,3.9,2.5
		c3.7,1.5,7.6,1.1,11.1,2.6c-0.3,2.9,0.7,5.4,1.3,7.9c0.3,1.5,0.3,1.5-0.5,3.4c-1.4,0.7-2.8,0.9-4.5,0.5c-3-0.7-6-0.2-9,0
		c-6.5,0.6-12.9,1.2-19.5,1.2c-0.8,0-1.7-0.1-2.6-0.1c-0.9-1.5-0.6-3.4-2.2-4.7c-2.2-0.6-4.7-1.3-7.1-2c-0.9-0.3-1.9-0.5-2.7-1
		c-4.3-2.5-8.7-4.8-12.3-8.2c-3-2.8-6.2-5.4-9.7-7.4c-0.9-0.5-1.5-1.2-2.1-1.9c-1.8-2.2-4-3.8-6.5-5.1c-1.4-0.7-2.7-1.5-4.1-2.3
		c-1.1-0.7-2.2-1.4-2.7-2.7c0-0.9,0.8-1.2,1.3-1.6c2.7-1.7,5.3-3.3,8-4.9c3-1.7,5.5-3.7,7.5-6.7c2-3,4.6-5.2,8.4-6.1
		c2.8,4,6.6,7.2,9.3,11.5c-2.2,1.2-4.4,1.9-6.5,2.7c-1.3,0.5-2.7,1-3.8,2c-0.8,0.8-0.9,1.3-0.2,3c4.5-0.3,8.4-2.4,12.2-4.3
		c0.9,0,1.2,0.5,1.6,1c0.4,0.4,0.9,0.8,0.9,1.6c-2.4,0.4-4.7,0.7-7,1.6c-1.5,0.6-2.8,1.4-3.6,2.9c-0.3,0.7-0.3,0.8,0.4,2.4
		c1.7,0,3.2-0.7,4.8-1.1c1.3-0.3,2.5-0.8,3.8-1.1c1.9-0.4,3.7-1,4.6-3c1.5,0.8,2.9,1.6,3.8,2.8c-0.3,0.9-1,0.6-1.5,0.7
		c-1.8,0.1-3.6,0.5-5.3,1.1c-1,0.4-2,0.9-2.2,2.1c0.1,0.9,0.7,1.3,1.4,1.5c1.1,0.3,2.1,0.2,3.2,0.1
		C728.9,651.1,731.7,650.8,734.3,650.4L734.3,650.4z"/>
	<path fill="none" d="M568.5,528.6c3-1,3-1,4.7-3c-1.6,0-2.8,1.4-4.2,1.1c-0.7-0.3-0.7-1-0.7-1.5c-0.4-3.3-0.7-6.7-1.3-10
		c-0.7-4.2-1.5-8.3-2.3-12.5c1.5-0.7,3.2-0.6,4.8-0.9c1.5-0.3,3.1-0.4,4.6-0.6c0.7,0.5,0.6,1.3,0.7,2c0.7,4.2,1.3,8.3,1.4,12.5
		c0,3.2,0.5,6.5,0.8,9.7c0.6,6.3,1.3,12.7,2,19c0.2,2.3,0.5,4.6,0.9,6.8c1,5,1.3,10,1.9,15c0.6,5.7,1.1,11.5,1.7,17.2
		c0.2,1.7,0.4,3.3,0.8,5c0.9,4.4,1.3,8.8,1.9,13.2c0.6,5.3,1.3,10.5,2.3,15.7c1.1,5.6,1.9,11.1,2.9,16.7c0.3,1.9,0.6,3.8,1.1,5.7
		c1.2,5.3,1.7,10.7,1.7,16.1c0,1.8,0.1,3.6,0.5,5.4c0.3,1.1,0.3,2.1,0.2,3.3c-1.7,2-4.1,1.7-6.1,1.9c-0.7-0.2-1-0.5-1.3-1.1
		c-1.4-0.2-3-0.2-4.3-1.4c-1-2.1-1.2-4.5-1.1-6.9c0.1-2.2-0.2-4.3-0.5-6.5c-0.6-4.8-1-9.6-1.5-14.5c1.8,1.5,1,4.3,3.4,5.5
		c0.3-1.6,0.1-2.9-0.6-4c-1-1.7-1.4-3.6-1.9-5.4c-1.4-5.8-2.4-11.8-3.1-17.8c-1.2-9.8-2.4-19.6-3.5-29.4c-0.7-6.9-1.9-13.8-2.6-20.8
		c-0.5-4.1-0.8-8.1-1-12.2c-0.2-5.1-0.8-10.1-1.3-15.1C569,534.1,568.7,531.5,568.5,528.6z M584.8,655.4c-0.2,1.2,0,2.5,0.4,3.6
		C585.4,657.8,585.8,656.5,584.8,655.4c0.3-3.6-0.7-7.1-1.1-11.1c-0.2,0.6-0.3,0.8-0.3,1.1c-0.2,3.2,0.7,6.4,0.9,9.6
		C584.4,655.1,584.7,655.3,584.8,655.4z"/>
	<path fill="none" d="M436.6,480.6c0.3-2.1,2.1-2.4,3.6-2.9c0.6-0.2,1.2-0.1,1.8-0.1c4.1,0.1,8.2-0.4,12.2-1
		c2.6-0.4,5.2-0.7,7.5-0.3c1.2,0.8,0.7,1.8,1,2.6c1.5,1.6,3.7,2.1,5.4,3.5c-0.1,0.5-0.5,0.5-1,0.7c1,0.4,1.9,0.9,2.8,1
		c2.3,0.3,4,1.4,5.3,3.2c5.3,1.6,10.6,2.7,16,3.5c8.7,1.3,17.4,2.6,26,4c3.5,0.6,7.1,1.3,10.7,0.6c1.2-0.2,2.4-0.3,3.6-0.1
		c4.8,0.7,9.6,0.1,14.4-0.4c4.9-0.6,9.8-1.1,14.6-2.4c0.7-0.2,1.4-0.2,2.1,0c1.6,0.6,3.3,0.4,5,0.5c3.4,0.1,6.7,0.1,10.1,0.2
		c2.1,0.1,4.1,0,6.1-0.6c1.6-0.4,3.3-0.5,5-0.4c0.2,1.1-0.2,2-0.5,2.9c-0.2,0.2-0.5,0.4-0.8,0.6c-0.8,0.3-1.6,0.6-2.4,0.7
		c-4.4,0.3-8.8,1.4-13.2,1.5c-1.7,0-3.3,0.5-5,0.7c-4.9,0.3-9.8,0.6-14.8,0.8c-0.4,0-0.7-0.1-1-0.1c-0.9-0.8-0.4-2.1-1.2-2.9
		c-0.8,1-0.1,2.2-0.9,3.3c-0.3,0.1-0.8,0.3-1.2,0.3c-3.8,0.3-7.7,0.6-11.5,0.8c-5.8,0.2-11.5,0.4-17.3,0.5c-4.1,0-8.2-0.2-12.3-0.3
		c-1.9,0-3.8-0.3-5.7,0.4c-0.8,0.3-1.9,0.1-2.9,0c-4-0.2-7.9-0.4-11.9-0.6c-3.6-0.2-7.2-0.4-10.8-0.8c-3.9-0.4-7.9-0.8-11.8-1.3
		c-2.1-0.3-4.3-0.8-6.4-1.2c-0.9-0.2-1.6-0.5-1.9-1.7c-0.2,0.4-0.3,0.6-0.5,1c-0.9,0.5-2,0.5-3,0.2c-1.4-0.3-2.8-0.6-4.2-0.9
		c-2.4-0.4-4.7-1.2-7.1-1.2c-0.7,0-1.4-0.3-2.1-0.5c-1.4-2.1-0.7-4.5-0.9-6.7c-0.3-2.1-0.7-4.3,0.4-6.3c-0.5-0.4-0.7-0.6-1-0.8
		L436.6,480.6z M463,482.4c-1-1.3-1-1.3-2.2-1.1c-0.5,0.1-0.8,0.3-0.6,1.1C461,482.6,462,483.3,463,482.4z M456.5,480.8
		c-0.8-0.6-0.8-0.6-1.5,0.3C455.6,481.4,456.1,481.5,456.5,480.8z M449.2,493.7c0.4-0.5,0.2-1,0.1-1.6
		C448.9,492.6,449,493.2,449.2,493.7z M463.1,493.2c0-0.1,0-0.2-0.1-0.3c-0.1,0.1-0.2,0.2-0.2,0.3c0,0.1,0,0.2,0.1,0.3
		C462.9,493.4,463,493.3,463.1,493.2z M558.3,496.6c0.5-0.4,0.4-0.8,0.1-1.2C557.8,495.8,557.9,496.2,558.3,496.6z M449.4,480.1
		c0,0.1,0,0.2,0.1,0.2c0.1,0,0.2,0.1,0.3,0c0.3-0.1,0.2-0.2-0.1-0.3C449.6,480,449.5,480.1,449.4,480.1z"/>
	<path fill="none" d="M477.8,163.2c0,0.4,0,0.7,0.1,1.1c2.4,7.1,2.9,14.6,4.1,22.8c-0.6-1.1-1-1.4-1.1-1.8c-0.8-3.4-2.3-6.6-3.4-9.9
		c-0.7-1.9-1.7-3.9-1.8-5.8c0-4.4-2.2-8-3.4-12c-1-3.4-2-6.7-2.8-10.1c-1.5-6.3-0.3-12.2,2.8-17.7c0.6-1,1.3-1.9,2.5-2.4
		c1.2-0.5,2.1-1.5,3.2-2.3c1.9-1.4,4-2.1,6.4-2.2c0.2,0,0.4,0.2,0.9,0.3c-3.2,3.2-6.2,6.5-7.5,10.8c-0.8,2.7-0.9,5.4-0.8,8.2
		c0.1,1.6,0.2,3.1,1.4,4.9c0-2.5-0.1-4.5,0-6.5c0.4-7.5,3-12.6,8.8-17.5c1-0.4,1.9-0.2,2.8,0.1c0.9,0.3,1.5-0.8,2.6,0
		c-0.6,1.5-1.2,3-2.7,4c-1.1,0.8-1.8,1.9-2.5,3.1c-3.4,5.7-4.2,12-3.8,18.5c0.2,3.4,0.4,6.7,0.3,10.1c-0.1,4.3,1,8.4,1.9,12.5
		c1.3,5.5,2,11.1,1.9,16.8c-0.1,4.8,0.1,9.6,0.1,14.4c0.1,4.3,0,8.7-0.5,12.9c-1,1-2,1.6-3.1,1.4c-0.5-0.3-0.5-0.4-0.4-0.7
		c2.5-7.1,3.5-14.5,3.5-22c0-5.2-0.8-10.3-1.7-15.4c-0.1-0.6-0.2-1.2-0.7-1.6c-0.2-0.2,0.2-0.6-0.3-0.7c0.1,0.2,0.2,0.4,0.4,0.6
		c0,3.6,0.2,7.2,0.4,10.8c0.2,2.6,0.1,5.3,0,7.9c-0.1,2.3-0.3,4.6-0.4,6.8c-0.1,1.3-0.2,2.7,0.5,3.9c-0.5,1.7-0.9,3.5-1.4,5.3
		c-0.7-0.6-0.5-1.2-0.5-1.8c0-3.2,0.2-6.5,0.5-9.7c0.5-6.1,0.4-12.3-0.5-18.4c-1-6.7-2-13.3-3.5-19.9c-0.3-1.4-0.7-2.7-1.4-4
		c-0.4,2.1,0.7,3.9,0.5,6C478.5,163.7,478.1,163.5,477.8,163.2c-0.1-0.3,0.1-0.7-0.4-1C477.2,162.8,477.3,163.1,477.8,163.2z
		 M478.8,151l0.1,0l0-0.2L478.8,151z"/>
	<path fill="none" d="M661.5,563.3c1.3,3.9,2.3,7.1,3.4,10.4c-0.2,0.6-0.4,1.2-0.7,1.9c1.5,5.9,3.1,11.7,4.6,17.5
		c1.6,6.2,2.7,12.5,3.3,18.8c0.2,2.2,0.3,4.4,0.8,6.4c0.9,3.5,0.1,6.9-0.4,10.4c0,0.2-0.3,0.3-0.5,0.5c-1.4,0.2-0.9-1.5-1.9-1.8
		c-1.5-0.8-3,0.2-4.8,0c-0.9-3.1-1.6-6.4-1.8-9.7c-0.1-1.6-0.2-3.1-0.5-4.7c-0.6-3-1-5.9-1.1-8.9c-0.1-3.1-0.8-6.2-1.2-9.3
		c-0.2-1.2-0.4-2.4-0.4-3.6c-0.2-8.8,0-17.6,0.4-26.4C661,564.6,661.1,564.4,661.5,563.3z"/>
	<path fill="none" d="M504.3,504.5c4.4-0.2,8.6,0,12.7,0.2c0.3,0.3,0.4,0.4,0.5,0.5c0.1,0.1,0.1,0.2,0.1,0.3c0,1.2,0.1,2.4,0,3.6
		c-0.2,8.4-0.5,16.8-0.7,25.3c-3.9,1.5-7.6,1.4-11.3,0.5c-0.8-1.5-0.5-2.8-0.4-4.1c0.5-5.5,0.2-11.1,0-16.6c0-1.1-0.1-2.2-0.3-3.2
		c-0.2-0.9-0.6-1.8-0.7-2.8C504.2,507.1,504.3,506,504.3,504.5z"/>
	<path fill="none" d="M501,125c-0.6-1.2-1.9-1.3-3-1.8c-0.6-0.3-1.3-0.6-1.5-1.4c1.5-2.3,4.3-4.9,7.8-7.4c1-0.3,2.1-0.1,3.2,0
		c4.7,0.4,9.3,0.8,14,1.2c0.8,0.1,1.7,0.2,2.5,0.5c1.1,0.4,2.1,0.5,3.2,0.4c2.4-0.2,4.5,0.5,6.8,1.8c-2.1,0.6-3.8-0.9-5.5-0.4
		c-0.6-0.6-1.3-0.9-2.2-0.4c0.7,0.4,1.5,0.3,2.2,0.3c0.6,1.1,1.8,1,2.8,1.3c1.4,0.6,2.9,0.9,5,1.5c-4.2,0.5-7.4-0.6-11.1-1.2
		c0.7,0.7,1.2,1.1,1.7,1.5c0.1,0.2,0,0.4-0.3,0.3c-4.3-0.5-8.4-1.9-12.6-2.8c-2.8-0.6-5.6-1.3-8.5-1.4c-1.1,0-2.1,0-3,0.8
		c-0.7,0.6-0.7,1.1,0.2,2.6c3-1.1,6,0,9.1,0.6c3.5,0.7,7.1,1.3,10.6,1.9c2,0.3,3.9,1.1,5.7,1.8c0,1-1.4,0.7-1.4,1.5
		c0.1,0.9-0.7,1.2-1,1.8l-0.2,0.2l0.1-0.3c4.6,0.6,9.1,0.6,13.1-2c0.8,1.1-0.1,2,0,2.8c-0.3,0.2-0.5,0.5-0.7,0.5
		c-1.4,0.2-2.9,0.2-4.2-0.5c-3.3,1.5-6.7,2.2-10.1,2.8c-2.2,0.4-4.3,0.3-6.4-0.3c-3.7-1-7.3-2.2-10.8-4c-1.3-0.6-2.5-1.4-4-1.4
		l0.1,0.1c-0.2-0.8-0.9-0.8-1.6-0.8L501,125z M504.5,123.5c-0.2-0.2-0.3-0.5-0.7-0.3C504.1,123.3,504.4,123.4,504.5,123.5
		c1.5,1.1,3.2,1.4,5.1,1.4c0.1,0.3,0.3,0.6,0.8,0.4c-0.3-0.1-0.6-0.2-0.9-0.3C508,123.9,506.4,123.4,504.5,123.5z"/>
	<path fill="none" d="M480.7,329.1c0.3-1.2,0.3-2.3,0.7-3.1c2.1-3.8,3.1-8,4.7-12.4c1.9,4.9,3.2,9.5,4.4,14.2
		c0.7,2.8,1.4,5.6,2.1,8.4c0.8,3.2,1.1,6.3,0.7,9.6c-0.6,4.5-0.8,9.1-1.2,13.6c-0.1,0.9,0,1.9-0.6,2.8c-0.8,0-0.7-0.8-0.9-1.2
		c-0.6-1.2-1-2.4-1.6-3.6c-2.6-5.2-4.2-10.7-5-16.4c-0.4-3.2-1.1-6.4-2.5-9.4C481.1,330.8,480.9,330,480.7,329.1z"/>
	<path fill="none" d="M569.9,490.2c-0.1-0.5,0.3-0.7,0.6-0.8c3.1-1.1,6.1-2.3,8.9-3.8c0.4-0.2,0.9-0.4,1.3-0.5
		c4.8-1.7,9.4-3.5,14.1-5.4c2.9-1.2,6.1-1.9,9.4-2c2.4-0.1,4.6-1.2,6.9-2c1.7-0.6,1.7-0.7,3.7-0.5c0,0.2-0.1,0.5-0.1,0.7
		c-0.1,1.7-1.9,2.5-2.1,4.1c-0.2,1.5-0.7,2.8-1.2,3.8c-0.8,0.8-1.7,1-2.5,1.2c-4.1,1-8.2,2.1-12.2,3c-1.2,0.3-2.4,0.4-3.6,0.5
		c-1.1,0.1-2.1,0.2-3.2,0.5c-2.2,0.7-4.5,0.9-6.7,1c-3.8,0.1-7.7,0.4-11.5,0.6C571.1,490.7,570.4,490.9,569.9,490.2z"/>
	<path fill="none" d="M506.8,168.2c-0.1,0-0.2,0.1-0.3,0.1c-3-0.7-5.2-2.5-7.3-4.7c0.7-0.8,1.5,0.2,2.1-0.3c0-0.9-0.7-1.1-1.2-1.6
		c-1.2-1.1-2.5-2.2-3.8-3.4c-2.2-2-3.2-4.7-3.9-7.5c0.8-0.6,1.2,0.1,1.7,0.3c0.7,0.2,1.3,0.6,2,0.8c0.5,0.2,1.1,0.3,1.9-0.1
		c-2.6-1.4-4.8-3-6.2-5.4c-0.1-0.2,0.1-0.7,0.1-1.3c3.4,2.1,6.6,4.4,10.7,3.9c-1.3-0.6-2.6-1.1-3.9-1.7c-2.1-1.1-4.4-2.1-5.8-4.1
		c-0.4-0.6-0.9-1.2-0.7-1.9c0.5-0.5,0.9-0.3,1.3-0.1c1.9,1,4,1.5,6.2,1.7c2.4,0.2,4.8,0.6,7.1,1.2c2.1,0.5,4.2,0.8,6.4,1.2
		c0.8,0.2,1.7,0,2.4,0.7c-0.2,0.8-1,0.8-1.6,1.1c-0.2-0.1-0.5-0.1-0.7-0.2c-2.5-1.2-4.6-0.7-6.6,1.2c-0.6,0.6-1.3,1.1-1.8,1.6
		c-1,1.7-1.3,3.5-1.3,5.3c0,1.6-0.2,3.1-1.2,4.2c-0.1,2.3,1.1,3.8,2.2,5.4C505.3,165.8,506.4,166.8,506.8,168.2L506.8,168.2z"/>
	<path fill="none" d="M513.9,140.1c-0.2-0.8-1.1-0.9-1.7-1.2c-1.2-0.6-2.4-1.1-3.5-1.9c3.4,0.1,6.6,1.6,10.3,1.8
		c0.1,0.2,0.4,0.6,0.7,1c0.2,0.3,0.5,0.5,0.8,0.9c3.7-0.2,7.3-0.8,10.9-1.9c0.2,1.1-0.6,1.4-1.1,1.6c-2.2,0.7-4.3,1.5-6.6,1.9
		c-2.1,0.3-4,0.9-5.7,2c-6.9-0.2-13.1-3-19.6-4.8c-0.2,0.5-0.3,0.9-0.5,1.4l0.1-0.1c-2.2-0.4-3.8-1.8-5.6-3.1
		c-0.3-2.4,0.5-4.5,0.7-6.6c1-0.4,1.4,0.1,1.9,0.5c5.1,3.5,10.7,6,16.4,8.2C512.3,140,513.1,140.3,513.9,140.1
		c0.8,1,1.9,1.2,3.5,1.3C516.1,140.4,515.1,139.9,513.9,140.1z"/>
	<path fill="none" d="M502.3,125.6c0.1,0.8,1.2,0.8,1.4,1.6l0.1-0.1c-0.3,0.1-0.7,0.2-1,0.3c-0.1,0.7,0.4,0.9,0.8,1
		c3.2,1.2,6.3,2.3,9.5,3.4c1,0.4,2,0.7,2.8,1.7c3.2-0.1,6.4,0.6,9.7,1.9c-2.7,0.9-5.2,1.7-7.7,1.7c-2.7,0-5.5-0.2-8.2-1.1
		c-1.7-0.5-3.4-1.2-5.3-0.6c-3.6-2-7.4-3.5-10.3-6.5c0.1-0.5,0-0.8,0.1-1.2c0.1-0.3,0.3-0.6,0.5-0.9c0.3,0,0.6-0.1,0.7,0.1
		c1.9,1.3,3.9,2.3,5.9,3.4c3.4,1.8,7,2.4,10.7,3.3c0.3,0.1,0.7,0,0.9-0.6c-1.2-1-2.9-1-4.2-1.6c-1.5-0.7-3.2-1.1-4.7-1.8
		c-1.4-0.6-2.9-1.3-4.2-2c-1.4-0.7-2.7-1.5-3.7-2.5c-0.3-0.8,0-1.1,0.6-1.4c1.5,0.1,2.7,1.5,4.3,1.4l-0.1-0.1
		c0.3,0.7,0.9,0.8,1.6,0.8L502.3,125.6z"/>
	<path fill="none" d="M502,206c-0.6-0.9-0.5-1.9-0.5-2.8c0-3.5-0.3-6.9-1.2-10.3c-0.5-2-0.8-4-0.1-6c0.5-1.3,1.1-2.4,2.2-3.1
		c1.3,0.1,1.8,0.9,1.9,1.9c0.1,1.9,0.3,3.9,0.1,5.8c-0.4,4.5-0.8,9.1-1.9,13.5C502.4,205.3,502.2,205.6,502,206z"/>
	<path fill="none" d="M532.6,113.2c-0.2,0.3-0.3,0.6-0.4,0.9c-1.5,0.5-3,0.5-4.4,0c-0.2-0.1-0.4-0.5-0.9-0.2c0.4,0,0.7,0.1,0.9,0.1
		c0,0.4,0,0.7-0.1,1.1c-2.9,0.4-11.6-2.3-20.1-3.6c1-1.2,1.8-2.3,3.4-2.4L511,109c0.5,0.6,1.3,0.6,2,0.6c1.1,0.1,2.1,0.2,3.5,0.3
		c-1.7,0.9-3.4,0.3-5.2,1.1c6.9,0.6,13.4,0.2,19.7,0.9c0.7,0.2,0.8,1.3,1.6,1.3L532.6,113.2z"/>
	<path fill="none" d="M495.1,171.9c-0.1-0.1-0.2-0.2-0.3-0.3c-3.8-5.2-5.3-11.1-6.3-17.4c-0.6-4.3-0.9-8.6-0.8-12.9
		c0-1.4,0-2.9,0.8-4.2c0.1,1.9,0.4,3.8,0.3,5.7c0,2.3,0.3,4.5,0.8,6.8c0,0.2,0.2,0.5,0.2,0.7c0,2,0.1,4,1.1,5.8
		c0.9,1.7,1.4,3.6,2,5.4c1.1,3.1,1.6,6.3,2.2,9.4C495.2,171.2,495.1,171.6,495.1,171.9L495.1,171.9z"/>
	<path fill="none" d="M532.7,113.3c0.8-0.6,1.6-0.2,2.4,0c3.5,1,6.9,2.6,10.2,4.1c1.4,0.6,2.9,1.1,4,2.2c0,0.4,0,0.8,0,1.1l0.1-0.1
		c-0.7-0.1-1.4-0.3-2-0.7c-3.3-2-6.8-3.4-10.5-4.4c-1.6-0.4-3.2-0.9-4.4-2.3L532.7,113.3z"/>
	<path fill="none" d="M494.1,119.1c0.1,1.1-0.4,1.8-0.8,2.5c-0.2,0-0.5,0-0.7-0.1c-2.5-2-5.3-2.6-8.4-1.9c-0.8,0.2-1.7,0.3-2.5,0.3
		c-0.7,0-1.3,0.8-2.1,0.1c1.4-1.1,3.1-1.5,4.7-1.5C487.6,118.4,491,118,494.1,119.1z"/>
	<path fill="none" d="M500.9,182.6c-0.4,0.8-0.7,1.6-1.6,1.8c-0.1-0.1-0.2-0.1-0.3-0.2c-0.1-0.1-0.1-0.2-0.1-0.3
		c-0.3-3.6-0.5-7.1-0.8-11c1.1,0.9,1.3,1.9,1.7,2.8c0.4,1,0.8,2,1.2,3c-0.3,0.7-0.5,1.4-0.8,2.1
		C500.4,181.4,500.7,182.1,500.9,182.6z"/>
	<path fill="none" d="M636.8,644.6c-0.7,0.2-1.2-0.1-1.5-0.6c-0.7-1-0.9-2.2-0.5-3.4c1.1-3.2,1.5-6.5,1.6-9.9c0-0.7,0-1.4,0.9-2
		c0.6,0.8,0.5,1.7,0.3,2.5c-0.4,1.5-0.6,3-0.9,4.6C636.1,638.8,636.2,641.7,636.8,644.6L636.8,644.6z"/>
	<path fill="none" d="M532.7,106.9c-5.3-0.1-10.5-0.2-16.5-0.3c4-0.9,7.3-1.1,10.6-0.9c1.7,0.1,3.3,0.4,5,0.6
		C532.1,106.4,532.3,106.7,532.7,106.9L532.7,106.9z"/>
	<path fill="none" d="M530.3,134c0.2-0.4,0.3-0.7,0.4-0.8c1.5-0.6,2.9-1.2,4.2-2c1-0.6,2.2-1,3.3-0.2c0,1-0.6,1.5-1.3,1.7
		C534.8,133.4,532.7,134.4,530.3,134z"/>
	<path fill="none" d="M502,168.7c2.1,0.2,3.9,1.2,5.8,1c0.8,0.6,1.2,1.1,1.4,2.1C506.2,171.9,503.9,170.7,502,168.7z"/>
	<path fill="none" d="M508.6,158.4c0.2-1.7,0.8-3.2,1.8-4.4c0.8-0.4,1.3-0.2,1.8,0.6C511.5,156.3,510,157.2,508.6,158.4z"/>
	<path fill="none" d="M541.4,106.9c2.3-0.1,4.4,0.9,6.4,1.8c0.4,0.2,0.7,0.6,0.4,1.2C545.9,109.3,543.5,108.3,541.4,106.9
		L541.4,106.9z"/>
	<path fill="none" d="M511.1,109c0.2-0.9,1-1,1.6-1.1c1.2-0.1,2.3,0,3.5,0c0,0.7-0.5,0.9-0.9,1C513.8,109,512.4,109.3,511.1,109
		L511.1,109z"/>
	<path fill="none" d="M547.2,114.1c1.8,0.3,3.2,1.4,4.5,2.4c0.4,0.3,0.5,0.7,0.4,1.2l0.1-0.1c-1.8-1.1-3.7-1.9-5-3.7L547.2,114.1z"
		/>
	<path fill="none" d="M522.3,109.3c2,0,4,0,6,0c0,0.1,0,0.1,0,0.2c-2,0-4.1,0-6.1,0C522.2,109.5,522.2,109.4,522.3,109.3z"/>
	<path fill="none" d="M532.6,106.9c2.1-0.1,4.1-0.3,6,1C536.6,107.5,534.5,107.8,532.6,106.9L532.6,106.9z"/>
	<path fill="none" d="M477.1,124c0.5-1.5,1.1-3,3.3-2.5C479.1,122.4,478.1,123.2,477.1,124z"/>
	<path fill="none" d="M500.8,167.4c-0.7,0.1-1,0.2-1.3,0.2c-0.9-0.4-1.1-1.2-1.4-2C498.5,165.2,498.5,165.2,500.8,167.4z"/>
	<path fill="none" d="M552.9,118.5c1,0.1,1.7,0.6,2,1.6c-0.4,0.6-1,0.4-1.5,0.2C552.7,119.8,552.9,119.1,552.9,118.5L552.9,118.5z"
		/>
	<path fill="none" d="M519.5,149.1c1.2-0.3,2.1-0.4,3.3,0C521.6,149.5,520.7,149.4,519.5,149.1z"/>
	<path fill="none" d="M526.6,133.3c0.4-0.9,1.1-0.8,2.1-0.9C528.1,133.4,527.5,133.4,526.6,133.3z"/>
	<path fill="none" d="M639,424.2c1.2,0.2,2.5-0.2,3.6,0.7l0.1-0.1c-0.8,0-1.6-0.1-2.4-0.1C639.8,424.7,639.3,424.5,639,424.2
		L639,424.2z"/>
	<path fill="none" d="M590.6,312.2c-0.4,0.1-0.7,0.3-0.8,0.7c-0.5,0-0.7,0.2-0.7,0.7c-0.5-0.4-0.8-0.9-0.3-1.4
		C589.4,311.7,590,311.4,590.6,312.2z"/>
	<path fill="none" d="M493.7,174.1c0.7,0.7,0.8,1.6,0.9,3.1C493.6,175.9,493.8,174.9,493.7,174.1L493.7,174.1z"/>
	<path fill="none" d="M496.3,186.2c0,0.6,0.1,1,0.1,1.7C496,187.3,496,186.8,496.3,186.2z"/>
	<path fill="none" d="M639.1,424.1c-0.7-0.1-1.4-0.1-2.4-0.2C637.7,423.4,638.4,423.4,639.1,424.1L639.1,424.1z"/>
	<path fill="none" d="M534.2,116.3c0.5,0,1.1,0.1,1.8,0.1C535.2,117.1,534.7,116.8,534.2,116.3L534.2,116.3z"/>
	<path fill="none" d="M537.9,105.9c-0.4,0-0.7,0-1.1,0C537.2,105.5,537.6,105.5,537.9,105.9z"/>
	<path fill="none" d="M541.5,106.8c-0.5,0-1-0.1-1.9-0.1C540.6,106.1,541,106.3,541.5,106.8L541.5,106.8z"/>
	<path fill="none" d="M534.2,116.2c-0.5,0-1.1-0.1-1.8-0.1C533.3,115.3,533.8,115.6,534.2,116.2L534.2,116.2z"/>
	<path fill="none" d="M535.1,105.2c-0.1,0-0.2,0.1-0.3,0.1c-0.3-0.1-0.4-0.2-0.1-0.3c0.1,0,0.2,0,0.3,0.1
		C535.1,105,535.1,105.1,535.1,105.2z"/>
	<path fill="none" d="M734.4,650.4c0.1-0.5,0.5-0.5,1.1-0.6C735.2,650.5,734.7,650.4,734.4,650.4L734.4,650.4z"/>
	<path fill="none" d="M493.8,174c-0.4-0.2-0.7-0.4-0.3-0.9C493.5,173.5,493.6,173.8,493.8,174L493.8,174z"/>
	<path fill="none" d="M503.7,127.1c0.3,0.1,0.6,0.1,1,0.2C504.2,127.8,504,127.4,503.7,127.1L503.7,127.1z"/>
	<path fill="none" d="M545.7,113.4c0.7-0.1,1.2,0,1.5,0.7l0.1-0.1C546.6,114.1,546.1,114.1,545.7,113.4L545.7,113.4z"/>
	<path fill="none" d="M544.3,112.7c0.5,0.1,1.2-0.1,1.4,0.7l0.1-0.1C545.2,113.3,544.7,113.2,544.3,112.7L544.3,112.7z"/>
	<path fill="none" d="M544.4,112.6c-0.3-0.1-0.6-0.2-0.9-0.2C544,112.1,544.1,112.4,544.4,112.6L544.4,112.6z"/>
	<polygon fill="none" points="634.7,423.2 634.4,423.1 634.7,423.1 	"/>
	<path fill="none" d="M559.5,116.3c0.2,0.2,0.4,0.4,0.6,0.7l0.1,0C560,116.7,559.8,116.5,559.5,116.3L559.5,116.3z"/>
	<path fill="none" d="M548,117c0.1,0.1,0.2,0.1,0.3,0.2C548.2,117.1,548.1,117,548,117L548,117z"/>
	<polygon fill="none" points="560.1,117 560.3,117.1 560.2,117 	"/>
	<path fill="none" d="M552.2,117.7c0.5,0,0.7,0.3,0.8,0.7l0.1-0.1C552.6,118.3,552.4,118,552.2,117.7L552.2,117.7z"/>
	<path fill="none" d="M654.9,434.3c-0.3,0-0.5-0.1-0.4-0.3c0,0,0.2,0,0.2,0.1C654.9,434.1,654.8,434.2,654.9,434.3L654.9,434.3z"/>
	<polygon fill="none" points="548,116.9 547.8,116.9 548,117 	"/>
	<path fill="none" d="M559.5,116.2c-0.2-0.2-0.5-0.5-0.7-0.7l-0.1,0C559,115.8,559.2,116,559.5,116.2L559.5,116.2z"/>
	<polygon fill="none" points="558.8,115.5 558.6,115.4 558.8,115.5 	"/>
	<path fill="none" d="M636.8,644.7c0.5,0,0.6,0.3,0.7,0.7l0.1-0.1C637.1,645.2,636.8,645.1,636.8,644.7L636.8,644.7z"/>
	<polygon fill="none" points="637.5,645.4 637.6,645.5 637.5,645.3 	"/>
	<polygon fill="none" points="495,172 495.3,172 495.1,171.9 	"/>
	<path fill="none" d="M501.7,171.9c-0.2-0.1-0.3-0.2-0.5-0.2C501.6,171.2,501.6,171.6,501.7,171.9L501.7,171.9z"/>
	<path fill="none" d="M506.7,168.3c0.1,0.1,0.2,0.2,0.2,0.4c-0.1,0-0.2-0.1-0.2-0.1C506.7,168.4,506.8,168.3,506.7,168.3
		L506.7,168.3z"/>
	<path fill="none" d="M498,140.9c0.1,0.1,0.3,0.1,0.4,0.2c-0.1,0-0.1,0-0.2,0C498.1,141,498.1,140.9,498,140.9L498,140.9z"/>
	<path d="M508.1,411.8c1,0.7,2.1,1.2,2.4,2.6c-0.2,0.7-1,0.8-1.6,1c-1.8,0.6-3.6,1.2-5.5,1.9c-1.1,0.4-2.3,0.7-3.2,1.5
		c-1.3,1.1-3.1,1.4-4.7,1.7c-4.5,1-8.9,2-13.4,2.9c-2.2,0.4-4.5,0.9-6.4,2.2c-0.8-0.5-0.2-0.9,0.1-1.1c2.4-1.9,5.1-3.2,8-3.9
		c5.2-1.2,10.3-2.3,15.5-3.5c3.3-0.8,6.5-1.6,9.8-2.4c0.1-1-0.6-1-1.1-1.1c-1.4-0.1-2.9-0.3-4.3-0.2c-7.9,0.5-15.8,1-23.8,1.6
		c-2.2,0.2-4.3,0.6-6.4,0.9c-0.6,0.1-1.2,0.1-1.6-0.5c0-0.6,0.4-0.5,0.7-0.5c6.9-1.3,13.8-1.9,20.8-2.3
		C498.3,412.2,503.2,411.8,508.1,411.8L508.1,411.8z"/>
	<path d="M613.7,466.1c0.1-0.7,0.6-1,1-1.4c4-2.9,8.2-5.3,12.8-7.2c0.7-0.3,1.4-0.4,2.1-0.5c0.6-0.1,1.1,0.2,1.4,0.8
		c0.2,0.7-0.2,1.2-0.6,1.6c-1,1-2.3,1.7-3.6,2.4C622.7,463.9,618.3,465.4,613.7,466.1L613.7,466.1z"/>
	<path d="M637.6,505c-0.2-0.3-0.6-0.5-0.7-0.8c-1-3.1-1.9-6.2-2.8-9.3c-0.3-1-0.4-2.1-0.1-3.2c0.1-0.5,0.4-0.8,0.9-0.9
		C636.6,494.2,637.8,500.8,637.6,505L637.6,505z"/>
	<path d="M646.2,450.2c0.6-0.2,1.2-0.1,1.6,0.4c2.1,2.8,3.4,6,4.1,9.4c0,0.2-0.2,0.4-0.3,0.6c-0.5,0-0.9-0.3-1.1-0.7
		c-1.7-2.7-2.9-5.7-4.2-8.6C646.1,450.9,646.3,450.5,646.2,450.2L646.2,450.2z"/>
	<path d="M474.9,421.3c0.2-0.8,1-1,1.7-1.2c4.3-1.2,8.6-2.2,12.8-3.8c0.1,0,0.4,0.2,0.6,0.3c-0.1,0.5-0.4,0.9-0.9,1.1
		c-4.4,1.8-8.9,2.9-13.5,3.7C475.3,421.4,475.1,421.3,474.9,421.3L474.9,421.3z"/>
	<path d="M492.8,425.5c0.1,0.6-0.3,0.9-0.7,1.2c-0.8,0.5-1.6,1.1-2.4,1.5c-2.7,1.2-5.3,2.3-8,3.4c-0.2-0.7,0.1-0.9,0.4-1.1
		c2.6-1.5,5.2-2.9,7.8-4.4C490.8,425.6,491.8,425.5,492.8,425.5L492.8,425.5z"/>
	<path d="M484.9,437.1c0,0.7-0.6,1-1.1,1.3c-1.9,1.4-3.9,2.7-5.9,4.1c1.8,1.9,4.2,2.1,6.2,2.9c-2.7,0.4-4.5-0.2-7.6-2.7
		c0.9-1.6,2.5-2.3,4-3.2C482,438.6,483.2,437.4,484.9,437.1L484.9,437.1z"/>
	<path d="M474.9,435c-1.8-1-2-2.8-2.2-4.5c-0.1-1.7,0.2-3.3,1-4.8c0.5,0.4,0.3,1,0.2,1.5c-0.6,2.3-0.3,4.4,0.7,6.6
		C474.8,434.1,474.8,434.6,474.9,435L474.9,435z"/>
	<path d="M639.6,513.5c1.6,1.8,0.6,3.9,0.7,6.5c-1-2-1.5-3.6-1.7-5.2C638.5,514.2,638.8,513.7,639.6,513.5z"/>
	<path d="M636.4,599.5c-0.4-1.5-0.4-2.8,0-4.2C637.8,596.6,637.8,597.4,636.4,599.5z"/>
	<path d="M637.3,603.9c1.4,1.2,0.8,2.4,0.8,4.4C636.9,606.2,636.9,606.2,637.3,603.9z"/>
	<path d="M650.2,445c1.6,0.7,1.3,2.1,1.4,3.4C650.2,447.5,650.2,446.2,650.2,445z"/>
	<path d="M646.3,450.2c-1.5-0.2-2.5-1.1-3.2-2.4C644.9,447.9,644.9,447.9,646.3,450.2L646.3,450.2z"/>
	<path d="M609.8,467.1c-0.7,1.4-1.8,1.1-3,1C607.8,466.5,607.8,466.5,609.8,467.1z"/>
	<path d="M492.3,451.7c0-0.9,0-1.9,0-2.8C492.8,449.9,493,450.8,492.3,451.7L492.3,451.7z"/>
	<path d="M637.5,505.1c0.7,0.9,0.5,1.9,0.2,3C637.7,507,637.7,506,637.5,505.1L637.5,505.1z"/>
	<path d="M642.9,442.5c-0.7-0.3-0.9-0.7-0.4-1.4C643.4,441.3,643.3,441.9,642.9,442.5z"/>
	<path d="M476.3,437.2c-0.7-0.6-1.4-1.1-1.4-2.2l-0.1,0.1C475.9,435.4,476.1,436.3,476.3,437.2L476.3,437.2z"/>
	<path d="M486.5,436.5c-0.4,0.5-0.9,0.7-1.5,0.6l0.1,0.1C485.3,436.5,485.9,436.5,486.5,436.5L486.5,436.5z"/>
	<path d="M494.4,441.4c-0.1,0.3-0.1,0.6-0.2,1C493.7,441.9,494.1,441.7,494.4,441.4L494.4,441.4z"/>
	<path d="M492.9,425.6c0.2-0.1,0.5-0.2,0.3-0.1C493.4,425.4,493.1,425.5,492.9,425.6L492.9,425.6z"/>
	<path d="M640.2,525.2c0,0.1,0.1,0.2,0.1,0.3c-0.1,0.3-0.2,0.4-0.4,0.1c0-0.1,0-0.2,0-0.3C640,525.2,640.1,525.2,640.2,525.2z"/>
	<path d="M636.8,486.5c-0.1,0.1-0.3,0.4-0.4,0.3c-0.3,0-0.3-0.3-0.2-0.6c0-0.1,0.2-0.2,0.3-0.2C636.5,486.2,636.7,486.4,636.8,486.5
		z"/>
	<path d="M479.3,409.8c-0.1,0.2-0.2,0.5-0.4,0.9C478.7,410,479,409.9,479.3,409.8L479.3,409.8z"/>
	<path d="M479.3,409.8c0-0.3-0.1-0.7,0.2-0.9C479.8,409.3,479.4,409.5,479.3,409.8L479.3,409.8z"/>
	<path d="M474.9,421.2c0,0.1-0.1,0.3-0.1,0.3C474.5,421.5,474.6,421.4,474.9,421.2L474.9,421.2z"/>
	<path d="M613.7,466.1c-0.1,0.2-0.1,0.3-0.2,0.5C613,466.1,613.5,466.2,613.7,466.1L613.7,466.1z"/>
	<polygon points="476.3,437.2 476.4,437.3 476.3,437.2 	"/>
	<polygon points="486.5,436.6 486.6,436.4 486.5,436.5 	"/>
	<path d="M680.4,507.8c-0.2-1.4-0.3-2.1-0.3-2.8c0.1-3.6-0.1-7.2-0.5-10.8c-0.2-1.8-0.3-3.6-0.7-5.3c-0.1-0.6-0.1-1.2,0.6-1.5
		c0.6-0.1,0.9,0.4,1,0.8c0.4,1.4,0.9,2.8,1,4.2C682,497.4,682.2,502.3,680.4,507.8z"/>
	<path d="M678.3,439c0.7,1,0.8,2.3,0.9,3.4c0.1,2.2,0.8,4.2,1.9,6.1c0.2,0.3,0.2,0.7,0.3,1c-1.6,0.1-1.6,0.1-3.2-1.5
		c-0.4-2.9-0.9-5.8-1.3-8.6C677.4,438.7,677.9,438.7,678.3,439z"/>
	<path d="M680.3,636c-0.1-0.9-1-1.3-1.4-2c-0.3-0.6-0.4-1.1,0.3-1.7c2.7,0.4,3.7,2.8,5.1,4.8c-1.7,0.3-2.8-0.9-4.2-1.1L680.3,636z"
		/>
	<path d="M693.1,629.7c-0.2,0.2-0.3,0.3-0.5,0.5c-0.1,0.1-0.2,0-0.5,0.1c-2-2.7-0.7-5.7-0.8-8.6c1,1.2,1.1,2.5,1.3,3.9
		C692.6,626.9,692.9,628.3,693.1,629.7z"/>
	<path d="M679.8,516.8c-0.4-1.1-0.3-2.2,0-3.6C680.7,514.9,680.7,514.9,679.8,516.8z"/>
	<path d="M691.7,619.5c-0.8-1.4-1-2.4-0.5-3.6C692.1,616.9,692.7,617.8,691.7,619.5z"/>
	<path d="M689.8,610.9c-1-0.6-0.9-1.5-0.9-2.7C689.9,609.5,689.9,609.5,689.8,610.9z"/>
	<path d="M675.8,479.2c1.1,0.7,1.4,1.8,1.4,3.2C676,481.4,676,480.3,675.8,479.2L675.8,479.2z"/>
	<path d="M679.3,524.6c-0.7-0.4-0.6-0.9-0.4-1.5C680,523.6,679,524.2,679.3,524.6z"/>
	<path d="M688.5,602.8c-0.1-0.2-0.2-0.4-0.2-0.6c0-0.2,0.2-0.4,0.2-0.5c0.1,0.2,0.2,0.4,0.2,0.6
		C688.8,602.5,688.6,602.6,688.5,602.8z"/>
	<path d="M675.9,479.1c-0.2-0.2-0.6-0.3-0.3-0.8C675.7,478.7,675.7,478.9,675.9,479.1L675.9,479.1z"/>
	<path d="M494.8,199.5c0.3,5.2-0.5,10.2-1.6,15.3c-0.1,0.5-0.3,0.6-1.6,1.1c-0.1-0.2-0.4-0.4-0.4-0.5
		C492.7,210.2,493.4,204.8,494.8,199.5z"/>
	<path d="M459,348.2c-2.1-1.8-3-3.6-2.7-6.2C457.7,344.1,458.6,346.1,459,348.2L459,348.2z"/>
	<path d="M461.1,350.4c2,2.3,2,2.3,2.7,5.4c-1.2-1.8-2-3.1-2.8-4.3C460.9,351.3,461,351.1,461.1,350.4z"/>
	<path d="M476.7,318.6c0.4,2,0.5,3.2,0,5C476.4,321.8,476.4,320.6,476.7,318.6z"/>
	<path d="M462.8,278.4c0.8,0.5,1.3,0.9,1,1.6C463.1,279.6,463.1,279.6,462.8,278.4z"/>
	<path d="M465.1,358.2c0,0,0.1,0.1,0.1,0.1c0,0.3-0.1,0.4-0.2,0.2C465,358.4,465.1,358.3,465.1,358.2z"/>
	<path d="M469.1,366.4c0.1,0.1,0.2,0.2,0.3,0.2c-0.1,0-0.2,0-0.2,0C469.2,366.5,469.2,366.4,469.1,366.4L469.1,366.4z"/>
	<path d="M459,348.3c0.1,0.1,0.2,0.1,0.2,0.2C459.1,348.4,459.1,348.3,459,348.3L459,348.3z"/>
	<path d="M469.2,366.3c-0.2-0.1-0.3-0.2-0.5-0.3C469.2,365.7,469,366.2,469.2,366.3L469.2,366.3z"/>
	<path d="M567.4,335.9c-0.6,8.5-3.3,16.1-8.8,22.7c-0.6,0.7-1.1,1.6-2.1,1.8l0.1,0.1c0.3-0.8,0.5-1.6,0.8-2.4
		c3.1-6.3,5.6-12.9,7.7-19.7c0.1-0.3,0.3-0.7,0.5-1.1C566.1,337,566.8,336.5,567.4,335.9L567.4,335.9z"/>
	<path d="M545,350.5c0.6-1.4,2-2,3.1-2.9c2.2-1.6,4.5-3.1,6.7-4.6c-0.3-0.4-0.5-0.7-0.8-1c3.5-2.1,7.2-3.8,10.3-6.9
		c-0.3,2.8-0.7,3.7-2,5.1c-1.3,1.4-2.9,2.6-4.4,3.6c-3.5,2.4-7.2,4.2-11,6.2C546.4,350.3,545.7,350.6,545,350.5L545,350.5z"/>
	<path d="M554.7,364.4c0.1,0.3,0.3,0.4,0.2,0.5c-1.3,2.3-1.4,4.8-1.3,7.3c0,2,0.3,3.9,0,6c-0.3,1.9,0.5,4,0.7,6c0.1,1.2,0,2.4,0,3.7
		c-0.9-0.8-0.4-1.7-0.6-2.5c-0.2-0.9-0.5-1.9-0.6-2.8c-0.4-2.6-0.9-5.2-1.9-7.7c-0.8-1.9-0.9-4-0.2-6.2
		C552.8,368,553.3,365.9,554.7,364.4z"/>
	<path d="M536.5,352.2c-1.6,1.5-1.4,1.4-9.1,1.9c-0.1,0.3-0.2,0.6-0.3,0.9c-0.7,0.4-1.1-0.3-1.6-0.5c-0.2-0.2-0.1-0.4,0.3-0.5
		c0.3-0.1,0.6-0.4,0.9-0.5c3.1-0.1,6.1-1,9.1-1.6C536.1,352,536.3,352.2,536.5,352.2z"/>
	<path d="M501,349.7c-2.3-1.8-2.6-4.3-2.9-7c0.4,0.1,0.8,0.1,0.8,0.2C499.7,345.2,500.9,347.3,501,349.7L501,349.7z"/>
	<path d="M543.7,353.7c-0.2,2.3-1.1,3.5-1.8,4.9C541.7,356.5,541.7,356.5,543.7,353.7z"/>
	<path d="M546.6,344c1-0.8,1.7-0.8,2.6-0.4C548.5,344.7,547.7,344.7,546.6,344z"/>
	<path d="M510.6,391.5c-0.5-0.1-0.9-0.3-1-0.8c-0.1-0.3-0.2-0.7,0.2-0.9C511,390.3,511,390.3,510.6,391.5z"/>
	<path d="M503,355.7c-0.7-1.1-0.9-1.8-0.3-2.6C503.5,353.7,503.7,354.4,503,355.7z"/>
	<path d="M545,332.4c0.9,0,1.9,0,2.8,0C546.3,333,546.3,333,545,332.4L545,332.4z"/>
	<path d="M523,354.9c-0.8,0.5-1,0-1.3-0.3C522.4,353.9,522.6,354.6,523,354.9z"/>
	<path d="M539,367.3c0.3,0.8,0.2,1.2-0.1,1.6C538.3,368.5,538.3,368.5,539,367.3z"/>
	<path d="M507.1,371.3c0.4-0.1,0.5,0.2,0.7,0.5c0.1,0.1-0.1,0.4-0.2,0.5c-0.1,0-0.2-0.1-0.3-0.1C507,371.9,506.9,371.6,507.1,371.3z
		"/>
	<path d="M537.9,380.7c-0.7-0.6-0.9-1.4-0.4-2.3C538,379.2,537.7,380,537.9,380.7L537.9,380.7z"/>
	<path d="M537.8,380.8c0.6,0.6,0.8,1.3,0.4,2.2C537.7,382.2,537.9,381.4,537.8,380.8L537.8,380.8z"/>
	<path d="M509.1,385c0.4,0,0.5,0.3,0.6,0.6c0.1,0.2,0,0.4,0,0.6c0,0.1-0.2,0.1-0.3,0.1c-0.4,0-0.5-0.4-0.6-0.7
		C508.9,385.4,509,385.2,509.1,385z"/>
	<path d="M553.4,390.9c0.2,0.5,0.3,1.1-0.1,1.6C552.9,391.9,553,391.3,553.4,390.9z"/>
	<path d="M538,328.4c0.8-0.3,1.1-0.2,1.4,0.3c0.1,0.1,0.1,0.2,0.1,0.3c-0.2,0.1-0.4,0.2-0.6,0.1C538.7,329,538.4,328.7,538,328.4z"
		/>
	<path d="M545.1,332.3c-0.5,0-0.9-0.1-1.5-0.1C544.3,331.8,544.7,332,545.1,332.3L545.1,332.3z"/>
	<path d="M538.8,390.8c0-0.7,0-1,0-1.3C539.3,389.8,539,390.1,538.8,390.8z"/>
	<path d="M541.2,343.2c0-0.2,0.1-0.4,0.4-0.3c0.2,0.1,0.3,0.3,0.3,0.5c0,0-0.2,0.2-0.2,0.2C541.6,343.4,541.4,343.3,541.2,343.2z"/>
	<path d="M500.9,349.7c0.5,0.1,0.7,0.4,0.4,0.9C500.8,350.4,500.9,350.1,500.9,349.7L500.9,349.7z"/>
	<path d="M532.3,340.8c-0.1,0-0.2,0.1-0.3,0.1c-0.4-0.1-0.4-0.2-0.1-0.4c0.1,0,0.2,0,0.3,0.1C532.2,340.6,532.2,340.7,532.3,340.8z"
		/>
	<polygon points="520.3,339.2 520.6,339.3 520.3,339.3 	"/>
	<path d="M518.1,338.6c0-0.1,0.1-0.2,0.1-0.2c0.1,0,0.2,0,0.3,0.1c0,0.1-0.1,0.2-0.1,0.2C518.3,338.6,518.2,338.6,518.1,338.6z"/>
	<polygon points="531.2,325.6 531,325.5 531.3,325.4 	"/>
	<path d="M556.5,360.4c-0.1,0.6-0.1,1.1-0.6,1.5l0.1,0.1C556.1,361.5,556.4,361,556.5,360.4L556.5,360.4z"/>
	<path d="M545,350.4c0.1,0.5-0.3,0.7-0.6,0.8l0.1,0.1C544.3,350.7,544.6,350.5,545,350.4L545,350.4z"/>
	<path d="M536.3,341.8c0.1,0,0.2,0,0.2,0.1C536.5,341.9,536.5,341.8,536.3,341.8L536.3,341.8z"/>
	<polygon points="536.4,341.8 536.2,341.7 536.3,341.8 	"/>
	<path d="M544.3,351.2C544,351.5,544.5,351.1,544.3,351.2L544.3,351.2z"/>
	<polygon points="555.9,361.9 555.8,362.1 555.9,362 	"/>
	<path d="M520.4,300.7c1.2-0.4,2.4,0,3.5,0.6c1.5,0.9,3.1,1.2,4.8,1.5c2.8,0.5,5.7,1.1,8.5,1.7c3.4,0.8,6.8,1.4,10.3,1.6
		c5.9,0.4,11.7-0.7,17.4-2.5c0.8-0.3,1.6-0.6,2.4-0.8c0.6-0.2,1.2-0.1,1.7,0.4c0.3,0.6,0.1,1.3-0.4,1.6c-1,0.6-2.1,1.2-3.2,1.6
		c-9.7,3.5-19.5,3.8-29.4,0.9c-2.8-0.8-5.5-1.7-8.1-3c-1.1-0.5-2.2-0.9-3.4-1.2C522.9,302.5,521.5,301.8,520.4,300.7L520.4,300.7z"
		/>
	<path d="M575.3,300.6c-0.9,0.9-1.8,1.6-3.2,1.1C573.2,300,573.3,300,575.3,300.6z"/>
	<path d="M515.1,297.9c-0.8,0.6-1.5,0.5-2.1-0.2C514,297.1,514,297.1,515.1,297.9z"/>
	<path d="M520.5,300.6c-0.1-0.1-0.2-0.2-0.2-0.2C520.3,300.4,520.3,300.5,520.5,300.6L520.5,300.6z"/>
	<path d="M504.3,641c0,0.5-0.1,0.9-0.1,1.8C504,642,503.9,641.5,504.3,641z"/>
	<polygon points="504.9,625.2 504.9,625.2 504.9,624.9 	"/>
	<path d="M451.5,537.6c-0.5-1.2-0.4-2.4-0.1-3.5c1.1-4.5,2.2-9,2.6-13.6c0-0.1,0.2-0.2,0.4-0.4c0.3,1.9,0.3,3.6-0.1,5.4
		C453.3,529.5,452.4,533.6,451.5,537.6z"/>
	<path d="M433.6,638.1c0,0.2-0.1,0.5-0.1,0.7c-2.1,0.9-4.2,1.1-6.4,0.5C429.4,638.9,431.5,638.5,433.6,638.1L433.6,638.1z"/>
	<path d="M448.9,535.2c-1.6,0.6-2.5,0.4-3.2-0.9C446.9,533.6,447.7,534.2,448.9,535.2z"/>
	<path d="M450.7,541.3c-0.4-0.5-0.3-1,0-1.5C451,540.2,451,540.7,450.7,541.3z"/>
	<path d="M433.7,638.2c0.1-0.4,0.2-0.9,0.4-1.7c0.1,0.8,0.2,1.2,0.3,1.7l0.1-0.1c-0.3,0-0.6,0-0.9,0L433.7,638.2z"/>
	<path d="M425,646.2c0.7-0.1,1.4-0.3,2.1,0.3C426.2,647,425.6,646.7,425,646.2L425,646.2z"/>
	<path d="M425.1,646.1c-0.3-0.1-0.6-0.2-1-0.3C424.7,645.4,424.9,645.6,425.1,646.1L425.1,646.1z"/>
	<path d="M584.8,655.4c-0.2-0.2-0.5-0.3-0.5-0.5c-0.2-3.2-1-6.3-0.9-9.6c0-0.2,0.1-0.5,0.3-1.1C584.1,648.3,585.1,651.8,584.8,655.4
		L584.8,655.4z"/>
	<path d="M584.8,655.5c1.1,1.1,0.7,2.3,0.5,3.6C584.8,657.9,584.7,656.7,584.8,655.5L584.8,655.5z"/>
	<path d="M463,482.4c-1,0.8-2,0.1-2.9,0c-0.2-0.7,0.1-1,0.6-1.1C462,481.2,462,481.2,463,482.4z"/>
	<path d="M456.5,480.8c-0.4,0.7-0.9,0.5-1.5,0.3C455.6,480.2,455.6,480.2,456.5,480.8z"/>
	<path d="M449.2,493.7c-0.2-0.5-0.2-1.1,0.1-1.6C449.4,492.7,449.6,493.2,449.2,493.7z"/>
	<path d="M463.1,493.2c-0.1,0.1-0.2,0.2-0.3,0.3c0-0.1-0.1-0.2-0.1-0.3c0-0.1,0.2-0.2,0.2-0.3C463.1,493,463.1,493.1,463.1,493.2z"
		/>
	<path d="M558.3,496.6c-0.4-0.4-0.5-0.8,0.1-1.2C558.7,495.9,558.8,496.3,558.3,496.6z"/>
	<path d="M449.4,480.1c0.1,0,0.2-0.1,0.3-0.1c0.3,0.1,0.3,0.2,0.1,0.3c-0.1,0-0.2,0-0.3,0C449.5,480.2,449.5,480.2,449.4,480.1z"/>
	<path d="M485,177c-0.1-0.2-0.2-0.4-0.4-0.6C485.1,176.5,484.8,176.9,485,177L485,177z"/>
	<path d="M477.8,163.2c-0.5-0.1-0.6-0.5-0.5-1C477.9,162.5,477.7,162.9,477.8,163.2L477.8,163.2z"/>
	<polygon points="478.8,151 478.9,150.8 478.9,151 	"/>
	<path d="M509.6,124.9c-1.8,0.1-3.5-0.3-5-1.4l-0.1,0.1C506.4,123.4,508,123.9,509.6,124.9L509.6,124.9z"/>
	<path d="M528.5,117.6c-0.7,0-1.5,0.1-2.2-0.3C527.1,116.8,527.8,117.1,528.5,117.6L528.5,117.6z"/>
	<path d="M509.5,124.9c0.3,0.1,0.5,0.2,0.9,0.3C509.9,125.4,509.8,125.1,509.5,124.9L509.5,124.9z"/>
	<path d="M502.4,125.7c-0.7,0-1.3-0.1-1.6-0.8C501.5,124.9,502.2,124.9,502.4,125.7z"/>
	<path d="M504.6,123.4c-0.3-0.1-0.5-0.1-0.8-0.2C504.2,123,504.4,123.3,504.6,123.4L504.6,123.4z"/>
	<polygon points="525.4,127.7 525.4,128 525.5,127.8 	"/>
	<path d="M513.9,140.1c1.2-0.2,2.2,0.2,3.5,1.3C515.7,141.4,514.7,141.1,513.9,140.1L513.9,140.1z"/>
	<path d="M527.8,114c-0.3,0-0.6-0.1-0.9-0.1C527.3,113.6,527.5,113.9,527.8,114L527.8,114z"/>
</g>
</svg>
