<?xml version="1.0" encoding="utf-8"?>
<!-- Generator: Adobe Illustrator 20.0.0, SVG Export Plug-In . SVG Version: 6.00 Build 0)  -->
<svg version="1.2" baseProfile="tiny" id="Layer_2" xmlns="http://www.w3.org/2000/svg" xmlns:xlink="http://www.w3.org/1999/xlink"
	 x="0px" y="0px" viewBox="0 0 900 600" xml:space="preserve">
<g>
	<path d="M535.6,525.8c-0.1-0.1-0.1-0.2-0.2-0.2c0.3-2,1-3.8,0.8-5.8c2.2-2.9,3.2-6.1,3.4-11.4c-1.4,0-2.7,0-4.1,0
		c-2.1-0.1-4.3,0-6.4-0.3c-3.7-0.6-6.9-2.3-9.6-4.9c-1.7-1.7-3.7-2.5-6.1-2.2c-0.9,0.1-1.8,0-2.6,0.2c-5.2,1.1-10.5,0.6-15.7,0.2
		c-0.9-0.1-1.7-0.3-2.6-0.6c-3-0.9-5.9-2.1-7.8-4.9c-0.4-0.7-1.3-1-2.1-1.5c-2.6-1.5-4.3-3.8-5.7-6.3c-0.7-1.3-0.7-2.6,0.3-3.9
		c0.7-0.9,1.4-1.9,1.7-2.9c0.5-2.4,2-3.9,3.7-5.5c1.4-1.3,2.9-2.6,3.7-4.2c1.4-2.5,3.2-4.4,5.3-6.2c2-1.7,3.7-3.7,4.5-6.3
		c0.6-1.7,1.1-1.9,2.8-1.3c0.6,0.2,1.1,0.4,1.7,0.7c4-2.5,7.6-5.4,10.5-9.1c0.8-1,1.5-2,2.5-2.8c4.1-3.9,6.9-8.6,9.5-13.5
		c0.5-1,1.5-2.1,0.7-3.5c-0.2-0.3,0.2-1,0.4-1.4c1.2-2.2,2.4-4.4,3.5-6.6c1.7-3.3,4.3-5.8,7.2-8.1c2.6-2,5.2-3.9,7.7-5.9
		c2.6-2.1,5.9-2.8,8.6-4.6c0.7-0.5,1.6-0.8,2.3-1.2c0.8-0.4,1.5-0.8,2.2-1.4c2.2-1.9,3.9-4.3,5.2-6.8c0.6-1.2,1.2-2.4-0.1-3.8
		c-0.4-0.4-0.3-1.4-0.4-2.2c-0.1-2.1-0.7-4.2-1.4-6.2c-0.6-1.8-1-3.6-1.6-5.6c-2-2.1-4.1-4.3-6.3-6.7c-4.2-0.1-8,1.5-12.1,2.3
		c-4.1,0.8-7.6,2.9-11.4,4.4c-0.8-1.4-1.4-2.6-2.2-3.7c-3.1-4.6-5-9.8-7.1-14.9c-1.4-3.5-1.9-7.3-1.8-11.1c0-7.2-1.1-14.2-3.6-21
		c-0.7-2-1.1-4.1-1.1-6.3c0.1-2.8-0.6-5.4-1.5-8.1c-1.1-3.3-2.2-6.6-4.3-9.5c-0.3-0.4-0.5-0.9-0.7-1.3c-1.5-3.2-3-6.3-4.9-9.3
		c-0.5-0.8-0.9-1.8-1.2-2.8c-0.5-1.7-1-3.4-1.3-5.1c-0.6-3-1.5-5.8-2.9-8.5c-1.9-3.6-2.7-7.5-2.3-11.6c0.1-1.1,0.3-2.2,0.4-3.4
		c0.4-7.5,3.2-14.4,6.5-21c0.7-1.4,1.7-2.7,1.3-4.5c-0.2-0.7,0.5-1.6,0.7-2.5c0.3-0.8,0.6-1.6,0.9-2.6c-3.9-3-6.5-7-9.2-10.8
		c-0.8-0.1-1.4-0.2-1.9-0.2c-1-1-1.2-2.2-1.4-3.4c-0.6-2.9-1.2-5.9-1.8-8.8c-1.3-6.4-2.7-12.7-3.8-19.1c-1-5.3-1.5-10.7-2.5-16
		c-1.1-6-0.9-12,0.1-17.9c0.5-3.3,1.4-6.6,2.3-9.9c0.5-1.9,0.5-3.7-0.2-5.5c-1.1-3.2-1.5-6.6-1.5-10c0.1-4.3,0-8.5,0.2-12.8
		c0.2-3,0.5-6,1.3-8.9c1.7-6.1,4.5-11.7,9.9-15.5c0.5-0.4,1.1-0.7,1.4-1.2c1.5-2.3,3.7-3.2,6.2-4c2-0.6,4-1.3,6-2.1
		c1.7-0.6,3.1-1.5,4.1-3.1c0.7-1.1,1.9-2,3-2.8c4.3-3,9-4.9,14.2-5.5c3.2-0.4,6.5-0.4,9.7-0.7c1-0.1,2.2,0,2.9-0.5
		c1.6-1.3,3.4-1.4,5.3-1.7c3-0.5,5.9-1,8.9-1.5c4.2-0.8,8-2.6,11.6-5.3c0-2.3,0.4-4.6,0.1-6.8c-0.5-3.1,0.1-5.9,0.6-8.9
		c0.5-2.8,1.3-5.6,0.6-8.5c-0.7-3.1,0.5-5.7,2.4-8c1.2-1.5,2.2-3.1,2.7-4.9c0.4-1.5,1.1-2.8,2.5-3.5c0.4-0.2,1-0.7,1-1
		c-0.1-1.3,1.4-1.7,1.7-2.6c-0.2-0.5-0.4-0.9-0.5-1.2c0-0.1,0.1-0.2,0.3-0.4c1.2,0.1,2.1,0.6,2.8,1.7c-1,0.8-1.8,1.5-2.9,2.4
		c1.7,0.5,2.9-0.6,4.2-0.6c1.7,0,2.8,0.9,3.8,2c1-0.5,1.9-0.9,1.7-2.4c-1.1-0.1-2.1-0.2-3.3-0.3c-0.5-0.9-0.9-1.8-1.3-2.5
		c-1.2-0.2-2.3-0.4-3.7-0.6c0.4-0.6,0.7-1,0.9-1.4c0.3-0.4,0.7-0.7,0.9-1.1c0.3-0.6,0.4-1.5,0.9-2c0.4-0.5,1.2-0.6,1.8-0.8
		c-0.2-1.7-2.2-2.7-1.2-4.7c1.2,0.4,2.2,0.7,3.2,1c0.5,0.7,0.9,1.3,1.3,1.9c0.4,0.6,0.9,1.1,1.4,1.6c2.2,0,4.3,0.5,6.3-0.4
		c1.9-0.8,4.1-1.1,5.3-2.8c2.3,0.7,0.5,2.2,1,3.3c1.1,0.2,2.1,0.1,2.9-1c0.8-1.2,2-1.2,3.3-0.9c3.6,0.8,7.3,1.6,11,2.2
		c1.3,0.2,1.8,1.1,2.7,1.7c3.6-0.7,8.7-0.5,11.5,0.4c0.2,0.6,0.4,1.1,0.5,1.7c-0.2,0-0.5-0.1-0.7,0c-0.1,0-0.2,0.3-0.3,0.4
		c0.1,0,0.3,0,0.3,0c0.2-0.1,0.4-0.3,0.6-0.4c2.1,0,3.4-1.9,5.1-2.4c1.2,0.8,0.9,1.6,0.6,2.4c-0.2,0.8-0.2,1.7-0.4,2.5
		c-0.2,0.8-1,1.4-0.4,2.5c1.7-0.3,3.5-1.3,5.4-0.2c0.2,0.5,0.4,1,0.6,1.7c-1.2,0.8-2.4,0.9-3.6,1.3c-0.5,0.1-0.9,0.5-1.5,0.9
		c1.8,0.8,3.2,0.1,4.6-0.7c0.6,1,1.1,1.8,1.5,2.5c-0.4,1-0.7,1.8-1,2.5c-0.7,1.7-1.7,2.8-3.7,3.1c-2.5,0.3-4.8,1.3-6.8,3.1
		c-0.3,2.8-0.8,5.6-1,8.5c-0.2,2.2-0.7,4.4,0.2,6.7c0.2,0.6-0.1,1.5-0.4,2.1c-1.3,2.7-2.8,5.3-4.2,8c-1.4,0-2.7,0.1-3.9,0
		c-1.3-0.1-2.6-0.5-4-0.8c-0.5,1.3-1.1,2.5-1.7,3.9c-0.6-4.1,0.2-6.2,3.1-8c0.8-0.5,1.8-0.9,2.7-1.1c1.8-0.4,3.7-0.7,5.6-1.1
		c0.5-1,1-2,1.4-2.9c-2.3-4.9,0.1-9.7-0.1-14.7c-0.7,0-1.4-0.2-1.9,0c-2.5,0.8-4.7-0.1-6.9-1.1c-0.9-0.4-1.8-1.2-2.7-1.2
		c-2.4,0.1-4.3-1.2-5.9-1.9c-2,0-3.6,0-5.2,0c-0.2,0.6-0.5,1.2-0.9,2.5c-0.5-1.5-0.6-2.5-1.1-3.2c-0.6-0.9-1.5-1.6-2.4-2.4
		c-0.7-0.7-1.5-1.2-2.4-1.9c-1.1,0.8-2,1.5-3,2.2c2-0.5,3.3,1.1,5,1.1c0.3,1.7,0.6,3.1,0.9,4.3c-0.8,1.7-2.4,0.9-3.4,1.5
		c-0.1,0.4-0.1,0.7-0.2,1.1c-0.4-0.1-0.8,0-1.1-0.2c-1.7-0.9-2.9-0.3-3.9,1.1c-0.2,0.3-0.4,0.6-0.6,0.9c-1.5,2.3-3.4,4.4-5.7,5.9
		c-1.2,0.8-1.9,1.9-2.6,3.1c-1.5,2.6-3.1,5.1-4.8,7.6c-0.7,1.1-1.5,2.3-3.6,2.9c1.1-2.3,0.1-4.3,0.1-6.3c0-0.8,0.1-1.5,0.1-2.3
		c0-0.7,0.1-1.5-0.1-2.2c-0.3-1.2-1-2-2.6-1.8c-1.1,2.5,1,4,2.1,5.8c-0.6,1.6-1.3,3.1-1.8,4.6c-0.8,2.1-0.7,2.1-3.2,1.5
		c-0.2,0-0.4,0.2-0.7,0.3c0.3,0.9,0.5,1.9,0.7,2.7c0.9,0.4,1.7,0.7,2.5,1c-0.3,0.5-0.5,1.1-0.6,1.1c-1.5-0.1-2.3,1.1-3.4,1.7
		c-1.4,0.8-2.9,1.5-4.3,2.2c-1.8-0.6-3.1,0.7-4.4,1.5c-3.5,2-7.2,3.5-11.2,4.3c-2,0.4-4.2,0.8-6,2c0,3.2,0.5,6.3,1.3,9.3
		c2.5,9.3,2.8,18.8,2.4,28.3c-0.1,2.4-0.4,4.7-0.9,7.1c-1.3,7.2-3.7,14.1-7.5,20.3c-2.1,3.4-4.5,6.7-8,8.8c-0.6,0.4-1.2,0.7-1.6,1
		c0,2.6,0,4.8,0,7.1c0,3.3-0.1,6.5-0.2,9.8c-0.1,1.5-0.2,2.9-1.6,4c-0.7,0.5-1.1,1.6-0.8,2.6c5.8-1.7,10.7-4.7,15.9-7.1
		c1.6-0.7,3-1.9,4.4-2.9c0.6-0.4,1.1-1.1,1.3-1.7c0.4-1.7,1.6-2.8,2.8-3.9c3.5-3.1,6.9-6.2,10.5-9.2c1.5-1.3,3.1-2.7,4.8-3.5
		c1.9-0.9,3.3-2.3,4.4-3.9c1.3-1.8,2.9-3.4,3.9-5.4c-3.7-2.3-6.4-5.1-8.3-8.8c-4.3-8.4-8-17-11.3-25.8c-1.9-5.1-3.3-10.5-4.9-15.8
		c-1-3.1-0.8-6.2-0.6-9.3c0-0.5,0.3-1,0.5-1.4c0.1-0.2,0.4-0.3,0.6-0.2c0.2,0,0.5,0.2,0.6,0.4c0.2,0.5,0.3,0.9,0.4,1.4
		c0.3,1.8-0.6,3.8,1.2,5.3c0.1,0.1,0.1,0.5,0,0.7c-0.7,1.1-0.2,2.2,0.2,3.2c1.5,4,3,8,4.5,12c3.3,8.9,7.5,17.5,10.4,26.6
		c0.9,2.8,2,5.7,3.6,8.2c1.3,0.5,2.5,1.1,3.7,1.6c1.3-1,1.5-2.5,2.2-3.6c2-3.4,3.2-7.4,6.7-9.8c-0.1-2.3-0.7-4.2-2-6
		c-0.5-0.6-1.1-1.4-0.3-2.3c0.2,0.1,0.6,0.1,0.7,0.2c1.3,1.8,2.5,3.7,3.8,5.6c3.2,0.8,6.4,1.5,9.9,2.4c1.8-2.7,4.5-4.8,5.8-8
		c1.2-3.1,2.7-6.1,2.7-9.6c-3.3-0.4-6.4-0.8-9.3-1.2c-2.1,0.8-3.3,2.8-5.5,3.4c-0.3-2.1,1.8-2.7,2.3-4.1c-2.1-1.9-2.1-1.9-2.8-3.5
		c2.8,0.4,5.7,0.8,7.4,2.6c3.6,0.1,6.7,0.2,9.7,0.2c1.3-1.6,2.4-3.1,3.7-4.5c3.9-4.4,6.6-9.3,8.1-15c0.8-3.1,1.8-6.3,3.9-8.9
		c0.4-0.6,0.8-1.3,0.8-2c0.1-2.4,1-4.6,1.7-6.9c0-0.1,0.3-0.2,0.6-0.3c0.1,0.4,0.2,0.8,0.3,1.1c0.1,0.3,0.3,0.6,0.5,1
		c6-1.4,11.4,0.1,16.6,2.9c1.5,0.8,3,1.8,4.4,2.8c1.6,1.1,3.3,2.3,4.8,3.6c1,0.9,2.1,1.3,3.4,1.3c2.1,0,4.3,0,6.4,0.1
		c4.1,0.1,8.3-0.2,12.3,0.8c0.9,0.2,2,0,2.9,0c0.1-0.1,0.3-0.1,0.4-0.2c4.2-4.2,9.1-6.9,15.1-7.5c2.7-0.3,5.4-0.7,8.2-1.1
		c0.4-0.1,0.8-0.1,1.1-0.3c2.6-1.6,5.8-2.5,6.9-5.9c0.2-0.6,0.7-1,1.1-1.5c2.4-3,4.8-6.1,7.1-9c0.4-0.1,0.6-0.2,0.9-0.3
		c2.7-0.3,5.4-0.1,7.9-1.6c2-1.1,4.2-0.6,5.7,1.5c0.3,0.4,0.6,0.8,0.8,1.2c2.2,0,4,0,5.5,0c2.2,1.2,1.9,3.2,2.6,4.9
		c0.8,0.3,1.7,0.6,2.5,0.9c1.5,0.6,2.5,1.7,2.9,3.2c0.2,0.7-0.1,1.2-0.9,1.3c-0.8-1-1.4-2.2-2.4-2.8c-1.1-0.7-2.5-1-3.7-1.4
		c-1-1.4-0.4-3.2-1.9-4.4c-1.6,0-3.5,0-5.4,0c-0.1,0-0.2-0.1-0.3-0.2c-0.2-0.3-0.5-0.6-0.7-0.9c-1.5-2.1-2.8-2.5-5.1-1.5
		c-0.9,0.4-1.7,1-2.4,1.5c-1.7-0.3-3.3-0.9-4.8-0.2c-1.1,1.4-2.1,2.7-3.1,3.9c-1.5,1.9-3.1,3.7-4.2,5.7c-0.8,1.4-1.7,2.4-2.8,3.4
		c-0.9,0.7-1.7,1.4-2.7,2.1c-1.9,1.4-3.8,3-6.4,2.7c-0.5,0-0.9,0.3-1.4,0.4c-2.9,0.8-5.8,1.7-8.7,2.2c-2.7,0.5-5,1.6-7.2,3.1
		c-1.4,1-2.8,2-4.1,2.9c-1.1-0.3-1.9-0.7-2.7-0.7c-6.5-0.4-13-0.4-19.5-0.1c-6.2,0.2-5,1.2-10.4-3.5c-3.1-2.7-6.5-4.7-10.4-5.8
		c-2.9-0.8-5.8-1.2-8.9-1.2c-0.8,4.2-2.5,7.9-4.6,11.5c-1.1,2-1.9,4.1-2.2,6.3c0,0.2,0.1,0.5,0.1,0.7c0.4,0.1,0.8,0.3,1.3,0.4
		c-0.2,5.2,1.5,10,2.4,14.9c0.9,4.9,2,9.7,3,14.6c0.5-0.9,0.6-1.7,0.6-2.5c0-3.4-0.1-6.8-0.1-10.2c0-1,0-2,0-3
		c0-0.6,0.1-1.4,0.8-1.5c0.8-0.1,1,0.6,1.1,1.2c0,0.1,0.1,0.2,0.1,0.4c0.7,5.5,0.9,11,0.3,16.5c-0.2,1.9-0.8,3.7-2.2,5
		c0-0.1-0.1-0.3-0.1-0.3c-0.7-0.7-1.6-1.3-2-2.1c-0.6-1.2-0.9-2.6-1.2-3.9c-1.7-7.8-3.4-15.6-5.2-23.5c-0.1-0.5-0.4-0.9-0.7-1.5
		c-3.5,4.5-6.8,8.8-10.2,13.1c-0.7,2.6-1.3,5.3-2.1,7.9c-1.3,3.9-3,7.7-7,10.2c1.5,0.6,2.5,1,3.5,1.3c1.5,0.4,2.7,1.2,3.9,2.2
		c1.8,1.5,2.6,3.6,1.6,5.6c-0.6,1.2-0.5,2.2-0.2,3.2c0.5,1.6,0.5,3.2,0.8,4.7c0.2,0.8,0.2,1.4-0.3,2.1c-0.6,0.8-0.6,1.7-0.1,2.4
		c0.9,1.2,0.6,2.3-0.1,3.5c-1.3,2.2-3,4-4.8,5.7c-0.9,0.9-2,0.8-3.2,0.9c-1.1,0-2.2,0.2-3-1c-0.7-0.9-1.7-0.8-2.9-0.3
		c-0.5,1-1.1,2-1.5,3.2c-1,2.7-2.9,4.3-5.4,5.5c-7.1,3.3-4.7,1.7-9.3,7.7c-1.5,2-3.3,3.8-4.8,5.7c-3.7,4.7-7.4,9.5-11.1,14.3
		c-0.3,0.4-0.6,0.8-0.7,1.3c-0.8,3.7-3.1,6.5-5.2,9.5c-4.3,6.1-9.4,11.4-14.5,16.8c-1.7,1.8-3.9,2.7-6,3.8c-2.8,1.4-5.6,2.8-8.4,4.3
		c-0.5,0.3-1,0.7-1.7,1.3c2,0.6,3.6,1.3,5.3,1.6c5.3,0.9,9.9,3.5,14.3,6.4c1.4,0.9,2.5,2.4,4.5,2.5c0.3,0,0.7,0.6,1,1
		c0.7,1,1.6,1.5,2.9,2c-0.1-3.9-1.2-7.6-1.3-11.2c1-0.4,1.3,0.2,1.6,0.7c1.2,2,1.4,4.3,1.8,6.5c0.2,1.2,0.4,2.5,0.3,3.7
		c-0.1,1.6,0.7,2.6,2,3.3c4.2,2,8.2,4.2,13.1,4.4c0.6,0,1.2,0.4,1.9,0.6c-0.2,0.7-0.4,1.3-0.6,2c4.9,0.8,9.7,0.2,14.5-0.7
		c1-2.6,2-5.2,3-7.8c0.2-0.4,0.4-1.1,0.2-1.4c-0.9-1.3-0.1-2.3,0.4-3.5c0.7-1.7,1.3-3.5,1.8-5.3c0.6-2.3,1.1-4.6,1.6-6.9
		c0.2-0.7,0.3-1.5,0.7-2.1c1.5-2.4,2.1-5.1,2.7-7.8c1.2-4.9,3-9.6,5.3-14c1.2-2.3,2.4-4.7,3.6-7c0.2-0.3,0.4-0.7,0.5-1
		c1.3-5.3,4-10,5.9-15c1.3-3.4,2.7-6.8,4-10.1c1.4-3.7,2.9-7.5,4.6-11.1c2.8-5.9,4.7-12.1,6.1-18.5c0.6-2.5,0.2-5,0-7.5
		c-0.2-2.1-0.6-4.2-1-6.4c0.5-0.2,0.9-0.4,1.3-0.7c0.4,0.6,0.8,1.2,1.2,1.8c0.3,0.5-0.2,1.4,0.8,1.9c0.7-1,1.2-2,1.9-2.9
		c1.7-2.3,3.5-4.6,5.3-6.8c0.5-0.6,1.2-0.9,1.6-1.5c0.4-0.6,0.6-1.3,0.9-2.1c1.1-0.1,2-0.2,3-0.3c0.7-0.1,1.6-0.1,2.1-0.5
		c1.2-1,2.3-0.7,3.5-0.4c0.8,0.2,1.7,0.5,2.5,0.9c3.2,1.7,6.7,1.9,10.2,2c7.3,0.1,14.1-1.8,20.6-5.2c7.5,1.4,14.8,0.1,22.7-2.5
		c0.8-0.8,2.2-2.1,3.4-3.6c0.5-0.6,1-1.4,1.2-2.2c1.1-4.8,3.8-8.7,7.1-12.2c1-1.1,2.3-1.9,3.6-2.6c1-0.6,1.9-1.1,2.4-2.2
		c-1.3-0.9-2.6-1.8-3.8-2.8c-1-0.8-2-1.4-3.3-1.6c-1.7-0.3-3.3-1.1-5.1-1.7c-0.8-2.8-1.3-5.4,0.8-7.8c1.6-1.8,2.6-3.9,3.5-6.2
		c0.1-0.3,0.4-0.4,1.1-1c-0.1,1.1,0.1,1.7-0.1,2.2c-0.8,1.8-1.6,3.7-2.7,5.3c-1.3,1.9-1.5,3.9-0.9,6.1c0.6,0.3,1.2,0.7,1.8,0.7
		c3.2,0.2,5.6,2,8,3.7c0.4,0.3,0.7,0.6,1.1,1c0.1-0.1,1.7-2.5,1.7-2.5c1.3-1.1,1.7-2.4,1.3-4.1c-1.1-0.7-2.2-1.5-3.3-2.3
		c-2.8,0-3.6-2.1-4.7-4.2c0.7-0.6,1.2-1,1.8-1.6c0.5,2.5,0.5,2.5,2.1,3.2c-0.3-2.9-0.5-5.8-0.8-8.6c-0.1-0.8-0.2-1.5,0.8-1.9
		c1,0.8,1,1.9,1.1,3c0.2,2,0.6,4,0.7,6c0.1,2.6,1.2,4.3,3.9,4.6c0.1,0,0.3,0.1,0.3,0.1c0.2,0.2,0.3,0.4,0.6,0.6
		c-0.1,0.3-0.2,0.7-0.4,0.9c-0.4,0.4-0.7,0.7-0.5,1.3c2.7,0.4,3.5-0.3,3.2-2.6c-0.1-0.7-0.1-1.5-0.1-2.2c-0.3-4.7,0-9.5-1.6-14.1
		c0-0.1,0-0.2,0.1-0.4c1.1-0.6,1.6-0.6,1.9-0.1c0.3,0.5,0.7,1.1,0.9,1.6c1.3,3.5,1.3,7.2,0.6,10.7c-0.3,1.7-0.2,3.2,0.6,4.8
		c0.7,0,1.5,0,2.2,0c0.6,0,1.2-0.1,1.9-0.2c1.1-2.7,2.3-5.3,2.4-8.3c0.1-1.4,0.1-2.8,0.2-4.1c0-0.4,0.4-0.7,0.8-1.3
		c1,4.7,0.8,7.8-0.8,11.3c-0.4,0.8-0.7,1.6-0.9,2.4c-0.4,1.4-1.4,2.1-2.8,2.1c-1.2,0-2.4-0.2-3.7-0.3c-0.5,0.7-0.9,1.5-1.5,2.4
		c2.1,0.4,3.9,0.5,5.6-0.6c0.7-0.4,1.6-0.6,2.4-0.9c0.9-0.3,1.9-0.7,2.6-0.9c0.8-1.6,1.5-2.9,2.1-4.3c0.6-1.4,1.3-2.7,1.8-4.1
		c0.5-1.3,1.3-2,2.5-2.5c1.7,3.5,1.8,9.4,0.4,12.2c-0.2,0.4-0.6,0.9-1,1c-1.8,0.5-3.5,1.5-5.4,0.6c-0.6-0.3-1.5-0.2-2.2,0
		c-1,0.2-1.9,0.7-2.8,1.1c-2.2,1.1-4.3,1.1-6.5,0.2c-0.7-0.3-1.4-0.6-2.1-0.8c-0.6-0.2-1.2,0-1.5,0.7c-0.1,0.1-0.2,0.2-0.2,0.3
		c0-0.1,0.1-0.2,0.1-0.3c0.5,0.1,1,0.2,1.4,0.4c0.2,0.1,0.3,0.6,0.6,1c-1,0.5-1.8,1-2.7,1.4c0.1,1.2-0.4,2-1,2.8
		c-1.3,1.7-2.4,3.5-3.7,5.2c-3.2,4.3-6.4,8.6-9.7,12.9c-0.5,0.7-1.1,1.3-1.8,1.9c-3.4,3.1-7.1,5.6-11.8,6.1
		c-0.9,0.1-1.7,0.4-2.5,0.6c-4.5,1.2-9.1,2-13.4,0c-0.9,0.3-1.6,0.6-2.3,0.9c-5.1,2.1-10.3,3.8-15.9,4.3c-5.6,0.5-11,1-15.6-2.6
		c-1.2,0.2-2.2,0.6-3.2,0.5c-2.2-0.2-3.4,1.1-4.6,2.7c-2.3,3.1-4.7,6.2-7.1,9.2c-0.7,0.9-1.2,1.9-1.4,3c-0.4,2.6-0.9,5.2-1.5,7.7
		c-1.4,7-3.6,13.8-6.9,20.2c-1.5,2.9-2.7,5.9-3.8,9c-1.7,4.8-3.3,9.7-5.3,14.4c-1.8,4.2-3.6,8.5-5.4,12.8
		c-3.4,7.7-6.3,15.5-8.1,23.8c-0.3,1.3-0.8,2.7-1.6,3.8c-2,2.6-2.7,5.6-3.4,8.6c-0.4,1.8-0.9,3.6-1.4,5.4c-0.8,3-1.7,6-2.5,9.1
		c1.9,1.4,3,3.2,3.1,5.4c0.1,2,0.9,4.2-0.8,5.9c-1.4-0.5-1.4-1.5-1.4-2.5c-0.1-1.7-0.1-3.5-1.2-5.2c-0.3,0.7-0.4,1.3-0.7,1.8
		c-0.2,0.6-0.5,1.1-0.7,1.4c-1.5,0.8-3.1-0.3-4.2,1.2c0.5,3,0.7,6-2.2,9.1c0.4-3.4,1.4-6.1,1-9.2c-0.6,0.3-1.2,0.4-1.3,0.7
		c-0.2,0.8-0.2,1.7-0.4,2.6c-0.3,1.2-0.6,2.4-1,3.6c-0.1,0.4-0.6,0.9-1.1,0.3c0.1-2,1.9-4,0.5-6.2c-1.3,1.2,0,3.4-2.1,4.1
		c-0.5-1.5,0.6-3.1-0.5-4.4c-2.2-0.5-4.4-0.8-6.5-1.5c-2.1-0.7-4.1-1.7-6.2-2.6c-1.1,0.7,0,2.7-1.8,2.9c-0.1-0.1-0.2-0.2-0.2-0.4
		c0-0.5,0-1,0.1-1.5c0-1.6-0.1-2-0.9-2.2c-1-0.2-1.2,0.6-1.6,1.2c-0.3,0.5-0.6,1.1-1.5,0.8c0.1-0.9,0.3-1.8,0.4-3
		c-1.1-0.5-2-0.9-2.9-1.3c-1.2,0.8-1.2,2.9-3.3,2.1c0.3-1.1,0.5-2.1,0.8-3.3c-1-0.6-2-1.2-2.9-1.7c-0.7,1-1.3,1.9-2.2,3.2
		c0-1.8,0-3,0-4.2c-3-2.6-7.4-5.4-9.7-6.3c-1,3-1,3-2.8,2.7c0.1-1.2,0.3-2.4,0.4-3.6c0-0.4-0.4-0.9-0.7-1.2
		c-0.3-0.3-0.9-0.3-1.5-0.4c-0.1,1.3-0.1,2.4-0.2,3.5c-0.2,1.8-1,3.1-3,3.2l0.1,0.1c0.1-0.5,0-1.1,0.2-1.4c1.2-1.7,1.1-3.6,0.9-5.4
		c-0.1-0.7-0.5-1.5-1.5-0.9c-0.2,1.2-0.3,2.5-0.7,3.7c-0.3,0.9-1,1.5-2,0.8c1.1-2.9,1.1-3.7,0.1-5.8c-0.9,0.1-0.6,0.9-0.9,1.4
		c-0.3,0.5-0.7,1-1,1.4c-3.8-0.9-3.8-0.9-5.9-3.4c-1.2,0.6-2.4,1.7-3.7,1.7c-2.2,0-3.9,0.8-5.6,1.9c-2.4,1.6-4.8,2.1-7.4,0.7
		c-0.2-0.1-0.5,0-1,0c-0.4,0.5-1,1.2-1.5,1.9c-0.3,0.4-0.6,1.1-0.4,1.4c0.8,1.4-0.1,2.4-0.7,3.5c-3.1,5.8-5.4,11.8-6.3,18.4
		c-0.2,1.4-0.3,2.7-0.6,4.1c-0.5,2.2-0.4,4.5-0.4,6.6c0.6,0.5,1,0.8,1.3,1c0.5,2.7,0.8,5.2,1.3,7.6c0.6,2.8,1.4,5.6,2.1,8.4
		c0.7,2.7,1.3,5.4,3,7.6c0.4,0.5,0.5,1.1,0.7,1.7c1.3,2.8,2.5,5.7,4.1,8.4c1.3,2.3,2.7,4.5,3.2,7.1c0.1,0.7,0.5,1.4,0.9,2.1
		c1.2,2.3,1.7,4.7,1.5,7.3c-0.1,2.3,0.4,4.5,1.1,6.6c0.9,2.5,1.7,5,2.2,7.6c0.7,4.1,1.2,8.2,1.7,12.3c0.4,3.5,0.4,7.1,1.8,10.3
		c1.8,4.4,3.8,8.7,5.8,13c0.7,1.6,1.5,3.2,2.9,4.5c0.6-0.1,1.2-0.1,1.8-0.3c3.9-1.1,7.7-2.2,11.5-3.3c9.9-2.9,19.7-5.7,29.5-8.7
		c8.2-2.4,16.3-4.9,24.4-7.5c3-0.9,5.9-2.1,8.8-3.6c-0.1-0.8-0.1-1.5-0.3-2.2c-1.7-5.1-3.4-10.2-5.3-15.2c-3.3-9-7.5-17.5-13-25.3
		c-0.4-0.6-0.8-1.5-1.4-1.7c-1.6-0.5-1.9-1.8-2.4-3.1c-0.4-0.9-0.8-1.9-1.1-2.8c-1.6-4.1-3.8-7.9-7.2-11c0.2-1.3,0.3-2.5,0.6-3.7
		c0.1-0.3,0.7-0.5,1.4-0.9c0.2,1.6,0.3,2.8,0.5,4c3.3,3.4,5.4,7.4,7.1,11.8c0.4,1,0.8,2.1,1.2,3c1.4,0.4,2.6,0.7,4,1.1
		c4.5,6,8.5,12.3,10.7,19.6c2.4,7.9,4.7,15.8,7.5,23.6c0.1,0.2,0.1,0.5,0.2,0.7c0.3,0.8,0.6,1.6,0.9,2.4c0.3-7.2,0-14.4,0-21.5
		c-0.1-9.2-1-18.2-2.4-27.3c-0.2-1.3-0.1-2.7-0.1-4.1c0-0.5,0.4-0.9,1.2-0.7c0.1,0.5,0.4,1.1,0.5,1.6c0.2,1.2,0.3,2.5,0.5,3.7
		c0.5,3.3,1.2,6.7,1.7,10c1.3,9.9,1.7,20,2.1,30c0.1,4.2,0.3,8.5-1.8,12.2c0.5,1.4,1,2.6,1.4,3.8c2.5,6.4,3.9,12.9,3.6,19.8
		c-0.1,1.5-0.2,3.1,0.2,4.5c0.7,2.6,0.3,5-0.8,7.3c-3.1,7-5.8,14.1-9.7,20.7c-0.4,0.6-0.8,1.4-0.8,2c0.1,1.5-0.5,2.7-1,4
		c-3,7.7-6.1,15.4-9.2,23c-0.4,1-0.8,2.1-1.3,3.1c-0.9,2.2-1.6,4.5-2.6,6.6c-2.2,4.7-4.7,9.2-6.6,13.9c-3.2,8-6.9,15.8-10.6,23.7
		c-0.9,2-1.5,3.9-2,6c-0.9,4.7-1.9,9.3-2.9,14c-0.9,4.4-1.8,8.8-1.6,13.4c0.1,3.9-0.4,7.8-0.6,11.6c0,0.5-0.1,1-0.1,1.5
		c0,0.4-0.2,1,0.6,1.2c0.9-0.8,1.8-1.7,2.7-2.5c0.5-0.4,1.1-0.7,1.6-0.1c-0.3,2.9-0.3,2.9,1.5,3.3c1.5,4.8,3.4,9.5,4.7,14.5
		c1,3.5,2.5,6.8,4.8,9.7c3.4,4.3,6.7,8.7,10.5,12.7c2,2.2,4.1,4,6.8,5.2c3,1.3,5.6,3.3,8.8,4.2c0.4,0.1,0.7,0.6,1.1,0.9
		c0.5,3.8-0.5,7.6,1.3,10.9c-0.7,1.7-1.9,2.2-3.3,2.7c-3.3,1.2-6.7,2-10.2,2.2c-5.6,0.2-11.3,0.5-16.9,0.7c-1.9,0.1-3.8,0-5.6,0
		c-2.3,0-4.1-0.9-5.6-2.6c-0.5-0.6-0.9-1.2-1.3-1.7c-1.7-0.5-3.5-1-5.1-1.6c-1.6-0.6-3.3-1.3-4.7-2.2c-3.2-2.2-6.3-4.5-9.4-6.8
		c-2.5-1.9-5.1-3.6-8.3-4.3c-2.5-0.5-4.7-1.8-6.5-3.5c-1.6-1.5-3.4-2.5-5.3-3.4c-3.2-1.5-6.3-3.1-9.4-4.7c-0.8-0.4-1.6-0.8-2.1-1.5
		c-1.3-1.5-2.5-3.2-3.5-4.9c-1.4-2.2-1.2-3.2,0.5-5c1.4-1.4,3-2.6,4.4-3.9c0.1-0.5,0.2-0.9,0.2-1.2c0.1-2.5,1.1-4.6,3-6.2
		c0.9-0.7,1.5-1.6,2.3-2.5c2-2.4,3.9-4.8,4.9-7.9c0.9-2.7,2.8-5,3-7.6c1.5-1.4,2.9-0.4,4.2-0.6C535.5,525.6,535.6,525.7,535.6,525.8
		z M577.3,163.9c0.1-0.1,0.1-0.1,0.2-0.2c0.5,0,0.8-0.2,0.8-0.7c1.1-0.5,1.6-1.5,1.9-2.6c0.4-1.3,0.9-2.6,1.3-3.8
		c2.8-1.3,6,0.3,8.9-1.8c1.6-3.3,3.8-6.9,4.9-10.8c0.6-0.3,1.2-0.6,1.7-0.9c-0.1-0.2-0.1-0.5-0.3-0.6c-0.7-0.4-1.6-0.8-2.3-1.3
		c-0.2-0.1-0.4-0.7-0.2-1c0.1-0.3,0.6-0.5,0.9-0.5c0.5,0,1,0,1.5,0.1c2.6,0.6,5.1,1.2,7.7,1.8c0.2,0.1,0.5,0.1,0.7,0.3
		c0.2,0.3,0.5,0.6,0.5,0.9c0,0.3-0.3,0.7-0.6,0.8c-1.2,0.3-2.3,0.5-3.6,0.8c0,0-0.2-0.3-0.3-0.4c-1-0.9-1.6-0.8-2,0.1
		c-0.3,0.6-0.4,1.2-0.6,1.9c0.6,0.2,1.1,0.3,1.5,0.5c2.7,1.6,4.8,0.4,6.6-1.5c1-1.1,2-2.2,2.8-3.2c-1.6-4.9-5.5-7.5-9-10.1
		c0-0.4-0.1-0.5,0-0.6c0.2-0.3,0.3-0.6,0.5-1c-0.2-1.4-2.7-2-1.5-4.3c3.1,1.6,5.5,4,8.4,5.6c0.5-1-0.1-1.4-0.5-1.7
		c-2-1.7-4.1-3.3-6.2-4.9c-0.8-0.6-1.6-1.2-2.5-1.7c-1.1-0.7-1.4-1.7-1.1-2.8c-1.6-2.5-4.4-1.5-6.4-2.4c-3.6,3.2-5.7,7.2-7.6,11.2
		c-1.9,4.1-4.4,7.9-7.4,11.2c-1.1,1.2-2.4,2.2-3.5,3.3c-0.8,0.8-1.7,1.5-2.4,2.3c-5.3,5.7-11,10.9-17.2,15.7c-2.6,2-5,4.2-8,5.5
		c-4.4,2-8.9,4-13.3,6c-0.8,0.4-1.6,0.8-2.5,0.8c-4.9,0.5-9.4,2.6-14,4.1c-1.4,0.5-2.8,1-4.2,1.5c-0.7-0.8,0-1.2,0.4-1.6
		c1.6-1.9,3.8-2.9,6-3.7c2.5-0.9,5-1.7,7.5-2.3c1.7-0.4,2.6-1.3,3.2-2.8c0.4-1.1,0.7-2.1,1-3.2c0.3-1.1,0.5-2.2,0.8-3.2
		c0.1-0.5,0.3-1,0.3-1.5c-0.3-7.3-0.4-14.5-2.2-21.6c-0.9-3.5-0.8-3.5-2.7-6c1.7-0.5,3.2-0.1,4,1.4c0.9,1.6,1.6,3.4,2.2,5.1
		c0.4,1,0.6,2.1,1,3.3c2.5-0.7,4.3-1.9,5.8-3.7c1.4-1.8,2.6-3.6,3.3-5.9c1.4-5.1,3.1-10,4.6-15.1c0.9-3,1.3-6.1,1.3-9.3
		c0-5.9,0.1-11.8-0.2-17.7c-0.2-4.6-1.1-9.2-1.6-13.8c-0.2-1.6-0.2-3.2-0.3-5c-0.2-0.1-0.5-0.3-0.8-0.3c-4,0.4-8,0.9-11.9,1.3
		c-3.9,0.4-7.6,1.7-11.1,3.2c-0.8,0.3-1.5,0.9-2.2,1.4c-1.8,1.3-3.7,2.6-5.5,3.9c-1.8,1.2-3.6,2.2-5.7,2.8c-1.9,0.6-3.7,1.4-4.9,3.3
		c-0.4,0.7-1.3,1.2-1.9,1.8c-3.8,3.1-6.7,7.1-9.1,11.4c-2.2,4.1-3.9,8.4-5.4,12.8c-0.3,0.9-0.4,2-0.4,2.9c0,3.6,0,7.3,0.1,10.9
		c0,1.4,0.3,2.7,0.4,4.1c0.2,1.5,0.4,3,0.6,4.4c0.1,0.6,0.4,1.2,0.5,1.7l-0.1-0.1c-0.5,2.8-0.7,5.7-1.6,8.5
		c-2.2,6.7-1.5,13.3-0.1,20c0.6,3.1,1.3,6.1,1.8,9.2c0.8,4.4,1.1,8.9,1.1,13.5c0,3.5,0.5,7,1.3,10.4c0.1,0.5,0.3,1,0.4,1.5
		c0.7,2.8,1,5.7,2.1,8.3c1.1,2.5,3,4.6,4.5,6.9c0.7,1,1.4,2.1,2.1,3.1c3.6,5.1,4.5,5.6,10.7,7.7c0.3-0.1,0.7-0.1,1.1-0.3
		c8.4-3.8,16.7-8.1,24.5-13c1.6-1,3-2.2,4.4-3.5c4.6-4.3,9.1-8.6,13.5-13c1-0.9,1.9-2.1,2.4-3.3c3-8,8-14.7,13.5-21.1
		c1.7-2,3.4-4,5.1-6c0.3-0.4,0.5-0.8,0.8-1.2c-0.8-0.2-1.5-0.3-2.5-0.5c1.6-2.4,3.1-4.6,5.9-6.1c0,1.3,0.1,2.3,0.1,3.2
		c-0.6-0.1-0.7,0.3-0.7,0.8C577.5,163.8,577.4,163.8,577.3,163.9z M572.1,31.5c0.1-0.1,0.1-0.2,0.2-0.2c0.1,0,0.2-0.1,0.3-0.1
		c-0.1,0.1-0.1,0.1-0.2,0.2C572.2,31.4,572.1,31.5,572.1,31.5z M582.3,34.8c0-0.2,0,0.1-0.1,0.3c-0.1,0-0.2,0-0.3,0
		c0.1,0,0.2-0.1,0.2-0.1C582.3,34.9,582.4,34.6,582.3,34.8z M581.4,52.1c0.1,0.1,0.2,0.3,0.3,0.4c0.1-0.3,0.2-0.6,0.3-0.9l0.2-0.2
		l-0.1,0.3C581.9,51.8,581.7,52,581.4,52.1z M609.5,17.6c0.1-0.2,0.2-0.5,0.2-0.7c0.1,0,0.2,0,0.4,0c-0.1,0-0.2,0.1-0.3,0.1
		C609.7,17.2,609.6,17.4,609.5,17.6z M588.8,34.3c-0.1,0.1-0.1,0.2-0.1,0.3c0.2,0,0.6,0,0.6-0.1c0.1-0.3,0.1-0.7,0.2-1
		c0.1,0,0.2,0,0.3,0c-0.1,0-0.1,0.1-0.2,0.1C589.3,33.8,589.1,34,588.8,34.3z M615.3,25.6c-0.1-0.1-0.1-0.2-0.2-0.3
		c-0.1-0.3-0.1-0.7-0.3-1c-0.1-0.2-0.4-0.3-0.6-0.2c-0.2,0-0.4,0.3-0.4,0.5c0,0.2,0.2,0.5,0.3,0.6c0.3,0.1,0.7,0.1,1,0.1
		C615.3,25.3,615.3,25.5,615.3,25.6z M621.5,29.3c0-0.1-0.1-0.1-0.1-0.2c-0.1,0-0.2,0-0.3,0c-1-1.7-1-1.7-3.2-2.7
		c0.9,1.5,0.9,1.5,3.3,2.6C621.3,29.1,621.4,29.2,621.5,29.3z M597.5,32.4c-0.4-0.4-0.9-0.7-1.3-1.1c-0.9,1-1.4,1.9-1.2,3.1
		c-0.1,0-0.2,0.1-0.3,0.1c0.1-0.1,0.1-0.1,0.2-0.2C596,34.1,596.9,33.6,597.5,32.4z M506.7,461.1c0.5,1,0.9,2,1.5,3.2
		c2.3-0.9,3.4-3.9,6.6-3.4c-1.3,2.6-3.4,4-5,5.7c-0.1,1.2,0.6,1.7,1.4,2.1c0.7,0.3,1.4,0.4,2.1,0.7c1.7,0.7,3.5,1.4,5.6,2.2
		c1.4-0.6,3.2-1.3,5.2-2c1.6-5.1,5.3-8.8,8.8-12.5c1.5-1.6,3-3,4.5-4.5c1-1,2-1.8,2.4-3.3c0.3-0.9,1.1-1.7,1.7-2.4
		c0.9-1,1.9-2,2.9-3.1c0.2-1.5,0.5-3.1-0.2-4.7c-1.6-0.1-3.1,1.4-4.9,0.2c0.3-0.4,0.5-0.8,0.9-1.1c1.4-1,2.9-2,4.2-2.9
		c0.1-0.9,0.3-1.5,0.2-2.1c-0.3-2.7,0.5-5,1.9-7.4c2.2-3.8,4.7-7.4,7.9-10.5c1.2-1.1,2.1-2.3,2.5-4c0.6-2.3,2.3-4.1,4.3-5.5
		c4.5-3.1,6.9-7.5,6.9-13c0-0.7-0.5-1.3-0.8-2.1c0.3-0.6,0.6-1.3,0.9-1.9c-0.6-3.8-1.9-7.2-6.2-8.7c0.3,1.3,0.8,2.4,0.9,3.6
		c0.2,2.8,0,5.7,0.4,8.5c0.1,1-0.4,2.3-1,3.1c-1.4,2.1-2.9,4.1-4.5,6c-1,1.1-2.3,1.8-3.7,2.3c-2.4,1-4.7,2.4-6.8,4
		c-0.8,0.6-1.6,1.1-2.4,1.6c-5.5,3.5-10.7,7.4-14.8,12.6c-0.5,0.6-0.8,1.3-1.1,1.9c-0.7,1.7-1.1,3.6-1.9,5.3
		c-2.4,5.1-5,10.1-8.2,14.8c-1.7,2.5-3.5,4.9-6.1,6.5c-0.5,0.3-1,0.7-1.4,1.3c-1.9,3.1-4.5,5.7-6.9,8.4c-1.1,0.6-2.3,1-2.9,2.5
		c0.1,0.5,0.2,1.1,0.4,1.6c0.4,1.4,1.1,2.7,0.3,4.3c-0.4,0.7-0.3,1.8,0,2.6c0.7,2.5,1.8,3.9,4.3,3.8c2.8-0.1,5.4-0.7,7.8-2.1
		c0.1,0,0.1-0.2,0.1-0.4c-0.1-0.1-0.2-0.2-0.3-0.2c-3.9,0-6.1-2.4-7.7-5.6c-1.1-2.1-1.8-4.4-2.1-6.8
		C505.4,460,506.3,460.2,506.7,461.1z M533.6,528.1c-1.1,2.7-2.1,5.3-3.2,8c-0.4,0.9-0.9,1.8-1.5,2.6c-2,2.6-4,5.1-6.1,7.6
		c-1,1.2-1.8,2.3-1.9,4c-0.1,2.2-1.1,3.8-2.9,5c-0.9,0.6-1.7,1.5-2.6,2.3c1.1,2.6,2.4,4.8,4.9,6c3.3,1.5,6.5,3.2,9.8,4.8
		c1.9,0.9,3.8,2,5.3,3.5c1.3,1.4,3,2.3,4.8,2.8c3.7,1,6.8,3.1,9.7,5.5c2.8,2.3,5.6,4.6,8.6,6.7c1.9,1.3,4.2,2.3,6.4,3.2
		c3.2,1.3,6.7,1.9,9.9,3.6c0.7,0.4,1.7,0.3,2.6,0.3c6.5,0.1,13,0.1,19.5,0.1c3.3,0,6.4-0.6,9.8-1.5c0.2-3.4-0.2-6.7-0.2-9.9
		c-3.4-1.7-6.7-3.3-9.8-5c-1.1-0.6-2.1-1.3-3.1-2.1c-0.8-0.6-1.6-1.1-2.7-1c-0.4,0-0.9-0.3-1.3-0.6c-0.2-0.1-0.3-0.4-0.3-0.6
		c0-0.5,0.2-1,0.3-1.7c-1.1-1.2-2.2-2.5-3.4-3.7c-1.2,0.8-2.2,1.6-3.2,2.1c-1.2,0.7-2.4,0.4-3-0.6c-0.6-0.9-0.4-2.3,0.6-3
		c0.9-0.7,1.9-1.1,3-1.8c0-1.2-1-2.1-1.9-3c-1.1,0.9-2.1,1.8-3.3,2.6c-0.7,0.5-1.5,0.9-2.4,1.1c-0.5,0.1-1.3-0.1-1.6-0.5
		c-0.5-0.5-0.1-1.3,0.4-1.6c1.2-0.8,2.5-1.6,3.9-2.3c0.5-0.3,1.1-0.4,2-0.8c-1-1.6-1.9-3-2.7-4.4c-1.1-0.1-1.3,0.8-1.8,1.2
		c-0.9,0.9-1.8,1.7-2.8,2.4c-0.6,0.4-1.4,0.5-2.1,0.6c-0.9,0.1-1.7-0.2-2.2-1c-0.5-0.8-0.4-2.1,0.4-2.7c1.2-0.9,2.5-1.6,3.8-2.3
		c1-0.5,2.1-0.8,3-1.1c0.1-1.4,0-2.5-1.1-3.3c-1.2,0.7-2.3,1.4-3.5,2.2c-1,0.6-2.1,0.9-3.2,0.7c-1.6-0.2-2.5-2.1-1.5-3.4
		c0.4-0.6,1-1.1,1.6-1.5c1-0.7,2.1-1.3,3.2-1.9c0.2-1.6,0.5-3,0.6-4.5c0.2-1.7-0.1-3.1-1.9-4c-0.9-0.4-1.4-1.6-2.1-2.5
		c-1.3,0.3-1,1.1-0.5,2.2c-2.3,3.1-5.2,5.8-8.6,8c-1.8-1-3.7-0.7-5.5-0.4c-2.7,0.4-5.5,0.8-8.2,1.1c-1,0.1-2,0.2-3,0.2
		c-0.5,0-1-0.1-1.6-0.2c-0.4-0.8-0.8-1.5-1.1-2.3c-0.8-2.2-1.4-4.5-2.3-6.8c-1-2.6-1.5-5.3-1.3-8.1c0.1-0.1,0.1-0.1,0.2-0.2
		c0,0.1-0.1,0.1-0.1,0.2C535.3,528.4,534.5,528.3,533.6,528.1z M598.8,415.5c-0.6,1.6-1.2,3.1-1.9,4.9c-0.5-0.3-0.9-0.5-1-0.7
		c-0.1-0.4-0.2-1-0.1-1.4c0.7-2.6,1.5-5.3,2.5-8.6c0.4,1.6,0.6,2.5,0.8,3.4c0.6,0.2,0.9-0.3,1.1-0.7c2.3-4.3,4.6-8.6,6.8-13
		c2.1-4.3,3.8-8.7,6.5-12.7c0.6-0.9,0.8-1.9,0.5-2.8c-0.7-2.8-1-5.6-0.9-8.5c0-1.1-0.3-2.2-0.6-3.3c-1.6-5.4-3.3-10.7-5-16.1
		c-0.6-1.8-1.2-3.6-1.8-5.4c-8.8,4.6-18.1,7.8-27.6,10.6c-2.3,0.7-4.6,1.1-6.6,2.4c0,1.6,1.8,2.6,1,4.5c-0.4-0.2-0.9-0.4-1.1-0.7
		c-0.8-1-1.5-2-2.3-3.2c-1,0.3-1.9,0.5-2.9,0.8c-3.1,0.9-6.2,1.9-9.3,2.8c-0.4,0.1-0.8,0.5-1.3,0.7c-0.2,0-0.4,0-0.7,0
		c-0.1,0-0.2,0.1-0.2,0.2c0.2,0.1,0.4,0.2,0.5,0.2c0.1-0.1,0.2-0.4,0.2-0.5c1,0.4,1.6,1.1,2.1,2c1.3,2.1,2.6,4.3,5,5.5
		c0.7,0.4,1.3,1.2,1.8,1.9c2.2,2.5,4.4,5.1,6.6,7.7c0.5,0.6,0.8,1.2,1.3,1.9c-0.3,0.7-0.8,1.3-0.9,2c-0.2,0.7-0.1,1.5,0,2.2
		c0.2,2.7-0.7,5.2-2,7.5c-0.1,0.2-0.3,0.4-0.4,0.6c-3.2,4.2-5.7,8.8-9,12.9c-4.3,5.4-7.9,11.3-11.3,17.3c-1.1,2-1.5,4.2-1.6,6.5
		c-0.2,6.1-0.3,12.3-0.8,18.4c-0.4,4.6-0.3,9.3-0.5,13.9c-0.2,4.7-0.7,9.5-1,14.2c-0.4,5.9-0.8,11.7-1.3,17.6
		c-0.2,2.9-0.6,5.7-1.8,8.4c-0.3,0.7-0.5,1.4-0.6,2.1c-0.9,4.4-2.2,8.7-2.4,13.3c-0.1,1.2-0.3,2.6-1,3.6c-0.7,1.2-0.2,2.2-0.3,3.4
		c1,0.3,2,0.5,2.8,1c0.9,0.5,1.6,1.2,2.3,1.9c1.7,1.4,3.6,2.2,5.9,2.3c1.9,0.1,3.8,0.2,5.6,0.2c1.9,0.1,3.7-0.1,5.6,0.4
		c0.8,0.2,1.7-0.2,2.7-0.3c0.9-4,0.4-8.1,1.1-11.9c-1.1-0.8-1.3-1.9-1.3-3.1c0-3.5,0.5-7,1.2-10.4c0.5-2.5,1.1-4.9,1.6-7.3
		c0.5-2.5,0.8-4.9,1.2-7.4c0.8-4.4,1.8-8.8,3.8-12.9c3.9-8,7.8-16,11.8-23.9c2.1-4.2,4.2-8.5,5.9-13c2.5-6.7,5.4-13.2,8.2-19.8
		c1.2-3,2.4-6,3.6-9.1c0.3-0.7,0.3-1.4,0.4-2.1c0.1-0.1,0.2-0.2,0.4-0.3c-0.1,0-0.2,0-0.2,0c-0.1,0.1-0.1,0.2-0.1,0.3
		C599.8,415.7,599.4,415.6,598.8,415.5z M539.3,486.3c-0.8,0.3-1.6,0.1-2-0.6c-0.2-0.5-0.2-1.2,0-1.7c0.2-0.6,0.7-1,1.1-1.7
		c-0.4-0.4-0.9-0.8-1.5-1.4c-0.6,0.6-1.1,1.2-1.7,1.6c-0.6,0.5-1.2,0.9-1.9,1.2c-1,0.5-2.1,0.1-2.6-0.8c-0.4-0.7-0.3-1.7,0.5-2.4
		c1-0.8,2-1.5,3.2-2.4c-0.6-0.8-1.1-1.6-1.8-2.6c-0.8,1-1.5,1.9-2.2,2.7c-1.1,1.3-2.4,2.1-4.2,2.3c-0.4,0-0.8,0-1.1-0.2
		c-0.4-0.2-0.8-0.6-0.9-1c-0.1-0.3,0.1-0.8,0.3-1c0.3-0.3,0.8-0.6,1.2-0.8c2.8-1.5,2.8-1.5,4.9-4.5c-1-1.5-2-3.1-3.2-4.9
		c-0.5,0.7-0.8,1.3-1.2,1.9c-3.3,1.7-6.6,3.5-9.9,5.2c-1.5,0.8-2.9,1.3-4.6,1.3c-1.9,0-3.7,0.4-5.6,0.4c-3.3,0.1-6-2.3-6.4-5.6
		c-0.2-1.6-0.2-3.2-0.2-4.9c0-0.5,0.1-1,0-1.5c-0.1-0.6-0.5-1.2-0.7-1.7c-0.2-0.5-0.3-0.9-0.4-1.4c-0.1-0.5,0.8-1.1-0.2-1.6
		c-0.6,0.9-1.2,1.8-1.8,2.7c-1.1,1.7-2.3,3.3-3.9,4.5c-1.2,0.9-2.4,2-3,3.3c-1.4,3.1-3.8,5.2-6.1,7.5c-0.8,0.8-1.6,1.6-1.9,2.7
		c-0.3,1-0.6,2-1.1,2.8c-0.4,0.7-1.2,1.1-1.9,1.7c0.2,0.6,0.3,1.1,0.5,1.5c2.3,4,5.7,6.9,9.6,9.2c2.3,1.3,4.9,1.8,7.6,1.9
		c4.9,0.1,9.8,0.4,14.6-0.4c1.5-0.2,3-0.1,4.5-0.1c1.5,0.1,3,0.5,4.2,1.5c1.2,0.9,2.6,1.7,3.5,2.8c1.1,1.4,2.4,2.1,4,2.6
		c1.6,0.4,3.2,0.8,4.8,1c2.2,0.3,4.5-0.2,6.7,0.1c0.6,0.1,1.2-0.3,1.8-0.5c2-6.7,1-13.5,1.1-20.3C540.6,485.6,540,486,539.3,486.3z
		 M541.3,452.4c-3.7,3.8-7.3,7.5-11,11.3c-0.5,0.5-1,1.1-1.5,1.8c1.2,1.9,2.4,3.8,3.7,5.6c1.4,1.9,2.9,3.8,4.5,5.5
		c1.5,1.6,2.2,4,5,4.6c0.6-1.9,0.8-3.7,1-5.5c0.4-5.7,0.9-11.5,1.3-17.2c0.2-3.1,0.3-6.2,0.5-9.7
		C543.3,450.2,542.3,451.3,541.3,452.4z M541.9,543.4c0.7,0,1.3,0.2,1.9,0.1c4.4-0.5,8.7-1,13-1.4c1.6-0.1,2.5-1.4,4.1-1.9
		c-1.2-0.3-2.3-0.5-3.3-0.9c-1-0.4-2-0.3-2.9-0.1c-1.1,0.2-2.2,0.5-3.3,0.6c-3.6,0.4-7,0-10.1-2c-0.3-0.2-0.6-0.3-1.2-0.5
		C540.2,539.5,541.3,541.3,541.9,543.4z M605.5,122.8c-1.9-0.7-3.9-1.3-6-1.8c1.1,1.3,2.6,2,3.9,3c1.4,1,2.8,2,4.5,3.3
		C608.3,124.8,607.3,123.5,605.5,122.8z M574.9,49.1c-0.2-0.4-0.3-0.9-0.5-1.3c-0.7-1.1-1.4-1.5-2.1-1.2c-0.9,0.4-1.6,1.6-1.3,2.5
		c0.3,1.2,0.8,2.3,1.5,4.2C573.3,50.8,573.3,50.8,574.9,49.1z M747.1,72.6c1.2-3,1.2-3,0.9-6.4c-1.7,1.9-2.3,4.1-3.2,6.6
		C745.9,72.7,746.5,72.6,747.1,72.6z M598.5,21.2c0-0.1,0-0.3,0-0.4c-0.1-0.2-0.3-0.4-0.5-0.6c-1.7,1.3-4.2,1.5-5.4,4.1
		C595.3,23.8,595.3,23.8,598.5,21.2z M642,25.6c-0.8-1.2-1.9-0.7-2.8-0.9c-0.3,1.2-0.7,2.2,0.2,3.3C640.7,27.5,641.3,26.5,642,25.6z
		 M614.1,18.3c1.5-0.5,2.7-1.2,4.6-2.5c-1.8-0.2-2.7-0.3-3.7-0.4C614.4,16.5,613.7,17.1,614.1,18.3z M594.4,13.7
		c0.8,0.3,1.6,0.6,2.7,0.9c0.6-0.5,1.2-1,1.9-1.5c-0.1-0.2-0.2-0.4-0.3-0.6C597.3,12.9,595.9,13.3,594.4,13.7z M579.7,35.2
		c0.3-0.6,0.6-1.3,0.9-1.8c-0.7-0.7-1.2-0.5-1.6,0.1c-0.7,1.2-0.8,2.5-0.4,4C579,36.6,579.4,35.9,579.7,35.2z M588,38.4
		c0.7-0.5,0.9-1.2,0.5-1.5c-0.6-0.5-1.2-0.1-1.7,0.3c-0.7,0.5-1,1.1-0.4,2C587,39,587.5,38.8,588,38.4z M628.6,55.3
		c-1.2-0.7-2.4-0.4-4.3-0.4C627.5,56.3,627.5,56.3,628.6,55.3z M633.5,18.8c2.7-0.6,2.9-0.9,1.7-2.7
		C634.5,17.1,634.1,17.9,633.5,18.8z M585.6,36.3c-1.4-1.6-1.5-1.5-2.9,0.9C584,36.7,584.8,36.5,585.6,36.3z M527.5,227.6
		c0,0.1,0.3,0.3,0.4,0.4c0.2-0.4,0.4-0.8,0.5-1.2c0-0.1-0.3-0.3-0.6-0.6C527.7,226.8,527.6,227.2,527.5,227.6z M582.8,49.1
		c1.3,0.3,1.7-0.4,1.8-1.6C584,48,583.5,48.4,582.8,49.1z M524.5,224.8c-0.5,1,0,1.5,0.9,1.9C526,225.6,525.4,225.2,524.5,224.8z
		 M628.2,30.7c-0.1-0.1-0.4,0.2-0.5,0.3c0.1,0.1,0.1,0.2,0.2,0.3c0.3,0.2,0.7,0.4,1,0.5c0.1-0.1,0.2-0.3,0.2-0.4
		C628.9,31.2,628.6,30.9,628.2,30.7z M570.4,56.8c0.2,0.2,0.5,0.4,0.7,0.6c0.1-0.1,0.2-0.2,0.2-0.3c-0.1-0.3-0.2-0.5-0.3-0.9
		C570.7,56.5,570.6,56.6,570.4,56.8z M622,22.1c0.2-0.1,0.2-0.4,0.3-0.6c-0.2-0.1-0.4-0.2-0.6-0.2c-0.3,0.1-0.6,0.3-0.9,0.5
		c0.1,0.1,0.1,0.3,0.2,0.4C621.4,22.2,621.7,22.2,622,22.1z M588.5,11.6c0.1-0.3,0.2-0.5,0.2-0.8c0-0.1-0.4-0.2-0.5-0.2
		c-0.1,0.2-0.1,0.4-0.2,0.6C588.1,11.4,588.3,11.5,588.5,11.6z M575.8,52.9c-0.2,0-0.5,0-0.6,0.1c-0.1,0.1-0.2,0.4-0.3,0.6
		c0.2,0.1,0.5,0.1,0.8,0.3C575.8,53.5,575.8,53.2,575.8,52.9z M623.7,28.5c0.1-0.2,0.2-0.3,0.2-0.5c0,0-0.2-0.2-0.3-0.2
		c-0.2,0-0.3,0.1-0.5,0.2C623.4,28.2,623.5,28.3,623.7,28.5z M617.2,24.2c0.1-0.3,0.3-0.5,0.4-0.8c0,0-0.2-0.2-0.3-0.1
		c-0.2,0.2-0.5,0.4-0.7,0.6C616.9,24,617,24.1,617.2,24.2z M593.5,19.7c0.2-0.1,0.3-0.3,0.4-0.5c-0.1-0.1-0.3-0.2-0.4-0.2
		c-0.1,0.2-0.2,0.4-0.3,0.6C593.3,19.6,593.4,19.7,593.5,19.7z M608.9,12.3c0.2,0.1,0.4-0.1,0.7-0.2c-0.1-0.2-0.2-0.4-0.4-0.5
		c-0.1-0.1-0.4,0.1-0.6,0.1C608.7,12,608.7,12.3,608.9,12.3z M622.6,18.1c0.1,0.1,0.2,0.2,0.2,0.2c0.2-0.1,0.4-0.2,0.6-0.3
		c-0.1-0.1-0.1-0.2-0.2-0.3C622.9,17.9,622.7,18,622.6,18.1z M590.8,40.2l-0.1,0l0.1,0.2L590.8,40.2z"/>
	<path d="M265.7,20.3c-0.1,0-0.1,0.3-0.2,0.5c0.2,0,0.4,0.1,0.6,0c0.2-0.2,0.4-0.5,0.6-0.8c0.7,1.3,2.2,1.4,3.4,1.9
		c0.3,1.5,0.6,2.8,0.8,3.9c-0.9,1.6-2.4,0.8-3.4,1.3c0,0.4,0,0.7,0,1.3c-1-0.2-2-0.5-2.7-0.7c-1.5,0.5-2,1.7-2.8,2.6
		c-1.3,1.5-2.4,3.2-4,4.4c-1.9,1.5-3.3,3.3-4.5,5.4c-1.5,2.6-3.3,5-5,7.5c-0.4,0.6-0.9,1.2-2.3,0.5c1.2-1.1,0.3-2.4,0.3-3.7
		c-0.1-1.8-0.1-3.5-0.1-5.3c0-1.1-0.5-1.9-1.5-2.4c-0.6-0.3-1.3,0.2-1.4,0.8c-0.1,1.2,0.3,2.2,1,3.1c0.4,0.6,0.9,1.2,1.3,1.7
		c-0.8,2.1-1.6,4.1-2.3,6.1c-0.6,0-1.1,0-1.5,0c-0.4,0-0.9-0.6-1.4,0.1c0,1.5,0.2,2.9,2.3,3.1c0.2,0,0.4,0.6,0.6,1.1
		c-0.8,0.3-1.5,0.5-2.2,0.8c-1.6,3.9-4.3,7.2-6.6,10.7c-0.6,0.9-1.5,1.7-2.6,2.1c-1.2,0.4-2.2,1.2-3.3,1.8c-0.1,0.8-0.2,1.4-0.3,2.2
		c1.2,1,2.4,2.1,3.6,3.1c1.2,0.9,2.4,1.8,3.7,2.6c4.8,3.4,8.6,7.7,11.4,12.8c2,3.5,3.5,7.2,4.6,11.1c1.2,4.5,2.4,8.9,3.6,13.4
		c0.1,0.5-0.1,1.3,0.8,1.5c2-1.3,3.2-3.9,5.6-4.6c0.8,0.6,0.7,1.2,0.3,1.7c-2.3,2.9-4.6,5.9-7,8.8c-2.1,2.5-4.3,4.9-6.5,7.2
		c-2.5,2.6-4.8,5.5-8.5,6.5c-0.7,0.2-1.3,0.7-1.9,1.2c-2.2,1.5-4.3,3-6.5,4.5c-0.9,0.6-1.9,1.2-2.9,1.8c-1.1,0.6-2.2,1.2-3.2,1.9
		c-6.1,4.8-12,9.9-17.2,15.6c-0.3,0.3-0.8,0.6-1.1,0.9c-0.2-0.2-0.3-0.3-0.3-0.4c0-0.2-0.1-0.5-0.1-0.7c2.1-6.5,5.8-11.9,11.9-15.4
		c2.9-1.7,5.9-3.3,8.9-4.9c1.2-0.7,2.5-1.2,3.3-2.8c-0.1-1.9-0.2-4.2-0.4-6.4c-0.2-2.3-1.9-4.3-2.1-7c1.1,0.5,1.8,0.8,2.6,1.1
		c0.7-0.6-0.2-2.3,1.7-2.1c0.9,2.2,0.3,4.6,0.9,6.9c0.6,2.5-1.5,4.8-0.2,7.5c0.9-0.2,1.9-0.4,2.8-0.7c0.4-0.2,1.1-0.6,1.1-0.9
		c0.1-1.6,1.4-2.3,2.1-3.4c1.8-2.8,3.1-5.7,3.3-9.1c0.4-4.6,0.4-9.2,0.1-13.9c-0.7-13.1-7.1-23.2-16.4-31.9c-1-1-2.3-1.5-3.7-1.7
		c-2.7-0.4-5.5-0.8-8.2-1.3c-1.2-0.2-2.2-0.3-3.3,0.1c-3.6,1.4-7.2,2.8-10.8,4.3c-1,0.4-1.9,1.2-2.6,2.1c-1.4,1.8-2.7,3.6-3.7,5.6
		c-1.3,2.6-2.2,5.3-3.2,8c-0.6,1.8-1,3.6-2.8,4.7c-0.4,0.2-0.6,0.8-0.8,1.2c-1.1,1.9-2.3,3.9-3.4,5.8c-2.2,3.8-3.8,7.9-4.9,11.3
		c0.2,1.8,0.6,2.9,0.5,4c-0.4,5.2,2,9.4,4.8,13.4c1.7-0.8,2.4-2,2.6-3.6c0.2-1.5,0.5-2.9,0.7-4c-1.3-2.7-2.4-5.1-3.5-7.5
		c-0.2-0.5-0.5-1.2,0.5-1.6c1.6,2.2,2.9,4.7,4.2,7.1c0.2,0.3,0.3,0.8,0.2,1.1c-0.7,2.1-0.1,4.2-0.5,6.3c-0.7,4.1-1.3,8.2-1.8,12.2
		c-0.2,1.8-0.3,3.8,0,5.6c0.7,3.9,1.7,7.8,2.7,11.7c0.9,3.6,2,7.2,3,10.9c0.4,1.4,1,2.5,2,3.5c4.2,4.2,7.9,8.7,11.4,13.5
		c1.6,2.1,3.4,4,5.1,6c1.7,2.1,4.1,3.1,6.5,4.3c0.7-0.5,1.2-1.1,1.8-1.5c2.5-1.6,5.1-3.2,7.6-4.8c1.2-0.7,2.4-1.5,3.3-2.5
		c3-3.3,6.6-5.7,10.1-8.4c7-5.4,12.7-12,17.4-19.4c-0.4-2.4-0.5-2.4,0.3-4.5c3.3-9,7.4-17.5,11.7-26c0.7-1.3,1.3-2.7,1.9-4.1
		c0.1-0.1-0.2-0.4-0.3-0.6c-0.4,0-0.9,0-1.5,0.1c0.5-2.2,1.5-3.9,2.5-5.6c0.8-1.3,2-1.1,3.2-0.9c0.3-1.4,0.8-2.3,2.1-2.4
		c0.6-0.1,1.2-0.2,1.9-0.2c2.1-0.1,3.4-1,4.2-3c1-2.6,2.4-5,3.7-7.4c0.5-1,1.2-1.9,1.9-2.8c0.5-0.5,1.1-1,1.8-1.2
		c0.5-0.2,1.2,0,1.7,0.3c0.6,0.4,0.6,1.1,0.2,1.7c-0.6,1-1.4,1.8-1.9,2.8c-0.3,0.6-1.1,1.1-0.5,1.9c3.1,0.3,3.1,0.3,5.6-1.3
		c0.4-3.6-0.6-7.1-0.9-10.9c-2-0.4-2.2-2.2-2.9-3.6c-0.2-0.3-0.4-0.6-0.7-0.9c-1.1-0.3-2.2-0.5-3.4-0.8c0.2-1.5,0-2.8-1.6-3.3
		c-1.2,0.3-2.4,0.7-3.6,0.8c-2.5,0.3-4.9-0.3-7.2-1.5c-2.1-1.2-3.7-0.8-4.7,1.2c-1.1,2.1-2.4,4-3.1,6.3c-1,3.2-2.4,6.3-3.7,9.4
		c-0.2,0.4-0.6,0.7-1.2,1.3c-0.2-0.9-0.5-1.3-0.4-1.7c0.3-1.1,0.7-2.1,1.1-3.2c1.5-3.8,3-7.7,4.4-11.5c0-0.1-0.5-0.4-0.8-0.8
		c-0.6,2.3-1.9,4.2-3.2,6c-1.5,2.1-2.8,4.2-2.8,6.8c0,0.4-0.4,0.9-1,0.5c-0.1-0.1-0.2-0.2-0.2-0.3c0.6-2.4,0.3-5,1.9-7.1
		c0.2-0.3,0.3-0.7,0.4-1.1c0.3-1.9,0.6-3.9,0.9-5.8c-3.5-1.4-3.7-1.5-6.3-4.9c-1.1-1.4-2-2.9-3-4.3l-0.1,0.1c1.1,0,1.9,0.7,2.5,1.5
		c1.7,2.3,4.1,3.4,6.6,4.6c2.2,1.1,4.6,1.1,6.9,1.7c0.9,0.2,2-0.7,3.1-0.9c1.3-0.3,2.7-0.4,4.2-0.6c1.1-1.8,2.2-3.8,3.6-5.6
		c2.7-3.6,4.4-7.5,5.5-11.8c0.7-2.9,1.7-5.7,3.6-8.2c0.5-0.6,0.8-1.6,0.8-2.4c0.2-2.3,1-4.3,1.9-7.1c0.7,2.4,0.5,4.1,0.2,5.8
		c-0.7,3.6-2.3,6.9-4.1,10.1c-0.8,1.6-1.5,3.1-1.9,4.8c-0.6,2.3-1.5,4.5-2.4,6.7c-0.3,0.8-0.9,1.5-1.5,2.1c-1.8,2.1-3.1,4.5-4.7,7
		c1,0.4,1.8,0.8,2.6,0.9c1.5,0.1,3,0,4.5-0.2c1-0.1,2.1-0.3,2.9,0.4c2.6,2.3,6.3,3.4,7.4,7.4c0.8-0.9,1.3-1.5,1.9-2.2
		c1.3-1.5,2.8-2.1,4.7-1.3c1,0.4,1.9,0.4,2.9,0.3c3.1-0.2,5.9,0.4,8.4,2.4c0.5,0.4,1,0.7,1.6,0.8c2.5,0.4,3.5,2.2,3.8,4.4
		c3.2,1.2,3.2,1.2,3.8,4.4c0.2,1,0.6,1.8,1.2,2.7c2.1,2.9,2.1,5.2-0.1,7.8c-1.3,1.5-2.1,3.1-2.5,5c-0.4,2.4-1.5,4.5-2.3,6.7
		c-0.6,1.7-1.5,3.1-3.1,4c-1,0.5-1.8,1.3-2.5,1.9c-0.1,4.6-0.4,9-1.8,13.2c-0.3,0.8-0.1,1.7-0.1,2.6c0,2.9,0,5.8,0,8.6
		c0,1.5,0.1,2.9,0.4,4.4c0.7,3.3,0,6.5-1.9,9.3c-0.7,1.2-1.4,2.4-2.1,3.5c-1.5,2.4-3,4.9-4.7,7.2c-2.3,3.2-4.9,6.3-7.2,9.6
		c-0.9,1.2-1.9,1.9-3.3,2.2c-1,0.2-2,0.3-3,0.2c-4.1-0.5-7.5-2.7-11-4.6c-0.3-0.2-0.6-0.5-0.8-0.8c-2-2.9-4.4-5.5-5.5-8.9
		c-0.5-1.4-1.1-2.8-1.7-4.2c-0.4-0.9-0.8-1.9-1.5-2.5c-1.4-1.2-2.3-2.6-2.9-4.3c-0.2-0.5-0.5-0.9-1.3-0.7c0,1.4,0.2,2.8,0.1,4.3
		c-0.4,4.7-0.8,9.5-1.5,14.2c-1.1,6.8-2.9,13.5-6.2,19.6c-1.8,3.4-3,6.9-3.9,10.5c-0.4,1.6-0.7,3.2-1.1,4.7c-1.1,4.5-2,9-4.1,13.3
		c-0.3,0.5-0.5,1.2-0.5,1.8c-0.1,3.1-1,5.9-2.2,8.7c-0.1,0.2,0,0.5,0.1,1c0.7,0.4,1.5,0.8,2.4,1.2c0,0.3,0.1,0.7,0.1,1.1
		c-0.1,0.5-0.2,1.1-0.5,1.4c-1.6,1.4-1.2,3.1-1.1,4.8c1.2,1.3,2.3,2.4,3.5,3.6c1.3,1.2,1.7,2.8,1.5,4.5c-0.1,0.9-0.3,1.7-0.5,2.6
		c-0.6,2.8-1.9,5.4-3.4,7.6c0.2,2.2,1.8,3.9,0.8,6c-0.6-0.3-1.2-0.6-2-1c0.2,0.7,0.3,1.3,0.5,1.5c0.5,0.3,1.2,0.4,1.7,0.7
		c4,2,5,6.6,2.2,10c-0.5,0.6-0.9,1.1-1.5,1.8c0.9,1.5,1.7,2.9,2.7,4.2c1.3,1.7,2.6,3.4,3.9,5c7.2,8.8,12,18.7,14.4,29.8
		c0.4,1.7,0.9,3.4,1.5,5c1.6,4.4,3.5,8.6,4.1,13.2c0.1,0.6,0.5,1.1,0.8,1.7c3.9,7.4,6.4,15.2,6.2,23.7c0,2.2,0.1,4.5,0.4,6.7
		c0.4,2.3,0.2,4.5-0.8,6.6c-2.8,6.2-5.6,12.3-8.4,18.5c-0.9,2-2.5,3.7-2.4,6.2c0,0.5-0.3,0.9-0.5,1.4c-3.2,8-6.4,16.1-9.6,24.1
		c-0.4,1-0.8,2.1-1.2,3.2c-0.8,2.1-1.6,4.2-2.5,6.3c-2.9,6.4-6.2,12.6-8.8,19.1c-2.7,6.6-5.8,13-8.8,19.5c-0.7,1.5-1.2,3-1.5,4.6
		c-1,5.3-2,10.6-3.2,15.8c-0.8,3.7-1.4,7.3-1.3,11.1c0.1,3.9-0.4,7.8-0.6,11.6c-0.1,1.2-0.3,2.4,0.2,3.9c1.5-1,2.2-2.9,4.3-3.1
		c0.1,0.3,0.4,0.7,0.3,1c0,0.5-0.3,1-0.3,1.4c0,0.3,0.3,0.7,0.5,0.9c0.4,0.3,0.9,0.4,1.4,0.6c1.6,4.9,3.1,9.8,4.7,14.7
		c1.2,3.6,2.8,6.9,5.2,9.9c3.5,4.4,6.9,8.9,10.8,13c1.8,1.9,4,3.4,6.4,4.5c2.9,1.4,5.9,2.8,8.8,4.2c0.2,0.1,0.3,0.4,0.7,0.8
		c0.2,3.6-0.1,7.5,1.3,10.9c-0.7,1.3-1.6,1.9-2.7,2.3c-3.2,1.2-6.4,2.2-9.8,2.3c-2.9,0.1-5.8,0.3-8.6,0.4c-4.8,0.2-9.5,0.2-14.3,0.4
		c-2.8,0.1-5.1-1-6.7-3.4c-0.3-0.4-0.6-0.8-0.9-1.1c-1.2-0.3-2.3-0.6-3.4-1c-1.9-0.7-3.9-1.2-5.5-2.3c-3.2-2-6.2-4.2-9.2-6.5
		c-3-2.4-6-4.5-9.8-5.3c-1.9-0.4-3.6-1.2-5-2.5c-2.2-2.1-4.7-3.7-7.5-4.8c-1.7-0.7-3.3-1.7-5.1-2.4c-4.3-1.6-7-4.8-9.1-8.5
		c-1-1.8-0.9-2.6,0.4-4.1c0.8-0.9,1.8-1.7,2.7-2.6c0.6-0.6,1.3-1.1,2-1.6c0.1-0.6,0.3-1.1,0.3-1.6c0.3-2.5,1.3-4.4,3.2-6.2
		c1.9-1.8,3.5-3.9,5.2-5.9c0.3-0.4,0.5-0.9,0.7-1.3c0.9-1.9,1.8-3.9,2.6-5.8c0.5-1.1,0.8-2.3,1.3-3.5c0.2-0.6,0.4-1.1,0.7-1.8
		c0.7-0.1,1.3-0.2,1.9-0.2c0.7,0,1.4,0.2,2.1,0.3c0.2-1.8,0.4-3.4,0.7-5.2c-0.7-0.1-1.5-0.2-2.2-0.2c-4.8,0-9.2-1.4-13.1-4
		c-2.5-1.7-5.1-2.6-7.9-3.2c-3.4-0.7-6.9-1.3-10.4-1.6c-3.9-0.3-7.7-1-11.4-2.3c-4.1-1.5-7.6-3.7-9.8-7.6c-0.4-0.8-1.1-1.4-1.7-2
		c-0.5-0.6-1-1.1-1.5-1.7c-0.6-0.9-0.6-2,0.1-2.8c0.8-0.8,1.6-1.6,2.5-2.3c2.1-1.7,3.7-3.7,4.9-6.1c1-2,2.4-3.8,3.8-5.5
		c2.6-3.2,5.6-6.1,6.7-10.3c0.3-1,1-1.7,2.2-1.8c0.4,0,0.9-0.3,1.5-0.5c-0.1-3.7,1.7-6.6,3.3-9.5c1.8-3.3,3.5-6.6,5.3-10
		c0.8-1.6,1.7-3.1,1.8-4.9c0-0.5,0.3-1,0.6-1.3c1.6-2.2,2.2-4.7,2.2-7.4c0-1.8,0.3-3.5,1.2-5.1c0.3-0.5,0.4-1.2,0.6-1.8
		c-1.4-2.8-1.5-5.8-1.2-8.9c0.5-5.7,1.7-11.2,3.3-16.5c0.6-1.9,1.6-3.7,2.5-5.4c1-1.8,2.1-3.4,3.2-5.1c2.5-4.2,5.5-8.1,9.3-11.2
		c2.6-2.1,4.5-4.7,5.6-7.8c0.1-0.4,0.1-0.9,0.2-1.7c-3.2,1.2-6,2.2-8.7,3.5c-0.5,0.2-1.1,0.3-1.6,0.3c-1.1-1.8-2.1-3.4-3-5
		c-2.6-4.3-4.4-9-6.2-13.6c-1.5-3.8-1.8-7.8-1.9-11.8c-0.1-7.1-1.2-14-3.7-20.6c-0.8-2-1.2-4.1-1.1-6.3c0.2-2.7-0.7-5.2-1.4-7.7
		c-1-3.4-2.3-6.6-4.3-9.5c-0.4-0.6-0.7-1.3-1-2c-1.1-2.2-1.9-4.7-3.4-6.7c-1.9-2.7-2.8-5.6-3.4-8.7c-0.7-3.5-1.7-6.8-3.3-9.9
		c-1.5-2.9-2.1-6.1-2.1-9.4c-0.1-9.5,2.7-18.3,7.1-26.6c1-2,2.3-4,3.9-5.5c1.5-1.4,2.4-2.8,2.8-4.7c0.4-1.7,1.3-2.9,3.1-3.5
		c0.4-0.1,0.8-0.4,1-0.5c0.1-3.4,1.1-6.2,2.1-9c1.5-0.8,1.4-2.3,1.5-3.6c0.2-4,0.3-8,0.4-12c0-1-0.3-2-0.6-2.9
		c-0.5-2.3-1.1-4.6-1.5-7c-0.6-4.3-1.1-8.7-1.7-13c-0.4-3-1-5.9-1.5-8.9c0-0.2-0.2-0.3-0.3-0.5c-0.2,0.1-0.4,0.2-0.9,0.5
		c-0.7-1.9-1.6-3.6-1.7-5.6c-0.5-8.6-1-17.3-1.4-25.9c-0.2-4.9-0.2-9.8,1.3-14.5c1.1-3.3,2.1-6.7,3.4-9.9c1.2-2.9,2.7-5.6,4.4-8.3
		c1.6-2.4,3.5-4.5,5.4-6.9c0.2-4.5,1.9-8.7,4.2-12.6c1.7-2.8,3.6-5.5,6.7-6.8c0.7-0.3,1.3-0.8,1.9-1.3c2.8-2,5.8-3.5,9.1-4.4
		c5.4-1.4,10.9-2.8,16.4-4.1c4-1,7.5-2.7,9.5-6.7c0.2-0.4,0.5-0.9,0.7-1.4c-1.3-1.6-1.3-3.5-1.3-5.4c0-2.5,0-5-0.1-7.5
		c-0.1-2.1,0-4.2,0.5-6.3c0.8-3,1.3-6.1,0.8-9.3c-0.5-2.8,0.4-5.3,2.1-7.3c1.3-1.6,2.3-3.3,2.9-5.2c0.4-1.3,1-2.3,2.2-2.9
		c1.4-0.7,1.3-2.6,2.6-3.5c0.2-0.1-0.2-1-0.3-1.5c0.6-0.2,0.9-0.4,1.2-0.6c0.3,0.3,0.5,0.5,0.8,0.8c0.3,0.4,0.6,0.7,0.9,1.1
		c-0.5,1.1-2,1.3-2.5,2.6c5-0.8,5-0.8,7.9,1.2c0.5-0.5,0.9-1,1.4-1.4c-0.6-1.9-2-0.5-3.2-1.1c-0.4-0.7-0.9-1.7-1.5-2.7
		c-1.1,0.2-2,0.3-3,0.5c0-0.5-0.2-0.8-0.7-0.8c0.8-0.8,1.7-1.5,2.2-2.4c1-1.8,0.9-1.8,2.5-2.6c0.1-1.6-2.2-2.5-1.1-4.5
		c1,0.3,2,0.6,2.8,0.9c1,1.2,1.9,2.4,2.7,3.4c4.4,0.6,8.1-0.2,11.2-2.9c2,0.5,0.6,1.9,1,2.8c2.3,1.3,2.7-1.8,4.5-1.7
		c4,0.9,8.1,1.7,12.1,2.6c0.9,0.2,1.7,0.9,2.6,1.4c0.5-0.1,1.1-0.4,1.7-0.4c0.5-0.1,1,0.1,1.5,0.1c0.7,0,1.5,0.1,2.2,0
		c1.9-0.4,3.7,0,5.5,0.8c-0.1,0.6-0.1,1.2-0.2,1.9c2-0.5,3.7-1.6,5.1-2.8c1.1,0.3,1.5,1,1.1,1.8c-0.4,0.9-0.4,1.9-0.5,2.9
		c-0.1,0.9-1,1.7-0.7,3c1.7-1.2,3.5-1.5,5.3-0.8c0.3,0.7,0.7,1.2,0.4,1.8c-1.2,1.3-3.3,0.5-4.3,2.1c1.5,0.8,2.7-0.1,4.1-0.6
		c0.6,0.9,1,1.8,1.5,2.5c-1.2,1.8-1.2,4-3.6,5.1c-2.5,0.3-5.2,1-7.4,3.1c-0.3,2.3-0.8,4.5-0.9,6.7c-0.1,2.6-1.2,5.2-0.1,7.8
		c0.2,0.5,0,1.3-0.2,1.8c-1.3,2.7-2.5,5.4-4.3,8c-1.3,0-2.6,0.1-3.8,0c-1.2-0.1-2.3-0.5-3.6-0.7c-0.5,1.2-1,2.3-1.5,3.4
		c-1-0.9-0.2-1.7-0.2-2.5c0-2.7,1.6-4.3,3.9-5.5c0.7-0.3,1.4-0.5,2.1-0.6c1.5-0.3,3-0.5,4.4-0.8c0.2,0,0.4-0.2,0.8-0.4
		c0.3-0.6,0.7-1.4,1-2.2c-1.9-4.7-0.1-9.4,0.1-13.9c-0.3-0.2-0.4-0.3-0.5-0.3c-0.4,0-0.8-0.1-1.1,0c-2.6,0.7-4.9-0.1-7.2-1.3
		c-0.8-0.4-1.6-1.1-2.4-1c-2.3,0.3-4-1.2-5.4-1.7c-2,0-3.5,0-4.9,0c-0.3,0.7-0.5,1.3-1,2.5c-0.4-1.4-0.5-2.4-1-3.1
		c-0.5-0.8-1.4-1.4-2.1-2.1c-0.7-0.7-1.5-1.3-2.4-2.1c-0.6,0.6-1,1.1-1.5,1.6C266.4,20.1,266,20.1,265.7,20.3z M254.9,27.8
		c0.5,0.5,0.4-0.1,0.4-0.3c0.1-0.1,0.2-0.2,0.3-0.3c-0.1,0-0.2,0.1-0.2,0.1c0,0.1,0,0.2,0,0.3C255.3,27.7,255.1,27.7,254.9,27.8z
		 M248.4,28.5c0.1,0,0.1-0.1,0.2-0.1l0.1-0.1l-0.1,0.2C248.6,28.5,248.5,28.5,248.4,28.5z M275.2,11.6c-0.1,0.1-0.1,0.2-0.2,0.3
		c0,0-0.2,0.1-0.2,0.1l0.1-0.1C275.1,11.7,275.2,11.6,275.2,11.6z M280.4,19.4l-0.2-0.2c-0.1-0.3-0.2-0.7-0.4-1
		c-0.1-0.2-0.4-0.3-0.6-0.3c-0.1,0-0.4,0.3-0.3,0.5c0,0.2,0.2,0.5,0.4,0.6c0.3,0.1,0.7,0.1,1.1,0.1L280.4,19.4z M249.2,42
		c1.4-0.3,1.4-0.3,1.5-1.7l0.3,0l-0.2,0C250.3,40.7,249.8,41.3,249.2,42z M290.1,47.8c1.6,0.9,1.6,0.9,2.6,0.3
		C291.8,47.3,290.9,47.8,290.1,47.8C290,47.9,290,47.9,290.1,47.8z M231.7,241.6c0.6,1,1.3,1.8,2.6,1.9c0.4,1.1,1.5,1.4,2.5,1.9
		c0.7-0.6,0.3-1-0.2-1.4c-0.7-0.6-1.5-0.6-2.4-0.4C234,242.1,232.9,241.7,231.7,241.6z M286.3,23.1l-0.2-0.1
		c-1.2-1.8-1.3-1.8-3.4-2.6c1.2,1.6,1.2,1.6,3.5,2.5L286.3,23.1z M234.4,399.9c0.3-0.4,0.5-0.9,0.6-1.3c0.3-1.3,0.4-2.7,0.7-4.1
		c-1.3,0.9-2.5,2.1-3,3.2c-1,2.1-1.9,4.3-2.7,6.5c-0.1,0.3,0,0.7,0.1,1.1c-0.2,0.1-0.3,0.1-0.5,0.2c0.1,0,0.1,0,0.2,0
		c0.1-0.1,0.1-0.2,0.2-0.3C231.8,403.8,232.9,401.7,234.4,399.9z M201,455.2c-1.1,2.2-1.6,4.4-1.9,6.8c-0.4,3.3-1.1,6.7-1.6,10
		c-0.1,0.7-0.5,1.4-0.3,2.6c0.8-1,1.3-1.6,1.9-2.4c0.9,0.1,2,0.1,2.9,0.2c0.3,0.4,0.6,0.5,0.7,0.7c1.5,5,2.6,10.1,3,15.4
		c0.1,0.7,0.2,1.5,0.4,2.2c0.4,1.1,0.8,2.1,1.3,3.1c0.1,0.3,0.5,0.5,1,0.9c0.1-0.7,0.2-1.1,0.3-1.5c0.4-4.5,0.9-9,1.3-13.4
		c0.2-2.6,0.4-5.2,0.6-7.8c0.8-8.6,1.4-17.2,1.8-25.8c0.2-4.1-0.5-8.2-0.8-12.3c0.1,0,0.2,0,0.3,0c-0.1,0-0.2,0.1-0.2,0.1
		C208.1,440.9,204.6,448,201,455.2z M312.8,124.2c-0.5-0.3-1.2-0.3-1.8-0.4c-1.3-0.3-1.9-1.1-2-2.3c-0.3-3.1,0.1-6.2,0.7-9.5
		c2.3-1.7,5-2.6,7.8-3.3c0.4-0.1,0.8,0.2,1.6,0.3c-1.2,1.3-2.6,1.6-3.8,2.2c-1.2,0.6-2.5,1.2-3.9,1.8c0.3,0.7,0.6,1.4,0.8,2.1
		c-1.9,2.1-0.6,4.7-0.9,6.9c2.4,1.1,2.4,1.1,4.4-1.2c-0.3-0.9-0.6-1.8-1-2.8c2.4-1.3,4.1-3.8,7.3-3.4c1.1-1.7,1.1-1.7,1.3-4.7
		c-0.5-0.4-1.3-1-2.1-1.6c-0.3-1.5-0.6-2.9-0.9-4.3c-1.2-0.4-2.2-0.8-3.3-1.3c-0.2-1.2-0.4-2.3-0.6-3.5c-0.7-0.2-1.4-0.3-2.1-0.5
		c-0.7-0.2-1.5-0.5-2-0.9c-3-2.7-6.2-3-9.7-1.2c-1.6,0.8-3.1,1.6-4.7,2.4c-0.3,3.8,1.4,7.4,0.4,11.2c-1.3,0.9-2.5,1.7-3.6,2.4
		c-0.3,1.4-0.5,2.6-0.7,4.1c1.3,1.7,2.6,3.5,4,5.3c1.1,1.4,1.9,2.9,1.4,4.8c-0.3,1.2-0.3,2.4,0.5,3.6c0.4,0.5,0.4,1.4,0.2,2.1
		c-0.2,1.2-0.5,2.4-1,3.6c-0.9,2.3-2,4.6-2.8,7c-0.9,2.7-2.6,4.6-4.9,5.9c-2.5,1.4-4.5,3.2-6.2,5.3c-2.1,2.5-4.1,5.1-6.1,7.6
		c-0.7,0.8-1.1,2-2.6,2.3c0.1-0.7,0.1-1.4,0.4-1.8c3.1-5.9,7.1-11,12.8-14.4c1.7-1,2.8-2.1,3.5-4.1c1.1-3.3,2.5-6.6,4-9.7
		c1.4-3,1-5.9,0.3-8.8c-0.3-1.1-1.3-2.1-2.1-3c-0.9-1-2-1.9-3.1-2.8c-1.2-1.1-1.8-2.4-1.5-4c0.1-0.5,0-1,0-1.6
		c-0.7-0.2-1.4-0.5-1.9-0.7c-1.4,0.7-1.6,1.7-1.7,2.9c-0.2,2.1-0.4,4.2-0.7,6.7c0.3,0.5,0.8,1.4,1.4,2.2c2.8,4.5,4.7,9.4,4.8,14.8
		c0,0.6-0.1,1.2-0.2,1.9c0,0.2-0.3,0.4-0.7,0.7c-0.3-0.7-0.7-1.3-0.8-2c-1.4-5.3-3.2-10.6-6.2-15.2c-1.2-1.9-0.7-3.8-0.3-5.8
		c-0.9-0.4-1.2,0.6-1.9,0.8c-0.7,0.2-1.4,0.4-2.1,0.7c-0.5,1.6-0.6,2.9,1,4c0.5,0.3,0.6,1.3,0.8,2.1c1.8,9.2,0.6,17.9-4.1,26.1
		c-1,1.7-1.7,3.6-2.7,5.3c-1.2,1.9-2.6,3.7-4,5.5c-0.8,1-1.7,1.8-2.7,2.8c0.5,1.2,0.7,2.6,1.8,3.5c1.8,1.5,2.7,3.6,3.5,5.7
		c0.4,1,0.9,2.1,1.2,3.2c0.9,3,3,5.2,4.6,7.7c0.4,0.6,1.2,0.9,1.8,1.3c1.7,1,3.5,1.7,5.2,3c1.6,1.2,3.7,1.4,6,0.7
		c0.7-0.8,1.5-1.7,2.3-2.7c1.9-2.3,3.9-4.6,5.8-6.9c2.2-2.6,4.2-5.4,5.7-8.4c1.4-2.8,2.1-5.9,2.2-9.1c0-1.6,0-3.2,0.5-4.8
		c0.3-1,0.2-2.2,0.1-3.4c-0.2-5.9,0.4-11.7,1.2-17.6c0.2-1.3,0.1-2.7,0.1-4.1c0-1.3,0.2-2.6,1.4-3.3c2.4-1.4,3.8-3.6,4.5-6.2
		c0.2-0.8,0.6-1.6,0.9-2.4c0.2-0.1,0.4-0.1,0.5-0.2c-0.1-0.1-0.2-0.2-0.3-0.3c-0.1,0.2-0.1,0.4-0.2,0.6
		C316.4,124.4,314.8,125.2,312.8,124.2z M226.1,371.2c1.2,1.6,2.1,3.4,4.1,4.3c0.6,0.3,1.1,1,1.6,1.5c2.5,2.9,5.1,5.9,7.6,8.8
		c0.3,0.4,0.5,0.8,0.9,1.5c-0.3,0.6-0.7,1.2-1.2,2c1,4.4-0.7,8.4-3.4,12c-3.1,4.2-5.8,8.7-9.1,12.8c-3.8,4.8-6.9,10.1-9.9,15.5
		c-1.2,2.1-1.5,4.5-1.7,6.9c-0.2,2-0.2,4-0.2,6c-0.1,5-0.1,10-0.7,15c-0.2,2-0.2,4-0.2,6c0.1,6.4-0.5,12.7-1.2,19.1
		c-0.6,5.1-0.8,10.2-1.1,15.4c-0.2,3.9-0.7,7.6-2.1,11.4c-1.1,3-1.6,6.3-2.2,9.5c-0.4,2-0.6,4-0.8,5.9c-0.2,1.5-0.4,3-1.7,4
		c0-0.1,0-0.2,0-0.3c0,0.1,0.1,0.2,0.1,0.2c0.2,0.9,0.3,1.7,0.5,2.6c1,0.3,2,0.5,2.8,1c0.8,0.4,1.4,1.1,2,1.6
		c1.9,1.6,4.1,2.4,6.5,2.5c1.9,0.1,3.8,0.1,5.6,0.2c1.6,0.1,3.2,0.3,4.8,0.4c1,0,1.9-0.1,3-0.2c0.1-0.7,0.2-1.1,0.3-1.6
		c0.3-3.1,0.5-6.2,0.7-9.4c0-0.5,0-1.1-0.3-1.4c-1.3-1.5-0.9-3.3-0.8-5c0.4-5.3,1.6-10.4,2.7-15.5c0.6-2.7,1.1-5.4,1.4-8.1
		c0.5-4.1,1.7-8.1,3.5-11.8c4-8.2,8.1-16.4,12.1-24.6c2-4,4.2-8,5.5-12.3c0.7-2.1,1.7-4.2,2.6-6.2c3.3-8,6.5-16,9.8-24
		c0.1-0.3,0.1-0.7,0.1-1.3c-0.6,0.1-1,0.1-1.5,0.2c-1.2,1.3-0.8,3.4-2,4.5c-0.9-0.1-1-0.7-1-1.1c0.1-0.9,0.2-1.7,0.4-2.6
		c0.4-1.7,0.9-3.4,1.4-5.1c0.1-0.4,0.5-0.8,1-1.7c0.2,1.5,0.4,2.4,0.6,3.7c0.6-0.8,1.1-1.4,1.4-2c2.3-4.3,4.5-8.7,6.7-13
		c2-3.9,3.9-7.8,6-11.7c0.6-1.1,0.8-2.1,0.5-3.2c-0.7-2.6-0.7-5.2-0.7-7.8c0-1-0.2-2-0.4-2.9c-1.5-5.7-3-11.4-5.1-16.9
		c-0.7-1.7-1.1-3.5-1.8-5.6c-10.9,5.9-22.7,9-34.3,12.7c-0.1,1.8,2,2.9,0.8,4.7c-1.7-0.7-1.8-2.8-3.5-3.7c-0.7,0.2-1.5,0.4-2.3,0.6
		c-3.1,0.9-6.2,1.9-9.3,2.9c-0.4,0.1-0.7,0.5-1.1,0.8c-0.4,0-0.8,0-1.5,0c0.8,0.7,1.1,0.2,1.4-0.1
		C224.6,369.3,225.4,370.2,226.1,371.2z M237.3,247.9c-1.7-1.5-3.4-2.9-5.3-4.5c-1.6,1.6-3.6,1.3-5.5,1.1c-2.3-0.3-4.7-0.7-7-1.2
		c-2.2-0.4-4.4-1-6.6-1.5c-0.4-0.1-0.7-0.5-1.2-0.9c2.5-0.9,4.8,0,7.2-0.1c0.6-1.3,1.3-2.6,1.9-3.9c-3.1-2.2-8.8-4-18-6
		c-0.5,1-0.2,2.1-0.3,3.2c1.5,0.9,2.6,0.6,3.2-1.3c0.9,1.2,1.5,2,2.1,2.9c-1,0.5-1.9,0.7-3.1,0.4c-4.8-1.1-9.5-2.4-14.1-3.8
		c-3.1-0.9-6.4-1.2-9.6,0.2c-0.5,0.2-1.1-0.1-1.9-0.2c0.6-0.8,1.1-1.3,1.4-1.9c0.3-0.7,0.4-1.4,0.6-2.2c-1-0.7-2-1.4-3-2.1
		c-0.9,0-1.4,0.6-1.6,1.3c-0.6,1.9-1.2,3.8-1.8,5.7c-1,0.7-2.2,1-2.9,2.2c-3.6,6.4-6.4,13-7.4,20.3c-0.4,3-0.7,6-0.9,9
		c-0.1,1,0,2,0.9,2.7c0.4,0.3,0.7,1.1,0.7,1.6c0,3.1,0.9,5.9,1.6,8.8c0.6,2.4,1.2,4.9,1.8,7.3c0.3,1.2,0.6,2.5,1.2,3.5
		c2.1,3.6,3.4,7.5,5.3,11.1c0.5,0.9,0.9,1.8,1.5,2.6c1.1,1.7,2.2,3.3,2.4,5.4c0.1,0.9,0.7,1.9,1.1,2.8c1.1,2.4,1.8,5,1.6,7.6
		c-0.1,2.2,0.3,4.2,1.1,6.2c2,4.9,2.7,10.1,3.4,15.4c0.4,2.9,0.6,5.7,0.9,8.6c0.3,3,1,5.9,2.4,8.6c1.6,3.3,2.9,6.7,4.4,10
		c0.8,1.8,1.7,3.6,3.2,5.1c0.5-0.1,1,0,1.5-0.2c15.9-4.6,31.7-9.2,47.6-13.9c6.1-1.8,12.2-3.7,18.3-5.7c3-1,5.8-2.3,8.8-3.4
		c-0.1-0.8,0-1.4-0.2-2c-0.3-1.2-0.8-2.3-1.2-3.5c-4.4-14.3-10.2-28-19.2-40.1c-1.8-2.4-3.4-4.9-5-7.5c-1.2-2-1.1-2.1-1-4.8
		c1.3-0.7,2.7-1.6,3-3.3c0.1-0.6,0.2-1.2,0.2-1.9c-0.1-1.9-0.6-2.7-2.5-3.3c-3.6-1.3-3.9-1.8-3.3-5.4c0.2-1.3,0.6-2.6,0.9-4.1
		c-2.2-0.3-4.3-0.6-6.4-1c-8.6-1.3-16.9-3.5-25.1-6.4c-0.8-0.3-1.6-0.7-2.3-1.2c-0.3-0.2-0.4-1-0.3-1.3c0.1-0.4,0.7-0.9,1.1-0.9
		c1.1,0,2.2,0.2,3.3,0.5c4.3,1.2,8.6,2.5,13,3.6c5.9,1.5,11.9,2.7,18,4.1c1.4-2.4,2.1-4.9,2.9-7.4c0.3-1,0.1-2-0.6-2.8
		c-0.7-0.9-1.2-2-2.1-2.6c-1.9-1.4-2.6-3.3-2.6-5.5c-2.2-1.4-4.3-2.7-6.4-4.1L237.3,247.9z M199.3,227.1c5.5,1.1,11.1,2.1,16.4,4.1
		c5.1,1.9,10.2,4,15.6,6.1c0-2.3,0-4.5,0-6.6c0-2.1-0.1-4.2-0.2-6.6c0.5,0.4,0.9,0.6,1.1,0.9c1,1.5,1.2,3.3,1.2,5
		c0,2.6-0.1,5.2-0.2,8.1c3,1.4,5,4.8,8.8,5.7c2.3-1.7,3.1-4.2,3.3-6.8c0.1-2.7,1-5.1,1.8-7.6c2.1-6.6,4-13.2,6-19.7
		c0.4-1.3,0.8-2.6,1.3-3.9c0.3-0.7,0.5-1.6,1-2c1.5-1.1,1.8-2.7,2.2-4.2c2.3-8.6,4-17.3,4.7-26.2c0.1-1.2,0.2-2.5,0.6-3.7
		c0.6-1.9,0.2-3.4-1.4-4.4c0.1-1,0.8-1.3,1.3-1.2c1.9,0.5,3.7-0.2,5.5-0.5c1.1-0.2,1.9-0.8,1.8-2c-0.1-1,0.5-1.6,0.9-2.4
		c0.7-1.2,1.5-2.3,2.2-3.5c1-1.6,2-3.2,2.9-4.8c2.6-4.9,4.4-10.1,4.2-15.8c-0.1-2.5-0.1-5-0.1-7.3c-0.8-0.7-1.6-1-1.6-2
		c0-1.1-0.3-2.2-0.4-3.3c-2,1.1-2.1,1.1-1.7,2.7c0.2,0.9,0.2,1.7-0.3,2.5c-5.6,7.9-8.6,17.2-13.2,25.7c-0.3,0.6-0.6,1.4-0.6,2.1
		c0,2.1-0.7,3.9-1.6,5.8c-4.5,9.6-10.8,17.8-19.5,24c-4.6,3.3-9.3,6.3-13.4,10.2c-0.9,0.8-2.1,1.4-3.1,2.1c-1.4,1-2.8,2-4.1,3.2
		c-0.6,0.5-0.7,1.4-1.1,2.2c-0.2-0.4-0.4-0.7-0.6-1c-0.5-0.3-0.9,0.1-1.4,0.2c-1.2,0.3-2.3,0.1-3.1-0.8c-3.5-3.3-7.1-6.3-10-10.2
		c-2-2.7-4.1-5.4-6.2-8c-1.4-1.8-2.7-3.6-4.8-4.7c-0.6-0.3-1.1-1-1.5-1.6c-2.2-3.4-4.3-6.8-5.5-10.7c-1.2-4-2.4-7.9-3.2-11.9
		c-0.9-4.5-0.5-9,0.1-13.5c0.1-0.6,0.2-1.2,0.3-1.8c-1.6-2.2-3.2-4.3-4.5-6.6c-1.3-2.1-2.2-4.5-3.3-6.8c-0.6,0.3-0.7,0.9-0.3,1.6
		c0.5,0.8,0.7,1.6,0.8,2.5c0.4,6.7,0.9,13.5,1.3,20.2c0.1,1.5,0.2,3,0,4.5c-0.4,4.5,0.7,8.7,2.1,12.9c1.6,4.5,2.6,9.2,3.2,13.9
		c0.9,6.7,1.5,13.4,2.1,20.2c0.6,6.4-0.1,12.8-1.6,19c-0.3,1.2-0.6,2.4-1,4.1C188.5,225.2,193.9,226,199.3,227.1z M207.8,371.2
		c-0.3,1.1-0.5,1.9-0.7,2.8c-0.6,2.1-1.4,4-2.7,5.7c-2.7,3.3-5.3,6.7-8.1,9.9c-1.9,2.2-3.7,4.4-5,7c-0.4,0.8-0.8,1.6-1.3,2.3
		c-2.1,2.9-3,6.3-3.6,9.8c-0.5,2.8-1,5.7-1.4,8.5c-0.2,1-0.3,2-0.2,3c0.6,4.2-0.1,8.3-0.9,12.3c-0.7,3.3-1.6,6.6-2.5,9.8
		c-0.5,1.8-1,3.6-2.3,5.1c-0.4,0.4-0.6,1.1-0.8,1.7c-2.1,5.4-4.2,10.7-6.3,16.1c-0.4,1-0.7,2.1-1,3.2c-0.1,0.6,0.1,0.7,1.5,1.4
		c1.1-3.2,2.3-6.3,4.9-8.7c0.2-0.2,0.7-0.2,1.2-0.3c0.3,1.5-0.7,2.4-1.2,3.4c-0.5,1-1.1,2-1.6,3c-0.5,1.1-1,2.3-1.5,3.5
		c4.8,3.2,9.7,4.3,15.1,2.7c1-0.3,1.7-0.2,2.3,0.6c0.1,1-0.7,1.3-1.3,1.6c-4,1.5-8.1,1.7-12.1,0.2c-1.8-0.7-3.4-1.5-5.1-2.3
		c-0.4-0.2-0.9-0.3-1.6-0.6c-0.3,2.1-0.3,3.7,1.6,5.1c0.8,0.6,1.3,1.8,1.7,2.8c0.7,1.6,2,2.3,3.6,2c1.9-0.4,3.9-0.9,5.7-1.8
		c3.4-1.6,6.6-3.5,10-5.3c0.6-2.5,1.3-5.1,1.9-7.6c0.2-1.1,0.2-2.2,0.1-3.3c-0.2-1.6,0-3.2,0.3-4.8c0.9-4.1,2.5-7.9,4.5-11.5
		c0.9-1.8,1.6-3.7,2.6-5.4c2.1-3.7,4.3-7.4,6.6-10.9c1.9-2.9,4.1-5.7,5.7-8.8c1.5-2.9,3.7-5.3,6.1-7.6c1.4-1.3,2.3-2.8,2.9-4.7
		c1-3.2,2.6-6.2,4-9.3c0.5-1.2,1.3-2.4,1.5-3.8c0.1-0.7,0.6-1.3,1-1.9c1.5-2.3,3.1-4.5,4.8-7c-0.4-1.4-0.8-2.8-1.3-4.3
		c-0.4-1.1-1-2-2-2.7c-5-3.8-9.6-8.1-13.9-12.9C214.9,369.1,211.3,370,207.8,371.2z M274.1,582.6c-4.6-2.3-9.2-4.2-13.2-7.2
		c-1.1-0.8-2.4-0.5-3.3-0.9c-1.2-0.9-0.6-1.8-0.5-2.8c-1-1.2-2.2-2.5-3.4-3.8c-0.8,0.7-1.4,1.4-2.2,1.8c-0.6,0.4-1.3,0.7-2.1,0.8
		c-0.8,0.2-1.5-0.2-2-0.8c-0.5-0.7-0.5-1.4-0.1-2.1c0.5-0.9,1.2-1.6,2.2-2c0.5-0.2,1.1-0.4,1.9-0.6c-0.5-0.8-0.9-1.5-1.3-2.1
		c-0.3-0.4-0.5-0.8-0.8-1.3c-1.1,1-1.7,1.7-2.5,2.3c-0.9,0.6-1.9,1.2-2.9,1.7c-0.8,0.4-1.7,0.1-2-0.5c-0.3-0.7,0-1.3,0.5-1.6
		c0.9-0.7,1.9-1.3,2.8-1.8c0.9-0.5,1.8-0.8,2.9-1.2c-1-1.5-1.9-3-2.8-4.4c-0.9-0.2-1.2,0.5-1.6,0.9c-0.8,0.8-1.5,1.7-2.4,2.4
		c-0.7,0.5-1.6,0.8-2.4,1c-1.3,0.3-2.4-0.3-2.8-1.3c-0.4-0.9-0.1-2,0.8-2.7c1.1-0.8,2.3-1.5,3.5-2.1c1-0.5,2.1-0.8,3-1.1
		c0.1-0.4,0.3-0.7,0.2-0.9c-0.3-0.8-0.6-1.6-1-2.6c-1.2,0.8-2.2,1.5-3.3,2c-1,0.5-2.1,0.8-3.2,1c-0.9,0.2-1.7-0.3-2.2-1.1
		c-0.4-0.8-0.3-2,0.5-2.8c0.5-0.5,1.1-1,1.8-1.4c0.9-0.6,1.9-1.2,2.9-1.8c-0.1-2.5,0.9-5,0.1-7c-1.5-1.5-2.6-2.6-3.8-3.7
		c-1.1,0.5-1.1,0.5-0.6,2c-2.1,3.2-5,5.6-8.3,8c-1.9-0.9-3.9-0.6-5.8-0.4c-2.7,0.4-5.5,0.8-8.2,1.1c-1.3,0.2-2.7,0.2-4.1,0.2
		c-1.9-2.6-2.2-5.7-3.3-8.5c-1-2.7-2-5.4-1.7-8.4c-0.7-0.4-1.4-0.7-2.2-1.1c-1.1,2.7-2.1,5.3-3.2,7.8c-0.5,1.2-1.2,2.5-2,3.6
		c-2,2.6-4.1,5.1-6.2,7.5c-1,1.1-1.5,2.3-1.5,3.7c0,2.1-1,3.5-2.7,4.7c-1,0.7-2,1.4-2.6,2.6c1.3,3.8,4.3,5.7,7.6,7.3
		c2.6,1.2,5.2,2.4,7.8,3.7c1.4,0.8,2.8,1.7,4,2.7c1.7,1.5,3.5,2.8,5.8,3.3c3,0.8,5.5,2.3,7.9,4.2c3.1,2.5,6.3,5,9.4,7.4
		c2.2,1.7,4.7,2.8,7.3,3.7c3.1,1.1,6.1,2.2,9.2,3.3c0.8,0.3,1.7,0.4,2.5,0.4c6.8,0.1,13.5,0.1,20.3,0.1c2.9,0,5.7-0.7,8.5-1.2
		c0.3-0.1,0.6-0.4,0.8-0.5C274.3,589,274.2,585.8,274.1,582.6z M165.6,472.4c-0.8,2.5-2.2,4.8-3.6,7c-0.9,1.5-1.9,2.9-3.2,4.2
		c-1,1-2,2.3-2.5,3.7c-1.3,3.3-3.5,5.8-6.1,8c-0.3,0.2-0.5,0.5-0.9,1c0.5,1.1,1.6,1.8,2.3,2.7c0.8,0.9,1.7,1.9,2.5,2.8
		c3.7,3.9,8.5,5.1,13.5,5.7c5.6,0.6,11.2,1.4,16.6,2.8c1.6,0.4,3.1,1,4.4,2c4.6,3.5,9.7,5.5,15.4,6.4c2.3-3.8,4.6-14,4.3-18.8
		c-0.3-0.7-1.8-0.2-1.6-1.6c0.2-1.5-1.3-2.3-2-3.5c-1,0.2-1.8,0.6-2.6,0.6c-0.5,0-1.1-0.5-1.5-0.9c-0.5-0.6-0.2-1.3,0.3-1.7
		c0.8-0.6,1.6-1.1,2.5-1.7c-0.1-0.7-0.1-1.3-0.2-1.9c-0.3-0.1-0.6-0.2-0.7-0.1c-0.8,0.5-1.6,1.2-2.5,1.7c-0.7,0.5-1.7,0.3-2-0.3
		c-0.4-0.6-0.2-1.3,0.3-1.7c0.9-0.9,1.9-1.6,2.8-2.4c0.4-0.3,0.8-0.6,1.1-1c-0.5-3.7-1-7.4-1.5-11.1c-0.8,0.2-0.9,1.1-1.1,1.7
		c-0.8,1.9-2,3.5-3.7,4.7c-1.1,0.8-2.4,1.3-3.9,1.1c-2.5-0.2-5.4,0.3-7.6,1.4c-2.4,1.1-4.9,1.8-7.6,1.9c-2,0-3.4-0.7-4.3-2.4
		c-0.7-1.2-1.4-2.3-2.6-3.1c-0.7-0.6-1.1-1.6-1.4-2.6c-0.6-1.8-1.2-3.7-1.7-5.5C166.1,471.3,165.8,471.8,165.6,472.4z M219.1,71.6
		c2.2,0.4,4.2,0.7,6.3,1.1c1,0.2,1.9,0.6,2.2,1.8c0.3,1.1,1.2,1.6,1.9,2.2c3.2,2.8,6.1,5.9,8.6,9.4c4.9,7,7.3,14.8,7,23.3
		c-0.2,4.8-0.6,9.5-1,14.2c-0.1,1.5-0.7,2.9-1.1,4.3c-0.3,0.9-0.7,1.8-1.2,2.9c2.9-1.1,2.8-1.1,3.9-2.6c2.1-2.8,4.1-5.7,6.3-8.4
		c0.9-1.2,1.3-2.3,1.2-3.8c-0.4-3.9-1.4-7.6-2.8-11.3c-0.5-1.3-1.2-2.5-0.6-4c0.2-0.5-0.2-1.2-0.4-1.8c-1.7-3.5-3.4-7-5.3-10.4
		c-2.4-4.3-5.9-7.7-9.8-10.8c-0.8-0.6-1.6-1.2-2.4-1.9c-2-1.7-4.1-3.3-5-5.7C224,69.2,221.6,70.1,219.1,71.6z M212.4,543.4
		c3.1-0.4,6.2-1,9.3-1.1c2.5-0.1,4.8-0.7,6.9-2.2c-3.1-1-6.2-1.2-9.5-0.5c-3.6,0.7-7.2,0.1-10.4-2c-0.3-0.2-0.6-0.3-1.2-0.5
		c0,1.3,0.6,2.3,0.9,3.3c0.3,0.9,0.7,1.9,1.2,3.2C210.7,543.5,211.6,543.5,212.4,543.4z M240.6,40.1c-0.3-0.3-0.9-0.6-1.2-0.5
		c-0.5,0.2-1.1,0.6-1.3,1.1c-0.2,0.5-0.2,1.2-0.1,1.8c0.3,0.9,0.7,1.8,1.2,2.9c0.4-0.8,0.7-1.5,1.1-2c0.3-0.5,0.9-0.8,1.4-1.3
		C241.3,41.4,241,40.7,240.6,40.1z M189.6,228c-1.1-0.2-2-0.4-3.1-0.6c-0.4,1-0.8,1.9-1.3,3c1.4,0.1,2.5,0.2,3.8,0.3
		C189.2,229.7,189.4,229,189.6,228z M258.6,18c2,0,2.4-0.2,5.9-3.2C262.3,14.6,260.2,15.9,258.6,18z M195.6,232.8
		c0.6-0.8,1.3-1.6,1.8-2.3c-0.4-0.9-1.4-1.4-1.8-1c-0.8,0.7-1.5,1.5-2.4,2.4C194,232.2,194.7,232.4,195.6,232.8z M318.4,119
		c0.1,0.3,0.3,0.6,0.6,1.2c0.6-1.4,1.1-2.6,1.8-4c-3,1.3-3.1,1.3-3.6,3.2C317.6,119.2,318,119.1,318.4,119z M278.8,11.9
		c0.3,0.2,0.5,0.4,0.7,0.4c1.1-0.5,2.2-1,3.3-1.6c-0.6-1.6-1.8-0.8-2.9-1.1C279.4,10.6,279.1,11.2,278.8,11.9z M200.3,233.8
		c0.3-0.6,0.7-1.2,0.6-1.7c-0.1-0.6-0.7-1.2-1.3-2c-0.7,1.2-1.3,2.1-1.9,3.2C198.7,233.5,199.4,233.6,200.3,233.8z M221.5,240.8
		c1,1,1.7,1.1,2.1,0.4c0.4-0.6,0.7-1.3,0.8-2c0.1-0.5-0.4-1-0.9-2.3C222.5,238.7,222,239.8,221.5,240.8z M304.5,18.7
		c-0.5,0-0.9,0-1.6,0.1c0,1,0,1.8,0,2.6c1.5,0.1,1.9-1.1,3-2.2C305.1,18.9,304.8,18.7,304.5,18.7z M227.2,242.3
		c0.8-1.2,0.4-2.2-0.6-3.3c-1.2,0.8-1.2,2-1.3,3.7C226.2,242.6,226.9,242.7,227.2,242.3z M191.8,231.5c0.5-0.8,0.9-1.6,1.5-2.7
		c-0.8,0-1.3-0.3-1.6-0.1c-0.9,0.5-1.3,1.4-1.6,2.4C190.7,231.3,191.1,231.4,191.8,231.5z M246.2,26.3c-1.5,1.1-1.3,2.7-1.4,5.1
		c1-2,1.6-3.2,2.4-4.7C246.6,26.4,246.3,26.2,246.2,26.3z M263.2,26.2c-0.5-0.5-0.9-0.9-1.5-1.5c-0.5,1.1-0.9,2-1.3,2.9
		c0.1,0.2,0.3,0.3,0.4,0.5C261.5,27.5,262.3,26.9,263.2,26.2z M253.5,32.1c0.7-0.3,1.3-0.8,1.1-1.7c-0.1-0.2-0.7-0.3-0.9-0.3
		c-1.2,0.4-1.3,0.8-0.9,2.2C253,32.3,253.3,32.2,253.5,32.1z M299.8,11.4c0-0.2-0.1-0.6-0.3-0.6c-0.3,0-0.7,0-0.9,0.2
		c-0.4,0.6-0.7,1.2-1.3,2.3C299,12.8,299.8,12.5,299.8,11.4z M184.7,227.3c-0.5-0.2-0.8-0.3-1.4-0.5c-0.3,1.2-0.6,2.4-0.8,3.5
		c0.2,0.1,0.5,0.1,0.7,0.2C183.7,229.4,184.1,228.4,184.7,227.3z M260.6,8.4c1.5,0.5,2.9,0.8,3.7-1.2C262.8,6.8,261.8,7.8,260.6,8.4
		z M250.4,28.4c-0.5,0.6-0.9,1.1-1.4,1.7c1.2,0.6,1.9-0.6,2.9-0.7C251.5,29,251,28.7,250.4,28.4z M243.9,249.1
		c0.1-0.6,0.1-1.1,0.2-1.9c-0.8,0.4-1.3,0.7-2.3,1.2C242.9,248.8,243.3,248.9,243.9,249.1z M242.5,45.9c-0.2-0.1-0.4-0.3-0.6-0.2
		c-0.1,0.1-0.3,0.4-0.2,0.5c0.1,0.2,0.4,0.2,0.6,0.3C242.4,46.3,242.5,46.1,242.5,45.9z M273.6,6.2c0.2,0.2,0.5,0.4,0.7,0.6
		c0.1-0.1,0.2-0.2,0.2-0.3c-0.2-0.2-0.4-0.4-0.6-0.7C273.8,6,273.7,6.1,273.6,6.2z M254.6,6.2c0,0,0.3-0.2,0.5-0.3
		c-0.1-0.2-0.2-0.5-0.4-0.6c-0.1-0.1-0.4,0-0.7,0C254.2,5.7,254.3,6,254.6,6.2z M282.3,17.5c0,0-0.2-0.2-0.2-0.3
		c-0.2,0.3-0.5,0.5-0.7,0.8c0.1,0.1,0.2,0.1,0.4,0.3C281.9,18,282.1,17.7,282.3,17.5z M286,16.2c0.2,0,0.4-0.2,0.6-0.2
		c-0.1-0.1-0.2-0.4-0.3-0.4c-0.2,0-0.4,0.1-0.6,0.2C285.8,15.9,285.9,16.2,286,16.2z M229.6,240.6c-0.1,0-0.2,0.1-0.2,0.2
		c0.1,0.1,0.2,0.2,0.3,0.2c0.2,0,0.4-0.1,0.6-0.2C230,240.7,229.8,240.6,229.6,240.6z M259.4,13.1c-0.1,0.1-0.1,0.2-0.1,0.3
		c0.1,0,0.3,0,0.4,0c0-0.1-0.1-0.2-0.1-0.3C259.5,13.1,259.4,13.1,259.4,13.1z M293.2,24.9c-0.2-0.1-0.4-0.2-0.6-0.3
		c0,0-0.1,0.2-0.2,0.3c0.2,0.1,0.4,0.2,0.6,0.3C293,25.1,293.1,25,293.2,24.9z M287.8,12.3c0.1,0,0.2-0.1,0.2-0.2
		c-0.2-0.1-0.4-0.2-0.6-0.2c-0.1,0-0.1,0.2-0.2,0.3C287.4,12.2,287.6,12.3,287.8,12.3z M237.4,49.2c0,0.2,0.2,0.4,0.3,0.6
		c0.1-0.1,0.2-0.2,0.2-0.3c0-0.2-0.1-0.4-0.1-0.6C237.7,49,237.4,49.2,237.4,49.2z M239.2,246.2c0.2,0.1,0.4,0.2,0.6,0.2
		c0.1-0.2,0.2-0.4,0.1-0.5c-0.2-0.1-0.4-0.2-0.6-0.2C239.3,245.9,239.2,246.2,239.2,246.2z M248.2,45.1c0.1-0.2,0.2-0.4,0.3-0.6
		c0,0-0.2-0.1-0.3-0.2c-0.1,0.2-0.2,0.4-0.3,0.6C248,44.9,248.1,45,248.2,45.1z M239.1,24.8l0,0.2l0.2-0.1L239.1,24.8z M287.9,21.9
		c0.1,0.1,0.2,0.2,0.2,0.2c0.1,0,0.1-0.1,0.2-0.2c-0.1-0.1-0.2-0.1-0.2-0.2C288,21.8,288,21.9,287.9,21.9z"/>
	<path d="M597.3,279.2c0.7,0.9,0.8,2.2,2.1,2.5c0.4,0.1,0.9,0.5,1.1,0.9c1,2,2.6,3.3,4.5,4.1c0.7,1.4-0.1,2.4-0.5,3.4
		c-0.8,1.7-1.6,3.4-1.5,5.4c0,0.6,0.3,1.1,0.5,2.2c0.6-0.7,1-1,1.1-1.4c0.7-2,1.3-4,2-6.1c0.4-1.3,0.7-2.7,0.2-4.3
		c-0.9-0.9-2.1-1.8-3-3c-0.9-1.2-1.4-2.6-2.2-4.1c0.6-1.3,1.2-2.7,1.8-4c2.1-4.5,2.1-4.5,2-9.6c-2.3-1.8-3.8-4.3-5.4-6.9
		c-0.3-0.4-0.6-0.8-0.9-1.2c-0.6-0.6-1.5-0.8-2-0.4c-0.7,0.5-0.9,1.4-0.5,2c1.4,2.3,2.9,4.6,4.5,6.9c0.3,0.5,0.9,0.8,1.4,1.2
		c0,3.9-2.7,6.4-3.7,9.7c-5.3-0.9-10,0-14.7,1.4c-0.9,0.3-1.9,0.7-2.7,1.3c-0.4,0.3-0.5,1-0.9,1.6c2.2,0.6,3.9-0.6,5.7-0.5
		c1.9,0.1,3.7-0.4,5.6-0.6C593.6,279.4,595.5,279.3,597.3,279.2z"/>
	<path d="M567.1,271.8c-1,0.3-1.6-0.5-2.3-0.9c-2.5-1.6-5-3.3-7.5-4.9l0.1-0.1c0.1,0.3,0.1,0.7,0.3,0.9c3.3,3,6.7,6,10.1,9
		c1.5,1.3,1.5,1.3,4.5,1.8c-0.1-0.7,0-1.3-0.3-1.8c-1-1.9-2-3.8-3.3-5.4c-4.2-5.3-9.2-9.9-14.7-13.9c-2.2-1.6-4.6-3-7.3-3.7
		c-0.7-0.2-1.4-0.3-2,0.3c0.2,0.3,0.2,0.6,0.4,0.6c2.8,0.6,5,2.2,7.2,3.9c5.1,3.8,9.5,8.5,13.9,13.2c0.3,0.4,0.7,0.7,1,1.1
		C567.2,271.9,567.1,271.9,567.1,271.8z"/>
	<path d="M539.2,310.4c0.6,1.9,1.3,3.7,2,5.8c-2.6,0.1-4.8-0.9-7.1-1.3c-2.3-0.4-4.6-0.9-7-1.1c4.6,2.2,9.8,2.4,14.6,4.3
		c1.6,4.4,2.5,8.9,3.6,13.1c-0.7,0.9-1.3,0.5-1.8,0.3c-3.3-1.1-6.6-2.2-9.9-3.3c-0.7-0.2-1.4-0.3-2.1-0.3c2.2,1.7,4.8,2.4,7.3,3.4
		c2.4,0.9,4.9,1.7,7.1,2.4c1.3,1.5,0.9,3.5,2.4,4.4l-0.1,0.1c-0.1-1.1-0.2-2.2-0.3-3.5c0.5,0,1.1,0,1.7,0.1c1.8,0.5,3.6,1.1,5.3,1.7
		c0.7,0.2,1.4,0.4,2.3,0.3c-0.9-1.3-2.2-1.5-3.3-2c-1-0.4-2.1-0.7-3.2-1.1c-1.2-0.4-2.4-0.8-3.4-1.1c-1.3-3-3.2-10.2-3.7-13.7
		c0.8-0.7,1.7-0.2,2.5,0c3.7,1.2,7.3,2.5,11,3.6c0.8,0.3,1.7,0.4,2.5,0.5l-0.1,0.1c-0.9-1.3-2.4-1.7-3.7-2.2c-3-1.1-6.1-2-9.1-3
		c-1.2-0.4-2.4-0.7-3.8-1c-0.5-1-0.9-2.2-1.4-3.3c-0.6-1.2-0.8-2.6-2.2-3.2L539.2,310.4z"/>
	<path d="M610.3,51.6c-1.5-0.4-2.6-0.9-3.6-1c-1.1-0.1-2.2,0.2-3.4,0.2c-0.6,0-1.2-0.2-1.8-0.4c-1.1-0.3-1.9,0.1-2.9,1
		c3.5,1.5,7.1,2.5,10.9,2.9c0.6-0.5,1.3-1.2,2-1.8c1.1,0.1,2.2,0.1,3.2,0.2c0.6-2.6-0.5-4-2.6-4.9c-1.6-0.6-3.1-1.7-5-1.2
		c-0.1,0-0.3,0.1-0.4,0c-2.9-2.2-5.7-0.7-8.5,0.1c-0.2,0.1-0.3,0.3-0.5,0.5c0,0.8,0.6,0.6,1,0.6c0.5,0,1,0,1.5-0.2
		c1.6-0.7,3-0.7,4.5,0.6c0.7,0.6,1.8,0.8,2.7,1.1C608.5,49.7,609.3,50.3,610.3,51.6z"/>
	<path d="M279.8,44.9c-0.1-0.8-0.3-1.6-0.4-2.5c-1.9-1.7-4-2.6-6.5-2.9c-0.2,0-0.6,0.1-0.7,0c-1.3-0.8-2.8-1.2-4.3-0.9
		c-1.6,0.3-3.1,0.8-4.5,1.2c-0.1,1,0.5,1,0.9,0.9c1.2-0.2,2.4-0.6,3.8-0.9c1.9,1.7,4.6,2,6.6,3.8c-3.2-0.5-6.4-0.3-9.6-0.2
		c-0.2,0-0.3,0.3-0.5,0.5c1.9,1.4,2.5,1.6,9.9,3.1c0.6-0.6,1.3-1.2,1.9-1.7C277.7,44.9,278.8,46.3,279.8,44.9z"/>
	<path d="M233.9,119.2c1,0.3,1.4-0.1,1.7-0.7c1.3-2.3,2-4.8,2.3-7.5c0.4-4,0-8-0.9-11.9c-0.1-0.3-0.4-0.6-0.6-0.8
		c-0.8,0-0.7,0.7-0.7,1.1c0,1.4,0,2.7,0.1,4.1c0.2,5-0.5,10-1.9,14.8C233.8,118.4,233.9,118.7,233.9,119.2z"/>
	<path d="M553.2,248c0.7,0.5,1.4,1,2.2,1.4c5.8,2.6,11.7,5.1,17.5,7.6c1.6,0.7,3.2,1.5,5.2,0.6c-0.2-0.3-0.3-0.7-0.5-0.8
		c-6.5-2.6-13-5.1-19.5-7.7c-1.5-0.6-3-1.1-4.5-1.6C553.5,247.6,553.3,247.8,553.2,248z"/>
	<path d="M586.2,287.5c0.4,0.6,0.7,1.3,1.2,1.7c1.2,1.1,2.4,2.2,3.6,3.2c3.4,2.7,6.9,5.4,10.3,8.1c0.4,0.3,0.8,0.4,1.2,0.6
		c0.6-0.5,0.6-1,0.2-1.4c-0.9-1-1.7-2.2-2.8-3c-4-3.2-8.2-6.2-12.3-9.3c-0.3-0.2-0.7-0.3-1-0.4C586.6,287.3,586.4,287.4,586.2,287.5
		z"/>
	<path d="M588.9,257.3c1,0.3,1.7,0.4,2.4,0.6c0,0.2,0.1,0.4,0,0.6c-1.2,1.9-2.4,3.8-3.5,5.6c0.5,0.6,1,0.3,1.3-0.1
		c0.7-0.7,1.3-1.5,1.9-2.3c1.4-1.9,1.4-2,3.5-3.2c-0.1-0.5-0.3-0.9-0.4-1.5c1-1.4,3.2-2,3.4-4.3c-0.4-0.1-0.9-0.3-1-0.1
		c-2,1.6-4.1,2.9-6.4,3.8C589.7,256.6,589.4,256.9,588.9,257.3z"/>
	<path d="M221.7,80.6c0.4,0.5,0.6,0.8,0.7,0.8c3.7,0.7,6.1,3.2,8.2,6.1c1.1,1.5,2.1,3.1,3.5,5.2c0-1.2,0.1-1.7,0-2
		c-1.1-4-3.4-7.2-6.9-9.4C225.6,80.3,223.9,79.7,221.7,80.6z"/>
	<path d="M523.9,278.8c-4.7-2.8-14.3-3.9-19.7-2.6c1.2,0.8,1.2,0.8,4.8,0.9c1.6,0,3.3,0.1,4.9,0.3c1.7,0.2,3.5,0.5,5.2,0.7
		C520.8,278.3,522.3,278.5,523.9,278.8z"/>
	<path d="M513.2,247.1c0.3,0.4,0.4,0.5,0.4,0.5c4.7,0.6,9.3,1.2,14,1.8c0.5,0.1,1-0.1,1.5-0.1c-0.1-1.4-1.3-1.5-2.2-1.8
		C522.5,246.1,516.5,245.9,513.2,247.1z"/>
	<path d="M604.6,86.9c0.6,0.5,1.2,1.1,1.8,1.3c1.9,0.4,3.9,0.7,5.8,0.9c0.4,0,0.9-0.4,1.2-0.7c0.4-0.6,0.2-1.2-0.3-1.7
		c-1.4-1.4-3.1-2.1-5-2.2C606.5,84.3,605.5,85.4,604.6,86.9z"/>
	<path d="M269.9,78.2c0.7,0.5,1.1,1,1.7,1.1c1.8,0.4,3.7,0.6,5.5,0.9c0.6,0.1,1.3-0.2,1.4-0.9c0.1-0.4-0.1-1-0.4-1.3
		c-1.3-1.3-2.9-1.9-4.6-2.2C271.9,75.6,271,76.7,269.9,78.2z"/>
	<path d="M601.8,80.1c0.2,0.3,0.4,0.9,0.8,1c0.8,0.3,1.7,0.5,2.5,0.7c3.6,0.5,7.1,1.1,10.7,1.6c0.2,0,0.5,0.1,0.7,0
		c0.3-0.2,0.7-0.4,0.7-0.7c0-0.3-0.2-0.8-0.5-0.9c-0.8-0.3-1.7-0.5-2.5-0.7c-1.5-0.2-3-0.4-4.4-0.6c-1.9-0.2-3.7-0.3-5.5-1
		C603.5,79.2,602.6,79,601.8,80.1z"/>
	<path d="M186.7,106.2c-1.8,2.3-1.5,4.7-1.2,6.7c0.4,2.6,0.7,5.5,3.5,7.5c0-0.9,0.2-1.6,0.1-2.1c-1-3.1-1.6-6.3-1.8-9.6
		C187.4,108,187,107.3,186.7,106.2z"/>
	<path d="M546.7,242.7c0.1-0.9-0.5-1.4-1.1-1.7c-1.2-0.5-2.5-1-3.8-1.3c-3-0.6-5.6-1.8-7.9-3.8l0.1,0.1c-0.7-0.5-1.4-1.1-2.6-0.5
		c0.2,0.4,0.3,0.9,0.6,1.1c2.6,2.4,5.6,4,9.1,4.6C543,241.6,544.9,242.2,546.7,242.7C546.8,242.7,546.7,242.7,546.7,242.7z"/>
	<path d="M576.8,76.6c0.2-0.5,0.6-1.1,0.7-1.6c0.1-0.5,0-1-0.1-1.5c-0.7-3.4-0.7-6.9,0.5-10.1c-0.8-0.7-1.4-0.2-1.6,0.2
		c-1,2.7-2.1,5.3-1.3,8.3c0.4,1.5,0.7,3.1,1.1,4.6C576.3,76.6,576.5,76.6,576.8,76.6z"/>
	<path d="M282.1,73.6c-0.6-0.3-1.2-0.7-1.9-0.8c-1.8-0.3-3.7-0.6-5.6-0.7c-1.6-0.1-3.2-0.3-4.7-0.9c-0.5-0.2-1.2-0.2-1.8-0.2
		c-0.2,0-0.5,0.5-0.6,0.8c-0.1,0.2,0.1,0.6,0.3,0.6c1,0.4,2.1,0.8,3.2,1c3.3,0.5,6.6,1,10,1.5C281.6,74.9,282.1,74.5,282.1,73.6z"/>
	<path d="M658.8,103.6c-0.4-0.4-0.8-1-1.4-1.3c-3.4-1.5-7-2.5-10.8-2.8c-0.3,0-0.6,0.3-0.9,0.5C648.8,102.2,653.6,103.4,658.8,103.6
		L658.8,103.6z"/>
	<path d="M242.8,68.8c0.7-1.1,1.1-1.5,1.2-1.9c0.1-0.6,0-1.2-0.1-1.9c-0.6-4.8-0.6-5,0.4-9.3c-0.6-0.7-1.2-0.4-1.5,0.2
		c-1,2.2-1.7,4.4-1.3,6.9C241.8,64.5,242.2,66.2,242.8,68.8z"/>
	<path d="M534.6,259.3c-1.6-1.6-2.9-1.6-4.1-1.6c-5.8-0.4-9.2-0.2-11.5,0.7c0.3,0.3,0.5,0.7,0.7,0.7
		C524.4,259.4,529.2,259.3,534.6,259.3z"/>
	<path d="M237,164.6c-4,1.3-6.4,4.1-9.5,5.4c0.2,1,0.8,1.3,1.4,1.1c0.7-0.2,1.4-0.4,2.1-0.8C233.2,168.9,235.3,167.3,237,164.6z"/>
	<path d="M589.3,93.4c0-0.2,0-0.6-0.1-0.7c-2.7-2.5-5.2-5.2-8.3-7.8c0.7,2.5,1.1,3.3,3.1,5.3c1.4,1.4,2.6,3.1,4.7,3.5
		C588.9,93.7,589.1,93.5,589.3,93.4z"/>
	<path d="M611.7,74c0.8-0.2,1.6-0.5,2.4-0.5c0.7,0,1.4,0.5,2.1,0.7c0.5,0.1,1,0,1.5-0.1c0.3-0.1,0.6-0.5,0.7-0.8
		c0.1-0.3-0.1-0.9-0.3-0.9c-1.9-0.7-3.8-1.3-5.8-0.7C611.3,71.9,611.1,72.7,611.7,74z"/>
	<path d="M569.6,86.5c1,0,1.7-0.7,2.5-1.3c1.5-1.2,2.5-2.7,3.2-4.4c0.1-0.2-0.1-0.5-0.2-0.6c-0.1-0.1-0.4-0.1-0.6-0.2
		c-0.1,0-0.3,0-0.3,0.1c-1.7,1.7-3.5,3.5-4.7,5.6C569.2,85.9,569.5,86.2,569.6,86.5z"/>
	<path d="M220.5,168.2c-0.5,0.3-0.9,0.5-1.3,0.8c-2.8,2.6-2.8,2.6-5.9,3.2c0,0.2-0.1,0.5,0,0.6c1.3,1.1,2.8,1,4.2,0.4
		c0.7-0.3,1.3-1.1,1.9-1.8C220.1,170.5,220.1,170.4,220.5,168.2z"/>
	<path d="M557.4,79.1c0.7,0.9,1.5,0.7,2.1,0.3c2-1.2,4-2.4,5-4.8c-0.5-0.1-1-0.4-1.2-0.3C561.1,75.6,559,77.1,557.4,79.1z"/>
	<path d="M572.1,259.5c0.7,1,0.8,1.5,1.1,1.7c2.4,1.4,4.8,2.4,7.8,2.7C579.8,262.1,578.8,261.6,572.1,259.5z"/>
	<path d="M275.8,64.9c0.6,0.4,1,1,1.3,0.9c1.3-0.5,2.6-0.4,3.9,0.2c0.3,0.1,0.8,0.2,1.1,0c0.4-0.2,0.9-0.5,1-0.9
		c0.1-0.3-0.3-1.1-0.6-1.1c-1.7-0.2-3.4-0.4-5.1-0.4C276.9,63.6,276.5,64.3,275.8,64.9z"/>
	<path d="M529.2,282.4c0-0.8,0-1.7,0.1-2.5c0.1-3.4,0-6.7,0.7-10c0.3-1.2,0-2.5,0-4.1C528.5,272,528.3,275.5,529.2,282.4z"/>
	<path d="M717.3,77.2c-0.6-0.3-0.9-0.7-1.2-0.6c-1.5,0.2-4.1,1.8-5.6,3.2c0.9,0.7,1.9,0.5,2.7,0.2C714.7,79.4,716.4,79.1,717.3,77.2
		z"/>
	<path d="M254.7,89.6c0.6-2.9-0.3-5.3-2-7.8C252.1,84.1,252.2,84.3,254.7,89.6z"/>
	<path d="M209.6,162.5c-0.7,0.1-1,0.1-1.1,0.2c-1.1,2.2-1.4,5.5-1,9C209.3,168.8,208.4,165.6,209.6,162.5z"/>
	<path d="M573.5,288.9c-2.9-1.5-3.6-1.4-8.8,0c0.7,1,1.6,0.5,2.5,0.5c0.9,0,1.7,0,2.6-0.1C570.7,289.2,571.7,289.1,573.5,288.9z"/>
	<path d="M567.8,95.8c1,1.2,1.8,0.5,2.6,0.3c0.8-0.3,1.7-0.7,1.9-1.6c0.1-0.4-0.1-0.9-0.2-1.5C570.2,93.4,569,94.4,567.8,95.8z"/>
	<path d="M230,116.4c-0.9,1.5-1.8,3-2.6,4.5c-0.3,0.5-0.5,1.1-0.8,1.6c0.7,0.7,1,0.1,1.2-0.2C229.9,119.7,230.4,118.4,230,116.4z"/>
	<path d="M577.7,281.1c0.1-0.2,0.4-0.3,0.4-0.5c-0.3-2-0.6-3.9-0.9-5.9c0-0.2-0.4-0.2-0.6-0.4C575.9,276.7,576.3,278.8,577.7,281.1z
		"/>
	<path d="M681.6,77c-0.3-0.2-0.6-0.3-1.1-0.6c-0.9,1.5-2.5,2.5-3.1,4.5C679.8,80.1,680.1,79.8,681.6,77z"/>
	<path d="M588.9,254.3c2-2.2,2.3-3.2,1.5-5.2c-0.2,0.1-0.5,0.2-0.5,0.4c-0.4,1.5-0.9,3-1.3,4.5C588.7,254.1,588.8,254.2,588.9,254.3
		z"/>
	<path d="M283.4,96.6c1.4-0.5,2.8-1.1,3.7-2.6c-1.7-0.4-2.1-0.3-3.6,1C283,95.4,282.6,95.9,283.4,96.6z"/>
	<path d="M553.8,352.4c-0.4,2.7,0,4.9,0.8,7.1c0.1,0.2,0.4,0.3,0.6,0.4c0.1,0,0.2-0.1,0.5-0.3c-0.4-1.1-0.8-2.2-1.1-3.3
		C554.3,355.1,554.1,353.9,553.8,352.4z"/>
	<path d="M225.2,123.2c-0.5-0.8-1.1-0.2-1.5,0c-1.9,0.9-1.9,1-2.8,2.6C222.6,125.7,222.6,125.7,225.2,123.2z"/>
	<path d="M209.4,83c1.9,0.7,3.4,1.2,5.1,0.8C213,81.7,212.5,81.7,209.4,83z"/>
	<path d="M705.2,81.3c-2.3-0.4-2.3-0.4-3.5,1.7c0.7,0,1.3,0.2,1.8,0C704.3,82.7,705.2,82.4,705.2,81.3z"/>
	<path d="M658.8,103.5c0,0.1,0,0.3,0,0.4c1.3,1.4,2.8,1.4,4.5,0.7C662,103.2,662,103.2,658.8,103.5L658.8,103.5z"/>
	<path d="M194.2,125.9c-0.8-0.9-1.6-1.8-2.4-2.7c-0.8,0.8-1,1.3-0.5,1.6c0.9,0.5,1.8,1,2.7,1.5C194.1,126.1,194.1,126,194.2,125.9z"
		/>
	<path d="M227.7,160.7c-1.8,1.1-2.6,2.1-3.2,3.4C226.1,163.8,226.1,163.8,227.7,160.7z"/>
	<path d="M278.6,94c-1.7-0.4-2.7,0.1-3.4,1.6C276.9,96.2,277.8,95.4,278.6,94z"/>
	<path d="M279.1,101.5c-1,1.1-1.7,2-2.5,2.9c0.9,0.9,1.5,0.1,2-0.3C279.2,103.7,279.9,103,279.1,101.5z"/>
	<path d="M675.9,84.5c1.1-0.1,1.8-0.6,2.1-1.7C676.1,82.4,675.5,82.9,675.9,84.5z"/>
	<path d="M631.3,91.3c-0.3,0.5-0.8,0.8-0.8,1.2c0,0.4,0.3,0.8,0.5,1.2c0.1,0.1,0.6,0.1,0.6,0c0.2-0.4,0.3-0.8,0.3-1.3
		C631.9,92.1,631.6,91.8,631.3,91.3z"/>
	<path d="M279.4,100.6c1.8-0.5,2.7-1.3,3.5-2.3c-0.3-0.7-0.7-0.6-1.2-0.3C281,98.6,280.1,99.1,279.4,100.6z"/>
	<path d="M713.5,83.5c-0.3,0.3-0.6,0.6-0.8,1c-0.1,0.1,0,0.4,0.1,0.6c0.3-0.1,0.7,0,0.9-0.2c0.4-0.3,0.7-0.7,0.3-1.2
		C713.9,83.6,713.7,83.6,713.5,83.5z"/>
	<path d="M595.4,104.7c0.8-0.3,1.2-0.3,1.4-0.5c0.3-0.3,0.4-0.8,0.5-1.3c0-0.1-0.4-0.5-0.4-0.5c-0.4,0.2-0.8,0.4-1.1,0.7
		C595.6,103.4,595.6,103.8,595.4,104.7z"/>
	<path d="M675.9,103.9c-0.9,0-1.7,0-2.5,0C674.4,105.2,674.4,105.2,675.9,103.9z"/>
	<path d="M583.3,107.8c-0.5-1.3-1.1-2.2-2.6-1.8C581.4,107.1,581.9,108.1,583.3,107.8z"/>
	<path d="M677.5,104.9c1.2,0,1.8,0.1,2.3,0c0.3-0.1,0.5-0.5,0.7-0.8c0.1-0.3-0.7-0.6-1.1-0.4C678.8,104,678.4,104.3,677.5,104.9z"/>
	<path d="M251.7,77.2c0,1.6,1.1,2.3,2.3,3l-0.1,0.1C253.5,79,253.2,77.7,251.7,77.2L251.7,77.2z"/>
	<path d="M515.6,300.4c-1.5-0.2-2.2-0.4-2.8-0.5C513.3,300.7,513.8,301.2,515.6,300.4z"/>
	<path d="M666.9,104.3c0.7,0,1.2,0,1.8,0c0.2,0,0.4-0.3,0.4-0.4c0-0.2-0.2-0.5-0.4-0.5C668,103.2,667.3,103.1,666.9,104.3z"/>
	<path d="M533.1,247.9c1-0.7,0.9-1.5,0.3-2.9C533.3,246.3,533.3,247.1,533.1,247.9L533.1,247.9z"/>
	<path d="M531.6,293.9c0-0.7-0.1-1.5-0.1-2.2c-0.4,0.8-0.5,1.5,0.2,2.1C531.7,293.8,531.6,293.9,531.6,293.9z"/>
	<path d="M231.8,157.2c-0.4,0.6-0.8,1-1.2,1.5C231.9,158.6,231.9,158.6,231.8,157.2z"/>
	<path d="M263.8,138.4c0.6-1,0.9-1.5,1.2-2c-0.8-0.4-1,0.1-1.2,0.5C263.7,137.1,263.8,137.5,263.8,138.4z"/>
	<path d="M256.8,104.4c0-0.6,0-1.3,0-1.9c-0.1,0-0.3,0-0.4,0c-0.1,0.6-0.1,1.3-0.2,1.9C256.4,104.4,256.6,104.4,256.8,104.4z"/>
	<path d="M635.5,87c0.6,0,1.1-0.3,1.4-0.9C636,86.2,636,86.2,635.5,87L635.5,87z"/>
	<path d="M254.3,97.1c0.2-0.2,0.3-0.3,0.5-0.5c-0.1-0.1-0.3-0.3-0.4-0.4c0,0-0.2,0.1-0.2,0.2C254.2,96.7,254.3,96.9,254.3,97.1z"/>
	<path d="M548.3,338.2c-0.1,0.9-0.3,1.8,0.8,2.2l-0.1,0.1C549,339.6,549.3,338.7,548.3,338.2L548.3,338.2z"/>
	<path d="M549.1,340.4c-0.1,0.9-0.2,1.7,0.7,2.3l-0.1,0.1C549.7,341.9,550,341,549.1,340.4L549.1,340.4z"/>
	<path d="M237,152.8c-0.1-0.1-0.2-0.2-0.3-0.2c-0.2,0.1-0.5,0.1-0.6,0.3c-0.1,0.1,0.1,0.4,0.2,0.6c0.2-0.1,0.4-0.2,0.6-0.4
		C237,153,237,152.9,237,152.8z"/>
	<path d="M538.6,308.8c0.1,0.6,0,1.2,0.7,1.6c0,0-0.1,0.1-0.1,0.1C538.9,310,538.7,309.4,538.6,308.8
		C538.5,308.9,538.6,308.8,538.6,308.8z"/>
	<path d="M240.4,162.1c0.1,0.1,0.3,0.2,0.4,0.3c0.1-0.2,0.2-0.4,0.2-0.6c0,0-0.2-0.2-0.2-0.2C240.7,161.8,240.6,162,240.4,162.1z"/>
	<path d="M549.8,342.7c0.1,0.6,0,1.2,0.8,1.4l-0.1,0.1C550.3,343.7,550.5,342.9,549.8,342.7L549.8,342.7z"/>
	<path d="M708.5,80.5c-0.1,0-0.2,0.1-0.3,0.1c0.1,0.1,0.2,0.2,0.4,0.2c0,0,0.1-0.1,0.2-0.2C708.7,80.6,708.6,80.5,708.5,80.5z"/>
	<path d="M555.8,265.3c0.4,0.6,1,0.7,1.6,0.6l-0.1,0.1C556.8,265.8,556.2,265.6,555.8,265.3L555.8,265.3z"/>
	<path d="M251.6,77.3c-0.1-0.3-0.1-0.6-0.2-0.9c-0.1,0.1-0.3,0.2-0.4,0.3C251.2,76.8,251.4,77,251.6,77.3L251.6,77.3z"/>
	<path d="M268.1,130.5c0.3-0.1,0.5-0.2,0.8-0.3c-0.1-0.2-0.2-0.3-0.3-0.5c-0.1,0.1-0.2,0.1-0.2,0.2
		C268.2,130.1,268.2,130.4,268.1,130.5L268.1,130.5z"/>
	<path d="M533.2,247.9c-0.1,0.2-0.3,0.4-0.4,0.5C532.9,248.3,533,248.1,533.2,247.9L533.2,247.9z"/>
	<polygon points="529.9,285.5 529.8,285.5 529.8,285.8 	"/>
	<path d="M531.7,293.8c0,0.2,0,0.5,0,0.7c0,0.1,0.1,0.2,0.1,0.3c0.1-0.2,0.3-0.4,0.3-0.5c-0.1-0.2-0.3-0.3-0.5-0.4L531.7,293.8z"/>
	<polygon points="530.5,288.5 530.6,288.8 530.6,288.5 	"/>
	<polygon points="550.5,344.1 550.6,344.3 550.5,344.2 	"/>
	<path d="M559.6,323.1c0,0.1,0.1,0.2,0.1,0.4C559.6,323.4,559.6,323.3,559.6,323.1C559.5,323.2,559.6,323.1,559.6,323.1z"/>
	<polygon points="538.5,308.9 538.4,308.8 538.6,308.8 	"/>
	<path d="M555.7,265.4c-0.1-0.1-0.1-0.3-0.2-0.4c0,0,0,0.1,0.1,0.1C555.6,265.2,555.7,265.2,555.7,265.4L555.7,265.4z"/>
	<path d="M546.8,242.7c0.1,0.2,0.2,0.4,0.2,0.5C547.4,242.7,546.9,242.8,546.8,242.7C546.7,242.7,546.8,242.7,546.8,242.7z"/>
	<polygon points="268.2,130.6 268.1,130.7 268.1,130.5 	"/>
	<polygon points="184.4,113.2 184.5,112.9 184.2,112.9 	"/>
	<path d="M635.6,87.1c-0.2,0-0.4,0.1-0.6,0.1C635.5,87.8,635.4,87.1,635.6,87.1L635.6,87.1z"/>
	<path d="M505.7,198.8c-1.9-1.3-3.8-2.6-5.7-3.8c-0.2-0.1-0.5-0.3-0.7-0.3c-0.6,0.1-1.3,0-1.7,0.4c-0.4,0.3-0.6,1.2-0.5,1.7
		c0.5,2,3.2,3.8,5.2,3.5C503.6,200,504.8,199.8,505.7,198.8z"/>
	<path d="M487.3,138.8c0.7,0.6,1.5,1.1,2.3,1.7c0.2-0.4,0.4-0.7,0.4-0.8c-1.2-2.6-1.1-5.3-1.2-8c0-0.7,0.2-1.6-1.2-1.7
		c-0.8,3-0.8,5.9-0.2,9L487.3,138.8z"/>
	<path d="M533.3,99.1c1.4-0.9,1.5-1.9,1.3-2.9c-0.2-0.9-0.6-1.9-1-2.7c-0.2-0.3-0.8-0.5-1.3-0.6c-0.9-0.2-1.8,0.7-1.5,1.5
		c0.4,1,0.9,2,1.4,3C532.5,97.9,532.9,98.4,533.3,99.1z"/>
	<path d="M589.9,123.7c1.8,0.1,3.7-0.4,5.3-0.8c0.4-1,0.2-1.4-0.3-1.6c-1.8-0.8-3.6-0.6-5.2,0.6C589.1,122.4,589.3,123,589.9,123.7z
		"/>
	<path d="M589.2,130c-1.6,0.7-2.9,1.7-3.2,3.7C588.5,133.3,589.9,131.6,589.2,130z"/>
	<path d="M507.2,180.7c-2.8-0.8-3-0.8-3.9,1.4C506.3,182.7,506.8,182.5,507.2,180.7z"/>
	<path d="M522.5,207.5c-2.2-0.2-4.2,0.6-6.5,0.8C518.8,209.8,520.4,209.6,522.5,207.5z"/>
	<path d="M531.7,125.6c-1.8,0.9-2.5,1.9-2.8,3.4c0,0.2,0.2,0.5,0.4,0.6c0.2,0.1,0.5,0.1,0.7-0.1
		C531.3,128.6,531.4,127.3,531.7,125.6z"/>
	<path d="M532.6,124.8c1.6-0.7,2.3-1.7,2.8-2.9c0.1-0.2-0.1-0.5-0.3-0.6c-0.2-0.1-0.5-0.3-0.7-0.2
		C533.2,121.9,532.9,122.4,532.6,124.8z"/>
	<path d="M586.5,135.6c-2.5,0.2-2.5,0.2-3.9,3.4C583.9,137.8,584.9,136.9,586.5,135.6z"/>
	<path d="M532.4,104.4c1.4-2.4,1.3-3-0.3-3.8C531.6,102.3,531.6,102.3,532.4,104.4z"/>
	<path d="M597.8,125.7c-1.5-1.4-1.5-1.4-2.8,0C596.5,126.9,596.5,126.9,597.8,125.7z"/>
	<path d="M513.9,198.9c-0.2,0-0.5,0-0.7,0.1c-0.2,0.1-0.4,0.3-0.4,0.5c0,0.2,0.1,0.5,0.3,0.6c0.6,0.3,1.2,0.4,1.7,0
		c0.2-0.1,0.3-0.4,0.3-0.6c0-0.2-0.3-0.4-0.4-0.5C514.4,198.9,514.1,199,513.9,198.9z"/>
	<path d="M517.4,129.9c0.7,0.5,1.3,1,2.2,1.7c0.3-0.5,0.5-0.8,0.9-1.5c-1.3-0.1-2.3-0.1-3.2-0.2C517.3,130,517.4,129.9,517.4,129.9z
		"/>
	<path d="M501.5,186c-0.5-0.1-0.9-0.3-1.1-0.2c-0.2,0.1-0.2,0.6-0.2,0.9c0,0.1,0.5,0.3,0.6,0.2C501,186.7,501.2,186.4,501.5,186z"/>
	<path d="M517.6,199.1c0.2,0,0.4,0.1,0.6,0.1c0-0.2,0-0.4,0-0.6c0-0.1-0.3-0.1-0.3-0.1C517.7,198.7,517.7,198.9,517.6,199.1z"/>
	<path d="M493.7,143.4c0.2,0.2,0.4,0.4,0.7,0.6c0,0,0.3-0.2,0.4-0.3c-0.2-0.2-0.4-0.5-0.6-0.7C494.2,143,494,143.2,493.7,143.4z"/>
	<path d="M570.4,167.2c0.1,0,0.2,0.1,0.3,0.1c0-0.1,0.1-0.3,0.1-0.4c-0.1,0-0.2,0-0.3,0.1C570.4,167,570.4,167.1,570.4,167.2z"/>
	<path d="M564.8,174.2c0.2-0.2,0.4-0.4,0.6-0.6c0,0-0.1-0.2-0.2-0.2c-0.2,0.2-0.4,0.4-0.5,0.6C564.7,174.1,564.8,174.2,564.8,174.2
		L564.8,174.2z"/>
	<path d="M522.1,197.9c0.2,0.1,0.3,0.3,0.5,0.3c0.1,0,0.3-0.2,0.4-0.4c-0.1-0.1-0.2-0.2-0.3-0.2
		C522.5,197.7,522.3,197.8,522.1,197.9z"/>
	<path d="M526.7,205.3c-0.2-0.1-0.4-0.2-0.6-0.2c0,0-0.2,0.2-0.2,0.3c0,0.1,0.2,0.3,0.2,0.2C526.4,205.5,526.5,205.4,526.7,205.3z"
		/>
	<path d="M526.4,196.1c-0.2,0.1-0.3,0.2-0.5,0.3C526.5,196.7,526.4,196.3,526.4,196.1C526.3,196,526.4,196.1,526.4,196.1z"/>
	<path d="M526.3,196c0.1-0.1,0.3-0.1,0.4-0.2c-0.1,0-0.1,0-0.2,0C526.5,195.9,526.5,196,526.3,196L526.3,196z"/>
	<path d="M564.9,174.3c-0.1,0-0.2,0-0.3,0C564.7,174.3,564.7,174.3,564.9,174.3L564.9,174.3z"/>
	<path d="M497.8,147.2c0.1,0.1,0.1,0.2,0.2,0.3c0,0,0.1,0,0.2,0C498.1,147.4,497.9,147.4,497.8,147.2
		C497.7,147.3,497.8,147.2,497.8,147.2z"/>
	<path d="M497.7,147.3c0-0.1,0-0.2,0-0.3C497.8,147.1,497.8,147.1,497.7,147.3L497.7,147.3z"/>
	<path d="M517.3,130c0-0.2-0.1-0.3-0.1-0.5c0,0.1,0,0.1,0,0.2c0.1,0.1,0.2,0.2,0.2,0.2L517.3,130z"/>
	<path d="M573.7,423.8c0.4-0.5,0.8-0.9,1.1-1.4c2.1-3.6,4.1-7.2,6.1-10.8c0.7-1.2,1.2-2.5,1.6-3.8c0.2-0.7,0.3-1.5,0.2-2.2
		c-0.1-0.4-0.5-0.9-0.9-1c-0.4-0.1-1,0.1-1.3,0.4c-0.3,0.3-0.5,0.8-0.7,1.3c-1.1,2.8-2.1,5.6-3.1,8.4c-0.8,2-1.7,3.9-2.5,5.9
		c-0.4,0.9-0.7,1.8-1.1,2.7C573.3,423.5,573.5,423.6,573.7,423.8z"/>
	<path d="M606.7,378.6c0.6-0.4,1.2-0.6,1.7-1.1c1.3-1.4,2-3.2,2.4-5c0.3-1.3,0.5-2.7-0.5-4.2c-0.4,0.2-1.1,0.2-1.2,0.5
		c-1,3.1-1.9,6.2-2.7,9.3C606.3,378.2,606.4,378.3,606.7,378.6z"/>
	<path d="M540.2,526.8c3.4-9.2,3.4-9.2,3.1-11.7c-1.7,2.6-2.3,5.4-3.2,8.1C539.7,524.2,539.5,525.3,540.2,526.8z"/>
	<path d="M575.6,384.4c-1.3,1.9-1.3,2.3-1,4.6C576,387.2,576.2,386.5,575.6,384.4z"/>
	<path d="M574.9,392c-1.8,1.7-1.8,1.8-1.5,3.9C575,394.4,575.1,394.2,574.9,392z"/>
	<path d="M598.8,403.5c-1.2,1.4-1,2.4-0.5,3.6C599.7,406.2,599.5,405.1,598.8,403.5z"/>
	<path d="M605.2,384.2c0.3-1.1,0.6-2.3,0.9-3.7C604.6,381.8,604.6,381.8,605.2,384.2z"/>
	<path d="M572.2,427.5c-1.3,0.5-1.5,1.2-1.1,2.3C572.3,429.4,572.5,428.7,572.2,427.5z"/>
	<path d="M572.9,374.1c-0.1-0.7-0.1-1.4-0.3-2c0-0.2-0.4-0.3-0.6-0.4c-0.1,0-0.2,0-0.3,0.1c-0.1,0.2-0.2,0.4-0.3,0.7
		C571.6,373.2,571.8,373.8,572.9,374.1z"/>
	<path d="M546.1,508.3c-0.9,0.8-1,1.5-0.6,2.5C546.2,510.1,546.7,509.5,546.1,508.3z"/>
	<path d="M548.1,499.3c-1,1-1.4,1.9-1.2,3.5C547.7,501.6,548.3,500.8,548.1,499.3z"/>
	<path d="M549.5,493.7c-1.5,0.2-1.7,1.1-1.9,2.7c0.7-0.8,1-1.1,1.3-1.4C549.1,494.5,549.2,494.1,549.5,493.7z"/>
	<path d="M599,398.1c-0.3,1.3-0.1,2,0.9,2.3C600.5,399.3,600.4,398.5,599,398.1z"/>
	<path d="M598.9,392.2c0.3-0.1,0.4-0.1,0.5-0.1c0.4-0.5,0.7-1,0.3-1.6c-0.1-0.2-0.4-0.3-0.6-0.2c-0.7,0.3-0.5,0.9-0.5,1.5
		C598.6,391.9,598.8,392,598.9,392.2z"/>
	<path d="M566.8,436.6c0.2,0.2,0.3,0.4,0.4,0.6c0.3-0.3,0.6-0.6,0.9-0.9c-0.2-0.1-0.4-0.4-0.6-0.3
		C567.2,436.1,567,436.4,566.8,436.6z"/>
	<path d="M549.8,488.7c-0.2,0.2-0.3,0.3-0.5,0.5c0,0,0.1,0.2,0.1,0.3C549.5,489.2,549.6,488.9,549.8,488.7L549.8,488.7z"/>
	<path d="M563.7,442.6c0.1-0.1,0.3-0.3,0.3-0.4c0-0.1-0.2-0.2-0.3-0.4c-0.1,0.1-0.2,0.2-0.2,0.2
		C563.5,442.2,563.6,442.4,563.7,442.6z"/>
	<path d="M549.7,488.6c0.2-0.1,0.5-0.2,0.6-0.3c0.1-0.2,0-0.4,0-0.6c-0.1,0.1-0.3,0.2-0.4,0.3C549.8,488.2,549.8,488.5,549.7,488.6
		L549.7,488.6z"/>
	<path d="M582.9,227.6c3.1-4.6,5.3-17.5,4.1-24.7c-0.2,1.1-0.4,1.7-0.5,2.3c-0.4,4.6-1.4,9.1-2.5,13.6c-0.6,2.4-1.2,4.8-1.7,7.3
		C582.2,226.7,582.1,227.4,582.9,227.6z"/>
	<path d="M589.3,163.4c-0.3-0.9-0.9-1.4-1.7-1c-1.1,0.6-2,1.4-2.9,2.2c-1.3,1.1-2.4,2.5-4.3,2.7c-0.4,0.1-0.7,0.6-1.1,1
		c3.5,1,3.9,1,6-0.8C586.8,166.3,588.5,165.2,589.3,163.4z"/>
	<path d="M590.3,190.3c-1.7,1.9-1.9,3.9-2.6,5.7c-0.3,0.9-0.8,1.9-0.1,3c1.5-2,1.8-4.3,2.6-6.5C590.5,191.9,590.3,191.3,590.3,190.3
		z"/>
	<path d="M609.5,154.5c-0.3-1.6-1.1-2.6-2.4-3c-0.4-0.1-1,0-1.3,0.3c-0.2,0.2-0.1,1,0.1,1.2C606.9,153.9,607.9,154.9,609.5,154.5z"
		/>
	<path d="M554.8,223.3c0.4-1.1,0.8-1.7,0.9-2.3c0-0.4-0.4-0.9-0.7-1.2c-0.2-0.2-0.7-0.2-1-0.1c-0.2,0.1-0.5,0.6-0.4,0.9
		C553.8,221.4,554.2,222.1,554.8,223.3z"/>
	<path d="M593.7,176.1c1.7-1.6,1.7-1.6,0.8-3.7c-0.3,0.2-0.7,0.4-0.7,0.7C593.6,174,593.7,175,593.7,176.1z"/>
	<path d="M591.7,186.1c1.7-1.3,1.7-1.3,1.7-3.3c-0.2,0.1-0.5,0.1-0.6,0.3C592.5,184.2,592.2,185.2,591.7,186.1L591.7,186.1z"/>
	<path d="M552.3,215.6c1.1-0.6,1.2-1.5,0.6-2.5c-0.3-0.5-0.7-0.6-1.4,0C551.4,213.9,551.7,214.8,552.3,215.6z"/>
	<path d="M591.2,187.8c0.2-0.6,0.4-1.1,0.6-1.7l0.1,0.1C591.6,186.7,591.4,187.3,591.2,187.8L591.2,187.8z"/>
	<polygon points="591.2,187.8 591,187.9 591.2,187.8 	"/>
	<path d="M519.2,457.2c-1.8,0.5-1.8,0.5-2.6,1.6C517.7,458.6,517.7,458.6,519.2,457.2z"/>
	<path d="M531.4,441.7c0.2,0.1,0.5,0.3,0.6,0.2c0.3-0.3,0.5-0.6,0.8-1c0,0-0.2-0.2-0.2-0.2c-0.4,0.2-0.7,0.4-1.1,0.7
		C531.4,441.5,531.4,441.6,531.4,441.7z"/>
	<path d="M524.6,451.9c-0.4,0.2-0.8,0.3-0.9,0.6c-0.1,0.2,0.2,0.5,0.3,0.8c0.3-0.1,0.7-0.2,0.8-0.4
		C525,452.7,524.7,452.3,524.6,451.9z"/>
	<polygon points="536.5,440 536.4,440.2 536.6,440.2 	"/>
	<path d="M217.8,343.5c-0.6-2.2-1.2-4.3-1.8-6.5c-0.2-0.7-0.3-1.4-0.5-2.2c1.4-0.4,2.4,0.4,3.4,0.6c1,0.2,1.9,0.5,2.9,0.9
		c1,0.4,2,0.7,3.8,0.7c-2-1.6-3.8-2.1-5.6-2.6c-1.6-0.6-3.3-1.1-5.2-1.7c-1.6-4.4-2.4-9-3.7-13.4c0.8-0.9,1.6-0.6,2.3-0.4
		c3.8,1.2,7.6,2.5,11.4,3.7c0.9,0.3,1.8,0.7,2.8,0.9c-2.3-2.1-5.2-3-8.1-4c-2.8-0.9-5.7-1.7-8.9-2.6c-0.6-1.3-1.2-2.8-1.9-4.2
		c-0.3-0.6-0.5-1.5-1.5-1.4l0.1-0.1c0.2,1.7,1.6,3,1.4,5c-0.6,0-1,0.1-1.5,0c-2.4-0.6-4.8-1.2-7.2-1.7c-1.3-0.3-2.7-0.2-4-0.3
		l0.1-0.1c0.4,0.3,0.8,0.6,1.2,0.7c3.1,0.8,6.3,1.5,9.5,2.3c0.8,0.2,1.7,0.5,2.6,0.8c1.9,4.4,2.5,9.1,3.9,13.4
		c-0.8,0.9-1.4,0.4-1.9,0.2c-3.3-1.1-6.6-2.2-10-3.3c-0.7-0.2-1.4-0.3-2.1-0.2c4.5,2.8,9.7,3.9,14.7,5.9c0.8,2.2,1.6,4.4,2.4,6.6
		C216.7,341.6,216.8,342.8,217.8,343.5L217.8,343.5z"/>
	<path d="M171.8,276.1c3.3,1.3,6.7,0.8,9.9,1.2c3.2,0.5,6.4,0.9,9.7,1c-0.4-0.3-0.8-0.7-1.3-0.8c-5.8-1.6-11.7-2.2-17.7-1.7
		C172.3,275.8,172,276,171.8,276.1z"/>
	<path d="M232.3,258.8c3.7,3.4,8.1,5.3,12.9,6.6c0.5,0.1,1.2-0.1,2.1-0.2c-0.4-0.6-0.6-1.1-0.9-1.4c-0.3-0.2-0.7-0.4-1-0.5
		C240.9,261.8,236.6,260.3,232.3,258.8z"/>
	<path d="M198.9,257.6c0.3-0.4,0.7-0.7,0.7-1.2c1-4.6,2-9.2,3-13.9c0.2-1.2,0.5-2.4-0.1-4.1c-0.7,3.2-1.2,5.9-1.8,8.6
		c-0.5,2.3-1,4.6-1.4,6.9C199,255.2,199.1,256.5,198.9,257.6L198.9,257.6z"/>
	<path d="M233.3,280.2c3.4,1.5,6.8,3,10.2,4.5c0.8-0.6,0.4-1.2-0.1-1.5c-1.2-0.7-2.4-1.3-3.7-1.8
		C237.7,280.5,235.7,280.1,233.3,280.2z"/>
	<path d="M232.1,289.1c2.4,0.4,8.9,0.3,11.1-0.2c0.2,0,0.2-0.4,0.4-0.6C240.1,287.3,236.2,287.6,232.1,289.1z"/>
	<path d="M197.8,266.2c-1.4,3.5-2,10-1.4,14.9c0.1-0.5,0.3-0.8,0.3-1.1C197.1,275.6,197.4,271.1,197.8,266.2z"/>
	<path d="M221.9,354.8c-0.3,1.6-0.6,3.2,0.3,4.7c0.2,0.4,0.7,0.8,1.2,0.2c0.3-1-0.9-1.6-1.1-2.5
		C222.3,356.3,222.1,355.5,221.9,354.8z"/>
	<path d="M182.7,300.8c-0.5-1-1.3-0.8-2.2-0.6C181.1,300.8,181.7,301.3,182.7,300.8z"/>
	<path d="M199,257.7c-0.2,0.6-0.4,1.3-0.7,1.9c0.1,0,0.3,0.1,0.4,0.1C198.8,259,198.8,258.3,199,257.7L199,257.7z"/>
	<path d="M199.7,294.7c0-0.6-0.1-1.2-0.1-1.8c-0.1,0-0.2,0-0.3,0c0,0.6,0,1.2,0,1.8C199.4,294.7,199.5,294.7,199.7,294.7z"/>
	<path d="M237.3,247.9c-0.3,0.1-0.7,0.2-0.9,0.4c-0.2,0.2-0.1,0.6-0.2,0.8c0.3,0,0.7,0,0.9-0.1c0.2-0.2,0.3-0.6,0.4-0.9L237.3,247.9
		z"/>
	<path d="M197,283.4c0,0.2,0,0.5,0,0.7C197,283.8,197,283.6,197,283.4z"/>
	<path d="M221,351.3c0.1,0.7,0.1,1,0.1,1.3c0.1-0.2,0.1-0.4,0.2-0.5C221.3,351.9,221.2,351.8,221,351.3z"/>
	<path d="M207.1,311.3c0.2-0.7,0-1.2-0.6-1.6l0.1-0.1C206.8,310.1,207,310.7,207.1,311.3L207.1,311.3z"/>
	<path d="M196,314.2c-0.2-0.2-0.5-0.3-0.2-0.1C195.4,314,195.7,314.1,196,314.2C196,314.1,196,314.2,196,314.2z"/>
	<path d="M217.9,343.4c0.1,0.3,0.1,0.6,0.1,0.3C218.1,344,217.9,343.7,217.9,343.4C217.8,343.5,217.9,343.4,217.9,343.4z"/>
	<polygon points="198.5,290 198.6,290.3 198.7,290 	"/>
	<polygon points="197.8,286.9 197.8,287.2 197.9,287.1 	"/>
	<path d="M206.5,309.7c-0.1-0.1-0.1-0.2-0.2-0.3C206.4,309.5,206.5,309.5,206.5,309.7L206.5,309.7z"/>
	<path d="M243.1,254.9c-0.1,0-0.2,0-0.2,0c0,0.1,0.1,0.3,0.1,0.4c0.1-0.1,0.2-0.1,0.2-0.2C243.2,255.1,243.1,255,243.1,254.9z"/>
	<path d="M241.3,423.6c2.1-2.5,7.9-12.7,8.7-15.3c0.3-0.8,0.4-1.7,0.4-2.6c0-0.6-0.4-1.3-1.2-1.2c-0.4,0-1.1,0.3-1.2,0.6
		c-0.8,1.7-1.5,3.5-2.1,5.2c-1.5,3.8-3.1,7.7-4.6,11.5C241.1,422.4,240.9,423,241.3,423.6z"/>
	<path d="M274.3,378.5c0.4-0.2,0.8-0.2,1.1-0.4c2.3-2.2,3.2-4.9,3.3-8c0-0.5-0.3-0.9-0.5-1.4c-0.2-0.4-1.1-0.4-1.3-0.1
		c-0.1,0.1-0.2,0.2-0.3,0.3c-0.9,2.8-1.7,5.7-2.5,8.6C274,377.7,274.2,378.1,274.3,378.5z"/>
	<path d="M210.8,514.8c-1.6,3.8-2.6,6.9-3.5,10c-0.2,0.6,0,1.2,0.1,2.5c1.7-2.9,2.2-5.5,3.1-8C210.9,518,211.4,516.9,210.8,514.8z"
		/>
	<path d="M242.1,389.6c1.5-2,1.5-3.5,1.6-5.8C242,386.2,242,386.2,242.1,389.6z"/>
	<path d="M242.4,392c-1.3,1-1.5,2.3-1.9,3.5c0.5,0.7,1,0.5,1.3,0C242.4,394.5,243.2,393.4,242.4,392z"/>
	<path d="M273.5,380.6c-1.3,1.3-1.4,1.3-1.2,3.6C273.3,383,273.3,383.1,273.5,380.6z"/>
	<path d="M215.6,499.7c-1,0.7-1.2,1.7-1.3,2.9C215.6,501.9,215.6,500.8,215.6,499.7z"/>
	<path d="M240.1,374c0.7-0.9,0.7-0.9-0.1-2.4C239.1,372.3,239.1,372.3,240.1,374z"/>
	<path d="M266.1,391.1c0.1,0.3,0.1,0.6,0.2,0.8c0.1,0.2,0.4,0.3,0.6,0.3c0.6-0.2,0.8-1.3,0.3-1.8c-0.1-0.1-0.5-0.2-0.6-0.1
		C266.4,390.5,266.2,390.9,266.1,391.1z"/>
	<path d="M239.3,427.7c-0.2,0.1-0.3,0.2-0.3,0.3c-0.1,0.5-0.3,1.1-0.4,1.6c0,0,0.5,0.2,0.6,0.2c0.3-0.5,0.6-1,0.8-1.5
		C240.1,428.2,239.6,427.9,239.3,427.7z"/>
	<path d="M213.1,510.9c1-0.6,1.1-1.5,0.8-2.6C213.1,509.5,213.1,509.5,213.1,510.9z"/>
	<path d="M266.8,398.2c-0.1,0.3-0.3,0.7-0.2,0.9c0.1,0.4,0.4,0.8,0.6,1.2c0.3-0.2,0.6-0.4,0.8-0.6c0.3-0.7,0-1.1-0.6-1.4
		C267.2,398.2,267,398.2,266.8,398.2z"/>
	<path d="M266.3,403.9c-0.9,1-0.7,2-0.1,3.3C267,405.9,267.2,405,266.3,403.9z"/>
	<path d="M215.4,495.4c1.3,0,1.2-1,1.9-2.4C215.8,493.8,215.4,494.5,215.4,495.4L215.4,495.4z"/>
	<path d="M234.4,436.8c0.3,0.1,0.5,0.3,0.7,0.3c0.6-0.2,0.8-0.8,0.5-1c-0.1-0.1-0.5-0.1-0.6,0C234.7,436.2,234.6,436.5,234.4,436.8z
		"/>
	<path d="M231,442.4c0.2,0.1,0.5,0.2,0.6,0.2c0.1,0,0.2-0.4,0.2-0.6c-0.2-0.1-0.4-0.2-0.5-0.2C231.2,442,231.1,442.2,231,442.4z"/>
	<path d="M217.8,488c-0.2,0.1-0.5,0.2-0.5,0.4c-0.1,0.2,0,0.4,0.1,0.6c0.1-0.1,0.3-0.2,0.4-0.4C217.8,488.4,217.7,488.1,217.8,488
		L217.8,488z"/>
	<path d="M217.7,487.9c0.2-0.1,0.4-0.2,0.5-0.3c0.1-0.1-0.1-0.3-0.2-0.5c-0.1,0.1-0.2,0.2-0.2,0.3
		C217.8,487.6,217.8,487.8,217.7,487.9L217.7,487.9z"/>
	<path d="M215.5,495.4c-0.1,0.1-0.2,0.2-0.3,0.4c0.1,0,0.2-0.1,0.2-0.1C215.5,495.6,215.5,495.5,215.5,495.4L215.5,495.4z"/>
	<path d="M257.1,169.6c-0.4,1-0.6,1.4-0.6,1.6c1.2,6.4,0.5,12.7-1.7,18.8c-0.2,0.6-0.9,1.3-0.1,2.2c2.4-3.4,3.8-7.1,4.2-11.1
		C259.3,177.5,259.1,173.7,257.1,169.6z"/>
	<path d="M189.5,201.7c-1.6,2.2-1.9,4.7-2.5,7.1c-0.2,0.6,0.1,1.4,0.1,2.2C188.8,209.3,189.7,205.7,189.5,201.7z"/>
	<path d="M252.7,193.7c-0.5,1.9-1.3,3.3-0.9,5.1c1.6-0.9,1.9-2.3,1.8-3.8C253.7,194.7,253.2,194.4,252.7,193.7z"/>
	<path d="M190.4,192.6c-0.3,0.4-0.5,0.6-0.7,0.9c-0.3,0.9-0.6,1.9-0.9,2.9C190.6,195.6,190.7,195.2,190.4,192.6z"/>
	<path d="M227.2,212.6c1-0.7,0.7-1.3,0.1-1.9C226.4,211.3,227.1,212,227.2,212.6z"/>
	<path d="M188.8,190.4c0.7-0.8,1.1-1.5,0.9-2.6C188.4,188.5,188.4,189.3,188.8,190.4z"/>
	<path d="M223.9,204.1c0,0.5,0,1.1,0,1.6c0.1,0,0.2,0,0.3,0c0.1-0.5,0.1-1.1,0.2-1.6C224.2,204.2,224.1,204.2,223.9,204.1z"/>
	<path d="M229.4,218.2c-0.2,0.5-0.4,0.8-0.3,1.1c0,0.2,0.4,0.4,0.6,0.6c0.1-0.2,0.3-0.4,0.3-0.6C229.8,219,229.6,218.7,229.4,218.2z
		"/>
	<path d="M250.5,203.8c-0.1,0.2-0.2,0.4-0.2,0.7c0,0.1,0.2,0.2,0.2,0.3c0.1-0.2,0.2-0.4,0.2-0.7C250.8,204,250.6,203.9,250.5,203.8z
		"/>
	<path d="M211.1,408c2.4-2.9,3.1-6.1,3.8-9.2c0.6-2.6,0.9-5.1-0.3-8.1c-0.4,0.7-0.8,1-0.9,1.4c-0.2,0.6-0.2,1.2-0.2,1.8
		c0,2.8-0.6,5.4-1.4,8.1C211.5,403.9,210.8,405.6,211.1,408z"/>
	<path d="M205.3,421.5c0.1,0,0.2,0.1,0.3,0c2.1-1.1,3-3.2,3.8-5.3c0.1-0.3-0.1-0.8-0.3-1c-0.2-0.1-0.8-0.1-0.9,0.1
		c-1.3,1.6-2.6,3.3-3,5.4C205.1,421.1,205.3,421.3,205.3,421.5z"/>
	<path d="M200.1,428.1c-1.5,1.2-1.5,1.2-2.1,3c0.7,0.6,1.1-0.1,1.5-0.5C200,429.9,200.9,429.2,200.1,428.1z"/>
	<path d="M185.7,445c1.5-0.9,1.2-2.1,1.6-3.2C186.3,442.2,186.3,442.2,185.7,445z"/>
	<path d="M184.2,451.8c0.4-0.3,0.8-0.5,0.9-0.8c0.1-0.6,0-1.1,0-1.7c0,0-0.2-0.1-0.3-0.1c-0.8,0.2-0.7,0.9-0.8,1.5
		C183.9,451,184.1,451.4,184.2,451.8z"/>
	<path d="M203,423.6c-0.4,0.7-1.3,1.2-0.7,2.2C204.2,424.5,204.2,424.5,203,423.6z"/>
	<path d="M180.6,457.2c-0.7,0.6-1.3,1.1-0.8,2.3C180.5,458.9,181.1,458.3,180.6,457.2z"/>
	<path d="M299.6,103.7c-0.1,0.7-0.1,1-0.1,1.2c-0.1,1-0.4,1.9-0.3,2.9c0.2,1,0.8,1.8,1.1,2.8c0.2,0.8,0.2,1.7,0.2,2.6
		c0,0.9-0.3,1.7-0.4,2.6c-0.1,0.7,0.8,1.5,1.5,1.3c0.8-0.3,1.5-0.8,2.2-1.2c-0.3-3.1-1.6-5.7-2.7-8.2c0.8-1.8,2.2-2.9,3.7-3.8
		c1.6-0.9,3.3-1.8,4.9-2.8c0.5-0.3,1-0.7,1.5-1.1c0.2-0.2,0.1-0.7,0-1c0-0.2-0.4-0.4-0.6-0.4c-0.6,0.1-1.2,0.1-1.8,0.4
		C305.8,100.4,302.7,102.1,299.6,103.7z"/>
	<path d="M306.4,109.7c3.1-1.8,6-3.3,8.7-4.9c0-0.9-0.6-1-1-0.8c-2.3,0.9-4.7,1.7-7,2.7c-1.9,0.8-3,2.3-2.7,4.5
		c0.1,0.7,0,1.5,0.2,2.2c0.7,1.9,1.3,3.8,1.3,5.8c0,0.8,0.7,1,2.1,0.5C307.2,116.4,307,113,306.4,109.7z"/>
	<path d="M303.4,129.1c-1.3,2.9-2,8.9-1.4,12.5c0.3-0.3,0.6-0.4,0.8-0.7c1.5-2.9,1.8-6.1,2.1-9.3C305,130.6,304.8,129.6,303.4,129.1
		z"/>
	<path d="M276.5,164.7c-1.8,2.8-1.9,3.1-1.7,5.4C276.5,168,276.6,167.9,276.5,164.7z"/>
	<path d="M298.9,149.4c0.1,0.2,0.3,0.4,0.5,0.6c0.3-0.3,0.7-0.7,0.8-1.1c0.1-0.2-0.2-0.6-0.4-0.9c-0.3,0.2-0.6,0.3-0.8,0.5
		C298.9,148.7,298.9,149,298.9,149.4z"/>
	<path d="M300.4,145c0.3-0.4,0.6-0.9,0.9-1.3c0.1-0.1-0.1-0.5-0.2-0.6c-0.1-0.1-0.5,0-0.6,0.1c-0.3,0.4-0.5,0.9-0.7,1.4
		C300,144.7,300.2,144.8,300.4,145z"/>
</g>
</svg>
