<?xml version="1.0" encoding="utf-8"?>
<!-- Generator: Adobe Illustrator 20.1.0, SVG Export Plug-In . SVG Version: 6.00 Build 0)  -->
<svg version="1.2" baseProfile="tiny" id="Layer_2" xmlns="http://www.w3.org/2000/svg" xmlns:xlink="http://www.w3.org/1999/xlink"
	 x="0px" y="0px" viewBox="0 0 900 600" xml:space="preserve">
<g>
	<path d="M855.3,335.8c0-0.2,0.2-0.5,0.1-0.7c-1.3-2.4-2.6-4.7-4-7.1c-0.3-0.5-0.9-0.9-1.3-1.2c-2.1-1.5-4.2-3-6.3-4.5
		c-0.5-0.4-1-0.7-1.4-1.2c-0.4-0.5-0.4-1.2,0.2-1.7c0.3-0.3,1-0.5,1.3-0.3c1.7,1,3.3,2.1,4.9,3.2c0.4,0.3,0.6,0.8,1,1
		c2.8,1.5,4.1,4.1,5.4,6.8c0.9,1.8,1.9,3.4,2.9,5.2c0.8,1.5,1.4,3.2,2.5,4.5c1,1.2,2.5,2,3.7,3c1.1,1,2.4,1.7,3.8,2.2
		c4.9,1.7,9.4,4.3,13.2,7.9c0.9,0.9,1.9,1.5,3.2,1.6c2.2,0.2,3.2,1.6,3.6,3.6c0.3,1.4,0.6,2.9,1,4.3c2.6,8.9,5.2,17.7,7.8,26.6
		c0.1,0.4,0.2,0.7,0.4,1c2.1,3.6,2.7,7.6,2.8,11.7c0,1.8,0.1,3.7,0,5.5c0,1.1-0.1,2.2-0.4,3.3c-0.8,3.1-2.7,5.3-5.9,5.9
		c-5.1,0.9-10.1,2.2-15.3,2c-1.9-0.1-3.6-0.5-5.2-1.6c-0.9-0.6-1.8-1.2-2.7-2c-1.9-1.6-3.5-3.3-5.9-4.3c-1.2-0.5-2.1-1.7-3-2.7
		c-2.1-2.2-4.5-3.7-7.4-4.7c-3.6-1.2-7.2-2.5-10.9-3.4c-3.6-0.9-7.2-1.5-10.8-2.3c-0.8-0.2-1.7-0.3-2.5-0.6
		c-1.5-0.8-3.1-0.8-4.7-0.5c-4.7,1-9.3,0.2-13.8-1.1c-0.9-0.3-1.9-0.7-2.8-0.7c-2.2,0-4.1-0.9-5.8-2.1c-2.8-2-5.6-4-8.4-6
		c0.1-0.7,0.2-1.3,0.3-1.8c-0.2-0.1-0.4-0.4-0.6-0.4c-2,0-3.9,0.1-5.9,0.1c-1.2,0-2.6,0.2-3.7-0.3c-3.2-1.5-6.5-0.7-9.8-0.5
		c-2.3,0.1-4.6,0.6-6.9,0.8c-1.2,0.1-2.4,0.3-3.6,0.8c-1.2,0.5-2.6,0.8-3.9,1c-2.4,0.4-4.9,0.7-7.3,1.1c-1.8,0.3-3.7,0.5-5.4,0.9
		c-5,1.3-10.1,1.9-15.3,2.1c-7.4,0.4-14.8,0.4-22.2,0.3c-1.2,0-2.5,0.1-3.7,0.2c-0.6,0-1.4,0.3-1.8,0.1c-2.8-1.5-5.8-0.4-8.7-0.5
		c-1.7,0-3.4,0.2-5.2,0.3c-5.8,0.4-11.5,0.9-17.3,1.3c-7.6,0.5-15.2,0.9-22.8-0.3c-4-0.6-7.8-2-11.7-3.9c-0.6,0.4-1.1,0.9-1.7,1.3
		c-3.2,2.6-6.8,3.8-10.9,3.9c-2.3,0-4.7,0-7,0c-0.9,0-1.8-0.1-2.6,0.1c-2.9,0.7-5.9,0.4-8.8,0.1c-2-0.2-4-0.4-5.8-1.1
		c-1.8-0.7-3.3-0.5-5,0.2c-3,1.1-6,2.2-9,3.2c-4.5,1.5-9.1,2.3-13.8,1.4c-0.2,0-0.5,0.1-0.9,0.2c-0.2,0.8-0.4,1.7-0.6,2.8
		c-2.5,1.4-4.9,2.7-7.9,1.4c-0.4-0.2-1-0.1-1.4,0c-3.5,0.5-7.1,1-10.6,1.5c-1,0.1-2,0.2-2.9,0.5c-3.1,1.2-6.3,0.9-9.5,0.6
		c-6-0.7-11.9-1.7-17.9-2.4c-5.5-0.7-10.9-1.7-16.5-1.7c-2.1,0-4.2,0.2-6,1.3c-2.3,1.4-4.9,1.6-7.5,1.3c-2.7-0.3-5.4-0.7-8-1.3
		c-9.8-2.1-19.7-3.2-29.6-3.7c-1.1-0.1-2.2-0.2-3.3-0.4c-3-0.5-3-0.5-5.1-2.4c-1.7,0-3.3,0-4.9,0c-4.8,0.1-9.6,0.3-14.4,0.5
		c-5,0.1-9.8-0.6-14.5-2.2c-0.9-0.3-1.9-0.5-2.7-0.7c-2.8,2.5-3.8,2.7-7,1.3c-1.1-0.5-2.2-1.1-3.2-1.8c-4.8-3.2-8.6-7.3-12.1-11.8
		c-0.5-0.6-0.7-1.5-0.9-2.3c-0.1-0.2,0.3-0.6,0.6-1.1c2.4,3.7,5.5,6.5,8.6,9.3c1.8,1.5,3.6,2.9,5.6,4.2c1.3,0.9,2.7,1.7,4.7,1.7
		c0.3-0.2,0.6-0.7,1.1-1c0.6-0.4,1.3-0.8,2-0.8c1.3,0,2.7,0.2,4,0.5c4.7,1.3,9.4,1.9,14.2,1.8c3.7-0.1,7.4-0.2,11.1-0.2
		c2.2,0,4.4,0.2,6.6,0.3c1.7,0.1,3.1,0.7,3.7,2.6c1.3,0.1,2.5,0.3,3.7,0.3c4.8,0.3,9.6,0.4,14.4,0.8c5.5,0.5,11,1.2,16.5,1.7
		c3.3,0.3,6.6,0.6,9.9,0.8c0.7,0,1.4-0.4,2-0.6c1.1-0.4,2.2-1,3.4-1.3c4.2-0.9,8.4-1.7,12.6-2.6c3.8-0.8,7.7-1.6,11.3-3.3
		c0.3-0.1,0.7,0.1,1.4,0.1c-0.4,0.5-0.6,1-0.9,1.2c-1.2,0.6-2.4,1.1-3.7,1.7c-1,0.4-2,0.8-3.2,1.3c0.4,0.4,0.7,0.7,1,0.8
		c7.6,0.9,15.2,1.8,22.7,2.5c2.9,0.3,5.9,0.4,8.8,0.6c0.4,0,0.7,0,1.1,0c6.3-1.2,12.7-1.5,19.1-1.2c0.5,0,0.9-0.2,1.6-0.3
		c-0.5-1.6-0.8-3-1.3-4.3c-1.2-3.7-2.5-7.5-3.8-11.2c-0.6-1.8-1.1-3.5,0-5.3c0.4-0.6,0.3-1.4,0.3-2.2c0.1-2.5,0.3-4.9,0.3-7.4
		c0.1-3.5,0.3-6.9,1.1-10.3c0.5-2.1,1.2-4.3,2-6.3c1.1-2.8,3.2-4.6,6.2-5.3c1.1-0.3,2.5-0.1,3.2-1.4c-0.7-0.2-0.9-0.2-1.5,0.1
		c-0.1-0.2-0.2-0.4-0.2-0.6c0.8-2.7,2.7-4.7,4.3-6.8c0.9-1.2,1.8-2.3,2.8-3.7c-0.7-0.4-1.2-0.8-1.7-0.9c-4.7-1.1-9.3-2.5-13.6-4.7
		c-2.4-1.2-5-1-7.6-1.2c-1.7-0.1-3.4-0.2-4.8,1.1c-2.1,0.3-4.1,0.7-6.2,0.9c-3.9,0.2-7.9,0.2-11.8-0.4c-1.9-0.3-3.9-0.2-5.9-0.3
		c-3.9-0.2-7.9-0.5-11.8-0.7c-1.9-0.1-3.7-0.5-4.7-2.3c-0.5-1-1.5-1.2-2.5-1.2c-1.8,0-3.7,0.1-5.5,0.2c-1.6,0.1-3.1,0.3-4.9,0.5
		c0.6-1.6,2.2-1.3,2.9-2.1c-0.1-0.2-0.2-0.5-0.4-0.6c-2.9-0.7-5.7-1.4-8.7-0.9c-2.9,0.5-5.9,0.5-8.9-0.4c5-1.6,5-1.6,9.1-1.5
		c3.1,0.1,6.2,0.4,9.1,1.5c3.3,1.2,6.8,0.6,10.2,1.4c3.1-1.1,6.3-0.4,9.5-0.3c7,0.3,14,0.9,20.8,2.7c2.3,0.6,4.6,1,6.9,1.4
		c1.2,0.2,2.5,0.1,3.8-0.9c0.3-5.4,0.7-11.1,1-16.8c0.6-0.6,1.5-1.1,2-1.8c0.6-0.8,0.9-1.7,1.3-2.7c0.3-0.8,0.6-1.6,0.8-2.4
		c2.2-9.2,5.8-18,8.4-27.2c1.1-3.9,2.2-7.8,3.3-11.7c1.2-4.3,1.3-8.8,1.4-13.2c0.1-2.1-1.9-4.6-4-5.2c-1.2-0.4-2.4-0.6-3.5-1
		c-1.2-0.5-2.3-0.4-3.6-0.2c-3.2,0.5-6.4,0.7-9.5-0.1c-2.8-0.7-5.6-0.9-8.4-0.9c-2,0-3.9,0-5.9,0c-3.6,0-7.1-0.3-10.6-1.2
		c-1.8-0.5-3.7-0.3-5.5,0c-2.8,0.5-5.6,0.6-8.4,0.1c-1.4-0.2-2.9,0.1-4.4,0.3c-3,0.5-6,1.2-9.1,1.6c-4.6,0.6-12.3,0.3-17.5-0.5
		c-1.1,1.1-2.7,1.3-4.3,1.1c-1.3-0.1-2.4,0.3-3.5,0.9c-2.1,1.1-4.2,2.1-6.3,3.1c-1.4,0.6-2.6,0.5-3.4-0.8c-0.6-1.9,1.8-2.3,1.7-3.9
		c0.2-0.1,0.5-0.2,0.7-0.3c-0.2,0.1-0.4,0.2-0.6,0.4c-3.7,0.2-7.4,0.1-11-0.8c-2.2-0.6-4.5-1.1-6.1-3.1c-0.5-0.7-1.6-1-2.5-1.4
		c-3-1.2-6.2-1.6-9.4-2c-1.3-0.2-2.7-0.2-4-0.5c-2.4-0.5-4.7-0.4-6.9,0.5c-1.3,0.5-2.6,0.6-4,0.6c-1.4,0-2.7,0.1-4.1,0.1
		c-1.2,0-2.1,0.5-2.9,1.3c-3.7,3.7-8.3,5.2-13.4,5c-5.4-0.2-10.9,0.1-16.1,1.3c-4.7,1-9,3.2-12.4,6.9c-1.6,1.7-2.9,3.7-3.3,6.1
		c-0.1,0.5-0.5,1-0.7,1.5c-1.1-0.3-1.2-1.1-1.2-1.8c0.1-1.9,0.7-3.6,1.7-5.2c1.2-1.9,2.6-3.6,4.5-4.9c2.6-1.8,5.3-3.5,8.1-5
		c1.5-0.8,3.3-1.1,4.9-1.4c5.1-0.9,10.2-1.5,15.4-1.6c3.4,0,4.5-0.4,7.6-2.1c-5.3-1.6-9.6-4.8-14.1-7.5c-5.1-3.1-8.8-7.5-11.5-12.7
		c-1.8-3.5-3.4-7.1-4.4-10.9c-0.2-0.7-0.6-1.3-0.9-2.1c-8.1,2.3-16.1,4.5-24.2,6.8c0.7,0.3,1.4,0.5,2.3,0.8c-0.5,0.3-0.7,0.7-1,0.7
		c-7.5,0.4-14.3,3.3-21.3,5.8c-5.1,1.9-10.1,3.8-15.2,5.7c-6.4,2.4-13,3.9-19.7,4.7c-1.9,0.2-3.9,0.6-5.8-0.3
		c-0.5-0.2-1.2-0.3-1.8-0.2c-3.5,0.1-6.8-0.7-10.1-1.8c-0.5-0.2-1-0.2-1.6-0.3c-0.5,0.3-1,0.5-1.5,0.8c-4.7,3.4-9.9,5.5-15.8,5.3
		c-0.6,0-1.2,0.1-1.8,0.1c-0.4,0.7,0.1,1,0.5,1.3c1.8,1.5,3.6,2.9,5.4,4.4c0.9,0.8,1.8,1.7,2.7,2.5c2.1,2.1,4.1,4.2,6.1,6.4
		c1.2,1.3,2.3,2.6,3.5,4.1c1.5-0.2,2.9,0.6,4.2,1.4c1.2,0.7,2.4,1.4,3.6,1.8c0.9,0.3,1.9,0.6,2.8,0.5c4.2-0.6,8.3,0.3,12.4,1
		c2.9,0.5,5.7,1.3,8.6,2.1c3.3,0.9,6.6,2.1,9.5,3.9c2.2,1.3,4.5,2,7,1.9c4.7-0.1,9.3-0.3,14-0.4c4,0,8.1-0.7,12.1,0.1
		c1.1,0.2,2.2,0.1,3.3,0.1c3.2,0,6.4,0,9.5,0c3.5-2.4,6.3-2.6,10-0.7c0,2.3-2.4,2.1-3.6,3.4c1.9,2.2,2.9,5,5.1,7.1
		c-0.3,1.3,0.5,2,1.3,2.9c1.2-0.4,2.5-0.8,3.9-1.2c-0.1-0.6-0.1-1-0.3-1.5c-0.1-0.2-0.2-0.5-0.4-0.6c-0.4-0.2-0.9-0.4-1.4-0.3
		c-1.1,0.2-2.1,0.5-3.2,0.7c0-0.4,0-0.7,0-1.1c0.8-1.2,2.2-1,3.2-1.5c0.5-1-0.2-1.6-0.7-2.4c-0.6-0.2-1.3-0.4-2.3-0.7
		c0.4-0.6,0.7-1,1.1-1.7c-0.6-0.4-1.2-0.7-1.9-1.2c0.2-0.6,0.4-1.3,0.7-2.2c1.3,0.2,2.3,0.8,3.4,1.3c-0.1,0.5-0.2,1-0.4,1.7
		c0.4,0.3,0.9,0.8,1.6,1.4c-0.2,1.6,0.3,3.2,1,4.8c1.2,2.7,2.3,5.4,2.4,8.5c0,1.3,0.7,2.5,1.2,4.2c-1.7-1.7-1.7-1.7-4.8-2.1
		c0.3-1.5,2-0.7,2.6-1.7c-0.1-1.3-0.6-2.5-1.3-3.7c-1.6-0.4-2.9-0.2-4.1,0.8c0.9,3.1,1.8,6,2.6,8.9c2.1,7.7,3.1,15.5,2.7,23.4
		c-0.1,2.8-0.7,5.6-1,8.4c-0.1,1.2-0.4,2.4-0.4,3.7c0.1,7.6,0.2,15.3,0.3,22.9c0,0.6,0.1,1.2,0.2,1.9c1.2-0.1,2.3-0.2,3.3-0.2
		c1.5,0,2.9,0.1,4.4,0.2c0.7,0,0.7,0,1.8,1.5c-0.1,0.1-0.2,0.2-0.3,0.2c-2.9-0.1-5.9-0.3-9-0.4c-0.4,2.3-0.7,4.5,0.5,6.9
		c0.8,1.6,0.9,3.5,1.4,5.8c0.6,0.4,1.6,1,2.9,1.8c1.1-2.3,1.1-4.6,1.8-6.6c-1.2-1.2-2.5-0.6-3.7-0.8c-0.4-0.1-0.4,0-1.3-1
		c1.4-1.1,3.1,0,4.9-0.7c0.1-0.6,0.2-1.2,0.3-1.9c0.1-0.6,0.3-1.1,0.6-2.2c0.4,0.8,0.6,1,0.6,1.3c0.2,2.5,0.2,4.9-0.5,7.3
		c-1,3.5-1.2,7-1,10.6c0,1,0,2-0.7,2.8c-0.3,0.4-0.7,0.8-1.2,0.4c-0.2-0.2-0.4-0.8-0.3-1c1.2-1.9,0.9-4,0.7-6.1
		c0-0.1-0.1-0.2-0.2-0.6c-0.8-0.4-1.8-0.9-2.9-1.4c-0.9,2.5-0.9,4.7,0.7,7.4c-1-0.4-1.3-0.6-1.8-0.8c-1.1,1.2-1.1,2.8-1.8,4.5
		c0.9,0.2,1.5,0.5,2.2,0.6c0.6,0.1,1.2,0.4,1.2,1.3c-1.3,0-2.6,0-4,0c-0.8,0.9-1.8,1.6-2.1,2.6c-0.7,2-2.3,2.4-4,2.7
		c-0.6,0.1-1.2,0.1-1.8,0.1c-7.2-0.2-14.2,0.9-21.3,1.8c-7.3,1-14.6,1.9-22,2.7c-4.8,0.6-9.4,1.8-14,3.3c-3.4,1.1-6.8,2-10.3,3
		c-5.1,1.4-10.2,1.4-15.4,0.8c-7.6-1-15.2-1.7-22.8-2c-5.5-0.2-11.1-0.4-16.5-1.5c-1.7-0.3-3.4-0.7-5-1.2c-1.3-0.4-2.6-0.4-4,0
		c-5.3,1.6-10.7,2.7-16.3,2.9c-1.7,0.1-3.4,0.4-5.1,0.7c-4.3,0.8-8.6,0.6-12.9,0.8c-4.7,0.2-9.3,0.6-14,0.9
		c-7.7,0.4-15.5,0.5-23.2-0.7c-4.3-0.7-8.5-1.5-12.7-2.4c-1.2-0.3-2.4-0.2-3.6,0.3c-6.2,2.6-12.8,3.6-19.5,3.1
		c-2.2-0.2-4.4-0.5-6.6-1c-4.5-1-8.5,0-12.1,2.8c-3.3,2.5-7.1,3.9-11,5c-7.1,2.1-14.4,3.3-21.6,4.8c-6.4,1.3-12.7,2.9-19.1,4.3
		c-4.9,1.1-9.9,2.2-15,1.7c-2.2-0.2-4.4-0.1-6.3-1.6c-0.3-0.3-0.9-0.3-1.4-0.3c-1.5,0-3-0.1-4.4,0.2c-3.9,0.7-7.9,0.7-11.8,0.5
		c-7.1-0.3-13.8-2.5-20.1-5.6c-4.7-2.3-8.6-5.6-12.5-9c-1.6-1.4-2.1-3-1.2-4.9c0.5-1.2,1-2.5,1.6-3.7c0.8-1.6,1.2-3.2,1.4-4.9
		c0.7-9.5,3-18.7,6.9-27.4c0.9-1.9,1.4-3.9,2.1-5.9c0.7-2,1.4-3.9,2.4-5.8c3.7-7,8.2-13.5,13.8-19.1c2.4-2.4,4.9-4.8,7.4-7.2
		c4.2-4,8.2-8.1,11.2-13.2c1.6-2.6,3.5-5.1,5.1-7.7c1.5-2.5,2.9-5.2,4.3-7.7c0.6-1,1.2-2,2.2-3.6c0-1.8,0-4.3,0-6.7
		c0-1.7,0.1-3.4,0.3-5.2c0.3-3.9,1.5-7.5,4.1-10.6c-0.4-0.8-0.8-1.5-1.2-2.2c-1-1.7-2.1-3.4-3-5.1c-1.4-2.8-1.2-3.4,1.1-5.9
		c-0.4-0.8-0.9-1.6-1.2-2.5c-0.3-0.9-0.5-1.9-0.8-3c-0.7,0.1-1.3,0.3-1.9,0.2c-1-0.1-1.9-0.4-2.9-0.6c-1-0.2-1.3-1-0.8-2
		c0.2-0.4,0.5-0.8,0.8-1.2c-0.9-1.7-1.8-3.4-2.7-5.2c2.9-2.6,6.7-3.2,10-4.9c-0.2-0.9-0.7-0.9-1.2-0.8c-1.7,0.4-3.4,0-5.1-0.3
		c-0.7-0.1-1.3-0.5-1.2-1.2c0.1-0.5,0.5-1.2,1-1.4c2.4-1.2,4.9-1.4,7.5-0.6c0.6,0.2,1.1,0.6,1.7,0.8c0.3,0.1,0.7,0,1,0
		c0.3-0.9-0.4-1.1-0.9-1.4c-1.3-0.8-2.5-1.8-2-3.6c0.5-1.9,2.1-2.2,3.8-2.4c2.2-0.3,4.4-0.7,6.6-1c0.5-0.1,0.9-0.3,1.5-0.5
		c0-0.8-0.1-1.7,0.2-2.4c0.2-0.7,0.9-1.2,1.4-1.7c0.5-0.6,1.1-1,1.5-1.6c1.3-2.2,3.3-2.8,5.6-3c1.7-0.2,3.5-0.2,4.5-1.9
		c1.2-0.3,2.3-0.8,3.5-0.9c2.4-0.2,4.9-0.2,7.4-0.4c1.8-0.1,3.7-0.3,5.5-0.5c2.5-0.3,4.9,0,7.2,1c0.9,0.4,1.8,0.8,2.6,1.4
		c2.5,1.8,5.2,3.1,8.4,3.4c1.7,0.2,2.8,1.4,4,2.6c-0.2,0.5-0.4,1.1-0.7,1.8c0.6,0.3,1.3,0.8,2,0.8c1.5,0,2.5,0.8,3.5,1.8
		c0.7,0.7,1.4,1.4,2.1,2.1c0.7,0.7,1.5,1.2,2.7,0.9c1.2-0.3,2.1,0.3,3.1,0.8c3.6,1.6,6.8,3.8,10.2,5.9c1.2,0.7,2.1,1.7,2.8,2.9
		c1.6,2.9,3.1,5.9,5.5,8.2c1.5,1.4,0.5,3.8-1.5,4.2c-0.9,0.2-1.9,0.3-3,0.5c0.3,0.5,0.5,1,0.6,1c1.6-0.3,2.8,0.6,4,1.4
		c1.6,1.1,3.3,2.1,4.9,3.2c1.5,1.1,3,2.2,4.6,3.4c1-0.4,2-0.7,3-1.1c1.5-4.6,4.7-7.8,8.3-10.6c1.8-1.4,3.7-2.5,5.9-2.9
		c2.5-0.5,4.1-1.9,5-4.4c0.4-1.2,1.3-2.4,2.2-3.4c0.9-1,1.3-2,1.5-3.2c0.3-1.6,0.7-3.1,1.1-4.7c0.6-1.8,1-3.5,1.4-5.3
		c0.5-2.8,1.9-5.3,3.4-7.7c0.6-0.9,1.2-1.9,1.4-2.9c0.4-1.6,1.2-3,2.3-4.1c4.8-4.9,10.3-8.8,16.9-11c5.4-1.8,11.1-2.3,16.7-0.6
		c0.8,0.2,1.7,0.4,2.5,0.3c4.3-0.9,8.6-0.4,12.7,0.8c7.6-4.5,15.6-3.9,23.7-2c0.9-0.8,1.7-1.7,2.7-2.4c0.9-0.6,2-1,3-1.3
		c5.7-2.1,11.6-1.9,17.5-1.3c1.1,0.1,2.2,0.3,3.3,0.4c1.3,0.1,2.6,0.3,3.8-0.7c0.6-0.5,1.6-0.4,2.5-0.5c5.4-0.2,10.8-0.6,16.2-0.6
		c4.7,0,9.4,0.2,14,0.8c4.1,0.6,8.1,0.5,12.1,0c2.8-0.3,5.6-0.7,8.4-1c1.8-0.2,3.6-0.1,5.5,0.3c4.2,0.9,8.4,1.6,12.7,2.4
		c1.1,0.2,2.2,0.3,3.3,0.2c3.7-0.5,7.4,0.1,11,1c4.7,1.2,9.5,1.3,14.3,0.9c2.8-0.2,5.7-0.1,8.5-0.3c2.2-0.1,4.2,0.3,6,1.5
		c4.7,2.9,9.8,4.5,15,5.9c1.7,0.4,3.3,1,4.9,1.6c1.9,0.7,3.5,1.7,4.5,3.6c0.2,0.3,0.5,0.5,0.7,0.7c1.5-0.5-0.6-1.5,0.6-2.2
		c1,0.3,2.1,0.9,3.2,1.1c1.1,0.2,2.2,0.1,3.3,0.2c0.4,0,0.8,0.1,1.1,0c3.8-1.1,7.8-0.4,11.6-1.5c3.8-1.1,7.8-0.6,11.8-0.6
		c0.6,0,1.4,0.1,1.7,0.5c0.9,1.1,1.9,1.7,3.4,1.8c0.7,0,1.5,0.8,2.1,1.4c1.8,1.7,2.5,3.4,3.1,7.1c4.8,2.6,10,4.4,15.6,4.6
		c1.5,0.1,2.8,0.1,4.1,1.1c1.1,0.8,2.8,0.9,4.2,1c6.1,0.6,12.3,1.1,18.4,1.6c6,0.5,12.1,0.7,18,2.1c2.5,0.6,5.1,1.2,7.4,2.2
		c5.8,2.5,11.9,3.9,18,5.3c6.5,1.5,13.1,2.6,19.2,5.2c3.9,1.6,8,2.4,12.1,3c5.6,0.8,11.1,2.2,16.4,4.3c1.6,0.6,3.1,1.5,4.5,2.5
		c1.3,0.8,2.1,2.4,4,2.2c0.4,0,1.1,0.6,1.4,1.1c2.2,2.5,4.1,5.3,5.2,8.4c0.6,1.8,1.7,2.9,3.2,3.9c0.7,0.5,1.5,0.8,2.3,1.2
		c0.4,0.2,0.9,0.5,1.1,0.9c1.4,2.8,3.9,4.7,5.7,7.2c0.4,0.6,0.9,1.2,1.3,1.8c0.9,1.4,1.6,2.8,1.3,4.5c-0.2,1.2,0.2,2.1,0.6,3.2
		c2.7,6.6,3.2,13.4,0.9,20.2c-0.9,2.7-1.9,5.3-3.1,7.9c-1.1,2.5-2.9,4.6-5,6.3c-1.6,1.3-3.2,2.3-5.3,2.3c-0.9,0-1.9,0.3-2.8,0.7
		c-10.5,4.3-21.4,6.4-32.6,7.4c-4.7,0.4-9.3,0.9-14,1.2c-4.2,0.2-8.4,0.3-12.6,0.2c-2.6-0.1-5.1,0.1-7.6,0.9c-1,0.4-2.1,0.5-3.1,0.8
		c-0.5,2.2,0.3,3.2,2,2.4c1.5-0.6,2.6-0.3,3.9,0.2c5,2.1,10.1,3.9,15.4,5.1c0.6,0.1,1.2,0.3,1.8,0.5c1.7,0.6,1.9,0.8,2.7,3.3
		c0.9,0,1.9,0.1,2.8,0.1c6-0.2,12.1-0.5,18.1-0.7c3.1-0.1,6.1,0.1,9,1.6c0.1,0.1,0.2,0.1,0.3,0.1c4.3,0.4,8.2,2.6,12.4,3.6
		c2.6,0.6,5,1.1,7.5-0.4c0.7-0.4,1.7-0.4,2.5-0.4c2-0.1,4-0.1,5.9-0.3c2.6-0.4,5.1-0.9,7.6-1.5c1.4-0.3,2.9-0.7,4.3-0.9
		c1.2-0.2,2.5-0.2,3.6,0.6c1,0.8,2,0.8,3.1,0.8c1.6,0,3.2,0,4.8-0.1c5.8-0.3,11.5,0.6,17.2,1.6c8.4,1.4,16.5,3.8,24.6,6.5
		c1.9,0.6,3.8,1.1,5.7,1.4c6.4,1.2,12.9,1.8,19.4,2.3c11.6,1.1,23.3,2.2,34.8,4c4.7,0.8,9.5,1.2,14.3,1.6c0.2,0,0.5,0.1,0.7,0.1
		c3-1,6.1-0.4,9.1-0.7c1.1-2.1,1.1-2.1,3.1-3.1c0.1-0.2,0.2-0.6,0.3-0.9c1-3.8,1-4,4-6.8c1.5-1.4,2.7-2.8,3.7-4.6
		c0.9-1.8,2.2-3.3,3.9-4.4c3-1.9,6-3.9,9.1-5.6c4.7-2.5,9.6-4.4,14.6-6.1c1.1-0.4,2.3-0.8,3.5-0.2c0,1.2-1,1.5-1.7,1.8
		c-3.2,1.6-6.4,3.1-9.7,4.6c-5.8,2.8-11.3,6.1-16.4,9.9c-1.1,0.8-2,1.6-2.5,3.1c-0.3,1-1.3,1.8-2,2.6c-1.3,1.5-2.7,2.9-4,4.3
		c2.4,1.2,2.5,1.3,4,0.5c1-0.5,1.9-0.6,2.9-0.4c5.8,1,9.7,5.1,8.8,11.5c-0.5,3.5-2.1,6.6-5.4,8.4c-0.5,0.3-1,0.7-1.7,1.1
		c2.1,0.6,2.9-1.5,4.4-1.8c1,0.6,0.8,1.4,0.3,2.2c-0.9,1.4-2.2,2.4-3.7,3c-3.6,1.4-6.6,3.8-10,5.5c-2.1,1-3.1,2.8-3.6,4.8
		c-0.4,1.5-0.5,3.1-0.8,4.8c2.2,1.7,4.5,3.1,6.9,4.3c0.8,0.4,1.6,0.8,2.4,0.9c3.8,0.2,7.4,2,11.2,2.3c1,0.1,2,0.2,2.9,0.2
		c1.1,0,2.2-0.1,3.5-0.1c0.7-2.1,0.8-4.1,0.9-6.2c0.1-5.5,1.7-10.7,4.3-15.5c0.8-1.5,2-2.8,3.1-4.1c0.2-0.2,0.8-0.3,1-0.2
		c0.4,0.2,0.8,0.7,0.8,1.1c0,0.7-0.2,1.5-0.4,2.1c-0.6,1.5-1.3,2.9-2,4.4c-2.1,4.7-2.9,9.6-2.6,14.8c0.1,1.9,0.2,2,1.4,3.7
		c0.1-0.4,0.3-0.8,0.2-1c-1-3.1-0.5-6.1,0.7-9c0.8-1.9,1.8-3.8,2.9-5.6c1.5-2.6,3.1-5,4.6-7.6c0.1-0.2,0.3-0.4,0.4-0.6
		c0.4-0.5,1.6-0.3,1.9,0.3c0.2,0.4,0.4,0.9,0.4,1.4c0.2,1.7,0,3.5-0.7,5.1c-0.9,2.1-1.7,4.4-2.9,6.4c-1.6,2.8-2,5.8-2.4,8.8
		c-0.3,2.2,0.5,3.1,2.8,3.4c0.3,0.1,0.7-0.1,1.3-0.1c-0.2-1.1-0.4-2.1-0.5-3.1c0-1,0.2-2,0.3-2.9c0.1-1.1,0.2-2.2,0.4-3.3
		c0.2-1,0.4-1.9,0.6-2.9c0.7-2.7,2.1-5,4.5-6.5c0.5-0.3,1.1-0.3,1.7-0.5c0.2,0.5,0.4,0.9,0.4,1.2c-0.7,5.1-1.4,10.2-2.1,15.4
		c-0.1,0.7-0.4,1.4-0.7,2.1c-0.2,0.5-0.7,0.9-1.1,1.6c1,0.3,1.8,0.5,2.8,0.8c0.2-0.7,0.4-1.2,0.5-1.8c0.9-4.2,2.2-8.3,4.9-11.9
		c0.5-0.7,1-1.5,2-1.3c0.8,0.1,1.3,0.9,1.4,2.3c0.2,2.4-0.3,4.7-1,6.9c-0.8,2.3-1.6,4.6-1.8,7.3c0.8,0.2,1.5,0.4,2.5,0.7
		c0.3-0.9,0.5-1.6,0.8-2.2c0.8-1.9,1.5-3.9,2.3-5.8c0.4-0.8,1-1.5,2-1.4c0.8,0.1,1.6,0.9,1.7,2.1c0.1,2,0,3.9-0.1,5.9
		c-0.1,1.1-0.4,2.1-0.5,3.1c2.3,1.8,4.5,3.4,6.5,5.1c2.2,1.9,2.1,1.9,2.3,5.1c3.7,3.4,8.2,3.7,12.8,3c3.5-0.6,6.9-1.7,10.4-2.5
		c1.5-0.4,2.2-1.4,2.5-2.9c0.1-0.7,0.2-1.5,0.2-2.2c0-3.1-0.1-6.2-0.2-9.2c0-0.6-0.2-1.3-0.1-1.8c0.6-2.9-0.3-5.6-1.2-8.3
		c-2.4-7.2-4.7-14.5-6.9-21.8c-0.8-2.7-1.4-5.5-2.2-8.4c-2.8-1.9-5.7-4-8.7-5.8c-2.3-1.4-4.8-2.4-7.3-3.5c-1-0.5-2.1-1-3.2-0.9
		c-2.1,0.1-3.5-1.1-4.9-2.2c-0.9-0.7-1.6-1.6-1.6-2.8c0-1.5-0.9-2.5-1.7-3.8c-1.9-0.2-3.5-1.4-5-2.6c-4.5-3.5-8.3-7.7-11.7-12.2
		c-0.6-0.8-1.2-1.7-1.1-2.9c1.2-0.2,1.3,0.7,1.7,1.2C845.6,326.7,850.1,331.6,855.3,335.8c0.1,0,0.2,0.1,0.3,0.1c0,0,0.1,0,0.2,0
		C855.6,335.8,855.5,335.8,855.3,335.8z M802.2,349.8c-0.2-0.2-0.4-0.3-0.2-0.2C801.8,349.5,802.1,349.6,802.2,349.8
		c0.2,0.1,0.3,0.4,0.5,0.5c3.9,2.7,6.1,6.3,6.2,11.1c0,1.1,0.4,2.1,1.3,3c0.6-1.5,1-2.9,1.6-4.2c0.7-1.7,0.9-3.5,0.9-5.4
		c0-2.3-0.8-4-3.1-5.1c-1.3,1.2-2.8,0.9-4.4,0.6C804.1,350,803.2,349.9,802.2,349.8z M400.3,223.3c0.4,0.4,0.8,0.9,1.3,1.2
		c2.7,1.7,5.5,3.3,8.2,5c0.5,0.3,1.1,0.6,1.5,1.1c0.4,0.4,0.5,1,0.7,1.5c2.1,0.7,4,1.4,6.1,0.4c3.3-1.5,6.8-1.4,10.2-1
		c2.3,0.3,4.6,0.4,7,0.6c2.1,0.1,4.2,0.3,6.3,0.5c0.8,0.1,1.6,0.1,2.3,0.1c-1.5-1-3.1-1.6-4.6-2.4c-1.4-0.8-3.3-0.8-4.6-2.6
		c2.3,0,4.2,0,6.2,0c0.4,0,0.7,0.1,1.1,0.1c0.2,0,0.5,0.1,0.7,0.2c5.6,1.6,11,3.4,16.4,5.7c0.4,0.2,0.6,0.6,1.1,1.2
		c-2.2,0.1-4,0.2-5.9,0.3c0.3,1.1,0.8,1.8,1.8,2.2c2,0.9,4.1,1.6,6.4,1.3c0.4-0.6,0.7-1,1.1-1.6c0.3,0.6,0.6,1.3,0.9,1.9
		c1.5,0,2.9,0.2,4.1-0.1c1.6-0.4,2.8,0.7,4.3,0.7c1.4,0,2.6-0.5,3.9-1.1c2.7-1.3,5.4-2.4,8.4-2.4c1.7,0,3.4-0.7,4.7-1.8
		c1-4.7,1.2-9.1-3-12.5c-0.2-0.2-0.4-0.3-0.8-0.5c-1.7,0.1-3.1-0.7-4.4-2c-0.5-0.5-1.1-1-1.6-1.6c-1.2-1.4-2.6-2.6-4.1-3.6
		c-0.2-0.1-0.2-0.4-0.3-0.9c0.5-0.5,1.2-1,1.9-1.6c0.1-1.1,0.2-2.4,0.2-3.6c0-1.4,1.2-2.1,1.7-3.2c-0.4-0.7-0.7-1.4-1.1-2
		c-0.8-1.1-1.7-1.3-2.9-0.9c-0.8,0.3-1.5,0.7-2,1.5c-0.6,1.2-1.5,2.2-2.3,3.2c-0.1,2.3,1.6,3.7,3.1,5.3c-0.6,0.1-1,0.3-1.3,0.2
		c-1.6-0.4-2.9-1.4-3.6-3c-0.7-1.6-1.1-3.4,0.1-4.9c0.7-0.9,1.1-1.9,1.7-2.8c0.5-0.9,1.3-1.7,2-2.6c-6.7-0.5-13.2,0.1-19.4,2.4
		c-4.7,1.7-9.4,1.6-14.2,0.5c-1.1-0.2-2.1-0.6-2.9-1.4c-0.3-2.1-0.3-2.1-2.4-3c-0.7-1.5-2-2.4-3.5-3c-1.1-0.4-2.3-0.7-3.5-1.1
		c-2.8,1.1-5-0.5-7.3-1.6c-1.4-0.7-2.7-1.7-4.1-2.5c-1.5-0.9-3.1-1.5-4.9-1.4c-1.3,0.1-2.7,0-4.1,0c-4.7-0.1-9.4-0.1-14-0.8
		c-2.6-0.4-5.2-1.6-7.9-0.4c-0.2,0.1-0.5,0-0.7-0.1c-2.1-0.8-4.2-0.3-6.2,0.1c-2.2,0.5-4.4,0.4-6.6-0.2c-2.3-0.6-4.6-1-6.9-1.3
		c-3.8-0.6-7.5-0.9-11.3-0.6c-5.6,0.5-11.3,0.8-16.9,1.1c-6.1,0.3-12.3-0.3-18.4-0.5c-0.2,0-0.5,0.1-0.7,0.1c-0.1,0.3-0.3,0.7-0.4,1
		c-2.3,0-4.5,0.1-6.7,0c-3.9-0.2-7.9-0.4-11.8-0.8c-3.7-0.4-7.3-1.1-10.9-1.6c-4.1-0.6-7,0.6-9.9,4.1c1.1,1,2.1,2,3.1,3
		c0.3,0.3,0.6,0.8-0.2,1.3c-1.2-0.5-2.4-1-3.6-1.5c-0.8-0.3-1.7-0.7-2.5-0.6c-1.2,0.2-2.2-0.2-3.3-0.3c-0.6-0.1-1.2-0.2-1.8-0.2
		c-4.3,0.3-8.6,0.7-12.9,1c-1.4,0.1-2.7,0.4-3.2,1.8c-2.3,0-4.4,0-6.5,0c-1.8,0-3.7,0.2-5.5-0.6c-0.5-0.2-1.2-0.1-1.8-0.2
		c-5.2-0.7-10.3,0.5-15.4,1c-1.6,0.2-3.2,0.5-4.7,0.8c-5.5,1.1-10.4,3.8-15.1,6.7c-1.8,1.1-3.3,2.5-4.3,4.4c-2.3,4.5-5.1,8.7-5.4,14
		c0,0.5-0.3,0.9-0.4,1.4c-0.1,1.2-0.9,2.3-0.1,3.6c0.1,0.2,0,0.7-0.1,1c-1.5,2.5-2.5,5.3-5,7.1c-0.1,0.1,0,0.5-0.1,0.9
		c1,0.4,2,0.8,3,1.1c5.1,1.5,10.3,2.4,15.6,2.4c7.5,0,15,0,22.5,0c2.7,0,5.4,0.1,8.1,0.3c3.7,0.3,7.4,0.3,11-0.5
		c3.5-0.8,6.3-1.9,8.8-3.7c-2-1.8-4.3-2.9-6.4-4.3c-2.2-1.5-4.5-3-6.6-4.5c0.1-1.1,0.1-1.9,0.2-2.8c0.1-0.5,0.2-1.2,0.5-1.3
		c1.2-0.6,1.2-1.8,1.8-2.7c0.9-1.2,1.7-2.4,3.2-3c0.7-0.3,1.7,0.4,1.5,1.1c-0.3,1-0.8,2-1.3,3c-0.4,0.7-1.4,1-1.4,1.8
		c1.2,1.3,2.2,2.5,3.3,3.7c0.3,0.4,0.6,0.8,1,1c3.1,1.8,6.2,3.5,9.2,5.2c1.7-0.8,3.3-1.6,4.8-2.4c2.2-1.1,4.3-2.5,6.5-3.5
		c4.3-2,8.1-4.6,11.3-8.1c1-1.1,2.1-2,3.3-3c0.6-0.5,1.4-0.6,2,0c0.4,0.4,0.7,1.2,0.5,1.6c-0.6,1.6-1.3,3.1-2.2,4.6
		c-0.6,1-1.4,1.9-2.2,3.1c1.2,0.3,2.2,0.7,3.1,0.8c5,0.4,10.1,0.6,15.1-0.5c2.3-0.5,4.6-0.8,6.9-0.7c3.6,0.2,7.1-0.7,10.2-2.7
		c0.7-0.5,1.5-0.9,2.3-1.1c6.9-2.5,13.8-5.3,21-6.9c0.7-0.2,1.5-0.4,2-0.9c0.8-0.9,1.9-1.1,2.9-1.4c7.6-2.4,15.5-4.1,23-6.8
		c1.8-0.6,3.7-0.9,6.2-1.5c-2.6-1.8-5.1-1.4-7.5-1.9c0.1-0.2,0.1-0.4,0.2-0.4c0.4-0.2,0.8-0.5,1.3-0.6c3.2-0.4,6.2,0.3,8.7,2.2
		c3.6,2.6,7.6,3.2,11.9,3.2c0.8,0,1.7-0.2,2.5-0.6c3-1.3,6.1-2,9.2-2.4c1.7-0.2,3.4-0.2,5.1,0.5c0.9,0.4,1.9,0.4,2.9,0.5
		c2.4,0.3,4.9,0.3,7.3,0.9c3.9,0.9,7.4,0,11.3-1.5c-0.9-0.3-1.4-0.6-2-0.8c-0.8-0.2-1.7-0.3-2.6-0.3c-3.4,0.1-6.6-0.5-9.4-2.5
		c-0.2-0.1-0.5-0.2-0.6-0.4c-1-0.8-2.2-0.9-3.5-0.9c-1,0-2,0-3,0c-2.3-0.1-4.7-0.4-6.8-1.3c-0.3-0.1-0.5-0.6-1.1-1.3
		c1.2,0,2-0.1,2.6,0c2.7,0.5,5.4,0.5,8.1,0.4c1.9-0.1,3.6,0.2,5.3,1.2c2.1,1.3,4.4,2.2,6.9,2.1c1.1,0,2.1,0.5,3.2,0.7
		c1.4,0.2,2.9,0.3,4.4,0.5c0.5,1,0.9,1.9,1.3,2.7c-0.2,1.2-0.7,2-1.6,2.6c-1.7,1.1-3.9,0.5-5.4,2c-0.4,0.4-1.4,0.2-2.2,0.2
		c-1.7-0.1-3.4-0.2-5.1-0.4c-0.8-0.1-1.7-0.2-3.3-0.3c4.8,2.7,9.2,4.3,13.8,5.1c1.7,0.3,3.3,0.3,5-0.6c1.6-0.8,3.9-0.8,5.3,0.4
		c1.6,1.3,3.2,1.6,5.1,1.8c8.5,0.9,14.3,5.4,17.6,13.2c1.2,2.9,1.9,5.8,2.3,8.9c0.1,0.5-0.1,1.1-0.3,2.3c-0.6-1-0.9-1.3-1.1-1.7
		c-1.4-2.9-3.3-5.4-5.3-8c-3.8-5-8.5-8.9-14.4-11.2c-3.1-1.2-6.1-2.5-9.5-2.5c-8-0.1-15.5-2.1-22.5-6.2c-1.1-0.6-2.2-1.1-3.3-1.7
		c-0.7-0.3-1.3-0.7-2-0.9c-0.7-0.2-1.5-0.4-2.2-0.3c-2.5,0.5-5.1,1-7.5,1.9c-1.9,0.7-3.8,0.8-5.8,0.6c-2.1-0.2-4.1-0.3-6.2-0.5
		c0-0.1,0-0.2,0-0.3c0,0-0.1,0-0.2,0c0.1,0.1,0.2,0.2,0.3,0.2c0.1,0.5,0,1,0.2,1.4c0.9,1.8,1.7,3.5,2.7,5.2c2,3.4,4.2,6.6,7,9.4
		c0.8,0.7,1.4,1.8,2.7,1.7C399.5,223.1,399.8,223.3,400.3,223.3z M70.7,255.1c0.9,0,1.7,0,2.6,0.1c2.2,0.1,3.3,1.3,3.3,3.5
		c0,0.8,0.1,1.4,0.6,2c0.9,1.3,1.8,2.6,3,3.7c1.2,1,2.3,2.2,3.5,3.3c1.6,1.7,3.2,3.5,3.9,5.8c0.5,1.6,1.4,2.9,2.8,3.8
		c4.7,3,7.6,8,12.5,10.7c0.4,0.2,0.6,0.8,0.9,1.1c2.9,2.5,5.9,4.6,9.9,3.6c2.4-0.6,4.7-0.1,6.9,0.6c4.1,1.3,8.2,2.7,12.2,4.1
		c6.8,2.5,13.3,1.6,19.5-2.1c0.3-2.7,1.9-4.6,3.6-6.4c1.3-1.4,2.8-2.8,4.2-4.1c2.1-2.1,3.2-4.5,3.1-7.6c-0.1-4.5-0.5-8.8-2-13.1
		c-0.4-1.2-0.8-2.3-1-3.5c-0.7-3.3-2.6-5.7-5.1-7.9c-1.1-0.9-2.2-2-3.1-3.2c-2.6-3.4-5.2-6.9-7.8-10.3c-1.5-2.1-3.1-4.2-5.7-5.1
		c-0.7-0.2-1.2-0.8-1.8-1.2c-3.3-2.3-6.6-4.7-9.8-6.9c-6.3-0.5-11.8-3-17.7-4.2c-1.9-0.4-3.7-1.1-5.5,0c-0.3,0.2-0.7,0-1.3,0
		c-1.1-1-2.4-2.1-4.2-1.9c-0.9,1.6,1.3,1.7,1.1,2.9c-0.4,0.6-1,0.8-1.6,0.4c-0.5-0.4-1-0.9-1.3-1.3c-1.7,1.4-3.2,2.7-4.9,4.2
		c-0.6,1.2-1.2,2.8-2.2,4.3c-0.7,1.1-1.1,2.2-0.9,3.4c0.1,0.7,0.1,1.5,0.2,2.2c-0.9,1.2-1.8,2.3-2.7,3.5c-1.2,0.1-2.3,0.2-3.5,0.3
		c-1.1,2.6-3.4,4.1-5,5.3c-1.1,2.4-2,4.1-2.8,5.9c0.5,0.2,0.9,0.4,1.3,0.6c0.8,0.4,1,1,0.4,1.9c-2,0-4,0.3-5.7,1.7
		c-1,0.1-2,0-2.9,0.3c-0.6,0.2-1.1,0.9-1.5,1.5c-0.2,0.3,0,0.9,0,1.5C68.6,258,69.7,256.6,70.7,255.1z M592.3,390.4
		c2.1-0.4,4.1-0.8,6.2-1.2c2.1-0.4,4.2-0.9,6.2-0.1c1.7,0.7,3.3,0.7,5,0.7c5.3,0,10.5-1,15.8-0.7c3.2,0.2,6-0.8,8.8-2.4
		c1.5-0.9,3.1-1.5,4.7-2.2c0.4-0.1,0.9,0.1,1.3,0.2c-0.1,0.7-0.2,1.3-0.3,2c0.9,0.2,1.5,0.5,2.3,0.6c2.2,0.3,4.4,0.6,6.6,0.7
		c9.4,0.5,18.7,0,28-0.8c7.2-0.6,14.5-1.4,21.7-1.1c6.8,0.3,13.5,0.8,20.3,1.2c2.7,0.2,5.4,0.4,8.1,0.6c0.7,0,1.5,0,2.2-0.1
		c7.3-0.9,14.5-2.5,21.6-4.7c1.5-0.5,3.1-0.8,4.7-0.9c4.2-0.3,8.3-0.8,12.5-1.1c3.9-0.3,7.9-0.5,11.8-0.7c2-0.1,4,0,5.9-0.3
		c3.3-0.6,6.5-1,9.8,0.1c0.8-1.4,1.6-2.4,1.5-3.9c-0.1-1.2,0.5-2.1,1.5-2.8c2.3-1.5,4.5-3,7.1-3.8c0.7-0.2,1.3-0.6,1.9-0.8
		c-2.1-5.9-4.4-11.5-9.4-14.9c-2.7,0-5,0-7.3,0c-0.7,0-1.5,0-2.2,0.2c-3.9,1.6-8,1.4-12,1c-7.7-0.9-15.4-2.1-23-3
		c-6.2-0.8-12.5-1.4-18.7-2.1c-2.7-0.3-5.3-0.6-8.1-0.8c0.4,0.5,0.6,0.8,1.1,1.4c-3.5-0.7-6.6-1-9.7-2c-8.4-2.7-16.9-5.4-25.5-7.3
		c-7.2-1.6-14.5-2.9-21.9-2.9c-4.2,0-8.3-0.5-12.5-0.7c-0.7,0-1.5,0.1-2.2,0.3c-3,0.8-6,1.3-9.1,1.7c-4.6,0.7-9.3,1.3-13.9,1.5
		c-1.4,0.1-2.7,0-3.9-0.7c-1.7-0.9-3.3-1.4-5.3-1.1c-0.9,0.2-2-0.2-2.8-0.6c-1.4-0.5-2.7-1.1-4-1.9c-2.2-1.4-4.5-1.9-7-2
		c-7.3-0.3-14.5-0.6-21.8-0.9c-0.6,0-1.2,0-1.7,0.1c-0.6,2.8-0.5,2.8-2.3,4.6c-1.1,1.1-1.7,2.4-2,3.9c-0.5,3.3-2.1,5.4-5.6,5.9
		c-0.1,0-0.2,0.1-0.3,0.1c-2,0.4-3.3,1.6-4,3.5c-0.5,1.5-1.1,3-1.4,4.6c-1.3,5.3-1.7,10.7-1.5,16.1c0.1,2.6,0,5.2-1.3,7.3
		c0.8,2.5,1.6,4.9,2.3,7.2c0.7,2.3,1.4,4.7,2.2,7c2.6-0.2,5.1-0.1,7.5-0.5c4.2-0.7,8.4-1.7,12.3-3.6L592.3,390.4z M222.8,312.8
		c3-3,4.2-6.8,4.6-10.9c0.2-2.7,0.4-5.4,0.5-8.1c0.2-8.7-3-16.1-8.5-22.7c-0.4-0.5-0.8-1-1.3-1.3c-1.7-0.8-2.9-2.2-4.3-3.5
		c-3-2.9-5.9-5.9-8.9-8.8c-1.1-1.1-2.4-2.1-3.6-3.1c-2.2-1.7-4.5-3.5-6.7-5.1c-2.9-2.1-5.8-4.2-8.7-6.2c-1.9-1.3-4.1-2.1-6.5-2.4
		c-3.4,2.4-6.6,4.9-9.5,7.7c-1.3,1.2-2.6,2.2-4.5,2.3c-0.2,0-0.4,0.3-0.5,0.4c0.1,0.5,0.2,0.9,0.3,1.5c-1.9,0.7-3.4-1.2-5.5-0.9
		c1.2,2.2,2.3,4.2,3.5,6.2c0.6,1,0.9,1.9,0.4,3.1c-0.2,0.4,0,1.2,0.2,1.7c0.4,0.8,0.7,1.5,0.5,2.5c-0.4,2.1,0.2,4.1,0.7,6.2
		c0.5,1.9,0.8,3.8,1.1,5.8c0.5,3.6-0.5,6.6-3.7,8.5c-0.1,0.1-0.2,0.1-0.3,0.2c-2,1.5-3.8,3.1-4.4,5.7c-0.2,0.9-1,1.7-1.4,2.6
		c-0.7,1.6-1.8,2.6-3.4,3.2c-1.8,0.7-3.7,1.5-4.9,3.2c-0.5,0.7-1.4,0.8-2.3,0.9c-3,0.1-5.9,0.2-8.9,0.2c-1.2,0-2.4-0.2-3.6-0.6
		c-2.7-0.8-5.4-1.7-8.1-2.6c-0.9-0.3-1.8-0.9-3.1-0.3c0.7,0.6,1.3,1.2,1.9,1.6c6.5,4.4,13,8.8,19.6,13.2c1.8,1.2,3.3,2.5,4,4.7
		c1.9,0.7,3.8,1.3,5.6,2c1.2,0.5,2.4,0.4,3.6-0.2c1.7-0.7,3.4-1.3,5.2-1.9c1.1-0.4,1.9-1,2.7-2.1c1.5,0.7,3,0.3,4.6,0
		c2.6-0.6,5.3-1.3,7.9-1.7c2.7-0.4,5.4-0.3,8.1-0.4c0.8,0,1.6,0.3,2,1.5c-2.4,0.3-4.6,0.6-6.8,1c-2.1,0.4-4.1,0.9-6.1,1.4
		c-2.1,0.6-4.3,1.1-6.4,1.8c-2,0.6-4.1,1.1-6.3,2.3c0.9,0.3,1.3,0.6,1.8,0.6c3.7,0.3,7.3,1.1,11,1c3.2-0.1,6.4,0.1,9.6,0
		c2.8-0.1,5.7-0.2,8.5-0.5c4.8-0.5,9.5-1.2,14.3-1.8c3.8-0.5,7.5-1.3,11-2.9c0.5-0.2,0.9-0.6,1.6-1.1c-2.2-1.1-4.1-1.9-5.8-3
		c-1.7-1.2-3.6-2.1-5.5-2.9c-0.6-0.2-1.2-0.5-1.6-0.9c-0.3-0.3-0.5-0.9-0.4-1.3c0.1-0.4,0.6-0.9,1-0.9c0.8,0,1.8,0,2.5,0.4
		c1.4,0.7,2.8,1.6,4,2.6c2.5,2,5.4,2.7,8.2,3.5c0.5-0.6,0.9-1.1,1.3-1.5c-0.2,1.1,0,2.1,1.1,2.7c-0.7,1.4-2.1,1.7-3.1,2.6
		c-3.3,3-7.3,4.6-11.4,5.8c-8.3,2.4-16.8,3.8-25.5,3.7c-3.6,0-7.1-0.1-10.7-0.4c-5.8-0.4-11.4-1.8-16.9-3.9
		c-1.3,0.5-2.6,0.9-3.8,1.4c-0.5,0.2-0.9,0.6-1.6,1.2c4.6,2.1,8.9,4,13.1,5.9c16.5,7.4,31.3,17.1,43.6,30.4c1.4,1.5,2.7,3.2,3.8,4.5
		c-0.1,0.9-0.3,1.4-0.2,1.8c0.1,0.6,0.5,1.1,0.8,1.7c2.2,4.1,3.3,8.4,3,13.1c0,0.6,0.1,1.2,0.2,1.7c0.6,0.1,0.9,0.2,1.3,0.2
		c3.6,0.1,7.1-0.1,10.6,0.8c0.8,0.2,1.7,0.1,2.6,0.1c4.3,0,8.5-0.7,12.7-1.9c-0.3-0.6-0.5-1.1-0.8-1.6c1.5-0.9,2.9-0.9,4.5-0.7
		c4.5,0.6,9,1.4,13.5,1.7c5.2,0.3,10.3,0.2,15.5,0.3c8.2,0.2,16.5,0.5,24.7,1.7c3.4,0.5,6.8,0.5,10.3-0.3c4.7-1.1,9.4-2.1,14.1-2.8
		c4.4-0.7,8.8-1.2,13.2-1.7c6.8-0.8,13.7-1.8,20.4-3.3c6.6-1.4,13.3-2.5,20.1-2.1c1,0.1,2,0,3,0c0.7,0,1.4-0.1,1.9-0.2
		c0.7-1.9,1.2-3.5,1.8-5.1c1.6-4,3-8.1,3.2-12.5c0.1-1.1,0.2-2.4-0.3-3.2c-0.8-1.5-0.8-3.1-0.8-4.7c0-7.5,0.1-15,0-22.5
		c0-5.9,0.2-11.8-0.6-17.7c-0.1-0.8-0.3-1.6-0.5-2.4c-9.1-1.1-11.4-2.1-13.6-6c2.3-0.3,2.3-0.3,4.2,0.3c2.5,0.8,4.9,1.7,7.3,2.5
		c0.5,0.2,1.1,0.7,1.8,0c0.3-2.1-0.3-4.3-0.5-6.5c-0.9-9-3.5-17.6-6.8-26c-0.6-1.5-1.4-2.9-2.1-4.3c-0.4-0.9-1.1-1.3-2-1.5
		c-0.8-0.2-1.7-0.3-2.6-0.3c-4.3,0-8.6-0.2-12.9,0c-7.4,0.3-14.8,0.2-22.1-0.6c-0.9-0.1-1.8-0.3-2.6,0c-1,0.4-1.9,0.1-2.8-0.1
		c-11.2-2.8-22.4-5.5-33.7-8.3c-3.8-0.9-7.6-2.1-10.8-4.6c-0.3-0.3-0.8-0.4-1.4-0.8c1.3,3.5,2.7,6.6,3.6,9.9
		c1.5,5.3,1.5,7.9,0.6,10.4c-0.3-0.3-0.6-0.5-0.7-0.8c-1.5-3.8-2.9-7.6-4.6-11.3c-1.5-3.4-3.3-6.6-4.9-9.9c-0.7-1.3-1.7-2.4-2.9-3.3
		c-4.8-3.7-9.5-7.4-14.3-11.1c-0.6-0.4-1.2-0.7-1.8-1c-5.9,4.6-12.5,6.1-19.6,5.7c-3.3-0.2-6.6,0-9.9,0.5c-7.3,1.1-14.7,1.5-22.1,1
		c-6.6-0.4-12.9-1.8-18.7-5.2c-0.6-0.4-1.3-0.6-2-0.9c-0.8,0.6-1.6,1.2-2.4,1.8c-0.8,0.7-1.9,1-2.5,2.3c1,0.3,1.9,0.7,2.9,0.8
		c2.2,0.1,4,1.1,5.7,2.3c1.3,0.9,2.6,1.9,3.8,2.9c5.2,4.3,10,9.1,14.7,14c1,1.1,2.1,2.1,3.5,2.5c0.8,0.2,1.6,0.8,2.2,1.3
		c6.3,6,10.7,13.1,13.3,21.4c0.7,2.4,1.2,4.8,1.1,7.3c0,2,0.1,3.9,0,5.9c-0.1,2.1-0.4,4.2-0.8,6.2c-0.5,2.4-1.4,4.7-2.7,6.8
		C225.8,311.9,224.7,313,222.8,312.8z M94.3,347.1c-1.2,0.1-2.4,0.3-3.6,0.3c-3.7,0.1-7.4,0.1-11.1,0.1c-3.8,0.1-7.6,0.6-11,2.4
		c-1.1,0.6-2.3,0.9-3.4,1.4c-1.8,1-3.7,2-5.4,3.1c-2.3,1.4-3.5,3.5-3.9,6.3c-1.1,7.8-5.1,14.3-10.2,20.2c-0.2,0.2-0.6,0.3-0.9,0.4
		c-0.1-0.2-0.3-0.3-0.3-0.4c0.3-3.3,0.8-6.6,2.4-9.5c1.3-2.5,2.7-5,4-7.5c0.8-1.4,1.2-2.9,1.5-4.5c1.3-6.1,2.6-12.3,4.9-18.1
		c1.4-3.7,3.1-7.2,5.3-10.5c0.9-1.3,1.8-2.7,2.4-4.1c3.8-8.7,8.9-16.7,13.6-24.9c1.7-2.9,4-5.3,6.5-7.4c2.3-1.9,4.9-2.6,7.9-1.7
		c2.6,0.8,5.3,1.1,7.9,1.6c0.8,0.2,1.7,0.2,2.5,0.5c2.3,0.8,4.5,1.9,6.8,2.6c1.1,0.4,2.4,0.3,3.6,0.3c0.6,0,1.2-0.5,1.9-0.8
		c-0.4-0.3-0.6-0.5-0.8-0.5c-2.8-0.5-5.3-1.5-7.9-2.6c-2.9-1.2-5.9-2.5-8.7-4c-2.1,1-4,0.7-5.1-1.3c-1.7-3.1-3.5-6.2-5.3-9.2
		c-0.1-0.2-0.2-0.4-0.1-0.2c-1.5-1.2-2.6-2.1-3.7-3c-2.5-2.2-5-4.4-7.5-6.5c-0.7-0.6-1.7-1.1-2.6-1.3c-2.2-0.5-4.5-0.9-7-1.3
		c-1.4-1.5-2.9-3.1-4.4-4.7c-0.2,0.2-0.5,0.3-0.6,0.5c-1.9,4.3-2.5,8.7-1.5,13.3c0.6,2.8,0.5,5.6,0.1,8.4c-0.1,0.9-0.3,2-1.3,2.4
		c-0.4-0.2-0.7-0.4-1.2-0.6c-1,1.3-2.3,2.5-3.1,3.9c-3.4,6.2-7.6,11.8-11.5,17.6c-3.5,5.1-7.6,9.7-11.9,14.1
		c-6.4,6.6-11.9,13.8-16.3,21.8c-0.5,1-1.1,1.9-1.5,3c-1.3,3.5-2.4,7-3.7,10.4c-0.6,1.6-0.5,3.1,0,4.7c1.1,3,2.1,6,3.9,8.7
		c0.3,0.4,0.9,0.9,0.3,1.6c-1.6-1.1-2.8-2.3-2.9-4.4c0-0.4-0.2-0.9-0.5-1.3c-0.7-1-1.4-2-2.3-3.2c-1.1,2.5-1.4,4.9-2,7.3
		c-0.5,2.3-1.1,4.6-1.7,6.8c-0.7,2.4-1.6,4.7-2.3,7c-0.8,2.3-2.4,4.3-2.4,7c0.8,0.5,1.5,0.9,2.2,1.4c3.1,2,6.6,3.4,9.4,5.8
		c0.4,0.3,0.9,0.5,1.3,0.7c4.2,1.5,8.3,3.1,12.7,3.8c7.9,1.4,15.8,2.6,23.8,2.4c1.3,0,2.7,0.1,4.1,0.2c2.7,0.3,5.4,0.1,8.1-0.5
		c5.7-1.4,11.5-2.7,17.2-4c7.1-1.7,14.2-2.9,21.4-3.8c3.8-0.5,7.6-0.9,11.4-2c0-1.5,0.9-2.4,2.4-2.8c1.4-0.4,2.8-1,4.2-1.3
		c2.8-0.6,5.4-1.6,7.6-3.6c0.3-0.3,0.8-0.5,1.3-0.7c0.5,0.3,1,0.6,1.4,0.8c1.5-0.3,3-0.7,4.4-0.8c2.9-0.2,5.9-0.3,8.9-0.3
		c3.6,0,7.1-0.4,10.6-1.2c4.7-1.1,9.4-1.4,14.3-0.7c0,0.5,0,1,0,1.6c0.9,0.1,1.8,0.3,2.6,0.2c6.9-0.1,13.8-0.1,20.7-0.3
		c3.4-0.1,6.9-0.1,10.3-0.4c3.7-0.4,7.3-0.8,11-0.6c0.5,0,0.9-0.1,1.4-0.2c0.7-1.2,0.5-2.5,0.5-3.7c-0.3-4.7-2.3-8.7-4.6-12.7
		c-1.9-3.4-4.4-6.1-7.9-8.1c-4.3-2.4-8.5-5-12.6-7.8c-8-5.6-16.4-10.5-25.1-14.8c-3-1.5-5.8-3.2-8.6-5c-4.4-2.9-8.4-6.3-12.9-9.1
		c-0.5-0.3-0.8-0.9-1.2-1.4c-1.2,0-2.5,0-3.7,0c-3,0-5.8,0.7-8.7,1.5c-9.2,2.5-17.5,6.6-24.5,13.1c-0.8,0.8-1.7,1.4-2.6,2.1
		C98.4,341,96.2,343.6,94.3,347.1z M562.3,315.5c1.6,0.4,2.9,0.1,4.2-0.1c2.5-0.5,5.1-1.1,7.6-1.6c2.7-0.5,5.5-0.8,8.1,0
		c2.5,0.7,4.9,0.5,7.3,0.2c6.2-0.6,12.5-1.3,18.7-2c6.7-0.7,13.5-1.5,20.1-2.9c2.5-0.5,4.9-1.5,7.4-2.3c1.7-0.6,2.9-1.6,3.6-3.4
		c1.2-3.1,2.7-6.1,3.9-9.2c2.2-5.7,2.6-11.7,2.5-17.8c0-1.2-0.2-2.5-0.7-3.5c-0.4-0.8-0.6-1.5-0.8-2.4c-0.2-1.1-0.5-2.2-1.1-3.1
		c-2.7-4.1-5.5-8.1-9.5-11.2c-2.5-1.9-4.9-4.2-5.2-7.7c-0.9-1.6-1.7-3.4-2.9-4.7c-1.2-1.2-2.9-1.8-4.4-2.6c-0.4-0.2-1-0.4-1.4-0.3
		c-1.8,0.4-3.4-0.4-5-0.9c-4.1-1.2-8.3-2.4-12.4-3.7c-0.7-0.2-1.5-0.2-2.1-0.5c-3.4-1.8-7.1-2.7-10.8-3.6c-4.9-1.1-9.9-2.1-14.8-3
		c-3.7-0.7-7.4-1.5-11.3-1.8c-3-0.2-6.1-0.7-8.8-2.2c0-0.5,0.1-0.8,0.1-1.1c-3.1-1.8-5.3-2.6-8.3-2.9c-2.8-0.3-5.6-0.6-8.4-0.8
		c-6.1-0.5-12.3-1-18.4-1.5c-8.8-0.7-17.1-3.3-25.2-6.6c-4.7-1.9-9.2-4.6-14.5-5.4c0,1.2,0,2.4,0,3.6c0.1,3.1,1.7,5.3,4.3,6.8
		c0.9,0.5,1.8,0.8,2.7,1.3c0.8,0.4,1.6,0.8,2.2,1.4c2.9,2.9,4.9,6.1,4.1,10.5c-0.1,0.7-0.2,1.5-0.2,2.2c0,1,0.1,1.9,0.1,2.9
		c1.7,0.6,3.2,1,4.6,1.8c1.7,0.9,3.3,0.9,5,0.5c2.3-0.5,4.5-1.1,6.8-1.7c2.9-0.8,5.8-1,8.8-0.4c2.5,0.5,5,1.1,7.7,0.9
		c0.8-0.1,1.7,0.3,2.5,0.5c4.9,1.1,9.9,1.8,15,1.6c1.8-0.1,3.7,0,5.5,0c2,0,3.9,0.1,5.8,0.7c1.9,0.6,3.8,0.9,5.8,0.7
		c2.5-0.2,5.1,0.3,7.7-0.3c1.5-0.4,3.2,0.4,4.8,0.3c2.3-0.1,3.7,0.8,4.5,3c0.1,0.2,0.4,0.3,0.4,0.3c6.5,0,12.2,2.3,18.2,4
		c1.3-0.2,2.7-1.2,4.4-0.1c-0.8,0.3-1.5,0.5-2.1,0.9c-1.8,1.3-3.7,1.1-5.7,0.8c-0.4-0.1-0.7-0.2-1.1-0.3c-3-0.8-6-1.5-8.9-2.2
		c-1.3-0.3-2.5-0.8-4-0.6c0,1.5-0.1,2.9,0,4.2c0.3,6.4,0,12.8-1.8,19c-1.4,5.1-2.9,10.2-4.4,15.3c-1.9,6.4-4.2,12.6-7.5,18.4
		c-1.2,2.1-2.2,4.4-3.3,6.6c0.4,0.5,0.8,1,1.1,1.4C562.5,312.3,561.9,313.7,562.3,315.5z M118.6,299.2c-0.2,0-0.4,0-0.6,0.1
		c-3.5,1.4-6.8,1.8-10.2-0.5c-0.8-0.5-1.8-0.9-2.8-0.5c-3.1,1.2-6.1,0.5-9-0.2c-1.4-0.4-2.8-0.9-4.2-1.3c-1.5-0.5-2.9-0.3-4.2,0.6
		c-1.2,0.8-2.5,1.6-3.6,2.6c-2.9,2.5-5.7,5-6.7,8.9c-0.2,0.9-0.8,1.8-1.2,2.7c-2.4,4.8-4.8,9.7-7.3,14.5c-0.7,1.3-1.4,2.6-2.3,3.7
		c-4.5,5.3-6.9,11.6-8.1,18.3c-0.1,0.8-0.1,1.7-0.2,2.5c0.5,0,0.7,0,0.9-0.1c3.3-2,6.9-3.2,10.4-4.6c2.1-0.8,4.3-1,6.5-0.7
		c1.1,0.2,2.2,0.2,3.3,0.3c3.9,0.1,7.9,0.1,11.8,0.1c0.6,0,1.2-0.1,1.7-0.1c2-2.2,3.6-4.5,4.7-7.1c1.1-2.8,3-5,5.2-7
		c5.7-5.1,12.3-8.5,19.5-10.9c3.6-1.2,7.4-2,11.2-1.7c2,0.1,3.9,0.2,5.9,0.4c1,0.1,1.9-0.1,2.5-1.3c-0.4-1-0.8-2.2-1.1-3
		C133.2,309.4,125.9,304.3,118.6,299.2z M142.8,322.1c1.7,0.9,3.5,1.7,5.4,2.1c1.1-0.8,2.2-1.5,3.6-2.4c-1.7-0.9-3.1-1.6-4.8-2.5
		C146,320.7,143.4,319.6,142.8,322.1z M150.7,237.8c0.3-1-0.3-1.3-0.6-1.8c-0.4-0.6-0.9-1.2-1.3-1.8c-0.3-0.5-0.6-1.1-0.9-1.6
		c-0.4-0.6-0.8-1.1-1.2-1.7c-0.9,0.5-0.9,1.2-0.5,1.6c0.8,1.1,0.1,1.7-0.5,2.5C146.7,237.4,148.6,237.7,150.7,237.8z M140.5,228.2
		c3.5,1.1,3.5,1.1,5.3,0.6c-1.7-1.8-3.4-3.2-5.7-3.8c-0.1,0-0.4,0.3-0.6,0.5C139.8,226.3,140.2,227.2,140.5,228.2z M85.3,230.1
		c-0.9-0.2-1.5-0.4-2.2-0.6c-0.6-0.2-1.1-1.1-2-0.2c0.6,1.2,1.5,2,3,2.3C84.5,231.1,84.9,230.7,85.3,230.1z M134.1,223
		c-0.5,1.7-0.3,2.2,1.9,3.2C136.4,223.6,136.4,223.6,134.1,223z M89,220.5c-1.3-0.5-1.8-0.4-1.9,0.2c0,0.5,0.1,0.9,0.2,1.4
		c0.1,0.3,0.3,0.6,0.6,1.2C88.4,222.1,88.6,221.5,89,220.5z M83.6,214.8c-0.3-1.2-1.2-1.2-2.2-1.2C81.8,215.1,81.8,215.1,83.6,214.8
		z M77.5,215.6c1.7,0.5,2,0.3,1.6-1.7c-0.3,0.1-0.7,0.2-0.9,0.4C77.9,214.7,77.8,215.2,77.5,215.6z M103,213
		c0.2-0.3,0.4-0.5,0.6-0.7c-0.2-0.2-0.4-0.5-0.7-0.6c-0.6-0.1-1.1,0.4-0.8,0.7C102.3,212.6,102.6,212.7,103,213z M126.7,223.4
		c0.1-0.2,0.3-0.5,0.4-0.7c-0.6-0.3-1.3-0.5-1.9-0.8c-0.1,0-0.2,0.1-0.3,0.2c0,0.1,0,0.3,0,0.3C125.6,222.7,126.2,223.1,126.7,223.4
		z M83.2,221.8c0,0.2,0,0.5,0,0.7c0.7,0.1,1.3,0.2,2,0.3c0.1,0,0.4-0.3,0.4-0.5c0-0.2-0.2-0.5-0.3-0.5
		C84.6,221.8,83.9,221.8,83.2,221.8z M111.8,214.9c0-0.1,0-0.3-0.1-0.3c-0.4-0.2-0.8-0.4-1.2-0.6c-0.1,0-0.4,0.3-0.4,0.5
		c0,0.7,0.5,0.7,1,0.7C111.4,215.2,111.6,215,111.8,214.9z M86.6,225.6c-0.3-0.2-0.4-0.3-0.6-0.5c-0.2,0.2-0.4,0.4-0.5,0.7
		c0,0.1,0.3,0.4,0.4,0.4C86.2,226,86.4,225.8,86.6,225.6z M72.8,266.4c-0.2-0.2-0.4-0.5-0.6-0.7c-0.1-0.1-0.4,0.2-0.5,0.3
		c0.2,0.3,0.3,0.5,0.5,0.7C72.2,266.7,72.5,266.5,72.8,266.4z M85.8,210.8c0.4,0.1,0.8,0.3,1.2,0.4c0.1,0,0.3-0.2,0.3-0.2
		c-0.1-0.2-0.2-0.5-0.3-0.5c-0.3-0.1-0.6-0.1-0.9-0.1C85.9,210.4,85.9,210.6,85.8,210.8z M71,243.2c0.2,0.4,0.3,0.6,0.5,0.7
		c0.6,0.2,0.8-0.2,1-0.6c0-0.1-0.2-0.5-0.3-0.4C71.8,242.8,71.4,243,71,243.2z M80,223.8c-0.1-0.1-0.1-0.3-0.2-0.3
		c-0.2,0.1-0.4,0.2-0.6,0.2c0.1,0.1,0.2,0.3,0.2,0.3C79.7,223.9,79.8,223.8,80,223.8z M69.5,245.7c0-0.1,0-0.2,0.1-0.2
		c-0.1,0.1-0.2,0.1-0.2,0.2C69.4,245.7,69.5,245.7,69.5,245.7z M61.6,244c0-0.1-0.1-0.2-0.1-0.3c-0.1,0.1-0.2,0.2-0.2,0.2
		c0.1,0.1,0.2,0.2,0.2,0.3C61.5,244.1,61.6,244,61.6,244z M488.4,238.5c-0.1-0.1-0.1-0.1-0.2-0.1c-0.1,0-0.2,0-0.3,0
		c0.1,0.1,0.1,0.2,0.2,0.2C488.2,238.6,488.3,238.5,488.4,238.5z M89.7,217.8l0.3,0.1l0-0.2L89.7,217.8z M74.6,221.4l0.2,0.1l0-0.2
		L74.6,221.4z"/>
	<path d="M397.1,330c-1.7,0.1-3,0.2-4.8,0.3c1.4-1.9,3.3-1,4.6-1.8c0.5-0.9,0.1-1.5-0.7-1.6c-1.4-0.2-2.9-0.2-4.8-0.3
		c1.6-1.1,3-0.6,4.2-0.8c1-0.2,1.2-0.7,0.8-1.8c-1.9-0.1-4-0.3-5.9-0.4c-0.1-0.9,0.3-1.1,0.8-1.1c1.6-0.1,3.2-0.2,4.6-0.2
		c0.8-1,0.6-1.7,0.1-2.7c-1.4-1-3.4,0.3-4.8-1.1c0.3-0.8,1-0.5,1.5-0.6c0.5-0.1,1,0,1.5-0.1c0.6-0.1,1.2-0.2,1.9-0.3
		c-0.1-0.8-0.2-1.5-0.3-2.3c-1.4-0.2-2.5-0.3-3.7-0.5c0-0.1,0-0.3,0-0.4c1.1-0.2,2.3-0.4,3.5-0.6c0.5-1.2,0.3-2.4,0-3.3
		c-0.8-1.1-2.4-0.5-3-1.9c0.8-0.2,1.6-0.4,2.6-0.6c0-2.4-0.1-4.7-0.8-6.8c-1-0.4-1.8-0.8-2.9-1.3c0.9-0.4,1.5-0.6,2-0.8
		c0.2-2.6,0.1-3.1-0.9-6c0.8-0.8,1.7-0.9,2.6-0.3c0.5,0.8-0.7,0.9-0.7,1.4c0.8,4,1.6,7.8,2.3,11.7c0.4,1.9,0.5,3.9,0.8,5.8
		c0.2,1,0.5,1.9,0.7,2.8c0.1,0.3,0.5,0.8,0.4,1c-1.1,1.7-0.1,3.4-0.2,5c-0.3,3.6,0.3,7.1,0.5,10.6c0,0.3,0.2,0.7,0.3,1
		c9.2,3.1,14.8,5.8,18.3,9.1c-0.7,0-1.3,0.1-1.8,0c-4.4-0.8-8.6-2.2-12.7-3.7c-1.1-0.4-2.3-0.8-3.2-1.2c-1,0.4-0.9,1.1-1,1.7
		c-0.3,2.1-0.7,4.1-1,6.1c-0.9,0.2-1-0.3-1-0.8c-0.1-1-0.1-1.9-0.1-2.9c-2.2-0.7-4.3,0.1-6.2-0.6c-0.2-0.8,0.2-1,0.7-1.1
		c1.8,0,3.7,0,5.7,0c0.7-0.9,0.6-2.2,0.2-3.3c-0.4-1-0.5-1.7,0-2.8C397.4,332,397.1,331.1,397.1,330z"/>
	<path d="M428.5,390.4c1.1-0.5,1.6-0.8,2.1-1c4-1.3,8.1-2.1,12.2-2.5c6.9-0.8,13.9-1.5,20.9-1.6c6.4-0.1,12.7,0.5,20,0.7
		c-1.9,0.9-3,0.7-4.1,0.8c-1.2,0.1-2.4,0.3-3.7,0.3c-1.5,0.1-2.9,0.1-4.4,0.1c-12.8,0.5-25.4,1.7-38.1,3.6
		C432,391.1,430.5,391.5,428.5,390.4z"/>
	<path d="M396.7,247.1c-5.2,2.9-9.6,6.8-14.4,10.1c-0.8,0.6-1.6,1.2-2.5,1.5c-1.4,0.6-2.9-0.7-2.5-2.1c0.2-0.9,0.6-1.9,1.3-2.6
		c1.1-1.2,2.3-2.2,3.6-3.1C386.4,247.9,391.3,246.7,396.7,247.1z"/>
	<path d="M534.5,289.1c-6.8,3.1-13.6,6.3-20.3,9.6c-2.3,1.1-4.6,2.4-6.8,3.7c-3.3,1.9-6.4,4-7.9,7.7c-1-0.3-1.1-0.9-1-1.5
		c0.2-1.5,1.1-2.7,2.2-3.7c1.9-1.9,4.2-3.4,6.6-4.6c4.7-2.3,9.5-4.6,14.3-6.8c3.4-1.5,6.9-2.6,10.3-3.9
		C532.8,289.3,533.7,289.2,534.5,289.1z"/>
	<path d="M434.9,255.1c-0.2,0.5-0.2,1-0.5,1.3c-3.8,6.2-5.9,12.9-6.5,20.1c-0.4,4.4-0.3,8.8-0.2,13.3c-1.1,0.5-1.9,0.4-2.2-0.5
		c-0.2-0.6-0.4-1.2-0.4-1.8c-0.2-9.7,1-19.1,6-27.7c0.8-1.4,1.7-2.7,2.6-4C434.1,255.5,434.6,255.4,434.9,255.1L434.9,255.1z"/>
	<path d="M566.4,336.3c-0.5,0.8-1,1.6-1.6,2.3c-2.8,3.3-5.1,6.9-7.2,10.6c-2.7,4.8-4.8,9.9-5.2,15.5c-0.9,0.2-1.1-0.4-1.3-0.9
		c-0.5-1.7-0.3-3.4,0-5.1c0.2-1,0.5-1.9,0.8-2.8c2.7-6.7,6.2-12.8,11.1-18.1C564.2,336.6,564.3,336.6,566.4,336.3z"/>
	<path d="M513.9,293.4c-0.4,0.3-0.7,0.6-1.1,0.8c-7,2.2-14.1,4.3-21.1,6.6c-7.7,2.5-14.6,6.3-20.9,11.5c-0.2,0.1-0.4,0.2-0.7,0.3
		c-0.8-0.4-0.5-1.1-0.1-1.5c0.9-0.9,1.8-1.7,2.8-2.4c5.5-4.1,11.6-6.9,18-9.1c6.4-2.2,12.8-4.2,19.5-5.6
		C511.5,293.7,512.8,293.7,513.9,293.4L513.9,293.4z"/>
	<path d="M422.4,263.3c-0.1,4.2-0.2,8.3-0.2,12.5c0,6,1.3,11.9,2,17.9c0.1,1,0.2,1.9-0.1,3c-0.3-0.5-0.8-1-0.9-1.6
		c-1.6-8.7-3-17.4-2.3-26.3c0.1-1.7,0.6-3.4,1-5C422,263.6,422.3,263.5,422.4,263.3L422.4,263.3z"/>
	<path d="M405,267.1c-0.4-0.1-0.9-0.2-1.3-0.3c-4.2-1.6-8.4-2.8-12.9-2.9c-1,0-2-0.1-2.4-1.3c-0.2-0.8,0.9-1.5,2.5-1.5
		c4.9,0,9.5,1.2,13.4,4.4C404.7,265.8,405.3,266.2,405,267.1z"/>
	<path d="M446,285.9c-0.8,4.9-0.8,9.2-0.3,13.4c0.3,2.4,0.4,4.9,2.4,6.8c0.2,0.1,0.2,0.5,0.2,0.7c0.1,0.7-0.1,1.3-0.8,1.5
		c-0.4,0.1-1,0.1-1.4-0.1c-0.5-0.3-0.9-0.9-1.1-1.4c-0.8-1.8-1.4-3.7-1.4-5.7c0-3.9,0.2-7.9,0.3-11.8c0-0.8,0.4-1.7,0.7-2.4
		C444.7,286.6,445.1,286.4,446,285.9z"/>
	<path d="M441.5,315.1c0.6,0,1.2-0.1,1.8,0c6.9,1.7,14.1,1.9,21.1,2.7c0.1,0,0.1,0.2,0.2,0.5C456.6,319.3,449,317.9,441.5,315.1z"/>
	<path d="M401.9,313.3c0.1-0.9,0.7-1.1,1.3-1.1c1.1,0.1,2.2,0.3,3.3,0.5c6.1,1.5,12.3,2.2,18.5,2.3c0.4,0,0.7,0.1,1.3,0.3
		C417.9,316.6,409.9,315.4,401.9,313.3z"/>
	<path d="M527.3,315c2-2.3,4.6-3.9,7.1-5.7c2.9-2.1,5.8-4.3,9.2-6.1c0,0.6,0.1,0.9,0,1c-4.8,3.7-9.7,7.4-14.6,11
		c-0.3,0.2-0.8,0.3-1.2,0.4C527.6,315.4,527.5,315.2,527.3,315z"/>
	<path d="M494.7,247.6c-0.2,0.4-0.3,0.9-0.7,1.1c-3.7,2.4-7.8,4.3-12.1,5.3c-2.7,0.6-5.6,0.8-8.3,0.1c-0.2-0.8,0.2-1.1,0.7-1.1
		c5.9,0.6,11.1-1.4,16.3-3.8C492.1,248.8,493.4,248.3,494.7,247.6L494.7,247.6z"/>
	<path d="M555,394.1c-1.3-2.4-1.1-4.9-1-7.3c0.1-3.8-0.5-7.5,0.4-11.3c0-0.2,0.4-0.2,0.6-0.3C555.6,377.8,555.6,389.6,555,394.1z"/>
	<path d="M442.7,239.5c0.6-1,1.3-1.1,2-1c0.5,0.1,0.9,0.3,1.4,0.5c2.7,1.5,5.2,5.4,5.7,8.9c-0.6,0.4-0.8-0.2-1.1-0.5
		c-0.7-0.9-1.3-1.8-1.9-2.7C446.4,241.6,446.2,241.4,442.7,239.5z"/>
	<path d="M515.4,241.9c-4.9,1.4-6.1,5.7-8.8,8.8c-0.3-0.6-0.5-0.9-0.5-1.2c0.7-3.5,2.7-6.2,5.8-8.1
		C512.9,240.9,513.2,241,515.4,241.9z"/>
	<path d="M482.9,326.8c-3.1-0.6-6.3-1.1-9.4-1.7c-3.2-0.7-6.4-1.5-9.5-2.3c0.2-0.9,0.8-1,1.4-0.9c1.2,0.2,2.4,0.4,3.6,0.7
		c4.4,1.2,8.7,2.4,13.1,3.6C482.4,326.3,482.6,326.7,482.9,326.8L482.9,326.8z"/>
	<path d="M553.8,300.1c0,0.1,0.1,0.3,0.1,0.3c-1.4,3.9-1.3,7.9-0.8,11.9c0.1,0.7,0.1,1.4,0.2,2.8c-0.7-0.9-1.3-1.2-1.4-1.6
		c-0.7-3.1-0.9-6.3-0.4-9.5C551.7,302.4,552.3,301,553.8,300.1L553.8,300.1z"/>
	<path d="M403.2,291.3c-0.4,0-0.8,0.1-1.1-0.1c-2.5-1.5-5-3.1-7.5-4.7c-0.5-0.3-0.7-0.9-1.1-1.4c0.3-0.2,0.6-0.5,0.7-0.5
		c3.3,1.7,6.4,3.6,8.9,6.3C403.2,291,403.2,291.2,403.2,291.3L403.2,291.3z"/>
	<path d="M416.8,378.9c-6.2,1.1-9.6,0.7-12-1.7c1.6,0.3,2.9,0.6,4.1,0.8c1.2,0.2,2.4,0.3,3.7,0.5
		C413.9,378.5,415.2,378.4,416.8,378.9z"/>
	<path d="M415.7,352.5c-3,0.2-5.4-0.4-7.8-1.3c-0.2-0.1-0.3-0.5-0.3-0.8c0-0.1,0.3-0.3,0.5-0.4c0.2-0.1,0.5-0.1,0.7,0
		C411,350.7,413.3,351.1,415.7,352.5z"/>
	<path d="M407.6,295.7c-0.4,0-0.8,0.1-1.1,0c-2.2-0.8-4.3-1.7-6.4-2.5c-0.2-0.1-0.3-0.4-0.4-0.5c0-0.7,0.6-0.6,1-0.6
		c0.4,0,0.8,0.1,1.1,0.3C403.7,293.5,405.9,294.1,407.6,295.7L407.6,295.7z"/>
	<path d="M489,355.5c-1.3-0.6-1.3-1.9-1.6-3.1c-0.6-2.2-0.6-2.3-0.2-4.8c1,1.3,0.7,2.7,0.9,4C488.4,352.9,488.7,354.2,489,355.5
		L489,355.5z"/>
	<path d="M405.8,319.2c3.8-0.4,3.8-0.4,5.9,0.6C409.4,320,407.5,320.4,405.8,319.2z"/>
	<path d="M539.2,249.9c-0.5-2,0.8-3.2,3.4-3.4c-0.7,0.7-1.4,1.2-1.9,1.8C540.2,248.8,539.7,249.3,539.2,249.9z"/>
	<path d="M391,333.1c2-0.4,3.3-0.9,4.6,0.5C393.3,334.3,393.3,334.3,391,333.1z"/>
	<path d="M535.5,341.6c0.6-2,0.6-2,2.2-4.1C537.1,339.8,537.1,339.8,535.5,341.6L535.5,341.6z"/>
	<path d="M531,348.2c-0.1,1.6-0.8,2.8-2.3,3.6l0.1,0.1C529.1,350.4,529.6,349.1,531,348.2L531,348.2z"/>
	<path d="M390.1,285.5c0.8-0.5,1.5-0.9,2.2-1.3c0.6,0.6,0.3,1-0.1,1.3C391.6,285.8,391,286.2,390.1,285.5z"/>
	<path d="M406.9,364.4c0.5,0.3,1.1,0.5,1.8,0.8C407.7,365.9,407.2,365.5,406.9,364.4z"/>
	<path d="M534,343.8c0,1.1-0.4,1.9-1.5,2.2l0.1,0.1C532.5,344.9,532.9,344.1,534,343.8L534,343.8z"/>
	<path d="M532.5,346c0.1,1.1-0.4,1.9-1.5,2.2l0.1,0.1C531,347.1,531.5,346.4,532.5,346L532.5,346z"/>
	<path d="M534,343.8c-0.1-1.1,0.3-1.9,1.5-2.2l-0.1-0.1C535.4,342.6,535,343.4,534,343.8L534,343.8z"/>
	<path d="M482.8,326.9c0.8,0,1.6,0,2.7,0C484.4,327.6,483.7,327.2,482.8,326.9L482.8,326.9z"/>
	<path d="M514,293.5c0.5-0.3,0.9-0.7,1.8-0.1C515,293.4,514.4,293.4,514,293.5L514,293.5z"/>
	<path d="M430,314.6C430.4,314.6,430.2,314.6,430,314.6C430.2,314.6,430.4,314.6,430,314.6z"/>
	<path d="M422.5,263.4c0-0.5,0-1,0-1.5c0.1,0,0.2,0,0.4,0.1C422.7,262.4,422.6,262.9,422.5,263.4L422.5,263.4z"/>
	<path d="M488.9,355.6c0.1,0.2,0.3,0.5,0.1,0.2C489.1,356.1,489,355.8,488.9,355.6L488.9,355.6z"/>
	<path d="M407.6,295.8c0.3,0,0.6,0.1,1.1,0.1C408.1,296.5,407.8,296.2,407.6,295.8L407.6,295.8z"/>
	<path d="M496.3,247c-0.3,0.7-0.8,0.9-1.5,0.7l0.1,0.1C495.1,247,495.7,247,496.3,247L496.3,247z"/>
	<path d="M427.6,249.3c0.2,0,0.4,0,0.7,0.1c0.1,0,0.2,0.1,0.3,0.2c-0.2,0.1-0.4,0.3-0.5,0.2C427.8,249.6,427.8,249.4,427.6,249.3
		L427.6,249.3z"/>
	<path d="M552,250.7c0-0.1-0.1-0.2-0.1-0.3c0,0,0.1-0.1,0.2-0.1c0,0.1,0.1,0.2,0,0.3C552.2,250.7,552.1,250.7,552,250.7z"/>
	<path d="M436.6,253.7c0.2-0.2,0.3-0.3,0.5-0.5C436.8,253.3,436.6,253.5,436.6,253.7L436.6,253.7z"/>
	<path d="M528.7,351.8c0.1,0.6,0.1,1.3-0.7,1.5l0.1,0.1C528.1,352.8,528.1,352.2,528.7,351.8L528.7,351.8z"/>
	<path d="M528,353.3c0,0.2,0,0.5-0.1,0.7c0,0.1-0.1,0.2-0.2,0.3c-0.1-0.2-0.2-0.4-0.2-0.5C527.7,353.6,527.9,353.5,528,353.3
		L528,353.3z"/>
	<path d="M427.6,249.2c-0.1,0-0.2-0.1-0.3-0.1C427.4,249.1,427.5,249.2,427.6,249.2L427.6,249.2z"/>
	<path d="M403.2,291.3c0.2,0.1,0.4,0.2,0.5,0.3C403.3,292.1,403.2,291.8,403.2,291.3L403.2,291.3z"/>
	<path d="M435.7,254.4c-0.3,0.2-0.5,0.5-0.8,0.7l0.1,0.1C435,254.6,435.2,254.4,435.7,254.4L435.7,254.4z"/>
	<path d="M435.8,254.5c-0.1-0.6,0.3-0.8,0.8-0.8l-0.1-0.1C436.2,253.9,436,254.1,435.8,254.5L435.8,254.5z"/>
	<polygon points="498.6,245.5 498.7,245.3 498.5,245.4 	"/>
	<polygon points="498.5,245.4 498.4,245.6 498.6,245.5 	"/>
	<path d="M496.4,247.1c0.1-0.1,0.2-0.3,0.3-0.4c0,0.1,0,0.2-0.1,0.2C496.5,246.9,496.4,246.9,496.4,247.1L496.4,247.1z"/>
	<path d="M553.9,300.2C554,300,553.8,300.1,553.9,300.2L553.9,300.2z"/>
	<path d="M347.6,370.1c3.2-0.6,5.8-1,8.5-1c3.6,0,7.1-0.1,10.7-0.2c1.7-0.1,3.4-0.4,5.1-0.6c2.5-0.3,4.7-1.4,6.5-3.2
		c1.3-1.3,2.6-1.8,5.1-2.4c0,0.1,0,0.2,0,0.3c-1.9,1.6-3.6,3.2-5.4,4.9c-2.3,2.2-5.4,2.8-8.5,3.2c-7,1-14,0.6-21-0.2
		C348.5,370.9,348.3,370.7,347.6,370.1z"/>
	<path d="M260.4,329.5c0.3-1.5,1.2-1.8,2-1.8c1.4,0.1,2.9,0.3,4.3,0.7c2.5,0.6,4.9,1.6,7.4,2.1c3.2,0.6,6.5,0.9,9.8,1.4
		c0.4,0.1,0.9,0.2,1.8,0.4c-1,0.6-1.5,1.1-2.2,1.3c-3,0.8-6.1,0.7-9.1,0.2c-1.6-0.2-3.1-0.7-4.6-1.1
		C266.8,331.7,263.7,330.6,260.4,329.5z"/>
	<path d="M234,325.9c0.8-0.8,1.6-0.7,2.1-0.2c1.3,1.1,2.6,2.3,3.6,3.6c0.9,1.1,1.4,2.5,2.1,3.8c-0.7,0.7-1,0.1-1.3-0.1
		c-2.1-2-4.2-4.1-6.3-6.1C234.1,326.7,234.1,326.4,234,325.9z"/>
	<path d="M331.8,339.1c0.3-0.6,0.5-1.1,0.7-1.1c0.8-0.2,1.7-0.3,2.6-0.2c3.4,0.3,6.5,1.5,9.7,2.7C340.4,341,336.4,339.1,331.8,339.1
		z"/>
	<path d="M235.7,379.6c1.6-1.5,5.7-3.2,9.1-3.7c-1.4,1.8-3.4,3.2-5.7,4C237.8,380.2,237.4,380.2,235.7,379.6z"/>
	<path d="M286.8,282.1c-0.9-2.4-1.2-4.6-0.2-6.8c1.4,0.7,1.1,1.9,1.1,2.9C287.7,279.4,288.1,280.9,286.8,282.1z"/>
	<path d="M341.4,371.4c-0.3,0.3-0.5,0.5-0.6,0.5c-2.4,0.2-4.7,0.4-7.3,0.7c0.8-1.5,2-1.8,3.1-1.9
		C338.1,370.5,339.8,370.3,341.4,371.4z"/>
	<path d="M301.7,284.9c-1.5-2.2-2.1-4.4-3.3-6.3c1.1-0.7,1.5,0.1,1.9,0.6C301.3,280.8,302.4,282.4,301.7,284.9z"/>
	<path d="M322.7,375.6c0.1-0.3,0.2-0.7,0.5-0.9c1.7-0.9,3-1.2,6-1.1C326.8,374.7,324.8,375.4,322.7,375.6L322.7,375.6z"/>
	<path d="M360.5,295.9c3,0,3.4,0.1,6.1,2.6C364.5,298,362.7,297.6,360.5,295.9z"/>
	<path d="M291.9,334.3c-1.4,1.1-2.3,1.4-3.3,1.1c-0.4-0.1-0.6-0.6-0.9-1c0.3-0.2,0.6-0.6,0.8-0.6C289.5,333.8,290.4,334,291.9,334.3
		z"/>
	<path d="M352.9,293.6c-1.8,0.1-3.5,0-5.2-1.2c0.4-0.3,0.7-0.8,0.9-0.7C350.1,292,351.9,292.1,352.9,293.6L352.9,293.6z"/>
	<path d="M284.9,285.3c-0.1,2,0.3,3.5-0.7,5c-0.8-2.1-0.8-2.3-0.4-3.7C283.9,286.2,284.3,285.9,284.9,285.3z"/>
	<path d="M311.1,274.5c1.1,0.7,1.9,1.8,2.6,2.7c-0.4,0.8-0.8,0.8-1.2,0.4c-0.7-0.8-1.3-1.7-2-2.5
		C310.7,274.8,310.9,274.6,311.1,274.5z"/>
	<path d="M261.5,374.4c0.9-1.6,2.3-2.2,4.6-2.7C264.6,373.7,263.3,374.6,261.5,374.4z"/>
	<path d="M314.4,378.4c-0.1,0.2-0.2,0.5-0.4,0.5c-1.8,0.4-3.5,0.5-5.9,0.3c1.4-1,2.5-0.7,3.4-0.8
		C312.5,378.4,313.5,378.5,314.4,378.4L314.4,378.4z"/>
	<path d="M336.3,286.8c1.2,1.1,2,1.8,2.9,2.6C336.9,289.5,336.2,289,336.3,286.8z"/>
	<path d="M351.6,340.2c-0.8,1.3-1.6,1.3-3,0.2C350,340.3,350.8,340.2,351.6,340.2z"/>
	<path d="M241.6,320.5c-0.8,0.8-1.5,1.2-2.7,0.7C239.6,319.8,240.6,320.3,241.6,320.5z"/>
	<path d="M254.7,368.2c0.1-0.3,0.1-0.8,0.3-0.9c0.8-0.6,1.7-0.8,2.8-0.2C256.9,368.1,255.9,368.3,254.7,368.2L254.7,368.2z"/>
	<path d="M247.8,317.3c0.5-0.1,1.1-0.2,1.6-0.2c0.3,0,0.6,0.2,1.2,0.4c-0.8,0.2-1.2,0.4-1.6,0.5c-0.4,0.1-0.8,0-1.2,0
		C247.8,317.9,247.8,317.6,247.8,317.3z"/>
	<path d="M242.3,336.7c0.8,1.2,1.3,1.9,2.1,3.1C242.9,338.7,242.9,338.7,242.3,336.7z"/>
	<path d="M298.3,382.2c-1.3,0.3-2.2-0.3-3.7-1.5C296.4,380.9,297.5,381.2,298.3,382.2L298.3,382.2z"/>
	<path d="M251.3,371.1c-0.5,0.2-0.9,0.3-1.3,0.4c-0.1,0-0.4-0.4-0.3-0.5c0.1-0.6,0.6-0.6,1.1-0.5C250.9,370.6,251,370.8,251.3,371.1
		z"/>
	<path d="M327.2,287.7c0.3-0.2,0.5-0.4,0.5-0.4c0.2,0.2,0.4,0.5,0.6,0.7c-0.1,0.1-0.2,0.2-0.3,0.2
		C327.8,288,327.5,287.9,327.2,287.7z"/>
	<path d="M298.2,382.3c0.5,0,1,0,2.1,0C299.2,382.8,298.6,382.9,298.2,382.3L298.2,382.3z"/>
	<path d="M314.5,378.5c0.2-0.1,0.5-0.2,0.2-0.1C315,378.4,314.7,378.4,314.5,378.5L314.5,378.5z"/>
	<path d="M352.8,293.6c0.3,0,0.6,0.1,0.3,0C353.4,293.8,353.2,293.7,352.8,293.6L352.8,293.6z"/>
	<path d="M297.2,336c0.1,0,0.2-0.1,0.3-0.1c0,0.1,0.1,0.2,0.1,0.4c-0.1,0-0.2,0-0.3-0.1C297.3,336.2,297.2,336.1,297.2,336z"/>
	<path d="M322.6,375.5c-0.1,0.1-0.2,0.2-0.3,0.3c0-0.1,0.1-0.2,0.1-0.2C322.5,375.6,322.6,375.6,322.6,375.5L322.6,375.5z"/>
	<polygon points="295.6,272.5 295.7,272.4 295.7,272.6 	"/>
	<path d="M254.7,368.1c0,0.1-0.1,0.2-0.1,0.2C254.6,368.3,254.7,368.3,254.7,368.1L254.7,368.1z"/>
	<path d="M110.9,382.5c4-1.3,7-2.6,10.2-3.3c6.6-1.4,13.1-3,19.5-5.2c0.9-0.3,1.9-0.6,2.8-1c0.5-0.2,0.9-0.3,1.3-0.6
		c3.3-2.4,3.3-2.4,6.8-1.9c-1.7,2.6-4.2,4.3-6.8,5.7c-6.3,3.4-13.2,5.3-20.1,6.8C120.3,383.9,116.1,383.7,110.9,382.5z"/>
	<path d="M187.1,364.3c-3.6,0.4-6.9,0.6-10.2,0.2c-2.1-0.2-4.2-0.3-6.2,0.3c-0.9,0.3-1.9,0.4-2.9,0.4c-4.2,0.1-8.4,0.2-12.5,0.1
		c-3.9-0.1-7.5-1.2-10.9-3.1c-0.4-0.2-0.6-0.7-1.2-1.2c2.4-0.2,4.5-0.1,6.5,0.3c6.3,1.2,12.7,1,19.1,1c0.7,0,1.5-0.1,2.2-0.3
		c5.4-1.3,10.5,0,15.6,1.4C186.7,363.4,186.8,363.7,187.1,364.3z"/>
	<path d="M106.9,383.4c-2.7,0-5.1,1.7-8.1,1.2c1.8-1.4,1.8-1.4,3.9-1.8C104.1,382.5,105.5,382.3,106.9,383.4z"/>
	<path d="M161.5,368.9c-2.7,0.9-4.5,0.9-6.4,0.3C156.5,367.8,157.5,367.7,161.5,368.9z"/>
	<path d="M70.5,299.6c-0.1-0.3-0.3-0.5-0.3-0.7c0.1-2.3,0.3-4.6,0.5-7.2c1,1.5,1.1,1.5,0.9,4.2C71.6,297.3,71.8,298.7,70.5,299.6z"
		/>
	<path d="M41.4,383.3c0.5,1.7,0.5,1.7-1.2,3.5C39.7,384.2,39.7,384.2,41.4,383.3z"/>
	<path d="M199.4,364.8c-1.4,0.6-2.8,0.4-4.2,0.3c0.2-1.2,0.9-1.2,1.6-1.3C198.1,363.8,198.1,363.8,199.4,364.8z"/>
	<path d="M139.1,360.7c-2.2,0.3-3.5-1-5.1-1.5c0.3-0.9,1-0.7,1.5-0.6C136.8,358.8,137.9,359.5,139.1,360.7z"/>
	<path d="M140.1,328.8c-2.1,0.3-3.5,0.5-5,0C136.6,327.4,137.1,327.3,140.1,328.8z"/>
	<path d="M76,270.8c2.1,0.3,2.8,1.5,2.5,4.1C77.2,273.8,76.7,272.5,76,270.8z"/>
	<path d="M66,302.6c0.6,1.4,0.5,2.7-0.9,4C64.4,305,65.1,303.8,66,302.6z"/>
	<path d="M60.1,311.6c0,1.7,0,2.7,0,3.8C58.5,314.2,58.4,313.9,60.1,311.6z"/>
	<path d="M82.5,387.2c-1,0-2.1,0-3.2,0C80.4,385.9,80.4,385.9,82.5,387.2z"/>
	<path d="M69.8,388.2c2-1.2,2.2,0.7,3.2,0.9C71.6,389.2,71.6,389.2,69.8,388.2z"/>
	<path d="M123.8,358.5c0.8,0.1,1.5,0.1,2.9,0.2C125.3,359.5,124.6,359.2,123.8,358.5z"/>
	<path d="M55.9,319.8c0,0.9,0,1.7,0,2.5c-0.2,0.1-0.4,0.1-0.4,0.1C54.9,321.6,55,320.7,55.9,319.8z"/>
	<path d="M127.7,329.4c-0.4,0.1-0.8,0.2-1.2,0.3c-0.1,0-0.3-0.2-0.3-0.2c0.1-0.3,0.2-0.7,0.4-0.8c0.3-0.1,0.6,0.1,0.9,0.2
		C127.6,328.9,127.7,329.1,127.7,329.4z"/>
	<path d="M109.6,356.2c0.7-0.5,1.1,0.3,1.7,0.5C110.6,356.9,110,357,109.6,356.2z"/>
	<path d="M18.7,343.1c0,0.5,0,1.1,0.1,1.6c-0.1,0-0.2,0-0.3,0c0-0.5,0-1.1,0-1.6C18.5,343.1,18.6,343.1,18.7,343.1z"/>
	<path d="M89.5,386.1c0.7,0,1.3,0,2,0c0,0.1,0,0.2,0,0.4c-0.7,0-1.3,0-2,0C89.5,386.3,89.5,386.2,89.5,386.1z"/>
	<path d="M77.7,279.4c-0.2,0.1-0.3,0.2-0.5,0.4c-0.1-0.2-0.3-0.5-0.4-0.7c0.2-0.1,0.4-0.2,0.6-0.2C77.6,279,77.6,279.3,77.7,279.4z"
		/>
	<path d="M76.2,282c0.1,0.1,0.3,0.3,0.3,0.4c0,0.2-0.2,0.3-0.3,0.5c-0.1-0.1-0.2-0.2-0.2-0.3C76,282.4,76.1,282.2,76.2,282z"/>
	<path d="M37.7,388.3c0.1,0,0.2,0,0.2,0c0,0.1-0.1,0.3-0.1,0.4c-0.1-0.1-0.2-0.1-0.2-0.2C37.6,388.5,37.6,388.4,37.7,388.3z"/>
	<polygon points="21.1,355.6 21,355.5 21,355.7 	"/>
	<path d="M102.1,355.1c0.1,0.1,0.1,0.1,0.2,0.2c-0.1,0.1-0.2,0.2-0.2,0.2c-0.1,0-0.1-0.1-0.2-0.2C101.9,355.2,102,355.1,102.1,355.1
		z"/>
	<path d="M21,355.7c0.1,0,0.2,0,0.3,0.1C21.3,355.7,21.2,355.7,21,355.7L21,355.7z"/>
	<path d="M592.4,390.3c-1.8-0.1-3.6,0.4-5.7-0.2c0.3-0.6,0.3-1.1,0.6-1.4c1.5-1.4,3.2-2.6,5.1-3.4c1.7-0.7,3.3-1.6,5-2.2
		c1.5-0.5,3-0.9,4.6-1.2c0.3-0.1,0.7,0.2,1.2,0.4c-0.3,1.9-1.4,3.1-2.8,4c-1.4,0.9-3,1.6-4.5,2.4c-1.2,0.6-2.4,1.1-3.6,1.7
		L592.4,390.3z"/>
	<path d="M660.7,356.4c-1.2,1.5-2.6,1.6-3.7,1.9c-3.2,0.8-6.6,1-9.9,0.7c-1.1-0.1-2.2-0.2-2.9-1.6c0.4-0.3,0.8-0.8,1.3-0.9
		c0.8-0.2,1.7-0.2,2.6-0.2C652.2,356.3,656.3,356.4,660.7,356.4z"/>
	<path d="M775.6,358.9c1.1-0.5,1.6-0.8,2-0.8c3.2,0,6.3,0,9.5,0.1c0.3,0,0.6,0.3,0.9,0.5C785.7,359.8,780.3,360,775.6,358.9z"/>
	<path d="M649,382.3c-2.3,0.2-5.6-1.5-8.3-4.3c0.4-0.1,0.8-0.3,1.1-0.2C643.2,378.4,647.7,381.2,649,382.3z"/>
	<path d="M665.3,355.9c1.5-0.6,2.9-0.4,4.4-0.1C667.2,357.2,667.2,357.2,665.3,355.9z"/>
	<path d="M769.1,359.2c1.1-0.3,1.5-0.4,1.8-0.5c0.3,0,0.7,0.1,1.1,0.1C771.4,359.8,771.4,359.8,769.1,359.2z"/>
	<path d="M635.4,372c0.7,0.7,1.3,1.4,2.3,2.4C636,374,636,374,635.4,372z"/>
	<path d="M676.2,354.9c0.4-0.8,0.8-1.6,2-1.3C678.1,354.7,677.2,354.8,676.2,354.9z"/>
	<path d="M604.3,380.2c0.2-0.9,0.6-1.5,1.6-1.5C605.4,380.3,605.4,380.3,604.3,380.2z"/>
	<path d="M761.5,359.6c0.5-0.6,1.1-0.3,1.8,0.1C762.6,360.1,762,360.2,761.5,359.6z"/>
	<path d="M611.4,370.3c0,0.4,0,0.8-0.1,1.2c-0.1,0-0.3,0-0.4,0c0-0.4,0-0.8,0.1-1.2C611.1,370.3,611.3,370.3,611.4,370.3z"/>
	<path d="M754.3,359.8c-0.4,0-0.8,0.1-1.1,0.1c0-0.1,0-0.2,0-0.3c0.4-0.1,0.8-0.1,1.1-0.2C754.3,359.6,754.3,359.7,754.3,359.8z"/>
	<path d="M199.7,217.3c1.2,3.8,1.5,7,1.4,10.1c0,0.8-0.2,1.8-1.4,1.8c-1.1-0.9-1-2.1-1.1-3.3C198.5,223.2,198.1,220.5,199.7,217.3z"
		/>
	<path d="M235,222.8c0,1-0.7,1.2-1.4,1.2c-1.7,0-3.6,0.7-5.3-1.2C230.7,222.8,232.8,222.8,235,222.8z"/>
	<path d="M284.6,198.6c-1.3-0.6-2.6-1-3.8-2.3c0.7-0.1,1.2-0.4,1.5-0.2c0.8,0.4,1.6,1,2.3,1.6C284.8,197.8,284.6,198.2,284.6,198.6z
		"/>
	<path d="M207.3,205.5c-0.7,0.7-1.3,1.3-1.9,2c-0.9-0.4-0.7-1-0.3-1.5C205.6,205.3,206.2,204.6,207.3,205.5z"/>
	<path d="M293.1,209.7c0-1.7,0.8-2,2.5-2.3c-0.8,0.8-1.1,1.1-1.4,1.4C293.9,209.1,293.6,209.3,293.1,209.7z"/>
	<path d="M286.7,201.7c1.1,0.5,1.1,0.5,0.8,1.2C287.2,202.4,287,202.1,286.7,201.7z"/>
	<path d="M251.2,208.4c-0.5,0.1-0.9,0.2-1.4,0.2c-0.1,0-0.3-0.3-0.4-0.4c0,0,0.2-0.2,0.2-0.2c0.5,0,1,0.1,1.5,0.1
		C251.2,208.1,251.2,208.3,251.2,208.4z"/>
	<path d="M252.4,203.5c-0.3,0.2-0.4,0.3-0.6,0.4c-0.1-0.3-0.2-0.6-0.3-0.9c0,0,0.2-0.2,0.3-0.2C252,203,252.2,203.2,252.4,203.5z"/>
	<path d="M203.2,212.3c0.2,0.7,0.3,1,0.3,1.3c0,0.1-0.2,0.2-0.3,0.3c-0.1-0.1-0.2-0.2-0.2-0.3C203,213.4,203.1,213.1,203.2,212.3z"
		/>
	<path d="M223.6,221.1c-0.3-0.1-0.6-0.1-0.9-0.2c0-0.1,0-0.2,0.1-0.2C223.3,220.5,223.6,220.5,223.6,221.1L223.6,221.1z"/>
	<polygon points="223.6,221.2 223.8,221.3 223.6,221.1 	"/>
	<path d="M618.2,283.4c4.1-0.4,7.5-1.1,10.9-2.3c0.7-0.3,1.6-0.6,2.4,0.4c-2.7,1.8-5.8,2.5-8.8,3
		C621.3,284.7,619.9,284.7,618.2,283.4z"/>
	<path d="M490.4,215c-3,0.2-5.4-0.6-7.4-3.1c0.7-0.4,1.2-0.9,1.6-0.8c0.9,0.2,1.8,0.7,2.7,1.2C488.4,212.9,489.6,213.5,490.4,215z"
		/>
	<path d="M548.4,224.4c-0.2,0.3-0.4,0.8-0.6,0.8c-1.8,0.3-3.5,0.6-5.4-0.3C544.3,223.9,544.3,223.9,548.4,224.4z"/>
	<path d="M603.9,246c1.7-1.7,2.4-1.7,4.3-0.1C606.9,246.6,605.6,246.4,603.9,246z"/>
	<path d="M500.9,219.2c1.2,0.2,2.4,0.4,3.3,1.4C501.3,220.7,500.7,220.5,500.9,219.2z"/>
	<path d="M536.4,225.3c-0.9,0.1-1.5,0.3-2.2,0.3c-0.3,0-0.7-0.1-1-0.2c-0.3-0.6,0-1,0.5-1C534.7,224.4,535.6,224.4,536.4,225.3z"/>
	<path d="M622.2,258.4c1.5-0.7,2.9-0.3,4.3-0.3C624.7,258.9,624.7,258.9,622.2,258.4z"/>
	<path d="M603.2,285.6c0.8,0,1.6,0,2.4,0c0,0.1,0,0.2,0,0.3c-0.8,0.1-1.5,0.1-2.3,0.2C603.3,286,603.2,285.8,603.2,285.6z"/>
	<path d="M618.2,258.7c-0.6-0.1-1.3-0.1-2.1-0.2C616.9,257.8,616.9,257.8,618.2,258.7z"/>
	<path d="M495.6,216.7c-0.5-0.1-0.9-0.1-1.3-0.2c-0.3-0.1-0.5-0.5-0.9-1C494.5,215.5,495.3,215.6,495.6,216.7L495.6,216.7z"/>
	<path d="M594.9,287.5c-0.1-0.1-0.2-0.2-0.3-0.3c0.2,0,0.4-0.1,0.6-0.1c0.1,0,0.2,0.1,0.2,0.2C595.2,287.3,595.1,287.4,594.9,287.5z
		"/>
	<path d="M512,223.9c-0.4-0.1-0.7-0.2-1.1-0.3c0.1-0.1,0.2-0.2,0.2-0.2c0.3,0,0.6,0.1,0.9,0.2C512,223.7,512,223.8,512,223.9z"/>
	<path d="M614.9,284.5c-0.3,0.1-0.7,0.1-1,0.1c-0.2,0-0.3-0.2-0.4-0.4c0.1-0.1,0.2-0.2,0.3-0.2c0.4,0,0.8,0.1,1.2,0.2
		C615,284.3,614.9,284.4,614.9,284.5z"/>
	<path d="M495.5,216.8c0.2,0,0.4,0,0.6,0c0.1,0,0.2,0.1,0.3,0.2c-0.2,0.1-0.4,0.3-0.4,0.2C495.8,217.1,495.7,216.8,495.5,216.8
		L495.5,216.8z"/>
	<path d="M197.5,277.4c0.8,8.4,2.9,16.4,5.4,24.2c-0.7,1.1-1.4,1.1-1.9,0.4c-0.7-1.1-1.3-2.4-1.7-3.6
		C196.8,291.6,196.3,284.5,197.5,277.4z"/>
	<path d="M155.1,313.9c-1.2,0.2-1.7,0.3-2.1,0.3c-4.1,0-7.6-1.5-10.9-3.8c-0.7-0.5-1.2-1.2-1.7-1.9c-0.2-0.2-0.1-0.8,0.1-1
		c0.2-0.3,0.6-0.4,0.9-0.5c0.2,0,0.5,0.1,0.7,0.2c3.8,1.8,7.5,3.5,11.3,5.3C153.8,312.7,154.1,313.1,155.1,313.9z"/>
	<path d="M174,261.7c-0.7,0.6-1.1,0.2-1.5-0.1c-1.9-1.4-3.8-2.7-5.5-4.2c-0.3-0.3-0.4-1.2-0.1-1.7c0.2-0.4,1-0.8,1.5-0.8
		c0.7,0,1.4,0.3,2,0.7C172.4,257.2,173.5,259.3,174,261.7z"/>
	<path d="M157.7,296.1c0.4-0.1,0.5-0.1,0.6-0.1c3,1.8,5.9,0.9,8.7-0.4c0.3-0.1,0.7-0.2,1.1-0.3c0.1,0,0.2,0,0.4,0
		c0.8,0.5,0.9,1.2,0.3,1.8c-0.5,0.5-1.2,0.9-1.8,1.1c-1.5,0.4-3.1,1-4.6,1c-1.8,0-3.5-0.8-4.7-2.4
		C157.4,296.8,157.6,296.5,157.7,296.1z"/>
	<path d="M197.4,267.3c-0.5-2.1-0.5-2.1,0.1-4.4C198.9,265,198.8,266.4,197.4,267.3z"/>
	<path d="M196.9,258.4c-0.9-1.4-1.6-2.9-0.9-4.7C197.1,254.9,197.1,254.9,196.9,258.4z"/>
	<path d="M159.6,315.4c-0.4-0.3-0.9-0.6-1.3-1c-0.1-0.1-0.1-0.5,0-0.6c0.1-0.2,0.5-0.4,0.6-0.3c0.5,0.3,1,0.6,1.5,0.9
		c0.1,0.1,0.1,0.5,0,0.6C160.3,315.2,160,315.3,159.6,315.4z"/>
	<path d="M171,290.2c0.4,0.5,0.8,0.9,1.1,1.3c0,0.1-0.2,0.4-0.3,0.5c-0.6,0.2-1.2-0.3-1.2-1C170.5,290.8,170.7,290.6,171,290.2z"/>
	<polygon points="181.1,272.3 181.2,272.5 181,272.5 	"/>
	<path d="M101.7,262.7c-1-0.1-1.4-0.2-1.6-0.1c-0.8,0.5-1.7,1.1-2.3,1.8c-1,1.1-1.9,2.2-3.4,2.7c-1,0.3-1.5,1.2-1.7,2.3
		c-0.2,1.3-0.4,2.7-0.8,4c-0.1,0.3-0.6,0.6-1.2,1.1c-0.2-3.7,0.2-6.8,2.1-9.5c0.3-0.5,1-0.7,1.5-1c0.3-0.2,0.7-0.4,0.7-0.7
		c0.7-3.1,3.3-4.4,5.5-6.1c0.8-0.6,1.8-0.8,2.8-0.4c0.7,0.3,1.4,0.5,1.8,0.6c0.9,1.6-0.8,2.1-0.8,3.2c0.5,0.3,1.1,0.6,1.6,0.8
		c-0.1,1.1-1.8,1.5-0.9,2.9c0,0.1,0,0.2-0.1,0.3c-1.2,1.7-2.3,3.5-3.6,5.1c-1.4,1.7-2.9,3.3-4.4,4.9c-0.1,0.1-0.4,0.1-0.8,0.2
		c-0.6-1.3-0.5-2.5,0.4-3.7c0.6-0.8,1.2-1.6,1.6-2.4c0.5-1,0.6-2.2,1.1-3.1C99.6,264.7,100.5,264,101.7,262.7z"/>
	<path d="M125.9,235.6c-1.3,2-2.4,4.1-3.8,5.9c-1.3,1.8-2.8,3.4-4.3,5.1c-1.2-0.1-2.3-0.3-3.5-0.4c-0.9,1-1.7,1.9-2.6,2.8
		c-1.5-0.7-1.6-2.2-2.5-3.1c0.3-2.8,1.7-5,3.1-7.1c0.4-0.7,1.5-0.9,2-1.5c0.5-0.6,0.4-1.8,0.9-2.3c1-1.1,2.2-2,3.4-2.7
		c1.4-0.8,2.9-1.2,4.4-1.8c0.1-0.1,0.4,0.2,0.8,0.5c-0.3,0.4-0.4,0.9-0.8,1.1c-1.1,0.6-2.2,1.1-3.3,1.5c-1.1,0.5-2,1.2-2,2.4
		c0,1.6-0.9,2.7-1.8,3.9c-0.8,1.1-1.4,2.3-0.9,4c0.5-0.4,1-0.7,1.1-1c0.5-1.5,1.4-2.6,2.8-3.3c1.3-0.7,2.5-1.6,3.2-2.9
		c0.6-1.1,1.6-1.5,2.8-1.5C125.3,235.1,125.6,235.4,125.9,235.6z"/>
	<path d="M138,286.3c-0.3-0.9-0.5-1.6-0.8-2.3c-0.5-1.3-0.3-2.6,0.6-3.5c1.4-1.4,2.2-3.2,3.2-4.9c1.6-2.9,2.7-3.2,6.4-2.2
		c0.6,1.3,0,2.5-0.9,3.3c-1.9,1.9-2.9,4.2-4.3,6.4C141.4,284.6,140.5,286.1,138,286.3z"/>
	<path d="M130,286.5c-0.4-0.5-1.1-1-1-1.4c0.1-0.7,0.4-1.4,0.9-1.9c2.4-2.5,4.2-5.3,5.4-8.6c0.5-1.3,1.8-2.3,2.8-3.3
		c1.5-1.4,3-2.8,3.9-4.8c0.3-0.7,1.1-1.3,1.7-1.8c0.3-0.2,0.9-0.1,1.3,0.1c0.2,0.1,0.4,0.6,0.4,0.9c0,0.5-0.2,1-0.5,1.3
		c-0.6,0.8-1.1,1.6-1.9,2.2c-4,3.4-6.3,8-9,12.4c-0.8,1.3-1.6,2.5-2.5,3.6C131.2,285.7,130.6,286,130,286.5z"/>
	<path d="M131.2,266.5c-0.3,0.3-0.7,0.6-1.1,0.8c-1.4,0.8-2.3,1.8-2,3.5c0,0.2,0,0.6-0.2,0.7c-0.4,0.3-0.8,0.6-1.2,0.6
		c-0.4,0-1-0.3-1.1-0.7c-1.1-2.5,1.1-6.4,3.8-6.8C130.4,264.6,130.7,264.9,131.2,266.5z"/>
	<path d="M393.7,210.7c-0.2,1.1,0.8,1.4,1.4,1.9c5.2,4,10.8,7.2,17.2,8.9c0.7,0.2,1.4,0.4,2.3,0.7c-1.3,0.6-2.4,0.4-3.4,0.1
		c-2.1-0.6-4.2-1.3-6.2-2.2c-4.3-1.9-8.2-4.4-11.7-7.6c-1.1-1-2.2-1.9-2.2-3.6c1-0.9,2-0.7,3-0.1c1.8,1,3.6,2,5.5,3
		c3,1.5,5.9,2.9,8.9,4.3c2.9,1.3,5.9,2.4,9.1,2.8c0.6,0.1,1.2,0.2,1.4,1.3c-1.8,0.5-3.5,0.3-5.3-0.1c-3.8-1-7.4-2.5-10.9-4.4
		c-2.4-1.3-4.7-2.7-7.1-4C395.2,211.3,394.4,211.1,393.7,210.7c-0.2,0-0.1-0.7-0.5-0.1C393.3,210.6,393.5,210.7,393.7,210.7z"/>
	<path d="M400.2,223.4c0.1-0.6-0.3-0.7-0.7-0.8c0.1-0.3,0.2-0.7,0.3-1.3c2.4,0.6,4.7,1.3,7,1.8c2.3,0.5,4.6,0.8,7.3,1.2
		c-0.7,0.5-1,0.9-1.4,1c-3.1,0.5-6.1-0.2-9-1.1C402.6,223.9,401.5,223,400.2,223.4z"/>
</g>
</svg>
