<?xml version="1.0" encoding="utf-8"?>
<!-- Generator: Adobe Illustrator 19.1.0, SVG Export Plug-In . SVG Version: 6.00 Build 0)  -->
<svg version="1.2" baseProfile="tiny" id="Layer_2" xmlns="http://www.w3.org/2000/svg" xmlns:xlink="http://www.w3.org/1999/xlink"
	 x="0px" y="0px" width="900px" height="600px" viewBox="144 97 900 600" xml:space="preserve">
<g>
	<path d="M1000.9,385.2c-1.4-0.2-1.8-1-1.8-2.3c0.1-2,0.1-4,0.2-6c0.3-8.3-1.1-16.4-1.9-24.5c0-0.3-0.3-0.7-0.5-1.2
		c-2.2,0.6-4.5,1.3-6.7,1.8c-4.5,1.1-9.1,2.1-13.7,2.7c-1.8,0.2-3.5,1-5.6,1.7c0.9,1.5,2.8,1.6,3.5,3.2c0,0,0.1,0.3,0,0.4
		c-2.9,5.3-11.2,8-16.6,5.2c-0.8-0.4-1.4-1.1-2.4-1c-3.7,0.4-6.6-1.3-9.6-3.2c-0.6-1.1,0.9-1.7,0.8-2.7c-0.3-0.1-0.6-0.3-1-0.3
		c-3.7-0.4-7.4-0.8-11.2-0.1c-1.2,0.2-2.5,0.1-3.7-0.2c-5.3-1.5-10.5-0.9-15.8,0.5c-8.7,2.2-16.6,6-24.1,11.4
		c-0.3,1.1-0.8,2.5-1.3,4.2c0.3,1.1,1.1,2.2,1.2,3.6c0.3,6,2.4,11.4,5,16.7c4.5,9.1,6.3,18.8,6.3,28.9c0,4.1-0.5,8.2-2,12.1
		c-3.2,8.4-4.8,17.2-6.9,25.9c-0.6,2.3-1.1,4.6-2.4,6.6c-1.1,1.7-0.8,3.9-0.8,5.8c0,3.7,0.4,7.5,0.3,11.2
		c-0.2,10.5-2.4,20.7-5.4,30.9c0.4,1.4,0.7,2.7,1.8,4c4,4.6,4.9,10.1,4.6,16.2c0.7,0.7,1.9-0.7,2.7,0.4c1.5,2.8,1.6,5.9,2.2,8.8
		c2.4,3.9,6.7,6.8,5.2,12.2c1.6,1.5,3.6,2.7,4,4.9c0,2.3-2,3.2-2.8,4.9c-0.8,1.9,0.7,3.7-0.1,6c-1.4,1.2-3.2,2.7-4.6,4
		c-0.2,4.7-0.5,5.1-4.3,4.9c1.3-1.5,2.7-2.8,2.4-4.9c1-1,2-1.9,3-2.8c0.8-0.7,1.1-1.6,1.1-2.7c0.1-5.1,0.1-5.3,1.9-8.9
		c0-0.8-0.6-1.4-1-2c-0.4-0.6-0.9-1.2-1.4-1.7c-0.9,0.4-1.6,1-2.3,1.1c-4.1,0.5-8.1,0.9-12.2,1.3c-1.7,0.1-3-1-4.4-1.5
		c-0.3-1.6-0.3-1.6,0.1-3c3.3-1.6,6-4.7,10.2-4c0.2,1.8-1.1,2-2.1,2.2c-2.4,0.6-4.5,1.7-6.1,4.3c5.5-0.5,10.7-0.1,16.2-1.9
		c0.7-3.8-0.7-7-3.9-9.9c-1.4,2.4-3.9,3-6.3,3.9c3.1-3.6,5.8-7.2,3.8-12.7c-2.4,2.3-5.1,3.8-8.8,3.6c-1.4,3.5-4.6,4.9-7.8,6.3
		c-2,0.8-3.5,2.3-5.1,3.8c-0.1,4.1,2.4,7.2,4.5,10.5c0,1.1,0,2.3,0,3.8c1.4-0.9,0.5-2.1,0.7-3c0.1-1,0.5-2,1.2-2.7
		c0.8-0.8,1.8-1.4,3-0.2c-0.5,1.6-3.2,2.4-1.6,4.8c5.2,1.4,10.7,0,16.1,0.4c1.3,0.1,2.8-0.4,3.7,1.4c-1.6,2.3-4.1,1.2-6.1,1.4
		c-2.1,0.2-4.2,0-6.2,0c-0.7,1.7-0.1,3.1-1.1,4.3c2.3,0.9,4.4,1.1,6.5,1l-0.1-0.1c0.4,0.5,0.9,0.8,0.7,1.9
		c-3.6,1.4-7.7-1.7-11.3,0.8c-3.2-1.5-6.1-3-8.1-6.3c-1,2,0.2,3.6,1.2,3.9c2.2,0.6,3,2.5,4.2,3.9c3.6,1.6,7.4,2.2,11.3,2
		c1.3-0.1,2.8-0.2,3.3,1.9c-2.4,1.2-5.1,1-7.6,0.7c-3.6-0.5-7.5-0.5-10.3-3.5c-0.5-0.5-1.4-0.5-2.1-0.8c-3.2-1.2-6-6.9-2.6-9.9
		c0.8-0.7,1.2-1.6,1.2-2.7c-0.4-1.1-1.6-1.1-2.4-1.5c-0.7-0.3-1.5-0.4-2-0.9c-3.6-3.5-8.2-5.6-12-8.8c-4.9-4.2-6.9-9.4-6.5-15.5
		c0.2-3.5,0.4-6.9,0.4-10.4c0-5.4,1.9-10.5,2.9-15.7c0.4-2,0.4-3.9,0-5.9c-1.8-11.7-2.6-23.5-1.7-35.4c0.7-8.7,1.2-17.4,1.9-26.1
		c0.2-3.4,0.6-6.7,0.9-10c0.1-1.1,0-2.3,1.4-2.8c1.5,0.5,1.5,1.8,1.5,3c0,3,0,6-0.4,8.9c-0.5,4.6-1.1,9.1-1.6,13.7
		c-0.1,1,1.2,1.2,1.1,2.1c-1.3,6.4-0.8,12.7-0.3,19.1c0.7,9.2,1.6,18.3,2.4,27.5c0.2,1.9-0.1,3.7-0.4,5.6c-0.4,2.7-1.2,5.3-1.1,8.2
		c-1.8,0.5-2.8,2-4,3.4c-0.3,2.5-0.9,5.1-1,7.7c-0.4,8.7,2.2,16.1,9.2,21.8c2.5,2,5.4,3.5,7.8,5.8c0.7,0.7,1.8,1.2,3.2,1.4
		c-0.7-1.6-1.5-2.8-1.9-4.2c-1.5-4.8,1.1-9.1,4.2-11c3.2-1.8,6.7-3.2,9.6-5.7c1.4-1.3,3.7-0.4,5.2-2c-1.9-3.3-1.6-7.2-2.2-10.8
		c-0.3-1.6-0.7-3.1-1.3-4.6c-1.2-2.9-2-5.9-1.7-9.3c0.7-7.3,2.4-14.5,3.8-21.7c0.9-4.7,0.9-9.4,0.8-14.1c-0.1-4.4,0.4-8.5,1.8-12.8
		c1.4-4,2.5-8.3,2.7-12.7c0-1,0.6-1.9,0.9-2.8c3.4-9.8,5.4-19.9,5.8-30.3c0.2-4.2-0.6-8.1-2.7-11.8c-1.5-2.6-2.7-5.3-4-8
		c-2.2-4.5-3.7-9.1-3.8-14.3c-11.3,13.5-23.1,26.6-30.8,42.6c1,2.1,2.2,4.4,3.5,7c-3-0.1-4.7-1.9-6.5-3.5c-2.7,2.8-5.1,5.8-8.5,7.5
		c-4.8,2.6-9.4,5.5-14.1,8.2c-7.4,4.4-15.6,6.6-24.4,4.6c-4.2-1-7.8-3.1-11.2-5.1c-1.3-0.6-1.7,0.8-2.6,0.6
		c-1.3-0.1-2.2-1.2-3.3-1.5c-5.9,1.4-11.8,2.3-17.7,3c-3,0.4-5.9,0.7-8.7,1.8c-0.3,0.1-0.7,0.4-1,0.4c-7.3-0.6-13.8,2.6-20.5,4.6
		c-4,1.2-8.1,2.4-12.2,3.5c-7.7,2.1-14.8,5.8-22.1,8.9c-6.4,2.7-12.9,5.4-19.3,8c-0.8,0.3-1.6,0.7-2.4,0.9c-11.1,2.3-20.8,8-31,12.7
		c-5.5,2.6-11.1,5-16.7,7.4c-1.8,0.8-3.7,1.4-5.7,1.8c-5.2,1-10,3-14.8,5.2c-3.8,1.7-7.7,2.9-11.7,3.7c-8.4,1.7-16.8,3.5-25.3,4.6
		c-4.5,0.6-9,2-13.6,2.5c-12.4,1.3-24.7,2.9-37.2,2.1c-3.9-0.3-7.7,0.3-11.5,0.7c-5.7,0.6-11.4-0.4-17.2,0.1
		c-7.4,0.6-15.1,0.1-22.3,1.5c-9.3,1.8-18.4-0.5-27.7,0c-5.6,0.3-11.2,0.8-16.8-0.2c-1-0.2-2.2,0.2-3.3,0.5
		c-7.5,1.7-15,3.6-22.2,6.5c-8,3.2-16.3,5.2-24.7,7.1c-18.1,4.2-36.5,4.3-54.9,3.6c-3.5-0.1-7-0.3-10.4,0.2
		c-8.1,1.3-16.1,0.9-24.2,0.6c-9-0.3-17.9-0.2-26.8,1.5c-2.7,0.5-5.4,0.6-8.2,0.1c-1.6-0.3-3.2-0.3-4.6,0.3c-1.5,0.9-0.9,3-2.5,3.7
		c-1-0.1-0.5-1.3-1.5-1.8c-2,1.2-4.6,1.8-6.6,3.4c-5,4.1-10.8,6.7-16.7,9c-5.8,2.2-10.6,5.9-15.7,9.2c-3.9,2.5-7.8,5-11.7,7.2
		c-5.4,3.1-8.7,2.6-13-1.8c-0.5-0.5-1-1.3-1.6-1.5c-5-1.1-6.8-5.6-9.3-9.1c-1.8-2.5-3-5.4-4.3-8.3c-2.4-5.2-2.5-10.6-2.3-16.1
		c0.1-3.1,2-5.6,3.6-8.4c-4-1.8-6.4-5.3-9.3-8.5c-5.3-5.9-5.5-13-6.9-20c-0.4-2.1-1.1-4.2-0.7-6.4c1.2-0.5,1.6,0.1,2,0.8
		c0.7,1.5,0.8,3.1,1,4.7c0.4,5.2,2,10.2,3.1,15.2c0.7,0.1,0.8-0.3,0.9-0.6c2.3,3.6,4.9,7,8,9.9c1.1,1,2.4,1.6,3.7,1.5
		c5.3-0.4,10.6-1,14.9-4.8c4.3-3.8,8.6-7.5,13.7-10.3c3.1-1.7,5.6-4.5,8.8-6.1c0-1.5-0.7-2.7-1.3-4c-2.2-4.9-3.1-10.2-4.6-15.4
		c-0.8-2.6-1.4-5.7,1.4-7.7c1.3-0.1,1.8,0.5,2.2,1.3c2.7,6.8,4.5,13.9,6.5,21c0.3,1.1,0.4,2.2,0.6,3.6c3.8-1.6,7.5-3.1,11.1-4.6
		c1.2-0.5,2.4-1.6,2.3-2.7c-0.3-2.2,1.4-3.4,1.7-5c1.2-0.6,1.7,0.9,3.1,0.4c0.4-6-3.3-11-4.4-16.5c-1.4-0.9-2.6-0.3-3.9-0.3
		c-2.5,0-5,0.2-7.5,0.2c-3.5,0-6.2-1.2-7.7-4.8c2.4-1.8,6.2,0.6,8.1-2.9c-2.8,0.4-5.4,0.3-8,0.9c-2.3,0.5-4.6,0.8-6.8-0.7
		c-1.7-1.2-3.6-0.2-5.5-0.2c-0.5,1,1.2,1.3,0.4,2.6c-9.5,1.2-19.1,3.7-29.1,2.6c-6.5,5.8-9.2,12.8-8.4,21.5c2.8,0.9,4.1,3.4,5.1,5.9
		c1.8,4.9,2.6,10.1,2.5,15.4c0,0.6-0.1,1.3-1,1.6c-0.8-1.1-0.9-2.5-0.9-3.7c-0.1-3.6-1.1-7.1-1.9-10.6c-0.6-2.4-1.6-4.5-3.8-6.1
		c-2.3-1.6-3.4-4.1-3.4-7.1c0-8,3.7-14,9.6-18.9c1-0.8,2.2-1,3.5-0.9c4.6,0.2,9.2-0.4,13.8-0.8c1.7-0.2,3.4-0.5,4.9-1.6
		c5.9-4.4,12.3-3.9,19.2-1.5c3.1-1.3,6.9-0.9,10.6-1.7c1.6-0.4,3.1,0.1,2.8,2.4c2,0.3,4.6-1.4,5.2,2.1c-1.6,2-4.2,1.3-6.5,2.5
		c2.5,0.5,4.6,0.1,6.8,0c0.7-0.6,1.4-1.3,1.9-1.7c6.1,0.1,10.3-3.7,15.1-6c4.8-2.3,9.7-4.5,14.5-6.9c1-0.5,2-1.1,3-1.4
		c12-4,22.7-10.6,33.5-17.2c10.6-6.5,21.7-12.1,33.7-15.8c4.7-1.5,9.3-3.4,14-5.1c1.2-0.4,2.1-1.2,2.8-2.1c3.4-0.3,6.6-0.6,9.8-1.2
		c6.9-1.3,13.9-0.8,20.9-0.8c3.9,0,7.6,0.1,11.3-1.6c2.6-1.2,5.6-1.5,8.1-2.8c6-3,12.5-4.2,19-5.2c6.7-1.1,12.9-3.3,18.9-6.6
		c5.7-3.2,11.8-5.9,17.7-8.8c10-4.8,19.7-10.3,29.9-14.4c8.9-3.6,17.4-8.1,26.4-11.5c9.7-3.6,19.4-7,29.4-9.6
		c4.6-1.2,9.1-2.6,13.7-3.7c9.1-2.3,18.2-3.9,27.5-4.9c1.2-0.1,2.5-0.3,3.6-0.7c8.5-3,17.2-5,26.2-5.6c0.2,0,0.4-0.2,0.8-0.4
		c0.6-3.4,0-7.1,1.6-10.4c0.1-0.2,0.6-0.3,1-0.5c1.1,0.8,0.9,2.1,0.8,3.1c-0.5,7.2-0.4,14.4,0.5,21.6c0.3,2.6-0.2,5.1-1.1,7.6
		c-1.2,3.3,0.1,6.6,1.6,9.7c0.5,1,1,2.3,2.5,3c0.1-2.7-2.1-4.7-1.6-7.4c0.4-2.4,0.2-5,2.2-6.7c0.1-2.1-1.3-4.2,0.3-6
		c2,0.6,2.1,2,2.2,3.4c0.8,6.9,2.1,13.8,0.9,20.8c-0.3,1.5,0.2,3,0.6,4.4c0.7,1.3,2.4,1.9,2.8,3.6c-0.1,0.3-0.1,0.6-0.2,1
		c-0.3,0.6-0.9,0.8-1.5,0.9c-2.7-1.7-3.4-3.3-3.7-8.1c-0.4-0.3-0.8-0.9-1.3-0.9c-4.8-0.8-6.3-4.7-7.2-8.4
		c-1.4-5.4-2.3-10.9-1.1-16.6c0.6-2.7,0.1-5.6,0.1-8.6c-1.4-0.4-2.6-0.4-3.8,0c-10.8,3.5-21.9,5.7-33.1,6.9
		c-3.4,0.4-6.9,0.5-10.3,1.1c-3.5,0.7-7,1.8-10.4,2.8c-8.7,2.5-17.5,4.8-26.3,7.7c-2.1,4.5-2.2,9.3-1.7,14.2c0.2,2.1,0.6,4.1,2,5.9
		c0.9,1.1,1.2,2.7,1.5,4.2c2,9.4,4.8,18.5,7.5,27.7c0.3,0.9,0.7,1.9,1.2,2.7c3.3,5.4,7,10.6,10.7,15.7c0.7,0.7,1.4-0.1,1.9,0
		c1,0.4,0.6,1.5,1.4,2.2c2.2-1.1,4.4-2.2,6.7-3.4c-1.1,2.4-3.5,3.1-5.3,4.6c0.7,1.6,2.3,1.6,3.3,2.5c0.5,1.3-0.5,2-1.3,2.7
		c-0.5-1.1-1.3-1.6-2.6-1.3c0.4,0.8-0.3,1.8,0.5,2.4c0.7-0.6,1.2-1.3,2.2-1.2c0.5,1.1,1.5,1.5,2.8,1.6c-0.6,0.9-1.2,1.3-1.2,2.4
		c1,13.7,4.1,26.8,10.4,39c2.4,4.7,4.5,9.7,6.8,14.5c0.5,1.1,1.1,2.3,1.8,3.2c2.9,3.6,6,7,8.3,10.7c0.5,0.1,0.8,0.3,1,0.2
		c6.7-2,13.7-2.1,20.5-3.6c4.6-1,8.8-2.5,12.7-5.1c3.7-2.5,7.6-4.2,12-4.8c7.5-1,14.3-4.1,21.2-7c3.2-1.4,6.3-2.9,9.7-4.4
		c-6.7-9.6-11-20.1-14.4-30.8c-0.8-1.3-2.1-0.2-3.2-1.2c-2.8-7.1-5.8-14.6-7.3-22.6c-0.4-2.2-1.1-4.3-1.9-6.4
		c-3.1-7.9-5.1-16.1-7-24.4c-1-4.3-1.3-8.6-2-12.7c0.2-1.1,1.3-1.3,1.8-2c-0.8-5.1,0.4-10,1.2-14.9c0.4-2.5,0.4-4.9,0.2-7.4
		c-0.3-4-0.4-8-0.5-11.9c0-0.9-0.1-1.8,1-2.3c1.1,0,1.4,0.8,1.4,1.7c0.6,5.7,1,11.4,0.3,17.1c-0.6,4.4-1.3,8.9-1.3,13.4
		c0,1.5,0.3,3,0.4,4.4c1.3,0.3,2.1-0.2,3.1-0.9c1-10.1,5.4-19.8,4.4-30.4c-0.2-1.8,0.3-3.7,0.5-5.6c0-0.3,0.4-0.6,0.7-1.1
		c1.1,0.7,2,1.9,3.4,1.7c4.7,9,2.5,17.9,0.2,27.1c0.4,0.6,1.3,0.8,2.3,0.2c0.9-0.5,1.5-1.3,1.9-2.3c1.8-4.8,3.9-9.4,4.9-14.5
		c1-4.9,0-9.6-1.8-14.2c-1.5-3.7-3.2-7.3-4.5-11c-0.9-2.4-1.9-4.9-1.9-7.6c0-1-1-1.4-1-2.5c0.4-2,1.4-3.8,2.7-5.5
		c7.6-10.1,14.9-20.5,22.2-30.9c1.6-2.4,4.1-4.2,5.4-6.6c1.6-2.9,4-4.9,6.2-7.3c5.9-6.6,12.9-12.1,19.5-18c1.2-1.1,2.4-1.7,4-0.9
		c3.2-4.1,7.8-5.2,12.2-6.5c1.6,0,2.9,0.7,4.1,1.5c7.6,5.1,15.7,9.1,23.8,13.2c0.9,0.4,1.9,0.8,2.6,1.4c6.8,5.6,15.3,7.7,23.1,11.1
		c6.1,2.6,12.2,5,18.3,7.5c0.9,0.2,1.5-0.8,2.4-0.5c4.2,1.3,4.6,9,0.6,13.6c-2.8-1.5,1.8-4.7-1.6-6c-1.7,1.9-3.7,3.9-6,6.1
		c3,0.4,6,0.9,9,1c2.5,0,4.8,0.1,7.3,0.6c17.7,3.5,35.6,3.4,53.6,2.8c2-0.1,3.9-0.4,6.2-0.7c-1-2.7-2.5-4.7-4-6.6
		c-2-2.6-3.6-5.6-6.6-7.5c-1.7-1.2-2.9-3.2-3.3-5.3c-1.3-6.3-5.4-10.8-9.8-15.1c-0.8-0.8-1.7-1.4-2.7-2c-2.9-1.6-5.8-3.4-8.3-5.6
		c-1.3-1.2-2.9-1.9-4.5-2.6c-6.4-2.7-12.9-5.3-19.6-7.2c-4.1-1.1-7.8-3.3-11.6-5.1c-5.5-2.5-10.5-5.9-15.9-8.7
		c-8.2-4.3-16.8-7.4-26.1-8.6c-8-1.1-15.9-3-23.8-4.9c-3.3-0.8-6.4-2-9.5-3c-5.5-1.7-11-1.4-16.5-1.2c-0.6,0-1.4,0.1-1.8,0.5
		c-2.7,2.4-5.9,4.2-8,7.2c-1.7,2.6-3.7,5-5.7,7.4c-5.5,6.3-11,12.6-16.5,18.9c-0.4,0.5-0.9,0.9-1.2,1.4
		c-4.1,9.2-10.5,16.9-15.8,25.2c-6.7,10.6-13,21.5-20.1,31.9c-2.1,3-3.6,6.4-6,9.3c-1.4,1.6-1.8,4-2.7,6.1c-0.2,0.5-0.1,1.2-0.9,1.5
		c-1.4-3.8-0.9-7.9,1.9-10.8c1.8-1.9,3-4.1,4.1-6.5c1.5-3.4,3.6-6.5,5.5-9.7c2.7-4.6,5.7-9.1,8.3-13.7c4.4-7.8,9.9-14.9,14.8-22.4
		c1.6-2.5,3.2-5,4.4-7.8c4.4-10.1,11.3-18.4,19.7-25.5c1.3-1.1,2.7-2.2,3.5-3.8c0.7-1.5,2.2-2.3,3.5-3.3c3.5-2.6,7.1-5,10.1-8.2
		c1.3-1.4,2.9-1.8,4.7-1.9c7.6-0.1,15.1,0.4,22.3,3.3c4.2,1.7,8.8,2.6,13.3,3.6c6.4,1.4,13,2.5,19.4,3.7c6.5,1.3,12.6,3.7,18.4,6.9
		c5.2,2.9,10.4,5.8,15.9,8.3c2.5,1.1,4.7,2.7,7,4.1c1.7,1.1,3.4,1.9,5.4,2.4c7.6,1.7,14.6,4.8,21.7,8c0.5,0.2,0.9,0.4,1.3,0.8
		c6.1,4.8,12.3,9.3,18.3,13.2c3.2,6.3,5.4,12.3,10,17.2c3.6,3.9,6.7,8.3,9.3,13c0.4,0.8,1,1.4,1.5,2.1c3.7,4.4,7.7,8.5,11.1,13.1
		c3.5,4.8,8.4,5.7,13.5,5.1c6.1-0.7,12.3-1.6,18.1-3.9c1-0.4,2.1-0.7,2.9-1.6c4.4-4.9,10.1-8,15.9-11.5c0.2-3.1,2.7-4.7,5.2-6.4
		c3.6-2.5,7.5-4.4,10.8-7.3c2.7-2.4,6.2-3.7,10-1.9c1.4,0.7,3.3-0.1,4.2,1.4c13-4.5,26.1-4.7,39.5-5.2c1.2,1,2.9,1.6,4.6,1.8
		c6.7,1.1,10.8,5.7,14.6,10.7c0.7,0.9,1.3,1.8,1.8,2.7c1,1.6,2.6,3.1,1.7,5.4c-0.2,0.5,0.5,1.3,0.8,1.9c5.3,1,9.1,3.6,11.3,8.6
		c2.6,5.7,4.2,11.4,4.2,17.9c0,18.9,0,25.9-2.2,39.3c-1.2,7.4-3.2,14.6-5.1,21.8c-3.4,13.2-5.3,26.6-6.9,40.1
		c-0.5,4.3-0.9,8.7-1.7,13c-0.8,3.9-0.2,7.6,0.6,11.4c2.1,9.4,4.8,18.5,8.1,27.5c0.8,2.2,1.6,4.4,2.3,6.7c0.4,1.3,1,2.6-0.1,3.9
		c-1.6,0.6-2.3-0.5-3.1-1.4c-2.1-2.3-3.6-5-4.9-7.9c-2.4-5.6-3.8-11.6-5-17.5c-1-0.5-1.2,0.7-2.1,0.3c1.6,6.7,3.6,12.8,6.1,18.8
		c2.5,5.8,5,11.6,8.4,16.6c-0.3,0.9-0.7,1.1-1.5,1.3c-1.9-0.7-3.3-2.4-4.2-4.2c-2.5-4.9-6.4-8.4-10.1-12.2
		c-10.8-11.3-17.4-24.7-19.8-40.2c-1-6.4-1.5-12.9-1.3-19.3c0.1-4.8,0.5-9.7,2.1-14.4c2.3-7.1,2.6-14.4,2.9-21.7
		c0.5-9.8,0.5-19.7-0.6-29.5c-0.2-1.4-0.6-3,0.4-4.5c1.7,0.4,1.7,1.9,1.9,3.2c0.6,4.8,1,9.7,1,14.5c-0.1,6.6,0.1,13.2-0.9,19.8
		c-0.1,0.8,0,1.7,0.1,2.6C997.3,391.8,998.5,388.2,1000.9,385.2c0.7,0,1.2-0.2,1.3-1c0.1-1.3,0-2.7,0-4.1c-0.1,0-0.2,0-0.3,0
		C1001.6,381.8,1001.3,383.5,1000.9,385.2z M1002.5,403.1c-0.5-0.2-1.3,0-1.7-0.9c0.5-4.8,1.9-9.8,1.4-15.2
		c-5.2,5.5-5.5,24.3-2.6,33.7c0.4-2.5,0.8-4.5,1.1-6.6C1001,410.4,1002.3,406.8,1002.5,403.1c0.9-0.9,0.4-2.1,0.6-3.1
		c0.5-0.3,0.5-0.8,0.7-1.2c1.6-6.2,2.9-12.6,4.9-18.7c3.7-11.7,3.7-23.4,0.6-35.2c0-0.2-0.3-0.3-0.5-0.4c-0.7,0.3-1.3,0.8-1.5,1.5
		c2.6,3.3,2.2,7.3,2.2,11.1c-0.1,7.4-1.6,14.5-2.9,21.8c-1.2,7.1-3.2,14-3.3,21.3C1002.3,401,1002.6,402.1,1002.5,403.1z
		 M962.1,287.3c-2.3-1-4.6-0.4-7.1-0.1c-6,0.7-11.5,3.1-17.2,4.6c-0.8,0.2-1.5,0.9-2.2,1.4c-3.7,2.8-7.4,5.5-11.7,7.3
		c-4.7,1.9-8.5,5.2-12.4,8.2c-2,1.6-3.8,3.4-4.7,5.7c-1.9,4.8-4,9.7-4.4,15c-0.1,1.3,0,2.5,0.2,3.7c0.5,4.7,3.1,8.4,5.6,12
		c3.1,4.4,7.4,7.6,12.9,9c7.1,1.9,14.2,2.1,21.4,2.2c4.5,0,9-0.3,13.4,0.7c2,0.4,3.9,0,5.9-0.3c4.6-0.6,8.1-3.9,12.7-4.8
		c3-0.6,5.7-1.8,8.7-0.3c0.5,0.3,1.4,0.6,1.8-0.3c-0.9-1.6-3.1-0.4-4.2-1.7c0.6-1.2,1.1-2.1,2-2.6c1.5-0.4,2.8,0.2,4.1,0.5
		c1.5,0.3,2.6,1.4,3.9,1.9c1.1-0.5,2.4-0.7,3.4-2.2c-2.6,0.7-4.5,0.6-6.2-1c2.5-1.1,4.8-1.3,7.4-0.6c1.2,0.3,2.5,0.4,3.7,0.4
		c2.4,0.2,4.4-0.9,6.7-3.1c-4.4,0.5-8.1,1.8-11.8,0.6c2.3-0.8,5.1-0.5,5.6-3.7c1.8-0.2,3.5,0.1,4.9-1.1c-1.2-1.4-3.5-0.8-4.4-3.5
		c2.9,1.1,5.6,0.9,7.5,2.8c-0.5,2-2.4,1.8-3.4,3.3c1.4-0.1,2.6,0.6,4.2-0.1c1.9-2.1,4.1-4.5,4.5-8.1c-3.2-1.1-6.2-2.1-9.3-3.1
		c-1-0.3-2-0.7-1-2.1c3.6,0.8,6.9,2.6,10.3,3.6c0.9-0.5,1.6-1,1.6-2.3c-4.4-0.9-9.2-0.9-13.5-4.5c2.7,0,4.2,1.4,6.1,1.9
		c2,0.5,3.9,0.7,6,0.5c-4-1.4-8.2-2.3-12.1-4.3c1.1-1.1,1.9-0.3,2.7-0.2c2.3,0.6,4.5,1.3,6.8,2c1.4,0.4,2.9,0.7,4.4,0.5
		c0.9-0.1,1.3-0.7,0.8-1.8c-1.1-0.4-2.3-0.2-3.5-0.3c-6.1-0.5-12.1-1.5-16.3-6.3c-0.1-0.9,0.6-0.9,0.9-1.2c-0.2-0.6-0.8-1-0.6-1.7
		c0-0.1,0.2-0.2,0.2-0.3c7-2,10.5-2.4,13.5-1.5c-1.1,1.2-3,0.3-4.1,1.7c2.9-1,6,2,9.1-0.7c-0.8-1.4-0.2-3-1.2-4.7
		c-2.2,0.2-4.1,1.8-6.4,1.8c-2.3,0-4.7,0.8-7,0.8c-2.3,0-4.1,2.1-6.4,1.5c-0.4-1.3,0.8-1.4,0.9-2.6c-0.9-1.3-0.7-3.4-1.4-5.1
		c3.8-4.2,9.2-8.5,11.8-9.4c0.2,0.4-0.6,0.9,0.2,1.4c1.5-0.8,3-1.6,4.4-2.4c-0.1-1.3-0.3-2.1-1.3-2.5c-3.8,1.1-6.7,3.3-9.3,5.9
		c-0.7-0.1-1.1-1.1-1.8-0.3c-1.6,1.1-2.4,3.2-4.6,3.9c1.9-2.4,2.5-5.5,4.9-7.3c1.8-1.3,3.7-2.5,6.1-2.7c1.2-0.1,2.1-0.6,2.6-1.8
		c-0.9-0.9-1.8-1.6-2.9-1.9c-3.2,1.7-6.3,3.3-9.6,5.1c-0.5-1-1.7-1-2.8-1.9c1.6-0.8,2.4-2.2,3.3-3.5c0.9-1.4,2.8-1.8,3.7-3.7
		c-3.8,1-5.6,4.1-8.4,6.6c-0.1-3.9,3.1-5.6,4.1-8.3c-2-1-3.1,1-4.7,0.9c-0.9-1.3-1.8-2.5-3.6-1.6c-1.2,1-1.7,2.7-3.4,3.3
		c-0.9-1.2,1-1.8,0.2-3c-2.5-0.2-3.9,2.8-6.5,2.9c0.2-1.6,1.9-1.9,2.3-3.2c-1.3-0.3-2,0.2-2.7,0.6c-2.4,1.4-4.4,3.6-7.4,3.8
		c-0.4,0-0.7,0.6-0.5,1c0.8,0.8,2.1-0.5,2.6,1c-1.8,1.1-3.9,1.1-5.4,2.3C963.5,289,962.1,288.9,962.1,287.3c2.8,0,3.5-2.3,4.9-4.4
		c-1.6-0.1-2.8,0.2-3.9,1C964.6,285.6,962.3,286.1,962.1,287.3z M540.7,443.4L540.7,443.4c1.8-2.4,5.1-2.4,7.2-4.2
		c0.3-1.3,0.6-2.5-0.2-4.1c-2.8,1.7-6,2.1-9.1,2.6c-6.1,0.9-12.4,1-17.9,4.5c-0.3,0.2-0.7,0.3-1.1,0.4c-2.8,0.7-5.4,1.9-7.9,3.2
		c-20.2,10.2-41.6,16.5-64.1,18.7c-5.5,0.5-10.8,1.8-15.7,4.4c-4.1,2.1-8.2,4.2-12.3,6.2c-1.2,0.6-2.6,1.6-3.8,1.1
		c-1.9-0.7-3.1,0.2-4.7,1c0.3,2-1,3.1-2.5,4c-0.9,0.6-2,1.1-3,1.5c-4.6,1.9-9.5,1.9-14.3,1.9c-7.7-0.1-15.4,0.5-23,1.6
		c-13.7,2.1-27,5.4-40,10.3c-7.5,2.8-14.6,6.5-22.7,8c-6.9,1.3-13.7,3.8-20.7,4.8c-10.6,1.5-20.9,4.5-31.2,7.4
		c-0.9,0.3-1.9,0.4-2.7,1.2c1.9,0.9,3.8,0,6.5-0.2c-3.2,1.8-6,1.6-8.4,2.4c-0.5,1.2-0.2,2,0.8,2.3c1.9,0.7,2.5,2.3,3.2,3.9
		c1,2.6,1.7,5.2,1.8,8c0,0.8-0.4,1.8,0.6,2.4c1.3,0,2.6-0.5,4-0.3c2.6,0.5,5.2,0.2,7.8-0.3c7.5-1.4,15-1.9,22.7-1.7
		c15.8,0.4,31.6-0.7,47.4-1c7.7-0.2,15.4-1,23.1-0.9c12.2,0.2,23.9-2.2,35.6-5.3c7.1-1.9,13.6-5.6,20.9-6.7c0.6-0.1,1.2-0.5,1.6-0.9
		c1.3-1.4,3-1.8,4.7-2.1c6-1.1,12.1-1.7,18.2-1.4c8.4,0.3,16.9,0.6,25.2,0.8c2.6-2.1,5.6-2.8,8.6-3.2c8.2-1.2,16.4-1.2,24.6-0.4
		c8.8,0.8,17.6,1.3,26.4,0.6c10.3-0.8,20.6-1,30.9-2.4c7.2-1,14.4-2.2,21.9-3.4c-0.7-1.7-1.9-2.6-2.9-3.7c-2.9-3.4-6-6.7-7.2-11.2
		c-0.6-2.1-1.6-3.9-2.7-5.7c-8.5-13.7-13.9-28.3-12.8-44.7c0.1-1,0.4-2.2-0.3-3.1C548.5,440.5,544.9,443.1,540.7,443.4z M758,446.2
		c2.2,1.1,4.4,1.2,6.7,0.8c8-1.3,15.8-3.2,23.9-3.9c1.9,0.6,3.7,1.4,5.7,1.8c5,1,10.2,0.7,15.2,1.1c7.2,0.6,13.8-1.3,20.1-4.4
		c13.2-6.3,23.3-15.9,30.2-28.9c4.2-7.9,9.3-15.1,16.5-20.5c4.3-3.2,8.2-6.9,11.7-10.9c0.2-0.3,0.4-0.6,0.6-0.9
		c-0.1-1.1,0.1-2.3-0.7-3.4c-1.4,0.3-2.1-0.9-2.7-1.6c-3.4,0.1-5.6,2.1-8.3,3.1c-9.3,3.6-18.7,6.8-27.1,12.4
		c-1.3,0.9-2.8,0.8-4.3,0.6c-4.2-0.7-7.4-3.6-11.2-5c-0.3-0.1-0.4-0.6-0.7-0.8c-3.7-3.1-7.5-6.1-10.5-9.9c-0.3-0.4-1.2-0.3-1.5-1
		c-4-9.2-5.8-18.8-5.1-28.8c0.3-4.2,0.5-8.5,1.7-12.6c0.6-2.1,1.1-4.6,3.1-5.8c4.8-2.8,9.3-6.2,14.6-8.2c0.7-0.3,1.5-0.4,1.8-1.2
		c-0.4-0.7-1.5-0.3-2.2-1c4.9-1.5,9.8-1.5,14.4-2.9c2,1.5,4.3,2.1,6.5,3.2c-1.8,0.8-3.4,0.6-4.8,0.3c-2.2-0.6-4.1-0.1-6.2,0.5
		c-8.5,2.7-15.9,7.5-23.2,12.6c-0.2,0.8-0.4,1.5-0.6,2.2c-1.9,9.1-1.6,18.3-1.2,27.5c0,1.3,0.6,2.4,1.1,3.5
		c4.2,9.4,10.8,16.6,19.6,21.8c1.7,1,3.3,1.4,5.3,1.3c3.6-0.3,7.1-1.1,10.6-2.2c1.8-0.6,3.5-1.2,4.9-2.5c3-2.8,6.6-4.5,10.2-6.1
		c4.7-2.1,9.7-2.9,14.6-4.3c4.7-6.6,11-11,18.6-13.8c3-1.1,5.8-2.6,8.6-3.9c0.1-0.1,0.1-0.4,0.3-1c-4.1-1.1-6.2-4.5-8.6-7.7
		c-0.7-0.9-1.1-2-1.9-2.8c-4.5-4.2-5.3-9.4-3.4-15c1.4-4.2,1.2-8.7,2.9-12.9c-2.8,2-5.8,3.1-9.5,3.2c-0.4-0.2-0.8-1.4-1.3-1.2
		c-1.6,0.7-0.5,1.7-1.1,2.3c-3.2,2-6.4,3.8-9.6,5.7c-0.3,0.2-0.7,0.3-1.1-0.2c2.3-3.3,6.4-4.4,9.3-7.2c-1.2,0-2.2,0.4-3.3,0.5
		c-4.8,0.7-9.2-0.4-12.9-3.5c-2.6-2.1-4.7-4.8-7-7.3c-2.3-2.5-4.5-5-6.9-7.6c-1.9,1.3-3.9,1.8-6,2.3c-2.2,0.4-4.4,0.8-6.6,1
		c-10.1,1.1-20.1,0.4-30.1-1.8c-0.9-0.2-1.9-0.8-2.9-0.3c-2.1,1-4.4,0.7-6.6,0.5c-6.2-0.6-12.4-1.3-18.5-2.1c-3-0.4-6.3,0.2-9-1.6
		c-5.9,1.6-11.3,4.4-16.9,6.2c-6,2-8.9,5.9-10.4,11.5c-0.4,1.4-0.8,2.9-1.2,4.3c-0.3,1.1-0.5,2.4-1.6,3.2c-0.3-2.8-0.2-5.6,0.3-8.3
		c-0.7-0.7-1.3-1.4-2-2.2c-8.5,7.8-19.3,11.9-28.5,18.5c-0.5,8.7,1.1,17.1,2.1,25.6c0.7,6.9,2.8,13.6,5.1,20.3
		c1.8,5.2,3.6,10.4,4.9,15.7c1.4,5.7,3.4,11.2,5.9,16.5c2.8,5.8,6,11.5,9.5,16.9c1.5,2.4,2.8,4.7,1.2,7.3
		C751.4,438,754.6,442,758,446.2z M545,431.7c-0.2-2.6-0.3-3.1-1.3-4.1c-5.1-5.1-8.8-11.1-12-17.4c-1.8-3.3-3.8-6.7-3.1-10.8
		c-2-4.2-2.5-8.8-3.5-13.3c-0.1-0.7-0.4-1.4-0.7-2.1c-1.9-3.7-2.9-7.7-3.7-11.7c-0.7-3.7-0.7-7.4,0.2-11.1c0.2-0.7,0.8-1.4,0.1-2.1
		c-0.8-0.3-1.4,0.2-2.1,0.5c-4.9,1.8-9.8,3.6-14.7,5.5c-8.1,3.1-16.3,6.2-24.1,10.1c-13.4,6.6-26.7,13.4-40.5,19.2
		c-0.7,0.3-1.4,0.6-2,1c-7.2,5.2-15.3,7.9-24,8.4c-8.4,0.5-15.7,4.5-23.8,5.8c-0.1,0-0.2,0.1-0.3,0.2c-2,2.1-4.7,2-7.3,2.4
		c-4.4,0.8-8.9,0.7-13.4,0.6c-1.7,0-3.5-0.1-5.2,0.3c-8.6,1.8-17.2,4.1-25.6,7c-12.1,4.1-23.8,9.5-35.1,15.5
		c-7.7,4.1-15.1,8.7-23,12.4c-14,6.7-28,13.4-42.1,20.2c-0.9,0.4-2,0.6-2.3,1.8c1.1,5.3,3.6,10.3,3.9,16.1
		c8.7-2.9,17.4-3.8,25.7-6.5c11.1-3.6,22.6-6.1,33.9-9c6.3-1.6,12.7-2.9,19.2-2.4c9.5,0.6,18.6-1.3,27.5-4.2
		c12.7-4,25.2-8.3,38.7-9.1c8.3-0.5,16.6-1.4,24.8-2.7c9.4-1.5,18.7-3,27.7-6c4.8-1.6,9.9-2.7,14.9-3.4c12.6-1.7,25.2-3,37.9-2.7
		c2.1,0.1,4.2,0.1,6.3-0.1c8.4-0.8,16.8-2,25.2-2.7c6.8-0.6,13.2-2.1,19.8-3.6C542.8,433.5,544.3,433.2,545,431.7z M644.5,438.6
		c6.5,1.2,10.3,2.9,12.5,5.7c-3.4-1-6.5-2.2-10-2.7c4.2,14.2,9.4,27.5,17.7,39.6c3.6-1.7,7.4-3,10.8-5c14.5-8.6,30.2-13.9,46.5-17.8
		c3.3-0.8,6.5-1.7,9.6-3.1c4.6-2.2,9.5-3.7,14.4-5c2.2-0.6,4.6-0.7,6.9-1.9c-2.9-3.9-5.6-7.8-7.9-11.8c-1.2-0.3-1.9,1-2.9,0.8
		c-0.2-0.2-0.4-0.3-0.5-0.5c-0.8-1.7-1.7-3.3-2.4-5c-5-10.8-9.4-21.7-11.4-33.5c-0.8-4.7-2.1-9.2-3.9-13.6c-3.5-8.7-6.3-17.6-7-27
		c-0.6-9-2.5-18-1.4-27.1c-1.3-0.3-1.9,0.4-2.6,0.8c-2.7,1.5-5.4,3.1-8.2,4.5c-8.1,4.4-17,6.3-25.9,8.3c-7.1,1.6-14.1,1.4-21.1-0.2
		c-1.7-0.4-3.3-0.7-5.3-1.2c3.3,11.6,1.2,22-5,32c-1.6,0.2-2.7,2-4.5,2c-1.9-1.2-1.9-1.2-2.7-3.4C641,369,641,365,642,361
		c0.4-1.8,0.4-3.7,0.4-5.6c0-2.5-1-4.8-2.3-7c-0.2,4.4,0,8.7-0.3,13.1c-0.3,4.5-1.8,8.8-2.8,13.1c-1,4.1-1.3,8.4-3.1,11.7
		c-1.5,0.7-2-1-2.9,0C630.7,395.2,639,422.2,644.5,438.6z M784.2,285.4c-2-0.5-3.6-0.6-4.9-1.1c-11.5-4.9-23.6-8.6-33.9-16
		c-0.5-0.4-1.1-0.6-1.6-0.9c-8.3-4-16.3-8.5-23.6-14.2c-2-1.5-4.1-2.9-6.1-4.3c-1.7,0.1-3.3,0.2-4.9,0.3c-2.2,2.5-4.2,5.1-6.8,7
		c-5.6,3.8-10.3,8.6-15.4,12.9c-0.5,0.4-1,0.8-1.5,1.2c-3.4,2.8-6.9,5.4-9.9,8.9c-3.9,4.7-7.6,9.5-11.4,14.2
		c-0.3,0.4-0.8,0.8-0.8,1.2c0,2.8-2,4.5-3.5,6.4c-2.5,3.3-5.2,6.4-7.7,9.6c-2.6,3.3-5.3,6.6-7.1,9.6c0.5,6.1,1.9,11.3,5.1,15.7
		c4.6,2.3,9.3,3.3,14.2,3.3c2.5,0,5,0,7,1.1c6.8-1.1,12.8-3.3,18.9-5.6c8.4-3.1,16.3-7.5,24.4-11.1c1.7-0.8,3.8-0.7,5-2.3
		c2-2.6,5.1-3.9,7.5-6c0.5-0.5,1.2-1.1,2-0.8c1.3,0.5,2.1-0.4,3-1c3.1-2,6.5-3.6,9.7-5.5c6.2-3.6,13.4-5.3,18.9-10.1
		c0.4-0.3,0.9-0.5,1.3-0.7c3-1.2,5.9-2.9,9-3.5C776.5,292.5,779.8,288.7,784.2,285.4z M400.1,480.6c2.3-3.4,5.9-5.1,9.6-6.6
		c7.3-3.1,14.7-6.1,22-9.3c5.6-2.5,11.4-4.1,17.5-5c2.6-0.4,5.1,0.2,7.7-0.5c10.8-3,21.7-5.7,32.3-9.1c3-1,5.8-2.2,8.4-3.9
		c0.5-0.3,1.5-0.4,1.2-1.4c-2.4,0-4.8-0.1-7.1,0c-11.7,0.4-23.4-0.2-35,1.8c-7.9,1.3-15.7,2.3-23.3,5.2c-6.5,2.5-13.4,3.8-20.4,4.4
		c-2.8,0.2-5.8-0.1-8.6,0.5c-5.8,1.3-11.6,1.6-17.4,1.8c-5.2,0.1-10.4,0.6-15.1,3.2c-2.4,1.3-5.1,2-7.7,2.7
		c-4.9,1.3-9.8,2.6-14.6,4.5c-10.5,4-21.4,5.6-32.6,4.5c-8.5-0.8-16.7,0.6-24.7,2.9c-14.8,4.3-29.8,8.1-44.9,11.2
		c-4.4,0.9-8.7,2-12.7,3.9c-2,5.5-1.9,5.6-4.1,7c-5,3.1-10.1,5.9-15.9,7.1c-1,0.2-2.2,0.2-2.7,1.1c-0.7,1.4-2,2.1-3.5,2.9
		c0.8,0.5,1.2,1,1.6,1c5.7-0.1,11.4-0.8,17.5-0.6c1.1,2.2,3.5,2.3,5.8,2.4c0.9,0.1,1.7-0.1,2.6-0.2c2.5-0.1,4.9-0.2,6.2,2.3
		c1.6-0.4,0.5-1.9,1.6-2.7c1.5,0,3.2-0.3,4.3,1c0.3,1.1-1.2,1.6-0.4,2.5c11.2-3.5,22.3-6.6,33.6-9c18.1-3.8,35.7-8.9,52.7-16.2
		c4.7-2,9.7-3.3,14.6-4.5c8.5-2.2,17.1-3,25.7-4.5c6.2-1.1,12.4-1,18.6-0.6C395.4,480.4,397.6,481.3,400.1,480.6z M222.7,523
		c3.2,3,4.4,6.1,5.1,9.4c1.1,5.3,2.9,10.4,4.7,15.6c0.9,0,1.5-0.4,1.9-1.3c-0.1-0.6-0.1-1.4-0.4-2c-2.2-4.9-3.1-10.2-4.9-15.2
		c-0.7-1.9-1-3.8-0.8-5.9c0.1-0.9,0.3-1.7,1.4-1.9c1.4,0.3,1.9,1.5,2.3,2.7c1.4,3.6,2.8,7.2,3.7,10.9c0.7,3.1,1.8,6.1,2.9,9.6
		c4.2-2.8,8.2-5.3,11.9-7.7c-1-5.8-2.2-11.2-5.3-16.5c-2.6-1.8-6.1-1-9.5-0.6c-4.1,0.5-8.2,0.9-12.3,0.9c-1.6,0-3-0.3-3.2-2.2
		c0.4-1.8,2.2-1.7,4.2-2.8c-3.3-0.4-6.1,0.6-7.7-1.5c-4,0.2-7.7,1.6-11.3,0.3c-1.1-0.3-1.2,1.7-2.5,1c-0.4-1,1.3-1.6,0.3-2.8
		c-2,1.6-5.3,1-6.5,4.3c1.9-0.7,3.7-1.7,4.9,0.8c-1.9,2.2-4.3,3.1-6.9,2.7c-1.4-0.2-2.5,0.1-3.5,0.8c-3.5,2.5-7.3,3.5-11.5,3.6
		c-1.1,0-2.2,0.4-3.3,0.7c-0.3,2.1-0.9,4-1.6,5.8c-0.3,0.8-0.6,1.7-0.6,2.5c0.3,4.8,0.2,9.6,2.2,14.3c3.1,7.1,7,13.4,13.4,18
		c4.4,3.1,7.3,2.9,11.4-0.6c1.6-1.4,3.4-2.6,5.2-3.6c3.1-1.8,6.2-3.6,9-5.9c2.8-2.2,5.9-3.7,9.2-4.9c1.6-0.6,3.4-0.8,4.7-2.2
		c-3.7-3.3-5.3-7.6-6.4-12.1C221.7,532.7,220.2,528.2,222.7,523z M1026.2,345.9c0.6-4.8,2.7-9.3,2.2-14.2c-0.4-4.7-1.4-9.4-2.9-13.8
		c-1.5-4.6-3.8-8.7-7.8-12c-0.4,2.7,0.4,4.7,1.7,6.2c-0.2,0.9-1.4,0.8-0.9,1.7c0.5,1,2.1,0.9,2.1,2.2c-0.6,1-1.4-0.6-2,0.5
		c-0.2,1.6,0.4,3.1,1.2,4.5c0.9,1.6,1.7,3.3,2.1,5.2c1.5,7.6,1.9,15.3,1.1,23c-0.1,0.7-0.1,1.6-1.7,1.4c0.1-4.2,0.9-8.5,0.4-12.8
		c-0.5-4.4-1.2-8.8-3.2-13c-1.5,1-1.6,2.3-1.7,3.7c-0.1,3.2-1.3,6-2.9,8.7c-1.1,1.8-2.2,3.5-3.3,5.4c2.8,1.4,3.4,4,3.8,6.5
		c1.7,9.6,0,18.9-3.1,27.8c-1.6,4.8-3.7,9.4-4.4,14.5c-0.1,0.5-0.2,1-0.3,1.4c-2.4,11.2-4.2,22.5-5.4,33.9c-0.4,3.7,0.3,6.9,2,10
		c0-1.9,0.1-3.8,0-5.6c-0.1-4.1,0.2-8.2,0.9-12.3c0.3-1.7,0.3-3.7,2.8-5.2c-1.9,11.6-0.7,22.5,1.2,33.4c1.2-5.2,2.9-10.3,2.6-15.7
		c-0.7-13.3-0.1-26.6-0.1-39.9c0-1-0.3-2.1,0.8-3.5c0,4.3,0,8.1,0,12.4c1.5-2.8,0.7-6.1,4.1-8.4c-3.3,10-3.1,19.5-2.8,29
		c1.2-2.1,0.9-4.5,1.5-6.8c0.5-2.2,0.7-4.4,1-6.6c0.3-2.3,0.7-4.7,1-7c0.3-2.2,0.7-4.4,1.1-6.6c0.3-2.3,0.6-4.7,1-7
		c0.3-2.2,0.6-4.4,1-6.6c0.3-2.3,0.7-4.7,1.1-7c0.3-2.2,0.5-4.5,0.8-6.7c0.3-2.1-0.2-4.5,1.5-6.4c0.8,10-1.8,19.6-2.6,29.4
		c4.5-14.6,8-29.5,8.6-44.9C1027.6,344.9,1027.8,346.1,1026.2,345.9z M994.5,407.5c-3.7,13.4-2.5,26.7,0.5,39.9
		c2.5,11.1,12.6,30.9,18,35.4c-1.9-5.2-3.5-10.1-4.8-15.1c-0.2-0.9-0.8-1.8-1.4-2.6c-6-8-8.3-17.1-8.3-27c0-2.1,0.1-4.3-0.3-6.3
		C996.5,423.8,995.1,415.7,994.5,407.5z M996,306.8c2.3-0.8,4.7-0.9,6.8-1.8c2.2-0.9,4.1-2.5,6.4-3.3c0.9-0.3,2-0.4,2.7-1.3
		c-0.1-0.3-0.1-0.7-0.2-1c-0.2-0.5-0.5-0.8-0.8-1C1004,298.1,999.3,301.3,996,306.8z M1015.9,320.6c-0.1-1.5,0.2-3-0.8-4.6
		c-1.7,0-3.7,0.6-4.8-1.3c-3.4,1.1-6.8,0.8-10.7,1.3c4.7,1.8,9.2,0.9,13.6,2.4c-3.7,0.7-7.2,0.2-11.3,0.5
		C1006.8,320.5,1011.1,321.7,1015.9,320.6z M948.7,361.3c3.6,1.7,7.5,1.2,10.9,2.4c3.5,1.2,6-0.2,9.8-1.1c-2.4-1.5-4.1-2.5-5.9-2.6
		c-1.1,0.9-0.8,2.7-2.7,3c-2.4-1.5-6.4,0.1-7.8-3.6c-0.7-0.1-1.2-0.2-1.7-0.3c-0.6-0.1-1.2-0.2-1.9,0.1
		C949,359.6,948.5,360.2,948.7,361.3z M1011.5,463c1.2-6.9,0.6-13.7-0.3-20.9C1008.3,450.9,1008.3,453.5,1011.5,463z M1016.2,463.3
		c-0.3,7.5,4,20.5,8,23.8C1020.9,479.3,1018.6,471.5,1016.2,463.3z M884.3,570.4c-2.5-1-4.9-0.6-6.9-1.8c-0.5,1-1.2,1.9-1,3.3
		c2,0.6,3.4,2.5,6,2.7C883,573.2,883.6,571.9,884.3,570.4z M1001.9,444.9c0.2,7,1.7,11.7,4.3,14.1
		C1004.7,453.9,1003.3,449.4,1001.9,444.9z M945.6,284.5c-3.5,0.1-6.3,1-8.4,4.1c2.5-0.2,4.4-1.4,6.4-1
		C944.2,286.6,945.3,286,945.6,284.5z M995.6,289.5c2.3-1.1,4.6-2.1,7-3.3C999.7,284.3,999.1,284.5,995.6,289.5z M1012.5,302.9
		c-1.4,0.9-3.3-0.3-4.9,1.2c1.9,1.1,3.9,1.5,5.9,1.6C1013.8,304.5,1013.3,303.8,1012.5,302.9z M925.3,296.3c3.7-0.1,5.6-1.9,7.3-4.1
		C930.3,293.4,927.7,294.1,925.3,296.3z M971.5,360.9c-0.9-1.4-2.1-2.2-3.9-2.1C969.1,359.2,969.8,360.8,971.5,360.9z M237.2,515.3
		c-3.1,0-3.1,0-5.1,1.2C233.8,516.8,235.2,516.4,237.2,515.3z M1008.8,306.9c-1.5-0.2-2.8-0.1-3.9,1.4
		C1006.7,308.8,1007.8,308.1,1008.8,306.9z M947.7,287.2c1.2-0.8,2-1.3,1.3-2.5C948.2,285.1,947.6,285.7,947.7,287.2z M985.7,348.9
		c0.8,0.8,1.5,1.6,2.9,1C987.7,348.9,986.9,348.6,985.7,348.9z M619.5,360.5c-0.2,0.6-0.2,1.1,0,1.6
		C619.8,361.6,619.7,361,619.5,360.5z"/>
	<path d="M213.4,470.9c2.1,0.8,3.1,2.3,3.9,4c2.4,5.8,4,11.8,4.9,17.9c0.5,3.1,0.1,3.6-2.4,4.9c-1.1-1.3-5.6-15.2-6.3-20.4
		C213.1,475.4,211.8,473.3,213.4,470.9z"/>
	<path d="M195,482.7c4.2,4.4,4.3,10,5.4,15.2c0.4,1.6,0.6,3.5-1,4.7c-1.8,0.3-2.5-0.8-2.9-2c-1.7-4.5-3-9.2-3.1-14.1
		C193.3,485.2,193.3,484,195,482.7z"/>
	<path d="M200.9,478.6c1.1,0.5,1.6,1.5,2.1,2.5c2,4.3,3.2,8.8,3.8,13.5c0.2,1.5,0.1,3-1.8,3.5c-2-0.3-2.4-1.9-2.9-3.4
		C199.9,488,199.4,481.7,200.9,478.6z"/>
	<path d="M557.6,433.5c-0.1-0.9,0.6-1.4,1.5-2.1c3.7,1,7.7,0.9,11.6,0.4c1.6-0.2,3.2,0.4,4.6,1.2c3.7,2,7.2,4.5,11.4,5.5
		c0.2,0.1,0.4,0.6,0.7,1.2c-5.9-0.5-11.1-2.1-15.6-6C567.2,433.3,562.5,435.5,557.6,433.5z"/>
	<path d="M190.8,502.6c-3.9-2.5-4.6-7.5-2.2-14c1.8,1.4,3.8,6.5,4.1,10.5C192.8,500.6,192.7,501.9,190.8,502.6z"/>
	<path d="M860.8,520.3c3.3-2.5,6.3-1.3,9.2-0.9C867,521,863.3,521.4,860.8,520.3z"/>
	<path d="M602.7,449.8c-3.3-2.2-6.6-2.9-9-5.3C596.4,443.9,599.7,445.7,602.7,449.8z"/>
	<path d="M638.8,315.9c-1.5-3.6,1.9-5,2.8-7.4C641.9,312.9,641.5,313.9,638.8,315.9z"/>
	<path d="M888,550.2c-0.8,1.8-2,2.7-3.5,4c-0.2-1.8-0.8-3.1-2.8-3.4C883.9,548.7,886,551.3,888,550.2z"/>
	<path d="M635.9,332c0.1-2.7-1.1-5.3-1-8.5C636.7,326.2,637.2,330.2,635.9,332z"/>
	<path d="M608,450.1c-2.4-1.7-2.3-4.9-4.2-6.8C606.1,445,607.2,447.5,608,450.1L608,450.1z"/>
	<path d="M645.3,301.2c0.3,1.6,0.2,3-1.8,3.7C642.7,302.9,643.9,302,645.3,301.2z"/>
	<path d="M867.9,437.4c-1.8-0.5-3.8-0.5-4.9-2.9C865.7,434.3,867.1,435.3,867.9,437.4L867.9,437.4z"/>
	<path d="M883.8,393.2c2.1-0.2,2.9,1.2,3.3,2.9C885.4,395.9,884.5,394.7,883.8,393.2z"/>
	<path d="M867.8,437.5c0.8,0,1.7,0,2.4,0c1,0.8,1.7,1.6,1.3,3.2C870.2,439.6,869.1,438.5,867.8,437.5L867.8,437.5z"/>
	<path d="M646.2,299.7c1-2.5,1-2.5,2.7-3.4C649,298,648.1,298.8,646.2,299.7z"/>
	<path d="M862.2,548.8c-1.1-0.6-2.3-0.9-2.5-2.4C861.8,546.4,861.8,546.4,862.2,548.8z"/>
	<path d="M894.6,562.6c0.8,1.6,0.3,2.7-1.5,3.6C893.3,564,893.3,564,894.6,562.6z"/>
	<path d="M891.8,574.9c0.4-1.2,1-2.2,2.5-2.2c-0.3,1.9-0.3,1.9-2.6,2.1L891.8,574.9z"/>
	<path d="M636.9,340.3c-1.1-1.1-0.5-2.1-0.2-3.3C638.1,338.2,638.2,339.1,636.9,340.3z"/>
	<path d="M607.9,450.2c1.3,0.7,1.3,2,1.9,3.1C608.8,452.4,607.9,451.5,607.9,450.2L607.9,450.2z"/>
	<path d="M892.1,556.1c1,0.9,0.9,1.6,0,2.3C890.9,557.7,891.2,557,892.1,556.1z"/>
	<path d="M579,416.3c0.9-1,1.8-1.4,3.4-1.7C581.2,415.6,580.5,416.4,579,416.3z"/>
	<path d="M884.7,565.9c-0.9-1-0.7-1.5-0.2-2C886.2,564.3,885.4,565,884.7,565.9z"/>
	<path fill="none" d="M758,446.2c-3.3-4.2-6.6-8.1-9.5-12.7c1.6-2.6,0.3-4.9-1.2-7.3c-3.5-5.4-6.7-11.1-9.5-16.9
		c-2.5-5.3-4.5-10.8-5.9-16.5c-1.3-5.3-3.1-10.5-4.9-15.7c-2.3-6.6-4.3-13.3-5.1-20.3c-0.9-8.5-2.5-17-2.1-25.6
		c9.2-6.7,20-10.7,28.5-18.5c0.7,0.8,1.4,1.5,2,2.2c-0.5,2.7-0.6,5.5-0.3,8.3c1.2-0.8,1.3-2,1.6-3.2c0.4-1.4,0.8-2.9,1.2-4.3
		c1.5-5.6,4.4-9.6,10.4-11.5c5.6-1.8,11-4.6,16.9-6.2c2.7,1.8,6,1.2,9,1.6c6.2,0.8,12.4,1.5,18.5,2.1c2.2,0.2,4.5,0.6,6.6-0.5
		c1-0.5,2,0.1,2.9,0.3c9.9,2.2,19.9,2.9,30.1,1.8c2.2-0.2,4.4-0.6,6.6-1c2.1-0.4,4.1-0.9,6-2.3c2.4,2.6,4.6,5.1,6.9,7.6
		c2.3,2.5,4.4,5.1,7,7.3c3.7,3.1,8.1,4.1,12.9,3.5c1.1-0.1,2.1-0.5,3.3-0.5c-2.9,2.7-7,3.8-9.3,7.2c0.4,0.5,0.8,0.4,1.1,0.2
		c3.2-1.9,6.4-3.8,9.6-5.7c0.6-0.6-0.5-1.6,1.1-2.3c0.5-0.2,0.8,1,1.3,1.2c3.7-0.1,6.6-1.2,9.5-3.2c-1.7,4.2-1.5,8.7-2.9,12.9
		c-1.9,5.6-1.1,10.7,3.4,15c0.8,0.7,1.2,1.9,1.9,2.8c2.4,3.1,4.5,6.6,8.6,7.7c-0.2,0.6-0.1,0.9-0.3,1c-2.9,1.3-5.7,2.8-8.6,3.9
		c-7.5,2.8-13.8,7.3-18.6,13.8c-4.9,1.4-10,2.2-14.6,4.3c-3.6,1.6-7.2,3.4-10.2,6.1c-1.4,1.3-3.2,2-4.9,2.5
		c-3.4,1.1-6.9,1.9-10.6,2.2c-2,0.2-3.6-0.3-5.3-1.3c-8.9-5.2-15.5-12.4-19.6-21.8c-0.5-1.1-1.1-2.3-1.1-3.5
		c-0.3-9.2-0.6-18.4,1.2-27.5c0.2-0.7,0.4-1.4,0.6-2.2c7.2-5.1,14.6-9.9,23.2-12.6c2-0.7,4-1.1,6.2-0.5c1.4,0.4,3,0.5,4.8-0.3
		c-2.3-1.1-4.5-1.7-6.5-3.2c-4.6,1.5-9.5,1.4-14.4,2.9c0.7,0.8,1.8,0.3,2.2,1c-0.3,0.8-1.1,0.9-1.8,1.2c-5.2,2.1-9.7,5.5-14.6,8.2
		c-2,1.2-2.5,3.7-3.1,5.8c-1.1,4.1-1.4,8.3-1.7,12.6c-0.7,10,1.1,19.6,5.1,28.8c0.2,0.7,1.1,0.5,1.5,1c3,3.9,6.8,6.8,10.5,9.9
		c0.3,0.2,0.4,0.7,0.7,0.8c3.8,1.5,7,4.3,11.2,5c1.5,0.2,3,0.3,4.3-0.6c8.3-5.7,17.8-8.9,27.1-12.4c2.7-1,4.9-3.1,8.3-3.1
		c0.6,0.6,1.3,1.9,2.7,1.6c0.7,1.1,0.6,2.3,0.7,3.4c-0.2,0.3-0.3,0.6-0.6,0.9c-3.6,4-7.4,7.7-11.7,10.9
		c-7.2,5.4-12.3,12.6-16.5,20.5c-6.9,13-17,22.6-30.2,28.9c-6.3,3-12.9,5-20.1,4.4c-5.1-0.5-10.2-0.1-15.2-1.1
		c-2-0.4-3.8-1.2-5.7-1.8c-8.1,0.7-15.9,2.6-23.9,3.9C762.4,447.3,760.2,447.2,758,446.2z M761.7,370.4c0.2-0.9-0.1-1.5-1.5-2.1
		C761,369.3,761.4,369.8,761.7,370.4c2.5,4.2,3.4,4.9,6.7,4.8C766,373.4,764.5,371,761.7,370.4z M780.2,419.7
		c-1.1-5.3-3.3-10.1-4.3-15.4c-1-5.5,0.1-10.8,0.9-16.2c-2.4-0.2-2.6,1.4-2.9,2.6C771.4,401.4,773.5,411.1,780.2,419.7z
		 M840.7,352.6c-0.9,0.4-1.3,0.4-1.6,0.6c-4.1,3-7.9,6.4-13.5,6c-0.7,0-1.4,0.3-2.1,0.6c-0.9,0.3-1.9,0.7-2,2c0.5,0.9,1.2,1,2.2,0.9
		c2.6-0.4,5.1-2,7.9-0.9c0.1,0,0.2-0.1,0.5-0.1c0.9-0.4,1.9-0.9,2.8-1.3c1.5,0.8,3,1.5,4.5,0.5c-0.1-1.8-2.3-0.8-2.6-2.3
		C838.2,357.1,839.9,355.5,840.7,352.6z M865.6,353.7c3.4,6.4,4.8,13.6,8.8,19.7C872.2,366.4,870.2,359.5,865.6,353.7z M862.1,338.6
		c0.6-2.8-0.2-9.9-1.4-12.5C860.2,331.7,860.7,336.1,862.1,338.6z M860.8,346.6c2.7,2.3,5.3,2.5,9,1.1
		C866.9,346.8,864.3,346.2,860.8,346.6z M901.4,355.7c-2.6-0.8-4.3,0-6.6,0.9C897.4,357.5,899.1,357.5,901.4,355.7z M877.1,357.7
		c-1.4-1.7-2.9-1.2-4.5-0.6C874.1,357.7,875.3,359,877.1,357.7z M871.1,332.7c-2.2,0.7-3.4,1.5-4.7,3.4
		C868.6,335.4,869.7,334.5,871.1,332.7z M842.8,350.2c1.6-1.7,1.6-1.7,1.3-3.8C843.3,347.7,842.4,348.6,842.8,350.2z M888.8,357
		c-1.7-1.3-2.8-0.2-4,0.1C885.9,357.7,887.1,358.2,888.8,357z M841.4,362.7c0.2,1.3,1,1.5,1.7,1.9c0.4,0.2,0.6,0,0.8-0.4
		C843.5,363.3,842.9,362.7,841.4,362.7z M875.8,347.4c0.5,0.9,1.1,1.1,2,0.6C877.4,347,876.6,347.1,875.8,347.4z M874.5,329.9
		c-0.9,0.2-1.4,0.5-1.4,1.4C873.7,331,874.2,330.9,874.5,329.9z M836.5,353.5c0.8-0.2,0.7-0.7,0.4-1.3
		C836.7,352.7,836,352.9,836.5,353.5z M788.6,432c0.1-1.4-0.6-1.4-1.6-1.2C787.3,431.7,787.8,431.9,788.6,432z"/>
	<path fill="none" d="M540.7,443.4c4.3-0.3,7.9-2.9,12.3-3.7c0.7,0.9,0.4,2.1,0.3,3.1c-1,16.4,4.3,31,12.8,44.7
		c1.1,1.8,2.1,3.6,2.7,5.7c1.2,4.4,4.3,7.8,7.2,11.2c0.9,1.1,2.2,2,2.9,3.7c-7.5,1.2-14.6,2.4-21.9,3.4c-10.2,1.4-20.6,1.6-30.9,2.4
		c-8.9,0.7-17.6,0.2-26.4-0.6c-8.2-0.8-16.4-0.8-24.6,0.4c-3,0.4-6.1,1.1-8.6,3.2c-8.3-0.3-16.8-0.5-25.2-0.8
		c-6.1-0.2-12.2,0.4-18.2,1.4c-1.7,0.3-3.4,0.7-4.7,2.1c-0.4,0.4-1,0.8-1.6,0.9c-7.3,1.2-13.8,4.9-20.9,6.7
		c-11.7,3.1-23.4,5.5-35.6,5.3c-7.7-0.1-15.4,0.7-23.1,0.9c-15.8,0.3-31.6,1.4-47.4,1c-7.6-0.2-15.2,0.3-22.7,1.7
		c-2.6,0.5-5.2,0.8-7.8,0.3c-1.4-0.2-2.7,0.3-4,0.3c-1-0.6-0.6-1.6-0.6-2.4c-0.1-2.8-0.8-5.4-1.8-8c-0.6-1.6-1.3-3.3-3.2-3.9
		c-1-0.3-1.2-1.1-0.8-2.3c2.4-0.8,5.2-0.7,8.4-2.4c-2.7,0.2-4.6,1.1-6.5,0.2c0.7-0.8,1.7-0.9,2.7-1.2c10.3-2.9,20.5-5.9,31.2-7.4
		c7-1,13.8-3.5,20.7-4.8c8.1-1.5,15.2-5.1,22.7-8c13-4.9,26.3-8.2,40-10.3c7.7-1.2,15.3-1.7,23-1.6c4.8,0,9.7,0,14.3-1.9
		c1-0.4,2-0.9,3-1.5c1.5-0.9,2.8-2.1,2.5-4c1.6-0.8,2.8-1.8,4.7-1c1.3,0.5,2.6-0.5,3.8-1.1c4.1-2,8.2-4.1,12.3-6.2
		c4.9-2.6,10.2-3.9,15.7-4.4c22.6-2.2,43.9-8.5,64.1-18.7c2.6-1.3,5.2-2.5,7.9-3.2c0.4-0.1,0.8-0.2,1.1-0.4
		c5.5-3.5,11.8-3.6,17.9-4.5c3.2-0.5,6.3-0.9,9.1-2.6c0.8,1.6,0.5,2.8,0.2,4.1C545.7,441,542.5,441,540.7,443.4
		c-1.2-0.2-2.1,0.4-3.3,1.3C538.9,444.8,540,444.5,540.7,443.4z M402.6,497.1c0.2,0.2,0.4,0.4,0.5,0.5c1.7-0.9,3.3-1.9,4.5-3.5
		c2.4-3.4,5.7-4.1,9.6-3c3.8-3.6,9.2-4.9,13-8.7c-0.9-1.2-1.6-1.5-2.6-1.1c-1.5,0.6-2.9,1.4-4.3,2.2c-2.5,1.6-4.4,3.9-6.7,5.8
		c-1.2-0.2-2.3-0.4-3.4-0.7c-3.8-0.8-5.9,0-7.8,3.3C404.4,493.7,403.5,495.4,402.6,497.1z M483.5,466.3c6.1-6.3,14.7-7,22.8-10.3
		c-5.3-0.9-9.9-1.1-14.2,1.5C488.5,459.7,485.2,462.2,483.5,466.3z M416.4,514.4c11.1-0.4,11.1-0.4,13-3.4
		C424.6,511.2,420.7,513.4,416.4,514.4z M388.7,503.5c3.2-0.9,6.2-2.2,8.8-4.2c0.6-0.5,1-1.1,0-2C394.4,499,391.4,500.9,388.7,503.5
		z M413.1,514.7c-3.6-1-7.2-2.3-11.4-1C405.7,514.9,409.3,515.5,413.1,514.7z M432.1,509.9c4.4,1.6,8.6,0.1,13.1-0.4
		C440.6,509.1,436.3,508.5,432.1,509.9z M261.9,517.6c2.3,0.4,4.7,0.8,7.7-0.4C266.4,516.3,264.1,516.2,261.9,517.6z M369.6,511.1
		c4.3-0.2,4.6-0.3,4.8-2.9C372.7,509.2,370.9,509.6,369.6,511.1z M276.7,516.9c-1.9-0.6-3.3-0.6-5.2,0.5
		C273.7,518.2,275.1,518,276.7,516.9z M354.8,512.9c1.6,0.9,1.6,0.9,4.1,0.2C357,513,356.1,511.9,354.8,512.9z M459.3,509.7
		c-0.7-0.6-1.3-0.9-2.1,0.1C458,510.2,458.4,511,459.3,509.7z M452.2,508.9c0.9,0.7,0.9,0.7,1.8-0.2
		C453.3,508.4,452.7,508.1,452.2,508.9z M532.2,446.7c0.4,0.5,0.9,0.3,1.3,0c0.3-0.2,0.9-0.2,0.7-0.8
		C533.2,445.7,532.6,446,532.2,446.7z"/>
	<path fill="none" d="M545,431.7c-0.8,1.5-2.3,1.8-3.7,2.1c-6.5,1.5-13,3-19.8,3.6c-8.4,0.7-16.8,1.9-25.2,2.7
		c-2.1,0.2-4.2,0.1-6.3,0.1c-12.7-0.3-25.4,1-37.9,2.7c-5,0.7-10.1,1.8-14.9,3.4c-9,3-18.3,4.6-27.7,6c-8.2,1.3-16.6,2.2-24.8,2.7
		c-13.5,0.8-26.1,5.1-38.7,9.1c-8.9,2.8-18,4.8-27.5,4.2c-6.5-0.4-12.9,0.8-19.2,2.4c-11.3,2.9-22.8,5.4-33.9,9
		c-8.3,2.6-17,3.5-25.7,6.5c-0.3-5.8-2.8-10.8-3.9-16.1c0.3-1.2,1.4-1.4,2.3-1.8c14-6.7,28-13.5,42.1-20.2c7.9-3.8,15.3-8.4,23-12.4
		c11.4-6,23-11.4,35.1-15.5c8.3-2.9,16.9-5.1,25.6-7c1.7-0.4,3.5-0.3,5.2-0.3c4.5,0,9,0.1,13.4-0.6c2.6-0.4,5.3-0.3,7.3-2.4
		c0.1-0.1,0.2-0.2,0.3-0.2c8.1-1.3,15.4-5.3,23.8-5.8c8.7-0.5,16.8-3.3,24-8.4c0.6-0.4,1.3-0.7,2-1c13.8-5.7,27.1-12.5,40.5-19.2
		c7.8-3.9,15.9-7,24.1-10.1c4.9-1.9,9.8-3.7,14.7-5.5c0.7-0.2,1.3-0.8,2.1-0.5c0.7,0.7,0.1,1.4-0.1,2.1c-0.9,3.7-0.9,7.4-0.2,11.1
		c0.8,4,1.8,8,3.7,11.7c0.3,0.7,0.6,1.4,0.7,2.1c0.9,4.5,1.5,9.1,3.5,13.3c-0.7,4.1,1.4,7.4,3.1,10.8c3.3,6.3,7,12.3,12,17.4
		C544.8,428.7,544.9,429.1,545,431.7z M380.1,425.3c4.4-3.8,9.7-4.2,14.9-5.2c1.9-0.4,4,0,5.8-1.2c3.6-2.5,7.6-4.2,11.9-5.1
		c1-0.2,2-0.6,1.7-2c-0.8-1.1-2-0.8-3-0.6c-4.8,0.8-8.8,3.1-12,6.8c-3-1.6-6-0.8-8.9-0.9C385,417.1,382.1,420.5,380.1,425.3z
		 M381.1,442.1c1.7-2.5,4.9-1.3,7.3-2.7c-3.1-1.5-3.1-1.5-8,0.7c-6.1-1.2-12.3-1.4-18.7-1C368.1,439.7,374.2,441.3,381.1,442.1z
		 M389.6,439.9c3.2,1.6,8,1.8,11.7,0.7c1.6-0.5,2.9-1.2,3.3-2.8c-0.3-0.9-0.7-1.3-1.5-1.4C399.1,438.9,394,437.9,389.6,439.9z
		 M483.5,437.7c3.4,0.8,6.3-0.4,9.2-2C489.5,435.7,486.4,436.3,483.5,437.7z M350.7,440.7c1.7,0.5,3.5,1.2,5.5,0
		C354.1,439.4,352.4,439.5,350.7,440.7z M241.5,481.5c2.7,0.1,4.3-0.8,6.3-2.8C245.1,478.9,243.3,479.6,241.5,481.5z M508,429
		c-0.9,0.3-2.4-0.2-2.6,1.5C506.6,430.6,507.5,430.2,508,429z M338.6,443c0.9,0.5,1.6,0.6,2.5,0C340.2,442.3,339.6,442,338.6,443z"
		/>
	<path fill="none" d="M644.5,438.6c-5.4-16.4-13.7-43.3-13.5-52.2c0.9-1.1,1.5,0.6,2.9,0c1.8-3.3,2.1-7.6,3.1-11.7
		c1-4.4,2.5-8.6,2.8-13.1c0.2-4.3,0.1-8.7,0.3-13.1c1.3,2.2,2.3,4.5,2.3,7c0,1.9,0,3.8-0.4,5.6c-1,4-1,8.1-1.8,12.3
		c0.8,2.2,0.8,2.2,2.7,3.4c1.9,0,2.9-1.8,4.5-2c6.2-9.9,8.3-20.4,5-32c2,0.4,3.7,0.8,5.3,1.2c7,1.7,14,1.8,21.1,0.2
		c8.9-2,17.8-3.9,25.9-8.3c2.7-1.5,5.4-3,8.2-4.5c0.7-0.4,1.3-1.1,2.6-0.8c-1.1,9.1,0.8,18,1.4,27.1c0.6,9.4,3.5,18.3,7,27
		c1.8,4.4,3.1,8.9,3.9,13.6c2,11.7,6.4,22.7,11.4,33.5c0.8,1.7,1.6,3.4,2.4,5c0.1,0.2,0.4,0.3,0.5,0.5c1.1,0.2,1.7-1.1,2.9-0.8
		c2.3,4,5,7.9,7.9,11.8c-2.3,1.2-4.7,1.3-6.9,1.9c-4.9,1.3-9.8,2.8-14.4,5c-3,1.5-6.3,2.4-9.6,3.1c-16.3,3.9-32,9.2-46.5,17.8
		c-3.4,2-7.2,3.4-10.8,5c-8.3-12.1-13.5-25.4-17.7-39.6c3.5,0.5,6.5,1.8,10,2.7C654.7,441.5,650.9,439.8,644.5,438.6z M679.3,403.9
		c-1.6-0.8-3.3-0.8-4.5-2c-1.1-1.1-1.5-2.9-3.4-3.3c-1.2,1.3-1.2,2.9-1.4,4.4c2.4,2.5,4.4,3.4,6.9,3.2
		C678.1,406.1,679,405.5,679.3,403.9z M657,353.9c1.4-0.5,2.8-1,4.1-1.6c1.3-0.6,3.3-0.2,3.8-2.6C661.2,349.4,659.3,352.3,657,353.9
		z M693.9,395.8c-1.9,0.3-4.1-0.1-5.8,2.2C690.8,398.3,692.5,397.5,693.9,395.8z M667.6,447.8c-3.9-1.5-3.9-1.5-6-0.2
		C663.7,448.3,665.4,448.9,667.6,447.8z M713.2,391c-2.1-0.1-3.3,0.7-4.7,2C710.7,393.5,711.9,392.7,713.2,391z M679.5,402.7
		c1.1,0.9,1.9,0.6,2.8-0.5C681.1,401.4,680.3,401.3,679.5,402.7z M701.8,393.8c-0.7-0.2-1.3-0.7-1.8,0.6
		C700.8,394.7,701.3,395,701.8,393.8z"/>
	<path fill="none" d="M784.2,285.4c-4.4,3.2-7.7,7.1-13.1,8.2c-3.1,0.7-6,2.3-9,3.5c-0.5,0.2-1,0.4-1.3,0.7
		c-5.5,4.8-12.7,6.5-18.9,10.1c-3.2,1.9-6.6,3.5-9.7,5.5c-0.9,0.6-1.7,1.5-3,1c-0.8-0.3-1.5,0.3-2,0.8c-2.4,2.1-5.5,3.3-7.5,6
		c-1.2,1.6-3.3,1.6-5,2.3c-8.2,3.7-16,8-24.4,11.1c-6.1,2.2-12.1,4.5-18.9,5.6c-2-1-4.5-1-7-1.1c-4.9,0-9.6-1-14.2-3.3
		c-3.2-4.4-4.6-9.6-5.1-15.7c1.8-3.1,4.5-6.3,7.1-9.6c2.6-3.2,5.3-6.3,7.7-9.6c1.5-1.9,3.5-3.6,3.5-6.4c0-0.4,0.5-0.9,0.8-1.2
		c3.9-4.7,7.6-9.5,11.4-14.2c2.9-3.5,6.5-6.1,9.9-8.9c0.5-0.4,1-0.8,1.4-1.2c5.1-4.3,9.8-9.1,15.4-12.9c2.7-1.8,4.7-4.5,6.8-7
		c1.6-0.1,3.2-0.2,4.9-0.3c2,1.4,4.1,2.8,6.1,4.3c7.3,5.7,15.3,10.2,23.6,14.2c0.6,0.3,1.1,0.5,1.6,0.9c10.3,7.4,22.4,11.1,33.9,16
		C780.6,284.9,782.2,285,784.2,285.4z"/>
	<path fill="none" d="M962,287.3c0.1,1.7,1.5,1.7,2.8,2.2c1.5-1.2,3.6-1.2,5.4-2.3c-0.5-1.5-1.8-0.2-2.6-1c-0.2-0.4,0.1-1,0.5-1
		c3-0.2,5-2.3,7.4-3.8c0.7-0.4,1.5-0.9,2.7-0.6c-0.4,1.3-2.2,1.6-2.3,3.2c2.5-0.2,4-3.1,6.5-2.9c0.8,1.2-1.1,1.8-0.2,3
		c1.7-0.6,2.2-2.3,3.4-3.3c1.8-0.9,2.7,0.3,3.6,1.6c1.6,0.1,2.7-1.9,4.7-0.9c-1,2.7-4.2,4.4-4.1,8.3c2.8-2.5,4.5-5.6,8.4-6.6
		c-0.9,1.9-2.8,2.4-3.7,3.7c-0.9,1.3-1.6,2.7-3.3,3.5c1,0.9,2.2,0.8,2.8,1.9c3.3-1.7,6.4-3.4,9.6-5.1c1.1,0.3,2,1,2.9,1.9
		c-0.5,1.2-1.4,1.7-2.6,1.8c-2.3,0.2-4.3,1.3-6.1,2.7c-2.5,1.9-3.1,5-4.9,7.3c2.2-0.7,3-2.8,4.6-3.9c0.8-0.8,1.1,0.2,1.8,0.3
		c2.6-2.6,5.5-4.8,9.3-5.9c1,0.4,1.2,1.3,1.3,2.5c-1.4,0.8-2.9,1.6-4.4,2.4c-0.8-0.4,0-0.9-0.2-1.4c-2.6,0.9-8,5.2-11.8,9.4
		c0.8,1.7,0.5,3.8,1.4,5.1c-0.1,1.2-1.3,1.3-0.9,2.6c2.3,0.7,4.2-1.4,6.4-1.5c2.3,0,4.7-0.8,7-0.8c2.4,0,4.2-1.6,6.4-1.8
		c1,1.7,0.3,3.3,1.2,4.7c-3,2.7-6.2-0.3-9.1,0.7c1-1.4,3-0.5,4.1-1.7c-3-0.8-6.5-0.4-13.5,1.5c-0.1,0.1-0.2,0.2-0.2,0.3
		c-0.2,0.7,0.4,1.1,0.6,1.7c-0.3,0.3-1,0.3-0.9,1.2c4.2,4.9,10.2,5.8,16.3,6.3c1.2,0.1,2.4-0.1,3.5,0.3c0.4,1.1,0,1.7-0.8,1.8
		c-1.5,0.2-3,0-4.4-0.4c-2.3-0.7-4.5-1.4-6.8-2c-0.7-0.2-1.6-0.9-2.7,0.2c4,2,8.1,2.8,12.1,4.3c-2,0.2-4,0-6-0.5
		c-1.9-0.4-3.4-1.9-6.1-1.9c4.3,3.6,9.1,3.6,13.5,4.5c0.1,1.3-0.6,1.8-1.6,2.3c-3.4-1-6.7-2.9-10.3-3.6c-1,1.4,0,1.7,1,2.1
		c3,1,6.1,2.1,9.3,3.1c-0.5,3.6-2.7,5.9-4.5,8.1c-1.6,0.7-2.7,0-4.2,0.1c1-1.4,2.9-1.2,3.4-3.3c-1.8-1.9-4.6-1.6-7.5-2.8
		c0.9,2.6,3.2,2.1,4.4,3.5c-1.3,1.2-3.1,1-4.9,1.1c-0.5,3.2-3.3,2.9-5.6,3.7c3.8,1.1,7.4-0.2,11.8-0.6c-2.3,2.2-4.2,3.2-6.7,3.1
		c-1.2-0.1-2.5-0.1-3.7-0.4c-2.5-0.7-4.9-0.5-7.4,0.6c1.7,1.6,3.6,1.8,6.2,1c-1.1,1.5-2.3,1.7-3.4,2.2c-1.4-0.5-2.4-1.6-3.9-1.9
		c-1.3-0.3-2.6-0.8-4.1-0.5c-0.9,0.6-1.5,1.5-2,2.6c1.1,1.3,3.3,0.1,4.2,1.7c-0.5,0.9-1.3,0.6-1.8,0.3c-3-1.4-5.7-0.2-8.7,0.3
		c-4.6,0.9-8.1,4.2-12.7,4.8c-2,0.3-3.8,0.7-5.9,0.3c-4.4-1-8.9-0.7-13.4-0.7c-7.2,0-14.4-0.3-21.4-2.2c-5.5-1.5-9.7-4.6-12.9-9
		c-2.6-3.6-5.1-7.3-5.6-12c-0.1-1.2-0.3-2.5-0.2-3.7c0.4-5.3,2.4-10.1,4.4-15c0.9-2.3,2.7-4.1,4.7-5.7c3.9-3.1,7.7-6.3,12.4-8.2
		c4.3-1.7,8-4.5,11.7-7.3c0.7-0.5,1.4-1.2,2.2-1.4c5.8-1.5,11.2-3.9,17.2-4.6C957.5,286.9,959.8,286.3,962,287.3L962,287.3z
		 M955.4,311.7c3.1-2.8,4.1-6.4,3.4-10.6c-0.6-3.9-2.8-7-5.3-7.6c0.8,1.9,3,3.1,2.9,6c-1.9-1.9-3-3.9-4.8-5.1c-1.1,1-1,2.1-0.7,3.2
		c0.9,1,2.5,1.3,2.8,3c-0.6,0.5-1.3,1.1-1.9,1.6c-0.3,1.3-0.3,2.6,0,3.7c0.2,1.6,2.1,1.4,2.5,2.5c-0.1,0.8-0.9,1.3-0.8,1.9
		C953.9,311.2,954.4,311.5,955.4,311.7z M963.8,345.6c1.6-3.1,1.1-6.3,2.5-9.4c1,3-0.2,5.7,0.5,8.4c0.4-0.3,0.7-0.4,0.8-0.6
		c1.1-4,0.6-7.9-0.6-11.7c-0.4-1.2-1.3-2.1-2.7-2.4c-1.9-0.4-3.3-1.5-4.8-2.8c-0.1-0.1-0.5,0-0.7-0.1c-0.6,0.4-0.7,1-0.6,1.6
		c0.4,1.5,2.3,1.4,2.9,3c-2.3,1.6-1.4,3.6-0.6,5.6c0.6,1.1,2.1,0.8,2.7,1.8C963.5,341.1,962,343.1,963.8,345.6z M926.8,342.8
		c0.7-0.1,1.1-0.6,0.9-1c-1.8-3.4-1-7-1.2-10.6c-0.2-3.3-0.7-6.4-2.9-9.1c-1-1.3-1.8-2.7-1.9-4.4c-0.1-0.7-0.4-1.4-1.4-1.3
		c-0.5,2.8,2.2,16.5,4.6,23.5C925.3,341.1,925.4,342.5,926.8,342.8z M974.4,344.4c2.1-6.2-0.4-11.8-2.2-17.5c-0.7-2.2-1.6-4.6-4.1-6
		c-0.3,2.2-0.3,2.2,0.4,3.7c2.8,6.1,5.8,12.1,5.6,19.1C974.1,344,974.3,344.2,974.4,344.4z M921.6,340.2c-0.2-2.7-2.9-3.8-3.4-6.1
		c-0.5-2.4-0.7-5-1.7-7.2c-1-2.2,1.2-4.6-1.4-7.2c-0.5,4.8-1.9,8.8-0.3,13C916.2,335.9,917.4,339.1,921.6,340.2z M963.7,311.5
		c2.8-2.5,3.3-4.7,2.7-11.3c-0.4-4.4-2.1-7.9-5-9.7C965.1,297.3,965.1,304.2,963.7,311.5z M936.5,333.7c3,2.1,4.7,1.7,5.9-1.1
		c-2.9,0.9-2.9,0.9-4.6,0.3c-0.2-1.1,1.4-1.7,0.8-3.4c-0.3-0.5-0.7-1.5-1.9-1.8C935.4,329.9,936.4,331.9,936.5,333.7z M1010.5,334
		c-2.3-2.1-5-2.1-7.8-2.7c-0.1,1.3-0.2,2.3-0.2,3.2C1005.4,336.6,1007.7,332.7,1010.5,334z M983,343.3c-4.4,0-4.4,0-5.4,2
		C979.6,345.4,980.9,344.1,983,343.3z M935,324.7c1.3-0.6,1.3-1.6,1.3-2.8c-0.8-0.8-1.6-1.4-2.6,0C934,322.9,934,324,935,324.7z
		 M949.5,303.6c-0.2,1.6-0.5,3.3,1.3,4.8C951.5,306.2,950.7,304.8,949.5,303.6z M960.5,323.5c1.7,0.6,3.3,1.6,5.8,1.1
		C964.2,322.9,962.4,322.9,960.5,323.5z M954.4,314.6c2.3-0.9,2.3-0.9,2.7-2.4C955.9,312.4,955.3,313.1,954.4,314.6z M959.1,338.7
		c0.8-1.1,0.3-1.6,0-2.1c-0.3-0.4-0.4-1.1-1.4-0.9C958,336.7,958,337.8,959.1,338.7z M935.8,317.3c2.2,1.4,2.2,1.4,4.1,0.8
		C938.7,317.5,937.6,317,935.8,317.3z M935,317.8c-1.4,0.5-2.4,0.8-1.7,2.3C934.3,319.7,934.9,319.2,935,317.8z M938.4,326.2
		c0.8,1,1.3,1.8,2.5,1.2C940.7,326.1,940,325.8,938.4,326.2z M986.2,283.1c-1.1,0.4-2.1,0.9-2.4,2.3
		C985.3,285.1,985.9,284.3,986.2,283.1z M977.5,285.4c1,0.4,1.8,0.2,2.3-0.8C978.7,284.1,977.9,284.1,977.5,285.4z M955.1,323.6
		c0.9,0.4,1.7,0.5,2.3-0.6C956.3,322.4,955.7,322.9,955.1,323.6z M986.7,286.6c2.6-1.3,2.9-1.6,2.3-2.1
		C988,284.8,987.2,285.1,986.7,286.6z"/>
	<path fill="none" d="M400.1,480.6c-2.5,0.8-4.8-0.1-7.1-0.3c-6.2-0.4-12.5-0.5-18.6,0.6c-8.6,1.5-17.3,2.3-25.7,4.5
		c-4.9,1.3-9.9,2.5-14.6,4.5c-17,7.4-34.6,12.4-52.7,16.2c-11.3,2.4-22.5,5.5-33.6,9c-0.8-0.9,0.7-1.4,0.4-2.5c-1.1-1.3-2.8-1-4.3-1
		c-1.1,0.8,0,2.3-1.6,2.7c-1.3-2.5-3.8-2.5-6.2-2.3c-0.9,0-1.7,0.2-2.6,0.2c-2.3-0.2-4.8-0.2-5.8-2.4c-6.2-0.3-11.8,0.5-17.5,0.6
		c-0.4,0-0.8-0.5-1.6-1c1.6-0.8,2.8-1.5,3.5-2.9c0.5-0.9,1.7-0.9,2.7-1.1c5.8-1.2,10.9-4,15.9-7.1c2.1-1.3,2.1-1.4,4.1-7
		c4-1.9,8.3-3,12.7-3.9c15.1-3.1,30.1-6.9,44.9-11.2c8-2.3,16.2-3.7,24.7-2.9c11.2,1,22.1-0.5,32.6-4.5c4.8-1.8,9.7-3.2,14.6-4.5
		c2.7-0.7,5.4-1.4,7.7-2.7c4.8-2.7,9.9-3.1,15.1-3.2c5.9-0.1,11.7-0.5,17.4-1.8c2.7-0.6,5.7-0.3,8.6-0.5c7-0.6,13.8-1.9,20.4-4.4
		c7.5-2.9,15.4-3.9,23.3-5.2c11.6-1.9,23.3-1.4,35-1.8c2.4-0.1,4.7,0,7.1,0c0.3,1-0.7,1-1.2,1.4c-2.6,1.7-5.5,2.9-8.4,3.9
		c-10.7,3.4-21.6,6.1-32.3,9.1c-2.6,0.7-5.1,0.1-7.7,0.5c-6.1,0.9-12,2.6-17.5,5c-7.3,3.3-14.6,6.3-22,9.3
		C406.1,475.5,402.4,477.2,400.1,480.6z"/>
	<path fill="none" d="M222.7,523c-2.5,5.2-1.1,9.7,0.1,14.2c1.1,4.5,2.8,8.8,6.4,12.1c-1.3,1.3-3.1,1.6-4.7,2.2
		c-3.3,1.2-6.4,2.7-9.2,4.9c-2.8,2.2-5.9,4.1-9,5.9c-1.8,1-3.6,2.2-5.2,3.6c-4.1,3.5-7,3.7-11.4,0.6c-6.4-4.5-10.3-10.9-13.4-18
		c-2-4.6-1.9-9.4-2.2-14.3c-0.1-0.8,0.2-1.7,0.6-2.5c0.7-1.8,1.3-3.7,1.6-5.8c1.1-0.2,2.2-0.7,3.3-0.7c4.2,0,8.1-1,11.5-3.6
		c1-0.7,2.1-0.9,3.5-0.8c2.6,0.3,5.1-0.5,6.9-2.7c-1.3-2.5-3.1-1.5-4.9-0.8c1.2-3.3,4.5-2.8,6.5-4.3c0.9,1.2-0.8,1.8-0.3,2.8
		c1.3,0.7,1.4-1.4,2.5-1c3.7,1.2,7.3-0.1,11.3-0.3c1.7,2.1,4.5,1.1,7.7,1.5c-1.9,1-3.8,0.9-4.2,2.8c0.2,1.9,1.7,2.2,3.2,2.2
		c4.1,0,8.2-0.4,12.3-0.9c3.4-0.4,6.9-1.2,9.5,0.6c3.2,5.4,4.4,10.7,5.3,16.5c-3.7,2.4-7.6,5-11.9,7.7c-1.1-3.5-2.1-6.5-2.9-9.6
		c-0.9-3.8-2.3-7.3-3.7-10.9c-0.4-1.1-0.9-2.4-2.4-2.7c-1.1,0.2-1.3,1-1.4,1.9c-0.1,2,0.2,4,0.8,5.9c1.8,5,2.7,10.3,4.9,15.2
		c0.3,0.7,0.3,1.4,0.4,2c-0.4,0.9-1,1.3-1.9,1.3c-1.8-5.1-3.6-10.2-4.7-15.6C227.2,529,225.9,526,222.7,523z M215.3,524.7
		c-0.5,0.5-0.8,0.6-0.9,0.8c-0.2,0.5-0.4,0.9-0.4,1.4c-0.5,6.5,1.1,12.6,3.2,18.6c0.2,0.5,0.4,0.9,0.8,1.3c0.9,1,1.9,1.8,3.3,1.1
		c1.4-0.6,1.5-1.9,1.2-3.2c-1-4.9-1.8-9.8-3.5-14.5C218.2,528.2,217.3,526.2,215.3,524.7z M206.9,528.4c-1.8,2.7-1.5,5.6-0.6,8.2
		c1.5,4.3,2,9.3,6.4,12.1c2.7-1.1,2.8-3.1,2.2-5.1c-1.2-4.4-2.6-8.8-4.9-12.9C209.4,529.7,208.9,528.6,206.9,528.4z M179.4,537.2
		c0.2,0.9,0.8,1.5,1.5,2c1,0.9,1.9,2,2.4,3.3c1.5,4.4,2.5,8.8,1.5,13.5c-0.1,0.6-0.4,1.2,0.4,1.6c2.2-1.8,2.6-2.5,2.7-5.2
		c0.2-3.6-0.3-7.2-1.2-10.7c-0.8-2.9-2.2-5.5-5.3-6.3C180.2,535.7,179.6,536.2,179.4,537.2z M199.9,531.5c-2.5,2.8-2.1,5.8-1.5,8.6
		c0.6,2.7,0.6,5.8,3.8,6.9c1.9-0.4,2.6-1.4,2.4-3.2C204.3,539.5,203.1,535.4,199.9,531.5z"/>
	<path fill="none" d="M1026.2,345.9c1.7,0.2,1.4-1.1,2.3-1.2c-0.6,15.4-4.1,30.2-8.6,44.9c0.7-9.8,3.3-19.4,2.6-29.4
		c-1.7,1.9-1.1,4.2-1.5,6.4c-0.3,2.2-0.5,4.4-0.8,6.7c-0.3,2.3-0.7,4.7-1.1,7c-0.3,2.2-0.6,4.4-1,6.6c-0.3,2.3-0.6,4.7-1,7
		c-0.3,2.2-0.7,4.4-1.1,6.6c-0.4,2.3-0.7,4.7-1,7c-0.3,2.2-0.5,4.5-1,6.6c-0.5,2.3-0.2,4.7-1.5,6.8c-0.3-9.5-0.5-19,2.8-29
		c-3.4,2.3-2.5,5.6-4.1,8.4c0-4.3,0-8.1,0-12.4c-1.1,1.4-0.8,2.5-0.8,3.5c0,13.3-0.5,26.6,0.1,39.9c0.3,5.4-1.5,10.5-2.6,15.7
		c-1.9-10.9-3.1-21.9-1.2-33.4c-2.5,1.4-2.5,3.5-2.8,5.2c-0.7,4-1.1,8.1-0.9,12.3c0.1,1.9,0,3.7,0,5.6c-1.8-3.1-2.4-6.3-2-10
		c1.2-11.4,2.9-22.7,5.4-33.9c0.1-0.5,0.3-1,0.3-1.4c0.7-5.1,2.8-9.7,4.4-14.5c3.1-9,4.8-18.3,3.1-27.8c-0.5-2.6-1.1-5.1-3.8-6.5
		c1.2-1.9,2.3-3.6,3.3-5.4c1.6-2.7,2.8-5.5,2.9-8.7c0-1.4,0.2-2.7,1.7-3.7c2,4.2,2.7,8.5,3.2,13c0.5,4.3-0.3,8.6-0.4,12.8
		c1.6,0.2,1.6-0.7,1.7-1.4c0.9-7.7,0.5-15.4-1.1-23c-0.4-1.8-1.2-3.5-2.1-5.2c-0.8-1.4-1.4-2.9-1.2-4.5c0.5-1.1,1.4,0.5,2-0.5
		c0.1-1.3-1.6-1.2-2.1-2.2c-0.5-0.9,0.7-0.8,0.9-1.7c-1.3-1.5-2.1-3.5-1.7-6.2c4,3.3,6.3,7.4,7.8,12c1.5,4.5,2.5,9.1,2.9,13.8
		C1028.8,336.6,1026.8,341.2,1026.2,345.9z"/>
	<path fill="none" d="M994.5,407.5c0.6,8.2,2,16.2,3.7,24.3c0.4,2,0.3,4.2,0.3,6.3c0.1,9.8,2.3,19,8.3,27c0.6,0.8,1.2,1.7,1.4,2.6
		c1.3,5,2.9,10,4.8,15.1c-5.5-4.5-15.6-24.4-18-35.4C992.1,434.2,990.8,420.9,994.5,407.5z"/>
	<path fill="none" d="M1003.2,400.1c0.1-7.3,2.1-14.2,3.3-21.3c1.2-7.2,2.8-14.4,2.9-21.8c0-3.8,0.5-7.8-2.2-11.1
		c0.2-0.8,0.8-1.2,1.5-1.5c0.2,0.1,0.4,0.3,0.5,0.4c3.1,11.8,3.1,23.5-0.6,35.2c-1.9,6.1-3.3,12.5-4.9,18.7
		C1003.6,399.3,1003.6,399.8,1003.2,400.1L1003.2,400.1z"/>
	<path fill="none" d="M1002.4,403.1c-0.1,3.8-1.4,7.3-1.8,11c-0.3,2.1-0.7,4.1-1.1,6.6c-2.9-9.4-2.6-28.3,2.6-33.7
		c0.6,5.4-0.9,10.4-1.4,15.2C1001.2,403.2,1001.9,402.9,1002.4,403.1L1002.4,403.1z"/>
	<path fill="none" d="M996,306.8c3.4-5.6,8.1-8.7,14.8-8.4c0.3,0.1,0.6,0.5,0.8,1c0.1,0.3,0.2,0.7,0.2,1c-0.7,0.9-1.8,1-2.7,1.3
		c-2.3,0.9-4.2,2.4-6.4,3.3C1000.6,305.9,998.2,306,996,306.8z"/>
	<path fill="none" d="M1015.9,320.6c-4.8,1.1-9-0.1-13.9-1.7c4.1-0.3,7.6,0.2,11.3-0.5c-4.3-1.6-8.9-0.6-13.6-2.4
		c3.9-0.5,7.2-0.2,10.7-1.3c1.1,1.9,3.1,1.3,4.8,1.3C1016.1,317.6,1015.8,319,1015.9,320.6z"/>
	<path fill="none" d="M948.7,361.3c-0.2-1.1,0.2-1.6,0.7-2.1c0.6-0.4,1.2-0.2,1.9-0.1c0.5,0.1,1,0.1,1.7,0.3
		c1.4,3.8,5.4,2.1,7.8,3.6c1.9-0.3,1.6-2,2.7-3c1.9,0.2,3.5,1.2,5.9,2.6c-3.7,0.9-6.3,2.3-9.8,1.1
		C956.3,362.5,952.3,362.9,948.7,361.3z"/>
	<path fill="none" d="M1011.5,463c-3.2-9.5-3.2-12.1-0.3-20.9C1012.1,449.3,1012.7,456.1,1011.5,463z"/>
	<path fill="none" d="M1016.2,463.3c2.3,8.2,4.7,16,8,23.8C1020.3,483.8,1015.9,470.8,1016.2,463.3z"/>
	<path fill="none" d="M884.3,570.4c-0.7,1.6-1.3,2.8-1.9,4.2c-2.5-0.2-4-2.1-6-2.7c-0.2-1.4,0.5-2.3,1-3.3
		C879.4,569.8,881.8,569.4,884.3,570.4z"/>
	<path fill="none" d="M1001.9,444.9c1.4,4.5,2.8,9.1,4.3,14.1C1003.6,456.6,1002.1,451.8,1001.9,444.9z"/>
	<path fill="none" d="M945.6,284.5c-0.4,1.4-1.4,2-2,3c-2.1-0.3-4,0.8-6.4,1C939.4,285.6,942.1,284.6,945.6,284.5z"/>
	<path fill="none" d="M995.6,289.5c3.4-5,4-5.3,7-3.3C1000.2,287.4,997.9,288.4,995.6,289.5z"/>
	<path fill="none" d="M1012.5,302.9c0.9,0.9,1.3,1.6,0.9,2.8c-2-0.1-3.9-0.5-5.9-1.6C1009.1,302.6,1011.1,303.8,1012.5,302.9z"/>
	<path fill="none" d="M962.1,287.3c0.2-1.2,2.5-1.7,1-3.4c1.2-0.7,2.3-1.1,3.9-0.9C965.6,285,964.9,287.3,962.1,287.3L962.1,287.3z"
		/>
	<path fill="none" d="M925.3,296.3c2.5-2.2,5.1-2.9,7.3-4.1C930.8,294.3,928.9,296.2,925.3,296.3z"/>
	<path fill="none" d="M1000.9,385.2c0.3-1.7,0.6-3.3,0.9-5c0.1,0,0.2,0,0.3,0c0,1.4,0.1,2.7,0,4.1
		C1002.2,385,1001.6,385.2,1000.9,385.2L1000.9,385.2z"/>
	<path fill="none" d="M971.5,360.9c-1.7,0-2.5-1.6-3.9-2.1C969.4,358.7,970.7,359.4,971.5,360.9z"/>
	<path fill="none" d="M237.2,515.3c-1.9,1.1-3.4,1.5-5.1,1.2C234.1,515.3,234.1,515.3,237.2,515.3z"/>
	<path fill="none" d="M1008.8,306.9c-1,1.2-2,1.9-3.9,1.4C1006,306.7,1007.3,306.7,1008.8,306.9z"/>
	<path fill="none" d="M554.9,435.9c-1-0.1-1.5,0.7-2.2,1.2c-0.7-0.7-0.1-1.6-0.5-2.4C553.5,434.4,554.3,435,554.9,435.9L554.9,435.9
		z"/>
	<path fill="none" d="M947.7,287.2c-0.1-1.5,0.5-2.1,1.3-2.5C949.8,286,948.9,286.4,947.7,287.2z"/>
	<path fill="none" d="M985.7,348.9c1.2-0.3,2.1,0,2.9,1C987.2,350.5,986.5,349.6,985.7,348.9z"/>
	<path fill="none" d="M619.5,360.5c0.2,0.5,0.3,1.1,0,1.6C619.3,361.6,619.3,361,619.5,360.5z"/>
	<path fill="none" d="M1002.5,403.1c0.2-1-0.2-2.2,0.7-3.1l-0.1-0.1C1002.9,401,1003.4,402.2,1002.5,403.1L1002.5,403.1z"/>
	<path d="M780.2,419.7c-6.6-8.6-8.8-18.3-6.2-28.9c0.3-1.2,0.5-2.8,2.9-2.6c-0.8,5.4-1.9,10.7-0.9,16.2
		C776.8,409.6,779.1,414.4,780.2,419.7z"/>
	<path d="M840.7,352.6c-0.8,2.9-2.4,4.4-3.9,6c0.3,1.5,2.6,0.5,2.6,2.3c-1.5,0.9-3,0.2-4.5-0.5c-0.9,0.4-1.9,0.9-2.8,1.3
		c-0.2,0.1-0.4,0.2-0.5,0.1c-2.8-1.1-5.3,0.5-7.9,0.9c-0.9,0.2-1.7,0-2.2-0.9c0.1-1.3,1-1.7,2-2c0.7-0.2,1.4-0.6,2.1-0.6
		c5.6,0.4,9.4-3.1,13.5-6C839.4,353.1,839.7,353,840.7,352.6z"/>
	<path d="M865.6,353.7c4.7,5.8,6.7,12.8,8.8,19.7C870.4,367.3,868.9,360.1,865.6,353.7z"/>
	<path d="M862.1,338.6c-1.4-2.6-1.9-7-1.4-12.5C861.9,328.7,862.7,335.8,862.1,338.6z"/>
	<path d="M860.8,346.6c3.4-0.4,6.1,0.2,9,1.1C866.1,349.1,863.5,348.9,860.8,346.6z"/>
	<path d="M761.7,370.4c2.8,0.6,4.3,3,6.7,4.8C765.1,375.3,764.2,374.6,761.7,370.4L761.7,370.4z"/>
	<path d="M901.4,355.7c-2.3,1.8-4,1.8-6.6,0.9C897.1,355.6,898.8,354.9,901.4,355.7z"/>
	<path d="M877.1,357.7c-1.8,1.3-3,0-4.5-0.6C874.2,356.5,875.7,356,877.1,357.7z"/>
	<path d="M871.1,332.7c-1.4,1.9-2.5,2.8-4.7,3.4C867.7,334.1,868.9,333.4,871.1,332.7z"/>
	<path d="M842.8,350.2c-0.4-1.6,0.4-2.5,1.3-3.8C844.4,348.5,844.4,348.5,842.8,350.2z"/>
	<path d="M888.8,357c-1.6,1.2-2.8,0.6-4,0.1C885.9,356.9,887,355.8,888.8,357z"/>
	<path d="M841.4,362.7c1.4,0,2.1,0.6,2.5,1.5c-0.1,0.4-0.4,0.6-0.8,0.4C842.4,364.2,841.6,364,841.4,362.7z"/>
	<path d="M875.8,347.4c0.8-0.3,1.6-0.4,2,0.6C876.9,348.5,876.3,348.3,875.8,347.4z"/>
	<path d="M874.5,329.9c-0.3,1-0.8,1.1-1.4,1.4C873.1,330.4,873.6,330.1,874.5,329.9z"/>
	<path d="M836.5,353.5c-0.4-0.6,0.2-0.8,0.4-1.3C837.2,352.8,837.3,353.3,836.5,353.5z"/>
	<path d="M761.8,370.3c-0.4-0.5-0.8-1-1.6-2C761.5,368.9,761.8,369.5,761.8,370.3L761.8,370.3z"/>
	<path d="M788.6,432c-0.8-0.2-1.3-0.4-1.6-1.2C788,430.6,788.7,430.6,788.6,432z"/>
	<path d="M402.6,497.1c0.9-1.7,1.9-3.4,2.8-5.1c1.9-3.2,4-4.1,7.8-3.3c1.1,0.2,2.2,0.4,3.4,0.7c2.3-1.9,4.1-4.2,6.7-5.8
		c1.4-0.9,2.8-1.6,4.3-2.2c1-0.4,1.7-0.1,2.6,1.1c-3.7,3.8-9.2,5-13,8.7c-3.9-1.1-7.2-0.4-9.6,3c-1.2,1.6-2.8,2.6-4.5,3.5
		C402.9,497.5,402.8,497.3,402.6,497.1z"/>
	<path d="M483.5,466.3c1.7-4.1,5-6.6,8.6-8.7c4.3-2.6,8.9-2.4,14.2-1.5C498.2,459.3,489.6,460,483.5,466.3z"/>
	<path d="M416.4,514.4c4.2-0.9,8.2-3.2,13-3.4C427.6,514,427.6,514,416.4,514.4z"/>
	<path d="M388.7,503.5c2.6-2.6,5.6-4.6,8.8-6.2c1,0.9,0.6,1.5,0,2C394.9,501.3,391.9,502.6,388.7,503.5z"/>
	<path d="M413.1,514.7c-3.7,0.8-7.4,0.2-11.4-1C405.9,512.3,409.5,513.7,413.1,514.7z"/>
	<path d="M432.1,509.9c4.3-1.4,8.6-0.9,13.1-0.4C440.6,510,436.4,511.5,432.1,509.9z"/>
	<path d="M261.9,517.6c2.2-1.5,4.5-1.3,7.7-0.4C266.6,518.5,264.2,518,261.9,517.6z"/>
	<path d="M369.6,511.1c1.3-1.5,3.1-1.9,4.8-2.9C374.2,510.8,373.9,510.9,369.6,511.1z"/>
	<path d="M276.7,516.9c-1.6,1.2-3,1.3-5.2,0.5C273.5,516.3,274.8,516.3,276.7,516.9z"/>
	<path d="M354.8,512.9c1.2-1,2.2,0.2,4.1,0.2C356.5,513.8,356.5,513.8,354.8,512.9z"/>
	<path d="M540.7,443.4c-0.7,1.1-1.7,1.4-3.3,1.3C538.5,443.8,539.4,443.2,540.7,443.4L540.7,443.4z"/>
	<path d="M459.3,509.7c-0.9,1.2-1.3,0.4-2.1,0.1C458,508.8,458.5,509.1,459.3,509.7z"/>
	<path d="M452.2,508.9c0.5-0.9,1.1-0.5,1.8-0.2C453.1,509.6,453.1,509.6,452.2,508.9z"/>
	<path d="M532.2,446.7c0.5-0.6,1.1-1,2-0.8c0.1,0.6-0.4,0.6-0.7,0.8C533,446.9,532.6,447.2,532.2,446.7z"/>
	<path d="M380.1,425.3c1.9-4.8,4.9-8.2,10.3-8.1c2.9,0.1,5.9-0.7,8.9,0.9c3.1-3.7,7.1-6,12-6.8c1.1-0.2,2.2-0.6,3,0.6
		c0.3,1.4-0.7,1.7-1.7,2c-4.3,1-8.3,2.6-11.9,5.1c-1.8,1.2-3.9,0.8-5.8,1.2C389.8,421,384.5,421.5,380.1,425.3z"/>
	<path d="M381.1,442.1c-6.8-0.8-13-2.4-19.3-3c6.3-0.4,12.6-0.2,18.7,1c4.9-2.2,4.9-2.2,8-0.7C385.9,440.8,382.8,439.6,381.1,442.1z
		"/>
	<path d="M389.6,439.9c4.5-2,9.5-1,13.4-3.5c0.8,0.1,1.3,0.4,1.5,1.4c-0.4,1.6-1.7,2.3-3.3,2.8C397.6,441.7,392.8,441.5,389.6,439.9
		z"/>
	<path d="M483.5,437.7c3-1.4,6-1.9,9.2-2C489.8,437.2,486.9,438.5,483.5,437.7z"/>
	<path d="M350.7,440.7c1.8-1.2,3.4-1.3,5.5,0C354.1,441.9,352.3,441.2,350.7,440.7z"/>
	<path d="M241.5,481.5c1.8-2,3.5-2.6,6.3-2.8C245.9,480.7,244.2,481.6,241.5,481.5z"/>
	<path d="M508,429c-0.5,1.2-1.4,1.6-2.6,1.5C505.6,428.7,507.1,429.3,508,429z"/>
	<path d="M338.6,443c1-1,1.6-0.7,2.5,0C340.2,443.6,339.5,443.5,338.6,443z"/>
	<path d="M679.3,403.9c-0.3,1.6-1.2,2.2-2.4,2.3c-2.5,0.2-4.5-0.7-6.9-3.2c0.1-1.5,0.1-3,1.4-4.4c1.9,0.4,2.3,2.2,3.4,3.3
		C676,403.1,677.7,403.1,679.3,403.9z"/>
	<path d="M657,353.9c2.3-1.6,4.2-4.5,7.9-4.2c-0.5,2.4-2.5,1.9-3.8,2.6C659.8,353,658.4,353.4,657,353.9z"/>
	<path d="M693.9,395.8c-1.4,1.7-3.1,2.5-5.8,2.2C689.8,395.7,692,396.1,693.9,395.8z"/>
	<path d="M667.6,447.8c-2.2,1.1-4,0.5-6-0.2C663.7,446.3,663.7,446.3,667.6,447.8z"/>
	<path d="M713.2,391c-1.3,1.7-2.5,2.6-4.7,2C709.9,391.7,711.1,390.9,713.2,391z"/>
	<path d="M679.5,402.7c0.7-1.4,1.6-1.3,2.8-0.5C681.4,403.3,680.7,403.5,679.5,402.7z"/>
	<path d="M701.8,393.8c-0.5,1.2-1.1,0.9-1.8,0.6C700.6,393.1,701.2,393.6,701.8,393.8z"/>
	<path d="M955.4,311.7c-1-0.2-1.5-0.5-1.8-1.3c-0.1-0.6,0.7-1.1,0.8-1.9c-0.5-1.2-2.3-1-2.5-2.5c-0.3-1.2-0.3-2.4,0-3.7
		c0.6-0.5,1.2-1.1,1.9-1.6c-0.3-1.6-1.9-2-2.8-3c-0.3-1.1-0.4-2.1,0.7-3.2c1.9,1.2,2.9,3.2,4.8,5.1c0-2.8-2.1-4-2.9-6
		c2.5,0.6,4.7,3.7,5.3,7.6C959.5,305.2,958.5,308.9,955.4,311.7z"/>
	<path d="M963.8,345.6c-1.8-2.5-0.3-4.6-0.4-6.5c-0.6-1.1-2.2-0.7-2.7-1.8c-0.8-2-1.8-4,0.6-5.6c-0.6-1.6-2.5-1.5-2.9-3
		c-0.2-0.6,0-1.2,0.6-1.6c0.2,0,0.6-0.1,0.7,0.1c1.4,1.2,2.9,2.4,4.8,2.8c1.4,0.3,2.3,1.2,2.7,2.4c1.2,3.8,1.7,7.7,0.6,11.7
		c0,0.2-0.4,0.3-0.8,0.6c-0.7-2.7,0.5-5.4-0.5-8.4C964.9,339.3,965.3,342.5,963.8,345.6z"/>
	<path d="M926.8,342.8c-1.4-0.3-1.5-1.8-1.9-2.8c-2.5-7-5.1-20.7-4.6-23.5c1-0.2,1.4,0.6,1.4,1.3c0.2,1.7,0.9,3.1,1.9,4.4
		c2.2,2.6,2.7,5.8,2.9,9.1c0.2,3.5-0.6,7.2,1.2,10.6C928,342.2,927.5,342.7,926.8,342.8z"/>
	<path d="M974.4,344.4c-0.1-0.2-0.3-0.5-0.3-0.7c0.2-7-2.8-13-5.6-19.1c-0.7-1.5-0.7-1.5-0.4-3.7c2.5,1.4,3.3,3.7,4.1,6
		C974.1,332.6,976.5,338.2,974.4,344.4z"/>
	<path d="M921.6,340.2c-4.1-1.1-5.4-4.3-6.6-7.5c-1.6-4.2-0.2-8.2,0.3-13c2.6,2.6,0.4,5,1.4,7.2c1,2.2,1.1,4.8,1.7,7.2
		C918.7,336.5,921.4,337.5,921.6,340.2z"/>
	<path d="M963.7,311.5c1.3-7.4,1.4-14.2-2.4-21c2.9,1.7,4.6,5.2,5,9.7C967,306.9,966.6,309.1,963.7,311.5z"/>
	<path d="M936.5,333.7c-0.1-1.9-1.2-3.8,0.2-6c1.2,0.3,1.6,1.3,1.9,1.8c0.6,1.7-1,2.3-0.8,3.4c1.7,0.6,1.7,0.6,4.6-0.3
		C941.3,335.5,939.6,335.8,936.5,333.7z"/>
	<path d="M1010.5,334c-2.8-1.3-5.1,2.6-8,0.5c0.1-0.9,0.1-2,0.2-3.2C1005.5,331.8,1008.2,331.9,1010.5,334z"/>
	<path d="M983,343.3c-2.1,0.8-3.4,2.1-5.4,2C978.6,343.4,978.6,343.4,983,343.3z"/>
	<path d="M935,324.7c-1-0.7-1-1.8-1.3-2.8c1-1.4,1.7-0.8,2.6,0C936.4,323.2,936.3,324.2,935,324.7z"/>
	<path d="M949.5,303.6c1.2,1.3,2,2.6,1.3,4.8C949,306.9,949.3,305.2,949.5,303.6z"/>
	<path d="M960.5,323.5c1.9-0.6,3.7-0.5,5.8,1.1C963.8,325,962.2,324,960.5,323.5z"/>
	<path d="M954.4,314.6c0.9-1.5,1.6-2.2,2.7-2.4C956.7,313.7,956.7,313.7,954.4,314.6z"/>
	<path d="M959.1,338.7c-1.1-0.8-1.1-1.9-1.4-3c1-0.2,1.1,0.5,1.4,0.9C959.3,337.1,959.8,337.6,959.1,338.7z"/>
	<path d="M935.8,317.3c1.9-0.2,2.9,0.3,4.1,0.8C938,318.6,938,318.6,935.8,317.3z"/>
	<path d="M935,317.8c-0.1,1.5-0.7,2-1.7,2.3C932.6,318.6,933.6,318.3,935,317.8z"/>
	<path d="M938.4,326.2c1.5-0.4,2.2-0.1,2.5,1.2C939.8,328,939.2,327.3,938.4,326.2z"/>
	<path d="M986.2,283.1c-0.3,1.1-1,1.9-2.4,2.3C984.1,284,985.2,283.5,986.2,283.1z"/>
	<path d="M977.5,285.4c0.4-1.2,1.2-1.3,2.3-0.8C979.2,285.6,978.5,285.8,977.5,285.4z"/>
	<path d="M955.1,323.6c0.6-0.7,1.2-1.2,2.3-0.6C956.8,324.1,956,324,955.1,323.6z"/>
	<path d="M986.7,286.6c0.5-1.5,1.4-1.8,2.3-2.1C989.6,285,989.3,285.3,986.7,286.6z"/>
	<path d="M215.3,524.7c2,1.5,2.9,3.5,3.7,5.6c1.7,4.7,2.6,9.6,3.5,14.5c0.3,1.3,0.2,2.6-1.2,3.2c-1.4,0.6-2.4-0.2-3.3-1.1
		c-0.3-0.4-0.6-0.8-0.8-1.3c-2.1-6-3.8-12.1-3.2-18.6c0-0.5,0.2-1,0.4-1.4C214.5,525.3,214.8,525.2,215.3,524.7z"/>
	<path d="M206.9,528.4c2,0.1,2.5,1.3,3.1,2.4c2.2,4.1,3.6,8.5,4.9,12.9c0.6,2,0.5,4-2.2,5.1c-4.4-2.8-4.8-7.8-6.4-12.1
		C205.4,534.1,205,531.1,206.9,528.4z"/>
	<path d="M179.4,537.2c0.1-1,0.8-1.5,1.9-1.8c3.2,0.8,4.5,3.4,5.3,6.3c1,3.5,1.4,7,1.2,10.7c-0.2,2.7-0.5,3.4-2.7,5.2
		c-0.7-0.4-0.5-1-0.4-1.6c1.1-4.7,0-9.1-1.5-13.5c-0.4-1.3-1.3-2.4-2.4-3.3C180.3,538.7,179.6,538.2,179.4,537.2z"/>
	<path d="M199.9,531.5c3.2,3.9,4.4,8,4.8,12.3c0.2,1.8-0.5,2.8-2.4,3.2c-3.2-1.1-3.3-4.2-3.8-6.9
		C197.8,537.3,197.4,534.4,199.9,531.5z"/>
</g>
</svg>
