<?xml version="1.0" encoding="utf-8"?>
<!-- Generator: Adobe Illustrator 19.2.0, SVG Export Plug-In . SVG Version: 6.00 Build 0)  -->
<svg version="1.1" id="Layer_2" xmlns="http://www.w3.org/2000/svg" xmlns:xlink="http://www.w3.org/1999/xlink" x="0px" y="0px"
	 viewBox="0 0 900 600" style="enable-background:new 0 0 900 600;" xml:space="preserve">
<g>
	<path d="M573.1,416.7c-1.5-3.5-3.5-6.6-5.7-9.7c-1.5-2.1-3.3-3.9-5.5-5.4c-3.6-2.5-6.3-6-8.9-9.5c-3-4-5.2-8.4-7.4-12.8
		c-2.1-4.1-4-8.3-6-12.4c-0.3-0.6-0.6-1.3-1-1.9c-2.9-4.2-5-8.8-6.8-13.5c-2.2-5.8-4.2-11.7-6.2-17.6c-0.7-2-1.2-4.1-1.6-6.1
		c-0.4-2.1-0.8-4.1,0.9-6c0.6-0.7,0.6-2,0.8-3c0.5-3,1.7-5.6,4.8-7.4c1.2,0.2,2.7,0.4,4.2,0.7c11.5,2.5,23.2,4.2,34.4,7.7
		c1.3,0.4,2.7,0.9,4,1.3c1.1,0.3,2.1,1,3.4,0.5c0.6-0.2,1.6,0.2,2.3,0.6c2.4,1.2,4.9,2.3,7.2,3.7c2.7,1.6,5.4,3.4,8,5.1
		c5.9,4,11.8,7.7,18.1,11.1c1.2,0.7,2.5,1.3,3.9,1.6c2.9,0.7,5.6,1.7,8.3,3c2.4,1.2,4.9,2.4,7.3,3.6c1.8,0.9,3.5,1.9,5.6,2.2
		c2,1.5,4.4,1.3,6.7,1.7c4.9,0.8,9.5,2.6,14,4.7c0.6,0.3,1.1,0.8,1.7,1.3c2.7,2.3,5.4,4.5,8.1,6.8c0.8,0.7,1.5,1.4,2.2,2.1
		c0.2-0.1,0.5-0.2,0.6-0.4c1.7-2.5,4.3-3.9,6.5-5.9c0.1-0.1,0.2-0.2,0.3-0.2c2.8-1,5.5-2.1,8.3-2.9c3.1-0.8,6.1,0.3,9.1,0.8
		c0.9,0.2,1.8,0.5,2.7,0.8c1.6,0.5,3.1,1.1,4,2.6c0.2,0.3,0.6,0.4,1.1,0.6c1.8-1.2,4-1.4,6.2-1.5c1.5-0.1,2.8,0.2,4.1,0.9
		c1.4,0.8,2.8,1.7,4.2,2.6c1,0.7,1.8,1.8,3.4,1.5c0.5-0.1,1.2,0.7,1.6,1.2c2.3,3.1,3.6,6.6,4,10.4c0.5,4.5,0.7,8.9,0.3,13.4
		c-0.2,2.9-0.5,5.9-0.8,8.8c0,0.6-0.1,1.2,0.1,1.7c0.8,1.7,0.6,3.5,0.2,5.2c-2.1,8.7-2.4,17.5-2.2,26.3c0.1,4.8,0.2,9.7,0.1,14.5
		c-0.1,6.6-0.8,13.2-2.7,19.5c-1.5,5.1-3.9,9.8-7.1,14.1c-1.1,1.5-2.3,3-3,4.8c-0.1,0.2-0.4,0.2-0.6,0.3l0.1,0.1
		c0.1-0.9,0-1.9,0.2-2.7c2.3-7.2,4-14.5,5.1-21.9c0.4-2.9,0.7-5.8,0.8-8.8c0.1-4.7,0-9.4,0.1-14.1c0-0.9,0.1-1.8,0.5-2.8
		c0.1,0.5,0.3,1,0.3,1.5c0.9,11.7,0.4,23.2-2.4,34.7c-0.3,1.1-0.3,2.3-0.5,3.5l-0.2,0.1l0.1-0.2c2.6-4.8,3.9-10,4.9-15.4
		c0.9-5,1.3-10,1.4-15.1c0.1-6.5,0.3-12.9,0.4-19.5c-0.2,0-0.5,0-0.9-0.1c-0.4-3.6,0.5-7.2,0.3-10.8c-0.1-3.5,0-7.1,0-10.6
		c0-3.6-0.1-7.2-0.7-11c-1.5,3.2-2.6,6.2-4.3,8.8c-1.7,2.6-3.1,5.5-5.8,7.6c1.2,6.4,0.4,12.9,0.9,19.6c1,1.1,1.9,2.7,1.9,4.8
		c1-8.9,0-17.6,1.1-26.2c0,0,0.2-0.1,0.5-0.2c0.1,0.6,0.2,1.1,0.2,1.6c0.1,7.4,0.2,14.8-0.4,22.2c-0.2,3-0.1,6.1-0.2,9.2
		c0,6.8,0,13.7,0,20.5c0,0.9,0,1.8-0.3,2.8c-0.9-1.8-0.5-3.8-0.9-5.8c-0.3,4-0.5,7.9-0.9,11.7c-0.6,5.9-2.1,11.6-4.7,16.9
		c-0.6,1.2-0.9,2.7-2.5,3.2l-0.1-0.1c0.2-0.7,0.3-1.4,0.5-2c2.4-5.3,3.9-10.8,4.8-16.6c0.1-0.8,0.2-1.6,0.3-2.5
		c0.2-4.7,0.4-9.4,0.6-14.5c-0.9,1.8-1.1,3.4-0.5,5c-1.4,1.1-1.8,2.5-2.1,4c-1,4.4-2,8.7-3.1,13c-1.6,6.3-3.8,12.4-6.7,18.2
		c-1.1,2.1-2,4.3-4,5.7c-0.4,0.3-0.6,0.7-0.9,1.1c-1.8,2.5-3.8,4.8-6.5,6.4c-0.1,0.9,0,1.7-0.2,2.5c-0.2,1.1-0.4,2.4-1,3.3
		c-2,2.9-3.2,6.3-5.7,8.8c-2.4,2.5-5.3,4.3-8.4,5.8c-4.3,2.2-8.5,4.6-13.1,6.2c-0.7,0.3-1.4,0.9-1.8,1.5c-2.4,3.9-5.9,6.3-9.9,8.2
		c-2.2,1.1-4.5,1.9-6.9,2.4c-7.2,1.6-14.4,3.3-21.7,4.9c-4.8,1-9.7,1.8-14.6,2.7c-2.1,0.4-4.2,0.6-5.9,2.2c-0.4,0.4-1,0.5-1.6,0.6
		c-0.7,0.2-1.5,0-2.1,0.3c-3.5,1.8-7.4,2.1-11.1,3.3c-5.5,1.8-11,3.5-16.5,5.2c-6,1.9-11.9,3.7-18,4.9c-0.3,0.1-0.7,0.2-1,0.2
		c-6.7,0.7-13.1,3-19.3,5.3c-3.3,1.2-6.6,2.4-10.1,3c-1.2,0.2-2.2,0.6-3.2,1.3c-3.9,2.3-7.8,4.3-11.8,6.5c-2.8,1.5-5.6,2.2-8.8,1.6
		c-2.3-0.5-4.7,0-7,0.7c-2.3,0.8-4.6,1.7-6.9,2.7c-1.8,0.8-3.5,1.7-5.7,1.5c-1.8-0.2-3.7,0.4-5.6,0.7c-4.2,0.6-8.4,0.7-12.7,0.9
		c-1.7,0.1-3.2-0.2-4.6-1.4c-0.6-0.5-1.4-0.7-2.2-1.1c-0.4-0.9-0.8-1.7,0.3-2.4c1.5,1.2,3.1,2.2,5,2.3c4.2,0.2,8.5,0.4,12.7,0.5
		c0.6,0,1.2,0.1,1.8-0.1c2.5-0.8,5-1.2,7.4-2.3c5.1-2.3,10.3-3.9,16-3.6c2.3,0.1,4.7-0.4,6.9-1.4c1.4-0.6,2.8-1.3,4.2-2
		c3.5-1.7,6.9-3.6,10.8-4.3c0.4-0.1,0.9-0.4,1.3-0.6c7.5-4.2,15.6-6.8,23.8-8.8c14.7-3.4,29-8.4,43.6-11.8c1-0.2,1.9-0.7,2.9-1
		c-0.2-0.6-0.3-1.1-0.4-1.5c0.7-0.8,1.7-0.8,2.6-0.8c1.6,0,3.3,0,4.9,0.1c1.4,0.1,2.7-0.1,4.1-0.7c1.7-0.8,3.5-1.2,5.4-1.7
		c1.7-0.4,3.5-0.6,5.2-1.1c8.6-2.6,17.3-4.5,26.1-6.4c4.3-0.9,8.3-2.5,12.2-4.4c1.6-0.8,3.1-1.6,4.1-3.2c0.5-0.8,1.3-1.3,2.1-1.9
		c4.5-3.7,9.3-6.9,14.5-9.3c2.6-1.2,5.1-2.5,7.5-4c2.6-1.6,5.3-3.2,6.3-6.4c0.1-0.3,0.4-0.6,0.7-0.8c1.5-1.2,1.9-2.9,2.2-4.7
		c0.4-3.4,0.4-6.8-0.3-10.4c-1.4-0.8-2-2.3-2.6-3.9c-1.4-3.8-3.1-7.4-5.1-10.8c-1.1-1.9-2.4-3.8-3-6c-0.1-0.3-0.5-0.4-0.9-0.8
		c-1.1,0.6-2.2,1.2-3.3,1.8c-5.1,2.9-9.8,6.5-14.3,10.4c-5.7,5-10.6,10.7-15.6,16.3c-0.5,0.5-0.9,1.1-1.4,1.6
		c-0.4,0.5-1.2,0.7-1.1,1.7c1.2-0.5,2.3-1,3.4-1.4c2.5-0.8,4.7-2.1,6.8-3.7c2.1-1.5,4.4-2.6,6.7-3.9c0.1,0,0.2,0.1,0.4,0.1
		c-0.2,0.3-0.2,0.6-0.5,0.8c-3.1,2.3-6.2,4.6-9.4,6.9c-0.6,0.5-1.4,0.8-2.2,1c-1.9,0.4-3.5,1.2-5.1,2.2c-2.4,1.5-4.8,3-7.3,4.2
		c-5.9,2.9-11.6,6.3-17,10c-2.4,1.7-4.9,3.2-7.5,4.7c-0.9,0.5-1.8,1-3,0.4c-0.4-0.2-1.1-0.1-1.7,0.1c-2,0.8-3.9,1.6-5.9,2.5
		c-0.1,0.1-0.2,0.3-0.2,0.4c1,0.4,1,0.4,1.3,1.3c-1.3,0.4-2.6,0.2-3.8,0.3c-4.2,0-8.5,0-12.7,0.7c-4.3,0.7-8.6,1.6-12.5,3.5
		c-2.5,1.2-5.1,2.3-7.7,3.5c-1.2,0.5-2.4,1.3-3.6,1.4c-1.8,0.2-3.4,1-4.9,1.9c-1.6,0.9-3.2,1.8-4.7,3c-1.5,1.2-3.6,1.6-5.5,2.3
		c-0.7,0.3-1.3,0.7-2,0.7c-1.9-0.1-3.4,0.8-5.1,1.3c-4.2,1.4-8.5,2.9-12.7,4.2c-3,0.9-6.1,1.6-9,3.1c-0.9,0.5-2.1,0.8-3,0.6
		c-2.1-0.5-4.2-0.2-6.3-0.3c-5.2-0.2-10.4-0.1-15.5-0.7c-4-0.5-7.7-0.1-11.4,1.3c-1.6,0.6-3.3,1.2-5,1.6c-1.9,0.5-3.9,1-5.8,1.4
		c-3.4,0.8-6.5,2.7-10.2,2.7c-0.1,0-0.2,0.1-0.3,0.1c-4.1,1.6-8.1,3.2-12.2,4.8c-0.4,0.2-0.7,0.6-1.1,0.9c1.1,1,2.4,0.9,3.5,0.7
		c3.5-0.6,7-1.3,10.4-2.1c4.5-1.1,9-1.5,13.6-1.9c0.2,0,0.4,0.1,0.8,0.2c0.2,0.4,0.4,0.9,0.6,1.6c-0.6,0.3-1.1,0.7-1.6,0.9
		c-2.4,1-4.8,2-7.2,2.9c-0.5,0.2-1.1,0.5-1.7,0.6c-2.3,0.5-4.6,1-6.9,1.5c-2.2,0.5-4.4,0.9-6.6,0.9c-1.1,0-2.3,0.5-3.4,0.9
		c-0.5,0.2-1,0.6-0.8,1.3c2,1.1,2.3,1.2,4.3,1.2c3.3,0,6.6-0.2,9.9-0.3c2.1-0.1,4.2-0.6,6.2-1.1c3.2-0.8,6.4-1.5,9.7-2.1
		c0.4-0.1,0.8,0.1,1.8,0.3c-1,0.6-1.4,1-2,1.1c-4.4,1-8.7,3.1-13.4,2.9c-0.5,0-0.9,0.1-1.4,0.2c-3,0.5-6.1,0.7-9.1,0.3
		c-1.3-0.2-2.6-0.2-4,0.5c0.1,0.8,0.3,1.5,0.4,2.3c1.7,0.1,3.2,0.2,4.7,0.4c4.4,0.6,8.9,1,13.3-0.1c1-0.3,2.1-0.5,3.1-0.6
		c2.6-0.3,5.1-0.5,7.7-0.7c0.2,0,0.5,0.3,0.9,0.5c-1.3,1-2.6,0.5-3.8,0.9c-2.7,2.2-5.5,3.5-9.1,2.2c-0.3-0.1-0.7-0.1-1-0.1
		c-1.9,0.4-3.9,0.7-5.8,1.1c-0.9-0.8-1.9-1-2.9-0.4c-0.3-0.2-0.5-0.6-0.8-0.6c-2.7,0.1-5.2-1.2-8-1.4c-0.2-1.3-0.4-2.6-0.7-4.3
		c-0.5-0.8-2.5-1-2.4-3.2c1.1-1,2.4-1.8,4-2.3c3.4-1,7-1.3,10.4-1.7c3.7-0.5,7-1.8,11-3.6c-1.3-0.1-1.9-0.2-2.5-0.1
		c-4.6,0.9-9.3,1.1-13.8,2.7c-1.3,0.4-2.7,1-4.1,0.3c-0.4-0.2-0.9,0.1-1.4,0.1c-0.6,0.1-1.2,0.2-1.7,0.2c-1.1,0-2-0.6-2.3-1.4
		c-0.3-1.2,0.1-2.5,1.1-3.1c0.7-0.4,1.4-0.8,2.2-1.1c3.4-1.2,6.8-2.5,10.3-3.6c4.8-1.5,9.8-2.7,14.6-4c2.7-0.7,5.4-1.4,8-2.6
		c2.1-1,4.5-1.4,6.9-1.2c0.7,0,1.4-0.1,2.1-0.1c1.3-0.1,2.6-0.3,3.9-0.1c6.9,0.9,13.9,0.6,20.8,0.8c1.2,0,2.3-0.3,3.4-0.8
		c1.7-0.7,3.5-1.4,5.3-1.9c6.2-1.9,12.4-3.7,18.6-5.6c1.5-0.4,2.9-1,4.3-1.7c3.4-1.6,6.8-3.3,10.1-5.1c4.8-2.6,9.9-4.5,14.9-6.4
		c2.6-1,5.4-1.4,8.2-2.1c0.5-0.1,1.1-0.3,1.6-0.4c-0.4-1-1.1-0.7-1.5-0.7c-5.3,0-10.6,0-15.9-0.1c-2.8,0-5.6-0.2-8.4-0.8
		c-8.8-1.7-17.6-3.3-26.4-4.7c-4.5-0.7-9.1-0.8-13.7,0.3c-0.6,0.1-1.2,0.1-1.8,0.2c-4,0.3-8,0.7-12,1c-1.4,0.1-2.8,0-4.2-0.1
		c-1.3-0.1-2.6-0.3-3.8-0.2c-5.3,0.2-10.6,0.5-15.9,0.7c-1.6,0-3,0.3-4.4,1.2c-2.2,1.4-4.4,2.7-6.6,4.1c-1,0.7-1.8,1.8-3.4,1.5
		c-0.5-0.1-1.2,0.6-1.8,1c-6.1,4.5-12.2,8.9-17.8,13.9c-3.7,3.3-7.6,6.3-11.8,9c-8,5.4-16.1,10.6-24.9,14.8
		c-10.6,5-21.7,8.5-33.3,10c-0.7,0.1-1.4,0.1-2.1,0.2c-0.5,0-0.9,0-1.3,0c-0.8-0.7,0.3-1,0.1-1.6c-0.2-0.1-0.3-0.2-0.5-0.2
		c-3.8,0-7.5,0.2-11.2,1.3c-1.9,0.6-4,0.6-6,0.5c-0.5,0-1-0.1-1.4-0.2c-5.2-2.3-10.9-2.9-16.4-3.9c-3.1-0.6-6.3-0.6-9.5-0.7
		c-8.5-0.2-16.8-2.1-24.9-4.8c-7.7-2.6-15.1-5.9-22.5-9.3c-6.7-3-13.5-5.5-20.3-8.1c-7.7-2.9-15.4-5.9-23.1-8.8
		c-2.5-0.9-5.2-1.6-7.8-2.2c-1.1-0.3-2.3-0.4-3.1,0.9c-0.2,0.3-0.8,0.4-1.2,0.6c-2.6,0.8-5.1,1.9-7.3,3.5c-1.9,1.4-3.8,1.6-5.9,0.4
		c-1.3-0.7-2.9-1-4.4-1.3c-2.1-0.5-4.2-0.8-6.2-1.2c-1-0.2-2-0.4-2.8-1.2c-0.6-0.6-1.7-0.8-2.6-0.9c-1.6-0.2-3.3-0.3-4.9-0.2
		c-6.2,0-12.5,0-18.7,0.1c-5,0.1-9.9,0-14.6-1.7c-0.4-0.2-1-0.3-1.3-0.2c-1.8,0.8-3.3-0.1-4.7-0.9c-1.5-0.9-2.9-2.1-4-3.4
		c-2.1-2.4-2.7-5.3-1.4-8.2c0.8-1.8,1.4-3.7,1.9-5.7c0.7-2.7,2.4-4.8,4.3-6.8c2.3-2.2,4.5-4.5,6.8-6.8c-2.2-1.7-4.2-3.3-6.3-4.8
		c-1.8-1.3-2.6-3-2.6-5.1c0-4.8,1.2-9.3,3.5-13.5c0.7-1.2,1.5-2.3,1.3-3.9c-0.1-0.5,0.5-1.3,1-1.7c1.2-1,2.4-1.9,3.7-2.7
		c6.5-3.8,13.3-7.1,20.5-9.3c5.9-1.8,11.8-1.8,17.9-1.4c5.4,0.3,10.7,1.2,15.9,2.9c3.1,1,6.4,1.5,9.7,1.5c3.6,0,7.3,0,10.9-0.4
		c5.9-0.7,11.8-0.1,17.3,2.2c1.1,0.5,2.1,1,2.8,2c1.1,1.4,2.4,2.6,3.4,4c1.8,2.5,2.4,4,3.1,7.2c0.9,0.1,1.8,0.1,2.7,0.2
		c5.9,0.1,11.8,0.1,17.7,0.1c1.1,0,2.1,0.1,3.2-0.1c9.4-2,18.5-0.6,27.6,1.9c6.9,1.9,13.7,4.2,20.4,6.9c3.2,1.3,6.5,2.2,9.7,3.2
		c2.1,0.7,4.1,0.8,6.3,0.4c1-0.2,2.1-0.2,3.1-0.5c1.1-0.3,2.1-0.3,2.9,0.3c5.8-4,10.9-8.6,14.9-14.2c2.2-3,4.3-6.2,6.3-9.4
		c6.9-11.1,13.6-22.3,20.9-33.2c4.5-6.7,9.6-12.8,15.6-18.2c7.4-6.7,16-11.1,25.9-12.7c10.3-1.6,20.6-1.5,30.8,1.1
		c5.6,1.4,10.8,4,15.8,6.9c2.3,1.4,4.6,2.8,7,4.2c0.9-0.1,2.1-0.9,2.7,0.4c1.4,2.7,4,3.5,6.5,4.6c5.8,2.4,11.5,4.8,17.3,7.1
		c0.7,0.3,1.5,0.4,1.9,0.9c1.3,1.4,3,1.7,4.7,2.1c2.6,0.6,5.3,1.2,7.9,1.8c3.4,0.7,6.8,0.6,10.1-0.4c1-0.3,1.9-0.7,2.7-1.5
		c3.2-2.9,6.5-5.8,9.8-8.6c3.7-3.1,7.4-6.2,11.2-9.2c2.7-2.2,5.6-4.3,8.4-6.5c0.8-0.7,1.5-1.4,2.3-2.2c1.2-1.2,2.3-2.4,3.5-3.5
		c0.4-0.3,1.1-0.3,1.6-0.4c-0.3,1.8-1.8,2.7-2.8,4c-0.5,0.6-1.4,1-1,2.2c1.7,0.1,3.5,0.3,5.2,0.3c1.7-0.1,3.4,0.7,5.4,0.3
		c0.7-5.5,0.6-11,0.1-16.8c1.9,1,2.7,2.3,3.1,4c0.6,2.4,0.5,4.9,0.2,7.4c-0.2,1.6-0.4,3.2-0.6,5.1c0.7,0,1.3,0.1,1.8,0
		c1.8-0.2,3.5-0.4,5.2-0.7c7.6-1.2,15.1-2.4,22.7-3.6c1.2-0.2,2.5-0.4,3.7-1.2c-1.1-3.7-2.2-7.3-3.3-10.9c-1-3.4-2.5-6.6-4.5-9.6
		c-1.3-2-2.6-3.9-4.1-5.8c-0.6-0.8-1.6-1.6-2.5-1.8c-2.8-0.7-4.8-2.5-6.7-4.4c-3.3-3.3-6.9-6.4-10.8-8.9c-0.1-1-0.1-1.9-0.8-2.7
		c-3.4-3.9-6.6-8-10-11.9c-1.9-2.2-4.2-4.2-5.9-6.5c-1.1-1.5-2.4-2.4-4.1-2.9c-3.3-1-6.2-2.8-8.8-5.2c-0.4-0.3-1-0.8-0.3-1.5
		c1.3,0.3,2.3,1.1,3.4,1.7c1.7,1,3.5,2,5.3,2.9c1.3,0.7,2.6,1,4.1,0.9c2.3-0.2,4.7-0.1,7.1-0.1c0.9,0,1.9,0.1,2.8,0.3
		c2.1,0.5,4.1,1,6.1,1.7c4.2,1.4,8.4,2.9,12.7,4.4c0.8,0.3,1.7,0.8,2.3,0.6c1.8-0.7,3.2,0.2,4.7,0.8c5.5,2.4,10.8,5.3,15.7,8.7
		c2,1.4,4.1,2.7,6.2,4.1c0.4,0.3,1,0.6,1,0.9c-0.1,1.6,1.3,2.2,2.1,3.1c2.2,2.3,4.3,4.7,5.6,7.7c0.8,1.8,2,3.4,3.2,5.1
		c0.5,0.8,1.2,1.4,2,2c2.6,1.9,5.2,3.7,7.8,5.5c0.3,0.2,0.6,0.2,0.9,0.4c1.2-2.1,1.3-2.4,0.2-3.7c-1.2-1.3-2.4-2.6-3.8-3.7
		c-0.9-0.8-1.6-1.7-2-2.9c-0.3-0.8-0.1-1.6,0.5-2.3c0.5-0.6,1.2-0.6,2-0.4c1,0.3,2,0.8,3,1c2.3,0.6,4.5,1.2,7,1.8
		c0.5-0.5,1.2-1.3,2-2c0.1-0.1,0-0.2,0-0.3c-0.5-0.6-1.1-1.2-1.6-1.8c1.1-1.7,1.1-1.7,2.4-1.3c0.5,0.2,1,0.4,1.7,0.7
		c0.3-0.7,0.6-1.2,0.7-1.6c-0.6-1.2-2.3-1.4-2-2.9c1.5-1,3.5,0.2,5-0.8c-0.1-1.1-0.2-2.2-0.3-3.2c0-0.2,0.3-0.3,0.5-0.6
		c0.9,0.3,1.8,0.7,2.8,1.1c1-1.1,2.4-1.7,2.6-3.1c-4.3-3.3-8.4-6.5-12.5-9.7c-1.3-1-2.7-1.8-4.3-2.4c-3.7-1.3-7.5-2.2-11.3-2.9
		c-2.9-0.6-5.7-1.4-8.4-2.8c-2.5-1.2-5.1-2.4-7.6-3.6c-0.3-0.1-0.5-0.2-0.2-0.1c-0.3,0,0,0,0.3,0c-0.3,0.5-0.6,1-0.8,1.4
		c-1.4,0.3-2.4-0.5-3.4-1c-3.2-1.7-6.3-3.7-9.6-5.3c-7-3.4-13.6-7.6-20-12c-3.1-2.1-6.3-4-9.8-5.5c-5.4-2.3-10.9-4.6-16.6-5.9
		c-5.3-1.2-10.6-2.4-15.9-3.3c-5.3-0.9-10.5-2.7-16-2.2c-0.9,0.1-1.8-0.3-2.7-0.4c-1.7,2.7-2.1,5.6-2.3,8.5c-0.1,1.6,0,3.3-0.3,4.9
		c-0.4,2.2,0,4.2,0.7,6.2c2.5,6.9,5,13.7,7.5,20.6c0.7,1.9,1,4.2,3.2,5.2c0.9,1.5,1.9,3,2.7,4.5c2.9,5.4,5.8,10.8,8.7,16.2
		c3.7,6.8,8.2,12.9,14,18.1c3.9,3.5,7.2,7.5,9.6,12.1c0.4,0.8,0.9,1.7,1.2,2.6C575,414.7,574.6,415.9,573.1,416.7z M709.6,406.7
		c-0.2,0.1-0.3,0.2-0.5,0.3c0.1-0.1,0.3-0.3,0.4-0.4c0.2,0,0.4,0.1,0.6,0.1c0.1,0,0.3-0.2,0.4-0.3c-0.2,0-0.4-0.2-0.5-0.1
		C709.9,406.3,709.8,406.5,709.6,406.7z M699.7,373.4c1.2-0.5,1.2-0.5,1.1-1.8c-0.3,0.2-0.6,0.3-0.8,0.6
		C699.9,372.6,699.9,373,699.7,373.4l-0.1,0.2L699.7,373.4z M713.2,381.2c-2,0.8-4,1.5-6,2.3c-0.2,0.1-0.2,0.4-0.3,0.5
		c-0.6-0.1-1.2-0.1-2.5-0.3c1.7-0.8,2.7-1.3,3.7-1.8c1.1-0.5,2.2-0.8,3.2-1.4c0.9-0.5,1.7-1.2,2.5-1.9c0.1-0.1,0-0.6-0.1-0.9
		c-0.1-0.1-0.4-0.2-0.6-0.2c-0.4,0.2-0.9,0.4-1.2,0.7c-2.2,2.2-5.2,3.2-8,4.3c-1.7,0.7-3.4,0.8-5.3,0.1c-0.4-0.6-0.8-1.3-1.2-1.9
		c3.5-4.8,4.3-5.7,7-7.2c-0.5,0.9-0.8,1.5-1.5,2.7c1.7-1.1,2.9-1.7,4-2.6c0.5-0.4,0.7-1.1,1.2-1.7c-0.9-0.9-1.6-1.6-2.4-2.3
		c-0.1-0.1-0.4-0.1-0.9-0.1c-1.4,3.3-4.4,5.5-6.7,8.3c-0.6,0.7-1,1.5-1.6,2.3c-0.2,0.4-0.5,0.7-1.2,1.5c-0.1-3-3-3.1-4-5.2
		c-0.1-3.4,0.9-6.8,1.7-10.2c1.8-0.1,1.9-1.6,2.4-2.7c0.1-0.2,0-0.4-0.1-0.7c-0.5-0.7-1-0.9-2-0.5c-1,1.9-2.1,3.8-2.2,6.1
		c0,0.4-0.1,1-0.4,1.3c-1.2,1.1-1.2,2.5-1.1,3.9c0,0.4,0,1-0.8,0.8c-0.2-1.2-0.2-2.5-0.5-3.7c-0.3-1-0.3-1.9,0.1-2.7
		c0.7-1.5,1.5-2.9,2.3-4.3c0.3-0.6,0.8-1.2,0.2-2c-0.3,0-0.6-0.2-0.9-0.1c-0.6,0.1-1.1,0.2-1.7,0.4c-0.9,2.5-1.7,5-3.1,7.4
		c-0.7-0.3-1.3,0.5-2,0c-0.1-2-0.2-3.9-0.3-5.9c0.1-0.1,0.3-0.2,0.4-0.4c0-0.1-0.2-0.3-0.2-0.4c0,0.1-0.1,0.2-0.1,0.3
		c0,0.2,0,0.4,0,0.6c-0.2,0.2-0.6,0.4-0.7,0.7c-0.5,1.3-0.7,2.7-0.5,4.2c0.1,0.5-0.1,0.9-1,0.9c-0.2-1-0.4-2-0.5-3
		c-0.1-1-0.2-2-0.3-3.1c-1.5,0.2-1.4,1.7-2.3,2.3c-0.9,0.2-2.1-0.2-2.9,1.1c-0.1,0.8-0.2,1.8-0.2,3c-0.6-0.4-1.1-0.7-1.9-1.2
		c-0.5,1.5-0.8,2.7-1.2,3.9c-0.1,0.2-0.5,0.3-1,0.6c0-1,0-1.8,0-2.6c-0.4,0.2-0.7,0.3-0.7,0.5c-0.3,0.7-0.7,1.5-0.9,2.3
		c-0.4,1.6-0.9,3.1-2,4.4c-0.1,0.1,0.1,0.4,0.2,0.6c0.5-0.1,1-0.2,1.6-0.3c0,1.1-0.8,1.7-1.1,2.6c-0.5,1.2-1.4,1.8-2.7,1.7
		c-1.7-0.2-2.9,0.6-3.8,1.9c-1.3,1.9-3.4,3.3-4,5.7c-0.1,0.3-0.5,0.4-0.8,0.7c-2.1,2.7-4.2,5.3-4.9,8.8c-0.6,3.1-1.6,6.1-3,9
		c-2,3.9-2.7,8-3.1,12.2c-0.2,1.9,0,3.8,0.8,5.5c1,2.3,1.9,4.6,3,6.8c1.3,2.7,3.3,5,6,6.3c3.8,1.9,7.8,3.2,12.2,3.3
		c2.5,0,4.9-0.5,6.9-2.3c1.1-0.9,2-2,3.7-1.6c0.4,0.1,0.9-0.3,1.3-0.5c3.1-2.2,6.3-4.1,9.1-6.7c2.1-1.9,4.3-3.8,6.8-5
		c3.1-1.6,4.7-4.2,6.3-7c1-1.8,1.8-3.7,2.9-5.5c1.3-2,2.6-3.8,5.1-4.4c0.3-0.1,0.5-0.4,0.7-0.7c-1.3-1-2,1.2-3.2,0.5
		c-0.4-2.4-0.4-2.6,1.3-3.4c1.1-0.5,2.2-0.8,3.3-1.1c0.9-0.2,1.4-0.8,1.5-1.7c0.1-0.2,0.2-0.5,0.1-0.2c0-0.3,0,0,0,0.3
		c-1.1-0.5-2.1,1.2-3.3,0.3c0.4-1.4,1.4-2.1,2.5-2.8c1.2-0.7,2.4-1.5,3.6-2.2c1.1-0.8,1.5-2.1,1.9-3.3c0.1-0.2-0.2-0.5-0.3-1
		c-1.2,1.3-2.2,2.4-3.2,3.5c-0.6,0.6-1.1,1.3-2.1,1.1l0.1,0.1c0.9-1.3,1.2-2.7,0.9-4.1c0.6-0.7,1.1-1.4,1.6-2
		c0.1-0.1,0.1-0.4,0.1-0.7c-1.1-0.5-2.2,1.1-3.5-0.3c1.6-0.7,3.1-1.3,4.4-1.9c2.3,0.9,0,2.5,0.7,3.5c1.9-0.7,2.5-2.1,2.2-3.9
		c-0.2-1.2-0.3-2.3-0.7-3.4c-0.1-0.5-0.6-0.9-0.9-1.4c-2.5,0.9-4.8,1.7-7.1,2.6c-0.7,0.2-1.1,0.1-1.1-1c2.5-0.9,5-1.7,7.7-2.7
		c-0.1-0.7-0.1-1.3-0.2-2.1c-3.1,1.6-5.8,3.7-9.3,3.8c0.1-0.5,0.2-0.9,0.3-1.3C709.4,384.2,711.5,383.2,713.2,381.2
		c0-0.1,0.1-0.2,0.2-0.3C713.3,381.1,713.2,381.2,713.2,381.2z M699,428.5c3.3-0.3,5.3-2.2,6.5-5.4c-1.7-0.2-2.9,0.4-4.2,1
		c0.1,1,0.1,1.9,0.2,2.9c-0.7,0.2-1.3,0.3-1.7,0.6C699.5,427.8,699.3,428.3,699,428.5c-1.2,0.1-2.3,0.9-3.7,0.4
		c-0.5-0.2-1.3,0.3-1.9,0.7c-0.9,0.5-0.9,0.8-0.2,2.4c1.2-0.5,2.4-0.8,3.5-1.4C697.7,430.1,698.7,429.7,699,428.5z M709,376.4
		L709,376.4c-1.1,0.9-2.2,1.9-3.2,2.9c-0.4,0.4-0.7,0.8-1,1.2c-0.3,0.1-0.5,0.2-0.8,0.3c0.1,0,0.3,0.1,0.3,0.1
		c0.2-0.1,0.3-0.3,0.4-0.5c3.2-0.4,5.5-2.1,7.5-4.6c-0.7-1.1-1.3-2-2.6-2.4c-1.1,0.5-1.8,1.7-3.1,1.4c-0.2,0-0.4,0.2-0.6,0.3
		c-1.3,1.3-2.6,2.7-3.9,4c-0.2,0.2-0.3,0.5-0.6,1c1.7-0.4,2.7-1.4,3.9-2.1C706.5,377.5,707.5,376.5,709,376.4z M715.4,375L715.4,375
		c1,1.5,2,3.2,3.2,4.9c-0.9,2-0.1,3.9,0.9,5.6c0.8,1.3,1.4,2.7,1.5,4.3c0.4,4.1,0.8,8.2,1.2,12.3c0.2,2.2,0.2,4.4,0.3,6.7
		c0.6-3.9,1-7.7,1.1-11.6c0.1-4.5,0.1-8.9,0-13.4c0-2.1-0.4-4.2-0.7-6.3c-0.2-1.2-0.7-2.2-1.5-3.1c-1-1.1-2-2.3-3.3-3.1
		c-0.8-0.5-1.5-1.1-2-1.9c-2.6-3.5-6.2-4.3-10.5-3.6c0.9,1.4,1.9,2.3,3.2,3c1.6-0.3,3.2-1,4.8-0.3c0.4,0.2,0.9,0.2,0.7,1
		c-0.9,0-1.8-0.1-2.7,0c-0.5,0-1.2,0.1-1,1c1.2,0.1,2.3,0.2,3.5,0.3c0.1,0,0.2,0.1,0.4,0.1c-0.8,0.2-1.6,0.4-2.4,0.7
		C712.4,373.5,714.2,373.9,715.4,375z M610.7,486.5c0,0.1,0,0.2,0,0.3c0,0,0.1,0.1,0.2,0.1C610.8,486.7,610.7,486.7,610.7,486.5
		c0-0.2,0.1-0.6,0.3-1.1c0.9,0.6,1.8,1.2,2.6,1.8c1.6,1,3.1,2,4.7,3.1c3.2,2.1,6.8,2.5,10.5,1.7c1.5-0.3,3-0.7,4.4-1.3
		c3.4-1.5,6.7-3.3,10.2-4.8c3.1-1.3,5.4-3.6,7.8-5.9c1.9-1.9,4-3.6,6-5.5c0.7-0.6,1.6-1,1.7-2.1l-0.1,0.1c1.6-0.3,2.5-1.6,3.7-2.5
		c0.6-0.5,1.2-1.1,1.8-1.7c0.6-0.5,1.3-1,1.8-1.4c0.5-9.9,0.8-10,5.1-21.2c-1.5,0.5-1.8-0.6-2.3-1.6c-3.2,0.7-6.2,0-9.3-1
		c-0.7-0.2-1.4-0.4-2-0.5c-4.1-0.4-6.9-2.8-8.8-6.2c-1.7-3.2-3.3-6.5-4.9-9.6c-1.9,0.6-3.6,1.2-5.4,1.6c-0.9,0.2-1.9,0.4-2.8,0.4
		c-1.3,0.1-2.6,0.1-3.9-0.7c0.4-0.6,0.9-1.2,1.4-2c-0.9-0.2-1.6-0.5-2.3-0.5c-2.6-0.2-5.2-0.3-7.8-0.4c-0.8,0-1.6,0.1-2.5,0.2
		c-0.2,0-0.3,0.3-0.6,0.6c0.3,0.8,0.6,1.6,1,2.5c0.6,0,1.1,0,1.6,0c1.5,0.1,2.4,0.5,2.3,1.1c-0.2,1-1.1,1.1-1.9,1.2
		c-0.4,0.1-0.9,0.2-1.4,0.4c0.6,4.6,1.7,8.9,2.8,13.2c0.3,1.2,0.6,2.5,0.9,3.8c0.1,0.6-0.1,1.1-1,1.4c-0.3-0.6-0.7-1.1-0.9-1.8
		c-1.6-4.2-2.7-8.5-3.6-12.9c-0.6-3-1.3-5.9-1.9-9c-2-0.1-3.6,0.6-5.2,1.2c-7.4,2.7-13.9,6.8-19.8,12.1c-3.2,2.9-5.4,6.5-6.5,10.4
		c0.3,1.3,0.7,2.3,0.7,3.3c0,2.6,0.8,4.8,2,7.1c2.8,5.5,6.4,10.5,10.3,15.2c0.2,0.3,0.6,0.4,0.9,0.6c0.3-0.2,0.7-0.3,0.9-0.6
		c5-4.6,8.6-10,9.5-16.9c0.1-0.8,0.3-1.6,0.6-2.4c0.1-0.4,0.3-0.9,1.1-0.9c0.2,0.4,0.7,0.8,0.7,1.3c0.1,0.9,0.1,1.9-0.1,2.8
		c-0.6,2.5-1.2,5-1.9,7.6c2.1,1,5.1,0.2,7,2.7c-3,0.8-5.8-0.4-8.6-0.2c-2.3,3.3-4.8,6.2-8,8.6c2.5,3.1,5.1,5.8,7.9,8.3
		C609.8,486.3,610.3,486.3,610.7,486.5z M570.4,425L570.4,425c-0.9-0.7-2.1-0.8-3.3-0.5c-1.4,1.2-2.7,2.7-4.3,3.6
		c-2.1,1.2-3.7,2.9-5.4,4.4c-1.9,1.7-3.9,3.4-5.9,5.1c-2.3,1.9-4.6,3.6-7,5.4c-1,0.7-1.8,1.5-2.2,2.6c-0.6,1.5-1.7,2.5-2.9,3.5
		c-0.5,0.4-1,0.9-1.6,1.4c0.6,0.7,1,1.3,1.4,1.8c1.6,1.9,3.4,3.6,4.9,5.6c2.7,3.6,5.7,6.9,8.7,10.2c8.3,8.9,13.8,19.3,16.4,31.2
		c0.2,0.9,0.2,2,0.8,2.7c1.5,1.8,1.2,3.7,1.1,5.7c-0.4,8-2,15.9-4.4,23.6c-0.4,1.2-0.9,2.4-0.9,3.8c5.4,0.2,10.5,0.4,15.7-0.1
		c2.7-0.3,5.3,0.1,8,0.6c1.5-0.9,3-1.8,4.8-2.8c-2.8-1.7-5.4-3.2-7.3-5.7c-1.9-2.5-3.6-5.2-3.7-8.9c0.7,0.7,1.2,1,1.6,1.4
		c0.9,1.2,1.7,2.5,2.6,3.8c1.8,2.8,4.2,5.1,7,6.9c1.3,0.9,2.8,1.4,4.4,0.8c3.8-1.5,7.8-2.7,11.1-5.3c6.1-4.5,12.5-8.4,19.6-11.1
		c0.4-0.2,0.9-0.4,1.2-0.7c1.2-1.6,2.4-3.2,3.6-4.8c1.1-1.4,2-2.9,3.2-4.2c2.7-2.8,5.4-5.6,8.2-8.2c7.2-6.5,14.7-12.5,23.5-16.8
		c0.6-0.3,1.1-0.7,1.9-1.2c-0.5-0.9-0.8-1.6-1.2-2.3c-0.5-1.1-1.1-2.1-1.5-3.2c-0.7-1.9-0.7-1.9-2.6-4c-6,5.8-12.4,11.2-17.9,17.6
		c-0.6,0.7-1.2,1.5-2.3,1.6c-0.6-0.3-1.2-0.6-1.8-0.8c-1,0.6-1.9,1.2-2.8,1.8c-3.2,1.8-6.3,3.7-9.6,5.2c-4.7,2.1-9.6,2.3-14.2-0.6
		c-0.7-0.4-1.5-0.8-2.2-1c-2.1-0.6-3.8-1.8-5.4-3.3c-8.1-7.4-15.1-15.8-20.8-25.3c-1.7-2.8-3.2-5.8-3.6-9.2c0-0.3-0.1-0.7-0.3-1
		c-0.9-1.5-0.8-3.2-0.7-4.8c0.2-3.8,1.9-7,4.4-9.8c3.6-4.1,8-7.3,12.7-10c7-3.9,14.4-6.5,22.6-5.8c0.3,0,1,0.2,1-0.6
		c-0.7-0.4-1.3-0.9-2-1.3c-1.2-0.6-2-1.6-2.6-2.7c-0.1-0.1-0.4-0.1-0.8-0.2c-0.4,0.5-0.8,1-1,1.4c-1.3,0-2.4-0.1-3.3,0.1
		c-7.2,1.5-14.3,3.1-21.4,4.4c-4.5,0.8-9.1,1.2-13.7,1.8c-1.3,0.2-2.5,0.1-3.8-0.6C574.4,425.1,572.4,425,570.4,425z M243.7,517.6
		c0.4,0.2,0.8,0.4,1.3,0.6c0-0.1,0.1-0.2,0.1-0.3C244.6,517.8,244.1,517.8,243.7,517.6c-0.5-0.3-0.9-0.7-1.5-1.4
		c1.5,0.1,2.7,0.1,3.8,0.3c4.4,0.7,8.8,1.8,12.8,3.8c5.2,2.7,10.5,5.3,15.6,8.2c7.3,4.2,14.9,7.6,23,9.8c3.8,1,7.5,1.8,11.3,2.7
		c1.9,0.4,3.8,0.8,5.7,1.2c0.1-1.1-1.4-1.2-0.9-2.4c1.9,0.2,3.5,1.1,5.1,2.1c2.8,1.7,5.6,3.4,8.5,5.1c0.5,0.3,1,0.6,1.3,1.1
		c0.8,1.2,1.9,1.4,3.1,1.3c3.2-0.3,6.3,0.5,9.4,1.2c1.3,0.3,2.5,0.6,3.7,1.1c1.5,0.5,3,0.6,4.5,0.4c7.9-1,15.5-2.9,22.9-5.6
		c3.9-1.4,7.5-3.2,10.7-6c4.6-4,9.5-7.8,14.1-11.8c7.9-6.8,15.8-13.8,23.7-20.7c2.7-2.4,5.4-4.9,7.9-7.6c3.9-4.2,7.6-8.7,11.4-13
		c1-1.1,2.1-2.2,3.2-3.3c0.4-0.4,0.8-0.4,1.2,0.4c-0.8,1.1-1.5,2.3-2.4,3.3c-4.4,5.2-8.8,10.4-13.2,15.6c-0.4,0.5-0.8,1.1-1.2,1.7
		c1.2,0.7,2.2,1.3,3.2,1.9c2.9,1.6,5.4,3.8,7.7,6.2c5.3,5.5,8.5,12.1,9.9,19.6c0.4,1.9,0.3,4,0.4,6c0,0.7-0.9,1.4-1.5,1.1
		c-0.5-0.2-1.1-0.6-1.2-1.1c-0.2-0.6-0.2-1.4,0-2.1c0.6-1.8,0.2-3.5-0.3-5.2c-0.4-1.5-0.8-3-1.3-4.4c-3.1-8.7-8.3-15.5-16.6-19.7
		c-0.6-0.3-1.3-0.4-2.3-0.7c-0.5,0.6-0.9,1.3-1.5,1.9c-8.3,8.7-17.1,16.9-26.4,24.5c-4.5,3.6-9.3,6.8-14.4,9.6
		c-2.2,1.2-4.3,2.5-6.4,3.8c-1.9,1.2-3.5,2.8-5.9,2.8c-0.5,0-1.1,0.4-1.6,0.7c-4.5,1.8-9.1,3.4-13.8,4.2c-4,0.7-7.9,0.6-11.8-0.8
		c-3.6-1.3-7.4-2.4-11.4-1.9c-1.2,0.1-2.6-0.3-3.8-0.7c-1.3-0.5-2.4-1.4-3.6-2.2c-1.4-0.9-2.6-2-4.4-2.1c-2.6-0.1-5.1-0.9-7.6-1.6
		c-3-0.8-5.9-1.5-9-1.8c-5.9-0.6-11.7-1.6-17.2-3.8c-0.9-0.4-2.1-0.4-3.1-0.5c-3.4-0.3-6.8-0.5-10.2-0.8c-2.7-0.2-5.4-0.5-8.1-0.7
		c-6.1-0.4-12.2-0.7-18.3-1.3c-1.6-0.1-3.2-0.8-4.7-1.3c-1.2-0.4-2.4-0.9-3.7-1.3c-2.4-0.6-4.8-1.1-7.2-1.7
		c-1.6-0.4-3.2-0.7-4.6-1.8c-0.3-0.2-0.5-0.7-0.9-1.2c0.9-0.3,1.5-0.6,2.3-0.9c-5.5-0.8-9.5,1.6-13,5.6c0.4,0.9,1,1.9,0.5,2.9
		c-0.9,1.8-0.8,3.6-0.8,5.5c0,0.7,0.1,1.4,0,2.1c-0.1,0.7-0.4,1.3-0.6,1.9c0.6,1.3,1.7,1.6,2.8,1.9c2.5,0.6,5.1,1.1,7.6,1.7
		c7.8,1.8,15.4,4.4,22.5,8.1c2.6,1.4,5.3,2.5,8.1,3.4c3,1.1,6.1,1.9,9.1,2.7c6.4,1.7,12.4,4.4,18.5,6.9c7.4,3.1,14.7,6.3,22.5,8.3
		c5.7,1.4,11.3,3.3,17.3,3.1c0.5,0,0.9,0.1,1.4,0.1c6.7,0.8,13.2,2.1,19.6,4.2c1.3,0.4,2.7,0.8,4.1,1c0.9,0.2,1.9,0,2.5-0.9
		c0.4-0.7,1.1-0.9,1.8-0.9c1.5-0.1,3.1-0.3,4.6-0.3c3.8,0,7.5,0,11.3,0.2c1.9,0.1,3.7-0.3,5.5-1c2.3-1,4.6-1.8,6.9-2.7
		c4.3-1.6,8.6-3.2,12.8-5c8.2-3.3,15.9-7.6,23.7-11.8c6.7-3.7,13-8.1,18.9-13c2.6-2.2,5.3-4.4,8-6.4c5.6-4.3,11.6-8.1,18.3-10.6
		c1.2-0.4,2.3-1.2,3.3-1.7c0.1-0.8,0.2-1.4,0.3-2.1c2.6-0.3,5-0.6,7.4-0.9c0.5-4.5,0.7-8.8,1.4-13.1c1.4-8.2,2.8-16.5,4.6-24.6
		c2.2-9.9,4.8-19.7,7.3-29.5c0.1-0.3,0.2-0.7,0.4-1c0.8-1,0.7-2.2,0.7-3.4c0-3.7,0.1-7.3-0.1-11c-0.2-2.9-0.7-5.8-1-8.8
		c-0.2-1.4-0.9-2.3-2.2-3c-2.6-1.2-4.9-2.8-7.1-4.6c-0.6-0.5-1.3-1-2.1-1.4c-8.4-4.4-17.2-7.6-26.8-8.2c-9.4-0.6-18.6,0.2-27.7,2.1
		c-0.6,0.1-1.4,0.1-1.6,1c0.2,0.2,0.3,0.4,0.5,0.5c2.9,1.3,5.8,2.6,8.8,3.8c2.2,0.9,4.1,2.3,5.8,3.9c5,4.8,9.1,10.2,12.4,16.2
		c3.8,7,4.8,14.5,3.1,22.2c-0.8,3.9-2.5,7.3-5.2,10.3c-0.4,0.4-0.8,0.5-1.1-0.1c0-0.1,0-0.2,0.1-0.3c0.4-0.8,0.9-1.7,1.3-2.5
		c4.6-8.6,4.9-17.3,1-26.2c-3-6.7-7.4-12.3-12.5-17.5c-0.4-0.4-0.9-1-1.4-1c-1.6,0-2.1-1.2-3-2.1c-1-1-2.1-2-3.3-2.6
		c-3-1.6-6.1-3-9.5-3.8c-4.8,2.4-9.2,5.4-12.9,9.2c-4.9,4.9-9.3,10.4-13,16.2c-8.6,13.4-17.7,26.4-25.6,40.3
		c-2.9,5-6.7,9.4-11.2,13.1c-3.1,2.5-6.4,4.3-10.3,5.2c-1.5,0.3-3,0.5-4.5,0.2c-1.8-0.4-3.7-0.7-5.6-0.3c-1,0.2-1.8-0.2-2.7-0.5
		c-2.4-1-4.8-2-7.2-2.9c-9.7-3.5-19.7-5.7-29.7-7.7c-3.3-0.7-6.8-1.3-10.1-1.2c-3,0.1-5.9-0.1-8.8-0.1c-10-0.2-20-0.1-30,0.9
		c-4.5,0.5-9.2,0.3-13.8,0.3c-1.2,0-2.6,0-3.6-1.1c2.1-1.3,4.4-0.6,6.9-1.3c-0.6-0.4-1-0.8-1.4-0.9c-1-0.2-2.1-0.4-3.1-0.5
		c-4.4-0.6-7.8,0.9-10.5,4.4c-0.9,1.2-1.9,2.4-3,3.5c-2.2,2.3-3.3,5.2-3.6,8.3c-0.3,2.8,1.3,4.4,4.2,4.4c0.8,0,1.6-0.1,2.5-0.2
		c2.5-0.3,4.3,0.7,5.7,2.7c0.3,0.4,0.4,0.8,0.6,1.2c0.9,0.2,1.7,0.3,2.2-0.7c-0.4-0.5-0.8-1.1-1.2-1.6c1.1-0.9,1.2-0.9,1.8-0.8
		c2,0.3,3.9,0.7,5.9,0.9C237.1,517,240.3,518,243.7,517.6z M475.8,530.2c0.9,0.1,1.6,0.2,2.3,0.2c4.2,0,8.5-0.1,12.7,0
		c8.3,0.3,16.5-0.5,24.7-1.2c3.6-0.3,7.3-0.5,10.9,0.2c8.2,1.6,16.4,3.1,24.6,4.7c3.8,0.8,7.7,1.1,11.6,1c0.7,0,1.3-0.2,1.8-0.3
		c0.4-2.2,0.6-4.2,1-6.1c0.6-3.1,1.3-6.2,1.9-9.3c1.5-8.2,1.3-16.3-1.5-24.4c-2.7-7.8-6.5-14.9-11.7-21.2c-0.4-0.5-0.9-1.3-1.5-1.5
		c-1.5-0.5-2.1-1.8-3-2.9c-1.1-1.5-2.3-3-3.5-4.5c-2.3-2.8-4.7-5.6-6.5-8.8c-1.1-1.9-2.6-3.6-4.1-5.3c-0.9,0.5-1.6,1-2.3,1.2
		c-2,0.6-3.9,1.7-5.9-0.2c-0.5-0.5-1.5-0.5-2.3-0.6c-6.3-1-12.4-2.6-18.5-4.6c-2.7-0.9-5.5-2-7.9-3.7c0.2-0.4,0.4-0.7,0.7-1.2
		c-3.2-1.2-6.4-2.4-9.6-3.5c-0.2-0.1-0.6,0.2-0.7,0.3c0.5,2.3,1.2,4.5,1.3,6.7c0.2,6.8,0.5,13.7-1.7,20.3c-0.2,0.6-0.2,1.3-0.2,2.2
		c3,0.1,5.8,0.1,8.6,0.2c2.8,0.2,5.6,0.5,8.4,2.6c-6.2-0.5-11.9-1.4-17.7-1c-0.4,1.3-0.8,2.5-1.1,3.8c-2.1,8.1-4.2,16.2-6.3,24.3
		c-0.1,0.6-0.3,1.1-0.4,1.7c-0.8,5.6-1.7,11.2-2.5,16.7c-0.2,1.3-0.4,2.5,0.1,3.9c3.4,1.3,6.8,2.5,10.2,3.8c0.2,0.1,0.4,0.3,0.5,0.4
		c0.1,0.1,0,0.2-0.1,0.5c-3.9,0.3-7.1-1.9-10.7-2.9C475.9,524.7,476.5,527.5,475.8,530.2z M212.1,531.8c1.1-0.8,2-1.5,2.9-2.2
		c2.2-1.8,4.8-3,7.7-3.2c1.6-0.1,3.3,0.3,4.9-0.4c0.5-0.2,1.4,0.1,2,0.4c1.7,0.7,3.4,1.6,5.1,2.4c2.2,1.1,4.5,1.9,7.2,2
		c-0.5-1.7-1.4-2.9-2.4-4.1c-1-1.2-2.1-2.3-3.1-3.4c-1-1.1-2.7-1.3-3.7-3.1c0.9,0,1.5-0.2,1.9,0c2,0.8,3.6,2.2,5,3.8
		c1.3,1.5,2.5,3.2,3.5,4.9c1.3,2.1,3,3.5,5.6,3.8c4.5,0.6,9.1,1.5,13.6,2.2c2.6,0.4,5.2,0.5,7.7,0.8c2.8,0.3,5.6,0.8,8.4,1.1
		c0.5,0.1,1.1,0,2.1-0.1c-0.7-0.6-1-0.9-1.4-1.1c-3.1-1.9-6.3-3.7-8.7-6.6c-0.4-0.4-0.9-0.7-1.5-1c-3.7-1.9-7.3-3.8-11-5.6
		c-0.9-0.5-2-0.8-3-1c-2.5-0.4-5.1-0.8-7.7-1.1c-4.8-0.6-9.6-1.3-14.3-1.9c-1.2-0.2-2.5-0.4-3.7,0.2c0.1,0.7,0.3,1.3,0.2,1.8
		c-0.1,0.8-0.9,1-1.6,1.2c-0.7,0.2-1.4,0.3-2.1,0.4c-5.6,0.3-11.3,0.6-16.8-1c-0.6-0.2-1.1-0.3-1.7-0.3c-5.6-0.5-11.3-1.1-16.9-1.5
		c-0.7-0.1-1.6-0.1-2,0.2c-1.2,0.9-2.2,0.5-3.3,0c-2.2-1-4.3-2-6.5-2.8c-3.5-1.4-7.1-2.4-10.9-2.6c-3.9-0.2-7.7,0.1-11.1,2.4
		c-0.2,0.1-0.3,0.3-0.5,0.5c-0.1,0.7-0.2,1.3-0.3,2.1c-1.4,0.1-2.7,0.2-4.1,0.3c-1.2,1.4-2.4,2.8-3.7,4.2c-0.8,0.9-1.5,1.8-2.5,2.5
		c-2,1.4-3.3,3.4-4,5.7c-0.7,2.4-1.3,4.7-2.3,7c-1,2.4,0,5,2.2,6c3.9,1.7,7.7,3.6,11.9,4.3c5.4,0.9,10.8,0.9,16.2,0.4
		c5.1-0.5,10.1-0.4,15.2,0.1c3.3,0.3,6.5,1,9.6,2.2c0.8,0.3,1.6,0.7,2.4,0.7c2.9-0.1,5.5,1,7.8,1.9c3.7-1.2,7-2.3,10.6-3.5
		c-0.5-0.3-0.9-0.5-1.2-0.7c-3-1.8-4.3-4.8-2.9-8.5c0.4-1,0.5-2.1,1-3c0.5-1,1.3-1.9,1.9-2.8c-0.3-0.7-0.8-0.4-1.2-0.4
		c-0.4-0.1-0.8-0.3-1.3-0.5C211.7,533.5,211.9,532.5,212.1,531.8z M250.2,494.9c-2-4.3-4.2-7.9-7.6-10.7c-1.2-1-2.5-1.7-4-2.1
		c-6.1-1.5-12.1-1.9-18.1,0.3c-0.7,0.2-1.3,0.4-2.2,0.7c-1-1.5-2.6-1.3-4.1-1.2c-0.8,0-1.6,0.2-2.4,0.3c-0.7,0.1-1.4,0.2-2.1,0
		c-2.2-0.5-4.4-1-6.4-1.9c-3.2-1.4-6.5-2-9.9-2.4c-4-0.4-8-0.6-12-0.9c-3.2-0.2-6.3,0.3-9.4,1.3c-8.1,2.7-15.4,7.1-22.3,12
		c-1.2,0.8-2.1,1.9-2.7,3.2c-1.7,3.5-3,7.2-3.1,11.1c-0.2,5.6-0.9,5.4,4.9,9.4c2.1,1.4,4.1,1.8,6.5,0.4c3.9-2.1,8.2-2.9,12.6-2.4
		c4.7,0.5,9.2,1.7,13.6,3.7c1.5,0.7,3,1.3,4.5,2c0.2,0.1,0.4,0.1,0.7,0.1c0.4-0.3,0.7-0.6,1-0.9c1.8,0.2,3.5,0.4,5.3,0.5
		c3.5,0.3,7.1,0.4,10.6,0.9c5.7,0.8,11.5,0.7,17.3,0.8c0.4,0,1,0,1-0.7c-0.8-1-2-1.1-3.2-1.1c-1.2,0-2.4,0.1-3.5,0.1
		c-1.9-0.1-3.4-0.9-4.5-2.4c-1.4-1.8-0.3-4.2-1.7-6c0.2-0.9,0.3-1.9,0.6-2.7c0.7-2.3,2.4-4,4.2-5.5c0.8-0.7,1.6-1.3,2.1-1.8
		c0.4-1.4-1.2-2.2,0-3.4c0.7,0.4,1.3,0.8,2.1,1.2c0.4-0.4,0.7-0.8,1-1.1c1.9-2.3,4.4-3.4,7.4-3.3c1.1,0,2.1,0,3.2,0.1
		c2.4,0.1,4.6,0.8,6.6,2.1c0.6,0.4,1.2,0.8,1.8,1.2C241.9,495.6,245.9,496,250.2,494.9z M570.3,353.3c0.8,0.9,1.4,1.5,1.9,2
		c5.2,5.3,10.1,10.9,13.9,17.3c1.2,2,2.6,3.5,4.7,4.5c4.3,2.1,8,4.9,11.3,8.3c0.8,0.8,1.7,1.6,2.7,2.3c3.2,2.2,5.5,5.1,6.9,8.7
		c0.2,0.7,0.6,1.3,1,1.9c3.3,4.7,5.2,10,6.5,15.5c0.2,0.7,0.4,1.4,0.8,1.9c1.2,1.4,2.3,3,3.8,4.1c1.5,1.1,3.4,1.6,5.1,2.3
		c1.2,0.5,2.4,1,3.7,1.2c1.5,0.3,2.6,0.9,3.1,2.6c1.3-0.3,2.5-0.5,3.6-0.9c2-0.8,3.4-2.1,3.4-4.4c0-1.3,0.2-2.6,0.5-3.8
		c0.8-2.9,1.8-5.9,2.7-8.8c0.1-0.3,0.3-0.7,0.3-1c-0.1-2.8,0.8-5.5,0-8.7c-1.7-1.6-3.7-3.4-5.8-5.1c-0.4-0.4-1.1-0.5-1.6-0.6
		c-1.9-0.3-3.2-1.4-4.4-2.7c-1.9-2.1-3.4-4.6-4.3-7.3c-1.5-4.6-5.1-7.6-8.4-10.7c-2-1.8-4.4-3.2-6.7-4.6c-3.2-2-6.2-4.3-10.1-4.7
		c-0.5-0.1-0.9-0.3-1.3-0.5c-2.9-1.1-5.7-2.2-8.6-3.3c-4.7-1.6-9.3-3.2-14.1-4.7C577.7,353,574.2,352.8,570.3,353.3z M691,431.6
		c-2.4,1.4-4.5,2.9-6.5,4.8c-1,1-2.1,1.9-3.3,2.6c-2.1,1.2-3.7,2.8-5,4.8c-1.7,2.7-3,5.6-4.1,8.6c-0.7,2-1.4,4-2.6,5.7
		c-0.5,0.6-0.8,1.5-0.9,2.2c-0.2,2.2-0.3,4.5-0.3,6.7c0,0.8,0.1,1.8,0.5,2.4c0.8,1.1,1,2.3,1.6,3.5c1.4,3,3.1,5.8,4.7,8.6
		c4,4.2,6.3,9.3,8.4,14.5c0.4,1.1,0.8,2.2,1.3,3.3c0.9,1.7,1.4,3.5,1.7,5.3c0.1,0.9,0.4,1.8,0.5,2.8c0.3-0.2,0.6-0.2,0.7-0.4
		c2.9-3.6,4.9-7.7,6.8-11.9c0.5-1,0.3-1.2-0.4-3.2c-0.9,0.6-1.7,1.3-2.5,1.9c-0.7,0.5-1.3,0.3-1.6-0.6c0.7-0.6,1.5-1.1,2.2-1.7
		c1.6-1.6,2.7-3.4,2.6-5.9c-0.3-4.7-0.1-9.4-0.4-14.1c-0.5-9.5-0.4-19,0.4-28.5c0.2-1.7,0.5-3.6,1.3-5.1c0.9-1.6,0.9-3.1,0.6-4.8
		c-1.6,0.1-3.1,0.3-4.7,0.4C691.7,432.9,691.4,432.4,691,431.6z M702.7,445c0.6,0.5,0.9,0.6,0.9,0.7c0.7,10.1,1,20.2-0.1,30.3
		c0.5-1,0.9-1.9,1.1-2.9c1.2-5.2,2.4-10.3,3.5-15.5c0.5-2.5,0.8-5.1,0.4-7.7c-0.2-1.3-0.2-2.6-0.2-3.9c-0.1-6.2-0.1-12.5-0.2-18.7
		c0-0.6,0.3-1.4-0.6-1.9c-0.4,0.4-0.8,0.8-1.1,1.3c-1.3,2.2-3.2,3.4-5.7,3.8c-1.2,0.2-2.2,0.8-2.9,2c0,1.2,0,2.5,0,4.2
		c0.6-1.7,1-2.9,1.5-4.3c0.2,0.4,0.5,0.5,0.4,0.7c-1.1,7.7-0.6,15.5-1.2,23.2c0,0.1-0.2,0.1-0.4,0.2c-0.4-0.4-0.4-1-0.4-1.5
		c0-3.7,0-7.3-0.1-11c0-0.9,0-1.9,0-2.8c0-0.5-0.4-0.8-1.1-0.8c-0.1,0.5-0.3,1.1-0.3,1.6c-0.5,5.4-0.8,10.8-0.5,16.2
		c0.4,8.1,0.8,16.2,1.2,24.3c0,0.2,0.2,0.3,0.4,0.6c1.5-2.9,2.4-6,3-9.1c0.9-4.6,1.3-9.3,1.4-14c0.2-4.4,0.3-8.7,0.5-13.1
		C702.4,446.4,702.6,445.9,702.7,445z M650.7,393.8c0.9-1.1,1.8-2.1,2.7-3.2c0-0.7,0-1.4,0-2.1c-2.5-1.8-7-3.5-9.8-3.6
		c0.3,1.3,1.1,2.3,1.9,3.2C647.2,390,649,391.9,650.7,393.8z M693.6,376.6c0.3-0.2,0.6-0.2,0.7-0.3c1.2-1.9,3-3.5,3.4-6
		c0.3-1.5,1.4-2.9,2.2-4.5c-0.7-0.4-1.1-0.6-1.6-0.9C694.4,368,692.7,371.8,693.6,376.6z M704.7,419c1.3,0.2,2.3,0,3.1-0.5
		c0.4-2.1,0.3-2.1-0.2-3.6C706.1,415.8,705.4,417.2,704.7,419z M684.5,366.9c1.4-1.4,1.5-3.2,2.5-4.4c0.1-0.1-0.1-0.5-0.2-0.6
		c-0.1-0.1-0.5-0.3-0.6-0.2c-0.5,0.3-1,0.6-1.3,1C684.1,363.9,684.2,365.2,684.5,366.9z M701.7,366.7c-0.9,1.1-1.6,2-2.5,3.1
		c1.9,0.2,2.9-0.7,4.2-1.6C702.8,367.6,702.4,367.3,701.7,366.7z M664.6,381.3c0.8-1.6,0.5-2.7,0.2-4.3c-0.7,0.9-1.4,1.3-1.4,2.2
		C663.7,379.8,664,380.4,664.6,381.3z M649.2,399.1c-0.6,1.6-2.1,2.9-1.6,5.1C649.1,402.6,649.3,400.9,649.2,399.1z M706,420.6
		c-0.9-0.3-1.6,0.2-2.3,0.5C705.2,421.3,705.2,421.3,706,420.6z M697.3,488.2c0-0.1,0.1-0.2,0.1-0.3c-0.1,0.1-0.2,0.1-0.3,0.2
		C697.2,488.2,697.2,488.2,697.3,488.2z"/>
	<path d="M587.9,221.8c3.4-1.6,6.6-3.1,9.9-4.5c5.7-2.3,11.3-4.6,17.1-6.8c3.6-1.4,7.3-2.7,11-3.7c2.1-0.6,4.4-0.7,6.6-0.9
		c5.8-0.3,11.5-0.6,17.3-0.9c1.5-0.1,3-0.3,4.4-0.4c0.4,0.8,0.1,1.1-0.4,1.3c-0.9,0.3-1.8,0.6-2.7,0.6c-4.2,0.3-8.5,0.5-12.7,0.7
		c-1.9,0.1-3.7,0.4-5.6,0.6c-0.4,0-0.7,0.1-1,0.1c-5.3-0.1-10.2,1.8-15,3.7c-3.7,1.5-7.3,3.3-11,4.9c-4.5,2-9.1,3.9-13.7,5.8
		c0.5,0.4,1,0.8,1.7,1.3c-0.6,0.2-0.8,0.5-1.1,0.5c-1.8,0-3.5,0.1-5.3,0c-5.3-0.1-10.6,0.7-15.8,1.7c-1.3,0.3-2.5,0.7-3.7,1.2
		c-3.7,1.6-7.3,3.2-11,4.8c-1.6,0.7-3.1,1.6-5,1.6c-0.7,0-1.4,0.4-1.9,0.8c-2,1.4-4.5,2-6.2,3.9c-0.3,0.4-1.1,0.5-1.6,0.7
		c-1.1,0.4-2.2,0.8-3.3,1.3c-1.2,0.5-2.3,1.1-3.7,1.1c-1,0-2.1,0.5-3,0.8c-5.8,2.3-11.7,4.2-17.8,5.8c-1.6,0.4-3.1,1.2-4.6,1.8
		c-1.4,0.6-2.8,1.1-4.4,0.7c-0.7-0.2-1.4-0.1-2.1-0.1c-5.5,0.2-11.1-0.2-16.6-0.5c-1.2-0.1-2.4,0-3.5-0.3c-2.4-0.7-4.8-0.4-7,0.4
		c-5,1.9-10.2,2.8-15.2,4.4c-1.5,0.5-2.9,1-4.3,1.5c-1.2,0.4-2.4,1-3.7,0.7c-0.4-0.1-0.9,0.1-1.3,0.3c-3.8,1.5-7.7,3-11.5,4.5
		c-0.5,0.2-0.8,0.7-1.5,1.2c0.7,0.3,1.1,0.6,1.5,0.6c0.9,0,1.9,0.1,2.8-0.1c3.5-0.7,6.9-1.5,10.4-2.2c1.5-0.3,3-0.6,4.5-0.7
		c2.9-0.4,5.8-0.7,8.9-1.1c0.3,0.6,0.6,1.1,0.9,1.5c-0.1,0.3-0.2,0.6-0.4,0.6c-3.1,1.4-6.2,2.9-9.4,3.9c-3.6,1.1-7.3,1.7-11,2.5
		c-1,0.2-2.1,0.2-3.1,0.3c-1.7,0.1-3.2,0.4-4.3,1.8c0.2,1,0.9,1.2,1.6,1.3c1.2,0.2,2.3,0.4,3.5,0.4c2.9,0,5.9-0.2,8.8-0.3
		c2.1-0.1,4.2-0.4,6.2-1c3.4-0.9,6.9-1.6,10.3-2.3c0.2-0.1,0.6,0.2,0.8,0.3c-0.1,0.9-0.7,1-1.2,1.2c-3.4,1-6.8,1.9-10.2,2.8
		c-4.7-0.2-9.3,1.5-14,0.5c-1.1-0.2-2.3-0.2-3.7,0.4c0.1,0.8,0.2,1.5,0.2,2.1c0.4,0.2,0.6,0.3,0.9,0.4c1.4,0.1,2.8,0.2,4.2,0.4
		c2.9,0.2,5.9,0.7,8.8,0.6c2.4-0.1,4.8-1,7.3-1.3c2.6-0.4,5.1-0.5,7.7-0.7c0.3,0,0.6,0.2,1.2,0.4c-1.3,0.8-2.7,0.4-4.1,0.8
		c-1.5,1.7-3.6,2.5-6.1,2.6c-0.5,0-1,0.2-1.4,0c-2.2-1.1-4.3-0.1-6.5,0.2c-0.9,0.1-1.7,0.5-2.7-0.2c-0.4-0.3-1.1-0.1-1.7-0.2
		c-2.1-0.4-4.2-0.3-6.2-1.2c-0.8-0.4-1.8-0.3-2.8-0.4c-0.8-1.2-0.8-2.6-0.7-3.9c-0.9-1.2-2.6-1.5-2.8-3.3c1.2-1.3,2.6-2.1,4.4-2.6
		c3.7-1,7.4-1.2,11.2-1.8c2.4-0.4,4.6-1,6.7-2c1-0.5,2.1-0.9,3.1-1.7c-0.9,0-1.8,0-2.7,0.1c-2.7,0.4-5.4,0.7-8,1.2
		c-2,0.4-3.9,1-5.8,1.6c-1.1,0.3-2.2,0.6-3.5,0.3c-1-0.2-2.1,0.1-3.1,0.2c-1,0-1.9-0.2-2.4-1.2c-0.5-1.2-0.1-2.8,1.1-3.4
		c1-0.6,2.1-1.1,3.2-1.6c2.8-1,5.5-2.1,8.3-2.9c5.7-1.6,11.4-3.1,17-4.6c2-0.5,4-1.1,6-2c2.3-1,4.7-1.6,7.2-1.5
		c0.9,0,1.9-0.2,2.8-0.2c0.8-0.1,1.6-0.2,2.5-0.1c6.8,0.7,13.6,0.8,20.5,0.9c1.7,0,3.2-0.2,4.8-0.9c1.4-0.7,2.8-1.2,4.3-1.6
		c5.1-1.6,10.1-3.2,15.2-4.6c4.4-1.2,8.7-2.8,12.8-5c1.8-1,3.6-1.7,5.3-2.8c4.8-2.8,10.1-4.6,15.2-6.6c2.8-1.1,5.9-1.5,8.9-2.3
		c0.5-0.1,1.1-0.2,1.6-0.7c-1.5-0.1-3-0.1-4.5-0.1c-4.7,0-9.4,0-14.1-0.1c-2.4,0-4.7-0.1-7-0.9c-1.4-0.5-3-0.5-4.5-0.8
		c-6.4-1.1-12.8-2.2-19.1-3.4c-4.6-0.9-9.1-1-13.7-0.8c-0.4,0-0.7,0-1.1,0.1c-3.5,1.1-7.2,0.7-10.9,1.1c-1.3,0.1-2.6,0.3-3.9,0.4
		c-2,0.3-4,0.4-6-0.1c-0.8-0.2-1.6-0.2-2.4-0.2c-5.4,0.2-10.8,0.6-16.2,0.7c-2.1,0-3.9,0.5-5.7,1.6c-2.2,1.4-4.3,2.9-6.5,4.3
		c-0.5,0.3-1,0.9-1.5,0.8c-1.8-0.1-2.8,1-4,1.9c-6.6,4.7-13,9.8-19.1,15.2c-2.8,2.5-6,4.6-9.1,6.7c-10.9,7.5-22.1,14.4-34.6,19
		c-7.7,2.8-15.5,4.8-23.6,6c-1,0.1-2.1,0.2-3.2,0.2c-0.3,0-0.7-0.1-1-0.2c0.1-0.4,0.2-0.7,0.3-1.1c-0.3-0.1-0.6-0.3-0.8-0.3
		c-3.5,0-7,0.1-10.5,1.1c-3.1,0.9-6.1,0.8-9.3-0.4c-3.5-1.3-7.3-1.9-11-2.6c-4.4-0.8-8.8-1.3-13.3-1.3c-8.4-0.1-16.6-2-24.5-4.8
		c-5.4-1.9-10.8-4.1-16.1-6.4c-9.6-4.3-19.3-8.2-29.1-11.8c-7-2.5-13.8-5.4-20.8-7.9c-2.8-1-5.6-1.6-8.5-2.3
		c-0.8-0.2-1.9-0.4-2.3,0.9c-0.1,0.3-0.8,0.5-1.2,0.6c-2.7,0.7-5.1,1.8-7.3,3.5c-2,1.5-4,1.6-6.3,0.4c-1.3-0.7-2.9-1-4.4-1.3
		c-1.7-0.4-3.5-0.5-5.2-0.9c-1.3-0.3-2.8-0.2-3.7-1.6c-0.3-0.4-1.1-0.5-1.6-0.5c-1.6-0.2-3.3-0.5-4.9-0.5c-4.1,0-8.2,0.2-12.4,0.2
		c-5.2,0-10.4-0.1-15.5-0.3c-1.5-0.1-3-0.5-4.5-0.9c-1.5-0.4-2.8-0.7-4.4-0.6c-3.2,0.3-9.4-4.4-9.4-9.1c0-1.4,0.1-2.8,0.8-4.1
		c0.8-1.5,1.2-3,1.5-4.7c0.6-3,2.5-5.3,4.6-7.4c1.1-1.1,2.3-2,3.3-3.2c1.1-1.1,2-2.3,3.1-3.6c-0.8-0.9-1.9-1.3-2.8-1.9
		c-0.9-0.7-1.8-1.6-2.8-2.2c-2.5-1.6-3.2-3.9-3.1-6.7c0.2-4.5,1.3-8.6,3.4-12.5c0.4-0.7,0.9-1.4,1.1-2.2c0.2-0.8,0.1-1.6,0.2-2.6
		c0.9-0.7,1.7-1.6,2.7-2.2c8.1-5.2,16.7-9.3,26-11.5c0.8-0.2,1.6-0.4,2.4-0.4c9-0.5,17.9-0.4,26.6,2.4c3.8,1.2,7.8,1.9,11.8,1.8
		c3.5-0.1,7,0,10.6-0.5c6.2-0.8,12.2,0.2,18,2.7c0.3,0.1,0.7,0.3,0.9,0.5c2.5,2.6,5.1,5.3,6.4,8.8c0.4,1.1,0.7,2.2,1,3.5
		c1,0,2.1,0.1,3.1,0.1c5.5,0.1,11.1,0.2,16.6,0.3c1.2,0,2.4,0.1,3.5-0.2c7.8-1.8,15.4-1.2,23.1,0.6c8.4,2,16.6,4.5,24.5,7.9
		c3.6,1.5,7.3,2.5,11.1,3.6c2.3,0.7,4.7,0.3,7,0.1c1.4-0.1,2.7-0.9,4.1-0.2c0.4,0.2,1.3-0.4,1.9-0.8c4.1-3,7.9-6.3,11.2-10.3
		c3.1-3.8,6-7.8,8.6-12.1c7.3-11.8,14.4-23.8,22.2-35.3c4.6-6.7,9.9-12.6,16-17.8c7.5-6.4,16.3-10.2,26.1-11.5
		c8.1-1.1,16.2-0.9,24.3,0.4c6.1,1,11.8,3.2,17.2,6.2c3.4,1.9,6.7,3.9,10.3,6c0.8-0.1,2.1-0.8,2.8,0.5c1.3,2.6,3.8,3.4,6.2,4.4
		c5.6,2.3,11.1,4.5,16.7,6.8c1.3,0.5,2.7,0.9,3.7,2c0.4,0.4,1,0.6,1.6,0.7c5.6,1.5,11.2,2.9,17,3c2.7,0,5.4-0.3,8-1.3
		c3.4-1.3,6.8-2.7,10.2-3.9c2.8-1,5.4-2.3,8.5-2.3c0.8,0,1.5-0.5,2.3-0.8c3.2-1.4,6.4-2.9,9.7-4.2c2.6-1.1,5.2-2.3,7.5-3.9
		c5-3.3,9.9-6.8,14.5-10.6c4.4-3.7,8.8-7.5,13.9-10.2c0.2-0.1,0.4-0.2,0.6-0.4c5.9-5,11.2-10.4,14.3-17.7c1.4-3.2,2.3-6.7,4.4-9.6
		c0.2-0.3,0.2-0.7,0.4-1c5.6-15.5,13.9-29.3,24.6-41.8c3.1-3.7,6.4-7.2,9.8-10.6c2.1-2.2,4.6-4.1,6.9-6.1c1.5-1.3,3-2.5,4.3-4.1
		c1.6-2,3.9-3.4,6.7-3.5c4-0.1,8-0.4,12,0c3.1,0.3,3.8,1,3.9,3.9c0.1,1.9,0.7,3.7,1.3,5.5c0.6,1.9,1.5,3.7,2.1,5.6
		c0.7,2.1,1.2,4.3,1.8,6.4c0.8,2.9,1.4,6,2.7,8.8c3.9,8.7,6.1,17.8,7.7,27.1c0.7,3.9,1.6,7.8,2.4,11.8c0.3,1.3,0.4,2.6,0.6,3.8
		c0.9,4.9,1.8,9.7,2.6,14.6c0.3,1.7,0.8,3.2,1.9,4.5c2.6,3.5,4.4,7.5,6.2,11.5c1.6,3.5,1.5,6.8,0.1,10.3c-0.1,0.2-0.3,0.4-0.3,0.6
		c-0.1,0.2,0,0.4-0.1,0.8c0.9,0,1.9,0.1,2.8,0.1c2.9-0.1,5.9-0.4,8.8-0.2c2.6,0.2,5.4,0,7.8,1.5c0.9,0.5,2,0.7,3,1.1
		c2.7,1.1,5,2.6,6.6,5.1c1,1.6,2,3.2,3.1,4.7c1.4,1.9,2.2,3.9,2,6.2c0,0.2,0.2,0.4,0.4,0.8c1.9,0.4,3.4,1.6,5,2.8
		c1.5,1.2,2.4,2.6,2.9,4.3c0.4,1.5,0.8,2.9,1.1,4.5c1.2,8.4,1.1,16.7-1.8,24.8c-0.4,1-0.7,2-1,3c-0.2,0.9-0.3,1.8-0.5,2.8
		c-0.2,1-0.2,2.1-0.6,3.1c-2,5.4-2.7,11-3,16.6c-0.1,1.9,0,3.8-0.1,5.7c-0.1,3.1-0.2,6.1-0.4,9.2c-0.1,1.4-0.1,2.8,0.4,4.2
		c0.9,2.5,0.9,5.1,1,7.7c0.1,3-1,5.5-2.9,7.7c-1.8,2.1-3.8,3.9-6.2,5.3c-2.8,1.7-5.8,3.2-8.7,4.7c-1.9,0.9-3.9,1.7-5.8,2.5
		c-1,0.4-2,0.6-3.1,0.8c-2.9,0.5-5.8,1-8.7,1.5c-1.7,0.3-3.3,0.8-5.4,1.4c1.3-1.8,3-1.9,4.4-2.6c1.5-0.7,3-1.2,4.6-2.1
		c-1.8,0.1-3.6,0.3-5.4,0.4c0-0.1,0-0.2-0.1-0.3c1.8-0.4,3.6-0.8,5.4-1.2c3.8-1,7.3-2.6,10.9-4.2c0.9-0.4,1.6-1.4,2.9-0.8
		c0.2,0.1,0.8-0.3,1.2-0.6c3-3,6-6,8.5-9.4c2.5-3.4,4-7.2,4.2-11.4c0.1-2.8,0.5-5.6,0.9-8.4c0.4-3,0.1-6.1,0.1-9.3
		c-1.6,1.6-1.2,4.2-3,6c0.4-4.9,0.9-9.3,1-13.8c0.1-4.6,0.2-9.2-0.9-13.7c-0.5,7.1-0.9,14.3-1.4,21.4c0,0.2-0.3,0.3-0.5,0.5
		c-0.6-0.3-0.5-1-0.5-1.4c-0.1-4.6-0.1-9.2-0.1-13.8c0.1-4.2,0.5-8.5,1.4-12.6c0.3-1.4,0.7-2.8,1.1-4.1c0.4-1.1,0.6-2.2,0.2-3.8
		c-0.8,1-1.3,1.8-1.8,2.5c-1.4,2.1-3.2,3.8-5.4,4.9c-3.1,1.7-6.4,3.1-9.9,3.5c-0.9,0.1-1.8,0.4-2.8,0.6c-1.3,0.2-2.5,0.8-3.8,0.3
		c-3.1,0.9-6.5,0.6-9.8,1.8c0.4,1.2,1.7,1.4,2.1,2.6c0,0.2,0,0.6-0.2,0.9c-1.1,1.9-3,2.6-4.9,3.2c-2.7,0.9-5.3,1-7.8-0.8
		c-0.5-0.4-1.3-0.8-1.9-0.8c-2.7,0-4.6-1.6-6.6-3c0.2-0.8,0.4-1.4,0.6-2.3c-2.6-0.5-5.1-1-7.7-1c-1.9,0-3.7-0.1-5.6-0.7
		c-1.2-0.4-2.5-0.6-3.8-0.6c-4.8-0.1-9.7-0.1-14.5-0.2c-0.7,0-1.4,0.2-2.3,0.3c0,1.3,0,2.4,0,3.6c0,1,0,2.1-0.9,3.2
		c-2.2-1.9-1.7-4.5-2.2-6.9c-2.9-0.4-5.6,1-8.8,0.4c0.7-0.5,1-1,1.5-1.1c3.6-1.1,7.4-1.6,11.2-1.5c2.9,0,5.8-0.4,8.7-1
		c-0.1-0.3-0.1-0.7-0.3-0.7c-2.3-1.2-3.6-3.3-5-5.3c-1-1.5-1.5-3.2-3-4.3c-1.5-2.9-2.3-6-1.3-9.2c1-3.6,2.2-7.2,3.3-10.9
		c-1.3,0.2-1.6-1.2-2.7-1.3c-0.9,0-1.9,0-2.8,0c-2.2,0-4.2-0.6-6.1-1.5c-1.9-0.9-3.8-1.8-5.7-2.8c-1.3-0.7-2.6-1-4-1
		c-3.6,0-7.3,0-11-0.2c-6.3-0.2-12.4,1.1-18.3,3.2c-0.3,0.1-0.7,0.3-1,0.4c-6.1,2.8-8.5,4.7-10.7,11.3c-1,3.1-2,6.3-2.8,9.5
		c-1.1,4.3-1,8.6-0.6,13c0.1,0.7,0.1,1.4,0.2,2.3c1-0.2,2-0.5,2.9-0.6c0.9-0.1,1.9,0.1,2.8,0.2c1,0.1,2.1,0.3,3.1,0.5
		c1.2-2,2.1-4.1,4.2-5.1c0.6,0.5,0.4,0.9,0.1,1.3c-1,1.3-2,2.6-3.2,4c0.8,0.5,1.3,0.8,1.9,1.2c1.7,1,3.5,2,5.2,3
		c0.5,0.3,0.9,0.9,1.6,1.8c-2.1,0-3.3-1-4.7-1.6c-1.5-0.6-3-1.3-4.6-1.8c-1.4-0.5-2.9-0.8-4.4-1.1c-1.5-0.3-3-0.4-4.7-0.6
		c0,0.6-0.1,1.2,0,1.9c0.8,4.8,2.4,9.4,4.7,13.6c0.6,1,1.1,2.1,1.7,3.2c1.9,0.9,4,1.1,6.1,1c6.2-0.3,12.2-1.4,17.9-3.6
		c8.6-3.3,16.8-7.4,24.1-13.2c1.1-0.9,2.1-2,3.5-2.2c0.7,0.5,0.6,1,0.1,1.5c-2.2,2-4.3,4.1-6.6,5.9c-4.7,3.6-9.9,6.3-15.1,9.1
		c-4.1,2.2-8.4,3.7-12.9,4.7c-4.2,0.9-8.4,1.4-12.6,0.4c-1.6-0.4-3.2-1-4.6-1.7c-1.1-0.5-2.4-1.2-1.9-2.9c0.1-0.4-0.5-1-0.8-1.5
		c-3.6-5.6-5.3-11.8-5.9-18.3c-0.2-2-0.3-4-0.4-6c-0.1-5,0.8-9.8,3-14.4c0.8-1.6,1.2-3.1,1.1-5c-0.4-3.7,1.3-6.7,4.5-8.6
		c1.6-1,3.3-1.9,5.1-2.5c6.7-2.3,13.7-3.5,20.8-3.5c2.8,0,5.7,0.1,8.5,0.1c0.8,0,1.6-0.1,2.8-0.1c-2.6-2.7-5.1-5.1-6.1-8.4
		c-0.5,0.1-0.9,0-1.2,0.1c-3,1.4-6.1,1.6-9.3,1.8c-8.8,0.4-17.4-0.7-25.8-3.2c-5.2-1.5-10.3-3.4-15.1-5.9c-0.7-0.4-1.4-0.9-2.1-1.3
		c-0.7-0.5,0.2-1.8-1-2.1c-0.2,0.1-0.6,0.1-0.8,0.3c-3.4,2.6-7.2,4.5-10.9,6.6c-1,0.6-2.1,1-3.2,1.4c-4.4,1.7-8.8,3.4-13.2,5.1
		c-0.8,0.3-1.5,0.7-2.1,1c0,0.4-0.1,0.7,0,0.8c2.2,4.1,3.4,8.5,4.4,13c0.7,3.1,1.6,6.1,2.9,9c1.7,3.5,2.5,7.4,3,11.2
		c1,7.1,2.1,14.2,2.7,21.4c0.9,11.9-1.2,23.5-5.1,34.7c-0.1,0.2-0.3,0.3-0.5,0.5c-0.6,0-0.7-0.5-0.6-1c0.3-1.7,0.6-3.5,0.9-5.2
		c0.6-3,1.3-6,1.8-9c1.2-7.4,1.2-14.8,0.2-22.2c-1-7-1.8-14-3-21c-0.8-5-2-9.9-3.7-14.7c-0.5-1.3-0.7-2.7-0.9-4.1
		c-0.5-4-1.3-7.9-3.1-11.5c-0.2-0.4-0.5-0.8-0.7-1.1c-1.4-0.2-2.4,0.4-3.5,0.9c-5.4,2.1-10.7,4.3-16.1,6.3c-2.1,0.8-4.3,1.1-6.5,1.5
		c-0.9,0.2-1.8,0.1-2.5-0.8c-0.3-0.4-1.2-0.5-1.9-0.6c-8.1-1.2-15.9-3.2-23.4-6.5c-1.3-0.6-2.7-1-3.6-2.1c0.1-0.3,0.2-0.6,0.4-1.1
		c-3-1.1-5.9-2.3-8.9-3.4c-0.3-0.1-0.7-0.1-1.2-0.2c-0.2,1.5,0.7,2.7,0.9,4.1c0.1,1.4,0.4,2.8,0.4,4.2c0.1,1.4,0,2.8,0,4.2
		c0,1.4,0,2.8,0,4.2c0,1.4-0.1,2.8-0.3,4.2c-0.2,1.4-0.6,2.8-0.8,4.2c-0.3,1.4-1,2.6-0.9,4.3c1.1,0,2.1,0.1,3.1,0.1
		c3.1,0,6.1,0,9.1,0.7c1.5,0.3,3,0.5,4.5,2c-6-0.6-11.6-1.1-17.4-1c-0.3,0.9-0.7,1.8-0.9,2.6c-2.3,8.7-4.6,17.3-6.7,26
		c-0.6,2.3-0.8,4.6-1.2,6.9c-0.5,3.5-1,7-1.5,10.5c-0.2,1.3-0.3,2.6-0.4,4c0.8,0.4,1.4,0.9,2.2,1.2c2.6,1,5.3,1.9,8,2.9
		c0.6,0.2,1.1,0.4,1.1,1.3c-3.9,0.1-7.2-1.9-10.8-2.9c-1.2,2.9-1.4,3.9-1.2,7.9c0.6,0.1,1.3,0.2,2,0.2c5.1,0.1,10.1,0.1,15.2,0.2
		c1.3,0,2.6,0.1,3.9,0c7.2-0.5,14.3-0.9,21.5-1.5c3.1-0.2,6.1,0.2,9.1,0.7c7.4,1.4,14.8,2.8,22.2,4.3c4.6,1,9.3,1.2,14,1.1
		c4.1-0.1,8.2,0.1,12.3,0.1c3.3,0,6.6-0.1,9.9-0.1C586.1,221.4,587,221.7,587.9,221.8z M717.4,180.5c-0.1-0.2-0.1-0.4-0.3-0.5
		c-0.1-0.1-0.3,0.1-0.5,0.2c0.1,0.1,0.2,0.1,0.3,0.2C717,180.3,717.3,180.3,717.4,180.5c0.4,0.3,0.7,0.7,1.2,1.5
		C718.5,180.7,718.5,180.7,717.4,180.5z M735.8,242.6c0.9,0,1.9,0.1,2.5-1.4C737.3,241.8,736.6,242.2,735.8,242.6
		c-0.1,0.1-0.4,0.1-0.6,0.2c-0.1,0-0.2,0.1-0.3,0.1c0.2,0.1,0.4,0.3,0.5,0.2C735.5,243,735.6,242.7,735.8,242.6z M691.9,126.7
		c-2.3,0.6-2.3,0.6-3.8,2.1C689.9,128.6,691.3,128.2,691.9,126.7c0.2-0.2,0.5-0.3,0.7-0.4c-0.1,0-0.2-0.1-0.3-0.1
		C692.2,126.3,692.1,126.5,691.9,126.7z M740.7,127.3c1.8,0,3.3-1,4.9-1.5c-0.3-1.2-1.1-1.3-1.9-1.1
		C742.2,125,741.2,125.9,740.7,127.3c0,0.2-0.1,0.2-0.1,0.3C740.6,127.5,740.7,127.4,740.7,127.3z M759.9,147.1
		c-0.1,0.6,0.1,1.1,0.7,1.5c-0.1,0.4-0.1,0.8-0.2,1.3c-1.1-0.9-2-1.6-3-2.3c-0.1-0.1-0.5,0.1-0.9,0.2c0.6,0.7,1.1,1.3,1.7,2
		c-0.6,0.2-1.1,0.3-1.6,0.4c0,1.2,0.2,2.4,0,3.4c-1.1,4.3-0.9,8.6-0.3,12.9c0.2,1.5,0.1,3.1,0.2,4.6c0.2,2.8,0.5,5.7,0.7,8.5
		c0.7-3,1-6.1,1.1-9.1c0.1-3.2,0-6.4,0.1-9.5c0.1-3-0.8-6-0.5-9c0.9-0.2,1.4,0.1,1.6,0.6c0.4,1.1,0.7,2.3,0.8,3.4
		c0.3,2.8,0.5,5.6,0.7,8.4c0.1,1.3,0.1,2.6,0.2,3.8c0.8-2.8,1-5.5,1.1-8.3c0-0.5-0.1-0.9-0.2-1.4c-0.4-2.7-0.7-5.4-1.1-8
		c-0.1-0.7,0.1-1.4-0.7-1.9C760.4,148.1,760.6,147.4,759.9,147.1c-0.1-1-0.1-2-0.2-3c-1-1.2-1.8-2.3-3.3-3c-0.4,1.5-0.1,2.9,0.1,4.4
		C757.6,146.1,758.7,146.6,759.9,147.1z M746.4,237.7c2.4-0.7,4.2-2.5,6-4.1c3.1-2.6,4.1-5.9,3.5-10.5c-1.6,4.5-3.8,7.9-6.6,10.9
		c-0.8,0.9-1.6,1.7-2.3,2.6C746.7,236.9,746.7,237.3,746.4,237.7c0,0.1-0.1,0.1-0.2,0.1c-0.1,0-0.1,0.1-0.1,0.2
		C746.2,237.8,746.3,237.8,746.4,237.7z M715.2,123.8c-1.3,0.1-2.4-0.7-3.8-0.5c-4.4,0.6-8.8,1.3-13.1,2.5c-1.3,0.3-2.4,0.8-3.5,1.5
		c-2.9,1.9-5.7,3.8-9,4.8c-3.8,1.2-6.9,3.6-10,5.8c-1.8,1.3-3.3,3-4.2,5.1c-1,2.4-1.9,4.8-2.7,7.3c-1,3.1-1,6.3,0.1,9.3
		c0.6,1.7,1.4,3.2,2.2,4.8c1.3,2.4,3,4.5,5.1,6.3c1.5,1.3,3.3,2.2,5.4,2.4c1.5,0.1,3.1-0.1,4.1,1.5c0.1,0.2,0.6,0.3,1,0.3
		c3.4,0.5,6.7,1.1,10.1,1.4c3.6,0.3,7.3,0.4,10.8,1.4c1,0.3,2.1,0.4,3.1,0.2c2.4-0.5,4.9-0.7,7-2.1c0.4-0.3,0.8-0.4,1.3-0.5
		c2.1-0.4,4.3-0.8,6.5-1.2c0.2,0,0.4-0.2,0.4-0.2c0.8-1,1.4-1.8,2-2.5c2.4,0.1,4.2,1.2,5.9,2.2c0.9-0.2,1.7-0.2,2.3-1
		c-1.4-0.2-2.7-0.1-3.6-1.3c1.3-0.9,2.5-0.8,3.8-0.5c1.4,0.3,2.7,0.7,4.1,0.9c1.6,0.3,3.1-0.4,4-2c-2.5,0-4.9,0-7.3,0
		c1.8-0.4,3.4-0.9,4.2-2.7c1.1-0.3,2.4,0.3,3.2-0.9c-0.7-0.9-2.2-0.7-2.4-1.9c0.1-0.1,0.2-0.3,0.3-0.3c1.4,0.5,2.8,1,4.2,1.5
		c0.2,0.1,0.2,0.6,0.4,1c-0.7,0.6-1.4,1.1-2.2,1.7c1,0.4,2,0.8,2.8,0.1c1.8-1.5,3.4-3.2,3.7-5.9c-0.8-0.1-1.5-0.2-2.1-0.2
		c-0.2-0.7-0.9-0.7-1.4-0.7c-0.8-1.4-2.4-1.2-3.5-2c-0.6-0.4-0.8-0.8,0-1.4c2.3,1.1,4.8,2.2,7.1,3.3c0.9-0.2,1.4-0.6,1.2-1.7
		c-1.3-0.3-2.6-0.6-3.9-1c-1.8-0.6-3.8-1-5-2.8l-0.1,0.1c1.1-0.3,1.8,0.5,2.6,0.9c1.5,0.7,3,1.3,5,1c-1.2-0.5-2-0.9-2.9-1.2
		c-1-0.4-1.9-0.8-2.9-1.2c-0.8-0.3-1.7-0.4-2.2-1.6c0.7,0.2,1.1,0.2,1.6,0.4c1.7,0.6,3.3,1.2,4.9,1.9c1.1,0.5,2.2,0.7,3.4,0.5
		c0.3-0.1,0.6-0.5,1-0.8c-0.4-0.3-0.5-0.5-0.7-0.6c-0.3-0.1-0.7-0.2-1-0.2c-3,0-5.7-1.1-8.4-2.3c-1.9-0.8-3.5-1.9-4.4-3.9
		c0.2-0.7,0.3-1.5,0.5-2.3c3.4-0.5,6.6-1,10.4-0.3c-1.4,0.4-2.3,0.6-3.5,0.8c1.5,0.5,2.8,0.1,3.7,1.1c-2.3,1-4.8,0.3-7.9,1
		c3.4,0.8,5.9,1.4,8.5,2c0,0.1,0,0.2,0,0.4c-2.1-0.1-4.3-0.2-6.5-0.3c2.3,1.4,4,2,6.3,2.3c1,0.1,2.1,0.4,3.2-0.5
		c0-0.9-0.1-1.9-0.2-3c-0.9-0.1-1.5-0.2-2.2-0.3c-0.8-0.1-1.1-0.8-1.3-1.5c1,0,2.1,0.3,2.9-0.7c0.2-2.3,0.2-2.3-0.5-3.7
		c-1.2,0.3-2.4,0.7-3.6,0.9c-1.3,0.2-2.6,0.2-3.9,0.2c-2.2,0-4.5,0.2-6.6,1c-0.1,0.1-0.4-0.2-0.7-0.4c1-1.9,0.3-3.8,0-5.8
		c2.6-2.8,5.8-4.6,8.8-6.8c0.3,0.4,0.6,0.6,0.9,1c0.9-0.6,2.2-0.5,3-1.9c-0.2-0.4-0.4-0.9-0.7-1.6c-2.2,0.6-4.1,1.3-5.8,2.6
		c-0.5,0.4-1.2,1.2-1.7,1.1c-1.7-0.3-2.2,1-3.2,1.8c-0.4,0.3-0.6,1.1-1.5,0.4c0.8-0.9,1.7-1.7,2.1-2.8c0.7-1.7,2.2-2.4,3.7-3
		c1-0.4,2.1-0.5,3.1-0.8c0.6-0.2,1.1-0.6,2-1.1c-1-0.7-1.7-1.3-2.3-1.7c-2.6,1.1-4.8,2.4-7.3,3.1c-0.6-0.4-1.1-0.8-1.7-1.1
		c1.4-1.7,2.7-3.1,4-4.6c0.2-0.1,0.8,0.1,0.3-0.4c-0.1,0.2-0.1,0.3-0.2,0.5c-1.5-0.2-2.4,0.8-3.3,1.7c-0.6,0.5-1.1,1.1-1.6,1.7
		c-0.3-0.2-0.4-0.3-0.4-0.4c0.1-2.3,2.5-3.2,3.2-5.2c-1.2-1.3-2.2,0.6-3.3,0c-0.2-0.2-0.3-0.3-0.5-0.5c-1.4-1.1-1.8-1.1-3-0.1
		c-0.5,0.5-0.9,1-1.4,1.4c-1-0.5,0.3-1.8-1.1-2.1c-1,0.5-2.1,1.2-3.2,1.7c-0.1,0.1-0.4-0.1-0.7-0.2c0.5-0.6,1-1.2,1.5-2
		c-1.2-0.3-2,0.3-2.8,0.7c-0.9,0.5-1.8,1.1-2.7,1.6c-0.8,0.4-2-0.3-2.5,1c0.5,0.3,1,0.5,2,1c-1.9,0.6-3.3,1-4.4,1.3
		C715.8,125.4,715.3,124.7,715.2,123.8c2,0.4,2.8-0.9,3.6-2.6c-0.9,0-1.5,0-2.2,0C716.3,122.8,716.3,122.8,715.2,123.8z
		 M708.2,115.3L708.2,115.3c0.2,0.4,0,0.8-0.3,1.2c-0.9,0.8-2.2,1.2-3,2.2c0.1,0.3,0.2,0.5,0.2,0.5c0.7,0.2,1.4,0.3,2,0.6
		c1.4,0.9,2.9,0.7,4.4,0.3c1.6-0.3,3.2-0.5,4.8-0.9c0.8-0.2,1.5-0.4,2.3-0.6c0.4-2,0.7-3.9,1.2-5.7c0.3-1.1,0.3-2.1-0.1-3.1
		c-1.2-2.7-2.4-5.4-3.7-8c-0.7-1.4-1.4-2.8-2.4-3.9c-0.9-0.9-1.4-1.9-1.7-3c-0.4-1.5-0.9-2.9-1.2-4.4c-1.1-4.9-2.7-9.8-2.4-14.9
		c0-0.7-0.2-1.4-0.4-2.1c-0.9-4.5-2-9-2.7-13.5c-1.5-8.9-3.8-17.5-7.5-25.7c-1.4-3-2.1-6.2-2.7-9.5c-0.3-1.4-0.6-2.7-1.1-4.1
		c-1.1-3.3-2.3-6.7-3.5-10c-0.5-1.4-0.7-2.7-0.5-4.2c0.1-0.4-0.1-0.9-0.1-1.3c-1.1-0.7-2.2-1.2-3.4-0.5c-1.1,0.6-2.3,0.4-3.5,0.4
		c-3.3,0-6.6,0-10.2,0c-0.7,0.6-2,1.2-2.3,2.2c-0.8,2.1-2.5,3.4-4.1,4.8c-5.4,4.6-10.3,9.7-14.6,15.3c-6.8,8.7-13.2,17.8-18.3,27.6
		C629.7,62,626.4,69,622.9,76c-0.5,1-0.9,2.2-1.2,3.3c-2.1,8-6.8,14.2-13.6,18.7c-3.6,2.4-6.8,5-10.1,7.7c-3,2.5-5.9,5-8.9,7.5
		c-0.3,0.3-0.5,0.7-0.8,1c1,2.1,2.6,3.2,4.6,3.8c2.4,0.8,4.7,1.5,7,2.4c10,3.7,20.2,5.3,30.8,5.1c2.1,0,4.2-0.1,6.4-0.6
		c1.2-1.6,2.4-3.1,3.1-5.1c0.3-0.8,0.7-1.5,1.1-2.1c4.3-6.1,7.6-12.7,10.5-19.6c1.4-3.3,2-6.7,2.2-10.4c-1.1,0.8-2,1.6-3,2.2
		c-1.3,0.7-2.7,1.4-4.1,1.9c-0.4,0.2-1.2,0.3-1.5-0.6c2.1-2.7,5.5-3.9,7.6-6.5c0.7,0.1,1.2,0.2,1.8,0.3c0.2-0.2,0.4-0.4,0.4-0.6
		c0.7-2,1.2-4.1,2.2-6c1-2,2.6-3.6,3.9-5.5c0.2-0.3,0.4-0.6,0.6-0.9c5.4-8.9,9.8-18.3,12.5-28.3c0.2-0.9,0.4-1.8,0.7-2.7
		c0.2-0.7,0.5-1.4,1.4-1.4c0.5,0,1,0.8,0.7,1.7c-0.5,1.6,0,3,0.7,4.4c0.8,1.7,1.7,3.3,2.6,5c1.2,2.4,2.5,4.8,3.5,7.3
		c1,2.5,2.3,4.9,3.7,7.2c1,1.6,2.1,3.1,3,4.8c0.7,1.5,1.3,3,1.8,4.6c0.6,2,1,4.1,1.6,6.1c1.9,6.2,3.7,12.4,5.8,18.5
		c0.7,2.1,0.6,3.9-0.3,5.8c-0.7,1.5-1.6,2.9-2.5,4.2c-0.5,0.7-1.3,1.3-1.5,1.6c-0.2,1.1-0.1,1.7-0.5,2.1c-0.6,0.7-1.4,1.3-2.1,1.9
		c-1.8,1.7-3.5,3.5-3.5,6.3c0,0.8-0.5,1.6-0.7,2.4c-0.1,0.4,0,0.9,0,1.6c2-1,3.8-1.8,5.6-2.7c0.6-0.3,1.2-0.7,1.7-1.2
		c1.5-1.4,3.3-2.3,5.3-2.7c1-0.2,1.7-0.6,2.4-1.3C705.1,116.4,706.4,115.4,708.2,115.3z M212.6,232.6c1.3,0.6,2.1,1.3,3,1.4
		c3.4,0.4,6.6,1.6,10,2.3c7,1.6,13.8,4.1,20.2,7.4c5.1,2.7,10.6,4.6,16.2,6c3.5,0.9,7,2,10.4,3.3c5.3,2,10.5,4.2,15.7,6.5
		c8.9,3.8,18.2,6.4,27.7,8.4c1,0.2,2.1,0.2,3.2,0.3c0.8,0,1.7,0,2.5,0.1c7.5,0.9,14.9,2.1,22.1,4.7c1.3,0.5,2.7,0.6,4.1,0.8
		c0.4,0.1,1.1-0.1,1.3-0.4c1-1.8,2.8-1.6,4.4-1.7c4.4-0.1,8.7-0.1,13.1,0.1c2.4,0.1,4.7-0.1,6.9-1.2c1.5-0.7,3.1-1.2,4.6-1.8
		c9.5-3.5,19-7.1,27.9-11.9c2.9-1.6,5.8-3.2,8.7-4.7c7-3.7,13.5-8.2,19.6-13.2c3.1-2.5,6.2-5.1,9.4-7.5c5.4-4.2,11.2-7.7,17.7-10.2
		c1.1-0.4,2.1-1.1,3-1.5c0.3-0.8,0.5-1.5,0.7-2.1c2.4-0.8,5-0.4,7.1-1.1c0.6-5.1,1.1-9.9,1.7-14.6c0.3-2.6,1-5.1,1.4-7.6
		c1.3-7.8,2.7-15.5,4.6-23.2c2.1-8,3.9-16,6.5-23.8c0.1-0.4,0.1-0.9,0.1-1.4c0-4.8,0.1-9.7-0.1-14.5c-0.1-2.8-0.3-5.6-1.7-8.3
		c-3.3-1.6-6.4-3.5-9.2-5.9c-0.4-0.4-1-0.7-1.5-0.9c-3-1.4-5.9-2.9-9-4.2c-4.8-2.1-9.9-3.2-15-3.7c-6.5-0.6-12.9-0.7-19.4,0
		c-3.5,0.4-7,1.1-10.5,1.7c-0.7,0.1-1.7,0.1-2,1.3c0.4,0.2,0.7,0.4,1.1,0.6c2.6,1.1,5.1,2.3,7.8,3.4c2.4,0.9,4.4,2.4,6.1,4.1
		c4.9,4.7,8.9,10,12.2,15.9c3.6,6.4,4.7,13.3,3.7,20.5c-0.6,4.5-2.4,8.6-5.4,12.1c-0.3,0.4-0.7,1-1.6,0.3c0.5-1,1-2.1,1.6-3
		c4.3-6.8,4.5-18.3,1.6-24.9c-3.2-7.3-7.9-13.6-13.6-19.2c-0.6-0.6-1.6-0.8-2.6-1.2c-2.4-3.1-3.2-3.8-7-5.4
		c-2.2-0.9-4.4-1.7-6.5-2.5c-0.7,0.3-1.3,0.5-1.8,0.7c-4.1,2.2-7.8,4.8-11.1,8.1c-5,4.9-9.3,10.3-13.2,16.1
		c-2.5,3.7-4.9,7.5-7.3,11.3c-4.6,7.1-9.2,14.2-13.7,21.4c-1.5,2.4-2.9,4.9-4.3,7.3c-3,5-6.5,9.5-11,13.3c-3.5,2.9-7.3,5.2-11.8,6
		c-1.1,0.2-2.3,0.1-3.5,0.1c-1.8-0.1-3.5-0.6-5.2-0.4c-1.5,0.1-2.8-0.2-4.1-0.7c-2.4-1-4.8-2-7.2-2.9c-7.4-2.7-15.2-4.3-22.8-6.2
		c-3.2-0.8-6.4-1.4-9.7-1.9c-2.6-0.4-5.1-0.5-7.7-0.6c-2-0.1-4,0.1-6,0c-9.9-0.5-19.8-0.4-29.6,0.6c-4.3,0.4-8.7,0.5-13.1,0.6
		c-1.6,0-3.3-0.2-4.9-0.4c-0.5-0.1-1-0.4-1.8-0.8c2.6-1,4.9-0.7,7.5-1.4c-2.2-1.3-4.4-1.2-6.5-1.3c-3.4-0.2-5.9,1.2-8,3.6
		c-1.4,1.6-2.8,3.2-4.1,4.8c-2.2,2.7-3.3,5.7-3,9.2c0.1,1.2,0.7,2,1.7,2.5c0.7,0.3,1.6,0.5,2.4,0.5c1.1,0.1,2.1,0,3.2-0.1
		c1.9-0.2,3.4,0.6,4.6,2.1c0.4,0.5,0.8,1.1,1.2,1.6c0.8,0.2,1.5,0.3,2-0.6c-0.4-0.6-0.8-1.2-1.3-2.1c1-0.1,1.6-0.3,2.3-0.2
		c3,0.4,6.1,0.9,9.1,1.3c2.5,0.3,5,0.8,7.6,0.9c-0.9-0.6-1.7-1-3-1.8c1.5,0.1,2.4,0.1,3.2,0.2c5.8,0.7,11.3,2.5,16.4,5.2
		c5.2,2.8,10.4,5.6,15.5,8.4c6,3.3,12.2,6.1,18.9,7.9c5.7,1.5,11.4,2.8,17.1,4.2c0.4,0.1,0.9,0,1.2,0c0.3-0.8-1.1-1-0.3-2
		c1.6-0.1,2.8,0.8,4.1,1.6c3.2,1.8,6.3,3.7,9.4,5.6c0.4,0.2,0.8,0.5,1,0.9c0.7,1.2,1.9,1.3,3.1,1.3c1.3,0,2.6-0.1,3.9,0.1
		c2.7,0.5,5.3,1,7.9,1.8c2.6,0.8,5.1,0.9,7.7,0.5c7.2-1,14.1-2.9,20.9-5.2c4.4-1.5,8.3-3.7,11.9-6.8c9.5-8.1,19.2-16,28.6-24.2
		c9.1-8,17.9-16.3,25.7-25.8c1.4-1.7,2.9-3.4,4.4-5c0.4-0.5,1-0.8,1.6-1.1c0.2,0.3,0.3,0.4,0.3,0.5c0,0.1,0.1,0.3,0,0.3
		c-5,7.3-11.1,13.6-16.8,20.5c0.5,0.3,0.9,0.6,1.3,0.9c10.7,5.7,17,14.7,19.5,26.3c0.4,2,0.3,4.2,0.4,6.3c0,0.8-0.7,1.4-1.4,1.3
		c-0.7,0-1.4-0.6-1.4-1.3c0-0.6-0.1-1.2,0.1-1.7c0.6-1.8,0.3-3.5-0.2-5.2c-0.5-1.7-0.9-3.4-1.5-5.1c-1.9-5.3-4.8-10-8.9-13.9
		c-2.7-2.6-5.8-4.7-9.4-6.1c-0.8,0.8-1.5,1.4-2.1,2c-8.8,9.2-18,18-28.1,25.7c-3.5,2.7-7.3,5.2-11.2,7.4c-3.4,1.9-6.7,3.8-9.9,6.1
		c-0.6,0.4-1.2,1-1.8,1c-1.9,0-3.4,1-5,1.6c-3.8,1.4-7.6,2.7-11.5,3.4c-4.3,0.8-8.6,0.9-12.9-0.7c-3.5-1.3-7.2-2.3-11.1-1.9
		c-1.4,0.2-2.8-0.2-4.1-0.8c-1.2-0.6-2.2-1.3-3.3-2c-1.4-0.9-2.6-1.9-4.4-2.2c-2.7-0.4-5.3-1-7.9-1.6c-3.2-0.8-6.4-1.6-9.7-1.9
		c-4.3-0.4-8.7-0.9-12.8-2.5c-3.1-1.2-6.3-1.9-9.6-1.8c-1.4,0.1-2.8-0.2-4.2-0.4c-3.6-0.3-7.3-0.7-10.9-0.9
		c-5.4-0.4-10.8-0.6-16.2-1c-2-0.2-4.1-0.4-5.9-1.2c-3.1-1.3-6.3-2-9.5-2.8c-1.7-0.4-3.4-0.8-5.1-1.3c-1.1-0.3-2.3-0.7-2.7-1.9
		c0.1-0.2,0.1-0.3,0.1-0.4c0.5-0.3,0.9-0.7,1.4-1c-5.1-0.4-9.1,1.7-12.1,5.4c0.1,1.3,0.5,2.4,0.1,3.3c-0.6,1.7-0.7,3.5-0.6,5.2
		C213.8,229.4,213.9,230.9,212.6,232.6z M675.8,47.9c-0.5,1.1-0.8,1.8-1.1,2.5c-2.1,5.8-4.6,11.3-7.4,16.8c-2.1,4-4.3,7.9-7.4,11.2
		c-2.5,2.6-2.9,6.1-4.3,9.1c-0.1,0.2-0.1,0.5,0,0.7c0.6,3.5-0.4,6.8-1.6,10c-2.3,5.9-5.1,11.7-8.6,17c-1.3,2-2.5,3.9-2.8,6.3
		c0,0.2,0,0.5,0,0.8c0.2,0.6,0.5,1.3,0.7,1.9c1.5,5.3,5,8.6,10,10.6c1.2,0.5,2.4,1,3.5,1.6c4.4,2.6,9.1,2.8,14,2.3
		c0.9-0.1,1.5-0.6,2.1-1.1c1.1-0.9,2.1-1.9,3.3-2.6c2.9-1.8,5.9-3.4,9.2-5.3c0.7-2.4,1.8-5.2,2.3-8c0.4-2.7,1.5-4.9,3.4-6.8
		c1.2-1.2,1.8-2.7,1.5-4.6c3.5-1.8,4.9-5.2,6.2-8.3c-1.1-2.5-2.4-4.8-3.2-7.2c-1.8-5.1-3.3-10.3-4.9-15.5c-0.2-0.8-0.6-1.6-0.6-2.4
		c-0.1-3.1-1.6-5.6-2.9-8.2c-1.6-3.1-3.5-6.2-4.6-9.5C681,55,678.2,51.9,675.8,47.9z M151.2,205.2c-1.6,1-2.6,2.5-3.8,3.8
		c-0.9,1.1-1.8,2.2-2.9,3c-2.2,1.6-3.6,3.8-4.3,6.3c-0.6,2.2-1.2,4.2-2.1,6.3c-1.1,2.7,0,5.2,2.6,6.4c1.4,0.7,2.8,1.2,4.2,1.8
		c3.9,1.7,8,2.6,12.3,2.8c4.2,0.2,8.5,0.1,12.7-0.2c6-0.4,12-0.5,17.9,0.8c3.9,0.9,7.6,2.3,11.6,2.7c0.7,0.1,1.3,0.4,2,0.7
		c0.8,0.3,1.5,0.6,2.3,0.9c0.9-0.5,1.8-0.9,2.6-1.3c0.8-0.3,1.5-0.6,2.3-0.8c0.9-0.3,1.8-0.5,2.7-0.7c0.8-0.2,1.7,0,2.7-0.5
		c-1.1-0.8-2-1.3-2.8-2c-1.6-1.5-2.7-3.4-2.1-5.7c0.7-2.6,1-5.4,3.2-7.3c0.1-0.1,0.1-0.4,0.2-0.7c-0.3-0.1-0.7-0.1-1-0.2
		c-0.4-0.1-0.8-0.2-1.4-0.4c0.2-0.7,0.3-1.3,0.4-1.8c0.1-0.6,0.3-1.1,0.3-1.3c1-0.7,1.8-1.3,2.5-1.8c2.8-2.3,5.9-3.8,9.7-3.4
		c0.6,0.1,1.3,0.2,1.7-0.1c1.8-1,3.4-0.2,5,0.6c1.3,0.6,2.5,1.3,3.8,1.9c2.1,1,4.3,1.6,7.1,2c-0.7-1.8-1.6-3-2.5-4.2
		c-1-1.2-2-2.4-3.1-3.4c-1.1-1-2.4-1.8-4-2.9c0.8-0.3,1.3-0.5,1.6-0.5c1.5,0.4,2.8,1.2,3.9,2.3c1.4,1.6,2.8,3.2,4.1,4.8
		c0.7,0.9,1.3,2,2,2.9c0.9,1.3,2.1,2.2,3.7,2.4c3.8,0.6,7.6,1.4,11.5,2c5.6,0.8,11.2,1.1,16.8,2c1.3,0.2,2.5,0.5,3.8,0
		c-0.1-0.9-0.9-1-1.5-1.4c-2.7-1.8-5.7-3.3-7.8-6c-0.4-0.5-1.1-0.9-1.7-1.2c-3.7-1.9-7.3-3.8-11-5.6c-0.9-0.5-2-0.8-3-1
		c-4.8-0.7-9.5-1.5-14.3-2.1c-3.6-0.4-7.2-1.3-10.9-1c-0.2,0-0.3,0.2-0.5,0.3c0.2,0.5,0.4,1.1,0.5,1.6c-0.5,1.2-1.5,1.5-2.6,1.6
		c-5.5,0.9-11,0.7-16.5-0.4c-2-0.4-3.9-0.7-5.9-0.9c-4.8-0.5-9.6-1-14.4-1.4c-0.7-0.1-1.5-0.1-2,0.3c-0.9,0.8-1.8,0.6-2.6,0.2
		c-2-0.8-3.8-1.8-5.8-2.6c-4.9-2.1-10-3.3-15.4-3.1c-3.2,0.1-5.9,1.2-8.4,2.8c0,0.4,0,0.6-0.1,0.9c-0.1,1.4-0.4,1.8-1.6,1.8
		C152.5,205.5,151.8,205.3,151.2,205.2z M248.9,181.3c-1.8-4.4-4-7.7-7.2-10.5c-1.3-1.1-2.6-2-4.3-2.4c-4.6-1.1-9.3-1.7-14-0.8
		c-1.6,0.3-3.2,0.9-4.7,1.3c-0.6,0.2-1.5,0.3-2,0c-2-1.1-4.1-0.6-6.2-0.4c-0.6,0.1-1.2,0.3-1.7,0.1c-2.5-0.7-4.9-1.5-7.4-2.2
		c-1-0.3-2-0.7-3-1c-7-1.7-14.2-2-21.4-2c-1.8,0-3.7,0.5-5.5,1.1c-8.6,2.7-16.3,7.3-23.5,12.6c-0.7,0.5-1.4,1.3-1.8,2.1
		c-2.7,4.8-3.9,10-3.7,15.6c0,1,0.3,1.8,1.1,2.5c2.3,2.1,4.7,3.9,7.7,4.7c1.8-0.8,3.5-1.6,5.2-2.2c2.6-0.9,5.1-1.6,7.9-1.5
		c6,0.3,11.6,1.8,17,4.3c1.3,0.6,2.5,1.2,3.7,1.7c0.9-0.4,1.5-1,2.7-0.8c5.5,0.7,11,1.1,16.5,1.6c5,0.5,10.1,0.8,15.2,0.6
		c0.5,0,1.1,0.3,1.5-0.4c-0.8-1.1-1.9-1.5-3.1-1.4c-0.8,0-1.6,0.2-2.5,0.3c-2,0.1-3.7-0.4-5.2-1.7c-0.8-0.7-1.5-1.6-1.4-2.7
		c0.1-1.4-0.2-2.5-0.9-3.6c-0.3-0.5-0.1-1.4,0.1-2c0.7-2.4,2-4.5,4-6.1c0.7-0.6,1.5-1.1,2.2-1.7c0.3-0.2,0.4-0.5,0.7-0.9
		c-0.2-0.8-0.4-1.7-0.7-2.6c1.3,0,1.3,0,2.6,0.6c0.6-0.7,1.2-1.4,1.9-2c1.4-1.3,3.1-2.2,5-2.3c4.6-0.3,9,0,12.7,3.1
		c0.2,0.1,0.4,0.2,1,0.4C240.8,181.8,244.7,182.1,248.9,181.3z M752,137.3c0.1-1.1-0.3-1.8-1-1.8c-3.1,0-6.1,0.2-8.5,2.6
		c-0.6,0.6-1.2,1.1-1.8,1.7c-0.3,0.3-0.7,0.6-0.2,1.3c1.6-0.3,3.6-0.2,5-1C747.5,139,749.9,138.6,752,137.3z M701.8,180.6
		c2.4,1.1,4.8,2.1,7.5,1.6c-1.5-0.5-3.1-0.8-4-2.4c-0.5-0.9-1.6-0.9-2.5-0.8C702.1,179,701.8,179.5,701.8,180.6z M713,180.4
		c-0.3,0.4-0.6,0.9-1,1.3c-0.4,0.5-0.9,0.9-1.5,1.4c0.4,0.2,0.6,0.5,0.9,0.5c1.7,0,3.4-0.3,5.1-0.9
		C715.3,181.3,715.3,181.3,713,180.4z M702.8,121.2c-2.6-0.7-4.5,0.3-6.5,2.5c1.6-0.2,2.7-0.5,3.8-0.5
		C701.6,123.2,702.3,122.4,702.8,121.2z M752.7,139.5c-2.2-0.1-2.2-0.1-3.6,0.5c1,0.9,2.2,1.2,3.5,1.3c0.2,0,0.4-0.2,0.7-0.4
		C753.1,140.4,752.9,139.9,752.7,139.5z M729.6,175.1c-0.4-1-1.1-1.1-2.1-0.7C728.1,175.1,728.7,175.6,729.6,175.1z M749,142.5
		c-0.8-0.4-1.4-0.6-2,0.2C747.9,142.9,747.9,142.9,749,142.5z M705.4,122.2c-0.1-0.2-0.2-0.3-0.3-0.4c-0.2,0.2-0.4,0.5-0.6,0.7
		c0,0,0.2,0.2,0.2,0.2C705,122.6,705.2,122.4,705.4,122.2z M728.8,245.2l0-0.2l-0.3,0L728.8,245.2z M731.1,173.7
		c0.2,0.1,0.4,0.2,0.6,0.2c0.1,0,0.2-0.1,0.2-0.2c-0.2-0.1-0.4-0.2-0.6-0.2C731.3,173.5,731.2,173.6,731.1,173.7z M733.3,243.7
		c-0.1,0-0.2-0.1-0.2-0.1c-0.1,0-0.2,0-0.3,0.1c0.1,0,0.2,0.1,0.2,0.1C733.1,243.8,733.2,243.7,733.3,243.7z"/>
	<path d="M514.6,267.4c0.1-0.9,0.9-1,1.5-1.3c4.2-2.1,8.5-3.9,13.1-5.3c5.5-1.7,11-3.3,16.6-4.7c5.8-1.4,11.6-3,17.4-4.7
		c5.6-1.7,11.3-3.3,17-4.6c1.7-0.4,3.4-1,5.2-1.5c-0.2-0.6-0.4-1.1-0.7-1.6c0.9-0.8,1.9-0.9,3-0.9c0.9,0,1.9,0,2.8,0.1
		c2.4,0.2,4.6,0.2,6.8-1c1.5-0.8,3.3-1,5.1-1.5c1.8-0.4,3.7-0.7,5.5-1.2c11.8-3.2,23.7-6.1,35.8-8.2c3.1-0.6,6.3-1,9.5-1.2
		c4.9-0.3,9.6-1.7,13.8-4c4.5-2.5,7.5-6.4,8.1-11.7c0-0.4,0-0.7,0.1-1.1c1.5-5.3-1.1-9.6-3.4-13.9c-0.8-1.4-1.6-2.8-2.3-4.4
		c-1-2.4-2.2-4.7-3.9-6.8c-0.6,0.5-1.2,0.9-1.7,1.4c-5.4,5-11.6,8.4-18.5,10.7c-1,0.3-2,0.7-3,1c-1.9,0.5-3.8,1.3-5.4,2.6
		c-1.3,1-1.3,0.9-3.4,0.7c0.3-0.4,0.5-0.8,0.8-1.1c1.7-1.3,3.4-2.6,5.1-3.7c0.6-0.4,1.5-0.8,2.3-0.7c1.2,0.1,2.1-0.5,3-1
		c5.7-3,11.4-6.2,16.7-10c0.8-0.5,1.6-1,2.3-1.7c0.6-0.6,1-1.4,1.6-2.3c2.1,2.7,3.9,5.5,5.5,8.3c1.1,2,2.2,3.9,3.4,5.8
		c3.6,5.6,4.7,11.7,3.9,18.3c-0.3,2.7-1.4,5-3.6,6.6c-0.5,0.4-1.1,1-1.3,1.6c-1.1,2.4-3.2,3.7-5.4,4.8c-3.2,1.6-6.7,2.3-10.2,2.7
		c-0.8,0.1-1.7,0.2-2.5,0.1c-4.5-0.4-8.9,0.8-13.2,1.8c-8,1.8-16.1,3.7-24.1,5.5c-4.6,1-9.3,1.7-13.9,2.6c-2.5,0.5-5.2,0.5-7.2,2.4
		c-0.3,0.3-0.9,0.3-1.3,0.4c-0.7,0.1-1.5,0.1-2.1,0.4c-3.6,1.8-7.6,2.1-11.4,3.4c-6,2-12.1,3.9-18.2,5.8c-7.2,2.2-14.5,4.1-21.9,5.3
		c-3.6,0.6-7,1.9-10.5,3c-2.8,0.9-5.5,2-8.3,3C520.1,266.6,517.4,267.5,514.6,267.4L514.6,267.4z"/>
	<path d="M735.7,179.1c-0.2,0.5-0.3,1.1-0.5,1.6c-1,3.2-1.6,6.4-1.6,9.7c-0.1,4.4-0.1,8.7,0,13.1c0,1,0.2,2.1,0.4,3.1
		c1.3,5.4,2.9,10.7,6,15.6c-0.5,0-0.9,0.2-1.1,0.1c-0.7-0.6-1.4-1.2-2.4-2c0,1.1-0.1,1.9-0.1,2.7c0,2.9-1.1,5.2-3.3,7.1
		c-1.6,1.4-3.4,2.6-5.5,3.2c-2.6,0.8-5.2,1.4-7.9,2c-5.2,1.1-10.5,1.2-15.8,0.9c-0.3,0-0.7-0.2-1-0.2c-0.1-0.7,0.3-0.8,0.8-0.8
		c2.1-0.1,4.2,0,6.4-0.2c2.9-0.2,5.9-0.4,8.8-0.8c4.5-0.7,8.5-2.8,12-5.7c1.8-1.5,2.9-3.4,2.8-5.8c0-0.8,0-1.7,0-2.5
		c-0.3-3.7-0.5-7.5-1.2-11.2c-0.8-4.1-0.9-8.2-0.7-12.3c0.2-4.1,0.1-8.3,1.2-12.3C733.5,182.3,734,180.4,735.7,179.1z"/>
	<path d="M744.3,181.1c-0.2,1-0.3,2.1-0.6,3.1c-1.9,7.8-2.1,15.6-1.4,23.5c0.4,5,2.4,11.4,4.7,15.6c1-1.6,1.4-3.3,1.5-5.1
		c0.1-1.8,0-3.5,0.1-5.3c0-0.7,0.2-1.3,0.2-1.9c0.7-0.3,1.1-0.1,1.3,0.4c0.2,0.9,0.4,1.8,0.5,2.7c0.5,4.9-0.8,9.4-2.9,13.6
		c-1.5,2.9-3.2,5.8-5.5,8.2c-1.4,1.5-2.9,2.7-5,3l0.1,0.1c0.1-0.2,0.1-0.5,0.2-0.6c4.2-4.2,6.3-7.3,8.8-12.7
		c-6.2-15.4-9.8-31.3-7.1-48.1c0.1,0.7,0.2,1.4,0.2,2.2c0.1,2.8,0,5.6,0.1,8.5c0.1,3,0.4,6.1,0.9,9.1c0.6-2,0.9-4,1.1-6
		c0.4-3.2,1.1-6.2,2.1-9.3C743.7,181.7,743.8,181.2,744.3,181.1L744.3,181.1z"/>
	<path d="M514.5,267.3c-0.2,0.4-0.4,1-0.7,1.2c-4.6,2.5-9.1,4.9-13.7,7.3c-1.6,0.9-3.4,1.2-5.1,0.9c-5.3-0.9-10,0.6-14.7,2.8
		c-0.6,0.3-1.3,0.6-1.9,0.9c-1.4,0.7-2.7,1.1-4.4,1.1c-2.2,0-4.4,0.5-6.6,0.9c-4.4,0.7-8.9,0.6-13.4,0.6c-0.8,0-1.6-0.4-2.3-0.7
		c-1-0.4-1.9-1-2.7-1.5c-0.9-0.5-0.8-1.3-0.4-2.3c0.6,0.3,1.2,0.4,1.7,0.7c1.8,1.1,3.7,1.5,5.7,1.5c2.9,0,5.9,0.1,8.8,0.3
		c3.8,0.3,7.2-0.8,10.6-2.1c2.4-0.9,4.8-1.9,7.3-2.7c2.7-0.8,5.5-1.3,8.4-1.1c3.1,0.2,6.1-0.5,8.9-1.9c2.9-1.4,5.7-2.8,8.6-4.1
		C510.4,268.2,512.3,267.2,514.5,267.3L514.5,267.3z"/>
	<path d="M704.6,239.2c1.2,0,2.3,0,3.5,0.1c4.3,0.1,8.7,0.5,13-0.5c6.6-1.5,12.8-4.1,17.4-9.3c1.2,0.3,2.2,0.1,2.6-1.1
		c0.3-0.8,0.3-1.7,0.4-2.5c0.9-0.1,1.2,0.5,1.2,1.1c0,1.3-0.6,2.5-1.5,3.5c-0.9,0.9-1.8,1.9-2.8,2.7c-7.5,5.9-15.7,10.7-24.6,14.3
		c-1.4,0.6-2.9,0.9-4.4,1.3c-0.8,0.2-1.6,0.3-2.4,0.3c-0.8,0-1.6-0.1-2.7-0.2c0.3-0.4,0.5-0.8,0.7-0.8c4.4-0.5,8.4-2.1,12.4-4
		c2.8-1.3,5.4-2.7,8.1-4.5c-0.6,0.1-1.1,0.1-1.7,0.2c-5,1.4-10,1.2-15.1,0.8C707.3,240.3,705.8,240.1,704.6,239.2L704.6,239.2z"/>
	<path d="M575,136.6c0.6,1.3,0.3,2.3,0.1,3.3c-1.9,9.1-0.3,17.5,4.5,25.3c0.5,0.9,1.3,1.6,1.3,2.8c-0.4,0.6-0.9,0.4-1.2,0
		c-0.7-0.8-1.4-1.6-2-2.4c-4-6-6.1-12.6-5.8-19.9c0.1-2.7,0.8-5.3,2-7.8C574,137.4,574.5,137.1,575,136.6z"/>
	<path d="M639.4,136.8c0.7,0.2,0.7,0.8,0.8,1.4c0.1,2.8-0.2,5.6-1,8.3c-1.1,3.5-2.3,6.9-3.4,10.3c-0.2,0.5-0.4,1.1-0.3,1.7
		c0.3,2.4-0.4,4.6-0.8,6.9c-0.1,0.6-0.6,1.2-1,1.8c-0.4,0.5-1.2,0.4-1.6,0c-0.4-0.4-0.4-0.9-0.1-1.3c0.5-0.7,1.2-1.4,1.7-2
		c0-1.4,0-2.7,0-4c0-2.2,0.4-4.3,1.4-6.4c2.2-4.8,3.5-9.9,3.6-15.3C638.8,137.6,638.7,137,639.4,136.8z"/>
	<path d="M586.1,219.3c-1.9,1.1-3.1,0.6-4.1-0.2c-1.5-1.3-2.5-2.9-2.9-4.7c-1.3-5.4-1.1-10.7,1.1-15.8c0.1-0.2,0.3-0.3,0.6-0.6
		c0.5,1.2,0.1,2.3,0.1,3.4c-0.2,2.7-0.3,5.4-0.4,8.1c0,0.8,0.1,1.6,0.2,2.4C581.1,215,582.2,217.7,586.1,219.3z"/>
	<path d="M633.8,170.5c1.6,1.7,2.4,3,4.2,3c0.7,0,1.5,0.7,2,1.3c2.3,2.3,3.9,5,5,8c0.2,0.5,0,1.1,0,1.6c-1.1,0.3-1.5-0.3-1.8-0.9
		c-1.1-1.9-2.2-3.9-3.3-5.8c-0.5-0.8-1.1-1.3-2.2-1.5c-1.9-0.5-3.1-2-4.1-3.6C633.5,172.2,633.7,171.7,633.8,170.5z"/>
	<path d="M551.2,207.3c3.4-3.1,6.3-5.6,9.1-8.3c1.2-1.1,2.2-2.4,3.4-3.6c0.2-0.2,0.7-0.2,0.9,0c0.2,0.2,0.4,0.6,0.5,0.9
		c0,0.3-0.1,0.7-0.3,1c-0.6,0.9-1.1,1.8-1.8,2.6C559.8,203.2,556.2,205.7,551.2,207.3z"/>
	<path d="M504.4,185.6c-1.4-0.7-2.8-1.3-4.1-1.9c0.1-0.3,0.1-0.5,0.2-0.5c1.4-1.2,2.8-0.7,4.2,0c1.3,0.7,2.1,1.9,1.9,3.5
		c0,0.5-0.2,0.9-0.3,1.4c-0.5,1.4-1.7,2.4-2.5,2.1c-0.4-0.1-0.8-0.6-0.9-0.9c-0.5-1.4-0.3-2.2,1-3.3
		C504,185.9,504.1,185.8,504.4,185.6z"/>
	<path d="M638.2,162.2c0.1-0.9,0-1.5,0.3-1.9c0.9-1.5,2.4-2.3,3.8-3c1.4-0.7,2.8-1.6,4.8-1.4c-1.2,1.7-2.9,2.3-4.3,3.2
		C641.4,160,640,161,638.2,162.2z"/>
	<path d="M476.9,257.5c-0.9,1.3-1.8,1.4-2.8,1.2c-1-0.3-2-0.6-2.5-1.6c-0.3-0.6-0.2-1,1-1.9C473.9,255.8,475.3,256.6,476.9,257.5z"
		/>
	<path d="M506.2,158.1c3.4-0.1,5.8,0.7,8.1,2.4C512.7,160.9,510.7,160.3,506.2,158.1z"/>
	<path d="M580.1,195.4c-1.1-0.4-1-1.2-0.9-1.8c0.2-1.8,0.5-3.6,2.3-5.3C581.3,191,579.9,193,580.1,195.4z"/>
	<path d="M599.6,223.8c-1.2,1.3-2.6,1.5-3.6,0.7c-0.3-0.2-0.1-1,0.2-1.2C597.3,222.7,597.8,222.8,599.6,223.8z"/>
	<path d="M655.7,169.3c2.2-0.5,4.1,0.5,6.4,0.8c-0.3,0.4-0.4,0.9-0.5,0.9C659.5,170.8,657.5,170.4,655.7,169.3z"/>
	<path d="M521.3,162c-1.5,0.3-2.9,0.3-4.4-0.9C519.1,160.9,519.1,160.9,521.3,162z"/>
	<path d="M578.5,243.7c1.1-0.6,2.2-0.7,3.3-0.3c0.2,0.1,0.3,0.3,0.4,0.5c0,0.2-0.1,0.5-0.2,0.6c-1.2,0.6-2.2,0.5-3.4-0.5
		C578.5,244,578.5,243.8,578.5,243.7z"/>
	<path d="M536.6,211.9c-0.6,0.2-1.1,0.6-1.7,0.7c-1.2,0.3-2.4,0.6-4.5,1C532.7,212,534.6,211.7,536.6,211.9z"/>
	<path d="M487.1,258.2c-2.2,0.5-2.2,0.5-3.9-0.5C484.4,257.3,485.5,257.3,487.1,258.2z"/>
	<path d="M652.8,168.9c-1.4,0.7-1.9,0.6-3.3-0.7C651,168,651,168,652.8,168.9z"/>
	<path d="M540.1,210.5c1.4-0.4,2.7-1.2,4.5-0.7C543.1,210.8,541.6,210.6,540.1,210.5z"/>
	<path d="M496.6,212.5c-1.1,0.6-2.2,0.3-3.3-0.3c2.1-0.5,2.1-0.5,3.3,0C496.6,212.1,496.6,212.3,496.6,212.5z"/>
	<path d="M649.6,155.2c1.1-1.6,2-2.1,3.6-2.3C652.3,154.3,651.4,154.7,649.6,155.2z"/>
	<path d="M478.1,267c1.3-0.8,2.1-0.8,3.3,0C480.2,267.5,479.4,267.4,478.1,267z"/>
	<path d="M583.7,167.7c0.5,0.6,1,1.2,1.5,1.7c-0.6,1-1.1,0.4-1.4,0.1C583.1,169.1,582.8,168.5,583.7,167.7z"/>
	<path d="M655.8,151c0-0.1,0.1-0.2,0.1-0.3c0.5-0.4,1-0.9,1.8-0.4c0.1,0,0.1,0.2,0.1,0.3c0,0.6-0.7,0.9-1.6,0.8
		C656.1,151.4,656,151.2,655.8,151z"/>
	<path d="M577,132.7c-0.2-1.4-0.2-1.5,1.8-1.6c-0.4,0.5-0.6,0.8-0.9,1.1C577.7,132.4,577.3,132.6,577,132.7z"/>
	<path d="M580.8,128.1c0.3-0.1,0.5-0.3,0.8-0.4c0.1,0.2,0.2,0.5,0.4,0.7c-0.3,0.1-0.6,0.2-0.9,0.3
		C581,128.7,580.9,128.3,580.8,128.1z"/>
	<path d="M745,179c0.1-0.7,0.1-1.4,0.2-2.4C745.8,177.7,745.6,178.4,745,179L745,179z"/>
	<path d="M573.9,244c0.6-0.6,1.3-0.6,2.5-0.1C575.3,243.9,574.6,243.9,573.9,244L573.9,244z"/>
	<path d="M744.4,181.2c-0.1-0.8-0.3-1.7,0.7-2.2l-0.1-0.1C744.9,179.7,745.1,180.6,744.4,181.2L744.4,181.2z"/>
	<path d="M662.1,147.7c-0.3,0-0.6,0-0.9,0c0-0.2,0-0.4,0.1-0.5c0.1-0.1,0.4-0.2,0.6-0.2C661.9,147.2,662,147.4,662.1,147.7z"/>
	<path d="M491.4,265.2c-0.2-0.1-0.4-0.2-0.5-0.2c0.2-0.1,0.4-0.3,0.7-0.4c0.1,0,0.3,0.2,0.4,0.3C491.8,265,491.6,265.1,491.4,265.2z
		"/>
	<path d="M603.4,223.2c0.5-0.5,0.9-0.6,1.3,0.1C604.3,223.8,603.8,223.8,603.4,223.2z"/>
	<path d="M656.9,202.1c-0.4,0.1-0.8,0.2-1.2,0.2c-0.1,0-0.2-0.3-0.3-0.5c0-0.1,0.1-0.3,0.2-0.2c0.4,0,0.8,0.1,1.2,0.2
		C656.9,201.8,656.9,201.9,656.9,202.1z"/>
	<path d="M709.6,489.4c0-0.6,0-1.2,0.7-1.4l-0.1-0.1C710.4,488.6,710.5,489.2,709.6,489.4L709.6,489.4z"/>
	<path d="M534.3,166.2c-0.4,0-0.8-0.1-1.4-0.1C533.7,165.5,534.1,165.5,534.3,166.2L534.3,166.2z"/>
	<polygon points="492.1,258.5 491.8,258.6 491.8,258.4 	"/>
	<polygon points="479.1,257.2 479.1,257.1 479.3,257.2 	"/>
	<path d="M704.7,239.1c-0.3-0.1-0.6-0.1-0.9-0.2C704.3,238.5,704.5,238.6,704.7,239.1L704.7,239.1z"/>
	<polygon points="750.3,203.2 750.2,203 750.4,203 	"/>
	<path d="M534.2,166.3c0.2,0.1,0.3,0.1,0.5,0.2c-0.1,0.1-0.2,0.2-0.3,0.3C534.4,166.6,534.4,166.4,534.2,166.3L534.2,166.3z"/>
	<path d="M709.6,489.3c-0.1,0.1-0.1,0.3-0.2,0.4c0-0.1,0-0.2,0-0.2C709.5,489.4,709.6,489.4,709.6,489.3L709.6,489.3z"/>
	<path d="M737.2,239c0,0.1-0.1,0.2-0.1,0.3C737.1,239.2,737.2,239.2,737.2,239L737.2,239z"/>
	<path d="M573.8,243.9c0,0.1-0.1,0.2-0.1,0.3C573.8,244.1,573.9,244.1,573.8,243.9L573.8,243.9z"/>
	<path d="M704.7,491.5c-0.1,0.2-0.2,0.5-0.3,0.5C703.9,492.1,704.1,491.7,704.7,491.5L704.7,491.5z"/>
	<path d="M295.5,552.6c0.4-1,1-0.9,1.6-0.9c3.1,0,6.1-0.1,9.2,0c2.6,0,5.2,0.1,7.8,0.1c0.9,0,1.9,0,2.8,0.1c1.3,0.1,2,0.6,1.8,1.2
		c-0.3,1-1.2,1-2,1.1C311.4,554.7,301.2,554,295.5,552.6z"/>
	<path d="M454.4,509.9c1.4,0.9,1.9,2.4,2.3,3.8c1.1,4.1,2.2,8.2,3.2,12.2c0.6,2.3,1,4.6,1.5,7.3c-0.5-0.5-0.8-0.7-1.1-1
		c-0.4,0.5-0.7,1-1.1,1.5c-0.3-0.3-0.5-0.4-0.5-0.6c-0.3-3.8-1.8-7.3-3.4-10.7c-0.9-1.9-2-3.7-2.9-5.6c-0.2-0.5-0.8-0.9-0.4-1.7
		c1.5,1.4,2.5,3,3.5,4.7c0.9,1.6,1.8,3.3,2.9,4.9c-0.2-0.9-0.3-1.7-0.5-2.6c-0.7-3.6-1.7-7.1-3.1-10.4
		C454.6,511.2,454.6,510.5,454.4,509.9L454.4,509.9z"/>
	<path d="M455.8,470.3c0.4-1.5,0.6-3,1.1-4.4c1.2-3.1,1.5-6.3,1.7-9.6c0.5-7.7-0.9-15.2-3.3-22.5c-0.3-0.8-0.5-1.6-0.7-2.3
		c0-0.1,0.1-0.2,0.2-0.3c5.1,8.6,6,26.5,2.7,38.2C457,469.6,456.4,469.9,455.8,470.3L455.8,470.3z"/>
	<path d="M456.6,502.5c-3.4,0.4-12.3-1.3-18.1-3.4c-0.5-0.2-0.9-0.6-1.4-0.9c0.4-0.2,0.7-0.5,0.8-0.4
		C444.2,499,450.4,500.6,456.6,502.5z"/>
	<path d="M329,522.4c0.4,1,0,1.3-0.6,1.6c-2.5,1-5,1.9-7.5,2.9c-1.1,0.4-2.2,0.9-3.3,1.3c-0.3,0.1-0.6-0.1-1-0.1
		C319.2,525.5,324.5,523.1,329,522.4z"/>
	<path d="M363.4,566.2c-2.6,0.1-4.7-0.3-6.1-1.3c-0.5-0.4-0.8-0.9-0.5-1.5c0.2-0.3,0.7-0.6,1.1-0.7c0.6-0.1,1.2,0,1.7,0.2
		C361.2,563.6,362.6,564.5,363.4,566.2z"/>
	<path d="M226.2,500.1c2.4-1,4.8,0,7.2,0c0.6,0,1.1,0.3,1.6,0.8C232.8,501.6,230.7,501.5,226.2,500.1z"/>
	<path d="M357.8,535.6c-0.5,2.3-2,3.6-4,4.4c-0.3-0.4-0.5-0.6-0.5-0.7C354.1,537.2,355.8,536.2,357.8,535.6z"/>
	<path d="M440.9,505.7c0.4,0.2,0.9,0.2,1.2,0.5c2.4,1.9,4.4,4.2,6.4,6.5c-0.3,0.1-0.6,0.2-0.6,0.2c-2.3-2.2-4.6-4.4-6.8-6.6
		C441,506.1,441,505.8,440.9,505.7L440.9,505.7z"/>
	<path d="M462.9,469c-1.1,2.7-2.7,5.2-4.7,7.3c-0.4,0.5-1,1.1-1.9,0.2c2.4-1.8,4-4.3,5.7-6.7C462.2,469.4,462.7,469.3,462.9,469
		L462.9,469z"/>
	<path d="M472.6,503.2c-1.1,1.2-2,0.3-2.8,0.2c-0.9-0.1-1.8-0.4-2.8-0.5c-0.9-0.1-1.8-0.2-2.7-0.4C467,502,469.7,501.7,472.6,503.2z
		"/>
	<path d="M293.8,552.6c-3.2,0.5-3.2,0.5-5.4-0.1c0.2-0.3,0.4-0.6,0.6-0.7c1.2,0,2.3,0,3.5,0C292.8,551.8,293,552.1,293.8,552.6z"/>
	<path d="M466.9,447.9c0,2.9,0,5.8,0,8.7C466.6,453.7,466.4,450.8,466.9,447.9z"/>
	<path d="M278.1,550.4c1.3-0.9,2.5-1,3.9-0.1C280.4,551.7,280.3,551.7,278.1,550.4z"/>
	<path d="M309.9,528.6c1.5-1.1,1.8-1.2,4.2-0.4C312.7,529.3,312.7,529.3,309.9,528.6z"/>
	<path d="M243.5,501c-1.7,1.1-1.7,1.1-3.5,0.2C241.4,500.7,241.4,500.6,243.5,501z"/>
	<path d="M462.3,521.8c-0.3-0.2-0.7-0.2-0.8-0.5c-0.8-1.4-1.4-2.9-2.2-4.3l-0.1,0.1c0.2,0.1,0.5,0,0.6,0.2
		C460.6,518.8,461.4,520.3,462.3,521.8L462.3,521.8z"/>
	<path d="M367.1,568.3c1.1-0.6,1.7-0.2,2.2,0.7C368.4,569.4,367.6,569.5,367.1,568.3z"/>
	<path d="M372.7,569.5c1.2-0.6,2-0.4,3,0.6C374.4,570.6,373.7,570,372.7,569.5z"/>
	<path d="M441,505.6c-1.2,0.1-1.7-1-2.7-1.7C439.9,504.3,439.9,504.3,441,505.6L441,505.6z"/>
	<path d="M255.4,502.5c-0.8,0-1.4,0-2.3,0C254,501.5,254.6,501.5,255.4,502.5z"/>
	<path d="M305.9,528.4c-0.8,1.3-1,1.3-2,0C304.6,528.4,305.2,528.4,305.9,528.4z"/>
	<path d="M463.3,451.4c0,0.4,0,0.7,0,1.1c0,0,0,0-0.1,0C463.2,452.2,463.2,451.8,463.3,451.4C463.2,451.4,463.2,451.4,463.3,451.4z"
		/>
	<path d="M271.7,548c0.4,0.3,0.6,0.5,0.8,0.7c0.1,0.1-0.2,0.5-0.3,0.5c-0.3,0-0.6-0.2-0.9-0.3C271.4,548.7,271.5,548.4,271.7,548z"
		/>
	<path d="M359.8,531.2c0.1,0.3,0.3,0.5,0.3,0.6c-0.2,0.2-0.5,0.4-0.7,0.5c-0.1-0.2-0.3-0.4-0.2-0.5
		C359.3,531.6,359.5,531.4,359.8,531.2z"/>
	<path d="M249,501.4c-0.3,0.3-0.4,0.5-0.5,0.5c-0.3-0.1-0.5-0.2-0.7-0.4c0.1-0.1,0.1-0.2,0.2-0.2C248.3,501.3,248.6,501.3,249,501.4
		z"/>
	<path d="M361.3,529.4c0-0.4-0.1-0.7,0-0.9c0.1-0.2,0.5-0.2,0.8-0.3c0,0.3,0,0.6-0.1,0.9C362,529.1,361.7,529.2,361.3,529.4z"/>
	<path d="M466.2,458.6c-0.1,0.7-0.1,1-0.1,1.2c0-0.2-0.1-0.3-0.1-0.5C465.9,459.2,466,459.1,466.2,458.6z"/>
	<path d="M464.3,465.3c0.3-0.6,0.5-1.3,0.8-1.9l-0.1-0.1C464.8,463.9,465,464.8,464.3,465.3L464.3,465.3z"/>
	<path d="M464.2,465.2c0,0.3-0.1,0.6-0.1,0.4C464,465.8,464.1,465.5,464.2,465.2L464.2,465.2z"/>
	<path d="M463,469.1c0-0.2,0-0.4,0-0.6c0-0.1,0-0.2,0-0.3c0.1,0.1,0.2,0.2,0.2,0.3C463.2,468.6,463,468.8,463,469.1L463,469.1z"/>
	<path d="M464.2,526.3c0.2,0.1,0.4,0.2,0.5,0.4c0.1,0.1-0.1,0.3-0.2,0.5c0-0.1-0.1-0.2-0.1-0.3C464.4,526.6,464.3,526.4,464.2,526.3
		L464.2,526.3z"/>
	<path d="M464.3,526.2c-0.2-0.5-0.5-0.9-0.7-1.4l-0.1,0.1C464.2,525.1,464.2,525.7,464.3,526.2L464.3,526.2z"/>
	<path d="M459.3,517c-0.2-0.5-0.4-1-0.6-1.5l-0.1,0.1C459.4,515.9,459.3,516.5,459.3,517L459.3,517z"/>
	<path d="M455.1,471.7c-0.1,0.2-0.2,0.5-0.1,0.3C454.8,472.2,455,472,455.1,471.7L455.1,471.7z"/>
	<path d="M463.6,524.7c-0.6-0.3-0.7-0.8-0.7-1.4l-0.1,0.1C463.5,523.6,463.5,524.3,463.6,524.7L463.6,524.7z"/>
	<path d="M455.2,471.8c0.2-0.5,0.5-1,0.7-1.6l-0.1-0.1C455.5,470.7,455.3,471.2,455.2,471.8L455.2,471.8z"/>
	<path d="M462.2,521.9c0.2,0.5,0.4,1,0.6,1.5l0.1-0.1C462.2,523,462.2,522.4,462.2,521.9L462.2,521.9z"/>
	<path d="M465.1,463.3c0.1-0.3,0.1-0.6,0.1-0.4C465.2,462.8,465.1,463,465.1,463.3L465.1,463.3z"/>
	<polygon points="299.5,528.2 299.4,528.1 299.5,528.3 	"/>
	<polygon points="299.5,528.3 299.6,528.4 299.5,528.2 	"/>
	<path d="M458.7,515.6c-0.1-0.1-0.2-0.1-0.3-0.2C458.4,515.5,458.5,515.5,458.7,515.6L458.7,515.6z"/>
	<polygon points="454.5,509.8 454.3,509.8 454.4,509.9 	"/>
	<path d="M560.4,382c0.4,0.1,1,0.1,1.2,0.4c1.9,2.5,3.8,5,5.7,7.6c0.1,0.2,0,0.6,0,1.1c-0.4-0.1-0.8,0-1-0.1
		c-2.5-2.4-4.4-5.1-5.8-8.3C560.4,382.4,560.5,382.1,560.4,382L560.4,382z"/>
	<path d="M647.8,368.9c0.8-1.6,2.5-1.8,4-2.1c1.2-0.3,2.5-0.4,3.6,0.9c-0.3,0.3-0.5,0.8-0.9,0.9c-1.8,0.5-3.6,0.9-5.4,1.2
		C648.6,369.9,648,369.6,647.8,368.9z"/>
	<path d="M578.5,403.1c-0.4-1.4-0.6-2.7,0.4-4.1c1.3,1.3,1.2,2.6,0.6,3.9C579.4,403.1,578.9,403,578.5,403.1z"/>
	<path d="M636.3,367.2c2-0.4,3.7,0.2,5.8,0.7C637.9,368.5,637.9,368.5,636.3,367.2z"/>
	<path d="M545.5,340.3c2-0.2,3.1,1.2,4.2,2.6c0.1,0.1-0.2,0.4-0.4,0.7C547.7,342.9,546.4,341.9,545.5,340.3L545.5,340.3z"/>
	<path d="M642,374.9c1.2,1.4,1.3,2.6,1.2,4C641.9,377.7,641.9,377.7,642,374.9z"/>
	<path d="M579.4,392.1c0,0.7,0,1.5,0,2.4C578,393.5,578,393.5,579.4,392.1z"/>
	<path d="M550,367.2c0.8-0.2,1.1-0.3,1.4-0.3c0.3,0,0.6,0.3,0.8,0.5c0.1,0.1-0.1,0.5-0.2,0.6c-0.3,0.1-0.6,0.2-0.9,0.1
		C550.8,368,550.6,367.7,550,367.2z"/>
	<path d="M544.9,339.4c-0.9-0.3-1.6-0.8-1.9-1.7C544.1,338,544.1,338,544.9,339.4L544.9,339.4z"/>
	<path d="M578.3,386c0.2,0.2,0.5,0.4,0.5,0.5c-0.1,0.3-0.2,0.5-0.4,0.7c-0.1-0.1-0.2-0.2-0.2-0.2C578.2,386.7,578.3,386.4,578.3,386
		z"/>
	<path d="M560.5,381.9c-0.1,0-0.1-0.1-0.2-0.1C560.3,381.9,560.4,381.9,560.5,381.9L560.5,381.9z"/>
	<path d="M545.6,340.2c-0.2-0.3-0.5-0.5-0.7-0.8l-0.1,0.1C545,339.8,545.3,340,545.6,340.2L545.6,340.2z"/>
	<path d="M553.5,520.6c0-0.8,0.6-1.2,1.2-1.6c3.4-2.8,6.8-5.7,9.6-9.2c0.1-0.1,0.2-0.2,0.3-0.2c0.4-0.1,1-0.4,1.3-0.3
		c0.6,0.3,0.6,1,0.4,1.5c-0.3,0.7-0.7,1.5-1.3,2.1c-1.5,1.5-2.9,3-4.6,4.3C558.2,518.6,556,520.1,553.5,520.6L553.5,520.6z"/>
	<path d="M505.4,499.6c-0.9-1.6-2.9-0.9-4-2.2c0.2-0.3,0.3-0.7,0.6-0.8c2-0.7,4.2,0,5.3,1.7c1,1.5,0.7,3.7-0.8,5.1
		c-0.4,0.3-1.1,0.6-1.5,0.5c-0.4-0.1-0.9-0.8-1-1.3C503.6,501.2,503.9,500.1,505.4,499.6z"/>
	<path d="M507.6,471.8c3.1,0,5.6,0.8,8,2.4c-0.4,0.2-0.6,0.4-0.8,0.4c-1.3-0.4-2.7-0.7-4-1.2C509.8,473,508.7,472.9,507.6,471.8z"/>
	<path d="M522.4,475.8c-1.4,0.2-2.8,0.2-4.1-0.7C520.4,474.6,520.4,474.6,522.4,475.8z"/>
	<path d="M541.2,524.6c1.3-1.2,2.8-1.3,4.5-0.8C544.2,524.1,542.7,524.4,541.2,524.6z"/>
	<path d="M532.9,526.9c1.2-1.2,2.8-1.4,4.6-1.4C535.4,526.7,535.4,526.7,532.9,526.9L532.9,526.9z"/>
	<path d="M497.8,525.4c-1,1.4-2.1,0.9-3.1,0.2C495.7,525.5,496.7,525.5,497.8,525.4z"/>
	<path d="M535.7,480.2c-0.4,0-0.8-0.1-1.4-0.1C535.1,479.4,535.5,479.5,535.7,480.2L535.7,480.2z"/>
	<path d="M553.4,520.5c-0.2,0.1-0.4,0.3-0.2,0.1C552.9,520.7,553.2,520.6,553.4,520.5L553.4,520.5z"/>
	<path d="M535.7,480.2c0.2,0.1,0.3,0.2,0.5,0.2C535.7,480.8,535.7,480.5,535.7,480.2L535.7,480.2z"/>
	<path d="M532.8,526.8c-0.1,0.2-0.2,0.3-0.2,0.5C532.2,526.8,532.7,526.9,532.8,526.8L532.8,526.8z"/>
	<path d="M478,571.2c-1,1.4-2,1.4-3,1.1c-0.9-0.2-1.8-0.6-2.2-1.6c-0.3-0.7-0.1-1.4,0.8-1.9C474.9,569.5,476.3,570.3,478,571.2z"/>
	<path d="M601,537.6c-1.2,1.2-2.3,1.4-3.6,0.8c-0.2-0.1-0.4-0.5-0.5-0.8c0-0.2,0.2-0.5,0.4-0.5C598.5,536.5,599.7,536.6,601,537.6z"
		/>
	<path d="M583.8,557.7c-1.7,1.3-1.7,1.3-4.1,0.1c0.8-0.9,1.8-1,2.7-0.9C582.8,556.9,583.2,557.4,583.8,557.7z"/>
	<path d="M482.3,581c-0.9,0-1.7,0-2.6,0c0.1-0.4,0.1-0.7,0.1-0.7c0.7,0,1.5,0,2.2,0C482.2,580.3,482.2,580.7,482.3,581z"/>
	<path d="M653.9,501.9c0.9-1.3,1.7-2.2,3.2-2.7C656.6,501,656.4,501.2,653.9,501.9z"/>
	<path d="M487.9,572.1c-1.3,0.6-2.3,0.2-3.7-0.3C486.4,571.2,486.4,571.2,487.9,572.1z"/>
	<path d="M575.5,557.5c0.7,0,1.3,0,2,0c0,0.1,0,0.1,0,0.2c-0.7,0-1.4,0-2,0C575.4,557.7,575.5,557.6,575.5,557.5z"/>
	<path d="M605.3,537.7c-0.3-0.3-0.5-0.5-0.7-0.8c0.3-0.2,0.5-0.4,0.8-0.5c0.1,0,0.5,0.3,0.5,0.4
		C605.8,537.1,605.6,537.3,605.3,537.7z"/>
	<path d="M493,578.5c-0.1,0.2-0.2,0.4-0.4,0.5c-0.2,0.1-0.4-0.1-0.6-0.1c0.1-0.2,0.3-0.4,0.4-0.5C492.6,578.3,492.9,578.5,493,578.5
		z"/>
	<path d="M480.3,571.1c0,0,0.1-0.1,0.1-0.1c0.1,0.1,0.1,0.1,0.2,0.2C480.5,571.1,480.4,571.1,480.3,571.1z"/>
	<path d="M562.8,470.6c1.9,1,3.3,2.4,4.9,3.5c1.7,1.3,3.4,2.6,5.1,3.7c2.3,1.5,4.8,2.4,7.6,2.5c1.2,0,2.3,0.3,3.5,0.6
		c0.3,0.1,0.8,0.6,0.8,1c0,0.4-0.3,0.9-0.7,1.1c-0.5,0.3-1.1,0.4-1.7,0.5c-6.7,0.5-12.2-1.9-16.9-6.5c-1.4-1.4-2.3-3.2-2.9-5.2
		C562.5,471.5,562.7,471.2,562.8,470.6z"/>
	<path d="M578,506.7c1.1,2.2,1.5,4,2.1,5.7c-1.4,0.2-1.7-0.5-2-1.1C577.4,509.7,577.4,509.4,578,506.7z"/>
	<path d="M557.7,459.4c1.3,1.4,1.6,2.8,2,4.1c0.1,0.3-0.3,0.7-0.5,1.1c-0.4-0.2-1-0.3-1.1-0.6C557.4,462.7,556.7,461.3,557.7,459.4z
		"/>
	<path d="M558.9,450.3c0.4,2.1,1.3,3.4,0.2,4.9C557.7,453.4,557.7,453,558.9,450.3z"/>
	<path d="M578.6,495.3c0.1,0.7,0.1,1.4,0.2,2.3C577.5,497,577.5,497,578.6,495.3z"/>
	<path d="M590.1,480.5c-0.1,0.2-0.1,0.5-0.2,0.6c-0.4,0.4-1,0.6-1.5,0.2c-0.1-0.1-0.3-0.4-0.2-0.6c0.2-0.7,0.9-0.9,1.7-0.5
		C589.9,480.4,590,480.4,590.1,480.5z"/>
	<path d="M578.5,505.2c-0.4-0.6-0.7-0.9-0.7-1.3c0-0.2,0.4-0.4,0.6-0.7c0.2,0.2,0.5,0.4,0.5,0.7
		C578.8,504.2,578.7,504.5,578.5,505.2z"/>
	<path d="M570.4,425c-0.4,0.4-0.7,0.8-1.2,1.4C569.2,425.3,569.2,425.3,570.4,425L570.4,425z"/>
	<path d="M658.8,472.4c-1.8,0.5-3.5,0-4.9-1.2c-3.4-2.7-6.6-5.6-9.2-9.1c-0.1-0.1,0-0.4,0-0.8c0.5,0.2,0.9,0.2,1.3,0.4
		c2.1,1.1,4,2.4,5.7,4c1.9,1.7,3.7,3.6,6.1,4.7c0.9,0.4,0.9,1.3,0.9,2.1L658.8,472.4z"/>
	<path d="M651.5,478.1c-0.8,0.2-1.2,0.5-1.4,0.4c-0.8-0.4-1.7-0.7-2.5-1.3c-3-2.4-5.9-4.9-8.8-7.5c-0.9-0.8-1.6-1.7-2.3-2.6
		c-0.2-0.2-0.2-0.9,0-0.9c0.4-0.2,0.8-0.2,1.2-0.2c0.2,0,0.4,0.2,0.6,0.4C642.5,470.1,646.8,473.9,651.5,478.1z"/>
	<path d="M628.4,458.8c1.6,1.5,2.8,2.6,4.7,4.4c-1.2-0.2-1.6-0.2-1.9-0.4c-0.8-0.4-1.5-1.1-2.4-1.4c-0.7-0.3-1.5-0.3-2.4-0.4
		c-0.6-2.3-0.5-4.5,0-6.7c0-0.3,0.5-0.7,0.7-0.6c0.4,0.1,0.9,0.4,1,0.8C628.2,455.9,628.3,457.4,628.4,458.8z"/>
	<path d="M639.7,444.9c-0.1-3.1,1.1-5.7,2.7-8.1c1-0.1,1.1,0.5,1.1,1.1c0,0.1,0,0.2-0.1,0.3C642.3,440.5,641.4,442.9,639.7,444.9
		L639.7,444.9z"/>
	<path d="M638.1,455.9c-1.4,0.3-2-0.3-2.4-1.1C636.6,454.2,636.6,454.2,638.1,455.9z"/>
	<path d="M629.5,429.6c-0.8,0-1.4,0-2.1,0C628.3,429,628.3,429,629.5,429.6z"/>
	<path d="M638.9,445.5c0.3,1.1-0.7,1.6-0.9,2.9C637.4,446.5,637.4,446.5,638.9,445.5L638.9,445.5z"/>
	<path d="M639.6,444.8c-0.1,0.4-0.2,0.7-0.7,0.7l0.1,0.1C639,445.1,639.2,444.8,639.6,444.8L639.6,444.8z"/>
	<polygon points="641.1,458.8 640.9,458.8 641,458.9 	"/>
	<path d="M641,458.9C641.3,459.1,641.1,458.8,641,458.9L641,458.9z"/>
	<path d="M666.5,397.5c-0.2-0.6-0.6-1.3-0.7-1.9c-0.2-0.6-0.1-1.3-0.2-1.9c-1.3-0.9-3.7,0.6-3.9-2.2c1.4-0.9,2.9,0.2,4.3,0
		c0.3-0.7-0.2-0.8-0.6-1c-1-0.3-1.9-0.7-3.1-1c0.5-0.2,0.7-0.4,0.9-0.4c4.3,0.4,7.8,3.3,8.9,7.3c0.2,0.7,0.3,1.4,0.2,2.1
		c0,0.4-0.3,0.9-0.7,1.1c-0.7,0.3-1-0.3-1.3-0.8c-0.1-0.2-0.2-0.4-0.5-0.7c-0.6,0-1.3,0.1-1.9,0c-0.6-0.1-1.1-0.3-1.7-0.5
		L666.5,397.5z"/>
	<path d="M687.8,412.3c-0.7-1.3-2.5-1.9-2.2-3.6c-1-1-2.8,0.3-3.4-1.5c0.3-0.2,0.5-0.5,0.8-0.5c1.3-0.3,2.5-0.4,3.8-0.7
		c1.2-0.3,2.3-0.2,3.3,0.5c2.3,1.6,4,3.5,5.4,5.9c0.1,0.1-0.1,0.4-0.2,0.8c-1.4-1.2-2-3.1-4-4.2c0.5,2.3,2.2,3.7,2.6,5.6
		c-0.3,0.5-0.8,0.5-1.1,0.1c-0.7-0.9-1.4-1.9-2.1-2.9c-1,0.1-2,0.3-3,0.4L687.8,412.3z"/>
	<path d="M653.9,418.4c1.2,0.5,1.7,0.6,2,0.9c0.9,0.8,1.9,1.3,3.1,1.6c2.6,0.5,4.4,2.1,6.2,3.9c0.1,0.1,0.2,0.2,0.2,0.3
		c0.9,1.1,1.8,2.2,2.8,3.2c1,1,2.1,1.8,3.1,2.6c-0.1,0.7-0.6,0.8-1,0.7c-1-0.4-1.9-0.9-2.8-1.5c-3.4-2.5-6.8-5-10.2-7.5
		C656.1,421.5,654.8,420.6,653.9,418.4z"/>
	<path d="M699.9,409.6c-0.1,0-0.2-0.1-0.3-0.1c-3.4-3.9-7.9-6.2-12.5-8.4c-0.6-0.3-1.2-0.7-1.8-1c-0.2-0.1-0.2-0.4-0.4-0.8
		c0.4-0.1,0.8-0.3,1.2-0.3c0.6,0.1,1.2,0.2,1.7,0.5c4.1,2.1,8,4.5,11.1,7.9c0.5,0.6,0.9,1.3,1.4,2
		C700.1,409.3,700,409.5,699.9,409.6z"/>
	<path d="M666.5,432.6c-4.6,1.1-7.5-1.1-10.2-3.9c-1-1.1-1.8-2.5-2.6-3.7c-0.2-0.4-0.5-0.8,0.1-1.3c0.2,0.1,0.6,0.2,0.8,0.5
		c2,2.9,4.7,4.8,7.7,6.5c0.9,0.5,2,0.6,3,1C665.7,431.8,666,432.1,666.5,432.6z"/>
	<path d="M666.1,384.3c2.2-0.6,3.7,0.6,5.2,1.6c2.1,1.4,3.9,3.4,5.3,5.6c0.5,0.8,1.3,1.7,0.8,2.9c0,0.1-0.2,0.1-0.5,0.3
		c-0.9-0.8-1.2-2.1-2.1-3.1c-0.8-1-1.7-2-2.6-2.9c-0.9-0.9-1.9-1.8-2.9-2.6C668.3,385.4,667.2,384.9,666.1,384.3z"/>
	<path d="M710,388.4c1.7-1,3.3-2.1,5.7-2.4c-0.8,1.1-1.6,1.7-1.9,2.6c-0.5,1.2-1.3,1.6-2.4,1.8C711,389.7,710.6,389.1,710,388.4z"/>
	<path d="M673,421.2c1-1.4,1.6-2.2,2.3-3.2c0.6,1.6-0.2,2.4-1,3.2c-0.6,0.5-1.6,0.5-2.2,0c-0.9-0.8-2.3-1.3-2.4-2.8
		c1.6-0.5,1.9-0.4,2.5,0.7C672.4,419.4,672.6,420,673,421.2z"/>
	<path d="M666.8,417c-0.7-0.4-1.3-0.8-1.9-1.2c0.1-0.9,0.5-1.3,1.2-1.1C666.9,414.9,667,415.5,666.8,417z"/>
	<path d="M703.5,406.5c-0.3,0.6-0.6,1.1-0.9,1.7c-0.1,0.1-0.5,0.2-0.5,0.1c-0.1-0.1-0.3-0.5-0.2-0.6c0.3-0.6,0.7-1.1,1-1.6
		C703.1,406.3,703.3,406.4,703.5,406.5z"/>
	<path d="M684.8,401.9c-1.4,1.2-1.4,1.2-3.2,1.5C682.5,402.6,683.4,401.9,684.8,401.9z"/>
	<path d="M666.4,397.4c0.5,0.6,1,1.2,1.5,1.9c-1.9-0.1-1.9-0.1-2.7-1.8l-0.1,0.1c0.5,0,0.9,0,1.4,0L666.4,397.4z"/>
	<path d="M674.1,399.2c0,0.4-0.1,0.9-0.2,1.3c0,0.1-0.4,0.3-0.5,0.2c-0.1-0.1-0.3-0.4-0.3-0.5c0.1-0.4,0.4-0.7,0.6-1.1
		C673.9,399.2,674,399.2,674.1,399.2z"/>
	<path d="M664.2,411.9c0.4-0.8,1-1.1,1.9-0.8C665.6,411.8,665.1,412.4,664.2,411.9z"/>
	<path d="M671.4,415.9c-0.3,0.1-0.5,0.3-0.8,0.3c-0.1,0-0.2-0.3-0.3-0.5c0.3-0.1,0.5-0.3,0.8-0.4
		C671.1,415.3,671.2,415.6,671.4,415.9z"/>
	<path d="M676.2,368.3c0,0.4,0,0.8,0,1.1c-0.1,0-0.1,0-0.2,0c0-0.4,0-0.8,0-1.1C676,368.3,676.1,368.3,676.2,368.3z"/>
	<path d="M687.7,412.2c-0.1,0.4-0.1,0.8-0.2,1.8c-0.5-0.6-0.7-0.9-1.1-1.3c0.7-0.2,1.1-0.3,1.4-0.3L687.7,412.2z"/>
	<path d="M663.3,413.4c0.1,0,0.2,0.1,0.2,0.1c0.1,0.3,0.1,0.6,0.1,0.9c0,0-0.3,0.1-0.5,0.1c0-0.3-0.1-0.6-0.1-0.9
		C663.1,413.6,663.2,413.5,663.3,413.4z"/>
	<path d="M672.5,372.9c-0.1-0.1-0.2-0.2-0.2-0.2c0.1-0.2,0.1-0.3,0.2-0.5c0.1,0.1,0.3,0.1,0.2,0.2
		C672.7,372.5,672.6,372.7,672.5,372.9z"/>
	<path d="M678.2,368.2c0.1,0.2,0.1,0.4,0.2,0.5c0,0.1-0.1,0.1-0.2,0.2c-0.1-0.1-0.2-0.2-0.2-0.2
		C678.1,368.5,678.2,368.4,678.2,368.2z"/>
	<path d="M665.2,397.4c-0.1,0-0.2,0-0.3,0C665,397.4,665,397.5,665.2,397.4L665.2,397.4z"/>
	<path d="M711.1,399.6c0.2-0.2,0.5-0.5,0.7-0.7l-0.1-0.1C711.5,399,711.3,399.3,711.1,399.6L711.1,399.6z"/>
	<polygon points="711,399.5 711,399.7 711.1,399.6 	"/>
	<path d="M678.6,405.9c0.1-0.1,0.2-0.2,0.3-0.3c0,0.1-0.1,0.2-0.1,0.2C678.7,405.9,678.6,405.8,678.6,405.9L678.6,405.9z"/>
	<path d="M678.5,405.9c0,0.1,0,0.2,0,0.3C678.5,406.1,678.5,406,678.5,405.9L678.5,405.9z"/>
	<path d="M196.6,549.4c-0.4-0.6-0.8-0.9-0.9-1.3c-0.9-5.2-1-10.5-0.6-15.8c0.1-1.3,0.6-2.5,1-3.7c0.3-0.8,1.2-1.2,2-1
		c0.8,0.2,1.3,0.9,1.3,1.8c0,0.2,0,0.5-0.1,0.7c-1,3.9-0.8,7.9-1,11.9c-0.1,2-0.4,4-0.7,5.9C197.6,548.4,197.1,548.8,196.6,549.4z"
		/>
	<path d="M190.4,546.4c-0.4-0.3-0.8-0.4-0.9-0.7c-0.3-0.8-0.6-1.6-0.7-2.4c-0.3-3.9-0.6-7.7-0.8-11.6c0-0.7,0.2-1.4,0.4-2
		c0.3-0.7,1-1,1.7-1c0.8,0,1.4,0.5,1.6,1.2c0.2,0.5,0.3,1.1,0.3,1.7c0,3.2,0,6.3-0.1,9.5c-0.1,1.4-0.4,2.8-0.7,4.1
		C191.1,545.6,190.7,546,190.4,546.4z"/>
	<path d="M201.1,539.5c0-2.8,0.5-5.4,1.1-8c0.2-0.8,0.6-1.5,1.1-2.1c0.2-0.3,0.9-0.4,1.3-0.3c0.4,0.1,0.9,0.6,0.9,0.9
		c0.1,0.8,0.1,1.6-0.1,2.4c-0.9,5-1.5,10-0.8,15c0.2,1.4-0.3,2.4-0.9,2.3c-1.1-0.1-1.2-1.1-1.4-1.8
		C201.8,545.1,201.5,542.3,201.1,539.5z"/>
	<path d="M178.7,535.2c-0.3,2.4-0.5,4.9-0.8,7.3c0,0.3-0.2,0.7-0.3,1c-0.2,0.5-1.2,0.6-1.5,0.1c-0.3-0.5-0.6-1-0.8-1.5
		c-0.9-2.8-1.1-5.7-0.8-8.7c0-0.6,0.2-1.2,0.4-1.7c0.4-1,1.2-1.5,2.2-1.4c0.8,0.1,1.5,0.8,1.5,1.7c0.1,1,0,2.1,0,3.1
		C178.6,535.2,178.6,535.2,178.7,535.2z"/>
	<path d="M184.3,545.6c-0.5-1.1-0.9-1.6-1-2.2c-0.6-3.2-1.1-6.5-1.1-9.8c0-0.6,0.1-1.2,0.3-1.7c0.2-0.7,0.8-1.2,1.5-1.3
		c0.7-0.1,1.7,0.6,1.8,1.4c0.2,2,0.5,4,0.4,6c0,1.9-0.4,3.7-0.7,5.6C185.4,544.1,184.9,544.6,184.3,545.6z"/>
	<path d="M201.2,504.3c-0.3-3,0.5-6.2,1.6-9.3c0.3-0.9,0.8-1.7,1.4-2.4c0.5-0.5,1.3-0.7,1.9-0.2c0.4,0.3,0.8,0.9,0.8,1.4
		c0,0.9-0.2,1.9-0.5,2.7c-2.2,6-2.5,12.1-1.2,18.4c0.3,1.4,0,2.4-0.7,2.4c-1.2,0-1.4-1.1-1.7-1.9
		C201.7,511.9,201.1,508.3,201.2,504.3z"/>
	<path d="M197.1,515c-0.4-0.5-0.6-0.7-0.8-1c-1.9-4.2-3-8.6-2.8-13.3c0.1-1.6,0.5-3,1.6-4.2c0.5-0.5,1.2-0.8,1.8-0.9
		c1.2-0.2,2.3,1,2,2.2c0,0.1,0,0.2-0.1,0.3c-1.7,3.1-1.1,6.4-0.8,9.6c0.1,1.8,0.2,3.5,0.2,5.3c0,0.4-0.2,0.9-0.4,1.3
		C197.9,514.5,197.6,514.6,197.1,515z"/>
	<path d="M190.7,504.7c0,1.6,0,3.3,0,4.9c0,0.6,0,1.2-0.1,1.7c-0.1,0.4-0.4,0.9-0.8,1c-0.3,0.1-0.8-0.3-1.1-0.5
		c-0.3-0.2-0.4-0.6-0.5-0.9c-1.7-4.2-1.9-8.6-1.6-13.1c0-0.5,0.4-1.1,0.7-1.5c0.7-0.9,2.2-0.8,2.7,0.2c0.4,0.7,0.6,1.5,0.7,2.3
		C190.7,500.7,190.6,502.7,190.7,504.7C190.6,504.7,190.7,504.7,190.7,504.7z"/>
	<path d="M183.3,512.5c-0.9-0.9-1.4-1.2-1.6-1.7c-1.5-3.6-1.8-7.5-1.6-11.4c0-0.2,0.1-0.5,0.2-0.7c0.3-0.9,1.3-1.7,2.1-1.5
		c0.7,0.1,1.5,0.8,1.7,1.6c0.1,0.2,0.1,0.5,0.1,0.7C184.3,503.6,184.2,507.7,183.3,512.5z"/>
	<path d="M176.3,510.4c-0.5-0.4-1.2-0.6-1.4-1c-1.2-2.4-1.6-4.9-1.1-7.5c0.1-0.8,0.6-1.5,1.1-2.1c0.5-0.6,1.2-0.7,1.9-0.4
		c0.6,0.3,1,1,0.7,1.8c-0.9,2.6-1.1,5.3-0.9,8C176.6,509.4,176.4,509.8,176.3,510.4z"/>
	<path d="M715.4,375c0-0.1,0-0.2,0-0.3C715.4,374.8,715.3,374.8,715.4,375L715.4,375z"/>
	<path d="M709,376.4c0-0.1,0-0.2,0.1-0.3C709,376.2,709,376.2,709,376.4L709,376.4z"/>
	<path d="M450.4,201.7c3.1,2.4,4.7,5.9,6.7,9.7c0-3.2-0.9-5.6-1.6-8c-0.7-2.3-1.6-4.6-2.1-7.1c0.3,0.4,0.8,0.7,1,1.2
		c0.7,1.6,1.5,3.2,1.9,4.9c1.3,5.1,2.4,10.3,3.6,15.5c0,0.2,0,0.5-0.1,0.7c-0.3-0.1-0.6-0.1-0.9-0.2c-0.2,0.5-0.5,1-0.7,1.5
		c-0.2-0.1-0.6-0.2-0.6-0.4c-0.6-5.3-3-9.9-5.4-14.5C451.7,203.9,451,202.8,450.4,201.7z"/>
	<path d="M317.8,239.4c-0.7,0.3-1.3,0.9-1.9,0.9c-5.2,0.2-15.4,0.4-22-1.6c0.7-0.3,1.2-0.6,1.7-0.6c1.8-0.1,3.5-0.2,5.3-0.2
		c4.8,0.1,9.6,0.2,14.4,0.4C316.1,238.3,317,238.1,317.8,239.4z"/>
	<path d="M455.1,155.7c0.2-1.2,0.4-2.5,0.8-3.7c0.8-2.2,1.4-4.5,1.4-6.8c0.1-3.3,0.1-6.6,0.1-9.8c0-3.8-1.1-7.4-2-11
		c-0.6-2.2-1.6-4.4-1.7-6.8l-0.1,0.1c1.3,1.2,1.6,2.8,2,4.4c2,6.8,3.2,13.7,2.7,20.7c-0.3,3.8-0.9,7.7-1.4,11.5
		c-0.1,0.6-0.4,1.1-0.7,1.8C455.9,155.8,455.4,155.7,455.1,155.7L455.1,155.7z"/>
	<path d="M456.4,189.3c-7-0.6-13.3-2.3-19.6-4.2c-0.3-0.1-0.4-0.5-0.6-0.8c0.3-0.1,0.5-0.4,0.6-0.4c6.2,1.5,12.3,3,18.5,4.5
		C455.5,188.5,455.7,188.8,456.4,189.3z"/>
	<path d="M328.3,209c-0.3,0.5-0.3,0.8-0.5,0.9c-3.9,1.6-7.8,3.1-11.8,4.6c-0.2,0.1-0.4-0.1-0.6-0.2c2-2.1,4.3-3.3,9.7-5.2
		C326.5,208.7,326.5,208.7,328.3,209z"/>
	<path d="M362.4,252.5c-2.5,0.2-4.2-0.3-5.9-1.2c-0.3-0.2-0.6-0.4-0.8-0.7c-0.2-0.3-0.2-0.7-0.2-1c0.1-0.3,0.4-0.7,0.7-0.7
		c0.8,0,1.7-0.1,2.4,0.2C360.1,249.8,361.2,250.8,362.4,252.5z"/>
	<path d="M352.8,226.2c-0.7-0.5-0.8-1-0.4-1.4c0.4-0.5,0.9-1,1.5-1.5c0.8-0.7,1.6-1.3,2.4-1.9c0.8,0.5,0.6,1.1,0.3,1.6
		C355.6,224.5,354.4,225.6,352.8,226.2z"/>
	<path d="M224.7,186.2c2.2-0.7,4.3-0.2,6.3-0.1c1,0,2,0.1,3,0.9C231.6,187.9,228,187.5,224.7,186.2z"/>
	<path d="M439.5,191.7c0.1,0,0.3-0.1,0.3,0c3,1.8,5.1,4.4,7.4,7.1c-0.8,0.3-1-0.2-1.3-0.5c-1.9-1.8-3.9-3.7-5.8-5.5
		C439.9,192.5,439.8,192.1,439.5,191.7L439.5,191.7z"/>
	<path d="M471.2,189.9c-1.5,0.7-2.7-0.5-4-0.6c-1.2-0.1-2.5-0.4-4.1-0.7C467.6,187.9,469.4,188.2,471.2,189.9z"/>
	<path d="M465.3,144.1c0-3.4,0-6.7,0-10.1c0.1,0,0.1,0,0.2,0c0,3.4,0,6.7,0,10.1C465.4,144.1,465.3,144.1,465.3,144.1z"/>
	<path d="M292,238.8c-1.5,0.4-3.1,0.7-4.8,0C288.7,237.6,289.5,237.6,292,238.8z"/>
	<path d="M238.3,187.6c1.7-1,2.7-1,3.8-0.2C240.8,188.1,240.8,188.1,238.3,187.6z"/>
	<path d="M277.2,236.4c1.2-0.5,2.4-0.6,3.6,0.1c-0.3,1.2-1.2,1.1-2,1.1C278,237.6,277.3,237.5,277.2,236.4z"/>
	<path d="M458.6,159.9c-1.1,2.7-1.5,3.1-3.2,3.1c0-0.2,0-0.6,0.1-0.6C456.8,161.9,457.2,160.2,458.6,159.9L458.6,159.9z"/>
	<path d="M308.5,214.6c1.6-0.7,3-0.5,4.8-0.2C311.2,215.5,311,215.5,308.5,214.6z"/>
	<path d="M302.5,215.2c0.9-1,1.6-0.9,2.4-0.3C304.1,215.7,304.1,215.7,302.5,215.2z"/>
	<path d="M460.1,157.8c0.1-1.3,0.9-2.2,1.7-3C461.4,155.9,461.3,157.2,460.1,157.8L460.1,157.8z"/>
	<path d="M439.6,191.7c-1.2,0-1.8-0.7-2.2-1.7C438.3,190.3,439.3,190.5,439.6,191.7L439.6,191.7z"/>
	<path d="M366.3,254.2c0.4,0.1,0.8,0.1,1.1,0.3c0.3,0.1,0.5,0.3,0.9,0.6c-0.8,0.7-1.4,0.6-2.1,0.1
		C366.1,255,366.3,254.5,366.3,254.2z"/>
	<path d="M374.6,256.8c-1.4-0.4-2.3-0.7-3.2-0.9c0.2-0.3,0.3-0.5,0.4-0.5C372.8,255.3,373.7,255.2,374.6,256.8z"/>
	<path d="M458.6,159.9c0-1,0.5-1.7,1.4-2.1l-0.1-0.1C460.1,158.8,459.7,159.5,458.6,159.9L458.6,159.9z"/>
	<path d="M270,235.2c0.1-0.3,0.2-0.6,0.3-0.6c0.3,0,0.6,0.1,0.9,0.2c-0.1,0.3-0.2,0.6-0.3,0.8C270.6,235.4,270.3,235.3,270,235.2z"
		/>
	<path d="M463.5,213.8c0.2,0.5,0.5,1.1,0.7,1.6c-0.1,0-0.2,0.1-0.3,0.1C463.8,214.9,463.7,214.3,463.5,213.8L463.5,213.8z"/>
	<path d="M252,188.3c0.6,0,1.3,0,1.9,0c0,0.1,0,0.2,0,0.4c-0.6,0-1.3,0.1-1.9,0.1C252,188.6,252,188.5,252,188.3z"/>
	<path d="M247.6,187.9c-0.4,0-0.8,0-1.2,0c0-0.1,0-0.2,0-0.3c0.4,0,0.8,0,1.2,0C247.6,187.7,247.6,187.8,247.6,187.9z"/>
	<path d="M464.5,147.6c0.1-0.6,0.1-0.9,0.1-1.1c0,0.2,0.1,0.3,0.1,0.5C464.8,147,464.7,147.1,464.5,147.6z"/>
	<path d="M359,217.9c-0.2,0.2-0.4,0.5-0.6,0.6c-0.1,0-0.4-0.3-0.4-0.3c0.1-0.2,0.2-0.4,0.4-0.5C358.4,217.6,358.7,217.7,359,217.9z"
		/>
	<path d="M361,215.1c-0.3,0.1-0.5,0.2-0.8,0.3c0-0.2-0.1-0.4,0-0.6c0.1-0.2,0.3-0.3,0.5-0.4C360.8,214.6,360.9,214.8,361,215.1z"/>
	<path d="M453.7,158.5c0.3-0.4,0.5-0.8,0.8-1.3l-0.1-0.1C454.1,157.5,453.9,158,453.7,158.5L453.7,158.5z"/>
	<path d="M458.1,202.2c-0.2-0.1-0.5-0.3-0.7-0.4c0,0,0.1-0.2,0.1-0.3c0.1,0.1,0.2,0.1,0.2,0.2C457.8,201.8,457.9,202,458.1,202.2
		L458.1,202.2z"/>
	<path d="M458.8,203.6c-1-0.1-0.7-0.8-0.7-1.4l-0.1,0.1C458.2,202.7,458.4,203.2,458.8,203.6L458.8,203.6z"/>
	<path d="M462.7,212.4c0.9,0.1,0.6,0.9,0.7,1.4l0.1-0.1C463.3,213.2,463.1,212.8,462.7,212.4L462.7,212.4z"/>
	<path d="M462.8,212.3c-0.2-0.5-0.5-0.9-0.7-1.4L462,211C463,211.1,462.7,211.8,462.8,212.3L462.8,212.3z"/>
	<path d="M461.3,209.5c1,0.1,0.7,0.8,0.7,1.4l0.1-0.1C461.9,210.4,461.6,209.9,461.3,209.5L461.3,209.5z"/>
	<path d="M460.7,208.1c0.9,0.2,0.7,0.8,0.7,1.4l0.1-0.1C461.2,209,461,208.5,460.7,208.1L460.7,208.1z"/>
	<path d="M460.7,208c-0.2-0.5-0.5-0.9-0.7-1.4l-0.1,0.1C460.8,206.8,460.7,207.5,460.7,208L460.7,208z"/>
	<path d="M459.3,205.2c0.7,0.3,0.7,0.8,0.7,1.4l0.1-0.1C459.4,206.3,459.4,205.7,459.3,205.2L459.3,205.2z"/>
	<path d="M459.4,205.1c-0.8-0.3-0.8-0.9-0.6-1.5l-0.1,0.1C458.9,204.2,459.1,204.7,459.4,205.1L459.4,205.1z"/>
	<path d="M455,155.6c-0.2,0.5-0.4,1-0.7,1.5l0.1,0.1C454.6,156.7,454.4,156,455,155.6L455,155.6z"/>
	<path d="M462.9,152.2c-0.1,0.3-0.2,0.5-0.1,0.4C462.6,152.7,462.8,152.5,462.9,152.2L462.9,152.2z"/>
	<path d="M464,149.4c-0.1,0-0.1,0.1-0.2,0.1c0-0.1,0.1-0.3,0.1-0.4C464,149.2,464,149.3,464,149.4z"/>
	<path d="M463,152.3c0-0.3,0.1-0.6,0.1-0.4C463.1,151.7,463,151.9,463,152.3L463,152.3z"/>
	<path d="M453.6,158.4c0,0.1-0.1,0.2-0.1,0.2C453.6,158.6,453.7,158.5,453.6,158.4L453.6,158.4z"/>
	<path d="M453.8,117.4c-0.1,0-0.2-0.1-0.3-0.1C453.5,117.4,453.6,117.5,453.8,117.4L453.8,117.4z"/>
	<polygon points="298.5,214.5 298.5,214.7 298.4,214.7 	"/>
	<path d="M644.6,58.9c-0.1,0.7-0.1,1.3-0.2,1.8c-0.9,2.4-5.6,10.2-7.3,12.1c-0.1-0.5-0.4-0.9-0.3-1.3c0.1-0.7,0.2-1.4,0.5-2
		c1.9-3.5,3.9-7,6.5-10C643.8,59.2,644.1,59.2,644.6,58.9z"/>
	<path d="M620.9,106.1c0.3,0.6,0.6,0.9,0.7,1.3c0.1,0.2,0,0.5-0.2,0.7c-2.2,3.3-5,5.9-9.1,6.6c-0.2,0-0.4-0.1-0.8-0.2
		c1.4-1.7,3.2-2.7,4.8-4.1C617.9,109,619.3,107.6,620.9,106.1z"/>
	<path d="M706.8,97.8c-2.1-1.1-2.8-2.7-2.6-6.3C706.1,93.4,705.9,95.8,706.8,97.8z"/>
	<path d="M639.7,96c-0.6,1.4-1.9,1.6-2.9,2.3c-0.8-0.7-0.2-1.1,0.2-1.5C638.1,95.7,638.1,95.7,639.7,96z"/>
	<path d="M714,117c-1.7,0.4-1.7,0.4-2.8-0.1C712.3,116.1,712.3,116.1,714,117z"/>
	<path d="M632.3,101.4c0.9-1.6,1.5-2.3,2.9-2.1C634.8,100.6,633.9,100.8,632.3,101.4z"/>
	<path d="M677.4,35.9c0.1,0.2,0.3,0.3,0.3,0.5c0.1,0.5,0.3,1.1-0.4,1.4c-0.1,0-0.2,0-0.3-0.1c-0.6-0.4-0.4-1-0.2-1.5
		C677,36.1,677.2,36,677.4,35.9z"/>
	<path d="M646.9,55.1c-0.3-1.2,0.4-1.9,1.1-2.7C648.4,53.8,648.4,53.8,646.9,55.1z"/>
	<path d="M650.8,49.2c-0.4-0.9,0.1-1.2,0.5-1.6c0,0,0.2,0,0.3,0c0.1,0,0.2,0.2,0.2,0.2C651.5,48.3,651.2,48.7,650.8,49.2z"/>
	<path d="M655,44.5c-0.5,0.4-0.9,0.8-1.5,1.3C653.3,44.6,654,44.3,655,44.5z"/>
	<path d="M678.3,30.7c-0.1,0-0.1,0-0.2,0.1c0-0.1,0.1-0.2,0.1-0.4C678.3,30.5,678.3,30.6,678.3,30.7z"/>
	<path d="M708.9,114.6C709.2,114.3,708.9,114.5,708.9,114.6L708.9,114.6z"/>
	<path d="M708.9,114.5c-0.3,0.3-0.5,0.5-0.8,0.8l0.1,0.1C708.4,115.1,708.7,114.8,708.9,114.5L708.9,114.5z"/>
	<path d="M708.7,128.6c0.8-0.4,1.1,0.1,1.3,0.4c0.7,1.2,1.3,2.5,1.8,3.8c1.1,3,0.2,5.8-1.4,8.4c-0.2,0.3-0.4,0.6-0.7,0.7
		c-0.4,0.2-0.9,0.3-1.3,0.1c-0.5-0.2-0.6-0.7-0.3-1.2c0.1-0.3,0.2-0.7,0.3-1c-0.6-0.6-1.1-1.2-1.6-1.7c-0.4-1.9,0.1-3.3,1.6-4.5
		c-0.7-0.9-1.4-1.6-2.2-2.5c0.2-0.5,0.4-1.2,0.5-1.8c0.4,0.1,0.7,0.1,0.8,0.2c0.8,1,1.6,2,2.4,3c0.6-0.3,0.4-0.8,0.2-1.2
		C709.7,130.4,709.2,129.5,708.7,128.6z"/>
	<path d="M716.1,162.4c-1.3,2.5-0.8,4.8-2.5,6.5c-0.8-1.6,0-2.9,0.2-4.5c-0.2-0.2-0.5-0.6-0.9-0.8c-0.9-0.5-1.3-1.2-1.5-2.2
		c-0.2-1-0.1-1.8,0.6-2.6c0.1-0.2,0.2-0.4,0.4-0.7c-0.6-0.7-1.3-1.3-1.8-2.1c-0.1-0.2,0.1-0.7,0.3-1.4c1,0.7,1.7,1.3,2.5,1.8
		c0.7,0.4,1.5,0.7,2.1,1.2c0.5,0.4,1.1,1,1.2,1.6c0.9,3.1,1,6.2-0.3,9.6C715.5,166.7,716.8,164.9,716.1,162.4z"/>
	<path d="M682.6,144.2c0.4,0.5,0.8,0.9,0.8,1.2c0.1,1.2,0.5,2.3,1.2,3.3c1.6,2.2,1.9,4.8,1.8,7.4c0,1.1,0,2.1-0.1,3.2
		c-0.1,1.5-0.2,3,0.5,4.5c0.2,0.5-0.1,0.9-0.7,1c-1.1-0.6-1.2-1.7-1.4-2.7c-0.8-4.8-1.5-9.5-2.5-14.2
		C681.9,146.8,681.8,145.6,682.6,144.2z"/>
	<path d="M682.3,162.8c-4.4-2.5-5-6.1-5-10c0-1.6,0.5-3.2,0.8-4.8c0.1-0.3,0.3-0.6,0.6-1c1.2,1.9-0.3,3.6,0.4,5.3
		c0.7,1.5,0.5,3.5,0.9,5.1C680.5,159,681.3,160.5,682.3,162.8z"/>
	<path d="M722.2,169c-0.3-0.7-0.4-0.8-0.4-0.9c0.3-5-1.5-9.5-3.1-14c-0.3-0.8-0.5-1.6-0.7-2.3c0-0.2,0.1-0.4,0.2-0.6
		c0.5-0.4,0.8,0.1,1.1,0.4c0.1,0.1,0.2,0.2,0.2,0.3c2.3,4.9,3.4,10,3.3,15.3C722.8,167.6,722.5,168,722.2,169z"/>
	<path d="M715.4,142.3c1.4-5.1,1.5-10.1-0.7-15.2c0.6,0.2,1,0.2,1.1,0.4c2.5,4.6,2.7,9.3,1,14.2c-0.1,0.4-0.5,0.6-0.8,1
		C715.9,142.5,715.7,142.4,715.4,142.3z"/>
	<path d="M747.8,161.3c0.2,0.7,0.9,0.6,1.4,0.7c0.1,0.3,0.2,0.7,0.3,1.2c-1.3,0.2-2.7-0.5-3.9,0.5c-0.3,0.3-1.3-0.2-2.1-0.4
		c0.2-0.9,0.3-1.7,0.4-2.4C745.3,161,746.6,161.1,747.8,161.3z"/>
	<path d="M698.2,158.4c-1.5,1.4-2,1.6-2.9,1.2c-0.4-0.2-1-0.5-1.1-0.8c-0.5-1.5-1.2-3.1,0.2-4.5c2.4,1,0.6,2.6,0.6,3.6
		C696,159.5,697.2,157.5,698.2,158.4z"/>
	<path d="M693,151.4c-0.2-0.6-0.5-1.2-0.6-1.8c0-0.2,0.3-0.6,0.6-0.7c0.3-0.1,0.7,0.1,0.9,0.4C694.3,150.1,694.2,150.8,693,151.4z"
		/>
	<path d="M705.8,139.4c-1.2-1.1-1.2-2.1-0.8-3.3C706.1,136.9,706.4,137.8,705.8,139.4z"/>
	<path d="M712.9,151.9c1.3-0.1,2.3,0.2,3.5,0.9C714.7,153.1,714.7,153.1,712.9,151.9z"/>
	<path d="M724.2,169.6c0.7-1.1,1.5-1.2,2.7-0.8C726.1,169.7,725.3,169.9,724.2,169.6z"/>
	<path d="M709.9,161.7c0.4,0.3,0.6,0.4,0.7,0.6c0.1,0.3,0,0.6,0,0.8c-0.2-0.2-0.5-0.3-0.7-0.5C709.9,162.5,709.9,162.2,709.9,161.7z
		"/>
	<path d="M697.4,153.5c-0.2,0.2-0.5,0.4-0.5,0.4c-0.3-0.3-0.5-0.6-0.8-0.8c0.2-0.1,0.4-0.3,0.6-0.2
		C696.9,153,697.1,153.3,697.4,153.5z"/>
	<path d="M696.7,146.7c-1.1,0.6-1.5-0.2-2.3-0.5C695.5,145.5,696,146.2,696.7,146.7z"/>
	<path d="M710.1,143.4c0.3,0.8-0.3,1-0.8,1.2c-0.1,0.1-0.4-0.1-0.6-0.2c0,0,0-0.2,0-0.3C709.1,143.6,709.4,143.2,710.1,143.4z"/>
	<path d="M734.2,124.5c0.2-0.2,0.5-0.3,0.7-0.5c0.1,0.1,0.2,0.3,0.2,0.4c-0.3,0.1-0.5,0.3-0.8,0.4
		C734.3,124.8,734.3,124.7,734.2,124.5z"/>
	<path d="M692.4,147.6c-0.1-0.2-0.2-0.4-0.3-0.6c0.3-0.1,0.5-0.3,0.8-0.4c0,0,0.2,0.2,0.2,0.2C692.9,147,692.6,147.3,692.4,147.6z"
		/>
	<path d="M728.4,123.2c-0.1,0.1-0.3,0.3-0.4,0.4c-0.1-0.1-0.2-0.3-0.3-0.4c0.2-0.1,0.4-0.2,0.6-0.3
		C728.2,122.9,728.3,123,728.4,123.2z"/>
	<path d="M733,123.2c-0.2,0.1-0.3,0.3-0.5,0.4c0,0-0.2-0.1-0.2-0.1C732.5,123.4,732.8,123.3,733,123.2L733,123.2z"/>
	<path d="M708.8,151.8c0-0.1,0.1-0.2,0.1-0.2c0.1,0,0.2,0,0.3,0.1c0,0.1-0.1,0.2-0.1,0.2C709,151.9,708.9,151.8,708.8,151.8z"/>
	<polygon points="743.6,155.6 743.4,155.5 743.5,155.7 	"/>
	<path d="M733.1,123.3c0-0.1,0.1-0.3,0.1-0.4c0,0.1,0,0.1,0,0.2C733.1,123.1,733,123.1,733.1,123.3L733.1,123.3z"/>
	<path d="M195.7,235.6c-1.3-0.9-1.4-1.9-1.4-2.8c-0.2-4-0.5-8-0.5-11.9c0-1.7,0.4-3.5,0.8-5.2c0.3-1.4,1.2-2,2.1-1.9
		c1.1,0.1,1.8,1.3,1.5,2.7c-1.1,4.6-0.8,9.3-1.2,14c-0.1,1.3-0.3,2.6-0.5,3.8C196.4,234.7,196,235,195.7,235.6z"/>
	<path d="M203,214.9c0.5,0.5,1.2,0.9,1.4,1.4c0.2,0.5,0,1.1-0.1,1.7c-1.1,5-1.3,10-1,15.1c0,0.6,0.1,1.2,0,1.8
		c-0.1,0.4-0.4,0.9-0.8,1c-0.3,0.1-0.9-0.3-1-0.6c-0.3-0.6-0.5-1.3-0.6-2c-0.7-5.1-1-10.3,0.2-15.4c0.2-0.7,0.4-1.4,0.7-2
		C202,215.5,202.5,215.3,203,214.9z"/>
	<path d="M189.3,232.6c-1.3-0.4-1.4-1.4-1.5-2.3c-0.7-4.2-0.8-8.4-0.9-12.6c0-0.3,0.1-0.7,0.1-1c0.2-1,1-1.7,2-1.6
		c0.8,0.1,1.6,0.7,1.7,1.5c0.2,2.2,0.4,4.4,0.4,6.7c0,2-0.2,4-0.5,6C190.4,230.3,190.3,231.5,189.3,232.6z"/>
	<path d="M175.8,230.5c-0.6-0.5-1.1-0.7-1.2-1c-1.4-3.6-1.9-7.2-1.1-11c0.1-0.4,0.3-1,0.6-1.2c0.4-0.4,1-0.7,1.5-0.7
		c0.8-0.1,1.3,0.5,1.6,1.2c0.1,0.2,0.2,0.5,0.2,0.7c0.1,3.6,0.1,7.3-0.7,10.8C176.5,229.6,176.2,229.9,175.8,230.5z"/>
	<path d="M183.2,231.5c-0.4-0.5-0.8-0.8-0.9-1.2c-0.9-3.4-1.2-6.9-1.3-10.4c0-0.7,0.2-1.4,0.5-2c0.3-0.4,0.9-0.8,1.4-0.8
		c0.5,0,1.1,0.4,1.4,0.8c0.3,0.3,0.4,0.8,0.5,1.3c0.5,3.8,0.3,7.5-0.7,11.1C184,230.7,183.6,231,183.2,231.5z"/>
	<path d="M200,190.4c-0.2-3.2,0.6-6.4,1.9-9.5c0.3-0.8,0.9-1.7,1.5-2.3c0.3-0.3,1.2-0.3,1.6-0.1c0.4,0.2,0.8,0.8,1,1.3
		c0.1,0.4,0,0.9-0.1,1.4c-0.3,0.9-0.6,1.8-0.9,2.7c-1.8,5.3-2,10.6-1.1,16c0.2,0.9,0.2,1.9,0.3,2.8c0,0.3-0.3,0.7-0.6,0.7
		c-0.3,0.1-0.8-0.1-0.9-0.3c-0.5-0.9-1-1.9-1.3-2.9C200.4,197.2,199.9,193.9,200,190.4z"/>
	<path d="M196.2,201.4c-0.5-0.5-0.9-0.8-1.1-1.2c-1.9-4.1-2.8-8.4-2.7-13c0.1-1.5,0.2-3.1,1.4-4.3c0.5-0.5,1.1-0.9,1.7-1.1
		c1.2-0.4,2.4,0.7,2.3,1.9c0,0.1,0,0.2,0,0.3c-1.6,3.5-0.9,7.1-0.7,10.7c0.1,1.6,0.1,3.3,0,4.9C197,200.3,196.6,200.7,196.2,201.4z"
		/>
	<path d="M189.4,190.8c0,1.9,0,3.8,0,5.6c0,0.6-0.2,1.2-0.3,1.7c0,0.2-0.3,0.4-0.5,0.4c-0.3,0-0.7,0-0.9-0.2
		c-0.3-0.3-0.6-0.7-0.7-1.2c-1.7-4.1-2-8.4-1.7-12.8c0-0.2,0.1-0.5,0.1-0.7c0.3-1,1.2-1.7,2-1.7c0.8,0,1.7,0.8,1.9,1.8
		c0.1,0.8,0.1,1.6,0.2,2.5C189.4,187.7,189.4,189.3,189.4,190.8C189.4,190.8,189.4,190.8,189.4,190.8z"/>
	<path d="M182.1,198.7c-0.9-1-1.3-1.3-1.6-1.8c-0.4-0.7-0.6-1.5-0.8-2.3c-0.7-2.7-0.8-5.6-0.7-8.4c0-1.8,0.9-2.8,2-2.8
		c0.9,0,2.1,0.7,2,2.8c-0.1,3.4-0.2,6.8-0.3,10.2C182.6,196.9,182.4,197.4,182.1,198.7z"/>
	<path d="M174.9,196.8c-0.5-0.5-0.9-0.8-1.1-1.1c-1-2.1-1.5-4.4-1.3-6.8c0.1-1.2,0.5-2.3,1.4-3.1c0.5-0.4,1.5-0.6,1.9-0.1
		c0.3,0.4,0.7,1.1,0.5,1.5c-0.9,2.8-1.2,5.7-0.9,8.6C175.4,196,175.2,196.2,174.9,196.8z"/>
</g>
</svg>
