<?xml version="1.0" encoding="utf-8"?>
<!-- Generator: Adobe Illustrator 20.0.0, SVG Export Plug-In . SVG Version: 6.00 Build 0)  -->
<svg version="1.2" baseProfile="tiny" id="Layer_2" xmlns="http://www.w3.org/2000/svg" xmlns:xlink="http://www.w3.org/1999/xlink"
	 x="0px" y="0px" viewBox="0 0 900 600" xml:space="preserve">
<g>
	<path d="M294.9,334.8c-0.6,0.9-1.3,1.7-1.9,2.5c-1-0.1-1.2-0.7-1.2-1.3c-0.1-1.9,0.7-3.6,1.6-5.2c0.8-1.5,1.7-2.9,2.6-4.4
		c-0.7-0.4-1.3-0.8-2-1.2c0.8-1.2,1.9-1.5,3-1.4c1.3,0.1,2-0.6,2.6-1.7c-2-1.4-2.2-1.4-6.2-1.1c-0.2-0.4-0.5-0.9-0.4-1.3
		c0.1-0.6,0.4-1.2,0.9-1.5c1-0.8,2.2-1.1,3.5-0.9c1.1,0.2,2.1,0.4,3.5,0.6c0-1.1,0-2.1,0-3c0-0.6,0-1.2,0.1-1.8
		c0.1-0.9,1.3-1.4,2-0.7c0.5,0.5,1,1.1,1.4,1.7c0.3,0.5,0.6,1,1,1.7c0.8-0.7,1.5-1.3,2-1.9c2-2.1,4.4-3.5,6.7-5c1.5-1,3.1-1.4,4.9-1
		c3.4,0.6,6.8,0.4,10.3,0.1c3.7-0.3,7.3-0.4,11,0.1c0.6,0.1,1.2,0.2,2,0.4c-0.9,1.1-2.1,0.2-2.9,0.9c1.7,1.5,3.7,1.9,5.9,1.7
		c6.4-0.5,12.7-0.1,19,1.5c2,0.5,4.1,0.9,6.2,0.4c1.1-0.2,2.2-0.2,3,1c-0.2,0.5-0.3,1.1-0.5,1.6c0.2,0.1,0.4,0.3,0.6,0.3
		c1.3-0.1,2.7-0.1,4-0.4c1.7-0.3,2.9,0.1,3.7,1.6c0.8-0.2,1.5-0.5,2.2-0.6c0.8-0.2,1.6-0.1,1.9,0.7c0.4,1,1.4,0.7,1.9,0.9
		c0,0.8-0.1,1.4,0.1,1.9c0.9,2,0.9,2.2-0.6,3.3c-0.6,0.5-1.2,0.8-1.8,1.3c-1.1,1-1.8,2.2-1.3,3.8c-2.4,3.2-6.1,4.3-10.1,5.7
		c3.2,1.8,5.8,3.3,8.5,4.7c0.6,0.4,1.3,0.8,2,0.9c3.8,0.3,7,2.4,10.1,4.1c6,3.2,12.2,6.3,16.7,11.8c1.5,1.8,3.6,3,5.7,4
		c2.4,1.2,4.9,2.1,7.4,3.2c1.7,0.7,3.4,1.5,5,2.3c4.2,2.2,8.4,4.6,12.2,7.5c2.7,2.1,5.8,3.7,8.8,5.3c2.3,1.3,4.4,2.6,6.4,4.3
		c1,0.9,2.2,1.6,3.4,2.2c3.5,1.8,6.7,4,9.5,6.8c1.5,1.6,3.4,2.8,5,4.3c0.8,0.7,1.7,1.4,2.5,2.1c1.7,1.4,3.4,2.8,5,4.3
		c1.8,1.5,3.5,3,5.2,4.6c0.4-0.3,0.6-0.5,0.9-0.7c0.2,0,0.5,0,0.6,0.2c1.3,1.1,2.4,2.4,3.4,3.8c1.6,2.1,3.5,4,5.4,6
		c0.4,0.4,0.9,0.8,1.2,1.1c0.5,1.2-0.4,2.3,0.6,3.3c0.8,0.7,1.1,1.8,1.6,2.6c-0.1,1.5-1.9,0.7-2.1,2c-0.1,1.2-1.3,1.7-2.2,2.3
		c-0.8,0.5-1.5,1.2-2.4,2c1.1,2.5,2.5,4.6,3.6,7.2c1.8-1.4,3-2.9,4.2-4.5c4.3-5.8,9.1-11.2,14-16.6c4.3-4.7,8.4-9.6,12.6-14.4
		c7.6-8.7,16.5-15.7,26.4-21.5c3.3-1.9,6.5-4,9.6-6.1c2.8-1.8,5.5-3.6,8.7-4.7c2.2-0.8,4.2-1,6.4,0c1.9,0.8,4,1.2,6,1.8
		c1.8,0.6,3.6,0.7,5.4,0.3c0.2,0,0.5-0.1,0.7-0.1c3.9-0.9,7.4-0.2,10.7,2.4c2.1,1.6,4.2,3.2,6.2,5c2.1,1.9,4.1,3.8,6.9,4.8
		c0.5,0.2,1,0.7,1.4,1.1c5.8,5.7,9.8,12.5,12.1,20.3c0.9,3.1,2,6.1,3.3,8.9c1.2,2.4,2.8,4.6,4.3,6.7c8,10.8,14.1,22.7,19.5,34.9
		c5.6,12.4,12,24.4,18.9,36.1c2,3.4,3.7,6.9,5.4,10.4c1.5,3.3,3.8,5.9,6,9c0.7-0.5,1.1-0.8,1.6-1.2c0.8-0.6,1.6-0.7,2.4-0.2
		c0.7,0.4,1.5,0.8,2.2,1.4c0.9,0.7,1.7,1.5,2.4,2.2c2.7,2.6,5.3,5.4,8.2,7.9c2.5,2.2,5.2,4.1,7.8,6.1c1.1,0.9,2.6,1.4,2.8,3.2
		c0.1,0.4,0.6,0.7,1,1c0.7,0.5,1.4,1,2.1,1.5c1.1,0.8,2.1,1.7,3.4,2.2c1.1,0.5,2.3,0.4,3.2,0.6c1.6,1,0.5,3.2,2.3,3.8
		c0.5-0.3,0.9-0.7,1.5-1.1c0.3,0.2,0.8,0.2,0.9,0.5c1.4,1.8,3.3,2.5,5.4,2.8c0.7,0.1,1.4,0.3,2.2,0.3c4.4,0.3,8.8,0.6,13.2,0.9
		c2.6,0.2,3.6,1,4.4,3.6c0.7,2.4,0.8,4.8,0.6,7.3c-0.1,1.1-0.3,2.2-0.4,3.3c1.5,0.8,2.9,0.5,4.4,0.4c2.8-0.2,5.6-0.6,8.4-0.9
		c0.6-0.1,1.2-0.1,1.8-0.2c3.8-0.6,6.3,1.2,8,4.2c-0.9,2.5-0.9,2.5-0.5,5c0.5,2.6,0,5-1.4,7c-2.2,3.2-4.4,6.5-8,8.5
		c-1.2,0.6-2.2,1.6-3.2,2.4c-1.5,1.3-3.2,2.2-5.3,2.4c-3.3,0.4-6.6,0.7-9.8,1.2c-3.2,0.4-6.3,0.7-9.4,1.4
		c-5.5,1.3-10.9,1.2-16.3-0.6c-1.6-0.5-3.3-0.9-4.9-1.6c-3.5-1.5-6.9-0.9-9.9,0.9c-2.9,1.7-6,2.7-9.3,3.2
		c-5.2,0.7-10.4,1.7-15.7,0.9c-5.6-0.8-11.1-1.9-16.4-3.8c-2.3-0.8-4.4-2.2-5.9-4.2c-0.8-1.1-1.2-2.2-1-3.7c0.4-2.4,0.3-4.8,0.5-7.3
		c0.1-1,0-2.1,0.5-2.8c1-1.6,0.9-3.2,1.2-4.9c0.7-4.6,1.4-9.2,2.3-13.8c0.4-2,0.5-3.9,0.2-5.8c0-0.2-0.1-0.5-0.1-0.7
		c-0.3-3.5,0.1-4.5,3.3-6.9c-4.8-5.4-10.4-9.8-15.9-14.4c-0.4,0.5-0.7,0.7-0.7,0.9c-0.2,3.3-1.2,6.5-2.1,9.7c-0.7,2.5-1.2,5-1.8,7.5
		c-0.4,1.7-0.6,3.4-1.2,5c-1.1,3.1-1.3,6.2-1.3,9.4c0,2.8-0.4,5.6-0.6,8.6c3.1,1.8,6.6,2.6,10.4,2.7c1.7,0,3.4-0.3,5,0.5
		c0.6,1.2,0,2-0.9,2.5c-0.5,0.3-1.2,0.4-1.8,0.5c-4.9,0.3-9.5-0.5-13.8-3.1c-1.5-0.9-2.1-1.9-2-3.9c0.2-3.6,0.7-7.3-0.1-11
		c-0.3-1.4,0-2.7,0.6-3.9c1.5-3.2,2.2-6.7,2.9-10.2c0.6-2.7,1.6-5.4,2.4-8.1c0.5-1.6,0.5-1.6,0.2-3.5c0.9-1.7,1.9-3.4,2.8-5
		c-0.2-0.5-0.3-0.9-0.5-1.2c-5.1-6-10.4-11.7-16.5-16.8c-0.7-0.5-1.4-1-2.1-1.4c-7.5-4.3-14.1-9.7-20.4-15.5c-1.2-1.1-2.4-2.1-3.7-3
		c-4.9-3.4-8.4-7.9-9.7-13.8c-0.4-1.6-1-3.1-2.3-4.1c-2.6-2-4.4-4.5-5.7-7.4c-0.8-0.1-1,0.4-1.1,0.8c-0.6,1.7-1.2,3.5-1.8,5.2
		c-1.3,3.8-2.6,7.7-4.8,11.2c4.4,5.9,7.7,12.2,10.5,19c0.4,0,0.7-0.1,1.1-0.1c0.2,0,0.4-0.1,0.6-0.2c0.1,0.2,0.3,0.5,0.3,0.6
		c-1,1.5-0.9,3.6-2.6,4.6c-0.2,0.1-0.3,0.5-0.2,0.7c0.4,2.1-1.2,3-2.5,4.1c-0.3,0.2-0.6,0.5-0.9,0.6c-3.2,1.3-5.3,3.9-7.3,6.5
		c-2.2,2.7-3.9,5.6-5.4,8.7c-2.5,5.1-4.9,10.2-7.3,15.2c-0.8,1.8-1.7,3.6-2.5,5.3c-1.8,3.7-4.2,6.9-7.2,9.7c-1.7,1.6-3.5,3.1-5,4.8
		c-6.8,7.3-14.3,13.7-21.8,20.2c-3.3,2.9-6.6,5.9-9.9,8.7c-1.2,1-2.5,2-3.8,2.9c-1.1,0.7-2.3,1.6-3.5,1.9c-5.4,1.6-10.6,4-16.2,4.8
		c-1.9,0.3-3.9,0.2-5.8,0c-3.7-0.3-7.3-0.9-10.9-1.2c-6.5-0.5-12.9-1.1-19.3-2.7c-2.8-0.7-5.8-1.1-8.6-1.8c-1.7-0.4-3.3-0.9-5-1.3
		c-2-0.5-2.8-1.8-2.7-3.8c0.4,0,0.8-0.1,1.1,0.1c3.5,1.3,7.1,1.8,10.7,2.6c8.9,1.9,17.9,2.9,27,3.3c2.4,0.1,4.9,0.4,7.3,0.9
		c2.7,0.6,5.4,0.6,8-0.1c3.5-1,7-2.3,10.6-3.1c3.7-0.8,6.5-2.8,8.9-5.4c0.7-0.7,1.4-1.4,2.1-2.1c4.3-4,8.6-8,13-12
		c2.5-2.2,5-4.3,8.1-5.7c1.6-0.7,2.8-1.9,4-3.2c2.5-2.8,5-5.8,7.7-8.4c4.6-4.3,7.7-9.4,10-15.2c2.2-5.7,4.9-11.2,7.3-16.8
		c0.3-0.6,0.5-1.3,0.9-2.2c-1.9,0.2-3.4,0.4-5,0.5c-1.7,0.1-3.4,0.2-5.1,0.4c-3.7,0.4-7.3,0.1-11-0.5c-4.1-0.6-7.6-2.6-10.8-5.1
		c-0.4-0.3-0.7-0.7-0.9-1.1c-1.7-3.4-3.4-6.8-3.6-10.7c0-1.2-0.2-2.4-0.4-3.7c-0.6-4.7-1.1-9.5-1.9-14.2c-0.9-5.7-3-11.1-4.6-16.6
		c-0.9-3.2-2.5-6.1-4.7-8.6c-3.7-4.3-6.7-9-8.6-14.4c-0.1-0.4-0.5-0.7-0.7-1c-1.6,0.5-1.5,1.8-1.8,2.6c-1.1,0.7-2.3,1.2-3.2,2
		c-4.7,4.1-9.6,8-13.8,12.7c-2,2.2-3.8,4.7-5,7.8c1.2,0.8,1.4,2,1.1,3.5c-0.5,2.7-1.3,5.2-2.5,7.7c-1.3,2.7-2.7,5.5-4,8.2
		c-0.7,1.4-1.6,2.4-3.1,2.9c-3,1.1-5.6,3-8.2,4.8c-2.5,1.7-4.1,4.1-4.4,7.3c-0.4,3.7-1.2,7.5-1.8,11.4c-2-3.2-2.1-6.5-1.7-10
		c0.5-5,2.3-9.8,3.6-14.6c0.4-1.5,1.3-2.6,2.8-3.2c0.7-0.3,1.6-0.2,2,0.4c0.4,0.6,0.4,1.2-0.1,1.7c-0.8,0.7-1.1,1.6-1.4,2.5
		c-0.3,0.9-1,1.6-0.8,2.7c1.5-1.5,2.9-3.1,4.5-4.3c1.7-1.2,3.7-1.9,5.6-2.9c0.1-0.3,0.4-0.6,0.5-0.9c1.7-4.2,3.4-8.4,5-12.6
		c0.3-0.7,0.2-1.4,0.3-2.2c0.7-4,1.7-8,4.7-11c3-3,5.8-6.3,9.3-8.9c1.9-1.4,3.7-2.9,5.5-4.3c0.6-0.5,1.2-1.1,1.9-1.9
		c-2-2.1-2.1-4.9-3.2-7.6c-2.1,2.1-3.9,4-5.8,6c0.3,0.9,0.5,1.7,0.7,2.6c0.3,1.4,0.1,2.7-0.9,3.8c-2.3,2.5-4.5,5.1-7,7.5
		c-1.7,1.7-3.2,3.3-3.8,5.7c-0.2,0.9-0.9,1.7-1.4,2.6c-0.5,0.9-1.1,1.7-1.3,2.6c-0.3,1.6-1.2,2.9-2,4.3c-0.9,1.7-1.9,3.4-2.9,5.1
		c-1.6,2.8-3.8,4.8-6.8,5.9c-1.3,0.5-2.6,0.7-4,0.4c-2.1-0.4-4-1.4-5.8-2.5c0.3-0.3,0.5-0.5,0.7-0.7c-3.7,0-5.7,2-7,5.1
		c-0.2,0.5-0.4,0.9-0.5,1.4c-0.6,2.4-1.3,4.7-1.8,7.1c-0.2,0.8-0.1,1.7,0.1,2.5c0.4,1.5,0.9,3,1.5,4.5c0.6,1.5,1.2,3,1.8,4.4
		c1.2,2.8,0.5,5-1.8,6.8c-1.2,1-2.5,2-3.5,3.2c-1,1.2-1.7,2.6-2.6,4c-0.7-1.7,1.3-3.2,0.1-4.9c-3.6,1.6-3.7,4.9-4.4,8
		c0.5,0.4,1.2,0.6,1.4,1c0.3,0.5,0.3,1.2,0.2,1.8c-0.2,2.6-0.5,5.1-0.8,7.7c-0.5,5-1,10-1.3,15c-0.2,2.7,0.1,5.4,0,8.1
		c0,1.1,0.1,2.4-0.4,3.2c-1.4,2.1-1.4,4.4-1.4,6.7c0,3.1,0.2,6.1,0.3,9.2c0,1,0,1.8,1.1,2.4c0.7,0.4,1.1,1.5,0.8,2.6
		c-0.5-0.2-1-0.4-1.5-0.6c-0.5,1.9-1.2,3.5-0.7,5.2c0.1,0.3-0.2,0.7-0.4,1c-0.9,0.5-1.8,1.2-2.8,1.4c-1.3,0.2-2.7,0.2-4,0
		c-2.5-0.4-5.1-0.9-7.6-1.5c-2.3-0.6-4.5-0.9-6.9-0.7c-0.9,0.1-2-0.1-2.9-0.4c-6.9-2-13.9-4.1-20.8-6c-5.1-1.4-9.8-3.9-14.3-6.6
		c-1.4-0.8-2.8-1.4-4.4-1.7c-4.3-0.9-8.5-2.3-12.6-3.9c-5.2-2.1-9.9-4.9-14.1-8.5c-1.7-1.4-3.4-2.8-5.3-4
		c-8.8-5.7-16.7-12.5-24.1-19.8c-1-1-2.1-2.1-3-3.3c-3.4-4.5-6.9-8.9-10.2-13.5c-1.9-2.7-3.6-5.6-5-8.5c-4-8.3-7.2-16.9-8.9-26
		c-0.5-3-0.7-6.1-1-9.1c-0.1-1.5-0.1-2.9-0.3-4.4c-1.3-11.9-0.5-23.7,2.5-35.4c0.4-1.4,0.8-2.9,1.4-4.2c1.9-3.6,2.4-7.4,2.7-11.3
		c0.3-3.5,0.5-7.1,0.7-10.6c0.2-2.5-0.1-4.9-0.5-7.3c-1.9-11.1-4.5-22.1-7.4-33c-0.4-1.7-0.8-3.3-2.2-4.5c-1.1-1-1-2.5-0.6-3.8
		c0.3-1,0.9-2,1.3-3c0.6-1.2,0.8-2.3-0.2-3.4c-0.8-0.9-0.8-2-0.8-3.1c0.1-3.1,0.6-6.1,2.3-8.8C295.3,336.3,295,335.5,294.9,334.8
		c0.2-0.3,0.5-0.5,0.8-0.8c1.4-0.6,1.7-1.7,1.3-3c-0.1,0.2,0.4-0.3,0.1,0.1c-0.7,0.9-1.7,1.7-1.3,3
		C295.5,334.4,295.2,334.6,294.9,334.8z M454.6,384.7c0.1,0.4,0.2,0.8,0.8,0.8c-0.3,0.9,0.3,1.4,0.8,1.8c1.4,1.1,3,2.2,4.3,3.4
		c2.7,2.5,5.4,5,8,7.6c2.7,2.6,4.9,5.7,7.6,8.4c4.2,4.2,8.1,8.8,12.2,13.2c0.5,0.5,0.7,1.2,1,1.8c1,2.1,2.2,4,3.8,5.7
		c1.6-1.7,4.1-2.2,4.5-5c-1.2-1.9-2.9-3.4-4.6-5c-2.1-1.9-3.8-4.1-5.6-6.3c-2.2-2.6-4.8-4.9-7.2-7.3c-1.5-1.4-3.2-2.7-4.8-4
		c-0.9-0.8-1.9-1.6-2.8-2.3c-2.4-1.9-4.8-3.8-7-5.8c-1.5-1.3-3-2.5-4.8-3.4c-1.9-0.9-3.7-1.9-5.6-2.8
		C455.1,385.3,454.8,385,454.6,384.7c-0.4-0.1-0.6-0.4-0.9-0.6l-0.1-0.2l0.2,0.1C454.1,384.2,454.4,384.4,454.6,384.7z M332.4,359.8
		l0.2,0.1L332.4,359.8c-0.2-0.1-0.4-0.3-0.5-0.4c-0.1-0.1-0.2,0-0.3,0c0.1,0.1,0.1,0.3,0.2,0.3C332,359.7,332.2,359.7,332.4,359.8z
		 M324.3,363.5c-0.7,0.3-0.7,0.9-0.6,1.6c-1,0.2-0.8,0.9-0.7,1.5c-0.7-0.1-0.8,0.2-0.5,0.9c0.1-0.4,0.3-0.7,0.4-1
		c0.2-0.5,0.5-1,0.7-1.5C324.2,364.6,324.4,364,324.3,363.5c0.2-0.3,0.5-0.5,0.8-0.7c0.9-0.8,1.9-1.1,3-0.5c1.7,0.8,3.3,1.6,4.9,2.4
		c2.8,1.3,5.1,3.1,4.9,6.8c-0.3,0.5-0.7,1.2-1,1.9c0.5,1.1,0.9,2,1.3,3.1c-1.6,0.7-2.8,0.3-4.2-0.1c-0.8-1.2-1.5-2.4-2.2-3.5
		c0.2-2.2,2.7-1.8,3.2-3.4c-1-1.2-1-1.2-2.8-1.4c-1.3,2-2.4,4.4-5.2,5c-0.2-1.5,0.3-2.5,0.9-3.6c0.6-0.9,1.2-1.9,1.7-2.8
		c0.1-0.2,0-0.4,0-0.8c-0.8-0.3-1.7-0.7-2.8-1.1c-1.1,2-2.1,3.8-3.3,5.9c-0.7-1.6-2.1-2.2-3.5-2.8c-0.3,0.9-0.5,1.8,0.6,2.2
		c0.8,0.3,1.1,0.9,1.3,1.6c0.9,3,3.2,5,5.9,6.3c2.9,1.4,5.6,3.1,8.1,5c0.3,0.2,0.7,0.2,1.2,0.4c0.2-0.9,0.4-1.7,0.6-2.5
		c0.1-0.5,0.2-0.9,0.8-0.8c1.1,1.7,1,3.7,1.1,5.5c2.2,2.4,4,5.8,4.7,9c-0.1,0-0.3,0.1-0.3,0.1c-2.1-2.2-3.6-4.9-5.4-7.4
		c-1.4,0.3-2.6-0.1-3.6-1.2c-0.8-0.8-1.7-1.4-2.5-2.2c-2-1.8-4.3-3.1-7.2-3.9c0.8,3.1-0.5,5.6-1.9,8c-0.4,0.6-0.8,1.3-1.2,1.8
		c-2,2.2-3.4,4.8-4.8,7.4c-0.4,0.6-0.7,1.3-1.1,1.9c-0.5,0.7-1.2,1.2-2.2,1.2c-0.3,0-0.6-0.2-0.8-0.3c0-1,1.2-1.8,0.3-2.8
		c-0.3,0.1-0.6,0.2-0.7,0.4c-2,2.8-2,2.8-5.2,2.3c-0.1,0.8-0.2,1.7-0.2,2.5c0.1,5.2-0.6,10.3-2.2,15.2c-0.5,1.5-0.8,3.1,0.1,4.7
		c1.6-0.3,2.8-1.4,4.1-2.2c4.3-2.7,8.8-4.8,13.7-6c1.8-0.4,3.6-0.7,5.4-0.2c0.4,0.1,1,0.2,1.4,0.1c2.1-0.6,4.3-1.1,6.3-2
		c4.8-2.1,9.8-3.7,14.8-5.4c0.6-0.2,1.4,0,1.8-0.9c-0.7-0.4-1.3-0.7-1.9-1.2c-0.9-0.7-1.7-1.4-2.4-2.2c-0.1-0.1-0.1-0.6,0-0.7
		c0.3-0.2,0.6-0.4,0.9-0.4c0.3,0,0.7,0.3,1,0.5c2.1,1.7,4.7,2.6,7.2,3.7c1,0.4,2.1,0.8,3.2,0.7c3.9-0.1,7.8,0.5,11.7-0.3
		c1.7-1.9,3.9-3.4,4.9-5.8c-0.2-2.5-2.3-4.2-2.2-6.4c0.3-1.7,2.2-2.3,2.1-4.2c-1.4-0.5-2.8-1.3-4.3-1.5c-1.5-0.2-3,0.3-4.6,0.4
		c0-1.4,0-1.6,0.4-1.7c1.2-0.3,2.4-0.6,3.5-0.8c2-0.3,4.1-0.5,6-1.8c-0.2-0.8-0.4-1.4-0.6-2.1c-0.2-0.7-0.3-1.4-0.5-2
		c-0.5-0.1-0.9-0.3-1.2-0.3c-6.3-0.7-12.6-1.5-19-0.2c-0.1,0-0.3,0-0.4,0c-0.3-0.2-0.7-0.4-0.8-0.6c-0.1-0.4-0.2-1.1,0.1-1.3
		c0.4-0.4,1-0.8,1.5-0.9c1.8-0.2,3.7-0.5,5.5-0.4c3.5,0.2,7.1,0.7,10.6,1.1c2.6,0.3,5.1,0.5,7.5,1.7c0.5,0.3,1.2,0.3,1.8,0.5
		c3.8,1,7.7,1.5,11.6,1.8c2.2,0.2,4.4,0.3,6.5,1.2c0.7,0.3,1.4,0.4,2.1-0.1c1.2-0.8,2.4-0.4,3.4,0.3c4.5,2.9,9.1,5.7,12.5,10.2
		c2.4,3.1,4.7,6.3,7.9,8.7c0.7,0.5,1.1,1.3,1.6,2c0.8,1.2,1.6,2.5,2.3,3.8c0.5,1,1,2,1.2,3c1.9,8.7,6.2,16.2,11.6,23.1
		c0.4,0.5,0.9,0.9,1.3,1.3c0.3,0.4,1,0.6,0.8,1.6c-1.5-1-2.9-1.8-4.1-2.8c-2.9-2.5-5.3-5.4-7.1-8.3c-1.6-0.6-3-0.9-4-1.7
		c-3.9-2.8-8.4-3.4-12.8-4c-4.4-0.6-8.8-0.5-13.2,0.3c-5,0.9-10,0.8-14.4,0.1c-1.3-0.9-2-1.8-3-2.1c-6.3-2.4-12.6-4.9-19.3-5.7
		c-0.9-0.1-1.7-0.2-2.5-0.4c-4.3-0.9-8.6-0.8-12.8,0.1c-6.9,1.4-13.4,3.8-20,6.2c-0.7,0.3-1.3,0.6-1.9,1.1
		c-4.8,3.5-10.1,6.6-13.4,11.8c-0.3,0.5-0.8,0.3-1.1-0.4c1.1-1.8,2.2-3.7,3.3-5.5c-1.2-0.9-2-0.3-2.9,0.1
		c-5.1,2.5-8.4,6.8-10.8,11.7c-2.5,5.2-3.9,10.8-5.2,16.4c-0.2,0.9-0.2,1.9-0.2,2.9c0,4,0,8.1-0.1,12.1c-0.1,3.6,0.2,7.1,1.7,10.4
		c0.3,0.6,0.6,1.5,0.4,2.1c-0.6,1.4,0,2.7,0.4,3.9c1.3,3.6,2.7,7.1,4.1,10.6c0.5,1.3,1.2,2.3,2.2,3.3c1.1,1.1,2,2.5,2.9,3.8
		c1.3,1.9,2.5,3.9,3.8,5.9c1.5-0.6,2.5-0.2,3.4,0.9c2.6,3.2,6,4.9,9.9,6.1c1.6,0.5,3.3,1,4.9,1.5c2.2,0.7,4.4,1.6,6.8,1.1
		c0.7-0.1,1.4,0.2,2.2,0.3c1.1,0.1,2.2,0.4,3.3,0.2c3.4-0.6,6.8-0.3,10.3,0.1c2.7,0.3,5.4-0.2,8-0.9c1.3-1.3,3.1-1.2,4.8-1.7
		c2.5-0.7,4.9-1.4,7.4-2.1c1.2-0.3,2.3-0.8,2.6-2.3c0.1-0.4,0.6-0.9,0.9-0.9c1,0,1.5-0.8,2-1.4c2.9-3.5,5.1-7.5,6.4-11.9
		c2-6.7,2.6-13.5,2.1-20.4c0-0.7-0.4-1.4-0.5-1.9c-0.4-0.1-0.7-0.3-0.9-0.3c-0.6-0.1-1.2-0.1-1.8-0.1c-6.5-0.3-12.9-1.6-19-3.8
		c-2.9-1-5.6-2.4-8.4-3.7c-0.3-0.2-0.9-0.5-0.4-1.2c1,0.4,2.1,0.6,3,1.1c2.3,1.3,4.9,1.5,7.5,1.6c1,0,2,0,2.9,0.1
		c8.4,0.5,16.9,1,25.3,1.5c3.4,0.2,6.8,0.6,10.3,0.7c5.4,0.2,10.8,0.4,16.2,0c0.9-0.1,1.7,0,2.6-0.2c1.2-0.3,1,1.2,1.6,1.3
		c1.9-0.6,3.5-1.3,5.2-1.6c3.8-0.9,7.7-1.6,11.5-2.5c5.1-1.2,10.3-2.2,15.2-4.2c6-2.4,12.3-4,18.3-6.6c4.7-2,8.8-4.8,12.5-8.2
		c0.4-0.4,0.9-0.9,1.4-1.2c2.6-1.2,3.4-3.6,4.6-5.8c-1.7-2.9-3.2-5.7-4.8-8.3c-1.6-2.6-3.3-5.1-5.1-7.5c-6.1-7.7-12.2-15.4-18.4-23
		c-1.2-1.5-2.5-3-4-4.3c-3.7-3.3-7.3-6.5-11.2-9.5c-4.4-3.5-9.3-6.4-13.5-10.2c-0.6-0.6-1.4-1-2.1-1.5c-6-4.3-12.4-7.9-18.8-11.6
		c-5.1-3-9.7-6.6-13.9-10.8c-0.3-0.3-0.9-0.7-0.9-1.1c-0.1-2-1.6-2.7-2.9-3.4c-2.9-1.6-5.8-3.2-8.7-4.8c-1.6-0.9-3.3-1.7-4.8-2.7
		c-1.7-1.2-3.8-0.8-5.6-1.7c-2.2-1.1-4.5-1.9-6.6-3.2c-3.7-2.3-7.7-2.9-11.9-3.4c-0.2,0-0.3,0.2-0.7,0.4c0.6,0.3,1,0.5,1.4,0.6
		c4.4,1.5,7.9,4.3,11.4,7.3c0.8,0.7,1.5,1.6,2.2,2.5c0.4,0.5,0.4,1.2-0.5,1.7c-0.6-0.4-1.3-0.8-1.9-1.4c-2.3-2.2-4.8-4.2-7.5-5.9
		c-3.6-2.3-7.7-3.1-11.9-2.9c-0.2,0-0.4,0.2-0.5,0.4c-0.1,0.8,0.5,1.2,1,1.4c2.2,0.8,4.1,2.1,5.8,3.8c0.5,0.5,1.2,0.9,1.8,1.2
		c1.5,0.9,2.9,1.8,4.4,2.6c0.7,0.4,1.5,0.8,2.2,1.3c1,0.6,1.6,1.6,1.2,2c-0.8,0.8-1.6,0.4-2.4,0c-0.8-0.4-1.6-0.7-2.3-1.1
		c-2.6-1.3-5.3-2.5-7.6-4.4l0.1,0.1c-1.3-0.9-2.7-1.8-3.8-2.8c-1.1-1.1-1.8-2.6-3.6-2.8c-2.1,3-2,4.2,0.4,6.1
		c0.3,0.2,0.6,0.4,0.9,0.7c3.4,2.9,6,6.4,8.6,10c0.8,1.1,0.6,1.4-0.8,2.8c-0.7-0.6-1.5-1.1-2.3-1.7c-2.3-1.6-4.5-3.3-6.8-4.9
		l0.1,0.1c-0.9-1.3-1.8-2.6-2.7-3.9c-0.3-0.4-0.7-0.7-1.1-1c-0.9-0.6-2-0.4-2.6,0.4c-1.3,1.6-1.2,3.5,0.5,4.9
		c3.9,3.2,7.2,7,10.7,10.6c0.2,0.2,0.4,0.3,0.6,0.5c0.4,0,0.7-0.1,1.1-0.1c0.2,0.2,0.5,0.4,0.4,0.6c0,2,1.2,2.8,2.9,3.3
		c1.1,0.3,2.1,0.6,3.1,1c1.7,0.7,3.4,1.4,5,2.2c0.7,0.4,1.3,1.1,1.8,1.8c0.1,0.2-0.1,0.7-0.2,0.9c-0.1,0.2-0.4,0.3-0.6,0.2
		c-0.6-0.2-1.1-0.4-1.7-0.6c-1.6-0.6-3.2-1.3-4.7-1.9c-0.8,0.6-1.5,1.1-2.3,1.7c-1.7,0-3.5-0.2-5.3,0c-2.1,0.2-4.1,1-4.9,3.3
		c0.3,0.5,0.6,1,0.9,1.3c-0.2,0.3-0.2,0.4-0.3,0.5c-0.5,0.5-1,1.2-1.8,0.9c-1.1-0.4-0.5-1.1-0.4-1.8c0-0.3-0.2-0.7-0.3-1
		c-0.3-1.4,0.2-2.6,1.1-3.7c1-1,2.2-1.6,3.6-1.7c1.8-0.2,3.5-0.3,5.5-0.5c-1-0.7-2.2-1.1-2.7-1.9c-1.3-2.1-3.2-3.7-4.9-5.5
		c-1.8-2-3.6-4-5.4-5.9c-0.2,0.3-0.5,0.5-0.5,0.7c-0.8,4.4-2,8.8-0.8,13.4c0.6,2,0.5,4.1-1.3,5.8c0.1,1,0.3,2.1,0.4,3.4
		c-0.7-0.1-1.3,0-1.5-0.2c-0.4-0.6-0.8-1.3-0.9-1.9c-0.9-3.4-2.3-6.7-4-9.8c-1-1.8-1.8-3.7-2.8-5.7c-3.6,1.8-6.7-0.5-9.9-1.4
		c-1.2,0.5-1.8,1.1-1.8,2.2C324.7,362.7,324.4,363,324.3,363.5z M341.3,360.5c-0.2-0.1-0.1-0.8-0.5-0.1
		C341,360.4,341.2,360.4,341.3,360.5c0.1,0.2,0.1,0.5,0.3,0.8c0.1,0.2,0.4,0.2,0.6,0.3c0.1,0,0.2-0.2,0.2-0.2
		c-0.1-0.3-0.2-0.6-0.4-0.8C341.8,360.5,341.5,360.6,341.3,360.5z M357.3,325.8c1.2,0.2,2-0.2,2.3-1.4c0.1,0,0.2,0,0.3,0
		c0.1,0,0-0.2,0.1-0.3c-0.1,0.1-0.2,0.2-0.3,0.3c-1.2-0.2-1.7,0.7-2.2,1.4c-0.1,0.1-0.2,0.1-0.2,0.2c0,0,0,0.1,0,0.2
		C357.2,326.1,357.3,326,357.3,325.8z M422.2,416.4c-0.5-0.6-1-0.9-1.8-0.1C421.1,416.3,421.7,416.3,422.2,416.4
		c0.9,1.1,2,0.8,3.1,0.2C424.3,416.6,423.2,416.5,422.2,416.4z M332.4,356.1c1.1,0.7,2.1,1.5,3.7,1.3
		C334.9,355.9,333.6,356.1,332.4,356.1c-1.6-1.9-2-2-3.2-0.2C330.3,356,331.3,356.1,332.4,356.1z M319.2,419.3
		c0.7,0.1,1.4,0.3,2.1,0.4c1.5,0.1,2.6-0.6,3.5-2.4c-1.9,0.6-3.5,1.1-5.1,1.6C319.5,419,319.4,419.3,319.2,419.3
		c-0.5,0.1-1.2,0-1.4,0.8c-0.5,0.1-1,0-1.4,0.2c-4.7,1.7-9,4.3-12.9,7.3c-0.7,2.5-1.4,4.9-1.6,7.9c2.6-4.1,5.5-7.4,8.5-10.5
		c1.2-1.2,2.5-2.3,4.2-2.7c1.2-0.3,2.5-0.9,3.1-2.2C318.3,420.1,319,420.2,319.2,419.3z M316.1,325.8c1.1,0.5,1.9-0.3,2.7-0.7
		c1.4-0.7,3.1-1.1,4.5-2.7C320.2,322.7,317.6,323.1,316.1,325.8c0,0.1-0.1,0.2-0.2,0.2c0,0,0,0.1,0,0.2
		C316,326.2,316.1,326,316.1,325.8z M455.4,504.8c-1.4-0.1-2.8-0.3-4.4-0.4c0,1-0.1,1.6-0.1,2.3c0,0.8-1.5,1-0.9,2.4
		C452,507.9,454.3,507.2,455.4,504.8c0.1-0.2,0.3-0.3,0.4-0.4c0-0.1-0.2-0.3-0.2-0.4c-0.1,0.1-0.2,0.2-0.2,0.3
		C455.3,504.4,455.4,504.6,455.4,504.8z M740.1,559.2c-2.7-1-3.9-3.1-4-5.9c-0.8-0.6-1.6-1.2-2.7-2c-0.6,2-1.2,3.7-1.9,5.7
		c-0.5-0.6-0.8-1-1-1.4c-0.7-1.9-0.8-3.8-0.3-5.8c0.2-1.1,0-1.2-1.6-1.9c-1.4,3.5-1.4,3.6-3.5,4.9c-1-3.2-1.5-6.2,0.7-9.1
		c-0.6-0.5-1.1-1-1.7-1.4c-3.3,6.5-3.4,6.7-6.4,7.9c0.3-4,2.3-7.5,2.5-11.6c-1.5-1.1-3-2.2-4.4-3.3c-1.6-1.2-3.2-2.3-4.7-3.6
		c-1.4-1.2-2.7-2.4-4.2-3.8c-0.2,0.8-0.6,1.7-0.7,2.6c-0.2,1.7-0.3,3.4-0.2,5.1c0.1,3.4-1.3,6.2-3.9,8.3c-3.5,2.9-7.3,5.4-11.4,7.4
		c-0.3,0.2-0.7,0.1-1.1,0.2c-1.3-0.6-2.7-1.1-4-1.7c-0.8-0.4-1.8-1-2.3-1.8c-0.7-1-1.6-1.8-2.3-2.7c-0.8-1-1-2.4-1.6-3.7
		c-0.2-0.5-0.4-0.9-0.7-1.3c-0.9-1.3-1.9-2.1-3.6-2.2c-2.2-0.2-4.3-0.3-6.5,0c-1.5,0.2-2.2,0.9-2,2.4c0.1,1.3,0.4,2.7,0.6,4
		c0.3,2,0.1,3.9-0.9,5.7c-0.4,0.7-0.7,1.6-0.8,2.4c-0.5,4.1-1,8.3-1.4,12.4c-0.1,1.5-0.2,2.9-1.3,4.1c-0.6,0.7-0.8,1.5-0.8,2.4
		c0,2.9,0,5.8,0,8.8c2,1.7,4.3,2.9,6.8,3.5c3.6,0.9,7.1,1.7,10.7,2.5c3.7,0.8,7.5,1,11.3,0.5c3-0.4,6.1-0.9,9.1-1.5
		c1.4-0.3,2.9-0.7,4.1-1.5c2-1.3,4.2-2,6.4-2.7c2.2-0.7,4.3-0.6,6.5,0.1c2.2,0.7,4.4,1.4,6.7,2.1c4.7,1.5,9.4,1.7,14.1,0.3
		c2.7-0.8,5.5-1.1,8.3-1.3c3.7-0.3,7.3-0.8,11-1.2c1.7-0.2,3-0.8,4.3-1.9c1.6-1.3,3.3-2.5,5.1-3.5c2.6-1.4,4.2-3.7,5.6-6.1
		c0.7-1.3,1.1-2.8,0.8-4.3c-0.4-2.4-1-4.8-2.4-6.8c-2.1-0.1-4,0-5.9,0.5c0.3,0.9,1,1.6,0.2,2.5c-0.6,0.7-1.4,1-2.3,0.8
		c-2.5-0.4-5.1-0.8-7.6-1.4c-3.4-0.9-6.7-2.2-10.1-3.3c-0.2-0.1-0.4,0.1-0.6,0.2c0,0.5,0,1.1,0,1.9c-1.5-0.2-3,0.4-4.2-0.8
		c1.3,0,2.2-0.7,2.9-1.8c-1.1-0.7-2.1-1.4-3.4-1.5c0,0.6-0.1,0.9-0.1,1.3C739.6,557.8,739.9,558.5,740.1,559.2z M314.7,511.5
		c0-0.1,0-0.2-0.1-0.3c0-0.1-0.1-0.1-0.1-0.1c0.1,0.1,0.2,0.2,0.3,0.4c1,1.5,2.1,3,3.1,4.6c3.3,5.5,7.2,10.5,12.1,14.7
		c5.9,5.2,11.8,10.3,17.8,15.4c0.5,0.4,1,0.9,1.5,1c2.1,0.4,3.5,1.8,5,3c5.4,4.3,11.3,7.7,17.9,9.9c4.6,1.5,9.3,2.9,14,4.4
		c0.9,0.3,1.9,0.5,2.7,1c2.2,1.2,4.3,2.3,6.3,3.7c1.5,1,3,1.6,4.6,2.1c6.4,1.8,12.7,3.5,19.1,5.4c2.1,0.6,4.2,1.2,6.5,1.1
		c1.2,0,2.4,0.3,3.6,0.6c3.3,0.7,6.7,1.5,10,2.2c0.9,0.2,1.9,0.4,2.7-0.3c-0.7-1.2-1.4-2.2-1.8-3.3c-0.4-1.1-0.6-2.4-0.8-3.6
		c-0.9-4.7-1.3-9.5-1.3-14.2c0-7.7,0.4-15.4,0.7-23.1c0-1,0.3-1.9,0.4-2.9c0.1-0.7,0.4-1.4-0.3-2.2c-2-0.7-4-0.2-6.1-0.1l0.1,0.1
		c0.2-0.3,0.3-0.7,0.6-0.8c2.1-0.8,4.1-1.5,6.3-2.3c0.1-0.5,0.3-1.1,0.4-1.7c0.9-5.2,2.1-10.3,3.8-15.3c0.3-0.8,0.4-1.7,1.3-2.1
		c0.5,0.1,0.9,0.1,1.3,0.2c1.5-3.6,3-7,4.5-10.5c0.9-0.4,1.9-0.9,2.7-1.2c-0.3-2.4-0.6-4.6-0.8-6.7c-1.5-1.6-3.5-1.6-5.4-1.8
		c-1.4,1.1-1.8,2.7-2.2,4.2c-1.7,7.4-3.5,14.8-5.3,22.1c-0.1,0.5-0.6,1-0.8,1.4c0.1-4.7,1.2-9.2,1.9-13.8c0.7-4.6,1.7-9.1,2.4-13.6
		c-1-0.9-1.7-2-3.1-2.1c-2.8,8-5.6,15.8-8.4,23.7c0,0.1-0.2,0.2-0.3,0.2c-0.1,0-0.2,0-0.7-0.2c1.3-4.3,2.4-8.6,3.6-12.9
		c1.2-4.5,2.6-8.9,3.8-13.3c-1-2.4-2.5-3.9-4.8-4.9c-1.8-0.8-3.6-1.6-5.2-2.7c-2.2-1.4-4.5-1.5-7-1.3c-3.8,0.3-7.6,0.6-11.4,0.2
		c-4.2-0.4-8.3-0.4-12.5-0.6c-0.7,0-1.4,0.2-1.8,0.3c0.1,3.8,0.4,7.4,0.2,10.9c-0.6,11.6-5.1,21.3-14.5,28.5
		c-1.6,1.2-3.2,2.4-5.2,3.1c-3.3,1.2-6.6,2.7-9.9,3.9c-1.7,0.6-3.6,0.9-5.4,1.1c-1.6,0.2-3.2,0.1-4.8,0.3c-1,0.1-2,0.5-3,0.8
		c-3-0.6-6-1.2-9-1.8c-5.8-1.2-11.5-2.5-17.1-4.3c-2.7-0.9-5.2-2.1-7.4-4C318.1,512.7,316.5,512,314.7,511.5z M598.3,425.9
		c0.2,0.6,0.3,0.7,0.3,0.8c-0.9,2.1-1.8,4.3-2.7,6.4c-0.3,0.8-0.7,1.6-0.8,2.4c-0.2,3.2-0.6,6.4-0.5,9.5c0.2,7,1.1,13.9,3.4,20.6
		c0.8,2.3,1.8,4.5,3.6,6.3c0.6,0.6,1.3,1.2,1.6,2c1.4,3,3.9,5,6.4,6.9c2.3,1.8,4.6,3.7,6.7,5.7c4.1,3.8,8.5,7.4,13.4,10.3
		c2.5,1.5,5.2,2.7,6.9,5.3c0.2,0.3,0.6,0.5,0.8,0.7c4.4,3.5,8.4,7.5,12.2,11.7c5.3,5.9,10.2,12.2,16.5,17.2c1,0.8,1.9,1.9,2.9,2.8
		c0.7,0.7,1.4,1.3,2.1,1.8c1.1-0.1,1.9-0.3,2.8-0.3c3.3-0.1,5.6,1.3,7,4.3c0.2,0.4,0.3,0.9,0.6,1.3c2.1,3.3,4.2,6.6,9.1,7.3
		c1.5-0.9,3.4-1.8,4.9-3.1c2.4-2.1,4.5-4.5,6.7-6.8c0.4-0.4,0.7-1.1,0.7-1.6c0.1-1.9,0.5-3.9,0.1-5.9c-2.4-0.8-4.3-2.4-6.2-4
		c-2.4-2-4.1-4.5-6.1-6.8c-5.6-6.4-10.4-13.3-14.2-20.9c-0.5-1-1.1-1.9-1.7-2.9c-4.5-7.9-9-15.7-13.5-23.6c-2-3.6-3.6-7.5-4.6-11.6
		c-0.4-1.4-0.9-2.8-1.6-4.1c-6.8-11.5-12.8-23.4-20.4-34.4c-2.2-3.1-3.9-6.5-5.2-10.1c-0.5-1.4-1.2-2.7-1.8-4
		c-0.9-1.9-1.8-3.7-2.5-5.7c-1.4-3.9-3.1-7.7-5.4-11.2c-1.2-1.8-2.5-3.7-3.7-5.5c-0.6-0.9-1.4-1.6-2.4-2.3
		c-4.9-3.3-10.3-5.7-14.6-9.8c-0.5-0.5-1.2-0.8-1.9-1.1c-0.4-0.2-0.9-0.4-1.4-0.4c-3.2,0.3-6.4,0.5-9.4,1.5
		c-0.4,0.1-0.8,0.5-1.2,0.8c-7.5,5.7-15,11.5-22.4,17.3c-5.3,4.2-10.7,8.3-15,13.5c-0.1,0.2-0.4,0.2-0.6,0.3
		c-0.5-0.1-0.9-0.2-1.5-0.3c-10.5,10.5-21.2,20.7-29.9,32.6c0.8,2.8,2.1,5.2,3.6,7.4c1.6,2.3,3.4,4.5,5.2,6.7c1.8,2.2,3.5,4.4,4.6,7
		c5.1,11.4,8.5,23.2,9.5,35.7c0.3,3.3,0.8,6.6,1.2,9.9c0.2,2,1.2,3.4,3,4.3c2.3,1.2,4.8,2,7.3,2.2c6.5,0.7,12.9,0.1,19.3-0.7
		c2.1-2.6,4.8-4.4,7.4-6.2c3.5-2.4,7-5,10.4-7.5c0.6-0.4,1-1,1.6-1.6c-1.3-3.1-2.8-6.1-4.4-9c-1.6-2.8-2.9-5.8-5.1-8.5
		c-1.6,4.1-3.1,8-4.7,11.9c-2.4,5.7-5,11.2-8.1,16.5c-0.7,1.2-1.5,2.3-2.3,3.4c-0.3,0.4-0.6,0.8-1,1c-0.4,0.2-1,0.3-1.4,0.1
		c-0.4-0.2-0.8-0.8-0.7-1.1c0.2-1.2,0.5-2.4,1-3.5c5.4-11.4,10.7-22.8,16.2-34.2c1.3-2.7,2.4-5.3,3.2-8.2
		c2.9-10.7,6.9-20.9,11.9-30.8C594.7,430.9,596.3,428.4,598.3,425.9z M378.3,403.1c-0.2,0.7-0.3,1.4-0.6,2.1c-0.3,0.6-0.8,1-1.6,1.9
		c2.5,0.3,4.5,1.3,6.8,0.7c1.3-0.3,2.7-0.1,4,0.4c0.7,0.3,1.4,0.6,2.1,0.6c1.8,0.1,3.1,1,4.5,2c2.5,1.9,5.2,3.2,8.5,2.4
		c0.6-0.1,1.2-0.2,1.8-0.3c2.8-0.3,5.6-0.8,8.4-0.9c1.4-0.1,2.8,0.5,4.2,0.8c4.1,0.7,8.2,1.2,12.2,2.4c0.4,0.1,0.9,0,1.6,0
		c-1-1.8-1.9-3.4-2.8-5c-0.3-0.6-0.8-1.3-0.9-2c-0.2-1.6-1-2.7-2-3.9c-4.3-5-8.6-10-12.5-14.5c-2.8-1-5-1.7-7.1-2.5
		c-1.7-0.7-3.4-1.2-5.3-1.1c-1.7,0-3.4-0.2-5.1-0.6c-2.7-0.6-5.4-1.4-8.1-2.2c-1.6-0.5-3.5-0.2-5.2-1.9c0.2,1.6,0.3,2.7,0.4,3.7
		c-0.9,0.5-1.7,0.9-2.5,1.3c0.2,0.4,0.4,0.7,0.6,0.9c0.9,1.4,1,1.9,0.1,2.9c-0.7,0.8-1.5,1.6-2.1,2.3c2.2,6.6,2.8,8.8,2.3,9.7
		C379.4,402.6,378.9,402.8,378.3,403.1z M510.7,438.5c1.9-1.2,3.2-2.8,4.3-4.5c3.1-4.6,6.5-8.9,10.5-12.7c3.9-3.7,7.8-7.4,11.8-11
		c5.9-5.3,12.5-9.9,17.8-15.8c0.4-0.5,0.9-0.8,1.4-1.2c7.5-6.5,15.3-12.6,23.6-18.1c1.2-0.8,2.2-1.7,2.8-3.2
		c-0.5-0.2-0.9-0.3-1.2-0.4c-3.4-1.4-6.6-0.9-9.9,0.8c-3,1.6-6.2,2.8-8.9,4c-1.4,1.4-2.5,2.6-3.7,3.7c-0.8,0.7-1.8,1.3-2.7,2
		c-8,5.9-16,11.7-23.4,18.3c-1.1,1-2.1,2.1-3,3.2c-2.7,3.5-5.2,7.1-8.1,10.4c-3.9,4.6-8,8.9-12.1,13.4c-0.6,0.7-1.2,1.5-1.8,2.3
		c0.6,2.6,1.1,5.1,1.7,7.6C510,437.6,510.4,438,510.7,438.5z M483.4,459.8c-1.7,0.6-2.6,0.9-3.5,1.2c-7.9,2.9-15.9,5.8-23.8,8.7
		c-1.4,0.5-2.8,0.9-4.2,1.3c-5.8,1.5-11.5,2.9-17.9,4.6c3.3,1.5,4.9,4,6.3,6c4.9,0.3,8.9,2.4,13.2,3.5c0.3-1.3,0.5-2.4,0.9-3.4
		c0.6-1.5,1.2-2.9,2-4.3c2.7-4.6,10.9-5.6,14.6-0.7c3,0.1,5.4-1.4,7.1-3.7c1.6-2,2.8-4.3,4.2-6.5c-0.3-0.9-0.5-1.8-0.8-2.7
		C482.2,462.7,482.6,461.6,483.4,459.8z M730.3,543.7c0.7,0.9,1.1,1.5,1.6,1.9c1.7,1.4,3.4,2.7,5.1,4.1c4.1,3.4,9,5.4,14.2,6.5
		c0.4,0.1,0.8-0.1,1.4-0.1c-0.6-1.9-1-3.5-1.7-5.1c-0.7-1.7-0.4-3.7-1.5-5.1C743.2,544.3,736.9,544.8,730.3,543.7z M407.5,415.4
		c-1.8-0.8-3.3-0.2-4.9,0.1c-2.1,0.4-4.1,0.5-6-0.7c-1.3-0.8-2.9-1.3-4.3-2c-2.6-1.3-5.6-0.7-8.2-2c-0.7-0.3-1.6,0-2.8,0
		c1.7,1.1,3.2,1.9,4.6,3c1.4,1.1,2.7,2.5,4,3.8c1.3,1.3,2.8,1.4,4.4,1.1c3.5-0.7,6.9-1.5,10.4-2.3
		C405.6,416.1,406.5,415.7,407.5,415.4z M688.5,511.6c-0.2,0.2-0.4,0.4-0.6,0.6c0.6,0.8,1.1,1.6,1.7,2.3c2.8,3.4,5.5,6.9,8.5,10.1
		c1.6,1.8,3.7,3.1,5.7,4.7c0.3-0.7,0.5-1.2,0.8-1.8c0.3-0.7,0.5-1.3,0.7-2c-2.6-2.1-4.5-4.6-7.7-5.7c-1.3-0.4-2.5-1.6-3.5-2.6
		c-1.4-1.3-2.6-2.9-4-4.3C689.5,512.4,689,512,688.5,511.6z M590.9,447.8c-1.1,2.1-2.1,3.8-1.6,5.8c0.5,2.5,1.2,4.9,3.3,6.9
		C592.1,456.3,591.5,452.3,590.9,447.8z M301.5,370.5c1,4.3,1.7,8.7,3.4,13.5c0-1.5,0.2-2.4,0-3.2c-0.8-2.9-1.7-5.8-2.5-8.7
		C302.2,371.5,301.8,371,301.5,370.5z M333.5,319.6c0.9,1.5,1.8,2.1,2.8,1.6c1.1-0.6,2.3-1.2,3.1-2.5
		C337.1,318.2,335.3,318.7,333.5,319.6z M335.5,344.6c-1.5,0.3-2,1.1-2.2,2.4c0.6,0.5,1.2,0.9,2,1.5
		C336.6,347.1,336.2,346,335.5,344.6z M314.3,356.6c1.8-2,2.2-2.9,2.3-5.1C314.7,352.6,314.1,354.3,314.3,356.6z M299.1,358.5
		c0.3-2.3-0.1-4-1.7-5.9C297.1,355,297.9,356.7,299.1,358.5z M325.2,345.4c1.7,0.2,1.7,0.2,3.4-2.3c-0.9-0.8-1-0.8-1.3-0.5
		C326.2,343.3,325.5,344.2,325.2,345.4z M296.9,346.1c0-2.3,0-4.6,0-6.9c0-0.5-0.1-0.9-0.1-1.4C296.9,340.6,296.2,343.4,296.9,346.1
		z M452.1,502c1,0.7,2,0.3,2.9,0.1c0.1,0,0.1-0.4,0.2-0.8c-0.7-0.3-1.5-0.7-2.4-1.1C452.5,501,452.3,501.5,452.1,502z M366.5,319.9
		c1.8,0.2,3.1,0.2,4.9-0.5C369.5,318.4,368.2,318.8,366.5,319.9z M306.2,319.7c1.1,1,1.9,0.2,2.6-0.4c0.1-0.1,0.2-0.4,0.3-0.7
		c-0.4-0.2-0.7-0.5-1.3-0.8C307.3,318.5,306.7,319.1,306.2,319.7z M312.4,326c-1.4,0.6-2.5,1-1.8,2.5
		C311.8,328.3,312,327.4,312.4,326z M329.3,335.8c1.3,0,1.3,0,2-0.9c-0.2,0-0.5-0.2-0.6-0.1C330.2,335.1,329.7,335.4,329.3,335.8z
		 M361.6,315.3c-1.2-0.2-1.6-0.2-1.9-0.2c-0.2,0-0.3,0.2-0.5,0.4c0.2,0.2,0.5,0.5,0.7,0.6C360.2,316,360.5,315.7,361.6,315.3z
		 M322.3,380.6c-0.4-0.3-0.6-0.5-0.8-0.7c-0.2,0.2-0.4,0.5-0.6,0.7c0,0,0.3,0.4,0.4,0.4C321.6,381,321.8,380.8,322.3,380.6z
		 M372.2,323.1c-0.8,0-1.1-0.1-1.4,0c-0.2,0-0.3,0.3-0.4,0.5c0.2,0.1,0.4,0.2,0.5,0.2C371.2,323.7,371.5,323.5,372.2,323.1z
		 M346,320.3c0.5,0.5,0.9,0.3,1.2-0.1c0.1-0.1,0.1-0.3,0.1-0.3c-0.2-0.1-0.4-0.3-0.5-0.2C346.5,319.8,346.3,320.1,346,320.3z
		 M349.9,340.5c-0.1-0.2-0.1-0.3-0.2-0.5c0,0.1-0.1,0.2-0.1,0.3c0,0.2,0.1,0.3,0.2,0.5C349.8,340.7,349.8,340.6,349.9,340.5z
		 M432.8,474.3c-0.2-0.1-0.4-0.1-0.6-0.2c0,0.1-0.1,0.4,0,0.4c0.2,0.1,0.4,0.1,0.5,0.1C432.8,474.5,432.8,474.4,432.8,474.3z
		 M320.9,357.2c0-0.2-0.1-0.4-0.1-0.5c-0.1,0-0.3,0.1-0.3,0.1c-0.1,0.2-0.1,0.4-0.2,0.5C320.5,357.3,320.7,357.2,320.9,357.2z
		 M445.4,526l-0.1,0l0,0.3L445.4,526z M323.3,359.4c0,0.2-0.1,0.3-0.1,0.5c0.1-0.1,0.1-0.1,0.2-0.2
		C323.3,359.6,323.3,359.5,323.3,359.4z M346.9,344.4c0-0.1,0.1-0.2,0.1-0.3c-0.1,0-0.3,0.1-0.4,0.1c0,0.1,0.1,0.2,0.1,0.3
		C346.7,344.5,346.8,344.4,346.9,344.4z M350.4,342.5c0,0.1-0.1,0.2-0.1,0.3c0.1,0.4,0.2,0.4,0.3,0c0-0.1,0-0.2,0-0.3
		C350.6,342.5,350.4,342.5,350.4,342.5z M303.5,340.3l0.3,0.1l0-0.2L303.5,340.3z M316.7,311c0-0.1,0-0.2-0.1-0.2
		c-0.1,0-0.2,0-0.3,0c0,0.1,0.1,0.2,0.1,0.4C316.5,311,316.6,311,316.7,311z M310.7,345.6l0.1-0.2l-0.2,0L310.7,345.6z"/>
	<path d="M442.7,221c-7.3,0.5-14.5,1-21.7,1.6c-1.2,0.1-2.5,0.2-3.7,0.2c-6.4-0.4-12.7,0.3-19.1,0.8c-4.3,0.3-8.6,0.3-12.9,0.3
		c-2.5,0-4.9,0.3-7.2,1c-1.9,0.6-3.8,0.8-5.8,1.1c-7.2,0.9-14.4,1.7-21.5,2.5c-3.9,0.5-7.8,0.9-11.7,0.2c-0.7-0.1-1.5,0-2.2,0.1
		c-6.7,0.7-13.4,1.5-20.1,2.2c-4.9,0.5-9.8,1-14.6,1.5c-0.5,0-1,0.1-1.5,0.2c-3.9,0.6-7.7,1.5-11.6,1.7c-9.4,0.6-18.9,1-28.2-0.6
		c-1.2-0.2-2.2,0-3.2,0.4c-3.9,1.5-7.8,3-11.6,4.5c-4,1.6-7.9,3.3-11.9,5c-0.2,0.1-0.5,0.1-0.7,0.3c-3.1,2-6.8,2.8-10,4.5
		c-3.2,1.8-6.5,3.4-9.7,5.2c-4.1,2.3-8.6,3.5-13.2,4.4c-1.6,0.3-3.2,0.2-4.7-0.2c-1.9-0.6-3.8-0.4-5.8,0.2c-3.1,0.9-6.1,1.7-9.3,2.3
		c-4.5,0.8-9.1,0.4-13.5-0.7c-2.6-0.7-4.6-2.2-5.8-4.7c-1.1-2.5-2.9-4.5-5.3-6c-3.6-2.2-6.1-5.4-7.9-9c-1.4-2.7-2.4-5.6-3.6-8.4
		c-0.5-1.1-0.8-2.3-1.4-3.4c-2.5-4.1-3.8-8.5-4.6-13.1c-0.2-0.8-0.3-1.7-0.5-2.5c-0.2-0.6-0.3-1.3-0.7-1.7
		c-3.3-3.2-4.8-7.4-6.3-11.5c-0.1-0.2-0.2-0.4-0.3-0.6c-1.2-0.9-2.5-1.6-3.6-2.5c-0.2-0.1-0.2-0.7-0.1-1c0.1-0.2,0.5-0.4,0.8-0.5
		c0.2-0.1,0.5,0.1,0.7,0.2c0.2,0,0.5,0,0.9,0c0.1-0.4,0.2-0.9,0.1-1.3c-0.3-0.9-0.6-1.9-1.1-2.7c-1.7-2.8-2.5-5.8-2.2-9.1
		c0.1-1.4-0.2-2.9-0.3-4.5c-0.8-1.3-2-2.5-2.3-4.3c-0.1-0.6-0.9-1.1-1.3-1.7c-0.7-1-1.4-2-2-3.1c-0.2-0.4-0.1-1.2,0.1-1.7
		c0.3-0.6,1-0.6,1.6-0.3c0.5,0.2,1,0.4,1.9,0.8c-0.4-1.6-0.8-2.9-1.1-4.1c-0.4-1.3-0.7-2.6-1.2-3.8c-0.8-2.2-0.8-2.2,0.6-4.3
		c-0.1-0.3-0.3-0.6-0.5-0.9c-0.6-1-0.3-1.9,0.5-2.6c0.9-0.7,1.9-1.4,3.1-2.2c-0.7-0.3-1.1-0.6-1.6-0.7c-1-0.4-2.1-0.6-3.1-1
		c-1.7-0.7-1.8-1.4-0.3-2.9c0.6-0.6,0.8-1.1,0.7-1.9c-0.1-0.7,0.1-1.3,0.1-1.9c1.8-0.7,2.4,1.3,3.9,1.2c-0.1-0.4,0-0.8-0.2-1.1
		c-0.5-0.8-1-1.7-1.6-2.5c-1.5-1.8-1.4-3.5,0.3-5.3c1.7-1,3.8-0.4,5.7-0.7c0.4-0.5,0.8-1.1,1.2-1.7c1.2,0.7,2,1.2,2.8,1.7
		c0.4-0.3,0.8-0.6,1.2-1c3.5,3.3,5.2,7.6,7.8,11.6c4.6-1.1,8.3-3.7,11.9-6.3c1.7-1.3,3.6-2,5.6-2.5c2-0.5,3.7-0.4,4.9,1.7
		c1.2-0.9,2.3-1.6,3.4-2.4c3.1-2.4,6.4-4.5,9-7.4c0.2-0.3,0.5-0.5,0.8-0.7c2.8-2.1,4.8-2,7.5,0.4c0.4,0.3,0.7,0.6,1.1,0.9
		c1.4,0.1,2.4-0.7,3.5-1.2c1.3-0.6,2.3-0.5,3.3,0.6c0.3,0.4,0.7,0.6,1,0.9c0.4-0.1,0.7-0.1,0.8-0.2c1.9-2.5,4.4-2.8,7.2-2
		c0.9,0.2,1.9,0.5,2.9,0.7c0.7-0.6,1.4-1.1,2.1-1.6c3.5-2.3,8.9-1.6,11.3,1.7c1.5,2,3.3,4,3,6.8c0,0.3,0.2,0.7,0.4,1.2
		c0.9,0.4,1.9,0.9,2.9,1.3c3.1,1.5,6.2,2.9,9.3,4.5c3.4,1.7,6.3,4.2,8.6,7.3c1,1.3,1.9,2.4,3.7,2.7c1.1,0.2,2,1.2,3,1.8
		c1.9-1.1,3.9-2.2,5.7-3.3c0.7-0.4,1.4-1,1.9-1.6c0.6-0.8,1.3-1.4,2.3-1.7c4.6-1.8,9.1-3.7,13.6-5.5c3.2-1.2,6.4-2.5,9.8-3
		c0.5-0.1,1-0.2,1.4-0.4c4.4-2.2,9.2-2.4,13.9-3.1c4,0.6,7.8-0.6,11.7-1c4.2-0.4,8.3-0.5,12.4,0.6c3,0.8,6.1,1.7,9.4,1.4
		c1-0.1,2,0,2.9,0.3c2.7,0.9,5.5,1.5,7.9,2.8c2.6,1.4,5.3,2.4,8.1,3.2c0.2,0.1,0.5,0.2,0.7,0.2c4.5-0.2,9,1.3,13.6,0.5
		c1.3-0.2,2.7-0.1,4,0c3.4,0.2,6.8,0.6,10.3,0.9c4.4,0.3,8.8,0.4,13.2-0.3c5.6-0.8,11.3-0.5,16.9,0c2.3,0.2,4.6,0.6,7,0.5
		c5.6-0.1,11,0.7,16.4,1.6c2.7,0.4,5.3,0.8,8,1.3c1.4,0.2,2.9,0.6,4.5,0.9c1-1.1,2.3-1.8,4-1.7c2.6,0.2,4.8-1,6.7-2.5
		c0.8-0.6,1.6-1.3,1.9-2.2c1.6-3.8,4.6-6.6,7.3-9.6c0.3-0.4,0.7-0.7,1.1-1c1.2-1.1,2.1-2.3,2.6-3.9c0.3-1.2,0.9-2.3,1.5-3.4
		c1.5-2.7,2.9-5.4,4.5-8c2.9-4.8,5.8-9.6,8.5-14.6c1.9-3.7,4.3-7.2,6.4-10.7c1-1.7,1.9-3.4,3-5.1c1.7-2.7,3.3-5.4,5.2-8
		c2.5-3.4,5.1-6.6,7.8-9.8c1.7-2.1,3.5-4.1,5.3-6.1c4.9-5.6,9.9-11.2,14.8-16.9c8.4-9.8,18-18,29.2-24.3c3.4-1.9,6.6-4.2,9.9-6.3
		c2.9-1.9,5.8-3.6,9.2-4.6c1.5-0.4,2.8-0.5,4.3,0.1c1.5,0.6,3,1,4.5,1.5c2.8,0.9,5.7,1.6,8.6,0.8c0.5-0.1,1-0.1,1.5-0.2
		c3.3-0.6,6,0.5,8.6,2.3c2.4,1.7,4.7,3.5,6.8,5.5c2,1.8,4,3.6,6.6,4.6c0.6,0.3,1.2,0.9,1.7,1.4c5.6,5.6,9.5,12.1,11.7,19.7
		c0.9,3,1.9,6.1,3.3,9c1.1,2.3,2.7,4.3,4.1,6.5c0.3,0.5,0.7,1,1,1.5c7,9.4,12.4,19.7,17.3,30.3c6,13,12.3,25.9,19.6,38.2
		c2.3,3.9,4.3,8,6.3,12c1.6,3.2,3.7,6,5.9,8.6c0.3,0,0.5,0.1,0.6,0.1c2.8-1.7,3.2-1.7,5.5,0.1c0.9,0.7,1.7,1.5,2.4,2.2
		c2.8,2.7,5.5,5.6,8.4,8.2c2.4,2.1,5,3.9,7.6,5.8c1.2,0.9,2.8,1.5,3.1,3.4c0.1,0.5,0.8,0.9,1.3,1.2c1.5,1.1,3,2.1,4.5,3.2
		c0.8,0.6,1.6,1,2.7,0.6c0.9-0.3,1.6,0.4,2,1.2c0.4,0.9,0.6,1.8,0.9,3c0.8-0.6,1.4-0.9,1.9-1.3c0.2,0.1,0.5,0.1,0.7,0.3
		c1.8,2.3,4.3,3.1,7.1,3.2c4.6,0.3,9.3,0.7,13.9,1.1c2.9,0.2,3.7,0.9,4.5,3.9c0.7,2.5,0.7,5.1,0.4,7.7c-0.1,0.8-0.2,1.6-0.3,2.7
		c0.9,0.1,1.6,0.4,2.3,0.3c2.2-0.1,4.4-0.3,6.6-0.5c2-0.2,3.9-0.3,5.8-0.6c3.6-0.5,6.1,1,8,4.2c-0.8,1.7-1,3.5-0.5,5.5
		c0.6,2.6-0.3,5.1-1.9,7.3c-2.3,3.2-4.7,6.3-8.2,8.2c-1.1,0.6-2,1.5-2.9,2.3c-1.6,1.3-3.3,2-5.4,2.2c-4.8,0.5-9.5,0.9-14.3,1.5
		c-1.7,0.2-3.4,0.6-5,1.1c-5,1.4-9.9,1.1-14.9-0.4c-2-0.6-4.1-1.1-5.9-1.9c-3.5-1.6-6.9-0.8-9.8,1c-3.2,1.9-6.5,2.8-10,3.2
		c-1.2,0.1-2.4,0.4-3.6,0.6c-5.6,1-11.2,0.7-16.8-0.7c-3.2-0.8-6.4-1.5-9.6-2.4c-2.4-0.7-4.5-1.9-6.3-3.7c-1.4-1.4-2.4-2.8-1.8-5.2
		c0.6-2.2,0.3-4.6,0.4-6.9c0.1-1,0-2.1,0.5-2.8c0.9-1.4,0.9-3,1.1-4.6c0.7-4.6,1.3-9.2,2.2-13.8c0.4-2.1,0.5-4.1,0.2-6.2
		c-0.1-0.7-0.2-1.5-0.2-2.2c0-1.9,0.6-3.6,2.4-4.7c0.3-0.2,0.6-0.4,1.1-0.7c-5.1-5.5-10.5-10-16-14.5c-0.4,0.5-0.7,0.7-0.8,1
		c-0.1,3.1-1.1,6-1.9,9c-0.7,2.7-1.3,5.5-2,8.2c-0.4,1.7-0.7,3.4-1.2,5c-1.1,2.9-1.2,5.9-1.3,9c0,2.8-0.4,5.6-0.6,8.7
		c2.1,1.5,4.8,2,7.5,2.5c2.6,0.5,5.4-0.3,8.1,0.9c-0.2,0.6-0.2,1.3-0.6,1.7c-0.5,0.5-1.2,0.8-1.9,0.9c-3.8,0.3-7.6,0.1-11.2-1.4
		c-1.3-0.6-2.6-1.3-3.9-2.1c-1-0.6-1.3-1.6-1.3-2.8c0.2-3.9,0.6-7.8-0.1-11.7c-0.2-1,0-2.2,0.5-3.2c1.6-3.6,2.4-7.4,3.2-11.3
		c0.4-2.3,1.4-4.4,2-6.7c0.3-1.2,1.4-2.4,0.5-3.8c-0.2-0.3,0.3-1.1,0.6-1.6c0.8-1.4,1.6-2.7,2.4-4.2c-4.7-5.1-8.9-10.3-14-14.7
		c-2.6-2.3-5.3-4.3-8.3-6.1c-6.1-3.7-11.5-8.3-16.8-13.1c-1.5-1.4-3.1-2.8-4.8-4c-4.6-3.4-7.9-7.6-9.2-13.3
		c-0.4-1.8-1.2-3.5-2.8-4.6c-2.2-1.5-3.6-3.6-4.8-5.9c-0.2-0.4-0.5-0.7-1-1.4c-1.7,3.1-2.3,6.2-3.5,9.1c-1.2,2.8-2.3,5.6-3.6,8.8
		c4.2,5.7,7.6,12.1,10.4,19c0.6-0.2,1.1-0.3,1.7-0.5c0,0.3,0.3,0.8,0.1,1c-1,1.2-0.7,3.2-2.3,4c-0.2,0.1-0.4,0.6-0.4,0.9
		c0.3,1.8-0.9,2.7-2.1,3.6c-0.4,0.3-0.8,0.6-1.2,0.8c-3.9,1.7-6.3,4.9-8.7,8.2c-1.6,2.3-3.1,4.7-4.3,7.2c-2.4,4.7-4.6,9.5-6.9,14.2
		c-1,2-1.9,4-2.8,6c-1.9,4-4.6,7.5-7.9,10.5c-2.1,1.9-4.2,3.8-6.1,5.9c-4.8,5.3-10.2,9.8-15.5,14.6c-4,3.6-8.1,7.2-12.1,10.7
		c-1.8,1.5-3.6,3-5.4,4.4c-2.2,1.6-4.5,3-7.2,3.4c-1,0.2-1.9,0.6-2.8,1c-3.7,1.3-7.4,2.5-11.3,3c-1.5,0.2-2.9,0.2-4.4-0.1
		c-4.9-1-10-1-15-1.6c-4-0.5-8-0.9-12-1.6c-4.6-0.8-9.1-1.9-13.7-2.8c-1-0.2-1.9-0.5-2.8-0.8C445.8,223.9,443.9,223.1,442.7,221z
		 M185.3,209.6c0,0.1,0,0.2,0,0.4c0,0.1,0.1,0.1,0.2,0.1C185.5,210,185.4,209.8,185.3,209.6c-0.1-0.1-0.1-0.4-0.2-0.6
		c-0.1-0.1-0.2-0.2-0.4-0.3c0,0.2-0.1,0.5,0,0.6C184.9,209.5,185.1,209.5,185.3,209.6z M134.6,155.2c-0.1,0-0.2,0-0.3-0.1
		C134.4,155.2,134.5,155.1,134.6,155.2c0.2,1,0.8,1.3,2.4,1.1C135.8,155.8,135.2,155.5,134.6,155.2z M133,179.5l0.2,0.1L133,179.5
		c0.2-1.4,0.5-2.9-1.2-4.2C131.6,177.1,132.2,178.3,133,179.5z M199.2,194.3c0.3-0.2,0.7-0.3,0.9-0.6c1.9-2.3,4.3-3.5,7.3-3.5
		c0.8,0,1.7-0.5,2.5-0.3c2.9,0.7,4.6-0.7,6.2-2.8c2.4-3.3,4.6-6.6,7.2-9.7c2.3-2.8,4.6-5.7,6.7-8.8c4.3-6.5,9.7-12,16.7-15.7
		c0.4-0.2,1.2-0.3,1.1-1.3c-0.9-0.2-1.9-0.5-2.8-0.5c-1.2-0.1-2.5-0.1-3.7,0c-1.9,0.2-3.6-0.5-5.4-1c-0.1,0-0.1-0.2-0.2-0.3
		c0.1-0.2,0.2-0.4,0.4-0.8c-5.1-1.3-9.4-4-14.2-5.9c0.3-1,0.9-1.1,1.5-0.9c1.3,0.3,2.6,0.8,3.8,1.2c3,1,6,2.1,9,3.1
		c1.7,0.6,3.5,1.1,5.2,1.6c0.5,0.2,1.1,0.5,1.7-0.1c-0.1-0.9-0.9-1.1-1.5-1.4c-6.1-3.6-12.3-6.9-18.9-10.1c-0.7,2-1.3,3.7-2,5.5
		c-0.3-0.1-0.5-0.1-0.5-0.2c-0.1-0.3-0.3-0.7-0.3-1c0.3-2.9-0.6-5.6-1.3-8.3c-0.5-2-1.5-3.9-2.5-5.7c-1.3-2.2-3.7-2.8-6.1-1.6
		c-1,0.5-1.9,1.1-2.9,1.7c-1.3,0.8-2.8,0.9-4.3,0.5c-0.5-0.1-0.9-0.4-1.4-0.5c-2.5-0.6-3.1-0.2-4.4,2.7c0.6,0.5,1.3,1.1,1.8,1.7
		c0.4,0.4,0.7,1,0.9,1.5c0.1,0.3,0,0.9-0.2,1c-0.4,0.2-1,0.4-1.3,0.3c-0.5-0.2-1-0.7-1.3-1.2c-0.7-1-1.2-2.1-1.9-3.1
		c-0.8-1.2-1.8-2-3.4-2.2c-1.3,0.6-2.7,1.2-4.2,1.8c1.6,2.9,1.7,4.3,0.4,5.7c-0.9,0.9-1.9,0.9-3.1,0.1c0.4-0.7,0.8-1.5,1.1-2.1
		c-0.4-1.6-0.9-3.1-1.3-4.6c-0.6-2.3-2.4-3.1-4.4-1.7c-1.8,1.3-3.5,2.7-5.1,4.2c-1.9,1.7-3.7,3.5-5.6,5.2c-2.1,1.9-4.5,2.5-7,0.9
		c-1-0.7-2.1-0.6-3.2-0.3c-1.2,0.3-2.2,0.9-3.2,1.7c-3.9,3-8.1,5.4-12.6,6.7c-0.3,1.5-0.6,2.9-1,4.5c0.5,0.7,1,1.6,1.6,2.4
		c-1,2.8-1,2.8,0.3,5.6c0.3,0,0.7,0.1,1.1,0c0.5-0.1,0.9-0.4,1.3-0.6c1.6-0.9,3.1-2,4.8-2.6c4.7-1.8,9.4,0,11.8,4.5
		c0.5,0.9,1.1,1.5,2.1,1.9c0.7,0.2,1.5,0.5,2,0.9c0.4,0.4,0.6,1.2,0.9,2c1,0.4,2.2,0.8,3.3,1.1c1.7,3.6,1.6,4.6-0.8,7.2
		c-0.9,1-1.8,1.9-2.3,3.3c0.6,0.3,1,0.6,1.4,0.7c4.6,1.4,9.4,0.9,14.2,1.3c2.3,0.2,4-0.8,5.4-2.5c0.4-0.5,0.6-1.1,1-1.5
		c0.2-0.2,0.6-0.3,1-0.6c0.4,1.4-0.4,2.5-0.6,3.7c-0.3,1.2,0.2,1.8,1.6,1.5c0.7-0.1,1.4-0.6,1.9,0.7c-1.3,1.3-2.3,2.9-4,4
		c-1.7,1.1-3.3,2.5-4.7,3.6c-0.7,3.7-1.3,7.1-1.8,10.4c-0.1,0.3,0.2,0.7,0.3,1.1c1.1,0.4,2.3,0.7,3.5,1.1c1.3,0.4,2.5,1,3.8,1.5
		C194.5,198.6,197.3,197,199.2,194.3L199.2,194.3z M677.6,174.5l-0.1-0.1c1.7,1.9,3.7,3.6,4.4,6.2c2.2,2.9,4.1,6.3,8.7,6.6
		c1.9-0.7,4-2,5.8-3.7c2.1-1.9,3.9-4,5.8-6.1c0.4-0.4,0.7-1.1,0.8-1.6c0.1-1.9,0.5-3.9,0.2-5.7c-1.3-0.7-2.6-1.3-3.6-2.1
		c-2.9-2.3-5.9-4.5-7.8-7.7c-0.4-0.6-0.9-1.2-1.4-1.7c-4.7-5.1-8.5-10.8-12-16.7c-1.1-1.9-2-3.9-3.1-5.8c-4.6-8-9.2-15.9-13.7-23.9
		c-2.1-3.7-3.7-7.7-4.8-11.9c-0.4-1.4-0.9-2.8-1.6-4.1c-6.8-11.5-12.9-23.4-20.4-34.5c-2.2-3.1-3.9-6.5-5.2-10.1
		c-0.5-1.4-1.2-2.7-1.8-4c-0.9-2-1.9-4-2.7-6c-1.1-3-2.3-6-4-8.7c-1.4-2.3-3-4.5-4.4-6.8c-0.9-1.5-2.1-2.6-3.6-3.6
		c-4.7-3.1-9.8-5.5-14-9.4c-1.2-1.1-2.8-1.6-4.4-1.3c-2.3,0.3-4.6,0.5-6.9,1c-1,0.2-2,0.8-2.9,1.5c-5.4,4.1-10.8,8.1-16.1,12.3
		c-7.4,5.8-15.1,11.3-21.4,18.4c-1.3-0.6-2.1,0-2.9,0.9c-6.1,6.2-12.2,12.4-18.2,18.7c-3.8,4-7.2,8.4-10.6,12.7
		c0.7,3,2.2,5.6,3.9,7.9c1.7,2.4,3.6,4.7,5.5,6.9c1.6,1.9,3,3.9,4,6.2c5.1,11.4,8.5,23.2,9.6,35.7c0.3,3.4,0.8,6.8,1.2,10.2
		c0.2,1.8,1,3.3,2.8,4c1.8,0.7,3.6,1.5,5.5,2c3.7,0.9,7.5,1,11.3,0.6c0.6-0.1,1.2-0.2,2-0.4c-0.9-2.3,0.3-4.1,1.2-6
		c5.5-11.7,11.1-23.5,16.7-35.2c0.6-1.3,1.3-2.7,1.6-4.1c2.9-10.8,6.8-21.2,11.6-31.3c1.5-3,3.3-5.7,5-8.5c0.2-0.3,0.4-1,1.1-0.3
		c-1,2.3-2,4.7-3,7c-0.4,0.9-0.6,1.9-0.7,2.8c-0.5,5.3-0.5,10.5,0,15.8c0.5,5.2,1.8,10.1,3.5,15c0.3,0.9,0.7,1.8,1.2,2.7
		c0.7,1,1.6,1.9,2.3,2.9c0.8,1.1,1.3,2.3,2.1,3.2c1.6,2,3.5,3.7,5.6,5.3c2.3,1.8,4.6,3.7,6.7,5.7c3.7,3.4,7.6,6.6,11.8,9.3
		c3.1,1.9,6.4,3.5,8.8,6.5c7.6,6.1,14.1,13.2,20.2,20.8c0.7,0.9,1.5,1.7,2.3,2.4c3.2,3,6.4,6,9.7,9c0.5,0.5,1.1,1,1.6,1.4
		C673.2,174.5,675.4,174.5,677.6,174.5z M452.4,161.8c-0.7,0-1.4,0-2.5,0c1.1,7.8,2.8,15.4,3.1,23.2c-1.7,1.5-1.6,1.5-2.5,3.8
		c-0.5,1.3-0.7,2.8-1.9,3.8l0.1,0.1c-0.4-3.4,1-6.4,1.9-9.7c-0.8-1.4-1.6-2.8-2.4-4.2c-1.7,0-3.1-0.3-4.6,0.3
		c-0.4,1.1-1.1,2.2-0.3,3.3c1.4,0.2,2.3-1.2,3.8-0.6c-0.7,2.1-3,1.3-4.2,2.7c0.6,0,1,0,1.5,0c0.6-0.1,1.2-0.3,1.8-0.3
		c0.2,0,0.6,0.4,0.7,0.6c0.1,0.1-0.1,0.5-0.2,0.6c-0.9,0.4-1.8,0.7-2.7,1.1c-1,0.4-1.1,0.5-1.3,2.1c1-0.5,1.9-1,2.9-1.3
		c0.5-0.2,1,0,1,0.9c-0.7,0.4-1.5,0.9-2.4,1.3c-1.4,0.7-2,1.8-2,3.2c0.1,1.8,0.3,3.6,0.8,5.2c1.4,0.3,1.9-1.4,3.2-1
		c-0.3,1.6-2.1,1.6-2.9,2.9c0.1,1.3,0.3,2.7,0.5,4.2c0,0.3,0.4,0.6,0.6,0.8l-0.1-0.1c-0.6,1.6-0.3,2.9,0.7,4.4
		c1.1,1.6,1.5,3.7,2.1,5.8c-0.7-0.3-1.2-0.5-1.7-0.7c-0.1,0.3-0.2,0.6-0.3,1c-0.2,0.9-0.7,1.6-1.7,1.6c-1,0-1.4-0.8-1.8-1.6
		c-0.1-0.2-0.2-0.5-0.2-0.7c-0.6-3.4-1.1-6.8-1.7-10.1c-0.2-1-0.2-2-0.4-2.9c-1-4.1-1.3-8.2-1.1-12.4c0.3-6.6,1.4-13.1,2.7-19.6
		c0.1-0.6,0.2-1.1,0.2-1.7c-0.4,0-0.7-0.1-0.9-0.1c-2.9,0.9-5.9,1.6-9,2c-1.5,0.2-3,0.9-4.5,1.4c-0.4,0.1-0.8,0.7-1.5,0.1
		c5-3.5,10.9-4.3,16.3-6.1c1.5-4.6,2.9-9.2,4.4-13.7c0.1-0.3,0.3-0.7,0.3-1.1c0-0.5-0.2-1.1-0.3-1.4c-1.6,0-3,0.1-4.3,0
		c-2.9-0.3-5.9-0.6-8.8-1c-4-0.6-8-1.2-12-1.4c-4.4-0.2-8.8-0.7-13.2-1.1c-5.1-0.5-10.2-0.9-15.4-0.4c-5.4,0.5-10.8,0.6-16.1,0
		c-4.6-0.5-9.2-1.2-13.9-0.6c-0.6,0.1-1.2,0-1.8,0c-3.5-0.5-7-0.9-10.5-1.5c-1.9-0.3-3.8-0.8-5.5-2c-2.3-1.7-5-2.4-7.9-2.8
		c-0.6-0.1-1.2-0.1-1.8-0.2c-2.2-0.4-4.4-0.6-6.4-1.2c-1.7-0.5-3.3-0.9-5-1.1c-4.9-0.6-9.8-0.4-14.7-0.4c-0.7,0-1.5,0.1-2.1,0.4
		c-2.7,1.3-5.6,1.6-8.6,1.8c-1.6,0.1-3.2,0.4-4.7,0.8c-3.3,0.9-6.6,2-9.8,3c-5.3,1.6-10.6,2.8-15.7,5c-3.4,1.4-6.6,3.1-9.8,4.9
		c-3,1.7-6.1,3.1-8.7,5.3c-0.1,0.1-0.1,0.1-0.2,0.2c0-0.1,0-0.2,0.1-0.3c0.8-0.1,1.7-0.2,2.5-0.5c4.5-1.8,9.3-2,14-2.3
		c4.2-0.3,8.2,0.7,12.3,1.8c2.1,0.5,4.2,1.2,6.3,1.8c0.4-0.6,0.7-1.2,1.2-1.5c1.6-1.2,3.2-2.3,4.8-3.4c0.3-0.2,0.7-0.1,1-0.2l0,0
		c-0.6,2.7-2.6,4.2-4.8,5.7c0.6,0.4,0.9,0.7,1.4,0.9c3.1,1.5,6.2,2.9,9.3,4.4c4.6,2.2,8.4,5.4,11.6,9.4c4.7,5.9,8.1,12.5,9.5,20.1
		c0.3,1.7,0.8,3.3,1.4,4.9c1.8,5.1,2,10.3,0.2,15.5c-1.6,4.5-4.4,8.1-8.2,11.1c-1.7,1.3-3.6,2.6-5.3,4.5c3.9,0,7-1.5,10.1-2.7
		c0.6,0.5,1,0.9,1.4,1.3c0.7,0,1.3,0.1,1.9,0c6.7-0.7,13.4-1.3,20.1-2.2c5.8-0.7,11.6-1.8,17.1-4c1-0.4,2.1-0.7,3.1-1
		c0.4-0.1,1,0.1,0.9,1.1c-1.8,1.4-4.5,1.4-6.5,2.9c6-0.7,11.9-1.4,17.9-2.1c1.6-0.2,3.2-0.4,4.7-1c2.5-0.9,5-1,7.6-1
		c5,0,10.1,0.1,15.1-0.2c5.9-0.4,11.7-0.6,17.6-0.5c2.3,0,4.7-0.1,7-0.2c4-0.2,8.1-0.5,12.1-0.6c2.1-0.1,4.2-0.1,6.2-0.1
		c1.3,0,2.1,0.6,2.3,1.9c0.1,0.3,0.3,0.6,0.5,0.8c0.3,0.1,0.6,0.3,0.8,0.3c3.7,1.4,7.6,1.8,11.4,2.6c7,1.4,14,2.4,21.1,2.7
		c3.7,0.2,7.3,0.5,10.9,1.2c3.5,0.6,6.8,0.6,10.1-0.4c3.2-1,6.3-2.2,9.5-2.9c3.1-0.7,5.6-2.2,7.8-4.5c0.8-0.9,1.7-1.7,2.6-2.6
		c4.7-4.3,9.4-8.7,14.1-12.9c2.2-2,4.5-3.7,7.2-5c1.5-0.7,2.6-1.7,3.7-2.9c2.8-3.1,5.5-6.3,8.5-9.2c4.1-3.9,7-8.5,9-13.7
		c2.3-6.2,5-12.2,7.9-18.2c0.2-0.5,0.8-1,0.1-1.8c-1,0.1-2.1,0.1-3.1,0.3c-4.6,0.6-9.3,0.7-13.9,0.4c-5.1-0.3-9.9-1.8-13.8-5.3
		c-0.5-0.4-1-0.8-1.3-1.3c-1.5-3.2-3.5-6.2-3.5-10c0-1.5-0.3-2.9-0.5-4.4c-0.6-4.9-1.2-9.7-1.9-14.6c-0.8-5.4-2.8-10.4-4.3-15.6
		c-1-3.7-2.8-7-5.4-9.9c-3.5-4-6.3-8.5-8.1-13.5c-0.2-0.5-0.3-1.2-1-1.3c-1.7,0.3-1,2.1-2,2.7c-0.9,0.4-1.8,0.8-2.5,1.4
		c-4.4,4-9.3,7.6-13.3,12.1c-2.3,2.6-4.3,5.3-6,8.4c1.5,0.8,1.7,1.9,1.4,3.4c-0.6,3.8-2,7.3-4.1,10.6c-3.6,5.5-7.3,10.9-11.4,16.2
		c-0.5-1.3-1.3-1.9-2.5-1.8c-3.5,0.2-5.3,1-7.6,3.7c-0.6,0.6-1.1,1.3-1.6,2c-2.3,3.7-6.3,5.8-9,9.1c-0.6,0.8-1.9,1-2.8,1.5
		c-0.2,0.1-0.3,0.4-0.6,0.8c0.9,0.9,0.3,1.8-0.3,2.8c-1.3,2.3-1.6,4.7-1.4,7.4c0.4-0.2,0.7-0.2,0.9-0.4c4.7-5.7,9.3-11.4,13.9-17.1
		c0.2-0.3,0.4-0.6,0.7-0.8c0.4-0.2,1-0.4,1.3-0.3c0.7,0.3,0.6,1,0.3,1.6c-1,1.7-1.9,3.4-3.1,5c-3.1,4.3-6.5,8.3-10.4,11.9
		c-0.7,0.6-1.2,1.4-1.8,2C451.9,161,452.1,161.5,452.4,161.8L452.4,161.8z M302.1,228.7c1.2-1,2.3-1.9,3.5-2.8
		c2.4-1.8,4.3-4,5.8-6.6c1.1-2,2.2-4.1,3.1-6.2c2.1-4.8,2.5-9.7,1.4-14.8c-0.3-1.4-0.5-2.9-0.4-4.4c0.1-1.3-0.2-2.4-0.6-3.6
		c-2.1-5.7-5.4-10.7-9-15.5c-4.7-6.2-11.2-9.8-17.9-13.1c-0.3-0.2-0.7-0.3-1-0.3c-4.9-1.2-9.7-2.6-14.6-3.7
		c-6.9-1.5-13.9-1.3-20.6,1.1c-3.7,1.3-7.4,2.4-11.2,3.7c-0.7,0.2-1.3,0.6-1.9,1.1c-2.5,2.2-5,4.3-7.1,6.9c-1.3,1.6-2.8,3.1-4.1,4.7
		c-3.3,4-6.5,8-9.7,12c-0.1,0.2-0.2,0.4-0.3,0.9c2.9,0,5.7-0.1,9.3,0.4c-2.6,1-4.6,1.6-6.6,1.9c-1.5,0.3-2.8,0.8-4.1,1.5
		c-3.8,1.9-7.7,3.7-11.6,5.6c-1,0.5-2,1-2.9,1.6c-5,3.2-9.1,7.4-12.6,12.2c-1.4,2-2.1,3.9-0.3,6c0.5,0.6,0.6,1.5,1.1,1.9
		c1.7,1.3,2.1,3.2,2.6,5c-0.4,0.7-0.6,1.3-1.6,1.2c-0.3-0.5-0.7-1.1-1.1-1.7c-0.5-0.8-0.9-1.9-1.6-2.4c-1-0.7-1.4-1.7-1.7-2.7
		c-1.7-4.7-4.5-8.6-7.7-12.4c-1.2-1.4-2.5-2.7-3.6-4.1c-1.6-2-3.8-3.5-3.9-6.4c0-0.4-0.5-0.8-0.8-1.2c-1-1.5-1.9-3.2-3.1-4.6
		c-2-2.5-3.1-5.3-3.6-8.3c-0.5-2.9-1-5.8-1.6-8.7c-0.1-0.5-0.3-1.1-0.1-1.4c1.1-1.6,0.7-3.5,0.6-5.6c2.2,1.4,1.4,3.5,1.8,5.1
		c0.7,0.3,1.3,0.5,2.1,0.8c-0.9,0.5-1.6,1-2.3,1.4c0.4,1-0.1,2.5,1.7,2.6c0.3-0.8,0.5-1.6,1-2.3c0.6-0.8,1.4-1.4,2-2.1
		c1.4-1.6,1.9-3.4,1.2-5.4c-1.2-0.8-2.5-1.4-3.3-2.4c-0.9-1.1-1.9-1.8-3.2-2.3c-1.3-0.5-2.3-1.4-2.4-2.9c-1-0.5-1.9-0.8-2.7-1.3
		c-2.3-1.3-4.7-1.2-7.1-0.4c-1.3,0.4-2.5,1-3.6,1.7c-0.6,0.4-0.8,1.3-0.9,1.5c-2.8-0.3-5.2-1.3-7.9-1.6c-2.7,2.1-5.8,3.8-7.3,7.3
		c0.6,1.5,1.1,3.2,1.9,4.6c2.7,4.6,4.1,9.7,4.5,15c0.1,1.8,0.2,3.7,0.4,5.5c0.4,3.3,0.7,6.6,1.2,9.8c0.7,4.3,1.6,8.7,2.5,13
		c0.6,2.9,1.2,5.8,2.1,8.6c0.8,2.6,2,5,3.1,7.5c1.5,3.2,2.9,6.5,4.6,9.6c1.1,2.2,2.6,4.1,4.6,5.7c3.4,2.6,6.2,5.9,8.4,9.6
		c0.4,0.6,0.8,1.2,1.1,1.8c1.5,0.4,3.1,0.5,4.4,1.1c2.3,1,4.5,0.9,6.8,0.2c1.9-0.5,3.8-1.1,5.8-1c3.3,0,6.3-0.5,9.3-1.8
		c1.1-0.4,2.1-0.5,3.2,0c1.3,0.6,2.6,0.5,4,0.2c4.6-0.9,9-2.3,13.1-4.6c9.2-5.1,18.9-9.3,28.6-13.5c2.1-0.9,4.4-1.6,6.6-2.3
		c4.1-1.3,8.3-2.2,12.2-4.1c0.3-0.2,0.7-0.3,1.1-0.3c2,0,3.8-0.8,5.7-1.3c0.2-0.1,0.5,0,0.7,0c0.4,0.4,0.8,0.9,1.1,1.3
		C276,231.1,295.3,230.1,302.1,228.7z M731.6,195.3c-0.6-0.7-0.9-0.9-1-1.2c-0.7-1.9-0.9-3.8-0.4-5.8c0.3-1.2,0.1-1.2-1.5-1.9
		c-1.7,3.8-1.7,3.8-3.6,4.8c-0.5-1.5-1-3.1-0.7-4.7c0.2-1.5,0.7-3,1.1-4.7c-0.3-0.3-0.7-0.7-1.5-1.4c-1.4,3.5-2.7,6.8-6.4,8.6
		c0-2.3,0.8-4.1,1.2-5.9c0.4-2,1.5-3.9,1.2-6.2c-1.4-1.1-2.9-2.1-4.4-3.2c-1.6-1.2-3.2-2.3-4.7-3.6c-1.4-1.2-2.6-2.5-3.9-3.8
		c-0.8,1.3-0.9,2.5-1,3.7c-0.1,1.6-0.2,3.2-0.1,4.8c0,2.6-1,4.8-2.7,6.6c-3.4,3.4-7.5,5.9-11.7,8.1c-0.6,0.3-1.5,0.6-2.1,0.3
		c-2.4-1.1-5.3-1.3-6.7-4.1c-0.4-0.9-1.6-1.4-2.1-2.3c-0.6-0.9-0.8-2.1-1.2-3.1c-0.2-0.5-0.4-0.9-0.7-1.3c-0.9-1.4-2.1-2.4-3.9-2.4
		c-2.2,0-4.4,0-6.5,0c-1.1,0-1.9,1.2-1.7,2.4c0.2,1.6,0.5,3.1,0.7,4.7c0.2,1.5,0.1,3-0.7,4.3c-1,1.5-1.2,3.2-1.4,4.9
		c-0.4,3.6-0.8,7.3-1.1,11c-0.1,1.1-0.1,2.3-0.9,3.1c-1.3,1.3-1.3,2.8-1.3,4.4c0,2.4,0,4.9,0,7.5c0.8,0.5,1.5,1.2,2.3,1.6
		c1.2,0.6,2.4,1.3,3.7,1.6c4,1.1,8,2.2,12.1,2.9c3.8,0.6,7.8,1.1,11.7,0.2c2.1-0.5,4.4-0.6,6.5-1c1.9-0.4,3.9-0.5,5.6-1.7
		c2-1.5,4.4-2.1,6.7-2.8c2-0.6,3.8-0.6,5.8,0c3,1,6.1,1.9,9.2,2.7c3.4,0.9,6.8,1,10.2,0.2c6.6-1.6,13.3-2,20-2.6
		c2.2-0.2,4-0.8,5.7-2.2c1.6-1.3,3.3-2.5,5.2-3.5c2.7-1.5,4.3-3.9,5.6-6.6c0.6-1.2,0.8-2.6,0.5-4c-0.5-2.3-1-4.5-2.4-6.6
		c-2,0.1-3.9-0.2-5.7,0.5c0.5,2.8,0,3.5-2.4,3.3c-2.5-0.3-5.1-0.7-7.6-1.4c-2.7-0.7-5.4-1.6-8-2.6c-2-0.7-3.9-1.5-5.8-2.3
		c-0.4-0.2-0.9-0.2-1.6-0.5c0.1,1,0.2,1.7,0.4,2.3c0.1,0.3,0.5,0.5,0.8,0.8c0.9-0.3,1.8-0.7,2.6-1c1.1,0.5,1.6,1,0.7,2.1
		c-1.2-0.2-2.4-0.4-3.6-0.7c-1.7-0.3-2.4-1.9-3.5-3c-0.9-0.9-0.4-1.8-0.3-2.9c-0.9-0.6-1.8-1.3-3-2.2
		C732.8,191.6,732.3,193.2,731.6,195.3z M562.3,15.1c-0.6,1.6-2.2,2.8-3.8,3.9c-3,2.2-5.9,4.3-8.9,6.5c-5.8,4.3-11.5,8.7-16.9,13.5
		c-0.9,0.8-1.7,1.7-2.5,2.7c-2.6,3.4-5.1,6.9-7.8,10.2c-3.7,4.4-7.7,8.5-11.6,12.8c-0.9,1-1.7,2-2.7,3.1c0.9,3.1,0.5,6.4,2.5,9.1
		c1.9-1.3,3.2-2.9,4.3-4.6c3.3-4.9,7.1-9.3,11.3-13.5c6.7-6.7,13.9-12.7,21.2-18.7c1-0.8,2.1-1.7,3-2.7c8.5-8.9,18.4-16.2,28.4-23.2
		c1.5-1.1,2.9-2.1,4.2-3.8c-1.3-0.4-2.6-0.7-3.9-1.2c-1.5-0.5-2.9-0.4-4.3,0.2c-0.8,0.3-1.6,0.6-2.4,0.9
		C569.3,11.9,565.9,13.4,562.3,15.1z M563.3,150c1.6,0,2.7,0,3.8,0c1.4,0,2.5-0.7,3.5-1.7c1.8-1.7,3.7-3.3,5.7-4.5
		c3.8-2.4,7.4-5.2,11-8c0.6-0.4,1-1,1.4-1.5c-2-5.3-6.9-14.3-9.3-17.2c-2.3,5.5-4.5,11-6.9,16.4C570,139.2,567.3,144.7,563.3,150z
		 M475.6,129.4c0.8-4,2.9-7.2,5-10.3c1.3-1.9,2.6-3.9,3.8-5.8c1.5-2.4,2.3-5,2.6-7.9c0.4-4.3,1.8-8.4,5-11.6
		c3.6-3.5,7-7.2,11.1-10.1c1.3-0.9,2.5-2,3.7-3c0.5-0.4,0.9-1,1.4-1.6c-1.4-2-2.3-4-2.5-6.2c0-0.4-0.4-0.8-0.6-1.2
		c-1.9,1.8-3.7,3.5-5.3,5.3c-1,1.1-1.7,2.4-2.5,3.6c-0.7,1.3-1.3,2.6-2,3.9c-1.1,1.9-2.4,3.7-3.4,5.7c-3.2,6-6.5,12.1-9.5,18.2
		c-1.9,4-3.5,8.1-5.2,12.2c-0.3,0.8-0.7,1.6-1.2,2.2c-0.2,0.2-0.9,0.2-1.3,0c-0.4-0.1-0.6-0.6-0.9-0.9c-1.9,1.3-1.2,3.7-2.5,5.3
		C472.7,128,473.6,129.2,475.6,129.4z M730.3,182.3c3.5,3.2,6.9,6.5,11,8.8c3.5,2,8,3.4,11.1,3.5c-0.9-3.2-1.7-6.3-2.6-9.4
		c-0.1-0.3-0.4-0.6-0.6-1c-2.6-0.4-5.3-0.9-7.9-1C737.7,182.9,734,182.8,730.3,182.3z M688.6,150c-0.2,0.2-0.4,0.4-0.6,0.5
		c2,3.4,5,5.9,7.2,9.1c2.3,3.2,5.4,5.5,8.6,8c0.4-1.4,1.3-2.5,1.2-3.9c-0.8-0.7-1.6-1.3-2.3-2c-1.3-1.5-2.9-2.5-4.7-3.3
		c-1.5-0.7-2.9-1.8-4.2-2.9c-1.3-1.1-2.3-2.5-3.5-3.8C689.8,151.1,689.2,150.6,688.6,150z M141.9,147c0-1.6-0.4-2.7-1.3-3.6
		c-1.1-1.3-2.1-2.7-3.2-4c-0.7-0.9-1.4-1.7-2.1-2.5c-1.2-1.5-2.8-2.3-4.7-2.4c-0.4,0-1-0.2-1,0.7c2.7,0.7,4.6,2.6,6.2,4.8
		c0.9,1.3,1.9,2.6,2.5,4C139,145.3,140.1,146.2,141.9,147z M590.9,86.4c-1.6,3.1-1.9,3.7-1.7,5c0.4,2.8,1.3,5.4,3.5,7.7
		C592.1,94.8,591.5,90.8,590.9,86.4z M447,173.9c-1.9-0.3-2.1-0.3-2.5,0.1c-0.8,0.9-1.1,1.8-0.6,3c1.1,0,2.1,0,3.2,0
		c0.2,0,0.3-0.3,0.6-0.5C447.4,175.6,447.2,174.7,447,173.9z M445.4,166.3c-0.2,2.2-1.4,4.2-0.9,6.7c0.8-0.4,1.4-0.7,2-1.1
		C446.5,169.9,446.5,168,445.4,166.3z M125.7,145.6c-0.6-0.5-1-0.9-1.4-1.3c-0.5-0.3-0.9-0.1-1.2,0.3c-0.1,0.2,0.1,0.8,0.3,0.9
		C123.9,145.9,124.5,146.4,125.7,145.6z M127.4,157.1c1.4-0.5,1.3-1.4,1.2-2.3c-0.9-0.5-1.7-0.3-1.8,0.5
		C126.6,155.8,127.2,156.5,127.4,157.1z M127.6,151.3c1.2,0.9,2.2,0.6,3.2-0.2C129.6,150.3,129.6,150.3,127.6,151.3z M134.5,187.7
		c0-2.8,0-2.8-1.5-2.4C133.5,186.1,134,186.9,134.5,187.7z M183,188.8c0.7-0.5,1.8-1,1.1-2.5C183.6,187.4,183.3,188.1,183,188.8z
		 M180.3,196.3c0.9,0.6,1.4,0.1,1.8-0.4c0.1-0.1,0-0.5-0.1-0.6c-0.1-0.1-0.5-0.3-0.6-0.2C181.1,195.5,180.7,195.9,180.3,196.3z
		 M134.8,191.6c0,0.8,0.5,1.4,1,2.2C135.7,192.8,136.1,192,134.8,191.6z M188.7,202.7c0.2,0.3,0.2,0.5,0.3,0.5
		c0.3,0.1,0.6,0.3,1,0.3c0.1,0,0.3-0.4,0.3-0.5c-0.1-0.6-0.6-0.5-1.1-0.5C189.1,202.5,188.9,202.6,188.7,202.7z M171.7,190.8
		c0,1,0,1,0.9,1.2C172.2,191.6,172,191.2,171.7,190.8z M174.4,184.3c0.1-0.2,0.2-0.3,0.3-0.5c-0.2,0-0.3,0-0.5,0
		c-0.1,0-0.1,0.2-0.2,0.2C174.1,184.2,174.2,184.3,174.4,184.3z M182.7,183.5c-0.1,0.2-0.2,0.4-0.2,0.5c0,0.1,0.4,0.3,0.5,0.2
		c0.2-0.1,0.2-0.3,0.3-0.5C183.1,183.6,182.9,183.5,182.7,183.5z"/>
	<path d="M380.3,507.9c-0.1-0.6-0.2-1.2-0.2-1.7c0-1.7,0.1-3.4,0.2-5.1c0.1-2.5-0.5-4.7-2.1-6.8c-3.2-4.1-5.2-8.8-6.4-13.9
		c-0.3-1.3-0.3-2.6-0.3-4c0-0.4,0.5-0.9,0.9-1c0.6-0.3,1.2,0.1,1.5,0.7c0.3,0.5,0.5,1.1,0.6,1.7c1.2,4.2,2.9,8.3,4.6,12.3
		c0.9,2,1.7,4.1,2.4,6.1c1.1,3.2,1.2,6.5,0.2,9.7C381.4,506.6,381.3,507.4,380.3,507.9z"/>
	<path d="M334.7,469.8c0.4-0.2,0.8-0.5,1.2-0.6c0.7-0.2,1.4-0.3,2.2-0.4c6.3-0.4,11.4-3.4,16-7.4c1.3-1.1,2.2-2.6,3.6-3.6
		c1.3-1,2.9-1.7,4.4-2.6c0.8-0.5,1.5-1.1,2.5-1.7c-1.4,3.3-2.8,4.5-7.4,6.4c-1.9,3.1-4.6,5.7-7.8,7.8c-4,2.7-8.6,3.4-13.3,3.2
		C335.4,470.9,334.8,470.7,334.7,469.8z"/>
	<path d="M467,436.8c0.3,0,0.5,0,0.5,0.1c2.2,2.8,3.3,5.9,3.2,9.4c-0.1,2.5-1.4,4.4-3.5,5.6c-0.5,0.3-1.1,0.4-1.7,0.4
		c-1,0-1.7-1.3-1.3-2.1c0.2-0.4,0.5-0.8,0.9-1.2c3.2-3.5,4.1-7.3,1.8-11.7C466.8,437.3,466.9,437.1,467,436.8z"/>
	<path d="M360.1,469c-2.9,5.6-7.6,9.2-12.3,12.6c-0.7-0.3-0.9-0.8-0.5-1.1c2.5-1.9,4-4.6,5.5-7.2C354.4,470.5,356.7,469.1,360.1,469
		z"/>
	<path d="M417.3,463.9c-0.9,2.1-2.5,3.2-4.5,4c-2,0.7-4,1.8-6.3,1.6c-0.6-0.1-1.2-0.5-2.2-1c0.8-0.7,1.3-1.2,1.9-1.5
		c1.2-0.5,2.6-0.7,3.9-1.1C412.5,465.3,414.9,464.6,417.3,463.9z"/>
	<path d="M384.2,367.5c-2.3-2.7-5.2-3.3-7.9-4.3c-1.2-0.5-2.4-1.1-3.8-1.2c-1.2-0.1-2.3-0.8-3.1-1.7c-0.5-0.5-0.4-1.1,0.1-1.6
		c0.3,0,0.6-0.1,0.7,0c1.9,1.8,4.2,2.6,6.8,3c3,0.4,5.4,2.2,7.3,4.4C384.5,366.2,384.4,366.5,384.2,367.5z"/>
	<path d="M419.1,371c-0.9,0.2-1.3-0.5-1.6-1c-1.9-2.8-4.4-4.5-7.8-4.9c-0.1,0-0.3,0-0.3-0.1c-0.3-0.4-0.8-0.8-0.7-1.1
		c0-0.4,0.5-0.9,0.9-1c1.2-0.4,2.4-0.2,3.5,0.5c0.6,0.4,1.3,0.8,1.8,1.3c1.3,1.3,2.5,2.7,3.7,4.1C419,369.2,419.5,370,419.1,371z"/>
	<path d="M465.7,419.8c4.7,4.4,6.9,10.3,5.7,14c-0.9-0.3-0.7-1.1-0.8-1.8c-0.2-0.7-0.4-1.4-0.6-2.1c-0.2-0.7-0.4-1.4-0.7-2.1
		c-0.2-0.6-0.4-1.1-0.7-1.7c-0.3-0.7-0.6-1.3-0.9-2c-0.3-0.7-0.5-1.4-0.8-2C466.8,421.6,466.4,421.1,465.7,419.8z"/>
	<path d="M379.4,352.3c1.2,0.2,1.6,0.2,1.8,0.4c2.1,2,4.5,3.7,6.5,6.4c-0.9,0-1.4,0.1-1.7-0.1c-0.5-0.3-1-0.7-1.4-1.1
		c-1.1-1.4-2.3-2.5-3.7-3.5C380.4,354,380.2,353.4,379.4,352.3z"/>
	<path d="M316.1,432.8c0.1,3.3-1,6.3-1.7,9.4C313.6,438.9,313.8,435.7,316.1,432.8z"/>
	<path d="M425.7,375.6c-2.2-0.2-2.2-0.2-5.2-2.9c0.1-0.7,0.7-0.5,1.1-0.4C423.5,372.8,424.7,373.9,425.7,375.6z"/>
	<path d="M330,413c-1.3-1.8-1-3.3-1.4-5.4c0.9,0.6,1.3,0.7,1.5,1c0.5,0.9,1.3,1.8,1,3C330.9,411.9,330.5,412.3,330,413z"/>
	<path d="M381.7,420.9c2.2,0.3,3.8,1.5,4.9,3.3c0.1,0.2-0.1,0.6-0.1,0.9c-0.2,0-0.4,0.1-0.5,0C384.6,423.7,383.2,422.3,381.7,420.9
		L381.7,420.9z"/>
	<path d="M423.9,454.5c1-2.1,2.7-2.1,4.7-1.8C427.2,454.1,425.8,454.8,423.9,454.5z"/>
	<path d="M339.7,484.5c0.2,2.3-1.4,3.3-1.9,4.7C337.6,487.5,337.3,485.8,339.7,484.5z"/>
	<path d="M381.8,439.8c-0.6,1.8-1.2,2.7-2.5,3.1C379,441.5,379,441.5,381.8,439.8z"/>
	<path d="M463.5,429.9c2.5,2.1,2.5,2.1,1.9,3.2C464.4,432.6,464.1,431.6,463.5,429.9z"/>
	<path d="M418.5,459.1c1-1,1.5-2.5,3.1-2.9c0,2.5-0.4,2.8-3.2,2.8L418.5,459.1z"/>
	<path d="M418.4,459c0.3,2.7,0.1,3-1.9,3.3c0.3-1.4,0.9-2.4,2-3.2L418.4,459z"/>
	<path d="M376.1,444.5c-0.6,1.9-1.7,2.2-2.7,2.5c-0.8-0.5-0.5-1,0-1.4C374.2,445.3,374.9,445,376.1,444.5z"/>
	<path d="M342.9,483.2c0.7,1.9,0.4,2.2-1.6,2C341.8,484.6,342.3,484,342.9,483.2z"/>
	<path d="M368.6,449.6c-0.2,1.5-1,1.8-2.4,1.1C367.2,450.3,367.9,449.9,368.6,449.6z"/>
	<path d="M353,351.7c-0.5,0.7-1.1,1.5-1.7,2.4c-0.4-2-0.3-2.1,1.8-2.3L353,351.7z"/>
	<path d="M328.7,398.7c-0.3,0.3-0.4,0.4-0.5,0.5c-0.2-0.4-0.4-0.8-0.5-1.2c0,0,0.1-0.2,0.2-0.2C328.2,398.1,328.4,398.4,328.7,398.7
		z"/>
	<path d="M476.6,424.7c0.5,0.4,0.9,0.8,1.6,1.4C476.9,426,476.8,425.2,476.6,424.7L476.6,424.7z"/>
	<path d="M459,409c0.5,0.5,1,1,0.7,1.8c-0.7-0.6-0.7-0.6-0.6-1.9L459,409z"/>
	<path d="M360.3,344.3c-0.1,0.4-0.1,0.9-0.3,1.3c-0.1,0.2-0.6,0.1-0.9,0.1c0-0.2,0-0.5,0.1-0.7C359.6,344.8,360,344.6,360.3,344.3
		L360.3,344.3z"/>
	<path d="M442.8,391.4c-0.5-0.3-0.9-0.5-1.6-0.9C442.6,389.9,442.6,390.7,442.8,391.4L442.8,391.4z"/>
	<path d="M460.4,426.8c0.2,0.1,0.4,0.1,0.5,0.3c0.1,0.1-0.1,0.3-0.2,0.5c-0.1-0.1-0.2-0.1-0.2-0.2
		C460.5,427.1,460.5,426.9,460.4,426.8L460.4,426.8z"/>
	<path d="M380.2,420.2c0.5,0.1,1.3,0,1.5,0.7l0.1-0.1c-0.5-0.3-1-0.5-1.4-0.8L380.2,420.2z"/>
	<path d="M464.9,417.9c-0.2-0.1-0.4-0.2-0.5-0.3c-0.1-0.1,0-0.4,0.1-0.6c0.1,0.1,0.3,0.2,0.3,0.3
		C464.9,417.5,464.8,417.7,464.9,417.9L464.9,417.9z"/>
	<path d="M380.3,420.1c-0.2,0-0.4,0-0.6-0.1c-0.1,0-0.2-0.1-0.3-0.1c0.2-0.1,0.4-0.2,0.5-0.2c0.2,0.1,0.2,0.3,0.3,0.5L380.3,420.1z"
		/>
	<path d="M412.5,461.8c0-0.1,0.1-0.1,0.1-0.2c0.1,0,0.2,0,0.3,0.1c0,0.1-0.1,0.2-0.1,0.2C412.7,461.8,412.6,461.8,412.5,461.8z"/>
	<path d="M459.1,408.9c-0.2,0-0.3-0.1-0.5-0.1c0.1,0,0.1,0,0.2,0c0.1,0.1,0.2,0.1,0.2,0.2L459.1,408.9z"/>
	<path d="M464.8,417.9c0.1,0.1,0.2,0.2,0.3,0.3c-0.1,0-0.2,0-0.2-0.1C464.9,418.1,464.9,418,464.8,417.9L464.8,417.9z"/>
	<polygon points="472.3,418.5 472.1,418.5 472.2,418.6 	"/>
	<path d="M472.2,418.6c0.1,0.1,0.2,0.2,0.3,0.4c-0.1,0-0.1-0.1-0.2-0.1c0-0.1,0-0.2,0-0.3L472.2,418.6z"/>
	<polygon points="476.6,424.6 476.5,424.5 476.6,424.7 	"/>
	<path d="M443.4,392.2c-0.2-0.3-0.4-0.6-0.7-0.8l-0.1,0.1C442.9,391.7,443.1,392,443.4,392.2L443.4,392.2z"/>
	<polygon points="460.5,426.7 460.4,426.7 460.4,426.8 	"/>
	<path d="M445.7,394.5c0.2,0.1,0.4,0.1,0.6,0.2C445.7,395.2,445.8,394.6,445.7,394.5L445.7,394.5z"/>
	<path d="M445.7,394.4c-0.1-0.1-0.2-0.2-0.3-0.3c0.1,0,0.1,0.1,0.2,0.1C445.7,394.3,445.7,394.4,445.7,394.4L445.7,394.4z"/>
	<polygon points="443.4,392.2 443.6,392.3 443.4,392.2 	"/>
	<path d="M677.2,535.4c0.2-0.9,0.7-1,1.4-1.1c1.7-0.2,3.4-0.4,5.1-0.6c3.3-0.3,6.1-1.7,8.8-3.4c0.9-0.6,1.8-1.3,2.8-1.8
		c0.3-0.2,1-0.1,1.3,0.1c0.6,0.4,0.4,1.1,0.1,1.6c-0.1,0.1-0.1,0.2-0.2,0.3c-4,4.2-8.6,6.8-14.6,6.2c-0.1,0-0.3,0.1-0.4,0
		C680.4,535.5,678.6,535.9,677.2,535.4z"/>
	<path d="M633.7,444.5c-3.1-2.4-9.6-10.7-11.7-14.5c0.4-0.7,1.1-0.6,1.5-0.1C627.6,434.3,631.2,439.1,633.7,444.5z"/>
	<path d="M592.9,412.8c1.1-4.2,3.5-7.7,6.7-10.7c0.6-0.5,1.3-0.6,2,0.2c-0.1,0.3,0,0.7-0.2,1c-2.7,3.2-5.4,6.3-8.1,9.4
		C593.1,412.8,593,412.7,592.9,412.8L592.9,412.8z"/>
	<path d="M621.4,401.9c-3.6,0.9-6.3,0.6-8.9-0.4c-0.3-0.1-0.6-0.7-0.6-1.1c0-0.2,0.4-0.7,0.7-0.7
		C615.4,399.4,618.2,399.8,621.4,401.9z"/>
	<path d="M639.9,456.9c-1.9-2.1-3.3-4.5-4.8-6.8c0.6-0.9,1.2-0.9,1.6-0.4C638.6,451.8,639.9,454.1,639.9,456.9L639.9,456.9z"/>
	<path d="M607.3,385c0.1,0.9,0.4,1.5,0.2,1.9c-0.9,1.7-2.1,3.1-4,4.1c-0.1-0.5-0.3-0.9-0.2-1.1c0.8-1.3,1.7-2.6,2.6-3.8
		C606.1,385.6,606.6,385.5,607.3,385z"/>
	<path d="M590.4,420.3c0.6,0.2,0.8,0.7,0.4,1.1c-1,1.2-2.2,2.3-3.4,3.6C587.8,422.3,587.9,422.2,590.4,420.3z"/>
	<path d="M677.4,527.6c1.6,1.6,2.6,2.8,2.3,4.9C677.9,531.3,677.6,529.8,677.4,527.6z"/>
	<path d="M641.3,494.2c-0.4-1.4,0.2-2.4,0.5-4.2C642.3,492.9,642.3,492.9,641.3,494.2z"/>
	<path d="M652.1,486c0.7,1.3,1,2,1.6,3C652.5,488.1,652.5,488.1,652.1,486z"/>
	<path d="M642,480.2c0.1,0.5,0.1,1.1,0.2,1.7C641,481.5,641.8,480.8,642,480.2z"/>
	<path d="M603.5,419.6c0.1,0.2,0.3,0.5,0.3,0.6c-0.2,0.3-0.6,0.6-0.9,0.9c0,0-0.2-0.2-0.2-0.2c0.2-0.4,0.3-0.8,0.5-1.1
		C603.2,419.6,603.4,419.6,603.5,419.6z"/>
	<path d="M592.8,412.7c0.3,1-0.4,1.5-1,2.1C591.8,413.7,591.8,413.7,592.8,412.7L592.8,412.7z"/>
	<path d="M674.9,522.1c0.1,0,0.3,0,0.3,0.1c0.1,0.3,0.3,0.6,0.3,0.9c0,0.1-0.4,0.2-0.6,0.3c-0.1-0.2-0.2-0.4-0.2-0.6
		C674.7,522.5,674.8,522.3,674.9,522.1z"/>
	<path d="M673.4,517.6c-0.1-0.2-0.2-0.4-0.2-0.6c0-0.1,0.1-0.2,0.2-0.2c0.1,0.1,0.2,0.2,0.2,0.2
		C673.6,517.2,673.5,517.4,673.4,517.6z"/>
	<path d="M649.6,479c0.1,0.2,0.2,0.4,0.4,0.6C649.8,479.3,649.7,479.1,649.6,479L649.6,479z"/>
	<path d="M646.9,472.1c0-0.2-0.1-0.3-0.1-0.4c0,0,0.1-0.1,0.2-0.1C647,471.7,647,471.8,646.9,472.1z"/>
	<path d="M643.6,464.2c-0.1-0.3-0.3-0.5-0.1-0.3C643.4,463.7,643.5,464,643.6,464.2L643.6,464.2z"/>
	<polygon points="639.8,457 640.1,457 639.9,456.9 	"/>
	<polygon points="579.5,442.9 579.5,443.1 579.6,443 	"/>
	<path d="M579.6,443c0.3-0.2,0.5-0.5,0.8-0.7l-0.1-0.1C580.1,442.4,579.8,442.7,579.6,443L579.6,443z"/>
	<polygon points="580.4,442.3 580.5,442.1 580.3,442.2 	"/>
	<polygon points="583.2,434.1 583.1,434.3 583.3,434.2 	"/>
	<path d="M583.3,434.2c0.2-0.2,0.5-0.5,0.7-0.7l-0.1-0.1c-0.3,0.2-0.5,0.5-0.8,0.7L583.3,434.2z"/>
	<path d="M584.1,433.4c0.1-0.1,0.2-0.3,0.3-0.4c0,0.1,0,0.2-0.1,0.2C584.2,433.3,584.1,433.3,584.1,433.4L584.1,433.4z"/>
	<path d="M649.7,478.9c-0.1,0-0.2,0-0.3-0.1C649.4,478.9,649.5,478.9,649.7,478.9L649.7,478.9z"/>
	<path d="M600.8,423.5c-0.1,0.1-0.2,0.1-0.2,0.2c-0.1-0.1-0.2-0.2-0.2-0.2c0-0.1,0.1-0.1,0.2-0.2
		C600.7,423.3,600.8,423.4,600.8,423.5z"/>
	<path d="M643.5,464.3c0.1,0,0.2,0.1,0.2,0.1C643.7,464.3,643.7,464.3,643.5,464.3L643.5,464.3z"/>
	<path d="M480.1,546.5c-0.1,0.5-0.2,0.9-0.4,1.4c5.6,5.2,9.2,11.8,11.7,19c0.3,1,0.4,2.1,0.6,3.2l0.1-0.1c-1.1-0.2-1.1-1.2-1.4-1.9
		c-2.1-3.7-4-7.6-6.2-11.3c-1.8-3.1-4-5.9-7.2-8c-0.8,0.3-1.7,0.7-2.6,1.1c-5.2,2.5-10.7,4.2-16.4,5.3c-1.3,0.2-2.7,0.3-4,0.4
		c-0.4,0-0.8-0.3-1.3-0.5c0.9-1.4,2.1-0.9,3.1-1.1c1.1-0.2,2.2,0,3.1-0.8c0.3-0.7-0.4-1.1-0.6-1.6c-0.9-2.4-2.1-4.7-2.7-7.2
		c-1.6-6.3-2.7-12.7-2.4-19.2c0-0.5-0.3-0.9-0.4-1.4l-0.1,0.1c3.7,0.7,3.8,0.7,4.4,4.2c1,5.8,1.9,11.6,2.9,17.4
		c0.3,1.8,0.6,3.6,0.9,5.4c0.1,0.6,0.4,1.1,0.6,1.9c4.8-0.8,9-2.4,13.4-4.1c-0.5-0.6-0.8-1-1.2-1.5c0.6-1.1,1.6-1.2,2.5-0.8
		C477.9,546.9,479,547.2,480.1,546.5L480.1,546.5z"/>
	<path d="M488.5,507.7c-0.2-1.4,0.7-2.3,1.4-3.3c3.3-5.2,6.6-10.3,9.9-15.4c3.2-4.9,6.5-9.8,9.7-14.7c0.3-0.5,0.7-0.9,1.5-2
		c-0.1,1.1,0,1.6-0.2,1.9c-0.9,1.9-1.7,3.8-2.8,5.6c-4.6,7.1-9.2,14.2-13.9,21.2C492.5,503.4,490.8,505.8,488.5,507.7L488.5,507.7z"
		/>
	<path d="M554.2,545.1c-2.6,0-4.2-0.8-5.7-1.4c-2.7-1.1-5.4-2.3-8.2-3.3c-3-1.1-6.1-1.9-9.3-1.9c-2.1,0-4.2-0.1-6.1,0.8
		c-0.5,0.2-1.1,0-2.1-0.1c0.5-0.8,0.7-1.5,1.1-1.7c1-0.5,2-0.9,3.1-1.1c2.8-0.5,5.6-0.4,8.4,0.2c5.8,1.3,11.2,3.5,16.3,6.5
		C552.4,543.5,553,544.1,554.2,545.1z"/>
	<path d="M514.2,504.7c0.5-2,1-4,1.5-6c2.5-10.4,4.1-20.8,4.5-31.5c0-1.1,0.1-2.2,0.2-3.3c0,0,0.1-0.1,0.2-0.1
		c0.8,0.8,0.6,1.8,0.6,2.7c-0.3,4.9-0.6,9.7-1.1,14.6c-0.7,6.3-1.8,12.6-3.7,18.6C515.8,501.4,515.5,503.3,514.2,504.7L514.2,504.7z
		"/>
	<path d="M472.2,509.2c0,0.5,0,1,0,1.4c-0.9,7.8-1.9,15.6-2.9,23.3c0,0.3-0.2,0.6-0.4,1.1C467.5,528.3,469,515.5,472.2,509.2z"/>
	<path d="M485.9,544.1c3.2-0.9,5.1-3.3,7.1-5.6c2.5-2.9,4.9-5.8,7.4-8.7c1.4-1.6,2.9-3.3,4.9-4.4c0.1,0.3,0.3,0.6,0.2,0.7
		c-3.7,4.4-7.5,8.8-11.3,13.1c-1,1.1-2,2.2-3,3.2C489.8,543.8,488,544.4,485.9,544.1z"/>
	<path d="M453,546.7c-1.7,1.3-1.7,1.3-2.3,3.2c-0.3,0.9-0.8,1.8-1.2,2.6c0,0.1-0.2,0.1-0.5,0.2c0-0.5-0.2-1-0.1-1.4
		c0.3-1.7,0.7-3.3,1.2-5c0.3-1,0.5-1.8,0.1-2.8c-0.3-0.9-0.1-1.9,0-2.9c0.3-2.3,0.6-4.6,1-7.4c0.4,1.9,0.9,3.3,1.1,4.8
		C452.5,540.9,452.8,543.7,453,546.7z"/>
	<path d="M510.5,525.3c0.5-0.5,0.9-1.1,1.5-1.5c1.5-1,3.1-1.9,4.7-2.8c2.9-1.8,5.8-3.6,8.7-5.4c1.6-0.9,3.2-1.8,4.8-2.7
		c0.3-0.1,0.7,0,1.1,0c-0.1,0.3-0.2,0.5-0.3,0.6c-5.4,3.3-10.5,7.1-16.3,9.8c-1,0.5-1.9,1.1-2.9,1.6
		C511.4,525.1,510.9,525.2,510.5,525.3L510.5,525.3z"/>
	<path d="M460.5,570.8c-0.1,0-0.3,0.1-0.4,0c-1.9-1.6-3-3.8-3.6-6.2c-0.1-0.3,0.3-1,0.6-1.1c0.4-0.1,0.9,0.2,1.3,0.4
		c0.3,0.2,0.4,0.6,0.6,0.9C459.7,566.9,460.5,568.8,460.5,570.8L460.5,570.8z"/>
	<path d="M492.1,570.2c0.9,0.6,0.5,1.4,0.3,2.2C492.3,571.7,492.2,570.9,492.1,570.2L492.1,570.2z"/>
	<path d="M460.4,570.9c0.2,0.5,0.4,1,0.7,1.5l0.1-0.1C460.5,572,460.5,571.5,460.4,570.9L460.4,570.9z"/>
	<path d="M514.1,504.6c0,0.2-0.1,0.5-0.1,0.7C514,505.1,514.1,504.9,514.1,504.6L514.1,504.6z"/>
	<path d="M453.2,523.7c-0.2,0-0.5,0-0.7,0c-0.1,0-0.2,0-0.3-0.1c0.1-0.1,0.3-0.3,0.4-0.3c0.2,0.1,0.4,0.3,0.6,0.4L453.2,523.7z"/>
	<path d="M483.4,545.3c0.2-0.2,0.4-0.3,0.3-0.2C483.8,545,483.5,545.1,483.4,545.3L483.4,545.3z"/>
	<path d="M483.3,545.2c-0.5,0.2-1,0.5-1.5,0.7l0.1,0.1C482.4,545.7,482.9,545.5,483.3,545.2L483.3,545.2z"/>
	<path d="M481.8,545.9c-0.4,0.7-1,0.6-1.6,0.7l0.1,0.1c0.6-0.2,1.1-0.4,1.7-0.6L481.8,545.9z"/>
	<path d="M510.4,525.3c-0.1,0.2-0.1,0.3-0.2,0.5C509.7,525.3,510.3,525.4,510.4,525.3L510.4,525.3z"/>
	<polygon points="487.6,508.4 487.5,508.6 487.7,508.5 	"/>
	<path d="M488.4,507.6c-0.3,0.3-0.6,0.5-0.9,0.8l0.1,0.1C487.9,508.2,488.2,508,488.4,507.6L488.4,507.6z"/>
	<path d="M461.1,572.5c0.1,0.1,0.3,0.2,0.4,0.3c-0.1,0-0.1,0-0.2-0.1C461.2,572.6,461.2,572.5,461.1,572.5L461.1,572.5z"/>
	<path d="M377,524c-0.5-3.2-0.5-3.2,1.3-4.4C378.9,521.4,377.9,522.6,377,524z"/>
	<path d="M432.4,487.7c0.2-1.7,0.7-3.3,2.3-4.4C434.9,485.4,434.4,486.2,432.4,487.7L432.4,487.7z"/>
	<path d="M396.7,495.5c0.3-0.1,0.6-0.4,0.9-0.4c1.2,0,2.4,0.1,3.9,0.1c-1.3,1.2-2.5,1.6-3.9,1.5C397,496.7,396.5,496.3,396.7,495.5z
		"/>
	<path d="M410.4,492.7c-0.9,1.1-1.5,1.7-2.6,1C408.6,492.4,408.6,492.4,410.4,492.7z"/>
	<path d="M408.2,508.3c-0.6,1.9-0.6,1.9-2.1,1.5C406.3,508.8,407,508.5,408.2,508.3z"/>
	<path d="M399.6,509.5c-0.7,0.4-1,0.7-1.3,0.7c-0.3,0-0.6-0.2-0.9-0.3c0.2-0.3,0.3-0.6,0.6-0.7C398.2,509.2,398.6,509.4,399.6,509.5
		z"/>
	<path d="M416.7,532.6c1.3,0.2,1.7,0.2,2.1,0.3c0.1,0,0.2,0.4,0.1,0.5c-0.1,0.1-0.4,0.3-0.5,0.2
		C418.1,533.6,417.8,533.3,416.7,532.6z"/>
	<path d="M375.3,533.3c0.1-0.4,0.1-0.8,0.2-1c0-0.1,0.4,0,0.6,0c0,0.2,0,0.4-0.1,0.5C375.9,533,375.7,533.1,375.3,533.3z"/>
	<path d="M432.3,487.6c0,0.2,0,0.4,0,0.6c0,0.1,0,0.2,0,0.3c-0.1-0.1-0.2-0.2-0.2-0.3C432.2,488.1,432.3,487.9,432.3,487.6
		L432.3,487.6z"/>
	<path d="M432.5,530.5c-0.2,0.2-0.3,0.3-0.5,0.5c-0.1,0.1-0.2,0-0.3,0c0.1-0.1,0.1-0.4,0.2-0.4C432.1,530.5,432.4,530.6,432.5,530.5
		L432.5,530.5z"/>
	<path d="M424.5,532.2c0.4,0,0.7,0,1.1,0c0,0.1,0,0.2,0,0.3c-0.4,0-0.7,0-1.1,0C424.5,532.3,424.5,532.2,424.5,532.2z"/>
	<path d="M414.7,492.6c-0.1,0.1-0.2,0.2-0.2,0.2c-0.1,0-0.1-0.1-0.2-0.2c0.1-0.1,0.2-0.2,0.2-0.2
		C414.6,492.4,414.6,492.5,414.7,492.6z"/>
	<path d="M479.4,185.3c0.2,1.2,1.2,1.8,1.9,2.6c5.4,5.7,8.8,12.6,10.9,20.1c0.2,0.7,0.3,1.4,0.4,2.2c0,0.3-0.1,0.7-0.1,1.2
		c-2.5-8.7-10.1-20.7-15.4-24c-1,0.4-2.1,0.9-3.2,1.4c-5.8,2.7-11.9,4.4-18.3,5.3c-0.6,0.1-1.2,0.1-1.8,0c-0.3,0-0.7-0.3-1.3-0.6
		c2.6-1.3,4.9-0.9,7-1.8c-0.7-1.5-1.4-2.9-2-4.4c-1.4-3.3-2.2-6.8-2.7-10.3c-0.5-3.3-0.8-6.6-1.2-9.8c-0.2-1.6-0.1-3.2,0.4-4.7
		l-0.1,0.1c2.4,0.2,3,0.5,3.4,2.5c0.7,3.2,1.1,6.5,1.7,9.8c0.9,5.1,1.7,10.1,2.6,15.2c0.1,0.3,0.3,0.6,0.4,1
		c3.4-0.2,10.3-2.4,13.4-4.3c-0.4-0.4-0.8-0.7-1.2-1.1c0.4-1.1,1.4-1,2.2-0.9C477.4,184.9,478.5,185.2,479.4,185.3L479.4,185.3z"/>
	<path d="M488.4,145.6c0.4-0.8,0.7-1.6,1.1-2.3c6.7-10.4,13.5-20.7,20.2-31.1c0.2-0.3,0.6-0.6,1.4-1.3c-0.2,1.1-0.3,1.6-0.5,1.9
		c-1,2.1-2,4.2-3.2,6.2c-4.2,6.6-8.5,13.2-12.8,19.7c-1.4,2.1-3.2,4.1-4.8,6C489.5,145.1,488.8,145.3,488.4,145.6L488.4,145.6z"/>
	<path d="M553.7,183.8c-1.7-0.6-3.5-1-5.1-1.7c-3-1.1-5.8-2.4-8.8-3.5c-2.2-0.7-4.5-1.2-6.7-1.7c-2.6-0.5-5.1-0.3-7.6,0.5
		c-0.6,0.2-1.1,0.3-1.6,0.5c-0.7-0.6-0.9-1.2-0.4-1.7c0.6-0.5,1.4-1,2.2-1.2c2.4-0.8,4.8-0.9,7.2-0.5c7.1,1.1,13.6,3.7,19.7,7.5
		c0.5,0.3,0.9,0.8,1.4,1.1C553.8,183.4,553.7,183.6,553.7,183.8z"/>
	<path d="M338.1,144.7c0.7-0.3,1.1-0.7,1.5-0.7c0.6,0.1,1.2,0.3,1.7,0.6c7.5,3.9,15.3,7,22.5,11.3c0.6,0.3,1.1,0.8,1.6,1.2
		c-0.3,0.2-0.4,0.3-0.5,0.3c-5.5-2.3-11-4.5-16.5-6.9c-2.8-1.2-5.5-2.7-8.2-4.1C339.6,146.1,339,145.4,338.1,144.7z"/>
	<path d="M514.9,141.3c0.1-0.7,0-1.5,0.2-2.2c1.8-6.5,3-13.1,3.9-19.8c0.6-4.1,0.8-8.3,1.1-12.4c0.1-1.5,0.2-3,0.7-4.6
		c0.1,0.6,0.4,1.1,0.4,1.6c-0.3,9.5-1.1,19-3.3,28.3c-0.6,2.7-1.5,5.4-2.4,8.1C515.4,140.7,515.1,141,514.9,141.3L514.9,141.3z"/>
	<path d="M469,173.7c-1.2-6.3-0.6-12.5,0.6-18.6c0.5-2.5,0.7-5.2,2.4-7.8c0.1,0.7,0.3,1.1,0.2,1.4c-0.9,7.8-1.9,15.5-2.8,23.3
		C469.3,172.5,469.2,173.1,469,173.7z"/>
	<path d="M486.3,182.6c0-0.1,0-0.3,0.1-0.3c2.5-0.9,4.3-2.7,5.9-4.6c2.4-2.8,4.7-5.6,7.1-8.4c1.4-1.6,2.8-3,4.3-4.5
		c0.4-0.4,0.9-0.9,1.6-0.5c0,0.2,0,0.5-0.1,0.6c-3.1,3.6-6.2,7.2-9.3,10.8c-1.4,1.6-2.8,3.1-4.2,4.6
		C490.3,181.8,488.5,182.8,486.3,182.6L486.3,182.6z"/>
	<path d="M390.8,156.2c-4.9,1.1-9.5,1.5-14.1,1.6c-2.2,0.1-4.4-0.3-6.5-0.5c-0.7-0.1-1.3-0.5-2.4-0.9c0.7-0.4,1.1-0.7,1.4-0.7
		c6.4,0.1,12.9,0.2,19.3,0.3C389.1,156,389.7,156.1,390.8,156.2z"/>
	<path d="M513.4,161.9c0.1-0.9,0.9-1.1,1.5-1.4c3.8-2.4,7.7-4.7,11.5-7.1c1.1-0.7,2.3-1.3,3.5-1.9c0.4-0.2,0.8-0.3,1.5-0.1
		c-0.3,0.3-0.6,0.6-0.9,0.9c-1.9,1.3-3.9,2.5-5.8,3.7c-3.4,2-6.8,3.9-10.2,5.8C514.2,161.9,513.8,161.8,513.4,161.9L513.4,161.9z"/>
	<path d="M460.4,209.7c-1.7-1.4-2.6-3.4-3.6-5.4c-0.2-0.4-0.4-0.9-0.3-1.4c0-0.4,0.4-1,0.7-1.1c0.3-0.1,0.9,0.2,1.3,0.4
		c0.2,0.1,0.3,0.4,0.4,0.6C459.6,205.1,460.7,207.3,460.4,209.7L460.4,209.7z"/>
	<path d="M338.4,184.2c-2.4,1.7-4.6,4-8.1,3.9c0.2-0.8,0.2-1.1,0.3-1.2c0.5-0.4,1-0.7,1.5-0.9C334.2,185.2,336.2,184.4,338.4,184.2z
		"/>
	<path d="M320.3,177.8c1.9-2.2,3.7-2.5,5.8-2.9c-1.2,1.8-2,2.5-3.5,3.1C322.1,178.1,321.5,177.9,320.3,177.8z"/>
	<path d="M321.9,202.7c1.9-0.4,1.9-0.4,6,2C324.7,204.9,323.6,204.6,321.9,202.7z"/>
	<path d="M407.6,157.5c0.1-0.1,0.1-0.3,0.2-0.3c2.1-0.7,4-0.2,6.4,1.7c-1.8-0.4-2.8-0.6-3.8-0.8
		C409.4,157.9,408.5,157.7,407.6,157.5L407.6,157.5z"/>
	<path d="M407.5,157.5c-2.1,1-4.3,0.4-6.5,0.3C403.2,157.7,405.4,157.6,407.5,157.5L407.5,157.5z"/>
	<path d="M419.3,175.1c0.6-1.4,1.5-2.3,3.4-2.1C421.7,174.5,420.5,174.8,419.3,175.1L419.3,175.1z"/>
	<path d="M513.4,161.9c-0.3,0.3-0.5,0.8-0.9,1c-0.8,0.4-1.4,1.2-3.1,1.4C511,162.9,511.8,161.9,513.4,161.9L513.4,161.9z"/>
	<path d="M338.4,206c-1.1-0.4-2.1-0.7-3.2-1.1c1.3-0.5,2.6-0.7,3.6,0.5C338.8,205.5,338.6,205.8,338.4,206z"/>
	<path d="M334.7,166.7c0.1-1.6,0.6-2.3,1.6-2.6C336.4,165.3,336.4,165.3,334.7,166.7z"/>
	<path d="M329,171.2c-0.4-1.6-0.3-1.7,1.8-1.8C330.6,170.4,330,171,329,171.2z"/>
	<path d="M448.6,192.7c-0.1,0.5-0.1,0.9-0.2,1.4c-0.1,0-0.1,0-0.2-0.1C448.4,193.6,448.5,193.2,448.6,192.7L448.6,192.7z"/>
	<path d="M403.8,181.7c0.4-0.4,0.9-0.6,1.5-0.1C404.7,181.6,404.2,181.6,403.8,181.7L403.8,181.7z"/>
	<path d="M296.7,147c0-0.2-0.1-0.3-0.1-0.5c0.2,0,0.4,0,0.5,0c0.1,0,0.1,0.2,0.1,0.3C297.1,146.9,296.9,146.9,296.7,147z"/>
	<path d="M514.8,141.2c0,0.3-0.1,0.6-0.2,1.7c-0.2-0.9-0.3-1.2-0.2-1.3C514.5,141.5,514.8,141.4,514.8,141.2L514.8,141.2z"/>
	<path d="M292,150.9c0.1-0.2,0.2-0.4,0.3-0.5c0.1-0.1,0.3,0.1,0.5,0.2c-0.1,0.1-0.2,0.2-0.3,0.2C292.3,150.8,292.1,150.8,292,150.9
		L292,150.9z"/>
	<path d="M349.3,175.1c-0.1,0.3-0.2,0.5-0.3,0.8c0-0.1-0.1-0.3-0.1-0.3C349,175.4,349.2,175.3,349.3,175.1L349.3,175.1z"/>
	<path d="M461.2,210.5c0.1,0.3,0.3,0.5,0.2,0.3c0,0.3,0-0.1,0-0.4L461.2,210.5z"/>
	<path d="M412.8,177.7c0,0.1-0.1,0.1-0.1,0.2c-0.1,0-0.2,0-0.3-0.1c0-0.1,0.1-0.2,0.1-0.2C412.6,177.6,412.7,177.7,412.8,177.7z"/>
	<path d="M447.5,196.2c0,0,0.1,0.1,0.1,0.1c0,0.1,0,0.2-0.1,0.3c0,0-0.1-0.1-0.1-0.1C447.4,196.4,447.5,196.3,447.5,196.2z"/>
	<path d="M486.2,182.5c-0.2,0.1-0.3,0.3-0.5,0.4c-0.1,0-0.2,0-0.3,0.1c0.1-0.1,0.2-0.2,0.3-0.3C485.9,182.6,486.1,182.6,486.2,182.5
		L486.2,182.5z"/>
	<path d="M479.5,185.4c0.5-0.2,1-0.5,1.5-0.7l-0.1-0.1C480.7,185.4,480,185.3,479.5,185.4L479.5,185.4z"/>
	<path d="M481,184.7c0.5-0.2,1-0.5,1.5-0.7l-0.1-0.1C482.1,184.6,481.5,184.5,481,184.7L481,184.7z"/>
	<path d="M482.5,183.9c0.2-0.1,0.5-0.3,0.3-0.2C482.9,183.7,482.7,183.8,482.5,183.9L482.5,183.9z"/>
	<path d="M452.3,161.9c0.5,0.2,1.1,0.4,1.6,0.7l0.1-0.1C453.4,162.3,452.7,162.6,452.3,161.9L452.3,161.9z"/>
	<path d="M460.3,209.8c0.3,0.2,0.6,0.5,0.9,0.7l0.1-0.1C461,210.1,460.7,209.9,460.3,209.8L460.3,209.8z"/>
	<path d="M419.2,175c-0.1,0.1-0.2,0.2-0.2,0.4c0-0.1,0-0.1,0.1-0.1C419.1,175.2,419.2,175.2,419.2,175L419.2,175z"/>
	<polygon points="488.3,145.5 488.3,145.8 488.4,145.6 	"/>
	<polygon points="487,147.9 487.1,147.7 486.9,147.8 	"/>
	<path d="M403.7,181.6c0,0.1,0,0.2,0,0.4C403.7,181.9,403.7,181.8,403.7,181.6L403.7,181.6z"/>
	<polygon points="342.2,180.6 342.5,180.5 342.4,180.7 	"/>
	<polygon points="345.5,178.4 345.3,178.5 345.3,178.3 	"/>
	<path d="M444.3,204.6c0.1-0.1,0.2-0.3,0.2-0.4c0,0.1,0,0.1-0.1,0.2c-0.1,0.1-0.2,0.1-0.3,0.1L444.3,204.6z"/>
	<path d="M349.4,175.2c0-0.1,0.1-0.2,0.1-0.3C349.4,175,349.3,175,349.4,175.2L349.4,175.2z"/>
	<polygon points="486.9,147.8 486.8,148 487,147.9 	"/>
	<path d="M291.9,150.8c0.1,0.5-0.1,0.8-0.7,0.8l0,0C291.5,151.3,291.7,151.1,291.9,150.8L291.9,150.8z"/>
	<path d="M677.6,174.5c-0.1-0.4-0.2-0.9-0.3-1.4c3.5-0.7,6.9-0.9,10.1-2c3.1-1.1,5.8-3,8.7-4.6c1,0.9,1.2,1.4,0.7,2
		c-3.9,4.5-8.6,7.1-14.8,6.6c-0.5,0-0.9-0.3-1.3-0.5c-1.1-0.5-2.1-0.5-3.2-0.2L677.6,174.5z"/>
	<path d="M621.7,67.5c1,0.5,1.5,0.5,1.8,0.8c4.1,4.4,7.7,9.2,10.4,14.5c-0.7,0.6-1,0-1.3-0.3c-3.9-4.1-7-8.8-10.4-13.3
		C622.1,69,622.1,68.6,621.7,67.5z"/>
	<path d="M593.6,50.1c0-0.5,0-1,0.1-1.4c1.3-3.2,3.3-6,5.9-8.3c0.7-0.6,1.1-0.4,1.9,0.9c-2.1,2.4-4.3,4.9-6.4,7.4
		C594.7,49.2,594.1,49.6,593.6,50.1L593.6,50.1z"/>
	<path d="M611.6,39c0.7-1.3,1.7-1.1,2.6-1c2.2,0.3,4.6,0.1,6.4,2c-2.4,0.8-3.8,0.9-6.5,0.4C613.3,40.3,612.3,40.2,611.6,39z"/>
	<path d="M634.5,87.7c2.3,0.1,2.9,1.1,3.4,2c1,1.5,1.9,3.1,1.9,5.3C637.6,92.9,636.4,90.5,634.5,87.7z"/>
	<path d="M607.2,23.2c0.2,0.9,0.4,1.4,0.3,1.7c-0.5,1.6-2,3-4.1,4.2c-0.1-0.1-0.3-0.2-0.2-0.3C603.5,27.8,605.3,25.2,607.2,23.2z"/>
	<path d="M591.1,59c-0.7,2-2.3,2.9-3.7,4.2c0.5-2.3,0.9-3.1,2.5-4.2C590.1,58.8,590.5,59,591.1,59z"/>
	<path d="M677.8,166.4c1.2,1.2,2.1,2.3,1.9,4.4c-0.6-0.5-1.1-0.7-1.2-1C678,168.8,677.1,167.8,677.8,166.4z"/>
	<path d="M593.6,50c0,0.4,0,0.8-0.1,1c-0.5,0.8-1.1,1.6-1.7,2.5C591.9,51.7,591.9,51.7,593.6,50L593.6,50z"/>
	<path d="M642.2,129.5c0,0.9-0.1,1.8-0.1,3c-0.5-0.3-0.9-0.5-0.9-0.6c0.1-0.8,0.3-1.6,0.4-2.4C641.8,129.4,642,129.4,642.2,129.5z"
		/>
	<path d="M603.1,58.1c0.4,0.3,0.7,0.5,0.7,0.5c-0.1,0.3-0.3,0.6-0.5,0.8c-0.1,0.1-0.4-0.1-0.6-0.2C602.8,58.8,602.9,58.5,603.1,58.1
		z"/>
	<path d="M675.1,160.3c0.1,0.4,0.3,0.8,0.4,1.2c-0.2,0.1-0.4,0.1-0.6,0.2c-0.1-0.4-0.1-0.8-0.2-1.3
		C674.8,160.3,675,160.3,675.1,160.3z"/>
	<path d="M653.2,127.3c-0.2-0.2-0.5-0.4-0.7-0.7c-0.2-0.3-0.3-0.6-0.4-1C653.1,125.7,653.1,125.7,653.2,127.3L653.2,127.3z"/>
	<path d="M583.3,72.6c0.4-0.7,0.5-1,0.7-1.2c0.1-0.1,0.3,0,0.5,0c0,0.1,0,0.3-0.1,0.3C584.2,72,583.9,72.1,583.3,72.6z"/>
	<path d="M641.7,120.2c-0.1-0.3-0.1-0.6-0.1-1c0-0.1,0.2-0.3,0.3-0.4c0.1,0.1,0.2,0.2,0.2,0.3c0,0.4-0.1,0.7-0.1,1.1
		C641.9,120.2,641.8,120.2,641.7,120.2z"/>
	<path d="M643.7,102.1c-0.2-0.1-0.4-0.2-0.6-0.3c0,0,0-0.2,0-0.3C643.4,101.7,643.5,102,643.7,102.1L643.7,102.1z"/>
	<path d="M643.7,102.2c0.1,0.2,0.2,0.5,0.1,0.3C643.8,102.7,643.8,102.4,643.7,102.2L643.7,102.2z"/>
	<path d="M673.4,154.9c0.1,0.2,0.2,0.4,0.2,0.6c0,0.1-0.1,0.2-0.2,0.2c-0.1-0.2-0.1-0.4-0.2-0.6C673.2,155.1,673.3,155,673.4,154.9z
		"/>
	<path d="M649.5,117.7c-0.1-0.2-0.3-0.4-0.4-0.5C649.2,117.4,649.3,117.6,649.5,117.7L649.5,117.7z"/>
	<path d="M647,110c0,0.1,0.1,0.2,0.1,0.3c0,0.1-0.1,0.2-0.2,0.3c0-0.1-0.1-0.2-0.1-0.3C646.9,110.2,646.9,110.1,647,110z"/>
	<path d="M600.8,61.7c-0.1,0.2-0.2,0.4-0.2,0.6c-0.1-0.1-0.2-0.2-0.2-0.2c0-0.2,0.1-0.4,0.2-0.6C600.7,61.6,600.8,61.6,600.8,61.7z"
		/>
	<path d="M649.4,117.8c0.1,0,0.2,0.1,0.3,0.1C649.6,117.8,649.6,117.8,649.4,117.8L649.4,117.8z"/>
	<polygon points="653.1,127.3 653.4,127.5 653.2,127.3 	"/>
	<path d="M271.8,167.9c-0.1,2.2-0.4,4.1-2.3,5.3c-0.6,0.4-0.9,1.4-1.2,2.2c-0.7,1.8-1.3,3.7-2,5.5c-1.5,4-3.8,7.4-6.8,10.3
		c-1.4,1.4-2.6,2.9-3.9,4.4c-0.8,0.9-1.6,1.9-2.5,2.7c-2.8,2.6-6,3-9.5,1.4c-0.2-0.1-0.4-0.2-0.7-0.3c-0.2-0.1-0.4-0.3-0.6-0.4
		c1.9-0.5,3.8-1,5.8-1.5c0.8-3,2.9-5.1,5.1-7.1c5.5-5.1,9.9-11.1,14.7-16.9c0.8-1,1.4-2.3,2.1-3.4
		C270.6,169.4,271.2,168.7,271.8,167.9z"/>
	<path d="M302.9,199.7c-0.3,0.4-0.5,0.8-0.8,1c-0.2,0.1-0.5,0.2-0.7,0.1c-3.8-0.9-7.5-0.1-11.3,0c-3.2,0.1-6.3,0.4-9.5,0.5
		c-1.6,0-3.2-0.1-4.7-0.3c-1.1-0.2-1.7-1-1.8-2c0-1,0.6-1.9,1.7-2.1c0.7-0.2,1.4-0.3,2.2-0.3c6.6,0.1,13.2,0.2,19.6,1.8
		c1.2,0.3,2.4,0.3,3.6,0.5C301.7,199,302.2,199.4,302.9,199.7z"/>
	<path d="M240.6,212c2.2-2.6,4.4-5.2,6.6-7.7c0.5-0.6,1.2-0.7,1.9,0.2c-1.8,3.5-4.7,6-8,8C241,212.3,240.8,212.2,240.6,212z"/>
	<path d="M239.8,190.3c-2.9,0-5.4,0.6-8,0.2c-0.4-0.1-0.9-0.5-1-0.8c-0.2-0.7,0.5-1,1.1-1.2c0.5-0.1,1-0.1,1.4-0.2
		c2-0.1,3.8,0.3,5.7,0.9C239.2,189.3,239.4,189.8,239.8,190.3z"/>
	<path d="M312.5,201.6c-2,0.8-4.1,0.7-6.1,0.5c-0.5,0-0.9-0.6-1.7-1.1c0.8-0.4,1.2-0.8,1.5-0.8C308.5,200.2,310.6,200.3,312.5,201.6
		L312.5,201.6z"/>
	<path d="M272.1,198.2c-0.8,1.2-1.8,1-2.7,0.9c-0.8-0.1-1.6,0-2.5,0c-0.4-0.7,0.2-1.1,0.6-1.3C269.2,196.9,269.5,197,272.1,198.2z"
		/>
	<path d="M233.2,217.1c0.1-2.2,1.9-3.1,3.6-4.2c0,0.4,0.1,1-0.1,1.3C235.8,215.5,234.9,216.9,233.2,217.1L233.2,217.1z"/>
	<path d="M148.2,171.6c-1-1.7-0.9-1.7-0.8-3.6C148.7,168.6,148.8,168.8,148.2,171.6z"/>
	<path d="M155.1,192.1c-0.1,0.8-0.1,1.5-0.2,2.3c-0.1,0-0.2,0-0.4,0c0-0.8,0-1.5,0-2.3C154.8,192,154.9,192.1,155.1,192.1z"/>
	<path d="M226.5,219.3c0-1.1,0.6-1.6,2-2.2C227.9,218.4,227.5,219.1,226.5,219.3L226.5,219.3z"/>
	<path d="M150.2,179c0-0.5,0-1.1,0-1.7C150.8,178,150.8,178,150.2,179z"/>
	<path d="M156.3,169.2c0,0.1,0,0.2-0.1,0.3c-0.1-0.1-0.3-0.2-0.4-0.3c0,0,0-0.2,0-0.2C156,169,156.1,169.1,156.3,169.2z"/>
	<path d="M196.3,227.3c-0.8,0.2-0.9-0.5-1.3-1.1c0.4,0,1-0.2,1-0.1C196.2,226.5,196.2,226.9,196.3,227.3L196.3,227.3z"/>
	<path d="M312.5,201.7c0.2,0,0.5,0,0.7,0.1c0.1,0,0.2,0.2,0.2,0.3c-0.1,0-0.3,0-0.3,0C312.9,201.9,312.7,201.7,312.5,201.7
		L312.5,201.7z"/>
	<polygon points="159.4,163.4 159.3,163.2 159.4,163.5 	"/>
	<path d="M159.4,163.5c0.1,0,0.2,0,0.3,0C159.6,163.4,159.5,163.4,159.4,163.5L159.4,163.5z"/>
	<path d="M233.1,217c-0.1,0.1-0.2,0.2-0.3,0.3c0-0.1,0-0.2,0.1-0.2C232.9,217.1,233.1,217.1,233.1,217L233.1,217z"/>
	<path d="M226.4,219.2c0,0.1-0.1,0.2-0.1,0.3C226.4,219.4,226.5,219.4,226.4,219.2L226.4,219.2z"/>
	<path d="M196.3,227.4c0.1,0,0.2,0.1,0.3,0.1C196.5,227.4,196.4,227.4,196.3,227.4L196.3,227.4z"/>
	<path d="M193.7,195c0.4,0.6,0.7,1.1,1,1.8c-0.5,0.3-0.9,0.7-1.5,1.1c-1.4-1.2-3.1-1.2-4.8-1.3c-0.7,0-1.5,0-2.2-0.1
		c-0.7-0.1-1.2-0.9-1.1-1.6c0-0.1,0-0.2,0.1-0.4c0.5-1.9,3-6.5,4.9-8.7c0.3,0.9,0.5,1.6,0.8,2.5c0.8,0.1,1.6,0.2,2.4,0.3
		c1.1-0.9,2-1.7,1.6-3.4c-0.3-1.4,0.6-2.7,1.6-2.9c1-0.2,2.3,0.5,2.8,1.9c0.6,1.5,1.1,3,0.4,4.7c-1.2,0.1-2.3-0.2-3.4,0.7
		c-1,0.9-2.5,0.8-3.9,0.7c-0.8-0.1-1.7-0.2-2.5-0.3c-1.3,0.9-1.8,2.3-2.5,3.6c1.6,0.8,1.6,0.8,3.8,0.7c3.4-3.2,5.4-4,7.6-3.1
		C197,192.1,195.1,192.9,193.7,195z"/>
	<path d="M219.8,156.8c-0.1,1-0.1,1.9-0.3,2.9c-1,4.7-2,9.5-3.2,14.2c-0.4,1.5-1,3-2.2,4.1c-2.1,2-2.3,2.2-5.6,2.2
		c0,2.2,0.4,4.6-0.8,6.7c-0.5,0.8-1.4,1.3-2.4,2.3c0-1-0.1-1.6,0-2.1c0.1-0.7,0.4-1.4,0.5-2.1c0.6-2.9,0.5-3-1.9-5
		c0-1.2,2.4-1.3,0.8-3.4c3.6,1.4,5.9,0.6,7.8-1.8c0.7-0.9,1.5-1.6,2.2-2.5c1-1.3,1.8-2.6,1.5-4.3c-0.1-0.5,0-1,0.1-1.4
		c1-3.3,2-6.5,3-9.8C219.5,156.8,219.6,156.8,219.8,156.8z"/>
	<path d="M165,155c-0.9-0.6-1.8-1.1-2.6-1.8c-0.4-0.4-0.8-0.9-1-1.5c-0.6-2.1-1.1-4.2-1.5-6.4c-0.1-0.7-0.1-1.5,0-2.2
		c0.1-0.8,0.5-1.4,1.4-1.5c1-0.2,2.1,0.4,2.3,1.3c0.2,0.8,0.3,1.7,0.4,2.5C164.6,148.6,164,151.8,165,155z"/>
	<path d="M166.1,143.9c1.5-0.4,2.6-0.6,3.8-0.9c1.6,1.2,2.6,2.7,2.2,4.9c-0.2,1.2,0.7,2,1.1,3c0.3,0.8,0.1,1.4-0.9,1.7
		C169.3,150.5,167.4,147.5,166.1,143.9z"/>
	<path d="M194.3,169.5c-0.3-0.5-0.7-0.8-0.6-1c0.1-0.9,0.4-1.6,1.5-1.8C195.6,167.6,195.3,168.4,194.3,169.5z"/>
	<path d="M196.8,161.2c0.4,1.3,0.4,2.2-0.7,2.7c-0.1,0-0.2,0-0.3-0.1C195.2,162.7,195.7,162,196.8,161.2z"/>
	<path d="M199.3,194.2c-0.1,0-0.2-0.1-0.3-0.1C199.1,194.2,199.2,194.2,199.3,194.2L199.3,194.2z"/>
</g>
</svg>
