<?xml version="1.0" encoding="utf-8"?>
<!-- Generator: Adobe Illustrator 21.0.0, SVG Export Plug-In . SVG Version: 6.00 Build 0)  -->
<svg version="1.2" baseProfile="tiny" id="Layer_2" xmlns="http://www.w3.org/2000/svg" xmlns:xlink="http://www.w3.org/1999/xlink"
	 x="0px" y="0px" viewBox="0 0 900 600" xml:space="preserve">
<g>
	<path d="M738.2,357c-0.5-0.2-1-0.4-1.5-0.6c-0.4-1.1-1-1.6-2.4-1.4c0.7,1,1.5,1.3,2.4,1.3c0.3,0.7,0.9,0.6,1.5,0.6
		c0.2,0.3,0.4,0.6,0.7,0.9c1.6,1.8,3.4,3.3,5.8,3.9c0.7,0.2,1.3,0.6,1.9,1c0.7,0.5,0.8,1.1,0.5,2.2c-0.1,0.3-0.3,0.6-0.4,1
		c0.4,1,1,2,1.2,3c0.2,0.6,0.1,1.6-0.3,2c-1.2,1.1-1.1,2.5-0.9,3.8c-0.9,0.6-1.7,1.2-2.6,1.5c-1.1,0.4-2.2,0.8-3.4,1
		c-2.7,0.4-5.2-0.2-7.5-1.6c-0.5-0.3-1.1-0.3-1.6-0.5c-0.3-0.2-0.5-0.4-0.8-0.6c-0.2-0.3-0.5-0.5-0.7-0.8c-0.2-0.3-0.4-0.5-0.6-0.8
		c-0.3-0.2-0.5-0.4-0.8-0.6c0-0.5-0.3-0.7-0.7-0.7l0-0.2l0.1,0.1c0.2,0.2,0.5,0.5,0.7,0.7c0.1,0.4,0.2,0.8,0.8,0.7
		c-0.2,0.6,0.2,0.7,0.6,0.8c0.2,0.3,0.5,0.5,0.7,0.8c0.2,0.2,0.5,0.4,0.7,0.7c-0.5,0.4-0.9,0.8-1.6,0.5c-0.6-0.3-1.2-0.6-1.9-1
		c-0.5,0.6-0.9,1-1.2,1.4c-1.9,2.1-3.8,4.3-5.8,6.4c-1,1.1-2.2,1.8-3.7,2c-1.5,0.2-3,0.7-4.4,1c-6.2,8.4-6.2,8.4-9.9,11.3
		c-1.6,0.4-2-1.7-3.4-1.7c-1.7,0.1-2.6,1.6-3.9,2.4c-0.3,0.2-0.6,0.3-1,0.4c-1-0.4-1.9-0.9-2.7-1.2c-0.8,0.6-1.5,1.1-2,1.5
		c-3.3-1.4-3.4-1.4-6,0.5c-0.4,0.3-0.8,0.6-1.1,0.9c-1.8,1.4-3.8,1.8-6,0.8c-0.7-0.3-1.4-0.4-2-0.8c-1.7-0.9-3-2.3-3.5-4.3
		c-0.7-2.8-1.6-5.5-2.5-8.2c-0.2-0.6-0.7-1.2-1-1.8c-0.6,0-1.1-0.1-1.5-0.1c-3.1,0-6.2-0.1-9.3,0c-1.4,0-2.9,0.1-4.3,0.3
		c-2.1,0.2-4.2,0.6-6.5,0.9c-0.7,1.5-2.1,2.9-2.2,4.9c-0.5,5.5-2.8,10.4-6.2,14.6c-2.7,3.5-5.6,6.8-8.6,10.4
		c0.3,4.9,1.2,10.1-1.1,14.7c3,8.1,4.6,16,2.7,24.6c0.5,1.1,1,2.5,1.6,3.8c1.2,2.6,1.9,5.4,2.3,8.2c0.4,3,0.5,6-0.5,8.9
		c-0.2,0.6-0.3,1.4-1.4,1.4c-0.4-1.4-0.4-2.8-0.3-4.2c0-1.7,0-3.3-0.1-5c-0.2-3.8-1.4-7.2-2.7-10.7c-0.7-1.8-1.6-3.5-0.4-5.5
		c0.2-0.3,0.1-0.7,0.1-1.1c0.2-4.3-0.1-8.6-0.9-12.8c-0.2-0.9-0.6-1.8-0.9-2.6c-1,0.3-1.2,1.5-2.4,1.2c-0.1-0.3-0.4-0.8-0.4-1.2
		c0-2.2,0.5-4.3,1.9-6c0.7-0.8,1-1.6,1-2.6c0.4-4.3-0.8-8.5,0.1-12.8c-0.9-1.8-0.5-3.8-0.9-5.6c-0.5-2.3-1.3-4.5-3.3-5.8
		c-3.2-2-5-5.1-6.5-8.3c-0.8-1.6-1.1-3.4-1.5-5.1c-0.1-0.5-0.1-1.1-0.2-2.3c0.7,0.8,1,1.1,1.2,1.5c1.4,2.6,2.8,5.3,4.3,7.8
		c1,1.6,2.1,3.3,3.4,4.6c2.3,2.3,3.6,5,4.3,8.1c0.3,1.1,0.4,2.3,0.7,3.9c0.7-1,1.2-1.6,1.6-2.2c1.8-3.1,3.6-6.2,5.3-9.3
		c1.2-2.1,2.4-4.1,3.4-6.3c0.7-1.7,1.3-3.6,1.4-5.5c0.2-2.8-0.1-5.7-0.2-8.6c-0.1-1.8-0.3-3.6-0.4-5.4c0-0.6,0.2-1.2,1.1-1.3
		c0.4,0.7,0.7,1.5,1.5,3c-0.2-3.6-0.3-6.3-0.9-9c-0.4-1.6-0.9-3.2-1.7-4.7c-1.4-2.8-3.4-5.2-5.1-7.8c-2.7-4.1-7.1-4.8-11.2-6.3
		c-1.9,0.1-3.8-0.5-5.6-1c-5.3-1.2-10.6-1.8-16-1.5c-2.3,0.1-4.5,0.6-6.6,1.3c-3.7,1.2-7,3-10.2,5.1c-6.4,4.3-12.1,9.3-16.8,15.4
		c-0.3,0.4-0.5,0.8-0.7,1.2c0.2,0.4,0.4,0.7,0.5,0.8c-0.5,1.4-1,2.7-1.5,4c0.7,0.8,1.2,1.4,1.8,2.1c-0.8,0.3-1.4,0.5-2.2,0.7
		c0.2,2.3,0.2,4.6,0.6,6.8c0.3,1.5,0.9,3,1.7,4.3c0.7,1.3,1.8,2.5,2.8,3.7c1.5,2,3.2,3.8,4.7,5.9c0.9,1.3,1.9,2,3.3,2.6
		c3.4,1.3,6.5,3,9.2,5.4c0.4,0.4,1,0.6,1.6,0.9c0-5,0-9.7,0-14.6c-1.6-0.5-2.8-1.3-4.4-1.5c-1.7-0.2-3.2-0.9-4.7-1.7
		c-4.3-2.2-7.2-5.7-9.6-9.8c-0.1-0.1,0.2-0.4,0.4-0.8c3.7,1.7,7.5,3.5,11.3,5.2c1.7,0.8,3.2,2,5.1,2.3c0.1,0.1,0.2,0.2,0.2,0.3
		c0-0.1,0-0.2,0-0.2c-0.1,0-0.2,0-0.3,0c0-0.6,0.1-1.2,0.1-1.8c0-0.5,0-1,0-1.4c0.1-0.8,0.5-1.4,1.2-1.6c0.8-0.2,1.4,0.3,1.8,1
		c0.4,0.7,0.7,1.5,0.9,2.3c0.5,1.8,0.9,3.7,1.3,5.6c0.2,0.8,0.3,1.7,0.1,2.4c-0.3,0.7-1.1,1.2-1.8,1.9c0,2.4,0,5.1,0,7.7
		c0,0.7,0.1,1.4,0.1,2.1c0,0.1,0.1,0.2,0.1,0.3c0.1,0,0.2-0.1,0.3-0.1c0.3-0.8,0.5-1.6,0.8-2.3c0.3-0.7,0.2-1.7,1.4-2
		c0.2,2.6,0.4,5.2-0.5,7.8c-0.2,0.5-0.4,1.3-0.1,1.7c0.6,1,0.2,1.8,0.1,2.7c-0.3,2-0.6,4-0.6,6c0,4.8,0.2,9.5,0.4,14.3
		c0.1,1.3,0.5,2.6,0.8,3.8c0.8,3.5,2.2,6.8,1.9,10.5c-0.2,2.8,0.5,5.4,1.1,8.1c0.7,2.8,2.1,5.2,4,8.1c-0.1-1.5-0.2-2.4-0.2-3.3
		c0-0.5,0.4-0.8,1.1-0.7c1,2.4,1.2,5.1,0.6,7.6c-0.4,1.7-0.3,3.3-0.1,5c0.8,5.6,0.5,11.2-0.1,16.8c-0.3,2.6-0.4,5.2,0.6,7.8
		c0.4,1.1,0.6,2.3,0.8,3.5c0.8,4.6,1.5,9.2,2.4,13.7c1,4.9,2.2,9.8,3.4,14.6c0.9,3.7,1.9,7.4,3.8,10.8c2,3.6,3.6,7.5,4.7,11.6
		c0.2,0.7,0.3,1.4,0.7,2c2.3,3.3,3.4,7.1,4.4,10.9c0.3,1.4,0.8,2.7,1.8,3.9c1.9,2.2,3,4.8,4.3,7.4c1.1,2.1,2.4,4.1,3.7,6.1
		c0.7,1.1,1.7,1.6,3,1.5c0.6,0,1.2,0.1,1.8,0.1c4.8-0.1,9.5,0.2,14.3,0.6c2.5,0.2,5-0.1,7.5,0.6c1,0.3,1.9-0.1,2.7-0.6
		c2.4-1.3,5.1-1.9,7.7-2.8c2.1,1.1,4.1,2.2,6.1,3.2c1.1,0.6,2,1.2,3.1,1.7c1.7,0.8,3.4,0.9,5.2-0.3c-0.5-0.4-0.9-0.7-1.3-0.9
		c-3-1.7-6-3.4-8.3-6.2c-0.7-0.9-1.8-1.2-2.9-1.1c-3,0-5.9,0-8.9,0.1c-1.8,0-2.1-0.1-3.3-2.1c0.6,0.1,1.1,0.1,1.5,0.4
		c1.4,0.9,2.9,0.8,4.5,0.6c1.5-0.1,3.1-0.1,4.6-0.3c2.7-0.3,4.8,0.8,6.9,2.4c2.3,1.7,4.7,3.3,7.1,4.8c0.9,0.5,2,1,3,1
		c2.5,0,5-0.1,7.9-0.8c-3.3-1.3-6.2-2.4-9.2-3.2c-2.3-0.6-4.5-1.5-6.6-2.6c-0.4-0.2-0.9-0.4-0.6-1.2c1.8-0.1,3.4,1.3,5.4,1.4
		c-1-3.1-3.2-3.7-5.9-3.4c-0.1,0-0.2,0-0.4,0.1c-2.9,0.6-5.9,0.7-8.9,0.2c-1.3-0.2-2.6-0.1-3.9-0.3c-1.2-0.1-2.4-0.2-3.5-0.5
		c-6.3-1.3-12.6-2.2-18.9-3.1c-0.6,0.5-1,0.8-1.6,1.2c-0.3-0.9-0.6-1.6-0.9-2.4c-1,0.1-1.7,0.2-2.5,0.2c-0.2-1.1-0.7-2.2-0.4-2.8
		c0.6-1.3,0.3-2.3,0-3.4c-1-4.3-1.4-8.7-1.7-13.1c-0.1-1.3-0.2-2.6-0.4-3.9c-1.4-8-1.9-16.1-1.6-24.2c0.1-2.3,0-4.5,0-6.8
		c0-2-0.2-4.1-0.1-6.1c0-1.5-0.5-3.1,1.1-4.2c0.3-0.2,0.3-0.9,0.3-1.4c0-1.7,0-3.4-0.2-5c-0.2-1.9-0.2-3.8,0.2-5.7
		c0.7-3.8,0-7.3-1.2-10.9c-0.3-0.9-0.7-1.8-0.9-2.7c-0.1-0.4-0.1-0.9,0.6-1.1c2.4,2.4,3.9,6.2,3.6,9.7c-0.1,1.4,0.1,2.8,0,4.2
		c-0.2,4.2-0.3,8.3-0.3,12.5c0,4.9-1.5,9.7-0.6,14.6c0.1,0.6,0,1.2-0.1,1.8c-0.8,6.5,0,12.9,0.6,19.3c0.1,0.7,0.4,1.4,0.6,2.1
		c0.9,0.3,1.6,0.7,2.4,0.8c2.1,0.4,4.2,0.8,6.3,1.1c0.9,0.2,1.9,0.4,2.8,0.3c2.7-0.2,5.2,0.5,7.4,1.8c1.3-0.1,2.3-0.3,3.4-0.3
		c3.3,0,6.7,0.3,10,1c1.3,0.3,2.6,0.4,3.9,0.5c3.7,0.2,7.4,0.6,10.7,2.3c0.4,0.2,0.9,0.4,1.3,0.4c1.9,0.1,2.9,1.7,4.4,2.4
		c-0.5,1.4-1.7,1.4-2.5,2c-0.6,0.4-1.2,0.7-1.1,1.6c0.1,0.7-0.6,1-1.2,1c-0.8,0-1.7-0.2-2.5-0.3c-3.2-0.3-6.4-0.8-9.6-1
		c-3-0.1-6,0-8.9,0.2c-0.8,0-1.7,0.2-2.3,0.6c-1.6,1-3.3,1.2-5.2,0.9c-1.6-0.3-3.3-0.4-4.9-1.1c-2.4-1.1-5-1.6-7.7-1.5
		c-0.9,0-1.9-0.1-2.8-0.3c-0.4-0.1-0.9-0.3-0.6-1.1c1.7-0.1,3.5-0.2,5.2-0.2c2.5,0.1,5,0.1,7.1,1.9c0.2,0.1,0.4,0.3,0.6,0.3
		c2.2,0,4.5,0.6,6.8,0c0.1-0.8,0.3-1.4,0.4-2.1c-0.2-0.1-0.3-0.3-0.4-0.3c-4-0.5-7.6-1.8-10.9-4.1c-0.6-0.4-1.6-0.5-2.4-0.5
		c-0.9-0.1-1.9,0.1-2.9,0.1c-0.3,0-0.9,0.1-0.9-0.8c2.8-0.7,5.3-0.4,8,0.7c3.3,1.3,6.4,3.2,10.2,2.9c1.3,2.2,3.3,2.6,5.5,2.7
		c0.6,0,1.2,0,1.8-0.1c0.6,0,1.2-0.2,1.8-0.1c3.2,0.1,6.4,0.3,9.6,0.4c0.5,0,1-0.1,1.5-0.2c-1.7-1-3.4-2-5.4-1.6
		c-1.6,0.4-3.1,0.1-4.5-0.4c-2.1-0.8-4.3-1.3-6.5-1.7c-2.9-0.6-6-0.7-8.4-2.8c-0.2-0.2-0.7-0.2-1-0.3c-5.2-1.1-10.4-2.2-15.6-3.4
		c-0.7,0.3-1.5,0.6-2.4,1c1.3,6.9,2.1,13.9,0.8,20.8c1.4,1.2,2.6,2.3,3.8,3.4c1.1-0.1,2.2-0.2,3.2-0.1c3.7,0.4,7.3,0.9,11,1.4
		c0.7,0.1,1.5,0.1,2.1,0.5c2,1.4,4.3,1.3,6.5,1.4c1.7,0.1,3.4,0.1,5,0.4c1.8,0.3,3.5,0.2,5.3-0.1c1.5-0.2,3.1-0.3,4.6-0.3
		c1.7-0.1,3.2,0.5,4.1,1.9c1.1,1.7,2.6,2.4,4.4,2.8c1.8,0.5,3.8,0.6,5.6,1.2c1.9,0.6,3.7,1.7,5.5,2.5c0.6,0.3,1.4,0.3,2.1,0.5
		c0.4,0.1,0.8,0.5,1.4,0.9c-0.6,0.4-1,0.7-1.4,0.8c-1.1,0.3-2.1-0.2-3.1-0.7c-0.9-0.5-1.7-1.3-2.9-1.2c-0.5-0.2-1-0.5-1.5-0.7
		c-0.2-0.1-0.4-0.3-0.5-0.4c0.2,0.1,0.4,0.2,0.6,0.3c0.3,0.8,1,0.5,1.5,0.7c0.3,1,0.6,1.9,1,3c-1.9,0.9-3.6,1.4-5.6,1.3
		c-2.3-0.1-4.4,0.2-6.5,1.4c-2.4,1.5-5,1.1-7.4-0.3c-1.4-0.9-2.9-1.7-4.3-2.6c-3.6-2.1-3-1.6-5.9-0.5c-1.6,0.6-3.1,1.1-4.8,1.6
		c-1.3,0.3-2.6,0.6-3.9,0.6c-7.5-0.2-15-0.6-22.5-0.8c-2.4-0.1-4.1-1-5.3-3c-0.7-1.1-1.4-2.2-2-3.4c-0.3-0.5-0.4-1.1-0.7-1.6
		c-1.7-2.4-3.4-4.9-5.2-7.3c-1-1.4-1.8-2.8-2.2-4.5c-0.8-2.8-1.5-5.5-2.3-8.3c-0.2-0.8-0.5-1.6-0.9-2.3c-0.7-1.5-1.5-3-2.1-4.5
		c-1.5-3.4-2.8-6.9-4.4-10.2c-2.1-4.4-3.7-9-4.7-13.9c-0.5-2.6-1.1-5.1-1.7-7.7c-0.9-3.5-1.4-7-1.8-10.6c-0.4-3.4-0.8-6.8-2.1-10.1
		c-0.8-2-1-4.1-0.4-6.3c0.5-1.9,0.6-4,0.4-6c-0.6-5.2-0.5-10.5-0.5-15.7c0-0.8,0-1.7-0.3-2.4c-0.9-2-2.1-4-3.7-5.8
		c-1.6,1.4-2.4,3.2-3.4,4.7c-5.6,8.3-12.9,15-21.2,20.5c-6.1,4-12.1,8.1-18.1,12.2c-2.7,1.8-5.3,3.7-7.9,5.6
		c-4.3,3-8.8,5.8-13.5,8.1c-1,0.5-2,1-2.7,1.7c-3.3,3-6.6,6.2-9.9,9.3c1.4,1.8,3.1,1.2,4.7,1.1c1.7,2,1.7,2,4,2.9
		c5,1.8,10.1,3.7,15.5,3.8c0.6,0,1.2,0.1,1.8,0.2c0.8,0.2,1.6,0.6,2.4,0.7c0.7,0.1,1.5-0.2,2.1-0.3c0.9,1.6,1.6,2.9,2.4,4.3
		c1,1.9,2.1,3.8,2.9,5.8c0.6,1.6,0.9,3.4,1.2,5.2c0.2,1,0,2.1-0.9,2.8c-0.4-0.2-0.7-0.3-1.1-0.4c-1.5,1.2-2.9,2.4-4.4,3.5
		c-2.2,1.6-4.5,2.6-7.3,2.6c-0.7,0-1.3,0-2.6,0c0.9,0.6,1.3,0.9,1.7,1.1c3,0.9,6,1.8,9.1,1.6c2-0.1,3.9,0.9,6,0.4
		c0.2-0.1,0.8,0.5,1,0.9c0.2,0.5,0.2,1.2,0.3,1.7c0.1,1.4,0,2.9,0.2,4.3c0.6,3.9,0.7,7.8,0.2,11.8c0,0.2-0.2,0.3-0.3,0.5
		c-0.4-0.3-0.8-0.5-1.3-0.8c-1.4,1.1-2.7,2.2-4.1,3.3c-4.5,3.7-9.8,5.8-15.6,6.7c-7.3,1.1-14.5,1-21.7-0.6c-3.4-0.8-6.7-1.8-9.8-3.3
		c0.1-0.5,0.2-0.9,0.2-1.4c-4.4-2.7-8.9-5.2-13.7-7.1c-1.2-0.5-2.3-0.8-3.5-0.4c-4.7,1.3-9.5,1.1-14.2,1.2c-2.9,0-5.4-0.8-7.8-2.2
		c-1.6-1-3.1-2.2-4.5-3.5c-1.8-1.7-3.7-3-5.9-4c-0.7-0.3-1.4-0.8-2.1-1.3c0.3-2.3,0.5-4.4,0.7-6.4c1-1.2,1.9-2.1,2.8-3.1
		c0.6-0.7,1.3-1.5,1.5-2.4c0.5-2.4,1.7-4.4,2.9-6.5c0.1-0.1-0.1-0.4-0.2-0.8c-2.5-0.7-4.2-2.4-5.7-4.5c-1.4-2-1.4-2.9,0.3-4.7
		c1.6-1.7,3.3-3.4,5.1-5c1.1-1,1.9-2.2,2.1-3.6c0.2-1.6,0.9-2.9,1.8-4.2c0.9-1.4,1.8-2.8,2.7-4.2c1.6-2.3,3-4.6,3.6-7.4
		c0.6-2.8,2.6-4.4,5.2-4.7c3.8-0.4,7.6,0,10.5,3.4c1.3-1.2,2.6-2.4,3.8-3.7c2.3-2.6,4.5-5.3,6.7-7.9c0.5-0.6,0.9-1.4,1.6-1.9
		c2.1-1.8,3.6-4.2,5-6.5c1-1.6,1.7-3.4,2.7-5c2.4-3.6,4.1-7.5,5.9-11.4c1-2.3,2-4.6,3.2-6.8c0.6-1.2,1.2-2.4,2.1-3.3
		c1.2-1.1,1.8-2.5,2.3-4c1.5-4.2,3.7-8,6.5-11.5c1-1.2,2-2.3,3.2-3.6c-2.8-0.6-5.3-1-7.9-0.7c-5.3,4.9-10.6,9.8-15.8,14.6
		c-1.4,0.1-2.6,0.4-3.9-0.3c-3.5-2-7.2-3.8-10.8-5.6c-12.1-6.2-24.6-11.6-37-17.1c-0.8-0.3-1.6-0.6-2.3-0.9
		c-1.6-0.6-3.2-1.1-4.6-1.8c-7.9-4.3-15.2-9.4-22-15.3c-2.2-1.9-4.1-4-5.7-6.4c-1.5-2.1-2.3-4.5-1.9-7.1c0.3-1.7,0-3.3-0.6-4.9
		c-3-7.3-3.8-15-3.4-22.8c0.3-6.9,2.8-12.7,8.3-17.2c2.9-2.3,5.5-4.9,8.3-7.3c2.4-2.1,4.9-4.2,7.5-6.1c1.3-0.9,2.4-1.8,3.2-3.2
		c1-1.7,2.3-3.1,4.1-3.8c4.1-1.6,8.2-2.4,12.5-0.5c0.3,0.1,0.7,0.2,1.1,0.3c4.1-2.5,8.3-4.6,12.7-6.5c7.2-3,14.5-5.4,21.9-7.8
		c4.8-1.5,9.6-3,14.3-4.7c6.6-2.5,13.5-3.9,20.6-4.5c5.2-0.5,10.5-0.6,15.7-0.6c7.8-0.1,15.5-0.2,23.3,0.4c4.5,0.3,9,0.7,13.5,1.4
		c4.1,0.6,8.1,2.2,12.3,1.7c0.1,0,0.2,0,0.4,0c3.9,0.8,7.7,1.7,11.3,3.3c8.3,3.7,16.4,7.7,24.1,12.5c3.2,2,6.7,3.6,10.4,4.4
		c0.2,2.8,0.2,2.8,2.2,4.1c0.7,0.5,1.4,0.8,2.2,1.3c1.4,0.9,2.8,1.1,4.3,0.1c0.8-0.5,1.8-0.7,2.7-0.9c1.1-0.2,2-0.8,2.8-1.4
		c1.4-1,2.3-2.4,2.8-4c3.9-1.4,7.1-3.6,10.3-6c2.1-1.6,4.3-2.9,5.5-5.5c0.2-0.5,0.8-0.9,1.2-1.3c0.3-0.4,0.7-0.7,0.8-1.1
		c0.5-2.3,2.3-3.6,4.1-4.7c3.2-2,6.6-3.3,10.1-4.4c1-0.3,2.1-0.6,3-1.1c1-0.6,2-0.8,3.1-0.7c2.8,0.2,5.5-0.3,8.2-0.8
		c0.8-0.1,1.6-0.2,2.4-0.1c1.3,0.2,2.6,0.5,3.9,0.7c0.2,0,0.5,0,0.8,0c0.6-0.5,1.2-1,1.8-1.5c1.1,0.2,2.1,0.5,3.1,0.7
		c1.5,0.3,1.9-1.2,2.8-1.8c0.5-0.3,0.9-0.1,1.2,0.5c-0.2,0.7-0.4,1.5-0.6,2.3c-0.2,0.8-0.1,1.4,0.8,1.7c1.4-0.3,2.8-0.6,4.2-0.8
		c0.3,0,0.8,0.4,1,0.8c0.1,0.2-0.1,0.7-0.3,0.9c-0.6,0.8-2,0.7-2.4,1.9c1.2,1,2.4,1.8,3.4,2.8c0.6,0.5,1.4,1.2,1.6,1.9
		c0.3,1.3,1.3,1.9,2.2,2.6c3,2,5.3,4.7,6.9,8c0.3,0.6,0.5,1.3,0.7,2c0.1,0.6,0.1,1.2,0,1.8c-0.1,0.6-0.5,1.1-0.8,1.7
		c1.1,0.3,2.1,0.3,3,0.7c0.6,0.2,1,0.9,1.4,1.3c-0.5,0.9-0.9,1.6-1.2,2.1c0.8,1.8,1.6,3.2,2,4.8c0.6,2.2-0.5,3.2-2.9,2.8
		c-0.2,0-0.5,0-0.7,0c0.1-0.5-0.1-0.8-0.7-0.8c-0.1-0.4-0.2-0.9-0.4-1.2c-0.1-0.1-0.6,0-0.9,0c0,0.2,0,0.5,0.1,0.6
		c0.4,0.2,0.8,0.4,1.2,0.5c0.2,0.3,0.5,0.5,0.7,0.8c0.9,1.3,2.3,1.6,3.7,1.8c1.4,0.3,2.4,0.9,2.9,2.4c-0.4,0.7-0.9,1.4-1.3,2.1
		c-1.4,0.1-2.4-0.7-3.4-1.1c-0.4-0.2-0.8-0.1-1.7-0.1c1.2,0.9,2,1.4,2.7,2c0.8,0.6,1.8,1.1,2,2.2c-0.7,0.7-1.2,0.3-1.8,0.2
		c-1-0.2-1.9-1.1-3.1-0.8C738.6,357.5,738.4,357.3,738.2,357z M666.7,344.2l-0.2-0.1l0-0.2l0.1,0.1L666.7,344.2z M733.2,330.5
		c0-1.2-0.9-1.8-1.6-2.4c-1.4,1-2.8,2-4.3,3c0.7,0.2,1.5,0.5,2.2,0.7c0.7,0.2,1.3-0.1,1.8-0.7C731.8,330.8,732.6,330.7,733.2,330.5
		c0.3,0.2,0.6,0.4,0.9,0.6l0.1,0.2l-0.2-0.1C733.7,331,733.4,330.8,733.2,330.5z M664.6,341.3l-0.1-0.2c-0.3-0.2-0.5-0.4-0.8-0.7
		c-0.2-0.2-0.5-0.4-0.7-0.6c0.3-0.7,0.4-1.4,1.1-1.9c0.2-0.2,0.2-0.8,0.2-1.2c1.3-0.1,2.4,0.5,3.7,1c-0.2-0.7-0.4-1.5-0.7-2.3
		c-1.4-0.1-2,0.9-2.9,1.3c-1,0.6-2.1,1.1-3.1,1.7c-0.5,0.3-0.8,0.9-0.3,1.6c0.6-0.1,1.3-0.2,2-0.3c0.3,0.2,0.5,0.4,0.8,0.6
		c0.2,0.2,0.5,0.4,0.7,0.7L664.6,341.3z M704.7,353.2l-0.1,0.1c-0.2,0.3-0.4,0.5-0.7,0.8c-0.7,0-1.4,0-2.2,0
		c-0.2-0.3-0.4-0.6-0.6-0.8c-0.1-0.1-0.2,0-0.3,0c0,0.2,0,0.5,0,0.6c0.3,0.1,0.6,0.1,1,0.2c-0.2,0.7,0,1.3,0.7,1.3
		c0.8,0.1,1.3-0.4,1.3-1.3c0.6,0,0.8-0.3,0.6-0.8L704.7,353.2z M724.1,352.5c0.1,0,0.2-0.1,0.3-0.1c-0.2-0.1-0.3-0.3-0.5-0.4
		c-0.1-0.1-0.1-0.2-0.2-0.2c0,0-0.1,0-0.2,0c0.2,0,0.3,0.1,0.5,0.1C724,352.1,724.1,352.3,724.1,352.5z M721.9,319.8l-0.2-0.1
		c-0.3-0.8-0.9-0.6-1.5-0.6c0.2-0.6-0.2-0.7-0.6-0.9c-0.2-0.1-0.4-0.3-0.2-0.1c-0.3,0,0,0,0.3,0c0.2,0.3,0.4,0.6,0.6,0.9
		c0.5,0.2,1,0.4,1.4,0.6L721.9,319.8z M424.6,409.9c-0.1,1.1,0.6,1.8,1.3,2.4c2.5,2.3,4.8,4.6,7.5,6.6c5.1,3.9,10.4,7.6,15.6,11.3
		c0.9,0.6,1.8,1,2.9,1.3c4.5,1.1,8.9,2.8,13.2,4.5c13.6,5.5,26.8,11.9,39.5,19.2c0.5,0.3,1.1,0.5,1.5,0.7
		c5.4-3.2,22.4-19.9,31.6-31.1c5.2-6.3,17.1-24.9,18.5-28.9c-1.8-1.6-4.1-2.4-6.3-3.1c-1.6-0.5-3.1-1.2-4.6-2
		c-2.3-1.2-4.6-2.5-6.9-3.7c-3-1.6-6.1-2.6-9.4-3.5c-2.7-0.7-5.4-0.7-8,0.5l0.1,0.1c0.1-0.4,0.5-1.1,0.3-1.3c-1.3-1.1-1.6-2.6-2-4.1
		c-0.1-0.3-0.4-0.6-0.6-1c-2.5-0.1-5.1-0.3-7.6,0.8c-2,0.9-4,0.6-6.2-0.3c-3.5-1.4-6-3.7-8.3-6.5c-1.3-1.5-2.4-3.3-4.3-4.5
		c-0.9,0.3-1.8,0.5-2.7,0.8c-3.3,1-6.6,2.2-9.9,3c-1.7,0.5-3.5,0.6-5.3,0.6c-2.1,0-4,0.6-6,1.1c-4,1.1-8,2.3-12,3.4
		c-0.9,0.3-1.5,0.6-1.4,1.9c-1.1-0.6-2.1-1.1-3.3-0.7c-1.6,0.5-3.2,0.9-4.8,1.3c-0.7,0.2-1.3,0.2-2.6,0.5c2.2-2.2,4.7-2.3,6.8-3.6
		c-0.3-0.8-0.7-1.7-0.8-2.6c-0.2-0.9-0.2-1.9-0.3-2.4c0.9-1.2,1.8-2.2,2.5-3.3c1.7-2.6,3.2-5.3,4.9-7.9c0.6-1,1.5-1.9,2.3-2.7
		c0.7-0.6,1.5-0.7,2.3,0.4c-0.5,0.4-1,0.7-1.5,1.1c-0.4,0.4-0.8,0.9-1.1,1.4c-0.4,0.6-0.8,1.2-1.2,1.8c-0.9,1.3-1.7,2.6-2.6,3.9
		c-0.8,1.2-1.6,2.3-2.6,3.7c0.7,0.1,1.2,0.2,1.6,0.2c5.4-0.4,10.7,0.2,16.1-0.7c0.8-0.1,1.7,0,2.5,0.1c2.3,0.2,4.5,0.6,6.7,0.7
		c1.8,0.1,3.5-0.5,5.1-1.2c0.4-1.3,0-2.2-0.9-2.9c-0.9-0.7-1.7-0.8-2.9-0.6c-3.6,0.7-7.4,0.6-11,0c-0.3,0-0.5-0.4-0.9-0.8
		c1.3-0.8,2.7-1,4.1-1c1.6,0,3.1,0.1,4.7,0c1.1,0,2.1-0.1,3.2-0.4c2.8-0.6,4.9,0.5,5.8,3.2c0.1,0.3,0.1,0.7,0.2,1.1
		c0.1,0.2,0.2,0.4,0.4,0.6c2.2-0.3,4-1.3,5.7-2.5c4.3,2.6,8.6,7.3,11.1,12c2.4,1.3,4.8,1.2,7.2,0.1c2-0.9,4.1-1.1,6.3-1.3
		c1.6-0.2,2.8,0.5,3.6,1.8c0.6,0.9,1.1,1.9,1.6,2.9c0.8,0.1,1.7,0.2,2.5,0.3c1,0,1.9,0.2,2.6,0.9c0.8,0.8,1.8,1.2,2.8,1.4
		c1.6,0.4,3.2,0.9,4.8,1.4c1.9,0.6,3.8,1.3,5.4,2.7c1.9,1.7,4.2,2.8,6.6,3.4c2.8,0.7,5.4,1.8,8.1,2.8c3.6,1.4,12,3.9,15.4,4.4
		c-0.6-0.7-1.1-1.1-1.5-1.6c-1.3-1.6-2.6-3.1-3.8-4.7c-1.8-2.5-2.6-5.3-2.5-8.4c0.1-1.4-0.2-2.8-0.2-4.3c0-0.8,0.2-1.6,0.3-2.4
		c0.2-0.9,0.4-1.8,0.6-3c0.4-0.5,1.2-1.2,1.7-2.1c4.1-6.8,9.2-12.7,15.4-17.8c3.1-2.6,6.5-4.9,10.1-6.8c3.9-2,8-3.1,12.4-3.1
		c5-0.1,10,0.4,14.8,2.1c1.6,0.5,3.2,0.9,4.8,0.5c1.4,0.7,2.6,1.5,4,1.9c4.1,1.4,7.1,4.3,10,7.3c2.3,2.5,4,5.3,5.5,8.3
		c1.1,2.2,1.6,4.5,1.9,6.9c0.2,1.9,0.6,3.8,0.6,5.7c0,2-0.1,4-1.3,5.8c-1,1.5-1,3-0.4,5c0.5-0.7,0.8-1,1-1.4c0.5-1,0.7-2.1,1.3-2.9
		c1.7-2.3,2-5,2-7.8c0-1.8-0.1-3.6,0-5.4c0-2.8-0.4-5.4-2.1-7.8c-0.9-1.2-1.4-2.8-1.9-4.2c-1.4-3.9-3.6-7.2-6.5-10.1
		c-0.7-0.7-1.3-1.4-1.8-2.2c-1.5-2.2-1.1-3.7,1.2-5.4c0.3-0.2,0.5-0.4,0.9-0.8c-0.3-0.2-0.6-0.5-0.8-0.6c-3-0.8-5.8-2.2-8.4-3.8
		c-6.6-4.1-13.6-7.4-20.6-10.7c-1.1-0.5-2.1-0.9-3.4-0.3c-0.5,0.2-1.4-0.1-2.1-0.2c-3.4-0.8-6.7-1.6-10.1-2.5
		c-5.6-1.5-11.2-2.2-16.9-2.6c-9.5-0.7-19.1-0.4-28.6-0.6c-5.7-0.1-11.5-0.1-17.2-0.3c-2.9-0.1-5.7,0.4-8.4,1.4
		c-12.3,4.6-24.9,8.2-37.3,12.5c-6.7,2.3-13.3,4.6-19.9,7c-0.7,0.2-1.3,0.6-2.2,0.9c0.5,0.6,0.9,1,1.3,1.4
		c4.2,3.7,7.3,8.2,10.2,12.8c0.5,0.8,0.4,2,0.8,3.6c-2.3-1.8-3.7-4-6.5-4.4c0.2,1.1,1,1.4,1.5,2c0.6,0.7,1.4,1.3,2,2
		c0.6,0.6,1.1,1.2,1.6,1.9c0.5,0.7,0.8,1.4,1.2,2.2c-0.6,0.2-0.9,0.4-1.2,0.3c-0.3-0.1-0.6-0.3-0.8-0.6c-4-4.7-8.9-8.3-13.7-12
		c-2.1-1.6-4.3-2.9-7-3.5c-0.5-0.1-1-0.5-1.4-0.7c-0.1-0.8,0.3-1.1,0.8-1.1c0.8,0,1.7-0.1,2.5,0.2c2.9,1,5.9,0.5,9.1,0.5
		c-0.6-1.7-1.7-2.8-3.3-3.1c-5.6-1-10.6,0.1-14.9,4.4c1.9,0.8,3.9,0.3,5.4,1.5c-0.6,1-1.3,0.8-2,0.8c-7.5-0.1-7.7,0.8-12.3,5.1
		c-3.9,3.6-7.6,7.5-10.9,11.9c-2.4,3.3-3.8,6.9-3.9,10.9c-0.1,5.7-0.4,11.4,0.5,17.1c0.9,5.4,1.9,10.8,4,15.9
		C425,409.1,425.2,409.6,424.6,409.9c-0.4-0.2-0.6-0.4-0.9-0.6c-0.2-0.5-0.4-0.9-0.6-1.4c-0.1-0.1-0.1-0.2-0.2-0.3
		c0.1,0.1,0.2,0.1,0.3,0.2c0.2,0.5,0.4,0.9,0.6,1.4C424,409.4,424.3,409.7,424.6,409.9z M708.9,362.7c0.1-0.1,0.2-0.1,0.3-0.2
		C709.1,362.6,709,362.7,708.9,362.7c-1.2,0.1-1.2,0.1-1.4,1.4c-0.2,0.1-0.4,0.2-0.5,0.2c0.5,0.4,0.5,0.1,0.5-0.3
		C708.4,364.2,708.7,363.5,708.9,362.7z M704.5,348.5c0.4,0.4,0.7,0.8,1.2,1.3c0.2-0.5,0.3-0.8,0.5-1.3
		C705.5,348.5,705,348.5,704.5,348.5C704.5,348.5,704.5,348.5,704.5,348.5z M682.7,321.7c1.3-0.3,1.7-1.4,2.5-1.9l0.1-0.1l-0.1,0.2
		C684.1,319.9,683.2,320.3,682.7,321.7z M665.1,346.9l0.2,0.1c0,1.2,0.5,2,1.5,2.7c0-1.3,0-1.3-1.5-2.7L665.1,346.9z M689.7,354.2
		c-1.7,0.3-1.4,3.1-3.7,1.9c0.5-1.5,1.2-2.8,2.6-3.6c2-1.3,4.1-2.4,6.6-2c0.1,0.6,0.4,0.8,1,0.3c-0.4-0.1-0.7-0.1-1.1-0.2
		c-0.6-0.5-1.2-1.1-1.8-1.6c-2.5,0.1-4.4,1.2-6.4,2.3c-0.7,0.4-1.3,1.1-1.7,1.8c-1,2.2-1.9,4.4-1.4,6.8c-1.6,1.2-1.7,3.3-2.8,4.7
		c0.7,1.2,1.6,0,2.5,0.6c0.2,1.1-0.4,2.2-1.4,2.7c-1.8,1-2.7,3.4-5,3.8c-0.3,0.1-0.6,0.7-0.8,1.1c-0.5,0.7-0.7,1.8-1.9,1.9l0.1,0.1
		c-0.3-1.4,0.4-2.6,0.9-3.7c0.2-0.4,0.6-0.8,1-0.9c1.5-0.3,2-1.5,3-2.7c-0.3-1.8-0.2-3.6,1-5.3c0.4-0.6,0.4-1.3,0.6-2
		c0.8-2.6,1.6-5.2,2.5-7.9c-0.3-0.4-0.7-0.4-1.1,0c-1.1,0.8-2.4,0.9-3.7,0.6c-2.3-0.5-4.7-1-7-1.5c-2.2-0.5-4.2-0.2-6.1,1.2
		c-2.7-0.9-4.7-2.5-5.3-5.5c-1.3-0.1-2.5-0.3-4.1-0.5c1-0.6,2.2-0.9,2.4-1.5c0.2-1,0.9-1.6,1.3-2.4c-0.3-0.4-0.5-0.7-0.8-1.1
		c-2.7,2.7-2.7,2.7-6.8,3.4c-0.9,0.2-1.9,0.3-2.8,0.6c-2.4,0.7-4.5,0.2-6.4-1.3c-1.2-1-2.4-2-3.7-3c-0.8,0.4-1.6,0.8-2.4,1.2
		c-0.3,1.4,0.4,2.3,1.2,3c4.1,3.7,6.3,8.6,8.4,13.5c0.3,0.7,0.5,1.3,0.8,2c2.3,4.1,2.4,8.7,2.3,13.2c0,1.4-0.5,2.8-0.9,4.1
		c-0.3,1.3-0.8,2.5-1.2,3.7c-0.1,0.4-0.2,0.9-0.3,1.4c1.8,0.3,3.5,0,5.1-0.3c2.7-0.4,5.4-0.4,8.2-0.1c1.8,0.2,3.6,0,5.3-0.1
		c0.8,0,1.6,0,2.5,0c1.4,1.5,2.4,3.2,3,5.2c0.7,2.2,1.5,4.3,2.1,6.4c0.4,1.5,1.4,2.4,2.8,3c0.5,0.2,1.1,0.5,1.7,0.7
		c1.6,0.6,3.1,0.4,4.4-0.6c0.5-0.4,0.9-0.8,1.3-1.2c1.3-1.2,2.8-1.8,4.6-1.1c0.3,0.1,0.7,0.3,1,0.2c0.4-0.1,1-0.2,1.2-0.5
		c0.2-0.3,0.2-0.9,0-1.3c-0.3-0.6-0.8-1.1-1.2-1.6c0.3-1,1-1.1,1.5-0.7c1.1,0.7,2.1,1.5,2.7,2.8c0.3,0.6,0.9,1,1.4,1.6
		c1.4-1.2,2.7-2.2,4.1-3.3c-0.4-0.8-0.8-1.5-1.2-2.1c1.4-3.2,2.4-3.9,4.2-2.5c-0.6,0.2-1,0.3-1.3,0.4c-0.3,0.1-0.6,0.3-1.1,0.5
		c0.8,2.1,1.9,4,2.9,5.9c1.8-1.6,6.6-7.7,8.9-11.3l-0.1,0.1c1.3-0.4,2.7-0.8,4.1-1.2c-0.6-2-1.4-3.7-2.9-4.9
		c-1.3-1.1-2.7-2.2-4.2-3.5c0.4-0.2,0.7-0.6,0.9-0.5c2,0.5,3.9,1.1,5.2,2.8c0.8,1,2.3,1.3,2.7,2.8c0.3,1.1,0.6,2.3,0.9,3.4
		c2.3-1.1,4.8-3.8,8.2-8.8c-0.8-1.3-1.7-2.7-2.6-4.1c-0.2-0.3-0.5-0.5-0.8-0.7c-0.3,0.2-0.7,0.4-1,0.5l0.1-0.1
		c-0.5-0.1-1.1-0.1-1.3-0.4c-1-1.2-2.3-1.9-4.2-2.2c-1.4,1.2-3.6,1.3-5.7,1.4c-0.4,0-0.8-0.2-1.5-0.3c0.4-0.5,0.6-0.7,0.7-0.9
		c0.2-0.2,0.3-0.5,0.8-1.4c-2.3,1.5-4.1,2.6-5.8,3.7c-0.9-0.4-1.7-1-2.4-0.9c-2.2,0.3-4.5-0.3-6.7,0.8c-1.3,0.6-2.6,1.1-4,1.5
		c-0.8,0.2-1.4-0.1-1.6-1.2c3.3-4.3,7.6-8.1,10.1-13.1c0-0.1-0.1-0.2-0.1-0.4c-1.1,0.4-0.9,2.1-2.4,2.4c-0.1-0.4-0.3-0.8-0.2-1.2
		c0.1-0.8,0.5-1.6,0.6-2.4c0-0.4-0.4-0.8-0.6-1.2c0-0.2-0.1-0.5-0.1-0.7c0-0.1,0-0.2,0-0.4c-0.1,0.2-0.3,0.4-0.2,0.5
		c0.1,0.2,0.3,0.3,0.5,0.5c-0.8,2.1-2.8,2.8-4.6,3.6c-1,0.4-2,0.7-2.9,1c-0.4,1.4-0.7,2.6-1,3.7c-1.1,0.8-1.6-0.5-2.4-0.4
		c-0.8,0.1-1.7,0-2.5-0.1c-0.7-0.1-0.9-0.7-0.9-1.3c1.3,0.1,2.6,0.2,4.1,0.3c1.1-0.5,0.5-2.1,1.7-3.4c0.7-0.3,1.9-0.8,3.1-1.3
		c0.4-0.2,0.7-0.5,1.1-0.7c1.3-0.3,1.3-0.3,2-1.3c-0.2,0-0.4-0.1-0.5-0.1c-0.5,0.5-0.9,0.9-1.4,1.4
		C692.3,355,690.7,355.3,689.7,354.2z M483.5,530c0.6,0.7,1.3,1.4,1.8,1.9c2.2,0.6,4.2,1.1,6.1,1.7c2.6,0.8,5.3,1.4,8.3,1.2
		c1.3-1.6,3.1-2.6,5-3.6c1.8-0.9,3.5-2.1,5.2-3.1c1.3-0.8,2.6-1.7,4-2.4c1.1-0.5,2-1.3,2.8-2.2c4.8-5.2,9.8-10.1,15.5-14.3
		c1.5-1.1,3.2-2,4.9-3c0.7-0.4,1.7-0.9,2.3-0.7c1.7,0.5,2.7-0.4,3.9-1.2c12-7.6,23.5-16,34.2-25.3c6.7-5.8,12.7-12.2,18.4-19
		c0.2-0.3,0.3-0.6,0.6-1.1c-1-2.9-1.2-5.9-1.1-9c0.1-1.3,0-2.6-0.4-3.9c-1.3-5-1.3-10.2-2.8-15.1c-0.8-2.5-1-5.2-0.9-7.8
		c0-2.6,0.1-5.2,0.2-7.9c0-0.7,0.3-1.4,0.4-2.1c0.1-0.9,0.3-1.8,0.4-2.7c-0.3-0.3-0.5-0.5-0.7-0.6c-5-2.3-9.9-4.7-15.1-6.5
		c-5.9-2-11.7-4.2-17.5-6.2c-0.3-0.1-0.7-0.1-1-0.2c-1,0.5-0.8,1.7-1.2,2.5c-1.9,3.6-3.5,7.3-5.5,10.8c-4.4,7.6-9.6,14.5-15.7,20.8
		c-3.3,3.3-6.2,6.9-9.2,10.4c-0.1,0.1,0,0.2-0.1,0.6c0.9,0,1.9,0,2.8,0c2.5-0.1,5-0.2,7.5-0.4c4.5-0.3,9-0.6,13.6-0.9
		c0.6,0,1.2-0.1,1.7-0.4c1.6-0.9,3.4-1,5.2-0.9c4.6,0.2,9.2,0.9,13.6,2.5c0.2,0.1,0.3,0.4,0.4,0.6c-0.1,0.1-0.3,0.4-0.4,0.4
		c-1.5,0.1-3.1,0.3-4.6,0.1c-2.8-0.4-5.4-0.1-7.8,1.7c-0.4,0.3-1.1,0.4-1.7,0.5c-2.5,0.4-4.8,1.4-6.9,2.8c-1.6,1-3.2,2.1-4.8,3.2
		c-2.7,2-5.1,4.3-6.7,7.3c-1.2,2.2-2.5,4.3-3.9,6.4c-1.8,2.9-3.7,5.8-5.6,8.7c-0.8,1.3-1.8,2.6-2.5,3.9c-3.2,5.6-7,10.8-11,15.9
		c-5.6,7-11.1,14-16.2,21.4c-0.8,1.1-1.4,2.6-3.1,2.7c-0.3,0-0.5,0.4-0.8,0.7c-0.2,0.2-0.3,0.4-0.4,0.6c-2.7,4.1-6.5,6.9-10.5,9.5
		c-0.3,0.2-0.5,0.5-0.9,0.8C483.3,529.6,483.3,529.9,483.5,530z M475.8,525.7c-3.4,5.1-5.8,10.7-7.8,16.4c-0.2,0.7-0.4,1.4-0.6,2.1
		c-0.2,0.6-0.2,1.2-0.4,1.7c-0.2,0.8-0.3,1.7-0.8,2.3c-2.3,3.3-2.6,7.8-5.9,10.5c-0.5,0.4-0.9,0.8-1.2,1.3c-0.4,0.7-0.5,1.4,0.1,2
		c0.6,0.6,1.3,1,2,1.5c1.2,0.9,2.5,1.8,3.7,2.7c1.4,1.1,2.7,2.3,4.2,3.3c2.3,1.6,4.8,2.5,7.7,2.3c2.3-0.1,4.5,0,6.8,0.1
		c1.9,0,3.8,0,5.7-0.6c1.9-0.6,3.7-0.2,5.5,0.6c5,2.3,9.8,5,14.5,7.8c2,1.2,3.9,2.2,6.3,2.2c0.9,0,1.9,0.3,2.8,0.5
		c5.9,1.2,11.9,1.1,17.8,1c2,0,4-0.4,5.9-1.2c0.7-0.3,1.4-0.5,2-0.6c2.5-0.5,4.7-1.6,6.9-3c2.2-1.4,4.4-2.9,6.6-4.4
		c-0.5-4.3-1.1-8.5-1.6-13c-0.7-0.1-1.5-0.2-2.3-0.2c-3.6,0.1-7.1-0.4-10.5-1.8c-0.9-0.4-1.7-0.4-2.7-0.1c-0.8,0.2-1.8-0.3-2.9-0.5
		c-1.8,1.3-3.1,3.7-6.1,3.8c-0.8-3.2,1.7-4.7,3.1-6.9c-0.5-0.4-0.9-0.8-1.2-1.1c-1.3,0.2-1.6,1.3-2.3,1.8c-1.4,1.1-2.7,2.3-4.2,3.3
		c-0.5,0.4-1.3,0.6-2,0.7c-1.6,0.1-2.7-1.6-1.9-3c0.5-0.8,1.2-1.5,1.9-2.1c1.4-1.3,2.9-2.4,4.4-3.7c-0.2-1.1-1-1.6-2.1-1.9
		c-1.1,1.1-2.3,2.3-3.5,3.4c-0.9,0.8-1.9,1.4-2.9,2c-0.7,0.4-1.4,0.2-2-0.3c-0.6-0.6-0.6-1.3-0.2-2c0.7-1,1.5-1.9,2.3-2.7
		c1-1,2.2-1.8,3.5-2.8c-0.7-0.5-1.2-1-1.8-1.5c-1.2,0.9-2.4,1.7-3.5,2.5c-2.1,1.4-4.4,2.5-7,2.3c-0.3,0-0.7-0.2-1.2-0.4
		c0.2-0.6,0.1-1.3,0.5-1.6c1.1-0.9,2.3-1.7,3.5-2.4c1.6-0.9,3.5-1.5,5.1-3c-0.2-0.9-0.5-1.7-0.7-2.5c-0.4,0-0.7-0.1-0.8,0
		c-3.3,2.4-6.6,4.7-10.3,6.4c-0.8,0.4-1.5,0.7-2.3,0.9c-1,0.3-2-0.2-2.5-1c-0.6-0.9-0.4-2.2,0.6-2.9c0.8-0.6,1.6-1,2.5-1.4
		c3.4-1.5,6.8-2.9,10.2-4.4c0.6-0.3,1.2-0.6,2-1c-0.7-3.2-0.1-6.4-0.7-9.6c-2-0.2-3.7,0.3-5.1,1.5c-2.9,2.4-6,4.3-9.5,5.7
		c-0.1,0.9-0.2,1.7-0.3,2.6c-2,0.6-3.7,1.7-5.4,2.7c-2.8,1.6-6,2.3-9.3,2.2c-1.5,0-4.2-1.8-4.8-3.2c-0.4-1.1-0.8-2.2-1.1-3.4
		c-0.5-1.8-1-3.7-2.1-5.3c-1.1-1.8-1-3.8-0.6-5.8C477.2,523.9,477,524,475.8,525.7z M555.1,441.8c-5.1,2.1-10.5,2.2-15.8,2.5
		c-1.1,0.1-2.1,0.1-3.1,0.1c-3.4,4.8-6.7,9.4-9.9,14.1c-3.7,5.3-7.1,10.8-9.4,16.8c-1,2.7-2.4,5.2-3.6,7.8c-0.5,1.1-1.1,2.3-1.9,3
		c-1.8,1.4-2.6,3.3-3.5,5.3c-1.6,3.3-3.9,6.3-6.3,9.1c-1.7,2-3.4,4-5.1,6c-1.8,2-3.7,4-5.6,6c-0.6,0.6-1.3,1.1-2,1.7
		c0.8,1.2,1.4,2.2,2,3.3c0.5-0.4,0.9-0.7,1.3-1c0.5-0.5,0.9-1.1,1.4-1.6c5.9-6.1,11-12.9,15.9-19.7c3.6-4.9,7.4-9.6,11.3-14.4
		c2.4-2.9,4.3-6,6-9.3c3.4-6.7,7.4-13.1,11.8-19.2c3-4.1,7.1-6.7,11.9-8c1.7-0.5,3.5-0.9,5.2-1.4c0.7-0.2,1.3-0.5,1.9-0.8
		c-0.1-0.2-0.1-0.4-0.2-0.6C556.5,441.6,555.7,441.5,555.1,441.8z M545.6,534.5c-1.4,0-2.9,0.2-4.3,0.1c-1.3-0.1-2.6-0.4-4.1-0.7
		c-0.4,1.1-0.7,2.2-1.1,3.3c-0.4,1-0.8,2-1.8,2.6c-0.8,0.5-1.5,0.7-2.4,0.2c-0.8-0.4-1.2-1.2-1.1-2.1c0.2-1,0.6-2,0.9-3
		c0.3-0.8,0.6-1.5,0.9-2.3c0-0.1-0.2-0.4-0.4-0.5c-0.2-0.1-0.5,0.1-0.6,0.2c-0.4,0.9-0.6,1.8-1,2.7c-0.6,1.6-1.3,3.1-2.7,4.1
		c-1.4,1.1-3.3,0.5-3.7-1.2c-0.2-0.6,0-1.5,0.3-2c0.7-1.3,1.5-2.4,2.3-3.6c0.4-0.6,0.9-1.1,1.4-1.7c-0.7-1.2-1.9-1.5-3.1-1.8
		c-1.3,1.1-2,2.6-2.7,4.1c-0.3,0.6-0.4,1.4-0.3,2.1c0.1,2.1,0.4,4.3,0.6,6.4c0.6,0.3,1.7,0.5,1.8,0.9c0.3,1.7,1.7,2.1,2.9,3
		c3.5,2.5,6.9,5.1,10.5,7.8c0.5-0.3,1.2-0.7,1.9-1c0.8-0.2,1.7-0.3,2.5-0.2c2.5,0.1,4.7-0.7,6.8-1.9c2-1.2,4.1-2.3,6.2-3.5
		c-0.9-4.2-3.2-7.7-5.3-11.6C548.5,534.7,547.1,534.5,545.6,534.5z M489.5,519.3c-1.5-1.6-2.9-3.2-4.3-4.8c0.2-1.5,1-3,0.4-4.7
		c-1.5-0.3-3.1-0.7-4.7-0.9c-2.9-0.3-4.5,0.8-5.1,3.7c-0.6,2.7-1.9,5.1-3.3,7.5c-0.9,1.4-1.8,2.8-2.7,4.2c-0.8,1.3-1.6,2.6-1.8,4.2
		c-0.2,1.8-1.2,3.3-2.6,4.5c-1.8,1.7-3.5,3.5-5.3,5.3c0.8,2,2.3,3.1,4.2,4.1c0.7-1.7,1.3-3.3,1.9-4.9c0.6-1.4,1.2-2.9,1.7-4.3
		c0.6-1.7,1.5-3.2,2.6-4.6c1.1-1.4,2.1-2.9,3.2-4.3c1.7-2.4,4.2-3.1,6.8-1.6c1.2,0.7,2.2,1.7,3.4,2.6
		C486.5,524,487.4,521.1,489.5,519.3z M455.4,370.1c-1.2,0-2.3,0.4-3.5,0.7c-0.6,0.2-1.1,1.2-0.9,1.8c0.3,1,0.7,2,2.1,2.6
		c3.9-1,7.8-2.8,11.8-4.1c0.4-0.1,0.8-0.5,1.5-1C462.5,370,458.9,370,455.4,370.1z M728.4,360.3c0-0.3,0-0.9-0.2-1.4
		c-0.3-1.1-0.7-1.2-3.1-1c1.6,1.9,3.1,3.6,4.2,5c2.6,0.9,4.7,1.7,6.8,2.4c1.2,0.4,2.5,0.6,3.8,0.9c0.4,0.1,0.9-0.1,1.1-1.1
		C736.4,364.5,732.3,363,728.4,360.3z M674,550.7c2.2,0.5,4.3,1.3,6.6,1.1c1.9-0.2,3.7,0.7,5.5,1.3c0.6,0.2,1.3,0.1,2.2,0.2
		c-0.7-1.2-1.6-1.4-2.5-1.7c-6-1.8-8.9-2.2-13.3-1.6C673.3,550.3,673.6,550.6,674,550.7z M706.1,314.6c1.1,0.3,2.1,0.8,2.5,1.8
		c0.6,1.5,2,1.9,3,2.7c1.7,0,2.6-1.1,3.5-2.3c-0.5-0.3-0.8-0.7-1.2-0.8c-2.8-0.9-5.6-1.7-8.5-2.6c-0.1,0-0.3,0.2-0.7,0.5
		C705.3,314.2,705.6,314.5,706.1,314.6z M704.6,337.9c-0.4-0.8-0.7-1.5-1.1-2.4c-1.6,0.4-3.1,0.8-4.7,1.2c-0.1,0.4-0.1,0.9-0.2,1.3
		c1.2,0.4,2.3,0.8,3.5,1.2C702.8,338.8,703.7,338.4,704.6,337.9z M463.2,347.2c0.1,0.3,0.1,0.6,0.2,1c0.8,0,1.6,0,2.4,0
		c0.2-0.8,0.2-0.8-2-3c-1.6,0.1-3.3,0.2-5.4,0.3C459.8,347.7,461.7,346.6,463.2,347.2z M742.3,374.2c-2.3-0.9-4.6-1.8-6.8-2.7
		c-0.6,0.4-0.6,1-0.2,1.3c2.2,1.6,4.7,2.7,7.6,2C742.6,374.5,742.5,374.3,742.3,374.2z M488.9,539.2c2,0.8,3.5-0.3,5.7-0.5
		c-0.7-0.5-0.9-0.9-1.3-1c-1.6-0.5-3.1-0.9-5.2-1.5C488.5,537.6,488.7,538.4,488.9,539.2z M721,350.7c0.3-0.1,0.6-0.3,1-0.4
		c-0.2-0.3-0.2-0.7-0.4-0.9c-0.5-0.6-1.1-0.9-1.9-0.8c-1,0.2-2.1,0.4-3.5,0.7c1,0.7,1.8,1.3,2.7,2
		C719.9,351.1,720.4,350.9,721,350.7z M464.8,350.9c1.1,0.7,2.2,0.5,3.4,0.3c-0.7-1.9-0.9-2-4.7-1.6
		C464,350.1,464.3,350.6,464.8,350.9z M731,340.5c1.2,0.7,2.4,1.4,3.7,2.2c0.1-0.5,0.4-0.9,0.3-1c-1.1-1.2-2.6-1.9-4.1-2.5
		c-0.2-0.1-0.6,0.1-1.1,0.3C730.3,339.9,730.6,340.2,731,340.5z M710.6,324.2c-1.8,0.2-3.5,0.9-5.3,2.5c2.4-0.3,4.3-0.7,6.4-1.6
		C711.3,324.7,710.9,324.2,710.6,324.2z M731.2,350.2c0.9-0.2,1.8-0.5,2.6-0.7c-1.6-0.5-3.3-1-4.9-1.5c-0.1,0.1-0.2,0.2-0.3,0.3
		C729.5,348.9,730.3,349.5,731.2,350.2z M693.6,324.8c-1.4-0.6-1.8-0.4-3.8,1.8C691.3,326.4,692.5,325.7,693.6,324.8z M719.6,347.2
		c-0.3-0.4-0.5-0.8-0.8-0.8c-1.3-0.2-2,0.8-2.9,1.5C717.2,348,718.4,347.9,719.6,347.2z M719.2,338.6c-0.4,0.4-0.7,0.7-1,1.1
		c1,1.5,2,1.6,3.5,1.2C720.9,340.2,720.2,339.6,719.2,338.6z M691.3,329.4c1.9-0.2,1.9-0.2,4-1.9C693.2,327.5,692.1,328,691.3,329.4
		z M690.8,353.4c1.5,0.2,2.5-0.3,3.6-1.2C692.5,352,692.5,352,690.8,353.4z M704.4,364.7c-1.3-0.8-2-0.1-2.6,0.7
		C702.6,365.3,703.3,365,704.4,364.7z M690.5,344.5c-0.6-1.4-1.7-0.5-1.8-0.5C688.8,344,689.5,344.2,690.5,344.5z M701.7,358.4
		c1.6-0.8,1.6-0.8,1.6-1.9C702.8,357.1,702.4,357.5,701.7,358.4z M713.8,358c0.2,0,0.5-0.1,0.5-0.3c0.1-0.2,0.1-0.5,0-0.7
		c-0.1-0.1-0.4-0.3-0.6-0.2c-0.3,0.1-0.6,0.3-1.3,0.6C713.2,357.7,713.5,357.9,713.8,358z M709.7,322.8c-0.6,0.2-1.1,0.3-1.9,0.6
		C708.8,323.8,709.2,323.2,709.7,322.8z M696.9,366.4c0.2-0.1,0.4-0.6,0.3-0.8c-0.3-0.5-0.8-0.3-1.1,0c-0.2,0.2-0.4,0.5-1.1,1.5
		C696.1,366.7,696.5,366.7,696.9,366.4z M742.7,368.8c0.5,0.3,1,0.5,2.1,1C743.7,367.9,743.7,367.9,742.7,368.8z M715.9,363.5
		c-0.1,0-0.2,0-0.3,0c0,0.4,0,0.9-0.1,1.3c0.1,0,0.2,0,0.3,0C715.8,364.4,715.9,364,715.9,363.5z M720.7,352.5
		c0-0.1-0.3-0.2-0.5-0.2c-0.1,0.3-0.2,0.5-0.3,0.8c0.2,0.1,0.4,0.1,0.7,0.3C720.6,353,720.7,352.8,720.7,352.5z M698.4,349.2
		c0.2,0.1,0.3,0.2,0.5,0.3c0,0,0.2-0.2,0.2-0.2c-0.1-0.2-0.2-0.3-0.3-0.5C698.7,348.9,698.6,349,698.4,349.2z M679,346.8
		c0.1,0.1,0.2,0.1,0.2,0.2c0-0.1,0-0.2-0.1-0.3C679.2,346.7,679.1,346.8,679,346.8z M457.7,339.4l-0.3,0l0,0.1L457.7,339.4z
		 M706.1,354.7c0.1,0,0.2-0.1,0.3-0.1c-0.1-0.1-0.3-0.2-0.4-0.2c0,0-0.1,0.1-0.2,0.2C705.9,354.6,706,354.7,706.1,354.7z
		 M716.8,356.7c0,0,0.1-0.1,0.1-0.2c-0.1,0-0.2-0.1-0.3-0.1c0,0-0.1,0.1-0.1,0.2C716.6,356.7,716.7,356.7,716.8,356.7z M712.5,362.2
		c0,0.1,0.2,0.3,0.3,0.5c0.1-0.2,0.3-0.3,0.3-0.5c0-0.2-0.2-0.3-0.3-0.5C712.7,361.9,712.5,362.1,712.5,362.2z M683.5,348.2
		c0.2-0.1,0.4-0.2,0.6-0.3c-0.1-0.1-0.2-0.2-0.3-0.2c-0.2,0.1-0.4,0.2-0.6,0.2C683.4,348.1,683.5,348.3,683.5,348.2z M687.5,347.8
		c0.1,0.1,0.2,0.3,0.4,0.3c0,0,0.3-0.1,0.2-0.2c0-0.2-0.1-0.4-0.2-0.5C687.7,347.6,687.6,347.7,687.5,347.8z M671,339.4
		c0,0.1,0.1,0.1,0.2,0.2c0.1-0.1,0.2-0.2,0.2-0.2c0-0.2-0.1-0.4-0.2-0.6C671.1,339,671.1,339.2,671,339.4z M696.9,333.9
		c-0.1,0.1-0.1,0.2-0.1,0.3c0.1,0.3,0.3,0.3,0.4,0c0-0.1-0.1-0.2-0.1-0.3C697.1,333.8,697,333.8,696.9,333.9z M690,322.9l-0.2,0
		l0.1,0.2L690,322.9z"/>
	<path d="M741,74.2c-0.2-0.3-0.5-0.5-0.7-0.8c-0.2-0.3-0.4-0.5-0.6-0.8c-0.3-0.2-0.5-0.4-0.8-0.6c0-0.5-0.3-0.8-0.8-0.7l0-0.2
		l0.1,0.1c0.3,0.2,0.5,0.5,0.8,0.7c0.1,0.4,0.2,0.8,0.7,0.6c-0.2,0.6,0.2,0.7,0.6,0.8C740.6,73.5,740.9,73.8,741,74.2
		c0.3,0.1,0.6,0.3,0.8,0.6c-0.5,0.4-0.9,0.8-1.6,0.5c-0.6-0.3-1.2-0.6-1.9-1c-0.5,0.6-0.9,1-1.2,1.4c-1.9,2.1-3.8,4.3-5.8,6.4
		c-1,1.1-2.2,1.8-3.7,2c-1.5,0.2-3,0.7-4.5,1c-2.9,4.2-5.6,8.4-9.6,11.3c-1.8,0.4-2.2-1.6-3.6-1.6c-1.7,0.1-2.6,1.6-3.9,2.4
		c-0.3,0.2-0.6,0.3-1,0.4c-0.9-0.4-1.9-0.9-2.7-1.2c-0.8,0.6-1.5,1.1-2,1.5c-0.4-0.1-0.7-0.1-0.9-0.3c-1.5-1.1-2.9-0.9-4.3,0.1
		c-0.8,0.6-1.5,1.1-2.3,1.7c-1.7,1.2-3.4,1.6-5.4,0.7c-0.8-0.3-1.6-0.5-2.3-0.9c-1.8-0.9-3-2.2-3.5-4.3c-0.7-2.8-1.6-5.5-2.5-8.2
		c-0.2-0.6-0.7-1.2-1-1.8c-0.6,0-1-0.1-1.5-0.1c-3.1,0-6.2-0.1-9.3,0c-1.5,0-3.1,0.2-4.6,0.3c-2,0.2-4,0.5-6.3,0.8
		c-0.5,1.5-2,2.8-2.2,4.9c-0.5,5.5-2.7,10.4-6.1,14.6c-2.7,3.5-5.6,6.8-8.6,10.3c0.1,2.4,0.3,4.9,0.3,7.4c0.1,2.7-0.5,5.2-1.6,7.5
		c3.4,8.3,4.6,18.4,2.7,24.4c0.5,1.2,1,2.6,1.6,3.9c1.2,2.6,1.9,5.4,2.3,8.2c0.4,3,0.5,6-0.5,8.9c-0.2,0.6-0.3,1.4-1.4,1.4
		c-0.4-1.5-0.4-3-0.3-4.6c0.2-4.7-0.4-9.3-2.2-13.7c-0.4-1-0.8-2-1.1-3c-0.4-1.3-0.8-2.5,0-3.8c0.3-0.5,0.2-1.2,0.2-1.7
		c0.2-4.1-0.1-8.1-0.8-12.1c-0.2-1-0.6-2-0.9-3.1c-0.8,0.6-1.5,1.1-2.3,1.7c-0.2-0.7-0.5-1.1-0.5-1.6c0-2.2,0.4-4.3,1.8-6
		c0.8-0.9,1-1.8,1.1-2.9c0-1.2-0.1-2.4,0-3.6c0.2-2.8-0.9-5.7,0.1-8.5c0.1-0.2,0-0.5-0.1-0.7c-0.7-1.2-0.5-2.5-0.6-3.8
		c-0.2-3.3-1.4-6-4.3-7.9c-1-0.6-1.9-1.5-2.6-2.5c-2.5-3.3-4.3-6.9-4.8-11c0-0.4-0.2-1,0.7-1c1.5,2.6,2.9,5.3,4.4,8
		c1.2,2.1,2.5,4.1,4.2,5.7c1.8,1.7,2.8,3.8,3.5,6.2c0.5,1.6,0.7,3.2,1.2,5.2c0.6-0.8,1.2-1.4,1.6-2.1c1.8-3.1,3.6-6.2,5.3-9.3
		c1.1-2,2.2-4,3.2-6c1.1-2.3,1.7-4.7,1.6-7.2c-0.1-2.6-0.2-5.2-0.3-7.9c-0.1-1.7-0.2-3.3-0.2-5c0-0.3,0.5-0.7,0.8-0.9
		c0.1,0,0.5,0.4,0.7,0.6c0.3,0.5,0,1.2,1,1.5c-0.3-3-0.2-6-1-8.9c-0.3-1-0.5-2.1-1-3c-2.1-4.1-4.5-7.8-7.8-11.1
		c-1.5-1.5-2.4-1.9-5.2-2.5c1.5,5.4,1.5,5.4,0.4,7.1c-0.3-0.8-0.6-1.4-0.8-2.1c-0.5-1.6-1-3.2-1.6-4.8c-0.5-1.3-1.4-2.2-2.7-2.6
		c-2.4-0.8-4.8-1.5-6.8-2.2c-2.2,0.6-4.1,0.9-5.9,1.5c-2.7,0.9-5.7,1.1-7.7,3.4c-0.2,0.3-0.6,0.4-0.9,0.5c-5.8,2.6-11,6.2-16.2,9.9
		c-3,2.2-5.8,4.6-7.8,7.8c-0.4,0.6-0.8,1.2-1.4,1.6c-1.9,1.5-2.8,3.5-3.7,5.6c-1.5,3.4-2.2,7-2.4,10.8c2.4,0.6,4.6,1.3,7,1.8
		c1.5,0.3,3.1,0.6,4.6,0.6c3.8,0,7.6-0.1,11.5-0.2c0.5,0,1.1-0.2,1.7-0.4c-0.1-0.7-0.2-1.2-0.3-1.6c-0.5-2.9-1-5.9-1.5-8.8
		c-0.1-0.6,0.1-1.2,1.1-1.3c0.2,0.3,0.6,0.6,0.7,1.1c0.3,1,0.6,2.1,0.8,3.1c0.6,3.4,0.9,6.9,1.9,10.2c0.8,2.9,0.6,5.6-0.2,8.4
		c-0.4,1.4-0.9,2.7-1.5,4c-1,2.4-2.5,4.7-1.7,7.5c0.1,0.5-0.2,1.2-0.2,1.8c-0.2,1.4-0.4,2.9-0.4,4.3c0.1,5.1,0.2,10.3,0.4,15.4
		c0,1.2,0.5,2.3,0.7,3.5c0.7,3.4,2.2,6.6,1.9,10.1c-0.2,2.5,0.4,5,0.9,7.4c0.6,3.2,2.3,6,4.3,9.2c-0.1-1.5-0.2-2.5-0.2-3.4
		c0-0.5,0.4-0.8,1-0.8c1,2.5,1.2,5.1,0.6,7.6c-0.4,1.7-0.3,3.3-0.1,5c0.8,5.6,0.5,11.2-0.1,16.8c-0.3,2.8-0.3,5.5,0.7,8.1
		c0.4,1,0.5,2.1,0.7,3.1c0.8,4.7,1.6,9.4,2.5,14.1c1,4.8,2.1,9.5,3.3,14.3c0.9,3.7,1.9,7.4,3.8,10.8c2,3.6,3.6,7.5,4.7,11.6
		c0.2,0.7,0.3,1.4,0.7,2c2.3,3.3,3.4,7.1,4.4,10.9c0.4,1.5,1,2.9,2,4.2c1.6,1.9,2.7,4.2,3.8,6.5c1.1,2.1,2.4,4.1,3.6,6.2
		c0.9,1.6,2.3,2.2,4.2,2.2c4.2,0,8.4-0.1,12.5,0.4c3.4,0.4,6.9,0,10.3,0.8c1,0.2,1.9-0.1,2.7-0.6c2.4-1.3,5.1-1.9,7.7-2.8
		c2.1,1.1,4.1,2.1,6.1,3.2c1.1,0.6,2,1.2,3.1,1.7c1.7,0.8,3.4,0.9,5.2-0.3c-0.5-0.4-0.9-0.7-1.3-0.9c-3-1.7-6-3.4-8.3-6.2
		c-0.7-0.9-1.7-1.2-2.9-1.2c-3,0-5.9,0-8.9,0c-1.8,0-2-0.1-3.4-2.1c0.6,0.1,1.1,0.1,1.5,0.4c1.4,0.9,2.9,0.8,4.5,0.6
		c1.5-0.1,3.1-0.1,4.6-0.3c2.7-0.3,4.8,0.8,6.9,2.4c2.3,1.7,4.7,3.3,7.1,4.8c0.9,0.5,2,1,3,1c2.5,0,5-0.1,8.2-0.8
		c-3.6-1.1-6.4-2.4-9.4-3.1c-2.3-0.5-4.5-1.5-6.6-2.6c-0.4-0.2-0.9-0.4-0.6-1.2c1.9-0.1,3.4,1.3,5.4,1.4c-1-3.1-3.2-3.7-5.9-3.4
		c-0.1,0-0.2,0-0.4,0.1c-2.9,0.6-5.9,0.8-8.9,0.2c-1.3-0.2-2.6-0.2-3.9-0.3c-1.1-0.1-2.2-0.2-3.2-0.4c-6.4-1.4-12.9-2.2-19.2-3.2
		c-0.6,0.5-1,0.8-1.6,1.3c-0.3-0.9-0.6-1.6-0.8-2.4c-0.9,0.1-1.7,0.2-2.5,0.2c-0.2-1.1-0.7-2.2-0.4-2.8c0.8-1.4,0.2-2.5-0.1-3.8
		c-0.9-4.2-1.3-8.5-1.6-12.8c-0.1-1.3-0.2-2.6-0.4-3.9c-1.4-8-1.9-16.1-1.6-24.2c0.1-2.3,0-4.5,0-6.8c0-2-0.2-4.1-0.1-6.1
		c0-1.5-0.5-3.1,1.1-4.2c0.3-0.2,0.3-0.9,0.3-1.4c0-1.7,0-3.4-0.2-5c-0.2-1.9-0.2-3.8,0.2-5.7c0.7-3.8,0-7.3-1.2-10.9
		c-0.3-0.9-0.7-1.8-0.9-2.7c-0.1-0.4-0.1-0.9,0.8-1.1c2.4,2.8,3.6,6,3.4,9.7c-0.1,1.4,0.1,2.8,0,4.2c-0.3,4.3-0.3,8.5-0.3,12.8
		c-0.1,4.7-1.4,9.4-0.6,14.2c0.1,0.8-0.1,1.7-0.2,2.5c-0.1,3.5-0.2,6.9-0.1,10.4c0,2.1,0.4,4.3,0.6,6.4c0.1,1.3,0.1,2.6,1,4
		c0.6,0.2,1.4,0.6,2.2,0.7c2.1,0.4,4.2,0.8,6.3,1.1c0.9,0.2,1.9,0.4,2.8,0.3c2.7-0.2,5.2,0.5,7.1,1.6c2.3,0,4.2-0.1,6.1-0.1
		c4.8,0.1,9.4,1.5,14.2,1.7c2.8,0.1,5.7,0.6,8.2,2.3c2.2,0.2,3.8,1.5,5.4,2.7c-0.4,1.3-1.7,1.4-2.5,2c-0.6,0.4-1.2,0.7-1.1,1.6
		c0.1,0.7-0.6,1-1.2,1c-0.8,0-1.7-0.2-2.5-0.3c-3.2-0.3-6.4-0.8-9.6-1c-3-0.1-6,0-8.9,0.2c-0.8,0-1.7,0.2-2.3,0.6
		c-1.6,1-3.3,1.2-5.2,0.9c-1.6-0.3-3.3-0.4-4.9-1.1c-2.4-1.1-5-1.6-7.7-1.5c-0.9,0-1.9-0.1-2.8-0.3c-0.3-0.1-0.6-0.5-1.2-1
		c1.8-0.1,3.1-0.3,4.4-0.2c3,0,6-0.2,8.5,1.9c0.2,0.1,0.4,0.3,0.6,0.3c2.2,0.1,4.5,0.6,6.9,0c0.2-0.8,0.3-1.4,0.4-2.1
		c-0.2-0.1-0.3-0.3-0.4-0.3c-4-0.5-7.6-1.8-10.9-4.1c-0.6-0.4-1.6-0.5-2.4-0.6c-0.9-0.1-1.9,0.1-2.9,0.1c-0.3,0-0.9,0.1-0.9-0.8
		c2.8-0.7,5.3-0.4,7.9,0.7c3.3,1.3,6.4,3.2,10.2,2.9c1.3,1.9,3.1,2.6,5.2,2.7c0.7,0,1.4,0,2.1,0c0.6,0,1.2-0.2,1.8-0.1
		c3.2,0.1,6.4,0.3,9.6,0.4c0.5,0,1-0.1,2.3-0.3c-2.4-1.1-4.2-1.9-6.1-1.5c-1.6,0.3-3.1,0.1-4.5-0.4c-2.1-0.8-4.3-1.3-6.5-1.7
		c-2.9-0.6-6-0.7-8.4-2.8c-0.2-0.2-0.7-0.2-1-0.3c-5.2-1.1-10.4-2.2-15.6-3.4c-0.7,0.3-1.5,0.6-2.4,1c1.2,6.9,2.1,13.9,0.7,20.8
		c1.5,1.3,2.8,2.4,4,3.4c1.1-0.1,1.9-0.3,2.7-0.2c3.9,0.5,7.8,1,11.7,1.5c0.6,0.1,1.3,0.1,1.7,0.4c2,1.4,4.3,1.3,6.5,1.4
		c1.7,0.1,3.4,0.1,5,0.4c1.8,0.3,3.5,0.2,5.3-0.1c1.5-0.2,3.1-0.3,4.6-0.3c1.7-0.1,3.2,0.5,4.1,1.9c1.1,1.7,2.6,2.4,4.4,2.8
		c1.8,0.5,3.8,0.6,5.6,1.2c1.9,0.6,3.7,1.7,5.5,2.5c0.6,0.3,1.4,0.3,2.1,0.5c0.4,0.1,0.8,0.5,1.4,0.8c-0.6,0.4-0.9,0.7-1.3,0.8
		c-1.1,0.3-2.1-0.2-3.1-0.7c-0.9-0.5-1.7-1.3-2.9-1.2c-0.5-0.3-0.9-0.5-1.4-0.8c-0.2-0.1-0.5-0.2-0.3-0.1c-0.2,0,0.1,0,0.4,0
		c0.1,0.9,0.9,0.6,1.4,0.8c0.3,1,0.6,1.9,1,3c-1.8,0.9-3.6,1.4-5.6,1.3c-2.3-0.1-4.5,0-6.5,1.4c-1.2,0.9-2.7,0.9-4.1,0.8
		c-1.2-0.1-2.3-0.4-3.3-1.1c-1.3-0.9-2.6-1.6-4-2.4c-3.2-1.8-3.2-1.8-6.6-0.6c-1.5,0.5-2.9,1.1-4.4,1.4c-1.4,0.3-2.8,0.6-4.2,0.6
		c-7.1-0.2-14.3-0.6-21.4-0.7c-3.1-0.1-5.2-1.3-6.7-3.9c-0.5-0.9-1-1.9-1.5-2.8c-0.2-0.4-0.3-0.9-0.6-1.3c-1.7-2.4-3.4-4.9-5.2-7.3
		c-1-1.4-1.8-2.8-2.2-4.5c-0.8-2.8-1.5-5.5-2.3-8.3c-0.2-0.8-0.5-1.6-0.9-2.3c-0.7-1.5-1.5-3-2.1-4.5c-1.5-3.4-2.8-6.9-4.4-10.2
		c-2.1-4.4-3.7-9-4.7-13.8c-0.5-2.6-1.1-5.1-1.7-7.7c-0.8-3.5-1.4-7-1.8-10.6c-0.4-3.4-0.8-6.8-2.1-10.1c-0.8-2-1-4.1-0.4-6.3
		c0.5-1.9,0.6-4,0.4-6c-0.6-5.2-0.6-10.5-0.4-15.7c0-1.3-0.1-2.4-0.8-3.4c-0.9-1.4-1.7-2.8-2.7-4.2c-2-3.1-3.1-6.4-2.9-10.1
		c0.2-3.1-0.2-6.2-1-9.2c-0.5-1.7-0.6-3.5-0.9-5.3c-0.2-1.5-0.3-3.1-0.7-4.6c-1.4-4.3-1.6-8.7-1.3-13.1c0.1-0.9,0-1.8,0-3
		c-0.7,0.2-1.1,0.2-1.5,0.3c-3.1,0.7-6.2,0.3-9.1-0.9c-0.7-0.3-1.3-0.5-2-0.9c-1.4-0.8-2.9-0.8-4.5-0.5c-5.2,0.9-9.8,2.9-14,6
		c-4.5,3.4-9.4,6.2-14.2,9c-0.6,0.4-1.3,0.7-1.9,1c-0.7,0.3-1.2,1.1-2.2,1.2c0.1-1.4,1.6-1.6,1.6-2.8c-1.1,0-2.1,0.2-3.2,0.1
		c-1.1,0-2.1-0.2-3.2-0.3c-1.2-0.1-2.4-0.1-3.6-0.2c-2.3-0.2-4.6,0.3-6.6,1.2c-2.1,1-4.2,1.6-6.4,2c-1.7,0.3-3.2,0.8-4.4,2
		c-1.6,1.6-3.6,2.3-5.8,2.5c-0.6,0-1.2,0.1-1.7,0.4c-2.9,1.9-5.9,1.7-8.9,0.6c-0.1,0-0.4,0.2-0.7,0.3c0.1,0.9,0.3,1.8,0.4,2.7
		c-1.5,2.1-4.1,1.9-6.1,3.2c-0.9,1.8-1.8,3.8-2.8,5.6c-2.2,4-5,7.6-8.7,10.3c-1.4,1.1-2.9,1.9-4.8,2.2c-1.6,0.3-3,1.1-4.7,0.3
		c-0.3-0.2-0.9,0.1-1.4,0.3c-1.2,0.3-2.3,0.5-3.5,0.9c-0.9,0.3-1.8,0.6-2.5,1.2c-4.8,3.7-10.5,5.1-16.3,5.9
		c-5.9,0.8-11.8,1.2-17.9,1.8c-0.4,0.9-1.1,1.6-2.3,1.8c-4.5,0.7-8.7,2.4-13,3.9c-4.1,1.5-8.3,2.2-12.6,1.7c-1.5-0.2-3-0.6-4.6-0.8
		c-0.8-0.1-1.7-0.3-2.4-0.1c-2.9,0.6-5.8,1.6-8.3,3.2c-2.4,1.6-4.8,1.8-7.5,1.4c-0.7-0.1-1.4-0.3-2.1-0.5c-1.2-0.3-2.3-0.2-3.4,0.5
		c-1.8,1.1-3.8,2.1-5.6,3.1c-1.1,0.6-1.9,1.4-1.8,2.8c0,0.3-0.6,0.8-0.9,0.9c-0.4,0.1-0.9-0.3-1.2-0.6c-0.9-1.1-1.2-2.6-2.7-3.4
		c-0.7,0.1-1.5,0.2-2.4,0.4c-2,0.5-3.9,1.1-5.9,1.5c-0.8,0.2-1.7,0.2-2.4,0.1c-3.4-0.8-6.7-1.7-10-2.5c-6.2,3.1-5.7,2.8-12.9,4.2
		c-0.9,0.2-1.9,0.2-2.8,0.4c-4.7,0.9-9.1-0.4-13.2-2.2c-1.8-0.8-3.5-1.3-5.4-1.8c-2.8-0.7-5.7-0.8-8.5-0.8c-4.4-0.1-8.8,0-13.1,1.2
		c-2.9,0.8-5.8,1.4-8.8,1.7c-7,0.6-13.9,2.3-20.8,3.4c-4.8,0.8-9.6,1.7-14.5,1.8c-3.8,0.1-7.5,0.6-11.3-0.9
		c-2.1-0.8-4.4-0.9-6.6,0.5c-0.6,0.4-1.4,0.4-2.1,0.5c-3.5,0.5-7.1,0.8-10.6,1.3c-2.7,0.4-5.5,0.4-8.1,1.5c-2.5,1.1-5,2.3-7.5,3.4
		c-0.4,2.9-3.5,3.8-4.9,6.4c1.5-0.1,2.6-0.3,3.6-0.3c0.8-1,1.4-1.9,2.2-2.7c0.7-0.7,1.3-0.5,1.7,0.6c-2.5,4.3-5.2,8.6-7.7,12.9
		c0.3,0.7,0.6,1.4,0.8,2c-0.5,0.7-0.9,1.2-1.5,1.9c0.3,1.7,0.5,3.5,0.8,5.2c0.5,3.1,0.3,6.1-1.4,8.9c-0.3,0.6-0.3,1.4-0.3,1.9
		c1.5,2.6,2.8,4.9,4.2,7.3c3.2,0.7,6.4,1.4,9.4,2c0.5,1.3,1,2.4,1.5,3.5c0.5,1.2,1.1,2.4,1.6,3.6c0.6,0,1.2,0,1.7,0
		c2.1,3.7,1.9,6.6-0.9,9.4c-2.8,2.9-6.2,4.4-10.2,4.7c-0.4,0-0.8-0.2-1.2-0.3c0.2-1.5,1.9-1.6,2-2.9c-0.2,0-0.5,0-0.7,0.1
		c-3.5,2.5-7.5,3.7-11.6,4.3c-4.5,0.6-8.8,0.6-12.9-1.6c-1.5-0.8-3.1-1.4-4.6-2c-1.3-0.6-2.5-1.4-3.5-2.5c-3.1-3.5-6.2-7-9.2-10.5
		c-3.7-4.3-6.3-9.3-7.3-14.9c-0.4-2.2-0.3-4.5-0.4-6.8c0-0.7-0.1-1.4-0.2-2.1c-1.7-0.6-1-2.2-1.2-3.3c-0.2-1.6-0.8-3-1.6-4.3
		c-1-1.5-2.2-2.8-3.7-3.8c-1.1-0.7-2.1-1.6-2.5-2.9c-0.2-0.7-0.7-1.2-1.2-1.8c-1.5-1.8-2.2-3.9-2.2-6.3c0-2.1-0.5-4-1.5-5.8
		c-0.3-0.6-0.6-1.3-0.8-2c-0.9-2.3-1.1-4.6,0.3-6.9c1.1-1.8,1.2-3.8,0.6-5.9c-0.4-1.3-0.3-2.9-0.2-4.3c0.2-2.3,1.5-3.7,3.8-4.1
		c0.9-0.2,1.9-0.2,2.8-0.2c1.4,0,2.9,0.1,4.3,0.3c1.7,0.3,3.2,0,4.8-0.9c6.9-3.6,14.2-5.3,22.1-4.5c1.4,0.1,3,0.1,4.2-0.4
		c3.2-1.3,6.7-1.8,10-2.5c4.8-1,9.6-1.7,14.4-2.9c3.8-1,7.7-1.7,11.6-2.3c3.5-0.5,7.1-1.1,10.4-2.6c0.9-0.4,2.1-0.6,3.1-0.8
		c3.9-0.5,7.8-0.9,11.7-1.5c1.9-0.3,3.8-0.5,5.6-1.2c3.2-1.3,6.2-3,9.4-4.3c7.9-3.3,15.9-6.5,24.5-7.6c4.1-0.5,8.1-0.6,12.1,0
		c2.4,0.4,4.7,0.4,7.1-0.2c4.2-1,8.5-1.2,12.8-0.5c2.3,0.4,4.7,0.7,7.1,1c0.9,0.1,1.9,0.2,2.8,0.6c0.8,0.4,1.4,1.1,2.2,1.7
		c1.1-0.4,2.3-0.7,3.4-1.2c0.7-0.3,1.3-1,2.1-1.4c1.3-0.7,2.5-1.3,3.9-1.8c1.2-0.5,2.5-0.7,3.8-1.1c4.7-1.3,9.4-2.6,14.2-3.8
		c1.1-0.3,2.3-0.8,3.4-0.3c0.8,1-0.2,1.5-0.5,2.3l0.1-0.1c-0.8,0.1-1.7,0.1-2.5,0.3c-6.2,1.7-12.4,3.4-18.6,5.2
		c-1,0.3-2,0.8-2.8,1.5c-3.4,2.4-7,3.1-11,2c0.1-1.3,1.6-0.6,1.9-1.6c-3.4-0.5-6.7-1-10-1.4c-3.3-0.4-6.6-0.4-10,0.3
		c-3.3,0.7-6.6,0.9-10,0.5c-2.9-0.4-5.9-0.5-8.9-0.1c-8.8,1.2-17,4.5-25.2,7.9c-3.1,1.3-6,2.9-9.1,4.2c-1,0.4-2.1,0.9-3.1,0.8
		c-1.5-0.1-2.8,0.3-4.2,0.6c-3.1,0.4-6.1,1-9.2,1.5c-2.6,0.4-5.2,0.8-7.6,1.9c-1.6,0.7-3.4,1.1-5.2,1.4c-10,2-20.1,4-30.2,6
		c-2.3,0.5-4.6,1-6.8,1.4c-1,2-1.1,2-0.9,4c2.2,0.2,4.3-1.2,6.8-0.3c-2.8,1.6-5.4,2.7-8,2.9c-1.8,1.5-1.5,3.1-0.5,4.7
		c1,1.6,2.1,3.2,3.2,4.7c1.1,1.6,2.3,3.3,3.5,4.9c0.4,0.6,0.9,1.1,1.5,1.5c2.6,2.1,5.4,3.9,8.6,5.3c0.7-0.7,1.3-1.5,2-2.1
		c0.6-0.6,1.2-1.2,1.9-1.5c2.5-1.2,4.9-2.4,7.5-3.4c1-0.4,2.1-0.6,3.1-0.7c1.4-0.2,2.7-0.5,4-1.2c2.1-1.1,4.5-1.7,6.9-1.7
		c6,0.1,11.9,0,17.9,0.4c5.3,0.3,10.5-0.1,15.7-0.8c6.7-0.9,13.4-2.3,20.1-3.3c5.8-0.8,11.6-1.4,17.3-2.6c3.6-0.8,7.3-0.9,11-0.4
		c1.5,0.2,3.1,0.4,4.6,0.2c2.7-0.3,5.2,0.8,7.8,1c0.4,0,0.9,0.3,1.3,0.6c3.9,2.4,8.1,3.3,12.6,2.8c2.4-0.2,4.8-0.4,7.1-0.9
		c2.6-0.5,5.1-1.5,7.5-3.2c-0.5-0.3-0.8-0.5-1.2-0.6c-2.7-0.9-5.4-1.9-7.6-3.9c-1-0.9-2.4-1.5-3.7-2.2c-1.3-0.7-2.6-1.1-4.1-0.6
		c-1.3,0.5-2.5,0.3-3.7-0.7c1.3-1,2.5-1,3.8-0.7c1,0.3,2.1,0.4,3.1,0.6c1.3,0.2,2.5,0.5,3.7,0.7c0.4,0.8,0.8,1.4,1.2,2.2
		c1,0.2,2.2,0.4,3.4,0.6c1.4,0.2,2.8,0.4,4.2,0.7c0.8,0.2,1.7,0.5,2.2,1c0.5,0.5,0.5,1.5,0.8,2.4c0.8,0.3,1.7,0.6,2.6,0.8
		c2.4,0.7,4.8,1.5,7.1,2.2c2.6-0.6,5.1-1.1,7.7-1.8c0.6-0.2,1.2-0.5,2-0.7c-0.8-1.3-1.5-2.4-2.1-3.5c-3.4-6.8-5-14.1-6.4-21.5
		c-0.4-2.2-0.5-4.5-1.4-6.8c-1,0.6-1.7,1.1-2.5,1.6c-2.9,1.8-6,2.3-9.3,2c-0.3,0-0.8-0.5-0.9-0.9c-0.1-0.2,0.2-0.6,0.4-0.9
		c0.1-0.2,0.4-0.3,0.6-0.4c2.2-1.2,4.4-2.4,6.6-3.5c0.6-0.3,1.4-0.6,1.8-1.1c1.8-2.2,3.8-4.3,2.9-7.6c-0.2-0.8-0.1-1.7-0.1-2.5
		c0-1.2,0-2.3-0.5-3.5c-0.7-1.8-0.2-2.9,1.5-3.8c0.7-0.4,1.5-0.6,2.3-0.9c1.6-0.6,3.1-1.1,4.7-1.7c4.2-1.5,7.8-4.1,11.4-6.6
		c4.6-3.1,9.3-5.8,14.3-8.1c5.9-2.8,11.2-6.4,15.9-10.8c1.5-1.4,2.6-3,3.4-4.9c2.7-6.3,6.4-12,12.1-16.1c3.1-2.2,6.1-4.6,9.2-6.8
		c3.9-2.8,8.2-4.9,13-5.8c1.9-0.4,3.7-0.8,5.6-1.2c4.4-1.1,9-1.7,13.5-0.9c5.7,1,11.6,1.6,17,3.8c5.2-2.6,5.2-2.6,8-1.7
		c1-0.7,2-1.2,3.3-0.9c2.1,0.5,4.2,0.7,6.2-0.4c0.7-0.4,1.6-0.3,2.5-0.3c2.7,0,4.8-0.9,6.2-3.4c1.2-2.1,3.2-2.8,5.5-2.4
		c0.8,0.2,1.6,0.3,2.5,0.5c0.5-0.6,1.1-1.2,1.5-1.9c1.2-2.2,3.1-3.6,5.3-4.6c1.4-0.7,2.8-1.4,4.1-2.3c2.1-1.4,4.4-2.4,6.8-3.2
		c1-0.4,2-0.7,3.1-1c5.8-1.9,11.6-3.8,16.6-7.3c0.5-0.3,1.2-0.7,1.6-0.6c1.8,0.7,3-0.4,4.3-1.2c2-1.2,4-2.1,6.2-2.8
		c5.3-1.8,10.8-3,16.3-4.2c4.4-1,8.9-1.6,13-3.8c1.3-0.7,2.9-1,4.4-1.2c3.7-0.5,7.3-0.9,11-1.3c1.3-0.2,2.6,0,3.9,0.4
		c5.2,1.7,10.5,3.2,16,3.8c0.8,0.1,1.6,0.4,2.4,0.6c2.2,0.6,4.3,1.3,6.5,2c0.5,0.2,1.3,0,1.7,0.8c-2.4,0.8-4.5,0.6-6.7-0.2
		c-1.7-0.6-3.4-1.1-5.1-1.5c-2.3-0.6-4.6-1.2-6.9-1.7c-1.9-0.4-4.1,0.3-5.7-1.4c-0.3-0.3-0.9-0.2-1.4-0.2c-1.3,0-2.6,0.1-3.9,0.2
		c-3.3,0.4-6.6,0.8-9.9,1.4c-1.8,0.3-3.5,0.7-5.2,1.3c-3.4,1.4-6.8,3-10.2,4.4c-2.5,1-5.1,1.9-7.7,2.8c-0.5,0.2-1.1,0.4-1.5-0.6
		c1-0.6,2-1.2,3.5-2.1c-0.9,0.1-1.3,0-1.6,0.1c-5,1.5-10.1,3-15.1,4.6c-2.8,0.9-5.5,2.4-8.4,2.9c-2.4,0.4-4.2,1.6-6.1,2.7
		c-1,0.6-2.1,1.2-3.2,1.6c-2.4,1-4.8,2-7.3,2.8c-4.2,1.3-8.2,3.1-12,5.4c-2.8,1.7-5.6,3.1-7.2,6.1c-0.7,1.4-2.1,1.8-3.7,1.3
		c-0.6-0.2-1.1-0.4-1.7-0.5c-1.6-0.3-2.8,0.2-3.7,1.6c-0.5,0.8-0.8,1.8-1.4,2.5c-0.9,1-1,2.1-1,3.3c0,1,0.4,2-0.2,3.6
		c-0.9-2.2-0.5-4.2-1.1-6c-1.2-0.2-2.1,0.1-3.1,1c0.1,0.6,0.2,1.3,0.4,2c1.7,7.1,3.8,14,5.1,21.2c0.9,5.1,1.5,10.1,0.7,15.3
		c-0.1-0.8-0.1-1.6-0.2-2.5c-0.1-2.3-0.1-4.6-0.5-6.8c-0.9-5.5-2.1-11-3.7-16.4c-1.1-3.5-1.8-7.2-2.7-10.8c-0.2-0.8-0.5-1.5-0.8-2.3
		c-0.8,0.1-1.4,0.1-1.9,0.4c-0.6,0.3-1.1,0.9-1.7,1.2c-0.5,0.3-1.1,0.3-1.7,0.5c0.1,0.6,0.1,1.1,0.2,1.6c1.5,8,3,15.9,4.4,23.9
		c1.4,7.7,2.6,15.5,5.1,23c0.2,0.7,0.3,1.4,0.5,2.1c0.6,2.6,0.7,5.2,0.6,7.8c-0.5,0.2-0.9,0.3-1.5,0.5c0.1,1,0.3,2,0.4,2.9
		c1.8,0.6,3.4,1.1,5,1.6c1.6-0.3,3.3-0.3,4.6-1.6c0.4-0.4,1.3-0.5,2-0.5c1.9,0.1,3.4-0.6,5-1.6c1.6-1,3.4-1.7,5.1-2.5
		c1.7-0.8,3.6-1.3,5.1-2.6c0.1-0.6,0.1-1.2,0.2-1.8c0.1-0.6,0.1-1.2,0.1-2.1c0.4,1.5-0.3,2.8,0.9,3.9c0.8-0.2,1.8-0.4,2.7-0.6
		c2.1-0.6,4.2-0.9,6.4-0.5c2,0.3,4,0.3,6.1,0.4c2.5,0.1,5-0.3,7.4-1.3c3.4-1.4,6.8-3,9.6-5.4c3.8-3.1,8.2-4.8,12.9-6
		c1.2-0.3,2.5-0.7,3.2-0.9c2.7,0.3,5,0.5,7.2,0.9c2.7,0.5,5.5,0.6,8.2,0.4c0.8-0.1,1.6-0.3,2.4-0.4c0.3-1.3,0.6-2.5,0.8-3.7
		c0.1-0.5-0.3-1-0.4-1.5c-3,0.7-3,0.7-5.7-0.3c-1.6-0.6-3.1-1.3-4.6-1.9c-3.7-1.4-6.4-4-8.5-7.3c-1.7-2.7-3.1-5.6-4.2-8.6
		c-0.9-0.6-1.7-1.1-2.4-1.7c-0.1-0.1,0-0.4,0-0.7c0.9-0.2,1.7-0.4,2.7-0.6c0.4-3,0.7-5.8,1.1-8.7c0.5-3.4,1.6-6.5,4.4-8.7
		c0.7-0.6,1.4-1.3,1.9-2.1c2.5-3.4,5.6-6.2,9.2-8.4c3-1.9,6.1-3.7,9.2-5.5c0.6-0.4,1.6-0.8,1.6-1.2c0.1-1,0.7-1.2,1.3-1.4
		c0.9-0.4,1.8-0.6,2.6-1.1c3-1.9,6.3-2.8,9.6-3.7c1-0.3,2.2-0.3,3.1-0.8c2.2-1.1,4.3-0.9,6.6-0.1c1.1,0.4,2.3,0.6,3.4,0.9
		c0.4,0.1,0.9,0.3,1.3,0.5c1.3,0.6,2.6,1.2,3.8,1.9c1.5,0.8,3.2,1.3,4.4,2.4c2.3,2.3,4.8,4.3,6.7,7c3.2,4.5,5.4,9.3,5.5,14.9
		c0,1,0.1,1.9,0.2,2.8c0.3,2.3,0,4.5-1.2,6.5c-0.9,1.5-1,3-0.4,4.7c0.4-0.2,0.6-0.3,0.7-0.5c1.1-2.1,2.2-4.2,3.2-6.4
		c0.2-0.4,0.3-0.9,0.3-1.4c0-4.2-0.1-8.3-0.2-12.5c0-0.7-0.3-1.4-0.6-2c-1-2.2-2.2-4.2-3.1-6.5c-1.4-3.9-3.6-7.2-6.6-10.1
		c-0.8-0.7-1.4-1.6-2-2.5c-1-1.6-0.9-3.2,0.3-4.6c0.7-0.8,1.5-1.5,2.4-2.2c0.9-0.7,1.6-1.4,1.8-2.6l-0.1,0.1c0.9,0,1.3,0.6,1.4,1.3
		c0.1,1.2,0,2.3,0,3.5c2,2,4.2,3.3,6.7,4c1.3-0.5,2.5-1.3,3.7-1.5c3.2-0.6,5.3-2.5,6.6-5.6c3.5-1.5,6.9-3.4,10-5.9
		c2.1-1.7,4.6-3.1,5.7-5.7c0.2-0.4,0.7-0.7,1-1c0.4-0.5,0.8-0.9,1-1.4c0.5-2.2,2.2-3.4,3.9-4.5c2.6-1.7,5.5-2.9,8.4-3.9
		c1.9-0.7,3.8-1.4,5.7-2.1c0.7-0.2,1.4-0.3,2.1-0.3c2-0.2,4.1,0.1,6-0.5c3-0.8,5.9-0.3,8.8,0.2c0.2,0,0.5,0,0.7-0.1
		c0.6-0.5,1.3-1,1.8-1.5c2.1,0.7,2.1,0.7,4.2,0.6c0.9-0.4,1.1-1.9,2.5-1.8c0.1,0.3,0.4,0.6,0.3,0.9c-0.1,0.7-0.4,1.4-0.6,2.1
		c-0.2,0.8,0,1.4,1,1.7c0.6-0.2,1.3-0.4,2-0.6c0.7-0.2,1.4-0.3,2.1-0.3c0.3,0,0.8,0.3,0.8,0.5c0.1,0.4,0,1-0.2,1.2
		c-0.7,0.6-1.6,1-2.6,1.6c1.2,1,2.4,1.9,3.4,2.8c0.7,0.6,1.6,1.3,1.8,2.1c0.4,1.3,1.3,1.9,2.3,2.6c2.9,2,5.2,4.6,6.8,7.7
		c0.3,0.6,0.6,1.3,0.7,2c0.1,0.7,0.2,1.4,0.1,2.1c-0.1,0.6-0.5,1.1-0.8,1.7c1.1,0.3,2.1,0.3,3,0.7c0.6,0.2,1,0.9,1.4,1.3
		c-0.5,0.9-0.9,1.6-1.2,2.2c0.7,1.5,1.4,2.7,1.9,4.1c0.4,1,0.6,2.1-0.2,3.1c-0.8,1.1-1.9,0.7-2.9,0.4c-0.1,0-0.2,0-0.4,0
		c0.1-0.5-0.1-0.8-0.7-0.8c-0.1-0.4-0.2-0.9-0.4-1.2c-0.1-0.1-0.6,0-0.9,0c0,0.2,0,0.5,0.1,0.6c0.4,0.2,0.8,0.4,1.2,0.5
		c0.2,0.2,0.5,0.5,0.7,0.7c0.8,1.4,2.3,1.6,3.7,1.9c1.4,0.3,2.4,0.9,2.9,2.4c-0.4,0.7-0.9,1.4-1.2,2c-1.4,0.2-2.4-0.6-3.5-1.1
		c-0.4-0.1-0.8-0.1-1.7-0.1c1.2,0.9,2,1.4,2.7,2c0.8,0.6,1.8,1.1,2,2.2c-0.7,0.7-1.2,0.3-1.8,0.2c-1-0.2-1.9-1.1-3.1-0.8
		c-0.2-0.3-0.4-0.6-0.7-0.8c-0.5-0.2-1-0.4-1.5-0.6c-0.4-1.1-1-1.6-2.4-1.4c0.7,1,1.5,1.3,2.4,1.3c0.3,0.7,0.9,0.6,1.5,0.6
		c0.2,0.3,0.4,0.6,0.7,0.9c1.6,1.8,3.4,3.3,5.8,3.9c0.7,0.2,1.3,0.6,1.9,1c0.7,0.5,0.8,1.1,0.5,2.2c-0.1,0.3-0.3,0.6-0.4,1
		c0.4,1,1,2,1.2,3c0.2,0.6,0.1,1.6-0.3,2c-1.2,1.1-1.1,2.5-0.9,3.8c-0.9,0.6-1.7,1.2-2.6,1.5c-1.1,0.4-2.2,0.8-3.4,1
		c-2.7,0.4-5.2-0.2-7.5-1.6c-0.5-0.3-1.1-0.3-1.6-0.5C741.5,74.6,741.3,74.4,741,74.2z M733.6,51.6c0.1,0.1,0.1,0.2,0.2,0.2
		c0.1,0,0.2,0,0.3-0.1c0,0.2,0,0.4,0.1,0.6c0.1,0,0.2-0.1,0.3-0.1c-0.1-0.1-0.3-0.3-0.4-0.4C733.8,51.7,733.7,51.7,733.6,51.6z
		 M713.9,54c-0.7,0-1.4,0-2.2,0c-0.2-0.3-0.4-0.6-0.6-0.8c-0.1-0.1-0.2,0-0.3,0c0,0.2,0,0.5,0,0.6c0.3,0.1,0.6,0.1,1,0.2
		c-0.2,0.7,0,1.3,0.7,1.3C713.3,55.3,713.8,54.8,713.9,54c0.5-0.1,0.7-0.4,0.5-0.9l0.3,0l-0.2,0C714.3,53.5,714.1,53.7,713.9,54z
		 M673,39.7c0.3-0.7,0.4-1.4,1.1-1.9c0.2-0.2,0.2-0.8,0.2-1.2c1.3-0.1,2.4,0.6,3.9,1.9c-0.5-1.6-0.7-2.3-0.9-3.1
		c-1.4-0.1-2,0.9-2.9,1.3c-1,0.6-2.1,1.1-3.1,1.7c-0.5,0.3-0.8,0.9-0.2,1.6C671.7,39.9,672.4,39.8,673,39.7c0.3,0.2,0.6,0.4,0.9,0.6
		c0.2,0.2,0.5,0.5,0.7,0.7l0.1,0.2l-0.1-0.1c-0.2-0.2-0.5-0.5-0.7-0.7C673.5,40.2,673.2,39.9,673,39.7z M676.5,44l0.2,0.1L676.5,44
		C676.6,44.1,676.5,44.1,676.5,44z M743.2,30.4c0-1.2-0.9-1.8-1.6-2.4c-1.4,1-2.8,2-4.3,3c0.7,0.2,1.5,0.5,2.2,0.7
		c0.7,0.2,1.3-0.1,1.8-0.7C741.8,30.6,742.6,30.5,743.2,30.4c0.3,0.2,0.6,0.4,0.9,0.6l0.1,0.2l-0.2-0.1
		C743.7,30.9,743.4,30.6,743.2,30.4z M211.4,259c-0.2,0.1,0,0,0.3-0.1c0.4-0.3,0,0.1,0.1,0.1C211.5,259,211.2,259.1,211.4,259z
		 M730.4,18.9c0.5,0.2,0.9,0.4,1.4,0.6l0.1,0.2l-0.2-0.1c-0.2-0.7-0.9-0.6-1.4-0.6c0.2-0.5-0.2-0.7-0.6-0.9
		c-0.2-0.1-0.4-0.3-0.2-0.1c-0.3,0,0,0,0.3,0C729.9,18.3,730.2,18.6,730.4,18.9z M717.5,64c-0.2,0.1-0.4,0.2-0.5,0.2
		C717.4,64.7,717.5,64.4,717.5,64c0.9,0,1.2-0.7,1.4-1.4c0.1-0.1,0.2-0.1,0.3-0.2c-0.1,0.1-0.1,0.2-0.2,0.3
		C717.7,62.7,717.7,62.7,717.5,64z M482.4,74.8c-0.6-1.5-1.7-2.5-3.3-2.8c-4.5-0.8-8.9-1.7-13.4-2.2c-3.7-0.5-7.4,0.1-11,0.9
		c-2,0.5-4,0.9-5.9,1.4c-5.4,1.4-10.4,3.4-14.8,6.9c-2.9,2.3-5.7,4.7-8.4,7.2c-2.5,2.3-4.5,5-6.1,7.9c-1.1,2-2.3,3.9-3.5,5.8
		c-0.3,0.5-0.7,0.9-1.2,1.3c-4.1,3.8-8,7.8-12.8,10.9c-1.3,0.8-2.6,1.7-4,2.4c-5.1,2.6-10.2,5.2-15.3,7.8c-2.4,1.2-4.8,2.6-6.9,4.5
		c-2.8,2.5-6.1,4.1-9.7,5.2c-1.2,0.4-2.5,0.6-3.8,1.3c1.4,5.4,1.3,10.9,2.1,16.3c0.8,5.4,1.9,10.8,2.6,16.2
		c0.9,6.8,3.6,12.8,7.6,18.3c0.3,0.4,0.6,0.7,1.1,1.2c0.7-0.6,1.5-1,1.9-1.6c2.4-3.2,5.4-4.5,9.3-3.7c1.4,0.3,2.8,0.7,4.2,1
		c2.2,0.4,4.1,0.2,6-1.3c2-1.6,4.4-2.8,7-3.5c1.5-0.4,2.9-1,4.4-1.5c2-0.6,2.6-0.7,5-0.2c-0.1,0.5-0.2,1.1-0.3,1.9
		c1.3,0.1,2.6,0.1,3.9,0.2c1.1,0,2.2-0.2,3.2,0.1c1.7,0.6,3.1,0.1,4.4-0.6c3.3-1.6,6.6-3.4,10.2-4.2c0.5-0.1,0.9-1,1.5-1.7
		c3.9-0.6,8-1.3,12.1-1.8c2.5-0.3,5-0.5,7.5-0.7c3.9-0.4,7.8-1,11.6-2.3c1.1-0.4,2.3-0.6,3-1.8c0.2-0.3,0.5-0.5,0.8-0.7
		c3.9-1.7,7.5-4.3,11.9-4.7c0.1,0,0.2-0.1,0.5-0.3c0.1-1.2,0.3-2.6,0.5-4c0.2-1.7,0.4-3.3,0.8-4.9c1.3-5.3,4.6-9.1,9.3-11.6
		c0.2-0.1,0.4-0.2,0.7-0.2c0.3-0.1,0.7-0.1,1.1-0.1c0.7-0.9,1.4-1.9,2.2-2.7c0.7-0.8,1.6-1.5,1.2-2.7c1.6-0.3,2.2,0.4,2.4,1.8
		c-0.5,0.8-1.1,1.7-1.8,2.6c1.1,0.7,2.1-0.1,3.1,0c0.4,0,0.4,0.1,1,1.2c-2.5,1.7-4.3,1.9-7.6,0.9c-8.1,6-9.8,9.1-10.7,19.4
		c0.5,0.8,1.2,0.8,1.8,0.4c1.5-1.1,3.1-2.2,4.5-3.6c3.2-3.1,5.2-6,7.7-10.3c-0.2-0.4-0.3-0.8-0.5-1.3c1.4-3,4.6-2.9,7.1-4
		c0.1-0.4,0.2-0.6,0.2-0.8c-1.5-3-1.9-6.3-2.9-9.5c-1.6-5.4-3.1-10.8-4.6-16.2c-0.3-0.9-0.5-1.8-0.9-2.7c-2.3-5.8-3.3-11.9-5-18.2
		c-0.3-0.2-1-0.5-1.4-1c-0.3-0.6-0.5-1.4-0.4-2.1c0.3-4.9-1-9.7-1.4-14.6c0-0.4-0.2-0.9-0.4-1.3c-1,0.2-2,0.3-2.5,1.3
		c-0.3,0.1-0.5,0.1-0.4,0.1c-0.2,0.1,0.1,0,0.3-0.2c0.5,0.1,0.9,0.1,1.8,0.3c-1,0.7-1.7,1.2-2.5,1.7c-0.8,0.5-1.6,1-2.4,1.6
		c0.7,0.7,1.1,0.1,1.6,0c0.5-0.1,0.9-0.4,1.3-0.5c0.5-0.2,1.1-0.4,1.8-0.6c0,1.3-1.4,1.5-1.7,2.4c0.4,0.2,0.8,0.5,1.2,0.7
		c-0.5,1.1-1.5,1.5-2.6,1.7c-0.6,0.1-1.1-0.2-1.5-0.8c0.1-0.1,0.2-0.2,0.3-0.3c-0.1,0-0.1,0.1-0.1,0.1c0,0.1,0,0.2,0,0.3
		c-0.4,0.4-0.9,0.7-1.4,1.2c-1-1.9-1.1-3.8-1.2-5.7C482.1,75.1,482.4,74.9,482.4,74.8c1,0.9,1,0.9,2.1,0l0.2-0.1l-0.1,0.2
		C483.9,74.8,483.2,74.8,482.4,74.8z M714.6,48.3c0.4,0.4,0.7,0.8,1.2,1.3c0.2-0.5,0.3-0.8,0.5-1.3C715.6,48.3,715,48.4,714.6,48.3
		C714.5,48.4,714.5,48.3,714.6,48.3z M675.1,46.7l0.2,0.1c0.1,0.6,0.2,1.2,0.5,1.7c0.2,0.4,0.6,0.7,1,1.1c0-1.4,0-1.4-1.5-2.7
		L675.1,46.7z M692.7,21.5c1.3-0.3,1.7-1.4,2.5-1.9l0.1-0.1l-0.1,0.2C694.2,19.8,693.2,20.1,692.7,21.5z M503.8,113.9
		c-0.7,0.8-0.5,1.3,0.2,1.7c-0.2,1.9,0.6,3.5,1.4,5.1c0.3,1.7,0.6,3.4,1.1,5.9c0.2-3.2,0.1-3.9-1.1-5.8c0.2-1.9-0.4-3.5-1.4-5.1
		C503.9,115.1,503.9,114.6,503.8,113.9z M187.6,212.4c1.4,0.8,2.4,0.5,3.5,0.5c0.1,0.1,0.1,0.3,0.2,0.3c2.1,0.6,4.3,1.1,6.4,1.6
		c0.2,0,0.4-0.4,0.8-0.8c-2.6-0.6-5-1-7.5-1C190.1,212.3,189.1,212.4,187.6,212.4z M699.8,54c-1.7,0.3-1.4,3-3.7,2
		c0.5-1.5,1.2-2.8,2.6-3.6c2-1.3,4.1-2.4,6.6-2c0,0.8,0.5,0.5,0.9,0.3c-0.3-0.1-0.6-0.1-1-0.2c-0.6-0.5-1.2-1.1-1.8-1.6
		c-2.5,0.1-4.4,1.2-6.4,2.3c-0.7,0.4-1.3,1.1-1.7,1.8c-1,2.2-1.9,4.4-1.4,6.8c-1.6,1.2-1.7,3.3-2.8,4.7c0.6,1.4,1.6-0.3,2.3,0.6
		c0.3,1.1-0.3,2.2-1.3,2.7c-1.8,1-2.7,3.4-5,3.8c-0.3,0.1-0.6,0.7-0.8,1.1c-0.5,0.7-0.7,1.8-1.9,1.9l0.1,0.1
		c-0.3-1.4,0.4-2.6,0.9-3.7c0.2-0.4,0.6-0.8,1-0.9c1.5-0.3,2.1-1.5,2.9-2.8c-0.2-1.7-0.1-3.6,1-5.3c0.4-0.6,0.4-1.3,0.6-2
		c0.8-2.6,1.6-5.2,2.5-7.9c-0.3-0.4-0.7-0.4-1.1,0c-1.1,0.8-2.4,0.9-3.7,0.6c-2.3-0.5-4.7-1-7-1.5c-2.2-0.5-4.2-0.2-6.1,1.2
		c-2.7-0.9-4.7-2.5-5.3-5.5c-1.3-0.1-2.5-0.3-4.1-0.5c1-0.6,2.1-0.9,2.4-1.5c0.4-0.8,0.6-1.7,1.5-2.2c-0.4-0.6-0.7-1-0.9-1.4
		c-2.7,2.7-2.7,2.7-6.8,3.4c-0.9,0.2-1.9,0.3-2.8,0.6c-2.4,0.7-4.5,0.2-6.4-1.3c-1.2-1-2.4-2-3.7-3c-0.8,0.4-1.6,0.8-2.4,1.2
		c-0.3,1.4,0.4,2.3,1.2,3c4.1,3.7,6.3,8.6,8.4,13.5c0.3,0.7,0.5,1.3,0.8,2c2.3,4.1,2.4,8.7,2.3,13.2c0,1.4-0.5,2.8-0.9,4.1
		c-0.6,1.7-1,3.3-1.6,5.2c1.9,0.3,3.6,0,5.2-0.2c2.7-0.4,5.4-0.4,8.2-0.1c1.8,0.2,3.6,0,5.3-0.1c0.8,0,1.6,0,2.5,0
		c1.4,1.5,2.4,3.2,3,5.2c0.7,2.2,1.5,4.3,2.1,6.4c0.4,1.5,1.4,2.4,2.8,3c0.5,0.2,1.1,0.5,1.7,0.7c1.6,0.6,3.1,0.4,4.4-0.6
		c0.5-0.4,0.9-0.8,1.3-1.2c1.3-1.2,2.8-1.8,4.6-1.1c0.3,0.1,0.7,0.3,1,0.2c0.4-0.1,1-0.2,1.2-0.5c0.2-0.3,0.2-0.9,0-1.3
		c-0.3-0.6-0.8-1.1-1.2-1.6c0.3-1,1-1.1,1.5-0.7c1.1,0.7,2.1,1.5,2.7,2.8c0.3,0.6,0.9,1,1.4,1.6c1.4-1.2,2.7-2.2,4.1-3.3
		c-0.4-0.8-0.8-1.5-1.2-2.1c1.4-3.2,2.4-3.9,4.2-2.6c-0.8,0.3-1.5,0.5-2.4,0.9c0.9,2.1,1.8,4.1,3,5.9c1.7-1.5,6.5-7.7,8.8-11.3
		l-0.1,0.1c1.3-0.4,2.7-0.8,4-1.2c-0.8-4.1-3.9-6.2-7.1-8.3c0.5-0.3,0.8-0.7,1-0.6c2,0.5,3.7,1.4,5.3,2.7c2,1.7,3.4,3.6,3.3,6.3
		c2.5-1.2,5-3.9,8.4-8.9c-0.8-1.3-1.7-2.7-2.6-4.1c-0.2-0.3-0.5-0.5-0.8-0.7c-0.3,0.2-0.7,0.4-1,0.5l0.1-0.1
		c-0.5-0.1-1.1-0.1-1.3-0.4c-1-1.2-2.3-1.9-4.1-2.1c-2,1.1-4.4,1.7-7.2,1.1c0.5-0.7,0.8-1.2,1.1-1.7c-0.1-0.1-0.2-0.2-0.3-0.3
		c-1.7,1.1-3.5,2.3-5.2,3.3c-0.9-0.4-1.7-1-2.4-0.9c-2.2,0.3-4.5-0.3-6.7,0.8c-1.3,0.6-2.7,1.1-4,1.5c-0.5,0.2-0.9-0.1-1.6-1.1
		c3.4-4.4,7.6-8.1,10.2-13.2c0-0.1-0.1-0.2-0.1-0.4c-1.1,0.4-0.9,2.1-2.4,2.4c-0.1-0.4-0.3-0.8-0.2-1.2c0.1-0.8,0.5-1.6,0.6-2.4
		c0-0.4-0.4-0.8-0.6-1.2c0-0.2-0.1-0.5-0.1-0.7c0-0.1,0-0.2,0-0.4c-0.1,0.2-0.3,0.4-0.2,0.5c0.1,0.2,0.3,0.3,0.5,0.5
		c-0.8,2.1-2.8,2.8-4.6,3.6c-1,0.4-2,0.7-2.9,1c-0.4,1.4-0.7,2.6-1,3.7c-1.1,0.8-1.6-0.5-2.4-0.4c-0.8,0.1-1.7,0-2.5-0.1
		c-0.7-0.1-0.9-0.7-0.9-1.3c1.3,0.1,2.6,0.2,4.1,0.3c1.1-0.5,0.5-2.1,1.7-3.4c0.7-0.3,1.9-0.8,3.1-1.3c0.4-0.2,0.7-0.5,1.1-0.7
		c0.9,0,1.8-0.1,2.1-1.2c-0.2,0-0.5-0.2-0.6-0.1c-0.5,0.5-0.9,0.9-1.4,1.4C702.3,54.9,700.7,55.2,699.8,54z M502,103.2
		c0,0.1,0.2,0.2,0.3,0.2c0-0.1,0-0.2,0-0.3c-0.1-0.2-0.3-0.3-0.4-0.5c-0.1-1.3-0.1-2.6-0.4-3.9c-1.8-8.3-3.1-16.6-4.1-25
		c-0.1-0.7-0.2-1.4-0.3-2.1c-1.7-1.1-1.7-1.2-4.2-0.7c-0.5,1.8-0.1,3.6,0,5.5c0.2,1.7,0.6,3.3,0.6,4.9c0.1,2.8,0.9,5.4,1.9,7.9
		c1.8,4.3,3.8,8.5,5.7,12.7c0.1,0.3,0.5,0.4,0.8,0.6C501.9,102.8,501.9,103,502,103.2z M210.5,247.6c-0.4-0.1-1-0.3-1.6-0.4
		c-3.1-0.5-5.8-2-8.6-3.4c-1-0.5-1.9-0.9-3-1c-1.2-0.1-2.4-0.3-3.5-0.5c-1.1-0.2-2-0.7-2.7-1.6c-0.4-0.4-0.4-0.7,0.3-1.8
		c2,0.9,4.1,1.8,6.1,2.6c0.8-0.6,0.5-1.2,0.1-1.6c-0.7-0.8-1.4-1.6-2.1-2.3c-2-0.4-3.8-0.7-5.7-1.1c-0.9-0.2-1.9-0.5-2.7-0.9
		c-1.1-0.5-1.5-1.6-0.6-2.6c0.2-0.3,0.5-0.5,0.8-0.9c-0.2-0.3-0.3-0.6-0.5-0.8c-1.9-2.2-1.9-2.2-1-5.1c-0.9-0.5-1.9-1-2.8-1.5
		c-1.8-1.1-2-1.6-1.7-4.2c-0.2-0.2-0.5-0.5-0.7-0.7c-1.9-1.6-1.9-1.6-1-4.2c-0.9-0.3-1.8-0.6-2.6-1c-0.7-0.3-1.2-1.3-0.8-1.8
		c0.3-0.4,0.9-1,1.3-1c1.8,0,3.6,0,5.3,0.2c1,0.1,2.1,0.4,3.4,0.1c-1.5-0.5-2.8-0.8-4-1.3c-0.5-0.2-1-0.6-1.4-1
		c-0.2-0.2-0.3-0.7-0.2-1c0.2-0.4,0.5-0.8,0.9-0.9c0.4-0.1,0.9,0,1.4,0c3.9,0.6,7.8,1,11.7,1.7c2.1,0.4,4.1,1.1,6.2,1.7
		c0.2-0.2,0.4-0.5,0.6-0.8c0.3-0.6,0.6-1.3,0.9-2.2c-0.6,0-1.1-0.1-1.5,0c-3.1,0.7-6.2,0.6-9-1.1c-0.5-0.3-1.1-0.5-1.7-0.6
		c-3.8-1.2-7.1-3.3-10.3-5.6c-2.4-1.8-4-4-5.5-6.4c-1-1.7-1.6-3.5-1.8-5.4c-0.3-2.3,0-4.6,1.8-6.3c1.3-1.3,1.7-2.7,1.4-4.5
		c-0.2-1.4,0-2.8,0-4.5c-0.4-0.1-0.9-0.3-1.5-0.3c-4.3,0-8.2,1.3-12.1,3c-4.1,1.8-8.3,2.9-12.8,2.3c-0.8-0.1-1.7,0-2.5,0.1
		c-1.1,0.1-1.7,0.8-1.8,1.9c0,0.7,0,1.4,0.2,2.1c1.1,2.9,0.8,5.7-0.5,8.3c-0.9,1.9-1.1,3.7,0,5.4c2.3,3.7,2.7,7.8,2.6,12.1
		c0,0.1,0.1,0.2,0,0.1c0.7,1.1,1.6,1.8,1.8,2.8c0.4,1.3,1.2,2,2.2,2.6c2,1.1,3.7,2.6,4.8,4.7c0.2,0.4,0.6,0.8,0.6,1.3
		c0.1,2.3,1.2,4.3,2,6.4c0.3,0.9,0.4,1.9,0.5,2.8c0.1,0.8,0.1,1.7,0,2.5c-0.7,4.9,1.3,8.9,4.1,12.6c2.8,3.7,5.8,7.3,8.7,10.9
		c1.1,1.4,2.3,2.8,3.4,4.1c0.4,0.5,0.6,1.1,1.1,1.4c2.8,1.6,5.5,3.4,8.8,3.8c2.5,0.3,5,0.1,7.5,0c3.6-0.1,6.4-1.5,10.1-3.9
		c2-1.3,4.1-2.5,6.1-3.6c1.2-0.7,2.5-1.3,3.9-2C213.2,252.1,211.7,250,210.5,247.6z M179.6,173.2c-0.8,1-1,2-0.6,3.1
		c0.9,2.9,0.1,5.6-1.6,7.7c-2,2.4-2.1,4.9-0.9,7.3c1.4,2.9,3.2,5.6,5,8.2c0.6,0.8,1.6,1.4,2.5,1.9c3.2,2.1,6.8,3.4,10.7,4.2
		c1.5-0.4,2.9-1.2,3.8-2.9c-0.2-0.9-1.1-1.1-1.8-1.5c-4.1-2.4-7.5-5.4-9.7-9.7c-0.5-0.9-1.3-1.7-1.9-2.6c-1.4-1.9-2.7-3.9-3.5-6.2
		c-0.4-1.2-0.4-2.3,0.3-3.4c1.3-1.9,2-4,2.8-6.2C182.8,172.5,181.2,172.6,179.6,173.2z M597.5,104.3c1.8,0.6,3.3,2.1,5.4,1.9
		c1.2-3.7,2.3-7.3,3.5-10.9c0.3-0.9,0.5-1.9-0.2-2.8c-2,0.3-4.1,0.7-6.2,0.8c-2,0.1-4.1,0.1-6.1,0c-2.1-0.1-4.3-0.4-6.4-0.8
		c-2-0.4-3.8-1.1-5.8-1.7c-0.6,0.5-0.2,0.9,0.1,1.2c1.4,2.2,2.7,4.5,4.2,6.7c1.4,2,3.2,3.5,5.5,4.4c1.4,0.6,2.9,1.1,4.2,1.6
		C596.5,104.6,597,104.4,597.5,104.3z M197.4,224.3c-0.1,0.5-0.2,0.8-0.2,1.1c-0.3,2-0.8,2.6-2.6,2.6c-1.3,0-2.6-0.2-3.9-0.3
		c-1.2-0.2-2.3-0.2-3.5,0.6c0.9,1.3,2.2,1.8,3.5,2.4c0.6,0.3,1.5,0.7,1.6,1.2c0.5,1.7,1.8,2,3.2,2.2
		C197.7,229.5,198.3,226.7,197.4,224.3z M738,58.2c-0.8-0.8-1.7-0.9-2.7-0.6c0,0.3-0.1,0.5,0,0.7c1.1,1.3,2.1,2.5,3.3,3.7
		c0.5,0.5,1.1,1.1,1.7,1.2c2.3,0.4,4.2,1.5,6.4,2.2c1,0.3,2.1,0.5,3.1,0.6c0.4,0,0.8-0.3,1.7-0.6c-2.6-1.2-5.1-1-7.2-2c-2-1-4-2-6-3
		C738.2,59.5,738.1,58.8,738,58.2z M689,251.6c2.6-0.3,4.9,0.5,7.3,1.3c0.6,0.2,1.3,0.1,2.5,0.1c-2.3-2.1-4.8-2.1-7-2.7
		c-2.8-0.8-5.7-1.2-8.9-0.6C684.8,250.8,687.6,251.8,689,251.6z M724.2,16c-3-0.6-5.8-2-8.8-2.7c-0.1,0-0.2,0.1-0.4,0.2
		c0.2,0.2,0.3,0.6,0.5,0.7c1.6,0.4,2.7,1.3,3.6,2.7c0.6,0.9,1.8,1.5,2.5,2c1.9,0.1,2.6-1.2,3.8-2.2C724.7,16.4,724.5,16,724.2,16z
		 M708.6,37.8c1.1,0.4,2.1,0.8,3.4,1.2c0.7-0.3,1.6-0.7,2.6-1.1c-0.2-0.5-0.3-0.9-0.4-1.3c-0.2-0.4-0.4-0.8-0.7-1.2
		c-1.5,0.4-3,0.7-4.6,1.1C708.8,37,708.7,37.4,708.6,37.8z M196.7,220.9c0.8-1,0.4-1.6-0.4-1.8c-2.6-0.7-5.3-1.2-8-1.8
		c-0.1,0.2-0.2,0.4-0.3,0.6C191,218.9,193.9,219.9,196.7,220.9z M746.1,73.3c2.1,1,4.2,2.1,6.8,1.3c-0.3-0.3-0.4-0.5-0.6-0.6
		c-2.3-0.9-4.6-1.8-7.1-2.8C744.8,72.6,745.4,73,746.1,73.3z M731.9,50.3c0-0.3,0.1-0.6,0-0.7c-0.5-0.9-1.3-1.4-2.4-1.1
		c-0.9,0.2-1.8,0.4-2.8,0.6c-0.1,0.1-0.1,0.2-0.2,0.2c0.7,0.6,1.5,1.2,2.3,1.8C730.1,50.8,731,50.6,731.9,50.3z M740.4,39
		c1.2,1.8,1.3,1.9,4.7,3.1C744.1,40.1,742.2,39.6,740.4,39z M721.5,25c-0.2-0.7-0.6-1.1-1.3-0.9c-1.6,0.5-3.1,0.9-4.3,2.3
		C717.8,26.1,719.7,26,721.5,25z M743.8,49.3c-1.6-0.5-3.2-1-5.2-1.6c0.8,1.3,1.9,1.6,2.7,2.4C742.4,49.8,743.2,49.5,743.8,49.3z
		 M703.5,24.5c-1.7-0.3-2.1-0.1-3.8,1.8C701.7,26.2,701.7,26.2,703.5,24.5z M729.3,47.4c0.3-1.2-0.4-1.4-1.1-1.2
		c-0.8,0.3-1.6,0.8-2.4,1.3c0.1,0.2,0.1,0.4,0.2,0.5C727.2,47.9,728.3,47.6,729.3,47.4z M731.5,40.8c-0.4-1.1-1.2-1.6-2.3-2
		c-0.2,0.3-0.5,0.7-0.7,1C729.3,40.9,730.2,41.2,731.5,40.8z M701.3,29c1.6,0.3,1.6,0.3,3.7-1.4C703.3,27.1,702.4,28,701.3,29z
		 M704.4,52.1c-1.6-0.7-2.5,0.1-3.3,1.1C702.4,53.3,703.4,53,704.4,52.1z M697.8,43.5c1,0.3,1.7,0.6,2.8,1
		C699.8,43.2,698.9,43.6,697.8,43.5z M711.6,65c1.2,0.5,1.9,0.1,2.7-0.6C713.1,63.7,712.4,64.6,711.6,65z M706.9,66.3
		c0.2-0.1,0.4-0.6,0.3-0.8c-0.3-0.5-0.8-0.3-1.1,0c-0.2,0.2-0.4,0.5-1.1,1.5C706.1,66.6,706.6,66.5,706.9,66.3z M718,23.7
		c0.7-0.3,1.2-0.5,1.8-0.8C719.1,22.7,718.4,22.5,718,23.7z M752.7,68.5c0.3,0.2,0.5,0.4,0.7,0.6c0.3,0.1,0.6,0.2,1,0.3
		C753.9,67.8,753.9,67.8,752.7,68.5z M724.4,57.1c-0.1-0.2-0.5-0.4-0.8-0.4c-0.3,0-0.5,0.3-0.8,0.5c0.4,0.2,0.8,0.5,1.3,0.8
		C724.3,57.7,724.5,57.3,724.4,57.1z M713.7,56.6c-1.1,0.1-1.3,0.7-1.7,1.5C713.2,57.9,713.4,57.3,713.7,56.6z M725.6,64.8
		c0.4-0.6,0.6-1.1,0-1.6C725.6,63.7,725.6,64.2,725.6,64.8z M708.9,49.3c0.1-0.2,0.2-0.3,0.3-0.5c0,0-0.2-0.2-0.2-0.2
		c-0.2,0.1-0.3,0.2-0.5,0.3C708.6,49.1,708.7,49.2,708.9,49.3z M730.3,53.1c0.1-0.2,0.3-0.5,0.4-0.7c-0.2-0.1-0.5-0.3-0.6-0.2
		c-0.2,0.1-0.2,0.4-0.3,0.6C730,52.9,730.1,53,730.3,53.1z M507.2,128.5c0-0.2,0.1-0.3,0.1-0.5c0-0.1-0.1-0.2-0.2-0.7
		C507.1,128,507.2,128.3,507.2,128.5z M697.5,47.7c0.1,0.1,0.2,0.3,0.4,0.3c0,0,0.3-0.1,0.2-0.2c0-0.2-0.1-0.4-0.2-0.5
		C697.8,47.4,697.6,47.5,697.5,47.7z M693.6,48.1c0.2-0.1,0.4-0.2,0.6-0.3c-0.1-0.1-0.2-0.2-0.3-0.2c-0.2,0.1-0.4,0.2-0.6,0.2
		C693.4,48,693.5,48.1,693.6,48.1z M726.8,56.6c0,0,0.1-0.1,0.1-0.2c-0.1,0-0.2-0.1-0.3-0.1c0,0-0.1,0.1-0.1,0.2
		C726.6,56.6,726.7,56.6,726.8,56.6z M716.1,54.1c0,0.1-0.1,0.3-0.1,0.4c0.1,0,0.2,0,0.3-0.1c0.1,0,0.1-0.2,0.1-0.2
		C716.3,54.2,716.2,54.2,716.1,54.1z M681,39.2c0,0.1,0.1,0.1,0.2,0.2c0.1-0.1,0.2-0.2,0.2-0.2c0-0.2-0.1-0.4-0.2-0.6
		C681.2,38.9,681.1,39.1,681,39.2z M722.9,62.5c0.1-0.2,0.3-0.3,0.3-0.5c0-0.2-0.2-0.3-0.3-0.5c-0.1,0.2-0.2,0.3-0.3,0.5
		C722.6,62.3,722.7,62.4,722.9,62.5z M707.3,34c-0.1-0.1-0.2-0.2-0.3-0.2c0,0.1-0.1,0.2,0,0.3c0,0.1,0.2,0.1,0.2,0.2
		C707.2,34.1,707.3,34,707.3,34z M689.1,46.7c0,0.1,0.1,0.2,0.2,0.2c0-0.2-0.1-0.3-0.1-0.5C689.1,46.6,689.1,46.7,689.1,46.7z
		 M700,22.8l-0.2,0l0.1,0.2L700,22.8z"/>
	<path d="M633.8,211.5c-1,2.3-0.6,3.9,0.1,5.4c1.2,2.4,1.5,5,1.7,7.6c0.2,2.4,0.4,4.8,0.7,7.1c0.2,2.4,0.6,4.8-0.2,7.1
		c0,0.1-0.1,0.2-0.1,0.4c0.2,3.9,0.1,7.9,1.2,11.7c1.2,4,2.6,7.9,4,11.9c0.3,0.8,0.6,1.6,1,2.3c0.1,0.2,0.6,0.4,0.9,0.3
		c0.3,0,0.7-0.3,0.8-0.6c0.2-0.5,0.3-1.2,0.2-1.7c-0.8-5.5-2.1-10.8-5-15.6c-0.7-1.2-1.1-2.4-1.1-3.7c0-2.6,0-5.2,0-7.9
		c0-1.3,0-2.6-0.1-3.9c-0.4-3.8-0.8-7.6-1.1-11.4c-0.1-1.3-0.4-2.6-0.9-3.8C635.1,215.2,634.6,213.6,633.8,211.5z"/>
	<path d="M623.8,511.7c-0.3,0.8-0.6,1.2-0.6,1.6c-0.1,1.6,0.3,3.1,1,4.5c0.8,1.6,1.1,3.4,1.2,5.2c0.2,3.5,0.6,6.9,0.9,10.3
		c0.2,1.7,0.3,3.3-0.2,5c-0.1,0.3-0.2,0.7-0.2,1.1c0.3,3.9,0.1,7.9,1.3,11.7c1.2,3.9,2.6,7.7,3.9,11.5c0.2,0.7,0.5,1.4,0.8,2
		c0.3,0.6,0.8,1.1,1.4,0.8c0.4-0.2,0.7-0.9,0.9-1.4c0.1-0.4,0-0.9-0.1-1.4c-0.9-5.4-2.2-10.8-5.2-15.5c-0.6-1-0.8-2-0.9-3.1
		c-0.1-2.6-0.2-5.3,0-7.9c0.1-1.6,0-3.1-0.1-4.6c-0.4-3.7-0.8-7.4-1.1-11c-0.1-1.2-0.3-2.3-0.8-3.5
		C625.2,515.5,624.6,513.8,623.8,511.7z"/>
	<path d="M563.5,46.8c-0.5,0.2-1.1,0.3-1.5,0.7c-5.9,5.5-12.9,9.4-19.4,14c-6.7,4.7-12.6,10.1-17.5,16.7c-1.6,2.2-3.2,4.4-4.7,6.7
		c-0.4,0.5-0.4,1.3-0.6,2l-0.1-0.1c0.4-0.4,0.9-0.7,1.3-1.1c1.1-1.4,2.1-2.9,3.2-4.3c5.2-7.4,12-13.1,19.4-18.2
		c2.9-2,5.8-4.2,8.8-6.1c4-2.7,7.4-6,10.7-9.4C563.2,47.5,563.3,47.1,563.5,46.8C563.4,46.8,563.5,46.8,563.5,46.8z"/>
	<path d="M627.4,480.9c2.4,0.4,3.9,1.1,5.2,2.5c0.1-0.3,0.3-0.6,0.3-0.7c-3.8-3.6-7.6-7.1-11.4-10.6c-0.9,0.1-1.4,0.7-1,1.4
		c0.4,1,1.1,1.8,1.8,2.7c1,1.2,2,2.4,3.5,4.1c0,1.8,0.8,4.3,0.8,6.9c0,1.6,0.7,3.3,1.4,4.7c0.9,1.8,2.1,3.4,3.4,5.4
		c-0.3,1.4-0.2,3,0.9,4.4c0.6,0.2,1-0.1,0.9-0.7c-0.2-1.3-0.8-2.4-0.4-3.8c0.2-0.5-0.4-1.3-0.7-2c-1.3-3.6-2.7-7.1-3.9-10.7
		C627.6,483.4,627.6,482.4,627.4,480.9z"/>
	<path d="M637.4,180.8c3.4,0.9,3.4,0.9,5.2,2.3c0.1-0.2,0.3-0.5,0.2-0.6c-3.8-3.6-7.6-7.1-11.4-10.6c-0.9,0.1-1.4,0.7-1,1.4
		c0.4,1,1.1,1.8,1.8,2.7c1,1.2,2,2.4,3.5,4.1c0,1.7,0.8,4.2,0.8,6.8c0,1.6,0.7,3.3,1.4,4.7c0.9,1.8,2.1,3.4,3.4,5.4
		c-0.3,1.4-0.2,3,0.9,4.4c0.6,0.2,1-0.1,0.9-0.7c-0.2-1.3-0.8-2.4-0.4-3.8c0.2-0.5-0.4-1.3-0.7-2c-1.3-3.6-2.7-7.1-3.9-10.7
		C637.6,183.3,637.6,182.2,637.4,180.8z"/>
	<path d="M504.4,85.7c-0.8,7.5,0.7,14.6,2.6,21.8c1.1,4,2.3,8,3.3,12.1c0.8,3.2,1.3,6.5,2,9.9c0.6,0.1,0.7-0.6,0.7-1.1
		c0-1.4,0-2.9-0.2-4.3c-0.7-5.1-2.2-10-3.5-14.9c-1.4-5.3-2.6-10.7-4-16C504.8,90.7,504.2,88.2,504.4,85.7z"/>
	<path d="M617.7,538.5c-0.1-1-0.2-2.1-0.3-3.1c-0.1-1.1-0.1-2.2-0.3-3.2c-0.8-4.5-1.2-9-2.9-13.2c-0.5-1.4-0.7-2.8-0.6-4.2
		c0.1-2,0.2-4.1,0.2-6.1c0-1.4-0.1-2.8-0.3-4.2c0-0.3-0.5-0.6-0.9-1.1c-0.3,0.5-0.7,0.7-0.7,1c-0.2,3.2-0.2,6.4-0.4,9.6
		c-0.1,2.3,0.3,4.6,1.4,6.6c1.7,3.2,2.3,6.8,2.8,10.3c0.3,2,0.5,4,0.9,6c0.1,0.6,0.5,1.2,0.8,1.8
		C617.5,538.6,617.6,538.6,617.7,538.5z"/>
	<path d="M627.8,238.6c-0.4-4.4-0.8-8.4-1.6-12.3c-0.5-2.6-1-5.1-1.9-7.6c-0.4-1.2-0.6-2.6-0.6-3.8c-0.1-2.1,0.1-4.3,0.1-6.4
		c0-1.3-0.1-2.6-0.3-3.9c-0.1-0.4-0.5-0.8-0.9-1.4c-0.3,0.6-0.8,0.9-0.8,1.3c-0.2,3.1-0.2,6.2-0.4,9.3c-0.1,2.4,0.3,4.8,1.4,6.9
		c1.7,3.2,2.2,6.8,2.8,10.3c0.3,1.9,0.5,3.8,0.8,5.7C626.6,237.2,626.6,238,627.8,238.6z"/>
	<path d="M610.1,418.9c0,1.1-0.1,2,0,2.7c0.7,3.2,2,6.1,3.9,8.8c0.6,0.8,1.3,1.4,2,2c1.5,1.2,2.9,2.4,3.6,4.3c0.2,0.5,0.5,1.1,1,1.5
		c1.4,1.1,2.3,2.3,2.3,4.2c0,0.6,0.6,1,1.3,0.9c0.7-0.1,1.3-0.8,1.2-1.5c-0.1-1.2-0.7-2.1-1.7-2.6c-1.9-1-3.2-2.4-4-4.4
		c-0.4-0.9-1.3-1.7-2.1-2.4c-0.9-0.8-1.6-1.7-2.1-2.8c-1.2-2.9-2.4-5.7-3.6-8.6C611.7,420.2,611.6,419.3,610.1,418.9z"/>
	<path d="M624.6,178.5c0.9-1,0.8-2,0.1-2.7c-1.6-1.6-1.8-3.5-1.6-5.6c0.1-0.9-0.1-1.9,0.1-2.8c0.3-2-0.7-3.3-1.6-4.7
		c-0.3,0.1-0.4,0.1-0.5,0.1c-0.1,0.1-0.2,0.2-0.2,0.3c0,2.8,0,5.6,0,8.5c-1.7-0.3-2.1-1.9-3.6-2.7c0,0.8-0.1,1.5,0,2.2
		c0.3,2.6,0.7,3,3.5,3.6C622.1,175.9,622.5,178.1,624.6,178.5z"/>
	<path d="M610.7,472.3c-1.3-1.2-2.3-2.1-3.6-3.3c0.1,1.2,0,2.2,0.2,3.1c0.3,1.7,1.1,2.9,3.1,2.5c1,1.3,1.9,2.5,3,3.6
		c0.2,0.2,1,0.3,1.2,0.2c0.3-0.2,0.5-0.9,0.4-1.2c-0.2-0.7-0.5-1.3-1-1.8c-1-1-1.2-2.2-1.2-3.6c0.1-1.4-0.1-2.9,0.1-4.3
		c0.2-1.9-0.5-3.3-2-5C610.3,465.8,610.9,468.9,610.7,472.3z"/>
	<path d="M620.2,119c0,0.8-0.2,1.6-0.1,2.3c0.7,3.3,2,6.4,4.1,9.1c0.6,0.8,1.5,1.5,2.3,2.2c1.2,1,2.3,2,2.9,3.5
		c0.3,0.8,0.8,1.5,1.3,2.1c0.4,0.6,1,1,1.7,1.6c0.2,0.8,0.3,1.7,0.6,2.6c0.1,0.3,0.7,0.7,1.1,0.7c0.7,0.1,1.2-0.4,1.2-1.1
		c0.1-0.6,0-1.3-0.3-1.7c-0.6-0.7-1.3-1.4-2.1-1.9c-1.3-0.8-2.3-1.7-2.8-3.2c-0.5-1.3-1.3-2.3-2.4-3.1c-1.1-0.8-1.8-1.9-2.3-3.1
		c-1.2-3-2.4-6-3.7-8.9C621.6,119.6,621.4,118.8,620.2,119z"/>
	<path d="M295.3,166.7c-4,1.7-8.2,2.3-12.2,3.2c-1.9,0.4-3.7,0.8-5.6,1c-1.5,0.2-3.1,0.4-4.6,0.4c-2.1,0.1-3.9,0.6-5.9,2.2
		c2.6,0.4,4.4-0.6,6.3-1.2c1.1,0.2,2.3,0.5,3.4,0.5c1,0,2.1-0.6,3.1-0.8c3.1-0.7,6.3-1.4,9.4-2c1.9-0.4,3.8-0.6,5.4-1.6
		C295.1,168.1,295.6,167.8,295.3,166.7z"/>
	<path d="M616.9,488.1c-1.4,0.7-1.8,1.8-2.1,3c-1.2,4.5,1.2,8.9,4.3,11.2c0.5,0.4,1.1,0.4,1.6-0.4c-0.4-0.6-0.8-1.3-1.2-2
		c-2-2.6-2.7-5.5-2.1-8.7C617.7,490.2,618,489.2,616.9,488.1z"/>
	<path d="M626.9,188c-1.3,0.7-1.7,1.8-2,2.9c-1.2,4.6,1.3,9,4.3,11.2c0.5,0.4,1.1,0.4,1.6-0.4c-0.4-0.6-0.8-1.3-1.2-2
		c-2-2.6-2.7-5.5-2.1-8.7C627.7,190.1,628.1,189,626.9,188z"/>
	<path d="M605,69.7c1.1,0.1,2.1-0.2,2.8-1.2c2.1-3,4.2-6,5.5-9.5c0.9-2.4,1-3.2,0.6-6.2c-0.3,0.7-0.6,1.1-0.7,1.5
		c-0.7,3.1-2.3,5.7-4.1,8.2c-1.3,1.8-2.5,3.7-3.7,5.6C605.2,68.7,605.2,69.3,605,69.7L605,69.7z"/>
	<path d="M610.6,74.6c-0.1,0.2-0.3,0.3-0.3,0.4c0.6,2.9,1.1,5.8,1.7,8.9c-1.7,5.7-1.7,7.1-0.2,8.7c1.3-2.8,0.9-5.9,1.6-8.7
		c-1.2-2.8-0.6-5.9-2.1-8.6C611.2,74.8,610.8,74.8,610.6,74.6z"/>
	<path d="M556.3,84c0,0.9,0.7,1.2,1.4,1.3c0.9,0.2,1.8,0.2,2.8,0.2c2.2,0.1,3,0.3,5.5,1.5c0.3-0.6,0.6-1.2,0.9-1.7l0.1,0.1
		c-2.5-1.7-5.4-2-8.4-2C557.8,83.4,557,83.9,556.3,84L556.3,84z"/>
	<path d="M625.3,35.6c0.2,1,0.9,1.7,1.7,2.1c1.8,0.8,2.8,2.1,3.2,4c0.2,0.7,0.6,1.3,0.9,2C632.6,39.3,630.8,35.4,625.3,35.6z"/>
	<path d="M544.9,94.8c-0.2,0.1-0.5,0.2-0.6,0.4c-3.6,5.7-6.2,11.9-7.3,18.6c-0.1,0.3,0,0.7,0,1.1l-0.1-0.1c0.2-0.1,0.5-0.2,0.6-0.3
		c0.2-0.5,0.5-1.1,0.6-1.7c1.2-5.6,3.5-10.9,6.2-16C544.5,96.2,544.6,95.4,544.9,94.8L544.9,94.8z"/>
	<path d="M569.2,107.6c1.8-3,3.2-7.5,3.3-10.1c-1-0.1-1.1,0.6-1.3,1.3c-0.8,2.7-1.6,5.5-2.4,8.2C568.9,107,569,107.1,569.2,107.6z"
		/>
	<path d="M304.1,162.8c3.4-0.3,7.1-1.8,9.6-3.9c-0.3-0.7-1-0.5-1.5-0.3c-2.7,1.4-5.4,2.9-8.1,4.3L304.1,162.8z"/>
	<path d="M206,172.9c-3.2-0.6-6.4,0.1-9.5,0.4c-0.8,0.1-1.7,0.3-1.7,1.5c1.7,0.9,2.8-0.7,4.4-1.3C201.3,174.3,203.7,174.5,206,172.9
		L206,172.9z"/>
	<path d="M521,125.9c0.4-5.5,0.6-10.7-0.3-15.9c-0.1,0.7-0.2,1.5-0.2,2.2c-0.1,3.3-0.2,6.7-0.2,10C520.2,123.3,520,124.5,521,125.9z
		"/>
	<path d="M318.5,177.3c2.2,1.5,3.9,2.5,6,2.6c0.3,0,0.7-0.3,0.8-0.6c0.1-0.3-0.1-0.7-0.3-0.9c-0.5-0.3-1-0.6-1.6-0.8
		C322,177.2,320.6,177.2,318.5,177.3z"/>
	<path d="M566.9,85.3c2.7,1.9,4.2,2.3,7.6,2.2c0.3-0.8-0.3-1-0.8-1.2c-1.7-0.9-3.5-1.3-5.4-1.3c-0.4,0-0.9,0.3-1.3,0.5L566.9,85.3z"
		/>
	<path d="M618.5,122.1c-0.6,0-1.1-0.1-1.2,0.1c-0.7,1.1-1.4,2.2-2,3.3c-0.6,1.3-1.1,2.6-1.8,4.1c0.4-0.2,0.7-0.2,0.9-0.4
		c0.9-1.3,1.8-2.5,2.5-3.8C617.4,124.4,617.9,123.4,618.5,122.1z"/>
	<path d="M608.4,422.3c-1.6,0.3-2,0.7-3.1,3.1c-0.6,1.4-1.2,2.8-1.8,4.2C605.4,428.4,606.1,427.3,608.4,422.3z"/>
	<path d="M522.6,71.1c2.5-2.3,3.7-5.3,4.6-8.5c-0.3,0.3-0.7,0.5-0.9,0.9C525,66,523.2,68.3,522.6,71.1L522.6,71.1z"/>
	<path d="M347.7,155.3c-2.4-1.3-4,0.3-6.4,1.5c1.9,0.5,3.1,0.4,4.3,0.2c0.6-0.1,1.1-0.4,1.6-0.7
		C347.4,156.1,347.5,155.7,347.7,155.3z"/>
	<path d="M334.2,159.6c-2.4-1.7-3.9-0.3-5.9,0.7C330.5,161.3,332.3,161.7,334.2,159.6z"/>
	<path d="M659,575.1c-0.9-0.1-1.8-0.1-2.7-0.2c-0.9-0.1-1.8-0.3-2.7-0.5C655.8,576.3,656.5,576.5,659,575.1z"/>
	<path d="M669.1,275c-1.9-0.2-3.7-0.4-5.6-0.7C665.1,276,667,276.3,669.1,275z"/>
	<path d="M547,116.3c2.3-1.7,4.1-3.7,5-6.5l0.1,0.1c-0.3,0.2-0.7,0.2-0.9,0.5c-1.3,1.5-2.5,3.1-3.7,4.7
		C547.2,115.4,547.1,115.9,547,116.3L547,116.3z"/>
	<path d="M255.2,174.1c2.1,0.9,3,0.7,4.1-0.9C257.7,172.6,256.3,172.8,255.2,174.1z"/>
	<path d="M266,172.4c-1.9-0.4-3.2-0.1-4.3,0.9c0,0.7,0.5,0.9,0.9,0.8C263.7,173.8,265,173.8,266,172.4z"/>
	<path d="M335.2,159.5c1.6,0.3,2.7,0.1,3.8-0.6c0.4-1-0.2-1.5-1-1.4C336.8,157.7,335.9,158.3,335.2,159.5z"/>
	<path d="M650.1,35.4c-0.1-0.2-0.1-0.5-0.2-0.6c-0.7-0.3-1.5-0.7-2.3-0.8c-0.9-0.1-1.9,0-2.7,1C646.7,35.3,648.4,35.6,650.1,35.4
		L650.1,35.4z"/>
	<path d="M516.9,80.4c-0.2-2.1-0.1-4.3-1.2-6.8C515.6,76.3,515.8,78.4,516.9,80.4L516.9,80.4z"/>
	<path d="M601,437.4c-1.5,1.6-1.5,1.6-1.4,3.7C600.8,440.2,601.2,439,601,437.4z"/>
	<path d="M611.5,137.1c-1.9,1.4-1.9,1.4-2,3.8C611,140.1,610.9,138.8,611.5,137.1z"/>
	<path d="M552,81.5c-0.5-0.2-1-0.5-1.5-0.6c-0.8-0.2-1.4,0.1-1.3,0.6c0.1,0.7,0.6,1,1.2,1C551,82.6,551.7,82.6,552,81.5z"/>
	<path d="M633,205.7c-0.1-1.5-0.2-3-0.3-5c-0.7,1.6-0.9,2.7-0.8,3.9C632,205.2,632.3,205.8,633,205.7L633,205.7z"/>
	<path d="M623,505.9c-0.1-1.5-0.2-3-0.3-5c-0.7,1.6-0.9,2.7-0.8,3.9C621.9,505.4,622.3,505.9,623,505.9L623,505.9z"/>
	<path d="M544.1,119.9c1.3-0.9,2.5-1.9,2.9-3.5l0,0C545.4,117,544.4,118.2,544.1,119.9L544.1,119.9z"/>
	<path d="M588.3,375.8c0.1,0.4,0.1,0.7,0.2,0.9c0.1,0.5,0.3,1,0.9,0.9c0.2,0,0.5-0.5,0.5-0.7c0-0.6-0.3-1.1-1-1.2
		C588.8,375.6,588.6,375.7,588.3,375.8z"/>
	<path d="M618.1,115.6c0,1.1,0,1.9,0,2.6C619.2,117.7,619.2,117.7,618.1,115.6z"/>
	<path d="M612.5,130.7c-0.3,0.5-0.6,0.8-0.8,1.2c-0.1,0.3,0,0.6,0,1.2C612.6,132.5,613.1,131.9,612.5,130.7z"/>
	<path d="M320.2,148.8c-1-0.9-2-0.5-3-0.1C318.5,149.2,318.5,149.2,320.2,148.8z"/>
	<path d="M608,416.3c0,0.6,0,1.2,0,1.7c0,0.2,0.3,0.3,0.5,0.4c0.2-0.2,0.5-0.5,0.5-0.7c0-0.5-0.3-1.1-0.4-1.6
		C608.4,416.2,608.2,416.2,608,416.3z"/>
	<path d="M602.4,430.8c-0.3,0.8-0.6,1.5-1.1,2.9C602.5,432.6,603.2,432.1,602.4,430.8z"/>
	<path d="M552,109.8c1.3-0.5,1.8-1.6,2.2-2.8l0.1,0.1C552.8,107.5,552.2,108.5,552,109.8L552,109.8z"/>
	<path d="M618.6,540.7c0.2,0.2,0.3,0.5,0.5,0.7c0.2-0.2,0.4-0.4,0.6-0.6c-0.2-0.2-0.5-0.5-0.7-0.7
		C618.9,540.3,618.8,540.5,618.6,540.7z"/>
	<path d="M628.6,240.7c0.2,0.2,0.4,0.4,0.7,0.6c0.1-0.2,0.4-0.6,0.4-0.7c-0.1-0.2-0.5-0.4-0.7-0.5
		C628.8,240.2,628.8,240.4,628.6,240.7z"/>
	<path d="M586.3,372.8c-0.3-1.9-0.3-1.9-1.8-1.8C585,371.7,585.4,372.5,586.3,372.8L586.3,372.8z"/>
	<path d="M546.3,92.7c-0.9,0.4-1.3,1.2-1.4,2.1l-0.1-0.1C545.8,94.4,546.1,93.6,546.3,92.7L546.3,92.7z"/>
	<path d="M518.3,89c0.7-0.5,1.4-1.1,1.4-2.1l0.1,0.1C518.7,87.3,518.5,88.2,518.3,89L518.3,89z"/>
	<path d="M536.9,114.8c-0.7,0.6-0.7,1.3-0.2,2.4C536.8,116.2,536.8,115.5,536.9,114.8L536.9,114.8z"/>
	<path d="M554.1,107c0.9-0.5,1.5-1.2,1.3-2.2l0.1,0.1C554.8,105.4,554.1,106,554.1,107L554.1,107z"/>
	<path d="M556.3,104.1c0.8-0.4,1.3-1.2,1.4-2.1l0.1,0.1C556.9,102.5,556.5,103.2,556.3,104.1L556.3,104.1z"/>
	<path d="M621.9,547.7C621.8,548.1,621.8,547.9,621.9,547.7C621.8,547.9,621.8,548.1,621.9,547.7z"/>
	<path d="M646.8,271.5c-0.1,0-0.2,0.1-0.3,0.1c0.1,0.2,0.3,0.5,0.4,0.7c0.1-0.1,0.2-0.2,0.2-0.3C647,271.8,646.9,271.7,646.8,271.5z
		"/>
	<path d="M565.6,44.6c0.3-0.2,0.5-0.3,0.8-0.5c0.1-0.1,0-0.4,0-0.5c-0.2,0-0.5,0-0.5,0.2C565.7,44,565.7,44.4,565.6,44.6L565.6,44.6
		z"/>
	<path d="M636.7,571.6c-0.1,0-0.2,0.1-0.3,0.1c0.2,0.2,0.3,0.5,0.5,0.7c0.1-0.1,0.2-0.2,0.2-0.3C637,572,636.8,571.8,636.7,571.6z"
		/>
	<path d="M631.9,247.5C631.9,247.9,631.9,247.7,631.9,247.5C631.9,247.7,631.9,247.9,631.9,247.5z"/>
	<path d="M608.4,411.6c0.1,0.1,0.3,0.2,0.4,0.4c0.1-0.2,0.2-0.3,0.2-0.5c0-0.1-0.2-0.2-0.2-0.2C608.7,411.4,608.5,411.5,608.4,411.6
		z"/>
	<path d="M619.1,111.6c-0.1-0.1-0.2-0.3-0.3-0.4c-0.1,0.2-0.2,0.3-0.3,0.5c0,0,0.2,0.2,0.2,0.2C618.8,111.8,618.9,111.6,619.1,111.6
		z"/>
	<path d="M536,119.9c0-0.3,0-0.6-0.1-0.9c0,0-0.1,0-0.1,0c0,0.3,0.1,0.6,0.1,0.9C535.9,119.9,535.9,119.9,536,119.9z"/>
	<path d="M611.7,461.6c0.2-0.7,0.3-0.9,0.3-1.2c0-0.1-0.2-0.2-0.4-0.3c-0.1,0.1-0.2,0.2-0.2,0.2
		C611.5,460.6,611.6,460.9,611.7,461.6z"/>
	<path d="M308.2,147.4c-0.2,0-0.4,0.1-0.6,0.1c0.2,0.1,0.3,0.3,0.5,0.3c0.1,0,0.3-0.2,0.4-0.3C308.4,147.5,308.3,147.4,308.2,147.4z
		"/>
	<path d="M622,161c0-0.4,0-0.8,0-1.2c-0.1,0-0.3,0-0.4,0c0,0.4,0.1,0.8,0.1,1.2C621.8,161,621.9,161,622,161z"/>
	<path d="M301.9,163.5c0.8-0.1,1.7,0.2,2.2-0.7l0.1,0.1C303.5,163.1,302.8,163.4,301.9,163.5L301.9,163.5z"/>
	<path d="M649.7,573.7c0.2,0,0.3,0.1,0.4,0.1c0,0,0.1-0.1,0.1-0.1C650.1,573.6,650,573.7,649.7,573.7z"/>
	<path d="M611.7,501.3c0,0.1-0.1,0.2-0.1,0.3c0,0.1,0.1,0.2,0.2,0.3C611.8,501.7,611.7,501.5,611.7,501.3z"/>
	<path d="M623.1,505.8c0,0.3,0,0.5,0,0.3C623.2,506.4,623.1,506.1,623.1,505.8L623.1,505.8z"/>
	<path d="M610.2,495c0.1,0.2,0.2,0.4,0.2,0.6c0.1-0.1,0.2-0.2,0.2-0.3c0-0.2-0.1-0.4-0.2-0.6C610.3,494.9,610.2,495,610.2,495z"/>
	<path d="M610.9,456.8c0.1,0,0.1,0,0.2,0.1c0-0.1,0.1-0.2,0.1-0.3c-0.1,0-0.2-0.1-0.3-0.1C610.9,456.5,610.9,456.7,610.9,456.8z"/>
	<path d="M660.3,273.6c0,0-0.1-0.1-0.1-0.1c-0.1,0-0.2,0-0.3,0.1c0,0.1,0.1,0.1,0.1,0.1C660.1,273.6,660.2,273.6,660.3,273.6z"/>
	<path d="M633.1,205.7c0,0.3,0,0.5,0,0.3C633.2,206.2,633.1,206,633.1,205.7L633.1,205.7z"/>
	<path d="M621.6,201.5c0.1,0,0.1,0.1,0.2,0.1c0-0.1,0.1-0.2,0.1-0.3c0,0-0.1-0.1-0.2-0.1C621.7,201.3,621.7,201.4,621.6,201.5z"/>
	<path d="M620.4,195.5c0.1-0.1,0.2-0.2,0.2-0.3c0-0.2-0.1-0.4-0.2-0.6c-0.1,0.1-0.2,0.2-0.2,0.3
		C620.2,195.1,620.3,195.3,620.4,195.5z"/>
	<path d="M192.6,187.5c0.1,0.1,0.2,0.4,0.3,0.4c0.2,0,0.4-0.1,0.6-0.2c-0.1-0.1-0.2-0.3-0.3-0.3C193,187.3,192.8,187.4,192.6,187.5z
		"/>
	<path d="M205.9,172.8c0.2-0.1,0.4-0.1,0.6-0.2c-0.1,0-0.2,0-0.3,0.1C206.1,172.8,206,172.9,205.9,172.8L205.9,172.8z"/>
	<path d="M621,156.6c0.1,0,0.1,0,0.2,0.1c0-0.1,0.1-0.2,0.1-0.3c-0.1,0-0.2-0.1-0.3-0.1C620.9,156.4,620.9,156.5,621,156.6z"/>
	<path d="M517,80.4c0,0.2,0,0.5,0,0.7c0,0.1,0.2,0.2,0.3,0.2c0-0.1,0-0.2,0-0.3C517.2,80.8,517,80.6,517,80.4L517,80.4z"/>
	<path d="M605.1,69.8c-0.1,0-0.2,0-0.3,0C604.9,69.8,605,69.8,605.1,69.8L605.1,69.8z"/>
	<polygon points="522.7,71.2 522.5,71.3 522.6,71.1 	"/>
	<polygon points="517.6,89.8 517.4,90 517.5,89.7 	"/>
	<polygon points="548.5,90.5 548.6,90.4 548.6,90.6 	"/>
	<path d="M517.5,89.7c0.3-0.2,0.6-0.5,0.8-0.7l0.1,0.1C518.1,89.3,517.9,89.6,517.5,89.7L517.5,89.7z"/>
	<path d="M556.3,84.1c0-0.1-0.1-0.1-0.1-0.2C556.2,83.9,556.3,84,556.3,84.1L556.3,84.1z"/>
	<path d="M564.2,46.1c-0.5,0-0.8,0.2-0.7,0.7c0,0-0.1-0.1-0.1-0.1C563.9,46.8,564.2,46.6,564.2,46.1L564.2,46.1z"/>
	<path d="M564.1,46.1c0.5,0,0.8-0.2,0.7-0.7l0.1,0.1C564.4,45.4,564.1,45.6,564.1,46.1C564.2,46.1,564.1,46.1,564.1,46.1z"/>
	<path d="M564.8,45.3c0.5,0.1,0.8-0.2,0.7-0.7l0.1,0.1C565.1,44.6,564.9,44.9,564.8,45.3L564.8,45.3z"/>
	<path d="M302,163.6C301.8,163.8,301.9,163.6,302,163.6L302,163.6z"/>
	<path d="M359.3,139.9c0.1,0.1,0.1,0.2,0.2,0.3C359.4,140.1,359.3,140,359.3,139.9L359.3,139.9z"/>
	<path d="M555.5,104.7c0.5,0.1,0.7-0.2,0.8-0.7l0.1,0.1C556.1,104.4,555.8,104.6,555.5,104.7L555.5,104.7z"/>
	<path d="M557.6,101.9c0.1,0,0.2-0.1,0.3-0.1C557.8,101.9,557.8,102,557.6,101.9L557.6,101.9z"/>
	<path d="M559.1,99.9c-0.1,0.1-0.2,0.1-0.3,0.2C558.9,100,559,99.9,559.1,99.9L559.1,99.9z"/>
	<polygon points="559.1,99.8 559.2,99.7 559.1,99.9 	"/>
	<polygon points="560.6,97.7 560.4,97.9 560.5,97.7 	"/>
	<polygon points="560.5,97.7 560.7,97.6 560.6,97.7 	"/>
	<path d="M546.2,92.6c0.3-0.2,0.5-0.4,0.8-0.6l0.1,0.1C546.8,92.3,546.5,92.5,546.2,92.6L546.2,92.6z"/>
	<path d="M546.9,92c0.3-0.2,0.5-0.4,0.8-0.7l0.1,0.1C547.5,91.6,547.3,91.8,546.9,92L546.9,92z"/>
	<path d="M548.6,90.6c-0.3,0.3-0.5,0.5-0.8,0.8l-0.1-0.1C548,91,548.2,90.8,548.6,90.6L548.6,90.6z"/>
	<polygon points="543.4,120.7 543.3,120.7 543.3,120.6 	"/>
	<path d="M543.3,120.6c0.3-0.2,0.5-0.5,0.8-0.7l0.1,0.1C544,120.2,543.7,120.5,543.3,120.6L543.3,120.6z"/>
	<path d="M586.4,372.7c0,0.1,0.1,0.1,0.1,0.2C586.4,372.9,586.4,372.8,586.4,372.7L586.4,372.7z"/>
	<path d="M442.4,397.8c5.3-3.2,10.2-6.1,15.1-9c0.2-0.1,0.4-0.2,0.6-0.4c0.6-0.5,0.9-1.1,0.7-1.9c-0.2-0.8-0.7-1.3-1.4-1.5
		c-0.6-0.1-1.2-0.2-1.7-0.1c-1,0.3-2.1,0.6-3,1.1C448.6,388.3,444.8,392.6,442.4,397.8z"/>
	<path d="M493.2,407.2c0.2,0.3,0.4,0.6,0.6,0.8c4.2,2.7,8.5,5.3,13.1,7.2c5,2,9.9,4,15.2,5.2c2.5,0.6,5.1,1.2,7.7,0.7
		c-1.2-0.3-2.4-0.6-3.6-0.8c-10.5-2.2-20.3-5.9-29.4-11.5c-1.1-0.7-2.1-1.6-3.5-1.7L493.2,407.2z"/>
	<path d="M474.7,386.4c0.8-0.1,1.7-0.1,2.4-0.4c2.2-0.8,4.5-1.6,6.6-2.6c3.5-1.6,6.9-3.2,10.6-3.7c0.3-0.7,0.2-1.1-0.4-1.2
		c-0.8-0.1-1.7-0.3-2.4-0.1c-1.5,0.3-3,0.7-4.4,1.4c-4,1.9-7.9,4-11.8,6C475.1,385.8,474.9,386.2,474.7,386.4L474.7,386.4z"/>
	<path d="M514,430.8c-2.1,0.5-4.1,1-6.2,1.5c-5.9,1.5-11.8,2.5-17.8,3c-0.3,0-0.6,0.1-1.4,0.3c2,0.1,3.4,0.2,5.2,0.4
		c-0.8,0.6-1.3,1-1.8,1.4l-0.1-0.1c0.9-0.1,1.9-0.1,2.8-0.3c5.5-1.4,11-2.8,16.5-4.2c0.9-0.2,1.8-0.7,2.6-1.1
		c0.2-0.1,0.2-0.6,0.3-0.9L514,430.8z"/>
	<path d="M449.5,419.2c0.6,0,1.2,0.1,1.8,0c4.6-1,9.2-0.7,13.8-0.8c3,0,5.9,0,8.9,0c0.7,0,1.4-0.1,2.1-0.1c-0.2-1-0.9-0.8-1.5-0.8
		c-5.3,0.1-10.7-0.3-16,0.3c-2.6,0.3-5.2,0.2-7.7,1C450.4,418.9,450,419.1,449.5,419.2L449.5,419.2z"/>
	<path d="M493.2,427.2c-4.6-1.1-15.6-0.9-27.7,0.3c2.6,0.6,7.2,0.5,13.8,0.1C483.9,427.3,488.6,427.3,493.2,427.2z"/>
	<path d="M497.5,397c1.3,0.3,2.3-0.5,3.3-1c3.7-2,7.3-4,10.9-6.1c2.3-1.3,4.6-2.5,6.8-3.9c0.5-0.3,0.8-0.8,1.2-1.2l0.1,0.1
		c-1.3-0.2-2.2,0.6-3.2,1.2c-4.9,2.8-9.9,5.6-14.8,8.4C500.3,395.4,499,396.3,497.5,397L497.5,397z"/>
	<path d="M517.8,397.1c6.3-1.7,15.4-6.7,18.2-9.7c-0.2-0.1-0.5-0.2-0.6-0.2C529.7,390.4,524,393.6,517.8,397.1z"/>
	<path d="M506.2,381.4c-0.6,0-1.2-0.1-1.7,0.2c-5.2,2.5-10.4,5.1-15.6,7.6c-0.3,0.1-0.4,0.5-0.6,0.8l-0.1-0.1c0.6-0.1,1.2,0,1.7-0.3
		c5.3-2.6,10.5-5.2,15.8-7.8C505.8,381.7,505.9,381.5,506.2,381.4L506.2,381.4z"/>
	<path d="M445.2,380.6c-0.6,0-1.2,0-1.7,0.2c-4.2,1.3-8.3,2.7-12.5,4.1c-0.6,0.2-1.1,0.6-1.6,1.3c0.8-0.2,1.6-0.3,2.3-0.5
		c3.8-0.8,7.5-2.1,11.1-3.7C443.7,381.7,444.7,381.5,445.2,380.6L445.2,380.6z"/>
	<path d="M489,339.1c-0.3,0-0.8-0.1-1,0.1c-3.3,2.1-6.2,4.6-9.2,7.5c0.7,0.1,1.1,0.3,1.3,0.2c3.2-2.2,6.2-4.6,8.9-7.4
		C488.9,339.3,488.9,339.2,489,339.1L489,339.1z"/>
	<path d="M466.7,385c-0.2-0.3-0.3-0.6-0.6-0.7c-2.9-1-5.7-2.4-8.2-4.1c-0.2-0.2-0.6-0.1-1-0.2c1,1.7,1,1.8,2.9,2.8
		C461.9,383.9,464.1,385.3,466.7,385L466.7,385z"/>
	<path d="M574.8,324.6c2.3,0.3,4.5,0.3,6.8,0.3c0.6,0,1.1-0.1,1.9-0.2c-0.2-0.5-0.3-0.9-0.5-1c-2.6-0.8-5.1-1-7.6,0.2
		C575.1,324,575,324.2,574.8,324.6z"/>
	<path d="M461.1,365.8c7.4,1.7,8.8,2.6,11.4,1.6C465.2,365.5,464.5,365.4,461.1,365.8z"/>
	<path d="M442.5,371.5c-1.8-0.1-3.6,0-5.3-0.3c-1.6-0.2-3.2-0.8-5.5-0.3C435.6,371.7,439,372.4,442.5,371.5z"/>
	<path d="M554.2,365c-0.9-2-2.2-2.8-3.5-3.5c-0.4-0.2-0.9-0.1-1.5-0.1C550.8,363.3,551,363.5,554.2,365z"/>
	<path d="M527.3,375.1c0.4-2.2,0.9-4.5,1.7-6.9C526.5,370.1,526.3,371.3,527.3,375.1z"/>
	<path d="M558.1,368.7c0.2,0.3,0.2,0.5,0.3,0.5c1.2,0.6,2.5,1.2,3.7,1.8c0.7-0.8,0.1-1.2-0.3-1.5C560.8,368.6,559.7,368,558.1,368.7
		z"/>
	<path d="M491.9,437.3c-2.4,0.2-6.4,1.2-8.6,2.2l-0.1-0.1C486.4,439.2,489.4,438.4,491.9,437.3L491.9,437.3z"/>
	<path d="M536.7,373.2c-1.7,1.8-1.4,3.3-1.1,4.7c0.1,0.3,0.5,0.6,1,1.1C537,377.1,536.8,375.5,536.7,373.2z"/>
	<path d="M449,355.4c1.5-0.2,2.6-0.4,3.7-0.5c1.1-0.1,2.2-0.2,3.4-0.2c-0.3-0.9-1-0.9-1.5-0.8C452.9,354.2,450.9,353.7,449,355.4z"
		/>
	<path d="M545.9,356.6c-0.4-1.4-0.9-2.6-2.9-2.4C543.6,355.6,544.6,356.3,545.9,356.6z"/>
	<path d="M472.5,389.9c1.6,1.4,2.5,1.8,5,2.2l-0.1,0.1C476.1,390.6,474.4,390.1,472.5,389.9L472.5,389.9z"/>
	<path d="M457.8,391.1c0.9-0.7,1.9-1.4,2.9-2.1c-0.9-0.7-1.7-0.5-2.3,0C457.9,389.5,457.2,390.1,457.8,391.1z"/>
	<path d="M489.7,404.9c0.7,1.4,2,2,3.5,2.3l0.1-0.2C492.4,405.8,491.2,405.1,489.7,404.9L489.7,404.9z"/>
	<path d="M460.4,428.3c0.8,0,1.6,0,2.4,0c0-0.1,0-0.1,0-0.2c-0.4,0-0.7-0.1-1.1-0.1c-0.4,0-0.9,0.1-1.3,0.1
		C460.4,428.2,460.4,428.3,460.4,428.3z"/>
	<path d="M472.5,390c-0.6-1-1.5-1.3-2.6-1.7C470.6,389.7,470.6,389.7,472.5,390L472.5,390z"/>
	<path d="M477.5,392.1c0.6,1.1,1.7,1.4,2.9,1.4l-0.1,0.1C479.7,392.3,478.7,392,477.5,392.1L477.5,392.1z"/>
	<path d="M493.5,337.5c0.4-0.4,0.7-0.8,1.1-1.2c-0.1-0.1-0.2-0.2-0.3-0.3c-0.2,0.1-0.5,0.2-0.7,0.4c-0.2,0.2-0.4,0.5-0.6,0.8
		C493.2,337.3,493.4,337.4,493.5,337.5z"/>
	<path d="M483.3,436.1c0.1,0,0.1,0.1,0.2,0.1c0.2,0,0.5,0,0.7,0c0,0,0.1-0.1,0.1-0.2c-0.2,0-0.5,0-0.7,0
		C483.6,436.1,483.4,436.1,483.3,436.1z"/>
	<path d="M483.3,439.4c-0.8,0.1-1.5,0.1-2.6,0.2C481.9,440.1,482.7,440.2,483.3,439.4L483.3,439.4z"/>
	<path d="M560.1,330.8c0.5,0.5,0.8,0.2,1.1-0.1c0.1-0.1,0.1-0.2,0.1-0.3c-0.2-0.1-0.4-0.3-0.5-0.2
		C560.6,330.3,560.4,330.6,560.1,330.8z"/>
	<path d="M501.8,332.4c-0.6-0.5-1-0.3-1.4,0c-0.2,0.1-0.2,0.4-0.3,0.6c0.2,0.1,0.5,0.2,0.6,0.2C501.1,332.9,501.4,332.6,501.8,332.4
		z"/>
	<path d="M486.2,402.7c0.2,1.1,1.1,1.3,2,1.6l-0.1,0.1C487.9,403.2,486.9,403.2,486.2,402.7L486.2,402.7z"/>
	<path d="M541.6,364c0.1,0.1,0.3,0.3,0.4,0.4c0.1-0.2,0.2-0.3,0.2-0.5c0,0-0.2-0.2-0.2-0.2C541.9,363.8,541.8,363.9,541.6,364z"/>
	<path d="M516.1,430c-0.7,0.2-1.4,0.5-2.1,0.7l-0.1-0.1C514.7,430.7,515.6,431,516.1,430L516.1,430z"/>
	<path d="M516,430c0.2,0,0.5-0.1,0.7-0.1C516.5,429.9,516.3,430,516,430L516,430z"/>
	<path d="M488.2,404.3c0.4,0.5,0.9,0.8,1.5,0.6l-0.1,0.1C489.4,404.1,488.8,404.2,488.2,404.3L488.2,404.3z"/>
	<path d="M497.6,397.1c-0.5,0.2-1,0.5-1.4,0.7l-0.1-0.1C496.7,397.7,497.3,397.9,497.6,397.1L497.6,397.1z"/>
	<path d="M486.1,402.8c-0.5-0.2-1-0.4-1.5-0.7l0.1-0.1C485,402.9,485.6,402.7,486.1,402.8L486.1,402.8z"/>
	<path d="M488.3,390c-0.6,0-1.1,0.1-1.4,0.7l-0.1-0.1C487.3,390.6,488,390.8,488.3,390L488.3,390z"/>
	<path d="M521.3,384.3c-0.6-0.1-1.3-0.2-1.5,0.7l-0.1-0.1C520.4,385,520.9,384.9,521.3,384.3L521.3,384.3z"/>
	<path d="M480.4,393.5c0.3,0.8,0.9,0.7,1.5,0.6l0,0.1C481.3,394,480.8,393.8,480.4,393.5L480.4,393.5z"/>
	<path d="M506.1,381.3c0.3-0.1,0.6-0.2,1-0.2C506.6,380.7,506.3,380.8,506.1,381.3L506.1,381.3z"/>
	<path d="M445.1,380.6c0.3-0.1,0.6-0.1,0.4-0.1C445.7,380.3,445.5,380.5,445.1,380.6L445.1,380.6z"/>
	<path d="M474.7,386.4c-0.2,0-0.4,0.1-0.6,0.1C474.3,386.5,474.5,386.4,474.7,386.4L474.7,386.4z"/>
	<path d="M494.6,398.5c-0.3,0.1-0.5,0.2-0.3,0.1C494.2,398.8,494.3,398.6,494.6,398.5L494.6,398.5z"/>
	<path d="M494.5,398.4c0.6-0.1,1.3,0.2,1.5-0.7l0.1,0.1C495.6,398.1,495.1,398.3,494.5,398.4L494.5,398.4z"/>
	<path d="M466.7,384.9c0.1,0.1,0.3,0.3,0.4,0.4c0.1,0,0.3-0.1,0.4-0.2c-0.1,0-0.2-0.1-0.3-0.1C467.1,385,466.9,385,466.7,384.9
		L466.7,384.9z"/>
	<polygon points="530.1,364.1 530.2,364.4 530.2,364.1 	"/>
	<polygon points="478.7,440.5 479,440.5 479,440.3 	"/>
	<path d="M569.9,327.3c0,0-0.1-0.1-0.1-0.1c-0.1,0-0.2,0-0.3,0c0,0.1,0.1,0.1,0.1,0.1C569.8,327.4,569.9,327.3,569.9,327.3z"/>
	<path d="M486.8,390.6c-0.1,0.1-0.2,0.2-0.3,0.3c0.1,0,0.1-0.1,0.2-0.1C486.7,390.8,486.7,390.7,486.8,390.6L486.8,390.6z"/>
	<polygon points="481.8,394.1 481.9,394.3 481.8,394.2 	"/>
	<polygon points="484.7,402.1 484.5,402 484.7,402.1 	"/>
	<path d="M449.6,419.3c-0.1,0.1-0.2,0.1-0.3,0.2C449.4,419.4,449.4,419.3,449.6,419.3L449.6,419.3z"/>
	<path d="M488.9,339c0.2-0.1,0.4-0.2,0.5-0.2C489,338.4,489,338.7,488.9,339L488.9,339z"/>
	<path d="M576.8,454c-1.4,2.5-2.6,5.1-4.2,7.4c-1.5,2.4-3.4,4.5-5.2,7c0.4,0,0.8,0.1,1.1,0c1-0.7,2-1.3,2.8-2.2
		c2.9-3.1,4.8-6.8,6.1-10.8c0.1-0.4,0-0.9,0-1.3C577.2,454.1,577,454.1,576.8,454z"/>
	<path d="M573.5,434.5c-2.2-1.9-5-2.3-7.7-3.1c-1.7-0.5-1.8-0.4-3.7,0.3c0.1,0.2,0.1,0.5,0.3,0.6c3,1.1,6,2.2,9,3.2
		C572.2,435.8,573.1,435.8,573.5,434.5z"/>
	<path d="M491.6,531.7c1.6-2,3.8-3.4,5.2-5.8c-2.2,0.2-3.4,1-4.9,3.1C491.3,529.7,490.6,530.5,491.6,531.7z"/>
	<path d="M542.7,478.5c-1.5,0.6-2.5,2-3.5,3.3c1.5,0,2-0.3,3.6-2.1C543.1,479.3,543.4,478.9,542.7,478.5z"/>
	<path d="M500.7,519.1c1.1-0.6,1.7-1.6,2-2.7C501,516.3,500.5,517,500.7,519.1z"/>
	<path d="M554,430.8c1.1,0.9,1.9,1,2.8,0.4c0-0.2,0.1-0.6,0-0.7C555.7,430,555.7,430,554,430.8z"/>
	<path d="M564.6,470.6c-1.1,0.5-1.5,1.1-0.9,2.1C564.7,472.2,565.3,471.7,564.6,470.6z"/>
	<path d="M552.4,481.6c0.6-0.4,1.1-0.8,1.8-1.3C552.5,480,552.3,480.1,552.4,481.6z"/>
	<path d="M510,509.9c0.1,0,0.2,0.1,0.3,0c0.6-0.2,1-0.6,0.9-1.3c0-0.2-0.5-0.5-0.7-0.4c-0.7,0.2-0.7,0.8-0.7,1.4
		C509.8,509.8,509.9,509.8,510,509.9z"/>
	<path d="M559.9,476.7c-0.6,0.2-1.3,0.4-2.6,0.8C559,477.5,559,477.5,559.9,476.7L559.9,476.7z"/>
	<path d="M548.8,430.2c0.2,0,0.4,0.1,0.6,0.1c0-0.2,0-0.4-0.1-0.5c0-0.1-0.3-0.1-0.3-0.1C548.9,429.9,548.9,430.1,548.8,430.2z"/>
	<path d="M579.1,436c-0.1,0.2-0.2,0.4-0.1,0.5c0.1,0.1,0.4,0.2,0.6,0.3c0.1-0.2,0.2-0.5,0.2-0.6C579.6,436.1,579.3,436.1,579.1,436z
		"/>
	<path d="M531.6,487c-1.7-0.3-1.7-0.3-1.3,1.2C530.8,487.8,531.1,487.5,531.6,487z"/>
	<path d="M576.9,442.5c-0.1,0-0.2,0.1-0.3,0.1c0.1,0.1,0.2,0.2,0.4,0.2c0,0,0.1-0.1,0.1-0.2C577.1,442.6,577,442.5,576.9,442.5z"/>
	<path d="M543.6,429.7c0.1,0.1,0.2,0.2,0.2,0.2c0.1,0,0.1-0.1,0.2-0.2c-0.1-0.1-0.2-0.2-0.2-0.2
		C543.7,429.5,543.6,429.6,543.6,429.7z"/>
	<path d="M559.8,476.6c0.1,0,0.2-0.1,0.3-0.1C560.1,476.5,560,476.6,559.8,476.6L559.8,476.6z"/>
	<path d="M535.4,483.7c0.1-0.1,0.3-0.1,0.4-0.2c-0.1,0-0.1,0-0.2,0C535.6,483.6,535.6,483.7,535.4,483.7L535.4,483.7z"/>
	<path d="M535.5,483.8c-0.1,0.1-0.2,0.2-0.3,0.3c0.1,0,0.1-0.1,0.2-0.1C535.4,483.9,535.4,483.8,535.5,483.8L535.5,483.8z"/>
	<path d="M678.1,364.7c-0.9,0.1-1.3,0-1.5,0.2c-1,1-2,2-2.9,3.1c-1.4,1.6-2.7,3.3-4,5c-1.5,1.9-3.2,3.5-5.3,4.7
		c-0.6,0.3-1.1,0.8-1.9,1.4c0.6,0.2,0.9,0.3,1.2,0.3c2.1-0.7,3.8-1.9,5.3-3.5c1.6-1.8,3.2-3.5,4.7-5.4
		C674.9,368.8,676.3,367,678.1,364.7z"/>
	<path d="M711.7,383.6c0.2-0.8,0.5-1.5,0.7-2.3c-0.9-0.7-1.9-1.2-2.6-2c-0.8-0.8-1.3-1.9-3-2.1c0.5,1.1,1,1.8,1.2,2.7
		c0.3,0.9,0.3,1.8,0.4,2.9c1.1,0.3,2.3,0.5,3.4,0.8L711.7,383.6z"/>
	<path d="M651.9,367.8c2.6-1.5,5-3.3,7.7-5.8c-2.5,0.4-3.9,1.4-5.3,2.4C652.7,365.7,652.6,365.9,651.9,367.8z"/>
	<path d="M668.2,354.3c-2.2,1.3-2.2,1.3-2.8,3c1.3-0.8,2.2-1.6,3-2.6C668.5,354.7,668.3,354.5,668.2,354.3z"/>
	<path d="M653.9,347.3c-0.1-0.1-0.1-0.2-0.2-0.2c-0.6-0.3-1.5-0.1-1.8,0.4c0,0.1,0,0.2,0.1,0.3c0.3,0.5,1.2,0.4,1.8-0.2
		C653.9,347.6,653.9,347.4,653.9,347.3z"/>
	<path d="M647.9,347.3c0.1,0.1,0.1,0.2,0.2,0.2c0.5,0,1.1,0,1.6-0.1c0,0,0-0.1,0.1-0.2c-0.5,0-1.1-0.1-1.6-0.1
		C648.1,347.1,648,347.2,647.9,347.3z"/>
	<path d="M663.8,359.3c-0.3,0.1-0.6,0.2-0.8,0.4c-0.2,0.1-0.2,0.4-0.3,0.6C663.7,360.8,663.7,360,663.8,359.3z"/>
	<path d="M674.5,374.9c-0.2,0.5-0.4,1-0.7,1.5l-0.1-0.1C674,375.8,674.2,375.3,674.5,374.9L674.5,374.9z"/>
	<polygon points="673.9,376.4 673.6,376.5 673.8,376.3 	"/>
	<path d="M722.4,369.2C722.7,369.5,722.3,369.1,722.4,369.2L722.4,369.2z"/>
	<path d="M408.8,132.1c-0.3,0.2-0.6,0.3-0.8,0.5c-0.7,0.8-1.3,1.7-1.9,2.6c-3.3,5-7.5,9.2-12.8,12.2c-2.2,1.3-4.2,2.7-6.2,4.2
		c-4.1,2.9-6.5,6.9-7.7,11.7c-0.3,1.2-0.5,2.3-0.7,3.5c-0.5,2.4-1,4.9-1.5,7.3c-0.2,1-0.4,2-0.6,3.2c2.7-0.7,3.8-1.9,4.2-4.3
		c0.3-2,0.4-4,0.6-6c0.1-1.3,0.2-2.6,0.5-3.9c0.7-3.4,2.2-6.3,4.9-8.5c1.9-1.5,3.8-2.9,5.7-4.2c1.7-1.3,3.5-2.5,5.3-3.7
		c4.9-3.5,8-8.4,10.9-13.5C408.8,132.8,408.7,132.4,408.8,132.1L408.8,132.1z"/>
	<path d="M421.1,96.2c0.7,0,1.2,0.1,1.6,0c1.2-0.5,2.4-1.1,3.5-1.8c2.5-1.6,4.9-3.3,7.4-5.1c2.4-1.7,4.4-3.6,5.6-6.4
		c0.5-1,1.2-1.8,2.2-2.3c1.8-1,3.6-2,5.4-2.7c3.7-1.4,7.4-2.5,11.1-3.8c0.7-0.2,1.3-0.4,1.9-0.6c0.1-0.8-0.2-1.1-0.7-1.1
		c-0.9,0-1.9,0-2.8,0.3c-4.9,1.5-9.7,3.3-14.1,5.9c-1.8,1.1-3.5,2.4-4.5,4.4c-1,2-2.8,3.6-4.7,4.8c-3.7,2.4-7,5.3-11.1,7.2
		C421.6,95.4,421.5,95.7,421.1,96.2z"/>
	<path d="M481.9,94c-2.8-0.2-5,1-7.3,1c-2.3,0-4.5,0.4-6.7,0.4c-2.4,0-4.7-0.3-7.1-0.6c-2.2-0.3-4.4-0.8-6.8-1.3
		c0.7,1.4,2,1.7,3,1.9c2.4,0.6,4.9,1.2,7.3,1.5c4.6,0.5,9.3,0.5,13.8-0.6c1-0.3,2-0.6,3-1C481.4,95.1,481.6,94.6,481.9,94z"/>
	<path d="M485.8,92.5c0.4-2.8-1.1-4.9-2.2-7.3c-0.2,0.7-0.4,1.3-0.6,2c-2.7-1.3-5.3-2.2-8.7-2.4c3.4,1.6,6.3,3,9,4.3
		C484.2,90.4,484.1,92,485.8,92.5z"/>
	<path d="M500.3,129.1c0.8-0.8,1.3-1.3,1.8-1.7c-0.2-1.6-1.7-1.4-2.3-2.2c-0.3-1,1.2-2.4-0.9-3c-0.3,0.4-0.5,0.9-0.8,1.3
		c-0.3,0.5-0.7,0.9-1,1.4c-0.4,0.8-0.1,1.5,0.8,2C498.4,127.1,499.8,128.4,500.3,129.1z"/>
	<path d="M406.5,168.6c3.3-1.2,5.7-3.5,7.2-6.7c0.1-0.2-0.1-0.4-0.1-0.7c-0.2,0.1-0.5,0-0.5,0.2c-1.5,2.4-3.6,4.3-5.7,6.2
		C407,167.9,406.9,168.3,406.5,168.6L406.5,168.6z"/>
	<path d="M483.9,133.5c2.2-0.3,3.9-1.7,5.5-3.1c0.4-0.3,0.4-0.9-0.1-1.2c-0.2-0.2-0.8-0.2-0.9-0.1
		C486.8,130.4,484.9,131.5,483.9,133.5L483.9,133.5z"/>
	<path d="M488.3,101.3c-0.5-0.6-1.1-1.2-1.7-1.8c-0.2,1.5-0.3,2.8-0.4,4.1c0,0.1,0,0.3,0,0.3c0.3,0.3,0.6,0.8,0.9,0.9
		c0.5,0.2,1-0.2,1-0.7C488.2,103.1,488.2,102.2,488.3,101.3L488.3,101.3z"/>
	<path d="M487.5,84c0.7-0.3,1.1-0.8,0.8-1.8c-1.3-0.4-2.6-0.6-3.5,0.8c0.3,1.3,1.4,0.8,2.1,1l-0.1,0.1C487,83.7,487.3,83.8,487.5,84
		L487.5,84z"/>
	<path d="M493.5,111.3c-0.2-1.2-0.5-2.2-1.9-2.6c-0.3,1.2,0,2.1,1,2.7C492.7,111.5,493.1,111.4,493.5,111.3z"/>
	<path d="M410.3,127.9c-1.2,1.2-1.5,2.6-1.5,4.2l-0.1-0.1c0.2-0.2,0.6-0.4,0.7-0.7C409.7,130.2,409.9,129,410.3,127.9L410.3,127.9z"
		/>
	<path d="M497.2,116.7c-0.4,0-0.5,0-0.6,0c-0.5,0.2-1.1,0.5-1,1.2c0,0.1,0.1,0.2,0.2,0.2c0.7,0.1,1-0.4,1.2-0.9
		C497.1,117.1,497.1,117,497.2,116.7z"/>
	<path d="M494.1,130.4c0.4,1.5,0.6,2.3,0.9,3.4c0.2-0.4,0.4-0.5,0.4-0.6C495.5,131.8,495.5,131.8,494.1,130.4z"/>
	<path d="M486.8,84c-0.2,0.5-0.3,1.1-0.6,1.8c0.5,0.1,1,0.2,1.6,0.4c-0.1-0.9-0.3-1.5-0.4-2.2l0.1,0.1c-0.3,0-0.6,0-0.9,0L486.8,84z
		"/>
	<path d="M490,88.7c-0.8-0.2-1.4-0.4-2.3-0.7c0,0.4,0,0.9,0.1,0.9c0.6,0.1,1.1,0.1,1.7,0.1C489.6,89.1,489.7,88.9,490,88.7z"/>
	<path d="M494.5,113.9c-1.4,0.5-1.4,0.5-1,1.5C493.9,114.9,494.2,114.4,494.5,113.9z"/>
	<path d="M419.5,112.7c0.2-0.5,0.4-0.9,0.6-1.4l0.1,0.1C420,111.8,419.8,112.3,419.5,112.7L419.5,112.7z"/>
	<path d="M484,133.5c-0.5,0.2-1,0.4-1.5,0.6l-0.1-0.1C483,134.1,483.6,134.2,484,133.5L484,133.5z"/>
	<path d="M406.6,168.6c-0.1,0-0.2-0.1-0.3-0.1c-0.2,0-0.4,0.1-0.6,0.2c0.1,0.1,0.2,0.3,0.2,0.4C406.2,168.9,406.4,168.8,406.6,168.6
		L406.6,168.6z"/>
	<path d="M481.9,135c-0.3,0-0.5,0.1-0.3,0c-0.2,0.1,0,0,0.2-0.1L481.9,135z"/>
	<path d="M415.8,117.7c-0.2,0.5-0.4,0.9-0.6,1.4l-0.1-0.1C415.3,118.6,415.5,118.1,415.8,117.7L415.8,117.7z"/>
	<path d="M415.2,119.1c-0.2,0.5-0.4,1-0.6,1.6l-0.1-0.1C414.7,120.1,414.9,119.6,415.2,119.1L415.2,119.1z"/>
	<path d="M488.9,94.1c-0.1-0.3-0.2-0.6-0.3-1C488.2,93.7,488.4,93.9,488.9,94.1L488.9,94.1z"/>
	<path d="M413,122.7c0.2-0.5,0.4-1,0.6-1.4l0.1,0.1C413.1,121.7,413.1,122.3,413,122.7L413,122.7z"/>
	<path d="M412.3,123.5c-0.2,0.5-0.5,0.9-0.7,1.4l-0.1-0.1c0.9-0.1,0.7-0.8,0.7-1.4L412.3,123.5z"/>
	<path d="M411.6,124.8c-0.2,0.5-0.4,1-0.7,1.5l-0.1-0.1C411.5,125.9,411.5,125.4,411.6,124.8L411.6,124.8z"/>
	<path d="M410.9,126.3c-0.7,0.3-0.7,0.9-0.6,1.6l-0.1-0.1C410.4,127.3,410.6,126.8,410.9,126.3L410.9,126.3z"/>
	<path d="M481.8,134.9c0.2-0.3,0.4-0.6,0.6-0.9l0.1,0.1c-0.2,0.3-0.4,0.6-0.6,0.9L481.8,134.9z"/>
	<polygon points="421.6,109.8 421.8,109.7 421.7,109.9 	"/>
	<path d="M488.2,101.2c0.2-0.1,0.4-0.1,0.5-0.2C488.2,100.6,488.3,101,488.2,101.2L488.2,101.2z"/>
	<polygon points="489,94 489.1,94.2 488.9,94.1 	"/>
	<path d="M413.1,122.8c-0.3,0.2-0.6,0.4-0.9,0.7l-0.1-0.1C412.5,123.2,412.8,123,413.1,122.8L413.1,122.8z"/>
	<path d="M414.6,120.7c-0.3,0.2-0.6,0.5-0.8,0.7l-0.1-0.1C413.9,121.1,414.2,120.8,414.6,120.7L414.6,120.7z"/>
	<path d="M415.7,117.7c0.1,0,0.2,0,0.3-0.1C416,117.6,415.9,117.7,415.7,117.7L415.7,117.7z"/>
	<polygon points="417.3,115.6 417.1,115.8 417.2,115.5 	"/>
	<polygon points="417.2,115.5 417.4,115.5 417.3,115.6 	"/>
	<polygon points="418.7,113.5 418.6,113.6 418.6,113.4 	"/>
	<path d="M419.6,112.8c-0.3,0.2-0.6,0.5-0.9,0.7l-0.1-0.1C418.9,113.2,419.2,112.9,419.6,112.8L419.6,112.8z"/>
	<path d="M420.9,110.7c-0.2,0.2-0.5,0.5-0.7,0.7l-0.1-0.1C420.3,111,420.6,110.8,420.9,110.7L420.9,110.7z"/>
	<path d="M420.8,110.6c0.3-0.3,0.5-0.5,0.8-0.8l0.1,0.1C421.5,110.1,421.2,110.4,420.8,110.6L420.8,110.6z"/>
	<path d="M672.2,79.3c0.9-0.1,1.4-0.1,1.7-0.3c2.2-1,4.1-2.4,5.7-4.3c2.7-3.2,5.4-6.4,8.1-9.5c-0.1-0.9-0.7-0.9-1.2-0.5
		c-1,0.9-1.9,1.8-2.7,2.8c-1.6,1.9-3.1,3.9-4.7,5.9c-1.2,1.5-2.6,2.8-4.3,3.7C673.9,77.6,673.1,78.1,672.2,79.3z"/>
	<path d="M721.7,83.4c0.2-0.8,0.5-1.5,0.7-2.3c-0.9-0.7-1.9-1.2-2.6-2c-0.8-0.8-1.3-1.9-3-2.1c0.5,1.1,1,1.8,1.2,2.7
		c0.3,0.9,0.3,1.8,0.4,2.9c1.1,0.3,2.3,0.5,3.4,0.8L721.7,83.4z"/>
	<path d="M669.4,62c-4.2,1.1-6.7,3-7.7,5.5C663.4,67.1,665.4,65.7,669.4,62z"/>
	<path d="M675.7,57.1c1-0.8,1.9-1.6,3-2.5C677,54.5,676.9,54.5,675.7,57.1z"/>
	<path d="M664,47.2c-0.1-0.1-0.1-0.2-0.2-0.2c-0.6-0.3-1.5-0.1-1.8,0.4c0,0.1,0,0.2,0.1,0.3c0.3,0.5,1.2,0.4,1.8-0.2
		C663.9,47.4,663.9,47.3,664,47.2z"/>
	<path d="M672.6,60.1c1,0.6,1.1-0.2,2-1.2c-1,0.4-1.3,0.4-1.6,0.6C672.9,59.6,672.8,59.9,672.6,60.1z"/>
	<path d="M657.8,47c0.8,0.8,1.4,0.8,2.3,0C659.2,47,658.6,47,657.8,47z"/>
	<path d="M684.5,74.7c-0.2,0.5-0.4,1-0.7,1.5l-0.1-0.1C684,75.6,684.2,75.2,684.5,74.7L684.5,74.7z"/>
	<polygon points="683.9,76.2 683.7,76.3 683.8,76.1 	"/>
	<path d="M732.5,69C732.8,69.3,732.3,69,732.5,69L732.5,69z"/>
</g>
</svg>
