<?xml version="1.0" encoding="utf-8"?>
<!-- Generator: Adobe Illustrator 20.0.0, SVG Export Plug-In . SVG Version: 6.00 Build 0)  -->
<svg version="1.2" baseProfile="tiny" id="Layer_2" xmlns="http://www.w3.org/2000/svg" xmlns:xlink="http://www.w3.org/1999/xlink"
	 x="0px" y="0px" viewBox="0 0 900 600" xml:space="preserve">
<g>
	<path d="M264.8,258.4c0,0.7-0.4,1.2-1.1,1.3c-0.6,0.1-1.2,0-1.8-0.1c-1.2-0.1-2.5-0.5-3.7-0.3c-2.5,0.2-5-0.1-7.1-0.8
		c-4.5,1.3-8.6,3.1-12.8,4.6c-4.1,1.4-8.3,2.5-12.6,3.4c-8.6,1.8-17.3,3.5-26,5.1c-4,0.8-8.1,1.1-12.2,1c-3.7-0.1-7.4,0.3-11.2,0.4
		c-4,0.1-8,0.2-11.9,0.3c-1.4,0-2.7-0.1-4.1-0.3c-5.9-0.9-11.7-0.4-17.3,1.2c-2.5,0.7-5.1,1.1-7.7,1.2c-2.4,0.1-8,1.7-10.4,2.9
		c2.7,1.2,3.3,3.2,2.9,5.8c-0.4,2.3-0.7,4.7-1.2,7c-0.3,1.6-0.9,3.1-2.1,4.3c-0.4,0.4-0.8,1-1.3,1.6c0.7,2,1.7,4.1,2.2,6.2
		c0.5,2,0.6,4.1,0.9,6.6c3.7,2.7,5.3,7.2,7.3,11.5c3.2,0.7,5.7,2.4,8.3,4.2c1.6,1.1,1.9,3.1,2.3,4.9c0.3,1.4,0.2,3,0.2,4.5
		c0.1,2.9-1.1,5-3.6,6.5c-0.7,0.4-1.5,0.8-2.5,1.4c-0.1,0.6-0.1,1.3-0.3,2c-0.8,3.8-3.2,6.4-6.5,8.1c-3.3,1.8-6.9,2.1-10.5,1.4
		c-2.4-0.5-4.8-1.2-7.2-2c-3.2-1.1-6.3-2.2-9.4-3.6c-2.8-1.3-5.5-2.8-8.3-4.3c-1-0.5-1.9-1.2-2.9-1.7c-2.7-1.3-5.1-3.1-7.3-5.1
		c-2.3-2-3.8-4.4-4.9-7.3c-1.7-4.7-3.2-9.4-4.3-14.3c-0.5-2.3-1.3-4.5-2.2-7.3c-1.2-0.7-2.8-1.7-4.6-2.7c-1.4-0.8-2.6-1.8-3.7-3.1
		c-1.6-2-3.6-3.8-5.3-5.8c-4.1-5-6.9-10.6-8.4-16.9c-0.2-0.7-0.4-1.5-0.4-2.2c-0.1-3.1-0.8-6.1-2-9c-0.8-1.9-0.9-4.1-0.6-6.2
		c0.2-1.5,0.9-2.5,2.4-3c0.9-0.3,1.9-0.6,2.7-0.9c0.1-0.3,0.3-0.5,0.3-0.8c0.1-3.8,1.1-4.9,4.5-5.6c4.3-0.9,8.5-1.8,12.7-2.9
		c6-1.6,12.2-2.4,18.4-3.2c0.4,0,0.7,0,1.1,0c0.1,0.1,0.2,0.1,0.3,0.2c-0.1,0-0.2-0.1-0.3-0.1c2.9-2,6-1.9,9.3-1.4
		c0.6,0.1,1.2,0.8,1.6,1.4c0.5,0.8,0.7,1.8,1.1,2.7c0.6,0,1.2,0.1,1.6,0c3.5-0.8,7-1.7,10.5-2.5c3.2-0.8,6.1-2.1,9-3.6
		c2.3-1.2,4.7-2.2,7.1-3.2c3.8-1.6,7.6-3,11.4-4.6c7-3,13.9-6.1,20.8-9.2c5.1-2.3,10.2-4.6,15.3-6.9c3.2-1.4,6.5-2.6,9.7-3.9
		c1.6-0.7,3.1-1.5,4.7-2.2c1.9-0.9,3.8-1.8,5.8-2.5c6.5-2.1,13-4.2,19.6-6.1c2.1-0.6,4.4-0.9,6.6-1.2c9-1,18.1-1.7,27.2-0.8
		c3.4,0.4,6.7-0.1,10,0c3.1,0,5.9-0.7,8.7-1.8c2.2-0.9,4.5-1.5,6.7-2.2c10.6-3.3,20.8-7.5,31.1-11.6c9.4-3.8,18.7-8.2,28-12.3
		c4.3-1.9,8.5-4.1,13-5.7c6.1-2.2,12.3-4.1,18.4-6c3.8-1.2,7.6-2.2,11.5-3.3c1.2-0.4,2.3-0.8,3.5-1.3c3.1-1.1,5.2-3.2,6.2-6.5
		c1.3-4.5,3.6-8.4,6.5-12.1c2.6-3.2,5.7-5.9,9.3-7.9c3-1.7,6.1-3.3,9.2-4.9c2.6-1.3,5.3-2.2,8.2-2.2c2,0,3.9-0.4,5.9-0.9
		c2.2-0.5,4.4-1,6.6-1.1c6.5-0.4,12.9-0.4,19.4,0.6c4.8,0.8,9.5,2,13.8,4.4c0.6,0.4,1.3,0.7,2,0.8c2.9,0.5,5.9,0.9,8.8,1.4
		c2.6,0.4,5.2-0.2,7.8-0.5c5.5-0.8,11.1-1.7,16.6-2.6c3.4-0.6,6.8-1.4,10.2-2.2c0.7-0.2,1.4-0.5,2.1-0.8c3.8-1.8,7.5-3.8,10.9-6.5
		c6.2-4.8,12.5-9.5,19.2-13.6c1-0.6,2.2-1,3.9-1.8c1.9-3.2,5.5-5.4,9.2-7.6c3.1-1.8,6.2-3.7,9.3-5.6c0.2-0.1,0.4-0.3,0.6-0.4
		c5.5-2.1,10.4-5.4,15.5-8.1c5.5-2.9,11.3-5.1,17.2-7c2.4-0.8,4.7-1.7,6.9-2.7c5.6-2.6,11.4-4.3,17.4-5.4c9.4-1.7,19-2.5,28.6-2.2
		c5.7,0.2,11.4,0.8,17,2.2c1.3,0.3,2.7,0.6,4,0.6c1.7,0,3.2,0.5,4.5,1.4c0.4,0.3,0.8,0.6,1.2,0.9c3.9,2.6,8.2,3.4,12.8,2.2
		c1.8-0.5,3.6-0.9,5.4-1.4c2.9-0.7,5.2-2.2,6.9-4.8c0.5-0.7,1-1.4,1.5-2c-0.1-0.7-0.2-1.3-0.3-1.9c1.9-3.2,3.8-6.5,5.7-9.6
		c0.9-1.5,1.9-2.9,2.9-4.3c2.4-3.3,5.4-5.8,9.2-7.4c4.3-1.9,8.6-4,13.2-5.1c0.8-0.2,1.6-0.6,2.3-0.8c0.7-0.9-0.1-1.5-0.2-2.2
		c-0.4-2.8-0.2-5.4,1-8c1.5-3.4,3.7-6.2,6.4-8.6c0.8-0.7,1.7-1.4,1.7-2.7c0-1,0.9-1.4,1.7-1.9c4.3-2.5,8.8-2.7,13.1-0.1
		c1.7,1,3.3,2.3,4.6,3.8c4,4.6,7.3,9.8,9.4,15.6c1,2.7,1.6,5.5,1.8,8.4c0,0.7-0.1,1.4-0.2,2.1c-1.1-0.2-0.9-1-0.9-1.5
		c0-3-0.9-5.7-2.4-8.1c-2.7-4.3-5.4-8.6-8.3-12.9c-1-1.4-2.3-2.7-3.5-3.8c-0.9-0.8-2-1.5-3.1-2c-2.8-1.3-6.1-1.8-9.5,1.8
		c-1.8,1.9-3.6,3.8-5.4,5.7c-2,2.3-3.5,4.8-4.2,7.8c-0.6,2.3-0.5,3.5,0.4,5.8c1.7,0.4,3.3-1.1,5.2-0.2c0.6,0.9,0.6,2,0.2,3
		c-2.1,5-3,10.2-3.9,15.5c-0.3,1.7-0.7,3.4-1,5.1c-0.9,0.2-0.8-0.5-0.7-0.9c0.5-3.7,1-7.4,1.5-11.1c0.1-0.6,0.2-1.2,0.3-2
		c-3.1,2.9-4.7,10.8-5.6,17.6c-0.8-3.8-1-7.6-0.4-11.4c-1-0.3-1.2,0.4-1.4,0.9c-1.4,2.9-2.8,5.8-3.3,9.1c-0.1,0.8-0.2,1.7-1,2.3
		c-0.1-0.2-0.3-0.4-0.3-0.5c0.5-4.3,1.2-8.6,3-12.6c1.8-3.9,4.2-7.3,8-9.6c1-0.6,1.9-1.2,2.8-1.9c0.4-0.3,0.6-0.9,1.1-1.7
		c-0.8,0-1.3-0.2-1.8-0.1c-1.7,0.4-3.4,0.9-5,1.4c-0.3,0.1-0.8,0.2-1,0.5c-1.3,1.9-3.4,2.4-5.3,3.2c-2.5,1.1-4.8,2.7-7.2,3.9
		c-5.6,3-9.9,7.4-14.3,11.9c0,0.7,0,1.5-0.1,2.2c-0.8,6.3-4.1,10.8-9.8,13.6c-3.8,1.9-7.9,2.9-12.1,3.8c-1,0.2-2.2,0-3.4,0
		c0.3,6.8,0.7,13.6,0.9,20.4c0.1,2.4,0,4.7,0,7.1c0,2.2,0,4.4,0.9,6.6c0.6,1.3,0.6,2.9,0.9,4.6c0.3,0.1,0.8,0.4,1.2,0.4
		c3.4-0.2,6.9,0.2,10.3-0.5c0.4-0.1,0.7-0.1,1.1-0.1c2.9-0.3,4.7,0.6,5.9,3.3c0.5,1,0.9,2.1,1,3.2c0.4,3.4,2,6.4,3,9.6
		c0.3,1,1,1.7,2.1,2.2c1.9,0,3.8-0.2,5.5-1.5c1.2-0.9,2.7-1.1,4.3-0.6c0.8,0.3,1.7,0.4,2.5,0.4c0.6,0,1.2-0.2,1.8-0.4
		c1.4-0.6,1.6-1.9,0.7-3c-0.5-0.6-1.1-1-1.5-1.6c-0.8-1.1-0.6-2.3,0.2-2.6c0.7-0.2,1.4,0.2,2,1.3c0.6,1.1,1.1,2.2,1.7,3.3
		c0.5,0.9,1.1,1.6,2.4,2.1c0.7-0.3,1.6-0.7,2.4-1.1c0.8-0.4,1.5-0.9,2.2-1.4c-0.1-1.3-0.7-2.8,1-3.8c0.3,0.9,0.5,1.7,0.9,2.5
		c0.5,1,1.2,1.8,1.8,2.8c0.5,0.8,1,1.7,1.6,2.5c0.6,0.8,1.1,1.7,2.5,1.7c0.2-0.3,0.5-0.6,0.7-1c2.5-4.7,5.9-8.6,9.9-12
		c2.7-2.2,5.1-2.6,9.6-2.1c1.4-1.1,2.8-2.3,4.3-3.3c1.6-1,3.4-1.6,4.9-2.7c3.6-2.5,7-5.1,10.4-7.6c-0.1-1-0.4-1.7-0.2-2.3
		c0.2-0.7,0.7-1.3,1.1-1.9c-0.6-0.5-1-0.9-1.4-1.2c0-0.3,0-0.6,0.1-0.8c3.3-4.1,3.9-9.1,4.4-14c0.3-3.6,0.2-7.2-0.5-10.8
		c-0.2-1-0.1-2-0.2-3l-0.1,0.1c1.6,1.3,1.9,3.2,2.2,5c0.7,3.8,1.1,7.6,0.4,11.4c-0.1,0.5,0,1,0,1.7c1.4-1.5,1.6-3.2,1.9-4.8
		c0.2-1.1,0.7-1.8,1.6-2.3c-0.2,0.7-0.5,1.4-0.6,2.1c-0.3,3.2-1.2,6.2-2.3,9.2c-0.2,0.4-0.1,1-0.2,1.4c-0.2,0.2-0.3,0.3-0.4,0.5
		c0,0,0.1,0.2,0.1,0.3c0.1-0.3,0.2-0.6,0.2-0.9c0.3-0.2,0.7-0.2,0.9-0.5c0.7-1.3,1.5-2.6,1.8-4c0.6-2.7,1.5-5.4,0.4-8.2
		c-0.1-4.1-0.9-8.2-2.6-11.9c-1.2-2.6-2.8-5-4.3-7.4c-2.4-3.6-5.1-7.1-7.3-10.8c-3.8-6.7-9.9-10.7-16.2-14.5
		c-0.3-0.2-0.7-0.1-1.1-0.1c0-0.1,0-0.2-0.1-0.3c0,0-0.2,0-0.2,0c0.1,0.1,0.3,0.2,0.4,0.3c0.3,0.5,0.5,1.1,0.9,1.4
		c5.6,5.1,10.2,11.1,14.7,17.1c0.3,0.5,0.4,1.1,0.7,1.7c0,0,0.1-0.1,0.1-0.1c-1.3-0.4-1.9-1.5-2.7-2.4c-3.8-4.3-7.5-8.6-11.4-12.8
		c-1.7-1.8-3.6-3.4-5.5-5c-2-1.7-4.6-2.5-7-3.3c-0.8-0.2-1.7,0-2.7,0c-0.6-1-1.1-1.9-1.7-2.8c-1.3-2-1.2-4.1-0.1-6
		c2.4-4.5,6.2-7.4,11.2-8.5c1.2-0.3,2.5,0,3.7,0.2c0.3,0,0.7,0.3,0.9,0.6c0.2,0.1,0.2,0.4,0.3,0.8c-4.5-0.8-7.9,1.4-11.1,4
		c-1.9,1.5-3.7,3.3-4.1,5.8c0.6,0.7,1.3,0.7,1.8,0.3c0.9-0.7,1.7-1.4,2.6-2.1c1.9-1.6,4-1.8,6.3-1.1c4.2,1.3,6.6,4.9,6.3,9.4
		c0,0.4,0,0.7,0,1.1c1.3,1.3,2.7,2.3,4.3,3c5.1,2.4,9.1,5.9,12.3,10.5c3.1,4.5,6.2,9,8.4,14.1c1,2.4,2.5,4.6,3.8,6.8
		c0.6,1,0.8,2.1,0.9,3.2c0.2,4.5,0.3,8.9,0.5,13.4c0.1,1.6-0.3,3.2-0.9,4.7c-0.9,2.3-1.7,4.7-2.4,7.1c-0.6,2.1-1.7,3.8-3.3,5.3
		c-1.4,1.2-2.8,2.5-4.1,3.6c1,7.7-2.3,24.5-5.3,29.8c-0.1-0.7-0.3-1.1-0.2-1.5c1-6,2.1-12,3.2-18c0.3-1.6,0.4-3.2,0.5-4.8
		c0.1-1.1,0-2.2,0-3.5c-2.1,0.5-3.1,1.9-4.3,3c0.2,4.3,0.4,8.5,0.4,12.7c0,4.2,0.3,8.4-0.9,12.7c-1-0.8-0.9-1.8-0.9-2.7
		c-0.2-4.5-0.4-8.9-0.6-13.4c-0.1-2.3-0.2-4.7-0.7-7.2c-2.3,0.8-3.7,2.5-5.5,3.6c0,0.6,0,1,0,1.4c-0.9,7.4,1.1,14.3,3.2,21.2
		c0.2,0.6,0.3,1.2,1,1.4c0.1,0.3,0.1,0.6,0.1,0.3c0.1,0.2,0,0-0.2-0.2c-0.3-2.3-0.5-4.7-1-7c-1.2-5.4-1.2-10.9-0.6-16.3
		c0.1-0.5,0.3-0.9,0.6-2.1c0.3,1.4,0.6,2.1,0.5,2.8c-0.5,6,0.2,11.9,1.4,17.8c0.5,2.3,0.1,4.8,1.6,6.8c-1.1,2.9,1.2,4.6,2.4,6.6
		c0.1,0.1,0.1,0.2,0.1,0.3c-1.4,0-2-0.2-2.6-1c-1.8-2.4-3.7-4.7-4.6-7.6c-1.2-3.9-2.1-7.9-3.1-11.9c-0.6-2.7-0.4-5.4-0.1-8.2
		c0.1-0.8,0.2-1.7,0.2-2.5c-1-0.2-1.2,0.5-1.3,1c-0.9,4.9-1.3,9.9-1.4,14.8c0,1.5,0.3,3,0.4,4.4c0,0.8-0.1,1.6-0.1,2.6
		c-2.2-1.6-2.8-2.5-3.6-5.2c-1.4-4.7-1.9-9.5-2.1-14.3c0-0.7-0.2-1.4-0.3-2.2c-1.9,0.2-3.3,0.7-4.6,1.8c-2.6,2.3-5.2,4.6-7.3,7.5
		c-1.2,1.7-2.7,3.2-4.1,4.8c-0.9,1-2.4,1.1-3.3,0.1c-1.1-1.1-2.1-2.4-3.1-3.7c-0.9-1.1-1.7-1.3-2.9-0.8c-0.6,0.3-1.1,0.6-1.6,1
		c-1.4,1.3-2.9,1.2-4.4,0.1c-0.3-0.2-0.6-0.4-0.9-0.5c-3.4,3.1-3.4,3.2-8,1.9c-2.4,1.2-4.8,2.5-7.7,2.9c-2.2-1-4.1-2.7-5.2-5
		c-0.8-1.6-1.5-3.2-2-4.8c-1-2.8-1.8-5.6-2.7-8.4c-0.2-0.1-0.5-0.3-0.7-0.3c-3.9,0.6-7.8,1.1-11.6,1.7c-0.8,0.9-0.1,1.5,0.1,2.2
		c2,7.8,2.1,15.5-0.4,23.2c-0.6,1.8-1.3,3.5-2.2,5.1c-0.8,1.5-1.1,3-1.1,4.6c0.1,5.7,0.3,11.4,1.8,17c0.3,1.2,0.4,2.5,0.4,3.7
		c0,2.3,0.5,4.4,1.3,6.5c1.7,4.7,3.3,9.4,4.9,14.1c1.4,4,2.2,8.2,1.9,12.5c-0.1,2.2,0.7,4.1,1.7,6c5.3,9.8,9.6,19.9,12.1,30.8
		c0.2,1,0.4,2,0.4,2.9c-0.1,3.7,0.9,7.1,1.8,10.6c2.1,8.3,4.6,16.5,7.4,24.6c1,2.8,1.7,5.7,2.1,8.7c0.2,1.3,0.7,2.6,1.1,3.9
		c0.7,2.1,1.9,4.2,2,6.4c0.1,2.6,1.2,4.4,2.5,6.4c1.4,2.2,2.8,4.4,4.1,6.5c4,0.6,7.7,0.3,11.3-0.6c2.7-0.6,5.4-0.8,8.1-0.8
		c1.4,0,2.7,0,4.1-0.1c2.1-0.1,4.1,0.5,5.4,2.1c1.9,2.3,4.3,3.2,7.2,3.4c2.8,0.2,5.7,0.6,8.5,0.8c2.6,0.2,5.1,0.8,7.7,1.5
		c3.7,1,7.4,2.1,11.3,2c1,0,2,0,3,0.2c0.7,0.1,1.5,0.2,2.1,0.6c3,1.9,3.5,3.9,0.3,5.8c-1.2,0.7-2.4,1.2-3.8,1.4
		c-4.7,0.8-9.4,0.6-14.1-0.1c-2.5-0.3-4.9-0.5-7.4,0.3c-3.2,0.9-6.4,0.4-9.6-0.2c-0.6-0.1-1.2-0.3-1.7-0.4c-0.4,0.1-0.7,0.1-0.9,0.2
		c-1.7,1.8-3.8,2.2-6.1,1.5c-0.6-0.2-1.3-0.1-1.8-0.3c-3.7-1.5-7.6-0.8-11.4-0.9c-0.8,0-1.7,0.3-2.4,0.7c-1.2,0.7-2.5,1-3.9,1
		c-2.6,0.1-5.2,0.1-7.8,0.2c-2.6,0.1-4.9-0.9-6.7-2.7c-0.4-0.4-0.7-1-0.1-1.7c0.3,0,0.7-0.1,0.9,0c2.6,1.2,5.3,1.3,8,1.1
		c3.7-0.3,7.4-0.6,11-2c1.5-0.6,3.1-0.8,4.7-0.9c1.9-0.2,3.7,0,5.4,1.1c1.8,1.2,4,1.3,6.1,1.6c1.4,0.2,2.1-0.7,2.3-2.8
		c-4.9-2-10.4-3-14.8-6.7c-3.3-0.9-6.5,1.6-10,1.2c0.2-0.3,0.2-0.5,0.3-0.5c2.9-0.8,5.7-1.6,8.6-2.3c1.1-0.3,2.2-0.1,3.1,0.8
		c0.4,0.4,1,0.8,1.6,0.9c3.5,0.5,6.5,2.5,9.9,3.1c1.2,0.2,2,0.9,2.6,1.9c0.5,0.7,1.1,1.4,1.5,2.2c0.8,1.5,2.1,2,3.7,1.8
		c1.7-0.2,3.5-0.3,5.2-0.5c1.9-0.3,3.8-1.2,5.8-0.3c3.7-0.7,7.1,0.8,10.7,1.1c2.1,0.2,2.1,0.2,4.5-1c-0.4-0.2-0.7-0.5-1-0.6
		c-5-1.1-9.9-2.2-14.9-3.3c-3-0.7-6.1-1.3-9-2.2c-1.7-0.6-3.3-1.7-4.9-2.6c-0.5-0.3-1-0.8-1.5-1c-2.7-1-5.3-2.1-8-2.9
		c-1.6-0.5-3.3-1.3-5-0.1c-5.1,0.4-10.1,1.5-15.2,0.8c-0.5-0.1-1,0-1.5-0.1c-2.9-0.2-5.2-1.3-6.3-4.3c-0.9-2.6-2.2-5-3.3-7.5
		c-0.3-0.7-0.6-1.4-0.7-2.1c-0.7-4.7-2.5-9.1-4.2-13.5c-4.4-11.8-7.9-23.8-10-36.3c-0.8-5-2-10-3.7-14.8c-2.3-6.4-4.3-13-6.5-19.5
		c-0.9-2.6-2-5.1-3-7.6c-1-2.4-2.1-4.6-2.2-7.4c-0.1-2.7-1.4-5.3-2.2-7.9c-1.9-6.7-3.9-13.4-5.8-20.1c-0.8-2.9-1.3-5.8-1.3-8.8
		c0-1-0.2-2-0.3-3c-0.1-1.1-0.3-2.2-0.2-3.3c0.4-5.2,0.3-10.4,1.3-15.6c0.1-0.6,0.2-1.2,0.3-1.8c1.8-6.6,1.7-13.3,1.8-20
		c0-1,0-2-0.8-2.8c-1.3,1.4-1.5,3.1-1.3,4.7c0.5,5.3-1.7,9.7-4.9,13.7c-3.6,4.5-7.2,8.9-10.7,13.4c-2,2.7-3.9,5.5-5.7,8.3
		c-0.4,0.6-0.7,1.3-0.9,2c-1.1,3.7-2.3,7.4-3.4,11.1c-0.2,0.7-0.4,1.5-0.3,2.2c0.2,2.5-0.5,4.9-1.2,7.3c-0.5,1.8-1.1,3.6-1.7,5.5
		c1.5,5.4,4.3,10.4,7.1,15.4c2.7,4.9,5.5,9.8,8.2,14.7c1.9,3.4,3,7.1,4.1,10.9c-0.4,0.3-0.8,0.5-1.2,0.7c0.9,5,1.9,10,2.8,15
		c0.3,1.9,0.5,3.9,0.5,5.9c0,1.7,0.3,3.2,1.1,4.6c2,3.7,4,7.5,6.2,11.1c2.7,4.3,5.7,8.5,8.5,12.7c2.7,4,5.3,8.1,8,12.2
		c3.3,5,6.5,10,10.5,14.5c1.1,1.2,2,2.5,2.1,4.3c0.1,0.9,0.7,1.8,1.3,2.6c1.5,2.3,3.2,4.4,4.7,6.7c0.9,1.5,1.6,3.1,2.2,4.7
		c0.4,1,0.8,2.1-0.1,3.2c-1.5,0-2.6-0.8-3.3-2.1c-0.5-0.9-0.8-1.8-1.2-2.7c-0.6-1.4-1.2-2.7-1.9-4.1c-3.3-6.4-7.2-12.5-11-18.6
		c-0.6-1-1.5-2-2.3-2.9c-3.3-3.4-6.2-7.2-8.8-11.1c-4.8-7.1-9.7-14.1-13.5-21.9c-1.4-2.9-2.7-5.9-3.9-8.9c-1-2.4-1.7-4.9-1.7-7.6
		c0-1.4-0.4-2.7-0.6-4.1c-0.8-4.9-1.6-9.8-2.4-14.7c-0.4-2.5-1.2-4.8-2.4-7c-3.4-6.5-6.7-13-10-19.6c-1.2-2.4-2.1-5-3.2-7.5
		c-0.3-0.6-0.6-1.3-1-2.1c-0.4,0.7-0.7,1.1-0.9,1.5c-3.1,7.2-7.2,13.9-12.1,20.1c-3.4,4.3-4.8,9.3-5.4,14.5
		c-0.6,4.8-0.7,9.7-0.9,14.5c-0.2,5.8-0.2,11.7-0.3,17.5c0,1.9-0.2,3.7-0.3,5.6c0,0.6,0,1.4-0.3,1.8c-1.5,2.4-1,5-1.3,7.6
		c-0.3,3.5-0.5,6.9-1,10.4c-0.6,4.8-0.2,9.5,0.7,14.1c0.6,3.2,1.7,6.2,2.6,9.3c0.6,2.1,1.5,4.2,2,6.4c0.6,2.2,1.3,4.2,3.4,5.6
		c1.2,0.8,1.8,2.3,2.8,3.7c1.6,0.1,3.4,0.2,5.1,0.2c3.4,0,6.7-0.1,10.1-0.3c1.8-0.1,3.4-0.1,5,0.9c0.7,0.5,1.6,0.6,2.4,0.8
		c3,0.7,6.2,0.6,8.8,2.6c0.4,0.3,1.2,0.3,1.8,0.4c3.1,0.3,6.1,1.1,9.3,0.9c1.7-0.1,3.5,0.3,5.1,0.8c2.5,0.7,5.1,1,7.7,1.1
		c2.5,0,4.9,0.5,7.1,1.8c0.5,0.3,1.1,0.6,1.5,1.1c1.1,1.2,1.1,2.8,0,4.1c-0.4,0.5-0.9,0.9-1.4,1.2c-1.3,0.7-2.5,1.5-3.3,2.8
		c-0.7,1.1-2,1.5-3.3,1.3c-1-0.1-2-0.2-3-0.2c-4.3-0.4-8.7-0.7-13.2-1.1c-0.3,0.7-0.7,1.4-0.8,2.1c-0.3,1.5-1.2,2.1-2.5,2.3
		c-3.2,0.6-6.4,0.7-9.6,0.2c-3.8-0.5-7.6-1.4-11.2-2.6c-2.3-0.7-4.7-0.7-7-0.4c-3.2,0.4-6.4,0.9-9.6,1.4c-3.3,0.5-6.7,0.7-10,0.1
		c-0.6-0.1-1.2-0.2-1.9-0.2c-3.7-0.2-6.7-1.8-9.4-4.5c0.2-1.4-0.5-2.7-1.1-4.1c-1.4-3.2-2.9-6.4-3.4-9.8c-0.1-0.9-0.4-1.7-0.7-2.5
		c-5.1-12.1-8.8-24.6-13-36.9c-1.6-4.7-3.2-9.4-4.1-14.3c-0.5-2.4-0.8-4.9-1.3-7.3c-0.1-0.7-0.1-1.5-0.4-2.2
		c-1.3-3.9-1.2-7.8-1.2-11.8c0.1-6.8-0.1-13.7,0.7-20.5c0.2-1.8,0.2-3.7,0.8-5.5c0.4-1.1,0.2-2.5,0-3.7c-0.2-2.2,0-4.2,1-6.2
		c0.2-0.3,0.3-0.7,0.4-1c1.5-6.8,4.3-13.2,5.7-20c0.2-1,0.5-1.9,0.5-2.9c0-5.3,0.9-10.4,1.9-15.5c0-0.1-0.1-0.2-0.2-0.6
		c-0.3-0.2-0.8-0.5-1.4-0.7c-0.8-0.2-1.8-0.2-2.5-0.6c-2.2-1.2-4.6-1.2-6.9-1.4c-0.7-0.1-1.5,0.1-2.2,0.2c-1.6,0.3-3.2,0.6-4.7,1
		c-1.1,0.3-2.2,0.6-3.1,1.2c-6.3,4.2-13.3,6.8-20.4,9c-2.5,0.8-5,1.6-7.1,3.2c-2.8,2.2-6.2,2.4-9.5,3c-4.9,0.9-9.8,1.6-14.7,2.5
		c-1.9,0.4-3.9,0.9-5.8,1.5c-8,2.8-16.3,4.4-24.8,4.8c-2.6,0.1-5.2-0.1-7.9-0.2c0.3,1.2,0,2.3-1,2.9c-5.9,3.6-11.8,6.9-18.2,9.3
		c-0.9,0.3-1.9,0.5-2.9,0.7c-7.9,1.7-15.7,3.6-23.2,6.9c-0.1,0-0.2,0.1-0.3,0.1c-5.7,1.5-10.3,4.9-15,8.1c-3,2-6,4-9,6
		c-3.3,2.1-6.7,3.8-10.6,4.5c-1,0.2-1.9,0.6-2.8,1c-9.6,4-19.6,6.6-29.7,8.5c-11.2,2.1-22.6,3.9-33.9,5.6c-4.3,0.7-8.6,1-13,1.3
		c-6.8,0.5-13.6,0.9-20.5,1.2c-3.1,0.1-6.2,0.1-9.3,0c-3.5-0.1-6.8-1.2-10-2.6c-0.2-0.1-0.3-0.4-0.5-0.6c1.1-0.6,2.2-0.2,3.2-0.1
		c5.3,0.3,10.7,0.9,16,1c3.1,0.1,6.2-0.4,9.2-1c3.4-0.7,6.8-1.3,10.3-1.5c7.5-0.4,14.8-1.5,22.2-2.6c8.8-1.4,17.7-2.6,26.5-4.3
		c7.1-1.3,14.1-3.1,21.1-4.8c0.8-0.2,1.6-0.6,2.3-0.8c0.3-0.9-0.2-1.3-0.6-1.8c-4.3-6.3-7.1-13.4-9.6-20.6c0-3-1.7-5.3-2.9-7.9
		c-1.7-3.9-3.4-7.7-5.1-11.6c-0.4-0.9-0.9-1.7-1.4-2.8c-1.2,0.3-2.2,0.6-3.2,0.9c-0.1-0.1-0.1-0.3-0.2-0.4c0.9-0.8,1.7-1.5,2.6-2.3
		c0-0.3,0.1-0.6,0-0.8c-3.1-8.3-5.6-16.7-7.7-25.3c0-0.1-0.2-0.2-0.4-0.4c-0.9,0.5-1.9,1-2.9,1.5c-2.6,1.2-5.1,2.5-7.8,3.6
		c-8.4,3.2-16.8,6.3-25.1,9.4c-0.9,0.3-1.9,0.6-2.8,1.1c-5.8,3.3-12,5.4-18.1,7.9c-7,2.9-14.1,5.7-21.1,8.6c-4.7,2-9.4,4-14,6.1
		c-4.1,1.8-8.3,3.3-12.6,4.5c-1.2,0.3-2.4,0.8-3.5,1.3c-4,1.8-8.2,3-12.6,3.3c-2.5,0.2-4.9,0.7-7.2,1.7c-2.5,1.1-5.2,1.7-8,1.4
		c-1-0.1-2,0.1-2.9,0.2c-8,1.5-15.9,2.6-24.1,2.6c-3,0-5.9,0.5-8.9,1c-3.8,0.6-7.6,1.3-11.4,2.1c-5.8,1.3-11.6,2.7-17.4,4
		c-1.6,0.4-3.1,1-4.7,1.2c-2.8,0.4-5.2,1.5-7.7,2.8c-6.3,3.3-12.7,6.3-19.3,8.8c-3.6,1.4-6.9,3.3-10.3,5.2c-5.1,2.9-10.4,5.4-16,7
		c-3.7,1.1-7.5,1.9-11.2,2.9c-0.7,0.2-1.5,0.2-2.2,0.5c-2.8,0.9-5.6,1.1-8.5,0.4c-2.4-0.6-4.3,0.2-6.3,1.5c-2.1,1.4-3.5,3.1-4.1,5.4
		c-0.3,1.2-0.7,2.4-1.1,3.5c-1.2,3.4-0.8,6.5,0.7,9.7c0.8,1.6,1.8,2.6,3.4,3.2c0.3,0.1,0.7,0.2,1.1,0.3c4.1,1.1,8.3,1.6,12.5,1.7
		c2.3,0.1,4.4-0.4,6.5-1.4c1.1-0.5,2.3-1,3.5-1.2c6.9-1.4,13.9-2.8,20.8-4.1c0.6-0.1,1.2-0.2,1.8-0.4c6.2-1.9,12.5-1.9,18.8-1.3
		c1.1,0.1,2.2,0.2,3.3,0.2c4.4,0,8.7-0.1,13.1,0c8,0.2,15.9-0.4,23.8-1.8c4.9-0.8,9.9-1.4,14.7-2.4c4.3-0.8,8.5-2,12.7-3.1
		c3.3-0.8,6.5-1.7,9.7-2.5c5.7-1.4,11.2-3.2,15.9-7c1.1-0.9,2.2-0.9,3.6,0c-1,0.8-2,1.4-2.9,2.1c0.2,0.4,0.2,0.7,0.3,0.8
		C257.9,257.7,261.4,258.2,264.8,258.4L264.8,258.4z M132,243.6c-0.8,0.1-1.7-0.2-2.3,0.7c-3.1,0.2-3.1,0.2-5.7,2.3
		c2.3-0.7,4.2-0.8,5.6-2.4c0.8,0,1.7,0,2.2-0.7c0.3-0.1,0.5-0.2,0.3-0.1C132.4,243.2,132.2,243.4,132,243.6z M791.2,321.9
		c-0.2-0.1-0.5-0.2-0.4-0.2C790.7,321.7,791,321.8,791.2,321.9c1.2,0.6,1.2,0.6,2.3,0.1C792.6,322,791.9,322,791.2,321.9z
		 M762.8,27.7c0,0.5,0.2,0.8,0.7,0.8c-0.1,1.4,0.9,2.2,1.7,3.2c0.3,0.4,0.7,0.7,1.3-0.2c-1.1-0.8-1.4-2.5-3-2.9
		C763.2,28.3,763,28.1,762.8,27.7c-1.9-1.6-1.9-1.6-3.6-0.9C760.5,27.2,761.6,27.4,762.8,27.7z M556.8,101.8c-0.3,0-0.5,0-0.8,0
		c-3,2.1-5.7,4.8-8.9,6.7c-3.6,2.1-7.1,4.6-10.6,6.9c-3.6,2.4-7.2,4.9-10.9,7.2c-6.7,4.2-13.8,7.5-21.7,8.7
		c-3.7,0.6-7.4,0.9-11.1,1.3c-3.1,0.3-6.2,0.5-9.3,0.7c-0.5,0-1,0.4-1.4,0.6c1.1,3.3,2.2,6.4,3.1,9.4c2.9,9.4,4.8,19,8.2,28.2
		c2.2,5.8,3.5,11.9,5.2,17.9c0.1,0.3,0.3,0.7,0.5,1.1c2,0.3,3.6-0.7,5.2-1.6c1.8-1.1,3.6-2.3,5.3-3.5c1.5-1,3.3-1.7,4.4-3.3
		c0.5-0.7,1.5-1.1,2.7-0.7c-1.7,1.9-3.3,3.6-4.9,5.3c-3.1,3.3-6.7,5.9-11.2,7c-0.3,0.1-0.6,0.4-0.9,0.5c-0.2,0.8,0,1.4,0.7,1.5
		c0.8,0.2,1.7,0.2,2.6,0.2c6.5,0.4,12.9-0.7,19.3-1.9c3.1-0.6,6.2-0.9,9-2.2c3.8-1.7,7.8-2.4,11.7-3.4c4.5-1.1,8.9-2.1,13.4-3.1
		c1.5-0.3,2.8-0.7,4.2-1.3c4-1.7,8-3.3,12.2-4.7c2.1-0.7,4.2-1.4,6.3-2.2c3.6-1.5,7.1-2.9,10.7-4.3c0.6-0.3,1.2-0.8,1.7-1.1
		c-0.8-3.1-1.6-6-2.4-8.8c-0.2-0.8-0.6-1.8-0.4-2.5c0.4-1.4,0-2.7-0.4-4c-1.5-4.5-2.8-9-4.5-13.4c-1.6-4.4-3-8.9-4.9-13.2
		c-1.4-3.3-2.7-6.7-4.5-9.8c-4-6.6-7.3-13.6-10.7-20.5c-0.3-0.5-0.4-1.2-1.4-1.3c-0.7,0.5-1.6,1.2-2.5,1.8
		C558.9,100.5,557.8,101.1,556.8,101.8z M708.4,335.8c0.2-0.2,0.3-0.4,0.5-0.6c-0.4-0.5-0.8-1.2-1.4-1.5c-0.5-0.3-1.2-0.2-1.8-0.3
		c-6.1-0.5-12.1-1.6-18-2.8c-0.6-0.1-1.2-0.1-1.8,0c-2.3,0.1-4.5-0.1-6.6-1.1c-2.1-0.9-4.2-1.5-6.4-1.8c-1.6-0.3-3.2-0.7-4.7-1.2
		c-1.9-0.7-3.9-0.9-5.9-0.8c-8.2,0.2-13.3-0.1-20.4-1.2c-1.2-0.2-2.1-0.7-2.5-1.9c-0.2-0.7-0.5-1.4-0.6-2.1
		c-0.9-4.2-1.9-8.5-2.8-12.8c-1.2-5.9-2.2-11.7-1.8-17.8c0.2-3.3-0.2-6.7-0.3-10c-0.1-2.6-0.4-5.2-0.2-7.8c0.4-7.2,1-14.4,2.3-21.5
		c0.4-2.2,1.1-4.4,1.3-6.6c0.4-5.1,0.7-10.2,0.7-15.3c0-3.1,0.2-6.2,1-9.2c0.5-1.9,1-3.8,1.6-5.7c0.7-2.4,1.1-4.9,3.4-6.4
		c0.2-0.1,0.3-0.4,0.4-0.6c3.5-5.9,7-11.8,10.4-17.7c2.5-4.2,4-8.8,4.9-13.6c1.1-6.1,3.1-12,5.3-17.8c0.4-1,0.7-2.3,1.4-3
		c1.7-1.6,2.6-3.6,3.7-5.5c2.6-4.1,5.2-8.2,8.5-11.8c0.8-0.9,1.6-1.9,2.3-2.9c0.6-0.9,1.2-1.9,1.5-3c1-3.7,2-7.4,2.9-11.2
		c1.1-4.8,0.6-9.6-0.3-14.4c-1.2-2.1-1.5-4.4-1.8-6.7c-0.3-2.4-1.4-4.2-3.3-5.6c-0.8-0.6-1.4-1.3-2.1-2c0.4-1.9,0.8-3.5,1.2-5.3
		c-2.4-2.5-5.5-4.1-8.4-5.7c-0.5,0.3-0.8,0.5-1.1,0.7c-2.4-2.8-2.6-2.8-6.6-4.5c-7.1-3-14.5-3.3-22-2.3c-2.8,0.4-5.5,1.6-8.2,2.5
		c-0.7,0.2-1.5,0.6-1.9,1.2c-1.1,1.8-2.9,2.7-4.4,4c-4.2,3.6-7,8-8.7,13.2c-1.4,4.3-1.5,8.8-1.5,13.3c0,2.9,0.6,5.7,1.7,8.3
		c0.9,2.4,2.7,4.4,2.8,7.1c1.5,2.9,3.4,5.5,6.4,7.1c0.3,0.1,0.6,0.1,0.9,0.1c0.8-1.6-0.3-3,0.1-4.5c0.5-1.8,0.5-3.7,0.8-5.5
		c0.1-1,0.3-1.9,0.6-2.9c0.1-0.5,0.6-0.8,1.4-0.6c0.1,0.8,0.3,1.8,0.4,2.7c0.1,0.7-0.1,1.9,0.3,2.2c1.6,1.1,0.9,2.7,1,4
		c0.1,0.9,0,1.7,0,2.6c0.1,1.7-0.3,3.2-1,4.7c-3.1,6.2-5.8,12.6-8.6,19c-3.5,8-6.7,16.1-8.4,24.6c-0.4,2.2-1.1,4.3-0.5,6.6
		c0.1,0.5,0,1,0,1.5c-0.8,6.2-1.9,12.3-3.8,18.2c-1,3.1-2,6.1-3,9.2c-0.6,1.6-1.1,3.3-1.9,4.9c-0.8,1.6-1.2,3.2-0.5,4.9
		c0.6,0.3,1.1,0.6,1.6,0.9c1.2,6.6,1.4,11.4,0.5,13.4c-1-0.8-1-2-1.2-3c-0.2-1-0.3-2-0.4-3c-0.2-1.7-0.2-1.7-0.9-3
		c-0.8,0.5-0.8,1.2-0.8,1.9c-0.1,7.1-0.4,14.2-0.4,21.3c0,5.5,0.5,10.9,1.5,16.3c1.5,8,4.3,15.6,7.3,23.1c1.4,3.6,2.9,7.2,3.9,10.9
		c1.2,4.5,3,8.7,5,12.8c1.4,2.9,3.1,5.6,3.9,8.8c0.7,2.6,1.5,5.2,2.3,7.9c0.6,2.2,1.2,4.3,3.2,5.7c0.3,0.2,0.4,0.6,0.6,0.9
		c-0.2,0.6-0.4,1.1-0.6,1.6c0.4,0.2,0.5,0.5,0.8,0.5c5.8,1.4,11.7,2.1,17.7,1.3c3-0.4,5.9-0.6,8.9-0.8c1.4-0.1,2.8-0.1,4.1,0.2
		c3.1,0.9,6.4,1.1,9.3,2.6c0.5,0.3,1.2,0.4,1.8,0.4c3.6,0.3,7.2,0.5,10.7-0.1c-0.1-0.2-0.1-0.3-0.2-0.4c-0.2-0.2-0.4-0.4-0.6-0.4
		c-3.2-0.4-5.8-1.8-8.3-3.7c-0.2-0.1-0.4-0.2-0.7-0.3c-2.3-0.9-4.7-1.7-7-2.6c-1.5-0.6-3-1.2-4.4-2c-0.6-0.3-0.8-0.9,0.1-1.5
		c2.9,0.7,5.9,1.4,8.9,2.2c1.5,0.4,3.1,0.8,4.4,1.9c0.7,0.6,1.9,1,2.7,0.9c1.6-0.2,2.9,0.3,4.4,0.5c2.3,0.4,4.7,0.8,7,1.1
		c2.3,0.3,4.7,0.4,7,0.7c2.1,0.2,4.2,0.5,6.3,0.6c1.8,0.1,2.5-0.6,2.8-3c-0.5-0.1-0.9-0.2-1.4-0.3c-3.2-0.5-6.4-0.8-9.6-1.5
		c-4.5-1-9.1-1.5-13.7-1c-0.7,0.1-1.5,0.1-2.2,0c-1.9-0.3-3.9-0.8-5.8-1.2c-0.6-0.1-1.1-0.5-1-1.5c0.7-0.1,1.4-0.3,2.1-0.1
		c3.3,0.7,6.7,0.5,10,0.2c2-0.2,4-0.1,5.9,0.3c3,0.6,6.1,1.2,9.2,1.6C702.8,334.1,705.7,334.5,708.4,335.8z M385.3,160.5
		c0.9,2.9,1.8,5.6,2.6,8.3c3,10,6.3,19.9,10.4,29.5c2.3,5.4,4.4,10.8,5.8,16.5c1.8,7,4.9,13.2,8.9,19.2c0.5,0.8,1,1.8,2.2,2
		c1.9-0.4,3.7-1.3,5.4-2.3c6.1-3.6,12.4-6.9,18.2-11c1.7-1.2,3.6-2.2,5.4-3.3c6.6-3.7,13.4-6.9,21-8.4c6.2-1.2,12.4-2.7,18.2-5.3
		c0.4-0.2,1-0.4,1.4-0.3c1.6,0.2,2.9-0.5,4.3-1.2c2.3-1,4.5-2.2,6.7-3.3c0.6-0.3,1.2-0.8,1.5-1.1c-0.7-3.8-1.4-7.4-2-10.9
		c-0.5-2.8-0.8-5.7-1.7-8.4c-2.8-8.1-5.6-16.2-7.8-24.5c-1.7-6.2-3.4-12.5-5.1-18.7c-0.4-1.4-0.9-2.8-1.4-4
		c-2.2-1.3-4.5-1.5-6.7-1.8c-1.6-0.2-3.2-0.6-4.4-1.8c-1.1-1.1-2.5-1.6-4-2c-8.6-2.4-17.4-3.1-26.2-2.5c-5.5,0.4-10.9,1-16.3,1.7
		c-1.4,0.2-2.9,0.8-4.2,1.5c-3.6,1.9-7.2,4-10.7,6.1c-3.5,2.1-6.8,4.5-8.9,8.3c-0.1,0.3-0.1,0.6-0.1,1.4c1.1-1,1.9-1.7,2.7-2.6
		c3.5-4.2,7.9-7.1,12.9-9.3c1.6-0.7,3.2-1.4,4.8-2c2.2-0.9,4.3-1.9,6.8-1.6c0.6,0.1,1.2-0.2,1.8-0.4c3.3-0.9,6.6-1.3,10-1.3
		c4.2,0,8.5-0.1,12.7,0.2c3.3,0.2,6.7,0.8,10,1.4c2.1,0.4,4,1.3,5.6,2.7c0.4,0.3,0.6,0.8,0,1.2c-0.3-0.1-0.7-0.1-1-0.3
		c-3.5-1.7-7.3-2.4-11.2-2.5c-4.5-0.1-8.9-0.1-13.4-0.2c-4.9-0.1-9.7,0.4-14.4,1.9c-1.5,0.5-3.1,0.8-4.7,1.3
		c-5.8,1.7-11,4.5-15.3,8.8c-1.8,1.9-3.5,3.9-5.2,5.9c-1.5,1.8-2.7,3.9-4.3,5.6c-2.2,2.4-4.2,4.9-5.9,7.6c-0.1,0.1-0.4,0.1-0.7,0.2
		c-0.4-0.6-0.7-1.2-1.2-2C387,159.4,386.2,159.9,385.3,160.5z M120.9,295.4c1.2-1.3,2.4-2.5,2.9-4.3c0.7-2.6,1.4-5.3,2.1-7.9
		c0.4-1.6-0.2-2.3-1.9-2.4c-1.7-0.1-3.5,0-5.2-0.3c-1.8-0.3-3.4-0.3-5.1,0.3c-1.9,0.6-3.9,0.8-5.9,0.4c-3.2-0.7-6.4-1-9.6-1.2
		c-0.5,0-1-0.2-1.5-0.3c-6.5-1.4-10.6-7.5-9.1-14c0.6-2.4,1.6-4.7,2.5-7c0.9-2.3,2.2-4.4,4.3-5.9c1.2-0.9,2.2-2,3.2-3.1
		c0.3-0.3,0.4-0.8,0.6-1.2c-1.1-0.8-2.1-0.6-3,0c-3.5,2.1-7.4,2.9-11.3,3.8c-4.6,1.1-9.2,2-13.6,3.6c-2.7,1-5.4,1.8-8.1,2.8
		c-2.3,0.9-4.6,1.9-6.9,2.9c-1,0.4-2.1,0.7-3,1.1c-0.6,1.9-0.3,3.6-0.3,5.2c1.6,1.6,1.6,1.6,1.9,3.5c0.1,0.7,0.2,1.5,0.3,2.2
		c0.9,9,4.6,16.7,10.6,23.3c1.4,1.6,2.7,3.3,4.1,4.8c0.7,0.7,1.5,1.3,2.3,1.9c1.6,1,3.2,1.9,4.8,2.8c1,0.6,1.7,1.5,1.5,2.8
		c-0.3,2.4,0.3,4.7,1.1,7c1.5,4.6,3.2,9.1,4.7,13.8c0.7,2.2,1.9,4,3.7,5.5c3.9,3.2,8.2,6,12.5,8.6c0.8,0.5,1.8,0.9,2.7,1.2
		c6.4,2.3,12.7,5,19.4,6.6c1.8,0.4,3.4,0.5,5.1-0.1c0.8-0.3,1.7-0.5,2.5-0.8c2.6-1.2,4.8-2.9,6.3-5.4c-0.6-0.7-1.2-1.1-1-2.1
		c0.7-3,0.5-6.2,0.7-9.4c-1.4-0.9-2.8-1.7-4.1-2.7c-1.3-1-2.5-2-3.6-3.2c-1.1-1.3-2.1-2.8-2.9-4.3c-0.7-1.4-1.1-3-1.6-4.6
		c-0.5-1.5,0.3-3.2-0.3-4.6c-1.3-0.1-2.4,0-3.5-0.2c-0.9-0.1-1.3-1.4-0.7-2.1c0.4-0.5,0.9-0.9,1.4-1.1c0.9-0.3,1.9-0.4,2.8-0.6
		c0.9-3.3,0.9-3.6,0-5.5c-1.2,0.6-2.4,1.2-3.7,1.7c-1,0.4-2,0.3-2.8-0.5c-0.4-0.4-0.7-1-0.8-1.6c-0.1-0.7,0.5-1.1,1.1-1.3
		c1.8-0.5,3.6-0.9,5.5-1.4c-0.3-1.5-0.7-2.9-1.7-4.1c-0.9,0.6-1.7,1.2-2.6,1.6c-0.9,0.4-1.8,0.8-2.8,1.1c-1.1,0.4-2.2,0.3-3.2-0.3
		c-0.9-0.6-1.1-2-0.1-2.4C114.7,296.5,117.4,294.5,120.9,295.4z M626.6,135.2c-2.4-1.3-4-3-5.2-5.1c-1.5-2.5-2.6-5.1-3.4-7.8
		c-0.4-1.3-0.9-2.6-1.5-3.8c-1.4-2.7-2.3-5.5-2.3-8.6c0-1.7,0-3.5,0.1-5.2c0.4-10.4,4.5-19,12.9-25.3c0.9-0.7,1.7-1.4,2.5-2.2
		c3.4-3.3,7.5-5.3,12.2-6c4.2-0.6,8.5-0.7,12.6,0.1c10,1.8,18.8,6.2,26.3,13.2c1.6,1.5,2.9,3.1,2.9,5.4c0,1.1,0.5,2.2,0.7,3.2
		c0.1,0.6,0.3,1.2,1.2,1c0.4-5.3,0.6-10.6-0.5-16c-1.1-0.5-2-1.2-2.3-2.6c-0.9-4.5-0.9-4.4-6-6c-0.1,0-0.2-0.1-0.4-0.1
		c-6.3-1.4-12.6-2.7-19.1-2.9c-2.7-0.1-5.5-0.2-8.2-0.3c-2.5-0.1-4.9-0.6-7.3,0.4c-0.6,0.3-1.5,0.1-2.2,0.2c-4.7,0.3-9.4,0.7-14,1.8
		c-2.7,0.7-5.3,1.5-8,1.8c-2.1,0.2-3.8,0.8-5.5,1.9c-0.7,0.5-1.5,1.1-2.3,1.2c-4.5,0.6-8.5,2.7-12.7,4c-6.2,1.9-11.9,5-17.3,8.6
		c-4.6,3-9.2,6-13.7,9c-0.6,0.4-1.1,0.9-1.6,1.5c0.9,1.8,1.6,3.5,2.5,5.2c0.3,0.5,0.6,1.2,1.1,1.4c1.2,0.5,1.5,1.6,2,2.6
		c0.9,1.8,1.9,3.5,2.9,5.2c1.5,2.5,3.1,4.8,4.5,7.3c6.5,11.8,11.2,24.4,13.7,37.7c0.7,3.9,1.4,7.8,2.2,11.7c0.2,0.8,0.5,1.6,0.8,2.6
		c3.3-0.9,6.4-1.6,9.5-2.6c1.9-0.7,3.6-0.7,5.4,0.2c1.3,0.7,2.6,1.2,4,1.4c2-4.9,3.9-9.6,5.9-14.3c0.4-1,0.7-2.1,1.2-3.1
		c1.7-4.3,3.3-8.6,5-12.8C625.3,137.9,625.9,136.8,626.6,135.2z M382.6,161c-4.7,1.5-9.2,2.9-13.7,4.2c-11,3.3-21.6,7.3-32,12.3
		c-10.6,5.1-21.3,10.1-32.4,14.3c-3,1.2-6.1,2.2-9,3.5c-6.6,2.9-13.5,5-20.3,7.3c-2.5,0.8-5,1.4-7.7,1.4c-1.1,0-2.2,0.2-3.3,0.5
		c-3,1-6.1,1-9.2,0.6c-1-0.1-2-0.3-2.9-0.3c-4,0.1-7.9,0.1-11.9,0.3c-4.1,0.2-8.2,0.7-12.2,1.1c-6.4,0.7-12.8,1.5-19,3.8
		c-3.7,1.4-7.4,2.8-11.2,4.2c-1,0.4-2.1,1-3.2,1.1c-1.9,0.2-3.6,1-5.3,1.8c-2.7,1.2-5.5,2.4-8.2,3.6c-0.9,0.4-1.7,0.9-3.3,1.7
		c1.3-0.1,1.8,0,2.3-0.1c7-2,14.2-3.6,21.4-4.8c9.3-1.5,18.6-3.3,28.1-3.8c4.8-0.2,9.7-0.7,14.5-1c1.1-0.1,2.1,0.2,3.5,0.4
		c4.4-2.1,9.2-4.1,14.5-4.4c5.1-0.4,10.1-1.6,14.8-3.6c6.6-2.8,13.2-5.7,19.8-8.6c4.3-1.8,8.7-3.6,13.1-5.4
		c11.1-4.3,22.2-8.6,33-13.8c1.1-0.5,2.3-1,3.5-1.4c9.1-3.3,18.3-6.5,27.4-9.8c2.7-1,5.2-2.4,7.8-3.6
		C382.1,162.5,382.7,162.2,382.6,161z M125.4,312c-0.2,1.9-0.4,3.6-0.5,5.3c0,0.5,0.1,1,0.3,1.4c0.5,1.3,0.8,2.7,1.6,3.8
		c2.1,3.2,3.7,6.8,7.6,8.3c2.9,1.1,3.9,3.2,3.2,6.2c-0.3,1.1-0.4,2.4,0.3,3.7c2.1-0.7,3.4-1.7,3.5-3.9c0-1.9,0.3-3.7,0.2-5.6
		c-0.1-3.2-2.1-5.2-5.4-5.5c-0.7-0.1-1.5,0-2.2-0.2c-1.7-0.4-2.7-1.7-3.3-3.3c-0.7-1.8-1.4-3.7-2.2-5.5c-0.6-1.4-1.4-2.6-2.1-3.9
		C126.2,312.5,125.8,312.3,125.4,312z M82.8,250.2c0-0.1,0-0.2,0-0.4c-0.4,0-0.7-0.1-1.1,0c-7.4,1.8-14.9,3.7-22.3,5.6
		c-0.5,0.1-1,0.3-1.3,0.6c-0.4,0.4-1,0.8-0.2,1.7c1.1-0.4,2.2-0.8,3.3-1.2c2.5-0.8,4.9-1.8,7.4-2.5c3.9-1.1,7.9-2,11.8-3
		C81.3,250.8,82,250.5,82.8,250.2z M796.6,322.9c2.4,0.8,4.8,1.6,7.1,2.4c0.2-0.2,0.5-0.5,0.4-0.6c-0.2-0.4-0.4-1-0.8-1.1
		C801.1,322.9,798.8,322.5,796.6,322.9z M758.4,28.2c0.4,3,1.2,3.5,4.2,2.5C761.2,29.7,759.9,29,758.4,28.2z M768.6,121.2
		c0-1.1,0-1.9,0-2.8c-0.8,0-1.4-0.3-1.7,0.5C767.4,119.6,767.9,120.2,768.6,121.2z M685.8,72.8c-0.3,0.2-0.6,0.3-0.6,0.4
		c0,0.4,0.1,0.7,0.2,1.1c0.2-0.2,0.6-0.3,0.7-0.6C686.1,73.4,685.9,73.1,685.8,72.8z M101.1,252.1c-0.1-0.2-0.2-0.5-0.4-0.5
		c-0.1-0.1-0.4,0.1-0.6,0.2c0.2,0.2,0.3,0.5,0.5,0.7C100.8,252.3,101,252.2,101.1,252.1z M755.9,28.1c-0.2-0.1-0.4-0.1-0.6-0.1
		c-0.1,0-0.2,0.1-0.3,0.2c0.2,0.1,0.4,0.3,0.6,0.3C755.6,28.5,755.7,28.2,755.9,28.1z"/>
	<path d="M809.1,548.1c0-0.6-0.1-1.2,0.1-1.8c0.3-0.8,0.7-1.6,1.1-2.4c2.2-4.8,4.5-9.7,6.7-14.6c0.9-2.2,1.6-4.4,2.3-6.7
		c0.1-0.3,0-0.7,0-1.3c-1.8,0.4-3.3,1.1-4.9,2.1c-2,8.3-3.4,16.9-7.2,25.5c-0.7-2.2-0.2-3.5,0.1-4.7c1.2-5.7,2.5-11.4,3.7-17.1
		c0.1-0.7,0.1-1.4,0.1-2.2c-0.6,0-1,0-1.3,0.1c-1.7,0.7-3.4,1.4-5,2.1c-1.2,4.6-3,8.9-2.9,13.6c0.1,3.9-0.2,7.9,0.9,11.8
		c0.6-8.3,1.2-16.6,4.5-24.4c0.1-0.3,0.5-0.4,1-0.9c0,0.8,0.1,1.4,0,2c-0.3,1.2-0.6,2.4-1,3.6c-1.1,3.2-1.7,6.5-2,9.8
		c-0.2,2.6-0.5,5.2-0.8,7.8c-0.1,1.2-0.6,2.4-0.2,3.7c0.1,0.3,0.1,0.8-0.1,1.1c-0.9,1.3-0.4,2.6,0,3.9c0.4,1.3,0.7,2.6,1.1,3.9
		l0.1-0.1c-1.9-1.2-2.8-3-3.5-5.1c-1.2-3.5-1.9-7-1.7-10.6c0.1-1.1,0.1-2.2,0-3.4c-0.3-5.1,0.9-9.9,2.9-14.5c0.1-0.3,0.2-0.7,0.3-1
		c-0.6-0.7-1-0.2-1.2,0.2c-2.8,5.6-4.7,11.5-6.3,17.5c-0.2,0.7,0,1.5-0.2,2.2c-0.1,0.7-0.5,1.3-0.8,2.1c-1.3-1.5-2.1-3-2.1-5
		c0-2.7,0-5.5,0.3-8.2c0.4-3.2,1-6.4,1.6-9.7c-1.5-0.9-3.1-0.6-4.5,0.1c-3.1,1.6-6.3,2.9-9,5.2c-1.9,1.6-4.1,2.8-6.1,4.2
		c-1.1,0.7-2.5,0.4-3.2-0.9c-1-1.7-1.8-3.5-2.7-5.5c-0.9-0.7-2.3-0.8-3.3-0.1c-2.4,1.5-4,0.5-5.4-1.4c-0.1-0.1-0.2-0.1-0.3-0.2
		c-4,2.3-4.1,2.3-8.4-0.3c-2.2,0.4-4.4,0.8-6.7,1.3c-0.2,1-0.6,1.9-0.7,2.9c-0.3,3.5-0.6,6.9-0.9,10.4c-0.3,3.6-0.5,7.2-0.7,10.8
		c0,0.3,0,0.7,0.1,1.2c1.5,0.5,3,0.4,4.4,0c4.7-1.2,9.4-0.5,14.1-0.5c1.8,0,3.5,0.8,4.5,2.3c1.5,2.2,3.7,3.2,6.3,3.5
		c3.8,0.5,7.6,1.1,11.4,1.7c1.5,0.2,2.9,0.7,4.3,1.1c1.3,0.4,2.6,0.8,3.9,1.2c3.1,0.9,6.2,1.6,9.5,1.7c1.8,0.1,3.7,0.4,5.1,1.9
		c1.6,1.7,1.6,3.1-0.3,4.3c-1.4,1-3,1.5-4.8,1.8c-4.6,0.7-9.2,0.1-13.7-0.6c-2.7-0.4-5.4-0.8-8.1,0c-2.9,0.8-5.7-0.1-8.5-0.5
		c-0.9-0.1-1.7-0.4-2.4-0.6c-0.4,0.1-0.7,0.1-0.8,0.2c-1.6,1.5-3.5,1.7-5.6,1.3c-0.7-0.1-1.5-0.2-2.2-0.5c-3.3-1.4-6.8-1.2-10.3-1.5
		c-1.5-0.1-2.9,0-4.3,0.8c-1.1,0.6-2.6,0.7-4,0.7c-2.5,0.1-5-0.1-7.5-0.1c-2,0-3.6-0.7-5.2-1.8c-2.9-2-5.8-3.9-6.5-7.7
		c-2.4-2.2-2.2-5.1-2.1-8c0.2-5.9-0.4-11.7-1-17.5c-0.7-6.9-1.5-13.8-2.3-20.8c0-0.3-0.2-0.7-0.3-1.1c-1.2-0.2-2,0.4-2.4,1.3
		c-0.9,2.1-2.5,3.4-4.2,4.7c-0.8,0.6-1.6,1.2-2.3,1.9c-2.5,2.5-5.4,4.3-8.6,5.8c-1.6,0.7-3,1.8-4.4,2.8c-3.5,2.8-6.9,5.7-10.4,8.5
		c-2.2,1.8-4.6,3.4-6.9,5c-1.4,1-2.9,1.9-4.3,2.9c-9.4,6.7-19.5,8.1-30.5,4.7c-0.9-0.3-1.9-0.6-2.8-0.9c-0.1,0-0.2,0-0.5,0
		c-0.1,0.3-0.3,0.7-0.2,1c0.6,1.6,0.6,3.1-0.4,4.6c0.6,1.1,1.2,2,1.8,3c0.3,0.5,0.6,1.1,0.7,1.7c0.2,0.7-0.1,1.3-0.7,1.5
		c-0.5,0.1-1.3,0.1-1.7-0.2c-0.6-0.4-1-1.1-1.3-1.8c-0.6-1.5-1.1-3-1.6-4.6c-0.5-1.7-1-3.3-1.4-5c-0.2-0.7-0.4-1.6-0.2-2.2
		c1.2-2.8-0.4-4.9-1.5-7.2c-0.3-0.5-0.7-1-0.9-1.6c-0.5-2.6-1.2-5.1-1.3-7.7c-0.1-2.7,0.2-5.5,0.5-8.2c0.3-2.6,0.7-5.2,1.2-7.7
		c0.6-3,1.4-6,1-9.1c0.6-0.5,1.1-0.8,1.6-1.2c-0.3-2-1-3.9-2-5.6c-1-1.7-2.1-3.4-3.3-5.3c0.6,0,1-0.1,1.2,0c2.6,2,4.6,4.4,5.8,7.6
		c0.9,2.3,0.9,4.6,0.6,7c-0.1,0.7-0.3,1.6-0.8,2.1c-1.3,1.3-1.4,2.9-1.8,4.4c-1.5,5.9-1.4,11.8-1.5,17.8c0,1,0.1,2,0.4,2.9
		c1.1,3.4,2.3,6.8,3.4,10.1c2.3,1.3,4.7,1.7,7,1.8c5.6,0.4,11.2,0.6,16.6-1.2c5.9-1.9,11.7-4.1,17.5-6.3c1.6-0.6,3-1.8,4.3-2.9
		c3.1-2.7,6-5.6,9-8.4c2.5-2.3,5.2-4.3,8.1-5.9c3.3-1.8,6-4.3,8.4-7.2l0.2-0.1l-0.1,0.2c-1.7-0.2-3.1,0.6-4.5,1.5
		c-2.3,1.4-4.7,2.9-7.1,4.1c-3.3,1.7-6.7,3.2-10.6,3.4c-1,0-1.9,0.5-2.8,0.8c-5.2,1.7-10.5,1.8-15.8,0.5c-4-1-7.3-3.1-10.1-6.1
		c-2.6-2.8-4.3-6-4.4-9.8c-2.3-1.1-4.4-2.2-6.7-3.3c-2.8,0.3-5.4-0.8-8.1-3.1c2.8-0.3,4.5,1.6,7,1.9c2.7-0.8,5.6-0.5,8.6-0.2
		c4.6,0.5,9.2,0.4,13.8,0.8c4.9,0.4,9.9,1,14.8,1.6c0.9,0.1,2,0.1,2.6,1.3c-0.4,0.1-0.8,0.3-1.1,0.3c-3.1-0.3-6.2-0.6-9.3-0.9
		c-1.9-0.2-3.7,0.1-5.5,0.3c-4.1,0.5-8.2,0.6-12.3,0.9c-0.6,0-1.2,0.1-1.6,0.1c-0.8,0.8-0.6,1.6-0.4,2.3c0.6,2,1.8,3.5,3.4,4.8
		c2.2,1.9,4.8,3,7.6,3.9c2.9,0.9,5.8,1.5,8.8,1.7c2.4,0.1,4.7,0.3,7.1,0.4c3.9,0.2,7.7-0.5,11.2-2.4c3.3-1.8,6.5-3.7,9.6-5.7
		c2.1-1.3,4.1-2.3,6.6-1.9c1.6,0.2,3.3-0.2,4.7-1c1.6-0.9,3.1-2,4.7-3c0.6-0.4,1-1.2,1.7-1.4c4.7-1.9,5.3-6.2,6-10.3
		c0.5-3,0.1-5.9-1.2-8.7c1.2-0.3,1.2-0.3,2.4,0.4c0.1-0.1,0.4-0.3,0.4-0.5c-0.2-6.3-1.8-12.3-4.4-18c-0.2-0.6-0.6-1.2-1-1.6
		c-2.6-2.3-5-4.8-8.4-6.1c-6.2-2.3-12.6-4-19.1-5.1c-7.4-1.3-14.8-0.8-22.3,0.4c1.2,0.3,2.3,0.6,3.5,0.8c2.9,0.6,5.9,1.1,8.7,1.8
		c1.2,0.3,2.3,0.4,3.6,0.2c1.8-0.3,3.7-0.2,5.6-0.1c0.5,0,1,0.5,1.9,1c-1.7,0.4-2.9,0.7-4,1.1c-0.3,0.5-0.6,1-0.9,1.4
		c-0.5,0-0.9,0.1-1.2,0c-8.9-2-17.9-3.2-26.9-4.2c-7.4-0.8-14.9-1.4-22.3-1c-2.3,0.1-4.7,0.7-7,1.2c-1.6,0.4-3.1,1-4.6,1.6
		c-3,1.2-6.1,2.1-9.4,1.9c-1.8-0.1-3.4,0.6-5,1.3c-4.4,1.7-8.8,3.4-13.2,5.1c-0.7,0.3-1.5,0.3-2.2,0.4c-1.7,1.1-2.4,2.8-2.9,4.8
		c-2.1,0.2-2.8,2.1-4.2,3.4c0.8,3.2,1.6,6.3,2.2,9.4c1.4,6.8,2.7,13.6,4,20.5c0.5,2.5,1.1,4.8,2,7.2c2.5,6.1,5.1,12.2,8.6,17.8
		c0.8,1.2,1.3,2.7,1.8,4.1c1.1,3.2,2.1,6.4,3.2,9.5c1.6,4.2,3.8,8.1,6.6,11.6c0.9,1.2,1.8,2.4,2.2,3.8c0.3,1.1,0.9,2.1,1.5,3
		c1.2,1.9,2.5,3.7,3.7,5.6c1.3,2,3,3.1,5.4,3.6c6,1.3,12,1.9,18.1,0.9c1.8-0.3,3.7-0.2,5.6-0.5c5-0.8,9.6,0.6,14.2,2.1
		c1.7,0.5,3.3,1.1,5,1.1c3,0,5.9,0,9.4,0c-1.1-1.2-2.1-1.6-3.1-1.5c-1.5,0-2.7-0.5-3.8-1.4c-2.7-2.1-5.9-3.2-9-4.3
		c-1.8-0.6-3.5-1.3-5.2-2c-0.5-0.2-0.9-0.7-1.6-1.2c0.6-0.3,0.9-0.6,1.2-0.5c2.9,0.7,5.8,1.4,8.7,2.1c1.7,0.4,3.4,0.8,4.8,2
		c0.6,0.5,1.7,1,2.4,0.8c1.8-0.4,3.4,0.3,5.1,0.7c1.5,0.3,2.9,0.6,4.4,0.7c4.8,0.5,9.7,0.9,14.5,1.5c2,0.2,3.4-0.4,4.1-2.6
		c-0.5-0.2-1-0.5-1.5-0.6c-5-0.5-9.8-1.5-14.7-2.5c-1.2-0.3-2.5-0.3-3.7-0.2c-2,0-4,0.1-6,0.2c-2.4,0.1-4.7-0.4-7-1.2
		c-0.6-0.2-1.2-0.5-1.1-1.3c0.3-0.7,1-0.7,1.6-0.5c3.8,0.8,7.7,0.6,11.5,0.2c1.1-0.1,2.3-0.1,3.3,0c4.7,0.7,9.3,1.5,13.9,2.4
		c1.8,0.3,3.6,0.9,5.4,1.4c0.2-0.9,0-1.7-0.6-1.8c-1.2-0.2-2.4-0.4-3.7-0.6c-4.4-0.6-8.9-1.2-13.3-1.9c-2.1-0.3-4.1-0.7-6.2-0.7
		c-2.2,0-4.4-0.4-6.5-1.5c-2.7-1.4-5.8-1.2-8.6-2.2c-2.7-1-5.5-1.3-8.4-1.2c-4.2,0.1-8.5-0.1-12.7-0.2c-1.5,0-2.9-0.4-4.4-1
		c0.5-0.2,0.7-0.4,0.9-0.4c6.2-0.3,12.4-0.7,18.6-1c1.6-0.1,3.1,0.2,4.7,1c1.6,0.8,3.6,1,5.4,1.3c1.8,0.3,3.7,0.5,5.2,1.8
		c0.4,0.3,0.9,0.5,1.4,0.5c3.1,0.3,6.1,1.1,9.2,1.1c2.2,0,4.5,0.4,6.6,0.9c2.2,0.5,4.4,0.9,6.6,0.9c2.8,0,5.4,0.5,7.9,1.9
		c0.5,0.3,1.1,0.7,1.5,1.1c1.1,1.3,1,2.8-0.1,4.1c-0.3,0.4-0.7,0.7-1.1,1c-1.4,0.8-2.7,1.7-3.6,3.1c-0.7,1-1.8,1.3-3,1.2
		c-1.5-0.1-3-0.3-4.5-0.4c-4-0.3-7.9-0.6-11.7-0.9c-0.4,0.3-0.7,0.5-0.7,0.7c-0.2,2.5-1.6,3.6-4.1,3.9c-2.7,0.3-5.4,0.3-8.2,0
		c-4.2-0.4-8.2-1.8-12.3-2.8c-1.4-0.3-2.7-0.4-4.1-0.4c-3.7,0.2-7.4,0.7-11.1,1.4c-3.6,0.7-7.1,0.8-10.7,0.1c-0.1,0-0.2,0-0.4,0
		c-4.8,0-8.6-2.2-11.8-5.5c-0.9-0.9-1.7-1.7-2.1-3c-0.1-0.6-0.5-1.1-0.9-1.6c-3.9-4.9-6.5-10.6-9.1-16.2c-1.3-2.8-2.4-5.7-3.4-8.7
		c-1-3-2.6-5.6-4-8.2c-4.7-1.4-9.2-1.1-13.8-0.5c-2.8,0.4-5.7,0.2-8.6,0.4c-1.6,0.1-3.3,0.1-4.8,0.7c-3.9,1.5-7.8,1.5-11.7,1
		c-5.6-0.6-11.1-1.1-16.7-1.6c-1.2-0.1-2.5-0.2-3.7,0c-11.5,1.1-22.8,0-33.8-3.8c-0.2-0.1-0.5,0-0.9,0c0,1.5-1,2.3-2.4,2.6
		c-3.9,1-7.7,2-11.6,2.9c-4.7,1.1-9.5,1.3-14.4,1.1c-6.9-0.2-13.9-0.6-20.8,0.6c-1.8,0.3-3.7,0.3-5.6,0.6c-1.2,0.2-2.5,0.4-3.6,0.7
		c-3.6,1.1-7.1,2.3-10.6,3.5c-5.1,1.7-10.1,3.6-15.4,4.4c-0.9,0.1-1.7,0.3-2.6,0.3c-3.5-0.2-6.9,0.4-10.4,0.7
		c-3.8,0.3-7.7,0.4-11.6,0.4c-11.1,0.1-22.1-0.9-33.1-2c-7.3-0.8-14.6-1.6-21.9-2.5c-3.4-0.4-6.9-1.2-10.3-1.9
		c-6.1-1.2-12.2-2.5-18.2-3.9c-3.5-0.8-7-1.8-10.4-2.8c-3.6-1.1-6.6-3.3-9.7-5.8c1.4-0.5,2.2,0.2,3.1,0.4c4.9,1.7,9.9,3.4,14.8,5.1
		c3.9,1.3,8,2,12.1,2c4.1,0,8.2,0.9,12.2,1.7c6.5,1.3,13,2,19.6,2.7c7.9,0.9,15.8,1.8,23.7,2.6c8.5,0.8,17.1,1.3,25.7,1.2
		c1,0,1.9-0.2,3.1-0.3c-0.2-0.9-0.2-1.6-0.4-2.3c-2.5-7.2-3.3-14.8-3.9-22.4c0.9-3.4-0.4-6.6-0.9-9.9c-0.6-3.8-1.1-7.6-1.7-11.4
		c-0.2-1.1-0.4-2.2-0.6-3.4c-1.3,0-2.5,0-4.5,0c1.8-0.9,3-1.4,4.3-2.1c-0.2-3.1-0.5-6.2-0.6-9.3c-0.2-3.2-0.3-6.5-0.4-9.7
		c-0.1-3.1,0.5-6.1,0.3-9.4c-1.3,0.2-2.1,0.3-2.9,0.5c-3.7,1-7.5,1.6-11.4,1.9c-5.9,0.5-11.9,1.2-17.8,1.8c-0.6,0.1-1.2,0.2-1.9,0.2
		c-5.3,0-10.4,1.1-15.5,2.1c-4.5,0.9-9.1,1.2-13.7,1.8c-8.8,1.1-17.5,2.1-26.3,3.2c-5.1,0.7-10.1,1.5-15.1,2.3
		c-0.7,0.1-1.5,0.2-2.2,0.3c-6,0.3-11.9,0.6-17.8,1.1c-2.4,0.2-5,0-7.4-0.5c-3-0.5-5.9-0.6-8.9-0.2c-2.5,0.4-4.9,0.1-7.3-0.8
		c-1-0.4-2.2-0.6-3.2-0.7c-8.2-0.6-16.3-1.6-24.3-3.8c-4-1.1-8.1-1.2-12.2-1.6c-9.9-0.9-19.9-1.3-29.8-1.2c-0.1,0-0.3,0-0.4,0
		c-4.3-0.9-8.4,0.3-12.5,1.1c-6.3,1.3-12.7,2.5-19.1,3c-3.6,0.3-7.1,1.2-10.6,2.2c-10.2,2.8-20.6,3.5-31.1,2.8
		c-1.4-0.1-2.7-0.1-4.1-0.2c-2.5-0.2-4.9-1.1-7.1-2.2c-1.2-0.6-2.4-0.7-3.6-0.4c-1.6,0.4-3.1,1-4.6,1.6c-0.5,0.2-1,0.7-1.4,1.2
		c-1.6,2.4-3.2,4.7-4.7,7.2c-1.8,3-1.2,6.3-0.5,9.4c0.3,1.3,1.3,2.1,2.4,2.8c1.2,0.7,2.4,1.4,3.6,2c3.2,1.4,6.3,2.9,9.7,3.8
		c1.7,0.5,3.5,0.7,5.2,0.2c2.6-0.7,5.2-0.5,7.8-0.4c4.8,0.3,9.7,0.7,14.5,1c3,0.2,6,0.2,8.9,0.4c5.5,0.3,10.8,1.8,15.9,3.6
		c1.3,0.5,2.5,1,3.8,1.3c3.2,0.9,6.5,1.5,9.7,2.5c5.2,1.6,10.6,2.8,15.9,3.9c2.3,0.5,4.7,0.8,7,1c6.9,0.8,13.8,1.6,20.8,2.2
		c3.6,0.3,7.2,0.1,10.8,0.1c5.1,0,10.2,0.1,15.3,0c4.4-0.1,8.7-0.6,12.7-2.4c1.7-0.7,3.1-0.6,4.4,0.2c1.6,0.1,2.8-1.7,4.5-0.4
		c-2.7,1.3-5.9,0.7-8.5,2.5c0.6,0.5,0.9,0.8,1.3,1c2,1,4,2,6,3c0.6,0.3,1.2,0.6,1.8,0.6c4.2,0.2,8.3,1.2,12.6,0.9
		c2.6-0.1,5.2,0.4,7.7,1c4.9,1.3,9.8,1.9,14.8,1.7c0.6,0,1.2,0,1.8,0.2c0.2,0.1,0.4,0.5,0.7,1.1c-1,0.3-1.7,0.7-2.5,0.8
		c-4.7,0.4-9.4,0.4-14.1-0.8c-3.4-0.9-6.8-1.5-10.3-1.2c-3.3,0.3-6.1-0.9-8.7-2.8c-0.8,0.2-1.5,0.5-2.2,0.5c-0.6,0-1.2-0.3-1.8-0.5
		c-1.8-0.8-3.7-1.5-5.7-1.8c-1.3-0.2-2.5-1.1-3.8-1.6c-0.7-0.3-1.4-0.7-2.1-0.6c-3,0.4-5.9,0-8.9,0.6c-4.6,0.9-9.4,0.8-14.1,0.6
		c-9.9-0.4-19.9-1.2-29.8-1.9c-4.3-0.3-8.7-1-12.8-2.4c-0.7-0.2-1.4-0.4-2.2-0.6c-6.9-1.6-13.8-3.1-20.7-4.8
		c-1.8-0.4-3.6-1.1-5.3-1.8c-4.9-2.1-10-2.9-15.3-3c-3.2-0.1-6.5,0-9.6-1c-0.5-0.1-1-0.2-1.5-0.3c-0.4,0-0.7,0-1.1,0
		c-2.7,0-5.4,0-8.6,0c0.7,0.7,1,1,1.3,1.3c1.3,1.3,1.7,2.8,1,4.4c-1.3,3.1-2.7,6.2-4.3,9.1c-0.8,1.4-2.4,2.4-3.9,3.9
		c0,0.5-0.2,1.4,0,2.2c0.7,3.7,0.9,7.4-0.8,10.8c3.5,4,3.5,9.1,4.6,13.7c3.1,1.5,5.1,4.1,7.1,6.5c1.1,1.4,1,3.3,0.8,5
		c-0.1,1.8-0.6,3.7-1.2,5.5c-0.7,2.3-2.3,3.8-4.6,4.5c-1.1,0.3-2.2,0.6-3.5,0.9c-0.7,2.8-2.5,4.8-5,6.4c-2.9,1.8-6,2.5-9.3,2
		c-2.6-0.3-5.2-1-7.4-2.4c-7.5-4.7-14.9-9.5-20.8-16.2c-0.8-0.9-1.7-1.8-2.7-2.6c-2.6-2.4-4.5-5.3-6.3-8.3c-1-1.7-1.5-3.6-1.7-5.7
		c-0.3-5.2-1-10.4-0.4-15.6c0.1-0.7,0.1-1.5-0.1-2.2c-0.5-1.9-0.4-3.7,0.3-5.7c-1.4-1.4-2.7-2.9-4.2-4.2c-1.3-1.2-2.3-2.6-3-4.2
		c-1.1-2.4-2.5-4.6-3.6-7c-2.4-5.1-3.6-10.6-3.9-16.2c-0.2-2.6,0.1-5.2,0.7-7.8c0.4-1.7,0.5-3.4,0.1-5.2c-0.6-2.6-0.1-5.2,0.8-7.7
		c0.6-1.6,1.6-2.5,3.3-2.6c1-0.1,2-0.1,3.2-0.2c0.1-0.4,0.3-0.8,0.5-1.2c0.8-2.9,2.2-3.9,5.1-3.8c2.9,0.1,5.7,0.3,8.6,0.3
		c7.7,0.1,15.4,0.6,23.1,1.7c1.2,0.2,1.2,0.1,2.6,1.2c0.3-0.3,0.6-0.7,1-1.2c2,0.2,4.1,0.4,6.1,0.8c2.8,0.6,3.3,1.4,3.6,4.3
		c0.1,0.5,0.2,1,0.3,1.6c0.9,0.2,1.7,0.4,2.6,0.5c4.2,0.1,8.5,0.2,12.7,0.1c1.8,0,3.7-0.3,5.5-0.8c4-1.1,8.1-1.4,12.1-1.9
		c4.9-0.5,9.9-1.3,14.8-2c5.3-0.8,10.6-1.7,15.8-2.5c3.4-0.6,6.9-1.2,10.3-1.7c5-0.7,10.1-1.3,15.2-2c3.6-0.5,7.1-1.1,10.7-1.8
		c5.5-1,11.1-1,16.7-1.4c10.4-0.8,20.6,0.9,30.7,3c5.5,1.1,10.7,3.1,16,5.1c0.6,0.2,1.1,0.5,1.7,0.6c2.8,0.5,5.7,0.7,8.4,1.7
		c0.8,0.3,1.7,0.1,2.6,0c6.7-0.4,13.4-0.7,20.1-1.2c4.2-0.3,8.4-1,12.6-1.3c9.8-0.9,19.5-2.3,29.2-4c7.1-1.2,14.2-2.4,21.4-3.4
		c4.2-0.6,8.4-1.2,12.6-1.4c8.4-0.4,16.9-0.5,25.4-0.8c1.4,0,2.7-0.2,4.1-0.3c3.8-0.2,6.6-1.9,8.5-5.2c2.5-4.3,6.1-7.5,10.1-10.3
		c3.1-2.1,6.5-3.7,10.1-4.7c4-1.1,8-1.8,12-2.7c2.2-0.5,4.4-0.5,6.7-0.1c2.8,0.6,5.6,0.9,8.5,1c2.6,0.1,5.2,0.5,7.7,1.1
		c5.2,1.1,10.4,2.6,15.3,4.7c5.2,2.1,10.1,4.8,14.1,8.9c0.5,0.5,1.2,0.9,1.8,1.2c2.5,1.1,5,2.2,7.5,3.3c2.1,0.9,4.2,1.4,6.4,1.6
		c6.9,0.6,13.8,1.5,20.8,2.1c3.7,0.3,7.5,0.5,11.2,0.2c4.1-0.4,8-1.6,11.9-3.2c5.1-2.1,10.1-4.1,15.3-6c3-1.1,6.1-2.1,9.2-3
		c0.6-0.2,1.4,0,2.5,0c-0.1,0,0.2,0,0.3-0.1c3-2.5,6.5-4,10.3-5c4-1,7.9-2.2,11.8-3.4c0.1,0,0.2-0.1,0.4-0.1
		c6.9-0.9,13.5-3.2,20.4-4.5c4.2-0.8,8.3-1.4,12.6-1.6c5-0.2,9.9-0.7,14.8-1.5c5.3-0.9,10.7-0.7,16-0.2c1.2,0.1,2.4,0.3,3.7-0.1
		c0.8-0.2,1.7,0,2.5,0.1c1.5,0.3,3,0.4,4.4,0c2-0.6,3.9-0.5,5.9-0.4c3.4,0.2,6.7,0.3,10-0.7c1.3-0.4,2.6-0.4,4,0.3
		c0.7,0.4,1.7,0.3,2.5,0.3c2.1,0,4.2-0.2,6.3-0.2c1,0,2.1,0,2.8,0.8c0.9,1,2,1.4,3.3,1.6c1,0.2,1.9,0.5,2.9,0.8
		c9.6,2.8,16.5,8.9,21.1,17.7c0.4,0.9,0.9,1.7,1.4,2.7c2.2-0.4,4.4-0.4,6.2-1.4c1.8-1,4.2-1.8,4.4-4.5c0-0.4,0.4-0.9,0.7-1.2
		c3.1-3,6.3-6.1,9.4-9c0.8-0.8,1.7-1.4,2.6-2.1c3.1-2.4,6.6-3.9,10.5-4.5c5.2-0.8,10.3-1.8,15.6-1.6c0.5,0,1-0.1,1.7-0.2
		c0.1-0.6,0.2-1.1,0.2-1.7c0-2.8,1-5.3,2.6-7.6c2.1-2.9,4.8-5.1,7.8-6.8c1.5-0.8,3.2-1.3,3.9-3.2c0.2-0.5,1.2-0.9,1.9-1.1
		c5.1-1.2,9.7-0.3,13.3,3.7c1.2,1.4,2.4,2.9,3.2,4.6c2.8,5.8,4.9,11.7,5.2,18.2c0.1,2.6-0.1,5.2-0.3,7.8c-0.1,0.9-0.3,1.9-1.4,2.7
		c0.1-0.8,0-1.5,0.1-2c0.8-3,0.4-6-0.4-8.8c-1.3-4.7-2.8-9.3-4.4-13.8c-0.7-2-1.8-3.8-3-5.6c-1.1-1.7-2.6-3-4.5-3.9
		c-2.3-1.1-4.6-1.1-6.8,0.1c-2.9,1.7-5.8,3.5-8.5,5.3c-2.3,1.6-4.2,3.6-5.5,6c-0.9,1.8-1.8,3.6-1.3,5.7c1.6,1.1,3.8-0.1,5.4,1.4
		c0.1,1.1,0,2.2-0.7,3.1c-3.1,3.8-5.1,8.2-7.2,12.6c-0.8,1.7-1.6,3.4-2.4,5c-0.2,0.4-0.7,0.6-1,0.9l0.1,0.1c0.1-0.8,0.1-1.7,0.4-2.5
		c1.2-3,2.5-5.9,3.8-8.9c0.2-0.5,0.5-1,0.9-1.9c-3.9,2.5-8.2,9.6-10.2,16.8c0-4.7,1-8.7,2.9-12.9c-1.4,0.3-1.8,1-2.3,1.6
		c-0.6,0.6-1.1,1.3-1.6,2c-0.5,0.7-1.1,1.4-1.6,2.1c-0.4,0.6-0.8,1.2-1.2,1.9c-0.4,0.8-0.7,1.6-1.2,2.3c-0.4,0.6-0.4,1.7-1.5,1.8
		c-0.1-0.1-0.2-0.3-0.2-0.3c1.5-4.1,3.3-8,5.9-11.5c2.9-3.9,6.5-6.8,11.2-8.2c1.1-0.3,2.1-0.7,3.2-1.1c0.5-0.2,0.8-0.8,1.5-1.4
		c-0.8-0.3-1.3-0.5-1.7-0.5c-1.6,0-3.2,0-4.8,0.1c-0.7,0-1.5,0.2-2.1,0.6c-1.3,0.9-2.7,1.1-4.2,1.3c-3.1,0.4-6.1,0.9-9.1,2
		c-1,0.4-2.1,0.6-3.2,0.9l0.1-0.1c-3.5,0.7-6.5,2.5-9.6,4.1c-1.8,0.9-3.4,2-5,2.9c-1.1,2.2-2.2,4.1-3,6.2c-1.2,3.2-3.7,5.3-6.5,6.9
		c-3.7,2.1-7.6,3.6-12,3.3c-0.6,0-1.3-0.1-1.9,0.1c-3.4,0.8-6.3-0.6-9.1-2.3c-0.1,0,0-0.2-0.1-0.5c0.3-0.1,0.6-0.3,0.9-0.3
		c1.2,0.3,2.4,0.7,3.6,1c0.4,0.1,0.9-0.2,1.5-0.3c-0.2-1.4-0.8-2.3-1.7-2.9c-2-1.3-3.7-3-6.2-3.2c-1.8-0.1-3.6-1.1-5.6,0.2
		c0.2,0.6,0.3,1.2,0.6,1.6c3.9,6.6,5.9,13.9,7.3,21.4c0.1,0.6,0.3,1.3,0.2,1.8c-1,3.9,0.1,8-1.2,11.8c-0.1,0.4,0,1,0.1,1.5
		c0.1,1.9,0.2,3.7,0.4,5.6c0,0.5,0.2,1,0.3,1.6c0.9,0.2,1.7,0.4,2.5,0.6c1.5,0.2,3,0.4,4.4,0.6c2.8,0.4,4.5,1.9,4.9,4.7
		c0.2,1.1,0.2,2.2,0.1,3.3c-0.5,3.5,0.2,6.9,0.4,10.4c0.1,1.2,0.6,2.1,1.6,2.9c1.9,0.4,3.8,0.6,5.8-0.2c1.4-0.6,2.9-0.4,4.3,0.5
		c0.7,0.5,1.5,0.8,2.3,1.1c0.9,0.4,1.7,0.2,2.5-0.2c1.1-0.5,1.5-1.4,1.1-2.4c-0.4-0.9-1-1.7-1.3-2.6c-0.3-0.9-0.2-1.7,0.8-2.2
		c1,0.1,1.5,0.8,1.7,1.7c0.3,1.2,0.5,2.4,0.8,3.6c0.1,0.6,0.3,1.2,0.6,1.7c0.5,1.1,1.3,1.5,2.5,1.2c1.3-0.3,2.6-0.8,3.8-1.2
		c0.7-1.3,0.2-3.3,2.3-3.5c0,3.2,1.4,5.9,2.2,8.9c0.2,0.9,0.6,1.9,1.9,2.4c0.3-0.2,0.7-0.4,1-0.7c3.6-4.1,8.1-6.9,12.9-9.3
		c2.7-1.3,5.5-1.4,8.3-0.3c0.6,0.2,1.1,0.5,1.9,0.8c0.7-0.3,1.4-0.8,2.2-1.1c1.5-0.6,3-1.3,4.6-1.6c4.2-0.8,8.1-2.4,12-4
		c1.5-0.6,2.9-1.3,4.5-2c0-0.6,0-1.2,0-2.1c0.5-0.4,1.1-0.9,1.8-1.5c-0.4-0.6-0.8-1.2-1.2-1.7c0.1-0.2,0.1-0.4,0.2-0.5
		c3.9-2.8,6-6.9,7.6-11.2c2.2-5.6,3.3-11.4,3.3-17.5l-0.1,0.1c1.7,4,1.4,8.2,0.5,12.3c-0.4,1.9-1.1,3.8-1.6,5.7
		c-0.2,0.7-0.2,1.4-0.3,2.1c-0.1,0-0.2,0-0.3,0.1c0,0,0,0.1,0,0.2c0.1-0.1,0.2-0.2,0.3-0.4c1.4-0.4,1.5-1.8,2.2-2.8
		c0.6-0.8,0.7-2.1,2.2-2.7c-1.2,4.7-3.9,8.4-6.5,12.1c0.8,0.4,1.1-0.1,1.4-0.4c4.1-3.9,5.8-8.9,6.2-14.4c0.1-1.4,0.2-2.7,0.3-4.1
		c0.1-2.2,0.1-4.4-0.4-6.7c-0.9-3.6-1.9-7.2-3.2-10.7c-1.4-3.7-2.4-7.5-3.7-11.3c-1.1-3.5-3-6.6-5.2-9.4c-2.1-2.6-4.4-5-6.6-7.5
		c-0.3-0.4-0.7-0.5-1.4-0.9c0.3,0.7,0.3,1.1,0.5,1.4c4.7,7.1,7.9,14.9,11.1,22.7c0.2,0.6,0.2,1.2,0.3,1.8l0.1-0.1
		c-1-0.4-1.2-1.5-1.6-2.3c-2.9-5.6-5.6-11.4-8.6-17c-1.3-2.4-2.8-4.7-4.4-6.9c-2.2-3-5.1-5-8.8-6.2c-0.2-0.9-0.4-1.9-0.7-2.8
		c-0.9-2.5-0.1-4.7,1.6-6.5c3.5-3.5,7.8-5.2,12.7-5.2c1.6,0,3.2,0.5,4.5,1.6c0.3,0.3,0.5,0.7,0.7,1.1c-1.1,0.7-1.5-0.4-2.1-0.5
		c-0.6-0.1-1.2-0.2-1.8-0.2c-4.4,0-8.3,1.5-11.8,4c-0.9,0.6-1.5,1.6-2.1,2.3c0.3,1.3,0.9,1.5,1.7,1.2c1.2-0.4,2.3-1,3.4-1.5
		c1.8-0.8,3.6-0.7,5.4,0.2c4.1,2.1,6.1,6.5,4.8,10.9c-0.1,0.5-0.3,0.9-0.5,1.3c0.7,1.7,1.9,3,3.2,4.1c4.5,3.8,7.6,8.4,9.6,13.9
		c1.9,5.3,3.8,10.5,4.6,16.1c0.3,2.3,0.8,4.7,1.6,6.9c0.6,1.6,0.7,3.1,0.4,4.7c-1,4.5-2.2,8.9-3.2,13.4c-0.4,1.5-1,2.8-1.9,4
		c-1.4,2-2.9,4.1-4.1,6.2c-1.2,2-2.8,3.5-4.8,4.5c-1.7,0.8-3.3,1.6-5,2.5c-1.6,7.7-4.7,14.7-8.5,21.4c-0.9,1.6-1.9,3.2-2.9,4.8
		C810.1,547.1,809.5,547.5,809.1,548.1L809.1,548.1z M817.2,436.9c0.1-1.3-0.9-1.7-1.7-2.1c-0.4-0.2-1-0.2-1,0.6
		C815.3,435.9,816.3,436.4,817.2,436.9c1.6,4.4,1.6,4.4,2.8,5.4c-0.4-2.6-0.9-3.7-2.5-5.4C817.5,436.9,817.3,437,817.2,436.9z
		 M495.9,462.2c-1.1-0.6-1.5-0.7-1.8-0.9c-4-3.4-8.7-5.2-13.7-6.6c-2.5-0.7-5.1-1.3-7.6-2.1c-6.2-1.9-12.6-3-19.1-2.6
		c-1,0.1-2,0-3,0c-6.2,0-12.1,1.4-17.5,4.5c-2.3,1.3-4.4,2.9-6.5,4.3c-2.7,1.8-5,4-7.8,5.7c-2.2,1.4-4,3.3-6.1,4.9
		c-0.1,0.1-0.5,0-0.7,0c-0.2-0.7-0.4-1.3-0.7-2.2c-1,0.3-1.9,0.5-2.8,0.8c0.1,3.4,0.2,6.7,0.3,9.9c0.3,10.6,1,21.1,2.5,31.6
		c0.8,5.5,1.4,11.1,1.3,16.7c-0.1,7.3,1.2,14.3,3.5,21.2c0.4,1.2,0.6,2.4,1.7,3.3c1.7,0.2,3.4-0.1,5.1-0.5
		c6.6-1.8,13.3-3.2,19.7-5.5c7.2-2.5,14.6-4,22.1-5.4c0.5-0.1,1-0.1,1.5-0.1c2.9,0.1,5.7,0.2,8.6,0.3c6,0.2,11.9,0.6,17.9-0.3
		c0.8-0.1,1.8-0.2,2.6,0c1.3,0.4,2.5,0.2,3.7,0c3.2-0.6,6.3-1.2,9.5-1.9c0.2,0,0.4-0.3,0.8-0.6c-0.3-5.5,0.7-11,1-16.5
		c0.1-1.6,0-3.2-0.1-4.8c-0.4-8.1-0.9-16.1-1.1-24.2c-0.2-6.7,0-13.4-0.1-20.1c0-1.6-0.2-3.2-0.3-4.7c-0.8-0.6-1.3-1.1-2-1.4
		c-1.3-0.7-2.7-1.3-4-2c-1.3-0.6-2.8-1.2-3.6-2.5c-1.1-1.9-2.9-3-4.7-4.1c-8.7-5-18.2-8-28.1-9.7c-3.8-0.7-7.6-1-11.4-1.7
		c-2.1-0.4-4.2-0.3-6.3,0.2c-3.8,1-7.7,1.9-11.5,3c-2.3,0.7-4.5,1.5-6.6,2.5c-2.3,1-4,2.6-5.5,4.9c1.8-0.6,3.1-1.5,4.4-2.4
		c3.5-2.3,7.2-3.9,11.3-4.7c3.5-0.7,7.1-1.2,10.7-1.7c1.1-0.1,2.3-0.2,3.3,0.1c1.6,0.5,3.2,0.5,4.8,0.5c1.2,0.1,2.5,0.2,3.7,0.4
		c7.4,1.3,14.5,3.5,21.6,5.9c2,0.7,3.9,1.7,5.7,2.7c1.8,0.9,3.3,2.2,4.5,3.8C495.4,460.5,495.4,461,495.9,462.2z M601.2,453.4
		c-1.6-0.2-2.6,0.7-3.7,1c-1.3,0.4-2.6,1.2-3.9,1.2c-1.6,0-2.9,0.6-4.2,1.2c-1.1,0.5-2.2,1.1-3.4,1.5c-8.8,2.9-17.7,5.9-26.6,8.7
		c-3.8,1.2-7.7,2.1-11.6,2.9c-4.6,0.9-9.4,1.4-14.1,0.6c-2.6-0.4-5.1-1-7.7-1.3c-4.5-0.4-8.8-1.3-13.2-2.1c-0.4-0.1-0.9-0.1-1.3-0.1
		c-0.2,0.4-0.3,0.7-0.3,0.9c0.7,3.4,0.7,6.9,0.7,10.4c0.2,9.6-0.3,19.1,0.6,28.7c0.6,6.7,0.3,13.4,0.4,20.1c0,0.3,0.2,0.7,0.4,1.1
		c0.5,0.1,1,0.2,1.5,0.2c3.1-0.2,11.9-2.9,14.8-4.5c0.5-0.3,1.1-0.5,1.7-0.6c0.5-0.1,1.2-0.3,1.4,0.5c-1.4,0.9-2.8,1.7-4.1,2.6
		c-4.5,3-9.3,5.2-14.9,5.2c-0.3,0-0.7,0.3-1,0.4c-0.3,0.9-0.1,1.6,0.8,1.8c3,0.8,6,1.8,9,2.4c7.1,1.4,14.3,1.5,21.5,1.9
		c0.5,0,1,0.1,1.5-0.1c2.6-0.9,5.2-0.5,7.8-0.4c6.3,0.2,12.7,0.5,19,0.7c1,0,2-0.1,3-0.2c1.6-0.2,3.2-0.5,4.8-0.6
		c4.1-0.3,8.1-0.9,12.2-0.9c2.4,0,4.9-0.6,7.4-0.4c1.4,0.1,3,0.1,4.1-1.2c-1.1-2.8-2.2-5.6-3.3-8.4c-2-5.1-3.6-10.3-4.5-15.7
		c-1.2-7.2-2.8-14.4-4.2-21.6c-0.3-1.7-0.9-3.4-1.3-5c-0.3-1.1-0.4-2.2,0.2-3.3c1.9-3,4.1-5.9,6.8-8.4c0.9-0.8,2-1.4,3.4-1
		c-0.4-2.6,2.3-2.5,3.1-4.1C603,462.8,602.1,458.1,601.2,453.4z M64.9,532.1c-1.7,4.2-1.5,8.5-1.2,12.7c0.2,3.5,0.8,6.9,0.9,10.4
		c0,4.4,2.6,7.4,5.1,10.5c0.8,1,1.8,1.7,2.5,2.7c2.3,3.1,5,5.8,8.2,8.1c2,1.4,4.1,2.8,6.1,4.3c3.4,2.7,7.2,4.9,11,7
		c0.5,0.3,1.1,0.7,1.7,0.7c4.9,0.4,9.4-0.2,13.2-3.9c-0.3-0.4-0.6-0.8-0.8-1.1c1.2-3.3,2.3-6.6,3.5-10c-0.9-1-1.7-2-2.5-2.8
		c-2.6-2.6-4.2-5.8-5.1-9.4c-0.9-3.3-1-6.6,0.6-9.8c0.1-0.2-0.1-0.5-0.1-0.8c-1-0.2-2.2-0.3-3.2-0.7c-0.5-0.2-1-0.9-1-1.4
		c0-0.5,0.5-1.2,0.9-1.5c0.5-0.3,1.2-0.5,1.8-0.5c0.8,0,1.7,0.2,2.5,0.3c1.6-2.9,1.7-3.4,1.6-5.7c-1.4,0.3-2.8,0.6-4.3,0.8
		c-1,0.1-2-0.3-2.6-1.2c-0.3-0.5-0.6-1.2-0.4-1.7c0.2-0.4,0.9-0.9,1.4-0.9c1.4-0.1,2.7,0,4.1-0.1c0.6,0,1.1-0.1,1.7-0.1
		c0-1,0.1-1.7,0-2.4c-0.1-0.7,0.3-1.5-0.7-2c-1.8,1-3.9,1.3-6,1.3c-1,0-2-0.2-2.7-1c-0.3-0.4-0.6-1.1-0.6-1.6c0-0.4,0.6-0.9,1-1
		c1.3-0.3,2.7-0.5,4-0.7c1-0.1,2-0.3,3-0.2c0.9,0.1,1.8,0.6,2.7,0.9c2.3-1.2,3.9-2.8,4.9-5.1c0.6-1.5,1.6-2.8,2.4-4.2
		c0.4-0.6,0.8-1.3,1.1-1.9c0.5-1,0-2.1-1.1-2.3c-2.4-0.6-4.7-1.5-7-2.4c-1.1-0.4-2.4-0.5-3.7-0.5c-2,0-4-0.3-5.8-1.2
		c-3-1.5-6.1-2.7-9.3-3.9c-1.5-0.6-2.8-1.5-4.1-2.5c-1.2-0.9-2.1-2.1-2.6-3.6c-1.5-4.2-1.6-8.3,1-12.1c1.4-2.1,3-4,4.5-5.9
		c1.1-1.4,2.3-2.5,4-3.2c1.7-0.7,3.3-1.7,4.9-2.7c0.4-0.2,0.7-0.6,1.1-1c-1.2-1.3-2.4-1.1-3.6-0.8c-5.8,1.1-11.6,1-17.4,0.2
		c-0.9-0.1-1.8-0.2-2.6-0.1c-3,0.5-5.9,0.4-8.9,0.5c-1.7,0-3.5,0.2-5.2,0.5c-3.6,0.5-7.1,1.2-10.7,1.2c-0.3,0-0.7,0.3-1.3,0.5
		c-0.5,1.6-1,3.4-1.5,5c0.6,0.7,1,1.1,1.4,1.7c-0.1,0.8-0.3,1.7-0.4,2.5c-0.3,2.7-0.8,5.4-0.8,8.2c0,7.2,1.8,14,5.3,20.4
		c0.7,1.3,1.5,2.6,1.9,4c0.5,1.6,1.4,2.9,2.6,4c1.1,1,2.2,2.1,3.2,3.2C63.8,530.4,64.3,531.3,64.9,532.1z M724,470.9
		c-1.2-5.5-3.7-10.1-7.3-14.4c1.1-0.2,2.1-0.1,2.7-0.6c1.4-1,2.9-1.2,4.6-1c0.6,0.1,1.1-0.1,1.8-0.2c-0.4-1.3-1.5-1.5-2.3-2
		c-6.5-3.9-13.4-7.1-20.3-10.3c-1.4-0.6-2.8-0.9-4.3-0.9c-2.1,0-4.2-0.1-6.3-0.3c-3.7-0.3-7.4-0.7-10.9-1c-0.9,0.7-1.5,1.2-1.9,1.5
		c-5.1-0.3-9.8-0.6-14.6-0.8c-2.7-0.1-5.4,0.1-8.1,0.8c-1,0.3-2.2,0.1-3.3,0.1c-0.9,0-1.7-0.3-2.6-0.2c-3.8,0.2-7.7,0.3-11.5,0.7
		c-6.8,0.8-13.5,2.1-20,4.3c-4.7,1.6-9.4,3.1-14.2,4.6c-0.8,0.3-1.6,0.6-2.5,0.9c-0.1,2.7,0.5,5,1.2,7.4c1.6,1.3,1.6,3.2,2,5
		c0.2,0.9,0.6,1.8,1,2.9c2.7-0.7,5.2-1.4,7.7-2c2.9-0.8,5.7-1.7,8.7-2.2c1.9-0.3,3.6-0.9,5.3-1.5c2.3-0.8,4.7-1.7,7.1-2.1
		c2.8-0.4,5.7-0.4,8.5-0.6c1.6-0.1,3.2,0.2,4.7-0.8c1.7,0.4,3.3,1,5,1.3c3.5,0.6,7.1,1.1,10.1,1.5c1.8-0.7,3-1.3,4.3-1.6
		c1.8-0.4,3.7-0.6,5.5-0.8c5-0.6,10-0.4,14.9,0.5c2.1,0.4,4.1,0.7,6.3,0.7c6.4-0.1,12.6,1.3,18.6,3.5c2.4,0.9,4.5,2.1,6.3,3.9
		C721.4,468.6,722.7,469.7,724,470.9z M751.3,561.2c-3.5-0.4-6.5,1.4-10.6,0.9c3.9-1.4,7.1-2.1,10.4-2.5c0.6-0.1,1.4,0.4,2,0.8
		c0.8,0.4,1.4,1,2.2,1.2c1.9,0.5,3.7,1.3,5.6,2.1c1.8,0.8,3.7,1.4,5.6,2c0.8,1.3,1.6,2.6,2.4,3.9c0.7,1.1,1.7,1.8,3.1,1.7
		c2.4-0.1,4.7,0.1,7-0.6c0.6-0.2,1.3-0.4,1.8-0.3c2.5,0.7,5.2,0.1,7.7,0.8c1.7,0.5,3.4,0.8,5.1,1.1c1.1,0.2,2.2,0.3,3.3,0.2
		c0.5,0,0.9-0.5,1.6-0.9c-0.6-0.3-0.9-0.6-1.3-0.7c-4.1-1.1-8.2-1.9-12.2-3.3c-3-1.1-6.2-1.8-9.3-2.6c-2.5-0.6-4.6-1.7-6.6-3.3
		c-0.7-0.5-1.4-1.1-2.1-1.5c-1.4-0.7-2.9-1.4-4.4-1.9c-2.7-1-5.4-2.6-8.5-1.4c-0.1,0-0.2,0-0.4,0c-2.2,0.2-4.4,0.4-6.7,0.5
		c-2.2,0.1-4.4,0.1-6.7,0.1c-0.8,0-1.4-0.4-1.6-1.5c0.7-1.3,1.4-2.7,1.5-4.3c0.4-6.9,0.7-13.9,2.1-20.7c0.2-1,0.1-2-0.6-2.8
		c-2.4-3-2.9-6.5-3.1-10.2c-0.1-3.1-0.2-6.1-0.4-9.2c-2.1-0.9-5.3-1.3-10.3-1.3c-0.7,1.2-1.3,2.6-2.2,3.7c-0.9,1.2-2,2.3-3.2,3
		c-1.2,0.7-2.7,0.9-4.3,1.4c0.5,4.4,1.1,8.8,1.6,13.3c0.3,2.1,0.9,4.2,0.8,6.3c-0.1,1.7,0.1,3.2,0.4,4.7c0.5,2.3,1.1,4.6,1.8,6.9
		c1.4,4.9,2.1,9.9,1.1,15.1c1.3,0.4,2,1,2.2,2.3c0.2,1.3,0.5,2.7,0.8,4c2.7,1.7,5.7,2.4,8.9,2.2c4-0.2,7.9-0.5,11.8-1.6
		c3.5-1,7-1.3,10.4,1c1.6,1.1,3.7,1.4,5.7,1.4c1.3,0,1.7-0.5,2.1-2.4c-0.1-0.1-0.1-0.3-0.2-0.3c-1.5-0.6-3-1.2-4.5-1.8
		C757.8,565.3,754.1,564.1,751.3,561.2z M187.2,474.7c0.5,0.1,1,0.1,1.5,0.1c7.6,0,15.1,0.1,22.7,0.9c9.4,1,18.8,1.6,28.1,3.7
		c5.3,1.2,10.7,2.1,16.1,2.9c1.2,0.2,1.5,1.2,2.5,1.5c0.8-0.2,1.6-0.5,2.5-0.6c4.3-0.3,8.6-1.1,13,0c1.4,0.4,3,0.6,4.4,0.6
		c3.7,0,7.5,0.1,11.2-0.2c3.5-0.3,6.9-0.9,10.3-1.4c1.7-0.2,3.5-0.4,5.2-0.7c7.4-1,14.8-2.1,22.2-3c9.1-1.2,18.3-2.2,27.4-3.4
		c3.6-0.5,7.1-1.4,10.7-1.7c5.6-0.6,11.2-0.9,16.7-1.3c5.5-0.5,10.9-0.9,16.3-1.5c2.3-0.3,4.6-0.9,6.9-1.5c0.4-0.1,0.6-0.6,1-0.9
		c-0.5-0.2-0.7-0.4-0.9-0.4c-7.4,0.4-14.9,1-22.3,1.1c-8.3,0.2-16.3,1.5-24.4,2.9c-10,1.8-20.1,3.4-30.2,4.9
		c-4.9,0.7-9.9,1.1-14.8,1.8c-8.4,1.1-16.8,1.8-25.3,2c-2.6,0.1-5.2,0-7.8-0.6c-1.1-0.2-2.2-0.3-3.3-0.3c-3.2,0.1-6.1-0.7-9.1-1.8
		c-2.3-0.9-4.6-1.8-7-2.4c-8.7-2.2-17.6-3.3-26.4-4.6c-2.6-0.4-5.2-0.7-7.8-0.7c-4.2,0.1-8.4,0.5-12.7,0.9c-2.8,0.2-5.7,0.9-8.5,0.8
		c-1.8-0.1-3.4,0.1-5.1,0.3c-3.6,0.5-7.1,1.1-10.7,1.6C188.7,473.7,187.8,473.7,187.2,474.7z M739.6,463.3c-0.5-1.8-1.1-3.4-1.5-5.1
		c-0.6-2.2-1.8-4-3.3-5.7c-3.8-4.1-8.4-6.9-13.4-9.2c-2.7-1.3-5.4-2.4-8.6-1.7c-0.7,0.2-1.5,0-2.2,0.1c-0.4,0-0.8,0.2-1.8,0.5
		c2.7,1.4,5,2.4,7.1,3.6c3,1.7,6,3.5,9,5.3c3,1.8,5.1,4.6,8.4,6c1.6,2.1,4,3.8,4.3,6.9C738.2,463.7,738.8,463.5,739.6,463.3z
		 M115.4,580.8c0.9-0.2,1.3-0.3,1.7-0.4c1.7-0.2,2.6-1.2,3.1-2.8c0.5-1.8,1.1-3.5,1.6-5.3c0.7-2.5-0.1-4.8-2.2-6.2
		c-0.7-0.5-1.6-0.6-2.4-0.9c-2.1-0.7-3.3-2.1-3.7-4.3c-0.1-0.9-0.1-1.7-0.3-2.6c-0.5-2.8-1-5.6-1.5-8.4c-0.1-0.3-0.4-0.5-0.8-1.1
		c-0.5,1.5-0.8,2.8-1.4,4c-0.6,1.2-0.7,2.4-0.5,3.6c0.8,5.3,2,10.5,6.5,14.1c0.2,0.2,0.3,0.4,0.5,0.5c1.3,1.1,1.5,2.5,1,4
		c-0.4,1.1-0.7,2.1-1,3.2C115.7,578.9,115.6,579.6,115.4,580.8z M85.5,476.4c0-0.2,0.1-0.4,0.1-0.7c-2.7-0.1-5.4-0.1-8.1-0.2
		c-5.4-0.1-10.9-0.3-16.3-0.4c-0.6,0-1.3,0-1.8,0.2c-0.6,0.3-1.4,0.6-0.8,1.7c4.4-0.2,8.8-1,13.2-0.8
		C76.4,476.7,80.9,476.5,85.5,476.4z M136.3,482.9c-3.3-0.1-6.6-1.1-9.9,0.9c1.1,0,1.8,0.1,2.5,0
		C131.4,483.5,133.8,483.2,136.3,482.9z M799.1,568.2c1.2,1.8,3.3,1.2,4.3,2.6c0,0,0.7-0.5,1.3-0.8
		C803.1,568.3,801.4,568.2,799.1,568.2z M813.2,436.4c-0.3,3.1,0.5,4,3.4,3.6c-0.5-0.6-0.8-1-1.2-1.5
		C814.7,437.8,814,437.1,813.2,436.4z M797.3,528c0.4,1.3,0.7,2.1,1,3.3c0.5-1,0.8-1.8,1.2-2.7C798.7,528.3,798.2,528.2,797.3,528z
		 M793.5,567.2c0-0.1,0-0.2,0-0.3c-0.4,0-0.8,0-1.2-0.1c0,0.1,0,0.2,0,0.3C792.6,567.2,793,567.2,793.5,567.2z M790.3,566.3
		L790.3,566.3l0.3,0.1L790.3,566.3z M810.8,435.7c-0.2-0.1-0.4-0.2-0.7-0.3c0,0-0.2,0.3-0.2,0.3c0.1,0.1,0.3,0.4,0.5,0.4
		C810.5,436,810.7,435.8,810.8,435.7z M102.2,482.4c-0.1,0.1-0.2,0.3-0.3,0.4c0.2,0.1,0.4,0.2,0.6,0.2c0.1,0,0.2-0.3,0.3-0.4
		C102.5,482.6,102.4,482.5,102.2,482.4z"/>
	<path d="M779.1,457c-0.5,1.4-1.8,2-2.8,2.9c-0.9,0.8-1.9,1.6-2.8,2.4c-0.2,0.2,0,0.6,0,0.9c1,0.6,1.7-0.2,2.5-0.5
		c1-0.3,1.9-0.4,2.8,0.2c1.9,1.2,3.9,2,5.5,3.8c0.8,0.9,1.8,1.6,2.8,2.4c-0.4,1.7-1.2,3.2-2.3,4.2c-1.6,1.4-1.9,3.1-1.9,5
		c0,1,0,1.9,0,2.9c-1.5-0.2-1.5-0.2-2.8-1.8c0.5-3.7,3.1-6.3,4.9-9.2c-0.1-0.9-0.7-1.1-1.3-1.3l0.1,0.1c-0.4-0.7-1-0.8-1.6-0.8
		l0.2,0.1c-0.3-0.7-1-0.8-1.7-0.8l0.1,0.1c-0.3-0.3-0.6-0.6-0.9-0.9l0.1,0.1c-0.5-0.9-1.3-1.5-2.4-1.5c-1,0-2,0.1-2.8,0.6
		c-1.2,0.6-2.3,1.5-3.2,2.5c-2,2.1-4.2,3.4-7.1,3.6c-0.3,0-0.6,0.4-1,0.6c0.8,1.4,3.1,0.8,3.4,2.6c-0.6,1.1-1.6,0.9-2.6,0.7
		c-1.9-0.5-3-1.6-3.5-3.5c0.9-2,2.9-2.5,4.5-2.9c1.6-0.3,2.7-1.1,3.8-2.1c0.9-0.9,2.1-1.7,2.7-2.9c-1-1.4-2.5-0.2-3.6-1.3
		c0.4-0.3,0.8-0.7,1.2-0.8c1.8-0.1,3.2-1,4.6-2.2C775.4,459,777,457.5,779.1,457L779.1,457z"/>
	<path d="M734.4,65.2c-1.1-1.3-2.5-0.9-3.7-0.3c-0.7,0.4-1.4,1-1.9,1.7c-0.8,1-1.4,2-2.1,3.1c-1.1,1.9-2.5,3.4-4.7,4.1
		c-0.5,0.2-1,0.6-1.4,0.9c0.3,1.1,1,0.8,1.6,0.9c0.5,0.1,1,0.1,1.5,0.2c0.3,0.1,0.8,0.5,0.7,0.7c-0.1,0.4-0.4,0.9-0.7,1.1
		c-1.1,0.5-2.2,0.4-3.3,0c-1.1-0.4-1.9-1.1-2.3-2.4c0.3-1.7,1.9-2.7,3.2-3.3c2-0.9,2.9-2.6,4-4.2c0.4-0.7,0.8-1.5,1.4-2.5
		c-0.6-0.2-1-0.4-1.4-0.4c-0.8,0-1.6,0.8-2.5,0.1c0.2-0.3,0.3-0.7,0.6-0.8c1.8-0.7,3.1-1.8,4.1-3.5c1.1-1.7,2.6-3,4-4.6
		c0.4,1.1-0.4,1.5-0.7,2c-0.4,0.6-0.8,1.2-1.3,1.8c-0.4,0.6-0.9,1.2-1.3,1.8c-0.4,0.6-0.4,0.6-0.3,2.2c0.8-0.5,1.5-0.9,2.2-1.4
		c0.8-0.5,1.5-0.7,2.5-0.5c3.4,0.8,6.5,2.2,9.5,3.9c0.1,1.7-0.3,3.2-1.1,4.4c-1.2,1.8-1,3.5-0.6,5.3c0.2,0.9,0.5,1.8,0.8,3
		c-1.3,0.1-2.2-0.3-3.1-1.1c-0.3-2.1,0.1-4.2,0.8-6.4c0.3-0.9,0.5-1.9,0.8-2.8c0,0-0.1,0.2-0.1,0.2c0.7-1.1,0.7-1.7-0.2-1.9
		c-0.9-0.2-1.9-0.3-2.9-0.5c0,0,0.2,0.1,0.2,0.1c-0.8-0.3-1.6-0.6-2.4-0.8C734.3,65.1,734.4,65.2,734.4,65.2z"/>
	<path d="M264.8,258.5c0.5-0.2,1.1-0.7,1.6-0.7c3.2-0.2,6.3-1,9.5-1.8c2.5-0.6,5.1-1,7.7-1c4.9,0,9.6-0.7,14.3-2.1
		c0.5-0.1,1-0.3,1.4-0.2c0.2,0,0.4,0.5,0.7,0.9c-0.6,0.4-1,0.8-1.6,1.1c-4.5,1.8-9.2,3-14.1,3c-3.2,0-6.4,0.2-9.5,1.4
		c-2.8,1.1-5.6,1-8.4-0.1C266,258.7,265.4,258.5,264.8,258.5L264.8,258.5z"/>
	<path d="M798.5,454.1c0,1.5-0.3,2.9-0.7,4.4c-1.3,4.1-1.8,8.3-1.4,12.5c0.2,2.7,0.7,5.4,2,7.9c0.3,0.5,0.5,1.1,0.5,1.8
		c-1.6-1.1-1.6-1.1-2.9-3.8c-0.9,0.1-0.9,0.8-0.6,1.3c0.5,1,1.1,1.9,1.9,2.7c0.8,0.8,1.7,1.4,2.6,2.1c0.3,0.9-0.8,0.8-1.2,1.5
		c0.7,1.8,2.3,2.8,4.1,3.5c-0.1,0.9-0.6,0.9-1.1,0.6c-2.3-1.3-4.2-3-5.3-5.5c-0.7-1.6-1.9-3-2.3-4.7c-0.4-1.6,0-3.4,0.1-5.1
		c0.4-4,0.7-7.9,1.4-11.8C796,458.9,796.5,456.2,798.5,454.1L798.5,454.1z"/>
	<path d="M783.6,468.9c0,0.9,0.1,1.7-0.6,2.4c-1.6,1.6-3.1,3.2-4.4,4.6c-1.9,0.3-2.8-0.9-4-1.6c-0.3,0.2-0.5,0.4-0.8,0.6
		c-1.5,1.1-1.9,1.1-3.1-0.1c-0.6-0.6-1.2-1.2-1.9-2c0.7-0.6,1.5-1.2,2.2-1.9c0.6-0.6,1-1.4,1.5-2.1c1-1.4,2.4-2.1,4.1-2.2
		c1.1,0,2.2,0.1,3.3,0.2l-0.1-0.1c0.3,0.3,0.6,0.6,0.9,0.9l-0.1-0.1c0.6,0.3,1.1,0.6,1.7,0.8l-0.2-0.1c0.2,0.9,1,0.8,1.6,0.8
		L783.6,468.9z M777.5,474.6c0.6-0.5,1.2-1,1.6-1.4c0.4-1.3-1.3-2-0.5-3.1c1,0.1,1.3,1.9,2.6,0.6c-0.5-0.5-0.9-0.9-1.3-1.3
		c-0.9-0.7-1.8-1.2-2.6-1.7c-2.8,0.5-3.9,2.3-4.8,4.4c0,0,0.2,0.1,0.2,0.2c0.8-0.2,1.5-0.4,2.4-0.6
		C776.1,472.7,776.7,473.5,777.5,474.6z"/>
	<path d="M759,79.3c-1.6,0.2-2.6-0.7-3.6-1.7c-0.8-0.8-1.4-1.7-2.3-2.5c-1.8-1.5-2.7-3.3-2.9-5.7c-0.3-3.6-1.2-7.1-1.9-10.6
		c-0.6-3.4-0.3-6.7,0.5-10.2c0.7,1.6,0.5,3,0.5,4.4c0,4.4,0.6,8.7,2.2,12.8c0.8,2.1,1.8,4.1,3.3,5.8c0.5,0.5,0.8,1.1,1.4,2.1
		c-1.4-0.1-1.9-0.8-2.5-1.3c-0.5-0.5-1-1.1-1.4-1.6c-0.8,0.4-0.6,0.9-0.3,1.3c0.7,1.2,1.8,2,3.1,2.6c0.9,0.4,1.8,0.7,2.8,1.1
		c-0.4,0.5-0.7,0.9-1.1,1.4C757.6,77.8,758.3,78.6,759,79.3L759,79.3z"/>
	<path d="M739.7,68c-1,0.3-1.1,1.3-1.5,2c-0.9,1.5-1.7,3-2.5,4.3c-1.7,0.5-2.7-0.3-3.9-0.8c-0.3,0.5-0.6,1-1,1.4
		c-0.5,0.7-1.2,0.9-2,0.5c-1-0.5-1.9-1.1-2.8-1.7c0.7-1.3,1.5-2.6,1.9-3.9c0.8-2.5,2.5-3.9,5-4.5c0.5-0.1,1-0.1,1.5-0.2
		c0,0-0.1-0.1-0.1-0.1c0.6,0.8,1.6,0.7,2.4,0.8c0,0-0.2-0.1-0.2-0.1c0.3,0.2,0.6,0.6,0.9,0.6c1.1,0.1,1.8,0.8,2.2,1.7L739.7,68z
		 M737.3,68.5c-1.2-0.5-2-0.8-2.7-1.2c-2.1-1.2-3.7,0-4.5,1.7c-0.5,0.9-0.6,2-1.1,3.6c1.1-0.7,1.8-1.1,2.5-1.5
		c1.1,0.7,2,1.4,3.2,2.2c0.4-0.8,0.8-1.5,1.3-2.5c-0.5-0.4-0.9-0.6-1.3-1c-0.3-0.3-0.4-0.7-0.6-1.1C735.2,68,735.9,70.3,737.3,68.5z
		"/>
	<path d="M751.3,113.2c-1-2.3,0.6-4.3,0.2-6.5c1.7-0.4,1,1.3,2.2,1.6c0.3,0,1-0.1,1.8-0.1c-0.5-1.6-1.9-2.1-2.9-2.9
		c-0.5-0.4-1.4-0.8-0.7-1.8c0.1,0,0.3-0.1,0.3-0.1c1.8,1.3,3.7,2.5,5.4,3.8c0.8,0.7,1.5,1.7,2.1,2.5c1,1.4,2,2.8,3.1,4.3
		c-0.3,0.5-0.9,0.2-1.4-0.1c-1-0.5-1.9-1.2-3.1-1.9c-1.4,0-3.1-0.1-4.9,0C752.8,112.2,752.1,112.8,751.3,113.2z"/>
	<path d="M794.6,522.6c-2.1-0.3-2.6-2.1-3.5-3.1c-2-0.5-3.9-1-6-1.5c-0.2,0.1-0.7,0.3-1.1,0.5c-0.2-0.2-0.4-0.3-0.4-0.5
		c0-2.2,1.5-3.8,2.1-5.7c1.3,0.2,0.6,1.3,1.4,2c0.4,0.1,1.2,0.2,2.2,0.4c-0.3-1.4-1.1-2.2-1.8-3c-0.5-0.6-0.8-1.2-1.1-1.9
		c-0.1-0.2,0.1-0.6,0.3-1.3c0.8,1.1,1.4,2,2.1,2.8c0.7,0.9,1.6,1.6,2.2,2.5c0.7,1.1,1.3,2.4,1.8,3.6
		C793.4,519.2,793.9,520.8,794.6,522.6z"/>
	<path d="M761.4,480.9c-1.2,0.3-1.6,0.5-2.1,0.6c-5.5,1.3-9.3,4.5-11.1,9.9c-0.5,1.4-0.8,2.9-1.3,4.3c-0.3,0.8-0.7,1.5-1,2.3
		c-0.4-0.2-0.8-0.4-0.8-0.5c0-3.9,1.1-7.6,3.2-10.8c2.7-4.1,6.6-6.2,11.6-6.3C760.2,480.3,760.4,480.4,761.4,480.9z"/>
	<path d="M720.4,83.2c-1.8,1.3-3.1,2.1-4.3,3.1c-3.1,2.6-4.8,6-5,10.1c-0.1,1.7-0.1,3.5-0.1,5.2c0,0.6-0.2,1.2-0.9,1.4
		c-3.2-8,0.7-17,8.6-19.8C719.1,83.1,719.4,83.2,720.4,83.2z"/>
	<path d="M776.9,451.8c-0.1,0.2-0.3,0.4-0.4,0.6c-4.1,3-7.9,6.4-11.5,10c-0.2,0.2-0.6,0.3-1.1,0.6c0-0.5-0.1-0.9,0.1-1.1
		c1.8-1.9,3.6-3.8,5.4-5.6c1.6-1.6,3.2-3.1,4.7-4.7c2.2-2.2,4.3-4.5,6.5-6.7c0.7-0.8,1.5-1.6,3-1.5c-0.2,0.4-0.2,0.8-0.4,1
		c-1.9,1.9-3.9,3.8-5.8,5.7c-0.2,0.2-0.3,0.7-0.4,1c0,0,0.1-0.1,0.1-0.1C776.3,451.3,776.5,451.6,776.9,451.8L776.9,451.8z"/>
	<path d="M732.1,42.5c-0.1,0.3-0.1,0.7-0.2,0.9c-1.2,2-2.4,4-3.6,6.1c-0.2,0.3-0.6,0.7-0.5,1c0.6,2.2-1.2,3.3-2.1,4.8
		c-1.9,2.9-3.8,5.8-5.6,8.7c-0.4,0.6-0.6,1.3-1.6,1.7c0-0.6-0.1-1,0-1.2c1-2,1.9-4,3.2-5.9c1.6-2.4,3-4.8,4.3-7.4
		c1.1-2.2,2.3-4.4,3.6-6.5c0.6-0.9,1.3-1.7,2-2.6C731.7,42.3,731.9,42.4,732.1,42.5z"/>
	<path d="M800.6,480.5c1,0.9,1.9,1.7,2.9,2.6c0.8-3.1,1.6-5.9,2.4-8.8c0.1-0.3,0.3-0.6,0.9-1.4c-0.2,2.1-0.3,3.6-0.4,5
		c-0.1,1-0.2,2-0.3,3c-0.2,2,0.2,3.7,1.8,5c0.3,0.3,0.6,0.7,0.9,1.2c-1.2,0.1-1.2,0.1-2.3-0.5c0,0.4,0,0.7-0.1,1
		c-0.1,0.6-0.7,0.9-1,0.5c-0.6-0.6-1.2-1.3-1.7-2c-1.2-1.7-2.4-3.4-3.6-5.2C800.3,480.9,800.4,480.7,800.6,480.5z"/>
	<path d="M775.3,445c0,1.2-1.1,1.5-1.8,2.1c-2,1.8-4.1,3.6-6.1,5.4c-0.8,0.8-1.5,1.7-2.1,2.6c-0.3,0.6-0.1,1.4-0.2,2.5
		c-0.2,0.2-0.7,0.7-1.2,1.2c-2,1.8-4,3.7-6.1,5.5c-0.8,0.7-1.8,1.4-3.1,0.4c1.1-0.8,2.1-1.5,3.1-2.3c1.1-0.9,2-1.8,3.1-2.7
		c1.1-0.8,2.2-1.6,3.3-2.4c-0.3-1.2-0.7-2.3,0.1-3.2C767.5,450.5,770.8,447,775.3,445L775.3,445z"/>
	<path d="M761.8,65.3c0.3,1.8,0.6,3.6,0.9,5.5c0.4,2.4,1,4.6,3.5,5.7c0.3,0.1,0.4,0.5,0.7,0.8c-1,0.3-1,0.3-1.9,0.1
		c-0.1,0.5-0.2,1-0.2,1.6c-0.3,0-0.6,0.2-0.7,0.1c-2.3-1.8-4.6-3.7-7.2-5.8c2.1-0.4,2.8,1.4,4.5,1.5
		C761.3,71.6,760.9,68.4,761.8,65.3z"/>
	<path d="M819.8,503.7c1.7-2.3,3.3-4.4,5.1-6.8c0.7,4,0.2,7.7-0.8,11.3c-0.2,0.8-0.7,1.6-1.9,1.7c-0.8-1.7-1.1-3.3,0-5.1
		c0.6-1,1.4-2,1.5-3.3C822.1,501.9,821.9,504.2,819.8,503.7z"/>
	<path d="M781.8,89.6c1-2.4,2-4.6,3-7.1c1.7,3.5,2.1,7.1,2,10.7c0,0.8-0.2,1.7-1.3,2c-1.4-1.6-1.9-3.4-1.1-5.5
		c0.3-0.8,0.8-1.6,0.3-2.5C783.4,87.6,783.8,89.9,781.8,89.6z"/>
	<path d="M823.1,467.4c-3.1-6-4.9-12.4-8.7-17.8c0.6-0.9,1.1-0.5,1.4-0.1c1.3,2.2,2.9,4.4,3.8,6.7c1.4,3.3,2.3,6.8,3.4,10.2
		C823.2,466.7,823.1,467.1,823.1,467.4z"/>
	<path d="M775.7,55.7c-1.4-1.3-2.3-2.7-3.3-4c-1-1.4-2-2.8-3-4.2c-1-1.3-2-2.5-3-3.7c-1.1-1.3-2.3-2.5-3.8-3.9
		c0.7,0,1.1-0.2,1.4-0.1c0.8,0.6,1.6,1.2,2.3,1.8c4,3.8,6.9,8.4,9.4,13.2C775.8,55,775.7,55.2,775.7,55.7z"/>
	<path d="M777.5,65.8c0.2,1.7,0.6,3.4,0.7,5.1c0.3,4.1,0.5,8.2,0.2,12.2c-0.1,0.7-0.1,0.7-1.4,1.8C777,78.5,776.9,72.2,777.5,65.8z"
		/>
	<path d="M798.4,509.8c0.2,0.1,0.6,0.2,0.6,0.3c0.9,2.2,1.9,4.3,2.5,6.5c0.5,2,0.3,4.1-0.3,6.2c-0.1,0.2-0.5,0.4-0.8,0.6
		c-0.2-0.3-0.4-0.5-0.5-0.7c-0.6-4.1-1.2-8.2-1.8-12.4C798.1,510.2,798.3,510,798.4,509.8z"/>
	<path d="M762.8,100.8c4.3,4,6.4,8.2,6.2,12.2c0,0.2-0.5,0.4-0.9,0.7c-0.9-2.1-1.7-4.2-2.7-6.1C764.5,105.6,763.3,103.7,762.8,100.8
		z"/>
	<path d="M817.2,478.7c-0.8,3.4-1.6,6.9-2.4,10.3c0,0-0.2,0-0.2,0c-0.6-1.2-1.5-2.3-1.6-3.5c-0.1-1.7,0.4-3.4,0.8-5.1
		c0.1-0.6,0.4-1.1,0.7-1.9c0.9,0.9,0.2,2,0.8,2.8C816,480.4,816.7,479.6,817.2,478.7C817.3,478.8,817.2,478.7,817.2,478.7z"/>
	<path d="M284.3,501c-0.9,0.4-1.7,1-2.6,1.3c-2.8,0.9-5.6,1.8-8.6,2c-0.5,0-1-0.1-1.4-0.2c-0.2,0-0.4-0.3-0.4-0.5
		c0-0.2,0.1-0.5,0.2-0.6c0.3-0.2,0.6-0.4,1-0.5c3.9-0.7,7.8-1.3,11.6-1.9C284.1,500.6,284.2,500.8,284.3,501z"/>
	<path d="M307,225.8c-1.4,1.8-3,2.4-4.5,2.9c-5.6,2-8.2,2.7-10.2,2.4c0.5-0.5,0.7-1.1,1.2-1.3c0.8-0.4,1.6-0.6,2.4-0.8
		c1.8-0.5,3.6-0.9,5.4-1.4C303.1,227,304.8,226.5,307,225.8z"/>
	<path d="M773.7,78.2c-0.5-0.7-0.8-1.1-1.1-1.4c-2.3-2.7-2.4-2.9-2.4-6.2c0-0.9,0.1-1.7,0.1-3.3c0.6,1.3,0.9,1.9,1.4,2.8
		c1-0.7,0.7-1.9,1.1-2.7c0.1,0.2,0.2,0.4,0.2,0.5c0,1.7-0.1,3.5,0,5.2C773.2,74.7,773.4,76.3,773.7,78.2z"/>
	<path d="M821.7,480.2c-0.2,1.8-0.4,3.7-0.7,5.5c-0.7,3.4-1.3,6.8-2.5,10c-0.3,0.8-0.5,1.7-1.5,1.9c-0.1-0.2-0.3-0.4-0.3-0.6
		c1.3-5,2.7-10,4.1-15C821,481.4,820.9,480.5,821.7,480.2L821.7,480.2z"/>
	<path d="M276.5,223.1c-0.9,0.7-1.5,1.4-2.4,1.9c-2.4,1.3-4.8,2.6-7.2,3.8c-0.4,0.2-0.9,0.2-1.4,0.3c-0.2,0-0.4-0.2-0.5-0.4
		c-0.1-0.2-0.1-0.5,0-0.7c0.2-0.3,0.4-0.6,0.8-0.8c3.3-1.5,6.6-2.9,9.9-4.4C275.7,222.8,276,223,276.5,223.1z"/>
	<path d="M297.8,513.2c0.4-0.3,0.7-0.8,1-0.8c1.1-0.2,2.2-0.2,3.3-0.3c3.7-0.1,7.4-0.1,11.1-0.1c-0.8,1.1-2.1,1.3-3.3,1.4
		c-3.8,0.2-7.6,0.3-11.4,0.4C298.3,513.8,298.2,513.5,297.8,513.2z"/>
	<path d="M693.8,202.5c1.2-0.1,1.4,0.6,1.6,1.1c0.7,2.3,0.9,4.6,0.4,6.9c-0.3,1.3-0.6,2.6-2,3.6c-0.5-1.4,0.3-2.6,0.3-3.7
		c0-1.4,0.1-2.7,0.1-4.1C694.2,205.1,694,203.9,693.8,202.5z"/>
	<path d="M759.2,20.7c2.6-0.4,3.5-0.2,6.6,1.5c3.1,1.7,5.8,3.7,7.2,7.4c-1.1-0.3-1.4-1.1-2-1.7c-0.7-0.7-1.3-1.5-2-2.2
		c-0.6-0.6-1.4-1.1-2.1-1.5c-0.7-0.5-1.5-0.9-2.2-1.3c-0.9-0.4-1.8-0.8-2.7-1.2C761.2,21.5,760.4,21.2,759.2,20.7z"/>
	<path d="M827,441.3c-0.3-0.3-0.7-0.6-0.9-1c-1.8-4.1-4.7-7.2-8.4-9.7c-0.4-0.3-1.2-0.4-1-1.3c0.2-0.1,0.5-0.2,0.6-0.2
		c3.2,1.5,5.7,3.9,7.8,6.7C826.3,437.4,827.3,439.2,827,441.3L827,441.3z"/>
	<path d="M100.6,501.3c-1.1,1.2-2.4,1.3-3.6,1c-0.7-0.2-1.3-0.6-1.8-1.2c-0.8-0.9-0.8-2.1-0.7-3.2c0.1-0.5,0.5-1,0.9-1.8
		c0.5,0.8,0.9,1.3,1.2,1.8c0.3,0.5,0.4,1.2,0.6,1.8C98.4,500.3,99.5,500.8,100.6,501.3z"/>
	<path d="M785.5,475c0.4,3.5,1.6,6.6,4,9.5c-0.9,0-1.4,0.1-1.8,0c-1.4-0.7-2.2-1.9-2.8-3.3c-0.7-1.7-0.9-3.6-0.5-5.4
		C784.6,475.5,785,475.4,785.5,475z"/>
	<path d="M724.6,46.4c0.2,1-0.6,1.5-1.1,2.2c-1.5,2.3-3,4.5-4.4,6.8c-0.9,1.4-1.3,2.9-1.2,4.5l0.1-0.1c-1-0.5-1.6-1.2-1.1-2.3
		c0.3-0.7,0.4-1.4,0.8-2c1.9-2.8,3.8-5.6,5.8-8.4C723.7,46.8,724.3,46.7,724.6,46.4L724.6,46.4z"/>
	<path d="M747.7,79.3c-1.3,0.7-2,0.6-3.5-0.7c-1.5-1.4-2.5-3.1-2.9-5.1c-0.1-0.6-0.3-1.2,0.6-1.6c0.8,1.3,1.5,2.7,2.5,3.9
		C745.4,77.1,746.6,78.2,747.7,79.3z"/>
	<path d="M787.7,473.4c1.2,1.9,2.2,3.4,3.1,5c0.9,1.6,2.8,2.5,3.5,4.6c-0.7,0-1.2,0.2-1.5,0C789.9,480.9,788.1,477.7,787.7,473.4z"
		/>
	<path d="M103.8,269.8c-1.1,1.5-2.3,1.9-3.6,1.9c-0.6,0-1.2-0.3-1.7-0.6c-1.1-0.8-1.5-2-1.5-3.3c0-0.4,0.4-0.8,0.7-1.5
		c1,1.1,1.8,2,2.8,3C101.3,269.4,102.3,269.6,103.8,269.8z"/>
	<path d="M752.9,76.7c-1.1,0.3-1.6,0.6-1.9,0.5c-3.2-1.3-5.7-3.4-7-6.6c-0.1-0.2,0.1-0.4,0.2-0.8c1.3,1.2,2.4,2.5,3.7,3.5
		C749.3,74.4,750.8,75.2,752.9,76.7z"/>
	<path d="M717.9,60c0.3,0,0.6,0,0.9,0l-0.1-0.1c-0.2,0.4-0.3,0.9-0.6,1.3c-1.5,2.3-2.9,4.6-4.5,6.8c-0.5,0.7-1.1,1.3-1.8,1.8
		c-0.5,0.4-0.9,0.1-1.2-0.6c0.5-0.4,1.1-0.8,1.6-1.3c0.5-0.6,0.7-1.3,1.1-1.9c1.5-2.1,3.1-4.2,4.7-6.2L717.9,60z"/>
	<path d="M222.5,499.8c4.1-0.7,8.2-1.5,12.4-2.2c0.1,0,0.2,0.2,0.3,0.2c-1.2,1.2-1.2,1.3-5.9,2c-2.2,0.3-4.4,0.3-6.6,0.4
		C222.6,500.1,222.5,500,222.5,499.8z"/>
	<path d="M218.7,237.3c3.8-2.1,7.3-3.4,10.7-4.8c-1.2,1.8-3.1,2.5-4.8,3.3C223,236.6,221.3,237.5,218.7,237.3z"/>
	<path d="M612.4,492.1c-1.4-1.1-1.1-1.9-0.8-2.7c0.8-2.3,2.4-3.9,4.2-5.4c0.8,0.7,0.3,1.2,0,1.7
		C614.2,487.5,612.6,489.2,612.4,492.1z"/>
	<path d="M682.4,476.1c1.1-3.1,3.4-4,7.3-2.9c-0.2,0.3-0.3,0.8-0.6,0.8C687,474.7,684.9,475.3,682.4,476.1z"/>
	<path d="M104.2,493.8c-2.2,1.4-4.4,1.8-6.5,2c-0.2,0-0.7-0.4-0.7-0.6c-0.1-0.3,0.2-0.7,0.4-0.9c0.3-0.2,0.6-0.4,1-0.4
		C100.1,493.6,101.9,493.3,104.2,493.8z"/>
	<path d="M698.5,75.8c2.7-1,5.5-2.1,8.2-3.1c0.1,0,0.2,0.1,0.3,0.2C705.3,75.1,702.5,76.2,698.5,75.8z"/>
	<path d="M105,261.9c-1.7,1.8-3.5,2.8-5.6,3.4c-0.2,0.1-0.6-0.3-0.9-0.4C99.7,262.9,100.6,262.5,105,261.9z"/>
	<path d="M295.4,249.3c-2.3,1.1-4.6,0.9-7.8-0.4C289.6,248.3,291.8,248.4,295.4,249.3z"/>
	<path d="M295.3,532.2c-2.6,0.1-5-0.8-7.3-3c2.1,0.1,3.8,0.9,5.5,1.5c0.6,0.2,1.2,0.7,1.8,1.1C295.4,531.9,295.3,532,295.3,532.2z"
		/>
	<path d="M823.2,493.5c-0.5,4.9-0.6,5.1-2.7,6.3c0-0.1-0.2-0.2-0.1-0.3C821.3,497.4,822.2,495.4,823.2,493.5z"/>
	<path d="M659.8,567.8c1.7-1.2,3-1.2,4.2-0.7c0.2,0.1,0.5,0.6,0.5,0.9c0,0.3-0.4,0.7-0.6,0.8C662.5,569.3,661.5,568.4,659.8,567.8z"
		/>
	<path d="M324.8,510.3c-2.4,0.7-4.3,1.8-6.7,1.3C320.1,509.9,320.6,509.8,324.8,510.3z"/>
	<path d="M724.7,487.3c-0.7-1.7-1.4-3.3-2.2-5.2C724.9,483.7,725.3,484.4,724.7,487.3z"/>
	<path d="M210.5,500.3c2.5-1.3,4.3-1.6,6.6-1.3c-0.6,0.5-0.8,1-1.2,1C214.4,500.2,212.9,500.2,210.5,500.3z"/>
	<path d="M311.1,224.6c1.3-2.1,1.7-2.3,5.3-3C314.5,223.4,314.5,223.4,311.1,224.6z"/>
	<path d="M781.1,85.8c0.4-2.1,0.8-4.2,1.3-6.3C782.9,81.7,783.3,84,781.1,85.8z"/>
	<path d="M270.5,531.7c-1.4,0.6-2.4,0.1-3.2-0.6c-0.2-0.2-0.2-0.7-0.1-1c0.1-0.3,0.6-0.6,0.9-0.5
		C269.2,529.7,269.8,530.4,270.5,531.7z"/>
	<path d="M767.2,74.1c1.9,0.5,2.9,2.1,4.2,3.3c-0.4,0.8-0.9,0.5-1.2,0.2C769.1,76.6,767.5,75.9,767.2,74.1L767.2,74.1z"/>
	<path d="M809.3,483.3c1.6,1.9,2.7,3.5,3.6,5.6C810.7,487.7,810.3,487,809.3,483.3z"/>
	<path d="M751,466.9c-2.3,1.4-4,1.7-6,1.2C747.1,466.7,747.1,466.7,751,466.9z"/>
	<path d="M111.8,493.2c-3,0.6-3,0.6-4.6,0C108.5,491.8,108.5,491.8,111.8,493.2z"/>
	<path d="M208.2,240.3c2.1-1.6,2.1-1.6,4.4-1.8C211.5,240.2,209.8,240.2,208.2,240.3z"/>
	<path d="M291,499.2c-1.3,1.1-2.6,1.6-4.4,0.9C287.9,498.6,289.5,498.8,291,499.2z"/>
	<path d="M803,472.2c-0.3,2-0.6,3.9-1,6.5C801.1,475.9,802,474,803,472.2z"/>
	<path d="M282.5,219.8c-2.2,1.9-2.2,1.9-3.9,1.7C280.2,219.7,280.2,219.7,282.5,219.8z"/>
	<path d="M271.5,255.1c-1.2,1.3-2.1,1.1-3,0.6c-0.2-0.1-0.5-0.7-0.5-0.8c0.2-0.4,0.7-0.9,0.9-0.8
		C269.7,254.2,270.4,254.6,271.5,255.1z"/>
	<path d="M758,65.3c0.2,1.6,0.4,3.3,0.6,4.9C757.4,69.2,757.4,69.2,758,65.3z"/>
	<path d="M112.3,259.5c-1.8,0.8-2.9,1.7-4.8,1c0.4-0.5,0.6-1,0.9-1.1C109.5,259,110.6,258.9,112.3,259.5z"/>
	<path d="M119.8,493.9c-2.3,0.8-2.6,0.7-3.7-0.7C117.5,492.5,118.6,492.8,119.8,493.9z"/>
	<path d="M116.5,258.6c1-1.3,2.1-1.2,3.3-0.6C118.8,259.4,117.6,259,116.5,258.6z"/>
	<path d="M759.8,40.4c-1.5-1.4-1.5-1.4-2.5-4C759,37.9,759,37.9,759.8,40.4L759.8,40.4z"/>
	<path d="M826.9,441.3c1.2,1.8,0.3,3.8,0.3,5.7c0-0.9,0-1.9-0.1-2.8C827.1,443.2,827.1,442.2,826.9,441.3L826.9,441.3z"/>
	<path d="M266.8,515.9c1.2-1,2.4-0.7,3.5-0.4c0.2,0.7-0.3,0.9-0.8,0.8C268.6,516.3,267.7,516.1,266.8,515.9z"/>
	<path d="M811.3,449.5c-1.1-1.5-1.3-3.3-1.3-5.1C811.2,445.9,811.4,447.7,811.3,449.5L811.3,449.5z"/>
	<path d="M682.5,478.2c-1,0.5-2,0.7-3.4,0.8C681.4,477.1,681.9,477,682.5,478.2z"/>
	<path d="M123.2,493.2c1.1-1.4,1.1-1.4,2.5-0.2C124.5,493.5,124.5,493.5,123.2,493.2z"/>
	<path d="M730,317c1.2-1.2,2.3-1.9,4.1-1.8C732.3,316.7,732.3,316.7,730,317z"/>
	<path d="M692.6,224.4c0-1,0-2.1,0-3.2C693.9,222.2,693.9,222.6,692.6,224.4z"/>
	<path d="M122.9,256.5c0.7-1.4,0.7-1.4,2.5-1C124.3,256.4,124.3,256.4,122.9,256.5z"/>
	<path d="M726.3,460.9c0.9,0.5,1.8,1,3,1.6C727.5,462.7,727.5,462.7,726.3,460.9z"/>
	<path d="M267.4,240.6c-1.6,0.9-1.6,0.9-3.5,0.5C265.2,240.4,265.2,240.4,267.4,240.6z"/>
	<path d="M759,79.4c0.9,0.1,1.8,0.1,2.8,0.2c-0.2,0.4-0.2,0.7-0.4,0.8C760.4,80.4,759.6,80.2,759,79.4L759,79.4z"/>
	<path d="M381.7,196.7c0-0.1,0-0.2,0-0.3c0.3-0.5,0.7-0.9,1.4-0.7c0.1,0,0.2,0.2,0.2,0.3c-0.4,0.3-0.9,0.6-1.3,0.9
		C381.9,196.9,381.8,196.7,381.7,196.7z"/>
	<path d="M258.1,253.1c1.7-1.6,1.7-1.6,3.2-1c-0.7,0.3-1.1,0.6-1.6,0.8C259.3,253,259,253,258.1,253.1z"/>
	<path d="M395.2,502.9c0.2-0.3,0.2-0.4,0.3-0.5c0.5-0.4,0.9-0.8,1.6-0.3c0.1,0,0.1,0.2,0.1,0.3c-0.2,0.7-0.8,0.8-1.4,0.7
		C395.6,503.2,395.5,503.1,395.2,502.9z"/>
	<path d="M677.6,481.9c-1.1,1-2.1,1.4-3.8,1.2C675,481.9,676.1,481.5,677.6,481.9z"/>
	<path d="M671.9,485.1c0.3-0.3,0.4-0.7,0.7-0.8c0.3-0.1,0.7-0.1,0.9,0c0.1,0,0.3,0.5,0.3,0.6c-0.2,0.2-0.5,0.4-0.8,0.4
		C672.7,485.3,672.3,485.2,671.9,485.1z"/>
	<path d="M615.3,506.9c0.1,0.1,0.2,0.2,0.2,0.3c-0.1,0.4-0.3,0.8-0.5,1.2c0,0-0.4-0.1-0.6-0.2c0.2-0.4,0.3-0.8,0.5-1.1
		C615,506.9,615.2,506.9,615.3,506.9z"/>
	<path d="M614.6,502.9c-0.2,0.2-0.4,0.5-0.6,0.7c-0.2-0.3-0.4-0.5-0.4-0.8c0-0.3,0-0.8,0.6-0.6C614.3,502.3,614.4,502.6,614.6,502.9
		z"/>
	<path d="M643.3,562.6c0.1,0.1,0.3,0.3,0.4,0.4c-0.2,0.1-0.4,0.2-0.6,0.3c0,0-0.2-0.2-0.2-0.2C643,563,643.2,562.8,643.3,562.6z"/>
	<path d="M768,80c-0.8,0.1-1.2-0.4-1.7-1C767.3,78.9,767.8,79.3,768,80L768,80z"/>
	<path d="M773.9,32.4c0.2,0.6,0.5,1.3,0.7,1.9c-0.1,0-0.3,0.1-0.4,0.1C774.1,33.7,774,33,773.9,32.4L773.9,32.4z"/>
	<path d="M704.5,466.4c-0.2,0.3-0.4,0.5-0.5,0.6c-0.5,0.1-1.2-0.4-1-0.7c0.1-0.2,0.4-0.3,0.7-0.2
		C703.9,466.1,704.2,466.3,704.5,466.4z"/>
	<path d="M809,490.6c-0.5-0.4-1-0.8-1.7-1.4c0.6,0,0.9-0.1,1,0C808.5,489.6,808.7,490.1,809,490.6L809,490.6z"/>
	<path d="M776.2,443.5c0.5,1.1,0.4,1.2-0.8,1.5l0.1,0.1c0.3-0.5,0.6-1.1,0.9-1.6L776.2,443.5z"/>
	<path d="M821.8,480.3c0-0.5,0-1.1,0-1.9C822.4,479.3,822,479.7,821.8,480.3L821.8,480.3z"/>
	<path d="M265.1,525.7c-0.1,0.1-0.3,0.3-0.4,0.4c-0.1-0.1-0.3-0.3-0.4-0.4c0,0,0.1-0.3,0.2-0.3C264.7,525.6,264.9,525.7,265.1,525.7
		z"/>
	<path d="M263.9,251.4c0.2-0.1,0.4-0.2,0.6-0.2c0.1,0,0.1,0.1,0.2,0.2c-0.2,0.1-0.4,0.2-0.6,0.2C264,251.6,264,251.4,263.9,251.4z"
		/>
	<path d="M759.8,40.5c0.1,0.2,0.3,0.3,0.4,0.5c0.1,0.1,0,0.2,0,0.3c-0.1-0.1-0.3-0.1-0.3-0.2C759.8,40.8,759.9,40.6,759.8,40.5
		C759.8,40.4,759.8,40.5,759.8,40.5z"/>
	<path d="M613.8,497.1c-0.1-0.1-0.1-0.2-0.2-0.3c0.1-0.1,0.3-0.2,0.4-0.2c0,0.1,0.1,0.2,0,0.3C614,497,613.9,497.1,613.8,497.1z"/>
	<path d="M195.6,499.1c0,0.1,0.1,0.1,0.1,0.2c-0.1,0-0.2,0.1-0.3,0.1c0,0-0.1-0.1-0.1-0.2C195.3,499.2,195.4,499.1,195.6,499.1z"/>
	<path d="M192.8,244c-0.1,0-0.2,0.1-0.3,0.1c-0.1,0-0.2-0.1-0.3-0.2c0.1,0,0.2-0.1,0.3-0.1C192.6,243.8,192.7,243.9,192.8,244z"/>
	<path d="M774,32.3c-0.2-0.2-0.3-0.5-0.2-0.3C773.7,31.8,773.8,32.1,774,32.3L774,32.3z"/>
	<polygon points="280.5,526.7 280.5,526.9 280.3,526.8 	"/>
	<path d="M284.7,527.7c0.1,0.1,0.1,0.2,0.1,0.3c0,0.1-0.1,0.2-0.2,0.3c-0.1-0.1-0.1-0.2-0.1-0.3
		C284.5,527.9,284.6,527.8,284.7,527.7z"/>
	<path d="M693.1,229.6c-0.1-0.2-0.3-0.3-0.4-0.5c0-0.1,0.2-0.3,0.4-0.4c0,0,0.2,0.2,0.2,0.2C693.3,229.2,693.2,229.4,693.1,229.6z"
		/>
	<path d="M789.5,67.5c0.7,0.3,0.7,0.9,0.7,1.5l0.1-0.1C790.1,68.4,789.9,67.9,789.5,67.5L789.5,67.5z"/>
	<path d="M817.3,478.8c0-0.2,0.1-0.5,0.1-0.7C817.4,478.3,817.3,478.5,817.3,478.8L817.3,478.8z"/>
	<path d="M789.6,67.4c-0.2-0.1-0.3-0.3-0.5-0.4c-0.1-0.1-0.1-0.2-0.1-0.3c0.1,0.1,0.3,0.1,0.4,0.2C789.5,67,789.5,67.3,789.6,67.4
		L789.6,67.4z"/>
	<path d="M697.5,465.4c0.2,0.1,0.4,0.2,0.6,0.3c-0.1,0.1-0.2,0.2-0.3,0.2c-0.2,0-0.4-0.1-0.6-0.2
		C697.3,465.5,697.4,465.5,697.5,465.4z"/>
	<path d="M811.2,449.6c0.2,0.2,0.3,0.5,0.2,0.2C811.4,450.1,811.4,449.8,811.2,449.6L811.2,449.6z"/>
	<polygon points="765,464 765,464.2 764.7,464.1 	"/>
	<path d="M833.7,483.1c-0.2-0.1-0.4-0.2-0.5-0.4c0-0.1,0.1-0.3,0.2-0.5c0,0.1,0.1,0.2,0.1,0.3c0,0.2,0,0.4,0.1,0.7L833.7,483.1z"/>
	<path d="M791,459.2c0,0.2,0,0.4,0,0.7c0,0.1-0.1,0.2-0.2,0.3c-0.1-0.2-0.3-0.4-0.2-0.5C790.7,459.5,791,459.4,791,459.2
		C791.1,459.3,791,459.2,791,459.2z"/>
	<path d="M782.1,56.2c0.1,0.2,0.3,0.3,0.4,0.5c0,0-0.1,0.2-0.1,0.2c-0.1-0.3-0.2-0.5-0.2-0.8C782.2,56.1,782.1,56.2,782.1,56.2z"/>
	<path d="M803.5,434.3c-0.2,0.1-0.4,0.2-0.6,0.2c-0.1,0-0.2-0.2-0.2-0.2c0.1-0.1,0.2-0.2,0.3-0.2
		C803.1,434.1,803.3,434.2,803.5,434.3z"/>
	<path d="M829.2,470.4c0.2,0.2,0.3,0.5,0.1,0.2C829.3,471,829.3,470.7,829.2,470.4L829.2,470.4z"/>
	<path d="M809,548C809.1,548.1,809.1,548.1,809,548L809,548z"/>
	<polygon points="798.6,454.1 798.7,453.9 798.5,454.1 	"/>
	<path d="M767.9,80.1c0.1,0.1,0.2,0.2,0.4,0.3c-0.1,0-0.2,0-0.2-0.1C768,80.2,768,80.1,767.9,80.1L767.9,80.1z"/>
	<path d="M748.4,28.9c-0.1,0.1-0.2,0.2-0.2,0.2c-0.1,0-0.1-0.1-0.2-0.2c0.1-0.1,0.2-0.2,0.2-0.2C748.3,28.7,748.4,28.8,748.4,28.9z"
		/>
	<path d="M776.9,451c0,0.3,0,0.5,0,0.8l0.1,0.1C777,451.6,777,451.3,776.9,451L776.9,451z"/>
	<polygon points="776.9,455.5 777,455.4 776.9,455.4 	"/>
	<polygon points="776.9,455.4 776.8,455.6 776.9,455.5 	"/>
	<path d="M805.2,563.1c0.3,0.2,0.5,0.5,0.8,0.7l0.1,0C805.8,563.5,805.5,563.2,805.2,563.1L805.2,563.1z"/>
	<polygon points="805.9,563.8 806.1,563.9 806,563.7 	"/>
	<path d="M779.2,457.1c0-0.1,0.1-0.2,0.1-0.3C779.2,456.9,779.2,456.9,779.2,457.1L779.2,457.1z"/>
	<polygon points="655.5,567.8 655.7,567.7 655.7,567.9 	"/>
	<path d="M781.4,55.5c0.3,0.2,0.5,0.5,0.8,0.7c0,0,0.1-0.1,0.1-0.1C781.7,56.2,781.5,55.9,781.4,55.5
		C781.4,55.4,781.4,55.5,781.4,55.5z"/>
	<polygon points="808.9,490.6 809.2,490.8 809,490.6 	"/>
	<polygon points="729.2,55.5 729,55.6 729.2,55.6 	"/>
	<polygon points="729.2,55.6 729.3,55.3 729.2,55.5 	"/>
	<path d="M725.4,45.8c-0.3,0.2-0.5,0.4-0.8,0.7c0,0,0.1,0.1,0.1,0.1C724.7,46,725,45.7,725.4,45.8C725.5,45.9,725.4,45.8,725.4,45.8
		z"/>
	<path d="M725.5,45.9c0-0.1,0-0.2,0-0.3C725.5,45.6,725.5,45.7,725.5,45.9C725.4,45.8,725.5,45.9,725.5,45.9z"/>
	<polygon points="718.8,60 718.8,59.7 718.7,59.9 	"/>
	<polygon points="284,248.4 283.8,248.5 283.8,248.2 	"/>
	<polygon points="766.5,73.3 766.3,73.2 766.4,73.4 	"/>
	<path d="M766.4,73.4c0.3,0.3,0.5,0.5,0.8,0.8c0,0,0.1-0.1,0.1-0.1c-0.3-0.3-0.5-0.5-0.8-0.8C766.5,73.3,766.4,73.4,766.4,73.4z"/>
	<path d="M645.9,128.9c-1.4-1.4-1.7-2.9-1.8-4.5c0-1.7,0-3.4,0.1-5.2c0-0.8,0.3-1.5,1.1-1.7c0.5-0.1,1.1,0.6,1.1,1.6
		c0,2.6-0.1,5.2-0.2,7.7C646.2,127.6,646,128.2,645.9,128.9z"/>
	<path d="M659,328.8c1.3-1.1,2.4-1,3.4-0.7c0.4,0.1,0.8,0.7,0.8,1c0,0.3-0.6,0.8-1,0.9C661.1,330.2,660.1,329.6,659,328.8z"/>
	<path d="M618.3,229.1c-0.7-2.7-1.2-4.5,0.9-6.3C619.6,224.9,619.8,226.7,618.3,229.1z"/>
	<path d="M617.9,220c-0.8-2.4-0.7-3.8-0.4-5.4c0.5,0.1,0.9,0.2,0.9,0.3C618.9,216.4,619,217.9,617.9,220z"/>
	<path d="M621,234.1c-1.1-1.1-1.2-2.3-0.7-3.8C621.7,231.5,621.5,232.8,621,234.1z"/>
	<path d="M648.1,137.9c1,0.4,1,1.2,0.9,2c0,0.2-0.3,0.4-0.4,0.5c-0.2,0.1-0.5,0-0.6-0.1C647.2,139.5,647.2,139.2,648.1,137.9z"/>
	<path d="M610.2,246.1c1.3,1,1.7,2.2,1.7,4.1C610.3,248.3,610.3,248.3,610.2,246.1z"/>
	<path d="M672.3,86.7c0.9,0.7,1.4,1,1.8,1.4c0.3,0.4,0.5,0.8,0.1,1.3c-0.4,0.4-1.2,0.2-1.5-0.5C672.5,88.4,672.5,87.8,672.3,86.7z"
		/>
	<path d="M628.2,104.6c-0.8-1.3-0.9-2.3-1-3.8C628.7,102,628.3,103.1,628.2,104.6z"/>
	<path d="M645.7,132.4c0-0.6,0-1.1,0-1.7c0.7-0.3,1,0.1,1,0.6c0,0.4-0.3,0.8-0.4,1.2C646.1,132.5,645.9,132.5,645.7,132.4z"/>
	<path d="M629.7,108.2c0.2,1,0.3,1.5,0.3,2c0,0.3-0.3,0.7-0.4,1C628.8,110.4,628.8,109.7,629.7,108.2z"/>
	<path d="M609.6,240.9c-0.8-0.2-1-0.6-0.8-1.1c0.1-0.2,0.4-0.2,0.6-0.3C609.5,239.9,609.5,240.4,609.6,240.9z"/>
	<path d="M654.3,328.9c0.1,0,0.2-0.1,0.3-0.1c0,0.1,0,0.2,0.1,0.3c-0.1,0-0.2,0-0.3,0C654.3,329,654.3,328.9,654.3,328.9z"/>
	<polygon points="651.2,145.2 651.3,145.5 651,145.4 	"/>
	<path d="M464.8,169.1c5.4-1.5,10.7-3,16.1-4.4c1.8-0.5,2.4-0.4,4.6,0.2c-0.1,0.2-0.2,0.5-0.4,0.5c-4,0.4-7.8,1.5-11.6,2.6
		c-2,0.6-4.1,1-6.2,1.5c-0.8,0.2-1.7,0.1-2.5,0.1C464.8,169.4,464.8,169.2,464.8,169.1z"/>
	<path d="M445.5,174.8c1.8-1.1,3.7-1.7,5.9-1.1c-0.6,0.1-1.1,0.2-1.7,0.4c-0.7,0.2-1.4,0.4-2.1,0.5
		C446.9,174.8,446.2,174.7,445.5,174.8L445.5,174.8z"/>
	<path d="M438,177.8c-0.7,0.6-1.4,0.9-2.5,0.2c1.1-0.1,1.9-0.1,2.6-0.1L438,177.8z"/>
	<polygon points="425.2,181.3 425.2,181.1 425.5,181.2 	"/>
	<path d="M438,177.9c0.1-0.2,0.3-0.4,0.5-0.5c0.1,0,0.3,0.1,0.5,0.2c-0.1,0-0.2,0.1-0.3,0.1c-0.2,0-0.5,0-0.7,0.1L438,177.9z"/>
	<polygon points="445.4,174.7 445.3,175 445.5,174.8 	"/>
	<path d="M578.3,135.2c-0.9,0.6-1.4,0-1.8-0.3c-1.3-0.8-2.4-1.7-3.7-2.4c-2.1-1.2-3.7-2.9-5.3-4.6c-0.3-0.4-0.5-1,0-1.3
		c0.3-0.2,0.9-0.1,1.3-0.1c0.1,0,0.2,0.1,0.3,0.2c0.2,0.1,0.4,0.3,0.6,0.5c2.5,2.2,5,4.4,7.5,6.6
		C577.6,134.2,577.9,134.7,578.3,135.2z"/>
	<path d="M571.7,143.4c0.6,0.4,1.3,0.7,1.9,1.1c0.7,0.5,1.3,1.1,2.1,1.5c0.7,0.4,1.6,0.6,2.3,0.8c0.1,0.8-0.3,1.1-0.8,1
		c-1.4-0.4-2.8-0.9-4.1-1.6c-1.2-0.6-1.9-1.5-1.3-3L571.7,143.4z"/>
	<path d="M571.8,143.3c-1.9,0.5-3.2-0.3-4.4-1.7c0.6-0.7,1.2-0.7,1.7-0.3c0.9,0.6,1.7,1.4,2.5,2.1
		C571.7,143.4,571.8,143.3,571.8,143.3z"/>
	<path d="M521.3,178.4c0.9-1.6,0.9-1.6,3-1.2C523.4,178,522.7,178.4,521.3,178.4z"/>
	<path d="M491.5,136.7c-0.9,0-1.5,0.1-2.1,0c-0.2-0.1-0.6-0.5-0.6-0.8c0-0.2,0.4-0.6,0.7-0.6C490.3,135.3,491,135.5,491.5,136.7z"/>
	<path d="M505.7,135.9c0.3,0.4,0.5,0.7,0.8,1c-0.2,0.1-0.4,0.4-0.5,0.3c-0.4-0.1-0.7-0.4-1.1-0.6
		C505.1,136.4,505.3,136.2,505.7,135.9z"/>
	<path d="M498.8,136.1c0.3,0.3,0.6,0.5,0.8,0.6c-0.3,0.2-0.5,0.5-0.8,0.6c-0.1,0.1-0.4-0.2-0.6-0.3
		C498.4,136.7,498.6,136.5,498.8,136.1z"/>
	<path d="M528.9,174.6c-0.4,0.2-0.7,0.3-1,0.4c-0.1-0.2-0.2-0.5-0.2-0.6c0.1-0.2,0.4-0.2,0.6-0.2
		C528.5,174.2,528.7,174.4,528.9,174.6z"/>
	<path d="M564.2,152.5c0.2,0.1,0.4,0.3,0.5,0.4c0,0,0,0.2-0.1,0.3C564.5,153,564.4,152.7,564.2,152.5L564.2,152.5z"/>
	<path d="M564.3,152.4c-0.1-0.1-0.2-0.2-0.3-0.3c0.1,0,0.1,0,0.1,0.1C564.1,152.3,564.1,152.4,564.3,152.4
		C564.2,152.5,564.3,152.4,564.3,152.4z"/>
	<path d="M555.9,101.7c0.3,0,0.6,0,0.9,0C556.5,102.1,556.2,102.2,555.9,101.7z"/>
	<path d="M121.4,323c-1.1,0.1-2-0.5-2-1.3c0-0.3,0.5-0.9,0.8-0.9c0.8-0.2,1.8,0.6,1.8,1.3C122,322.4,121.5,322.8,121.4,323z"/>
	<path d="M594.8,135.5c-2.4,1.1-4.4,1.5-6.4,1.8c-0.2,0-0.6-0.4-0.7-0.6c-0.1-0.1,0.1-0.5,0.2-0.6c0.3-0.2,0.6-0.5,0.9-0.6
		C590.6,135.2,592.4,135,594.8,135.5z"/>
	<path d="M600.6,134.3c1.4-0.8,2.4-0.9,3.9-0.7C603.3,134.9,602.3,134.9,600.6,134.3z"/>
	<path d="M485.1,498.1c1.6-0.2,3.2-0.4,4.7-0.4c3.6-0.1,7.2-0.2,10.8-0.1c1.7,0,3.4,0.4,5.1,0.8c0.4,0.1,0.7,0.5,1.3,1
		c-0.7,0.1-1.1,0.3-1.4,0.2c-2.4-0.7-4.9-0.6-7.4-0.6c-3.1,0-6.2,0-9.3,0c-1.3,0-2.6-0.2-3.9-0.3
		C485.1,498.4,485.1,498.2,485.1,498.1z"/>
	<path d="M464.1,498.4c2-0.6,4.1-0.5,6.1,0C468.2,498.9,466.1,498.8,464.1,498.4z"/>
	<path d="M453.6,499c1.3,0,2.6,0,3.9,0c0,0.1,0,0.2,0,0.3c-1.3,0-2.6,0-3.9,0C453.6,499.2,453.6,499.1,453.6,499z"/>
	<polygon points="443,499.1 443.3,499.1 443.3,499.3 	"/>
	<path d="M520.2,472.4c-0.2,0.1-0.4,0.3-0.6,0.3c-1.6-0.2-2.1-0.5-2.1-1.3c0-0.2,0.2-0.5,0.4-0.6c1-0.3,1.5,0.4,2.1,1
		C520.1,471.9,520.1,472.2,520.2,472.4z"/>
	<path d="M538.6,521.7c0.8-1.3,1.7-1.1,2.9-0.5C540.1,522.1,540.1,522.1,538.6,521.7z"/>
	<path d="M527.3,475.4c-0.2-0.2-0.4-0.5-0.7-0.7c0.3-0.1,0.6-0.4,0.9-0.3c0.2,0.1,0.4,0.5,0.6,0.7
		C527.9,475.2,527.6,475.3,527.3,475.4z"/>
	<path d="M533.1,476.2c1.2-0.9,1.5,0.2,2.3,0.5C534.2,477.5,533.6,477,533.1,476.2z"/>
	<path d="M547.2,519.9c-0.3,0.3-0.4,0.5-0.6,0.5c-0.3,0-0.6-0.2-0.8-0.3c0.1-0.1,0.2-0.2,0.3-0.2
		C546.4,519.8,546.7,519.8,547.2,519.9z"/>
	<path d="M588.1,508.5c-0.2-0.3-0.3-0.5-0.2-0.3C587.9,507.9,587.9,508.2,588.1,508.5C588,508.6,588.1,508.5,588.1,508.5z"/>
	<path d="M588,508.6c0.1,0,0.2,0.1,0.3,0.1C588.2,508.6,588.2,508.5,588,508.6L588,508.6z"/>
	<path d="M105.3,558.2c-1,0.1-1.6,0.4-2,0.1c-0.4-0.2-0.7-0.9-0.9-1.5c-0.1-0.1,0.2-0.5,0.4-0.6c0.6-0.4,1.2-0.2,1.6,0.4
		C104.6,557,104.8,557.3,105.3,558.2z"/>
	<path d="M699.9,449c2.6-0.7,4.9,0.1,7.2,0.7c2.5,0.6,5,1.2,7.4,3.1c-0.8,0.3-1.3,0.6-1.7,0.5c-4.2-1.1-8.3-2.3-12.5-3.6
		C700.3,449.6,700.2,449.3,699.9,449z"/>
	<path d="M690.2,447.4c-0.4,0.1-0.8,0.4-1.2,0.3c-0.3,0-0.5-0.4-0.7-0.7c0.3-0.2,0.5-0.5,0.8-0.5c0.3,0,0.7,0.1,1,0.2
		C690.1,447,690.1,447.2,690.2,447.4z"/>
	<path d="M679.6,445.8c-0.1,0.1-0.2,0.3-0.4,0.4c-0.1-0.1-0.2-0.3-0.3-0.4c0.2-0.1,0.3-0.2,0.5-0.3
		C679.5,445.7,679.6,445.8,679.6,445.8z"/>
	<path d="M734.3,555.2c1.5-0.5,2.6-0.6,3.6,0.2C736.5,556.1,736.5,556.1,734.3,555.2z"/>
	<path d="M731.5,559.4c0.4-1.5,1.6-1.4,3-1.6c-0.2,0.9-0.9,0.8-1.3,1C732.6,559.1,732,559.1,731.5,559.4
		C731.4,559.3,731.5,559.4,731.5,559.4z"/>
	<polygon points="731.4,559.3 731.3,559.4 731.5,559.4 	"/>
</g>
</svg>
