<?xml version="1.0" encoding="utf-8"?>
<!-- Generator: Adobe Illustrator 20.0.0, SVG Export Plug-In . SVG Version: 6.00 Build 0)  -->
<svg version="1.2" baseProfile="tiny" id="Layer_2" xmlns="http://www.w3.org/2000/svg" xmlns:xlink="http://www.w3.org/1999/xlink"
	 x="0px" y="0px" viewBox="0 0 900 600" xml:space="preserve">
<g>
	<path d="M503,262.1c0.4-0.2,0.7-0.6,1.2-0.7c1.5-0.3,3.1-0.4,4.5-0.8c2-0.6,4.2-0.6,6.2-1.7c0-1,0-1.9,0-2.8c0-1.1,0.1-2.1,0-3.2
		c-0.1-0.9,1.3-1.5,0.6-2.6c-1.1,0.4-2.1,0.8-3.3,1.2c0,0.9,0,1.7,0,2.5c0,1.4,0,2.8-0.1,4.3c0,0.5-0.3,0.9-1,0.8
		c-0.7-1.5-0.3-3.2-0.5-4.9c-0.1-0.7,0.1-1.4-0.9-1.9c-2.5,0.5-5.1,1.1-7.8,1.7c-0.2,1.7-0.3,3.2-0.5,4.7c-0.1,0-0.3,0-0.4,0
		c-0.2-1.3-0.4-2.6-0.6-4.2c-0.2,1.3-0.4,2.2-0.5,3c-0.1,0-0.2,0-0.4,0c-0.2-1-0.4-2-0.6-3.2c-2.1,0.4-4,0.7-5.7,1
		c-0.7,0.9-0.2,2-1.3,2.4c-0.3-0.7-0.7-1.4-1-2.1c-1.9,0.1-3.7,0-5.3,0.5c-0.6,1.4,0.2,2.9-1,4.3c-0.3-1.5-0.5-2.7-0.8-4.2
		c-1.8,0.1-3.4,0.2-5.2,0.2c-0.8,2.6-0.5,5.4-2.6,7.8c0-1.1-0.1-1.7,0-2.4c0.2-1.2,0.5-2.3,0.6-3.5c0.1-1.1-0.2-1.8-0.8-1.6
		c-0.7,0.2-0.7,0.8-0.8,1.4c0,1.2,0,2.4-0.1,3.5c-0.1,0.7-0.2,1.6-1.1,2c0-1.1,0-2.2,0-3.2c-0.1-1.1,0.3-2.3-0.6-3.5
		c-1.3,0.9-0.8,2.2-1.1,3.3c-0.3,1.1-0.5,2.2-1,4c-0.7-2.8,0.8-4.8,0.1-7.1c-0.9,0.1-1.6,0.2-2.3,0.2c-0.4,1.8-0.7,3.4-1.1,5
		c-0.1,0-0.2,0-0.4,0c-0.1-1.6-0.1-3.2-0.2-4.9c-0.6-0.1-1-0.3-1.4-0.3c-2.2,0.1-4.5-0.1-6.9,0.1c-0.3,2.5-0.1,4.9-1.5,7.5
		c0.1-2.7,0.2-4.9,0.3-7.3c-3.1-0.7-6.2-0.3-9.2-0.3c-3.1,0-6.3-0.6-9.5,0.3c0,1,0,1.8,0,2.6c0,0.9,0,1.9,0,2.9
		c1.8,0.6,3.6,1.3,5.5,1c0.6-1.6,0.2-3,0.4-4.4c0.1-0.5,0.1-1,0.9-1c0.2,1.8,0.3,3.7,0.5,5.7c0.9-0.1,1.5-0.1,2-0.1
		c1-1.6-0.1-3.4,1.1-5.1c0.1,1.1,0.1,1.8,0.1,2.5c0,0.6,0,1.2,0.1,1.8c0.1,0.6,0.5,1.1,0.8,1.7c-4.9,0.7-8.5,0.3-13.4-1.2
		c-2-0.6-4.1-1.1-6.2-1.4c-0.7-0.1-1.6,0.3-2.4,0.3c-0.7,0-1.4-0.2-2.1-0.3c-0.9-0.1-1.7-0.5-2.8-0.5c0.6,1.3,0.3,2.3-0.3,3.3
		c-2.3,4.3-5,8.3-8.4,11.9c-0.3,0.3-0.5,0.9-1.2,0.3c2.8-5.2,5.6-10.4,8.3-15.5c-1.1-1.7-1.1-1.7-1-3.7c0.1-1.5-0.5-2.5-1.8-3.1
		c-1.9-0.9-3.9-1.7-5.7-2.9c-2-1.3-4.2-0.3-6.2-1.1c-1-0.4-2.1-0.5-3.1-0.8c-2.3-0.7-4.5-1.5-6.8-2c-1.9-0.4-3.2-1.4-4.2-3
		c-1.9-3-3.8-6-5.5-9.1c-0.7-1.2-1.4-2.2-2.5-2.9c-2.1-1.4-4.1-2.8-6.2-4.1c-5-3.1-9.4-6.8-13.2-11.3c-3-3.5-6.2-6.8-9.4-10.2
		c-3.6-3.9-7.5-7.6-10.8-11.8c-4-5.2-7.1-10.9-9.2-17.1c-0.6-1.7-1-3.4-1.3-5.2c-0.3-1.4-0.2-2.8,0.3-4.2c1.4-4.6,4-8.5,6.6-12.3
		c0.8-1.2,1.8-2.2,2.7-3.3c1.8-2.1,3.1-4.4,4.3-6.9c4.6-10.5,11.8-18.5,22.5-23.1c1.6-0.7,3.2-1.4,4.9-2.2c0.8-0.4,1.7-0.8,2.4-1.2
		c0.4-1.1,0.7-2,1.1-2.8c1.5-3.5,3.3-6.8,5.8-9.8c1.6-1.9,3.3-3.7,5.1-5.5c4.1-4,8.3-7.8,13.4-10.5c3.6-2,7.5-2.9,11.6-2.6
		c2.8,0.2,5.7,0.1,8.5-0.1c2.7-0.3,5.4-0.2,8-1c0.2-0.1,0.5-0.1,0.7-0.1c3.9,0.1,7.8-0.8,11.6-1.5c4-0.7,8-1.3,11.7-2.9
		c5.3-2.3,8.7-6.4,9.8-12.2c0.1-0.6,0.2-1.2,0.5-1.7c0.9-1.8,1.3-3.5,0.4-5.4c-0.2-0.5-0.2-1.2-0.2-1.8c-0.2-3.7-0.9-7.3-2.5-10.6
		c-0.5-1-0.7-2-0.2-3.1c0.8-1.7,0.2-3.1-0.7-4.7c-2.5-4.9-2.7-10-0.3-15c0.4-1,0.8-2,1-3c0.5-2,0.3-4.3,2.3-5.7
		c0.1-0.1,0.1-0.4,0.2-0.7c0.3-0.9,0.5-1.7,0.9-2.7c0-0.3-1-0.6-0.4-1.3c0.3-0.1,0.7-0.2,1-0.4c0.5,0.4,1.1,0.8,1.7,1.2
		c0.2,1.3-1.6,1.5-1.6,2.7c0.3,0.1,0.6,0.2,0.7,0.2c3.3-1.8,3.3-1.8,6.7-0.3c0.4-0.6,0.8-1.3,1.1-1.8c-1.1-1.4-2.1,0-3.2-0.2
		c-0.6-0.7-1.3-1.4-1.9-2.2c-1.2,0.2-2.4,0.3-3.5,0.4c0.2-0.5,0.4-1.1,0.6-1.6c0.2-0.4,0.6-0.7,0.8-1.1c0.2-0.6,0.2-1.4,0.4-2
		c0.2-0.6,1.5-0.3,1.4-1.3c-0.7-1.2-2.1-1.9-2.3-3.5c1.2-0.9,2.3,0.2,3.2-0.2c1.2,1.1,2.3,2,3.2,2.8c4.9-0.8,5.3-1.1,10.4-5.4
		c0.3,0.5,0.6,0.9,0.8,1.4c0.1,0.5-0.6,1.1,0.1,1.5c2.2,0.4,2.3-2.2,4.2-2.9c3.5,0,7.5-0.1,11.5,0c0.8,0,1.7,0.6,2.6,0.9
		c0.6-0.3,1.2-0.9,1.8-0.9c1.6,0,3-0.6,4.4-1.1c1.3-0.5,2.7-0.5,4.2,0.1c-0.1,0.6-0.2,1.2-0.3,1.7c-0.2,0.1-0.3,0.2-0.5,0.3
		c0.5,0.4,0.4,0,0.4-0.3c0.4-0.1,1-0.1,1.3-0.4c1-0.8,1.9-1.8,2.9-2.6c0.3-0.3,0.8-0.4,1.3-0.6c0.9,2.4,0.2,4.7,0.3,6.9
		c1.5-0.6,2.9-1.2,4.3-1.7c0.9-0.3,1.6,0.2,1.8,1.3c-0.7,1.9-3.3,1.5-4.5,3.5c1.5-0.2,2.8-0.4,4-0.4c0.6,0,1.3,0.3,2.2,0.6
		c-0.3,0.8-0.7,1.3-0.7,1.8c0,0.7,0.2,1.3,0.3,2c-2.5,2.7-6.5,3.2-8.4,6.6c0.3,3,0.6,6,0.9,9.1c0.1,1.4,0.3,2.8,1.1,4.1
		c0.3,0.6,0.5,1.4,0.3,2c-0.7,2.9-1.3,5.7-2.5,8.4c-2.3,0.4-4.4,1.7-6.5,0.6c-1.5,1-0.3,2.9-1.6,4.3c-0.1-1.2-0.2-2-0.4-2.8
		c-0.5-3,1.1-4.9,3.4-6.5c0.4-0.3,0.9-0.4,1.3-0.6c1.4-0.6,2.8-1.2,4.3-1.8c0.2-0.9,0.4-1.8,0.6-2.8c-1.6-1.9-2.1-4.2-2.3-6.6
		c-0.1-1.7-0.2-3.3-0.4-5c0-0.5-0.2-1.1-0.3-1.6c-0.5,0-0.8-0.1-0.9,0c-2.7,1.4-5.5,1.1-8.3,0.2c-0.6-0.2-1.2-0.4-1.7-0.2
		c-2,0.6-3.7-0.2-5.6-0.6c-0.7,0.2-1.3,0.5-2,0.6c-0.8,0.1-1.6,0.1-2.6,0.2c0.1,0.5,0.3,0.9,0.3,1.4c0,0.7-0.3,1.1-1.1,0.9
		c-1-2.8-1.1-2.9-5.8-5c-0.8,0.3-1.4,0.9-1.5,1.8c-0.2,0-0.5,0-0.6,0.1c-0.2,0.1-0.3,0.4-0.3,0.5c0,0.1,0.3,0.3,0.4,0.3
		c0.2-0.1,0.4-0.3,0.4-0.4c0.1-0.2,0-0.4,0-0.6c1.2,0.3,2.4,0.7,3.9,1.1c0.5,1.1,1.1,2.4,1.6,3.5c-0.5,1.6-2,1.1-3,1.7
		c0.2,0.5,0.4,0.9,0.6,1.5c-1-0.1-1.9-0.2-2.7-0.3c-1.4,0.7-2,1.9-2.4,3.1c-0.7,2.1-1.7,3.9-3.2,5.5c-1.4,1.4-2.1,3.1-2.6,4.9
		c-0.8,2.7-1.9,5.4-3,8c-0.3,0.8-0.7,1.8-1.8,2c-1.1-0.8,0.2-1.8-0.3-2.6c-0.5-0.9-0.8-2-1.1-3c-0.3-0.9-0.4-1.8-0.7-2.8
		c-0.1-0.5-0.2-1-0.5-1.3c-0.3-0.5-0.8-0.8-1.3-1.1c-0.2-0.1-0.7,0-1,0.1c-0.2,0.2-0.4,0.6-0.4,0.9c0.2,1.1,0.8,2,1.6,2.7
		c0.5,0.5,1,1,1.4,1.4c-0.3,2-0.5,3.8-0.7,5.7c-0.6,1.9-2.3-0.3-3.1,0.9c0.5,0.9,1.1,1.8,1.5,2.5c0.9,0.5,1.7-0.5,2.3,0.6
		c-0.1,0.3-0.4,0.6-0.6,1c-0.5,0.9-1.4,1.8-1.5,2.8c-0.3,3.3-2.5,6.2-1.6,9.6c-0.9,2.3-1.8,4.6-2.7,6.9c-1.7,0.7-2.2,2.4-3.3,3.6
		c-3,3.5-6.2,6.6-11.2,6.9c0.2,3.5,0.4,6.9,1.4,10.2c1.5,4.6,2.8,9.3,4.4,13.9c2.2,6.1,4.7,12.2,7.1,18.2c0.5,1.2,1,2.5,2,3.3
		c2.9,2.4,6.1,4.5,9.7,5.9c1.1,0.4,2.4,0.9,3.7,0.4c-0.2-1.3-0.4-2.5-0.6-3.6c-0.2-1.2-0.5-2.3-0.6-3.5c-0.2-1.1-0.7-2.1-0.1-3.6
		c0.7,1.1,1.3,1.8,1.7,2.6c0.4,0.8,0.8,1.7,1,2.6c0.2,0.9,0.4,1.9,0.5,2.8c0.1,0.9,0.1,1.8,0.1,2.7c0.4,0.2,0.6,0.4,0.8,0.3
		c1.8-0.1,3.5-0.3,5.3-0.4c4.5-0.4,8.4-2.3,11.7-5.4c5-4.8,8.1-10.7,9.9-17.4c0.2-0.6,0.6-1.3,0-2c-2.5-0.5-5-0.9-7.6-1.4
		c-0.1,0-0.1-0.2-0.2-0.5c2.7-0.4,5.6,0.5,8.1-0.7c0.5-3.3,0.4-8.4-0.2-11.1c-1.3-0.8-2.7-1.7-4.1-2.5c-0.2-0.1-0.4,0-0.9-0.1
		c-0.2,1-0.2,2.2-0.8,2.9c-1,1.1-1.2,2.6-1.9,3.7c-0.2,0.3-0.6,0.5-1.3,1c0.5-3.4,0.8-6.3,1.3-9.2c0.5-3,1.3-6,0.8-9.2
		c-3-0.4-5.4-2.3-8.5-2.5c-0.6,0-1.4-0.4-1.4-1.3c0.1-0.1,0.2-0.2,0.3-0.2c0.1-0.1,0.2-0.2,0.3-0.1c3.8,1.3,7.9,1.6,11.1,3.5
		c4.2-0.1,6.1-2.4,7-5.8c0.1-0.5,0.3-0.9,0.5-1.3c0.4-1.2,0.7-2.5,1.3-3.7c1.6-2.9,1.8-6.1,2.1-9.3c0.1-1.1,0-2.1,0.2-3.2
		c0.3-2,0.3-4.1,1-5.9c1-2.3,1.2-4.5,1-6.9c-0.1-1.1,0-2.1,0.1-3.2c0-0.3,0.2-0.5,0.5-1.2c0.4,1.1,0.7,1.7,0.8,2.3
		c0.3,1.5,0.4,3.1,0.7,4.6c0.3,1.9,0.1,3.8-0.9,5.5c-0.9,1.5-1.1,3.1-1.3,4.8c-0.2,1.5-0.4,3.1-0.4,4.6c-0.1,2.5-0.9,4.9-1.8,7.2
		c-1.1,3-2.4,6-3.2,9c-0.5,1.9-1.5,2.9-3.1,3.5c-1,0.4-2,0.7-3.3,1.1c0,2.4-0.7,4.8-0.4,7.3c1,0.5,1.8,0.9,2.6,1.4
		c2.5,1.5,5.2,2.9,7.6,4.6c3.1,2.2,5.9,4.7,8.8,7.2c1.2,1,2.2,2.1,2.7,3.7c0.2,0.6,0.8,1.2,1.3,1.6c1.3,1.1,2.8,1.7,4.6,1.6
		c1.9-0.1,3.5,0.6,5,1.6c2.8,1.9,5.4,3.9,7.7,6.3c4.8,5.1,7.2,11.3,8.4,18.1c0.2,1,0.1,2.1,0.1,3.2c-0.4,5.2-1,10.4-2.8,15.3
		c-0.6,1.8-1,3.6-1,5.6c0,0.8,0.1,1.8-0.4,2.4c-1.1,1.4-0.9,2.9-0.5,4.4c1.4,4.9,1.8,10,3.7,14.8c0.6,1.5,0.8,3.2,0.9,4.9
		c0.1,2.5,0,5,0,7.5c0,1.9,0,3.8,0,5.7c0,0.5,0.4,1.1-0.3,1.5c-1.9-0.8-2.1-2.4-2.2-4.1c0-0.3,0.1-0.7,0.1-1.1
		c0.1-2.7,0.2-5.4,0.4-8.2c0.1-1.5-0.2-3-0.5-4.6c-1.1-4.7-2.1-9.5-3.1-14.2c-0.4-1.7-0.6-3.5-0.2-5.3c0.3-1.3,0-1.5-1.9-1.5
		c-0.3-1.7,0.1-3.3,0.5-4.9c0.6-0.2,1.1-0.5,1.7-0.7c1.3-3.1,2.2-6.4,2.8-9.8c1.1-5.6,0.6-11-1.3-16.4c-2-5.7-5.2-10.6-9.5-14.9
		c-2.4-2.4-5.3-3.9-8.8-4.2c-1.1-0.1-2.4-0.5-3.3-1.2c-2.1-1.6-4.4-3.2-5.9-5.5c-0.4-0.7-0.6-0.8-2.3-1.2c0.6,1.9,1.4,3.5,3.4,4.3
		c0.9,0.4,1.6,1.2,2.4,1.9c-0.6,0.9-1.6-0.8-2.2,0.7c0.1,1.1,0.8,2.2,1.3,3.3c2.5,5.8,4.4,11.8,5.2,18c0.4,3.3,0.7,6.6,1.1,9.9
		c0.1,1-0.1,2.2,1,3.1c1-1.9,1.9-3.8,2.9-5.8c0.3,0.4,0.6,0.7,0.6,1c-0.3,1.3-0.5,2.6-0.9,3.8c-1.8,4.4-4,8.6-6.9,12.4
		c-0.9,1.1-2,2-3,3c-0.4,0.4-0.8,0.8-1.3,1.4c0.8,1,1.6,1.9,2.3,2.9c1.5,2.1,3.4,3.9,3.6,6.8c1.2,0,2.2,0,3,0
		c1.8,1.9,3.5,3.5,5.1,5.2c0.2,0.2,0.6,0.5,0.6,0.8c0.2,1.8,1.6,2.6,2.9,3.4c1.3,0.7,1.8,1.9,1.9,3.2c0.1,0.8-0.1,1.7-0.5,2.4
		c-0.8,1.4-0.9,2.9-0.8,4.4c0,0.1-0.2,0.2-0.4,0.4c-0.9-1.7-1-3.4-0.1-5.1c0.6-1.1,0.9-2.2,0.4-3.4c-1.3-1.1-2.9-1.9-3.7-3.3
		c-1.1-1.8-2.8-2.8-4-4.3c-0.5,0.1-0.8,0.2-1.2,0.3c-0.2-0.9,0.2-1.9-0.9-2.7c-2-0.3-4.1-0.2-6.1,0.7c-2.9,1.3-5.9,2.5-8.1,5
		c-0.3,0.3-0.3,0.9-0.2,1.3c0.1,0.7,0.7,1,1.3,0.9c0.9-0.1,1.9-0.3,2.7-0.6c2.4-1.1,5-1.2,7.8-1.7c-0.4,0.7-0.7,1.1-1.1,1.7
		c1,0.1,1.8,0.1,2.6,0.1c1.5,0,3.1,0,4.6,0.1c0.3,0,0.6,0.4,1.4,0.9c-3.1,0.3-5.7,0.7-8.3,0.3c-1.7-0.2-3.3-0.1-4.9,0.3
		c-2.2,0.6-4.4,0.9-6.6,1.2c-0.7,0.1-1.4,0.3-2.1,0.4c-0.4,0.6-0.9,1.2-1.2,1.8c-0.7,1.4-0.3,2.2,1.3,2.4c0.5,0.1,0.9,0.1,1.4,0.1
		c3.6-0.1,7.1-0.1,10.7-0.2c0.6,0,1.3-0.3,1.8-0.1c1.8,0.7,3.5,0.3,5.2,0.1c0.4-0.1,0.9,0,2,0.1c-1.1,0.6-1.6,0.9-2.1,1
		c-1.4,0.2-2.8,0.4-4.2,0.4c-3.7,0-7.3,0.6-11.1,0.9c-0.6-0.4-1.3-1.1-2.4-1c-0.8,0.1-1.7,0.1-2.5,0c-1.7-0.1-2.6-1.1-2.3-2.8
		c0.2-1.1,0.7-2.2,1.1-3.3c1.4-0.4,2.6-0.8,3.9-1.3c-0.3-0.7-0.6-1.5-0.9-2c1.5-3.6,4.5-5.2,7.8-6.5c0.6-0.2,1.1-0.4,1.7-0.6
		c0.7-0.3,1.5-0.7,2.1-1.1c0.5-2.6-0.7-4.2-2.9-5.1c0-0.3-0.1-0.6,0-0.3c-0.2-0.2,0,0,0.1,0.2c-0.1,0.4,0.2,0.9-0.5,1
		c-0.8-1-1.6-1.9-1.3-3.5c0.2-1-0.7-1.7-1.7-1.8c-0.7-0.1-1.4,0-2.1-0.1c-0.6-0.1-1.4,0.2-1.8-0.8c1.9-1,4.3,0.4,6.1-1.2
		c-0.4-1.1-0.8-2.2-1.2-3.3c-1.9-0.2-3.7-0.4-5.5-0.1c-0.2,1.5,1.8,0.9,1.6,2.2c-0.6,0.3-1.3,0.5-1.9,0.8c-0.3,2.3-1.9,3.8-3.4,5.3
		c-1.8,1.8-3.3,3.7-3.5,6.4c0,0.6-0.3,1.1-0.5,1.7c-1.2,3.2-1.2,6.5-1,9.8c0,1.2,0.3,2.3,1,3.3c0.8,1.1,1.2,2.3,1.2,3.7
		c0,1.9,0.1,3.8,0.1,5.7c0,0.2,0,0.5-0.2,0.6c-1,1-0.8,2.4-1.1,3.7c-0.2,1.1-0.5,2.5-1.2,3.3c-1.4,1.7-1.5,3.6-1.5,5.7
		c0,2.4,0,4.7,0.1,7.1c0,1.1,0.2,2.1,0.4,3.2c0.3,1.2,1.3,2,2.6,2c3.1,0.1,6.2,0.2,9.2,0.3c1.8,0.1,3.4-0.3,5-1.3
		c1.6-1,2.4-2.2,2.4-4c0-2.1-0.2-4.3,0-6.4c0.2-2.5-0.3-4.7-2-6.6c-0.2-0.2-0.4-0.3-0.6-0.5c-3.8-0.2-7.7-0.3-10.6-3.4
		c0.2-0.4,0.3-0.6,0.4-0.8c0.8-1.6,1-1.8-0.2-2.7c-1.4-1-1.1-2.3-0.9-3.5c0.2-1.1,1-1.2,1.9-0.9l-0.1-0.1c-0.4,1-0.9,2,0,3.1
		c1.3,0.4,2.6,1,3.9,1.1c3.1,0.3,6.1,0.7,9.2-0.5c0.5-0.2,1.2-0.4,1.7-0.3c2.1,0.3,4-0.3,5.8-1.1c0.1,0,0.3,0.2,0.6,0.4
		c-0.6,0.7-1.1,1.4-1.9,2.2c-2.8,0-5.8-0.1-8.7,0c-3.1,0.1-6.1-0.2-9.1,0.2c-0.2,2.5-0.2,2.8,1.3,3.3c1.2,0.4,2.5,0.7,3.8,0.8
		c2.6,0.1,5.2,0.1,7.8,0.1c1.3,0,2.7-0.2,3.9,0.2c1.9,0.6,3.5,0.2,5.2-0.4l-0.1-0.1c0.1,0.7-0.4,1.1-0.9,1.3
		c-1.5,0.7-3.1,0.9-4.8,0.7c-1.8-0.3-3.7-0.3-5.4,0.4c0.2,1.2,0.6,2.2,0.6,3.3c0.1,4.4,0.1,8.7,0.2,12.9c-0.4,0.4-0.6,0.6-0.7,0.7
		c-2.3,2.3-2.2,4.2,0.4,6.1c0.4,0.3,0.8,0.5,1.2,0.7c2,1.1,3.9,2.2,5.9,3.3c0.6,0.3,1.3,0.6,2,0.6c2.6,0.2,5.2,0,7.7-0.8
		c3.3-1.1,6-2.8,6.4-6.7c0.1-1,0.6-1.8,1.3-2.4c1-1,2.1-1.9,3.1-2.9c0.7-3.7-0.2-7.4-0.3-11.9c0.7,1.2,1.1,1.6,1.2,2.1
		c0.6,2.7,0.6,5.4,0.9,8.1c0.2,1.6-0.1,2.9-1.1,3.9c-1.9,1.8-3,3.9-3.8,6.3c-0.2,0.7-0.5,1.4-1,1.8c-1.2,1.1-2.5,2.1-3.9,3
		c-0.5,0.4-1.4,0.7-2,0.5c-1.5-0.6-2.8,0.1-4.2,0.4c-1.5,0.3-3,0.5-4.6,0.6c-0.6,0-1.2-0.1-1.7-0.3c-2.8-1.5-5.7-3-8.5-4.5
		c-1.4-0.8-2.4-1.9-3-3.4c-0.2-0.5-0.5-1-0.8-1.5c-1.6-0.1-3.2-0.3-4.8,0.3c0,2.5,0,5,0,7.5c0,1.2-0.1,2.4-0.3,3.5
		c-0.5,2.6-1.1,5.1-1.6,7.7c1.3,0.7,1.8,1.7,1.8,3c0,3.2,1.5,6.2,1.9,9.3c0,0.4,0.4,0.9,0.5,1.3c2.3,5.2,5.1,10.2,7.9,15.1
		c1.9,3.4,3.4,7,4.1,10.9c0.8,3.9,1,7.8,0.9,11.7c0,2.2,0.1,4.5,0.2,6.7c0.3,5.1,0.7,10.2,0.8,15.3c0.2,6.6-0.5,13.3-1,19.9
		c-0.4,5.8-1.1,11.6,0.7,17.3c0.1,0.3,0.1,0.7,0.1,1.1c0.3,3.1,0.8,6.1,1,9.2c0.4,5,0.8,9.9,1,14.9c0.1,2.2-0.2,4.5-0.5,6.7
		c-0.4,2.6-1.6,4.6-3.9,6.1c-1.9,1.3-3.9,2.4-6,3c-4.3,1.3-8.7,2.4-13,3.7c-0.8,0.2-1.5,0.6-2.2,0.8c-1.2,3.1-2.4,6.1-2,9.4
		c0.4,3.6-0.6,7-2,10.4c-0.5,1.1-0.9,2.1-0.5,3.4c1.5,5.4,1.8,11,1.9,16.6c0.1,5.5,0,10.9,0.2,16.4c0.3,7.6-0.2,15.2-1.3,22.7
		c-0.5,3.2-1.2,6.3-0.8,9.5c0.8,6.2-0.2,12.3-0.5,18.5c-0.1,2.1-0.4,4.3-0.3,6.4c0.2,6,0.6,12.1,0.4,18.1c0,1-0.2,2.1,0.5,3
		c1.6,0.4,1.9-1.7,3.5-1.8c0.4,0.3,1,0.7,1.5,1.1c0.6,0.5,1.2,1.2,1.9,1.6c3.2,2.3,6,5,8.6,8c3.1,3.7,6.3,7.4,9.2,11.3
		c1.8,2.4,4,4,6.6,5.3c2.3,1.1,4.6,1.9,7,2.4c1.9,0.4,4,0.5,5.8,1.6c0.8,0.5,2.1,0.3,3.1,0.3c0.7,0,1.3-0.2,1.9-0.2
		c1.6,1.4,2.2,3.1,2.9,4.7c1.2,2.9,1.8,5.9,2.3,8.9c0.4,2.6-0.7,4.3-3.2,5.1c-0.7,0.2-1.4,0.4-2,0.7c-2.3,1.2-4.7,1.6-7.2,1.7
		c-7.2,0.3-14.5,0.7-21.7,1c-3.3,0.1-6.6-0.3-9.8-1.2c-2.7-0.8-5.3-2-8-2.7c-1.3-0.3-2.5-1.3-3.8-1.9c-0.9-0.5-1.9-1-2.8-1.5
		c-1.2-0.7-2.4-0.8-3.7-0.5c-1.3,0.3-2.6,0.4-3.9,0.5c-5.9,0.5-11.8,0-17.7-0.8c-4.6-0.6-8-3.2-10.9-6.9c1.2-1.7,2.4-3.3,3.5-4.9
		c-0.8-2.7-0.8-2.7,0-4.9c0.3-0.8,0.6-1.5,1-2.3c1.5-3.1,2.9-6.2,4.4-9.3c1-2.1,1.5-4.2,1.2-6.5c-0.4-2.6,0.2-5.2,0.6-7.4
		c1.6-1.6,4-0.7,5.4-2.3c-0.2-3.3-0.8-6.6-1.5-9.8c0-0.2-0.1-0.6-0.3-0.6c-2-0.8-1.7-2.7-2.1-4.2c-0.5-2.2-0.9-4.4-1.2-6.6
		c-0.8-5.4-1.4-10.8-2.3-16.2c-0.8-5-2.4-9.9-4.3-14.6c-2.7-6.6-3.7-13.5-3.1-20.5c0.2-2.4,0.5-4.7,0-7.1c-0.2-0.9,0-1.9,0.2-2.8
		c0.8-3.7,1.7-7.4,2.7-11c0.8-2.9,1.3-5.8,1.9-8.7c0.5-3,0.4-5.9-0.4-8.8c-0.9-3.3-1.8-6.6-2.7-9.9c-1-3.6-1.4-7.2-0.9-10.9
		c0.1-0.7,0.6-1.3-0.1-2.2c-1.5,0-3.2-0.3-3.8-2.4c0.5-2,1-4.2,1.5-6.4c0.3-1.6,0.5-3.3,0.7-4.9c0.2-1.6,0.7-3.4,0.3-4.9
		c-0.5-1.8,0.5-3.2,0.5-4.8c0-5-0.4-9.9-1.6-14.8c-0.1-0.4-0.4-0.8-0.7-1.3c-1.6,4.1-1.6,4.1-1.3,8c0,0.6,0,1.2-0.1,1.8
		c-0.4,6.5-0.9,13-1.9,19.5c-0.6,4.2-1,8.5-0.2,12.8c0.1,0.8,0.1,1.7,0,2.5c-0.1,0.9-0.9,1.5-1.7,1.1c-0.8-0.4-1.5-0.4-2.4-0.1
		c-2.4,0.9-4.8,1.2-7.3,1.3c-2.8,0.2-5.7,0.4-8.5,0.6c-1.7,0.2-3.5,0.5-5.2,0.7c-1.2,3.3-2.5,6.4-3.5,9.5c-1,3.1-2.5,5.9-4.4,8.5
		c-1,1.3-1.1,2.5-1.1,4c0.1,4.3,0.1,8.5,0.1,12.8c0,3.1-0.4,6.2-0.2,9.2c0.3,5.5-1.1,10.6-3,15.6c-2.4,6.3-4.8,12.6-7.2,18.9
		c-0.3,0.8-0.8,1.4-1.3,2c-1.1,1.4-2.3,2.8-2.8,4.4c-1.6,5.2-3.1,10.5-3.4,16c-0.2,3.5-0.7,7.1-1.2,10.6c-0.4,2.6-0.8,5.1-0.7,7.8
		c0,2-0.3,4-0.4,6c-0.3,3.3-0.6,6.6-0.9,9.9c1.1,0.4,2.1,0.9,3.1,1.3c0.6,2.8,0.9,5.5,0.6,8.3c-0.2,1.7,0.1,3.3,0.5,4.9
		c0.9,3.8,1.8,7.6,2.5,11.5c0.2,1.3,0.5,2.7,0.1,3.8c-0.5,1.4-0.4,2.5,0,3.8c0.7,2.5,1.3,5,2,7.6c0.7,2.7,0.4,5.1-2,7
		c-4.2,3.3-8.7,5.8-14.3,4.7c-0.6-0.1-1.2-0.1-1.8-0.1c-6.8-0.4-13.4-1.2-20.1-2.3c-2.4-1.9-3.8-4.5-5.3-7.1
		c-0.8-1.4-0.6-2.8,0.1-4.1c1-1.6,1.5-3.4,1.9-5.3c0.5-1.9,1.3-3.8,2-5.7c1-2.6,1.9-5.1,2.9-7.6c0.8-2,1.3-4,1-6.2
		c-0.3-2.6,0.2-5.2,1.2-7.5c0.9-0.5,1.7-1,2.6-1.5c-0.1-0.7-0.2-1.3-0.3-1.9c-0.7-2.9-0.4-5.7,0.4-8.4c0.8-2.6,1.9-5.2,5.2-5.6
		c0.1,0,0.2-0.2,0.1-0.1c-0.3-2.9-0.7-5.7-0.9-8.5c-0.3-6.3-0.7-12.6-0.8-18.8c-0.1-6.7-1-13.2-1.9-19.8c-1-7.8-2-15.5-1.7-23.4
		c0.1-3.6,0.5-7.1,0.6-10.6c0.1-5.4,1.5-10.6,3.9-15.4c1.6-3.2,3.4-6.2,5.2-9.3c2.4-4.3,4.5-8.6,5.5-13.4c0.6-3,0.8-6.1,1-9.2
		c0.1-1.4,0.4-2.8-0.2-4.4c-2.2-1-4.4-2-6.9-3.1c0-3.1-0.3-6.2,0.5-9.2c0.8-3.4,1.1-6.8,1.2-10.2c0.2-2.8,0.3-5.7,0.7-8.5
		c0.7-5.5,1.1-11.1,1.2-16.7c0-3.3,0.3-6.7,1.1-9.9c0.8-3.3,1.3-6.5,1.2-9.8c0-4.3,0.5-8.5,1.7-12.6c1.2-4,2.5-7.9,3.9-11.8
		c2.2-6.1,3.4-12.3,2.9-18.8c-0.1-0.8-0.1-1.7,0-2.5c0.3-4.8,1.1-9.4,2.9-13.9c0.4-1,0.9-2.1,1.7-2.6c1.2-0.8,1.7-1.9,2.3-3
		c1.1-2,2.2-3.9,3.5-5.8c0.4-0.7,1.1-1.2,1.7-1.8c0.4-0.4,0.9-0.2,1.3,0.4c-0.2,0.4-0.4,1-0.7,1.4c-1.6,2.5-3.2,5-4.8,7.5
		c-0.5,0.7-0.8,1.5-1.4,2.1c-1.4,1.4-2,3.2-2.6,5c-1,3.7-1.8,7.4-1.4,11.2c0.2,1.9,0.1,3.8,0.2,5.7c0.2,3.2-0.2,6.4-1.1,9.5
		c-1.3,4.4-2.6,8.9-4.1,13.2c-2,6-3.4,12.1-3.4,18.4c0,2.1-0.3,4.3-0.8,6.3c-1.2,4.6-1.6,9.3-1.8,14.1c-0.1,3.8-0.3,7.6-0.6,11.4
		c-0.3,4-0.7,8-0.9,12.1c-0.1,3.2-0.5,6.4-1.2,9.5c-0.6,2.5-0.7,5.1-0.2,7.6c3.8,1.9,7.5,3.8,11.2,5.7c3.7,1.9,7.5,3.5,11.5,4.7
		c2.6,0.8,5.2,1.2,8,0.8c4.1-0.5,8.3-0.7,12.4-0.9c3-0.1,5.9,0,8.9-0.1c2.5-0.1,5-0.4,7.4-0.7c1.3-0.2,2.6-0.4,3.5-1.2
		c0.1-0.4,0.2-0.6,0.1-0.8c-0.8-5.1-0.2-10.2,1.2-15.1c1.1-4.1,1.8-8.3,1.9-12.6c0-1.8,0.3-3.5,0.5-5.3c0-0.6,0.2-1.3-0.1-1.7
		c-0.9-1.4-0.5-2.7,0-4.1c0.5-1.6,1-3.2,1.5-4.7c0.5-1.5,0.8-3,0.3-4.5c-0.1-0.2,0.1-0.4,0.1-0.7c0.3,0,0.7,0,1.2-0.1
		c0.3-1,0.6-2,0.8-3.1c0.2-1,0.5-2.1,0.7-3.1c0.2-1,0.4-2.1,0.6-3.1c0.2-1,0.4-2.1,0.5-3.2c0.1-1.1,0.2-2.1,0.3-3.2
		c0.1-1.5,0.1-1.5,0.8-2.8c0.7,1.2,0.3,2.3,0.2,3.5c-0.6,5.3-1.4,10.6-2.9,15.7c-0.4,1.3-0.5,2.5-0.2,3.9c0.6,2.9,1.2,5.8,1.9,8.7
		c0.1,0.4,0.3,0.8,0.6,1.5c0.6-0.7,1-1.1,1.3-1.6c3-4.3,6-8.5,9-12.8c0.4-0.5,0.6-1.3,1.5-1.3l-0.1-0.1c-0.4,0.9-0.7,1.8-1.2,2.5
		c-2.4,3.5-4.8,7.1-7.2,10.5c-1.1,1.5-2.8,2.8-3.4,4.5c-0.6,1.7-0.2,3.7-0.2,5.6c0,1.2-0.1,2.4,0.2,3.5c0.8,3.7,0.8,7.3,0,10.9
		c-0.5,2.3-1.2,4.5-1.9,6.8c0.4,0.1,0.8,0.3,1.1,0.2c2.2-0.7,4.4-0.5,6.7-0.7c5.9-0.7,11.6,0,17,2.5c1.3,0.6,2.7,0.9,4.1,0.8
		c3.1-0.3,6.1-0.5,9.2-0.9c2.2-0.3,4.4-0.9,6.6-1.3c4.6-0.6,9-1.9,13.5-3.2c2.6-0.8,5.1-1.9,7.4-3.3c1.4-0.9,2.4-1.9,2.4-3.6
		c0.1-2.6,0.5-5.2,0.4-7.8c-0.1-5.2-0.4-10.4-0.7-15.6c-0.2-3-0.5-5.9-0.8-8.8c-0.1-0.8-0.2-1.7-1.5-2c0,0.7,0,1.2,0,1.8
		c0.2,3.2,0.4,6.4,0.6,9.6c0,0.5,0.3,1.2-0.7,1.4c-1.4-8.5-1.2-17-0.8-25.4c0.3-0.3,0.9-0.5,0.9-0.8c0.3-2,0.5-4,0.6-6
		c0.5-6.7,1.4-13.5,0.9-20.2c-0.6-8.5-1.2-17-1.8-25.5c-0.2-2.1-0.5-4.3-1-6.3c-0.8-3.4-2-6.7-4.2-9.6c-2.9-3.8-4.9-8.1-6.6-12.6
		c-0.2-0.6-0.5-1.3-0.8-2.1c-1,0.3-1.9,0.6-2.8,0.9C511.9,261.1,507.5,262.1,503,262.1C503,262,503,262.1,503,262.1z M494.8,11.1
		c0.1,0,0.2,0,0.2,0c0.1-0.1,0.1-0.2,0.1-0.3c0.1-0.1,0.2-0.1,0.3-0.2c-0.1,0.1-0.1,0.2-0.2,0.3C495,11,494.9,11.1,494.8,11.1z
		 M471.6,7.1l0.2,0c0,0.1,0,0.2,0,0.3c0-0.1-0.1-0.1-0.1-0.2C471.7,7.3,471.6,7.1,471.6,7.1z M501.5,17.1c-0.3-0.3-0.5-0.8-0.8-1
		c-0.2-0.1-0.6,0-0.8,0.1c-0.1,0-0.2,0.2-0.1,0.3c0.2,0.2,0.4,0.6,0.6,0.6C500.8,17.2,501.2,17.1,501.5,17.1
		C501.6,17.1,501.7,17.3,501.5,17.1z M510.1,195.7c0,0.1,0.1,0.2,0.1,0.3c0.1-0.1,0.3-0.3,0.2-0.4c-0.1-0.2-0.3-0.3-0.4-0.5
		c0.1-1.1,0.4-2.3-0.6-3.4c-0.1,1.9-0.1,1.9,0.7,3.3C510.1,195.2,510.1,195.5,510.1,195.7z M484.3,9.1c-0.3-0.1-0.7-0.3-0.9-0.2
		c-0.9,0.6-1.7,1.2-2.5,1.9c-0.1,0.1-0.2,0.1-0.4,0.2c0.1,0,0.1,0,0.1-0.1c0.1-0.1,0.1-0.2,0.1-0.2C482.4,11.1,483.7,11,484.3,9.1z
		 M499.3,10.7c0.9-0.7,1.8-1.5,2.7-2.3c-2-0.8-2.8-0.6-3.3,1c-0.1,0.4,0,0.9-0.1,1.4c-0.1,0-0.2,0.1-0.2,0.1c0.1,0,0.1-0.1,0.2-0.1
		C498.9,10.7,499.2,10.8,499.3,10.7z M384.2,229.5c0-0.1-0.1-0.1-0.1-0.2c-0.1-1.8-1.8-2.6-2.5-4c3.2,1.5,4.8,4.6,7.3,6.6
		c0.1,0.7-0.5,1.4,0.3,2c1,0.7,1.6,1.7,1.3,3.1c0,0.2,0.1,0.5,0.2,0.7c1.6,2.6,3.3,5.2,5,7.8c0.4,0.6,1.3,1.1,2,1.3
		c4.1,1.2,8.1,2.8,12.4,2.8c1.5,0,2.7,0.6,4,1.4c1.9,1.2,4,2.1,6.1,2.7c1.8,0.5,3.3,1.8,4.7,3.1c1.7,1.6,3.6,1.6,5.6,1
		c0.3-0.1,0.5-0.5,0.6-0.8c0.1-0.2-0.1-0.5-0.2-0.6c-1.4-0.9-2.7-2-4.1-2.8c-3.4-1.7-6-4.6-9.1-6.6c0.3-0.7,0.5-1.1,0.7-1.5
		c-0.6-0.4-1.3-0.5-1.2-1.5c0.1-0.4-0.5-0.9-1-1.7c1,0.1,1.7,0,2.3,0.2c1.7,0.6,3.3,1.3,4.9,2c2,0.8,3.9,1.8,5.9,2.6
		c1.2,0.5,2.3,1,3.4,1.8c1.1,0.8,2.5,1.3,3.9,1.7c1.3,0.4,2.7,0.6,4.3,0.9c0.2-0.9,0.4-1.9,0.5-2.8c-2.4-1.9-4.9-3-7.7-3.6
		c-2.8-0.6-5.3-1.9-7.5-3.8c-0.9-0.8-2-1.3-3-2c-1.1-0.7-2.3-1.2-3.4-2.4c1.6-0.2,2.9-0.3,4.2,0.2c1.4,0.6,2.9,1.1,4.3,1.7
		c3.9,1.5,7.7,3.1,11.8,4c1.1,0.2,2,0.6,2.8,1.4c2.2,2,3.3,1.8,5.6-0.8c-3.3-2.2-6.4-4.9-10.2-6.4c-0.8-0.3-1.5-0.7-2.2-1.1
		c-1.3-0.7-2.6-1.2-4-1.4c-4-0.7-7.6-2.5-11.3-4.1c-0.7-0.3-1.6-0.7-1.6-1.8c0.3,0,0.7-0.2,0.9-0.1c1,0.4,1.9,1,2.9,1.4
		c0.4,0.2,0.9,0.3,1.4,0.3c0.8-0.1,1.6-0.5,2.4-0.4c3.4,0.4,6.8,0.8,10.2,1.3c0.9,0.1,1.8,0.7,2.6,1.1c2,1.1,4.2,1.7,6.4,2
		c0.8,0.1,0.8,0.1,2.8-0.8c0-1,0-2,0-3c-0.3-0.3-0.5-0.6-0.8-0.7c-2.6-1.4-5.4-1.7-8.2-2.3c-3.4-0.7-6.7-1.3-9.9-2.6
		c-1.4-0.6-2.9-0.8-4.5-0.8c-2.5,0-5-0.2-7.5-0.4c-0.4,0-0.9-0.2-1.6-0.4c0.5-0.6,0.8-1,1.2-1.5c-0.1-0.4-0.1-0.8-0.3-1.3
		c-0.1-0.4-0.4-0.9-0.7-1.5c-2.2,2.4-5.1,2.4-7.9,2.6c-1.6,0.2-3.2,0.3-4.8,0.5c-0.2-0.8,0.3-1,0.7-1.1c1.5-0.4,2.9-1,4.4-1.2
		c2.4-0.2,4.6-0.8,6.3-2.7c0.4-0.4,1-0.7,1.4-1c0-2.1,0.2-4.1,0-6.1c-0.5-4.4-1.2-8.7-2.4-12.9c-2-6.9-3.9-13.9-5.2-21
		c-0.6-2.9-1.4-5.8-2.2-8.6c-0.9-3.1-1.2-6.2-0.8-9.5c0.3-2.3,0.5-4.7,0.6-7.1c0-1.6-0.3-3.3-0.5-5.3c-0.7,0.5-1.2,0.7-1.5,1.1
		c-2.7,2.9-5.3,5.8-7.9,8.7c-3.7,4-8.2,7.1-13,9.8c-2.6,1.4-5.4,2.4-8.4,2.7c-2,0.2-4,0.7-6,1.8c0.2,0.5,0.3,1,0.6,1.5
		c2.6,4,4.6,8.3,6.3,12.7c1,2.4,1.8,4.8,2.6,7.3c0.8,2.5,2.1,4.8,3.3,7.1c1.4,2.7,3,5.4,4.6,8c0.2,0.4,0.5,1,0.9,1.1
		c2,0.6,2.9,2.4,4.2,3.7c3.2,3.3,6.3,6.8,9.4,10.2c0.6,0.6,1.1,1.3,1.5,2c0.2,0.3,0,0.8,0,1.6c-0.8-0.5-1.3-0.7-1.7-1.1
		c-1.5-1.7-3-3.4-4.5-5.1c-1-1.1-1.9-2.4-3.5-3c-0.3-0.1-0.6-0.4-0.8-0.7c-2.5-3-5.5-5.5-7.4-9.1c-1.4-2.7-3.3-5.2-4.8-7.9
		c-1-1.7-1.9-3.6-2.6-5.5c-2.8-7.6-6-15-10.2-21.9c-0.8-1.3-1.2-2.7-1.9-4.2c1,0.1,1.9,0.3,2.8,0.2c4.2-0.8,8.5-0.8,12.5-2.5
		c1.3-0.5,2.5-1.3,3.7-2.1c2-1.3,3.9-2.7,5.8-4.1c1.5-1.1,3.1-2.3,4.4-3.6c4.1-4.1,8-8.4,12.1-12.5c1.7-1.7,3.4-3.2,5-4.9
		c0.9-0.9,2.2-1.4,3.4-2.1c0.5,0.6,1,1,1.2,1.4c0.2,0.5,0.3,1.2,0.3,1.7c0.5,5.6,3.3,10.3,5.9,15.3c0.6-0.3,1.1-0.4,1.6-0.7
		c1.3-0.8,1.9-2.4,3.6-2.7c0.4-0.1,0.8-0.9,1.1-1.3c5.7-8.9,10.2-18.4,13-28.7c1.2-4.2,2.6-8.4,3.1-12.8c0.2-2.4,0.4-4.7,0.4-7.1
		c0-3.2-0.2-6.4-0.3-9.6c0-0.5-0.2-0.9-0.3-1.3c-0.3-0.1-0.4-0.1-0.5-0.1c-5,1.1-10.1,1-15.2,1c-0.8,0-1.7,0.1-2.5,0.1
		c-3.7,0.3-7.3,0.8-11,1c-4.1,0.2-7.6,1.7-11,3.8c-1.6,1-3.2,2.1-4.6,3.3c-3.3,2.7-6.5,5.5-9.8,8.2c-1.9,1.6-3.5,3.5-4.7,5.8
		c-1.5,2.7-3.1,5.3-4.6,8c-0.6,1.1-1.4,1.9-2.5,2.4c-3.5,1.8-6.9,3.6-10.4,5.5c-0.8,0.4-1.9,0.5-2.2,1.6l0.1-0.1
		c-1.8,0.5-3.1,1.7-4.3,3c-4.4,4.6-8.4,9.6-11,15.5c-2,4.6-4.8,8.7-8.5,12.1c-1.5,1.4-2.3,3.3-3,5.2c-0.6,1.7-0.8,3.4-1.8,5
		c-0.4,0.6-0.3,1.6-0.1,2.4c0.4,2.3,0.8,4.7,1.3,7c0.1,0.4,0.3,0.9,0.6,1.3c4.9,7.8,10.7,15,17,21.8c1.3,1.4,2.5,2.9,3.7,4.3
		c2.6,3.2,5.2,6.4,7.9,9.6c4.4,5.2,9.9,9.2,15.7,12.5c0.3,0.1,0.7,0,1,0C384.2,229.3,384.2,229.4,384.2,229.5z M421.6,248
		c1.5,1.2,3,2.4,4.5,3.5c1.1,0.8,2.2,1.4,3.3,2c1.7,1,3.5,1.6,5.3,0.3c0.9-0.6,1.8-0.3,2.8-0.2c1.8,0.2,3.5,0.5,5.3,0.8
		c0.9,0.1,0.9,0.2,2.9,1.7c6.2-0.5,12.5-1,18.9-1.5c0.6,0,1.2-0.1,1.8-0.1c6.5-0.3,13-0.6,19.5-1c3.7-0.2,7.3-0.3,11-0.7
		c4-0.4,8-0.7,11.9-1.9c0.9-0.3,1.8-0.6,2.7-0.9c1.6-0.5,2.5-1.6,3.1-3.2c1.1-2.9,1.9-5.8,1.5-9c-0.4-3.5-0.3-7.1,0.3-10.8
		c-1.9-0.5-3.7-1-5.5-1c-2.2,0-3.2-0.5-3.7-2.3c-0.3-1.1-0.6-2.3-0.6-3.5c-0.1-3.1-0.1-6.2-0.1-9.2c0-1.6,0.3-3.2,1.3-4.3
		c1.5-1.7,2-3.7,2.1-5.9c0-0.5,0.2-0.9,0.3-1.2c-0.8-2.3-1.5-4.5-2.3-6.8c-0.8-0.4-1.8-0.8-2.7-1.3c-2-1.1-2.9-2.7-2.6-5
		c0.1-0.9,0.4-1.8,0.6-2.7c1.5-1.2,3.3-0.3,4.9-1.2c1.1-3.4-0.4-7.2,1.5-10.5c-0.9-0.6-1.7-0.1-2.5,0c-0.8,0-1.7,0.1-2.5,0.1
		c-0.8,0-1.6-0.2-2.5-0.4c-0.8-0.2-1.6-0.4-2.4-0.6c-0.8-0.3-1.6-0.5-2.3-0.9c-0.7-0.4-1.6-0.5-1.7-1.8c0.4-0.1,0.8-0.3,1.2-0.2
		c0.7,0,1.4,0.1,2.1,0.3c4.2,1.3,8.4,1,12.7,0.9c1.5-1.4,3-2.7,4.5-4.1c0.1-0.9-0.1-2,0.4-2.6c0.6-0.8,0-1.6,0.4-2.4
		c0.4-0.8,1-1.3,1.9-1.3c1.8,0,3.5,0,5.3,0c0.6,1.1,1.2,2,1.8,3.1c0.4-0.4,0.8-0.8,1.1-1.2c1.4-1.9,2.7-3.9,4-5.8
		c0.8-1.1,1.1-2.3,0.9-3.7c-0.5-3.8-0.9-7.5-1.4-11.3c-0.3-1.9-0.7-3.7-1.2-5.5c-1.4-4.4-2.8-8.8-4.3-13.2c-0.4-1.3-0.9-2.8-1.6-3.9
		c-2.1-3-2.8-6.4-4-9.8c-0.6-1.7-1.5-2.9-2.9-3.9c-1.2-0.9-2.3-2-3.7-2.5c-0.9,0.4-0.7,1-0.7,1.5c0.2,2.2,0.5,4.5,0.6,6.7
		c0.2,8.7-2.7,16.3-8.2,22.9c-4.4,5.3-10.1,8.1-17.1,8c-2.4,0-4.7-0.4-7.1-0.5c-0.1,0-0.2-0.1-0.3-0.1c-3.2,0.5-5.6-1.4-8.2-2.9
		c-1.5-0.9-2.9-2-4.5-2.8c-1-0.4-1.8-1.5-2.5-2.5c-2.4-3-4.1-6.4-5.4-10c-1.5-3.9-2.8-7.8-4-11.8c-1.2-4.2-2.2-8.5-3.3-12.7
		c-0.7-2.7-0.9-5.4-0.8-8.1c0-0.6,0-1.2,0-1.7c-2.2-0.2-2.2-0.2-5.3,1c-0.1,0.6-0.2,1.2-0.2,1.9c0,1.7,0,3.3,0.2,5
		c0.7,6.8,0.8,13.5-0.3,20.2c-1.4,8.8-3.9,17.4-8.6,25.1c-2.9,4.7-6.6,8.7-10.9,12.1c-0.8,0.7-1.8,1.1-2.9,1.7
		c0.1,0.4,0.2,0.9,0.5,1.1c2.5,2,5,4,7.7,5.7c1.1,0.7,2.7,0.8,4.1,1.1c1.4,0.3,2.8,0.5,3.9,1.6c-0.3,0.2-0.4,0.4-0.6,0.4
		c-2.9,0-5.7-0.6-8.3-1.6c-1.2-0.5-2.3-1.2-3.4-1.9c-2.1-1.5-4.1-3.2-6-4.7c-4.2,1.5-3.7,2.6-12.7,2.9c-0.6,2.5-1,5.1-0.2,7.6
		c1.9,6,3.2,12.1,3.9,18.4c0.2,1.4,0.7,2.8,1.1,4.1c2,6.5,3.9,12.9,4.8,19.7c0.1,0.9,0.2,1.9,0.1,2.8c-0.1,2.7,0.3,6.7,1.2,9.8
		c1,0.8,2.2,0.6,3.4,0.6c3.5-0.1,6.8,0.5,10.1,1.7c1.6,0.6,3.4,0.8,5.2,1.3c3.2,0.9,6.4,1.7,9.5,2.7c2.5,0.8,2.7,1.4,2.4,4.3
		c-0.1,0.6,0,1.2,0,1.7c-1.2,1.6-2.8,1.9-4.5,1.8c-2.3-0.2-4.4-0.8-6.5-1.8c-3.3-1.6-6.8-1.8-10.4-1.9c0.9,0.3,1.8,0.8,2.8,0.9
		c4.2,0.4,7.6,2.5,11.1,4.4c2.3,1.2,4.4,2.8,6.6,4.3c0,0.7,0.1,1.3,0.1,1.8c-0.2,2.3-1.1,3.2-3.2,3.4c-1.4,0.1-2.8-0.1-4.1-0.9
		c-3.2-2-7.1-2.5-10.7-3.8c0.6,0.5,1.1,1.1,1.7,1.4c0.7,0.4,1.6,0.7,2.4,0.7c2.5,0.2,4.3,2,6.3,3.1c0.5,0.3,0.9,1.1,1,1.8
		c0.2,1,0,2.1,0,3c-1,1-2.1,1-3.1,0.8c-1.6-0.4-3.2-0.8-4.8-1.3c-0.7-0.2-1.4-0.4-2-0.8c-3.6-2.5-8-3-11.7-5.6
		C420.6,246.4,420.7,247.3,421.6,248z M470.5,403.4c0.2,4.3,0.9,8.5,2.2,12.6c0.6,1.7,1.1,3.4,1.5,5.1c0.3,1.5,0.9,3-0.2,4.4
		c-0.1,0.2-0.2,0.5-0.1,0.7c0.5,2.2-0.1,4.5-0.1,6.7c0,2.5-0.6,4.9-1,7.4c-0.9,5-2,10-2.9,15c-0.1,0.7-0.1,1.4,0,2.1
		c0.2,2.1,0.4,4.2,0.6,6.4c0.4,3.5,0.8,7.1,1.2,10.6c0.2,1.9,0.4,3.8,0.8,5.6c0.4,2,0.9,3.9,1.6,5.8c2.2,5.8,4.1,11.6,5.1,17.7
		c0.5,3.2,0.8,6.3,1.3,9.5c0.3,2.2,0.7,4.4,1.2,6.6c0.8,3.8,1.7,7.6,2.7,11.7c0.8-2.7,0.5-5.2,1.3-8c0.3,1.1,0.6,1.7,0.7,2.3
		c0.7,4,0.8,8-0.4,12c-0.3,0.9-0.4,1.8-0.6,2.8c1.9,1.4,3.9,2.1,6.1,2.2c1.9,0,3.8-0.1,5.7-0.2c1.5-0.1,3-0.4,5-0.6
		c0.7-0.9,1.7-2,2.7-3.2c-0.1-1.8-0.2-3.4-0.3-5.1c-0.2-3.1-0.5-6.1-0.6-9.2c-0.1-5.3-0.1-10.7-0.1-16c0-2.7,0-5.4,0.6-8.1
		c0.3-1.2,0.3-2.6,0.2-3.9c-0.3-5.3,0.1-10.6,1.1-15.9c0.9-4.3,1.1-8.7,1.6-13c0.1-0.9,0-1.9-0.1-2.8c-0.2-3.8-0.5-7.6-0.7-11.3
		c-0.2-6.5-0.3-13-0.5-19.5c-0.1-2.2-0.2-4.5-0.7-6.8c-1.2,0.2-1.5,1.2-2,1.9c-0.7,0.8-1.2,1.8-2.3,2.1c-0.3,0.1-0.7,0-1-0.2
		c-0.2-0.2-0.4-0.7-0.3-0.9c0.3-0.7,0.8-1.4,1.2-2.1c1.7-2.7,3.5-5.4,5.2-8c0.9-1.3,1.4-2.7,1.3-4.3c-0.1-2.4-0.1-4.7,0-7.1
		c0.1-1.8,0.4-3.5,0.6-5.4c-1.4-0.6-2.9,0.1-4.4,0.3c-1.5,0.2-3,0.3-4.7,0.5c-0.5,0.9-0.9,1.7-1.4,2.5c-1.1,1.8-2.3,3.6-3.5,5.4
		c-0.7,1-1.6,1.8-2.8,2.1c-0.5,0.1-0.9,0-1.1-0.9c2.5-2.4,5.1-4.9,6.6-8.7c-3.3,0.1-5.8-1.6-8.5-2.6c-4.1-1.4-8.3-2.1-12.6-1.4
		c-1.5,0.2-3,0.3-4.9,0.6C470.6,401.6,470.5,402.5,470.5,403.4z M397.3,535.2c0.8,0.1,1.6,0.4,2.4,0.5c1.5,0.2,2.9,0.6,3.9,2
		c0.4-1,0.7-1.9-0.2-2.5c-1-0.7-1.1-1.5-0.9-2.5c0.2-1.2,0.5-2.3,0.8-3.5c1.4-5.2,2.3-10.4,2.8-15.7c0.8-8.8,3.2-17.2,7.1-25.2
		c2.1-4.3,4.1-8.5,6-12.9c2.1-4.8,3.7-9.7,4.4-15c0.3-2.3,1.1-4.5,1.1-6.9c0-2.2,0.2-4.5,0.4-6.7c0.1-2.4,0.2-4.7,0.4-7.1
		c0.1-2.5,0.2-5,0.4-7.5c0.1-1.4-0.1-2.6-1.3-3.5c1.2-1.5,2.4-2.8,3.4-4.3c1-1.5,1.7-3.1,2.5-4.7c0.7-1.6,1.4-3.3,2-4.9
		c0.6-1.6,1.2-3.3,1.9-5.2c-0.8-0.1-1.4-0.2-1.9-0.1c-1.3,0.1-2.6,0.3-3.9,0.5c-3.4,0.6-6.8,0.5-10.2-0.5c-0.1,0-0.2,0.1-0.3,0.2
		c0.5,1.5,1.9,2.6,1.5,4.4c-1.4,0.2-2.2-0.6-2.9-1.3c-0.9-0.9-1.9-1.9-2.5-3c-1.3-2.4-3.3-3.6-5.8-4.1c-0.7-0.2-1.2-0.5-1.8-0.9
		c-1.4-1-3-1.8-4.4-2.5c-1,0.5-0.7,1.1-0.6,1.6c0.4,4.8,0.1,9.5-1.1,14.1c-0.6,2.2-1,4.4-3.3,5.7c-0.4,0.2-0.6,1-0.9,1.5
		c-3.3,7.2-6,14.7-8,22.4c-0.3,1-0.5,2.1-1,3c-1.1,2.6-1.5,5.2-1.3,8c0.3,6,0.6,12.1,0.8,18.1c0.1,3.6,0.1,7.1,0.2,10.7
		c0.2,3,0.5,5.9,0.8,8.8c0.6,5.9,1.2,11.8,1.8,17.7c0.3,2.7,0.2,5.4,1.2,8c0.3,0.6,0.2,1.4,0.2,2.1c-0.2,3.3-0.4,6.6-0.6,10
		C392.7,534.4,395,534.8,397.3,535.2z M510.3,555.1c1-1.4,2.2-2.5,3.6-3.3c1.9-1,3.7-2,5.6-3c0.5-0.3,1-0.5,1.6-0.8
		c-0.3-1.2-0.9-1.7-2-1.5c-1.1,0.2-2.3,0.4-3.4,0.9c-2.4,1.2-4.8,2.6-7.2,3.9c-1,0.6-2.1,1.1-3,1.7c-0.7-0.5-0.7-1.2-0.3-1.6
		c1.2-1.2,2.3-2.4,3.7-3.3c2.1-1.4,4.3-2.5,6.5-3.7c0.6-0.3,1.2-0.7,1.9-1.1c-1.6-3.4-5-4.7-7.3-7.4c-1.5,1-2.8,2.1-3.8,3.3
		c-2.1,2.4-4.1,4.9-6.2,7.3c-0.5,0.5-1,1.1-1.3,1.7c-1.8,2.8-4.7,3.4-7.7,3.9c-0.5,0.1-1,0-1.4-0.1c-3.7-1.2-6.4-3.5-7.4-7.4
		c-0.3-1.1-0.5-2.3-0.8-3.7c0.4-0.3,0.9-0.8,1.5-1.3c-0.1-0.6-0.2-1.3-0.3-1.9c-1.4-0.6-2.4,0.6-3.6,0.5c-1,2.9-0.8,5.7-0.1,8.5
		c0.4,1.6,0.5,3,0,4.6c-0.4,0-0.9,0-1.5-0.1c-1.8,7.3-4.5,14.3-8.5,21.1c1.4,1.7,3.3,2.9,5.4,3.6c1.9,0.7,3.7,1.5,5.7,2
		c1.2,0.4,2.6,0.6,3.8,0.6c5.1,0,10.2,0,15.2-1c1-0.2,1.9-0.1,2.8,0.3c1.3,0.6,2.6,1.2,3.8,1.9c3.4,1.9,7.1,3.3,10.8,4.5
		c4.8,1.6,9.8,1.6,14.8,1.3c4.5-0.3,9-0.5,13.5-0.7c1.5-0.1,3.1-0.2,4.6-0.2c3.5-0.1,6.5-1.2,8.9-3.8c0.3-3.7-0.9-8.5-3.2-12.8
		c-6.8-0.8-13.5-1.9-19.6-5.6c-1.3,0.9-2.4,2.5-4.6,1.6c0.3-0.5,0.4-0.9,0.7-1.2c0.6-0.6,1.6-0.6,1.8-1.8c-0.5-0.3-1.1-0.7-1.8-1.1
		c-1.8,1.5-3.8,2.7-6.1,3.4c-0.9-0.3-1-1-0.6-1.7c0.6-1,1.3-2,2.1-2.8c0.5-0.6,1.2-0.9,2-1.4c-1.7-0.7-1.7-0.7-11.4,3.9
		c-0.9-0.4-0.9-1.1-0.5-1.7c0.4-0.7,0.9-1.4,1.5-1.9c1.3-1,2.7-1.9,4.1-2.8c0.9-0.5,1.9-0.9,3.1-1.5c-0.6-0.7-0.9-1.4-1.4-1.6
		c-0.6-0.3-1.4-0.3-2-0.1c-2.1,0.8-4.2,1.7-6.2,2.7c-1.8,0.9-3.6,1.8-5.6,2.4C509.7,556.2,509.9,555.6,510.3,555.1z M411.1,579.6
		c-0.4-2.6-0.9-5.1-1.3-7.7c-0.3-1.9-0.2-1.9,1.3-4c-1-4.2-1.9-8.6-2.9-12.9c-0.1-0.4-0.5-0.8-0.7-1.2c-0.8-1.5-1.5-2.9-2.3-4.4
		c-0.5-0.9-0.8-1.9-1.5-2.8c-0.6-0.8-0.7-2-0.8-3c-0.2-1.8-0.3-3.5-1.5-5.3c-4.3-1-8.8-1.9-13.4-0.6c-1,1.3-0.9,2.6-0.7,4.1
		c0.3,2.2,0.4,4.5,0.6,6.7c0.1,1.2,0.1,2.4-0.7,3.6c-1.5,0.4-2.9,1.2-4.1,2.5c-0.6,1.2-0.4,2.5-0.5,3.8c-0.1,1.1,0,2.2-0.4,3.1
		c-1.8,4-2.6,8.3-4,12.5c-1.2,3.4-2.1,7-3.9,10.2c-0.5,1-0.8,2.2-1,3c0.2,0.5,0.2,0.6,0.2,0.7c3.6,5.6,4.2,6,10.7,6.4
		c3.8,0.2,7.6,0.4,11.3,0.6c0.7,0,1.5,0.2,2.1,0c1.8-0.6,3.7-0.5,5.6-0.6c3.5-0.2,6.7-1.5,9.6-3.5c0.3-0.2,0.5-0.5,0.7-0.8
		c0.1-0.2,0.2-0.4,0.3-0.9C412,586.4,411.6,583,411.1,579.6z M412.4,138.7c-1.9,0.5-2.7,2.1-3.8,3.2c0.1,4.8,0.3,9.5,0.4,14.4
		c3.8,0.6,7.3,0.2,11-1.6C412.6,146.7,413.6,145.2,412.4,138.7z M489.2,549.7c1.5,0.7,2.9,0.9,4.4-0.1c1.3-1,2.7-1.9,4-3
		c0.3-0.3,0.5-0.7,0.9-1.2c-1.6,0-3-0.1-4.4,0c-3.3,0.1-6.4-0.1-9.4-2.8C484.9,546.4,486.6,548.4,489.2,549.7z M507.8,184.8
		c-1.5-0.4-1.5-0.4-3.3,0c-2,3.5,0,5.8,4.1,5.9C508.3,188.6,508.1,186.7,507.8,184.8z M469,47.8c0.2-0.5,0.7-0.9,1.2-1.4
		c-0.7-0.8-1.3-1.5-2-2.2c-0.5,0.2-0.8,0.2-1.1,0.4c-0.9,0.8-1.1,1.8-0.5,2.8c0.5,0.8,1.1,1.5,1.8,2.6
		C468.7,49.1,468.8,48.4,469,47.8z M436,261.3c0,0.3,0,0.3,1.3,0.9c0.8-1.5,0.8-1.5,0.7-5.2c-0.5-0.2-1.1-0.4-1.9-0.7
		C436,258.3,436,259.8,436,261.3z M485.3,16c-2.6,1.4-3.5,2.2-4.4,4.9C484.5,18.5,485.4,17.4,485.3,16z M470.7,31
		c-0.5,1.4-0.5,2.9,0,4.3c0.3,0,0.5,0,0.5-0.1c0.3-1.4,0.6-2.9,1-4.3C471.5,30.4,470.9,30.4,470.7,31z M525.3,12.1
		c-0.1-0.2-0.1-0.4-0.1-0.4c-0.9,0-1.8,0-2.7,0c-0.4,1.3-0.2,2.2,0.7,3.2C524,13.9,524.7,13,525.3,12.1z M516.3,257.2
		c-0.2,1.1,0.4,1.3,1.8,0.6c-0.1-1.3-0.3-2.7-0.5-5C516.9,254.8,516.5,256,516.3,257.2z M423.2,257.2c-0.2,0.4-0.4,0.6-0.3,0.8
		c0.1,0.5,0.2,0.9,0.4,1.5c1.1,0.1,2.1,0.3,3.9,0.5C425.4,258.7,424.3,258,423.2,257.2z M484.3,29.7c1.4-0.6,1.8-1.5,2.6-2.4
		c-0.4-0.4-0.9-0.9-1.6-1.5C485,27.2,484.7,28.3,484.3,29.7z M504.8,17.5c-0.3-0.1-0.6-0.1-1-0.1c1.1,1.5,1.1,1.5,4.4,1.8
		C507,18.6,505.9,18,504.8,17.5z M479.7,32.5c-1.8,1.1-1.8,1.1-1.3,2.7C480.2,33.8,480.2,33.8,479.7,32.5z M517.6,4.8
		c-0.9,1.1-1,1.3-1.1,3C518.5,6.3,518.5,6.3,517.6,4.8z M518.6,42.4c0.2,0,0.4-0.5,0.5-0.8c0-0.1-0.3-0.5-0.4-0.4
		c-1,0.1-2,0.3-3.3,0.5C516.6,42.5,517.6,42.6,518.6,42.4z M430.2,259.5c-0.5,0-1.1,0.2-2.1,0.5c1.1,0.5,1.7,0.8,2.3,1.1
		C431.1,259.9,431,259.5,430.2,259.5z M475.5,32.2c-0.5,0.3-1.1,0.9-0.6,1.9c0.8-0.5,1.8-0.8,2.4-2C476.5,32.1,475.8,32,475.5,32.2z
		 M502.1,15.2c-0.1,0.1,0.1,0.4,0.2,0.5c0,0.1,0.2,0.1,0.3,0c0.5-0.3,0.8-0.7,0.7-1.4C502.6,14.2,502.3,14.7,502.1,15.2z M506.6,12
		c-0.6,0-1.3,0.6-1.1,1.1c0,0.1,0.1,0.2,0.2,0.2c0.7,0.1,1-0.3,1.3-0.8c0-0.1-0.1-0.2-0.1-0.3C506.8,12.1,506.7,12,506.6,12z
		 M474.1,10c0.4,0.1,0.7,0.2,1.1,0.4c0-0.2,0.1-0.5,0-0.6c-0.3-0.2-0.7-0.4-1.1-0.6c-0.1,0.2-0.2,0.4-0.2,0.6
		C474,9.8,474.1,9.9,474.1,10z M407.8,549.3c0.8-0.7,0.6-1.3,0.1-1.9c-0.1-0.1-0.6,0.1-1.1,0.2C407.2,548.3,407.5,548.8,407.8,549.3
		z M477.5,43.8c-0.2,0.2-0.2,0.6-0.3,0.9c1.1-0.2,1.1-0.2,1.4-1.9C478.1,43.3,477.7,43.5,477.5,43.8z M514.1,20.2
		c0.1,0.1,0.4,0,0.6-0.1c-0.1-0.3-0.1-0.6-0.3-0.7c-0.2-0.1-0.6,0-1.2,0.1C513.6,19.9,513.8,20.1,514.1,20.2z M479.5,30.1
		c0,0.1,0.2,0.2,0.4,0.4c0.2-0.3,0.5-0.5,0.6-0.8c0.1-0.1-0.1-0.4-0.3-0.8C479.9,29.4,479.6,29.7,479.5,30.1z M474.4,31.3
		c-0.1-0.1-0.2-0.2-0.3-0.2c-0.2,0.2-0.4,0.3-0.5,0.6c-0.1,0.3-0.2,0.6-0.2,0.9c0.1,0,0.2,0.1,0.2,0.1
		C473.8,32.2,474.1,31.7,474.4,31.3z M476.6,48.1c0.2-0.2,0.5-0.3,0.6-0.6c0.1-0.1-0.2-0.4-0.2-0.6c-0.3,0.2-0.5,0.4-0.8,0.5
		C476.4,47.7,476.5,47.9,476.6,48.1z M492.6,6.3c0.2,0.2,0.5,0.4,0.8,0.5c0.1-0.2,0.3-0.5,0.2-0.6c-0.2-0.2-0.5-0.3-0.7-0.5
		C492.7,6,492.5,6.3,492.6,6.3z M465.2,41.2c-0.1-0.1-0.5,0.1-0.5,0.2c0,0.2,0.1,0.4,0.2,0.6c0.2-0.1,0.4-0.2,0.6-0.2
		C465.4,41.5,465.3,41.3,465.2,41.2z M482,35.5c0.1,0.1,0.2,0.2,0.3,0.3c0.1-0.1,0.2-0.2,0.2-0.3c0-0.1-0.1-0.1-0.2-0.2
		C482.2,35.4,482.1,35.4,482,35.5z M509.2,18.3c0.1,0.1,0.4-0.1,0.6-0.1c-0.1-0.2-0.2-0.4-0.4-0.5c-0.1-0.1-0.4,0.1-0.5,0.1
		C509,18,509.1,18.2,509.2,18.3z M480.4,16.2c0.2,0,0.4,0.2,0.6,0.1c0.2-0.1,0.3-0.4,0.3-0.6c0-0.1-0.3-0.2-0.5-0.4
		C480.7,15.6,480.5,15.9,480.4,16.2z M464.2,31.3c0.1-0.2,0.2-0.4,0.2-0.6c0-0.1-0.1-0.2-0.2-0.2c-0.1,0.2-0.2,0.4-0.3,0.6
		C464,31.1,464.1,31.2,464.2,31.3z M510.9,15.7c0,0.1,0.1,0.1,0.2,0.2c0-0.1,0.1-0.2,0.1-0.3c0-0.1-0.1-0.1-0.2-0.2
		C511,15.6,510.9,15.7,510.9,15.7z M506.7,9.3c0.2,0,0.3-0.2,0.4-0.3c0,0-0.1-0.2-0.2-0.2c-0.2,0-0.4,0.1-0.6,0.2
		C506.5,9.1,506.6,9.3,506.7,9.3z M432.8,258.4c0,0.1,0.1,0.2,0.1,0.2c0-0.1,0.1-0.2,0-0.3c0-0.1-0.1-0.2-0.1-0.2
		C432.8,258.2,432.8,258.3,432.8,258.4z M432.6,261.9c0-0.1,0.1-0.3,0.1-0.4c-0.1,0-0.2,0-0.3,0.1c-0.1,0,0,0.2-0.1,0.2
		C432.5,261.8,432.5,261.8,432.6,261.9z M468.5,54.4c0-0.1,0-0.2,0-0.3c0,0-0.1,0-0.2-0.1c0,0.1,0,0.2,0,0.3
		C468.4,54.4,468.4,54.4,468.5,54.4z M471.2,50.4c0.1-0.1,0.4-0.2,0.4-0.3c0-0.2-0.1-0.4-0.2-0.6c-0.1,0.1-0.3,0.2-0.4,0.3
		C471,50.1,471.1,50.2,471.2,50.4z M497.6,16.1l0,0.2l0.2-0.1L497.6,16.1z M434.2,256.5c0,0.1,0.1,0.3,0.1,0.4
		c0.1-0.1,0.2-0.1,0.2-0.2c0,0-0.1-0.1-0.1-0.2C434.3,256.5,434.3,256.5,434.2,256.5z"/>
	<path d="M489.5,40.4c2.1,0.8,3.2-1.1,5-1.3c1,0.3,2.2,0.8,3.5,0.9c1.3,0.1,2.5,0.1,3.7,1.3c-0.6,0.1-0.9,0.3-1.2,0.3
		c-0.8,0-1.7-0.3-2.4,0c-1.5,0.4-2.9,0.8-4.5,0.7c-0.6,0-0.7,0.1-1.9,1.6c3.5,0.4,6.8,0.8,10.3,0.2c0.2-0.3,0.4-0.7,0.7-1.1
		c0.2-0.3,0.5-0.5,0.7-0.8c1-0.2,2-0.3,3-0.5c-0.1-2.5-1.4-3.6-3.5-3.9c-1.5-0.2-3-0.9-4.5-0.1c-0.1,0.1-0.3,0.1-0.3,0
		c-2.8-1.4-4.9,0.4-7.2,1.5C490.4,39.7,490.1,40,489.5,40.4z"/>
	<path d="M497.4,263.1c-11.5,1.2-23,2.6-34.5,3.5c0.4,6,1.4,11,2.4,13.5c1.3-1.6,1.7-2.6,1.4-6.1c-0.1-2.2-0.6-4.4-1-6.8
		c5.2-0.9,10.6-0.8,16-1.5C487,265,492.3,264.4,497.4,263.1z"/>
	<path d="M514.8,261.3c-0.1,0.3-0.4,0.6-0.3,0.7c3.4,9.3,6.9,18.7,10.4,28c0.1,0.3,0.4,0.5,0.7,0.8c0.7-4.8-4.4-18.8-8.9-27.2
		C516.2,262.8,516,261.6,514.8,261.3z"/>
	<path d="M488.7,79.6c-2.7-4.2-7.1-6.5-11-9.1c-0.8-2.7-1.5-5.2-2.3-7.9c-1.7,2.7-0.3,5.1,0,7.7C479.5,73.9,484.1,76.8,488.7,79.6z"
		/>
	<path d="M479.4,388.6c0.5-0.2,1.1-0.4,1.5-0.7c5.4-4.1,10.7-8.2,16-12.3c1.4-1.1,2.7-2.1,3.8-3.6c-0.4-0.1-0.7-0.3-0.8-0.2
		c-5.6,4.1-11.2,8.3-16.8,12.5c-1.2,0.9-2.3,2.1-3.3,3.2C479.7,387.8,479.6,388.3,479.4,388.6L479.4,388.6z"/>
	<path d="M539.1,204.3c0.7,0.1,1.2-0.1,1.5-0.7c0.4-1,0.7-1.9,1.1-3c1.2,0.5,1.6,1.7,2.3,2.6c0.7,0.8,1.3,1.7,1.9,2.6
		c0.7-0.4,0.3-1,0.1-1.4c-0.4-0.8-0.9-1.6-1.4-2.4c0.4-0.8,1-0.5,1.5-0.5c1.9,0,3.7,0.9,5.5,0.5c0.3-0.8-0.1-1.2-0.6-1.5
		c-2.1-1-4.2-1.4-6.5-0.9c-0.4,0.1-0.8,0.2-1.5,0.4c0.2-1.1,0.4-2,0.5-3c-2,1.1-3,2.5-3.4,4.4C540,202.4,539.6,203.4,539.1,204.3
		L539.1,204.3z"/>
	<path d="M452.3,396.4c1.3-1.3,1.1-3,1.4-4.6c0.6-3.4,0.7-6.8,0.4-10.2c-0.3-3.7-0.2-7.3-0.4-11c0-1.3-0.2-2.6-0.5-3.8
		c0,3.9-0.1,7.8-0.1,11.7c0,5.2,0.3,10.4-0.7,15.6C452.3,394.8,452.4,395.7,452.3,396.4L452.3,396.4z"/>
	<path d="M503.3,69.7c3.4-0.2,6.8-0.4,10.3-0.7c0.3,0,0.6-0.4,0.7-0.7c0.2-0.5-0.2-0.9-0.7-1c-0.6-0.1-1.2-0.1-1.8,0
		c-1.3,0.1-2.6,0.2-3.9,0.4c-2,0.2-3.9,0.5-6,0.1c-1.1-0.2-2,0.5-1.8,1.1c0.3,0.9,1,0.9,1.7,0.9c0.5,0,0.9,0,1.4,0
		C503.3,69.8,503.3,69.7,503.3,69.7z"/>
	<path d="M503.8,74.2c2.2,1.9,4.5,0.7,6.6,0.6c0.6,0,1.1-0.6,1.8-1c-1-2.4-3.1-2.3-4.9-2.5C505.6,71.3,504.6,72.6,503.8,74.2z"/>
	<path d="M488.7,114.7c-1.7,0-3.1-0.7-4-1.9c-2.3-3.1-5.6-4.1-9.1-5.1c-0.3-0.1-0.7-0.1-1.1-0.1c-0.1,0-0.2,0.1-0.6,0.3
		c0.7,0.4,1.2,0.7,1.8,1c3,1.4,6,2.7,8.3,5.4c0.5,0.6,1.2,1.1,2,1.5c0.5,0.2,1.2,0.4,1.7,0.2C488.1,115.8,488.4,115.1,488.7,114.7
		L488.7,114.7z"/>
	<path d="M479,75.8c-0.1,0.4-0.2,0.9-0.2,1.3c0.6,3.8,2.3,7.2,3.5,10.7c0.2,0.5,0.6,0.9,1.1,1.7c0-1,0.1-1.5,0-1.9
		c-1.3-4-2.6-8-3.9-11.9C479.4,75.8,479.2,75.8,479,75.8z"/>
	<path d="M477,311.2c-0.3,1.5-0.6,3-0.9,4.5c-0.3,1.5-0.7,3-1.1,4.4c-0.4,1.4-1.2,2.8-1.2,4.5C476.3,321.4,477.5,315.8,477,311.2z"
		/>
	<path d="M511.3,58.5c-1,0.1-1.9,0.1-2.6,0.3c-0.6,0.2-1.1,0.8-1.6,1.3c-0.1,0.1,0,0.6,0.2,0.9c0.1,0.2,0.5,0.4,0.6,0.3
		c1.4-0.9,2.9-0.6,4.4-0.6c0.3,0,0.7-0.2,0.9-0.4c0.2-0.2,0.4-0.6,0.3-0.9c-0.1-0.3-0.4-0.7-0.6-0.8
		C512.3,58.5,511.7,58.5,511.3,58.5z"/>
	<path d="M418.5,370.1c2.3-3.9,3.2-9.3,2.3-12.6C420,361.5,419.3,365.5,418.5,370.1z"/>
	<path d="M407.6,353.2c-0.1,0-0.3,0-0.3,0.1c-1.7,2.4-3.8,7.4-4.5,10.6c0.2,0,0.4,0,0.4-0.1c1.4-3.1,2.8-6.2,4.2-9.3
		C407.6,354.1,407.5,353.6,407.6,353.2L407.6,353.2z"/>
	<path d="M452.8,264.8c1.2-1.7,1.2-1.7,0.8-5.7c-0.6-0.1-0.8,0.2-0.8,0.7C452.7,261.3,452.8,262.9,452.8,264.8z"/>
	<path d="M490.4,271.7c-0.1,2.1,0.3,3.9,1.6,6.2c0.5-2.4-0.3-4.1-0.8-5.8C491.1,271.9,490.8,271.9,490.4,271.7z"/>
	<path d="M432.5,273.5c-1.2,2.3-2.4,4.6-3.7,7c0,0-0.1-0.1-0.1-0.1c0.2,0,0.5,0,0.6-0.1C430.7,278.1,432.1,276,432.5,273.5
		L432.5,273.5z"/>
	<path d="M488.7,114.7c0.5-0.1,0.9,0,1.4-0.2c1.6-0.7,3.2-1.4,5.5-2.4c-1.1-0.2-1.5-0.4-1.9-0.3c-1.7,0.4-3.3,1.2-4.7,2.3
		C488.8,114.2,488.8,114.5,488.7,114.7L488.7,114.7z"/>
	<path d="M496.4,258.6c0-0.9,0.3-1.8-0.4-2.6c-0.2,0.2-0.5,0.2-0.6,0.4c-0.3,1.4-0.6,2.9-0.9,4.4c1.6-0.1,0.9-1.9,2-2.3L496.4,258.6
		z"/>
	<path d="M500.3,93.8c1.6,0.2,2.4-0.2,2.7-1.7c0-0.2-0.1-0.5-0.3-0.6c-0.1-0.1-0.5-0.2-0.6-0.1C501.3,92,500.4,92.6,500.3,93.8z"/>
	<path d="M548.6,222.1c-0.2,1.2,0.4,2,1.2,2.7c1.1-0.2,1.7-1,2.4-2c-1,0-1.8,0.1-2.5,0C549.3,222.7,548.9,222.4,548.6,222.1
		C548.5,222.2,548.6,222.1,548.6,222.1z"/>
	<path d="M503.3,268.1c0.2,2.2,0.4,2.4,2.1,4.9C505,270.3,504.9,270.2,503.3,268.1z"/>
	<path d="M510.8,222.5c2,0.5,3.6,0.8,5.6,0.3C513.7,222,513.7,222,510.8,222.5z"/>
	<path d="M533.4,228.8c-0.2,0.9,0.3,1.5,1,2c0.2,0.1,0.8,0,0.8-0.2C535.7,229.5,534.8,228.7,533.4,228.8z"/>
	<path d="M485.2,121.9c-1.7,0.3-2.2,1.7-2.8,3.3C484.1,124.1,484.1,124.1,485.2,121.9L485.2,121.9z"/>
	<path d="M496.5,258.5c0.2,0.3,0.3,0.6,0.5,0.9c1.4-1.8,1.4-1.9,0.6-3.6c-0.4,1-0.8,1.9-1.2,2.8L496.5,258.5z"/>
	<path d="M440.8,261.8c0-1.1,0-2.1,0-2.9c-0.7-0.2-1,0-1,0.6c0,0.5,0.1,0.9,0.3,1.4C440.2,261.1,440.5,261.4,440.8,261.8z"/>
	<path d="M483.1,92.2c0,1,0,1.9,0,2.9C484.6,94.2,484.6,93.8,483.1,92.2z"/>
	<path d="M515.7,195.1c1-0.3,2-0.6,3-0.9c0-0.1,0-0.2,0-0.4c-0.7,0-1.5-0.2-2.2,0C515.8,193.9,515.6,194.5,515.7,195.1
		C515.8,195.2,515.7,195.1,515.7,195.1z"/>
	<path d="M449.5,273.3c1.1-0.9,1.5-2.1,1-3.6C450.2,270.9,449.9,272.1,449.5,273.3L449.5,273.3z"/>
	<path d="M547.5,169.4c-1.2,0.8-1.2,0.8-1.4,2.6C547,171.4,547,171.4,547.5,169.4z"/>
	<path d="M526.7,303.6c0,0.7,0,1.4,0,2.1c0,0,0.1,0,0.1,0C526.8,304.9,526.8,304.3,526.7,303.6C526.8,303.6,526.8,303.6,526.7,303.6
		z"/>
	<path d="M531.5,372.5c-0.7,0.5-0.8,1.3-0.8,2C530.9,373.8,531.2,373.1,531.5,372.5L531.5,372.5z"/>
	<path d="M523.5,207.3c-0.7,0.1-1.3,0.1-2,0.2c0,0.1,0,0.2,0,0.3c0.7,0,1.3,0.1,2,0.1C523.5,207.7,523.5,207.5,523.5,207.3z"/>
	<path d="M449.6,273.4c-0.2,0.4-0.5,0.7-0.7,1.1c-0.2,0.4-0.3,0.7-0.5,1.5C449.4,275,449.7,274.2,449.6,273.4
		C449.5,273.3,449.6,273.4,449.6,273.4z"/>
	<path d="M476.7,121.4c0,0.5,0,0.9,0.1,1.2c0.1,0.2,0.5,0.3,0.8,0.4c0-0.3,0.1-0.6,0-0.9C477.5,121.8,477.1,121.7,476.7,121.4z"/>
	<path d="M451.6,399.2c1.2-0.7,0.7-1.8,0.7-2.8l0.1,0.1C451.5,397.2,451.8,398.4,451.6,399.2L451.6,399.2z"/>
	<path d="M528.3,316c0-0.4,0-0.9,0-1.3c0,0-0.1,0-0.1,0c0,0.4,0,0.9,0,1.3C528.2,316,528.2,316,528.3,316z"/>
	<path d="M451.7,399.3c-0.8,0.8-0.5,1.9-0.7,2.9l-0.1-0.1C451.8,401.3,451.7,400.3,451.7,399.3L451.7,399.3z"/>
	<path d="M527.4,310.5c0,0.4,0,0.9,0,1.3c0,0,0.1,0,0.1,0c0-0.4,0-0.9,0-1.3C527.5,310.5,527.4,310.5,527.4,310.5z"/>
	<path d="M503,262.1c-0.7,0-1.4,0-2.1,0C501.6,262.5,502.4,262.7,503,262.1L503,262.1z"/>
	<path d="M531.1,196.2c-0.3,0.4-0.6,0.7-0.7,1c-0.1,0.1,0.1,0.4,0.2,0.5c0.2-0.1,0.5-0.2,0.5-0.3
		C531.1,197.1,531.1,196.7,531.1,196.2z"/>
	<path d="M532.2,187.9c0,0.5-0.1,0.9-0.1,1.4c0,0.2,0.2,0.3,0.4,0.4c0.1-0.1,0.2-0.2,0.2-0.3c0-0.5-0.1-1-0.1-1.5
		C532.5,187.9,532.4,187.9,532.2,187.9z"/>
	<path d="M515.8,173.3c-0.5,0-1,0-1.6,0c0,0,0,0.1,0,0.1c0.5,0,1,0,1.6,0C515.8,173.4,515.8,173.4,515.8,173.3z"/>
	<path d="M485.6,99.5c0.1-0.3,0.2-0.4,0.2-0.5c-0.1-0.4-0.3-0.7-0.5-1.1c0,0-0.3,0.1-0.3,0.1c0,0.4,0,0.8,0.1,1.2
		C485.2,99.3,485.4,99.4,485.6,99.5z"/>
	<path d="M500.1,109c-0.6,0.1-0.9,0.4-0.8,1C500.1,110,500.2,109.5,500.1,109L500.1,109z"/>
	<path d="M466.4,105c-0.7-0.1-1.2-0.1-1.9-0.2C465.2,105.6,465.6,105.7,466.4,105z"/>
	<path d="M415.5,294.1c-0.9,0.5-0.6,1.3-0.7,2.1l-0.1-0.1C414.9,295.4,415.1,294.7,415.5,294.1L415.5,294.1z"/>
	<path d="M531.4,372.4c0.2-0.4,0.3-0.9,0.5-1.3c-0.1,0-0.2-0.1-0.2-0.1C531.6,371.5,531.6,372,531.4,372.4L531.4,372.4z"/>
	<path d="M534.6,181.9c-0.4,0-0.8,0-1.2,0c0,0.1,0,0.1,0,0.2c0.4,0,0.8,0,1.2,0C534.6,182,534.6,181.9,534.6,181.9z"/>
	<path d="M415.4,294c0.2-0.2,0.3-0.4,0.1-0.2C415.6,293.5,415.5,293.8,415.4,294L415.4,294z"/>
	<path d="M414.8,296.2c-0.7,0.2-0.6,0.9-0.7,1.4l-0.1-0.1C414.2,297,414.4,296.6,414.8,296.2L414.8,296.2z"/>
	<path d="M414,297.6c-0.2,0.2-0.3,0.4-0.2,0.2C413.8,298,413.9,297.8,414,297.6L414,297.6z"/>
	<path d="M453.1,358.1c-0.7,0.2-0.6,0.7-0.1,1.2C453.1,358.9,453.1,358.4,453.1,358.1L453.1,358.1z"/>
	<path d="M419.6,311.1c0.1-0.2,0.3-0.5,0.2-0.3c0-0.3,0,0-0.1,0.3L419.6,311.1z"/>
	<path d="M419.7,311.1c-0.9,0.2-0.7,0.9-0.7,1.5l-0.1-0.1c0.2-0.5,0.4-1,0.7-1.5L419.7,311.1z"/>
	<path d="M512.2,212.5c0.2,0.1,0.3,0.1,0.5,0.2c0-0.2,0.1-0.4,0.1-0.6c0-0.1-0.2-0.1-0.3-0.2C512.4,212.1,512.3,212.3,512.2,212.5z"
		/>
	<path d="M409,350.2c0.2-0.2,0.3-0.3,0.5-0.5c0.1-0.1,0-0.2,0-0.3c-0.1,0.1-0.3,0.1-0.4,0.2C409,349.8,409.1,350.1,409,350.2
		L409,350.2z"/>
	<path d="M454.5,356c-0.6,0.3-0.7,0.9-0.6,1.5l-0.1-0.1C454.4,357,454.5,356.5,454.5,356L454.5,356z"/>
	<path d="M409.1,350.3c-0.8,0.2-0.8,0.8-0.7,1.4l-0.1-0.1C409,351.4,408.9,350.8,409.1,350.3L409.1,350.3z"/>
	<path d="M480.8,352.3c0.7-0.2,0.6-0.8,0.7-1.4c0,0,0.1,0.1,0.1,0.1C481.3,351.4,481.1,351.9,480.8,352.3L480.8,352.3z"/>
	<path d="M408.3,351.7c-0.8,0.2-0.8,0.8-0.7,1.5l-0.1-0.1C408.3,352.9,408.3,352.2,408.3,351.7L408.3,351.7z"/>
	<path d="M480.9,352.4c-0.6,0.4-0.8,0.9-0.6,1.6l-0.1-0.1C480.8,353.5,480.8,352.9,480.9,352.4L480.9,352.4z"/>
	<path d="M455.9,353.8c-0.2,0.5-0.4,1-0.6,1.5l-0.1-0.1C455.5,354.7,455.6,354.2,455.9,353.8L455.9,353.8z"/>
	<path d="M532.8,224.1c0.1,0,0.2,0.1,0.3,0.1c0-0.1,0-0.3,0.1-0.4c-0.1,0-0.2,0-0.3,0.1C532.8,223.9,532.8,224,532.8,224.1z"/>
	<path d="M470.9,107.6c0.1,0.2,0.2,0.4,0.4,0.5c0.1,0,0.3-0.2,0.5-0.3c-0.1-0.1-0.2-0.2-0.3-0.2
		C471.3,107.6,471.1,107.6,470.9,107.6C470.9,107.6,470.9,107.6,470.9,107.6z"/>
	<path d="M470.9,107.6c-0.1-1-0.8-0.7-1.4-0.7l0.1-0.1C469.8,107.5,470.3,107.6,470.9,107.6L470.9,107.6z"/>
	<polygon points="475.4,58.6 475.6,58.6 475.5,58.3 	"/>
	<path d="M451,402.2c-0.2,0.2-0.3,0.5-0.2,0.2C450.8,402.7,450.9,402.4,451,402.2L451,402.2z"/>
	<path d="M434.6,268.4c-0.1,0.2-0.2,0.5-0.1,0.2C434.4,268.9,434.5,268.7,434.6,268.4L434.6,268.4z"/>
	<path d="M433.1,271.9c0.5-0.1,0.6-0.4,0.5-1.6C433.4,271.4,433.3,271.6,433.1,271.9L433.1,271.9z"/>
	<path d="M548.5,222.2c-0.1-0.2-0.1-0.4-0.3-0.5c-0.1-0.1-0.3,0-0.5,0c0.1,0.1,0.1,0.3,0.3,0.4C548.1,222.1,548.3,222.1,548.5,222.2
		L548.5,222.2z"/>
	<path d="M433.2,271.9c-0.2,0.5-0.5,1-0.7,1.5l-0.1-0.1C433.2,273.1,433.1,272.5,433.2,271.9L433.2,271.9z"/>
	<polygon points="531.1,221.5 531,221.2 531,221.5 	"/>
	<path d="M428.1,281.8c1-0.1,0.8-0.8,0.7-1.4l0.1,0.1C428.6,280.9,428.4,281.4,428.1,281.8L428.1,281.8z"/>
	<path d="M427.5,283.3c0.7-0.3,0.7-0.8,0.6-1.5l0.1,0.1C428,282.4,427.8,282.9,427.5,283.3L427.5,283.3z"/>
	<path d="M427.6,283.4c-0.2,0.1-0.4,0.2-0.5,0.4c0,0,0,0.2,0.1,0.3C427.2,283.8,427.3,283.5,427.6,283.4L427.6,283.4z"/>
	<path d="M479.5,388.7c-0.1,0.1-0.3,0.2-0.4,0.3c0.1,0,0.2,0,0.2,0C479.4,388.9,479.4,388.8,479.5,388.7L479.5,388.7z"/>
	<path d="M538.2,143c0.1-0.1,0.2-0.2,0.2-0.2c0-0.1-0.1-0.1-0.2-0.2c-0.1,0.1-0.2,0.2-0.2,0.2C538,142.9,538.1,143,538.2,143z"/>
	<path d="M485.1,121.8c0.1-0.1,0.2-0.2,0.3-0.3c-0.1,0-0.2,0-0.2,0.1C485.2,121.7,485.2,121.8,485.1,121.8L485.1,121.8z"/>
	<path d="M500,109c0.2-0.1,0.3-0.1,0.5-0.2C500.1,108.3,500.2,108.8,500,109C500.1,109,500,109,500,109z"/>
	<polygon points="469.4,107 469.4,106.8 469.5,106.9 	"/>
	<path d="M453.9,357.5c-0.5-0.1-0.7,0.2-0.8,0.6l-0.1-0.1C453.3,357.8,453.6,357.6,453.9,357.5L453.9,357.5z"/>
	<path d="M454.4,355.9c0.3-0.2,0.5-0.5,0.8-0.7l0.1,0.1C455.1,355.5,454.8,355.7,454.4,355.9L454.4,355.9z"/>
	<polygon points="455.8,353.8 456.1,353.7 455.9,353.8 	"/>
	<polygon points="481.5,350.9 481.7,350.8 481.5,351 	"/>
	<path d="M419.1,312.6c-0.1,0.1-0.3,0.1-0.4,0.2c0.1,0,0.1,0,0.2,0C418.9,312.7,418.9,312.6,419.1,312.6L419.1,312.6z"/>
	<polygon points="434.5,268.4 434.7,268.3 434.6,268.4 	"/>
	<path d="M521.4,215.1c-0.1,0-0.1,0.1-0.2,0.1C521.3,215.2,521.3,215.1,521.4,215.1L521.4,215.1z"/>
	<polygon points="521.4,215 521.5,214.9 521.4,215.1 	"/>
	<path d="M502.6,250.3c0.6,0.3,0.9-0.1,1.1-0.5c1.9-4.2,3.1-8.6,2.7-13.9c-0.4,0.9-0.7,1.2-0.8,1.5c-0.7,4.3-1.8,8.5-3.2,12.6
		C502.4,250.1,502.5,250.2,502.6,250.3z"/>
	<path d="M446.5,193.4c1.4-1.3,2-3,3-4.4c1-1.5,2-2.9,3-4.4c1-1.4,2.4-2.5,3.4-4.2c-1.9,0.6-2.4,1-4.8,4.1
		C448.1,188.4,446.5,191.3,446.5,193.4z"/>
	<path d="M481.2,210.1c-0.4,4.3-1.1,8.5-0.9,13.1c0.4-0.4,0.8-0.6,0.9-0.8C481.4,218.3,481.7,214.2,481.2,210.1z"/>
	<path d="M481.1,193c0-4,0.2-8-2-11.6C479.8,185.2,480.4,189.1,481.1,193z"/>
	<path d="M430.9,185.6c-1.9-2-3.7-3.8-5.4-5.6c-0.7,0.1-0.6,0.6-0.4,1c1,2,2.6,3.6,4.6,4.6C429.9,185.8,430.3,185.6,430.9,185.6z"/>
	<path d="M477.4,160.2c-2,1.4-4,2.5-6.1,4.1c0.6,0.3,0.9,0.6,1.1,0.5c2.1-0.5,3.8-1.7,5.3-3.3c0.1-0.1,0.1-0.4,0.2-0.7
		C477.9,160.8,477.8,160.7,477.4,160.2z"/>
	<path d="M445.3,201.5c0.2,2.3,0.7,4.5,1.6,6.6C447.5,205.6,446.5,203.5,445.3,201.5z"/>
	<path d="M493.5,166.8c-1.1-1.1-2.4-1.4-4-1.4c0.8,1.6,1.8,2.3,3.4,2.1C493,167.5,493.2,167.1,493.5,166.8z"/>
	<path d="M446,166c-0.7,0-1.5,0-2.2,0c0,0.1,0,0.3,0,0.4c0.8,0,1.5,0.1,2.3,0.1C446.1,166.4,446.1,166.2,446,166z"/>
	<path d="M450.8,166.6c0.2-0.2,0.4-0.4,0.6-0.6c-0.1-0.1-0.3-0.4-0.4-0.4c-0.5-0.1-1.1,0.5-0.9,0.7
		C450.2,166.5,450.5,166.5,450.8,166.6z"/>
	<path d="M447.2,216c0-0.4,0-0.8-0.1-1.2c-0.1,0-0.2,0-0.3,0c0,0.4,0.1,0.8,0.1,1.2C447,216,447.1,216,447.2,216z"/>
	<path d="M429,197.2c-0.2,0.6,0.2,1,0.7,1.2C429.7,197.8,429.7,197.8,429,197.2L429,197.2z"/>
	<path d="M506.6,229c0.1,0.2,0.2,0.4,0.2,0.6c0.1-0.2,0.3-0.4,0.3-0.7c0-0.1-0.2-0.3-0.3-0.5C506.7,228.6,506.7,228.8,506.6,229z"/>
	<path d="M457.9,165.6c-0.2-0.1-0.5-0.4-0.5-0.3c-0.2,0.2-0.4,0.4-0.5,0.6c0,0,0.2,0.2,0.2,0.2C457.4,166,457.6,165.8,457.9,165.6z"
		/>
	<path d="M506.5,233.9c0.1,0.2,0.2,0.4,0.3,0.6c0.1-0.2,0.3-0.4,0.3-0.7c0-0.1-0.2-0.3-0.3-0.4C506.7,233.5,506.6,233.7,506.5,233.9
		z"/>
	<path d="M448.2,219.1c0.1-0.1,0.1-0.1,0.2-0.2c-0.1,0-0.3,0-0.4,0C448,219,448.1,219.1,448.2,219.1z"/>
	<path d="M506.6,203.6c0,0.2-0.1,0.4-0.1,0.6c0,0.1,0.2,0.2,0.3,0.3c0-0.2,0.2-0.4,0.1-0.5C506.9,203.9,506.7,203.8,506.6,203.6
		C506.5,203.7,506.6,203.6,506.6,203.6z"/>
	<path d="M486,163.7c0.1-0.1,0.1-0.1,0.2-0.2c-0.2-0.1-0.4-0.2-0.7-0.3c0,0-0.1,0.1-0.1,0.2C485.7,163.5,485.9,163.6,486,163.7z"/>
	<path d="M477.3,175.2c0.2,0,0.5,0,0.7,0c0.1,0,0.2-0.2,0.3-0.3c-0.2,0-0.4-0.1-0.6,0C477.6,174.8,477.5,175.1,477.3,175.2
		L477.3,175.2z"/>
	<path d="M477.4,175.3c-0.3,0.1-0.6,0.2-0.8,0.2c0.1,0,0.2,0.1,0.3,0.1C477,175.5,477.2,175.3,477.4,175.3L477.4,175.3z"/>
	<path d="M428.1,196.6c0-0.1,0-0.2-0.1-0.3C428.1,196.4,428.2,196.4,428.1,196.6L428.1,196.6z"/>
	<path d="M434,189.1c0.1,0.1,0.2,0.1,0.2,0.2c0.1-0.1,0.2-0.2,0.2-0.2c0-0.1-0.1-0.1-0.2-0.2C434.2,188.9,434.1,189,434,189.1z"/>
	<polygon points="441.2,164.9 441.5,165 441.4,164.7 	"/>
	<polygon points="506.5,203.7 506.3,203.5 506.6,203.6 	"/>
	<path d="M428.2,196.5c0,0.5,0.2,0.8,0.7,0.7l-0.1,0.1C428.9,196.8,428.7,196.5,428.2,196.5L428.2,196.5z"/>
	<path d="M420.4,126.1c0.7-0.1,1.5,0,2.1-0.2c3.4-1.4,5.8-3.9,7.6-7.1c0.3-0.5,0.3-0.5-0.3-2c-0.5,0.3-1.1,0.6-1.4,1
		c-1,1-1.9,2.1-2.9,3.1C423.9,122.6,422.1,124.4,420.4,126.1C420.4,126.1,420.4,126.1,420.4,126.1z"/>
	<path d="M348.9,177.7c-0.8,4.1-0.3,7,1.5,10.1c0.7-0.1,0.6-0.6,0.6-1c-0.4-2.7-0.8-5.3-1.2-8C349.7,178.6,349.4,178.4,348.9,177.7z
		"/>
	<path d="M349.3,167.8c0.2-2.4,1-4.7,1.2-7.1c0-0.1-0.1-0.2-0.2-0.3c-1.5,0.2-1.8,1.3-2.1,2.5C347.6,164.6,347.9,166.3,349.3,167.8z
		"/>
	<path d="M426.2,97.2c-1.4-2.4-3.6-3-6.2-2.8c0.1,0.4,0,0.7,0.1,0.8c1.8,0.9,3.6,1.7,5.4,2.5C425.6,97.7,425.9,97.4,426.2,97.2z"/>
	<path d="M365.8,129.5c-0.8,1.4-2,2.6-2.1,4.4c0,0.5,0,1,0.9,1.1c0.7-1.4,1.3-2.8,2-4.2c-0.4-0.5-0.7-0.8-1-1.2
		C365.7,129.6,365.8,129.5,365.8,129.5z"/>
	<path d="M351.1,174.5c0.9-1.9,0.7-3.3-0.2-4.7C349.5,171.5,349.5,171.9,351.1,174.5z"/>
	<path d="M412.3,227.4c1.1,1.2,2.3,1.2,3.6,1.2c0.3,0,0.7-0.3,0.7-0.6c0-0.3-0.2-0.7-0.5-0.8C414.9,226.8,413.7,226.9,412.3,227.4z"
		/>
	<path d="M353,178.5c0.6-1,0.5-1.8-0.5-2.6c-0.6,0.9-0.5,1.6-0.1,2.4C352.5,178.5,352.8,178.5,353,178.5z"/>
	<path d="M351.7,188.9c-0.6,1.2-0.5,2,0.8,2.7C353,190.4,352.9,189.5,351.7,188.9z"/>
	<path d="M354.6,194.7c0.1-0.1,0.2-0.2,0.2-0.3c0.2-0.6,0.1-1.1-0.5-1.5c-0.2-0.1-0.5-0.1-0.6,0c-0.4,0.4-0.1,1.3,0.6,1.7
		C354.4,194.7,354.5,194.7,354.6,194.7z"/>
	<path d="M420.4,126.1c-0.2-0.1-0.4-0.2-0.6-0.2c-0.6,0-1.1,0.3-1.2,0.9c0,0.1,0.1,0.2,0.2,0.3c0.6,0.4,1-0.1,1.4-0.5
		C420.3,126.5,420.3,126.3,420.4,126.1L420.4,126.1z"/>
	<path d="M414.1,235.8c-0.3-0.1-0.7-0.2-1-0.2c-0.2,0-0.4,0.1-1,0.4c0.9,0.1,1.5,0.2,2,0.3C414.1,236.2,414.1,236,414.1,235.8z"/>
	<path d="M363.3,141.9c-0.1,0-0.2,0-0.3,0c-0.5,0.3-0.8,0.7-0.5,1.4c0,0.1,0.2,0.1,0.2,0.1c0.4,0,0.9-0.7,0.8-1.3
		C363.5,142.1,363.3,142,363.3,141.9z"/>
	<path d="M363.1,138.1c0.1,0,0.2-0.1,0.3-0.1c0.4-0.4,0.8-0.8,0.4-1.4c0-0.1-0.2-0.2-0.2-0.1c-0.6,0.2-0.9,0.6-0.8,1.2
		C362.8,137.8,363,137.9,363.1,138.1z"/>
	<path d="M414.3,127.7c0.2,0.1,0.4,0.2,0.6,0.2c0.1-0.1,0.2-0.3,0.3-0.5c-0.2-0.1-0.4-0.2-0.6-0.2
		C414.5,127.2,414.4,127.5,414.3,127.7z"/>
	<path d="M355.1,179.6c-0.3,0.2-0.5,0.3-0.6,0.5c0.3,0.3,0.6,0.6,0.9,0.9c0.1-0.1,0.2-0.2,0.2-0.2
		C355.4,180.4,355.2,180.1,355.1,179.6z"/>
	<path d="M375.2,217.9c0.2-0.1,0.4-0.1,0.6-0.2c-0.1-0.2-0.1-0.4-0.2-0.4c-0.3,0-0.6,0-0.9,0.1c0,0-0.1,0.2-0.1,0.2
		C374.8,217.7,375,217.8,375.2,217.9z"/>
	<path d="M379.2,222.5c-0.1,0-0.2,0.1-0.3,0.1c0.2,0.2,0.4,0.5,0.5,0.7c0.1-0.1,0.2-0.2,0.2-0.3
		C379.5,222.8,379.3,222.6,379.2,222.5z"/>
	<path d="M361,164.8c0.2,0.1,0.4,0.1,0.6,0.2c0-0.2,0.2-0.4,0.1-0.5c-0.1-0.1-0.4-0.2-0.6-0.3C361.1,164.5,361,164.6,361,164.8z"/>
	<polygon points="409,127.6 408.8,127.6 408.9,127.5 	"/>
	<path d="M408.9,127.5c0.1-0.1,0.3-0.2,0.4-0.2c-0.1,0-0.2,0-0.2,0C409.1,127.4,409.1,127.5,408.9,127.5L408.9,127.5z"/>
	<polygon points="415.1,244.8 415.2,244.5 414.9,244.5 	"/>
	<polygon points="357.4,197.8 357.4,197.6 357.2,197.6 	"/>
	<path d="M483.8,442.7c0.6-2.1-0.1-3.9-0.9-5.6c-0.8-1.7-1.5-3.6-3.6-4.4c-0.2,0.4-0.4,0.6-0.3,0.8c1.4,3,2.7,5.9,4.1,8.9
		C483.1,442.4,483.4,442.5,483.8,442.7z"/>
	<path d="M495.3,437c1.8-1.2,2.5-2.8,3.2-4.4c-1-1.1-1.6-1.2-2.1-0.4C495.5,433.6,494.9,435.1,495.3,437z"/>
	<path d="M485.7,520.2c0.9-2.1,1-3.3,0.3-4.7C485.2,517.1,485.2,517.1,485.7,520.2z"/>
	<path d="M485.3,512.2c0.5-1,0.7-1.9-0.3-2.8C484.3,511.5,484.3,511.5,485.3,512.2z"/>
	<path d="M491.6,450c-0.1,0-0.2,0-0.3,0.1c-0.4,0.5-0.4,1.4,0.1,1.9c0.1,0.1,0.5,0.2,0.6,0.1c0.4-0.4,0.4-1.4,0-1.9
		C491.8,450,491.7,450,491.6,450z"/>
	<path d="M484.6,448.8c0,0.5,0,0.9,0.1,1.4c0,0.1,0.4,0.2,0.6,0.2c0.1,0,0.2-0.2,0.2-0.3C485.7,449.4,485.5,449,484.6,448.8z"/>
	<path d="M486.2,414.9c0.9-0.4,1.4-0.9,0.7-1.8C486.1,413.5,485.6,414,486.2,414.9z"/>
	<path d="M489.5,473.9c0.1-0.6,0.3-0.9,0.2-1.1c-0.1-0.2-0.5-0.3-0.7-0.5c-0.1,0.2-0.2,0.4-0.2,0.6
		C489,473.2,489.2,473.5,489.5,473.9z"/>
	<path d="M483.7,501.1c0.2,0.1,0.4,0.2,0.6,0.3c0.1-0.3,0.2-0.6,0.2-0.9c0-0.1-0.3-0.2-0.4-0.3C483.9,500.5,483.8,500.8,483.7,501.1
		z"/>
	<path d="M489.1,466.7c-0.6,0.5-0.4,0.9-0.1,1.5C489.7,467.6,489.6,467.1,489.1,466.7z"/>
	<path d="M486.8,456.8c0.1,0.2,0.2,0.4,0.3,0.6c0.1-0.1,0.2-0.2,0.2-0.3c-0.1-0.2-0.2-0.4-0.3-0.6
		C486.9,456.6,486.8,456.7,486.8,456.8z"/>
	<path d="M424.2,415.4c-1.2-1.2-1.8-2.7-4-2.1c0.3,0.7,0.5,1.2,0.8,1.7c0,0.2,0,0.4-0.1,0.7c-0.5,1.4-1,2.9-1.5,4.3
		c-0.3,1.1-1,1.9-2,2.3c-1,0.4-2,0.8-3,1.2c-0.8,0.3-1.6,0.4-2.4,0.7c-0.9,0.4-1.4,1.2-1.2,1.9c0.3,0.8,1,1.2,2,1.2
		c1.4,0,2.5-0.7,3.5-1.5c1.7-1.4,1.7-1.4,3.7-1.8c1.1-2.4,1.3-5.2,2.1-7.7C422.8,416,423.4,415.7,424.2,415.4z"/>
	<path d="M413.6,448.8c0.5-0.6,0.9-1,1.2-1.5c2.3-3.8,4.5-7.7,6.8-11.6c0.4-0.6,0.6-1.3,0-1.9C417.7,436.5,414.1,443,413.6,448.8z"
		/>
	<path d="M397.2,433.8c-0.3,0.1-0.8,0.2-0.9,0.4c-1.4,2.6-2.1,5.3-2.2,8.5C395.8,440.8,396.7,438.3,397.2,433.8z"/>
	<path d="M404.6,421.7c0.5-1.7,0.5-1.7-0.8-4.2C403.2,418.8,403.2,418.8,404.6,421.7z"/>
	<path d="M410.2,458.5c-0.7,0.9-1.4,1.5-0.8,2.4C410.9,459.9,410.9,459.9,410.2,458.5z"/>
	<path d="M391.4,456c0.9-1,0.9-1,0.2-2.2C391.1,454.5,391,455.2,391.4,456z"/>
	<path d="M410.5,456.2c0.9-0.5,1-1.2,1-1.9c0-0.1-0.2-0.4-0.4-0.4c-0.1,0-0.4,0.2-0.5,0.3C410.5,454.8,410.5,455.4,410.5,456.2z"/>
	<path d="M393,447.1c-0.4,0.7-0.7,1.1-0.9,1.5c-0.1,0.3,0,0.7,0.1,1.4c0.4-0.7,0.7-1,0.9-1.4C393.2,448.3,393.1,447.9,393,447.1z"/>
	<path d="M408,466.6c-0.2,0.1-0.5,0.2-0.5,0.4c-0.1,0.4-0.1,0.8-0.2,1.2c0.2,0,0.5,0,0.6,0c0.1-0.4,0.2-0.8,0.3-1.2
		C408.2,466.8,408.1,466.6,408,466.6z"/>
	<path d="M391.4,460.1c-0.2,0.3-0.4,0.6-0.5,0.9c0,0.2,0,0.5,0.2,0.6c0.1,0.1,0.5,0,0.5-0.1c0.1-0.3,0.2-0.6,0.2-1
		C391.9,460.4,391.6,460.3,391.4,460.1z"/>
	<path d="M407.3,472.8c0.5-0.5,0.5-0.9-0.1-1.3C406.8,471.9,406.7,472.4,407.3,472.8z"/>
	<path d="M392,516.8c-0.2,0.1-0.4,0.3-0.4,0.4c0,0.1,0.1,0.3,0.2,0.4c0-0.1,0.1-0.2,0.1-0.3C391.9,517.2,391.9,517,392,516.8
		C391.9,516.7,392,516.8,392,516.8z"/>
	<path d="M391.9,516.7c0.1,0,0.2-0.1,0.3-0.1C392.1,516.7,392,516.8,391.9,516.7L391.9,516.7z"/>
	<path d="M385.7,559.5c1.1,0.6,1.6,1.1,2.3,1.2c2,0.3,4,0.5,6,0.5c3.1,0,6.2-0.2,9.2-0.3c0.9,0,1.7,0,2.1-0.9
		c0.5-0.9,0.3-1.9-0.4-2.6c-0.4-0.4-0.9-0.8-1.4-1.2c0.3-0.4,0.8-0.8,1-1.3c0.6-1.3,0.1-2.4-1.2-2.7c-0.3-0.1-0.7-0.2-1-0.2
		c-4.8,0.2-9.7,0-14.5,1c-0.6,0.1-1.1,0.4-1.6,0.6c-0.2,0.1-0.3,0.4-0.6,0.7c0.4,0.2,0.7,0.7,1.1,0.7c1.4,0,2.8-0.1,4.3-0.1
		c3.4-0.1,6.9-0.2,10.3-0.3c0.6,0,1.2,0.1,1.3,1.1c-2.7,0.6-5.6,0.4-8.3,1.1C391.6,557.5,388.6,557.3,385.7,559.5z"/>
	<path d="M402.8,564.9c0.2-1-0.2-1.7-1-1.9c-1-0.3-2.1-0.6-3.1-0.5c-3.4,0.3-6.8,0.8-10.2,1.3c-0.6,0.1-1.1,0.6-2,1.1
		c0.7,0.4,1.1,0.7,1.5,0.8c4.4,1.1,8.7-0.1,13.1-0.2C401.7,565.6,402.3,565.1,402.8,564.9z"/>
	<path d="M385.2,592.5c0.6,0.5,1.1-0.1,1.6-0.3c2-0.8,3.9-1.7,5.9-2.4c1.2-0.4,2.5-0.8,3.8-0.9c0.9-0.1,2.1,0,2.7,0.5
		c1.5,1.3,3.5,1.1,5.5,2.3c-0.2-0.7-0.2-1-0.4-1.2c-0.7-0.8-1.6-1.4-2.2-2.2c-1.1-1.4-2.6-2-4.3-1.9c-1,0.1-2.1,0.2-3.1,0.5
		c-3.4,1.2-6.4,2.9-9.3,5C385.2,592,385.2,592.3,385.2,592.5z"/>
	<path d="M388.8,568.5c1,1.2,2.1,1.2,3.1,1.4c2.9,0.6,5.9,0.5,8.8,0.3c0.2,0,0.5-0.1,0.7-0.1c0.7-0.2,1.4-0.9,1.2-1.5
		c-0.1-0.5-0.5-1.1-0.9-1.3c-0.5-0.3-1.1-0.5-1.7-0.5c-3.4,0-6.8,0.2-10.2,1.1C389.6,568,389.3,568.2,388.8,568.5z"/>
	<path d="M394.3,575.7c1.5-0.3,2.9-0.4,4.2-0.8c0.4-0.1,0.9-0.7,0.8-1c-0.1-0.5-0.6-0.9-0.9-1.3c-0.1-0.1-0.4-0.2-0.7-0.2
		c-2-0.2-4,0.3-5.9,0.9c-0.3,0.1-0.6,0.6-0.6,0.8c0.1,0.4,0.3,0.9,0.7,1.1C392.7,575.4,393.6,575.5,394.3,575.7z"/>
</g>
</svg>
