<?xml version="1.0" encoding="utf-8"?>
<!-- Generator: Adobe Illustrator 20.0.0, SVG Export Plug-In . SVG Version: 6.00 Build 0)  -->
<svg version="1.2" baseProfile="tiny" id="Layer_2" xmlns="http://www.w3.org/2000/svg" xmlns:xlink="http://www.w3.org/1999/xlink"
	 x="0px" y="0px" viewBox="0 0 900 600" xml:space="preserve">
<g>
	<path d="M453.4,278.3c0.8,0.2,1.1-0.4,1.4-0.9c2.7-3.8,6.2-6.9,10.1-9.5c2.2-1.5,4.4-3.1,6.5-4.7c6-4.3,11.5-9.2,16.3-14.7
		c0.6-0.7,1.3-1.5,2-2.2c2.2-2,3.8-4.5,5.1-7.1c0.6-1.2,1.1-2.4,2.5-3c0.6-0.2,1-1,1.4-1.6c1.7-2.7,3.5-5.3,5-8.1
		c2.9-5.3,5.8-10.8,8.6-16.2c0.9-1.7,1.5-3.6,2.2-5.5c-2.7-4.4-5.3-8.6-7.9-12.9c-0.7-1.1-1.6-2.1-2.7-2.9c-1.2-0.8-2.3-1.9-3.4-2.8
		c-2-1.7-3.9-3.3-6.6-3.6c-0.8-0.1-1.6-0.6-2.3-1.1c-1.6-1.2-3.2-2.3-4.6-3.6c-3.9-3.7-7.9-7.3-11.7-11.1c-3.4-3.4-7.4-5.6-11.9-6.9
		c-6-1.7-12-3.1-18.1-4.7c-3.5-0.9-7.1-1.8-10.6-2.7c-0.6-0.1-1.2-0.2-2.2-0.3c0.7,1.3,1.7,1.7,2.4,2.5c0.8,0.9,1.6,1.9,2.3,2.9
		c0.6,0.9,1.3,1.7,1.4,3.3c-1.5-1.3-2.6-2.5-3.9-3.5c-1.2-1-2.4-2.1-3.7-3c-1.4-1-2.8-1.8-4.2-2.6c-0.1-1.4,1.3-1.1,1.6-2
		c-0.1-0.2-0.1-0.5-0.3-0.6c-5.3-2.3-9.7-6.1-14.6-9.1c-1.2-0.8-2.5-1.6-3.7-2.4c-1.6-1-3.2-1.7-5.2-1.5c-1.2,0.1-2.4-0.2-3.6-0.4
		c-5.3-1.1-10.5-2.2-15.7-3.4c-1.2-0.3-2.3-0.8-3.4-1.3c-1.3-0.5-2.5-1-3.8-1.4c-1-0.3-2-0.8-3.1,0c-0.2,0.2-0.9-0.2-1.5-0.4
		c0,0.9,0,1.7,0.1,2.5c1.7,9.9,4.1,19.6,8,28.9c1.8,4.3,3.3,8.7,5.1,13c0.5,1.3,0.8,2.9,2.2,3.6l-0.1-0.1c0.4,1.2,0.9,2.5,1.3,3.6
		c0.9,0.2,1.7,0.2,2.1,0.6c0.7,0.7,0.2,1.6-0.2,2.5c0.9,2.5,2.7,4.5,4,6.8c-0.1,0-2.2,0.1-2.5,0.1c2.2,3.4,4.6,6.4,7.6,8.9
		c1.1,1,2.3,1.8,3.5,2.7c1.4,1.1,3,2.2,3.5,4.3c0.9-0.4,1.5-0.6,2.2-0.9c2.4-1.2,4.8-2.5,7.2-3.6c1.3-0.6,2.7-1.1,4.1-1.5
		c2-0.6,4-1.2,5.8,0.1c1.4-0.6,2.4-1.1,3.8-1.7c-0.1,0.7,0,1-0.2,1.3c-1.7,2.5-3.9,3.9-7,4.1c-2.6,0.1-2.7,0.2-5,2.4
		c1,1.5,2.7,2,4.2,2.6c3.8,1.5,7.7,2.3,11.7,3c7,1.1,14,2,21,3c1.8,0.3,3.7,0.5,5.4,1.1c1.4,0.5,2.7,0.6,3.9,0.2
		c2.3-0.7,4.7-0.3,6.9,0.2c1.8,0.5,3.4,0.3,5-0.4c0.8-0.3,1.5-0.9,2.5-0.2c-5,3.5-10.6,4-16.4,3.2c-0.6,0.9-1.1,1.7-1.5,2.6
		c-2.2,4.7-4,9.5-5.4,14.4c-0.4,1.4-1,2.7-1.8,4c-2.6,4-5.2,8-7.7,12c-1,1.6-2.3,2.8-4.1,3.5c-1,0.4-1.9,1-2.8,1.7
		c-3.9,3.2-6.8,7.3-9.6,11.5c-0.5,0.7-0.6,1.5-1,2.3c-2.9,0.5-5.7,0.4-8.5,0.1c-1.3-0.2-2.6-0.5-3.9-0.7c-2.9-0.4-5.5-1.9-8.1-3.2
		c-1.6-0.8-3-2.1-4.5-3.1c-0.5-0.3-1-0.5-1.5-0.8c-0.7,1.1,0.1,1.8,0.1,2.6c0.1,1.8,0.4,3.6,0.5,5.5c0.1,1.5-0.1,2.8-1.4,4
		c-0.9,0.8-1.1,2.1-1.1,3.4c0,0.8-0.1,1.6-0.2,2.6c-0.6-0.1-1.1-0.2-1.5-0.3c-0.8,0.9,0.6,1.8,0.1,2.7c-1,1-1-0.9-1.8-0.6
		c-1.4,0.6-0.9,2.1-1.5,3.2c-0.6,0.4-1.2,0.7-1.7,1.2c-2,2.1-3.9,4.3-6.1,6.3c-3.1,2.9-6.8,4.7-10.9,5.7c-0.3,0.1-0.7-0.2-1.2-0.3
		c-2.5,2.5-5.5,4.3-8.9,5.3c0,0.7,0,1.3,0,2c-4.4,1.1-8.4,3.2-12.9,3.8c-4.6,0.6-9.1,0.7-13.4-1c-4.1-1.7-8.5-2.2-12.8-2.8
		c-3.9-0.5-7.8-1-11.6-1.5c-0.4,0-0.7,0-1.7,0c1.1,0.6,1.7,1.1,2.4,1.3c8.3,3,16.6,5.9,24.9,8.9c2.6,0.9,5.2,2,7.8,3l0.1-0.1
		c-1.1-0.2-2.2-0.2-3.2-0.5c-12.9-3.5-25.5-7.8-37.7-13c-1.7-0.7-3.4-1.4-5.1-1.9c-9.2-2.5-14.9-4.8-25.4-10.9
		c-2.3,0.6-4.4-0.2-6-2.2c-0.5-0.5-1-1.1-1.7-1.4c-1.8-0.7-2.6-2.1-3.2-3.8c-0.3-0.9-0.6-1.9-0.8-2.8c-0.5-3.8-1-7.5-1.3-11.3
		c-0.1-1.4-0.6-2.6-1.6-3.9c-2.1-0.2-4.3-1-6.2-2.4c-1.3-0.9-2.8-0.9-4.2-0.8c-2.2,0.1-4.4,0.2-6.6,0.1c-2.9-0.2-5.8-0.5-8.7-1.3
		c-1.3-0.4-2.7-0.1-3.9-0.6c-1.1-0.4-1.9-1.5-2.8-2.2c-0.2-0.2-0.4-0.3-0.6-0.4c-2.5-0.3-3.6-2.3-4.9-4.1
		c-3.6-5.3-7.4-10.3-11.6-15.1c-1.8-2-3.4-4.2-5.1-6.2c-0.5-0.6-1.2-1.5-1.9-1.6c-1.7-0.3-2.4-1.5-3.1-2.8c-0.7-1.5-1.4-3.1-1.9-4.7
		c-1-2.9-2-5.7-2.9-8.6c-0.6-0.1-1-0.2-1.3-0.2c-2.5,0.6-5,0.6-7.6,0.1c-2-0.4-4.1-0.1-6.2-0.1c-1.9,0-3.7-0.3-5.3-1.1
		c-0.3-0.1-0.5-0.5-0.9-0.8c0.4-0.1,0.7-0.3,1-0.3c3.7,0.2,7.3,0.4,11,0.5c0.7,0,1.5,0.1,2.2-0.1c4.9-1.4,9.9-2.8,14.8-4.3
		c2.4-0.8,4.8-1.8,7.2-2.8c0.4-0.2,0.8-0.5,1.3-0.9c-1.6-1.3-3.1-2.5-4.6-3.7c2.4-0.7,5.1-0.8,7.6-0.4c2.4,0.4,4.8,1,7.2,1.3
		c1.7,0.3,3,1.1,4.1,2.2c2.9,2.6,6.1,4.9,9.3,7.1c4.3,2.8,8.6,5.6,12.9,8.4c1.8,1.1,3.6,2.1,5.5,3c1.8,0.9,3.6,1.6,4.7,3.4
		c0.3,0.5,1,0.7,1.5,1c1.5,0.8,3.1,1.4,4.6,2.3c3.2,1.8,6.6,3.1,10.3,3.5c1.1,0.1,2.2,0.1,2.9,1.3c-0.1,0.8-0.7,1-1.3,0.9
		c-1-0.1-1.9-0.4-2.8-0.7c-1.6-0.5-3.3-1-4.9-1.5c-3.1-1-6.2-2.1-9.4-3.1c-0.9-0.3-1.9-0.7-2.8-0.6c-1.9,0.2-3.6-0.3-5.3-1.2
		c-1.6-0.8-3.2-1.6-4.9-2.4c-0.5,0.8,0.1,1.3,0.4,1.7c2,2.9,4.2,5.7,6.2,8.7c2.6,3.7,5,7.5,7.5,11.3c0.9,1.3,1.4,2.8,1.8,4.4
		c0.9,3.6,2,7.1,2.8,10.6c0.6,2.5,0.8,5.1,1.1,7.6c0.1,0.6-0.1,1.1-0.2,1.8c-0.8-0.1-1.3-0.2-1.9-0.3c-0.1,0.2-0.2,0.5-0.2,0.7
		c1.2,4.2,3,7.9,6,11.1c3,3.1,6.1,5.8,10.1,7.7c7.5,3.6,15.3,5.8,23.4,7.3c6.6,1.3,13.2,2.4,19.8,3.6c4.4,0.9,8.8,1.9,13.5,2.9
		c2.4-1.4,5.3-1.9,8.2-2.1c5.3-0.3,10.3-1.6,15.3-3.5c3.9-1.5,7.9-2.6,11.8-3.9c0.4-0.1,0.9-0.2,1.7-0.4c-0.4,1-0.7,1.5-0.9,2.1
		c0.3,0.1,0.6,0.3,0.7,0.2c2.1-1.7,4.5-2.9,6.8-4.3c3.6-2.2,6.5-5,8.5-8.8c1.3-2.5,2.9-4.8,4.5-7.1c1.6-2.1,2.7-4.3,3.9-6.6
		c0.3-0.5,0.3-1.2,0.3-1.8c0-0.7-0.6-1-1.2-1.2c-0.8-0.3-1.1-1-1.1-1.8c0.1-5.1-0.9-10.2-0.2-15.4c0.3-2.2,0.8-4.3,1-6.5
		c0.3-2.7,0.5-5.4,0.8-8c0.8-5.8,1.5-11.6,2.9-17.3c0.4-1.7,0.9-3.5,1.3-5.2c-0.7-0.7-1.3-0.2-1.8,0c-3.7,1.4-7.3,2.7-10.9,4.2
		c-1.3,0.5-2.6,1.3-3.8,2.1c-3.3,2.1-6.9,3.6-10.8,4.3c-0.2,0-0.5-0.1-0.8-0.2c0.1-0.3,0.1-0.7,0.3-0.9c1.9-1.5,3.9-3,5.9-4.3
		c3-1.9,6.1-3.7,9.1-5.5c0.7-0.4,1.5-0.9,2.3-1.1c3.2-0.6,5.7-2.6,8.7-4.1c-1.5-2.3-2.8-4.5-4.2-6.6c-1.4-2-2.8-4-4.2-6
		c-2-2.9-3.9-5.9-5.4-9.2c-0.5-1-1-2-1.7-2.8c-2.9-3.1-4.8-6.8-6.4-10.6c-3-7.2-5.2-14.8-6.7-22.5c-1.4-7-2.6-13.9-3.1-21
		c-0.1-0.7-0.2-1.4-0.3-2.2c-4-1.9-8-3.7-12.2-5.6c0.1,0.7,0,1.2,0.2,1.6c2.4,7.8,3.5,15.7,4.3,23.8c0.8,8.8,1.1,17.6,1,26.4
		c-0.1,7-1.7,13.6-4.6,19.8c-0.4,0.8-0.7,1.8-1.8,2.1c0.1-1.2,0.3-2.2,0.4-3.3c0-0.1,0.1-0.1,0.1-0.2c0,0.1,0,0.2-0.1,0.3
		c-0.3,0.2-0.7,0.2-0.9,0.5c-1.2,1.7-2.5,3.3-3.5,5.1c-3.8,6.8-9.4,11.5-16.2,14.9c-1.2,0.6-2.4,1.1-3.7,1.7
		c0.6,0.2,1.2,0.4,1.9,0.7c-1.3,1.4-2.9,1.8-4.5,1.9c-3.3,0.2-6.6,0.2-9.9,0c-1.4-0.1-2.9-0.6-4.2-1.2c-1.6-0.7-3.2-1.1-4.9-1.5
		c-3.5-0.8-6.9-1.6-10.3-2.4c-0.8-0.2-1.6-0.5-2.4-0.8c-8-2.6-14.1-7.5-18.3-14.9c-5.1-8.7-8.1-18-9.8-27.8c-0.8-4.7-1.7-9.4-2-14.1
		c-0.3-5.5-0.2-11,0.1-16.5c0.2-4,1-8,1.5-11.9c-2.3,0.4-4.5,1.5-10.8,5.4l0.1-0.1c-1.9,0-3.9-0.1-5.8-0.1c-2.9,0.1-5.9-0.2-8.7,1
		c-0.8,0.3-1.7,0.3-2.5,0.4c-3.1,0.1-6,1.2-8.7,2.5c-1.5,0.8-3,1.6-4.5,2.4c-0.9,0.5-1.7,1-2.6,1.4c-6.8,2.5-12.2,7-17.9,11.3
		c-2.1,1.6-4.1,3.4-6.2,5.1c-0.1,0.1-0.2,0-0.4,0c-1-1.2,0.9-2.1,0.3-3.5c-2.2-0.2-4.5,0-6.8,0.6c-6,1.4-11.7,3.5-17.4,5.6
		c-0.6,0.2-1.2,0.5-1.6,0.9c-2.8,2.5-5.7,5-8.5,7.6c-0.3,0.2-0.4,0.6-0.5,0.9l0.1-0.1c-0.5,0.1-0.9,0.3-0.9,0.9l0.1-0.1
		c-0.5,0.3-1.2,0.4-1.6,0.8c-4.6,4.5-9.7,8.5-14.8,12.6c-2.3,1.8-3.7,4.2-5.3,6.5c-0.4,0.6-0.6,1.3-0.7,2c-0.3,2.5-1.1,4.8-2.2,7
		c-2.5,5.1-1.7,10,1,14.7c1.4,2.3,2.8,4.5,3.5,7.2c0.3,1.3,1.2,2.1,2.2,2.8c2.5,1.8,4.8,3.7,7.4,5.4c2.6,1.6,4.8,3.7,7.5,5.2
		c1.1,0.6,1.9,1.9,2.7,2.8c-0.5,0.8-0.9,0.7-1.3,0.3c-0.9-0.8-1.8-1.7-2.8-2.3c-0.4-0.3-1.1,0-1.9,0c1.3,2.6,2.9,4.6,4.7,6.4
		c3.3,3.3,6.6,6.5,10,9.7c0.8,0.7,1.8,1.3,2.7,1.8c3,1.7,6,3.3,9,4.9c1.8,1,3.6,2.1,5.3,3.3c0.7,0.5,1.6,0.9,1.9,1.6
		c1.7,3.1,4.9,3.8,7.5,5.5c0.5-0.3,0.9-0.5,1.4-0.8c1.1,1,2.3,2.1,3.6,3.2c1.5-0.3,3.1-1.1,3.9,1l0.1-0.1c-0.5,0.6-0.9,1.3-0.4,2
		c0.3,0.5,0.8,1,1.3,1.2c0.6,0.3,1.4,0.5,2.1,0.5c2.5,0.1,4.8,1.1,6.9,2.2c2.3,1.2,2.4,1.7,1.3,4.3c1,0.5,2,0.9,3,1.4
		c1,0.5,1.9,1,2.3,2.2c0.1,0.4,0.5,0.8,0.9,1.1c3.5,3.2,7,6.5,10.5,9.7c1.2,1.1,2.4,2,4,2.3c1.5,0.3,2.9,1.1,4.7,1.8
		c0.6-0.7,1.3-1.5,1.9-2.4c0.6-0.9,1.3-1.8,1.7-2.8c1.5-3.9,4.5-5.2,8.4-5.1c2.3,0.1,4.7-0.1,6.9,0.8c0.9,0.4,1.7,1,2.4,1.6
		c0.5,0.4,0.4,1.1-0.3,1.7c-3.1-1.5-6.6-1.1-10-1.2c-2.8-0.1-3.5-0.6-4.8,3.1c-0.5,1.4-1.3,2.7-2.2,3.8c-1.3,1.7-2.1,3.6-1.9,5.8
		c0.1,1,0,1.9,0,3.4c-1.6-1.6-1.7-3.4-2.8-4.9c-2.5-0.5-4.9-1.6-7.2-2.9c-1.9-1.1-3.4-2.3-4.9-3.8c-2.6-2.7-5.3-5.4-8-8.1
		c-0.9-0.9-1.5-1.9-1.3-3.3c-0.6-0.3-1.1-0.7-1.7-0.8c-3.9-0.7-6.9-2.8-9.8-5.3c-3.2-2.8-6.6-5.4-10.5-7.3c-3.3-1.6-6.2-3.9-9.2-5.9
		c-1.3-0.9-2.6-1.9-3.8-2.9c-2.3-1.9-4.8-3.4-7.4-4.7c-4.5-2.2-8.7-4.9-12.4-8.4c-4.9-4.6-9.3-9.7-12.4-15.8
		c-0.8-1.5-1.7-2.6-3.1-3.5c-3.4-2.2-6.5-4.8-9.4-7.6c-1-0.9-1.7-2.1-2.5-3.1c-0.5-0.7-0.8-1.5-0.6-2.4c0.2-1.1,0-2.2-0.8-3.1
		c-1.8-2.1-2.7-4.6-3.8-7.1c-0.7-1.6-0.9-3.3-0.5-5c0.3-1.3,0.8-2.6,1.2-3.8c0.5-1.5,1-3,1.6-4.5c0.8-1.8,1.6-3.6,2.6-5.2
		c0.9-1.6,2.4-2.8,2.9-4.6c0.2-0.6,0.9-1.1,1.4-1.6c2.5-2,5-4,7.5-5.9c1-0.8,2.2-1.6,3-2.6c3.2-3.8,7-6.9,10.8-9.9
		c2.7-2.1,5.4-4.2,8.1-6.3c2.1-1.7,4.4-3.1,7-3.9c3-0.9,6.1-1.8,9.2-2.6c2.5-0.6,5.1-0.8,7.6-0.3c1.2,0.2,2.4,0.2,3.7,0.3
		c1.3-1.1,2.5-2.3,3.9-3.3c3.4-2.4,6.9-4.6,10.4-6.9c1.4-0.9,3-1.7,4-3.1c0.3-0.4,0.7-0.7,1.1-1c5.4-3.5,11-6.3,17.5-7.1
		c1.7-0.2,3.3,0,5.1,0.3c3.1,0.6,6.3,0.6,9.5,0.8c0.6,0,1.2-0.2,1.7-0.5c6.2-4.2,13.1-7.1,19.9-10.2c0.6-0.2,1.1-0.5,1.8-0.9
		c0.6-2.7,1-5.4,0.4-8.2c-0.2-0.8-0.2-1.7-0.2-2.5c-0.1-2.6-1.1-3.8-3.5-4.4c-0.5-0.1-1-0.1-1.4-0.1c-2.1-2.5-2.1-2.5-1.3-5.7
		c-1-2.4-2.1-4.8-4-6.8c-0.5-0.5-0.9-1.3-0.9-1.9c-0.2-3.9-0.1-7.8,1.5-11.5c1-2.3,2.7-4,4.7-5.4c0-1.2,0-2.3,0-3.3
		c-0.6-0.5-1-0.9-1.4-1.2c0.2-1.3,0.2-2.4,0.5-3.4c0.4-1.2,0.3-2.4-0.2-3.6c-0.4-1.1-0.4-2.1-0.1-3.2c0.9-3.7,1.6-7.4,2.6-11
		c1.1-3.9,2.4-7.7,3.6-11.5c0.3-0.9,0.8-1.8,1.2-2.7c1.4-2.5,2-2.8,4.9-2.3c1-1.6,2-3.3,3.1-5c-0.4-0.7-0.9-1.5-1.3-2.3
		c-0.4-0.8-0.8-1.7-1.2-2.6c0.4-1.6,1.6-1.5,2.9-1.2c0.3-2.1,2.1-3.5,2.1-5.7c2.3,0,3.8,1.4,5.5,2.3c1.6,0.9,3.1,1.9,4.5,2.9
		c0.7-0.5,0.5-0.9,0.2-1.3c-1.5-1.7-2.6-3.5-3.3-5.6c1.1-1.2,1.5-1.4,2.4-0.8c2.6,1.6,4.4,3.9,5,6.9c0.1,0.5,0.1,1,0.3,1.4
		c0.1,0.3,0.6,0.4,1.1,0.7c0-0.9,0-1.6,0-2.3c0-0.7,0.1-1.5,0.3-2.2c0.5-1.4,2-2.1,3.2-1.4c0.9,0.5,1.8,1.3,2.5,2
		c1.8,1.8,3.6,3.7,5.1,5.2c1.6,0.5,1.6-1,3.1-1.2c1.5,0.1,3.7,0.2,5.9,0.5c0.8,0.1,1.5,0.7,2.2,1.2c1.4,1,2.7,2.2,4.5,3.7
		c1.4-0.2,2.9,1.2,4.2,2.9c2,2.6,4,5.3,6,7.9c0.4,0.6,0.9,1.1,1.5,1.6c2.6,2.5,4,5.5,4.5,9c0.1,0.4,0.2,0.7,0.2,1.1
		c0.1,3.3,0.6,6.5,2.3,9.5c0.9,1.5,0.7,3.3,0,4.9c-0.4,0.1-0.9,0.2-1.4,0.4c-0.7,1.6,0.9,2.6,1.2,4c-0.1,1.3-0.3,2.6-0.5,3.9
		c-0.3,1.7-0.4,3.4,1.1,4.8c0.2,0.2,0.4,0.6,0.5,1c0.5,3.1,1.3,6.2,1.3,9.4c0,1,0,2,0.2,2.9c0.4,2.5-0.1,4.8-1.3,7.1
		c-1.2,2.4-2.3,4.8-2.5,7.6c-0.1,1.6-1.3,2.2-2.6,2.7c-2-0.1-2.4-2.3-4.1-3.1c-0.9,1.2-1.1,2.4-1.2,3.8c-0.1,1.9-0.3,3.9-0.5,6.1
		c0.3,0.1,0.9,0.4,1.4,0.4c3-0.1,5.9,0.4,8.7,1.3c6,1.9,11.6,4.5,16.7,8.1c4,2.8,8.3,5.1,13,6.6c1.6,0.5,3.3,0.9,5,0.9
		c3.2,0.1,6.3,0.6,9.4,1.2c0.2,0,0.5,0.1,0.7,0.1c2.5,0.3,5.2,0.3,7.6,1.2c2.4,0.9,4.7,1.9,7.1,2.8c6.3,2.4,11.7,6,15.8,11.4
		c0.4,0.6,0.9,1.1,1.4,1.7c0.1,0.1,0.2,0.1,0.4,0.3c3.9,0.5,7.9,0.9,11.9,1.5c2.8,0.4,5.5,1,8.3,1.6c4.2,0.9,8.2,2.5,11.7,5.1
		c1.5,1.1,3.1,1.9,4.9,2.4c5.3,1.5,9.8,4.3,13.8,8c2.8,2.6,5.7,5.1,8.3,7.7c1.8,1.8,3.7,3.2,6,4.1c1.2,0.5,2.5,1,3.8,1.4
		c1.3,0.5,2.5,0.9,3,2.4c0.2,0.6,0.9,1.2,1.4,1.7c4.2,4.1,8.1,8.5,11.8,13.1c0.7,0.9,1.3,1.8,1.9,2.7c0.7,1.1,0.8,2.4-0.2,3.4
		c-0.8,0.7-0.9,1.6-1.2,2.6c-0.6,2.4-1.3,4.7-2.3,6.9c-2,4.2-4.2,8.3-6.4,12.4c-1.7,3.1-3.9,5.9-6.3,8.5c-1.8,2-3.4,4.2-4.8,6.4
		c-3.5,5.8-7.6,11.1-12.3,16c-4,4.1-8.4,7.8-13.2,11.1c-2.4,1.7-4.8,3.4-7.2,5c-3.1,2.2-6.3,4.2-8.7,7.3c-0.9,1.1-2.2,2-3.2,3
		c-1.8,1.6-3.7,3.2-5.4,5c-1.5,1.6-3.1,3.1-5.3,3.6c-0.8,1.4-1.5,2.6-2.3,4c1.3,0.4,2.5,0.7,3.5,1c1.1,1.1,0.8,2.2,0.4,3.2
		c-0.6,1.4-0.1,2.4,1,3.2c1,0.7,2,1.4,3.1,2c2.5,1.6,5,3.1,7.5,4.6c0.2,0.1,0.3,0.4,0.6,0.8c-0.2,0.6-0.5,1.4-0.9,2.6
		c0.5,0.4,1.1,0.9,1.8,1.4c1,0.7,2,1.3,3.1,2c1.9,1.1,3.9,2.1,4.5,4.5c3.1-0.6,5.8-0.1,8.3,1.5c0.7,0.4,1.5,1.2,1.6,1.8
		c0.4,2.4,1.5,4.6,1.5,7.3c-0.6-0.1-1.1,0-1.5-0.2c-1.5-0.8-2.2-2.1-2.6-3.8c-0.8-3.5-1.1-3.8-4.5-4.2c-2.6-0.3-4.9-1.4-6.9-3
		c-2-1.5-3.7-3.2-5.5-4.8c-1.5-1.4-2.5-3-2-5.1c-1.9-2-3.9-3.4-6.6-3.9c-1.3-0.3-2.5-0.9-3.8-1.4c-1.2,0.3-1.2,1.4-1.8,2.2
		c-3.6,5.3-8.5,8.6-15,10.1c0.1-0.7,0-1.2,0.2-1.6c1-1.7,2.2-3.2,3.9-4.3c2.1-1.4,4.2-3,6.3-4.4c2.9-1.9,4.9-4.4,4.7-8.3
		c-0.9-0.1-2-0.3-3-0.4c-1.7,1.1-2.7,2.6-4,3.9c-0.3,0.2-0.5,0.6-0.6,0.9c-0.8,3.7-3.7,5.6-6.6,7.4c-0.8,0.5-1.7,1-2.6,1.3
		c-3.2,1.3-5.9,3.4-8.8,5.2c-2.3,1.5-4.9,2.7-7.4,4.1c-0.9,0.5-1.9,1.1-2.8,1.7c-0.1,0-0.1,0.2-0.1,0.6c1.4,0,2.7,0.1,4,0.1
		c9.3,0,18.6,0.1,27.9,0.1c2.1,0,4.1,0.4,6.4,0.9c-0.4,0.2-0.6,0.3-0.7,0.3c-14.4,0.4-28.8,1.7-43.3,0.8c-5.4-0.3-10.7-1.2-16-1.7
		c-4.1-0.4-8.2-0.7-12.4-0.9c-1.6-0.1-3.1,0.2-4.5,0.3c-1.2-1,0.2-1.7-0.2-2.5c-0.3-0.6-0.8-1.3-0.9-2c-0.4-2-0.1-3.9,1.2-5.5
		c0.5-0.7,1.1-1.2,1.9-2c-1.1-0.7-2.3-0.1-3.2-0.6c-0.3-0.2-0.7-0.6-0.6-0.8c0.1-0.4,0.5-1,0.7-1c4,0,7.1-1.7,10.4-3.8
		c4.1-2.7,8.2-5.3,12.8-7c0.9-0.3,1.8-0.8,2.7-1c0.5-0.2,1.1-0.1,2.1-0.1c-0.9,1.8-1.8,3.2-3.1,4.2c-2.9,2.3-5.9,4.3-9.5,5.5
		c-1.8,0.6-3.3,1.4-4.8,2.6c-1.3,1.1-2.7,2.1-4.2,3c-1.8,1.2-3.1,2.7-4.5,4.3c0.2,0.6,0.4,1.2,0.7,1.9c0.9-0.1,1.7,0,2.5-0.2
		c4.6-1.6,9.2-3.1,13.8-4.9c1.5-0.6,2.9-1.7,4.3-2.8c2.6-2.2,5-4.7,8.1-6.3c0.5-0.3,0.8-0.9,1.2-1.3c0.3-0.3,0.8-0.6,1.3-0.2
		c-0.5,1.2-1.2,2.2-2.2,3c-3.5,2.9-7.2,5.5-10.4,8.7c-2.4,2.4-5.3,4.1-8.2,6.6c3.1-0.3,5.6-0.3,8.1-0.9c4.1-0.9,7.7-3.1,11.1-5.4
		c0.8-0.5,1.6-1.2,2.3-1.8c4.4-3.3,5.4-3.9,10.4-4.9c1.5-0.3,3.1,0,5.3,0c-0.8,0.7-1.3,1.3-1.7,1.2c-2.5-0.3-4.5,1.1-6.7,1.5
		c-1.3,0.3-1.3,0.3-3,1.8c0.3,0.4,0.6,0.7,0.9,1.1c-1.6,2.4-4.2,4.1-10.9,7.2c-0.5-0.2-1-0.5-1.6-0.5c-0.6,0-1.2,0.2-1.7,0.5
		c-0.5,0.2-1,0.5-1.4,0.8c0.2,0.9,0.8,0.8,1.2,0.8c2.1,0.2,4.1,0.4,6.2,0.5c2,0.1,3.9-0.2,5.7-1.1c2.2-1.1,4.3-2.2,6.6-3.3
		c0.1-0.9-0.1-1.8,0.3-2.4c0.5-0.7,1.5-1.3,2.3-1.7c3.5-1.7,7-3.4,10.6-5.1c1.2-0.6,2.4-1.2,3.6-1.9c0.6-0.4,1.2-0.9,1.5-1.5
		c1.5-2.9,3.8-5.1,6-7.4c1.8-2,3.6-3.9,5.6-6c-0.3-0.5-0.6-0.9-0.7-1.4c-0.2-0.7,0.2-1.3,0.8-1.4c3.6-0.3,5.9-2.6,8.3-5
		c0.7-0.7,1.4-1.3,2.3-2.2c-1.1-0.2-2.1-0.3-3.1-0.4c0.1-0.4,0.2-0.7,0.3-0.8c2.8-0.7,4.6-2.6,6.1-5c0.4-0.6,0.6-1.4,1.5-1.5
		C454.4,276.6,453.2,277.5,453.4,278.3c-0.1,0.2-0.3,0.3-0.4,0.5c-0.1,0.1,0,0.2,0,0.3c0.1-0.1,0.4-0.1,0.4-0.2
		C453.5,278.7,453.4,278.5,453.4,278.3z M373.5,308.4l0.1-0.1L373.5,308.4l-0.1,0.2L373.5,308.4z M328.7,39.2c0-0.1,0-0.2,0-0.3
		c0,0-0.1-0.1-0.2-0.1C328.5,38.9,328.7,39,328.7,39.2c0.1,0,0.1,0.1,0.2,0.2c0,0,0.1,0,0.2,0C328.9,39.4,328.8,39.3,328.7,39.2z
		 M352.3,59.6c0.1,0.1,0.1,0.2,0.2,0.2C352.4,59.8,352.3,59.7,352.3,59.6c-0.1-0.1-0.1-0.4-0.2-0.6c0-0.1-0.1-0.2-0.2-0.2
		c-0.1,0.1-0.2,0.2-0.2,0.3C351.9,59.2,352.1,59.4,352.3,59.6z M321.4,36.2c0-0.1,0-0.2-0.1-0.3c0,0-0.1,0-0.2,0
		C321.2,36,321.3,36.1,321.4,36.2c0.2,1.5,0.5,2.2,1.2,2.1c0.1,0,0.2-0.1,0.3-0.2C323.2,37.3,322.9,37,321.4,36.2z M378.1,318.9
		c-2-0.4-3.7,0.7-5.6,1.1c-0.3,0.1-0.6,0.5-1,0.8c1.4,0.6,2.4,0.4,3.4-0.1C375.9,320.1,376.9,319.5,378.1,318.9c0-0.2,0-0.2,0.1-0.3
		c0,0,0-0.1,0-0.1C378.1,318.6,378.1,318.8,378.1,318.9z M317.1,42.2c-0.7-0.2-1.4-0.2-1.5-1.2c-0.1-0.7,0.3-1.6-0.7-2.3
		c-1.3,1.3-0.7,2.6-0.6,3.9C315.8,42.8,315.8,42.8,317.1,42.2c0-0.1,0.1-0.2,0.1-0.3c0,0,0-0.1,0-0.2
		C317.2,41.9,317.1,42.1,317.1,42.2z M338,127.1c-0.5,0.3-1,0.5-1,0.7c-0.3,1.3-1,2.1-2.2,2.8c-1.8,1.1-3.1,2.7-4.3,4.4
		c-1.7,2.4-3.7,4.5-6.1,6.3c-1.4,1-2.8,1.4-4.5,1.1c-1.1-0.2-2.1-0.4-3.1-0.6c-0.7,1.6-1.4,2.8-3.3,2.1c0.3-0.8,0.6-1.5,1-2.3
		c-0.6-0.1-1-0.2-1.3-0.2c-2.7,0.3-5.3,0.7-8.3,1c-1.1-0.7-2.5-1.6-3.9-2.2c-1.5-0.7-3.2-1.1-4.7-1.6c-1.9-2.5-3.7-4.9-5.6-7.3
		c-1.2-1.5-2.1-3-2.6-4.8c-0.8-2.6-1.7-5.1-2.6-7.6c-0.3-0.8-0.3-1.7-1.4-2.3c0,0.8-0.1,1.5,0,2.2c0.9,4.1,0.2,8.3,0.3,12.4
		c0.1,3.4-0.9,6.8-1.4,10.2c-0.1,0.4-0.4,0.8-0.8,1.4c-0.4-3.8-0.9-7.2-1.2-10.6c-0.3-3.4-0.1-6.8-0.7-10.3
		c-2.5,0.9-4.6,2.2-6.8,3.6c-0.3,2-0.9,4-1,6.1c-0.5,7.8-0.6,15.6,0.7,23.4c1.3,7.7,3.1,15.3,5.3,22.9c2.3,8.1,6,15.5,10.7,22.4
		c2.8,4,6.3,7.1,10.6,9.4c3.9,2,8.1,3.5,12.3,4.8c0.2,0.1,0.5,0,0.7,0c0.5-0.4,1-0.7,1.4-1.1c1,0.2,1.9,0.4,2.7,0.6
		c1.3-0.8,0.3-2.9,2.4-3.2c0,1.4,0.1,2.8,0.1,4.1c4.1,1.2,5,1.3,9.9,0.9c-0.3-0.3-0.5-0.7-0.7-0.9c2.2-0.8,4.4-1.5,6.5-2.5
		c3.4-1.7,6.5-3.8,9.5-6.2c1.7-1.4,3.2-3,4.4-4.8c2.3-3.3,4.6-6.7,7.2-9.7c2.6-3.2,3.8-6.6,3.8-10.7c0-8.2-0.2-16.4-0.6-24.6
		c-0.3-5.4-0.9-10.7-1.3-16.1c-0.4-6.3-1.2-12.6-2.6-18.7c-7.5-3.1-9.2-3.6-12-3.7c-0.5,2.6-1,5.2-1.5,7.8c-0.1,0.8,0,1.7-0.1,2.6
		c-0.1,0.8-0.2,1.7-0.4,2.5c-0.4,1.5-0.8,3.1-1.3,4.6c-0.1,0.5-0.5,0.9-0.9,1.5C338.8,133.5,339.1,130.3,338,127.1z M287.1,54.3
		c-0.4,2.2-0.7,4.6-1.1,7c-0.2,1.2-0.3,2.4-0.5,3.6c-0.3,2.2-0.7,4.4-2,6.2c-1.5,2.1-1.8,4.5-1.8,7c0,3-0.3,6-0.9,9
		c-0.3,1.3-0.4,2.7-0.3,4c0.1,1.3,0.1,2.6-0.1,4c-0.6,4-0.1,7.9,3,10.8c1.5,1.4,2.5,3,3.1,4.9c1.5,4.4,3,8.8,4.2,13.3
		c2,7.3,6.5,12.4,13.4,15.6c2.9-1.7,5.9-1.3,9-0.9c1.3,0.2,2.6,0.5,4,0.7c2.9,0.5,5.5-0.1,7.8-2.1c3.9-3.2,7.3-6.8,10.1-11
		c0.5-0.7,0.9-1.5,1.5-2.1c2.2-2.5,2.9-5.5,3.1-8.8c0-1.2,0.1-2.5,0.4-3.6c1.1-4.1,2.3-8.2,3.5-12.3c0.4-1.5,0.9-3,1.3-4.6
		c0.3-1.2,0.4-2.4,0.2-3.6c-0.3-1.4-0.2-2.9-0.3-4.4c-0.1-2.4-0.1-4.9-0.2-7.3c-0.1-2.7-0.1-5.4-1.9-7.6c-0.4-0.5-0.5-1.1-0.7-1.7
		c-0.6-1.7-1.3-3.4-1.9-5.1c-0.6-1.6-0.9-3.4-1.8-4.8c-0.9-1.5-0.8-3.5-2.2-4.8c-0.2-0.1,0.1-0.7,0.1-1.1c-0.5-0.2-0.9-0.4-1.3-0.6
		c-1.2-0.6-1.9-1.4-1.6-2.9c0.3-1.4-0.7-2.5-0.9-3.8c-2,0.3-0.7,2.2-1.7,3c-1.5-0.5-1.6-0.6-1.4-1.5c0.1-0.6,0.4-1.1,0.7-1.9
		c-2.4,0.1-4.6,0-6.3-1.3c-1.3,0.4-2.4,0.8-3.4,1c-1.2,0.2-2.4,0.3-3.5,0.4c-1.1,1-2.1,1.9-3,2.7c-1.6,0-3.1,0-4.4,0
		c-0.9-1-1.7-1.9-2.5-2.9c-2.7,1-5.1-0.4-6.7-0.7c-2.7,0.5-4.6,0.9-6.6,1.3c0.1,0.5,0.2,0.9,0.3,1.4c0.3,1.1-0.1,1.6-1.3,1.7
		c-1.6-2.8-4.8-3.9-7-6.1c-0.3-0.3-1.2-0.3-1.7-0.2c-0.6,0.1-1.1,0.5-1,1.3c1.3,1,2.9,1.2,4.3,1.3c2.1,1.5,3.5,3.2,2.5,6.1
		C288.9,52.9,288.1,53.5,287.1,54.3z M460.2,219.5c-0.7-0.2-1.3-0.3-1.9-0.4c-1-0.2-2-0.1-2.9-0.5c-1.1-0.5-2.1-0.6-3.2-0.5
		c-8,0.6-15.8-1-23.5-3c-4.4-1.1-8.5-3.1-11.8-6.4c-0.3-0.3-0.8-0.5-1.2-0.7c-2.8,1.7-5.9,2.7-8.4,4.9c0,2.4,0.2,4.7,0,7
		c-0.5,5.2-1.1,10.5-1.7,15.7c-0.6,5.1-1.7,10.2-3.8,14.9c-1.3,2.8-1,5.5-0.3,8.2c0.4,1.6,1.3,2.8,2.8,3.7c2.6,1.6,5.1,3.4,7.6,5.1
		c1.1,0.8,2.3,1.4,3.7,1.2c1.3-0.1,2.7-0.4,4-0.5c2.3-0.2,4.6-0.5,6.9-0.6c0.8-0.1,1.6,0.1,2.4,0.1c0.6-1,1.2-1.8,1.7-2.6
		c2.9-4.2,6.2-8,10.4-10.7c2.6-1.7,4.4-3.8,5.8-6.4c0.7-1.2,1.3-2.4,2-3.5c1.3-2.1,2.7-4.1,3.9-6.2c0.6-1,1.2-2.1,1.6-3.3
		c1.6-4.7,3.3-9.5,5.4-14C460,220.6,460,220.2,460.2,219.5z M262.2,260.9c-0.7-4.2-0.6-7.8-2.8-11c-1.9-2.8-3.4-6-5-9
		c-2.4-4.4-4.8-8.8-7-13.3c-1.2-2.3-2.6-4.3-4.9-5.7c-1.3-0.8-2.4-2.1-3.6-3.1c-1.2-1-2.4-2-3.6-3.1c-2.1-1.9-4.2-3.7-6.3-5.6
		c-1-0.9-1.7-2.1-2.5-2.4c-2.7-0.1-4.9-0.2-7.3-0.3c-4.7,3.9-10.7,5.7-16.4,7.7c-0.1,0.4-0.2,0.5-0.1,0.6c2.1,4.1,3.6,8.3,4.4,12.8
		c0.1,0.7,0.5,1.4,1,1.9c3.6,3.5,6.7,7.5,10.7,10.5c0.8,0.6,1.7,1.2,2,2c0.5,1.4,1.5,2.2,2.4,3.1c2,2.1,4.1,4.2,6.1,6.3
		c0.9,1,1.7,2.1,2.4,3.2c3.8,5.4,4,6,11,6.3c0.2,0,0.5,0,0.7,0c3.2-0.2,6.3-0.3,9.5-0.6c1.2-0.1,2.4,0.5,3.6-0.3
		C258.1,259.8,259.9,260,262.2,260.9z M271.4,87.9c0.3,1.8,1.3,3.1,2.3,4.5c1.6,2.2,3.1,4.4,3.3,7.2c0,0.3,0.4,0.6,1,1.3
		c-0.4-3.7-1.1-6.7-1.5-9.9c-2.3-1.2-2.8-3.2-1.8-5.5c0.2-0.4,0.5-0.8-0.1-1.1C273.6,85.6,272.6,86.6,271.4,87.9z M352.5,92.9
		c0.3-0.2,0.6-0.2,0.7-0.4c0.9-1.6,0.2-3.3,0.3-5c0.1-0.9,0.1-2-1-2.7c-1,0.9-1.6,2-2,3.4C351.3,89.8,351.9,91.4,352.5,92.9z
		 M347.4,98.9c0.8,2.3,0.8,2.3,2.2,3.3c0.3-1,0.5-1.9,0.8-2.8c0.3-0.8,0.7-1.6,1-2.4c0.3-0.8,1.1-1.6,0.8-2.6
		c-1.9-0.3-1.4,1.9-2.5,2.2c-0.5-0.2-0.9-0.3-1.4-0.5C347.8,97.1,347.6,98,347.4,98.9z M276.7,80.7c1.3-2.5-0.2-3.4-1-4.7
		c-1.1,0.4-1.5,1.1-1,2C275.1,78.8,275.8,79.5,276.7,80.7z M350.7,78.8c-1.4,1.4-1.8,2.7-1.1,4.3C351.9,81.1,351.9,81.1,350.7,78.8z
		 M325.3,38c-1.1,1.1-1.9,1.9-2.8,2.9c3.2-0.6,3.5-0.7,3.9-1.7C326.1,38.9,325.8,38.6,325.3,38z M326.9,29.1c-0.7,1.2-0.6,2,0.4,2.7
		c0.1,0.1,0.4,0,0.6-0.1C328,30.8,327.9,30,326.9,29.1z M322.8,27.6c1.6,1.4,1.6,1.4,2.9,0.1C324.4,27.1,324.4,27.1,322.8,27.6z
		 M346.2,70.5c-0.7,1.4-0.4,2.3,0.5,3.1C347.3,72.5,347.1,71.7,346.2,70.5z M332.6,33.2c0.6-1.4,0.2-2.1-0.7-2.6
		c0,0.4-0.2,0.7-0.1,1C332,32.1,332.3,32.4,332.6,33.2z M271.8,83.7c1.1-0.5,1.4-1.3,1-2.5C271.8,81.8,271.4,82.5,271.8,83.7z
		 M320.2,39.8c-0.3,0.3-0.5,0.5-0.6,0.8c-0.1,0.4,0.4,0.8,0.9,0.6c0.2-0.1,0.5-0.5,0.5-0.7C320.9,40.2,320.5,40.1,320.2,39.8z
		 M344.4,55.7c0.1-0.1,0.2-0.2,0.2-0.3c-0.2-0.5-0.4-1.1-0.6-1.6c0,0-0.5,0-0.6,0.2c-0.4,0.6,0,1.1,0.4,1.5
		C343.9,55.7,344.1,55.7,344.4,55.7z M341.8,46.9c-0.6-1.1-0.6-1.1-1.5-1.2C340.7,47.1,340.7,47.1,341.8,46.9z M298.7,40.2
		c0-0.1,0-0.3-0.1-0.3c-0.3-0.3-0.7-0.5-1.1-0.7c0,0-0.3,0.3-0.4,0.4c0.3,0.3,0.6,0.6,1,0.9C298.2,40.5,298.5,40.3,298.7,40.2z
		 M280.5,54.4c-0.2-0.4-0.3-0.7-0.5-0.8c-0.3-0.2-0.9,0.4-0.9,0.9c0,0.2,0.3,0.5,0.3,0.5C279.8,54.9,280.1,54.6,280.5,54.4z
		 M290.9,32.1c0.2-0.3,0.5-0.5,0.6-0.8c0.1-0.3,0.1-0.6,0.3-1.4C290.9,30.7,290.3,31.1,290.9,32.1z M278.1,75.2
		c0.3,0.1,0.6,0.3,0.8,0.4c0.1,0,0.4-0.5,0.3-0.5c-0.2-0.2-0.5-0.4-0.8-0.6C278.4,74.7,278.3,74.9,278.1,75.2z M318.8,34.4
		c-0.4-0.4-0.6-0.6-0.9-0.8c-0.1,0-0.4,0.2-0.5,0.4c0,0.2,0.1,0.5,0.2,0.5C317.9,34.6,318.2,34.5,318.8,34.4z M328,43.4
		c-0.1,0.1-0.3,0.3-0.4,0.4c0.1,0.1,0.2,0.2,0.2,0.2c0.2-0.1,0.3-0.2,0.5-0.3C328.2,43.6,328.1,43.5,328,43.4z M317.6,28.6
		c-0.1-0.2-0.2-0.5-0.4-0.5c-0.1-0.1-0.4,0.1-0.6,0.2c0.1,0.2,0.2,0.5,0.4,0.5C317.1,28.8,317.3,28.6,317.6,28.6z M294.9,39
		c-0.2-0.1-0.4-0.2-0.5-0.2c-0.2,0.1-0.2,0.4-0.3,0.6c0.2,0.1,0.5,0.3,0.6,0.2C294.8,39.5,294.8,39.2,294.9,39z M315,33.9
		c0,0.1-0.1,0.2-0.1,0.3c0.1,0,0.2,0,0.4,0c0-0.1,0-0.2-0.1-0.3C315.2,33.9,315.1,33.9,315,33.9z M295.4,44.1
		c0.1-0.1,0.1-0.1,0.2-0.2c-0.1-0.1-0.1-0.2-0.2-0.2c-0.1,0-0.2,0.1-0.2,0.2C295.2,43.9,295.3,44,295.4,44.1z"/>
	<path d="M465.3,359.9c4.2,0,8.3,0.9,12.3,1.7c8.5,1.7,17,3.6,25.4,5.5c0.2,0,0.5-0.1,0.7-0.1c0.5-0.5,0-0.9-0.2-1.2
		c-1.2-1.5-2.5-3-3.7-4.5c-1.7-2.1-3.4-4.1-5-6.3c-1.8-2.5-3.7-4.8-6.1-6.8c-2.1-1.7-3.9-3.7-5.8-5.6c-0.5-0.5-1.2-1.2-1.2-1.8
		c-0.1-1.9-1.2-3.3-2.4-5.2c0.8,0.2,1.2,0.2,1.4,0.4c1.6,1.7,3.1,3.5,4.7,5.2c1.2,1.3,2.4,2.7,3.8,3.9c2.2,1.9,4.6,3.7,6.8,5.6
		c1.4,1.2,3.3,2.2,3.2,4.6c0,0.5,0.6,1,1.1,1.4c2.2,2.3,4.5,4.5,6.7,6.8c2.6,2.6,4.8,5.6,6.4,8.9c0.6,1.2,1.4,2.3,2.2,3.3
		c3.5,4.6,7,9.1,10.5,13.7c0.8,1.1,1.7,2.2,1.2,3.6c0.8,0.7,1.8,1.3,2.1,2.1c0.5,1.1,1.4,1.6,2.4,2.1c3.8,1.9,7.6,3.8,11.5,5.7
		c1.1,0.5,2.2,1.1,3.3,1.6c2.4,0.9,4.2,2.5,5.7,4.4c1.8,2.2,3.6,4.3,5.4,6.5c1.9,2.4,4.2,3.7,7.4,4.1c3.9,0.4,7.6,1.8,11.5,2.4
		c4.8,0.8,9.6,1.9,14.3,3.1c1.1,0.3,2.1,0.5,3.2,0.9c0.7,0.3,1.6,0.6,1.8,1.1c0.8,1.7,2.3,2.1,3.7,2.6c8.1,3.2,15.1,8.1,21.4,14
		c3.8,3.5,7.8,6.7,11.7,10c4.3,3.6,8.4,7.5,12.2,11.6c5.1,5.5,10.2,10.9,15.5,16.2c5.4,5.4,10.9,10.5,17,15c0.8,0.6,1.3,1.4,2,2.1
		c1.8,2.1,3.8,4.1,5.8,6.1c0.1,0.1,0.2,0.2,0.3,0.2c3.5,0.7,5.9,3.3,8.8,5c1.5,0.9,3.2,1.1,4.7,1.8c0.5,0.2,1.2,0,1.8-0.1
		c1.2-0.3,2.4-0.6,3.6-0.9c0.6-0.1,1.2-0.3,1.8-0.1c2.5,0.7,5.1,0.5,7.7,0.6c2.4,0.1,2.9,0.5,3.5,2.9c0.6,2.5,1.1,5,1.6,7.5
		c0.4,1.5,0.8,3.1,1.2,4.6c0.4,1.3,1.2,2.4,2.1,3.4c2.3,2.5,4.5,5.1,6.8,7.7c0.7,0.8,1.5,1.6,2.3,2.3c2.9,2.3,5.8,4.5,8.7,6.7
		c0.2,0.1,0.4,0.4,0.6,0.4c2.9,0.7,4.3,3.1,5.9,5.3c1.5,2.1,3,4.2,4.5,6.3c0.4,0.6,0.9,1.3,1,1.9c0.2,1.8,1.2,3.2,2.4,4.4
		c0.7,0.7,1.4,1.5,1.1,2.6c-0.3,1.1,0.3,1.9,0.9,2.7c0.7,1,1.5,1.9,2.2,2.9c0.6,0.9,0.4,1.6-0.3,2.3c0,0.2,0,0.5,0.1,0.6
		c0.6,0.7,1,1.4,0.7,2.3c-0.3,1.1-1.3,1.4-2.2,1.7c-2.7,0.6-5.5,1.1-8.3,1.6c-3.6,0.6-7.2,1.1-10.8,1.7c-0.7,0.1-1.4,0.4-2.1,0.6
		c-3.1,1.3-6.3,1.8-9.7,1.7c-1.9-0.1-3.9-0.3-5.8,0.6c-6,0-12,0.9-17.7-1.9c-0.3-0.2-0.7-0.3-1-0.3c-0.8,0-1.8,0.3-2.3-0.7
		c-0.5-0.9,0.1-1.7,0.2-2.5c0.1-0.7,0.2-1.4,0.3-2.3c-5.1-1.5-9.8-3.9-14.5-6.4c0-0.8-0.2-1.5-0.1-2.2c0.2-2.4,0.4-4.9,0.6-7.3
		c0.1-1.4,0.2-2.9-0.7-4.2c-0.4-0.7-0.3-1.7-0.5-2.5c-0.4-1.8-0.7-3.6-1.4-5.3c-1.3-3-2.8-6-4.3-8.9c-0.4-0.8-0.8-1.5-0.4-2.4
		c0.1-0.2,0-0.7-0.2-0.9c-0.9-1.5-1.7-2.9-2.7-4.5c0.2-0.5,0.4-1,0.6-1.6c-1.2-1.8-2.4-3.7-3.7-5.7c-0.7-0.1-1.5-0.1-2.3-0.4
		c-0.8-0.3-1.5-0.8-2.2-1.2c-5-3-10.1-6-15.1-9c-2.1-1.2-4.2-2.5-6.8-2.7c-0.5,0-0.9-0.3-1.4-0.5c-5.8-2.6-11.9-4.5-17.9-6.5
		c-6-2-12-4.2-17.7-7.1c-1.4-0.7-2.9-1.3-4.4-1.7c-6.9-1.5-13.2-4.5-19.3-7.9c-3.4-1.9-6.8-3.9-9.8-6.5c-0.8-0.7-1.7-1.3-2.9-1.5
		c-1.4-0.2-2.5-1-3.5-1.9c-1.5-1.4-3.1-2.8-4.5-4.3c-4-4.4-8-8.9-12-13.3c-0.7-0.8-1.5-1.6-2.2-2.4c-1.7-1.7-3.7-2.8-6-3.4
		c-1.9-0.4-3.8-0.8-5.9-1.3c-1.4,1.1-3,1-4.8,0.6c-6.1-1.5-12-3.2-17.6-6.2c-1.5-0.8-3-1.6-4.6-2.2c-4.7-1.8-8.5-4.8-11.7-8.6
		c-1.1-1.4-2.3-1.8-4.1-1.8c-1.5,0.1-3.1-0.5-4.6-1c-2.9-1-5.7-2.2-8.6-3.3c-0.9-0.4-1.8-0.7-2.7-1c-0.3,0-0.6,0-0.8,0.1
		c-7.2,3.4-14.9,4.6-22.7,5.5c-4.5,0.5-9,0.7-13.5,0.8c-3.5,0-6.8,0.7-9.8,2.4c-2.6,1.5-5.4,2.9-8.1,4.4c-2.1,1.1-4.3,2.1-6.5,3.2
		c0.3,0.2,0.7,0.4,1.2,0.7c-0.6,0.5-0.8,0.8-1.1,0.9c-2.7,1-5.5,1.1-8.3,0.9c-2.8-0.2-4.7-1.8-6.1-4.2c-0.6-1.1-1-2.2-1.5-3.3
		c-1.4-3.4-3.4-6.5-5.4-9.6c-0.5-0.9-1.2-1.1-2.2-1.1c-3.3-8.3-7.2-16.3-11.8-24c-3.2-5.3-6.5-10.6-9.7-16c-3-5.2-6.4-10.1-9.9-15
		c-1.4-2-3.2-3.3-5.5-3.9c-3.7-1-7.2-2.4-11-2.6c-1.1-0.1-2.1-0.5-3.3-0.7c-5.4,2.3-10,5.9-13.5,10.8c-6.7,9.5-14.4,18.2-22.4,26.7
		c-3.9,4.2-7.6,8.6-11.4,12.9c-0.6,0.6-1.1,1.3-1.6,2c-1.7,2.4-3.6,4.7-4.1,7.7c-3.4,0.5-6.4-0.9-9.4-1.4c-3.1-0.6-6.1-1.6-9.2-2.4
		c-0.7,0.4-0.3,1-0.2,1.6c0.5,3.1,1.3,6.2,1.6,9.4c0.4,4.9-0.5,9.7-1.8,14.4c-1.7,6.2-3.6,12.4-5.6,18.6c-1.9,6-2.4,12.1-1.5,18.4
		c0.5,4.1,0.6,8.3,0.7,12.4c0,3.5-0.4,7.1-0.5,10.6c0,1,0.1,1.9,0.3,2.9c0.8,3.7,2.1,7.2,3.9,10.9c0.5-0.1,1.1-0.3,1.6-0.4
		c0.9-0.2,1.7,0,2.4,0.7c0.5,0.4,0.9,0.8,1.2,1.3c2,3.5,3.8,7.1,3.1,11.4c-0.4,2.3-0.7,4.6-1,6.9c-0.2,1.6-0.6,3.1-0.5,4.7
		c0,1.8-0.5,3.1-2.2,3.6c-0.4,2-0.1,3.8,0.3,5.6c0.1,0.5,0.3,0.9,0.4,1.4c1.4,4.7,1.4,4.7,0.9,9.5c0.8,1.2,1.7,2.5,2.5,3.7
		c-0.3,2.6-2.4,3-4,3.9c0.2,1.9,0.5,3.7,0.6,5.5c0.1,1.5-0.6,2.4-2.1,2.6c-2.1,0.3-4.1,0.3-6.2,0.4c-1.5,0-2.9-0.1-4.4,0.3
		c-0.9,0.3-1.9,0.2-2.9,0.2c-4.3,0.2-8.5,0.5-12.8,0.6c-5.1,0.1-10.3,0.4-15.4-0.3c-4.1-0.5-8.3-0.9-12.4-1.2
		c-0.6-0.1-1.2,0.1-1.7,0.3c-2.7,0.8-3,0.8-4.7-1.5c0.2-2.1,0.4-4,0.6-5.9c0.2-2.1,0.5-4.1,0.7-6.2c0.3-2.5,0.9-5.1,0.2-7.6
		c-0.3-1.2,0.3-2.1,0.9-3.1c1.8-2.6,3.6-5.3,5.4-7.9c1.1-1.6,2-3.3,2.8-5.1c0.9-2.1,2-4.2,3.1-6.2c0.7-1.3,1.3-2.6,1.6-4.1
		c0-0.2,0.1-0.5,0.1-0.7c1.5-3.9,1.7-8.1,2.3-12.2c0.3-2.2,0.9-4.3,1.6-6.4c1-3.1,1.8-3.7,4.9-4.9c-0.8-2.3-1.7-4.6-2.4-6.9
		c-1.6-4.8-2.9-9.6-4.7-14.3c-3.7-9.6-6.7-19.4-10-29.1c-0.4-1.3-0.9-2.6-1.5-3.7c-3.2-5.7-5.1-11.9-6.2-18.3c-0.7-4-1.2-8-1.7-12
		c-0.3-2.2-0.5-4.4-0.8-6.6c-1.1-6.5-0.5-12.9,1.6-19.2c0.6-1.9,1.3-3.7,1.9-5.6c0.4-1.3,0.8-2.6,1-3.9c0.2-1.3,0.3-2.6,1.3-3.7
		c0.4-0.4,0.4-1.1,0.5-1.7c0.6-4,1.2-8,1.8-12c0.1-1,0.1-1.9-0.3-2.9c-0.9-2.7-0.9-5.5-0.6-8.3c0.4-3.3,1-6.5,2-9.6
		c0.5-1.7,1.5-3.3,2.5-4.9c1.7-2.7,3.2-5.4,4.5-8.4c0.2-0.5,0.2-1.2,0.3-1.8c0.2-0.1,0.4-0.3,0.5-0.4c0.1-0.2-0.1-0.4-0.1-0.6
		c-0.1,0.1-0.3,0.3-0.3,0.4c0,0.2,0,0.4,0.1,0.7c-0.5-0.6-0.8-1.2-0.6-2c2.2-9.7,6.4-18.2,14.5-24.4c2-1.5,3.9-3.3,6.3-4.4
		c0.7-0.3,1.3-1.1,1.9-1.7c0.4-0.3,0.8-0.5,1.3-0.6c0.3-0.1,0.8,0.1,0.9,0.3c0.2,0.2,0.3,0.8,0.1,1c-1,1.2-1.8,2.8-3.1,3.5
		c-3.2,1.8-5.2,4.8-8.5,7.3c2.1,0.1,3.3-0.7,4.6-1c1.4-0.3,2.5-1,3.1-2.3c3.2,0,6.3-0.9,10.2-0.7c-2.7,1.5-5,2-7.3,2.1
		c-1.9,0.1-3.5,0.5-5.1,1.6c-2.5,1.7-5.3,3.1-7.9,4.6c-1.4,0.8-2.6,1.8-3.5,3.2c-1.6,2.6-3.2,5.2-5,8.1c0.8-0.1,1.4,0.1,1.6-0.1
		c1.9-1.6,4.5-2.4,6-4.7c0.3-0.5,1.3-0.7,1.9-0.9c2.3-0.5,4.5-0.9,6.8-1.5c3.2-0.9,6.5-0.9,9.8-0.7c1.6,0.1,3.4,0.2,4.7,1.5l0.1-0.1
		c-4.3-0.1-8.5,0.1-12.8,0.7c-3.6,0.5-6.9,1.5-9.9,3.6c-1.9,1.3-3.8,2.6-5.8,3.9c-1.3,0.8-1.6,2-1.4,3.6c3.6-1.3,6.6-4,10.6-3.5
		c-0.1,1-0.8,1.1-1.3,1.3c-2.9,1.4-5.7,2.8-8.6,4.2c-1.6,0.8-2.7,1.9-3.4,3.7c-0.5,1.2-1.3,2.3-2.1,3.4c-1.1,1.6-1.1,2,0.3,3.8
		c0.2,0.3,0.4,0.6,0.7,1c-0.8,2.2-2.3,4-3.9,5.6c-1.3,1.3-1.9,2.8-2.1,4.5c-0.2,2.8-0.5,5.6-0.8,8.6c1.2,1.2,1.4,2.8,1.1,4.6
		c-0.9,5.4-1.6,10.9-2.5,16.3c-0.2,1.2-0.5,2.4-1.1,3.5c-2.3,4.5-3.2,9.5-4.1,14.4c-0.3,1.4-0.4,2.9-0.5,4.4
		c-0.1,1.1-0.1,2.1,0.2,3.2c0.4,1.1,0.3,2.4,0.4,3.6c0.5,8.9,1.8,17.8,4.3,26.4c0.4,1.5,0.7,3.1,2.4,3.9c0.3,0.2,0.5,0.8,0.7,1.2
		c3.3,10.6,7.8,20.8,11.8,31.2c1.2,3.1,2.6,6.1,2.6,9.5c0,0.5,0.2,1,0.4,1.4c2.5,5.7,4.9,11.4,7.4,17.2c1.2,0.7,2.6,0.3,3.9,0.4
		c2.6,0.2,5.1,0.3,7.7,0.5c0.6,0,1.2,0.2,1.8,0.3c1.7,0.5,2.7,1.6,2.9,3.4c0.1,1.3,0,2.7,0,4.2c0.6,0.1,1.2,0.3,1.8,0.3
		c1.5,0.2,2.9,0.3,4.6,0.4c0.1-0.5,0.2-1.1,0.2-1.6c-0.1-1.3-0.4-2.6-0.6-4.1c-0.7,0.4-1.3,0.7-1.9,1c-1.4-1.3-1.4-2.9-1.7-4.4
		c-1.8-8.5-1.9-10.1-1-13.9c1.9,1.3,1.9,3.7,3.4,5.4c0.2-0.6,0.4-0.8,0.4-1.1c0.2-2.9,0.4-5.9,0.4-8.8c0-1.6-0.2-3.2-0.4-4.7
		c-0.9-6.7-1-13.5,0.5-20.1c1.8-7.5,3.5-15,6-22.3c0.6-1.8,1.1-3.8,1.5-5.7c0.6-3.1,0.5-6.2-0.8-9.3c-2.1-5.1-3-10.6-4-16
		c-1.4-7.1-2.3-14.2-3-21.4c-0.2-1.8-0.5-3.6-0.7-5.3c0.9-1.5,2.3-2.2,3.4-3c1.1-0.8,2.2-1.5,3.3-2.3c1.2-0.9,2.4-1.7,3.6-2.6
		c1.1-0.8,2.2-1.5,3.4-2.1c1.2-0.6,2.6-1.1,4.5-1.8c-0.8,1-1.1,1.7-1.6,2c-2,0.9-3.2,2.6-4.7,3.9c-1.1,1-2.2,1.9-3.2,2.9
		c0.1,0.3,0,0.4,0.1,0.5c0.1,0.1,0.2,0.2,0.3,0.2c3.4,0,6.9,0.1,10.3-0.2c3.3-0.3,6.5-1.1,9.7-1.8c0.3-0.1,0.6-0.3,1.1-0.6
		c-1.1-2.7-2.2-5.4-3.4-8.6c-0.3,0.9-0.5,1.4-0.8,2c-0.1-0.1-0.2-0.1-0.2-0.2c-0.8-3.3-1.5-6.7-2.3-10c-1-4.3-1.9-8.6-3-12.8
		c-0.8-2.9-2-5.7-3.1-8.6c-0.5-1.4-1.5-2.3-3-3c-2.6-1.1-5-2.5-7.4-4c-4.2-2.5-8.8-4.3-13.4-5.9c-2-0.7-3.8-0.8-5.7,0
		c-1.8,0.8-3.5,1.7-5.3,2.5c-1.3,0.6-2.7,1.2-4,1.8c-0.4,0.2-0.9,0-1.3,0c-0.4-0.8,0-1.3,0.5-1.6c3.7-2.3,7.5-4.5,11.7-5.9
		c1.6-0.5,3.1-0.6,4.7-0.2c2,0.4,4.1,0.9,6.1,1.3c3.9,0.9,7.4,2.5,10.4,5.1c0.6,0.5,1.3,1.1,2.1,1.4c2.2,0.7,3.7,2.3,5,4.1
		c2,2.7,3.2,5.7,4.3,8.9c1.9,5.5,2.9,11.1,3.6,16.8c0.2,1.4,0.6,2.5,1.2,3.8c1.2,2.4,2.2,4.9,3.3,7.4c0.5,1.1,0.7,2.4,1.9,3.2
		c1.9-2.7,4.3-4.9,6.9-6.9c0.8-0.6,1.6-1.2,2.4-1.6c0.4-0.2,0.9-0.1,1.4-0.2l-0.1-0.1c-2.8,2.6-5.2,5.5-7.2,8.7
		c-1.8,2.8-2.1,5.6-1.4,8.7c0.3,1.5,0.7,3.1,1,4.7c0.4,2.3,0.4,4.7-0.3,6.9c-1.3,3.7-1.6,7.6-2.6,11.4c-0.1,0.6-0.2,1.2-0.4,2.3
		c0.8-0.8,1.2-1.2,1.6-1.6c2.5-3,4.9-6.1,7.5-9c8.5-9,16.5-18.4,24.6-27.7c1.8-2,3.5-4.1,5.2-6.1c2.9-3.4,6.6-5.7,10.5-7.9
		c0.9,0.6,1.7,1.1,2.6,1.7c4.4-0.5,8.5,1,12.6,2.6c0.9-0.6,0.1-1,0-1.5c-0.1-0.5,0-1.1,0-1.9c0.7,0.3,1.2,0.3,1.5,0.6
		c0.9,1,1.9,1.9,2.6,3c2.6,3.9,5.6,7.4,9.1,10.4c0.5,0.4,0.8,0.9,1.3,1.3l0.1-0.1c-0.6,0.1-1.1,0.2-1.7,0.3c0-0.2,0-0.3,0-0.5
		c0,0,0,0.1,0,0.1c0,0.1,0.1,0.2,0.2,0.2c0.8,1.1,1.5,2.2,2.3,3.3c4.3,5.7,7.9,11.8,11,18.1c2.6,5.3,5.1,10.6,7.6,15.9
		c0.8,1.8,1.4,3.6,2,5.2c1,0.8,1.8,1.3,2.4,2.1c3.1,4.4,6.2,8.8,9.2,13.2c1.2,1.8,2.2,3.8,3.5,6c1.1,0.2,2.5,0.5,4,0.7
		c1,0.1,2,0.3,2.5-0.9c0.1-0.2,0.4-0.3,0.6-0.4c2.4-0.4,4.2-1.9,6.2-3.1c5.5-3.3,11.1-6.2,17.4-7.4c0.7-0.1,1.3-0.6,2-0.9
		c0.8-0.4,1.5-0.8,1.7-0.9c1.8,0.1,3,0.3,4.1,0.1c4.1-0.6,8.2-1.2,12.3-1.9c3.6-0.6,7.2-1.1,10.9-1.7c0.7-0.1,1.4-0.4,2-0.6
		c0.1-0.2,0.2-0.3,0.2-0.4c0-0.1-0.1-0.2-0.2-0.3c-2.9-1.5-5.9-2.9-9-4.5c-1.1,0.6-2.1,1.1-3.2,1.6c-1,0.5-2,0.9-3,1.2
		c-0.4,0.1-1-0.1-1.1-0.7c0.1-0.2,0.1-0.5,0.3-0.6c7.8-4.4,15.5-8.8,23.3-13.2c9.6-5.3,19.8-8.8,30.3-11.8c0.8-0.2,1.7-0.4,2.5-0.7
		c0.4-0.1,1-0.3,1.2-0.7c1.5-2.6,4.2-3.2,6.7-4.1c1.1-0.4,2.5-0.2,3.3-1.4c-2.7-4.2-5.5-8.3-8.2-12.5c-0.5-0.7-0.9-1.4-1.9-1.4
		c-0.4,0-0.9-0.7-1.3-1.2c-1.5-2.1-3-4.2-4.5-6.3c-0.9-1.3-1.8-2.6-2.8-4c-2.4-0.5-4.8-0.9-7.2-1.4c-10.7-2-21.3-4.1-31.9-6.8
		C466,360.4,465.7,360,465.3,359.9L465.3,359.9z M684.7,531.6c-1.8,0.9-3.1,2.3-4.3,4c0.3,0.4,0.6,0.8,1.1,1.3
		c1.1-1.7,2.1-3.2,3.1-4.7C684.7,532.1,684.6,531.8,684.7,531.6c0-0.1,0.2,0,0.3-0.1c0.1,0,0.1-0.1,0.1-0.2
		C684.9,531.4,684.8,531.5,684.7,531.6z M231.1,537.5c0.5,0,1,0,1.5-0.1c4.4-1.5,8.9-1.3,13.4-0.6c2.4,0.4,4.8,1.1,6.8,2.5
		c0.9,0.6,1.6,1.5,2.2,2.3c0.6,0.8,0.3,1.3-0.9,2.2c-1.7-0.6-3.3-1.4-4.9-1.6c-4-0.6-8-0.5-12.1-0.1c-0.8,0.1-1.8,0.1-2.3,1.3
		c0.9,0,1.8-0.1,2.6,0c2.7,0.2,5.4,0.4,8,0.8c2.1,0.3,4,1,5.8,2.1c0.7,0.4,1.2,0.9,1,1.7c-0.2,0.8-0.9,1.1-1.7,1.2
		c-1,0.1-1.9,0.2-2.9,0.2c-1.8,0-3.7-0.1-5.5-0.1c-0.8,0-1.5,0.1-2.3,0.2c0.8,0.4,1.7,0.4,2.5,0.6c1.6,0.4,3.3,0.9,4.9,1.5
		c0.7,0.2,1.2,0.9,1,1.8c-0.9,1.3-2.3,1.6-3.8,1.9c-4.5,0.9-9,0-13.5,0.2c-2.1,0.1-3.2-2.6-1.9-4.4c0.5-0.6,1.2-1.1,2-1.8
		c-2-1.4-1.8-3.1-0.7-4.9c0.1-0.1-0.1-0.4-0.2-0.7c-0.4-0.2-0.8-0.3-1.4-0.6c-1.2,1.4-1.8,2.9-2.4,4.5c-0.9,2.4-1.9,4.8-2.9,7.1
		c-0.4,0.9-1.1,1.6-1.8,2.3c-1.9,2.1-3.7,4.2-3.5,7.3c0.1,0.7-0.3,1.4-0.5,2.1c-0.3,1.2-0.4,2.3-0.1,3.6c0.4,2.2,0.9,4.6-0.4,6.8
		c-0.2,0.4,0.1,1.2,0.2,1.7c0.1,1.3,0.1,1.3-1.4,1.7c-0.9,0.3-1.1,0.8-0.8,1.7c0.8,0.5,1.6,1.1,2.4,1.6c0.4,0.2,0.9,0.3,1.4,0.3
		c3.1,0.1,6.1,0.4,9.2,0.2c8.3-0.4,16.6-1,24.9-1.6c0.3,0,0.6-0.2,1.2-0.3c-1.2-1.3-2.5-1.8-3.8-2.4c-3.7-1.6-7.5-3-11.2-4.6
		c-1.3-0.6-2.5-0.8-3.9-0.7c-2.1,0.1-4.2,0.6-5.9,1.7c-2.3,1.4-4.4,3.1-6.6,4.6c-1.1,0.8-2.1,1.6-3.3,2.2c-0.8,0.4-1.4,0-1.7-1.1
		c0.3-0.4,0.7-0.9,1.1-1.2c2.3-1.6,4.6-3.2,6.9-4.8c4.1-2.9,8.6-3.6,13.3-2.4c6.6,1.6,13.1,4,18.1,9c1.9,0.2,3.9-0.2,5.8,0.6
		c0.4,0.2,1,0.1,1.4,0c1.7-0.5,3.4-1,5.2-1.6c0.2-3.1-0.3-5.9-1-8.8c-0.8-3-1.4-5.9-2.1-8.9c-0.1-0.2,0.2-0.5,0.6-1.5
		c1.6,4.6,2,9.1,5.1,12.5c0.4-0.2,0.7-0.4,1.1-0.6c-0.3-0.8-0.7-1.6-0.8-2.4c-0.1-1,0.1-1.9,0.1-2.9c0-0.5,0-1-0.1-1.5
		c-0.3-1.8-0.7-3.6-1-5.4c-0.6-3.1-0.5-6.1,0.5-9c0.2-0.7,0.5-1.4,0.5-2.1c-0.1-2.6,0.6-5.1,1.1-7.6c0.3-1.8,0.6-3.6,0.8-5.4
		c0.1-0.6,0.2-1.3,0-1.8c-0.8-2.3-1.7-4.5-2.7-7.1c-1.1,1.2-2.2,2.1-2.2,3.6c0,1.1-0.5,1.9-1.3,2.5c-1.1,0.7-2.1,1.6-3,2.6
		c-0.7,0.8-1.7,0.9-2.6,0.1c-0.7-0.6-1.5-1.3-2-2.1c-1.5-2.1-2.7-4.4-4.3-6.4c-1.4-1.6-1.8-3.3-1.9-5.3c0-1.1,0.2-2.2-0.6-3.2
		c-0.2-0.1-0.5-0.2-0.7-0.2c-5.9,0.1-11.7,0.1-17.6,0.3c-0.5,0-0.9,0.2-1.4,0.3c-0.7,3.1-1.5,6-0.7,9.1c0.5,0,0.9,0,1.2-0.1
		c5.1-1.2,10.2-1,15.2,0.3c3,0.8,5.6,2.3,7.7,4.7c0.9,1.1,1.5,2.2,1.3,3.7c-0.1,0.7-0.4,1.1-1.2,0.8c-1.6-3-2.8-4.1-5.5-4.9
		c-0.3-0.1-0.7-0.1-1.1-0.2c-4.1-1-8.3-1-12.4-0.5c-2.9,0.3-5.7,1.2-7.7,3.6c-0.3-0.1-0.6-0.3-1-0.4c-0.1,0-0.2,0.1-0.2,0.2
		c0,0.2,0,0.5,0.1,0.6C230.6,538.1,231,538.2,231.1,537.5z M656.9,509.5c1,0.7,1.9,1.4,3,2.3c0.7,0.2,1.7,0.3,2.6,0.6
		c3.7,1.5,6.6,4.1,9,7.3c0.4,0.5,0.7,1.1,0.8,1.6c0.2,1.7,1,2.9,2.2,4.1c0.4,0.4,0.9,0.9,1.1,1.4c0.8,2,2.4,3.3,4.1,4.6
		c2.5-2.7,5.2-4.9,8.2-6.8c1.5-1,2.8-2.4,4-3.4c0.1-1.5,0.1-2.7,0.3-3.9c0.2-1.3,0.7-2.5,1.1-3.9c-2.1-1.4-4-3-6.2-4
		c-2.3-1-4.1-2.6-5.6-4.5c-1.2-1.4-2.3-3-3.7-4c-3.8-2.5-6.9-5.8-10.1-9c-2.1-2.1-4.3-3.9-6.5-5.9c-2.7-2.5-5.6-4.8-8.1-7.4
		c-4.2-4.3-8.1-8.8-12.2-13.1c-3-3.2-6.1-6.3-9.2-9.5c-0.5-0.5-1.2-1.2-1.8-1.1c-1.5,0.2-2.3-0.8-3.2-1.5c-2.4-2.1-4.7-4.3-7-6.5
		c-9.8-9.1-21-15.9-34.2-19c-3.4-0.8-6.8-2-10.2-3c-4.3-1.3-8.6-2.6-12.9-3.9c-0.5,0.3-0.8,0.5-1.1,0.7c-1.5,0.9-2.1,0.9-3.2-0.1
		c-0.5-0.5-1.1-1-1.5-1.6c-1.8-2.2-3.5-4.4-5.3-6.6c-1.4-1.7-2.4-3.7-4.8-4.3c-0.4-0.1-0.8-0.5-1.2-0.9c-4.7-4.4-10.6-6.9-15.8-10.5
		c-1.4,0.4-2.7,1.2-4,0.4c-2.4-1.5-4.7-0.3-7,0.4c-0.4,0.1-1,0.5-1.1,0.8c-0.3,1.2-1.2,1.4-2.1,1.8c-4.8,2.1-9.6,4.3-14.5,6.1
		c-11,4.1-21.5,9.3-32.1,14.4c-0.6,0.3-1.4,0.3-1.5,1.2c0.2,0.2,0.4,0.4,0.6,0.5c0.3,0.2,0.7,0.3,1,0.4c10.6,2.7,20.8,6.3,30.5,11.2
		c0.6,0.3,1.2,0.8,1.6,1.4c2,2.4,4.4,4.2,7.3,5.3c2.3,0.9,4.5,2,6.7,3.1c1,0.5,2,1.1,2.6,1.9c0.7,1,1.6,1.5,2.7,1.7
		c3.5,0.9,7.1,1.7,10.7,2.6c1.8,0.4,3.7,0.5,5.3,1.3c2.2,1.1,4.4,1.5,6.7,1.7c2.6,0.3,5.2,0.9,7.2,2.5c2.9,2.3,6.1,4.4,8.3,7.7
		c0.7,1,1.5,1.9,2.3,2.8c2.8,3.5,6.2,6.3,9.8,8.8c2.4,1.7,4.7,3.5,7.1,5.2c1.2,0.9,2.3,1.8,3.5,2.6c4.6,2.9,9.4,5.6,14.5,7.8
		c3.7,1.6,7.5,3,11.1,4.7c7.3,3.3,14.8,5.8,22.5,7.6c9,2.1,17.3,6,25.6,9.8c0.6,0.2,1.1,0.6,1.6,0.9c3.8,1.9,7.6,3.9,11.5,5.8
		c0.6,0.3,1.4,0.3,2.1,0.5l0,0.2l-0.1-0.1c-2.3-3.4-5.8-5.5-9.3-7.6c-2-0.3-3.2-1.6-4.1-3.3L656.9,509.5z M699.2,514.3
		c-0.7,1.3-1.3,2.4-1.9,3.5c-1.7,3.3-2.8,6.9-5.8,9.6c-2.1,1.8-3.5,4.4-5.1,6.7c-1,1.4-1.8,2.9-2.5,4.4c-0.3,0.6-0.3,1.5-0.6,2.1
		c-0.3,0.5-1,0.9-1.6,1.4c1.1,1.7,2,3.3,3,4.8c0.3,0.5,0.9,1.1,0.9,1.6c-0.2,1.9,1.1,3.2,1.5,4.8c0.5,1.8,1.1,3.5,1.2,5.3
		c0.2,3.5,0.2,7.1,0.2,10.6c0,0.7,0.1,1.4,0.1,2c3,1,8.8,2.1,11.2,2.1c0.4-0.7,0.8-1.4,1.3-2.2c1.7,1.6,2.3,3.3,2,5.4
		c-0.2,1.1-0.4,2.2-0.6,3.2c-0.1,0.7-0.1,1.4-0.2,2.2c4.7,1.9,9.3,2.4,13.7,0.7c0.8-0.9,1.4-1.7,2.1-2.3c1-1,2.2-2,3.2-3
		c3.8-3.9,8.1-7,13.1-9.2c0.6-0.3,1.4-0.5,2.1-0.4c3,0.6,6,1.2,8.9,1.9c3,0.7,5.8,1.9,8,4.1c0.1,0.1,0.4,0.1,0.8,0.1
		c0.2-0.8,0.4-1.6,0.6-2.4c-0.7-1.3-1.2-2.6-1.9-3.7c-0.6-0.9-1.4-1.7-2-2.6c-0.4-0.6-0.9-1.2-1.2-1.8c-1.7-3.9-4.3-7.4-6.6-11
		c-0.5-0.8-1.2-1.5-1.8-2.1c-3.1,0.7-3.2,0.7-5-1.3c-2.7-3-5.5-5.9-8.1-9c-1.7-1.9-3.4-3.8-4.8-6c-1.1-1.9-2.6-3.5-4.3-4.4
		c-1.2,0.2-2,0.4-2.8,0.5c-2.6,0.1-5.1,0-7.7,0.2c-3.8,0.2-7.6,0.7-10.1,4.2c-0.1,0.1-0.2,0.2-0.3,0.2c-1,0.9-2.4,1-3.4,0.3
		c-1.1-0.8-1.5-2.2-1-3.6c0.5-1.4,1.5-2.5,2.7-3.4c2-1.5,4.2-2.5,6.6-3c4.3-0.9,8.5-0.6,12.7,0.5c0.6,0.2,1.1,0.6,1.8-0.1
		c-0.1-0.4,0-1-0.3-1.2c-1.9-1.9-2.4-4.4-2.8-7c-0.2-1.1-0.2-2.2-1-3c-3-0.8-5.9-1.4-9-0.4C703,514.4,701.2,514.2,699.2,514.3z
		 M288.6,428.2c1.8-6.8,3.7-13.3,5.4-19.9c0.7-2.8,1.2-5.7,0.7-8.6c-0.5-3-0.8-6-1.9-9.1c-4.1,1.5-8.1,3.1-12.4,3.2
		c-4.4,0.1-8.8,0.3-13-1.9c-0.9,0.6-1.7,1.2-2.7,1.9c1,4.9,2.1,9.7,3.1,14.4c1,4.8,1.8,9.6,3,13.9c1.1,0.3,2.1,0.2,2.6,0.7
		c0.9,0.8,1.9,1.1,2.9,1.4C280.4,425.3,284.6,426.2,288.6,428.2z M734.4,569.9c-3.8,1.8-7.2,4-10.1,6.9c-1.5,1.5-3,2.9-4.5,4.3
		c-0.3,0.3-0.9,0.5-0.5,1.1c2,0,4.1,0,6.1,0c3.1,0,6-0.7,8.9-1.9c0.9-0.4,1.8-0.7,2.8-0.9c4.3-0.9,8.6-1.7,12.9-2.6
		c0.8-0.2,1.5-0.5,2.7-0.9c-0.8-0.7-1.3-1.4-1.9-1.6c-2.1-0.8-4.3-1.7-6.5-2.2C741,571.2,737.8,570.6,734.4,569.9z M266.4,531.9
		c-0.6-1-1-1.6-1.4-2.2c-0.2-0.3-0.5-0.6-0.8-0.6c-1.6-0.2-3.3-0.2-5.2-0.4c1.1,2.4,2.5,4.1,4.7,5.4
		C264.5,533.4,265.3,532.8,266.4,531.9z"/>
	<path d="M466.7,355.3c-4.3,0.4-8.1-0.2-11.8-0.8c-12.8-2-25.5-4.2-38.3-6.4c-5.7-1-11.2-2.5-16.6-4.4c-2.3-0.8-4.6-1.6-6.9-2.4
		c-4.9-1.8-9.8-3.7-14.5-6.1c-2.2-1.1-4.4-2-6.8-3c0.4-0.6,1.2-0.8,1.9-0.7c1.2,0.2,2.4,0.5,3.6,0.8c3.2,1.1,6.5,2.1,9.7,3.4
		c6.2,2.6,12.7,4.3,19.3,5.7c11,2.3,22.1,4.2,33.1,6c7.2,1.2,14.4,2.7,21.3,5.1C462.7,353.2,464.5,354,466.7,355.3z"/>
	<path d="M328.8,351.7c-7.2-7.2-15.3-13.2-23.6-19.1c-6.3-4.4-12.5-8.9-18.8-13.4c-1-0.7-1.9-1.5-2.8-2.3c1-0.7,1.6-0.2,2.2,0.2
		c3,1.7,6,3.3,8.8,5.2c8.3,5.4,16.5,10.9,24.2,17.2c5.5,4.5,10.8,9.2,15.2,14.8c1.6,2,3,4.1,4.5,6.3c0.4,0.6,0.5,1.3,0.4,2.1
		c-0.6-0.6-1.2-1.3-1.9-1.8c-0.8-0.5-1.8-0.7-2.6-1.2c-12.3-9.5-25.9-17-39.3-24.8c-7-4.1-13.8-8.3-20.4-13
		c-1.1-0.8-2.1-1.6-3.2-2.5c-0.2-0.2-0.2-0.6-0.4-1.1c1.4,0.2,2.2,1,3.1,1.5c9,5.4,18,10.8,27.1,16.1c3.7,2.2,7.5,4,11.2,6.2
		c4.4,2.6,8.8,5.3,13.2,8C326.6,350.7,327.4,351.7,328.8,351.7l0.1,0.2L328.8,351.7z"/>
	<path d="M299.4,306.3c1.2,0.3,2.4,0.5,3.5,1c4.3,2,8.7,3.9,12.9,6.1c9.2,4.6,18.4,9.2,27.5,13.8c3.3,1.7,6.4,3.6,9.6,5.4
		c0.4,0.2,0.8,0.4,1.5,0.8c0.3-2.4-0.1-4.5-0.3-6.7c-0.2-1.6-0.2-3.2-0.1-4.7c0-0.5,0.5-1,0.8-1.7c1.8,5.3,2.5,13,1.5,17.2
		c-0.6,0.1-0.9-0.3-1-0.8c-0.2-1-1-1.4-1.8-1.7c-1.9-0.9-3.8-1.7-5.7-2.6c-5.2-2.4-10.5-4.7-15.7-7.1c-1.1-0.5-2.2-0.9-3.4-1.4
		l0.1,0.1c-0.3,0-0.6,0-0.9,0l0.1-0.1c-0.6-0.1-1.2,0.1-1.5-0.6l0.1-0.1l-0.1,0.2c-0.7-0.1-1.5-0.2-2.1-0.4
		c-10.7-4.5-21.3-9-31.2-15.1c-4.6-2.8-9-5.8-13.5-8.7c-0.6-0.4-1.3-0.7-1.4-1.5c0.7-0.5,1.1,0.1,1.6,0.4c3.6,2.2,7.3,4.5,10.9,6.7
		c6.7,4.2,13.7,7.9,20.9,11.3c0.7,0.4,1.6,0.5,2.4,0.7c0.2,0.8,0.9,0.8,1.5,0.7c0.2,0.8,0.9,0.8,1.5,0.7c0.3,0.7,0.9,0.7,1.5,0.7
		c0.5,0.3,1,0.5,1.4,0.8c0.2,0.1,0.3,0.3,0.5,0.4c0.1,0,0.3-0.1,0.4-0.2c-0.1,0-0.2-0.1-0.3-0.1c-0.2,0-0.4,0-0.7,0
		c-0.1-0.9-0.9-0.7-1.4-0.8c-0.2-0.9-0.9-0.7-1.5-0.7c-0.1-0.9-0.8-0.8-1.5-0.7c-0.2-0.9-0.8-0.8-1.5-0.7c-0.1-1.1-1.1-1.1-1.8-1.5
		c-3.3-2-6.6-3.9-9.9-6c-0.9-0.6-1.8-1.3-2.6-2C299.5,307,299.5,306.5,299.4,306.3L299.4,306.3z"/>
	<path d="M383.5,351.2c0.6,0.2,1.3,0.5,1.9,0.7c4.8,1.8,9.5,3.8,14.4,5.4c16.8,5.7,33.6,11.3,50.6,16.1c13.4,3.8,26.9,7.3,40.5,10.3
		c4.9,1.1,9.9,1.7,14.9,2c1.4,0.1,2.9,0,4.3,1.1c-5.6,0.4-10.9,0-16.2-0.9c-15.4-2.4-30.3-6.4-45.2-11c-14.2-4.4-28.3-9.2-42.5-13.9
		c-3.9-1.3-7.9-2.6-11.8-4c-3.2-1.2-6.3-2.7-9.4-4c-0.6-0.3-1.2-0.7-1.8-1.1C383.3,351.6,383.4,351.4,383.5,351.2z"/>
	<path d="M260.4,132.5c0.5,0,0.9,0,1.3,0c0.8,1.1,0.5,2.2,0.4,3.3c-0.5,5.3-1,10.7-1.7,16c-1.1,8.8-2.4,17.7-4.2,26.4
		c-0.5,2.3-1.2,4.5-1,6.9c0.1,1-0.5,2.1-0.9,3.1c-2.9,7-6.6,13.6-11,19.8c-0.7,1-1.5,1.9-2.4,2.8c-0.3,0.3-0.8,0.6-1.2,0.8
		c-0.3,0.1-0.7-0.1-1-0.2c-0.1-0.1-0.3-0.5-0.2-0.6c0.3-0.7,0.7-1.3,1.1-1.9c3.2-4.9,6.5-9.8,9.7-14.7c1.7-2.6,2.7-5.4,3.3-8.5
		c2.1-11,4-22.1,5.5-33.2c0.2-1.3,0.3-2.7,0.4-3.9c-0.8-0.6-1.8-1.1-2.3-1.8c-1.4-2.1-2.6-4.4-3.9-6.6c-0.2-0.4-0.4-0.9-0.6-1.5
		c4-0.4,5.4,2.4,7,4.9c1.1-1.7,1.6-4.7,1.9-11.1L260.4,132.5z"/>
	<path d="M279.6,305.4c3.8,2,6.9,3.7,9.9,5.4c4.1,2.4,8.2,4.8,12.4,7.1c11.8,6.5,23.2,13.7,34.4,21c2.6,1.7,5,3.5,7.4,5.3
		c0.8,0.6,1.4,1.3,2.2,1.9c-0.6,0.6-1,0.2-1.4,0c-5.6-3.3-11.3-6.4-16.7-10c-10.5-6.9-21.3-13.5-32.1-19.8
		c-4.2-2.5-8.4-5.1-12.5-7.7C282.1,308,280.8,307.3,279.6,305.4z"/>
	<path d="M435.1,378.2c-2.4-0.5-4.7-0.9-7.1-1.5c-12-2.7-24.1-5.3-36.1-8c-8.1-1.9-15.9-4.8-23.5-8.2c-0.8-0.3-1.5-0.8-2.3-1.2
		c-0.2-0.1-0.3-0.4-0.4-0.6c0.8-0.7,1.6-0.1,2.3,0.2c6,2.1,12,4.2,18,6.2c8.4,2.7,17,4.5,25.5,6.5c6.8,1.6,13.5,3.4,20.2,5.1
		c1.2,0.3,2.3,0.7,3.5,1C435.2,377.9,435.2,378.1,435.1,378.2z"/>
	<path d="M336,232.9c-1.3,0.9-2.2,0.5-3.2,0.3c-2-0.4-3.7-1.2-5.3-2.5c-2.7-2.2-4.9-4.7-6.6-7.8c-0.4-0.7-0.7-1.6-0.9-2.4
		c-0.2-0.6-0.1-1.3,0.6-1.5c0.4-0.1,1,0.1,1.3,0.3c0.5,0.4,0.8,0.9,1.2,1.4c2.4,3.3,5.2,6.1,8.3,8.8
		C332.7,230.8,334.3,231.7,336,232.9z"/>
	<path d="M307.5,345.9c0.7,0.3,1.4,0.5,2,0.8c6.9,4.2,13.6,8.7,19.7,14c0.6,0.6,1.3,1,1.9,1.4c1,0,1.5-1.3,2.5-0.6
		c-0.4,0.5-0.8,1.1-1.2,1.6c0.9,2.2,3.7,3,3.7,5.7c-0.4,0-0.7,0-0.8-0.1c-6.5-6.3-13.6-11.9-20.9-17.2c-2-1.5-3.9-2.9-5.9-4.3
		C308,346.9,307.4,346.6,307.5,345.9L307.5,345.9z"/>
	<path d="M395.5,393.6c2.3,2.6,6.3,10.8,9.6,19.2c3.3,8.5,4.9,14.3,4.9,18.9c-1.9-4.5-2.7-8.7-4.3-12.7c-1.7-4.2-3.3-8.4-5-12.6
		C399.1,402.3,396.9,398.5,395.5,393.6z"/>
	<path d="M438.8,336.1c3.1-0.7,6.1,0,9.1,0.5c8.8,1.5,17.6,3.1,26.4,4.2c0.2,0,0.4,0.2,1,0.5c-1.1,0.1-1.8,0.3-2.6,0.3
		c-4.8,0-9.5-0.8-14.2-1.6c-6.3-1.1-12.5-2.4-18.7-3.6C439.5,336.3,439.2,336.2,438.8,336.1z"/>
	<path d="M361.8,268.3c3,3.1,4.9,7.9,5.1,12.9c0.3,5.8,0,7.4-1.7,9.5c-0.2-0.5-0.5-1-0.5-1.4c0.4-6.4-1-12.6-2.7-18.7
		C361.8,270,361.9,269.3,361.8,268.3z"/>
	<path d="M304.2,265.1c-1.1,2.4-2.2,4.7-3.7,6.7c-1,1.2-1.8,2.6-2.5,4c-1.1,2.1-1.6,4.3-1.4,6.7c0.1,1.2,0.2,2.4,0.1,3.6
		c0,0.8-0.3,1.6-0.6,2.8c-0.6-0.6-1.1-0.8-1.2-1.2c-1.1-3-1.4-6.1-0.1-9.2c1.3-3.1,2.8-5.9,5.2-8.3c0.5-0.5,0.7-1.2,1-1.9
		C301.7,267.1,302.5,265.7,304.2,265.1z"/>
	<path d="M307.4,357c1.2-0.3,2.2,0.1,3.1,0.6c2.5,1.5,5,3,7.4,4.6c1.4,0.9,2.6,1.7,4.6,1.1c-0.4,0.7-0.6,1.1-0.7,1.4
		c2.3,2.6,4.6,5.1,6.8,7.6c0.2,0.2,0.2,0.6,0.3,1c-0.3,0.1-0.6,0.2-0.7,0.2c-5-5.4-10.9-9.7-17-13.7
		C310,358.9,308.8,357.9,307.4,357L307.4,357z"/>
	<path d="M244.6,426.4c-0.7-6.8-0.3-13,2.1-19c0.1-0.2,0.2-0.5,0.4-0.6c0.3-0.2,0.7-0.5,0.9-0.4c0.4,0.1,0.9,0.5,1,0.9
		c0.2,0.5,0.1,1.2,0,1.8c-0.3,1.3-0.8,2.6-1.1,3.9c-0.8,3.3-1.5,6.7-2.3,10C245.4,423.9,245.3,425,244.6,426.4z"/>
	<path d="M399.2,188.6c1.1-0.2,1.9-0.5,2.5-0.4c3.1,0.8,6,2.1,9.2,3.2c-0.5,0.5-0.7,1-1,1.2c-1.4,0.7-2.8,0.8-4.3,0.3
		C403.3,192.1,401,191.5,399.2,188.6z"/>
	<path d="M428.7,321.9c6.7-3.4,13.2-7,17.9-13.3c0.1,0.6,0.3,1,0.2,1.3c-0.1,0.5-0.4,0.9-0.7,1.3c-4.2,5.3-9.5,9.1-15.9,11.1
		c-0.3,0.1-0.7,0-1.1,0C429.1,322.3,429,322.2,428.7,321.9z"/>
	<path d="M389.1,237.3c-0.7-3.2-0.8-6.4-0.4-9.5c0-0.4,0.1-0.8,0.4-1c0.2-0.2,0.6-0.5,0.9-0.5c0.3,0,0.6,0.3,0.9,0.5
		c0.2,0.1,0.3,0.4,0.3,0.6c0.4,2.7,0.5,5.3-0.1,8C390.8,236.2,390.5,237,389.1,237.3z"/>
	<path d="M499.9,205.8c0.5,0.4,0.9,0.5,1,0.8c1.2,2.6,1.2,5.4,0.7,8.2c-0.3,1.6-1.1,2.9-2.4,3.9c-0.2,0.2-0.6,0.1-1.3,0.3
		c0.4-1.2,0.8-2.2,1-3.2c0.3-1,0.6-2.1,0.7-3.2c0.1-1.1,0-2.2,0-3.3C499.7,208.3,499.3,207.2,499.9,205.8z"/>
	<path d="M391.1,384.8c-0.5-0.1-1-0.2-1.4-0.4c-6.5-3.4-12.7-7.3-18.7-11.5c-0.4-0.3-0.7-0.6-1.3-1.1c0.6-0.1,0.9-0.3,1.1-0.2
		c6.6,4.1,13.2,8.3,19.8,12.5C390.8,384.2,390.9,384.6,391.1,384.8L391.1,384.8z"/>
	<path d="M237.1,193.3c-0.9,2.6-1.8,4.3-2.9,5.2c-0.8,0.7-1.8,1.3-2.9,1.4c-0.9,0.1-1.9-0.4-2.1-1.2c-0.2-0.8,0.3-1.4,1-1.8
		c1.2-0.6,2.4-1.2,3.6-1.9C234.8,194.5,235.9,194,237.1,193.3z"/>
	<path d="M389.2,403.2c0.4,0.6,0.8,0.9,1,1.3c1.5,3.7,4.1,13.3,4.4,16.1c-1.4-1.2-1.5-2.8-2-4.2c-0.5-1.4-0.9-2.8-1.3-4.2
		c-0.5-1.5-1-3-1.3-4.6C389.6,406.3,388.6,405,389.2,403.2z"/>
	<path d="M459.8,324.9c-3.3,1.2-5.7,1.4-14.6,0.9c-0.2-0.9,0.5-0.9,1-0.9c4-0.1,8-0.1,12-0.1C458.6,324.7,459,324.8,459.8,324.9z"/>
	<path d="M257.2,309.2c-1-0.7-2-1.2-2.8-1.9c-1-0.8-1.2-2-0.6-3c0.5-0.9,1.5-1.3,2.5-1c1.2,0.3,2,1.6,1.8,2.8
		C257.9,307.1,257.5,308,257.2,309.2z"/>
	<path d="M332.7,278.7c-1.1-0.6-2-1.6-1.4-2.6c0.8-1.4,0.1-2.3-0.3-3.4c-1.2-3-1.1-5.9,0.2-8.8c0.7,0.1,1,0.5,1,1
		c-0.1,1.1-0.4,2.2-0.5,3.2c-0.2,2.1-0.3,4.1,0.7,6.1c0.2,0.3,0.3,0.7,0.3,1C332.7,276.4,332.7,277.5,332.7,278.7z"/>
	<path d="M387.9,144.1c-0.4-2.1,0-2.9,1.7-3.9c1.9-1.1,3.6-0.9,5.3,0.7c-1.7,1.4-3.8,2-5.6,3.1C388.8,144.2,388.3,144.1,387.9,144.1
		z"/>
	<path d="M253.9,368.7c2.2,0.2,2.9,1.6,3.7,3c0.6,1.2,1,2.5,0.4,3.8c-0.1,0.3-0.5,0.6-0.8,0.6c-0.3,0-0.8-0.2-0.9-0.4
		c-0.9-1.9-1.7-3.7-2.4-5.6C253.7,369.7,253.8,369.4,253.9,368.7z"/>
	<path d="M263,296c0.8,0.3,1.3,0.5,1.8,0.7c3.4,1.6,6.7,3.1,10,4.9c-4,0-7.4-1.9-10.7-3.7C263.5,297.7,262.6,297.5,263,296z"/>
	<path d="M168.7,168.4c0.6,0,1.2-0.1,1.8-0.1c0.9,0.5,0.7,1.3,0.3,1.9c-1.2,1.9-2.5,3.9-3.8,5.8c-0.9-0.2-0.9-1.1-0.8-1.6
		c0.1-1.1,0.5-2.1,0.8-3.1c0.3-0.8,0.7-1.5,1-2.2l-0.1,0.1c0.6,0,0.9-0.3,0.9-0.9C168.8,168.2,168.7,168.4,168.7,168.4z"/>
	<path d="M328.8,257.1c-0.2-0.1-0.5-0.2-0.6-0.3c-1.2-3.8-1-7.7-0.4-11.5c0-0.1,0.4-0.2,0.6-0.4c0.1,0.3,0.3,0.6,0.3,1
		C328.8,249.6,328.7,253.4,328.8,257.1L328.8,257.1z"/>
	<path d="M265.1,237.8c0.2-0.2,0.4-0.3,0.7-0.6c1.1,0.4,1.4,1.5,2,2.3c0.7,0.9,1.4,1.4,2.7,1.6c1.9,0.2,3.6,1.3,4.9,2.6
		c-0.3,0.8-0.8,0.6-1.2,0.4c-2-0.9-4-1.7-5.9-2.7C266.7,240.8,265.6,239.5,265.1,237.8z"/>
	<path d="M447.8,432.3c2.2-2,4.4-3.6,6.9-4.7c0.2-0.1,0.7,0.1,0.9,0.4c0.2,0.2,0.2,0.7,0.1,1c-0.1,0.3-0.4,0.6-0.6,0.9
		C453.6,431.1,450.8,432,447.8,432.3z"/>
	<path d="M473.2,176.5c-0.8-1.3-1.2-2-1.6-2.7c-0.5-0.7-1-1.4-1.5-2.1c-0.4-0.6-1-1.1-1.4-1.7c-0.4-0.6-1.4-1.1-1-2.1
		c1.7,0.5,2.1,0.8,3.4,2.2c1,1.2,2.1,2.4,2.4,4C473.5,174.7,473.3,175.3,473.2,176.5z"/>
	<path d="M242.8,375.7c2.1,1.9,1.8,3.8,1.3,5.7c-0.2,0.9-0.8,1.7-2.2,1.5C242.1,380.6,242.2,378.4,242.8,375.7z"/>
	<path d="M258.3,280.1c2.3,0.6,3.9,2.2,5.8,0.7c0.6,1.7,0.3,2.5-0.6,2.6c-0.9,0.1-1.9,0-2.8-0.3
		C259.7,282.8,259.4,282.3,258.3,280.1z"/>
	<path d="M416.7,298.2c-0.6,1.7-1.8,2.3-3,2.7c-1.2,0.5-2.6,0.7-3.9,0.1c-0.2-0.1-0.4-0.3-0.4-0.5c0-0.2,0.1-0.5,0.2-0.6
		C411.8,298.9,414.1,298.5,416.7,298.2z"/>
	<path d="M219.7,402.9c-0.5-1.7-1-3.6-1.5-5.3c1.1-0.7,1.8-0.7,2.1,0c0.8,1.8,1,3.6,0,5.3C220.2,402.9,220,402.9,219.7,402.9z"/>
	<path d="M353,365.5c-1-1.1-1-2.3-0.5-3.2c1.2-2.6,1.2-5.4,1.5-8.2C354.8,358,354,361.8,353,365.5z"/>
	<path d="M390.4,249.8c0.7-1.2,1.7-2.2,1.8-3.7c0.2-1.4,1-2.7,1.4-4c0.8-0.2,1.1,0.3,0.9,0.8c-0.7,2-1.3,3.9-2.2,5.8
		C392.1,249.4,391.4,250,390.4,249.8L390.4,249.8z"/>
	<path d="M444.1,321.8c2.6-0.3,5.2-0.7,7.8-1c0.1,0,0.2,0.2,0.4,0.4C449.6,322.7,446.9,322.7,444.1,321.8z"/>
	<path d="M226.1,362c-0.9,1.8-2.7,2.4-3.7,3.8c-0.9-0.9-0.5-1.4-0.1-1.8C223.4,362.5,223.8,362.4,226.1,362z"/>
	<path d="M411.1,150.6c-1.5-0.4-2.5-0.7-3.4-1.1c-0.3-0.2-0.6-0.4-0.8-0.6c0.1-0.8,0.6-1.1,1.3-1C409.5,148,410.3,148.9,411.1,150.6
		z"/>
	<path d="M346.3,233.9c-1,1.3-2,1.2-2.9,1c-0.7-0.2-1.4-0.4-1.3-1.5C343.5,232.4,344.7,233.3,346.3,233.9z"/>
	<path d="M226.2,412.8c0.6,0.2,1,0.3,1.2,0.5c0.8,0.8,1.5,1.6,1,2.8c-0.1,0.1-0.5,0.3-0.6,0.2c-0.6-0.6-1.3-1.1-1.7-1.8
		C225.9,414.2,226.1,413.5,226.2,412.8z"/>
	<path d="M501.8,196c-1.3-1.4-2-2.8-2.8-4.1c0.4-0.7,0.8-0.8,1.2-0.4C501.6,192.6,502.4,194,501.8,196z"/>
	<path d="M308.1,373.7c0.1-0.4,0.2-0.7,0.2-1.1c0.1-0.9,0.3-1.7,1.1-2.1c0.9-0.5,1.8-0.6,2.8,0c-0.9,0.5-1.8,0.9-2.5,1.5
		C309.1,372.4,309.3,373.7,308.1,373.7L308.1,373.7z"/>
	<path d="M195.7,160.9c2.1-2.9,2.6-3.3,5-4.1C199.8,158.5,199.8,158.5,195.7,160.9z"/>
	<path d="M252.9,290.6c-0.6,0.1-1,0.3-1.4,0.2c-1.2-0.3-2.1-0.9-2.8-2.1C250.4,288.7,250.4,288.7,252.9,290.6z"/>
	<path d="M256.5,494.8c1.6,1.5,1.6,1.5,1.5,4.7C256.8,498.1,256.2,496.7,256.5,494.8z"/>
	<path d="M473.4,246.3c-1.1,1.2-2.4,2.2-4.6,1.5C470.3,246.6,471.7,246.1,473.4,246.3z"/>
	<path d="M222.9,407.1c1.4,0.4,2.3,1.2,2.4,2.9C222.5,408.6,222.5,408.6,222.9,407.1z"/>
	<path d="M255,483c-0.4-1.7-0.7-2.9-0.1-4C256.3,480,256.3,480.1,255,483z"/>
	<path d="M203.6,231.9c0.6,2.1,1.3,3.4,0.8,5.2C203,235.7,203,234.2,203.6,231.9z"/>
	<path d="M386.7,147.5c0,1.7-0.6,2.6-1.9,3C384.2,148.4,384.2,148.3,386.7,147.5z"/>
	<path d="M243,137.8c1.9,0,2.4,0.3,3.3,2C244.5,139.5,244.5,139.5,243,137.8z"/>
	<path d="M239.9,385.5c1,2.5,1,2.5-0.4,3.6C238.7,388,238.8,386.9,239.9,385.5z"/>
	<path d="M248.8,177.6c0.1,0.9-0.6,2-1.5,2c-0.2,0-0.5-0.2-0.5-0.4c-0.2-0.9,0.5-1.9,1.4-2C248.4,177.2,248.6,177.5,248.8,177.6z"/>
	<path d="M382.4,244.9c0.5-1.5,1.1-2.9,2.4-4C385.2,242.6,384.5,243.8,382.4,244.9z"/>
	<path d="M173,240.9c1.6,0.8,2.6,1.3,3.5,1.7c0.2,0.8,0,1.2-0.6,1C174.1,243.2,174.1,243.2,173,240.9z"/>
	<path d="M437.3,195.9c-0.2,1.9-1,2.3-1.9,2.4c-0.2,0-0.5-0.1-0.6-0.3c-0.1-0.1-0.1-0.5,0-0.6C435.4,197.1,436.1,196.7,437.3,195.9z
		"/>
	<path d="M255.8,491.4c-1-1.5-1-1.5-0.8-3.1C256.3,488.9,256.3,488.9,255.8,491.4z"/>
	<path d="M283.9,235.8c1,0,1.8,0,2.5,0c0.5,0,0.9,0.2,1.4,0.3C286.4,237.4,286.3,237.4,283.9,235.8z"/>
	<path d="M356.5,231.9c1.2-1.7,1.2-1.7,3.3-1.7C358.8,231.3,358.9,231.3,356.5,231.9z"/>
	<path d="M305.5,262.6c-0.2-1.5,0.1-2.4,1.7-3C307,260.9,306.7,261.7,305.5,262.6z"/>
	<path d="M310.1,253.8c-0.5,0.5-1.1,0.9-1.6,1.4c-0.3,0.4-0.5,0.9-0.9,1.6c-0.5-1.3-0.3-2.1,0.5-2.8
		C308.7,253.5,309.3,253.3,310.1,253.8z"/>
	<path d="M348.2,249.5c-0.2-0.2-0.4-0.2-0.4-0.3c-0.7-0.7-0.7-1.4-0.1-1.9c0.2-0.1,0.5-0.1,0.7-0.1c0.7,0.4,0.8,1.2,0.4,1.9
		C348.6,249.2,348.5,249.3,348.2,249.5z"/>
	<path d="M386.5,239.6c0.1-1.3,0.6-2.1,1.2-2.9C388.5,238.6,388.5,238.8,386.5,239.6z"/>
	<path d="M367.7,227.3c-0.8,0.6-1.3,1-1.8,1.2c-0.4,0.2-0.8,0.6-1.4,0.1C365,227.4,366,227,367.7,227.3z"/>
	<path d="M393.9,293.2c0.5,1.9,0.5,1.9-0.3,3.5c-0.6,0-0.9-0.3-0.8-0.8C393,295.2,393.3,294.6,393.9,293.2z"/>
	<path d="M417.8,295.8c0.8-1.2,1.9-1.1,3.2-1C419.9,296.3,419.9,296.3,417.8,295.8z"/>
	<path d="M245.3,436.1c-0.1-0.7-0.3-1.3-0.3-1.9c0-0.3,0.4-0.7,0.6-0.7c0.2,0,0.7,0.3,0.8,0.5C246.5,434.8,246.6,435.5,245.3,436.1z
		"/>
	<path d="M244.6,182.4c0.7,1.5-0.1,2-0.7,2.4c-0.1,0.1-0.5,0-0.6-0.1c-0.2-0.1-0.3-0.5-0.2-0.6C243.5,183.6,244,183.1,244.6,182.4z"
		/>
	<path d="M415,290c-0.6,1.2-1.6,1.1-2.7,0.8C413.3,289.7,413.3,289.7,415,290z"/>
	<path d="M401.6,302.3c0.3-1,1.1-1.1,1.9-1.1c0.2,0,0.4,0.2,0.6,0.4c0.1,0.1,0.1,0.2,0.1,0.3C404,302.7,403.4,302.8,401.6,302.3z"/>
	<path d="M457.8,270.9c-0.5-1.6,0.1-2.2,1.3-2.6c0,0.4,0.1,0.7,0,0.9C458.7,269.8,458.2,270.3,457.8,270.9z"/>
	<path d="M236.5,138.5c0.9-0.7,1.7-0.5,2.5,0.2C237.8,139.9,237.6,139.9,236.5,138.5z"/>
	<path d="M249.7,398.6c-0.4,0.8-0.8,1.5-1.4,2.6C247.7,399.6,248.5,398.9,249.7,398.6z"/>
	<path d="M388.9,177.1c0.1-0.7,0.2-1.4,0.3-2.2c1.5,0.5,1,1.6,1.4,2.7c-0.6-0.2-0.9-0.2-1.1-0.3c-0.2-0.1-0.4-0.2-0.7-0.3
		L388.9,177.1z"/>
	<path d="M352.9,254c1.7,1.3,1.7,1.3,2,2.6C353.9,256,353.9,256,352.9,254z"/>
	<path d="M250.4,362.4c1.4,0.8,1.4,0.8,1.2,2.5C250.6,363.8,250.6,363.8,250.4,362.4z"/>
	<path d="M234,361.4c1.2-0.4,2.3-0.1,3.4,1.1C235.9,362.8,234.9,362.5,234,361.4L234,361.4z"/>
	<path d="M166.9,179.5c1.4,0.8,1.4,1,0,2.5C166.3,181.1,166.2,180.3,166.9,179.5z"/>
	<path d="M240.3,190.9c-0.4-0.4-0.8-0.6-0.8-0.9c0-0.7,0.5-1.1,1.1-1.1c0.2,0,0.7,0.5,0.7,0.5C241.1,190,240.7,190.4,240.3,190.9z"
		/>
	<path d="M397.5,186.3c-0.2,0.3-0.4,0.7-0.5,0.7c-0.3,0-0.7-0.2-0.9-0.4c-0.2-0.2-0.2-0.6-0.2-0.9c0,0,0.5-0.2,0.6-0.2
		C396.8,185.7,397.1,186,397.5,186.3z"/>
	<path d="M205.4,200.4c1.4,0.3,2,0.5,3.1,0.7C207.3,202,206.7,201.6,205.4,200.4z"/>
	<path d="M417.6,317.3c0.5-1.2,1.5-1.6,2.6-2.2c0.2,1.1-0.5,1.4-1,1.7C418.7,317.1,418,317.1,417.6,317.3L417.6,317.3z"/>
	<path d="M246.8,445.5c-0.2-0.1-0.5,0-0.6-0.2c-0.5-0.5-0.5-1.3,0-1.6c0.1-0.1,0.2,0,0.3,0c0.5,0.1,0.8,0.8,0.5,1.5
		C247,445.3,246.9,445.4,246.8,445.5z"/>
	<path d="M246.3,358.7c-0.3,0.2-0.6,0.5-0.8,0.4c-0.3-0.1-0.6-0.4-0.7-0.7c-0.1-0.3,0.1-0.6,0.2-0.9c0.3,0.1,0.7,0,0.8,0.2
		C246.1,357.9,246.1,358.3,246.3,358.7z"/>
	<path d="M455.5,272c0.2,1.9,0,1.8-1.8,1.8C454.4,273.1,454.9,272.6,455.5,272z"/>
	<path d="M234.5,267.1c-0.1,1.8-0.1,1.8-2,2.9C233.3,268.9,233.8,268.2,234.5,267.1z"/>
	<path d="M249.5,451.8c-0.2,0.4-0.2,0.7-0.3,0.8c-0.4,0.3-1-0.3-1-0.9c0-0.2,0.3-0.5,0.3-0.5C248.9,451.4,249.2,451.6,249.5,451.8z"
		/>
	<path d="M284.2,376.5c-0.2,0.3-0.4,0.7-0.7,1c-0.1,0.2-0.4,0.2-0.6,0.3c0-0.3,0-0.7,0.1-0.9c0.1-0.3,0.3-0.6,0.5-0.9
		C283.7,376.1,283.9,376.3,284.2,376.5z"/>
	<path d="M402,334.2c-0.7-0.1-1.4-0.1-2-0.2c-0.6,0-1.1-0.1-1.4-0.7l-0.1,0.1C399.7,333.8,401,333.2,402,334.2L402,334.2z"/>
	<path d="M272.7,253.9c-1.1,0.4-1.6-0.1-2-1.3C272,253.1,272,253.1,272.7,253.9z"/>
	<path d="M197,260.5c-0.9-0.4-1.4-0.9-0.7-1.9C197.3,259,197.5,259.6,197,260.5z"/>
	<path d="M205.3,242.2c-0.2-0.7-0.5-1.4-0.9-2.5C205.6,240.8,205.6,240.8,205.3,242.2z"/>
	<path d="M408.5,292.9c-0.4,0.4-0.7,0.8-1.1,1.1c-0.1,0.1-0.5,0-0.6-0.2c-0.1-0.1-0.1-0.5,0-0.6
		C407.2,292.9,407.6,292.3,408.5,292.9z"/>
	<path d="M421.9,293.7c0.2-1,0.6-1.3,1.2-1c0.2,0.1,0.2,0.5,0.4,0.8C423,293.6,422.5,293.7,421.9,293.7z"/>
	<path d="M301.3,236.7c-0.5,0.6-0.6,0.9-0.8,0.9c-0.3,0.1-0.6,0-0.9,0c0.1-0.3,0.1-0.7,0.3-0.8C300.2,236.7,300.6,236.8,301.3,236.7
		z"/>
	<path d="M489.6,234.4c0.1-0.5,0.2-1,0.4-1.3c0.2-0.3,0.6-0.7,1-0.8c0.5-0.1,0.3,0.8-0.3,1.3C490.3,233.8,489.9,234.1,489.6,234.4
		L489.6,234.4z"/>
	<path d="M495.6,222.7c1,0.6,1,0.6,0,1.8C495.6,223.9,495.6,223.4,495.6,222.7z"/>
	<path d="M201.5,198.7c0.7,0.2,1.2,0.5,1.7,1.3C201.5,199.7,201.5,199.7,201.5,198.7z"/>
	<path d="M164.8,190.9c0.4,0.5,0.4,1-0.2,1.4c-0.1,0.1-0.5-0.1-0.6-0.3C163.7,191.4,164.1,191,164.8,190.9z"/>
	<path d="M307.5,345.9c-1.1,0.1-1.8-0.5-2.2-1.4l-0.1,0.1C306.2,344.7,307,345.1,307.5,345.9L307.5,345.9z"/>
	<path d="M465.4,359.8c-0.8,0-1.6,0-2.8,0C463.8,359,464.6,359.2,465.4,359.8L465.4,359.8z"/>
	<path d="M398.6,333.3c-0.8,0-1.6,0-2.7,0C397.1,332.6,397.8,333.1,398.6,333.3L398.6,333.3z"/>
	<path d="M256.6,278.8c-0.4,0-0.7,0.1-1,0c-0.2-0.1-0.3-0.5-0.4-0.8c0.3,0.1,0.6,0.1,0.9,0.2C256.3,278.3,256.4,278.5,256.6,278.8z"
		/>
	<path d="M402,334.3c0.8,0,1.6,0,2.7,0C403.5,335,402.8,334.6,402,334.3L402,334.3z"/>
	<path d="M358.8,260.8c1,0,0.8,1,2,1.5C359,262.3,358.8,261.6,358.8,260.8L358.8,260.8z"/>
	<path d="M358.9,260.8c-0.9-0.2-1.2-0.8-1.2-1.8C358.6,259.4,359,259.9,358.9,260.8L358.9,260.8z"/>
	<path d="M463.6,248.4c-0.3,0.1-0.5,0.3-0.8,0.4c0,0-0.3-0.5-0.3-0.5c0.2-0.2,0.5-0.4,0.7-0.5C463.4,247.9,463.5,248.1,463.6,248.4z
		"/>
	<path d="M269.8,248c0.4,0.4,0.7,0.7,0.9,1c0.1,0.1-0.1,0.4-0.2,0.6c-0.3-0.3-0.7-0.5-1-0.8C269.4,248.7,269.6,248.4,269.8,248z"/>
	<path d="M308.2,236c-0.1-0.5-0.2-0.9-0.1-1.1c0.1-0.2,0.5-0.3,0.7-0.5c0.1,0.3,0.3,0.6,0.2,0.8C309,235.5,308.6,235.7,308.2,236z"
		/>
	<path d="M162.7,213.5c-0.7,0.4-1.1,0.3-1.3-0.2c-0.1-0.1,0-0.4,0.1-0.6c0,0,0.2-0.1,0.3,0C162.1,212.9,162.4,213.2,162.7,213.5z"/>
	<path d="M484.9,213.4c-0.3-0.2-0.6-0.4-0.6-0.4c0.1-0.3,0.3-0.6,0.5-0.8c0.1-0.1,0.4-0.1,0.6-0.1c0.1,0,0.2,0.2,0.2,0.2
		C485.3,212.7,485.1,213.1,484.9,213.4z"/>
	<path d="M443.2,195.9c-0.6,0.3-1.1,0.5-1.6,0.7c0,0-0.2-0.2-0.2-0.3c0-0.1,0-0.3,0.1-0.3C441.9,195.5,442.4,195.3,443.2,195.9z"/>
	<path d="M390.4,249.8c0.1,0.7-0.4,0.7-0.8,0.9c-0.1,0-0.3-0.1-0.3-0.1c0-0.2,0-0.5,0.1-0.5C389.7,249.9,390.1,249.9,390.4,249.8
		L390.4,249.8z"/>
	<path d="M444.7,167.4c-0.2,0.2-0.4,0.4-0.5,0.5c-0.2-0.2-0.4-0.5-0.5-0.7c0.1-0.1,0.2-0.2,0.3-0.2
		C444.2,167.1,444.5,167.2,444.7,167.4z"/>
	<path d="M473.8,179.2c-0.1,0.1-0.2,0.3-0.3,0.4c-0.1-0.2-0.3-0.4-0.4-0.6c0,0,0.2-0.2,0.2-0.2C473.5,178.9,473.7,179.1,473.8,179.2
		z"/>
	<path d="M463.1,264.8c0.1,0.1,0.2,0.2,0.2,0.2c-0.2,0.2-0.5,0.5-0.7,0.7c0-0.2-0.2-0.5-0.1-0.6
		C462.6,264.9,462.9,264.9,463.1,264.8z"/>
	<path d="M493.5,229.6c-0.1-0.2-0.2-0.4-0.1-0.6c0-0.1,0.3-0.2,0.5-0.3c0.1,0.2,0.2,0.4,0.1,0.6
		C493.9,229.4,493.6,229.5,493.5,229.6z"/>
	<path d="M450.5,333.2c-0.2,0-0.5,0-0.7,0C450.1,333.1,450.3,333.2,450.5,333.2z"/>
	<path d="M258.2,329.9c0.6,0,1.1,0,1.8,0.1C259.2,330.7,258.7,330.5,258.2,329.9L258.2,329.9z"/>
	<path d="M332.2,282.8c-0.1,0.1-0.3,0.2-0.4,0.4c-0.1-0.2-0.2-0.4-0.3-0.6c0,0,0.2-0.2,0.3-0.2C331.9,282.5,332,282.7,332.2,282.8z"
		/>
	<path d="M391.1,331.7c-0.2,0-0.4,0-0.6,0c0,0,0-0.2-0.1-0.3c0.2,0,0.4,0,0.6,0.1C391.1,331.6,391.1,331.7,391.1,331.7z"/>
	<path d="M393.6,332.5c-0.1-0.1-0.3-0.2-0.4-0.3c0.1,0,0.2-0.1,0.3-0.1c0.2,0,0.4,0.1,0.6,0.2C393.9,332.4,393.7,332.5,393.6,332.5z
		"/>
	<path d="M350,318.8c0.3,0.1,0.6,0.1,1,0.2c-0.6,0.5-0.8,0.2-0.9-0.3L350,318.8z"/>
	<path d="M294.4,236.2c0,0.1-0.1,0.2-0.1,0.2c-0.1,0-0.2,0-0.3-0.1c0-0.1,0.1-0.2,0.1-0.2C294.2,236.1,294.3,236.2,294.4,236.2z"/>
	<path d="M447,172.4c-0.1,0-0.2,0.1-0.3,0.1c0-0.1-0.1-0.2-0.1-0.3c0.1,0,0.2,0,0.3,0.1C447,172.3,447,172.3,447,172.4z"/>
	<path d="M397.1,387.6c-0.5-0.1-1.3,0.3-1.4-0.7l-0.1,0.1c0.5,0.2,0.9,0.5,1.4,0.7L397.1,387.6z"/>
	<path d="M394.1,386.3c0.5,0.2,1,0.5,1.5,0.7l0.1-0.1c-0.6,0.1-1.3,0.3-1.5-0.7L394.1,386.3z"/>
	<path d="M392.6,385.6c0.6,0,1.2,0.1,1.5,0.7l0.1-0.1C393.5,386.2,392.9,386.3,392.6,385.6L392.6,385.6z"/>
	<path d="M392.7,385.5c-0.6,0.1-1.2,0-1.6-0.7l-0.1,0.1C391.7,384.8,392.3,384.8,392.7,385.5L392.7,385.5z"/>
	<path d="M251.3,457.8c0,0.1-0.1,0.2-0.1,0.2c-0.1,0-0.2-0.1-0.3-0.1c0-0.1,0.1-0.2,0.1-0.2C251.1,457.7,251.2,457.8,251.3,457.8z"
		/>
	<path d="M476.1,183.7c0,0.1-0.1,0.2-0.1,0.3c-0.1-0.1-0.2-0.2-0.3-0.4c0,0,0.1-0.2,0.2-0.2C476,183.5,476,183.6,476.1,183.7z"/>
	<path d="M166,186.1c0.1,0.1,0.3,0.3,0.3,0.4c0,0.2-0.2,0.3-0.3,0.5c-0.1-0.1-0.2-0.2-0.2-0.3C165.9,186.5,166,186.3,166,186.1z"/>
	<path d="M166.9,213.5c0.1-0.1,0.3-0.3,0.4-0.3c0.2,0,0.3,0.2,0.4,0.3c-0.1,0.1-0.2,0.2-0.2,0.2
		C167.3,213.6,167.1,213.5,166.9,213.5z"/>
	<path d="M416.6,308.7c0.1,0,0.2-0.1,0.3-0.1c0,0.1,0.1,0.3,0.1,0.4c-0.1,0-0.2,0-0.3-0.1C416.7,308.9,416.7,308.8,416.6,308.7z"/>
	<polygon points="161.4,195.8 161.4,195.9 161.1,195.8 	"/>
	<polygon points="447,332.4 446.7,332.3 447,332.3 	"/>
	<path d="M244.6,275c0,0.1,0.1,0.1,0.1,0.2c-0.1-0.1-0.2-0.1-0.4-0.2C244.4,275.1,244.5,275,244.6,275z"/>
	<path d="M307.5,356.9c-0.2-0.1-0.4-0.1-0.6-0.2C307.1,356.8,307.3,356.9,307.5,356.9L307.5,356.9z"/>
	<polygon points="407.7,273.4 407.6,273.1 407.8,273.2 	"/>
	<path d="M388.2,330.8c0.1,0,0.2,0.1,0.3,0.1c-0.1,0.1-0.3,0.1-0.4,0.2c0,0-0.1-0.1-0.2-0.1C388,330.8,388.1,330.8,388.2,330.8z"/>
	<path d="M200.3,263c0.2,0.2,0.4,0.4,0.6,0.5c-0.1,0.1-0.2,0.2-0.4,0.3C200.5,263.6,200.4,263.3,200.3,263L200.3,263z"/>
	<path d="M386.1,330.1c0,0.1,0.1,0.1,0.1,0.2c-0.1,0-0.3-0.1-0.4-0.1C385.9,330.1,386,330.1,386.1,330.1z"/>
	<path d="M384,329.5c-0.1,0-0.2,0-0.3,0c0,0-0.1-0.1-0.1-0.1c0.1,0,0.2,0,0.3,0C383.9,329.3,383.9,329.4,384,329.5z"/>
	<path d="M328.7,257.1c0.2,0.1,0.4,0.2,0.5,0.3c0.1,0.1,0,0.4-0.1,0.6c-0.1-0.1-0.3-0.2-0.3-0.3
		C328.7,257.5,328.8,257.3,328.7,257.1L328.7,257.1z"/>
	<path d="M381.8,328.6c0,0.1-0.1,0.1-0.1,0.2c-0.1-0.1-0.1-0.2-0.2-0.2C381.7,328.6,381.7,328.6,381.8,328.6z"/>
	<path d="M425.8,291.9c-0.2,0.1-0.4,0.2-0.6,0.3c0,0-0.1-0.2-0.2-0.3c0.2-0.1,0.4-0.2,0.6-0.3C425.6,291.7,425.7,291.8,425.8,291.9z
		"/>
	<path d="M305.3,344.4c-0.1,0-0.2-0.1-0.3-0.1C305.1,344.4,305.2,344.5,305.3,344.4L305.3,344.4z"/>
	<path d="M328.7,323.9c-0.2,0.4-0.5,0.3-0.8,0l-0.1,0.1C328.2,323.9,328.5,323.9,328.7,323.9L328.7,323.9z"/>
	<polygon points="417.5,317.2 417.4,317.5 417.6,317.3 	"/>
	<path d="M299.5,306.2c-0.1-0.1-0.3-0.1-0.4-0.2c0.1,0,0.2,0,0.2,0C299.3,306.1,299.3,306.2,299.5,306.2L299.5,306.2z"/>
	<path d="M396.3,409.9c0.1,0.1,0.3,0.2,0.4,0.3c-0.1,0-0.2,0-0.2-0.1C396.4,410,396.3,409.9,396.3,409.9L396.3,409.9z"/>
	<polygon points="396.3,409.8 396.2,409.7 396.3,409.9 	"/>
	<polygon points="174.4,214.2 174.2,214.3 174.2,214.1 	"/>
	<polygon points="489.5,234.4 489.4,234.5 489.6,234.4 	"/>
	<path d="M397,387.7c0.1,0.1,0.2,0.2,0.2,0.4c0-0.1-0.1-0.1-0.1-0.2c0-0.1,0-0.2,0-0.3L397,387.7z"/>
	<polygon points="374.3,384.2 374.4,384.3 374.3,384.1 	"/>
	<path d="M374.3,384.1c-0.2-0.2-0.5-0.5-0.7-0.7l-0.1,0.1C373.8,383.7,374,383.9,374.3,384.1L374.3,384.1z"/>
	<path d="M372.7,382.6c0.3,0.3,0.5,0.6,0.8,0.8l0.1-0.1C373.3,383.1,373.1,382.8,372.7,382.6L372.7,382.6z"/>
	<path d="M304.6,376.1c0-0.2,0.1-0.4,0.1-0.5c0.5,0.4-0.1,0.3-0.2,0.5L304.6,376.1z"/>
	<polygon points="308.1,373.6 308.1,373.9 308.1,373.7 	"/>
	<path d="M200.3,263c-0.1-0.1-0.2-0.2-0.4-0.3c0.1,0,0.2,0,0.3,0.1C200.3,262.8,200.2,262.9,200.3,263L200.3,263z"/>
	<path d="M234.1,361.3c-0.1,0-0.2-0.1-0.2-0.1C233.9,361.3,233.9,361.4,234.1,361.3L234.1,361.3z"/>
	<path d="M212,270.4c0.2,0.1,0.3,0.2,0.5,0.3C212,270.9,212,270.6,212,270.4L212,270.4z"/>
	<path d="M288.2,133.4c1.1,3.5,2,7,3.3,10.4c1.3,3.4,2.8,6.7,4.3,10.2c-0.5,0.5-0.7-0.2-1-0.5c-2.1-2.1-3.7-4.6-4.8-7.3
		c-1.1-2.7-2-5.5-2.8-8.3c-0.3-1-0.3-2.2-0.3-3.3c0-0.4,0.3-0.8,0.5-1.2C287.7,133.3,287.9,133.4,288.2,133.4z"/>
	<path d="M328.6,170.6c4,0.4,7.8-0.4,11.4-1.8c2.7-1.1,5.4-1.3,8.2-1.3c0.3,0,0.6,0.3,0.9,0.4c0.2,0.8-0.1,1.4-0.7,1.5
		c-0.9,0.2-2,0.4-2.9,0.1c-1.8-0.5-3.3-0.1-4.9,0.6c-3.3,1.4-6.8,2-10.4,1.8c-0.5,0-0.9-0.2-1.4-0.2
		C328.9,171.2,328.8,170.8,328.6,170.6L328.6,170.6z"/>
	<path d="M292.1,168c0.4-1.1,1.2-1.1,1.9-1c5,0.8,10,1.7,14.7,3.8c0.1,0.8-0.2,1-0.8,0.9c-4.5-0.9-9-1.8-13.5-2.8
		C293.6,168.9,292.9,168.4,292.1,168z"/>
	<path d="M329.5,159.5c0-0.8-0.1-1.7,0.1-2.5c1.3-5.1,2.8-10.1,4.2-15.2c0.2-0.6,0.7-1.2,1.4-2.3c0.1,1.1,0.3,1.6,0.1,2.1
		c-1.4,5.2-2.9,10.4-4.4,15.5C330.6,158,330.5,159,329.5,159.5L329.5,159.5z"/>
	<path d="M321.2,194.3c0.3,4,0.7,8-0.1,11.9c-0.1,0.3-0.5,0.5-0.9,0.8c-0.3-0.4-0.8-0.8-0.8-1.2c-0.3-3.3-0.5-6.6,0.1-9.8
		c0.1-0.7,0.5-1.3,0.8-1.9C320.7,194.3,320.9,194.3,321.2,194.3z"/>
	<path d="M328.7,170.5c-2,1-4.2,2-6.1,3.1c-3.6,2.2-6.7,0.9-9.7-0.9c0-0.9,0.5-1.1,1-0.9c0.6,0.2,1.1,0.5,1.7,0.7
		c2.7,1.2,5.3,1.2,7.9-0.6c1.5-1,3.1-1.8,4.6-2.6C328.8,169.7,328.9,170.1,328.7,170.5L328.7,170.5z"/>
	<path d="M300.1,158.7c-2-0.3-3.2-1.4-4-3.1C298.6,156.7,298.6,156.7,300.1,158.7L300.1,158.7z"/>
	<path d="M350.2,167.3c1.1-0.6,1.5-1,1.9-1c0.8-0.1,1.6,0,2.4,0.1c0.1,0,0.2,0.3,0.4,0.7C353.7,168,352.4,167.7,350.2,167.3z"/>
	<path d="M301.4,160.6c0.3,0.3,0.6,0.7,0.9,1.1c0.2,0.4,0.4,0.8,0.5,1.2c-1,0.7-1.7,0.3-2.1-0.6
		C300.4,161.6,300.5,160.9,301.4,160.6z"/>
	<path d="M324.2,182.3c0,0.2,0,0.5-0.1,0.6c-0.3,0.3-0.7,0.5-1.1,0.6c0,0-0.2-0.1-0.2-0.2c-0.2-0.6,0.6-1.4,1.2-1.3
		C324.1,182.1,324.1,182.2,324.2,182.3z"/>
	<path d="M326.9,165.7c-0.4-0.9-0.4-0.9,0-1.8C327.4,164.8,327.4,164.8,326.9,165.7z"/>
	<path d="M322,189c-0.1,0.2-0.2,0.3-0.3,0.5c-0.1-0.1-0.2-0.2-0.2-0.2c0.1-0.2,0.2-0.4,0.3-0.5C321.8,188.8,321.9,188.9,322,189z"/>
	<path d="M329.4,159.5c0,0.1-0.1,0.2-0.1,0.3C329.4,159.7,329.5,159.6,329.4,159.5L329.4,159.5z"/>
	<polygon points="300,158.8 300.2,158.9 300.1,158.7 	"/>
	<path d="M285.2,75.9c-0.7-0.7-1-1.3-0.5-1.6c2.4-1.2,4.4-3.1,7.2-3.4c1.6-0.1,1.6-0.3,3.4,1c0.9-0.6,1.8-1.3,3.2-1
		c2.4,0.6,4.9,0.6,7,2.3c0.4,1.1,0.7,2.2,1.1,3.2c-0.8,1.4-2.1,0.6-3.1,1c0.1,0.7,0.3,1.3,0.4,2.1c-0.8,0-1.5-0.1-2.1,0
		c-0.3,0.1-0.5,0.5-0.8,0.8c-0.2,0.1-0.5,0.2-0.7,0.2c-0.5,0-1-0.3-1.4-0.2c-3.8,1-7.5-0.5-11.3-0.4c-0.2,0-0.3-0.3-0.5-0.4
		c1.2-1.8,1.6-2.3,3-2c1.7,0.3,3.1-0.1,4.6-0.7c1.3-0.6,2.6-0.7,3.9-0.2c0.4,0.1,0.9,0,1.2-0.1c0.3-0.9-0.3-1.1-0.7-1.3
		c-0.8-0.3-1.6-0.7-2.4-0.7c-1.8,0-3.3-0.4-4.8-1.4c-0.8-0.5-1.6-0.3-2.4,0.2C288,74.3,286.6,75,285.2,75.9z"/>
	<path d="M338.8,75.7c-0.5,0-1,0.2-1.3,0c-1.1-0.5-2.2-1.1-3.1-1.8c-1.1-0.8-2.3-1.1-3.4-0.2c-1.2,0.9-2.5,0.9-3.8,1
		c-1.9,0.1-1.9,0.1-3.9,1.6c0.3,0.8,1,0.6,1.4,0.5c1.6-0.5,3.2-0.2,4.6,0.6c1.1,0.6,2.3,0.8,3.5,0.7c1.6-0.2,2.8,0.6,3.7,2.1
		c-2.4,0.9-4.7,0.3-6.9,0.6c-2.2,0.4-4.6-0.2-7-0.3c-0.6-1.1-1.2-2.2-1.7-3.1c-1.5-0.8-3.1,0.7-4.1-1.3c0.2-0.4,0.4-0.9,0.6-1.4
		c0.2-0.6,0.3-1.2,0.5-1.8c2.6-1.7,5.6-1.8,8.5-1.9c0.5,0,1,0.5,1.8,1c0.8-0.6,1.7-1.2,3.1-0.9c2.9,0.5,5,2.4,7.4,3.9
		C338.8,74.9,338.8,75.2,338.8,75.7z"/>
	<path d="M319,121.7c-0.9,1.5-2.4,1.8-3.8,1.5c-2.1-0.4-4.1,0-6.1,0.2c-1.2,0.2-2.4,0.1-3.6,0.1c-1,0-1.9-0.4-2.5-1.5
		c0.4-0.6,0.8-1.1,1.1-1.8c0.8-1.7,2.3-2.2,3.9-2c1.5,0.2,2.9,0,4.3-0.3c3.6-0.7,4.4-0.3,6.3,2.7C318.7,121,318.9,121.4,319,121.7z"
		/>
	<path d="M320.8,115.7c-1.6-0.2-3.1-0.5-4.7-0.6c-1.7-0.2-3.3-0.2-5.1,0c-3.5,0.5-7,0.6-10.6,0.9c-0.5,0-1,0-1.4-0.2
		c-0.6-0.2-1.1-0.6-1.1-1.3c0-0.7,0.4-1.2,1.1-1.2c1-0.1,1.9-0.1,2.9,0c2.9,0.2,5.2,0,8.2-0.9c0.4-0.1,0.9-0.2,1.4-0.1
		c1.7,0.2,3.4,0.4,5.1,0.7c1.1,0.2,2.1,0.3,3.2,0.1c1.1-0.2,2.2-0.1,3.3,0c0.5,0.1,1,0.7,1.2,1.2c0.2,0.5-0.6,1.4-1.3,1.5
		c-0.1,0-0.2,0.1-0.4,0C322,115.7,321.4,115.7,320.8,115.7C320.8,115.7,320.8,115.7,320.8,115.7z"/>
	<path d="M314.7,104.3c-1-0.5-1.5-0.8-2.1-1c-1.2-0.4-2.4-0.4-3.3,0.7c-0.3,0.3-0.9,0.4-1.3,0.4c-0.8,0-1.3-1.3-0.9-2
		c1.7-2.5,5.4-2.8,7.1-1.7c0.5,0.4,1,1.1,1.2,1.7C315.6,102.9,315.1,103.5,314.7,104.3z"/>
	<path d="M522.7,429.6c-0.5-0.7-0.9-1-1.1-1.4c-0.7-1.6-1.4-3.1-1.9-4.8c-1-3.3-1.9-6.6-3.5-9.6c-0.2-0.3-0.3-0.7-0.3-1
		c0.1-0.4,0.4-0.9,0.7-1.1c0.2-0.2,0.7-0.1,1,0c0.4,0.2,0.9,0.5,1.1,0.9c2.9,4.9,4.9,10.1,4.4,15.9
		C523.2,428.7,523.1,428.9,522.7,429.6z"/>
	<path d="M573.6,461.7c-5.1,1.1-9.9-0.3-13.5-3.9c0.1-0.7,0.6-0.9,1.3-0.8c0.2,0,0.5,0.1,0.7,0.2
		C565.8,458.6,569.5,460.1,573.6,461.7z"/>
	<path d="M544.4,434.4c-0.6,0.4-0.8,0.8-1.1,0.8c-1.9,0.3-3.9,1-5.7,0.7c-2.6-0.5-4.9-2-7.2-4.1c3.1-0.4,4.8,1.9,7.5,2.2
		C539.8,433.2,542,432.5,544.4,434.4z"/>
	<path d="M563.8,424.4c0.7-1.2,1.4-1.1,2.1-0.6c1.9,1.3,3.2,3.3,4.2,5.3c0.3,0.7,1,1.4,0.4,2.6c-0.4-0.2-0.8-0.4-1.1-0.6
		C567.2,429.1,565.6,426.7,563.8,424.4z"/>
	<path d="M524,402.4c-0.7,1.3-1.8,1.6-2.9,1.6c-1.1,0-2.2,0-3.1-0.7c-0.3-0.3-0.8-0.8-0.7-1.2c0.1-0.5,0.5-1.3,0.9-1.4
		c1-0.3,2.2-0.4,3.2-0.3C522.5,400.5,523.5,401,524,402.4z"/>
	<path d="M544.8,418.9c-0.1-0.6-0.3-1.1-0.3-1.5c0-2,0-4.1,0-6.1c0.7-0.4,1,0.1,1.1,0.5c0.6,2.1,0.5,4.3,0.2,6.5
		C545.6,418.5,545.2,418.7,544.8,418.9z"/>
	<path d="M516.3,410.4c-1.3-1.5-2.8-2.7-3.9-4.4c1.7-0.7,2.5,0.3,3.3,1.1C516.5,407.9,517.2,408.8,516.3,410.4z"/>
	<path d="M660.7,490.1c2.6,0.4,4.9,1.8,6.7,4.1C665,493.6,662.9,492.3,660.7,490.1z"/>
	<path d="M585.6,450.2c-2-1-3.5-2-3.9-4.4C585.2,447.3,586.1,448.3,585.6,450.2z"/>
	<path d="M571.8,434.1c2.2,0.9,2.3,1,3.8,3.8C573.9,437.5,573.8,437.5,571.8,434.1z"/>
	<path d="M555.8,427.3c-0.6-2-0.6-3.5,0.1-4.9c0.9-0.1,1.1,0.5,1.2,1.1C557.2,424.7,557.5,426,555.8,427.3z"/>
	<path d="M652.7,507.1c-1.9,0-1.9,0-3.9-2.6c0.3-0.1,0.7-0.3,0.9-0.2C651,504.8,652,505.8,652.7,507.1z"/>
	<path d="M656.2,489.1c-1.5-0.6-2.6-1.3-3.9-2.7c0.8-0.1,1.3-0.3,1.6-0.1c0.9,0.5,1.8,1.1,2.6,1.8
		C656.6,488.1,656.3,488.6,656.2,489.1z"/>
	<path d="M577,439.8c1.3,1.1,1.9,2.2,2.1,3.5C577,442.9,576.4,442,577,439.8z"/>
	<path d="M602.4,474.7c0.1-0.1,0.1-0.2,0.2-0.3c1.8-0.3,2.7,0,2.7,0.9c0,0.2-0.2,0.5-0.3,0.6C603.9,476.4,603.6,476.3,602.4,474.7z"
		/>
	<path d="M583.3,465.4c1.3-0.1,2.6,0,3.6,1.3C585.3,467.2,584.3,466.4,583.3,465.4z"/>
	<path d="M648.6,484.7c-1.2-0.2-2.2-0.7-2.7-1.9C647.9,482.8,648.3,483,648.6,484.7z"/>
	<path d="M514.4,434.4c-0.9,1.4-0.9,1.4-2.5,0.3C513,433.8,513,433.8,514.4,434.4z"/>
	<path d="M576.2,462.9c1.5-0.5,2.6-0.2,3.4,1C578.3,464.5,577.4,463.6,576.2,462.9z"/>
	<path d="M593.4,468.9c-1.4,0.3-1.4,0.3-2.9-0.7C591.9,467.8,591.9,467.8,593.4,468.9z"/>
	<path d="M597.4,472c-0.6-0.4-1.2-0.7-2-1.2C596.9,470.3,596.9,470.3,597.4,472z"/>
	<path d="M519.7,434.8c-0.6,0.3-1,0.5-1.4,0.5c-0.2,0-0.6-0.4-0.6-0.6c0-0.6,0.5-0.8,1-0.7C519,434.1,519.2,434.4,519.7,434.8z"/>
	<path d="M645.8,503.3c-0.8,0.6-1.3,0.2-1.7-0.2c-0.1-0.1-0.1-0.4-0.2-0.6c0.2-0.1,0.5-0.2,0.6-0.2
		C644.9,502.6,645.3,503,645.8,503.3z"/>
	<path d="M545.8,423.2c-0.1,0-0.1,0-0.2,0.1c0-0.1-0.1-0.2-0.1-0.3c0.1,0,0.2-0.1,0.4-0.1C545.8,423,545.8,423.1,545.8,423.2z"/>
	<polygon points="641.8,502 641.7,501.8 641.9,501.8 	"/>
	<path d="M656.7,509.7c-0.5-0.1-0.8-0.4-0.5-0.9l-0.1,0.1c0.3,0.2,0.6,0.4,0.8,0.6L656.7,509.7z"/>
	<path d="M656.2,508.8c-0.1,0-0.2,0-0.3,0C655.9,508.8,656,508.8,656.2,508.8L656.2,508.8z"/>
	<polygon points="543.3,426.2 543.5,426.2 543.4,426.4 	"/>
	<path d="M719.8,535c1,1.2,2.9,1.5,2.4,3.6c-1.6,0.9-3.5,1-5.4,1.5c1.7,1.2,4.1,0.6,5.5,2.7c-1,0.5-1.7,1-2.5,1.2
		c-2.4,0.4-4.8,0.9-7.2,1.1c-2.8,0.2-3.1-0.1-4.2-3c-0.9,0.1-1.9,0.2-2.8,0.2c-1.4,0-2.6-0.6-2.7-2.3c0-0.4-0.1-0.7-0.2-0.8
		c-1.1-0.2-2-0.2-2.9-0.6c-0.5-0.2-0.9-0.9-1-1.4c-0.4-1.2,0.5-2.6,2.1-3.4c3.2-1.6,6.7-2.4,10.2-2.3c2.4,0,4.8,0.6,7.2,1
		c0.6,0.1,1.1,0.4,1.7,0.7C720.8,533.3,720.7,533.9,719.8,535z"/>
	<path d="M724.2,547.4c-0.5,0.4-0.9,1.1-1.5,1.3c-1.8,0.8-3.8,0.9-5.7,0.6c-0.9-0.2-1.5-0.7-1.7-1.6c-0.2-0.8,0.4-1.7,1.1-2.1
		c2.1-1.1,5.6-0.7,7.5,1C724.1,546.7,724.1,547,724.2,547.4z"/>
</g>
</svg>
