<?xml version="1.0" encoding="utf-8"?>
<!-- Generator: Adobe Illustrator 19.1.0, SVG Export Plug-In . SVG Version: 6.00 Build 0)  -->
<svg version="1.2" baseProfile="tiny" id="Layer_2" xmlns="http://www.w3.org/2000/svg" xmlns:xlink="http://www.w3.org/1999/xlink"
	 x="0px" y="0px" width="900px" height="600px" viewBox="144 97 900 600" xml:space="preserve">
<g>
	<path d="M957.2,438.7c-0.9,2.4-2.9,3.5-5.1,4.4c-3.1,1.3-6.2,2.5-9.2,3.6c-2.4,0.1-3.8-1.9-6.1-2.7c-3.3,2-6.7,4.4-11.1,4.4
		c-5.2-3-9.1-7-10.6-13.1c-0.6-2.6-1.6-5.1-1.7-7.7c-0.2-3-1.2-5.7-2.6-8.5c-1.4-2.9-3.3-4.9-6.2-6.5c-6.2-0.5-12.6,0.4-18.8-1.8
		c-2.4,1.1-4.7,2.2-7.4,3.4c1.8,4.7,1.1,9.3,0.3,13.8c-0.3,2-0.3,3.8,0.4,5.7c0.5,1.3,0.8,2.7,1.3,4.3c2.3,0.7,5,1.1,7.1,3
		c6.2-0.4,11.8,1.9,17.8,2.8c0.9,0.1,1.7,0.4,2.5,0.9c2.6,1.7,5.5,2.4,8.4,3.1c8.6,2.1,17.1,4.3,26,5.1c2.4,0.2,4.8,0.9,7.1,1.3
		c1.2,1.4,0.6,2.6-0.3,3.4c-1.8,1.7-3.6,3.4-6.1,4c-1.6,0.4-2.9,1.1-4.1,2c-2.2,0.2-4.1,0.3-6,0.4c-0.9,0.1-1.8,0.2-2.6,0.1
		c-7.3-1.5-14.7-1.4-22-2.7c-0.3-0.1-0.7-0.1-1-0.1c-1.8,0.3-1.4,2.3-2.6,3.1c-1.2,0.7-2.5,1.4-3.9,1.6c-2.2-0.4-4.4-0.9-6.7-1.3
		c-2.3-0.4-4.6-0.5-6.8,0.1c-3.3,0.8-6.7,0.7-10,0.8c-4.8,0.1-9-1.6-13-3.9c-1.3-0.7-2-1.9-2.7-3.1c-3.1-5.6-5.3-11.5-5.8-18
		c-0.2-2.5-0.5-4.9-1.5-7.4c-1.8,0.7-2.5,2.4-3.4,3.8c-2,2.9-3.9,5.9-5.9,8.8c-1.9,2.8-4.3,5.2-6.7,7.7c-2.5,0.6-4.8,2-7,3.4
		c-4.6,3.1-9.7,5.1-15.2,5.8c-1.8,0.2-3.5,0.2-5.2-0.5c-0.7-0.3-1.2-0.8-1-1.6c0.4-0.7,1.1-0.7,1.8-0.8c5.8-0.3,11.1-2,16.2-4.6
		c1.1-0.6,2.2-1.2,3.3-1.7c6.5-2.7,10.9-7.7,14.3-13.7c0.6-1.1,1.2-2.1,1.8-3.2c0.1-0.1,0-0.3,0.1-0.5c-0.3-0.1-0.6-0.3-0.9-0.4
		c-0.1-0.1-0.3-0.3-0.4-0.4c-0.1-0.3-0.1-0.7-0.2-1.2c-1.5-0.4-3,0.3-4.6-0.2c-3.5-1.1-5-3.6-4.6-7.3c0.7-6.4,3.6-11.7,7.7-16.5
		c2-2.3,3.5-4.9,4.8-7.6c4.7-9.5,9.3-19.1,14.7-28.2c1.5-2.5,2.2-5.1,2.5-8c0.7-6,0.9-12,0.1-18c-0.9-6.9-2.7-13.5-7.3-19.1
		c-1.1-1.3-1.8-3-2.6-4.4c0.4-1.1,0.8-2.1,1.2-3.2c-4.2-1.5-8.2-0.3-12.2-0.5c-4.2-0.2-8.4-0.3-12.7,0.5c-4,0.8-8.1,1.1-12.2,1.6
		c0.2,1.4,1.5,1.3,2.3,1.4c3.2,0.4,6.2,1.2,9.3,2.1c1.7-0.2,3.5-0.6,5.2-0.5c1.5,0.1,3,0.9,4.5,1.5c2.5,1,4.9,2.1,7.4,3
		c4.6,1.7,7.8,4.8,9.9,9.1c3.3,6.4,3.5,13.3,2.3,20.2c-0.6,3.3-1.8,6.4-3.2,9.5c-3.5,7.8-7.7,15.1-13,21.8c-0.9,1.1-1.8,2.2-2.7,3.3
		c-6.2,7.3-13.5,13-22.9,15.6c-2.8,3.1-6.3,5.1-9.9,7c-6.9,3.6-14.2,6.3-21.8,8.2c-4.6,1.2-9.1,1.4-13.6,0.1c-4.6-1.3-9.3-2.1-14-3
		c-3-0.5-5.8-1.5-8.5-2.8c-8.3-4.2-12.3-11.7-11.2-20.9c0.1-1.2,0.4-2.4,0.7-3.6c-0.6-1.1-1.5-0.6-2.3-0.6
		c-5.8,0.5-11.6,0.9-17.5,0.3c-1.9-0.2-3.9-0.1-5.2-1.6c-1.2,0.8-1.1,1.7-1.1,2.6c-0.2,6.2-0.9,12.3-0.3,18.6c0.2,2.3,0,4.6-0.2,6.9
		c-0.6,5.9,0.2,11.6,2.6,17.1c3,7,6.2,13.9,10.4,20.3c2.3,3.5,5.3,5.5,9.4,6.3c2.8,0.5,5.5,1.2,8.3,1.5c3.2,0.4,6.3,0.3,9.8-0.8
		c-1.8-1.3-3.5-2.5-5.1-3.7c-1.6-1.2-3.1-2.4-4.6-3.6c-3.3-2.6-5.4-6-6.7-10c-0.4-1.1-0.6-2.4,0.4-3.4c1.2-0.2,1.8,0.4,2.1,1.3
		c1.5,4.8,4.8,8.1,8.6,11.1c3.7,2.9,7.8,4.7,12.5,5.4c5.4,0.8,10.8,1.8,16.2,2.6c1.9,0.3,3.9,0.1,5.8,0c3.5-0.1,7.1-0.3,10.5-0.5
		c7.6-6.1,16-10.8,22.7-17.7c0.8,0.7,0.6,1.3,0.1,1.8c-3.5,3.8-7,7.5-11.1,10.6c-1.5,1.1-3,2.3-4.4,3.5c0.4,0.6,0.7,1.1,0.9,1.5
		c-8.7,4.4-17.8,6.2-27.3,5.6c-0.9,0-1.8,0-2.6-0.2c-5.3-1.4-10.5-0.7-15.8-0.1c-4.9,0.5-9.9,0.5-14.8-0.2c-2.3-0.3-4.6-0.2-6.9-0.3
		c-4.9-0.2-9.9-0.1-14.8-1.1c-0.5-0.1-1,0.1-1.5,0.1c-0.7,1.1,0.1,2.1,0.2,3.1c0.1,0.9,0.3,1.7,0.4,2.6c1.1,1.5,2.3,2.8,3.2,4.3
		c1.8,2.8,4.5,4.1,7.5,4.3c6.6,0.6,12.8,2.5,19.2,3.8c3.3,0.7,6.7,1.4,8.3,4.8c1.5,0.5,2.8,0.9,4.2,1.4c1.6,0.6,3.4,1.1,4.9,2.1
		c5.5,3.6,11.5,6.1,17.5,8.7c2,0.9,3.6,2.2,5.2,3.5c0.8,0.7,1.3,1.6,1.4,2.8c-0.3,1.4-1,2.2-2.5,1.9c-0.9-0.7,0.1-1.8-0.7-2.8
		c-1.6-1.4-3.7-2.5-6-3.5c-4.4-1.8-8.8-3.8-13.1-5.7c-0.3-0.1-0.6-0.3-0.9-0.5c-4.4-2-8.1-5.1-12.6-6.8c-1.9-2.8-5-3-8-3.6
		c-5.9-1.2-11.8-2.5-17.6-3.6c-1.9-0.4-3.8-0.9-5.5-1.8c-1.8-0.9-3.3-2.1-3.6-4.1c-0.8-1-2.2-0.5-3.1-2.2c-0.6-2.1-1.4-4.8-2.2-7.5
		c-2-7.2-5.7-13.7-8.8-20.4c-3.8-8.5-7.3-17.2-7.7-26.8c-0.2-5.5-0.4-10.9-0.3-16.4c0.2-5.3-0.1-10.6-0.6-15.9
		c-0.3-2.7-1.7-5.4-2.5-8c-0.4-1.3-0.8-2.7-1.3-4.2c3.3,1.8,3.4,2,5.2,8.6c1.3,1,3,0.6,4.5,0.8c4,0.6,8.1,1.1,12.1,1.7
		c5.1,0.7,10.2,0.6,15.3-0.1c3.9-0.5,7.8-0.8,11,1.2c7.4-0.7,14.5-1.1,21.5-2.5c2.8-0.5,5.6-0.5,8.5,1.3c0.8,1.4,2.3,2.7,2.2,4.8
		l0.1-0.1c-2.5,0.5-4.3-1.3-6.4-2.1c-4.9-0.4-15.9,0.9-22.7,2.7c-1.4,7-0.1,13.3,5,18.5c6.4,6.5,14.4,9.4,23.4,9.1
		c2-0.1,3.9-0.2,5.8,0.2c0.8,0.2,1.8,0.1,2.6,0c6.1-1.2,12.1-2.6,17.8-5.2c0.2-0.5,0.3-1,0.5-1.7c5.5-2.1,10.8-5,16.1-7.6
		c8.2-4.1,15.4-9.4,21.4-16.3c3.6-4.1,7.2-8.3,10.7-12.5c1.2-1.3,2.1-2.9,3.5-4c2.8-2.1,3.8-4.9,4.2-8.2c1.1-8,0.7-15.9-1.6-23.6
		c-0.8-2.6-2.1-4.9-4.1-6.7c-0.6-0.6-1.4-1.3-2.2-1.4c-2.4-0.3-4.2-1.6-5.9-3c-2.9-2.3-6.3-3.3-9.9-2.9c-1.6,0.2-3.2,0.2-4.7-0.1
		c-4.9-1.1-9.9-0.9-14.8-1.6c-4.8-0.7-9.5,0.4-14.2,1.2c-1.6,0.3-3.1,0.6-4.7,1c-2.6,0.7-5.2,0.7-7.9,0.1c-5.1-1.1-9.7,0.2-14.1,2.9
		c-1.7,0-3.4,0-5.2,0c-1.6,0-3.2-0.1-4.6-0.9c-2.1-1.2-4.4-1.2-6.7-1.3c-7.6-0.3-15.2,0.5-22.8,1.3c-3.4,0.3-6.7,0.4-10.1,0.4
		c-4.1,0-8.1,0-12.2-0.1c-9.4-0.1-18.7,1.5-27.9,2.9c-2.3,0.3-4.5,0.8-6.8,1.2c-5.4,0.9-10.6,2.5-15.8,4.6
		c-5.4,2.1-10.9,4.1-16.3,6.2c-4.5,1.8-7,5.2-8.7,9.4c-0.4,1-0.7,2-1.2,3.1c0.2,0.9,0.3,1.9,0.6,2.9c5.2,13.6,8.9,27.6,12.2,41.7
		c1.2,5,2.8,9.9,5.2,14.4c5.3,10,10.3,20.2,16.3,29.8c2.6,4.2,5.5,8.2,8.6,12.1c4.7,6,8.3,12.7,11.5,18.7c0.5,1.7-0.6,1.8-0.8,2.6
		c0.3,2.3,1.9,4,3.5,5.7c2.3,2.4,3.7,5.2,4.3,8.4c0.5,2.7,1.6,5,3.1,7c7.7,3.4,15.5,5.4,23.4,7.4c3.4,0.9,6.6,2.4,9.8,3.6
		c6.9-0.2,13.8,1.1,20.7,0c-0.2-0.4-0.3-0.8-0.6-0.9c-2.4-0.7-4.7-1.4-6.9-2.7c-1.3-0.8-3-1-4.5-1.4c-3.9-1.1-7.8-2.3-11.4-4.3
		c-0.7-0.4-1.6-0.7-1.5-1.8c0.5-0.4,1-0.4,1.5-0.2c4.4,1.9,9.1,2.8,13.7,4.1c1,0.3,2.1,0.4,3,0.9c3.2,1.5,6.3,3.1,9.8,3.5
		c0.1,1.1,0.1,2,0.2,2.8c2,1.2,4.2,0.8,6.2,0.4c3.3-0.8,6.6-1,10-1c2.9,0,6,0.1,8.9-1.3c-0.2-0.3-0.3-0.7-0.6-0.8
		c-5.5-2-10.8-4.3-16-6.8c-1.9-0.9-4-1.3-6.1-1.7c-2.8-0.6-5.5-1.2-8.1-2.4c-1.1-0.5-2.3-1-2.8-2.1c0.2-1.2,1.1-1.1,1.6-0.9
		c4.2,1.5,8.5,2.3,12.8,3.2c0.2,0,0.4,0.1,0.5,0.1c4.4,1.8,8.7,3.8,13.3,5.1c2.3,2.6,6,2.8,8.3,4.7c0.4,1.5-0.1,2.4-1,3.1
		c-1.3,1.1-2.7,1.6-4.4,1.7c-1.4,0.1-2.8,0.2-4.2,0c-3.4-0.3-6.7,0-9.9,1.2c-3.2,1.2-6.6,1.4-9.8-0.1c-5.7,1.3-11.5,1.5-17.3,0.6
		c-1.6-0.2-3.2-0.2-4.8-0.4c-1.4-0.2-2.9-0.3-4.1-0.9c-3.3-1.9-6.9-2.7-10.5-3.4c-6.4-1.4-12.5-3.9-18.8-5.6c-2.1-0.6-3.7-2-4.6-4.1
		c-0.7-1.6-1.7-3.1-2-4.9c-0.2-1.6-0.6-3.1-1-4.9c-3-2.2-4.9-5.3-6.4-8.7c-1.6-3.7-3.3-7.4-4.8-11.2c-1.1-2.8-2.6-5.4-4.6-7.6
		c-1.7-1.8-3.1-3.8-4.9-6c-2.4-0.3-5-0.8-7.6-1.1c-9.6-1.1-18.8-3.5-27.3-8c-2.5-1.3-5.1-2.4-7.6-3.8c-2.4-1.4-4.7-3.1-7.2-4.7
		c-0.8,0.1-1.6,0.3-2.7,0.5c-5.8-2.2-11.6-4.7-17.8-6.3c-2.2-0.6-4.4-1.4-6.7-1.7c-5.4-0.6-10.1-2.8-14.9-5.2
		c-1.4-0.7-2.9-1.2-4.4-1.8c-7.2,1.3-14.5,1.3-21.8,1.5c-3,0.1-6,0.6-8.9,1.3c-7,1.7-14.1,3.5-21.3,4.4c-2.3,0.3-4.6,0.4-6.9,0.4
		c-2.4,0-4.8-0.5-7.1,1c-1,0.6-2.7,0.1-4.3,0.1c-1.2-0.8-2.6-1.6-4.3-2.7c-1.9-0.1-4.2-0.2-6.4-0.4c-9.5-0.8-19.1-1.4-28.5-3.1
		c-6.5-1.2-12.8-2.7-18.6-5.9c-0.9-0.5-2-0.8-3-1c-7.5-1.6-14.5-4.7-21.2-8.3c-3.4-1.8-6.8-2.8-10.6-3.1c-6.3-0.4-12.2-2.1-17.1-6.3
		c-1.8-1.5-4.1-2-6.5-2.1c-5.4-0.2-10.4-1.7-15.3-4c-1.4-0.7-3-1.1-4.5-1.6c-3-1-6.2-1.7-9-3.1c-8.1-4-16.8-5.3-25.6-6.1
		c-11.6-1.1-23.2-2.2-34.7-4.3c-4.9-0.9-9.7-2.1-14.6-2.5c-6.7-0.6-13.3-2-19.7-4c-1.8-0.6-3.7-1.2-5.8-0.2
		c-0.2,1.3-0.3,2.7-0.5,4.1c-0.4,2.7-1.2,5.2-3.1,7.2c-2.1,2.2-2.9,4.9-3,7.7c-0.1,4.1-0.9,8.1-0.3,12.2c0.2,1.5-0.5,2.7-1.1,4.1
		c1.3,3.4,4.8,5.9,4.2,10c-1.4,5.6-6.4,7.4-10.7,9.6c-4.6,2.3-9.3,1.1-13.5-1.2c-1.6,0.2-2.1,1.5-3,2.3c-2.3,2.3-4.8,4.2-7.6,5.7
		c-1.4,0.7-2.9,1.5-4.4,1.6c-6.3,0.5-12.6,1.9-18.9,0c-1.5-0.5-3.1-0.6-4.6-1.2c-4.3-1.7-8.5-3.5-12.7-5.3c-1.3-0.6-2.6-1.2-3.7-2.1
		c-5.2-4.3-10-9-13.4-14.9c-0.9-1.5-1.8-3.1-2.7-4.8c0-0.7-0.2-1.6-0.1-2.5c0.4-3.7,0.6-7.4,0-11.1c-0.3-1.8-0.1-3.5,0.6-5.2
		c1.6-3.7,3.3-7.4,6.1-10.5c0.9-5.3-0.8-9.7-4.9-13.2c-1.6-1.4-3.1-2.9-4.7-4.4c-1.3-2.7-2.3-5.5-2.7-8.5c-0.5-3.5-1.1-7-1.6-10.5
		c-1-6.8,0.5-13,4.6-18.5c1.6-2.1,3.3-4.1,4.6-6.5c0.4-0.8,1-1.5,1.6-2.1c2.9-2.5,5.7-5.2,9.6-7.2c4.3,0.8,8.8,1.5,13.3,2.4
		c3.2,0.6,5.9,2.3,8.7,3.8c2.5,1.4,5.1,2.4,8,2.3c3.3,0,6.3,0.9,9,2.6c1.2-1.1,1.2-2.5,1.8-3.8c1.6-3.9,3.3-7.8,6.8-10.6
		c1.8-1.4,3.6-2.1,5.9-1.6c3.6,0.8,7.2,1.7,10.9,2.3c4.9,0.8,9.8,1.3,14.6,2.3c6.2,1.3,12.6,1.6,18.8,3.3c4.1,1.1,7,3.2,7.7,7.9
		c4.9,1.2,10,1.3,15,0.7c1.2,0.8,2.2,1.5,3.2,2.1c8.9,0.6,17.7,1.2,26.5,1.9c2.7,0.2,5.3-0.1,7.9-0.3c9.1-0.8,18.2-2.4,27.5-1.9
		c4.4,0.2,8.8,0.3,13.1,1.6c3.9,1.1,8,1.1,12.1,1.7c3.9,0.5,7.7,1.3,11.2,3.2c5.2,2.8,10.9,3.9,16.6,5.3c2.1,0.5,4.1,1,6.6,1.6
		c4.5-1.7,9.6-3.2,14.8-4c2.3-0.3,4.5-0.6,6.8-0.9c8.5-0.8,16.9-1.7,25.4-2.4c6.2-0.6,12.4-0.7,18.5-1.5c4.7-0.6,9.5-0.9,13.8-3.3
		c0.8-0.5,2.1-0.2,3.5-0.3c4.5-3.1,9.4-6.3,13.9-9.9c9.7-7.7,21-11.5,32.8-14.2c5.5-1.3,11.1-2.2,16.7-2.9c3.3-0.4,6.7-0.3,10.1-0.4
		c2.5,0,4.9,0,7.4-0.7c1.5-0.4,3.2-0.4,4.7-0.4c5.1,0,10.3,0.1,15.4,0c10.4-0.1,19.8,3,28.9,7.7c1.4,0.7,2.8,1.4,4.3,2.1
		c15.9,7,23.2,11.3,36.6,25.1c3.7,0.2,7.6-0.3,11.2-1.6c6.4-2.3,13.1-3.1,19.8-3.5c5.6-0.3,11.3-0.3,17-0.2c7.6,0.2,15.2,0,22.8-0.3
		c6.7-0.3,13.4-0.2,20.1,1.3c2.1,0.5,4.3,0.5,6.3,0c5.8-1.6,11.9-1.9,17.8-2.7c1.9-0.3,3.8-0.6,5.6-1.3c2.5-1.1,5.1-1.3,7.8-1.1
		c2.3,0.2,4.6,0.1,6.8-0.6c5.8-1.7,11.9-1.7,17.8-2.4c5.4-0.7,10.9-1.3,16.3-1.9c0.7-0.1,1.3-0.4,2.1-0.7c0.2-2.1,1-4.1,0.8-6.3
		c-0.1-1,0-2.1,0.2-3.2c0.4-2.7,1.7-4.6,4.6-5c-0.1,1.9-1.8,3-2.4,4.8c0,1.3-0.1,2.7,0,4.1c0.1,1.5-0.9,3-0.2,4.8
		c4.5-1,8.9-0.2,13.2,0.2c6.8,0.5,13.7,1.2,20.5,1.3c6.2,0.1,12.3,0.3,18.3,1.7c1.5,0.3,3.1,0.7,4.7,0.1c-0.2-0.1,0.4,0.6-0.1,0.1
		c-4.8-3.3-10-5.9-15.6-7.6c-2.2-0.7-4.3-1.6-6.2-2.8c-3.9-2.5-8-4.3-12.8-4.8c-2.4-0.2-4.9-0.9-7.2-1.8c-2.6-1.1-5.1-1.2-7.8-0.6
		c-1.5,0.4-3.1,0.9-4.7,0.7c0.5-1.5,1.7-2.3,3.1-2.6c2.6-0.6,5.2-1,7.9-0.3c4.2,1.2,8.5,2.1,12.9,2.6c3.5,0.4,6.9,1.7,9.9,3.5
		c2.2,1.3,4.4,2.1,6.8,2.9c6.8,2.2,12.8,5.9,18.4,10.3c2.3,1.9,4.9,3.3,6.6,5.6c1.8-0.3,2.1-1.7,2.7-2.7c3-5.2,6-10.4,9.5-15.4
		c1.5-2.2,3.9-3.5,5.4-5.7c1.4-2.2,3.2-4.2,5.1-6.1c1.8-1.7,3.7-3.3,5.8-4.6c9.2-5.8,19-10.1,29.6-12.6c3.1-0.7,6.3-1.1,9.3,0.6
		c1.9-0.6,3.7-1.3,5.8-2c1.6,1,3.7,1.5,5.7,2.1c3.8,1.2,6.3,3.8,7,7.9c0.1,0.5,0,1.1-0.2,1.6c-0.1,0.3-0.5,0.4-0.7,0.6
		c-1.1-0.2-1.1-1.2-1.4-2c-1.4-3.2-3.9-4.9-7.3-5.3c-1.9-0.3-3.8-0.6-6.4-0.2c-7,5.8-13.8,12.3-17.6,21.3c-1.4-0.3-1-1.1-0.8-1.6
		c2.2-5,5-9.8,8.5-14c1-1.2,2.5-2,2.7-4.1c-3.3-0.9-6.2,0.1-9.1,1.3c-12.9,5.4-21.4,15.3-27.9,27.2c-1.8,3.2-3.1,6.8-4.6,10.1
		c-1.6,3.6-2.5,7.4-2.3,11.3c0.4,0.7,1,0.9,1.8,0.8c1.2-0.6,1.3-2,1.6-3.1c3.1-10.5,8.5-19.8,15.4-28.2c2.5-3.1,4.7-6.6,8.1-9
		l0.4,0.4c-0.5,2-2.1,3.2-3.3,4.7c-5.3,6.6-10.4,13.3-14.2,21c-5.1,10.3-7.8,21.1-8.2,32.6c-0.3,6.7,0,13.4,1.3,20
		c0.1,0.5,0.4,0.9,0.6,1.3c0.8,0.4,1.1-0.1,1.3-0.6c1.9-4.9,3.7-9.9,5.6-14.8c1-2.7,1.3-5.5,1.9-8.2c1.2-5.9,3-11.6,5.3-17.1
		c0.3-0.6,0.4-1.4,1.3-1.5l-0.1-0.1c-1.1,4.1-2.1,8.2-3.2,12.2c3.4,4.8,3.2,10.1,2.7,15.4c-0.1,1.7-0.8,3.5-0.4,5.3
		c0.5,0.1,0.9,0.2,1.7,0.4c-2.9,7.3-6.1,14.6-4.8,23.7c1.6-5.8,3-10.7,5-15.4c3-6.8,6.8-13.2,11.1-19.2c0.4-0.6,0.8-1.2,1.6-1.2
		l-0.1-0.1c0.1,1.9-1.2,3.3-2.1,4.7c-3.4,5.8-6.6,11.7-9.2,17.9c-2.1,5.1-3.6,10.3-4.6,15.7c-0.2,1.2-0.5,2.5,1,3.2l-0.1-0.1
		c-0.5,0.9-1.1,1.8-1.5,2.5c0,3.9,1.3,7.1,2.9,10.3c1.3,2.7,2.6,5.4,1.5,9.4c-0.6-3.1-2.1-4.9-3.3-7c-3.8-7-5.6-14.5-5.1-22.5
		c0.1-1.9,0.2-3.9,0.3-6.3c-2.4,1.5-3.2,3.7-4.4,5.4c-1.3,1.9-3,3.4-4.7,5c-1.5,1.5-3.1,2.9-4.7,4.2c-1.7,1.4-3,3.4-5.3,4.1
		c-0.4-1.6,0.9-2,1.5-2.7c0.8-1,1.7-1.8,2.4-2.8c0.6-0.9,1.1-1.8,1.6-2.8c1-0.8,2.3-1.3,3.1-2.5c1.4-2,2.7-4.2,4-6.2
		c4.5-6.7,4.8-9.6,4.2-17c-0.5,0.5,0.3-0.4-0.3-0.2c-0.2,0-0.4,0.1-0.4,0.3c-1.4,3.5-2.7,6.9-4,10.4c-0.3,0.8-0.5,1.7-0.7,2.6
		c-0.1,0.7-0.2,1.4-0.3,2c-0.6,0.3-1.1,0.4-1.6,0.6l0.1,0.1c0-2.6-0.1-5.2-0.9-7.8c-0.9-2.9-1.2-6.1-2-10c-0.6,2.5-1.1,4.2-1.3,5.9
		c-0.9,7.7-2.9,15.2-5.2,22.7c-1.7,5.5-4.8,10.2-8.6,14.4c-1,1.1-2.2,1.8-3.7,0.8c-0.4-0.8-0.2-1.4,0.5-2c0.6,0,1.2,0,1.9,0
		c1.5-2.3,2.1-4.9,2.4-7.5c0.4-3.9,0.8-7.7,1.3-11.6c1.3-10,3.3-19.8,5.6-29.6c2.3-9.8,4.3-19.6,6.4-29.4
		c2.7-12.4,8.3-23.2,17.1-32.3c0.5-0.5,0.9-1.1,1.3-1.6c0.1-0.2,0.2-0.3,0.3-0.4c0,0.1-0.1,0.3-0.1,0.5c-0.9-0.3-1.7,0-2.5,0.5
		c-5.8,3.5-11.3,7.3-15.9,11.7c-1.1,1.5-0.6,3-1.2,4.3c-4.4,9.1-7.8,18.5-10.7,28.2c-3.5,11.7-6.7,23.4-10.9,34.9
		c0,0.1,0.1,0.3,0.2,0.5c1.3-0.3,1.8-1.5,2.5-2.4c4.9-6.6,8.4-13.9,10.7-21.7c1.5-5.1,2.8-10.2,4.2-15.3c0.3-1.2,0.4-2.5,1.8-3.1
		c0.8,0.9,0.5,2,0.3,3c-0.8,4.9-1.5,9.7-2.7,14.6c-3.3,13.9-10.8,25.2-21.2,34.7c-1.8,1.7-3.8,3.2-5.4,5c-2.1,2.4-4.5,4.4-7.4,5.8
		c-0.6,0.1-1-0.1-1.3-0.7c0.1-0.3,0.1-0.7,0.3-0.9c10.1-8.1,10-8.6,13.5-20c1-3.2,1.8-6.5,2.7-9.7c0.3-1.2,0.7-2.4,0.2-3.6l0.3-0.1
		l-0.2,0.2c-1.3,0.4-2.2,1.3-2.6,2.4c-2.4,5.5-7.2,8-12.4,9.8c-4,1.4-8.2,1.5-12.4,0.1c0.1-0.5,0.1-0.8,0.2-1.1
		c8.2-0.4,8.2-0.4,12.3-2.8c0.5-0.1,1-0.1,1.5-0.2c-0.6-0.4-1.1-0.4-1.4,0.4c-1.8-0.2-3.5,0.2-5.2,0.5c-3.9,0.8-7.7,0.2-11.4-1.2
		c-0.4-0.1-0.7-0.6-1.2-1c7.4,0.8,12.9-0.1,17.8-2.7l-0.2,0.1c3.2,0.1,5.6-1.7,8.3-3.1c3.7-1.9,6.6-4.6,7.9-8.7l-0.1,0.1
		c0.5-0.2,1-0.3,1.7-0.5c1.5-5.1,3.1-10.3,4.6-15.5c0.2-0.6,0-1.4,0-2.1c0.8-0.2,1.1-0.6,0.4-1.4c-0.1,0.6-0.2,1.1-0.3,1.5
		c-1.8,1.5-2.5,3.7-3.6,5.6c-2.5,4.6-5.3,9-8.6,13.1c-1.1,1.3-2,2.9-3.8,3.5l0.1,0.1c-0.2-0.7-0.3-1.3,0.2-2c1.1-1.5,2.3-3,2.8-4.9
		c-1.5-0.9-2.9-0.1-4.2,0.1c-5.4,0.6-10.5-0.3-15.4-2.7c-1-0.5-2.4-0.9-2.4-2.5l-0.1,0.2c5.5,1.4,11.1,2.3,16.8,2.1
		c2.3-0.1,4.6-0.5,6.8-1.2c0.4-0.1,0.8-0.6,1.1-0.9c-0.2-1.2-1.1-0.6-1.6-0.8c-0.5-0.1-1.1,0-1.6,0c-5.6-0.1-10.8-1.5-15.9-3.7
		c-3.2-1.4-4.1-2.3-6.5-5.4c1.5-0.5,2.3,0.7,3.3,1.1c1,0.4,1.9,0.9,2.9,1.3c1.2,0.4,2.3,0.8,3.3,1.1c7.4-1.6,17.2-6,21.2-9.4
		c0-1.1-0.9-1.5-1.7-1.8c-3.1-1.2-6.5-1.9-9.8-2.2c-3.2-0.3-6.3-0.8-9.5-1.1c-4.2-0.4-8.3-1-12.6-0.4c-3.6,0.5-7.4,0.1-11.1,0.1
		c-2,1.2-4,2.3-5.7,3.4c-0.3,1.6,0.5,2.3,1.1,3.1c2.4,3.3,4.7,6.6,6.2,10.4c3.2,8.3,4,16.8,1.6,25.4c-0.3,1-0.9,2.1-0.7,3.1
		c0.6,3.8-1.3,6.8-2.9,10c-5.9,12.1-12.6,23.7-19.5,35.3c-2,3.3-3.4,7-5.8,10.1c-0.7,0.9-1.1,2.2-1.1,3.5c0.1,1.5,0.8,2.7,2,3.8
		c1.7,0.6,3.6,1.1,5.5,0.2c0.3,0.5,0.5,1.2,1.7,0.5c-0.8-0.2-1.3-0.3-1.8-0.4c1.3-2.8,3.8-4.1,6.3-5.3c3.2-1.5,6.4-2.9,9.7-4.3
		c2.8-1.2,5.2-2.8,7.6-4.8c4.5-3.8,9.5-6.9,15.5-7.4c3.5-0.3,7.1,0,10.6,0.1c2.1,0.1,4.2,0.4,6.4,0.6c3.9,1.9,7.9,3.7,11.2,8.5
		c1,3.2,0.8,7.9,2.5,12.2c1.6,4.1,3.3,8.1,5.1,11.9c2.1,1.4,4.1,1.6,6.3,1.1c2.7-0.7,5.5-1.3,8.1-1.9c2.7,0.2,4.3,2.6,6.8,2.9
		c0.9-0.6,0.5-1.2,0.1-1.7c-0.8-1-1.6-1.8-2.4-2.7c0-0.7,0.2-1.1,1.1-1.4c2.4,1.7,5.2,3,8.3,3.5c1.9-1.2,3.6-2.4,5.3-3.5
		c0.9,0.3,1.5,0.5,2.2,0.7L957.2,438.7z M895.8,337.9c-0.3-0.2-0.6-0.4-0.9-0.5c-0.6-0.4-0.1,1,0,0.3c0.3,0,0.7,0.1,1.1,0.1
		c0.5,0.7,1.1,1.1,2.2,0.5C897.2,338.1,896.5,338,895.8,337.9z M640.9,343.3c-2.9,0-3,0.1-3.1,3.2c-0.8-0.1-1.1,0.3-1.1,1
		c-2.9,0.4-5,2.6-7.5,3.7c-8,3.6-14.9,8.8-21.1,14.9c-6,6-12.1,12-17.6,18.4c-0.8,0.9-1.6,2.1-2.7,2.5c-2,0.8-3.1,2.3-4.2,3.9
		c-5.8,8.2-10,17.1-11.4,27.3c1.1,4.5,1.1,4.5,3.8,7.8c7.2,1.9,14.9,3.6,23,2.9c3.4-0.3,6.7-0.2,10.3,0.7c-1.7,1-3.7,0.8-5.1,2.2
		c5.8,2.7,12,4.2,17.7,7c5.2,2.6,10.8,4.5,15.9,7.3c8.1,4.2,16.7,6.7,25.6,8.4c1.4,0.3,2.8,0.7,4.2,0c0.1,0.1,0.1,0.2,0.2,0.3
		c-0.1-0.1-0.2-0.1-0.3-0.2c-1.6-4.7-4.3-8.8-6.9-13c-4.4-7-8.4-14.3-12-21.7c-1.9-3.8-3.3-7.8-4.5-11.8c-2.8-9.3-4.9-18.7-6.8-28.2
		c-0.6-2.9-1.3-5.8-2.3-8.6c-1.8-5-3.2-10.1-3.4-15.4c2.4-2.4,3.6-5.5,5.1-8.5c0.7,0,1.1-0.4,1.1-1.1c1.4-0.7,2.4-1.9,3.1-3.2
		c0.4-0.1,0.8-0.2,1.4-0.4C641.2,342.4,641,342.7,640.9,343.3z M264.9,328.3c2.4,0.1,4.9,0.2,7.3,0.1c1.6,0,2.9-0.9,3.9-2
		c-0.5-1.2-1.5-1.2-2.2-1.5c-1-0.4-1.1-1.9-3-1.7C268.4,323.7,266,325.1,264.9,328.3c0,0.1-0.2,0.1-0.3,0.2c-0.1,0,0,0.2,0,0.3
		C264.6,328.6,264.7,328.4,264.9,328.3z M922.2,394c1.3-0.9,1.4-2.4,1.8-3.7c3.8-12,5.8-24.3,6.7-36.9c0-0.6,0.2-1.3-0.5-1.9
		c-0.2,0.5-0.4,1-0.5,1.5c-2.7,10.6-4.7,21.4-6.2,32.2c-0.4,3-1.4,5.9-1.1,8.9c-0.2,0.3-0.8,0.5-0.5,1.1
		C921.9,394.8,922.1,394.4,922.2,394z M391.6,349.2c-3.4-1.8-6.4-1.6-9.4-1.5c-2.1,0-4.2,0.6-6.3,0c-4.4-1.3-8.9-2.4-12.9-4.8
		c-5.8-3.6-12.1-5.8-18.6-7.6c-8.5-2.4-17.2-4-26.1-3.8c-3.4,0.1-6.7-0.2-10.1-0.5c-6.9-0.5-13.7-1-20.5,1c-2.2,0.6-4.5,0.6-6.8,0.8
		c-7.1,0.4-14.1,0.8-21.2,1.7c-3.2,0.4-6.3,0.5-9.5-0.1c-1.2-0.2-2.5-0.4-3.7-0.3c-5.3,0.7-10.6,0.6-15.9,1.2
		c-4.8,0.6-9.1-0.1-13.4-2c-1.1-0.5-2.3-1.3-3.4-1.2c-2.5,0.2-4.8-0.7-7.1-1.1c-5.7,4.6-8.3,11.4-13.1,16.1c-0.8,5,0.1,9.2,3.1,13.2
		c1.5,2,2.6,4.2,3.7,6.4c1.9,3.9,4.8,6.9,8.1,9.5c0.7-0.2,1.2-0.4,1.6-0.6c0.2-0.9,0.4-1.7,0.6-2.6c0.7-0.3,1.3-0.6,2-0.7
		c8.6-1.8,17.3-1.8,25.9-1.2c5.8,0.5,11.6,0.7,17.5,0.8c9.2,0.2,18.3,1.5,27.1,4.3c5.5,1.7,11.3,2.7,17,4c0.3,0.1,0.7,0.1,1.1,0.1
		c8.5,0.2,16.9,1.6,25.4,2.4c5.3,0.5,10.5,1.3,15.8,2.1c2.1,0.3,4.2,0.5,5.8,2.2c0.3,0.4,0.9,0.6,1.4,0.7c5,0.6,9.3,3.3,14,4.8
		c3,0.9,6.1,2,8.6,3.6c5.3-1.1,10.1,0.9,15.8,2.4c-1-1.2-1.4-1.8-1.9-2.1c-1.3-0.9-2.7-1.6-4-2.5c-0.4-0.3-1.4-0.6-0.5-1.8
		c3.2,1.4,6.6,2.3,9.4,4.4c5.7,4.2,12.4,6.8,18.6,10.1c0.8,0.4,1.7,0.6,2.5,0.9c4.3,1.4,8.6,3.3,13.1,4c1.4,0.2,2.7,0.9,4,1.5
		c10,4.6,20.4,7.9,31,10.7c4.1,1.1,8.2,2.2,12.5,2.3c7.1,0,14.1,1.2,21.2,1.6c0.7,0,1.4,0.2,2-0.8c-6.9-13.1-12-26.9-13.2-42.1
		c0.2-0.8,0.6-1.8,0.8-2.8c0.1-1.2,0-2.5,0-3.7c-0.2-12.4,2-24.3,6.8-35.7c1.1-2.6,2.3-5.2,3.3-7.8c0.3-0.8,0.8-1.6,0.2-2.4
		c-0.2-0.1-0.3-0.3-0.4-0.3c-8.5,1.7-17.2,1.9-25.8,3c-8.1,1-16.2,1.7-24.3,2.7c-4,0.5-8.1,1-12.1,1.7c-2.4,0.4-4.8,1.4-7.2,1.7
		c-9.7,1.4-18.8,4.6-28.2,7.2c-0.5,0.8-0.9,1.6-1.5,2.5c-8.4,2.8-16.8,1.9-25.5-1.8c3.7-1.1,6.3,0,8.6,2.2
		C382.2,350.4,386.6,349.8,391.6,349.2z M617,311.1c-2.2-0.4-3.9-1.1-5.5-0.9c-2.7,0.4-4.9-0.5-7.1-1.5c-1.8-0.8-3.5-1.6-5.3-2.5
		c-2.9-1.4-5.9-2.2-9.2-2.2c-3.7-0.1-7.4-0.6-11.1-0.6c-6.5-0.1-13.1,0.1-19.5,1.2c-12.6,2.3-24.4,6.9-36.3,11.8
		c-1,1.8-2.6,3.3-4.4,4.4c-3.6,2.3-7.3,4.4-11.4,5.6c-1.8,0.6-3.9,0.6-5.7,2c-0.4,1-0.9,2.1-1.3,3.2c-1.7,4.5-3.2,9-5,13.4
		c-5,12.2-8.9,24.6-10,37.6c1,3.7,1.9,7.3,2.8,10.9c1.5,6,3.1,12,5.3,17.8c1.2,3.2,2.6,6.2,4.9,8.7c0.5,0.5,0.8,1.2,1.1,1.7
		c-0.1,1-0.2,1.8-0.2,2.6c0.7,1.4,1.5,2.6,3.1,3.8c5.3,0.1,11.2,0.4,17,0.4c3.3,0,6.7-0.1,10-0.5c7.5-1,14.9-3.2,22.5-3.1
		c4.3-1.2,8.7-1.1,13.1-1.5c1.2-0.1,2.5,0.1,3.5-0.8c1.3-3.8,2.3-7.7,2.6-11.8c0.8-10.8,5.4-20,12.8-27.9c0.6-0.6,1.2-1.3,1.8-1.9
		c2-2,4.3-3.7,6-5.9c3.4-4.1,7.4-7.6,11-11.5c0.8-0.9,1.5-2.1,2.8-2.3c1.7-0.3,2.7-1.7,3.9-2.6c1.9-1.5,3.8-3.2,5.8-4.6
		c7.7-5,15.5-9.9,23.6-14.2c3.5-1.8,7-3.3,10.8-4.3c4.1-1.1,8.2-2,12.4-3c1-0.2,2.1-0.2,3.1-1.6c-1.8-1.8-3.8-3.5-5.5-5.4
		c-2.4-2.7-5.3-4.5-8.6-6c-8.7-3.9-17.4-7.9-26-11.9c-2.1-1-4.3-1.6-6.6-1.5c-0.5,0-1-0.2-1.5-0.3c-0.5-0.8-1-1.5-1.4-2
		c-5.4-1.4-8-1.5-11-0.5c1.8,1.8,4,2.3,6.1,3C613,307.2,615.3,308.3,617,311.1z M160.3,362.8c1.7,1.6,3.1,3,4.5,4.3
		c4.9,4.4,6.6,9.9,5.5,16.3c-0.3,1.6-0.6,3.1-1.4,4.5c-0.7,1.2-1.2,2.6-1.4,4c-0.9,6.3-1.8,12.6-2.6,18.6c1.3,4.1,3.2,7.4,6,10.2
		c1.1,1.1,2.2,2.3,3.1,3.7c1.7,2.6,4.2,4.3,7,5.4c3.1,1.2,6.4,2.2,9.4,3.7c5.2,2.5,10.7,3.4,16.5,3.2c2-0.1,3.9,0.2,5.6,0.7
		c3.4-1.6,6.8-2.7,9.4-5.4c0.8-2.2,1.7-4.4,2.5-6.5c-1-1.9-2.4-3.5-2.4-5c0-1.9-0.9-3.1-1.9-4.1c-2.4-2.2-3.9-4.9-5.3-7.8
		c-0.1-0.3-0.6-0.4-1-0.6c-0.6,0.1-1.3,0.3-1.9,0.5c0.4,0.8,1.4,1.2,1.1,2.4c-1.8,2-3.8,0-6.5,0.5c1.3-0.9,2-1.3,2.7-1.8
		c-2.6-1.2-5.6-0.7-8-2.1c-0.1-1.4,0.8-1.9,1.6-2.1c1.5-0.4,3.1-0.5,4.7-0.8c1.9-0.3,3.9,0,5.6-0.8c0.4-1.4,1.8-2.4,0.9-3.9
		c-0.3,0-0.5-0.1-0.7,0c-0.3,0.2-0.5,0.5-0.8,0.6c-4.1,1.9-8.3,3.1-12.7,1.6c-0.8-0.3-1.6-0.7-1.4-1.8c0.7-1.2,2.6-0.9,3.1-2.4
		c-2.2-1-5.1-0.5-6.6-2.9c0.1-0.2,0.2-0.4,0.3-0.6c0.9-1.5,3-0.9,4.1-2.5c-0.9-0.6-2-1.1-2.8-1.9c-0.8-0.7-1.3-1.7-0.2-3
		c7,0.1,14-2.1,21.8-2.8c1.1-1.4,3.4-2,4.9-3.2c1.3-1.3,1.5-2.8,2-4.1c0.1-0.2-0.2-0.6-0.5-1.4c-2.8,1.3-5.7,2.6-8.6,3.5
		c-3,1-6,1.9-9.3,1.9c-2.8-3.5-5.6-6.9-8.2-10c-0.3-1.2,0.4-2.1-0.6-3.3c-2.1-2.2-4.1-5.2-5.8-8.2c-1.9-3.4-2.1-7-1.3-11
		c0.7-0.6,1.5-1.3,2.2-1.9c2-7.3,5.4-13.6,11.3-18.2c0.9,0,1.6-0.1,2.2,0c0.7,0.1,1.4,0.2,2.1-0.2c0.6-0.6,1.3-1.1,1.4-2.1
		c-1.5-1.8-3.5-2.1-5.7-1.8c-4.5,0.5-8.4-0.9-12-3.4c-5.6-4-12.2-4.2-18.6-4.8c-0.3,0-0.6,0.3-1.2,0.5c-1.4,2.9-3.7,5.3-6.2,7.6
		c-3.6,3.4-6.6,7.4-8.8,11.8c-0.7,1.4-1.3,2.9-1.2,4.5C157.2,347.8,157.6,355.4,160.3,362.8z M885.4,452.8c4.3,1.3,8.7,2.3,13.4,1.8
		c2.2-0.3,4.2,0.5,5.9,1.9c2.2,1.7,4.7,2.2,7.4,2.5c3,0.3,6-0.1,8.9-0.9c4.2,1.4,8.5,2.1,13.5,1.5c-1.2-0.7-1.7-1.1-2.3-1.3
		c-2.1-0.8-4.4-1.3-6.4-2.4c-2.7-1.5-5.6-2-8.6-2.4c-4.2-0.5-8.4-1.2-12.3-3.1c-0.6-0.3-1.2-0.6-0.8-1.8c4.7,1.2,9.3,2.8,15.1,2.7
		c-3.3-1.1-5.9-1.6-8.2-2.8c-1.9-1-3.9-1.6-6-2c-7.1-1.4-14.1-3.2-21.3-3.6c-0.9-0.8-1.6-1.7-2.5-2.2c-1-0.6-2.2-0.9-3.7-1.4
		c0.7-2.7,0.3-5.3,0.2-7.9c-0.1-2.6-0.4-5.3-0.6-7.9c-0.1-2.6,0.5-5.2-0.2-7.8c-1.8-0.1-3.1,0.7-3.9,1.7c-2.9,3.8-7,5.9-11.1,8
		c-2,1-4,2.1-5.6,4c1.5,5.7,2.7,11.4,2,17.2c2.1,4.4,4.2,8.7,6.2,12.8c2.1,0.6,4.1,1,5.8,1.8c4.4,2,8.9,1.9,13.5,1.2
		c3-0.5,5.9-0.8,8.7-1.2c1.1,0.5,1.9,0.8,2.7,1.2c2.4,0.9,4.7,1.4,7.2,0.4c0.3-0.1,0.6-0.4,1-0.7c0.4-1.3,0.5-2.6-0.3-3.9
		c-1-0.8-2.1-1.4-3.8-1.6c-5.1,2-9.9,0-14.6-2.3C884.6,453.6,884.9,453.1,885.4,452.8z M249.5,379.9c-2-1.2-4-1.9-4.7-3.7
		c-5.5-0.9-10.7-2.1-16-0.4c-0.3,1.1-0.6,2.1-0.7,3.2c-0.4,3.8-2.6,6.1-6.2,7.1c-0.9,0.2-1.7,0.6-2.3,2c1.4,2,1.1,4.6,0.9,7.3
		c-0.2,2.7-1.7,5-2.2,7.5c0.4,5.1,2.4,9.2,5.9,12.8c1.5,1.5,3,3,4.5,4.5c0.4,0.4,0.5,0.9,0.8,1.4c-0.1,1-0.2,2.1-0.3,3
		c0.9,1.3,1.6,2.5,3.1,3.2c1.9,0.1,4.1,0.2,6.2,0.4c4.6,0.6,8.2-1.6,11.6-4.2c1-0.8,1.6-1.9,1.7-3.4c-0.2-1.2-1-2.4-1.8-3.6
		c-1.6-2.3-2.7-4.6-1.6-7.4c0.2-0.4,0.1-1.1,0-1.5c-0.8-2.3-0.4-4.6-0.2-6.8c0.2-3,0.6-6,0.8-8.7c-0.6-1.6-3.2-1.9-1.9-4
		c1-1.6,4,0.3,4.6-2.4c-5.1-2.1-5.1-2.1-6.4-4.2c0.3-0.4,0.5-0.9,0.9-1.4C247.1,380.4,248.2,380.2,249.5,379.9z M222.1,311.9
		c-2.6,5.8-7.1,10.9-7.5,17.5c1.1,1.1,2.2,0.9,3.2,1c1.9,0.2,3.9,0.1,5.8,0.4c4.6,0.8,9.2,0.6,13.7,0.2c3.2-0.2,6.3-0.5,9.5-0.7
		c4.4-0.3,8.8-0.6,13.3-1c0.6-1.9,1.6-3.3,2.9-4.5c1.5-1.3,2.9-2.6,4.4-3.8c1.3-1.1,3.3-0.9,4.9-2.7c-3.5-0.9-6.5-1.5-9.7-1.8
		c-2.6-0.3-5.3-0.6-7.8-1.2c-3.6-0.9-7.3-1.5-11-1.6c-4.2-0.2-8.4-0.8-12.3-2.8c-1.2-0.6-2.7-0.9-3.9-1.2
		C225.8,310.2,224.1,310.5,222.1,311.9z M727.4,464.9c-1.8-1.5-1.9-3.9-3.3-5.5c-5.9-6.6-8.5-15-11.6-23c-0.3-0.8-0.4-1.7-0.5-2.6
		c-0.1-3.4-1-6.6-1.6-9.9c-1-5.7-1.8-11.5-1-17.4c0.6-4.3,1.2-8.7,1.8-12.9c-0.7-0.9-1.5-1.1-2.4-1.2c-1.9-0.4-3.8-0.7-5.7-1.1
		c-0.9-0.2-1.8-0.3-2.3,0.5c0.3,3.2,0.5,6.4,0.9,9.6c0.4,3.2,0.1,6.4-0.1,9.5c-0.3,5.5,0,10.9,0.6,16.4c0.1,1.2,0.4,2.4,0.8,3.6
		c3.9,11.7,9.2,22.9,14.5,34.1C720.8,465.6,723.9,465.3,727.4,464.9z M344.5,330.5c3.6,1.4,7.2,2.8,10.8,4.2
		c2.3,0.9,4.7,1.7,6.7,3.2c2.9,2.2,6.2,3.4,9.4,4.7c2.8,1.1,5.7,1.7,8.8,1.2c2.4-0.4,4.9-0.5,7.4-0.1c4.4,0.9,8.8,0.5,13.1-1
		c2.3-0.8,4.8-1.3,7.2-1.9c0.5-0.1,1.1-0.1,1.1-0.9c-0.2-0.6-0.6-1-1.1-0.8c-2.8,1.2-5.3,0.6-7.8-0.7c0.4-0.5,1.4-0.3,1.3-1.4
		c-5.7-1.8-11.2-3.9-17.3-4.8c-5.6-0.8-11.1-2.4-16.7-2.9C359.7,328.7,352.1,328.8,344.5,330.5z M925.5,452.8
		c4.9,3.3,10.7,3.5,16.1,5.9c1.6-0.9,4-0.6,5.6-2.5C939.8,455.1,932.7,453.9,925.5,452.8z M948.2,347.1c-1.5,5.4-2.4,13.3-1.8,17.3
		c2.2-4.6,2.6-9.3,2.9-14C949.5,349.2,949.5,347.9,948.2,347.1z M911.1,331.9c-2.4,1-4.6,1.9-6.9,2.9c-0.2,0.1-0.4,0.5-0.6,0.7
		c3.1,0.1,4.7-0.2,6.8-1.4C911.1,333.7,911.6,333.2,911.1,331.9z M211.3,395.7c0.1,0.6,0.5,0.9,1,0.9c0.1,0,0.4-0.6,0.3-0.8
		C212.3,395.2,211.8,395.4,211.3,395.7z M252.8,381c0-0.1,0-0.3-0.1-0.4c-0.1-0.1-0.3-0.1-0.5-0.1c-0.4,0.2-0.4,0.4,0.1,0.6
		C252.5,381.2,252.7,381.1,252.8,381z M906.8,338.5c0.4,0.6,0.8,0.5,1.3,0.1C907.7,337.9,907.2,338.1,906.8,338.5z"/>
	<path d="M957.4,438.8c-0.1-0.7-0.2-1.4-0.1-2.1c0-0.3,0.4-0.5,0.7-0.8c3,1.7,4.3,5.8,8.4,5.9c1.3-0.4,1.9-1.5,2.6-2.5
		c1.4-2.2,2.9-4.4,4.3-6.7c2.4-4.1,6.1-6.8,9.9-9.4c1.2,0,2.2,0,3.3,0c10.4-0.1,18.6-4.7,25.1-12.7c0.9-1.1,1.8-2.2,2.7-3.2
		c1.3-1.4,2.7-2.8,4-4.2c10.6-11.1,14.5-24.4,12.8-39.4c-0.2-1.4-0.2-2.8-0.4-4.2c-0.5-4.9-1.4-9.8-3.1-14.5
		c-1.6-4.1-3-8.3-4.6-12.4c-1.5-3.8-3.8-7.2-6.8-10c-0.3-0.3-0.9-0.3-1.4-0.5c0-0.8-0.4-1.1-1.2-0.9c0.1,0-0.2-0.3,0.1-0.1
		c0.2,0.5,0.4,1,1.1,1c-0.2,1.2,0.6,1.9,1.2,2.8c1,1.6,2.1,3.2,3.1,4.9c-1.5,0.9-1.8-0.1-2.2-0.7c-2-3.4-4.6-6.3-7.7-8.7
		c-0.4-0.3-0.8-0.5-1.7-0.9c0.3,1.9,1.5,3,2,4.4c0.6,1.5,1.2,2.9,1.7,4.4c0.5,1.5,0.9,3.1,1.2,4.6c0.3,1.6,0.5,3.1,0.7,4.7
		c0.2,1.6,0.4,3.2,0.6,4.7c0.1,1.5,0.2,3.1,0.4,5.6c-1.6-2-1.1-3.4-1.4-4.7c-0.3-1.4-0.5-2.8-0.9-4.1c-0.4-1.4-1-2.7-1.5-4
		c-0.6-1.5-1.2-2.9-1.9-4.4c-0.6-1.3-1.3-2.5-2.1-3.7c-0.8-1.1-1.7-2.2-2.8-3.2c-1-0.9-1.7-2-2.3-3.4c-0.4,1.8,0,3.3,0.4,4.9
		c1,4.1,1.9,8.3,2.7,12.4c2.3,11.4,0.9,22.5-3.3,33.3c-1.7,4.3-3.6,8.4-5.4,12.6l0.1-0.2c-0.7,0.6-1.1,1.4-1.2,2.3l0.1-0.2
		c-1,0.5-1.2,1.3-1.2,2.3l0.1-0.2c-1.4,0.3-1.7,1.6-2.4,2.6c-2.1,3-4.1,6.1-6.2,9.2c-0.5,0.7-0.9,1.5-1.9,1.7
		c-1-0.4-0.6-1.1-0.2-1.7c1.8-2.6,3.6-5.2,5.4-7.8c0.6-0.9,1.3-1.7,1-2.9c1.3-0.3,1-1.3,1-2.2c0.1-0.1,0.3-0.2,0.4-0.3
		c-0.1,0.1-0.2,0.3-0.3,0.4c-0.8,0.5-1.1,1.2-1,2.1c-1.7,0.5-2.3,2.1-3.2,3.3c-5.2,6.3-11.2,11.7-18.4,15.7
		c-1.2,0.7-2.5,1.3-3.8,1.9c-0.7,0.3-1.4,0.2-2.1-0.5c0.4-2,2-3,3.6-4.1c5-3.3,9.6-7.1,13.9-11.3c3.3-3.2,6-6.9,8.2-10.9
		c0.6-1.1,1.3-2.1,1.8-3.2c0.5-1.1,2.4-0.9,2.1-2.5l-0.1,0.1c1.6-1.8,1.2-3.9,1.2-6c0-0.9-0.3-1.8,0.8-2.4c1.9,0.4,1.5,2,1.6,3.3
		c0.1,1.2,0,2.5,0,3.7c1.2-0.5,1.3-1.7,1.6-2.6c3.2-9.1,5.2-18.4,4.6-28.1c-0.2-3.4-0.5-6.7-1.3-10c-1-4.4-1.4-9-3.1-13.3l0.1,0.2
		c-0.1-5.8-0.3-11.7-0.4-17.5c-0.1-3.6,0.4-7.1,1.9-10.4c0.4-1,0.8-2,2.4-2c1,3-1.5,5.2-1.7,8.5c1.9,2.8-1,6.4,0.4,10
		c5.9,1.4,11.1,4.7,16.5,7.7c5.3,3,8.6,7.9,10.4,13.6c0.9,2.9,1.9,5.7,3,8.5c3.6,9.7,5.5,19.7,6.4,30c0.5,5.5-0.9,10.9-3,16
		c-3.6,8.4-8.3,16-15.3,22c-1.1,0.9-2,1.8-2.7,3.2c-2.1,4.3-5.8,7-9.9,9.3c-1.5,0.9-3.2,1.4-4.8,2.3c-4,2.2-8.2,3.3-12.7,3.5
		c-2.1,0.1-4.2,0.5-6.5,1.6c-3.1,3.4-6.6,6.9-8.7,11.5c-1.3,2.7-2.7,3.5-6.7,5c-2.4-0.7-4.3-2-5.8-4.2c-0.6-0.8-1.5-1.4-2.3-2.1
		L957.4,438.8z M1000.3,316.2c0.7,0,1-0.4,0.8-1c0-0.2-0.7-0.4-0.8-0.3C999.7,315.3,999.9,315.8,1000.3,316.2z"/>
	<path d="M976.4,387.9c-0.3-2,1.1-3.3,1.9-4.8c3.7-7.2,7.2-14.5,10.1-22.1c4.4-11.6,6.2-23.5,5-35.8c-0.6-5.8-2.2-11.4-3.5-17.1
		c-1.1-4.7-2.3-9.3-1-14.1c0.2-0.7-0.3-1.3-0.9-1.8l0.1,0.1c0.7-1.7,1.9-2.9,3.5-3.7c0.1,0.4,0.2,0.8,0.1,1c-2.2,4.6-2,9.2-0.6,13.9
		c1.7,5.9,3.2,11.9,4.9,17.8c0.1,0.3,0.4,0.5,0.7,0.8l-0.1-0.2c0.1,1.9,0,3.9,0.2,5.8c1.2,11.1-0.6,21.7-4.4,32.1
		c-3.4,9.3-7.9,18-13.8,26C978,386.6,977.6,387.7,976.4,387.9L976.4,387.9z"/>
	<path d="M972.2,386.8c-1.5,0-1.7,2-3,2.2l-0.4-0.3c0.2-1.9,1.4-3.2,2.4-4.7c6.5-10.5,10.2-22,11.9-34.5c1.6-1.1,2.4-3,2.8-5.1
		c1.3-7.3,2.5-14.6,2.5-22.7c1,4.1,1,9.7,0.4,14.2c-2.3,16.8-6.9,33.1-12.8,49c-0.4,1-0.6,2-0.5,3.1c0-0.1-0.6,0.4-0.1-0.1
		c0.4,0,0.7,0.1,1.1,0.1l-0.1-0.1c-0.1,0.5,0.1,1.1-0.2,1.5c-1.5,2.3-3,4.6-4.6,6.9c-0.6,0.9-1.5,1.4-2.6,1.2l0.1,0.1
		c-0.2-2.2,1.3-3.9,1.8-5.8c0.5-1.6,1.8-3,1.2-4.9c1-0.1,1-0.6,0.4-1.5C972.4,385.9,972.3,386.3,972.2,386.8z"/>
	<path d="M1020.9,390.9c2-0.8,2.2-2.9,3.4-4.3c0.6-0.7,0.7-2,2.1-1.9l-0.1-0.1c0,0.5,0.2,1.1,0,1.6c-3.3,8.3-8.2,15.5-15,21.3
		c-0.5,0.4-1.2,0.7-2.1,1.2c-1.9-0.7-4.4-0.1-6.2-2.1c0.9-0.4,1.6-0.8,2.4-1.2c-4.3-2-4.3-2-8.5-1.9c0.9-1.5,0-2.9,0-4.5
		c1.4-0.9,2.1,0.9,3.6,0.9c1.3-0.8,3-1.9,4.6-2.8c1.3-0.8,2.5-1.9,4.3-1.8l-0.1-0.1c-0.5,1.6-2,2.3-3.2,3.4c-1,0.9-2.4,1.4-3.1,3
		c0.8,1.5,2.4,1.7,3.9,2.5c3.8-3.4,6.6-7.4,9.5-11.3c2.8-3.8,4.7-8.2,7-12.5c1,1,0.2,1.8,0,2.7c-0.2,0.9-0.5,1.7-0.7,2.5
		c-0.5,1.9-1.8,3.5-1.6,5.5c-1.2,0.4-1.1,1.3-0.9,2.3c-0.8-0.2-1.1,0.3-1.3,1c-0.8,0.5-0.9,1.4-0.9,2.2c-0.7,0-1,0.4-1.2,1.1
		c-0.4,0.3-0.8,0.6-1.2,0.9c-0.8,1-2.1,1.8-1.9,3.4c-0.8-0.2-1.2,0.2-1.1,1c-0.8-0.1-1.2,0.2-1.1,1c-0.8-0.1-1.1,0.3-1.1,1.1
		c-0.8-0.1-1.2,0.2-1.1,1.1c-0.6-0.2-1.1-0.2-1.3,0.9c0.7-0.2,1.3-0.1,1.2-1c0.7,0,1.1-0.3,1.1-1.1c0.7,0,1.1-0.4,1.1-1.1
		c0.7,0,1-0.4,1.1-1c0.6-0.1,0.9-0.5,1.1-1c1-0.9,2-1.8,1.9-3.4c0.6,0,1-0.3,1.2-0.9c0.4-0.4,0.8-0.7,1.2-1c0.6-0.6,0.8-1.4,0.9-2.2
		c0.7,0,1-0.4,1.3-0.9C1020.7,392.6,1021,391.8,1020.9,390.9z"/>
	<path d="M1020.4,352c0.9,5.7,0.1,10.4-0.8,15.1c-1.1,5.9-3.2,11.6-6,16.9c-1.3,2.3-2.6,4.5-5.3,5.6c-1.2,0.5-2.2,1.8-3.2,2.7
		c-1.5,1.5-3.2,2.8-5.1,3.7c-1.6,0.7-3.3,1.4-5.1,0.2c-0.8-0.8-0.9-1.8-1-2.9c0.3-1.7,1.4-2.8,2.3-4.1c3.8-5.4,7.1-10.9,10.3-16.7
		c1.3-2.3,2.6-4.6,3.2-7.4c1,1.1,0.4,2,0.2,3c-1.8,8.1-5.8,15.1-10.7,21.7c-0.9,1.3-2,2.5-2.9,3.7c0.9,0.8,1.7,0.5,2.5,0.1
		c3.9-1.9,7.2-4.4,10-7.7c0.6-0.7,1.3-1.1,2.4-1c3.2-4.7,4.9-10.1,6.5-15.5C1019.2,364.1,1019.2,358.4,1020.4,352z"/>
	<path d="M957.3,386.8c-0.4,0-0.7-0.1-1.1-0.1l0.1,0.1c-0.5-1.4,0.4-2.4,1-3.4c3-4.8,5.7-9.7,8-14.9c1.3-2.9,3.1-5.5,4.1-8.5
		c0.3-0.8,0.7-1.6,0.8-2.5c1-6.8,4.3-13,5.2-19.9c0-0.3,0.4-0.5,0.6-0.8c0.7,1.6,0.4,3.2,0.1,4.7c-0.7,3.8-1.4,7.6-2.3,11.4
		c-1.3,5.3-2.8,10.6-4.3,16c-0.8,0.6-2.1,0.8-2.6,2.1c-0.7,1.8-1.5,3.6-2.2,5.4c-1.5,3.8-3.3,7.4-5.7,10.8c-0.5,0.7-0.9,1.5-1.9,1.7
		l0.1,0.1c-0.1-0.7-0.1-1.5-0.2-2.2c0.2-0.1,0.3-0.2,0.4-0.3C957.5,386.5,957.4,386.7,957.3,386.8z"/>
	<path d="M964.6,391.9c1,0.3,1.5-0.5,2.1-1.1c0.7-0.7,1.4-1.4,2.1-2.1l0.4,0.3c-0.2,1.5-1.4,2.5-2.5,3.3c-3.5,2.4-6,5.8-8.4,9.2
		l0.1,0.1c-0.2-2.1,0.8-3.7,1.7-5.5c5.8-10.5,9.8-21.9,13.5-33.3c0.5-1.7,0.7-3.4,1.1-5.2c1.2,0.1,1.3,1,1.2,1.9
		c-0.4,4.1-1.5,8-2.9,11.8c-2.4,6.4-4.4,13.1-7.9,19c-0.3,0.4-0.3,1-0.4,1.5l-0.2,0.3L964.6,391.9z"/>
	<path d="M735.5,500.5c8.4,1.7,16.6,3,22.7,7.8c3.2,1,6.1-0.3,8.4,1.7c0.3,0.3,0.3,0.9,0.6,1.7c-4,0.2-7.8,0.3-11.3-1.8
		c-4.7-2.9-9.8-4.8-15.3-5.5c-1.4-0.2-2.7-0.7-4-1.2C735.8,502.8,735.2,502.1,735.5,500.5z"/>
	<path d="M1021,377.2c-0.4-1.4,0.1-2.8,0.4-4.2c1.6-6.7,2.8-13.5,2.7-20.4c0-3.2-0.1-6.4-0.8-9.5c-0.2-0.8-0.4-1.7,0.3-2.6
		c2.1,2.8,2,6.1,2.3,9.2c0.9,9.1-0.6,18-3.9,26.5c-0.2,0.5-0.5,0.9-1.1,0.9L1021,377.2z"/>
	<path d="M973.8,298.1c1.6-4.7,4.1-8.9,7.7-12.3c2.1-2,4.5-3.6,7.6-3.2c1.3,0.2,2.4,0.7,2,2.3c-3.9-0.3-4.6-0.1-7.7,2.1
		c-2.8,2-5.1,4.4-6.8,7.4C975.9,295.8,975.6,297.4,973.8,298.1z"/>
	<path d="M963.6,425.4c-1.1-2.2-3.5-3.9-2.9-6.9c0.4,0,0.8-0.1,0.9,0c1.5,2.1,3.5,3.4,5.8,4.2c1.7,0.6,3.3,1.2,4.3,3
		C968.9,428.5,966.4,426.2,963.6,425.4z"/>
	<path d="M995.4,383.6c1.2-0.3,1.5-1.4,2-2.3c2.1-3.9,4.2-7.7,5.8-11.8c0.4-1,0.4-2.5,2-2.8l-0.1-0.1c-0.2,1-0.2,2.1-0.5,3.1
		c-2.4,6.8-5.8,13-9.7,19c-0.2,0.2-0.5,0.3-0.9,0.5c-0.2-0.5-0.3-1-0.5-1.5l-0.1,0.2c1.1-0.4,1.2-1.4,1.2-2.3l-0.1,0.2
		c1.2-0.4,1.1-1.4,1.2-2.3L995.4,383.6z"/>
	<path d="M969.9,414.5c3.9-0.7,6,2.1,8.2,4.5c0.6,0.7,1.1,1.9-0.5,2.9c-1.3-1.1-2.8-2.3-4.2-3.5c-1.3-1.2-2.6-2.3-3.3-3.9
		L969.9,414.5z"/>
	<path d="M899.1,353c-1.2,2.2-3,2.8-4.9,3.3c-2.9,0.7-4,0.6-8.5-0.8c2.4-0.3,4.6-0.5,6.7-0.7C894.6,354.4,896.4,352.6,899.1,353z"/>
	<path d="M689.6,471.8c3.3,2.6,5,5.3,6,9.7c-3.2-3-5.3-5.9-5.9-9.8L689.6,471.8z"/>
	<path d="M795.5,334.6c-0.9,1.5-2.1,0.5-3.2,0.4c-1.4-0.2-2.8-0.6-4.1-0.9c-1.2-0.3-2.4-0.5-3.7-0.8
		C788.5,332.1,791,332.4,795.5,334.6z"/>
	<path d="M775.1,408.5c-1.6-2-2.4-3-2.7-4.6c0.3-0.6,0.8-1.3,1.2-2c0.3-0.7-0.5-1.7,0.7-2.1c1.9,1,0.4,2.5,0.6,3.7
		C775,404.8,775.2,406.1,775.1,408.5z"/>
	<path d="M642.7,369.3c-1.1-3.1-1.5-5.2-0.8-7.6C644,363.6,644.1,364.6,642.7,369.3z"/>
	<path d="M737.6,357.1c1.4-1.9,3.5-2.3,5.4-3.1c0.7,0.5,0.8,0.9,0.7,1.6c-1.7,1.8-4,1.4-6.2,1.4L737.6,357.1z"/>
	<path d="M903.1,400.7c4.1,0.3,4.1,0.3,5.7,2.3C906.7,403.3,906.7,403.3,903.1,400.7z"/>
	<path d="M964.6,287.9c-0.2,2.7-2,4.2-3.9,5.6l-0.4-0.4c0.9-2.2,2.6-3.7,4.4-5.1L964.6,287.9z"/>
	<path d="M991.3,377.2c-1.4-1.5-0.7-3.3-0.6-5.7c0.7,2.3,0.4,4.1,0.5,5.8L991.3,377.2z"/>
	<path d="M736.9,442.9c-1.2-0.2-1.7-1-1.7-2.2C737.2,441.1,737.2,441.1,736.9,442.9z"/>
	<path d="M988.8,309.1c0,1.4,0,2.6,0,3.8C988.5,311.7,988.1,310.5,988.8,309.1z"/>
	<path d="M644.7,353.5c0,0.9-0.6,1.4-1.3,1.9C643.4,353.4,643.4,353.4,644.7,353.5z"/>
	<path d="M691.5,375.7c-1.6-0.4-2.1-1.2-2.2-2.2C690.6,373.7,690.6,373.7,691.5,375.7z"/>
	<path d="M725.8,358.6c0.2,0.2,0.6,0.4,0.6,0.6c0,0.6-0.4,0.8-0.9,0.7c-0.2-0.1-0.4-0.5-0.4-0.7
		C725.2,358.9,725.6,358.7,725.8,358.6z"/>
	<path d="M1005.2,366.7c-0.1-0.8-0.2-1.6,0.3-2.4c0.6,0.9,0.2,1.6-0.5,2.3L1005.2,366.7z"/>
	<path d="M668,431.8c-0.6-0.1-0.5-0.6-0.5-1c0-0.3,0.3-0.5,0.4-0.7c0.1,0.3,0.3,0.6,0.3,0.9C668.3,431.2,668.1,431.5,668,431.8z"/>
	<path d="M737.5,357c-0.6,0.7-1.4,1-2.4,0.7c0.7-1.1,1.7-0.4,2.5-0.5L737.5,357z"/>
	<path d="M1020,380.4c0.1-1.1-0.5-2.5,1-3.2l-0.1-0.1c0.2,1.2,0.1,2.3-1.1,3.1L1020,380.4z"/>
	<path d="M650.4,382.5c-1-0.7-1.4-1.4-0.5-2.5c1.1,0.8,0.7,1.7,0.4,2.6L650.4,382.5z"/>
	<path d="M653.6,392c-0.9,0-0.9-0.5-0.7-1.3c0.9,0.2,0.7,0.8,0.6,1.4L653.6,392z"/>
	<path d="M968.9,397.3c0,0.9-0.2,1.6-1,2.1l0.1,0.1c0-0.9-0.2-1.8,1-2.2L968.9,397.3z"/>
	<path d="M936,380.2c-0.1,0.4-0.2,0.8-0.4,1.3c-0.4-0.8,0.1-0.9,0.5-1.2L936,380.2z"/>
	<path d="M1019.9,380.2c-0.1,0.4-0.2,0.7-0.4,1.1c-0.3-0.6,0.3-0.7,0.5-1L1019.9,380.2z"/>
	<path d="M1026.4,384.7c0-0.5,0.1-0.9,0.1-1.6c0.9,0.8,0.3,1.1-0.2,1.5L1026.4,384.7z"/>
	<path d="M955.4,392.1c0-0.8,0-1.7,0.8-2.2l-0.1-0.1c0.2,0.9-0.3,1.6-0.8,2.3L955.4,392.1z"/>
	<path d="M952.1,330.7c0.1-0.4,0.1-0.9,0.1-0.6c0.1-0.3,0,0.1-0.2,0.4L952.1,330.7z"/>
	<path d="M821.9,445.5c0.1,0,0.3-0.2,0.4-0.1c0.5,0.1,0.5,0.3,0.1,0.5c-0.1,0.1-0.3,0-0.4,0C822,445.8,822,445.6,821.9,445.5z"/>
	<path d="M681.1,455.7c-0.6-0.6-0.8-1.3-0.9-2.2l-0.1,0.1c0.7,0.5,0.9,1.3,0.9,2.2L681.1,455.7z"/>
	<path d="M878.6,342.3c0.9-0.2,1.6,0.3,2.3,0.9l0.1-0.2c-0.9,0.1-1.8,0.1-2.3-0.8L878.6,342.3z"/>
	<path d="M965.9,351.8c0.1-0.4,0.2-0.8,0.4-1.4c0.4,0.8,0,1.1-0.5,1.3L965.9,351.8z"/>
	<path d="M968.6,372.1c-0.1,0-0.2,0.1-0.3,0.1c0-0.1-0.1-0.3-0.1-0.4c0.1-0.5,0.3-0.5,0.4-0.1C968.7,371.8,968.6,372,968.6,372.1z"
		/>
	<path d="M684.5,369.4c-0.1,0-0.3,0.1-0.4,0.1c-0.1,0-0.1-0.2-0.1-0.3c0.1,0,0.3-0.1,0.4-0.1C684.4,369.1,684.4,369.3,684.5,369.4z"
		/>
	<path d="M986.8,293.2c0,0.8-0.2,1.6-0.8,2.2l0.1,0.1c0.1-0.8,0.3-1.6,0.8-2.2L986.8,293.2z"/>
	<path d="M732.7,435.2c-0.5-0.4-0.5-0.8-0.1-1.2c0-0.1,0.3,0,0.3,0C733.3,434.5,733.2,434.9,732.7,435.2z"/>
	<polygon points="679.1,452.5 678.8,452.3 678.9,452.6 	"/>
	<path d="M678.9,452.6c0.4,0.4,0.8,0.7,1.2,1.1l0.1-0.1c-0.7-0.1-1-0.5-1.2-1.1L678.9,452.6z"/>
	<path d="M1009.4,395.3c0.1-0.2,0.2-0.4,0.3-0.4c-0.1,0-0.2,0.2-0.4,0.3L1009.4,395.3z"/>
	<path d="M681,455.9c0.6,0.1,1,0.4,1.1,1l0.1-0.1c-0.4-0.3-0.7-0.7-1.1-1L681,455.9z"/>
	<polygon points="895.5,398.9 895.1,399.1 895.1,398.7 	"/>
	<polygon points="682.1,456.8 682.5,457.1 682.2,456.7 	"/>
	<path d="M689.7,471.7c-0.4,0-0.6-0.2-0.5-0.5c0,0,0.3,0,0.3,0.1c0.1,0.1,0.1,0.3,0.1,0.5L689.7,471.7z"/>
	<polygon points="687.5,468.4 687.3,468.3 687.4,468.5 	"/>
	<polygon points="687.4,468.5 687.7,468.7 687.5,468.4 	"/>
	<path d="M967.9,399.4c-0.5,0.6,0.2,0,0.1,0.1L967.9,399.4z"/>
	<path d="M958.4,401.5c-0.1,0.1-0.2,0.3-0.2,0.4c0.1-0.1,0.2-0.2,0.4-0.3L958.4,401.5z"/>
	<polygon points="673.7,444.2 674,444.3 673.9,444 	"/>
	<path d="M672.6,443.2c0.6,0,0.8,0.6,1.1,1l0.1-0.1c-0.4-0.3-0.8-0.6-1.2-1L672.6,443.2z"/>
	<polygon points="672.7,443.1 672.6,442.9 672.6,443.2 	"/>
	<path d="M843.8,437.9c-0.2,0.5-0.5,1-0.9,0.5c-0.4-0.4,0.1-0.8,0.5-0.9C843.6,437.6,843.7,437.8,843.8,437.9z"/>
	<path d="M843.4,437.5c0.1-0.6,0.4-1,1.1-1.1c0.1,0.1,0.3,0.3,0.4,0.4c-0.1,0.6-0.4,1-1.1,1.1C843.7,437.8,843.6,437.6,843.4,437.5z
		"/>
	<path d="M844.5,436.4c0.1-0.6,0.5-1,1.1-1.1c0.1,0.1,0.3,0.3,0.4,0.4c-0.1,0.6-0.4,1-1.1,1.1C844.8,436.7,844.6,436.6,844.5,436.4z
		"/>
	<path d="M970,414.4c-0.1-0.1-0.3-0.2-0.4-0.3c0.2-0.2,0.3-0.1,0.3,0.5L970,414.4z"/>
	<path d="M895.8,359.2c0.3-0.3,0.7-0.7,1-1l-0.1-0.2c-0.4,0.4-0.7,0.7-1.1,1.1L895.8,359.2z"/>
	<path d="M896.8,358.2c0.4-0.4,0.7-0.7,1.1-1.1l-0.1-0.2c-0.4,0.4-0.7,0.7-1.1,1.1L896.8,358.2z"/>
	<path d="M897.9,357.1c0.4-0.4,0.7-0.7,1.1-1.1l-0.1-0.2c-0.4,0.4-0.7,0.7-1.1,1.1L897.9,357.1z"/>
	<path d="M899,356.1c0.1-0.6,0.3-1.1,1.1-1.1l-0.1-0.1c-0.1,0.6-0.5,0.9-1.1,1.1L899,356.1z"/>
	<polygon points="878.7,342.2 878.6,342 878.6,342.3 	"/>
	<polygon points="978.5,318.8 978.3,319.1 978.6,319 	"/>
	<polygon points="978.6,319 978.7,318.6 978.5,318.8 	"/>
	<polygon points="986,295.4 985.8,295.6 986.1,295.5 	"/>
	<path d="M988,292.1c0,0.7-0.4,1.1-1.2,1.1l0.1,0.1c0.4-0.4,0.8-0.7,1.2-1.1L988,292.1z"/>
	<path d="M964.7,288c0.2-0.5,0.5-0.9,1.1-0.9l-0.1-0.1c-0.1,0.6-0.5,1-1.1,0.9L964.7,288z"/>
	<polygon points="965.8,287.1 966,286.7 965.7,286.9 	"/>
	<path d="M774.6,394.2c0.4-0.1,0.6,0.1,0.5,0.4c0,0-0.3,0-0.3-0.1C774.7,394.5,774.7,394.3,774.6,394.2L774.6,394.2z"/>
	<polygon points="955.2,392.1 955,392.2 955.4,392.1 	"/>
	<path d="M950.9,393.2c0.4-0.3,0.7-0.7,1.1-1l0-0.1c-0.4,0.3-0.8,0.7-1.2,1L950.9,393.2z"/>
	<path d="M653.5,392.1c0.1,0.1,0.2,0.1,0.3,0.2c-0.1-0.1-0.2-0.2-0.2-0.3L653.5,392.1z"/>
	<polygon points="952,392.2 952.1,391.9 952,392.1 	"/>
	<path d="M957.3,388.8c-0.1,0.7-0.4,1.2-1.2,1l0.1,0.1c0.2-0.6,0.4-1.1,1.2-1L957.3,388.8z"/>
	<polygon points="955.1,387.8 954.9,388.1 955.2,387.9 	"/>
	<path d="M955.2,387.9c0.2-0.5,0.5-1.1,1.2-1.1l-0.1-0.1c-0.4,0.3-0.8,0.7-1.2,1L955.2,387.9z"/>
	<polygon points="650.2,382.6 650.6,382.7 650.4,382.5 	"/>
	<path d="M893.7,362.3c-0.2-0.2-0.3-0.4-0.5-0.6c0.1-0.1,0.3-0.2,0.4-0.3l-0.1-0.2c0,0.4,0,0.8,0,1.2L893.7,362.3z"/>
	<path d="M893.6,361.4c0.4-0.4,0.7-0.7,1.1-1.1l-0.1-0.2c-0.4,0.4-0.7,0.7-1.1,1.1L893.6,361.4z"/>
	<path d="M894.7,360.3c0.4-0.4,0.7-0.8,1.1-1.1l-0.2-0.1c-0.4,0.4-0.7,0.7-1.1,1.1L894.7,360.3z"/>
	<path fill="none" d="M391.6,349.2c-5,0.6-9.4,1.2-13.9,1.8c-2.3-2.2-4.9-3.3-8.6-2.2c8.7,3.8,17.1,4.6,25.5,1.8
		c0.6-1,1-1.7,1.5-2.5c9.3-2.6,18.5-5.8,28.2-7.2c2.4-0.4,4.8-1.3,7.2-1.7c4-0.7,8-1.2,12.1-1.7c8.1-0.9,16.2-1.7,24.3-2.7
		c8.6-1,17.3-1.2,25.8-3c0.1,0,0.3,0.2,0.4,0.3c0.6,0.8,0.1,1.6-0.2,2.4c-1.1,2.6-2.2,5.2-3.3,7.8c-4.8,11.4-7.1,23.3-6.8,35.7
		c0,1.2,0.1,2.5,0,3.7c-0.1,1-0.5,2-0.8,2.8c1.3,15.2,6.3,29.1,13.2,42.1c-0.6,1-1.3,0.8-2,0.8c-7.1-0.5-14.1-1.6-21.2-1.6
		c-4.3,0-8.4-1.2-12.5-2.3c-10.6-2.8-21.1-6-31-10.7c-1.3-0.6-2.6-1.3-4-1.5c-4.6-0.7-8.8-2.5-13.1-4c-0.8-0.3-1.7-0.5-2.5-0.9
		c-6.2-3.4-12.9-5.9-18.6-10.1c-2.9-2.1-6.3-3-9.5-4.4c-0.9,1.2,0.1,1.5,0.5,1.8c1.3,0.9,2.7,1.6,4,2.5c0.5,0.3,0.8,0.9,1.9,2.1
		c-5.7-1.5-10.5-3.5-15.8-2.4c-2.6-1.7-5.6-2.7-8.6-3.6c-4.7-1.5-9-4.3-14-4.8c-0.5-0.1-1.1-0.3-1.4-0.7c-1.6-1.7-3.8-1.9-5.8-2.2
		c-5.2-0.8-10.5-1.6-15.8-2.1c-8.5-0.8-16.8-2.2-25.4-2.4c-0.4,0-0.7,0-1.1-0.1c-5.7-1.3-11.5-2.2-17-4c-8.9-2.8-17.9-4.1-27.1-4.3
		c-5.8-0.1-11.6-0.4-17.5-0.8c-8.6-0.7-17.3-0.6-25.9,1.2c-0.7,0.1-1.3,0.5-2,0.7c-0.2,0.9-0.4,1.7-0.6,2.6
		c-0.4,0.2-0.9,0.3-1.6,0.6c-3.3-2.6-6.2-5.6-8.1-9.5c-1.1-2.2-2.2-4.4-3.7-6.4c-2.9-3.9-3.9-8.2-3.1-13.2
		c4.8-4.8,7.4-11.5,13.1-16.1c2.2,0.5,4.5,1.3,7.1,1.1c1.1-0.1,2.3,0.7,3.4,1.2c4.3,1.9,8.7,2.6,13.4,2c5.2-0.6,10.6-0.5,15.9-1.2
		c1.2-0.2,2.5,0,3.7,0.3c3.2,0.6,6.4,0.5,9.5,0.1c7-0.9,14.1-1.2,21.2-1.7c2.3-0.1,4.7-0.1,6.8-0.8c6.8-2,13.6-1.5,20.5-1
		c3.3,0.3,6.7,0.5,10.1,0.5c8.9-0.2,17.6,1.4,26.1,3.8c6.5,1.8,12.8,4,18.6,7.6c3.9,2.5,8.5,3.6,12.9,4.8c2.1,0.6,4.2,0.1,6.3,0
		C385.3,347.6,388.3,347.4,391.6,349.2z M201.2,358c0.9-1,0.5-1.5,0.4-2c-0.8-4.7,0.4-7.4,4.4-9.6c1.4-0.7,2.9-1.2,4.2-1.8
		c1.8,0.1,3.1,1.9,5,1.1c0.3-1.3-0.7-1.7-1.4-1.9c-3.4-1.1-6.8-1.5-10.6,0c-2.9,2.4-6.2,4.9-5.3,9.9
		C199.1,355,200.1,356.4,201.2,358z M227.3,346c0.8,0.1,1.5,0.3,2.1,0.2c0.5-0.1,1.3,0.2,1.6-0.6C228.6,344.2,228.6,344.2,227.3,346
		z M376.9,390.3c-1.6-1.7-2.8-1.9-4.2-2C373.3,389.9,374.4,390.3,376.9,390.3z M352.7,342.2c-0.1-0.3-0.2-0.7-0.4-0.8
		c-0.2-0.1-0.7,0.1-0.8,0.3c-0.3,0.5,0,0.9,0.5,0.9C352.2,342.7,352.5,342.4,352.7,342.2z M368,386c-1.4-1.2-1.4-1.2-2.3-0.7
		C366.1,385.8,366.6,386.1,368,386z M359.3,345.8c0.6,0.2,1.1,0.6,1.6-0.1C360.4,345.3,359.9,345.5,359.3,345.8z"/>
	<path fill="none" d="M617,311.1c-1.7-2.8-4-4-6.5-4.8c-2.2-0.7-4.4-1.2-6.1-3c3.1-1,5.6-0.9,11,0.5c0.3,0.5,0.8,1.2,1.4,2
		c0.4,0.1,1,0.3,1.5,0.3c2.4-0.1,4.5,0.6,6.6,1.5c8.6,4,17.3,8.1,26,11.9c3.3,1.5,6.2,3.2,8.6,6c1.7,1.9,3.7,3.6,5.5,5.4
		c-0.9,1.3-2.1,1.3-3.1,1.6c-4.1,1-8.3,1.9-12.4,3c-3.8,1-7.3,2.5-10.8,4.3c-8.2,4.2-15.9,9.2-23.6,14.2c-2.1,1.3-3.9,3-5.8,4.6
		c-1.2,1-2.2,2.3-3.9,2.6c-1.3,0.2-2,1.4-2.8,2.3c-3.6,3.9-7.6,7.4-11,11.5c-1.8,2.2-4,3.9-6,5.9c-0.6,0.6-1.2,1.3-1.8,1.9
		c-7.4,7.9-12,17-12.8,27.9c-0.3,4.1-1.4,8-2.6,11.8c-1,1-2.3,0.7-3.5,0.8c-4.4,0.4-8.8,0.3-13.1,1.5c-7.7-0.1-15,2.1-22.5,3.1
		c-3.3,0.4-6.7,0.6-10,0.5c-5.8,0-11.6-0.2-17-0.4c-1.7-1.2-2.4-2.4-3.1-3.8c0.1-0.7,0.1-1.6,0.2-2.6c-0.3-0.5-0.6-1.2-1.1-1.7
		c-2.3-2.5-3.7-5.6-4.9-8.7c-2.2-5.8-3.8-11.8-5.3-17.8c-0.9-3.6-1.9-7.2-2.8-10.9c1.1-13,5-25.4,10-37.6c1.8-4.4,3.3-8.9,5-13.4
		c0.4-1.1,0.9-2.3,1.3-3.2c1.8-1.4,3.9-1.5,5.7-2c4.1-1.3,7.8-3.3,11.4-5.6c1.8-1.2,3.3-2.6,4.4-4.4c11.9-5,23.7-9.6,36.3-11.8
		c6.5-1.2,13-1.3,19.5-1.2c3.7,0,7.4,0.5,11.1,0.6c3.3,0.1,6.3,0.8,9.2,2.2c1.7,0.8,3.5,1.7,5.3,2.5c2.3,1,4.5,1.9,7.1,1.5
		C613.1,310,614.8,310.7,617,311.1z M622.7,315.7c0.2,0.3,0.3,0.5,0.5,0.8c0.2-0.2,0.3-0.3,0.5-0.5c-0.2-0.2-0.5-0.3-0.7-0.5
		c-1.3-1.8-1.3-1.8-2.6-1.2C620.8,315.4,621.6,315.8,622.7,315.7z M632.5,322.4c0.2,0.2,0.3,0.6,0.6,0.7c0.5,0.3,0.9,0.2,1.2-0.3
		c-0.2-0.2-0.3-0.6-0.5-0.7C633.2,321.8,632.8,321.9,632.5,322.4z"/>
	<path fill="none" d="M636.5,347.4c-1.5,2.9-2.7,6.1-5.1,8.5c0.2,5.4,1.6,10.5,3.4,15.4c1,2.8,1.8,5.7,2.3,8.6
		c1.9,9.5,4,18.9,6.8,28.2c1.2,4.1,2.7,8,4.5,11.8c3.6,7.4,7.6,14.7,12,21.7c2.6,4.1,5.2,8.3,6.9,13l0.1-0.1c-1.4,0.7-2.8,0.2-4.2,0
		c-8.9-1.7-17.5-4.2-25.6-8.4c-5.2-2.7-10.7-4.7-15.9-7.3c-5.7-2.8-11.9-4.3-17.7-7c1.4-1.4,3.3-1.2,5.1-2.2
		c-3.6-0.9-6.9-1-10.3-0.7c-8,0.7-15.8-1.1-23-2.9c-2.7-3.3-2.7-3.3-3.8-7.8c1.4-10.3,5.6-19.1,11.4-27.3c1.1-1.6,2.2-3.1,4.2-3.9
		c1.1-0.4,1.9-1.6,2.7-2.5c5.5-6.5,11.6-12.4,17.6-18.4c6.2-6.1,13.1-11.3,21.1-14.9C631.7,350.1,633.7,348,636.5,347.4L636.5,347.4
		z M618.4,428.4c-1.9,0.1-3.8-0.8-5.7,0.1C614.5,430.1,614.5,430.1,618.4,428.4z"/>
	<path fill="none" d="M160.3,362.8c-2.6-7.4-3.1-15-3.8-22.5c-0.2-1.7,0.4-3.1,1.2-4.5c2.2-4.5,5.2-8.4,8.8-11.8
		c2.4-2.3,4.7-4.7,6.2-7.6c0.5-0.3,0.9-0.6,1.2-0.5c6.5,0.6,13,0.8,18.7,4.8c3.5,2.5,7.5,3.9,12,3.4c2.2-0.2,4.2,0,5.7,1.8
		c-0.1,1-0.9,1.6-1.4,2.1c-0.7,0.5-1.4,0.3-2.1,0.2c-0.7-0.1-1.4,0-2.2,0c-6,4.6-9.3,10.9-11.3,18.2c-0.7,0.6-1.5,1.3-2.2,1.9
		c-0.9,4-0.6,7.6,1.3,11c1.7,3.1,3.7,6,5.8,8.2c1,1.2,0.3,2.1,0.6,3.3c2.6,3.1,5.3,6.5,8.2,10c3.3,0,6.3-0.9,9.3-1.9
		c2.9-1,5.8-2.2,8.6-3.5c0.3,0.8,0.6,1.2,0.5,1.4c-0.5,1.3-0.7,2.8-2,4.1c-1.5,1.2-3.9,1.8-4.9,3.2c-7.7,0.7-14.7,2.9-21.8,2.8
		c-1.1,1.3-0.7,2.3,0.2,3c0.8,0.7,1.9,1.2,2.8,1.9c-1.1,1.6-3.2,1-4.1,2.5c-0.1,0.2-0.2,0.3-0.3,0.6c1.5,2.4,4.3,1.9,6.6,2.9
		c-0.5,1.5-2.4,1.2-3.1,2.4c-0.3,1.1,0.6,1.6,1.4,1.8c4.5,1.5,8.7,0.4,12.7-1.6c0.3-0.1,0.5-0.5,0.8-0.6c0.1-0.1,0.3,0,0.7,0
		c0.9,1.5-0.6,2.5-0.9,3.9c-1.7,0.9-3.7,0.5-5.6,0.8c-1.6,0.2-3.2,0.4-4.7,0.8c-0.8,0.2-1.6,0.7-1.6,2.1c2.4,1.4,5.3,0.9,8,2.1
		c-0.7,0.5-1.4,0.9-2.7,1.8c2.6-0.5,4.7,1.5,6.5-0.5c0.3-1.2-0.7-1.6-1.1-2.4c0.7-0.2,1.4-0.4,1.9-0.5c0.4,0.2,0.8,0.4,1,0.6
		c1.3,2.9,2.9,5.6,5.3,7.8c1,1,1.9,2.2,1.9,4.1c0,1.6,1.4,3.1,2.4,5c-0.8,2-1.7,4.3-2.5,6.5c-2.7,2.7-6.1,3.8-9.4,5.4
		c-1.7-0.5-3.6-0.8-5.6-0.7c-5.7,0.2-11.2-0.6-16.5-3.2c-3-1.5-6.2-2.4-9.4-3.7c-2.9-1.1-5.3-2.8-7-5.4c-0.9-1.3-1.9-2.5-3.1-3.7
		c-2.8-2.8-4.7-6.1-6-10.2c0.9-6,1.7-12.3,2.6-18.6c0.2-1.4,0.7-2.7,1.4-4c0.8-1.4,1.2-2.9,1.4-4.5c1.1-6.4-0.6-11.9-5.5-16.3
		C163.4,365.8,162,364.5,160.3,362.8z"/>
	<path fill="none" d="M885.4,452.8c-0.5,0.3-0.8,0.8-0.6,1.6c4.7,2.3,9.6,4.3,14.6,2.3c1.7,0.2,2.8,0.8,3.8,1.6
		c0.9,1.3,0.8,2.6,0.3,3.9c-0.4,0.3-0.6,0.6-1,0.7c-2.5,0.9-4.9,0.5-7.2-0.4c-0.8-0.3-1.6-0.7-2.7-1.2c-2.8,0.4-5.8,0.7-8.7,1.2
		c-4.6,0.7-9.1,0.8-13.5-1.2c-1.8-0.8-3.7-1.2-5.8-1.8c-2-4.1-4.1-8.4-6.2-12.8c0.6-5.8-0.5-11.5-2-17.2c1.6-1.9,3.6-3,5.6-4
		c4.1-2.1,8.1-4.2,11.1-8c0.8-1,2.1-1.9,3.9-1.7c0.7,2.6,0.1,5.2,0.2,7.8c0.1,2.6,0.5,5.3,0.6,7.9c0.1,2.6,0.5,5.2-0.2,7.9
		c1.5,0.5,2.7,0.8,3.7,1.4c0.9,0.5,1.6,1.4,2.5,2.2c7.2,0.3,14.2,2.2,21.3,3.6c2,0.4,4,1,6,2c2.3,1.2,4.9,1.7,8.2,2.8
		c-5.8,0-10.5-1.5-15.1-2.7c-0.4,1.1,0.2,1.5,0.8,1.8c3.9,1.9,8.1,2.6,12.3,3.1c3,0.4,5.9,0.9,8.6,2.4c2,1.1,4.3,1.6,6.4,2.4
		c0.6,0.2,1.2,0.6,2.3,1.3c-5,0.7-9.3-0.1-13.5-1.5c-2.9,0.8-5.8,1.2-8.9,0.9c-2.7-0.2-5.2-0.8-7.4-2.5c-1.7-1.4-3.7-2.2-5.9-1.9
		C894.1,455.1,889.7,454.1,885.4,452.8z"/>
	<path fill="none" d="M249.5,379.9c-1.4,0.2-2.4,0.4-3.4,0.6c-0.3,0.5-0.6,0.9-0.9,1.4c1.3,2.1,1.3,2.1,6.4,4.2
		c-0.6,2.7-3.6,0.8-4.6,2.4c-1.3,2.1,1.3,2.5,1.9,4c-0.3,2.7-0.6,5.7-0.8,8.7c-0.2,2.3-0.6,4.6,0.2,6.8c0.2,0.5,0.2,1.1,0,1.5
		c-1.1,2.8,0,5.2,1.6,7.4c0.8,1.2,1.6,2.3,1.8,3.6c-0.2,1.5-0.7,2.7-1.7,3.4c-3.4,2.6-7,4.9-11.6,4.2c-2.1-0.3-4.2-0.3-6.2-0.4
		c-1.5-0.7-2.2-2-3.1-3.2c0.1-0.9,0.2-2,0.3-3c-0.3-0.5-0.5-1-0.8-1.4c-1.5-1.5-3-3-4.5-4.5c-3.4-3.6-5.5-7.7-5.9-12.8
		c0.5-2.5,2-4.8,2.2-7.5c0.2-2.7,0.5-5.3-0.9-7.3c0.6-1.4,1.4-1.7,2.3-2c3.6-1,5.8-3.3,6.2-7.1c0.1-1,0.5-2,0.7-3.2
		c5.4-1.7,10.5-0.5,16,0.4C245.6,378.1,247.6,378.8,249.5,379.9z"/>
	<path fill="none" d="M222.1,311.9c2-1.4,3.7-1.8,5.6-2.4c1.2,0.4,2.7,0.6,3.9,1.2c3.9,2,8,2.6,12.3,2.8c3.7,0.2,7.4,0.8,11,1.6
		c2.6,0.6,5.2,1,7.8,1.2c3.1,0.3,6.1,1,9.7,1.8c-1.5,1.9-3.6,1.6-4.9,2.7c-1.5,1.2-2.9,2.5-4.4,3.8c-1.3,1.2-2.3,2.6-2.9,4.5
		c-4.6,0.3-8.9,0.7-13.3,1c-3.2,0.2-6.3,0.5-9.5,0.7c-4.6,0.3-9.2,0.5-13.7-0.2c-1.9-0.3-3.9-0.3-5.8-0.4c-1-0.1-2.1,0.2-3.2-1
		C215,322.8,219.5,317.8,222.1,311.9z"/>
	<path fill="none" d="M727.4,464.9c-3.5,0.3-6.7,0.7-9.8,0.1c-5.3-11.2-10.6-22.4-14.5-34.1c-0.4-1.2-0.7-2.4-0.8-3.6
		c-0.6-5.4-0.9-10.9-0.6-16.4c0.2-3.2,0.5-6.3,0.1-9.5c-0.4-3.1-0.6-6.3-0.9-9.6c0.6-0.8,1.4-0.7,2.3-0.5c1.9,0.4,3.8,0.7,5.7,1.1
		c0.9,0.2,1.7,0.3,2.4,1.2c-0.6,4.2-1.2,8.6-1.8,12.9c-0.9,5.9,0,11.6,1,17.4c0.6,3.3,1.5,6.5,1.6,9.9c0,0.9,0.1,1.8,0.5,2.6
		c3.1,8.1,5.7,16.4,11.6,23C725.5,461,725.6,463.4,727.4,464.9z"/>
	<path fill="none" d="M903.2,319.7c-1.6,0.5-3.1,0.2-4.7-0.1c-6-1.3-12.2-1.6-18.3-1.7c-6.8-0.1-13.7-0.7-20.5-1.3
		c-4.4-0.3-8.7-1.1-13.2-0.2c-0.6-1.8,0.3-3.3,0.2-4.8c-0.1-1.4,0-2.8,0-4.1c0.6-1.8,2.3-2.9,2.4-4.8l-0.1,0.1
		c1.6,0.2,3.1-0.3,4.7-0.7c2.6-0.6,5.2-0.5,7.8,0.6c2.3,0.9,4.7,1.6,7.2,1.8c4.7,0.5,8.9,2.3,12.8,4.8c2,1.3,4,2.2,6.2,2.8
		c5.6,1.7,10.8,4.3,15.6,7.6L903.2,319.7z"/>
	<path fill="none" d="M344.5,330.5c7.6-1.8,15.2-1.8,22.8-1.1c5.6,0.5,11.1,2.2,16.7,2.9c6,0.8,11.6,2.9,17.3,4.8
		c0.1,1.1-0.9,1-1.3,1.4c2.5,1.3,5.1,1.9,7.8,0.7c0.5-0.2,0.9,0.3,1.1,0.8c0,0.7-0.6,0.7-1.1,0.9c-2.4,0.6-4.8,1.1-7.2,1.9
		c-4.3,1.5-8.6,1.8-13.1,1c-2.5-0.5-5-0.3-7.4,0.1c-3.1,0.5-6-0.1-8.8-1.2c-3.3-1.3-6.6-2.5-9.4-4.7c-2-1.5-4.4-2.3-6.7-3.2
		C351.7,333.3,348.1,331.9,344.5,330.5z M392.7,337.3c0.3,0.1,0.6,0.3,0.8,0.3c0.1,0,0.3-0.2,0.4-0.3
		C393.6,337,393.1,336.9,392.7,337.3z"/>
	<path fill="none" d="M894.6,360.1c0.4-0.4,0.7-0.7,1.1-1.1c0.4-0.4,0.7-0.7,1.1-1.1c0.4-0.4,0.7-0.7,1.1-1.1
		c0.4-0.4,0.7-0.7,1.1-1.1c0.6-0.1,0.9-0.5,1.1-1.1c1.8-0.6,2.7-2.1,3.8-3.5c3.3-4.1,6.1-8.5,8.6-13.1c1.1-1.9,1.8-4.1,3.6-5.6
		l-0.1-0.1c0,0.7,0.2,1.4,0,2.1c-1.5,5.2-3.1,10.4-4.6,15.5c-0.7,0.2-1.2,0.4-1.7,0.5c-0.1-0.1-0.1-0.3-0.2-0.4c0-0.1-0.2,0-0.3-0.1
		c0,0.3,0.2,0.5,0.6,0.4c-1.3,4.1-4.1,6.8-7.9,8.7c-2.6,1.4-5.1,3.2-8.3,3.1c0-0.4,0-0.8,0-1.2C893.9,360.9,894.2,360.5,894.6,360.1
		z"/>
	<path fill="none" d="M922.3,394.1c-0.2-3,0.7-5.9,1.1-8.9c1.5-10.8,3.6-21.6,6.2-32.2c0.1-0.5,0.3-1,0.5-1.5
		c0.7,0.6,0.6,1.3,0.5,1.9c-0.9,12.5-3,24.9-6.7,36.9c-0.4,1.3-0.5,2.8-1.8,3.7L922.3,394.1z"/>
	<path fill="none" d="M925.5,452.8c7.2,1.1,14.3,2.2,21.7,3.4c-1.6,2-4,1.6-5.6,2.5C936.2,456.3,930.4,456.1,925.5,452.8z"/>
	<path fill="none" d="M265,328.4c1-3.2,3.4-4.6,6-5.2c1.9-0.2,2,1.3,3,1.7c0.8,0.3,1.8,0.3,2.2,1.5c-1,1.2-2.3,2-3.9,2
		C269.7,328.5,267.3,328.3,265,328.4L265,328.4z"/>
	<path fill="none" d="M948.2,347.1c1.3,0.8,1.2,2.1,1.1,3.3c-0.4,4.7-0.7,9.4-2.9,14C945.8,360.4,946.7,352.5,948.2,347.1z"/>
	<path fill="none" d="M911.1,331.9c0.4,1.3-0.1,1.8-0.6,2.2c-2.1,1.3-3.7,1.6-6.8,1.4c0.2-0.2,0.3-0.6,0.6-0.7
		C906.5,333.8,908.7,332.9,911.1,331.9z"/>
	<path fill="none" d="M637.7,346.5c0.2-3.1,0.2-3.1,3.1-3.2l-0.1-0.1c-0.8,1.3-1.7,2.5-3.1,3.2L637.7,346.5z"/>
	<path fill="none" d="M211.3,395.7c0.4-0.3,0.9-0.5,1.3,0.1c0.1,0.2-0.2,0.8-0.3,0.8C211.8,396.5,211.4,396.3,211.3,395.7z"/>
	<path fill="none" d="M895.8,337.9c0.7,0.1,1.4,0.3,2.3,0.4c-1.1,0.6-1.7,0.2-2.2-0.5L895.8,337.9z"/>
	<path fill="none" d="M252.8,381c-0.1,0-0.3,0.2-0.4,0.1c-0.5-0.1-0.5-0.4-0.1-0.6c0.1-0.1,0.3,0,0.5,0.1
		C252.8,380.7,252.8,380.9,252.8,381z"/>
	<path fill="none" d="M922.2,394c-0.1,0.4-0.2,0.8-0.3,1.2c-0.3-0.6,0.3-0.8,0.5-1.1L922.2,394z"/>
	<path fill="none" d="M915.9,332.7c0.1-0.5,0.2-1,0.3-1.5c0.7,0.8,0.4,1.2-0.4,1.4L915.9,332.7z"/>
	<path fill="none" d="M895.9,337.8c-0.4,0-0.7-0.1-1.1-0.1c-0.1,0.7-0.6-0.6,0-0.3c0.3,0.2,0.6,0.4,0.9,0.5L895.9,337.8z"/>
	<path fill="none" d="M906.8,338.5c0.4-0.3,0.9-0.6,1.3,0.1C907.6,339,907.2,339,906.8,338.5z"/>
	<path fill="none" d="M640.9,343.3c0.1-0.6,0.4-0.9,1.3-0.5c-0.6,0.2-1,0.3-1.4,0.4L640.9,343.3z"/>
	<path fill="none" d="M893.6,366.6c0.3-0.8,0.8-0.8,1.4-0.4c-0.5,0.1-1,0.1-1.5,0.2L893.6,366.6z"/>
	<path fill="none" d="M846.7,430.3c0.5,0.1,1,0.2,1.8,0.4c-1.1,0.7-1.3,0-1.7-0.5L846.7,430.3z"/>
	<path fill="none" d="M667.4,454.7c0.1,0.1,0.2,0.1,0.3,0.2c-0.1-0.1-0.1-0.2-0.2-0.3L667.4,454.7z"/>
	<polygon fill="none" points="908.4,358.1 908.6,357.9 908.3,358 	"/>
	<path fill="none" d="M637.6,346.3c0,0.7-0.4,1.1-1.1,1.1l0.1,0.1c0-0.7,0.3-1.1,1.1-1L637.6,346.3z"/>
	<path fill="none" d="M264.9,328.3c-0.1,0.2-0.2,0.3-0.3,0.5c0-0.1,0-0.2,0-0.3C264.7,328.4,264.8,328.4,264.9,328.3L264.9,328.3z"
		/>
	<path fill="none" d="M903.1,319.8c0.5,0.4-0.1-0.3,0.1-0.1L903.1,319.8z"/>
	<path fill="none" d="M951.1,292.4c0-0.2,0.1-0.4,0.1-0.5c0,0-0.1,0.2-0.3,0.4L951.1,292.4z"/>
	<path fill="none" d="M1000.3,316.2c-0.4-0.4-0.6-0.9,0-1.3c0.2-0.1,0.8,0.2,0.8,0.3C1001.2,315.8,1000.9,316.2,1000.3,316.2z"/>
	<path fill="none" d="M990.1,386.7c0,0.9,0.3,1.9-1,2.2l0.1,0.1c-0.1-0.9,0.2-1.6,1-2.1L990.1,386.7z"/>
	<path fill="none" d="M994.5,385.6c0,1-0.1,1.9-1.2,2.3C993.3,386.9,993.5,386.1,994.5,385.6z"/>
	<path fill="none" d="M995.6,383.4c-0.1,0.9,0,1.9-1.2,2.3C994.5,384.9,994.8,384,995.6,383.4z"/>
	<path fill="none" d="M1014.7,321.9c-0.7,0.1-0.9-0.4-1.1-1l-0.1,0.1C1014.2,320.9,1014.6,321.2,1014.7,321.9
		C1014.6,322,1014.7,321.9,1014.7,321.9z"/>
	<path fill="none" d="M1013.5,321c-0.3-0.2,0,0.1-0.1,0.1L1013.5,321z"/>
	<path fill="none" d="M990.2,386.8c0.1-0.1,0.2-0.3,0.3-0.4c-0.1,0.1-0.3,0.2-0.4,0.3L990.2,386.8z"/>
	<path fill="none" d="M972.2,386.8c0.1-0.5,0.2-0.9,0.3-1.5C973.1,386.1,973.1,386.6,972.2,386.8L972.2,386.8z"/>
	<path fill="none" d="M975.4,387.8c-0.5,0.5,0.2,0,0.1,0.1L975.4,387.8z"/>
	<path fill="none" d="M1015.5,398.3c0.1,1.5-0.9,2.5-1.9,3.4l0.1,0.1c-0.2-1.6,1-2.4,1.9-3.4L1015.5,398.3z"/>
	<path fill="none" d="M1020.9,390.9c0.1,0.9-0.2,1.6-0.9,2.2l0.1,0.1c-0.1-0.9-0.3-1.9,0.9-2.3L1020.9,390.9z"/>
	<path fill="none" d="M1018,396.4c0-0.8,0-1.7,0.9-2.2l-0.1-0.1c0,0.8-0.2,1.6-0.9,2.2L1018,396.4z"/>
	<path fill="none" d="M1009.3,405.8c0,0.9-0.5,0.8-1.2,1C1008.2,405.7,1008.8,405.7,1009.3,405.8L1009.3,405.8z"/>
	<path fill="none" d="M1016.7,397.3c-0.1,0.6-0.5,0.9-1.2,0.9l0.1,0.1c0.4-0.3,0.8-0.6,1.2-0.9L1016.7,397.3z"/>
	<path fill="none" d="M1016.8,397.5c0.2-0.6,0.5-1,1.2-1.1l-0.1-0.1c-0.4,0.3-0.8,0.7-1.2,1L1016.8,397.5z"/>
	<path fill="none" d="M1012.6,402.8c-0.1-0.8,0.3-1.2,1.1-1l-0.1-0.1c-0.2,0.5-0.5,1-1.1,1L1012.6,402.8z"/>
	<path fill="none" d="M1012.5,402.6c-0.1,0.7-0.4,1.1-1.1,1c0,0,0.1,0.1,0.1,0.1c-0.1-0.8,0.3-1.2,1.1-1L1012.5,402.6z"/>
	<path fill="none" d="M1010.4,404.8c-0.1-0.8,0.3-1.1,1.1-1.1c0,0-0.1-0.1-0.1-0.1C1011.4,404.4,1011.1,404.8,1010.4,404.8
		C1010.4,404.8,1010.4,404.8,1010.4,404.8z"/>
	<path fill="none" d="M1009.4,405.9c-0.1-0.8,0.3-1.1,1.1-1.1c0,0-0.1-0.1-0.1-0.1C1010.4,405.5,1010,405.8,1009.4,405.9
		L1009.4,405.9z"/>
	<path fill="none" d="M1018.9,394.2c0.2-0.6,0.5-1.1,1.3-1l-0.1-0.1c-0.3,0.5-0.6,0.9-1.3,0.9L1018.9,394.2z"/>
	<path fill="none" d="M957.3,386.8c0.1-0.2,0.2-0.4,0.3-0.4c-0.1,0-0.2,0.2-0.4,0.3L957.3,386.8z"/>
	<polygon fill="none" points="964.6,391.9 964.5,392.3 964.7,392 	"/>
	<path d="M201.2,358c-1.1-1.6-2.1-3-3.1-4.3c-1-5,2.4-7.5,5.3-9.9c3.7-1.5,7.2-1.2,10.6,0c0.7,0.2,1.7,0.6,1.4,1.9
		c-1.9,0.8-3.2-0.9-5-1.1c-1.3,0.6-2.9,1.1-4.2,1.8c-4.1,2.2-5.3,4.9-4.4,9.6C201.7,356.5,202.1,357,201.2,358z"/>
	<path d="M227.3,346c1.3-1.8,1.3-1.8,3.7-0.4c-0.2,0.9-1.1,0.6-1.6,0.6C228.7,346.3,228.1,346.1,227.3,346z"/>
	<path d="M376.9,390.3c-2.5,0-3.6-0.4-4.2-2C374.2,388.4,375.3,388.6,376.9,390.3z"/>
	<path d="M352.7,342.2c-0.2,0.2-0.5,0.5-0.7,0.5c-0.5,0-0.8-0.4-0.5-0.9c0.1-0.2,0.6-0.4,0.8-0.3C352.5,341.5,352.6,342,352.7,342.2
		z"/>
	<path d="M368,386c-1.4,0.1-1.9-0.2-2.3-0.7C366.6,384.8,366.6,384.8,368,386z"/>
	<path d="M359.3,345.8c0.6-0.3,1.1-0.5,1.6-0.1C360.5,346.4,360,346,359.3,345.8z"/>
	<path d="M622.7,315.7c-1.1,0.1-1.9-0.3-2.4-1.4c1.3-0.7,1.3-0.7,2.6,1.2L622.7,315.7z"/>
	<path d="M632.5,322.4c0.3-0.5,0.7-0.6,1.2-0.3c0.2,0.1,0.4,0.5,0.5,0.7c-0.3,0.6-0.7,0.6-1.2,0.3
		C632.8,323,632.7,322.6,632.5,322.4z"/>
	<path d="M622.9,315.5c0.2,0.2,0.5,0.3,0.7,0.5c-0.2,0.2-0.3,0.3-0.5,0.5c-0.2-0.3-0.3-0.5-0.5-0.8L622.9,315.5z"/>
	<path d="M618.4,428.4c-3.9,1.7-3.9,1.7-5.7,0.1C614.5,427.7,616.4,428.5,618.4,428.4z"/>
	<path d="M392.7,337.3c0.4-0.4,0.8-0.4,1.2,0.1c-0.1,0.1-0.3,0.3-0.4,0.3C393.3,337.6,393,337.5,392.7,337.3z"/>
	<path d="M909.6,350.5c-0.4,0.1-0.6,0-0.6-0.4c0.1,0,0.3,0,0.3,0.1c0.1,0.1,0.1,0.3,0.2,0.4L909.6,350.5z"/>
</g>
</svg>
