<?xml version="1.0" encoding="utf-8"?>
<!-- Generator: Adobe Illustrator 20.1.0, SVG Export Plug-In . SVG Version: 6.00 Build 0)  -->
<svg version="1.2" baseProfile="tiny" id="Layer_2" xmlns="http://www.w3.org/2000/svg" xmlns:xlink="http://www.w3.org/1999/xlink"
	 x="0px" y="0px" viewBox="0 0 900 600" xml:space="preserve">
<g>
	<path d="M326.5,373.8c-1.6-0.3-3.1-0.3-4.7,0.1c-2.5,0.7-5.1,1.3-7.6,1.6c-2.4,0.3-4.6,0.9-6.8,1.7c-5.4,2.1-11,3.7-16.7,5
		c-1.1,0.2-2.1,0.1-3.2,0c-2.3-0.3-4.7,0-7,0c-1.7,0.1-3.4,0.3-5.2,0.4c-3.8,0.1-7.7,0.2-11.5,0.2c-3.2,0-6.4,0-9.7-0.1
		c-2.6-0.1-5.1-0.8-7.5-2c-2.9-1.4-6.2-1.6-9.3-2.5c-0.3-0.1-0.8-0.1-1.1,0.1c-0.9,0.5-1.7,0.3-2.5-0.1c-3.4-1.8-7.1-2.9-10.8-4.1
		c-4.5-1.4-8.8-3.4-12.8-5.9c-8-5.1-12.8-12.3-13.9-21.8c-0.3-2.8-1-5.6-1.4-8.4c-1.1-8.9,0.8-17.3,4.5-25.3c2.4-5.1,5.5-9.7,9.1-14
		c4.4-5.1,9.1-9.8,14.2-14.2c4.6-4,9.7-7.3,15.2-10c9.1-4.4,17.6-9.8,26.1-15.1c3.6-2.2,7-4.8,10.4-7.2c3.7-2.6,7-5.6,10-8.9
		c2.2-2.5,4.5-5,6.8-7.4c1.5-1.7,2.5-3.7,3.4-5.7c2.8-6.4,5.6-12.7,7.9-19.3c0.5-1.4,1.1-2.8,2.2-3.8c0.5-0.5,0.8-1.2,1.1-1.9
		c2.1-5.3,4.3-10.6,6.3-15.9c0.6-1.7,0.9-3.6,1.2-5.4c0.4-2.1,0.7-4.2,0.9-6.3c0.4-4.1,2-7.9,3.9-11.5c0.8-1.6,1.9-3.2,1.3-5.2
		c-0.1-0.4,0.3-0.9,0.4-1.4c0.3-0.9,0.8-1.8,1-2.8c0.7-3.5,2.8-6,5.2-8.4c5.2-5,11.2-9,17.7-12.2c1-0.5,2-1,2.8-1.4
		c0.1-0.5,0.3-0.7,0.3-0.9c-0.6-2.9-1-5.8-0.7-8.9c0.1-1.2-0.2-2.5-0.4-3.7c-0.5-2.2-0.6-4.4-0.3-6.7c0.3-2.3,0.1-4.4-0.3-6.7
		c-0.8-4.3-1.3-8.6-1.4-13c0-1.8,0.2-3.4,1.1-5c0.5-0.8,0.8-1.8,0.9-2.8c0.5-2.9,0.9-5.9,1.4-8.8c0.1-0.5,0.2-1,0.3-1.5
		c1.5-5.3,1.9-10.7,2.5-16.2c1-8.8,2.1-17.5,4.9-26c0.6-1.9,1.3-3.8,2.1-5.6c3.1-6.8,9.4-10.3,17.5-8.2c3.1,0.8,6,2.2,9,3.5
		c1,0.4,1.7,1.3,2.7,2c0.8,0,1.7,0,2.4,0c0.3-0.2,0.6-0.4,0.7-0.6c2-4,5.1-6.7,9.2-8.2c0.7-0.3,1.3-0.7,1.9-1.1
		c5.7-4.6,12.3-6.8,19.5-7.7c5.8-0.7,11.6-1,17.5-0.8c3.1,0.1,6.2,0.5,9.3-0.3c0.6-0.2,1.5,0.1,2.1,0.4c1.8,0.8,3.6,1.7,5.4,2.5
		c3.3,1.6,6.7,3.3,10,4.9c1.6,0.8,2.9,1.9,4.1,3.2c2.1,2.3,4.2,4.6,6.4,6.8c1.9,1.9,3.2,4.1,3.6,6.8c0.4,3.2,1.7,6.2,2.5,9.3
		c0.5,1.9,0.9,3.9,1.3,5.8c0.4,2.7,0.8,5.4,1.6,8c1.2,3.8,0.6,7.6-0.7,11.3c-0.3,0.9-1,1.7-1.7,2.4c-0.9,1-1.9,1.9-2.9,3
		c0.7,1.2,2.2,0.3,2.9,1.2c-0.1,0.2-0.1,0.6-0.2,0.6c-1,0.5-2,0.9-3.2,1.3c0,5.3,1.7,10.1,4.3,14.6c-0.5,4.9-0.5,4.9-6.6,7.8
		c-0.7,1-0.5,2.1-0.4,3.2c0,0.7,0,1.5,0.1,2.2c0.1,1.5-0.4,2.7-1.7,3.5c-0.4,0.3-0.8,0.6-1.1,0.8c0.2,1.6,0.5,3,0.5,4.5
		c0,1.6-1.6,2.1-2.4,3.2c0.2,1.8,0.4,3.5,0.6,5.2c0.1,0.6,0.3,1.3,0.1,1.8c-1,3.6-0.3,4-4.6,4.8c-4.4,0.9-8.9,0.5-13.3-0.2
		c-1.6-0.2-3.1-0.7-4.7-1c-0.8-0.1-1.7,0-2.6,0c-0.5,0.7-1,1.4-1.4,2.1c-0.3,0.5-0.5,1.1-0.7,1.6c0.2,0.3,0.4,0.7,0.5,0.7
		c5.4,0.7,10.1,3.3,14.7,6c1.6,1,3.3,1.7,5.2,1.9c2.5,0.3,4.9,0.7,7.4,0.9c2.2,0.2,4.4-0.2,6.6-0.8c5.6-1.5,11.3-1.9,16.9-0.8
		c5,1,9.2,3.6,12.6,7.4c1.7,1.8,3.2,3.8,5.1,6.1c2.6,1.1,5.7,1.6,9,1.6c1.5,0,2.9,0,4.4,0.6c1.2,0.4,2.7,0.4,4,0.4c3,0,6,0,8.9,0
		c1,0,2,0,3,0.1c3.8,0.6,7.4-0.1,10.9-1.4c0.3-0.1,0.7-0.2,1-0.4c4-2.3,8.5-2.5,13-2.7c9.9-0.4,19.6,0.9,29.2,3c1,0.2,2,0.3,2.9,0.3
		c3.3,0.2,6.7,0.4,10,0.7c0.9,0.1,1.7,0.1,2.6,0.2c8,0.5,16.1,0.7,24,2.8c1,0.3,2.2,0.2,3.3,0.1c2.8-0.2,6.3,0.1,9,1
		c1.9-0.5,3.7-1,5.5-1.5c1.3-0.4,2.7-0.3,3.5-1.8c0.2-0.4,1.1-0.5,1.7-0.5c3.2,0.1,6.5,0,9.7,0.5c2.2,0.3,4.2,1.3,6.5,1.4
		c2.7,0.2,5.4,0.4,8.1-0.2c2.3-0.5,4.7-0.5,7-0.6c1.5-0.1,3,0.2,4.3,1c1.1,0.7,2.2,1,3.5,1.1c0.7,0,1.5,0.3,2.2,0.4
		c2.2,0.6,2.1,2.9,0.8,4.1c-0.5,0.5-1.3,0.9-2,1c-1.4,0.3-2.4,1.1-3.6,1.8c-4.4,2.3-8.7,4.7-13.5,6.2c-0.8,0.3-1.7,0.5-2.4,1
		c-2.7,1.8-5.6,2.6-8.8,2.6c-1.8,0-3.4,0.5-5,1.3c-1.7,0.9-3.3,1.6-5,2.4c-2.3,1-4.6,1.9-7.1,2.1c-1.4,0.1-2.6,0.7-3.7,1.6
		c-1.2,1-2.5,2-3.8,3c-2.6,1.9-5.5,2.7-8.8,1.9c-0.9-0.3-2-0.2-2.9-0.4c-2.1-0.4-4-1.3-4.9-3.5c-0.3-0.6-0.9-1.1-1.4-1.7
		c-0.5-0.6-0.9-1.2-1.3-1.6c-4.5,1.2-8.9,2.4-13.3,3.5c-4.5,1.1-9,1.9-13.6,2.3c-2.5,0.2-4.9,0.8-7.3,1.2c-2.9,0.6-5.9,0.6-8.8,1.4
		c-1.3,0.4-2.7,0.2-4.1,0.2c-1.5,0-3-0.1-4.5,0c-0.7,0-1.5,0.3-2.1,0.7c-0.7,0.5-1.1,1.2-2,1.6c-3,1.1-6,2.3-9,3.4
		c-5.9,0.3-11.8,1.8-17.7-0.5c-0.9-0.3-2-0.2-2.9,0c-7.5,2.1-15.1,2.6-22.8,2.9c-2.6,0.1-5.2,0.4-7.8,0.5c-4.5,0.2-8.9,0.3-13.4,0.4
		c-0.2,0-0.5,0-0.7,0c-2.5-0.9-4.8-0.1-7.2,0.6c-9.4,2.9-19.1,4.4-29,4.3c-3.1-0.1-6.2,0-9.3,0c-0.7,0-1.5,0-2.2,0.1
		c-1.1,0.2-1.7,0.9-1.9,2c-0.1,0.4-0.1,0.7-0.1,1.1c-0.2,7.2-1,14.3-2.3,21.5c-0.9,5.4-1.3,10.8-1.7,16.3c-0.4,4.9-1.3,9.6-2.9,14.2
		c-2.2,6.7-5.8,12.3-11.5,16.5c-0.7,0.5-1.4,1.1-1.9,1.8c-1.9,2.5-4.5,3.9-7.4,4.7c-3.6,1.1-7.2,1.7-11,1.7c-1.5,0-3,0-4.6,0
		c-3.1,3.7-6.8,6.7-10.7,9.7c-3.8,2.9-8,5.1-12.1,8.2c1.9,1,3.7,1,5.3,1.3c8.5,1.2,16.9,2.7,25.3,4.7c2.7,0.6,5.2,1.6,7.9,2.2
		c4.5,1,9,2,13.5,2.9c5.2,1.1,10.5,2.1,15.7,3.2c1.2,0.2,2.4,0.8,3.7,0.3c0.4-0.1,1.1,0,1.4,0.2c1.2,1.1,2.7,1.2,4.1,1.5
		c10,2.1,19.6,5.4,29.4,8.2c1.8,0.5,3.4,1.4,4.8,2.6c3.9,3.3,7.7,6.6,11.1,10.5c0.4,0.5,0.8,0.9,1.1,1.4c-1.4,2.2-1.3,2.2-1.1,4.5
		c0.8,8.6,0.5,17-2.4,25.4c-3.3,9.8-7.6,19.1-11.9,28.5c-1.4,3.2-2.9,6.3-4.3,9.5c-4,8.9-9.3,17-14.9,24.9
		c-4.4,6.2-8.9,12.3-13.1,18.6c-3,4.5-5.5,9.4-8.3,14.1c-1.4,2.4-2.7,4.7-4.3,7c-3.7,5.3-6.8,10.9-9.3,17c-0.5,1.1-1.1,2.2-1.6,3.1
		c-1.7,0.9-3.3,0.9-5,1c-2.5,2.2-4.7,4.9-7.8,6.4c-2.5,5.1-2.3,5.3-6.9,8.6c-4.3,3.1-9.1,3.7-14.1,1.6c-1.2-0.5-2-1.5-2.5-2.7
		c-0.8-1.9-1.5-3.9-2.3-5.9c-0.4-1-0.6-2-1.1-3.5c-0.6,4.9-1.1,9.2-1.8,13.5c-0.4,2.3-0.9,4.7-1.7,6.8c-1.1,2.9-2.1,5.9-2.3,9
		c-0.4,5.5-2.1,10.7-4.1,15.8c-0.6,1.6-0.9,3.3-1.1,5.1c0.5,0.3,0.9,0.7,1.3,0.7c1.8-0.1,3.3,0.8,5,1.3c6.4,2,13,3.1,19.8,2.6
		c2.8-0.2,5.7-0.5,8.5-0.7c0.7,0,1.5,0,2.2,0.3c1.8,0.8,3.7,1.6,5.2,2.8c4.5,3.3,9.7,4.9,14.9,6.5c3,0.9,6.1,0.8,9.2,0.8
		c6.2,0,12.4,0.3,18.6,0.2c6.8-0.1,13.6-0.8,20.2-2.7c3-0.9,6-1.7,8.9-2.5c0.6-0.1,1.2-0.1,1.8-0.1c0.9-2.3,1.5-4.5,1.1-7
		c-0.2-1.2,0-2.5-0.1-3.7c-0.1-0.8-0.3-1.7-0.5-2.4c-0.5-0.2-0.8-0.5-1.2-0.5c-5.2-0.2-10-2-14.7-3.8c-3.7-1.4-7.4-2.9-11-4.5
		c-1-0.4-1.9-0.5-2.9-0.3c-1.7,0.3-3.4,0.4-5.2,0.5c-0.4,0-1-0.4-1.1-0.7c-0.1-0.3,0.1-1,0.4-1.2c0.5-0.5,1.2-0.8,2-1.3
		c-0.7-1.2-2-1-2.8-1.5c-0.3,0-0.5,0-0.8,0c-2.3,0.5-4.6,1-6.9,1.5c-0.6,0.1-1.3,0.3-1.8,0.2c-0.5-0.1-1.2-0.6-1.4-1
		c-0.2-0.5-0.1-1.4,0.3-1.7c0.7-0.6,1.6-1.1,2.5-1.5c1.1-0.4,2.3-0.7,3.7-1c-1.1-1.7-2.2-2.9-3.5-3.9c-3.5,1-6.8,2.1-10.1,3
		c-1.1,0.3-2.2,0.4-3.3,0.4c-0.8,0-1.4-0.4-1.8-1.2c-0.3-0.7,0-1.8,0.8-2.3c0.8-0.5,1.7-0.9,2.7-1.2c2.7-0.8,5.5-1.6,8.2-2.3
		c-0.6-2-0.7-2.3-3.2-4.9c-5.5,1.4-10.9,2.9-15.6,6.5c-0.6,0.4-1.2,0.8-1.9,1.1c-1.1,0.5-2.4-0.5-2.1-1.7c0.1-0.7,0.4-1.5,0.9-2
		c1.4-1.3,2.7-2.5,4.3-3.5c3.6-2.1,7.3-3.7,11.6-3.8c0.2,0,0.5-0.2,0.8-0.3c0.4-1.4-0.5-2.2-1.3-3c-7.7,0.6-14.6,3.1-20.4,8.1
		c-1.7-0.8-2.1-1.5-1.4-2.4c0.8-1,1.8-2.1,2.9-2.8c3.6-2.5,7.5-4.4,11.8-5.4c2.1-0.5,2.1-0.6,4.2-3c-1-2.2-2.6-4.1-3.9-6.2
		c-0.9-1.4-1.8-2.7-2.6-4.1c-0.2-0.3,0.1-0.9,0.2-1.3c0.5,0.1,1,0,1.3,0.3c0.6,0.6,1.2,1.2,1.7,2c2.2,3.2,4.3,6.4,6.5,9.6
		c1.8,2.6,3.1,5.3,4.3,8.2c1.5,3.6,4.2,6.4,6.8,9.3c1.6,1.7,3.4,3.3,5.2,4.8c2.8,2.4,6.1,4.3,9.4,6c2.8,1.5,5.7,3.1,8.6,4.5
		c2.2,1,4.6,1.9,7,2.6c2.2,0.6,4.3,1.1,5.7,2.2c2,0,3.5-0.2,4.9,0c3.2,0.6,5.1,3,5.2,6.3c0.1,4.1,0,8.2-1.2,12.2
		c-0.6,2.1-1.9,3.3-3.9,3.3c-1.1,0-1.9,0.4-2.8,0.8c-7.9,4.1-16.4,5.7-25.2,5.4c-1.6,0-3.2-0.3-4.8-0.7c-1.8-0.5-3.6-0.8-5.5-0.8
		c-5-0.1-9.9-0.2-14.9-0.4c-0.7,0-1.5-0.1-2.2-0.2c-6-1-11.9-2.7-17.5-4.9c-1.4-0.5-2.6-1.5-3.8-2.3c-1-0.7-1.9-1.5-2.9-2.3
		c-1.2,0.1-2.1,0.2-3.2,0.3c-0.3-0.1-0.7-0.3-0.9-0.5c-1.1-1.1-2.4-1.2-3.8-0.8c-1,0.3-1.9,0.6-2.9,0.8c-1,0.2-1.9,0.5-2.9,0.5
		c-6.4,0.5-18.9-3.1-23.7-7.1c-0.1-0.4-0.2-1-0.4-1.6c-0.9-2.2-0.6-4.3,0.4-6.4c1.4-2.9,1.9-5.8,1.7-9c-0.1-1.6,0.3-3.2,0.6-4.7
		c0.6-3.1,1.8-5.9,3.5-8.6c0.4-0.7,1.2-1.3,1.8-1.8c1-0.9,1.5-2,1.2-3.3c-1.1-4.4,0-8.6,1-12.8c0.7-2.9,1.3-5.8,2-9
		c0.8-0.9,1.8-2,2.9-3.2c1.4,1.1,2.8,2.1,4.2,3.1c1.5-0.1,2.1-1,2.6-2.3c2.4-5.9,4.7-11.8,7.3-17.6c4.4-9.8,7.5-20,10.8-30.1
		c0.8-2.5,1.2-5,1.4-7.7c0.4-6.2,1-12.4,2.8-18.4c0.9-3.2,2.3-6.3,3.2-9.5c0.7-2.6,2.2-4.6,3.7-6.8c1.1-1.6,2.1-3.4,3-5.1
		c1.5-2.7,3.3-5.2,5.2-7.7c1.3-1.8,2.9-3.4,4.3-5.1c0.9-1.1,1.8-2.3,2.9-3.8c-1-0.2-1.7-0.4-2.4-0.4c-4.2-0.2-8.4-0.9-12.5-2
		c-4.3-1.1-8.5-1.3-12.9-0.4c-5.8,1.2-11.7,2.2-17.7,2.4c-2.6,0.1-5.2-0.4-7.8,0.5c-2.8-0.9-5.4,0.4-8,0.7c-1.2,0.2-2.4,0-3.8,0
		c-0.5,0.8-1.1,1.7-1.5,2.8c-3.7,8.6-9.2,15.8-15.8,22.4c-1.1,1.1-2.3,2.3-3.4,3.4c-0.8,0.9-1.7,1.8-1.7,3.2c0,0.5-0.3,0.9-0.6,1.4
		c-5.9,10.8-12,21.4-18.9,31.7c-2,3-4.2,5.8-6.6,8.5c-6.6,7.4-12.1,15.4-16.7,24.1c-2.9,5.5-6,10.9-9.1,16.2c-1.3,2.2-3,4.2-4.4,6.4
		c-1.9,3-3.7,6.1-5.5,9.3c-1.3,2.4-2.4,4.9-3.3,7.2c0.4,0.9,1,1,1.6,1.1c5.2,0.2,5.2,0.2,6.5,5.2c0.3,1.1,0.5,2.2,0.8,3.2
		c0.1,0.5,0.2,1.1,0.5,1.4c2.1,2.2,2.2,5.2,3.1,7.9c0.7,2.1,1.4,4.2,2.2,6.3c0.6,1.6,1.7,2.7,3.6,2.8c0.3,0,0.7,0.3,0.9,0.4
		c0.8,1.1-0.5,1.6-0.6,2.4c0.1,0.2,0.1,0.5,0.2,0.7c1.4,1.8,2.8,3.5,4.2,5.3c1,1.3,2.2,2.4,4,2.5c1,0.1,2,0.4,2.3,1.5
		c0.3,0.9,1.1,1.3,1.9,1.7c4.7,2.4,9.3,5.2,14.6,6.5c1.2,0.3,2,1.1,2.3,2.2c0.6,2.3,1.2,4.6,1.6,6.9c0.3,2.1,0.4,4.2,0.4,6.3
		c0,1-0.3,1.9-0.6,2.9c-0.2,0.6-1.2,0.7-1.6,0.2c-0.5-0.6-0.8-1.2-1.1-1.7c-1.1-0.3-2.2-0.4-3.2-0.8c-2.7-1.2-5.1-0.7-7.4,1
		c-1,0.7-1.9,1.6-2.8,2.4c-0.9,0.7-1.7,1.4-2.7,2c-0.3,0.2-1,0.1-1.3-0.2c-0.3-0.3-0.3-0.9-0.3-1.3c0.1-0.5,0.3-0.9,0.7-1.3
		c1.8-2.2,4-4.1,6.7-5.3c2.4-1.1,4.8-1,7.2-0.1c0.9,0.3,1.8,0.8,2.7,1.3c0.2-2-0.3-9-0.8-11c-0.2-0.2-0.3-0.4-0.6-0.5
		c-4.2-1-7.6-3.5-11.5-5.1c-1.4-0.6-2.6-2.2-4.4-1.6c-1.5,0.5-3.2,0-4.6,1c-0.7,0.5-1.6,0.6-2.5,0.8c-1.5,0.4-2,0-2.4-1.9
		c-0.1-0.2-0.2-0.4-0.3-0.9c-1.5,0.2-3.1,0.4-4.7,0.5c-1.5,0.1-3,0.3-4.5,0.1c-2.2-0.2-2.8-2-1.5-3.7c0.3-0.4,0.6-0.6,1.3-1.3
		c-3.8,0-7.2,0-10.5,0.4c-1,0.1-2,0.2-2.9-0.3c-1.1-0.6-1.3-2.1-0.3-2.8c0.6-0.4,1.3-0.8,2-0.9c2.1-0.4,4.2-0.7,6.3-0.9
		c3.9-0.3,7.9-0.5,11.9-0.8c-0.5-2.4-1.1-3.2-3.1-3.3c-6.1-0.3-12.2-0.5-18,1.9c-0.5,0.2-1.2,0.3-1.8,0.4c-0.8-1.2-0.6-2.1,0.3-2.7
		c1.4-0.9,2.8-1.6,4.3-2.1c3.1-1,6.3-1.5,9.5-1.5c1.3,0,2.7,0.2,4-0.3c-0.1-0.5-0.1-0.9-0.2-1.2c-0.2-0.4-0.5-0.8-0.9-1.4
		c-1.3,0.2-2.7,0.4-4,0.6c-3.6,0.6-7.1,1-10.7,1.7c-3,0.6-6.1,1.4-8.3,3.9c-0.2,0.3-0.6,0.4-0.9,0.6c-0.8,0.4-1.7,0.3-2.4-0.4
		c-0.6-0.6-0.9-1.3-0.6-2c0.3-0.8,0.8-1.6,1.3-2.2c0.6-0.7,1.6-1.2,2.2-2c1-1.3,2.2-1.8,3.8-2c3.2-0.3,6.4-0.8,9.6-1.2
		c1.8-0.2,3.7-0.5,5.5,0.3c0.2,0.1,0.5,0.1,0.7,0.2c0.2,0,0.5,0,0.7,0c1.1-0.2,2.1-0.4,3.3-0.6c-0.3-0.7-0.6-1.4-0.7-2.1
		c-0.2-0.7-0.1-1.5-0.4-2.2c-1.7-3.9-3.5-7.6-4.5-11.4c-1.4-1-2.7-0.9-3.9-0.7c-3.9,0.6-7.9,0.4-11.8,0.7c-0.7,0-1.4,0.1-2.3,0.2
		c-0.2,0.9-0.5,1.7-0.6,2.6c-0.2,4.6-2,8.7-4.7,12.3c-0.6,0.8-1.3,1.5-2.1,2c-1.3,0.8-2.7,1.3-3.9,2.1c-2.7,1.6-5.3,0.9-7.7-0.6
		c-2.2-1.3-3.9-3.1-4.5-5.6c-0.9-0.4-1.7-0.8-2.5-1.1c-0.1-0.9-0.2-1.7-0.3-2.7c-1.4,1-1.8,2.4-1.8,3.7c-0.2,5-1.8,9.5-4,13.9
		c-0.7,1.5-1.2,3.2-1.8,5c-1.9,0.9-2,1-3.2-0.8c1.8-2.5,2.8-5.3,3.3-8.4c0.1-1,0.6-1.9,0.9-2.8c0.5-1.9,1.3-3.8,1.5-5.7
		c0.3-3.1,1.7-5.4,4-7.3c1.6-1.3,2.8-2.7,3.3-4.7c0.2-0.9,0.9-2.1,1.6-2.4c1.5-0.6,1.9-1.8,2.5-3c0.2-0.5,0.4-0.9,0.6-1.4
		c4.8-12.6,9.7-25.3,13.2-38.4c1.5-5.8,2.8-11.6,4.7-17.2c1.9-5.5,4.2-10.9,6.4-16.3c0.5-1.1,0.8-2.3,1.1-3.5
		c1.3-6.7,2.6-13.4,5.2-19.8c3-7.6,7-14.5,12.9-20.3c2.9-2.9,5.6-5.9,7.9-9.3c3.2-4.8,7.3-8.7,11.6-12.6
		C324.8,375.9,326.2,375.2,326.5,373.8c0.1-0.1,0.4,0,0.6-0.1c0.1,0,0.1-0.3,0.2-0.4c-0.1,0-0.3-0.1-0.3,0
		C326.7,373.5,326.6,373.7,326.5,373.8z M402.6,493.2c-0.2,0.2-0.4,0.4-0.6,0.6c0,0,0.1,0.2,0.1,0.3c0.1-0.1,0.4-0.1,0.4-0.3
		C402.5,493.6,402.5,493.3,402.6,493.2c0-0.3,0.2-0.6,0-0.3C402.7,492.6,402.6,492.9,402.6,493.2z M696.9,159.9
		c1,0.2,1.8,0.1,2.1-1.1C697,158.5,697,158.5,696.9,159.9c-0.2,0.1-0.6,0-0.2,0.5C696.7,160.2,696.8,160.1,696.9,159.9z M682,163.6
		c1.8,0.2,3.5-0.1,5.1-0.8c1.8-0.8,3.6-1.7,5.3-2.6c0.6-0.3,1-0.9,1.7-1.4c-1.9-0.8-3.5-1.6-5.2-2.3c-0.4-0.2-1,0-1.4,0.2
		c-0.4,0.2-0.5,0.8-0.8,1.1c0.3,0.3,0.5,0.5,0.6,0.6c0.9,1,1.1,1.9,0.2,2.4c-1.2,0.8-2.6,1.4-3.9,2C683,163.1,682.3,163,682,163.6
		c-0.8,0.1-1.6,0.1-3.2,0.1C680.5,164.5,681.3,164.6,682,163.6z M405.5,231.6L405.5,231.6c-0.9,2.6-3.5,3.7-5.3,5.7
		c0,0.9,0,1.7,0,2.6c0,0.9,0,1.7-0.1,2.6c-0.1,0.8-0.5,1.5-0.7,2.3c4.8,1.2,9,0,13.1-2.2c3.8-2,7-4.7,10-7.7c3.5-3.6,6-7.9,7.3-12.8
		c0.4-1.6,0.8-3.1,1.4-4.6c2-5.3,2.4-10.9,2.8-16.4c0-0.7-0.2-1.4-0.4-2.2c-3.3,0.4-6.3,0.7-9.4,1.1c-5.3,0.7-10.6,1.4-15.9,2.1
		c-0.5,0.1-1.1,0-1.4,0.3c-1.5,1.4-3.3,0.8-4.9,0.8c-2.6-0.1-5.2-0.3-7.8-0.3c-0.7,0-1.4,0.2-2.2,0.3c0.1,3.6-0.6,6.8-1.4,10.1
		c-1.2,4.7-1.7,9.5-0.4,14.3c0.5,1.8,1,3.6,1.3,5.4c0.3,2,1.7,3.5,1.7,5.6c0,0.9,1.1,1.9,1.9,2.7c0.6,0.7,1,1.7,2.4,1.7
		c0.8-1.3,0.5-2.8,0.3-4.2c-0.3-1.6-0.7-3.2-1.1-4.7c-0.4-1.4-0.8-2.9-1.3-4.3c-0.5-1.5-1.9-2.5-2.2-4.1c1-0.5,1.4,0.1,1.6,0.6
		c1.3,2.2,2.6,4.5,3.9,6.8c0.3,0.6,0.7,1.2,1.1,1.8C401.9,233.5,403.3,231.7,405.5,231.6z M406.3,56.3c-1.3,0.1-2.3-0.7-3.3-1.4
		c-3.2-2.2-6.3-4.6-9.5-6.8c-0.7-0.5-1.4-0.9-2.1-1.4c-0.1,0-0.2-0.1-0.3-0.1c0.1,0,0.2,0,0.3,0c-0.3,0.8,0.2,1.4,0.6,2
		c2.9,4.1,6.6,7.3,10.5,10.3c0.7,0.6,1.8,0.8,2,2l0.1-0.1c-3.5-0.6-6.5-2.3-9.3-4.4c-0.4-0.3-0.8-1-1.6-0.3c0.3,0.5,0.6,1,1,1.5
		c2.7,3.6,5.5,7,9.2,9.7c0.3,0.3,0.9,0.6,0.3,1.1c-4.4-2.3-11.1-8.2-13.5-12c-2.2-3.5-3.8-7.2-3.9-11.5c0-1.4-0.3-2.7-0.5-4
		c-0.1-0.7-0.4-1.4-1.6-1.4c-1.1,2.5-1.3,5.2-1.8,7.9c-0.1,0.3,0,0.8,0.2,1.1c1.1,1.7,0.8,3.6,0.5,5.4c-0.7,5.2-0.3,10.4,0.3,15.6
		c0.3,3.2,1.3,6.3,2,9.5c0.4,1.7,1.2,3.2,2.4,4.5c3.4,3.5,5.9,7.6,7.5,12.3c0.1,0.4,0.3,0.7,0.4,1.1c0.4,1.1,1,2,2.1,2.5
		c1.7,0.8,2.5,2.3,3.1,4c2.1,5.5,1.9,10.9-0.5,16.3c-1.4,3.1-3.7,5.6-6.4,7.6c-1.4,1.1-3.1,1.4-4.8,1.9c-0.9,0.2-2,0.2-2.5,1.6
		c1.8,4.5,2.2,9.5,2.7,14.4c0.1,1.3-0.4,2-1.2,2.8c0.2,0.3,0.3,0.7,0.5,0.9c2.2,2.3,4.5,4.6,6.7,7c1,1.1,2.2,1.6,3.6,1.7
		c2.8,0.2,5.6,1,8.5,0.3c0.7-0.2,1.5,0,2.2,0c6.6,0.4,13.1,0.7,19.7,1.2c2,0.1,3.6-0.4,4.9-1.2c-0.1-3.7-0.1-7-0.2-10.3
		c-0.1-1.7-0.3-3.4-0.5-5.7c0.7-2.5,2.5-5,4.1-7.7c2-3.4,3.3-7.2,4.4-10.9c-0.9-1.3-2.1-1.9-3.4-2.3c-0.7-0.2-1.4-0.5-1.5-1.4
		l-0.1,0.1c0.5,0,1-0.2,1.5-0.1c2.3,0.5,4.6,1,6.9,1.6c2.6,0.7,5.4,0.7,7.8,2.3c0.8,0.5,1.9,0.6,2.9,0.6c2.4,0.1,4.7,0,7.1,0
		c1.7,0,2.8-0.9,3.6-2.3c0.8-1.6,1.3-3.2,0.5-5c-0.3-0.8-0.5-1.6-0.6-2.2c0.7-2.1,2.9-2.2,3.9-3.9c-0.3-1.5-1.3-2.5-2.4-3.5
		c-1.2-0.1-2.3-0.1-3.4-0.2c-1.4-0.1-2.6-0.6-3.7-1.5c-0.2-0.2-0.5-0.7-0.4-0.9c0.2-0.4,0.7-0.7,1.1-0.8c0.5-0.1,1,0.1,1.5,0.2
		c1.2,0.3,2.4,0.7,3.6,1c2.5,0.5,4.7,0.2,6.1-2.4c-2-1.9-1-4.3-0.8-6.6c-1.2-0.2-2.3-0.4-3.5-0.6c0.7-1.6,1.9-2.1,3.3-2.5
		c1.5-0.4,2.1,1,3,1.6c0.7-0.1,1.3-0.2,1.9-0.4c0.7-0.2,1.3-0.5,1.9-0.7c0.6-1.5,0.2-2.6-0.4-3.7c-2.3-4.6-3.5-9.5-3.8-14.7
		c-0.1-1.1,0-2.2,0.3-3.3c0.4-1.9,1.3-3.4,3.5-3.9c1.4-0.3,2.4-1.3,3-2.8c-0.4-1.8-1-3.7-1.2-5.7c-0.4-2.9-0.6-5.9-0.9-8.9
		c-0.1-0.6,0-1.3-0.3-1.8c-1-1.8-1.1-3.8-1.5-5.7c-0.4-2.2-0.9-4.3-1.4-6.5c-2.1-0.9-2.1-0.9-3.8-3.2c-0.6,0.3-1.2,0.7-2,1.1
		c-0.4-0.6-0.7-1-0.9-1.4c-1-2.6-2.8-4.6-4.9-6.5c-6.9-6.1-14.9-10.2-24.6-11.9c4.2-0.3,7.7,0,11.2,1.1c3.7,1.2,7.1,3,10.4,5
		c0.7,0.4,1.4,1.1,2.3,0.9c-0.1-0.1,0.3,0.4-0.1,0.1c-1.9-2-3.8-4-5.7-6c0.7-0.5,1.1-0.1,1.4,0.2c3,2,5.7,4.3,8.1,7
		c0.6,0.7,1.1,1.7,2.2,1.8c0,0.1,0,0.2,0,0.3c0,0.1,0.2,0.1,0.2,0.1c-0.1-0.1-0.2-0.2-0.4-0.4c-0.1-0.5-0.2-1-0.4-1.4
		c-2.9-5-7.5-7.8-12.7-9.8c-2.8-1-5.7-1.6-8.6-2.2c-1.8-0.4-3.7-0.6-5.5-0.5c-3.1,0.1-6.2,0.4-9.3,0.7c-2.7,0.2-5.4,0.4-8.1,0.7
		c-3.5,0.5-7.2,0.5-10.7,1.3c-6.1,1.4-11.7,4.2-16.9,7.5c-0.7,0.4-1.3,1.1-1.9,1.6c2.7-0.5,5.2-1.4,7.8-2.1c2.7-0.8,5.6-1.3,8.3-1.9
		c2.7-0.6,5.4-1.1,8-1.5c2.7-0.5,5.5-1,9-1.1c-1.4,0.5-2.1,0.8-2.8,1c-5,1.1-9.9,2.2-14.9,3.4c-5.6,1.3-11.1,2.8-16.3,5.2
		c-4,1.7-7.2,4.2-9.3,8.1c-1.2,0.4-2.4,0.3-3.3-0.3c-2.4-1.5-4.9-1.6-7.5-1.3c-0.3,0-0.7-0.1-1.3-0.2c2-2.1,4.5-1.7,6.8-2
		c-0.3-0.7-0.5-1.4-0.8-2.3c0.9,0.1,1.5,0.1,2,0.3c0.7,0.2,1.3,0.7,2,0.9c0.5,0.2,0.9-0.1,1-0.9c-3.5-1.3-7.2-2.4-11-3
		c-0.4-0.1-0.7-0.1-1.1-0.1c-5-0.2-8.2,1.8-10.4,6.3c-1.5,3-2.3,6.3-3,9.6c-1.7,7.3-3.2,14.5-5.6,21.6c-0.3,1-0.6,2.2-0.6,3.3
		c-0.1,3.5-0.8,6.9-1.6,10.3c-1.6,6.6-2.8,13.4-2.6,20.2c0,0.3-0.1,0.7-0.2,1c-0.5,0.2-0.9,0.3-1.6,0.5c0.2,1.6,0.4,3.2,0.6,4.8
		c0.1,1.4,0.4,2.7,0.4,4.1c-0.2,8.3,1.4,16.5,1.6,24.8c0,0.6,0.2,1.2,1,1.3c0.6,0.1,1.1-0.8,1-1.7c-0.1-0.7-0.3-1.5-0.4-2.2
		c0-1.4-0.3-2.8,0.2-4c0.6-1.8,0.4-3.4,0.2-5.1c-1.2-7.9-0.9-15.9-0.3-23.8c0.5-6.5,1.6-13.1,2.7-19.5c1.3-7.2,3.1-14.3,5.9-21.1
		c0.4-1,0.6-2.1,1.7-2.7l-0.1-0.1c0,2.3-1.1,4.3-1.7,6.4c-1.8,6.4-3.6,12.9-4.7,19.5c-0.3,1.6-0.4,3.1,0,4.8c0.3,1,0,2.2-0.1,3.3
		c-0.3,2.2-0.9,4.4-0.9,6.6c-0.1,5.2-0.8,10.3-1.4,15.5c-0.1,0.6-0.1,1.2-0.3,1.8c-0.5,1.7-0.4,3.4-0.3,5.2c0.2,2.6,0.3,5.2,0.4,7.8
		c0.2,2.8,0.4,5.6,0.9,8.5c1.4,0.1,2.6,0.4,3.6-0.6c-0.1-1.4-0.4-2.8-0.1-4.1c0.7-3.1,0.4-6.1-0.4-9.1c-0.3-1.2-0.3-2.5-0.3-3.7
		c-0.2-2.8-0.4-5.7-0.6-8.5c-0.1-1.2-0.7-2.4-0.6-3.6c0-3.2,0.2-6.4,0.5-9.6c0.1-1.7,0.3-3.6,1.4-4.9c1.1-1.3,1.5-2.8,1.9-4.4
		c2-8.1,4.7-16,8.7-23.3c1.9-3.5,3.8-7,6.8-9.7l-0.1-0.1c-0.5,1.1-0.9,2.3-1.5,3.4c-3,5.4-5.8,11-7.8,16.8
		c-1.6,4.6-3.1,9.2-4.5,13.8c-0.9,3.1-1.7,6.2-1.9,9.5c-0.2,3.1-0.4,6.2-0.5,9.3c-0.3,7.7,0.1,15.4,1.1,23c0.2,1.5,0.3,2.9,0.5,4.4
		c1.4-0.2,2.6-0.4,3.2-1.6c0.2-4.2,0.3-8.2,0.5-12.3c0-0.9,0.1-1.8,0.4-2.6c1.1-3.2,1.5-6.5,2.2-9.8c0.2-0.8,0.5-1.8,0.3-2.6
		c-0.4-2.6,0.1-5.2,0.4-7.8c0.2-1.1,0.1-2.2,0.2-3.5c-0.7,0.6-1.1,1-2,1.8c0.1-1,0.1-1.5,0.2-1.9c1.2-4.4,2.2-8.9,3.5-13.3
		c0.8-2.8,1.4-5.8,3.7-8c0.3-0.3,0.4-0.9,0.7-1.3c1.7-3.2,3.2-6.4,5-9.6c1.6-2.8,2.8-5.8,3.2-9c0.4-2.6,0.9-5.1,1.5-7.7
		c0.3-1.4,0.6-2.9,1.9-3.8c2.4,1,2.4,1,3.4,2.1c1.7,1.8,3.4,3.6,5.3,5.2c3.7,3.1,7.5,6.1,11.3,9.1C404.6,54.7,405.4,55.6,406.3,56.3
		L406.3,56.3z M405.5,486.4c-0.1,0.1-0.3,0.2-0.3,0.3c0.3,2.1-0.2,4.1-0.7,6.1c-0.6,2.7-1.7,5.5-0.7,8.5c-0.8,0.2-1.3,0.3-1.8,0.4
		c-1-1.1-0.8-2.7-2.3-3.1c-1.1,0.5-1.3,1.4-1.1,2.5c0.4,1.3,0.7,2.6,1.6,4c2.5,0.1,5.1,0.3,7.6-0.7c1.1-0.4,2.3-1,3.3-1.6
		c1.7-1,3.3-2.2,5.2-3.5c0.1-0.2,0.4-0.8,0.5-1.4c0.6-2.5,2.2-4.2,4.3-5.3c1.9-1,3.1-2.3,3.8-4.5c1.9-0.5,3.8-1,5.9-1.5
		c0.5-1,1-2.1,1.6-3.2c1.6-3.4,3.1-6.8,5.3-9.8c4.7-6.6,9.1-13.3,13-20.4c0.7-1.3,1.5-2.6,2.5-3.6c1.2-1.2,2-2.5,2.8-3.9
		c5-7.9,10-15.7,15-23.6c5.1-8,9.8-16.1,13.5-24.8c3.1-7.3,6.2-14.6,9.6-21.8c2.7-5.7,4.4-11.6,5.3-17.8c0.1-0.6,0.2-1.2,0.2-1.8
		c0.1-4.8,0.2-9.7,0.3-14.5c0-1.7,0.3-3.4,0.4-5c-4.2-3.9-8.8-7.2-12.8-11.7c-3.1-0.8-6.4-1.8-9.8-2.5c-9.2-1.9-18.5-3.7-27.8-5.4
		c-15-2.8-29.9-6.2-44.7-9.8c-8.4-2-17-3.8-25.3-6c-1.7-0.5-3.1-0.3-4.6,0.7c-2.8,1.8-5.8,3.5-8.8,4.8c-4.5,2-8.4,4.8-11.9,8.2
		c-1.6,1.6-3.2,3.1-4.7,4.7c-0.4,0.4-1.1,0.7-0.8,1.7c1.3,1,3,1.3,4.7,1.8c1.2,0.4,2.4,0.7,3.5,1.1c2.4,0.9,4.8,2,7.3,2.8
		c4.6,1.7,9.1,3.4,13.2,6c1.1,0.7,2.2,1.6,3.2,2.5c1.3,1.3,2.5,2.8,3.7,4.1c1,1.1,1.6,2.4,2,3.9c0.9,3.7,1,7.4,0.1,11.1
		c-0.2,0.7-0.2,1.5-0.4,2.1c0.6,0.8,1.1,1.5,1.6,2.1c-1.3,5.5-4,10.2-6,15.5c0.8,0.1,1.4,0.3,2,0.2c5.4-0.8,10.8-1.6,16.2-2.5
		c6.8-1.1,13.8-1.2,20.6-2.6c0.6-0.1,1.2-0.2,1.9-0.2c1.2,0.1,2.5,0.2,3.6,0.5c3.2,0.9,6.4,1.9,9.7,2.7c2,0.5,4.1,1.2,6.2,0.1
		c0.5-0.2,1.2,0,1.8,0.1c3.8,0.5,7.7,0.2,11.5-0.2c1.3-0.1,2.6-0.7,3.9-1.1c0.4-0.1,0.8-0.2,1.2-0.3c-0.8,1.2-1.7,2-2.7,2.6
		c-1,0.7-2.1,1.3-3.2,1.9c-1.3,0.7-2.5,1.7-3.9,2.1c-1.4,0.4-2.9,0.3-4.2,0.4c-1,1.3-1.9,2.6-3,3.9c-2,2.5-4.1,5-6.2,7.5
		c-2.7,3.3-5.1,6.6-6.5,10.8c-1.7,4.9-3.8,9.7-4.9,14.8c-1.4,5.9-2.6,11.9-3.8,17.8c-0.2,0.7-0.3,1.5-0.3,2.2c0,2.8-0.6,5.4-1.5,8
		c-1.2,3.8-2.7,7.5-3.3,11.4c-0.1,0.7-0.4,1.4-0.6,2.1c-2.5,8.4-5.9,16.4-9.3,24.3c-0.5,1.2-1.4,2.4-1.3,3.8
		C406,485.4,405.8,485.9,405.5,486.4z M593.4,172.8c-2-0.3-3.8,0.1-5.6,1.2c-3.7,2.2-7.7,3.9-12,4.8c-2.4,0.5-4.9,0.6-7.4,1
		c-0.9,0.1-1.4-0.4-2-0.7c-0.2-0.1-0.5-0.1-0.7,0c-2.4,0.9-5.2,0.7-7.4,2.2c-1.1,0.7-2.5,0.6-4.2,0c0.7-0.5,1-0.9,1.5-1
		c1.2-0.2,2.4-0.5,3.5-1.2c0.4-0.3,0.9-0.4,1.4-0.5c3.1-0.7,6.3-1.3,9.4-2c2.9-0.6,5.2-2,7.2-4.4c-0.7-1.1-1.4-2.1-1.9-2.9
		c-2-0.6-3.5,0-5,0.6c-2.5,1-5.1,2.3-7.8,2.2c-4.5-0.1-8.9,0.6-13.2,1.7c-0.2,0.1-0.5,0.1-0.7,0.2c-0.5,0-1-0.1-1-0.8
		c0.2-0.2,0.3-0.4,0.5-0.5c3.7-0.9,7.3-2.4,11.2-2.3c1.2,0,2.4-0.4,3.7-0.5c2.1-0.2,3.9-1.7,6.1-1.2c0.3,0.1,0.7-0.2,1-0.4
		c1.2-0.8,2.5-1,3.9-1c4-0.1,7.7-1.7,12.1-2.3c-1.7-0.6-3-1.1-4.1-0.5c-0.7,0.3-1.3,0.6-2,0.6c-5.2,0.1-10.4,0.2-15.6-1
		c-1.6-0.4-3.2-0.3-4.8,0.2c-5.3,1.9-10.8,2.6-16.3,3.9c-2.8,0.7-5.6,1-8.5,0.9c-1.4,0-2.8-0.2-4.1,0.1c-1.8,0.4-3.4,0.1-5.1-0.3
		c-4-1-8-1.6-12.1-2c-4.6-0.5-9.1-0.9-13.7-1.5c-5.2-0.7-10.1-2.4-14.7-5c-0.9-0.5-1.7-1.1-2.7-1.3c-4.1-1.1-8.1-2.4-12.3-2.7
		c-3.3-0.3-6.7-0.4-10-0.6c-2.3-0.1-4.7-0.6-7-0.2c-2.4,0.4-4.7,1.5-7,2.5c-4.6,2.1-9.5,2.8-14.4,3.5c-5.5,0.8-11.2,0.5-16.7-0.1
		c-5.4-0.6-10.8-1.4-16.2-2.3c-1.4-0.2-2.7-1-4.1-1.6c-0.2-2-2.1-2.3-3.3-3.1c-3.5-2.1-7.1-4.1-10.7-6.1c-5.1-2.9-10.4-5.2-16.3-6.1
		c-0.4-0.1-0.7-0.5-1.2-0.9c2.3-2.1,5.1-1.3,7.9-1.9c-3.1-2.7-6.1-5-9.6-6.4c-2.6,1.5-5.1,2.7-8.1,1.9c-0.8-0.2-1.7,0.1-2.5,0.4
		c-5.9,2.4-11.5,5.2-16.4,9.4c-3.6,3.1-6.8,6.6-8.7,11c-2,4.4-3.9,8.9-5.7,13.4c-2.6,6.9-4.3,14-4.3,21.4c0,2.9-0.2,5.7-1.9,8.2
		c-0.3,0.5-0.4,1.2-0.7,1.7c-0.9,1.8-1.8,3.5-2.8,5.3c-0.7,1.3-1.4,2.6-2.1,3.9c-0.6,1.1-0.4,2.2,0.2,3.2c0.3,0.5,0.6,1.1,0.9,1.6
		c2.5,4.3,6.1,7.8,9.1,11.7c1.4,1.7,3.3,3.1,4.9,4.6c2.5,2.4,5.5,3.8,8.8,4.6c3.2,0.8,6.4,0.6,9.4-0.9c1.5-0.8,2.9-1.9,4.5-2.4
		c5-1.5,9.1-4.4,13.2-7.4c3.4-2.5,6.3-5.6,8.8-9c0.6-0.8,1.2-1.6,1.1-2.7c-0.1-1.9,0.7-3.6,1.3-5.4c0.6-1.7,1.5-3.4,1.8-5.4
		c-4.7-1.3-9.3-2.1-13.6-4c-4.2-1.8-8.4-3.6-12.3-6.1c-4-2.5-7.7-5.3-11-9.1c0.7-0.1,1.1-0.2,1.3-0.1c1,0.5,1.9,1.2,2.8,1.8
		c6.9,4.5,14.4,7.8,22.2,10.4c8.1,2.7,16.5,3.4,24.8,4.7c0.5,0.1,1.1,0,1.4-0.2c1.1-0.6,2.2-0.5,3.3-0.3c5.2,0.6,10.4,0.2,15.6,0
		c1.8-0.1,3.7-0.4,5.5-0.8c7-1.3,13.9-2.6,21-2.4c4.4,0.2,8.6,1.1,12.9,1.5c1.7,1.1,3.6,0.7,5.4,0.8c2.5,0,5,0,7.5,0
		c5.6,0.1,11.2-0.4,16.7-1.3c5.3-0.9,10.5-1.9,15.7-2.9c1.3-0.2,2.7-0.3,3.8-1.3c0.3-0.3,0.9-0.3,1.4-0.4c2.8-0.5,5.6-0.9,8.4-1.6
		c4.7-1.1,9.3-2.6,13.8-4.2c0-1.1,0-2,0-3.1c2.4,2.8,2.4,2.8,5.8,4c1.1,0.4,2.1,0.8,3.2,1.1c4,1.2,8.1,0.9,12.4,0.5
		c1.4,0.4,3,1,4.7,1.5c4,1.2,8,1.5,12.1,0.6c1.3-0.3,2.7-0.9,4-0.7c1.9,0.3,3.4-0.4,5-1.1c2.3-1,4.5-2.1,6.8-3
		c0.9-0.4,1.9-0.5,2.9-0.7c1.1-0.1,2.2-0.1,3.3-0.1c4.9-0.1,9.2-1.9,13.3-4.3c0.5-0.3,1.1-0.7,1.5-1.1c1.2-1.2,2-2.6,1.1-4.3
		c-0.1-0.3,0.1-0.7,0.1-0.9c0.8-0.6,1.3-0.2,1.7,0.3c0.8,1.1,1,2.3,0.5,3.5c-0.4,1-0.9,1.9-1.5,3.1c10.5-2,20.9-2.6,30.7-5.5
		c1.1-1.6,0.4-3.7,2.5-4.7c0.7,2.5-0.7,4.8-0.4,7.1c0.7,0.9,1.5,1.7,2.2,2.5c1.2,1.5,3,2.1,4.6,1.9c3.6-0.5,7.4-0.4,10.6-2.4
		c-1.2-0.2-2.6-0.3-3.5-1.5c-0.4-0.5-1.1-0.5-1.7-0.4c-0.5,0-1,0-1.4-0.2c-0.2-0.1-0.3-0.5-0.6-0.9c1.2-0.4,2.2-0.8,3-1
		c1.4,0.3,2,1.9,3.5,1.3c0.1-4.4,0.1-4.4,2-6.3c-0.1,0.7-0.1,1.2-0.1,1.6c-0.1,1.2-0.2,2.5-0.1,3.7c0.1,1.1,0.9,1.7,2,1.8
		c1.1,0.1,2-0.4,2.3-1.4c0.6-1.7,0.5-3.4-0.3-5c-1.1-0.5-2.2-0.9-3.1-1.5c-1.3-0.9-2.7-1.2-4.2-1c-3,0.4-5.2-1.1-7.3-3.3
		c0.5-0.4,0.9-0.9,1.2-0.8c0.8,0.2,1.6,0.6,2.4,1c1.9,1,3.7,2,6,1.7c0.5-0.1,1.1,0,1.4,0.2c1.5,1.1,3.1,1.3,4.8,1.3
		c2.4,1.9,2.1,4.5,2.5,7.1c1-0.3,1.8-0.4,2.6-0.7c2.4-1,4.8-2.1,7.1-3.3c1.9-1,3.8-1.5,6-1.6c4.9-0.1,9.3-2.2,13.5-4.4
		c-0.3-1.1-1.1-1.2-1.8-1.1c-4.5,0.7-8.9,0.2-13.4,0.2c-1.7,0-3.5,0.1-5.2,0.3c-3.8,0.4-7.6,0.8-11.4,1.3c-0.2,0-0.5,0-0.7-0.1
		c-0.5-0.1-0.9-0.2-0.7-1c1.6-0.4,3.3-0.9,5-1.2c2.8-0.5,5.6-0.8,8.5-1.2c3.6-0.5,7.1-1.2,10.7-1.5c3.3-0.3,6.3-1.3,9.3-2.5
		c0.6-0.3,1.2-0.8,1.7-1.2c-0.4-1.2-1.1-1.8-2.2-1.8c-1.6,0-3.2,0.1-4.8,0.1c-3.4,0-6.7-0.1-9.9-1.3c-0.7-0.2-1.4-0.3-2.2-0.4
		c-2.3-0.2-4.7-0.3-7.1-0.4c-1.4,0.5-2.8,1.2-4.4,1.5c-2.4,0.6-4.7,1-7,2.2c-2.8,1.4-6.1,2-9.2,3c-0.5,0.2-1,0-1-0.7
		c0.8-1.1,2.6-0.8,3.2-2.5c-0.8-0.1-1.3-0.2-1.9-0.2c-2.5,0.2-4.9,0-7.4-0.6c-2.3-0.5-4.7-0.7-7-1c-6.5-0.8-13.1-1.3-19.5-2.6
		c-1.3-0.3-2.6-0.5-4,0.3c-0.6,0.3-1.5,0.1-2.2,0c-4.5-0.6-9.1-1.3-13.6-1.9c-2.9-0.4-5.9-0.8-8.9-0.9c-4.5-0.1-8.9,0-13.4,0
		c-2,0-3.9,0.4-5.8,1.1c-1.1,0.4-2.1,0.8-3.1,1.2c-2.9,1.1-5.9,1.8-9.1,1.7c-1-0.1-2,0.1-3,0.2c-4.2,0.5-8.4,0.5-12.6,0
		c-3.2-0.4-6.4-0.8-9.6-1.3c-3.1-0.5-6-1.4-8.9-2.7c-1.1-0.5-0.8-1.3-0.7-2.2c-4.1-3-8.4-5.7-13-7.8c-2.3-1-4.6-1.9-7.1-2
		c-3.3-0.1-6.7-0.1-10-0.1c-0.9,0-1.8,0.1-2.6,0.3c-3.6,1.1-7.1,0.7-10.7,0.2c-1-0.1-2-0.3-2.9-0.3c-2,0.1-3.9-0.4-5.8-1.2
		c-1.6-0.7-3.1-1.5-4.7-2.2c-2.1-1-4.3-2-6.4-3c-1.2-0.6-2.6-0.8-4-0.6c-0.4,1.2-0.8,2.4-1.2,3.5c2.1,3.3,3.6,6.7,4.8,10.2
		c0.2,0.6,0.6,1.1,1.1,1.9c0.6-1.8,1-3.2,1.5-4.6c0.1-0.3,0.5-0.6,1-1.2c0.4,3.7-1.2,6.7-1.1,10.2c1.5-0.4,2.8-1,4-1.1
		c1.4-0.1,2.9,0.3,4.4,0.4c0.5,0,1,0,1.5,0c2.2,0.1,4.5-0.2,6.6,0.6c0.4,0.2,1,0,1.5,0c1,0,2-0.1,2.9,0c5.6,0.6,10.9,2.2,16,4.7
		c0.9,0.4,1.8,0.8,2.5,1.1c1.4-0.2,2.6-0.3,4-0.5c-0.4,0.8-0.6,1.3-0.9,1.9c0.5,0.1,0.8,0.3,1.2,0.3c7.1,1.4,14.2,2.2,21.4,2.5
		c5.4,0.2,10.6,1.1,15.7,3c0.8,0.3,1.7,0.5,2.5,0.5c3.2,0,6.4,0.1,9.6-0.9c3.1-1,6.4-0.1,9.6-1.2c0.7-0.2,1.4-0.4,2.1-0.6
		c1.5-0.5,3.1-0.9,4.6-1.5c2-0.8,4.1-0.9,6.2-0.7c5.3,0.6,10.6,1.2,15.9,0.8c0.5,0,1,0,1.5,0.1c2.9,0.6,5.9,0.7,8.9,0.5
		c1.6-0.1,3.2,0.1,4.7,0.6c1.2,2.5,2.2,5.1-0.2,7.5c-0.1,0.1,0,0.4,0,0.6c1.8,0.7,3.4-0.5,5-0.8c1.1-0.2,2.1-0.8,2.6-1.9
		c0.6-1.4,0.4-2.6-0.7-3.8c-2.2-0.5-4.5-1-6.8-1.5c0.3-0.3,0.5-0.6,0.8-0.7c3.3-1.3,6.4-0.8,9.3,0.7c0,1.7,0,3.1,0,4.5
		c0,2.7-2.6,5.4-5.2,5c-2.1-0.3-4.1,0-6.2,0.1C593.8,173.3,593.6,172.9,593.4,172.8C593.3,172.7,593.4,172.7,593.4,172.8z
		 M361.6,389.5L361.6,389.5c-0.2,0.8-0.4,1.6-0.5,2.5c-0.2,1.2-0.6,2.5-0.4,3.7c0.3,2.5-0.3,4.6-1.8,6.6c-0.1,0.1,0.1,0.4,0.1,0.6
		c3-1.1,4.9-3.5,6.6-6c3.7-5.4,7.6-10.7,11.4-16.1c0.7-1,1.2-2.1,1.7-3.3c1.7-4.1,3.3-8.3,4.9-12.5c1.1-2.8,1.9-5.7,2-8.7
		c0-2.4,0-4.7-0.2-7.1c-0.2-3.6-0.7-7.2-3.9-9.7c-0.3-0.2-0.5-0.5-0.7-0.8c-1.4-2-3.3-3.4-5.4-4.4c-3.7-1.7-7.4-3.4-11.2-5.1
		c-1.7-0.7-3.3-1.7-5.3-1.5c-0.4,0.1-1-0.2-1.4-0.5c-3.3-1.8-6.9-2.8-10.4-4c-4.5-1.5-8.9-3.2-13.3-4.9c-8.5-3.2-16.8-6.7-25.7-8.9
		c-0.8-0.2-1.7-0.5-2.3-1.1c-1.1-0.9-2.3-0.9-3.5-0.9c-0.7,0-1.5,0.2-2.2,0.1c-2.7-0.3-5.4-0.6-8.1-1c-7-1.1-14-2.2-21-3.3
		c-4.9-0.8-4.9-0.8-9.5,1.7c-6.5,3.5-12.5,7.6-18.2,12.3c-1.9,1.6-3.5,3.5-5.5,5.1c-1.9,1.5-4.2,2.6-6.2,4.1
		c-2.2,1.7-4.3,3.7-6.4,5.7c-2.7,2.5-5.4,5.1-8.1,7.7c-0.4,0.4-1,1-1,1.5c0.1,1.5-0.9,2.2-1.9,3c-3.1,2.5-4.2,6.4-5.9,9.8
		c-0.4,0.8-0.4,2-0.2,2.9c0.3,1.8,0.8,3.6,1.4,5.4c0.4,1.3,1.4,2.3,2.9,2.7c0.8,0.2,1.6,0.6,2.2,1.2c3.2,2.9,7.1,4.5,10.7,6.7
		c1.5-1,2.9-0.8,4.4-0.4c7.1,1.7,14.2,3.4,21.3,5.2c0.6,0.1,1.2,0.2,1.8,0.3c5.2,0.6,10.4,1.2,15.5,1.6c3,0.3,6,0.6,8.9,0.4
		c7.3-0.6,14.6-0.9,21.7-3c1.8-0.5,3.6-0.8,5.4-1.3c2.3-0.5,4.7-0.6,6.7-2c0.4-0.3,1-0.2,1.4-0.3c4.4-0.8,8.8-1.6,13.2-2.3
		c1.1-0.2,2.1-0.6,3-1.4c0.4-0.4,1-0.7,1.4-1c0.7,0.3,1.3,0.5,1.8,0.7c1.7-0.7,2.8-1.9,3.6-3.6c0.4-0.9,0.9-1.8,1.4-2.6
		c0.3-0.4,0.7-0.8,1.1-1c0.3-0.1,0.8-0.1,1,0c0.3,0.2,0.4,0.6,0.6,0.9c0.1,0.2,0,0.5-0.1,0.7c-1.7,3.8-3.9,7.2-7.3,9.7
		c-2.8,2-5.5,4.3-8,6.7c-7.3,7.1-13.8,14.9-19.8,23.2c-2.6,3.5-5.1,7-7,11c-3.5,7.3-6,14.9-8.4,22.7c-1.5,5.1-3.3,10.1-5,15.2
		c-0.2,0.7-0.6,1.4-1,2c-1.2,1.5-1.9,3.1-1.4,5.1c0.2,0.8,0,1.7-0.2,2.6c-2.4,8.9-4.6,17.8-7.8,26.4c-1.6,4.3-3.6,8.5-5.1,12.8
		c-2.2,6.6-4.7,13.1-7.8,19.3c-0.1,0.2-0.1,0.5-0.2,0.8c0.3,0.7,0.7,1.5,0.9,2.2c-0.1,0.5-0.2,0.9-0.3,1.3c-0.8,1.7-0.6,3.3,0.5,4.9
		c0.5,0.8,0.8,1.7,1.2,2.4c-1.1,1.7-2.4,0.4-3.5,0.8c1.6,2.1,3.8,3.5,5.7,3.6c0.8,0.1,1.7-0.1,2.5-0.4c1.5-0.5,3-1.2,4.5-1.8
		c1.1-0.5,1.7-1.3,2-2.5c0.9-3.5,2-6.9,2.9-10.4c0.6-2.3,1.9-3.8,4-4.6c1.4-0.5,2.9-0.7,4.3-0.9c1.2-0.2,2.5,0.1,3.6-0.6
		c0.1-0.4,0.1-0.8,0.2-1.1c3.2-8.4,7.4-16.3,12.7-23.5c4.1-5.5,7.6-11.3,10.7-17.4c2.2-4.3,4.6-8.5,7.6-12.4c2-2.6,4.1-5,6.7-6.9
		c0.8-0.6,1.4-1.4,2-2.2c4-6.3,8.1-12.5,12.1-18.8c3.9-6.2,7.8-12.4,11.7-18.6c1.4-2.3,3-4.5,3.6-7.2c0.2-1.1,0.8-2.1,1-3.1
		c0.5-2.6,0.7-5.2,1.2-7.7c0.3-1.6,0.8-3.1,1.3-4.6C360.2,390.5,360.6,389.7,361.6,389.5z M305.9,214.9c-0.5,0.5-0.9,0.8-1.1,1.2
		c-0.5,1.3-1.2,2.5-1.4,3.8c-0.7,4.4-2.6,8.3-5.2,11.8c-1.1,1.4-2,2.9-3,4.3c-0.8,1.1-1.6,2.2-2.5,3.4c0.5,1.2,1,2.4,1.5,3.5
		c1.9,3.9,4.5,7.4,7.4,10.7c4.9,5.2,10.4,9.6,16.2,13.7c3.2,2.2,6.4,4.3,9.7,6.3c1.5,0.9,2.6,1.9,2.5,3.8c0,0.2,0.2,0.4,0.5,0.8
		c2,1.2,4.4,2,6.7,2.7c1.9,0.6,3.9,0.7,5.3,2.4c0.3,0.4,1.1,0.5,1.7,0.7c4.2,1.1,8.4,2.3,12.7,2.8c2.7,0.3,5.4,0.6,8.1,0.9
		c1,0.1,2,0.3,2.8,0.8c1.1,0.6,2.1,0.7,3.2,0.6c6.6-0.3,13.1-0.7,19.7-1.1c0.7,0,1.6-0.2,2.1-0.7c2.7-2.1,5.4-4.2,7.8-6.8
		c-0.5-0.3-0.8-0.5-1.1-0.7c-0.6-0.5-1.1-1.1-0.7-1.9c0.3-0.8,1-1.1,1.8-1.2c1,0,2,0.1,3,0.2c4.5,0.4,8.9,0.3,13.3-0.6
		c2.1-0.4,4.1-1.1,5.7-2.6c5.3-4.8,9.6-10.4,12.4-17c0.5-1.2,0.8-2.6,1-3.9c0.5-3.2,0.8-6.4,1.4-9.6c1.3-6.7,2.4-13.4,5.3-19.7
		c0.4-1,0.5-2.2,0.6-3.3c0.1-5.7,0.2-11.4,0.2-17.1c0-0.8-0.2-1.7-0.3-2.6c-2.2-0.3-4.1-1.3-6.3-1.4c-0.2,0.8-0.3,1.4-0.5,2
		c-1.1,5.4-2.1,10.7-3.2,16.1c-0.2,1-0.2,2.2-0.8,2.8c-1.3,1.4-1.4,3.1-1.9,4.8c-0.5,1.7-1,3.3-1.5,5c-0.2,0.6-0.4,1.3-0.9,1.6
		c-2,1.1-2.8,3.1-4,4.8c-6.4,8.4-14.8,13-25.6,12.7c-2.3-0.1-4.1-0.8-5.6-2.4c-6-6.3-8.6-13.8-7.3-22.5c0.4-2.6,0.7-5.2,0.7-7.8
		c0-4.1,0.2-8.2,1.2-12.2c0.1-0.3-0.2-0.7-0.3-1.2c-4.1-0.2-8.1-0.3-12.1-0.5c-0.4,1.3-1.4,2.2-0.8,3.4c0.6,1.2,0.3,2.2,0,3.2
		c-1.4,4.2-3.5,7.9-6.3,11.3c-5.2,6.2-11.7,10.7-19,14.1c-1.3,0.6-2.7,1.3-3.9,2.2c-2.6,1.9-5.5,2.8-8.7,2.7c-2.3,0-4.4-0.4-6.6-1.1
		c-0.7-0.2-1.4-0.6-2.1-0.5c-0.7,0-1.3,0.4-1.6,0.5c-3.1-2.1-5.8-4.1-8.5-6c-1.6-1.2-3.3-2.2-4.7-3.6c-1.3-1.3-2.7-2.8-3.2-4.4
		c-0.5-1.6-1.2-2.9-1.8-4.4C307.3,218,306.7,216.6,305.9,214.9z M388.9,290.5c-0.9,0.1-1.4,0.1-1.9,0.2c-7.2,0.7-14.3,1.5-21.5,1.2
		c-1.4,0-2.7,0-4.1,0c-2.5,0.1-5-0.4-7.2-1.6c-3.1-1.7-6.4-2.7-9.7-3.8c-5.5-1.7-10.7-4-15.4-7.3c-5.3-3.6-10.5-7.4-15.9-11
		c-3.9-2.7-7.5-5.7-10.9-9c-4.8-4.6-8.7-9.8-11-16.2c-0.1-0.3-0.4-0.6-0.7-0.9c-0.4,0.2-0.7,0.4-0.9,0.6c-2.3,2.3-4.6,4.5-6.9,6.8
		c-0.6,0.6-1.4,1.2-1.7,1.9c-0.9,2-2.5,3.4-4.2,4.7c-3.8,3-7.6,6-11.6,8.8c-5.4,3.7-11.2,6.9-17.5,8.9c-0.3,0.1-0.5,0.4-0.7,0.5
		c2.6,2.2,5.1,4.4,7.7,6.6c0.4,0.3,0.8,0.6,1.2,0.9c2.2,1.3,4.5,2.6,6.7,4c1.9,1.2,3.6,2.6,5.1,4.3c0.7,0.8,1.6,1.5,2.6,2
		c2.4,1.3,4.9,2.4,7.4,3.6c1.2,0.6,2.5,1.2,3.5,2c3.2,2.5,6.7,4.1,10.8,4.7c3.7,0.5,7.3,1.2,11,1.9c2.6,0.5,5.1,1,7.6,1.7
		c6.4,1.8,12.8,3.8,19.1,6.4c1.1,0.4,2.1,0.6,3.3,0.4c4.8-0.8,9.5-1.6,14.2-3c2.5-0.8,5-1.5,7.5-2.3c1.7-0.6,3.3-0.8,5.1-0.1
		c7.8-4.4,15.6-8.9,23.4-13.3c0.6-0.4,1.3-0.9,2-0.9C387,293.2,387.9,292.2,388.9,290.5z M277.1,299.9c0.1-0.1,0.2-0.3,0.3-0.4
		c-1.5-0.6-3-1.2-4.4-1.8c-3.7-1.6-7.4-3.2-10.1-6.2c-3.6-4.1-7.8-7.2-12.8-9.4c-1.7-0.7-3.3-1.7-5-2.5c-0.4-0.2-0.8-0.5-1.2-0.8
		c0.3-0.6,0.6-1.1,0.9-1.6c-1.9-2-3.9-1.9-6.1-0.5c-0.5,0.3-1.1,0.6-1.6,1c-2.8,2.1-5.7,4-8.3,6.3c-5.5,4.9-10.2,10.5-15,16
		c-8.7,9.9-13.8,21.4-15.2,34.5c-0.9,8.3,0.8,15.8,5.5,22.6c0.2,0.4,0.7,0.6,1.3,1.1c0-1,0-1.6,0-2.2c0-2.1-0.1-4.2,0.6-6.3
		c0.3-1.1,0.7-2.1,1.6-2.9c1.5-1.2,3.1-2.5,4.5-3.8c1.3-1.2,2.6-2.4,3.5-3.8c2.3-3.9,5.4-7.1,8.5-10.3c3.7-3.7,8.2-6.4,13.1-8.3
		c0.8-0.3,1.5-0.8,2.2-1.3c0.8-0.7,1.6-1.5,2.3-2.4c4.4-5.2,9.5-9.4,15.5-12.5c0.7-0.3,1.5-0.7,1.8-1.3c0.6-1.5,1.9-1.9,3.2-2.1
		c4.4-0.9,8.7-1.8,13.3-1C276.1,299.9,276.6,299.9,277.1,299.9z M378.1,62.6c-0.7,1.1-1,1.4-1.1,1.7c-2.5,5.6-4.4,11.3-5.7,17.3
		c-1.7,7.6-2.9,15.3-3.9,23.1c-0.4,3.2-1.2,6.3-0.7,9.6c0.1,0.7,0,1.5-0.1,2.2c-0.5,3.6-1,7.1-1.5,10.7c-0.1,0.6-0.4,1.2,0.4,2
		c3.3-0.4,6.9-0.5,10.4-1.2c3.6-0.8,7-2.3,10.5-3.4c0.6,0.4,1.1,0.9,1.7,1.3c2.8-1.4,5.3-2.9,7.5-4.9c0.5-0.5,1.1-1.1,1.3-1.7
		c1-4,1.8-8,1.4-12.1c-0.2-1.6-0.7-2.9-1.9-3.9c-1.9-1.5-3.1-3.5-4.1-5.7c-1.7-3.6-3.5-7.1-5.9-10.3c-2.3-3-3.9-6.3-5.4-9.7
		c-1.7-3.8-2.6-7.7-2.7-11.9C378.4,64.8,378.3,64.1,378.1,62.6z M439.1,137.2c-1.5,1.6-2.1,3-2.8,4.3c1.1,5.4,0.2,10.7,0.6,16.2
		c3.2-0.9,6.1-1.9,8.9-3.4C443.8,148.6,442.2,142.9,439.1,137.2z M371.3,132.7c0,0.3-0.1,0.4,0,0.5c1.6,2.3,3.1,4.7,4.7,7
		c0.3,0.4,0.7,0.8,1.1,1c2.2,1.2,4.4,2.3,6.6,3.4c0.2,0.1,0.4,0,0.9,0.1c0-1.5-0.7-2.8-1.2-4.2c-0.5-1.4-0.9-2.8-1.3-4
		c0.5-0.8,0.7-1.3,1.1-1.9c-0.4-1.3-0.7-2.6-1.8-3.6C377.9,130.7,374.6,131.6,371.3,132.7z M588.5,166c-1.4,0.4-2.5,0.8-3.7,1
		c-1.2,0.3-2.5,0.2-3.6,0.6c-1.1,0.3-2.4,0.2-3.5,1.3c0.7,1.5,1.5,3,0.6,4.6c-0.8,1-2.7,0.9-2.8,2.7c1.1-0.2,2.2-0.4,3.2-0.7
		c3-1.1,5.9-2.4,8.8-3.6c0.3-0.1,0.6-0.4,0.9-0.6c1-0.6,1.3-1.5,1-2.6C589.3,167.8,588.9,166.9,588.5,166z M354.2,311.8
		c-1.5,0.5-2.9-0.7-4.4-0.1c-1.4,0.6-2.8,1.1-4.2,1.5c-2.1,0.6-4.3,1.1-6.5,1.7c-0.4,0.1-1.1,0-0.9,1c1.2,0.6,2.5,1.2,3.9,1.8
		c1.4,0.7,2.9,1.3,4.2,1.8C349,316.8,351.6,314.3,354.2,311.8z M532.4,191.7c-1.5-1.4-2.7-1.1-3.7-1.3c-1.6-0.3-3.2-0.3-4.7-0.9
		c-1.6-0.7-3.1-0.6-4.7-0.3c-1,0.2-1.9,0.4-2.9,0.7c-3.7,1.1-7.5,1.7-11.4,3.4C514.1,192.7,522.9,192.2,532.4,191.7z M590.2,164.8
		c0.6,2.2,1.8,4.1,1.1,6.3c0,0.1,0.2,0.4,0.5,0.7c0.6-0.3,1.3-0.5,2-0.8c0.3-1,0.7-1.9,1-2.9c0.1-0.3,0-0.7,0-1.1
		c-0.1-1.6-1-2.4-2.6-2.5C591.6,164.5,591,164.7,590.2,164.8z"/>
	<path d="M265.7,583.3c-1.4,0.4-2.5,0.9-3.7,1.1c-0.8,0.2-1.7,0-2.5-0.1c-1-0.1-1.9-0.3-2.9-0.4c-4.2-0.3-8.4-0.6-12.6-0.9
		c-0.9-0.1-1.7-0.4-2.5-0.7c-0.4-0.2-0.8-0.7-0.9-1.1c0-0.4,0.3-1,0.7-1.2c1.1-0.5,2.3-0.8,3-1c3.9,0.7,7.3,1.3,10.7,1.9
		c1.5,0.3,2.9,0,4.2-1.1c0.6-0.5,1.2-0.9,1.9-1.2c0.7-0.3,1.5-0.5,2.1-0.4c2.1,0.3,4.1,1.1,5.7,2.6c0.7,0.7,1.1,1.9,1.9,3.2
		c2.5,1.2,5.6,2.1,8.8,2.2c6.3,0.2,12.7,0.2,19,0.2c2.6,0,5.2-0.2,7.8-0.3c0.7,0,1.5-0.1,2.2-0.1c1.7-0.1,2.9,0.5,3.1,2.6
		c0.8-0.1,1.5-0.2,2.2-0.3c4.2-0.5,8.4-1,12.6-1.5c4.5-0.5,8.8-1.6,12.9-3.3c0.9-0.4,1.9-0.7,2.8-0.8c0.3,0,0.9,0.4,1.1,0.8
		c0.2,0.2,0.1,0.8-0.1,1c-0.6,0.6-1.3,1.2-2,1.6c-3.2,1.8-6.6,2.9-10.1,3.6c-3.5,0.6-7.1,1-10.7,1.5c-1.6,0.2-3.2,0.4-4.8,0.5
		c-1.7,0.1-3.5,0.2-5.2,0.1c-4.4-0.5-8.8-1.1-13.3-1.7c-1.1-0.1-2.2-0.1-3.3-0.1c-4.5,0-8.9-0.1-13.4-0.1c-2,0-3.9-0.3-5.9-0.8
		C270.8,588.4,267.5,587.1,265.7,583.3z"/>
	<path d="M241.1,552.8c1.4-0.4,2.6-0.7,4-1c0.3,0.6,0.8,1.2,0.8,1.9c0.1,2.7,0.2,5.5,0,8.2c-0.3,3.9-0.9,7.9-1.4,11.8
		c-0.1,1.1-0.5,2.2-0.9,3.2c-0.8,2.1-2,2.5-4.1,1.5c-0.1-0.1-0.2-0.1-0.3-0.2c-0.9-0.5-1.3-1.1-1.1-2.1c0.4-2.8,0.8-5.6,2.2-8.2
		c0.4-0.8,0.7-1.9,0.7-2.8c0-2.3-0.2-4.7-0.4-7C240.2,556.3,240,554.6,241.1,552.8z"/>
	<path d="M485.9,553.1c0.9-3.2,2.9-5.2,6-6c1.9-0.5,3.7-0.4,5.3,0.6c0.3,0.2,0.6,0.8,0.6,1.2c-0.1,0.3-0.7,0.8-1,0.8
		c-3.2-0.9-5.8,0.5-8.4,2C487.6,552.1,486.8,552.6,485.9,553.1z"/>
	<path d="M361.7,351.8c0.4-0.7,1.1-0.7,1.5-0.2c1.1,1.1,2.2,2.3,3.3,3.5c0.9,1,1.7,2.1,3.2,2c1.2,3.1,1.4,5.9,1.2,8.9
		c-0.4-0.1-0.7-0.2-0.8-0.3c-0.4-0.8-0.8-1.6-0.9-2.4c-0.4-1.9-0.7-3.9-1-5.7C364.3,355.9,363.1,354.8,361.7,351.8z"/>
	<path d="M316.5,404.9c0.1,0.2,0.4,0.4,0.3,0.6c-1.1,3-2.8,5.6-4.7,8.2c-0.3-0.3-0.6-0.5-0.6-0.6
		C311.9,409.9,313.7,406.9,316.5,404.9z"/>
	<path d="M305.7,460.8c0-2.2,0.5-4.2,1.9-5.9c1.3-1.5,1.9-3.1,2.4-4.9c0.3-1.2,0.6-2.4,1.9-3c0.1,0.2,0.3,0.5,0.3,0.6
		c-2.1,4.3-3.5,8.9-5.9,13C306.3,460.7,306.1,460.7,305.7,460.8z"/>
	<path d="M320.6,395.5c0.1-0.6,0.1-1.3,0.4-1.8c1.7-2.9,3.9-5.5,6.4-7.7c0.1-0.1,0.4,0,0.7-0.1c0.1,0.2,0.3,0.5,0.2,0.6
		C327.1,388.5,322.1,394.1,320.6,395.5L320.6,395.5z"/>
	<path d="M372,353.9c2.1-0.8,3.8,0.8,6.3,0.6c-0.8,0.8-1,1.2-1.4,1.3c-0.8,0.3-1.7,0.4-2.5,0.5c-0.5,0-1-0.2-1.4-0.4
		c-0.3-0.2-0.6-0.5-0.8-0.8C372.1,354.8,372.1,354.4,372,353.9z"/>
	<path d="M316.1,437.9c0.7-3,1.3-4,3.6-6.4C319.1,434.1,318.2,435.6,316.1,437.9L316.1,437.9z"/>
	<path d="M267.4,519.9c0.6,1.6,0.3,2.6-0.8,3.5C265.4,521.4,265.4,521.4,267.4,519.9z"/>
	<path d="M361.6,389.5c-0.7-1.3-0.1-2.3,1-3.4C363.1,387.8,363.1,388.8,361.6,389.5L361.6,389.5z"/>
	<path d="M308.8,421.4c-0.4-1.4-0.2-2.2,0.9-2.7C310.3,419.8,309.9,420.5,308.8,421.4z"/>
	<path d="M348.4,377c0.3,0.1,0.4,0.2,0.4,0.3c0.1,0.4,0.2,0.8,0.3,1.2c0,0-0.2,0.1-0.2,0.1c-0.3-0.3-0.5-0.7-0.7-1
		C348.2,377.5,348.3,377.3,348.4,377z"/>
	<path d="M352.7,385.8c-0.2-0.1-0.3-0.3-0.5-0.5c-0.1-0.1-0.1-0.2-0.1-0.3c0.2,0,0.4,0,0.5,0.1c0.1,0.1,0.2,0.4,0.3,0.6
		C352.9,385.7,352.8,385.7,352.7,385.8z"/>
	<path d="M304.6,434.1c0.2,0,0.3,0,0.5,0c-0.2,0.4-0.4,0.7-0.6,1.1c-0.1-0.1-0.2-0.2-0.2-0.3C304.4,434.7,304.5,434.4,304.6,434.1z"
		/>
	<path d="M315.4,439.4c0-0.6-0.1-1.3,0.7-1.5l-0.1-0.1C315.8,438.4,315.6,438.9,315.4,439.4L315.4,439.4z"/>
	<polygon points="315.3,439.4 315.2,439.5 315.4,439.4 	"/>
	<path d="M320.5,395.4c-0.1,0.1-0.2,0.2-0.3,0.4c0-0.1,0-0.2,0.1-0.2C320.4,395.5,320.5,395.5,320.5,395.4L320.5,395.4z"/>
	<path d="M448.8,165.1c-3,4.6-5.7,8.9-9.7,12.2c-1.4-1.6-1.5-3.1-0.9-4.7c0.8-2.1,2.3-3.8,4.2-5c1.3-0.9,2.7-1.6,4.1-2.3
		C447,165,447.7,165.1,448.8,165.1z"/>
	<path d="M395.3,181.4c-1.9,2.6-4,3.3-6.1,4c-2.1,0.6-4.2,1.1-6.7,0.8c0.4-0.5,0.5-0.9,0.8-1.1C386.8,183.4,390.6,182.4,395.3,181.4
		z"/>
	<path d="M358.3,140.1c-4,1.3-8.3,1.9-11.3,1.7c2.1-1.6,4.5-1.7,6.6-2.2c1.4-0.4,2.9-0.7,4.3-0.1
		C358.1,139.6,358.2,139.9,358.3,140.1z"/>
	<path d="M449,175.1c-0.1-0.8,0.5-1,1.1-1.3c2.8-1.2,4.3-1.5,7-1.3C454.6,174.3,451.4,175.3,449,175.1z"/>
	<path d="M358.6,168.8c1.6-1.6,2.9-1.1,4-1.3c1.2-0.2,2.4-0.3,3.9-0.5C364.2,169.3,361.8,169.1,358.6,168.8z"/>
	<path d="M568.7,166.4c-3.1,0.4-3.8,0.3-6.3-0.4C564.5,165,565.4,165,568.7,166.4z"/>
	<path d="M636.3,160.9c-1.6,1.5-3.2,2.5-5,3.5C631.9,162.2,633.6,161,636.3,160.9z"/>
	<path d="M626.1,168.1c-2.1,1.2-3.6,0.6-5,0.8c-0.4-0.9,0-1.2,0.5-1.3C623.1,167.2,623.2,167.3,626.1,168.1z"/>
	<path d="M577.8,179.6c0,1.4,0,2.6,0,4c-0.6,0.5-1.1,0-1.3-0.6C576,181.6,576.2,181.2,577.8,179.6z"/>
	<path d="M546.5,186.1c-0.9,1.7-2.2,2.3-4.6,2c1.2-0.6,1.9-0.9,2.6-1.3C545.2,186.5,545.9,186.3,546.5,186.1z"/>
	<path d="M552.4,182.3c-1.2,0.4-2.4,0.8-3.6,1.2c-0.6-0.8-0.1-1,0.3-1.1c1-0.3,2.1-0.4,3.1-0.6C552.3,181.9,552.3,182.1,552.4,182.3
		z"/>
	<path d="M455,163.2c-0.4,0.1-0.8,0.3-1.3,0.4c-0.3,0-0.7-0.1-1-0.1C453.2,162.3,453.2,162.3,455,163.2z"/>
	<path d="M459.4,161.9c1.1-1.4,1.1-1.4,2.5-0.2C460.7,162.1,460.7,162.1,459.4,161.9z"/>
	<path d="M524.1,174.9c-0.8,0.6-1.1,1-1.5,1.1c-0.2,0.1-0.6-0.1-0.9-0.2c-0.1-0.1,0-0.5,0.1-0.7
		C522.2,174.3,522.9,174.4,524.1,174.9z"/>
	<path d="M403.4,175.9c-0.1,0.1-0.1,0.2-0.2,0.2c-0.5,0.2-1.1,0.5-1.6,0c-0.1-0.1,0-0.2-0.1-0.3c0.5-0.1,1.1-0.1,1.6-0.2
		C403.2,175.7,403.3,175.8,403.4,175.9z"/>
	<path d="M460.7,171.1c0.5-0.3,1.1-0.7,2-1.3C461.9,170.9,461.9,170.9,460.7,171.1L460.7,171.1z"/>
	<path d="M396.9,179.2c-0.1-0.1-0.2-0.2-0.4-0.3c0.1,0,0.2-0.1,0.3-0.1c0.2,0,0.4,0.1,0.6,0.2C397.2,179,397,179.1,396.9,179.2z"/>
	<path d="M408.7,173.5c-0.7,0.5-1,0.8-1.3,1c-0.1-0.2-0.1-0.4-0.2-0.7C407.5,173.7,407.8,173.7,408.7,173.5z"/>
	<path d="M616.4,169.1c-0.2,0.1-0.4,0.2-0.6,0.3c-0.1-0.3-0.2-0.5-0.2-0.8c0-0.1,0.4-0.1,0.6-0.2
		C616.3,168.7,616.3,168.9,616.4,169.1z"/>
	<path d="M370.8,165c-0.4,0-0.7-0.1-1-0.1c0.2-0.1,0.4-0.2,0.7-0.3C370.5,164.6,370.6,164.8,370.8,165z"/>
	<path d="M503.9,155.3c0.1,0.1,0.2,0.2,0.3,0.3c-0.2,0.1-0.3,0.2-0.5,0.3c0,0-0.2-0.1-0.2-0.2C503.6,155.6,503.8,155.5,503.9,155.3z
		"/>
	<path d="M519.5,178.5c0,0.4,0,0.8,0,1.6C518.8,179.2,518.6,178.7,519.5,178.5L519.5,178.5z"/>
	<path d="M519.6,178.6c0-0.1,0-0.2,0-0.2C519.6,178.4,519.5,178.5,519.6,178.6L519.6,178.6z"/>
	<path d="M460.6,171c0,0.1,0,0.2,0,0.3C460.6,171.2,460.6,171.1,460.6,171L460.6,171z"/>
	<path d="M448.1,425.3c0.2-0.6,0.4-1.2,0.6-1.7c2.7-5,5.3-10,8-15c0.5-1,0.9-2.1,2.1-2.5c1,0.3,1,1,0.7,1.7
		c-2.5,6-5.2,11.8-10.2,16.1C448.8,424.3,448.4,424.8,448.1,425.3L448.1,425.3z"/>
	<path d="M471.4,327.2c1.5-0.8,2.7-0.4,4,0.1c2.1,0.8,4.1,1.9,5.7,3.4c1,0.9,1.7,2.1,2.5,3.1c0.1,0.1-0.1,0.4-0.2,1
		c-1.2-1.1-2.3-2.2-3.6-3.1c-1.3-0.9-2.7-1.7-4.1-2.5C474.3,328.5,472.9,327.9,471.4,327.2z"/>
	<path d="M418.7,465.6c-0.1,0.8-0.1,1.1-0.2,1.2c-2.1,1.9-3,4.4-3.8,7c-0.5,1.5-0.9,3.1-1.9,4.4c-0.5-1.7-0.5-1.7,0.6-5.1
		C414.5,469.3,414.9,468.7,418.7,465.6z"/>
	<path d="M493.9,342.1c0.3,0.1,0.8,0.1,0.9,0.4c1.3,2.1,1.7,4.5,1.8,6.9c-0.4,0.1-0.7,0.2-0.8,0.1c-1.6-1.9-2.5-4.1-2.3-6.7
		C493.5,342.5,493.7,342.4,493.9,342.1z"/>
	<path d="M462.5,390.8c0.1,0.3,0.4,0.5,0.4,0.6c-0.1,0.7-0.1,1.5-0.3,2.2c-0.8,3.3-1.7,6.6-2.6,10.1c-1-1.3-0.1-2.2,0-3.1
		c0.1-1.2,0.4-2.4,0.7-3.6c0.2-1.1,0.4-2.2,0.7-3.2C461.5,392.8,461.5,391.6,462.5,390.8z"/>
	<path d="M486.3,344.7c-0.6-2.7-1-5-0.8-7.6c1.7,1.8,2.4,4.1,1.9,6.4C487.3,343.8,486.8,344.1,486.3,344.7z"/>
	<path d="M405.4,486.3c0.7-0.3,0.8-0.9,0.8-1.5c1.3-0.5,1.4-1.9,2.1-2.9c0.6-0.8,0.8-1.8,1.9-2.1c0,2.3-1.3,5-3.7,7.3
		C406.2,486.9,405.8,486.6,405.4,486.3z"/>
	<path d="M478.8,354c1.8-1.6,3.4-3,5-4.4c0.9,0.9,0.3,1.5-0.1,2C482.5,353.3,481.5,353.8,478.8,354z"/>
	<path d="M432.8,438c0.6-0.9,1.2-1.8,1.9-2.6c0.3-0.3,0.9-0.3,1.3-0.3c0.2,0,0.5,0.2,0.6,0.4c0.1,0.3,0.1,0.9,0,1
		c-1.1,0.7-2.2,1.4-3.3,2C433.1,438.3,432.9,438.1,432.8,438z"/>
	<path d="M487.9,382c-1-1.1-1-2.1-0.7-3.3C488.3,379.6,488.4,380.6,487.9,382z"/>
	<path d="M478.3,370.2c1.8-0.8,2.3,0.1,3.1,0.9C480.1,372.3,479.5,371.1,478.3,370.2z"/>
	<path d="M482.7,372.7c1.6-0.3,2.2,0.1,2.2,1c0,0.2-0.6,0.6-0.7,0.5C483.7,373.8,483.3,373.3,482.7,372.7z"/>
	<path d="M460.5,385.8c-0.5-1-0.8-1.4-0.9-1.7c-0.1-0.3,0.1-0.6,0.1-1c0.2,0.3,0.6,0.5,0.7,0.8C460.6,384.3,460.5,384.7,460.5,385.8
		z"/>
	<path d="M442.1,430.5c0.2,0.2,0.3,0.3,0.4,0.3c-0.3,0.2-0.5,0.5-0.8,0.7c-0.1-0.1-0.2-0.3-0.2-0.3
		C441.7,431,441.9,430.7,442.1,430.5z"/>
	<path d="M426.7,442.2c-0.2-0.1-0.3-0.2-0.4-0.3c0,0,0.1-0.2,0.2-0.3c0.2,0,0.3,0,0.5,0C426.8,441.8,426.7,442,426.7,442.2z"/>
	<path d="M447.2,426C446.9,426.3,447.2,426.1,447.2,426L447.2,426z"/>
	<path d="M447.3,426.1c0.3-0.3,0.6-0.5,0.8-0.8l-0.1-0.1C447.7,425.5,447.5,425.8,447.3,426.1L447.3,426.1z"/>
	<path d="M409.1,77.1c0.2,0.7,0.3,1.5,0.7,2.1c1.5,2.6,2.7,5.3,2,8.5c-0.1,0.4,0.2,0.9,0.3,1.2c1.2,0.1,1.3-0.8,1.7-1.4
		c0.4-0.5,0.7-1,1.2-1.4c0.2-0.2,0.7-0.2,1-0.1c0.3,0.1,0.4,0.6,0.6,0.9c0.1,0.1,0,0.2,0,0.4c-0.5,2.3-1.8,3.8-4,4.4
		c-1,0.3-2.1-0.2-2.4-1.2c-0.4-1.7-1.1-3.3-0.8-5.1c0.1-0.6,0-1.2-0.2-1.8c-1-2.1-2.3-4.1-3.4-5.9c-1.1,0-1.3,0.7-1.4,1.2
		c-0.2,0.8-0.4,1.6-0.6,2.7c-0.5-0.4-0.8-0.6-0.9-0.9c-0.1-0.5-0.2-1-0.1-1.5c0.3-1.6-0.1-2.8-0.9-4.2c-1.4-2.3-2.3-4.9-2.4-7.7
		c1.1,2.3,2.3,4.6,3.4,6.9c0.3,0.7,0.7,1.4,1.6,1.1c0.8-0.9,0.1-1.9,0.1-2.9c0.1-0.8,0.1-1.9,0.6-2.4c2.6-3.1,5.7-5.8,9.2-7.8
		c1.7,0.5,2.8,1.7,3.4,2.9c1.7,3,4.4,3.8,7.4,4.2c0.5,0.1,0.9,0.2,1.6,0.3c-0.4,1.5-1.4,2.1-2.5,2.8c-4.2-1.4-6.6-4.9-9.5-8.1
		c-1.2,0.9-2.4,1.6-2.6,3.1l0.1-0.1c-0.6,0-0.8,0.3-0.9,0.9l0.1-0.1c-0.5,0.1-0.8,0.3-0.9,0.9l0.1-0.1c-1.9,0.4-3,1.6-3.2,3.5
		c-0.2,1.8-0.1,3.7,1.7,4.8L409.1,77.1z"/>
	<path d="M433.8,53.3c0.6-0.1,1.3,0,1.7-0.3c1.3-0.9,2.5-1.9,3.8-3c0.5,0.2,0.5,0.7,0.2,1c-1.9,2-4,3.7-6.7,4.4
		c-0.7,0.2-1.5,0.2-2.2,0.5c-2.8,1.2-5.3,1.3-8.2,0c-2.8-1.3-5.9-1.8-8.8-2.8c-3.7-1.2-7.2-2.7-10.4-4.9c-0.6-0.4-1.3-0.7-1.4-1.6
		l-0.1,0.1c1.2-0.3,2.1,0.5,3.1,1c2.3,1.1,4.7,2.3,7.1,3.2c5.1,2,10.3,2.5,15.7,1.5c0.7-0.1,1.4-0.6,2.1,0c-0.9,1.2-0.9,1.2-5,2.2
		c0.6,1.1,1.6,1.2,2.6,0.8c1.8-0.6,3.3-1.6,4.7-2.9c0.3-0.3,0.6-0.7,0.9-1C434.1,51.8,433.5,52.8,433.8,53.3c0,0.1,0,0.2,0,0.3
		C433.7,53.5,433.8,53.4,433.8,53.3z"/>
	<path d="M412.1,67.6c0.7-0.5,1.4-0.9,2.1-1.4c1.9,1.2,3.8,3.9,5.5,7.7c-0.4,0.5-0.7,1.2-1.2,1.7c-0.5,0.5-1.2,0.9-1.7,1.3
		c1.7,3.2,1.7,3.2-1.6,5.3c-0.4,0.2-0.8,0.6-1.4,1c-0.8-2.8-2.5-4.6-4.7-6.1l0.1,0.1c-0.9-3-0.8-5.9,1.5-8.3l-0.1,0.1
		c0.3-0.3,0.6-0.6,0.9-0.9l-0.1,0.1c0.3-0.3,0.6-0.6,0.9-0.9L412.1,67.6z M418,73.9c-0.2-0.5-0.4-1-0.6-1.4
		c-0.3-0.4-0.6-0.7-0.8-0.9c-1.2-0.3-2.2,1.1-3.2,0.1c0.2-1.1,1.9-0.8,1.8-2.3c-0.3-0.1-0.7-0.3-0.9-0.2c-1,0.7-2,1.4-2.9,2.2
		c-1.1,0.9-1.1,2.1-0.7,3.4c0.7,1.7,1.9,2.8,3.6,3.9c0-0.5,0.2-0.9,0-1.1c-0.5-1.2,0.1-1.9,1-2.4C416,74.7,417,74.3,418,73.9z"/>
	<path d="M455.6,72.6c3.2-1,6-2.1,9-2.8c0.2-0.1,0.5-0.1,0.7,0c1.3,0.3,2.6,0.6,4.2,1c-0.3,0.5-0.5,1-0.8,1.2
		c-0.7,0.5-1.5,0.8-2.4,1.2c-0.3,1.5-2,2.8-0.8,4.5c-0.6,0.8-1.3,0.6-1.8,0.4c-1-0.4-2-0.9-3-1.4c-0.1-0.9-0.1-1.5-0.1-2.2
		C458.9,73.8,456.8,75.2,455.6,72.6z"/>
	<path d="M420.8,93.8c0,0.5,0.2,1,0.1,1.4c-0.2,2.7,0.5,5.1,1.5,7.6c1.3,3.1,3.3,5.5,6.2,7.2c1.8,1.1,3.7,2,5.5,3.1
		c0.6,0.3,0.6,0.3,1,1.8c-0.4,0-0.7,0.1-1,0c-3.7-1.2-7.1-3-9.9-5.7c-1.5-1.5-2.8-3.1-3.3-5.3c-0.2-1-0.7-1.9-1-2.8
		c-0.8-2.3-0.6-4.6,0.1-6.9C420.1,94,420.5,94,420.8,93.8z"/>
	<path d="M385.7,59.7c1.8,2.9,3.5,5.6,5.2,8.3c0.5,0.9,1.2,1.6,2.3,1.5c2.8,5.3,5.7,10.7,8.5,16c0,0-0.1,0.2-0.3,0.5
		c-0.4-0.3-1-0.6-1.3-1c-1.4-2.1-2.6-4.2-4-6.2c-1.3-2.1-2.6-4.2-4-6.2c-1.8-2.8-3.8-5.5-5.6-8.3c-0.6-1-1-2.2-1.4-3.4
		C385.2,60.5,385.5,60.2,385.7,59.7z"/>
	<path d="M473,68.3c-0.4,1.2-1.1,1.4-2,1c-1.9-1-3.8-1.9-5.5-3.1c-2.2-1.6-4.5-1.8-7-1c-1.3,0.4-2.6,0.9-4.2,0.5
		c0.3-0.4,0.5-0.9,0.8-1.1c3.2-2,6.5-2.7,10.2-1.4C468.2,64.3,471.1,65.6,473,68.3z"/>
	<path d="M423.3,42.3c1,0.1,2,0.2,2.9,0.4c2,0.6,4,1.2,6,1.9c2,0.7,3.9,0.6,5.6-0.7c0.4-0.3,0.8-0.5,1.3-0.8c0.4,1,0.4,1-0.8,2.3
		c0.4,0.7,1.8-0.1,1.8,1.4c-3,1.9-6.5,2.9-10.4,4.4c1.1-2.1,3-2.2,4.2-3.4c-0.2-1-1.1-0.6-1.7-0.9c-0.6-0.4-1.3-0.7-2-1
		c-0.7-0.3-1.4-0.6-2-1C426.6,44,425,43.1,423.3,42.3L423.3,42.3z"/>
	<path d="M396.5,83.3c0.5,1,1.2,2.2,1.9,3.4c1.1,1.9,2.2,3.9,3.3,5.8c0.3,0.5,0.7,1.1,0.8,1.7c0.2,0.9,0.1,1.8-1.2,2.1
		c-0.2-0.9-0.2-1.9-0.5-2.7c-0.4-0.9-1.2-1.6-1.7-2.4c-0.6-1-1-2-1.5-3c-0.5-1.2-1.1-2.5-1.5-3.7c-3.1-0.5-3.7-0.7-5-2.8
		c-2.5-3.9-4.7-7.9-6.2-12.3c-0.1-0.3,0-0.7,0-1.5c1,1.8,1.7,3.2,2.5,4.6c1.3,2.4,2.6,4.8,4,7.1c0.7,1.1,1.6,2.2,2.6,3.1
		C394.4,83,395.3,83,396.5,83.3z"/>
	<path d="M458.5,30.2c0.6,1,1.3,2,1.9,3.1c0.2,0.3,0.2,0.7,0.2,1c0,0.2-0.2,0.4-0.4,0.7c-2.1-2.4-4.2-4.7-6.3-7l-0.1,0.1
		c4.1-0.3,7.7,1.4,11.2,2.9c1.7,0.7,1.9,1.1,2.7,3.1c-3.2,0.6-3.8,0.4-5.9-1.4C460.8,31.8,460,30.5,458.5,30.2l-0.2-0.1L458.5,30.2z
		"/>
	<path d="M421.3,23.3c-2.4,0.3-4.8,0.6-7.3,1c-2.6,0.4-5.1,0.9-7.7,1.4c-2.3,0.4-4.6,1.4-7,1.5c1.3-1.9,3.3-2.2,5.1-2.8
		C409.6,22.9,418,22.1,421.3,23.3z"/>
	<path d="M432.3,31.8c0.9,0.4,1.8,0.8,2.6,1.3c2.4,1.3,4.8,2.5,7.5,3.2c0.4,0.1,0.8,0.4,1.8,0.9c-1.8,0.4-3.3-0.3-4.3,1
		c-0.1,0.2-0.7,0.1-1.1,0c-2.8-0.7-5.3-1.9-7.8-3.7c1.7-0.8,2.9,1,4.6,0.5c-0.7-0.6-1.4-1.1-2-1.6C433.3,32.8,432.9,32.2,432.3,31.8
		L432.3,31.8z"/>
	<path d="M433.1,26.6c0.8,0.2,1.7,0.2,2.5,0.5c5.1,2,10,4.3,14.7,7.1c1,0.6,2.2,1.1,2.7,2.5c-0.4,0.1-0.8,0.3-1,0.1
		c-6.2-3.3-12.4-6.7-18.6-10C433.2,26.8,433.2,26.6,433.1,26.6L433.1,26.6z"/>
	<path d="M420,65.6c2-0.1,4,0,5.8-0.3c1.8-0.3,3.5-1,5.3-1.5c0.7,0.4,0.5,1,0.1,1.4c-0.6,0.6-1.3,1.2-2,1.5
		c-2.9,1.2-5.7,1.3-8.5-0.2C420.4,66.4,420.3,66,420,65.6z"/>
	<path d="M419.7,62.3c1.9-0.6,3.8-1,5.5-1.8c1.8-0.8,3.5-1.8,5.2-2.8c1,0.7,1.2,1.2,0.5,1.7C427.7,62.1,424,63.4,419.7,62.3z"/>
	<path d="M456.2,34c-1.3-1.1-2.3-2-3.4-2.9c-1.1-0.9-2.4-1.6-3.9-2.7C453.8,29.7,455.8,31.2,456.2,34z"/>
	<path d="M418.5,111c1.5,1.5,1.7,2.5,1.5,6.4c-0.6,0.2-0.8-0.2-0.9-0.7c-0.3-1.4-0.6-2.9-0.8-4.3C418.2,112,418.4,111.5,418.5,111z"
		/>
	<path d="M398.8,30.9c-1.9,0.8-2.8,0.9-6.1,0.4C394.7,30.2,395.3,30.1,398.8,30.9z"/>
	<path d="M421.2,45.4c2.2,0.9,4.5,1.8,6.8,2.7c-0.5,0.9-1.1,0.5-1.5,0.4C424.5,47.9,422.6,47,421.2,45.4z"/>
	<path d="M434.9,41.7c2.6-0.9,4.7-2.5,7.7-2.4C439.9,41.3,438.8,41.6,434.9,41.7z"/>
	<path d="M377.1,39.1c0.2-1.4,0.8-2.5,2-3.4c0.5-0.4,1.1-0.5,1.7,0.3C379.8,37.4,378.9,38.8,377.1,39.1L377.1,39.1z"/>
	<path d="M420.2,129.8c0.5,1.8,0.1,3-0.2,4.2c-1.1,0.1-1-0.5-1-0.9C418.9,131.9,418.8,130.8,420.2,129.8z"/>
	<path d="M420.6,140.4c0-1.2,0-2.2,0-3.3C422.3,138.4,422.3,139.1,420.6,140.4z"/>
	<path d="M440.4,44.7c1.1-0.6,1.8-0.9,3.2-1.6C442.2,44.6,442.2,44.6,440.4,44.7z"/>
	<path d="M404.6,60.9c1-0.1,1.9-0.1,2.6,0.8c-0.2,0.1-0.5,0.3-0.6,0.2C405.9,61.6,405.3,61.2,404.6,60.9L404.6,60.9z"/>
	<path d="M397.8,131.5c0.3,0.4,0.6,0.8,0.8,1.2c0.1,0.1-0.2,0.4-0.3,0.6c0,0-0.2-0.1-0.3-0.1C397.3,132.7,397.1,132.3,397.8,131.5z"
		/>
	<path d="M401.8,46.6c-1.1,0.1-1.6-0.8-2.2-1.4l-0.1,0.1C400.4,45.5,401.3,45.7,401.8,46.6L401.8,46.6z"/>
	<polygon points="415.6,97.9 415.7,98.2 415.5,98.2 	"/>
	<path d="M360.8,52.7c0-0.2,0-0.5,0.1-0.7c0-0.1,0.2-0.1,0.4-0.2c0,0.1,0,0.3,0,0.3C361.1,52.3,360.9,52.5,360.8,52.7L360.8,52.7z"
		/>
	<path d="M377.1,39c-0.2,0.5-0.4,1.1-0.6,1.6l0.1,0.1C376.7,40.2,376.9,39.7,377.1,39L377.1,39z"/>
	<polygon points="399.6,45.2 399.4,45.1 399.5,45.2 	"/>
	<polygon points="373.4,50.4 373.5,50.3 373.4,50.4 	"/>
	<polygon points="406.2,56.3 406.4,56.5 406.3,56.3 	"/>
	<path d="M423.4,42.2c-0.1-0.1-0.1-0.1-0.2-0.2C423.3,42.1,423.3,42.2,423.4,42.2L423.4,42.2z"/>
	<polygon points="376.4,40.6 376.3,40.8 376.5,40.7 	"/>
	<path d="M432.4,31.7c-0.1,0-0.2,0-0.3,0C432.2,31.7,432.3,31.7,432.4,31.7L432.4,31.7z"/>
	<polygon points="454,28.1 453.8,27.9 453.9,28.1 	"/>
	<polygon points="433.1,26.5 432.9,26.4 433.1,26.6 	"/>
	<path d="M437.6,119.7c-0.1,0-0.2-0.1-0.3-0.1C437.4,119.6,437.5,119.7,437.6,119.7L437.6,119.7z"/>
	<path d="M336.1,260.6c0.1,5,2.5,8.9,4.6,13c0.8,1.5,2,2.5,3.6,3.1c5.3,2.3,10.8,3.5,16.6,3.9c1.2,0.1,2.5,0.1,3.7,0.1
		c6.1,0.1,12.1-1,17.8-3.2c1.4-0.5,2.8-1.1,4.2-1.6c0.7-0.2,1.4-0.5,2.1-0.6c0.6-0.1,1.3,0.1,1.5,0.8c0.1,0.4-0.2,0.9-0.4,1.3
		c-0.2,0.3-0.5,0.5-0.9,0.7c-2.3,1.3-4.7,2.3-7.3,2.5c-1.3,0.1-2.7,0.4-4,0.8c-3.6,1.3-7.4,2-11.3,2.2c-5.4,0.2-10.7,0-15.8-1.5
		c-7.3-2.1-12.8-6.4-15.7-13.6c-0.8-2-1.1-4.1-0.9-6.2C333.8,261.3,334.5,260.6,336.1,260.6z"/>
	<path d="M333.5,258c0,0.1,0.1,0.2,0.1,0.3c0,0.1-0.1,0.2-0.2,0.2c0-0.1-0.1-0.2-0.1-0.3C333.4,258.1,333.5,258.1,333.5,258z"/>
	<path d="M238.4,284.5c3.8,0.1,6.5,1.6,9.3,2.9c2.8,1.3,5.8,2.4,7.4,5.7c1.1,0.2,2.3,0.3,3.5,0.5c2.8,0.5,5.6,1,8,2.7
		c0.5,0.3,0.9,0.9,1,1.4c0.1,0.4-0.1,0.9-0.3,1.7c-2.9-2-6.1-3.2-9.1-4.4c-0.8-0.3-1.6-0.6-2.5-0.8c-0.8-0.2-1.6-0.1-2.5,0.2
		c-6.5,1.7-13,3.2-19.6,4c-0.1,0-0.2-0.1-0.2-0.1c1.6-0.7,3.1-1.4,4.9-2.2c-1.7-0.5-3-1-5.2-1.7c3.1-0.5,5.3-0.6,7.4,0.1
		c1.4,0.5,2.6,0.4,4,0.1c1.2-0.3,2.3-0.6,3.5-0.9c-0.2-0.4-0.2-0.7-0.3-0.8c-4.6-2-9.2-3.9-13.8-6.2c0.6,0.1,1.2,0,1.7,0.2
		c3.7,1.3,7.5,2.7,11.2,4.1c1,0.4,2,1,2.9,1.6c1.2,0.8,1.1,0.8,3.3,0.4c-1.7-1.9-2.4-2.4-7-4.5C243.6,287.2,241,286.6,238.4,284.5z"
		/>
	<path d="M208.1,321.7c-0.2-1.5,0.9-2.3,1.7-3.1c3.1-3,6.2-6,9.5-8.7c2.4-1.9,4-4.2,5.1-7l-0.1,0.1c0.6-0.3,1.1-0.5,1.8-0.8
		c0.3,0.7,0.6,1.3,1,1.9c0.9-0.4,1.8-0.7,2.7-1.1c0,0.4,0.2,0.7,0.1,0.8c-1,0.9-2.1,1.8-3.1,2.6c-5.4,4-10.8,8-15.6,12.6
		C210.1,320,209,320.8,208.1,321.7L208.1,321.7z"/>
	<path d="M224.4,311.6c2.5,3.1,2.7,6.5,5.4,9.3c-2.4-0.3-3.6-1.3-4.4-2.7C224.3,316.4,223.6,314.5,224.4,311.6z"/>
	<path d="M205.8,341.6c1.4-4.1,5.8-9.6,8.7-11.5c0,0.4,0.2,0.8,0.1,1.1c-0.3,0.6-0.8,1.3-1.3,1.8
		C210.9,335.9,208.3,338.8,205.8,341.6z"/>
	<path d="M214,322.4c0.2-0.4,0.3-1,0.7-1.2c2.5-2.1,5-4.1,7.4-6c0.8,0.5,0.5,0.9,0.2,1.2C219.8,318.8,217.3,321.2,214,322.4
		L214,322.4z"/>
	<path d="M229.5,294.8c-0.8,0.9-1.5,1.8-2.4,2.7c-0.5,0.4-1.1,0.4-1.7-0.4c0.9-1.6,2.6-1.8,4.2-2.2L229.5,294.8z"/>
	<path d="M224.4,303c-0.7,0.1-1.4,0.2-2.1,0.3c-0.8,0.1-1.6,0.3-2.4,0.5l0.1,0.1c0.7-2,2.4-1.8,3.8-2.2c0.7,0.5,0.5,1,0.5,1.5
		L224.4,303z"/>
	<path d="M229.6,294.9c0.2-0.3,0.4-0.6,0.6-0.8c0.1-0.1,0.3,0.1,0.5,0.1c-0.1,0.1-0.1,0.2-0.2,0.2c-0.3,0.1-0.6,0.2-1,0.3
		L229.6,294.9z"/>
	<path d="M219.9,303.8c-0.5,0.2-1,0.4-1.6,0.6l0.1,0.1C218.8,303.9,219.4,303.7,219.9,303.8L219.9,303.8z"/>
	<path d="M242.2,302.9c-0.2,0.7-0.9,0.6-1.4,0.7l0.1,0.1C241.3,303.5,241.8,303.3,242.2,302.9L242.2,302.9z"/>
	<path d="M243.7,302.2c-0.2,0.9-0.9,0.8-1.5,0.7l0.1,0.1C242.5,302.4,243.1,302.3,243.7,302.2L243.7,302.2z"/>
	<path d="M245.2,301.4c-0.2,0.8-0.8,0.8-1.5,0.8l0.1,0.1C244,301.6,244.6,301.6,245.2,301.4L245.2,301.4z"/>
	<path d="M246.6,300.7c-0.2,0.8-0.8,0.8-1.5,0.7l0.1,0.1C245.7,301.3,246.2,301,246.6,300.7L246.6,300.7z"/>
	<path d="M248.2,300.1c-0.3,0.6-0.9,0.7-1.6,0.6l0.1,0.1C247.1,300.1,247.7,300.1,248.2,300.1L248.2,300.1z"/>
	<path d="M230.9,299c0,0,0.1-0.1,0.1-0.1c0.1,0.1,0.1,0.1,0.2,0.2C231.1,299,231,299,230.9,299z"/>
	<path d="M218.4,304.4c-0.2,0.3-0.4,0.6-0.6,0.8l0.1,0.1C218,305.1,218.3,304.8,218.4,304.4L218.4,304.4z"/>
	<path d="M217.7,305.3C217.8,305.3,217.8,305.3,217.7,305.3L217.7,305.3z"/>
	<polygon points="240.8,303.7 240.7,303.9 240.8,303.7 	"/>
	<path d="M208,321.6c-0.1,0.1-0.2,0.2-0.4,0.3c0-0.1,0.1-0.2,0.1-0.2C207.9,321.7,208,321.7,208,321.6L208,321.6z"/>
	<path d="M214,322.3C214,322.4,214,322.4,214,322.3L214,322.3z"/>
	<polygon points="248.3,300.1 248.4,299.9 248.2,300.1 	"/>
	<path d="M405.5,231.6c0.2-0.3,0.4-0.5,0.7-0.8l-0.1-0.1C405.9,230.9,405.7,231.2,405.5,231.6L405.5,231.6z"/>
	<polygon points="406.2,230.8 406.4,230.6 406.1,230.7 	"/>
</g>
</svg>
