<?xml version="1.0" encoding="utf-8"?>
<!-- Generator: Adobe Illustrator 19.1.0, SVG Export Plug-In . SVG Version: 6.00 Build 0)  -->
<svg version="1.2" baseProfile="tiny" id="Layer_2" xmlns="http://www.w3.org/2000/svg" xmlns:xlink="http://www.w3.org/1999/xlink"
	 x="0px" y="0px" width="900px" height="600px" viewBox="144 97 900 600" xml:space="preserve">
<g>
	<path d="M490,543.5c0.8-2.6,3.1-4.1,5-5.7c1.9-1.7,4.1-3.6,6.5-4.1c3.9-0.8,6.7-3.5,10.1-5.1c4.3-2.1,9-2.7,13.6-3.4
		c8.1-1.2,15.9,0.3,23.7,2.2c1.4,0.3,2.7,0.9,3.9,1.6c4.5,3,9.5,5.2,13.8,8.5c1.5,1.1,2.9,2.3,4.2,3.8c5,6,11.9,8.3,19.3,8.5
		c10,0.3,20-0.4,29.7-2.8c5.7-1.4,11.6-2,17.3-3.4c2.1-0.5,4-1.2,5.9-2.3c4.9-2.8,9.8-5.6,14.7-8.4c2.1-1.2,4.5-2.1,5.7-4.5
		c0.2-0.5,0.9-0.7,1.4-1c9.5-4.9,19.1-9.6,29.4-12.5c3.3-0.9,6.6-1.3,10-1.7c4.8-0.5,9.6-1.1,14.4-1.2c1.1,0,2,0.1,3,0.7
		c1.7-0.8,3.4-1.5,5-2.2c1.6-2.9,1.9-5.9,2.6-8.8c-0.6-1.1-1.8-1.6-2.7-2.3c-5.5-4.2-8.9-9.7-9.3-16.7c-0.4-6.4-1.1-12.9-1-19.4
		c0-9.4,3.4-17.7,10.1-24.4c1.9-1.9,4.2-3.4,6.6-4.6c3.1-1.5,6.3-0.8,9.1,0.8c2.6,1.5,5.3,3.1,7.1,5.7c0.6,0.8,1.3,0.9,2.3,0.9
		c2.3-2.5,5.1-4.2,8.7-4.5c0.2,0,0.5-0.1,0.7-0.2c9-4.2,17.9-2.2,26.9,0.1c2.6,0.7,5.2,1.4,7.8,2c1.3,0.3,2.4,0.9,3.4,1.8
		c1.1,0.9,2,2,3.2,2.8c5.1,3.5,8.4,8.5,11,13.9c0.4,0.8,0.9,1.8,0.9,2.6c-0.1,3.9,1.2,7.6,0.8,11.5c-0.2,1.5,0,3,0.1,4.6
		c0.1,2.6-0.4,5.1-1.5,7.5c-1.1,2.6-3.2,3.9-5.5,5.1c0.3,1.3,1.9,0.6,2,1.8c-0.8,0.9-2,0.1-2.9,0.9c-1.2,4-0.3,8,0.8,11.9
		c-0.5,3.7-3,4.8-6.2,4.8c-1.6,1.7-0.8,4-1.8,5.6c-0.5,1.2-1.9,1.1-2.7,2c0.4,2.3,0.3,4.5-2.4,5.2c-0.6,1.1-0.3,2-0.4,3
		c-0.5,3.5-2.7,5.6-6.2,5.4c-3.7-0.2-7.5-0.5-10.6-3.2c-0.7-0.6-1.6-1-2.7-1.1c-2,1.5-4,3-6.2,4.6c7.1,1.6,13.3,5.2,20.1,7
		c3,0.8,5.9,1.6,9,2.5c1.5-0.6,3.2-0.8,5-0.8c4-0.1,7.8-1.4,11.7-2.3c8.9-2,18-1.9,27-1.5c2.2,0.1,4.4,0.5,6.7,0.4
		c7.5-0.4,15.1,0.8,22.5,0c7.2-0.8,14.5-0.6,21.7-1.4c3.6-0.4,6.9-1.7,10.1-3.1c2.9-1.3,5.5-1.6,8.3,0.2c1.6,1,3.5,1.3,5.4,1.4
		c3.4,0.1,6.7,0.8,10.1,1.4c4.6,0.8,9.3,1.4,13.9,2c0.9,0.1,1.9,0.1,2.6,1.3c0.3,0.8-0.2,1.6-0.5,2.8c-5.4,1.9-11.1,1.9-16.9,1.1
		c0.3,0.5,0.8,0.6,0.8,1.5c-2.9,2.5-5.5,5.3-10.3,4.9c-5-0.4-10,0.1-14.9,1.8c-4.3,1.5-8.9,2.2-13.5,0.5c-2.5-0.9-5-1.1-7.6-0.7
		c-5.7,0.8-11.3,1.7-16.9,3.2c-5.6,1.5-10.9,3.6-16.2,5.7c-3.7,1.4-7.6,2.3-11.6,3c-7.4,1.4-14.8,2.8-22.6,4.3
		c4.2,1.6,8.1,3.1,12.3,3.7c4,0.5,8,0.8,12,0.4c1.9-0.2,3.8-0.3,5.6-0.2c2,0.1,4-0.2,5.9-0.6c9.8-2.3,19.8-2.9,29.7-0.8
		c4.5,0.9,9.1,1,13.7,0.9c6.5-0.2,12.9,0.1,19.4,0.2c10,0,20-0.4,29.9-1.1c5.1-0.3,10.3-0.2,15.5-0.8c2.6-0.3,5.1-0.9,7.7-0.8
		c1.4,0.1,2.8-0.1,4.1,0.5c1.6,0.7,3.3,0.3,4.8-0.2c2-0.6,3.7-0.4,5.4,0.5c1.8,1,3.8,1.3,5.8,1.2c9.8-0.5,19.4,1.4,28.9,3.3
		c0.6,0.1,1.5,0,1.8,1.4c-3.8,0.5-7.6-0.7-11.3-0.2c-4,0.5-8,0.2-12,0.2c-3.8,0-7.7,0.6-11.3-1.3c3.1-0.1,6.2,0,9.3-0.2
		c3.1-0.2,6.1-0.2,9.2-0.3c-3.5-1.1-7.2-1.4-10.7-0.8c-4.5,0.8-8.4,0.2-11.9-2.6c-0.2-0.1-0.4-0.2-0.9-0.3c-3.1,0.8-6.5,0.7-9.9,0.7
		c-4.6,0-9.1,0.7-13.7,1.1c-2.2,0.2-4.4,0.5-6.6-0.1c-0.5-0.2-1.2-0.2-1.7-0.1c-10.1,1.9-20.4,1.7-30.6,1.7c-4.9,0-9.9,0-14.8-0.4
		c-3.1-0.2-6.1,0.4-9.1,0.5c-5.8,0.3-11.5-1-17.2-1.7c-7.3-1-14.5-0.2-21.7,1.3c-3.3,0.7-6.6,1.3-10.1,1.1
		c-4.8-0.3-9.6,0.4-14.4-0.5c-1.4-0.3-2.8-0.4-4.1-0.8c-9.1-3.3-18.6-4.9-27.6-8.4c-4.5-1.8-9-3.4-13.5-5.2c-2.4-1-4.3-2.7-6.2-4.6
		c-6.1-6.2-13.2-10.7-21.9-11.7c-3.8-0.5-7.7-0.5-11.5-1.1c-1.1-0.2-2.2-0.4-3.5-1.3c1.5-1,2.9,0.3,4.5-0.6
		c-5.5-3.1-10.5-6.4-16.9-6.5c-6-0.1-11.9,0.4-17.8,2.1c-5,1.4-8.1,4.6-10.4,8.8c-1.8,3.4-2.7,7-3.1,10.8
		c-1.3,10.3-0.5,20.1,5.5,29.1c2.3,3.5,5.3,5.7,9.1,6.8c4.7,1.4,9.5,1.3,14.3,0.8c1.8-0.2,3.3-1.1,4.8-2.1c2.7-1.9,4.8-4.4,7.4-7.2
		c-3.6,0-6.8,0-9.9,0c-0.5-1.1,0.3-1.1,0.7-1.3c2.4-0.9,5-1.3,7.6-1.4c2.7-0.1,5.4,0.3,7.8-0.4c15.3,7.4,31.5,10.8,47.8,13.8
		c4.7,0.9,9.4,2,14.2,2.8c5.6,1,11.2,1.2,16.9,1.4c8.8,0.3,17.7,0.6,26.2,2.9c7.2,2,14.1,1.4,21.2,0.2c9.5-1.5,19.1-2.5,28.4-5.1
		c15.7-4.5,31.7-6.5,47.9-7.9c0.8-0.1,1.6-0.3,2.4-0.4c2.1-0.3,4.2-0.3,6.2,0.6c4.7,2.1,9.6,1.9,14.5,1c3.8-0.7,7.5-1.8,11.3-2.6
		c7.8-1.8,15.8-2.3,23.8-2.6c1.9-0.1,4,0.3,5.8-1.6c-3.5-1.3-6.8-1.5-10.3-1.2c-3.2,0.2-6.3,0.3-9.5,0c-1.8-0.2-3.7-0.4-5.1-1.7
		c0.4-1.1,1.1-0.7,1.8-0.6c4.4,0.7,8.8,1.1,13.3,0.4c3.2-0.5,6.3,0.3,9.7,1c2.7-2.2,7.4-0.2,9.6-4.3c1,2,0.7,3.1-1.5,3.7
		c-1.6,0.5-3.2,0.7-4.9,1.1c0.3,0.3,0.5,0.7,1,1.3c-2.7,2.1-5.3,4.1-8.9,4.2c-2.9,0-5.9,0.3-8.8,0.4c-8.9,0.1-17.4,2.6-26,4.7
		c-5.9,1.4-11.6,1.4-16.9-1.3c-6.6,0.3-12.9,1-19.2,1.7c-7.8,0.9-15.7,1.4-23.4,3.3c-5,1.2-9.9,2.9-14.9,4.2
		c-9.3,2.5-18.9,3.6-28.5,4.7c-4,0.5-8,1.4-11.9,0.6c-3.2-0.7-6.5-0.8-9.7-1.4c-7.1-1.3-14.2-1.5-21.4-2.1
		c-14.5-1.1-29-2.5-43.3-5.6c-3.4-0.7-6.9-1.6-10.2-2.9c-2.6-1-5.3-1.8-8.1-2.5c-5.7-1.4-11.2-3.5-16.5-6.5
		c-1.8,3.3-3.6,6.3-4.8,9.8c-1.5,4.6-2.4,9.5-5.4,13.6c-3.9,5.2-8.8,9.1-14.7,11.7c-3.6,1.6-7.4,2.5-11.1,3.4
		c-2.7,0.7-5.5,0.7-8-0.1c-5.8-1.8-11.9-2.3-17.8-3.4c-1.4-0.3-2.8-0.5-4-1.3c0.8-1.6,2.1-1.6,3.6-1.3c4.8,0.9,9.7,1.5,14.5,2.6
		c6.5,1.6,12.8,1.4,18.8-1.7c1.5-0.8,3.1-1.1,4.6-1.8c3.2-1.4,6.3-3.2,8.3-5.2c0.9-1.5-0.4-2.4,0.6-3.5c0.6-0.6,1.5-1.4,2.4-2.2
		c2.3-2.4,4.3-5.1,4.9-8.4c0.6-3.8,2.2-7.1,4.3-10.3c0.4-0.7,1.1-1.2,0.9-2.4c-1.3-0.3-2.6-0.4-4,0.1c-0.5,1.9-1.2,3.6-2.7,4.9
		c-1.8,1.5-3.6,3-5.5,4.4c-2.3,1.7-4.8,3.2-7.7,3c-2.1-0.1-4.2,0.1-6.3,0.2c-6.6,0.2-12.5-1.5-16.6-6.9c-3.8-4.9-7-10.3-8.6-16.4
		c-0.1-0.2-0.1-0.5-0.1-0.7c-1.7-10.1-0.7-19.9,4.7-28.8c-0.3-0.3-0.5-0.6-0.6-0.7c6.7-7.5,15.2-10.6,25.1-11
		c10.1-0.4,18.5,3.3,25.6,10.3c1-0.2,2-0.5,3.1-0.8c-3.7-4.8-8.3-7.7-13.6-9.4c-3.5-1.2-6.8-2.5-10-4.3c-2.1-1.2-4.4-2.3-6.7-2.3
		c-1.1-0.9-2-1.7-2.5-2.8c-0.6-1.2,0.2-2.4,0.4-3.8c-4.4,0.5-8.5,0.9-12.5,1.5c-2.5,0.4-5.1,0-7.7,0.8c-8.3,2.7-15.8,7.3-23.6,11
		c-0.4,0.2-0.8,0.5-1.2,0.8c-3.5,2.8-7.4,5-11.2,7.3c-0.7,0.4-1.6,0.5-1.7,1.5c0.2,0.4,0.4,0.8,0.7,1.2c3.7,5.9,6.6,12.1,7.8,19
		c0.8,4.6,2.1,9.2,2.8,13.8c1.8,12,3.9,23.9,2.4,36.1c-0.2,1.6-0.3,3.2-0.5,5.1c3-0.2,6-1.4,8.4,1.2c-0.1,0.3-0.1,0.7-0.2,1.3
		c-4-0.2-7.9,0.2-11.9,0.6c-9.9,1.1-19.9,2.1-29.8,2.7c-3.3,0.2-6.6,0.2-9.9-0.3c-4.7-0.8-9.4,0-14,0.2c-10.7,0.5-21.4,1.1-32,1.7
		c-2.1,0.1-4.1-0.9-6.2-0.9c-2.1,0-4.2-0.1-6.3,0.6c-7.3,2.3-14.7,2.9-22.3,2.9c-8.9,0.1-17.9,0.3-26.8,0.5c-3.3,0.1-6.6,0-9.8-0.8
		c-6-1.6-12.3-1.6-18.3-3.4c-2.2-0.7-4-2.1-6.4-2.6c-18.6-3.4-36.5-9.7-54.8-14.7c-7.8-2.1-15.6-4.3-23.5-6.4
		c-1.5-0.4-2.9-0.8-4-2.1c-0.3-0.4-0.7-0.7-1.1-0.9c-6.7-3.2-13.3-6.5-20.6-8c-7.3-1.5-14-4.7-20.3-8.6c-0.3-0.2-0.7-0.3-0.9-0.6
		c-2.8-3.7-7.1-4-11-4.8c-6.7-1.4-13.1-3.7-19.5-6.1c-2.9-1.1-5.8-1.8-8.7-2.8c-6.9-2.4-13.4-5.7-20.1-8.6c-6.9-3-13.5-6.6-20.6-9.2
		c-7.7-2.8-15.8-4.7-24-5.2c-5.6-0.4-11.2-1-16.9-0.2c-1.4,0.2-2.7-0.4-4.1-1.3c2.4-1.5,4.8-2,7.4-2.1c5.5,0,11,0.5,16.5,0.9
		c12.8,0.7,24.3,5.6,35.6,11.1c7,3.4,13.9,6.9,20.8,10.3c4.2,2,8.6,3.8,13.1,5.1c10.8,3.2,21.4,7,32.4,9.6c0.5,0.1,1,0.5,1.6,0.8
		c-0.5,1.7-2,0.1-2.7,0.9c0.2,0.2,0.4,0.4,0.7,0.6c6.3,3.9,13.2,5.9,20.2,8.1c3.6,1.1,7.1,2.5,10.7,3.4c3.3,0.9,5.7,3.1,8.8,4.3
		c3.3,1.3,6.7,2.3,10.1,3.2c14.2,3.7,28.1,8.7,42.2,12.5c9.6,2.6,19.4,4.8,29.1,6.9c3.2,0.7,6.4,1.5,9.9,2.3
		c1.5-6.9,3.7-13.5,4.5-20.5c0.6-5.2,0.8-10.5,2-15.7c0.5-1.9,0.3-4,0.2-6c-0.2-4.1-0.6-8.2-1-12.3c-0.2-2.9-1.6-5.4-2.8-8.1
		c-7,1.4-14.2,1-21.3,1.5c-6.9,0.4-13.9,0.3-20.8-0.5c-4.3-0.5-8.7-0.5-13-0.6c-2,0-4,0-6-0.5c-5.6-1.4-11.5-0.7-17.2-1.5
		c-5.9-0.8-11.9-1.1-17.9-2c-2.3-0.4-4.6-1-6.8-1.9c-3.4,1.4-6.4,0-10.3-1c2.3-0.8,3.9,0.3,5.6-0.3c-1.1-1.2-2.7-1.2-4-1.9
		c-8.2-4.5-16.5-8.9-24-14.8c-2.3-1.8-4.8-3.4-7.6-4.3c-4.9-1.5-9.8-3.1-14.8-4.6c-3.5-1-7.1-1.3-10.8-1.4c-3.5-0.1-7-0.4-10.5-0.7
		c-4.1-0.4-8.2-0.4-12.3,0c-9,1-17.8,0.4-26.7-1c-5.6-0.9-11.1-1.9-16.7-2.8c-1.2-0.2-2.3-0.6-3.5-1c-3.4,1.1-7.1,1.3-10.7,0.8
		c-6.1-0.8-10.5,1.6-13.5,6.8c-0.1,4.1-2.8,7.8-2.3,12.2c2,3.8,2,3.8,4.5,4.6c-0.3,0.4-0.6,0.7-1,1.2c0.8,1.2,1.6,2.5,2.3,3.7
		c-0.1,0.9-0.5,1.4-1.5,1.6c-0.3-0.2-0.9-0.3-1.4-0.7c-2.5-1.7-5.3-2.7-8.2-2.8c-4.8-0.1-9.6-1-14.3-1.6c-3.6-0.4-6.9-1.2-10.1-2.8
		c-2.2-1.2-4.5-1.8-7.1-2c-2.8-0.3-5.6-0.6-8.1-2.3c-0.8-0.5-1.8-0.3-2.8-0.3c-4.3,0-8.7,0-13,0c-3.2,0-5.7-1.5-7.5-4
		c-1.4-1.8-2.4-4-3.4-5.8c0.6-1.1,1.4-0.8,2-0.7c1.9-5.6,5.7-9.6,10.2-12.9c6.8-4.9,13.8-9.5,22.2-11.1c5-1,10-2.5,15.2-1.4
		c2.1,0.4,4.4,0.1,6.4,0.1c0.7-0.6,1.2-0.8,1.4-1.2c1.6-3.7,5-5.9,7.6-8.6c3.2-3.3,7.5-4.7,11.9-5.8c3.9-1,7.7-2,11.3-3.5
		c0.6-0.6,0.3-1.8,1.5-2.1c0.2,0,0.5,0,0.8,0.2c1.6,0.9,2.3,2.3,2.5,4c0.2,2.4,1.3,4.5,1.9,6.7c1.7,5.7,4.4,11.1,4.1,17.3
		c-0.1,2.7,0.8,5.3,0.7,7.9c13.8,3.8,40.5,5.8,54.4,4.3c0-1.3-1-1-1.8-1c-4.6-0.2-9.2-0.4-13.7-0.5c-3.6-0.1-7.3-0.4-10.9-0.9
		c-4.4-0.6-8.9-0.3-13.3-1.3c-1-0.2-2.1-0.3-3.1-0.7c-1.6-0.6-3.1-0.6-4.8-0.4c-1.8,0.3-3.7,0.7-5.5-0.8c3.4-1.9,7.6-1.5,10.3-4.6
		c-0.1-2.1-0.3-4.2-0.4-6.3c0-0.5,0-1-0.2-1.4c-2.1-2.7-2.3-6.1-3.4-9.2c-0.7-1.9-1.2-3.8-1.3-5.8c-0.1-2-1-3.8-2-5.5
		c-3.6-0.5-7,0.9-10.8,0.6c1.1-2.8,3.5-2.2,5.4-2.5c1.9-0.3,4-0.5,6.2-0.1c1.7,2.4,3.2,5.1,3.8,8c0.8,4.2,1.8,8.2,3.3,12.2
		c1.2,3.1,1.1,6.4,1.3,9.7c0.1,1.2-1,1.8-1.2,3.2c2.7,1.3,5.7,1.8,8.7,1.9c14.7,0.2,29.3,0.8,44,2.6c4.1,0.5,8.2,0.6,12.3,0.6
		c5,0.1,10.1,1,15,2c13.6,2.7,26.3,7.6,37.9,15.4c8.5,5.7,18,8.9,28.3,9.8c3.1,0.3,6.3,0.2,9.4,1.4c0.8,0.3,1.9,0.1,2.8,0.1
		c5.9-0.1,11.8-0.1,17.6-0.2c3.6,0,7.3,0.2,10.9,0.7c9.9,1.1,20,0.8,29.9,1.1c1.3,0,2.6-0.3,3.8,0.4c1.1,1.8,1.9,3.7,2.4,5.6
		c1.5,0.1,0.9-1.8,1.5-1.6c1.5,0.5,1.9-0.6,2.5-1.3c9.9-11.4,23-14.9,37.5-14.3c8.9,0.4,17,4.3,25.2,7.5c0.9,0.3,1.6,0.9,2.4,1.4
		c0.8,0.5,1.1,1.2,1,2.1l0.1-0.1c-0.8-0.2-1.6-0.4-2.4-0.7c-6-2.4-12.2-4.3-18.4-6c-9.1-2.4-18.1-2.6-27,1.1
		c-6.5,2.7-12.8,5.7-17.1,11.5c1.4,3.5,2.8,6.9,4.2,10.2l0.1-0.1c-1.6-0.3-1.9-1.9-2.7-3c-0.7-0.9-1.1-2.1-2.3-2.8
		c1.7,4.4,2.1,8.9,2.6,13.4c0.6,5.7,0.2,11.4-0.6,17.2c-1.3,9.2-1.9,18.5-4.8,27.4c-0.4,1.3-1,2.6-0.8,4.2c0.4,0.2,0.8,0.4,1.2,0.6
		c5.2,2,10.7,2.6,16,4.2c0.5,0.2,1.2,0.1,1.7,0c9.9-1.5,20-0.9,29.9-1c10-0.1,19.9-0.6,29.8-2.6c8.1-21.3,10.8-43,3.4-65.2
		c-3.1-1.4-5.6-3.4-7.8-5.7c-2.1-2.2-4.3-4.4-6.4-6.6c-1.4-1.5-3-2.5-4.8-3.6c-3.5-2-7.4-2.9-11-4.6c-7.1-3.3-14.5-2.8-21.8-2
		c-4.9,0.5-9.6,2-13.9,4.8c-2.5,1.6-5.3,2.5-8.2,3.1c-1.9,0.4-3.5,1.2-5,2.4C494.7,541,492.6,542.7,490,543.5z M726.5,443.9
		c-1.2,0.5-1.6,1.4-1.5,2.6c-0.1,0.1-0.3,0.3-0.4,0.4c-0.2,0.2-0.4,0.3-0.5,0.5c-3.7,6.8-5.2,14.4-5.3,21.9
		c-0.1,4.6,0.5,9.3,1.3,13.9c1,6.2,4.1,11,9,15.4c0.5-3.4-0.4-5.8-2.6-7.5c0.3-1.1,1.4-0.3,1.7-1.1c-0.1-1.6-1-2.9-0.9-4.5l-0.1,0.1
		c2.7,4,4,8.4,4.3,13.2c0.1,1.8,0.5,3.3,2.3,4.4c0.6-3.3-0.1-6.2-0.5-9.1c-0.4-3.2-1.8-5.7-3.2-8.4c-1.4-2.7-3.7-4.6-5.4-7
		c2.8,1.6,4.9,3.8,6.7,6.5c2.2,3.3,3,7.1,4.2,10.8c1.5,4.7,1.1,9-1,13.3c-0.3,0.7-1.2,1.3-0.6,2.2c3.9-4.9,7.4-12,4.7-18.9
		c-0.5-1.2-0.7-2.5-1-3.7c-0.6-2.1-1.9-3.7-3.7-5c-0.5-0.3-1-0.6-1.4-1c-8.8-8.3-8.4-24.7,0.8-32.6c1.4-1.2,2.8-2.3,4.7-2.2
		c2,0.1,3.8-0.3,5.6-1.1c0,0,0.3,0.3,0.4,0.5c0,0.6-0.5,0.8-0.9,1c-3.7,2.1-7,5-8.7,8.9c-3,6.7-5.7,13.5-1.3,20.7
		c-1.2-0.9-2.3-1.9-3.5-3.5c0.7,3.4,0.7,3.4,4.6,6.9c0.1-0.5,0.2-0.9,0.2-1.4c3.1,5.1,7.5,9.5,9.3,16.3c-1-1.2-1.5-1.8-2.5-3
		c0,3.1,0.1,5.6,0,8c-0.1,2.3-0.5,4.4-2.4,6c-1.1,0.9-1.7,2.3-2.2,4.1c5.9-3.2,7.7-8.3,8.3-13.9c0.3-2.7,0.7-5.6-0.7-8.3
		c-0.5,0.3-0.7,0.5-1,0.7c-2.6-2.2-4.3-4.3-5.3-6.8c-0.5-1.1-1-2.1-1.8-3c-3.6-4-4-8.6-2.9-13.6c0.4-1.9,1-3.9,1.9-5.6
		c0.7-1.1-0.3-2-0.1-2.5c2.5-2.8,4.9-4.8,8-5.5c1.1-1.2,1.4-2.9,2.9-3.6c0.8,0.6,1.5,1,2,1.9c2.3,4.8,5.6,8.9,8.9,13.1
		c0.3,0.4,1.3,0.9,0.4,1.8c-2.9-2.6-5-5.9-7.6-8.7c0.8,3.4,2.6,6.3,4.6,9.1c0.7,1,2,1.7,2.1,3.1l0,0c-2.8-0.6-4-3.3-6.4-5
		c0.7,4.2,3.4,7.1,5.2,10.8c-1.8-0.8-2.2-2.1-3-3c-4.6-5.5-7-11.7-5.1-18.9c0.2-0.8,0.3-1.6-0.8-2.2c-1.3,1.8-2.6,3.7-2.7,5.9
		c-0.1,1.7-0.5,3.2-1,4.7c-1.7,5.2-2.7,10.4-2.7,15.9c0,2.5,0.5,4.5,3,5.6c-0.3-4-2.1-7.7-1.7-11.7c0.8,2.6,1.5,5.2,2.2,7.8
		c0.6,2.3,1.2,4.5,3.6,5.5c0.4,2.7,1.1,5,2.3,7.2c1.2,2.3,1.7,4.9,1.9,7.5c0.2,2.3-0.5,4.7-2.1,6.5c-3.6,3.9-7.8,7.1-12.6,9.5
		c-2.4,1.2-4.8,2.4-7.5,3.8c-1.7-1.3-3.1,0.8-5.5,0.9c2.7-2.4,5-4.6,7-7.4c-2-0.4-2.7,0.5-3.5,1.7c-0.8,1.3-1.4,2.8-3.1,3.7
		c0.1-1.6,1.5-2.6,1.4-4.2c-1.9,0.8-3.5,1.5-4.9,2.1c-0.9-0.1-1.1-1.2-2-0.9c-0.6,0.6-1.5,1.1-1.6,2.3c0.8,1.1,2,1.8,3.3,2.4
		c1.5,0.7,3.2,1.1,4.3,2.3c0.8,0.9,1.7,1.1,2.8,1.3c9.4,2.1,17.4,6.2,22.6,14.5c2.7,0.4,5.1,0.8,6.9,1.1c5.7-4.8,11.2-9.2,15.7-14.9
		c-0.7-0.7-1.5-1.3-2.3-2.1c-0.7-0.6-1.7-1-1.9-2.5c2.8,1.1,4.9,3.1,7.9,2.7c3,3.3,6.8,4.8,11.2,5.3c2.8,0.3,4.8-1.2,5-4
		c0.1-1-0.4-2.1,0.2-3.1c0.7-1.2,2.4-0.8,3.3-2.1c-0.1-1.1-0.5-2.2-1.6-3.1c-2-0.4-4.5-0.5-5.5-3.7c3.6-0.2,6.3,4.5,10,1.3
		c-0.4-1.8-0.3-3.6,0.7-5.2c-0.6-1.1-2.3-0.4-2.4-1.9c1.6-1.1,3-1.6,4.6,0.1c1,1.1,2.3,0.7,3.4,0.4c0.9-1.1,0.5-2.1,0.3-3.1
		c-1-3.9-1.2-7.9-0.4-11.9c0.5-2.4,1.1-4.9,4.4-5c0.9,0,1.7-0.7,2.4-1.8c-0.1-3.8,0.2-7.9,0.9-11.9c0.5-2.9,0.8-5.8-2-8
		c-0.4-0.3-0.1-1.2-0.7-1.5c-0.5-0.1-1.1,0.5-1.4,0.2c-3.1-9.6-9.6-15.4-18.6-19.8c3.6,0.6,6.3,1.7,8.7,3.3c2.5,1.6,4.4,3.8,6.8,6
		c0-1.8-1.7-2.5-1.3-4c2.7,1.8,3.5,5,5.5,7.3c-0.7-3.6-2.4-6.4-5.5-8.5c-4.1-3.7-8.9-5.9-14.3-7c-3.9-0.7-7.9-1-11.8-2
		c-5.6-1.3-11.2-0.8-16.7,0.6c-1.4,0.4-3,0.4-4.4,2c4.4-0.5,8.4-0.6,12.4-0.3c4.1,0.3,8.2,0.2,12.2,1.4c-1.6,0.1-3.3,0.1-4.9,0.1
		c-5.8-0.1-11.5-0.7-17.3-0.1c-4.5,0.4-8.8,1.3-12.2,4.9c-2.5-1.6-4.7-3.5-7.9-3.8c2.1-1.5,3.7-0.2,5.5-0.3
		c-0.3-0.7-0.5-1.1-0.8-1.6c1.7-0.6,2.2,2,4.1,1.3c-4.8-3.8-9.8-5.9-16.3-4.8c-1.7,1.6-4.2,3.2-5.2,6.1L726.5,443.9z M588.9,616.5
		c0.8,0.8,1.3,0.5,1.9,0.5c9.4-0.3,18.8-0.6,28.2-1c8.6-0.4,17.2,0.4,25.7-0.5c4-0.4,8-0.4,11.9-0.9c3.6-0.4,7.3-0.1,10.6-1
		c0.7-0.8,0.7-1.5,0.8-2.2c1.3-8.2,1.3-16.4,0.3-24.6c-1.6-12.7-4.8-25.1-8.2-37.5c-1.1-3.9-3.4-7.3-5.7-10.4
		c-2.2,0.2-2.2,2.4-3.7,3c-3.6,1.6-6.9,3.8-11,4.6c-7.7,1.4-15.4,3.2-23.1,4.9c-4.3,0.9-8.5,1.8-12.9,1.5c-3.2-0.2-6.4-0.1-9.5,0.5
		c-4.5,0.9-8.9,0.6-13.3-0.4c-0.6-0.1-1.4-0.6-1.8,0.2c2.1,10.7,3.8,21.3,3.2,32.2c-0.6,10.9-3.7,21.2-7.2,31.4
		c7.9,1.8,13.1-0.1,17.5-6c0.6-0.8,1.1-1.8,2.7-1.7C593.4,612,591.8,614.8,588.9,616.5z M248,478.4c-3.1,1.1-5.7,2.2-8.4,3
		c-5.4,1.6-10.6,3.6-15.5,6.5c-2.7,1.7-5,3.3-6,6.5c-0.5,1.7-1.8,3.1-3.8,3.3c-2,0.2-4,0.5-6,0.2c-7.2-1.2-13.8,0.9-20.2,3.6
		c-7.1,3-13,8-19.1,12.6c-2,1.5-3.6,3.4-4.8,5.6c-0.9,1.5-1.9,2.9-2.9,4.5c1.9,3.4,5.1,4.7,8.8,4.4c5.3-0.3,10.6,0.4,15.9,0.5
		c1.4,0,2.9,0,4,1.1c0.9,0.8,2,0.7,3,0.8c1.9,0,3.6,0.7,5.4,1.4c0.2,0.1,0.4,0,0.7,0c0.6-0.6,0.9-1.7,2-1.5c1.8,0.6,0.8,2.4,1.8,3.5
		c1.6,0.9,3.4,1.6,5.5,1.4c-0.6-3.7-0.5-3.9,2-5.1c2.5,1.3,1,3.5,1.1,5.3c0.9,0.4,1.8,0.7,2.6-0.2c0.6-1.5-0.4-3.7,2-4.5
		c2.7,0.9,1,3.5,2.1,5.3c2.7,0.4,5.5,1.1,8.5,1.1c-1.4-3.2-0.4-6.2,0.3-9c1-3.9,3-7.6,4.5-11.4c1.8-4.4,4.9-6.7,9.8-6.4
		c3.4,0.2,6.8,0.2,10.2,0.2c1.5,0,3,0.1,4.3-1.1c-1.4-3.4-2-6.8-2.1-10.4c-0.1-4.2-1.7-8.2-2.6-12.3
		C250.3,484.3,248.4,481.7,248,478.4z M906.6,531.5c-1,0.3-2.1,0.6-3.2,1.1c-6.1,2.8-12.5,4-19.2,3.7c-1.5-0.1-3.2-0.2-4.6,0.2
		c-4.1,1.3-8.4,1.5-12.6,1.2c-7.9-0.6-15.7-0.2-23.6,0.1c-1.4,0-2.9,0.1-4.2-0.2c-6-1.2-11.9-0.7-17.9-0.2c-5.2,0.4-10.1,2-15.2,2.9
		c-4.3,0.7-8.6,0.9-12.9-0.1c-5.3-1.2-10.4-2.9-15.4-4.8c-3.6-1.3-7.2-2.8-11.3-3.4c-2.4,2.3-4.9,4.9-7.9,7.1
		c1.5,0.8,2.8,0.5,3.8,1.3c3.3,2.7,6.9,4.9,10,7.8c4.1,3.7,7.6,8.4,13.9,8.5c0.1,0,0.2,0.1,0.3,0.1c5.9,2.9,12.3,4.5,18.6,6.5
		c0.7,0.2,1.4,0.5,2,0.4c2.9-0.4,5.8-0.9,8.7-1.5c5.2-1.2,10.3-2.3,15.5-3.3c4.6-0.8,9.2-1.7,13.7-3.3c5.1-1.8,10-3.9,15.3-5.1
		c5.8-1.4,11.6-2.9,17.4-4.5c2.9-0.8,5.9-0.9,8.9,0.7c1.9,1,4.3,2,6.7,1.6c2.1-0.4,4.2-0.5,6.2-1.2c5.5-2,11.3-2.1,17-2.1
		c2.8,0,5.1-1.3,7.5-3.2c-1.4-0.3-2.4-0.4-3.4-0.7c-2.6-0.7-5.2-1.1-8-0.6c-2.5,0.4-5.2,0.4-7.7-0.4c-0.6-0.2-1.5-0.2-1.3-1.5
		c2.9,0.8,5.7-3.1,8.7,0c2.4-1,4.8-0.5,7.1,0c5.3,1.2,10.7,1.1,16.1,0.6c0.6,0,1.5,0.1,1.5-1.2C927.5,534.9,917,534.6,906.6,531.5z
		 M325.5,514.8c1.3,0.4,2.3,0.8,3.3,0.9c5.6,0.5,10.8,2,16.1,3.8c6.3,2.2,12.8,4,18.1,8.4c5.1,4.2,10.8,7.6,16.4,11
		c4.9,3,10.1,5.5,15.9,6.5c12.2,2.2,24.4,3.7,36.8,3.7c8.1,0,16.2,0.3,24.3,1.1c5.7,0.6,11.5,0.6,17.3,0.5
		c5.4-0.1,10.7-0.9,16.1-0.4c0.4,0,1-0.1,1.1-0.9c-1-1.4-2-2.9-3.6-4c-1.5,0-2.9,0-4.3,0c-7.5,0-15.1,0.2-22.6,0
		c-4.2-0.1-8.4-1-12.7-0.8c-7.4,0.2-14.8,0.5-22.2,0.6c-3.9,0.1-7.7,0.2-11.6-0.7c-8.1-2-15.4-5.5-22.7-9.2c-3.9-2-7.7-4.1-11.1-6.8
		c-0.9-0.7-2-1.3-3.1-1.7c-9-4-18.3-7.4-28.1-9c-4.4-0.7-8.8-1.4-13.2-2C332.4,515.4,329.1,514.6,325.5,514.8z M729.1,472.5
		c0.2-9.1,2.2-17.5,10.6-23.4C731.4,451.3,726.4,462.4,729.1,472.5z M746.3,493.1c0.3,5.3-0.6,10.1-3.2,14.5
		C749.5,502.3,750.7,499.3,746.3,493.1z M736.9,464c-2,4-2.4,8.5-0.8,11C735.7,471.4,737.3,468,736.9,464z M737.4,462
		c2-1.5,3.3-3.4,3.8-6.5C738.8,457.5,738,459.7,737.4,462z M729.5,509.4c2-1.5,2-1.5,1.2-3.9C730.1,506.6,729.9,507.7,729.5,509.4z
		 M744.6,484.9c0.3,0.9,0.5,1.5,1.5,1.6C745.8,485.3,745.8,485.3,744.6,484.9z M940.8,538.8c1.4-0.7,1.3-1.3,0-2
		C940.2,537.5,940.1,538.1,940.8,538.8z"/>
	<path d="M246.5,259.1c-0.3-1.5,0.3-2.5,1.7-3.1c2.8-1.3,5.7-2.1,8.9-3c2,2.5,4.5,4.3,5.8,7.3c1.5,3.5,3.3,6.8,5.5,9.8
		c2.2,3,3.1,6.5,4.2,10c0.4,1.1-0.6,2-0.2,3.4c2.6,0.6,5.6,0.6,8.1-0.2c7.5-2.5,15.4-3,23.1-5c8.6-2.2,17.4-2.7,26-4.6
		c6.3-1.3,12.6-2.5,19.1-3.1c14.6-1.2,28.8,0.2,42.7,5.1c7.7,2.7,15.6,4.1,23.9,3.2c3.9-0.4,7.7-1.3,11.5-1.4
		c8-0.3,15.3-3.2,22.9-5.1c3.6-0.9,7.3-1.7,11-2.3c11-1.6,21.6-4.4,32.3-7.1c3.9-1,7.2-3.3,10.6-5.4c3.4-2.1,6.9-4,10.4-5.8
		c4.6-2.4,8.8-5.3,13.5-7.6c10.1-5,20.5-5.4,31.3-3.2c3,0.6,5.8,1.7,8.6,3c8.6,4,16.5,9.4,25.3,13.3c5.9,2.6,11.8,3.8,18.1,3.2
		c5.6-0.5,11.3-0.2,16.8-1.4c9-1.9,18-3.3,27-5.4c8-1.9,16-4.4,23.3-8.1c13.7-7,28.2-10.7,43.3-13c2.1-0.3,4.2-0.5,6.3,0.1
		c0.3,0.1,0.7,0.1,1.1,0.1c8.4-0.2,16.6,1.1,24.9,2c0.3,0,0.7,0,1.1,0c2.7-1.6,4.2-4.3,6.2-6.3c0.4-1.4-0.5-2.2-0.9-3.2
		c-3.3-6.9-3.4-13.8,0-20.7c2.6-5.3,4.9-10.7,7.6-15.9c4.8-9.2,12.3-15.3,22.6-17.7c2.1-0.5,4.2-0.5,6.3-0.4
		c3.3,0.2,5.7,2.3,7.4,4.9c1.6,2.6,3.2,5.2,3.6,8.3c0.1,1.1,0.8,1.6,1.8,2.1c2.9-1.4,6-1.3,9.1-0.1c0.3,0.1,0.7,0.3,1,0.3
		c9.8,0.5,16.7,6.4,23.5,12.5c2.2,2,4.3,4,6.5,5.9c0.9,0.8,1.5,1.8,2,2.9c0.6,1.4,0.9,3,1.6,4.3c2.9,5.4,3.1,11.2,3.1,17.1
		c0,1.7-0.4,3.3-1.2,4.7c-2.1,4-4.5,7.9-6.6,11.9c-2.2,4.1-5.9,6.6-10.8,6.4c-0.1,1.1,1,1.5,1,2.5c-1.1,0.1-2-0.6-3.1-0.9
		c-2.6,3.4-4.4,7.1-4.4,11.4c-2.5,2.8-5.2,3.1-8.1,1.3c-2.1,1-2.6,3.3-4.3,4.4c-0.9,0.7-2-0.1-3.1,0.3c0.2,0.3,0.2,0.6,0.4,0.7
		c6.2,1.8,12.5,1.2,18.8,0.7c5.9-0.4,11.7,0.1,17.6,0.9c9.3,1.4,18.4,3.8,27.8,4.7c2.4,0.3,4.8,1.1,7.2,1.6c5.4,1,11,0,16.4,1.2
		c6.8,1.5,13.5,1.3,20.2-0.7c2.4-0.7,4.6-0.4,6.6,1.3c1.8,1.6,4.1,2.3,6.4,2.7c3.1,0.6,6.1,1.7,9.1,2.8c3.7,1.3,7.4,2.2,11.1,3.4
		c1.4,0.5,3,0.6,4.2,1.6c0.1,1.7,0.1,1.7-0.7,3.6c-5,0.9-10,0.2-15.3-1.1c-1.5,2.5-4.3,3.2-6.7,4.6c-0.8,0.5-1.8,0.6-2.7,0.3
		c-2.7-0.9-5.6-0.8-8.4-1.2c-2.8-0.4-5.6-0.2-8.4,0.2c-4.8,0.7-9.6,1-14.1-1.5c-2.6-1.5-5.5-1.9-8.5-1.9c-5.5,0-11,0.1-16.5,0.6
		c-5.3,0.6-10.4,1.7-15.5,2.9c-5.9,1.3-11.9,1.5-17.9,1.6c-5.9,0.1-11.7,0.4-17.8,0.6c7.7,5.1,16.3,6.8,25.2,8.1
		c5.8,0.8,11.5,0.2,17.2,0.4c6,0.3,12,0.6,17.7,2.8c7.2,2.7,14.8,3.7,22.3,5c12.4,2.1,24.8,4.1,37.3,5.3c9,0.9,17.9,2.4,27,2.4
		c2.6,0,5.1,0.2,7.5,1.7c1.3,0.8,3,0.4,4.5,0.3c1.8-0.1,3.5,0.1,5,1.3c1.9,1.6,4.2,2,6.6,2.3c9.7,1.1,18.7,4.5,27.7,7.8
		c0.4,0.2,0.9,0.4,0.9,1.4c-2.9,0.6-5.5-1.3-8.3-1.4c-3-0.1-6.1-0.7-9.1-1.2c-2.9-0.4-5.8-0.9-8.7-1.3c-2.8-0.4-5.7-0.4-8.1-2.6
		c6.1,0.8,12.1,1.6,18.2,2.4c-3.4-1.5-6.9-2.4-10.6-2.4c-4.3,0-8.1-1-10.8-4.3c-1-0.5-1.8-0.4-2.7-0.4c-2.5,0.1-4.9,0-7.3-0.8
		c-2-0.7-4.2-0.5-6.3-0.7c-3.6-0.2-7.4,0-10.9-0.7c-8.9-1.8-18-1.3-26.9-2.8c-8.9-1.5-17.9-2.7-26.7-4.6c-1.7-0.3-3.3,0-4.9-0.2
		c-3.9-0.5-7.7-1.1-11.3-2.5c-8.2-3.2-16.8-4.3-25.6-4.3c-1.4,0-2.8,0.4-4.2,0.4c-8.5-0.3-16.8-1.6-24.9-4.1
		c-0.8-0.2-1.6-0.5-2.3-0.9c-11.3-5.9-23.5-10.3-34.1-17.5c-1.4-0.9-2.9-1.5-4.3-2.3c-2.1-1.3-3.6-3.3-5.1-5.3
		c-5-6.9-11.3-12.4-19.6-14.7c-3.7-1.1-7.5-1.6-11.2-2.9c-1.2-0.4-2.5-0.6-3.2-2c1.5-0.5,2.7,1,4.4,0.4c-5.9-5.2-12-9.2-20-9.9
		c-4.5-0.4-8.9-0.4-13.4,0c-5,0.5-8.5,3-11.6,6.6c-0.3,0.4-0.6,0.7-0.8,1.1c-7.4,13.4-9.4,27.2-2.3,41.4c1.3,2.5,3.5,4.1,5.9,5.4
		c4.8,2.5,10,3.4,15.3,3.5c1.5,0,2.8-0.5,4.1-1c3.2-1.5,6-3.6,9-6.4c-3.6-0.6-6.7-1.2-9.9-1.7c1.9-1.3,4.3-1.7,8.2-1.2
		c2.9,0.4,5.8,0.7,8.7,1.1c13.4,9.4,28.4,15,43.6,20.4c4.4,1.6,8.9,3.1,13.3,4.8c6.5,2.4,13.4,3.6,20.2,5c7.6,1.6,15.1,3.4,22.5,6
		c1.1,0.4,2.3,0.7,3.3,1.3c3.9,2.2,8.2,2.7,12.6,2.7c6.7,0,13.4,0.1,20.1,0.1c5.9,0,11.7-0.7,17.6-1.2c8.9-0.7,17.8-1.4,26.8-1
		c7.4,0.3,14.8,0.5,22.2,0.8c1.7,0.1,3.3,0.4,4.7,1.3c5.1,3.4,10.8,4.1,16.6,3.4c11.9-1.5,23.7-1.2,35.5,0.5
		c1.9,0.3,1.9,0.2,4.1-0.9c-3.3-1.6-6.7-2.6-10.2-2.8c-3.4-0.2-6.8-0.6-10.1-1.6c-1.4-0.4-3-0.8-4-3c4.4,1.2,8.3,2.5,12.3,2.8
		c4.1,0.3,8.2,0.8,12,2.6c2.8-0.9,5.8-0.5,8.8-1c0.5-0.5,1-1.1,1.5-1.7c0.5,0,0.7,0.3,0.7,0.7c0,1-0.5,1.8-1.4,2.5
		c-1.9,0.6-4,0.2-6.1,0.5c0.2,0.5,0.3,0.9,0.6,1.5c-3.2,1.8-6.3,3.2-10.2,2.6c-5.3-0.8-10.7-1.2-16.1-1.5c-4.7-0.3-9.4,0.6-14.1,0.9
		c-3.3,0.2-6.5,0.7-9.8,0.4c-2.9-0.3-5.7-0.8-8.1-2.3c-2.2-1.4-4.5-1.7-7-2c-8.5-0.9-17.1-0.6-25.7-1.3c-8.3-0.6-16.4,0.5-24.6,1.5
		c-8.2,1-16.4,1.3-24.6,1c-4.2-0.2-8.5-0.3-12.7-0.4c-3.5-0.1-6.6-1-9.9-2.2c-5.2-1.8-10.6-3.2-15.9-4.6c-9.2-2.4-18.5-4.4-27.7-6.8
		c-10.3-2.6-20.3-5.8-30.1-10c-6.9-2.9-13.5-6.5-20.2-9.9c-2.7-1.4-5.2-3.2-7.8-5.2c-2.3,2.6-4.5,5.1-5.9,8.2
		c-0.4,1-0.9,1.9-1.3,2.9c-4.6,9.5-12.4,14.2-22.8,14.4c-7.8,0.2-15.5-0.1-23.2-1.3c-2.8-0.4-5.5-1.4-8.1-2.3
		c-4.8-1.7-9.5-1.4-14.2-0.9c-10.5,1.2-21,2.3-31.6,2.9c-4.5,0.3-8.9,0-13.4-0.6c-3.5-0.5-7,0.4-10.5,0.5c-10.7,0.5-21.4,1.1-32,1.7
		c-1.7,0.1-3.2-0.6-4.8-0.8c-5.1-0.4-10.1,0.3-15.1,0.6c-11.8,0.9-23.5,3-35.4,4c-5.4,0.5-10.8,0.3-16.2,0.4
		c-13.3,0.2-26.6,0.6-39.9,0.6c-6.1,0-12.2-0.4-18.3-0.7c-12.8-0.6-25.6-0.5-38.4-0.7c-2,0-4-0.1-5.7-1.4c-0.7-0.5-1.6-0.5-2.4-0.6
		c-1.2-0.2-2.4-0.2-3.5-0.6c-4.5-1.7-9.2-1.6-13.9-1.7c-4.5,0-9-0.1-13.4-0.6c-4.8-0.6-9.5-1.8-13.8-3.8c-1.7-0.8-3.2-1.2-5-1.3
		c-4.9-0.1-9.9,0.5-14.8,0c-4.4-0.5-8.9-0.5-13.3-1.2c-2.3-0.4-4.7-0.2-7-0.4c-9.8-0.9-19.5-2.8-29.2-4.8
		c-11.9-2.5-23.8-3.3-35.7-1.9c-6.2,0.7-12.3,1.9-18.2,4c-1.9,0.7-3.8,1-6.1,0.3c2-1.8,3.8-3,6.1-3.7c5.4-1.5,11-2.4,16.5-3.5
		c4-0.8,8.1-0.7,12.2-1.2c5.6-0.7,11,0.6,16.5,1.5c10.5,1.6,20.8,4,31.1,6.2c5.3,1.1,10.6,1.7,16.1,1.9c10.6,0.4,21.1,1.2,31.7,1.1
		c0.8,0,1.7,0,2.3,0.7c-0.1,1.1-1.4,0.6-1.8,1.3c-0.1,0.2,0,0.4,0.3,0.5c7.9,2.3,16,2.4,24,2.9c5.1,0.3,10.2,0.4,15.3,1.9
		c4.8,1.4,10,1.1,15.1,1.2c13.2,0.3,26.3,0.6,39.5,1.7c2.7,0.2,5.4,0.3,8.1-0.2c1.5-0.3,3-0.3,4.6-0.3c9.5,0.1,19-0.1,28.6-0.5
		c0.6,0,1.1-0.1,1.8-0.1c0.3-10.4-0.2-20.7-2.1-30.9c-0.4-2.3-0.2-4.7-0.7-7c-1.8-8.3-5.2-16-8.1-24.3c-4.2,1.5-8.1,2.8-12.1,4.3
		c-10.6,4-21.5,6.6-32.7,8.5c-4.2,0.7-8.2,2.1-12.4,2.6c-13.1,1.5-25.8,4.9-39,6c-2.1,0.2-4.2,0.2-6.4-0.2c-2.9,2.3-6.3,1.4-9.6,1.7
		c1.3-1.7,3.4-0.6,5-1.4c-0.6-1-1.6-0.9-2.5-0.9c-1.7-0.1-3.3-0.3-4.9-0.8c-8.3-2.5-16.9-4.3-24.8-8c-2.4-1.1-5-1.9-7.8-2
		c-4.1-0.2-8.2-0.4-12.3-0.7c-6.7-0.5-13,1.3-19.5,2.4c-7.2,1.2-14.2,3-21.1,5.4c-7.4,2.5-15,3.7-22.8,4.3c-3.8,0.3-7.5,0.6-11.2,1
		c-2.8,0.3-5.6,0.6-8.4,0.3c-3.5,2.1-7.4,3.1-11.4,3.7c-4.3,0.7-7.4,2.9-9,6.9c-0.6,1.4-1.6,2.7-0.6,4.3c0.2,0.3,0,0.9-0.1,1.3
		c-0.6,3.2-0.3,6.3,0.4,9.4c0.9,1.3,2.1,2.3,3.3,3.2c0.7,0.5,1.6-0.4,2.3,0.2c-0.2,0.4-0.4,0.8-0.6,1.2c0.7,1.5,2.7,1.9,3.1,3.7
		c-0.3,1.4-1.3,1.5-2.4,1.1c-4.2-1.5-8.2-0.7-12.5-0.1c-7.5,1.2-15,2.8-22.7,0.9c-1.8-0.5-3.7-0.2-5.6,0c-2.9,0.3-5.8,1-8.7-0.2
		c-0.6-0.2-1.2,0-1.7,0.1c-3.6,1-7.3,1.6-10.9,2.9c-5,1.9-9.4,1-13-3.3c-0.8-1-1.8-1.9-2.5-2.7c-0.2-1.5,1.2-0.9,1.7-1.6
		c0.2-4.8,2.1-9,5.1-12.8c5.7-7.3,11.7-14.2,20.2-18.3c4.6-2.2,9-4.9,14.4-5.2c2.3-0.1,4.5-1.3,6.7-2c0.4-0.8,0.8-1.4,1-2
		c0.9-4.5,4-7.9,6.6-11.4c2-2.8,5-4.6,8.1-6.2c3.5-1.9,6.9-4,10.2-6.2c0.8-0.6-0.2-1.9,1.3-2.5C244.4,256.5,245.5,257.9,246.5,259.1
		c1.1,4.8,5,8,7.3,12.3c1.4,2.7,3.3,5.1,4.1,8.1c0.9,3.4,2.5,6.6,3.6,9.8c13,0.7,49.3-6.1,53.6-10.2c-1.6,0.3-2.9,0.3-4.1,0.7
		c-9.6,2.7-19.5,4-29.4,5.8c-3.1,0.6-6.3,1-9.5,0.8c-1.5-0.1-2.7,0.1-4.1,0.6c-1.8,0.7-3.6,1.6-6,0.7c3-2.6,7.1-3.4,8.9-6.9
		c-0.4-1.5-0.8-2.8-1.3-4.1c-0.5-1.2-0.6-2.5-1.6-3.5c-3.5-3.8-6-8.3-8.1-13.1c-0.8-1.9-1.9-3.5-3.6-5
		C253.2,256.4,249.8,257.5,246.5,259.1z M804.1,182.8c0.1-1.1-0.5-1.8-1.3-2.4c-1.5-4.2-5.6-5.2-8.7-7.4c-2.5,0.4-4.8,1.1-6.9,2.1
		c-1.8,0.9-3.9,1.4-5,3.5l0.1-0.1c-0.7-0.1-1.1,0.2-1.6,0.6c-6.1,5.7-12.1,11.4-15,19.7c-0.6,1.8-1.5,3.4-2.3,5.1
		c-1.4,3.1-2.6,6.3-2.8,9.8c-0.2,3.9,0.2,7.8,2.1,12c1.6-3,2.5-5.4,0.9-8.1c0.9-0.4,1.3,0,1.9,0.2c1.5-2.3,1.2-4.9,1.4-7.4
		c0.6,5.8,0.2,11.5-2.5,16.8c-0.7,1.4-0.7,2.8-0.1,4.6c1.4-1.2,2.2-2.5,2.7-3.9c0.9-2.5,1.9-5,2.4-7.6c0.8-5.1,0.1-10.2-2.1-15.8
		c1.9,1.7,2.2,3.3,2.7,4.8c0.5,1.4,0.8,3,1,4.5c0.2,1.6,0.1,3.3,0.1,4.9c0,1.5-0.4,3-0.7,4.5c-0.4,1.6-0.7,3.2-1.1,4.8
		c-0.4,1.6-1.1,3.1-2,4.5c-0.9,1.2-1.9,2.4-3,3.5c-1.1,1-2.3,1.9-3.4,2.8c3.6-1.3,6.6-3.3,9.2-5.9c1-1,2-2,2.4-3.4
		c1.6-5.3,4.3-10.6,0.6-16.1c-0.1-0.2-0.1-0.5-0.2-0.7c-3-11.3,3.4-23.4,14.4-27.2c2.3-0.8,4.7-1.3,6.9-0.3c1.8,0.8,3.5,1.5,5.4,1.7
		c0.1,0,0.1,0.4,0.2,0.6c-0.3,0.4-0.8,0.4-1.3,0.4c-3.8,0-7.4,1.1-10.7,2.9c-4.1,2.3-7.2,5.7-9.7,9.6c-1.5,2.4-2.9,4.8-2.3,7.8
		c-1.1-0.9-1-2.3-1.6-3.6c-1,2.9,0.3,5.2,0.8,7.7c0.9-0.2,0.7-1.2,1.6-1.1c-0.1,4,0.3,8,0.8,11.9c0.3,2,0.5,4.1-0.8,6
		c-0.7-0.5,0.1-1.6-0.9-1.7c-1.2,2-2.4,4.1-3.5,6.1c-1.1,2-2.4,3.7-4.9,4.2c-1.3,0.3-2.6,1.1-3.7,2.4c7.4,0.9,15.2-7.8,17-15
		c-1.8-0.7-2.1-2.4-2.2-3.9c-0.4-4.2-0.7-8.4-0.9-12.5c-0.1-2.3,0.7-4.4,1.8-6.3c1.6-2.7,3.7-4.8,6-6.8c0.9-0.8,2.2-1.3,1.9-2.7
		c3.4-1.2,6.6-1.7,9.5-1.1c1.7-0.5,2.7-1.9,4.9-1.4c0,6.8,1.1,13.6,1.9,20.5c-1.8-3.7-2.1-7.7-3-12.1c-0.9,2.8-0.9,5.1-0.6,7.5
		c0.3,2.4,0.6,4.9,1,7.3l0.1-0.1c-2.5-2-2.3-5.3-3.8-7.9c-0.5,3.9-0.8,7.8-0.2,11.7c-1.4-2.7-1.7-5.6-1.9-8.6c-0.2-3.1,0.3-6,1.4-9
		c1-2.8,3.8-4.6,4.6-8.2c-1,0.6-1.6,0.9-2.2,1.2c-2.8,1.3-3.8,4.3-6,6.2c-2.6,2.2-4.8,4.8-6.8,7.6c-1.9,1.6-2.8,4-4,6
		c-1.3,2.1-1.2,4.2,0.2,6.4c1.3-4.3,2.5-8.4,3.7-12.5c0.8,0.6,0.5,1.4,0.3,2.2c-0.8,2.7-1.4,5.4-2.1,8.2c-0.4,1.7-0.7,3.5,1,4.7
		c-0.9,2.6-1.2,5.1-1.4,7.7c-0.4,4.8-1.5,9.3-5.8,12.1c-5,1.6-9.8,2.8-15,2.7c-4.9,0-9.9,0-14.8-2c3.3-0.9,6.5-1.7,9.6-3.5
		c-1.1-0.4-1.9-0.9-2.7-0.6c-1.9,0.7-3.3,2.3-5.6,2.4c0.7-1.3,2.1-1.4,2.6-3c-3.6,0.4-7.3-2.1-10.5,1.2c0.5,1.6,1.6,2.5,2.7,3
		c2.6,1.2,4,3.9,6.7,4.9c9,3.4,16.2,8.8,20.2,17.6c6.1,2.3,11.9,5,18.4,2.5c0.4-2.1-1.9-3.6-1.5-6.2c2.3,3.5,5.3,6.2,7.1,9.5
		c1.6,2.9,3.8,5,6.3,6.9c2.6,2,5.1,1.4,6.6-1.5c0.4-0.8,0.5-1.9,1.8-2.4c0.9-0.6,2.3,0.6,3.5-0.3c0.4-1,0.7-1.9,0.3-2.9
		c-1.4-1.8-4-2.9-3.4-6.2c3.1,1.6,3.6,6.8,8.1,5.7c0.9-2.5,0.9-2.5,3.1-4.7c-0.1-1-1.7-0.9-1.6-2.1c3-0.7,3.5-0.4,4.3,2.7
		c0.9,0.4,1.6,1.2,2.8,1.2c1-0.6,1.4-1.5,1.6-2.6c0.8-3.7,2.4-7.1,4.5-10.2c1.2-1.8,2.7-3.2,5-3.8c1.3,0.3,2.7,1.3,4.6,0.2
		c2.2-4.8,5.8-9.2,8.5-14c-1.2-1.3,0.1-3.5-2.3-4c1.2-2.1,1.1-4.1,1-6.1c-0.4-5.5-1.9-10.6-4.6-15.4c-0.4-0.6-1.2-1.1-0.6-2.2
		c4.1,3.5,5.1,8.6,7,13.7c0.7-2.3-0.2-4.2-0.1-6.3c0.7,0.4,1,0.6,1.3,0.8c0,3.4,0.9,6.6,0.9,10c0.7-3.4,1.2-6.8-0.9-9.9
		c0-1.1-0.4-2.1-1-3c-2.7-4.8-6.2-8.8-10.7-11.9c-3.4-2.3-6.5-5-9.8-7.4c-5-3.5-10.6-5.2-16.6-5.8c5,2.3,9.7,5.1,14.3,8
		c1.4,0.9,3.2,1.5,4.1,3.1l-0.1,0.1c-1.3,0.1-2.1-0.9-3.1-1.4c-4.5-2.5-8.9-5.2-13.6-7.4c-4.2-1.9-8.5-3.3-13.4-1.6
		c-1.5-2.6-2.5-5.4-5.1-7.1c2.1,0,3.2,1.3,4.8,2.5c0.1-0.8,0.1-1.4,0.2-2C803.2,182.3,803.7,182.5,804.1,182.8
		c0,0.9,0.1,1.9,1.4,2.6C805.6,184,804.9,183.4,804.1,182.8z M583.1,255.8c-4.1-1.9-8.3-4.6-12.8-7c-3.5-1.9-7.2-3.4-11.2-4.1
		c-2.2-0.4-4.5-0.6-6.6-1.3c-3-1-6-1-9-0.5c-2.7,0.4-5.3,1-7.9,1.6c-1.1,0.3-2.2,0.8-3.2,1.4c-4.8,3.2-9.9,5.9-15.2,8.1
		c-5.6,2.3-10.6,5.4-15.7,8.3c-0.3,0.8,0.2,1.3,0.4,1.8c0.2,0.5,0.2,1.2,1.2,1.4c8.1-3.6,16.6-6.5,24.5-10.9
		c9.1-5.1,19-8.1,29.7-6.7c3.1,0.4,6.3,0.1,9.1,1.8c-1.5,0.1-3-0.1-4.5-0.2c-4.1-0.3-8.2-0.6-12.3,0.1c-8.2,1.4-15.8,4.4-23,8.6
		c-4.3,2.5-8.7,4.7-13.2,6.7c-3.1,1.4-6.2,2.8-9.1,4.2c-0.1,0.9,0.4,1.5,0.7,2.1c2.6,5.4,4.7,11,6.7,16.7c1.4,3.9,1.3,8.1,2,12.1
		c1.5,9.2,2.8,18.3,2.3,27.7c-0.1,1.4-0.2,2.8,0.5,4.3c3.8,0,7.5,0.1,11.2,0c6.6-0.2,13.1,0.3,19.7-0.7c10.9-1.6,21.9-2.7,33-3.2
		c2.3-0.1,4.6-0.4,6.9-0.6c8.3-21.6,10.9-43.3,3.6-65.3c-2.6-1.6-5-3.1-7.2-4.5C583.5,257,584.1,256.5,583.1,255.8z M682.5,324.4
		c0.3-0.8,0.5-1.3,0.6-1.7c0.1-0.6,0.2-1.2,0.3-1.7c1.3-8.6,1.1-17.2-0.1-25.7c-1.9-12.7-5-25.1-8.4-37.4c-0.6-2.3-1.6-4.6-3.3-6.7
		c-1.2,0.5-2.5,0.9-3.6,1.4c-6.7,3-13.7,4.8-20.9,6.3c-5.6,1.2-11.3,2.4-16.9,3.5c-3.5,0.7-7,1.4-10.5,1.2
		c-3.8-0.2-7.5-0.1-11.2,0.6c-3.9,0.7-7.7,0.3-11.5-0.4c-0.9-0.2-1.8-0.7-2.7,0c5.4,21.6,4.6,42.8-4.1,63.7c4.9,0.8,7.7-3.3,11.8-4
		c-0.8,2.1-2.9,2.7-3.9,4.5c7.6-0.3,14.8-0.7,22.1-0.9c10.1-0.2,20.2-0.6,30.3-0.5c7.6,0,15.2-0.9,22.8-1.4
		C676.3,324.8,679.3,324.6,682.5,324.4z M752,303.6c-0.7,1.7-1.6,3.3-3.3,4.3c-2.1,1.3-4.2,2.6-6.4,3.7c-2.5,1.3-5.3,2.4-8.1,1.7
		c-2-0.5-3.9-0.4-5.9-0.7c-6.5-0.8-12-3.4-15.5-9.2c-2.7-4.3-4.4-9.1-5.4-14c-2.2-11,0.5-21.2,6.9-30.4c0.7-1.1,1.7-1.9,1.7-3.1
		c14.3-12,40-7.7,49.2,7.6c1.1-0.1,2.3-0.2,3.5-0.3c-3.1-5.6-7.6-9.2-12.9-11.9c-2.4-1.2-4.8-2.5-6.9-4.2c-2.1-1.7-4.3-3.2-6.9-4.2
		c-2.4-1-3.3-3-2.6-5.4c0.1-0.5,0.7-1,0-1.7c-4.2-0.1-8.6,0.1-12.8-0.5c-4.1-0.6-7.9-0.2-11.8,0.9c-9.7,2.5-19.1,5.6-28.5,9
		c-4.1,1.5-8.3,2.9-12.1,5c6.2,11.3,8,23.7,10,35.9c2,12.3,3.4,24.6,1.1,37.5c2.8-0.7,5.3-0.7,7.7-0.2c4.1,0.8,8.1,2,12.3,2.6
		c8.4,1.1,16.8,1.9,25.2,2.1c6.7,0.2,11.6-3.3,15.8-7.9c1.2-1.3,2.4-2.7,2.8-4.4c1-3.6,3.1-6.5,5.6-9.3c0.6-0.7,1.5-1.2,1.4-2.3
		C754.8,303.7,753.6,303.5,752,303.6z M244.2,260.5c-2.4,1.7-4.4,3.4-6.7,4.6c-5.5,3.2-10.6,6.9-15.1,11.5c-1.6,1.7-3.1,3.4-3.1,5.7
		c-0.1,3.9-2.2,5.5-5.8,6.4c-3,0.7-6.1,0.7-8.9,1.9c-6.9,3.1-13.5,6.6-18.4,12.6c-1.7,2.1-3.4,4.2-5.3,6.2c-4.6,4.9-7.8,10.5-9,17.3
		c2.7,2.8,6.2,3.1,9.6,2c5-1.7,10.3-2.2,15.4-3.5c1.4-0.4,2.8-0.6,4.1,0.2c0.7,0.4,1.4,0.2,2.1,0.1c2.3-0.5,4.6-0.4,6.8-0.1
		c0.8-0.8,0.8-2.2,2.2-2.1c1.5,0.3,1.1,2,2.2,2.8c1.8,0.4,3.7,1,5.6-0.1c-1.4-3.5-1.4-3.6,0.8-5.3c2.7,0.7,1.6,3.3,2.4,4.9
		c1,0.1,1.8,0.1,2.3-0.7c0.5-1.7-1.5-4.1,1.3-5c2.4,0.8,1.5,3.4,3,4.8c2.7-0.3,5.4-0.6,8.6-1c-2.4-2.7-2.1-5.8-2.2-8.6
		c-0.1-4.2,1-8.3,1.6-12.5c0.6-5.1,3.5-8,8.5-8.9c3-0.6,6-1.3,8.9-2.1c1.5-0.4,3.1-0.9,4.3-2.3c-2.4-3.2-3.6-6.7-5-10.2
		c-1.6-3.9-3.5-7.6-5.7-11.1C247.4,265.5,245.4,263.5,244.2,260.5z M922.9,288.9c2.9,0.4,6.1-2.1,8.9,0.6c0.3,0.2,0.9,0.1,1.4,0.1
		c1.8,0,3.5,0.5,5.1,1.2c5,2.2,10.4,2.6,15.8,3.3c0.7,0.1,1.7,0.3,2.1-1.1c-0.2-0.2-0.5-0.5-0.8-0.6c-5.9-2-11.5-4.8-17.6-6.3
		c-2.1-0.5-4-1.1-6-2.1c-3.2-1.7-6.4-2.4-10.1-1.2c-4.4,1.4-9,1.7-13.6,0.9c-4.3-0.8-8.5-1.5-12.9-0.8c-1.1,0.2-2.3-0.2-3.5-0.3
		c-7.5-0.8-14.7-3.1-22.2-3.6c-3.5-0.3-7-0.6-10.4-1.7c-7.6-2.4-15.4-3-23.3-2.8c-5.7,0.2-11.5,1.1-17.2-0.1
		c-1.3-0.3-2.8-0.3-3.6-1.7c-1.3,1.8-2.8,3.2-5,3.3c-3.7,4.6-6.1,4.9-10.8,1.6c-3.6-2.5-6.4-5.7-8.9-9.4c-2.1,0.3-4.2,0.5-6.6,0.9
		c3.3,3.1,6.2,6.2,8.9,9.4c3.3,4,6,8.8,11.8,9.7c0.1,0,0.2,0.1,0.3,0.2c5.2,3.7,11.1,6.1,16.7,9c1.3,0.7,2.6,0.9,4,1
		c5.4,0.3,10.8-0.5,16.2-0.8c6.2-0.3,12.5-0.2,18.7-1c5.9-0.8,11.5-2.7,17.6-3c6-0.4,12.2-1,18.2-1.9c2.7-0.4,5.7-0.3,7.8,1.4
		c4.4,3.5,9.3,3.9,14.3,3c5.5-1,10.8-0.3,16.1,0.6c3.2,0.5,5.6-0.5,8.6-1.8c-4.4-2.1-8.5-3.5-12.9-3.4
		C927.3,291.5,924.9,290.9,922.9,288.9z M329.8,276.4c2.7,0.6,5.1-0.5,7.7-0.5c5.2-0.1,10.3,0.4,15.5,0.7c5.7,0.4,11.2,1.4,16.4,3.8
		c6.8,3.1,13.9,5.1,21,7c4.1,1.1,8.3,1.6,12.6,1.4c9.2-0.4,18.3-1.6,27.2-3.4c8.1-1.6,16-3.8,24-5.5c4.8-1,9.7-1.6,14.6-2.6
		c9.5-1.8,18.6-4.9,27.8-7.9c0.3-0.1,0.6-0.3,1-0.5c0-0.4,0.1-0.9,0.1-1.3c0.8-0.6,2.2,0.1,2.9-1.2c-0.5-0.9-1-1.9-1.6-2.9
		c-0.5,0.1-0.8,0.1-1.1,0.3c-12.3,4.4-24.9,7.8-37.7,9.9c-3.1,0.5-6.2,1.3-9.2,2.2c-7.3,2.1-14.7,4.2-22,6.3c-2.4,0.7-4.8,1-7.3,1.1
		c-7.4,0.1-14.7-1-21.9-2.7c-5-1.2-10.1-2.2-14.9-4.3c-1-0.4-2-0.7-3-0.9c-6.7-1.2-13.5-1.8-20.3-2.1c-7.7-0.3-15.2,0.8-22.8,1.7
		C335.6,275.3,332.6,275,329.8,276.4z M774.9,203c4.1-8.3,10.1-14.3,19.5-16.3C785.8,185.7,776.7,193.3,774.9,203z M780.5,228.6
		c-2.3,4.7-5.1,8.4-9.6,11.2C778.9,238.7,781.2,235.9,780.5,228.6z M785.5,198.8c-4.1,4-5.6,6.5-5.5,9.1
		C781.2,204.5,784.6,202.4,785.5,198.8z M787.1,197.3c2.4-0.5,4.6-1.5,6.7-4C790.6,193.8,788.8,195.5,787.1,197.3z M761.3,232
		c-1.4,1.1-2.3,1.8-3,3C760.7,235.4,760.8,234,761.3,232z M959.7,292.3c-0.5,0.6-0.8,1.1-0.4,1.8c0.5,0.2,0.9,0.1,1.2-0.3
		C960.8,293.2,960.6,292.7,959.7,292.3z M782.7,220.6c-0.2,0.8-0.2,1.5,0.7,2.1C783.8,221.9,784.3,221.2,782.7,220.6z"/>
	<path d="M364.7,574c2.9-1.2,5.5-0.3,8.1,0.8C370.1,575,367.3,575.2,364.7,574z"/>
	<path d="M334.8,539.3c3.6,0.7,7.2,1.3,10.8,2c0,0.2-0.1,0.5-0.1,0.7C341.7,542,338.2,541.1,334.8,539.3z"/>
	<path d="M381.1,324.1c2.4-2.1,5.3-1.7,8.1-1.3C386.5,323.4,383.9,324.7,381.1,324.1z"/>
	<path d="M846,581.2c2.2-1.5,4.6-1.3,6.1-3.2C850.8,581.5,849.4,582.3,846,581.2z"/>
	<path d="M354.2,297.8c-3.6,1-7.2,1-10.9,0.2c3.7-0.3,7.3-0.6,11-0.9C354.3,297.3,354.2,297.5,354.2,297.8z"/>
	<path d="M859,321.9c2.6-1.3,5-0.8,6.8-2.3C863.9,322.8,863,323.1,859,321.9z"/>
	<path d="M864.7,338c-1.8-0.2-3.6,0.4-4.9-1.2C861.8,335.2,862.7,335.4,864.7,338z"/>
	<path d="M848.4,595.5c3-0.9,3-0.9,5.4,0.7C851.8,596.3,850.2,597.8,848.4,595.5z"/>
	<path d="M782.5,583.6c2.6-0.2,4.4-0.1,6.4,0.2C786.8,585.5,785.6,585.5,782.5,583.6z"/>
	<path d="M796.6,314.6c1.9-0.1,3.8,0.3,5.7,1C799.5,316.6,799.2,316.6,796.6,314.6z"/>
	<path d="M948.2,582.8c-2.4,0-4,0-5.7,0C944.9,581.4,945,581.4,948.2,582.8z"/>
	<path d="M959.7,338.6c-2.3,0.3-3.8-0.4-5.3-0.9C956.1,337.4,957.7,337.1,959.7,338.6z"/>
	<path d="M853.9,577.6c1.4-1.2,2.5-1.3,4.3-1.3C856.7,577.4,855.8,578.4,853.9,577.6z"/>
	<path d="M380.4,576.1c1.8-0.6,2.9,0.5,4.2,1.4C382.6,577.8,382.6,577.8,380.4,576.1z"/>
	<path d="M867.7,319.5c1.2-1.4,2.5-1.2,3.8-1.1C870.2,319.7,870.2,319.7,867.7,319.5z"/>
	<path d="M391.1,322.1c1.5-1.2,2.7-0.2,4.5,0C393.7,323.2,392.5,323,391.1,322.1z"/>
	<path d="M401.5,323c-1.8,0.4-3.1,0.1-4.7-0.9C398.8,321.5,400.2,321.6,401.5,323z"/>
	<path d="M808.8,315.1c-0.8,1.4-1.7,1.3-2.7,0.8C806.8,315,806.8,315,808.8,315.1z"/>
	<path d="M989.6,335.6c1.1,0.2,2.3,0.5,3.4,0.7c-1.4,1-2.4,0.1-3.6,0C989.5,336.1,989.6,335.8,989.6,335.6z"/>
	<path d="M375.1,574.7c1.5-0.9,2.2,0.5,4,0.8C376.6,575.9,376.6,575.9,375.1,574.7z"/>
	<path d="M326.2,536.9c-1.8-0.1-2.7-0.5-3.5-1.2C324.2,535.7,324.2,535.7,326.2,536.9z"/>
	<path d="M814.5,314.2c-1.1,0.9-1.9,1-2.8,0.8c-0.4-1,0.5-0.8,0.9-0.9C813.1,314,813.5,314.2,814.5,314.2z"/>
	<path d="M719.2,581.5c0.3-1.4,1-1.7,2.1-1.8C721.1,581.2,720.2,581,719.2,581.5z"/>
	<path d="M795.1,582.7c-0.9,1.1-1.7,1.2-2.6,0.8C792.1,582.7,792.6,582.5,795.1,582.7z"/>
	<path d="M800.2,581.2c-0.7,0.7-1.5,0.7-2.3,1c-0.3-1,0.3-1.1,0.9-1.2C799.2,580.8,799.7,580.6,800.2,581.2z"/>
	<path d="M374.8,544.3c0.9-0.5,1.6-0.4,2.4,0.4C376.2,545.2,375.6,544.9,374.8,544.3z"/>
	<path d="M386,292.5c-1,0.7-1.8,0.5-2.8,0.2C384.3,292,385.1,292.2,386,292.5z"/>
	<path d="M330.9,297.5c1.2-0.7,2.1-0.6,3.1-0.1C333,298.3,332.1,297.7,330.9,297.5z"/>
	<path d="M977.4,575.4c1-0.6,2-0.5,3,0.1C979.4,576.1,978.4,576,977.4,575.4z"/>
	<path d="M736.3,301.1c-0.3,1.1-0.9,1.1-1.8,0.8C735,301.2,735.5,300.9,736.3,301.1z"/>
	<path fill="none" d="M502.1,558.9c-1.4-3.4-2.7-6.7-4.2-10.2c4.3-5.9,10.6-8.8,17.1-11.5c8.9-3.7,17.9-3.5,27-1.1
		c6.2,1.7,12.4,3.6,18.4,6c0.8,0.3,1.6,0.5,2.4,0.7c0.7,1.3,1.8,2.2,3.2,2.7c-1-1-1.4-2.7-3.3-2.6c0.1-0.9-0.3-1.6-1-2.1
		c-0.8-0.5-1.6-1.1-2.4-1.4c-8.2-3.2-16.3-7.1-25.2-7.5c-14.4-0.7-27.5,2.8-37.5,14.3c-0.6,0.7-1,1.8-2.5,1.3
		c-0.6-0.2-0.1,1.7-1.5,1.6c-0.5-1.9-1.3-3.8-2.4-5.6l-0.1,0.1c2.6-0.8,4.7-2.5,6.9-4.2c1.5-1.2,3.1-2,5-2.4
		c2.9-0.6,5.7-1.5,8.2-3.1c4.2-2.8,9-4.3,13.9-4.8c7.3-0.8,14.7-1.3,21.8,2c3.6,1.7,7.6,2.5,11,4.6c1.7,1,3.4,2.1,4.8,3.6
		c2.1,2.2,4.3,4.4,6.4,6.6c2.2,2.3,4.7,4.3,7.8,5.7c7.3,22.2,4.7,43.9-3.4,65.2c-9.9,2-19.8,2.6-29.8,2.6c-10,0.1-20-0.6-29.9,1
		c-0.6,0.1-1.2,0.1-1.7,0c-5.3-1.7-10.8-2.3-16-4.2c-0.4-0.2-0.8-0.4-1.2-0.6c-0.2-1.6,0.4-2.9,0.8-4.2c2.9-8.9,3.5-18.2,4.8-27.4
		c0.8-5.8,1.2-11.4,0.6-17.2c-0.5-4.5-0.9-9.1-2.6-13.4c1.2,0.7,1.6,1.9,2.3,2.8C500.3,556.9,500.6,558.5,502.1,558.9
		c-0.1,0.9,0.1,1.7,1.2,2.5C503,560.3,502.7,559.5,502.1,558.9z"/>
	<path fill="none" d="M588.9,616.5c2.9-1.7,4.5-4.5,6.5-7.4c-1.6-0.1-2.1,0.9-2.7,1.7c-4.5,5.8-9.6,7.8-17.5,6
		c3.5-10.2,6.6-20.5,7.2-31.4c0.6-10.9-1.1-21.5-3.2-32.2c0.5-0.7,1.2-0.3,1.8-0.2c4.4,1,8.8,1.2,13.3,0.4c3.1-0.6,6.3-0.6,9.5-0.5
		c4.4,0.2,8.7-0.6,12.9-1.5c7.7-1.6,15.4-3.4,23.1-4.9c4-0.8,7.3-3,11-4.6c1.5-0.6,1.5-2.8,3.7-3c2.3,3.1,4.7,6.5,5.7,10.4
		c3.3,12.4,6.6,24.8,8.2,37.5c1,8.2,1,16.4-0.3,24.6c-0.1,0.7-0.1,1.4-0.8,2.2c-3.3,0.9-7,0.5-10.6,1c-4,0.5-8,0.5-11.9,0.9
		c-8.6,1-17.1,0.1-25.7,0.5c-9.4,0.4-18.8,0.7-28.2,1C590.2,616.9,589.6,617.2,588.9,616.5z M631,552.3c-3.5-0.6-6.8,0.9-10.1,1.6
		c-3.4,0.7-6.8,1.4-10.2,2.2C617.9,556.7,624.5,554.5,631,552.3z M601.8,556.5c-0.4-1-1.1-1-2-0.7
		C600.4,556.2,600.7,556.8,601.8,556.5z"/>
	<path fill="none" d="M804.1,448.6c-0.4,1.5,1.3,2.1,1.3,4c-2.4-2.2-4.4-4.4-6.8-6c-2.5-1.6-5.1-2.7-8.7-3.3
		c9,4.4,15.5,10.2,18.6,19.8c0.2,0.2,0.8-0.3,1.4-0.2c0.7,0.3,0.4,1.2,0.7,1.5c2.8,2.2,2.4,5.1,2,8c-0.7,4-1,8.1-0.9,11.9
		c-0.7,1.1-1.5,1.8-2.4,1.8c-3.3,0.1-3.9,2.6-4.4,5c-0.8,4-0.6,8,0.4,11.9c0.3,1.1,0.6,2-0.3,3.1c-1.1,0.3-2.4,0.8-3.4-0.4
		c-1.6-1.7-3-1.2-4.6-0.1c0.2,1.5,1.9,0.8,2.4,1.9c-1,1.5-1.1,3.4-0.7,5.2c-3.7,3.2-6.4-1.5-10-1.3c1,3.1,3.5,3.3,5.5,3.7
		c1.1,1,1.5,2,1.6,3.1c-0.8,1.3-2.6,0.9-3.3,2.1c-0.6,1-0.1,2-0.2,3.1c-0.2,2.8-2.2,4.3-5,4c-4.3-0.5-8.2-2-11.2-5.3
		c-2.9,0.4-5-1.6-7.9-2.7c0.2,1.5,1.3,1.9,1.9,2.5c0.8,0.7,1.6,1.4,2.3,2.1c-4.5,5.8-10,10.1-15.7,14.9c-1.9-0.3-4.3-0.7-6.9-1.1
		c-5.2-8.2-13.3-12.4-22.6-14.5c-1-0.2-2-0.4-2.8-1.3c-1.1-1.2-2.8-1.6-4.3-2.3c-1.3-0.6-2.5-1.3-3.3-2.4c0.1-1.2,0.9-1.7,1.6-2.3
		c0.9-0.3,1.1,0.8,2,0.9c1.4-0.6,3-1.3,4.9-2.1c0.1,1.6-1.3,2.5-1.4,4.2c1.7-0.9,2.3-2.4,3.1-3.7c0.7-1.2,1.5-2.1,3.5-1.7
		c-2,2.8-4.2,4.9-7,7.4c2.3-0.1,3.8-2.2,5.5-0.9c2.7-1.3,5.1-2.6,7.5-3.8c4.8-2.4,9-5.6,12.6-9.5c1.6-1.8,2.3-4.2,2.1-6.5
		c-0.3-2.5-0.7-5.1-1.9-7.5c-1.2-2.2-1.9-4.5-2.3-7.2c-2.4-1-3-3.2-3.6-5.5c-0.7-2.6-1.4-5.2-2.2-7.8c-0.4,4,1.4,7.7,1.7,11.7
		c-2.5-1.1-3.1-3.2-3-5.6c0-5.5,1.1-10.7,2.7-15.9c0.5-1.5,1-3,1-4.7c0.1-2.2,1.4-4.1,2.7-5.9c1.1,0.6,1,1.4,0.8,2.2
		c-1.9,7.3,0.5,13.4,5.1,18.9c0.8,1,1.2,2.3,3,3c-1.9-3.7-4.5-6.6-5.2-10.8c2.4,1.8,3.6,4.4,6.4,5c0.2,1,1,1.3,2.3,2.2
		c-0.7-1.5-1.4-2-2.3-2.1c-0.1-1.4-1.4-2.1-2.1-3.1c-2-2.8-3.7-5.6-4.6-9.1c2.6,2.9,4.7,6.1,7.6,8.7c0.9-0.9-0.1-1.3-0.4-1.8
		c-3.2-4.2-6.5-8.3-8.9-13.1c-0.4-0.9-1.2-1.4-2-1.9c-1.5,0.7-1.8,2.4-2.9,3.6c-3.1,0.7-5.5,2.8-8,5.5c-0.3,0.5,0.7,1.4,0.1,2.5
		c-1,1.7-1.5,3.7-1.9,5.6c-1.1,4.9-0.7,9.6,2.9,13.6c0.8,0.9,1.4,1.9,1.8,3c1,2.5,2.7,4.6,5.3,6.8c0.3-0.2,0.5-0.4,1-0.7
		c1.4,2.7,1,5.6,0.7,8.3c-0.6,5.6-2.5,10.7-8.3,13.9c0.5-1.8,1.2-3.2,2.2-4.1c1.9-1.6,2.3-3.7,2.4-6c0.1-2.4,0-4.9,0-8
		c1,1.2,1.5,1.8,2.5,3c-1.8-6.8-6.2-11.2-9.3-16.3l0.1,0.1c0-1.1-0.7-1.7-1.5-2.2l0.1,0.1c-4.4-7.2-1.7-14,1.3-20.7
		c1.8-3.9,5-6.7,8.7-8.9c0.4-0.2,0.8-0.4,0.9-1c-0.1-0.2-0.4-0.5-0.4-0.5c-1.8,0.9-3.6,1.2-5.6,1.1c-1.8-0.1-3.3,1.1-4.7,2.2
		c-9.2,7.9-9.6,24.3-0.8,32.6c0.4,0.4,1,0.6,1.4,1c1.8,1.3,3.1,2.9,3.7,5c0.4,1.2,0.6,2.5,1,3.7c2.7,6.8-0.7,13.9-4.7,18.9
		c-0.6-0.9,0.3-1.6,0.6-2.2c2.1-4.3,2.5-8.7,1-13.3c-1.2-3.7-2-7.5-4.2-10.8c-1.8-2.6-3.8-4.9-6.7-6.5c1.7,2.4,4,4.3,5.4,7
		c1.4,2.7,2.8,5.2,3.2,8.4c0.4,3,1.1,5.8,0.5,9.1c-1.9-1.1-2.2-2.6-2.3-4.4c-0.3-4.8-1.6-9.2-4.3-13.2c-0.1-0.7-0.2-1.5-1.2-1.6
		c0.3,0.6,0.4,1.3,1.3,1.5c-0.1,1.6,0.8,2.9,0.9,4.5c-0.3,0.8-1.4,0-1.7,1.1c2.2,1.7,3.1,4.1,2.6,7.5c-4.9-4.4-8-9.2-9-15.4
		c-0.7-4.6-1.3-9.4-1.3-13.9c0.1-7.6,1.6-15.1,5.3-21.9c0.1-0.2,0.3-0.3,0.5-0.5c-0.1,0.9-0.2,1.8-0.3,2.6c-3.1,5.3-3,11-2.4,16.9
		c0.3-3.5,0.2-7.1,1-10.6c0.5-2,1.4-3.9,1.5-6.1c0.8-0.5,1-1.5,1.4-2.3c1.3-2.3,2.8-4.4,5.7-5.2c-2.5-0.9-3.5,1.3-5.2,1.8
		c1-2.9,3.5-4.5,5.2-6.1c6.5-1.1,11.5,1,16.3,4.8c-2,0.7-2.5-1.8-4.1-1.3c0.2,0.5,0.5,1,0.8,1.6c-1.7,0.1-3.4-1.2-5.5,0.3
		c3.3,0.3,5.5,2.2,7.9,3.8c3.4-3.6,7.7-4.4,12.2-4.9c5.8-0.6,11.5,0,17.3,0.1c1.6,0,3.3,0,4.9-0.1c-4-1.2-8.1-1.1-12.2-1.4
		c-4-0.3-8-0.3-12.4,0.3c1.4-1.6,3-1.6,4.4-2c5.5-1.4,11.1-2,16.7-0.6c3.9,0.9,7.9,1.2,11.8,2c5.4,1,10.2,3.2,14.3,7
		C804.1,447.8,804.1,448.2,804.1,448.6z M772.4,462.9c-0.4-1-1.2-1.4-2.4-1.9c0.6,1.1,1.3,1.8,2.3,2c1.5,1.8,1.5,1.8,3.4,1.8
		C774.5,464.2,773.8,463,772.4,462.9z M785,464.7c0.7,0.4,1.5,0.5,2.4,0c-1-0.5-1.7-0.1-2.4,0.1c-0.1-0.4-0.2-0.9-0.4-1.4
		c-1.2,0.2-2.3,0.8-3.4,0.7c-3-0.8-4.9-3.3-7.9-3.9c2.1,1.8,4.3,3.6,6.4,5.4c-0.7,0.9-2,0.5-2.8,1.7c2.7,0.1,5.1-0.4,7.5-0.9
		C784.6,465.7,784.8,465.2,785,464.7z M761.7,475c0.2-0.5,0.6-0.6,1.2-0.6c1.7,2.5,2.5,5.8,5.6,7.5c0.5-0.7,1.9-0.4,2-2.1
		c-4.9,0.2-4.7-5.1-7.4-7.3c-3.3,1.2-6.3,2.5-8.7,4.8c-0.7,0.9,0.1,2.2-1,3.1c-1.5-1.8-0.8-4.3-2.1-6.2c-0.8,3.5,1.5,6.8-0.1,10.2
		c1.7-0.1,1.1-2.3,2.5-2.2c3,3.3,0.6,7.3,1.4,10.7c3.5,0.5,4.6-0.2,4.8-3.1c-1.4-0.6-1.9,1.6-3.6,1.2c1.5-2.9,1.1-5.6,0.1-8.3
		c-0.3-0.9-0.4-1.8-0.4-2.8c0-1.5,0.6-2.7,2.3-3c-1.6,2.4-2.4,4.8-0.3,7.4c0.6,0.7,0.7,1.9,1.1,3.1c0.9-1,2.3-0.4,3.2-1.7
		c0.9-0.6-0.8-1.5,0-2.4c1.2-0.1,1.9-0.9,2.6-1.9C764.1,479.3,764.3,476.5,761.7,475z M757.1,458.9c0.5,1.6,1.6,2.6,2.6,3.5
		c3,2.7,6.6,4.5,9.8,6.9c3.1,2.4,6.4,1.7,9.7,1.6c1,0,2-0.4,2.7-1.3c-1.1-0.7-2,0.7-3,0.2c-0.5-0.4,0.1-1.2-0.6-1.4
		c-2.1,0.7-3.9,2.7-6.7,0.6c1.6-0.3,3,0.6,4.2-1C768.1,467.9,762.5,463.7,757.1,458.9z M793.7,489.8c0.8,0.8,1.6,1.8,3.3,2
		c-0.3-3.1,2.3-3.8,4.5-5c-3.7-3-7.3-1.3-11-0.9c0.5,2.2,2.4,1.5,3.4,2.2C794.3,488.6,793.4,489,793.7,489.8z M790.1,479.7
		c2.6,1.4,5.1,0.1,7.2,1.2c5.9,5,5.9,5,7.2,4.6C801.7,479.5,796.4,477.2,790.1,479.7z M761.9,496.3c-4.4,6.1-0.6,15.5,7.1,17.7
		c-2.1-3-5.2-4.6-6.6-7.8C761.1,503,760.8,499.7,761.9,496.3z M749.9,487.7c-1.1-8.3-4.4-15.2-6.9-22.6
		C742.5,468,747.1,483.3,749.9,487.7z M801.7,458.8c2.6,3.4,2.6,3.4,5.2,3c-0.5-1.9-1.9-2.9-3.4-3.8c-1.5-0.9-2.7-2.7-5.1-2
		c1.1,1.8,1.4,3.8,2.8,5.4C802.1,460.5,800.9,459.7,801.7,458.8z M759.1,444.6c5.7-0.5,11.3,0.9,17.4,1.3
		C771.7,443.5,763.4,442.8,759.1,444.6z M795.3,461.8c-0.6-2.9-8.5-10-12.2-11.1C787.2,454.4,791.2,458,795.3,461.8z M788.1,459
		c-2.6-1.4-4.2-3.4-6.1-5c-0.7,0.7,0.4,1.1,0,1.7c-0.3,0.3-0.9,0-1.2,0.6c1.3,1.6,2.9,2.9,4.9,3.7C786.4,459.8,787,459.5,788.1,459z
		 M766.6,475.9c3,3.4,6.5,3.6,8.7,0.5C772.2,477.3,769.4,477,766.6,475.9z M767.2,473.6c3.9,1.8,7.2,1.3,8.7-1.5
		C773,472.9,770.2,473.7,767.2,473.6z M781.9,462c2.2,0.1,4,0.5,6-0.7C784.9,460.8,784.9,460.8,781.9,462z M759.6,448
		c-1.9-1.1-3.9-2.3-6.3-1.4C755.5,447,757.5,447.5,759.6,448z M798.3,460c-0.4-2.6-0.4-2.6-2.9-4C796.5,457.5,797.3,458.6,798.3,460
		z M760.8,513.8c0.5-1.9,0.5-3.2-0.3-4.6C759.9,510.6,760.1,512,760.8,513.8z M771.8,458.6c-0.3-0.6-0.4-1.1-1.1-0.7
		C771,458.1,771.3,458.3,771.8,458.6z"/>
	<path fill="none" d="M678.5,614c-2.4-2.5-5.4-1.3-8.4-1.2c0.2-1.9,0.3-3.5,0.5-5.1c1.5-12.2-0.6-24.1-2.4-36.1
		c-0.7-4.6-2-9.2-2.8-13.8c-1.2-6.9-4.2-13.1-7.8-19c-0.2-0.4-0.5-0.8-0.7-1.2c0.2-1,1.1-1.2,1.7-1.5c3.9-2.2,7.7-4.5,11.2-7.3
		c0.4-0.3,0.8-0.6,1.2-0.8c7.9-3.7,15.3-8.2,23.6-11c2.6-0.8,5.1-0.4,7.7-0.8c4-0.6,8.1-1,12.5-1.5c-0.1,1.4-1,2.6-0.4,3.8
		c0.5,1.1,1.4,1.8,2.5,2.8c2.3,0.1,4.6,1.1,6.7,2.3c3.2,1.8,6.6,3.1,10,4.3c5.4,1.8,10,4.7,13.6,9.4c-1.1,0.3-2.2,0.6-3.1,0.8
		c-7.2-7-15.5-10.7-25.6-10.3c-9.9,0.4-18.4,3.5-25.1,11c0.1,0.1,0.3,0.4,0.6,0.7c-5.4,9-6.4,18.7-4.7,28.8c0,0.2,0.1,0.5,0.1,0.7
		c1.7,6.1,4.9,11.4,8.6,16.4c4.1,5.4,10,7.1,16.6,6.9c2.1-0.1,4.2-0.3,6.3-0.2c2.9,0.1,5.4-1.3,7.7-3c1.9-1.4,3.7-2.9,5.5-4.4
		c1.5-1.3,2.3-3,2.7-4.9c1.4-0.4,2.7-0.4,4-0.1c0.2,1.1-0.5,1.7-0.9,2.4c-2.1,3.2-3.6,6.5-4.3,10.3c-0.5,3.3-2.6,6-4.9,8.4
		c-0.8,0.8-1.7,1.6-2.4,2.2c-0.9,1.1,0.3,2-0.6,3.5c-2,2.1-5,3.8-8.3,5.2c-1.5,0.7-3.1,1-4.6,1.8c-6.1,3.1-12.3,3.3-18.8,1.7
		c-4.8-1.2-9.7-1.7-14.5-2.6C680.5,612.4,679.2,612.5,678.5,614L678.5,614z M681.1,611.4c1.2-2,0.3-3-0.4-4.8
		C680.5,609,680.5,609,681.1,611.4z"/>
	<path fill="none" d="M248,478.4c0.4,3.3,2.3,6,3,8.8c0.9,4.1,2.5,8.1,2.6,12.3c0.1,3.6,0.7,7,2.1,10.4c-1.2,1.2-2.8,1.1-4.3,1.1
		c-3.4,0-6.8,0-10.2-0.2c-4.9-0.3-8,2-9.8,6.4c-1.6,3.8-3.5,7.5-4.5,11.4c-0.7,2.8-1.7,5.8-0.3,9c-3.1,0.1-5.9-0.6-8.5-1.1
		c-1-1.8,0.7-4.4-2.1-5.3c-2.4,0.8-1.4,3-2,4.5c-0.8,0.9-1.7,0.6-2.6,0.2c-0.1-1.8,1.5-4-1.1-5.3c-2.5,1.3-2.6,1.5-2,5.1
		c-2.1,0.1-3.9-0.5-5.5-1.4c-1-1.1,0-2.9-1.8-3.5c-1.1-0.2-1.4,0.9-2,1.5c-0.2,0-0.5,0.1-0.7,0c-1.7-0.7-3.4-1.3-5.4-1.4
		c-1,0-2.1,0.1-3-0.8c-1.1-1.1-2.6-1.1-4-1.1c-5.3-0.2-10.5-0.8-15.9-0.5c-3.7,0.2-6.9-1.1-8.8-4.4c1-1.6,2-3,2.9-4.5
		c1.2-2.2,2.8-4.1,4.8-5.6c6.1-4.7,12-9.6,19.1-12.6c6.4-2.7,13-4.7,20.2-3.6c1.9,0.3,4,0,6-0.2c2-0.2,3.2-1.6,3.8-3.3
		c1-3.2,3.2-4.8,6-6.5c4.9-2.9,10.1-4.9,15.5-6.5C242.3,480.6,244.9,479.5,248,478.4z M200,518.1c0.5,1.4,0.8,2.6,1.4,3.7
		c1,2,3.5,2.6,5.4,1.6c1.7-0.9,2.5-3.4,1.6-5.2c-0.9-2-3.2-2.7-5.3-1.8C202.1,516.9,201.4,517.9,200,518.1z M216.7,516.6
		c0.1-2.2-1.7-4.1-3.8-4.2c-2.1-0.1-4.1,1.7-4.2,3.9c-0.1,2.2,1.5,4,3.8,4.1C214.9,520.4,216.6,518.9,216.7,516.6z M219.8,517.4
		c1.5-0.1,3-0.9,4.5-2c-0.9-2.3-1.5-4.8-3.4-6.5c-1.3,1,0.5,2.2-0.9,3.1c-1.1,0.1-1.8-1.2-3-1.1c-0.3,0-0.6,0.2-1.1,0.4
		c0.7,0.6,1.4,1.1,2.1,1.7C217.5,514.7,217.2,516.4,219.8,517.4z"/>
	<path fill="none" d="M906.6,531.5c10.4,3.1,20.8,3.4,30.6,6.5c0,1.3-0.9,1.2-1.5,1.2c-5.4,0.4-10.8,0.5-16.1-0.6
		c-2.3-0.5-4.6-1.1-7.1,0c-3-3.2-5.7,0.8-8.7,0c-0.2,1.3,0.6,1.3,1.3,1.5c2.5,0.8,5.2,0.8,7.7,0.4c2.8-0.5,5.4-0.1,8,0.6
		c1,0.3,2,0.4,3.4,0.7c-2.4,2-4.7,3.2-7.5,3.2c-5.8,0-11.5,0.1-17,2.1c-2,0.7-4.1,0.8-6.2,1.2c-2.5,0.5-4.8-0.5-6.7-1.6
		c-3-1.6-6-1.5-8.9-0.7c-5.8,1.6-11.6,3.1-17.4,4.5c-5.3,1.3-10.2,3.3-15.3,5.1c-4.4,1.6-9.1,2.5-13.7,3.3
		c-5.2,0.9-10.3,2.1-15.5,3.3c-2.9,0.7-5.8,1.1-8.7,1.5c-0.6,0.1-1.4-0.2-2-0.4c-6.2-2-12.6-3.6-18.6-6.5c-0.1-0.1-0.2-0.1-0.3-0.1
		c-6.3-0.1-9.9-4.8-13.9-8.5c-3.1-2.9-6.8-5.1-10-7.8c-1-0.8-2.3-0.5-3.8-1.3c3-2.2,5.4-4.8,7.9-7.1c4.1,0.6,7.7,2.1,11.3,3.4
		c5.1,1.8,10.2,3.6,15.4,4.8c4.3,0.9,8.6,0.8,12.9,0.1c5.1-0.8,10.1-2.4,15.2-2.9c6-0.5,11.9-1,17.9,0.2c1.4,0.3,2.8,0.2,4.2,0.2
		c7.9-0.3,15.7-0.7,23.6-0.1c4.2,0.3,8.4,0.2,12.6-1.2c1.4-0.4,3-0.3,4.6-0.2c6.7,0.4,13.1-0.9,19.2-3.7
		C904.5,532.1,905.7,531.9,906.6,531.5z M791.6,547.1c1.7,1.3,3.8,1.5,5.8,1.8C795.7,547.4,794.3,545.3,791.6,547.1z M801.1,554.9
		c-0.9-1.8-1.3-2.9-3.3-2.2C798.7,553.8,799.6,554.2,801.1,554.9z M883.6,544.5c-0.3-0.9-0.9-1.1-1.7-0.7
		C882.3,544.7,882.8,544.9,883.6,544.5z"/>
	<path fill="none" d="M325.5,514.8c3.7-0.2,6.9,0.6,10.1,1.1c4.4,0.6,8.8,1.3,13.2,2c9.8,1.6,19.1,5,28.1,9c1.1,0.5,2.1,1,3.1,1.7
		c3.5,2.7,7.3,4.8,11.1,6.8c7.3,3.8,14.7,7.3,22.7,9.2c3.9,1,7.7,0.8,11.6,0.7c7.4-0.1,14.8-0.4,22.2-0.6c4.3-0.1,8.4,0.8,12.7,0.8
		c7.5,0.1,15.1,0,22.6,0c1.4,0,2.8,0,4.3,0c1.5,1.1,2.6,2.6,3.6,4c-0.1,0.8-0.7,1-1.1,0.9c-5.4-0.5-10.8,0.4-16.1,0.4
		c-5.8,0.1-11.5,0.1-17.3-0.5c-8.1-0.8-16.2-1.2-24.3-1.1c-12.4,0-24.6-1.5-36.8-3.7c-5.8-1-11-3.5-15.9-6.5
		c-5.6-3.5-11.2-6.8-16.4-11c-5.3-4.4-11.8-6.2-18.1-8.4c-5.2-1.8-10.5-3.4-16.1-3.8C327.7,515.6,326.8,515.2,325.5,514.8z
		 M397.6,541.3c3.4,2.2,4.3,2.3,7.1,1.6C402,542.3,399.8,541.8,397.6,541.3z"/>
	<path fill="none" d="M729.1,472.5c-2.7-10.2,2.2-21.2,10.6-23.4C731.3,455,729.3,463.4,729.1,472.5z"/>
	<path fill="none" d="M746.3,493.1c4.4,6.2,3.2,9.2-3.2,14.5C745.7,503.2,746.6,498.3,746.3,493.1z"/>
	<path fill="none" d="M736.9,464c0.4,4-1.2,7.4-0.8,11C734.5,472.5,734.9,468,736.9,464z"/>
	<path d="M726.4,444c1.7-0.4,2.7-2.6,5.2-1.8c-3,0.8-4.4,2.9-5.7,5.2c-0.4,0.8-0.6,1.7-1.4,2.3l-0.2-0.1c0.1-0.9,0.2-1.8,0.3-2.6
		c0.1-0.1,0.3-0.3,0.4-0.4c0.7-0.7,1.6-1.4,1.5-2.6L726.4,444z"/>
	<path fill="none" d="M804.1,448.6c0-0.4,0-0.8,0.1-1.1c3,2,4.8,4.9,5.5,8.5C807.5,453.6,806.8,450.3,804.1,448.6z"/>
	<path fill="none" d="M737.4,462c0.6-2.3,1.4-4.5,3.8-6.5C740.7,458.6,739.4,460.5,737.4,462z"/>
	<path fill="none" d="M734.2,479.8c-0.1,0.4-0.1,0.9-0.2,1.4c-3.9-3.5-3.9-3.5-4.6-6.9c1.2,1.6,2.3,2.6,3.5,3.5l-0.1-0.1
		c0.2,0.9,0.4,1.9,1.5,2.2L734.2,479.8z"/>
	<path fill="none" d="M729.5,509.4c0.4-1.6,0.6-2.7,1.2-3.9C731.5,507.8,731.5,507.8,729.5,509.4z"/>
	<path fill="none" d="M744.6,484.9c1.3,0.3,1.3,0.3,1.5,1.6C745,486.5,744.8,485.8,744.6,484.9z"/>
	<path fill="none" d="M940.8,538.8c-0.7-0.6-0.6-1.3,0-2C942.1,537.5,942.1,538.1,940.8,538.8z"/>
	<path fill="none" d="M726.5,443.9c0.2,1.2-0.8,1.8-1.5,2.6C724.9,445.2,725.4,444.3,726.5,443.9z"/>
	<path fill="none" d="M583.1,255.8c1,0.7,0.4,1.2,0.6,1.8c2.2,1.4,4.6,2.9,7.2,4.5c7.3,22,4.7,43.7-3.6,65.3
		c-2.3,0.2-4.6,0.5-6.9,0.6c-11,0.5-22,1.5-33,3.2c-6.6,1-13.1,0.5-19.7,0.7c-3.7,0.1-7.5,0-11.2,0c-0.7-1.6-0.6-3-0.5-4.3
		c0.5-9.3-0.9-18.5-2.3-27.7c-0.6-4-0.6-8.2-2-12.1c-2-5.7-4.1-11.2-6.7-16.7c-0.3-0.6-0.9-1.1-0.7-2.1c3-1.4,6-2.9,9.1-4.2
		c4.5-2,8.9-4.2,13.2-6.7c7.2-4.2,14.8-7.2,23-8.6c4.1-0.7,8.2-0.3,12.3-0.1c1.5,0.1,3,0.2,4.5,0.2c-2.8-1.6-6.1-1.4-9.1-1.8
		c-10.7-1.4-20.6,1.6-29.7,6.7c-7.9,4.5-16.5,7.3-24.5,10.9c-1-0.2-1-0.9-1.2-1.4c-0.2-0.5-0.6-1-0.4-1.8c5-3,10.1-6.1,15.7-8.3
		c5.3-2.2,10.4-5,15.2-8.1c1-0.7,2-1.2,3.2-1.4c2.6-0.6,5.3-1.2,7.9-1.6c3-0.5,6-0.5,9,0.5c2.1,0.7,4.4,0.9,6.6,1.3
		c4,0.7,7.7,2.2,11.2,4.1C574.8,251.2,579.1,253.9,583.1,255.8z"/>
	<path fill="none" d="M682.5,324.4c-3.2,0.2-6.2,0.5-9.3,0.7c-7.6,0.5-15.2,1.5-22.8,1.4c-10.1,0-20.2,0.3-30.3,0.5
		c-7.3,0.2-14.6,0.6-22.1,0.9c1-1.8,3.1-2.5,3.9-4.5c-4.1,0.8-6.9,4.8-11.8,4c8.7-20.9,9.5-42.2,4.1-63.7c0.9-0.7,1.8-0.1,2.7,0
		c3.8,0.7,7.6,1.1,11.5,0.4c3.7-0.7,7.5-0.8,11.2-0.6c3.5,0.2,7-0.5,10.5-1.2c5.6-1.1,11.3-2.3,16.9-3.5c7.1-1.5,14.2-3.2,20.9-6.3
		c1.2-0.5,2.4-0.9,3.6-1.4c1.7,2,2.6,4.4,3.3,6.7c3.4,12.3,6.5,24.8,8.4,37.4c1.3,8.5,1.4,17.1,0.1,25.7c-0.1,0.6-0.2,1.2-0.3,1.7
		C682.9,323.1,682.8,323.5,682.5,324.4z M645.8,261.9c-4.8,2.1-10.2,1.7-15.1,3.2C636,265.1,641.2,265,645.8,261.9z M622.6,267.2
		c0-0.2,0-0.5,0-0.7c-2,0.2-4.1,0.3-6.1,0.5C618.5,267.7,620.6,267.9,622.6,267.2z M605.2,319.8c-0.9,0.8-1.4,1.4-1.3,2.6
		C605,321.9,605.3,321.1,605.2,319.8z"/>
	<path fill="none" d="M800.6,213.1c-0.3-2.4-0.7-4.9-1-7.3c-0.3-2.3-0.3-4.7,0.6-7.5c1,4.4,1.3,8.5,3,12.1
		c-0.7-6.9-1.8-13.7-1.9-20.5c-2.3-0.5-3.2,1-4.9,1.4c-2.9-0.6-6.1-0.1-9.5,1.1c0.3,1.4-0.9,2-1.9,2.7c-2.3,2-4.5,4.2-6,6.8
		c-1.1,2-2,4-1.8,6.3c0.3,4.2,0.5,8.4,0.9,12.5c0.2,1.6,0.5,3.2,2.2,3.9c-1.8,7.2-9.7,15.8-17,15c1.1-1.3,2.4-2.1,3.7-2.4
		c2.5-0.5,3.8-2.2,4.9-4.2c1.2-2,2.3-4.1,3.5-6.1c1,0.2,0.2,1.2,0.9,1.7c1.3-1.9,1.1-4,0.8-6c-0.5-4-0.9-7.9-0.8-11.9
		c-0.9,0-0.6,1-1.6,1.1c-0.4-2.5-1.8-4.8-0.8-7.7c0.6,1.3,0.5,2.7,1.6,3.6c-0.6-3,0.8-5.4,2.3-7.8c2.5-3.9,5.6-7.3,9.7-9.6
		c3.3-1.8,6.9-2.9,10.7-2.9c0.5,0,0.9,0,1.3-0.4c0-0.2-0.1-0.6-0.2-0.6c-1.9-0.2-3.6-0.9-5.4-1.7c-2.2-1-4.6-0.4-6.9,0.3
		c-11,3.8-17.4,16-14.4,27.2c0.1,0.2,0,0.5,0.2,0.7c3.7,5.5,0.9,10.8-0.6,16.1c-0.4,1.4-1.4,2.4-2.4,3.4c-2.6,2.6-5.6,4.6-9.2,5.9
		c1.1-0.9,2.4-1.8,3.4-2.8c1.1-1.1,2.1-2.2,3-3.5c1-1.3,1.6-2.9,2-4.5c0.4-1.6,0.7-3.2,1.1-4.8c0.4-1.5,0.7-3,0.7-4.5
		c0-1.6,0.1-3.3-0.1-4.9c-0.2-1.5-0.5-3-1-4.5c-0.5-1.5-0.8-3.1-2.7-4.8c2.2,5.5,2.9,10.6,2.1,15.8c-0.4,2.6-1.4,5.1-2.4,7.6
		c-0.5,1.4-1.3,2.7-2.7,3.9c-0.6-1.8-0.6-3.1,0.1-4.6c2.6-5.3,3.1-11,2.5-16.8c-0.2,2.5,0.2,5.1-1.4,7.4c-0.5-0.2-1-0.6-1.9-0.2
		c1.6,2.7,0.7,5.1-0.9,8.1c-1.9-4.1-2.3-8-2.1-12c0.2-3.5,1.4-6.6,2.8-9.8c0.7-1.7,1.7-3.4,2.3-5.1c2.8-8.2,8.8-14,15-19.7
		c0.4-0.4,0.9-0.7,1.6-0.6c-0.1,0.9-1.4,1.1-1.3,2.4c1.2-0.6,2.1-1.2,2.8-2.2c2.3-0.8,4.4-2.5,7.1-2.2c-2.9-1.2-5.2,0-7.4,1.9
		c-0.4,0.1-0.9,0.1-1.3,0.2c1.1-2,3.2-2.6,5-3.5c2.1-1,4.4-1.6,6.9-2.1c3.1,2.1,7.2,3.2,8.7,7.4c0,0.5-0.1,1.1-0.1,1.6
		c0,0.6-0.1,1.1-0.2,2c-1.5-1.1-2.7-2.5-4.8-2.5c2.5,1.7,3.6,4.5,5.1,7.1c4.8-1.7,9.1-0.3,13.4,1.6c4.7,2.1,9.1,4.8,13.6,7.4
		c1,0.6,1.9,1.5,3.1,1.4c0.3,0.8,0.9,1.2,1.8,1.1c-0.4-0.8-0.9-1.2-1.7-1.2c-0.9-1.6-2.7-2.2-4.1-3.1c-4.6-3-9.3-5.7-14.3-8
		c6,0.5,11.7,2.2,16.6,5.8c3.3,2.4,6.4,5.1,9.8,7.4c4.5,3.2,8,7.2,10.7,11.9c0.5,0.9,0.9,1.9,1,3l0.1-0.1c-0.3-0.2-0.6-0.4-1.3-0.8
		c-0.1,2.1,0.9,3.9,0.1,6.3c-1.8-5.1-2.8-10.2-7-13.7c-0.6,1,0.3,1.5,0.6,2.2c2.6,4.8,4.2,9.9,4.6,15.4c0.1,2,0.2,4-1,6.1
		c2.4,0.5,1.1,2.8,2.3,4c-2.7,4.9-6.4,9.2-8.5,14c-1.9,1-3.3,0.1-4.6-0.2c-2.3,0.5-3.8,1.9-5,3.8c-2.1,3.2-3.8,6.5-4.5,10.2
		c-0.2,1.1-0.6,2-1.6,2.6c-1.1,0-1.9-0.8-2.8-1.2c-0.9-3.1-1.4-3.4-4.3-2.7c-0.1,1.2,1.4,1.1,1.6,2.1c-2.2,2.2-2.2,2.2-3.1,4.7
		c-4.6,1.1-5-4.1-8.1-5.7c-0.7,3.3,2,4.4,3.4,6.2c0.4,1,0.1,2-0.3,2.9c-1.2,0.9-2.6-0.3-3.5,0.3c-1.3,0.6-1.3,1.6-1.8,2.4
		c-1.6,2.9-4.1,3.5-6.6,1.5c-2.5-1.9-4.7-4-6.3-6.9c-1.9-3.3-4.8-6-7.1-9.5c-0.4,2.6,1.9,4.1,1.5,6.2c-6.5,2.5-12.3-0.2-18.4-2.5
		c-3.9-8.8-11.2-14.2-20.2-17.6c-2.7-1-4.1-3.7-6.7-4.9c-1.1-0.5-2.1-1.4-2.7-3c3.2-3.4,6.9-0.9,10.5-1.2c-0.5,1.6-2,1.7-2.6,3
		c2.2,0,3.6-1.7,5.6-2.4c0.8-0.2,1.6,0.3,2.7,0.6c-3.1,1.8-6.3,2.5-9.6,3.5c5,2,9.9,2,14.8,2c5.1,0,10-1.1,15-2.7
		c4.3-2.7,5.4-7.3,5.8-12.1c0.2-2.6,0.6-5.1,1.4-7.7c-1.7-1.2-1.4-3-1-4.7c0.6-2.7,1.3-5.5,2.1-8.2c0.2-0.8,0.5-1.6-0.3-2.2l0.1,0.1
		c1.9-2.8,4.2-5.3,6.8-7.6c2.2-1.9,3.2-4.9,6-6.2c0.6-0.3,1.1-0.6,2.2-1.2c-0.8,3.6-3.5,5.4-4.6,8.2c-1.1,2.9-1.5,5.9-1.4,9
		c0.1,3,0.4,5.9,1.9,8.6c-0.6-3.9-0.3-7.8,0.2-11.7C798.4,207.7,798.2,211,800.6,213.1c0.1,0.6-0.3,1.4,0.9,1.6
		C801.4,214.1,801.3,213.4,800.6,213.1z M775.3,187.2c1.2-0.9,2-2,2.5-3.4c-1.3,0.7-2.3,1.8-2.8,3.2c-0.8,0.5-1.4,1.1-1.1,2.3
		C774.7,188.5,775.2,188,775.3,187.2z M828.1,222.3c0.4,0.8,1.1,0.8,2,0.8C829.4,222.2,828.7,222.4,828.1,222.3
		c-0.1-0.5,0.1-1.1-0.5-1.8c-2.6,0.2-3.8-1.9-5-4c-0.9-1.6-1.7-3.2-2.6-4.8c0.4,3.1,1.7,5.9,2.8,8.8c-1.3,0.1-2.4-0.9-3.7,0
		c2.4,1.2,4.8,2,7.1,2.7C827.1,222.8,827.6,222.6,828.1,222.3z M795,223.1L795,223.1c-0.3,2.2,0.3,4.5-0.9,7.2
		c1.7-0.7,2.7,0.6,4-0.3c0.9-0.3,0.2-1.4,0.9-2.1c1,0.3,2.2,0.5,3.4-0.5c0.4-2.3,1.2-4.7,0.9-7.3c1.4,3-0.2,6.5,2.1,9.4
		c0.8-0.2,1.7,0.4,2.7-0.5c-1.4-1.4-2.4-2.8-3-4.7c0.4-1.7,1-3.7-0.3-5.6c-3.2-0.5-6.5-0.9-9.7,0.1c-1,0.5-0.9,2.2-2.4,2.2
		c-0.4-1.9,1.2-3.4,0.7-6c-0.7,1.8-1.4,2.7-1.5,3.7c-0.2,1.9-1.3,3.2-2.5,4.5c-0.2,0.2-0.1,0.4,0.3,0.6c0.9,0.1,1.4-1.5,2.5-1
		c1,4.3-2.7,6.7-3.9,10c2.7,2.5,4.3,2.3,5.6-0.3c-1-1-2.4,0.6-3.7-0.5c2.6-1.8,3.5-4.5,4-7.3C794.4,224,794.3,223.3,795,223.1z
		 M805.9,203.2c-0.3,2.3,0.5,4.4,1.4,6.4c1.5,3.4,3.5,6.6,5.3,9.9c2.2,3.8,5.6,4.9,9.5,5.6c0.9,0.2,2.1,0.5,3.2-0.9
		c-2,0.2-3.7,0.7-5.1-0.5c0.1-0.4,0.2-0.8,0.3-1.2c0-0.1-0.1-0.2-0.2-0.3c-3.6,0-3.7,0-5.3-1.8c1.2-0.5,1.8,1.5,3.5,0.5
		C811.5,216.9,808.4,210.3,805.9,203.2z M829.3,246.7c1.2,0,2.2,1.1,3.2,0c-1.9-4-5.9-4.2-9.3-5.8c-0.8,2.3,1.6,2.5,2,3.7
		c0,0.8-0.7,0.6-1.1,1c0.5,1.3,0.5,2.9,2.3,3.6C826.9,247.8,828.3,247.6,829.3,246.7z M790.7,258c-0.8-3.8-2.5-6.8-2.2-10.2
		c0.3-3.5,2.2-6.3,4-9.1C785.8,243.2,784.7,252.5,790.7,258z M825.9,235.9c0.3,0.9,1.1,1.2,1.8,1.5c2.9,1,4.6,3,5.3,6
		c0.2,0.9,0.6,1.8,1,2.6c0.3,0.7,0.5,1.7,1.6,1.5C837.3,241.9,831.9,235.5,825.9,235.9z M790.7,202.4c-1.9,2.6-5.1,19.3-4.3,23.3
		c1.3-4.9,3-9.1,3.2-13.4C789.7,209.1,790.5,206.2,790.7,202.4z M843.5,226.4c0.1,0.1,0.4,0.4,0.5,0.3c1-0.4,0.3-2,1.6-2.3
		c0.1,1.2,0.2,2.4,0.4,3.6c0.5,0.6,1,1.2,1.6,1.8c0.1,0.1,0.4,0.1,0.6,0.2c0.7-2.9-0.7-6.3-4.3-9.9
		C843.7,222.3,843.6,224.3,843.5,226.4z M829.1,201.2c-4.4-5.2-11.2-9.4-14.8-9.1C819.6,194.6,824.3,198,829.1,201.2z M838.5,224.8
		c0.6-3.7-3.1-13.5-5.9-16.7C834.6,213.6,836.5,218.9,838.5,224.8z M828.5,212.2c0.3,3.4,1.3,6.3,5.4,7.4c-2.1-2.9-2.8-6.2-4-9.4
		c-0.7,1.3,0.7,2.5,0,3.9C829.4,213.5,829,212.8,828.5,212.2z M806.6,223.4c0.7,4.2,3.9,6.2,7.1,4.4
		C810.8,227,808.4,225.7,806.6,223.4z M816.2,224.4c-3.1-0.6-5.9-1.9-8.7-3.2C810.3,224.7,812.9,225.7,816.2,224.4z M841.8,223.9
		c1-2.4,0.9-2.8-1-5.9C841.2,220.1,841.5,222,841.8,223.9z M819.6,217.6c-0.9-1.8-1.8-3.6-2.8-5.5
		C817.2,214.3,817.4,216.5,819.6,217.6z M831.5,220.2c-1.4-1.4-3.1-1.9-4.9-2.4C827.9,219.2,829.5,220.2,831.5,220.2z M783.4,253.6
		c1.2-1.1,2-2.4,2.2-4.5C784,250.6,783.7,252.1,783.4,253.6z M808.8,190.9c1.1,1.1,1.9,2.5,4.2,3.4
		C811.4,192.4,810.4,191.2,808.8,190.9z"/>
	<path fill="none" d="M752,303.6c1.5-0.1,2.8,0.1,3.9,0.7c0,1.1-0.9,1.6-1.4,2.3c-2.4,2.8-4.6,5.6-5.6,9.3c-0.5,1.7-1.6,3.1-2.8,4.4
		c-4.3,4.6-9.1,8.1-15.8,7.9c-8.4-0.3-16.8-1-25.2-2.1c-4.2-0.6-8.2-1.8-12.3-2.6c-2.4-0.5-4.8-0.4-7.7,0.2
		c2.4-12.9,0.9-25.3-1.1-37.5c-2-12.2-3.8-24.6-10-35.9c3.8-2,8-3.5,12.1-5c9.4-3.4,18.9-6.5,28.5-9c3.9-1,7.7-1.4,11.8-0.9
		c4.3,0.6,8.7,0.4,12.8,0.5c0.7,0.7,0.2,1.2,0,1.7c-0.7,2.4,0.2,4.3,2.6,5.4c2.5,1.1,4.8,2.5,6.9,4.2c2.1,1.7,4.5,3,6.9,4.2
		c5.4,2.7,9.8,6.3,12.9,11.9c-1.2,0.1-2.4,0.2-3.5,0.3c-9.2-15.2-34.8-19.6-49.2-7.6c0,1.2-1,2.1-1.7,3.1
		c-6.4,9.2-9.1,19.3-6.9,30.4c1,4.9,2.8,9.7,5.4,14c3.5,5.7,9,8.4,15.5,9.2c2,0.2,3.9,0.2,5.9,0.7c2.8,0.6,5.6-0.4,8.1-1.7
		c2.2-1.1,4.3-2.5,6.4-3.7C750.4,306.9,751.3,305.2,752,303.6z"/>
	<path fill="none" d="M244.2,260.5c1.2,3,3.2,5,4.7,7.3c2.2,3.5,4.1,7.3,5.7,11.1c1.4,3.5,2.5,7.1,5,10.2c-1.2,1.4-2.8,1.9-4.3,2.3
		c-2.9,0.8-5.9,1.5-8.9,2.1c-5,0.9-7.9,3.8-8.5,8.9c-0.5,4.2-1.6,8.4-1.6,12.5c0.1,2.7-0.3,5.9,2.2,8.6c-3.2,0.4-5.9,0.7-8.6,1
		c-1.5-1.3-0.6-4-3-4.8c-2.8,0.9-0.9,3.3-1.3,5c-0.6,0.8-1.4,0.8-2.3,0.7c-0.8-1.6,0.3-4.2-2.4-4.9c-2.2,1.8-2.2,1.8-0.8,5.3
		c-1.9,1.1-3.8,0.5-5.6,0.1c-1.2-0.8-0.7-2.5-2.2-2.8c-1.4-0.2-1.4,1.3-2.2,2.1c-2.2-0.4-4.5-0.4-6.8,0.1c-0.7,0.2-1.4,0.3-2.1-0.1
		c-1.4-0.7-2.7-0.5-4.1-0.2c-5.1,1.3-10.4,1.8-15.4,3.5c-3.5,1.2-6.9,0.8-9.6-2c1.2-6.8,4.4-12.4,9-17.3c1.8-2,3.6-4.1,5.3-6.2
		c4.9-6,11.5-9.5,18.4-12.6c2.8-1.3,6-1.2,8.9-1.9c3.5-0.9,5.6-2.5,5.8-6.4c0.1-2.3,1.5-4,3.1-5.7c4.5-4.6,9.5-8.3,15.1-11.5
		C239.8,263.9,241.8,262.2,244.2,260.5z M203.6,310.8c0.5,1.3,0.8,2.6,1.4,3.7c1,1.9,3.6,2.5,5.5,1.4c1.6-0.9,2.3-3.6,1.4-5.3
		c-0.9-1.8-3.2-2.6-5.1-1.7C205.8,309.4,204.8,310.1,203.6,310.8z M220.3,309c0-2.2-1.8-4.1-3.9-4.2c-2.1-0.1-4,1.8-4.1,3.9
		c-0.1,2.2,1.6,4,3.9,4C218.5,312.9,220.2,311.3,220.3,309z M221.4,305.3c-0.4,2.8-0.4,2.8,1.7,4.6c1.6-0.2,3.1-0.9,4.8-2.1
		c-1.3-2.1-1.4-4.8-3.6-6.4c-1.3,0.9,0.5,2.2-0.6,2.9c-0.7,0.4-1.2-0.1-1.7-0.4c-0.5-0.2-1.1-0.5-1.6-0.6c-0.2-0.1-0.6,0.2-1,0.4
		c0.3,0.3,0.6,0.6,0.8,0.8C220.7,304.9,221.1,305.1,221.4,305.3z"/>
	<path fill="none" d="M922.9,288.9c2,2,4.4,2.6,6.8,2.6c4.5,0,8.5,1.3,12.9,3.4c-2.9,1.3-5.4,2.3-8.6,1.8
		c-5.3-0.9-10.6-1.6-16.1-0.6c-5,0.9-9.9,0.5-14.3-3c-2.1-1.7-5.1-1.8-7.8-1.4c-6,0.8-12.1,1.5-18.2,1.9c-6.1,0.4-11.7,2.3-17.6,3
		c-6.2,0.8-12.4,0.7-18.7,1c-5.4,0.3-10.8,1.1-16.2,0.8c-1.5-0.1-2.7-0.3-4-1c-5.6-2.9-11.5-5.4-16.7-9c-0.1-0.1-0.2-0.2-0.3-0.2
		c-5.8-0.9-8.5-5.7-11.8-9.7c-2.7-3.2-5.5-6.3-8.9-9.4c2.5-0.3,4.5-0.6,6.6-0.9c2.5,3.7,5.4,6.9,8.9,9.4c4.7,3.3,7.1,3,10.8-1.6
		c2.2-0.1,3.7-1.5,5-3.3c0.9,1.5,2.3,1.5,3.6,1.7c5.7,1.2,11.5,0.3,17.2,0.1c7.9-0.3,15.7,0.3,23.3,2.8c3.4,1.1,6.9,1.4,10.4,1.7
		c7.5,0.5,14.8,2.8,22.2,3.6c1.2,0.1,2.4,0.5,3.5,0.3c4.4-0.7,8.7,0.1,12.9,0.8c4.6,0.8,9.2,0.5,13.6-0.9c3.7-1.2,6.9-0.4,10.1,1.2
		c1.9,1,3.9,1.6,6,2.1c6.1,1.5,11.7,4.3,17.6,6.3c0.3,0.1,0.6,0.4,0.8,0.6c-0.4,1.3-1.3,1.1-2.1,1.1c-5.3-0.7-10.8-1.1-15.8-3.3
		c-1.6-0.7-3.3-1.2-5.1-1.2c-0.5,0-1.1,0.2-1.4-0.1C929,286.8,925.9,289.3,922.9,288.9z M810.3,279.5c2.4,1.8,3.2,2.2,6.2,2.9
		C814.8,280.6,813.8,278.3,810.3,279.5z M816,286c0.9,1.4,1.7,1.9,2.8,2.2C818.3,287.1,818.1,285.8,816,286z M900.3,290.4
		c0.7,0.7,1.2,1.3,2.1,0.8C901.9,290.5,901.5,289.8,900.3,290.4z"/>
	<path fill="none" d="M329.8,276.4c2.8-1.4,5.9-1.1,8.7-1.4c7.6-0.9,15.2-2,22.8-1.7c6.8,0.3,13.6,0.9,20.3,2.1c1,0.2,2.1,0.4,3,0.9
		c4.8,2.1,9.8,3.1,14.9,4.3c7.2,1.7,14.5,2.8,21.9,2.7c2.5,0,4.9-0.4,7.3-1.1c7.4-2,14.7-4.1,22-6.3c3-0.9,6.1-1.7,9.2-2.2
		c12.9-2.1,25.5-5.5,37.7-9.9c0.3-0.1,0.7-0.2,1.1-0.3c0.6,1,1.1,2,1.6,2.9c-0.7,1.4-2.1,0.6-2.9,1.2c0,0.4-0.1,0.9-0.1,1.3
		c-0.4,0.2-0.7,0.4-1,0.5c-9.2,2.9-18.3,6-27.8,7.9c-4.8,0.9-9.7,1.5-14.6,2.6c-8,1.7-16,3.9-24,5.5c-9,1.8-18.1,3-27.2,3.4
		c-4.3,0.2-8.5-0.2-12.6-1.4c-7.1-2-14.2-4-21-7c-5.2-2.4-10.7-3.4-16.4-3.8c-5.2-0.3-10.3-0.8-15.5-0.7
		C334.9,275.9,332.4,277,329.8,276.4z M405.3,284.7c2.2,0.3,4.5,0.9,7.3-0.5C409.7,283.6,407.5,284.2,405.3,284.7z"/>
	<path fill="none" d="M246.5,259.1c3.2-1.7,6.7-2.7,10-4c1.7,1.5,2.8,3.1,3.6,5c2,4.8,4.5,9.3,8.1,13.1c0.9,1,1.1,2.3,1.6,3.5
		c0.5,1.3,0.8,2.7,1.3,4.1c-1.9,3.5-5.9,4.3-8.9,6.9c2.4,0.8,4.2,0,6-0.7c1.3-0.5,2.6-0.8,4.1-0.6c3.2,0.2,6.4-0.2,9.5-0.8
		c9.8-1.8,19.7-3.1,29.4-5.8c1.2-0.3,2.5-0.4,4.1-0.7c-4.3,4.1-40.6,10.9-53.6,10.2c-1.2-3.2-2.7-6.4-3.6-9.8
		c-0.8-3-2.7-5.4-4.1-8.1C251.6,267.2,247.7,263.9,246.5,259.1L246.5,259.1z"/>
	<path fill="none" d="M774.9,203c1.8-9.7,10.9-17.3,19.5-16.3C785,188.7,779,194.7,774.9,203z"/>
	<path fill="none" d="M780.5,228.6c0.7,7.3-1.6,10.1-9.6,11.2C775.4,237,778.2,233.3,780.5,228.6z"/>
	<path fill="none" d="M785.7,206c-1.2,4.1-2.4,8.2-3.7,12.5c-1.5-2.2-1.6-4.3-0.2-6.4C783,210,783.9,207.7,785.7,206L785.7,206z"/>
	<path fill="none" d="M785.5,198.8c-0.9,3.6-4.3,5.6-5.5,9.1C779.8,205.4,781.3,202.8,785.5,198.8z"/>
	<path fill="none" d="M787.1,197.3c1.7-1.8,3.5-3.5,6.7-4C791.7,195.8,789.5,196.8,787.1,197.3z"/>
	<path fill="none" d="M852.8,216c2.2,3.1,1.7,6.5,0.9,9.9C853.8,222.5,852.9,219.2,852.8,216L852.8,216z"/>
	<path fill="none" d="M761.3,232c-0.5,1.9-0.6,3.3-3,3C759,233.8,759.9,233.1,761.3,232z"/>
	<path fill="none" d="M959.7,292.3c0.8,0.4,1.1,0.8,0.7,1.4c-0.2,0.4-0.7,0.5-1.2,0.3C958.9,293.5,959.2,292.9,959.7,292.3z"/>
	<path fill="none" d="M782.7,220.6c1.6,0.5,1.1,1.3,0.7,2.1C782.5,222.1,782.5,221.5,782.7,220.6z"/>
	<path fill="none" d="M804.1,182.8c0.8,0.5,1.5,1.2,1.4,2.6C804.2,184.7,804.1,183.8,804.1,182.8L804.1,182.8z"/>
	<path fill="none" d="M802.7,182.1c0-0.5,0.1-1.1,0.1-1.6c0.7,0.6,1.4,1.3,1.3,2.4l0.1-0.1C803.7,182.5,803.2,182.3,802.7,182.1z"/>
	<path d="M562.7,542.8c1.9-0.1,2.3,1.6,3.3,2.6C564.6,544.9,563.5,544,562.7,542.8L562.7,542.8z"/>
	<path d="M502.1,558.9c0.6,0.6,0.9,1.4,1.2,2.5C502.2,560.6,502,559.8,502.1,558.9L502.1,558.9z"/>
	<path d="M631,552.3c-6.6,2.3-13.1,4.5-20.3,3.8c3.4-0.7,6.8-1.4,10.2-2.2C624.3,553.1,627.5,551.7,631,552.3z"/>
	<path d="M601.8,556.5c-1.1,0.3-1.4-0.2-2-0.7C600.8,555.5,601.4,555.4,601.8,556.5z"/>
	<path d="M758.4,477c-1.7,0.3-2.3,1.5-2.3,3c0,0.9,0,1.9,0.4,2.8c1,2.7,1.4,5.4-0.1,8.3c1.7,0.3,2.2-1.8,3.6-1.2
		c-0.2,2.8-1.3,3.6-4.8,3.1c-0.8-3.4,1.6-7.4-1.4-10.7c-1.4-0.1-0.8,2.1-2.5,2.2c1.6-3.4-0.7-6.8,0.1-10.2c1.3,1.9,0.6,4.4,2.1,6.2
		c1.1-0.9,0.3-2.2,1-3.1c2.4-2.3,5.4-3.5,8.7-4.8c2.7,2.3,2.5,7.5,7.4,7.3c-0.1,1.7-1.4,1.4-2,2.1c-3.1-1.7-3.9-5-5.6-7.5
		c-0.6-0.1-1,0-1.2,0.6l0.1-0.1c-1.1,0.2-1.9,0.7-2.2,1.8C759.2,476.8,758.8,476.9,758.4,477z"/>
	<path d="M757.1,458.9c5.4,4.8,11,9,18.9,9.1c-1.3,1.6-2.7,0.7-4.2,1c2.8,2,4.6,0.1,6.7-0.6c0.7,0.2,0.1,1,0.6,1.4
		c1,0.5,1.9-0.9,3-0.2c-0.7,0.9-1.7,1.3-2.7,1.3c-3.3,0.1-6.6,0.8-9.7-1.6c-3.2-2.4-6.8-4.2-9.8-6.9
		C758.6,461.5,757.5,460.5,757.1,458.9z"/>
	<path d="M758.4,477c0.4-0.1,0.8-0.2,1.3-0.4c0.8-0.5,1.9-0.7,2.2-1.8l-0.1,0.1c2.5,1.5,2.4,4.3,3.3,6.5c-0.7,1-1.4,1.8-2.6,1.9
		c-0.7,0.8,0.9,1.7,0,2.4c-0.8,1.4-2.3,0.7-3.2,1.7c-0.4-1.2-0.5-2.3-1.1-3.1C756,481.8,756.8,479.5,758.4,477z M759.6,484.1
		c0.1,0.1,0.3,0.2,0.4,0.2c0.6-0.6-0.1-1.6,0.8-2.1c0.7-0.7,2.1,0.1,2.7-0.9c-0.1-0.7-0.3-1.2-0.7-1.6c-0.7-0.5-1.6,0.5-2.2-0.4
		c-0.2-1.2,2-0.1,1.4-2c-1.4,0.5-2.7,1-3.6,2C757.7,481.2,758.5,482.7,759.6,484.1z"/>
	<path d="M793.7,489.8c-0.2-0.7,0.6-1.1,0.1-1.8c-1-0.7-2.9,0-3.4-2.2c3.7-0.3,7.3-2.1,11,0.9c-2.1,1.2-4.8,1.9-4.5,5
		C795.3,491.5,794.4,490.6,793.7,489.8z"/>
	<path d="M790.1,479.7c6.3-2.5,11.7-0.2,14.4,5.7c-1.4,0.4-1.4,0.4-7.2-4.6C795.2,479.8,792.7,481.1,790.1,479.7z"/>
	<path d="M761.9,496.3c-1,3.4-0.8,6.7,0.5,9.9c1.3,3.2,4.5,4.9,6.6,7.8C761.3,511.9,757.5,502.4,761.9,496.3z"/>
	<path d="M749.9,487.7c-2.8-4.5-7.4-19.7-6.9-22.6C745.5,472.6,748.7,479.4,749.9,487.7z"/>
	<path d="M785,464.7c-0.2,0.5-0.4,1.1-0.6,1.6c-2.4,0.6-4.8,1.1-7.5,0.9c0.8-1.2,2.1-0.8,2.8-1.7c-2.1-1.8-4.3-3.6-6.4-5.4
		c3,0.6,5,3.1,7.9,3.9c1.1,0.1,2.2-0.5,3.4-0.7c0.1,0.5,0.2,1,0.4,1.4L785,464.7z"/>
	<path d="M801.7,458.8c-0.8,0.9,0.4,1.7-0.5,2.6c-1.4-1.6-1.7-3.6-2.8-5.4c2.4-0.7,3.6,1.1,5.1,2c1.5,0.9,3,1.9,3.4,3.8
		C804.2,462.2,804.2,462.2,801.7,458.8z"/>
	<path d="M759.1,444.6c4.4-1.8,12.6-1.1,17.4,1.3C770.4,445.5,764.8,444.1,759.1,444.6z"/>
	<path d="M795.3,461.8c-4.2-3.8-8.1-7.4-12.2-11.1C786.9,451.8,794.7,458.9,795.3,461.8z"/>
	<path d="M788.1,459c-1.1,0.5-1.7,0.8-2.3,1.1c-2-0.8-3.6-2.1-4.9-3.7c0.2-0.6,0.9-0.3,1.1-0.7c0.4-0.6-0.7-1,0-1.7
		C783.9,455.7,785.5,457.7,788.1,459z"/>
	<path d="M724.5,449.6c-0.1,2.1-1.1,4-1.5,6.1c-0.8,3.5-0.7,7.1-1,10.6c-0.7-5.8-0.7-11.6,2.4-16.9L724.5,449.6z"/>
	<path d="M766.6,475.9c2.8,1.1,5.6,1.4,8.7,0.5C773.2,479.6,769.6,479.3,766.6,475.9z"/>
	<path d="M767.2,473.6c3,0.1,5.7-0.8,8.7-1.5C774.5,474.9,771.2,475.4,767.2,473.6z"/>
	<path d="M781.9,462c3-1.2,3-1.2,6-0.7C785.8,462.5,784.1,462.1,781.9,462z"/>
	<path d="M759.6,448c-2.1-0.5-4.2-0.9-6.3-1.4C755.8,445.7,757.7,446.8,759.6,448z"/>
	<path d="M798.3,460c-1-1.4-1.9-2.5-2.9-4C798,457.4,798,457.4,798.3,460z"/>
	<path d="M760.8,513.8c-0.7-1.8-0.9-3.1-0.3-4.6C761.3,510.5,761.3,511.9,760.8,513.8z"/>
	<path d="M772.4,462.9c1.4,0.1,2.1,1.3,3.4,1.9c-2,0-2,0-3.4-1.8L772.4,462.9z"/>
	<path d="M772.3,463c-1-0.2-1.7-0.8-2.3-2c1.2,0.4,2,0.9,2.4,1.9L772.3,463z"/>
	<path d="M756.1,469.3c1,0.1,1.6,0.6,2.3,2.1C757.2,470.6,756.4,470.3,756.1,469.3L756.1,469.3z"/>
	<path d="M727.3,485.5c-0.8-0.2-1-0.9-1.3-1.5C727,484.1,727.1,484.9,727.3,485.5L727.3,485.5z"/>
	<path d="M734.3,480c-1.1-0.3-1.3-1.3-1.5-2.2C733.6,478.3,734.3,478.9,734.3,480z"/>
	<path d="M785,464.7l0,0.1c0.7-0.2,1.4-0.6,2.4-0.1C786.5,465.2,785.7,465.1,785,464.7z"/>
	<path d="M771.8,458.6c-0.5-0.3-0.7-0.5-1.1-0.7C771.4,457.5,771.5,458,771.8,458.6z"/>
	<path d="M681.1,611.4c-0.7-2.3-0.7-2.3-0.4-4.8C681.5,608.4,682.4,609.4,681.1,611.4z"/>
	<path d="M200,518.1c1.4-0.2,2.1-1.2,3.1-1.7c2.1-0.9,4.5-0.2,5.3,1.8c0.8,1.9,0.1,4.3-1.6,5.2c-2,1-4.4,0.4-5.4-1.6
		C200.8,520.7,200.5,519.5,200,518.1z M202.7,520.6c1.5,1.8,2.1,2.1,3.3,1.5c1-0.5,1.3-1.3,1.2-2.3c-0.2-1.4-1-2.3-2.5-2.4
		c-0.6,0-1.1,0.3-1.3,0.9c0.4,0.4,1.1,0.5,0.8,1.5C204,520.5,202.9,519.8,202.7,520.6z"/>
	<path d="M216.7,516.6c-0.1,2.3-1.8,3.8-4.2,3.7c-2.3-0.1-3.9-1.9-3.8-4.1c0.1-2.1,2.1-4,4.2-3.9
		C215.1,512.5,216.8,514.4,216.7,516.6z M212.8,513.9c-1.2-0.1-2.2,0.9-2.3,2.1c-0.1,1.5,0.9,2.8,2.4,2.8c1.2,0,2.3-0.9,2.4-2.1
		C215.3,515.4,214.1,514,212.8,513.9z"/>
	<path d="M219.8,517.4c-2.5-1-2.3-2.7-1.7-4.5c-0.7-0.6-1.3-1.1-2.1-1.7c0.5-0.2,0.8-0.4,1.1-0.4c1.2-0.1,1.9,1.3,3,1.1
		c1.3-0.9-0.4-2.2,0.9-3.1c1.9,1.8,2.5,4.2,3.4,6.5C222.8,516.5,221.2,517.3,219.8,517.4z M219.2,515c1.3,1.3,2.1,0.5,3-0.2
		c-0.2-0.6-0.3-1.2-0.9-1.6C220.4,513.3,219.6,513.7,219.2,515z"/>
	<path d="M791.6,547.1c2.7-1.8,4.1,0.3,5.8,1.8C795.4,548.7,793.3,548.5,791.6,547.1z"/>
	<path d="M801.1,554.9c-1.5-0.7-2.5-1.1-3.3-2.2C799.8,552,800.3,553.2,801.1,554.9z"/>
	<path d="M883.6,544.5c-0.8,0.4-1.3,0.3-1.7-0.7C882.7,543.3,883.2,543.5,883.6,544.5z"/>
	<path d="M397.6,541.3c2.2,0.5,4.5,1,7.1,1.6C401.9,543.7,401,543.5,397.6,541.3z"/>
	<path d="M645.8,261.9c-4.6,3.1-9.8,3.3-15.1,3.2C635.6,263.5,641,264,645.8,261.9z"/>
	<path d="M622.6,267.2c-2,0.7-4.1,0.5-6.2-0.2c2-0.2,4.1-0.3,6.1-0.5C622.5,266.7,622.5,267,622.6,267.2z"/>
	<path d="M605.2,319.8c0.1,1.3-0.2,2-1.3,2.6C603.7,321.2,604.3,320.6,605.2,319.8z"/>
	<path d="M795,223.1c-0.7,0.3-0.6,0.9-0.7,1.5c-0.6,2.8-1.4,5.4-4,7.3c1.3,1.1,2.7-0.5,3.7,0.5c-1.4,2.7-2.9,2.8-5.6,0.3
		c1.1-3.3,4.8-5.8,3.9-10c-1.1-0.5-1.6,1.1-2.5,1c-0.3-0.2-0.5-0.4-0.3-0.6c1.2-1.3,2.2-2.6,2.5-4.5c0.1-1,0.8-1.9,1.5-3.7
		c0.5,2.6-1.1,4.1-0.7,6c1.5,0,1.4-1.8,2.4-2.2c3.2-1,6.4-0.5,9.7-0.1c1.3,1.9,0.8,3.9,0.3,5.6c0.6,1.9,1.6,3.3,3,4.7
		c-1,0.9-1.9,0.4-2.7,0.5c-2.3-2.9-0.7-6.4-2.1-9.4c0.2,2.6-0.5,5-0.9,7.3c-1.2,1-2.3,0.9-3.4,0.5c-0.7,0.7,0,1.8-0.9,2.1
		c-1.3,0.9-2.4-0.4-4,0.3C795.3,227.5,794.7,225.3,795,223.1c1.8-1.5,3.6-3,6.3-2.8c-1.4,0-2.8,0-4.3,0
		C796,220.9,794.7,221.4,795,223.1z M799.5,223.4c0.8-0.7,1.8,0.2,2.3-1.1c-1.6-0.1-2.9-0.5-4.2,0c-1.7,1.5-1.3,3.2-1,5
		c0.8-0.3,0.8-1.3,1.6-1.4c1-0.4,1.9,0.9,3,0.4c0.1-0.4,0.2-0.9,0.3-1.4C800.8,224.5,800.2,224,799.5,223.4z"/>
	<path d="M805.9,203.2c2.4,7.1,5.6,13.7,12.5,17.7c-1.6,1-2.3-0.9-3.5-0.5c1.6,1.7,1.7,1.8,5.3,1.8c0.1,0.1,0.2,0.2,0.2,0.3
		c-0.1,0.4-0.2,0.8-0.3,1.2c1.4,1.2,3.2,0.7,5.1,0.5c-1.1,1.4-2.3,1.1-3.2,0.9c-3.8-0.7-7.3-1.8-9.5-5.6c-1.8-3.3-3.8-6.4-5.3-9.9
		C806.4,207.6,805.6,205.5,805.9,203.2z"/>
	<path d="M829.3,246.7c-1,0.9-2.5,1.1-2.9,2.5c-1.7-0.7-1.8-2.3-2.3-3.6c0.4-0.4,1.1-0.2,1.1-1c-0.4-1.2-2.8-1.4-2-3.7
		c3.4,1.5,7.4,1.8,9.3,5.8C831.5,247.8,830.6,246.7,829.3,246.7z"/>
	<path d="M790.7,258c-5.9-5.6-4.9-14.9,1.8-19.3c-1.8,2.8-3.8,5.5-4,9.1C788.2,251.3,789.9,254.3,790.7,258z"/>
	<path d="M825.9,235.9c6-0.4,11.4,6,9.7,11.6c-1.1,0.2-1.3-0.8-1.6-1.5c-0.4-0.8-0.8-1.7-1-2.6c-0.7-2.9-2.4-5-5.3-6
		C827,237.1,826.2,236.7,825.9,235.9z"/>
	<path d="M790.7,202.4c-0.2,3.7-1,6.7-1.1,9.9c-0.2,4.3-2,8.5-3.2,13.4C785.6,221.8,788.8,205,790.7,202.4z"/>
	<path d="M828.1,222.3c-0.5,0.3-1,0.5-1.8,0.9c-2.3-0.7-4.7-1.5-7.1-2.7c1.3-0.9,2.4,0.1,3.7,0c-1.1-2.9-2.4-5.6-2.8-8.8
		c0.9,1.6,1.7,3.2,2.6,4.8c1.1,2.1,2.3,4.1,5,4C828.2,221.2,828,221.8,828.1,222.3L828.1,222.3z"/>
	<path d="M843.5,226.4c0.1-2.1,0.3-4.2,0.4-6.3c3.5,3.6,5,6.9,4.3,9.9c-0.2-0.1-0.5,0-0.6-0.2c-0.6-0.6-1.1-1.2-1.6-1.8
		c-0.1-1.2-0.2-2.4-0.4-3.6c-1.3,0.3-0.6,1.9-1.6,2.3C843.8,226.8,843.6,226.5,843.5,226.4z"/>
	<path d="M829.1,201.2c-4.8-3.2-9.5-6.7-14.8-9.1C817.9,191.8,824.7,196,829.1,201.2z"/>
	<path d="M838.5,224.8c-2.1-5.9-4-11.2-5.9-16.7C835.4,211.3,839.1,221.1,838.5,224.8z"/>
	<path d="M828.5,212.2c0.5,0.6,0.9,1.3,1.4,2c0.7-1.4-0.8-2.6,0-3.9c1.2,3.1,1.9,6.4,4,9.4C829.8,218.6,828.8,215.6,828.5,212.2z"/>
	<path d="M806.6,223.4c1.8,2.2,4.2,3.6,7.1,4.4C810.5,229.6,807.3,227.6,806.6,223.4z"/>
	<path d="M816.2,224.4c-3.3,1.3-5.9,0.2-8.7-3.2C810.3,222.6,813.1,223.9,816.2,224.4z"/>
	<path d="M783.5,178.4c2.1-1.8,4.4-3.1,7.4-1.9c-2.7-0.3-4.8,1.3-7.1,2.2C783.7,178.6,783.6,178.5,783.5,178.4z"/>
	<path d="M841.8,223.9c-0.3-1.9-0.6-3.8-1-5.9C842.8,221.1,842.8,221.5,841.8,223.9z"/>
	<path d="M819.6,217.6c-2.2-1.2-2.4-3.4-2.8-5.5C817.7,214,818.7,215.8,819.6,217.6z"/>
	<path d="M831.5,220.2c-2,0-3.5-1-4.9-2.4C828.3,218.3,830.1,218.8,831.5,220.2z"/>
	<path d="M783.4,253.6c0.2-1.5,0.6-3,2.2-4.5C785.4,251.3,784.6,252.5,783.4,253.6z"/>
	<path d="M808.8,190.9c1.7,0.3,2.7,1.5,4.2,3.4C810.7,193.4,809.9,192,808.8,190.9z"/>
	<path d="M775.1,186.9c0.5-1.4,1.4-2.5,2.8-3.2c-0.5,1.4-1.3,2.5-2.5,3.4L775.1,186.9z"/>
	<path d="M783.8,178.7c-0.7,0.9-1.5,1.5-2.8,2.2c0-1.3,1.3-1.5,1.3-2.4l-0.1,0.1c0.4-0.1,0.9-0.1,1.3-0.2
		C783.6,178.5,783.7,178.6,783.8,178.7z"/>
	<path d="M828,222.4c0.7,0,1.4-0.2,2.1,0.7C829.2,223.1,828.5,223.1,828,222.4L828,222.4z"/>
	<path d="M800.6,213.1c0.7,0.3,0.8,0.9,0.9,1.6C800.3,214.6,800.7,213.7,800.6,213.1L800.6,213.1z"/>
	<path d="M833.1,199c0.8,0,1.4,0.4,1.7,1.2C833.9,200.3,833.3,199.9,833.1,199L833.1,199z"/>
	<path d="M775.3,187.2c-0.1,0.8-0.6,1.4-1.3,2.1c-0.3-1.2,0.3-1.8,1.1-2.3L775.3,187.2z"/>
	<path d="M203.6,310.8c1.3-0.8,2.2-1.5,3.3-2c1.9-0.9,4.2-0.1,5.1,1.7c0.9,1.7,0.2,4.4-1.4,5.3c-1.9,1.1-4.5,0.5-5.5-1.4
		C204.4,313.4,204.1,312.2,203.6,310.8z M206.1,313.1c1.8,1.9,2.9,2.2,4,1.1c0.9-1,0.7-2.8-0.4-3.7c-0.9-0.7-1.8-1-2.7,0.1
		c-0.1,0.7,1.2,0.8,0.6,2C207.5,312.9,206.6,312.5,206.1,313.1z"/>
	<path d="M220.3,309c0,2.3-1.7,3.8-4.1,3.8c-2.3,0-4-1.8-3.9-4c0.1-2.1,2-4,4.1-3.9C218.5,304.9,220.3,306.9,220.3,309z
		 M218.8,309.2c0.1-1.4-1.2-2.8-2.5-2.8c-1.2,0-2.1,0.9-2.2,2.2c-0.1,1.5,1,2.8,2.5,2.7C217.7,311.4,218.7,310.4,218.8,309.2z"/>
	<path d="M221.4,305.3c-0.3-0.2-0.7-0.5-1.1-0.8c-0.3-0.2-0.5-0.5-0.8-0.8c0.4-0.2,0.7-0.4,1-0.4c0.6,0.1,1.1,0.4,1.6,0.6
		c0.5,0.2,0.9,0.8,1.7,0.4c1.1-0.7-0.7-2,0.6-2.9c2.1,1.6,2.3,4.3,3.6,6.4c-1.7,1.2-3.2,2-4.8,2.1
		C221.1,308.2,221.1,308.2,221.4,305.3z M225.7,307.4c-0.2-0.8-0.2-1.4-0.9-1.6c-0.9,0.1-1.7,0.5-2,1.6
		C223.6,308.9,224.6,308.1,225.7,307.4z"/>
	<path d="M810.3,279.5c3.5-1.2,4.6,1.1,6.2,2.9C813.4,281.6,812.7,281.3,810.3,279.5z"/>
	<path d="M816,286c2.2-0.2,2.4,1.1,2.8,2.2C817.6,287.9,816.8,287.4,816,286z"/>
	<path d="M900.3,290.4c1.2-0.6,1.6,0.1,2.1,0.8C901.5,291.7,900.9,291.1,900.3,290.4z"/>
	<path d="M405.3,284.7c2.2-0.5,4.4-1.1,7.3-0.5C409.8,285.6,407.6,284.9,405.3,284.7z"/>
	<path fill="none" d="M761.8,474.9c-0.3,1.1-1.4,1.3-2.2,1.8C759.9,475.6,760.8,475.1,761.8,474.9z"/>
	<path fill="none" d="M759.6,484.1c-1.1-1.4-1.9-2.9-1.2-4.9c1-1,2.3-1.5,3.6-2c0.6,1.9-1.6,0.8-1.4,2c0.6,1,1.5,0,2.2,0.4
		c0.4,0.4,0.6,0.9,0.7,1.6c-0.7,1-2,0.1-2.7,0.9c-0.9,0.5-0.2,1.5-0.8,2.1C760,484.3,759.8,484.2,759.6,484.1z"/>
	<path fill="none" d="M202.7,520.6c0.2-0.8,1.4-0.2,1.5-0.8c0.3-1-0.4-1.1-0.8-1.5c0.2-0.6,0.7-0.9,1.3-0.9c1.5,0.1,2.3,1,2.5,2.4
		c0.1,1-0.2,1.8-1.2,2.3C204.8,522.7,204.2,522.5,202.7,520.6z"/>
	<path fill="none" d="M212.8,513.9c1.4,0.1,2.6,1.5,2.5,2.8c-0.1,1.2-1.1,2.1-2.4,2.1c-1.5,0-2.5-1.3-2.4-2.8
		C210.6,514.8,211.6,513.9,212.8,513.9z"/>
	<path fill="none" d="M219.2,515c0.4-1.3,1.2-1.7,2.1-1.8c0.6,0.3,0.7,0.9,0.9,1.6C221.3,515.4,220.5,516.3,219.2,515z"/>
	<path fill="none" d="M799.5,223.4c0.7,0.6,1.3,1,2,1.5c-0.1,0.5-0.2,1-0.3,1.4c-1.2,0.5-2-0.8-3-0.4c-0.8,0.1-0.8,1.1-1.6,1.4
		c-0.2-1.8-0.6-3.5,1-5c1.3-0.5,2.6-0.2,4.2,0C801.3,223.6,800.3,222.7,799.5,223.4z"/>
	<path fill="none" d="M795,223.1c-0.2-1.6,1-2.2,2-2.8c1.5,0,2.9,0,4.3,0C798.6,220,796.8,221.5,795,223.1L795,223.1z"/>
	<path fill="none" d="M206.1,313.1c0.5-0.6,1.3-0.2,1.5-0.6c0.6-1.2-0.7-1.3-0.6-2c0.9-1.1,1.8-0.7,2.7-0.1c1.2,0.9,1.3,2.7,0.4,3.7
		C209.1,315.4,207.9,315.1,206.1,313.1z"/>
	<path fill="none" d="M218.8,309.2c-0.1,1.2-1.1,2.1-2.3,2.1c-1.5,0-2.6-1.2-2.5-2.7c0.1-1.3,1-2.2,2.2-2.2
		C217.6,306.5,218.8,307.9,218.8,309.2z"/>
	<path fill="none" d="M225.7,307.4c-1.2,0.7-2.1,1.5-3-0.1c0.3-1.1,1.1-1.5,2-1.6C225.5,306,225.5,306.6,225.7,307.4z"/>
</g>
</svg>
