<?xml version="1.0" encoding="utf-8"?>
<!-- Generator: Adobe Illustrator 20.0.0, SVG Export Plug-In . SVG Version: 6.00 Build 0)  -->
<svg version="1.2" baseProfile="tiny" id="Layer_2" xmlns="http://www.w3.org/2000/svg" xmlns:xlink="http://www.w3.org/1999/xlink"
	 x="0px" y="0px" viewBox="0 0 900 600" xml:space="preserve">
<g>
	<path d="M127.6,352.3c2,1.1,3.9,2.3,5.9,3.4c0.6-0.5,0-0.8-0.3-1.1c-2.4-2.7-5.2-5.1-8.4-6.8c-4.4-2.4-8.8-4.4-13.9-5l0.1,0.1
		c-0.5-0.7-1.1-0.7-1.6,0l0.1-0.1c-4-1.4-8.1-2.7-12.1-4.1c-0.1,0-0.1-0.2-0.1-0.3l-0.1,0.1c3.7,0.7,7.3,1.4,11,2.2
		c4.6,1.1,9.1,2.3,13.5,4.1c5.4,2.4,10,5.8,13.7,10.4c1.2,1.5,2.3,3.1,2.8,5c0.1,0.6,0.1,1.2,0.3,2.5c-1.9-3.3-4.4-4.8-6.9-6.1
		c-4.5-2.3-9-4.6-13.6-6.8c-4.1-1.9-8.4-2.8-13-2.9c-7.4-0.1-14.7,0.4-22.1,1.3c-2.5,0.3-5,0.7-7.6,0.8c-3.8,0.1-7.4,1.1-11,1.9
		c-5.7,1.4-11.3,2.4-17.2,2.2c-1.1,0-2.2,0.1-3.2,0.3c-3.6,0.5-7.3,0.4-10.9-0.1c-5-0.7-9.4-3-13.4-6.1c-1.1-0.9-2.1-2-2.3-3.6
		c-0.3-1.7,0-2.9,1.4-5.3c0.3,1.3-0.2,2.3-0.2,3.2c0,0.5,0.2,0.9,0.4,1.3c0,0.1,0.2,0.2,0.3,0.2c0.2,0,0.6-0.1,0.6-0.2
		c0.2-0.5,0.3-1.1,0.4-1.7c0.2-0.9,0.2-1.9,1.4-2.6c0,1.2,0,2.2,0,3.2c0,2.8,1.3,4.9,3.8,6.1c2,1,4.1,2.2,6.5,1.8l0.1,0.2l-0.1-0.1
		c-0.7-0.5-1.4-1-2-1.5c-4.3-3.2-6-7.6-4-13.9c0.4-1.1,1-2.2,1.6-3.2c0.5-0.9,1.2-1.8,2.1-3c-0.9,0.2-1.5,0.3-2,0.4
		c-4.8,1.4-8.8,4-12.2,7.5c-3.6,3.7-5.1,8.1-4.6,13.2c1.1,1.3,2.6,1.9,4,2.5c3.4,1.4,6.9,2.1,10.5,2.4c6.3,0.6,12.6,0.6,18.8,0.7
		l-0.1-0.1c-0.3,0.2-0.6,0.5-0.9,0.5c-7.9,0.4-15.7,1-23.5-0.6c-2.2-0.5-4.4-1.3-6.5-2.1c-1.2-0.5-2.4-1.2-3.4-2
		c-3.7-2.7-5.4-5.5-3.6-11.5c1.2-4,3.9-6.9,7.6-8.8c0.9-0.4,1.7-0.8,2.7-1.3c1.5-4.6,5.2-6.7,9.4-8.3c0.8-0.3,1.5-0.6,2.4-1
		c-1.5-2.9-2.8-5.5-4.2-8.2c-1-2.2-2.1-4.4-2.9-6.6c-1.2-3.3-2.1-6.7-3.2-10c-0.1-0.5-0.2-1-0.5-1.4c-1.5-2.2-1.2-4.6-1-7
		c0.4-3.8,0.9-7.7,1.3-11.5c0.2-1.8,0.7-3.5,1.6-5.2c1.3-2.4,2.6-4.9,3.8-7.4c1-2.3,2.6-4.1,4.6-5.4c1.5-1,3-2,4.6-2.9
		c0.6-0.4,1.2-0.8,1.9-1c6.7-2.4,13.1-5.6,19.4-9.1c1.3-0.7,2.6-1.1,4.1-1c1,0.1,1.9,0.1,2.9,0.1c2,0.1,3.7-0.4,5.4-1.5
		c2.9-1.9,5.8-3.9,8.3-6.4c1.6-1.6,3.5-3,5.2-4.5c1.2-1,2.9-1,3.8,0.2c1.2,1.6,2.2,3.4,3.6,5.7c0.7,0.6,2,0.2,3.3-0.3
		c0.4-0.2,0.8-0.5,1.2-0.8c1.3-0.8,2.5-0.7,3.7,0.4c0.4,0.4,0.9,0.8,1.5,1.3c1.4-0.8,2.5-2.2,4.3-2.3c1.7-0.1,3,0.8,4.5,1.6
		c2.9-1,5.8-2.2,9.1-2c2.5,1.7,4.1,4,4.9,6.9c0.3,1.1,0.7,2.1,0.8,3.2c0.1,3.1,1.4,5.9,1.7,8.9c0.1,0.9,0.6,1.6,1.2,2.2
		c2.2,2.1,4.4,4.2,6.7,6.1c2,1.6,4.1,2.9,6.2,4.4c1.9,1.4,4,2.5,6.2,3.6c2.8,1.4,5.6,2,8.7,1.8c0.8-0.1,1.7-0.1,2.5,0
		c0.5,0.1,1,0.6,1.6,0.9c1.8-0.7,3.4-2,4.9-3.3c3.7-3,7.5-5.7,11.7-7.9c1-0.5,1.9-1.1,2.7-1.8c4-2.9,8-5.9,11.9-8.9
		c2.6-2,5.1-4,7.7-6.1c1.1-0.9,2-2.1,2.8-3.2c1.6-2.2,3.4-4.3,5.9-5.7c3.6-2,7.2-4.1,10.6-6.3c5.3-3.5,11.2-4.9,17.4-5.5
		c0.1,0,0.2,0,0.4,0c6.5-0.7,12.5,0.8,18.1,4.1c0.4,0.2,0.8,0.5,1.3,0.7c4.4,1.9,7.4,5.4,10.3,9c1.6,2,2.1,4,2,6.8
		c0.3,0.2,0.7,0.5,1.1,0.7c3.4,1,6.8,1.8,10.3,1.4c4.6-0.5,9.2-0.8,13.7-1.2c1.8-0.2,3.6-0.1,5.4,0.2c8.3,1.4,16.1,4.4,23.8,7.4
		c4.1,1.6,8.4,2.5,12.7,2.7c6,0.3,12.1,0.1,18.1,0c1.1,0,2.2-0.2,3.2-0.5c6.7-1.7,13.5-2.5,20.4-3.2c3.2-0.4,6.5-0.3,9.7-1.3
		c1.2-0.4,2.6-0.3,4-0.3c5.6-0.3,11-1.3,16.5-2.1c3.5-0.6,7-0.5,10.5-0.1c4.5,0.5,8.9,0.8,13.4,0.2c0.7-0.1,1.4-0.1,2.2-0.2
		c6.4-0.2,12.8-1.1,19.1-1.7c8.5-0.8,17.1-0.9,25.7-0.5c7.4,0.3,14.7,1,22,2c9.2,1.2,18.4,2.9,27.6,4.5c8.5,1.4,16.8,3.5,25.1,5.9
		c5,0.4,9.5,2.8,14.4,3.5c0.4,0.1,0.7,0.2,1.1,0.2c6,0.3,12,1.5,18.1,1.2c5.2-0.3,10.4,0.5,15.5,1.6c2.2,0.5,4.5,0.8,6.8,1.3
		c1.4,0.3,2.8,0.7,4.1,1.4c6.3,3.6,13.1,6.3,19.6,9.3c3.8,1.8,7.9,2.3,12,2.7c10.4,1,20.6,2.9,30.8,4.8c8.3,1.5,16.6,3.1,24.9,4.8
		c7,1.4,13.9,3.1,20.9,4.7c2.6,0.6,5.2,1.1,7.8,1.7c3.7,0.9,7.4,1,11.2,1c6.4,0,12.8,0,19.2,0c6.6,0,13-1,19.4-2.6
		c1.2-0.3,2.4-0.4,3.6-0.5c1.3-0.1,2.6-0.1,3.9-0.2c1.2-1.7,0.2-3.5,1-5.4c1.5-1,3.5-1.5,5.5-1.7c1.1-0.1,2.2,0,3-0.9
		c0.1-0.2,0.4-0.2,0.7-0.3c3.5-0.6,6.6-2.3,9.8-3.8c2.5-1.2,5.2-1.9,7.7-3.2c3.4-1.7,6.8-3.7,10.1-5.6c1.9-1.1,3.4-2.6,4.5-4.6
		c1.3-2.6,2.9-5,4.4-7.5c1.2-2,2.8-3.3,5.2-3.3c0.4,0,0.7-0.1,1.1-0.1c5.8-0.8,5.8-0.8,11.2,1.1c1.1,2.1,2.1,4.1,3.3,6
		c1.5,2.5,1.8,5.3,2.1,8c1,7.1,0.9,14.2,0,21.4c-0.2,1.5-0.6,3-1,4.7c1.9,0.1,3.6-0.4,5.1-1.4c4.1-2.8,8.2-5.6,12.3-8.3
		c1.3-0.9,2.9-1.2,4-2.4c1.1-1.1,2.3-2.2,3.6-3.4c3-0.3,5.9,0.4,8.9,1.5c3,1.1,5.2,2.9,7.1,5.3c0.4,0.6,0.9,1.2,1.1,1.9
		c0.9,3.5,1.9,7,2.5,10.6c1.9,10.5-0.2,20.2-6.4,28.9c-0.3,0.5-0.7,1-1.2,1.4c-4.6,4.2-9.1,8.3-13.7,12.4c-6.3,5.6-13.9,8.7-22,10.6
		c-0.2,0.1-0.5,0.1-0.7,0.1c-1.9,0.3-3.9,0.4-5.7,1.1c-1.6,0.6-3.1,1.9-4.5,2.9c-4.2,3-9,3.1-13.9,3.1c-0.4,0-0.8,0-1.1-0.2
		c-2.3-1.3-4.8-1.3-7.3-1.8c-1.6-0.3-3-0.9-4.2-2c-0.5-0.4-1.2-0.8-1.9-1c-1.7-0.3-3.3-0.6-5-0.6c-4-0.1-6.9-1.8-8.8-5.6
		c-0.7-0.1-1.5-0.2-2.4-0.3c-2.8-0.3-5.5-0.5-8.3-0.7c-1.2-0.1-2.4-0.2-3.6-0.2c-3.3,0.1-6.5,0.2-9.8,0.3
		c-8.1,0.2-16.2,0.4-24.3,0.7c-4.1,0.1-8.2,0.4-12.3,0.6c-0.7,0-1.5,0.1-2.1,0.4c-2.3,0.9-4.7,1-7.1,1.1c-8.2,0.3-16.4,0.5-24.7,0.9
		c-3.7,0.2-7.5,0.5-11.2,0.8c-7.5,0.7-15,0.4-22.5,0.2c-1.6-0.1-3.1-0.2-4.7-0.3c-9.8-0.2-19.5-1.6-29.1-3.7c-2-0.4-4-1-6-1.6
		c-1.3-0.4-2.6-0.7-3.6-1.7c-0.4-0.4-1-0.6-1.6-0.8c-7.5-2.7-15.1-5.3-22.8-7.2c-0.7-0.2-1.4-0.3-2.1-0.3c-10-0.3-20.1-0.9-30.1-0.5
		c-3.1,0.1-6.3,0.3-9.4,0.3c-3.6,0-7,0.7-10.3,1.8c-2.4,0.8-4.8,1.7-7.4,0.9c-0.6-0.2-1.4,0.2-2.1,0.3c-8.2,2.1-16.5,3.5-24.9,4.5
		c-6.8,0.9-13.7,1.7-20.6,1.9c-8.5,0.3-16.9,0.2-25.4,0.1c-8.3-0.2-16.7-0.6-25-1.1c-2.8-0.2-5.5,0.5-8.3,0.7
		c-3.7,0.3-7.5,0.8-11.2,1.2c-0.3,0-0.7,0.2-1.1,0.4c0.2,0.3,0.4,0.8,0.5,0.9c1.4,0.1,2.8,0.5,4.3,0c1.7-0.6,3.4-0.4,4.9,0.4
		c0.5,0.3,1,0.7,1.4,1.1c0.6,0.6,0.5,1.9-0.2,2.2c-1.9,0.8-2.8,2.6-4.2,4c-0.9,0.8-1.8,1.7-2.6,2.5c-1.4,1.5-2.8,3-4.3,4.4
		c-1.2,1.2-2.4,2.3-3.8,3.3c-1.6,1.1-3.2,2-4.5,3.6c-1,1.3-2.8,1.5-4.3,1.7c-2.3,0.4-4.6,0.7-6.9,0.7c-5.9,0-11.8,0-17.7-0.6
		c-0.9-0.1-1.8-0.5-2.7-0.9c-2.9-1.5-5.8-3-8.6-4.6c-2.5-1.5-5.3-2.4-8.1-2.9c-3.7-0.7-7.4-1.4-11-2c-1-0.2-1.9-0.3-2.9-0.3
		c-4.7,0-9.4-0.6-14.1-0.2c-5.5,0.4-11.1,0.7-16.7,0.6c-5.1,0-10.1-0.5-15.2-0.9c-4.8-0.4-9.6-1.1-14.4-1.6c-0.5-0.1-1,0-1.4-0.2
		c-3.7-1-7.4-0.8-11.1-0.1c-3.5,0.6-7-0.1-10.4-1c-4.6-1.1-8.9-2.8-12.9-5.6c-1.4-1-3.2-1.6-4.9-2.3c-1-0.5-2.1-0.5-3.2-0.1
		c-4.5,1.4-9.1,1-13.6,0c-2.4-0.5-4.7-0.7-7.2-0.5c-5.2,0.5-10.4,0.4-15.6-0.2c-3.1-0.3-6.3-0.5-9.4-0.9c-7.1-0.8-14.1-1.8-21.1-3.3
		c-3.4-0.7-6.9-1.7-10.3-1.8c-5.2-0.1-10-1.8-14.8-3.1c-1.2-0.3-2.3-0.8-3.4-1.3c-1.2-0.5-2.4-1.1-3-2.4c-0.3-0.7-1.2-1.1-1.9-1.7
		c-3.1-2.7-6.1-5.5-8.3-9c-1.6-2.6-3.1-5.2-3.7-8.2c-0.1-0.5-0.3-0.9-0.5-1.4c-2.6-1.1-5.3-1.6-8-2.4c-1.7-0.5-3.5-0.9-5.3-1.3
		c-0.9-0.2-1.9-0.3-2.9-0.2c-1.6,0-3.1,0.2-4.7,0.3c-1.4,0.1-2.6,0.5-3.5,1.6c-1,1.1-2.1,2.3-3.3,3.5c0.5,0.3,0.7,0.6,1,0.7
		c4.2,0.4,8,1.8,11.7,3.7c2.8,1.4,5.5,3.1,8.2,4.7c1.7,1,3.1,2.4,3.6,4.4c0.1,0.5,0.1,1-0.5,1.2l0.1,0.1c-1.1-2.9-3.5-4.3-6.2-4.9
		c-9.4-2.3-18.7-2.4-27.7,2.1c-0.5,0.3-1.1,0.4-1.7,0.6c0,0,0.1,0.1,0.1,0.1c0.2-0.4,0.3-1,0.6-1.1c1.6-0.9,3.1-1.8,4.8-2.5
		c1.5-0.6,3.1-1.1,4.5-2.2c0.6-0.5,1.5-0.7,2.4-0.7c2-0.1,4.1-0.1,6.2-0.2c1.3,0,2.7,0,4.5,0c-0.9-0.6-1.3-1-1.9-1.3
		c-3.3-1.3-6.6-2.4-10.2-2.4c-1.2,0-2.4,0.3-3.6,0.3c-0.7,0-1.3-0.1-2.7-0.3c1.2-0.7,1.8-1,2.4-1.3c0.5-0.2,1.1-0.3,1.8-0.5
		c0.2-1,0.4-1.9,0.6-2.7c1.5-1.2,2.9-2.4,4.3-3.5c2.9-2.2,5.9-3.7,9.7-3.5c1.8,0.1,3.8,0.3,5.2,1.3c1.8,1.4,3.8,1.5,5.8,1.7
		c0.2,0,0.5,0,0.8,0c0.1-0.3,0.3-0.6,0.3-1c0.2-5.8,1.5-11.2,4-16.4c1.2-2.5,2.7-4.8,3.5-7.5c0.3-1,1.1-1.9,1.8-2.7
		c2.2-2.8,4.9-4.9,7.8-7c1.3-0.9,2.6-1.7,3.8-2.6c-0.6-1-1.4-0.8-2-0.9c-3.8-0.7-7.6-1.2-11.1-3.1c-1.3-0.7-2.6-1.3-3.4-2.6
		c-0.4-0.7-1.2-1.1-1.9-1.6c-1.5-1-3-2-4.5-3c-2.3-1.5-4.5-3.3-6.3-5.4c-0.8-1-1.6-2.1-3-2.4c-0.4-0.1-0.9-0.8-1.1-1.3
		c-0.4-1.3-0.9-2.6-0.7-3.9c0.3-2.3-0.4-4.3-0.9-6.4c-0.3-1.4-0.7-2.8-0.9-4.3c-0.2-1.4-0.8-2.5-2-3.4c-2.1-0.2-4.2-0.3-6.3,0.8
		c-1.5,0.7-3,0.7-4.5,0c-0.9-0.4-1.8-0.7-2.7-0.8c-0.8-0.1-1.7,0.2-2.4,0.5c-1,0.4-1.4,1.4-0.9,2.4c0.3,0.5,0.8,0.9,1.1,1.4
		c0.4,0.7,0.7,1.5,0.8,2.3c0.1,0.6-0.2,1.3-0.9,1.3c-0.5,0-1.3-0.3-1.5-0.7c-0.5-0.9-0.7-2-1.1-3c-0.3-0.8-0.5-1.6-0.8-2.4
		c-0.8-1.8-1.9-2.3-3.8-1.6c-1.2,0.5-2.4,1-3.6,1.5c-0.7,1.3,0.5,3.1-1.6,3.9c-0.8-0.7,0-1.8-0.5-2.6c-0.5-0.8-1-1.7-1.4-2.5
		c-0.4-0.9-0.8-1.8-1.2-2.6c-0.5-1-1-1.9-1.6-2.8c-0.2-0.3-0.7-0.5-1.2-0.8c-0.9,1.1-1.6,2.2-2.5,3.2c-0.9,1-1.8,1.9-2.8,2.8
		c-1.9,1.8-4,3.5-6.1,5.1c-3.4,2.7-7.2,3.2-11.3,2.5c-0.6-0.1-1.2-0.2-2-0.3c-2.7,2.4-6.3,3.3-9.6,4.6c-4.7,1.9-9,4.6-13.5,7.1
		c0.1,0.7,0.3,1.3,0.4,2c-0.6,0.7-1.3,1.5-2,2.3c0.7,0.6,1.2,1.1,1.6,1.5c-0.1,0.3-0.1,0.6-0.3,0.8c-2.8,2.5-4.3,5.7-5.5,9.2
		c-1.5,4.6-2.6,9.3-2.6,14.2c0,3-0.2,6,1.1,9.4c-2.2-3.2-2.9-6.9-2.9-11.6c0-4,0.7-7.9,1.8-12.4c-2.3,2.2-2.5,5-4.4,7.5
		c0.1-1.3,0-1.8,0.2-2.3c0.8-2.1,1.6-4.3,2.5-6.4c0.7-1.8,1.6-3.5,2.3-5.3l0.2-0.2l-0.1,0.2c-0.2,0.1-0.5,0.1-0.7,0.2
		c-3.1,3.3-4.8,7.1-5.3,11.6c-0.3,3.3,0.1,6.5,0.1,9.7c0,2.3,0.5,4.5,1.4,6.7c1.6,4,3.5,8,5.3,11.9c1.6,3.5,3.3,7,4.7,10.6
		c0.5,1.3,1.4,2.6,2.2,3.7c3.4,4.9,7.7,9,12.5,12.6c0.3,0.3,0.7,0.7,1.3,0.4c0.2-0.9-0.6-1.2-1-1.7c-5.8-7.1-10.2-15-14.4-23.1
		c-0.2-0.4-0.2-0.9-0.3-1.4l-0.1,0.1c1,0.1,1.2,1.1,1.7,1.7c3.9,6,7.7,12,11.6,18c0.7,1,1.4,2,2.2,2.9c0.3,0.3,1,0.3,1.9,0.6
		c1.3,3.3,3.7,6,7.4,7.3c0.1,0.3,0.1,0.4,0.1,0.5c-0.1,0.2-0.3,0.4-0.5,0.7c0.6,0.6,1.3,1.2,2,1.8c-0.3,0.2-0.4,0.4-0.6,0.4
		c-2-0.2-3.6-1.3-5-2.6c-1.3-1.2-2.6-2.2-4.3-2.4c-0.5-0.1-0.9-0.3-1.4-0.5c-0.9-0.4-1.7-1.1-2.6-1.3c-1.2-0.3-2.4-0.2-3.5-0.2
		c-3,1.2-3.6,4-4.6,6.5c-0.9-0.1-0.8-0.7-0.7-1.1c0.4-1.6,0.8-3.3,1.3-4.9c0.5-1.6,1.6-2.7,3.5-3.1c-1.2-1.3-2.6-2.2-3.9-3.2
		c-1.3-0.9-2.5-0.9-3.7,0.1c-2.7,2.4-4.6,5.3-5.1,8.9c-0.6,4.2,0.9,7.7,4.4,10.1c5.7,3.9,11.9,5.2,18.6,3c0.2-0.1,0.2-0.4,0.5-0.7
		c-1-0.5-1.9-0.9-2.8-1.4c-2.6-1.4-4.9-3.2-6.7-5.5c-0.5-0.7-1.1-1.3-0.9-2.3l-0.1,0.1c0.5,0.5,1.1,0.9,1.5,1.4
		c4.3,4.9,9.8,7.3,16.1,7.9c1.2,0.1,2.4-0.1,3.6-0.3c3.3-0.8,6.5-1.7,9.8-2.5c3.2-0.7,6.3-1.4,9.4-2c0.4,0.5,0.6,1.1,0.9,1.2
		c0.5,0.2,1.2,0.1,1.8,0c3-0.3,6-0.7,9-1c5.8-0.6,11.6-0.6,17.3-0.2c3.6,0.2,7,1.5,10.4,3c1,0.4,2,0.9,3,1.3l-0.1-0.1
		c0.5,0.3,1,0.5,1.6,0.8l-0.1-0.1c0.5,0.3,1,0.5,1.5,0.8l-0.1-0.1C126.2,351.4,126.9,351.9,127.6,352.3L127.6,352.3z M419.5,353
		c1.3,0,2-0.8,2.7-1.9C420.1,351.2,420.1,351.2,419.5,353c0,0.1-0.1,0-0.2,0.1c-0.1,0-0.1,0.1-0.1,0.2
		C419.3,353.2,419.4,353.1,419.5,353z M415.2,369.2c-1.9,0.3-3.5,1.2-5.1,2.6c1.7,0.4,2.9,0.1,3.8-1
		C414.3,370.3,414.7,369.7,415.2,369.2l0.1-0.3L415.2,369.2z M189.3,295.2c0.7,0.2,1.5,0.3,2,0.7c1.7,1.4,3.3,2.9,4.9,4.3
		c0.5,0.5,1.2,1.4,1.6,1.3c1.6-0.4,2.4,0.9,3.6,1.3c6.9,2.1,13.8,4.4,20.7,6.6c0.6,0.2,1.3,0.6,2.2-0.1c0-1.7,0-3.5,0.1-5.3
		c0.2-3.9-1.1-7.1-3.6-10c-2.4-2.7-4.8-5.5-7.4-7.9c-11.7-10.9-25.4-14.5-40.9-10.9c-7.2,1.6-13.4,5.4-19.6,9.2
		c-2.9,1.8-5.4,4.1-7.7,6.6c-2.3,2.5-4.3,5.2-5.3,8.6c-0.1,0.3-0.3,0.7-0.5,1c-0.1,0.2-0.3,0.4-0.8,0.9c0.4-3.5,1.6-6.1,3.2-8.5
		c1.9-2.7,4.1-5.1,6.6-7.2c5-4.2,10.5-7.7,16.5-10.4c8.7-3.9,17.8-4.7,27-2.7c11.1,2.4,20.5,7.8,27.3,17.2c1.1,1.6,2.5,3,3.7,4.4
		c1.8,2,3.3,4.2,3.6,7c0,0.3,0.3,0.6,0.4,0.9c3.2-0.7,6.1-0.1,8.8,1.7c-3,0-6,0.1-9,0.1c-0.3,2.3-0.7,4.4-1,6.5
		c0.5,0.2,0.8,0.5,1.1,0.6c9.6,2.8,19.2,5.8,28.9,8.4c3,0.8,6.1,1.2,9.3,0.6c0.4-4.7,0.9-9.3,1.3-13.8c0.4-4.2,0.8-8.4,1.3-12.6
		c0.4-4.1,0.8-8.2,1.2-12.3c0.8-8.5,1.9-17.1,1.8-25.7c0-1.8,0.2-3.6,0.2-5.4c0-0.6,0-1.1,0-1.7c-1.9-0.2-3.6-0.4-5.3-0.5
		c-1.3-0.1-2.2-0.6-3.2-1.4c-1.2-1-1.8-2.3-2-3.7c-0.3-1.8-1-3.5-2-5c-1.7-2.6-3.9-4.6-6.5-6.2c-3-1.8-6.2-3.4-9.6-4.2
		c-2.1-0.5-4.3-1-6.4-1c-6.1,0.1-12,1.3-17.6,3.9c-6.2,2.9-11.7,6.8-17.4,10.5c-0.5,0.3-0.9,0.8-1.3,1.2c-3.8,4.7-8.4,8.3-13.3,11.7
		c-7,4.9-14.1,9.8-21.2,14.7c-1,0.7-2.1,1.1-2.1,2.7c0,0.5-0.8,1.2-1.4,1.6c-2.1,1.5-4.2,2.8-6.3,4.3c-3.1,2.1-6.2,4.2-9.3,6.4
		c-1.1,0.8-1.9,1.8-2.5,3c-1.8,3.7-3.7,7.4-5.5,11c-1.7,3.3-2.8,6.7-3.5,10.3c-0.3,1.8-0.3,3.6-0.2,5.4c0,0.4,0.6,0.9,1.1,1.6
		c0.4-0.7,0.7-1.1,0.8-1.6c0.4-2,0.8-4,1.1-6.1c0.1-1,0.5-1.8,1.3-2.5c0.5-0.3,1.4-0.2,1.5,0.4c0.2,0.6,0.3,1.2,0.3,1.7
		c-0.1,1.4-0.4,2.9-0.6,4.3c-0.6,4.8-0.1,9.4,2.7,13.6c2.1,3.1,4.3,6.2,6.5,9.1c1.5,1.9,3.2,3.7,4.7,5.5c0.8,0.9,1.8,1.5,3,1.9
		c4,1,7.9,2.3,12.1,2.1c0.8,0,1.7,0,2.5,0.2c8.6,1.7,17.3,1.8,26,2.6c4.8,0.4,9.7,0.6,14.5,1.1c2.6,0.2,5.3,0.8,7.9,1
		c2.8,0.2,5.6,1.5,8.6,0.3c0.5-0.2,1.2,0.2,1.8,0.3c3.9,0.9,7.9,1.2,11.9,1.1c0.5,0,1.2,0.2,1.5-0.5c-0.8-1.1-2.6-0.8-3.2-2.5
		c0.5,0,1-0.2,1.4-0.1c5.9,1.7,11.8,3.5,17.7,5.3c0.4,0.1,1,0.4,1.2,0.7c0.8,1.5,2.2,1.8,3.6,2.1c2.5,0.5,4.9,1.1,7.5,1.5
		c4.2,0.6,8.4,1.1,12.6,1.6c2.3,0.3,4.6,0.5,6.9,0.6c3.4,0.1,6.8,0.1,10.1,0.1c4,0.1,8,0.3,12,0.4c8,0.2,16,0.2,23.9,1.6
		c3.5,0.6,7,0.5,10.5,0.3c3.6-0.2,7.3,0,10.8,0.9c3.1,0.8,6.1,1.3,9.2,1.8c1.3,0.2,2.7,0.4,3.8,1c4.8,2.5,9.6,5.1,14.4,7.6
		c0.6,0.3,1.3,0.7,2,0.9c2.1,0.6,5.8,0.3,8.8-0.7c-1.6-0.1-2.9-0.2-4.2-0.3c-1.2-0.2-2.6,0.4-3.9-1.2c2-0.1,3.7-0.2,5.4-0.1
		c3.1,0.2,6.3,0.4,9.4,0.8c1.8,0.2,3.3,0,4.8-0.9c2.1-1.3,4.2-2.4,6.4-3.5c1.2-0.6,2.2-1.5,3.1-2.4c3.4-3.4,6.1-7.5,10.1-10.3
		c0.1-0.1,0.1-0.4,0.2-0.8c-0.7-0.3-1.5-0.6-2.2-0.9c-1.4,0.7-2.7,1.4-4,2c-2,0.9-3.8,2-5.4,3.6c-1,1-2.4,1.6-3.6,2.3
		c-2.9,1.5-6,1.7-9.1,1.8c-0.7-0.3-1.1-1.3-2.1-1.2c-2.3,0.2-4.5-0.5-6.8-0.8c-0.2,0-0.4-0.2-0.8-0.4c-0.1-0.3-0.3-0.8-0.4-1.3
		c-0.8-0.4-1.7-0.8-2.5-1.3c-2.5-1.5-5-2.9-7.5-4.4c-1.3-0.8-2.6-1.1-4.1-1.1c-1,0-2.1,0.3-3.4-0.7c3.1-0.3,5.7-0.4,8.3,0.2
		c2,0.5,3.9,1.2,5.9,1.7c3.5,0.9,7,0.8,10.3-0.5c2.8-1.1,4.4-3.2,5.1-6c-5.1-1.3-10-2.5-14.9-3.8c-0.3-0.1-0.7-0.2-1.1-0.2
		c-1.6,0.3-2.8-0.5-4-1.3c-4-2.5-8.1-1.8-12.2-0.4c-2,0.7-3.9,1.8-5.9,2.8c-2.4,1.2-4.7,2.4-7.6,3.8c-2.2,0.2-4.7-0.7-7.1-1.8
		c-2.4-1.1-5-1.9-7.5-2.5c-1.3-0.3-2.6-0.7-3.8-1.1c-7.5-2.6-15.1-5.2-22.6-7.8c-5.3-1.8-10.5-3.6-15.8-5.2c-4-1.2-8.1-2.4-12.3-2.4
		c-0.8,0-1.7-0.3-2.5-0.5c-1.5-0.4-3-0.8-4.6-1.2c-4.2-1.1-8.4-1.9-12.8-1.9c-5.1,0-10.1-0.4-15.1-1.1c-7.8-1.1-15.5-2.8-23-5.2
		c-6.9-2.2-13.7-4.6-20.6-7.1c-9-3.2-18-6.3-27.4-8.4c-0.6-0.1-1.1-0.3-2.2-0.6c1-0.5,1.5-0.9,2-1c2.7-0.2,5.3,0.5,7.9,1
		c0.5,0.1,1.1,0.1,2.2,0.1C192.7,298.5,191.2,296.7,189.3,295.2L189.3,295.2z M401.4,311L401.4,311c-0.1,1.2-0.1,2.5-0.1,3.9
		c0.7,0.1,1.1,0.3,1.6,0.3c3.9-0.2,7.9-0.5,11.7-0.8c0.6-0.8,1-1.3,1.4-1.9l-0.1-0.1c0,0.6,0,1.2,0,1.9c1.1,0.2,2.2,0.4,3.5,0.6
		c-1.9,0.2-3.5,0.7-5.1,0.5c-4.6-0.7-9,0.5-13.3,0.7c-0.5,0.8-0.9,1.4-1.3,1.9l0.1,0.1c-0.1-0.6-0.1-1.2-0.2-1.9
		c-3.4-0.3-6.6,0-9.9-0.1c-3.2-0.1-6.4-0.3-9.8-0.5c-0.9,2.3-1.8,4.6-2.5,6.9c-0.7,2.3-1,4.7-1.5,7.1c-0.4,2.3,0.7,4.7-0.7,7.3
		c-0.5-0.6-0.9-0.9-0.9-1.3c-0.2-0.7-0.2-1.4-0.2-2.2c0.1-4.3,1.1-8.4,2.4-12.4c0.7-2.2,1.4-4.4,1.9-6.6c1-4.1,1.7-8.3,2.7-12.4
		c1.4-5.4,2.8-10.8,4.4-16.1c1.9-6.2,2.3-12.6,2.1-19c0-0.7-0.3-1.3-0.5-2.1c-3.6,0.2-7.1,0-10.6,0.7c-3.5,0.8-7,1.5-11,2.3
		c1.8-1.5,3.5-2.1,5.2-2.6c1.7-0.5,3.5-0.8,5.3-1.1c1.9-0.3,3.8-0.4,5.8-0.6c1.8-0.1,3.6,0.2,5.5-0.1c0.5-1.9,0.1-3.7,0.1-5.5
		c0-1.9-0.1-3.8-1-5.4c-6.1,0.6-12,1.1-17.9,1.7c-5.8,0.6-11.6,1-17.2,2.5c-1.6,0.4-3.3,0.6-5,0.6c-4,0.1-8,0-12-0.1
		c-4.1-0.2-8.2-0.5-12.3-0.8c-0.4,0-0.7-0.1-1.1-0.2c-2.1-0.6-4.2-1.1-6.3-1.7c-4.7-1.5-9.4-3.1-14.1-4.7c-4.5-1.5-9.1-2.2-13.9-1.9
		c-4.1,0.2-8.2,0.3-12.3,0.4c-0.7,0-1.4,0.2-2,0.3c-0.1,0.5-0.2,0.7-0.1,0.9c0.6,7.6,0.6,15.2-0.2,22.8c-1.1,10.3-1.7,20.7-3.7,30.9
		c-0.5,2.5-0.8,5-1,7.5c-0.3,2.4-0.5,4.8-0.7,7.2c0,0.6,0,1.1,0,1.7c0.6,0.1,0.9,0.3,1.3,0.3c2.2-0.2,4.3-0.1,6.5,0.3
		c0.6,0.1,1.2,0.2,1.8,0c1.6-0.5,3.1,0,4.6,0.4c3.6,0.9,7.3,1.9,10.9,2.6c8.1,1.4,16.1,3.3,23.9,6c0.9,0.3,1.9,0.7,2.8,0.6
		c4.9-0.3,9.9,0.4,14.8-0.4c2.3-0.4,4.6-0.3,6.8,0.4c2.2,0.6,4.4,1.2,6.6,1.8c3.1,1,6.2,2.1,8.8,4.2c1.7,1.4,3.5,2.1,5.5,2.6
		c2.2,0.5,4.5,1.4,6.7,1.4c2.2,0,4.5-0.8,6.7-1.4c2.5-0.8,5-0.8,7.5-0.7c2,0.1,3.8,0.6,5.4,1.9c0.9,0.7,1.8,1.1,2.9,1.3
		c1.5,0.3,3,0.8,4.6,1.2c2.9,0.8,5.8,1.6,8.9,1.7c1.2,0.1,2.4,0.4,3.5,0.6c0.4,0.8,0.8,1.4,1.1,2.1c0.5,0,0.9,0.1,1.4,0.1
		c6.4,0,12.8,0,19.2,0c1.2,0,2.4-0.2,3.6-0.3c2.3-0.2,4.6-0.6,6.8-0.6c6.9-0.2,13.8-0.5,20.7,0c0.9,0.1,1.9-0.1,3-0.2
		c1.1-4.9,2.2-9.6,3.2-14.3c0.2-1.1,0.3-2.2,0.3-3.2c0-4.8,0-9.7-0.1-14.5c-0.3-11.9,0-23.7,1.3-35.5c0.4-4,0.6-8,0.8-11.9
		c0-0.7-0.2-1.4-0.4-2.2c-3.2,0-6.2-0.1-9.2-0.1c-3.4,0-6.8,0.1-10.2,0.2c-0.5,0-0.9-0.2-2.1-0.5c6.6-1.6,12.7-0.8,18.8-2
		c0.1-4.2,0.2-8.2-0.9-12.5c-2.1,0.1-4.1-0.1-6.2,0c-8.7,0.5-17.4,0.2-26,1.9c-6.2,0.1-12.3,0.4-18.5-0.5c-3-0.4-6-0.4-9,0
		c-4.8,0.6-9.6,1.2-14.4,1.8c-0.6,0.1-1.1,0.2-1.7,0.4c2.1,6.8,2,13.6,1.3,20.3c-0.4,4.2-1.5,8.3-2.5,12.4c-2,7.8-4.2,15.7-6.3,23.5
		c-0.4,1.4-0.9,2.7-0.8,4.4c6.3,1.9,12.6,1.7,19.2,1.8c0.3-0.8,0.6-1.6,0.8-2.4C400.8,312,400.7,311.3,401.4,311z M805.8,334.3
		c-1.1,0.1-1.8-0.4-2.2-1.5c-0.9-2.4-1.2-4.9-1.4-7.5c-0.1-0.9-0.2-1.9-0.3-2.9c-1.1,0.1-1.9,0.1-2.7,0.2
		c-6.3,1.1-12.7,1.4-19.2,1.1c-5.2-0.2-10.4-0.7-15.5-1.6c-9.2-1.7-18.3-3.1-27.5-4.7c-7.4-1.3-14.8-2.6-22.1-4.1
		c-7.7-1.7-15.3-3.7-22.9-5.6c-1.3-0.3-2.6-0.7-3.9-0.4c0,0,0.1-0.1,0.1-0.1c-0.5,0.8-1.2,0.5-1.9,0.3c-5.3-1.1-10.6-2.2-16.1-2.8
		c-3.6-0.4-7.2-0.9-10.8-1.4c-9-1.2-17.8-3.1-26.7-5.2c-1.9-0.5-3.7-1-5.7-0.5c-0.6,0.2-1.4-0.1-2.1-0.3c-1.3-0.5-2.7-1.1-3.9-1.8
		c-2.8-1.6-5.7-3.2-8.4-5c-3.8-2.5-8.1-3.8-12.4-4.8c-3-0.7-6.1-1.1-9.3-1c-5.7,0.2-11.3-0.5-16.8-2.3c-1.2-0.4-2.3-0.7-3.5-1.1
		c-5.7-1.7-11.3-3.5-17.1-4.7c-13.2-2.8-26.6-5-39.9-7.2c-12.8-2-25.5-4.1-38.4-5.6c-1.8-0.2-3.6-0.4-5.3,0.1c0,0.4-0.1,0.6-0.1,0.8
		c1,4.8,1.2,9.6,0.9,14.4c-0.6,8.4-1.1,16.9-1.1,25.4c0,6.2-0.4,12.3-0.6,18.5c0,0.7-0.1,1.4-0.2,2.2c-0.9,6.2-2,12.4-3.9,18.4
		c-0.2,0.5-0.4,1.2,0.2,1.6c0.3,0.1,0.5,0.2,0.7,0.2c2.3,0,4.6,0.1,6.9,0.1c13.7,0.2,27.3-0.3,40.9-1.9c4.6-0.5,9.1-1.2,13.7-1.7
		c8.2-0.9,16.3-2.3,24.2-4.4c7.2-1.9,14.4-3,21.8-2.9c5.4,0,10.9,0,16.3,0c3.3,0,6.5,0.3,9.7,1c3.3,0.7,6.6,1.5,9.9,2.4
		c2.4,0.7,4.7,1.9,7.2,2.5c6.2,1.6,12.3,3.5,18.3,5.7c2.5,0.9,4.9,1.9,7.3,3.1c1,0.5,2,0.8,3.1,0.9c7.8,0.7,15.6,1.4,23.5,1.4
		c3.7,0,7.5,0.3,11.2,0.4c3.3,0.1,6.5,0.3,9.8,0.1c8.1-0.5,16.2-0.9,24.3-0.7c1.8,0,3.6,0,5.3-0.7c0.8-0.4,1.9-0.4,2.8-0.5
		c3.8-0.3,7.7-0.6,11.6-1c4.5-0.4,8.9-0.9,13.4-1.1c6.6-0.3,13.3-0.5,19.9-0.6c8.5-0.1,16.9-0.1,25.4-0.1c3.1,0,6.3-0.5,9.2,1.1
		c2.9,0.2,5.6,1.2,8.3,2.3c1.3-1.1,2.5-2.1,3.7-3.1c0.9-0.8,1.4-1.7,1-3.1c-1.6-1.4-3.3-2.9-4.8-4.2c-5.9,0-11.6,0-17.3,0
		c0.5-1.3,1.7-1.3,2.7-1.4c3.1-0.2,6.3-0.5,9.4-0.1c1.2,0.2,2.4,0.1,3.8,0.2c-0.9-1.9-1.7-3.5-2.4-5.1c0.4,0.1,1.1,0,1.3,0.3
		c1.9,2.8,4.8,4.4,7.6,6.1c1,0.6,2.1,1.1,3.2,1.8c0.6,0.4,1.2,0.8,1.7,1.3c1,1,0.7,2.4-0.6,3c-0.5,0.2-1.2,0.3-1.9,0.5
		c-0.7,1.8-2.1,3.1-3.9,4c-0.3,0.2-0.7,0.4-0.9,0.6c-1.1,1.5-2.7,1.8-4.4,2.1c-0.8,0.2-1.7,0.2-1.8-1.1c0-0.3-0.7-0.6-1.1-0.8
		c-1.5-0.5-3-0.6-4.7-0.4c0.4,1.5,1.9,1.6,2.6,2.5c0.9,1,2,1.2,3.3,1.3c2.4,0.2,4.8,0.4,7.4,0.7c1.4,2.3,3.9,2.3,6.3,2.6
		c1.2,0.2,2.5,0,3.6,0.4c2,0.6,4.1,0.4,6.1,0.4c1.6,0,3.1-0.1,5.1-0.2c1.6-0.8,3.7-1.9,5.3-3.6c1.5-1.5,3.2-2.3,5.1-2.4
		c3.1-0.3,6-1.7,9.2-1.7c0.4,0,0.9-0.3,1.4-0.5c5.4-2.4,10.6-5.2,15-9.3c3.6-3.4,7.2-6.8,11-10.2c0.3,0,0.8-0.1,1.3-0.1
		c1.8-0.1,3-1.1,3.6-2.7c1-2.6,2-5.2,2.6-7.9c1-4,0.9-8.1,0.8-12.2c-0.1-5.9-1.6-11.5-2.7-17.2c-0.1-0.7-0.5-1.3-0.5-1.4
		c-1.3-1.1-2.2-1.7-2.9-2.4c-1.5-1.5-3.2-2.6-5.3-2.9c-0.7-0.1-1.4-0.3-2.2-0.4c-1.1,0.8-2.4,1.4-3.2,2.8c-0.9,1.5-2.3,2.5-3.9,3.2
		c-0.6,0.2-1.1,0.5-1.6,0.8c-4,2.7-8,5.4-12,8.1c-1.3,0.9-2.7,1.6-4.3,1.8c-1.3,0.2-2.6,0.6-3.8,1c-3.2,1-6.4,2.1-9.7,3
		c-2.6,0.8-5.3,1.5-7.7,2.9c0.2,3.9,0.4,7.6,0.7,11.3c0.3,3.9,2,7.4,3.2,11c-0.8,1.1-1.8,1.3-2.7,0.7c-0.9-0.5-1.8-1.3-2.4-2.2
		c-0.9-1.5-1.7-3.2-2.2-4.9c-1.4-5-1.4-10,0.3-15c-1.8-0.3-3.1,0.6-4.5,0.9c-1.5,7.7-0.9,13.9,1.3,20.2c0.3,0.9,0.6,1.9,0.7,2.8
		c0.1,0.4-0.2,0.8-0.4,1.6c-0.7-0.6-1.2-0.9-1.5-1.4c-0.7-1.1-1.3-2.3-1.8-3.6c-2.1-5.6-2-11.4-1.3-17.2c0.1-0.6,0.6-1.1-0.2-1.8
		c-1.9,0.4-3.9,0.9-5.9,1.4c-2.1,0.5-4.1,1-6.1,1.5c0.2,0.7,0.5,1.3,0.4,1.6c-1.1,1.7-1.2,3.7-1.8,5.5
		C804.4,325,804.7,329.6,805.8,334.3z M800.5,304.3c0.1-2.2-0.6-4.2-1.4-5.5c-2.7-1.4-4.8-2.5-6.9-3.8c-1.3-0.8-2.6-1-4.1-0.6
		c-2.5,0.6-4.9,1.1-7.4,1.7c-10.5,2.6-21.1,4.2-31.9,3.8c-0.6,0-1.2-0.1-1.8,0.1c-2.9,0.6-5.8,0.3-8.7,0c-2-0.2-4.1-0.4-6.1-0.6
		c-6-0.8-12-1.5-17.9-2.6c-14.1-2.7-28.2-5.8-42.3-8.6c-7.5-1.5-15-2.8-22.4-4.2c-4.9-0.9-9.8-1.6-14.6-2.7c-4.2-1-8.5-1.8-12.5-3.7
		c-5.1-2.5-10.3-4.7-15.3-7.5c-1.3-0.8-2.9-1.3-4.4-1.7c-1.6-0.5-3.3-0.6-5-1c-3.6-1-7.3-1.8-11.1-1.5c-0.8,0.1-1.7,0-2.5-0.1
		c-4.7-0.5-9.4-0.2-14.1-1.2c-0.6-0.1-1.2-0.2-1.8-0.1c-4.5,0.4-8.6-1-12.8-2.3c-1.5-0.5-3-1.1-4.5-1.3c-9-1.7-18-3.4-27.1-5
		c-11.4-2-22.8-4.1-34.4-5.4c-6.9-0.8-13.7-1.3-20.6-1.5c-0.7,0-1.3,0.2-1.9,0.4c0.3,2.1,0.8,4,0.9,5.9c0.2,2,0.1,4,0.1,5.9
		c0.4,0.2,0.7,0.4,0.9,0.4c5.9,0,11.8,0.7,17.7,1.5c6.5,0.9,12.9,1.7,19.4,2.6c7.3,1,14.6,2.1,21.9,3.2c7.6,1.2,15.3,2.2,22.9,3.7
		c8.7,1.6,17.2,4,25.1,8.1c1.4,0.7,2.9,1,4.5,1.4c3,0.8,6,0.4,9,0.5c1.4,0,2.9,0,4.3,0.1c1.8,0.2,3.6,0.5,5.4,0.7
		c1,0.1,1.9,0.2,2.9,0.4c4.5,1.3,9,2.7,13.1,5.2c1.3,0.8,2.7,1.6,4.1,2.4c0.6,0.3,1.3,0.6,2,0.8c1.3,0.4,2.6,0.6,3.8,1
		c5.2,1.7,10.3,3.4,15.9,3.5c0.8,0,1.7,0.2,2.5,0.3c2.9,0.3,5.8,0.7,8.6,1c6.2,0.7,12.4,1.9,18.5,3.6c4.1,1.2,8.2,2.1,12.3,2.9
		c6.3,1.3,12.6,2.2,18.9,3.7c9.5,2.3,19.1,4.2,28.8,5.9c5.8,1,11.7,2,17.5,3.2c11.8,2.4,23.7,3.4,35.7,3.2c0.7,0,1.5,0.1,2.2-0.8
		c0-0.9-0.1-2.1,0-3.3c0.2-2.8,1.6-4.1,4.3-4.5c1.1-0.1,2.1-0.2,3.3-0.3c0.6-1.8,1.8-2.9,3.3-3.8
		C798.2,306.9,799.6,305.9,800.5,304.3z M805.7,314.3c-0.7-1.2-0.8-2,0.1-2.6c1.1-0.7,2.3-1.4,3.5-1.8c2.3-0.8,4.6-1.5,6.9-2.3
		c7.8-2.7,15.6-5,23.6-7c2.4-0.6,4.8-1.5,7.2-2.3c1.4-4.6,1.4-9,0.8-13.5c-0.5-4.2-1.1-8.4-1.6-12.6c-0.3-2.4-0.6-4.8-1-7.2
		c-0.3-1.9-1.5-3.3-2.8-4.5c-1-0.9-2.3-0.5-3.5-0.5c-2.4,0-4.8,0.3-6.8-0.8c-1.5,0.6-2.5,1.4-3.1,2.6c-0.5,1.1-1.3,2.1-1.6,3.2
		c-0.7,2.5-2.2,4.5-3.5,6.7c-1,1.6-2.3,2.7-4,3.5c-1.1,0.5-2.1,1.1-3.2,1.5c0.1,0.8,0.1,1.3,0.2,2c-1.7,0.5-3.8-1.2-5.2,1
		c0.2,0.3,0.5,0.7,0.6,1.2c0.4,1.4,0,2-1.4,2.4c-1.6,0.4-3.1,0.3-4.5-0.6c-0.9-0.6-1.8-0.3-2.8,0.3c1.5,2,4.4,3.1,3.3,6.4
		c-3.3-0.9-5.1-3.8-8-4.9c-2.7,0.6-5.5,1-8.1,1.8c-2.7,0.9-5.3,2.2-8.1,3.3c0,0.8,0,1.5,0,2.2c0,0.2,0.3,0.4,0.5,0.7
		c1.8-0.3,3.7-0.7,5.6-0.9c0.9-0.1,2.1-0.3,2.8,0.1c3.3,1.9,6.6,4,9.8,6.1c0.4,0.2,0.6,0.7,0.9,1.1c2,2.3,2,4.6-0.2,6.7
		c-1.1,1.1-2.5,1.9-3.8,2.8c-0.9,0.6-1.8,1.2-2.7,1.7c0.7,1.2,0.2,2-0.6,2.7c-1.3,1.1-2.8,1.3-4.4,1.4c-2.3,0.1-3,0.8-3.2,3
		c-0.1,0.8,0.1,1.6,0.1,2.7c5.2,0.3,10-1.1,14.9-1.4C803.6,317.3,803.8,315.3,805.7,314.3z M325,332.6c0.1,0.3,0.1,0.5,0.1,0.5
		c6.9,3.7,14.3,6.4,22,8c1.8,0.4,3.4,1,5.1,1.7c3.3,1.3,6.8,1.6,10.2-0.1c0.3-0.2,0.9-0.3,0.7-0.9c-2.3-0.9-4.5-1.8-6.7-2.8
		c-5.3-2.3-10.5-4.8-16.1-6.3c-1.4-0.4-2.8-0.8-4.2-0.8c-3.3,0-6.5,0.2-9.8,0.3C325.8,332.2,325.4,332.5,325,332.6z M389,354.1
		c1.6,1.1,2.5,2,3.6,2.4c2.7,1,5.2,2.5,8.2,2.7c0.8,0.1,1.7,0.3,2.5,0.6c3.5,1.1,6.6,0.4,9.4-2c0.4-0.3,0.7-0.6,1.1-1
		c0.3-0.2,0.5-0.5,0.8-0.8c1.4-1.8,2.7-3.7,4-5.6c0.2-0.3,0.3-0.6,0.6-1c-3.9-0.4-7.7-0.8-11.7-1.3c-0.3,0.6-0.7,1.3-1.2,2
		c-1.1,1.8-2.7,3-4.9,3.5c-2,0.5-4,0.8-6.1,0.7C393.5,354.4,391.7,354.3,389,354.1z M9.3,348.1c0-0.8,0-1.5,0-2.3
		c-0.1-3.2,1-5.9,2.9-8.3c0.9-1.2,2.1-2.3,3.2-3.4c0.5-0.5,0.9-1.1,1.3-1.6c-1.3-1-2.2-0.2-3.1,0.3c-2.1,1-3.9,2.3-5,4.5
		c-1.3,2.7-1.9,5.5-1.3,8.4C7.4,346.6,7.8,347.7,9.3,348.1z M29.7,322.6c-2.8,0-4.9,1.4-7,2.7c-1.2,0.7-2.4,1.4-3,2.9
		c3.4-0.4,9.5-2,12-3.1C31,324.2,30.3,323.4,29.7,322.6z M429.6,356c-0.2-0.2-0.3-0.4-0.5-0.6c-0.6,0.3-1.2,0.6-1.7,1.1
		c-3.1,3-6.3,6-9.3,9c-0.4,0.4-0.4,1-0.9,2.1c1-0.5,1.4-0.6,1.7-0.9c0.8-0.6,1.5-1.2,2.2-1.9c2.3-2.3,4.5-4.6,6.8-7
		C428.5,357.2,429.1,356.6,429.6,356z M432.3,352.5c-0.7,0-1.3,0-2,0c0.1,0.6,0.2,1.1,0.3,1.6C431.5,354,432.2,353.7,432.3,352.5z
		 M50.7,351.4c1.1,0,1.6,0,2,0c0.1,0,0.3-0.4,0.3-0.5c-0.1-0.2-0.4-0.4-0.5-0.4C52,350.7,51.7,350.9,50.7,351.4z"/>
	<path d="M73.1,337c-0.5,1.1-1.5,1.4-2.5,1.7c-1.5,0.5-3,0.9-4.5,1.1c-0.8,0.1-1.6-0.1-2.6-0.3c-0.1-1.4-0.1-2.6,0.6-3.8
		c2.9-4.7,4.6-9.8,6.3-15c0.8-2.3,1.5-4.6,2.4-7.1c0.5,2,0.5,2,0.3,2.8c-1.2,3.9-2.4,7.8-3.6,11.8c-0.1,0.4-0.2,0.9-0.5,1.9
		c3.2-2.9,4.4-6.2,5.7-9.3c1.4-3.2,2.7-6.4,3.1-10c0.1,0.3,0.2,0.5,0.2,0.8c-0.1,0.7-0.4,1.5-0.3,2.1c0.8,3.2-0.2,6.2-1,9.2
		c-0.1,0.4-0.2,0.9-0.4,1.3c0.7,0.4,1-0.1,1.2-0.4c2.1-2.8,3.9-5.8,5.1-9.1c0.5-1.2,0.7-2.6,1.7-3.5c0.2,0.3,0.5,0.5,0.5,0.6
		c-1.4,5-2.9,10-5.9,14.3c-2.5,3.7-5.6,6.6-9.8,8.3c-1.1,0.4-2.2,1-3.2,1.6c-0.5,0.3-0.8,0.8-1.2,1.4c0.8,0.9,1.7,0.6,2.4,0.5
		C69.1,337.6,71.1,337.3,73.1,337L73.1,337z"/>
	<path d="M131.9,334.1c0.8,0.5,1.6,1,2.5,1.4c0.8,0.4,1.7,0.8,2.4,1.5c-9.8-2.7-19.9-2.8-30.5-2.6c1,0.5,1.5,0.8,2,0.9
		c0.6,0.2,1.2,0.2,1.8,0.3c7,1.3,13.9,2.9,20.7,5.1c2.5,0.8,5,1.8,7.4,2.8c7.5,3.2,13.4,8.5,18.2,15c0.2,0.3,0.2,0.7,0.2,1l0.1-0.1
		c-0.4-0.2-0.9-0.3-1.2-0.6c-1-1-2-2.1-3-3.1c-6.1-6.4-13.5-10.8-22-13.5c-6.9-2.2-13.9-3.8-21-5.3c-4.3-0.9-8.5-1.7-12.8-2.1
		c-0.2,0-0.4-0.2-0.7-0.4c0.8-0.9,1.9-1,2.9-1.1c7.8-1,15.6-1.1,23.5-0.3c2.4,0.2,4.8,0.6,7.2,0.9c0.8,0.1,1.7,0.1,2.5,0.1
		L131.9,334.1z"/>
	<path d="M85.7,316.1c0.2-0.5,0.3-1.2,0.7-1.6c1.2-1.3,2.5-2.6,3.8-3.9c0.4-0.4,0.8-0.9,1.1-1.2c-0.3-0.9-0.8-1.1-1.4-0.8
		c-1.1,0.5-2,1.4-3.4,1.4c-3.2-1.3-6.4-3.1-9.4-5c-1-0.7-1.3-1.4-0.9-2.4c0.5-1.1,0.8-2.4,1.6-3.2c1.4-1.5,1.6-3.2,1.4-5
		c-0.1-1.2-0.3-2.4-0.5-3.5c0.7-0.9,1.3-0.4,1.9,0c1.6,1,1.8,1.6,1.3,3.3c-0.7,2.1-1.2,4.2-2.6,5.9c-0.4,0.5-0.7,1.3-0.9,2
		c-0.1,0.3-0.1,0.7-0.1,1.3c0.5,0.2,1.1,0.3,1.6,0.5l-0.1-0.1c0.3,0.7,1,0.7,1.6,0.8l-0.1-0.1c0.5,0.3,1.1,0.5,1.6,0.8l-0.1-0.1
		c0.9,1.3,2.1,2,3.6,2c1.5,0,2.8-0.6,3.9-1.7c0.9-0.9,1.8-1.9,2.6-3c1.6-2,3.5-3.6,6.2-4c0.5-0.1,1-0.5,1.5-0.8
		c-1-1.5-3.3-0.7-3.9-2.5c0.2-0.8,0.8-0.9,1.4-0.9c1.2-0.1,2.4,0.1,3.4,0.9c0.5,0.4,0.9,0.8,1.2,1.3c0.6,0.9,0.4,1.9-0.5,2.6
		c-1.1,0.7-2.2,1.7-3.4,2c-1.7,0.4-2.7,1.4-3.7,2.6c-0.9,1.1-1.8,2.2-2.6,3.3c1.1,1.6,2.7,0,3.9,1.1c-0.3,0.3-0.5,0.8-0.8,0.9
		c-2,0.4-3.4,1.5-4.8,3C89.4,313.4,87.4,314.6,85.7,316.1L85.7,316.1z"/>
	<path d="M63,292.8c-0.3-1.5-2-1.2-2.8-2.3c0.5-0.4,1.1-0.8,1.7-1.3c-1.2-1.9-3.1-2.8-5.1-3.4c0-0.9,0.6-1,1-0.8
		c2.2,0.9,4.4,2,5.8,4.1c1.1,1.6,2.2,3.2,3.3,4.7c0.6,0.9,0.9,1.9,0.8,3c-0.1,1.3-0.1,2.6,0.1,4c0.5,5.2,0.6,10.4-0.4,15.5
		c-0.3,1.7-0.7,3.3-1.8,4.7c0-0.7-0.1-1.5,0-2.2c0.2-2.3,0.5-4.5,0.8-6.8c0.7-6-0.5-11.5-3.6-16.6c-0.4-0.6-0.7-1.2-1-2
		C62.2,293.2,62.7,293,63,292.8c0.3,1.7,1.6,2.8,2.9,4.6c0-1.2,0.2-1.8,0-2.2C65.2,294.1,64.6,292.9,63,292.8z"/>
	<path d="M79.8,303.7c-0.2-0.4-0.4-0.9-0.7-1.5c0.9-1.3,1.8-2.6,2.8-4c0.7-0.9,1.5-1.8,2.2-2.6c1.8-0.3,2.7,0.8,4,1.5
		c0.4-0.5,0.9-1,1.3-1.5c0.9-0.8,1.6-0.8,2.6-0.1c0.8,0.6,1.6,1.4,2.6,2.2c-0.7,0.7-1.5,1.4-2.1,2.2c-0.6,0.8-0.8,1.7-1.3,2.6
		c-1.2,2.2-4,3.4-6.5,3c-0.7-0.1-1.4-0.4-2.1-0.6l0.1,0.1c-0.5-0.3-1.1-0.5-1.6-0.8l0.1,0.1c-0.5-0.3-1.1-0.5-1.6-0.8L79.8,303.7z
		 M85.1,296.9c-0.6,0.8-1.2,1.4-1.7,2.1c0.5,0.8,1,1.4,1.4,2.1c0.1,0.2-0.1,0.6-0.2,0.9c-0.8-0.5-1.5-0.9-2.3-1.4
		c-0.1,0.5-0.3,1.1-0.2,1.1c1.2,0.8,2.3,1.7,3.6,2.3c0.4,0.2,1.2,0,1.7-0.2c2-0.8,2.8-2.5,3.3-4.5c0-0.2-0.2-0.4-0.3-0.6
		c-0.6,0.3-1.3,0.6-2.1,1C87.2,299,86.3,298.1,85.1,296.9z"/>
	<path d="M115.7,268.6c0.3,0.2,0.8,0.4,0.8,0.6c0.3,4.8-0.4,9.4-3.2,13.4c-2.5,3.5-5.8,5.8-10.1,6.2c-0.5,0.1-1,0-1-0.7
		c1.3-0.6,2.6-1,3.8-1.7c5.5-3.1,8.1-8,8.7-14.2C114.8,271,114.6,269.6,115.7,268.6z"/>
	<path d="M88.5,321.1c2.9-3.1,5.8-6.2,8.6-9.3c0.9-1,1.7-2,2.6-3c0.4-0.4,0.8-0.8,1.5-1.4c0,0.7,0.1,1.1,0,1.4
		c-1.3,2.3-2.9,4.4-4.7,6.4c-1.5,1.7-2.9,3.5-4.3,5.3c-2,2.7-4,5.4-6.1,8.1c-0.7,0.8-1.6,1.5-2.4,2.1c-0.2,0.1-0.6-0.1-1-0.1
		c2.4-3.1,4.6-6,6.9-9C89,321.3,88.7,321.2,88.5,321.1L88.5,321.1z"/>
	<path d="M51,287.7c0.3-0.8,1-0.3,1.5-0.6c0.5-0.2,0.8-0.7,1.3-1.2c2.7,2.4,4.8,4.9,7.1,7.7c-2.1,0.3-2.6-1.9-4.1-2
		c-0.9,3.5-0.6,7.1-2.1,11.1c-0.4-2.3-0.2-4.1-0.3-5.8c0-0.6,0-1.2,0.1-1.8c0.2-2.8-0.5-5.3-3.1-6.8C51.1,288.2,51.1,287.9,51,287.7
		z"/>
	<path d="M100.1,313.8c0.6-0.8,1.1-1.6,1.7-2.3c1.6-1.9,3.3-3.8,5-5.7c0.4-0.4,0.8-0.9,1.3-1.3c0.6-0.4,1.3-0.6,2,0.1
		c-0.2,0.3-0.3,0.6-0.5,0.8c-0.5,0.4-1.4,0.7-1.7,1.2c-1.5,2.4-3.6,4.1-5.7,6c-0.3,0.2-0.5,0.5-0.7,0.8c0.7,2.5,0.7,2.7-0.4,4.4
		c-2.7,3.9-5.8,7.3-9.5,10.2c-0.3,0.2-0.7,0.2-1,0.3l0.1,0.1c0.3-1.5,1.7-2.2,2.6-3.3c2-2.3,4.1-4.6,6-7c0.6-0.7,1-1.6,1.4-2.5
		C101,314.9,100.5,314.3,100.1,313.8L100.1,313.8z"/>
	<path d="M33.5,274c1.3-0.6,1.4-2.6,3.1-2.6c0.1,0.1,0.3,0.3,0.2,0.3c-1.3,2.3-2.7,4.5-4,6.8c-1.7-2.1-1.9-3.8-1.2-9.2
		c0.2-1.5,0.3-3.1,1.9-4.1c1.5,2,1.8,4,0.5,6.1C33.6,272.1,33,273,33.5,274z"/>
	<path d="M71.7,247.1c0.3,0.1,0.8,0.2,0.9,0.4c0.8,2.2,1.1,4.4,0.5,6.7c-0.3,1.3-0.7,2.5-1.2,3.8c-0.1,0.3-0.7,0.6-0.8,0.6
		c-0.3-0.2-0.8-0.6-0.8-1c0-1.1,0.2-2.1,0.4-3.2c0.1-0.6,0.1-1.2,0.1-1.7c-1-1-2.2-0.5-3.2-0.5c-1.4,0.1-2.2-0.5-3.2-1.7
		c1.1-0.7,2.2-0.5,3.2-0.4c1,0.1,2.1,0.3,3,0.5C71.9,249.5,71.3,248.1,71.7,247.1L71.7,247.1z"/>
	<path d="M37.8,310.1c2,1.7,2.8,4.1,3.9,6.1c1.2,2.1,2.5,4.1,3.8,6.1c1.3,2,2.7,3.9,3.9,5.8c-0.5,0.8-1,0.5-1.3,0.2
		c-1.4-1.8-3-3.4-4.2-5.4c-2-3.5-3.8-7.2-5.6-10.9C38,311.5,37.9,310.8,37.8,310.1z"/>
	<path d="M54.6,247.7c0.5,0.6,1,0.9,1,1.3c0.3,3,1.3,5.9,2.4,8.7c0.6,1.6,0.9,3.2,0.9,4.8c-0.8,0.3-1-0.2-1.1-0.6
		c-1.1-2-2.3-4-3.1-6.1C53.8,253.3,53.9,250.7,54.6,247.7z"/>
	<path d="M41.1,277.4c-0.5,3.6-0.8,6.9-1.3,10.2c-0.5,3.3-1.1,6.6-1.7,10c-0.8,0-0.5-0.6-0.5-0.9c0.1-2.3,0.2-4.6,0.4-6.9
		c0.1-1.8,0.1-3.6,0.5-5.4c0.4-2.1,1-4.2,1.5-6.3C40,277.9,40.5,277.8,41.1,277.4z"/>
	<path d="M42.7,297.8c0-0.4,0-0.7,0.1-1.1c0.8-3.3,0.9-6.6,0.8-10c0-0.2,0.1-0.4,0.2-0.6c0.7,0.8,1.4,1.6,2,2.4
		c0.3,0.4,0.6,0.8,0.6,1.3c0,2.3-0.2,4.5-0.3,6.8c0,0.3-0.4,0.5-0.8,1c-0.1-1.3-0.2-2.3-0.4-3.8C43.9,295.4,43.3,296.6,42.7,297.8
		L42.7,297.8z"/>
	<path d="M71.2,288.2c1.1-0.2,1.6-0.4,1.9-0.3c0.9,0.5,1.9,1.1,2.6,1.9c1.8,2.3,2.6,4.8,1.7,7.9c-0.4-0.3-0.8-0.4-0.9-0.6
		C75.9,293.7,74.2,291,71.2,288.2z"/>
	<path d="M66.2,290.6c0.7-0.4,1.1-0.7,1.3-0.6c3.5,1.9,6,4.7,7.1,8.6c0,0.1-0.1,0.2-0.2,0.5c-1.2-0.6-1.5-2-2.4-2.9
		c-0.8-0.9-1.6-1.8-2.4-2.6C68.6,292.6,67.6,291.8,66.2,290.6z"/>
	<path d="M82.8,333.6c1.5-1.3,3.4-2,5.2-2.8c2-0.9,4.2-1.6,6.3-2.4l-0.1-0.1c-0.2,1.7-1.8,2.3-2.9,3.3c-0.6,0.5-1.4,0.8-2.2,0.9
		C86.9,332.9,84.8,333.2,82.8,333.6L82.8,333.6z"/>
	<path d="M127.7,277.9c-3.3,1.6-6.2,1.1-9.2,1c0.1-0.4,0.1-0.8,0.2-0.9c1.5-1.2,3.4-1,5.2-1.1C125.1,276.9,126.3,276.7,127.7,277.9z
		"/>
	<path d="M82.7,333.5c-1.6,0.9-3.1,1.9-4.7,2.7c-1.5,0.8-3.2,1.1-4.9,0.8l0.1,0.1c0.5-0.5,0.8-1.3,1.4-1.5
		C77.2,334.5,79.8,333.3,82.7,333.5L82.7,333.5z"/>
	<path d="M34.7,283.3c-0.4-2.8-0.7-5.6,2.2-7.9c0.1,1.8-0.9,2.8-1.2,4.1C35.4,280.7,35,282,34.7,283.3z"/>
	<path d="M50.7,292.1c-3.1-3.1-3.7-3.9-4.3-6.1c1.1,0.2,1.6,1,2.1,1.7C49.5,289.1,50.7,290.3,50.7,292.1L50.7,292.1z"/>
	<path d="M58.8,295.6c1.1,2.6,1.1,2.6,0.3,7.2c-0.1,0-0.2,0.1-0.2,0c-0.1-0.1-0.2-0.2-0.2-0.3C58.7,300.5,58.8,298.5,58.8,295.6z"/>
	<path d="M53.5,330.7c1,0.5,1.4,1.4,1.7,2.7c-0.5-0.2-0.9-0.3-0.9-0.5C54,332.1,53.8,331.4,53.5,330.7L53.5,330.7z"/>
	<path d="M131.7,276.4c0.4-0.1,0.7-0.2,1-0.2c0.3,0,0.6,0.2,1,0.3C132.6,277.6,132.6,277.6,131.7,276.4z"/>
	<path d="M53.6,330.6c-0.9-0.8-1.3-1.8-1.3-3.3C53.4,328.4,53.8,329.4,53.6,330.6L53.6,330.6z"/>
	<path d="M58,339c0.7-0.4,1.3-0.4,2,0.1C59,339.8,58.6,338.9,58,339z"/>
	<path d="M156.7,359.6c1.1,0.4,1.5,1.1,1.3,2.3l0.1,0C157.6,361.1,156.6,360.7,156.7,359.6L156.7,359.6z"/>
	<path d="M94.3,337.8c1,0.1,2.1-0.2,2.9,0.7l0.1-0.1C96.3,338.5,95.1,338.9,94.3,337.8L94.3,337.8z"/>
	<path d="M94.3,328.4c0.5-0.9,1.3-1.2,2.2-1.3l0-0.1C95.8,327.6,95.3,328.5,94.3,328.4L94.3,328.4z"/>
	<path d="M39.8,340.7c-0.9-0.4-0.8-1-0.2-1.9C39.7,339.6,39.7,340.2,39.8,340.7L39.8,340.7z"/>
	<path d="M94.4,337.7c-0.6,0-1.2,0-1.9,0C93.3,336.9,93.8,337.4,94.4,337.7L94.4,337.7z"/>
	<path d="M44.1,355.3c0.5-0.2,0.9-0.3,1.4-0.5c0,0.1,0.1,0.3,0.1,0.4C45.1,355.2,44.6,355.2,44.1,355.3L44.1,355.3z"/>
	<path d="M141.3,278c0.1,0.2,0.2,0.4,0.3,0.5c-0.1,0-0.3,0.1-0.3,0.1c-0.1-0.2-0.2-0.3-0.2-0.5C141.2,278,141.2,278,141.3,278z"/>
	<path d="M90.9,336.7c0,0,0,0.1,0,0.1c-0.1,0-0.2,0-0.3,0c-0.1,0-0.2-0.1-0.2-0.2C90.6,336.7,90.8,336.7,90.9,336.7z"/>
	<path d="M110.9,342.8c-0.5,0.9-1,0.4-1.5,0l-0.1,0.1C110,342.9,110.5,342.9,110.9,342.8L110.9,342.8z"/>
	<path d="M112.6,343.9c0,0.1-0.1,0.2-0.1,0.2c-0.1,0-0.2,0-0.3-0.1c0-0.1,0.1-0.2,0.1-0.2C112.4,343.9,112.5,343.9,112.6,343.9z"/>
	<path d="M115.3,345c-0.3-0.1-0.6-0.2-0.4-0.1C114.8,344.8,115,345,115.3,345L115.3,345z"/>
	<path d="M115.2,345.1c0.5,0.1,1.2,0.1,1.4,0.8l0.1-0.1C116.2,345.6,115.8,345.3,115.2,345.1L115.2,345.1z"/>
	<path d="M116.6,345.9c0.3,0.1,0.6,0.1,0.5,0.1C117.2,346.1,117,346,116.6,345.9L116.6,345.9z"/>
	<path d="M122.6,349.5c0-0.3,0.1-0.5,0.1-0.8l-0.1,0.1c0.5,0.2,0.9,0.4,1.4,0.7l0.1-0.1C123.6,349.4,123,349.4,122.6,349.5
		L122.6,349.5z"/>
	<path d="M31.1,307.3c-0.2-0.2-0.3-0.4-0.1-0.2C30.9,306.8,31,307.1,31.1,307.3L31.1,307.3z"/>
	<path d="M100,306.6c-0.2,0.1-0.4,0.2-0.6,0.4C99.7,306.9,99.9,306.8,100,306.6L100,306.6z"/>
	<path d="M42.6,297.8c0,0.3-0.1,0.5-0.1,0.4C42.5,298.3,42.6,298.1,42.6,297.8L42.6,297.8z"/>
	<path d="M50.7,284.9c0.1,0.1,0.2,0.2,0.3,0.3c-0.1,0-0.1-0.1-0.2-0.1C50.8,285,50.8,284.9,50.7,284.9L50.7,284.9z"/>
	<path d="M71.8,247c-0.1-0.1-0.2-0.2-0.4-0.3c0.1,0,0.2,0,0.2,0C71.7,246.9,71.7,247,71.8,247L71.8,247z"/>
	<path d="M124,349.4c0.1,0.2,0.2,0.3,0.2,0.5c0,0.1-0.2,0.1-0.2,0.2l0.1,0.1c0-0.3,0-0.6,0-0.8L124,349.4z"/>
	<polygon points="157.9,361.9 158.2,361.9 158,361.9 	"/>
	<polygon points="125.5,351 125.6,350.8 125.4,350.9 	"/>
	<path d="M127.7,352.4c0-0.1,0.1-0.2,0.1-0.2C127.7,352.2,127.7,352.2,127.7,352.4L127.7,352.4z"/>
	<polygon points="50.6,292.2 50.9,292.2 50.7,292.1 	"/>
	<path d="M90.6,328.3c-0.1,0.1-0.2,0.2-0.3,0.4c0-0.1,0-0.2,0.1-0.2C90.5,328.4,90.6,328.4,90.6,328.3L90.6,328.3z"/>
	<polygon points="96.5,327 96.6,326.8 96.4,327 	"/>
	<polygon points="101.5,323.3 101.4,323.5 101.5,323.4 	"/>
	<polygon points="101.5,323.4 101.6,323.2 101.5,323.3 	"/>
	<path d="M96.5,332c-0.1,0.1-0.1,0.2-0.2,0.2c0,0-0.1,0-0.2,0C96.3,332.2,96.4,332.2,96.5,332L96.5,332z"/>
	<polygon points="88.4,321 88.4,321.2 88.5,321.1 	"/>
	<polygon points="87.7,317.5 87.6,317.6 87.7,317.6 	"/>
	<path d="M87.7,317.6c0.2-0.2,0.5-0.5,0.7-0.7l0-0.1C88.2,317,87.9,317.3,87.7,317.6L87.7,317.6z"/>
	<polygon points="88.5,316.9 88.6,316.7 88.4,316.8 	"/>
	<polygon points="85.6,316 85.4,316.2 85.7,316.1 	"/>
	<polygon points="100,313.7 99.9,314 100.1,313.8 	"/>
	<path d="M50.8,284.8c-0.1-0.1-0.3-0.1-0.4-0.2c0.1,0,0.1,0,0.2,0C50.6,284.7,50.7,284.8,50.8,284.8L50.8,284.8z"/>
	<path d="M100.1,306.7c0-0.1,0.1-0.2,0.1-0.2C100.1,306.5,100.1,306.6,100.1,306.7L100.1,306.7z"/>
	<path d="M122.7,348.7c-0.1,0-0.2-0.1-0.3-0.1C122.4,348.6,122.5,348.7,122.7,348.7L122.7,348.7z"/>
	<path d="M647.1,336.4c-5.1,1.6-13.4-0.4-19.6-4.1c0.1-0.8,0.6-1,1.3-0.8c0.9,0.2,1.8,0.6,2.7,0.9c4.4,1.7,8.9,3.1,13.7,3.4
		C645.7,335.9,646.4,336.2,647.1,336.4z"/>
	<path d="M570.3,283.5c3.5,2,6.9,4.2,9.4,7.5c0.6,0.8,1.3,1.8,0.7,3.3c-1.8-1.9-3.5-3.8-5.2-5.5c-1.7-1.7-3.6-3.2-5.3-4.8
		C570,283.9,570.2,283.7,570.3,283.5z"/>
	<path d="M551.1,331c0.3-0.4,0.5-0.9,0.8-0.9c3.6-0.5,7.1-1.2,10.8-0.8c0.3,0,0.5,0.4,1,0.9C559.4,330.8,555.4,331.6,551.1,331z"/>
	<path d="M627.4,300.8c-2.9,1.1-5.7,0.9-8.8,0.5c0.3-0.4,0.5-0.9,0.7-0.9C622,299.9,624.7,299.8,627.4,300.8z"/>
	<path d="M585.2,305c-2.6-1-2.9-1.5-2-3.2C584,302.6,584.8,303.4,585.2,305z"/>
	<path d="M542.1,333.2c-1.2,0-2.1,0-3.2,0c0.2-0.4,0.4-0.8,0.6-0.8c0.6-0.1,1.2-0.2,1.7-0.1C541.5,332.3,541.7,332.7,542.1,333.2z"
		/>
	<path d="M784,341.8c1.3-0.6,2.5-0.6,4.3-0.1C786.5,342.5,785.2,342.2,784,341.8z"/>
	<path d="M764.6,343.9c1.1-0.4,1.4-0.6,1.7-0.6c0.6,0,1.1,0.2,1.9,0.4C766.7,344.3,766.7,344.3,764.6,343.9z"/>
	<path d="M611.3,304c0,0.1,0,0.2,0,0.3c-0.3,0.6-1,0.8-1.5,0.5c-0.1-0.1-0.2-0.2-0.2-0.3c0-0.5,0.7-0.9,1.4-0.7
		C611.1,303.9,611.2,304,611.3,304z"/>
	<path d="M581.5,298.3c-0.3,0.3-0.5,0.4-0.6,0.5c-0.3-0.4-0.5-0.7-0.7-1.1c0,0,0.4-0.4,0.5-0.3C581,297.7,581.2,298,581.5,298.3z"/>
	<path d="M774.7,343.1c1.2,0,2.1,0,3.6,0C776.8,343.9,775.9,344,774.7,343.1z"/>
	<path d="M614.1,303.4c0.7-0.2,1-0.3,1.3-0.4c0.3,0,0.7,0.1,1.3,0.2C615.8,303.9,615.2,303.7,614.1,303.4z"/>
	<path d="M532.5,334.6c-0.2,0.1-0.4,0.2-0.6,0.2c-0.1,0-0.2-0.2-0.3-0.2c0.2-0.1,0.4-0.2,0.6-0.2
		C532.3,334.4,532.4,334.5,532.5,334.6z"/>
	<path d="M526.7,336c-0.1,0.1-0.3,0.3-0.4,0.3c-0.2,0-0.3-0.2-0.5-0.3c0.1-0.1,0.2-0.2,0.3-0.2C526.3,335.8,526.5,335.9,526.7,336z"
		/>
	<polygon points="652.7,337.4 652.9,337.4 652.9,337.5 	"/>
	<path d="M315.8,271.4c-0.7,0-1.1,0.2-1.5,0.1c-2.1-0.7-3.8-2.1-5.4-3.5c-1.4-1.3-2.7-2.7-4-4.1c-1.7-1.8-3.4-3.8-5.1-5.6
		c-2.3-2.4-4.4-5.1-8.3-6.1c1.4-0.9,2.4-0.9,3.2-0.4c1.1,0.7,2.2,1.4,3.2,2.3c1.7,1.6,3.2,3.2,4.8,4.9c3.8,4.2,7.6,8.4,12.5,11.4
		C315.3,270.5,315.4,270.9,315.8,271.4z"/>
	<path d="M426.2,257.9c7.5-0.8,14,1.5,19.8,5.8c-1.6,0.4-2.7-0.7-3.9-1.1c-1.2-0.5-2.4-1-3.7-1.5c-1.4-0.5-2.8-0.9-4.2-1.3
		c-1.3-0.3-2.6-0.6-3.9-0.9C428.9,258.5,427.6,258.2,426.2,257.9z"/>
	<path d="M394.4,264.1c1.4-1.8,3.4-2.6,5.3-3.4c1.8-0.8,3.5-2,5.8-1.8c-0.1,0.3-0.1,0.4-0.2,0.5c-0.1,0.1-0.1,0.2-0.2,0.3
		c-3.4,1.6-6.8,3.1-10.2,4.6C394.8,264.4,394.7,264.3,394.4,264.1z"/>
	<path d="M352.5,258.7c2.5-1.3,4.5-1.9,6.6-2.2c0.3,0,0.7,0.3,0.8,0.5c0.1,0.3,0.1,0.8-0.1,1c-0.4,0.4-0.9,0.8-1.4,1
		C356.6,259.8,354.9,259.9,352.5,258.7z"/>
	<path d="M433.2,266.4c0.9-1.5,2.3-1.4,3.5-1.7c1.6-0.3,3.3-0.5,4.7,0.3c0,0.3,0.1,0.5,0.1,0.5c-0.1,0.1-0.2,0.1-0.3,0.1
		C438.5,266,435.9,266.2,433.2,266.4z"/>
	<path d="M292.1,303c-0.5-1.3,0.1-1.8,0.7-2.1c1.4-0.8,2.7-2,4.8-1.3C296.1,301.5,294.2,302.2,292.1,303z"/>
	<path d="M399.9,292.8c0,0.6,0.1,1.2-0.1,1.8c-0.7,2.4-1.4,4.8-2.1,7.2c-0.1,0.4-0.5,0.7-0.8,1l0.1,0.1c0.2-3.4,1.3-6.5,2.4-9.7
		C399.5,293.1,399.8,293,399.9,292.8L399.9,292.8z"/>
	<path d="M426.4,314.3c3.6-1.1,6.6-0.5,10.2-1C433.1,314.6,430.1,314.9,426.4,314.3z"/>
	<path d="M279.9,297.2c1.8-1.4,3.2-2.5,4.7-3.7c-0.7,1.8-0.7,1.9-1.3,2.4C282.5,296.6,281.9,297.5,279.9,297.2z"/>
	<path d="M322,274.2c2-0.6,4.1-0.7,6.4-0.2C326.3,274.9,325.6,275,322,274.2z"/>
	<path d="M402.8,305.2c0,2-0.5,4-1.5,5.8l0.1,0.1C401.4,308.1,401.7,307.1,402.8,305.2L402.8,305.2z"/>
	<path d="M405.7,295c0.3-1.5,0.6-3,0.9-4.5c0.5,1.7,0.1,3.1-1,4.4L405.7,295z"/>
	<path d="M403.5,302.2c0.1-1.8,0.4-3.5,1.5-5l-0.1-0.1c0.2,1.7-0.4,3.2-1,4.7C403.9,302,403.6,302,403.5,302.2L403.5,302.2z"/>
	<path d="M399.9,292.9c-0.2-1.2-0.1-2.3,1.2-3.5C401,291,401,292.1,399.9,292.9L399.9,292.9z"/>
	<path d="M399.8,318.1c0,1,0,2,0,3C399.3,320.1,399.1,319.1,399.8,318.1L399.8,318.1z"/>
	<path d="M344.8,276.6c-0.8,0-1.6,0-2.4,0C343.1,275.8,343.9,276.1,344.8,276.6z"/>
	<path d="M299.8,297.9c-0.2-1.2,0.6-1.5,1.6-1.7C300.9,297.3,300.9,297.3,299.8,297.9L299.8,297.9z"/>
	<path d="M359,270.6c0,0.1,0,0.2,0,0.3c-0.3,0.7-1,0.9-1.4,0.5c-0.1-0.1-0.2-0.2-0.2-0.3c0-0.5,0.7-1,1.3-0.8
		C358.9,270.3,358.9,270.5,359,270.6z"/>
	<path d="M415.6,268.3c-0.8,0.8-1.2,0.3-1.8-0.1C414.7,267.1,414.9,268.5,415.6,268.3z"/>
	<path d="M420.3,267.2c-0.6,0-1.1,0-1.7,0c0-0.1,0-0.1,0-0.2c0.6,0,1.1,0,1.7,0C420.3,267,420.3,267.1,420.3,267.2z"/>
	<path d="M396.9,302.8c0,0.8,0,1.5,0,2.6C396.2,304.3,396.6,303.6,396.9,302.8L396.9,302.8z"/>
	<path d="M403.4,302.1c0.2,1.1,0.3,2.2-0.6,3l0.1,0.1C402.7,304.2,402.7,303.1,403.4,302.1L403.4,302.1z"/>
	<path d="M405,297.2c0-0.8-0.1-1.7,0.7-2.3l-0.1-0.1C405.6,295.7,405.9,296.6,405,297.2L405,297.2z"/>
	<path d="M416,312.6c0.1-0.8,0-1.6,0.7-2.2l-0.1-0.1C416.3,311,416.1,311.7,416,312.6L416,312.6z"/>
	<path d="M420.3,257.7c-0.4,0-0.8,0-1.2,0c0-0.1,0-0.2,0-0.2c0.4,0,0.8,0,1.2,0C420.3,257.5,420.3,257.6,420.3,257.7z"/>
	<path d="M335.6,275.6c0.7,0.1,1,0.1,1.2,0.1c-0.2,0.1-0.3,0.1-0.5,0.2C336.2,275.9,336.1,275.8,335.6,275.6z"/>
	<path d="M403,265.3c0.1-0.9,0.8-0.7,1.3-0.8l-0.1-0.1C403.7,264.7,403.3,265,403,265.3L403,265.3z"/>
	<path d="M413,257.2c0.3,0.1,0.6,0.2,1,0.3C413.4,257.9,413.1,257.8,413,257.2L413,257.2z"/>
	<path d="M405.7,263.8c-0.5,0.2-1,0.4-1.5,0.6l0.1,0.1c0.3-0.9,1-0.6,1.6-0.6L405.7,263.8z"/>
	<path d="M413.1,257.1c-0.4,0-0.8,0-1.5,0C412.4,256.3,412.7,256.6,413.1,257.1L413.1,257.1z"/>
	<path d="M402.9,265.3c-0.2,0.1-0.4,0.2-0.6,0.3c-0.1,0-0.2-0.1-0.3-0.2C402.3,265.4,402.6,265.4,402.9,265.3L402.9,265.3z"/>
	<path d="M416.7,310.3c0-0.2,0.1-0.4,0.1-0.6c0-0.1,0-0.2,0.1-0.3c0.1,0.1,0.2,0.3,0.2,0.4C416.9,310,416.7,310.1,416.7,310.3
		L416.7,310.3z"/>
	<path d="M287.6,288.9c0.1,0,0.2,0,0.2,0c0,0.1,0.1,0.2,0,0.3c-0.1,0.3-0.3,0.3-0.3,0C287.6,289.1,287.6,289,287.6,288.9z"/>
	<polygon points="414,317.4 414.1,317.4 414.1,317.7 	"/>
	<path d="M305.9,293.1c0.1,0.2,0.1,0.4,0.2,0.6c0,0.1-0.1,0.2-0.2,0.2c-0.1-0.2-0.1-0.4-0.2-0.6
		C305.7,293.3,305.8,293.2,305.9,293.1z"/>
	<polygon points="426.2,266.3 426.5,266.2 426.4,266.4 	"/>
	<path d="M290.2,284.8c-0.1,0.2-0.1,0.3-0.2,0.5C289.6,284.8,289.9,284.8,290.2,284.8L290.2,284.8z"/>
	<path d="M299.7,297.9c0,0.1-0.1,0.2-0.1,0.3C299.6,298.1,299.7,298,299.7,297.9L299.7,297.9z"/>
	<path d="M290.3,284.9c0.1-0.2,0.1-0.3,0.2-0.5c0.1,0.1,0.2,0.2,0.3,0.3C290.6,284.7,290.4,284.7,290.3,284.9L290.3,284.9z"/>
	<path d="M405.8,263.9c0.1-0.2,0.1-0.3,0.2-0.5c0,0.1,0,0.1,0,0.2c-0.1,0.1-0.2,0.1-0.3,0.2L405.8,263.9z"/>
	<path d="M249,265.9c0-1.7,0.8-2.3,1.5-2.9c1-0.9,2-1.7,3.1-2.5c2.3-1.8,4.5-3.6,6-6.1c0.1-0.2,0.4-0.2,0.8-0.4
		c0.1,0.5,0.4,0.9,0.3,1.3c-0.3,0.9-0.6,1.8-1.2,2.6C256.7,261.2,253.2,263.7,249,265.9z"/>
	<path d="M259.8,329.9c-0.8,1.1-1.7,0.8-2.4,0.6c-1.9-0.6-3.7-1.6-4.8-3.5c0.4-0.1,0.7-0.3,0.8-0.2
		C255.5,327.7,257.6,328.7,259.8,329.9z"/>
	<path d="M187.2,313.3c-2.4-2.5-4.2-4.4-6.3-6.5c1.9-0.1,2.9,1.1,3.9,2C185.9,309.7,187,310.9,187.2,313.3z"/>
	<path d="M357.3,349.6c2.4-1.2,4.4-0.7,6-1.5C362.1,350,361.4,350.2,357.3,349.6z"/>
	<path d="M243.9,269.6c0.2-0.9,1-0.7,1.6-0.9C245.4,269.9,244.5,269.5,243.9,269.6L243.9,269.6z"/>
	<path d="M238.5,270.6c0.2-0.1,0.4-0.2,0.7-0.2c0.2,0,0.4,0.2,0.6,0.3c-0.2,0.1-0.4,0.2-0.7,0.2
		C238.9,270.9,238.7,270.7,238.5,270.6z"/>
	<path d="M246.4,324.2c0.5,0,0.8,0.1,1.1,0.1C247.2,325,246.9,324.6,246.4,324.2z"/>
	<path d="M231.9,271.2c0.4-0.1,0.8-0.1,1.2-0.2c0,0.1,0,0.3,0.1,0.4c-0.4,0.1-0.8,0.1-1.2,0.2C231.9,271.5,231.9,271.3,231.9,271.2z
		"/>
	<path d="M353,349c0.5,0,0.8,0,1.1,0.1c-0.2,0.1-0.5,0.2-0.7,0.2C353.4,349.3,353.3,349.2,353,349z"/>
	<path d="M255,302.7c-0.1,0-0.3,0.1-0.3,0.1c-0.1-0.1-0.1-0.2-0.1-0.3c0.1,0,0.2,0,0.3,0.1C254.9,302.5,254.9,302.7,255,302.7z"/>
	<path d="M189.7,317.6c0.2,0.1,0.4,0.2,0.6,0.3c-0.1,0.1-0.2,0.2-0.2,0.2c-0.2,0-0.4-0.1-0.5-0.2
		C189.6,317.7,189.6,317.7,189.7,317.6z"/>
	<path d="M192.1,322.8c-0.1,0.1-0.2,0.1-0.3,0.2c-0.1-0.2-0.2-0.4-0.2-0.6c0-0.1,0.1-0.1,0.2-0.2C192,322.5,192,322.7,192.1,322.8z"
		/>
	<path d="M250.8,325.9c-0.1,0-0.2,0.1-0.3,0.1c-0.1,0-0.2-0.1-0.3-0.2C250.4,325.8,250.6,325.9,250.8,325.9z"/>
	<path d="M240.2,322.6c0.2,0,0.5,0,0.7,0c0.1,0,0.2,0.1,0.3,0.2c-0.2,0.1-0.4,0.3-0.6,0.2C240.4,323,240.4,322.8,240.2,322.6
		L240.2,322.6z"/>
	<polygon points="188.6,294.2 188.4,294.1 188.5,294.3 	"/>
	<path d="M188.5,294.3c0.3,0.3,0.5,0.6,0.8,0.8l0.1-0.1C189.1,294.8,188.9,294.5,188.5,294.3L188.5,294.3z"/>
	<polygon points="240.2,322.6 240.1,322.4 240.2,322.6 	"/>
	<polygon points="243.8,269.5 243.7,269.7 243.9,269.6 	"/>
	<path d="M586.4,274.8c-2.3-1.2-4.4-2.4-6.6-3.6c-2.2-1.2-4.8-1.5-6.7-3.4c0.3-0.2,0.5-0.4,0.7-0.4c2.7,1,5.5,1.8,8.1,3
		c1.5,0.7,2.8,1.8,4.2,2.8C586.5,273.6,586.7,274.1,586.4,274.8z"/>
	<path d="M784.5,302.6c0.2,0.4,0.7,0.8,0.6,1.1c-0.8,2.2-2.1,4-4.7,4.3c-0.1,0-0.2-0.1-0.3-0.2C780.5,305.5,781.5,304.3,784.5,302.6
		z"/>
	<path d="M627.2,282.2c-1.3,1.3-2.6,1.3-4.5,1.1C624.2,282.2,625.5,281.8,627.2,282.2z"/>
	<path d="M772.1,309.8c0,0.1-0.1,0.3-0.1,0.3c-0.5,0.3-1,0.7-1.6,0.2c-0.1-0.1-0.1-0.2-0.1-0.3c0.3-0.7,0.9-0.6,1.5-0.4
		C772,309.6,772.1,309.7,772.1,309.8z"/>
	<path d="M587,279.1c-0.2-0.1-0.5-0.2-0.5-0.3c-0.1-0.3-0.1-0.6-0.1-0.9c0.3,0,0.7-0.1,0.9,0.1c0.2,0.2,0.3,0.5,0.3,0.8
		C587.6,278.9,587.2,279,587,279.1z"/>
	<polygon points="765,311.3 765,311.4 764.8,311.3 	"/>
	<path d="M761,311.9c0,0.1,0,0.2,0,0.2c-0.1,0-0.2,0.1-0.3,0c-0.1,0-0.2-0.1-0.3-0.2C760.6,312,760.8,312,761,311.9z"/>
	<path d="M839.7,306c0.2,0.3,0.6,0.7,0.7,1.1c0.4,1.8,0.8,3.5,0.9,5.3c0.2,2.9,0.8,5.7,1.7,8.5c0.4,1.1,0.7,2.3,0.8,3.5
		c0.1,1-1,1.7-2,1.5c-1.4-0.3-2.4-1.2-2.9-2.5c-0.7-1.9-1.4-3.9-1.8-5.9c-0.6-3.2-0.4-6.5,0.8-9.6C838.3,307,838.5,306.2,839.7,306z
		"/>
	<path d="M845.6,311.6c0.1-1.2,0-2.2,0.3-3.2c0.1-0.5,0.7-1,1.2-1.2c0.6-0.3,1.2,0.2,1.4,0.8c0.3,1,0.6,2.1,0.8,3.1
		c0.4,2.7,0.7,5.5,1.1,8.3c0.1,0.5,0.1,1,0,1.4c0,0.7-0.9,1.3-1.6,1c-0.5-0.2-1.1-0.6-1.4-1.1c-0.4-0.7-0.8-1.5-0.9-2.3
		C846.1,316.1,845.9,313.7,845.6,311.6z"/>
	<path d="M856.4,304.4c0.3,0.4,0.6,0.5,0.6,0.7c0.7,3,1.4,6.1,2.1,9.1c0.1,0.3,0.1,0.7,0.1,1.1c-0.1,0.8-0.4,1.4-1.1,1.7
		c-0.8,0.4-1.5,0.2-2-0.3c-0.7-0.8-1.4-1.7-1.6-2.7c-0.8-3.1-0.5-6.2,1.1-9C855.7,304.7,856,304.6,856.4,304.4z"/>
	<path d="M844,266.8c0.2,3.1,0.1,5.5-0.2,7.8c-0.4,2.8-0.5,5.5-0.4,8.3c0.1,5.1-0.9,10.1-2.7,14.9c-0.3,0.9-0.7,1.8-1.7,2.2
		c-0.1-0.2-0.4-0.4-0.4-0.5c1.7-3.6,1.8-7.5,2.6-11.2c0.6-2.8,1-5.7,1.4-8.6c0.2-1.3,0.2-2.6,0.2-4C842.8,272.9,843,270.1,844,266.8
		z"/>
</g>
</svg>
