<?xml version="1.0" encoding="utf-8"?>
<!-- Generator: Adobe Illustrator 19.2.0, SVG Export Plug-In . SVG Version: 6.00 Build 0)  -->
<svg version="1.1" id="Layer_2" xmlns="http://www.w3.org/2000/svg" xmlns:xlink="http://www.w3.org/1999/xlink" x="0px" y="0px"
	 viewBox="0 0 900 600" style="enable-background:new 0 0 900 600;" xml:space="preserve">
<g>
	<path d="M363.4,91.3c0.7-0.4,1.2-0.7,1.8-1c-0.8-2.2-0.8-2.2-2.4-1.9c0,1.5,0,2.9,0,4.6c0.7-0.1,1.3-0.3,1.9-0.4
		c-0.3,2.8-0.5,5.5-1,8.3c-0.5,2.8-1.1,5.6-2.6,8.2c-0.7,1.3-1,2.8-1.4,4.2c-0.3,1.1-0.4,2.3-0.7,3.4c-0.7,2.2-0.8,4.3-0.3,6.5
		c0.2,0.7,0.2,1.4,0.2,2.1c-0.1,3.4-0.3,6.7-0.4,10c-0.1,1.4-0.7,2.6-1.2,3.8c-1.6,0.8-3.1,0.7-4.6,0.7c-6.5,0.1-13,0.1-19.4,0.2
		c-0.5,0-1.1-0.2-1.5,0.6c0.8,0.3,1.6,0.6,2.3,0.7c5.8,0.7,11.7,1.6,17.6,2.1c6,0.5,11.9,1.5,18,1.4c0.7,0,1.4,0.3,2,0.4
		c2.3,0.5,9.5,1,11.7,0.9c0.7-1.2,1.6-2.3,2.2-3.5c0.4-0.7,0.7-1.5,0.7-2.3c0.2-4,0.3-8.1,0.4-12.1c0-2.2,0-4.5,1.3-6.4
		c1.3-2,1.8-4.2,2.5-6.4c0.4-1.4,0.9-2.9,1.5-4.3c1.2-2.8,2.1-5.6,2.7-8.6c0.3-1.2,0.4-2.6,1-3.6c0.8-1.2,1.1-2.5,1.1-3.9
		c0-1.1,0.3-1.3,1.8-1.5c0.2,0,0.4-0.2,0.5-0.2c0.2-0.9,0.4-1.7,0.7-2.7c0.7,0.2,1.2,0.5,1.8,0.5c1.8-0.2,3.2,0.7,4.1,2.1
		c1.5,2.2,3.7,3.7,5.7,5.8c-0.1,1.7-0.1,3.6-0.3,5.4c-0.2,1.9-1.2,3.7-1,5.6c0.3,0.3,0.4,0.5,0.6,0.6c1.8,1,2.2,2.4,1.6,4.4
		c-0.5,2-0.8,4.1-1.1,6.1c-0.7,4.3-1.5,8.7-3.5,12.6c-0.4,0.9-0.7,1.7-0.8,2.6c-0.4,3.8-0.7,7.6-1.1,11.4c-0.1,1.1-0.5,2.3-0.6,3.4
		c-0.2,1.4-1.8,1.7-2.1,3.1c-0.2,1.2-0.9,2.4-1.6,3.4c-1.5,2.1-3.2,4-5.3,5.4c-0.9,0.6-1.7,1.1-2.9,0.7c-2-0.7-3.8,0-5.4,1.3
		c-1.5,1.1-3.2,1.6-4.8,0.7c-1.5-0.8-2.8-0.6-4.3-0.5c-5.1,0.4-10.1,1.4-15.2,0.9c-1.2-0.1-2.2,0.4-3.3,0.8
		c-3.3,1.2-6.5,2.3-9.8,3.5c-0.6,0.2-1.2,0.5-2,0.9c0,1.3,0,2.6,0,3.9c0,56.2,0,112.5,0,168.7c0,31.4,0.1,62.7,0.1,94.1
		c0,3.7-0.1,7.4-0.1,11.1c0,0.9,0.1,1.9,0.5,2.7c1,2.3,2.1,4.6,3.4,6.8c2.6,4.5,5.4,8.9,8.1,13.3c4.5,7.3,9.1,14.5,13.3,22
		c5.3,9.4,10.1,19,14.4,28.8c3.2,7.2,6.5,14.3,9.7,21.5c0.4,0.8,1.1,1.7,0.6,3.1c-0.7-1.3-1.3-2.3-1.8-3.3
		c-3.7-7.3-7.3-14.7-11.2-21.9c-5.7-10.6-11.4-21.2-17.4-31.6c-5.2-8.9-10.8-17.5-16.2-26.3c-1.9-3.1-3.6-6.2-5-9.5
		c-0.4-1.1-0.7-2.2-0.7-3.3c0-4.3,0-8.6,0-12.8c0-34.4,0-68.7,0-103.1c0-35.1,0-70.1,0-105.2c0-18.5,0-37,0-55.5
		c0-0.9,0.3-1.9-0.6-2.8c-2,0.5-4.2,1-6.3,1.6c-6.7,1.9-13.5,2.9-20.5,2.7c-9.2-0.3-18.5-0.4-27.8-0.7c-3.1-0.1-6.3-0.2-9.3-1
		c-2.8-0.7-5.7-0.9-8.5-1.2c-0.9-0.1-1.8-0.2-2.7-0.4c-1.5-0.4-3-0.3-4.5,0c-0.9,0.2-1.8,0.3-2.7,0.5c-0.1,0.4-0.2,0.8-0.4,1.3
		c-7.4,0-14.8-0.2-22.3-0.6c-0.2,0.9-0.4,1.7-0.5,2.4c-0.5,2.1-0.6,4.4-1.5,6.4c-0.9,2.1-1.3,4.2-1.5,6.4c-0.1,0.8-0.1,1.6-0.3,2.4
		c-0.3,1.1-0.2,2,0,3.1c1.8,8.4,2.3,16.9,2.4,25.5c0.1,7-1.2,13.8-3.7,20.4c-1.4,3.7-2.1,7.5-2.7,11.4c-0.7,4.9-0.9,9.9-3.2,14.5
		c-0.4,0.7-0.2,1.6,0.6,2.2c0.4,0.3,0.8,0.8,1.2,1.2c-0.9,2.2,0.3,4.5-0.8,6.5c-0.8,0.3-1.3,0-1.5-0.5c-0.2-0.8-0.2-1.6-0.2-2.4
		c-0.1-1-0.1-2-0.1-3.1c-1.1,0.4-1.3,1.2-1.5,2c-0.3,1.3-0.7,2.7-1.1,4c0,0.1-0.4,0.2-0.6,0.3c-0.3-0.3-0.6-0.7-0.8-1
		c-0.8-0.1-1.8,0.7-2.4-0.5c-0.2-0.4-1-0.4-1.6-0.6c-5.1-1.5-10.2-3-15.3-4.5c-0.5-0.2-1.1-0.4-1.7,0.3c1,3.5,2.4,6.9,4.3,10
		c0.5,0.8,0.8,1.6,1.1,2.5c0.2,0.4-0.4,1-0.8,0.9c-0.6-0.2-1.4-0.4-1.8-0.8c-0.9-1-1.8-2.2-2.3-3.4c-1.1-2.7-1.9-5.5-2.8-8.2
		c-0.3-1-0.6-2-0.8-2.8c-1.2-0.7-2.1-1.2-3.1-1.7c0.9-0.2,1.6,0.1,2.4,0.1c0.8,0,1.6-0.2,2.4-0.3c1.3,2,3.4,2.3,5.9,2.5
		c0.1-0.9,0.1-1.6,0.2-2.4c-0.6-0.2-1.1-0.4-1.5-0.5c-1.8-0.7-3.9-0.7-5.4-2.2c-1.3-0.2-2.5-1.2-4-0.5c-0.2,0.1-0.7,0-0.9-0.2
		c-1.2-1.5-2.9-1.5-4.3-1.9c-0.8,0.3-1,1.1-1.7,0.6c-0.7-1.6-0.7-1.6-2.4-1.5c-0.8,0.9-0.8,2.6-2.6,2.9c-0.2-1.6,1.6-2.5,0.8-4.2
		c-2.2-0.9-4.5-1.9-6.9-2.9c-0.5,1-0.9,1.8-1.3,2.5c0.4,0.7,0.6,1.3,1.1,2.1c-1.5,0.5-2.7,0-3.9-0.3c-1.2-0.3-2.4-0.6-3.7-0.6
		c-1.6,5.6-1.9,11.3-4.9,16.3c1.2-5.4,2.3-10.8,3.5-16c-1.2-1.2-2.6-1.7-3.8-3.2c1.3-0.2,2.3-0.3,3.3-0.4c0.6-0.9,0.7-2.1,1.7-3
		c0.2,0.4,0.5,0.7,0.5,0.9c-0.1,0.8-0.3,1.6-0.3,2.4c0,0.2,0.4,0.5,0.7,0.6c0.1,0.1,0.5,0,0.6-0.2c0.8-0.9,1.1-2,1.4-3.2
		c-2.9-1.3-5.4-3.1-8.5-3.8c-0.3,1.6-0.6,3-0.9,4.5c0,0.1,0.3,0.3,0.5,0.4c0.6-0.8,1.1-1.6,1.8-2.6c0.6,1.5,0,2.5-0.6,3.4
		c-0.6,0.1-1.2,0.2-1.7,0.3c-0.2,0.3-0.5,0.5-0.7,0.8c-3.5,7.2-7.8,13.9-12,20.7c-1,1.7-1.9,3.4-2.8,5.2c-0.8,1.5-1.4,3.2-1.3,5
		c0.1,0.8,0,1.6,0,2.4c0.1,8.9,0.1,17.8,0.2,26.7c0,0.5-0.2,1.2,0.3,1.4c3.1-0.7,6-1.4,8.9-1.9c6.2-1.1,7.3-1.1,9.1,0.1
		c-3,1.3-6.1,1.4-9.1,2c-3,0.6-6.2,0.6-9.1,2.1c-0.3,2.8-0.5,5.6,0,8.3c0.7,4,1.1,8,1.1,12.1c0,5.7,0.2,11.3-0.7,17
		c-0.4,2.3-0.6,4.6-0.8,6.9c-0.4,4.4-0.9,8.7-1.1,13.1c-0.2,4-0.6,8.1,0.8,12c0.6,1.7,0.4,3.4-0.4,5.1c-0.7,1.5-1,3-0.3,4.6
		c1.2,0.7,2.5,0.7,3.8,0.6c3.1-0.1,6.3-0.3,9.3,0.5c3.5,0.9,6.8,2.1,10.3,3.2c3.4,1.1,6.8,2.3,10.3,3c2.3,0.4,4.5,0.8,6.8,1.4
		c2.9,0.7,5.8,1.4,8.8,1.9c3.1,0.6,6.2,1.2,9.3,1.3c4.9,0.1,9.7-0.2,14.6-0.4c1.9-0.1,3.9-0.2,5.9-1.1c-0.4-4.9,0.2-9.7,1.1-14.5
		c0.1-0.3,0.2-0.7,0-1c-0.8-1.9-0.1-3.7,0.2-5.5c0.4-3,1.1-5.9,1.6-8.9c1.4-8.3,2.6-16.7,2.4-25.2c0-1,0-2.1-0.3-3.1
		c-0.7-2.4-0.5-4.8,0-7.2c0.4-2,1-4.1,1.4-6.1c1.1-4.7,1.9-9.5,1.8-14.4c0-2,0-3.9,0-5.9c-0.1-5.2-1.1-10.1-3.1-14.8
		c-0.2-0.4-0.5-0.8,0.3-1.2c3.9,6.2,3.7,13.2,4.4,20c1.4-7.8,1.6-15.6-0.7-23.4c-0.5-0.2-1-0.5-1.6-0.8c-1.9-6.3-2.7-13-3.5-19.6
		c0-0.1,0.3-0.3,0.4-0.5c0.2,0.1,0.5,0.1,0.6,0.2c1.5,1.9,2.9,3.9,4.4,5.9c-0.6,2,0,3.9,0.4,5.8c0.3,1.7,0.7,3.4,0.6,5.1
		c-0.1,2.1,0.3,4.1,0.8,6.1c1.7,6.6,2.1,13.2,1.6,20c-0.3,4.1-0.4,8.1-0.1,12.1c0.1,0.8,0.1,1.6,0,2.4c-0.3,4.7-0.7,9.5-0.9,14.2
		c-0.5,8.8-0.4,17.6-0.1,26.4c0,0.9,0.1,2-0.3,2.7c-1.3,2.5-1.3,5.1-1,7.8c0.1,0.8,0.1,1.6,0.3,2.4c0.5,2-0.2,3.3-1.9,4.3
		c-1.8,1.1-3.6,1.9-5.8,1.8c-0.4,1.6-0.5,3.1-0.5,4.6c0,2.2-0.1,4.4-0.1,6.6c0,1.5-0.1,3-0.8,4.5c-7.1,3-14.7,2.4-22.2,3.1
		c-0.8,1.2-1.4,2.4-2.3,3.5c-1,1.3-1.6,2.7-1.5,4.5c0.1,0.9-0.1,1.9-0.3,2.7c-0.6,2.5-1.2,4.9-1.9,7.4c-0.7,2.5-1.5,4.8-3.4,6.8
		c-0.4,0.4-0.6,1-0.9,1.5c-1.1,1.7-2.2,3.5-3.5,5.2c-1,1.4-2.2,2.7-3.3,4c-0.7,0.9-0.9,1.8,0,3c0.9,0,2,0,3,0c11.3,0,22.7,0,34,0
		c31.5,0,63,0.1,94.4,0.1c5.1,0,10.2-0.1,15.3-0.1c0.9,0,1.9,0,2.8,0s1.9,0.1,2.8,0.2c0.8,0.1,1.7-0.1,2.6,0.3c-1,0.9-2,1-3,1
		c-3.5,0.1-6.9,0.2-10.4,0.2c-12.8,0.1-25.7,0.3-38.5,0.4c-33.2,0.1-66.4,0-99.6,0.1c-1.4,0-2.7,0-4.2,0.1c-0.7,2.4-1.5,4.6-1.9,6.8
		c-1,6.1-2.7,11.9-4.9,17.7c-0.2,0.5-0.7,1,0,1.7c0.4-0.1,0.8-0.2,1.3-0.2c1.8-0.1,2.2,0.2,2.8,1.9c0.2,0.6,0.4,1.3,0.8,1.9
		c1.2,2.1,2.2,4.3,3.6,6.3c1.4,2.1,3.1,3.9,5.7,4.7c2.8,0.8,5.5,1.9,8.1,3c4.9,2,10,2.6,15.3,2.3c0.7,0,1.3-0.1,2-0.2
		c1.6,2.2,3,4.3,3.7,6.8c0.2,0.5,0.1,1.1,0.1,1.7c0,0.2-0.3,0.4-0.5,0.4c-0.2,0.1-0.5,0-0.6-0.1c-0.4-0.6-0.8-1.1-1.1-1.7
		c-0.8-1.7-1.4-3.4-2.6-5c-4.4,0.1-8.7,0.1-12.9-1.3c-0.4,0.4-0.7,0.6-0.9,0.8c-0.3,0.3-0.6,0.7-0.9,1c-0.3,0.3-0.8,0.5-1.2,0.7
		c-0.9,0.4-1.8-0.3-1.9-1.4c0-0.6,0.9-1,0.1-1.9c-0.2,0.6-0.2,1.1-0.4,1.5c-0.3,0.9-0.6,1.8-1,2.6c-0.3,0.6-0.9,1.1-1.7,0.8
		c-0.6-0.2-0.8-0.9-0.6-1.7c0.4-1.3,1.3-2.5,0.9-4.2c-0.6-0.2-1.3-0.5-2.1-0.8c-0.5,1-0.9,1.8-1.3,2.6c-0.4,0.7-0.7,1.4-1.2,2.1
		c-0.6,0.9-1.4,1.1-2,0.8c-0.7-0.4-1-1.2-0.6-2.1c0.2-0.4,0.4-0.8,0.6-1.2c0.6-1,1.1-2,1.7-3c-0.4-0.3-0.6-0.6-0.9-0.7
		c-0.5-0.3-1-0.5-1.5-0.7c-1.1,1.1-1.5,2.5-2.3,3.6c-0.5,0.8-1,1.5-1.6,2.2c-0.4,0.4-1,0.7-1.6,0.3c-0.4-0.3-0.8-0.8-0.9-1.3
		c-0.3-1.2,0.3-2.3,0.9-3.3c0.9-1.4,2-2.8,3.2-4.5c-0.8-0.7-1.5-1.4-2.4-2.2c-1.3,1.8-2.6,3.4-3.9,5.1c-0.8,1-1.7,1.9-2.6,2.8
		c-0.5,0.5-1.2,0.8-1.9,0.4c-0.6-0.3-0.8-1.1-0.6-2.2c0.3-1.4,1-2.6,1.9-3.7c1.7-2.3,3.5-4.6,5.2-6.8c-0.5-0.9-0.9-1.8-1.5-2.5
		c-0.5-0.7-0.1-1.9-1.5-2.3c-0.6,1.6-2.2,2.1-3.6,3c-1.8,7.6-3.7,15.1-5.5,22.6c-0.2,0.8-0.3,1.6-0.3,2.4c-0.2,1.8-0.3,3.7-0.4,5.5
		c-0.1,0.9-0.1,1.9-0.1,2.8c0,1-0.2,2,0.3,3.2c1.3-0.6,2.4-1.2,3.6-1.8c1-0.5,2-0.6,3-0.2c0.6,0.3,1.4,0.4,1.9,0.8
		c2.1,1.4,4.4,1.9,6.8,2.5c6.4,1.4,12.8,2.3,19.3,0.9c4.4-0.9,8.8-2.1,12.6-4.7c2.2-1.6,3.6-3.5,4-6.2c0.1-0.9,0.4-1.7,0.8-3.1
		c0.5,0.8,1,1.2,1.1,1.7c0.5,3-0.5,5.7-2.3,8.1c-0.3,0.4-0.9,0.9-1.4,0.9c-1.3-0.1-2.2,0.7-3.1,1.3c-5.1,3.1-10.7,4.9-16.7,5.5
		c-1.4,0.1-2.8,0.1-4.1-0.1c-1.3-0.1-2.5-0.4-3.7-0.6c-2.9-0.5-5.7-0.8-8.6-1.4c-1.8-0.3-3.6-0.8-5-2.2c-0.6-0.6-1.6-0.8-2.6-1.2
		c-1,0.7-1.9,1.4-2.8,2.1c-0.9,0.7-1.9,1.3-3,2c-0.2,3.2-0.7,6.5,1.2,9.6c2.9,0.5,3,0.5,4.5,2.7c1.6,2.4,3,5,4.4,7.5
		c0.6,1.1,1.1,2.3,1.7,3.4c0.5,1,1.2,1.7,2.1,2.2c4.5,2.5,8.5,5.6,12.5,8.7c3.7,2.8,7.8,4.4,12.5,4.3c0.9,0,1.9-0.2,2.7,0.2
		c2.7,1,5.4,1.2,8.2,1.3c0.3,0,0.7,0,1,0.1c1.8,0.3,3,1.2,3.4,3c0.4,2,0.8,4.1,1,6.2c0.1,1.8-0.2,3.7,0,5.5c0.2,1.6-0.4,2.7-1.3,3.7
		c-1.5,1.8-3.4,3.1-5.5,4.2c-1.7,0.9-3.3,2-4.8,3.4c-2.8,2.7-6.3,3.8-10.1,4.1c-1.2,0.1-2.3-0.1-3.5,0c-1.3,0.1-2.6,0.1-3.8,0.5
		c-5,1.5-10,1.7-15.1,1.5c-3-0.2-5.9-1-8.1-3.4c-0.4-0.4-0.9-0.8-1.4-1c-2.9-1.5-5.4-3.6-7.9-5.6c-0.6-0.5-1.3-0.8-1.7-1
		c-2.6,0.8-4.7,1.8-7,2.1c-4.7,0.7-9.5,0.5-14-1.1c-1-0.3-2-0.7-3-0.7c-2.3,0-3.9-1-5.3-2.8c-0.7-0.9-1.8-1.5-2.4-2.4
		c-0.6-0.9-0.6-2.2-1.1-3.2c-1-2-1-4-0.2-6c0.2-0.6,0.5-1.4,0.4-2c-0.4-2.2,0.1-4.2,0.8-6.1c0.7-2,1-4,0.9-6.1
		c-0.1-1.7,0.1-3.5,0.3-5.2c0.2-1.4,0.7-2.7,2.2-3.3c1-0.3,1.5-1.2,1.7-2c0.3-1.3,0.6-2.7,0.7-4.1c0.1-3-0.2-4.2,4.2-5
		c0.1,0,0.2-0.1,0.3-0.2c0.1-0.3,0.2-0.6,0.3-1c0.4-7.7,1-15.5,2.2-23.1c0.1-0.8,0.2-1.6,0-2.4c-0.7-2.9-0.6-5.8-0.5-8.6
		c0-6.2,0.1-12.5,0.2-18.7c0-1-0.2-2.1-0.3-3.1c-0.3-1.8-0.9-3.6-1-5.4c-0.2-3.7-0.3-7.4-0.3-11.1c0-2.5,0.4-5.1,0.7-7.6
		c0.1-1.2,0.3-2.3-1.1-3.3c-0.7,0-1.6-0.1-2.5-0.1c-16.7,0-33.3-0.1-50-0.1c-19.2,0-38.4,0.1-57.6,0.1c-1.2,0-2.3,0-3.5-0.2
		c-0.6-0.1-1-0.5-0.9-1.4c0.3-0.1,0.7-0.4,1.1-0.4c1.2-0.1,2.3-0.1,3.5-0.1c26.2,0,52.3,0,78.5,0c9.7,0,19.4,0,29.2,0
		c1,0,2.1,0.3,3.1-0.6c1.5-6.2,5-11.5,9-16.5c0.9-1.2,1.9-2.4,2.7-3.6c0.4-0.6,0.9-1.2,0.9-1.8c0.2-2.6,0.5-5.3,0.3-7.9
		c-0.1-1.5,0-2.7,0.5-4c0.8-2,1.6-4.1,2.4-6.1c0.3-0.7,0.5-1.6,0.5-2.3c-0.1-2.2-0.6-4.3-1.1-6.4c-1.5-0.7-2.9-0.6-4.2-0.4
		c-2.4,0.3-4.6,0.1-6.7-0.8c-0.8,0.4-1.5,0.8-2.2,1.1c-0.4-0.3-0.9-0.5-0.9-0.8c-0.7-2.6-1-5.3,0.3-7.7c0.8-1.5,1-2.7,0.2-4.2
		c-1.1-2-1.4-4.1-1.4-6.4c0.1-3,0.1-6,0.5-9c0.5-4.1,1.2-8.2,1.9-12.3c1.5-8.4,2.1-16.8,1.7-25.2c-0.1-1.8,0.4-3.7-1.2-5.2
		c-0.3-0.3-0.2-0.9-0.2-1.3c-0.1-3.7-0.3-7.4-0.4-11.1c-0.1-5-0.1-10,0-14.9c0.1-4.7,0.3-9.5,0.4-14.2c0-0.9,0.1-1.9-0.4-2.7
		c-0.9-1.7-0.7-3.4,0-5c0.7-1.7,1.5-3.4,2.5-5c1.8-3,3.6-5.9,5.5-8.8c2.8-4.3,5.5-8.5,8.3-12.7c-0.7-2.5,0.2-4.7,0.6-6.9
		c0.1-0.5,0.3-1.2,0.7-1.5c0.5-0.4,1.2-0.6,1.6-0.8c0-3.4,0-6.6,0-9.8c0.1-4.4-0.3-8.8-0.8-13.2c-0.4-3.2-0.7-6.4-1.5-9.6
		c-1.1-4.6-2.7-9.1-3.9-13.7c-0.3-1.1-1-1.4-2-1.7c-0.3-1.1-0.6-2.2-0.8-3.3c-1.8-7.4-2.9-15-4-22.5c-0.9-6.6-1.1-13.1-0.5-19.7
		c0.1-1.1,0.2-2.3,0.2-3.5c-0.1-4.6,0.4-9.2,1.1-13.8c1.6-9.6,6.3-17.5,12.6-24.7c0.2-0.3,0.5-0.6,0.8-0.7c2.2-0.7,3.1-2.7,4.2-4.4
		c2.1-3.3,4-6.7,6.7-9.7c-1.4-4.2,1.1-8.1,1.1-12.2c-1.4-1.9-1.5-1.9-1.5-3.8c0-3-0.8-5.9-0.7-8.9c0.1-2.2-0.8-4.5-1.3-6.8
		c-0.8-3.1-0.6-6.2-0.2-9.3c0.1-1,0.1-2,0-3.1c-0.7-5.9-0.2-11.8,2-17.4c0.2-0.5,0.4-1.1,0.3-1.7c-0.2-1.8,0.6-3.1,2.1-4
		c0.4-0.3,0.7-0.8,1.2-1.2c-0.8-0.7-1.5-1.3-2.3-2c0.7-0.6,1.3-1.5,2-1.6c1.4-0.2,2.1-1.2,3-2c0.6,0.3,1.1,0.5,1.4,0.7
		c0.6-0.9,1.1-1.6,1.7-2.5c0.8,0.6,1.4,1,2.1,1.4c0.3-0.1,0.5-0.2,0.7-0.3c1.9-2.2,4.4-2.9,7.1-3.1c1.5-0.1,3-0.3,4.3-0.5
		c0.7-0.6,1.3-1.2,2-1.6c0.3-0.2,0.8,0,1.2,0c-0.1,0.8-0.2,1.3-0.3,1.8c0.2,0.1,0.4,0.3,0.6,0.3c0.7,0,1.4-0.1,2.1-0.2
		c2.3-0.4,4.5-0.5,6.8,0.5c1.4,0.6,3,0.9,4.7,0.4c1.7-0.4,3.3-0.8,5-1.3c0.8-0.2,1.6-0.4,2.2,0.7c-0.3,0.6-0.7,1.2-1.2,2.1
		c0.8-0.1,1.5-0.2,2.2-0.2c0.8,0,1.6,0.2,2.4,0.3c1.4,0,3.1-0.6,3.9,1.2c0,0.1,0.4,0.1,0.7,0c1.2-0.3,1.7,0.4,2,1.3
		c0.2,0.6,0.4,1.3,0.6,2.1c1.3-1,1.7-2.9,3.5-3.4c0.4,0.6,0.7,1.2,1.2,1.6c0.6,0.5,1.3,0.7,1.8,1c-0.1,1.2-1.4,1.2-1.6,2.4
		c0.8-0.2,1.3-0.3,1.9-0.4c0.6-0.1,1.1-0.3,1.7-0.4c1.8-0.3,3.1,1.1,2.8,2.9c-0.2,1-0.6,2.1-0.4,3c0.2,0.8,0.3,1.4-0.4,1.7
		c-0.9,0.5-0.3,1.5-1.1,2.3c-2.7,0.7-5.6,1.5-8.6,2.3c-0.3,1.3-0.4,2.5,0,3.7c0.6,2.2,1.3,4.4,1.8,6.7c0.5,2.5,0.7,5.1-2.1,6.9
		c1.4,3.5,2.7,6.9,4.1,10.3c1.2,2.9,0.9,4-1.7,5.8c-0.3,0.2-0.5,0.4-0.9,0.7c0.1,0.8,0.1,1.5,0.3,2.3c0.2,0.9-0.1,1.6-0.9,2
		c-0.4,0.2-0.7,0.5-1.1,0.7c0.8,1.8,1.1,3,0.7,4c-0.5,1.3-1.2,2.5-1.8,3.7c1.5,5.3,0.3,7.6-5.1,10.1c-2.5-0.3-5.1-0.6-7.7-0.9
		c-0.8,3-1.6,5.8-2.4,8.7c-0.2,0.8-0.3,1.6-0.3,2.4c0.1,3,0.2,6,0.3,9c0.2,0.2,0.3,0.4,0.5,0.4c5.2,2.4,9.9,5.5,13.5,10.1
		c1,1.3,2.6,2.3,4.1,3c1.2,0.6,2.7,0.7,4.1,0.7c3.9,0,7.6,0.8,11.2,2c3.9,1.3,7.9,2.7,11.9,4.1c2.3-1.3,4.9-1.9,7.6-1.4
		c1,0.2,2.1,0,3.1-0.2c6.3-0.8,12.6-1.3,19-1.5c2.8-0.1,5.5,0.3,8.3,0.4c4.3,0.2,8.5,0.8,12.6,2.3c0.6,0.2,1.3,0.4,2,0.5
		c3.6,0.3,7.1,0.6,10.7,0.7c3.1,0.1,6.3,0.1,9.4,0c2.9-0.1,5.7-0.4,8.6-0.5c0.5-1.4,0.3-2.6,0.3-3.9c0-30.9,0.1-61.8,0.1-92.7
		c0-10.4,0-20.8,0.1-31.2c0-1.1,0.1-2.3,0.3-3.4c0.1-0.5,0.6-0.6,1.1-0.4c0.7,1.1,0.4,2.5,0.4,3.7c0.1,41.1,0.1,82.2,0.2,123.2
		c0,0.9,0,1.9,0,2.8c0,0.6,0.3,1.3,0.4,1.9c4.1,0.5,5.5,0.4,7.8-0.3c0.1-3.2,0.1-6.4,0.3-9.6c0.1-2.9,0.1-5.8,0.7-8.6
		c0.8-3.2,0.9-6.7,2.3-9.8c0.2-0.5,0.2-1.1,0.2-1.7c0.2-3.1-0.4-6.2,1-9.2c0.1-0.3,0-0.7,0-1c0.1-2,0.3-3.9,0.4-5.9
		c0.1-1.2,0.3-2.3,0.9-3.3c2.8-0.8,3.1-0.7,4.1,1.4c0.5,1,1,2.1,1.7,3c1.4,1.9,1.7,4,1.6,6.2c-0.1,1.3-0.3,2.5-0.5,3.8
		c-0.7,4.3-1,8.7-0.4,13.1c0.3,2.3,0.2,4.6,0.1,6.9c0,0.8-0.3,1.7-0.8,2.2c-0.9,0.9-1.2,1.9-1.3,3.1c-0.1,1.4-0.5,2.7-2,3.4l0.1,0.1
		c-0.4-0.7-0.7-1.3-1-1.8c0.8-1.5,1.6-3,2.6-4.4c0.9-1.5,1.9-2.9,1.4-4.5c-0.8-0.9-1.6,0.8-2.4-0.6c0.6-0.4,1.2-0.8,1.8-1.2
		c-0.1-4.4-0.2-8.5-0.2-12.7c0-0.3,0-0.7,0.1-1c0.7-2.1,0.3-4.4,0.5-6.5c0.2-1.6-0.4-2.7-1.5-3.7c-0.4-0.4-0.9-0.8-1.3-1.1
		C364.3,92.3,363.9,91.9,363.4,91.3z M181.4,34.3c0,0,0.1,0.2,0.1,0.3c0.1-0.1,0.4-0.1,0.4-0.3c0.1-0.2,0-0.4,0-0.6
		c0.1,0,0.2-0.1,0.3-0.1c-0.1,0.1-0.1,0.1-0.2,0.2C181.9,33.9,181.6,34.1,181.4,34.3z M195,57c0,0.1,0,0.1,0,0.1
		c0.1,0.1,0.1,0.1,0.2,0.2c0.3,0.5,0.5,1,0.8,1.4c-1.4-0.5-2.9-1-4.3-1.5l0.1,0.1c-0.3-1.1-1.3-1.1-2.2-1.7c-1.4,1.7-2.8,3.2-3.9,5
		c-1.4,2.2-1.3,4.7,0.8,6.6c1.5,1.4,3.1,2.7,4.3,4.5c0.9,1.3,2.5,2,4.2,2.5c0.6-0.2,1.3-0.5,2-0.8c0.2,2-0.4,2.8-1.7,2.6
		c-1.9-0.2-3.5-1.1-4.8-2.5c-0.9-0.9-1.4-2.5-3-2.6c-0.2,0-0.3-0.6-0.5-0.8c-0.5-0.7-1.1-1.3-2-1.7c0.4,1,1,2,1.1,3.1
		c0.2,1.1-0.1,2.3-0.2,3.5c-2.6,3.3-4.1,7-4.6,11.3c-0.3,2.6-0.9,5.2-1.5,7.8c-0.4,1.7-1.1,3.3-1.2,5c-0.1,1.2-0.6,2.2-1.6,3
		c-0.4,0.3-0.8,0.8-1.1,1.3c-1.9,3.4-3.9,6.8-5.8,10.3c0,0.1,0,0.2,0,0.5c0.4-0.1,0.8-0.2,1.2-0.4c1-0.4,1.9-0.9,2.8-1.3
		c3.9-1.6,7.9-2.5,12.1-2.5c5,0,9.9,0.6,14.8,1.6c1.5,0.3,3,0.6,3.7,2c3.6,0.4,7.1,0.7,10.8,1.1c0.8-1.9-0.2-4.2,0.6-6.2
		c0.8-2,0.7-4.1,1.2-6.1c0.6-2.1,0.9-4.3,1.4-6.6c-1-1.1-2.1-2.2-3.1-3.3c0.2-0.9,0.7-0.6,1.1-0.5c0.6,0.2,1.3,0.5,1.9,0.8
		c2.4,1.3,5.1,1.6,7.7,1.8c1.6,0.1,3.4-0.5,5-1c1.3-0.4,2.1-2.5,1.9-4.1c-0.1-0.7-0.3-1.3-0.5-2c-0.2-1.3-0.1-2.5,0.7-3.6
		c0.5-0.7,0.8-1.6,1.2-2.4c-0.5-0.6-0.9-1-1.2-1.4c-0.3,0-0.6-0.1-0.7,0c-0.6,0.3-1.2,0.7-1.8,0.9c-0.6,0.2-1.5-0.2-1.4-0.5
		c0.2-0.5,0.5-1,1-1.2c0.6-0.3,1.4-0.3,2-0.5c1.1-0.3,2.2-0.7,3.1-1.9c-0.1-1-0.2-2.1-0.3-3.4c-1.6,0.3-3.1,0.5-4-1.1
		c-0.4-0.7-0.2-1.3,0.4-2c1,0,1.4,1.4,2.6,1.1c0.8-0.2,1.8,0.1,2.7,0.1c1.2,0,2.1-1.2,1.7-2.5c-0.4-1.4-1-2.8-1.6-4.2
		c-0.6-1.5-1.4-2.9-2.1-4.3c-1.1-2.2-1.5-4.3,0.6-6.3c1.2-1.2,1-2.8,0.4-4.2c-0.9-2.2-1.3-4.4-1.7-6.7c-0.2-1.1-0.2-2.3-0.3-3.7
		c-0.4-0.6-2-0.3-2-1.8c1.5,0.5,2.8,0.6,4.3-0.2c1.4-0.7,3-1.1,4.5-1.7c1.2-0.5,2.2-1.2,2.8-2.4c0.2-0.4,0.1-0.9,0.2-1.3l0.2,0
		l-0.1,0.1c-2.1,2.3-4.8,3.4-7.8,4c-1.5,0.3-2.8,0.8-4,1.6c-1.9,0.2-3.9,0.5-6.1,0.8c0.7,0.5,1.1,0.9,1.6,1.3
		c-2.1,2-4.4,1.4-6.9,0.7c-0.9,2.8-3.4,4-5.4,5.7c-2.6,2.2-5.2,4.5-7.7,6.9c-1.9,1.9-3.3,4.1-4.2,6.7c-0.6,1.8-0.5,3.4,0.6,4.9
		c0.3,0.4,0.6,0.7,1,1.2c-1.4,0.7-2.1-1-3.5-0.9c-0.3,0.5-0.6,1.2-1,2c-1.2-1.2-1.9-2.6-2.3-4.2c-0.4-1.6-1-3-2.2-4.2
		c0.2-0.2,0.5-0.5,0.5-0.6c-0.1-0.6-0.6-0.8-1.2-0.6C195.1,57.3,195.1,57.2,195,57z M192.5,22.7c0.9,0.2,1.5-0.1,1.9-0.8l0.2-0.1
		l-0.1,0.1C193.8,21.9,192.9,21.3,192.5,22.7z M186.5,43.8c-0.3,1.1,0.6,1.3,1.1,1.8c0.3,0.6,0.7,1.2,1.4,1.3c0.1,0,0.4-0.2,0.5-0.3
		c0.1-0.2,0-0.6-0.1-0.6c-0.6-0.1-1.3-0.2-1.9-0.3C187.7,44.8,187.3,44.2,186.5,43.8z M211,46.4c1.6-1.4,3.4-1.9,4.2-3.7l0.2-0.1
		l-0.1,0.1C212.1,43.7,212,43.8,211,46.4z M230.6,25.7c-1.8-0.2-3.3,0.9-5.2,0.6c0.2,0.4,0.3,0.6,0.4,0.8c1.7-0.9,3.3-0.4,4.9,0.4
		c0.1,0.9,0.3,1.8,0.5,2.9c0.7-0.3,1.4-0.4,1.6-0.8c0.4-0.5,0.4-1.2,0.8-2.2c-0.8,0.3-1.2,0.5-1.7,0.6c-0.4,0-0.8-0.2-1.3-0.4
		C230.6,27,230.6,26.4,230.6,25.7z M224.6,273.8c1.2-0.5,1.1-1.3,0.9-2.2c-0.2-0.5-0.7-0.5-1.1-0.4c-0.8-1.1-2-0.8-3.3-1.1
		c-0.2,0.8-0.4,1.4-0.6,2.2c0.6,0.3,1.1,0.6,1.6,0.9c0.4-0.2,0.7-0.2,0.8-0.3c0.3-0.8,0.8-1.4,1.5-1.8
		C224.1,272,224.3,272.9,224.6,273.8z M307,138.2c1,0.1,2.1,0,3.3,0c-1.4-0.4-2.6-0.8-3.8-1c-1.2-0.2-2.5,0-3.8,0
		c-0.6-0.2-1.3-0.6-1.9-0.6c-7.6-0.4-15.3-0.5-22.9,0.3c-1.8,0.2-3.7,0.2-5.5,0.3c-1,0.1-2.1-0.1-2.9,0.7c0,0.7,0.6,0.6,0.9,0.7
		c1.8,0.7,3.6,1.5,5.2,2.6c1.2,0.8,2.5,1.3,3.7-0.1c0.2-0.2,0.6-0.4,0.9-0.5c4.9-1.3,9.8-2.7,14.9-3c2.5-0.1,5.1-0.4,7.6-0.6
		C304.1,138.1,305.6,138.1,307,138.2z M227.2,172.5c-0.2,0.5-0.4,0.8-0.4,1.1c0.2,2.6-0.7,4.8-2,6.9c-0.7,1.2-1.2,2.6-2.2,3.5
		c-1.6,1.4-3.5,2.7-5.4,3.7c-6.5,3.5-13.3,4.5-20.5,2.7c-1.3-0.3-2.6-0.9-4.2-1.5c-1,0-1.9,2.1-3.5,0.7c0.2-0.6,0.3-1.3,0.5-2
		c-0.5-0.3-1-0.6-1.5-0.9c-4.9-2.7-8.7-6.5-11.5-11.3c-5.2-9-7.1-18.7-6-29c1-9.4,4.8-17.5,9.9-25.3c1.5-2.3,3.5-4.3,5.7-6
		c0.5-0.4,1.2-0.8,2-0.1c-0.2,0.4-0.4,0.8-0.6,1.1c-6.6,6.6-10.4,14.6-12.5,23.6c-0.9,3.9-1.3,8-1.2,12.1c0.1,7.9,1.8,15.4,6.1,22.1
		c4.6,7.4,11.2,12,19.8,14.1c4.8,1.1,9.1,0.1,13.5-1.4c4.3-1.5,7.5-4.4,10.2-8.1c1.3-1.8,2.2-3.8,1.8-6.3c-1.9-0.6-3.9-1.1-5.8-1.9
		c-1.8-0.7-3.6-1.6-5.3-2.6c-1.8-1-3.4-2.3-5.3-3.5c-0.7,2.1-1.3,4-1.9,6c-1,3.2-2.7,6.1-4.8,8.8c-0.8,1.1-1.9,2-3,2.9
		c-0.4,0.3-1,0.3-1.5,0.4c-0.8-0.9-0.6-1.7-0.2-2.4c0.6-1.2,1.4-2.4,2.1-3.6c2.8-4.3,5.3-8.7,7.1-13.5c0.1-0.3,0-0.8,0-1.5
		c-1.3,0.6-2.3,1.1-3.3,1.5c-1,0.3-2,0.7-3,0.8c-1.1,0.1-2.3,0-3.5,0c-1.8,1.3-3.5,2.7-5.7,3.1c-0.1,0-0.3-0.2-0.7-0.4
		c0.6-1,1.7-1.5,2.7-2.1c0.9-0.5,1.8-1,2.3-2c0.3-0.5,1-0.9,1.7-1.2c2.7-1.2,6.7-1.8,9.9-1.7c0.4,0.3,0.9,0.6,1.3,1
		c4.5,4.5,10.2,6.7,16.3,8c6,1.2,12.1,1.8,18.2,2.1c3.7,0.2,7.4,0.4,11.1,0.6c2.4,0.2,4.8,0.1,7.3-0.1c0.2-0.6,0.3-1.1,0.4-1.7
		c0.2-0.1,0.4-0.3,0.6-0.2c1,0.1,2.1,0.3,3,0.5c3.9,1,7.9,1.8,12,1.8c0.7,0,1.4,0,2.1,0.2c1.6,0.3,3.2,0.2,4.8-0.2
		c1.6-0.4,3.2-0.5,4.7-0.7c0.7,0.8,1.2,1.7,1.9,2c0.9,0.4,2,0.5,3,0.5c8.4,0,16.9,0.1,25.3,0c7.8,0,15.4-1.7,22.8-3.8
		c8.3-2.4,16.7-4.6,25.1-6.8c0.8-0.2,1.6-0.3,2.5-0.4c-0.1,0.5-0.2,0.9-0.3,1.4c2.7-0.3,5.3-0.6,8-0.8c2.2-0.2,4.4-0.5,6.6-0.5
		c3.6,0,7.1-0.8,10.6-1.8c3.5-1,5.9-3.4,7.7-6.6c1.4-2.6,2-5.3,2.2-8.2c0.2-3.6,0.6-7.1,0.9-10.7c0.1-1.1,0-2.3,1.4-2.9
		c0.4-0.2,0.6-0.9,0.8-1.5c0.9-3.8,2.3-7.5,2.5-11.5c0.1-1.3,0.5-2.5,0.7-3.8c0.2-1.2-0.2-2.2-1.3-2.9c-2.6,3.4-3.5,5.2-4.2,8.6
		c-0.7,3.1-2.2,5.8-3.8,8.5c-0.1,0.2-0.4,0.2-0.6,0.3c-0.6-0.2-0.5-0.7-0.4-1.1c1.4-3.7,2.8-7.3,4.4-10.9c0.5-1.2,1.3-2.2,2-3.3
		c1.1-1.7,1.9-3.3,1.9-5.4c0-1.1,0.4-2.3,0.6-3.4c0.2-0.9,0.5-1.8,0.5-2.7c0.1-0.8,0.1-1.7-0.2-2.4c-0.2-0.7-0.8-1.4-1.3-2
		c-0.6-0.7-1.2-1.4-2.5-1.5c-0.3,1.1-0.6,2.2-0.8,3.3c-0.6,3.6-1.7,6.9-3.1,10.3c-1.3,3.2-2.3,6.6-3.4,9.8c-0.2,0.7-0.6,1.4-1,2.6
		c-0.4-0.8-0.7-1.2-0.7-1.6c0.1-0.9,0.2-1.8,0.5-2.7c1.7-5.1,3.6-10.3,5.3-15.4c0.5-1.6,0.7-3.4,1.1-5.1c0.3-1.1,0.7-2.1,1.1-3.6
		c-0.5-1-1.7-1.9-3.2-2.7c-0.2,0.6-0.6,1.1-0.5,1.6c0.1,1.9-0.5,3.7-1.1,5.4c-0.3,1-0.6,2-0.8,3c-0.3,2.2-0.9,4.3-1.7,6.3
		c-1.1,2.9-1.9,6-2.8,8.9c-0.2,0.5-0.3,1.1-0.4,1.6c-0.7,0.1-1-0.3-1-0.8c0-0.9,0.1-1.9,0.3-2.7c0.9-3,1.8-6,2.7-8.9
		c0.7-2.2,1.2-2.1,0.7-6.2c-0.5,1.9-0.9,3.4-1.4,4.8c-0.7,2.1-1.4,4.2-2.1,6.2c-0.6,1.7-1.3,3.5-1.9,5.2c-0.7,2-1.3,3.9-2,5.9
		c-0.7,2.1-1.1,4.1-0.8,6.4c0.6,4.5-0.3,9-0.8,13.5c-0.1,1.4-0.9,2.6-1.5,3.8c-0.9,1.7-2,2.5-3.9,1.9c-0.5-0.2-1.1-0.1-1.7,0.1
		c-2,0.5-3.9,0.5-5.9,0.1c-5.4-1-10.8-1.2-16.2-1.7c-7.1-0.7-14.3-1.5-21.3-2.6c-3.9-0.6-7.8-1-11.6-2c-0.6-0.1-1.1-0.1-1.7-0.2
		c-4.6-0.4-9.2-0.8-13.8-1.2c-4.4-0.4-8.8-0.4-13.2,0c-5.7,0.5-11.2,1.5-16.7,3c-2.6,0.7-5.3,0.2-7.8-0.8c-4.4-1.6-8.8-3.4-13.2-5.2
		c-3.8-1.5-7.4-3.3-11.4-4.2c-0.4,0.3-0.9,0.6-1.5,1c-3.5-0.8-7.1-1.5-10.9-2.4c-1.1-2-3.2-3.4-5.4-4.8c-1.7-1.1-3.5-2.2-4.3-4.3
		c-0.3-0.7-1.1-1.2-1.7-1.6c-5.2-3.4-10.9-5.5-17.3-5.3c-1.3,0-2.6,0-3.8,0.1c-0.8,0.1-1.5,0.5-2.3,0.7c-0.6,0.2-1.3,0.7-1.9,0.6
		c-2.2-0.5-4.1,0.3-6,1.2c-0.6,0.3-1.2,0.5-2,0.8c0.2-2.1,2.4-2,3-3.5c-0.4-1-1.9-0.6-2.5-1.6c0.2-0.2,0.3-0.4,0.4-0.4
		c1.7,0.1,3.5,0,5.2,0.3c1.7,0.3,3.4,0.5,5.6,0c-1.2-0.4-1.9-0.8-2.6-0.9c-4.4-0.8-8.9-1.4-13.4-1.4c-3.2,0-6.3,0.4-9.2,1.7
		c-3.4,1.5-6.7,3.1-10,4.7c-1.7,0.9-2.9,2.3-3.7,4.1c-1.3,2.8-2.7,5.6-3.8,8.6c-2.4,6.5-4.2,13.2-5.3,20.1c-0.2,1.4-0.3,2.8-0.3,4.1
		c0,7.3,0.3,14.6,1.5,21.8c0.6,3.5,1,7.1,1.5,10.6c0.3,2.3,0.8,4.5,1.7,6.7c3.8,9.6,6.8,19.4,8.7,29.6c0.5,2.7,0.5,5.5,0.8,8.3
		c0,0.2,0.1,0.5,0,0.7c-1.1,2.5-0.4,5-0.2,7.5c0.2,3.1,0.6,6.2,0.9,9.1c6.8,2.7,13.4,5.5,20.1,8.1c3.6,1.4,7.2,2.5,10.9,3.5
		c3.7,1.1,7.3,2.4,10.5,4.4c2.5,1.6,5.4,1.9,8.3,2.6c0-6.2-0.9-12.1-5.3-17.4c1,0.1,1.5,0.1,1.8,0.3c4,2.5,5.7,6.2,6.2,10.7
		c0.1,1.1,0.1,2.3,0,3.5c-0.2,1.1-0.6,2.2-0.9,3.4c1.4,0.3,2.7,0.6,4.1,0.9c0.8,0.2,1.6,0.1,2.1-0.8c0.4-0.7,0.5-1.3,0-1.9
		c-0.8-1-0.8-2-0.5-3.2c1.5-5.5,2.9-11,4.2-16.5c1.8-7.4,3.4-14.9,3.6-22.6c0-0.6-0.1-1.3,0.2-1.7c1.1-1.3,0.8-2.8,0.8-4.3
		c0-6.8,0-13.7-0.2-20.5c-0.1-2.9-0.7-5.7-1.2-8.6c-0.4-2.2-0.2-4.4,0-6.6c0.1-0.7,0.3-1.4,1.1-1.6c1.4-0.4,1.5-1.7,1.8-2.7
		c0.4-1.3,0.8-2.7-0.4-4.1C233.4,173.1,230.2,173.2,227.2,172.5z M162.8,549.5c0.1-0.7,0.4-1.4,0.4-2c-0.1-1.9,1-3.5,1.5-5.3
		c0.2-0.7,1-1.2,1.6-1.7c1.1-0.9,2.2-1.7,3.3-2.6c0.9-0.8,1.2-1.8,0.6-2.8c-1.2-1.6-1.2-3.5-1.2-5.3c0-2.9,0-5.8,0-8.7
		c0-0.9-0.1-1.8,0-2.8c0.1-2.2,0-4.4,0.4-6.5c1.2-5.7,2.6-11.3,3.9-16.9c0.2-0.7,0.5-1.4,0.4-2c-0.5-2.1,0.4-3.9,1.2-5.6
		c2.2-5.1,4.4-10.2,6-15.5c0.2-0.6,0.4-1.1,0.5-1.7c0.3-0.9-0.4-1.2-1.1-1.7c2.2-3.9,3.4-8.2,4.5-12.5c-0.6-0.7-1.3-1.4-1.7-2.1
		c-0.4-0.8-0.5-3.5-0.3-4.8c1.7,0.7,0.9,2.7,2,3.7c0.6,0.1,0.8-0.4,0.8-0.8c0.1-1.4,0.2-2.8,0.3-4c3.8-3,6.8-6.6,9.8-10.2
		c0.3-0.4,0.6-1,0.7-1.6c1-3.7,2-7.4,2.9-11.1c0.1-0.5,0-1.1,0-1.7c-0.4-0.2-0.7-0.5-1-0.6c-2.4-0.6-2.7-1.3-1.2-3.2
		c0.7-0.9,1.5-1.7,2.2-2.6c0.7-0.9,1.4-1.8,2.2-2.9c-1.4-0.6-2.6-0.8-3.8-1c-4-0.7-7.9-1.8-11.7-3.3c-1.3-0.5-2.6-0.8-4-0.8
		c-2.8,0.1-5.5-0.6-8.2-1.2c-0.8-0.2-1.6-0.4-2.4-0.5c-1.1,1.7-0.9,3.6-1.4,5.3c-0.6,1.9,0.8,3.6-0.1,5.4c-1.4-1.6-2.2-3.4-2.4-5.5
		c-0.1-0.9,0-1.9-0.1-2.8c-0.1-1.1-0.2-2.3-0.3-3.4c-0.6-0.3-0.9-0.6-1.4-0.7c-1.1-0.3-2.2-0.6-3.6-1c0,0.6-0.2,1-0.1,1.4
		c0.3,1.6,0.8,3.1,1,4.7c1,6.8,0,13.4-2.7,19.7c-1.1,2.6-2.4,5.2-3,8.3c-0.6-0.2-1.1-0.4-1.7-0.6c-3.4,3.5-6.1,7.5-7.9,12.1
		c-0.9,2.2-1,4.7-1.4,7.1c-0.6,4.1-0.6,8.3-0.9,12.4c-0.3,5.3,0.2,10.6,0.6,15.9c0.1,1.2,0.1,2.3,0.1,3.5c0.2,6.7,0.3,13.4,0.7,20.1
		c0.3,6.3-0.2,12.5-0.5,18.7c-0.2,4.3-0.7,8.5-0.9,12.8c-0.1,2.5-0.4,5.1,0.9,7.5C151.8,550.3,157.2,550,162.8,549.5z M168.2,559.8
		c0.2-1.7,1.1-2.9,2.2-3.8c1.7-1.5,3.6-2.9,5.5-4.2c1.3-0.9,2.7-1.7,4.2-2.6c-1.2-3.9-2.7-7.5-4.8-10.9c-0.2-0.3-0.8-0.5-1.3-0.8
		c-2.2,2.5-5.3,3.9-7.5,6.5c-0.8,1-1.3,1.9-1.2,3.1c0.1,2.5,0.2,5.1,0.4,7.6c0.1,1.2,0.1,1.2-0.6,3.1c-0.6-0.1-1.2-0.3-1.8-0.3
		c-0.6,0-1.1,0.3-1.6,0.5c-2.2,0.9-4.4,1.4-6.7,1.4c-3.5,0.1-6.6-1.1-9.3-3.2c-0.5-0.3-0.9-0.8-1.2-1.2c-0.3-0.5-0.7-1.1-0.5-1.6
		c0.1-0.6,0.7-1,1.2-1.7c-0.6-0.4-1.3-0.9-2.1-1.5c-0.8-0.6-1.4-1.2-1.4-2.3c0-0.9,0.6-1.4,1.2-2c0.1-0.1,0.1-0.2,0.2-0.5
		c0-0.7-0.1-1.6-0.2-2.5c0-0.2-0.2-0.4-0.4-0.6c-0.9-0.3-1.6,0.1-1.8,1.1c-0.2,0.9,0,1.9-0.1,2.8c-0.2,1.5-0.4,3-0.8,4.4
		c-0.9,2.9-1.5,3.3-4.5,4.2c-0.4,1.8-0.5,3.7-0.1,5.4c0.9,4,0,7.9-1.4,11.5c-1.3,3.4-1.1,6.2,1.3,9c0.5,0.5,0.8,1.1,1.2,1.7
		c0.7,1.1,1.7,1.8,2.9,2.3c5.3,2.1,10.7,2.7,16.3,2.2c1.6-0.1,3.2-0.3,4.2-2c0.2-0.4,1-0.6,1.5-0.7c1-0.1,2.1-0.1,2.9-0.2
		c2.7,2.1,5.2,4.2,7.9,6c4.6,3.1,9.5,5.3,15.1,5.3c0.6,0,1.2,0.1,1.7,0c6.3-1.2,12.9-0.9,19.1-3c1.5-0.5,2.9-0.7,4.3,0
		c3.1-1.7,6-3.3,8.2-5.9c0.9-1,2.1-1.8,3.2-2.6c1.1-0.9,1.7-2,1.6-3.6c-0.3-3.3,0-6.7-0.9-10c-0.1-0.3-0.2-0.6-0.4-1.2
		c-0.9,0-1.8-0.1-2.6-0.1c-2.2,0.1-4.4-0.1-6.5-1c-0.5-0.2-1.1-0.3-1.7-0.4c-3.7-0.2-7.3-0.9-10.9-2c-0.5-0.2-1.1-0.2-1.8-0.3
		c-0.6,1.1-1.1,2.1-1.7,3.1c-0.4,0.7-0.9,1.3-1.4,1.9c-0.5,0.6-1.4,0.6-1.9,0.2c-0.6-0.4-1-1.1-0.8-1.8c0.2-0.7,0.5-1.3,0.8-1.9
		c0.7-1.1,1.4-2.1,2.1-3.2c-0.1-1.1-0.5-2-1.7-2.3c-0.2,0.1-0.5,0.1-0.6,0.3c-1.4,1.5-2.8,3-4.3,4.6c-0.4,0.4-0.8,0.8-1.3,1.2
		c-1,0.7-1.9,0.8-2.5,0.2c-0.6-0.6-0.9-1.7-0.4-2.6c0.5-0.9,1.1-1.8,1.8-2.5c1.3-1.3,2.8-2.4,4.3-3.8c-1-0.8-1.9-1.4-2.9-2.2
		c-1,0.8-1.9,1.6-2.9,2.4c-1,0.8-2.1,1.5-3,2.3c-1,0.8-1.8,1.8-2.7,2.7c-0.9,0.8-1.5,2-3,2.5c-0.2-0.4-0.6-0.8-0.7-1.2
		c-0.3-1.8,0.2-3.5,1.3-4.9c0.8-1,1.8-1.8,2.7-2.7c0.7-0.6,1.4-1.1,2.3-1.8c-0.7-0.9-1.4-1.6-2.1-2.5c-4.2,2.4-7.5,5.6-11.3,8.4
		C170,561.2,169.1,560.5,168.2,559.8z M234.3,387.8c-1-2.7-1.1-5.4,0.5-8c0.7-1.1,0.8-2.4,0.8-3.7c-0.4-10,0.3-19.9,0.9-29.8
		c0.1-1.5,0.2-3,0.4-4.5c0.6-4.2-0.9-8.2-1.2-12.5c-1,1-0.6,2.1-0.8,2.9c-0.2,0.9-0.3,1.8-0.5,2.7c-0.5,3.3-1,6.6-1.4,10
		c-0.2,1.8-0.4,3.7-0.2,5.5c0.7,8.1,0.1,16.2-1,24.2c-0.8,5.4-1.5,10.7-2.3,16.1c-0.1,0.7-0.1,1.4-0.1,2.2c2-0.2,3.7-0.7,5.4-1.5
		C235.2,390,234.7,388.9,234.3,387.8z M163.1,552.4c-0.4-0.1-0.6-0.3-0.8-0.2c-3.8,1.5-7.7,1-11.6,0.8c-0.5,0-0.9-0.1-1.4-0.2
		c-0.1,0-0.2,0.1-0.3,0.2c0.1,0.9,0.2,1.7,0.3,2.8c4.6,1.5,9.1,0.9,13.9-0.6C163.2,553.9,163.1,553.1,163.1,552.4z M210.1,268.1
		c-0.1,0.4-0.2,0.9-0.3,1.3c2.2,1.3,6,2.4,9.1,2.5c0.2-0.3,0.4-0.5,0.5-0.8c0.1-0.3,0.1-0.6,0.1-1.2c-3-1.1-6-1.8-9-2.5
		C210.3,267.7,210.1,267.9,210.1,268.1z M160.3,416c-1.2,3.4-1.6,7.5-0.9,10.9C161.8,423,162,419.9,160.3,416z M174.5,257.7
		c0.4,0.2,0.9,0.5,1.5,0.8c0.5-1,1-1.7,1.2-2.6c0.3-0.8-0.2-1.3-1.4-1.4C175.5,255.7,175.1,256.6,174.5,257.7z M193,30.4
		c-1.1,0.1-0.8,1.2-1.5,1.6c2.2,1.4,2.2,1.4,3.5,0.9C194.3,32,193.7,31.2,193,30.4z M227.6,36.1c-0.4-0.5-0.5-0.9-0.7-0.9
		c-1.6-0.2-3.1,0.2-4.6,0.7c0,0,0,0.2,0,0.5C224,36.6,225.6,36.4,227.6,36.1z M212.4,35.1c-3-1.8-3-1.8-3.8-1.3
		c1,0.8,1.9,1.5,2.9,2.3C211.9,35.8,212.1,35.5,212.4,35.1z M234,293.2c0.2,1,0.3,2,0.7,2.9c0-0.9,0.1-1.8,0-2.7
		c-0.2-1.2-0.6-2.4-0.9-3.8C233.3,291,233.8,292.1,234,293.2z M200.2,33c-1.6,1.4-1.6,1.4-1,2.8c0.7-0.3,1.3-0.6,2.1-1
		C200.9,34.1,200.5,33.6,200.2,33z M215.8,40.1c0.7,0.7,1.1,0.1,1.5-0.1c0.7-0.5,1.2-1,1.8-1.6c0.1-0.1,0.1-0.2,0.1-0.2
		c-0.1-0.1-0.2-0.1-0.4-0.3C217.8,38.6,216.8,39.3,215.8,40.1z M181,45.7c-1.6,0.8-1.6,0.8-1.3,2.2C181.5,47.1,181.5,47.1,181,45.7z
		 M233.1,288.6c0.3-2.1,0.8-3.4-0.9-4.4C232.5,285.5,232.7,286.6,233.1,288.6z M216.6,34.7c-0.1,0.8-0.2,0.8,0.7,2.3
		C217.9,36.3,217.9,36.3,216.6,34.7z M179.2,61.7c1.1-1.2,1.1-1.2,0.3-2.2C179.4,60.3,179.4,60.8,179.2,61.7z M237.6,26.9
		c0.5-0.2,1.1-0.4,1-1.1c0-0.1-0.1-0.2-0.2-0.2c-0.7-0.3-0.9,0.4-1.2,0.8c-0.1,0.1,0,0.2-0.1,0.6C237.5,27,237.6,27,237.6,26.9z
		 M190.3,54.7c0.4,0.1,0.8,0.1,1.2,0.2c0-0.3,0.2-0.7,0-0.8c-0.3-0.3-0.7-0.5-1.1-0.5c-0.2,0-0.4,0.4-0.6,0.6
		C190,54.4,190.1,54.6,190.3,54.7z M219.9,23.3c-0.4,0-1-0.2-1,0.5c0,0.2,0.2,0.5,0.3,0.6c0.5,0.2,0.8,0,1.1-0.5
		c0.1-0.1,0.1-0.2,0.1-0.3C220.3,23.5,220.1,23.3,219.9,23.3z M185.9,31.7c-0.4,0.7-1.3,0.9-0.7,1.9
		C186.1,33.3,186.3,32.8,185.9,31.7z M203.7,46.6c0.3-0.3,0.5-0.6,0.7-1c0,0-0.1-0.2-0.2-0.2c-0.6-0.2-0.8,0.3-1,0.7
		c-0.1,0.1,0,0.2-0.1,0.7C203.4,46.6,203.6,46.6,203.7,46.6z M185.8,51.4c1.2-0.9,1.2-0.9,0-1.6C185.8,50.4,185.8,50.9,185.8,51.4z
		 M178,50.7c-0.5,0.4-0.7,1.1-0.3,1.4c0.1,0.1,0.2,0.1,0.3,0.1c0.5-0.1,0.8-0.7,0.6-1.3c0-0.1-0.1-0.2-0.2-0.3
		C178.2,50.7,178.1,50.7,178,50.7z M188.4,27c-0.4,0-0.8,0.6-0.6,0.9c0.1,0.1,0.5,0.3,0.6,0.2c0.2-0.2,0.4-0.4,0.5-0.7
		C188.7,27.2,188.6,27,188.4,27z M199.2,47.6c0,0.2,0.4,0.5,0.6,0.7c0.2-0.2,0.4-0.3,0.4-0.5c0-0.3-0.1-0.5-0.3-1
		C199.6,47.2,199.2,47.4,199.2,47.6z M224.3,38.6c0-0.1,0-0.3,0-0.4c-0.5-0.1-1-0.1-1.5-0.2c0,0.1,0,0.3,0,0.4
		C223.3,38.4,223.8,38.5,224.3,38.6z M183.2,63c-0.6,0.9-0.3,1.3,0.6,1.4C183.6,64,183.4,63.5,183.2,63z M199.5,52.6
		c0.9,0.2,1-0.3,0.8-1.1C200,51.8,199.8,52.1,199.5,52.6z M398.6,95.7c0-0.2-0.2-0.4-0.3-0.5c-0.1,0.2-0.2,0.4-0.2,0.6
		c0,0.2,0.2,0.4,0.2,0.5C398.5,96.1,398.6,95.9,398.6,95.7z M361.6,100.3c0-0.1,0.1-0.2,0.1-0.3c0-0.2-0.1-0.4-0.2-0.6
		c-0.1,0.2-0.1,0.4-0.2,0.6C361.5,100.1,361.6,100.2,361.6,100.3z M207.7,50.2c0.2-0.2,0.4-0.4,0.7-0.7c-0.1-0.1-0.4-0.3-0.4-0.3
		c-0.3,0.2-0.5,0.4-0.7,0.6C207.4,50,207.6,50.2,207.7,50.2z M199.1,58.1c0-0.1,0.1-0.2,0.1-0.3c0,0-0.2-0.1-0.2-0.1
		c0,0.1-0.1,0.2-0.1,0.3C198.9,58,199,58.1,199.1,58.1z M183.6,57.6c0,0,0.1,0.1,0.2,0.2c0.1-0.2,0.2-0.3,0.2-0.5
		c0,0-0.1-0.1-0.2-0.2C183.8,57.2,183.7,57.4,183.6,57.6z M183.6,30.8c0.1,0.1,0.2,0.1,0.3,0.2c0-0.1-0.1-0.2-0.1-0.3
		C183.7,30.8,183.7,30.8,183.6,30.8z M179.7,73c0-0.1,0-0.2,0.1-0.3c-0.1,0-0.2-0.1-0.3-0.1c0,0.1,0,0.2,0,0.3
		C179.6,72.9,179.6,72.9,179.7,73z M183.7,71.5c0.1-0.1,0.2-0.2,0.2-0.3c0,0-0.1-0.1-0.2-0.2c0,0.1-0.1,0.2-0.1,0.2
		C183.7,71.4,183.7,71.5,183.7,71.5z M186.8,554.8c-0.1-0.1-0.2-0.2-0.2-0.2c-0.1,0-0.1,0.1-0.2,0.2c0.1,0.1,0.2,0.1,0.2,0.2
		C186.6,554.9,186.7,554.8,186.8,554.8z M191.4,23.7l0.2,0l-0.1-0.2L191.4,23.7z"/>
	<path d="M693.5,499.9c0.1-0.1-0.1-0.4-0.2-0.5c-0.1,0.1-0.3,0.3-0.3,0.4c0,0.2,0.1,0.4,0.1,0.6c-0.6,0.7-1.1,1.4-1.7,2.1
		c-0.3,0.3-0.7,0.7-1.1,0.9c-0.3,0.1-0.8,0.2-1,0c-0.3-0.3-0.5-0.8-0.5-1.1c0-0.4,0.3-0.9,0.5-1.3c0.5-1,1.1-2,1.6-3
		c-1.1-1-1.1-1-2.5-1.4c-1,1.3-1.9,2.6-3,3.8c-0.8,0.9-1.8,0.9-2.4,0.3c-0.6-0.6-0.6-1.3,0.1-2.2c0.9-1.2,1.9-2.3,2.9-3.6
		c-0.8-0.6-1.5-1.1-2.3-1.7c-1.2,1-1.9,2.2-2.9,3.2c-0.7,0.7-1.5,1.4-2.4,2c-0.8,0.5-2-0.3-1.9-1.3c0-0.6,0.1-1.2,0.4-1.7
		c0.6-1,1.4-1.9,2.1-2.7c0.8-0.9,1.8-1.7,2.8-2.6c-0.7-1-1.2-1.8-1.9-2.7c-0.5,0.4-0.8,0.7-1.2,1c-1.5,1.3-2.9,2.7-4.4,4
		c-0.9,0.7-1.9,1.3-2.9,1.8c-0.9,0.4-1.8-0.5-1.6-1.5c0.3-1.4,1.1-2.6,2.1-3.5c1.2-1.1,2.5-2.1,3.6-3.3c1.1-1.1,2.6-1.9,3.4-3.3
		c-0.3-0.9-0.6-1.6-0.8-2.4c-0.2-0.8-0.3-1.7-0.6-2.9c-0.8,0.6-1.3,1.2-2,1.6c-0.8,0.4-1.7,0.6-2.7,1c-2.6,5.9-5.2,11.8-8,17.7
		c-2.5,5.2-3.6,10.7-4.7,16.3c0,0.2,0.2,0.4,0.3,0.7c1-0.3,2-0.5,2.9-0.8c1.7-0.6,3.2-0.3,4.6,0.7c0.6,0.4,1.1,0.9,1.6,1.3
		c0.8,0.6,1.7,1.3,2.6,1.7c5.6,2.6,11.3,4.8,17.4,5.5c4.8,0.6,9.5,0.3,14.1-1c4.3-1.1,7.7-3.2,8.8-7.9c0-0.1,0.1-0.2,0.2-0.3
		c0.2-0.4,0.5-0.8,1.1-0.6c0.1,0.3,0.4,0.6,0.4,0.9c0,3.4-1.6,5.9-4,8.1c-0.4,0.3-1.1,0.5-1.6,0.4c-1-0.1-1.8,0.2-2.7,0.5
		c-6.3,2.5-12.8,3.1-19.4,2.2c-0.8-0.1-1.6-0.3-2.3-0.6c-1.4-0.5-2.8-1-4.2-1.6c-2.5-0.9-5-1.7-7.5-2.7c-1.7-0.7-3.3-1.5-4.5-3.1
		c-1.3-1.7-2.7-1.7-4.6-0.7c-1.3,0.7-2.6,1.4-4.1,2.2c-1,3-1.8,6.2-0.7,9.7c2.1-0.1,3.1,1.2,3.8,2.9c0.3,0.6,0.6,1.3,0.8,1.9
		c1,3.2,2.1,6.4,3,9.6c0.4,1.3,0.8,2.4,1.9,3.2c3.9,3.3,7.4,7,10.7,10.9c2.5,2.8,5.5,4.9,9.2,6c2.9,0.8,5.8,1.5,8.5,2.9
		c1,0.5,2.2,0.6,3.3,0.9c0.7,0.2,1.4,0.3,2,0.5c1.7,0.5,2.7,1.7,2.8,3.5c0,2.4,0.2,4.8-0.4,7.3c-0.5,2-0.8,4.1-1.2,6.3
		c-1.9,2.2-4.6,3.6-7.4,4.6c-2,0.7-3.9,1.4-5.6,2.6c-3.3,2.2-7.1,2.8-11,2.1c-1.4-0.2-2.7-0.6-4.1-0.8c-0.9-0.1-1.9-0.2-2.7-0.1
		c-5.6,0.9-11.1-0.4-16.4-1.7c-2.4-0.6-4.4-2-5.8-4.1c-0.4-0.6-0.8-1.1-1.4-1.6c-2.6-2.1-4.8-4.7-7-7.2c-0.4-0.4-0.8-0.8-1.3-1.2
		c-0.9,0.2-1.8,0.3-2.7,0.6c-2,0.5-4.1,0.6-6.2,0.4c-4-0.5-7.9-1.5-11.6-3.5c-1-0.6-2-1.2-3.1-1.4c-2.2-0.5-3.7-1.7-4.7-3.7
		c-0.5-1-1.5-1.8-2-2.8c-0.4-1.1-0.3-2.5-0.6-3.6c-0.6-2.1-0.2-3.9,1-5.6c0.4-0.6,0.9-1.3,0.9-1.8c-0.3-2.3,0.8-4.1,1.8-5.8
		c1.1-2,1.8-4,2.1-6.2c0.3-1.8,0.9-3.6,1.5-5.3c0.3-1,1-2,2-2.2c2.4-0.4,3-2.3,3.6-4.2c0.3-1,0.4-2,0.7-3c0.3-1.5,1.3-2.4,2.8-2.6
		c0.8-0.1,1.6-0.1,2.3-0.2c0.2-0.6,0.4-1,0.5-1.4c1.7-7,3.6-13.9,5.9-20.7c0.4-1.1,0.7-2.2,0.7-3.4c0.2-4.2,1-8.3,1.9-12.3
		c0.9-4.3,1.9-8.6,2.7-12.9c0.4-2,1-4,0.3-6.1c-0.3-1,0-2.3,0.1-3.4c0.3-2.6,0.7-5.3,1-7.9c0.1-0.8,0.4-1.6-0.2-2.6
		c-0.5-0.1-1.2-0.2-1.8-0.2c-9.4-0.2-18.7-0.3-28.1-0.5c-2.9-0.1-5.8,0.3-8.6-0.8c-0.4-0.2-0.9,0-1.4,0c-26.4,0-52.8,0-79.1,0
		c-10.5,0-21.1,0.1-31.6,0.1c-1,0-2.1,0-3.1-0.2c-0.6-0.1-0.9-0.7-0.6-1.4c1-0.8,2.2-0.4,3.3-0.5c6.7,0,13.4,0,20.1,0
		c29.7,0,59.5,0,89.2,0c1.3,0,2.6-0.1,3.8,0.2c1.4,0.4,2.7,0.2,4.1,0.2c3.1-0.1,6.2-0.1,9.4-0.1c2.1,0,4.2,0.3,6.2,0.3
		c5.6,0,11.1,0,16.7,0c0.9,0,1.8-0.1,2.8-0.2c0.4-1.3,0.8-2.5,1.2-3.7c0.5-1.7,1.5-3.3,1-5.3c-0.2-0.9,0.5-2,0.8-2.9
		c1-2.5,2.4-4.8,4.2-6.7c2.3-2.5,4.7-4.8,7.1-7.1c1.2-1.1,2.4-2.1,3.6-3.3c0.6-0.6,1.2-1.2,1.4-1.9c0.7-2.5,1.4-5.1,1.8-7.7
		c0.2-1.2,0.4-2.3,1-3.2c1.2-2,2.5-3.9,3.7-5.9c0.4-0.6,0.7-1.2,1-1.8c0.3-1,0.1-5.6-0.3-7.4c-1-0.2-2.1-0.7-3.2-0.7
		c-2.6-0.1-5-0.9-7.1-2.2c-0.9,0.3-1.6,1-2.4,0.4c-0.7-0.6-0.8-1.4-0.7-2.2c0.5-2.3,0.5-4.9,2.5-6.7c0.8-0.7,0.9-1.9,0.5-2.9
		c-0.8-2.3-0.7-4.6-0.3-6.9c0.7-4,1.6-7.9,3-11.7c1.4-3.8,2.8-7.6,4.1-11.4c2.6-7.2,4.5-14.6,5.5-22.2c0.2-1.7,0.8-3.4-0.2-5.1
		c-0.3-0.5-0.1-1.4,0-2c0.7-4.6,1.4-9.1,2.3-13.7c1.6-8.4,3.4-16.8,5.1-25.2c0.2-1,0.5-2,0.2-3.1c-0.6-1.7,0-3.2,0.9-4.6
		c0.9-1.3,1.8-2.7,2.9-3.9c2.4-2.7,4.8-5.3,7.3-7.9c3.6-3.8,7.2-7.5,10.8-11.3c-0.2-2.2,0.8-4.1,1.6-6c0.8-1.9,0.8-1.9,3.3-2.7
		c0.8-4.9,1.8-9.9,2.4-15c0.6-5.5,0.9-11,1.3-16.6c0-0.2,0-0.5,0-0.7c-0.4-4.6-0.9-9.2-1.4-13.8c-0.1-0.6-0.3-1.5-0.8-1.8
		c-1.1-0.7-1.1-1.7-1.1-2.7c-0.3-7.8-0.3-15.5,0.2-23.2c0.3-6,1.1-12,2.5-17.8c0.8-3.1,1.3-6.3,2.1-9.5c1.1-4.5,2.5-8.9,4.4-13.1
		c3.4-7.4,8.9-13.2,15.2-18.2c0.5-0.4,1.2-1,1.8-1c1.5-0.1,2.3-1,3.1-2c1.3-1.3,2.5-2.7,3.8-4c1.8-1.9,3.6-3.9,5.9-5.6
		c-0.4-2.4,0.5-4.6,1.6-6.8c0.7-1.6,1.3-3.2,1.9-4.7c-1.1-2.5-1.1-2.5-0.8-4.8c0.1-0.6,0.1-1.2,0.2-1.7c0.4-2.3,0.2-4.6,0.8-6.8
		c0.4-1.6,0-3.4-0.1-5.2c-0.3-3.4,0.2-6.7,1.3-9.9c0.7-1.9,0.9-3.8,1.1-5.8c0.5-5.3,2.1-10.1,4.8-14.7c0.3-0.6,0.7-1.2,0.8-1.9
		c0.1-1.8,1.2-2.7,2.6-3.4c0.6-0.3,1.1-0.7,1.5-0.9c0-1.4-1.9-1.4-1.3-3c0.7-0.3,1.5-0.9,2.3-0.8c1.2,0.1,1.7-1.1,2.8-1.3
		c0.3,0.3,0.7,0.6,1,0.9c1-0.3,1-1.9,2.9-1.7c0.2,0.3,0.6,1,0.9,1.6c4.3-2.5,5.4-2.7,9.9-2.1c0.9,0.1,1.8,0.2,2.5,0.3
		c1.4-0.3,2.2-1.9,3.8-1.1c-0.2,0.6-0.4,1.2-0.6,1.7c1,0.8,2,0.7,3,0.6c1.9-0.1,3.8,0.2,5.3,1.2c1.8,1.1,3.6,1.8,5.8,1.8
		c2.1,0,4.1-0.2,6.2-0.9c0-3,0-5.9,0-8.8c0-2.8,0-5.6,0-8.3c0.1-2.9-0.3-5.7,0.3-8.9c0.6,0.5,1.3,0.7,1.4,1.1
		c0.2,0.9,0.2,1.8,0.2,2.8c0,7.8,0,15.5,0.1,23.3c0,1-0.3,2.1,0.6,3.2c1.7,0.2,3.8,0.1,4.9,2.1c0,0.1,0.2,0,0.3,0
		c1.2,0,1.5,0.8,1.7,1.8c0.1,0.6-0.3,1.4,0.6,1.8c1.2-0.8,1.9-2.3,3.8-2.5c0.2,0.6,0.3,1.3,0.7,1.8c0.5,0.6,1.2,0.9,2,1.5
		c-0.8,0.6-1.4,1.1-2.4,1.9c2,0,3.4,0,4.8,0c1.4,1.1,1.7,2.3,1,3.8c-0.8,1.8-0.9,2.3-0.8,3.5c-0.5,0.4-1.1,0.8-1.5,1.2
		c0,0.4,0.1,0.7,0.1,1c-3.3,1.4-6.7,0.5-9.8,1.1c-1,2.3-0.7,4.5-0.5,6.7c0.1,1.5,0.4,3,0.4,4.5c0,2.4-0.3,4.7-3.1,5.6
		c0.4,3.6,0.8,7.1,1.8,10.6c0.2,0.6,0.3,1.1,0.4,1.7c0.2,2-0.4,3-2.2,3.9c-0.6,0.3-1.2,0.5-1.7,0.8c-0.3,2.1-0.8,4-0.8,6
		c-0.1,12.3-0.1,24.5-0.1,36.8c0,0.5,0.2,1,0.3,1.8c2.8-1.3,4.7-3.3,6.7-5.2c0.9-0.9,1.3-1.9,1.3-3.1c0.1-5.1,0-10.1,0.6-15.2
		c0.5-4,1-8,2.3-11.9c0.3-1,0.5-1.9,0.4-3c-0.1-2.2-0.1-4.4,0.4-6.5c0.5-1.9,0.5-3.9,0.8-5.8c0.3-2.1,0.1-4.4,0.9-6.3
		c3-1,3.3-0.9,4.5,1.6c0.3,0.7,0.7,1.5,1.1,2.1c2.1,2.8,2.5,5.9,1.8,9.2c-1,4.4-1,9-0.8,13.5c0,0.3,0.2,0.6,0.3,0.9
		c0.6-0.1,1.2-0.1,1.6-0.1c3.6,3.4,4.3,5.7,2.7,10c-0.6,1.7-0.7,3.4-0.3,5.1c1,4.2,0.5,8.3-0.9,12.2c-1.6,4.4-4.6,8-8.6,10.5
		c-0.7,0.4-1.3,1-1.8,1.5c-1.3,1.4-2.6,2.9-3.9,4.4c-0.3,0.3-0.4,0.7-0.7,1c0.3,0.1,0.4,0.2,0.5,0.2c3.7-1.3,7.4-2.6,11.1-3.9
		c0.5-0.2,1.1-0.6,1.3-1c0.5-1.2,1.6-1.7,2.6-2.2c2-1,3.9-2.1,5.9-3c2-0.9,3.9-2.1,5.2-3.1c0.8-1.4,1.3-2.4,2-3.4c0.7-1,1-2.1,1-3.2
		c0-3.7,0.2-7.4,0.1-11.1c0-2.4,0.2-4.7,1.4-6.7c1.2-1.9,1.7-4,2.3-6.1c0.5-1.7,1.2-3.3,1.7-4.9c0.8-2.3,1.5-4.6,2.3-6.9
		c0.7-2,0.6-4.4,2.2-6.1c0.3-0.3,0.3-0.9,0.3-1.3c0.1-0.8,0.1-1.6,0.2-2.4c0.7-0.2,1.3-0.5,2-0.7c0.3-0.9,0.6-1.7,1-2.6
		c0.7,0.2,1.2,0.6,1.7,0.5c1.7-0.2,3,0.7,3.9,1.9c1.7,2.2,3.8,3.9,5.8,5.8c0.2,1.9,0,3.7-0.3,5.6c-0.3,1.9-1.3,3.7-0.9,5.7
		c2.6,2.3,2.5,2.3,1.8,5.7c-0.4,1.8-0.6,3.6-0.9,5.5c-0.6,4.1-1.4,8.2-3.2,12c-0.7,1.5-1.1,3-1.2,4.6c-0.3,3.8-0.7,7.6-1.2,11.4
		c-0.2,1.4-0.4,2.7-1.7,3.6c-0.3,0.2-0.4,0.8-0.6,1.2c-0.4,0.8-0.7,1.7-1.2,2.5c-2.1,3.8-5.1,6.8-8.3,9.7c-1.7,1.6-3.3,3.2-4.9,4.9
		c-2.3,2.3-4.5,4.7-6.9,6.8c-6.5,6-13.6,11.4-20.1,17.6c-1,1-2.1,1.8-3.3,2.6c-2.6,1.8-5.2,3.4-7.8,5.2c-0.8,0.5-1.5,1-2.4,1.6
		c0,1.2,0,2.4,0,3.5c0,83.5,0,167.1-0.1,250.6c0,3.5,0.9,6.6,2.4,9.5c0.4,0.7,0.8,1.4,1.2,2.1c3.8,6.2,7.5,12.5,11.4,18.6
		c8.6,13.5,16.3,27.5,22.9,42c3.7,8.1,7.4,16.2,11,24.3c0.5,1.1,1.3,2.2,1.1,3.6l0.1-0.1c-1.2-0.5-1.4-1.7-1.9-2.7
		c-3.8-7.4-7.4-14.9-11.3-22.2c-5.6-10.4-11.2-20.8-17.1-31c-4.1-7.2-8.8-14.2-13.1-21.3c-2.2-3.6-4.4-7.3-6.5-11
		c-1.6-2.8-2.8-5.8-2.4-9.2c0.1-0.9,0-1.8,0-2.8c0-23.9,0.1-47.9,0.1-71.8c0-24.9-0.1-49.7-0.1-74.6c0-28.3,0.1-56.7,0.1-85
		c0-6,0-12,0-18c0-0.9-0.1-1.8-0.2-2.8c-0.5,0.1-0.9,0.2-1.2,0.3c-5.4,3.3-11.3,5.8-17.1,8.3c-0.5,0.2-0.9,0.6-1.4,0.9
		c-0.1,5.3,0.2,10.5-0.7,15.7c-0.7,4-1.1,8-1.8,12c-1.2,7.5-4.2,14.4-8.2,20.8c-1.2,1.9-2.1,3.8-2.8,6c-0.9,3-1.9,5.9-3,8.9
		c-1,2.8-2,5.7-4,8c-0.3,0.4-0.3,1.1-0.4,1.5c0.5,0.8,1,1.4,1.3,1.9c-0.3,1.5-0.5,2.7-0.8,4c-0.1,0.6-0.2,1.1-0.4,1.7
		c-0.2,0.6-0.8,1-1.3,0.8c-0.6-0.3-0.8-0.8-0.7-1.4c0.2-1.3,0.5-2.5,0.7-3.7c0.1-0.4,0-0.8,0-1.7c-0.8,1-1.4,1.4-1.6,2
		c-0.5,1-0.8,2.2-1.3,3.2c-0.2,0.4-0.7,0.7-1.1,1.1c-0.5-0.6-0.9-1.2-1.3-1.3c-0.7-0.1-1.2,0-1.7-0.7c-0.3-0.5-1.1-0.8-1.7-1.1
		c-4.7-2.4-9.5-4.9-14.2-7.2c-0.4-0.2-0.9-0.8-1.6-0.1c0.4,3.5,1.1,7,2.3,10.4c0.3,0.9,0.7,1.7,0.9,2.6c0.1,0.3-0.2,1-0.5,1.1
		c-0.3,0.2-1,0.1-1.2-0.1c-0.7-0.7-1.5-1.5-1.8-2.4c-0.6-1.4-1-2.8-1.2-4.3c-0.4-3.1-0.7-6.2-1-9.3c-1-0.8-2-1.7-3.1-2.6l-0.1,0.1
		c0.9-0.3,1.7,0.1,2.3,0.5c1,0.8,2,0.1,3,0.4c0.6,0.9,0.9,1.8,2,2.2c1,0.4,1.9,1.2,3.3,1.3c0.2-0.7,0.4-1.5,0.7-2.2
		c-0.6-0.4-0.9-0.6-1.3-0.9c-1.7-1-3.5-1.7-4.9-3.1c-1.1-1-2.7-1.9-4.4-1.3c-1.2-1.7-1.2-1.7-4.3-3.2c-0.5,0-0.9,0.7-1.5,0.3
		c-0.5-1.6-0.5-1.6-2.2-2.1c-0.6,0.7-1.1,1.4-1.8,2.1c-0.4,0.4-1,0.6-1.4-0.1c0.4-1.2,1.9-1.8,1.7-3.3c-3.5-2.8-5.5-4.1-6.5-4
		c-0.5,0.6-1,1.3-1.5,1.8c0,0.9,1,1.3,0.3,2.3c-0.4-0.1-1,0-1.5-0.2c-1.2-0.5-2.3-1.1-3.5-1.5c-0.6-0.2-1.3-0.3-2.1-0.5
		c-0.7,1.6-1.2,3.2-1.9,4.6c-1.3,2.9-2.7,5.9-4.2,8.8c-0.3,0.6-0.5,1.3-1.4,1.2l0.1,0.1c0.2-0.7,0.4-1.3,0.6-2
		c1.5-3.6,3.1-7.2,4.6-10.8c0.3-0.8,0.6-1.7,0.7-1.9c-1.1-1.3-1.9-2.3-2.7-3.3c-0.1-0.1,0.1-0.4,0.1-0.8c0.4,0,0.9,0,1.3,0.1
		c0.5,0.1,1,0.3,1.6,0.4c0.6-0.8,1-1.5,1.5-2.2c0.3-0.4,0.7-0.6,1.2,0.1c-0.3,0.6-0.7,1.3-0.9,2.1c-0.2,0.8,0,1.4,1.1,1.4
		c0.9-0.8,1.5-1.9,2-3.2c-2.6-1.7-4.7-4-7.6-5.3c-0.6,1.5-1.2,2.7-1.7,4c-0.1,0.2,0.2,0.5,0.4,1c0.5-0.7,0.9-1.3,1.3-1.8
		c0.3-0.3,0.7-0.6,1.2,0.1c-0.4,0.8-0.9,1.7-1.4,2.6c-0.8,0-1.5,0.1-2.2,0.1c-0.4,0.4-0.8,0.8-1.1,1.3c-3.7,4.9-7.7,9.5-12,14
		c-1.8,1.8-3.3,3.8-5.1,5.7c-2.8,2.9-4,6.3-4.6,10.2c-1.4,8.6-3,17.1-4.6,25.6c-0.1,0.4,0,0.9,0,1.4c0.5,0,0.8,0.1,1.2,0.1
		c5.2-0.9,10.4-0.5,15.5,0.3c0.5,0.1,1.4,0.1,1.2,1.2c-6.1,0.6-12.2-0.4-18.4,0.3c-0.4,1.7-1,3.2-1.2,4.8c-0.3,1.7-0.4,3.4-0.4,5.2
		c-0.3,8.8-2,17.4-4.5,25.9c-1.9,6.5-4,13-5.7,19.6c-1.1,4.2-2.3,8.5-1.7,13c0.2,1.8-0.3,3.4-1.4,4.9c-0.9,1.3-1.5,2.6-1.2,4.2
		c1.8,1.3,1.9,1.2,3.4,1.5c3.3,0.5,6.6,1,9.7,2.4c2.8,1.3,5.6,2.7,8.3,4.3c4.3,2.5,8.5,5.2,13.4,6.4c0.4,0.1,0.8,0.4,1.2,0.6
		c1.8,0.8,3.5,1.8,5.3,2.5c5.6,2.2,11,4.8,17.1,5.6c4.9,0.7,9.8,1.4,14.8,2c0.8,0.1,1.6-0.1,2.4-0.1c0.1-0.6,0.3-1,0.3-1.4
		c0.3-3,1.2-5.9,2.1-8.8c0.7-2.3,2-4.4,1.7-7c0-0.4,0.3-0.9,0.4-1.3c0.6-1.6,1.2-3.3,1.8-4.9c2.9-7.2,5.6-14.5,7.4-22
		c0.8-3.4,1.8-6.8,1.9-10.2c0.1-3.7,1-7,2.5-10.3c1.1-2.3,2.1-4.6,3.1-7c1.9-4.7,2.9-9.7,3.8-14.7c0.9-5.3,1-10.6-0.1-15.8
		c-0.1-0.4,0-0.9,0.1-1.6c0.4,0.5,0.6,0.6,0.6,0.8c0.2,0.5,0.4,1.1,0.5,1.6c0.9,4,0.9,8,0.4,12.1c-0.2,1.6-0.2,3.2-0.3,4.8
		c-0.6,0.3-0.7,0.8-0.3,1.7c0.1-0.8,0.1-1.3,0.2-1.8c1.1-0.6,1-1.8,1.3-2.7c1.9-6.1,2.8-12.4,2.3-18.8c0-0.2-0.1-0.4-0.2-0.7
		c-0.4-0.2-0.8-0.3-1.1-0.5c-0.9-4.6-0.7-16.7,0.3-20.6c0.1,0,0.3,0,0.3,0c1.2,2.2,2.4,4.4,3.7,6.8c-1.2,2-0.8,4.2-0.8,6.4
		c0,1.8,0,3.7-0.4,5.5c-0.3,1.5-0.4,3-0.3,4.5c0.6,6.8-0.4,13.4-1.9,19.9c-0.6,2.8-1.3,5.6-1.9,8.5c-0.5,2.4-0.7,4.8-1.3,7.2
		c-1.7,7.2-3.6,14.3-5.2,21.6c-1.2,5.5-2.1,11.1-3,16.7c-0.3,1.6-0.6,3.2-1.6,4.5c-0.8,1-1.4,2.1-1.5,3.5c-0.1,2.1-0.4,4.1-0.5,6.2
		c-0.1,1.2-0.5,2-1.5,2.5c-2.3,1.2-4.6,1.9-7.2,1.3c-2,4.9-2,10.1-3.9,15c-1.3,0.2-2.6,0.6-3.8,0.6c-2.9,0-5.8-0.1-8.7-0.3
		c-3.4-0.3-6.8-0.9-10.2-1.3c-1.3,1.4-2.4,2.7-3.7,3.9c-1.6,1.4-1.1,3.5-1.9,5.1c-0.1,0.1-0.1,0.2-0.1,0.3c-1.3,2.8-2.6,5.7-4,8.5
		c-0.8,1.5-1.8,3-3,4.2c-1,1-1.9,2-2.8,3c-1,1.1-2.1,2.2-3.2,3.2c-1.3,1.2-2.7,2.2-4,3.4c-0.5,0.4-1,1-1.3,1.6
		c-0.5,1.2-0.7,2.4-1.1,3.7c1.4,0.5,2.6,0.3,3.9,0.3c29.2,0,58.3,0.1,87.5,0.1c3.8,0,7.6,0,11.5,0c3.7,0,7.4,0,11.6,0
		c-1.5,1.2-2.7,1.3-4,1.3c-3.5,0.1-6.9,0.2-10.4,0.2c-10.5,0.1-21.1,0.3-31.6,0.3c-22,0.1-44,0-66,0.1c-1.3,0-2.5-0.2-3.9,0.4
		c-0.6,1.1-1.3,2.3-1.8,3.6c-2.1,5.8-4.9,11.2-8.1,16.5c-0.3,0.4-0.3,1-0.5,1.5c1.2,0.2,2.2,0.4,3.2,0.6c0.2,0.5,0.5,1,0.5,1.4
		c-0.2,1.2,0.4,2.3,0.8,3.3c0.6,1.7,1.2,3.5,1.8,5.2c1,2.8,2.3,5.2,5.2,6.6c2.5,1.2,4.8,2.9,7.2,4.3c1.5,0.9,3,1.7,4.6,2.4
		c3.8,1.8,7.8,2.8,12,2.9c1.1,1.9,1.8,3.8,2.2,5.9c0.2,0.9,0.2,1.8,0.1,2.7c0,0.3-0.4,0.6-0.8,1.1c-1.9-2.4-1.2-5.4-3-7.8
		c-1.9-0.4-4.1-0.7-6.2-1.3c-2.2-0.6-4.3-1.5-6.2-2.2c-1.3,0.7-2.3,1.3-3.3,1.8c-0.6,0.3-1.4-0.2-1.5-1c-0.1-0.4,0.1-0.9,0.1-1.4
		C693.2,500.2,693.4,500.1,693.5,499.9z M778.2,129.5c0,0,0.1,0.1,0.1,0.1c0.1,0.1,0.2,0.1,0.2,0.2c-0.1,0-0.1-0.1-0.2-0.1
		C778.3,129.6,778.3,129.6,778.2,129.5z M820.7,47.5c-2.1,0.4-4.3,1.1-6.4,1.2c-1.5,0.1-2.9,0.3-4.4,0.5c-0.3,0-0.6,0.3-0.9,0.5
		c-1.8-0.7-3.5-0.3-5.6-0.3c0.5,0.7,0.9,1,1.2,1.4c-2.3,1.4-4.4,0.6-6.4-0.5c-0.4,0.1-0.7,0.1-0.8,0.3c-1.3,1.7-3,2.8-5,3.6
		c-3.4,1.5-6.5,3.5-9.5,5.6c-3,2.1-5.4,4.6-6.9,8.5c0.3,1.1,0.7,2.5,1.2,4c-0.3-0.1-0.6,0-0.8-0.2c-0.6-0.5-1.2-1-1.7-1.5
		c-1.3,0-0.8,1.4-1.6,1.7c-0.2-0.1-0.5-0.1-0.5-0.3c-0.6-1.4-1-2.8-1.1-4.3c-0.1-1.5-0.3-3-1.3-4.2c0.8-0.7,0.8-0.7,0.1-1.4
		c-0.1-0.1-0.2-0.3-0.4-0.4c-0.2,0.6,0.2,0.4,0.4,0.4c0,0.5-0.1,1-0.1,1.5c-1.2-0.7-2.3-1.4-3.5-2.1c-0.2-0.2-0.5-0.5-0.7-0.7
		c-0.3-0.8-0.9-1.3-1.8-1.4c-1.3,1.2-2.7,2.3-4.1,3.6c-1.8,1.7-2.6,4.8-0.7,7.2c1.3,1.6,2.4,3.3,3.4,5.1c0.7,1.3,2.2,2.2,3.4,3.4
		c0.9-0.3,1.6-0.5,2.6-0.8c0,0.7,0,1.2,0,1.8l0.1-0.1c-1.5,1.1-2.9,1.1-4.3-0.1c-0.9-0.7-1.6-1.6-2.4-2.4c-0.9-1.1-1.1-2.8-2.7-3.3
		c-0.4-1.2-0.8-2.3-1.7-3.2l-0.2-0.1l0.3,0c0,0.2-0.1,0.5-0.1,0.7c0.1,1.1,0.4,2.3,0.3,3.4c-0.1,1-0.5,2-0.8,3
		c-3.2,2.6-5.3,6-6.5,9.9c-1,3.2-2.2,6.3-3.9,9.2c-0.4,0.7-0.6,1.5-0.9,2.2c-0.6,1.5-1.1,3-2.9,3.7c-0.4,0.1-0.7,0.6-1,1
		c-2.5,3-5.1,6-7.6,9c-0.1,0.1,0,0.2,0,0.3c0.7,0.5,1.3,0,2-0.1c5.3-1.5,10.7-1.9,16.1-0.5c4.2,1.1,8.6,2.1,12.6,3.7
		c4.4,1.7,8.3,4.5,11.7,7.9c0.6,0.6,1.3,1.3,2.1,2.2c0.5-1.3,0.7-2.3,1.2-3.3c0.5-1,0.8-1.8,0.1-2.9c-0.7-1.1-0.3-2.4,0.3-3.3
		c1.1-1.7,1.5-3.6,2.2-5.4c1-2.3,1.9-4.7,2.9-7.1c-0.8-1.3-1.6-2.5-2.3-3.7c0.6-0.7,1.2-0.5,1.6-0.2c2,1.6,4.2,2.8,6.6,3.7
		c1.8,0.7,3.6,0.8,5.4,0.7c2.3,0,3.7-1.3,3.9-3.5c0.1-0.6,0-1.2,0-1.7c-0.1-1.7,0.3-3.2,1.7-4.3c0.2-0.1,0.3-0.3,0.5-0.5
		c1-1.2,0.9-1.5-0.3-3.3c-1.2-0.1-2.3,1.3-3.6,0.1c-0.2-0.7,0.3-1.1,0.8-1.2c0.7-0.1,1.4-0.1,2.1-0.2c1.3-0.1,2.5-0.3,3.6-1.3
		c0.1-1,0.3-2.1,0.4-3.5c-1.1-0.1-2.4,0.3-3.1-0.8c-0.3-0.5-0.6-1-0.6-1.5c0-0.5,0.5-1,0.8-1.6c0.8,1,1.4,2,2.8,1.9
		c0.5-0.1,1.1,0.3,1.6,0.4c1.6,0.4,2.9-0.6,2.7-2.2c-0.2-1.5-0.5-3-0.8-4.4c-0.4-1.6-0.8-3.1-1.3-4.7c-0.7-2.3-0.6-4.3,1.6-5.8
		c1.6-1.1,1.7-2.7,1.3-4.3c-0.5-2.5-0.5-5.1-0.4-7.6c0-0.9,0.3-1.8,0.4-2.8c-0.6-0.7-1.3-1.4-2-2.1c1.8,0.8,3.6,0.9,5.6,0.2
		c1.6-0.5,3.3-0.5,5-0.9c0.6-0.1,1-0.8,1.5-1.2c0.5-0.1,0.7-0.3,0.6-0.8c0.2-0.1,0.4-0.1,0.6-0.2c-0.5-0.6-0.4,0-0.5,0.3
		C821.2,47.1,821,47.3,820.7,47.5z M775,58c-0.1,0.1-0.2,0.1-0.3,0.2C774.8,58.1,774.8,58,775,58c0.5,0,0.7-0.2,0.6-0.7l0.2-0.1
		l-0.1,0.2C775.2,57.3,775,57.6,775,58z M758.2,60.2l0.1-0.2c0.2-0.1,0.3-0.1,0.5-0.2c-0.1-0.1-0.2-0.2-0.3-0.2
		c0,0.2-0.1,0.3-0.1,0.5L758.2,60.2z M764.2,35.9c-0.1,0.2,0,0.6,0.1,0.9c0.2-0.1,0.4-0.1,0.6-0.2c0.5-0.4,0.6-0.9,0.3-1.5
		c0.1,0,0.2,0,0.3,0c-0.1,0-0.1,0.1-0.2,0.1C764.8,35.4,764.4,35.6,764.2,35.9z M763.8,47c-0.5,1,0,1.6,0.8,2c0,0.2,0,0.4,0,0.6
		c0.2,0.5,0.5,1,1.2,0.8c0.1,0,0.2-0.1,0.2-0.2c0.1-0.7-0.4-0.9-0.9-1.1c-0.2-0.1-0.4,0-0.6,0C764.3,48.4,764,47.7,763.8,47z
		 M794.1,43.2c0,0.1,0,0.2,0,0.2c0.1,0,0.2,0,0.3,0.1c0.1,2.5,0.2,2.5,1.2,2.2c-0.2-0.8-0.3-1.7-1.3-2.2
		C794.3,43.4,794.2,43.3,794.1,43.2z M823.6,79.6c-0.3,1.2-0.5,2.5-0.7,3.7c-0.5,2.7-1,5.4-1.5,8.2c-0.1,0.7-0.3,1.4-0.7,2
		c-2.3,3.1-2.4,6.9-3.3,10.5c-0.3,1.2-0.4,2.6-0.3,3.8c0.6,4,0.2,8.1,0.2,12.1c0,1.2,0.1,2.5,0.3,4.2c-2.3,2.7-5,5.6-8.4,8
		c-3.6,2.5-7.5,4.7-11.6,6.2c-3.6,1.3-6.8,3.4-10.7,4.2c0.5,3.8,2.5,7.3,1.7,11c0.8,0.7,1.5,0.4,2.1,0.3c6.5-1.3,12.8-2.8,18.7-6.1
		c0.5-2.8,0.5-2.8,2.6-4.5c0.7-0.6,1.4-1.2,2.2-1.7c3.6-2.1,6.5-5.2,9.7-7.8c0.4-0.3,0.7-0.9,1-1.4c0.3-0.3,0.5-0.5,0.8-0.8
		c0.9-0.4,1.6-1,1.8-2c0.4-1.7,1.3-3.2,2.3-4.4c0-4.1,0-8,0-11.9c0-1.1,0.3-2.2,0.5-3.4c0.1-0.8,0.3-1.6,0.4-2.4
		c0.3-2.8-0.3-4-3.4-5.9c0,0.6-0.2,1.2-0.1,1.7c0.4,1.6,0.3,3.2,0,4.8c-0.1,0.3,0,0.8-0.2,1c-1.7,1.5-1.7,3.7-2.3,5.6
		c-0.3,0.8-0.8,1.7-2,1.5l0.1,0.1c0.3-0.8-0.3-1.3-0.7-1.6c1.3-2,2.6-4,3.8-6.1c0.5-0.9,0.5-2,0.3-3c-0.7-0.7-1.2,0.4-2,0.1
		c-0.4-1.2,1.1-1.2,1.3-1.9c0.1-7.3,0.3-14.5,0.5-22.1C825.4,81.1,825,79.8,823.6,79.6c-0.3-0.2-0.6-0.4-0.9-0.6
		c-0.2-0.5-0.3-1-0.5-1.6c0.2-0.2,0.5-0.3,0.8-0.5c0.3-0.1,0.6-0.2,0.9-0.3c-0.8-1.8-0.8-1.8-2.2-2.2c-0.8,1.5-0.1,3.1-0.4,4.8
		c0.7-0.1,1.1-0.2,1.5-0.3C823.1,79.1,823.3,79.3,823.6,79.6z M686.1,564.9c-1.5-1.5-3.7-1.6-5.4-3.1c-0.9,1.1-1.6,2-2.3,2.9
		c-0.6,0.7-1.3,1.3-2,1.9c-0.5,0.4-1.2,0.4-1.6-0.1c-0.3-0.4-0.7-1-0.6-1.5c0.2-0.7,0.6-1.5,1.1-2.1c0.9-1.1,1.9-2,3-3.1
		c-0.4-0.8-0.8-1.6-1.1-2.3c-0.5,0-0.7,0-0.9,0.1c-1.8,1.3-3.5,2.6-5.3,3.9c-0.6,0.4-1.2,0.7-1.8,1c-0.7,0.3-1.4,0.2-1.9-0.4
		c-0.6-0.5-0.7-1.3-0.4-1.9c0.3-0.7,0.8-1.4,1.4-1.9c1.2-0.9,2.5-1.7,3.7-2.5c0.7-0.4,1.4-0.8,2-1.1c0.1-1-0.6-1.3-1-1.8
		c-0.4-0.4-0.8-0.7-1.4-1.2c-4.2,2.5-8.3,5-12.6,7.6c-0.6-0.1-0.8-0.7-0.7-1.3c0-2.1,1-3.8,2.7-5c1.6-1.1,3.3-2,5.1-3.1
		c-0.4-0.8-0.9-1.7-1.5-2.7c-4.5,1.5-8.4,4-12.6,6.2c-0.8-0.9-1.6-1.7-2.5-2.7c0.4-0.7,0.8-1.4,1.3-1.9c2.2-2.2,4.9-3.4,7.7-4.5
		c1.5-0.6,3-1.1,4.7-1.7c-0.1-4-1.2-7.6-2.4-11.2c-0.2-0.6-0.9-1-1.3-1.4c-1.3,0.7-2.5,1.4-3.7,2c-1.5,0.8-3.1,1.6-4.5,2.6
		c-1.4,1-2.2,2-2.4,3.6c-0.3,2.4-0.7,4.8-0.9,7.2c-0.1,1.1-0.2,2.1-1.3,2.9c-1.4-0.9-2.9-0.5-4.5-0.2c-5.3,0.9-9.9-0.5-13.6-4.4
		c-0.7-0.7-1.3-1.6-1.7-2.6c-0.5-1-0.2-1.4,1.1-2c0.2-0.1,0.3-0.2,0.7-0.4c-0.7-0.7-1.3-1.3-1.9-1.9c-1.7-1.8-1.6-2.7,0.8-4.5
		c0.1-0.5,0.2-1,0.2-1.6c0-0.5,0-0.9,0-1.3c-0.6-0.7-1.7-0.6-2,0.1c-0.3,0.9-0.5,1.8-0.6,2.7c-0.3,2-1.3,3.7-2.4,5.4
		c-1,1.5-2.3,2.6-4.4,1.9c-1,2-1.2,4.1-1.3,6.2c-0.2,3.9-1.7,7.4-3.5,10.8c-0.1,0.2-0.2,0.4-0.4,0.6c-1.5,2.3-1.7,4.6-0.5,7.2
		c2.2,4.9,2.5,5.4,7.3,7.8c4,2,8.3,2.9,12.7,3.3c1.4,0.1,2.7,0,3.9-1.1c0.4-0.4,1.3-0.5,1.9-0.5c1,0,2,0.3,3,0.4
		c4,5.5,8.5,10.2,14.4,13.4c2.8,1.5,5.9,2.5,9.3,2.3c0.9-0.1,1.8,0.1,2.8,0.2c4.4,0.6,8.7,1,13.1,0.4c1-0.1,2.1-0.2,3.1-0.1
		c1,0.1,2,0.5,3.1,0.8c3.1-1,6.2-2.1,8.9-4.3c1-0.8,2.2-1.2,3.3-1.8c1.5-0.8,2.4-1.9,2.5-3.8c0.1-2.6,0.6-5.3,0.8-7.9
		c0.1-0.9,0-1.8,0-2.8c-0.6-0.2-1-0.4-1.4-0.4c-2.7-0.4-5.1-1.1-7.5-2.3c-2.4-1.2-5.2-1.7-7.9-2.5L686.1,564.9z M686.8,447.4
		c0.4-1.2,0.7-2.4,1.1-3.8c3.1-1.1,5.6-3.5,8.3-5.4c2.2-1.6,4.2-3.5,5.3-6.2c1-2.5,2.2-4.8,3.3-7.2c0.3-0.6,0.5-1.3,0.6-2
		c0.1-0.3-0.1-0.7-0.1-1c-0.2-0.2-0.4-0.3-0.6-0.4c-2.2-0.9-2.4-1.7-0.6-3.3c1.3-1.1,2.7-2.2,4-3.3c0.5-0.4,0.9-1,1.4-1.6
		c-2.2-0.9-4.3-1.7-6.3-2.5c-1.6-0.7-3.2-1.5-4.7-2.3c-3-1.7-5.9-3.5-9.5-4c-1.9-0.3-3.7-1.4-5.5-2.1c-0.8-0.3-1.7-0.7-2.6-1.2
		c-1.4,2.9-2.7,5.7-2.6,8.9c0,0.5-0.5,0.9-0.8,1.5c-1.2-2.8-1.3-5.3-0.7-8c0.3-1.3,0.2-2.7,0.3-4.2c-1.3-1.2-2.8-1.8-4.1-2.3
		c-0.9,0.4-0.7,1-0.6,1.5c0.9,9.6-2,18-7.8,25.6c-0.7,0.9-1.2,2-1.8,3c-0.4,0.8-0.9,1.6-1.4,2.6c-0.4-0.5-0.7-0.8-1.1-1.3
		c-2.6,1.9-5,4-7.1,6.5c-2.3,2.7-4.1,5.5-5.1,8.9c-1.4,4.6-2.6,9.3-3.8,14c-1.5,5.9-1.6,11.9-2.7,17.8c-0.3,1.5-0.5,3-0.7,4.4
		c-1.2,7.8-2.4,15.5-3.6,23.3c-0.1,0.9-0.3,1.8-0.6,2.7c-1.6,6.2-3.1,12.3-4.7,18.5c-0.5,2-1.1,4-1.4,6c-0.2,1.3,0,2.7,0,4.3
		c4.6,3.3,9.9,4,15.6,4.6c0.2-0.5,0.6-1,0.7-1.7c0.2-2.1,1.8-3.5,2.6-5.2c0.3-0.6,1.2-1,1.9-1.4c1.2-0.7,2.5-1.2,3.7-1.9
		c1.1-0.6,1.6-1.6,1.1-2.6c-0.9-1.8-0.6-3.6-0.2-5.4c0.6-3.1,1.2-6.1,1.8-9.2c0.1-0.3,0.3-0.7,0.3-1c-0.2-3.8,1.4-7.2,2.9-10.6
		c1.9-4.2,3.8-8.4,5.6-12.7c0.3-0.6,0.8-1.3,0.7-1.9c-0.1-2,1-3.5,2-5c3.1-4.5,6.1-9,8.7-13.8c0.5-1,1.1-2,1.6-3
		c-0.4-0.4-0.7-0.7-1.2-1.1c2.7-3.1,4.5-6.7,6.3-10.3c0.3-0.7,0.5-1.5,0.7-2.3l-0.1,0.1C686.3,449.7,686.5,448.5,686.8,447.4z
		 M764.6,118.5l-0.1-0.1c-1.2-1.1-2.5-1.9-4.2-2.3c-3.3-0.7-6.5-1.7-9.7-2.5c-3.9-1-7.8-0.6-11.7,0.4c-2.5,0.6-4.9,1.4-7.3,2
		c-2.1,0.6-3.8,1.8-5,3.5c-1.6,2.1-3.2,4.3-4.6,6.5c-3.7,6-6.8,12.4-9.3,19c-0.9,2.3-1.5,4.6-1.8,7c-0.3,2.3-0.8,4.6-1.1,6.8
		c-0.3,2.7-0.6,5.5-0.8,8.3c-0.3,5.4-0.5,10.9-0.8,16.3c-0.1,2.1,0.1,4.1,0.5,6.2c1.9,9.7,2.8,19.4,3.1,29.3c0.1,3-0.3,6-0.7,9
		c-0.1,0.5-0.1,1-0.3,1.3c-1.5,2.3-1.3,4.9-1.6,7.4c-0.3,3-0.5,6-0.8,9.1c0.8,0.5,1.6,0.9,2.4,1.4c3.8,2.4,7.7,4.7,11.4,7.2
		c4.5,2.9,9,5.7,13.8,8c3.8,1.8,7.3,4,10.4,6.8c2.1,1.9,4.8,2.7,7.3,3.9c0.8-7.5,2.2-7.1-1.5-17.9c5.6,2.2,7.1,13,2.9,18.6
		c1.5,0.6,3,1.3,4.5,1.8c1.2,0.4,2.6-0.8,2.1-1.9c-0.8-1.9-0.1-3.3,0.6-4.9c2.3-4.9,4.6-9.8,6.9-14.8c2.4-5.4,4.7-10.8,6.3-16.5
		c0.4-1.3,0.6-2.7,1-4c0.3-1,0.2-2,1.3-2.7c0.4-0.3,0.6-1.2,0.7-1.9c0.9-4.7,1.7-9.3,2.5-14c0.6-3.5,1.2-7.1,1.8-10.6
		c0.1-0.4,0.3-0.8,0.5-1.3c-1.3-0.2-2.3,0.6-3.5,1c-1.1,0.4-2.1,0.9-3.2,1.4c-0.4,0.2-0.8,0.4-1.2,0.7c-2.8,2.1-5.7,1.8-8.3-0.1
		c-3.2-2.3-6.3-4.7-9.4-7.2c-1-0.8-1.8-1.8-3.2-2c-2.5-2-5.6-2.7-8.4-4c-1.3-0.6-2.4-1.3-3.8-2.1c-1-0.1-2,1.5-3.5,0.2
		c0.2-0.6,0.5-1.2,0.8-2c0,0-0.1-0.3-0.3-0.4c-6.6-5-10.1-11.9-11.8-19.8c-1.7-7.7-1.2-15.4,0.9-23c2.7-9.9,8.5-17.9,15.8-24.9
		c1.9-1.8,4.1-3.4,6.5-4.2c0.9,0.1,1.2,0.6,1.2,1.2c-1.9,0.8-3.6,2-5.1,3.5c-10,9.6-15.6,21.3-16.6,35.1c-0.5,7,0.6,13.8,3.8,20.2
		c2.3,4.6,5.6,8.4,9.8,11.4c0.6,0.4,1.1,0.8,1.9,0.4c0,0-0.1,0.1-0.1,0.1c-2.6-3.5-4.8-7.1-6.2-11.2c-0.7-2.1-1.4-4.2-1.7-6.3
		c-0.4-3-1-5.9-1.6-8.8c-0.3-1.4-0.3-2.8-0.3-4.1c0-0.4,0.1-0.9,0.3-1.3c0.1-0.3,0.5-0.6,0.8-0.6c0.4,0,1,0.2,1.2,0.5
		c0.3,0.4,0.5,1.1,0.5,1.6c0.1,2.2,0.7,4.3,1.4,6.4c0.5,1.5,0.9,3.1,1.4,4.6c2.6,8.4,6.9,15.9,12.3,22.7c1.1,1.4,2.4,2.4,3.9,3.4
		c3.8,2.6,7.5,5.4,11.3,8.1c0.6,0.4,1.1,0.8,1.6,1.2c1.8-0.3,3.1-1.4,4.4-2.3c1.4-0.9,2.8-1.5,4.4-2c4-1.1,8-2.3,11.9-3.6
		c1.7-0.5,3.1-1.4,4.6-2.4c4.1-2.8,8.3-5.4,12.5-8.1c3.9-2.5,7.8-5,11.6-7.6c1-0.6,1.9-1.4,2.6-2.3c3.5-4.5,8-8.1,12.2-11.8
		c2.9-2.5,5.9-4.8,8.8-7.3c0.5-0.4,1.2-0.9,1.3-1.5c0.4-1.7,1.7-2.4,2.9-3.3c3.4-2.3,6.5-4.8,9.5-7.6c1-1,2.1-1.9,2.3-3.4
		c0-0.2,0.2-0.4,0.3-0.6c2.3-3.4,2.6-7.3,3-11.2c0.3-3.6,0.6-7.1,0.9-10.9c1-0.6,1.7-1.4,2.1-2.8c1.4-4.9,2.3-9.9,3.1-14.9
		c0.2-1.4-0.5-2.2-1.5-3c-1.1,1.9-2.2,3.6-3.1,5.4c-0.3,0.6-0.5,1.3-0.6,2c-0.5,3.5-2.2,6.6-3.9,9.6c-0.1,0.3-0.5,0.4-0.8,0.6
		c-0.6-0.6-0.4-1.2-0.2-1.7c1.4-3.6,2.8-7.1,4.2-10.6c0.4-0.9,1-1.8,1.6-2.7c1.3-1.9,2.4-3.9,2.3-6.4c0-0.9,0.4-1.8,0.5-2.7
		c0.2-1.3,0.4-2.5,0.5-3.8c0.1-2.5-1.4-3.9-3.7-5.1c-0.8,1.5-0.9,3-1.1,4.5c-0.5,3.1-1.6,6-2.7,8.9c-1.4,3.5-2.5,7.2-3.7,10.8
		c-0.2,0.5-0.2,1.2-1.1,1.4c-0.1-0.4-0.4-0.7-0.4-1.1c0.2-1.2,0.3-2.5,0.7-3.7c1.7-4.9,3.5-9.8,5.1-14.7c0.6-1.9,0.8-3.8,1.2-5.7
		c0.2-0.7,0.6-1.4,1.1-2.3c-0.8-1.2-1.8-2.4-3.6-2.8c-0.1,0.6-0.2,1-0.3,1.4c-0.1,0.6,0.1,1.2-0.1,1.7c-1.3,3.6-1.7,7.4-2.8,11
		c-1.2,3.7-2.6,7.4-3.5,11.2c-0.1,0.5-0.5,1-0.9,1.7c-0.7-1.9-0.5-3.3-0.1-4.8c0.8-2.9,1.8-5.7,2.7-8.6c0.6-1.8,0.6-1.7,0.3-4.6
		c-0.3,0.9-0.5,1.3-0.6,1.7c-0.8,3.3-1.8,6.5-3.2,9.5c-0.1,0.3-0.3,0.6-0.4,1c-1.1,3.4-2.2,6.8-3.3,10.2c-0.5,1.5-0.7,2.9-0.5,4.4
		c0.4,4.6-0.1,9.2-0.7,13.8c-0.2,1.7-0.9,3.1-1.9,4.5c-0.7,0.3-1.5,0.4-2.1,0.9c-2.6,1.9-5.3,3.7-7.8,5.8c-4,3.4-8.6,5.8-13.6,7.5
		c-3.7,1.3-7.6,2.2-11.3,3.4c-3.7,1.3-7.2,3-11,4.3c-5.9,2-11.9,3.7-17.9,5.6c-2.2,0.7-4.3,1.6-6.1,2.2c-2.4,2.6-4.6,4.8-6.7,7.1
		c-0.4,0.4-1,0.5-1.5,0.7c-1.1,0.3-2.2,0.5-3.4,0.8c-0.4-1.5,0.5-2.8,1.5-3.9c2-2.2,4.3-4.2,7-5.6c2.1-1,4.1-2,6.2-3
		c1-0.5,1.6-1.2,1.9-2.3c0.2-0.6,0.7-1,1.1-1.7c-1.7-3.8-1.7-8.1-1.9-12.3c-0.2-2.6-0.4-5-1.8-7.3c-0.8-1.3-0.7-1.3-0.5-3.8
		c-6.2-7.8-14.2-12.2-24.6-11.8c-0.1-0.5-0.2-0.9-0.3-1.3c0.3-0.1,0.7-0.1,1-0.3c2.2-1.2,4.3-0.8,6.6-0.2c1.6,0.5,3.2,1.3,5,1
		L764.6,118.5z M789.9,138.2c0.5-0.2,1.2-0.3,1.6-0.7c2.8-3.1,6.7-3.9,10.4-5.3c0.9-0.3,1.7-0.6,2.7-1c0.2-11.7,0-23.4,0.1-35.1
		c-1.3-0.1-1.7,0.7-2.3,1.7c0.3,1.4,0.4,2.9-0.3,4.5c-1.3,3-4.7,4.8-7.9,3.9c-2-0.5-4-0.9-5.9-2c-0.3,0.7-0.6,1.2-0.8,1.7
		c-0.8,1.8-1.6,3.6-2.5,5.3c-0.9,1.8-1.6,3.6-1.6,5.6c0,0.9-0.2,1.8-0.4,2.7c-0.6,2.4-0.6,4.8-0.2,7.2c0.6,3.5,1.3,7,2.1,10.5
		c0.1,0.5,0.4,1,0.8,1.9C787.2,138.9,788.6,138.6,789.9,138.2z M753.2,351.4c-0.8,2.2-1.1,4.4-1.4,6.7c-0.5,4-1.2,8-2.3,11.9
		c-1.5,5.6-3.5,11-5.2,16.5c-1.2,3.7-2.4,7.4-3.6,11.3c2.1,0.5,3.8,0.1,5.7-0.4c0.1-0.6,0.3-1.3,0.3-2c0-0.6-0.1-1.2-0.2-1.7
		c-0.4-2.9,0.1-5.5,2.1-7.8c0.8-0.9,1.2-1.9,1.4-3.1c0.7-4.3,1.4-8.7,2.4-12.9c1.8-7.5,3.7-15,5.6-22.5c0.2-1,0.5-2,0.4-3.1
		c-0.1-2.4,0-4.8,0.4-7.2c0.1-0.4,0-0.9,0-1.4c-0.1,0-0.2,0-0.3-0.1C756.8,341,755,346.2,753.2,351.4z M631.9,542.7
		c0.7,1.1,1.8,1.7,2.8,1.8c3.5,0.5,7,1.5,10.7,0.5c0.1-0.8,0.3-1.7,0.4-2.5c-0.3-0.2-0.5-0.5-0.7-0.5c-4.4,0.5-8.7-0.4-13.1-2
		C632.1,541.1,632,541.9,631.9,542.7z M785.7,154.9c0.2-0.3,0.4-0.5,0.4-0.7c0-2.5-0.7-4.8-1.4-7.1c-0.3-0.9-1.1-1.7-2-3
		c-0.1,1.1-0.2,1.6-0.2,2.1c0,0.8,0.2,1.7,0,2.4c-0.6,2.5,0.4,4.5,1.7,6.7C784.9,155.1,785.4,155,785.7,154.9z M744.5,272.9
		c0.2,0.4,0.3,0.6,0.5,0.7c2.6,1.3,5.1,2.6,7.9,3.9c0.5-0.8,0.9-1.4,1.4-2.2c-2.8-1.7-5.7-2.8-8.8-4.4
		C745,271.8,744.7,272.4,744.5,272.9z M665.4,418.5c1.4-1.1,1.5-1.4,2.8-3.8c1.2-2.3,0.7-4.6,0.8-7.1
		C667,410,665.9,413.3,665.4,418.5z M756.4,279c0.5-0.4,1-0.9,1.6-1.4c0.2,0.9,0.3,1.7,0.5,3c0.6-1.2,0.9-1.8,1.2-2.4
		c-0.2-0.4-0.3-0.7-0.4-0.8c-1.1-0.6-2.2-1.1-3.5-1.8C754.4,278.1,754.4,278.1,756.4,279z M810.2,41.9c1.4,0.2,2.1-0.5,2.2-1.8
		c-0.3-0.9-1,0-1.7-0.7c-0.1-0.3-0.3-1.1-0.6-1.9c-0.3-0.1-0.6-0.3-0.9-0.3c-1.3,0-2.7,0.1-4.6,0.2
		C809.2,38.1,809.2,37.4,810.2,41.9z M763.9,304c0,0.2,0.2,0.3,0.4,0.8c0.1-1.8,0.1-3.3,0.1-4.8c0.1-2.4,0.2-4.8,0.3-7.2
		c0-0.4-0.3-0.7-0.4-1.1c-0.2,0.1-0.3,0.2-0.5,0.2C763.9,295.9,763.9,300,763.9,304z M712.1,254.8c1,1.2,1.4,1.2,2.1,0.4
		c0.5-0.6,0.8-1.3,1.3-2.1c-0.4-0.4-0.8-0.7-1.2-1.1C713.4,253,712.8,253.9,712.1,254.8z M805.1,46.8c-0.2-0.3-0.2-0.6-0.4-0.7
		c-1.1-0.5-2.7-0.5-4.5-0.1C801.5,46.8,801.5,46.8,805.1,46.8z M770.9,36.3c-0.1,1,0.7,0.8,1.1,1.2c0.4,0.3,0.8,0.6,1.3,1
		c0.3-0.5,0.6-0.8,0.5-1c-0.4-0.9-0.9-1.7-1.5-2.8C771.8,35.3,771.3,35.8,770.9,36.3z M787.6,40.8c-0.1,0-0.2,0.1-0.4,0.3
		c0.3,1.2,1.6,1.7,2,3c0.6-0.3,1-0.6,2-1.1C789.3,42.8,789.1,40.9,787.6,40.8z M792,51.6c-1.9-0.2-3.7-0.1-4.5,2.2
		C789,53.1,790.5,52.4,792,51.6z M778.9,38.7c-0.3,0.2-0.6,0.3-0.7,0.4c-1,0.9-1.3,1.5-0.8,1.9c0.7,0.7,1.5,0.2,2.5-0.1
		C779.4,39.9,779.1,39.3,778.9,38.7z M792.7,49.3c1.7-0.2,3-0.9,4.3-2.2C794.7,47.7,794.7,47.7,792.7,49.3z M758.1,48.5
		c0.1-0.1-0.1-0.4-0.2-0.6c-0.1-0.1-0.4-0.3-0.6-0.3c-0.8,0.2-1.3,0.8-1.5,1.8C757.1,50,757.7,49.3,758.1,48.5z M754,53.5
		c0.2-0.3,0.3-0.7,0.4-1.1c0,0-0.5-0.3-0.5-0.2c-0.3,0.4-0.5,0.9-0.7,1.4c0,0,0.1,0.2,0.2,0.2C753.7,53.6,753.9,53.6,754,53.5z
		 M767.7,31.5c0,0.1,0.4,0.3,0.7,0.5c0.2-0.4,0.4-0.7,0.5-1.1c0,0-0.3-0.2-0.6-0.4C768.1,30.8,767.8,31.2,767.7,31.5z M773.3,27.1
		c0.8,0.8,1.5,0.2,2.3,0C774.8,26.7,774.1,26.2,773.3,27.1z M817.6,39.6c0.2-0.2,0.2-0.5,0.2-0.8c-0.3,0-0.6,0-0.8,0.1
		c-0.2,0.1-0.4,0.5-0.6,0.7C816.9,40.1,817.3,39.9,817.6,39.6z M766.6,58.2c-0.2-0.3-0.5-0.6-0.9-0.9c-0.1-0.1-0.5,0.1-0.6,0.3
		c-0.3,0.5,0.1,0.8,0.5,1c0.2,0.1,0.4,0.1,0.7,0.1C766.4,58.5,766.6,58.2,766.6,58.2z M783,56.5c-0.1,0.1,0,0.4,0,0.5
		c0,0,0.2,0.1,0.3,0.1c0.4-0.2,0.7-0.4,1.1-0.7c-0.1-0.2-0.2-0.3-0.3-0.5C783.6,56.2,783.3,56.3,783,56.5z M761.6,54.2
		c0.2,0,0.4-0.1,0.6-0.1c0.1,0,0.2-0.2,0.2-0.3c0-0.3-0.1-0.6-0.1-0.9c-0.2,0.2-0.5,0.3-0.7,0.5c-0.1,0.2-0.1,0.4-0.1,0.6
		C761.5,54,761.6,54.2,761.6,54.2z M775.5,53.7c0.3,0,0.5-0.2,0.8-0.3c-0.1-0.2-0.2-0.5-0.3-0.6c-0.3,0-0.5,0.1-0.8,0.2
		C775.3,53.3,775.4,53.7,775.5,53.7z M801.7,48.6c-0.4-0.5-0.8-0.7-1.4-0.3C800.7,49,801.2,48.9,801.7,48.6z M760.1,36.8
		c0,0,0.1,0.2,0.2,0.2c0.3,0.1,0.9-0.4,0.9-0.8c0-0.1-0.1-0.2-0.3-0.4C760.6,36.2,760.4,36.5,760.1,36.8z M779.5,53
		c0.6-0.3,1-0.5,1.7-0.9C779.8,51.5,779.6,52,779.5,53z M800.4,33.1c-0.4,0.1-0.8,0.2-1.2,0.2c0.1,0.3,0.2,0.6,0.3,0.8
		c0.4-0.2,0.7-0.4,1.1-0.6c0,0,0-0.2,0-0.3C800.6,33.2,800.5,33,800.4,33.1z M759.4,332.9c0,0-0.1,0-0.1,0c0,0.3,0,0.6,0.1,0.9
		c0,0,0.1,0,0.1,0C759.4,333.4,759.4,333.1,759.4,332.9z M668.2,549c0.1,0.1,0.3,0.2,0.4,0.3c0,0,0.2-0.2,0.2-0.2
		c-0.1-0.2-0.2-0.3-0.4-0.5C668.4,548.7,668.2,548.9,668.2,549z M756.4,65.6c0,0.4,0.1,0.8,0.1,1.1c0,0,0.2,0,0.2,0
		c0-0.4,0.1-0.8,0.1-1.2c0-0.1-0.1-0.1-0.2-0.2C756.5,65.4,756.4,65.5,756.4,65.6z M753.9,62.6c0.1-0.2,0.2-0.4,0.2-0.6
		c0-0.1-0.2-0.2-0.4-0.3c-0.1,0.2-0.2,0.4-0.3,0.6C753.6,62.4,753.7,62.5,753.9,62.6z M804.5,31.9c-0.1-0.1-0.2-0.2-0.2-0.2
		c-0.2,0-0.3,0.1-0.5,0.2c0.1,0.1,0.2,0.1,0.2,0.2C804.2,32.1,804.3,32,804.5,31.9z M772.3,28.5l0-0.2l-0.2,0.1L772.3,28.5z
		 M805.4,90.4c0.1-0.1,0.1-0.1,0.2-0.2c-0.1,0-0.2,0-0.2,0.1C805.4,90.3,805.4,90.4,805.4,90.4z M820.3,86c0.1-0.1,0.2-0.3,0.2-0.4
		c0,0-0.1-0.1-0.2-0.2c0,0.1-0.1,0.2-0.1,0.3C820.3,85.8,820.3,85.9,820.3,86z M857.4,81.4c0-0.1-0.1-0.2-0.2-0.2
		c-0.1,0.1-0.2,0.2-0.2,0.2c0,0.2,0.1,0.4,0.2,0.6C857.3,81.8,857.4,81.6,857.4,81.4z M755.9,73.8c0.1-0.1,0.2-0.1,0.1-0.2
		c0-0.1-0.1-0.1-0.2-0.2c-0.1,0.1-0.1,0.1-0.2,0.2C755.7,73.7,755.8,73.7,755.9,73.8z M773.2,63.3l0-0.2l-0.2,0.1L773.2,63.3z"/>
	<path d="M707.7,321.9c-0.2,0.3-0.6,0.6-0.7,1c-0.6,2.2-1.2,4.4-1.9,6.8c-8,2.9-16.3,4.9-25.4,7c1.2,0.2,1.6,0.3,2.1,0.3
		c0.5,0,0.9-0.1,1.4-0.2c6.4-1.3,12.6-3.1,18.8-4.9c0.7-0.2,1.5-0.3,2.5-0.5c-0.1,3.5-1.2,6.5-1.8,9.6c-0.5,3.1-1.3,6.1-2,9.2
		c-5.3,1.5-10.5,2.3-15.7,3.2c-5.1,0.9-10.2,1.4-15.6,2.1c2.9,0.2,5.5,0.2,8.2-0.1c7.1-0.8,14.2-2.2,21.2-3.6c0.3-0.1,0.7,0,0.9,0
		c0.6,0.6,0.4,1.2,0.2,1.7c-0.9,2.4-1.9,4.7-2.9,7c-0.6,1.4-1.3,2.7-1.8,4.1c-0.5,1.2-0.6,2.4-0.3,3.7c0.6,2.1-0.2,4.1-1,6.1
		c-2,5.3-4.6,10.3-8.4,14.7c-0.7,0.8-1.3,1.6-1.9,2.5c-0.3,0.4-0.1,0.9,0.6,1.1c5.1-5.7,8.6-12.4,11-19.7c0.5-1.7,0.8-3.4,0.5-5.1
		c-0.3-1.7,0.1-3.2,0.8-4.7c1.9-3.6,3.4-7.3,4.5-11.2c0.1-0.2,0.3-0.4,0.4-0.6c1.4-1.1,3.4-0.6,4.6-2l0.1,0.1
		c-1.3,0.1-2.7,0.1-4.3,0.2c0-0.5-0.1-1,0-1.4c1.2-5.8,2.4-11.5,3.6-17.4c0.8-0.4,1.5-0.7,2.2-1c2.3-1,4.7-2,6.9-3.1
		c1-0.5,2-1.2,1.8-2.8c-1.5-1.5-3.3-1.2-5.2-0.8c-0.7,0.2-1.6,0.3-1.5,1.7c1.9-0.1,3.7-1.1,5.7-0.3c-2.2,2.1-4.3,3.2-9.1,4.5
		c0-0.6-0.1-1.1,0-1.6C706.8,325.7,707.2,323.8,707.7,321.9L707.7,321.9z"/>
	<path d="M182.8,322.7c-0.2,0.6-0.6,1.2-0.6,1.9c-0.1,1.7-0.1,3.4-0.2,5.2c-0.1,1-0.3,2-0.4,3c-1.7,0.9-3.2,1.8-4.7,2.5
		c-5.3,2.6-10.6,5-15.8,7.6c-0.6,0.3-1.7,0.3-1.8,1.3l-0.1-0.1c1.2-0.4,2.5-0.6,3.6-1.1c4.9-2.3,9.8-4.6,14.7-7
		c1.1-0.5,2.3-1.1,3.5-1.7c0.2,0.4,0.5,0.6,0.5,0.9c0,5.8-0.1,11.5-0.2,17.3c0,0.3-0.2,0.7-0.3,1.1c-0.8,0.4-1.8,0.9-2.7,1.3
		c-8,3.2-16,6.5-24.3,8.8c-0.3,0.1-0.5,0.4-0.8,0.6l-0.1-0.1c2.1,0,4.1-0.6,6.1-1.1c5.8-1.6,11.3-3.9,16.9-6.1
		c1.4-0.5,2.8-1.1,4.1-1.6c0.8,0.3,0.7,0.9,0.7,1.5c0,2.3-0.6,4.6-1.2,6.8c-0.4,1.4-0.7,2.9-1.1,4.4c-0.4,1.6-0.3,3.1,0.3,4.7
		c0.8,2,0.5,4.1,0.1,6.1c-1.1,5.8-2.8,11.4-5.9,16.5c-0.4,0.6-0.7,1.2-0.8,1.9c-0.1,0.4,0.1,0.8,0.3,1.7c1.6-2.7,2.9-5,3.8-7.4
		c1.6-4.2,2.9-8.5,3.5-13c0.3-2.3,0.5-4.5-0.2-6.9c-0.4-1.3-0.4-2.8-0.1-4.1c0.8-4.3,1.9-8.6,2.9-13.2c1.4-0.8,3.2-1.8,5-2.8
		c-0.1-0.1-0.1-0.3-0.2-0.4c-1.6,0.6-3.1,1.2-4.8,1.8c-0.1-0.7-0.3-1.1-0.3-1.5c0.1-5.4,0.1-10.9,0.2-16.3c0-0.6,0.2-1.1,0.4-1.9
		c1-0.6,2.1-1.2,3.1-1.9c1.6-1.1,3.2-2.2,4.8-3.4c1.1-0.9,1.1-1.1,1.3-2.9c-3.2-1.2-5.2-0.7-6.8,1.9c1.2,0.2,2-0.7,2.9-0.9
		c0.9-0.2,1.8-1.1,2.9-0.3c-1.6,2.5-4.7,4.6-8,5.7C182.3,328.5,182.9,325.6,182.8,322.7L182.8,322.7z"/>
	<path d="M150.3,300.4c0.5-0.5,0.8-0.7,0.9-1c2.7-5.1,5.5-10.1,7.5-15.6c2.3-6.4,4.6-12.8,6.8-19.3c0.4-1.1,0.8-2.1,0.1-3.6
		c-0.4,0.8-0.6,1.2-0.8,1.7c-3.5,11.5-8.6,22.4-13.6,33.3c-0.4,0.8-0.8,1.7-1.1,2.5C150.1,299,150.3,299.5,150.3,300.4z"/>
	<path d="M702.8,256.8c-0.8,0-0.8,0.6-1,0.9c-4.9,9.2-10.7,17.8-16.8,26.3c-1.3,1.9-2.7,3.8-4,5.7c-0.5,0.6-1,1.3-0.4,2.3
		c0.3-0.2,0.6-0.3,0.8-0.5c3.6-4.4,7.2-8.8,10.1-13.6c3.5-5.8,6.9-11.8,10.3-17.7c0.5-0.8,0.8-1.7,1.1-2.5
		C703.1,257.4,702.9,257.1,702.8,256.8z"/>
	<path d="M371.2,138.9c-0.7,1.2-1.4,2.4-2.1,3.8c-0.3,0.6,0,1.3,0.4,1.5c0.7,0.2,1.1-0.1,1.4-0.6c0.4-0.7,0.9-1.4,1.1-2.1
		c1.1-3.8,1.5-7.7,0.8-11.6c-0.4-2-0.4-3.8,0.4-5.7c1.2-3.4,0.6-6.6-2.2-9.2c-0.2-0.2-0.6-0.3-0.9-0.5c-0.1,0-0.2,0-0.4,0
		c-0.1,0.3-0.3,0.6-0.2,0.9c0.3,0.5,0.6,1,1.1,1.4c1.8,1.7,2.2,4,1.4,6c-1.2,2.9-0.8,5.9-1,8.9C370.9,134,371.1,136.4,371.2,138.9z"
		/>
	<path d="M183.1,266c-0.3,0.5-0.6,0.9-0.7,1.3c-0.3,1.7-0.6,3.4-0.9,5.1c-0.7,3.8-1.4,7.7-2,11.5c-0.1,0.6-0.2,1.1-0.1,1.7
		c0,0.3,0.3,0.6,0.6,0.7c0.3,0.1,0.8,0,0.9-0.1c0.4-0.5,0.8-1.1,1.1-1.7c1.8-4.2,2.3-8.6,2.1-13.2C184,269.6,183.5,267.9,183.1,266z
		"/>
	<path d="M719.1,264.4c-0.4,0.4-0.8,0.6-0.9,0.8c-2.1,5.6-4.2,11.2-6.3,16.8c-0.2,0.4-0.2,0.9-0.2,1.3c0,0.3,0.3,0.6,0.6,0.8
		c0.1,0.1,0.5,0.1,0.6-0.1c0.4-0.3,0.8-0.5,1-0.9c3.1-4.5,4.8-9.4,4.8-14.8C718.7,267.2,718.9,265.9,719.1,264.4z"/>
	<path d="M225.5,373.6c-0.3-2.5-0.6-3.4-3-7c-3.8-5.8-10.5-12.9-14.7-15.4c0.1,0.4,0.1,0.8,0.2,1c1.1,1.2,2.3,2.3,3.4,3.4
		c4.7,4.5,8.8,9.4,12.1,15C224.1,371.5,224.8,372.5,225.5,373.6z"/>
	<path d="M726.8,352.4c1.6,3.7,4,5.9,5.6,8.7c1.6,2.7,3.2,5.4,4.5,8.2c1.4,2.9,2.5,5.9,3.8,9c0.5-1,0.2-1.9-0.1-2.8
		c-0.9-3.4-2.3-6.5-3.9-9.6c-2.4-4.5-5.3-8.6-8.5-12.6C728,353.1,727.7,353,726.8,352.4z"/>
	<path d="M714.1,295.6c0.6-0.9,0.9-1.2,1-1.6c2.9-9.1,4.5-18.5,6.8-27.8c0-0.1-0.1-0.2-0.2-0.3c-0.1-0.1-0.2-0.1-0.5-0.2
		c-0.7,0.8-1,1.9-1.2,3c-0.6,3-1.3,6.1-1.8,9.1c-0.9,5.4-2.3,10.8-3.9,16.1C714.3,294.3,714.3,294.6,714.1,295.6z"/>
	<path d="M186.2,266.8c-1.2,1.4-1.3,3-1.3,4.6c0,3.6,0,7.1,0,10.7c0,3.8,0.1,7.6-0.6,11.4c-0.2,0.9,0,1.8,0,2.8
		c1-0.8,0.5-1.8,0.8-2.7c0.2-0.9,0.3-1.8,0.4-2.7c0.3-7.6,0.7-15.2,1-22.8C186.4,267.7,186.3,267.2,186.2,266.8z"/>
	<path d="M215.5,292.5c1.1-2.3,1.4-3.9,1.1-7.6c-0.3-3.3-0.2-6.8-1.8-10c-0.3,0.3-0.6,0.4-0.6,0.6c-0.1,0.2-0.1,0.5-0.1,0.7
		C215.1,281.4,215.4,286.8,215.5,292.5z"/>
	<path d="M748.5,278.9c-1.4,1.7-0.9,3.2-1.1,4.6c-0.2,1.5-0.1,3-0.3,4.5c-0.1,1.5-0.4,3-0.6,4.4c-0.2,1.5-0.4,2.9-0.4,4.4
		c1.5-2.2,1.7-4.8,2.2-7.3C748.8,286.1,749,282.7,748.5,278.9z"/>
	<path d="M209.5,383.3c0.3,1,0.2,1.5,0.5,1.8c3,3.5,6.4,6.7,10.1,9.4c0.5,0.4,1.2,0.8,2.1,0.2c-0.9-1.1-2.2-1.7-3.1-2.6
		c-1-0.9-2.1-1.9-3.1-2.8c-1-0.9-2-1.9-3-2.8C211.9,385.6,211.1,384.4,209.5,383.3z"/>
	<path d="M733.1,398.3c-3.3-4.3-6.5-8.7-10.1-13.5c0.1,1,0,1.5,0.2,1.9c2.3,4,5,7.7,8.1,11.1c0.4,0.5,1.1,0.7,1.6,1
		C732.9,398.6,733,398.4,733.1,398.3z"/>
	<path d="M226,286.5c-0.5-2.8-0.9-5.6-2.3-8.4C223.4,280.3,224.2,283.4,226,286.5z"/>
	<path d="M756.5,283.8c-0.6,3.6-0.4,5.7,0.8,9.5C757.6,289.9,757.2,287.1,756.5,283.8z"/>
	<path d="M688.7,305.5c-1.2-0.7-2.1,0-3,0.2c-0.9,0.2-1.8,0.2-3,0.4c0.4,0.4,0.7,0.8,0.9,0.9C685.5,307.3,687.2,306.9,688.7,305.5z"
		/>
	<path d="M160.7,311.4c-1.7,0.6-3.3,1.3-5,1.9c-0.3,0.6,0,0.8,0.6,0.8c0.5,0,0.9,0,1.4-0.1c0.8-0.3,1.5-0.6,2.2-1
		c0.5-0.3,0.9-0.7,1.3-1.1C160.9,311.7,160.8,311.6,160.7,311.4z"/>
	<path d="M182.8,322.6c0.9-1.9,0.2-4,0.2-6C182.9,318.6,182.9,320.6,182.8,322.6L182.8,322.6z"/>
	<path d="M183.9,311.9c0-1.5,0-2.9,0-4.4c0,0-0.1,0-0.1,0c0,1.4,0,2.9,0,4.3C183.8,311.9,183.8,311.9,183.9,311.9z"/>
	<path d="M364.7,130.3c-0.4,0.1-0.9,0-1.2,0.2c-0.6,0.4-1.4,0.8-1.2,1.8c0,0.1,0.1,0.2,0.2,0.3c0.6,0.3,1.3-0.2,2-1.4
		C364.6,130.9,364.6,130.6,364.7,130.3L364.7,130.3z"/>
	<path d="M708.4,319.2c-0.9,0.8-0.7,1.8-0.7,2.8l-0.1-0.1C708.5,321.1,708.2,320,708.4,319.2L708.4,319.2z"/>
	<path d="M708.3,319.1c0.7-0.3,0.5-0.8,0.3-1.4C708.5,318.2,708.4,318.7,708.3,319.1L708.3,319.1z"/>
	<path d="M710.6,310c0,0.3,0,0.5,0.1,0.8c0,0,0.1,0,0.1,0c0-0.3,0-0.5-0.1-0.8C710.7,310,710.7,310,710.6,310z"/>
	<path d="M712.7,303C712.7,302.6,712.7,302.8,712.7,303C712.7,302.8,712.7,302.6,712.7,303z"/>
	<path d="M184.4,302.3C184.4,301.9,184.4,302.1,184.4,302.3C184.4,302.1,184.4,301.9,184.4,302.3z"/>
	<path d="M713.4,299.5c0,0.3,0,0.6,0.1,0.9c0,0,0.1,0,0.1,0c0-0.3,0-0.6-0.1-0.9C713.5,299.5,713.4,299.5,713.4,299.5z"/>
	<path d="M153,364.3c-0.4,0-0.9,0.1-0.5,0C152.2,364.5,152.5,364.3,153,364.3L153,364.3z"/>
	<path d="M709.9,312.8c0,0.3,0,0.5,0.1,0.8c0,0,0.1,0,0.1,0c0-0.3,0-0.5-0.1-0.8C710,312.8,710,312.8,709.9,312.8z"/>
	<path d="M159.2,344.2c-0.2,0-0.4-0.1-0.6,0c-0.1,0-0.2,0.2-0.2,0.4c0.1,0,0.2,0,0.3,0C158.9,344.4,159,344.2,159.2,344.2
		L159.2,344.2z"/>
	<path d="M706.2,349.6c0.3,0,0.6,0,1-0.1C706.7,348.9,706.4,349.2,706.2,349.6L706.2,349.6z"/>
	<path d="M856.9,545.3c0.1,0.2,0.1,0.5,0.1,0.3C857.1,545.8,857,545.6,856.9,545.3L856.9,545.3z"/>
	<path d="M712.1,305.4c0,0,0.1-0.1,0.1-0.1c-0.1-0.1-0.1-0.1-0.2-0.2C712,305.2,712.1,305.3,712.1,305.4z"/>
	<polygon points="711.5,308.2 711.5,307.8 711.3,307.9 	"/>
	<path d="M709.3,315.8c0,0,0.1-0.1,0.1-0.1c-0.1-0.1-0.1-0.1-0.2-0.2C709.3,315.6,709.3,315.7,709.3,315.8z"/>
	<path d="M701.4,271.1c-0.1,0.1-0.2,0.1-0.2,0.2C701.2,271.3,701.2,271.2,701.4,271.1L701.4,271.1z"/>
	<path d="M732.5,267.8c0-0.1,0-0.2,0-0.3C732.5,267.6,732.6,267.7,732.5,267.8L732.5,267.8z"/>
	<path d="M207.4,142c-1,0.2-1.7,0.1-2.3,0.4c-3.6,1.3-7.3,2-11.2,1.8c-0.4,0-0.8,0.2-1.2,0.3c0,1,0.6,1,1.1,1.2
		c3.4,0.9,6.6,0.3,9.8-0.9C205,144.2,206.5,143.8,207.4,142z"/>
	<path d="M230.1,154.4c2.2,2.1,5,1.6,7.7,1.5c2-0.1,2.8-0.7,3.8-2.3c-0.2-0.1-0.3-0.4-0.5-0.4c-3.5,0.1-7,0.3-10.6,0.5
		c-0.1,0-0.2,0.1-0.2,0.2C230.2,154,230.2,154.1,230.1,154.4z"/>
	<path d="M273.1,166.1c0.1,1.8,0.2,2.2,1.4,2.2c1.7,0.1,3.1,0.8,4.5,1.5c1.3,0.6,2.6,1,4,0.6c0.4-0.1,0.8-0.5,0.9-0.9
		c0.1-0.3-0.3-1-0.6-1.1c-1.1-0.4-2.2-0.7-3.3-0.8c-1.2-0.1-2.2-0.2-3.1-1.2c-0.4-0.4-1.2-0.4-1.9-0.5c-0.7,0-1.3,0.1-2,0.2
		L273.1,166.1z"/>
	<path d="M376.8,159.2c3.5,0.6,6.8,0.1,10-0.7c0.6-0.1,1.2-0.5,2.2-1c-0.6-0.4-0.8-0.6-1.2-0.7c-0.3-0.1-0.7-0.1-1,0
		c-2.9,0.9-5.8,1.2-8.8,1.3c-0.3,0-0.6,0.2-0.9,0.4C377,158.6,377,158.8,376.8,159.2z"/>
	<path d="M217,179c-0.7-2.7-1.5-4.2-4.3-7.7c-0.8-0.1-1.1,0.5-1.1,1c0,1.5,0.9,2.5,1.7,3.7C214.2,177.2,215.1,178.4,217,179z"/>
	<path d="M283.5,148.9c1.6,2.5,4.2,3.6,6.7,4.9c0.6,0.3,1.4,1,2.2,0c-0.2-0.2-0.3-0.6-0.5-0.8c-2.5-1.5-5.1-3-7.6-4.6
		c-0.1,0-0.2,0-0.3,0.1C283.9,148.6,283.8,148.7,283.5,148.9z"/>
	<path d="M218.5,216.2c1.4-1,0.9-2.5,1.4-3.6c0.6-1.2,1-2.6,1.5-3.8c0.5-1.1,1.2-2.1,2-3.5c-2,0.3-2.7,1.4-3.2,2.6
		C219,210.5,217.6,213,218.5,216.2z"/>
	<path d="M209,240c1.1,2.5,2.1,5.1,3.7,7.4c0.7,0.1,0.9-0.3,0.9-0.7c-0.3-2.2-1.3-4.2-2.5-6C210.6,239.8,209.8,239.7,209,240
		L209,240z"/>
	<path d="M293.5,161c-2.8-1.8-8.6-3.9-10.6-3.9C284.4,158.7,288.5,160.2,293.5,161z"/>
	<path d="M273.1,166.2c-0.1-0.2-0.2-0.4-0.4-0.6c-1.8-1.5-4-2-6.4-1.9c0.2,0.5,0.3,0.9,0.5,1c1.3,0.7,2.6,1.4,3.9,2.1
		c0.9,0.4,1.8,0,2.4-0.7L273.1,166.2z"/>
	<path d="M196.5,208.1c1.1,2.5,2.8,3.8,4.2,5.4c0.3-0.5,0.7-0.9,0.6-1c-0.4-0.8-0.9-1.6-1.5-2.3C199,209.5,198.4,208.5,196.5,208.1z
		"/>
	<path d="M204.6,202.6c-0.5-2.1-1.8-3.6-3.5-5.1c-0.1,0.6-0.3,0.9-0.2,1.2C201.8,200.3,202.6,201.9,204.6,202.6z"/>
	<path d="M172.1,229.4c-0.5,0.8-0.8,1.1-0.9,1.5c-0.5,1.9-1,3.7-1.5,5.6c0.8,0.5,1-0.1,1.1-0.4c0.5-1.6,1-3.3,1.4-5
		C172.3,230.7,172.1,230.2,172.1,229.4z"/>
	<path d="M209.2,205.9c0.9,1.3,2.2,1.9,3.4,2.5c0.7-0.6,0.3-1,0-1.3c-1-0.8-2.1-1.3-3.4-1.1L209.2,205.9z"/>
	<path d="M208.9,240.1c0.1-0.5,0.2-0.9,0.2-1.4c-0.1-2.2-0.4-2.5-2.9-2.8l0.1-0.1C207.8,236.8,208.3,238.5,208.9,240.1L208.9,240.1z
		"/>
	<path d="M397.6,132.5c-1.5,0.9-1.5,0.9-1.1,3.2C397.8,134.6,397.9,134.3,397.6,132.5z"/>
	<path d="M391.4,149.1c-1.3-1.8-2.1-2.8-4.3-2.9C388.4,147.7,389.2,148.7,391.4,149.1z"/>
	<path d="M248.7,151.1c-2.6-0.3-2.8-0.2-3.6,1.4c1.6,0.3,2.7-0.2,3.5-1.5L248.7,151.1z"/>
	<path d="M188.6,166.7c-1.1-0.6-1.9-0.5-2.6,0.5C187.1,168.3,187.7,168.2,188.6,166.7z"/>
	<path d="M172,228.5c0.5-1.4,1.1-2.6,0.9-3.9c-0.7-0.4-0.9,0.2-1,0.5C171.6,226.1,171.3,227.2,172,228.5z"/>
	<path d="M261.6,162.1c0.9,1,1.7,1.9,2.9,1.2c-0.1-0.9-0.8-1.2-1.4-1.3C262.6,161.8,262.1,162,261.6,162.1z"/>
	<path d="M314.5,166.7c-1-1.1-1-1.1-3.3-0.2C312.8,167,312.8,167,314.5,166.7z"/>
	<path d="M319.4,168.2c0.8,0,1.6,0.1,2.3,0c0.3,0,0.5-0.4,0.7-0.7c0.2-0.3-0.3-0.7-0.9-0.5c-0.7,0.2-1.4,0.5-2.1,0.8
		C319.4,168,319.4,168.1,319.4,168.2z"/>
	<path d="M371.8,159c1.2,0.5,2.2,0.5,3.3-0.1C373.6,157.8,373.6,157.8,371.8,159z"/>
	<path d="M226.5,203.7c-1.7,0.5-1.7,0.5-2,2.4c0.1,0,0.2,0.1,0.2,0.1C225.3,205.4,225.9,204.5,226.5,203.7z"/>
	<path d="M217.7,179.9c0,0.2,0,0.4,0.1,0.6c0.2,0.5,0.5,1,1.2,0.9c0.4,0,0.6-0.8,0.3-1.4C218.9,179.4,218.4,179.1,217.7,179.9z"/>
	<path d="M226.7,151.9c-1.5-0.9-1.5-0.9-2.6,0C225.2,152.4,225.2,152.4,226.7,151.9z"/>
	<path d="M248.6,151c0.9,0.4,1.8,0.4,2.6-0.3c0-0.7-0.3-1-1-0.9c-0.7,0.1-1.3,0.5-1.5,1.3L248.6,151z"/>
	<path d="M300.3,163.2c1.7,0.2,3,0.6,4.6,0C303.2,162.6,302,162.5,300.3,163.2z"/>
	<path d="M210.9,141c1,0.4,1.7,0,2.2-0.8C212,140.1,212,140.1,210.9,141z"/>
	<path d="M209.1,206c-0.2-0.5-0.3-1.1-0.6-1.6c-0.2-0.4-0.6-0.6-1.2-1.1c0,0.6-0.1,1,0,1.1c0.6,0.5,1.2,1,1.9,1.5L209.1,206z"/>
	<path d="M202.6,216.1c0.3,0.3,0.6,0.6,1,0.8c0.2,0.1,0.6-0.1,0.9-0.1c-0.1-0.3-0.1-0.7-0.2-0.8c-0.4-0.2-0.9-0.3-1.4-0.4
		C202.8,215.7,202.7,215.9,202.6,216.1z"/>
	<path d="M393,135.4c0-0.9,0-1.6,0-3.1C392.3,133.8,392.3,134.5,393,135.4z"/>
	<path d="M259.5,161.9c-0.3-0.9-0.8-1-1.4-0.6c-0.4,0.3-0.1,0.8,0.5,0.8C258.8,162.1,259,162,259.5,161.9z"/>
	<path d="M206.2,235.9c0-0.8,0-1.7,0-2.5C205.5,234.3,205.9,235.1,206.2,235.9L206.2,235.9z"/>
	<path d="M394.6,142.8c-0.2,0.3-0.3,0.5-0.4,0.8c0,0.1,0.4,0.4,0.4,0.3c0.2-0.2,0.4-0.4,0.5-0.7C395.1,143.2,394.8,143,394.6,142.8z
		"/>
	<path d="M295.7,154.4c0.3,0.1,0.6,0.3,0.9,0.4c0.1,0,0.3-0.2,0.5-0.3c-0.1-0.2-0.2-0.4-0.4-0.5c-0.3-0.1-0.7,0-1,0
		C295.7,154.1,295.7,154.2,295.7,154.4z"/>
	<path d="M367.3,157.9c0.1,0.2,0.3,0.3,0.4,0.5c0.2-0.2,0.4-0.4,0.6-0.6c-0.2-0.1-0.4-0.2-0.6-0.2
		C367.5,157.6,367.4,157.8,367.3,157.9z"/>
	<path d="M227.5,201.7c1.7-0.5,2.1-1,1.4-2.1C228.5,200.2,228.2,200.6,227.5,201.7z"/>
	<path d="M195.8,182.9c-0.2,0.3-0.3,0.6-0.4,0.9c0,0.1,0.1,0.4,0.2,0.5c0.4,0.2,0.9-0.2,0.8-0.6
		C196.4,183.5,196.2,183.3,195.8,182.9z"/>
	<path d="M392.7,128c0.1,0.2,0.2,0.3,0.3,0.5c0.1-0.2,0.3-0.3,0.4-0.5c0,0-0.1-0.3-0.2-0.2C393,127.8,392.8,127.9,392.7,128z"/>
	<path d="M304.4,154.6c0.1,0.1,0.1,0.1,0.2,0.2c0-0.1,0.1-0.2,0.1-0.2c0-0.1-0.1-0.1-0.2-0.2C304.5,154.4,304.4,154.5,304.4,154.6z"
		/>
	<path d="M253,150.5c0.1,0.1,0.2,0.2,0.2,0.2c0.1-0.2,0.2-0.4,0.2-0.5c0-0.1-0.1-0.1-0.2-0.2C253.2,150.2,253.1,150.3,253,150.5z"/>
	<path d="M396.1,139.8c0,0.1,0.1,0.2,0.1,0.3c0.1-0.1,0.2-0.2,0.2-0.3c0,0-0.1-0.1-0.2-0.2C396.2,139.6,396.2,139.7,396.1,139.8z"/>
	<path d="M158.7,455.6c0.4-0.2,0.7-0.3,0.9-0.6c0.8-1.2,3.9-8.6,4.5-10.6c-0.4,0-0.9-0.2-1.2-0.1c-0.5,0.3-0.9,0.7-1.2,1.2
		c-1.8,2.8-2.9,5.8-3.2,9.1C158.5,454.8,158.7,455.1,158.7,455.6z"/>
	<path d="M150.4,535.6c-0.1,0-0.3,0-0.3,0.1c-0.3,0.6-0.7,1.2-0.8,1.9c-0.4,2.9-0.8,5.9-1.2,8.7c1,0.8,1.5,0.3,1.8-0.3
		c0.3-0.6,0.6-1.3,0.6-2c0.1-2.6,0.2-5.3,0.2-8C150.7,535.9,150.5,535.7,150.4,535.6z"/>
	<path d="M196.6,418.4c-0.5-0.2-0.8-0.5-1.1-0.4c-0.3,0-0.6,0.3-0.9,0.5c-1.8,1.6-3.5,3.2-5.4,4.9
		C190.9,424.1,192.6,422.9,196.6,418.4z"/>
	<path d="M183,441.8c0.4-0.1,0.7-0.1,0.8-0.3c1.4-2.2,1.2-4.6,0.8-7c0-0.2-0.5-0.3-1-0.6c-0.2,0.9-0.4,1.7-0.4,2.4
		C183.1,438.2,182.7,440,183,441.8z"/>
	<path d="M170.4,424.7c0.8-0.9,1.3-1.6,1-2.6c-0.2-0.5-0.8-1-1.3-0.8c-0.4,0.2-0.8,0.5-0.8,0.9C169.1,423.2,169.5,423.9,170.4,424.7
		z"/>
	<path d="M155.7,472.2c-1,1.7-0.9,2.9-1.3,4.8C156,475.4,156.7,474.3,155.7,472.2z"/>
	<path d="M155.9,469.6c0.3-0.6,0.6-1.1,0.8-1.7c0.1-0.2-0.1-0.7-0.3-0.9c-0.5-0.3-0.9,0-1,0.5c-0.2,0.6-0.2,1.3-0.2,1.9
		C155.4,469.5,155.7,469.6,155.9,469.6z"/>
	<path d="M181.8,447.1c0.6-2.1,0.6-2.1-1.1-3.1C180.4,445.2,180.4,445.2,181.8,447.1z"/>
	<path d="M151.2,533.4c0.1-0.9,0.3-1.8,0.4-3C150.3,531.7,150.3,531.7,151.2,533.4z"/>
	<path d="M154,478.6c-0.1,0.4-0.3,0.8-0.3,1.2c0,0.3,0.1,0.6,0.2,1C155.2,480.3,154.9,479.5,154,478.6z"/>
	<path d="M157.4,463.3c1.1-0.7,1.2-1.4,0.6-2.4C156.9,461.4,157.1,462.2,157.4,463.3z"/>
	<path d="M179.1,441.9c0.3-0.3,0.6-0.4,0.6-0.5c0-0.3-0.1-0.7-0.3-0.9c-0.2-0.2-0.5-0.3-0.8-0.4c-0.1,0.3-0.2,0.6-0.2,0.8
		C178.6,441.2,178.9,441.5,179.1,441.9z"/>
	<path d="M154.6,519.3c-0.1,0.3-0.2,0.6-0.2,0.9c0,0.3,0.1,0.6,0.4,0.9c0-0.6,0.1-1.2,0.1-1.8C154.8,519.3,154.7,519.3,154.6,519.3z
		"/>
	<polygon points="187.6,424.6 187.8,424.5 187.7,424.7 	"/>
	<path d="M187.7,424.7c-0.1,0.1-0.3,0.1-0.4,0.2c0.1,0,0.1,0,0.2-0.1C187.5,424.8,187.6,424.7,187.7,424.7L187.7,424.7z"/>
	<path d="M191.8,57.4c-0.6-0.1-1.1-0.3-1.9-0.5c-0.6,1.3-1,2.6-1.7,3.7c-0.7,1.1-1.7,2.1-2.6,3.1c1,2.2,1,2.2,2.7,3
		c0.2-0.8-0.4-1.2-0.7-1.8c-0.3-1,0.1-1.5,1-1.8c1.5,0.9,1.2,2.9,2.1,4.3c0.6-2.2,0.3-4-1-5.8c0.4-0.8,0.8-1.6,1.3-2.6
		c0.8,0.8,1.4,1.5,2.1,2.2c-0.3,0.9-0.7,1.7-0.9,2.6c-0.3,0.8-0.5,1.5-0.3,2.3c0.2,0.8,0.1,1.7,0.2,2.6c1,0.6,2.2,0.5,3.3,0.4
		c0.8-0.1,1.3-0.6,1.4-1.3c0.2-0.8-0.4-1.3-1-1.6c-0.3-0.2-0.7-0.1-1-0.3c-0.6-0.5-1.1-1-1.6-1.4c0.6-1.4,0.8-1.6,2.6-2.3
		c-1.4-1.7-2.8-3.3-4.2-4.9L191.8,57.4z"/>
	<path d="M217.8,53.5c1.2,0.3,2.3,0.5,3.3-0.3c1.6-1.1,3.2-1,5-0.5c1.4,0.4,2.9,0.7,4.4,0.9c0.4,0.1,1-0.1,1.3-0.3
		c0.3-0.3,0.4-0.8,0.6-1.1c-0.3-1.2-1.3-1.4-2.2-1.6c-2.9-0.4-5.7-0.6-8.6-0.1C219.9,50.9,219.7,51.1,217.8,53.5z"/>
	<path d="M229.6,58c0-0.9,0-1.7,0-2.5c-1.1-0.7-4.4,0.3-7.2,2.5c0.4,0.3,0.8,0.7,1.1,0.6c1-0.2,2-0.3,3,0.2
		C227.5,59.2,228.5,58.7,229.6,58z"/>
	<path d="M203.3,83.7c-0.4-0.5-0.9-1-1.3-1.5c-1.2-1.3-2.2-2.6-2.2-4.5c0-0.9-0.6-1.9-0.9-2.7c-0.9-0.2-1,0.3-1.1,0.7
		C197.3,79.6,199,82.4,203.3,83.7z"/>
	<path d="M209.7,98.7c0-0.7,0.2-1.5,0-2.1c-0.8-2.6-1-5.4-2.5-8.4c-0.2,0.6-0.5,0.9-0.5,1.2c0.4,3.1,1.2,6,2.4,8.9
		C209.2,98.4,209.5,98.5,209.7,98.7z"/>
	<path d="M190.7,77c-1.7,1.1-2.7,2.8-3.3,5.2c0.6-0.4,0.9-0.5,1-0.7C189.4,80.2,190.5,78.9,190.7,77z"/>
	<path d="M210.3,102.7c-1,1.1-0.5,1.9-0.2,2.9c0.6,0.1,0.8-0.2,0.7-0.7C210.7,104.1,210.5,103.4,210.3,102.7z"/>
	<path d="M214.6,90c-0.3-1.5-1.6-1.6-2.7-1.9C212.5,89.3,213.4,89.9,214.6,90L214.6,90z"/>
	<path d="M208.1,69.9c-0.4-0.4-0.9-0.8-1.4-1.3c-0.7,1.4,0.6,1.2,0.8,1.8C207.7,70.2,207.9,70,208.1,69.9z"/>
	<path d="M211.3,72.1c-0.5-0.4-0.9-0.7-1.6-1.2C210.1,72.3,210.1,72.3,211.3,72.1z"/>
	<path d="M211.1,107.4c0,0.2-0.2,0.4-0.1,0.5c0.1,0.2,0.4,0.3,0.5,0.4c0.1-0.2,0.2-0.5,0.1-0.6C211.6,107.5,211.3,107.5,211.1,107.4
		z"/>
	<path d="M214.7,89.9c0.1,0.2,0.2,0.3,0.3,0.5C215.4,89.9,215,89.9,214.7,89.9L214.7,89.9z"/>
	<path d="M206,567.6c-0.2,0-0.6,0-0.8,0.2c-1.1,0.8-2.3,1.6-3.3,2.5c-0.3,0.3-0.3,1.1-0.2,1.5c0.1,0.3,0.7,0.6,1.1,0.6
		c1.8,0,3.9-1.6,4.3-3.4C207.3,568.4,206.8,567.5,206,567.6z"/>
	<path d="M739.8,149c-0.3-2.6-0.9-5-0.9-7.5c-0.1-2.5,0.3-5,0.5-7.6c-2.6,1.5-3.5,3.6-3.4,8.2C736.1,145.6,737.1,147.6,739.8,149z"
		/>
	<path d="M838,155c0.3-0.1,0.6-0.1,0.9-0.3c1.6-1.1,3.2-2,5.2-2.6c2.3-0.6,4.3-2.1,6-3.8c0.5-0.5,0.9-1.1,0.3-2
		c-0.3,0.1-0.8,0.2-1.1,0.4c-1.9,1.5-4,2.7-6.1,3.8C841.1,151.6,839.2,152.8,838,155z"/>
	<path d="M765.6,130c0.1-0.1,0.2-0.2,0.2-0.3c-0.9-2.9-2.8-5.2-4.9-7.3c-0.7-0.7-1.1-0.7-2.3,0.1C759.8,125.2,762.6,128.2,765.6,130
		z"/>
	<path d="M776.5,183.4c-2.2-1.1-4.1-0.7-5.9-0.9c-1.8-0.1-3.6-0.4-5.6-0.6c0.1,0.4,0.1,0.7,0.2,0.9c0.4,0.4,0.9,0.7,1.4,0.9
		c2.7,0.9,5.4,0.9,8.2,0.5C775.3,184.1,775.7,183.8,776.5,183.4z"/>
	<path d="M772.9,199.4c-1.1-1.7-2.7-2.1-4.5-2.1c-0.4,0-0.9,0.4-1,0.7c-0.2,0.3-0.1,0.9,0.1,1.3c0.7,1.1,1.9,1.2,3,1.4
		C771.3,200.9,772.2,200.6,772.9,199.4z"/>
	<path d="M759.7,180.7c-0.4-2.8,0.6-4.9,1-7.2c-1.8,0.8-2.2,2.4-2.5,4C758,178.6,758.5,179.6,759.7,180.7z"/>
	<path d="M773.6,171.6c1.5,0.7,3,0.4,4.7,0c-1.1-1.5-2.4-1.1-3.6-1.1C774.1,170.5,773.6,170.8,773.6,171.6z"/>
	<path d="M846.1,132.7c1.8,2.1,1.8,2.1,3.4,2.1C848,132.5,847.7,132.3,846.1,132.7z"/>
	<path d="M855,122.3c1.2-0.9,1.2-2.2,1.5-3.2c-0.7-0.8-1.2-0.4-1.5,0.1C854.6,120.1,854.6,121.1,855,122.3z"/>
	<path d="M836,157c-1.8,0.2-2.4,1.1-2.7,2.5C835.6,158.7,835.6,158.7,836,157z"/>
	<path d="M784.4,171.4c-2.7-1.2-3-1.2-4.3,0.2C781.4,172.5,782.6,172,784.4,171.4z"/>
	<path d="M770,137.7c0.3-2.1-0.3-3.1-1.7-4.5C768.5,135.6,768.5,135.6,770,137.7z"/>
	<path d="M805.4,170.1c-1.2,0.5-2.4,1-3.8,1.5c1.8,0.7,2.9-0.5,4.2-0.9C805.6,170.5,805.5,170.3,805.4,170.1z"/>
	<path d="M831.3,161.6c-1.5-0.8-1.5-0.8-2.7,1C829.8,163.3,830.5,162.7,831.3,161.6z"/>
	<path d="M734.1,150.7c0.1,1,0.4,2,1.6,2.3c0.9-0.9,0.5-1.6-0.2-2.3C735.2,150.4,735,150.4,734.1,150.7z"/>
	<path d="M748.6,158.2c-0.6-0.7-1.3-1.4-1.9-2.2c0,0-0.2,0.1-0.3,0.1C746.9,157.7,746.9,157.7,748.6,158.2z"/>
	<path d="M769.6,139.4c-0.2,1.6-0.3,2.5,0.9,3C771.1,141.3,771,140.4,769.6,139.4z"/>
	<path d="M765.8,171.9c-1.6,0.2-1.9,1.1-2.7,2.3C764.5,173.8,765,173.1,765.8,171.9z"/>
	<path d="M850.6,118.4c0.3,1.1,0.4,1.8,0.6,2.7C851.7,119.9,851.7,119.9,850.6,118.4z"/>
	<path d="M742.7,154.2c0.6-0.8-0.1-1.1-0.6-1.5C741.5,153.5,742.3,153.8,742.7,154.2z"/>
	<path d="M791.1,176.7c-0.2,0.4-0.3,0.7-0.5,1c0.2,0.1,0.5,0.2,0.6,0.1c0.2-0.2,0.4-0.5,0.6-0.7C791.6,177,791.5,176.9,791.1,176.7z
		"/>
	<path d="M813.1,167.4c0.1,0.1,0.2,0.2,0.3,0.2c0.5,0.1,0.9,0,1-0.6c0-0.1-0.1-0.2-0.1-0.3c-0.4,0.1-0.7,0.2-1.1,0.4
		C813.1,167.1,813.1,167.3,813.1,167.4z"/>
	<path d="M851.6,113.9c0,0.4,0,0.8,0,1.2c0.1,0,0.2,0,0.3,0c0-0.4,0-0.8,0-1.2C851.7,113.9,851.6,113.9,851.6,113.9z"/>
	<path d="M852.7,129.5c0.2,0.2,0.3,0.4,0.5,0.5c0.2-0.2,0.4-0.4,0.5-0.7c0,0-0.3-0.4-0.4-0.3C853,129.1,852.8,129.3,852.7,129.5z"/>
	<path d="M781,181c0.2,0,0.4,0.2,0.5,0.1c0.1-0.1,0.2-0.3,0.3-0.5c-0.2,0-0.4-0.2-0.5-0.1C781.1,180.6,781.1,180.9,781,181z"/>
	<path d="M786.5,179.1c0,0,0.1,0.1,0.1,0.1c0.1-0.1,0.1-0.1,0.2-0.2C786.7,179.1,786.6,179.1,786.5,179.1z"/>
	<path d="M795.9,175.4c0.1,0.1,0.2,0.1,0.2,0.2c0.1-0.2,0.2-0.4,0.2-0.6c0,0-0.2-0.1-0.2-0.2C796,175,796,175.2,795.9,175.4z"/>
	<polygon points="855.1,125.9 855.2,125.7 855,125.7 	"/>
	<path d="M747.9,240c0.9,1.7,1.3,3.6,1.7,5.5c0.5,2.2,1,4.4,1.9,6.5c0.9,0.1,1.1-0.5,1-1c-0.3-2.5-0.4-5.1-2.3-7
		c-0.8-0.9-0.4-2-0.7-2.9C749.3,240.1,748.8,239.7,747.9,240L747.9,240z"/>
	<path d="M769.6,212.8c-0.6-0.1-1-0.3-1.2-0.2c-0.6,0.3-1.2,0.7-1.7,1.1c-1.9,2.1-3.3,4.4-4,7.1c-0.1,0.3,0.1,0.6,0.2,0.9
		c0,0.1,0.2,0.1,0.4,0.3c0.8-0.5,0.8-1.5,1.2-2.2c0.5-0.9,1-1.8,1.5-2.7c0.5-0.8,1-1.5,1.6-2.2C768.2,214.3,768.8,213.7,769.6,212.8
		z"/>
	<path d="M714.4,226.9c-0.3,0.6-0.7,1.1-1,1.7c-0.7,1.5-1.6,3-2.2,4.8C712.8,232.6,713.7,231.1,714.4,226.9z"/>
	<path d="M746.6,216.7c-0.1-1.4,0-2.1-0.3-2.6c-0.8-1.3-1.3-2.9-3.3-3.8C743.4,213,744.8,214.5,746.6,216.7z"/>
	<path d="M749.8,200.7c-1.2,0.8-0.9,1.4-0.7,1.9c0.8,2.2,1,2.5,2.7,3.9C752.2,204.1,750.4,202.8,749.8,200.7z"/>
	<path d="M714.9,225.7c1.2-1.1,1.3-2.4,1.8-3.6c-0.7-0.7-1-0.1-1.1,0.2C715.1,223.3,714.4,224.3,714.9,225.7z"/>
	<path d="M770.8,213.9c0.8-0.9,1.7-1.7,2.5-2.6c-0.4-0.6-0.9-0.6-1.2-0.2c-0.7,0.7-1.2,1.5-1.8,2.3
		C770.4,213.6,770.6,213.8,770.8,213.9z"/>
	<path d="M758.7,213.3c0.1-1.5,0.1-1.5-2.1-2.3C757.1,212.3,757.1,212.3,758.7,213.3z"/>
	<path d="M748.8,220.7c0.2-0.5,0.5-0.9,0.4-1c-0.2-0.4-0.6-0.6-0.9-0.9c-0.1-0.1-0.4,0-0.6,0.1c-0.1,0.1-0.2,0.5-0.2,0.6
		C747.8,219.8,748.2,220.2,748.8,220.7z"/>
	<path d="M774.7,210c1-0.5,1.4-0.6,1.7-0.9c0.2-0.2,0.1-0.6,0.1-0.9c-0.3,0-0.7-0.1-0.9,0.1C775.4,208.6,775.2,209,774.7,210z"/>
	<path d="M754.2,208c-0.2,0.9,0.3,1.5,1.2,2.1C755.5,208.9,755.2,208.2,754.2,208L754.2,208z"/>
	<path d="M747.6,237.9c0-0.4,0-0.8,0-1.2c-0.1,0-0.2,0-0.3,0c0,0.4,0.1,0.8,0.1,1.2C747.4,237.9,747.5,237.9,747.6,237.9z"/>
	<polygon points="747.8,240 747.7,239.8 747.9,240 	"/>
	<path d="M754.1,208c0-0.1,0-0.2,0-0.3C754.1,207.9,754.1,207.9,754.1,208L754.1,208z"/>
	<path d="M660,446.5c1.2-0.6,1.8-1.8,2.5-2.8c1.5-2.1,2.9-4.1,4.3-6.2c0.2-0.3,0.3-0.8,0.2-1.2c-0.1-0.4-0.9-0.5-1.5,0
		c-3,2.7-5.2,5.8-5.7,9.9C659.8,446.2,659.9,446.3,660,446.5z"/>
	<path d="M636.4,523.4c-0.3,0.4-0.7,0.7-0.8,1.1c-1,2.9-2,5.9-2.9,8.9c-0.1,0.2,0.2,0.6,0.5,0.8c0.1,0.1,0.5,0,0.6-0.1
		c0.3-0.2,0.6-0.4,0.8-0.7c1.3-3,2.4-6,2.3-9.3C636.9,523.9,636.6,523.7,636.4,523.4z"/>
	<path d="M695.4,420.9c2.6,0,3.9-0.5,7.2-3c0.4-0.3,1-0.6,0.5-1.5c-0.3,0-0.6-0.1-0.9,0C700,417.7,697.6,419,695.4,420.9z"/>
	<path d="M685.9,438.2c1-0.9,1.5-1.2,1.7-1.6c1-1.7,1.4-3.6,1.6-5.6c0-0.3-0.4-0.7-0.7-1c-0.1-0.1-0.7,0.3-0.8,0.5
		C687.1,432.8,686.5,435.1,685.9,438.2z"/>
	<path d="M685.3,450.4c0-1.7,0-3.4,0-5.1c0-0.4-0.2-0.9-1-1c-0.7,1.8-0.3,3.7-0.3,5.7c0.6,0.1,1,0.2,1.4,0.3L685.3,450.4z"/>
	<path d="M676.9,418.2c1.1-0.4,1.6-1.2,1.5-2.3c0-0.3-0.5-0.8-0.9-0.8c-0.3,0-0.9,0.3-1.1,0.6C676,416.4,676.2,417.3,676.9,418.2z"
		/>
	<path d="M682.8,438.4c0.4,1.7,0.5,2.6,0.7,3.5c0,0.2,0.3,0.3,0.6,0.6c0.7-0.6,0.7-1.3,0.6-2.1C684.5,439.6,684.1,439.2,682.8,438.4
		z"/>
	<path d="M653.5,462.1c-0.6,1.1-0.8,1.6-1,2.1c-0.2,0.6-0.7,1.2-0.4,1.9C654,464.8,654,464.7,653.5,462.1z"/>
	<path d="M654,459.7c1.7-1.2,1.7-1.2,1.2-2.7C654,458,654,458,654,459.7z"/>
	<path d="M638.6,518.5c-1.3,1.4-1.3,1.4-1.1,3.1C638.5,520.2,638.5,520.2,638.6,518.5z"/>
	<path d="M650.4,470.4c1.2-0.6,1.3-1.3,0.8-2.3C650.4,468.7,650,469.3,650.4,470.4z"/>
	<path d="M658,451.4c-1.1,0.6-1.2,1.3-0.7,2.2C658.2,453.1,658.5,452.4,658,451.4z"/>
	<path d="M681.8,435.5c0.1,0.3,0.2,0.6,0.3,0.9c0.1,0.1,0.4,0.2,0.5,0.1c0.2-0.1,0.4-0.3,0.3-0.5c0-0.3-0.2-0.6-0.3-0.9
		c-0.1-0.1-0.4-0.3-0.5-0.2C682,435,681.9,435.3,681.8,435.5z"/>
	<path d="M643.7,510.2c0.2-0.4,0.5-0.7,0.6-1.1c0.1-0.3,0-0.6-0.1-1.4c-0.5,1.1-0.7,1.7-1,2.4C643.3,510.1,643.5,510.2,643.7,510.2z
		"/>
	<path d="M693.6,421.1c-0.1,0.2-0.2,0.4-0.1,0.2C693.5,421.5,693.5,421.3,693.6,421.1L693.6,421.1z"/>
	<path d="M693.6,421c0.1,0,0.2,0,0.3,0C693.8,421,693.7,421.1,693.6,421L693.6,421z"/>
	<path d="M766.7,61.4c-0.5,0.1-0.7-0.2-0.7-0.7c-0.6,0-1.1,0-1.8,0c-0.7,1.1-1.3,2.2-2.1,3.1c-0.8,0.9-1.9,1.6-3,2.5
		c0,1.3,0.6,2.4,1.7,3.3c0.6-0.7,0.1-1.4,0-2c-0.1-0.9,0.4-1.2,1.3-1.3c1.5,1.1,0.7,3,1.3,4.6c1.1-2.1,1.1-3.9,0.1-5.8
		c0.5-0.7,1.1-1.5,1.8-2.4c0.6,1,1.1,1.7,1.6,2.4c-0.1,0.4-0.2,0.8-0.3,1.1c-1,1.4-1.9,2.8-1.6,4.7c0.1,0.3-0.4,0.8-0.7,1.2
		c0.8,1.2,2.1,1.2,3.3,1.4c0.7,0.1,1.4-0.3,1.7-1c0.3-0.8-0.1-1.3-0.6-1.8c-0.5-0.4-1.2-0.7-1.6-1.2c-0.5-0.5-0.6-1.2-0.2-1.9
		c0.4-0.6,0.9-1,1.7-0.7c0.2,0.1,0.4-0.1,0.8-0.1C768.7,64.9,766.9,63.5,766.7,61.4z"/>
	<path d="M792.4,62.2c1.1,0.7,2.1,1,3.3,0.5c1.7-0.8,3.3-0.4,5,0.4c1.2,0.6,2.5,1.1,3.8,1.6c0.4,0.2,0.9,0.3,1.3,0.2
		c0.4-0.1,0.8-0.5,1-0.9c0.1-0.3,0-0.9-0.2-1.2c-0.2-0.4-0.7-0.7-1.1-0.8c-2.9-1-5.9-1.9-9-1.8C795,60.2,795,60.2,792.4,62.2z"/>
	<path d="M803.1,69c0.3-0.9,0.5-1.6,0.7-2.4c-0.2-0.1-0.3-0.4-0.5-0.4c-2.4-0.5-4.7-0.2-6.9,1c-0.2,0.8,0.3,1.1,0.9,1.1
		c0.8,0,1.6,0,2.3,0.5C800.7,69.7,801.8,69.3,803.1,69z"/>
	<path d="M772.8,89.9c-0.5-1-1-2.1-1.6-3c-0.7-1.2-1.3-2.4-1-3.9c0.2-1.1-0.1-2.2-0.4-3.3c-0.4,0-0.8-0.1-1.1-0.1l0.1-0.1
		c-0.1,0.6-0.3,1.1-0.3,1.7C767.8,85.1,769.2,87.9,772.8,89.9L772.8,89.9z"/>
	<path d="M775,94.8c-0.3,3.8,0,7.2,0.8,10.6c1-0.7,0.6-1.6,0.7-2.4c0-0.9,0-1.8-0.1-2.7c0-0.9,0-1.8-0.1-2.7
		C776.2,96.7,776.4,95.7,775,94.8z"/>
	<path d="M761.6,80.5c-2.5,1.2-3.3,2.1-3.8,4.5C759.4,83.6,760.8,82.3,761.6,80.5z"/>
	<path d="M745.3,104.6c1.6-0.5,2.1-1.7,2.6-3.1c-0.4-0.1-0.9-0.4-1-0.3C746,102.1,744.9,102.9,745.3,104.6z"/>
	<path d="M775.1,109.3c0.1,0.9,0.1,1.7,0.2,2.6C776.5,111.1,776.5,110.8,775.1,109.3z"/>
	<path d="M751.2,100.7c-1.5-0.5-1.9,0.4-2.5,1.5c0.5,0,1,0.1,1.2-0.1C750.4,101.7,750.7,101.1,751.2,100.7z"/>
	<path d="M780.5,95.5c0.1,1.5,1.6,1.7,2.5,2.9C782.4,96.2,782.4,96.2,780.5,95.5L780.5,95.5z"/>
	<path d="M781.1,78.7c0.4,0.3,0.6,0.6,1,0.8c0,0,0.4-0.3,0.3-0.4c-0.2-0.3-0.4-0.5-0.6-0.7C781.7,78.4,781.4,78.5,781.1,78.7z"/>
	<path d="M779.5,76.7c0-0.4,0.1-0.7-0.1-0.9c-0.1-0.2-0.5-0.2-0.8-0.3c0.1,0.3,0,0.6,0.2,0.8C778.9,76.4,779.2,76.5,779.5,76.7z"/>
	<path d="M776,113.2c-0.1,0.8-0.1,1.1-0.2,1.3c0.1,0,0.3,0,0.4,0C776.2,114.3,776.1,114.1,776,113.2z"/>
	<path d="M780.5,95.5c-0.1-0.2-0.1-0.3-0.2-0.5C779.9,95.5,780.2,95.5,780.5,95.5L780.5,95.5z"/>
	<polygon points="772.9,89.9 773,90.1 772.8,89.9 	"/>
	<path d="M686.1,564.9c-2,0.2-3.7,1.2-5.3,2.2c-0.5,0.3-0.8,0.9-0.5,1.5c0.3,0.4,0.8,0.9,1.3,0.9c1.9,0,3.5-0.8,4.6-2.5
		c0.5-0.8-0.2-1.5-0.2-2.3L686.1,564.9z"/>
	<path d="M822.8,116.3c-0.9,0.3-1.6,0.8-1.9,1.7c-0.1,0.2,0.2,0.6,0.3,0.9c1.8-0.9,1.8-0.9,1.5-2.6L822.8,116.3z"/>
	<path d="M825,132.4c0.3-0.2,0.5-0.5,0.8-0.7c-0.1-0.2-0.2-0.4-0.4-0.4c-0.3-0.1-0.6,0-0.8,0c0,0.3,0,0.6,0.1,0.8
		C824.6,132.1,824.8,132.2,825,132.4z"/>
</g>
</svg>
