<?xml version="1.0" encoding="utf-8"?>
<!-- Generator: Adobe Illustrator 19.2.0, SVG Export Plug-In . SVG Version: 6.00 Build 0)  -->
<svg version="1.1" id="Layer_2" xmlns="http://www.w3.org/2000/svg" xmlns:xlink="http://www.w3.org/1999/xlink" x="0px" y="0px"
	 viewBox="0 0 900 600" style="enable-background:new 0 0 900 600;" xml:space="preserve">
<g>
	<path d="M280.6,46c-0.6-0.5-1.2-1.2-1.9-1.5c-4.7-2.3-9.5-4.1-14.8-4.4c-1.7-0.1-3.4-0.3-5.1-0.1c0.7,0.3,1.4,0.6,2.1,0.9
		c1.8,0.7,3.6,1.4,5.4,2.1c1.6,0.7,3,1.7,3.9,3.1c0.8,1.2,1.8,1.9,3,2.4c0.9,0.4,1.7,0.9,2.5,1.4c0.2,0.1,0.3,0.5,0.4,0.8
		c-0.7,0.5-1.3,0.2-1.8-0.1c-4.7-3-10.1-3.7-15.4-4.7c-2.2-0.4-4.5-0.6-6.8-0.9c-0.3,0-0.6-0.3-0.9-0.4c0.2-0.8,0.7-0.6,1.1-0.6
		c3.7,0.6,7.4,1.2,11,1.7c0.4,0.1,0.9-0.1,1.2-0.1c0.4-0.8-0.2-1.1-0.5-1.2c-1-0.5-1.9-1-2.9-1.3c-3.3-1-6.7-1.9-10.1-2.7
		c-0.6-0.1-1.3,0.3-2.1,0.5c0.5,2.6,0.9,5.1,1.4,7.9c2.3,1.6,4.7,3.4,7.4,4.7c0.8,0.4,1.8,0.7,2.8,0.6c10.2-0.5,19.5,2.5,28,8
		c0.3,0.2,0.6,0.3,1,0.4c0.8-0.4,0.5-0.9,0.2-1.5c-0.7-1.2-1.8-1.9-3-2.5c-3.3-1.8-6.9-2.8-10.5-3.6c-1.6-0.4-3.3-0.7-5.5-1.2
		c2.9-0.6,5.2,0.2,7.4,0.7c3.8,0.8,7.4,2,10.7,4.3c0.6,0.4,1.3,0.6,2,0.6l-0.1-0.1c0.2,1.8,0.4,3.5,0.7,5.4
		c-1.5-0.3-2.9-0.7-4.3-0.9c-1.3-0.2-2.6,0-3.9-0.1c-3.6-0.4-7.1-0.8-10.7-1.2c-1.4-0.2-2.8-0.3-4.6-0.3c0.8,1.3,2,1.7,2.8,2.4
		c0.9,0.9,2.4,1.2,2.7,2.7l0,0c-0.4-0.1-0.9-0.2-1.3-0.4c-3.2-2-6.3-4.4-9.9-5.6c-0.4-0.1-0.7-0.6-1.1-0.9c-0.9-0.7-2-1.2-3.9-1.8
		c2,2.2,3.5,3.7,4.9,5.3c0.5,0.6,1.4,1.1,1.2,2.1l0.1-0.1c-1.2-1-2.4-1.9-3.6-2.9l0.1,0.1c-0.3-0.3-0.6-0.6-0.9,0l0.1-0.1
		c-1.1-1.4-2.1-2.9-3.3-4.2c-0.8-0.9-1.7-1.7-2.7-2.3c-1.3-0.8-2.3-0.4-2.6,1.1c-0.2,0.8-0.3,1.6-0.5,2.5c0.4,0.4,0.9,0.8,1.1,1.3
		c1.1,4.1,4.4,6.3,7.4,8.7c0.1,0.1,0.1,0.1,0.2,0.2c-0.1,0-0.2,0-0.3-0.1c0-0.5,0.1-1,0.1-1.5l0,0c0.4,0.4,1,0.6,1.3,1.1
		c1,1.4,1.8,2.8,2.7,4.2c-0.3,1.5-1.5,1.6-2.5,1.6c-1.5,0-3.1-0.2-5.1-0.4c0.4,0.6,0.6,1,0.9,1.3c1.1,1.3,2.3,2.5,3.4,3.7
		c0.4,0.4,0.4,1.1,0.7,1.6l0.1-0.1c-0.3-0.1-0.7-0.3-1-0.4c-0.1,0.6-0.1,1.1-0.2,1.7c-0.3,0-0.6,0.1-0.7,0c-1.7-2.3-3.6-4.4-4.2-7.4
		c-0.1-0.7-0.8-1.4-1.3-2.3c-0.7,2.6-0.7,3.1,0.3,4.5c0.8,1.2,1.7,2.3,2.6,3.5c-0.5,0.1-2-0.2-2.8-0.5c-0.7,0.7-0.4,1.5-0.3,2.3
		c0,0.7,0.3,1.4,0.7,2c0.4,0.7,0.9,1.4,1.2,1.9c-0.3,1.3-1.2,0.9-1.9,1c-0.1,1.4-0.3,2.6-0.4,3.9c0.7,0.9,1.4,1.7,2.3,2.7
		c0.9-1.8,2.4-2.5,3.8-3.3l-0.1-0.1c-0.2,0.4-0.3,1-0.6,1.2c-1.5,0.9-1.9,2.1-1.7,3.9c0.2,1.8-0.8,3.2-2.4,4.1c-0.3,0.2-0.8,0-1.6,0
		c0.7-1,1.1-1.7,1.6-2.4c-0.1-1.2-0.3-2.3-1.7-3.1c-1.3,4.2-1.7,8.5-4.2,12.3c1,2.8,0.1,5.6-0.2,8.5l0.1-0.1
		c-0.2,0.3-0.5,0.5-0.6,0.9c-2,5.8-5.8,10.5-10.1,14.8c-1,1-1.7,2.3-2.5,3.4c-0.3-1.9-0.3-1.9,0.4-3.2c0.6-1.2,1.2-2.3,0.9-4
		c-2.7,2.8-2.8,6-2.6,9.3c0.3,0.3,0.6,0.6,0.9,0.8c0,1-0.2,2,0.1,2.8c0.2,0.6,0.8,1.1,1.3,1.8c0.8-0.3,1.5-0.4,2.1-0.7
		c2.9-1.6,5.9-3.2,8.3-5.7c3.1-3.3,6.8-5.8,10.4-8.4c2.7-1.9,5.7-2.3,8.9-0.7c0.9,0.5,2,0.7,3.1,0.8c1.8,0.3,3.6,0.4,5.8,0.6
		c-1.1-1.8-1-3.4-0.8-5c0.4-3,0.8-6,1.3-8.9c0.3-2.1,0.3-2.1,2.6-4c3.5,1.7,7.4,0.7,11,1.3c1.8-1.3,2.8-2.6,2.4-4.7
		c-0.2-1,0.1-1.9,0.6-2.7c0.6-1,1.3-2,2-3c0.5-0.7,0.8-1.4,0.8-2.3c0-0.7,0.1-1.4,0.4-2.1c0.3-0.8,0.3-1.6,0.1-2.5
		c-0.2-0.7-0.3-1.4-0.4-2.1c-0.1-1.4-0.2-2.8-0.3-4.2c1.3,0.1,0.8,1.5,1.8,2c0.3-0.1,0.9-0.2,1.6-0.4c-0.7-1.5-1.4-2.7-1.9-4.1
		c-0.5-1.3-1.4-2.5-0.9-4.4c1.9,2.4,2.7,5.1,4.1,7.2c0.1,2-1.1,3-2.6,3.7c-0.2,2.4-0.5,4.6-0.5,6.9c0,1-0.2,1.9-0.8,2.7
		c-1.4,1.8-1.9,3.8-1.9,6.1c-0.1,3.1-2,5.2-5.1,5.4c-3.3,0.2-6.7,0.5-10.1-0.5c-1.7,5-2,10-0.4,15.3c0.6,0,1.3,0.1,2,0.1
		c2.2-0.1,4.3-0.2,6.5-0.2c0.7,0,1.4,0.3,2.1,0.5c5.8,2.2,11.2,5,16.3,8.4c2.6,1.8,4.8,4,6.8,6.4c3,3.7,6.4,6.8,11,8.6
		c4,1.6,7.8,3.7,11.5,6.1c6.9,4.5,14.3,8,21.8,11.3c1.1,0.5,2.3,0.7,3.5,0.9c1.5,0.3,3.1,0.5,4.6,0.7c2,0.2,3.7,0.9,5.4,1.9
		c6.5,3.4,12.9,7,19.6,10c6.8,3.1,13.8,5.6,20.8,8.3c0.4,0.2,0.9,0.2,1.6,0.3c0.6-1.4,1.1-2.7,1.7-4.1c-1-1.7-2.1-3.5-3.1-5.3
		c1-2,2.4-3.7,2.6-5.9c0-0.4,0.4-0.9,0.6-1.3c0.7-1.1,2.3-1.2,3,0c0.4,0.6,0.5,1.3,0.8,2.1c0.7-2.7,0.9-5.3,0.8-8
		c-0.1-3.1,0-6.2,1.2-9.2c0.5-1.2,0.6-2.6,0.8-3.9c0.1-0.7,0.2-1.4,0.4-2.1c0.2-0.9,0.6-1.5,1.5-1.9c1-0.4,1.6,0.3,2.3,0.7
		c1-0.7,1.5-1.7,1.9-2.8c0.1-0.4,0.6-0.7,1.1-0.9c0.5-0.2,1,0,1.1,0.6c0.1,0.3-0.1,0.9-0.2,0.9c-1.4,0.1-1.7,1.1-2,2.2
		c-0.9,3-1.3,6.1-1.5,9.2c-0.3,3.6-0.5,7.2-0.9,10.8c-0.1,0.9,0,2-1.1,2.7c-0.1-0.7-0.3-1.2-0.3-1.8c0.1-3.2-0.3-6.5,1-9.6
		c0.2-0.5,0.1-1.2,0.1-1.8c-0.1-2.5-0.2-5-0.4-7.6c0-0.3-0.3-0.6-0.5-0.9c-0.9,0.3-0.7,1-0.7,1.5c0,1.8-0.2,3.7-1,5.3
		c-1.7,3.4-2.1,6.9-1.8,10.6c0.2,3-0.3,6-0.4,9c-0.1,1.8-1.1,3.6-2.7,5.1c-1.1-1.7,0.1-3.3-0.2-4.7c-0.3-1.5,0.3-3.1-0.5-4.8
		c-0.4,0.4-0.7,0.6-0.7,0.8c-0.6,3-0.6,3-2.4,5.4c-0.1,1.3,0.7,2.3,1.3,3.2c1.2,1.8,1.4,3.5,0.7,5.5c-0.2,0.6-0.2,1.2-0.3,1.8
		c2.3,1.7,5.2,1.9,8,3c-0.7,0.3-1.1,0.7-1.5,0.6c-1.9-0.1-3.8,0-5.7-0.8c-1.2-0.5-2.4-1-3.7-1.5c-4.7-1.9-9.3-4-14.1-5.6
		c-5.7-2-11.1-4.6-16.4-7.4c-3.9-2.1-7.9-4.2-11.8-6.3c-1.4-0.8-2.8-1.3-4.4-1.6c-1.6-0.3-3.3-0.7-5-0.8c-2.6-0.1-5-0.9-7.3-1.8
		c-5.3-2.1-10.2-4.8-15.1-7.8c-5.2-3.2-10.5-6.3-16-9.2c-4.1-2.2-7.8-5.2-10.8-8.9c-0.7-0.8-1.5-1.6-2.3-2.2
		c-3.7-2.7-7.5-5.2-11.6-7.4c-2-1.1-4.1-2.2-6-3.4c-1.8-1.2-3.7-1.4-5.8-1.2c-4,0.3-7.9,0.5-11.9,0.5c-1.5,0-3.1-0.3-4.6-0.5
		c-2.2-0.4-2.2-0.5-3.9-1.9c-0.8,1.2-1.5,2.4-2.3,3.6c-1.8,2.6-3.3,5.3-4.4,8.3c-1.2,3.3-1.9,6.7-1.9,10.3c0.1,3.7-0.1,7.5,0.9,11.1
		c1.6,5.9,4.8,10.8,9.7,14.4c4.2,3.1,9,5.1,13.9,6.7c1.5,0.5,2.9,0.2,4.1-0.7c0.7-0.5,1.3-1.1,1.9-1.7c2.5-2.5,4.6-5.2,6.5-8.2
		c0.4-0.7,0.6-1.5,0.9-2.3c-1.9-1.3-4.3,0.1-5.9-1.5c0.7-1.2,1.7-1,2.6-1.1c1.5-0.1,3.1,0.5,4.6-0.1c0.4-0.2,1.1,0.2,1.7,0.5
		c1.5,0.7,3,1.5,4.5,2.3c7.1,4,14.7,6.7,22.5,8.6c7.4,1.8,14.8,3.4,22.2,5c1.6,0.3,3,0.8,4.3,1.8c1.9,1.3,3.9,2.4,5.8,3.7
		c2.7,2,5.7,3.1,8.9,3.7c4.1,0.7,7.8,2.2,11.6,3.9c2.9,1.3,6.2,2,9.3,3c5.2,1.6,10.6,2.1,16,2.8c1.4,0.2,2.9,0.4,4.3,0.5
		c1.3,0.2,2.5,0.4,3.8-0.3c0.6-0.4,1.6-0.3,2.5-0.2c2.3,0.3,4.5,0.7,6.8,1.1c1.3,0.2,2.6,0.5,3.9,0.5c5,0.1,4.2,0.5,8.1-2.7
		c2.4-4.8,3.1-9.9,3.9-15c0.2-0.9,0.2-2,0-2.9c-0.3-1.3,0.1-2.4,0.7-3.4c2.8-4.1,5.5-8.2,8.3-12.3c0.6-0.8,0.9-1.6,0.7-2.9
		c-0.4,0.1-1-0.1-1.3,0.2c-0.7,0.7-1.3,1.4-1.8,2.2c-0.9,1.3-1.8,2.6-2.7,3.8c-1.5,1.9-3,3.8-4.5,5.6c-0.6,0.7-1.3,1.5-2.4,1
		c-0.7-0.9,0.1-1.6,0.1-2.4c0.2-2.9,1.1-5.7,1.4-8.5c0.4-3.9,0.7-7.9,0-12.2c-0.5,0.4-1,0.5-1.1,0.8c-1.1,2.1-1.6,4.3-1.5,6.6
		c0.1,1.7-0.3,3.3-0.8,4.9c-0.6,1.8-1,3.7-1.5,5.6c-0.2,0.6-0.3,1.1-1.1,1.6c-0.1-0.7-0.3-1.3-0.2-1.8c0.2-1.2,0.5-2.4,0.8-3.5
		c0.3-1.1,0.4-2,0.2-3.2c-0.5-2.5-0.3-5,0.1-7.5c0.3-1.9,0.5-3.8,0.7-5.7c0.7-0.2,0.8,0.3,0.9,0.7c0.1,0.8,0.2,1.7,0.2,2.5
		c0,0.6,0,1.3-0.1,2.2c1.5-1.4,0.8-3.3,2-4.7c0.6-0.1,1.4-0.3,2-0.4c1.2,0.8,1.4,1.9,1.4,2.9c0.1,2.9,0.3,5.8,0.2,8.7
		c0,1.3-0.5,2.6-0.7,3.9c-0.3,1.8-1.1,3.5-0.8,5.5c1.4-0.9,2-2.2,2.9-3.2c1.1-1.1,2.2-2.3,3.1-3.5c0.9-1.1,1.7-2.3,2.6-3.6
		c0.8,0,1.5-0.1,2.2,0c1.7,0.2,2.1,0.9,1.5,2.4c-0.8,2.3-2.2,4.3-3.6,6.3c-1,1.5-2.2,2.9-3.2,4.4c-1.4,2.1-2.4,4.4-2.5,7
		c-0.2,3.4-0.7,6.7-1.1,10c-0.6,4.3-2.2,8.4-5.8,11.3c-1.3,1-2.7,1.5-4.3,1.4c-2.9-0.1-5.8-0.4-8.6-1.2c-1.9-0.5-3.7-0.6-5.7-0.5
		c-3.2,0.3-6.5,0.1-9.7-0.1c-7.5-0.6-14.8-2.1-21.9-4.5c-5.6-1.9-11.2-3.7-17-5c-4.9-1.1-9.2-3.4-13.1-6.7c-1.7-1.4-3.6-2.3-5.8-2.8
		c-2.8-0.6-5.6-1.4-8.4-2.1c-0.6-0.2-1.2-0.3-1.8-0.4c-3.8-0.6-7.6-1.3-11.4-1.9c-0.5,1.5-0.5,1.5-0.3,4c0.5-0.3,0.9-0.5,1.2-0.8
		c0.3-0.3,0.6-0.7,1-1.2c1.9-0.2,3.9-0.5,5.8,0.6c0.2,1.4-0.6,2.2-1.1,3.1c-0.8,1.3-1.7,2.6-2.5,4c-0.3,0.6-0.7,1.4-0.6,2
		c0.3,2-0.6,3.5-1.5,5.1c-0.6,1.2-1.2,2.3-1.5,3.6c-0.3,1.4-1,2.7-1.9,3.9c-1.6,2.2-3.5,4.3-5.1,6.4c-2.8,0.6-5.6,1.2-8.2,1.8
		c-2.6,0.7-5.3,0.6-7.9,0.5c-2.9-0.1-5.8-0.3-8.7-0.4c-0.7,0-1.4,0-2,0c-1,1.2-1.1,2.4-1,3.6c0.1,1.8-0.4,3.3-1.3,4.8
		c-2.5,4.4-4.4,9.1-7.3,13.3c-2.7,3.9-3.4,8.4-3.6,13c-0.2,4.7,0.6,9.4,1.1,14c0.5,5.3,0.7,10.6-0.2,15.8c-0.3,2-0.4,4.1-0.7,6.1
		c-0.2,1.4-0.7,2.8-1.1,4.2c-1.6,4.6-3.1,9.1-4.8,13.6c-1.2,3.1-1.7,6.3-1.9,9.5c-0.4,6.4-1.6,12.7-2.7,18.9
		c-0.2,1.3-0.9,2.5-1.3,3.7c-0.4,1.1-0.8,2.3-1.1,3.4c-1.3,4.5-2.6,9-4,13.5c-3.4,10.9-8.6,21-15.3,30.2
		c-6.8,9.2-13.7,18.3-20.6,27.4c-0.9,1.1-1.8,2.3-2.9,3.2c-1.8,1.5-2.9,3.5-4.1,5.5c-0.2,0.3-0.5,0.7-0.5,1c0.1,3.2-1.9,5.6-2.8,8.4
		c-1,2.9-2.1,5.6-3.3,8.4c-0.7,1.6-1.1,3.1-1.2,4.9c-0.3,4.1-0.8,8.2-1.2,12.2c-0.1,0.6,0,1.3-0.3,1.8c-1,1.9-0.9,4-1,6
		c-0.4,8.5-2,16.7-4.8,24.7c-0.5,1.5-1.1,2.9-1.6,4.4c-0.9,2.4-1.8,4.7-3.3,6.8c-1.1,1.6-1.8,3.4-0.5,5.3c-2.5,4.6-3.4,9.7-4.2,14.7
		c-0.7,4.4-2,8.7-1.7,13.1c1.5,1,2.9,1.9,4.2,2.8c1.3,0.9,1.9,2,2,3.6c0.2,3.7,1,7.4,2,11c0.1,0.3,0.3,0.7,0.5,1.2
		c0.8,0.1,1.7,0.3,2.7,0.4c16.1,0.7,32.3,1.4,48.4,2.2c16.4,0.7,32.7,1.4,49.1,2.2c16.3,0.7,32.5,1.4,48.8,2.2
		c16.5,0.7,33,1.5,49.5,2.2c13.6,0.6,27.2,1.1,40.8,1.7c1.2,0.1,2.4,0.2,3.7,0.3c0.1,0.8,0.2,1.5,0.3,2.2c-0.5,0.2-0.8,0.4-1.1,0.4
		c-4.7-0.1-9.4-0.3-14.1-0.4c-4.5-0.2-8.9-0.4-13.4-0.6c-11.7-0.5-23.4-1-35-1.5c-10.7-0.5-21.4-0.9-32.1-1.4
		c-11.2-0.5-22.4-1-33.6-1.5c-10.6-0.5-21.2-0.9-31.8-1.4c-12.6-0.6-25.3-1.2-37.9-1.8c-8.9-0.4-17.8-0.7-26.7-1.1
		c-4-0.2-7.9-0.4-11.9-0.5c-0.7,0-1.4,0-2.3,0c0.5,2.1,1.5,3.6,3.1,4.8c1.2,0.8,2.4,1.6,3.6,2.4c1.2,0.8,2.5,1.5,3.6,2.4
		c1.5,1,3.1,2,3.4,4c2.4,0.7,4.6,1.3,7,2c1.4,2.7,1.7,5.8,1.7,8.9c0,1.5,0.1,2.8,1,4.2c-0.6,0.4-1.1,0.9-1.6,1.1
		c-2.3,0.7-4.6,1.5-7.1,1.4c-4.1-0.2-8.2,0.5-12.2,1.1c-4.7,0.6-9.4,0.7-14.1,0.3c-2.4-0.2-4.7-1-7-1.7c-2.3-0.7-4.4-1.9-5.8-4
		c-0.2-0.4-0.6-0.7-1.1-1.2c-1.8-0.3-3.8-0.7-5.8-1.1c-2.2-0.4-4.4-0.7-6.4-2.1c-1.6-1.1-3.7-1.6-5.7-1.8c-1.5-0.1-2.9-1-4.4-1.5
		c-1-0.3-2-0.7-3.1-0.9c-5.2-0.8-9.6-3.1-13.1-7c-0.1-0.2-0.2-0.4-0.3-0.7c0.5-0.9,1.2-0.3,1.9-0.4l-0.1-0.1c2.8,2.9,5.6,4.3,7.8,4
		c0.5-1.4-0.8-2.4-0.9-3.7c1.5-3.4,3-6.9,3.9-10.5c0.3-1.1,0.8-2.3,1.6-3.2c2.1-2.3,2.8-5,2.9-8c0.1-3,1.1-5.7,3.2-7.9
		c2.1-2.3,2.8-5.2,4.4-7.9c-3.2-1.6-6.2-1.5-9.5-0.9c-0.3,1.1-0.6,2.3-1,3.4c-0.3,0.9-0.4,1.9-0.9,2.7c-2.1,3.6-3.2,7.5-4.2,11.5
		c-0.6,2.2-0.9,4.4-2.1,6.5c-0.6,1-0.7,2.3-0.8,3.5c-0.1,1.3-0.1,2.6-0.1,4c-0.1,1.9-0.1,1.9-2.2,2.4c-0.7,0.9-1.3,1.7-1.9,2.6
		l0.1-0.1c-0.3,0-0.7,0.1-1.2,0.1c0-0.5-0.1-1,0.1-1.4c0.7-1.4,1.3-2.8,2.2-4.1c1.1-1.7,1.5-3.5,1.4-5.7c-0.7-0.1-1.3-0.4-2-0.4
		c-5.1-0.3-10.1-0.1-15.1,0.5c-8.4,1-16.8,1.6-25.2,2.5c-8.1,0.8-16.3,1.7-24.4,2.5c-5.9,0.6-11.7,1.2-17.6,1.7
		c-6,0.6-12,1.2-18,1.8c-5.8,0.6-11.5,1.2-17.3,1.7c-4,0.4-7.9,0.8-11.9,1.2c-0.5,0-1,0-1.4,0c-1-0.6-0.7-1.4-0.6-2.4
		c4-1.2,8.2-1,12.2-1.6c4.1-0.6,8.1-0.8,12.2-1.2c4.1-0.4,8.2-0.8,12.2-1.2c4.1-0.4,8.1-0.9,12.2-1.3c4.2-0.4,8.4-0.9,12.6-1.3
		c4.1-0.4,8.2-0.8,12.2-1.2c4.1-0.4,8.2-0.8,12.2-1.3c4.1-0.4,8.1-0.9,12.2-1.3c4.1-0.4,8.2-0.8,12.2-1.2c4.1-0.4,8.1-0.9,12.4-1.3
		c0.1-0.9,0.4-1.6,0.4-2.4c0-5.4,0.1-10.8,0.1-16.3c0-61.8,0-123.7,0-185.5c0-73.3-0.1-146.6-0.1-219.9c0-22.4,0-44.8,0.1-67.3
		c0-10.7,0.2-21.5,0.4-32.2c0-0.9-0.2-1.9,0.6-2.5c0.8,0,0.9,0.5,1,1c0.1,1,0.1,1.9,0.1,2.9c0.7,67.5,0.4,135,0.4,202.5
		c0,81.5-0.1,163-0.1,244.4c0,22.5,0,45.1,0.1,67.6c0,2.4-0.2,4.8,0.6,7.3c2.6,0.9,5.2,0.4,7.9,0.5c1.1-1.6,1.7-3.4,2.2-5.3
		c1.3-4.8,3.1-9.3,4.2-14.2c0.5-2.4,2.1-4.3,4.2-5.9c0-0.4,0.1-1,0.1-1.6c-0.1-3.6-0.2-7.2-0.2-10.8c0-4.3-0.3-8.7-1.1-12.9
		c-0.4-2.4-0.6-4.8-1-7.2c-0.3-1.9-0.5-3.8-1.1-5.6c-0.6-1.8-0.7-3.8-0.8-5.7c-0.6-8.4-0.3-16.9,0.1-25.3c0.2-4.2,0.5-8.4,1.8-12.5
		c1.3-4.3,2.6-8.5,4.5-12.5c3.7-7.8,7.4-15.7,11.1-23.5c0.9-1.9,1.5-3.8,1.8-5.9c0.8-6.2,1.5-12.4,2.5-18.6
		c1.5-9.6,3.2-19.2,4.8-28.9c1.5-9.3,4-18.3,6.8-27.3c0.7-2.2,1.5-4.3,2-6.6c0.6-2.1,0.9-4.2,1.4-6.3c-2.3-3.7-3.1-7.7-3.5-11.8
		c-0.3-3-0.3-6-0.8-9c-0.3-2.1,0-4.3,0.3-6.5c0.7-4.4,2.4-8.6,4.8-12.4c0.9-1.4,1.6-2.9,2.2-4.5c0.8-2.3,2.4-4.2,4.2-5.8
		c2.9-2.5,5.9-5,8.9-7.3c2-1.6,4.1-2.9,6.2-4.4c2-1.4,3.6-3.1,5.1-5.1c2.5-3.5,4.7-7.3,7.8-10.4c0.7-0.8,1.2-1.8,1.7-2.8
		c1.6-3.8,3.2-7.5,4.8-11.3c0.5-1.2,0.4-2.4,0.2-3.6c-0.3-1.8-0.6-3.6-1.1-5.3c-1.9-8-3.9-15.9-5.8-23.9c-1.5-6.1-2.6-12.2-3-18.5
		c0-0.7-0.1-1.5-0.3-2.1c-0.7-2.3-0.5-4.5-0.1-6.8c1.2-7,4.4-13,9.5-17.9c1.6-1.6,3.4-3.1,5.1-4.6c1.6-1.5,2.5-3.2,2.3-5.4
		c1.2-3.5,1.2-3.5,0.9-5.2c-1.2,1.7-0.5,3.6-0.8,5.3c-1,0.9-1.2,2.7-3.1,2.7c-0.7-0.9-1.1-2-0.3-2.9c1.4-1.6,1.4-3.4,1.7-5.4
		c-0.6,0.3-1,0.5-1.6,0.8c0.1-1.7,0.3-3.2,0.4-4.8c0.2-0.2,0.3-0.4,0.2-0.2c0.1-0.3,0,0-0.1,0.3c-0.4,0-0.7,0.1-1.3,0.1
		c0.2-2.2,0.5-4.3,0.7-6.4c0.1-1.3,0.3-2.6,0.2-4c-0.3-9-0.6-18.1-0.9-27.1c-0.1-1.7-0.1-3.4-0.3-5c-0.1-1.1-0.3-2.1-0.7-3.1
		c-2.5-6.5-3.8-13.2-3.5-20.1c0.1-1.4,0-2.9,1.2-4.5c0.1,1,0.1,1.5,0.1,2c0,2.9-0.1,5.8-0.1,8.7c0,3,0.8,6,1.6,8.9
		c0.4,1.4,1.1,2.6,2.3,3.6c0.8-1.1,0.3-2,0.2-2.9c-0.8-7.2-1-14.4,0.3-21.6c0.6-3.2,1.8-6.2,2.8-9.3c0.1-0.3,0.1-0.7,0.1-1.1
		c0.5,0.1,0.7-0.2,0.8-0.7c0.2-0.2,0.5-0.5,0.7-0.7c0.2-0.3,0.4-0.5,0.7-0.8c0.1,0,0.2,0,0.3-0.1c0,0,0.1-0.1,0.1-0.2
		c-0.1,0.1-0.2,0.2-0.3,0.3c-0.4,0.1-0.8,0.2-0.7,0.8c-0.5-0.1-0.8,0.2-0.7,0.7c-0.5-0.1-0.8,0.2-0.8,0.7c-0.5,0.5-1.1,0.9-1.5,1.4
		c-1.3,2-2.5,4.1-3.7,6.2c-0.5,0.9-1,1.9-2,3.5c0.8-5.8,2.6-10.2,6.1-14c1.4-1.4,3-2.1,5-2.5c3.6-0.8,6.7,0.2,9.7,1.7
		c1.9,1,3.6,2.4,4.2,4.7c2.2-1,4.6-1.1,7-1.1c4.6,0,9.1,0.2,13.6,1.5c6.3,1.9,12.2,4.4,17.3,8.6c2.3,1.9,4.2,4.2,6.1,6.6
		c1.7,2.2,2.4,5,2.5,7.8c0.1,3.7,0,7.5,0.2,11.2c0.1,1.5-1.2,2.3-1.5,3.5c0.5,0.3,0.9,0.5,1.2,0.8c-0.2,1-1.1,1-1.9,1.4
		c-0.6,0.3-1.1,0.8-1.7,1.2c-0.7-0.9-0.2-1.8,0.1-2.6c0.3-0.8,1.1-1.3,0.7-2.3c0.1-0.1,0.1-0.1,0.2-0.2c0,0.1-0.1,0.2-0.1,0.2
		c-0.3-0.2-0.5-0.4-0.7-0.6c-0.1-1.5,1.5-1.6,2-3.2c0-1.9,0.3-4.5-0.1-6.9c-0.7-4.5-1.9-8.8-5.3-12.2c-1.5-1.5-3-3-4.8-4.2
		c-0.4-0.2-0.9-0.3-1.3-0.4l0.1,0.1c-0.4-1-1.2-1.5-2.3-1.6L280.6,46z M233.5,37.9c0.5,0.1,0.8-0.1,0.7-0.7c1.1,0,1.8-0.4,2.1-1.5
		c1,0.1,2.2-0.1,2.7,1.5c-0.4,0.6-0.9,1.4-1.5,2.2c-0.9,1.4-1.9,2.7-2.7,4.2c-0.4,0.7-0.4,1.6-0.6,2.3c-0.8,0.5-0.8,1,0,1.4
		c-2.1,5.5-2.7,11.2-2.1,17c0.1,1.1,0.2,2.1,0.2,3.2c0,1-0.1,2.1-0.1,3.2c-0.8-0.3-1.5-0.6-2.2-0.8c-0.4,1.6,0.5,2.9,0.7,4.3
		c0.4-0.1,0.7-0.1,1.3-0.3c0.2,1.8,0.5,3.6,0.5,5.3c0.1,12.5,0.2,25.1,0.3,37.6c0,0.9,0.1,1.8,0.1,3.4c1.7-6.2,2.2-11.9,2.5-17.5
		c0.4-7.1,0.5-14.2,0.7-21.3c0-1.8-0.1-3.6-0.2-5.4c-0.1-2.3-0.2-4.6-0.2-6.9c0-0.3-0.3-1,0.8-1c0.8,4.4,0.6,8.8,0.8,13.2
		c0.3,4.4,0.4,8.9,0.3,13.4c-0.1,4.5-0.3,8.9-0.6,13.3c-0.3,4.4-0.9,8.7-1.4,13c0.7-0.7,1.1-1.4,1.2-2.2c0.6-2.7,1-5.4,1.6-8.2
		c0.6-3,0.6-6.2,2-9.6c0.1,4.5-1.1,8.5-1.2,13c2-3,2.1-6.2,3.4-8.9c0.1,1,0,1.9-0.1,2.9c-0.1,0.9-0.3,1.9-0.4,2.8
		c-0.2,0.1-0.4,0.3-0.5,0.5c0,0.1,0.1,0.3,0.2,0.4c0-0.1,0.1-0.2,0.1-0.3c0-0.2,0-0.4,0-0.7c0.3-0.2,0.7-0.3,0.8-0.5
		c1.3-2.3,2.4-4.7,2.8-7.4c0.4-2.1,0.8-4.3,1.2-6.4c1.9-8.7,1.8-17.5,2.2-26.2c0-0.6-0.1-1.2-0.3-1.7c-0.2-0.5-0.5-1.1-1.5-1.1
		c0,0.7,0,1.4,0,2.1c-0.1,5.2-0.1,10.4-0.2,15.5c-0.1,3.2-0.5,6.5-0.8,9.7c-0.1,0.5-0.2,1.2-1,1.1c0-2.2-0.1-4.3,0-6.5
		c0.1-3.2,0.3-6.5,0.4-9.7c0-0.8-0.1-1.7-0.4-2.4c-1.2-2.8-2.4-5.5-3.7-8.3c-0.4,1.4,0,2.6,0.3,3.9c0.3,1.3,1.1,2.6,1.3,3.9
		c-0.9,0.4-1.4,0-1.7-0.5c-1.4-1.9-2-4.1-2.2-6.4c-0.4-5.7,0-11.3,1.4-16.9c1.1-4.4,2.7-8.5,5.7-12c0.7-0.9,1.1-2.1,1.6-3
		c-1.5-1.6-1.5-1.6-3.3-2.2c0.3,1.3,1.7,2.4,0.7,3.9c-0.8-0.1-0.8-0.8-1-1.3c-0.4-1-1.2-1.5-2.1-1.8c-1.7-1.7-3.7-1.9-5.8-0.7
		c-1,0.1-1.8,0.4-2.2,1.5C233.8,37.2,233.6,37.5,233.5,37.9c-0.2,0.3-0.5,0.5-0.7,0.8c-0.1,0.2-0.3,0.3-0.4,0.5c0,0,0.1,0.2,0.1,0.2
		c0.1-0.3,0.1-0.5,0.2-0.8C233.3,38.7,233.5,38.5,233.5,37.9z M243,113.9c-1.6,0.8-1.8,2.5-2.6,3.8c0.2,0.8,0.4,1.5,0.5,2.1
		c-1.8,0.1-1.9,1.9-2.8,2.9c-1.3,1.5-1.5,3.3-1.7,5.6c1.5-1,2.3-2.2,2.8-3.5c0.6-1.7,1-3.4,1.5-5.1
		C241.7,117.9,243.1,116.1,243,113.9c0.1-0.2,0.4-0.3,0.4-0.4c0-0.1-0.1-0.3-0.2-0.5c-0.1,0.1-0.2,0.2-0.2,0.3
		C243,113.5,243,113.7,243,113.9z M271.1,263.6c0.3,0.3,0.6,0.5,1.4,1.2C272,263.7,271.5,263.7,271.1,263.6
		c-0.2-5.3-0.2-10.7,0.8-16.1c0.2-1.3-0.5-2-1.1-2.8c0.2-4,2-7.4,3.8-10.8c2.4-4.3,4.8-8.6,7.3-12.9c1.5-2.5,2.2-5,1.7-7.9
		c-0.1-0.9,0.2-1.9,0.3-2.8c0.1-0.6,0.4-1.2-0.4-1.7c-0.6,0.1-1.3,0.2-2,0.3c-3.5,0.4-6.9,1-10.4,1.2c-11.2,0.5-22.4,0.6-33.6,0.1
		c-0.7,0-1.4,0.1-2,0.1c-1.7,10.9-2.3,12.9-5.2,16.1c0.1-1.1,0.3-1.9,0.4-2.7c0.6-3.7,1.2-7.4,1.7-11.1c0.1-0.8-0.1-1.6-0.2-2.6
		c-1.1,0-1.9,0-2.7,0c-0.8,0.1-1.6,0.2-2.5,0.3c0.2,2.9-0.3,5.4-1.5,7.9c-0.4,0.8-0.5,1.6-0.8,2.4c-0.8,2.1-1.5,4.3-2.5,6.4
		c-1.4,3.2-3.2,6.2-6,8.4c-0.8,0.6-1.5,1.6-1.9,2.6c-1.2,3.2-3.3,5.9-5.6,8.3c-0.5,0.5-0.8,1.1-1.4,1.8c1.8,0.3,3.4,0.8,4.9,0.8
		c5.9,0,11.8,0.4,17.7-0.3c0.9-0.1,1.9-0.1,2.9,0c3.5,0.4,7,0.7,10.4,1.3c7.7,1.3,15,3.6,21.3,8.4
		C266.8,260.1,269,261.9,271.1,263.6z M203.2,440.8c-0.6,0.1-1.3,0.3-2.1,0.5c0-1.5,0.8-2.4,1.3-3.5c1.4-2.8,3-5.5,4.3-8.4
		c1.3-2.9,3.2-5.6,3.1-9.1c0-0.5,0.4-1.1,0.7-1.7c0.4-0.9,0.8-1.7,1.3-2.7c-1.5-1.2-0.9-2.8-0.6-4.3c0.3-1.6,0.3-3.4,1.8-4.7
		c0.8,2.4-1,4.5-0.3,6.7c0.3-0.1,0.4-0.1,0.5-0.2c1.9-2.2,2.9-5.3,6.1-6.3c0.3-0.1,0.4-0.5,0.7-0.8c0.4-0.6,0.8-1.2,1.2-1.8
		c5.4-8,10.6-16.1,16.2-23.9c10.1-14.1,16.3-30,20.6-46.7c0.2-0.6,0.1-1.4,0.1-2c-0.5-0.2-0.9-0.4-1.2-0.5
		c-8.5-2.5-17.1-5.1-25.6-7.6c-5-1.4-10-2.5-15.3-2.4c-0.3,0-0.7-0.1-1.4-0.3c0.9-0.4,1.3-0.8,1.9-0.8c1.9-0.1,3.9-0.4,5.8-0.2
		c3.7,0.4,7.4,0.9,11,1.8c8.6,2.3,17.3,4.2,25.6,7.9c0.2-0.5,0.5-0.9,0.6-1.3c1.3-5.3,2.6-10.5,3.8-15.8c0.3-1.4,0.5-2.8,0.6-4.3
		c0.1-1.3,0.2-2.6,0.9-3.8c0.3-0.5,0.4-1.1,0.5-1.7c0.4-1.6,0.7-3.3,1.3-4.9c1.2-3.5,2.5-7,3.6-10.6c0.7-2.1,1.3-4.2,1.5-6.3
		c0.4-3.8,0.4-7.7,0.6-11.6c0-1-0.2-1.9-0.8-2.7c-1.3-1.8-2.6-3.5-4.8-4.1l0.1,0.1c-0.4-0.4-0.7-1-1.1-1.3
		c-4.6-3.3-9.7-5.9-15.2-7.3c-4.3-1.1-8.7-1.8-13-2.9c-2.4-0.6-4.7-0.9-7.1-0.7c-0.7,0.1-1.4,0.1-2.2,0.1c-7.3,0.1-14.7,0.8-22-0.5
		c-1.4-0.2-2.3,0.4-3.3,1.1c-4.5,3.2-8.7,6.8-12.8,10.6c-0.4,0.4-0.9,0.8-1.2,1.3c-2.8,4.1-5.5,8.2-7.1,13c-0.8,2.4-1.3,4.9-1.2,7.4
		c0.2,3.1,0.3,6.3,0.6,9.4c0.5,5,1.2,10,4.5,14.1c-1.3,1.6-1.9,3.3-2.1,5.1c-0.2,1.5-0.5,3.1-1,4.6c-3,10.5-6.4,21-7.6,31.9
		c-0.5,5-1.4,10-2.1,15c-1.3,9.2-2.6,18.4-3.9,27.5c-0.5,3.2-1.2,6.4-2.5,9.4c-2.1,4.6-4.3,9.2-6.4,13.7c-0.3,0.7-0.8,1.3-0.9,2
		c-0.4,2.6-1.8,4.7-3.1,6.9c-4.7,7.7-6.7,16.2-7.1,25.1c-0.3,6.5-0.4,13-0.8,19.5c-0.1,2.3,0.7,4.5,0.7,6.8c0,2.4,0.1,4.8,0.3,7.2
		c0,0.5,0.2,0.9,0.4,1.4c1.2,4.3,2,8.7,2.4,13.1c0.4,4.1,0.8,8.1,1.7,12.1c0.2,1,0.2,2.1,0.3,3.1c-0.5,0.3-0.9,0.6-1.3,0.9
		c-0.1,2.2-0.3,4.4-0.4,6.8c1.4,0.2,2.5,0.3,3.7,0.6c1.1,0.2,2.2,0.4,3.1,0.8c1,0.4,1.9,1.1,3.1,1.8c0.2-1,0.3-1.7,0.4-2.4
		c0.1-2.5,0.1-5.1,0.1-7.6c-0.2-8.8,0-17.6,0.4-26.4c0.2-3.2,0.3-6.5,0-9.8c-0.5-7-0.3-14,0.2-20.9c0.5-6.4,1.7-12.6,3.6-18.8
		c1.4-4.4,3.3-8.5,5.9-12.3c1.1-1.6,2.2-3.2,2.6-5.1c0.2-1.1,1-1.6,1.6-2.2c0.1-1.5,0.3-2.9,0.4-4.3c1-8.7,4.9-16.3,9-23.8
		c0.2-0.3,0.4-0.7,0.6-0.9c1.1-0.8,1.3-2,1.6-3.1c1.6-6.6,3.3-13.1,5.6-19.4c4.7-12.8,9.5-25.5,14.8-38c1.4-3.4,2.9-6.9,2.9-10.7
		c0-0.2,0.2-0.4,0.5-0.8c0.4,3.8,0.4,7.3-0.9,10.8c-2.9,7.4-5.6,14.9-8.4,22.3c-4.8,12.9-9.4,25.8-13.7,38.8
		c-0.4,1.3-0.9,2.5-1.6,3.6c-3.2,5.8-5.9,11.8-7.3,18.4c-0.5,2.6-1.1,5.2-1.6,7.8c-0.3,1.5-0.9,2.8-2,4.1c-1.5,1.7-2.4,3.8-3.6,5.8
		c-0.5,0.8-0.7,1.8-1.3,2.6c-1.2,1.6-1.8,3.4-2.4,5.2c-2.4,6.8-3.2,13.8-3.5,20.9c-0.2,3.8,0,7.7-0.1,11.6c-0.1,3.1-0.1,6.3-0.6,9.4
		c-0.6,4-0.7,7.9-0.5,11.9c0.1,2,0.2,4.1,0.2,6.1c0.1,6.7,0.6,13.5-0.3,20.2c-0.3,2.5-0.6,5-0.1,7.5c1,0.4,1.9,0.6,2.7,1.1
		c0.8,0.5,1.4,1.2,2.2,1.9c0.8-1.3,0.1-2.5,0.1-3.6c0.1-1.2,0-2.4,0-3.6c0-1.1,0-2.3,1.1-3.2c1.1,1.1,0.9,2.4,0.9,3.5
		c0.2,4.2-0.3,8.4,0.2,12.6c0.1,0.8,0,1.7,0.3,2.5c0.6,1.8,1.3,3.6,2,5.6c5.5,0.6,8.5-2.9,11.6-6.5c-0.2-1.3-0.2-2.5-0.5-3.6
		c-0.5-1.8-0.6-3.6-0.4-5.4c0.3-2.8,0.5-5.5,1.1-8.2c1.1-5.5,2.4-11.1,3.6-16.6c0.6-2.5,1.1-4.9,1.9-7.3c0.9-3,2.1-5.9,3.1-8.8
		c1.6-1.4,1.6-3.4,2.1-5.3c1.3-5.6,2.6-11.3,3.2-17c0.7-6.1,1.6-12.2,2.8-18.2C203.2,442.2,203.1,441.4,203.2,440.8l0.2-0.2
		L203.2,440.8z M284.8,207.2c0.9-1.4,1.6-2.7,2.5-4c0.5-0.8,1.3-1.4,2.4-1.3c1.6,0.1,3-0.7,4.4-1.5c3.2-1.8,5.7-4.4,7.7-7.4
		c1-1.4,1.4-3,1.6-4.7c0.7-5.4-0.7-10.3-3-15c-0.3-0.6-0.9-1.1-1.5-1.5c-1.5-1-3-2-4.6-2.9c-0.5-0.3-1.1-0.3-1.7-0.4
		c-0.4,0.9-0.8,1.7-1.1,2.5c-1.7,3.6-3.9,6.9-6.6,9.9c-1.1,1.3-2.4,2.4-4,3c-1.5,0.6-3,0.9-4.4-0.3c-0.6-0.5-1.5-0.7-2.3-0.9
		c-4-1.1-7.7-2.8-11.1-5.2c-7-4.9-11.2-11.7-12-20.2c-0.8-9.4,1.2-18.2,6.9-26c0.6-0.9,1.3-1.8,1.8-2.7c0.2-0.4,0.3-0.8,0.5-1.5
		c-1,0.1-1.8-0.1-2.3,0.2c-3,2.2-6,4.4-8.9,6.8c-2,1.7-3.9,3.6-5.8,5.4c-0.5,0.5-1.1,1.1-1.7,1.2c-1.6,0.4-2.9,1-3.9,2.3
		c-0.2,0.3-0.8,0.4-1.3,0.5c-2.6,0.5-6-2-6.4-4.6c-0.1-0.5,0-1-0.1-1.4c-0.1-0.5,0.2-1.2-0.7-1.6c-4.8,4.1-8.6,8.9-10.8,15
		c-2.3,6.4-2.7,12.9-1.8,19.6c0.9,6.3,2.5,12.5,4.7,18.5c2.1,5.5,3.6,11.2,4.9,17c0.1,0.7,0.4,1.3,0.6,1.9c0.4,0.1,0.7,0.2,0.9,0.2
		c5.4,0.2,10.8,0.4,16.3,0.5c8.1,0.1,16.2,0.1,24.2,0C273.8,208.4,279.3,208,284.8,207.2z M173.6,573.7c-0.9-0.7-1.5-1.2-2.2-1.6
		c-6.2-3.7-12.7-6.9-19.6-9c-1.4-0.4-2.7-0.9-4-1.5c-0.3-0.1-0.4-0.7-0.8-1.3c1.1,0,1.8-0.2,2.4,0c9.1,2.5,17.6,6.5,25.5,11.6
		c2.9,1.9,5.6,4.2,7,7.5c5.2,1.6,10.4,1.2,15.5,0.8c5.6-0.4,11.3-1.1,16.9-1.6c1.9-0.2,3.8-0.3,5.5-1.5c-0.3-3.4-0.2-6.8-1.5-9.7
		c-2.2-0.9-4.2-1.7-6.2-2.6c-0.8-0.3-1.6-0.8-2.1-1.4c-1.5-2.1-3.5-3.2-6-3.8c-0.6-1.8-1.8-3-3.5-4c-0.3,0.3-0.7,0.6-1.1,0.8
		c-1.5,0.7-2.7,0.1-2.8-1.6c-0.1-1.2,0-2.4,0-4c-0.2-0.1-0.6-0.4-1-0.7c-0.4-0.2-0.9-0.4-1.3-0.6c-0.5,0.4-0.9,0.9-1.4,1.2
		c-0.4,0.2-0.9,0.3-1.3,0.2c-0.7-0.2-0.9-0.8-0.8-1.4c0.1-0.7,0.3-1.4,0.6-2.1c1-2.8,1.4-5.5,0.6-8.5c-0.3-1.1-0.3-2.4-0.5-3.6
		c-0.1-0.8-0.3-1.7-0.7-2.3c-0.8-1.1-1.8-2.1-3.5-2.6c0,1-0.2,1.6,0.7,2.1c0.4,0.2,1,0.5,1.1,0.8c0.6,2,0.7,4-0.7,5.8
		c-0.5,0.6-1,0.5-2.2-0.3c-2,2.7-5.3,3.1-8.2,3.8c-3,0.7-4.2,0.4-5.8-2.9c-0.6-1.3-1-2.7-1.3-4.1c-0.7-2.8-0.8-5.7-1.8-8.3
		c-0.5-0.2-0.8-0.4-1.2-0.5c-4.5-1.8-7-0.8-9,3.5c-1,2.1-1.9,4.2-3.1,6.1c-1,1.6-1.7,3.1-1.8,5c-0.1,2.1-0.8,4-2.8,5.2
		c-1.2,0.7-1.6,1.8-1.9,3c-0.3,1.3-0.5,2.6-0.8,3.9c-0.1,0.7-0.2,1.5-0.5,2.1c-0.9,1.7-1.9,3.3-2.9,4.9c1.7,2.7,5.4,3,7.2,5.7
		c0.3,0.5,1.7,0.2,2.4,0.6c0.7,0.4,1.1,1.2,1.7,1.8c1,0.3,2,0.5,3.1,0.8c3.2,1,6.5,1.8,9.4,3.5C170,573.8,171.7,573.9,173.6,573.7z
		 M286.8,210.6c0.5,0.1,0.8,0.3,1.1,0.3c5.5,0,11.1-0.1,16.6-0.1c0.7,0,1.5-0.1,2.1-0.2c1.8-0.5,3.7-1.1,5.5-1.6
		c1.4-1.8,2.9-3.6,4.2-5.4c0.7-1,1.4-2,1.9-3c1-2,1.9-4.1,2.9-6.2c0.4-0.8,0.7-1.5,0.5-2.4c-0.3-1.2,0.2-2.1,0.8-3
		c0.4-0.6,0.7-1.2,1.1-1.9c0.4-0.6,0.8-1.2,1-1.9c0.2-0.6,1.3-0.8,0.8-1.7c-1.2-0.6-2.1,0.1-3,0.8c-0.8,0.5-1.3,1.1-1.7,2.2
		c-0.8,2.2-2,4.3-3.1,6.4c-0.2,0.4-0.5,0.9-1,0.4c0.2-1.1,0.7-2.2,0.6-3.1c-0.7-3.6,0.1-7.1,0.6-10.8c-1.6-0.6-3.1-1.2-4.7-1.3
		c-1,1.3-0.9,3.2-2.6,4c-0.5-0.9-1-1.7-1.3-2.6c-0.3-1-0.4-2.1-0.6-3.1c-0.6-0.1-1-0.2-1.5-0.4c-0.6,3.1-0.6,3.1-1.8,4.6
		c0,0.3,0,0.6,0,1c-0.1,3.7,0.3,7.4-0.8,11.1c-0.7,2.5,0.2,4.9,2.7,6.3c0.2,0.1,0.2,0.4,0.3,0.7c-0.4,0.2-0.7,0.6-1.1,0.7
		c-2.1,0.5-4.2,0.8-6.4,0.8c-1.3-0.1-2.7,0-3.8,0.8c-1.5,1.1-3.2,1.7-5,1.9c-0.7,0.1-1.5,0.5-1.8,1
		C288.1,206.5,287.1,208.4,286.8,210.6z M250.3,51.8c0.3,0.6,0.4,1,0.6,1.2c1.3,0.9,2.6,1.7,4,2.4c2.6,1.4,5.1,2.6,7.7,3.9
		c1,0.5,2,0.9,3,1c5.2,0.8,10.5,1.4,15.7,2.1c1.4,0.2,2.8,0.3,4.3,0c-5.3-3.8-14.6-6.7-23.3-7.3c-0.1,0.5-0.2,1-0.3,1.6
		c-1.6,0.1-2.9-0.7-4.1-1.3c-1.2-0.5-2.4-1.2-3.6-1.7C253.2,53.1,252.1,52.2,250.3,51.8z M245.7,72c0.1-1.5,0.2-2.2,0.2-3
		c0-4.6,0-9.2,0-13.7c0-0.9-0.1-2.1,0.4-2.8c1.4-2.2,0.8-4.5,0.7-7.3c-1.6,1.6-1.9,3.3-2.4,4.8c-1.4,4.2-1.9,8.5-1.4,12.8
		C243.5,65.8,243.9,68.7,245.7,72z M230.5,96.7c1.5-0.4,1.7-1.5,1.7-2.8c0-5.3,0.4-10.5-0.8-15.8c-0.5-0.5-1.1-0.9-1.5-1.4
		c-0.4-0.6-0.7-1.3-1.2-2.2C228.6,79.3,229.7,92.8,230.5,96.7z M251.1,65.6c0.2,1.9,0.1,3.6,1,5.2c0.7,1.3,2,2,3.4,2.5
		c1.5,0.6,2.9,1.4,4.9,0.5c-2.8-2.7-5.5-5.2-8.1-7.8C252.1,65.8,251.8,65.8,251.1,65.6z M302.5,196.5c-1.2,0.6-1.9,1.3-2.1,2.6
		c0.9-0.1,1.7-0.2,2.6-0.3C302.8,198,302.7,197.3,302.5,196.5z M427,160.2c-0.1,1-0.2,1.2-0.2,1.4c0,0.2,0.1,0.4,0.1,0.6
		c0.1-0.2,0.1-0.4,0.2-0.6C427.1,161.4,427.1,161.2,427,160.2z M310.7,177.4l-0.1,0.3l0.2,0L310.7,177.4z M177.4,419.2l0.2,0
		l-0.1-0.3L177.4,419.2z M303.6,174.4c-0.1-0.1-0.1-0.2-0.2-0.2c-0.1,0.1-0.2,0.1-0.2,0.2c0,0.1,0.1,0.2,0.2,0.2
		C303.4,174.5,303.5,174.4,303.6,174.4z"/>
	<path d="M734.1,56.1c0-0.5-0.1-1,0.1-1.4c1.3-3.5,3.2-6.7,6-9.3c2.2-2,4.6-3.1,7.8-2.9c4.4,0.3,7.7,2.2,10.5,5.4
		c0.4,0.5,0.7,1,0.9,1.5c0.2,0.5,0.2,1.1,0.3,1.7c1.4-1,2.9-0.8,4.3-0.7c4.8,0.5,9.6,1.2,14.1,3.1c6.8,2.8,13.1,6.6,18.1,12.2
		c1.9,2.2,3.3,4.7,4.7,7.2c1.4,2.5,1.6,5.3,1.2,8.1c-0.4,3.7-0.9,7.4-1.5,11.1c-0.2,1.1-1.1,2-1.8,3.2c0.2,0.3,0.5,0.7,1.1,1.3
		c-0.9,0.3-1.6,0.5-2.4,0.7c-0.8,0.2-1.2,0.8-1.1,1.6c-1.1-0.7-0.8-1.7-0.4-2.5c0.5-0.9,1.1-1.8,1.7-2.6c-0.4-0.5-0.7-0.8-1.1-1.2
		c0.9-0.7,1.7-1.3,2.5-1.9c0.4-2.3,0.7-4.6,1-6.8c0.1-0.9,0.2-1.9,0.1-2.8c-0.5-3.9-0.9-7.9-3.7-11c-0.2-0.2-0.2-0.7-0.5-1
		c-1.5-1.9-3-4-5.5-4.9c0.1-0.6-0.2-0.7-0.7-0.7c-0.5-1.3-1.5-1.9-2.8-2.3c0-0.1-0.1-0.3-0.1-0.3c-5.1-3.6-10.7-6-16.9-6.7
		c-0.2,0-0.4,0.1-0.7,0.3c1.6,0.8,3.1,1.6,4.5,2.4c2,1.1,4.1,2.4,5.1,4.5c0.9,1.7,2.1,2.8,3.6,3.8c0.7,0.4,1.3,1.1,1.9,1.6
		c0.2,0.2,0.1,0.6,0.3,1.3c-1.1-0.6-1.8-0.9-2.4-1.4c-2.4-2.1-5.2-3.4-8.2-4.5c-3.6-1.3-7.3-2.4-10.9-3.7c-0.9-0.3-1.8-0.6-2.6-1
		c0.6-0.4,1.2-0.4,1.7-0.3c3,0.9,6,1.8,9,2.7c0.9,0.3,1.9,0.4,2.8,0.6c0.1,0,0.1,0.1,0.2,0.1c-0.1,0-0.2,0-0.3-0.1
		c0.3-1.2-0.6-1.7-1.4-2.2c-3.5-2.2-7.4-3.5-11.2-5.1c-0.6-0.2-1.3,0.1-2,0.1c0,2.9,0,5.5,0,8.1c2.1,1.8,4.1,3.5,6.1,5.2
		c1.1,1,2.5,1.5,3.9,1.6c1.2,0.1,2.4,0.2,3.6,0.4c7.6,1.6,14.3,5,20.3,9.8c0.9,0.7,1.6,1.8,3,2c0.1-0.3,0.4-0.8,0.3-1
		c-0.4-0.8-1-1.6-1.6-2.4c-0.7-0.8-1.5-1.5-2.3-2.2l0.1-0.2c1.9,0.1,2.5,2.1,4.1,2.6c0.5-0.3,0.9-0.5,1.3-0.7
		c-0.2,1.1-0.3,2.1-0.5,3.2c-0.2,1,0,2-0.5,3.1c-1.7-1.1-3.4-1.6-5.3-1.8c-1.4-0.1-2.8-0.6-4.2-1c-3.5-0.9-6.9-1.9-10.4-2.9
		c-0.9-0.3-1.8-0.7-2.8-0.3c-0.1-0.1-0.1-0.2-0.2-0.3c0.1,0.1,0.2,0.1,0.3,0.2c0.1,0.2,0.2,0.5,0.3,0.6c2.3,2.2,4.7,4.4,6.5,7.2
		c0.3,0.5,0.8,0.9,1.4,1.1c1.5,0.7,3.1,1.3,4.7,1.8c1.5,0.4,2.9,0.2,3.8-1.2c0.1-0.2,0.2-0.4,0.2-0.6c-0.4-0.2-0.7-0.4-1.1-0.7
		c0.1-0.2,0.2-0.4,0.4-0.7c-1.2-0.7-2.3-1.3-3.5-2c0.9-0.1,1.7,0.1,2.5,0.4c0.9,0.4,1.7,0.9,2.6,1.3c0.7,0.2,1.5,0.2,2.3,0.3
		c-0.2,0.5-0.2,0.8-0.4,0.9c-2,1.8-4.1,3.6-6.2,5.5c0.1-0.7,0.2-1.3,0.3-2c-3.4-0.8-6.5-1.5-9.7-2.2c1.4,1.8,1.4,1.9,2.2,2.1
		c2.4,0.7,4.9,1.4,7.3,2c-0.4,0.9-1.2,0.6-1.8,0.7c-0.8,0.1-1.3,0.4-1.5,1.2c0.3,0.5,0.5,1,0.8,1.4c-1.7,0.7-2.9-0.8-4.6-0.8
		c0.5,1.4,1.7,1.4,2.5,1.9c0.1,0.1,0.2,0.2,0.3,0.4c-0.6,0.2-1.1,0.3-1.7,0.5c0.7,0.7,1.7,1.1,0.7,2.3c-0.4-0.3-1-0.6-1.3-1
		c-0.9-1.4-2-2.7-2.5-4.3c-0.4-1.2-0.3-2.6-0.4-4c-0.7-0.5-1.4-1.2-2.2-1.7c-0.4-0.2-1-0.4-1.3-0.2c-1.2,0.8-2.4,1.6-3.4,2.6
		c-0.4,0.5-0.2,1.6-0.2,2.4l0.1-0.1c-1.1,2.2-1.5,4.5-1.7,6.9c-0.2,1.9,0.9,3.1,2.3,4.1c0.1,0.1,0.4-0.1,0.6-0.2l-0.1-0.1
		c0.3,1,0.6,2.1,0.9,3.4c-1.8,2.6-1.5,5.7-0.8,8.8c0.3,1.2,0.9,2.2,1.8,3c1,0.9,1.9,1.8,2.8,2.8c0.2,0.2,0.1,0.6,0.1,1.3
		c-1.2-1-2-2-3.1-2.3c-2.1-0.7-2.6-2.2-3.2-4c-0.7-2.1-0.6-4.3-0.2-6.4c0.2-1.2,0.4-2.3-0.1-3.5c-1-2.3-1.9-4.6-3-7.2
		c0.6-2.5,1.2-5.2,1.7-7.9c0.2-0.9,0.2-1.9,0.3-2.8l-0.1,0.1c1.7-1.2,3.5-2.5,5.2-3.7l-0.1,0.1c1.4,0.1,2.9,0.5,4.3-0.1l0.1,0.1
		l-0.2-0.1c-0.4-1.5-1.7-2.3-2.7-3.2c-3.6-3-7.2-5.8-10.9-8.7c-0.1-0.1-0.4,0-0.8,0.1c0.7,1.2,1.5,2.2,2.1,3.3
		c0.3,0.6,0.5,1.3,0.7,1.9l0.1-0.1c-0.5-0.2-1-0.5-1.5-0.7l0.1,0.1c-1.3-1-1.9-2.4-2.7-3.7c-0.9-1.4-1.8-2.8-2.9-4.1
		c-0.6-0.7-1.5-1.2-2.9-0.6c-0.4,1-0.9,2.2-1.2,3.1c0.4,1.2,0.7,2.1,0.9,2.9c0.2,0.6,0.1,1.2,0.4,1.7c1.7,2.5,3.4,5.1,5.8,7.5
		c-0.4-1.6-0.8-2.8-1.1-4l-0.1,0.1c0.1,0,0.3,0,0.3,0c1.8,2.5,3,5.3,3.9,8.2c-2,1.1-2.3,1-7.9-0.5c0.3,0.6,0.5,1,0.7,1.3
		c1,1.2,2.1,2.3,2.3,4l-0.2,0.1l0.1-0.2c0.9,0.4,1.2,1.3,1.4,2.2l0.1-0.1c-0.4-0.1-0.8-0.2-1.2-0.3c-0.4,0.4,0,1.3-1.1,1.4
		c-1.2-2.3-2.8-4.6-3-7.5c-0.1-1-0.2-2.1-1.3-2.9c-1.7,3.5,1.1,5.6,2,8.4c-1.3,0.1-1.7-1.4-3.1-1.2c-0.4,1.7-0.7,3.3,0.3,5
		c0.3,0.5,0.3,1.3,0.4,2c-0.8,0.1-1.4,0.1-2.1,0.2c-0.3,1.3-0.6,2.5-0.9,3.7c0.5,1.1,1.1,1.9,1.7,2.4c1.8-0.9,3.2-1.6,4.7-2.4
		c0,0-0.1-0.1-0.1-0.1c-0.1,0.6-0.4,1.1-1,1.3c-1.5,0.5-2.2,1.6-2.2,3.2c0,2-1.3,3.3-3.1,4c-0.2,0.1-0.6-0.2-1-0.3
		c1.9-3,1.9-3,0.2-5.5c-1.8,4-2.9,8.2-6,11.7c0.5,3.1-0.7,6-2,8.8c-0.1,0.2-0.1,0.5-0.2,0.7l0.1-0.1c-0.5,0.8-1.1,1.6-1.6,2.3
		c-1.1,1.4-2.1,2.9-3.4,4.2c-2.3,2.2-4.6,4.6-7.4,6.4c-0.7,0.4-1.2,1.2-1.8,1.8c-0.4,0.4-0.6,1.2-1.5,1.2c0.4-1.5,0.8-2.9,1.9-4.1
		c0.8-0.9,0.8-1.3,0.6-2.8c-2.8,2.2-3.2,5.5-3.9,8.7c0.3,0.4,0.7,0.8,1,1.2c-0.8,2.3-0.8,2.3,0.7,4.5c3-0.4,6-1.6,8.5-3.2
		c4.3-2.7,8.5-5.4,12.9-7.8c2-1.1,4.1-1.7,6.2-1.3c1.8,0.4,3.5,0.1,5.3-0.2c2.2-0.4,4.5-0.6,6.8-0.9c1.4-3.8,2.1-7.7,3.7-11
		c0.9-0.4,1.5-0.6,2.2-0.9c3.4,2,7.4,1.7,11,2.9c0.9-0.9,1.7-1.6,2.6-2.4c-0.4-2.7,0.9-4.6,2.7-6.4c0.2-0.2,0.3-0.4,0.5-0.5
		c1.8-1.8,2.2-4.2,2.6-6.5c0.3-2.1,0.1-4.3,0.1-6.5c0-0.1,0.2-0.3,0.5-0.7c0.4,1,0.8,1.8,1.2,2.7c0.6-0.2,1.1-0.4,1.7-0.6
		c-1.2-3-2-5.9-2.1-8.9c0.5,0.5,1.1,1,1.3,1.6c0.8,2.2,1.5,4.5,2.2,6.8c-0.3,1.9-1.9,2.4-3.1,3.1c-0.6,2.6-1.1,5-1.8,7.4
		c-0.2,0.7-0.6,1.3-1.1,1.8c-1.5,1.6-2.5,3.5-2.7,5.7c-0.3,2.5-2,3.7-4.2,4.4c-0.6,0.2-1.2,0.2-1.8,0.2c-3.2-0.5-6.5-0.5-9.6-1.9
		c-2.2,2.6-2.5,5.8-3.2,9.2c1.1,0.1,1.9,0.1,2.7,0.1c2.3,0.1,4.5,0.5,6.5,1.8c0.6,0.4,1.3,0.7,2,0.9c3.4,1.2,6,3.5,8.1,6.4
		c1.5,2.1,2.8,4.2,4.1,6.4c1.5,2.5,2.9,5,4.5,7.4c0.9,1.3,1.8,2.9,3.7,3.1c0.2,0,0.4,0.2,0.6,0.3c4.1,3,8.2,5.9,12.3,8.9
		c3.6,2.7,7,5.5,9.3,9.1c3.1-0.3,5.9-0.7,8.8-0.8c3-0.1,6,0.2,8.8,1.4c1.4,0.6,3,0.8,4.5,1c3.8,0.4,7.7,0.7,11.5,1
		c1,0.1,2.1,0,3.6-0.1c-1.7-2.4-2.2-4.8-2.8-7.3l-0.1,0.1c0.4,0.1,1.1,0,1.3,0.3c1.2,2.2,2.3,4.4,3.5,6.9c0.8,0.1,1.7,0.2,2.6,0.4
		c0.3,0.1,0.6,0.5,0.6,0.7c0,0.3-0.3,0.7-0.6,0.8c-1.3,0.3-2.6,0.5-3.9,0.6c-2.3,0.1-4.6,0.3-6.8,0.1c-2.3-0.1-4.5-0.5-6.8-0.9
		c-2.8-0.6-5.6-1.3-8.4-2.1c-1.6-0.5-3.3-0.7-5-0.7c-3.5,0.1-7,0.3-10.9,0.5c-2.5-1.4-5.2-3.4-7.9-5.4c-1.7-1.3-3.6-2.5-5.3-3.8
		c-2.4-1.8-4.9-3.5-7-5.6c-4.5-4.5-8.8-9.2-11.5-15.1c-0.4-1-1.1-1.9-1.8-2.7c-2.8-3.2-5.8-6.1-9.4-8.4c-0.9-0.6-1.9-1-3-1.3
		c-2.9-0.8-5.8-1.4-8.9-1.2c-0.9,0-1.9-0.2-2.9-0.3c-2.2-0.3-4.3-0.3-6.4,0.1c-0.8,0.8-1.6,1.5-2.4,2.2c-0.6-0.7-1-1.2-1.5-1.7
		c-1.4,2.5-3.2,4.5-5.5,6.1c-0.1-0.8,0.5-1.3,0.9-1.8c0.9-1,1.9-1.9,2.7-2.9c0.3-0.4,0.5-1,0.7-1.4c-1-0.5-1.8-0.4-2.6,0
		c-5.1,2.5-9.9,5.4-14.5,8.7c-1.5,1.1-2.8,2.2-4.8,2.1c-0.8,0-1.4,0.7-2.1,1.2c-1.2,1-2.9,1.1-4,0.2c-2-1.6-4.2-3.4-3.3-6.6
		c0.1-0.4,0-0.9,0-1.5c-0.5,0.1-0.9,0.1-1.1,0.3c-5.5,3.5-9.9,8-12.9,13.9c-3.2,6.3-4.3,13-4.2,19.9c0.1,5.2,0.6,10.3,1.6,15.4
		c1.3,6.4,2.4,12.8,2.6,19.3c0,0.7,0.3,1.4,0.4,2c0.5,0.2,0.8,0.4,1.2,0.4c4.9,0.8,9.7,1.7,14.6,2.5c11,1.9,22.1,3.8,33.2,4.6
		c2.9,0.2,5.7,0.5,8.4,0.3c1.1-1.3,2-2.4,3-3.5c0.7-0.8,1.5-1.2,2.6-1c1.8,0.3,3.3-0.4,4.9-0.9c2.3-0.8,4.2-2.4,6-4
		c4.3-3.8,6-8.6,5.5-14.2c-0.1-1.5-0.5-3.1-0.9-4.6c-0.3-1.3-0.6-2.5-0.4-3.9c0.3-1.3-0.1-2.8-1.2-3.7c-2.5-2-5-4.1-8-5.8
		c-0.4,3.1-0.8,5.9-1.2,8.9c-1.9,2.5-4.2,4.8-6.7,6.8c-1.5,1.2-3.2,2-5.2,2.3c-1,0.1-2.1,0.1-2.7-0.7c-0.9-1.1-2.2-1.4-3.4-2
		c-5.2-2.5-9.7-5.8-13.1-10.6c-4.2-6-6.1-12.7-5-20.1c0.9-6.2,2.7-12,6.3-17.1c0.7-1,1.2-2.4,2.7-2.7c-0.2,0.4-0.2,0.9-0.5,1.3
		c-3.7,5.1-5.7,10.8-6.3,17.1c-0.3,3.1-0.5,6.2,0.1,9.3c1,5.5,3.4,10.3,7.4,14.2c3.5,3.5,7.7,6.1,12.2,8.3c1.8,0.9,3.4,0.8,5.1-0.2
		c2.9-1.8,5.3-4.1,7.8-6.6c0.2-3.2,1.1-6.3,0.8-9.7c-3.9-3.3-8.3-6-12.1-9.5c0.8-0.8,1.4-0.3,1.8,0c3,2,6.1,3.9,9.1,6
		c6.6,4.7,13,9.6,19.6,14.2c2.2,1.6,4.8,2.8,7.3,3.9c3.2,1.4,6.5,2.6,9.7,4c1.7,0.7,3.3,1.5,4.9,2.2c0.4,0.2,0.8,0.5,1.3,0.6
		c4.8,1.2,9.7,2,14.6,1.2c2.7-0.4,5.5-1.1,8.2,0c2.6-0.3,5.3-0.3,7.9-0.9c3.1-0.7,6.3-1.8,9.2-3c3.9-1.6,7.9-2.9,12-3.7
		c1.5-0.3,2.7-0.9,3.8-1.9c1.3-1.3,2.7-2.5,4-3.7c0.8-0.7,1.1-1.5,1.1-2.5c0-4.4,1.2-8.6,2.3-12.8c0.3-1.2,0.5-2.3,0.5-3.5
		c0-3.6,0.4-7.2,2.2-10.5c0.9-1.8,1.3-3.8,3.1-5.2c0.7-0.5,0.7-1.7,0.6-3c-0.6,0.6-1,0.9-1.4,1.3c-1.3,1.4-2.6,2.9-3.8,4.4
		c-0.6,0.7-1.1,1.6-1.5,2.4c-0.5,1-0.9,2-1.4,2.9c-0.5,0.9-1.1,1.9-2.2,2.2c-0.8-0.3-0.8-1-0.5-1.5c1.4-2.7,1.7-5.8,2.4-8.7
		c1-3.8,1.4-7.8,2.1-11.8c-0.9-0.6-1.8-1.2-2.6-1.7c-1.8,2-1.2,4.5-2,6.6c-0.9,2.2-1,4.7-2,6.9c-0.9,2.1-0.9,4.4-1.9,6.5
		c-1.1-0.3-1.3-1-1.1-1.7c0.8-2.9,1-5.9,1-8.9c0-1.1,0-2.2,0-3.2c0-2.4-0.1-4.8,0.7-7.2c0.3-0.8,0.4-1.6-0.3-2.4
		c-0.5-0.5-1-0.5-2.7,0.1c-0.7,1.3-0.9,2.7-0.9,4.1c0,1.9-0.1,3.9-0.1,5.8c-0.1,2.3,0,4.5-0.6,6.8c-0.4,1.6-0.1,3.4-0.2,5
		c0,0.7-0.1,1.3-0.2,2.7c-0.6-1-0.9-1.3-1-1.7c-0.1-1.1-0.2-2.2-0.2-3.2c-0.1-3.6-0.1-7.2-0.1-10.8c0-2.1-0.1-4.3,1.1-6.3
		c0.5-0.8,0.5-1.8,0.7-2.9c1.3-0.8,2.5-1.8,4.3-1.8c0.7,0.9,1.4,1.8,2.3,2.8c-1.4,2.7-1.4,5.5-0.9,9.1c1-2.8,2.1-4.9,2.3-7.1
		c0.3-0.3,0.3-0.4,0.4-0.5c0.9-0.1,1.9-0.2,2.8-0.3c0.4,0.5,0.8,0.8,1,1.2c0.3,0.4,0.5,0.9,0.8,1.2c0.3,0.4,0.7,0.6,1,0.9
		c-1.4,4.5-2.5,8.9-2.7,13.5c-0.2,0.1-0.3,0.3-0.5,0.5c0,0,0.1,0.2,0.1,0.3c0.1-0.3,0.2-0.5,0.3-0.8c2.1-0.8,3.4-2.5,4.7-4.2
		c0.8-1,1.2-2.4,2.8-3.1c0.4,0.2,0.9,0.5,1.4,0.7c0.8,0.5,1.1,1.2,0.9,2.2c-0.3,2.2-0.9,4.3-2,6.1c-0.9,1.4-1.8,2.9-2.8,4.2
		c-2.1,2.9-2.5,6.2-1.5,9.6c0.3,1,0.2,1.9-0.1,2.8c-0.6,2.4-1.3,4.9-1.9,7.3c-0.4,1.5-0.8,3-0.7,4.6c0.1,0.9-0.4,1.9-0.9,2.6
		c-1.8,2.8-4.4,4.8-6.8,7c-0.4,0.4-1.1,0.5-1.6,0.7c-2.2,0.5-4.5,1.1-6.7,1.4c-2.2,0.2-4.2,0.9-6.2,1.9c-2.9,1.4-5.9,2.6-9.1,3.4
		c-2.7,0.6-5.5,0.7-8.3,0.6c-2.6,0-5.3,0-7.9,0.6c-2.1,0.4-4.3,0.4-6.5,0.4c-2.4,0.1-4.8-0.5-7-1.6c-1-0.5-2.3-0.7-3.4-1
		c-1.3-0.3-2.6-0.5-3.8-0.9c-3.5-1.4-6.9-2.8-10.3-4.3c-3-1.3-5.8-3-8.4-5c-1.2-0.9-2.4-2-3.9-2.4c-0.5,1.1-0.2,2,0.2,2.9
		c1.4,3.2,1.8,6.5,1.6,9.9c-0.2,3.8-1.4,7.3-4.4,10c-1.6,1.4-3,3.1-4.5,4.6c-0.5,0.5-1.1,1.1-1.7,1.3c-2.8,0.9-5.6,2.3-8.7,2.2
		c-0.2,0-0.5,0.1-0.9,0.3c-1.2,1.6-2.8,3.1-3.8,5c-1,1.9-1.6,4.1-1.9,6.2c-0.3,1.6-0.9,3-1.9,4.2c-3.1,4-5.7,8.3-9.2,12
		c-3.5,3.7-4.8,8.3-5.6,13.1c-0.5,3.1-0.6,6.2-0.8,9.4c-0.2,4.8-0.5,9.6-1.4,14.4c-0.3,1.5-0.8,3-1.1,4.6c-0.5,2.2-1.5,4.3-1.9,6.6
		c-0.2,1.4-1.1,2.7-1.8,3.9c-2.3,4.4-4.6,8.8-6.9,13.1c-1.4,2.5-2.3,5-2.9,7.8c-1.4,6.6-3.7,13-5.8,19.4c-0.2,0.6-0.4,1.2-0.7,1.7
		c-3.1,4.5-4.9,9.7-7.2,14.6c-5.9,12.5-13.7,23.5-23.6,33.1c-7.3,7.2-14.6,14.3-22,21.5c-1,1-2.1,2-3.3,2.8c-1.7,1-3,2.4-4.2,3.9
		c-0.8,1-1.8,1.9-1.8,3.4c0,0.7-0.6,1.3-0.9,1.9c-2.7,4.6-5.4,9.1-8.1,13.7c-0.4,0.7-0.7,1.5-0.9,2.3c-1.1,4.3-2.1,8.6-3.2,13
		c-0.1,0.5-0.2,1-0.4,1.4c-1.4,2.2-1.7,4.7-2.2,7.2c-2.3,10.7-6.6,20.6-12.3,29.9c-0.7,1.1-1.7,2-2.4,3.1c-0.9,1.3-2.1,2.6-1.5,4.5
		c0.1,0.4-0.1,1-0.3,1.3c-3.4,5.1-5,10.9-6.9,16.6c-0.8,2.6-1.7,5.3-2.5,7.9c-0.1,0.5-0.1,0.9-0.2,1.5c0.8,0.5,1.6,1,2.3,1.6
		c0.7,0.6,1.4,1.4,2,2.1c0.9,0.9,1.2,2,1,3.3c-0.6,4.3,0.1,8.7,0.4,13c0,0.6,0.4,1.1,0.7,1.7c0.7,0.1,1.4,0.4,2.1,0.4
		c9.1,0.4,18.3,0.9,27.4,1.3c7.6,0.3,15.2,0.7,22.8,1c11.1,0.5,22.2,1,33.2,1.5c14.8,0.6,29.6,1.3,44.4,1.9
		c8.1,0.4,16.1,0.8,24.2,1.1c9.8,0.4,19.5,0.8,29.3,1.3c16.4,0.7,32.7,1.4,49.1,2.2c3.4,0.2,6.7,0.4,9.9,0.6c1,0.8,0.7,1.6,0.6,2.6
		c-1,0-2,0.1-2.9,0.1c-8.1-0.4-16.1-0.8-24.2-1.2c-8.7-0.4-17.3-0.7-26-1.1c-7.8-0.3-15.6-0.8-23.5-1.1c-8.5-0.4-17.1-0.7-25.6-1
		c-7.8-0.3-15.6-0.8-23.5-1.1c-8.8-0.4-17.6-0.7-26.4-1.1c-7.2-0.3-14.4-0.7-21.7-1.1c-2.6-0.1-5.3-0.1-7.9-0.3
		c-12.3-0.5-24.6-1.1-36.8-1.6c-6.7-0.3-13.5-0.7-20.2-1c-0.3,0-0.7,0.1-1,0.1c-0.7,0.6-0.5,1.2-0.2,1.6c1.2,1.4,2.4,2.7,3.7,3.9
		c1.3,1.2,2.7,2.4,4.1,3.6c1.3,1.2,2.6,2.6,2.9,4.6c2.1,1,4.2,1.9,6.5,3c0.9,3.1,0.8,6.4,0.3,9.7c-0.1,0.8-0.3,1.6,0,2.4
		c0.4,1-0.1,1.8-1,1.9c-2.7,0.4-5.5,0.9-8.3,0.3c-1.9-0.4-3.8-0.4-5.7-0.5c-3.7-0.2-7.5-0.2-11.2-0.5c-5.4-0.4-10.7-1.5-15.5-4.3
		c-2-1.2-3.8-2.5-4.8-4.7c-0.2-0.5-0.7-1-1-1.5c-2-0.7-3.9-1.3-5.8-2c-2-0.7-4-1.3-5.7-2.9c-1.4-1.3-3.2-2-5.1-2.5
		c-1.6-0.4-3-1.4-4.5-2.3c-1-0.6-2.1-1.1-3.3-1.5c-4.7-1.5-8.5-4.4-11.4-8.4c-0.4-0.5-0.5-1.1,0.2-1.7c2.7,2.1,4.9,4.8,8.2,6.2
		c0.6-1.3,0.2-2.4-0.1-3.5c-0.2-0.7,0-1.2,0.7-1.4c1.1,1.3,2.1,2.6,3.2,3.8c0.9,0.9,2.4,1.6,2.8,2.6c0.7,1.7,2.3,1.5,3.4,2.3
		c0.3,0.2,0.5,0.5,0.6,0.9c0.2,0.8,0.7,1.2,1.4,1.4c0.8,0.3,1.6,0.6,2.3,1c2.5,1.3,5.3,2.4,7.6,4c1.8,1.3,3.5,2,5.5,1.9
		c0,0.1,0.1,0.1,0.1,0.2c-0.1,0-0.2-0.1-0.2-0.1c-0.4-0.5-0.8-1.2-1.3-1.6c-5.3-4.3-10.9-8.4-17.1-11.4c-1.3-0.6-2.6-1.3-3.9-2
		c-0.7-0.4-1.6-0.6-1.6-1.7c0-0.7,1-0.7,2.5,0c7.8,3.4,14.7,8.1,21.3,13.5c1.8,1.4,3.3,3.2,4.8,4.9c1.3,1.4,2.3,3,2.6,5.2
		c1.5,0.5,2.9,1.3,4.4,1.6c3.4,0.6,6.9,1.3,10.3,1.5c6,0.4,12,0.1,18,0.9c1.7,0.2,3.6,0.3,5.3-0.6c0.1-3.4,0.8-6.8-0.1-9.9
		c-2-1.2-3.7-2.2-5.5-3.2c-0.7-0.4-1.5-0.9-1.9-1.6c-1.3-2.5-3.3-4-5.7-5.1c-0.3-1.9-1.3-3.2-2.8-4.2c-0.3,0.1-0.6,0.3-0.9,0.4
		c-2,0.7-3-0.1-2.8-2.1c0.1-0.7,0.2-1.4,0.3-2c-0.8-1-1.5-1.8-2.1-2.5c-0.4,0.1-0.6,0.1-0.8,0.2c-0.7,0.4-1.4,0.5-2-0.1
		c-0.6-0.6-0.6-1.3-0.2-2c0.4-0.7,1-1.4,1.2-2.2c0.5-1.6,1.6-2.9,1.5-4.8c-0.1-2.6,0-5.3,0-8.1c-0.8-1.3-1.7-2.7-3.1-3.6
		c-0.8,1.5-0.9,1.6,0,2.1c0.8,0.4,1.2,0.9,1.1,1.6c-0.2,1.3-0.4,2.6-0.8,3.9c-0.2,0.5-0.7,0.9-1.2,1.2c-0.6,0.3-1.2,0.1-1.4-0.6
		l0.1-0.1l0,0.2c-1.3,0.5-2.6,1.2-3.9,1.6c-1.4,0.4-2.8,0.5-4.2,0.6c-4.5,0.3-5.5-0.7-6.5-4c-0.3-1.1-0.5-2.3-0.6-3.5
		c-0.1-2.2-0.1-4.3-0.2-6.5c0-0.8-0.2-1.6-0.4-2.3c-1-0.6-1.8-1.2-2.7-1.5c-1-0.3-2.1-0.5-3.1-0.5c-1.8,0.1-3.1,1-4.1,2.5
		c-1.5,2.3-3.1,4.6-4.8,6.7c-1.1,1.3-1.9,2.7-2.3,4.4c-0.4,2.1-1.4,3.9-3.5,4.7c-1.2,0.5-1.8,1.5-2.3,2.6c-0.3,0.8-0.7,1.6-0.8,2.4
		c-0.5,2.6-2.3,4.4-3.8,6.4c-0.5,0.6-1.1,0.8-1.9,0.6c-0.1-0.9,0.4-1.6,0.9-2.3c1.1-1.9,2.1-3.8,3-5.7c0.8-1.8,1.7-3.5,3.2-4.7
		c1.6-1.3,2.4-3,3-4.8c0.4-1,0.6-2.1,0.9-3.1c0.5-2.1,1.4-3.8,2.9-5.3c1.9-1.8,3.9-3.5,5-6.1c0.2-0.6,0.9-1.1,1.6-1.8
		c-0.5-0.4-0.8-1-1.2-1.2c-1-0.4-2-0.8-3.1-1c-1.5-0.3-3.1-0.4-4.5-0.6c-1.2,0.9-1.5,2.1-1.9,3.2c-0.5,1.4-1.2,2.6-2.1,3.8
		c-2.4,3.3-4.1,7.1-5.6,10.9c-0.6,1.5-1.1,3.2-2.4,4.4c-0.6,0.6-0.9,1.7-1.2,2.6c-0.7,1.9-1,3.9-1.1,6c0.6,0.3,1.1,0.6,1.6,0.9
		c0,2.1-0.1,2.2-1.7,2.4c-0.7,0.1-1.3,0.2-2,0.2c0.5,1.3,2.3,1.2,2.4,2.9c-2-0.1-3.9-0.6-5.2-2.1c-1.1-1.3-2.3-1.6-3.8-1.4
		c-3.1,0.2-6.2,0.4-9.4,0.7c-8.3,0.8-16.5,1.7-24.8,2.6c-8.5,0.9-17,1.6-25.5,2.5c-5.8,0.6-11.5,1.2-17.2,1.8c-0.9,0.1-1.9,0-3,0
		c-0.1-0.7-0.2-1.3-0.3-2c2.2-0.8,7.1-1.5,15.4-2.1c5.2-0.4,10.3-1,15.5-1.5c5.3-0.5,10.5-1.1,15.8-1.6c5.2-0.5,10.3-1.1,15.5-1.6
		c5.1-0.5,10.3-1,15.2-1.6c1-1.2,0.7-2.3,0.7-3.4c0-9.2,0.1-18.3,0.1-27.5c0-43.4,0-86.8,0-130.2c0-88.4-0.1-176.7-0.1-265.1
		c0-21.7,0-43.4,0.1-65.1c0-10.7,0.2-21.4,0.4-32.2c0-0.9-0.3-1.9,0.6-2.6c0.6,0,0.9,0.4,0.9,0.9c0.1,1,0.1,1.9,0.1,2.9
		c0.7,68,0.4,136,0.4,203.9c0,81-0.1,162-0.1,243c0,22.4,0,44.8,0,67.3c0,1.8,0,3.6,0.1,5.4c0,0.7,0.3,1.4,0.4,2
		c2.2,0.9,3.8,0.6,5.2-1.3c0.9-1.3,1.7-2.5,2.2-4.1c0.6-2,1.3-3.9,2.2-5.7c2.7-5.4,5.6-10.7,7.8-16.3c1.1-2.6,2.9-4.6,5.4-6.1
		c0.6-4,1-8,1.7-12.1c0.8-5,1-10.1,0.9-15.1c0-1.6,0-3.1,0-4.7c0-2.4,0.1-4.8-0.2-7.2c-0.3-2.1,0-4.3,0.2-6.5
		c0.5-5.6,1.4-11.2,2.5-16.8c0.9-4.5,1.6-9,2.9-13.4c1-3.5,2.5-6.7,4.2-10c2.9-5.8,6.7-10.8,10.2-16.1c2.9-4.4,5.9-8.8,8.8-13.3
		c0.9-1.4,1.7-3,2.1-4.6c2.5-9.7,5.6-19.2,8.8-28.7c1.7-5,3.4-10,4.9-15.1c3-9.7,7-19,11.5-28.1c2-4,4.1-7.9,5.3-12.5
		c-1.7-3.9-1.8-8.2-1.5-12.5c0.2-2.8,0.7-5.5,0.3-8.3c-0.1-1,0.1-2.2,0.4-3.2c1.2-4.5,2.8-8.7,5.7-12.4c1.1-1.3,2.1-2.6,3.1-4
		c0.4-0.5,0.8-0.9,1-1.5c0.9-2.6,2.9-4.1,4.9-5.7c3-2.4,6.4-4.3,9.8-6.1c2.5-1.3,5-2.5,7.5-3.7c2.3-1.1,4.3-2.6,6.1-4.5
		c3-3.1,5.7-6.5,9.3-9.1c0.6-0.4,1-1.1,1.4-1.6c2.8-3.6,5-7.6,7.2-11.7c0.7-1.3,0.8-2.7,0.1-4.3c-0.6,0.2-1.2,0.3-1.7,0.5
		c-2.6,0.9-5.2,1.8-7.8,2.8c-4.3,1.6-8.7,2-13.2,1.8c-3.1-0.1-5.5-1.6-7.9-3.2c-0.2-0.1-0.4-0.3-0.5-0.5c-2.2-4.1-3.9-8.3-2.4-13.1
		c0-0.1,0.2-0.2,0.5-0.4c0.3,0.3,0.5,0.6,0.7,0.9c0.1,0.2,0.1,0.5,0.1,0.7c-0.2,4,1.1,7.6,2.4,11.4c1.6,1.3,3.5,2,5.5,2.2
		c3.7,0.3,7.5,0.4,11.1-0.9c4.4-1.6,8.8-3.3,13.1-5c0.6-2-0.1-3.8-0.1-5.5c-0.1-1.7,0-3.3-0.5-5c-1.2-0.1-1.4,0.9-2,1.3
		c-0.6,0.5-1,1-1.6,1.4c-0.7,0.5-1.4,0.8-2,1.2c-0.8-0.5-0.5-1-0.3-1.4c0.5-0.8,1.1-1.6,1.7-2.3c0.5-0.6,1.1-1.2,1.7-1.9
		c1.7-1.9,2.4-4,2-6.7c-0.8-6.3-1.4-12.7-1.3-19.1c0-1,0-1.9,0-2.9c0.1-2.6,0.5-5.3,0.2-7.9c-0.1-0.9,0.2-1.9,0.3-3
		c-0.4,0.1-0.7,0.2-0.9,0.4c-5.3,6.6-10.4,13.3-14.5,20.7c-0.8,1.4-1.3,2.8-2.1,4.2c-0.7,1.3-1.4,2.6-2.2,3.7
		c-2.3,3.1-4.6,6.2-7,9.2c-0.8,1.1-1.6,2.3-3.4,2.9c0.1-0.7,0.1-1.2,0.3-1.6c0.8-1.3,1.6-2.7,2.6-3.9c3.9-5.1,7.5-10.3,10.4-16
		c1.4-2.9,3.5-5.5,5.4-8.1c2.3-3.2,4.7-6.4,7-9.6c1.9-2.7,3.8-5.3,6.2-7.5c0.6-0.6,1.1-1.3,1.5-2c2.6-4.6,6.2-8.3,10.6-11.2
		c1.6-1.1,3.2-2.1,4.8-3.2c1-0.7,2-1.4,2-2.8c0.8-0.5,1.2-1.3,1-2.7c-0.5,1-0.9,1.8-1.3,2.5c-0.8,0.2-1.6,0.4-2.4,0.6
		c-0.5-1.3-0.7-2.5,0.4-3.4c1.5-1.2,1.7-2.8,2-4.5c-0.5-0.1-0.9-0.1-1.4-0.2c-0.2-1.6,1.4-2.8,1.1-4.4c-0.4,0-0.7,0-1.2-0.1
		c0.1-0.6,0-1.2,0.2-1.8c1.5-4,2-8.2,2.5-12.4c1-8,2-16,2.9-24c0.3-2.7,0.3-5.4-0.3-8.2c-1.5-7-1.4-14.1,0.4-21.1
		c0.2-0.9,0.3-1.9,1.5-2.2l-0.1-0.1c0,0.2,0.1,0.5,0,0.7c-1,3.3-1.4,6.8-1.8,10.3c-0.4,3.3,0.2,6.5,0.6,9.7c0.1,0.7,0.5,1.3,0.9,2
		c0.2,0.3,0.5,0.5,1.1,1.1c0.1-0.9,0.1-1.3,0.1-1.8c0-4.3,0.5-8.6,1.2-12.9c0.9-5.3,2.1-10.6,5-15.3c0.5-0.9,0.6-2,0.9-3
		c0.6,0,0.7-0.2,0.7-0.8c0.5,0,0.8-0.2,0.7-0.7c0.5,0,0.8-0.2,0.7-0.8c0.6,0.1,1.2,0.1,1.4-0.7c0.2,0,0.4,0,0.6-0.1
		c0.1,0,0.1-0.2,0.2-0.3c-0.1,0-0.2,0-0.3,0c-0.2,0.1-0.3,0.3-0.4,0.4c-0.5,0.2-0.9,0.5-1.4,0.7c-0.2,0.3-0.5,0.5-0.7,0.8
		c-0.5,0-0.8,0.2-0.7,0.7c-0.5-0.1-0.8,0.2-0.8,0.7c-1.8,0.6-2.5,2.3-3.7,3.6c-1.3,1.4-2.4,2.9-3.6,4.3L734.1,56.1z M742.7,49.6
		l-0.2,0.1l0.1-0.2c0.3-0.2,0.5-0.5,0.8-0.7c1.4-0.3,2.6-1.1,3.7-2.1c1.1,0,2.4-0.2,2.8,1.7c-0.7,0.7-1.4,1.4-2.1,2.2
		c-1.2,1.4-2.5,2.8-3.6,4.3c-0.4,0.5-0.4,1.3-0.6,2c-0.2,0.1-0.3,0.2-0.5,0.3c0.2,0.1,0.3,0.2,0.5,0.3c-0.3,0.7-0.5,1.3-0.9,2
		c-2.3,4.4-3.6,9.2-3.6,14.2c0,2.3-0.6,4.4-0.9,6.9c-0.9-0.6-1.6-1-2.4-1.5c-0.2,1.7,0.1,3.2,0.5,4.7c0.4,0,0.7,0,1.2,0
		c0.1,2.8-0.4,5.6-1.1,8.4c0,0.1-0.2,0.2-0.2,0.3c0-1.3,0.3-2.7,0-3.9c-0.3-1.2-1.1-2.2-1.7-3.4c0-0.1-0.2-0.1-0.3-0.1
		c-0.9,2.1-1.2,4.4-1.5,10.9c-0.2,3.7-0.4,7.3-0.6,11.1c1.9-1.4,2.4-3.4,2.7-5.4c0.1-1.2-0.1-2.4,0.7-3.5c-0.1,1.6,0,3.1-0.2,4.7
		c-1.1,7.5-2.2,15-3.3,22.5c-0.1,0.7,0,1.4,0,2.1c0.8-1,1.2-2.1,1.5-3.2c3.6-11.3,5.2-23,7.1-34.6c0.5-3.2,0.8-6.4,1.2-9.7
		c0.1-0.5,0.3-0.9,0.7-1.8c0,2.4,0.1,4.2,0,6c-0.4,4.1-0.9,8.1-1.4,12.2c-0.5,4.2-1,8.4-1.7,12.5c-1.1,6.5-2.7,13-4.6,19.3
		c-0.3,1.1-1,2.2-0.6,3.5l-0.3,0l0.2-0.1c0.7-1.4,1.6-2.6,2.1-4.1c1.3-3.7,2.5-7.4,3.7-11.2c0.3-1,0.5-2.1,1.4-2.8l-0.1-0.1
		c0.2,1.9-0.7,3.5-1,5.3c-0.3,1.6-1.3,3.1-1.1,4.9c-0.2,0.1-0.4,0.3-0.5,0.4c0,0.1,0.2,0.3,0.3,0.5c0.1-0.1,0.1-0.2,0.1-0.3
		c0-0.2,0-0.5,0-0.7c0.5-0.2,1-0.5,1.5-0.7c0.2,0,0.5,0,0.7,0c2.5-2,3.9-4.8,5.1-7.7c4.2-10.3,6.7-21.1,8.5-32
		c0.2-1.4,0.1-2.6-1.1-3.8c-0.1,0.6-0.2,1.2-0.3,1.7c-0.9,5.3-1.7,10.7-2.8,16c-0.6,3.2-1.5,6.3-2.3,9.5c-0.1,0.5-0.6,0.8-0.9,1.2
		c0.5-6.1,2-11.9,2.8-17.3c-1.1-4.2-2-7.9-2.9-11.5c-1,3.1,0.5,6.2,0.3,9.4c-1.3-0.1-1.6-1-1.8-1.7c-0.8-2.2-1-4.4-0.8-6.7
		c0.6-5.3,1.8-10.4,3.8-15.4c1.8-4.3,4-8.2,7.6-11.2c1-0.8,1.6-1.8,1.8-3.2c-0.8-0.7-1.6-1.5-2.8-2.6c0,1.7,1.3,3.1,0,4.4
		c-1.2-2.5-1.2-2.5-2.8-3.4c-0.1-0.3-0.2-0.8-0.5-0.9c-1.5-0.9-3-1.4-4.8-1c-0.2,0-0.3,0.3-0.4,0.5c-1.7-0.2-2.9,0.5-3.6,2.1
		C743.2,49.1,743,49.3,742.7,49.6z M739.2,129.9c-3.6,2.4-5,4.4-5.4,8.1c3.1-2,4.4-4.9,5.3-8.2c2.1-2.2,2.5-2.8,3.3-5.8
		c-1.4,1.2-2.4,2.5-3.2,3.9C738.9,128.4,739.2,129.2,739.2,129.9z M792,79.8c0.1,0.1,0.1,0.2,0.2,0.3C792.1,80,792,79.9,792,79.8
		c-0.7-1.2-1.9-1.8-3-2.5c-5.7-3.8-11.9-6.2-18.4-8c-0.2,0-0.4,0.2-0.4,0.2c-0.1,0.5-0.1,0.9-0.2,1.6c-1-0.4-1.8-0.7-2.5-1.1
		c-0.7-0.4-1.4-0.9-2.1-1.4c-0.8-0.5-1.6-1.1-2.4-1.7c-0.7-0.5-1.3-1-2-1.5c-0.6-0.4-1.1-1.2-2.4-0.9c1.4,1.6,2.7,2.8,4.1,3.8
		c2.5,1.7,4.9,3.5,7.4,5.2c0.9,0.6,1.9,1.1,2.9,1.4c5.2,1.5,10.4,3,15.6,4.5C789.6,79.9,790.8,80.2,792,79.8z M713,233.8L713,233.8
		c0.2-0.5,0.4-1.1,0.5-1.7c1.2-3.8,2.3-7.6,3.5-11.4c0.2-0.8,0.6-1.6-0.1-2.6c-1.5-0.1-3-0.9-4.8-0.4c0,3-1.4,5.4-2.7,7.8
		c-0.3,0.6-0.6,1.3-1,1.9c-1.3,2.3-2.6,4.6-4,6.8c-1.7,2.6-3.8,5-6.6,6.6c-0.9,0.5-1.7,1.4-2.3,2.3c-1.8,3.1-4.3,5.5-7.1,7.6
		c-0.4,0.3-1.1,0.5-1,1.4c2.2,1.4,4.7,1.7,7.1,2c4.9,0.7,9.8,1.3,14.7,1.9c5.8,0.7,11.2,2.6,16.6,4.6c6.3,2.4,11.8,5.9,16.6,10.6
		c1.4,1.4,2.6,2.8,4,4.2c0.3,0.3,0.7,0.6,1.2,1c0.3-6.1,2-11.6,3.6-17.1c-0.4-0.3-0.8-0.6-1.2-0.9c0.1-0.5,0.2-0.9,0.3-1.4
		c1.1-3.7,3.3-6.7,5.6-9.6c2.9-3.8,5.9-7.6,9-11.3c1.6-1.9,2.5-4.1,2.6-6.6c0-1.4,0.4-2.6,0.9-3.8c0.2-0.4,0.2-0.9,0.4-1.6
		c-0.8,0.1-1.4,0.2-2,0.2c-0.7,0-1.4,0.1-2.2,0.1c-4.4-0.3-8.9-0.5-13.3-1c-4.8-0.5-9.6-1.2-14.3-1.9c-5.1-0.8-10.2-1.8-15.3-2.6
		c-0.4-0.1-0.9,0-1.4,0.1c-0.3,1.2-0.5,2.2-0.8,3.3c-1,3.8-2.6,7.3-4.9,10.4C714.2,233.2,713.9,233.9,713,233.8z M652.7,315.7
		c-0.4,0.7-0.8,1.3-1.1,1.9c-4.4,9.6-9.1,19.1-11.7,29.5c-1.4,5.6-3.2,11.1-4.9,16.6c-2.6,8.6-5.3,17.3-8,25.9
		c-0.9,2.8-2.1,5.4-3.7,7.8c-2.9,4.3-5.8,8.6-8.7,12.9c-0.3,0.4-0.7,0.8-0.8,1.2c-0.6,2.3-2.2,4-3.6,5.7c-5.6,6.6-9,14.2-10.7,22.6
		c-1.4,7.2-2.8,14.4-4.2,21.6c-0.1,0.7-0.1,1.4-0.2,2.2c-0.1,1.8-0.1,3.6-0.3,5.4c-0.3,2.8-0.6,5.5-0.2,8.3c0.6,4.3,0.7,8.7,0.3,13
		c-0.3,3.5-0.3,7-0.1,10.5c0.1,1.4,0,2.8-0.5,4.1c-0.5,0-0.7,0.1-1.1,0.1c-0.4,2.3-1.2,4.5-1.4,7c0.9,0.3,1.7,0.6,2.5,0.8
		c0.8,0.3,1.6,0.4,2.4,0.8c0.9,0.4,1.7,0.9,2.5,1.3c0.7,0.4,0.7,1.6,1.9,1.5c0.6-1.7,1.1-3.4,1.3-5.2c0.3-2.9,0.6-5.8,1.1-8.6
		c1.2-7.2,2.7-14.5,3.8-21.7c1.1-6.9,1.9-13.8,3-20.7c1.4-8.6,3.4-17,7-25c2.3-5.2,5.2-10.1,9.1-14.2c1.3-1.4,2.5-2.9,3.3-4.7
		c0.2-0.5,0.6-0.9,1-1.4c0.4,0.5,0.7,0.8,0.9,1c0.1-1.2,0.1-2.6,0.5-3.8c0.4-1.8,1-3.5,1.6-5.2c1.9-5.2,4.9-9.9,8.2-14.4
		c1.2-1.7,2.3-3.5,3.8-4.8c1.1-0.9,1.7-2,2.2-3.2c2.4-5.7,4.7-11.3,7.7-16.8c6.7-12.4,13.6-24.7,21-36.7c2-3.3,3.9-6.6,4.6-10.5
		c0-0.2,0.3-0.3,0.5-0.6c0.1,0.4,0.2,0.7,0.2,1.1c-0.4,3.5-1,6.9-3,9.9c-1.2,1.8-2.1,3.8-3.2,5.7c-6.3,11.4-12.6,22.8-18.8,34.2
		c-3,5.6-5.9,11.3-8.8,17c-0.6,1.2-1.3,2.3-2.1,3.4c-3.9,4.9-7.2,10.2-9.5,16.1c-1.4,3.5-2.6,7-3.9,10.4c-2.4,1.9-4.4,4.2-6.1,6.7
		c-0.6,0.9-1.1,1.9-1.9,2.7c-1.3,1.3-2.1,2.9-3,4.5c-1.7,3.3-3.1,6.8-4.2,10.4c-1.6,5.4-2.8,11-3.6,16.6c-0.9,5.8-1.6,11.7-3.7,17.3
		c-0.2,0.7-0.4,1.4-0.5,2.1c-0.6,4.3-1,8.6-1.6,12.9c-0.9,7.2-1.6,14.4-3.7,21.3c-0.5,1.7-0.7,3.5-0.9,5.3c1.4,1.2,3.2,1.5,4,3.2
		c0.1,0.3,0.6,0.4,1.2,0.8c0.1-1.4,0.1-2.5,0.2-3.6c0.2-1.8,0.5-3.6,0.9-5.3c0.1-0.4,0.6-0.8,1.2-1.4c0.7,2.3,0.1,4.2-0.1,6
		c-0.3,2.1-0.9,4.2-1.1,6.4c-0.3,3.9-0.4,7.9,0.9,11.9c1.5,0.8,3,0.9,4.7,0.3c3.1-1,5.6-2.7,7.8-4.9c0-1.4-0.1-2.7,0-4.1
		c0.1-1.7,0-3.4,0.4-5c0.9-3.5,1.9-7,3.1-10.4c1.8-5.1,3.9-10.1,5.9-15.2c0.8-1.9,1.5-3.8,2.4-5.6c1.6-3.1,2.9-6.3,5.4-8.9
		c0.5-0.5,0.7-1.2,1-1.9c2.8-6.9,5.3-14,7.3-21.2c1.5-5.4,3.5-10.8,5.2-16.1c0.1-0.2-0.1-0.4-0.1-0.6c-0.7,0.1-1.3,0.2-2.4,0.3
		c0.6-1,0.9-1.8,1.4-2.4c3.1-3.5,5.6-7.6,8.1-11.5c1-1.5,2.2-2.8,2.2-4.8c0-0.6,0.6-1.3,0.9-1.9c0.6-0.9,1.2-1.8,1.9-2.8
		c-1.2-1.5-0.4-3,0.1-4.4c0.6-1.5,0.8-3.3,2.6-4.5c0,0.8,0,1.4-0.1,1.9c-0.4,1.3-0.9,2.5-1.3,3.8c-0.2,0.5-0.7,1,0,1.6
		c1.4-1.4,2.7-2.8,4-4.1c0.5-0.5,1.1-1.3,1.7-1.2c1.9,0,2.7-1.4,3.7-2.5c6.1-6.6,12.2-13.4,18.4-20c4.9-5.3,9.8-10.6,13.9-16.6
		c6.2-9.1,11.1-18.9,15.4-29c0.1-0.3,0.1-0.7,0.1-1.1c-0.4-0.3-0.8-0.6-1.2-0.8c-7.7-3.6-15.5-7.3-23.2-10.9c-4.9-2.3-10-4.2-15.4-5
		c-0.3-0.1-0.7-0.3-1.6-0.8c3-0.4,5.3-0.1,7.5,0.4c3.9,0.9,7.7,2,11.3,3.6c5.5,2.4,11,4.9,16.4,7.5c2,0.9,3.8,2.1,5.7,3.2
		c0.5,0.3,1,0.5,1.7,0.8c0.5-1,0.9-1.9,1.3-2.7c1.6-3.8,3.2-7.5,4.7-11.4c0.9-2.2,1.5-4.6,2.2-6.9c0.3-1,0.8-2,1.2-3
		c0.3-0.7,0.6-1.3,0.9-1.9c0.7-1.7,1.3-3.4,2.2-5c1.6-3.2,3.5-6.4,5-9.6c1-2,1.9-4.2,2.5-6.4c0.9-3.5,1.4-7.1,2.1-10.6
		c0.3-1.4,0-2.6-0.7-3.8c-0.6-0.9-1.2-1.8-1.9-2.6c-5.3-5.7-11.5-10.3-18.8-13.1c-3.8-1.5-7.6-3-11.5-4.3c-1.6-0.6-3.2-1-4.9-1.2
		c-2.7-0.4-5.5-0.5-8.3-0.9c-5.1-0.8-10.3-1.1-15.2-2.8c-0.9-0.3-1.9-0.4-2.7-0.6c-4.4,2.2-8.7,4.5-12.6,7.2c-1.6,1.1-3.3,2-4.7,3.4
		c-3.8,3.7-7.1,7.8-9.5,12.7c-0.9,2-1.7,4-1.8,6.2c-0.3,3.7-0.8,7.4-0.8,11.2c-0.1,4.4-0.1,8.9,2.4,12.8c-2.3,2.8-2.5,3.3-3.5,7.7
		c1.3,0.1,2.6,0.1,3.9,0.3c5.8,1.2,11.4,3,16.6,6c1.4,0.8,2.7,2,4,3.1c0.3,0.2,0.8,0.7,0.2,1.1C670.3,319.8,661.8,317.2,652.7,315.7
		z M756.5,57.3c-5.8,6.4-8,18.1-5.3,26.3c0.3-1.5,0.6-2.8,0.8-4.1c0.6-3.9,1.1-7.9,1.8-11.8c0.2-1.2,0.3-2.5,1-3.4
		C756.1,62.4,756.3,60.2,756.5,57.3z M765.7,87.9c-2.9-3.7-5.3-6.6-7.7-9.6c0-0.1-0.2,0-0.6,0c-0.1,0.9-0.2,1.8-0.2,2.7
		c-0.2,2,0.6,3.5,2.3,4.6c1.2,0.8,2.5,1.4,3.8,2.1C763.7,87.9,764.3,87.8,765.7,87.9z M781.1,90.1c0.3,1.6,1.2,2.1,2.3,2.1
		c0.5,0,1.1-0.4,0.9-1.2C783.4,90.5,782.5,89.9,781.1,90.1z M729,135c0.9-0.6,1.6-1.4,1-3C729.6,133.3,729.3,134.1,729,135z
		 M755.4,74.6c0,0.1-0.1,0.2-0.1,0.3c0.1-0.1,0.2-0.1,0.3-0.2C755.5,74.7,755.4,74.7,755.4,74.6z M731.6,129l-0.2,0l0.1,0.3
		L731.6,129z M748.1,277.7l0.2,0.1l0-0.2L748.1,277.7z"/>
	<path d="M273.3,66.9c0.5,0.3,1.1,0.4,1.5,0.8c2.4,2.8,5.7,2.9,8.9,2.8c0.9,0,1.8-1,2.7-1.5l0,0c-0.2,2-1.6,3.2-3,4.4
		c0-0.6,0-1.2,0-2c-3.4-0.2-6.7-0.5-10.2-0.7c0.8,0.8,1.5,1.6,2.5,1.8c2.6,0.4,5.2,0.5,7.8,0.8c-0.2,0.9-1.1,0.7-1.7,1
		c-0.5,0.3-1,0.7-1.1,1.2c-0.1,0.4,0.5,0.9,0.8,1.3c-1.3,1.6-3-0.4-4.4,0.4c0.5,1.3,1.8,0.9,2.9,1.5c-0.6,0.3-1.1,0.5-1.6,0.7
		c0.1,0.9,1.8,0.9,1.1,2.2c-0.2,0-0.5,0.1-0.6,0.1c-0.5-0.3-1.1-0.6-1.5-1c-0.7-0.8-1.3-1.7-1.9-2.6c-0.6-0.8-1.2-1.5-1.8-2.3
		c-0.9-0.3-1.9-0.7-3-1.1c-1.4,1.4-1.8,3.1-1.5,4.9c-1.4-0.3-1.9-0.7-1.7-1.4c0.1-0.5,0.3-0.9,0.5-1.3c0.6-1.4,1.1-2.9,1.7-4.3
		c1.4,0.7,2.7,1.3,4.1,2c0-0.3,0.2-0.7,0.1-0.9c-0.8-1.1-1.9-1.8-3.3-1.8c-0.5,0-0.9,0.2-0.9,0.8c-1.6,0.1-2,1.6-2.8,2.4
		c-0.1,3.6-0.2,7.1-0.3,10.6c1.7,1.6,3.3,3.2,5,4.7c-1.1,2.9-0.9,5.7,0.1,8.5c0.6,1.6,1.4,3,3.1,3.8c1.2,0.6,2.5,1.4,3.3,3
		c-0.5,0-0.9,0-1.1-0.1c-0.9-0.5-1.8-1.4-2.8-1.5c-1.7-0.3-2.4-1.4-3.1-2.6c-0.9-1.7-1.6-3.5-1.4-5.5c0.2-2.6-0.4-5-2-7.1
		c-0.5-0.7-0.8-1.5-1.3-2.1c-1.4-1.6-1.5-3.4-1.3-5.4c0.2-2.6,0.3-5.3,0.5-7.9l-0.1,0.1c1.5-1.5,3-2.9,4.4-4.4l-0.1,0.1
		c1.4-0.1,2.8-0.1,4-1C273.6,67.7,273.5,67.3,273.3,66.9L273.3,66.9z M276.5,73.4c-0.2,1.6,0.5,1.9,1.4,2.2c1.1,0.4,1.2,0.3,1.9-1.3
		C278.7,74,277.7,73.8,276.5,73.4z"/>
	<path d="M859.9,175.3c-0.4-0.4-1-0.8-1.1-1.3c-0.5-2.3-0.9-4.7-1.4-7.2c2-2,3.4-4.5,5.9-6.6c0.5-3.2,1-6.9,1.5-10.6
		c0.3-2.3,0.5-4.6,0.9-6.8c0.3-1.3,0.8-2.5,1.5-3.6c0.2-0.4,1-0.7,1.5-0.7c0.8,0.1,1.2,0.7,0.8,1.8c-0.5,0.1-1,0.2-1.7,0.3
		c-0.5,2.9-1,5.9-1.4,8.8c-0.5,3.6-0.9,7.1-1.4,10.7c-0.1,1-0.1,1.9-0.1,2.9c0.1,2.7-1,5.1-1.6,7.6c-1.1,0.3-1.3-0.4-1.3-0.9
		c0-0.8,0.4-1.6,0.4-2.5c0.1-0.8-0.1-1.6-0.1-2.7c-1.7,0.6-2.5,1.8-3.5,2.9C860.6,169.9,860,172.7,859.9,175.3L859.9,175.3z"/>
	<path d="M292.8,157.9c-0.3,0.3-0.5,0.9-0.8,1c-4,1.4-7.9,1.7-11.9,0.1c-0.4-0.2-0.8-0.5-1.2-0.8c-0.2-0.2-0.3-0.7-0.2-1
		c0.1-0.3,0.4-0.5,0.7-0.7c0.3-0.1,0.7-0.2,1.1-0.1C284.5,157.9,288.7,157.9,292.8,157.9L292.8,157.9z"/>
	<path d="M269.5,81.2c0.5-0.2,1-0.4,1.6-0.6c-0.1-0.5-0.2-0.9-0.3-1.4c0.3-0.2,0.5-0.5,0.8-0.6c1.1-0.4,2,0.4,1.7,1.4
		c-0.2,0.5-0.6,1-0.8,1.6c-0.3,0.6-0.4,1.3-0.7,2c0.7,0.5,1.2,0.9,1.7,1.2c0.1,0.3,0.2,0.6,0.1,0.8c-0.2,1-0.6,1.8-1.5,2.4
		c-0.7,0.4-1.5,0.2-1.6-0.6C270.2,85.3,269.9,83.3,269.5,81.2z"/>
	<path d="M282.7,47.3c0,0.9,0.7,1.2,1.2,1.6c1.6,1.6,3.3,3.2,4.9,4.9c0.5,0.5,0.8,1.1,1.3,2c-0.6,0-1,0.1-1.2,0
		c-0.5-0.4-0.8-0.9-1.2-1.3c-3.2-3.5-6.7-6.6-10.9-8.8c-0.5-0.3-1.2-0.4-1.2-1.2l-0.1,0.1c0.9-0.3,1.5,0.2,2.3,0.5
		c0.9,0.4,1.9,0.7,2.9,1l-0.1-0.1c0.4,1.1,1.2,1.6,2.3,1.6L282.7,47.3z"/>
	<path d="M590.3,517.2c-1.8,4.1-5.3,6.6-5.2,10.9c-1.2,1.8-2.4,3.7-3.7,5.7c-0.6,0.1-0.6-0.5-0.5-0.9c0.2-0.7,0.4-1.4,0.8-2
		c1.4-1.8,2-3.8,2.8-5.8c1-2.6,2.5-4.9,4.3-7.1C589,517.8,589.4,517.7,590.3,517.2z"/>
	<path d="M360.8,177.7c-0.4,0.5-0.6,1-0.9,1.2c-2.1,1.2-4.4,1.6-6.9,1.4c-0.4,0-0.9-0.5-1-0.8c-0.2-0.7,0.2-1.1,0.8-1.3
		C355.3,177.3,357.9,177.3,360.8,177.7z"/>
	<path d="M254.5,59.7c0.4,0.2,0.9,0.4,1.1,0.8c2.4,3.1,4.8,6.3,7.1,9.5c0.3,0.4,0.3,0.9,0.4,1.3l0.1-0.1c-0.4-0.2-0.9-0.4-1.1-0.7
		c-2.4-3.1-4.8-6.3-7.1-9.5C254.7,60.6,254.7,60.1,254.5,59.7L254.5,59.7z"/>
	<path d="M286.4,69.1c-0.1-0.2-0.2-0.4-0.3-0.6c-0.1-0.3-0.1-0.7-0.2-1c-1-1.1-2.8-0.8-3.8-2l-0.1,0.1c1,0.2,2.1,0.3,3.1,0.5
		c0.7,0.1,1.4,0.4,2,0.5c0.5,0.1,1.1-0.1,1.7-0.3C288,68.5,288,68.5,286.4,69.1L286.4,69.1z"/>
	<path d="M136.7,560.2c0-0.5,0-1,0-1.5c0,0-0.1,0.1-0.1,0.1c2.1-0.2,4,0.3,5.8,1.8c-2.2,0.9-4-0.2-5.8-0.5L136.7,560.2z"/>
	<path d="M258.2,68.3c-1.9-1.6-3.2-3.4-4.3-5.8l-0.1,0.1C256.1,64.4,257.3,66,258.2,68.3L258.2,68.3z"/>
	<path d="M869.7,171.4c-0.7-1.9-1.3-3.6-0.1-5.2c0.6-0.2,1,0.1,0.9,0.6C870.3,168.2,870,169.7,869.7,171.4z"/>
	<path d="M250.6,101.1c0.6,1.1,0.9,1.4,1,1.8c0.1,1.5,0,1.8-1.2,3.6C249.9,104.9,250,103.4,250.6,101.1z"/>
	<path d="M869.4,186.3c2-0.3,3.4-0.8,4.6,0.8C871.1,187.8,871.1,187.8,869.4,186.3z"/>
	<path d="M829.8,195.8c0.4,1.6,0.4,1.6-1.2,3.2c-0.8-0.2-0.7-0.9-0.5-1.3C828.6,197,829.2,196.5,829.8,195.8z"/>
	<path d="M249.3,109.9c0,0.9,0,1.7,0,2.5C247.9,111.2,247.9,111.2,249.3,109.9z"/>
	<path d="M258.2,89.3c-0.4-0.7-0.9-1.3-1.3-2c0.7-0.5,1.3-0.3,1.6,0.2C259,88.1,258.7,88.7,258.2,89.3L258.2,89.3z"/>
	<path d="M292.9,158c0.9-0.6,1.9-0.9,2.9-0.5c0,0.7-0.5,0.7-1,0.7C294.1,158.2,293.5,158,292.9,158L292.9,158z"/>
	<path d="M420.7,179.6c-0.3,0.7-0.6,1.4-1,2.4C419.4,180.2,419.4,180.2,420.7,179.6z"/>
	<path d="M246.6,115.3c1.2,0.9,1.2,0.9,0.1,2.5c0-1,0-1.8,0-2.6L246.6,115.3z"/>
	<path d="M425.7,182.9c0.6,1.1-0.1,1.7-0.8,2.4C424.3,184.2,425,183.6,425.7,182.9z"/>
	<path d="M274.5,106.9c0.1,0.1,0.1,0.2,0.2,0.3c0.2,0.6,0,1.3-0.5,1.3c-0.2,0-0.5-0.3-0.5-0.3c0.1-0.4,0.3-0.8,0.5-1.1
		C274.2,107,274.4,107,274.5,106.9z"/>
	<path d="M699.9,212.6c-0.6,0.7-1.1,1.2-1.7,1.9C698,212.6,698,212.6,699.9,212.6z"/>
	<path d="M263.1,76.9c0.3,0.9-0.4,1.2-0.9,1.8C261.9,77.5,262.7,77.4,263.1,76.9L263.1,76.9z"/>
	<path d="M264.7,66.9c0.4,0.4,0.9,0.9,1.3,1.3c-0.1,0.1-0.2,0.2-0.3,0.3c-0.2-0.1-0.6-0.2-0.7-0.5C264.9,67.7,264.9,67.2,264.7,66.9
		L264.7,66.9z"/>
	<path d="M877.2,171.5c0.1-0.7,0.2-1.2,0.3-1.7c0,0,0.2-0.1,0.3-0.1c0.1,0,0.2,0.1,0.3,0.2C878.2,170.6,878.1,171.1,877.2,171.5z"/>
	<path d="M263.9,72c0.7,0.3,1.3,0.6,1.4,1.5l0.1-0.1C264.2,73.2,264.1,73.1,263.9,72L263.9,72z"/>
	<path d="M254.6,59.6c-0.2-0.2-0.5-0.3-0.7-0.5c-0.1-0.1,0.1-0.3,0.1-0.5c0.1,0.1,0.2,0.1,0.3,0.2C254.4,59.1,254.4,59.4,254.6,59.6
		L254.6,59.6z"/>
	<path d="M281.9,67.1c0.3,0,0.6,0,0.9,0c0,0.1,0,0.1,0,0.2c-0.3,0-0.6,0-0.9,0C281.9,67.2,281.9,67.2,281.9,67.1z"/>
	<path d="M694.3,214.5c0.3,0.1,0.6,0.2,0.6,0.3c0,0.3-0.2,0.5-0.3,0.8c-0.2-0.1-0.5-0.2-0.5-0.3
		C694.1,215.1,694.2,214.8,694.3,214.5z"/>
	<path d="M860.6,176.9c-0.2-0.5-0.4-1.1-0.6-1.6l-0.1,0.1C860.7,175.6,860.5,176.3,860.6,176.9L860.6,176.9z"/>
	<path d="M363.8,178.3c-0.1,0.1-0.3,0.2-0.4,0.3c-0.1-0.2-0.2-0.4-0.2-0.6c0-0.1,0.2-0.1,0.2-0.2C363.5,178,363.6,178.1,363.8,178.3
		z"/>
	<path d="M260.3,82.8c-0.1,0.2-0.2,0.4-0.2,0.6c0.1-0.2,0.2-0.3,0.4-0.5L260.3,82.8z"/>
	<path d="M733.4,57.6c0.2-0.5,0-1.2,0.7-1.5L734,56c-0.2,0.5-0.5,1-0.7,1.5L733.4,57.6z"/>
	<path d="M258.1,89.2c-0.1,0.6,0,1.3-0.7,1.5l0.1,0.1C257.7,90.3,258,89.8,258.1,89.2L258.1,89.2z"/>
	<path d="M259.3,85.8c-0.1,0-0.1,0.1-0.2,0.1c0-0.1,0.1-0.3,0.1-0.4C259.3,85.7,259.3,85.8,259.3,85.8z"/>
	<path d="M275.6,44.4c-0.2,0-0.4,0-0.7,0c-0.1,0-0.2-0.1-0.3-0.2c0.1-0.1,0.2-0.2,0.2-0.2C275.1,44.1,275.3,44.3,275.6,44.4
		L275.6,44.4z"/>
	<path d="M869.9,173.8c-0.1,0.2-0.2,0.4-0.3,0.6c-0.1-0.1-0.2-0.2-0.2-0.3c0-0.2,0.2-0.4,0.2-0.6
		C869.8,173.6,869.8,173.7,869.9,173.8z"/>
	<path d="M282.1,65.4c-0.3,0-0.6-0.1-0.3,0C281.6,65.1,281.8,65.3,282.1,65.4L282.1,65.4z"/>
	<path d="M281.3,169.2c-0.2,0.1-0.3,0.2-0.5,0.3c-0.1-0.2-0.2-0.4-0.2-0.5c0-0.1,0.3-0.2,0.4-0.3C281.2,168.8,281.3,169,281.3,169.2
		z"/>
	<path d="M300.2,156c0.1,0.1,0.2,0.2,0.4,0.3c-0.2,0.1-0.4,0.2-0.6,0.2c-0.1,0-0.2-0.1-0.2-0.2C299.9,156.2,300.1,156.1,300.2,156z"
		/>
	<path d="M253.1,61.8c-0.2-0.2-0.3-0.3-0.5-0.5c0,0,0.1-0.2,0.1-0.3c0.1,0.3,0.2,0.6,0.3,0.8L253.1,61.8z"/>
	<path d="M290.8,59c0-0.2,0-0.5,0-0.7c0-0.1,0.2-0.3,0.3-0.4c0,0.2,0.1,0.5,0.1,0.6C291.1,58.7,290.8,58.8,290.8,59L290.8,59z"/>
	<path d="M253.9,62.5c-0.3-0.2-0.5-0.5-0.8-0.7l-0.1,0.1C253.6,61.8,253.8,62.1,253.9,62.5L253.9,62.5z"/>
	<path d="M260.3,82.1c0.1,0.2,0.2,0.3,0.2,0.5c0,0.1-0.2,0.2-0.2,0.2l0.1,0.1C260.4,82.6,260.4,82.3,260.3,82.1L260.3,82.1z"/>
	<polygon points="277.9,169.9 278.1,169.9 278.1,170 	"/>
	<polygon points="878.1,173.9 878.1,173.8 878,173.9 	"/>
	<polygon points="878,173.9 877.9,174 878.1,173.9 	"/>
	<path d="M259.6,62.5c-0.3,0-0.5,0-0.8,0l-0.1,0.1C259.1,62.6,259.4,62.6,259.6,62.5L259.6,62.5z"/>
	<polygon points="260.3,64.7 260.1,64.6 260.2,64.7 	"/>
	<path d="M260.2,64.7c0.3,0.2,0.5,0.5,0.8,0.7l0,0C260.8,65.1,260.5,64.9,260.2,64.7L260.2,64.7z"/>
	<polygon points="261,65.4 261.2,65.6 261,65.4 	"/>
	<path d="M264,66.1c-0.5,0.1-0.7-0.2-0.7-0.7l-0.1,0.1C263.7,65.4,263.9,65.7,264,66.1L264,66.1z"/>
	<path d="M264.8,66.8c-0.6,0.2-0.8-0.2-0.8-0.7l-0.1,0.1C264.2,66.4,264.4,66.6,264.8,66.8L264.8,66.8z"/>
	<polygon points="269.8,69.1 269.6,69 269.7,69.1 	"/>
	<path d="M264,71.9c-0.6,0.1-0.8-0.2-0.8-0.7l-0.1,0.1C263.7,71.2,263.9,71.5,264,71.9L264,71.9z"/>
	<polygon points="263.2,77 263.3,76.9 263.1,76.9 	"/>
	<path d="M259.5,81.4c0.3,0.2,0.6,0.5,0.8,0.7l0.1-0.1C260.1,81.8,259.9,81.6,259.5,81.4L259.5,81.4z"/>
	<path d="M211.8,312c-0.6-0.1-1.1-0.2-1.5-0.4c-3.2-1.6-5.6-4.1-7.5-7.1c-3.4-5.6-4-11.8-3.1-18.1c0.1-0.7,0.5-1.3,1-2.5
		c0.2,4,0.1,7.4,0.5,10.7c0.4,3.5,2,6.7,4,9.6C207.1,306.8,209.4,309.2,211.8,312z"/>
	<path d="M209.4,321.5c-8.1-3.8-16.6-5-26-5.3c0.9-0.6,1.2-1,1.6-1.1c0.7-0.2,1.4-0.2,2.1-0.2c6.2,0.2,12.2,1.3,17.9,3.6
		C206.8,319.1,208.4,319.9,209.4,321.5z"/>
	<path d="M250.8,321.7c-0.9-1.3-0.4-2.5,0-3.8c1.6-5.6,3.6-10.4,5.7-13.5c0,0.4,0.1,0.8,0,1.1C254.6,310.9,252.7,316.3,250.8,321.7z
		"/>
	<path d="M208,312.3c0,1.1-0.3,1.8-1.1,1.8c-2.7,0.1-5.4,0.5-8.3-0.8c0.5-0.3,0.7-0.5,0.9-0.5c2.5-0.3,4.9-0.6,7.4-0.9
		C207.2,311.9,207.5,312.1,208,312.3z"/>
	<path d="M182.6,428.6c-0.1,0.3-0.2,0.7-0.3,1c-1.3,2.8-2.6,5.6-3.9,8.4c0,0.1-0.2,0.1-0.4,0.2c-0.1-0.3-0.3-0.7-0.3-1
		c0.5-3.2,1.8-6.1,3.7-8.8C181.7,428.1,181.7,428.2,182.6,428.6z"/>
	<path d="M214.2,313.1c3.8-2.5,7.2-3.9,10.3-4.1c0,0.2,0,0.5-0.1,0.6C220.3,311.7,216.7,313,214.2,313.1z"/>
	<path d="M171.9,409c0.3,0.5,0.5,0.7,0.5,0.8c-0.2,2-1.1,3.8-2.3,5.5c-0.3,0.4-0.8,0.6-1.2,0.2c-0.2-0.2-0.3-0.6-0.4-0.9
		c0-0.1,0-0.2,0-0.3C169.4,412.5,170.2,410.6,171.9,409z"/>
	<path d="M191.6,410.9c0.1,1.3,0.2,1.8,0.1,2.2c-0.6,1.9-1.2,3.9-1.9,5.8c-0.2,0.5-0.7,1-1.6,0.5c0-0.3-0.1-0.8,0.1-1.2
		C189.1,416,189.5,413.6,191.6,410.9z"/>
	<path d="M263.2,286.7c-0.7-0.1-1.4-0.2-2.3-0.3c-0.4,0.8-0.7,1.7-1.2,2.9c0-1.4,0-2.5,0-3.7c-1.8-0.7-3.5-1.4-5.3-2.2
		c1.5-0.6,2.6,0.1,3.6,0.5c1.2,0.5,2.5,0.8,3.8,0.7l-0.1-0.1C262.2,285.3,262.7,286.1,263.2,286.7L263.2,286.7z"/>
	<path d="M261.8,284.6c0.3-1.9,0.6-3.7,0.8-5.6c0.1-1.3,0.3-2.5,1.1-3.9c0.6,1.1-0.1,1.8-0.2,2.5c-0.1,0.9-0.2,1.9-0.3,2.8
		c-0.1,0.8-0.1,1.7-0.3,2.5C262.8,283.6,262.6,284.4,261.8,284.6L261.8,284.6z"/>
	<path d="M176.5,495.4c-0.4,1.1-0.8,2-1.2,3c-1-0.3-0.9-1-0.8-1.5c0.2-0.7,0.6-1.3,1-1.8C175.5,495,176,495.3,176.5,495.4z"/>
	<path d="M172.5,511.7c-0.8-1.6-0.6-2.9-0.2-4.1c0.7-0.2,1,0.1,1,0.6C173.4,509.3,173.6,510.5,172.5,511.7z"/>
	<path d="M201.6,275.1c0.4,1.9-0.8,3.4-1.1,5.1C200.1,278.3,200.7,276.7,201.6,275.1L201.6,275.1z"/>
	<path d="M266.7,262.7c-0.2,1.2-0.5,2.5-0.8,4.1c-0.6-2.3-0.6-2.3,0.9-4L266.7,262.7z"/>
	<path d="M193.4,312.4c0.9,0,1.7,0,2.5,0C194.9,313.7,194.8,313.7,193.4,312.4z"/>
	<path d="M174.5,502.3c-0.4,0.9-0.8,1.7-1.3,2.8C172.6,502.5,172.8,502.2,174.5,502.3z"/>
	<path d="M173.4,448.2c0.6,1,0.4,1.7-0.3,2.3C172.7,449.7,172.7,449,173.4,448.2z"/>
	<path d="M207.8,264.6c0-0.4-0.1-0.8,0-1c0-0.1,0.4-0.2,0.5-0.3c0,0.2,0.1,0.4,0,0.6C208.2,264.1,208,264.3,207.8,264.6z"/>
	<path d="M235.7,309.2c-0.3,0.1-0.5,0.3-0.8,0.4c0,0-0.3-0.4-0.3-0.5c0.2-0.2,0.5-0.4,0.8-0.5C235.5,308.8,235.6,309,235.7,309.2z"
		/>
	<path d="M193.2,405.4c-0.2-0.4-0.4-0.6-0.3-0.7c0.1-0.4,0.4-0.8,1-0.6c0.1,0,0.2,0.2,0.2,0.2C193.8,404.7,193.5,405,193.2,405.4z"
		/>
	<path d="M174.6,445.5c0-0.4,0-0.8,0-1.2c0.1,0,0.2,0,0.3,0c0,0.4,0,0.8,0,1.2C174.8,445.5,174.7,445.5,174.6,445.5z"/>
	<path d="M174.2,453.8c0.2,0.3,0.3,0.4,0.4,0.5c-0.3,0.2-0.5,0.4-0.8,0.6c-0.1-0.1-0.2-0.2-0.2-0.3
		C173.9,454.3,174.1,454.1,174.2,453.8z"/>
	<path d="M232.4,309c-0.5,0.3-0.8,0.4-1.1,0.5c-0.1,0-0.4-0.2-0.4-0.3c0-0.2,0.2-0.4,0.3-0.5C231.4,308.6,231.6,308.8,232.4,309z"/>
	<path d="M191.3,311.8c0.1,0.1,0.3,0.3,0.4,0.4c-0.2,0.1-0.3,0.2-0.5,0.2c0,0-0.2-0.2-0.2-0.2C191.1,312.1,191.2,311.9,191.3,311.8z
		"/>
	<path d="M175.1,401.3c0,0.1,0.1,0.2,0,0.3c-0.1,0.1-0.2,0.2-0.3,0.2c0-0.1-0.1-0.3-0.1-0.4C174.9,401.4,175,401.4,175.1,401.3z"/>
	<path d="M191.9,409.5c0-0.4,0-0.8,0-1.2c0.1,0,0.3,0,0.4,0c0,0.4,0,0.8-0.1,1.2C192.1,409.5,192,409.5,191.9,409.5z"/>
	<polygon points="213.6,403.8 213.7,403.8 213.6,404.1 	"/>
	<path d="M256.8,291.1c0.2,0.1,0.4,0.2,0.7,0.2C257.2,291.2,257.1,291.1,256.8,291.1L256.8,291.1z"/>
	<path d="M256.9,291c-0.3-0.1-0.6-0.1-0.4-0.1C256.3,290.8,256.5,290.9,256.9,291L256.9,291z"/>
	<path d="M264.7,287.4c-0.5-0.2-1-0.4-1.5-0.7l-0.1,0.1C263.7,286.8,264.3,286.8,264.7,287.4L264.7,287.4z"/>
	<path d="M201.7,275.2c0.1-0.1,0.1-0.1,0.2-0.2C201.8,275.1,201.7,275.1,201.7,275.2L201.7,275.2z"/>
	<polygon points="264.6,287.5 264.8,287.5 264.7,287.4 	"/>
	<path d="M278.5,185.5c0.7,0.8,1,1,1.1,1.3c0.4,2.5,0.1,5-0.9,8C277.8,191.5,278.4,188.8,278.5,185.5z"/>
	<path d="M230.8,178.2c1,3.8,1.1,7.7,0.4,11.2c-0.8-1.3-0.8-1.3-0.8-5.1C230.4,182.5,230.2,180.7,230.8,178.2z"/>
	<path d="M230.3,166.1c0.6,1.6,0.6,3-0.1,4.7C229.6,169.1,229.5,167.7,230.3,166.1z"/>
	<path d="M278.4,203.3c-0.1,0.5-0.1,0.9-0.2,1.4c-0.1,0-0.3,0-0.4,0c0-0.5-0.1-1-0.1-1.4C277.9,203.3,278.2,203.3,278.4,203.3z"/>
	<path d="M229.5,161.6c0-0.1-0.1-0.2-0.1-0.3c0,0,0.1-0.1,0.2-0.1c0,0.1,0.1,0.2,0.1,0.3C229.7,161.6,229.6,161.6,229.5,161.6z"/>
	<path d="M270.4,239.9c-1.2-0.7-1.2-1.7-1.3-2.7c-0.2-1.8,0-2.4,0.8-4.4C271.1,234.4,271.2,236.2,270.4,239.9z"/>
	<path d="M226.7,232.7c0.3-0.6,0.6-1.2,0.9-1.8c0.2-0.4,0.5-0.7,0.8-1.1C229.2,231.1,229.2,231.1,226.7,232.7z"/>
	<path d="M224.4,237.9c-0.2-0.3-0.3-0.4-0.3-0.5c-0.1-0.6,0.1-1.2,0.7-1.4c0.1,0,0.2,0,0.3,0.1c0.5,0.6,0,1.1-0.3,1.5
		C224.8,237.7,224.7,237.7,224.4,237.9z"/>
	<path d="M222.6,239.6c0,0.4,0,0.9-0.1,1.3c-0.1,0.3-0.4,0.5-0.7,0.9C221.5,240.6,221.5,240.6,222.6,239.6L222.6,239.6z"/>
	<path d="M268.6,228.6c-0.1-0.4-0.2-0.7-0.2-1c0-0.2,0.2-0.4,0.4-0.6c0.1,0.4,0.2,0.7,0.3,1C269,228.2,268.8,228.3,268.6,228.6z"/>
	<polygon points="222.7,239.7 222.9,239.6 222.6,239.6 	"/>
	<path d="M181.8,575.5c2.8,0.5,5.4,1,8,1.4c2.6,0.4,5.1,0.5,7.7,0.8c-0.2,0.9-0.9,0.9-1.4,0.9C191.8,578.8,185.6,577.5,181.8,575.5z
		"/>
	<path d="M157.9,540.3c1.2-4,3-7.8,4.9-11.6c0.1-0.1,0.4-0.2,0.6-0.2c0.1,0.2,0.4,0.4,0.3,0.6c-1.4,4-3.1,7.8-5.3,11.4
		c-0.1,0.1-0.2,0.1-0.3,0.2C158.1,540.6,158,540.5,157.9,540.3z"/>
	<path d="M157.7,544.5c-0.7,2.2-1.1,4.4-2.6,6.3c-0.3-0.6-0.6-0.9-0.5-1.1c0.7-1.6,1.5-3.2,2.3-4.8
		C157,544.6,157.4,544.6,157.7,544.5z"/>
	<path d="M241.9,91.3c0-0.8,0-1.6,0-2.4c0,0,0,0,0,0C241.9,89.7,241.9,90.5,241.9,91.3C241.9,91.3,241.9,91.3,241.9,91.3z"/>
	<path d="M241.1,98.6c0-0.6,0-1.3,0-1.9c0,0,0.1,0,0.1,0c0,0.6,0.1,1.3,0.1,1.9C241.2,98.6,241.2,98.6,241.1,98.6z"/>
	<path d="M239.3,40.2c0.3-0.5,0.5-1,0.8-1.6C239.8,39.1,239.6,39.7,239.3,40.2z"/>
	<path d="M236.4,43.8c0.3-0.5,0.5-1.1,0.8-1.6C237,42.8,236.7,43.3,236.4,43.8z"/>
	<path d="M235,46c0.3-0.5,0.5-1,0.8-1.6C235.5,44.9,235.2,45.4,235,46z"/>
	<path d="M234.3,47.4c0-0.5,0-1,0-1.6c0.3,0,0.5,0,0.8,0C234.8,46.4,234.5,46.9,234.3,47.4z"/>
	<path d="M241.5,37.3c0.3-0.3,0.6-0.6,0.8-0.8C242,36.7,241.8,37,241.5,37.3z"/>
	<path d="M240.8,38c0.3-0.3,0.5-0.5,0.8-0.8C241.3,37.4,241,37.7,240.8,38z"/>
	<path d="M240,38.7c0.3-0.3,0.5-0.5,0.8-0.8C240.6,38.2,240.3,38.4,240,38.7z"/>
	<path d="M238.6,40.9c0.3-0.3,0.5-0.5,0.8-0.8C239.1,40.4,238.9,40.6,238.6,40.9z"/>
	<path d="M237.9,41.6c0.3-0.3,0.6-0.5,0.8-0.8C238.4,41.1,238.1,41.3,237.9,41.6z"/>
	<path d="M237.1,42.3c0.3-0.3,0.6-0.5,0.8-0.8C237.7,41.8,237.4,42.1,237.1,42.3z"/>
	<path d="M235.7,44.5c0.3-0.3,0.6-0.5,0.8-0.8C236.2,44,236,44.2,235.7,44.5z"/>
	<path d="M310,186.5c0,0.6,0,1.1,0,1.6C309,187.6,308.9,187.1,310,186.5z"/>
	<path d="M314.6,193.5c-0.1,0.2-0.1,0.5-0.2,0.7c-0.1,0.2-0.3,0.3-0.6,0.4c-0.1-0.7,0.1-1.1,0.9-1L314.6,193.5z"/>
	<path d="M314.7,193.6c0-0.2-0.1-0.4-0.1-0.6c0-0.1,0.2-0.2,0.4-0.3c0,0.1,0.1,0.2,0,0.3c-0.1,0.2-0.3,0.3-0.4,0.5L314.7,193.6z"/>
	<polygon points="311.3,199.4 311.4,199.7 311.2,199.6 	"/>
	<path d="M151.3,525.5c-0.2,0.6-0.4,1.3-0.6,1.9c-0.7,1.8-1.6,3.5-2.3,5.3c-0.3,0.7-0.8,1.6-0.6,2c0.9,1.8-0.4,2.9-1,4.3
		c-0.5,1.2-0.9,2.4-1.3,3.6c-0.9,0-0.8-0.6-0.8-1c0-0.5,0.1-1,0.3-1.4c1.2-2.2,1.7-4.7,2.2-7.2c0.6-2.8,1.8-5.4,3.4-7.8
		C150.9,525.3,151.1,525.4,151.3,525.5z"/>
	<path d="M681.3,315.7c-0.4-0.2-0.8-0.3-1.2-0.5c-3-2.2-5-5.1-6.4-8.5c-2.2-5.6-2-11.3-0.6-17c0.2-1,0.6-2,1.9-3.3
		c-0.9,5.6-1.9,10.6-0.5,15.6C675.8,307,678.3,311.3,681.3,315.7z"/>
	<path d="M718.3,331.2c-0.5-0.9,0-1.6,0.4-2.4c2-5,5.7-11.1,8.4-14.1c0,0.2,0.2,0.5,0.1,0.6c-2.7,5.2-5.5,10.4-8.3,15.6
		C718.8,331.1,718.5,331.1,718.3,331.2z"/>
	<path d="M629.2,435.9c-0.2-2.2,0.8-3.5,1.5-4.8c1-1.8,2-3.6,3.7-4.8c0.1-0.1,0.4,0.1,0.6,0.2C634.6,428.2,631.5,433.2,629.2,435.9z
		"/>
	<path d="M668.4,315.1c3.1-1,6,0.2,8.7-0.2c0.6,1.4,0.4,2.2-0.6,2.1c-1.7-0.1-3.3-0.4-5-0.7C670.5,316.3,669.5,315.9,668.4,315.1z"
		/>
	<path d="M694.6,314.9c-4.3,1.9-8.2,2.8-10.3,2.4c0.3-0.3,0.4-0.7,0.7-0.7C688.2,315.8,691.2,314.4,694.6,314.9z"/>
	<path d="M736.2,294.7c0,0.4,0,0.8-0.2,1c-0.8,0.9-0.6,1.7,0.2,2.5l0.1-0.1c-0.7-0.1-1.4-0.1-2.3-0.2c-0.3,0.5-0.8,1.1-1.4,2
		c0.2-1.1,0.3-1.9,0.4-2.8c-1.3-1.5-3.5-1.9-5.2-3.4c1.4-0.2,2.3,0.4,3.2,0.9c0.9,0.5,1.9,1,3,1.6
		C734.7,295.7,735.5,295.3,736.2,294.7L736.2,294.7z"/>
	<path d="M646.5,411.4c0.1,0.1,0.2,0.2,0.2,0.3c-0.3,2.7-1.8,4.9-3.3,7c-0.1,0.2-0.6,0.1-0.9,0.1c-0.1,0-0.3-0.5-0.2-0.6
		c0.9-1.8,1.8-3.6,2.8-5.4C645.3,412.1,645.6,411.4,646.5,411.4z"/>
	<path d="M623.5,411.4c0.9-2.7,1.9-3.8,4.3-5.3c0.1,0.3,0.3,0.7,0.2,0.9c-0.5,1.7-1.6,3.2-2.7,4.5C624.9,412,624.5,412,623.5,411.4z
		"/>
	<path d="M736.3,294.8c0.2-3.6,0.8-5.6,2.8-8c-0.5,1.2-0.7,1.8-0.9,2.4c-0.2,0.7-0.4,1.4-0.6,2c-0.2,0.6-0.3,1.1-0.5,1.7
		C736.9,293.5,737,294.3,736.3,294.8L736.3,294.8z"/>
	<path d="M613.9,503c0.2,1.7,0.5,3.1-1.1,4.4C612.5,505.7,612.2,504.2,613.9,503z"/>
	<path d="M617.2,494.9c-0.2-2.7,0.1-3.1,1.9-3.2C618.7,492.9,618.4,494.1,617.2,494.9z"/>
	<path d="M616.1,498c0,0.5,0,0.8-0.1,0.9c-0.3,0.5-0.6,1-0.9,1.7c-0.3-0.2-0.7-0.4-0.7-0.6C614.3,499.1,614.5,498.1,616.1,498z"/>
	<path d="M663.7,313.5c0.6,0,1.2,0.1,1.7,0.2c0.2,0,0.4,0.4,0.4,0.5c-0.2,0.2-0.5,0.6-0.7,0.6c-0.5-0.1-1.1-0.3-1.6-0.5
		C663.6,313.9,663.6,313.7,663.7,313.5z"/>
	<path d="M741.6,279.1c0.1-1.7,0.1-1.7,1.2-3C742.7,277.6,742.7,277.6,741.6,279.1z"/>
	<path d="M648.9,405.5c0-0.4,0-0.6,0.1-0.7c0.4-0.3,0.7-0.5,1.1-0.7c0,0,0.2,0.2,0.2,0.2c-0.3,0.4-0.6,0.7-0.9,1.1
		C649.4,405.5,649.2,405.4,648.9,405.5z"/>
	<path d="M676.2,280.2c0.1,1-0.3,1.9-1.2,2.9C675,281.7,675.2,280.8,676.2,280.2L676.2,280.2z"/>
	<path d="M647.4,409.7c0-0.7-0.1-1.1,0-1.3c0.1-0.2,0.4-0.3,0.7-0.5c0,0.3,0.1,0.6,0.1,0.9C648,409,647.8,409.2,647.4,409.7z"/>
	<path d="M705.8,316.8c-0.3,0.1-0.6,0.2-0.9,0.2c-0.1,0-0.1-0.3-0.2-0.5c0.3-0.1,0.6-0.3,0.8-0.3
		C705.5,316.1,705.6,316.5,705.8,316.8z"/>
	<path d="M623.3,445.1c-0.1,0.6-0.1,1.2-0.2,2.1C622.5,446.2,622.3,445.5,623.3,445.1L623.3,445.1z"/>
	<path d="M625.4,441.1c0,0.5,0,0.9-0.1,1.4c-0.1,0-0.3,0-0.4,0c0-0.5,0-0.9,0.1-1.4C625.1,441.1,625.3,441.1,625.4,441.1z"/>
	<path d="M623.3,450.3c0.2,0.2,0.3,0.4,0.4,0.5c-0.3,0.2-0.5,0.4-0.8,0.6c-0.1-0.1-0.2-0.2-0.2-0.3
		C622.9,450.9,623.1,450.6,623.3,450.3z"/>
	<path d="M661.6,313.3c-0.2-0.1-0.3-0.2-0.5-0.3c0.1-0.1,0.3-0.2,0.4-0.3c0.1,0.2,0.3,0.3,0.4,0.5
		C661.8,313.2,661.7,313.2,661.6,313.3z"/>
	<path d="M631.9,398.9c-0.1,0.1-0.1,0.2-0.2,0.3c0-0.1-0.1-0.2-0.1-0.3c0-0.1,0.1-0.2,0.2-0.3C631.8,398.7,631.8,398.8,631.9,398.9z
		"/>
	<path d="M701.8,315.9c-0.1,0.1-0.2,0.4-0.3,0.4c-0.2,0-0.4-0.2-0.6-0.3c0.1-0.1,0.2-0.2,0.3-0.2
		C701.4,315.7,701.6,315.8,701.8,315.9z"/>
	<path d="M676.9,278.8c0-0.2,0-0.4,0.1-0.6c0-0.1,0.1-0.2,0.1-0.3c0.1,0.2,0.2,0.4,0.2,0.5C677.2,278.5,677,278.6,676.9,278.8
		L676.9,278.8z"/>
	<path d="M676.8,278.7c0.1,0.6,0,1.2-0.7,1.5l0.1,0.1C676.1,279.6,676.1,279,676.8,278.7L676.8,278.7z"/>
	<polygon points="623.4,445.2 623.5,444.9 623.3,445.1 	"/>
	<path d="M684.8,267.9c-0.1,0.1-0.1,0.3-0.2,0.4c0-0.1,0-0.1,0-0.2C684.7,268,684.8,268,684.8,267.9L684.8,267.9z"/>
	<path d="M684.9,268c0.1-0.2,0.2-0.4,0.3-0.6C685.6,268,685.1,267.9,684.9,268L684.9,268z"/>
	<polygon points="730.5,302.7 730.6,302.8 730.5,302.6 	"/>
	<polygon points="730.5,302.6 730.3,302.5 730.5,302.7 	"/>
	<path d="M736.9,299.1c0.1,0.1,0.2,0.2,0.4,0.2c-0.1,0-0.1,0-0.2-0.1C737,299.2,737,299.1,736.9,299.1L736.9,299.1z"/>
	<path d="M737,299c-0.5-0.1-0.8-0.3-0.7-0.8l-0.1,0.1C736.4,298.5,736.7,298.8,737,299L737,299z"/>
	<path d="M719.2,197.9c-0.6-2.4-0.5-4.8,0.6-10.1c0.1-0.4,0.4-0.7,1-1.7C720.9,190.5,720.4,194.1,719.2,197.9z"/>
	<path d="M765.3,209.3c-0.1-2.8,0.4-5.5,1.5-8.8C767.5,204.2,767.2,205.9,765.3,209.3z"/>
	<path d="M721.2,174.9c1,1.2,0.6,2.4,0.4,3.6c-0.9,0.1-0.9-0.5-0.8-0.9C720.9,176.6,721,175.8,721.2,174.9z"/>
	<path d="M763,218c1.1,0.9,0.6,1.4,0.4,2C762.4,219.2,763.1,218.8,763,218z"/>
	<path d="M789.8,63.2c-0.1,0.6,0.2,0.8,0.7,0.7c0.5,0.7,0.9,1.3,1.4,2c1.6,2.1,3.2,4.2,4.7,6.3c0.4,0.6,0.8,1.2,0.1,2.1
		c-1.2-1-1.8-2.5-2.7-3.6c-1-1.2-1.9-2.5-2.9-3.6c-1-1.2-2.2-2.3-3.3-3.3c-1.2-1-2.4-2-3.7-3c1.1-0.8,1.8,0.6,2.7,0.4
		C787.5,62.3,788.4,63,789.8,63.2z"/>
	<path d="M773.8,100.9c-0.2-0.3-0.6-0.5-0.6-0.8c0-1.3,0.1-2.5,0.1-3.8c1.6-0.1,1.6-0.1,1.4-1.7c0.2-0.1,0.4-0.3,0.6-0.4
		c0.3-0.1,0.7-0.2,1-0.3c1.1,1.2,1.2,1.6,0.7,2.4c-0.3,0.5-0.9,0.8-1.2,1.3c-0.6,0.8-0.5,1.5,0.3,2.4c0.7,0.9,0.8,1.4,0.3,2.1
		c-0.2,0.3-0.4,0.6-0.7,0.8c-0.4,0.3-0.8,0.6-1.2,0.6c-0.5-0.1-1-0.5-1.5-0.7l0.1,0.1C773.3,102.2,773.5,101.6,773.8,100.9
		c0-0.2,0.1-0.2,0.1-0.3C773.9,100.7,773.9,100.8,773.8,100.9z"/>
	<path d="M771.6,92.2c1-0.1,1.2-1.1,1.7-1.7c0.6-0.9,1-2,2.3-2.4c0.5,0.5,1.2,1,1.7,1.6c0.3,0.3,0.6,0.7,1,1.2
		c-1.4,0.7-1.9-1-3.2-0.7c-1.2,1.1-2.1,2.6-2.1,4.5c-1.9-0.4-1.4-1.6-1.4-2.6L771.6,92.2z"/>
	<path d="M792.5,74.9c-0.2,0-0.5,0-0.7-0.1c-4-1.8-8.1-3.7-12.4-5.6c0.9,0.1,1.7,0.1,2.4,0.3c3.3,0.9,6.3,2.2,9.3,3.9
		c0.6,0.3,1,0.9,1.5,1.4L792.5,74.9z"/>
	<path d="M765.9,80.6c-0.1,0-0.3,0-0.3-0.1c-1.6-2.1-3.6-6.1-4.5-9.2c0.6,0.8,1,1.2,1.2,1.7c1.1,2,2.2,4,3.2,6
		C765.7,79.5,765.7,80.1,765.9,80.6L765.9,80.6z"/>
	<path d="M750.7,118.5c-0.2-1.7-0.2-3.3,1-5.1C752.7,115.9,751.7,117.2,750.7,118.5z"/>
	<path d="M768.8,85.6c-1.8-1.6-2.4-2.6-2.9-5l-0.1,0.1C767.5,81.9,768.2,83.8,768.8,85.6L768.8,85.6z"/>
	<path d="M771,82c-1.5-1.1-2.4-2.6-2.9-4.3l-0.1,0.1C769.8,78.6,770.4,80.3,771,82L771,82z"/>
	<path d="M759.9,75c0.1,0,0.3-0.1,0.3,0c1.1,0.9,1.9,2,1.9,3.5l0.1-0.1c-0.3-0.2-0.7-0.2-0.8-0.5C761,76.9,760.5,75.9,759.9,75
		L759.9,75z"/>
	<path d="M748,124.4c0-1,0-1.7,0-2.5C749.2,122.6,749.2,122.6,748,124.4z"/>
	<path d="M744.8,127.7c0.4-0.2,0.8-0.4,1.5-0.6c-0.1,0.7-0.2,1.2-0.2,1.7c-1.1,0.1-0.9-0.7-1.2-1.1L744.8,127.7z"/>
	<path d="M760.8,102.3c-0.3-0.6-0.5-1.3-0.8-2c0.9-0.4,1.2,0.4,1.6,0.6l-0.1-0.1C761.6,101.5,761.6,102.2,760.8,102.3L760.8,102.3z"
		/>
	<path d="M774.5,123.1c-0.1,0.2-0.2,0.6-0.5,0.8c-0.1,0.1-0.4-0.1-0.6-0.1c0.1-0.4,0.2-0.8,0.4-1.1c0.1-0.1,0.3-0.2,0.5-0.3
		C774.3,122.6,774.4,122.8,774.5,123.1z"/>
	<path d="M770.2,87.8c-1.1-0.3-1.6-1.1-1.4-2.2l-0.1,0.1C769.6,86.2,770.1,86.9,770.2,87.8L770.2,87.8z"/>
	<path d="M760.7,102.2c0,0.6,0.1,1.3-0.7,1.6l0.1,0.1C760.3,103.3,760.6,102.8,760.7,102.2L760.7,102.2z"/>
	<path d="M761.6,100.9c0.2-0.5,0.4-1,0.7-1.5l-0.1-0.1C762.1,99.9,762.2,100.6,761.6,100.9L761.6,100.9z"/>
	<path d="M759.4,73.4c0.6,0.4,0.8,0.9,0.6,1.6l0.1-0.1C759.8,74.4,759.6,73.9,759.4,73.4L759.4,73.4z"/>
	<path d="M763.7,95.1c0.4,0.3,0.8,0.5,0.2,1.3c0-0.6-0.1-1-0.1-1.4L763.7,95.1z"/>
	<path d="M787.6,84.2c0.3,0.1,0.6,0.2,0.3,0.1C788.1,84.5,787.9,84.3,787.6,84.2L787.6,84.2z"/>
	<path d="M787.7,84.1c-0.3-0.1-0.6-0.1-0.6-0.1C787.1,84,787.4,84.1,787.7,84.1L787.7,84.1z"/>
	<path d="M762.2,78.5c0.9,0.2,0.9,0.8,0.7,1.5l0.1-0.1C762.1,79.7,762.1,79.1,762.2,78.5L762.2,78.5z"/>
	<path d="M770.9,82.1c0.8,0.3,0.7,0.9,0.6,1.6l0.1-0.1C771.4,83,771.2,82.5,770.9,82.1L770.9,82.1z"/>
	<polygon points="771.5,83.6 771.7,83.6 771.6,83.6 	"/>
	<polygon points="775.4,84.2 775.2,84.1 775.3,84.3 	"/>
	<path d="M767.3,91.5c0.1-0.1,0.1-0.2,0.2-0.3c0,0,0.1,0,0.2,0C767.5,91.3,767.4,91.3,767.3,91.5L767.3,91.5z"/>
	<path d="M767.2,91.4c0.2,0.6-0.2,0.8-0.7,0.8l0.1,0.1C766.6,91.7,766.9,91.5,767.2,91.4L767.2,91.4z"/>
	<path d="M766.6,92.2c-0.1,0.1-0.2,0.2-0.3,0.4c0-0.1,0-0.2,0.1-0.2C766.4,92.2,766.5,92.2,766.6,92.2L766.6,92.2z"/>
	<path d="M762.2,99.5c0.1-0.1,0.1-0.1,0.2-0.2C762.3,99.3,762.2,99.3,762.2,99.5L762.2,99.5z"/>
	<polygon points="759.4,73.4 759.3,73.3 759.4,73.4 	"/>
	<polygon points="766.6,77 766.5,77.1 766.7,77 	"/>
	<path d="M750.5,253.9c-1.4-1.8-1.1-3.1-0.8-4.4c0.2-1.1,0.2-2.4,1.6-3.3C751.9,248.8,751.3,251,750.5,253.9z"/>
	<path d="M710.5,236.9c0.3,1.7,0.3,1.7-1.8,3.3c-0.6-0.3-0.3-0.8,0-1.1C709.2,238.4,709.8,237.7,710.5,236.9z"/>
	<path d="M701.6,247.2c0.5-0.4,1-0.9,1.6-1.4c0.4,1.4-0.7,1.4-1,1.9C702,247.6,701.8,247.4,701.6,247.2z"/>
	<path d="M750.3,242.1c0-0.5,0-0.9,0-1.2c0,0,0.5-0.1,0.5,0c0.1,0.3,0.2,0.6,0.2,0.9C751,241.8,750.7,241.9,750.3,242.1z"/>
	<path d="M706.5,243.1c-0.3,0.5-0.6,0.9-1.1,1.6C704.9,243.5,705.1,243,706.5,243.1z"/>
	<polygon points="713,233.8 713,234 713.1,233.9 	"/>
	<path d="M613.2,572.5c0.6,0.1,1.2,0,1.7,0.2c3.9,1.6,7.9,2.6,12,3.4c0.2,0,0.4,0.2,0.7,0.5c-0.3,0.2-0.5,0.6-0.7,0.6
		C622.1,576.5,617.4,575.3,613.2,572.5L613.2,572.5z"/>
	<path d="M594.6,534.1c-0.2-0.7-0.1-1.4,0.3-2.1c1.9-3,3.8-6.1,5.8-9.1c0.1-0.2,0.4-0.2,0.6-0.3c0.1,0.2,0.3,0.5,0.3,0.6
		C599.7,527.2,597.2,530.7,594.6,534.1L594.6,534.1z"/>
	<path d="M589.5,543.5c-0.1-2.6,1.8-3.8,2.7-5.4c0.2-0.4,0.7-0.6,1.4,0C592.4,539.8,591.6,541.9,589.5,543.5z"/>
	<path d="M613.3,572.4c-0.3-0.1-0.6-0.2-1-0.3C612.9,571.7,613.2,571.9,613.3,572.4L613.3,572.4z"/>
	<polygon points="594.5,534.1 594.4,534.2 594.6,534.1 	"/>
	<path d="M741.3,121.1c-0.2-1.9,1.2-3.3,1.9-5.1c0,0.5,0.2,1,0,1.4C742.6,118.7,742.6,120.3,741.3,121.1
		C741.2,121.1,741.3,121.1,741.3,121.1z"/>
	<path d="M735.4,98.1c0.1-1.3,0.1-2.6,0.2-3.9c0.1-0.7,0.4-1.3,0.6-2c-0.1,1.4-0.1,2.9-0.2,4.3C736,97,735.6,97.5,735.4,98.1z"/>
	<path d="M744.9,56.1c0.1-1,0.7-1.7,1.5-2.3C745.9,54.6,745.4,55.3,744.9,56.1z"/>
	<path d="M742,111.1c-0.3,0.7,0.1,1.6-0.8,2.1l0.1,0.1C741.4,112.5,741.3,111.7,742,111.1L742,111.1z"/>
	<path d="M742.1,111.1c0.1-0.5,0.1-1,0.2-1.7C742.7,110.2,742.2,110.6,742.1,111.1L742.1,111.1z"/>
	<path d="M743,107.4c0-0.2,0-0.5,0-0.7c0,0,0.1,0,0.1,0C743.1,106.9,743.1,107.2,743,107.4C743.1,107.4,743.1,107.4,743,107.4z"/>
	<path d="M744.4,101.5c0-0.2,0-0.4,0.1-0.6C744.5,101.2,744.5,101.4,744.4,101.5z"/>
	<polygon points="743.7,104.7 743.7,104.4 743.9,104.4 	"/>
	<path d="M749.2,51c0.5-0.3,1-0.5,1.6-0.8C750.2,50.5,749.7,50.7,749.2,51z"/>
	<path d="M741.3,122.6c-0.3,0-0.6,0-0.8,0c0-0.6,0-1.3,0.8-1.5c0,0-0.1-0.1-0.1-0.1C741.3,121.6,741.3,122.1,741.3,122.6z"/>
	<path d="M750.6,50.3c0.3-0.3,0.5-0.5,0.8-0.8C751.2,49.8,750.9,50,750.6,50.3z"/>
	<path d="M747.7,52.5c0.3-0.3,0.6-0.6,0.8-0.8C748.3,51.9,748,52.2,747.7,52.5z"/>
	<path d="M748.4,51.7c0.3-0.3,0.5-0.5,0.8-0.8C749,51.2,748.7,51.5,748.4,51.7z"/>
	<path d="M747,53.2c0.3-0.3,0.6-0.6,0.8-0.8C747.5,52.6,747.3,52.9,747,53.2z"/>
	<path d="M746.3,53.9c0.3-0.3,0.6-0.6,0.8-0.8C746.8,53.4,746.6,53.6,746.3,53.9z"/>
	<path d="M744.1,56.8c0.3-0.3,0.6-0.5,0.8-0.8C744.7,56.3,744.4,56.5,744.1,56.8z"/>
	<path d="M743.4,57.5c0-0.3,0-0.5,0-0.8c0.3,0,0.6,0,0.8,0C743.9,57,743.7,57.3,743.4,57.5z"/>
	<path d="M752.1,48.8c0.3-0.3,0.6-0.6,0.8-0.8C752.6,48.3,752.3,48.6,752.1,48.8z"/>
	<path d="M751.3,49.6c0.3-0.3,0.5-0.6,0.8-0.8C751.9,49,751.6,49.3,751.3,49.6z"/>
</g>
</svg>
