<?xml version="1.0" encoding="utf-8"?>
<!-- Generator: Adobe Illustrator 19.1.0, SVG Export Plug-In . SVG Version: 6.00 Build 0)  -->
<svg version="1.2" baseProfile="tiny" id="Layer_2" xmlns="http://www.w3.org/2000/svg" xmlns:xlink="http://www.w3.org/1999/xlink"
	 x="0px" y="0px" width="900px" height="600px" viewBox="144 97 900 600" xml:space="preserve">
<g>
	<path d="M322.1,164.2c-1.3,3.4-2.5,6.7-3.9,10.1c-4,10-4.1,20-0.9,30.2c0.2,0.7,0.5,1.4,0.5,2.1c0,5.7,2.9,9.8,7.1,13.3
		c2.4,1.9,3.4,4.9,5.3,7.3c1.1,1.3,0.8,3.1,0.6,4.6c-1.2,7,0.9,13.1,4.8,18.8c3.7,5.5,6.9,11.3,11.3,16.4c2.5-0.6,4.8-1.4,7-2.5
		c1.9-1,3.5-2.3,4.3-4.2c1.4-3.8,4.1-5.8,7.9-6.8c0.6-0.1,1.1-0.4,1.7-0.7c3-4.2,6-8.4,11.9-8.7c-0.2-1.7-1.4-1.6-2.3-1.7
		c-1.8,0-3.5-0.4-5.1-0.9c-4.9-1.7-8.7-7.4-8.3-12.6c0.2-2.5,1.8-4.2,3.6-5.7c1.9-1.6,3.9-3,5.8-4.5s3.9-3,5.9-4.6
		c0-1.8-2.1-2.2-2.3-4.4c-3.8,3.1-7.8,4.3-11.8,5.4c-0.7,0.2-1.4,0.5-2,0.9c-5.5,4.5-12.5,4.1-18.9,5.6c-1.1,0.3-2.3,0.2-3.1-0.9
		c1.3-3.1,1.3-3.1,7.2-6.5c-0.2,2.6-2.9,2.6-4.4,4.7c6.3-0.9,12.1-1.3,17-4.9c0.8-0.6,1.8-1,2.7-1.4c3.9-1.4,7.5-3,10.3-6.1
		c1.4-1.5,3.2-2.6,5.4-2.3c1.5,0.2,2.5-0.5,3.2-1.9c-0.7-0.9-2.2-0.6-3-2.1c-0.5-3.2-3-5.9-4.8-9c-1.3-2.2-1.3-4.1-0.4-6.2
		c1.6-3.5,4.5-6,7.2-8.6c1.8-1.7,4.4-0.9,7.4-1.3c-3.5-2.4-6-5-8.8-7.2c-1.8-1.4-3.1-3-4.1-4.9c-2.7-5-6.6-8.7-10.9-12.2
		c-9.8-7.9-16.9-17.8-20.3-30c-1.4-4.9-3-9.8-4.6-14.9c2.5-0.5,3.1,1.4,3.7,2.9c1.8,4.4,3.6,8.9,4.2,13.7c0.6,4.5,2.5,8.2,5,11.9
		c4.7,6.9,10.4,12.7,17.2,17.6c2.6,1.9,5,4.1,6.4,7c2.2,4.4,5.5,7.7,9.5,10.4c3,2,4.7,4.9,7.3,7.8c-2.4,0.5-4.6-0.2-7.1,0.7
		c2.4,1.5,4.5,3,6.5,4.5c2.3,1.7,4.9,3,7.4,4.6c2,1.3,4.6,1.9,5.3,4.8c0.1,0.3,0.6,0.6,1,0.8c6.9,4,12.6,10.1,20.8,12.2
		c2.6,0.7,4.8,2.6,7.4,3.5c8.7,3.1,17.4,6.2,26.2,9.3c1.5,0.5,3.1,0.5,4.7,0.7c7.8,1.1,15.5,1.6,23.4,1.9c8.4,0.3,16.8,1.2,25.1,2
		c3.5,0.3,6.9,0.2,10.4,0.2c1.1,0,2-0.3,2.9-0.8c2.3-1.4,4.9-1.7,7.5-2.3c1.5,0.4,3,1.1,4.6,1.2c7.1,0.6,11.7,4.8,16,10
		c2.8,3.4,6.4,6.3,9.7,9.3c10.4,9.6,21,19.1,31.3,28.9c5.6,5.3,10.9,10.8,16.5,16.1c5,4.8,9,10.5,13.7,15.7
		c6.2,7,11.3,14.6,16.6,22.5c2.4-0.6,4.6,0,6.8,1c2.3-2.2,5.1-1.2,7.6-1.4c1.6,1.3,2.2,2.9,2.9,4.5c2.6,6.1,5.2,12.3,7.8,18.4
		c2.1,5,2.7,10.3,3.2,15.7c0.2,2.7,0.2,5.5,0.4,8.3c0.3,5.2-0.9,10-2.8,14.8c-2.2,5.5-4.3,11-6.5,16.6c-0.3,0.8-0.6,1.6-0.1,2.8
		c5.2,0.1,10.5-0.6,15.8-1.3c2.3-0.3,4.6-0.7,6.9-1.1c18.9-4.1,38.2-6.7,57-11.2c2.4-0.6,4.8-1,7.2-1.7c1.9-0.6,3.9-1,5.6-2.7
		c-2.9-3.9-5.8-7.9-8.8-11.8c-2.3,0.4-4.5,0.9-6.7-0.6c1.7-0.9,3.4-0.1,5.2-0.9c-2.9-4.4-5.7-8.6-8.4-12.6
		c-15.1-2.6-25.8-10.8-34.5-22.3c-1.1-1.5-1.9-3.3-2.7-5c-1.8-4-2.1-7.8,1-11.3c0.4-0.5,0.6-1.3,1.2-2.4c-6.7-1.8-13-3.6-19.7-0.3
		c-5.6,2.8-12.1,3.2-17.9,4.8c-0.8-1-0.7-1.7-0.1-1.9c4.3-2.4,9.1-2.5,13.8-2.9c1.7-0.6,3-2,5.8-2.3c-2.6-1.6-4.5-1.8-6.3-2
		c-5-0.6-9.6-2.3-14.2-3.9c-1.2-0.4-2.3-1.2-3.4-1.9c-2.8-2-5.6-4-9-5c-2.2-0.7-4.6-2-4.9-5.2c2.3-2.8,3.8-6.3,5.3-9.7
		c1.9-4,5-6.9,8.7-8.8c8.1-4.1,16-8.8,24.6-11.9c5.4-1.9,11-2.7,16.6-3.3c3.2-0.3,6-1.2,8.5-2.9c8.2-5.7,17.4-8.4,27.1-9.7
		c7.8-1.1,15.2,0.5,22,4.8c2.5,1.6,4.7,3.7,6.5,6.1c-0.2-2.4-1.3-4.4-2.5-6.3c-4.1-7.1-5.1-14.6-3.8-22.6c0.4-2.7,0.6-5.5-0.6-8.1
		c-1-2.2-0.8-4.5-0.5-6.8c0.8-7.4,2.3-14.5,5.9-21.2c0.9-1.8,2.2-3,3.7-4.1c9.4-6.9,20.1-9.4,31.8-9.1c3.1-2.5,6.5-4.9,11-4.9
		c8.1,0,12.1,3.8,13.6,11.7c1.1,5.6,0.8,11.2,1.4,16.8c0.4,4.8,1.5,9.4,2.7,14c0.9,3.3,1.6,6.7,2.4,10.1c0.4,1.7,0.7,3.5,0.2,5.2
		c-0.7,2.2-0.4,4.3-0.2,6.4c0.6,6.7,0.1,13.3-1.4,19.8c-0.1,0.3-0.3,0.5-0.9,1.5c1.3-15.9,1.1-30.9-2.7-45.7
		c-0.9,1.7-1.6,3.3-2.7,4.9c0.6,2,2.3,3.6,2.1,6c-0.2,2.5-1.7,4.6-2.4,7c1.5,9.2-0.9,18.5,0.2,27.8c2.2-9.3,1.9-18.8,3.2-28.2
		c1.2,4,0.6,8.1,0.2,12.1c-0.3,2.6-1.6,5.4,1,7.6c0.4,8.2,1,16.3-5.6,22.8c-0.8,0.8-1.5,1.7-2.3,2.6c-0.4-0.9-0.7-1.3-0.9-1.8
		c-0.8,0.5-1.1,1.1-0.8,1.9c2,4.5,3.4,9.2,6.4,13.3c2.3,3.2,5.2,5.5,8.7,7c4.7,2,8.8,5,12.7,8.2c2.6,2.1,4.6,4.8,6.3,7.7
		c1.5,2.6,3.4,5,4.6,7.6c1.3,3,1.7,6.4,2.3,9.7c0.5,2.6,0.6,5.2,1,8.1c5.1,4.9,8.3,11.4,11.2,18.1c1.4,3.3,1.8,7,4,10
		c0.5,0.7,0.6,2,0.5,2.9c-0.5,4.1,0,8.4-1.2,12.5c-0.3,1-0.6,2-0.5,3c0.5,6.2-4,9-8.3,11.6c-2,1.2-4.6,0.4-6.5-0.9
		c-3.5-2.5-7.4-3.8-11.4-5.1c-5.6-1.8-10.7-4.5-15.4-7.9c-6.6-4.7-13-9.6-19.2-14.9c-3.2-2.7-5.9-5.9-9-8.9
		c-2.1,0.3-3.9,1.3-5.6,2.3c-10,5.9-20,11.7-30.1,17.3c-8.2,4.6-16.9,8.1-26.3,9.9c-13.2,2.5-26.4,5.5-39.7,7.4
		c-7.2,1-14.2,2.5-21.4,3.9c-6.5,1.2-13.1,1.7-20.1,2.1c0.2-3.1,0.6-5.7,1.5-8.3c1.8-4.9,3.4-9.8,5.3-14.7
		c2.5-6.3,3.9-12.6,2.7-19.5c-0.6-3.1-0.6-6.3-1-9.5c-0.5-4.5-1.9-8.6-3.9-12.8c-2.7-5.6-4.6-11.5-6.8-17.1c-2.7-0.9-5-0.9-6.4,0.8
		c-2.3,0.3-3.6-1.2-5.8-0.6c1.7,2.4,2.8,5.2,5.1,6.7c3.3,2.1,3.8,5.5,5.4,8.7c-1.4,0.1-1.7-0.6-1.9-1.1c-1.3-3.6-4-5.9-6.9-8.1
		c-2.4-1.9-4.3-4.2-6.2-6.7c-0.9-1.2-1.6-2.8-2.9-3.6c-0.6,0.2-0.7,0.6-0.7,1c-1,6.6-4.8,11.7-9.1,16.4c-4.5,4.9-9.1,9.8-13.7,14.5
		c-2.5,2.6-5.4,4.8-8.5,6.7c-5.3,3.3-9.2,7.9-12.2,13.3c-2,3.5-3.9,7.1-5.9,10.9c2.9,3.7,5.6,7.6,8.7,11.2c3.7,4.3,8.7,6.8,14.1,8.1
		c5.6,1.4,11.3,2.4,17,3.4c2.4,0.4,4.9-0.2,7.4-0.3c6.2-0.3,12.4-1.6,18.6-1.2c1.7,0.1,3.4,0.3,4.8,1.2c0,1.4-0.8,1.9-1.7,1.8
		c-10-1-20,2-29.9,1c-9.1-0.9-18.4-2.1-26.6-6.8c-2.5-1.5-4.7-3.3-6.7-5.5c-6-6.8-10.7-14.2-13.5-23c-1.9-6-4.2-12-5.9-18.1
		c-0.7-2.4-1.9-4.4-3.6-6.3c-8.8-10.4-18.9-19.6-27.3-30.3c-5.3-6.7-10.4-13.5-14.8-20.9c-1.4-2.4-2.6-4.9-3.5-7.5
		c-1.7-5.3-4.6-10-7.1-14.8c-1-1.9-2.3-3.7-3.9-5.2c-2.3-2.2-4.9-3.3-8.2-2.7c-13.8,2.4-27.1,0.9-39.7-5.5c-2.5-1.3-5-2.3-7.6-3.1
		c-4.7-1.5-9.3-3.3-13.4-6.1c-2.6-1.7-5.6-2.3-8.6-3c-6.8-1.4-13.8-1.8-20.7-2.7c-7.2-0.9-14.3-2-21.5-3c-0.7-0.1-1.7-0.1-2.1-0.6
		c-1.8-2-4.2-1.5-6.5-1.7c-1.2,2.3-3,3.9-5.5,4.4c-3.9,0.9-6.5,3.6-8.9,6.5c-1.1,1.4-2.1,2.7-3.6,3.7c-3.2,2.2-6.3,4.6-9,7.5
		c-3.2,3.4-7.4,4.9-12,4.8c-3-2-4.2-5.3-6.2-7.9c-4.2-5.4-8-10.9-10.2-17.5c-1.2-3.6-2.2-7.2-1.5-11c0.5-3.1-0.3-5.5-2.4-8
		s-4.1-5.2-6.2-7.7c-2.2-2.6-3.5-5.5-4.3-8.9c-1.4-5.5-2.9-10.9-3.1-16.6c-0.2-8,1.8-15.5,4.7-22.8c0.6-1.5,1.7-2.7,2.5-4
		c0.7-1,1.6-1.1,2.7-0.8L322.1,164.2z M807.4,196.4c2.6,0.4,3.8-1.3,5.5-3.4c-1.1,0.1-1.5,0.1-1.9,0.1l-0.2-0.3c0-0.6,1.1-1,0.4-1.8
		c-1-0.9-1.8-0.1-2.6,0.4c-1.5,0.9-2.8,2.4-4.7,2.5c0.7-2.1,3.1-2.5,4.2-4.1c-2.3-1.2-2.3-1.3-3.9-0.7c-3.5,1.2-7,2.6-10.5,3.7
		c-2.1,0.7-4.1,1.6-6.6,1.6c-2,0-4,2.1-6.1,3.3c-2.3-0.2-2.3-0.2-4.7,1.2c-1.8-0.7-3.6-1.5-5.5-2.2c-0.1-0.6,0.8-1.3-0.3-2
		c-1.6,1.5-2.4,3.7-3.7,5.6c-0.3-0.7-0.5-1.3-0.8-2c-5.2,6.3-5.2,14-7.4,21.4c3.3-0.3,6-1.1,8.7,0.7c-2.6,2.9-6.2-1-8.8,1.8
		c0.2,1.8,0.7,3.5,2.7,4.3l0.2,0.1h0.2c2.3-1.1,4.1-0.1,6.5,1.4c-2.5,0.7-2.1,3.3-3.4,3.8c-2.7,0.6-3.1-1.6-4.5-2.8
		c-1.3,7.6-1.9,14.6,0.8,21.5c2,5.1,4.6,10,6.5,15.2c1.3,3.6,3.8,5.7,8,5.3c0.8-0.1,1.7-0.2,2.5,0.4c-0.5,1.1-2,0.3-2.5,1.2
		c-0.4,0.9-0.8,1.8-1.2,2.8c5.2,5,10.1,10.3,12.9,17.5c4.3-3,8.9-4,13.7-4.6c4.6-0.5,9.4-0.6,14-1.7c-4.1-13.6-5-27-1.4-40.1
		c-0.6-1.5-2.6-0.9-2.5-2.5c0.9-1.1,1.8,0.7,2.5,0.2c4.4-3,7.1-6.9,8.3-12c0.8-3.3-0.1-6-3.2-7.7c-1,0.7-2.1,1.2-2.2,2.8
		c1.2,0,1.7-1.8,3.4-0.8c0.3,1.2,1.6,2.5,1.5,4.3c-1.9,0.5-1.5-2.5-3.3-1.9c-1,1.8,2.5,2.3,1.1,4.1c-1.6,0.2-2.3-1.8-3.9-1.7h0.1
		c-0.2-1.2-1-0.9-1.9-1c-1.7-0.2-3.1,1.6-5.3,0.5c2.1-0.7,2-3,3.8-3.7c-2.9-0.4-2.9-0.4-5-2.4c3.3,0.7,6.1,0.6,9-1.1
		c-3.9,0.2-7.7,1-10.3-2.7c4.9,3,10.4,0.9,15.8,2.4c0.7-2.9,2.1-5.7-0.1-8.5c0.5-1.2,1.9-2.3,0.7-4.1c-1.6,0.9-2.8,2.7-5.3,2.7
		c2-1.7,3.7-3.1,5.6-4.7c-0.5-0.8,0.5-1.9-0.9-2.5c-1.5,0.7-2.4,2.6-4.3,2.6c1-2.2,3.7-3.2,4.2-6.1c-0.4-0.6-0.3-1.8-1.2-2.4
		c-3.3,2-3.3,2-7.9,2.5c-2,0.2-3.9,0.7-5.9,1.1c0,0.2,0,0.4,0,0.5c2.4,0.1,4.8,0.2,8.2,0.4c-5.8,1.5-10.6-0.5-15.4,0.1
		c5.2-2.8,10.8-2.9,16.6-3.1c1-1,2.6-1.7,3.3-3.4c-0.9-2.1-2.7-3.4-4.5-5.5c-1.5,3.6-4.4,4.8-7.4,5.8c-1.1,0.3-2.2,0.8-2.6,2.1
		l-0.3,0.1c-2.5-0.1-4.9,1.3-7.5,0.5c0.2-0.8,0.3-1.5,0.4-2.2C800.9,200.1,804.3,199,807.4,196.4z M814.2,261.6
		c2-2.2,1.7-5.1,2.1-7.6c0.6-3.7,2-7.3,1.9-11.2c-1.5,0.1-2.2,0.9-2.2,1.9C815.7,250.3,813.5,255.8,814.2,261.6
		c-1.3,2.6-0.5,5.3,0,7.9C814.2,266.8,814.2,264.2,814.2,261.6z M775.2,193.9l-0.1-0.1c0.9,0.7-0.5,2,0.7,2.8
		c2.3-1.6,4.5-3.2,6.8-4.8c-0.2-0.5-1.2-0.3-1-1c0.7-1,1.8-1.1,2.6-1.7c0.8-0.6,2.2-0.3,2.3-2c-4.4,1.7-9.7,1.6-12.7,6.5
		C774.4,193.7,774.8,193.8,775.2,193.9z M809.9,182.6c0-0.4-0.1-0.8-0.1-1.2c-4.4-0.2-5.6,0.8-5.3,4.1c2-0.8,3.2-3.1,5.6-3
		c-0.3,1.7-2.7,1.5-3,3.2c1.2,1,2.2-0.7,3.3-0.1c0.1,0.9-1.3,1.1-0.8,2.4c2.5,1.2,4.9,3.1,7.7,3.8c1.8,2.7,3.6,5.2,5.3,7.7
		c-0.2-3.1-0.7-6-1.4-8.9c-0.2-1-0.7-1.9-1.2-2.8C817.7,183.1,815.1,181.8,809.9,182.6z M715.2,339c0.4,1.3-1.3,1.8-1.2,3.2
		c2.5,0.6,4.5,2.2,6.1,4.1c1.1-0.3,1.4-1.2,1.9-1.8c0.6-0.6,1-1.4,1.4-2.1c-3-4.5-4.1-4.9-8.4-3.2c-0.3-3.4,0.2-4.7,2.2-5.2
		c3-0.8,5.4,0.5,7.6,2.4c2.1,1.8,3.6,3.9,2.1,7c-2.4,1-4.8,2.3-6.2,5.1c6,5.3,13,6.8,20.8,4.9c-0.3,1.6-1.2,2.5-2.9,2.5
		c-4.8,0.1-9.6-0.1-13.8-2.7c-1.6-1-3.2-2-4.8-2.9c-0.8-0.5-1.6-0.9-2.1,0.6c4,2.8,8.3,5,13.1,6.2c2.3,0.6,4.6,0.8,6.9,0.6
		c3.8-0.4,5.3-2.3,5.1-6.1c-0.3-3.8-2.1-6.9-4.2-9.9c-6.3-8.7-14.5-14.9-24.4-18.8c-2.4-1-5-1.6-7.6-1.8c-5.8-0.4-8.7,2.8-7.1,8.2
		c1.9,6.3,5.9,11.3,10.9,15.6c1.1-1.9-0.4-2.3-1.1-3.1c-3.9-4-6.5-8.8-8.6-13.9c-1.2-3-0.5-4,3.3-4.9c-1.7,1-2.8,2.2-2,3.9
		c2.6,5.3,5.1,10.7,9.7,14.4C713.5,340.9,713.6,338.9,715.2,339z M746.5,351.3c0.1-0.6,0-1.2,0.3-1.6c2.9-4.1,2.1-8.1-0.1-12.2
		c-2.4-4.5-5.7-8.3-9.5-11.7c-5.7-5.2-12.1-9.3-19.7-11.5c-6.8-1.9-10.3-0.5-13.9,5.3c12.6-3,39.4,15.8,41.4,32.1
		c0.5-0.2,1.1-0.4,1.6-0.5c-1.6,4-4.3,6.9-8.4,8.4c6,8.9,13.3,16.3,19.3,25.2c12.1-5.1,22.6-12.7,34.4-18
		c-3.7-6.9-9.1-12.5-8.8-20.1c-5.9-5.1-12.1-9.1-18.7-12.3c-4.2-2-6.3-5.2-7.6-9.3c3.9,4.6,8.1,8.6,14.2,10.2
		c0.3,0.1,0.6,0.2,0.8,0.4c3.8,3.4,8.3,5.8,12.3,8.8c7.9,6,15,12.8,22.3,19.4c3.5,3.2,6,7.4,10,10.1c2.1,1.3,3.9,3,5.9,4.4
		c6,4.3,11.7,9,18.4,12.2c6.6,3.3,14,4.8,20.2,9c0.6,0.4,1.4,0.4,2.1,0.6c2.5-1.9,5-3.6,6.7-5.9c0.8-5.8,0.3-11.5,1.8-16.9
		c0.5-1.7,0.5-3.5-0.3-5.1c-3.7-7.5-6.8-15.4-11.4-22.4c-2.3-3.5-4.5-7.2-4.6-11.6c-0.3-7.4-3.6-13.6-7.5-19.6
		c-3.5-5.5-8.3-9.8-14.1-12.6c-4.9-2.4-9.4-5.2-13.2-9.3c-14.2,3.5-27.7,8.5-38.6,18.6c0.2,2.3,0.9,4,1.8,5.9
		c6.6,2.7,11.8,7.7,17.6,11.2c3.6,0,6.9-1.8,10.4,0c-2,1.7-4.5,1.1-7,2.2c4.8,2.6,8.7,5.6,13.6,7.4c0-2.1,0-3.8,0-5.4
		c1.9,2,1.8,4.8,3.3,7c3.6,2.2,7.9,3.2,11.8,5c4,1.9,8.2,3.6,12.3,5.4c3.7,1.7,8,2.2,11.9,5.5c-7.3-0.6-13-2.6-18.6-5.4
		c-3.8-1.9-7.7-3.4-11.5-5c-9.8-4-19.1-9.1-28-14.7c-6.1-3.9-11.2-9.1-17.9-12.4c-3.2-8.7-5.9-17.5-10.2-26.3
		c-3.7-2.2-5.1-7-8.5-10.2c-2.5,0-5-0.8-8,0.2c1.9,1.8,3.4,3.1,4.9,4.5c1.4,1.3,3.1,2.4,3.8,4.3c-0.4,0.2-0.5,0.3-0.6,0.3
		c-0.8-0.1-1.2-0.8-1.7-1.2c-3.8-3.6-7.7-7-13.2-7.7c-1.1-0.1-2.4-0.6-3-2.5c2.9,0.6,5.3,1.2,7.6,1.7c5.9-3.3,11.1-2,14.9,3.6
		c1.5,2.1,2.5,4.6,5.1,5.8c0.9,0.4,1.2,1.6,1.4,2.6c1,3.8,3.2,7.1,4.8,10.6c2.4-1.2,2.4-3.2,2.1-5.3c-0.5-2.4-1.4-4.8-2.7-6.8
		c-6.3-9.7-14.7-17.1-25.5-21.5c-1.9-0.8-3.9-1.3-5.9-1.5c-4.1-0.5-5.9,1.3-5.9,5.4c0,2.2,1,4,2.7,6.4c-3.9-0.7-6.5,1.6-9.6,1
		c1.1-2.7,4.5-1.2,6-3.3c-0.2-1.1-0.4-2.2-1.7-2.9c-1.8,0.8-3.3,2.1-4.5,3.7c-0.6,0.8-1,1.8,0.3,2.4c0,1.1-1.6,0.6-1.6,1.8
		c1.3,2.2,3.2,2.8,5.8,2.5c7.8-0.9,13.1,3.2,17.3,9.2c-1.8-0.3-3-1.5-4.1-2.7c-2.5-2.6-5.5-4-9.1-4.7c-3.3-0.6-6.6-0.2-9.9-0.1
		c-1.6,0.1-2.2,1.1-2.6,2.9c3.2,2.4,7.7,1.5,11,3.5c3.4,2,6.6,4.4,9.8,6.5c0.1,0.9-0.8,1.6,0.1,2.1c0.5,0.7,1.8-0.1,2.2,1.6
		c-7.1,0.5-14.1-0.6-21-0.1c-0.4,0-0.8-0.2-0.7-1.1c2.7-1.3,5.7-0.4,8.6-0.7c-0.1-2.3-4-2.8-2.6-5.8c2.1,1.6,3.7,3.6,5.2,5.6
		c1.1,0.1,1.9,0.3,2.8,0.3c0.8,0,1.7,0.5,2.3-0.4c-4.4-5.5-10.1-8.3-17.1-8.4c-3.4,1.8-5.5,5.4-9.1,6.8c-0.7-0.8-0.5-1.3-0.2-1.9
		l-0.1,0.1c2.6-2,5.2-4,7.8-6c-0.2-2.8-0.8-5.6,2.8-6.6c-0.6-1.3-1.9-1.8-1.9-3.1c0-1.3,1.7-1.4,1.7-2.8c0.2-3.6,2.6-5.7,5.6-7.1
		c2-0.9,2.9-2.5,3.6-4.4c-1.5-0.6-2.8-0.2-4,0c-4.6,1-9.2,2.2-13.8,3.3l-0.1-0.1c3.1-4.9,7.8-8.5,10.6-8.2c-0.9,1.4-2.7,1.9-3.5,3.8
		c3.4-0.5,6.5-1.2,9.7-1.4c2.6-0.2,4.7-1,6.4-3s4-2.6,6.6-2.5c4.4,0.1,8,2.3,11.7,4.2c1.2,0.6,2.1,1.9,3.9,1.6
		c-0.8-1.5-1.5-2.8-2.4-4.3c-2.2-0.3-3.4-2.2-4.9-3.7c-7.4-7.6-16.9-9.4-26.8-8c-8.8,1.2-17,4.7-24.4,9.8c-2.9,2.1-6.1,4.1-10,2.6
		c-0.4-0.1-0.9,0-1.3,0.1c-4.4,0.9-8.8,1.7-13,3.2c-6.3,2.2-12.1,5.4-18.3,7.9c-6.3,2.6-11.9,6.7-15.3,12.9
		c-1.5,2.7-2.6,5.7-4.9,7.7c0.5,2,2.1,2.2,3.4,2.8c3.1,1.2,6.1,2.7,8.8,4.7c3.5,2.5,7.3,4,11.5,4.9c10.8,2.4,21.9,3.5,32.9,5.7
		c1.4-1.2,3.7-1.8,3.1-4.4c3.6,0.4,7.2-0.5,10.8,0.5c3.5,0.9,6.6,2.8,10,4c2.2-1.2,4.3-2.3,6.7-3.6c-3.3-1.5-3.3-1.5-3.8-3.5
		c8.1,2.7,16.6,3.9,25,6.4c-0.7,0.6-1.2,1.1-1.7,1.6c1.2,2.6,2.8,5,3.2,7.9c-1.3-0.3-1.4-1.7-2.5-2.4c-1.5,2.3-5.1,1.8-6.1,4.9
		c-2.6-1.1-3.8-3.4-6-4.5c-0.7,1.1-1.9,1.8-1.8,3.3c3.6,4,7.1,8,8.9,13.2C751,344.2,750.2,348.2,746.5,351.3z M529.3,266.7
		c-0.8-1.2-1.6-2.3-3.9-2.6c1.3,1.6,2.3,2.4,3.6,2.9c0.3,0.6,0.5,1.4,1,1.9c4.7,5.5,7.1,12.2,9.7,18.8c3.4,8.7,6.6,17.6,11.2,25.8
		c5.5,9.7,12.1,18.7,18.4,27.9c3.4,5,7.5,9.8,8.9,15.8c1.8,7.7,5.6,14.6,7.1,22.3c0.1,0.3,0.4,0.7,1,0.6c3-7.8,7.4-14.9,13.7-20.2
		c9.7-8.2,18.2-17.4,27.2-26.2c4.4-4.3,7.8-9.7,8.4-15.6c-2-6.2-6.6-9.8-10-14.2c-13.1-16.5-28.5-30.8-44-45
		c-8.9-8.2-18.5-15.9-26.1-25.4c-2.6-3.2-5.3-6-9-7.9c-5.6-2.7-11.1-5.7-17.5-2.2c-1.2,0.7-2.8,0.7-4.2,0.9c-3.3,0.4-6.6,0.4-10,0.2
		c-0.4,0-0.6,0.1-0.3,0.6c0.7,0.4,1.6,0.9,3.2,1.7c-2.7-0.2-4.6-0.5-6.1-1.7c-1-0.8-2.1-0.9-3.2-0.9c-9.1-0.4-18.2-1.6-27.3-1.4
		c-2.7,0.1-5.5-0.2-8.2-0.5c-17.9-1.8-35.7-3.2-53.7-2.6c-0.6,0-1.2,0-1.7,0c-7.1-0.6-14.2-0.5-21.3-0.9c-5.6-0.3-11.2-0.1-16.9-1.2
		c-3.3,3.5-7.2,6.5-11.2,9.7c3,1.6,4.1,4.3,4.8,6.8c1.5,1.1,3.6,0.4,4.6,2.2c-1.9,0.6-3.7,0.6-5.7,0.1c-0.5-0.8-1-1.7-1.7-2.4
		c-0.7-0.8-1.1-2.1-2.4-2.4c-0.2,4.8,0.8,6.3,5.1,7.5c3.1,0.9,6.2,0.8,9.4,1.1c5,0.3,10.1,1,15.1,1.7c7,1,14.1,1.4,21.1,2.8
		c5.9,1.2,11.7,3.3,17.8,3.7c2.1,0.1,3.9,0.9,5.8,1.5c4.2,1.3,7.7,4,11.7,5.7c7.7,3.2,16,4.9,23.7,8.5c1.9,0.9,4.2,1,6.3,1.5
		c6.4,1.5,12.7-0.2,19-0.7c3.8-0.3,7.5-0.8,11-2.3c3.5-1.5,6.8-1.6,10.5-1.1c4.2,0.6,6.5,3,8.6,6.4
		C531,268.1,530.4,266.7,529.3,266.7z M379.3,209.1c4.8,1.5,9.1,3.1,12.7,6c1.2,1,2.7,0.7,4.2,0.8c5.3,0.3,10.7,0.7,16,1.1
		c2.9,0.2,5.8,0.5,8.7,0.2c6.8-0.9,13.5-0.6,20.3-0.1c2.9,0.2,5.9,0.3,8.8,0.4c-2.1-1.6-4.4-2.4-6.9-2.8c-2-0.3-4-0.7-5.8-1.6
		c-5.6-2.6-11.2-5.4-16.9-7.8c-4.6-2-8-5.7-12.2-8.2c-8.8-5.3-16.7-11.8-25-18.4c-3.8,3.8-7.2,7.8-6.1,13.9c1.6,2.1,4.1,3.7,4.4,6.2
		c1.7,1.2,3.6-0.3,5,1.6C385,203.7,383.4,207.1,379.3,209.1z M526,272.5c-3-2.7-6-5.4-9-8.2c-1.6,0.7-3.2,1.5-5.3,2.4
		c4.8,2.9,7.5,6.7,9.7,11c2,3.8,4,7.7,6.1,11.5c3.7,6.5,7.5,13,11.1,19.5c1.1,2,3,3,4.1,4.9c3.5,6.1,8.2,11.2,13.1,16.1
		c0.5,0.5,0.8,1.5,2.1,0.9c-1.5-2.3-2.7-4.6-4.2-6.7c-5.4-7-9.6-14.3-11.8-23.1c-2.2-9-6.2-17.7-10.6-26c-1.7-3.2-3.9-6.1-5.9-9.1
		c-1.2-1.8-2.8-2.8-5.7-2.3C523.2,265.9,524.9,268.9,526,272.5z M744,271c4.9-0.6,8.8,0.8,12.6,2.6c7.1,3.5,13.1,8.4,18.3,14.3
		c2.8,3.2,5.1,6.6,6.8,10.5c0.6,1.5,0.3,3.3,1.3,4.6c4.6-4.6,3.5-9.4,0.7-14c-6.1-10-14.6-17.5-25.5-22
		C751.8,264.6,749.2,265.3,744,271z M787.6,295.1c0.3,5.9-4.4,9.8-7.8,14.3c0.2,0.9,0.4,1.7,1.2,2.5c10.9-9.9,24.3-14.4,38.5-17.2
		c-1.1-2.2-2.1-4.1-2.9-5.8C806.8,290.7,796.8,290.6,787.6,295.1z M820.2,240.1c-0.8,0.8-0.8,1.5-0.7,2.2c1.5,9.7-2.8,18.7-3.7,28.1
		c-2,2.9-1.4,5.9-0.3,9.1c3.3-3.9,5-14.2,3.5-19.7C820.3,257.1,821,245.3,820.2,240.1z M794.5,365.3c2.3-1,4.2-1.9,6.5-3
		c-5.2-4.7-9.9-9-15.4-14C787.6,355.2,791.7,359.7,794.5,365.3z M743.9,318.8c-0.8-1.9-1.5-3.3-2.1-4.6c-1.2-0.3-2.4-0.7-3.5,0
		c-1.5,2.1-3,4.1-4.5,6.4c1.8,1.6,3.5,3,5.3,4.7C740.8,323,742.3,321,743.9,318.8z M747.2,325c2.4-2.9,1.9-5.9,2.3-8.9
		c-1.9-0.5-3.5-0.8-5.2-1.2c0,1.7,1.4,2.5,1.1,3.9c-0.3,1.4-0.9,2.8-0.3,4.4C745.6,323.6,746.3,324.2,747.2,325z M786.4,190.2
		c4.2-2.5,8.4-2.5,12.8-1.1c1.3,0.4,3.2,0,4-1.8C797.1,185.7,791.5,186.7,786.4,190.2z M712.9,343.9c-0.3,3.9,1.2,5,5.4,4.2
		C717.2,345.7,715.6,344.2,712.9,343.9z M725.3,342.8c1-2,0.5-3.4-2-5.4c-2.7-2.2-4.7-2.5-7-0.8
		C720.2,336.2,723.9,337.7,725.3,342.8z M820.6,273.8c0.3,0.2,0.5,0.4,0.8,0.5c1.2-3,2.7-5.8,2-9.4
		C822.4,267.9,821.5,270.8,820.6,273.8z M751.4,316.4c-0.8,2.3-0.8,4.3-0.4,6.5C753.3,320.5,753.3,320.3,751.4,316.4z M734.1,316.5
		c-1.8-0.1-2.8,0.5-3.8,1.4c0.2,0.8,0.7,1.3,1.8,1.2C732.7,318.5,733.5,317.9,734.1,316.5z M383.9,214.4c-1.5-0.4-2.2,0.3-2.7,1.6
		C382.7,216.3,383.3,215.6,383.9,214.4z M801,184.9c1.2,0.1,1.6-0.4,1.5-1.2C801.6,183.4,801.3,183.9,801,184.9z"/>
	<path d="M824,487.4c5.8,7.3,5.7,15.8,4.8,24.3c-1.1,10.8-3.9,21.3-5,32.1c-0.8,7.8,0.1,15.3,1.6,22.8c0.7,3.4,1.9,6.7,2,10.4
		c-3.3-5.5-5.3-14.7-6.3-28.8c-0.7-0.2-0.8,0.7-1.4,0.8l0.1,0.1c-0.1-3.2,2.7-5.8,2.3-9.1c-0.1-0.8,0.3-1.7-0.1-2.8
		c-5.8,7.8-10,15.8-9.4,25.6c0.1,1.2,0.2,2.2,0.8,3.3c4.5,8.9,6.7,18.4,8.2,28.2c0.1,0.7,0.1,1.4,0,2.1c-0.4,5.3-1.5,10.6-2.1,15.9
		c-0.6,5-4,8.5-8.2,11.3c-1.4,0-2.9,0-4,0c-1.4,0.5-1.7,1.5-2.3,2.4c-1.5,2.3-3.1,4.6-5.1,6.5c-8.1,7.3-15.2,15.5-23.4,22.6
		c-0.5,0.5-1.1,0.9-1.7,1.3c-6.5,4.3-13.1,8.5-19.5,12.9c-2.7,1.8-5.7,2.9-8.8,3.5c-13.2,2.6-26.3,5.8-39.6,7.8
		c-10.4,1.6-20.8,3.7-31.2,5.3c-4.6,0.7-9.2,0.9-13.8,1.4c-0.6,0.1-1.1-0.1-1.7-0.7c0.3-3.4,1.3-6.8,2.5-10.2
		c2.2-5.8,4.2-11.7,6.2-17.6c1.3-3.9,1.8-7.8,1-12c-0.5-2.5-0.6-5.2-0.7-7.8c-0.3-6.9-2.5-13.3-5.5-19.5c-1.2-2.5-2-5.1-3.1-7.6
		c-1.7-4.1-3.9-5.3-8.4-5c-1.7,0.1-3.4,0-5.7,0c2,2.4,3,4.7,5.3,6.2c2.8,1.9,3.3,5.2,4.5,8.2c-1.2,0-1.6-0.6-1.8-1.2
		c-1.5-3.8-4.4-6.3-7.5-8.7c-3.5-2.7-5.7-6.5-8.3-9.9c-0.9,0.4-1.1,1.1-1.2,1.8c-0.6,5.5-3.8,9.7-7.2,13.6
		c-5.1,5.9-10.6,11.5-16,17.1c-2.2,2.3-4.8,4.2-7.5,5.9c-5.1,3.1-9,7.3-11.9,12.4c-2.3,3.9-4.3,7.9-6.5,11.9
		c2.9,4.2,5.7,8.5,9.2,12.1c3.7,3.8,8.4,6.2,13.5,7.5c5.6,1.4,11.3,2.3,17,3.4c2.4,0.4,4.9-0.2,7.4-0.3c6.2-0.3,12.4-1.5,18.6-1.2
		c1.7,0.1,3.3,0.4,4.8,1.1c-0.1,1.5-0.8,2.1-1.7,2c-9.7-1-19.4,1.8-29,1c-9.4-0.7-18.9-2.1-27.4-6.9c-1.5-0.8-3.1-1.8-4.2-3
		c-6.4-6.8-12.1-13.9-15.1-23c-2.4-7.3-5.2-14.4-7.2-21.8c-0.4-1.7-1.4-3.1-2.6-4.5c-7.6-8.3-15.3-16.6-22.9-25
		c-7.5-8.3-13.9-17.4-19.8-26.9c-1.5-2.3-2.6-4.9-3.5-7.5c-1.7-5.4-4.7-10.2-7.3-15.2c-1-1.8-2.2-3.4-3.7-4.8
		c-2.3-2.2-4.9-3.3-8.2-2.7c-13.8,2.5-27.1,0.8-39.7-5.5c-2.5-1.2-5-2.3-7.6-3.1c-4.9-1.5-9.5-3.5-13.8-6.3
		c-2.6-1.7-5.6-2.2-8.6-2.8c-6.5-1.4-13.2-1.7-19.8-2.6c-7.3-1-14.6-2-21.9-3c-0.7-0.1-1.7-0.1-2.1-0.5c-1.8-2-4.1-1.7-6.6-1.6
		c-1.2,2.1-3,3.7-5.5,4.3c-3.9,0.8-6.5,3.6-8.8,6.5c-1.2,1.5-2.4,2.9-4,4c-3.1,2.1-6,4.4-8.6,7.2c-3.2,3.4-7.4,5-12,4.9
		c-3.1-2-4.2-5.3-6.2-7.9c-4.4-5.6-8.3-11.5-10.5-18.3c-1.1-3.3-2-6.6-1.2-10.2c0.7-2.9-0.1-5.2-2.1-7.6c-2.3-2.8-4.4-5.7-6.8-8.4
		c-2.1-2.5-3.4-5.3-4.1-8.5c-0.9-4.2-2.3-8.3-2.9-12.7c-1.3-9.7,1.1-18.7,4.8-27.5c0.7-1.8,1.6-3.7,3.8-4.4c1.3,1.5,0.1,2.5-0.3,3.7
		c-2.7,6.6-5.3,13.1-5.6,20.4c-0.1,3.7,0.3,7.2,0.8,10.8c0.6,4,2.2,7.8,2.6,11.8c0.3,3.1,2.4,5.6,4.8,7.5c3,2.3,4.4,5.7,6.8,8.4
		c1.3,1.5,1.3,3.5,0.9,5.4c-1.4,6.4,0.6,12,4,17.3c3.8,5.9,7.3,12.1,12,17.6c2.5-0.5,4.7-1.4,6.9-2.4c1.9-0.9,3.6-2.2,4.3-4.1
		c1.5-3.9,4.4-6,8.2-7c0.6-0.2,1.1-0.5,1.5-0.7c2.9-4.3,6-8.3,11.6-8.7c0.1-1.5-0.9-1.5-1.7-1.6c-1.7-0.3-3.5-0.4-5.1-0.8
		c-6.4-1.8-8.2-7.6-8.6-13.1c-0.2-2.5,2-4.1,3.8-5.6c3.7-3,7.5-5.9,11.5-8.9c-0.9-1.3-1.8-2.5-2.8-4c-3.3,2.7-7.1,4-11.1,4.9
		c-0.7,0.2-1.5,0.4-2,0.9c-5.3,4.5-12.2,4.1-18.4,5.7c-1.6,0.4-1.6,0.2-4.1-1c0.9-3.7,4.5-4.4,7.5-6.8c-0.4,3.2-3.5,3-4.4,4.8
		c4.7,0.2,9.6-0.6,13.4-2.8c5.4-3.2,12.1-4.2,16.5-9.3c1.3-1.5,3.1-2.6,5.4-2.3c1.5,0.2,2.4-0.6,3.2-1.6c-0.6-1.5-2.4-0.6-2.8-2.1
		c-0.5-3.5-3.1-6-4.8-9c-1.4-2.5-1.4-4.6-0.3-6.9c1.6-3.2,4.3-5.5,6.7-7.9c1.7-1.8,4.3-1.2,7.3-1.2c-3.2-2.8-5.8-5.3-8.7-7.5
		c-1.5-1.1-2.6-2.3-3.4-3.8c-2.9-5.7-7.5-9.8-12.3-13.8c-9.3-7.7-16.2-17.3-19.4-29.2c-1.4-5-3.1-9.9-4.7-15c2.5-0.8,3,1.2,3.6,2.6
		c1.6,3.9,3.4,7.8,4,11.9c1.7,11.8,9.1,19.8,17.5,27c5.2,4.5,10.7,8.4,13.8,14.8c1.6,3.3,4.9,4.8,7.6,6.9c2.6,2.1,4.5,4.8,7,7.8
		c-2.6,0-4.7,0-6.7,0c-0.3,1.6,0.7,1.9,1.5,1.9c2.1,0.1,2.6,2.1,4.1,2.9c2.8,1.6,5.5,3.3,8.2,4.9c1.9,1.2,4.4,1.8,4.9,4.5
		c0,0.2,0.4,0.5,0.6,0.6c6.8,3.9,12.3,10.1,20.3,12.1c2.6,0.7,4.9,2.4,7.4,3.5c6.9,3,14.3,4.8,21.2,7.6c8.7,3.4,17.8,4.1,26.8,4.4
		c11.3,0.4,22.5,1.7,33.8,2.4c4.9,0.3,9.8,0.9,14.4-1.8c1.3-0.8,3.1-0.8,4.5-1.1c2,0.5,4,1.2,6,1.4c5.5,0.4,9.7,3.5,12.8,7.4
		c3.7,4.5,8.1,8.3,12.2,12.2c10.1,9.5,20.5,18.8,30.6,28.3c5.6,5.3,10.9,10.8,16.5,16.1c5,4.7,9.1,10.5,13.7,15.7
		c5.3,6.1,10.2,12.6,14.6,19.5c0.7,1.1,1.6,2.1,2.5,3.3c2.1-0.6,4.2-0.1,6.3,0.9c2.1-1.1,4.3-2.3,6.7-0.3c0.9,0.8,2.2,0.3,3.4,0.2
		c5.8-0.5,11.4-2.1,17.1-2.6c4.8-0.5,9.2-2.1,13.9-2.8c4.1-0.6,8.4-2.7,11.6-5.9c-1.9-4.1-1.9-4.1-0.5-9.3
		c-4.5-1.4-9.2-2.7-13.9-2.1c-7.2,0.8-13.9,0.2-19.6-4.7c-0.6-0.5-1.6-0.6-2.3-1.1c-3.8-2.5-5-4-4.9-8.6c0.1,0,0.4,0,0.4,0.1
		c2.2,5.4,7.6,7.3,11.7,10.6c2.7,2.2,6.4,2.3,9.6,1.9c6.2-0.9,12.2-0.2,18.1,0.9c7.1,1.4,14.2,2.3,21.5,2.2
		c7.9-0.1,15.9-0.5,23.9,0.7c2.3,0.3,4.4,1,6.9,2.4c-2.7,1.1-4.9-0.3-7.1-0.1c-0.6,7.5,3.3,12.5,8.7,16.5c2.8,2.1,5.9,3.6,9.1,5.1
		c4.6,2.2,8.7,2.3,13.4-0.7c13-8.4,17.7-20.7,17.5-35.2c-0.2-12.7-11-25.1-24.6-26.9c-8.8-1.1-17.1-0.5-25.6,2.2
		c-6,1.9-12.3,3.4-19,3c-7.3-0.5-14.7,0.6-22.1,0.8c-7.1,0.2-14.2,0.7-21.1-1.3c-2.3-0.7-4.4-0.2-6.6,1.2c-4.2,2.6-7.4,6-9.7,10.3
		c-0.7,1.4-1.2,3-2.8,3.7c-1.2-0.5-0.7-1.4-0.5-2.2c0.9-3.7,2.9-6.7,5.8-9c2.5-2,5.2-3.6,7.9-5.3c2-1.2,4.3-1.1,6.4-0.5
		c6.1,1.6,12.2,1.6,18.5,0.9c6-0.7,12.1-0.6,18.6-0.8c-0.9-1.9-2-3.7-2.6-5.7c-1.1-4.3,0.4-8.7,4-11c5-3.1,10.4-3.7,15.8-1.8
		c4.3,1.5,8.9,2.7,12.5,5.8c1.9-1.7,1.2-3.6,0.8-5.3c-1.1-1.8-3.6-2-4.3-4.5c1.3-3,3.1-5.9,4.7-8.8c-0.1-1.2-1.5-1.1-1.6-2.4
		c1.4-0.3,3,0.5,4.6-0.5c-1.3-2.7-3.3-5.3-3.7-8.4c2.6-8.1,5.5-16.1,10.2-23.3c2.1-3.3,5-6,8.8-7.5c9.9-3.9,20.3-5.9,30.9-6.1
		c2.9-0.1,5.7,0.5,8.4,1.8c2.5,1.2,5,2.2,7.8,3.5c2.5-1.4,5.2-2.7,7.8-4.3c2.7-1.6,5.2-1.2,7.8,0.2c9.2,5,13.4,12.9,15.5,23.2
		c2.7,13.1,0.1,25.7-0.8,38.4c-0.6,7.8-1.8,15.5-2.7,23.3c-0.5,4.1-0.3,8.1,1,12c0.5,1.5,0.8,3,1.4,5.5c-1.1-1.6-1.7-2.4-2.4-3.4
		c-0.6,3.9,3.9,6,3,10.7c-4.7-8.5-8.6-16.3-6.9-25.6c0.5-2.7,0.9-5.3,2-7.9c1.1-2.4,0.9-5.4,1.3-8.1c1.1-8.9,2.2-17.8,3.2-26.6
		c-0.8-0.2-1.2-0.3-1.6-0.4c0-0.2-0.1-0.5-0.1-0.8c1.2-7.8,1.1-15.6-0.7-23.3c-0.7-2.8-1.9-5.5-3.6-7.8c-4-5.4-10.3-7.6-16.8-5.9
		c-0.5,0.1-1.1,0.1-1.3,0.1c-0.8,0.7-0.6,1.3-0.6,1.8c-1.4,0.5-3.3-0.1-3.7,2.1c-0.4,0-0.7,0.1-1.1,0.1c-2,0.6-2.6,2.2-1.4,3.6
		c1.4,1.6,0.4,3.2,1.2,4.8c-2.5-0.6-2.5-0.6-4.4-4.1c-0.4-1.8,0.7-3.4,0.8-5.1l-0.1,0.1c0.5-0.3,0.9-0.7,1.2-1.8
		c-5.3-1.6-9.9-4.7-16.2-3.6c-7.9,1.3-16.1,1.6-23.5,5.1c-0.6,0.3-1.4,0.2-2.1,0.3c-0.6,0.3-1.2,0.5-1.8,0.8
		c-1.6,0.1-3.1,0.4-2.5,2.6c0.1,0.9-1,1-1.1,1.8c-0.3,0.5-0.6,1-0.8,1.5c-1.3,0.1-2.5,0.1-4.2,0.2c-1.1,3.8-4.1,6.9-5.4,10.9
		c-1,3-2,6-3.4,8.9c-1.5,3.2-1,6.1,1.4,8.4c2.6,2.5,2.8,5.2,1.5,8.3c-1.1,2.8-1.5,5.8-3.5,9.3c-0.8-4.7,1.1-8,2-11.5
		c-2,0.6-2,0.6-6.6,7.9c1,1.8,3,2.6,4.3,4.2c1.1,2.8-0.2,5.4-0.8,7.6c-0.3,1.7,1.1,1.9,1.5,2.9c-0.1,0.6-0.3,1.3-0.5,2
		c0.4,0.2,0.8,0.4,1.2,0.4c3.3-0.1,6.7-0.1,10-0.3c12.4-0.5,21.8,4.5,28.3,14.9c4.6,1.6,8,4.7,11.1,8.2c1.8,2,2.3,4.7,2.2,7.3
		c-0.3,6.7,0,13.3,0.1,20c0,3.1,0.8,5.9,3.1,8.1c1.6-0.9,2.1-2.3,2.5-3.6c2.9-9,3.9-18.1,1.1-27.3c-0.4-1.2-1-2.4-1.4-3.6
		c-2.1-6.4-1.2-12.7,2-18.5c1.5-2.7,2.9-5.3,4-8.1c0.9-2.2,2.4-3.9,3.5-6l-0.1,0.1c2.3-2,3.1-4.8,3.7-7.6c1.1-5.2,2.3-10.5,3-15.8
		c1-7.7-1.2-14.6-6-20.5c0.3-0.3,0.6-0.5,0.9-0.7c-0.6-1.9-3-1.4-3.4-3.5c2.3-0.5,3.5,1.8,5.4,2L824,487.4z M842.5,562.1
		c-0.1,1.1-0.3,2.1,0.4,3.2c0.6-1.2,0.2-2.2-0.5-3.1c-0.6-3.4-0.3-6.8-0.5-10.2C842.3,555.3,840.8,558.8,842.5,562.1z M750.2,538.8
		L750.2,538.8c-0.2-1.7-1.5-2.4-2.8-3.1c-4.5-2.1-9.1-3.8-14-4.6c-4.4-0.8-9-0.6-11.8,4c1,7.2,1,7.2,8.8,12.5
		c2.9,0.4,5.6-0.5,8.3-1.5c0.3-1.9-2.8-3.5-0.2-5.6c2.8,1.1,6.3,0.4,8.3,3.4c1.5-0.5,2.7-0.8,3.9-1.2
		C751.1,540.4,751.1,540.4,750.2,538.8z M708.4,590.9L708.4,590.9c-0.4,1.8-0.5,3.7-2.9,4.5c0.8,1.3,1.4,2.3,2.1,3.2
		c6.2,7.4,12.2,15,18.7,22.2c7.8,8.7,14.8,17.9,19.7,28.5c2.3,5.1,5,9.8,9.4,13.3c0.3,0.2,0.3,0.8,0.4,1.1c-0.5,0.9-1.1,1.4-2.1,1.2
		c-2.2-1.1-3.3-3.5-5-5.1c-3.4,1.3-6.5,2.9-10.4,3.2c2.9-2.7,6.4-3.5,9.2-5.3c-3-4.9-5.9-9.6-8.6-14.4c-4.5-8-10.2-15.1-15.9-22.2
		c-6.6-8.1-13.3-16-19.3-24.6c-4.1,0.9-7.4,3.7-11.4,5.4c0.9,0.9,1.7,1.7,2.4,2.6c0.6,0.8,1.7,1.5,1.3,3c-2.4-1.7-4.4-3.5-5.7-5.8
		c-9.9,1.8-19.7,3.2-29.6,5.6c3.7,6.4,5.6,13.4,8.7,19.6c1.1,1.1,2.9,0.9,3.8,2.2c-0.9,0.2-1.7,0.4-2.9,0.6c2,6.2,1.9,12.6,2.2,18.9
		c0.2,3.7,0.1,7.4-1.1,11.1c-2.2,6.9-5.2,13.5-7.5,20.3c-0.4,1.3-1.3,2.5-1,3.9c0.5,0.6,0.9,0.5,1.3,0.4c10.8-0.8,21.4-2.5,32.1-4.7
		c16.5-3.3,33-5.9,49.4-9.7c2.8-0.6,5.7-1,8.1-2.9c4.2-3.3,8.7-6.3,13.1-9.3c3.9-2.7,8.1-5.2,11.6-8.4c5.5-5.1,11.4-9.7,16.6-15.2
		c3.1-3.3,6.1-6.6,8.6-10.3c2.3-3.4,4.5-6.8,6.9-10c2.9-3.9,5.1-8.2,6.3-12.7c1.6-6,0.6-12.2,0.1-18.4c-1.2,7.6-2.3,15.3-7.8,21.6
		c-2.4-2.4-3.7-4.9-4.4-7.5c-1.7,0.5-0.8,2.7-3.2,3c3.2-5.5,1.7-11.1,1.7-16.7c0-0.7,0-1.5,0-2.2c-0.1-3.5-0.3-6.9-0.4-10.4
		c-0.1-3.7-2.3-5.9-5.5-7.7c-0.2,1.5,0.4,2.3,0.7,3.2c1.4,4.4,1.6,8.8,0.7,13.3c-0.3,1.7-1.1,3.3-1.4,5c-1.2,8.8-6,15.6-12.2,21.5
		c-7.4,7-15.4,7.8-24.3,2.9c-1.5-0.8-2.9-2-4.5-2.7c-4.5-2-7.2-5.6-9.4-9.8c-1.7-3.2-2.5-6.7-2.9-10.4c-12.9-0.5-25.6,0.2-38.1-1.2
		c-1.1,2.2-1.2,4.1-0.8,6.2C706.2,590.9,707.3,590.9,708.4,590.9z M525.8,545.7c2.2,0.3,3.3,2.1,4.6,3.6c4.4,5,7,11,9.1,17.1
		c2.6,7.5,6.2,14.7,9.1,22.1c1.2,3.1,2.8,6,4.7,8.8c5.7,8.7,11.6,17.3,17.5,25.9c4.2,6.1,8,12.3,9.5,19.8c1.3,6.1,4.7,11.5,5.8,17.9
		c1.1-0.6,1.2-1.2,1.4-1.7c2.9-7.3,7.2-13.8,13-18.7c9.7-8.1,18.2-17.4,27.2-26.2c4.4-4.4,7.7-9.7,8.5-15.6
		c-1.6-4.5-4.1-7.6-6.9-10.6c-1.6-1.7-3-3.5-4.5-5.3c-5.7-6.5-11.1-13.3-17.4-19.4c-12.8-12.6-26.1-24.7-39.4-36.8
		c-5.3-4.8-10.2-9.8-14.5-15.5c-0.9-1.2-1.8-2.1-3.1-2.9c-4-2.5-8-4.4-12.6-5.5c-2-0.4-3.8-0.7-5.5,0.2c-3.7,2-7.8,2.1-11.8,2.3
		c-2,0.1-4,0-6,0c0.6,1.2,2.2,0.8,2.6,2.3c-1.8-0.6-3.8-0.4-5.2-1.9c-0.7-0.7-1.6-0.6-2.4-0.7c-4-0.3-8.1-0.4-12.1-0.8
		c-9.2-1-18.5-0.7-27.7-1.5c-16.7-1.5-33.4-3-50.3-2.2c-0.6,0-1.2,0-1.7-0.1c-6.6-0.6-13.3-0.6-20-0.9c-5.9-0.3-11.8-0.3-17.8-1.2
		c-3.3,3.5-7.2,6.5-11.3,9.6c2.8,1.7,4.4,4,4.7,6.5c1.5,1.4,3.7,0.5,4.7,2.5c-2,0.5-3.7,0.6-5.5,0.1c-1.4-1.8-2.5-4-4.5-5.7
		c0.6,6.5,1.3,7.1,6.8,8.6c3.3,0.9,6.6,0.4,9.8,0.8c4.4,0.6,8.9,1,13.4,1.6c7.3,1.1,14.6,1.5,21.9,3c5.4,1.1,10.6,3,16.1,3.4
		c4.6,0.3,8.7,2.1,12.6,4.4c4.3,2.5,8.8,4.3,13.5,5.8s9.4,2.9,13.9,4.9c5.1,2.3,10.6,3.3,16.1,2.8c8.6-0.8,17.3-1.3,25.6-4.5
		c3.9-1.5,7.7-0.2,11.3,1.3c2.1,0.9,3.5,2.9,4.8,5.5c-3.2-0.8-4.4-3.4-6.9-4.1c-0.3,0.4-0.5,0.7-0.7,1.1c-1.5-0.8-2.8-2.4-5.2-1.5
		c3.1,2.4,5,5.2,6.1,8.5c-2.9-2.7-6.4-4.8-8.9-8.1c-1.7,0.7-3.6,1.3-5.5,2.6c4.5,2.7,7.1,6.4,9.3,10.6c2.1,4,4.1,8,6.3,11.9
		c3.7,6.5,7.5,13,11.1,19.5c1,1.8,2.9,2.8,3.9,4.6c3.8,6.6,9,12,14.2,17.5c0.6,0.6,1.1,1.5,2.6,1.7c-3.1-4.2-5.3-8.3-8.2-11.9
		c-3.6-4.4-6.5-9.3-8-14.8c-0.9-3.4-1.7-6.9-3-10.2c-2.1-5.4-4.2-10.7-6.6-16C531.8,555.1,528.4,550.6,525.8,545.7z M379.7,489.6
		c4.8,1.4,9,3,12.5,5.7c1.4,1.1,2.9,1,4.5,1.1c5.5,0.3,10.9,0.8,16.4,1.1c2.7,0.2,5.5,0.5,8.2,0.1c4.3-0.6,8.6-0.4,13-0.5
		c5.3-0.1,10.6,1.1,16.5,0.6c-2.5-1.7-4.9-2.1-7.2-2.6c-1.8-0.4-3.7-0.6-5.4-1.4c-9.6-4.7-19.4-8.6-28.2-15
		c-8.7-6.4-17.6-12.6-26-19.3c-5,4-6.5,7-6.3,13.5c1.7,2.1,3.9,4,4.7,6.4c1.7,1.1,3.7-0.6,4.8,1.6
		C385.4,484.2,384.2,488,379.7,489.6z M807.4,621.5c2.2,0.8,3.4,0.8,4.4-0.2c1.6-1.6,3.4-3.2,4.6-5.2c1.1-1.9,2-4,1.4-6.1
		c-0.7-2.3-0.1-4.2,0.7-6.2c1.2-3.3,1.5-6.7,0.6-10.1C819.3,604.4,814.3,613.2,807.4,621.5z M726.8,548.1c-3.1-2-5.3-4.7-7-8.8
		c-0.4,4,1.2,6.3,2.7,8.8C724,548.1,725.4,548.1,726.8,548.1z M739.4,542.4c1,1.8,1.6,2.6,2.7,3c0.7-0.1,1.4-0.3,1.6-1.3
		C742.5,543.7,741.4,543.3,739.4,542.4z M384.7,494.7c-1.7,0-2.5,0.5-3.1,2.2C383.2,496.7,384.2,496.4,384.7,494.7z M847.3,508.3
		c-0.3-0.7,0.5-1.6-0.6-2.5C847,506.8,846.4,507.6,847.3,508.3z"/>
	<path d="M327.2,451.6c-0.6-2.2-1.7-3.9-3-5.5c-3.8-4.8-5.8-10.1-5-16.4c0.2-1.6-0.6-3.4-1-5c-1.4-6.1-2.5-12.2-1.3-18.5
		c0.6-3.1,1-6.3,4.3-8c1.1-0.6,1.4-1.8,1.9-2.8c1.7-3.1,3.9-5.8,6.4-8.2c2.9-2.7,6.5-3.2,9.8-1.5c-0.8,1.6-2.5,0.2-3.5,1.1
		c-0.9,2.1-1.8,4.2-2.8,6.4c-1.3-2,0.9-3.6,0.1-5.4c-1.2,0-1.8,0.9-2.4,1.6c-2.2,2.3-4.3,4.7-6.5,7c-3,3.2-4.6,6.9-4.7,11.3
		c-0.2,4.9,0.4,9.8,0.9,14.6c1.4-0.2,1.4-2.1,3.2-1.7c0.2,2.3-2.1,2.7-3.1,4c-0.9,5.6,0.7,10.8,2.5,16.1c0.5,1.3,1.4,2.2,2.3,3.1
		c1.5,1.6,2.8,3.3,3.7,5.3c1,2.2,1.1,4.4,0,6.7c-1.9,3.8-2.3,7.6-1.1,11.8c1,3.6,1.7,7.3,2.1,11.1c0.7,7.5,3.2,14,8.2,19.6
		c-1.2,1-2,0.4-2.7-0.4c-2.5-2.7-4.5-5.6-5.6-9.2c-2.3-7.9-4.1-16-5.2-24.2c-0.3-2.2-0.3-4.3,0.4-6.4
		C326.1,455.9,326.7,453.7,327.2,451.6z"/>
	<path d="M820.6,533.5c-1.3-0.8-0.8-2-0.6-3.1c1.4-8.9,1.8-17.8,1.7-26.8c0-2,0.1-4.1-0.9-6.7c-0.4,3.7-0.7,6.7-0.9,9.6
		c-0.9,9.7-3,19.1-5.3,28.5c-0.8,3.1-2.8,5.7-4.7,8.3c1.7-4.7,3.7-9.2,3.5-14.5c-1.2,7.3-7.4,10.2-12,14.4c-0.2-0.2-0.5-0.4-0.7-0.6
		c1.2-1.2,2.4-2.5,3.7-3.7c4.7-4,7.3-9.2,8.5-15.2c2.2-10.2,4.2-20.3,4.5-30.8c0-0.7,0.2-1.4,0.3-2.1c2.2-0.7,2.9,0.8,3.6,2.2
		c2,3.5,2.4,7.4,2.5,11.3c0.3,9.9-0.5,19.6-3.4,29.2H820.6z"/>
	<path d="M321.4,118.4c-2.3,4.7-2.5,9.7-2.1,14.8c0.2,2.9,0.4,5.7,0.5,8.6c1.7,0.4,1.6-2.3,3.3-1.6c-0.7,2.2-0.7,2.2-3.2,4.2
		c0,3.9,0.1,7.9,1.4,11.8c0.9,3,2.2,5.8,4.5,8.2c3.3,3.4,4.9,7.3,2.3,12.2c-1.5,2.9-1.8,6.2-0.8,9.7c1.1,3.9,1.9,7.9,2.4,11.9
		c1.5,12.3,3.3,12.3,7.9,19.8c-1.1,1-1.8,0.2-2.5-0.5c-2.6-2.8-4.6-5.9-5.7-9.6c-2.4-8.1-4-16.3-5.2-24.6c-0.4-2.7,0.2-5.2,1.2-7.6
		c2-4.8,0.4-8.3-3.4-11.3l0.1,0.1c-2.3-4.8-4-9.7-3.7-15.3c0.2-3.6-1.4-7.3-2-11c-0.9-5.2-1-10.4,0.6-15.4c0.6-1.9,1-4.4,3.9-4.6
		C321.2,118.1,321.3,118.2,321.4,118.4z"/>
	<path d="M809.3,488.3c-0.3,1.2,0.4,2.2,0.6,3.1c-6,7.9-12.2,15.4-20,21.5c0.2-0.5,0,0.3-0.3-0.2c-0.1-0.1-0.1-0.3,0-0.4
		c3.7-4.2,7.3-8.4,11.4-13.1c-3,0.4-4.5,2.7-6.9,2.9c0.2-1.9,2.8-1.6,3.1-3.4l-0.1,0.1c3.5-1,6.2-3.1,9.2-6c-1,0-1.4,0-1.8,0
		c-0.7-0.1-1.4-0.1-2.1-0.2c-6.7,3.2-12.6,7.5-18.7,11.7c-1.1,0.8-2.3,1.6-3.7,2c2.9-4.3,7.4-6.7,11.2-10c1.5-0.5,2.8-1.2,3.7-2.6
		c-1.5,0.5-3,0.9-4.1,2c-3.3,1.2-6.2,3.3-9.4,4.9c-1.1,0.5-2,1.6-3.4,1.4l0.1,0.1c-0.2-0.7,0.2-1.1,0.7-1.4
		c8.8-7.4,18.6-13.1,29.8-16.2c0.5,0.5,1,0.8,1.4,1.2c0.3,0.3,0.5,0.6,0.8,0.9C810.4,487.4,810.2,488.1,809.3,488.3
		c0-0.4-0.1-0.8-0.1-1.2c-0.8-0.1-1.4,0.1-1.7,0.9C807.9,488.7,808.7,488.1,809.3,488.3z"/>
	<path d="M831.3,559.2c1.5,2.3,3.6,4.3,5.6,7.3c-1.2-16.1-4.1-31.3-3-46.7c0.6,5.8,0.3,11.7,2,17.4c0.9-12.3,4.2-24.3,4.1-36.7
		c0.9,6.2,0.5,12.5-0.4,18.6c-1.2,7.8-1.4,15.5-0.9,23.4c0.2,3.3,0,6.6-0.2,10c-0.7-3.7-0.5-7.6-1.9-12c-0.3,3.7-0.3,6.6,0.1,9.4
		c0.7,4.7,1,9.5,1.7,14.2c1.5,9.8,6.4,17.9,12.3,25.5c0.7,0.9,1.8,1.4,1.9,2.7c-1.1,0.7-1.6-0.2-2.2-0.7c-2.1-2.2-4-4.6-5.6-7.2
		c-4.1-7-8.1-14-12.1-21.1C832,562.2,831.2,560.9,831.3,559.2z"/>
	<path d="M824.2,487.5c-0.2-1.7-2.1-1.8-2.9-3.1c0.8-1,1.4-0.2,2.1,0.1c6.4,3.5,9.7,8.9,10.4,16c0.8,7.1,0.4,13.9-1.4,21
		c-2,8.1-2.7,16.5-4,24.8c-0.3,2,0.1,4,0.7,6.1c-0.5,0-0.8,0-1.2,0c-0.9,2.3,1.3,4.8-0.3,7l0.1-0.1c-1.3-0.4-1.1-1.6-1.3-2.5
		c-0.9-5.9-0.9-11.8,0.2-17.7c2-10.8,4.1-21.6,5-32.6c0.4-4.8,0-9.6-2.3-13.9c-1.2-2.2-2.3-4.7-5.2-5.4L824.2,487.5z"/>
	<path d="M784.3,514.9c7,4.7,7.1,11.1,4.8,16.8c-1.5,3.7-5,6.7-9.2,7.9c-1.6,0.5-3.4,0.2-3.9-2.6c1.9,0.3,3.8,1.8,5.3,0.2
		c2.2-2.2,5-3.9,5.7-7.4c1-4.8,0.8-9.2-3.2-12.8c-2.8,1.1-5.5,2.2-8.4,3.1c-1.8,0.5-3.8,1.9-5.7-0.2c0.4-0.2,0.8-0.5,1.5-0.9
		c-1.2-0.9-2.6-1.8-2.6-3.7c3.7-1.4,7.9-0.8,11.7-1.8c-2.1,1.6-4.7,2.1-7.4,3.2C777.4,519.1,780.7,516,784.3,514.9z"/>
	<path d="M764,497.9c2.2-0.9,2.7-3.7,4.9-4.5c-1-1.3-1.9,0.3-2.8-0.3c-0.8-0.9,0.4-1.5,0.4-2.3c0-0.7-0.8-1.2-0.3-2.2
		c3.6-1.7,7.6-2.5,12.5-4.2c-2.4,2.7-5.4,2-7.1,3.8c-1.6,0-3.1,0.4-4.4,1.9c2.1,0.4,3.2-1.2,4.8-1.1c-0.2,0.5-0.4,0.9-0.7,1.6
		c13.2-3.9,26.3-7.2,40.2-8.4c-2.4,1.5-2.4,1.5-4.2,1.7c-12.3,1.4-24.1,4.7-35.4,9.7c-1.9,0.8-3.5,1.9-4.9,3.2c0.2,1,0.9,0.8,1.4,1
		l-0.1-0.1c-1.4,1.2-2.8,1.4-4.2-0.1L764,497.9z"/>
	<path d="M332.4,183.5c0.1-0.8,0.2-1.7,0.3-2.5c4.4,3.7,4.3,9.1,4.8,14.2c0.4,3.7,0.2,7.4,2,11.2c-2.1-0.3-2.8-1.7-3.6-2.7
		c-3.4-4.7-5.2-9.9-5.1-15.7c0-1.7,0.2-3.4,1.6-4.7c-0.5,5.6,0.2,11,3.1,16c0-4.3-0.2-8.6-0.7-12.8
		C334.8,185.2,334.2,183.8,332.4,183.5z"/>
	<path d="M333.5,462.4c2.3,1.5,3.3,3.6,3.8,6.2c0.7,3.7,0.7,7.4,1.2,11.1c0.3,2.2,0.3,4.6,1.8,7.1c-2.4-0.3-3.2-1.8-3.9-2.9
		c-3.4-5.2-5.3-10.8-4.6-17.1c0.2-1.3,0.3-2.6,1.9-3c-2.1,5.7,0.3,10.8,2.2,16c0.2-2.8,0.2-5.6,0.2-8.5c0-1.1-0.2-2.3-0.3-3.4
		c-0.3-1.6-0.7-3.1-2.1-4C333.6,463.4,333.6,462.8,333.5,462.4L333.5,462.4z"/>
	<path d="M813.7,476.1c-1-0.2-1.8,0.6-2.9,0.3c-13.9-4.1-27.1-2.1-39.8,4.5c-0.5,0.3-1.1,0.4-1.6,0.5c-0.1-0.1-0.2-0.3-0.3-0.4
		c0.5-0.8,1.4-1.3,1.2-2.4c0.5,0.2,0.8,0.7,1.5,0.4c6.9-3.3,14.2-5.3,21.9-6.1c5.9-0.6,11.8-0.2,17.5,1.2
		C812.4,474.4,813.4,474.6,813.7,476.1L813.7,476.1z"/>
	<path d="M783.7,518.8c2.3,4.2,2.4,4.9,1.9,9.5c-0.9,1.6-3.1,2.7-3,5.3c-1.1-2-3.8-0.9-4.6-3c-0.4-1.6,1.2-2.2,1.5-3.5
		c0-1.3-1.4-2.1-1.5-3.5C778.3,522,780.1,520.4,783.7,518.8z M781.2,525c0.7,1.4-0.2,3,1.3,4c2.3-1.8,2.3-1.8,0.9-4.9
		C782.6,523.8,782.1,524.4,781.2,525z"/>
	<path d="M321,118c1.9-4.3,4.5-8,7.9-11.2c2.9-2.8,6.3-3.4,9.8-1.8c-0.5,1.8-2.4,0.4-3,1.2c-0.3,0.3-0.5,0.3-0.5,0.4
		c-1.1,2.1-1.5,4.6-3.2,6.9c-0.3-2.4,1-4.1,1-6.5c-2.9,1.1-4,3.8-5.9,5.6c-2,1.9-3.8,3.9-5.7,5.9C321.3,118.2,321.2,118.1,321,118z"
		/>
	<path d="M335.6,427.5c2.7,5,5.7,10,8.4,15c2.3,4.3,3,9.3,3.5,14.2c0.3,3,1.4,5.9,0.7,9.3c-1.3-1.3-1.3-2.7-1.5-4.1
		c-0.7-5-1.4-10-2.4-15c-0.5-2.5-1.3-4.6-2.8-6.7C338.7,436.5,336.6,432.3,335.6,427.5z"/>
	<path d="M358.8,192.2c-2.7-6.8-2.7-7,1.1-10.5c4.3-0.1,6.3,1.2,6.7,4.3c0.2,1.3,0,2.6-0.8,3.7c-0.8,1.1-1.9,1.7-3.3,1.8
		C361.1,191.5,359.8,191.4,358.8,192.2z M362,189.4c2.6-1.4,3.3-2.7,2.2-4.5c-0.9-1.4-2.7-1.8-4.1-0.8c-1.2,0.8-1.7,1.9-1,3.4
		c0.7-0.1,1.3-0.1,1.9-0.2C361.8,187.8,361,188.8,362,189.4z"/>
	<path d="M357.1,471.2c-1.8-4.3-3.3-7.9,1.2-10.6c4.2-0.2,6.2,1.1,6.7,4.2c0.3,2.1-0.7,4.3-2.4,5.2
		C360.8,470.7,358.8,469.7,357.1,471.2z M360.2,468.4c2.9-1.5,3.5-2.9,2.4-4.6c-0.9-1.4-2.7-1.8-4.1-0.8c-1.2,0.8-1.7,1.9-1,3.4
		c0.7-0.1,1.3-0.1,2-0.2C359.8,466.8,359.9,467.4,360.2,468.4z"/>
	<path d="M827.6,559.6c2.2,2.8,3,6.2,4.6,9.3c2.6,4.8,5.2,9.7,7.8,14.5c0.5,0.9,1.4,1.8,1,3c-0.7,0.2-1-0.1-1.2-0.4
		c-2.3-3.5-4.6-7-6.8-10.6C830,570.5,828.4,565.2,827.6,559.6L827.6,559.6z"/>
	<path d="M795.3,529.2c2.5,0.6,4.3,0.3,6.2-2.1c3.9-4.8,7.6-9.8,12-15.5c-0.7,2.8-2,4.3-2.9,5.9c-2.1,3.7-5.3,6.6-6.8,10.7
		c-0.9,2.3-3.7,3.1-7.2,3.2c-1.3,1,0.6,2.1-0.1,3.2c-1.6-0.5-1.9-1.9-2.4-3.2C794.1,530.4,795,529.9,795.3,529.2L795.3,529.2z"/>
	<path d="M360.1,181.1c-2.9,0-4.9-1.9-5-4.8c-0.1-2.8,2-5.1,4.8-5.1c2.7,0,4.9,2.1,5,4.9C365,179.1,363.1,181,360.1,181.1z
		 M362.9,176.3c0.1-1.7-1.1-3.1-2.7-3.2c-1.6-0.1-3,1.2-3.1,2.8c-0.1,1.8,1,3,2.8,3.1C361.7,179.1,362.8,178.1,362.9,176.3z"/>
	<path d="M358.2,449.9c2.7-0.1,4.9,2,5.1,4.8c0.2,3-1.6,5-4.6,5.1c-2.9,0.1-5-1.8-5.1-4.7C353.4,452.4,355.5,450,358.2,449.9z
		 M358.4,451.9c-1.6,0-2.9,1.4-2.9,3c0,1.8,1.2,2.9,3,2.8c1.8,0,2.9-1.2,2.9-2.9C361.3,453.2,360,451.9,358.4,451.9z"/>
	<path d="M360.5,440.4c0,2.6,2,4.8-0.1,7.1c-1,1.2-1.6,1.1-4.8,0c-0.8,0.5-1.7,1-2.7,1.6c-0.8-2.5,1.9-3,1.9-4.6
		c0-2.3-2.8-0.5-3.1-2.9C354.4,441.2,357,440.2,360.5,440.4z M358.3,446.5c1.4-2.2,1.4-3.5,0-4.1c-0.6,0-1.1,0.1-1.6,0.8
		C356.7,444.4,356.7,445.8,358.3,446.5z"/>
	<path d="M356.3,165.2c-0.4-1.6-2.7,0-3-2.4c2.8-0.5,5.5-1.5,8.8-1.3c0,2.5,2.1,4.8-0.1,7.1c-1.5,1.6-3.1,0.9-4.7,0.1
		c-1.2-0.1-1.7,1.4-2.9,1.4C353.4,167.7,356.8,167.2,356.3,165.2z M359.8,167.8c1.5-2.4,1.5-3.6,0.1-4.3c-0.6,0-1.1,0.1-1.5,0.7
		C358.2,165.5,358.4,166.7,359.8,167.8z"/>
	<path d="M331.5,115c1,3.3,2.1,17.6,1.7,21c-1.7-3.2-1.2-6.6-2.2-9.8c-1.7-0.5-2.9,1.1-4.7,1.2c0.8-2,2.8-2.7,4.3-4.1
		C331.3,121,330.4,118.3,331.5,115z"/>
	<path d="M792.8,515.8c6.7-7.5,13.8-14.7,18.7-23.7C808.6,502.6,800.2,508.8,792.8,515.8z"/>
	<path d="M817.4,476.9c0.4,0,0.7-0.1,1.1-0.1c10.5-3.4,18.7,3.7,20.2,11.2c-1.2-0.6-1.5-1.7-2-2.6c-3.7-5.6-8.7-8.3-15.4-7.8
		C819.9,477.8,818.3,478.9,817.4,476.9z"/>
	<path d="M331.5,403.7c0.2-2.5-0.3-5,1.2-7.4c0.6,6.9,1.1,13.7,1.7,20.6c-2.4-3-1.8-6.7-2.9-10c-1.3-0.9-2.3,1.2-3.8,0.3
		C328.3,405.4,330.2,405,331.5,403.7z"/>
	<path d="M771.9,508.3c0.6,0.3,1.2,0.7,2.9,1.6c-3,0.4-4.9,0.4-6.9-0.1c3.4,3.5,7.9,1.4,11.8,2.5c-5,1.7-6.6,1.5-11.9-0.1
		c-1.6-1.7-2.5-3.9-3.6-5.8c0.6-0.9,1.2-0.7,1.7-0.6l-0.2-0.1c1,2,2.8,2.7,4.8,2.8C771,508.4,771.5,508.3,771.9,508.3z"/>
	<path d="M342,160.9c1,0.1,1.5,0.8,1.7,1.7c1.9,6.7,3.5,13.5,3.8,20.4c0,0.6,0.1,1.2-0.6,1.8c-1.6-4.1-1.4-8.5-2.2-12.6
		C344,168.3,343.5,164.5,342,160.9L342,160.9z"/>
	<path d="M815.2,489.8c-1.1,8.4-6.2,15.1-10.5,22.1C807.6,504.3,812.3,497.5,815.2,489.8z"/>
	<path d="M765.9,505.7c-1.6-1.1-2.6-2.6-4.1-4.6c3.8,0.9,7.1,1.6,10.5,2.5c-1.4,1.8-3.1,0.2-4.5,1c0.1,0.5,0.2,0.9,0.2,1.3
		c-0.8-0.1-1.6-0.2-2.4-0.2L765.9,505.7z"/>
	<path d="M657.4,639.4c0-4.8,0-9.7,0-15.2C660,629.7,658,634.6,657.4,639.4z"/>
	<path d="M659.8,350.2c2,6.3,1.2,12.8,1.1,19.2C660.5,363,660.2,356.6,659.8,350.2z"/>
	<path d="M794.7,543c3.3,4.9,3.1,6.4-1.5,10.7C795.1,550.3,796.5,546.9,794.7,543z"/>
	<path d="M679.5,326.9c-1-0.4-2.2-0.7-3.1-1.4c-1.3-1-1.9-2.4-0.4-4.1c2.7,1,3.3,3.2,3.3,5.6L679.5,326.9z"/>
	<path d="M795.4,529.2c-1,0-2,0-3.5,0c0.9-1.8,0.2-2.9-1-3.9c1.1-0.6,1.6,0.1,2.1,0.5c0.6,0.4,1.1,0.9,1.2,0.9
		c2.3,1.1,3.9-0.3,5.6,0.2C798.7,528.5,796.6,527.9,795.4,529.2L795.4,529.2z"/>
	<path d="M340.3,158.3c-3-3.3-4.4-7.4-5.4-11.7c1.8,3.8,4.4,7.3,5.7,11.4L340.3,158.3z"/>
	<path d="M660.5,631.9c0.2,0.2,0.6,0.3,0.6,0.5c0.6,4.9,0.6,9.9-0.5,14.8c0-5.2,0-10.3,0-15.5L660.5,631.9z"/>
	<path d="M800.7,476.4c3.8-0.3,7.5-0.3,10.4,2.8C807.8,477.8,804.2,477.3,800.7,476.4z"/>
	<path d="M657.1,345.3c1.3,3.9,0.7,7.9,0,11.9C657.1,353.2,657.1,349.3,657.1,345.3z"/>
	<path d="M349.6,200c1.9,2.8,0.6,5.3-0.4,7.9C348.8,205.2,350,202.6,349.6,200z"/>
	<path d="M324.9,428.5c1.6,2.9,3.5,5.7,3.1,9.3C327,434.7,325.9,431.6,324.9,428.5z"/>
	<path d="M327.7,157.3c-1.5-2.4-1.5-5.3-2.9-7.8C327.5,153.4,327.5,153.6,327.7,157.3z"/>
	<path d="M804.9,534.4c-1.8,2.7-4.5,3.4-7.5,3.8C799.9,536.8,802.2,535.1,804.9,534.4L804.9,534.4z"/>
	<path d="M690,322.2c1.6,1.5,3.2,3,4.3,5.2C691.4,325.6,691.4,325.6,690,322.2z"/>
	<path d="M350.4,481.1c0.7,2.5,0.9,5-0.9,7.3C349.8,486,350.1,483.5,350.4,481.1z"/>
	<path d="M686.2,576.1c-2-0.9-4-1.8-6.4-2.9C683,573,683.6,573.3,686.2,576.1z"/>
	<path d="M778.4,588.5c-1.9-1.1-2.3-2.9-2.7-4.8C777.6,584.8,777.5,586.9,778.4,588.5z"/>
	<path d="M324.6,407.5c0,2.3,0,4.5,0,6.8C324.2,412.1,324,409.8,324.6,407.5z"/>
	<path d="M327.6,429.6c1.3-1.2,2.5-2.1,3.7-3.2C331.2,428.8,331.2,428.8,327.6,429.6z"/>
	<path d="M679.4,327c2.8-0.4,2.8,2,3.5,3.6c-1.7-0.7-2.6-2.2-3.3-3.8L679.4,327z"/>
	<path fill="none" d="M772.1,489.1c-1.6-0.2-2.7,1.5-4.8,1.1c1.4-1.5,2.8-1.9,4.4-1.9C772.1,488.4,772.4,488.6,772.1,489.1z"/>
	<path d="M768.4,497.9c1.6-1.2,3.5-1.7,6.2-1.7C772.2,497.6,770.4,498.2,768.4,497.9L768.4,497.9z"/>
	<path fill="none" d="M765.7,505.7c0.8,0.1,1.6,0.2,2.4,0.2c0.3,0.2,0.6,0.4,1,0.6c0.5,0.6,1,1.3,1.5,1.9
		C768.5,508.3,766.8,507.6,765.7,505.7z"/>
	<path d="M773.8,483.4c-1.5,0.7-3,1.6-5.4,1.3C770.5,483.5,772,483,773.8,483.4z"/>
	<path d="M330,413.4c0.2,2.1-1.2,2.4-2.4,3.3C327.5,414.9,328.2,414,330,413.4z"/>
	<path d="M329.8,132.8c-0.4,2.2-1.6,2.7-3.4,3.7C327.1,134.4,327.6,133.3,329.8,132.8z"/>
	<path d="M347.2,190.5c1.3,1.1,1.2,2.7,2.1,4.9c-2-1.8-2-3.4-2-5L347.2,190.5z"/>
	<path d="M330.8,170.4c0.6-2,1.8-2.1,3.2-2.5C333.2,169.4,332.3,170,330.8,170.4z"/>
	<path d="M815.9,558.4c-0.6-1.9-0.2-3.2,0.8-4.7C817.2,555.5,816.2,556.7,815.9,558.4z"/>
	<path d="M330.8,146.2c0.2,1.6-0.5,2.3-2,2.4C328.4,146.9,329.9,146.8,330.8,146.2z"/>
	<path d="M802.3,492.7c0.7,0.1,1.4,0.1,2.1,0.2c-1,1.1-2.1,2.2-3.7,2.6c-0.1-0.1-0.2-0.3-0.3-0.4
		C800.8,494.1,802.1,493.8,802.3,492.7z"/>
	<path d="M778,502.2c-0.4,1.6-1.7,2.1-3.5,3C775.3,503.1,776.5,502.5,778,502.2L778,502.2z"/>
	<path d="M666.8,567.4c0.8-0.8,1.4-0.8,2-0.4C668.3,567.6,667.9,568.4,666.8,567.4z"/>
	<path d="M348,469.2c0.1,1,0.6,1.9-0.1,2.9C347.6,471.1,347.4,470.2,348,469.2z"/>
	<path d="M323.5,127.7c0.4,0.6,0.4,1.3,0,1.9C323.1,128.9,323.2,128.3,323.5,127.7z"/>
	<path d="M660.6,631.8c-0.8-0.8-0.9-1.7-0.4-2.7c0.5,0.9,0.4,1.9,0.3,2.8L660.6,631.8z"/>
	<path d="M347.3,190.4c-0.6-0.7-0.6-1.5-0.5-2.4c0.5,0.8,0.4,1.6,0.4,2.5L347.3,190.4z"/>
	<path d="M342.1,160.8c-1.2-0.4-1.7-1.3-1.9-2.5l0.2-0.2C341.4,158.8,342.4,159.5,342.1,160.8L342.1,160.8z"/>
	<path d="M766.7,482.9c0.3-0.5,0.6-1,0.8-1.5c0.5-0.1,1-0.2,1.5-0.2c0.1,0.1,0.2,0.3,0.3,0.4C768.7,482.4,768,483.2,766.7,482.9z"/>
	<path d="M797.9,496.9c0.5-1.1,1.4-1.6,2.5-1.9c0.1,0.1,0.2,0.3,0.3,0.4c-0.6,1-1.4,1.7-2.7,1.7L797.9,496.9z"/>
	<path d="M839.3,498c-0.1-0.6-0.4-1.3,0.1-1.9C839.6,496.7,839.8,497.4,839.3,498z"/>
	<path d="M764.2,497.7c-0.5,0.2-1,0.4-1.5,0.6c-0.6-1.3,0.2-1.7,1.1-2c0.5,0.5,0.2,1.1,0.3,1.6L764.2,497.7z"/>
	<path d="M797.2,498.7c-0.4-0.1-0.8-0.2-1.6-0.3c0.8-0.8,1.3-1.5,2.3-1.5l0.1,0.2c-0.3,0.6-0.7,1.1-1,1.7L797.2,498.7z"/>
	<path d="M320.6,132c-0.2-1.7,0.4-2,1.4-1.7C322.3,131.4,321.3,131.4,320.6,132z"/>
	<path d="M333.6,462.3c-0.9-0.7-0.6-1.7-0.7-3.3C333.5,460.6,333.7,461.4,333.6,462.3L333.6,462.3z"/>
	<path d="M333.7,449.2c-0.6,1-1.1,1.5-2.1,1.6C331.5,449.4,332.2,449.1,333.7,449.2z"/>
	<path d="M770.6,508.4c-0.5-0.6-1-1.3-1.5-1.9c1.5-0.3,2.3,0.6,2.9,1.8C771.5,508.3,771,508.4,770.6,508.4z"/>
	<path d="M323.7,436.7c-0.4-0.6-0.4-1,0-1.3s0.8-0.1,0.9,0.3C324.7,436.3,324.4,436.6,323.7,436.7z"/>
	<path d="M324.2,135.6c0-0.5-0.1-1.1-0.1-1.6c0.1,0,0.2,0,0.3,0c0,0.5,0.1,1.1,0.1,1.6C324.4,135.5,324.3,135.6,324.2,135.6z"/>
	<path d="M746.8,383c1-0.5,1.8-0.8,2.6-0.1C748.7,383.5,747.9,383.6,746.8,383z"/>
	<path d="M805,534.4c0.2-1,1-1.2,1.8-1.5C806.7,534.1,806,534.5,805,534.4L805,534.4z"/>
	<path d="M819.7,549.2c0,1-0.4,1.8-1.5,2.6C818.2,550.4,818.6,549.6,819.7,549.2L819.7,549.2z"/>
	<path d="M739.7,550.4c-0.6,0.5-0.9,0.8-1.2,1c-0.2,0.1-0.5,0-0.8,0C738,550.3,738.6,550.1,739.7,550.4z"/>
	<path fill="none" d="M529.3,266.7c1.1,0,1.8,1.4,3.4,1.1c-2.1-3.4-4.4-5.8-8.6-6.4c-3.7-0.6-7.1-0.4-10.5,1.1
		c-3.5,1.5-7.3,2-11,2.3c-6.3,0.5-12.6,2.2-19,0.7c-2.1-0.5-4.4-0.6-6.3-1.5c-7.6-3.6-15.9-5.2-23.7-8.5c-4-1.7-7.5-4.4-11.7-5.7
		c-1.9-0.6-3.8-1.4-5.8-1.5c-6.1-0.4-11.9-2.5-17.8-3.7c-7-1.4-14.1-1.8-21.1-2.8c-5-0.7-10.1-1.4-15.1-1.7
		c-3.2-0.2-6.3-0.2-9.4-1.1c-4.3-1.2-5.3-2.7-5.1-7.5c1.3,0.3,1.6,1.6,2.4,2.4c0.7,0.7,1.1,1.6,1.7,2.4c1.9,0.5,3.7,0.5,5.7-0.1
		c-1-1.9-3-1.1-4.6-2.2c-0.8-2.5-1.8-5.2-4.8-6.8c4-3.3,8-6.2,11.2-9.7c5.7,1.2,11.3,0.9,16.9,1.2c7.1,0.4,14.2,0.3,21.3,0.9
		c0.6,0.1,1.2,0.1,1.7,0c18-0.5,35.8,0.9,53.7,2.6c2.7,0.3,5.5,0.5,8.2,0.5c9.1-0.2,18.2,1.1,27.3,1.4c1.2,0,2.2,0.1,3.2,0.9
		c1.5,1.2,3.4,1.4,6.1,1.7c-1.6-0.8-2.5-1.3-3.2-1.7c-0.2-0.5-0.1-0.6,0.3-0.6c3.3,0.2,6.7,0.2,10-0.2c1.4-0.2,3-0.2,4.2-0.9
		c6.4-3.5,11.9-0.5,17.5,2.2c3.7,1.8,6.5,4.7,9,7.9c7.6,9.5,17.2,17.2,26.1,25.4c15.4,14.2,30.9,28.5,44,45c3.5,4.4,8,8,10,14.2
		c-0.6,5.9-4,11.3-8.4,15.6c-9,8.8-17.5,18.1-27.2,26.2c-6.3,5.3-10.8,12.4-13.7,20.2c-0.6,0.1-0.9-0.2-1-0.6
		c-1.5-7.7-5.4-14.6-7.1-22.3c-1.4-6-5.5-10.8-8.9-15.8c-6.3-9.2-12.9-18.2-18.4-27.9c-4.6-8.2-7.8-17.1-11.2-25.8
		c-2.6-6.6-5-13.3-9.7-18.8c-0.5-0.5-0.7-1.3-1-1.9C529,266.9,529.2,266.8,529.3,266.7z M569.6,306.6c-1.6-4.4-5.3-10.3-8-12.6
		C564.1,299,566.4,303.1,569.6,306.6z M499.7,241.1c5.4,2,9.3,2.6,12.4,2C508.1,241.2,504.3,240.9,499.7,241.1z M553.9,235.1
		c-2.4-2.4-2.4-2.4-5.4-2.3C550.3,234.1,551.9,235,553.9,235.1z M576.2,315c0.6,1.9,1.7,3.4,3.6,3.9
		C578.7,317.5,578.1,315.7,576.2,315z M537.8,273.9c-2.1-3.5-2.1-3.5-4.7-4.7C534.5,271,535.6,272.4,537.8,273.9z M495.4,241.3
		c-2.1-0.7-4.2-1.1-7.1,0C491.1,241.8,493.2,242.3,495.4,241.3z M384.3,236.8c-0.7-1-1.5-1.4-2.8-0.6
		C382.4,237.1,383.1,237.5,384.3,236.8z M479.1,240.6c0.6,0.7,1.1,1.2,2,0.1C480.5,240.2,480,240.1,479.1,240.6z"/>
	<path fill="none" d="M721.5,302.3c-0.3,0.5-0.5,1,0.2,1.9c3.6-1.4,5.6-5,9.1-6.8c7,0,12.7,2.9,17.1,8.4c-0.7,0.8-1.6,0.3-2.3,0.4
		c-0.9,0-1.7-0.2-2.8-0.3c-1.5-1.9-3.1-3.9-5.2-5.6c-1.4,3,2.5,3.5,2.6,5.8c-2.9,0.3-5.9-0.6-8.6,0.7c-0.1,0.9,0.4,1.2,0.7,1.1
		c7-0.6,14,0.6,21,0.1c-0.4-1.6-1.7-0.9-2.2-1.6c-0.9-0.6,0-1.2-0.1-2.1c-3.2-2.1-6.4-4.5-9.8-6.5c-3.4-1.9-7.8-1.1-11-3.5
		c0.3-1.9,1-2.9,2.6-2.9c3.3-0.1,6.6-0.5,9.9,0.1c3.5,0.6,6.6,2,9.1,4.7c1.1,1.2,2.3,2.5,4.1,2.7c-4.2-6-9.5-10.1-17.3-9.2
		c-2.6,0.3-4.5-0.4-5.8-2.5c0-1.2,1.6-0.7,1.6-1.8l-0.1,0.1c3.1,0.5,5.7-1.7,9.6-1c-1.7-2.4-2.7-4.3-2.7-6.4c0-4.1,1.8-5.9,5.9-5.4
		c2,0.2,4,0.7,5.9,1.5c10.8,4.4,19.2,11.8,25.5,21.5c1.3,2.1,2.3,4.4,2.7,6.8c0.4,2.1,0.4,4.1-2.1,5.3c-1.6-3.5-3.8-6.8-4.8-10.6
		c-0.3-1-0.5-2.2-1.4-2.6c-2.6-1.2-3.6-3.7-5.1-5.8c-3.9-5.6-9-6.9-14.9-3.6c-2.4-0.5-4.7-1.1-7.6-1.7c0.7,1.9,2,2.4,3,2.5
		c5.6,0.7,9.4,4.1,13.2,7.7c0.5,0.5,0.9,1.1,1.7,1.2c0.1,0,0.2-0.1,0.6-0.3c-0.7-2-2.4-3-3.8-4.3c-1.5-1.4-3-2.7-4.9-4.5
		c3-1,5.4-0.2,8-0.2c3.4,3.2,4.8,8,8.5,10.2c4.3,8.7,7,17.6,10.2,26.3c6.6,3.3,11.8,8.5,17.9,12.4c8.9,5.7,18.2,10.7,28,14.7
		c3.9,1.6,7.8,3.2,11.5,5c5.6,2.8,11.4,4.8,18.6,5.4c-3.9-3.3-8.2-3.8-11.9-5.5c-4.1-1.8-8.3-3.5-12.3-5.4c-3.9-1.9-8.2-2.8-11.8-5
		c-1.5-2.3-1.4-5-3.3-7c0,1.6,0,3.3,0,5.4c-5-1.8-8.8-4.8-13.6-7.4c2.6-1.1,5.1-0.5,7-2.2c-3.5-1.8-6.8,0-10.4,0
		c-5.8-3.6-11.1-8.5-17.6-11.2c-0.9-1.9-1.6-3.6-1.8-5.9c10.9-10.2,24.4-15.2,38.6-18.6c3.9,4.2,8.4,7,13.2,9.3
		c5.8,2.8,10.6,7.2,14.1,12.6c3.8,6,7.2,12.2,7.5,19.6c0.2,4.3,2.3,8,4.6,11.6c4.6,7.1,7.7,14.9,11.4,22.4c0.8,1.6,0.8,3.4,0.3,5.1
		c-1.6,5.5-1.1,11.2-1.8,16.9c-1.7,2.4-4.2,4.1-6.7,5.9c-0.8-0.2-1.6-0.2-2.1-0.6c-6.2-4.2-13.6-5.7-20.2-9
		c-6.7-3.3-12.4-8-18.4-12.2c-2-1.4-3.9-3-5.9-4.4c-4.1-2.6-6.5-6.9-10-10.1c-7.3-6.6-14.4-13.4-22.3-19.4c-4-3.1-8.6-5.4-12.3-8.8
		c-0.2-0.2-0.5-0.3-0.8-0.4c-6-1.6-10.3-5.6-14.2-10.2l0.1,0.1c-0.4-2.9-2-5.3-3.2-7.9c0.6-0.5,1.1-1,1.7-1.6
		c-8.4-2.5-16.9-3.7-25-6.4c0.6,2.1,0.6,2.1,3.8,3.5c-2.4,1.3-4.5,2.4-6.7,3.6c-3.3-1.2-6.5-3.1-10-4c-3.6-0.9-7.2,0-10.8-0.5
		c0.6,2.6-1.7,3.2-3.1,4.4c-11-2.2-22-3.3-32.9-5.7c-4.1-0.9-8-2.4-11.5-4.9c-2.7-2-5.7-3.4-8.8-4.7c-1.3-0.5-2.9-0.8-3.4-2.8
		c2.3-2,3.4-5,4.9-7.7c3.4-6.2,9-10.3,15.3-12.9c6.1-2.5,12-5.7,18.3-7.9c4.3-1.5,8.7-2.3,13-3.2c0.4-0.1,0.9-0.3,1.3-0.1
		c4,1.6,7.1-0.5,10-2.6c7.4-5.2,15.6-8.6,24.4-9.8c9.9-1.4,19.3,0.4,26.8,8c1.5,1.5,2.7,3.4,4.9,3.7c0.8,1.5,1.5,2.7,2.4,4.3
		c-1.8,0.3-2.7-1-3.9-1.6c-3.7-1.9-7.3-4.1-11.7-4.2c-2.6-0.1-4.9,0.5-6.6,2.5c-1.7,2-3.8,2.8-6.4,3c-3.1,0.2-6.3,0.9-9.7,1.4
		c0.8-1.8,2.6-2.4,3.5-3.8c-2.8-0.3-7.5,3.2-10.6,8.2c-1.1,0-2.1,0.1-2,1.6c1.1,0,1.8-0.5,2.1-1.5c4.6-1.1,9.2-2.3,13.8-3.3
		c1.2-0.3,2.5-0.6,4,0c-0.6,2-1.6,3.5-3.6,4.4c-3,1.4-5.4,3.5-5.6,7.1c-0.1,1.4-1.8,1.5-1.7,2.8c-0.1,1.3,1.3,1.9,1.9,3.1
		c-3.6,1-2.9,3.8-2.8,6.6C726.7,298.3,724.1,300.3,721.5,302.3c-1.3-1-2.7-1.5-4.3-1.9c-5.8-1.5-11.5-3.4-17.7-5.7
		c4-2.5,7.5-4.7,9.9-8.2c-0.2-0.3-0.4-0.5-0.6-0.8c-3.5,2.5-7.1,5-10.7,7.5c-4.1-2.8-8.4-5.5-12.5-8.5c-2.9-2.1-6.2-2.6-9.8-2.8
		c0.2,0.4,0.3,0.6,0.4,0.6c8,3.2,14.8,8.3,21.6,13.5c1,0.8,2.2,1.4,3.5,1.7c4.8,1.5,9.6,3.1,14.5,4.3
		C717.5,302.7,719.5,303.5,721.5,302.3z M709.6,285.5c4.1-1,5.9-3.7,7.8-6.2C714.6,280.6,711.8,282,709.6,285.5z M822.4,332.7
		c-2.7-2.2-4.8-2.5-6.9-0.8C817.8,332.7,820,333,822.4,332.7z M819.7,303.1c2.9,1.2,5.1,1.6,7.4,1.2
		C825,303.2,822.9,302.2,819.7,303.1z M758.7,302c0.8,2.2,0.8,2.2,2.5,3.4C761,303.8,760.2,302.9,758.7,302z M719.1,308.7
		c2-2.9,2-2.9,1.1-3.2C719.4,306.3,719.3,307.4,719.1,308.7z M700.9,310.1c1,1.4,2.1,1.5,3.6,0.9C703.3,310,702.2,309.9,700.9,310.1
		z M766.3,312.6c-0.4-1-0.7-2-2.1-2.2C764.6,311.6,765,312.4,766.3,312.6z M771,333.6c0.9,0.5,1.4,0.3,1.8-0.1
		c0.3-0.4,0.9-0.7,0.1-1.5C772.1,332.2,771,332,771,333.6z M858.1,361c0.8,0.9,1.4,1.8,2.6,1.2C860.2,361.3,859.6,360.6,858.1,361z"
		/>
	<path fill="none" d="M821.2,214.8c2.2,2.8,0.8,5.6,0.1,8.5c-5.3-1.5-10.9,0.7-15.8-2.4c2.6,3.7,6.4,2.9,10.3,2.7
		c-3,1.7-5.7,1.8-9,1.1c2.1,2,2.1,2,5,2.4c-1.8,0.6-1.7,2.9-3.8,3.7c2.2,1.1,3.6-0.8,5.3-0.5c0.9,0.1,1.7-0.2,1.9,1
		c-0.4,0.1-0.9,0.3-0.8,0.8c0.5,2.3-0.4,4.2-1.8,5.6c0,1.4,0.3,2.2,1.5,2.8c1.5-1.6,1-4.2,2.9-5.5c-0.7-1.5-1.3-2.6-1.8-3.8
		c1.6-0.1,2.2,1.9,3.9,1.7c1.4-1.8-2-2.3-1.1-4.1c1.9-0.6,1.4,2.5,3.3,1.9c0-1.8-1.2-3-1.5-4.3c-1.7-1-2.2,0.8-3.4,0.8
		c0.1-1.6,1.1-2.1,2.2-2.8c3.2,1.7,4,4.4,3.2,7.7c-1.1,5-3.9,9-8.3,12c-0.8,0.6-1.6-1.2-2.5-0.2c0,1.7,2,1,2.5,2.5
		c-3.6,13.2-2.6,26.6,1.4,40.1c-4.6,1.1-9.3,1.2-14,1.7c-4.8,0.6-9.4,1.6-13.7,4.6c-2.8-7.1-7.6-12.5-12.9-17.5
		c0.4-1,0.8-1.9,1.2-2.8c0.6-0.9,2-0.1,2.5-1.2c-0.8-0.6-1.7-0.5-2.5-0.4c-4.1,0.4-6.7-1.8-8-5.3c-1.9-5.2-4.5-10-6.5-15.2
		c-2.7-6.9-2.1-13.9-0.8-21.5c1.4,1.2,1.8,3.4,4.5,2.8c1.4-0.4,0.9-3.1,3.4-3.8c-2.4-1.5-4.2-2.6-6.5-1.4c0.2-0.6,0.3-1.2,0.6-2
		c-1,0.5-2,0.8-1,2c-2-0.8-2.6-2.5-2.7-4.3c2.5-2.9,6.1,1.1,8.8-1.8c-2.7-1.8-5.5-1-8.7-0.7c2.2-7.3,2.1-15.1,7.4-21.4
		c0.3,0.8,0.5,1.3,0.8,2c1.3-2,2.1-4.1,3.7-5.6c1.1,0.6,0.2,1.3,0.3,2c1.8,0.7,3.7,1.5,5.5,2.2c2.4-1.4,2.4-1.4,4.7-1.2
		c2.1-1.2,4.1-3.3,6.1-3.3c2.5,0,4.4-1,6.6-1.6c3.5-1.1,7-2.5,10.5-3.7c1.6-0.6,1.6-0.5,3.9,0.7c-1.1,1.7-3.5,2.1-4.2,4.1l0.1-0.1
		c-3.9-1.2-6.9,0.8-9.7,3.1v-0.1c-0.1,2,1,2.4,2.7,2.3l-0.1-0.1c-0.1,0.7-0.3,1.4-0.4,2.2c2.6,0.8,5-0.7,7.5-0.5
		c-0.1,0.1-0.2,0.2-0.3,0.3c0,0.1,0.1,0.3,0.2,0.3c3.6-0.2,7.2-0.8,10.3-3.1c-3.3,0.8-6.5,1.6-9.8,2.4c0.4-1.3,1.5-1.7,2.6-2.1
		c3-1,5.9-2.2,7.4-5.8c1.8,2,3.6,3.4,4.5,5.5c-0.7,1.7-2.2,2.4-3.3,3.4c-5.8,0.2-11.5,0.2-16.6,3.1c4.8-0.6,9.6,1.3,15.4-0.1
		c-3.4-0.2-5.8-0.3-8.2-0.4c0-0.2,0-0.4,0-0.5c2-0.4,3.9-0.9,5.9-1.1c4.6-0.5,4.6-0.5,7.9-2.5c0.9,0.7,0.8,1.8,1.2,2.4
		c-0.4,2.9-3.2,3.8-4.2,6.1l0.1-0.1c-2.6,1.7-5.1,3.4-8.7,1.4c2.8-1.3,5.7-1.5,7.9-3.4c-4.6,1-9.1,0.1-13.9-0.5
		c1.8,2.2,4.2,1.3,6.2,2c-2,1.8-4.1,1.2-6.1,0.9c0.1,2.3,3.1,0.7,3,2.9c-2.4-0.3-4.3-2.1-6.3-2.6c1,1.6,2.1,3.3,3.2,5.2
		c-0.2,0.3-1.3-1.2-2.1,0.2c2.1,0.2,2.3,1.9,2.3,3.7c5.9,2.6,11.8,1.9,17.8,1.2c-4.8-1.4-10,0.8-14.6-2c1.6-0.2,3.2,0.1,4.7,0.4
		c4.1,0.7,8,0.5,10.8-3.2L821.2,214.8z M765.9,242.3c-0.1-1.1-0.2-2.2-0.3-3.3c3.4-3.6,4.3-8.2,5-12.8c0.3-1.9-0.7-3.2-3-4.4
		c0.8,1.7,1.5,3.2,2.1,4.4c-0.7,3.5-1.9,6.5-3.2,9.6c-0.4,1-1.2,2-0.8,3.2c-1.5,1.1-1.3,2.4-0.3,3.7c0,0.7,0.1,1.4,0.7,1.9
		c0.9,0.2,1.9,1,2.8-0.3C768.2,243.3,767.1,242.7,765.9,242.3z M789.4,225.9c0.5-0.2,1-0.5,0.8-1.4c-1.4-0.9-3.1-1.5-5-1.6
		c0.6,1.7,2.6,1,3.2,2.3c-2.7-0.6-5.4-0.6-8.7-0.5c1.2-0.8,1.9-1.3,2.9-2c-1.7-0.1-2.9,0.6-4.2,1.1c0.7,1.5-0.3,2.8-0.2,3.8
		c1.4,0.9,1.2-1.3,2.5-0.6c-0.1,0.6-0.2,1.3-0.3,1.9c1.4,0.5,2.6,1.5,4.1,1c1.7-0.7,1.6-2.4,2-3.8
		C788.3,226.8,788.3,226.8,789.4,225.9z M764.7,253.6c0.4,0.5,0.6,0.9,0.7,0.9c4.1-1,8.2-0.7,12.4-0.5c1.7,0.1,3.6,0,5-1.9
		c-0.7-0.3-1.1-0.7-1.4-0.6c-2.7,0.9-5.3,0.2-8,0C770.5,251.1,767.2,251.4,764.7,253.6z M773.5,220.9c2.6-0.7,5-1.1,7.3-1.8
		c1.7-0.5,3.3-0.6,5.1-0.8c2.7-0.3,4.4,1.7,7.3,2.6c-1.6-2.4-3.1-3.5-5.4-4c-5.1-1-9.5,1.1-14.1,2.7
		C773.6,219.6,773.6,219.8,773.5,220.9z M796.4,266.4c-4.6,0.8-8.6,2.4-10.1,3.6c1.8,0.7,3.4-1.3,5-0.7c0.7,0.8-0.8,1.3,0.1,2.1
		C793.5,270.2,794,267.3,796.4,266.4z M777.2,257.4c-3.9,0-7.1,0-10.7,0C770.3,260.2,772.7,260.2,777.2,257.4z M777.4,242.6
		c-2.2,3.1-4.9-1.7-7.3,0.9C774.7,245.6,775.2,245.6,777.4,242.6z M811.4,245.8c-1.7,0.5-1.6,1.5-1.2,2.6
		C811.2,247.9,811.7,247.2,811.4,245.8z M788.7,275.1c-0.9,0.2-1.6,0.6-0.9,1.7C788.4,276.5,788.9,276.1,788.7,275.1z"/>
	<path fill="none" d="M756.8,325.1c1.3,4.1,3.4,7.4,7.6,9.3c6.7,3.1,12.8,7.2,18.7,12.3c-0.3,7.6,5,13.2,8.8,20.1
		c-11.8,5.3-22.3,12.9-34.4,18c-6-8.9-13.4-16.3-19.3-25.2c4.1-1.6,6.9-4.4,8.4-8.4l-0.1,0.1c3.8-3.1,4.5-7.1,3-11.6
		c-1.8-5.2-5.3-9.2-8.9-13.2c-0.1-1.5,1.1-2.2,1.8-3.3c2.2,1.1,3.4,3.4,6,4.5c1-3.1,4.6-2.5,6.1-4.9c1.1,0.7,1.3,2.2,2.5,2.4
		L756.8,325.1z"/>
	<path fill="none" d="M379.3,209.1c4.1-2,5.7-5.4,7.2-8.8c-1.3-1.9-3.3-0.3-5-1.6c-0.4-2.5-2.8-4.1-4.4-6.2
		c-1.2-6.1,2.2-10.1,6.1-13.9c8.2,6.6,16.1,13.1,25,18.4c4.2,2.5,7.5,6.3,12.2,8.2c5.7,2.4,11.3,5.2,16.9,7.8
		c1.9,0.9,3.9,1.2,5.8,1.6c2.4,0.4,4.7,1.2,6.9,2.8c-2.9-0.1-5.9-0.2-8.8-0.4c-6.8-0.4-13.5-0.8-20.3,0.1c-2.9,0.4-5.8,0.1-8.7-0.2
		c-5.3-0.4-10.7-0.7-16-1.1c-1.4-0.1-2.9,0.2-4.2-0.8C388.4,212.1,384.1,210.5,379.3,209.1z M380.5,192.2c0.3,1,0.4,1.8,1.7,1.7
		C381.9,193.1,382.5,192,380.5,192.2z"/>
	<path fill="none" d="M715.2,339c-1.6-0.1-1.7,1.9-3.2,2.2c-4.6-3.8-7-9.2-9.7-14.4c-0.9-1.7,0.3-2.9,2-3.9c-3.8,1-4.5,1.9-3.3,4.9
		c2.1,5.1,4.6,10,8.6,13.9c0.7,0.7,2.2,1.2,1.1,3.1c-5-4.4-9.1-9.3-10.9-15.6c-1.6-5.5,1.3-8.7,7.1-8.2c2.6,0.2,5.2,0.8,7.6,1.8
		c10,3.9,18.2,10.2,24.4,18.8c2.1,2.9,3.9,6.1,4.2,9.9s-1.3,5.7-5.1,6.1c-2.3,0.3-4.6,0-6.9-0.6c-4.8-1.2-9.1-3.5-13.1-6.2
		c0.5-1.5,1.3-1,2.1-0.6c1.6,1,3.2,2,4.8,2.9c4.3,2.6,9,2.8,13.8,2.7c1.7,0,2.6-0.9,2.9-2.5c-7.9,1.9-14.8,0.4-20.8-4.9
		c1.4-2.8,3.8-4.1,6.2-5.1c1.5-3.1-0.1-5.2-2.1-7c-2.1-1.8-4.6-3.1-7.6-2.4c-2,0.5-2.4,1.8-2.2,5.2L715.2,339z"/>
	<path fill="none" d="M526,272.5c-1-3.6-2.7-6.6-6.3-8.9c2.9-0.5,4.5,0.5,5.7,2.3c2,3,4.2,5.9,5.9,9.1c4.4,8.3,8.4,17,10.6,26
		c2.2,8.9,6.5,16.1,11.8,23.1c1.6,2,2.8,4.3,4.2,6.7c-1.3,0.6-1.6-0.5-2.1-0.9c-4.9-4.9-9.6-10.1-13.1-16.1c-1.1-1.9-3.1-3-4.1-4.9
		c-3.6-6.6-7.4-13-11.1-19.5c-2.1-3.8-4.1-7.7-6.1-11.5c-2.2-4.3-4.9-8.1-9.7-11c2.1-0.9,3.7-1.7,5.3-2.4
		C520,267.1,523,269.8,526,272.5z"/>
	<path fill="none" d="M746.6,351.2c-0.5,0.2-1.1,0.4-1.6,0.5c-2-16.3-28.8-35.1-41.4-32.1c3.6-5.8,7.1-7.2,13.9-5.3
		c7.5,2.1,13.9,6.2,19.7,11.5c3.8,3.4,7.1,7.2,9.5,11.7c2.2,4.1,3.1,8.1,0.1,12.2c-0.3,0.4-0.2,1.1-0.3,1.6L746.6,351.2z"/>
	<path fill="none" d="M744,271c5.2-5.7,7.8-6.5,14.2-3.8c10.9,4.5,19.4,11.9,25.5,22c2.8,4.6,3.9,9.4-0.7,14c-1-1.3-0.7-3.1-1.3-4.6
		c-1.6-3.9-4-7.4-6.8-10.5c-5.2-5.9-11.2-10.8-18.3-14.3C752.8,271.8,748.9,270.5,744,271z"/>
	<path fill="none" d="M787.6,295.1c9.2-4.5,19.1-4.4,28.9-6.3c0.9,1.7,1.8,3.6,2.9,5.8c-14.2,2.8-27.6,7.3-38.5,17.2
		c-0.8-0.8-0.9-1.6-1.2-2.5C783.3,304.9,787.9,301,787.6,295.1z"/>
	<path fill="none" d="M809.9,182.6c5.3-0.9,7.8,0.4,10.1,5.1c0.4,0.9,0.9,1.8,1.2,2.8c0.7,2.9,1.2,5.8,1.4,8.9
		c-1.7-2.5-3.5-5.1-5.3-7.7c-2.9-0.7-5.2-2.6-7.7-3.8c-0.6-1.3,0.8-1.5,0.8-2.4c-1.1-0.6-2.1,1.1-3.3,0.1c0.3-1.7,2.7-1.5,3-3.2
		L809.9,182.6z"/>
	<path fill="none" d="M820.2,240.1c0.9,5.2,0.1,17-1.2,19.8c1.5,5.5-0.2,15.7-3.5,19.7c-1-3.2-1.7-6.2,0.3-9.1
		c0.9-9.4,5.2-18.4,3.7-28.1C819.4,241.6,819.3,240.9,820.2,240.1z"/>
	<path fill="none" d="M794.5,365.3c-2.8-5.6-6.9-10.1-8.9-17c5.5,5,10.3,9.3,15.4,14C798.7,363.4,796.8,364.3,794.5,365.3z"/>
	<path fill="none" d="M743.9,318.8c-1.6,2.1-3.1,4.2-4.8,6.4c-1.8-1.6-3.5-3.1-5.3-4.7c1.6-2.2,3.1-4.3,4.5-6.4
		c1.1-0.7,2.3-0.3,3.5,0C742.4,315.5,743.1,317,743.9,318.8z"/>
	<path fill="none" d="M816.9,208.7c2,0,2.8-1.9,4.3-2.6c1.4,0.6,0.4,1.7,0.9,2.5c-1.9,1.6-3.6,3.1-5.6,4.7c2.5,0.1,3.7-1.8,5.3-2.7
		c1.2,1.8-0.1,2.8-0.7,4.1l0.2-0.1c-0.8-0.1-1.4,0.2-2,0.5c-3.6,2-7.2,2.3-11.1,0.7c2.4-0.8,5,0.4,7.3-1.2c-3.1,0-6-0.7-9.1-1.1
		c3.4-1.8,7.3-1,10.1-2.4c0.3-1.3,0.4-2,0.5-2.6L816.9,208.7z"/>
	<path fill="none" d="M715.1,339.1c4.3-1.6,5.4-1.2,8.4,3.2c-0.4,0.7-0.9,1.4-1.4,2.1c-0.5,0.6-0.8,1.5-1.9,1.8
		c-1.6-1.9-3.5-3.5-6.1-4.1c-0.1-1.3,1.6-1.8,1.2-3.2L715.1,339.1z"/>
	<path fill="none" d="M775.2,193.9c-0.4-0.1-0.8-0.2-1.5-0.4c3-4.9,8.3-4.8,12.7-6.5c-0.1,1.7-1.5,1.5-2.3,2
		c-0.8,0.6-1.9,0.7-2.6,1.7c-0.1,0.7,0.8,0.5,1,1c-2.3,1.6-4.5,3.2-6.8,4.8c-1.2-0.8,0.2-2.1-0.7-2.8c1.6,0.3,2.7-0.2,3-2.1
		C776.7,192.1,775.6,192.5,775.2,193.9z"/>
	<path fill="none" d="M747.2,325c-0.9-0.8-1.5-1.3-2.1-1.8c-0.6-1.7,0-3,0.3-4.4c0.3-1.3-1.2-2.2-1.1-3.9c1.7,0.4,3.3,0.8,5.2,1.2
		C749,319.1,749.5,322.1,747.2,325z"/>
	<path fill="none" d="M814.3,261.6c-0.8-5.8,1.3-11.3,1.7-17c0.1-1,0.8-1.8,2.2-1.9c0,3.9-1.3,7.5-1.9,11.2
		C815.9,256.5,816.2,259.4,814.3,261.6L814.3,261.6z"/>
	<path fill="none" d="M786.4,190.2c5.1-3.5,10.7-4.5,16.9-3c-0.9,1.9-2.8,2.2-4,1.8C794.8,187.8,790.6,187.8,786.4,190.2z"/>
	<path fill="none" d="M803.8,193.9c1.9-0.2,3.2-1.6,4.7-2.5c0.8-0.5,1.6-1.3,2.6-0.4c0.7,0.8-0.4,1.2-0.4,1.8
		c-0.8,0.3-1.7,0.4-1.6,1.7c0.4-0.2,0.8-0.4,1.1-0.6c0.3-0.2,0.5-0.6,0.8-0.9c0.4,0,0.8,0,1.9-0.1c-1.7,2.1-2.9,3.8-5.5,3.4l0.1,0.1
		c-0.8-1.7-2.8-0.2-3.8-1.4c0.1-0.5,0.2-0.9,0.3-1.3L803.8,193.9z"/>
	<path fill="none" d="M734.3,285.2c-1.4-0.6-1-1.6-0.3-2.4c1.2-1.6,2.7-2.8,4.5-3.7c1.3,0.7,1.5,1.8,1.7,2.9
		C738.7,284.1,735.3,282.6,734.3,285.2L734.3,285.2z"/>
	<path fill="none" d="M712.9,343.9c2.7,0.3,4.3,1.8,5.4,4.2C714.1,349,712.6,347.8,712.9,343.9z"/>
	<path fill="none" d="M794.3,196.8v0.1c2.4-1.7,3.7,1.4,6,1.2c2.3-0.6,4.7-1.5,7.2-1.7l-0.1-0.1c-3.1,2.6-6.5,3.7-10.5,2.6l0.1,0.1
		C796.1,198.3,795.2,197.6,794.3,196.8z"/>
	<path fill="none" d="M725.3,342.8c-1.4-5.1-5.1-6.6-9-6.2c2.3-1.7,4.3-1.4,7,0.8C725.7,339.4,726.3,340.8,725.3,342.8z"/>
	<path fill="none" d="M810,182.5c-2.4-0.2-3.6,2.2-5.6,3c-0.3-3.3,0.9-4.2,5.3-4.1c0,0.4,0.1,0.8,0.1,1.2L810,182.5z"/>
	<path d="M804.3,200.6c3.3-0.8,6.5-1.6,9.8-2.4c-3.1,2.3-6.6,2.9-10.3,3.1c-0.1,0-0.2-0.2-0.2-0.3c0.1-0.1,0.2-0.2,0.3-0.3
		L804.3,200.6z"/>
	<path fill="none" d="M820.6,273.8c0.9-2.9,1.9-5.9,2.8-8.8c0.7,3.5-0.8,6.4-2,9.4C821.1,274.1,820.8,273.9,820.6,273.8z"/>
	<path fill="none" d="M751.4,316.4c1.9,3.9,1.9,4.1-0.4,6.5C750.6,320.8,750.6,318.7,751.4,316.4z"/>
	<path fill="none" d="M814.2,261.6c0,2.6,0,5.3,0,7.9C813.8,266.9,812.9,264.2,814.2,261.6L814.2,261.6z"/>
	<path fill="none" d="M734.1,316.5c-0.6,1.4-1.3,2-2,2.6c-1,0-1.5-0.4-1.8-1.2C731.2,317,732.3,316.4,734.1,316.5z"/>
	<path fill="none" d="M383.9,214.4c-0.6,1.3-1.3,2-2.7,1.6C381.7,214.6,382.4,214,383.9,214.4z"/>
	<path fill="none" d="M528.9,267c-1.3-0.5-2.3-1.3-3.6-2.9c2.3,0.3,3.1,1.4,3.9,2.6C529.2,266.8,529,266.9,528.9,267z"/>
	<path d="M761.4,226.5c-0.9-1.2,0-1.5,1-2c-0.2,0.8-0.4,1.4-0.6,2h-0.2H761.4z"/>
	<path fill="none" d="M801,184.9c0.3-1,0.6-1.5,1.5-1.2C802.6,184.5,802.3,185,801,184.9z"/>
	<path fill="none" d="M525.9,545.9c0.2-0.3,0.5-0.7,0.7-1.1c2.5,0.6,3.7,3.3,6.9,4.1c-1.3-2.6-2.7-4.7-4.8-5.5
		c-3.5-1.5-7.4-2.8-11.3-1.3c-8.2,3.2-16.9,3.7-25.6,4.5c-5.5,0.5-11.1-0.5-16.1-2.8c-4.5-2-9.2-3.4-13.9-4.9
		c-4.7-1.5-9.2-3.3-13.5-5.8c-3.9-2.2-8-4.1-12.6-4.4c-5.5-0.4-10.7-2.3-16.1-3.4c-7.3-1.5-14.6-1.9-21.9-3c-4.4-0.7-8.9-1-13.4-1.6
		c-3.3-0.5-6.5,0.1-9.8-0.8c-5.4-1.6-6.2-2.1-6.8-8.6c2,1.7,3.1,3.9,4.5,5.7c1.8,0.6,3.5,0.5,5.5-0.1c-0.9-2-3.2-1.1-4.7-2.5
		c-0.3-2.6-1.8-4.9-4.7-6.5c4.1-3.2,8-6.2,11.3-9.6c6,0.9,11.9,1,17.8,1.2c6.7,0.3,13.3,0.3,20,0.9c0.6,0.1,1.2,0.1,1.7,0.1
		c16.8-0.8,33.6,0.7,50.3,2.2c9.2,0.8,18.5,0.5,27.7,1.5c4,0.4,8.1,0.5,12.1,0.8c0.9,0.1,1.8,0,2.4,0.7c1.4,1.5,3.4,1.3,5.2,1.9
		c-0.4-1.5-2.1-1.1-2.6-2.3c2,0,4,0.1,6,0c4.1-0.1,8.1-0.2,11.8-2.3c1.7-0.9,3.5-0.7,5.5-0.2c4.6,1,8.7,3,12.6,5.5
		c1.3,0.8,2.3,1.8,3.1,2.9c4.3,5.7,9.3,10.8,14.5,15.5c13.3,12.1,26.5,24.2,39.4,36.8c6.2,6.1,11.7,12.9,17.4,19.4
		c1.5,1.7,2.9,3.6,4.5,5.3c2.8,3,5.3,6.1,6.9,10.6c-0.8,5.9-4.1,11.3-8.5,15.6c-9,8.8-17.5,18.1-27.2,26.2
		c-5.9,4.9-10.1,11.5-13,18.7c-0.2,0.5-0.3,1.1-1.4,1.7c-1.1-6.3-4.5-11.8-5.8-17.9c-1.6-7.5-5.4-13.7-9.5-19.8
		c-5.9-8.6-11.8-17.2-17.5-25.9c-1.8-2.8-3.5-5.7-4.7-8.8c-2.9-7.4-6.5-14.6-9.1-22.1c-2.1-6.1-4.7-12.1-9.1-17.1
		c-1.3-1.5-2.4-3.3-4.6-3.6L525.9,545.9z M562.5,575.1c2.3,4.9,5,9.5,8.8,13.4c-2.3-4.4-4.8-8.7-7.4-13
		C563.7,575.1,563.3,574.9,562.5,575.1z M512.3,524.1c-3.5-2.4-6.2-2.8-11.4-2.2C504.9,523.1,508.5,523.9,512.3,524.1z M554.6,515.7
		c-1.3-2-3.2-2.5-5.4-2.6C550.7,514.6,552.5,515.5,554.6,515.7z M580.1,599.1c-1.2-1.3-1.6-3.4-3.6-3.9
		C577.4,596.8,578,598.7,580.1,599.1z M489.2,521.7c2.6,0.6,4.6,1.3,7.4-0.1C493.9,521.2,491.8,520.8,489.2,521.7z M538.1,553.9
		c-0.6-1.2-1-2.5-2.9-2.9C535.9,552.6,536.7,553.5,538.1,553.9z M479.9,521.2c0.8,0.9,1.4,1.1,2.1-0.1
		C481.3,520.8,480.8,520.6,479.9,521.2z M382.4,516.7c0.4,1.3,1.2,1.3,2.2,0.7C384.2,516.3,383.5,515.9,382.4,516.7z M539.1,555.2
		c0.1,1.3,0.4,1.7,1,1.8c0-0.2,0-0.5-0.1-0.7C539.9,556.1,539.7,555.9,539.1,555.2z"/>
	<path fill="none" d="M708.4,590.9c-1.1,0-2.2,0-3.5,0c-0.4-2-0.3-4,0.8-6.2c12.6,1.4,25.3,0.8,38.1,1.2c0.4,3.7,1.3,7.2,2.9,10.4
		c2.2,4.2,4.9,7.8,9.4,9.8c1.6,0.7,2.9,1.8,4.5,2.7c8.9,4.9,16.9,4.1,24.3-2.9c6.2-5.9,11-12.7,12.2-21.5c0.2-1.7,1-3.3,1.4-5
		c0.9-4.5,0.7-8.9-0.7-13.3c-0.3-0.9-0.9-1.8-0.7-3.2c3.3,1.9,5.5,4,5.5,7.7c0.1,3.5,0.3,6.9,0.4,10.4c0,0.7,0,1.4,0,2.2
		c-0.1,5.5,1.4,11.2-1.7,16.7c2.3-0.3,1.5-2.4,3.2-3c0.8,2.7,2.1,5.1,4.4,7.5c5.5-6.4,6.5-14,7.8-21.6c0.5,6.2,1.5,12.4-0.1,18.4
		c-1.2,4.6-3.4,8.8-6.3,12.7c-2.4,3.2-4.6,6.7-6.9,10c-2.5,3.7-5.6,7-8.6,10.3c-5.1,5.5-11,10.1-16.6,15.2
		c-3.5,3.2-7.6,5.7-11.6,8.4c-4.4,3-8.9,5.9-13.1,9.3c-2.4,1.9-5.3,2.3-8.1,2.9c-16.4,3.8-33,6.4-49.4,9.7
		c-10.6,2.1-21.3,3.9-32.1,4.7c-0.4,0-0.9,0.1-1.3-0.4c-0.3-1.4,0.6-2.6,1-3.9c2.3-6.9,5.4-13.4,7.5-20.3c1.2-3.7,1.3-7.4,1.1-11.1
		c-0.4-6.3-0.3-12.7-2.2-18.9c1.2-0.2,2-0.4,2.9-0.6c-0.9-1.4-2.6-1.1-3.8-2.2c-3.1-6.3-5-13.3-8.7-19.6c9.9-2.4,19.7-3.7,29.6-5.6
		c1.3,2.3,3.3,4.1,5.7,5.8c0.4-1.5-0.7-2.2-1.3-3c-0.7-0.9-1.5-1.7-2.4-2.6c4-1.7,7.3-4.5,11.4-5.4c6,8.6,12.8,16.5,19.3,24.6
		c5.8,7.1,11.4,14.2,15.9,22.2c2.7,4.8,5.6,9.4,8.6,14.4c-2.8,1.9-6.3,2.7-9.2,5.3c3.9-0.3,7-1.9,10.4-3.2c1.7,1.6,2.8,3.9,5,5.1
		c1,0.2,1.6-0.3,2.1-1.2c-0.1-0.3-0.2-0.9-0.4-1.1c-4.5-3.5-7.1-8.1-9.4-13.3c-4.8-10.6-11.9-19.8-19.7-28.5
		c-6.4-7.2-12.5-14.8-18.7-22.2c-0.7-0.9-1.3-1.9-2.1-3.2c2.4-0.7,2.5-2.7,2.8-4.6c1.4,0.8,2.9,1.5,5.2,0.8
		C711.5,590.5,710.2,588.9,708.4,590.9z M709.2,615.3c0.8,4.3,1.5,5.4,4.5,7.9C712.2,620.6,710.7,618,709.2,615.3z M800.6,601.8
		c-2.5,0.7-4.6,2.1-5.9,4.4C797.1,605.3,799.4,604.2,800.6,601.8z M727.5,664.7c2.6,0.1,4.3,0.2,5.9-1.4
		C730.6,663.3,730.6,663.3,727.5,664.7z M698.1,603.3c0.7,1.2,1.2,2,2.3,2.3C700.3,604.2,699.8,603.6,698.1,603.3z M677.8,628.9
		c0.6,1.6,1.4,1.4,2.4,0.9C679.8,629,679.1,628.7,677.8,628.9z"/>
	<path fill="none" d="M379.7,489.6c4.5-1.6,5.7-5.4,7.6-8.6c-1.1-2.2-3.1-0.6-4.8-1.6c-0.8-2.4-3-4.3-4.7-6.4
		c-0.2-6.5,1.3-9.6,6.3-13.5c8.5,6.7,17.4,12.8,26,19.3c8.8,6.5,18.6,10.4,28.2,15c1.7,0.8,3.6,1,5.4,1.4c2.3,0.5,4.7,0.9,7.2,2.6
		c-5.9,0.5-11.2-0.7-16.5-0.6c-4.3,0-8.6-0.1-13,0.5c-2.7,0.4-5.5,0-8.2-0.1c-5.5-0.3-11-0.7-16.4-1.1c-1.6-0.1-3.1,0-4.5-1.1
		C388.7,492.5,384.5,491,379.7,489.6z M381.4,472.6c0.1,0.8,0,1.2,0.2,1.5c0.3,0.5,0.7,0.9,1.3,0.3
		C382.9,473.6,382.6,473,381.4,472.6z"/>
	<path fill="none" d="M525.8,545.7c2.7,4.9,6.1,9.4,8.4,14.6c2.3,5.3,4.5,10.6,6.6,16c1.3,3.3,2.1,6.8,3,10.2
		c1.5,5.5,4.4,10.4,8,14.8c2.9,3.6,5.1,7.7,8.2,11.9c-1.6-0.2-2-1.1-2.6-1.7c-5.2-5.4-10.4-10.9-14.2-17.5c-1-1.8-2.9-2.7-3.9-4.6
		c-3.6-6.6-7.4-13-11.1-19.5c-2.2-3.9-4.2-7.9-6.3-11.9c-2.2-4.1-4.8-7.9-9.3-10.6c1.8-1.4,3.7-1.9,5.5-2.6c2.5,3.3,5.9,5.4,8.9,8.1
		c-1.1-3.4-3-6.2-6.1-8.5c2.4-0.9,3.7,0.7,5.2,1.5L525.8,545.7z"/>
	<path fill="none" d="M750.2,538.8c1,1.6,1,1.6,0.5,3.9c-1.2,0.4-2.4,0.7-3.9,1.2c-1.9-3-5.5-2.3-8.3-3.4c-2.6,2.1,0.5,3.7,0.2,5.6
		c-2.7,1-5.4,1.9-8.3,1.5c-7.8-5.2-7.9-5.3-8.8-12.5c2.7-4.6,7.3-4.8,11.8-4c4.8,0.8,9.5,2.5,14,4.6
		C748.7,536.3,750,537,750.2,538.8c-4.3-1.5-8.2-3.7-12.9-3.9c4.7,0.7,7.9,4.8,12.8,5.4C750.1,539.6,750.2,539.2,750.2,538.8z
		 M732.2,534c1.1,0.6,2,0.8,3,0C734.3,532.9,733.5,532.7,732.2,534z M730.2,534.2c0.2-0.1,0.6-0.1,0.7-0.3c0.1-0.2-0.1-0.6-0.3-0.7
		c-0.4-0.2-0.8,0-0.8,0.5C729.7,533.8,730,534,730.2,534.2z"/>
	<path fill="none" d="M813.6,476.2c-0.2-1.4-1.3-1.7-2.5-2c-5.8-1.5-11.6-1.9-17.5-1.2c-7.6,0.8-14.9,2.7-21.9,6.1
		c0-1.1,1.6-1.6,1.2-2.9c0.7-0.1,1.5,0,2.1-0.3c7.5-3.5,15.6-3.7,23.5-5.1c6.3-1.1,10.9,2,16.2,3.6
		C814.5,475.5,814.1,475.9,813.6,476.2z"/>
	<path fill="none" d="M807.4,621.5c6.9-8.3,11.9-17.1,11.7-27.9c0.8,3.5,0.5,6.9-0.6,10.1c-0.7,2.1-1.3,4-0.7,6.2s-0.3,4.3-1.4,6.1
		c-1.2,2-2.9,3.5-4.6,5.2C810.8,622.4,809.6,622.4,807.4,621.5z"/>
	<path fill="none" d="M726.8,548.1c-1.4,0-2.8,0-4.3,0c-1.5-2.5-3.1-4.8-2.7-8.8C721.6,543.4,723.8,546,726.8,548.1z"/>
	<path fill="none" d="M842.5,562.1c-1.7-3.3-0.1-6.7-0.7-10.1c0.3,3.4,0,6.8,0.5,10.2L842.5,562.1z"/>
	<path fill="none" d="M739.4,542.4c2,0.8,3.1,1.3,4.3,1.8c-0.1,1-0.8,1.1-1.6,1.3C741.1,545.1,740.4,544.2,739.4,542.4z"/>
	<path fill="none" d="M384.7,494.7c-0.5,1.7-1.5,2-3.1,2.2C382.2,495.2,383,494.6,384.7,494.7z"/>
	<path d="M772.9,476.2c0.4,1.3-1.2,1.8-1.2,2.9c-0.6,0.4-1-0.2-1.5-0.4c-0.1,0.1-0.3,0.1-0.4,0.2c0.4-0.6,0.9-1.3,1.3-1.9
		C771.8,476.7,772.3,476.4,772.9,476.2z"/>
	<path fill="none" d="M847.3,508.3c-0.8-0.7-0.2-1.5-0.6-2.5C847.7,506.7,846.9,507.6,847.3,508.3z"/>
	<path fill="none" d="M769.1,481.1c-0.5,0.1-1,0.2-1.5,0.2c0.1-0.7,1.2-0.9,1.1-1.8c0.4-0.2,0.8-0.5,1.2-0.7c0.1,0,0.3-0.1,0.4-0.2
		C770.5,479.8,769.5,480.3,769.1,481.1z"/>
	<path fill="none" d="M769.9,478.9c-0.4,0.2-0.8,0.5-1.2,0.7c-0.6-2.2,0.9-2.5,2.5-2.6C770.7,477.6,770.3,478.2,769.9,478.9z"/>
	<path fill="none" d="M842.4,562.2c0.7,0.9,1,1.9,0.5,3.1c-0.7-1.1-0.4-2.2-0.4-3.2L842.4,562.2z"/>
	<path fill="none" d="M797,498.8c0.3-0.6,0.7-1.1,1-1.7c1.2,0,2-0.7,2.7-1.7c1.6-0.4,2.7-1.4,3.7-2.6c0.4,0,0.8,0,1.8,0
		C803.3,495.7,800.6,497.8,797,498.8z"/>
	<path fill="none" d="M790.8,495.9c1.1-1.2,2.6-1.6,4.1-2c-0.9,1.3-2.2,2-3.7,2.6C791.1,496.2,790.9,496.1,790.8,495.9z"/>
	<path fill="none" d="M809.3,488.3c-0.7-0.2-1.4,0.4-2-0.2c0.3-0.8,0.8-1,1.7-0.9c0.1,0.4,0.2,0.8,0.2,1.2L809.3,488.3z"/>
	<path fill="none" d="M332.4,183.5c1.8,0.3,2.4,1.8,2.5,3.1c0.5,4.2,0.7,8.5,0.7,12.8c-2.9-5-3.6-10.4-3.1-16L332.4,183.5z"/>
	<path fill="none" d="M333.6,463.9c1.4,1,1.8,2.5,2.1,4c0.2,1.1,0.3,2.3,0.3,3.4c0,2.8,0,5.6-0.2,8.5c-1.9-5.2-4.3-10.3-2.2-16
		L333.6,463.9z"/>
	<path fill="none" d="M781.2,525c1-0.6,1.5-1.2,2.3-0.9c1.4,3.1,1.4,3.1-0.9,4.9C781,528,781.8,526.4,781.2,525z"/>
	<path fill="none" d="M362,189.4c-1-0.6-0.2-1.7-1.1-2.1c-0.6,0.1-1.2,0.1-1.9,0.2c-0.6-1.5-0.2-2.5,1-3.4c1.5-1,3.2-0.6,4.1,0.8
		C365.3,186.7,364.6,188,362,189.4z"/>
	<path fill="none" d="M360.2,468.4c-0.3-1-0.5-1.6-0.7-2.3c-0.7,0.1-1.4,0.1-2,0.2c-0.7-1.4-0.2-2.5,1-3.4c1.5-1,3.2-0.6,4.1,0.8
		C363.7,465.5,363.1,466.8,360.2,468.4z"/>
	<path fill="none" d="M362.9,176.3c-0.1,1.8-1.2,2.8-3.1,2.7c-1.8-0.1-2.9-1.3-2.8-3.1c0.1-1.6,1.5-2.9,3.1-2.8
		C361.8,173.2,363,174.6,362.9,176.3z"/>
	<path fill="none" d="M358.4,451.9c1.6,0,2.9,1.3,3,3c0.1,1.8-1.1,2.9-2.9,2.9s-3-1.1-3-2.8C355.5,453.4,356.8,452,358.4,451.9z"/>
	<path fill="none" d="M358.3,446.5c-1.6-0.7-1.6-2.1-1.5-3.4c0.4-0.7,1-0.8,1.6-0.8C359.7,443.1,359.7,444.3,358.3,446.5z"/>
	<path fill="none" d="M359.8,167.8c-1.4-1.2-1.6-2.3-1.5-3.5c0.4-0.6,0.9-0.7,1.5-0.7C361.3,164.2,361.3,165.4,359.8,167.8z"/>
	<path d="M569.6,306.6c-3.2-3.5-5.5-7.6-8-12.6C564.2,296.3,568,302.2,569.6,306.6z"/>
	<path d="M499.7,241.1c4.6-0.2,8.4,0.1,12.4,2C509,243.7,505.1,243,499.7,241.1z"/>
	<path d="M553.9,235.1c-2-0.2-3.6-1-5.4-2.3C551.5,232.8,551.5,232.8,553.9,235.1z"/>
	<path d="M576.2,315c1.8,0.7,2.5,2.5,3.6,3.9C577.9,318.4,576.9,316.9,576.2,315z"/>
	<path d="M537.8,273.9c-2.2-1.5-3.3-2.9-4.7-4.7C535.7,270.4,535.7,270.4,537.8,273.9z"/>
	<path d="M495.4,241.3c-2.2,0.9-4.2,0.5-7.1,0C491.2,240.2,493.3,240.6,495.4,241.3z"/>
	<path d="M384.3,236.8c-1.1,0.8-1.9,0.4-2.8-0.6C382.8,235.4,383.6,235.7,384.3,236.8z"/>
	<path d="M479.1,240.6c0.9-0.5,1.4-0.4,2,0.1C480.2,241.8,479.7,241.2,479.1,240.6z"/>
	<path d="M721.5,302.3c-2,1.2-4,0.4-5.9-0.1c-4.9-1.3-9.7-2.8-14.5-4.3c-1.2-0.4-2.5-1-3.5-1.7c-6.7-5.2-13.5-10.3-21.6-13.5
		c-0.1,0-0.2-0.2-0.4-0.6c3.6,0.3,6.9,0.7,9.8,2.8c4.1,3,8.4,5.7,12.5,8.5c3.6-2.5,7.2-5,10.7-7.5c0.2,0.3,0.4,0.5,0.6,0.8
		c-2.4,3.5-6,5.7-9.9,8.2c6.2,2.3,11.9,4.2,17.7,5.7c1.6,0.4,3,0.9,4.3,1.9L721.5,302.3z"/>
	<path d="M709.6,285.5c2.2-3.5,5-4.8,7.8-6.2C715.4,281.7,713.7,284.4,709.6,285.5z"/>
	<path d="M822.4,332.7c-2.4,0.3-4.6,0-6.9-0.8C817.6,330.2,819.7,330.4,822.4,332.7z"/>
	<path d="M819.7,303.1c3.2-0.8,5.3,0.2,7.4,1.2C824.8,304.7,822.6,304.3,819.7,303.1z"/>
	<path d="M758.7,302c1.5,0.8,2.3,1.8,2.5,3.4C759.5,304.3,759.5,304.3,758.7,302z"/>
	<path d="M719.1,308.7c0.2-1.2,0.3-2.4,1.1-3.2C721.1,305.8,721.1,305.8,719.1,308.7z"/>
	<path d="M700.9,310.1c1.4-0.2,2.5-0.1,3.6,0.9C702.9,311.5,701.8,311.5,700.9,310.1z"/>
	<path d="M766.3,312.6c-1.3-0.1-1.7-1-2.1-2.2C765.6,310.5,765.9,311.6,766.3,312.6z"/>
	<path d="M771,333.6c0-1.5,1.1-1.4,1.9-1.6c0.8,0.7,0.2,1.1-0.1,1.5C772.3,333.9,771.8,334.1,771,333.6z"/>
	<path d="M858.1,361c1.5-0.4,2.1,0.3,2.6,1.2C859.5,362.8,858.9,361.9,858.1,361z"/>
	<path d="M723,275.6c-0.3,1-1.1,1.5-2.1,1.5C720.9,275.6,721.9,275.5,723,275.6L723,275.6z"/>
	<path d="M817,208.6c-0.1,0.7-0.3,1.4-0.5,2.6c-2.7,1.4-6.7,0.6-10.1,2.4c3.1,0.4,6,1.1,9.1,1.1c-2.2,1.6-4.9,0.4-7.3,1.2
		c3.9,1.6,7.6,1.3,11.1-0.7c0.6-0.4,1.3-0.7,2-0.5c-2.8,3.7-6.7,3.9-10.8,3.2c-1.6-0.3-3.1-0.6-4.7-0.4c4.6,2.8,9.8,0.6,14.6,2
		c-6,0.8-11.9,1.5-17.8-1.2c0-1.8-0.2-3.4-2.3-3.7c0.8-1.5,1.9,0.1,2.1-0.2c-1.2-1.9-2.2-3.6-3.2-5.2c2,0.5,3.9,2.3,6.3,2.6
		c0.1-2.2-3-0.6-3-2.9c2,0.4,4.1,0.9,6.1-0.9c-2-0.7-4.4,0.2-6.2-2c4.8,0.6,9.3,1.5,13.9,0.5c-2.2,1.9-5.1,2.1-7.9,3.4
		C811.9,211.9,814.4,210.2,817,208.6z"/>
	<path d="M789.4,225.9c-1.1,0.8-1.1,0.8-3,0.3c-0.4,1.4-0.3,3.1-2,3.8c-1.6,0.5-2.8-0.5-4.1-1c0.1-0.7,0.2-1.3,0.3-1.9
		c-1.2-0.6-1,1.5-2.5,0.6c-0.1-1,0.9-2.3,0.2-3.8c1.3-0.5,2.5-1.2,4.2-1.1c-1,0.7-1.7,1.1-2.9,2c3.3-0.1,6-0.1,8.7,0.5
		C788.5,225.7,788.9,225.9,789.4,225.9z"/>
	<path d="M764.7,253.6c2.5-2.3,5.8-2.5,8.7-2.3c2.7,0.2,5.3,0.9,8,0c0.3-0.1,0.7,0.3,1.4,0.6c-1.3,1.9-3.3,2-5,1.9
		c-4.2-0.2-8.3-0.5-12.4,0.5C765.3,254.5,765.1,254.1,764.7,253.6z"/>
	<path d="M773.5,220.9c0.1-1.1,0.1-1.3,0.1-1.3c4.6-1.6,9-3.7,14.1-2.7c2.3,0.4,3.8,1.6,5.4,4c-2.9-0.9-4.6-2.9-7.3-2.6
		c-1.7,0.2-3.4,0.3-5.1,0.8C778.5,219.8,776.2,220.3,773.5,220.9z"/>
	<path d="M807.4,196.5c-2.5,0.1-4.9,1-7.2,1.7c-2.2,0.2-3.6-2.9-6-1.2c2.8-2.3,5.7-4.3,9.7-3.1c-0.1,0.4-0.2,0.8-0.3,1.3
		C804.6,196.3,806.7,194.8,807.4,196.5z"/>
	<path d="M765.7,239.1c-0.4-1.2,0.4-2.2,0.8-3.2c1.3-3,2.5-6.1,3.2-9.6c-0.6-1.2-1.3-2.7-2.1-4.4c2.3,1.2,3.3,2.5,3,4.4
		C769.8,230.8,769,235.4,765.7,239.1L765.7,239.1z"/>
	<path d="M815.2,231.2c0.6,1.2,1.1,2.3,1.8,3.8c-1.9,1.2-1.4,3.8-2.9,5.5c-1.2-0.6-1.5-1.4-1.5-2.8c1.3-1.4,2.3-3.3,1.8-5.6
		C814.3,231.6,814.8,231.3,815.2,231.2L815.2,231.2z"/>
	<path d="M796.4,266.4c-2.4,0.9-2.9,3.8-4.9,5.1c-0.9-0.8,0.6-1.3-0.1-2.1c-1.6-0.6-3.2,1.4-5,0.7
		C787.7,268.8,791.8,267.3,796.4,266.4z"/>
	<path d="M777.2,257.4c-4.5,2.8-7,2.8-10.7,0C770.2,257.4,773.4,257.4,777.2,257.4z"/>
	<path d="M777.4,242.6c-2.1,3-2.7,3-7.3,0.9C772.5,240.9,775.2,245.7,777.4,242.6z"/>
	<path d="M789.4,225.9c-0.5,0-0.8-0.2-1.1-0.6c-0.6-1.4-2.5-0.6-3.2-2.3c1.9,0.2,3.6,0.7,5,1.6C790.4,225.5,789.9,225.7,789.4,225.9
		z"/>
	<path d="M765.9,242.3c1.2,0.4,2.3,0.9,3,2.1c-0.9,1.2-1.8,0.5-2.8,0.3c-0.6-0.5-0.6-1.2-0.7-1.9
		C765.6,242.6,765.7,242.5,765.9,242.3z"/>
	<path d="M811.4,245.8c0.2,1.4-0.3,2.1-1.2,2.6C809.8,247.3,809.7,246.3,811.4,245.8z"/>
	<path d="M765.4,242.8c-1.1-1.3-1.2-2.5,0.3-3.7l-0.1-0.1c0.1,1.1,0.2,2.2,0.3,3.3C765.7,242.5,765.6,242.6,765.4,242.8z"/>
	<path d="M794.3,196.8c0.9,0.8,1.8,1.5,2.7,2.3C795.3,199.3,794.2,198.8,794.3,196.8z"/>
	<path d="M788.7,275.1c0.2,1-0.3,1.4-0.9,1.7C787.1,275.6,787.7,275.3,788.7,275.1z"/>
	<path d="M380.5,192.2c2-0.3,1.4,0.9,1.7,1.7C380.8,194,380.7,193.2,380.5,192.2z"/>
	<path d="M775.2,193.9c0.4-1.3,1.5-1.8,2.9-2.2C777.8,193.7,776.8,194.2,775.2,193.9L775.2,193.9z"/>
	<path d="M810.9,193.1c-0.2,0.3-0.5,0.6-0.8,0.9c-0.3,0.2-0.7,0.4-1.1,0.6c-0.1-1.3,0.8-1.4,1.6-1.7L810.9,193.1z"/>
	<path d="M562.5,575.1c0.8-0.2,1.2,0,1.4,0.4c2.6,4.3,5.1,8.6,7.4,13C567.5,584.6,564.8,580,562.5,575.1z"/>
	<path d="M512.3,524.1c-3.8-0.2-7.4-1-11.4-2.2C506,521.3,508.7,521.8,512.3,524.1z"/>
	<path d="M554.6,515.7c-2.1-0.2-3.9-1.1-5.4-2.6C551.4,513.2,553.3,513.6,554.6,515.7z"/>
	<path d="M580.1,599.1c-2.1-0.5-2.7-2.3-3.6-3.9C578.5,595.7,578.9,597.8,580.1,599.1z"/>
	<path d="M489.2,521.7c2.6-0.9,4.6-0.6,7.4-0.1C493.8,523.1,491.8,522.4,489.2,521.7z"/>
	<path d="M538.1,553.9c-1.4-0.4-2.2-1.3-2.9-2.9C537.1,551.4,537.5,552.7,538.1,553.9z"/>
	<path d="M479.9,521.2c0.9-0.6,1.4-0.4,2.1-0.1C481.3,522.3,480.7,522.1,479.9,521.2z"/>
	<path d="M382.4,516.7c1.1-0.7,1.8-0.4,2.2,0.7C383.6,517.9,382.8,518,382.4,516.7z"/>
	<path d="M539.1,555.2c0.6,0.7,0.8,0.9,1,1.1c0.1,0.2,0.1,0.5,0.1,0.7C539.5,556.9,539.3,556.6,539.1,555.2z"/>
	<path d="M709.2,615.3c1.5,2.6,3,5.3,4.5,7.9C710.7,620.7,710,619.7,709.2,615.3z"/>
	<path d="M800.6,601.8c-1.3,2.4-3.5,3.5-5.9,4.4C796.1,603.9,798.1,602.6,800.6,601.8z"/>
	<path d="M708.4,590.9c1.8-2,3.1-0.4,5.1,0.7c-2.3,0.7-3.8,0-5.2-0.8L708.4,590.9z"/>
	<path d="M727.5,664.7c3-1.5,3-1.5,5.9-1.4C731.8,664.9,730.1,664.9,727.5,664.7z"/>
	<path d="M698.1,603.3c1.7,0.3,2.3,0.9,2.3,2.3C699.2,605.3,698.8,604.5,698.1,603.3z"/>
	<path d="M677.8,628.9c1.3-0.2,1.9,0.2,2.4,0.9C679.3,630.3,678.4,630.5,677.8,628.9z"/>
	<path d="M381.4,472.6c1.2,0.4,1.5,1,1.5,1.8c-0.6,0.6-1,0.2-1.3-0.3C381.4,473.8,381.5,473.3,381.4,472.6z"/>
	<path d="M750.2,538.8c0,0.4,0,0.8-0.1,1.5c-4.9-0.6-8.1-4.7-12.8-5.4C741.9,535.1,745.9,537.3,750.2,538.8L750.2,538.8z"/>
	<path d="M732.2,534c1.3-1.3,2.2-1.1,3,0C734.2,534.8,733.3,534.6,732.2,534z"/>
	<path d="M730.2,534.2c-0.2-0.2-0.5-0.4-0.4-0.5c0.1-0.4,0.4-0.7,0.8-0.5c0.2,0.1,0.3,0.5,0.3,0.7
		C730.8,534,730.4,534.1,730.2,534.2z"/>
</g>
</svg>
