<svg xmlns="http://www.w3.org/2000/svg" width="23.582" height="19.424" viewBox="0 0 23.582 19.424"><g transform="translate(-272.033 -726.768)"><g transform="translate(272.033 726.768)"><path d="M295.527,729.1a9.705,9.705,0,0,1-2.383.681c.384-.064.95-.759,1.176-1.04a4.382,4.382,0,0,0,.794-1.445c.02-.041.036-.093,0-.124a.137.137,0,0,0-.126.011,12.177,12.177,0,0,1-2.829,1.083.188.188,0,0,1-.195-.052,2.4,2.4,0,0,0-.248-.253,4.986,4.986,0,0,0-1.371-.84,4.776,4.776,0,0,0-2.1-.339,5.031,5.031,0,0,0-1.994.564,5.146,5.146,0,0,0-1.609,1.314,4.945,4.945,0,0,0-.961,1.925,5.22,5.22,0,0,0-.051,2.032c.016.114.006.129-.1.114a15.114,15.114,0,0,1-9.723-4.949c-.114-.129-.175-.129-.268.01a4.931,4.931,0,0,0,.841,5.826c.19.181.386.361.6.526a4.963,4.963,0,0,1-1.876-.526c-.114-.071-.171-.03-.181.1a2.963,2.963,0,0,0,.031.557,4.985,4.985,0,0,0,3.072,3.974,2.853,2.853,0,0,0,.624.191,5.557,5.557,0,0,1-1.84.057c-.134-.026-.185.041-.134.17a5.178,5.178,0,0,0,3.866,3.238c.176.03.351.03.527.071-.011.016-.021.016-.031.031-.434.662-1.94,1.155-2.641,1.4a9.452,9.452,0,0,1-4.009.513c-.216-.032-.261-.03-.32,0s-.007.088.062.144c.273.181.552.34.835.495a13.238,13.238,0,0,0,2.681,1.073,14.278,14.278,0,0,0,13.861-3.241c2.84-2.822,3.836-6.714,3.836-10.611,0-.153.18-.237.287-.317a9.341,9.341,0,0,0,1.878-1.962.57.57,0,0,0,.117-.376v-.02C295.615,729.034,295.623,729.053,295.527,729.1Z" transform="translate(-272.033 -726.768)" fill="#333033"/><g transform="translate(7.003 19.34)"><path d="M281.951,754.157Z" transform="translate(-281.951 -754.157)" fill="#333033" fill-rule="evenodd"/></g><g transform="translate(6.823 19.34)"><path d="M281.876,754.157c-.03,0-.389,0,0,0Z" transform="translate(-281.696 -754.157)" fill="#333033" fill-rule="evenodd"/></g><g transform="translate(7.798 19.343)"><path d="M283.076,754.179c0-.04.417,0,0,0C283.076,754.158,283.127,754.179,283.076,754.179Z" transform="translate(-283.076 -754.161)" fill="#333033" fill-rule="evenodd"/></g><g transform="translate(16.04 0.029)"><path d="M294.847,726.809a.086.086,0,0,1-.1,0Z" transform="translate(-294.749 -726.809)" fill="#333033" fill-rule="evenodd"/></g></g></g></svg>