<?xml version="1.0" encoding="utf-8"?>
<!-- Generator: Adobe Illustrator 20.1.0, SVG Export Plug-In . SVG Version: 6.00 Build 0)  -->
<svg version="1.2" baseProfile="tiny" id="Layer_2" xmlns="http://www.w3.org/2000/svg" xmlns:xlink="http://www.w3.org/1999/xlink"
	 x="0px" y="0px" viewBox="0 0 900 600" xml:space="preserve">
<g>
	<path d="M476.9,563c3,2.4,6.1,4.8,9.1,7.1c1.3,0.9,2.7,1.6,4,2.4c0.7,0.4,1.6,0.7,2.2,1.2c1.7,1.5,3.7,2.1,5.8,2.6
		c2.3,0.5,4,2.1,5.3,4.1c1.1,1.7,1.6,3.5,1.8,5.5c0.2,1.6-0.2,3.2-1.3,4.4c-0.8,0.8-1.4,1.6-1.9,2.6c-0.9,1.8-2.5,2.9-4.3,3.6
		c-4.1,1.5-8.2,2.8-12.7,2.5c-3.2-0.3-6.5-0.1-9.8-0.1c-2.9,0-5.8-0.3-8.6-1c-1.6-0.4-3.2-1.1-4.7-1.7c-3.5-1.4-6.9-2.8-10.4-4.2
		c-1.4-0.6-2.8-0.8-4.2-0.5c-3.5,0.6-7,0.2-10.4-0.8c-1.7-0.5-3.5-0.9-4.8-2.3c-0.7-0.7-1.9-1-2.8-1.6c-0.6-0.3-1.2-0.8-1.9-1.3
		c0.4-0.8,0.6-1.5,1-2c1.5-1.9,2.2-4.2,3.1-6.5c0.3-0.8,0.4-1.6,0.5-2.5c0.3-3.5,0.6-7,0.9-10.4c0-0.5,0.1-1,0.1-1.4
		c-0.6-4,1-7.6,2.4-11.1c0-0.1,0.2-0.1,0.5-0.4c0.8,0.4,1.7,0.8,2.9,1.3c0.1-0.7,0.2-1.1,0.2-1.5c-0.1-5-1.1-9.8-1.8-14.7
		c-0.1-0.9-0.3-1.9-0.7-2.8c-3.1-7.1-4.9-14.6-7.3-21.9c-0.7-2.3-1.9-4.4-2.9-6.6c-0.2-0.4-0.6-0.7-0.9-1.1
		c-0.3,0.4-0.6,0.6-0.8,0.9c-2,4.1-4.1,8.2-6.1,12.3c-0.5,1.1-1,2.1-1,3.4c0,0.8-0.3,1.7-0.6,2.4c-1.3,3.8-2.5,7.5-3.4,11.4
		c-1.4-0.8-1.6-2.1-1.5-3.4c0.2-1.9,0.4-3.8,0-5.7c-0.1-0.4,0-1,0.2-1.4c2-3.2,2.8-6.9,4.7-10.1c2-3.4,3.8-7,5.7-10.5
		c0.5-0.8,0.9-1.7,1.3-2.5c-0.4-0.9-0.8-1.7-1.1-2.5c-2.9-6.1-4.9-12.5-6.3-19.2c-0.8-3.7-1.7-7.4-2.6-11c-1-0.3-1.5,1-2.4,0.5
		c-0.3-1.7,1.5-1.8,1.8-2.5c0-4.1,0-7.9,0-11.6c0.1-9.2,0.5-18.3,2.9-27.2c0.2-0.8,0.1-1.7,0.1-2.5c0.2-0.1,0.3-0.3,0.5-0.4
		c0,0-0.1-0.2-0.1-0.3c-0.1,0.3-0.2,0.5-0.3,0.8c-1.3,0.5-1.5,1.8-2,2.8c-2.5,4.8-4,10.1-5.3,15.3c-0.5,2.1-1,4.3-1.1,6.4
		c-0.1,4.7,0.2,9.4,0.2,14.1c0,2.4,0,4.8-0.3,7.2c-0.4,3.2-1.1,6.4-1.6,9.6c-1.1,6.7-2.3,13.3-4.3,19.8c-2,6.7-3.9,13.4-5.8,20.1
		c-0.2,0.8-0.5,1.6-0.8,2.4c-1.1,0.4-2.1,0.7-3.2,1.1c-0.7,1.9-0.5,4-0.4,6c0,0.6,0.3,1.2,0.6,1.7c0.9,1.2,1.9,2.5,3,3.6
		c1,1,2.2,1.8,3.2,2.7c0.3,0.1,0.4,0.1,0.5,0.1c3.6,0.5,7.1-1,10.8-0.9c1.3-0.8,3.1-0.8,3.6-2.6c0.3-0.1,0.7-0.3,1-0.3
		c2-0.4,3.4,0.4,3.9,2.2c0.2,0.6,0.2,1.2,0.2,1.8c0,6.2-0.4,12.3-2.2,18.2c-0.6,2-0.3,3.8,0.4,5.7c0.8,2.1,1.7,4.3,2.7,6.3
		c0.4,0.8,1.1,1.6,1.8,2.3c0.6,0.6,1.3,1.1,1.9,1.6c3.8,3.1,3.7,7.2,2.8,11.5c-0.4,1.9-2,3-3.5,4c-0.6,0.4-1.7,0.4-2.4,0.3
		c-4.7-1-9.3-0.8-14-0.2c-2.4,0.3-4.8,0.3-7.2-0.4c-0.6-0.2-1.2-0.3-1.8-0.4c-3.2-0.1-5.3-2-7.3-4.2c-0.3-0.3-0.2-0.9-0.2-1.3l0,0
		c0.6-0.3,1.1,0,1.6,0.4c1.9,1.4,3.9,2.3,6.1,2.9c1.4,0.4,2.8,0.8,4.2,0.7c4.6-0.4,9.3-0.5,13.8-2c1.2-0.4,2.6-0.5,3.9-0.6
		c1.1-0.1,1.4,0.7,1.7,1.5c-0.2,0-0.4,0-0.6,0c-0.1,0-0.2,0.1-0.3,0.1c0.2,0.1,0.4,0.2,0.5,0.2c0.2-0.1,0.2-0.3,0.4-0.4
		c1,0.3,2,0.6,2.9,0.8c0.2-0.4,0.3-0.6,0.3-0.9c-0.1-2.1-0.3-4.3-0.3-6.4c0-1.6-0.5-2.8-1.5-3.9c-1.4-1.4-3-2.7-4.5-4
		c0.4-1.1-0.2-1.8-1-2.5c-0.8,0.1-1.7,0-2.1,1.1c1,0.4,2.1,0.9,3.1,1.3c0,0.3,0,0.7-0.1,1.4c-2.6-0.4-5.1,0.4-7.8-0.3
		c0.1-0.7,0.2-1.1,0.4-1.7c-0.6-0.1-1.2-0.1-1.7-0.2c-0.8-0.1-1.4-0.4-1.6-1.2c-0.2-0.7,0.3-1.8,1.2-2c1.5-0.5,3-0.8,4.5-1.1
		c0.9-0.2,1.9-0.1,2.9-0.2c-0.1-1.2-0.2-2.2-1.1-3c-0.9,0.5-1.7,1-2.6,1.3c-1.7,0.6-3.4,1.1-5.2,1.5c-1.2,0.3-2.4,0-3.4-0.9
		c-0.8-0.7-0.8-1.8-0.2-2.6c0.6-0.8,1.5-1.1,2.5-1.3c3-0.8,6-1.6,8.8-2.4c0.4-1.2,0.5-2.1-0.4-3.1c-1.1,0.5-2.1,1.1-3.2,1.6
		c-1.8,0.9-3.8,1.6-5.8,1.8c-1.1,0.1-2.2,0-3.1-0.7c-1.1-0.9-1.1-2.3,0.1-3c0.5-0.3,1.1-0.5,1.7-0.6c2.1-0.3,4.3-0.6,6.5-0.8
		c1.6-0.1,3.1-0.4,4.6-0.9c0.1-0.8,0.2-1.5,0.2-2.2c0-0.1-0.2-0.2-0.3-0.3c-1.3,0.3-2.5,0.7-3.8,0.8c-1.7,0.2-3.4,0.3-5,0.3
		c-1.8,0-3.1-0.9-4-2.4c1.2-1.7,2.7-2.3,4.5-2.4c2-0.1,4.1-0.2,6.1-0.3c1.1-0.1,2.1-0.2,3.2-0.3c0.9-2.9,2-5.6-0.3-8.2
		c-1.9,0.9-3.7,1.8-5.6,2.5c-3.3,1.3-6.8,1.3-10.3,0.9c-1.1-0.1-2.3-0.8-3.3-1.5c-1.4-1.1-2.8-2.3-4-3.6c-1.9-2-2.8-4.4-2.4-7.2
		c0.3-2,0.6-4,0.9-6c0.8-0.1,1.3-0.2,1.8-0.3c0.4-1,0.9-1.7,0.1-2.8c-1.7,0.6-3,1.8-4,3.3c-0.8,1.2-1.9,2.2-3.4,2.6
		c-2.3,0.6-4.1,1.9-5.8,3.5c-0.6,0.6-1.3,1.1-2,1.5c-1.4,0.7-2.8,0.9-4-0.3l0.1,0.1c-0.1-0.8,0.3-1.5,1.1-1.7
		c1.8-0.3,2.9-1.5,4.3-2.5c1.3-0.9,2.6-1.8,4-2.3c1.7-0.7,3.3-1.4,4.5-2.9c0.5-0.7,1.2-1.1,1.9-1.7c1.4-1.1,3-1.6,4.9-0.6
		c0.3-0.8,0.7-1.5,0.9-2.3c1.3-5.3,3-10.4,4.8-15.5c0.6-1.7,1-3.5,1.3-5.2c1.5-8.2,2.8-16.4,4.3-24.6c0.3-1.8,0.3-3.5,0.1-5.4
		c-0.6-7.2-0.9-14.4,0.9-21.6c1.1-4.3,1.9-8.7,3.8-12.8c0.9-1.9,1.9-3.6,2.9-5.4c0.6-1,1.3-2,2.2-2.9c0.7-0.8,1.7-1.4,2.8-2.2
		c0.2-1.3,0.6-2.8,0.7-4.4c0.4-4.9,0.5-9.9-0.2-14.8c-0.4-2.7-0.1-5.6-1-8.2c0.8-3.3-1-6.1-1.9-9c-2.5-7.7-5.1-15.3-6.8-23.2
		c-0.1-0.7-0.4-1.4-0.6-2.1c-0.5-0.2-0.9-0.4-1.4-0.6c-4.9-1.5-8.3-4.8-10.9-9c-1.5-2.6-3.1-5.2-3.1-8.4c0-0.7-0.4-1.3-0.7-2.1
		c-1.8,2.2-3.5,4.3-5.1,6.5c-2.5,3.1-6,4.8-9.4,6.7c-0.3,0.2-0.7,0.3-1,0.3c-3,0.2-6,0.6-9,0.5c-5.3-0.1-9.4-2.7-12.6-6.8
		c-2.8-3.6-4.6-7.7-5.5-12.1c-2-10-1.3-19.9,2.6-29.5c1.1-2.8,2.7-5.4,4.6-7.8c3-4,7.1-6.5,11.8-8c2.6-0.8,5.2-0.7,7.9-0.3
		c1.2,0.2,2.4,0.5,3.5,0.8c2.1,0.5,3.7,1.5,4.9,3.4c1.2,1.9,2.7,3.7,3.3,6c0.1,0.3,0.5,0.5,0.8,0.9c0.5-3.1,1-6.1,1.4-9
		c0.1-0.6,0.1-1.2,0-1.8c-1-7.9-1.8-15.8-2.1-23.8c0-0.4-0.1-0.7-0.1-1.1c0.5-7.8-0.9-15.7-0.2-23.5c0.1-1.1,0.2-2.2,0.3-3.2
		c0.5-5.5,0.7-11.1-0.3-16.6c-0.2-1.1-0.2-2.2-0.1-3.2c0.3-4.3,0.8-8.6,1.8-12.9c0.6-2.3,1.2-4.7,1-7.1c-0.1-1.6-0.3-3.1-0.5-4.6
		c-0.5-3.1-1.1-6.2-1.7-9.2c-0.4-2.1-0.8-4.3-1.4-6.4c-2.2-9-3.4-18-2.9-27.3c0.2-3-0.2-5.9-1.1-8.9c-1.4-4.3-0.9-8.8,0-13.3
		c1.5-7.8,5.7-14,11.5-19.2c0.7-0.6,1.5-1.2,2.4-1.6c2.1-1.1,4.2-2.4,6.5-3.2c4.6-1.6,8.8-4,13-6.3c1-0.6,2-1.4,2.9-2.1
		c1.2-0.9,1.8-2.1,1.9-3.7c0.2-2.9,0.7-5.7,1.1-8.7c-1.5,1.3-0.7,3.9-3,4.8c-0.1-0.6-0.2-1-0.1-1.4c1.6-9,1.3-18,1.1-27.1
		c-0.1-3.7-1-7.4-1.6-11.1c-0.6-3.2-1.3-6.4-1.9-9.6c-1.4-6.5-1.3-13-0.6-19.5c0.3-3.3,1.6-6.2,4-8.7c1.9-2,3.6-4.2,5.3-6.4
		c0.6-0.7,1.2-1.1,2-1.4c4.4-1.5,8.5-1.2,12.4,1.5c0.8,0.6,1.5,1.2,2.4,2c3.2-0.7,6.6-0.1,9.9,0.3c7.2,0.8,13.8,3.5,19.5,8
		c0.6,0.5,1.1,1.2,1.6,1.9c0.6,0.9,1.2,1.8,1.7,2.8c0.3,0.5,0.6,1,0.8,1.6c0.8,2.5,1.6,5.1,2.1,7.7c0.7,3.3,1.3,6.6,1.6,10
		c0.2,1.7-0.3,3.6-0.8,5.3c-0.6,2-0.3,3.8-0.1,5.7c0.6,4.2,1,8.4-0.4,12.5c-0.5,1.7-1.1,3.4-1.8,5.1c-1.2,3-2.6,6-3.9,9
		c-1.1,2.4-2,4.9-4.3,6.8c-1.6,0.2-3.4,0.4-5.4,0.6c-0.6,4.5-0.1,8.8,2.1,12.8c0.5,0.9,1.2,1.8,2.1,2.4c3.5,2.5,7.2,4.9,10.8,7.3
		c2.5,0.6,4.5,2.2,6.8,3.2c1.1,0.4,2.3,0.7,3.5,0.8c4,0.6,6.9,2.6,8.9,6.1c1,1.8,2.1,3.5,2.9,5.4c1.8,4,2.6,8.3,1.9,12.6
		c0.4,0.5,0.7,0.9,1,1.3c5.7,7,6.8,15,5.6,23.6c-0.3,2.3-1.3,4.4-2.6,6.3c-0.3,0.5-0.8,0.9-1.2,1.3c-1.9,1.5-3.8,2.9-5.7,4.3
		c-0.6,1.4-0.3,2.7-0.3,4c0,1.8,0.2,3.6,0.2,5.4c-0.1,6.9,0.5,13.7,1.8,20.5c0.3,1.7,0.7,3.3,0.2,5c-0.2,0.6,0.1,1.4,0.3,2.1
		c0.9,2.8,1.8,5.5,2.7,8.2c0.5,1.4,1,2.7,1.4,4c-0.2,0.9-0.9,1.4-0.7,2.4c1.2,5.3,1.1,10.8,1,16.2c0,1.6,0,3.2-0.3,4.7
		c-1.1,5.7-0.8,11.3,0.6,16.9c1.7,7.2,2.7,14.5,3.5,21.8c0.3,2.6,1.1,5.2,1.7,7.8c0.4,0,0.9,0,1.1-0.1c2.1-1.7,4.7-2.5,7.1-3.5
		c0.8-0.3,1.6-0.6,2.4-0.7c8.1-0.7,15.1,1.3,19.9,8.3c3,4.3,4.7,9.2,5.7,14.4c0.8,4.6,0.9,9.2,0.4,13.7c-0.6,5.5-1.7,11-4.1,16
		c-2.7,5.5-6.3,10.3-11.9,13.2c-2.5,1.3-4.9,2.5-7.9,2c-0.7-0.1-1.4,0.1-2.2,0.2c-5.8,0.5-10.7-1.5-14.6-5.7
		c-2.3-2.5-3.9-5.5-5.3-8.6c-0.1-0.3-0.3-0.7-0.3-1c-0.7-3.3-1.4-6.6-1.9-9.9c-0.3-1.9-0.1-3.9-0.2-5.8c0-0.7-0.1-1.4-0.2-2.3
		c-2-1.1-4.1-2.2-6.2-3.3c-0.8,1-0.7,2.2-0.9,3.4c-0.7,4.7-1.1,9.3-2.1,13.9c-2.1,9.4-5.7,18.2-11,26.2c-2.5,3.8-4.9,7.7-6.7,12
		c-2.2,5.3-4.8,10.6-7.1,15.9c-1,2.3-2.2,4.5-3.8,6.6c-2.3,2.9-3.4,6.1-2.2,9.8c0.2,0.7,0.1,1.4,0,2.1c-0.8,4.3-1.8,8.5-3.4,12.5
		c-0.3,0.8-0.6,1.7-1.1,2.3c-2.5,3-2.8,6.7-3.1,10.2c-0.5,6-0.6,12-0.8,18.1c-0.2,6.5-0.3,13-0.5,19.5c-0.2,3.6-0.6,7.2-0.9,10.8
		c-0.4,4.9,0.2,9.6,0.9,14.4c1.1,7.6,2.2,15.3,3.5,22.9c1.5,8.9,3.9,17.6,7.3,26.1c0.1,0.3,0.3,0.6,0.6,1.1c2.6,0.6,5.1,1.8,7.3,3.6
		c0.6,0.5,1.1,0.9,1.6,1.4c1.3,1.4,1.9,3,1,4.9c-0.3,0.7-0.4,1.6-0.3,2.4c0.3,3.8,2,6.6,5.8,7.9L476.9,563z M445.2,9.7l-0.1-0.1
		L445.2,9.7c0.3,0.1,0.5,0.2,0.3,0.1C445.7,9.8,445.5,9.8,445.2,9.7z M464,13.3c-0.2-0.5-0.5-0.5-0.7,0c-0.7-0.6-1.5-1.2-2.2-1.8
		c-0.4-0.4-0.9-0.7-0.7-1.4c1.4,0.1,2.3,1.6,4.1,1.7c-1.2-2-2.7-3.1-4.5-3.6c-2-0.6-4.1-1.2-6.2-1.8c-0.3-0.1-0.6,0.1-1.5,0.2
		c1.3,0.7,2.2,1.1,3,1.5c0.8,0.4,1.8,0.6,2.2,1.6l0.1-0.1c-0.4,0.2-0.7,0.4-1.6,0.8c3.5,1.1,5.4,3.5,8.1,5.4
		c-0.8,0.4-1.3,0.6-1.6,0.8c-1-0.4-1.9-1.2-2.7-1.1c-1.6,0.2-2.7-0.5-3.9-1.3c-1-0.7-2.1-1.1-3.2-1.6c-2,0.7-3.7-0.6-5.5-1.1
		c-3.2-1-6.3-2.1-9.5-3.2c-0.5-0.2-0.9-0.4-1.4-0.4c-0.8,0-1.7,0.1-1.8,1.2c1.2,1.1,2.4,2.3,3.6,3.4c-1.3,0-2.2-0.8-3.2-1.4
		c-0.9-0.6-1.8-1-2.8-1.6c-0.5,0.6-0.9,1.1-1.3,1.5l-0.1,0.1c-0.3,0.2-0.6,0.3-1,0.5c1.3,2,3,3.4,5.4,3.8c0.9,0.4,1.8,1,2.8,1.3
		c2.6,0.8,5.2,1.3,7.6-0.7c0.4-0.3,0.8-0.4,1.2-0.6c-0.2,0.9-0.8,1.3-1.5,1.8c-0.6,0.4-1,1.2-1.2,1.5c-2.3,1.1-4.1-0.5-6.1-0.4
		l0.1,0.1c-0.5-0.3-0.9-0.8-1.4-1c-1.2-0.5-2.5-0.9-3.7-1.4c-1.3-0.5-2.6-1.1-3.2-2.6c-0.2-0.5-0.8-0.7-1.3-1.1
		c-1.8,2.1-3.2,4.1-3.5,6.7l0.1-0.1c-0.5,1-1.1,1.9-1.4,2.9c-1.5,5.4-1.7,10.9-2.1,16.4c0,0.6,0.3,1.1,0.4,1.8c0.8,0,1.5,0.1,2.2,0
		c1.1-0.2,0.8,0.9,1.4,1.3c0.7-0.2,1.3-0.4,2-0.6c0.2-0.1,0.4-0.3,0.6-0.4c-0.1-0.5-0.2-0.9-0.3-1.5c1-0.2,1.9-0.3,3.1-0.6
		c-6.3-0.3-6.3-0.3-8-1.8c3.5-0.2,7,0.9,10.5-0.7c-0.6-0.4-0.9-0.7-1.2-1c0.2-0.3,0.4-0.5,0.7-1c-2.1,0.5-4.1,0.8-6.1-0.2
		c-0.3-0.2-0.9,0.1-1.4,0.2c0.2,0.1-0.3-0.5,0.1-0.1c-1,1.2-1.8,0.5-2.7-0.2c0.3-0.4,0.5-0.7,0.8-1c-0.2-0.5-0.9-0.8-0.4-1.6
		c0.6,0.2,1.5,0.7,1.9,0.4c1.7-1,2.9,0.1,4.3,0.5c0.1,0.4,0.2,0.7,0.3,1.1c2.5,0.5,4.6-1.2,6.9-1.2c-0.1,0.5-0.1,0.9-0.2,1.4
		c-0.5,0-1.1,0-1.9,0c1,0.9,1.5,0.7,1.9-0.1c0.4,0.1,1-0.3,1.3,0.4c-0.4,1.6-2.4,1.1-3.3,2.2c0.2,0.4,0.5,0.7,0.8,1.2
		c-0.9,0.4-1.7,0.7-2.4,1c0.5,0.2,1.1,0.5,1.7,0.8c-0.5,2.4-3,1.6-4.1,3c0.6,0.2,1.1,0.5,2.2,0.9c-1.8,0.4-3.1,0.7-4.5,1.1
		c1.4,0.7,2.9,0,4.1,0.8c-0.3,0.4-0.6,0.7-0.9,1c0.3,0.4,0.5,0.6,0.8,0.9l-0.1-0.1c-0.2,0.6-0.7,0.7-1.1,0.4
		c-0.6-0.5-1.2-1.1-1.9-1.9c-0.3,0.7-0.4,1.1-0.6,1.5l0.1-0.1c-1.1,0.4-2.3,0.8-3.6,1.2c0,1-0.1,2,0,3.1c0.1,1.5,0.5,2.9,1.6,3.9
		c1.2,1.1,2.6,2.1,3.8,3.2c0.8-0.2,1.4-0.3,2.1-0.5c0.5,1.6,1,2.9,1.4,4.3c0.4,1.3,1.2,2.6,1,4c-0.5,0.1-0.8,0.1-1.3,0.2
		c0.1,4.6-0.6,9.1-1.2,13.7c-0.2,1.5-0.6,2.8-1.4,4c-1.8,2.6-3.7,5.1-5.5,7.6c-0.5,0.7-0.9,1.3-1.3,1.9c3.1,8,5.8,15.9,7.7,24
		c0.8,3.5,2.1,6.9,3.5,10.3c2.6,6.3,7.1,10.8,13,14c1.3,0.7,2.6,1.4,3.9,1.9c4.3,1.6,8.6,3.2,12.9,4.8c0.4,0.2,0.9,0.2,1.4,0.3
		c3.5,0.2,7,0.2,10.4-1c2.1-0.7,4-1.6,6.1-2.2c1.7-0.5,2.7-1.6,3.2-3.1c0.4-1.1,0.8-2.3,0.7-3.5c-0.2-3.5-0.3-7-1-10.4
		c-1.5-7.9-6.1-14.3-10.7-20.7c-1.2,0.1-2.2,0.1-3.3,0.2c-1.1,0.1-2.3,0.5-3.7-0.7c2.1-0.4,3.7-0.8,5.5-1.2
		c-0.7-1.5-1.6-2.6-2.8-3.5c-1.5-1-3-2.1-4.4-3.2c-0.8-0.6-1.6-1.2-2.1-2c-2-2.9-3.4-6.1-3.5-9.7c0-1.7,0-3.3,0-5
		c-0.8-0.3-1.5-0.5-2.8-1c3.7-1,6.9-0.2,9.8-1.1c1.7-1.3,2.5-3,3.3-4.8c1.6-3.8,3.1-7.6,4.6-11.4c1.4-3.5,2.2-7.1,2.1-10.9
		c-0.1-3.3-0.7-6.4-1.2-9.9c-1.1,1.3-1.6,3.2-3.6,3c-1.6-0.8-1.5-2.7-2.7-4c0.8-0.4,1.5-0.9,2.3-1c1.3-0.1,2.6,0.1,3.9,0.2
		c0.8-1.3,1.4-2.7,1.5-4.2c-1.3-0.8-2.4-0.8-3.6-0.5c-0.9,0.2-1.9,0.3-2.8,0.2c-0.5,0-1.2-0.3-1-1.3c2.2-0.9,4.6-0.5,7.2-0.4
		c-1.2-4.5-1.8-8.7-3.3-12.8c-0.8-2.1-1.8-3.9-3.3-5.6c-0.1-0.1-0.4-0.1-0.5-0.2c-0.5,0.4,0.6,1.2-0.6,1.4c-0.4-0.8-0.9-1.6-1.4-2.4
		c-0.5-0.8-0.9-1.9-1.9-2.3c-0.2,0.3-0.3,0.4-0.3,0.5c0.5,1,1,2.1,1.6,3.3c-0.5-0.1-1-0.1-1.4-0.2C466.4,14.7,465.5,13.7,464,13.3z
		 M453.2,8.8c0,0.1,0,0.2,0,0.3c0,0,0.1,0.1,0.2,0.1C453.3,9.1,453.2,9,453.2,8.8c-1.7-1.6-3.7-2.1-5.9-2c-0.4-0.2-0.7-0.6-1.1-0.7
		c-2.3-0.4-4.6-0.1-6.8,0.3c-0.4,0.1-0.7,0.4-1.1,0.6c1.5,1.3,3,1.4,4.6,1c0.7-0.2,1.4-0.4,2.1-0.3c1.2,0.3,1.8-0.5,2.5-1.1
		C449.1,7.9,451,8.8,453.2,8.8z M415.4,204.6c0-0.5-0.1-1.1-0.1-1.8C414.6,203.6,414.9,204.1,415.4,204.6c0.2,1.1,0.3,2.3,0.5,3.5
		c0.4,3.1,1.5,6.1,0.6,9.3c-0.3,1,0.1,1.6,1.1,3.2c0.1-2.7,0.3-5.3,0.2-7.8C417.6,209.9,416.9,207.1,415.4,204.6z M419.2,12.7
		c-1.1,0.8-1.2,2-1.5,3.1c-1.1,5.3-0.8,10.7-0.5,16.1c0,0.4,0.4,0.7,0.9,1.5c0.3-1.8,0.2-3.2,0-4.4c-0.4-3.2-0.5-6.4,0.1-9.7
		C418.5,17.1,418.8,14.8,419.2,12.7c0-0.3,0-0.5,0.1-0.7C419.2,12.2,419.2,12.4,419.2,12.7z M429.9,8.2c1.3,0.4,2.3-0.2,3.1-1.1
		c-0.3-0.5-0.5-1-0.8-1.6c0.9,0.1,1.7,0.2,2.8,0.3c-0.7-1.5-1.9-1.8-2.8-2.5c-1.5-1.2-3.2-1.1-4.7-0.1c-1,0.6-2,1.4-2.6,2.4
		c-1.1,1.7-2.1,3.5-2.8,5.4c-1.5,3.9-2,7.9-2.2,12c-0.1,2.5-0.4,5-0.7,7.5c-0.5,3.7-0.4,7.4,0.3,11.1c0.2-0.7,0.4-1.3,0.5-2
		c0.2-3.4,0.2-6.7,0.5-10.1c0.5-5.8,1.8-11.4,5.2-16.3c0.5-0.8,0.8-1.7,1.1-2.4c1-0.5,1.9-0.9,2.7-1.4c0.3-0.2,0.4-0.8,0.6-1.3
		L429.9,8.2z M369.8,288.5c-5.3,1-9.2,4-12.4,8.1c-2.2,2.8-3.8,5.8-4.9,9.2c-1.7,5.3-3.2,10.6-2.8,16.3c0.2,2.8,0.2,5.5,0.7,8.3
		c0.8,4.5,2.3,8.9,5,12.7c1.5,2.2,3.4,4.1,5.7,5.4c1.6,1,3.4,1.8,5.9,1.6c-0.8-0.6-1.3-1-1.7-1.3c-2.1-1.5-3.8-3.3-5.3-5.4
		c-4.1-5.9-5.5-12.6-5.8-19.5c-0.3-6.2,0.8-12.3,2.7-18.1c2.2-6.4,5.6-12,11.5-15.8C368.8,289.6,369.2,288.9,369.8,288.5
		c0.2-0.1,0.5-0.2,0.2-0.1C370.3,288.2,370,288.4,369.8,288.5z M521.2,285.6c-0.6,0-1.2-0.1-1.8,0.1c-3.6,1.2-6.9,3-9.3,5.9
		c-3.7,4.6-6.8,9.7-8.1,15.6c-0.7,2.9-1.4,5.9-1.7,8.9c-0.3,2.9-0.2,5.8,0.1,8.6c0.3,2.7,1.4,5.4,1.8,8.1c0.4,2.7,1.3,5.1,2.6,7.4
		c2.7,4.7,6.3,8.3,11.7,9.6c0.5,0.1,1.1,0.4,1.5-0.3c-1.3-1.1-2.7-2.1-3.9-3.2c-4.6-4.5-6.8-10.2-8.1-16.2
		c-0.7-3.3-0.8-6.7-0.8-10.1c-0.1-10.1,2.5-19.3,8.5-27.5c1.7-2.4,3.7-4.4,6.3-5.9C520.4,286.4,520.7,286,521.2,285.6
		c0.2-0.1,0.4,0,0.6-0.1c0.1,0,0.2-0.2,0.3-0.3c-0.2,0-0.4-0.1-0.6-0.1C521.4,285.2,521.3,285.5,521.2,285.6z M496.5,304.4
		c0.9-0.2,1.8-0.4,2.8-0.5c0.3,0,0.5,0.5,1,0.9c-0.9,0.2-1.4,0.4-2,0.5c-0.3,2.3-0.6,4.7-0.9,7.1c-0.1,0.6,0,1.2,0.1,1.8
		c0.2,1,0.7,1.4,1.9,1.2c1-9.6,4.3-18.2,10.6-25.2c-0.4-1.9-0.7-3.6-1-5.2c-0.5-2.8-1.1-5.7-1.5-8.5c-0.9-5.8-1.7-11.7-2.6-17.5
		c-0.7-4.5-1.7-9-1.4-13.6c0.5-7.5,0.1-14.9-0.2-22.4c-0.1-3.7-0.6-7.5-1.6-11.1c-1.1-3.7-2-7.4-2.8-11.2
		c-1.7-8.6-2.6-17.2-1.8-25.9c0.1-1.3,0.4-2.6,0-3.9c-1.8,0.8-1.9,0.8-2,1.8c-0.3,1.9-0.6,3.8-0.6,5.7c0,1.8-0.4,3.3-1.1,4.8
		c-0.4,0.8-0.8,1.8-0.9,2.7c-1.1,6.5-2,13.1-3.3,19.6c-0.5,2.8-0.5,5.5,0.3,8.2c1.6,5.8,2.6,11.7,4.7,17.4c1.7,4.8,2.5,9.8,2.9,14.9
		c0.2,2.1,0.1,4.1-0.8,6c-0.3,0.7-0.4,1.6-0.4,2.4c0,4.9,0.3,9.9,1.6,15c-1.4,0.7-1.4,2-1.3,3.4c0.1,4.3,0,8.7-0.6,13
		c-0.1,0.5,0,1,0,1.4c0,5.2,0,10.4,0,15.7C495.7,303.4,496.2,303.9,496.5,304.4c-1.3,0.4-1.7,1.6-2,2.7c-0.4,1.4,0,2.8,1.1,4
		C496.8,308.9,496.4,306.6,496.5,304.4z M403.1,303c0-0.2-0.1-0.5,0-0.7c2.2-3.9,4.7-7.5,8.8-9.6c0.3-0.2,0.6-0.3,0.9-0.5
		c0.2-0.1,0.3-0.3,0.9-0.9c-3.7,0.7-6.4,2.2-9,3.9c-0.8,0.5-1.3,1.4-2.4,1.3c0.6-1,1.3-2,2-3.1c-1.2-1.4-1.4-3.2-1-5
		c0.3,0,0.7,0.1,1.2,0.1c0-2.5,0.9-4.9,0.4-7.5c-0.2-1,0-2.2,0.1-3.2c0.7-9,2.4-17.9,4.1-26.8c0.2-0.9,0.3-1.9,0.5-2.8
		c0.9-5.2,1.6-10.5,2.8-15.7c1.1-5,1.7-10,2-15c0.2-3.3-0.1-6.5-0.8-9.7c-1-4.5-1.9-9-2.6-13.5c-0.4-2.1-0.7-4.4-0.4-6.4
		c0.9-5.3,0.6-10.6,0.1-15.9c-0.4-4-0.7-7.9-0.4-11.9c0.2-3.1,0.4-6.4-0.2-9.4c-0.8-4-0.3-7.7,1-11.3c0.1-0.3,0.6-0.5,1.3-1.1
		c0,1.8,0.5,3.3,0,4.4c-0.7,1.7-0.4,3.3-0.2,5c0.3,2.4,0.7,4.8,1.1,7.2c0.1,0.4,0.1,1,0.7,1.1c3.8-2.9,7.1-7.4,8.6-11.8
		c0.4,0,0.9,0.1,1.3,0.1c1.3-2.5,3.1-9.7,3-12.1c0-0.2,0-0.5-0.1-0.7c-0.7-4.2-1.3-8.4-2.2-12.5c-1.2-5-2.7-10-4.6-14.9
		c-1.1-0.3-2.2-0.6-3.2-1c-0.4-0.1-0.6-0.5-1.1-1c1.2-0.2,2.1-0.4,3.1-0.6c-0.5-1.3-0.9-2.5-2-3.2c-1.2,0.4-2.4,0.7-3.5,1.2
		c-4.7,2.2-9.3,4.5-14,6.7c-2.1,1-3.9,2.4-5.2,4.4c-1.1,1.6-2,3.3-3.2,4.8c-3.7,4.7-5.1,10.3-5.8,16.1c-0.1,0.6-0.1,1.2,0.1,1.8
		c0.6,2.8,1.3,5.6,2,8.3c0.6,0,0.9,0,1.4,0c0.7,1.1,1,2.3,0.6,3.7c-0.7-0.5-1.2-0.9-1.9-1.4c-0.8,2.4-1.3,4.6-1.4,6.8
		c-0.2,4.9-0.2,9.9,1.5,14.7c0.3,0.9,0.3,1.9,0.4,2.9c0.2,1.2,0.3,2.4,0.4,3.6c0.7,5.8,2.2,11.4,3.9,16.9c0.6,2.1,1,4.2,0.8,6.4
		c-0.2,2.4-0.4,4.8-0.7,7.2c-0.1,1.3,0,2.8-0.6,3.9c-1,1.9-1.1,3.9-1.2,5.9c-0.3,4.6-0.5,9.2-0.4,13.7c0,3,0.7,5.9,0.6,8.9
		c-0.3,6.7,0,13.5,0,20.3c0,1.2,0.1,2.5-0.2,3.6c-0.5,1.7-0.4,3.3-0.2,5c0.5,4.4,1,8.9,1.5,13.3c0.6,4.9,1,9.8,0.4,14.7
		c-0.2,1.2-0.3,2.4-0.8,3.5c-0.4,0.9-0.8,1.8-0.5,2.8c0.7,2.1,0.1,4-0.1,6.1c-0.2,1.9-0.4,3.8-0.7,5.7c-0.3,2-0.3,4.2-1.1,6
		c-1.2,2.5-1.1,5.1-1.7,7.7c-0.1,0.3,0.2,0.7,0.3,0.9c1,0.5,2,0.9,3,1.4c0.1-0.3,0.3-0.5,0.3-0.7c0.1-5.2,0.9-10.3,2.7-15.2
		c1.8-4.7,3.9-9.1,7.4-12.7c0.4-0.4,1-0.6,1.5-0.9c-0.1,1.3-1.2,2-1.9,3c-4.2,5.7-6.9,12.1-8.1,19.1c-0.6,4.1-1,8.1-0.4,12.2
		c0.6,3.8,1.3,7.6,2.4,11.3c1.5,4.8,4.2,8.9,8.5,11.8c2.1,1.4,4.4,2.3,7.5,2.5c-0.8-0.7-1.2-1-1.6-1.2c-2.4-1.5-4.3-3.5-5.9-5.8
		c-4.2-6-5.9-12.9-6.3-20.1c-0.2-3.7,0.1-7.5,0.7-11.2c0.7-5,2.2-9.6,4.6-14c0.3-0.5,0.8-0.8,1.2-1.2c-0.2,0.7-0.3,1.4-0.6,2
		c-2.4,4.8-3.8,9.9-4.5,15.2c-0.8,6.8-0.5,13.7,1.7,20.4c1.5,4.4,3.6,8.4,7,11.6c5.9,5.6,13.7,4.4,18.2,1.1
		c4.6-3.4,7.8-7.8,9.9-13.1c2.3-5.9,3.7-11.9,3.8-18.3c0-6.4-0.9-12.5-3.5-18.3c-1.4-3.1-3.3-5.9-5.8-8.2
		c-4.9-4.3-11.1-5.3-17.3-1.3c-2.8,1.8-5.1,4-7,6.7C404.6,301.5,404.3,302.7,403.1,303z M476.9,106.2
		C476.9,106.1,476.8,105.9,476.9,106.2c0.7,0.7,1.3,1.4,1.9,2.1c0.9,1,1.8,2,2.6,3c8.4,10.8,9.1,18,7.8,28.7c0,0.4-0.1,0.7-0.3,1
		c-1.6,2.9-3.2,5.7-6.9,6.3c-0.6,0.1-1.2,0.3-1.7,0.6c-4,1.7-8.2,1.9-12.4,1.6c-2.4-0.2-4.7-0.8-6.9-1.9c-1.3-0.6-2.6-1.2-4-1.6
		c-3.6-1-7.1-2.4-10.4-4c-6.2-2.9-10.6-7.5-13-13.9c-1.4-3.7-2.5-7.6-3.6-11.4c-2.2-7.4-4.4-14.8-6.7-22.2c-0.1-0.2-0.3-0.3-0.6-0.7
		c-1.4,0.9-2.6,1.9-3.6,3.2c1.2,2.2,2.6,4.2,3.5,6.5c1.4,3.3,2.6,6.8,3.6,10.2c1.3,4.5,2.7,9,2.4,13.8c0,0.8,0.2,1.7,0.2,2.5
		c0.4,5.4,0.2,10.6-3.2,15.2c-0.2,0.3-0.4,0.6-0.6,0.9c-0.9,1.6-1.9,3-3.3,4.3c-1.4,1.3-2.5,2.9-3.8,4.4c-1.3,1.6-2.7,3.1-3.9,4.5
		c0.1,1.4,0.1,2.6,0.2,3.8c0.7,6.5,0.4,13-0.9,19.5c-0.1,0.4,0.1,0.9,0.2,1.4c0.6-0.2,1.1-0.3,1.6-0.4c4-1.3,8-2.7,12-3.9
		c5.9-1.8,11.9-3,18.1-3c4.2,0,8.5-0.2,12.6-0.7c5.4-0.6,10.8-0.5,16.3-0.5c1,0,1.9,0,2.9,0.1c4.3,0.6,8.6,1.3,12.9,2
		c0.7,0.1,1.3,0.7,2.1-0.1c0.3-1.5,0.6-3.2,0.9-4.8c0.3-1.5,0.9-2.7,2.2-3.6c1.8-1.3,3.5-2.6,5.1-4c1.5-1.3,2.8-2.6,4.1-4
		c0.9-1,1.4-2.2,1.7-3.5c0.6-2.9,0.7-5.7,0.5-8.6c-0.3-6.1-2.5-11.5-6.7-16c-4.8-5.1-8.7-10.9-12.9-16.5c-0.9-1.2-1.5-2.5-2.3-3.7
		c-1.3-2-2.6-4-4-6.1C479.3,106.9,478.3,105.6,476.9,106.2z M458.1,547.8l0.1,0.1c-1.1,2.1-2.1,4.3-3.2,6.4
		c-0.3,0.5-0.8,0.9-1.3,1.2c-2.5,1.4-5.1,2.8-7.6,4.1c-3.5,1.8-4.7,1-6.5-1.4c-0.1-0.2-0.3-0.4-0.5-0.6c-0.1-1.3-0.1-2.6-0.9-3.9
		c-0.8,0.3-1.6,0.7-2.5,1.1c-0.2,1-0.8,2.1-0.6,3.1c0.4,1.7,0.1,3.3-0.1,5c-0.4,3-0.8,6-0.2,9c0.2,1.1,0.1,2.2,0.1,3.3
		c0,1.3-0.3,2.4-1,3.4c-0.9,1.3-1.7,2.6-2.6,3.9c-0.4,0.6-0.6,1.3-0.9,2.1c2.8,1.4,5.5,2.8,8.2,4.2c0.3,0.2,0.7,0.2,1,0.2
		c2.2,0,4.4,0.3,6.5-0.1c2.9-0.6,5.4-0.2,8,1.1c3.4,1.6,7.1,2.5,10.3,4.3c0.7,0.4,1.6,0.5,2.4,0.7c2.7,0.7,5.5,1,8.2,1
		c3.5,0,7-0.2,10.5,0c4.1,0.3,7.8-1.2,11.6-2.5c1.6-0.6,2.6-1.7,2.9-3.4c0.1-0.6,0-1.2,0.1-1.8c0.1-0.8-0.1-1.8,0.2-2.5
		c0.3-0.8,1.1-1.5,1.6-2.2c-0.2-0.7-0.4-1.2-0.6-1.8c-0.6-1.9-1.8-3-3.9-3.3c-2.8-0.4-5.2-1.8-7.5-3.4c-1.5-1.1-3.1-1.9-4.8-1.9
		c-3.1,1.2-6,2.6-9,3.5c-1.2-1-0.9-2-0.3-2.7c0.5-0.6,1.2-1.2,1.9-1.6c1.5-0.7,3.1-1.2,4.7-1.9c-0.2-0.3-0.3-0.7-0.5-0.9
		c-0.5-0.5-1.1-0.9-1.7-1.3c-0.4,0.5-0.6,1-1,1.2c-2.6,1.3-5.2,2.5-7.8,3.6c-1.1,0.4-2.2-0.7-1.9-1.9c0.2-0.7,0.5-1.4,1-1.8
		c0.6-0.6,1.4-1,2.1-1.3c1.5-0.6,3-1.2,4.8-1.9c-0.9-0.6-1.5-1-2.1-1.4c-1,0.7-1.8,1.5-2.7,2c-1.9,1-3.9,1.9-5.8,2.9
		c-0.3,0.2-0.7,0.3-1,0.4c-0.9,0.3-1.9-0.2-2.5-1.1c-0.4-0.7-0.4-1.7,0.2-2.3c0.5-0.5,1.1-0.9,1.7-1.3c2.2-1.4,4.7-2.2,7.7-2.6
		c-1.5-1.1-2.7-2-3.9-2.8c-1,0.5-2,1-3,1.4c-2.8,1.1-5.6,2.2-7.1,5.2c-0.3,0.5-0.9,0.8-1.6,0.5c-0.6-0.3-0.9-0.7-1-1.4
		c-0.1-1.2,0.4-2.1,1.2-2.9c1.3-1.5,3-2.4,4.9-3.1c2-0.8,4.1-1.4,6.3-2.1c-0.2-2.6-0.3-5.2-0.5-8c-1.8-1.5-3.7-3.1-5.7-4.9
		c-0.4,0-1.1,0-1.9,0c-1.7-4.2-3.3-8.3-5.1-12.5c-2-4.8-3.4-9.8-4.2-14.9c-0.9-5.7-1.7-11.5-2.3-17.2c-1-9.5-1.9-19-2.7-28.5
		c-0.6-7.2,0.4-14.5,0.5-21.7c0-0.1,0-0.2,0.1-0.4c1.1-3.4,0.7-6.9,1-10.4c0.3-3.1,0.6-6.2,0.9-9.4c0.2-1.9,0.4-3.8,0.7-5.7
		c0.3-1.5,0.6-3.1,1.2-4.5c1.9-4.7,3.8-9.4,5.8-14.2c-1.2-2.1-0.7-4.2-0.2-6.4c0.5-2.1,0.8-4.3,1.3-6.4c0.2-0.7,0.6-1.3,0.9-1.9
		c0.4,0.2,0.8,0.3,1.3,0.5c0.6-1.2,1.2-2.3,1.7-3.4c3.4-7.5,6.8-14.9,10.6-22.2c0.3-0.6,0.6-1.3,0.9-2c2.8-6.7,5.6-13.3,8.4-20
		c3.9-9.5,6.9-19.3,8.6-29.5c0.1-0.5,0-1.1,0-1.7c-9.5,1.2-23.7,0.9-27.6-0.7c1-0.2,1.7-0.4,2.4-0.5c1.3-0.1,2.6-0.2,4-0.2
		c4.1-0.1,8.2-0.1,12.3-0.1c3.3,0,6.5-0.4,9.5-2.1c0.2-1.2,0.4-2.5,0.5-3.8c0.2-4.1,0.5-8.2,0.6-12.3c0.1-3.6,0.1-7.3-0.1-10.9
		c-0.4-5.7-0.6-11.3-0.3-17c0.1-1.7,0.3-3.3-0.1-5.2c-1.1,0.4-2.1,0.8-3.1,1.1c-4,1.6-8.1,2.4-12.4,2.2c-4.2-0.2-8.4-0.9-12.6-0.6
		c-0.5,0-1-0.1-1.4-0.2c-3.7-0.6-7.5-0.7-10.9-2.4c-0.5-0.3-1.2-0.3-1.8-0.4c-7-1.3-13.8-3.4-20.5-5.9c-4.4-1.7-8.8-3.2-13.3-4.7
		c-1-0.3-2-0.5-3.3-0.9c-0.6,3.2-1.2,6.1-1.7,9c-1.4,8.1-2.8,16.2-4.1,24.2c-0.5,3.2-0.4,6.5,0.1,9.7c0.1,0.3,0.4,0.6,0.6,1
		c0.6-0.2,1.1-0.4,1.7-0.6c0.5-0.2,1.1-0.5,1.5-0.7c0.6-1.3,0.2-2.8,1.4-4c0.2,1.2,0.4,2.1,0.5,3.1c0.6,0,1,0.1,1.3,0
		c3.2-0.6,6.2,0,9.3,0.7c2.3,0.5,4.3,1.4,6.2,2.8c2,1.4,3.5,3.3,4.9,5.3c2,2.9,3.2,6.2,4.5,9.3c2.8,1.1,5.6,1.3,8.3,1
		c3.3-0.3,6.5,0.2,9.6,1c0.5,0.1,0.9,0.2,1.3,0.2c1.5-1.8,1.5-1.8,2-3.8c0.2-0.8,0.3-1.8,0.8-2.3c2.7-3.1,4.8-6.6,6.6-10.3
		c0.2-0.4,0.6-0.7,1.2-1.5c-0.1,1.1-0.1,1.7-0.2,2.3c-0.9,3.2-2.1,6.2-4,8.9c-2.6,3.8-3.4,7.9-2.8,12.4c0.6,4.9,1.1,9.8,1.4,14.8
		c0.4,5.3,0.5,10.6,0.8,15.9c0.4,6.8,0.4,13.5,0.1,20.3c-0.3,7.2-1.7,14.1-3.3,21.1c-0.3,1.2-0.4,2.4-1.6,3.1
		c0.5-6.5,1.1-13,0.9-19.5c-0.4-11.7-0.7-23.4-1-35.1c-0.2-5.7-0.3-11.3-0.4-17c0-1.8,0-3.6,0-5.4c0-0.7-0.2-1.4-0.3-1.8
		c-3.7-1.1-7.1-1.1-10.6-0.6c-1.6,0.3-3.4-0.1-5-0.3c-1-0.1-2-0.3-3.2-0.5c0.3,2.9,0.8,5.5,0.9,8.2c0.2,4.8-0.4,9.6-1.4,14.4
		c-1.1,4.7-2.6,9.2-5.3,13.4c-3.6,5.5-8.3,9.3-14.7,11.1c-0.5,0.2-1.2,0.1-1.7,0c-1.7-0.3-3.3,0-5,0.7c0.6,3.7,1.5,7.2,2.8,10.5
		c0.4,1,0.8,2,1.1,3c1.7,7.3,3.6,14.5,5.2,21.8c0.8,3.8,1.6,7.6,1.9,11.4c0.4,5.2,0,10.4-2.8,15.1c-0.4,0.7-0.7,1.5-0.9,2.4
		c-0.8,5.4-1.7,10.7-2.2,16.1c-0.5,6-0.5,12.1-0.6,18.1c0,1.4,0,2.9,0,4.3c-0.1,3-0.1,5.9,0.4,9c1.3,8.7,3.7,16.9,7,25
		c0.3,0.8,0.6,1.7,1.2,2.2c1.8,1.3,2.4,3.3,3,5.2c1.9,5.3,3.7,10.7,5.6,16.1c0.4,1.1,0.7,2.3,1.2,3.4c1.8,4.3,3.6,8.7,5.4,13
		c0.3,0.7,0.6,1.5,1.1,2.6c0.2-1.3,0.4-2.1,0.6-3.4c1.1,3,1.1,3-0.1,4.9c0.5,3.7,1.2,7.4,3,10.7c0.7,1.3,1.4,2.6,2,3.9
		c0.2,0.4,0.6,0.8-0.1,1.4c-1.8-0.2-1.9-2.5-3.3-3.2c-0.4,1.4-0.7,2.7-1.1,3.9c-0.3,0.9-0.4,1.7,0.4,2.3c0.8,0.7,1.6,0.3,2.4-0.1
		c1.6-0.8,3.2-1.6,4.8-2.4c1.5-0.8,2.6-1.9,3.2-3.7C453.6,549.5,455.3,547.9,458.1,547.8z M413.2,186.9c0.2,2,1.2,3.7,2,5.4
		c2.1,4.8,3.8,9.6,5,14.7c1.2,5.3,1.6,10.7,0.8,16.2c-0.6,3.8-1.7,7.5-3.3,11.1c-1.4,3.2-2.9,6.3-4.4,9.5c-0.3,0.6-0.5,1.3-0.7,1.9
		c3.1,1.5,30,10.1,34.2,10.9c0.3,0.1,0.7-0.1,1.2-0.2c-0.4-1.2-0.7-2.4-1.1-3.4c-1.2-2.9-2.5-5.8-3.7-8.7c-0.1-0.3,0-0.8,0.1-1.6
		c0.7,0.5,1.2,0.7,1.4,1c3,4.2,4.2,9.2,6,13.8c3.7,1.1,7.2,2.2,10.8,3.2c0.5,0.1,1,0.3,1.4,0.2c3.7-0.7,7.5-0.2,11.2-0.1
		c6.6,0.3,12.6-1.7,18-4.6c2.2-3.3,2-6.6,1.8-10c0-0.4-0.1-0.7-0.1-1.1c-0.9-4.9-1.7-9.7-2.7-14.6c-0.3-1.4-0.8-2.7-1.5-4
		c-0.8-1.4-1.4-3.1-1.8-4.7c-0.5-1.8-0.8-3.8-1.3-5.6c-0.2-0.8-0.3-1.7-0.7-2.4c-0.6-1-0.7-2-0.5-3.1c0.4-2.7,0.7-5.5,1.1-8.2
		c0.9-5.3,1.9-10.7,2.8-16c0.3-1.5,0.8-3,0.7-4.5c-1.3-1-2.6-1.4-4.1-1.5c-0.8,0-1.7-0.1-2.5-0.2c-6.5-1.1-13-0.9-19.5-0.6
		c-6.3,0.3-12.5,1.2-18.8,0.8c-5.1-0.3-10.1,0.6-15.1,1.7c-3.1,0.7-6.1,1.3-9.1,2.1C418.3,185.1,415.7,185.6,413.2,186.9z
		 M506,319.4c-0.2,4.7,0.8,10.7,2.1,14.6c1.5,4.5,3.6,8.7,7.1,12c4.8,4.5,11.8,5.6,18.2,1.1c3.8-2.7,6.6-6.3,8.8-10.4
		c2.3-4.4,3.6-9.2,4.4-14.1c0.8-4.4,0.8-8.8,0.2-13.3c-0.5-4.1-1.5-8-3.2-11.8c-1.7-3.9-4.2-7.3-7.8-9.7c-4.7-3.1-9.5-3.1-14.3-0.4
		c-4.5,2.4-7.7,6.1-10.1,10.6C507.9,304.6,506.4,311.8,506,319.4z M380.3,289.2c-4.6-1.4-8.8-0.4-12.5,2.5
		c-4.5,3.5-7.5,8.1-9.5,13.4c-2.1,5.6-3.2,11.3-3.1,17.3c0.1,5.7,1,11.3,3.5,16.5c1.8,3.9,4.3,7.2,8.1,9.5c2.5,1.4,5.2,2.1,8,1.6
		c4.3-0.7,7.9-2.9,10.8-6.2c2.4-2.8,4.5-5.9,6.1-9.2c-0.1-1.7-0.2-3.2-0.3-4.8c-0.9-0.8-1.4-2.2-2.7-2.1c-1.7,0.1-2.6-1-3.4-1.8
		c-2.5,0-4.6,0-6.8,0c-1.8,0-3-0.8-3.6-2.4c-0.9-2.4-1.6-4.7-0.7-7.4c0.6-1.8,1.6-3.2,3.3-4.1c1.2-0.6,2.4-1,3.8-0.8
		c2.1,0.3,4.3,0.5,6.5,0.7c0.2-0.6,0.4-1,0.5-1.5c0.6-2.6,0.4-5.2-0.2-7.9c-0.9-4.2-2.7-7.7-5.8-10.6
		C381.7,291.1,381.2,290.3,380.3,289.2z M424.9,87.3c1.6-1.5,1.6-1.5,1.6-2.1c0-1.4-0.1-2.9,0.1-4.3c1-6.7,1.1-13.4,1.1-20.2
		c0-1.8,0.5-4-2-4.8c-1.3-2-2.6-4.1-3.9-6.1c-0.3-0.4-0.6-0.9-1-1.4c-0.1,0.5-0.2,0.7-0.2,1c0.1,0.6,0.1,1.2,0.3,1.8
		c1.4,4.8,1.5,9.7,1,14.7c-0.3,3.2-0.2,6.5,0.3,9.7c0.8-3.2,1.7-6.4,1.8-9.8c0-1.4,0-2.9,0-4.3c0-0.5,0.3-0.9,0.4-1.3
		c0.9,4.5,1.4,8.9,1.2,13.4C425.4,77.9,425.1,82.3,424.9,87.3z M385.3,324.4c0.6-3.7,1.2-7.4,1.8-11.2c-2.7-0.2-5.5-0.4-8-0.6
		c-2.4,1.1-3.4,2.8-3.4,5.2c0,1-0.1,1.9,0,2.9c0.1,0.8,0.5,1.5,0.7,2.4c1.6,0,3-0.2,4.4,0C382.4,323.5,383.8,324,385.3,324.4z
		 M485,109c1.7,2.4,3.3,4.1,4.4,6.1c2.7,4.8,6.2,8.8,9.8,13c-0.8-4.4-1.8-8.7-4.4-12.4C492.5,112.4,489.5,110.1,485,109z
		 M428.4,79.3c0.7-0.8,0.9-0.9,1-1.1c0.7-1.8,2.4-11.3,2.3-13.1c0-0.5-0.1-1-0.1-1.4c-0.1-1.2-0.5-2.3-1.3-3.3
		c-0.4-0.4-0.7-1-1.5-0.5c0.2,3.1,0.5,6.2,0.5,9.3C429.1,72.3,428.7,75.5,428.4,79.3z M423,48.1c0.7-1.9,1.3-3.6,2-5.5
		c-0.7-0.5-1.5-1.5-3-0.8C421.7,43.9,421.9,46,423,48.1z M437.7,4.8c-1.5-3.4-2.4-3.9-5.2-2.7C436.7,5,436.7,5,437.7,4.8z
		 M423.9,86.3c-1.1,2-1.1,2-0.7,3.3C424.4,88.7,424.2,87.6,423.9,86.3z M439.2,3.4c-0.2,0.2-0.3,0.3-0.5,0.4
		c0.2,0.2,0.4,0.5,0.6,0.6c0.1,0,0.3-0.2,0.5-0.3C439.7,4,439.5,3.7,439.2,3.4z M500,129.8c0-0.1-0.1-0.2-0.1-0.3
		c-0.1,0.1-0.2,0.1-0.2,0.1c0.1,0.1,0.1,0.2,0.2,0.4C499.9,129.9,499.9,129.9,500,129.8z"/>
	<path d="M389.4,581.1c-0.6-0.1-1.2-0.1-1.8-0.2c-2-0.6-2.9-2.2-2.8-4.1c0.1-3,0.3-6,0.4-9c0-0.6,0.3-1.3,0.1-1.8
		c-1.1-2.6-0.9-5.4-1.1-8.1c-1.4-0.6-2.9-1-4-1.9c-1.3-1-2.4-2.3-3.5-3.6c-2.2-2.5-3.8-5.3-4.9-8.3c-0.7-1.8-1.2-3.6-1.2-5.6
		c0-1.1-0.3-2.1-0.5-3.2c-0.3-1.6-0.2-3.1,0.3-4.6c0.5-1.5,1.6-2,3.1-1.7l-0.1-0.1c-1,2-1.8,3.9-1,6.2c0.3,0.8,0.2,1.7,0.1,2.5
		c0,2,0.4,3.8,1.4,5.5c1.2,2,2.4,3.9,3.6,5.8c1.3,1.9,3,3.4,5.1,4.5c1,0.5,1.9,1.1,2.8,1.7c0.9,0.7,1.5,1.6,1.5,2.8
		c0.1,2.9,0.2,5.8,0.2,8.7c0,2.4-0.1,4.8-0.2,7.2c-0.1,2.2,0.2,4.3,1.8,6.1C389.2,580.2,389.2,580.7,389.4,581.1L389.4,581.1z"/>
	<path d="M477,563.1c0.1-0.6,0.1-1.1,0.3-2.1c0.5,0.6,1.1,1,1,1.4c0,0.8-0.9,0.5-1.4,0.6L477,563.1z"/>
	<path d="M420.8,449.2c-0.2-5.1,2.2-9.2,3.6-13.5c0.9,0,1.2,0.3,1.1,0.9c0,0.5-0.2,0.9-0.3,1.4c-1.1,3.4-2.3,6.8-3.4,10.2
		C421.6,448.5,421.2,448.7,420.8,449.2z"/>
	<path d="M440.6,431.9c-1.4-0.6-2-1.8-2.5-3c-0.7-1.6-1.8-3.1-1.6-5c0-0.2,0.3-0.3,0.5-0.4c1.5,1.3,1.7,1.6,3.1,5
		C440.4,429.5,441.2,430.5,440.6,431.9z"/>
	<path d="M450,389.4c0,1.1,0.1,1.5,0,1.7c-1.1,1.7-2.5,3.2-4.2,4.3c-0.6-0.4-0.3-0.9-0.1-1.3C446.8,392.6,448.2,391.3,450,389.4z"/>
	<path d="M487.7,576.5c-0.5,1.6-1.8,2.1-3.3,2.3c-0.2,0-0.6-0.3-0.8-0.6c-0.1-0.2-0.1-0.5,0-0.7
		C484.4,576.1,485.6,575.8,487.7,576.5z"/>
	<path d="M420.2,458.1c-0.5-1.1-0.5-2.2,0.2-3.6c1.1,0.9,0.9,1.9,0.8,2.8C421.1,457.8,420.8,458.2,420.2,458.1z"/>
	<path d="M422.6,478.7c-0.4,0.3-0.6,0.5-0.9,0.7c-0.1-0.4-0.3-0.8-0.4-1.2c0-0.1,0.2-0.3,0.3-0.5C422,478.1,422.3,478.3,422.6,478.7
		z"/>
	<path d="M442.8,437.8c-1-0.7-1.6-1.2-1.2-2.2C442.6,436.2,442.6,436.2,442.8,437.8z"/>
	<path d="M443.5,442.4c-0.1,0-0.2,0-0.3-0.1c-0.4-0.4-0.8-0.8-0.4-1.4c0-0.1,0.2-0.1,0.3-0.1c0.4,0,0.7,0.7,0.6,1.3
		C443.6,442.2,443.5,442.3,443.5,442.4z"/>
	<path d="M440.4,528.3c0-0.3,0-0.5,0-0.8c0,0,0.1,0,0.1,0c0,0.3,0,0.5,0,0.8C440.5,528.3,440.4,528.3,440.4,528.3z"/>
	<path d="M420.1,464.2c0.1,0.1,0.2,0.2,0.2,0.3c0,0.4-0.1,0.8-0.2,1.2c0,0-0.2,0-0.2,0c0-0.4,0-0.8,0-1.2
		C419.9,464.4,420,464.3,420.1,464.2z"/>
	<path d="M421.2,472.1c-0.1,0.1-0.3,0.2-0.4,0.4c0-0.2-0.1-0.4-0.1-0.7c0-0.1,0.1-0.2,0.2-0.3C421.1,471.8,421.1,472,421.2,472.1z"
		/>
	<path d="M435.3,505.5c0-0.2-0.1-0.3-0.1-0.4c0,0,0.1-0.1,0.2-0.1C435.4,505.1,435.3,505.3,435.3,505.5z"/>
	<polygon points="436.8,513.6 436.7,513.4 436.9,513.4 	"/>
	<path d="M459,547.1c0-0.1,0.1-0.2,0.1-0.3c-0.1,0.1-0.1,0.1-0.2,0.2L459,547.1z"/>
	<path d="M458.9,547c-0.2,0.3-0.4,0.6-0.6,0.8l-0.1-0.1c0.3-0.2,0.6-0.4,0.9-0.6L458.9,547z"/>
	<path d="M424.9,19c1.9,1.2,3.7,2.6,6.2,2.9c-0.7-1.4-2.4-1.4-2.6-2.9l0,0c1.3-0.3,2.2,0.7,3.3,1.2c1.3,0.6,2.7,1.2,4.1,1.1
		c0.8,0,1.7,0,2.4-0.4c1.6-0.9,2.7-0.1,4.2,0.9c-1.1,1.1-2.3,0.6-3.2,1.1c-0.8,0.4-1.7,0.5-2.6,0.8c0.4,0.2,0.8,0.4,1.4,0.7
		c-1.6,0.5-1.8,1.6-1.5,3c-0.8,0.9-1.6,1.8-2.3,2.7c-2.8-0.2-5.6,0-8.2-1.4c-0.6-0.3-1.2-0.7-2.4-1.5c1.2,0,1.7-0.1,2,0
		c2.8,1.3,5.6,1.4,8.7,0.3c0.3-0.6,0.7-1.5,1.1-2.5c-3.5-0.3-6.8,0.2-10.7-0.5c2.8-0.8,5.1-0.1,7.6-0.8c-2.7-0.5-4.9-1.3-6.6-3
		c-0.5-0.5-1-1.1-0.7-1.9L424.9,19z"/>
	<path d="M459.6,42.3c-0.7,1.4-2,1.9-3.4,2c-0.5,0-1.1-0.4-1.4-0.8c-0.5-0.7-0.8-1.6-1.2-2.4c-0.7,0.1-1.5,0.3-2.5,0.5
		c0.3-0.7,0.5-1.1,0.6-1.5l-0.1,0.1c0.8-0.2,1.8,0.2,2.3-0.8l-0.1,0.1c1.7,0,3.5,0,5.2,0c0.1-0.2,0.2-0.3,0.3-0.5
		c-0.4-0.3-0.9-0.5-1.8-1.1c1.3,0.2,2.1,0.4,2.9,0.5c0.2,1.3,0.3,2.4,0.5,3.7C460.5,42.1,460.1,42.2,459.6,42.3
		c-0.1-0.3-0.2-0.6-0.3-0.9c-0.1,0.1-0.3,0.3-0.4,0.4C459.2,41.9,459.4,42.1,459.6,42.3z"/>
	<path d="M456.5,106.7c-0.9,0.4-1.2,0.7-1.5,0.6c-0.8-0.2-1.6-0.5-2.3-0.9c-2.2-1.4-4.5-1.5-6.9-0.6c-2.6,1-5.4,1.1-8.2,1
		c-2.2-0.1-4.2-0.7-6.7-2.1c1.1,0,1.6-0.1,2,0c4,1.1,8.1,1.2,12.1,0c0.8-0.2,1.6-0.5,2.4-0.7c1.4-0.3,2.8-0.3,4.2,0.5
		C452.9,105.3,454.4,105.8,456.5,106.7z"/>
	<path d="M463.1,135.1c0.4,0.1,1,0.1,1.3,0.3c0.9,0.7,1.7,1.6,2.6,2.4c1.3-1.5,1.1-3.7,3.2-4.7c0.1,0.5,0.3,1,0.2,1.3
		c-0.6,1.7-1.3,3.3-2.1,5.2c0.9,2.1,3,3.9,2.8,6.6c0,0.3-0.4,0.5-0.5,0.7c-0.2-0.1-0.4-0.1-0.4-0.2c-0.6-2.9-2.3-5.2-4.1-7.5
		C465,137.8,464.2,136.4,463.1,135.1L463.1,135.1z"/>
	<path d="M465.4,35.6c-1.1,0-1.7,0.1-2.2,0c-1.6-0.4-3.3-0.7-4.9-1.2c-3.1-0.9-6.1-1-8.8,1.2c-0.2,0.1-0.4,0.2-0.7,0.2
		c-0.1,0-0.2,0-0.3,0c-0.3-0.9,0.6-1.2,1-1.6c0.5-0.5,1.1-1,1.7-1.2c1.8-0.6,3.8-0.9,5.7-0.6c2.5,0.5,4.9,1.2,7.3,1.9
		C464.6,34.4,464.8,34.9,465.4,35.6z"/>
	<path d="M457.5,63.2c0.9,0,1.5-0.2,2-0.1c1.8,0.4,3.6,0.4,5.3-0.3c1.2-0.5,2.3-0.4,3.5,0c0.7,0.2,1.4,0.3,2.1,0.4
		c1.1,0.2,2,0.5,2.7,1.3c0,0.8-0.6,1-1,0.9c-3.1-1-6.2-0.7-9.3-0.3c-1.7,0.3-3.3-0.2-4.9-0.8C457.9,64.2,457.8,63.9,457.5,63.2z"/>
	<path d="M472.6,53.6c-0.7-1.4-1.2-2.6-1.9-3.7c-1.4-2.7-2.4-5.5-3-8.5c-0.3-1.9,0.2-3.5,1.8-4.7c0,0,0.2,0.1,0.5,0.2
		c-0.5,1.3-1.1,2.5-1.6,3.8c1.1,4.6,3.2,8.6,4.9,12.9c-0.4,1-0.8,2-1.1,3c-1,0.5-1.8,0.8-3,0.5C470.4,55.7,471.5,54.7,472.6,53.6z"
		/>
	<path d="M446.7,14.8c-1.2,0.1-2.4-0.2-3.4,0.8c-1.1,1-2.3,1-3.7,0.5c-1.5-0.6-3-0.8-4.6-0.5c0.1-0.3,0.2-0.7,0.3-1.2
		c0.9-0.1,1.8-0.2,2.8-0.4c-0.1-0.5-0.1-1-0.2-1.4c0.9-0.6,1.9-0.7,2.7-0.3C442.6,13.2,444.7,13.7,446.7,14.8z M440.1,13.9
		c0.1,0,0.2-0.1,0.3-0.1c-0.1-0.1-0.2-0.2-0.2-0.2c-0.1,0-0.2,0.1-0.3,0.2C439.9,13.8,440,13.8,440.1,13.9z"/>
	<path d="M442.3,87.1c-0.1,0-0.3,0-0.3-0.1c-1.3-1.8-3.8-7.2-4.4-9.6c0.3-0.5,0.9-0.6,1.2-0.2c0.7,0.8,1.4,1.7,1.7,2.7
		C441.3,82.3,442.2,84.6,442.3,87.1L442.3,87.1z"/>
	<path d="M462.4,68.4c1.9-0.9,3.3-0.2,4.7-0.2c1.4,0,2.8,0,4.4,0c-0.1,0.3-0.2,0.7-0.4,0.8C468.3,70.3,465.6,70.5,462.4,68.4z"/>
	<path d="M428.5,45.9c0.2,0.2,0.7,0.5,0.7,0.7c-0.1,1.6,0,3,1.2,4.3c0.7,0.8,0.6,1.1-0.5,2.8c-1.3-0.4-1.4-1.3-1.1-2.4
		c-0.7-0.5-1.4-1-1.7-1.2c0-0.9-0.1-1.1,0-1.3C427.6,47.8,428.1,46.8,428.5,45.9L428.5,45.9z"/>
	<path d="M445.2,76.3c0.6,0,1.2,0,1.8,0.1c2.5,0.8,5,1.7,7.7,2.6c-0.5,0.3-0.7,0.6-0.9,0.6c-2.8-0.7-5.7-1.2-8.1-2.9
		C445.5,76.6,445.4,76.4,445.2,76.3L445.2,76.3z"/>
	<path d="M462,55.6c1.7,0.3,1.8,0.3,3.7-0.2c0.6-0.1,1.2-0.2,1.7-0.2c0.2,0,0.4,0.2,0.8,0.4c-0.3,0.3-0.5,0.8-0.8,0.9
		c-1,0.3-2.1,0.6-3.1,0.7C463.3,57.3,462.4,56.8,462,55.6z"/>
	<path d="M437.9,18.3c-0.2,0.2-0.3,0.5-0.5,0.5c-2.4,0.4-4.7-0.2-6.8-1.6c2.4,0.4,4.9,0.8,7.3,1.2L437.9,18.3z"/>
	<path d="M458.3,82.3c1.6,1.6,1.6,2-0.4,3.8c-0.1-0.4-0.2-0.7-0.2-1C457.9,84.2,458.1,83.3,458.3,82.3z"/>
	<path d="M461.2,106.8c-2.8,2.3-3.1,2.3-4.5,1C458.1,107.5,459.3,106.7,461.2,106.8z"/>
	<path d="M451.7,40c-0.3,0-0.7,0-1.1-0.1c1.6-1.6,1.6-1.6,4.1-1.8c-0.3,0.4-0.6,0.9-1,1.3l0.1-0.1C453,39.3,452.2,39.3,451.7,40
		L451.7,40z"/>
	<path d="M468.3,60.7c-0.7-0.4-1.1-0.6-0.7-1.1c0.1-0.1,0.2-0.1,0.3-0.1C468,59.8,468.1,60.2,468.3,60.7z"/>
	<path d="M447.7,95c-0.3-0.2-0.5-0.4-0.7-0.6c-0.1-0.1,0-0.4,0.1-0.5c0.3,0.1,0.5,0.3,0.7,0.5C447.9,94.5,447.7,94.8,447.7,95z"/>
	<path d="M446,91.7c-0.1,0.1-0.2,0.1-0.3,0.2c-0.1-0.2-0.3-0.4-0.4-0.5c0,0,0.1-0.1,0.2-0.2C445.7,91.3,445.9,91.5,446,91.7z"/>
	<path d="M443.6,75.6c-0.4-0.5-0.9-1-1.3-1.5l-0.1,0.1C443.4,74.4,443.5,74.5,443.6,75.6L443.6,75.6z"/>
	<path d="M457.4,9.7c0.3,0.1,0.6,0.1,0.9,0.2c-0.1,0.1-0.2,0.2-0.3,0.4C457.8,10,457.6,9.8,457.4,9.7L457.4,9.7z"/>
	<path d="M464.7,14.6c0.3,0.5,0.5,1.1,0.8,1.6C464.7,15.9,464.7,15.3,464.7,14.6z"/>
	<path d="M465.4,16.1c0.5,0,1,0,1.6,0C466.4,16.4,465.9,17,465.4,16.1z"/>
	<path d="M471.3,39.4c0.2-0.2,0.4-0.4,0.1-0.1C471.8,39.1,471.5,39.2,471.3,39.4L471.3,39.4z"/>
	<path d="M475.7,39.2c-0.3,0-0.6-0.1-0.4,0c-0.2-0.1,0,0,0.3,0.1L475.7,39.2z"/>
	<path d="M443.5,75.7c0.5,0.2,1.1,0.4,1.6,0.6l0.1-0.1C444.7,76,444.2,75.8,443.5,75.7L443.5,75.7z"/>
	<path d="M442.2,87.2c0.2,0.1,0.4,0.2,0.5,0.3c0.1,0.1-0.1,0.3-0.2,0.5c-0.1-0.1-0.1-0.2-0.2-0.3C442.3,87.5,442.3,87.3,442.2,87.2
		L442.2,87.2z"/>
	<polygon points="471.3,39.3 471.1,39.4 471.3,39.4 	"/>
	<path d="M475.6,39.3c0.1,0.1,0.2,0.3,0.3,0.4c-0.1-0.1-0.1-0.1-0.2-0.2c0-0.1,0-0.2,0-0.3L475.6,39.3z"/>
	<path d="M428.5,19c-0.2-0.1-0.3-0.1-0.5-0.2c0.1-0.1,0.2-0.2,0.3-0.3C428.4,18.8,428.4,18.9,428.5,19L428.5,19z"/>
	<path d="M446.6,15.5c0-0.3,0-0.6,0-0.9C447.2,14.9,447.3,15.2,446.6,15.5z"/>
	<path d="M463.9,13.9c0.3,0.3,0.6,0.6,0.8,0.8C464.5,14.5,464.2,14.2,463.9,13.9z"/>
	<path d="M463.2,13.2c0.3,0,0.6,0,0.8,0c0,0.3,0,0.6,0,0.8C463.7,13.8,463.5,13.5,463.2,13.2z"/>
	<path d="M463.2,135C463.1,134.9,463.2,135.1,463.2,135L463.2,135z"/>
	<path d="M442.3,74.1c-0.5,0-0.7-0.3-0.7-0.7l-0.1,0.1C442,73.4,442.3,73.6,442.3,74.1L442.3,74.1z"/>
	<path d="M441.6,73.4c-0.2-0.2-0.5-0.5-0.7-0.7l-0.1,0.1C441.1,72.9,441.3,73.2,441.6,73.4L441.6,73.4z"/>
	<polygon points="440.9,72.6 440.6,72.5 440.8,72.7 	"/>
	<path d="M432.2,45.9c0-0.1,0-0.2,0.1-0.3C432.2,45.7,432.1,45.8,432.2,45.9L432.2,45.9z"/>
	<path d="M472.5,202.4c0,0.8,0,1.7,0,2.5c-0.1,1.4,0.3,2.6,0.7,3.8c0.7,2,1.3,4.2,1.4,6.3c0.2,4.5,0,8.9-0.1,13.4
		c0,1,0.1,2.2-1.2,3.1c-0.3-0.5-0.6-0.9-0.7-1.3c-0.1-1.1-0.1-2.2-0.1-3.3c0-3.1,0.1-6.3,0-9.4c-0.1-2.2-0.2-4.3-0.6-6.5
		C471.5,208.2,471.5,205.4,472.5,202.4z"/>
	<path d="M463.8,184.4c0.6,0.9,0.2,1.4-0.2,1.9c-1.1,1.2-2.3,2.5-3.5,3.6c-3.8,3.5-7.6,7-11.4,10.4c-0.4,0.4-0.9,0.7-1.7,0.7
		c0.3-0.5,0.5-1,0.8-1.4c1.8-1.9,3.5-3.9,5.4-5.8c3.1-3,6.3-5.9,9.5-8.8C463.1,184.8,463.4,184.7,463.8,184.4z"/>
	<path d="M476,235.9c0.9,0.7,1,1.4,0.5,2c-1.3,1.4-1.3,3-0.9,4.6c-1.3,0.6-2.2,0.1-2.9-0.7c-0.7-0.8-0.6-1.8-0.3-2.7
		C472.8,237.3,474.2,236.5,476,235.9z"/>
	<path d="M439.7,192.3c-2.2-0.9-4.2-2.1-6-3.6c-0.6-0.5-1-1.3-1.4-2c-0.1-0.1,0-0.5,0.2-0.6c0.1-0.1,0.5-0.2,0.6-0.1
		c0.3,0.2,0.6,0.4,0.8,0.7c1,1.2,2,2.3,3.5,3C438.4,190.1,439.2,191,439.7,192.3z"/>
	<path d="M482.1,194.2c-1-1.9-1.6-3-2.3-4.2c-0.6-1-1.3-2-1.9-3c0.4-0.2,0.6-0.5,0.8-0.4c1.2,0.2,1.8,1.2,2.3,2.1
		C482.1,190.5,482.3,191.2,482.1,194.2z"/>
	<path d="M445.6,203.8c-0.2,2.5-1.2,5.4-2.4,6.9C443.3,208,443.7,205.8,445.6,203.8z"/>
	<path d="M428,195.4c1.3,0.6,1.9,1.7,1.8,3.3C428.1,198,427.7,196.9,428,195.4z"/>
	<path d="M440.4,237.4c-0.9-1-1.1-2.3-1.3-3.9C440.6,235.4,440.6,235.4,440.4,237.4z"/>
	<path d="M437.5,230.2c-0.8-1.1-0.8-1.1-0.7-2.7C437.6,228.6,437.6,228.6,437.5,230.2z"/>
	<path d="M431.5,199.3c1.5,0.5,2.1,1.2,2,2.5C431.9,201,431.9,201,431.5,199.3z"/>
	<path d="M472.5,199c-0.6-0.9-0.5-1.5-0.4-2.5C473.1,197.4,472.5,198.1,472.5,199z"/>
	<path d="M441.5,215.2c-0.1-0.2-0.3-0.4-0.3-0.5c0.2-0.2,0.4-0.4,0.7-0.7c0.1,0.3,0.2,0.6,0.2,0.8C442,215,441.6,215.1,441.5,215.2z
		"/>
	<path d="M412.1,280.6c-0.8-3.9-0.5-7-0.1-10.1c0.6-4.3,1.5-8.5,2.2-12.8c0-0.2,0.1-0.5,0.3-0.6c0.2-0.2,0.6-0.3,0.9-0.4
		c0.2,0,0.4,0.2,0.5,0.4c0.4,1.3,0.2,2.6-0.1,3.9c-0.8,3.5-1.5,7-2.2,10.6C413,274.3,412.7,277,412.1,280.6z"/>
	<path d="M471.1,286.5c0.2,1.6,0.1,2.9-0.2,4.6C470,289.2,470,289.2,471.1,286.5z"/>
	<path d="M402.3,211.3c1.7-0.2,1.8,0.8,2.2,1.5c1.6,3,1.8,4.1,1.6,5.9c-0.2-0.1-0.5-0.1-0.6-0.2
		C404.4,216.2,403.4,213.9,402.3,211.3z"/>
	<path d="M402.8,106.2c2.3-0.3,3.8,0.2,5.1,1.4C406.1,108.1,405.4,107.9,402.8,106.2z"/>
	<path d="M393.6,149.7c-2.3-1.8-2.3-1.8-2.2-4.5C392.6,146.6,393.4,147.9,393.6,149.7z"/>
	<path d="M398.6,201.4c0,0.6,0,1.3,0,2c-0.8,0-1-0.6-1-1.2C397.6,201.7,397.8,201.4,398.6,201.4z"/>
	<path d="M413.6,145.7c-0.8-1.3-0.7-2.5-0.2-4.1C414.6,143.1,414.4,144.3,413.6,145.7z"/>
	<path d="M416.8,111.2c-1-0.3-1.4-0.4-1.6-0.6c-0.2-0.2-0.2-0.5-0.3-0.8c0.3,0,0.7-0.1,0.9,0C416.1,109.9,416.2,110.3,416.8,111.2z"
		/>
	<path d="M413.9,108.7c-0.2,0.1-0.4,0.3-0.6,0.3c-0.4-0.1-0.8-0.3-1.2-0.4c0.1-0.2,0.2-0.5,0.3-0.5c0.4,0,0.8,0,1.2,0.1
		C413.8,108.1,413.8,108.5,413.9,108.7z"/>
	<path d="M402.8,282.4c0.1,0.2,0.3,0.4,0.2,0.6c0,0.2-0.2,0.4-0.3,0.6c-0.1-0.2-0.3-0.4-0.3-0.6
		C402.5,282.8,402.7,282.6,402.8,282.4z"/>
	<path d="M400.4,206.6c0.2,0.3,0.4,0.5,0.5,0.8c0,0.1-0.2,0.3-0.3,0.5c-0.2-0.2-0.5-0.5-0.7-0.7
		C399.9,207.1,400.1,206.9,400.4,206.6z"/>
	<path d="M416.3,146.6c0.1-0.3,0.1-0.6,0.2-0.9c0.1,0.1,0.2,0.2,0.1,0.3C416.5,146.2,416.3,146.3,416.3,146.6L416.3,146.6z"/>
	<path d="M402,275c0-0.1-0.2-0.2-0.1-0.3c0.1-0.1,0.2-0.2,0.3-0.2c0,0.1,0,0.2,0,0.3C402.2,274.9,402.1,275,402,275z"/>
	<path d="M402.2,279c0,0.1-0.1,0.2-0.1,0.3c-0.1-0.1-0.2-0.2-0.3-0.4c0-0.1,0.1-0.2,0.2-0.3C402.1,278.8,402.2,278.9,402.2,279z"/>
	<path d="M416.2,146.5c-0.1,0.1-0.1,0.2-0.2,0.2C416.1,146.7,416.2,146.7,416.2,146.5L416.2,146.5z"/>
	<path d="M424.9,156.6c0.2,0.1,0.4,0.2,0.7,0.3c0.1,0,0.2,0.1,0.4,0.2c0.6,3.5,2.7,6,5.4,8.1c2.6,2.1,5.5,3.4,8.6,4.4
		c1.7,0.5,3.5,1,5.2,1.5c0.9,0.3,1.8,0.7,2.6,1c0,0.8-0.4,0.9-0.9,1c-2.7,0.2-5.2-0.6-7.8-1.3c-3.5-1-6.7-2.7-9.4-5.2
		C427,163.9,424.6,160.9,424.9,156.6L424.9,156.6z"/>
	<path d="M452,172.1c1.4-0.5,2.8-1,4.1-1.4c0.3-0.1,0.7,0,1,0c-0.8,1.5-1.1,1.7-3.2,2.2C453.3,173.1,453.3,173.1,452,172.1z"/>
	<path d="M488.8,168c1.9-1.4,2.3-1.3,3.3,0C491.1,168.5,490,168.5,488.8,168z"/>
	<polygon points="459.1,170 459.3,170 459.3,170.2 	"/>
	<polygon points="425,156.6 424.8,156.6 424.9,156.6 	"/>
	<path d="M425.2,153.2c0.1,0.1,0.1,0.2,0.2,0.2c-0.1,0-0.3,0-0.4,0C425.1,153.3,425.1,153.2,425.2,153.2z"/>
	<path d="M405.3,346.4c-1-0.2-1.2-1.1-1.6-1.8c-2.2-4.3-3.4-8.9-3.7-13.8c-0.3-5.3,0.2-10.6,1.6-15.7c1.8-6.7,5-12.7,9.9-17.8
		c0.8-0.9,1.9-1.5,2.8-2.2c3.3-2.6,6.9-2.3,10.6-1.1c0.8,0.2,1.5,0.8,2.1,1.3c2,1.4,3.3,3.5,4.9,5.3c0.2,0.2,0.1,0.7,0.1,1l0.1,0
		c-1.5-0.7-2.3-2-3.4-3.1c-2.5-2.5-5.5-3.8-9.1-3.6c-1.9,0.1-3.5,0.6-5.1,1.6c-2.2,1.5-4.1,3.3-5.7,5.5c-2.2,2.9-3.9,6.1-5,9.6
		c-1.8,5.6-3.1,11.3-2.9,17.3c0.1,5.3,1.3,10.2,3.4,15C404.8,344.7,405.5,345.4,405.3,346.4L405.3,346.4z"/>
	<path d="M427.9,327c-1.2,0.2-1.6,1.3-2.4,2c-1.7,1.2-3.4,1.3-4.9-0.1c-0.8-0.7-1.5-1.6-1.8-2.6c-1-3-1.1-6.1,0.4-9.1
		c0.3-0.5,0.6-1.1,0.9-1.5c2.3-2.9,5.9-2.6,7.7,0.6c0.4,0.6,0.6,1.3,0.9,2.1c0.3-0.1,0.6-0.1,0.9-0.2c0.1,0,0.3,0.1,0.3,0.2
		c0.3,3.2,0.6,6.5-0.8,9.6c-0.7,1.6-2,2.9-3.6,3.3c-1.6,0.4-3.3,0.7-4.8-0.5l-0.1,0.1c0.8-0.1,1.6-0.2,2.4-0.2
		C425.5,330.6,427,329.3,427.9,327c0.8-0.6,0.5-1.5,0.6-2.2c0.1-0.2,0.3-0.5,0.2-0.3c0-0.2,0,0.1-0.1,0.4
		C427.8,325.4,427.7,326.2,427.9,327z M427.5,321.2c-0.2-1.2-0.3-2.5-0.7-3.7c-0.4-1.1-1.2-2.1-2.5-2.3c-1.3-0.2-2.4,0.4-3.1,1.5
		c-0.5,0.8-1,1.7-1.3,2.6c-0.3,1-0.3,2.1-0.4,3.2c-0.2,1.7,0.3,3.1,1.2,4.4c1.3,1.8,3,2,4.6,0.5C427,325.7,427.3,323.6,427.5,321.2z
		"/>
	<path d="M407.5,349.4c1.9,0.9,3.7,1.9,5,3.7l0.1-0.1C410.3,352.4,408.6,351.3,407.5,349.4L407.5,349.4z"/>
	<path d="M435.1,332.7c0.1-1,0.3-2,0.5-3.5C436.5,330.8,435.6,331.8,435.1,332.7z"/>
	<path d="M433.5,304.5c1.4,0.7,1.3,1.9,1.3,3.5C433.9,306.8,433.5,305.7,433.5,304.5L433.5,304.5z"/>
	<path d="M435.8,313c-1.1-0.8-0.3-2-0.4-2.9C435.5,311.1,435.6,312.1,435.8,313L435.8,313z"/>
	<path d="M412.5,353.1c0.8,0,1.5,0.1,2.3,0.1C413.9,353.8,413.2,353.7,412.5,353.1L412.5,353.1z"/>
	<path d="M435.7,313.1c0.6,0.6,0.7,1.4,0.5,2.2C435.5,314.6,435.8,313.8,435.7,313.1L435.7,313.1z"/>
	<path d="M405.3,346.5c0.9,0.4,1.4,1.2,1.5,2.2l0.1-0.1C405.6,348.3,405.3,347.5,405.3,346.5L405.3,346.5z"/>
	<path d="M421.2,353c-0.4,0.5-0.9,0.6-1.8,0.1C420.3,353.1,420.8,353.1,421.2,353L421.2,353z"/>
	<path d="M436.9,319.5c0,0.3,0,0.6,0,1c-0.1,0-0.1,0-0.2,0c0-0.3,0-0.6,0-1C436.8,319.5,436.8,319.5,436.9,319.5z"/>
	<path d="M428.7,316c0.1,0,0.2,0.1,0.2,0.1c0,0.1,0,0.2-0.1,0.3c-0.1,0-0.2-0.1-0.2-0.1C428.6,316.2,428.7,316.1,428.7,316z"/>
	<path d="M417.3,353.3c0,0.1,0,0.2,0,0.2c-0.1,0-0.2,0.1-0.3,0c-0.1,0-0.2-0.1-0.3-0.2C416.8,353.3,417.1,353.3,417.3,353.3z"/>
	<path d="M432.8,303.1c0.9,0.1,0.8,0.8,0.7,1.4l0.1-0.1C432.8,304.2,432.8,303.6,432.8,303.1L432.8,303.1z"/>
	<path d="M432.8,303c-0.8-0.2-0.9-0.8-0.7-1.5l-0.1,0C433,301.8,432.9,302.4,432.8,303L432.8,303z"/>
	<polygon points="424.7,312.7 425,312.8 424.7,312.9 	"/>
	<path d="M419.1,329c-0.1,0-0.2-0.1-0.3-0.1C418.8,329,418.9,329,419.1,329L419.1,329z"/>
	<path d="M419,329.1c0.5,0,0.7,0.2,0.7,0.7l0.1-0.1C419.3,329.8,419.1,329.5,419,329.1L419,329.1z"/>
	<path d="M420.6,330.6c-0.3-0.3-0.5-0.6-0.8-0.8l-0.1,0.1C420,330.1,420.2,330.4,420.6,330.6L420.6,330.6z"/>
	<path d="M407.6,349.3c-0.5,0.1-0.8-0.1-0.8-0.7l-0.1,0.1C407,348.9,407.2,349.1,407.6,349.3L407.6,349.3z"/>
	<polygon points="421.3,353.1 421.4,352.8 421.2,353 	"/>
	<path d="M536.4,310.2c0.1,0.5,0.2,0.9,0.2,1.4c1-0.2,1.7,0.2,1.8,1.1c0.2,2.9,0.1,5.7-0.9,8.5c-0.7,1.9-2.1,3.2-4,3.8
		c-1.8,0.6-3.5,0.5-5-1l-0.1,0.1c0.6,0,1.2-0.1,2.3-0.2c-2.6-1.4-3.8-3.2-4.2-5.5c-0.5-2.8-0.3-5.5,1.2-8c0.5-0.8,1.1-1.6,1.9-2.1
		c1.7-1.3,3.6-1.2,5.2,0.2C535.4,309,535.9,309.7,536.4,310.2L536.4,310.2z M536.3,319.6c0.6-0.7,0.6-0.7,0.3-1.4
		c-0.1,0.5-0.1,1-0.2,1.5c-0.6,0.3-0.7,0.9-0.7,1.5c-1.2,1-2.4,1.9-3.6,2.9c-0.1,0-0.2,0-0.3,0.1c0,0-0.1,0.1-0.1,0.2
		c0.1-0.1,0.2-0.2,0.3-0.3c2.5-0.1,2.9-0.4,3.6-2.9C536.6,320.9,536.4,320.2,536.3,319.6z M527.7,316.2c-0.3,1.8,0.4,3.4,1.6,4.9
		c0.9,1.1,2.4,1.3,3.6,0.5c0.5-0.3,0.9-0.8,1.3-1.2c1.7-2.3,2-7.2,0.5-9.7c-0.2-0.4-0.6-0.8-0.9-1.1c-0.9-0.8-2-1-3-0.4
		c-0.7,0.4-1.3,1.1-1.8,1.7C528,312.5,527.7,314.3,527.7,316.2z"/>
	<path d="M514.7,342.1c-1.1-0.4-1.4-1.6-1.9-2.5c-1.8-2.9-3-6-3.7-9.3c-1-4.6-1.3-9.3-0.4-13.9c0.3-1.3,0.3-2.6,0.4-3.9
		c0.6-4.6,2.6-8.8,4.5-12.9c0.2-0.4,0.7-0.6,1-0.9l0,0c-0.2,0.7-0.3,1.4-0.6,2c-3.7,7.9-5.2,16.2-4.7,24.8c0.3,4.5,1.6,8.7,3.5,12.7
		C513.6,339.5,514.5,340.7,514.7,342.1L514.7,342.1z"/>
	<path d="M518.2,293.5c1.8-3.7,5.1-5.5,8.7-6.4c2.5-0.6,5.4-0.2,7.6,1.4c4.5,3.3,7.6,7.6,8.5,13.3c-0.2-0.3-0.6-0.6-0.7-1
		c-0.9-3.4-2.8-6-5.2-8.5c-4.1-4.2-10.6-5.3-15.6-1c-1,0.9-2.1,1.6-3.1,2.4L518.2,293.5z"/>
	<path d="M518.4,293.7c-1,1.8-2,3.7-3.8,4.9l0,0c0.3-2.3,1.7-3.9,3.5-5.2L518.4,293.7z"/>
	<path d="M519.1,345.7c-1.4-0.2-2.4-0.9-2.9-2.2l-0.1,0.1C517.4,343.8,518.6,344.4,519.1,345.7L519.1,345.7z"/>
	<path d="M543.7,326.1c0.1-0.8,0.1-1.6,0.2-2.5c0.1,0,0.3,0,0.4,0c0,0.8-0.1,1.6-0.1,2.5C544,326.2,543.8,326.2,543.7,326.1z"/>
	<path d="M521.9,347.2c-1.2,0-2.3-0.2-2.8-1.5l-0.1,0.1C520.2,345.8,521.2,346.2,521.9,347.2L521.9,347.2z"/>
	<path d="M543.7,304.7c-0.2-0.4-0.3-0.8-0.5-1.2C543.7,303.8,544.2,304,543.7,304.7z"/>
	<path d="M544.4,308.7c-0.6-0.6-0.9-1.3-0.3-2.4C544.2,307.3,544.3,308.1,544.4,308.7L544.4,308.7z"/>
	<path d="M544.9,313c0,0.3,0,0.7,0,1c-0.1,0-0.1,0-0.2,0c0-0.3,0-0.7,0-1C544.8,313,544.8,313,544.9,313z"/>
	<path d="M521.8,347.3c0.6,0,1.1,0,1.8,0C522.8,348.1,522.4,347.8,521.8,347.3L521.8,347.3z"/>
	<path d="M527.7,347.1c0.5-0.4,1.1-0.8,2-0.1C528.8,347,528.3,347,527.7,347.1L527.7,347.1z"/>
	<path d="M525.2,347.4c0.1,0,0.2-0.1,0.3-0.1c0,0.1,0.1,0.2,0.1,0.3c-0.1,0-0.2,0-0.3,0C525.3,347.6,525.3,347.5,525.2,347.4z"/>
	<polygon points="545.4,317.6 545.4,317.3 545.5,317.4 	"/>
	<path d="M544.3,308.8c0.2,0.1,0.4,0.3,0.4,0.4c0,0.1-0.1,0.3-0.2,0.4c0-0.1-0.1-0.2-0.1-0.3C544.5,309.2,544.4,308.9,544.3,308.8
		L544.3,308.8z"/>
	<path d="M536.4,310.3c0.1-0.1,0.2-0.3,0.3-0.4c0,0.1,0,0.2-0.1,0.2C536.6,310.2,536.5,310.2,536.4,310.3L536.4,310.3z"/>
	<path d="M527.7,323.4c0.2,0.3,0.5,0.5,0.7,0.8l0.1-0.1C528.2,323.8,528,323.5,527.7,323.4L527.7,323.4z"/>
	<path d="M514.6,342.1c0.6-0.1,0.7,0.2,0.7,0.7l0.1-0.1C514.9,342.9,514.7,342.6,514.6,342.1L514.6,342.1z"/>
	<path d="M515.4,342.8c0.2,0.3,0.5,0.5,0.7,0.8l0.1-0.1C515.7,343.5,515.4,343.3,515.4,342.8L515.4,342.8z"/>
	<path d="M527,322.6c0.2,0.2,0.5,0.5,0.7,0.7l0.1-0.1C527.5,323,527.3,322.8,527,322.6L527,322.6z"/>
	<polygon points="527.7,347 527.6,347.3 527.7,347.1 	"/>
	<polygon points="527.1,322.6 526.9,322.5 527,322.6 	"/>
	<path d="M393.8,529c1-2.5,2.2-4.3,3.6-6c0.7-0.8,1.2-0.7,2,0.5c-0.9,1.5-1.8,3-2.8,4.5c-0.3,0.5-0.8,0.9-1.3,1.2
		C395,529.4,394.5,529.2,393.8,529z"/>
	<path d="M404.8,509.3c0,1.2,0,1.2-0.6,1.8C404.2,510,404.2,510,404.8,509.3z"/>
	<path d="M400.3,519.9c0-0.4,0.1-0.8,0.1-1.2c0.1,0,0.3,0,0.4,0c0,0.4,0,0.8-0.1,1.2C400.6,519.9,400.5,519.9,400.3,519.9z"/>
	<path d="M402,514.4c0.1,0,0.2,0.1,0.2,0.1c0,0.1,0,0.2-0.1,0.3c-0.1,0-0.2-0.1-0.2-0.1C401.9,514.6,402,514.5,402,514.4z"/>
	<path d="M500.9,302.4c-3.8-2.9-4.4-5.6-2.6-10.5c1-0.6,1.9-1.2,3-1.8c0,1.4,0,1.4-1.1,3.3c-0.6,1-1,2.1-1.4,2.9
		C498.9,298.6,500.8,299.9,500.9,302.4z"/>
	<path d="M496.3,212c-0.1-0.2-0.3-0.4-0.3-0.6c0.3-2,0.7-4,1.1-5.9c0-0.2,0.6-0.3,0.9-0.3c0.2,0,0.4,0.3,0.5,0.4
		c0.1,0.1,0.1,0.2,0.1,0.3c-0.4,2.1-0.6,4.2-2,6C496.6,212,496.4,211.9,496.3,212z"/>
	<path d="M494.9,215.1c0.5,1.3,0.2,2.1-1,2.7C493.4,216.6,493.9,215.9,494.9,215.1z"/>
	<path d="M499.7,288c0-0.7,0-1.2,0-1.8C500.8,286.9,500.8,287,499.7,288z"/>
	<path d="M498.5,273.2c0,0.1-0.1,0.2-0.1,0.3c-0.1-0.1-0.2-0.2-0.2-0.4c0,0,0.1-0.1,0.2-0.2C498.4,273.1,498.5,273.1,498.5,273.2z"
		/>
	<path d="M499,278.8c0.1,0,0.1,0,0.2,0c0,0.3-0.1,0.5-0.1,0.8c-0.1-0.1-0.2-0.2-0.2-0.2C498.9,279.1,499,279,499,278.8z"/>
	<path d="M499.8,283c0.1,0,0.2,0,0.2,0c0,0.1,0,0.2,0,0.3c-0.1,0-0.2,0-0.3-0.1C499.7,283.2,499.7,283.1,499.8,283z"/>
	<path d="M430,8.1c-0.8,0.2-1.6,0.1-1.9-1c0.9-0.1,1.6,0.2,1.8,1.1L430,8.1z"/>
	<path d="M430.7,11.1c0.9,0.5,1.7,1,3.3,2C431.7,12.4,431.7,12.4,430.7,11.1L430.7,11.1z"/>
	<path d="M422.1,324.6c-0.3-1.2-0.7-2.4-0.8-3.7c-0.2-1.2,0.3-2.4,1.3-3.2c1.1-0.8,2.2-0.4,3.3,0.2c0.1,0.4,0.3,0.8,0.3,1.1
		c0,0.9,0,1.9-0.3,2.9c-0.2-0.9-0.4-1.7-0.6-2.8c-0.6,0.1-1.2,0-1.7,0.2c-0.4,0.2-0.7,0.7-0.7,1.1c0,1.1,0.1,2.1,0.2,3.2
		C423.1,324.2,422.9,324.5,422.1,324.6z"/>
	<path d="M531.1,318.6c-1.9-2.5-2.1-4.3-1-6.3c0.9-1.5,2.4-1.8,3.9-0.6c0.2,0.1,0.3,0.5,0.2,0.6c-0.2,0.2-0.4,0.5-0.7,0.5
		c-2.1,0.1-2.4,0.3-2.3,2.1C531.3,316.2,531.5,317.4,531.1,318.6z"/>
	<path d="M534.4,315.8c0.1,0.1,0.2,0.2,0.2,0.2c-0.1,0.1-0.2,0.3-0.3,0.4c0,0-0.1-0.1-0.2-0.2C534.2,316.1,534.3,315.9,534.4,315.8z
		"/>
	<path d="M534.6,314.3c-0.1,0.1-0.2,0.1-0.2,0.2c-0.1-0.1-0.1-0.2-0.2-0.4c0.1,0,0.2-0.1,0.3,0C534.5,314.1,534.5,314.2,534.6,314.3
		z"/>
</g>
</svg>
