<?xml version="1.0" encoding="utf-8"?>
<!-- Generator: Adobe Illustrator 21.0.0, SVG Export Plug-In . SVG Version: 6.00 Build 0)  -->
<svg version="1.2" baseProfile="tiny" id="Layer_2" xmlns="http://www.w3.org/2000/svg" xmlns:xlink="http://www.w3.org/1999/xlink"
	 x="0px" y="0px" viewBox="0 0 900 600" xml:space="preserve">
<g>
	<path d="M199.7,512.8c-0.3,1.3-0.5,2.5-0.7,3.7c-0.3,1.2-0.4,2.4-1,3.5c-0.6,1-0.8,2.3-0.5,3.5c0.7,0.4,1.1,0.1,1.3-0.4
		c0.8-1.4,1.5-2.9,2.2-4.3c0.3-0.6,0.7-1.2,1.2-1.9c1.1,1.6,1.1,1.6,0.4,4.1c-0.4,1.3-0.6,2.7-1.5,3.7c-1,1.1-2,2.1-3.2,3.3
		c-0.6,4.3,0.9,9.1,4,12.3c2.3,2.4,4.9,4.6,7.7,6.4c1.2,0.7,2.3,1.5,3.3,2.2c1.8,0.3,3.5,0.6,5.2,0.8c0.9,0.1,1.7,0.3,2.6,0.2
		c3.8-0.1,7.7,0.1,11.5-0.4c3.7-0.5,7.3-1.5,10.9-2.4c2.7-0.6,5.1-1.9,7.4-3.4c0.1-0.1,0.1-0.2,0.3-0.4c-0.8-2.3-1.7-4.7-2.6-7.3
		c-2.7-0.3-5.4-0.7-8.1-0.5c-2.6,0.2-5.2-0.2-7.7-1.2c-1.4,0.6-2.7,2.4-4.8,0.8c0.1-0.8,0.3-1.8,0.5-3c-0.4-0.3-0.9-0.8-1.4-1.3
		c-0.3,0.1-0.6,0.1-0.8,0.3c-0.5,0.7-0.9,1.5-1.5,2.1c-0.3,0.4-0.7,0.7-1.2,0.9c-1.1,0.6-2.1,0.1-2.6-1.2c-0.1-0.3-0.1-0.7-0.2-1.4
		c-0.6,0.5-1.2,0.9-1.7,1.2c-1.4,0.9-2.6,0.9-3.4,0c-0.8-0.8-0.8-2,0.1-3.4c0.8-1.1,1.6-2.2,2.5-3.3c0.4-0.5,0.7-0.9,1.2-1.4
		c-0.5-0.4-0.8-0.7-1.4-1.2c-1.1,0.6-1.7,1.8-2.6,2.5c-1.2,0.9-2.4,1.7-3.7,2.5c-0.7,0.4-1.5,0.1-2.1-0.4c-0.6-0.5-0.8-1.6-0.3-2.4
		c0.5-0.8,1.2-1.6,1.9-2.3c1.2-1.1,2.4-2.1,3.8-3.3c-0.9-0.7-1.6-1.3-2.4-2c-1,1.5-1.9,2.9-2.8,4.2c-1,1.4-2.2,2.7-3.9,3.4
		c-0.6,0.3-1.2,0.1-1.7-0.9c0.3-1.7,2.1-2.7,3.1-4.2c1-1.4,2.2-2.7,2.9-4.5c-1-0.8-1.9-1.6-2.9-2.4c-1.5,0.9-2.8,1.7-4.1,2.5
		c-1.1-0.3-0.8-1-0.8-1.6c1.3-1.1,2.6-2.2,4-3.3c0.6-0.4,1.2-0.8,1.7-1.2c1.3,0.8,2.5,1.5,3.6,2.3c2,1.3,3.8,3,4.6,5.2
		c0.7,1.9,2.2,3,3.5,4.2c2.6,2.3,5.4,4.4,8.2,6.5c1,0.8,2,1.4,3.1,2.1c2.7,1.8,5.6,2.5,8.8,2.2c2.6-0.2,5.2,0.2,7.8,0.4
		c1.3,0.1,2.4,0.7,2.9,2c1,3,2.3,6,2.5,9.2c-2.3,3.2-5.3,5.3-9,6.3c-1.4,0.4-2.8,0.9-4.2,1.4c-1.7,0.6-3.3,0.9-5.1,0.2
		c-0.8-0.3-1.7-0.1-2.6,0c-2.2,0.1-4.4,0.4-6.7,0.5c-3.3,0.1-6.7,0.3-10.1-0.7c0.4,1.6,1.4,2.3,2.4,3c4.5,3.4,9,6.7,13.5,10
		c0.6,0.4,1.3,0.8,2,0.9c2.7,0.6,5.4,1.1,8,1.5c2.6,0.4,5.1,1,7.7,1.2c5.1,0.5,8.6,7,5.4,12.8c-2.8,3.1-5.7,5.9-9.8,7.1
		c-1.6,0.5-3.2,1.2-4.9,1.8c-1.5,0.5-3,1.2-4.6,1.5c-4.2,0.7-8.4,1.1-12.5,1.6c-2.1,0.2-4.2,0.4-6.3,0.5c-1.4,0.1-2.7,0.2-4.1,0.1
		c-3.6-0.3-7.2-0.5-10.6-1.8c-2.1-0.8-4.3-1.1-6.5-1.6c-1.6-0.4-3.1-0.3-4.8,0.2c-3.1,1-6.3,1.2-9.6,1.2c-3.9,0-7.7-0.6-11.4-1.3
		c-1.3-0.2-2.7-0.5-4-1c-2-0.7-2.5-1.5-2.3-3.7c0.1-1.5,0.4-2.9,0.5-4.4c0.2-2.7,0.2-5.5,0.4-8.2c0.2-3.7,0.7-7.4,0.3-11.2
		c-0.1-0.8,0.1-1.8,0.5-2.5c1-1.6,1.5-3.4,2-5.2c0.5-1.7,1-3.3,2.5-4.6c1.3,0.5,2.5,0.3,3.5-1.3c0-0.5,0-1.2-0.1-2
		c-0.9-7.8-0.4-15.6,0.7-23.4c0.6-4.2,0.8-8.4,0.1-12.6c-0.7-4.7-1-9.4-1.6-14.1c-0.3-2.5-0.6-4.9-1.1-7.3c-1.3-6.1-3-12.1-3.5-18.3
		c-0.1-1.7-0.2-3.5-0.1-5.2c0.3-3.8,0.6-7.7,1.1-11.5c0.7-5.4,1.7-10.8,4.2-15.7c1-1.9,1.6-3.9,1.9-6c0.5-3.6,1.2-7.1,2.8-10.4
		c0.6-1.3,0.8-2.8,1-4.3c0.4-2.5,0.4-5.1,1.6-7.5c-1.2-0.7-1.8-1.6-1.8-2.8c0-1.9,0-3.7,0.3-5.6c1.4-9.2,1.9-7-1-17.2
		c-1.1-4.1-1.9-8.2-2.1-12.5c-0.2-3.8-0.1-7.6-1.4-11.3c-1.2-3.3-1.6-7-2.2-10.5c-1-6.6-1.9-13.3-2.5-19.9
		c-0.4-4.8-0.3-9.7,0.2-14.5c0.3-2.5,0-4.9-1-7.3c-1.1-2.6-2-5.4-3-8c-0.4-1-0.8-2.1-1.3-3c-1.3-2.3-2.1-4.8-2.5-7.3
		c-0.7-3.6-0.6-7.2-0.6-10.8c0-1.1,0.1-2.4-0.4-3.2c-0.8-1.4-0.6-2.6-0.3-3.9c0.3-1.1,0.7-2.1,1.2-3.1c3.3-7.6,6.6-15.3,10-22.9
		c0.2-0.4,0.6-0.7,1.2-1.4c0.1,0.9,0.3,1.4,0.2,1.8c-0.3,1.1-0.6,2.2-1,3.2c-2.2,5.3-4.4,10.5-6.8,15.7c-1,2.2-1.6,4.5-1.7,6.8
		c0,4.5,0.2,8.9,0.3,13.4c0.1,3.5,1.4,6.8,2.5,10.1c1.1,3.4,2,6.9,4,10c0.9,1.4,1.5,3.2,1.6,4.9c0.2,2.1-0.1,4.2-0.4,6.3
		c-0.8,5.3-0.3,10.7,0.2,16c0.6,5.8,1.4,11.6,2.1,17.4c0.3,3.1,0.5,6.2,0.8,9.4c1.6,0.6,2,2,2,3.6c0,0.5,0,1,0.1,1.5
		c0.4,7.1,1,14.1,3.4,20.9c0.4,1.1,0.6,2.1,0.9,3.2c0.6,2.3,0.8,4.6,0.6,7c-0.1,1.9-0.3,3.7-0.9,5.5c-0.6,1.8-0.6,3.7,1.3,5
		c0.4,0.3,0.5,0.8,0.7,1.1c-0.1,1-0.3,1.8-0.4,2.8c0.9,0.2,1.6,0.5,2.3,0.5c1.9-0.1,3.7-0.3,5.5-0.7c3.5-0.7,7-1.5,10.5-2.3
		c0.7-0.2,1.3-0.5,2.1-0.9c0.1-1.1,0.2-2.1,0.2-3.1c-0.1-2-0.3-4-0.4-5.9c-0.2-3.6,0.2-7.2,0.4-10.8c0.5-7.2,0.7-14.4,1-21.6
		c0-1-0.2-2,0.6-2.8l-0.1-0.1c0,5.7,0,11.4-0.1,17.1c0,2.5,0.1,5-0.3,7.4c-1,6.6,0.2,13.1,0.8,19.7c2.2,1,4.4,1.8,6.8,2.1
		c3.9,0.5,7.9,1,11.8,1.5c0.6,0.1,1.3,0.2,1.8,0.1c2.9-0.6,5.7-0.2,8.5,0.3c0.9,0.1,1.9,0.1,2.9,0.2c0.5-1.8,0.8-3.4,0.4-5
		c-0.7-3-0.5-5.9,0.5-8.8c0.3-0.9,0-1.7-0.3-2.5l-0.1,0.1c0.9-0.5,1.3-1.4,1.5-2.4c0.7-3.6,1-7.1,0.9-10.7c0-1.6-0.5-2.8-1.5-4.1
		c-2.2-2.8-4.1-5.9-5.6-9.2c-1.7-3.6-2.5-7.3-1.9-11.2c0.8-6,3.2-10.9,8.8-13.8c0.5-0.3,1-0.7,1.4-0.9c1.1-6.6,1.6-13,1.6-19.5
		c0-2.6,0.2-5.1,0.3-7.9c-0.8-1.2-1.7-2.5-2.7-3.8c-1.6-2-1.6-4.1-0.5-6.3c0.8-1.6,1.4-3.2,2.3-4.7c0.7-1.3,0.9-2.5,0.7-3.9
		c-0.4-3-0.2-5.9,0.2-8.9c0.2-1.1,0.2-2.2,0.2-3.3c0-3-1.2-5.8-1.8-8.7c-0.3-1.6-1-3-1.9-4.4c-2.7-4.2-5.4-8.3-8.1-12.5
		c-0.5-0.7-1-1.4-1.7-2c-3.8-3.3-6.8-7.2-9.8-11.2c-0.7-0.9-1.3-1.8-1.9-2.5c-2.4-0.6-4.6-1.1-6.7-1.6c-2.1-0.5-4-1.8-6.2-2.2
		c-0.3,1.1-0.5,2.1-0.7,3c-0.4-0.5-0.5-1-0.5-1.5c0-0.5,0-1-0.1-1.5c-0.2-0.7-0.7-1-1.4-0.8c-1,2.2-1,2.2-1.9,2.9
		c0.4-3.1,0.4-3.1-0.9-3.7c0.2,2.2-1.2,4.3,0.6,6.5c-5-0.2-9.8-0.4-14.6-0.8c-1.5-0.1-3-0.4-4.4-0.8c-1.6-0.4-3.1-0.9-4.2-2.2
		c0.7,0,1.5,0,2.2,0.1c0.7,0.1,1.4,0.3,2.3,0.4c0.9-2.1,0.9-4.1,0.7-6.3c-2-1.1-3.9-1.2-5.8,0c-0.1,0.2-0.1,0.3-0.1,0.4
		c0.2,0.2,0.5,0.3,0.6,0.5c0.7,1.6,0.3,3.4,0.3,5.1c-0.6,0.1-1.3,0.2-1.4,1c0.4,1,0.7,2,1.2,3.2c-0.8,0-1.2,0-1.6,0
		c-1.4-2.8-2.2-5.6-1.9-8.6c0.1-0.8,0.1-1.8,0.5-2.5c0.4-0.6,1.3-0.9,1.9-1.2c-0.1-5.4-1.3-10.2-3.5-14.9c-0.3-0.7-0.4-1.4-0.5-2.2
		c-0.9-5.9-1.6-11.8-3-17.6c-0.5-2-1-4.1-1.2-6.2c-0.1-2.1-0.5-4.1-1.6-6c-2.4-4.5-4.8-9-7.2-13.4c-1.6-2.9-2.6-5.9-3-9.1
		c-0.6-4.6-0.9-9.4-2.7-13.8c-0.2-0.5-0.1-1.2-0.1-1.8c0.2-2.1,0.6-4.2,0.7-6.3c0.2-3,0.7-5.9,1.3-8.8c0.3-1.3,0.7-2.7,0.7-4
		c-0.2-6,0.4-11.9,1-17.8c0.1-1.1,0.4-2.2,0.6-3.3c0.2-1,1.1-1.3,1.8-1.6c-0.6,3.3,0.1,6.7-0.2,10c0,0.4,0.1,0.9,0.4,2
		c0.6-1.9,1-3,1.4-4.2c1.2-3.3,2.7-6.4,4.9-9.2c3.3-4.3,7.5-6.9,13.1-7.7c5.8-0.7,11.4-0.6,17,0.7c0.7,0.2,1.5,0.1,2.2,0.1
		c0.1,0.9,0.9,0.7,1.4,0.9c0.4,0,0.6,0.7,1.2,0.1c-0.5,0-0.9,0-1.3,0c0.1-1.1-0.8-0.8-1.4-0.9c-0.4-0.3-0.7-0.7-1.1-0.8
		c-3.7-1.4-7.5-2.4-11.6-2.3c-2,0-4,0-5.9,0c-3.1,0-6.1,0.5-8.8,2.4c-0.7,0.5-1.5,0.8-2.3,1.2c-3.2,1.5-6.1,3.3-7.7,6.6
		c-0.3,0.5-0.9,0.8-1.3,1.2c1.3-5.1,4.4-9.1,8.1-12.6c0.1-0.1,0.4,0.1,0.6,0.2c0.5,1.2-1.5,1.9-0.8,3.3c0.5-0.3,0.9-0.5,1.3-0.7
		c4-1.9,8.1-3.3,12.5-3.4c8.7-0.4,16.7,1.6,24.1,6.4c0.5,0.3,1,0.5,1.7,0.8c0.1-1.4,0.2-2.5,0.4-3.6c0.5-2.9,1.1-5.8,1.7-8.7
		c0.2-0.8,0.3-1.8,0.7-2.5c1-1.6,1-3.3,0.7-5c-0.3-1.9-0.4-3.8-0.3-5.7c1.9-0.3,3.6-0.3,5.3,0.1c3.1,0.6,6.2,0,9-1.4
		c1.2-0.6,1.9-1.6,1.9-3c0-0.8-0.2-1.7-0.5-2.5c-0.8-1.9-1.2-3.7,0-5.7c0.9-1.6,0.6-1.8-1.3-3.2c-0.2,0.1-0.5,0.2-0.7,0.3
		c-0.2,0.1-0.4,0.3-0.6,0.5c-1.4,0.9-1.9,1-2.3,0.4c-0.4-0.5,0.1-1.2,1.4-1.8c0.7-0.3,1.4-0.6,2-0.9c0.9-0.4,1.7-1,2-2.3
		c-0.3-0.9-0.6-1.9-0.9-2.9c-1.1,0.1-2.1,0.3-3,0.2c-0.5-0.1-1-0.7-1.3-1.2c-0.2-0.3,0-0.9,0.1-1.6c2.1,1.4,4,0.4,5.9,0.2
		c1-0.1,1.6-1.4,1.2-2.4c-0.5-1.1-1.1-2.2-1.8-3.3c-1.2-1.9-2.6-3.6-3.9-5.5c-1.2-1.8-1.7-3.6-0.3-5.5c1-1.3,0.7-2.6,0.2-3.9
		c-0.2-0.6-0.6-1.1-0.9-1.6c-1.6-2.8-2.7-5.8-3.2-8.9c-1-0.5-1.8-0.9-2.7-1.4c1.8,0.2,3.3-0.2,4.8-1.3c1.5-1.1,3.2-1.9,4.7-2.8
		c0.6-0.4,1.2-0.9,1-1.8c0.9-0.2,0.7-0.9,0.7-1.5l0.2-0.2l-0.1,0.2c-0.8,0.2-0.8,0.8-0.8,1.4c-0.8,0.5-1.7,1-2.5,1.4
		c-1.1,0.6-2.1,1.3-3.3,1.7c-1.8,0.6-3.3,1.6-4.7,2.8c-1.3,0.4-2.6,0.7-3.9,1.1c-0.5,0.2-1.2,0.1-1.4,0.9c0.4,0.2,0.8,0.5,1.3,0.7
		c-1.6,2.6-4.5,1.6-6.9,2.1c-0.4,2.4-2.1,3.9-3.6,5.6c-2.3,2.6-4.6,5.2-6.6,8c-1.2,1.7-2.3,3.5-3.1,5.5c-1.1,3-1.7,6,1.4,8.4
		c0.1,0,0,0.2,0.1,0.6c-1.1-0.2-2.1-0.5-3.1-0.7c-0.3,0.8-0.6,1.4-1,2.3c-2.9-2.5-3.8-6.2-6.2-8.8c-0.1,0.3-0.1,0.6-0.2,1
		c-1.4-0.2-2.9-0.4-4.3-0.6l0.1,0.1c-0.5-0.8-1.3-1.1-2.4-0.9c-0.8,1.5-1.8,3.1-2.6,4.8c-1.3,2.7-0.7,5.4,2,7.1
		c1.2,0.7,2.5,1.3,3.4,2.2c1.6,1.7,3.7,2.4,5.9,3c0.7-0.4,1.5-0.8,2.4-1.4c0,0.8,0.2,1.5-0.1,1.9c-0.3,0.5-0.9,1-1.4,1
		c-1.1,0-2.2-0.2-3.3-0.5c-0.8-0.2-1.6-0.8-2.3-1.2c-1.7-0.9-3.3-1-4.9,0c-1.5,4.6-2.2,9.4-3.4,14c-0.4,1.6-1.7,2.7-1.7,4.5
		c0,1.7-0.3,3.5-0.4,5.2c-0.1,1.4-0.2,2.7-0.2,4.1c-0.1,1.6-0.5,3-1.2,4.4c-0.2-0.8-0.2-1.5-0.2-2.2c0-4.6,0-9.2-0.2-13.8
		c-0.1-2.7-0.3-5.5-0.6-8.2c-0.2-1.8-0.2-3.9-1-5.4c-1.2-2.3-1.9-4.8-2.9-7.2c-1.2-2.8-1.6-5.7-1.8-8.7c-0.1-1.8-0.4-3.4-0.9-5.1
		c-1.5-5.2-1.8-10.5-0.8-15.8c0.1-0.7,0.3-1.5,0.1-2.2c-0.5-1.8,0.1-3.1,1.4-4.3c0.3-0.3,0.6-0.7,0.8-1c0-1.6-2.2-1-2.1-2.5
		c0.5-0.8,1.2-1.4,2.1-1.9c0.8-0.4,1.4-1.3,2-1.9c0.5,0.1,0.8,0.2,1.2,0.3c0.5-0.8,0.9-1.7,1.5-2.6c0.9,0.4,1.6,0.7,2.4,1
		c0.4-0.4,0.8-0.7,1-1.1c1.1-1.7,2.7-2.6,4.5-3.2c0.8-0.3,1.6-0.6,2.5-0.8c2-0.4,3.8-1,4.9-2.9c0.1-0.2,0.6-0.3,1-0.4
		c0.2,0.7,0.5,1.4,0.7,2.1c0.7-0.1,1.4-0.1,1.9-0.3c2.5-1,4.9-1.5,7.6-0.8c1.4,0.4,3.1,0.3,4.6-0.5c1.4-0.8,3-1.2,4.4-2
		c0.7-0.4,1.6-0.9,2.5,0c-0.1,0.6-0.1,1.3-0.2,2.2c1.8-0.2,3.4-0.5,5.1-0.7c0.6-0.1,1.4-0.3,1.8-0.1c1.2,0.9,2.7,0.3,3.2,0.6
		c1.4,1,1.2,2.2,2.1,2.8c1.2-1.2,1.1-3,2.8-3.8c0.5,0.4,1,0.9,1.5,1.4c0.6,0.5,1.8-0.1,2.1,1.1c-0.3,0.6-0.7,1.2-1.1,2
		c1.5,0,2.5-0.9,3.6-1.2c1.4-0.4,2.8,0.6,3,2c0.2,1.4-0.5,3,0.5,4.3c0.1,0.2-0.1,0.8-0.4,0.9c-0.9,0.6-0.1,1.4-0.5,2.3
		c-2.6,1.8-5.9,2.7-8.9,4.3c0.5,1.7,0.9,3.2,1.5,4.7c0.6,1.5,1.3,2.9,2.1,4.4c1.4,2.7,2,5.4-0.5,8c1.9,3,3.7,6,5.5,8.9
		c0.4,0.6,0.8,1.3,1.1,1.9c0.7,1.4,0.5,2.7-0.5,3.8c-0.6,0.6-1.2,1.2-1.7,1.7c0.3,1.3,0.6,2.4,0.9,3.5c-0.6,0.7-1.2,1.3-1.9,2.1
		c1.3,0.9,1.6,2.3,1.4,3.7c-0.3,1.4-0.8,2.8-1.2,4c0.5,1.4,1.2,2.5,1.3,3.7c0.4,3-1.3,5.6-4.6,6.3c-2.7,0.6-5.5,1.6-8.4,1.2
		c-1-0.1-2.2-0.3-3.3,0.9c0.1,0.9,0.3,2,0.4,3.1c0,1.2,0.2,2.5-0.1,3.7c-0.7,2.2-0.8,4.4-0.9,6.6c-0.2,3.6-0.1,7.2-2.3,10.3
		c1.7,2.5,3.9,4.1,6.3,5.5c1.5,0.9,2.9,1.9,3.5,3.7c0.2,0.6,0.6,1.2,1,1.5c1.6,0.9,2.4,2.5,3.6,3.7c3.4,3.3,6.2,7.1,8.9,11
		c3.6,5.3,6.4,10.9,7.5,17.3c0.5,3.2,0.7,6.4-0.1,9.6c-0.5,1.9-1.2,3.8-1.8,5.7c-0.7,2.2-1.6,4.2-4,5c-0.2,0.1-0.3,0.4-0.6,0.8
		c0.3,1,0.6,2.1,1.1,3.3c1.6,4.5,2.7,9,2.8,13.8c0.1,3.1,0.2,6.2,0.2,9.3c0,1.1,0.1,2.3-0.1,3.3c-0.2,1.1-0.6,2.1-0.8,2.8
		c1.2,2.9,2.6,5.4,3.4,8.1c0.9,2.8,1.4,5.8,2.1,8.7c0.1,0.6,0.2,1.4,0.6,1.7c1.3,1.1,1.3,2.6,1.7,4c0.9,3.2,1.7,6.5,2.6,9.7
		c0.3,1,0.5,2,1,2.8c2.1,3.6,3.2,7.5,4.2,11.5c2,8.6,3.9,17.2,5.9,25.8c0.4,1.6,0.9,3.1,1.6,4.5c1.5,3,3.3,5.9,4.8,8.8
		c0.5,0.9,0.8,1.8,1,2.8c0.7,2.3,0.7,4.7,0.6,7c-0.1,2.5,0.3,4.9,0.9,7.4c0.8,3.2,1.3,6.6,1.9,9.9c0.2,1,0.5,1.9,0.6,2.9
		c0.5,2.4,1.2,4.8,1.1,7.3c0,0.6-0.1,1.2-1,1.3c-1.5-1.3-0.6-3.6-2-5.6c0,1.6-0.2,2.8,0,3.9c0.3,1.9-0.5,3.3-1.5,4.8l-0.1,0.1
		l0.1-0.2c1.1-0.4,2.1-0.8,3.4-1.3c-0.4,1.8-1.6,2.5-2.7,3.3c-1.3,0.9-2,2.2-2,3.8c0,3.1,0,6.2,0,9.3c0,1.2-0.1,2.5-0.3,3.7
		c0,0.2-0.5,0.6-0.8,0.6c-0.3,0-0.8-0.3-0.9-0.5c-0.2-0.7-0.4-1.4-0.4-2.2c-0.1-4.7-0.1-9.4-0.1-14.1c0-1.1,0-2.2,0.2-3.3
		c0.1-0.7,0.4-1.4,0.7-2.2c0.7,0.5,1.3,0.8,1.9,1.2c0.8-1.1,1-2.3,1.1-3.6c0-2,0.1-4,0.3-5.9c0.5-3.8-0.5-7.4-0.9-11.1
		c-0.1-0.5-0.2-1.1-0.5-1.4c-1.9-2.2-1.8-4.8-1.8-7.4c0-2.6,0-5.2,0-7.8c0-0.9-0.1-1.8-0.5-2.5c-1.5-2.7-3.1-5.4-4.8-7.9
		c-1.7-2.6-3.5-5.1-4.4-8.2c-1.2-4.3-2.3-8.6-2.7-13.1c-0.4-5.2-1.4-10.3-3.2-15.3c-1.6-4.4-2.8-9-4.2-13.5
		c-0.4-1.3-0.9-2.6-1.7-3.7c-1.4-1.7-1.9-3.6-2-5.8c-0.1-2.7-0.2-5.6-1.1-8.1c-1.7-4.8-3.8-9.4-7.3-13.3c-1-1.1-1.9-2.3-2.8-3.5
		c-1.4-1.8-2.2-3.9-2.2-6.2c0-1.7,0.1-3.5-0.1-5.2c-0.2-2.2-0.3-4.6-1.1-6.5c-0.7-1.6-1.1-3.3-1.4-4.9c-0.4-1.8-0.7-3.6-1.1-5.5
		c-0.4-2.3-0.9-4.6-1.3-7c-0.4-2.8-0.8-5.7-1.2-8.5c-0.3-1.9-0.3-3.7,0.1-5.5c0.7-3.5,1.2-7.1,1.8-10.6c0.1-0.5,0.1-1,0.9-1.1
		c1,1.1,1.1,2.6,1.5,4c0.8,2.7,1,5.4-0.1,8c-0.5,1.3-1,2.5-1.7,3.7c-0.6,1-0.9,2-0.7,3.2c0.3,1.7,0.6,3.4,0.9,5.1
		c0.1,0.3,0.4,0.5,0.8,0.9c1.6-5,2.2-9.8,2-14.8c0-1.2-0.1-2.5,0-3.7c0.2-6.7-1.4-13-4.4-19c-0.4-0.9-1-1.9-1.8-2.3
		c-1.3-0.7-2.1-1.8-2.7-3c-1.1-2.1-2.7-3.5-4.8-4.4c-0.3,0.3-0.7,0.6-1.2,1.1c-0.5-0.4-0.9-0.9-1.3-1.3c-3.7-3.6-8.1-6.1-13.1-7.5
		c-3.9-1-7.8-1.3-11.8-1.5c-0.7,0-1.5,0.2-2.2,0.3c-1.1,0.2-2.2,0.6-3.3,0.7c-3.5,0.4-6.4,2-8.8,4.4c-1.8,1.7-3.2,3.7-4.5,5.9
		c-5.5,9.5-7.6,19.9-7.5,30.7c0,1.1,0.2,2.2,0.6,3.3c0.7,1.7,1.4,3.5,2.3,5.1c4.8,8.3,10.5,15.8,19.7,21.1c-1.3-0.2-2-0.1-2.5-0.3
		c-2.5-0.8-4.7-2.2-6.6-4.1c-3.9-3.7-7.3-7.8-10.1-12.4c-2.5-4-4.4-8.3-5.1-13.2c-0.2,0.9-0.4,1.6-0.6,2.4c-0.6,3-0.7,5.8,0.2,8.8
		c0.8,2.7,1.4,5.6,1.6,8.4c0.4,5.2,2,9.9,4.9,14.3c1.6,2.5,2.7,5.3,3.5,8.2c1.5,5.3,3.2,10.4,4.7,15.7c1.1,3.8,2.2,7.7,2.4,11.6
		c0.2,2.9,0.8,5.6,1.9,8.3c0.5,1.1,0.8,2.3,1.3,3.5c1.3,3.5,2,7.2,1.5,11c0,0.2,0.2,0.4,0.2,0.6c4.2,0.4,8.4,0.7,12.6,1.3
		c4,0.6,8,1.8,12,2.3c4.2,0.5,7.8,3.1,12.3,3.5c-0.3-0.5-0.4-0.9-0.7-1.1c-2-1.2-3.3-3.1-4.3-5.1c-1.2-2.4-2.3-5-3.2-7.5
		c-1.5-4.2-2.2-8.6-3-13c-0.2-1.1-0.5-2.1-1.2-3.1c-1.2-1.6-2.3-3.3-1.9-5.5c0.1-0.3-0.2-0.7-0.3-1.1c-0.5-1.6-1.1-3.3-1.6-5
		c-0.2-0.9-0.6-1.6-1.2-2.2c-2.9-2.9-5.7-5.9-8.6-8.8c-0.3-0.4-0.7-1-1.1-1c-1.5,0.1-1.7-1-2.2-2c-2.4-5-3.2-10.4-4.4-15.7
		c-1.1-4.8-2.1-9.7-3.2-13.8c-1.8-1.8-3.1-3.1-4.3-4.5c-1.4-1.5-2.6-3-4-4.4c-2.7-2.9-2.7-2.9-2.9-4.5c6.2,2.8,11.2,6.5,13.1,13.3
		c1.7,6.5,3.6,12.9,5.1,19.4c0.9,4,2.6,7.4,5.5,10.3c2.2,2.1,4.4,4.4,6.5,6.7c1.9,2,3.5,4.3,4.2,6.9c0.9,3.2,1.6,6.5,2.6,10.2
		c0.5,0.5,1.4,1.4,2.2,2.3c0.9,1,2,1.8,2.1,3.4c-0.5,0.1-1,0.2-1.5,0.3c0,0.3,0,0.7,0.1,1c2.1,5.3,4,10.7,5.4,16.2
		c0.3,1.2,1,2.2,1.8,3.2c3.8,4.8,7.5,9.6,11.2,14.4c2,2.6,3.8,5.2,5.9,7.6c4.5,5,8.2,10.6,11.5,16.5c0.4,0.8,1,1.3,1.8,1.8
		c1.5,0.9,2.4,2.4,3.2,3.9c-1.2,1.1-1.9-0.2-2.8-0.3c-0.2-0.5-0.5-1-0.7-1.5c-0.1-0.1-0.2-0.2-0.3-0.4c0,0.1,0.1,0.2,0.1,0.2
		c0.1,0,0.2,0,0.3,0.1c0.1,0.6-0.2,1.3,0.7,1.5c0,0.1-0.1,0.2-0.1,0.4c0.4,3.6,1,7,0.1,10.7c-0.5,2-0.1,4.2-0.1,6.3
		c0,1-0.1,2-0.3,2.9c-0.7,2.5-1.6,4.9-2.3,7.4c-0.3,1-0.5,2.3-0.2,3.3c0.8,2.3,1.7,4.5,4.5,6.2c-1.6-2.7-0.8-4.6,0.8-6.4
		c0.4-0.4,1-0.7,1.5-1.1c0.5-0.4,1.2-0.8,1.2-1.3c0.3-2.1,1.9-3.1,3.3-4.1c-0.4-2-0.4-2-1.4-2.9c-1.4-1.2-2.2-2.6-2.2-4.5
		c1.8,0.7,2.4,3.2,4.6,2.8c0.3,0.7,0.6,1.3,0.7,1.9c0.6,3.1,2,5.6,4.7,7.3c1.1,0.7,1.6,1.8,1.7,3.2c0,1.3,0.2,2.4,1,3.5
		c1.2,1.5,1.3,3.5,1.5,5.3c0.1,0.6-0.3,0.9-1,0.8c-0.4-1.1-0.6-2.4-1.3-3.4c-1.3-1.8-2.9-3.4-4.4-5c-1.3-1.4-2.8-1.9-4.7-1.6
		c-1,0.2-2.1,0.1-3.2,0.2c-1.3,1.4-1.6,2.9-1.4,4.8c0.3,3,0.3,6,0.6,8.9c0.4,5.3,0.5,10.7,1.3,16c0.3,2.2,0.5,4.4-0.1,6.7
		c-1.3,0-1.8-0.8-2-1.9c-0.1-1-0.2-2.1-0.3-3.6c-2.6,2.1-5.1,3.8-7.2,5.8c-3.8,3.4-5.7,7.8-5.9,12.8c0,1-0.4,1.9-0.4,2.9
		c-0.1,1.1-0.4,2.4,0,3.3c1.8,3.9,2.8,8.3,7.2,10.4c0.2,0.1,0.4,0.3,0.6,0.5c1.7,1.9,4,2.4,6.4,2.4c2.7,0,5.5-0.1,8.2-0.1
		c3.3,0,6.4-0.6,9.5-1.5c2.3-0.6,4.3-1.8,6.2-3.3c1.2-1,2.1-2.1,2.1-3.7c0.1-3.3,0.3-6.7,0.4-10c0.1-5-0.9-9.6-3.7-13.8
		c-0.2-0.4-0.7-0.8,0-1.4c0.5,0.5,1.1,0.9,1.5,1.5c2.1,2.8,3.5,5.9,4,9.5c0.7,5.6,1,11.1-0.1,16c-1.3,1.5-2.3,2.5-3.1,3.6
		c-2.4,3.2-5.6,5.3-9.3,6.5c-3.8,1.2-7.8,1.7-11.7,1.8c-2.4,0-4.7-0.3-6.5-2.1c-0.8-0.8-1.7-0.8-2.7-0.2c-0.8,5.3-1.4,10.6-2.4,15.8
		c-0.6,3.2-1.2,6.3-0.4,9.6c0.1,0.5,0.1,1,0,1.5c-0.5,1.7-0.2,3.4,0.3,5c-1.3,1.1-2.6,1.3-4,1.2c-1.4-0.1-2.7-0.3-4.1-0.5
		c-1-0.1-2-0.4-2.9-0.3c-1.2,0.1-2.4,0.9-3.5,0.7c-1.2-0.3-2.4-0.6-3.6-0.6c-0.5,0-1,0.1-1.6,0.1c-0.3,1.9-0.6,3.7-1,5.5
		c-0.3,1.7-1.1,3.3-0.9,5.1c0.1,0.7-0.3,1.5-0.6,2.1c-1.5,2.4-3,4.9-4.6,7.2c-0.3,0.4-0.8,0.6-1.1,0c1.1-2.5,2.3-4.9,3.4-7.4
		c0.3-0.7,0.7-1.4,0.6-2.1c-0.2-1.8,0.5-3.4,1-5.1c0.5-1.7,1.2-3.5,1.1-5.5c-0.8-0.2-1.5-0.5-2.3-0.6c-3.7-0.5-7.4-0.9-10.9-2.4
		c-1-0.4-1.9-0.1-2.9,0.1c-4.6,1-9.2,1.9-13.8,2.9c-0.6,0.1-1.2,0.3-1.8,0.5c-0.3,1-0.5,1.8-0.7,2.6c-0.2,0.8-0.2,1.8-1.4,2.2
		c-1.6-1.4-0.1-3.6-1.3-5.3c-0.3-0.2-0.9-0.4-1.4-0.7c-0.2-0.1-0.5,0-0.8,0.1c-0.1,0.4-0.2,0.9-0.2,1.4c0,3.6-0.8,7.1-1.9,10.6
		c-0.6,1.9-1.1,3.9-1.2,5.8c-0.1,2.2-0.6,4.1-1.3,6.2c-1,3.2-2.2,6.4-2.8,9.6c-1.2,6.8-2.2,13.7-3.1,20.6c-0.1,1,0,2,0.2,2.9
		c0.9,4.1,1.9,8.2,2.8,12.3c0.8,3.4,1.5,6.8,2.2,10.2c0.3,1.5,0.5,3,0.3,4.4c-0.4,2.1-0.1,4.2,0.1,6.3c0.3,2.6,0.6,5.2,0.8,7.8
		c0.4,4,0.3,7.9-0.3,11.9c-1.2,8.3-1.4,16.6-0.8,24.9c0,0.2,0.2,0.4,0.3,0.6c3.9,2.4,8.4,1.7,12.5,2.5c2.4-3.7,4.7-7.2,7-10.7
		c0.3-0.4,0.6-0.9,0.6-1.3c0.1-1.7,0.1-3.5,0-5.2c-0.2-3.2-0.8-6.4-0.9-9.6c-0.1-4.3,0.1-8.7,2-12.7c0.5-1.1,0.8-2.4,1-3.6
		c0.3-2.2,0.4-4.5,0.7-6.7c0.8-6.2,1.5-12.3,2.4-18.5c0.6-4.3,1.5-8.5,1.8-12.9c0.4-5.9,0.9-11.9,1-17.8c0.1-4,0.2-7.9,0.3-11.9
		c1.1,0.2,1.4,1.7,2.7,1.6c1.4-4.7,2.1-6,4-7.4c0.1,0.6,0.3,1.1,0.2,1.4c-1,2.9-2.2,5.7-4.3,8.2c0.9,2.5,0.9,5.3,0.6,8
		c-0.2,1.4-0.3,2.7-0.3,4.1c-0.3,6.3-0.6,12.7-0.9,19c0,0.7-0.2,1.5-0.3,2.2c-1,5.2-1.9,10.5-2.9,15.7c-0.7,3.4-1.3,6.9-0.8,10.4
		c0.5,3.6,0.6,7.2,0.5,10.8C201.5,514.3,200.8,513.6,199.7,512.8z M206.1,102.7c-0.1-0.1-0.1-0.1-0.2-0.2c-0.1-0.1-0.2-0.2-0.3-0.4
		c0,0.1,0,0.2,0.1,0.2c0.1,0,0.2,0,0.3,0.1C206.1,102.5,206.1,102.6,206.1,102.7z M255.9,308.3c-0.7-1.4-1.6-1.1-2.6-0.4
		C254.2,308.6,255.1,308.5,255.9,308.3c0.3,0.2,0.6,0.5,0.8,0.7c0.5,0.2,1,0.4,1.5,0.6c0,0,0,0.1,0,0.1c-0.6-0.2-1.1-0.4-1.7-0.5
		C256.7,308.7,256.4,308.4,255.9,308.3z M199.1,17c-0.1,0.1-0.2,0.1-0.3,0.2c0.2,0.1,0.4,0.2,0.5,0.3c0.2,0.4,0.3,0.8,0.6,1.2
		c0,0.1,0.4,0,0.6-0.1c0.1-0.1,0.1-0.5,0-0.5c-0.4-0.2-0.8-0.4-1.2-0.5C199.2,17.4,199.1,17.2,199.1,17z M200,22
		c-0.1,0.1-0.2,0.3-0.3,0.4c0.1,0,0.2-0.1,0.3-0.1C200,22.2,200,22,200,22c1.1-0.2,1.2-0.2,1.4-1.5c0.2-0.1,0.4-0.1,0.6-0.2
		c-0.1-0.1-0.2-0.2-0.3-0.3c-0.1,0.2-0.1,0.4-0.2,0.6C200.6,20.5,200.2,21.2,200,22z M170.5,31.1c-0.2,1.4,0.7,1.2,1.3,1.3
		c0.1,0.3,0.2,0.7,0.4,0.9c0.3,0.3,0.8,0.5,1.3,0.7c0.1-0.4,0.2-0.7,0.4-1.2c-0.8-0.1-1.5-0.2-2.1-0.3C171.4,32,171,31.6,170.5,31.1
		z M195.5,28.5c2-1.1,2.1-1.1,3-2.8c0.2-0.1,0.4-0.1,0.6-0.2c-0.5-0.5-0.4,0-0.5,0.3C197,26,196,26.8,195.5,28.5z M210.9,5.7
		c-0.4,0-0.9,0.2-1.4,0.4c1.2,0.8,1.2,0.8,2.5,1c0.3,0.9,0.6,1.8,1,2.7c1.5-0.3,2.1-0.9,1.8-2.3c-1-0.1-1.9-0.2-2.8-0.3
		C212.1,6.3,211.9,5.6,210.9,5.7z M223.8,567.1c-0.3-0.2-0.7-0.3-0.9-0.5c-0.8-0.9-0.4-1.9-0.1-3.1c-0.7-0.6-1.6-1.3-2.5-2
		c-1.8,1.7-3.8,2.9-6.2,3.7c-0.6-3.2,1.9-4.7,3.3-6.9c-0.1-1.4-0.7-2.5-2.1-3.2c-1.4,0.5-2,1.8-2.8,2.9c-1.4,1.7-3,3-5.2,3.1
		c-1-1-0.7-2.2-0.2-3.1c0.7-1.3,1.6-2.5,2.6-3.6c0.6-0.8,1.4-1.4,2.2-2.3c-0.8-0.5-1.3-0.9-1.8-1.3c-0.4,0.1-0.6,0.2-0.8,0.3
		c-1.9,2.3-3.7,4.6-5.7,6.9c-0.4,0.5-1.1,0.9-1.8,1.5c-0.2-0.7-0.6-1.2-0.5-1.6c0.3-1.2,0.6-2.5,1.3-3.4c1.3-1.9,2.9-3.7,4.5-5.7
		c-0.8-0.6-1.7-1.3-2.6-2.1c-1-0.9-2-1.9-2.8-2.9c-0.8-0.9-1.4-2-2.1-2.9c-1,0-1.1,0.7-1.4,1.2c-1.4,2.2-2.8,4.4-4.2,6.6
		c-1.3,1.9-2,4-2.8,6c-1.4,3.6-5.3,5.8-9.1,5.7c-3-0.1-4.8-1.6-6-4.2c-1.1-2.4-1.1-2.4-3.3-3.7c-1.9,1.9-3.4,4.5-3.9,6.9
		c-0.7,3.8-1.3,7.6-1.9,11.4c-0.2,1.2-0.2,2.5-0.2,3.7c-0.1,4-0.1,7.9-1,12c1.5,0.9,3,1.2,4.6,1.5c4.6,0.9,9.3,1.5,14.1,0.9
		c2-0.3,3.9-0.6,5.8-1.2c1.6-0.5,3.1-0.5,4.8-0.2c2.1,0.4,4.2,0.7,6.2,1.2c1.3,0.3,2.8,0.5,3.9,1.2c1.5,0.9,3,1.1,4.6,1.1
		c6.3,0.2,12.6-0.5,18.9-1.2c4.8-0.6,9.4-2.3,14.2-2.7c1.8-0.2,3.5-1,5-2.4c1.3-1.3,2.9-2.3,4.3-3.5c0.9-0.8,1.2-1.9,1-3
		c-0.1-0.5-0.2-1-0.3-1.5c-0.8-3.4-1.8-4.4-5.2-4.8c-5.4-0.7-10.8-1.5-16.1-3c-0.6-0.2-1.2-0.2-1.8,0c-1.4,0.3-2.1-0.8-3-1.4
		c0.5-1-0.1-1.3-1.1-1.7C224.7,566.2,224.3,566.6,223.8,567.1z M232.8,160.1c0.5-1.3,1.1-2.5,1.7-3.7c0.9-2.1,1.3-4.3,1.3-6.5
		c0-1.7,0.1-3.5,0-5.2c0-0.7-0.2-1.5-0.5-2.2c-1-2.4-2-4.8-3-7.2c-2.1-4.8-2.2-4.9-6.5-9.4c-0.7,0.6-0.3,1.3-0.2,1.9
		c1.7,8.2,1.5,16.3-0.4,24.4c-0.3,1.2-0.5,2.5-1.1,3.6c-1,2-1.1,3.9-0.4,6.1c0.6,1.6,0.7,3.4,1,5.1c0.5,2.2,0.9,4.4,1.5,6.5
		c0.7,2.7,1,5.4,0.9,8.1c-0.1,3,0.6,5.6,2.3,8c1.2,1.6,2.3,3.2,3.4,4.8c0.9-0.2,0.7-1,0.8-1.5c0.1-0.7,0.2-1.5,0.2-2.2
		c0-0.6,0.1-1.2,0-1.9c-0.8-6-1.2-12.1-3-18c-0.5-1.5-0.8-3.1-1.1-4.7c-0.1-0.6,0-1.2,0-2.2C231.3,162.9,232.2,161.6,232.8,160.1z
		 M182.9,235.3c-0.9,2.1-0.3,4.2-0.8,6.4c0.8,0.3,1.4,0.7,2,0.8c3.9,0.4,7.8,0.7,11.8,1c0.2,0,0.4-0.1,0.8-0.3
		c0.6-1.6,0.4-3.3,0.3-5.4C192.3,236.3,187.7,236,182.9,235.3z M243.4,317.6c-0.2,2.1,0.3,4,0.3,5.9c0,1.9,0.1,3.7,0.1,5.6
		c-0.1,2-0.2,3.9-0.4,5.9c-0.2,1.8-0.4,3.7-0.6,5.7c1.3-0.3,2.5-0.7,4-1c-1.5-7-1.1-14.4-1.5-22.1
		C244.6,317.5,244.1,317.5,243.4,317.6z M187.1,555.2c-3-0.3-5.7-0.5-8.4-0.7c0.4,3.1,1.3,3.6,6.1,3.4
		C185.5,557.1,186.2,556.3,187.1,555.2z M176.9,19.1c-0.6-1-1.4-1.7-2.5-2.4c-0.3,0.7-0.6,1.3-1.1,2.3
		C174.8,18.8,175.7,20.1,176.9,19.1z M210,16.5c0-0.9-0.6-1.1-1-0.9c-1.3,0.5-2.8,0.4-4.1,1.8C206.9,17.8,208.4,16.7,210,16.5z
		 M181.5,20.8c0.9,0.2,1.4-0.4,1.8-1c0.2-0.9-0.6-1.2-1.2-1.8C181.2,19.1,180.3,19.8,181.5,20.8z M191.1,17.2
		c2.5,1.9,2.5,1.9,4.2,0.6C193.4,17.9,192.6,16.2,191.1,17.2z M164.6,36.2c0.6-0.1,1-0.7,1-1.3c0-0.2-0.1-0.6-0.3-0.6
		c-0.3-0.1-0.8-0.1-0.9,0.1c-0.3,0.3-0.5,0.8-0.7,1.3C164.1,35.9,164.4,36.2,164.6,36.2z M174.5,57.8c0.1,0.1,0.4,0.1,0.6,0.1
		c0-0.3,0.2-0.7,0.1-0.9c-0.4-0.5-0.9-0.8-1.3-1.2c-0.2,0.1-0.4,0.3-0.5,0.4C173.7,56.8,174,57.3,174.5,57.8z M166.5,49.7
		c0.2-0.3,0.4-0.6,0.4-0.9c0-0.1-0.5-0.3-0.7-0.4c-0.1,0.3-0.2,0.6-0.3,1C166.1,49.5,166.3,49.6,166.5,49.7z M176.6,41.4
		c0.2,0,0.5-0.3,0.7-0.5c-0.3-0.3-0.6-0.7-0.9-0.8c-0.2-0.1-0.5,0.3-0.7,0.4C175.7,41.3,176.2,41.4,176.6,41.4z M201.2,5.2
		c-0.6,0-1.1,0-1.8,0C200.3,6.4,200.3,6.4,201.2,5.2z M173,8.5c-0.1,0.1,0,0.4,0,0.6c0,0.1,0.3,0.1,0.3,0.1c0.4-0.2,0.7-0.5,1.1-0.8
		C173.7,7.8,173.3,8.1,173,8.5z M163.6,40.4c0.1-0.3-0.1-0.6-0.1-0.9c-0.2,0.2-0.6,0.3-0.7,0.5c-0.1,0.3,0,0.7,0.1,1.2
		C163.2,40.8,163.5,40.6,163.6,40.4z M168.9,14.7c0,0.1,0.2,0.3,0.4,0.5c0.2-0.2,0.5-0.4,0.7-0.6c0,0-0.2-0.3-0.4-0.6
		C169.3,14.3,169,14.5,168.9,14.7z M192.9,33.8c0.2-0.3,0.4-0.6,0.6-0.9c-0.2-0.1-0.5-0.3-0.6-0.3c-0.3,0.2-0.4,0.5-0.7,0.8
		C192.6,33.6,192.9,33.8,192.9,33.8z M184.1,33.4c0.3-0.2,0.6-0.4,0.8-0.6c0,0-0.3-0.6-0.3-0.5c-0.3,0.1-0.6,0.3-0.9,0.4
		C183.9,33,184,33.2,184.1,33.4z M188,30.7c0.2-0.3,0.4-0.5,0.6-0.8c0,0-0.2-0.3-0.2-0.2c-0.3,0.1-0.6,0.3-0.9,0.5
		C187.8,30.4,187.9,30.6,188,30.7z M219.8,4.4c-0.2-0.1-0.5-0.2-0.7-0.2c-0.5,0.3-0.6,0.7,0,1.3C219.4,5.1,219.6,4.7,219.8,4.4z
		 M167.7,19.4c-0.6,0.6-0.6,1.2-0.3,1.8C168.1,20.5,168,20,167.7,19.4z M170.9,51.8c-0.1-0.3-0.3-0.5-0.4-0.8
		c-0.1,0.1-0.2,0.2-0.2,0.3c0,0.3,0.1,0.7,0.2,1.1C170.6,52.1,170.9,51.9,170.9,51.8z M171.4,38.6c0.1-0.2,0.3-0.4,0.3-0.6
		c-0.1-0.2-0.4-0.4-0.6-0.6c-0.1,0.2-0.2,0.4-0.3,0.6C171,38.2,171.2,38.4,171.4,38.6z M185.5,37.4c0.1-0.1,0.2-0.2,0.2-0.3
		c0-0.2-0.2-0.4-0.3-0.6c-0.1,0.1-0.1,0.2-0.2,0.3C185.3,37.1,185.4,37.2,185.5,37.4z M163.9,23c0.1-0.1,0.2-0.2,0.2-0.3
		c0-0.2-0.1-0.4-0.2-0.6c-0.1,0.1-0.2,0.2-0.2,0.3C163.7,22.6,163.8,22.8,163.9,23z M206.7,19.5c0.1-0.1,0.1-0.2,0.2-0.3
		c-0.1,0-0.2,0-0.3,0c-0.1,0-0.1,0.1-0.2,0.2C206.5,19.4,206.6,19.5,206.7,19.5z M207.4,7.4c-0.1-0.1-0.2-0.2-0.3-0.2
		c-0.1,0-0.2,0.2-0.2,0.2c0.1,0.1,0.2,0.2,0.2,0.2C207.2,7.6,207.3,7.5,207.4,7.4z M201.1,99.8l0,0.2l0.2-0.1L201.1,99.8z"/>
	<path d="M665.5,257.2c0.2-0.3,0.3-0.7,0.3-1.1c-0.1-2.6,1-4.8,1.5-7.2c0.5-2.8,1.7-5.2,3.1-7.5c0.8-1.4,1.5-2.8,2-4.4
		c1.5-5.1,4.3-9.5,8-13.2c0.6-0.6,1.1-1.2,1.4-2.1c0.4-1.3,1.5-1.9,2.8-2.2c0.7-0.2,1.3-0.4,2.2-0.6c-0.5-1-0.8-1.7-1.2-2.5
		c0.4-0.2,0.7-0.5,1-0.6c1.4-0.6,2.9,0.2,4.3-0.6c0.1-0.1,0.4,0.1,0.7,0.2c0.3,0.2,0.6,0.4,0.9,0.5c0.7-0.4,1.3-0.7,2.4-1.3
		c0.4,0.8,0.9,1.5,1.3,2.3c4.5-2.2,8.3-0.1,11.9,1.1c1.4,0,2.5-1.2,3.9-0.2c-0.3,0.5-0.6,1-0.9,1.7c0.6,0.3,1.3,0.8,1.9,0.9
		c2.5,0.5,4.6,1.6,6.5,3.4c1.1,1.1,2.5,2,4.2,2.1c1.6,0.1,3.2,0.5,4.7,0.9c0.7,0.1,1.5,0.3,1.6,1.4c-0.5,0.4-1,0.9-1.6,1.4
		c1.6,0.8,3,1.9,4.7,2.2c1.9,0.3,1.6,2.4,3.1,2.8c0.2,0,0.5,0.2,0.6,0.4c0.2,0.3,0.3,0.7,0.3,1c0,0.7-0.1,1.4-0.1,2.3
		c1.6-0.2,2.6-1.8,4.3-1.4c0.2,0.7,0.3,1.4,0.6,2c0.2,0.6,1.4,0.8,0.8,1.8c-0.5,0.3-1.1,0.6-1.6,0.9c0,0,0,0.2,0.1,0.5
		c0.9,0.1,1.9,0.3,2.8,0.5c1.8,0.4,2.5,2.1,1.5,3.7c-0.5,0.8-1.4,1.6-1.6,2.4c-0.2,0.9-0.4,1.2-1.2,1.6c-0.6,0.3-1.2,0.9-1.9,1.5
		c-2.8-0.5-5.8-0.9-8.9-1.4c-0.4,1.2-0.9,2.3-1.2,3.5c-0.4,1.8-0.8,3.6-1,5.5c-0.2,1.6-0.7,3.1-1.5,4.5c-0.7,1.2-2.3,0.9-3.1,2.1
		c-0.1,1.6-0.1,3.4-0.3,5.1c-0.1,1.7-0.3,3.4-0.2,5.2c0.3,2.8-0.7,3.8-3.7,4.4c-0.4,0.1-0.7,0.2-1.1,0.3c-0.5,1.1-1,2.2-1.4,3.2
		c-0.9,0.3-1.6,0.5-2.2,0.7c-0.1,2.4-0.9,4.2-3.1,5.2c-1,0.5-1.6,1.2-1.6,2.3c0.1,1.8-0.7,3.1-2.1,4.1c-1.5,1.1-3.3,1.5-4.9,0.9
		c-2.6-1-5.4-1.8-7.7-3.5c-1.7-1.2-3-2.9-4.6-3.4c-3,1-5.4,1.9-7.9,2.6c-1.1,0.3-2.1,0.6-3.1,1.2c-3.3,1.9-6.8,3-10.7,2.8
		c-1,0-1.9,0.1-2.8,0.1c-0.1,0.5-0.2,0.7-0.1,0.9c0.2,1,0.4,1.9,0.6,2.9c0.2,1,0.5,1.9,0.7,2.9c1.6,8.3,0.4,16.3-2.5,24.1
		c-1.6,4.4-4.5,7.7-8.4,10.1c-0.8,0.5-1.7,1-2.7,1.7c-0.6,2.6-1.3,5.2-1.8,7.9c-1.1,6.2-3.1,12-5.6,17.7c-0.7,1.5-1.3,2.9-2.6,4
		c-0.5,0.4-0.8,1.2-1.1,1.9c-0.9,1.8-1.7,3.5-2.7,5.6c0.1,0.5,0.2,1.2,0.2,1.9c0.2,3,0.9,6,0.6,8.9c-0.3,3.1-0.4,6.2-0.4,9.3
		c0,4.3-0.7,8.6-1.3,12.9c-0.2,1.6-0.8,3.1-1.2,4.7c-0.3,1.1-0.6,2.1-0.9,3.2c-1.7,6.5-3.4,13-5.1,19.4c-1.9,6.9-3.9,13.9-5.9,20.8
		c-1.2,4.3-2,8.7-1.7,13.2c0.1,1.1,0.2,2.3-0.1,3.3c-0.9,3-0.6,5.9-0.2,8.8c0.2,1.2,0.1,2.5,0.1,3.7c0,1.1,0.2,2.2,0.2,3.3
		c0.3,3.2,0.5,6.4,0.7,9.6c0,0.8-0.1,1.8-0.4,2.5c-1.3,2.7-1.4,5.5-1.2,8.4c0.2,2.1-0.1,4.2-0.2,6.3c-0.1,0.9-0.5,1.7-1.4,2
		c-2.1-0.5-2.1-0.5-3.9,0.4c0.9,3-1.6,6.2,0.2,9.4c3.7,1,6.7,3.3,9.5,5.7c0.9,0,1.6-0.1,2.3-0.1c2.5,0.1,5,0.3,7.4,0.5
		c1.3,0.1,2.4,0.7,2.9,2c1,3,2.3,6,2.5,9.2c-3.8,4.3-3.9,4.4-9,6.3c-0.6,0.2-1.2,0.4-1.7,0.6c-0.9,0.3-1.4,0.9-1.9,1.7
		c-1.4,2.1-2.8,4.1-4.3,6.1c-1.2,1.6-2.6,3-4.6,3.6c-0.6,0.2-1.4,0.6-1.2,1.7c0.5,0.4,1.1,0.8,1.7,1.2c0.4,0.2,0.9,0.4,1.4,0.5
		c2.8,0.5,5.6,1.1,8.4,1.5c2.4,0.4,4.9,0.9,7.3,1.2c5.1,0.6,8.7,7.3,5.1,12.8c-2,3-4.9,5.4-8.4,6.6c-2.7,0.9-5.3,2-8,3
		c-1.4,0.5-2.9,0.9-4.3,1c-4.5,0.6-9.1,1.5-13.7,1.4c-1,0-2,0.2-3,0.3c-4.7,0.5-9.4,0.1-14-1.2c-2.6-0.7-5.3-1.3-7.9-2
		c-1.5-0.4-2.9-0.3-4.4,0.1c-3.3,1-6.8,1.3-10.3,1.3c-3.6,0-7.2-0.7-10.7-1.2c-1.2-0.2-2.5-0.4-3.6-0.8c-2.6-0.8-3.3-1.7-2.8-4.4
		c0.5-2.7,0.4-5.4,0.6-8.2c0.1-2.2,0.3-4.5,0.4-6.7c0.1-2.5,0.1-5,0.1-7.4c0-1.5,0.2-2.9,1-4.3c1.3-2.3,1.8-4.8,2.3-7.4
		c-0.6-0.4-1.2-0.8-1.6-1.1c-0.5-0.4-1-0.8-1.4-1.2c-1.7-1.5-2.2-2.6-1.2-4.5c1.2-2.1,1.8-4.3,2-6.7c0.1-0.7,0.5-1.4,0.7-2.1
		c0.8-2.9,1.7-5.7,2.2-8.7c0.3-1.7,0.5-3.4,1-5.1c0.4-1.3,0.6-2.7,0.8-4c0.2-1.1,0.2-2.2,0.3-3.3c0.2-2,1.2-2.5,3.1-1.8
		c0.9,0.3,1.8,0.8,2.8,1.2c0.2-0.6,0.5-1,0.6-1.5c0.2-1.5,0.4-3,0.4-4.4c0.2-4.5,0.6-8.9,1.1-13.3c0.5-4.4,0.7-8.9-0.2-13.4
		c-0.2-0.8-0.2-1.7-0.2-2.6c-0.1-6.5-0.2-12.9-0.2-19.4c0-4,0.9-7.9,2.4-11.6c1.2-2.9,2.4-5.7,3.5-8.6c1.7-4.5,4.2-8.4,7.1-12.2
		c0.4-0.6,1.2-1,1.1-1.5c-1.5-1.6-2.6-3.3-4.2-4.5c-1.7-1.2-3.7-1.9-5.6-2.9c-0.3-0.2-0.7-0.3-1-0.5c-3.1-1.5-6.3-3-9.7-3.7
		c-1.7-0.3-3.2-1.2-4.6-2.4c-0.5,0.8-1.1,1.5-1.5,2.2c-1.1,1.8-2,3.7-3.1,5.5c-1.1,1.9-2.3,3.8-3.6,5.7c-0.5,0.8-1.1,1.7-2.2,1.8
		c-1.8-1.1-1.8-1.1-3.3-3.4c-2.7-4.1-5.7-7.8-9.7-10.7c-5.3-3.7-10-8.2-14.5-12.8c-3.4-3.5-6.9-6.8-10.5-10
		c-5.5-4.9-11.4-9.2-17.6-13.2c-0.9-0.6-2-1.2-2.5-2.1c-0.8-1.4-2-2.5-3.1-3.7c-2.6-2.9-4.9-5.9-6.9-9.3c-0.5-0.9-1.1-1.7-1.3-2.7
		c-0.3-2.2-1.5-3.9-2.4-5.8c-0.8-1.5-1.4-3.2-2.1-4.7c-2.2-5-2.7-10.3-1.6-15.7c0.5-2.3,0.7-4.7,0.8-7c0.2-2.6,0.7-5.2,1.8-7.6
		c1.3-2.8,2.7-5.6,4.2-8.3c2.4-4.1,5.7-7.2,10-9.2c0.7-0.3,1.3-0.7,2-1.1c4.5-2.5,9.1-4.6,14.2-5.5c0.7-0.1,1.5-0.3,2.1-0.7
		c1.9-1,3.9-0.9,5.8-0.7c1.7,0.2,3.4,0.6,5.2,0.9c0.6,0.5,1.4,1.1,2,1.7c1.2-0.5,2.1-0.9,3-1.2c4.2-1.3,8.1-3.2,11.8-5.5
		c2.6-1.6,5.3-3.2,7.9-4.9c4.7-3.1,9.6-5.6,14.9-7.6c8.5-3.2,17.2-5.6,26-7.9c1.9-0.5,3.9-0.6,5.9-0.9c1.2-0.2,2.5-0.3,3.7-0.5
		c6.1-1.3,12.2-2.2,18.4-2.4c0.7,0,1.6,0,2.1-0.4c1.7-1.3,3.8-1.7,5.7-2.7c3.9-2.1,8.1-3,12.4-3.8c2.2-0.4,4.4-0.4,6.7-0.1
		c4.8,0.7,9.6,1.3,14.4,2c0.7,0.1,1.5,0.2,2.2,0.3c1,0.1,1.9-0.1,2.9-0.5c1.9-0.9,3.8-1.8,6.3-2.9C664.6,258.7,665,258,665.5,257.2z
		 M695.6,246.9c-0.5-0.5-0.4,0-0.4,0.3c-0.1,0.1-0.3,0.2-0.4,0.3c0.1,0,0.2,0,0.2-0.1c0.1-0.1,0.1-0.2,0.1-0.3
		C695.3,247.1,695.4,247,695.6,246.9z M603.3,514.9c0.3-1.2-0.8-1.7-1.2-2.6c-0.6-1.4-1.2-2.7-1.6-4.1c-0.2-0.5-0.1-1.2,0.9-1.5
		c1.2,2.3,1.8,5,3.9,6.9c0.7-1.2,1.1-3.3,0.9-5.2c-0.1-0.5-0.6-1-1-1.6c0.3-2.1,1.5-3.7,3.2-5c1.2-0.9,2.3-1.9,3.6-3
		c0.1-0.6,0.2-1.5,0.4-2.3c0.3,0.1,0.7,0.1,0.8,0.2c2.4,3.3,3.5,7.1,4.3,10.9c0.3,1.2,0.3,2.4,1.1,3.5c0.4,0.5,0.3,1.4,0.5,2.1
		c0.2,1.2-0.1,2.5,0.6,3.5c0.9,0.2,1.4-0.2,1.4-0.8c0.1-1,0.1-2,0.1-3c0-1.7-0.1-3.5,0-5.2c0-0.6,0.2-1.1,0.5-2
		c1.6,1.6,1.1,3.3,1.3,4.8c0.1,1.4,0.1,2.9,0.5,4.4c0.1-0.5,0.2-1,0.2-1.4c-0.2-3.6-0.5-7.2,1.1-10.6c0.3-0.6,0.2-1.5,0.2-2.2
		c-0.2-3.6-0.4-7.2-0.6-10.8c-0.1-1.4-0.4-2.7,0-4.1c0.2-0.7-0.1-1.5-0.2-2.2c-0.5-2.7-0.6-5.4,0.3-8.1c0.5-1.4,0.5-2.8,0.2-4.4
		c-0.9-4.3-0.5-8.6,0.3-12.9c1.2-6.1,2.9-12.1,4.9-17.9c2.4-7.3,5-14.6,7.5-21.9c-1.2-1.4-0.8-2.9-0.1-4.5c1-2.4,1.7-4.9,2.5-7.4
		c0.8-2.4,0.8-4.9,0.5-7.4c-0.9-5.9-0.9-11.9-0.2-17.8c0.1-0.6,0.1-1.2,0.1-1.9c-0.1-2.9,0.8-5.5,2.1-8.1c3.3-6.8,6.5-13.7,8.2-21.1
		c0.3-1.4,0.8-2.9,1.3-4.3c0.6-1.7,1.3-3.4,2-5.2c-0.1-0.1-0.3-0.4-0.5-0.7c0.1-0.2,0.1-0.5,0.3-0.6c1.3-1.3,2.7-2.6,4.1-3.8
		c5-4.6,8.1-10.2,9.5-16.9c1.2-5.8,0.7-11.6-0.1-17.4c0-0.2,0-0.6-0.2-0.7c-2.1-2.4-1.3-5.1-1.2-7.8c0-0.1,0.1-0.2,0.2-0.6
		c0.3-0.1,0.7-0.2,1.2-0.4c-0.1,0.7-0.1,1.3,0.7,1.6c0,0.3,0.1,0.7,0.1,1c1.9-0.1,3.8-0.2,5.6-0.4c2.2-0.3,4.5-0.7,6.3-2
		c1.3-0.9,2.6-1.3,4.1-1.4c2.8-0.2,5.4-0.6,7.6-2.8c0.8,0.4,1.5,0.7,2,1.1c1.8,1.4,3.5,2.8,5.2,4.2c2,1.5,4.2,2.7,6.7,3.1
		c2.2,0.4,3.9-0.6,4.6-2.7c0.2-0.5,0.1-1,0.2-1.5c0.3-1.5,0.9-2.8,2.5-3.5c0.3-0.2,0.7-0.4,0.9-0.6c0.3-0.4,0.7-0.8,0.8-1.2
		c0-0.6-0.3-1.1-0.4-1.7c-1.1-0.1-2.1-0.1-3.1-0.3c-0.2,0-0.6-0.6-0.5-0.8c0.1-0.3,0.5-0.7,0.8-0.7c0.6,0,1.2,0.2,1.8,0.2
		c1.3,0.2,2.7,0.6,4.2-0.3c0.3-0.8,0.6-1.8,1-2.8c-3.3-1.9-3.5-2.3-2-4.4c0.5,0.6,1,1.3,1.6,1.7c0.7,0.5,1.5,0.8,2.3,1.2
		c1.7,0.8,2.9,0.2,3.1-1.8c0.2-1.3,0.2-2.7,0.2-4.1c0-1.7-0.1-3.5-0.1-5.2c0-2,0.6-3.6,2.7-4.4c1.6-0.6,2.1-1.9,2.3-3.5
		c0.3-2.5,0.8-4.9,1.3-7.3c0.2-0.9,0.7-1.8,1.1-2.8c-0.3-0.4-0.6-0.9-1-1.4c0.2-0.1,0.5-0.3,0.6-0.2c2.9,0.9,5.8,1.1,8.8,1.1
		c0.9,0,2-0.1,2.3-1.4c0.3,0,0.6-0.1,0.9-0.1c-0.1-0.1-0.1-0.3-0.2-0.4c-0.2,0.2-0.4,0.4-0.6,0.6c-3,0.1-5.9,0.4-8.8-0.6
		c-3,0.3-5.8-1-8.8-1.5c0.3,0.7,0.4,1.3,0.6,1.8c-2.5,0.7-4.3-0.9-6.2-2.2c-2.2,1.8-4.9,2.2-7.5,2.8c-3,0.7-5.9,1.8-8.8,2.8
		c-1.2,0.4-2.3,0.9-3.3,1.6c-3.5,2.3-5.4,3.3-5.1,8.8c-0.7-0.8-1.3-1.4-2-2.2c-0.6,0.4-1.3,0.7-2.1,1.2c-0.8-3,0.1-5.8-0.1-8.6
		c0.3-0.5,0.7-1,0-1.5c-0.3-0.4,0.1,0,0.1-0.1c0,0.6,0,1.1,0,1.7c-1.3-1.3-2.6-2.5-3.9-3.8c-0.3-0.3-0.5-0.5-0.8-0.8
		c0-0.6-0.3-1.1-0.9-0.8c-1.8,0.8-3.6,1.7-5.2,2.8c-2,1.4-2.5,3.3-1.6,5.6c0.7,2,1.8,3.8,2.2,5.9c0.2,1.1,1.1,2.3,2,3.1
		c0.7,0.7,1.9,0.9,2.8,1.3c0,0.7-0.4,1.2-1,1.4c-0.4,0.1-1.1,0.2-1.4-0.1c-0.8-0.6-1.5-1.2-2.2-2c-0.5-0.7-0.8-1.5-1.3-2.3
		c-1.6-2.7-4-3.6-7-2.8c-2.5,0.7-4.9,1.5-6.7,3.6l0.1-0.1c-1.7,0.1-3.2,0.6-4.5,1.6l0.1-0.1c-4.6,0.2-9.1,0.2-13.9-0.1
		c0.3,0.2,0.6,0.3,0.9,0.5c3.1,1.4,5.9,3.6,9.4,4.1c1,0.2,2,0.9,2.9,1.5c4.3,3.2,7.3,7.3,9.2,12.3c1.2,3.2,0.9,6.6,0.3,9.9
		c-0.1,0.4-0.9,0.7-1.4,1c0.1-0.7,0-1.3-0.7-1.6c-0.2-1.3-0.5-2.7-0.7-4c-0.5-0.2-0.9-0.4-1.4-0.6c0-0.7,0.1-1.4,0.1-2.2
		c-1.4-2-3.3-3.3-5.3-4.5c-5.5-3.2-11.3-4.9-17.7-5c-4.8-0.1-9.7-0.1-14.4,1.4c-2.1,0.7-4.3,1.4-6.2,2.4c-5.3,2.8-10,6.5-14,11
		c-4.7,5.2-6.1,11.5-5.7,18.3c0.1,1.9,0.8,3.6,1.9,5.2c1.1,1.5,2.2,3,3.2,4.3c2,0.6,3.7,0.2,5.4,0c1.8-0.2,1.8-0.1,3.7,1
		c-1.2,1.1-1.2,1.1-5.8,1.9c0.6,1.3,1.8,2,2.7,3c0.5,0.6,1.5,1,1.3,2.1l0.1-0.1c-2.1-0.6-3.6-2.1-5.2-3.4c-1.7-1.4-3.4-2.4-5.5-2.8
		c-1-0.2-2.3-0.2-2.9-1.7c1.2,0.1,2.3,0.2,3.7,0.3c-0.8-1.3-1.4-2.2-2-3.1c-1.8-2.8-2.5-5.9-1.8-9.2c0.4-2.1,0.6-4.2,0.9-6.3
		c0.6-4.2,2.4-7.8,5.3-10.9c3.9-4.2,8.3-7.9,13.3-10.7c5.1-2.9,10.5-4.4,16.4-4.4c1.9,0,3.7,0.1,5.6,0c5.7-0.2,11.1,1.3,16.1,3.9
		c3.6,1.9,7.1,4,9.5,7.6c0.5-1.1-0.1-1.9-0.4-2.7c-2-5.1-5.2-9.3-10.4-11.6c-3.5-1.6-7-3.2-10.5-4.8c-1.5-0.7-3-1.2-4.1-2.4
		c-0.4-0.5-1.3-0.9-1.9-0.9c-2.2-0.1-4.5-0.4-6.7,0c-4,0.7-8,1.7-11.7,3.5c-1.1,0.5-2.3,0.9-3.5,1c-1.3,0.2-2.3,0.7-3,1.9
		c-0.5,0.8-1.2,1.5-1.9,2.3c-0.2-0.5-0.3-0.7-0.3-0.9c-0.2-1.5-0.6-2-1.6-2c-1.4,0-2.7,0.1-4.1,0.4c-4.6,0.9-9.2,2-13.8,3
		c-1,0.2-2,0.5-2.9,0.4c-2.4-0.1-4.7,0.4-7,1.1c-8.3,2.5-16.6,5-24.8,8.1c-4.3,1.6-8.4,3.7-12.3,6.2c-2.7,1.7-5.5,3.4-8.2,5.1
		c-4.3,2.7-8.8,5.1-13.7,6.6c-0.3,0.1-0.6,0.4-1.1,0.7c0.6,1,1.6,1.5,2.5,2.1c2.8,2.1,5.5,4.3,7.6,7.1c0.6,0.8,1.3,1.6,1.7,2.5
		c1.2,2.6,2.1,5.3,3.4,7.9c1.3,2.6,1.7,5.4,2.1,8.3c1.8,1.9,3.7,3.9,5.6,6c-0.7,0.6-1.2,1-1.8,1.5c-1.3-0.2-1.2-1.5-1.7-2.2
		c-0.6-1.1-1.1-2.3-2.7-2c-1.4-1.5-3.1-1.1-4.8-1.1c-2.7-0.1-5.4,0.1-8.1-0.7c-2-0.6-2.4-0.2-3.4,2.2c0,0.1-0.2,0.2-0.3,0.4
		c-0.8,0.2-1.7,0.5-2.7,0.7l0.1,0.1c0.7-0.9,2.1-1.5,1.7-3.1c-3.6-1.6-7.5-1.5-12-1.6c4.2-1,8,0.6,11.3-1.3c0.3-1.7-1.3-2-2-2.8
		c1.4-0.5,2.2-0.4,2.6,0.4c0.5,1,0.9,2,1.3,3c4.8,1.2,9.4,1.9,14.1-0.1c-0.8-5.2-3.6-9.5-6.3-13.9c-1.4-0.4-2.8-0.8-4.1-1.1
		c-2.1,1-2.4,3.2-4.2,4.6c1.6,0.6,2.8,1,4.1,1.5c1.3,0.5,2.5,1.2,3,2.6c0.1,0.4-0.1,0.9-0.2,1.4c-3.2-1.5-6.5-1.9-9.9-3.1
		c-0.5,1.2-0.9,2.3-1.4,3.5c-0.8-0.9-0.2-1.9-0.3-2.9c-0.1-0.9-0.4-1.9-0.7-3c0.5-0.2,1.3-0.9,1.8-0.8c1.8,0.5,2.9-0.4,3.8-1.6
		c0.6-0.7,1.1-1.6,1.8-2.7c-2.4-0.8-4.4-1.4-6.5-2.1c0.3-0.5,0.5-0.8,0.7-1.2c-1.3-1.2-2.7-2.5-4.3-3.9c-0.4,0.7-0.6,1.1-0.9,1.6
		c-0.5-2.1-0.5-2.1-3-4c0-0.7,0-1.6,0-2.3c0.3-0.2,0.5-0.4,0.7-0.5c1.5-0.1,2.9-0.2,4.4-0.6c-0.5-0.1-0.9-0.2-1.4-0.1
		c-1.4,0-2.7,0-4-0.4c-1.5-0.5-3.1-0.3-4.8,0.2c-5.5,1.5-10.7,4-15.8,6.5c-3.1,1.5-5.5,3.8-7.5,6.6c-3.8,5.2-6.6,10.9-8.1,17.1
		c-1.2,4.8-1.7,9.8-1.1,14.8c0.2,1.9,0.8,3.9,1.5,5.7c1,2.8,2.3,5.5,3.4,8.3c0.6,1.6,1.5,3.1,1.5,5c0,0.8,0.6,1.6,1.1,2.3
		c2,3.2,4.2,6.1,6.8,8.8c0.9,1,1.7,2.1,2.6,3.1c0.9,0.9,1.9,1.6,2.9,2.3c4.1,3,8.4,5.8,12.4,8.9c5.7,4.3,10.9,9,15.8,14.2
		c4.4,4.7,9.2,9.1,14.5,12.8c1.3,0.9,2.6,1.9,3.8,3c2.2,1.8,4.3,3.8,5.5,6.5c0.4,1,1.2,1.8,2,2.8c0.5-0.5,1-0.7,1.2-1.1
		c2.6-3.5,5.2-7,6.8-11.1c1.3-3.4,3.5-6.3,5.7-9.1c3.2-3.9,6.7-7.7,10.5-11.1c0.9-0.8,2-1.5,1.9-3l-0.1,0.1c0.7,0.2,1.4,0.2,2.1-0.3
		c2.7-2,5.4-3.9,8.2-5.8c5.2-3.4,10.2-7,16.4-9c-1.2-1.6-2.6-2.6-3.9-3.7c-1.9-1.8-4-3.3-5.3-5.7c-0.4-0.8-1.4-1.4-2.2-2
		c-4.7-3.7-9.8-6.8-14.9-9.9c-4.1-2.5-8.2-5.1-12.3-7.6c-4.8-2.9-9.6-5.7-14.6-8.1c-1.1-0.5-2.3-0.8-3.3-2.3c0.8,0,1.4-0.1,1.9,0.1
		c5.1,1.7,10,3.8,14.7,6.2c2.7,1.3,5.3,2.6,8,4c1.8,1,3.7,1.3,5.7,1.5c0.5,0,1.1,0.1,1.5-0.1c3.1-1.5,6.6-1.2,9.8-1.4
		c6.9-0.5,13.4-2.2,19.7-5.1c2.3-1.1,4.5-2.1,6.9-1.8c2.1-2.9,3.4-6.3,3.7-9.3c0.4-3.6,0.8-7.1,1.2-10.7c0.1-0.7,0.3-1.4,0.5-2.1
		c-0.4-1.4-1-2.8-1.2-4.3c-0.2-1.3-0.1-2.7-0.1-4.1l-0.1,0.1c1.5,0.3,2.8,1,3.6,2.4c1.1,2.1,1.6,4.2-0.4,6.1c0.5,3,0.2,5.8-1,8.5
		c-0.3,0.5-0.4,1.2-0.3,1.8c0.5,3.5-0.7,6.7-2,9.7c-1.8,4.2-3.6,8.5-5.7,12.6c-1.1,2.2-1.4,4.4-1.2,6.8c0.2,4.3,0.4,8.7,0.4,13
		c0,3.2-0.3,6.4-0.5,10.2c0.3,0.7,1.4,1.6,2.3,2.6c5.8,6,10.9,12.5,15.5,19.5c1.4,2.1,3.4,3.9,5.1,5.8l-0.1-0.1
		c0.3,0.7,0.8,1.4,0.7,2.1c-0.3,2.5,0.8,4.8,0.4,7.3c-0.2,1-0.2,2-0.3,2.9c-0.1,0.6-0.4,1.2-0.7,1.7c-2,3.9-4,7.7-5.9,11.6
		c-0.5,0.9-1,1.7-1.4,2.6c-1.2,2.3-2.1,4.7-2.5,7.3c-2.5,14.1-6.9,27.6-13.7,40.3c-1.3,2.4-2.5,4.9-3.8,7.2c-1.4,2.5-2.6,5-3,7.9
		c-0.2,1.8-1.1,3.5-1.7,5.3c-0.9,2.6-1.9,5.1-2.8,7.6c0.7,0.7,0.9,0,1.3-0.1c0.4-0.2,0.9-0.4,1.2-0.6
		C600.8,513.5,602.1,514.2,603.3,514.9c0.4,0.2,0.6,0.4,0.9,0.7l0.1,0.2l-0.2-0.1C603.8,515.5,603.6,515.2,603.3,514.9z
		 M686.6,234.7c-0.5,1-0.3,1.6,0.3,2.1c0.1,0.3,0,0.7,0.2,1c0.1,0.2,0.6,0.1,0.8,0.1c0.1,0,0.2-0.5,0.1-0.6
		c-0.3-0.4-0.7-0.7-1.2-0.4C686.8,236.2,686.7,235.6,686.6,234.7z M516.9,303.1c1.8,2.7,3.8,4.7,6,6.2c2.2,1.5,5,1.6,8.3,2.3
		c-0.7-1-0.9-1.6-1.3-1.9c-0.9-0.7-1.8-1.3-2.7-1.8c-1-0.5-1.1-1.7-2.1-2.3c-1.5-0.9-2.9-1.2-4.5-1.2c-0.3-0.5-0.5-0.9-0.7-1.3
		c0.2,0,0.5,0.1,0.7,0.1c0.1,0,0.2-0.1,0.3-0.1c-0.1-0.1-0.3-0.3-0.4-0.3c-0.2,0.1-0.4,0.3-0.5,0.4
		C519,303.1,518.2,303.1,516.9,303.1z M581.1,421.6c-0.3-0.1-0.6-0.2-0.3-0.1C580.6,421.5,580.9,421.5,581.1,421.6
		c-0.1,0.6,0.4,0.8,0.8,1c1.6,1,3.2,1.9,4.8,2.9c1.4,1,2.7,2.1,3.5,4c-2.3,0.8-3.1-1.7-5-1.7c-2.6,3.9-5.2,7.9-7.8,11.9
		c-1.1,1.7-1.8,3.5-2.2,5.5c-0.5,2.2-1.3,4.3-1.9,6.4c-0.5,1.9-1.1,3.8-1.5,5.8c-0.2,1-0.5,2.1,0.1,3.5c0.7-1.7,1.2-3.2,1.8-4.7
		c0.6-1.6,1.2-3.2,2.4-4.6c0.6-0.7,1.1-1.7,1.5-2.5c2.8-5.5,6.2-10.8,9.8-15.8c0.4-0.6,0.9-1.1,1.3-1.6c0.9,0.2,0.8,0.8,0.7,1.2
		c-0.4,1.2-0.8,2.4-1.5,3.4c-3.1,5.1-6.3,10.1-9.5,15.1c-0.8,1.3-1.4,2.5-1.9,4c-1.5,4.8-2,9.7-2.7,14.6c-0.6,3.8-1.2,7.6-1.7,11.4
		c-0.1,1-0.3,2-0.1,2.9c1.6,7.3,1.1,14.6-0.3,21.8c-0.7,3.7-1,7.4-1.4,11.1c-0.9,6.9-1.7,13.8-3,20.6c-0.5,2.7-0.5,5.4-0.9,8.1
		c-0.1,1.1-0.6,2.1-1.1,3.1c-0.1,0.3-0.6,0.4-1,0.6c-0.7-1.6-0.6-3.3-0.4-4.8c0.7-4.4,0.8-8.9,1.9-13.2c1-3.9,1.2-8.1,1.8-12.1
		c-0.8-1.2-1.8-1.8-3.3-1.7c-0.3,2.6-0.7,5.2-0.8,7.7c0,4.9-1.7,9.5-2.8,14.2c-0.1,0.5-0.4,0.9-0.5,1.4c-0.4,2.9-1,5.8-2.8,8.4
		c1.4,1.7,3,2.5,4.9,2.5c0.6,0,1.4-0.2,1.6-0.6c0.9-1.2,1.7-1.2,2.8-0.4c1.9,1.3,4,1.9,6.3,2.1c2.2,0.3,4.4,0.4,6.6,0.6
		c2.5-3.9,5-7.7,7.5-11.6c-0.4-7.3,1.7-14.1,4.4-20.9c0.6-1.6,1.1-3.3,1.7-4.9c1.7-4.9,3.4-9.8,5.5-14.6c2.8-6.2,5.4-12.5,8.1-18.8
		c2.2-5,4.4-10,6.6-15c0.4-0.9,0.8-1.8,1-2.8c0.3-1.3,0.5-2.6,1.6-3.7c0.4-0.4,0.5-1.1,0.6-1.7c1.1-5.3,2.3-10.7,3.4-16
		c0.3-1.4,0.1-3,0.6-4.4c0.7-1.7,1.7-3.3,2.7-4.9c2.1-3.4,4.3-6.7,6.5-10c0.9-1.4,1.4-2.8,1.2-4.5c-0.2-2.2-0.2-4.4-1.3-6.5
		c-0.4-0.7-0.3-1.7-0.6-2.5c-0.2-0.7-0.5-1.4-0.9-2c-2.1-2.9-4.3-5.8-6.5-8.6c-4-5.1-8.1-10.1-12.1-15.1c-0.4-0.5-0.8-0.9-1.3-1.3
		c-1.8-1.7-3.7-3.4-5.5-5c-0.5-0.5-1.1-0.9-1.6-1.4c-16.7,8.8-30.4,21-42.5,35.4c3.9,1.1,7.7,1.7,11.2,3.4c0.4,0.2,0.9,0.3,1.4,0.3
		c4,0.4,10.4,3,13.5,5.5l0.1-0.1C583.5,422.9,582.4,421.8,581.1,421.6z M576.1,591c1.8-0.2,3.6-0.8,5.5-1.1c1.2-0.2,2.5-0.5,3.6-0.4
		c2.6,0.3,5.1,0.9,7.7,1.4c1.1,0.2,2.3,0.4,3.2,1c1.8,1.3,3.7,1.3,5.7,1.3c6,0.2,11.9-0.5,17.8-1.2c4.8-0.5,9.4-2.2,14.2-2.7
		c2-0.2,3.8-1,5.3-2.5c1.2-1.2,2.7-2.2,4-3.3c1.2-1,1.5-2.2,1.1-3.7c-0.1-0.4-0.2-0.7-0.2-1.1c-0.8-3.4-1.8-4.4-5.2-4.8
		c-5.4-0.7-10.8-1.5-16.1-3.1c-0.2-0.1-0.5-0.3-0.7-0.2c-1.6,0.7-2.7-0.5-4-1c0.2-0.9,0.2-1.7-1.1-1.8c-0.5,0.4-1,0.9-1.6,1.4
		c-0.3-0.2-0.7-0.3-0.9-0.5c-0.8-0.9-0.4-1.9-0.1-3c-0.7-0.6-1.4-1.2-2.1-1.9c-2.1,1.2-4.1,2.4-6,3.5c-0.8-0.2-0.9-0.7-0.7-1.2
		c0.4-1,0.8-2.1,1.4-3c0.6-0.9,1.4-1.7,2.1-2.6c-0.2-1.4-0.8-2.6-2.2-3.3c-1.3,0.6-2,1.9-2.8,2.9c-1.4,1.7-3,2.9-5.3,3.1
		c-1.1-2.1,0-3.6,1.1-5.1c1-1.4,2.3-2.6,3.5-4c-0.7-0.5-1.3-0.9-1.8-1.2c-0.4,0.2-0.6,0.2-0.8,0.4c-1.4,1.7-2.7,3.5-4.1,5.3
		c-0.9,1-1.9,2-2.7,2.8c-1.1-0.1-1.3-0.7-1.2-1.3c0.3-1.2,0.6-2.4,1.3-3.4c1.3-1.9,2.9-3.7,4.4-5.7c-0.8-0.6-1.8-1.3-2.6-2.1
		c-1-0.9-1.9-1.9-2.8-2.9c-0.8-0.9-1.4-2-2.3-3.2c-0.5,0.7-0.8,1.1-1.1,1.6c-1.3,2.1-2.6,4.2-4,6.3c-1.3,2-2.2,4.2-3,6.4
		c-1.4,3.5-5.3,5.8-9.1,5.7c-2.9-0.1-4.7-1.5-5.8-3.9c-0.6-1.4-1.1-2.8-2.5-3.6c-0.3-0.2-0.7-0.3-1-0.4c-2,2.1-3.4,4.6-3.9,7
		c-0.7,3.8-1.3,7.6-1.9,11.4c-0.2,1.1-0.2,2.2-0.2,3.3c-0.1,4.1-0.1,8.2-1,12.5C563.5,590.9,569.7,591.7,576.1,591z M600,548.3
		c2.7,1.5,4.4,3.9,6.4,6.1c1,1.1,1.8,2.4,2.9,3.3c2.7,2.3,5.6,4.5,8.6,6.5c0.7-0.4,1.3-0.6,1.8-0.9c2.3-1.8,4.6-3.8,6.9-5.6
		c4.5-3.5,5.3-8,4-13.3c-1.1-4.5-3.3-8.2-7.2-10.9c-1-0.7-2.1-1.4-3.7-1.2c-0.1,0.5-0.3,1-0.4,1.6c-0.1,0.6,0,1.3-0.2,1.8
		c-0.4,1.3-1,2.5-2.2,3.3c-1.2,0.8-2.6,0.8-3.9,0.2c0.1-0.8,0.8-0.8,1.3-1.1c0.8-0.3,1.6-0.6,2.3-1.1c1-0.8,1.4-1.8,1.3-3.3
		c-0.4-3.9-0.9-7.9-0.6-11.9c0.3-4.2-0.4-8.1-0.9-12.2c-0.3-2.7-0.7-5.4-2.8-7.5c-0.3-0.3-0.3-0.9-0.4-1.2c-1.5,0.8-2.9,1.5-4.3,2.3
		c-1.4,0.8-1.7,1.7-1.3,3.3c0.2,1,0.5,1.9,0.5,2.9c0.2,4.1,0.5,8.2,0.2,12.3c-0.2,2.3,0,4.7-0.1,7.1c0,2-0.2,3.9-0.3,6.8
		c-1-2.6,0-4.6-1.4-6.4c-3.7,0.5-7,1.9-9.2,5.3c-1.5,2.4-3,4.9-4.1,7.8C595.3,544.7,597.4,546.9,600,548.3z M607.1,360.7
		c0-0.4,0.1-0.8,0-1.1c-1.3-2.9-0.1-5.6,0.8-8.3c0.6-1.8,1.4-3.4,2.2-5.1c0.3-0.7,0.6-1.3,0.8-1.9c-0.5-1.2-1.3-1-1.9-0.7
		c-0.8,0.4-1.4,1-2.1,1.5c-6.8,5.1-14.2,7.4-22.7,5.8c-2.8-0.5-5.6,0.2-9.1,0.5c1.2,0.8,1.9,1.3,2.5,1.7c3.2,2.1,6.4,4.2,9.6,6.4
		c3.8,2.7,6.9,6,8.9,10.2c0.2,0.4,0.5,0.8,0.8,1.2c0.1,0.2,0.4,0.3,0.5,0.5c2.8,2.6,5.6,5.2,8.9,8.2
		C606.6,373.1,606.8,366.9,607.1,360.7z M594.2,534c1.1-1.9,2.3-3.5,4.3-4.4c0.3-0.2,0.7-0.3,0.9-0.6c2.1-2.1,4.2-4.1,6.3-6.2
		c-0.1-1.2-0.7-1.9-1.9-2c-0.9,1.3-1.7,2.6-2.7,3.9c-1,1.4-2.2,2.7-3.9,3.4c-0.6,0.3-1.2,0.1-1.7-0.8c1.3-3.1,4.5-5.2,5.9-8.8
		c-0.9-0.8-1.8-1.5-2.9-2.4c-0.9,0.6-1.7,1.1-2.5,1.7c-0.9,0.6-1.3,1.4-1.4,2.5c-0.3,2.2-1.2,4.2-2,6.3c-1.1,3-1.8,6.2-2.5,9.3
		c-0.3,1.1-0.1,2.2,1,3.2C592.2,537.4,593.2,535.7,594.2,534z M631.7,539.5c1,2.3,1.4,4.7,1.1,7.3c-0.1,1-0.1,1,0.8,2.8
		c3.2-0.6,6-2,8.7-3.9c-0.9-2.5-1.8-4.9-2.7-7.5c-2.7-0.2-5.4-0.6-8.3-0.3C631.5,538.6,631.6,539.1,631.7,539.5z M576.3,560.1
		c0.6-0.7,1.3-1.5,2.3-2.7c-3-0.3-5.7-0.5-8.7-0.8C571.2,560.2,571.5,560.3,576.3,560.1z M513.7,300.8c0.5,0.5,0.9,1.2,1.5,1.4
		c1.4,0.5,2.6-0.2,4.3-0.7C517.7,299.3,515.7,300.8,513.7,300.8z M733.1,238.4c-0.1-0.6-0.1-1.3-0.2-2.2c-0.5-0.2-1.1-0.6-1.8-0.9
		c-0.1,0.3-0.3,0.5-0.3,0.6c0.7,1,1.5,1.8,1.2,3.3c-0.3,1.2,0.6,1.7,1.7,1.1c0.2-0.1,0.4-0.3,0.5-0.5c0.1-0.2,0.2-0.4,0.3-0.8
		C734.1,238.8,733.7,238.6,733.1,238.4z M697.7,228.4c0.8-1.3,0.1-2.3-0.1-3.3c-0.9-0.3-1.3,0.4-2.2,1.2
		C696.2,227.1,696.9,227.7,697.7,228.4z M725.7,244c0.7-0.7,0.2-1.1-0.2-1.2c-1-0.4-2.1-0.6-3.1-0.9c-0.2,0-0.4,0.2-0.7,0.3
		C722.8,243.5,724.5,243.2,725.7,244z M711.5,237.1c0.3,0.4,0.8,0.4,1.2,0c-1.4-2.7-1.4-2.7-2.5-2.5
		C710.6,235.4,711,236.3,711.5,237.1z M700.6,231.2c0.8,1.1,1.4,1.4,2,1c0.9-0.5,0.5-1.2,0-2.3C701.7,230.5,701.2,230.8,700.6,231.2
		z M712.3,245.4c-1.7-0.6-3.3-0.8-4.4,0.9C709.3,246,710.8,245.7,712.3,245.4z M675.3,258.3c1.1-0.9,1.1-0.9-0.2-3.1
		C675.1,256.3,675.2,257.2,675.3,258.3z M716.8,241.2c0.5-1.7,0.5-1.7-0.4-3.1C716.5,238.9,716.6,239.8,716.8,241.2z M717.9,242.3
		c-1.5-0.5-2.5,0.6-3.6,0.8C715.8,243.6,716.8,243.1,717.9,242.3z M604.1,526.6c2.1,0.2,2.1,0.2,1.9-1.7
		C605.3,525.5,604.8,525.9,604.1,526.6z M678.9,234.3c-0.1,0.1-0.1,0.5,0,0.6c0.1,0.2,0.5,0.3,0.6,0.3c0.5-0.3,0.9-0.6,1.4-0.9
		C680,233.4,679.4,233.6,678.9,234.3z M701.4,218.3c0,0,0.1-0.5,0-0.5c-0.2-0.1-0.4-0.2-0.6-0.1c-0.1,0-0.2,0.4-0.3,0.7
		C700.8,218.3,701.1,218.3,701.4,218.3z M724.1,229.5c-0.2,0-0.5,0.2-0.5,0.3c0,0.3,0.2,0.6,0.3,0.9c0.3-0.1,0.6-0.2,1.4-0.6
		C724.7,229.8,724.4,229.6,724.1,229.5z M739.7,239c-0.6-0.1-1.1,0.3-0.9,0.7c0,0.1,0.2,0.3,0.2,0.3c0.4-0.1,0.8-0.3,1.4-0.5
		C740,239.3,739.8,239.1,739.7,239z M683.1,239.8c-0.1,0.3-0.1,0.6-0.2,0.9c0.2,0,0.5,0,0.6-0.1c0.2-0.3,0.2-0.6,0.3-0.9
		c0-0.1-0.1-0.2-0.2-0.3C683.4,239.5,683.1,239.6,683.1,239.8z M686.8,245.2c-0.3-0.3-0.7-0.5-1-0.7c-0.1,0.2-0.4,0.4-0.3,0.6
		c0.2,0.4,0.4,0.7,0.8,1.3C686.5,245.8,686.8,245.3,686.8,245.2z M673.5,246.9c0.2-0.2,0.4-0.5,0.6-0.8c0,0-0.2-0.3-0.2-0.2
		c-0.4,0.2-0.7,0.4-1.1,0.7C673.2,246.8,673.4,247,673.5,246.9z M702.8,248.5c0.3-0.1,0.5-0.2,0.8-0.4c-0.1-0.1-0.2-0.2-0.2-0.2
		c-0.3,0-0.6,0.1-1,0.2C702.6,248.3,702.8,248.6,702.8,248.5z M675.5,238.2c0.4,0.1,1-0.5,0.8-0.9c0-0.1-0.2-0.3-0.2-0.3
		c-0.3,0.2-0.7,0.5-1,0.8C675.3,238,675.4,238.1,675.5,238.2z M689.6,224.7c0.3-0.2,0.5-0.4,0.8-0.6c0.1,0,0-0.3,0-0.3
		c-0.2-0.1-0.4-0.2-0.6-0.1c-0.2,0.2-0.4,0.5-0.6,0.7C689.4,224.6,689.6,224.7,689.6,224.7z M694.4,221.1c0.2-0.2,0.4-0.4,0.6-0.7
		c0,0-0.2-0.3-0.2-0.3c-0.3,0.1-0.6,0.3-0.9,0.4C694.1,220.8,694.2,220.9,694.4,221.1z M675.4,251.3c0.1-0.2,0.2-0.4,0.2-0.6
		c0-0.1-0.2-0.2-0.4-0.3c-0.1,0.2-0.1,0.4-0.2,0.6C675.2,251.1,675.3,251.2,675.4,251.3z M685.9,224c0.2-0.1,0.4-0.2,0.6-0.3
		c-0.1-0.1-0.2-0.2-0.2-0.2c-0.2,0.1-0.4,0.2-0.5,0.3C685.7,223.8,685.8,224,685.9,224z M728.5,235.2c0.1-0.1,0.2-0.3,0.2-0.4
		c-0.1,0-0.2-0.1-0.3,0c-0.1,0-0.1,0.2-0.2,0.3C728.3,235.1,728.4,235.1,728.5,235.2z M700.6,243.2c0.2,0.1,0.4,0.2,0.6,0.2
		c0.1,0,0.2-0.1,0.3-0.2c-0.2-0.1-0.3-0.2-0.5-0.4C700.9,242.9,700.7,243.1,700.6,243.2z M696.5,242.8c-0.1,0-0.2,0.3-0.3,0.4
		c0.2,0.1,0.4,0.2,0.6,0.2c0.1,0,0.2-0.3,0.4-0.4C696.9,242.9,696.7,242.7,696.5,242.8z M721.9,244.4c0,0.1-0.1,0.2-0.1,0.3
		c0.1,0,0.2,0,0.3,0c0,0,0-0.1,0.1-0.2C722.1,244.4,722,244.4,721.9,244.4z M678.6,245.4c0.1,0,0.2-0.1,0.3-0.2
		c-0.2,0-0.4,0.1-0.6,0.1C678.4,245.4,678.5,245.5,678.6,245.4z"/>
	<path d="M213.4,249c0.1,1.7,0.1,2.5,0.3,3.3c1.8,7.7,1.4,15.4,0.2,23.2c-0.2,1-0.2,2-0.3,2.9c0,0.2,0.2,0.4,0.3,0.7
		c0.9,0.3,1.4-0.4,1.7-1c1.3-2.3,2.1-4.8,2.2-7.4c0.4-5.6,0-11.1-1.5-16.5C215.8,252.6,215.4,250.8,213.4,249z"/>
	<path d="M179,51.9c1.5,0.5,0.9,1.8,1.2,2.8c1.3,0.8,2.6,0.4,3.8-0.2c0.4-0.2,0.8-1,0.8-1.5c0-0.3-0.5-0.9-0.9-1.1
		c-0.5-0.3-1.2-0.2-1.8-0.4c-0.8-0.2-1.3-0.8-1.4-1.6c-0.1-0.8,0.3-1.4,1.1-1.8c0.3-0.1,0.6-0.3,1.1-0.6c-1.9-1.5-3.7-2.8-5.5-4.1
		l0.1,0.1c-1-0.2-1.8,0.1-1.9,1.1c-0.2,2.4-1.4,4.4-2.7,6.2c0.5,1.5,1.6,2.1,2.8,2.9c0.7-1.2-0.8-1.6-0.9-2.7
		c0.2-0.3,0.6-0.7,0.9-1.1c1.9,0.6,1.7,2.8,3.2,3.9c0.1-0.8,0.1-1.4,0.2-2c-0.5-0.9-1-1.9-1.7-2.8c-0.7-0.9-0.5-1.8-0.1-2.7
		c0.1-0.2,0.4-0.3,0.7-0.6c0.7,0.6,1.4,1.2,2.1,1.8C179.8,49.1,179.4,50.5,179,51.9z"/>
	<path d="M174.7,135.5c-0.3,0.6-0.7,1-0.6,1.1c2.3,4.6,5.5,8.2,10.8,9.1c0.1,0,0.2-0.1,0.3-0.2c0-0.1,0.1-0.2,0-0.3
		c0-0.1-0.1-0.2-0.1-0.3c-0.2-0.2-0.3-0.4-0.5-0.5C181.4,141.5,178.2,138.7,174.7,135.5z"/>
	<path d="M203.5,35.1c1.1,0.5,2.2,0.3,3.1-0.5c1.6-1.4,3.5-1.6,5.5-1.5c1.2,0.1,2.5,0.1,3.7,0.1c0.5,0,1-0.1,1.4-0.3
		c0.3-0.3,0.5-0.8,0.6-1.2c0-0.3-0.3-0.7-0.5-0.8c-0.7-0.3-1.4-0.6-2.1-0.5c-2.3,0.3-4.6,0.7-6.9,1.1
		C206.1,31.8,204.4,33,203.5,35.1z"/>
	<path d="M187,263.8c0.5-4.3,1.7-8.5,0.7-12.8c0-0.2-0.4-0.2-0.8-0.5c-0.2,0.6-0.5,1.1-0.6,1.6C185.8,257.3,186,261.6,187,263.8z"/>
	<path d="M188.6,438.1c-1,3.4-0.8,9,0.6,17.7c0.2-1.2,0.3-1.7,0.3-2.2c0.1-4,0.2-7.9,0.2-11.9c0-0.9,0-1.7-0.2-2.6
		C189.5,438.8,189,438.6,188.6,438.1z"/>
	<path d="M219.5,253.6c0.9,1.6,1.6,3,2.3,4.4c0.6,1.3,1.2,2.7,1.7,4.1c0.6,1.5,1,3.1,1.5,4.6c0.5,1.4,0.9,2.8,1.4,4.3
		c0.3-2.4-0.2-5.3-1.7-9.5C222.8,256.5,221.8,254.9,219.5,253.6z"/>
	<path d="M202.8,299.9c0-3.1,0.1-5.3,0-7.5c-0.1-2.6,0-5.2,0.6-7.8c0.4-1.8,0.5-3.6,0.2-6c-0.7,3.4-1.3,6.2-1.7,9
		c-0.2,1.6-0.2,3.2-0.1,4.8C202,294.7,202.4,296.9,202.8,299.9z"/>
	<path d="M209.1,39c1.8,0,3.4,0.1,5.1,0c0.7-0.1,1.3-0.7,1.9-1.1c-0.1-1-0.2-1.9-0.3-2.8C211.3,36.2,211.2,36.3,209.1,39z"/>
	<path d="M207.9,205.8c0.8,1.5,1.5,2.8,2.3,4c0.1,0.2,0.7,0.1,1,0c0.2,0,0.3-0.4,0.3-0.6c0-0.2,0-0.5-0.1-0.7
		c-0.7-1.9-1.1-3.8-0.9-5.8c0-0.3-0.1-0.7-0.2-1.1c-0.1-0.2-0.3-0.5-0.5-0.5c-0.3,0.1-0.8,0.2-0.9,0.4c-0.2,0.7-0.3,1.4-0.5,2.2
		C208.4,204.4,208.2,204.9,207.9,205.8z"/>
	<path d="M191.8,69c0.7-0.4,1.4-0.8,2.2-1.3c-0.6-0.5-1.2-1-1.8-1.4c-1.3-0.9-2.4-2-2.7-3.8c-0.1-1.1-1-1.8-1.7-2.9
		c-0.8,2.5-0.6,4.4,0.9,5.5C190.2,66.1,191.1,67.4,191.8,69L191.8,69z"/>
	<path d="M172.6,311.3c3.9,0,7.5,0,11.4,0c-0.6-0.6-0.9-1-1.2-1.1c-3.1-0.7-6.3-0.8-9.4,0.2C173.2,310.5,173.1,310.7,172.6,311.3z"
		/>
	<path d="M202.8,318.2c-1,7.3-1.3,11.7-0.8,15c0.4-1.3,0.6-2.1,0.8-2.9C203.2,327,203.2,321.9,202.8,318.2z"/>
	<path d="M256.3,350.2c1,1,1.8,0.8,2.5,0.2c1.4-1.2,2.7-2.5,3.2-4.3c-0.6-0.7-1.2-0.5-1.7-0.1C258.8,347.3,257.7,348.9,256.3,350.2z
		"/>
	<path d="M232.1,393.4c-0.9,0.3-1.8,0.6-2.7,0c-1.8-1-3.6-1.9-5.5-2.9c-0.7-0.4-1.4-1.1-2.3-0.8l0.1-0.1c2.1,2.1,4.5,3.7,7.2,4.8
		c0.6,0.2,1.1,0.4,1.7,0.5C231.4,395,231.7,394.6,232.1,393.4L232.1,393.4z"/>
	<path d="M251.3,322.1c1.8-2.1,1-4.3,1-6.4c-1-0.4-1.4,0-1.6,0.6C250,318.2,250.2,319.5,251.3,322.1z"/>
	<path d="M230.3,211c0.3,1.6,1.3,2.8,2.5,3.8c0.2,0.2,0.7,0.1,1,0c0.2,0,0.4-0.4,0.4-0.6c0.2-1.8-1.5-3.6-3.5-3.6
		C230.6,210.7,230.5,210.8,230.3,211z"/>
	<path d="M188.8,458.2c-1.6,3.4-1.7,4.1-1.7,7.5c1.2-1.7,2.4-4.8,2.4-6.3C189.5,459.1,189.2,458.9,188.8,458.2z"/>
	<path d="M206.3,416.5c-0.3,0.2-0.8,0.4-0.9,0.6c-0.4,1.9-1.1,3.7-0.6,5.8c1.5-0.4,1.5-1.7,1.7-2.6
		C206.8,419.1,207.4,417.8,206.3,416.5z"/>
	<path d="M203,356c-0.3-3.5-0.7-7-1-10.5C201.2,349.1,201.8,352.6,203,356z"/>
	<path d="M180.6,545.7c0.8,2.2,2,3.3,2.9,4.6c1.3-0.1,1.5-0.7,1.2-1.5C184,547.2,182.7,546.4,180.6,545.7z"/>
	<path d="M205.8,430.7c-1.8,1.2-2,1.6-1.7,2.9c0.3,1.1,0.7,1.3,2.2,1.4C206.8,433.5,205.8,432.2,205.8,430.7z"/>
	<path d="M212.6,246.5c-0.8-0.5-1.6-0.9-2.3-1.6c-0.6-0.6-0.9-1.4-1.7-2.6c0,1.4,0,2.2,0,3.1c-0.8,0.2-1.7,0.3-2.6,0.5
		c0.2,0.1,0.3,0.3,0.4,0.3C208.5,246.3,210.6,246.4,212.6,246.5L212.6,246.5z"/>
	<path d="M264.2,340.6c1.1,1,2.3,2,3.9,2.6c0.2-0.4,0.5-0.9,0.4-1.1c-1-1.3-2.2-2.3-4-2C264.4,340.2,264.4,340.3,264.2,340.6z"/>
	<path d="M191.9,68.9c0.3,2.5,2.2,3.9,3.5,5.8c0.8-0.6,0.3-1.1,0.1-1.4C194.2,71.9,193.7,69.9,191.9,68.9L191.9,68.9z"/>
	<path d="M217.3,368c2.4-0.7,4.1-1.3,6.1-1.9C219.6,365.5,218.8,365.7,217.3,368z"/>
	<path d="M195.7,172.4c-0.1,1.2-0.3,1.6-0.2,1.9c0.6,1.5,0.8,1.7,2.8,3.5c0-0.6,0.2-1.1,0-1.4C197.6,175.2,196.9,174.2,195.7,172.4z
		"/>
	<path d="M203.3,262.9c0,2.4,0,4.8,0,7.2c0.1,0,0.1,0,0.2,0c0-2.4,0-4.8,0-7.2C203.4,262.9,203.3,262.9,203.3,262.9z"/>
	<path d="M213.8,419.9c-1-0.5-1.6-0.9-2.3-1.1c-0.5-0.1-1.2,0.6-1.2,1.2c0,0.6,0.7,1.2,1.3,1C212.3,420.8,212.8,420.4,213.8,419.9z"
		/>
	<path d="M237,356.2c-1.3,2.4-1.3,2.4,0,4C237.4,358.8,237.7,357.6,237,356.2z"/>
	<path d="M179.5,62.3c-1.7,1-0.8,2.4-1.2,4.3C179.9,64.1,179.9,64.1,179.5,62.3z"/>
	<path d="M228.9,209.6c-0.4-2.1-0.7-2.3-2.5-2.1C226.7,208.7,227.4,209.4,228.9,209.6z"/>
	<path d="M203.7,90c-0.2-1.2-0.5-2.3-0.7-3.4c-1,0-1.1,0.5-0.9,1c0.3,0.9,0.8,1.7,1.2,2.6C203.4,90,203.5,90,203.7,90z"/>
	<path d="M204,272.7c0,1.4,0,2.7,0,4.1c0,0,0.1,0,0.1,0c0-1.4,0-2.7,0-4.1C204.1,272.7,204,272.7,204,272.7z"/>
	<path d="M180.1,544.3c0.8-1,1.3-1.8,1-2.9C180,542.2,180,542.2,180.1,544.3z"/>
	<path d="M197.9,113.2c-0.2,1.5,0.5,2.4,1.2,3.6C199.4,114.8,199.4,114.8,197.9,113.2z"/>
	<path d="M180.8,526.3c1.3-1.2,1.4-2.1,1.1-3.3C180.5,523.7,180.5,523.7,180.8,526.3z"/>
	<path d="M232.1,393.3c0.7,0,1.4,0,2,0.6c0.5,0.5,1,1.1,1.9,0.8l-0.1,0.1c-0.6-1.1-1.6-1.8-2.6-2.3
		C232.3,392.1,232.1,392.6,232.1,393.3L232.1,393.3z"/>
	<path d="M205,256.7c0-1.4,0-2.9,0-4.5c-0.2,0.3-0.4,0.4-0.4,0.5c0,1.3,0,2.6,0,4C204.8,256.7,204.9,256.7,205,256.7z"/>
	<path d="M205.6,425.9c0.5,0.8,0.9,1.5,1.6,2.6c0.5-1.7-0.2-2.4-1-3.1C206.1,425.6,205.9,425.7,205.6,425.9z"/>
	<path d="M220.2,123.3c0.1,0.7,0.2,1.3,0.4,2.1C221.6,124.5,221.6,124.5,220.2,123.3z"/>
	<path d="M176.9,318.8c-0.6-1.2-1.8-1.3-2.9-1.3C174.8,318.2,175.6,319,176.9,318.8L176.9,318.8z"/>
	<path d="M188,147.9c0.9,1,1.7,1.1,2.7,0.6C190,147.8,189.3,147.5,188,147.9z"/>
	<path d="M201.7,125.1c1.1-1.8,0.8-2.7,0.2-4.2C200.9,122.5,201.7,123.4,201.7,125.1z"/>
	<path d="M180.8,531.1c-0.2,0.5-0.5,1-0.6,1.5c0,0.2,0.3,0.7,0.5,0.7c0.2,0,0.7-0.3,0.8-0.5c0.1-0.5,0-1.1,0-1.7
		C181.2,531.2,181,531.2,180.8,531.1z"/>
	<path d="M224.4,204c-0.4,0.3-0.8,0.4-0.7,0.5c0.1,0.5,0.3,0.9,0.5,1.3c0.1,0.1,0.4,0.1,0.6,0c0.1,0,0.2-0.2,0.2-0.3
		C224.8,205,224.6,204.5,224.4,204z"/>
	<path d="M198.6,79.2c-0.3-0.3-0.5-0.7-0.8-1c0,0-0.4,0.2-0.5,0.3c0.2,0.4,0.5,0.8,0.7,1.2C198.2,79.5,198.4,79.3,198.6,79.2z"/>
	<path d="M238.3,366.3c0.2-0.4,0.4-0.8,0.3-1c-0.1-0.3-0.4-0.5-0.6-0.7c-0.2,0.3-0.5,0.6-0.5,0.8C237.6,365.6,238,365.9,238.3,366.3
		z"/>
	<path d="M186.9,476.6c0.7-1,0.8-1.9,0.2-3C186.3,474.6,186.2,475.5,186.9,476.6z"/>
	<path d="M203.3,181.1c-0.8-0.7-1.3-1.2-2-1.9C201.1,181.2,201.3,181.3,203.3,181.1z"/>
	<path d="M250.2,347.9c0.9,1.1,1.6,0.7,2.3,0.1C251.8,348,251.1,348,250.2,347.9z"/>
	<path d="M247.3,293.2c0.5-0.9,0.1-1.2-0.7-1.4C246.3,292.6,246.7,293,247.3,293.2z"/>
	<path d="M195.5,52.4c-0.3,0.3-0.4,0.5-0.6,0.6c0.4,0.2,0.8,0.5,1.2,0.7c0,0,0.2-0.2,0.2-0.3C196.1,53,195.8,52.7,195.5,52.4z"/>
	<path d="M181.1,536.8c-1,0.6-1,1.1,0,1.6C181.1,537.9,181.1,537.4,181.1,536.8z"/>
	<path d="M207.8,184.9c-0.1-0.8-0.5-1.2-1.4-0.8C206.6,184.8,206.9,185.3,207.8,184.9z"/>
	<path d="M200.1,432.1c0,0.6,0,1.2,0,1.7c0,0.2,0.3,0.3,0.5,0.4c0.1-0.3,0.4-0.5,0.4-0.8C200.9,432.9,200.8,432.2,200.1,432.1
		L200.1,432.1z"/>
	<path d="M204,259.1c0,0.5,0,1.1,0,1.6c0.1,0,0.1,0,0.2,0c0-0.5,0-1.1,0-1.6C204.2,259.1,204.1,259.1,204,259.1z"/>
	<path d="M181.7,519.4c0.3-0.7,0.5-1,0.5-1.3c0-0.1-0.3-0.3-0.4-0.4c-0.1,0.1-0.2,0.2-0.2,0.3C181.5,518.2,181.6,518.5,181.7,519.4z
		"/>
	<path d="M210.3,358.3c-0.2,0.2-0.3,0.4-0.5,0.5c0.3,0.2,0.5,0.3,0.8,0.5c0,0,0.2-0.2,0.2-0.2C210.7,358.8,210.5,358.5,210.3,358.3z
		"/>
	<path d="M215,247.1c0.4,0.7,0.9,1,1.7,0.3C216.1,247.3,215.5,247.2,215,247.1L215,247.1z"/>
	<path d="M212.7,246.4c0.6,0.9,1.5,0.7,2.4,0.7l-0.1,0.1C214.4,246.2,213.5,246.5,212.7,246.4L212.7,246.4z"/>
	<path d="M176.9,318.7c0.5,1.1,1.4,0.8,2.3,0.6l0,0.1C178.5,318.9,177.8,318.5,176.9,318.7L176.9,318.7z"/>
	<path d="M251.7,326.2c0.1-0.2,0.2-0.3,0.4-0.5c-0.2-0.1-0.5-0.3-0.7-0.4c-0.1,0.2-0.2,0.4-0.3,0.6
		C251.2,326,251.5,326.1,251.7,326.2z"/>
	<path d="M198.6,54.8c0.3,0.2,0.5,0.4,0.8,0.5c0,0,0.2-0.3,0.4-0.4c-0.3-0.2-0.5-0.4-0.8-0.6C198.9,54.4,198.8,54.6,198.6,54.8z"/>
	<path d="M195.3,149.3c0.2,0.1,0.3,0.3,0.5,0.4c0-0.1,0.2-0.3,0.1-0.3c-0.1-0.1-0.3-0.3-0.5-0.4
		C195.4,149.2,195.4,149.2,195.3,149.3z"/>
	<path d="M219.4,388.2c0.5,0.2,1,0.4,1.6,0.6l-0.1,0.1c-0.3-0.7-1-0.5-1.6-0.6L219.4,388.2z"/>
	<path d="M240.3,266.5c0,0.2,0,0.4,0,0.6c0,0.1,0.1,0.2,0.1,0.3c0.1-0.2,0.3-0.4,0.2-0.5C240.6,266.8,240.4,266.7,240.3,266.5
		L240.3,266.5z"/>
	<path d="M242.6,271c0,0.2-0.1,0.5,0,0.7c0,0.1,0.3,0.2,0.4,0.3c0.1-0.1,0.2-0.3,0.1-0.3C242.9,271.5,242.7,271.3,242.6,271
		L242.6,271z"/>
	<path d="M219.7,120.2c0,0.1-0.1,0.2-0.1,0.3c0,0.1,0.1,0.2,0.1,0.2C219.8,120.6,219.7,120.4,219.7,120.2z"/>
	<path d="M203.1,129.4c0,0.2,0.1,0.4,0.1,0.7C203.1,129.8,203.1,129.6,203.1,129.4L203.1,129.4z"/>
	<path d="M185.5,488.2c-0.1,0.2-0.1,0.4-0.2,0.6c0,0,0.2,0.1,0.2,0.2c0.1-0.2,0.1-0.4,0.2-0.6C185.8,488.3,185.6,488.3,185.5,488.2z
		"/>
	<path d="M186.2,482.5c0,0.1-0.1,0.2-0.1,0.3c0,0.1,0.1,0.1,0.1,0.2C186.2,482.8,186.2,482.6,186.2,482.5z"/>
	<path d="M206.1,242.9c0.1,0,0.1,0,0.2,0.1c0-0.1,0.1-0.2,0.1-0.3c-0.1,0-0.2-0.1-0.3-0.1C206.1,242.7,206.1,242.8,206.1,242.9z"/>
	<path d="M240.6,370.8c0.4-0.4,0.7-0.8,0.2-1.2c-0.1,0-0.2,0-0.3,0C239.9,370.1,240.5,370.4,240.6,370.8z"/>
	<path d="M214.9,215.1c0-0.5-0.2-0.7-0.7-0.7l0.1-0.1C214.2,214.9,214.4,215.2,214.9,215.1L214.9,215.1z"/>
	<path d="M214.2,214.4c-0.1-0.2-0.2-0.4-0.3-0.5C213.5,214.4,213.9,214.3,214.2,214.4L214.2,214.4z"/>
	<polygon points="179.2,319.3 179.3,319.6 179.2,319.4 	"/>
	<path d="M215,215c0,0.1,0,0.2,0,0.3C215,215.2,215,215.2,215,215L215,215z"/>
	<path d="M200.2,82.8c0.1,0.1,0.1,0.1,0.2,0.2c0.1-0.1,0.2-0.2,0.2-0.2c0-0.1-0.1-0.1-0.2-0.2C200.3,82.6,200.2,82.7,200.2,82.8z"/>
	<polygon points="203,129.4 202.9,129.3 203.1,129.4 	"/>
	<path d="M221,388.7c0.2,0.3,0.5,0.6,0.7,0.9l-0.1,0.1C221.3,389.4,221.1,389.1,221,388.7L221,388.7z"/>
	<path d="M219.3,388.3c-0.2-0.3-0.5-0.5-0.7-0.8l0.1-0.1c0.2,0.3,0.5,0.5,0.7,0.8L219.3,388.3z"/>
	<path d="M218.6,387.5c-0.2-0.3-0.4-0.6-0.7-0.8l0.1-0.1C218.3,386.8,218.5,387.1,218.6,387.5L218.6,387.5z"/>
	<path d="M217.3,385.8c0.2,0.3,0.5,0.5,0.7,0.8l-0.1,0.1C217.7,386.4,217.5,386.1,217.3,385.8L217.3,385.8z"/>
	<path d="M217.2,385.9c-0.2-0.3-0.5-0.5-0.7-0.8l0.1-0.1C216.8,385.3,217.1,385.6,217.2,385.9L217.2,385.9z"/>
	<path d="M216.5,385.1c-0.2-0.3-0.5-0.5-0.7-0.8l0.1-0.1C216.1,384.5,216.3,384.8,216.5,385.1L216.5,385.1z"/>
	<path d="M215.1,383.6c0.3,0.2,0.5,0.5,0.8,0.7l-0.1,0.1C215.5,384.1,215.3,383.8,215.1,383.6L215.1,383.6z"/>
	<polygon points="215,383.6 214.8,383.5 215.1,383.6 	"/>
	<path d="M240.2,266.6c-0.1-0.1-0.2-0.2-0.2-0.4c0,0.1,0,0.2,0.1,0.2C240.1,266.5,240.2,266.5,240.2,266.6L240.2,266.6z"/>
	<path d="M242.5,271.1c-0.1-0.1-0.2-0.2-0.3-0.3c0,0.1,0,0.2,0,0.2C242.3,271,242.5,271,242.5,271.1L242.5,271.1z"/>
	<polygon points="200,432.1 199.8,431.9 200.1,432.1 	"/>
	<polygon points="203.7,363.5 203.9,363.3 203.8,363.6 	"/>
	<path d="M236.5,395.6c0.1-0.6-0.2-0.7-0.7-0.8l0.1-0.1C235.7,395.3,236.1,395.5,236.5,395.6L236.5,395.6z"/>
	<path d="M227.3,163.6c-0.3-0.8-0.6-1.2-1.2-0.9c-0.2,0.1-0.2,0.4-0.3,0.6C226.3,163.4,226.7,163.5,227.3,163.6z"/>
	<path d="M178.7,235.5c-0.8,1.5-0.5,2.8-0.2,4.5C179.6,237.8,179.6,237.8,178.7,235.5z"/>
	<path d="M559.4,383.6c-1,0-2,0-3,0.2c-7.6,1.4-15.3,0.9-23,0.2c-5.4-0.5-10.8-1.3-16.1-2.5c-0.6-0.1-1.2-0.1-1.9-0.1l0.1-0.1
		c0.2,0.2,0.4,0.7,0.7,0.7c2.7,0.7,5.5,1.5,8.3,1.9c8.3,1.4,16.6,2.4,25,1.8c3.1-0.2,6.1-1,9.1-1.5
		C558.9,384.2,559.1,383.8,559.4,383.6L559.4,383.6z"/>
	<path d="M526,391c0.2,0.2,0.4,0.6,0.7,0.7c3.7,1.2,7.5,1.8,11.3,2.3c1.7,0.2,3.4,0.5,5.2,0.6c7.3,0.3,14.6,1.1,21.9,0.8
		c0.4,0,0.7-0.1,1.6-0.2c-0.7-0.4-1.1-0.7-1.5-0.8c-0.7-0.1-1.5-0.1-2.2-0.2c-6.6-0.3-13.1-0.5-19.7-1c-4.8-0.4-9.6-1.1-14.4-1.7
		C527.9,391.4,526.9,391.2,526,391L526,391z"/>
	<path d="M555.6,380.6c-3.2,0-6.4,0-9.7,0.1c-6.5,0.1-12.9-0.4-19.3-1.3c-6.5-0.9-13.1-1.2-19.7-0.9c-0.2,0-0.5,0.2-1.3,0.5
		c1.9,0.1,3.2,0.3,4.5,0.2c3-0.1,5.9,0.1,8.9,0.4c7.7,0.9,15.5,2.1,23.3,2.2c4.1,0,8.2-0.4,12.2-0.6
		C555,381.1,555.3,380.8,555.6,380.6L555.6,380.6z"/>
	<path d="M511.7,338.9c0.4-0.1,0.8-0.1,1.1-0.2c4.8-2.5,9.9-3.7,15.2-4.7c3.9-0.7,7.8-0.8,11.6,0.3c0.5-0.7-0.1-1.1-0.4-1.2
		c-1.3-0.4-2.6-0.8-3.9-0.9c-3.4-0.3-6.7,0.3-9.9,1.1c-1.3,0.3-2.6,0.8-4,1c-0.5,0.1-1.1-0.4-1.6-0.6l0.1,0.1
		c-1.2,1.1-2.6,1.8-4.1,2.4C514.3,336.7,512.5,337.1,511.7,338.9L511.7,338.9z"/>
	<path d="M559.5,400.9c-1.6,0-3.2-0.1-4.8,0.1c-5.4,0.8-10.9,0.6-16.3,0.6c-1.2,0-2.4,0-3.7,0.2c7.8,1.5,15.7,1.9,23.5-0.3
		C558.6,401.4,559,401,559.5,400.9L559.5,400.9z"/>
	<path d="M497.1,358c3.4-0.5,7.9-2.8,16.6-8.4c-0.1-0.8-0.5-0.7-1-0.5c-0.4,0.1-0.7,0.2-1,0.4c-4.7,2.7-9.5,5.3-14.2,8
		C497.3,357.6,497.2,357.8,497.1,358z"/>
	<path d="M589.9,343.2c-1.7-1.9-2-2.1-9.1-4.5c-0.7,0.4-0.6,1-0.2,1.5C582.9,342.9,585.9,343.9,589.9,343.2z"/>
	<path d="M634,355.9c0-0.3,0.1-0.7,0.1-1c-0.3-1.7-0.6-3.3-0.9-5c-0.1-0.5-0.1-1-0.2-1.4c-0.1-0.6-0.4-1.2-1.1-1.3
		c-0.7-0.1-1,0.5-1.2,1.1c-0.7,2.8-0.4,5.3,2.1,7.2c0.3,0.2,0.4,0.6,0.5,1C633.6,356.3,633.8,356.1,634,355.9z"/>
	<path d="M520.6,349.3c1.9-1.1,3.2-2.8,4.4-4.4l0.1,0.1c-0.2-0.3-0.6-0.6-0.5-0.8c0.2-0.4,0.5-0.8,0.8-1.2c2.1-2,4.6-3.3,7.4-4.1
		c0.5-0.2,1-0.5,2.1-1c-4.7,0-7.7,2.3-10.6,4.5c-0.4,0.3-0.7,1-0.9,1.6c-0.5,1.8-1.4,3.4-2.7,4.8
		C520.6,348.8,520.7,349.1,520.6,349.3L520.6,349.3z"/>
	<path d="M516,317.6c-0.1-0.6,0-1.2-0.2-1.6c-0.6-1.3-1.8-2.1-3.1-2.5c-2.7-1-5.5-1.5-8.4-0.9c1.3,0.4,2.5,0.7,3.8,1.1
		C510.9,314.4,514,314.7,516,317.6z"/>
	<path d="M512.6,373.8c0.6,0.9,1.5,0.7,2.3,0.7c3.7,0.1,7.4,0.1,11,0.1c3.9,0,7.9,0,11.8,0l-0.1,0.1c-1-1-2.4-0.6-3.5-0.7
		c-6.3-0.1-12.7-0.1-19-0.2C514.2,374,513.4,373.9,512.6,373.8L512.6,373.8z"/>
	<path d="M556.4,374.7c1.3,1.7,3.2,2.9,4.4,4.8c-1.9,0.4-3.6,0.7-5.2,1.1l-0.1-0.1c1.3,0,2.7,0.1,4,0c1.8-0.2,3.4,0,4.8,1.3
		c0.2,0.2,0.7,0.2,1,0.3l-0.1,0.1c-0.3-0.6-0.7-1.2-1.1-2c0.4-0.2,0.8-0.4,1.2-0.6c-0.1-0.1-0.2-0.3-0.3-0.3
		c-1.8,0.2-3.4-0.2-4.6-1.7c-0.8-0.9-1.8-1.7-2.8-2.4c-0.3-0.3-0.9-0.3-1.3-0.4L556.4,374.7z"/>
	<path d="M633.7,310.4c0.6-3.5,1.5-6.6,3.3-9.3c-0.5-0.8-1-0.5-1.3-0.2c-2.5,2.5-3.4,5.6-2.7,9.1C633.1,310,633.2,310,633.7,310.4z"
		/>
	<path d="M632.1,401.5c0.7-1.2,0.2-2.1-0.3-2.8c-0.5-0.8-1.2-1.5-1.9-2.1c-0.1-0.1-0.5-0.1-0.7,0c-0.2,0.1-0.4,0.4-0.4,0.6
		C629.4,399,630.2,400.6,632.1,401.5z"/>
	<path d="M659.5,302.6c-0.2,0.2-0.4,0.3-0.3,0.4c0.4,3,0.7,6.1,1.1,9.3c0.9-2,1.1-2.9,0.8-5.3C660.9,305.4,660.7,303.8,659.5,302.6z
		"/>
	<path d="M592.3,273.8c-2.6,1-3.9,2.5-5.6,4.5c1.6,0,2.4-0.7,3.1-1.3C590.6,276.2,591.9,275.9,592.3,273.8z"/>
	<path d="M611.8,305c0.2,1,1,1.3,1.9,1.6c0.6,0.2,1.4-0.2,1.4-0.7c0-0.4-0.2-1-0.5-1.2C613.6,303.8,612.6,303.9,611.8,305z"/>
	<path d="M591.6,314.5c3.5,2.3,3.6,2.4,5.4,2.2C595.3,314.8,594.9,314.7,591.6,314.5z"/>
	<path d="M549.7,368.7c-1.3-1.3-2.6-2.5-3.8-3.7c0.8,2,1.6,2.8,3.9,3.6L549.7,368.7z"/>
	<path d="M530.2,323.5c-1.9,0-3.8,0-5.8,0c0,0.1,0,0.2,0,0.2c1.9,0,3.8,0,5.7,0C530.1,323.7,530.2,323.6,530.2,323.5z"/>
	<path d="M636.4,328.8c0.2,0.8,0.4,1.5,0.6,2.3c0.1,0.3,0.4,0.6,0.6,0.9c0.7-1.2,0.8-1.2,0.4-2.1
		C637.8,329.3,637.8,328.2,636.4,328.8z"/>
	<path d="M537.7,374.7c1.8,0.9,3.8,0.5,5.7,0.2C541.5,374.9,539.6,374.8,537.7,374.7L537.7,374.7z"/>
	<path d="M631.6,409.6c0.8,0.2,1.6,0.2,1.6-0.8c0.1-0.6-0.2-1.3-0.3-2.1c-1.7,0.7-1,2-1.2,3L631.6,409.6z"/>
	<path d="M633.9,320.7c0-1.2,0-2.1,0-3c-1-0.2-1.2,0.4-1.2,1C632.7,319.4,632.6,320.2,633.9,320.7z"/>
	<path d="M608.2,301.4c1.4,0,2.1,0,3,0C610,300,610,300,608.2,301.4z"/>
	<path d="M611.3,489.2c0.4-1.8,0.3-2.2-0.4-2.3c-0.1,0-0.2,0-0.3,0.1C610,487.5,610.1,487.9,611.3,489.2z"/>
	<path d="M568.4,384.4c-0.7-1.2-1.7-2-3.1-2.1l0.1-0.1C566.1,383.2,566.9,384.2,568.4,384.4L568.4,384.4z"/>
	<path d="M658.5,316.9c0-0.6,0.1-1.1,0.1-1.7c0-0.1-0.3-0.4-0.4-0.4c-0.2,0-0.5,0.2-0.5,0.3C657.4,315.9,657.4,316.6,658.5,316.9z"
		/>
	<path d="M508.9,373c0,0.6,0.4,0.8,0.9,0.8c0.9,0,1.8,0,2.8,0l-0.1,0.1C511.4,373,510,373.4,508.9,373L508.9,373z"/>
	<path d="M581.6,281.9c-0.8-0.6-1.3-0.4-1.8,0.1c-0.1,0.1-0.2,0.5-0.1,0.6c0.1,0.2,0.5,0.3,0.6,0.2
		C580.8,282.6,581.2,282.3,581.6,281.9z"/>
	<path d="M608.7,273.8c0.9-0.1,1.3-0.1,1.7-0.2c0.1,0,0.1-0.4,0.2-0.6c-0.2-0.1-0.5-0.2-0.6-0.2C609.6,273,609.4,273.3,608.7,273.8z
		"/>
	<path d="M656.7,319.3c0.2,0.3,0.3,0.4,0.5,0.6c0.2-0.3,0.4-0.5,0.5-0.8c0,0-0.2-0.3-0.2-0.3C657.2,319,657,319.2,656.7,319.3z"/>
	<path d="M553.5,371.7c-0.6-0.7-1.2-1.4-2.3-1.3l0.1-0.1c0.6,0.8,1.2,1.5,2.3,1.3L553.5,371.7z"/>
	<path d="M505.8,372.5c0.9,0.9,2,0.7,3.1,0.6l-0.1,0.1C507.8,372.5,506.8,372.5,505.8,372.5L505.8,372.5z"/>
	<path d="M612.4,494.2c-0.3-1-0.3-1.4-0.5-1.8c0-0.1-0.4-0.1-0.6-0.1c0,0.2-0.1,0.5,0,0.6C611.5,493.2,611.7,493.5,612.4,494.2z"/>
	<path d="M584.6,279.9c0.4-0.3,0.8-0.6,1.3-1C585,278.3,584.7,279.1,584.6,279.9z"/>
	<path d="M567.4,379c0.6,0,1.1-0.1,1.7-0.1c0-0.1,0-0.2,0-0.4c-0.6,0-1.1,0.1-1.7,0.1C567.4,378.8,567.4,378.9,567.4,379z"/>
	<path d="M521.4,339.7c0.5,0.5,0.9,1,1.4,1.4l-0.1,0.1C522.7,340.3,522.2,339.8,521.4,339.7L521.4,339.7z"/>
	<path d="M515.5,381.4c-0.5-0.2-1-0.4-1.9-0.8C514.3,381.6,515,381.2,515.5,381.4L515.5,381.4z"/>
	<path d="M559.3,383.5c0.6,0,1.1,0,1.9,0C560.4,382.7,559.9,383.1,559.3,383.5L559.3,383.5z"/>
	<path d="M632.8,402.9c-0.2,0.5-0.4,0.8-0.3,1.1c0,0.2,0.3,0.4,0.5,0.6c0.1-0.2,0.3-0.4,0.3-0.6C633.2,403.7,633,403.4,632.8,402.9z
		"/>
	<path d="M520.7,349.4c-0.8-0.1-1,0.5-1.5,1.2C520.5,350.6,520.6,350,520.7,349.4L520.7,349.4z"/>
	<path d="M615.9,310.7c0-0.1,0.1-0.2,0.1-0.4c0.1-0.5,0.2-1-0.5-1.2c-0.1,0-0.2,0.1-0.3,0.1c0.2,0.4,0.3,0.8,0.5,1.1
		c0,0.1,0.2,0.1,0.3,0.2L615.9,310.7z"/>
	<path d="M573.5,391.9c-0.1-0.3-0.1-0.6-0.1-0.3C573.3,391.4,573.4,391.6,573.5,391.9L573.5,391.9z"/>
	<path d="M525.9,391.1c-0.3-0.1-0.5-0.2-0.3-0.1C525.4,390.9,525.7,390.9,525.9,391.1L525.9,391.1z"/>
	<path d="M511.5,380.3c0.1,0,0.2,0,0.3,0c0,0,0.1-0.1,0.1-0.1c-0.1,0-0.2,0-0.3,0C511.6,380.2,511.5,380.3,511.5,380.3z"/>
	<polygon points="571.6,378 571.2,378 571.2,378.1 	"/>
	<path d="M571.4,387.3c0.2,0.5,0.4,1,0.6,1.5l-0.1,0.1c-0.2-0.5-0.4-1-0.6-1.5L571.4,387.3z"/>
	<path d="M635,362.8c0,0.1,0.1,0.2,0.1,0.2c0-0.1,0.1-0.2,0.1-0.3c0-0.1-0.1-0.2-0.1-0.2C635.1,362.6,635,362.7,635,362.8z"/>
	<path d="M527.3,343.4c-0.5,0.2-1,0.4-1.5,0.6l-0.1-0.1C526.3,343.8,526.8,343.6,527.3,343.4L527.3,343.4z"/>
	<path d="M576.8,284.4c0.2-0.1,0.3-0.2,0.5-0.4c-0.2-0.1-0.3-0.3-0.5-0.3c-0.2,0-0.3,0.2-0.5,0.3
		C576.4,284.2,576.6,284.3,576.8,284.4z"/>
	<path d="M587.1,313.9c-0.1,0-0.2-0.1-0.3-0.1c0,0.1-0.1,0.3-0.1,0.4c0.1,0,0.2,0,0.3-0.1C587.1,314.1,587.1,314,587.1,313.9z"/>
	<path d="M581.5,312.4c0,0.1,0,0.2,0,0.2c0.1,0,0.2,0.1,0.3,0.1c0.1,0,0.2-0.1,0.3-0.2C581.9,312.4,581.7,312.4,581.5,312.4z"/>
	<path d="M634.4,360.4c0.1-1,0.1-1.3,0.1-1.6c-0.2,0-0.3,0-0.5,0C634.1,359.1,634.2,359.4,634.4,360.4z"/>
	<polygon points="520.5,338.9 520.5,338.7 520.6,338.8 	"/>
	<path d="M521.3,339.8c-0.3-0.3-0.5-0.6-0.8-0.9l0.1-0.1C520.9,339.1,521.1,339.4,521.3,339.8L521.3,339.8z"/>
	<path d="M511.8,339c-0.2,0.1-0.3,0.2-0.5,0.3c0.1,0,0.2,0,0.2,0C511.6,339.1,511.6,339,511.8,339L511.8,339z"/>
	<path d="M522.8,341.1C523,341.4,522.7,341.1,522.8,341.1L522.8,341.1z"/>
	<path d="M614.5,327.1c0.1-0.5-0.1-0.8-0.7-0.8l0.1-0.1C614.1,326.5,614.3,326.7,614.5,327.1L614.5,327.1z"/>
	<path d="M614.5,327c0.1,0.1,0.2,0.2,0.2,0.2C614.7,327.2,614.6,327.1,614.5,327L614.5,327z"/>
	<path d="M572.7,333.8c-0.1-0.2-0.2-0.3-0.2-0.5c0,0.1,0,0.2,0,0.2C572.6,333.6,572.7,333.6,572.7,333.8L572.7,333.8z"/>
	<path d="M519.8,333.6c0.6,0,0.8-0.2,0.8-0.8l0.1,0.1C520.4,333.1,520.1,333.4,519.8,333.6L519.8,333.6z"/>
	<path d="M572.8,333.7c0.1,0.1,0.3,0.2,0.4,0.3c-0.1-0.1-0.1-0.2-0.2-0.2C572.9,333.7,572.8,333.8,572.8,333.7L572.8,333.7z"/>
	<path d="M572.1,388.8C572.4,389.2,572,388.8,572.1,388.8L572.1,388.8z"/>
	<path d="M553.6,371.6c-0.1,0.6,0.2,0.8,0.7,0.8l-0.1,0.1c-0.2-0.3-0.5-0.5-0.7-0.8L553.6,371.6z"/>
	<path d="M571.3,387.4c-0.3-0.3-0.5-0.5-0.8-0.8l0.1-0.1c0,0.5,0.3,0.8,0.8,0.7L571.3,387.4z"/>
	<path d="M569.9,385.8c-0.1,0.6,0.2,0.8,0.8,0.7l-0.1,0.1C570.3,386.4,570.1,386.1,569.9,385.8L569.9,385.8z"/>
	<path d="M569.2,385.1c-0.1,0.6,0.2,0.8,0.7,0.7l-0.1,0.1C569.8,385.4,569.6,385.1,569.2,385.1L569.2,385.1z"/>
	<path d="M568.4,384.3c-0.1,0.6,0.2,0.8,0.7,0.8l-0.1,0.1C568.8,384.9,568.6,384.6,568.4,384.3L568.4,384.3z"/>
	<polygon points="505.7,372.6 505.6,372.3 505.8,372.5 	"/>
	<path d="M554.8,373.2c-0.2-0.3-0.5-0.5-0.7-0.8l0.1-0.1C554.5,372.6,554.7,372.9,554.8,373.2L554.8,373.2z"/>
	<path d="M555.6,374c0.1-0.5-0.2-0.8-0.7-0.8l0.1-0.1C555.2,373.4,555.4,373.7,555.6,374L555.6,374z"/>
	<path d="M556.3,374.8c0.1-0.6-0.2-0.8-0.8-0.8l0.1-0.1c0.3,0.3,0.5,0.5,0.8,0.8L556.3,374.8z"/>
	<polygon points="527.3,343.4 527.5,343.2 527.3,343.4 	"/>
	<path d="M525.9,344.1c-0.2,0.3-0.5,0.6-0.7,0.9l-0.1-0.1c0.2-0.3,0.5-0.6,0.7-0.9L525.9,344.1z"/>
	<path d="M515.5,308.3c0.1,0.1,0.2,0.3,0.3,0.4c0-0.1,0-0.2-0.1-0.2C515.6,308.4,515.5,308.4,515.5,308.3L515.5,308.3z"/>
	<path d="M515.4,308.4c-0.1-0.1-0.2-0.2-0.3-0.4c0,0.1,0,0.1,0.1,0.2C515.3,308.2,515.4,308.2,515.4,308.4L515.4,308.4z"/>
	<polygon points="559.4,400.8 559.5,400.7 559.5,400.9 	"/>
	<path d="M549.8,368.6c-0.1,0.6,0.2,0.8,0.7,0.8l-0.1,0.1C550.2,369.2,550,369,549.8,368.6L549.8,368.6z"/>
	<path d="M551.1,370.3c0.1-0.6-0.2-0.8-0.7-0.8l0.1-0.1C550.7,369.7,551,370,551.1,370.3L551.1,370.3z"/>
	<path d="M588.6,412.5c0.3,0.7,0.3,0.9,0.4,0.9c2.1,1.3,4.2,2.7,6.3,3.9c0.5,0.3,1.2,0.5,1.7,0.5c0.4,0,0.9-0.4,1.1-0.7
		c0.2-0.2,0.1-0.7-0.1-1c-0.2-0.4-0.6-0.8-1-1C594.6,413.6,591.8,413.1,588.6,412.5z"/>
	<path d="M600.6,457c1.3-3.8,1.5-6.9,0.5-10.4c-0.6,0.6-1,0.8-1.1,1.1C599.6,449.6,599.8,453.3,600.6,457z"/>
	<path d="M575.3,552.6c0.9-0.3,1-0.9,0.8-1.5c-0.6-1.6-2-2.5-3.5-3c-0.1,0.2-0.3,0.5-0.3,0.6C573.2,550.1,574,551.7,575.3,552.6z"/>
	<path d="M618.6,434.4c-1.3,1.6-1.2,3.2-0.7,4.9c1.2,0,1.3-0.8,1.4-1.5C619.6,436.2,619.6,436.1,618.6,434.4z"/>
	<path d="M619.2,403.1c-0.7,1.9,1.2,2.9,1.3,4.4C620.9,405.1,620.8,404.7,619.2,403.1z"/>
	<path d="M584.3,503.2c1.1-0.3,1.5-1.1,1.7-2.1c0-0.2-0.2-0.5-0.4-0.6c-0.2-0.1-0.5-0.1-0.6,0C584.1,501.2,583.8,502,584.3,503.2z"
		/>
	<path d="M585.1,411.4c0,1.1,0.8,1.4,1.7,1.5c0.3,0,0.7-0.2,0.8-0.5c0.1-0.2,0-0.7-0.2-0.9C586.7,411,585.9,411,585.1,411.4z"/>
	<path d="M586.9,496.6c1.5,0.5,1.8-0.3,2.1-0.9c0.1-0.1-0.1-0.5-0.3-0.6c-0.1-0.1-0.5-0.2-0.6-0.1
		C587.7,495.5,587.4,495.9,586.9,496.6z"/>
	<path d="M591.6,488c-0.3,0.8-0.5,1.6-0.9,2.6C592.4,490,592.4,490,591.6,488z"/>
	<path d="M572.4,543.5c-1.3,0.7-1,1.7-1.1,2.5c0.2,0.1,0.3,0.2,0.4,0.2C572.4,545.6,572.9,544.8,572.4,543.5z"/>
	<path d="M598.4,462.8c-0.1,0.9-0.1,1.6-0.2,2.7C599.8,463.5,599.8,463.5,598.4,462.8z"/>
	<path d="M594.5,430.2c0.1,0.2,0.2,0.4,0.3,0.6c0.1,0.1,0.4,0.2,0.6,0.2c0.1-0.2,0.2-0.4,0.2-0.6c0-0.2-0.2-0.4-0.3-0.6
		c-0.1-0.1-0.4-0.2-0.6-0.3C594.6,429.8,594.6,430,594.5,430.2z"/>
	<path d="M617.1,430.4c-0.7,0.9-0.7,1.7-0.1,2.7C617.6,431.9,617.6,431.9,617.1,430.4z"/>
	<path d="M596.9,470c0.2-0.4,0.5-0.8,0.7-1.2c0.1-0.2-0.1-0.4-0.1-0.7c-0.3,0.1-0.7,0.2-0.8,0.4C596.5,469,596.2,469.5,596.9,470z"
		/>
	<path d="M593.6,475c0.2-0.1,0.3-0.2,0.5-0.3c-0.1-0.1-0.3-0.3-0.5-0.4c0,0-0.3,0.1-0.2,0.2C593.4,474.7,593.5,474.8,593.6,475z"/>
	<path d="M591.2,426.4c-0.2,1.1-0.2,1.1,1.1,1.9c-0.1-0.6-0.1-1.1-0.2-1.4C591.9,426.7,591.5,426.6,591.2,426.4z"/>
	<path d="M581.8,409.4c-0.4-0.4-0.6-0.8-0.8-0.9c-0.3-0.1-0.8-0.2-0.9,0c-0.4,0.6,0.3,0.6,0.6,0.8
		C580.8,409.4,581.2,409.4,581.8,409.4z"/>
	<path d="M573,407.3c0.1-0.1,0.2-0.2,0.3-0.2c-0.2-0.1-0.4-0.2-0.6-0.2c-0.1,0-0.2,0.1-0.2,0.2C572.6,407.2,572.9,407.3,573,407.3z"
		/>
	<path d="M598.5,432.4c-0.1,0.2-0.1,0.4-0.1,0.6c0,0.1,0.1,0.1,0.2,0.2c0.1-0.2,0.1-0.4,0.2-0.6
		C598.8,432.5,598.6,432.5,598.5,432.4z"/>
	<polygon points="584.9,422.2 584.9,422.5 584.8,422.3 	"/>
	<path d="M685.5,247.9c-0.3-0.3-0.5-0.5-0.8-0.8c-0.3,0.2-0.7,0.2-1,0.5c-1.7,1.8-3.7,3.3-6.3,3.8c0.2,0.9,0.2,1.5,0.4,2.1
		c0.2,0.6,0.4,1.1,0.6,1.7c1.2-0.7,0.1-1.7,0.8-2.6c0.3-0.1,0.7-0.2,1.1-0.4c1.2,1.4,0.2,2.9,0.5,4.4c1.7-1.6,1.4-3.7,1.6-5.5
		c0.6-0.5,1.2-1,1.9-1.6c0.4,1,0.7,1.7,1.1,2.6c-0.9,1-1.9,1.9-2.6,3.1c-0.6,1-0.9,2.2-1.4,3.5c0.8,0.5,1.6,1,2.5,1.4
		c0.7,0.4,1.5,0.2,2-0.4c0.5-0.5,0.4-1.4-0.2-2c-0.2-0.3-0.6-0.4-0.8-0.7c-0.5-0.6-0.8-1.3-0.4-2c0.5-0.8,1.2-1.3,2.2-0.7
		c0.1,0.1,0.4-0.1,0.7-0.2C686.8,252.1,686.1,250,685.5,247.9z"/>
	<path d="M722.5,261.3c1.8-1.2,2-1.8,0.9-2.7c-2.8-2.1-5.8-3.7-9.3-4.2c-1-0.2-2.1,0.3-3.1,0.5c-0.2,1.1,0.4,1.3,1,1.5
		c0.6,0.2,1.2,0.3,1.8,0.2c1.7-0.1,3.1,0.5,4.4,1.6C719.5,259.2,720.9,260.2,722.5,261.3z"/>
	<path d="M712.5,261.3c2,1.2,3.3,2.2,4.8,2.9c0.5,0.2,1.2,0,1.8,0c0.3-0.5,0.6-1,0.9-1.6c0.1-0.2,0.1-0.4,0.2-0.8
		C718,260.7,715.7,260.3,712.5,261.3z"/>
	<path d="M682.4,270c0.7,2.3,0.9,4.7,2.6,6.7c0.8-1.3-0.1-2.1-0.3-3c-0.4-1.3-0.7-2.5-0.1-3.9c0.4-0.9,0.4-2.1,0-3.4
		C683,267.2,683.1,268.9,682.4,270z"/>
	<path d="M668.2,262.7c1.9-0.2,2.9-0.5,3.7-1.6C670.3,260.2,670.3,260.2,668.2,262.7z"/>
	<path d="M680.2,278.9c1.7-0.9,2-1.9,2-3.1C680.7,276.4,681,277.6,680.2,278.9z"/>
	<path d="M679.2,280.3c-0.1,0.3-0.1,0.6-0.2,0.9c0.2,0,0.4,0.1,0.6,0c0.2-0.1,0.3-0.4,0.3-0.6C679.8,280.5,679.5,280.4,679.2,280.3z
		"/>
	<path d="M695,266.7c0-1.1,0.1-1.5,0-1.8c-0.1-0.2-0.5-0.2-0.8-0.3c0,0.2-0.1,0.4,0,0.6C694.3,265.6,694.5,265.9,695,266.7z"/>
	<path d="M664.5,262.8c0.4,0.7,0.9,1.1,1.8,0.1c-0.8,0-1.4,0-1.9,0L664.5,262.8z"/>
	<path d="M696.6,268.1c-0.2,0.2-0.3,0.4-0.5,0.5c0.3,0.2,0.5,0.5,0.8,0.7c0.1-0.1,0.2-0.2,0.2-0.3
		C697,268.7,696.8,268.4,696.6,268.1z"/>
	<path d="M676,285.3c0.2,0.2,0.4,0.3,0.5,0.4c0.2-0.3,0.4-0.5,0.5-0.8c0,0-0.2-0.3-0.2-0.2C676.6,284.8,676.3,285,676,285.3z"/>
	<path d="M660.1,264.3c0.1,0.3,0.2,0.7,0.3,1c0.1,0.1,0.4,0.1,0.5,0.1c0-0.2,0.1-0.5,0-0.6c-0.3-0.2-0.6-0.3-0.9-0.4L660.1,264.3z"
		/>
	<path d="M609.7,508.5c0.7,0.6,1.1,1.3,1.6,1.3c0.6,0.1,1-0.6,1-1.2c0-0.8-0.6-1.5-1.3-1.3C610.6,507.5,610.3,508,609.7,508.5z"/>
	<path d="M599.8,538.2c0.8-0.7,1.3-1.1,1.6-1.5c0.1-0.2,0-0.8-0.2-0.9c-0.2-0.2-0.7-0.3-1-0.2C599.4,535.9,599.3,536.2,599.8,538.2z
		"/>
	<path d="M610.2,513.3c0.3,0.3,0.5,0.6,0.6,0.6c0.4-0.2,0.8-0.4,1.1-0.8c0.2-0.2,0.1-0.6,0-0.9c0-0.1-0.5-0.3-0.6-0.2
		C610.9,512.4,610.5,512.9,610.2,513.3z"/>
	<path d="M597.5,539.7c0.3,0.1,0.5,0.2,0.7,0.3c0.1-0.3,0.3-0.5,0.4-0.8c0,0-0.2-0.2-0.3-0.2C598,539.2,597.8,539.4,597.5,539.7z"/>
	<path d="M610.1,517.6c0.1,0.3,0.2,0.5,0.3,0.7c0.2-0.2,0.5-0.4,0.7-0.6c0-0.1-0.2-0.5-0.2-0.5C610.6,517.3,610.3,517.4,610.1,517.6
		z"/>
	<polygon points="610.3,539.4 610.3,539.6 610.2,539.5 	"/>
	<polygon points="610.2,539.5 610,539.4 610.3,539.4 	"/>
</g>
</svg>
