<?xml version="1.0" encoding="utf-8"?>
<!-- Generator: Adobe Illustrator 19.1.0, SVG Export Plug-In . SVG Version: 6.00 Build 0)  -->
<svg version="1.2" baseProfile="tiny" id="Layer_2" xmlns="http://www.w3.org/2000/svg" xmlns:xlink="http://www.w3.org/1999/xlink"
	 x="0px" y="0px" width="900px" height="600px" viewBox="144 97 900 600" xml:space="preserve">
<g>
	<path d="M708.3,112.4c-1.5,0.7-1.9,2.2-2.4,3.4c-2.4,0.8-3.9-0.6-5.6-1.2c-2.9,1-5.8,1.6-9.3,1c-1.1,0.5-2.5,1.5-4.4,1.6
		c1.6-2.7,1.7-2.2,5-2.8c2.2-0.4,4.8,0.3,6.7-1.4c1.6,1,3.2,1.2,4.8,0.4c0-1.2-1.1-1.1-1.8-1.3c-6.8-1.2-13,0.5-18.4,4.7
		c-0.8,0.6-1.4,1.3-1.8,2.2c-1.7,4.3-2.7,8.6-0.8,13.1c1.2,2.8,2.7,5.6,3.3,8.6c0.2,0.7,0.6,1.6,1.5,2c1.6-1.8,1.8-4.7,4.5-5.7
		c-4.5-3.6-7.5-9.5-2.3-16.4c2.4-1.2,5.1-1.2,7.8-1.5c0.1,1-0.7,1.2-1,1.8c-2.1-0.3-3.9,0.5-5.7,1c-2.8,4.5-2.1,9.3,1.9,13.1
		c1-0.9,1.2-2.3,1.8-3.4c0.6-1.1,1.2-2.3,1.7-3.4c-0.5-2.6-1.2-5,0.2-7.4c0.3,0,0.7,0.1,1.1,0.1c0.5,3.6,0.3,7.1-1.2,10.5
		c-1.8,4-3.5,8.1-5.9,11.8c-0.5,0.8-0.9,1.7-1.3,2.5c-3.9,10.2-7.5,20.6-10.4,31.1c-0.8,3-0.7,6.1-1,9.2c-0.5,5.3-1.3,10.6-1.4,16
		c0,1.6-0.4,3-1,4.5c-1.1,2.8-1.4,5.7-1.4,8.7c0,4.1-0.7,8.1-1.4,12c-1.4,7.6-1.2,15.2-0.5,22.8c0.3,4,1.1,8-0.5,12
		c-0.3,0.8-0.2,1.9,0,2.8c1.1,4.6,1.4,9.4,2.6,14c1,4,1.5,8.1,1.6,12.3c0.1,5.1,0.9,10.1,1.2,15.3c4.2-5.5,9.5-10,13-15.9
		c0.4-0.6,0.8-1.3,0.9-1.9c1.8-8.3,6.2-15.7,8.9-23.9c-1.7-1.7-3.5-3.5-5-5.6c-1.4-1.9-2.2-3.9-2.2-6.2c0-1.9-0.1-3.8,0-5.7
		c0-1.3,0.1-2.6-0.4-3.2c1.6-13.4,1.7-26.3,1.6-39c0.8-1,1.4-0.1,2.2-0.2c0.6-4.4,3.3-7.5,6.3-10.1c0.5-0.9-0.1-1.6-0.1-2.2
		c0-4.4,1.6-6.1,5.2-7c4.6-1.2,8.8-0.5,11.2,3.7c5.8,0.2,10.8,1.4,14.3,6.2c1.9,2.6,3.2,5.4,3.9,8.6c1,4.8,2.6,9.4,2.4,14.4
		c-0.1,1.4,0.9,2.2,1.6,3.1c1.4,1.8,1.7,3.8,1,5.7c-0.9,2.4-1.3,4.8-1.9,7.2c-0.4,1.7-1,3.2-2.5,4c-0.7,3.8-1.8,7.2-3.1,10.7
		c-2,5.2-1.2,10.5,0.7,15.7c0.5,1.4,1.8,1.9,2.9,2.5c4.3,2,8.4,4.5,12.9,6c2.4,0.7,4.6,1.9,6.9,3c0.8,0.4,1.5,1,2.3,0.8
		c2.6-0.8,4.3,0.9,6,2.3c4,3.2,7,7.2,8.6,12c2.6,7.7,5.7,15.2,7.6,23c0.2,0.7,0.4,1.4,0.7,2c4.2,7.5,7,15.6,10.4,23.5
		c1.7,3.9,3.9,7.3,6.7,10.5c3.6,4.1,7,8.5,10.2,12.9c5.3,7.4,8.8,15.8,12.1,24.2c2.2,5.7,4.6,11.3,6.6,17c0.7,2,2.4,3,3.2,4.8
		c3.7,8,7.7,15.8,11.9,24.1c-1.9,3.8-3,8.2-3.5,12.9c-0.3,3.2-2.8,5.3-5.4,6.7c-2.8,1.5-5.2,3.4-7.8,5c-0.8-0.7-0.1-1.2,0.3-1.7
		c1.3-1.6,3.1-2.5,4.8-3.7c3-2.2,5.1-4.8,4.6-9c-0.3-2.6,0.3-5.2,0.8-7.8c0.2-1,0.4-2.1,2-2.4c-0.8,4.4-1.7,8.5-1,12.8
		c0.2-4.5,1.9-8.5,3.6-12.5c-1.7-2.9-3.3-5.5-4.7-8.3c-2.2-4.4-4.3-8.9-6.4-13.4c-0.8-1.6-1.6-3.2-2.7-4.6c-1.4-1.8-2.4-3.8-3.3-5.9
		c-3-6.4-5.5-12.9-8-19.5c-3-7.6-6.8-14.7-12.3-20.8c-2.5-2.7-4.6-5.8-6.8-8.7c-4-5.2-6.2-11.2-8.7-17.1c-1.6-3.7-3-7.5-4.5-11.3
		c-0.5-1.3-1-2.7-1.9-3.8c-2.2-2.8-3.2-6.1-4.3-9.4c-2-6.3-3.8-12.8-6.2-19c-2.3-5.9-6-10.9-12.8-12.3c-1-0.2-1.7-0.7-2.5-1.3
		c-2.9-2.1-6.4-3-10.4-4.3c2.7,13.5,5.5,26.3,12.3,37.7c2-0.1,3.4-1.3,5-0.1c-0.7,1.3-2.8,1-3.2,3.3c0.3,1.7,0.4,4.2-0.2,6.9
		c0.9,0.8,1.8,1.6,2,3c0.4,3,1,5.9,3.5,8.3c1.4,1.4,2,4,3.1,6c1.4,2.7,3,5.1,4.8,7.5c1.7,2.4,3.2,4.8,4.3,7.7
		c1.3,3.6,3.5,7,5.4,10.4c0.6,1.1,1.2,2.1,1.7,3.2c3,6.5,7.1,12,12.1,17.1c6.9,7.1,13.5,14.5,19.5,22.3c1.4,1.8,2.6,3.8,4,5.9
		c0.9-1.6-0.9-2.6-0.1-4.2c1.8,1.7,2.2,3.6,1.6,5.8c-0.5,2.2-1.1,4.4-1.4,6.6c-0.5,3.8,0.3,7.3,1.5,10.8c0.9,2.5,1.9,4.9,0.9,7.8
		c2.5,1.9,1.5,5.5,3.8,8.1c1.6-2.9,2.5-5.2,1.3-8.1c-0.9-2.2-1.3-4.6-0.6-7.1c0.8,0.4,0.7,1.1,0.8,1.7c0.2,1.3,0.2,2.7,0.7,3.8
		c1.1,2.7,2.2,5.2,0.4,8.1c3-2.6,2.8-5.3-0.3-14.3c1.9,1,2.6,1.9,3.1,4c0.2,0.9,0.3,1.9,0.5,2.8c1.4,5.3,0.4,9.9-4,13.4
		c-1.6,1.3-2.2,3.3-3.1,5.2c-0.8-1.8-0.8-1.8,0.2-4.2c-0.9-1.2-1.2-2.6-0.2-4c-0.2-1-1.2-0.9-1.7-1.9c0.1-2.1-0.7-4.5-1.8-6.7
		c-0.2-0.4-0.6-0.9-0.5-1.3c0.8-2.8-0.7-5.1-1.5-7.5c-1.7-5.3-2.1-10.5-0.2-15.8c-2.9-4-5.4-8.2-8.6-11.8
		c-5.6-6.3-11.1-12.7-17-18.9c-7.3-7.6-12.8-16.2-16.4-26.1c-1.6-4.5-3.2-9.2-6.9-12.7c-1.7-1.6-3.1-3.7-3.9-6
		c-1.7-4.8-5.3-8.4-7.3-13c-1.2,2.8-3.6,4.6-5.1,7c0.8,3.4-1.2,6.4-1.6,9.6c0.2,1,1.5,1.2,1.7,2.6c-0.5,1.2-0.9,2.9-1.7,4.3
		c-0.8,1.3-1,2.6-1.3,4c-1,6.1-2.4,12.1-3.2,18.3c-0.7,5.8,1,11,3.3,16.2c0.6,1.4,1.3,2.8,2.2,4.1c4.4,7.1,7.1,14.7,7.5,23.2
		c0.3,6.7,1.9,13.2,3.2,19.7c2.9,14.9,4,29.9,3,45.1c-0.6,9.3-1.3,18.5-1.9,27.8c-0.1,1.3-0.1,2.6-0.3,3.9
		c-0.9,5.5-0.7,10.9,0.6,16.3c0.6,2.3,0.7,4.7,0.7,7.1c-0.1,5.1,0.2,10.2,2.7,14.9c2.1,4.1,3.2,8.5,3.8,13c0.4,2.5-0.1,5.2,0.1,7.7
		c0.9,11-0.7,21.9-2.7,32.7c-0.5,2.4-0.7,5-0.7,7.5c0.1,8.1-1,16.2-1.5,24.2c-0.1,1.2-0.3,2.4,0.1,3.8c2.8,0.7,3.9,3,4.6,5.6
		c0.6,2.4,2.5,4,3.8,6c0.7,1.2,1.5,2.4,2,3.7c0.4,1,0.7,2.1,1.4,2.9c3,3.4,4.7,7.6,6.8,11.5c0.4,0.8,0.5,1.6,0.5,2.4
		c-0.1,2.7-0.1,5.5-1.2,8.1c0.3,0.5,1,0.7,0.8,1.7c-9.2,4.4-18.4,3.7-27.5,0c-0.3-1,0.2-1.1,0.7-1.6c-2.8-2.2-3.8-4.9-1.9-8.3
		c-3.7-1.9-6.1-4.7-8.1-8.1c-0.1-3.7-1.4-7.8,1.8-10.9c0-4.9-1.3-9.8,3-13.6c-0.9-5.8-1.8-11.5-2.6-17.3c-0.5-3.5-0.9-7.1-1.2-10.6
		c-0.6-6.8-1.8-13.4-4.9-19.6c-2.4-4.7-3.3-10-3.3-15.2c-0.1-5.6-1.2-11.1-0.9-16.8c0.1-2.1-1-4.1-1.6-6.2c-2.6-9-5.7-17.8-6-27.4
		c-0.2-6.8-2.2-13.4-4.6-19.8c-3.9-10.5-7.9-21-10.4-31.9c-1.3-5.5-2-11-3-16.5c-0.4-1.8-1-3.4-1.9-4.8c-1.4-0.1-1.7,0.7-1.9,1.8
		c-2,10.5-5.5,20.7-8.5,31c-0.5,1.8-1.2,3.6-2.2,5.3c-3.6,6.1-5,12.8-6.3,19.6c-0.8,4.2-1.8,8.3-1.7,12.7c0,3.8-1.2,7.5-2.5,11.1
		c-1.2,3.3-2.2,6.5-3.4,9.8c-1,2.7-1.9,5.4-3.9,7.4c-0.2,1-0.3,1.8,0,2.6c0.6,1.7,0.7,3.5,0.7,5.3c0,10.5-0.6,21-4.1,31
		c-3.8,10.7-5.5,21.9-7.3,33.1c-0.3,1.9-0.6,3.8-1,5.6c-1.1,5.1-2.5,10.1-2.3,15.3c0.1,1.3-0.2,2.3-1.5,2.9c-3.4-1.9-2.2-6-4.5-8.9
		c-1.9-0.3-4.1-0.6-6.5-0.9c-1,0.5-2.1,1.1-2.2,2.4c-0.2,2.6-1.8,4.3-3.8,6.6c2.9-0.3,5.3-0.4,7.6,0.2c2.5,0.7,3.2,1.7,2.8,4.4
		c-1.9-0.7-3.7-1.7-5.6-2c-1.9-0.4-4.1,0.4-5.6-1.6c-2.2,1.4-3.7,3.3-4.4,5.9c-0.8,2.9-2.8,5.2-4.5,7.6c-2.1,2.9-4.2,5.8-6.3,8.7
		c-0.7,0.9-1,1.9-1.2,3c-0.2,1.5,0.2,2.6,1.9,2.8l-0.1-0.1c1.5,2,3.7,3.1,6,3.4c3.9,0.5,7.8,0.8,11.8,0.5c3.7-0.3,6.7-1.4,8.8-5.4
		c0-1.2,0-3,0-4.5c1.1-1.5,2.5-2,3.9-2.3c2.6-0.5,4.4-1.8,5.6-4.3c0.7-1.5,2.3-2.7,2.4-4.7c-2-6.5-4.6-12.9-3.3-20.1
		c1.3,0.2,1.2,1.1,1.3,1.9c0.6,6.1,1.9,12,3.9,17.7c0.3,0.9,0.7,1.9,0.1,2.8c-2.2,3.6-4.2,7.4-8.7,8.9c-1.2,0.4-2.4-0.7-3.5,0.6
		c0.5,2.3,0.5,4.6-1.1,6.8c-1.2,1.6-2.5,2.9-4.4,3.4c-5.8,1.7-11.8,1.9-17.7,0.8c-2.8-0.5-4.9-2.8-7.4-4.1c-0.9-0.5-1.2-1.7-1.3-2.8
		c-0.2-2.3,0.4-4.3,1.9-6c2.5-2.9,4.3-6.2,6.7-9.2c1.5-1.9,2.6-4.3,3.2-6.7c0.7-2.4,2-4.3,4.1-5.7c2.8-1.9,4.6-4.4,4.8-7.9
		c0.1-1.9,1.3-2.9,3-3.7c-0.6-8.6,0.8-17-0.8-25.4c-1-5.7,0.3-11.4-0.6-17.1c-0.7-4.8-0.6-9.7-0.8-14.6c-0.5-10.7,1.4-21.1,4.4-31.3
		c1.1-3.8,2.1-7.6,2.3-11.5c0.2-3.6-0.3-7.3-0.6-11c-0.3-3.6-1.2-7.1-1-10.6c0.5-8.5-1.3-16.9-0.5-25.4c0.7-6.8,0.5-13.6,0.1-20.4
		c-0.7-11.3,0.8-22.4,2.6-33.4c0.4-2.6,1.5-5,2.3-7.5c2.8-8.2,5.2-16.5,6.9-25c0.8-3.8,2.1-7.6,3.8-11.1c0.6-1.2,1.1-2.4,1.7-3.5
		c3.8-6.6,4.6-13.6,3.3-21c-1-5.7-2-11.5-3-17.2c-0.3-1.6-0.8-3.1,0.2-4.8c0.5-0.9,0.2-2.4-0.1-3.5c-0.9-4.1-1.4-8.2-1.3-12.4
		c0.1-3.4-0.4-6.7-0.7-10c-0.5-5.7-0.6-11.4-0.4-17.1c0.2-4.6-0.6-9.3-1.3-13.8c-0.9-5.9-2-11.7-3.2-17.5
		c-1.9-9.3-1.2-18.6-0.8-27.9c0.2-4.5,0.4-9,0.9-13.5c0.9-8.1,2.1-16,4-23.9c0.5-1.9,0.5-4,0.5-6c0.1-8.2,1.2-16.4,2.1-24.5
		c0.6-4.8,2.2-9.5,3.9-14.1c1.8-5,3.8-10,5.8-15.2c-1.4-3.4-2.8-7.1-4.3-10.7c-1.8-4.3-2.8-8.6-1.5-13.2c1.3-4.3,3.7-7.7,7.9-9.6
		c5-2.2,10.1-3.5,15.6-2c1.4-0.2,1.2-2.1,3.4-2.4c0.8,0.1,2.3,0.3,4.5,0.6c-1.8,1.6-3.3,0.8-4.7,0.9c-0.8,0.3-1,1-1.2,1.7
		c0.3,1,1,1.5,2.1,1.6c0.8,0,1.7-1.3,2.5,0L708.3,112.4z M702.5,199c0.1,0.5,0.1,1,0.2,1.4c-0.7,0.2-0.9-0.6-1.5-0.7
		c-0.3-0.4-0.6-0.9-1-1.3c-0.3-0.3-0.5-0.9-1.3-0.8c-1.3,1.2-3,2.3-2.7,4.7c1,0.1,1-1,1.3-1.1c1.5,0,1.5,1.3,2.3,1.5
		c0.1,0.2,0.2,0.3,0.4,0.4c0.1,0.4,0.3,0.9-0.3,1.1c-1,0.3-0.8-1.5-2.1-1c0.5,1.5,0.7,3-1.2,3.8c-0.8-1-0.1-2.5-1.2-3.6
		c-1,1.4-0.6,2.6,0,3.8c0.4,0.8,0.9,1.7,1.3,2.5c0.4,1,0.8,2.1-0.5,2.8c0.1-0.9-0.4-1.6-1.1-2c-0.2,1.1-0.1,1.9,1.2,2
		c0.1,1.2,1.4,1.9,1.3,3.2c0,0.9-1.1,1.2-1.3,2.1c0.1,2.5,0.5,5.1,0,7.7c-0.4,2.3-0.2,4.7,1.2,6.9c1.2,1.9,1.7,4.2,2.5,6.3
		c1.7,4.6,3.2,9.3,6.6,12.9c3.9,4.1,11.7,5.4,16.4,2.9c5.8-3.1,8.9-8,9.8-14.5c0.3-2,0.3-4.1,1-6c1.7-4.8,1.3-9.6,0.6-14.4
		c-0.2-0.9,0.1-1.9-0.6-2.8c-0.6-0.9-1.9-1.1-2.3-2.3c0-0.8,0-1.8,0-2.7c0.6-0.3,1,0.7,1.7,0.1c-0.8-1.6,0.7-3.2,0.3-5.3
		c-0.9,0.9-1.7,1.1-2.3-0.1c1-0.7,1.2-1.2,1.1-2.3c-0.3-0.3-0.7,0.3-0.9-0.5c0-0.6,1-1.2,0.7-2.4c-1-0.5-1.3-1.9-1.7-3.1
		c-1.4,0.9-1.7,2.6-3.1,3.1c-0.5-1.6,1.7-2.4,0.9-4c-0.9,1-1.4,2.3-2.7,3.2c-1.2-2-0.6-3.8,0.1-5.8c1,0.7,0.2,1.9,1.2,2.7
		c0.3-1.1,0.8-1.8,0.2-2.9c-0.8-0.5-1.9-1.2-3-1.9c-1.2,7.1-1.2,7.1-3.7,8.7c1.4-2.9,2.5-8.7,1.8-9.4c-0.2-0.1-0.4-0.2-0.6-0.2
		c-0.2,0-0.4,0.2-0.8,0.4c0.9,3.6-0.7,6.8-2.4,9.9c-1.4,0.6-3,0.1-4.4,1.3c0.3-4.1-1.7-7.5-1.2-11.4c-1.2,0.1-2.1,0.2-2.8,1.1
		c0.1,0.7,0.1,1.6,0.2,2.4c-1.3-0.5-1.4-2.2-2.5-2.8c-0.7,0.3-1.5,0.3-1.8,1.3c0.6,1.8,0.9,3.8,2.8,5c0.4,0.4,0.6,0.1,0.8-0.2
		c0.6,0,0.5,1.1,1.3,0.8c0.1-1.4-0.9-2.7-0.6-4.2c0.7-0.1,1,1.3,1.9,0.5c1.4,4.7,1.4,5.3-0.1,7.1c-2,0.2-2.7-2.2-4.7-2.1
		c0-0.7,0-1.5-0.7-2c-0.7-1.6-1.1-3.5-2.8-5.3c-0.1,2.4,1.2,3.5,1.9,4.9c-0.7-0.2-1.4-0.5-2.1-0.7c-1.4,0.2-1.3-1.9-2.7-1.9
		C700.3,197.7,701.5,198.3,702.5,199L702.5,199z M693.2,223.9c1-1.8,1-1.8,0.1-3.9c-1.4,1.4-0.6,2.7,0,4c-0.3,0.1-0.6,0.2-1.1,0.4
		c0.4,0.5,0.7,1,1.4,1C693.5,224.9,693.3,224.4,693.2,223.9z M715.5,194c-0.1-0.8,0.7-2.1-1.3-2.1
		C714.2,192.9,714.5,193.7,715.5,194c0.5,0.4,0.8,0.8,1.2,1.3c-0.8,1.8-0.4,3.6-0.3,5.6c3-3.2,3.2-5.5,1.2-9.1
		C716.3,192,717.2,194.4,715.5,194z M704,191c0.9,0.6,1.7,0.7,2.8-0.1c-0.3-0.9,0.8-1.6,0.5-2.7c1.6-0.2,2.1,1.4,3.5,2
		c0.7-0.3,1.7-0.1,2.4-0.9c-4.1-3-8.5-2.7-10.9,0.8C702.8,190.6,703.8,190.4,704,191c-0.8,0.2-1.7-0.4-2.6,0.3
		c-0.2,0.5-0.6,1,0.1,1.4C702.5,192.3,703.5,192,704,191z M755.5,670.2L755.5,670.2c0.5,0.8,1.6,1.1,2,2.1c-0.9,5.3-0.7,5.4,3.4,8.8
		c2.1,1.7,4.6,1.7,7,2.2c3.7,0.9,10.3,0,13.8-1.6c-2.1-0.5-4-1-5.8-1.4c-6.1,1.9-6.1,1.9-7.9,1.1c2.2-1.8,5.4-1.3,7.1-3.4
		c2.6,0.5,5.1,0.7,7.4,2c0.7-3,1.1-5.8,0.8-8.8c-1.4-1.6-2.1-3.6-3.4-5.4c-1.2-1.7-2.6-3.3-3.8-4.9c-9.7,1.1-12.8,0.9-14.8-1.3
		c4.6-1.9,9.2-1.3,13.9-0.5c-0.2-0.8-0.6-1.4-1.3-1.3c-4.3,0.5-8.5-1.1-12.8-0.2c-0.8,0.2-1.7,0.2-2-1c0.8-1.4,2.3-1.5,3.7-1.5
		c3.5-0.2,6.9-0.2,10.3,0.6c0.4,0.1,0.6-0.1,0.8-0.5c-0.4-1-1.1-1.7-2.1-2.1c-4.6-0.4-9-0.3-13.6,1.6c0.3-2.5,1.9-2.7,3.2-3.2
		c1.4-0.5,2.8-0.7,4.2-0.7c1.5,0,3,0,5.1,0c-2.5-2.6-1.7-6-4-8.2c-2.6,0.8-5.3,0.3-7.4,0.5c-3.3,2.2-3.2,6.7-7.5,7.5
		c0.5,2.6-0.1,4.9-1.9,6.7c-0.3,2.5-0.1,4.9,0.4,7.2C751,667.3,752.5,669.6,755.5,670.2z M709,452.8c1.1,0,1.7-1.3,2.9-1.2
		c0.9,0.7,2.2,0.8,3.1,1.9c0.8,3.2,1.6,6.5,2.4,9.9c7.7,2.5,15.1,4.9,23.3,3.3c3.7-0.7,7.6-1.2,11.4-1.1c4.3,0.1,7.5-1.5,10.6-3.7
		c0.2-6.6-1.7-21.5-3.4-27.5c-0.7-2.5-1.1-5.1-1.7-7.7c-0.7-2.9-0.6-5.9-1.6-8.9c-5.9,0.4-11.7,0.1-17.5-0.3
		c5.9-0.3,11.8-0.5,17.7-1c-0.3-2.8-0.5-5.2-0.8-7.6c-1.6-0.4-2.8,0.5-4.1,0.4c-5-0.5-9.7,0.9-14.5,1.9s-9.6,2-14.5,2.2
		c-8.8,0.4-17.6-0.5-26.4-1c-6.8-0.3-13.4-1.8-20.1-3.3c-1.7-0.4-3.4-1-4.9-0.4c-3,7.5-5.4,14.8-7.8,22.1c-1.2,3.6-2,7.4-2.4,11.1
		c-0.3,2.6-0.5,5.2-0.7,7.8c-0.3,4-1,8-0.8,12.3c5.4,2.3,11,4,16.8,4.4c3.6,0.2,7.1,0.1,10.7,0.1c6.3,0,12.6,0.1,18.8-2
		c1.4-3.9,1.9-8.1,3.7-11.8L709,452.8z M714.8,302.7c5.6-0.4,10.9-2.1,15.9-4.5c1.5-3.5,2.6-6.9,3.3-10.4c0.5-2.9,1.2-5.9-0.4-8.7
		c-0.2-0.3-0.1-0.7,0.4-0.9c0.8,1,1.6,2,2.2,2.9c0.1,2.2,0.2,4.3,0.3,5.9c-2.1,3.9-2.3,8-4,11.8c-1,1.2-2.3,1.9-3.7,2.5
		c-3.5,1.6-7.2,2.6-10.9,3.2c-1.5,0.3-3,0.5-4,1.5c-2.4-0.5-3.9-2.2-5.6-3.3c-0.6,0.2-1,1-1.8,0.3c-1.1-2.2-2.5-4.4-3.6-6.8
		c-3.7-8.8-4.5-17.6-0.2-26.6c0.8-1.8,1.3-3.8,0.7-5.9c-1.6,0.2-2,2-3.6,2.6c-0.1,0.1-0.5-0.9-1-0.1c-2.2,8-5.4,15.8-8.7,23.6
		c-3.3,8-10,13.5-15.2,20.5c1.1,13.3,2.8,26.9,2.8,40.6c6.1,2.1,12.1,4.1,18.6,5c2.9,0.4,5.6-0.3,8.5-0.4c5.3-0.1,10.5,0.3,15.7,0.7
		c8.3,0.6,16.3-0.7,24.3-2.4c2.5-6,3.3-12.4,6.2-17.9c-1.8-2.1-3.6,0.9-5.4-0.2c2.6-1.9,5.6-3,7.5-5.6c0.6-3.7,1.5-7.4,1.6-11.2
		c0-1.1,0.1-2.1-0.3-3.2c-1.6-3.9-3-7.8-4.5-11.6c-0.5-1.3-1.2-2.7-1.2-4.1c-0.1-2.1-1-3.8-1.8-5.7c-2.9-6.7-4.7-13.7-4.2-21.3
		c-2.2-1.2-4.5-2.5-6.8-3.6c-4.1-2-6.5-5-6.5-9.9c-1.6,1.7-1,4.2-3.4,5.9c1.1-3,1.2-5.6,3-7.6c-1.2-1.3-0.5-3-1.1-4.5
		c-3.8,1.4-6.5,5.2-10.8,4.3c-3.8-0.7-7.4-1.9-10.8-4.5c-0.9,4,0.3,7.6-0.5,11.1c-0.8,3.6-1.9,7-2.2,10.8c2.4,0.5,4.6,0.9,7.5,1.5
		c-3,0.6-5.2-0.2-7.2-0.3c-0.8,0.7-0.7,1.5-0.7,2.1c0.1,5.3,0.7,10.5,1.9,15.6c0.7,3.2,2.6,5.8,5.3,7.8c1.4,1,3,1.9,4.9,0.8
		L714.8,302.7z M684,545.8c-0.7-3.1,0.7-5.4,1.7-7.8c1.5-3.6,3.2-7.2,3.3-11.2c0.3-15,3.9-29.2,10.3-42.7c2.6-5.5,3.3-11.5,6.1-17.5
		c-4.2,1.9-8,2.1-11.8,2.2c-5.5,0.2-10.9-0.6-16.4-0.7c-6.3-0.1-12.3-0.8-17.9-3.7c-0.5,0.8-0.4,1.5-0.4,2.2
		c-0.1,6.3,0.4,12.6,0.2,18.9c-0.4,14-0.8,28.1,1,42.1c1.1,8.7-0.5,16.7-3,24.8c-1.9,6.3-3.2,12.8-3,19.3c0.5,15.3,0.5,30.7,1.9,46
		c0.3,3.4,0.4,6.9-0.1,10.3c-0.4,2.8-0.2,5.4,0.4,8.2c2.6,0.1,5.1,0.1,7.1,1.5c1.1,1.2,0.9,2.8,1.9,4c0.7-1.6,0-3.2,0.6-4.8
		c1.1,0.1,1.4-0.8,1.5-1.6c0.7-4.6,2-9,2.5-13.7c0.9-8.3,2-16.5,4.7-24.4c4.3-12.7,6.6-25.8,5.4-39.3c-0.1-1.7-0.2-3.3,0-5
		C680.2,550.2,680.5,547.3,684,545.8z M764,640.4c-0.4-1.8-0.3-3.4-0.1-5.1c0.6-7.5,1.1-15,1.6-22.4c0.3-4.2,0.7-8.3,1.3-12.4
		c1.9-12.5,2.3-25.1,0.7-37.7c-0.4-2.8-0.8-5.7-2-8.3c-2.2-4.6-2.7-9.5-2.7-14.5c0-3.1-0.4-6.2-1.3-9.2c-1-3.5-1.6-7-1.1-10.6
		c0.8-5.4,0.8-10.9,1.2-16.4c0.8-10.7,2.1-21.3,1.5-32.1c-0.1-2.2,0-4.4,0-7.2c-4.6,3.4-9.2,4-14.1,3.9c-1.3,0-2.6,0.4-3.9,0.5
		c-4,0.4-7.9,1.6-12,1c-4.4-0.7-8.6-1.6-12.8-3.2c-0.7-0.3-1.3-1.1-2.4-0.5c0.5,2.3,1,4.6,1.7,6.8c2.7,9.7,5,19.6,8.7,29
		c2.9,7.5,5.3,15.3,5.9,23.5c0.7,9.2,2.9,18.1,5.4,26.9c1.3,4.6,2.9,9.1,3.3,13.9c0.3,4.2,0.7,8.3,1,12.5c0.4,5,1.2,9.9,3.3,14.5
		c1.5,3.1,2.2,6.5,2.6,10c1.2,9.7,2.3,19.4,3.6,29c0.5,3.8,0.7,7.7,0.9,11.6c1.9-0.9,0.3-3.2,2-4c0.8,0.6,0,1.7,1,2.3
		C758.8,639.8,761.3,641,764,640.4z M691.8,404c0.1-0.3,0.3-0.5,0.5-0.3c1.9,1.6,2.8,3.8,4.1,5.9c3.9,0.2,7.8,0.4,11.7,0.6
		c5.4,0.3,10.7,0.3,16.1,0c10.1-0.7,19.8-4.1,29.9-4.6c0.2-1.6-0.6-2.6-1.2-3.6c-1.4-2.6-2.9-5.2-4.4-7.8c-2.2-4.1-4.6-8.1-5.2-12.8
		c-0.9-7.3-0.8-14.5,1.4-21.6c0.3-1.1,1-2.1,0.6-3.5c-0.5,0.1-0.8,0.1-1.1,0.2c-7.1,1.6-14.2,3.1-21.5,3c-6.6-0.1-13.2-1-19.9-0.9
		c-8,0.2-15.9-1.2-23.5-3.7c-0.3-0.1-0.7-0.1-1,0.5c0.1,0.4,0.1,1,0.3,1.5c1.1,4.4,1.8,8.8,2.3,13.3c0.6,5.2-0.3,10.3-2.1,15.1
		c-1.1,2.8-2.9,5.4-4.3,8.1c-1.9,3.8-2.7,7.8-3.2,12.1c7.9,1.1,15.4,3.4,23.4,4.2C694,407.3,692.5,405.8,691.8,404z M692.7,234
		c-0.1,1.7-0.1,3.5-0.4,5.2c-0.9,5.5-0.3,10.9,0.3,16.3c0.1,1.4,0.5,2.5,1.6,3.5c1.9,1.7,3.9,3.4,5.8,5.1c0.9-1,1.6-1.9,2.6-3
		c-0.9-1.3-0.3-2.8-0.2-4.3c0.3-2.9,1.1-6-0.3-8.8c-1.7-3.3-2.5-6.9-4-10.2c-0.1-0.2-0.3-0.3-0.5-0.4c-0.4,0.2-0.8,0.4-1.3,0.7
		C694.8,236.9,693.5,235.8,692.7,234z M696.7,236.5c-0.1-2.8-0.1-2.8-2.7-3.3C694.5,234.4,695.2,235.4,696.7,236.5z M737.3,224.2
		c-1.1,2.1-1.1,2.1-0.1,4.4C738,227.2,738,225.9,737.3,224.2z M694.2,228.3c-0.5-0.9-0.9-1.6-2-1.6c0.2,1.4,0.1,2.6,0.7,3.8
		C693.2,229.7,693.7,229,694.2,228.3z M734.5,212.9c-1.1,0.2-1.3,1-1.6,2C734.3,214.8,735,214.2,734.5,212.9z M826.3,449.8
		c-1.2,0.5-2.2,0.6-2.1,2.2C825.2,451.7,825.8,451.1,826.3,449.8z M735.2,233.3c-0.2,1-0.3,1.5-0.3,1.9c0,0.3-0.3,0.9,0.5,0.8
		C735.5,235.3,735.7,234.7,735.2,233.3z M753.8,645.9c-0.1-0.2-0.2-0.4-0.4-0.5c-0.4-0.1-0.6,0.1-0.5,0.5c0.1,0.2,0.3,0.3,0.5,0.3
		C753.7,646.3,753.8,646,753.8,645.9z"/>
	<path d="M425.5,520c0.4,0.7,0.8,1.4,1.2,2.2c-2.7-0.4-3.7-1.4-5.3-5.8c0.2-2,0.9-3.7,2.4-4.8c0.5-2.2-0.2-4.1-0.8-6.2
		c-3.1,2.3-5.3,5.1-7.5,7.8c-1,1.3-0.8,2.9-0.3,4.4c0.7,2.1,2,4,3,6c-2.2-1.2-4-2.7-4.9-5.1c-0.9-2.4-0.8-4.7,1-6.7
		c0.5-0.5,1-1.1,1.3-1.7c1.8-3.8,4.7-6.3,8.6-7.5c1.1-1.5,0.9-3.6,2.8-4.5c-1.1-2-2.5-3.7-3.2-6.1c-5.5,9.9-13,17.6-20,25.7
		c-3.4,4-6.6,8.1-9.4,12.5c-1.2,1.8-2,3.7-2.5,5.9c-1,4.9-2,9.8-4.1,14.1c2.1,11.7,2.6,23.1-1.5,34.1c-2.3,6-4.2,12.1-5.8,18.3
		c-1.8,7.4-2.1,15.1-2,22.7c0,4.6-0.1,9.3-0.3,13.9c0,0.9-0.2,1.9-1.3,2.4c-1.4,0.5-1.6,2-2.6,2.8c0.1,1,0.7,1.5,1.5,2
		c1-0.4,0.1-2.2,1.6-2.4c0.8,1.6-0.4,3.3,0.5,4.4c-0.5,1.1-1.1,1.5-2,1.6c-2.2-1.1-2.2-4.7-5.2-4.6c0.1-3.7-3-3.8-4.8-5
		c-1.3,0.1-2.1,0.7-3.2,1.5c0.2,2-2.4,3.3-1.8,5.7c3.7-0.2,7.3,0.3,10.6,1.9c0.5,0.2,0.7,1,0,1.7c-3.7-0.5-7.5-1-11.1-1.4
		c-0.4,0.4-0.5,0.7-0.3,1.2c3.9,0.4,7.9,0.2,11.7,2.1c-0.6,1.8-1.9,1.8-3.2,1.7c-3.3-0.1-6.6-0.6-9.9,0.1c3.6,0.5,7.6-1.2,10.8,1.9
		c-1.6,2.1-4.7,2.4-12.5,1.2c-2.9,1.7-4.8,4.4-6.9,7c-0.7,0.9-0.8,1.9-1,3c-0.3,2-0.9,2.9-2.3,4.5c-0.1-0.2-0.4-0.4-0.4-0.5
		c0.8-3.5,0.8-7.3,3.7-10.1c3.5-3.3,6-7.4,7.2-12.1c1.4-5.4,2.3-10.9,1.3-16.5c-0.8-4.5-1-9-1.3-13.5c-0.5-7.4-1.1-14.7-1.6-22.1
		c-0.4-5.2-0.2-10.5,0.3-15.7c0.4-4.4,0.4-8.8,0.4-13.2c-0.2-9.2,1.6-18,5.4-26.4c2.1-4.6,2.4-9.7,3.6-14.5
		c-1.2-4.1,0.9-7.9,1.4-11.8c0.4-2.9,0.7-5.9,0.8-8.9c0.2-6.4,2.3-12.4,4.4-18.3c3.5-9.9,7.1-19.7,11.5-29.2
		c2.2-4.9,4.6-9.7,6.3-14.8c0.8-2.5,2.5-4.6,4.1-6.7c2.1-2.6,4.2-5.1,6.3-7.8c-0.2-7-2.6-13.9-3.3-21.1c-0.1-1.3-0.4-2.6-0.4-3.9
		c0-1.2,0.3-2.3,0.5-3.7c-2-5.4-3.3-11-2.7-17c0.8-8,4.3-14.3,11.2-18.5c5.9-3.6,10.6-8.9,16.3-12.8c0.6-0.4,0.8-1.1,1.3-1.7
		c1.7-2.1,3.4-4.1,6.3-4.7c3.1-0.6,5.7-2.3,8.3-3.9c-1.1-3.4-2.1-6.6-3.3-10.2c-2-0.9-2.8-3.1-3.5-5.2s-1.4-4.3-2.4-6.3
		s-1.1-4.1,0.2-6.1c0.5-0.8,0.7-1.8,1.5-2.6c-1.1-6.6,0.2-13.1,1.3-19.4c1.6-8.6,5.5-12.7,14-15.3c1.1-0.3,2.1,0.4,3.4-0.1
		c2.1-4.9,6.3-6.1,11.3-5.6c4.6,0.4,6.9,3.2,6.5,7.9c0,0.3,0,0.7,0,1.1c0.4,0.4,0.8,0.8,1.3,1.1c5.5,3.7,7.7,9.1,8,15.6
		c0.1,3.7,0.1,7.3-0.1,11c0,0.9,0.1,1.9,0.1,2.8c1.2,0.2,1.4-1.1,2.3-1.2c2.5,2,4,5.9,2.4,8.4c-1.7,2.8-2.4,6.3-5.1,8.4
		c-0.7,0.3-1.1-0.4-1.7-0.4c-1.3,2.7-1.7,5.6-2.1,8.7c4.4,1.3,8.7,2.7,13,3.9c8,2.2,15.5,5.6,22.3,10.1c4.4,2.9,6.1,7.5,5.9,12.7
		c-0.1,1.4-0.5,2.8-0.8,4.4c1.4,3.3,1.6,7,1.7,10.7c0,1.8,0.2,3.6,0.3,5.3c0,2.7,1.2,4.7,3,6.6c2.9,3.1,4.8,6.8,5.9,10.9
		c1.5,6.1,3.5,11.8,7.4,16.9c0.5,0.6,0.8,1.5,1,2.2c1.7,4.8,4.2,9,7.3,13c1.3,1.7,2.7,3.4,3.4,5.6c-0.7,4.8-3,9-6,12.9
		c-0.9,0.5-1.5-0.3-2.2-0.2c-0.6,1.2-1.1,2.7-3,2.7c-1.4-0.6-1.5-2.2-2.3-3c-2.7-0.7-5.6-0.6-6.6-3.9c1.9-1.4,3.9-0.9,5.6-1.3
		c0.1-1-0.5-1.4-1.2-1.8c-2.1,0-4.5,1.8-6.4-0.6c0.9-2.4,4.4-1.6,4.8-4.6c-1.6,0.5-2.9,2.2-4.8,0.7c0.4-2.4,2-3.8,4.4-4.6
		c0.3-0.9,0.6-1.9,0.9-2.9c-5.1-7.1-11.4-13-18.4-18.3c-2.9-2.2-4.8-5.2-6.6-9.2c-2.4,9.2-7.7,15.3-15.7,19.5
		c-0.6,1.4-1.2,2.9-1.9,4.6c2.1,1.9,3,4.4,3.8,7c1.4,5,2,10,1.5,15.2c-0.2,2.4,0,4.8,0.7,7.1c2.2,7.2,3.6,14.6,6.6,21.5
		c0.7,1.7,1.3,3.6,1.4,5.5c0.5,6.6,2.4,12.9,3.6,19.3c2,10.7,3.5,21.3,2.6,32.2c-0.4,5.1,0,10.3,1,15.3c3.1,14.6,2.8,29.3,1.9,44.1
		c-0.4,6.9-0.9,13.8-1.3,20.7c-0.1,1-0.1,1.9-0.1,2.9c0,7.1,0,14.3,0,21.4c4.5,1.9,2.4,5.6,3.1,8.9c1.9,2.5,3.3,5.8,4.7,9
		c1.3,3,3.4,5.5,5.7,7.7c3.6,3.4,4.3,7.5,3.5,12.1c-0.3,1.7,0.4,3.3,0,4.9c-4.6,4.6-10.1,4.5-15.9,3.3c-4.7-1-9.3-2.2-13.1-5.2
		c-1-0.8-2.2-1.4-2.2-3.1c1.8,0,3,1.2,4.1,2c2.7,2,5.5,3.2,8.8,3.4c1.7,0.1,3.3,0.3,4.9,0.8c4.1,1.1,7.7-0.3,11.1-2
		c0.6-0.8,0.1-1.6,0.2-2.2c1.1-6.3-1.4-11.2-5.7-15.6c-3-3.1-4.4-7.3-6.2-11.2c-4,0.4-7.7,1.2-12.1,0.8c3.1-3.2,6.9-2.3,10.4-3.1
		c-1-2.3-0.2-4.6-0.3-7c-2.5-1.6-5.7-1.6-8-3.3c-4.1,1.9-2.9,6.5-5.5,9.3c-1.2,0.4-2.6,0.9-3.7,1.3c-1.6-0.2-1.1-1.8-2.3-2.2
		c-0.1,7.1-1.1,13.9-4.3,20.5c1.8,1.7,5.1,1.1,6.7,3.8c-2.5,0.9-4.7,0-8.5-3.2c0-0.4-0.2-0.9,0-1.3c1.8-3.8,1.8-8.1,3.2-12
		c0.8-2.3,0.6-4.7,1-7.1c0.5-2.6,1-5.2,3.1-6.6c1.3-13.7-2.6-26.4-5.9-39.2c-0.3-1.1-0.7-2.3-1.3-3.3c-5.3-11.1-7-22.7-5-34.8
		c0.7-4.2,1.1-8.5,1.9-12.7c0.7-3.5-0.2-6.8-1.1-10.1c-3.1-11.1-9.6-20.4-16.2-29.6c-3.9-5.4-7-11.4-11.1-16.6
		c-0.3-0.4-0.6-0.7-1.2-1.5c0,1.6,0.1,2.6,1.1,3.4c2.2,1.6,2.6,3.9,2.3,6.4c-0.3,2.5-0.3,4.9,0,7.4c0.5,3-1.4,5.4-3,7.7
		c0.7,5,1.5,10-1.5,14.6c-1.6,2.4-3.2,4.9-5.7,6.3c-3.8,2.1-12.3,3-17-1.9c-1-1.1-5-8.5-5.2-10c-0.1-1.1-0.4-2.3,0.8-3.2
		c1.1,0.7,0.6,1.8,0.8,2.7c1,7,7.9,12.9,14.4,12.5c2-0.1,3.7-0.7,5.2-2c2.3-1.9,4.2-4.2,5.7-6.8c0.9-1.5,1.4-3,1.2-4.7
		c-0.2-2.6,0.8-5.2-0.1-7.8c0.4-0.6,0.7-1.2,1.1-1.8c1.5-2.6,2.5-5.3,1.9-8.4c-0.4-2.2-0.3-4.5-0.8-6.7c-0.2-0.8-0.4-1.6-1.6-2.5
		c0.1,2.6,0,4.8,0.4,6.9c0.5,2.5-0.2,4.5-2.2,6c-1.1,0.8-1.7,2-2.7,3c-1.8-0.2-3.6,1.2-5.3-0.1c-1.5,0.9-2.7,1.6-4.4,1.3
		c-1.4-0.3-2.7,0.8-3.9,1.5c-1.1,0.7-1.9,2-3.4,1.6c-0.5-1.7,1.6-2.1,1.9-3.4c-1.2-1.1-2.2-2.1-3.3-3.1c-0.8,0.8-1.5,1.4-1.4,2.7
		C423.4,517.7,423.9,519.3,425.5,520z M461.2,286.3L461.2,286.3c1.4-3.6,1.4-3.6,0.5-5c-0.5,1.7-0.9,3.2-1.4,4.8c-1,1.5-1.8,3-3,4.4
		c-1,1.2-2.3,2.2-3.9,0.7c0-2.1,0-4.3,0-6.4c2.1-0.7,2.3-1,2.1-4.2c-0.8-0.1-1.7-0.6-2.9,0.2c0,1.8,0.2,3.8-0.1,5.8
		c-0.2,1.9-0.7,3.9,0.3,6.4c-2.1-1.3-3.8-0.9-5.4-1.2c-1.6-2.3-2.5-4.8-3.7-7.2c0-1.3,1.1-2.8-0.9-3.9c-1.5,2-0.2,3.7,0.4,5.5
		s1.4,3.6,2.1,5.4c-1.4-1.3-2.9-2.2-3.7-3.9c-0.9-1.7,0.2-3.8-1.4-5.5c-0.7,0.7-1.3,1.2-1.9,1.8c-1.8,1.7-1.8,1.7,0.5,4.6
		c-0.2-1.7-0.4-3.2-0.6-4.7c2.2,3.4,2.4,5.2,0.9,7c-0.9-1-1.8-1.9-2.7-3c-0.5,1.8,1.5,2.4,1.5,4.2c-1.6-0.8-2.4-2.2-3.4-3.2
		c-0.1-0.1-0.4,0.1-0.6,0.1c-0.7,0.8,0.5,1.6-0.2,2.5c-0.5,0.2-1,0.7-1.2,1.4c-0.2,1.2,1.5,1.5,1.2,2.7c-0.5,0.2-1.2-0.5-1.6,0.4
		c0.4,1,0.7,2.1,1.2,3.5c-0.9-0.6-1.4-0.9-2.2-1.5c0.4,2.4,1.9,4.2,1.5,6.3c0.8,0.3,0.8-1,1.7-0.5c0.2,1.7,0.7,3.6-0.1,5.1
		c-0.8,0.5-1.4-0.3-2,0.6c-0.2,3-0.4,6.2-0.1,9.4c0.6,6.6,3.6,12.4,5.3,18.7c0.3,1,0.8,2,1.3,2.9c2.8,5.4,7.8,7.7,13.4,9
		c1.1,0.3,2.3,0,3.5-0.3c4.2-0.9,7.6-3,10.6-6c0.1,2.4-1.4,3.7-3.2,4.7c-1.5,0.9-3.3,1.3-4.8,2.2c-3.2,2-6.2,1.6-9.4,0
		c-2.5-1.3-5.1-2.4-7.6-3.6c-1.1,1-1.2,2.4-2,3.4c-1.5-1.5,0.1-3.1-0.6-4.6c-4.1,3.1-5.2,7.1-4.4,11.8c0.8,4.3,1.7,8.6,2.3,13
		c0.8,5.1,2.1,10,3.9,14.8c1.4,3.8,2.8,7.6,3.6,11.6c0.7,3.3,3,5.8,5.9,6.7c5.2,1.7,10.5,1,15.8-1.3c-1.2-2-0.8-4-1.3-5.5
		c-0.6-1.2-2-1.2-2.5-2.5c1.4,0.4,2.4,0.7,3.4,1c1.2,1.9,0.5,4.5,2.5,6c1.5-0.8,2.9-1.6,4.3-2.4c7.2-4.3,10.3-10.8,9.9-19.1
		c-0.1-2.7-0.7-5.4-0.8-8.2c-0.3-9.3-4.3-17-10-24.2c-0.3,1.4,0.3,3-1.3,4c-1.2-3-0.9-6.1-1.8-9.1c-1,0-1.1,1.3-2,1.3
		c-0.1-0.6,0.2-1.1,0.6-1.6c1.6-2.7,2.7-5.5,3.5-8.5c1.1-4.4,1.6-8.9,3.6-13c0.5-1,0.2-2.1,0.2-3.2c-0.2-3.6-1.7-7.1-1.2-10.6
		c-0.4-1.2-1.6-1.5-1.7-3.1c-0.7-1.8,3.2-2.6,2-5.2c-0.7,0.5-0.4,2-1.7,1.9c-0.5-1,0.1-2.1-0.2-3.2c1.9-1.7,2-3.8,0.9-6.1
		c-0.1,2.1-1.3,3.9-0.8,6.1c-0.7-2.1-2.1-3.9-2.2-6.2c-1,0.3-1,1.3-1.8,1.3c-0.6-0.4-0.2-1.1-0.4-1.6c1.4,0.1,1-2.1,2.4-2
		c0.7,0.1,0.6,1.3,1.6,1.1c0-2.9-1.9-4.8-4.7-4.7c-0.1-0.7,0-1.5-1.1-1.8c-0.7,1.5-1.7,2.8-1.7,4.7c-0.8-0.2-0.9,0.8-1.6,0.9
		c-0.4-1,1.3-1.7,0.5-2.7C462,286,461.6,286.2,461.2,286.3z M461.1,278.4c1.2,0.6,2.3,1.1,3.5,1.7c0.2-1.4-0.4-2-1.3-2.3
		c0.3-1.4-0.7-2-1.7-2.3c-3.5-1.1-7-1.4-9.9,1.5c-0.3,0.3-0.4,0.6-0.1,1c0.9,0.1,1.8,0.1,2.8,0.2c1.1-1,1.8-2.6,3.6-2.7
		c0.2,1.1,0.3,2.2,0.4,3.3C459.5,279,460.4,279,461.1,278.4z M499.1,381.3l-0.1-0.1c0.8,1.6,0.9,3.1-0.5,4.3c0.4,1.5,0.7,2.8,1,4.1
		c0.5,2.5,1.4,5.1,1.5,7.7c0,3.2,0.9,6,2.6,8.7c2.6,4.1,6,7.4,9.8,10.3c3.5,2.7,6.4,6,9.4,9.2c1.2,1.3,2.1,2.9,3.1,4.3
		c0.6-0.6,0.2-1.4,0.9-1.6c0.4,1,0.7,2,0.6,3c-1.6,3.2-1.6,3.2-1,9.3c3.6,2.3,3.6,6.7,5,11c2.1-3,0.9-6.6,3.7-8.4
		c0.8,0.2,1.6,0.1,2.1,1c-1,0.6-2.3,0.4-2.8,1.8c-0.1,1.1-0.3,2.3,0,3.8c1.9-0.9,2.4-2.7,3.3-4.2c2.6-4.3,2.1-8.4-1-12.4
		c-3.1-4.1-6.2-8.1-7.4-13.3c-0.3-1.4-1.3-2.5-2.3-3.6c-2.9-3.4-4.9-7.3-5.9-11.7c-0.4-2-0.9-3.9-1.6-5.8c-1.2-3.5-2.6-7.1-5.2-9.7
		c-1.8-1.8-2.4-3.6-2.7-5.9c-0.4-2.5-0.4-5-0.5-7.5c-0.1-2.8-0.5-5.4-1.4-8c1.1-4.9,1.6-9.5-1.8-13.9c-1.5-2-3.4-2.6-5.3-3.8
		c-4.6-2.8-9.6-4.7-14.6-6.5c-3.2-1.1-6.4-2.3-10.1-2.9c0.7,1.1,1.1,1.7,1.5,2.5c3.2,5.4,6.4,10.9,8.5,16.9
		c1.8,5.1,4.1,9.9,6.6,14.6C496,376.9,497.2,379.4,499.1,381.3z M409.1,467.1l0.1,0.1c-0.4-3.5-2-6.6-2.6-10
		c-0.4-2.5-1.1-5.1-0.4-7.7c-1.1-1.5-2.2-3-3.3-4.5c0.8-1.5,0.3-2.8-0.6-4.1c1.5-0.4,0.1-2.7,2.2-3c0.5,4.1,0.3,8.3,3,11.7
		c-1,1.1-0.6,2.3-0.4,3.5c1.3,7,3.4,13.6,7.6,19.5c5,7,8.7,14.8,12.3,22.5c0.4,1,1,1.9,1,3c-1.6,2.3-1.9,5.1-3.2,7.7
		c1.3,2.1,0.5,4.5,0.7,6.9c1.3,1,2.7,2,4,3c1.6-0.6,3.2-0.9,4.7-0.3c1.1-0.7,2-1.2,2.8-1.7c1.1,0,1.9,1,2.9,0.5c1.4-0.3,1.6-2,3-2.3
		c2.3-0.4,2.9-2,2.8-4.3c-0.2-2.5-0.5-5.1,0-7.5c0.4-2,0.1-3.4-1.1-5c-0.7,0-1.5,0-2.2,0c-2-0.1-3.7-0.6-4.6-2.7
		c-2.7-6.1-5.6-12.1-6.5-18.8c-1.1-8.2-4-15.6-8.1-22.7c-0.5-0.8-0.9-1.7-1.1-2.6c-0.9-3.4-1.2-6.9-0.6-10.5c0.7-4.2,1-8.4-0.3-12.7
		c-1.5-4.7-2.8-9.6-2.2-14.7c0.1-0.9-0.2-1.6-1-2.1c-0.1-0.1-0.1-0.4-0.2-0.6c0.7-0.6,1.7-0.2,2.5-1.3c1.1-2.2,2.3-4.7,3.6-7.3
		c1.2-2.3,1.6-4.6,1.6-7.2c0-3.4-0.7-6.6-1.5-9.8c-1.8-6.7-3.5-13.4-2.4-20.4c0.3-1.8,0-3.6,0-6.1c-2.8,2.4-5.1,4.2-7.3,6.2
		c-2.7,2.4-5.1,5-8.8,6c-0.6,0.2-1.2,0.8-1.6,1.3c-6.8,7.3-9.9,15.8-6.9,25.6c1.3,4.3,1.7,8.5,1.8,12.9c0.2,7.1,2.2,14,3.1,21
		c0.2,2.1,1.1,4.1,1.6,6.2c0.1,0.6,0.8,1.2,0,1.8c-1.5-0.6-1.2-2.6-2.7-3.2c-4.8,5.1-9,10.6-11.3,17.3c-1.7,5.1-3.9,10-6.2,14.8
		c-0.4,0.8-1.1,1.5-0.8,2.7c0.6,0,1.2,0,1.7,0c11.1-0.3,20.6,3.2,27.8,11.9c0.7,0.8,1.4,1.7,2.3,2.2c3.6,2,5.9,5,6.4,9.2
		c1.3-0.5,1.4-1.5,1.4-2.3c-1.5-4.2-3.8-7.8-6.1-11.4C413.8,474.5,411.5,470.8,409.1,467.1z M375,639.6c0.6-0.5,0.9-0.6,0.9-0.7
		c-0.5-3.9,0.3-7.8,0.1-11.7c-0.5-8.3,0.8-16.4,2.5-24.4c0.8-3.8,1.4-7.8,2.9-11.4c4.3-10.3,5.4-20.9,4.4-31.8
		c-0.3-3.7-0.5-7.4-0.4-11.1c0-1-0.2-2.3,0.7-3c1.1-0.9,1.2-2,1.4-3.1c1.1-8.3,4.8-15.4,9.9-21.8c4.6-5.9,9.6-11.5,14.7-17
		c2.8-3,5.6-6.2,7.7-9.6c-0.4-1.2-0.8-2.2-1.1-3.2c-0.5-1.5-1.3-2.7-2.5-3.8c-3.2-2.7-6.3-5.5-9.5-8.1s-6.4-5.3-10.7-6.2
		c-5-1.1-10.1-1.4-15.6-1c-1.1,5.7-3.6,10.8-5.7,16.1c-1.5,3.8-2.5,7.7-3.2,11.7c-0.8,5.4-1.7,10.8-2.6,16.2
		c-0.5,2.7-0.8,5.4-0.9,8.1c-0.3,7.4-1.7,14.6-4.9,21.4c-2.4,5.1-4,10.6-4,16.2c-0.1,15.5-1.6,30.9-0.1,46.4
		c0.4,4.3,0.5,8.5,0.5,12.8c-0.1,6.2,1.5,12.2,2.4,18.3c1.5-0.2,2.5-1.1,4.1-0.6c1.9,1.3,4.2,2.8,6.3,4.2c0.9-0.3,1.5-0.7,1.6-1.5
		c-0.4-3.4-1.6-6.6-0.8-10.1C374.4,633.5,374.4,636.4,375,639.6z M456.6,504.8c0.3,1.5,1.2,2.6,1.9,3.9c1.1,2,3,3.4,4.4,5.1
		c2.5,3.2,4.4,6.8,6.8,10c4.4,5.7,6.6,12.3,8.1,19.3c1.6,7.5,0.8,14.9,0.2,22.4c-0.2,3-1.4,6-1,8.8c0.9,6,1.4,12.1,3.1,17.9
		c2.3,8,5.4,15.7,6.6,24c0.9,6,2.6,11.9,2.3,18c0,0.8-0.1,1.6,0.4,2.4c0.5-1.7,0.9-3.4,1.4-5c0.6,3,0.1,5.7-1.8,7.9
		c1,2.7-1.3,5.8,1.2,8.2c1.2-0.7,1.5-1.9,1.5-3c0-3.9,2.2-5.8,5.8-6.7c1.4,0.7,2.7,1.9,4.6,1.9c0.5-1.4,0.2-2.8,0.1-4.2
		c-0.4-9-0.7-18.1-0.1-27.2c0.4-5.9,1-11.9,1.1-17.8c0.1-7.7,0.3-15.4-0.4-23.1c-0.6-6.8-1.2-13.7-1.5-20.6
		c-0.2-4.6-0.8-9.3-0.7-13.9c0.1-5.8-0.3-11.4-1-17.1c-1.1-9.1-2.7-18.1-4.1-27.2c-0.6-4-2.1-7.8-3.8-11.5c-6-1.6-11.7-1.1-17,2
		c-4,2.3-7.3,5.3-10.7,8.3c-4.4,4-6.9,8.8-6.4,14.8C457.8,503.6,457.5,504.3,456.6,504.8z M457.8,429.8c-4.8,3.7-10.5,4.9-16.4,5.5
		c-5.8,0.5-11.3-0.6-16.7-2.8c7.4,6.4,16.4,6,25.1,5.4c6.3-0.4,12.5-2.6,18.8-4.2c4.1-1,7.8-2.8,10.6-6.1c0.3-0.4,0.7-1,1-1
		c2.3,0.3,1.7-1.5,2.7-2.9c-3.1,0.5-5.6,0.7-8.3,0.3c1.3-1.4,2.7-1.1,3.9-1.3c2.8-0.5,5.7-0.6,8.1-2.5c3.7-3,7-6.5,9.4-10.6
		c2.1-3.4,2.9-7,2.3-10.9c-0.8-5.1-1.4-10.1-2.3-15.2c-0.3-2-0.5-4-1.7-5.8c-3.3-4.8-5.3-10.1-7.4-15.4c-3.1-8-6.9-15.7-11.8-22.7
		c-1.6-0.6-3.1-1.1-4.6-1.7c-1.4,2-0.2,3.6,0.6,5c1.8,3.5,4,6.8,6.4,9.9c3.3,4.4,5,9.4,5.8,14.8c0.9,6.1,1.1,12.3,0,18.5
		c-1.1,6.4-4,11.6-9.9,14.9c-4.5,2.6-9.4,4-14.4,5.2c-2.9,0.7-5.9,0.4-8.9-0.2c-2.1-0.4-3.7-1.4-5-3.1c-1.7-2.1-2.6-4.5-3.5-7
		c-2.4-7.1-5.6-14-6.5-21.5c-0.7-5.7-1.8-11.2-3-16.8c-0.5-2.5-0.5-5,0.3-7.4c0.2-0.6,1-1.2,0-1.9c-0.7,0.3-1.5,0.7-2.3,0.8
		c-4.4,0.7-6.1,3.6-6.5,7.7c-0.8,7.2-0.5,14.3,1.3,21.3c0.8,3.2,1.7,6.4,2.4,9.7c0.7,3.4,0.8,7.1-0.8,10.2c-1.9,3.7-3.4,7.6-6,10.7
		c0,5.5,0.9,10.6,2.2,15.7c1.1,4.3,3.6,7.2,8.4,8.2c6.9,1.4,13.7,1.4,20.4-0.7C453.6,431,455.8,430.4,457.8,429.8z M440,477.4
		c3.4,8.8,9.3,15.6,14.1,22.9c6.4-16.8,17-27.5,36.5-25.8c-0.1-0.8-0.1-1.3-0.3-1.7c-3.8-6.7-4.7-14.1-4.8-21.7
		c-0.1-4.4-0.9-8.8-1.8-13.5c-2.2,1.8-4.2,3.4-6.4,4.4c-7.9,3.7-16.1,6.7-24.9,6.9c-4.3,0.1-8.6,0.7-12.8-0.5
		c-4.8-1.3-9.5-3-13.8-5.7c-0.9-0.6-1.8-1.4-3.4-1.3c0.4,3,0.3,6.1,2.1,8.3c2.3,3,3.4,6.5,5,9.8c2,4.1,3.3,8.4,3.5,13
		c0.1,1.6,0.1,3.4,1.3,5C436.1,476.8,438,478.4,440,477.4z M423.4,438.9c22.1,13.9,47.7,6.2,60-4.3c-0.4-1.5-0.6-3.1-1.4-4.6
		c-0.8,0-1,1.2-1.6,0.9c-0.7-0.4-0.5-1.1-0.7-1.1c-8.1,6.2-17.1,9.6-26.9,10.1c-9.6,0.4-19.5,0.9-28.5-4.4
		C424,436.7,423.8,437.7,423.4,438.9z M446.5,494c-3.5-4.7-5.9-9.8-7.9-15.2c-1.5,0.4-2.5,0.9-3.5,1.8c1.7,4.4,3.4,8.9,6.1,12.8
		C443,494.1,444.8,493.3,446.5,494z M449,290.7c0.3-5.2-0.3-8.1-2.3-10.3C445.4,284.3,446.2,287.5,449,290.7z M458,283.2
		c0.9,1.5-0.7,2.7,0.1,4.1c1.4-1.9,2.1-4,2-6.2c-0.9-0.6-1.6-0.7-2.4-0.3c-1.2,2.4-2.2,4.8-1.8,8.2
		C456.6,286.7,457.2,285.1,458,283.2z M528.2,446.7c-1.4-0.1-2.9-0.2-5.2-0.4c1.9,1.6,3.3,2.3,4.9,2.2
		C528.5,448,528.5,447.5,528.2,446.7z M474.8,326.6c1.1-1.9,2.3-3,2.1-5.5C475.9,323.2,473,323.5,474.8,326.6z M478.5,315
		c-1.2,0.4-1.7,1.2-2,2.3c0.6,0.7,1.2,1.4,1.9,2.2C479,317.8,479,316.4,478.5,315z M430.5,322.1c-0.2-1.4,1.3-3.1-1-4.4
		C429,319.5,429,320.9,430.5,322.1z M451,280.2c-1.6,0.7-1.6,0.7-1.2,2.6C450.6,282.2,451,281.3,451,280.2z M525.7,441.5
		c-1.9-0.1-2.9,0.3-4.3,1C523,442.9,524,442.6,525.7,441.5z M431.5,305.1c-0.6,1.3-0.1,1.9,1,2.1c0.2,0.1,0.4,0.1,0.6-0.2
		C433,306.2,432.5,305.6,431.5,305.1z M521.7,437.8c1-0.2,2.2-0.1,2.7-1.8C523,436.3,522.2,436.8,521.7,437.8z M432.8,327.7
		c0.1,1.2-0.5,2.2,0.9,2.5C433.9,329.3,433.5,328.6,432.8,327.7z M451.2,285.1c0.2-0.1,0.4-0.1,0.5-0.3c0.1-0.2,0-0.5-0.2-0.6
		c-0.3-0.2-0.6,0-0.6,0.3C451,284.8,451.1,285,451.2,285.1z"/>
	<path d="M708.2,112.5c1-0.5,1-1.6,1.3-2.5c0.3-1.1,0.8-2,1.6-2.5c2.2-1.1,3.8,2.4,5.8,0.6c1.9,0.7,2.8,2.1,4.1,3.4
		c2,0.6,4.8,0.3,5.1,3.9c-1.6-0.6-2.2-2.7-4.1-1.9c-1.3,0.6-1.8,1.8-2.3,2.9c0,0.8,0.4,1.2,1,1.5c1.3-0.2,1.5-1.8,2.9-2.2
		c2.5,2,6.1,3.1,6,7.1c-0.2,1.5-1.5,2-1.7,3c1.2,4.4,0.9,8.6-1.8,12.3c-2.7,3.9-5.5,7.9-11.4,7.7c1.8-2.1,4.7-2.3,6.2-4.6
		c1.4-2.1,3.8-3.7,4.6-6.2s1.4-5,1.2-7.9c-2.9,1.9-3,6.5-7.1,5.9c-2.3,6.3-6.5,8.3-9.8,4.4c-2.5,3.6-2.8,7.8-4.3,11.6
		s-2.2,7.9-3.4,12c6.8-1.9,11.1-8.1,10.2-14.5c0.6-0.3,1.1-0.2,1.6,0.2c0.4,0.5,0.4,1.1,0.3,1.7c-1.5,6.9-4.1,13-11.7,15.2
		c-0.3,0.1-0.6,0.3-1,0.5c-0.8,1.7-1.3,3.6-1.4,5.5c-0.5,9.9-3.6,19.1-6.2,28.5c-0.5,1.8-1,3.7-2.7,5.2c-0.3-1.7-0.2-3.2,0.2-4.7
		c0.2-0.6,0.2-1.2,0.4-1.7c3.9-10.7,4.9-22,6.6-33.2c1.1-6.8,3.1-13.4,6.7-19.4c0.7-1.1,1-2.4,1.4-3.7c1.6-5.1,5.2-7.7,10.3-8.8
		c1.5-0.3,3-0.5,4.5-0.8c2.2-2.6,3.9-5.3,6-7.3c0.7-1.4,0.3-2.4,0-3.5c-1.2-0.8-2.4-1.7-3.6-2.5c-1.4,0.8-0.6,2.3-1.5,3.3
		c-1.2-1.3-3.1-1.7-4.2-3.3c-1.2,0.8-2,2.2-3.6,2c-1.3-0.1-1.7-1.2-2.4-1.9c-2.8,0-2.8,0-4.5-1.2C706.9,115.1,708.4,114,708.2,112.5
		L708.2,112.5z M720,112.7c-1.2-1.1-1.8-2.5-3.4-2.5c-3.1,5.1-3.2,5.7-1.9,7.9C717.2,117,718.7,115.1,720,112.7z M714.5,109.8
		c-0.9-0.8-1.7-1.2-3-0.7c-0.8,2.1-1.7,4.4-2.6,6.8c1.1,0.7,2.1,0.8,3.1-0.1C712.8,113.9,713.5,112,714.5,109.8z M717.2,132.8
		c-2.4,1.7-4.8,1.8-6.5,3.5c1.4,1.1,2.8,1.7,4.6,0.9C716.2,136.2,717,135.1,717.2,132.8z"/>
	<path d="M377,673.9c0-2.5,0.5-4.6,2.4-6.2c-0.9,2.3,0.2,4.7-0.2,7.3c-2.3,2.7-5.6,3.9-8.9,5.1c-2.1,0.8-4.3,1.1-6.2,2.6
		c-1.2,0.9-2.9,1-4.5,0.9c-2.6-0.2-5.2-0.6-7.6-1.6c-3.7-1.6-5.1-4.5-4.1-8.3c0.1-0.3,0.4-0.6,1-0.5c1,2.7-0.3,7,4.9,7.6
		c2.3-1,5.1-1.1,7.9-1.3C367.1,679,372.1,677.1,377,673.9z"/>
	<path d="M386.8,667.9c-0.6,1.6-1.7,1.9-2.9,1.9c-0.7,0.4-0.1,1.1-0.4,1.7c-1.1,0.7-2.2,1.4-3.7,0.4c0.9-1.9,3-2.5,4.1-4.1
		c-4.5-8.7-6.4-22.2-4.5-26.4c1-0.1,1.1,0.7,1.3,1.3c0.7,2.6,0.4,5.2,0.5,7.8c0,1.9,0.2,3.7,1,5.5c1,2.1,1.8,4.4,2.1,6.8
		C384.4,664.7,386.1,666,386.8,667.9z"/>
	<path d="M645.3,655.1c1.7-2.2,4.1-0.6,6-0.4c2.5,0.3,5.6,0.3,6.8,3.8c-1.8,0.3-3.3-0.6-5-0.2c0,1,1.8,1.1,1.4,2.3
		c-5.7,0.9-9.1,0.4-11.3-1.5c0.7-2.3,2.8-1.2,4.2-1.7C647.2,656.2,645.3,656.8,645.3,655.1z"/>
	<path d="M353.2,663.1c2.2-0.7,2.5-1.9,2.5-3.5c3.4,0,6.6-1.1,9.6,1.2c-1.1,1-2.3,1.7-3.1,1.9c-0.1,0.6,0.5,1.1-0.4,2.2
		C359.5,665.3,356.9,664.6,353.2,663.1z"/>
	<path d="M696.8,119.7c4.2-0.7,8.1-0.5,11.9,1.2c2.4,1.1,5.4,0.8,7.8,2.2c0.5,0.3,1.1,0.4,1.1,1.4c-2.9-0.8-5.8-0.9-8.7-1.2
		c-1.5-0.2-2.9-1.3-4.5-1.8c-1.7-0.6-3.3-1.1-5.1-0.7C698.5,121,697.5,120.9,696.8,119.7z"/>
	<path d="M659.5,656.6c-3.7-3.1-8.7-2-12.5-4.5c2.5-1.6,7.4-1.4,10.4,0.2C659,653.1,660.2,654.1,659.5,656.6z"/>
	<path d="M496,656.8c2.4-2.2,8.2-2.9,10.9-1.4c0.1,1.2-0.8,1.6-1.7,1.8C501.9,658.1,498.4,658,496,656.8z"/>
	<path d="M441.9,524.8c0,1.2-0.3,1.8-1.1,2.4c-2.8,0.1-3.7-2.7-5.8-3.5c-0.3-1.9,0.9-2.4,2.1-2.5
		C439.8,520.9,440.6,523.1,441.9,524.8z"/>
	<path d="M634,676.7c-0.1-0.3-0.3-0.6-0.5-1.2c2.5-1.4,5.1-1.4,7.8-0.9c2.6,0.5,4.6,1.7,5.5,4.3c-0.8,0.9-1.4,0.3-1.9-0.1
		c-2.9-2.4-6.2-3.3-9.9-2.2c-0.3,0.1-0.7,0-1.1,0L634,676.7z"/>
	<path d="M508.5,660.1c-2.7,2.6-5.9,2.8-9.4,1C501.8,658.7,506.2,658.1,508.5,660.1z"/>
	<path d="M651.5,663.5c-4,1.2-7.4,0.8-10.6-0.1c-0.3-1.1,0.2-1.7,1-1.7C645,661.5,648.2,661.2,651.5,663.5z"/>
	<path d="M358,673.8c2.5,0.8,5.1,1.3,7.4,2.9c-2,0.4-2,0.4-7-1.5c-2.3-0.1-3.4,1.9-4.8,3.2C352,676.4,353,675.3,358,673.8z"/>
	<path d="M708,150.3c0-1.2,0-2.3,0-3.5c1.8,0.1,2.1,1.2,1.9,2.2c-0.6,2.5-1.3,5.1-4,6.9C705.5,153.3,706.2,151.5,708,150.3z"/>
	<path d="M688,268.9c0.7,5.5,0.3,8.8-1.2,11.4C686.2,278.6,686.8,271.5,688,268.9z"/>
	<path d="M503.4,664.3c3-1.5,3.8-1.5,6.7,0C508.4,666.5,506.8,666.6,503.4,664.3z"/>
	<path d="M418.4,512.8c0.2,0.4,0.6,1,0.4,1.3c-0.6,1.7-1.1,3.4-0.1,5.8C415.4,516.8,415.5,514.6,418.4,512.8L418.4,512.8z"/>
	<path d="M517,680.6c-2.5-0.9-5.1-0.3-7.8-0.6C512,678.1,514.3,678.2,517,680.6z"/>
	<path d="M764.5,327.9c1.4,3.1,2.5,5.6,3.2,8.4C765.2,333.8,763.8,330.8,764.5,327.9z"/>
	<path d="M511.1,667c-1.8,2.1-1.8,2.1-4.9,0.3C508,666.1,509.5,666.4,511.1,667z"/>
	<path d="M681.8,202.7c1.2-1.9,2.9-2.7,5.1-2.9C685.8,201.8,684,202.4,681.8,202.7z"/>
	<path d="M646.7,665.9c-2.4,1.2-3.9,1.6-5.7,0.2C643,665,643,665,646.7,665.9z"/>
	<path d="M780.7,354c1.7,0.1,3.2,0.5,4.7,1.4C782.8,356,782.7,356,780.7,354z"/>
	<path d="M440.5,530.1c1.6,2-0.4,2.6-1.1,3.8C438.6,532.2,440.5,531.5,440.5,530.1z"/>
	<path d="M490.2,672.5c0.8,1.5,0.6,2.8-0.4,4.6C488.8,675.1,489.5,673.8,490.2,672.5z"/>
	<path d="M702.7,138.8c-0.1-1.9-0.2-3.2,1.3-4.2C704.3,136.2,703.8,137.3,702.7,138.8z"/>
	<path d="M688.5,266.7c-0.4-1.7-0.2-2.8,1-3.9C690,264.3,689.5,265.4,688.5,266.7z"/>
	<path d="M708.5,133.5c-1.9-1-2.2-2.1-3.1-3.7C707,130.9,707.8,131.6,708.5,133.5z"/>
	<path d="M691.5,187.6c-0.4-1.1-0.3-2.1,0.2-3.6C692.5,185.6,692,186.6,691.5,187.6z"/>
	<path d="M825.3,428.9c0.5,0.8,0.4,1.5,0.2,2.4C824.5,430.2,824.5,430.2,825.3,428.9z"/>
	<path d="M426.6,525.8c-0.4-1,0.1-1.6,0.3-2.7C428.1,524.6,427.8,525.2,426.6,525.8z"/>
	<path d="M816.8,407c-0.8-0.3-1-0.8-0.9-1.7C816.7,405.6,817,405.9,816.8,407z"/>
	<path d="M489.1,669c-0.7,0.5-0.9,0.2-1.1-0.3C488.8,668,488.9,668.8,489.1,669z"/>
	<path d="M710.2,143.7c-0.6,0.1-0.8-0.2-0.7-0.7c0-0.1,0.4-0.3,0.5-0.3C710.5,142.9,710.7,143.3,710.2,143.7z"/>
	<path d="M722,122.6c-0.5,0.8-0.9,1.4-1.8,1C720.3,122.8,720.8,122.4,722,122.6z"/>
	<path d="M788,355.8c0.5-0.6,1.1-0.3,1.9,0.1C789.2,356.1,788.7,356.4,788,355.8z"/>
	<path d="M418.5,512.9c-0.1-0.8,0.1-1.3,1.2-1.4C419.6,512.5,419.5,513.1,418.5,512.9L418.5,512.9z"/>
	<path d="M770.8,339.6c-1,0.1-1.1-0.4-1.3-0.7C770.2,338.2,770.5,338.9,770.8,339.6z"/>
	<path fill="none" d="M714.8,302.5c-1.8,1.1-3.5,0.3-4.9-0.8c-2.7-1.9-4.6-4.6-5.3-7.8c-1.2-5.1-1.8-10.3-1.9-15.6
		c0-0.7-0.1-1.4,0.7-2.1c2,0.2,4.2,0.9,7.2,0.3c-3-0.6-5.1-1-7.5-1.5c0.3-3.8,1.4-7.3,2.2-10.8s-0.4-7.1,0.5-11.1
		c3.3,2.6,7,3.7,10.8,4.5c4.3,0.9,7-3,10.8-4.3c0.5,1.5-0.2,3.2,1.1,4.5c-1.8,2.1-1.9,4.7-3,7.6c2.4-1.8,1.8-4.3,3.4-5.9
		c-0.1,4.9,2.4,7.9,6.5,9.9c2.3,1.1,4.6,2.4,6.8,3.6c-0.5,7.6,1.4,14.6,4.2,21.3c0.8,1.8,1.7,3.6,1.8,5.7c0.1,1.4,0.7,2.7,1.2,4.1
		c1.5,3.9,2.9,7.8,4.5,11.6c0.4,1.1,0.4,2.1,0.3,3.2c-0.2,3.8-1,7.5-1.6,11.2c-2,2.6-5,3.7-7.5,5.6c1.9,1.1,3.6-1.9,5.4,0.2
		c-2.9,5.6-3.7,11.9-6.2,17.9c-8,1.7-16,2.9-24.3,2.4c-5.2-0.4-10.4-0.8-15.7-0.7c-2.8,0.1-5.5,0.8-8.5,0.4
		c-6.4-0.9-12.5-2.8-18.6-5c0-13.7-1.7-27.3-2.8-40.6c5.2-7,11.9-12.5,15.2-20.5c3.2-7.8,6.5-15.6,8.7-23.6c0.5-0.8,0.9,0.2,1,0.1
		c1.7-0.6,2-2.4,3.6-2.6c0.6,2.1,0.2,4.1-0.7,5.9c-4.3,8.9-3.5,17.8,0.2,26.6c1,2.4,2.4,4.6,3.6,6.8c0.8,0.8,1.2,0,1.8-0.3
		c1.7,1.1,3.1,2.8,5.6,3.3c1-1,2.5-1.2,4-1.5c3.8-0.6,7.4-1.6,10.9-3.2c1.4-0.6,2.8-1.4,3.7-2.5c1.8-3.7,2-7.9,4-11.8
		c-0.1-1.7-0.2-3.7-0.3-5.9c-0.7-0.9-1.5-1.9-2.2-2.9c-0.4,0.3-0.5,0.7-0.4,0.9c1.7,2.8,1,5.8,0.4,8.7c-0.7,3.5-1.8,6.9-3.3,10.4
		c-5,2.4-10.2,4.1-15.9,4.5c0-2.3,0.5-4.6-1.2-7c-0.2,2.6-0.6,4.7,0.1,6.9C714.2,302.5,714.5,302.5,714.8,302.5z M718.2,330.3
		c-0.3,0.9,0.4,1.3,1,1.6c3,1.5,5.9,3,9,4.3c2.7,1.1,5.7,1.6,8.7,1.6c0.9,0,1.7-0.1,1.9-1.1c-1.4-1.4-1.4-1.4-2.2-1.5
		c-5.9-0.5-11.2-2.7-16.6-4.9C719.3,329.9,718.8,329.5,718.2,330.3z M711.2,331.8c-3.1,0.8-5.2,2.6-7.9,3.3
		c-2.6,0.7-5.2,0.9-8.3,0.7C701,338.9,710,336.8,711.2,331.8z M692,335.5c-2-1.8-4-1.7-6.6-2.2C687.5,335.3,689.2,336.1,692,335.5z
		 M727.8,276.5c-2.4-0.5-4.3,0.1-6.7,0.8C723.7,277.9,725.5,277.1,727.8,276.5z M716.8,279.2c-0.4-2.7-0.4-2.7-2-4.3
		C715.2,276.5,715.2,277.9,716.8,279.2z M714.5,325.8c-0.9,1.1-1.4,2.2-1.7,3.6c0.8-0.2,1-0.6,1.2-1.1
		C714.3,327.6,714.8,327,714.5,325.8z M740.8,335.5c0.9,0.9,1.4,0.7,2,0C742,335,741.5,335,740.8,335.5z M707.5,265.8
		c-0.4,0.2-0.3,0.6-0.1,0.9c0.1,0.2,0.3,0.6,0.7,0.3C708.2,266.4,708.3,265.9,707.5,265.8z M708.3,271.9c0.2,1,0.4,1.5,1.2,1.6
		C709.8,272.7,709.7,272.2,708.3,271.9z M706.5,258.8c-0.7,0.7-0.6,1.4,0.1,2C707.2,260.1,707.2,259.5,706.5,258.8z M713,294.7
		c0.7-1,0.1-1.5-0.7-1.9C711.7,293.7,712,294.3,713,294.7z M723.2,272.2c-0.7,0.6-1.3,0.9-0.8,1.6
		C722.8,273.5,723,273.2,723.2,272.2z M709.2,290.5c0.5,0.9,0.6,1.5,1.3,1.2C710.8,291.1,710.2,291,709.2,290.5z"/>
	<path fill="none" d="M709.2,452.7c-1.8,3.7-2.3,7.9-3.7,11.8c-6.2,2.2-12.5,2-18.8,2c-3.6,0-7.2,0.1-10.7-0.1
		c-5.9-0.4-11.4-2.1-16.8-4.4c-0.2-4.2,0.5-8.3,0.8-12.3c0.2-2.6,0.5-5.2,0.7-7.8c0.4-3.8,1.2-7.5,2.4-11.1
		c2.4-7.3,4.8-14.7,7.8-22.1c1.5-0.6,3.2,0,4.9,0.4c6.6,1.4,13.3,2.9,20.1,3.3c8.8,0.4,17.6,1.4,26.4,1c4.9-0.2,9.7-1.3,14.5-2.2
		c4.8-1,9.5-2.4,14.5-1.9c1.3,0.1,2.5-0.8,4.1-0.4c0.2,2.4,0.5,4.9,0.8,7.6c-5.9,0.6-11.8,0.8-17.7,1c5.8,0.4,11.6,0.7,17.5,0.3
		c1.1,3,0.9,6,1.6,8.9c0.6,2.5,1.1,5.1,1.7,7.7c1.6,6,3.5,20.9,3.4,27.5c-3.1,2.2-6.3,3.9-10.6,3.7c-3.8-0.1-7.6,0.4-11.4,1.1
		c-8.1,1.6-15.6-0.8-23.3-3.3c-0.8-3.3-1.6-6.7-2.4-9.9c-0.9-1.1-2.2-1.2-3.1-1.9c-1.2-0.1-1.8,1.2-2.9,1.2c-0.6-1-1.8-1.1-2.8-1.3
		c-3.6-0.8-7.2-1.6-10.7-2.4c-0.9-0.2-1.9-0.7-3-0.2c4.2,1.7,8.5,2.7,12.7,3.7C706.5,452.9,707.8,453,709.2,452.7z M683.2,461.2
		c0.3-0.8,0.6-1.6,0.8-2.3c0.4-2.3-0.8-4-3-4.3c-2-0.3-4,1.1-4.3,2.9c-0.2,1.8,1.6,3.8,3.7,4C681.3,461.4,682.2,461.2,683.2,461.2z
		 M667.3,459.9c-0.2-0.8-0.3-1.4-0.5-2.3c0.8-0.9,2.2-1.9,1-3.7c-1.3-1-2.9-1.5-4.8-0.9c-0.7,2.1-0.9,4.1-0.6,6
		c1.6,0.2,1-1.8,2.5-1.5c0.2,0.3,0.4,0.7,0.7,1.1C666,459.1,666,459.8,667.3,459.9z M672.7,460.7c2,0,3.7-1.6,3.7-3.5
		c-0.1-2-1.8-3.4-3.8-3.4c-1.9,0.1-3.5,1.5-3.5,3.3C669,458.9,670.8,460.7,672.7,460.7z M730.5,447.5c-2.9,0.5-5.8,0.4-8.2,2.3
		C725,449.5,727.8,448.7,730.5,447.5z M703.3,447.4c2.6,1.2,2.6,1.2,4.1,0.7C706,448,705,446.6,703.3,447.4z M680.2,421.8
		c1.2,0.9,2.5,1.1,3.9,0.4C682.7,422.1,681.3,422,680.2,421.8z M671.5,418.3c0.1-0.1,0.1-0.2,0.2-0.2c-0.9,0-1.8,0-2.6,0
		c0,0.1,0,0.2,0,0.2C670,418.3,670.8,418.3,671.5,418.3z"/>
	<path fill="none" d="M684,545.8c-3.5,1.4-3.8,4.3-4.1,7.2c-0.2,1.6-0.1,3.3,0,5c1.1,13.5-1.2,26.6-5.4,39.3
		c-2.7,8-3.8,16.2-4.7,24.4c-0.5,4.6-1.7,9.1-2.5,13.7c-0.1,0.8-0.4,1.7-1.5,1.6c-0.5,1.6,0.1,3.2-0.6,4.8c-1-1.2-0.7-2.8-1.9-4
		c-2-1.4-4.5-1.4-7.1-1.5c-0.6-2.8-0.8-5.4-0.4-8.2c0.5-3.4,0.5-6.9,0.1-10.3c-1.4-15.3-1.4-30.7-1.9-46c-0.2-6.6,1.1-13.1,3-19.3
		c2.5-8.1,4.2-16.1,3-24.8c-1.8-13.9-1.4-28-1-42.1c0.2-6.3-0.3-12.6-0.2-18.9c0-0.7-0.1-1.4,0.4-2.2c5.6,3,11.6,3.6,17.9,3.7
		c5.5,0.1,10.9,0.8,16.4,0.7c3.8-0.1,7.6-0.3,11.8-2.2c-2.8,6-3.5,12-6.1,17.5c-6.4,13.5-10,27.7-10.3,42.7
		c-0.1,4.1-1.8,7.6-3.3,11.2C684.8,540.4,683.2,542.7,684,545.8z M672.3,551.7c5.1-2.9,5.1-2.9,4.1-7.9c3.8-5.2,3.8-5.2,3.2-7.7
		c-2.1,2.2-2.6,5.1-4.4,7.4C677,547.1,673.5,548.9,672.3,551.7z M662.2,543.2c1.4-2.3,1.6-3.3,0.9-5.6
		C662,539.5,661.7,541.2,662.2,543.2z M664.2,535.6c0.7-1.5,0.8-3-0.3-5.2C663.3,532.7,663.2,534.2,664.2,535.6z M672.2,554.8
		c-2.1,1.9-2.1,2-2.1,4.5C671.2,557.8,672,556.5,672.2,554.8z M663,551.5c0.4-2.7,0.4-2.7-1-4.5C661.7,548.7,662.3,550.1,663,551.5z
		 M691.7,494.3c-0.3-1.3-0.4-2.8-1.7-4C689.8,492.2,690.2,493.5,691.7,494.3z M666.7,631.4c0-1.2,0.5-2.2-0.9-3.8
		C665.8,629.3,665.5,630.3,666.7,631.4z M666.7,567.9c-0.6,0.7-1.1,1.2-0.4,2.3C666.8,569.5,667.3,569,666.7,567.9z M665.8,623.9
		c-0.3,0.7-0.5,1.2,0.4,1.8C666.3,624.9,666.8,624.5,665.8,623.9z"/>
	<path fill="none" d="M764,640.4c-2.6,0.6-5.2-0.6-6.6,1.9c-0.9-0.6-0.1-1.7-1-2.3c-1.7,0.7-0.1,3.1-2,4c-0.2-4-0.4-7.8-0.9-11.6
		c-1.3-9.7-2.4-19.4-3.6-29c-0.4-3.4-1.1-6.8-2.6-10c-2.1-4.6-3-9.5-3.3-14.5c-0.3-4.2-0.7-8.3-1-12.5c-0.3-4.8-2-9.3-3.3-13.9
		c-2.5-8.8-4.6-17.7-5.4-26.9c-0.6-8.1-3-15.9-5.9-23.5c-3.7-9.5-5.9-19.3-8.7-29c-0.6-2.3-1.1-4.6-1.7-6.8c1.1-0.7,1.7,0.2,2.4,0.5
		c4.1,1.6,8.4,2.6,12.8,3.2c4.1,0.6,8-0.7,12-1c1.3-0.1,2.6-0.5,3.9-0.5c4.8,0.2,9.5-0.5,14.1-3.9c0,2.8-0.1,5,0,7.2
		c0.5,10.7-0.7,21.4-1.5,32.1c-0.4,5.4-0.4,10.9-1.2,16.4c-0.5,3.5,0.1,7.1,1.1,10.6c0.8,3,1.3,6,1.3,9.2c0,5,0.5,9.9,2.7,14.5
		c1.3,2.6,1.7,5.4,2,8.3c1.6,12.6,1.2,25.2-0.7,37.7c-0.6,4.1-1,8.3-1.3,12.4c-0.5,7.5-1,15-1.6,22.4
		C763.8,636.9,763.7,638.6,764,640.4z M756.8,531.6c0.3,3.1-0.2,6.1-0.5,9.1c0,0.2,0,0.5,0.1,0.7c0.8,3.5,1.9,6.9,0.9,10.6
		c4.3-4,1.6-7.9-0.1-11.7C758.3,537.3,759.2,534.4,756.8,531.6z M752.7,561.5c-0.2-0.4-0.3-0.9-0.5-1.3c-1-2.6-3.1-4.8-2.8-7.8
		c0-0.5-0.3-1.4-1.1-1.2C747.8,555.5,749.8,558.7,752.7,561.5z M747.7,550.3c-0.5-3-0.9-5.5-1.3-8.3
		C744.2,544,744.7,546.7,747.7,550.3z M729.7,500.8c0.2-1.9-0.4-3.1-1-5C728.3,497.8,728.2,499.2,729.7,500.8z M756.5,633.1
		c-1.1,0.8-0.8,1.6-0.4,2.8C757,634.9,757,634.1,756.5,633.1z M755.2,570.6c0.2-1.2-0.3-1.9-1.2-2.7
		C753.8,569.2,754.2,569.9,755.2,570.6z"/>
	<path fill="none" d="M691.8,404c0.9,1.8,2.2,3.3,3,5.7c-8-0.7-15.5-3-23.4-4.2c0.4-4.3,1.3-8.3,3.2-12.1c1.4-2.8,3.2-5.4,4.3-8.1
		c1.9-4.7,2.7-9.8,2.1-15.1c-0.5-4.5-1.2-9-2.3-13.3c-0.1-0.6-0.2-1.1-0.3-1.5c0.3-0.6,0.7-0.6,1-0.5c7.6,2.6,15.6,3.9,23.5,3.7
		c6.7-0.1,13.3,0.8,19.9,0.9c7.3,0.1,14.4-1.3,21.5-3c0.3-0.1,0.6-0.1,1.1-0.2c0.3,1.3-0.3,2.4-0.6,3.5c-2.2,7.1-2.2,14.3-1.4,21.6
		c0.6,4.7,3,8.7,5.2,12.8c1.4,2.6,2.9,5.2,4.4,7.8c0.5,1,1.4,2,1.2,3.6c-10.1,0.4-19.7,3.9-29.9,4.6c-5.4,0.4-10.7,0.4-16.1,0
		c-3.9-0.2-7.8-0.4-11.7-0.6c-1.3-2.1-2.3-4.4-4.1-5.9C692,403.5,691.8,403.7,691.8,404z M710.2,385.9c-1.1,2.4-1,2.7,1.8,4.7
		c1-0.1,1.7-0.4,2.3-2C712.2,388.8,711.3,387.2,710.2,385.9z M741.7,386.6c-0.8,1.8-0.8,1.8-0.7,4
		C741.7,389.3,742.5,388.1,741.7,386.6z M712.2,379.7c0.8-0.2,0.9-0.7,0.9-1.2s0.2-1.2-0.7-1.3C711.8,378,711.8,378.8,712.2,379.7z
		 M689,401c0.2-1.2-0.1-2.2-1.2-3C687.3,399.4,688.2,400.2,689,401z M712.2,368.2c0.5-0.8,1.4-1.3,0.2-2
		C711.8,366.7,711.8,367.3,712.2,368.2z M685.2,395.5c0.2-1.2-0.2-1.9-0.8-2.5c-0.4,0.5-0.3,1-0.2,1.4
		C684.2,394.8,684.5,395.2,685.2,395.5z"/>
	<path fill="none" d="M709.8,195.5c-0.1-0.8-0.1-1.6-0.2-2.4c0.7-0.9,1.6-1,2.8-1.1c-0.5,3.9,1.6,7.2,1.2,11.4
		c1.4-1.2,3-0.6,4.4-1.3c1.7-3.1,3.2-6.3,2.4-9.9c0.4-0.2,0.6-0.4,0.8-0.4s0.4,0.1,0.6,0.2c0.7,0.7-0.5,6.5-1.8,9.4
		c2.5-1.7,2.5-1.7,3.7-8.7c1.1,0.7,2.2,1.4,3,1.9c0.6,1.1,0.1,1.8-0.2,2.9c-0.9-0.9-0.2-2-1.2-2.7c-0.7,2-1.3,3.8-0.1,5.8
		c1.2-0.9,1.8-2.2,2.7-3.2c0.8,1.6-1.4,2.4-0.9,4c1.5-0.5,1.7-2.2,3.1-3.1c0.4,1.3,0.7,2.6,1.7,3.1c0.3,1.2-0.6,1.7-0.7,2.4
		c0.2,0.8,0.6,0.2,0.9,0.5c0.1,1.1-0.1,1.6-1.1,2.3c0.6,1.2,1.4,1,2.3,0.1c0.4,2.1-1.1,3.7-0.3,5.3c-0.8,0.6-1.1-0.4-1.7-0.1
		c0,0.9,0,1.8,0,2.7c0.4,1.2,1.7,1.4,2.3,2.3c0.7,0.8,0.5,1.8,0.6,2.8c0.8,4.8,1.2,9.6-0.6,14.4c-0.7,1.9-0.7,4-1,6
		c-0.8,6.5-4,11.3-9.8,14.5c-4.7,2.6-12.6,1.2-16.4-2.9c-3.5-3.7-4.9-8.4-6.6-12.9c-0.8-2.1-1.3-4.4-2.5-6.3
		c-1.4-2.2-1.6-4.6-1.2-6.9c0.4-2.6,0-5.1,0-7.7c0.2-0.9,1.3-1.1,1.3-2.1c0.1-1.3-1.2-2-1.3-3.2l-0.1,0.1c1.3-0.7,1-1.8,0.5-2.8
		c-0.4-0.9-0.9-1.7-1.3-2.5c-0.6-1.2-0.9-2.4,0-3.8c1.1,1,0.4,2.6,1.2,3.6c1.9-0.9,1.7-2.3,1.2-3.8c1.3-0.5,1.1,1.3,2.1,1
		c0.5-0.2,0.3-0.6,0.3-1.1c0.7-0.2,1.3-0.5,1.7-1.2c-0.1-0.8-0.9-1.4-0.7-2.3c0.6,0.1,0.7,1,1.5,0.7l-0.1-0.1
		c-0.2,0.9,0.2,1.5,1.2,1.7c0.1-0.3,0.2-0.6,0.3-0.9l-0.1,0.1c0.8-0.5,1.5,1.1,2.2,0.1c0.2-0.1,0.4-0.2,0.7-0.2
		c1.9-0.1,2.7,2.3,4.7,2.1c1.5-1.8,1.5-2.4,0.1-7.1c-0.9,0.8-1.2-0.6-1.9-0.5L709.8,195.5z M730.5,221.8c0.4-0.3,0.6-0.6,0.5-1.1
		c-0.6-0.4-1.3-0.3-1.9-0.3c-3.4-0.8-5.3-0.1-7.5,2.9c-0.3,0.4-0.1,0.6,0.2,1c0.7,0.8,1.4-0.9,2.1-0.2c1,0.3,0.1,1.6,1.1,2
		c0.4,0,0.8-0.1,1.3-0.1c0-1.4,0.5-2.4,1.6-3.2c1,0,1.9,1.8,3.1,0.2C730.8,222.6,730.7,222.2,730.5,221.8z M707.2,226.3
		c0.9-0.6,1.8-1.1,2.6-1.7c0.9,0.1,1.6,1.4,2.6,0c-1.6-0.8-2.4-2.6-4.3-3.3c-1.1,0.2-2.4,0.4-4.1,0.7c0.8,0.4,1.2,0.6,1.6,0.8
		c-1.1,1-2.7,1.3-3.7,2.6c1.5,0.7,2.2-1,3.6-0.6C706.2,225.3,706.8,225.9,707.2,226.3z M725.5,243.5c-6-2.4-10.7-0.3-15.5,0.8
		c0.1,0.7,0.7,1,1.3,0.9C715.8,244.5,720.5,244.8,725.5,243.5z M700.8,219.3c4.3-1.2,8.6,0,12.8-0.6
		C709.2,217.1,705,217.2,700.8,219.3z M723.8,246.3c-3.6,1.3-7.3,1.7-11.3,0.5c2.1,2.2,2.2,2.2,4.8,2.3S721.8,248.2,723.8,246.3z
		 M720.2,218.9c3.3-1.8,6.9-2.4,11.3-2.4C727,214.8,722.8,215.8,720.2,218.9z M713,236.6c-0.9-0.3,0.2-1.5-0.9-1.6
		c-0.5,1.1-0.4,2,0.8,2.9c0.9-0.4,2.4,0.3,3-1.3C714.8,235.4,713.8,236.8,713,236.6z M699.5,216.2c-0.3,0.7-0.5,1.2,0,1.8
		C700.3,217.6,700.3,217.1,699.5,216.2z M720.7,233.6c-0.1,0.8,0.3,1.1,1.4,1.6C721.5,234.3,721.5,233.8,720.7,233.6z M718.3,236.4
		c-0.1,0.5,0.1,0.8,0.4,0.9c0.5,0.1,0.9-0.1,0.9-0.7c-0.1-0.2-0.3-0.5-0.4-0.5C719,236.1,718.7,236.3,718.3,236.4z"/>
	<path fill="none" d="M755.5,670.2c-3.1-0.7-4.4-2.9-5.1-5.7c-0.5-2.3-0.8-4.7-0.4-7.2c1.8-1.8,2.4-4.1,1.9-6.7
		c4.3-0.8,4.2-5.4,7.5-7.5c2.1-0.2,4.8,0.3,7.4-0.5c2.4,2.3,1.6,5.6,4,8.2c-2.1,0-3.6,0-5.1,0c-1.4,0-2.8,0.2-4.2,0.7
		s-3,0.7-3.2,3.2c4.6-1.8,9.1-2,13.6-1.6c0.9,0.4,1.7,1.1,2.1,2.1c-0.2,0.4-0.4,0.6-0.8,0.5c-3.4-0.8-6.8-0.8-10.3-0.6
		c-1.4,0.1-2.9,0.1-3.7,1.5c0.3,1.2,1.2,1.2,2,1c4.3-0.9,8.5,0.8,12.8,0.2c0.6-0.1,1,0.5,1.3,1.3c-4.6-0.8-9.2-1.4-13.9,0.5
		c2,2.2,5.1,2.4,14.8,1.3c1.2,1.5,2.5,3.1,3.8,4.9c1.3,1.7,1.9,3.8,3.4,5.4c0.3,3-0.2,5.8-0.8,8.8c-2.3-1.3-4.8-1.5-7.4-2
		c-1.8,2.1-4.9,1.6-7.1,3.4c1.8,0.8,1.8,0.8,7.9-1.1c1.8,0.4,3.7,0.9,5.8,1.4c-3.5,1.6-10.1,2.5-13.8,1.6c-2.4-0.5-4.9-0.5-7-2.2
		c-4.1-3.4-4.2-3.6-3.4-8.8C757.2,671.3,756,671,755.5,670.2c0.4-0.1,0.9,0.3,1.4-0.4c-0.2-1.1-0.5-2.2-1.8-2.8
		C754.8,668.2,755.8,669.1,755.5,670.2z M765,664.6c4.3,2,7.9,0.5,11.9,0.4C774,661.8,769,661.6,765,664.6z M769.7,668.2
		c2.6,1.4,4-0.3,5.6-1.2C773.3,666.7,771.3,665.7,769.7,668.2z"/>
	<path fill="none" d="M692.7,234c0.8,1.7,2.2,2.8,3.5,3.9c0.5-0.3,0.9-0.5,1.3-0.7c0.2,0.2,0.5,0.3,0.5,0.4c1.6,3.3,2.4,6.9,4,10.2
		c1.4,2.8,0.6,5.8,0.3,8.8c-0.1,1.5-0.7,3,0.2,4.3c-1,1.1-1.8,2-2.6,3c-1.9-1.7-3.9-3.4-5.8-5c-1.1-0.9-1.4-2.1-1.6-3.5
		c-0.6-5.4-1.2-10.9-0.3-16.3C692.5,237.5,692.5,235.8,692.7,234z"/>
	<path fill="none" d="M694,121c-1.4,2.4-0.7,4.8-0.2,7.4c-0.5,1-1.1,2.2-1.7,3.4c-0.6,1.1-0.8,2.5-1.8,3.4c-4-3.8-4.8-8.6-1.9-13.1
		C690.2,121.6,692.1,120.8,694,121L694,121z"/>
	<path fill="none" d="M704.2,191.1c-0.4-0.8-1.3-0.5-1.8-0.9c2.4-3.5,6.8-3.8,10.9-0.8c-0.7,0.9-1.7,0.6-2.4,0.9
		c-1.4-0.6-1.9-2.2-3.5-2c0.3,1.1-0.8,1.8-0.5,2.7C705.8,191.8,704.8,191.6,704.2,191.1L704.2,191.1z"/>
	<path fill="none" d="M715.5,194c1.8,0.4,0.9-2,2.2-2.2c2.1,3.6,1.8,5.9-1.2,9.1c-0.1-2-0.6-3.8,0.3-5.6
		C716.2,194.8,715.8,194.4,715.5,194L715.5,194z"/>
	<path fill="none" d="M709.8,195.4c-0.3,1.5,0.7,2.7,0.6,4.2c-0.8,0.3-0.7-0.8-1.3-0.8c0-1.1-0.5-2-1.3-2.9
		c-0.4,1.3,0.6,2.1,0.5,3.1c-1.9-1.2-2.2-3.3-2.8-5c0.3-1,1.1-0.9,1.8-1.3c1.1,0.6,1.2,2.2,2.5,2.8V195.4z"/>
	<path fill="none" d="M699.8,202.7c-0.8-0.3-0.8-1.5-2.3-1.5c-0.3,0-0.2,1.2-1.3,1.1c-0.3-2.4,1.3-3.5,2.7-4.7c0.9,0,1,0.5,1.3,0.8
		c-0.5,0.1-1,0.3-0.8,0.9C700,200.4,699.7,201.6,699.8,202.7z"/>
	<path d="M699.8,202.7c-0.2-1.1,0.1-2.3-0.4-3.4c-0.2-0.5,0.3-0.8,0.8-0.9c0.3,0.4,0.6,0.9,1,1.3c-0.2,0.9,0.6,1.5,0.7,2.3
		c-0.4,0.7-1,1-1.7,1.2C700,203.1,700,202.9,699.8,202.7z"/>
	<path fill="none" d="M693.3,224c-0.6-1.3-1.4-2.7,0-4c1,2.1,1,2.1-0.1,3.9L693.3,224z"/>
	<path fill="none" d="M705.3,198.5c-0.7-1.4-2-2.5-1.9-4.9c1.6,1.9,2,3.7,2.8,5.3c-0.3-0.1-0.5-0.2-0.8-0.3L705.3,198.5z"/>
	<path fill="none" d="M696.7,236.5c-1.4-1.1-2.1-2.1-2.7-3.3C696.7,233.7,696.7,233.7,696.7,236.5z"/>
	<path fill="none" d="M737.3,224.2c0.5,1.7,0.6,3.1-0.1,4.4C736.2,226.3,736.2,226.3,737.3,224.2z"/>
	<path fill="none" d="M694.2,228.3c-0.5,0.8-0.9,1.4-1.3,2.1c-0.6-1.2-0.5-2.4-0.7-3.8C693.2,226.7,693.5,227.4,694.2,228.3z"/>
	<path fill="none" d="M702.5,199c-1-0.7-2.2-1.4-2-3.1c1.5,0,1.4,2.1,2.7,1.9C703,198.2,702.8,198.6,702.5,199z"/>
	<path fill="none" d="M702.5,199c0.3-0.4,0.5-0.8,0.8-1.3c0.7,0.2,1.4,0.5,2.1,0.7l0.1,0.1c0,0.6,0,1.2,0,1.8
		c-0.5-0.3-1-0.6-1.5-0.9C703.5,199,703,199,702.5,199L702.5,199z"/>
	<path d="M708.3,199c0.1-1-0.9-1.8-0.5-3.1c0.8,0.9,1.3,1.8,1.3,2.9C709,199.1,708.8,199.4,708.3,199z"/>
	<path fill="none" d="M734.5,212.9c0.4,1.4-0.1,1.9-1.6,2C733.2,213.9,733.5,213.1,734.5,212.9z"/>
	<path fill="none" d="M704,191c-0.6,0.9-1.6,1.2-2.5,1.8c-0.7-0.5-0.3-0.9-0.1-1.4C702.2,190.6,703.2,191.2,704,191L704,191z"/>
	<path fill="none" d="M826.3,449.8c-0.5,1.3-1.1,1.8-2.1,2.2C824.2,450.4,825.2,450.4,826.3,449.8z"/>
	<path fill="none" d="M702.5,199c0.6,0,1.1,0,1.5,0.5c0,0.5,0,1.1,0,1.6l0.1-0.1c-0.5-0.2-1-0.5-1.5-0.7l0.1,0.1
		C702.7,200,702.5,199.5,702.5,199z"/>
	<path d="M705.5,200.4c0-0.6,0-1.2,0-1.8c0.3,0.1,0.5,0.2,0.8,0.3c0.7,0.5,0.7,1.3,0.7,2c-0.2,0.1-0.4,0.2-0.7,0.2
		C706,200.9,705.8,200.7,705.5,200.4z"/>
	<path fill="none" d="M696.2,212.5c-1.3-0.1-1.4-0.9-1.2-2C695.8,211,696.2,211.6,696.2,212.5L696.2,212.5z"/>
	<path fill="none" d="M693.2,223.9c0.1,0.5,0.3,1,0.4,1.5c-0.7,0-1-0.6-1.4-1c0.5-0.2,0.8-0.3,1.1-0.4L693.2,223.9z"/>
	<path fill="none" d="M735.2,233.3c0.5,1.4,0.4,2.1,0.2,2.8c-0.8,0.1-0.5-0.5-0.5-0.8C734.8,234.7,735,234.3,735.2,233.3z"/>
	<path fill="none" d="M715.5,193.9c-1.1-0.2-1.3-1-1.4-2C716.2,191.9,715.3,193.2,715.5,193.9L715.5,193.9z"/>
	<path fill="none" d="M753.8,645.9c-0.1,0.1-0.2,0.4-0.3,0.4c-0.2,0-0.4-0.2-0.5-0.3c-0.2-0.4,0.1-0.6,0.5-0.5
		C753.7,645.5,753.8,645.7,753.8,645.9z"/>
	<path fill="none" d="M375,639.6c-0.6-3.2-0.6-6.1-1.9-8.8c-0.8,3.5,0.5,6.7,0.8,10.1c-0.1,0.8-0.7,1.2-1.6,1.5
		c-2.1-1.4-4.4-2.9-6.3-4.2c-1.6-0.5-2.6,0.3-4.1,0.6c-0.9-6.1-2.5-12.1-2.4-18.3c0-4.3,0-8.6-0.5-12.8c-1.6-15.5,0-30.9,0.1-46.4
		c0-5.6,1.7-11.1,4-16.2c3.2-6.9,4.6-14,4.9-21.4c0.1-2.7,0.5-5.4,0.9-8.1c0.9-5.4,1.8-10.8,2.6-16.2c0.6-4,1.6-7.9,3.2-11.7
		c2.2-5.3,4.7-10.4,5.7-16.1c5.5-0.4,10.5-0.1,15.6,1c4.2,1,7.5,3.6,10.7,6.2c3.2,2.7,6.3,5.5,9.5,8.1c1.3,1,2.1,2.3,2.5,3.8
		c0.3,1,0.7,2,1.1,3.2c-2.1,3.4-4.8,6.5-7.7,9.6c-5.1,5.5-10.1,11.1-14.7,17c-5.1,6.5-8.8,13.6-9.9,21.8c-0.2,1.2-0.3,2.3-1.4,3.1
		c-0.9,0.7-0.7,2-0.7,3c-0.2,3.7,0,7.4,0.4,11.1c1,10.9-0.1,21.5-4.4,31.8c-1.5,3.6-2,7.6-2.9,11.4c-1.8,8-3,16.1-2.5,24.4
		c0.2,3.9-0.6,7.8-0.1,11.7C376,639,375.5,639.1,375,639.6z M379.8,534.6c-2,3.2-0.6,7.1-3.1,10.5c2.2-0.2,3.3-1.4,3.2-2.5
		C379.5,540,381.5,537.3,379.8,534.6z M389.9,529c2.3-2.5,2.9-4.1,2.7-7.1C391.4,524.1,390.6,526.2,389.9,529z M378.4,564.4
		c0.2-2.1,2.3-3.9,1.4-6.7C378,559.9,378.5,562.2,378.4,564.4z M368.6,536.2c2.2-2.7,2.2-2.7,1.7-4.7
		C369.1,532.9,368.9,534.3,368.6,536.2z M369.9,536.9c-1.4,1.7-2,2.8-0.5,4.4C370,540,370,538.8,369.9,536.9z M377.1,573.1
		c0.4-1,0.9-1.8,0.3-3C376.8,571.1,376.9,572,377.1,573.1z M395.1,512.7c-0.5,0.8-0.8,1.6-0.7,2.8
		C395.5,514.5,395.6,513.7,395.1,512.7z M373.4,624.4c0-1.4,0.3-2.1-0.5-3.1C372.8,622.3,372.5,623,373.4,624.4z M398,507.5
		c-0.4,0.4-1.2,0.7-0.4,1.4C398,508.5,398.5,508.2,398,507.5z"/>
	<path fill="none" d="M456.6,504.8c0.9-0.5,1.1-1.2,1-2.3c-0.5-6.1,1.9-10.9,6.4-14.8c3.4-3,6.7-6.1,10.7-8.3c5.3-3,11-3.6,17-2
		c1.8,3.7,3.2,7.4,3.8,11.5c1.4,9.1,3,18.1,4.1,27.2c0.7,5.6,1.2,11.3,1,17.1c-0.1,4.6,0.5,9.2,0.7,13.9c0.3,6.9,0.9,13.8,1.5,20.6
		c0.7,7.7,0.6,15.4,0.4,23.1c-0.1,6-0.7,11.9-1.1,17.8c-0.6,9.1-0.3,18.1,0.1,27.2c0.1,1.4,0.3,2.8-0.1,4.2c-1.9,0-3.2-1.2-4.6-1.9
		c-3.5,0.9-5.8,2.8-5.8,6.7c0,1.2-0.4,2.4-1.5,3c-2.5-2.5-0.2-5.5-1.2-8.2c1.9-2.3,2.4-5,1.8-7.9c-0.5,1.6-0.9,3.3-1.4,5
		c-0.5-0.8-0.4-1.6-0.4-2.4c0.2-6.1-1.4-12-2.3-18c-1.2-8.3-4.3-16.1-6.6-24c-1.7-5.9-2.3-11.9-3.1-17.9c-0.4-2.8,0.7-5.9,1-8.8
		c0.6-7.5,1.4-14.9-0.2-22.4c-1.5-6.9-3.7-13.5-8.1-19.3c-2.4-3.2-4.3-6.8-6.8-10c-1.4-1.8-3.2-3.1-4.4-5.1
		C457.9,507.4,457,506.3,456.6,504.8z M490.9,539.7c-2.2,1.5-1.7,3.3-1.3,4.9c0.9,3.6,1.1,3.8,3.9,4.6c0-1.6-1.4-2.4-2-3.7
		C491.2,543.8,491.9,541.9,490.9,539.7z M493,523.1c0.9-2,0.7-4.1,0.2-6.8C492.5,519,492.2,521,493,523.1z M489.5,565.9
		c-0.8,1-0.5,1.9,0,2.9C490.1,567.8,490.2,566.9,489.5,565.9z M489.6,582.8c-1,0.4-0.8,1-0.4,1.9C490,584,490,583.5,489.6,582.8z
		 M492,510.3c0-0.2,0.1-0.4,0-0.6s-0.2-0.9-0.5-0.1C491.5,509.9,491.5,510.3,492,510.3z M492.4,622.3c-0.1,0.5-0.5,1.1,0.2,1.5
		C492.6,623.3,492.8,622.7,492.4,622.3z"/>
	<path fill="none" d="M409.1,467.1c2.3,3.7,4.7,7.4,7,11.1c2.3,3.6,4.6,7.2,6.1,11.4c-0.1,0.8-0.1,1.8-1.4,2.3
		c-0.5-4.2-2.7-7.2-6.4-9.2c-0.9-0.5-1.6-1.4-2.3-2.2c-7.2-8.8-16.7-12.2-27.8-11.9c-0.6,0-1.2,0-1.7,0c-0.3-1.2,0.4-1.9,0.8-2.7
		c2.3-4.8,4.5-9.7,6.2-14.8c2.3-6.7,6.5-12.1,11.3-17.3c1.5,0.6,1.3,2.6,2.7,3.2c0.8-0.6,0.1-1.2,0-1.8c-0.5-2.1-1.3-4.1-1.6-6.2
		c-0.8-7-2.9-13.9-3.1-21c-0.1-4.4-0.5-8.6-1.8-12.9c-3-9.8,0.2-18.3,6.9-25.6c0.5-0.5,1-1.1,1.6-1.3c3.6-1,6.1-3.6,8.8-6
		c2.2-2,4.5-3.8,7.3-6.2c0,2.4,0.2,4.3,0,6.1c-1,7,0.6,13.7,2.4,20.4c0.9,3.2,1.5,6.5,1.5,9.8c0,2.6-0.4,4.9-1.6,7.2
		c-1.3,2.5-2.6,5.1-3.6,7.3c-0.8,1.1-1.9,0.7-2.5,1.3c0.1,0.2,0.1,0.5,0.2,0.6c0.8,0.5,1.1,1.2,1,2.1c-0.6,5.1,0.6,10,2.2,14.7
		c1.4,4.3,1,8.5,0.3,12.7c-0.6,3.6-0.3,7,0.6,10.5c0.2,0.9,0.7,1.8,1.1,2.6c4.1,7.1,7,14.5,8.1,22.7c0.9,6.7,3.8,12.7,6.5,18.8
		c0.9,2.1,2.6,2.6,4.6,2.7c0.7,0,1.4,0,2.2,0c1.2,1.5,1.5,3,1.1,5c-0.5,2.4-0.2,5,0,7.5c0.2,2.2-0.5,3.8-2.8,4.3
		c-1.5,0.3-1.7,2-3,2.3c-1,0.5-1.8-0.5-2.9-0.5c-0.8,0.5-1.7,1-2.8,1.7c-1.5-0.7-3.1-0.3-4.7,0.3c-1.4-1-2.7-2-4-3
		c-0.2-2.4,0.6-4.8-0.7-6.9c1.3-2.6,1.6-5.4,3.2-7.7c0-1.1-0.5-2-1-3c-3.6-7.8-7.3-15.5-12.3-22.5c-4.2-5.9-6.3-12.5-7.6-19.5
		c-0.2-1.1-0.6-2.4,0.4-3.5c-2.7-3.4-2.5-7.7-3-11.7c-2.1,0.3-0.7,2.6-2.2,3c0.9,1.3,1.4,2.5,0.6,4.1c1.1,1.5,2.2,3,3.3,4.5
		c-0.7,2.6,0,5.1,0.4,7.7c0.6,3.4,2.2,6.5,2.6,10c-3.1-3-4.2-3.2-7.1-1.1c0,3.4,0.3,3.6,5,4.6C408.5,469.9,408.8,468.5,409.1,467.1z
		 M392.5,465.1c-0.7-2.1,1.9-2.3,1.9-4c-0.7-2.1-2.7-2.1-4.4-2.7c-2.5,3.4-2.7,4.1-2,4.9c1,0.4,1-1.3,2.1-0.8
		C391.4,462.8,390.9,464.4,392.5,465.1z M395,462.8c-0.5,3.1,1,5,3.7,4.8c1.1-0.1,2.1-0.5,2.5-1.6c0.4-1.3,0-2.4-1.1-3.1
		C398.5,461.6,396.8,461.5,395,462.8z M414.8,368.8c-1.6-0.2-3.3-0.7-4.9,1.4C412,370.4,413.5,369.8,414.8,368.8z M398.6,395.9
		c0.7,2.5,0.7,2.5,2.2,3.5C400.2,398.2,399.9,396.9,398.6,395.9z M402.5,416.9c-0.2-1.1-0.5-2.1-1.9-2.3
		C400.5,416,401.4,416.5,402.5,416.9z M429.2,495.8c0.1-1-0.2-1.7-1.1-2C427.9,494.8,428.1,495.4,429.2,495.8z M427.9,507.5
		c0-0.7-0.1-1.1-0.6-1.3c-0.1,0.2-0.3,0.4-0.3,0.6C427,507.1,427.1,507.5,427.9,507.5z"/>
	<path fill="none" d="M457.8,429.8c-2,0.6-4,1.2-6.1,1.8c-6.7,2.2-13.5,2.1-20.4,0.7c-4.8-0.9-7.3-3.9-8.4-8.2
		c-1.3-5.1-2.2-10.2-2.2-15.7c2.6-3.1,4.1-7,6-10.7c1.6-3.1,1.5-6.7,0.8-10.2c-0.7-3.3-1.5-6.5-2.4-9.7c-1.8-7-2-14.1-1.3-21.3
		c0.4-4.1,2.1-7,6.5-7.7c0.8-0.1,1.6-0.5,2.3-0.8c1,0.7,0.1,1.4,0,1.9c-0.7,2.5-0.8,5-0.3,7.4c1.2,5.6,2.3,11.1,3,16.8
		c0.9,7.5,4.1,14.4,6.5,21.5c0.8,2.5,1.8,4.9,3.5,7c1.4,1.7,3,2.6,5,3.1c3,0.6,6,0.9,8.9,0.2c5-1.2,9.8-2.6,14.4-5.2
		c5.9-3.3,8.7-8.5,9.9-14.9c1.1-6.2,0.9-12.3,0-18.5c-0.8-5.3-2.5-10.4-5.8-14.8c-2.4-3.1-4.5-6.4-6.4-9.9c-0.8-1.5-2-3.1-0.6-5
		c1.5,0.6,3,1.1,4.6,1.7c4.9,7.1,8.6,14.7,11.8,22.7c2.1,5.3,4.1,10.7,7.4,15.4c1.2,1.8,1.4,3.8,1.7,5.8c0.9,5,1.5,10.1,2.3,15.2
		c0.6,3.9-0.2,7.5-2.3,10.9c-2.5,4.2-5.7,7.6-9.4,10.6c-2.4,1.9-5.3,2-8.1,2.5c-1.3,0.2-2.6,0-3.9,1.3c2.8,0.4,5.2,0.2,8.3-0.3
		c-1,1.4-0.5,3.3-2.7,2.9c-0.3,0-0.7,0.6-1,1c-2.8,3.4-6.5,5.1-10.6,6.1c-6.2,1.6-12.5,3.8-18.8,4.2c-8.7,0.6-17.7,1-25.1-5.4
		c5.4,2.2,10.9,3.3,16.7,2.8C447.1,434.7,452.9,433.5,457.8,429.8z"/>
	<path fill="none" d="M466.2,343.5c0.9,0,1.1-1.3,2-1.3c0.9,2.9,0.6,6.1,1.8,9.1c1.6-1,1-2.6,1.3-4c5.7,7.2,9.7,14.9,10,24.2
		c0.1,2.7,0.6,5.4,0.8,8.2c0.4,8.3-2.6,14.8-9.9,19.1c-1.4,0.8-2.9,1.6-4.3,2.4c-2-1.5-1.3-4.1-2.5-6c-1-0.3-2-0.6-3.4-1
		c0.6,1.3,1.9,1.3,2.5,2.5c0.5,1.5,0,3.5,1.3,5.5c-5.3,2.2-10.6,2.9-15.8,1.3c-2.9-0.9-5.2-3.4-5.9-6.7c-0.8-4-2.2-7.8-3.6-11.6
		c-1.8-4.8-3.2-9.7-3.9-14.8c-0.7-4.3-1.6-8.7-2.3-13c-0.8-4.7,0.3-8.7,4.4-11.8c0.7,1.5-0.8,3.1,0.6,4.6c0.8-1,0.8-2.4,2-3.4
		c2.5,1.2,5.1,2.3,7.6,3.6c3.2,1.6,6.2,2,9.4,0c1.5-0.9,3.3-1.4,4.8-2.2c1.8-1,3.3-2.3,3.2-4.7L466.2,343.5z M476.4,363.5
		c-3.2,0.4-5.7,2.4-8.3,3.9C470.9,366.3,473.8,365.2,476.4,363.5c0.7-0.2,1.4-0.3,1.7-1.2C477.2,362.4,476.5,362.5,476.4,363.5z
		 M455.6,372.8c-2.4-1.7-9.7-2.4-14.5-1.8C446.1,371.6,451,372.2,455.6,372.8z M459.8,374.3c3.3-0.3,4.6-2.6,6.9-4.3
		c-2.3-0.2-2.5,1.7-3.7,2.4C462.1,373,460.5,372.4,459.8,374.3z M438.5,355.2c0.5-1,0.8-1.8,0-2.5
		C437.5,353.5,437.6,354.2,438.5,355.2z M439.6,357.8c-0.8,0.7-1.3,1.3-0.6,2.9C439,359.3,440.6,359.5,439.6,357.8z M442,363.7
		c-0.2-0.5-0.5-0.9-1-1.1C440.9,363.3,441.5,363.5,442,363.7z"/>
	<path fill="none" d="M440,477.4c-2.2,1-3.9-0.5-5.6,0.3c-1.2-1.7-1.3-3.4-1.3-5c-0.2-4.6-1.5-8.9-3.5-13c-1.6-3.3-2.7-6.8-5-9.8
		c-1.7-2.3-1.6-5.3-2.1-8.3c1.6-0.2,2.5,0.7,3.4,1.3c4.3,2.7,8.9,4.5,13.8,5.7c4.2,1.1,8.5,0.6,12.8,0.5c8.9-0.2,17-3.2,24.9-6.9
		c2.2-1.1,4.2-2.6,6.4-4.4c1,4.7,1.7,9.1,1.8,13.5c0.1,7.6,0.9,14.9,4.8,21.7c0.2,0.4,0.2,0.9,0.3,1.7c-19.5-1.7-30.1,9-36.5,25.8
		C449.4,493,443.5,486.2,440,477.4z M483,454.6c-4.2-1.4-8.3-0.4-12.5,0.6C474.8,455,479,454.7,483,454.6z M448.1,472.3
		c-2.2,1.1-4.1,2.6-6.3,3.6C444.8,476,446.6,474.5,448.1,472.3z M467.5,460.8c1.5-0.7,2.5-1.1,3.4-1.7c1-0.6,2.4-0.7,3.3-1.7
		C470,458.1,469.8,458.2,467.5,460.8z M479.2,451.8c1.4,0,2.8,0,4.2,0C482,451.4,480.6,451.4,479.2,451.8z M457.6,465.1
		c-1,0.2-1.4,0.5-1.4,1.1C457,466.4,457.2,465.9,457.6,465.1z"/>
	<path fill="none" d="M467,290.4c0.1,0.5-0.2,1.2,0.4,1.6c0.8-0.1,0.9-1.1,1.8-1.3c0.1,2.3,1.5,4.1,2.2,6.2h-0.1
		c0.3,1-0.4,2.1,0.2,3.2c1.3,0.1,1-1.3,1.7-1.9c1.2,2.6-2.7,3.4-2,5.2c0.1,1.6,1.3,1.9,1.7,3.1c-0.6,3.4,1,6.9,1.2,10.6
		c0.1,1.1,0.3,2.2-0.2,3.2c-2,4.1-2.5,8.7-3.6,13c-0.8,3-1.8,5.9-3.5,8.5c-0.3,0.5-0.6,1-0.6,1.6l0.1-0.1c-3,3-6.4,5.1-10.6,6
		c-1.2,0.3-2.4,0.5-3.5,0.3c-5.6-1.3-10.6-3.6-13.4-9c-0.5-0.9-1-1.9-1.3-2.9c-1.6-6.3-4.7-12.1-5.3-18.7c-0.3-3.2-0.1-6.4,0.1-9.4
		c0.5-0.9,1.2-0.1,2-0.6c0.8-1.6,0.4-3.4,0.1-5.1c-0.9-0.6-0.9,0.8-1.7,0.5c0.4-2.1-1.1-3.9-1.5-6.3c0.8,0.5,1.3,0.9,2.2,1.5
		c-0.5-1.4-0.9-2.5-1.2-3.5c0.4-0.9,1-0.1,1.6-0.4c0.3-1.2-1.4-1.5-1.2-2.7c0.1-0.8,0.6-1.2,1.2-1.4c0.6-1-0.5-1.8,0.2-2.5
		c0.2,0,0.5-0.2,0.6-0.1c1,1.1,1.8,2.4,3.4,3.2c0.1-1.8-1.9-2.4-1.5-4.2c1,1.1,1.8,2,2.7,3c1.5-1.8,1.3-3.6-0.9-7l0.1,0.1
		c0.6-0.6,1.2-1.1,1.9-1.8c1.5,1.7,0.5,3.8,1.4,5.5c0.8,1.6,2.4,2.6,3.7,3.9c-0.7-1.8-1.4-3.6-2.1-5.4c-0.6-1.7-1.9-3.5-0.4-5.5
		c2,1,0.9,2.5,0.9,3.9c1.2,2.4,2.1,5,3.7,7.2c1.6,0.3,3.3-0.1,5.4,1.2c-1.1-2.6-0.6-4.5-0.3-6.4c0.2-2,0.1-4,0.1-5.8
		c1.2-0.8,2.1-0.3,2.9-0.2c0.2,3.2,0,3.5-2.1,4.2c0,2.1,0,4.2,0,6.4c1.6,1.5,2.9,0.6,3.9-0.7c1.1-1.4,2-2.9,3-4.4
		c0.3,0,0.6,0.1,0.8,0.1v0.1c-0.2,0.5-0.5,1-0.5,1.5c0,0.8,0.3,1.3,1.2,0.7c0.6-0.1,0.8-1,1.6-0.9l-0.1-0.1c0.4,0.9-1.3,1.5-0.2,2.6
		c0.9-1,1.7-1.9,1.7-3.3l-0.1,0.1c0.8,0.3,1-0.6,1.5-0.7l-0.1-0.1c-0.4,1.3-0.9,2.6-1.3,3.8c0.7,0.6,1.4,0.6,2.1,0.5L467,290.4z
		 M439.1,314c0.5,0.1,1.1,0.2,1.7,0.3c-1.1,1.4-3.2,1.5-4.2,3.1c1.6,0.5,2.4-0.8,3.6-1c0.8,0.2,1,1.3,2.1,1.3
		c1.2,0.2,1.9-0.9,2.6-1.3c1.2-0.1,1.7,1.6,3,0.1c-1.6-1.1-2.5-2.9-4.7-3.7C442,313.6,440.2,312.6,439.1,314c-1-0.1-2,0-2.7,1.4
		C437.6,315.3,438.5,315,439.1,314z M457.6,315.7c1,1,1.5-0.4,2.5,0c1.1,0.5,0,1.9,1.3,2.2c0.4-0.2,1.2,0.1,1.7-0.8
		c-0.2-0.2-0.5-0.4-0.8-0.7c0.7-0.7,1.4-1.5,2.1-2.2c1,0,1.6,1.6,2.8,0.8c0.3-0.2,0.5-0.4,0.4-0.8c-0.6-0.9-2-0.7-2.5-1.7
		c0.8-0.7,1.8,0.7,2.4-0.4C462.6,310.5,459.4,311.6,457.6,315.7z M461.1,336.7c-10.7-1.9-10.7-1.9-16,0.4
		C450.5,337.4,455.8,337.7,461.1,336.7z M449.4,310.4c-3.3-2.3-11.1-1.9-14.3,0.7C439.6,309.3,444.4,310.8,449.4,310.4z
		 M446.8,340.1c5,3.4,10.2,3,11.7-0.9C454.6,341.3,450.8,340.5,446.8,340.1z M468,307.7c-4.6-2-10.2-0.6-12.1,3.2
		C459.6,308.3,463.5,307.5,468,307.7z M457.5,329.4c1.1-0.9,1.2-2,0.5-3.1c-0.1-0.1-0.4-0.1-0.6-0.2c-0.9,0.7,0.9,1.8-0.5,2.4
		c-1-0.1-2.2-1.8-3,0.3C455,329.7,456.2,329.8,457.5,329.4z M449.5,314.4c-0.4-0.8-0.1-2.1-1.6-2C448.1,313.3,448.6,314,449.5,314.4
		z M451.5,329.3c-0.9-0.8-0.9-0.8-1.8,0C450.4,329.9,451,329.9,451.5,329.3z M447.9,327.8c0.3-0.8,1-1.2,0.4-2.4
		C448,326.3,447.4,326.6,447.9,327.8z"/>
	<path fill="none" d="M499.1,381.3c-2-1.9-3.1-4.4-4.4-6.8c-2.5-4.7-4.8-9.5-6.6-14.6c-2.1-6-5.3-11.4-8.5-16.9
		c-0.4-0.7-0.9-1.4-1.5-2.5c3.8,0.6,7,1.8,10.1,2.9c5,1.8,10,3.7,14.6,6.5c1.9,1.1,3.8,1.8,5.3,3.8c3.3,4.4,2.8,9,1.8,13.9
		c0.9,2.6,1.3,5.3,1.4,8c0.1,2.5,0.1,5,0.5,7.5c0.3,2.3,1,4.1,2.7,5.9c2.6,2.6,3.9,6.2,5.2,9.7c0.7,1.9,1.2,3.9,1.6,5.8
		c0.9,4.4,2.9,8.3,5.9,11.7c0.9,1.1,1.9,2.2,2.3,3.6c1.1,5.2,4.3,9.2,7.4,13.3c3.1,4.1,3.6,8.1,1,12.4c-0.9,1.5-1.4,3.3-3.3,4.2
		c-0.4-1.5-0.1-2.8,0-3.8c0.6-1.4,1.8-1.2,2.8-1.8c-0.5-0.9-1.3-0.8-2.1-1c-2.8,1.8-1.6,5.5-3.7,8.4c-1.3-4.3-1.4-8.7-5-11
		c-0.6-6.2-0.6-6.2,1-9.3c0.1-1-0.2-2-0.6-3c-0.8,0.3-0.3,1.1-0.9,1.6c-1-1.5-1.9-3.1-3.1-4.3c-3-3.2-6-6.5-9.4-9.2
		c-3.8-3-7.2-6.2-9.8-10.3c-1.7-2.7-2.6-5.5-2.6-8.7c0-2.6-0.9-5.1-1.5-7.7c-0.3-1.3-0.6-2.5-1-4.1c1.3-1.2,1.3-2.7,0.5-4.3
		c2.5,0,1.5-2.6,2.7-3.6c2.3-1.9,4.5-3.8,6-6.4c0.4-0.8,0.7-1.5-0.8-2.1C504.4,373.1,500.1,376.1,499.1,381.3z M513.3,388.5
		c-1.5,1.1-1.9,2.2-1.8,3.9C512.7,391.2,513.3,390.2,513.3,388.5z M508.4,395.1c0.1-0.4-0.1-0.7-0.5-0.8c-0.4-0.1-0.9-0.3-1,0.4
		C507.4,395.2,507.8,395.6,508.4,395.1z"/>
	<path fill="none" d="M423.4,438.9c0.3-1.2,0.6-2.2,1-3.4c9,5.4,18.8,4.9,28.5,4.4c9.8-0.4,18.8-3.9,26.9-10.1c0.2,0,0,0.7,0.7,1.1
		c0.6,0.3,0.8-0.9,1.6-0.9c0.8,1.4,1,3.1,1.4,4.6C471.1,445.1,445.5,452.8,423.4,438.9z"/>
	<path fill="none" d="M446.5,494c-1.8-0.7-3.6,0.1-5.3-0.5c-2.7-3.9-4.4-8.3-6.1-12.8c1-0.9,2-1.4,3.5-1.8
		C440.6,484.2,443,489.3,446.5,494z"/>
	<path fill="none" d="M461.1,278.4c-0.8,0.6-1.7,0.7-2.8,0.4c-0.1-1.1-0.3-2.2-0.4-3.3c-1.8,0.1-2.5,1.7-3.6,2.7
		c-1-0.1-1.9-0.2-2.8-0.2c-0.2-0.5-0.1-0.8,0.1-1c2.9-2.9,6.4-2.6,9.9-1.5c1,0.3,2,0.9,1.7,2.3C462.6,277.9,462,278.2,461.1,278.4z"
		/>
	<path fill="none" d="M449,290.7c-2.8-3.3-3.7-6.5-2.3-10.3C448.8,282.6,449.4,285.6,449,290.7z"/>
	<path fill="none" d="M458,283.2c-0.7,1.9-1.3,3.5-2.2,5.8c-0.4-3.4,0.6-5.9,1.8-8.2c0.8-0.4,1.6-0.3,2.4,0.3c0.1,2.2-0.6,4.3-2,6.2
		C457.4,285.9,458.9,284.7,458,283.2z"/>
	<path fill="none" d="M425.5,520c-1.7-0.7-2.2-2.3-2.8-3.7c-0.1-1.3,0.6-1.9,1.4-2.7c1.1,1,2.1,2,3.3,3.1
		C427.1,518,424.9,518.4,425.5,520L425.5,520z"/>
	<path fill="none" d="M466.2,284.8c2.8-0.1,4.7,1.8,4.7,4.7c-1,0.2-0.8-1-1.6-1.1c-1.4-0.2-1,2-2.4,2l0.1,0.1
		c0.5-1.5-0.4-3.1,0.6-4.7c-0.8,0.2-1.1,0.3-1.4,0.4l0.1,0.1c0-0.5,0-1,0-1.5H466.2z"/>
	<path fill="none" d="M528.2,446.7c0.4,0.8,0.3,1.3-0.3,1.9c-1.6,0.1-3-0.6-4.9-2.2C525.2,446.5,526.8,446.6,528.2,446.7z"/>
	<path fill="none" d="M474.8,326.6c-1.8-3.2,1.1-3.5,2.1-5.5C477,323.6,475.9,324.8,474.8,326.6z"/>
	<path fill="none" d="M478.5,315c0.5,1.5,0.6,2.9-0.1,4.5c-0.7-0.8-1.3-1.5-1.9-2.2C476.8,316.2,477.1,315.3,478.5,315z"/>
	<path fill="none" d="M463.5,287.7c-0.1-1.8,1-3.2,1.7-4.7c1.1,0.4,1,1.2,1.1,1.8l0.1-0.1c-1,0.4-1.6,1.1-1.5,2.3l0.1-0.1
		C464.1,286.7,464,287.6,463.5,287.7L463.5,287.7z"/>
	<path fill="none" d="M471.4,296.9c-0.5-2.2,0.7-4,0.8-6.1C473.2,293.1,473.1,295.2,471.4,296.9L471.4,296.9z"/>
	<path fill="none" d="M430.5,322.1c-1.4-1.3-1.4-2.7-1-4.4C431.8,319,430.2,320.8,430.5,322.1z"/>
	<path fill="none" d="M461.1,286.2c-0.3,0-0.6-0.1-0.8-0.1c0.4-1.6,0.9-3.1,1.4-4.8C462.5,282.8,462.5,282.8,461.1,286.2z"/>
	<path fill="none" d="M438.2,283.9c0.2,1.5,0.4,3,0.6,4.7c-2.3-2.9-2.3-2.9-0.5-4.6L438.2,283.9z"/>
	<path fill="none" d="M461.1,278.4c0.7-0.2,1.5-0.4,2.2-0.6c1,0.3,1.5,1,1.3,2.3C463.5,279.5,462.4,278.9,461.1,278.4z"/>
	<path fill="none" d="M451,280.2c0,1.1-0.3,2-1.2,2.6C449.4,280.8,449.4,280.8,451,280.2z"/>
	<path fill="none" d="M462,288.5c-0.9,0.6-1.2,0.1-1.2-0.7c0-0.5,0.3-1,0.5-1.5c0.4-0.2,0.8-0.3,1.2-0.5
		C463.1,286.9,461.5,287.5,462,288.5z"/>
	<path fill="none" d="M525.7,441.5c-1.5,1.1-2.6,1.4-4.3,1C522.8,441.7,523.8,441.4,525.7,441.5z"/>
	<path fill="none" d="M431.5,305.1c0.9,0.6,1.4,1.1,1.6,2c-0.2,0.3-0.3,0.2-0.6,0.2C431.5,306.9,431,306.4,431.5,305.1z"/>
	<path fill="none" d="M521.7,437.8c0.5-1,1.4-1.5,2.7-1.8C524,437.7,522.8,437.6,521.7,437.8z"/>
	<path fill="none" d="M432.8,327.7c0.8,0.9,1.1,1.6,0.9,2.5C432.2,330,432.9,329,432.8,327.7z"/>
	<path fill="none" d="M451.2,285.1c-0.1-0.2-0.3-0.4-0.3-0.5c0-0.4,0.3-0.6,0.6-0.3c0.1,0.1,0.2,0.4,0.2,0.6
		C451.6,285,451.5,285,451.2,285.1z"/>
	<path fill="none" d="M720,112.7c-1.4,2.4-2.9,4.3-5.3,5.4c-1.4-2.2-1.3-2.7,1.9-7.9C718.2,110.2,719,111.6,720,112.7z"/>
	<path fill="none" d="M714.5,109.8c-0.9,2.2-1.7,4.1-2.5,6c-1,0.9-1.9,0.8-3.1,0.1c0.9-2.4,1.8-4.7,2.6-6.8
		C712.8,108.6,713.5,109,714.5,109.8z"/>
	<path fill="none" d="M717.2,132.8c-0.2,2.3-1,3.4-1.9,4.4c-1.7,0.8-3.1,0.2-4.6-0.9C712.5,134.6,714.8,134.5,717.2,132.8z"/>
	<path d="M718.2,330.3c0.6-0.7,1.2-0.4,1.9-0.1c5.4,2.2,10.7,4.5,16.6,4.9c0.7,0.1,0.7,0.1,2.2,1.5c-0.3,1-1.1,1.1-1.9,1.1
		c-3,0.1-5.9-0.4-8.7-1.6c-3.1-1.2-6-2.8-9-4.3C718.7,331.6,718,331.2,718.2,330.3z"/>
	<path d="M711.2,331.8c-1.2,5-10.2,7.1-16.2,4c3.2,0.2,5.7,0,8.3-0.7C706,334.4,708.2,332.7,711.2,331.8z"/>
	<path d="M692,335.5c-2.8,0.7-4.5-0.1-6.6-2.2C688,333.8,690,333.7,692,335.5z"/>
	<path d="M714.8,302.5c-0.3,0-0.7,0-1.2,0c-0.8-2.1-0.4-4.3-0.1-6.9c1.7,2.4,1.3,4.7,1.2,7L714.8,302.5z"/>
	<path d="M727.8,276.5c-2.2,0.6-4.1,1.4-6.7,0.8C723.5,276.6,725.5,276,727.8,276.5z"/>
	<path d="M716.8,279.2c-1.6-1.3-1.6-2.7-2-4.3C716.3,276.5,716.3,276.5,716.8,279.2z"/>
	<path d="M714.5,325.8c0.3,1.3-0.2,1.8-0.4,2.5c-0.2,0.5-0.4,0.9-1.2,1.1C713.2,328,713.7,326.9,714.5,325.8z"/>
	<path d="M740.8,335.5c0.7-0.5,1.2-0.5,2,0C742,336.2,741.5,336.5,740.8,335.5z"/>
	<path d="M707.5,265.8c0.8,0.1,0.7,0.6,0.6,1.2c-0.4,0.3-0.5-0.1-0.7-0.3C707.2,266.4,707.2,266,707.5,265.8z"/>
	<path d="M708.3,271.9c1.3,0.3,1.4,0.8,1.2,1.6C708.8,273.4,708.7,272.9,708.3,271.9z"/>
	<path d="M706.5,258.8c0.8,0.6,0.7,1.3,0.1,2C705.8,260.2,705.8,259.5,706.5,258.8z"/>
	<path d="M713,294.7c-0.9-0.4-1.3-1-0.7-1.9C713,293.2,713.7,293.7,713,294.7z"/>
	<path d="M723.2,272.2c-0.2,1-0.4,1.4-0.8,1.6C721.8,273,722.5,272.7,723.2,272.2z"/>
	<path d="M709.2,290.5c1,0.5,1.5,0.6,1.3,1.2C709.8,292,709.8,291.4,709.2,290.5z"/>
	<path d="M683.2,461.2c-1,0.1-1.9,0.2-2.8,0.2c-2.1-0.2-3.9-2.2-3.7-4s2.3-3.1,4.3-2.9c2.2,0.3,3.5,2,3.1,4.3
		C683.8,459.6,683.5,460.4,683.2,461.2z M680.2,459.9c0.8-0.2-0.1-1.4,0.8-1.5c0.4-0.3,1.1,0.8,1.5-0.5c0-1.2-0.7-2-2.1-2.1
		c-1.1-0.1-1.9,0.5-2.1,1.5C678.2,458.8,678.8,459.6,680.2,459.9z"/>
	<path d="M667.3,459.9c-1.3-0.1-1.3-0.8-1.7-1.2c-0.3-0.4-0.5-0.8-0.7-1.1c-1.5-0.3-0.9,1.6-2.5,1.5c-0.2-1.9,0-3.9,0.6-6
		c1.9-0.6,3.4-0.2,4.8,0.9c1.1,1.8-0.3,2.8-1,3.7C667,458.5,667.2,459.1,667.3,459.9z M663.8,455.1c1.1,1.4,2,1.5,2.9,0.2
		C666,454.1,665.2,454,663.8,455.1z"/>
	<path d="M672.7,460.7c-1.9,0-3.7-1.7-3.7-3.6c0-1.8,1.6-3.2,3.5-3.3c2.1-0.1,3.8,1.4,3.8,3.4C676.3,459,674.7,460.7,672.7,460.7z
		 M674.7,457.5c0.1-1.3-0.7-2.3-1.8-2.4c-1.2-0.2-2.4,0.8-2.3,2.1c0.1,1.3,0.8,1.9,2,2C673.8,459.3,674.5,458.6,674.7,457.5z"/>
	<path d="M709.2,452.7c-1.3,0.3-2.6,0.2-3.9-0.1c-4.3-1-8.5-2-12.7-3.7c1.1-0.5,2,0,3,0.2c3.6,0.8,7.2,1.5,10.7,2.4
		c1,0.2,2.1,0.3,2.8,1.3L709.2,452.7z"/>
	<path d="M730.5,447.5c-2.6,1.3-5.3,2-8.2,2.3C724.5,447.9,727.5,448,730.5,447.5z"/>
	<path d="M703.3,447.4c1.7-0.8,2.8,0.6,4.1,0.7C705.8,448.6,705.8,448.6,703.3,447.4z"/>
	<path d="M680.2,421.8c1.3,0.1,2.6,0.3,3.9,0.4C682.7,423,681.3,422.7,680.2,421.8z"/>
	<path d="M671.5,418.3c-0.8,0-1.6,0-2.5,0c0-0.1,0-0.2,0-0.2c0.9,0,1.8,0,2.6,0C671.6,418.1,671.7,418.2,671.5,418.3z"/>
	<path d="M672.3,551.7c1.1-2.8,4.6-4.5,2.9-8.1c1.8-2.3,2.4-5.2,4.4-7.4c0.6,2.5,0.6,2.5-3.2,7.7
		C677.5,548.8,677.5,548.8,672.3,551.7z"/>
	<path d="M662.2,543.2c-0.5-2-0.1-3.7,0.9-5.6C663.8,539.9,663.5,540.9,662.2,543.2z"/>
	<path d="M664.2,535.6c-1-1.4-0.8-2.9-0.3-5.2C665,532.6,664.8,534.1,664.2,535.6z"/>
	<path d="M672.2,554.8c-0.2,1.7-1.1,3-2.1,4.5C670.2,556.7,670.2,556.7,672.2,554.8z"/>
	<path d="M663,551.5c-0.6-1.4-1.2-2.8-1-4.5C663.3,548.9,663.3,548.9,663,551.5z"/>
	<path d="M691.7,494.3c-1.4-0.9-1.8-2.1-1.7-4C691.2,491.5,691.3,493,691.7,494.3z"/>
	<path d="M666.7,631.4c-1.1-1-0.8-2-0.9-3.8C667.2,629.1,666.7,630.2,666.7,631.4z"/>
	<path d="M666.7,567.9c0.6,1.1,0.2,1.6-0.4,2.3C665.5,569.1,666,568.6,666.7,567.9z"/>
	<path d="M665.8,623.9c1,0.6,0.5,1.1,0.4,1.8C665.3,625.1,665.5,624.6,665.8,623.9z"/>
	<path d="M756.8,531.6c2.3,2.8,1.6,5.7,0.5,8.8c1.7,3.7,4.4,7.6,0,11.7c1-3.7-0.1-7.1-0.9-10.6c-0.1-0.2-0.1-0.5-0.1-0.7
		C756.5,537.7,757,534.7,756.8,531.6z"/>
	<path d="M752.7,561.5c-2.7-2.8-4.9-6-4.4-10.3c0.8-0.1,1.1,0.7,1.1,1.2c-0.3,3.1,1.8,5.3,2.8,7.8
		C752.2,560.6,752.5,561,752.7,561.5z"/>
	<path d="M747.7,550.3c-3.1-3.5-3.5-6.2-1.3-8.3C746.8,544.8,747.2,547.3,747.7,550.3z"/>
	<path d="M729.7,500.8c-1.4-1.6-1.2-3-1-5C729.2,497.6,729.8,498.9,729.7,500.8z"/>
	<path d="M756.5,633.1c0.5,1,0.6,1.8-0.4,2.8C755.5,634.7,755.3,633.9,756.5,633.1z"/>
	<path d="M755.2,570.6c-1.1-0.7-1.4-1.4-1.2-2.7C755,568.7,755.5,569.4,755.2,570.6z"/>
	<path d="M710.2,385.9c1.1,1.3,1.9,2.9,4.1,2.7c-0.6,1.6-1.4,1.9-2.3,2C709.3,388.6,709.2,388.3,710.2,385.9z"/>
	<path d="M741.7,386.6c0.9,1.5-0.1,2.7-0.7,4C741,388.4,741,388.4,741.7,386.6z"/>
	<path d="M712.2,379.7c-0.5-0.9-0.4-1.7,0.2-2.4c0.9,0,0.7,0.7,0.7,1.3C713.2,379,713.2,379.5,712.2,379.7z"/>
	<path d="M689,401c-0.9-0.8-1.6-1.6-1.2-3C689,398.7,689.2,399.8,689,401z"/>
	<path d="M712.2,368.2c-0.4-0.9-0.4-1.5,0.2-2C713.7,366.8,712.8,367.3,712.2,368.2z"/>
	<path d="M685.2,395.5c-0.7-0.3-0.9-0.7-1-1.1s-0.2-0.9,0.2-1.4C685,393.6,685.3,394.3,685.2,395.5z"/>
	<path d="M730.5,221.8c0.2,0.4,0.3,0.8,0.5,1.2c-1.2,1.6-2.1-0.3-3.1-0.2c-1.1,0.8-1.6,1.8-1.6,3.2c-0.4,0-0.9,0.1-1.3,0.1
		c-1-0.4-0.2-1.7-1.1-2c-0.8-0.8-1.4,1-2.1,0.2c-0.3-0.4-0.4-0.6-0.2-1c2.2-3,4.1-3.7,7.5-2.9l0.1-0.1c-0.3,0.3-0.6,0.7-0.4,1.1
		c0.6,0.3,1.2,0.5,1.9,0.4H730.5z"/>
	<path d="M707.2,226.3c-0.5-0.5-1.1-1-1.6-1.5c-1.3-0.3-2.1,1.3-3.6,0.6c0.9-1.4,2.6-1.6,3.7-2.6c-0.4-0.2-0.8-0.4-1.6-0.8
		c1.7-0.3,3-0.5,4.1-0.7c1.9,0.7,2.7,2.4,4.3,3.3c-1.1,1.4-1.7,0.1-2.6,0C709,225.2,708.2,225.8,707.2,226.3z"/>
	<path d="M725.5,243.5c-5.2,1.3-9.8,1-14.2,1.8c-0.6,0.1-1.2-0.2-1.3-0.9C714.8,243.2,719.7,241.1,725.5,243.5z"/>
	<path d="M700.8,219.3c4.1-2.1,8.4-2.3,12.8-0.6C709.5,219.4,705.2,218.2,700.8,219.3z"/>
	<path d="M723.8,246.3c-1.8,1.8-3.9,2.8-6.4,2.8c-2.6,0-2.7-0.1-4.8-2.3C716.5,248,720.2,247.6,723.8,246.3z"/>
	<path d="M720.2,218.9c2.5-3.2,6.7-4.1,11.3-2.4C727.2,216.5,723.5,217.1,720.2,218.9z"/>
	<path d="M713,236.6c0.9,0.3,1.8-1.2,2.9-0.1c-0.6,1.6-2,0.9-3,1.3c-1.2-0.9-1.4-1.8-0.8-2.9C713.2,235.1,712,236.3,713,236.6z"/>
	<path d="M705.5,200.4c0.2,0.3,0.5,0.5,0.8,0.8c-0.8,1-1.5-0.6-2.2-0.1c0-0.5,0-1.1,0-1.6C704.5,199.8,705,200.1,705.5,200.4z"/>
	<path d="M702.5,200.3c0.5,0.2,1,0.5,1.5,0.7c-0.1,0.3-0.2,0.6-0.3,0.9C702.8,201.8,702.3,201.3,702.5,200.3z"/>
	<path d="M699.5,216.2c0.9,0.9,0.9,1.4,0,1.8C699,217.5,699.2,216.9,699.5,216.2z"/>
	<path d="M729,220.4c0.7-0.1,1.3-0.1,1.9,0.3c0.2,0.5-0.1,0.8-0.5,1.1l0.1,0.1C730.5,220.9,729.2,221.3,729,220.4L729,220.4z"/>
	<path d="M720.7,233.6c0.7,0.2,0.9,0.7,1.4,1.6C721,234.7,720.5,234.3,720.7,233.6z"/>
	<path d="M718.3,236.4c0.3-0.1,0.6-0.2,0.9-0.2c0.1,0,0.3,0.3,0.4,0.5c0,0.6-0.5,0.8-0.9,0.7C718.5,237.2,718.2,236.8,718.3,236.4z"
		/>
	<path d="M765,664.6c3.9-3,9-2.9,11.9,0.4C773,665.1,769.3,666.6,765,664.6z"/>
	<path d="M769.7,668.2c1.7-2.6,3.7-1.6,5.6-1.2C773.7,667.9,772.3,669.7,769.7,668.2z"/>
	<path d="M755.5,670.2c0.3-1.1-0.8-2-0.5-3.2c1.3,0.6,1.6,1.7,1.8,2.8c-0.5,0.6-1,0.2-1.4,0.3L755.5,670.2z"/>
	<path d="M379.8,534.6c1.7,2.7-0.2,5.4,0.1,8c0.1,1.1-1,2.3-3.2,2.5C379.1,541.7,377.8,537.8,379.8,534.6z"/>
	<path d="M389.9,529c0.8-2.8,1.6-4.9,2.7-7.1C392.8,525,392.1,526.6,389.9,529z"/>
	<path d="M378.4,564.4c0.2-2.2-0.3-4.5,1.4-6.7C380.6,560.5,378.5,562.3,378.4,564.4z"/>
	<path d="M368.6,536.2c0.2-1.9,0.5-3.4,1.7-4.7C370.9,533.5,370.9,533.5,368.6,536.2z"/>
	<path d="M369.9,536.9c0.2,1.9,0.2,3.1-0.5,4.4C367.8,539.7,368.5,538.6,369.9,536.9z"/>
	<path d="M377.1,573.1c-0.3-1.1-0.4-1.9,0.3-3C378,571.2,377.5,572.1,377.1,573.1z"/>
	<path d="M395.1,512.7c0.4,1,0.3,1.8-0.7,2.8C394.5,514.3,394.6,513.5,395.1,512.7z"/>
	<path d="M373.4,624.4c-0.7-1.4-0.5-2.1-0.5-3.1C373.6,622.3,373.2,623,373.4,624.4z"/>
	<path d="M398,507.5c0.4,0.7,0,1-0.4,1.4C396.8,508.2,397.6,507.9,398,507.5z"/>
	<path d="M490.9,539.7c1,2.2,0.4,4.1,0.5,5.9c0.7,1.2,2.1,2,2,3.7c-2.8-0.8-3-1-3.9-4.6C489.1,542.9,488.6,541.2,490.9,539.7z"/>
	<path d="M493,523.1c-0.7-2.1-0.6-4.1,0.2-6.8C493.8,519.1,493.9,521.1,493,523.1z"/>
	<path d="M489.5,565.9c0.7,1,0.6,1.9,0,2.9C489.1,567.8,488.9,566.9,489.5,565.9z"/>
	<path d="M489.6,582.8c0.5,0.7,0.3,1.2-0.4,1.9C488.9,583.8,488.6,583.2,489.6,582.8z"/>
	<path d="M492,510.3c-0.5,0-0.6-0.4-0.5-0.7c0.3-0.8,0.4-0.1,0.5,0.1C492.1,509.9,492,510.1,492,510.3z"/>
	<path d="M492.4,622.3c0.4,0.5,0.3,1,0.2,1.5C491.9,623.3,492.1,622.8,492.4,622.3z"/>
	<path d="M409.1,467.1c-0.4,1.4-0.7,2.8-2.1,3.6c-4.7-1-4.9-1.2-5-4.6c2.9-2.1,4-1.9,7.1,1.1V467.1z M407.4,468.4
		c0.1-1.6-0.8-2.3-2.1-2.5c-0.7-0.1-1.4,0.1-1.8,0.8c-0.6,1.1,0,1.7,1,2.4C405.2,468.3,406.5,468.7,407.4,468.4z"/>
	<path d="M392.5,465.1c-1.7-0.7-1.2-2.3-2.4-2.6c-1-0.5-1.1,1.2-2.1,0.8c-0.8-0.8-0.5-1.5,2-4.9c1.6,0.6,3.6,0.6,4.4,2.7
		C394.4,462.8,391.9,462.9,392.5,465.1z M393.1,461.1c-1.9-1.2-1.9-1.2-2.9,0C391.1,461.4,391.9,462.4,393.1,461.1z"/>
	<path d="M395,462.8c1.7-1.3,3.4-1.2,5.2,0c1.1,0.7,1.5,1.8,1.1,3.1c-0.4,1.2-1.4,1.5-2.5,1.6C396,467.8,394.5,465.9,395,462.8z
		 M395.8,464.5c0.8,1.9,2.1,2.2,3.6,1.6c0.9-1.3,0.5-2.2-0.6-2.8C397.5,462.6,396.5,462.9,395.8,464.5z"/>
	<path d="M414.8,368.8c-1.3,1-2.7,1.6-4.9,1.4C411.5,368.1,413.1,368.5,414.8,368.8z"/>
	<path d="M398.6,395.9c1.1,0.9,1.6,2.3,2.2,3.5C399.4,398.5,399.4,398.5,398.6,395.9z"/>
	<path d="M402.5,416.9c-1.2-0.3-2-0.9-1.9-2.3C402,414.8,402.2,415.8,402.5,416.9z"/>
	<path d="M429.2,495.8c-1.1-0.5-1.4-1-1.1-2C429,494.2,429.4,494.8,429.2,495.8z"/>
	<path d="M427.9,507.5c-0.7,0-0.8-0.4-0.9-0.7c0-0.2,0.2-0.4,0.3-0.6C427.8,506.4,427.9,506.8,427.9,507.5z"/>
	<path d="M455.6,372.8c-4.8-0.6-9.5-1.1-14.5-1.8C446,370.4,453.2,371.1,455.6,372.8z"/>
	<path d="M476.2,363.4c-2.5,1.8-5.4,2.9-8.3,4C470.8,365.9,473.1,363.9,476.2,363.4L476.2,363.4z"/>
	<path d="M459.8,374.3c0.9-1.9,2.4-1.2,3.2-1.9c1.2-0.7,1.4-2.6,3.7-2.4C464.2,371.7,463,374,459.8,374.3z"/>
	<path d="M438.5,355.2c-0.8-1-0.9-1.7,0-2.5C439.2,353.4,439,354.2,438.5,355.2z"/>
	<path d="M439.6,357.8c1,1.6-0.7,1.5-0.6,2.9C438.4,359.1,438.9,358.5,439.6,357.8z"/>
	<path d="M442,363.7c-0.5-0.3-1.1-0.4-1-1.1C441.5,362.8,441.9,363.2,442,363.7z"/>
	<path d="M476.4,363.5c0.2-1,0.9-1.1,1.7-1.2C477.8,363.2,477,363.3,476.4,363.5L476.4,363.5z"/>
	<path d="M483,454.6c-4.2,0.1-8.3,0.3-12.5,0.6C474.8,454.3,478.9,453.2,483,454.6z"/>
	<path d="M448.1,472.3c-1.5,2.2-3.4,3.8-6.3,3.6C444,474.8,446,473.3,448.1,472.3z"/>
	<path d="M467.5,460.8c2.3-2.6,2.6-2.7,6.7-3.4c-0.9,1-2.2,1.1-3.3,1.7C470,459.6,469,460,467.5,460.8z"/>
	<path d="M479.2,451.8c1.4-0.4,2.8-0.5,4.2,0C482,451.8,480.6,451.8,479.2,451.8z"/>
	<path d="M457.6,465.1c-0.4,0.8-0.6,1.3-1.4,1.1C456.2,465.5,456.6,465.3,457.6,465.1z"/>
	<path d="M457.6,315.7c1.8-4.1,5-5.3,9.9-3.5c-0.7,1.1-1.7-0.3-2.4,0.4c0.5,1,1.9,0.8,2.5,1.7c0.1,0.4-0.1,0.6-0.4,0.8
		c-1.2,0.9-1.8-0.8-2.8-0.8c-0.7,0.7-1.4,1.5-2.1,2.2c0.3,0.2,0.5,0.5,0.8,0.7c-0.5,0.8-1.3,0.5-1.7,0.8c-1.3-0.3-0.2-1.7-1.3-2.2
		C459.1,315.3,458.6,316.7,457.6,315.7z"/>
	<path d="M461.1,336.7c-5.3,1-10.7,0.7-16,0.4C450.4,334.9,450.4,334.9,461.1,336.7z"/>
	<path d="M439.1,314.1c1.1-1.6,2.9-0.5,4-1.3c2.2,0.8,3.1,2.7,4.7,3.7c-1.3,1.5-1.8-0.2-3-0.1c-0.7,0.4-1.4,1.5-2.6,1.3
		c-1.1,0-1.4-1.1-2.1-1.3c-1.2,0.1-1.9,1.5-3.6,1c1.1-1.6,3.1-1.7,4.2-3.1C440.2,314.2,439.6,314.1,439.1,314.1L439.1,314.1z"/>
	<path d="M449.4,310.4c-5,0.4-9.7-1.1-14.3,0.7C438.4,308.5,446,308.1,449.4,310.4z"/>
	<path d="M446.8,340.1c4,0.5,7.9,1.3,11.7-0.9C457,343,451.8,343.4,446.8,340.1z"/>
	<path d="M468,307.7c-4.4-0.2-8.3,0.7-12.1,3.2C457.8,307.1,463.4,305.7,468,307.7z"/>
	<path d="M457.5,329.4c-1.3,0.4-2.5,0.3-3.6-0.6c0.8-2.1,2-0.4,3-0.3c1.4-0.6-0.4-1.7,0.5-2.4c0.2,0.1,0.5,0,0.6,0.2
		C458.6,327.4,458.6,328.5,457.5,329.4z"/>
	<path d="M466.2,286.1c0.3-0.1,0.7-0.2,1.4-0.4c-1,1.6-0.2,3.2-0.6,4.7c-0.7,0.1-1.4,0-2.1-0.5C465.4,288.7,465.9,287.4,466.2,286.1
		z"/>
	<path d="M463.5,287.6c0.6,0.1,0.8-0.9,1.5-0.7c0.1,1.4-0.8,2.3-1.7,3.3C462.1,289.1,463.9,288.5,463.5,287.6z"/>
	<path d="M449.5,314.4c-0.9-0.4-1.4-1-1.6-2C449.4,312.2,449.1,313.5,449.5,314.4z"/>
	<path d="M451.5,329.3c-0.6,0.6-1.2,0.6-1.8,0C450.6,328.5,450.6,328.5,451.5,329.3z"/>
	<path d="M447.9,327.8c-0.5-1.2,0.1-1.6,0.4-2.4C448.9,326.7,448.1,327,447.9,327.8z"/>
	<path d="M439.1,314c-0.5,1-1.5,1.2-2.7,1.4C437,314.1,438,314,439.1,314L439.1,314z"/>
	<path d="M464.9,286.9c-0.1-1.2,0.5-1.8,1.5-2.3c0,0.5,0,1,0,1.5C465.9,286.4,465.5,287.2,464.9,286.9z"/>
	<path d="M499.1,381.3c1-5.2,5.2-8.2,7.8-12.2c1.5,0.6,1.2,1.4,0.8,2.1c-1.5,2.6-3.8,4.5-6,6.4c-1.2,1-0.2,3.6-2.7,3.6L499.1,381.3z
		"/>
	<path d="M513.3,388.5c0,1.8-0.7,2.7-1.8,3.9C511.5,390.7,511.8,389.6,513.3,388.5z"/>
	<path d="M508.4,395.1c-0.6,0.5-1,0.1-1.5-0.4c0.1-0.7,0.6-0.5,1-0.4C508.2,394.4,508.5,394.7,508.4,395.1z"/>
	<path fill="none" d="M680.2,459.9c-1.4-0.3-2.1-1.1-1.8-2.5c0.2-1,1-1.6,2.1-1.5c1.4,0.1,2.1,0.9,2.1,2.1c-0.4,1.2-1,0.2-1.5,0.5
		C680.2,458.5,681,459.7,680.2,459.9z"/>
	<path fill="none" d="M663.8,455.1c1.4-1.1,2.2-1,2.9,0.2C665.8,456.6,665,456.4,663.8,455.1z"/>
	<path fill="none" d="M674.7,457.5c-0.1,1.1-0.8,1.7-2.1,1.7c-1.2-0.1-2-0.8-2-2c-0.1-1.2,1.1-2.2,2.3-2.1
		C674,455.2,674.8,456.2,674.7,457.5z"/>
	<path fill="none" d="M729,220.3c0,1,1.5,0.6,1.5,1.5c-0.7,0.1-1.3-0.1-1.9-0.4C728.5,221,728.8,220.6,729,220.3z"/>
	<path fill="none" d="M407.4,468.4c-1,0.3-2.1-0.1-2.9,0.6c-0.9-0.6-1.6-1.3-1-2.4c0.4-0.7,1-0.9,1.8-0.8
		C406.6,466.1,407.5,466.8,407.4,468.4z"/>
	<path fill="none" d="M393.1,461.1c-1.3,1.4-2,0.4-2.9,0C391.2,459.9,391.2,459.9,393.1,461.1z"/>
	<path fill="none" d="M395.8,464.5c0.8-1.6,1.8-1.9,3.1-1.2c1.1,0.6,1.5,1.5,0.6,2.8C397.9,466.7,396.5,466.4,395.8,464.5z"/>
</g>
</svg>
