<?xml version="1.0" encoding="utf-8"?>
<!-- Generator: Adobe Illustrator 19.1.0, SVG Export Plug-In . SVG Version: 6.00 Build 0)  -->
<svg version="1.2" baseProfile="tiny" id="Layer_2" xmlns="http://www.w3.org/2000/svg" xmlns:xlink="http://www.w3.org/1999/xlink"
	 x="0px" y="0px" width="900px" height="600px" viewBox="144 97 900 600" xml:space="preserve">
<g>
	<path d="M718,637.4c-0.4,3.2-1.2,6.2-2.6,9.1c-1,2-0.8,4.4-2.2,6.4c1.6,1.1,3,2.1,4.6,3.2c1.6-2.2,1.6-5.2,4-6.7
		c-0.9-6-0.6-12.1-1-18c0-0.7,0-1.4-0.7-1.9c0.3-1.4,0-2.8-0.3-4.2c-1.1-5.2-1.9-10.5-2.6-15.7c-0.4-3.2-0.7-6.3-1.5-9.4
		c-1.7-6.3-2.8-12.6-3.2-19.2c-0.5-9.3,0.7-18.4,2.5-27.5c1.5-7.3,4.3-14.2,6.3-21.4c0.4-1.6,1.1-3.2,1.1-4.8
		c-0.2-4.5,0.5-9-0.1-13.5c-0.8-6.6-0.6-13.2-0.1-19.8c0.4-6.3,1.2-12.7,0.1-19.3c-1.3-0.5-1.9-1.7-2.4-3.1
		c-0.7-1.8-1.2-3.7-2.3-5.2c-5.4-7.2-7.5-15.5-7.3-24.3c0.1-6.6,2.1-12.8,6.6-17.9c4-4.5,7.1-9.7,10.3-15c-1.3-1.4-0.6-2.8-0.2-4.3
		c1.7-5.4,2.6-11,3.3-16.7c0.6-5-0.3-9.9-0.1-14.9c0.2-3.9-0.2-7.7-1-11.5c-0.3-1.5-0.7-3-1.1-4.5c-3.9-12.8-5.6-25.9-6.3-39.1
		c-0.4-6.7,0.1-13.2,2.5-19.5c0.2-0.5,0.5-1.1-0.3-1.4c-2.2,3-4.2,6.2-7.5,8c-1.4-1.9-0.2-3.1,0.4-4.3c2-4,3.9-8.1,5.2-12.4
		c0.4-1.3,1.1-2.7,0.3-4.7c-1.7,3.7-3.1,7.1-6.2,9.5c-0.8-1-0.2-1.5,0.2-2c0.6-0.9,1.4-1.6,1.5-2.8c0.6-6.3,1.8-12.7,1.2-19.1
		c-0.7-8.1-1.5-16.2-2.3-24.4c-0.2-1.9-0.3-3.8,0.4-5.6c2.7-6.8,7.4-10,14-6.2c1.5,0.9,2.9,1.9,4.6,2.9c1-1.7,2.5-2.7,3.7-3.7
		c0.7-3,1-5.9,0.5-8.9c-0.5-2.9-0.7-6,0.1-8.8c0.6-2.1,0.7-4.1,0.6-6.2c-0.2-5.4-0.4-10.9,1.3-16.2c0.5-1.6,0.6-3.2,0.9-4.9
		c1.2-9.1,0.6-18.2,0-27.1c-1.7-2.8-3.4-5.5-5-8.1c0.2-6.6,2.7-11.9,8.4-15.1c1-2.8,0.4-5.7,1.9-8.2c0.8,4,0.7,8-0.2,12.1
		c1.6,2.1,3.2,4.4,6,5.2c0.4-2.9,1.3-5.6,1.6-8.4c0.3-2.8,0.2-5.7,2.4-8.9c0.8,3.3-0.4,5.8,0.1,8.4c4.3,0.1,7.5-2.8,11.2-3.9
		c5.7-6.4,4.8-13.4,1.3-20.8c-1.7-3.7-4.7-5.9-8.6-7.3c-5.2-1.9-9.9-2.1-14.3,1.5c-1,0.8-2.1,1.5-3.1,2.4
		c-6.7,6.1-7.4,12.4-1.6,19.1c1,1.2,2.4,2.2,3,3.6c-0.4,0.6-0.8,0.5-1.1,0.3c-9.7-6.1-10.2-14.9-3.4-23.1c2.3-2.8,5.6-4.1,8.8-5.7
		c3.4-1.6,6.5-1.7,9.9-0.5c1.6,0.5,3.1,1.1,4.7,1.6c2.3,0.6,4.1,1.8,5.6,3.5c2.7,3.1,4.3,6.8,4.9,10.9c1.1,8.4-1.2,15.3-11.3,19
		c-2.3,0.8-4.7,1.3-6.9,2.1c-0.1,1.8,0.7,3,1.5,4.1c0.8,1.2,0.8,2.6,1.4,4.2c0.7-1.6,0.8-2.8,0.7-3.3c-0.5-2.3-2.7-3-2.2-5.1
		c3.6,3,4.7,6.4,3.1,10c-1.5,3.4-1.8,7.2-3.3,10.7c-0.3,0.6-0.3,1.5-0.1,2.1c0.9,2.4,0.7,4.9,1.1,7.3c2.2,11.6,4.5,23.2,6.4,34.9
		c1.2,7.1,2.1,14.3-0.1,21.4c-0.2,0.5,0,1.2,0,1.7c1,1.2,2.1,2,3.4,2.8c1.9,1.2,3.9,2.3,5.6,3.7c3,2.4,5.5,5.3,6.4,9.1
		c1.1,4.8,1.2,9.8,0.8,14.8c-0.1,1-0.2,1.9-0.8,2.7c-2.4,2.8-1.7,5.9-1,9.1c0.5,2,1.3,4,1.4,5.9c-0.3,0.4-0.4,0.6-0.6,0.8
		c-1.3,0.8-2.8,0.1-3.9,0.7c-1.3,1-0.4,2.5-1.1,3.5c-0.5,0.4-1.1,0.9-1.6,1.4c0.5,1.1,0.3,2.2-0.5,2.9c-1.1,0.9-1.4,2.1-1.7,3.4
		c-0.7,3-1.6,3.6-4.7,3.5c-1.8,0-3.3-0.9-5.6-1.3c3,3.7,5.7,6.9,8.7,10c4,4.1,7.8,8.2,11.7,12.3c3.7,3.9,5.8,8.5,6.8,13.8
		c1.1,5.8-0.7,10.4-4.8,14.4c-1,1-2.2,1.7-3,2.9c-0.4,7.9-0.4,7.9-2,9.1c-0.5-2.8,0.4-5.5-0.6-8.2c0.9-1.3,1.7-2.7,2.7-3.8
		c2.5-2.5,3.9-5.6,4.9-8.9c1.1-3.6,0.7-6.9-0.9-10.3c-2.8-6.1-7.8-10.3-12.2-15.1c-4.5-5-9.8-9.3-12.9-15.4c-0.4-0.8-0.9-1.9-2-2.2
		c-0.5,0.7,0,1.2,0.4,1.6c2.4,3.4,4.2,7.1,5.9,10.9c1.5,3.4,1.7,6.8,0.8,10.4c-1,3.8-2.9,7.2-5.2,10.4c-5.9,7.8-11.6,8.8-20,7
		c-6.8-1.4-11.3-6.3-15.1-11.6c-0.7,11.2,2,22.1,4.4,33.1c5.4,1.6,10.8,2.5,16.4,2.5c3.8,0,7.6,0.1,11.3,0.3
		c7.4,0.4,14.9,1.3,22.3,0.2c0.6-0.1,1.2-0.1,1.8,0.7c-0.4,6.1,0.1,12.5-1.3,18.7c-1.8,7.7-3.2,15.5-4.6,23.3c-0.7,3.9-1.2,7.9-1,12
		c0.3,5.9-0.1,11.9-1.7,17.6c-1.1,3.9-2.1,7.6-2.2,11.7c-0.1,2.1-0.1,4.2,0,6.4c0.2,3.8,1.3,7.4,1.8,11.2c1.1,10-0.1,19.9-1.9,29.6
		c-2.1,10.8-5.7,21.2-9.9,31.4c-2.5,6-4.9,12-5.7,18.6c-0.7,6-2.4,11.8-6.4,16.6c-0.8,1-1.3,2.3-1.6,3.5c-0.7,3.4-1.3,6.7-0.7,10.2
		c0.5,2.9,0.4,5.9,0.4,8.9c-0.1,10.7-2.3,21.1-3,31.7c-0.3,4.9-0.6,9.9-0.9,14.4c2.8,3.8,6.9,5.8,9.4,9.2c2.9,3.9,7.1,5.6,11.2,7.7
		c1.3,0.6,2.7,0.9,4.1,1c3.4,0.3,6.8,0.9,10,2c3,1,4.6,5.2,3.2,8.3c-1.1-2.2-1.2-4.7-3-6.7c-3.4-0.9-6.9-1.8-10.6-1.9
		c-2.5-0.1-4.9-0.2-6.9-1.9c-1.2-1-2.5-1.1-4.1-0.6c0.1-2.3-2-2.3-2.7-3.5c-1.1,0.1-1.5,1.6-2.7,1c-1.3-1.3,0.4-2.3,0.3-3.5
		c-0.3-0.6-0.5-1.3-1.4-1.4c-1.4,0.6-2.1,2.7-4.1,2.1c-0.5-2.3,2.3-2.6,2.4-4.7c-1.7-0.2-3.1-0.9-4.5-2.4c0.6,6.4,0.6,12.3,1.6,18.1
		c4.5,3.3,8.8,6.8,11.9,12c8.3-1.3,16.6-2.2,24.4-5.7c0.3,1.2-0.3,1.6-0.9,2c-1.8,1.1-3.7,2.1-5.9,2.4c-5.5,0.7-10.6,2.8-16.3,3
		c1.1,2,2,3.8,3.1,5.5c1.4,2,3.7,2.8,5.8,3.8c6.7,3.2,14.1,4.3,20.8,7.5c2,0.9,3.2,2.2,4.3,4c0.9,1.5,1.7,2.9,0.4,4.6
		c-0.3,0.4,0.1,0.9,0.2,1.3c0.2,1.4,0.1,2.8-1.1,4.1c-1.2-0.8-2.3-0.2-3.5,0.3c-3.9,1.8-8,2.8-12.4,2.6c-4.7-0.2-9.4,0.4-14.1,0.5
		c-4.6,0.1-9.2,0.2-13.7-1.1c-6.4-1.8-13-2.2-19.6-1.8c-3.4,0.2-6.8,0.3-10.2-0.3c-3.6-0.6-5.5-3.2-7.5-5.3c0.1-1.7,0.9-2.7,1.4-3.7
		c1-2,1.9-4.1,1.9-6.4c0-3.5,1.1-6.7,2.7-9.8c0.9-1.8,1.4-3.7,1.7-5.6c-5.1-1.7-5.1-1.7-6.9-4.4c2.8-6.6,5.1-13.5,6.6-20.6
		c0.2-0.9,0.7-1.7,1.2-2.6c0.3-0.6,0.9-0.7,1.5-0.6C719,631.9,718.4,634.6,718,637.4z M777.4,240.3c-0.2-1-0.3-1.7-1.2-1.9
		c-0.5-1.8-1.4-3-3.5-2.7c-1.7-2.8-5-2.9-7.4-4.4c-2,1.8-0.8,4.1-1,6.1c-0.2,2.1-0.2,4.2-0.4,6.4c0,0.9,1,0.8,1.3,1.4
		c-0.2,0.9-1.1,0-1.6,0.6c-0.9,9.4-2.1,18.8-3.8,28.2c-0.6,3.4-1.7,6.6-1.6,10.1c0,3.2,0.4,3.8,3.3,5.1c2.3,1,4.7,1.5,7.1,2.1
		c2.3-0.7,1.9-2.8,2.4-4.4s2.8-2.1,2.3-4.1c-0.9-1.2-2.6,0.3-3.6-1.4c1.5-1.3,3.5,0.3,5-0.8c0.6-0.7,0.6-1.7,0.6-2.7
		c-0.2-0.8-1.5-0.9-1.3-1.9c2.1-0.5,4.4,0.8,6.6-0.3c-0.6-1.9-1.2-3.7-1.7-5.4c-1.1-3.5-1.5-7,1.4-9.6c-0.5-4.8,1-9.3-0.4-14
		c-2-1.2-3.3-3.4-4.9-5.5c-1.8-2.4-4.2-4.1-6.8-5.6c-0.8-0.4-1.6-0.8-3.1-1.6c3.6,0.4,3.6,0.4,8.8,3.9c0-0.4,0.1-0.7,0.1-1
		c1.1,0,1.3,1.4,2.3,1.4C776.1,239.1,776.6,239.6,777.4,240.3z M734.2,262.4c1.4-0.9,1-2.1,0.3-3.3c-0.9-1.7-2-3.4-2.4-6.1
		c1.8,1.9,1.9,4.1,3.7,5.3c1-0.8,1.4-1.9,1.6-3.4c-3-3.2-3.9-7.3-3.5-12.5c-2,3.3-3.1,11.7-2.3,15.3c-1.2,0.7-0.7,1.9-0.6,2.8
		c0.1,1.6,0.5,3.2,0.8,5c1.3-0.6,1.8-1.5,1.3-2.7c-0.4-1.1-0.9-2.2-0.9-3.3C733.2,260.1,733,261.7,734.2,262.4z M752.9,527.4
		c7.5-14.4,13.3-29.1,14.6-45.8c-7.2,1-14.3,0.7-21.2-0.1c-6.9-0.8-13.9-0.8-20.7-2.9c-0.8,1.1-0.5,2.3-0.5,3.4
		c-0.1,5.9-0.7,11.8-0.9,17.7c-0.1,4.6,0.4,9.2,0.7,13.8c0.6,10.6-0.4,21-4.8,30.9c-1.4,3.2-2.2,6.5-2.9,9.8
		c-1.4,7.1-1.9,14.3-2.5,21.5c-0.7,8.1,1.7,15.7,3,23.5c2.2,12.8,4.8,25.5,5.6,38.6c0.4,6.4,0.4,12.7,0.4,18.8
		c1.2,2.3,3.4,3,4.7,4.8c1.8,0.2,3.5,0.3,4.5,0.1c3.9-3.7,7.4-6.9,10.7-10c0.4-2.2,0.1-4-0.3-5.9c-1.7-9.3-3.8-18.5-2.6-28.1
		c0.7-6.1,0.7-12.3,1.5-18.4c0.3-2.6,0.8-5.2,1.1-7.9c0.7-5.5,0.8-11.1,0.5-16.6c-0.3-5.7,0.1-11.3,0.7-17c0.4-3.8,2.8-6.7,4.5-9.9
		c1.1-2.2,2-4.5,2.4-6.9c0.8-4.3,1.9-8.5,2.8-12.7C753.6,527.6,752.9,527.9,752.9,527.4z M741.6,234.4c0,4.4,0.3,8.8-0.3,13.1
		c-0.9,6.3-3.2,12.1-6.4,17.5c-2.7,4.8-4.4,9.9-5.4,15.3c-1.5,8-2.3,16.1-4.2,24.1c-0.5,2.2-0.4,4.5-0.6,6.9c1.2,1.2,1.3,3,1.7,4.7
		c0.4,1.9,1.4,3.5,2.7,4.9c2.6,2.7,5.4,4.8,8.8,6.5c6.3,3,12,1.9,17.2-2.4c4-3.3,6.8-7.5,7.9-12.7c0.8-3.8,0.7-7.2-1.6-10.5
		c-0.8-1.2-1.5-2.4-2.2-3.7c0.4-1.3,1.1-2.6-0.8-3.5c-0.9,1.4-0.5,3.6-2.4,4.5c0.5-6.7-0.3-13.4,1-20c0.9-4.5,1.9-9,2.4-13.6
		c1-9.2,2.8-18.4,2.9-27.7c0.1-5.4,1.9-10.4,2-15.7c0.4-11-0.7-21.6-3.4-32.2c-1.8-7.2-3.1-14.5-2.9-22.1c0-0.9-0.3-1.9-0.5-2.8
		c-0.9-3.1-0.9-6.1,0.8-8.9c0.8-1.4,1.1-2.9,0.5-4.4c-0.7-1.6-1.4-3.2-0.5-5.1c0.2-0.3-0.4-1-0.7-1.8c-0.9,1.1-1.7,2.1-2.3,2.9
		c-0.3,0.9,0.9,1.6,0,2.7c-3.1-3.6-7.8-5.7-9.1-10.8c-1.8,0.1-1.9,2.5-3.7,2.4c-0.7,1.9,0.7,4.5-2.3,5c-0.3,1.8-0.6,3.4-0.9,4.9
		c0.4,1.9,1.5,3.1,2.7,4.3c3.2,3.3,4.8,7.2,4.6,11.8c-0.1,3.4,0.2,6.8,1,10.2c1.1,4.7,0.6,9.5-0.8,14c-2.3,8-3.7,16.1-4.8,24.3
		c-0.3,2.4-0.5,4.7-0.1,7c0.3,2.4,0.5,4.9,0.8,7.9C741.2,232,741.6,233.2,741.6,234.4z M728,421.4c3.2,1,6.4,1.8,9.5,2.9
		c2.7,1,5.4,1.7,8.3,1.8c7.3,0.3,14.6,0.5,21.7-0.5c1.1-1.3-0.1-3,1.3-4.4c1.1,1.5,0.8,3.3,1.2,4.9c1.3-0.2,1.1-1.1,1.2-1.9
		c0.6-4.6,1.6-9.1,0.9-14c-0.7-4.4,0.4-8.9,1-13.4c1.1-8.9,3-17.7,5.2-26.3c1-3.8,1.2-7.7,1.5-11.5c0.1-0.7,0.2-1.4-0.4-2.2
		c-8.7,1.6-17.4,0.3-26.2-0.6c-0.4,2.1,1.4,3.4,1.1,5.5c-2-1.6-2.5-3.6-3-5.6c-3.6-1.4-7.3-0.6-11-0.6c-3.5-0.1-6.9-0.9-10.8-1.8
		c5.6,22.8,5.4,44.7-5.8,65.9C725,420.7,726.5,421,728,421.4z M722.3,421.7c-6.5,7.3-10.2,15.3-9,25.4c0.8,6.4,2.8,12.1,6,17.6
		c2.1,3.7,4.3,7.3,5.4,11.8c14.1,4.3,28.5,3.7,43,3.1c1.4-4,1.7-7.9,2.1-11.7c0.6-6,0.4-12-0.9-18c-1.3-5.9-1.4-12-1.3-18
		c0-0.9,0.2-1.9-0.4-3.5C751.7,430.1,736.7,428.5,722.3,421.7z M721.3,659.6c-0.7-0.9,0.3-2.1-0.6-3c-0.1,0-0.3,0.1-0.3,0.1
		c-1.6,6.1-5.3,11.5-5.2,18.2c0,2.7-1.6,5.1-2.8,7.6c1,1.1,2,2.1,3,3.2c3.6,0.8,7.4,1,11.2,0.6c7.1-0.8,14.2,0.3,21.1,1.6
		c3.6,0.7,7.2,1.2,10.9,1.1c8.3-0.1,16.5-0.2,24.7-1.6c2.2-0.4,4.3-1.3,6.3-2.5c0-2.9-1-5.6-1.4-8.7c-6.5-2-13.1-4-19.3-7.2
		c-1.4,0.8-2.5,2.4-4.3,1.2c-0.4-1,0.8-1.3,0.9-2.2c-0.8-1-2.2-1.1-3.3-1.9c-1.5,1-2.4,3.5-4.9,2.5c-0.7-2,1-2.8,1.7-4.1
		c0-0.8-0.5-1.5-1-2c-0.5-0.2-0.7,0.1-0.9,0.3c-2.6,2.2-2.6,2.2-5.4,1.6c0.6-2.6,3.4-2.7,4.7-4.4c-0.2-1-0.8-1.6-1.8-2.4
		c-1.7,1.6-3.5,3.1-5.9,3.6c-0.9,0.2-1.9,0.4-2.8-0.6c0.4-3.9,4.9-3.5,6.8-6.1c-1.5-2.2-3.1-4.2-5.5-6.2c-0.3,2.5-1.7,3.8-3.2,5.2
		c-2.6,2.5-4.9,5.1-7.3,7.7c-2.7,2.8-6.8,3.1-9.9,0.8c-1.1-0.8-2.2-1.7-3.1-2.4C722.6,659.4,721.9,660.4,721.3,659.6z M722.6,253.3
		c1.7,0.3,0.7,1.9,2.2,2.2c0.3-3.3,0.3-6.7,2.1-9.6c-0.6,4.2-1.1,8.4-1.1,12.6c0,2.5,0.4,4.8,0.8,7.3c0.6,3.6,0.3,7.3-0.2,10.9
		c-1.2,8.6-3.7,16.8-8,24.4c-0.1,0.2-0.1,0.4-0.1,0.6c2.3-2,3.7-3.8,4.9-7.6c2-6.8,4.7-13.4,4.7-20.6c0-0.6,0.2-1.2,0.4-1.7
		c1.1-3.4,1.4-6.8,0.8-10.4c-1.2-7,0.3-13.5,3.6-19.9c2.9,1.5,3.8,4.7,6.3,6.2c1.2-2.6,1.4-7.1,0.5-11.5c-2.5,0.3-4.1,2-5.9,3.7
		c-1.9-0.3-3.3-1.9-5.6-1.5c1.2-1.3,2.3-0.6,3.1-1.1c0-0.5,0.1-0.9,0.1-1.4c-0.9-0.6-1.8-1-2.9-1.2c-3.1-0.7-4.9,0.1-6.6,2.8
		c-2.6,4.2-3.4,8.7-2,13.5c1.4,4.9,1.8,10,2.3,15c0.3,2.5-0.1,5.2,0.8,8.3C723.2,267,722.7,260.2,722.6,253.3z M742.3,201.5
		c1.9-5.3,2.3-10.9,3.1-16.4C743.6,190.4,743.1,195.9,742.3,201.5z M721.1,277c-0.3,2.4-0.3,4.6-0.8,6.8
		C722.6,280.5,722.6,280.1,721.1,277z M739,250.7c0.5-1.6-0.6-1.9-2-2.9C737.5,249.4,737.7,250.3,739,250.7z M731.2,266.7
		c-1.5,0.9-0.9,2-1.2,3.5C730.9,268.9,731.5,268.1,731.2,266.7z M725.5,268.9c0.1-1,0.4-1.9-0.1-3
		C725.3,267,725.1,267.9,725.5,268.9z"/>
	<path d="M444.6,589.3c0.9-1.3,1.7-2.6,2.6-3.9c-5.5,2.1-9.4,6.4-14,10c-2.7-1.1-5.3-2.1-8-2.5c-15.9,5.2-14.2,6.7-18.5,18.1
		c4.5,4.6,8,10.1,12.3,14.9c4,0,7.6-0.5,11-2.1c3.1-1.5,5.4-3.6,6.3-7.2c1.2-4.6,2.9-9,2-14.1c1.9,0.6,2.2,2,2.3,3.2
		c0.5,6.1-1.3,11.7-4.9,16.5c-3.1,4.2-7.9,5.1-12.8,6c-3.5,0.6-5.9-0.9-7.7-3.1c-3.2-3.9-5.9-8.2-8.8-12.4c-0.5-0.7-0.8-1.4-0.8-2.3
		c0.3-7.1,2.9-13,9.4-16.4c5.2-2.7,10.7-4.3,16.6-1.7c0.4,0.2,0.9,0.1,1.5,0.2c1.3-2,4-2,5.3-4.1c-1.3-0.7-3.2-0.7-3.1-3.4
		c3.8-0.7,6.4-4,10.4-5.1c1-3.3,4.8-2.7,7.2-4.8c-0.9-0.2-1.3-0.4-1.7-0.5c-7.3-1.8-14.6-3.8-21.7-6.4c-3.9-1.4-7.9-2.4-12-2.9
		c-1.1-0.1-2.4-0.1-3.1-0.7c-2.2-1.8-5-2.7-7.4-4.1c-3.5-2.1-6.2-4.7-8-8.3c-5.9-11.6-5.2-22.7,2.3-33.4c3.9-5.6,9.1-9.8,14.8-13.6
		c2.2-1.5,4.3-2.8,6.3-4.6c6.1-5.5,10.9-12,15-19.1c0.9-1.5,1.7-3.1,2.2-4.8c1.5-4.9,3.9-9.3,6.8-13.6c1.1-1.6,2.3-3,3.1-4.7
		c2.5-5,6.1-9.3,10.1-13.1c3.4-3.2,6-7.2,8.9-10.7c1.6-1.9,2.7-4.1,3.4-6.7c-1.3-2.6-1.8-5.5-2.3-8.4c-1.1-5.8-1.6-11.7-2.8-17.5
		c-0.9-3.9-1.4-7.9-1.3-12c0.2-6,3.2-8.9,9.2-8.6c1.9,0.1,3.9,0.4,5.6,0.6c3.1-6.2,7.1-11,13.3-13.9c4.4-2.1,9.1-3.1,13.4-4.7
		c1.7,0.2,3.1,0.5,4.5,0.5c4.7,0.3,9,1.8,12.2,5c4.4,4.4,6.8,10.1,8.5,16.1c0.1,0.4,0.1,1,0,1.4c-0.8,3.4,1,5.9,2.9,8.3
		c1,1.3,2.3,2.3,2.8,4c-4.7-2.2-7.5-7.4-7.1-13.1c-2.1-3.9-2.8-8.5-5.8-12.2c-1.1-0.9-2.8-0.4-4.2-1l0.1,0.1
		c-2.8-3.2-6.7-3.6-10.5-4.3c-1.6-0.3-3.3-0.2-4.9-0.3c2.9-2,6-0.7,9.2-0.5c-1.8-2.1-1.8-2-3.9-2.2c-2.8-0.2-5.4,0.3-8,1.4
		c-3.5,1.5-7,2.8-10.4,4.5c-3.1,1.5-5.6,3.9-7.7,6.7c3.9-1.8,7.4-4.6,11.6-5.9c-5.7,4.5-13.5,6.6-16.3,14.5
		c-1.9,0.3-3.8-0.4-5.6,1.2c0.2-2,2.2-1.6,2.3-3c-3.5-1.8-7.1-0.4-8,3.2c-0.6,2.2-0.4,4.5-0.1,6.7c0.4,3.2,0.3,6.4,0.6,9.5
		c0.5,5,1.3,10,2,15.1c0.1,0.8,0.5,1.3,1.3,1.5c1.1-1.4-0.7-3.1,0.9-4.5c0.8,2.9,0.5,5.9,2.6,9c-1.5-10-2.7-19.4,1-28.5
		c-0.8,4.6-1.2,9.2-1.1,13.9c0.1,2.8,1.9,7,4,9.1c0.9-1.3,0-1.8-0.9-2.2c-0.8-5.6-0.5-11.1,0.8-16.6c0.7-3,0.6-5.8,0.2-8.8
		c-0.2-1.2-0.6-2.3,0-3.4c0.7-0.6,1.3-0.7,1.7,0.2l0,0c-1.3,1.6-0.6,3.3-0.1,5c1.2,3.5,2.4,7,3.7,10.5c0.9,2.3,2.6,3.9,4.6,5.2
		c1.4,0.9,2.9,1.6,4.3,2.4c1,0.6,1.8,1.3,1,2.5c-6.3-2.1-11.1-5.9-14-12.9c-0.5,5-0.7,9.3,0.3,13.5c0.9,3.7,2,7.2,0.4,11.5
		c4.5-2.1,7.4-5.3,11.2-7.3c1.7-0.9,2.4-2.9,2-5c2-0.3,1.9,1.2,2.3,2.3c-1.9,5.1-7.2,6.2-10.8,9.8c3,0.6,5.7,0.9,8.5,0.6
		c5.7-0.7,7.3-0.5,12.5,1.9c0.2-0.4,0.5-0.8,0.7-1.2c1.6,1.3,3,2.5,3.2,4.8c0.1,1.6,1.8,2.7,2.9,4.1c-0.2-1.8,0.8-2.9,1.7-4
		c1.8-2.2,3.2-4.6,3.9-7.4c1-3.9,3.8-5.5,7.5-5.7c2.1-0.1,4.2-0.4,6.1-1.2c1.2-1.7,0.3-3.3-0.1-4.8c-0.1-1.6,1.7-3,0.3-4.7
		c-1.3-0.6-2.3,1.5-3.7,0.3c0.9-1.7,3.2-1.1,4.3-2.7c0.2-2-1-3.1-3.2-3.7c1.9-0.8,3.4-1.4,4.9-2c0.9-0.4,1.6-0.9,1.5-2.1
		c0.7,0.1,1,0.6,1.1,1.2c-0.5,2-2.9,1.9-3.9,3.5c0.4,1.6,1.7,3.3-0.2,4.8c1.8,1.7,0.8,3.4,0.2,4.8c0.7,1.8,1.2,3.3,0.6,4.9
		c-1.2,1.8-3.1,2.3-4.9,2.7c-1.5,0.3-3,0.6-4.5,0.8c-2.1,0.4-3.6,1.4-4.2,3.7c-1,3.3-2.3,6.4-4.5,9.2c-2.3,2.9-2,4.7,0.2,7.5
		c1.3,1.7,2.5,3.4,3.7,5.1c-0.1,0.7-0.5,1.2-0.3,1.8c1.2,4.2,0.6,8.1-1.1,12.1c-0.7,1.6-1.2,3.4-1.3,5.1c-0.1,2.1-0.8,3.9-1.8,5.6
		c-1.4,2.3-1.4,4.7-0.8,7.1c1.5,5.7,0,11-2.8,15.9c-0.5,0.9-1.4,1.5-2.4,2.1c-1.9,1.1-3.9,2.3-5.7,3.4c-2.9,5.8-5.6,11.5-8.1,17.4
		c-0.5,1.2-1.1,2.4-1.1,3.7c-0.1,2.9-0.2,5.9-0.4,8.9c2.9,1.3,5.9,2.3,8.2,4.3c2.9,2.5,6.2,4.3,9.5,6c3.5,1.8,6.7,4,9.2,7.1
		s3.2,6.5,2,10.3c-0.4,1.2-0.9,2.4-1.5,3.7c1.4,0.6,2.3,1.5,2.5,3.1c0.4,4.1,1,8.3-1.1,12.1c-0.3,0.5-0.5,1.1-0.5,1.7
		c-0.3,3.5-2.3,6-4.8,8.4c-3.7,3.6-7.6,7.1-10.5,11.5c-4.2,6.5-9.2,12.3-14.1,18.2c-4.9,5.8-9,12.1-13.1,18.5
		c-0.9,1.5-1.7,3.1-2.6,4.8c2.7,2,5.3,3.9,7.8,5.9c1.2,0.9,2.4,1.3,3.9,1.6c3.5,0.7,6.9,1.6,10.1,2.4c1.7,2.2,2,4.5,2.2,6.7
		c-1.1,2.2-3,3.1-5,3.3c-4.7,0.4-9.3,1.4-14.1,1.1c-1-0.1-2.1-0.4-3.2,0.3c1,1.6,2,3.2,3.2,4.6c2.3,2.5,5,4.5,8.4,4.7
		c3.3,0.3,6.4,1.6,9.7,1.8c1.6,0.1,3.2,0.8,4.8,1c1.1,0.2,2,0.7,2.6,1.6c1.6,2.5,3.2,5,4,7.8c0.3,1,0.5,2.1-0.1,3.1
		c-5.1,2.7-10.4,4.4-16.3,4.1c-0.9-0.1-1.9,0.2-2.8,0.3c-7.2,1.1-14.3,1.3-21.5-0.2c-6-1.2-12.1-2.2-18.2-2.5
		c-3.2-0.1-6.3-0.7-9.5-1.3c-2.2-0.5-4.3-1.1-6.5-1.5c-1.9-0.3-1.6-2.4-2.8-3.2c-2.4-1.7-2.5-3.7-1.3-6.2c0.6-1.2,1.3-2.2,1.9-3.4
		c2.3-4.2,4.5-8.5,6.5-12.9c0.5-1,1.1-2.3,0.7-3.6c-3.8-1-7.1-2.7-9.8-5.5c1.2-2.3,2.9-4.3,3.1-6.5c0.4-3.5,2.3-5.9,4.1-8.4
		c1-1.3,1.7-2.7,2.1-4.4c0.5-2.2,1.7-4.4,2.8-5.6c2.5-1.8,3.3,0.4,4.5,1.1c9.5-16.6,17.3-33.9,26.6-50.5c-2.7,0-5.6-0.5-8.4,0
		c-4.6,6.5-8.2,13.4-9.9,20.7c-3.6,1.7-7.2,2.2-10.4,3.9c-1.5,0.8-3.1,0.9-4.3,0.1c-1.7,0.3-2.6,1.8-4.4,0.8c1.9-2.5,4.7-3.9,6.7-6
		c0.4-2.1,2.5-3.8,1.2-6.3c-0.9-0.2-1.5,0.6-2.3,0.6C444.7,589.4,444.6,589.4,444.6,589.3z M453.4,660.2c1.4,0.2,2.3-0.4,3.3-0.8
		c-0.7-1-1.2-1.9-1.9-2.9c0.7-2,0.2-4.4,2.4-6.2c0.4,1.9-0.8,3.2-1.1,5c0.6,0.9,1.7,1.8,1.9,3.5c4.6-3.1,9.3-5.4,12.9-8.7
		c2.8-5.8,4.7-11.7,8.1-16.8c5.6-8.2,11.1-16.5,18.1-23.6c2.5-2.6,4.5-5.8,6.5-8.8c3.3-5.1,7.3-9.6,11.7-13.7
		c1.8-1.6,3.4-3.3,4.9-5.1c2.3-2.9,2.4-2.8,2.5-6.7c0-0.9-1.5-0.8-1.3-1.9c0.4-0.9,1.3,0,1.9-0.4c0.8-3.4,0.6-6.5-1.8-9.3
		c-1.4-1.7-2.4-3.8-3.8-5.6c-2.9-3.7-6.3-6.6-10.6-8.6c-4.8-2.2-9.3-5.2-14.1-7.4c-6.4-2.9-12.9-5.3-19.5-7.4
		c-8.5-2.6-16.9-5.4-25.4-7.8c-9.4,3.1-13,10.9-16.2,19.1c0.3,1,1.3,1.1,1.5,1.7c-0.4,0.6-1.1,0-1.8,0.6c-1,2.6-2.1,5.5-3.4,8.2
		c-1.4,2.7-4.1,4.1-5.8,6.9c6,0.7,11.4,2.7,16.8,4.7c7.8,2.9,16,3.9,24.3,4.3c7.7,0.3,15.4,0.5,23,0.5c3.1,0,6.1-0.9,9.1-1.2
		c0.6,0,1.1-0.3,1.8,0c-0.5,0.9-1.4,1-2.2,1.3c-3.5,1-6.5,2.8-9.1,5.3c-6.5,6.1-11.9,12.7-13.8,21.8c-1.7,8.4-4.7,16.3-8.3,24
		c-2.6,5.6-4.8,11.3-7.2,17c-0.5,1.3-0.9,2.7-1.3,4c-0.6,2.2-1.2,4.3-2.5,6.2c-1.4,1.9-1.5,4.2-1.9,6.5
		C451.8,659.2,452.6,659.8,453.4,660.2z M488.1,462.7c1.9,1.4,1.3,2.9,1,4.3c-0.2,1.3-0.7,2.5-1.2,3.7c-3.6,8.6-4.6,17.8-6.8,26.7
		c-1,4-2.3,8-2.6,12.1c-0.2,2.5-0.6,4.9-1.4,7.3c-0.4,1.1-0.8,2.3-1.4,3.3c-2,3.3-2.7,7-4.1,10.7c6.2,1.7,12.1,3.7,17.6,6.5
		c2-1.9,2.8-4.1,3.2-6.4c0.5-2.9,1-5.8,0.9-8.8c-0.1-1.9,0.4-3.7,1.1-5.5c1.7-4,3.8-7.9,5.8-11.7c3.1-5.9,5.5-12,6.6-18.6
		c0.7-3.8,2.2-7.3,4.4-10.3c4.8-6.4,6.7-13.7,7.5-21.5c0.1-1.3,0.4-2.5,0.8-3.6c-0.6-3-1.7-5.5-3.8-7.6c-1.3-1.2-2.4-2.7-2.5-4.6
		c0-0.9-0.6-1.5-1.3-2.2c-0.7-0.2-1.5-0.2-2.2-0.6c-3.5-2-7.1-1.2-10.6-0.2c-3.7,1-6.6,3-8.9,6c-4.5,5.9-7.6,12.5-10.3,19.3
		c-1.2,3.2-1,6.5-0.4,9.8c0.6,3.2,1.4,6.4,2.2,10.1C484.9,474.7,487.4,469.2,488.1,462.7z M437.8,484.3c-3.9,8.2-9.9,14.6-16.7,20.4
		c-1.1,0.9-2.4,1.6-3,2.9c0.4,1.9,2,2.9,3.4,4c5.2,4.2,11.3,6.9,17.1,10.1c4,2.2,8.1,3.6,12.5,4.3c2.8,0.4,5.5,1.3,8,1.9
		c1.2-0.7,1.5-1.6,2-2.4c2.4-3.1,4.7-6.1,7.8-8.7c2.9-2.4,5.2-5.5,7.8-8.2c0.3-2.7,0.6-5.4,0.9-8.2c-3.9-2.3-7.5-5-11.4-7.3
		c-8.6-4.9-15.4-11.7-20.9-19.8c-0.1-0.2-0.4-0.2-0.9-0.5C442.1,476.5,439.7,480.2,437.8,484.3z M445.7,470.5
		c7.8,12.3,19.5,19.7,32.6,25.9c1.7-4.5,2.5-8.8,3.5-13.2c-2.5-3.6-4.1-7.5-4.8-11.7c-0.4-2.2-0.5-4.5,0.1-6.7
		c2.3-8.6,5.5-16.8,11.1-24c2.3-2.9,4.8-5.6,8.3-7c3.7-1.5,7.5-2.1,11.9-0.4c-0.8-1.5-1.4-2.4-1.5-3.6c-3.7-1.6-7.2-2.5-11.1-1.1
		c-2.9,1.1-6,1.2-9,0c-1.1-0.4-2.3-0.6-3.2-0.8c-2.1,0.7-3.2,2.2-4.3,3.8c-2.3,3.2-5.3,5.7-8.5,7.9c-1.3,0.9-2.5,1.8-3.9,1.5
		C456.9,449.2,451,459.4,445.7,470.5z M398.3,530.8c-0.7,3.1-1,6.3,0,9.5c0.5,1.7,0,3.5,0.5,5.2c1.4,5.4,4.5,9.5,9.2,12.5
		c3,1.9,6.3,3.2,9.3,4.5c0.9,0,1.4-0.3,1.8-0.7c4.8-4.8,8.8-10.2,10.6-16.8c0.4-1.5,0.9-2.9,1.6-4.3c2.8-5.3,6.2-10.2,10.5-14.5
		c-2.1-3.2-5.7-1.8-9-2.5c1.2-1.1,2.3,0.1,3.5-0.8c-7.7-3.6-15.9-6.3-20.3-14.5C407.2,513.7,400.7,520.7,398.3,530.8z M473.1,652.6
		c-2.6,0.6-3.5,2.5-4,4.7c-1.3,0.1-1.1-1.4-2-1.4c-2.3,1.5-4.5,3-6.8,4.4c-1,0.6-2,1.2-3.1,1.6c-4.4,1.8-6.7,0.6-7.7-4.1
		c-0.3-1.7-0.5-3.4-0.8-5.5c-2,1.5-3,3.4-3.6,5.4c-1.6,5.7-4.7,10.5-7.5,15.6c-0.8,1.4-1.7,2.8-2.2,4.5c0.9,2.5,2.9,3.8,5.3,4.7
		c2.8,1,5.7,1.6,8.6,1.8c4.1,0.4,8.3,0.5,12.4,0.8c0.9,0.1,1.9,0.1,2.8,0.4c5.7,1.6,11.6,2.1,17.5,2.5c10,0.5,19.4-1.5,29-4.7
		c-0.7-3-2.9-5.2-3.7-8.1c-6-0.4-11.6-1.7-16.7-3.5c-1.4,0.5-1.5,2.1-2.9,1.6c-0.9-0.7,0.4-1.5,0.1-2.1c-1.5-0.3-2.2,1.9-3.6,0.8
		c-0.8-1.2,0.9-1.5,0.9-2.3c-0.3-0.7-0.8-0.9-1.4-1.1c-2.8,1.3-2.8,1.3-5.3,0.8c0-1.8,1.5-2.5,2.5-3.5c0-1.2-0.8-1.7-1.4-2.3
		c-0.5-0.3-0.7-0.1-1.1,0.1c-2.8,1.7-2.8,1.7-4.8,0.1c0.1-2,2.3-2.1,3.1-3.3c0.2-0.8-0.1-1.1-0.5-1.6c-2.3,0.3-4.2,3.4-7.1,1.3
		c0.8-2.9,4.2-2.6,5.6-4.7C474.4,654.5,474,653.4,473.1,652.6z M479.3,575.5c-2.9,3.3-5.1,6.9-6.7,10.9c-4,10.1-9.6,19.5-14.4,29.2
		c-2.3,4.5-4.6,9-7.6,13c0.7,3.6,2.1,6.6,5.1,9.2c1.4-2,2.2-4.2,2.9-6.4c1-3.3,2.4-6.4,3.9-9.5c2.6-5.3,4.8-10.7,5.9-16.6
		c0.7-3.7,2-7.3,3-10.9c1.7-6.2,5.9-10.7,10.6-14.7c1.9-1.6,3.8-3.1,6.4-5.1C484.8,574.9,482,575.2,479.3,575.5z M440.5,639.1
		c-0.7,1.2-1.4,2.4-1.4,3.9c-0.1,2.3-1.8,4.1-2.6,6.3c2.2,2.2,5.4,2.6,8,4.1c1.6-1,2.5-3.1,4.5-3c1,0.3,0.4,1.4,1.4,1.8
		c2.1-3.7,4.3-7.4,4.3-12c-4.3-3.7-5.1-8.9-7-14.5C445.9,631.1,443,634.9,440.5,639.1z M499.1,650.9c-2.5-0.4-5.2-1.1-7.8-1.5
		c-2.5-0.3-4.6-2.3-7.2-1.4c-0.8-0.8,1-1.9-0.4-2.4c-1.4-1-2.6,1.5-3.9,0.3c-1.1-1.2,0.9-1.9,0.2-3.2c-1.5,0.7-2.5,2.4-4.4,2.4
		c-0.7,1.2-1.3,2.3-2.1,3.5c1.7,3.1,3.4,6.2,5.2,9.3c7.4,0.7,14.5,0.3,22-2.3C500.2,653.8,500.3,652.3,499.1,650.9z M491.8,538.3
		c10.9,5.8,21.8,11.1,29.9,21.1c0.7-2.8,1.8-5.3,0.6-7.4c-1.8-3.3-4-6.5-7.7-8c-3.5-1.5-6.4-3.8-9.4-6c-3-2.3-6.1-4.4-9.9-6.1
		C494.2,534.1,493.7,536.3,491.8,538.3z M457.2,594.3c1.3-3,1.2-6.7,3.2-9.7c1.8-2.9,3.4-5.9,5.3-9.1c-3.4,0.1-6.6,0.6-9.8-0.2
		c-1.5,1.9-3.3,2.9-5.7,3.3c-2.4,0.4-3.1,2.5-3.4,4.7c0.5,1.1,1.3-0.2,1.6,0.1c1.8,5.5,0.1,10.2-2.2,15.2
		C450.2,597.3,452.4,593,457.2,594.3z M472.4,521.7c-0.7-1.3-1.9-1.5-2.9-2c-3.8,2.2-6.8,5.3-8.3,8.7c2.9,0.6,5.6,1.2,8.5,1.8
		C471.2,527.3,471.3,524.3,472.4,521.7z M511.5,491.5c2.1-4.8,3.3-9.7,2.4-15.4c-4.7,6.1-5.3,13.3-7.8,20.3
		C509,495.2,510.6,493.8,511.5,491.5z M480.8,424.9c-2-0.5-1-2.5-1.9-4.3c0,2.3,0,4.1,0,6c-1.9,1.6-2.4,4.2-3.4,6.4
		C478.1,430.9,479.7,428.1,480.8,424.9z M471.3,517.6c0.4,0.9,1.2,0.8,2,1.1c2.3-1.7,3-4.1,3.5-7.5
		C474.5,513.8,472.9,515.7,471.3,517.6z M445.3,582.6c-0.6-0.9-1.4-0.3-1.8,0.1c-1.9,1.5-3.7,3-6.3,3.2
		C440.5,586.8,443.2,585.7,445.3,582.6z M477.1,420.5c-0.3-1.9-0.5-3.3-0.7-4.8C476.2,417.3,475.7,418.8,477.1,420.5z M468.4,437.3
		c-0.6,0.8-1.8,1.1-1.7,2.8C468.6,439.7,468,438.2,468.4,437.3z M519.7,368.4c0.3-0.8-0.3-0.9-1.1-0.8
		C519,367.9,519.3,368.2,519.7,368.4z"/>
	<path d="M425.6,595.9c2.6-1.3,4.1-0.4,6,4.1C428.9,598.9,426.7,598.2,425.6,595.9z"/>
	<path d="M771.4,341.4c2.3,0,4.1,0.3,5.3,2.1C774.5,344.4,773.2,342.9,771.4,341.4z"/>
	<path d="M431.7,600.8c1.5,1.1,1.2,2.3,0.3,4.1C429.6,602.2,429.6,602.2,431.7,600.8z"/>
	<path d="M444.8,589.5c-0.4,1.5-1.3,2.5-3.4,2.8c0.8-1.6,1.3-3,3.1-3C444.6,589.4,444.7,589.4,444.8,589.5z"/>
	<path d="M749.7,121.6c0,0,0-0.2,0-0.3c1-1.3,2.4-0.9,3.8-0.4C752.1,120.8,751.1,122.1,749.7,121.6z"/>
	<path d="M435.6,598.7c-0.9-0.4-1.5-1-2.3-2.4C435.9,597.9,436.3,598.3,435.6,598.7z"/>
	<path d="M431.6,609.9c-0.3,0.8-0.5,1.3-2.1,1.5C430.3,610.5,430.3,609.6,431.6,609.9z"/>
	<path d="M431.8,606.9c0-0.4,0.1-0.9,1-0.9c0.7,0.9,0.4,1.5-0.7,1.9C432,607.5,431.8,607.2,431.8,606.9z"/>
	<path d="M758.9,126.7c0,0.2-0.1,0.5-0.2,0.5c-0.3,0.2-0.6,0-0.6-0.4c0-0.1,0.2-0.3,0.3-0.4C758.6,126.5,758.9,126.6,758.9,126.7z"
		/>
	<path d="M748.9,125.9c0.5,0.5,0.5,0.9,0.1,1.4C748,126.8,748,126.4,748.9,125.9z"/>
	<path d="M755.5,120.7c0.9-0.4,1.1,0.1,1.3,1.1C756,121.6,755.6,121.4,755.5,120.7z"/>
	<path fill="none" d="M751.1,540.6c-0.4,2.5-1.3,4.7-2.4,6.9c-1.6,3.2-4.1,6.1-4.5,9.9c-0.6,5.7-1,11.3-0.7,17
		c0.3,5.6,0.2,11.1-0.5,16.6c-0.3,2.6-0.8,5.3-1.1,7.9c-0.8,6.1-0.7,12.3-1.5,18.4c-1.2,9.6,1,18.8,2.6,28.1
		c0.3,1.9,0.7,3.7,0.3,5.9c-3.3,3.1-6.7,6.3-10.7,10c-1,0.2-2.7,0.1-4.5-0.1c-1.2-1.8-3.5-2.4-4.7-4.8c0-6,0-12.4-0.4-18.8
		c-0.8-13-3.4-25.8-5.6-38.6c-1.3-7.8-3.7-15.4-3-23.5c0.6-7.2,1.1-14.4,2.5-21.5c0.7-3.4,1.5-6.7,2.9-9.8
		c4.3-9.9,5.4-20.2,4.8-30.9c-0.3-4.6-0.8-9.2-0.7-13.8c0.2-5.9,0.8-11.8,0.9-17.7c0-1.1-0.3-2.3,0.5-3.4c6.8,2.1,13.8,2.1,20.7,2.9
		c7,0.8,14,1,21.2,0.1c-1.4,16.7-7.1,31.4-14.6,45.8c0,0.4,0.7,0.1,1.1,0.5C753,532.1,751.9,536.3,751.1,540.6z M749.5,532.4
		c1.1-0.5,1-1.5,1.1-2.4c0.6-0.5,1.7-0.7,1.3-2c-1.4,0.2-0.9,1.4-1.2,2.1C749.8,530.7,748.6,531,749.5,532.4z M727.8,651.7
		c-1.4,1.7-1.4,3.3-1.4,5.2c2.6,0.5,5,1.4,7.3,2.2c0.7-0.5,0.8-1,0.2-1.4c-1.7-1.1-3.7-1.4-5.6-2.2
		C728.1,654.3,728,653.2,727.8,651.7z M730.9,557.9c-0.3,3.1,0,6.1,1,9.6C732.4,563.8,731.6,560.8,730.9,557.9z M726.7,531.2
		c-1.7,1.8-1.9,3.3-1.7,5C726.1,534.9,726.2,533.4,726.7,531.2z M727.7,644.9c-1.3,1.8-1.3,1.8,0.1,3.9
		C728.1,647.5,727.9,646.3,727.7,644.9z M731.5,574.3c-1,1.2-0.7,2.1,0.1,3.6C732.3,576.3,732.5,575.4,731.5,574.3z M727.5,636.3
		c0.5-1.4,0.7-2.4-0.3-3.5C726.5,634.1,726.4,635.1,727.5,636.3z M743.2,558.4c0.8-2.2,0.9-3.9,0-6.1
		C742.6,554.5,742.3,556.2,743.2,558.4z M728,638.1c-1.4,1.4-1.3,2.3-0.5,3.4C728.3,640.4,727.7,639.5,728,638.1z M731.1,586
		c0.9-0.1,0.9-0.8,1.2-1.9C730.8,584.6,731,585.4,731.1,586z M731.1,593.3c0.3-0.5,0.6-1-0.1-1.7
		C730.5,592.4,730.7,592.8,731.1,593.3z"/>
	<path fill="none" d="M741.8,223.7c-0.3-2.4-0.2-4.7,0.1-7c1.1-8.2,2.5-16.3,4.8-24.3c1.3-4.5,1.9-9.4,0.8-14
		c-0.8-3.4-1.1-6.8-1-10.2c0.1-4.7-1.4-8.5-4.6-11.8c-1.2-1.2-2.3-2.4-2.7-4.3c0.3-1.4,0.6-3.1,0.9-4.9c3-0.5,1.6-3.2,2.3-5
		c1.8,0.1,1.8-2.3,3.7-2.4c1.3,5.1,6,7.2,9.1,10.8c0.8-1.1-0.3-1.8,0-2.7c0.7-0.8,1.4-1.8,2.3-2.9c0.3,0.8,0.9,1.5,0.7,1.8
		c-0.9,1.8-0.1,3.4,0.5,5.1c0.6,1.5,0.3,3-0.5,4.4c-1.7,2.8-1.7,5.8-0.8,8.9c0.3,0.9,0.6,1.8,0.5,2.8c-0.2,7.5,1.1,14.8,2.9,22.1
		c2.7,10.6,3.8,21.3,3.4,32.2c-0.2,5.4-2,10.4-2,15.7c-0.1,9.3-1.8,18.5-2.9,27.7c-0.5,4.6-1.5,9.1-2.4,13.6c-1.3,6.6-0.5,13.3-1,20
		c2-1,1.5-3.1,2.4-4.5c1.9,0.9,1.2,2.2,0.8,3.5c0.7,1.2,1.4,2.5,2.2,3.7c2.3,3.3,2.4,6.7,1.6,10.5c-1.2,5.2-4,9.4-7.9,12.7
		c-5.1,4.3-10.9,5.4-17.2,2.4c-3.4-1.6-6.3-3.8-8.8-6.5c-1.3-1.4-2.3-2.9-2.7-4.9c-0.4-1.7-0.5-3.5-1.7-4.7c0.2-2.4,0.1-4.7,0.6-6.9
		c1.9-7.9,2.7-16.1,4.2-24.1c1-5.4,2.7-10.5,5.4-15.3c3.2-5.5,5.5-11.3,6.4-17.5c0.6-4.3,0.3-8.7,0.3-13.1c0-1.1-0.3-2.4,1-2.8
		C742.3,228.6,742.2,226.1,741.8,223.7z M749.5,214.7c0.8-1.3,0.8-3,0.5-4.5c-0.3-1.4-0.5-2.9-0.2-4.8c-2,1.7-0.8,3.2-1,4.6
		c-0.2,1.5-0.3,3-0.4,4.6c-1.5,2.7-3.7,5.1-2.6,8.5C746.9,220.1,747.8,217.3,749.5,214.7z M742.8,254.1c-1.2-0.2-1.7,0.4-2.4,1.9
		C741.9,255.5,742.5,255.1,742.8,254.1z"/>
	<path fill="none" d="M729.5,353.8c3.8,0.9,7.2,1.8,10.8,1.8c3.6,0.1,7.3-0.7,11,0.6c0.5,2,1,4,3,5.6c0.3-2.1-1.5-3.5-1.1-5.5
		c8.8,0.9,17.5,2.2,26.2,0.6c0.6,0.8,0.5,1.5,0.4,2.2c-0.3,3.9-0.5,7.8-1.5,11.5c-2.2,8.7-4.1,17.4-5.2,26.3c-0.6,4.5-1.7,9-1,13.4
		c0.8,4.8-0.3,9.3-0.9,14c-0.1,0.7,0,1.7-1.2,1.9c-0.5-1.6-0.1-3.4-1.2-4.9c-1.4,1.4-0.2,3.1-1.3,4.4c-7.1,1-14.4,0.8-21.7,0.5
		c-2.9-0.1-5.6-0.8-8.3-1.8c-3.1-1.1-6.3-1.9-9.5-2.9c-1.5-0.5-3-0.8-4.3-1.8C734.8,398.5,735,376.6,729.5,353.8z M777.1,360.2
		c-2.7,1.3-10,10.4-11,13.4C769.8,369.4,773.4,365.3,777.1,360.2z M766.8,419.6c-0.4-2-1.4-2.9-2.4-3.8
		C764.7,417.2,765,418.5,766.8,419.6z M758.4,369.1c-0.2-0.8-0.4-1.5-1.8-1.5C757,368.5,757.4,369.1,758.4,369.1z M748.9,368.6
		c0.7-0.1,0.4-0.6,0.4-1c0-0.3-0.1-0.7-0.6-0.7C747.8,367.7,748.5,368.1,748.9,368.6z"/>
	<path fill="none" d="M767.5,432c-0.1,6,0,12.1,1.3,18c1.3,6,1.5,11.9,0.9,18c-0.4,3.9-0.7,7.7-2.1,11.7c-14.5,0.5-28.9,1.2-43-3.1
		c-1.1-4.5-3.2-8.2-5.4-11.8c-3.2-5.5-5.2-11.2-6-17.6c-1.2-10.1,2.5-18.1,9-25.4c14.4,6.8,29.4,8.3,44.8,6.8
		C767.8,430.1,767.6,431.1,767.5,432z M732.8,437.5c-1.1,1.2-0.6,1.9-0.3,2.7C733.4,439.4,732.9,438.7,732.8,437.5z"/>
	<path fill="none" d="M726.7,662.1c3.1,2.3,7.2,2,9.9-0.8c2.4-2.6,4.8-5.2,7.3-7.7c1.4-1.4,2.9-2.7,3.2-5.2c2.4,2,4,4.1,5.5,6.2
		c-1.9,2.6-6.3,2.2-6.8,6.1c1,1,1.9,0.8,2.8,0.6c2.4-0.5,4.2-2,5.9-3.6c0.9,0.7,1.6,1.4,1.8,2.4c-1.3,1.7-4.1,1.9-4.7,4.4
		c2.8,0.7,2.8,0.7,5.4-1.6c0.3-0.2,0.5-0.6,0.9-0.3c0.5,0.6,1,1.2,1,2c-0.7,1.3-2.4,2.2-1.7,4.1c2.5,1,3.4-1.5,4.9-2.5
		c1.1,0.8,2.5,0.9,3.3,1.9c0,0.9-1.2,1.2-0.9,2.2c1.8,1.2,2.9-0.5,4.3-1.2c6.2,3.2,12.8,5.1,19.3,7.2c0.3,3.1,1.4,5.7,1.4,8.7
		c-2,1.2-4,2.1-6.3,2.5c-8.2,1.4-16.5,1.5-24.7,1.6c-3.7,0.1-7.3-0.5-10.9-1.1c-7-1.3-14-2.4-21.1-1.6c-3.8,0.4-7.5,0.2-11.2-0.6
		c-1-1.1-2-2.1-3-3.2c1.2-2.5,2.8-5,2.8-7.6c-0.1-6.7,3.6-12.1,5.2-18.2c0-0.1,0.2-0.1,0.3-0.1c0.9,0.9-0.1,2.1,0.6,3
		c0.7,0.7,1.3-0.3,2.3,0.1C724.4,660.4,725.5,661.3,726.7,662.1z M734.1,678.1c2.6-0.1,4.1-1.8,4-4.3c-0.1-2.3-1.9-3.8-4.3-3.7
		c-2.5,0.1-4.1,1.9-3.9,4.4c0.1,1,0.7,1.9,0.1,3.5C731.9,677.7,733,678.2,734.1,678.1z M753.6,676.2c0.2-0.1,0.5-0.2,0.5-0.3
		c0.4-2.3,0.3-4.6-0.2-6.7c-0.7-0.6-1.3-0.5-1.9-0.4c-1.2,0.1-2.3,0.4-3.3,0.5c-1.2,2.5-1.2,2.5,0.4,4.8c0.3,0.9-1.2,1.6-0.5,2.6
		c1.8,0.2,1.7-2.2,3.3-2.5C753.2,674.4,752.3,676.1,753.6,676.2z M744,677.2c2-0.5,3.2-2.1,3.1-4.1c-0.1-1.7-1.5-3.2-3.3-3.6
		c-2.4-0.5-3.9,0.6-5.4,4C740.2,677,741.5,677.9,744,677.2z"/>
	<path fill="none" d="M774,236.8c0,0.3-0.1,0.7-0.1,1c-5.2-3.5-5.2-3.5-8.8-3.9c1.5,0.8,2.3,1.2,3.1,1.6c2.6,1.5,5,3.2,6.8,5.6
		c1.6,2.1,2.9,4.3,4.9,5.5c1.4,4.8-0.1,9.3,0.4,14c-2.9,2.6-2.5,6.1-1.4,9.6c0.5,1.8,1.1,3.5,1.7,5.4c-2.2,1.1-4.5-0.2-6.6,0.3
		c-0.1,1,1.1,1.1,1.3,1.9c0,1,0.1,1.9-0.6,2.7c-1.5,1-3.4-0.5-5,0.8c0.9,1.7,2.7,0.2,3.6,1.4c0.5,2.1-1.8,2.6-2.3,4.1
		c-0.5,1.6,0,3.7-2.4,4.4c-2.4-0.5-4.8-1.1-7.1-2.1c-2.9-1.3-3.3-1.9-3.3-5.1c0-3.5,1-6.8,1.6-10.1c1.7-9.4,2.9-18.9,3.8-28.2
		c0.5-0.6,1.3,0.3,1.6-0.6c-0.3-0.6-1.4-0.5-1.3-1.4c0.1-2.1,0.2-4.2,0.4-6.4c0.2-2-1-4.3,1-6.1c2.5,1.5,5.7,1.6,7.4,4.4
		C773.1,236.1,773.5,236.5,774,236.8z M768.7,264c1.3,1.1,2.5,2.2,3.9,3.4c1.6-1.5,1.7-4.1,4.3-4.6
		C773.9,261.9,771.3,262.4,768.7,264z M771.7,244.6c1.5-1,2.7,0.5,4.1,0.3c-1.3-2.4-2.1-3-5.9-3.5
		C770.5,242.5,771.1,243.5,771.7,244.6z M771.6,257.7c0.3,0.2,0.6,0.5,0.9,0.6c2.1,0.7,4.3,0.3,6.4,1.1
		C776.6,257.2,776.1,257.1,771.6,257.7z M764.8,242.7c0.8,1.4,1.9,2.1,3.3,2.5C766.8,243.5,766.8,243.5,764.8,242.7z"/>
	<path fill="none" d="M722,266c-0.6-5-0.9-10.1-2.3-15c-1.4-4.8-0.6-9.3,2-13.5c1.7-2.7,3.5-3.5,6.6-2.8c1,0.2,2,0.6,2.9,1.2
		c0,0.5-0.1,0.9-0.1,1.4c-0.8,0.5-1.9-0.2-3.1,1.1c2.4-0.5,3.7,1.1,5.6,1.5c1.7-1.7,3.4-3.4,5.9-3.7c0.9,4.4,0.6,8.9-0.5,11.5
		c-2.5-1.5-3.4-4.7-6.3-6.2c-3.4,6.4-4.8,13-3.6,19.9c0.6,3.6,0.3,7-0.8,10.4c-0.2,0.6-0.4,1.1-0.4,1.7c0,7.2-2.7,13.9-4.7,20.6
		c-1.2,3.9-2.6,5.6-4.9,7.6c0-0.2,0-0.5,0.1-0.6c4.2-7.6,6.7-15.8,8-24.4c0.5-3.6,0.9-7.4,0.2-10.9c-0.4-2.4-0.8-4.8-0.8-7.3
		c0-4.2,0.5-8.4,1.1-12.6c-1.8,3-1.7,6.3-2.1,9.6c-1.5-0.3-0.6-1.9-2.2-2.2c0,6.9,0.6,13.6,0.2,20.9
		C721.9,271.2,722.3,268.5,722,266z M726.3,238.4c-0.9-1.1-1.7-0.3-2.2,0.1c-2.3,1.8-3.1,4.4-3.2,7.2c-0.1,2,0,4,0,6
		C721.4,246.7,721.3,241.6,726.3,238.4z M729.5,241.6c0.9,0.1,1.5-0.1,1.7-1C730.2,240.1,730,240.8,729.5,241.6z"/>
	<path fill="none" d="M720.2,629.4c0.7,0.5,0.6,1.2,0.7,1.9c0.4,6,0.1,12,1,18c-2.4,1.5-2.4,4.5-4,6.7c-1.6-1.1-3-2.1-4.6-3.2
		c1.3-2,1.1-4.4,2.2-6.4c1.5-2.9,2.2-6,2.6-9.1C718.4,634.6,719,631.9,720.2,629.4L720.2,629.4z"/>
	<path fill="none" d="M731.6,257.7c-0.8-3.5,0.3-12,2.3-15.3c-0.4,5.2,0.5,9.3,3.5,12.5c-0.2,1.5-0.6,2.6-1.6,3.4
		c-1.8-1.2-1.9-3.4-3.7-5.3c0.4,2.7,1.5,4.4,2.4,6.1c0.6,1.2,1.1,2.3-0.3,3.3c-1.2-0.7-0.9-2.3-2-2.9
		C732,258.9,731.8,258.3,731.6,257.7z"/>
	<path fill="none" d="M742.3,201.5c0.8-5.5,1.3-11.1,3.1-16.4C744.7,190.5,744.2,196.1,742.3,201.5z"/>
	<path fill="none" d="M733.1,262.8c0.5,1.3,0,2.1-1.3,2.7c-0.3-1.8-0.7-3.4-0.8-5c-0.1-1-0.6-2.1,0.6-2.8c0.2,0.6,0.4,1.2,0.6,1.8
		C732.2,260.7,732.6,261.7,733.1,262.8z"/>
	<path fill="none" d="M721.1,277c1.5,3.1,1.4,3.5-0.8,6.8C720.9,281.7,720.9,279.5,721.1,277z"/>
	<path fill="none" d="M776.2,238.4L776.2,238.4c-1-0.1-1.1-1.6-2.2-1.5c-0.4-0.4-0.8-0.8-1.2-1.2
		C774.8,235.4,775.7,236.6,776.2,238.4z"/>
	<path fill="none" d="M739,250.7c-1.2-0.4-1.5-1.3-2-2.9C738.4,248.8,739.4,249.2,739,250.7z"/>
	<path fill="none" d="M731.2,266.7c0.3,1.4-0.3,2.2-1.2,3.5C730.3,268.7,729.7,267.6,731.2,266.7z"/>
	<path fill="none" d="M725.5,268.9c-0.4-1-0.2-1.9-0.1-3C725.9,267,725.6,267.9,725.5,268.9z"/>
	<path fill="none" d="M776.2,238.4c1,0.2,1,0.9,1.2,1.9C776.6,239.6,776.1,239.1,776.2,238.4L776.2,238.4z"/>
	<path fill="none" d="M453,651.5c1.4-1.9,1.9-4,2.5-6.2c0.4-1.4,0.7-2.7,1.3-4c2.3-5.7,4.6-11.4,7.2-17c3.6-7.7,6.6-15.7,8.3-24
		c1.9-9,7.3-15.7,13.8-21.8c2.6-2.5,5.7-4.3,9.1-5.3c0.8-0.2,1.7-0.4,2.2-1.3c-0.7-0.3-1.2,0-1.8,0c-3.1,0.3-6,1.2-9.1,1.2
		c-7.7,0-15.4-0.2-23-0.5c-8.3-0.4-16.5-1.4-24.3-4.3c-5.4-2-10.8-4-16.8-4.7c1.7-2.7,4.4-4.2,5.8-6.9s2.5-5.6,3.4-8.2
		c0.7-0.6,1.4,0,1.8-0.6c-0.3-0.7-1.3-0.7-1.5-1.7c3.2-8.2,6.8-16,16.2-19.1c8.6,2.3,17,5.2,25.4,7.8c6.7,2,13.2,4.5,19.5,7.4
		c4.8,2.2,9.3,5.2,14.1,7.4c4.4,2,7.8,4.9,10.6,8.6c1.4,1.8,2.3,3.9,3.8,5.6c2.4,2.8,2.6,5.9,1.8,9.3c-0.6,0.4-1.4-0.5-1.9,0.4
		c-0.2,1,1.3,1,1.3,1.9c-0.1,3.9-0.1,3.8-2.5,6.7c-1.5,1.8-3.1,3.5-4.9,5.1c-4.5,4.1-8.5,8.6-11.7,13.7c-2,3.1-4,6.2-6.5,8.8
		c-7,7.1-12.5,15.4-18.1,23.6c-3.4,5.1-5.3,11-8.1,16.8c-3.6,3.3-8.3,5.6-12.9,8.7c-0.2-1.6-1.3-2.6-1.9-3.5c0.3-1.8,1.5-3.1,1.1-5
		c-2.2,1.8-1.6,4.2-2.4,6.2c0.6,1,1.2,1.9,1.9,2.9c-1,0.4-2,1-3.3,0.8c-0.7-0.4-1.6-1-2.3-2.2C451.5,655.7,451.6,653.4,453,651.5z
		 M500.7,569.2c0.1-1.8-1.3-1.9-2.2-2.3c-1.2-0.5-2.4-0.8-3.7-1c-1.1-0.2-2.2-1-3.9-0.1C494.3,567,497.4,568.1,500.7,569.2z
		 M494.1,583.2c-1.7,0.9-1.7,0.9-2.8,3.3C493.3,585.4,493.3,585.4,494.1,583.2z M496.4,579.9c2.6-1.3,2.6-1.3,3-3.4
		C497.4,576.8,497.3,578.6,496.4,579.9z M486,593.4c1.6-0.9,2.1-2,2.3-3.3C486.7,590.4,486.5,591.7,486,593.4z M457.5,649.2
		c1.6-1.1,1.9-2.1,1.9-3.6C458.2,646.5,457.8,647.5,457.5,649.2z M510,589.4c-1.3,1-1.8,1.8-1.9,3.3
		C509.5,591.9,509.9,591,510,589.4z M463.1,637.3c-0.8,0.2-1.1,0.6-1.1,1.5C463.3,638.6,463.1,638,463.1,637.3z M460.8,641.8
		c-0.7,0.3-1.1,0.6-0.6,1.4C461,642.9,461,642.4,460.8,641.8z M483,563.3c0.5,0.7,1.1,0.9,2,0.2C484.3,563,483.7,562.9,483,563.3z"
		/>
	<path fill="none" d="M537.7,398.4c0.1,1.1-0.6,1.7-1.5,2.1c-1.5,0.6-3,1.2-4.9,2c2.2,0.6,3.4,1.7,3.2,3.7c-1.1,1.6-3.5,1-4.3,2.7
		c1.4,1.3,2.4-0.9,3.7-0.3c1.4,1.6-0.4,3.1-0.3,4.7c0.4,1.5,1.3,3.1,0.1,4.8c-1.9,0.8-4,1.1-6.1,1.2c-3.8,0.2-6.6,1.8-7.5,5.7
		c-0.7,2.8-2.1,5.2-3.9,7.4c-0.9,1.1-1.9,2.2-1.7,4c-1.1-1.4-2.8-2.4-2.9-4.1c-0.2-2.3-1.6-3.5-3.2-4.8c-0.3,0.5-0.5,0.8-0.7,1.2
		c-5.3-2.4-6.8-2.6-12.5-1.9c-2.8,0.3-5.5,0-8.5-0.6c3.6-3.6,9-4.7,10.8-9.8c-0.4-1.1-0.3-2.7-2.3-2.3l0.1,0.1c0.8-1.3,0-2-1-2.5
		c-1.4-0.8-2.9-1.5-4.3-2.4c-2-1.3-3.7-3-4.6-5.2c-1.3-3.5-2.5-7-3.7-10.5c-0.6-1.7-1.3-3.3,0.1-5c1.8,6.5,6.4,9.8,12.8,11.1
		c-2-1.3-4.4-2.1-6.5-4.2c2.4,0.2,4.4,1.4,6.4,0.6c-2.5-1.1-5.3-1.7-7.9-3.7c2.5-0.4,4.3,1.4,7.1,1c-4.4-1.7-8.1-3.3-11.9-4.8
		c-0.5-0.9-1-0.8-1.7-0.2c-0.6,1.1-0.2,2.2,0,3.4c0.5,2.9,0.6,5.8-0.2,8.8c-1.3,5.4-1.6,11-0.8,16.6c0.9,0.4,1.8,1,0.9,2.2
		c-2.1-2.1-4-6.2-4-9.1c-0.1-4.7,0.3-9.3,1.1-13.9c-3.7,9.1-2.5,18.5-1,28.5c-2.1-3.1-1.8-6.1-2.6-9c-1.6,1.4,0.1,3.2-0.9,4.5
		c-0.8-0.2-1.2-0.7-1.3-1.5c-0.7-5-1.6-10-2-15.1c-0.3-3.2-0.3-6.4-0.6-9.5c-0.3-2.2-0.5-4.5,0.1-6.7c0.9-3.6,4.5-5,8-3.2
		c-0.1,1.4-2.1,1-2.3,3c1.8-1.6,3.7-0.9,5.6-1.2c2.8-7.9,10.6-9.9,16.3-14.5c-4.2,1.3-7.6,4-11.6,5.9c2.1-2.8,4.6-5.2,7.7-6.7
		c3.4-1.6,6.9-3,10.4-4.5c2.5-1.1,5.2-1.5,8-1.4c2,0.1,2,0.1,3.9,2.2c-3.2-0.3-6.3-1.5-9.2,0.5c1.6,0.1,3.3,0,4.9,0.3
		c3.8,0.6,7.7,1.1,10.5,4.3c-2.3-0.2-4.5-1.3-7.2,0c1.1,0.9,2.1,1.6,3,2.3c0.7-0.4,0.4-0.8,0.1-1.4c1-0.2,1.8,0.7,2.8,0.4
		c0.9-0.2,1-0.8,1.2-1.5c1.4,0.5,3.1,0.1,4.2,1c3,3.8,3.8,8.3,5.8,12.2c-0.4,5.7,2.4,10.9,7.1,13.1L537.7,398.4z M484.7,398
		c0.5,2.5,0.5,2.5,3.1,4.2c1.8,1.6,3.6,3.1,5.4,4.7c0.5,0.4,1.2,0.8,1.2,1.6c-2.2,0.3-3.7-1-5.4-2.1c0.3,1.3,1.3,2.4,2.2,2.4
		c2.4,0.1,3.3,1.9,4.8,3.1c0.6,0.5,1.2,1.1,2,1.8c1.4-1.3,2.8,0.9,4.6,0.1c-3-1.7-6.8-1.8-8.2-5.4c0.4-0.1,0.9-0.1,1.9-0.2
		c-3-2.2-4.6-5.3-8-6.3C487.2,400.7,486.2,399.6,484.7,398z M502.8,389c-4.1,1.3-8.3,1.3-12.5,0.4c4.3,2.2,8.9,1.3,13.5,1.6
		c1.3-1,3.1-1.6,4-3.2c0.9-0.4,1.3-1.1,1.4-2.2c-0.8,0.6-1.3,1.4-1.3,2.3c-0.8-0.4-1.5-0.8-2.4-0.6c1-1,2-2,3-3
		c0.6-0.6,0.7-1.2-0.2-2c-2.1,2.3-4.9,1.1-8.1,1.7c2.1,0.5,3.7,0.9,5.3,1.3c0.1,0.6-0.7,1.2-0.2,1.9
		C504.2,387.5,503.6,388.4,502.8,389z M521.9,393.3c0.5,0.6,1.1,0.1,1.6,0.2c0.9,1.1,2.2,1.1,3.7,1.5c-0.2-2.5,0.4-4.6,1.8-6.5
		c-1.9,1.2-4.6,1.1-5.5,3.7C522.8,392.2,522.3,392.6,521.9,393.3z M499.1,395.2c-1.3,1.2-2.2,2.7-3,4.3c-0.2,0.4-0.6,1-0.4,1.3
		c0.8,1.7-0.6,3.6,0.5,5.3c1.3,0,0-1.3,1.2-1.6c0.9,0.5,1.9,1.3,2.5,2.4s0.9,2.4,2.2,3.3c1.6-0.5,2.2-1.6,2-3.2
		c-1.6-0.6-0.8,1.4-2.2,1.1c-0.3-1.5-1.4-3-3.4-4.5c1.8,0.3,2.6,1,3.2,1.8c1-0.1,1.2-1.1,1.7-1.4c0.2-0.9-0.5-1.2-0.8-1.7
		c0.3-0.6,0.5-1.2,0.9-2c-0.6-0.6-1.2-1.3-1.9-2.1c1.3-0.3,2.2,0.8,3.4,0.6c0.6-0.2,1-0.6,1-1.4c-1.2-0.9-3.1,0.5-4-1.1
		c3.5,0.3,4,0.1,5.7-2.9c-2,1.1-3.8,2-5.6,3C501.2,396,500.2,395.6,499.1,395.2z M503.1,374.6c3.3,1.4,6.7,1.7,10.2,2
		C510.1,374.6,506.5,375.4,503.1,374.6z M521.9,387c2.4-0.6,4.7-1.3,7.1-1.9C526.2,383.6,524,385.1,521.9,387z M487.6,379.4
		c2.8-1.4,5.6-2.9,8.4-4.3C491.2,376.2,489.6,377,487.6,379.4z M508.6,378.2c-1.4,0-2.8,0-4.2,0c-0.3,0-0.6,0.3-1.3,0.8
		C505.3,379.7,507.2,380.4,508.6,378.2z M501.9,394.3c2.6-0.3,2.8-0.4,4.2-3.6C504.7,391.9,503.3,393.1,501.9,394.3z M509.1,417.4
		c0.1-1.5-1-1.9-2.1-2.3C507.3,416.1,507.9,416.9,509.1,417.4z M501.8,416.7c-0.8-1.2-1.6-1.8-3.2-1.9
		C499.4,416.3,500.4,416.4,501.8,416.7z M502.8,386.3c-0.9-0.6-1.8-0.4-2.7-0.2C501,386.5,501.8,386.5,502.8,386.3z M483.6,383.2
		c1,0.4,1.5-0.2,2.2-0.5c0.1,0,0.2-0.1,0.3-0.2c-0.1,0-0.2-0.1-0.3-0.1C484.9,382.3,484.3,382.7,483.6,383.2z M476.5,389.5
		c1.6-0.2,1.6-0.9,1.7-1.7C477,387.9,477.3,388.7,476.5,389.5z M494.3,402.7c0-1-0.5-1.4-1.6-2C493.1,401.8,493.4,402.3,494.3,402.7
		z M506.8,381.1c0.9,0.5,1.1-0.3,1.9-1.2C507.5,380.2,507.2,380.6,506.8,381.1z"/>
	<path fill="none" d="M479.7,470.7c-0.6-3.3-0.8-6.6,0.4-9.8c2.7-6.8,5.8-13.4,10.3-19.3c2.3-3,5.2-5.1,8.9-6
		c3.6-0.9,7.1-1.8,10.6,0.2c0.7,0.4,1.6,0.4,2.2,0.6c0.7,0.7,1.3,1.3,1.3,2.2c0.1,1.9,1.2,3.4,2.5,4.6c2.2,2.1,3.3,4.6,3.8,7.6
		c-0.4,1.1-0.7,2.3-0.8,3.6c-0.7,7.8-2.7,15.1-7.5,21.5c-2.3,3.1-3.8,6.6-4.4,10.3c-1.1,6.6-3.5,12.7-6.6,18.6
		c-2,3.9-4.2,7.7-5.8,11.7c-0.7,1.8-1.2,3.6-1.1,5.5c0.1,3-0.4,5.9-0.9,8.8c-0.4,2.3-1.2,4.6-3.2,6.4c-5.6-2.8-11.5-4.8-17.6-6.5
		c1.5-3.7,2.1-7.4,4.1-10.7c0.6-1,1-2.1,1.4-3.3c0.8-2.4,1.2-4.7,1.4-7.3c0.3-4.1,1.6-8.1,2.6-12.1c2.2-8.9,3.2-18.2,6.8-26.7
		c0.5-1.2,0.9-2.4,1.2-3.7c0.2-1.4,0.9-2.9-1-4.3c-0.7,6.4-3.2,12-6.2,18.1C481.1,477.2,480.2,474,479.7,470.7z M488.7,526.4
		c-1.5-2.4-0.1-5.2-1.2-7.8c-2.1,2.3-2,3.9,0.8,9.2C488.5,527,488.8,526.5,488.7,526.4z M479.1,528.3c0.7-1.3,0.5-2.3-0.1-3.9
		C477.7,526.1,477.9,527.1,479.1,528.3z M491.7,486.9c-0.6,1.6-0.6,1.6,1,3.7C492.6,489,492.4,488,491.7,486.9z M494.2,495.5
		c0.9-0.9,0.4-1.5-0.1-2.4C493.6,494,493.5,494.7,494.2,495.5z M488,529c-0.8,0.8-0.8,0.8-0.4,2.3C488.3,530.4,488.2,529.7,488,529z
		"/>
	<path fill="none" d="M445.2,473.2c5.5,8.1,12.3,15,20.9,19.8c3.9,2.2,7.5,4.9,11.4,7.3c-0.3,2.8-0.6,5.5-0.9,8.2
		c-2.6,2.8-4.9,5.8-7.8,8.2c-3,2.6-5.4,5.6-7.8,8.7c-0.6,0.7-0.8,1.7-2,2.4c-2.5-0.6-5.2-1.4-8-1.9c-4.5-0.7-8.6-2.1-12.5-4.3
		c-5.8-3.2-11.9-5.9-17.1-10.1c-1.4-1.1-2.9-2.1-3.4-4c0.6-1.4,1.9-2.1,3-2.9c6.8-5.8,12.9-12.1,16.7-20.4c1.9-4,4.4-7.7,6.6-11.6
		C444.8,472.9,445.1,473,445.2,473.2z M461.3,494.6c0.2-2.1,0.2-2.1-1.4-4.2C459.8,492.4,459.8,492.4,461.3,494.6z M457.9,500.6
		c0-1.3-0.2-2.2-1.5-2.7C456.6,498.9,456.6,500,457.9,500.6z M464.9,499.8c0.5-0.8,0-1.1-0.8-1C464.3,499.1,464.6,499.4,464.9,499.8
		z M441.7,520c-0.7,0.6-0.8,1.2-0.1,1.8C442.1,521.2,442,520.6,441.7,520z"/>
	<path fill="none" d="M470.7,439.7c3.2-2.2,6.2-4.7,8.5-7.9c1.1-1.6,2.3-3,4.3-3.8c1,0.3,2.2,0.4,3.2,0.8c3,1.2,6.1,1.1,9,0
		c3.9-1.4,7.4-0.6,11.1,1.1c0,1.2,0.7,2.1,1.5,3.6c-4.5-1.7-8.2-1.1-11.9,0.4c-3.5,1.4-6.1,4.1-8.3,7c-5.5,7.1-8.8,15.3-11.1,24
		c-0.6,2.2-0.5,4.5-0.1,6.7c0.8,4.2,2.3,8.1,4.8,11.7c-1,4.3-1.7,8.7-3.5,13.2c-13.1-6.2-24.8-13.7-32.6-25.9
		c5.3-11.1,11.2-21.2,21.1-29.3C468.2,441.5,469.5,440.5,470.7,439.7z"/>
	<path fill="none" d="M436.5,522.9c-1.2,0.9-2.4-0.3-3.5,0.8c3.2,0.7,6.9-0.7,9,2.5c-4.3,4.3-7.7,9.2-10.5,14.5
		c-0.7,1.3-1.2,2.8-1.6,4.3c-1.9,6.7-5.9,12-10.6,16.8c-0.4,0.4-0.9,0.8-1.8,0.7c-3-1.3-6.3-2.6-9.3-4.5c-4.7-3-7.8-7.1-9.2-12.5
		c-0.5-1.7,0.1-3.5-0.5-5.2c-1-3.1-0.7-6.3,0-9.5c2.4-10.2,8.8-17.1,17.9-22.4C420.6,516.7,428.8,519.3,436.5,522.9z M432.9,525.9
		c-0.5-0.4-1.1-0.2-1.8,0C431.8,525.9,432.4,525.9,432.9,525.9z M427.2,525.9L427.2,525.9c0.3,0.1,0.6,0.1,0.9,0.1c0,0,0,0,0-0.1
		C427.8,525.9,427.5,525.9,427.2,525.9z"/>
	<path fill="none" d="M469,660.3c2.9,2.1,4.8-1,7.1-1.3c0.4,0.5,0.7,0.9,0.5,1.6c-0.8,1.1-3,1.3-3.1,3.3c2.1,1.5,2.1,1.5,4.8-0.1
		c0.3-0.2,0.6-0.4,1.1-0.1c0.6,0.6,1.4,1.1,1.4,2.3c-1,1-2.5,1.7-2.5,3.5c2.5,0.6,2.5,0.6,5.3-0.8c0.6,0.2,1.1,0.4,1.4,1.1
		c0,0.9-1.7,1.1-0.9,2.3c1.4,1.1,2.2-1.1,3.6-0.8c0.3,0.7-0.9,1.5-0.1,2.1c1.4,0.5,1.6-1.1,2.9-1.6c5.1,1.8,10.7,3.1,16.7,3.5
		c0.9,2.9,3,5,3.7,8.1c-9.6,3.2-19.1,5.3-29,4.7c-5.9-0.3-11.8-0.8-17.5-2.5c-0.9-0.3-1.9-0.3-2.8-0.4c-4.1-0.3-8.3-0.5-12.4-0.8
		c-2.9-0.3-5.9-0.8-8.6-1.8c-2.4-0.9-4.4-2.2-5.3-4.7c0.5-1.7,1.4-3.1,2.2-4.5c2.8-5,5.9-9.9,7.5-15.6c0.6-2,1.5-3.9,3.6-5.4
		c0.3,2.1,0.5,3.8,0.8,5.5c0.9,4.7,3.3,5.9,7.7,4.1c1.1-0.5,2.1-1,3.1-1.6c2.3-1.4,4.6-2.9,6.8-4.4c1,0,0.8,1.5,2,1.4
		c0.5-2.2,1.5-4.1,4-4.7c0.9,0.8,1.3,1.8,1.5,3C473.1,657.7,469.8,657.4,469,660.3z M452.9,677.2c2.6,0,4.2-1.8,4-4.3
		c-0.1-2.3-1.9-3.8-4.2-3.7c-2.5,0.1-4.1,1.9-3.9,4.4c0.1,1,0.8,2,0.3,3.2C450.7,676.9,451.8,677.2,452.9,677.2z M462.7,676.3
		c2-0.4,3.3-2,3.3-3.9c0-1.8-1.5-3.5-3.4-3.9c-2.4-0.4-3.9,0.7-5.2,4C458.9,675.9,460.2,676.9,462.7,676.3z M472.8,675.3
		c0.9-2.5,0.2-4.9,0-7.3c-2.1-0.5-3.8,0.1-5.4,0.5c-1.5,1.9-0.9,3.4,0.5,4.5c0.1,1.1-0.9,1.7-0.6,2.6c2,0.5,1.8-2.3,3.5-2.4
		C472.1,673.1,471.1,675.3,472.8,675.3z"/>
	<path fill="none" d="M482,579.6c-4.7,4-8.9,8.4-10.6,14.7c-1,3.6-2.4,7.2-3,10.9c-1.1,5.9-3.3,11.3-5.9,16.6
		c-1.5,3.1-2.9,6.2-3.9,9.5c-0.7,2.2-1.5,4.4-2.9,6.4c-3-2.6-4.4-5.6-5.1-9.2c2.9-4,5.3-8.5,7.6-13c4.8-9.7,10.4-19,14.4-29.2
		c1.6-3.9,3.8-7.6,6.7-10.9c2.8-0.3,5.5-0.6,9.1-1C485.9,576.5,483.9,578,482,579.6z M455.7,631.6c0.6,0.5,1,0.5,1.5,0
		C456.4,630.7,456.2,631.2,455.7,631.6z"/>
	<path fill="none" d="M454.7,640.2c-0.1,4.5-2.2,8.2-4.3,12c-1-0.4-0.5-1.5-1.4-1.8c-2-0.1-2.9,2-4.5,3c-2.6-1.5-5.8-1.8-8-4.1
		c0.9-2.3,2.6-4,2.6-6.3c0.1-1.5,0.7-2.7,1.4-3.9c2.5-4.1,5.4-8,7.2-13.4C449.6,631.3,450.4,636.5,454.7,640.2z"/>
	<path fill="none" d="M478.8,658.1c-1.8-3.1-3.5-6.2-5.2-9.3c0.7-1.2,1.4-2.3,2.1-3.5c1.8,0,2.8-1.7,4.4-2.4c0.7,1.3-1.3,2-0.2,3.2
		c1.3,1.2,2.4-1.3,3.9-0.3c1.4,0.5-0.4,1.6,0.4,2.4c2.6-1,4.7,1.1,7.2,1.4c2.6,0.3,5.3,1,7.8,1.5c1.2,1.4,1.1,3,1.7,4.9
		C493.3,658.3,486.1,658.8,478.8,658.1z"/>
	<path fill="none" d="M505.2,537.9c3,2.2,5.9,4.6,9.4,6c3.7,1.5,5.8,4.8,7.7,8c1.2,2.1,0.1,4.5-0.6,7.4c-8-10-19-15.3-29.9-21.1
		c1.9-2,2.4-4.2,3.5-6.5C499.1,533.5,502.2,535.6,505.2,537.9z"/>
	<path fill="none" d="M448.5,583.3c-0.3-0.3-1.1,1-1.6-0.1c0.2-2.1,1-4.3,3.4-4.7s4.1-1.4,5.7-3.3c3.2,0.8,6.4,0.4,9.8,0.2
		c-1.9,3.3-3.5,6.3-5.3,9.1c-1.9,3-1.8,6.7-3.2,9.7c-4.9-1.2-7.1,3.1-11,4.3C448.6,593.5,450.3,588.8,448.5,583.3z"/>
	<path fill="none" d="M495.1,414.1c0.4,2.1-0.2,4-2,5c-3.7,2-6.7,5.2-11.2,7.3c1.6-4.2,0.4-7.8-0.4-11.5c-1-4.2-0.9-8.5-0.3-13.5
		C484,408.2,488.8,412.1,495.1,414.1L495.1,414.1z"/>
	<path fill="none" d="M461.2,528.3c1.5-3.3,4.5-6.4,8.3-8.7c1,0.5,2.2,0.8,2.9,2c-1.1,2.6-1.2,5.6-2.7,8.4
		C466.8,529.5,464.1,528.9,461.2,528.3z"/>
	<path fill="none" d="M513.9,476.1c0.9,5.7-0.3,10.6-2.4,15.4c-1,2.3-2.6,3.8-5.4,5C508.7,489.4,509.2,482.1,513.9,476.1z"/>
	<path fill="none" d="M478.9,426.6c0-1.9,0-3.7,0-6c0.9,1.8-0.1,3.7,1.9,4.3c-1.1,3.3-2.7,6-5.3,8.1
		C476.5,430.8,476.9,428.2,478.9,426.6z"/>
	<path fill="none" d="M473.2,518.7c-0.7-0.3-1.5-0.2-2-1.1c1.6-1.9,3.2-3.8,5.4-6.3C476.2,514.6,475.5,517.1,473.2,518.7z"/>
	<path fill="none" d="M443.5,582.6c0.4-0.3,1.2-0.9,1.8-0.1c-2.1,3.2-4.7,4.3-8.1,3.2C439.8,585.6,441.6,584.2,443.5,582.6z"/>
	<path fill="none" d="M477.1,420.5c-1.5-1.7-0.9-3.2-0.7-4.8C476.6,417.2,476.8,418.6,477.1,420.5z"/>
	<path fill="none" d="M468.4,437.3c-0.4,0.9,0.2,2.4-1.7,2.8C466.6,438.4,467.9,438.1,468.4,437.3z"/>
	<path fill="none" d="M519.7,368.4c-0.4-0.3-0.7-0.5-1.1-0.8C519.4,367.6,520,367.6,519.7,368.4z"/>
	<path d="M733.9,657.7c0.7,0.4,0.6,0.9-0.2,1.4c-2.3-0.8-4.7-1.7-7.3-2.2c0-1.9,0-3.5,1.4-5.2c0.2,1.5,0.3,2.6,0.4,3.8
		C730.2,656.3,732.2,656.6,733.9,657.7z"/>
	<path d="M730.9,557.9c0.7,3,1.5,5.9,1,9.6C730.9,564,730.6,561,730.9,557.9z"/>
	<path d="M726.7,531.2c-0.4,2.2-0.6,3.7-1.7,5C724.8,534.5,724.9,533,726.7,531.2z"/>
	<path d="M727.7,644.9c0.2,1.3,0.4,2.6,0.1,3.9C726.3,646.7,726.3,646.7,727.7,644.9z"/>
	<path d="M731.5,574.3c0.9,1.1,0.7,2,0.1,3.6C730.9,576.4,730.5,575.5,731.5,574.3z"/>
	<path d="M727.5,636.3c-1.1-1.2-1-2.2-0.3-3.5C728.2,633.9,727.9,634.9,727.5,636.3z"/>
	<path d="M743.2,558.4c-0.9-2.2-0.6-3.9,0-6.1C744.1,554.5,744,556.2,743.2,558.4z"/>
	<path d="M728,638.1c-0.3,1.4,0.3,2.3-0.5,3.4C726.7,640.3,726.5,639.5,728,638.1z"/>
	<path d="M731.1,586c-0.1-0.7-0.3-1.4,1.2-1.9C731.9,585.2,732,585.9,731.1,586z"/>
	<path d="M750.6,530.1c-0.2,0.9-0.1,1.9-1.1,2.4C748.6,531,749.8,530.7,750.6,530.1L750.6,530.1z"/>
	<path d="M731.1,593.3c-0.4-0.5-0.7-1-0.1-1.7C731.7,592.3,731.4,592.8,731.1,593.3z"/>
	<path d="M750.7,530.2c0.3-0.7-0.2-1.9,1.2-2.1C752.4,529.4,751.2,529.5,750.7,530.2L750.7,530.2z"/>
	<path d="M748.3,214.5c0.1-1.5,0.2-3.1,0.4-4.6c0.2-1.4-1-2.9,1-4.6c-0.2,2-0.1,3.4,0.2,4.8c0.3,1.4,0.3,3.2-0.5,4.5
		c-1.7,2.6-2.6,5.5-3.7,8.4C744.6,219.6,746.9,217.2,748.3,214.5z"/>
	<path d="M742.8,254.1c-0.4,1-1,1.4-2.4,1.9C741.1,254.5,741.6,253.9,742.8,254.1z"/>
	<path d="M777.1,360.2c-3.7,5.1-7.3,9.3-11,13.4C767.1,370.6,774.4,361.5,777.1,360.2z"/>
	<path d="M766.8,419.6c-1.8-1.2-2.1-2.4-2.4-3.8C765.4,416.7,766.4,417.6,766.8,419.6z"/>
	<path d="M758.4,369.1c-1.1,0-1.4-0.6-1.8-1.5C758,367.6,758.2,368.2,758.4,369.1z"/>
	<path d="M749.2,367.7c0,0.4,0.3,0.9-0.4,1c-0.4-0.5-1.1-1-0.3-1.6C749.1,367,749.2,367.4,749.2,367.7z"/>
	<path d="M732.8,437.5c0.1,1.2,0.6,1.9-0.3,2.7C732.2,439.4,731.8,438.7,732.8,437.5z"/>
	<path d="M730,674.6c-0.2-2.5,1.4-4.3,3.9-4.4c2.3-0.1,4.1,1.4,4.3,3.7c0.1,2.5-1.5,4.3-4,4.3c-1.1,0-2.3-0.4-4-0.1
		C730.7,676.5,730,675.6,730,674.6z M734,674.9c0.6,0.3-0.8,1.1,0,1.6c1.3,0.6,2.3-1,2.3-3.6c-0.5-0.8-1.3-1.3-2.4-1.4
		c-1.5,0.5-2.6,1.4-2.2,3.2C732.4,675.3,733,674.2,734,674.9z"/>
	<path d="M748.6,676.6c-0.7-1,0.8-1.6,0.5-2.6c-1.6-2.2-1.6-2.2-0.4-4.8c1-0.2,2.2-0.4,3.3-0.5c0.6-0.1,1.2-0.1,1.9,0.4
		c0.5,2.1,0.7,4.4,0.2,6.7c0,0.1-0.4,0.2-0.5,0.3c-1.3-0.1-0.4-1.8-1.7-2.1C750.2,674.4,750.4,676.7,748.6,676.6z M749.3,671.3
		c0.2,1.5,1.2,1.5,2.3,1.2c1-0.3,1.1-1,0.6-2.2C751,670.2,750,670.2,749.3,671.3z"/>
	<path d="M743.9,669.5c1.8,0.4,3.2,1.9,3.3,3.6c0.1,2-1.1,3.6-3.1,4.1c-2.5,0.7-3.8-0.2-5.6-3.7C739.9,670.1,741.4,669,743.9,669.5z
		 M740.5,673.5c0.1,1.5,1,2.3,2.5,2.5c1.4-0.3,2.4-1,2.5-2.5c0.1-1.6-1-2.3-2.5-2.7C741.4,671.2,740.4,672,740.5,673.5z"/>
	<path d="M772.6,267.4c-1.3-1.2-2.6-2.3-3.9-3.4c2.5-1.6,5.1-2.1,8.2-1.1C774.4,263.3,774.2,265.9,772.6,267.4z"/>
	<path d="M775.8,244.9c-1.5,0.2-2.7-1.3-4.1-0.3c-0.6-1.1-1.2-2.1-1.8-3.2C773.7,242,774.5,242.5,775.8,244.9z"/>
	<path d="M772.5,258.3c-0.3-0.1-0.6-0.4-0.9-0.6c4.5-0.7,5-0.6,7.3,1.7C776.8,258.6,774.6,259,772.5,258.3z"/>
	<path d="M764.8,242.7c2.1,0.8,2.1,0.8,3.3,2.5C766.7,244.8,765.6,244.2,764.8,242.7z"/>
	<path d="M720.8,245.7c0.1-2.8,1-5.3,3.2-7.2c0.5-0.4,1.3-1.2,2.2-0.1c-5,3.2-4.9,8.3-5.5,13.3C720.8,249.7,720.8,247.7,720.8,245.7
		z"/>
	<path d="M729.5,241.6c0.5-0.8,0.8-1.5,1.7-1C730.9,241.5,730.4,241.7,729.5,241.6z"/>
	<path d="M494.8,565.9c1.3,0.2,2.5,0.5,3.7,1c0.9,0.4,2.3,0.5,2.2,2.3c-3.3-1.2-6.4-2.2-9.8-3.4C492.6,565,493.7,565.7,494.8,565.9z
		"/>
	<path d="M494.1,583.2c-0.8,2.2-0.8,2.2-2.8,3.3C492.4,584.1,492.4,584.1,494.1,583.2z"/>
	<path d="M496.4,579.9c1-1.3,1-3.1,3-3.4C499,578.6,499,578.6,496.4,579.9z"/>
	<path d="M486,593.4c0.6-1.6,0.8-3,2.3-3.3C488.1,591.4,487.5,592.5,486,593.4z"/>
	<path d="M457.5,649.2c0.2-1.7,0.7-2.7,1.9-3.6C459.4,647.1,459.1,648.1,457.5,649.2z"/>
	<path d="M510,589.4c-0.1,1.6-0.5,2.5-1.9,3.3C508.2,591.2,508.7,590.4,510,589.4z"/>
	<path d="M463.1,637.3c0,0.7,0.2,1.4-1.1,1.5C462,637.9,462.2,637.4,463.1,637.3z"/>
	<path d="M460.8,641.8c0.2,0.7,0.2,1.2-0.6,1.4C459.7,642.4,460.1,642,460.8,641.8z"/>
	<path d="M483,563.3c0.7-0.4,1.3-0.3,2,0.2C484.1,564.2,483.5,564.1,483,563.3z"/>
	<path d="M502.1,396.3c0.9,1.7,2.8,0.3,4,1.1c-0.1,0.7-0.4,1.1-1,1.4c-1.2,0.2-2.1-0.9-3.4-0.6c0.7,0.7,1.3,1.4,1.9,2.1
		c-0.3,0.8-0.6,1.4-0.9,2c0.3,0.6,1,0.8,0.8,1.7c-0.5,0.4-0.7,1.3-1.7,1.4c-0.6-0.8-1.4-1.5-3.2-1.8c1.9,1.6,3,3,3.4,4.5
		c1.4,0.2,0.5-1.7,2.2-1.1c0.2,1.6-0.4,2.7-2,3.2c-1.3-0.9-1.5-2.2-2.2-3.3c-0.6-1.1-1.6-1.9-2.5-2.4c-1.2,0.3,0.1,1.6-1.2,1.6
		c-1.1-1.7,0.3-3.6-0.5-5.3c-0.1-0.3,0.2-0.9,0.4-1.3c0.8-1.6,1.7-3,3-4.3C500.2,395.6,501.2,396,502.1,396.3L502.1,396.3z
		 M498.6,400.8c0.3,1,0.8,1.6,1.7,2.1c0.7-0.9,1.3-1.7,1.8-2.4c-0.5-1-1.2-0.6-2-0.4c0.1-0.6,0.2-0.9,0.3-1.5
		C499.2,399.2,499.1,400.2,498.6,400.8z M497.7,400.5c-0.7,0.5-0.6,1.1-0.1,1.7C498.1,401.7,497.9,401.1,497.7,400.5z"/>
	<path d="M481.6,388.6c3.8,1.5,7.5,3,11.9,4.8c-2.8,0.4-4.6-1.4-7.1-1c2.6,2.1,5.4,2.6,7.9,3.7c-2,0.8-3.9-0.4-6.4-0.6
		c2.1,2.1,4.5,2.9,6.5,4.2C488,398.4,483.4,395,481.6,388.6L481.6,388.6z"/>
	<path d="M505.5,387.3L505.5,387.3c0.9-0.1,1.6,0.3,2.4,0.7l-0.1-0.1c-0.9,1.6-2.7,2.1-4,3.2c-4.6-0.2-9.2,0.6-13.5-1.6
		c4.2,0.9,8.4,0.9,12.5-0.4C504.7,390,504.8,388.1,505.5,387.3z"/>
	<path d="M523.4,393.6c0.5-0.2,1.2-0.1,1.3-0.9c-0.1-0.9-0.9-0.4-1.3-0.6l0.1,0.1c0.9-2.5,3.5-2.5,5.5-3.7c-1.3,2-2,4.1-1.8,6.5
		c-1.5-0.4-2.8-0.4-3.7-1.5L523.4,393.6z"/>
	<path d="M494.4,408.4c1.5,3.6,5.3,3.7,8.2,5.4c-1.8,0.8-3.2-1.4-4.6-0.1c-0.8-0.7-1.4-1.3-2-1.8c-1.4-1.3-2.4-3.1-4.8-3.1
		c-1,0-2-1.1-2.2-2.4c1.7,1.1,3.2,2.4,5.4,2.1V408.4z"/>
	<path d="M505.5,387.3l-0.2-0.1c-0.5-0.7,0.3-1.3,0.2-1.9c-1.6-0.4-3.2-0.8-5.3-1.3c3.2-0.6,6,0.6,8.1-1.7c0.8,0.8,0.7,1.5,0.2,2
		C507.5,385.3,506.5,386.3,505.5,387.3L505.5,387.3z"/>
	<path d="M520.6,372.2c-0.2,0.7-0.3,1.2-1.2,1.5c-1,0.3-1.8-0.6-2.8-0.4c0.3,0.6,0.6,1-0.1,1.4c-0.9-0.7-1.9-1.5-3-2.3
		c2.7-1.3,4.9-0.2,7.2,0L520.6,372.2z"/>
	<path d="M503.1,374.6c3.4,0.8,7,0,10.2,2C509.9,376.3,506.4,376,503.1,374.6z"/>
	<path d="M521.9,387c2.1-1.9,4.2-3.4,7.1-1.9C526.7,385.7,524.3,386.4,521.9,387z"/>
	<path d="M488.2,401.8c3.4,1,5.1,4.1,8,6.3c-1,0.1-1.4,0.2-1.9,0.2l0.1,0.1c0-0.8-0.7-1.2-1.2-1.6c-1.8-1.6-3.6-3.2-5.4-4.7
		C488,402.1,488.1,402,488.2,401.8z"/>
	<path d="M487.6,379.4c2-2.4,3.6-3.2,8.4-4.3C493.2,376.5,490.4,378,487.6,379.4z"/>
	<path d="M504.5,378.2c1.4-0.1,2.7,0,4.2,0c-1.4,2.2-3.3,1.5-5.5,0.8C503.9,378.5,504.2,378.2,504.5,378.2z"/>
	<path d="M502.1,396.4c1.8-0.9,3.6-1.9,5.6-3C506,396.3,505.6,396.5,502.1,396.4L502.1,396.4z"/>
	<path d="M501.9,394.3c1.4-1.2,2.8-2.4,4.2-3.6C504.6,393.9,504.5,394,501.9,394.3z"/>
	<path d="M487.9,402.2c-2.6-1.7-2.6-1.7-3.1-4.2c1.4,1.6,2.5,2.7,3.5,3.8C488.1,402,488,402.1,487.9,402.2z"/>
	<path d="M509.1,417.4c-1.2-0.5-1.8-1.3-2.1-2.3C508.1,415.5,509.2,415.9,509.1,417.4z"/>
	<path d="M501.8,416.7c-1.4-0.3-2.4-0.4-3.2-1.9C500.2,414.9,501,415.5,501.8,416.7z"/>
	<path d="M502.8,389c0.8-0.7,1.4-1.6,2.5-1.8l0.2,0.1C504.8,388.1,504.7,390,502.8,389z"/>
	<path d="M502.8,386.3c-1,0.2-1.8,0.2-2.7-0.2C501,385.9,501.9,385.7,502.8,386.3z"/>
	<path d="M486,382.5c-0.1,0.1-0.2,0.2-0.3,0.2c-0.6,0.2-1.2,0.9-2.2,0.5c0.8-0.5,1.4-0.9,2.1-0.8C485.8,382.4,485.9,382.5,486,382.5
		z"/>
	<path d="M476.5,389.5c0.7-0.8,0.5-1.6,1.7-1.7C478.1,388.6,478.1,389.3,476.5,389.5z"/>
	<path d="M507.9,387.9c0-0.9,0.4-1.7,1.3-2.3C509.1,386.7,508.7,387.4,507.9,387.9L507.9,387.9z"/>
	<path d="M494.3,402.7c-0.8-0.4-1.1-0.9-1.6-2C493.7,401.3,494.3,401.7,494.3,402.7z"/>
	<path d="M506.8,381.1c0.3-0.5,0.7-0.9,1.9-1.2C508,380.8,507.7,381.6,506.8,381.1z"/>
	<path d="M523.5,392.1c0,0.5,0,1,0,1.5l0.1-0.1c-0.5-0.2-1.1,0.3-1.6-0.2C522.3,392.6,522.8,392.2,523.5,392.1L523.5,392.1z"/>
	<path d="M487.5,518.6c1.1,2.6-0.3,5.4,1.2,7.8c0.1,0.2-0.2,0.6-0.4,1.4C485.5,522.5,485.4,520.9,487.5,518.6z"/>
	<path d="M479.1,528.3c-1.2-1.2-1.4-2.2-0.1-3.9C479.5,526,479.7,527,479.1,528.3z"/>
	<path d="M491.7,486.9c0.7,1.1,0.9,2.1,1,3.7C491.1,488.5,491.1,488.5,491.7,486.9z"/>
	<path d="M494.2,495.5c-0.6-0.8-0.6-1.5-0.1-2.4C494.6,494,495.1,494.7,494.2,495.5z"/>
	<path d="M488,529c0.3,0.7,0.3,1.4-0.4,2.3C487.2,529.8,487.2,529.8,488,529z"/>
	<path d="M461.3,494.6c-1.5-2.2-1.5-2.2-1.4-4.2C461.5,492.4,461.5,492.4,461.3,494.6z"/>
	<path d="M457.9,500.6c-1.3-0.6-1.4-1.6-1.5-2.7C457.7,498.3,457.9,499.3,457.9,500.6z"/>
	<path d="M464.9,499.8c-0.3-0.4-0.5-0.7-0.8-1C464.9,498.7,465.4,499,464.9,499.8z"/>
	<path d="M441.7,520c0.4,0.6,0.4,1.3-0.1,1.8C440.9,521.1,441,520.5,441.7,520z"/>
	<path d="M432.9,525.9c-0.5,0-1.1,0-1.8,0C431.9,525.7,432.4,525.5,432.9,525.9z"/>
	<path d="M428.1,525.9c-0.3,0-0.6,0-0.9,0c0,0,0,0,0-0.1C427.5,525.9,427.8,525.9,428.1,525.9C428.2,525.9,428.1,525.9,428.1,525.9z
		"/>
	<path d="M448.8,673.6c-0.1-2.5,1.4-4.3,3.9-4.4c2.3-0.1,4.1,1.4,4.2,3.7c0.1,2.5-1.5,4.2-4,4.3c-1.1,0-2.3-0.2-3.9-0.4
		C449.6,675.5,448.9,674.6,448.8,673.6z M452.7,673.9c0.7,0.4-0.6,1.2,0.2,1.7c1.4,0.4,2.3-1.1,2.2-3.7c-2.8-2-3.8-1.7-4.7,1.9
		C451.3,674.3,451.9,673.2,452.7,673.9z"/>
	<path d="M462.6,668.5c1.9,0.3,3.4,2,3.4,3.9c0,2-1.3,3.5-3.3,3.9c-2.5,0.5-3.8-0.4-5.3-3.8C458.7,669.2,460.2,668.1,462.6,668.5z
		 M459.3,672.5c0.1,1.5,1,2.3,2.5,2.5c1.4-0.2,2.4-1,2.5-2.5c0.1-1.6-1-2.3-2.5-2.7C460.3,670.3,459.2,671,459.3,672.5z"/>
	<path d="M467.3,675.5c-0.3-1,0.7-1.5,0.6-2.6c-1.4-1.1-2-2.6-0.5-4.5c1.7-0.4,3.3-0.9,5.4-0.5c0.2,2.4,0.9,4.9,0,7.3
		c-1.7,0-0.7-2.1-2-2.1C469.1,673.2,469.3,676,467.3,675.5z M470.9,671.4c0.7-0.7,0.7-1.3,0.1-2c-1-0.3-2-0.1-2.9,0.9
		C468.8,672,469.9,671.7,470.9,671.4z"/>
	<path d="M455.7,631.6c0.5-0.3,0.7-0.9,1.5,0C456.7,632,456.3,632.1,455.7,631.6z"/>
	<path fill="none" d="M733.9,671.5c1.1,0.1,1.9,0.5,2.4,1.4c0.1,2.6-1,4.2-2.3,3.6c-0.7-0.5,0.7-1.3,0-1.6c-1-0.7-1.6,0.4-2.3-0.1
		C731.3,672.9,732.3,672,733.9,671.5z"/>
	<path fill="none" d="M751.6,672.5c-1.1,0.3-2.1,0.3-2.3-1.2c0.7-1,1.7-1,2.9-0.9C752.8,671.5,752.6,672.2,751.6,672.5z"/>
	<path fill="none" d="M745.5,673.5c-0.1,1.5-1.1,2.3-2.5,2.5c-1.5-0.2-2.4-1-2.5-2.5c-0.1-1.6,0.9-2.3,2.5-2.7
		C744.5,671.2,745.6,671.9,745.5,673.5z"/>
	<path fill="none" d="M500.2,400.1c0.8-0.2,1.5-0.6,2,0.4c-0.6,0.8-1.2,1.6-1.8,2.4c-0.8-0.5-1.4-1-1.7-2.1c0.5-0.6,0.6-1.6,1.9-2.3
		C500.4,399.2,500.3,399.5,500.2,400.1z"/>
	<path fill="none" d="M497.7,400.5c0.1,0.6,0.4,1.1-0.1,1.7C497.1,401.6,497,401.1,497.7,400.5z"/>
	<path fill="none" d="M524.8,392.7c-0.2,0.7-0.8,0.7-1.3,0.9c0-0.5,0-1,0-1.5C523.9,392.3,524.7,391.8,524.8,392.7z"/>
	<path fill="none" d="M455.1,671.9c0.1,2.6-0.8,4.1-2.2,3.7c-0.8-0.5,0.5-1.3-0.2-1.7c-0.8-0.7-1.4,0.4-2.2-0.1
		C451.3,670.2,452.3,669.9,455.1,671.9z"/>
	<path fill="none" d="M464.3,672.5c-0.1,1.5-1.1,2.3-2.5,2.5c-1.5-0.2-2.4-1-2.5-2.5c-0.1-1.6,0.9-2.3,2.5-2.7
		C463.3,670.3,464.4,671,464.3,672.5z"/>
	<path fill="none" d="M471,669.4c0.6,0.7,0.5,1.3-0.1,2c-1,0.3-2.1,0.7-2.8-1.1C469.1,669.3,470,669.1,471,669.4z"/>
</g>
</svg>
