<?xml version="1.0" encoding="utf-8"?>
<!-- Generator: Adobe Illustrator 19.2.0, SVG Export Plug-In . SVG Version: 6.00 Build 0)  -->
<svg version="1.1" id="Layer_2" xmlns="http://www.w3.org/2000/svg" xmlns:xlink="http://www.w3.org/1999/xlink" x="0px" y="0px"
	 viewBox="0 0 900 600" style="enable-background:new 0 0 900 600;" xml:space="preserve">
<g>
	<path d="M325.1,569.9c-0.6-0.1-1.2,0-1.5-0.7c-0.3-0.6-0.6-1.2-0.9-1.8c-2.8-0.4-5.4-1-8.1-1.1c-2.5-0.1-4.3-1.2-5.4-3.3
		c-0.7-1.2-1.4-2.1-2.8-2.3c-0.3-2.7,0.3-5.1,1.4-7.3c0.7-1.5,1.2-3,1.5-4.6c0.6-3.5,1.5-6.8,1.2-10.4c-0.1-1.3,0.4-2.5,0.9-3.7
		c0.6-1.3,1.2-2.5,1.1-4c-0.1-1.6,0.7-2.4,2.1-2.6c0.8-1.9,0.9-3.7,0.6-5.6c-0.9-6.2-1.8-12.5-2.6-18.7c-0.9-6.6-2-13.1-4.5-19.4
		c-1.9-4.9-3.6-9.9-4.3-15.1c-0.1-0.5-0.1-1-0.3-1.4c-1.5-2.1-1.1-4.5-0.8-6.8c0.3-1.5,0.6-3,0.9-4.5c1-5.3,2.1-10.5,3.1-15.8
		c0.3-1.8,0.1-3.5-1.3-4.9c-0.8-0.9-1.3-1.9-1.7-3c-0.4-1-1.2-2-2-2.8c-2.6-2.9-5.2-5.7-7.9-8.5c-1.2-1.2-2.5-2.3-3.8-3.5
		c-0.8,0.3-0.6,1-0.6,1.5c0.1,3.4,0.2,6.8,0.3,10.2c0,1.9,0,3.7-0.2,5.6c-0.3,2.3-0.4,2.2-2.7,3.7c-0.1,0.2-0.3,0.4-0.3,0.6
		c-0.1,2.4-0.8,4.5-2,6.6c-0.8,1.5-1.5,3.2-2.1,4.8c-0.3,0.7-0.3,1.6-0.4,2.4c0,0.3,0.1,0.9,0,1c-1.4,1.1-0.9,2.8-1.1,4.2
		c-0.2,1.1-0.5,2.3-1.1,3.3c-1.5,2.8-3.7,5.1-6,7.3c-0.6,0.6-1.1,0.5-2.1-0.4c0.9-1.2,1.8-2.4,2.7-3.6c0.8-1,1.6-2,2.3-3.1
		c1.4-1.9,1.9-4,1.4-6.3c-0.4-1.9-0.3-1.9,1.8-2.5c0-0.1,0.1-0.3,0-0.3c-0.3-0.3-0.7-0.6-1-0.8c-2.3,1-2.3,1-5.2,0.6
		c-0.2,0.2-0.5,0.4-0.7,0.7c-2,2.1-2.6,2.2-5.1,0.9c-0.7-0.4-1.4-0.6-2.3-0.6c-1.3,0-2.5-0.4-3.4-0.5c-1.4-0.9-1-2.1-1.4-3.2
		c-0.7,0-1.3,0-2,0c-0.2,0.7-0.4,1.4-0.6,2.2c-2.3,0.3-4,2.7-6.9,1.7c-1.1,2-2.9,2.5-5.1,2.2c-1-0.1-1.8,0-2.7,0.5
		c-1.5,0.8-1.5,0.7-3.8,0.6c0.5,5,4.5,7.3,8.1,10c2.3-1.5,4.8-2.7,7.6-3c2.6-0.2,5.1-0.3,7.7-0.4c0.6,0,1.2,0.2,1.7,0.4
		c1.7,0.8,3.4,1.5,5.1,2.4c0.5,0.2,0.9,0.7,1.2,1.2c0.3,0.4-0.1,1.4-0.6,1.4c-0.6,0.1-1.2,0.1-1.7,0c-1.3-0.5-2.7-0.9-3.9-1.6
		c-1.3-0.7-2.6-1-4-1c-1.4,0-2.8,0-4.2,0c-2.5,0.1-4.9,0.5-7,2c-0.4,0.3-0.8,0.4-1.3,0.6c-3.1-0.4-5.4-2.2-7.4-4.3
		c-2.2-2.3-3.5-5.4-3.5-8.6c0-3.1-1-6-1.2-9c-0.1-1.6-1-3-2.1-4.3c-3.5,2.7-5.1,6.1-5.3,10.3c0,0.9-0.3,1.8-0.5,2.8
		c-0.4,2.1-0.3,4.2,0.6,6.2c2.1,4.1,4.3,8.1,8.6,10.4c0.3,0.2,0.8,0.4,0.8,0.6c0.2,1.9,2.1,2.4,3.2,3.8c-0.4,0.8-1.1,1.7-1.4,2.6
		c-0.5,1.8-0.9,3.6-1.3,5.5c-0.1,0.7,0,1.4,0.1,2.1c0.1,0.5,0.3,0.9,0.3,1.4c-0.2,4.5,2.4,7.5,5.4,10.2c3.9,3.4,8.4,5.5,13.6,5.7
		c1.4,0.1,2.8,0.1,4.2,0c0.6,0,1.2-0.1,1.7-0.3c2.4-1.6,5.4-1.3,8-2.1c0.4-0.1,0.9,0.2,1.3,0.3c1.5,0.5,2.6-0.1,3.2-1.4
		c2.8-5.5,4.9-11.2,3.9-17.5c-0.2-1.5-0.8-2.9-1.3-4.5c0.2-1,0.8-1.7,1.7-2.5c0.7-0.6,1.4-1.2,1.8-2c1.9-3.6,3.6-7.3,5.4-11
		c0.1-0.3,0.2-0.7,0.2-1c0.2-4.5,0.1-8.9-1.7-13.1c-0.5-1.1-0.8-2.2-1.1-3.3c-0.1-0.3,0.3-0.9,0.6-1.1c0.3-0.2,0.9,0,1.3,0.2
		c0.3,0.1,0.5,0.4,0.7,0.7c2,3,3.4,6.1,3.7,9.7c0.1,2,0,4,0.1,6c0,2.6-1,4.8-2.4,6.8c-0.9,1.3-1.7,2.8-2.5,4.2
		c-1.4,2.3-2.7,4.6-4.3,7.2c0.3,1.9,0.7,4.2,1.1,6.5c1,5.7-0.7,10.7-4.2,15.1c-0.9,1.1-2.1,1.9-3.2,2.7c-1.3,0.8-2.6,1.5-4,2.1
		c-0.6,0.3-1.3,0.4-2,0.4c-4.6,0.2-9.1,0.4-13.7,0.6c-2.3,0.1-4.4-0.4-6.5-1.2c-2.6-1-5.1-2.3-7.2-4.2c-4.2-3.7-6.1-8.5-6-14
		c0-2,0.4-3.9,0.7-5.9c0.2-1.1,0.6-2.3,0.9-3.4c-1.2-1.9-2.4-3.6-4.4-4.8c-1.3-0.7-2.3-2-3.2-3.2c-2.1-2.8-3.6-6-4.6-9.4
		c-0.4-1.4-0.6-2.7-0.3-4.1c0.1-0.7,0-1.4,0-2c-0.5-4.9,0.8-9,5-12c0.7-0.5,1.3-1,1.9-1.5c-0.8-1.2-1.8-2.3-2.3-3.5
		c-0.5-1.4-0.6-3-0.7-4.5c-0.1-5.1-0.1-10.3,0-15.4c0-1.2,0.4-2.5,0.7-4.2c-0.4-0.8-0.9-2.1-1.5-3.3c-0.2-0.4-0.3-1-0.7-1.2
		c-1.9-1.3-2.3-3.5-3.1-5.3c-0.6-1.3-1.1-2.6-1.8-3.8c-0.5-1.1-1.1-2-2.2-2.7c-1.3-0.8-1.8-2-2.3-3.4c-0.9-2.8-2-5.5-3-8.2
		c-1.8,1-1.8,1-2.4,2.4c-0.4,0.8-0.8,1.7-1.4,2.4c-4.2,5-8.2,10.2-12.7,15c-3.7,3.9-6.7,8.4-9.7,12.8c-2.8,4.1-4.6,8.7-5.9,13.4
		c-0.2,0.8-0.4,1.6-0.4,2.4c0,2.9-0.5,5.6-1.8,8.1c1.1,3.9,1.4,7.9,1.7,11.8c0.5,8.5-0.1,16.8-2.5,25c-0.5,1.6-1.2,3-1.8,4.6
		c-0.3,0.9-0.8,1.7-1.1,2.6c-1.7,5.8-3.5,11.6-4.9,17.5c-0.7,3-1,6.2-1.3,9.4c-0.3,2.8-0.5,5.6-0.6,8.4c-0.1,2.3,0.2,4.7,0.3,7
		c0,0.5,0.1,0.9,0.1,1.4c-0.2,3.3-0.4,6.5-0.7,9.8c-0.1,0.8-0.4,1.6-0.6,2.6c0.3,0.2,0.6,0.5,1,0.6c0.9,0.2,1.4,0.9,1.4,1.8
		c0.1,1.3,0.2,2.6,0.3,3.8c0.2,1.4,0.3,2.8,0.7,4.1c0.5,1.7,0.6,3.2-0.5,4.5c0.9,2.9,2,5.3,4,7.4c1.5,1.6,2.2,3.6,2.2,5.8
		c0,2.1,0.1,4.2,0.6,6.2c0.6,2.2,0.5,4.6,0.8,6.8c-2.1,2.1-5.2,2.7-7,5.2c-6.8,1-13.7,1.1-20.6,0.9c-1,0-2.1-0.2-3.1-0.3
		c-2.3-0.2-4.6-0.5-7-0.6c-1.4-0.1-2.8-0.2-4-1c-4.2-2.5-4-6.4-2.2-9.7c0.6-1.1,1.5-2.1,2.5-2.9c1.1-0.9,1.6-2,1.9-3.2
		c0.6-2.3,1.1-4.5,1.7-6.8c1.2-4.6,2.3-9.3,3.6-13.9c0.5-1.8,1.5-3.4,2.5-5.4c0,0.3,0.1,0,0-0.2c-1.5-2.1-1.9-4.1-0.7-6.6
		c0.4-0.7,0.3-1.8,0.1-2.7c-1.3-8.5-1.4-17-2-25.5c-0.4-5.5-0.9-11-1.3-16.4c-0.4-5-0.1-10,0.3-15.1c0.3-2.9,0.2-5.8,0.3-8.7
		c0-0.8,0.1-1.6,0.2-2.4c0.1-1.6,0.2-3.3,0.1-4.9c-0.4-9.7,1.4-19.1,5.2-28.1c1.4-3.4,2.5-6.8,3.3-10.3c1.1-5,1.9-10.1,2.4-15.2
		c0.2-1.7,0.5-3.5,1-5.1c1.3-4.1,2.1-8.4,2.6-12.7c0.6-5,1.3-10,2-14.9c0.2-1.6,0.6-3.2,1.2-4.8c4.9-13.8,10-27.5,16.4-40.6
		c1.1-2.3,2-4.7,2.8-7.2c1.1-3.5,2.8-6.7,5.1-9.5c2.2-2.9,4.5-5.7,6.7-8.5c0.3-0.4,0.9-0.7,1.4-1.1c-0.8-3.3-1.3-6.6-1.3-10
		c0-0.6-0.1-1.2-0.3-1.7c-1.4-3.6-1.8-7.5-2.3-11.3c-0.1-1-0.2-2.1-0.4-3.1c-0.3-1.5-0.3-3,0.1-4.5c0.4-1.3,0.2-2.5-0.2-3.8
		c-0.5-1.3-0.8-2.7-1.2-4c-1.7-5.4-1.7-10.8-0.9-16.3c1.2-8,5.4-14.1,12.1-18.4c3.2-2,6.2-4.2,9-6.7c2.8-2.5,5.8-4.8,8.7-7.1
		c1.2-1,2.4-1.9,2.9-3.4c0.2-0.5,0.7-0.9,1.1-1.2c0.2-0.2,0.8-0.2,0.9-0.5c0.9-2.2,2.9-2.5,4.8-3c3.5-0.8,6.4-2.7,9.5-4.4
		c-1.3-3.9-2.5-7.7-3.8-11.9c-1.8-0.9-2.8-2.6-3.4-4.7c-0.4-1.2-0.8-2.5-1.2-3.7c-0.4-1.2-0.8-2.4-1.4-3.6c-0.7-1.3-1-2.6-1.2-4
		c-0.2-1.3-0.1-2.6,0.8-3.7c0.1-0.2,0.3-0.4,0.4-0.6c1.7-3.1,1.6-3.1,1.5-6.6c-0.1-2.4,0.1-4.9,0.4-7.3c0.3-2.4,0.9-4.8,1.3-7.2
		c0.1-0.3,0.1-0.7,0.1-1c-0.3-2.7,1.2-5,1.5-7.5c2.7-5,5.9-9.5,11.8-11.3c2.3-0.7,4.6-1.8,7.2-0.9c1-1.9,2.3-3.5,4.1-4.7
		c0.6-0.4,1.1-0.9,1.7-1.1c3.1-1,6.2-1.1,9.3-0.3c3.8,1,6.1,3.8,5.6,8.4c-0.2,1.4,0.2,2.2,1.2,3c0.7,0.5,1.3,1,1.9,1.5
		c4.9,4,6.6,9.5,6.9,15.5c0.2,4.4,0.1,8.8-0.3,13.2c-0.1,1.1,0.1,2.3,0.1,3.7c1.3,0.1,1.7-1.4,2.7-1.3c0.1,0,0.3,0,0.3,0.1
		c2.9,2.9,3.4,8.3,1,11.5c-0.6,0.7-1.3,1.5-1.5,2.3c-0.5,2.3-1.9,3.9-3.7,5.3c-0.5-0.2-1.1-0.4-1.8-0.6c-1.1,2-1.6,4.1-2,6.2
		c-0.3,1.7-0.7,3.4-1.5,5c-0.8,1.8-1.4,3.7-1.3,5.9c2.1,1.7,4.2,3.6,6.8,4.8c4.2,2,8.4,4,12.6,6.1c2,1,3.9,2.2,5.8,3.3
		c3.7,2,7.3,4.1,11,6.1c0.7,0.4,1.5,0.6,2.3,0.8c1.6,0.4,3,1.2,4.1,2.5c2.7,3.2,5.5,6.4,8,9.7c0.8,1.1,1.2,2.5,1.5,3.9
		c1,4.6,1,9.3,1,14c0,2.5-0.1,4.9-0.9,7.3c-0.2,0.5-0.2,1.1-0.2,1.7c0.1,3,0.2,6.1,0.2,9.1c0,2.7,0,5.4-0.4,8
		c-0.8,6.6-2.5,13.1-4.8,19.4c-0.9,2.4-1.9,4.8-2.1,7.4c-0.1,0.8-0.5,1.6-0.8,2.3c-2,4.4-3.9,8.7-6.1,13c-0.9,1.7-1.2,3.3-1.2,5.3
		c0.1,4.7-0.2,9.4-0.3,14c0,0.9-0.1,1.9,0,2.8c0.4,2.8-0.1,5.3-1,7.9c-0.7,2.1-1.4,4.2-2.1,6.2c2,2.9,4,5.6,6,8.4
		c4.7,6.6,8.3,13.8,11.1,21.4c1.4,3.7,2.7,7.5,4.1,11.2c0.5,1.4,1.3,2.8,2,4.1c0.7,1.2,1.2,2.5,1.3,3.9c0.3,2.8,0.5,5.6,0,8.4
		c-0.1,0.6-0.2,1.2-0.1,1.7c0.7,3.8,0.8,7.7,2,11.4c1.4,4.3,2.6,8.7,3.2,13.3c0.5,4.2,0.5,8.4-0.1,12.6c-0.9,6.5-1.6,13-2.5,19.5
		c-0.1,0.8-0.3,1.6-0.4,2.4c-0.4,2.3-0.9,4.6-1.3,6.9c1.4,1.1,1.4,2.5,1.3,3.9c-0.3,3.6-0.7,7.2-1,10.8c-0.2,2.3-0.3,4.7-0.3,7
		c0,5.1,0.2,10.3,0.3,15.7c0.4,0.2,1,0.6,1.6,0.9c1.4,0.8,2.3,2,2.8,3.5c0.3,1,0.5,2,0.8,3.1c0.5,1.8,0.9,3.6,1.4,5.4
		c0.6,2.2,1.9,3.9,3.5,5.5c3.5,3.5,5.4,7.8,6.4,12.7c1.7,1.3,3.5,2.9,5.4,4.2c1.9,1.3,2.7,3.1,2.8,5.3c0.1,1.4,0.1,2.8,0,4.2
		c-0.1,3.2-1.4,5-4.5,5.8c-4.9,1.3-9.8,2-14.9,2.3c-0.9,0.1-1.9-0.1-2.8,0.1c-3.4,0.5-6.4-1-9.4-2.3
		C326.1,573.2,325.2,571.7,325.1,569.9c2.7,0.9,5.4,1.9,8.1,2.9c0.9,0.3,1.8,0.7,2.7,0.7c6.8,0.1,13.5-0.3,20.2-1.9
		c0.1,0,0.2-0.4,0.4-0.7c-1.6-0.8-3.3-1-5-1.4c-1.9-0.5-3.7-0.6-4.9,1.5c-0.1,0.2-0.3,0.4-0.5,0.4c-0.4,0.1-0.9,0.1-1.3,0
		c-0.6-0.3-0.8-0.9-0.6-1.5c0.7-1.8,2-2.9,3.9-3c2.1-0.1,4.2,0.2,6.1,1.1c0.7,0.3,1.3,1,2.3,0.4c0-1.3,0-2.7,0.1-4.1
		c0.4-3.1-1.9-4.8-3.6-6.8c-2-0.3-2.6-2.1-3.6-3.5c-1-1.4-1.5-2.9-2-4.4c-1.1-3.3-2.7-6.2-5.9-7.9c-1.1,0.8-2.3,1.3-3.7,1.2
		c-2.3-0.1-4.1,0.6-5.6,2.2c-0.1,0.1-0.4,0.1-0.7,0.1c-1.6-1.1-1.9-2.1-1-3.3c0.8-1.1,1.9-1.7,3.2-2c1.4-0.3,2.7-0.5,4.3-0.8
		c-0.4-0.4-0.6-1-1-1c-1.7-0.3-3.5-0.3-5.1,0.6c-0.7,0.4-1.5,1.2-2.1,1.1c-1.3-0.2-1.8,0.3-2.6,1.1c-0.8,0.9-2.2,0.8-2.8,0
		c-0.7-0.8-0.6-2,0.2-2.9c1-1.1,2.3-1.7,3.6-2c2-0.4,4.1-0.6,6.2-0.9c0.7-0.1,1.3-0.2,2.1-0.3c-0.7-3-0.1-6.3-2.4-8.9
		c-2.2,0.3-4.4,0.6-6.7,0.8c-0.7,1.3-1.3,2.5-1.9,3.8c-0.3,0.5-0.4,1.2-0.9,1.5c-2.2,1.3-3.4,3.6-5.3,5c-0.7,0.5-1.5,1-2.3,1.5
		c-1.7-1.3-2.2-3.1-3.2-4.7c-1.2,1.4-1.3,3-1.5,4.4c-0.1,0.8,0,1.7-0.3,2.4c-0.6,1.4-0.6,2.7-0.6,4.1c0,1.2,0,2.3-0.1,3.5
		c-0.1,2-0.5,3.9-1.5,5.7c-0.5,0.9-0.8,1.9-1.2,2.9c0.7,1.1,1.3,1.9,1.5,3.1c0.4,2.4,1.7,3.3,4.1,3.7c1.8,0.3,3.7,0.6,5.5,0.9
		c0.8,0.1,1.6,0.2,2.2,0.3c0.2-0.4,0.4-0.6,0.5-0.8c0.2-0.7,0.5-1.4,1.4-1.2c0.6,0.1,0.9,0.7,0.9,1.4
		C325.1,566.4,325.1,568.2,325.1,569.9z M273.2,141.1c-0.6,0.3-0.8,0.8-0.7,1.4c-0.7-0.1-0.9,0.5-1.2,1c-0.4,0.6-0.7,1.5-1.8,1.6
		c-0.1-0.4-0.3-0.7-0.4-1.1c1.7-1.4,2.6-3.4,3.9-5.1c0.4-0.6,0.2-1-1-1.8c-0.5,1-0.9,2.1-1.5,3.1c-0.2,0.4-0.6,0.6-0.9,0.9
		c0-0.7,0-1.4,0-2.2c0.5-0.1,0.8-0.3,0.3-0.9c-0.1,0.4-0.1,0.7-0.2,1c-1.3,1.5-2.6,2.9-2.8,4.9c-0.4,0.1-0.8,0.3-1.4,0.5
		c0.2-1,0.4-1.8,0.7-2.7c0.7-0.3,0.8-0.8,0.7-1.4c1.8-1,2.3-2.7,2.4-4.6c0-0.2-0.5-0.4-0.9-0.7c-1,1.7-1.3,3.5-1.5,5.3
		c-0.8,0.2-0.8,0.8-0.7,1.5c-1.2,0.3-1.4,1.4-2,2.2c-1.1,1.4-2.2,2.7-4.1,3.1c-0.6-0.3-1.2-0.6-1.8-0.9c0.2-2.9-0.2-5.7,0.9-8.4
		c0-0.1,0.2-0.2,0.4-0.3c0.1,0.5,0.3,0.9,0.4,1.5c0.4-0.4,0.7-0.7,1.3-1.4c0,2,0,3.8,0,5.5c-0.1,0.1-0.2,0.1-0.2,0.2
		c0.1-0.1,0.1-0.2,0.2-0.3c0.4-0.8,0.9-1.6,1.3-2.4c0.4-0.8,0.3-1.9,1.6-2.5c-0.2,1.4-0.4,2.6-0.7,4.4c2-2.7,3.1-5,3-8
		c-1-0.2-1.8-0.3-2.4-0.4c-1.3,0.7-0.7,2.3-2.2,2.6c-0.2-0.9-0.4-1.8-0.6-2.7c-1.1-0.2-2.1-0.3-3.1-0.4c-0.2,0.4-0.4,0.6-0.4,0.8
		c0.4,1.9,0.1,3.7-0.1,5.6c-0.1,1.3-0.4,2.5-0.5,3.8c-0.1,1.3,0,2.5,0,3.9c-0.9-0.3-1.7-0.6-2.5-0.8c-1-0.2-2-0.2-3-0.2
		c-2-2.8-3-5.8-4.1-8.1c0.1-1.6,0.2-2.6,0.1-3.6c0-0.7-0.7-1.1-1.2-0.9c-0.3,0.2-0.8,0.6-0.8,1c0,1.7,0.3,3.2,1,4.7
		c0.3,0.5,0.9,1.1,0.8,1.5c-0.6,1.9,0.9,3,1.5,4.4c0.1,0.1-0.1,0.4-0.3,0.7c-0.6-0.8-1.1-1.7-1.8-2.1c-1.9-1.2-2.2-3.2-2.5-5.1
		c-0.1-0.7,0-1.4-0.1-2.1c-0.1-0.5-0.4-1-0.7-1.6c-1,0.8-1.8,1.4-2.7,2.1c-1.2,0.9-1.5,1.7-0.9,2.9c0.3,0.7,1,1.2,1.5,1.8
		c0.1,0,0.1,0.1,0.2,0.1c-0.1,0-0.2,0-0.3,0c0.5-1.2-0.4-2.6,0.6-4.3c0.6,2.4,1.1,4.3,1.4,5.8c-0.5,0.8-0.9,1.3-1.1,1.7
		c-1.3-1.5-2.5-2.7-3.6-3.9c0-0.2,0-0.4,0-0.7c0-0.1-0.1-0.2-0.1-0.3c-0.1,0.1-0.3,0.3-0.2,0.4c0.1,0.2,0.3,0.3,0.4,0.5
		c-0.3,1.9,1.4,3,2,4.5c-0.3,0.2-0.4,0.4-0.4,0.3c-1.9-0.5-2.3-2.7-4.2-3.8c-0.1,1.2-0.1,2.2-0.2,2.9c-0.6,0.8-1.1,1.4-1.6,2
		c0.6,1,1.1,1.8,1.7,2.9c-0.8,0-1.3,0-1.9,0c0.2,1.3,0.3,2.5,0.5,3.7l0.1-0.1c-0.4-0.1-0.9-0.2-1.4-0.3c-0.4,1.2,0.4,2.3,0.7,3.4
		c0.3,1.2,0.5,2.4,0.8,3.7c0.5-0.4,0.8-0.8,1.3-1.3c0.2,0.9,0.3,1.6,0.4,2.3c0.1,0.7,0,1.4,0,2.2c-0.5,0.3-0.9,0.6-1.4,1
		c-0.8,0.7-1.5,1.6-1.5,2.7c-0.1,3.1-0.2,6.3-0.2,9.4c0,0.9,0.3,1.9,0.2,2.8c-0.1,1.9,0.4,3.7,1.2,5.4c1.3,2.9,2,6,2.6,9.1
		c0.2,1,0.4,2.1,0.9,3c1.2,2.5,2.5,5,3.8,7.5c0.4,0.8,0.9,1.7,1.7,2.2c3.1,2.1,6.1,4.4,9.7,5.5c2,0.6,4.1,0.8,6.2,0.1
		c0.9-0.3,1.8-0.5,2.7-0.7c3.9-0.9,6.6-3.4,8.9-6.4c3.6-4.7,5.4-10.3,6.8-16c0.6-2.7,1.3-5.5,2.4-8c1.3-3,1.2-6,0.5-8.9
		c-0.4-1.6-0.4-3.2-0.5-4.8c-0.2-1.8-0.2-3.4,0.3-5.1c0.5-0.7,1.3-1.2,1.1-2.4c-1.2,0.7-1.1,1.6-1,2.5c-2.1-0.4-2.7-1.4-2.1-3
		c0.4-0.9,0.8-1.9,1.2-2.8c1.2-0.5,1.2-0.5,1-1.7c-0.9,0.3-1.2,0.9-0.9,1.8c-0.4,0-0.8-0.1-1.2-0.1c-0.4-1.4-0.1-2.6,0.5-3.8
		c0.5-1.1,1-2.1,1.3-3.2c0.4-1.4,0.3-2.7-1-4c-0.4,2.3-0.3,4.5-1.4,6.3c-0.2-0.8-0.1-1.9-0.6-2.3c-1.4-1.1-0.8-2.6-1.1-3.9
		c0-0.1-0.3-0.2-0.5-0.3c-0.8,0.2-0.9,1.7-2.3,1.3c0.6-1.1,1.1-2.1,1.7-3.1c0.2-0.3,0.7-0.5,0.8-0.6c1.2,0.3,1,1.6,2,2
		c0.4-1.9,0.4-2.3,0-2.8c-0.9-1.4-2-2.6-3.4-3.5c-0.7-0.4-1.1,0-1.3,1.3C273.7,140.6,273.4,140.9,273.2,141.1z M280.9,159.3
		c0.2-0.1,0.4-0.3,0.4-0.5c0-0.1-0.1-0.3-0.2-0.4c0,0.1-0.1,0.2-0.1,0.3C280.9,158.9,281,159.1,280.9,159.3l-0.1,0.1L280.9,159.3z
		 M284.4,182.5c-1.3,0.4-2.5,0.8-3.1,2.3c-0.4,1.1-0.3,1.2,1.2,1.8C283.2,185.3,284.7,184.3,284.4,182.5c0.9-0.8,1-1.9,1.4-2.9
		c0.8-0.6,1.2-1.4,1.2-2.4c0.1-1.7,0.1-2.1-0.7-3.7c-0.8,1-1.5,1.8-2.2,2.7c0.7,1.2,1.9,2,1.8,3.4c-0.8-0.1-1.2,0.4-1.3,1.1
		C284.4,181.4,284.4,182,284.4,182.5z M265.4,130L265.4,130c-0.6,0.5-1.3,0.8-1.2,1.8c1.7,0.6,1.7,0.6,3.3,0.2
		c0.6,0.3,1.2,0.5,1.9,0.8c0.7,0.3,1.4,0.6,2.1,0.8c0.5-1,0.1-1.6-0.8-2.2c-1,0.2-2.1,0.4-3.2,0.6c1-0.6,1.9-1.2,2.9-1.8
		c-1-2-3-2-4.7-2.5c-1.7-0.5-3.5-0.6-5.1,0c-1.6,0.6-3.1,1.4-4.3,3.2c0.9,0.1,1.4,0.3,1.9,0.3c0.7,0,1.4,0,1.9,0
		c1.4-1.1,2.1-3.1,4.5-2.6c-0.8,0.7-1.5,1.3-2.1,1.9c-0.3,0.3-0.6,0.7-0.2,1C263.4,130.9,264.4,130.4,265.4,130z M276,396.5
		c0,0.2,0,0.4,0,0.6c0,0.1,0.3,0.1,0.4,0.2c0,0,0.1-0.2,0.1-0.3C276.4,396.9,276.1,396.7,276,396.5c0.6-3.5,1.3-7,2.1-10.5
		c1.5-6.8,3.1-13.6,4.7-20.5c0.1-0.3,0-0.7-0.1-1c-6.7,1.1-21.3,9.4-25.6,14.5c1.4,1.1,2.8,2.1,4.1,3.2c5,4,9.8,8.3,13.7,13.5
		C275.2,396.1,275.6,396.3,276,396.5z M165.8,544.8c-0.5,0.2-1,0.4-1.7,0.6c-1-2.2,0.1-4.7-1.5-6.8c-1.7-0.4-3.5-0.3-5.4-0.3
		c-1.3,0-2.6,0.1-3.8,0.3c-0.3,0-0.6,0.3-1.1,0.6c0.1,0.7,0.1,1.5,0.2,2.3c0.2,1.1,0.7,2.2,0.9,3.4c0.2,1.1,0,1.5-1.2,2.2
		c-2.2,1.2-3.5,2.9-3.9,5.4c-0.3,1.7-0.7,3.4-1.1,5.1c-0.4,1.5-0.9,2.9-1.2,4.4c-0.5,2.4-0.9,4.8-1.5,7.2c-0.5,2.2-1,4.3-1.6,6.4
		c-0.3,1-0.9,2-2.2,1.9c-1.1,0-1.5,0.6-1.6,1.4c-0.3,2-0.6,3.9,1.2,5.5c0.5,0.5,0.8,1.1,1.2,1.6c2.4,0.5,2.4,0.5,4-0.6
		c0.5-0.3,1-0.7,1.5-0.8c1-0.2,1.5-0.9,2.1-1.6c1.9-2.3,4.1-4.1,7.4-4c0.8,0,1.5-0.4,2.2-0.5c0.8,0.5,1.6,0.9,2.2,1.4
		c2.2,1.6,4.1,3.5,6.5,4.8c0.2,0.1,0.3,0.6,0.4,0.9c-0.2,0.2-0.4,0.5-0.6,0.4c-1.7-0.3-3.3-0.9-4.5-2.4c-0.7-0.9-1.7-1.6-2.6-2.3
		c-0.4-0.3-1-0.6-1.6-0.6c-2-0.1-4,0.2-5.5,1.7c-1.2,1.3-2.3,2.7-3.6,4.2c6.4,1,12.6,0.8,18.8,0.7c2.9,0,5.8-0.9,8.3-2.4
		c0.7-0.4,1.3-1,1.7-1.3c0.1-4.2-0.9-8.1-0.7-12.1c0.1-1.2-0.4-2.5-0.7-3.8c-0.2-0.8-0.6-1.5-1.5-1.7c-1.2-0.3-1.7-1.1-2.2-2.1
		c-1.4-3.2-2.5-6.5-2.1-10.1c0.1-1.5,0-3,0-4.6c-1-0.1-1.9-0.2-2.9-0.2C167.4,547.4,166.5,546.1,165.8,544.8l0.1-0.2L165.8,544.8z
		 M207.8,359.4l0.1,0.1L207.8,359.4c-0.1-0.5,0.1-1.1-0.1-1.6c-1.7-4.1-2.2-8.5-2.6-12.9c-0.2-2.1-0.6-4.1-1.6-6
		c-0.4-0.8-0.9-1.6-1.3-2.5c-0.3-0.7-0.8-1.5-0.9-2.2c-0.3-2.2-0.5-4.4-0.7-6.6c0-0.5,0.2-1,0.3-1.6c1.1,0.5,1.9,0.8,2.7,1.2
		l-0.1-0.1c0,0.5,0.1,1,0,1.4c-0.6,3.3,0.2,6.2,1.9,9c1.4,2.4,2.7,4.9,4,7.4c-0.6,0.3-1.1,0.5-1.7,0.8c0.1,0.9,0.1,1.9,0.3,2.8
		c0.8,6.4,2.5,12.6,4.2,18.8c1.8,6.4,5,12.3,6.6,18.8c0.5,2.1,1.6,4.2,2.7,6.1c3,5.2,5.6,10.5,8.9,15.5c1.5,2.2,2.7,4.6,4.1,7
		c0.3,0.5,0.3,1.1,0.5,1.7c-1,0.6-1.8,1.1-2.7,1.6c0,5.2,0,10.2,0,15.2c0,0.7,0.2,1.4,0.5,2c0.6,1.4,1.3,2.7,2,4.1
		c1.4,2.7,3.1,5.2,4.1,8.1c0.1,0.2,0.1,0.4,0.1,0.7c-0.3,0.5-0.7,0.9-1,1.3c0.9,3.3,1,3.5,3.9,6c0.3-0.5,0.8-0.9,0.9-1.4
		c0.1-0.9,0-1.9,0-2.8c0-0.4,0.2-0.8,0.4-1.2c1.2,0.4,1,1.3,1.2,2.1c0.3,1.4,0.7,1.8,2.1,1.9c0.6,0.1,1.3-0.2,2-0.2
		c0-1.1,0.1-2.1,0-3c-0.1-0.8-0.4-1.6-0.5-2.4c-0.1-0.9-0.9-1.7-0.3-2.9c0.4,0.2,1,0.2,1.2,0.5c0.5,0.9,0.8,1.9,1.1,2.9
		c0.2,0.9,0.3,1.8,0.5,2.9c0.7,0.1,1.3,0.3,2.1,0.4c0.8-2.4-0.8-4.5-0.2-6.9c1.8,1.6,0.8,4,2.1,5.6c1-0.6,2.4,0.5,3.2-1
		c-1.9-4.5-2.5-9.4-2.6-14.3c0-2.2-0.4-4.1-1.4-6.1c-1.3-2.6-2.6-5.3-3.6-8c-1.1-3-2.8-5.7-4.3-8.4c-0.3-0.5-0.7-1.1-1.2-1.2
		c-1.5-0.4-1.6-1.5-1.8-2.7c-0.2-1.3-0.4-2.5-0.7-3.8c-0.5-1.7-1.3-3.3-1.7-4.9c-1.7-7.3-3.4-14.6-5.1-21.9
		c-0.6-2.8-0.9-5.8-1.6-8.6c-1.4-5.8-2.9-11.6-4.3-17.4c-0.9-3.8-1.9-7.4-4.1-10.7c-1.3-2-1.9-4.3-1.8-6.7c1,0.3,0.8,1.7,1.9,2.1
		c0.8-4.1,0.9-8,0.4-12c-0.2-1.5-0.2-3-0.3-4.5c-0.1-2.8-0.2-5.6-0.4-8.4c-0.3-4.4-0.7-8.9-0.9-13.3c-0.3-6-0.8-11.9-2.2-17.7
		c-0.7-3.2-1.4-6.4-2-9.6c-0.1-0.7-0.2-1.4,0-2.1c0.1-0.5,0.6-0.9,0.7-0.9c-0.2-4.2-0.5-7.9-0.6-11.7c-0.1-3.9,0-7.7,0.2-11.6
		c0.2-6.1,0-12.2,0.8-18.2c0.3-2.3,0-4.6,0-7.1c-0.5,0.1-0.9,0.1-1.1,0.3c-3.8,3.1-7.4,6.5-11.4,9.2c-0.9,0.6-1.7,1.1-2.7,1.5
		c-3,1.1-5.8,2.5-7.5,5.5c-0.5,0.8-1.3,1.4-1.8,2.1c-0.9,1.1-1.7,2.2-2.4,3.4c-0.4,0.8-0.9,1.8-0.8,2.6c0.3,1.6-0.2,3-0.6,4.4
		c-0.9,3.1-1.3,6.2-0.8,9.4c0.4,2.4,0.8,4.9,1.6,7.2c1,2.8,1.4,5.6,1.3,8.6c-0.1,4.9,0.4,9.8,1.5,14.6c0.6,2.5,1.1,5,1,7.6
		c0,1,0.2,2.1,0.5,3.1c0.9,3.6,1.9,7.2,2.8,10.9c0.1,0.5,0.1,1,0.2,1.7c-1.8-0.9-1.8-2.9-3.3-3.9c-1.2,1.4-2.5,2.6-3.6,3.9
		c-4.1,5-7.6,10.4-9.7,16.5c-1.1,3.2-2.4,6.3-3.7,9.5c-1.2,2.8-2.6,5.5-3.8,8.3c-0.2,0.5-0.3,1-0.4,1.6c0.6,0,0.9,0.1,1.3,0.1
		c5.9-0.3,11.6,0.3,17.2,2.4c3.9,1.4,7.4,3.4,10.5,6.1C206,357.9,206.9,358.6,207.8,359.4z M309.6,332c-0.9-0.6-0.8-1.4-0.5-2.2
		c0.8-2.1,1.7-4.1,2.7-6.1c1.7-3.2,3-6.6,3.8-10.1c0.3-1.5,0.9-2.9,1.6-4.3c2.6-5.3,4.6-10.8,5.6-16.5c0.4-2.2,0.5-4.4,1.1-6.6
		c1.4-5.4,1.9-10.8,2.1-16.3c0-0.4-0.2-0.9-0.2-1.1c-0.6-0.3-0.9-0.4-1.3-0.6c1-3.6,1.3-7.1,1.7-10.6c0.4-3.3,0.5-6.5,0.4-9.8
		c-0.1-3.5-1.1-6.7-3-9.6c-1.5-2.1-3.2-4-4.8-6c-0.6-0.7-1.4-1.2-2.2-1.7c-1.5-0.9-3-1.7-4.6-2.6c-1.1-0.6-2.2-1.6-3.4-1.9
		c-1.9-0.4-3.3-1.7-4.9-2.6c-3.5-2.1-6.9-4.3-10.5-6.3c-2.1-1.2-4.5-1.9-6.8-2.9c-0.2-0.1-0.4,0-0.8,0.1c0,0.3,0,0.6,0,1
		c0.3,2.9,0.8,5.8,0.9,8.7c0.3,4.1,0.4,8.2,0.5,12.3c0,0.9,0.2,2-0.2,2.8c-0.8,1.5-0.7,3.2-0.9,4.8c-0.1,1.3-0.2,2.6-0.5,3.8
		c-1.7,6.6-3.4,13.1-5.1,19.7c-0.2,0.9-0.6,1.8-1.3,2.4c-1.3,1.2-2.5,2.4-3.9,3.6c-0.2,0.2-0.6,0.1-1.3,0.2c2.6-3.6,4-7.4,5.6-11.1
		c1.6-3.9,2.8-7.9,3.4-12.1c0.6-4,1.8-7.9,1.3-12c-2.6-0.7-4.7-0.5-7,0.5c-1.9,0.8-4,1.1-6.1,1.6c-0.5,0.1-0.9,0-1-0.9
		c1.9-0.9,4.1-1.3,6.3-1.6c2.8-0.4,5.3-1.4,8.1-2.3c0.2-7.7,0.4-15.4-1.5-22.8c-1.4-0.8-2.6-1.5-3.9-2.2c-1.2-0.6-2.1-1.4-2.7-2.5
		c-0.1-0.1-0.4-0.1-0.8-0.2c-0.1,0.5-0.4,1-0.4,1.5c-0.1,1.3,0,2.6,0,3.9c-0.1,2.6-0.3,5.1-0.5,7.7c0,0.6-0.3,1.1-1,1.2
		c-0.1-0.2-0.4-0.3-0.4-0.5c0.1-2.2,0-4.4-0.9-6.5c-0.3-0.7-0.1-1.6-0.1-2.4c0-0.8,0-1.6,0.1-2.5c0-0.6-0.1-1.2-1-1.4
		c-1.3,2.3-3.8,3.1-6.2,4.2c-1,0.4-2,0.7-2.9,1.2c-3.3,1.9-6.5,1.5-9.7-0.1c-2.8-1.4-5.6-2.9-8.4-4.3c-1.5,3.4,0.4,6.5,0.1,9.8
		c-1.1-0.8-1.6-1.8-1.8-3c-0.5-2.6-1.2-5.2-1.8-7.8c0-0.2-0.3-0.3-0.5-0.4c-2.7,0.6-2.6,4.1-4.9,4.6c-0.6,2.9-1.1,5.5-1.6,8.2
		c-0.7,3.6-1.8,7.2-1.2,10.7c0.6,3.6-0.5,7.2,0.4,10.7c0.3,1.2,0.4,2.5,0.8,3.8c1.4,4.3,2.8,8.7,4.3,13c1.5,4.5,4,8.4,6.9,12.1
		c1.8,2.3,4,3.9,6.8,4.6c1.7,0.4,3.4,0.7,5.2,0.9c0.5,0.1,1-0.2,1.3-0.2c0.1-1.7,0.1-3.1,0.4-4.4c0.3-1.5,0.9-2.9,1.6-4.2
		c0.6-1.2,1.4-2.4,2.3-3.5c0.9-1.2,1.9-2.3,3-3.4c1.4-1.3,1.7-1.3,3.9-1.8c-0.4,0.5-0.5,1-0.8,1.2c-3.3,2.7-5.6,6.2-7.5,10
		c-1,1.9-1.3,3.9-0.8,6.2c5.4,0.6,10.3-2.1,15.5-2.5c-0.2,0.4-0.2,0.7-0.3,0.8c-0.4,0.4-0.9,0.8-1.4,1c-7,3.9-14.4,4.6-22.1,2.6
		c-3.5-0.9-6.7-2.7-8.3-6.4c-0.3-0.7-1-1.3-1.5-2c-1.2-2-2.6-3.9-3.5-6.1c-1.3-3.1-2.7-6.2-4.4-9.2c-2.1-3.5-3-7.3-2.9-11.4
		c0-1,0-2.1-0.2-3.1c-0.5-3.3-0.5-6.5-0.3-9.8c0.3-4.5,1-8.8,2.1-13.1c0.3-1.1,0.5-2.3,0.6-3.4c0.1-1.1,0.6-2.2,0.3-3.5
		c-1.9,0.6-3.7,1.1-5.5,1.6c-0.6,0.2-1.3,0.6-1.7,1.1c-1.7,1.7-2.8,3.7-3.1,6.2c-0.3,3-0.7,6-0.8,9.1c-0.2,7.1-0.3,14.3-0.3,21.4
		c0,6.1,0.2,12.2,0.1,18.2c0,2.4,0.2,4.6,0.8,6.9c1,3.8,1.5,7.8,1.4,11.8c-0.1,4.2,0,8.4,0.8,12.6c2.3,1.6,4.3,3.7,7.4,3.7
		c3.4,1.7,7.2,2.1,10.9,2.3c3.1,0.2,6.3,0.4,9.5,0.1c3.5-0.2,6.8-1.4,10.4-1.3c0.3,0,0.7-0.1,1-0.3c0.8-0.5,1.6-0.3,2.4-0.1
		c1.1,0.2,2.3,0.5,3.4,0.6c5.5,0.7,11,1.2,16-2c0.3-0.2,0.6-0.3,1-0.4c1.5-0.3,2.6-1.2,3.3-2.5c0.8-1.5,2-2.5,3.8-2.7
		c1.9-7.2,4.7-13.9,7.8-20.5c-1.6-1.5-2.2-3.4-2.4-5.4c-0.2-1.6-0.4-3.3-0.4-4.9c0-2-0.2-3.9-0.6-5.9c-1.7-7.4-3.1-14.9-3.1-22.5
		c-0.1-5.4,0-10.8,0.1-16.1c0-0.4,0.2-0.8,0.3-1.2c0.4,0.6,0.5,1.1,0.5,1.7c0.1,3.9,0.1,7.7,0.2,11.6c0.1,4.2,0.3,8.4,1.1,12.6
		c0.7,4,1.9,8,3.2,11.8c0.7,2.2,1.3,4.5,1.1,6.9c-0.1,1.4,0.1,2.8,0.2,4.2c0,0.4,0.3,0.8,0.6,1.5c0.7-1.3,1.2-2.2,1.7-3.1
		c0.5-0.8,1-1.6,1.7-2.2c0.4-0.4,1-0.7,1.7,0.1c-0.5,2.9-2.8,5.2-3.9,8.2c0.7,1.2,0.4,2.5-0.2,3.8c-0.9,2.1-1.9,4.3-2.7,6.5
		c-1.5,4.1-2.9,8.1-4.3,12.2c-0.3,0.9-0.8,1.9-0.1,2.7c0.8,1,0.5,1.9,0.3,3c-0.7,2.6-1.3,5.2-2,7.8c-0.2,0.7-0.4,1.4-0.7,2
		c-0.6,1.1-0.7,2.2-0.6,3.4c0.3,2.5,0.2,4.9-0.3,7.3c-0.4,2.2-0.6,4.4-1.1,6.5c-1.2,5.5-1.9,11.1-3.8,16.4c-0.6,1.5-0.7,3.2-1,4.8
		c-0.8,4-1,8.1-2,12.1c-1.5,5.9-2.5,11.9-3.7,17.9c-0.4,1.8-1.1,3.6-1.1,5.5c0,2.8-0.6,5.6-1.2,8.3c-0.8,4.1-1.8,8.2-2,12.4
		c-0.1,2.7-1.9,5-2.1,7.7c0,0.2-0.3,0.4-0.4,0.5c-0.7,0.9-1.4,1.9-2,2.9c-1.1,1.9-2.4,3.7-4.2,5.1c-2.3,1.9-3.7,4.2-3.5,7.3
		c1,0.7,1.5,1.7,1.4,3c-0.2,1.9-0.3,3.7-0.6,5.6c-0.5,2.6-1.3,5.2-1.9,7.8c-0.2,1.1-0.3,2.3-0.3,3.4c0,1.1,0.8,1.7,1.9,1.5
		c0.6-0.1,1.3-0.4,2-0.7c0.2-1.7,0.7-3.3,0.6-4.9c-0.1-1-0.9-2-1.4-3c0.5-0.7,1.1-0.6,1.6-0.2c1.8,1.5,3.9,2,6.2,1.8
		c0.3,0,0.7,0.1,0.9,0.2c-0.4,1.9-0.8,3.8-1.2,5.8c0.9,0.6,1.7,0.9,2.7,0.4c0.8-0.4,1.5-0.4,2.4-0.2c0.5,0.2,1.1,0.1,1.7,0.1
		c0.8-2.5,1.6-4.8,2.4-7.1c0.7-2,1.3-4,0.9-6.2c-0.2-0.8,0.1-1.6,0.2-2.4c0-0.2,0.2-0.3,0.3-0.5c0.4,0.5,0.9,1,1.5,1.7
		c0.3-0.7,0.6-1.2,0.7-1.8c0.2-1.3,0.2-2.6,0.3-3.8c0.3-6.2,0.5-12.4,1.7-18.5c0.1-0.7,0.4-1.5,0.2-2.1c-0.8-2,0-3.7,0.5-5.4
		c1-3.1,2.1-6.2,3.4-9.2c4.1-10.1,7.6-20.3,11.1-30.6c0.4-1.1,0.7-2.2,1.6-3.1c1-1,1.5-2.3,1.7-3.8c0.1-0.8,0.4-1.6,0.8-2.3
		c0.7-1.6,1.1-3.3,1-5.1c-0.1-2.4,0.3-4.9,0.3-7.4C309.6,339.4,310.2,335.6,309.6,332c0-0.1,0.1-0.2,0.1-0.2
		C309.7,331.9,309.7,331.9,309.6,332z M174.3,351.8c-0.5,1.6-1.1,3-1.5,4.4c-0.8,3.2-1.9,6.2-3.4,9.2c-2.8,5.8-4.7,12-5.7,18.3
		c-1,6.3-2,12.7-3,19c-0.4,2.7-0.8,5.3-1.1,8c-0.2,1.9-0.2,3.7-0.3,5.6c-0.4,6.4-2,12.4-4.6,18.2c-0.8,1.7-1.4,3.5-2,5.2
		c-2.5,7.5-3.7,15.2-3.5,23.1c0.2,10.4-0.8,20.8-0.3,31.2c0,0.3,0,0.7,0,1.1c-0.2,3.4,0.2,6.8,0.4,10.1c0.4,4.7,0.7,9.3,0.7,14
		c0,4.8,0.3,9.6,1.2,14.3c0.1,0.6,0.3,1.1,0.5,1.7c4.5,0.2,8.9-0.1,13.3,1.6c0.2-1.1,0.3-2,0.5-3.2c0.3,0.6,0.7,1,0.8,1.4
		c0.3,2.1,0.7,4.1,0.9,6.2c0.1,0.8,0.3,1.3,1.3,1.5c0-0.5,0.1-0.9,0-1.4c-0.4-2.1-0.4-4.1,0.1-6.2c0.6-2.3,0.7-4.6,0.4-7
		c-0.5-4.7,0-9.4,0.6-14c0.7-4.7,1.6-9.5,2.7-14.1c1.1-4.6,1.5-9.5,4-13.7c2.5-7.2,4-14.6,4.2-22.3c0.2-7.8,0.4-15.7,0.6-23.5
		c0-1.2,0-2.4,0.2-3.5c0.9-4.1,1.7-8.2,2.8-12.3c0.6-2.2,1.3-4.6,2.5-6.5c2.4-4,5-7.9,7.9-11.6c4.2-5.3,8.8-10.3,13.2-15.5
		c2.4-2.8,5-5.5,7.5-8.3c-0.1-0.5-0.2-1-0.3-1.4c-1.8-5.4-3.7-10.8-5.5-16.2c-0.3-0.8-0.8-1.4-1.4-1.9c-2.3-1.9-4.7-3.8-7-5.8
		c-2.9-2.5-6.3-4-10-4.8C185.5,351.8,180.1,351.5,174.3,351.8z M331,524c0-1.3,0-2.5,0-3.6c0.2-6.4,0.7-12.8,0.6-19.2
		c0-0.9,0.1-1.9,0.1-2.8c0.1-2.1,0.2-4.2,0.4-6.3c0.3-3.8,0.6-7.7,1-11.5c0.5-4.3,1.4-8.5,1.2-12.9c-0.1-1.7,0.2-3.5,0.4-5.2
		c0.5-4.6,1.3-9.3,1.1-14c0-0.6,0.1-1.2,0.1-1.7c0.5-3.8-0.7-7.4-1.3-11.1c-0.1-0.3-0.2-0.7-0.5-0.9c-1.1-1-1.1-2.3-1.3-3.5
		c-0.2-1.3-0.4-2.6-0.4-3.8c0-1.3-1.1-1.6-2-2.5c0.1-1.7,0-3.6,0.3-5.4c0.5-3,0.5-6,0.6-9.1c0-1.6-0.3-3-1-4.3
		c-2.2-4.4-4.4-8.8-6.5-13.2c-0.4-0.7-0.7-1.5-0.9-2.3c-1-4.9-3.4-9.2-6-13.3c-2.1-3.2-4.2-6.5-6.5-9.6c-0.8-1-1.3-2.4-2.7-3.1
		c-0.6,1.7-0.9,3.3-1.6,4.8c-1.8,3.4-3.3,7-4.4,10.7c-0.3,1.1-0.9,2.1-1.4,3.2c-0.9,2-1.8,4-2.7,6.1c-2.1,5.2-4.1,10.4-6.1,15.7
		c-0.8,2.2-1.6,7.2-1.5,9.7c1.6,1.7,3.1,3.1,4.5,4.7c2,2.3,3.9,4.6,5.9,6.9c0.6,0.7,1.2,1.6,2,2c1,0.5,1.6,1.3,2.2,2.2
		c0.5,0.7,0.8,1.5,1.5,1.9c1.6,1,2,2.6,2.1,4.2c0.2,2.4,0.3,4.9,0,7.3c-0.5,4.4-1.2,8.8-2.5,13c-1.4,4.3-0.9,8.6,0.1,12.8
		c1.2,4.9,2.7,9.7,4.7,14.3c1.1,2.5,2,5,2.7,7.6c2.9,10,4.3,20.3,5.2,30.7c0,0.2,0.2,0.3,0.2,0.4c0.5-0.3,0.5-1.2,1.5-0.9
		c0.3,2,0.1,4-0.1,6.2c-1.7,0.1-3.3,0.4-3.8,2.3c-0.1,0.3-0.7,0.5-1.1,0.7c1.1,0.7,1.3,1.9,1.6,3c0.2,0.8,0.4,1.6,1.5,1.9
		c1.6-1.4,3.3-2.8,4.6-4c0.9-2,1.6-3.7,2.4-5.4c0.7-1.4,1.8-2.1,3.3-2.2C329.4,524.2,330.1,524.1,331,524z M291.4,328.4
		c-0.3-0.7-0.4-1.4-0.8-1.7c-2.4-2.1-3.6-4.9-4.7-7.7c-0.1-0.3-0.4-0.5-0.6-0.8c-0.4,0.1-0.7,0.2-1,0.4c-4.4,1.7-8.7,3.4-13.1,5
		c-1.7,0.6-3.6,1-5.4,1.4c-5.3,1.1-10.7,1.2-16,1.3c-3.9,0.1-7.7-0.3-11.4-1.7c-3.5-1.3-7.3-1.6-10.5-4.3c-0.1,0.9-0.2,1.5-0.1,2
		c0.1,3,0.3,6.1,0.3,9.1c0,1.4,0.1,2.8-0.1,4.2c-0.3,1.8-0.8,3.6-1.2,5.4c2.7,3,4,6.5,5.1,10.1c1.8,5.9,3.1,12,4.1,18.1
		c0.1,0.5,0.2,1.1,0.4,1.7c1.3-0.5,2.3-1.1,3.4-1.3c3.2-0.8,6.4-0.9,8.6,2.1c1.6,2.1,3.7,3.5,5.6,5.2c0.5,0.4,1.2,0.6,1.7,0.9
		c1.3-1.5,2.3-2.9,3.5-4.2c0.7-0.8,1.5-1.5,2.5-1.9c3.1-1.6,6.2-3.2,9.4-4.8c2.7-1.4,5.4-2.8,8.1-4.2c1.5-0.8,3.1-1.5,4.8-2.4
		c0.5-9.2,3.4-18.1,6.2-27.1c-4.3-1.1-8.4,0.8-13.1,0c2.4-0.4,4.2-0.8,6.1-1c1.6-0.2,3.3-0.1,4.9-0.2c0.6,0,1.2,0,1.7,0
		c1-0.1,1.1-0.5,0.8-2.1c-1.2-0.1-2.4-0.1-3.9-0.2C288.1,328.9,289.8,329.7,291.4,328.4z M236.6,374.4c0.1,1.2,0.2,2.2,0.4,3.2
		c1,5.8,2.5,11.4,4.3,17c1.5,4.4,2.9,8.9,3.6,13.5c0.1,0.7,0.4,1.3,0.7,1.9c1.9,2.8,4,5.5,5.9,8.2c0.4,0.6,0.7,1.2,1,1.7
		c-0.2,0.7-0.4,1.3-0.6,1.9c1.2,1.8,2.4,3.7,3.7,5.5c1.5,2.1,2.4,4.2,2.1,6.9c0,0.3,0.2,0.6,0.4,1.1c0.9-0.2,1.8-0.4,2.7-0.6
		c0.4-1.5,0.8-2.9,1.2-4.2c0.4-1.3,0.9-2.7,1.6-3.9c1.3-2.2,2.8-4.3,4.2-6.4c1.2-1.9,2.5-3.7,3.6-5.6c0.5-0.9,0.7-2,1.2-2.9
		c0.5-0.8,1.5-1.4,2.1-2.3c0.6-1,1-2.1,1.4-3.2c1.1-2.6,0.7-4.8-1.3-7c-3.5-4-7.3-7.6-11.3-11c-2.7-2.3-5.4-4.5-7.9-6.9
		c-2-1.9-4.1-3.7-5.9-5.9C246.5,371.8,241.4,371.5,236.6,374.4z M227.7,317.6c1.1,0.6,2,1.2,2.9,1.6c0.4,0.2,0.9,0.5,1.3,0.4
		c2.1-0.3,3.5,0.7,5,1.9c4.1,3.5,9,4,14.1,3.8c0.3,0,0.7-0.1,1-0.3c3.3-1.1,6.8-1.4,10.3-1.8c2.9-0.3,5.8-0.8,8.6-1.4
		c2.7-0.5,5.1-1.6,7.3-3.2c1.7-1.2,3.4-2.4,5.3-3.8c0.2-1.1,0.4-2.5,0.8-3.8c0.4-1.4,1.1-2.8,1.6-4.3c0.2-0.4,0.5-0.8-0.1-1.2
		c-3.5,1.5-7.2,2.6-11.1,3.1c-1,0.1-2,0.6-2.9,1.1c-2.1,1.1-4.3,1.7-6.7,1.7c-2,0-4-0.1-6-0.1c-3.3-0.1-6.5-0.7-9.5-2.2
		c-2-1-3.9-1.3-6.1-1.2c-3.2,0.1-6.4-0.1-9.3-1.3c-2.6-1.1-5-2.5-7.5-3.7c-0.3-0.2-0.6-0.8-1.2-0.2
		C227.3,307.7,226.7,312.7,227.7,317.6z M293.3,301.1c-1.6,1.4-2.7,2.3-3.2,3.8c-0.5,1.5-1.3,3-2.2,4.4c-0.8,1.3-1.1,2.6-1.1,4
		c0,3.3,1,5.3,4.1,8.2c0.2-0.9,0.2-1.8,0.6-2.4c1-1.6,1-3.3,0.6-5.1c-0.1-0.5,0-0.9,0-1.4C291.8,309,292.7,305.5,293.3,301.1z
		 M271.2,307.1c-0.4,0-0.9,0-1.3,0c-1.7,0-3.5,0.2-5.2,0c-4.3-0.6-8.6-0.2-12.9,0.5c0.4,1,1.3,1.1,2.1,1.2c3.6,0.8,7.2,0.6,10.8,0.5
		C267.1,309.4,269.2,308.8,271.2,307.1z M257.5,437.5c0.5,1.7,0.9,3,1.4,4.3c0.5,1.4-0.2,3,0.8,4.3c0.6,0.3,1.3,0.5,2-0.3
		c0.2-1.3,0.6-2.8,0.6-4.3c0.1-1.6,1.4-3,0.8-4.7C261.4,437.1,259.7,437.2,257.5,437.5z M252.3,134.1c-1-0.3-1.6-0.1-1.7,0.5
		c-1.3,4.2,0,7.7,3.2,11.1C254,141.6,253.1,137.9,252.3,134.1z M270.7,446c-0.6,1.8-0.9,3.7-1.3,5.6c-0.1,0.3,0.1,0.6,0.1,1.2
		c0.5-0.2,1.1-0.2,1.3-0.4c1.5-1.7,2.2-3.7,2.2-5.9c-0.3-0.2-0.5-0.4-0.7-0.4C271.8,445.9,271.3,446,270.7,446z M231.5,181.5
		c0-1.6,0.6-3-0.2-4.4c-0.2-0.3-0.4-0.8-1-0.7C229.5,179.2,229.6,179.7,231.5,181.5z M253.8,137c1.5-1.1,1.5-1.1,2-3.5
		c-0.6,0.1-1.1,0.2-1.6,0.2C254,134.9,253.5,135.9,253.8,137z M233.3,186.4c0.3,3,0.3,3,1.2,4.2
		C234.8,189.1,234.4,187.9,233.3,186.4z M232.4,163.6c0.9,0.2,1.5,0.4,2.5,0.6c-0.6-1.3-1-2.2-2.4-2.6
		C232.5,162.3,232.5,162.8,232.4,163.6z M284.3,172.9c0.7-0.3,1.4-0.6,1.8-1.4C284.9,171.4,284.7,172.4,284.3,172.9z M255.9,137.2
		c-0.1,0.7-0.2,1-0.2,1.3c0,0.3,0.3,0.5,0.5,0.7c0.2-0.2,0.5-0.5,0.5-0.7C256.5,138.1,256.2,137.8,255.9,137.2z M232.1,174.1
		c-0.3-0.2-0.5-0.3-0.8-0.5c0,0-0.2,0.2-0.2,0.2c0.2,0.2,0.3,0.4,0.5,0.6C231.7,174.5,231.9,174.4,232.1,174.1z"/>
	<path d="M675.3,214.7c0,0.7,0.1,1.4,0,2.1c-1,6.5-0.6,13.1-0.8,19.6c0,1.4,0.1,2.8,0.1,4.2c2.4,1.4,3.4,3.6,4,6
		c0.8,3.2,2.6,6,4.2,8.8c1.3,2.3,2.7,4.6,4,7c3,5.5,4.7,11.4,5.3,17.7c0.5,5,1.3,10,2.1,14.9c0.1,0.7,0.3,1.4,0.5,2
		c2.1,7.3,3.8,14.7,4.5,22.3c0.4,4.3,1.3,8.6,1.7,12.9c0.7,7.6,1.1,15.2,0.6,22.8c-0.2,2.3,0,4.7-0.1,7c-0.4,7.8-0.8,15.6-1.2,23.5
		c-0.1,1.3-0.1,2.6-0.2,3.9c-0.2,3-0.3,6.1-0.7,9.1c-0.4,3.5,0.1,7,0.8,10.4c0.2,1.3,0.6,2.5,0.9,3.8c0.7,2.9,1,5.7,1,8.7
		c0,3.1,0.3,6.3,0.6,9.4c0.1,0.7,0.3,1.4,0.6,2c0.4,1,0.8,1.9,1.3,2.9c2.6,5.4,4.4,11.1,5.8,16.9c0.1,0.5,0.3,0.9,0.3,1.4
		c-0.4,5.6,0.3,11.2,0.6,16.8c0.2,5.7-0.3,11.5-1,17.1c-0.7,5.9-2,11.8-2.2,17.7c0,1.4-0.2,2.8-0.2,4.2c0.4,6.3-0.1,12.6-0.5,18.9
		c-0.2,2.9-0.3,5.8-0.4,8.8c0,1,0.1,2.1,0.1,3.2c0.4,0.3,0.8,0.8,1.2,0.8c1.8,0.2,2.6,1.3,3.3,2.8c0.4,1,0.8,2,1.2,2.9
		c0.3,0.6,0.4,1.4,0.9,1.9c1.8,1.7,2.5,4.2,4.4,5.8c0.5,0.4,0.7,1.2,1,1.8c1.2,3.1,2.9,5.9,5.1,8.3c1.8,2,3.2,4.4,3.8,7
		c0.2,0.9,0.5,1.7,1.4,2.2c0.8,0.4,0.9,1.4,0.8,2.2c-0.1,2.6-0.3,5.1-0.5,7.7c-0.2,1.9-0.3,1.9,0.4,4c-0.7,1.1-1.9,1.4-2.9,1.8
		c-4.4,1.5-9,2.6-13.7,2.5c-4.5-0.1-8.8-1.1-13.1-2.3c-0.9-0.2-1.8-0.5-2.3-1.6c0.3-0.3,0.7-0.6,1.2-1c-3.6-2.4-4.4-5.6-2.7-9.4
		c-1.6-1.2-3-2.5-4.5-3.5c-1.4-0.9-2.5-2.1-3.2-3.6c-0.5-1.1-1.8-1.7-1.9-3.2c-0.1-2.9-0.7-5.8,0.1-8.7c0.1-0.4,0.3-1,0.6-1.3
		c1.6-1.4,1.4-3.1,1.1-4.9c-0.5-2.5-0.3-4.9,0.2-7.3c0.4-2,1-3.8,2.8-5c0.2-2.6-0.4-5-0.9-7.3c-1.7-8.2-3.1-16.6-4-24.9
		c-0.6-5.3-1.5-10.4-3-15.5c-0.4-1.4-1.1-2.8-1.8-4.2c-3.8-7-5.7-14.5-5.8-22.5c-0.1-2.6-0.6-5.1-0.8-7.7c-0.2-2-0.6-4-0.4-5.9
		c0.2-3.4-0.5-6.5-1.7-9.6c-1.5-3.8-3-7.6-3.6-11.7c-0.1-0.6-0.3-1.1-0.6-1.7c-2.5-6.1-3.7-12.5-4-19.1c-0.1-2-0.4-4-0.9-5.9
		c-1.5-6.6-3.3-13.1-5.9-19.4c-2.9-6.9-5.5-13.9-8-21c-3.1-8.6-5.1-17.5-6.7-26.5c-0.7-3.9-1.7-7.7-3.6-11.4c-0.4,0-0.9-0.1-1.2,0.1
		c-0.7,0.3-1,1-1.1,1.7c-0.3,5.1-2,9.8-3.2,14.7c-0.6,2.4-1.4,4.7-2.3,7c-2.6,6.5-4.8,13.2-6,20.1c-0.3,1.7-0.8,3.4-1.6,5
		c-1.4,2.6-2.3,5.4-2.8,8.3c-1.2,6.6-2.4,13.1-3.6,19.7c-0.1,0.7-0.2,1.4-0.1,2.1c0.4,4.3-0.2,8.4-1.4,12.5c-0.6,2-1.3,4-1.9,6
		c-0.8,2.5-1.5,4.9-2.3,7.4c-0.7,2.1-1.4,4.2-2.2,6.3c-0.4,1.1-0.9,2.2-1.7,3c-1.2,1.2-1.3,2.5-0.9,3.8c1.3,5.2,1.6,10.4,1.1,15.7
		c-0.4,4.8-0.8,9.6-1.2,14.3c-0.4,3.9-1.3,7.6-2.3,11.3c-1.9,6.4-3.8,12.8-4.9,19.4c-0.7,4.2-1.3,8.3-1.8,12.5
		c-1.1,7.9-2.3,15.7-3.9,23.5c-0.3,1.2-0.2,2.5-0.3,3.8c0,1.7,0,3.5,0,5.3c0,0.5-0.1,0.9-0.3,1.4c-0.5,1.3-1.9,1.6-2.7,0.4
		c-0.7-1-1.7-2.2-1.8-3.3c-0.2-2.1-1.4-3.7-1.8-5.6c-2.6-1.4-5.4-0.3-7.8-1.4c-1.7,0.8-2.7,2-2.9,3.8c-0.2,2-1,3.6-2.4,4.9
		c-0.5,0.5-0.8,1-1.3,1.7c2.1,0,4-0.1,5.8,0c1.3,0.1,2.5,0.4,3.8,0.7c1.3,0.4,2.3,1.3,2.6,2.6c0.1,0.6-0.2,1.3-0.3,2.2
		c-3.5-2-7-2.5-10.6-2.7c-1.1-0.1-1.9-0.6-2.7-1.4c-2.3,1.7-4,3.6-4.6,6.4c-0.8,3.5-3,6.3-5,9.2c-2.4,3.5-4.9,6.9-7.2,10.4
		c-0.6,0.8-0.9,1.9-1.2,2.9c-0.5,1.8,0,3.2,1.8,4l-0.1-0.1c1.7,1,3.4,2.1,5.1,3c0.7,0.4,1.5,0.6,2.3,0.6c5.1,0.6,10.3,0.7,15.4-0.1
		c2.6-0.4,5-1.3,6.5-3.7c0.4-0.6,0.9-1.1,1.4-1.7c0-1.6,0-3.2,0-4.8c0-1.3,0.5-2.3,1.7-2.8c1.2-0.5,2.4-0.9,3.6-1.3
		c2.4-0.8,4.4-2.1,5.3-4.7c0.2-0.5,0.5-1,0.9-1.4c1.7-1.9,2.3-4,1.4-6.4c-0.7-2-1.4-4-2.1-5.9c-1.7-4.4-2.2-9.1-2.2-13.8
		c0-0.3,0.2-0.7,0.3-1c0-0.1,0.2-0.1,0.3-0.2c0.5-0.1,0.9,0.1,1,0.6c0.4,1.9,0.8,3.9,1.1,5.8c0.5,3,0.9,6,2.2,8.8
		c0.2,0.5,0.4,1.1,0.5,1.7c0.1,1.6,0.6,3,1.3,4.3c0.3,0.5,0.4,1.1,0.6,1.6c0.5,1.7,0.1,3.2-1,4.6c-0.5,0.6-1.2,1.2-1.4,1.9
		c-0.8,2.4-2.6,3.9-4.6,5.1c-1.7,1-3.3,2.2-5.5,1.5c-0.3-0.1-0.8,0.4-1.3,0.6c0,0.5,0,1,0.1,1.4c0.8,1.9,0.4,3.7-0.5,5.4
		c-0.9,1.9-2.1,3.6-4.1,4.7c-0.6,0.3-1.3,0.7-1.9,0.8c-3.1,0.6-6.2,1.4-9.3,1.6c-3.2,0.2-6.5-0.1-9.8-0.1c-1.2,0-2.2-0.6-3.3-1.1
		c-1.9-0.8-3.3-2.6-5.6-2.9c-0.4,0-0.7-0.5-1-0.9c-1.4-1.6-1.6-3.6-1.3-5.6c0.3-1.6,1-3.1,2-4.4c1.7-2.2,3.5-4.4,4.6-7
		c0.1-0.3,0.4-0.6,0.6-0.8c3.1-3.3,4.9-7.4,6.1-11.7c0.6-2,1.7-3.6,3.2-4.9c1-0.9,2.1-1.8,3.2-2.8c1.5-1.4,2.5-3,2.8-5.1
		c0.1-0.5,0.2-0.9,0.3-1.4c0.6-3.3,0.6-3.3,3.5-5.6c0-0.7,0.1-1.7-0.1-2.6c-0.5-2-0.6-3.9-0.4-5.9c0.5-6.3,0-12.6-0.8-18.9
		c-0.6-4.6-1.2-9.2-0.9-14c0.2-2.8-0.4-5.6-0.7-8.4c-0.3-3.1-0.8-6.3-1-9.4c-0.3-4.1-0.4-8.2-0.6-12.3c-0.1-2.7,0-5.4,0.4-8
		c0.8-4.8,1.4-9.7,2.2-14.6c0.5-2.6,1.2-5.2,1.9-7.8c1.1-4.1,1.8-8.2,2.3-12.4c0.2-1.6,0.2-3.2-0.2-4.9c-0.3-1.4-0.4-2.8-0.5-4.2
		c-0.3-5.4-0.9-10.7-1.8-16c-0.3-1.8-0.9-3.6,0.2-5.4c0.3-0.4,0.1-1.1,0-1.7c-1.5-8.2-1.7-16.5-1.4-24.8c0.3-9-0.5-18-0.9-27
		c-0.1-1.3-0.2-2.6-0.2-3.9c0.2-9.2,0.9-18.4,2.1-27.6c0.5-4.1,2.1-7.9,3.2-11.8c1.5-5.3,3.1-10.6,4.5-15.9c0.6-2.3,1-4.6,1.4-6.9
		c0.4-2.1,0.9-4.3,1.3-6.4c0.4-2.2,1.2-4.3,1.9-6.4c0.7-2.1,1.4-4.2,2.3-6.2c1-2.2,2.2-4.4,3.5-6.4c3.1-5.1,4.1-10.6,2.8-16.5
		c-1.8-8.1-3.6-16.2-5.3-24.3c-0.4-1.8-0.9-3.6-0.1-5.5c0.2-0.6-0.1-1.4-0.2-2c-0.4-1.8-0.9-3.6-1.2-5.5c-0.4-2.8-0.8-5.6-0.9-8.4
		c-0.1-5.2-0.3-10.3-1-15.4c-0.1-0.9-0.2-1.9,0-2.7c0.4-1.8,0.3-3.5-0.3-5.2c-0.7-2.4-1.2-4.7-1.3-7.2c0-1.1-0.4-2.3-0.8-3.4
		c-2.3-6.1-4.6-12.2-6.4-18.6c-0.8-2.9-2.4-5.3-3.9-7.8c-0.5-0.7-1.1-1.2-1.9-1.5c-3-1-5.3-2.9-7.6-4.9c-4.6-4.2-9-8.6-12.6-13.6
		c-0.7-1-1.6-2-2.5-2.9c-4.6-4.2-8.2-9.3-11.2-14.7c-0.7-1.2-1.3-2.4-2.4-3.3c-0.9-0.7-1.4-1.9-1.9-2.9c-0.8-1.7-1.8-3.2-3.2-4.6
		c-0.9-0.9-1.6-2-2.4-3c-1.7-2.3-1.8-4.8-1.3-7.6c0.7-3.4,2.2-6.1,4.4-8.6c0.5-0.6,1.1-1.2,1.5-1.8c0.8,0.2,1.2,0.7,0.8,1.4
		c-0.6,1.2-1.3,2.5-2.1,3.6c-0.9,1.3-2,2.6-2.6,4.1c-1.2,3.2,0,7.1,2.8,9c1.7,0.2,2.1,1.7,2.8,2.8c0.5,0.8,1,1.5,1.5,2.3l-0.1-0.1
		c0.3,0.5,0.5,1,0.8,1.5l-0.1-0.1c0.2,0.6,0,1.3,0.8,1.5l-0.1-0.1c-0.1,1.3,0.6,2.2,1.2,3.2c3,5,6.1,9.9,10.6,13.8
		c2,1.8,3.8,3.8,5.9,5.5c1.1,0.9,2.3,1.6,2.4,3.2c0,0.4,0.5,0.8,0.8,1.1c5.8,4.7,10.8,10.3,17,14.2c0.7,1.2,1.3,2.2,1.8,3.2
		c1.3,2.6,2.6,5.2,3.8,7.8c0.3,0.6,0.5,1.4,0.3,2c-0.3,1.1,0.1,2.1,0.5,3c1.5,3.7,2.9,7.4,4.4,11.1c0.8,2.1,1.7,4.3,2.4,6.3
		c-0.5,0.8-0.9,1.3-1.3,1.9c0.4,0.8,0.8,1.3,1.1,2c0.8,2.1,1.7,4.1,0.7,6.4c-0.3,0.7-0.4,1.7-0.2,2.4c0.7,2.1,0.4,4.2,0.4,6.2
		c-0.1,4.6-0.1,9.1,0.7,13.6c0.1,0.7,0.3,1.4,0.2,2.1c-0.2,1.8,0.2,3.5,0.7,5.2c1,3.7,2.1,7.4,3.2,11.1c0.1,0.2,0.3,0.4,0.3,0.3
		c4,1.6,7.8,3.1,11.6,4.6c4,1.6,8.1,2,12.3,2.3c2.8,0.2,5.6,0.5,8.3,0.7c-1.8,0.4-3.5,0.5-5.2,0.5c-8.4-0.3-16.8-1.1-24.9-3.5
		c-0.6-0.2-1.3-0.1-2.1-0.1c0.1,0.7,0.1,1.2,0.2,1.6c0.5,2.2,1.1,4.3,1.6,6.5c1.2,5.4,2,10.8,1.8,16.3c-0.1,3.4-1.3,6.6-1.8,10
		c-0.2,1.4-1.3,2.1-1.9,3.2c-0.1,0.2-0.2,0.4-0.3,0.6c-1.2,2.6-2.4,5.1-3.4,7.7c-1.3,3.5-2.5,7-3.7,10.5c2.5,1.7,5.2,2.4,7.8,3.5
		c3,1.3,6,1.8,9.2,2c7.3,0.5,14.7,1,22,1.2c9.1,0.3,18.2,0.2,27.3,0.3c1.4,0,2.8-0.2,4.2-0.3c2-0.2,4-0.3,5.9-0.5
		c-1.7,0.5-3.3,1.1-5,1.5c-7.9,1.9-15.9,2.3-24,2c-4.2-0.1-8.4-0.9-12.6-0.2c-0.5,0.1-0.9,0-1.4,0c-4.3-0.4-8.6-0.6-12.9-1.2
		c-6.1-0.8-12.2-2-18.2-3c-0.3-1.8-1.2-2.7-2.8-3.2c-0.2,0.5-0.4,0.9-0.5,1.3c-0.5,2.4-1.1,4.8-1.4,7.2c-0.4,2.5-0.8,5.1-1.5,7.5
		c-1.7,5.4-3.2,10.8-4.8,16.1c-0.7,2.5-1.2,5-1.3,7.6c-0.2,3.8-0.6,7.7-0.9,11.5c-0.3,4.1-0.4,8.2-0.6,12.3c0,0.7,0.1,1.3,0.2,1.9
		c3.9,2.1,8.1,2.8,12.2,3.8c3.2,0.8,6.4,1.2,9.7,0.9c2.1-0.2,4.2,0,6.3-0.1c5-0.2,10-0.3,15.1-0.7c3.5-0.2,6.9-1,10.4-2.3
		c0.5-2.4,1.1-4.7,1.6-7.1c0.4-1.9,1.1-3.5,2-5.2c0.8-1.4,1.8-2.4,3.3-2.8c1.3,0.6,2.4,1.1,3.5,1.6c1.6,3.9,2,8,3.4,11.8
		c4.8,1.8,9.7,2.7,14.5,3.6c2.3,0.5,4.7,0.6,7,0.3c5.3-0.7,10.6-1.5,16-2.2c0.8-0.1,1.7-0.4,2.4-0.2c2.5,0.7,4.6-0.3,6.8-1.1
		c2.2-0.8,4.2-2,5.6-3.7c0-0.5,0-0.9,0-1.2c-0.6-5.3-1.2-10.7-1.8-16c-0.6-4.9-1.4-9.7-3-14.4c-1.6-4.4-2.4-9-3.1-13.6
		c-0.3-1.6-0.6-3.2-0.9-4.9c-4.9,0-9.7,0.6-14.4-0.3c4.7-0.4,9.4-0.8,14.2-1.2c-0.4-3.1-0.4-6.1-1.2-9.2c-1,0.2-1.9,0.3-2.9,0.5
		c-0.9,0.1-1.9,0.4-2.8,0.3c-2.5-0.3-4.9,0.2-7.3,0.7c-1.9,0.4-3.9,0.6-5.9,0.9c0.5-0.2,1-0.5,1.6-0.7c2.9-0.8,5.8-1.8,8.5-3.3
		c1.8-1,3.6-1.6,5.7-1.7c0.7,0,1.4,0.1,1.9-0.9c-0.3-0.6-0.5-1.4-0.9-2.1c-1.9-3.2-3.8-6.4-5.6-9.7c-1.7-3-3.3-5.9-4.8-9
		c-1.4-2.7-2.1-5.7-2.2-8.8c-0.1-1.9-0.2-3.7-0.4-5.6c-0.6-6,0.4-11.9,2-17.7C674.8,215.5,675.1,215.1,675.3,214.7L675.3,214.7z
		 M590.9,544.8c0.1-2.3,0.2-4.6,0.4-7.1c0.4,0.7,0.6,1.1,1.1,2c0.8-4.5,1.6-8.4,2.3-12.3c0.3-1.6,0.5-3.2,0.6-4.9
		c0.4-4.1,0.8-8.1,1.3-12.2c0.3-2.4,1.1-4.8,1.1-7.3c0.1-2.5,0.8-4.8,1.5-7.2c0.3-1,0.6-2,0.9-3c3.9-12,5.4-24.4,5.8-36.9
		c0-1.7-0.2-3.5-0.3-5.2c-0.2-3-0.4-6.1-0.4-9.1c0-1.6,0.4-3.2,0.9-4.8c0.3-1.1,0.9-2.2,2.1-2.6c1.1-0.4,1.4-1.3,1.2-2.3
		c-0.4-1.9,0.3-3.5,0.9-5.1c0.7-1.7,1.4-3.5,2.1-5.2c1.8-4.1,2.6-8.4,2.5-13c-0.1-8.9,1.3-17.7,3.4-26.4c1.8-7.6,4.6-15,7.7-22.2
		c1-2.4,1.8-4.8,2.4-7.3c0.8-3.4,1.9-6.7,2.9-10.1c0.1-0.4,0.5-0.8,0.1-1.1c-2.2,0.5-4.2,1.1-6.2,1.5c-4.4,0.9-8.8,0.9-13.3,0.8
		c-5.7-0.1-11.4-0.2-17.2-0.3c-5.1-0.1-10-1.1-14.6-3.2c-0.5-0.2-0.9-0.7-1.7-0.1c-0.1,2.2-0.1,4.5,0,6.8c0.3,4.4,0.5,8.9,0.7,13.3
		c0.1,2.9-0.1,5.8,0,8.8c0.1,12.4,0.3,24.8,1.6,37.1c0.4,3.5,0.8,7,1.2,10.4c0.4,3.8,0.6,7.7,0.2,11.5c-0.1,0.9-0.1,2-0.6,2.7
		c-0.9,1.3-1,2.8-1.3,4.3c-0.3,1.4-0.4,2.8-0.9,4.1c-1.3,3.8-1.9,7.7-2.5,11.6c-0.7,5-1.4,9.9-1,15c0.5,6.8,0.8,13.5,1.2,20.3
		c0.3,6,0.7,11.9,1,17.9c0.2,2.9,0.3,5.8,0.7,8.7c0.8,5.7,1.1,11.4,0.6,17.1c-0.3,2.8,0.2,5.5,0.7,8.2c2.1,0.3,4.1,0.5,6,0.8
		c1.9,0.3,3.2,1.2,3.7,3.2C589.8,543.3,589.9,544.3,590.9,544.8z M646.4,339.6c0.5,2,0.9,3.4,1.2,4.7c2.5,8.6,5,17.3,7.6,25.9
		c0.5,1.6,1,3.1,1.7,4.6c3.4,7.3,5.7,15.1,8,22.8c1.3,4.3,2.1,8.6,2.5,13.1c0.7,8.5,3.1,16.5,5.4,24.6c1.2,4.2,2.6,8.2,3.9,12.3
		c0.3,0.9,0.5,1.8,0.7,2.7c1.1,5.5,1.7,11.1,2.1,16.7c0.2,3.6,0.7,7.2,1.6,10.7c0.6,2.5,1.4,4.9,2.5,7.3c1.3,2.9,2.5,5.8,3.1,8.9
		c1,5.6,1.9,11.3,2.8,16.9c1.1,6.7,1.4,13.5,2.8,20.1c0.4,1.9,0.6,3.9,0.9,5.9c0.3,2.4,0.5,4.8,0.7,7.4c1.7-1,0.5-3.3,2.2-4.4
		c0.2,1,0.3,1.9,0.4,2.7c0.3-0.1,0.6-0.1,0.6-0.2c1-1.6,2.4-2.1,4.2-2c1,0,2.1-0.1,3.3-0.2c-0.5-3.9-0.2-7.6,0.1-11.3
		c0.3-5.6,0.7-11.2,0.8-16.8c0.2-6.8,0.8-13.5,1.5-20.3c0.5-5.2,0.9-10.5,1.2-15.7c0.4-8.2-0.3-16.3-1.4-24.5
		c-0.6-4.2-1.4-8.3-3.3-12.1c-0.9-1.9-1.5-3.9-2-6c-0.4-1.6-0.6-3.1-0.4-4.8c0.2-1.5-0.6-3.2-0.5-4.8c0-2.4-0.3-4.7-0.9-6.9
		c-0.4-1.8-1-3.6-1.5-5.4c-1.2-4.8-1.6-9.7-0.6-14.6c0.2-1.1,0.2-2.3,0.2-3.5c0.2-4.8,0.3-9.6,0.5-14.4c0.2-5.3,0.7-10.5,0.9-15.8
		c0.3-8.1-0.2-16.1-0.6-24.2c0-0.5,0.2-1.2-0.7-1.5c-2.7,2-5.8,3.3-9.2,3.7c-1.7,0.2-3.5,0.3-5.2,0.4c-1.3,0.1-2.6,0.1-3.8,0.4
		c-3.3,0.9-6.8,0.5-10,1.8c-0.3,0.1-0.7,0.1-1,0.1c-2.9-0.2-5.8-0.3-8.7-0.7C655.4,342.8,651.2,341.5,646.4,339.6z M718.1,562
		c0-1.6-0.6-1.9-1.6-1.9c-4.9,0.1-9.8,0.1-14.7,0.1c-0.3,0-0.8,0.1-1-0.1c-0.4-0.2-0.7-0.5-0.9-0.9c-0.1-0.2,0.2-0.8,0.4-0.9
		c1.1-0.4,2.1-0.9,3.3-1.1c4-0.5,7.9-0.3,11.9,0.2c0.4,0,0.8,0,1.5,0c-0.5-1.6-1.6-2.3-2.5-2.9c-8.3-0.4-7.9-0.2-15.4,1.8
		c-0.6-0.5-0.5-1-0.1-1.5c0.8-1,1.9-1.4,3-1.7c2.8-0.9,5.7-1.2,8.6-1.3c0.5,0,1-0.2,1.9-0.3c-2.4-2.7-1.8-6.3-4.1-8.9
		c-1.6,0.2-3.2,0.4-4.8,0.5c-1.6,0.1-3.2,0.1-4.9,0.1c-1.2,1.9-2.2,3.7-3.4,5.5c-0.5,0.8-0.9,1.7-1.6,2.2c-0.7,0.6-1.8,0.8-2.7,1.2
		c0.4,4.2,0.4,4.2-2.1,8.2c0,0.7,0,1.4,0,2c0.2,3.3,0.5,6.5,2.3,9.4c1,1.7,2.7,2.6,5,2.9c-0.3-1.2-1.1-2.2-1-3.7
		c2.5,1.5,1.2,4.5,2.9,6.2c0.1,0.1-0.1,0.7-0.1,1c-0.1,0.9-0.1,1.9-0.2,2.8c-0.1,1.8,0.6,3.2,1.9,4.3c1.2,0.9,2.3,1.9,3.5,2.9
		c0.4,0.3,0.8,0.4,1.3,0.5c4.8,0.9,9.7,1.9,14.6,0.8c2.4-0.5,4.8-0.7,7.4-1.7c-1.8-1-3.5-1-5.2-1.5c-1.2-0.4-2.3-0.3-3.4,0.1
		c-1.8,0.6-3.6,1.1-5.4,1.6c-0.6,0.1-1.2,0-2.4-0.1c0.7-0.7,0.9-1.1,1.3-1.2c1.2-0.5,2.4-0.8,3.6-1.3c0.6-0.2,1.5-0.3,1.9-0.8
		c1-1.3,2.2-1.1,3.5-0.9c0.8,0.1,1.6,0.2,2.4,0.3c0.7,0.1,1.4,0.3,2,0.5c0.7,0.2,1.5,0.4,2.4,0.7c0.6-2.8,0.6-5.3,0.7-7.9
		c0.1-1.4-0.3-2.5-1.2-3.5c-0.8-1-1.4-2.2-2.1-3.3c-1.6-2.6-3.5-4.9-5.6-6.9c-0.6,0-1-0.1-1.3,0c-4.4,1.1-8.8,0.6-13.3,0.7
		c-0.8,0-1.7-0.1-2-1c-0.3-0.7,0.5-1.5,1.7-1.9c0.3-0.1,0.7-0.1,1-0.2C709.6,560.7,713.7,560.2,718.1,562z M691.7,544.5
		c0,0.1-0.1,0.2-0.1,0.3c0,0,0.1,0.1,0.2,0.1c0-0.1,0.1-0.2,0.1-0.3C691.9,544.6,691.8,544.6,691.7,544.5z M692.5,546.5
		c-0.1,0.2-0.2,0.4-0.2,0.5c0,0.1,0.1,0.1,0.2,0.2c0.1-0.1,0.3-0.3,0.3-0.4C692.8,546.7,692.6,546.6,692.5,546.5z M591.6,547.8
		c-0.1-0.1-0.1-0.3-0.2-0.2c-0.2,0-0.4,0.1-0.5,0.2c0.1,0.1,0.1,0.2,0.2,0.2C591.2,547.9,591.4,547.9,591.6,547.8z"/>
	<path d="M638.2,151.6c-0.9,0.1-1.6-0.1-1.8-1.2c-0.1-1-0.2-2.1-0.4-3.2c-1.1,0.4-2,1-3.1,0.5c-0.5-0.2-1.1-0.4-1.1-1.3
		c0.7-0.2,1.4-0.5,2.2-0.8c1-1.9,1.5-3.8,0.8-6c-0.3-0.9-0.2-1.9-0.2-2.8c0-0.4,0.3-0.8,0.6-1.5c0.5,0.7,0.8,1,0.9,1.4
		c0.4,2.5,0.7,5.1,1.1,7.6c1.4,0.2,1.6,0.2,1.7-0.8c0.2-1.6,0.7-3.2,0.7-4.7c0.1-1.5-0.3-3-0.4-4.5c-0.1-1-0.1-1,0.9-2.2
		c1.5,1.7,0.8,3.8,1.3,5.6c0.5,1.9,0.5,3.9,0.6,5.8c0.7,0.8,1.5,0.6,2.5,0.2c0.7-1,0.6-2.3,0.2-3.5c-0.5-1.8-0.7-3.5-0.3-5.4
		c0.3-1.8-0.4-3.7-1.2-5.4c-0.7-1.5-1.4-2.9-3.1-3.6c-0.7-0.3-1.4-0.9-2-1.4c-5-4-9.7-8.4-14-13.2c-0.5-0.6-1.1-1.3-1.7-1.8
		c-5.2-4.8-10.5-9.6-15.8-14.4c-0.8-0.7-1.6-1.3-2.5-1.9c-5.9-4.4-11.9-8.8-17.3-13.7c-0.2-0.2-0.3-0.4-0.5-0.5
		c-4.7-2.7-8.2-6.9-11.9-10.7c-2.6-2.7-5.6-4.5-9.3-5.2c-2.6-0.5-5.2-1.5-7.8-2.1c-2-0.5-4.1-1-6.2-1.3c-2-0.3-3.7-1.3-5.5-2.2
		c-0.6-0.3-1.2-0.7-1.8-1.1c-1.3-0.9-2.6-0.9-3.9,0c-0.5,0.3-1,0.6-1.4,0.8c-0.7-0.3-0.7-0.8-0.4-1.2c1.5-2.1,4.4-2.7,6.4-1
		c1.8,1.4,3.8,2.2,6,2.5c6.4,0.8,12.5,3.1,18.6,4.8c2,0.6,3.5,1.8,4.8,3.3c3.1,3.7,6.5,7.1,10.5,9.7c1.4,0.9,2.6,2,3.9,3
		c5.9,4.6,11.8,9.2,17.6,13.9c3,2.4,5.7,5.2,8.5,7.9c2.1,2,4.2,4,6.2,6c1.1-0.4,1.9-0.9,1.8-1.8c-0.1-3,0.5-6,0.3-9
		c-0.1-1.1-0.3-2.1-1.1-2.8c-1.4-1.3-1.8-3.2-2.4-4.8c-1.1-3.1-1.9-6.2-2.9-9.5c-1.7-0.8-2.7-2.3-3.2-4.2c-0.4-1.3-0.8-2.7-1.3-4
		c-0.5-1.3-0.9-2.7-1.5-3.9c-0.7-1.4-1-2.9-1.2-4.4c-0.1-1.1,0.1-2.1,0.7-3c0.8-1.3,1.5-2.6,2.2-4c-0.7-6,0.2-11.8,1.5-17.7
		c0.1-0.6,0.2-1.2,0.2-1.7c-0.3-2.6,1.4-4.7,1.5-7.1c2-2.5,2.9-5.6,5.4-7.7c1.8-1.5,4-2.4,6.1-3.4c2.3-1,4.8-1.9,7.5-1.1
		c0.6-1,1.1-1.9,1.8-2.7c0.7-0.8,1.5-1.5,2.4-2.1c0.7-0.5,1.6-1,2.4-1.2c2.5-0.7,5.1-0.7,7.7-0.3c1.5,0.2,2.9,0.8,4.1,1.9
		c2.1,1.9,2.8,4.3,2.3,6.9c-0.2,1.2,0.1,2,1.1,2.7c0.7,0.5,1.3,1,1.9,1.5c4.8,3.9,6.7,9.2,7.1,15.1c0.3,4.5,0,9.1-0.2,13.6
		c-0.1,1.3,0,2.5,0.1,4.2c1-0.6,1.8-1.1,2.7-1.7c0.5,0.4,1.1,0.7,1.5,1.3c2.2,3.5,1.9,7.8-0.6,11.1c-0.3,0.5-0.8,0.9-0.9,1.5
		c-0.5,2.3-1.9,3.9-3.7,5.5c-0.5-0.2-1.2-0.3-1.9-0.6c-1,1.9-1.6,3.9-1.9,6c-0.3,1.9-0.8,3.6-1.6,5.4c-0.6,1.4-0.9,2.9-1.2,4.4
		c-0.2,1-0.4,2.1-1.1,2.9c-1.2,1.3-1.4,3-1.2,4.6c0.2,2.4,0.5,4.9,0.8,7.3c0.1,0.7,0.3,1.4,0.4,2.1c0.9,3.9,3.8,5.7,7.2,6.8
		c1.4,0.5,2.6,0,3.8-1c2.3-2.1,4.8-4.1,7.3-6c2.1-1.6,4.5-2.9,6.9-4c2.7-1.3,5.3-3,7.7-4.8c6.8-5,13.4-10.2,20.1-15.2
		c2.1-1.6,4.3-3.4,6.9-4.2c5.1-1.5,9.8-3.8,14.7-5.5c4.7-1.6,9.5-2.3,14.3-3.4c3.8-0.9,7.1-0.7,10.3,1.6c0.5,0.3,1.1,0.4,1.6,0.7
		c3.4,2.2,6.3,4.7,6.2,9.4c-0.1,3.3,0.3,6.5-0.4,9.8c-0.3,1.3-0.6,2.5-2,3.4c-0.2-0.7-0.4-1.3-0.6-1.9c-0.2,0-0.5,0-0.6,0.2
		c-1.2,1.6-2.3,3.2-4.1,4.3c-0.5,0.3-0.9,1.1-1.2,1.7c-2.3,4.1-5.4,7.4-9.1,10.1c-7.9,5.7-15.9,11.2-23.8,16.7
		c-3.8,2.7-7.8,5.2-11.7,7.7c-2.3,1.4-4.6,2.8-7,4c-1.3,0.6-2.4,1.5-3.2,2.6c-1.9,2.4-3.5,4.9-4.3,8c-0.7,2.4-1.6,4.6-2.4,6.9
		c-0.3,0.9-0.5,1.8-0.1,2.7c0.5,1,0.3,2,0.1,3.1c-0.2,0.9-0.4,1.8-0.6,2.7c-1.7,6.6-3.4,13.1-5.1,19.7c-1.4,5.6-3.2,11-5.4,16.3
		c-0.3,0.7-0.7,1.5-0.8,2.3c-0.2,2.3-1.2,4.2-2,6.3c-1.1,2.6-1.8,5.3-2.8,7.9c-0.1,0.4-0.4,0.8-0.6,1.2l0.1,0
		c-0.1-0.7-0.2-1.3-0.2-1.9c-5.6,1.1-10.9,2.2-16.3,3.2c-6.4,1.2-12.8,1-19.2,0.4c-0.9-0.1-1.8-0.4-3.4-0.8c2.9-0.4,4.9-0.7,7-0.9
		c4.2-0.3,8.4-0.5,12.6-0.8c0.9-0.1,1.9-0.2,2.8-0.4c4.8-1.1,9.5-2.3,14.3-3.5c0.4-0.1,0.8-0.4,1.3-0.7c1-3.7,2-7.5,3-11.2
		c0.7-2.4,1.4-4.7,2.2-7c0-0.1,0-0.2,0-0.3c0-0.1-0.1-0.2-0.3-0.3c-3.8,3.8-7.9,7-13.9,5.8c-1.7,1.2-3.4,2.3-5.5,2.1
		c-1.5-0.2-3,0.2-4.5,0.5c-2.7,0.6-5.4,1.1-8.3,1c-4-0.1-7.9-1.1-11.8-1.3c-1.1-0.1-2.2-0.6-3.3-1.1c-0.7-0.3-1.4-0.8-2-1.1
		c-5.9,1.3-9.6,1-11.9-1.2c1.5-0.4,2.8-0.7,4.2-1c1.4-0.3,3,0.2,4.3-0.4c0-0.3,0-0.5,0-0.6c-1.1-1.8-2.2-3.6-3.4-5.3
		c-1.3-1.9-0.6-4.4-2.1-6.2c0-1.4-0.1-2.8,0.1-4.2c0.4-2.3,0.9-4.5,1.4-6.8c-2.7-1.4-2.7-1.4-4.2-3.7c-0.6-1-1.2-2-1.8-3
		c-1.3-2.3-2.4-4.8-3.9-7c-2.8-4.1-2.9-8.5-2-13.1c0.6-3.2,2.4-5.8,4.8-8c0.8-0.8,2-1.2,2.3-2.5c-0.8-0.9-1.6-1.8-2.4-2.6
		c-0.7-0.9-1.5-1.7-2.6-3.1c-1.1,3.3-2.7,5.9-3.5,8.8c-0.6,2.3-1.6,4.4-2.9,6.3c-2.2,3.1-4.6,6.2-6.9,9.3c-1.4,1.9-2.9,3.7-4.3,5.5
		c-0.8,1-1.5,2-2.8,2.6c0.4-3.3,1-5,2.5-6.8c1-1.3,2.2-2.4,3.2-3.7c1-1.2,2.2-2.4,2.9-4c-0.7-1.8-1.6-3.4-2.1-5.2
		c-0.8-3.1-2.1-5.9-3.4-8.8c-0.6-1.1-1-2.4-1.3-3.6c-0.1-0.5,0.1-1,0.2-1.7c1.8,0.6,2.7,1.8,3.5,3.1c1.8,3.2,3.3,6.5,3.8,10.1
		c0.2,1.3,0.2,2.6,1.1,3.6c3-3.1,4.2-5.6,4.9-9.7c0.2-1.1,0.6-2.3,1-3.4c0.5-1.4,1-2.9,1.6-4.3c1.1-2.5,0.5-4.5-1.4-6.3
		c-1.9-1.8-3.8-3.5-5.5-5.4c-1.2-1.2-2.5-2-4.1-2.6c-5.3-1.9-10.5-3.9-15.8-5.8c-3.5-1.3-7-2.7-10.1-4.9c-1.8-1.3-3.9-2.1-6-2.9
		c-5.2-1.8-10.3-3.7-15.3-6.2c-4.2-2.1-8-4.8-10.8-8.7c-0.2-0.3-0.5-0.5-0.8-0.7l0.1,0.1c-0.3-0.5-0.5-1-0.8-1.5l0.1,0.1
		c0-0.5,0-1,0-1.5l-0.1,0.1c0.4,0.4,0.9,0.7,1.2,1.1c2.3,3.2,5.3,5.6,8.7,7.4c3.4,1.7,6.9,3.3,10.4,4.8c4.4,1.9,8.8,3.6,13.3,5.4
		c0.8,0.3,1.6,0.5,2.2,1c2.8,2.1,6,3,9.2,4.2c4.6,1.7,9.2,3.2,13.6,5.5c0.3,0.2,0.7,0.5,0.9,0.4c2.8-0.9,4.1,1.5,6,2.7
		c0.4,0.2,0.8,0.3,1.2,0.5l-0.1-0.1c0,0.8,0.6,1.2,1.1,1.6c1.3,1.1,2.1,2.3,2.8,3.9c2.5,5.8,6.2,10.6,11.3,14.4
		c0.8,0.6,1.6,1.4,2.3,2.1c1,1,1.1,2,0.2,3.1c1.1,3.1,2.5,6,4.2,8.7c0.8-0.1,1-0.5,0.9-1c-0.2-3.2-0.2-6.5-1.1-9.7
		c-0.1-0.5,0-1.1,0-1.6c0.8-0.3,1.1,0.1,1.3,0.5c1.5,3.8,2.2,7.6,1.2,11.6c-0.4,1.6,0,2.6,1.2,3.6c1.6,1.3,3.4,1.9,5.5,1.8
		C637.6,152,637.8,151.7,638.2,151.6c0.4,0,0.9,0.1,1.3,0c3.9-0.8,7.7-1.8,11.3-3.3c0.3-0.1,0.4-0.5,0.7-0.9c-0.8-1-1.6-2-2.4-3
		c-1.4,0.7-2.6,1.7-3.8,1.9c-1.4,0.2-2.9-0.4-4.3-0.6c-1,0.5-1.9,0.9-2.8,1.3C638.2,148.6,638.2,150.1,638.2,151.6z M654.3,25.3
		c-0.6,0.3-0.8,0.8-0.7,1.4c-0.7-0.1-0.9,0.5-1.2,1c-0.4,0.6-0.7,1.5-1.8,1.6c-0.1-0.4-0.3-0.7-0.4-1.1c1.7-1.4,2.6-3.4,3.9-5.1
		c0.4-0.6,0.2-1-1-1.8c-0.5,1-0.9,2.1-1.5,3.1c-0.2,0.4-0.6,0.6-0.9,0.9c0-0.7,0-1.4,0-2.2c0.5-0.1,0.8-0.3,0.3-0.9
		c-0.1,0.4-0.1,0.7-0.2,1c-1.3,1.5-2.6,2.9-2.8,4.9c-0.4,0.1-0.8,0.3-1.4,0.5c0.3-1,0.5-1.8,0.7-2.7c0.7-0.3,0.8-0.8,0.7-1.5
		c1.8-1,2.3-2.7,2.4-4.6c0-0.2-0.5-0.4-0.9-0.7c-1,1.7-1.3,3.5-1.4,5.3c-0.8,0.2-0.8,0.8-0.7,1.5c-1.2,0.2-1.4,1.4-2,2.2
		c-1.1,1.4-2.2,2.7-4.1,3.1c-0.6-0.3-1.2-0.5-1.8-0.9c0.1-2.2,0.2-4.3,0.3-6.4c0.1-0.7,0.4-1.3,0.6-2c0-0.1,0.2-0.2,0.4-0.3
		c0.1,0.5,0.3,0.9,0.4,1.5c0.4-0.4,0.7-0.7,1.3-1.4c0,2,0,3.8,0,5.5c-0.1,0.1-0.2,0.1-0.2,0.2c0.1-0.1,0.1-0.2,0.2-0.3
		c0.4-0.8,0.9-1.6,1.3-2.4c0.4-0.8,0.3-1.9,1.6-2.5c-0.2,1.4-0.4,2.6-0.7,4.2c2.3-3.2,3.5-6.4,2.7-7.9c-0.7-0.1-1.6-0.3-2.2-0.4
		c-1.3,0.7-0.7,2.3-2.2,2.7c-0.1-0.5-0.1-0.9-0.2-1.3c-0.1-0.4-0.2-0.9-0.4-1.4c-1.1-0.2-2.1-0.3-3-0.4c-0.2,0.4-0.4,0.6-0.4,0.8
		c0.4,1.9,0.1,3.7-0.1,5.6c-0.1,1.3-0.4,2.5-0.5,3.8c-0.1,1.3,0,2.5,0,3.9c-0.9-0.3-1.7-0.6-2.5-0.8c-1-0.2-2-0.2-3-0.2
		c-1.9-2.8-3-5.8-4-8.1c0.1-1.6,0.2-2.6,0.1-3.6c0-0.7-0.7-1.1-1.2-0.9c-0.3,0.2-0.8,0.6-0.8,1c0,1.7,0.3,3.2,1,4.7
		c0.3,0.5,0.9,1.1,0.8,1.5c-0.6,1.9,0.9,3,1.5,4.4c0.1,0.1-0.1,0.4-0.3,0.7c-0.6-0.8-1.1-1.7-1.8-2.1c-1.9-1.2-2.2-3.2-2.5-5.1
		c-0.1-0.7,0-1.4-0.1-2.1c-0.1-0.5-0.4-1-0.7-1.6c-0.6,0.4-0.9,0.7-1.3,1c-0.5,0.4-0.9,0.7-1.4,1.1c-1.2,0.9-1.5,1.7-0.9,2.9
		c0.3,0.7,1,1.2,1.5,1.8c0.1,0,0.1,0.1,0.2,0.1c-0.1,0-0.2,0-0.3,0c0.5-1.2-0.4-2.6,0.6-4.3c0.6,2.4,1.1,4.3,1.5,6
		c-0.5,0.7-0.9,1.2-1.2,1.6c-1.3-1.5-2.5-2.7-3.6-3.9c0-0.2,0-0.4,0-0.7c0-0.1-0.1-0.2-0.1-0.3c-0.1,0.1-0.3,0.3-0.2,0.4
		c0.1,0.2,0.3,0.3,0.4,0.5c-0.3,1.9,1.4,3,2,4.5c-0.3,0.2-0.4,0.4-0.4,0.3c-1.9-0.5-2.3-2.7-4.2-3.8c-0.1,1.2-0.1,2.2-0.2,2.9
		c-0.6,0.8-1.1,1.4-1.6,2c0.6,1,1.1,1.8,1.7,2.9c-0.8,0-1.3,0-1.9,0c0.2,1.3,0.3,2.5,0.5,3.7l0.1-0.1c-0.4-0.1-0.9-0.2-1.3-0.3
		c-0.5,1.2,0.4,2.2,0.6,3.3c0.3,1.2,0.5,2.4,0.8,3.7c0.5-0.4,0.8-0.8,1.2-1.2c0.5,1.5,0.6,2.9,0.5,4.2c-0.2,0.3-0.3,0.5-0.5,0.7
		c-1.7,1.1-2.8,2.4-2.3,4.6c-0.8,3.5-0.3,7-0.1,10.5c0.1,2.2,0.5,4.2,1.4,6.1c1.2,2.7,1.8,5.5,2.4,8.4c0.3,1.2,0.6,2.5,1.1,3.7
		c0.7,1.7,1.7,3.3,2.5,5c1.4,3,3.4,5.3,6.4,6.7c1.1,0.5,2,1.2,3,1.8c2.2,1.3,4.5,2,7,1.8c1.7-0.1,3.4-0.7,5.1-1.1
		c3.8-1,6.7-3.4,9-6.4c3.6-4.7,5.4-10.3,6.8-16c0.6-2.7,1.3-5.5,2.4-8c1.3-3,1.2-6,0.5-8.9c-0.4-1.6-0.4-3.2-0.5-4.8
		c-0.2-1.8-0.2-3.4,0.3-5.1c0.5-0.7,1.3-1.2,1.1-2.3c-1.3,0.6-1.1,1.5-1,2.4c-2.1-0.4-2.7-1.4-2.1-3c0.4-0.9,0.8-1.9,1.2-2.8
		c1.2-0.5,1.2-0.5,1-1.7c-0.9,0.3-1.2,0.9-0.9,1.8c-0.4,0-0.8-0.1-1.2-0.1c-0.4-1.4-0.1-2.6,0.5-3.8c0.5-1.1,1-2.1,1.3-3.3
		c0.4-1.4,0.3-2.7-1-4c-0.4,2.3-0.3,4.5-1.4,6.3c-0.2-0.8-0.1-1.9-0.6-2.3c-1.4-1.1-0.8-2.6-1.1-3.9c0-0.1-0.3-0.2-0.5-0.3
		c-0.8,0.2-0.9,1.7-2.3,1.3c0.6-1.1,1.1-2.1,1.7-3.1c0.2-0.3,0.7-0.5,0.9-0.7c1.1,0.4,0.9,1.7,1.8,2c0.5-1.1,0.6-2,0.1-2.8
		c-0.9-1.4-2-2.6-3.4-3.5c-0.7-0.4-1.1,0-1.3,1.3C654.8,24.8,654.5,25.1,654.3,25.3z M662,43.5c0.2-0.1,0.4-0.3,0.4-0.5
		c0-0.1-0.1-0.3-0.2-0.4c0,0.1-0.1,0.2-0.1,0.3C662.1,43.1,662.1,43.3,662,43.5l-0.1,0.1L662,43.5z M665.5,66.7
		c-1.3,0.4-2.5,0.8-3.1,2.3c-0.4,1.1-0.3,1.2,1.4,1.9C664.2,69.4,666,68.5,665.5,66.7c0.9-0.8,1-1.9,1.4-2.9c0.7-0.5,1.1-1.1,1.2-2
		c0.2-1.7,0.1-2.4-0.7-4.1c-0.8,1-1.5,1.8-2.2,2.7c0.7,1.2,1.9,2,1.8,3.4c-0.8,0-1.2,0.4-1.3,1.2C665.6,65.6,665.6,66.2,665.5,66.7z
		 M648.6,16.1c0.6,0.3,1.2,0.5,1.9,0.8c0.7,0.3,1.4,0.6,2.3,0.9c0-0.5,0.1-0.8,0-1.1c-0.2-0.4-0.5-0.7-0.7-1.2
		C650.8,15.8,649.7,16,648.6,16.1c0.9-0.5,1.9-1.1,2.8-1.8c-1-2-3-2-4.7-2.5c-1.7-0.5-3.5-0.6-5.1,0c-1.6,0.6-3.1,1.4-4.3,3.2
		c0.9,0.2,1.4,0.3,1.9,0.3c0.7,0,1.4,0,1.9,0c1.4-1.1,2.1-3.1,4.5-2.6c-0.8,0.7-1.5,1.3-2.1,1.9c-0.3,0.3-0.6,0.7-0.2,1
		c1.1-0.5,2.1-1,3.2-1.5l0-0.1c-0.5,0.5-1.3,0.9-1.2,2C646.5,16.6,647.5,16.8,648.6,16.1z M687.8,163.3c1.2-4.5,2.7-8.7,3.5-13
		c0.7-3.9,2-7.5,4.1-10.7c2.2-3.5,4.9-6.4,8.8-8.3c3.6-1.7,7.2-3.5,10-6.3c0.3-0.3,0.8-0.5,1.1-0.8c8.7-6,17.4-11.9,26-17.9
		c1.4-1,2.8-2.1,4.2-3.2c3.7-3,6.7-6.5,8.6-10.9c0.1-0.3,0.4-0.5,0.6-0.9c0.5,0.3,1,0.6,1.6,0.9c0.5-0.7,1-1.5,1.6-2.2
		c0.6-0.7,1.3-1.2,2.1-1.8c0.3-3.8,0.5-7.6,0.8-11.2c-0.4-0.6-0.5-0.9-0.7-1.2c-1.4-2-3.7-2.7-5.6-4c-2.6-1.8-5.3-3-8.4-1.6
		c-0.4,0.2-0.9,0.1-1.4,0.2c-1,0.2-2,0.5-3,0.8c-1.9,0.6-3.7,1.3-5.7,1.8c-6,1.6-12.1,2.4-17.9,4.8c-1,0.4-1.9,0.8-2.7,1.5
		c-3.9,3.2-7.7,6.5-11.7,9.5c-4.1,3.1-8.5,5.9-12.7,8.7c-2.8,1.9-5.7,3.6-8.9,4.9c-0.5,0.2-1.1,0.5-1.5,0.8c-4.2,3-8.5,5.8-12.4,9.2
		c-3,2.6-6.4,4.6-9.8,6.6c-1.5,0.9-3.1,1.7-4.6,2.6c-1.6,1-3.1,2-4.4,2.8c-0.7,1.7-1.3,2.9-1.8,4.2c-0.9,2.4-1.6,4.9-1.1,7.5
		c0.4,2.3,0.8,4.6,1.2,7c0.6,0,1.3-0.1,2-0.1c0.8-2.8,0.9-5.7,2.5-8c1.3,0.3,1.4,1,1.2,1.9c-0.5,2.1-1,4.1-1.4,6.1
		c-0.4,2-0.1,2.5,1.8,3.1c0.5,0.1,1.1,0.1,1.7,0.1c0.4-1.5,0.7-2.9,1-4.2c0.6-2.6,1.1-5.3,0-7.9c-0.2-0.4,0.1-1.1,0.2-2.1
		c1.7,1.7,2,3.7,3.5,5c-0.5,0.4-0.9,0.5-1,0.8c-0.4,2-0.9,4.1-1.1,6.1c-0.1,0.6,0.5,1.3,0.5,1.9c0,0.6-0.4,1.2-0.8,2.2
		c1-0.2,1.3,0.8,2.3,0.4c0.9-2.6,2.2-5.2,2.1-8.3c0-0.7,0.1-1.4,0.3-2c0.1-0.2,0.5-0.5,0.8-0.5c0.3,0,0.7,0.4,0.7,0.6
		c0,1,0.1,2.1-0.1,3.1c-0.6,2.6-1.3,5.2-2,7.8c-0.4,1.4,0,2.2,1.2,2.8c1.9-3,3.8-5.9,5.6-8.9c0.2-0.3,0.4-0.7,0.3-0.9
		c-0.5-1.3,0.4-2,1.1-2.7c1.6-1.7,3.3-3.3,4.9-5c2.7-2.9,5.3-5.9,7.9-8.9c1-1.1,2-2.4,1.8-4c-0.1-0.9,0.5-1.5,1.1-2.1
		c0.4-0.4,0.8-0.7,1.2-1.1c-0.4-0.6-1.3-0.9-1-1.8c2.4-1.8,5.1-3,7.1-3.2c-0.1,0.5-0.3,1.1-0.4,1.8c0.7-0.3,1.2-0.5,1.7-0.7
		c3.7-1.6,7.2-3.3,11-4.6c7.3-2.6,14.6-4.9,21.9-7.3c1.1-0.3,2.1-0.9,3.4-0.1c0.4,0.3,1.3-0.1,2-0.3c2-0.7,4-1.5,6-2.1
		c2-0.6,4.1-1,6.1-1.5c0.4-0.1,0.9-0.3,1.1,0.6c-0.6,0.4-1.2,0.9-1.9,1.2c-3,1.2-6.1,2.5-9.1,3.5c-3.2,1.1-6.5,1.9-9.9,2.1
		c-0.9,0-1.8,0.5-2.6,0.8c-2.9,1.1-5.8,2.4-8.8,3.4c-6.2,2.1-12.4,4.1-18.5,6.7c-2.8,1.2-5.5,2.4-8,4c-0.4,3.1-0.6,3.9-2.5,6.2
		c-2,2.6-4.2,5-6.3,7.5c-0.7,0.9-1.8,1.5-2.1,2.8c1.5,4.7,2.7,9.5,5.4,13.9c0.3-0.3,0.5-0.5,0.6-0.7c1.1-3.4,2.2-6.9,3.4-10.3
		c0.8-2.4,1.8-4.8,1.9-7.4c0-0.3,0.1-0.7,0.3-1c0.2-0.3,0.6-0.6,0.8-0.6c0.4,0,1,0.2,1.2,0.6c0.3,0.6,0.5,1.3,0.4,2
		c-0.1,1.4-0.3,2.8-0.8,4.1c-1.7,5.5-3.8,10.8-6.9,15.8c0.4,1.1,1,2.3,1.2,3.6C683.9,160,685.6,161.6,687.8,163.3z M619.2,135.4
		c-3.2,2.3-5.8,5-6.6,8.9c-0.4,1.7-0.4,3.5-0.5,5.2c-0.2,1.9,0.4,3.7,1.4,5.3c1.6,2.7,3.6,5.1,5.9,7.4c1.2,1.2,2.4,2.3,3.3,3.6
		c1.8,2.5,2.8,5.3,1.9,8.5c-0.6,2-1.1,4.1-1.6,6.2c0.9,0.7,1.2,1.7,1.1,2.8c-0.1,1.4,0.5,2.5,1.4,3.5c1.3,1.4,2.4,2.8,3.2,4.6
		c1,2.1,2.8,3.4,5,4.1c6.7,2.3,13.5,2.5,20.4,0.9c1.4-0.3,2.7-0.5,4.1-0.7c2.5-0.3,4.8-1,6.9-2.3c0.7-0.4,1.5-1,1.4-1.9
		c-0.1-2.1,1-3.8,1.7-5.6c1.6-3.9,1.4-7.5-1.3-10.8c-1.5-1.8-1.3-3.2,0.2-5c2.2-2.7,4.4-5.4,6.5-8.2c3.6-5,4.3-10.5,2.4-16.3
		c-0.3-0.7-0.7-1.5-1.2-2.1c-0.7-0.8-1.6-1.6-2.5-2.4c-0.5,0.8-1,1.4-1.5,2.1c-0.9,1.5-1.9,3-2.8,4.5c-0.7,1.1-1.2,2.2-0.9,3.6
		c0.2,1-0.2,2.1-0.8,3c-0.9,1.5-2.1,2.8-3.5,3.9c-1.8,1.4-4,1.4-6,1.6c-1.4,0.2-2.1-1.3-3.2-2c-0.2-0.1-0.4-0.2-0.7-0.3
		c-1.5-0.1-3.2-0.2-4.8-0.2c-2.7-0.1-5.4,0.1-8,0.9c-2.2,0.7-4.3,1.7-5.4,4.1c-0.5,1.1-1.2,1.3-2.3,1.1c-1.4-0.3-2.7-1-3.7-2
		c-3.8-3.9-5.8-8.4-5.3-13.9c1-2.3,0.3-4.3-0.7-6.3c-0.4-0.8-0.6-1.8-0.8-2.7C621.6,136.9,620.8,136,619.2,135.4z M644.6,122.3
		c0.7-0.5,0.9-0.7,1.1-0.7c2.8-0.1,5.1-1.3,7.4-2.9c1.7-1.2,3.5-2.3,5.3-3.4c1-0.6,1.9-1.3,2.9-1.9c-0.6-1.3-1.9-1.6-2.9-2.1
		c-1.4-0.7-2.4-1.8-3.3-3.1c-0.9-1.4-1.7-2.8-1.9-4.5c-0.1-0.5-0.3-1.1-0.6-2.1c-0.4,1.4-0.7,2.3-1,3.1c-0.3,0.9-0.8,1.8-1.2,2.7
		c0.3-2.7,0.1-5.6,2.3-7.9c-1.3-1.2-1.2-2.9-1.4-4.8c-2.2,1.2-4.4,2.1-6.3,3.3c-3.6,2.3-7.3,2-11,0.5c-2.4-1-4.7-2-6.8-3.4
		c-0.4-0.2-0.9-0.3-1.5-0.5c-0.2,2.6-0.7,4.9-0.5,7.4c0.2,2.7,1.3,5.4,0.6,8.2c3.8,3.4,7.3,7,11.2,10c0.4-0.3,0.7-0.4,1.1-0.6
		c0.6,1,1.1,2.1,1.9,2.9c1.7,1.7,3.6,3.3,5.4,5c0.1,0.1,0.4,0,0.7,0c0.2-0.3,0.3-0.5,0.5-0.8c-0.5-0.5-1-0.9-1.6-1.5
		c0.8-0.8,1.5-1.6,2.2-2.3c0.1-0.1,0.1-0.4,0.1-0.6C646.5,122.3,645.8,122.3,644.6,122.3z M686.8,167.8c-0.5-0.5-0.7-1-1.1-1.2
		c-2.6-2-3.9-4.8-5.2-7.7c-0.3-0.6-0.6-1.3-0.9-1.9c-0.3-0.7-0.7-1.4-1.4-2.7c-1.3,7.4-5.6,12.4-10,17.1c2.2,3.6,2.6,4.9,2.8,9.1
		c0.1,1,0.2,2.1,0.4,3.1c0.7,3,0.1,5.5-1.9,7.8c-0.4,0.5-1.1,0.8-0.9,1.9c5.6-1.7,8.9-5.9,12-10.4c1.5,0.4,0.3,2,1.4,2.6
		c1.7-1.8,2.5-3.9,2.2-6.3c-0.2-1.4,0.1-2.7,0.5-4.1C685.7,172.7,686.2,170.2,686.8,167.8z M633.3,160.1c0.4-0.3,0.7-0.5,0.9-0.7
		c1.7-2.2,4-3.5,6.6-4.4c3.4-1.3,7-1.6,10.6-1.9c2.5-0.2,4.6,0.6,6.2,2.6c0.5,0.6,0.9,1.4,2.1,1.3c0.7-0.7,1.4-1.5,2.1-2.3
		c-0.8-1.5-1.6-2.8-2.3-4.2c-2.1,1.4-3.4-0.1-4.8-1.1c-1.4,0.5-2.7,1.1-4,1.5c-3,0.9-6,1.9-9.1,2.6c-1.7,0.4-3.4,0.6-4.7,1.8
		c-5-1-7.5-5.2-11.1-8c-0.7,2.5,0.2,4.3,1.1,6.2C628.3,156.4,630.2,158.8,633.3,160.1z M633.4,18.4c-1-0.3-1.5-0.1-1.7,0.5
		c-1.3,4.2,0,7.7,3.1,11.2c0-2,0.2-3.6,0-5.2C634.5,22.7,633.9,20.6,633.4,18.4z M612.6,65.9c0.1-1.5,0.2-2.5,0.2-3.5
		c0-0.9-0.5-1.7-1.5-1.9C610.7,62.4,610.7,64.1,612.6,65.9z M635,21.2c1.5-1.4,1.5-1.4,1.8-3.4c-1.3,0-1.4,0-1.5,0.4
		C635.1,19.2,634.6,20.1,635,21.2z M613.8,45.8c-0.1,0.7-0.1,1.3-0.2,1.9c0.8,0.2,1.4,0.8,2.2,0.4C615.6,46.9,614.9,46.3,613.8,45.8
		z M614.7,70.8c0,1.8,0,1.8,1,4.3C616.1,73.3,615.5,72,614.7,70.8z M665.5,57.1c0.7-0.3,1.4-0.6,1.8-1.4
		C666,55.6,665.9,56.6,665.5,57.1z M637.8,22.8c-0.1-0.3-0.2-0.5-0.3-0.7c-0.1-0.2-0.3-0.3-0.5-0.4c-0.1,0.2-0.2,0.4-0.2,0.6
		c0,0.2,0,0.5,0,0.7c0.1,0.2,0.2,0.3,0.4,0.4C637.5,23.2,637.7,23,637.8,22.8z M612.3,58.1c0.1,0.2,0.1,0.5,0.2,0.6
		c0.1,0.1,0.4-0.1,0.6-0.1c-0.2-0.2-0.4-0.5-0.6-0.7C612.4,57.9,612.4,58,612.3,58.1z"/>
	<path d="M582.5,564.2c-2.1-0.2-4.1-0.3-6.3-0.5c2.2,1.6,2.2,1.6,2.8,3.2c-3.5,0.3-7,0.4-10.4,0.1c-0.8-0.1-1.5-0.5-2.2-0.9
		c-0.7-0.4-0.6-1.7,0.1-2.1c0.5-0.2,1.1-0.5,1.6-0.5c1.5-0.1,3,0,4.6-0.3c-1.3-0.4-2.6-0.7-3.9-1.2c-0.4-0.1-0.9-0.7-0.8-1
		c0.1-0.5,0.5-1.1,0.9-1.3c0.5-0.3,1.1-0.4,1.7-0.3c2.7,0.3,5.3,0.5,8,1c1.1,0.2,2.1,0.9,3.1,1.5C582.4,562.3,582.9,563,582.5,564.2
		z"/>
	<path d="M584.6,561.7c-3.2-2.1-6.7-2.4-10.2-3c-1.3-0.2-2.5-0.3-3.6-1.1c-0.2-0.2-0.4-0.6-0.4-0.9c0-0.3,0.3-0.6,0.6-0.8
		c0.3-0.2,0.7-0.2,1-0.2c2.2,0,4.4,0,6.6,0.3c1.5,0.2,2.9,0.8,4.2,1.5C584.3,558.3,585,559.7,584.6,561.7z"/>
	<path d="M555.3,586.1c0-0.6,0-1.1,0-1.8c3.1-1.1,6-1.9,9.2-0.7c0.3,0.1,0.7,0.2,1,0.3c1.9,0.2,3.3,1.1,4.1,2.8
		c0.2,0.5,0.6,0.9,0.9,1.2c-0.3,0.7-0.7,0.9-1.2,0.7c-1-0.5-2.1-1-3-1.7c-2.2-1.6-4.7-2-7.3-1.4
		C557.8,585.7,556.5,585.8,555.3,586.1L555.3,586.1z"/>
	<path d="M574.8,570.4c-3.5,0.9-6.8,1-10.2,0.5c-0.4-0.1-0.9-0.3-1.3-0.5c-0.5-0.2-0.5-1.2,0-1.5c0.3-0.2,0.6-0.4,0.9-0.5
		c3.4-0.7,6.7-0.5,9.9,0.9c0.2,0.1,0.4,0.3,0.5,0.5C574.7,569.8,574.7,569.9,574.8,570.4z"/>
	<path d="M271.3,485c-2.2-2.4-2.1-5.4-3-8c0.9-0.7,1.7-0.6,2.4-0.3c1.2,0.5,2,1.5,2.6,2.7c0.5,1.1,0.8,2.2,0.4,3.4
		C273.3,483.8,272.8,484.7,271.3,485z"/>
	<path d="M606.6,113.1c-0.8-1-1.5-1.9-2.5-3.1c0.7-0.2,1.1-0.5,1.4-0.4c1.8,0.5,3.3,1.5,4.7,2.8c0.2,0.2,0.2,0.7,0.1,0.9
		c-0.1,0.2-0.6,0.5-0.9,0.4c-1-0.2-2-0.5-3-0.8L606.6,113.1z"/>
	<path d="M569.1,572.9c0,0.3,0,0.4-0.1,0.5c-1.5,1.2-3.1,1.3-4.7,0.6c-0.3-0.1-0.6-0.6-0.5-0.8c0.1-0.4,0.5-0.9,0.8-0.9
		C566.1,572,567.6,572.4,569.1,572.9z"/>
	<path d="M555.1,64.1c-2.2-0.7-3.1-1.5-3.7-2.6c-0.1-0.2-0.1-0.7,0-0.9c0.1-0.2,0.6-0.3,0.9-0.2C553.5,61.1,554.2,62.2,555.1,64.1z"
		/>
	<path d="M274.9,472.8c1.6,0.2,1.8,1.4,2.3,2.8c-1.4,0.5-1.9-0.6-2.5-1.3C274.2,473.8,274.4,473.2,274.9,472.8z"/>
	<path d="M629.7,128.9c0.3,0,0.4,0,0.5,0c1.1,0.7,1.9,1.6,1.6,3.1c0,0.1-0.2,0.1-0.3,0.2c-0.1,0-0.2,0-0.3,0
		C630.2,131.4,629.8,130.3,629.7,128.9z"/>
	<path d="M246.5,471.3c1,1.5,0.2,2.6-1,4.2C245.2,473.5,245.8,472.4,246.5,471.3z"/>
	<path d="M271.5,492c-0.9-0.8-1.4-1.6-0.7-2.6c1.1,0,1.4,0.7,1.4,1.6C272.2,491.4,271.8,491.7,271.5,492z"/>
	<path d="M601.7,107.8c1.4-0.7,1.9-0.2,2.3,0.6C603.2,109.1,602.7,108.3,601.7,107.8z"/>
	<path d="M627.5,126.2c-0.2,0.3-0.3,0.5-0.4,0.7c-0.3-0.2-0.6-0.4-0.8-0.6c-0.1-0.1,0.1-0.4,0.1-0.6
		C626.8,125.9,627.1,126.1,627.5,126.2z"/>
	<path d="M243.7,478.7c0.1-0.4,0.2-0.8,0.3-1.2c0,0,0.3-0.1,0.3-0.1c0.1,0.1,0.3,0.3,0.3,0.5C244.5,478.4,244.2,478.7,243.7,478.7
		L243.7,478.7z"/>
	<path d="M558.7,66.2c-0.3,0.1-0.5,0.3-0.6,0.3c-0.2-0.2-0.4-0.4-0.5-0.6c0,0,0.2-0.2,0.2-0.2C558.1,65.8,558.4,66,558.7,66.2z"/>
	<path d="M562.8,68.4c-0.2,0.1-0.5,0.2-0.6,0.1c-0.2-0.1-0.2-0.4-0.3-0.5c0.2,0,0.4-0.2,0.5-0.1C562.5,67.9,562.6,68.2,562.8,68.4z"
		/>
	<path d="M269.5,495.3c-0.1,0-0.2-0.1-0.2-0.1c0.1-0.1,0.2-0.2,0.3-0.2c0,0,0.1,0.1,0.2,0.2C269.7,495.2,269.6,495.2,269.5,495.3z"
		/>
	<path d="M600,106.6c0,0.1-0.1,0.2-0.1,0.3c-0.1-0.1-0.2-0.2-0.3-0.3c0,0,0.1-0.2,0.2-0.2C599.9,106.4,599.9,106.5,600,106.6z"/>
	<path d="M539.2,80c0.2-0.4,0.5-0.4,0.7,0l0.1-0.1C539.6,79.9,539.4,79.9,539.2,80L539.2,80z"/>
	<polygon points="243.6,478.6 243.5,478.8 243.7,478.7 	"/>
	<path d="M260.8,243.9c2.2-0.2,3.2-2.5,5.2-3c0.6,0.5,0.3,1,0.1,1.4c-1.4,2.3-3.2,4-6.2,3.4c-0.6-0.1-1.2,0.1-1.7,0.1
		c-1.2,0-2.3-0.5-3.2-1.2c-0.4-0.4-0.8-0.8-0.6-1.5c0.3-0.6,0.9-0.8,1.4-0.6C257.5,242.8,259.2,243.4,260.8,243.9z"/>
	<path d="M251.2,241.2c-3.7-0.9-9.5-3-11.8-4.3c1.7-0.3,1.7-0.3,3.7,0.3c1.3,0.4,2.7,0.9,4,1.4C248.4,239.2,249.8,239.5,251.2,241.2
		z"/>
	<path d="M259.4,267.7c-1.1-1.6-1.8-2.8-2.7-4c-0.8-1.1-1.8-2.1-2.8-3.4c0.7-0.1,1-0.3,1.2-0.2c1.9,0.8,3.2,2.3,4.2,4
		C259.8,265.1,260.2,266.1,259.4,267.7z"/>
	<path d="M281.9,444.2c-0.6,0.7-1.1,1.3-1.5,1.9c-0.4,0.5-0.8,1.1-1.6,1.5c0.2-0.9,0.3-1.9,0.5-2.8c-0.8-0.3-1.4-0.5-1.9-0.8
		c0-0.8,0.5-0.9,0.9-0.8C279.4,443.5,280.5,443.8,281.9,444.2z"/>
	<path d="M297.1,232.9c1.3-1.7,2.8-1.6,4.5-1.2c-0.1,1.5-1.4,1.4-2.2,1.8C298.6,233.9,297.8,234,297.1,232.9z"/>
	<path d="M269.7,227.4c0.2,0.4,0.5,0.8,0.5,1.1c-0.2,2-0.8,3.2-2.3,4.3c-0.1-0.1-0.2-0.2-0.2-0.3c0.4-1.7,0.9-3.3,1.3-5
		C269.3,227.4,269.5,227.4,269.7,227.4z"/>
	<path d="M243.4,223.7c0.6,1.7,0.7,2.9,0.1,4.1C242.2,226.3,242.2,226.3,243.4,223.7z"/>
	<path d="M311.6,260.9c-0.5-1.2-0.5-2.1,0.3-3c0.2,0.1,0.7,0.2,0.7,0.4C312.8,259.3,312.7,260.2,311.6,260.9z"/>
	<path d="M261.9,295.2c0.3,0.3,0.6,0.5,0.6,0.7c-0.1,0.4-0.2,0.9-0.4,1.3c-0.4,0.7-1,1-1.3,0.6c-0.5-0.5-0.5-1.1-0.1-1.6
		C260.9,295.8,261.4,295.6,261.9,295.2z"/>
	<path d="M261.6,289.7c-1.3-0.8-1.3-0.9,0-2.4C262.2,288.1,262,288.9,261.6,289.7z"/>
	<path d="M274,223.9c0,0.4,0,0.6-0.1,0.8c-0.1,0.2-0.4,0.5-0.4,0.4c-0.3-0.2-0.5-0.3-0.7-0.6c-0.1-0.2-0.1-0.5,0-0.6
		c0.2-0.2,0.4-0.4,0.7-0.6C273.7,223.6,273.8,223.8,274,223.9z"/>
	<path d="M266.4,238.3c-0.4-1.1-0.3-2,0.7-3.1C267.2,236.6,267,237.5,266.4,238.3z"/>
	<path d="M235.6,235.5c0.9-0.5,1.5,0.1,2.1,0.6C236.7,236.6,236.7,236.6,235.6,235.5z"/>
	<path d="M308.2,262.7c-0.1-0.2-0.2-0.3-0.3-0.5c0.2-0.1,0.4-0.2,0.6-0.2c0.1,0,0.2,0.4,0.2,0.4
		C308.7,262.6,308.4,262.6,308.2,262.7z"/>
	<path d="M169.9,435.7c0.2-0.7,0.3-1.1,0.5-1.5c1-1.4,1.2-2.8,1.1-4.6c-0.1-1.8,0.5-3.6,0.8-5.3c1.1-0.4,1.6,0.1,1.7,0.8
		c0.1,0.7,0.1,1.4,0,2.1c-0.3,1.5-0.7,2.8-0.5,4.4c0.3,1.7-0.6,3.2-2.2,4.1C171,435.9,170.5,435.7,169.9,435.7z"/>
	<path d="M185.1,417.2c0.6-2.6,1.3-5.1,2.8-7.3C187.6,412.6,187.2,415.2,185.1,417.2z"/>
	<path d="M171.9,457.7c-0.6-2.5-0.1-4.8,0.9-7.4c0.4,0.7,0.6,1,0.6,1.1C172.9,453.6,172.4,455.7,171.9,457.7z"/>
	<path d="M160.8,425.5c0-2.3,0.4-3.7,1.8-4.8C163,422.6,163,422.6,160.8,425.5z"/>
	<path d="M161.8,427.5c0.2,1.4,0,2.7-0.6,3.9c-1.2-0.3-1.2-1.1-1.1-1.9C160.3,428.6,160.5,427.8,161.8,427.5z"/>
	<path d="M165.3,525.7c0-0.6,0-1.3,0-1.9c0.1,0,0.1,0,0.2,0c0,0.6,0.1,1.3,0.1,1.9C165.5,525.7,165.4,525.7,165.3,525.7z"/>
	<path d="M170.5,464.5c0,1.4,0,2.1,0,3.1C170.1,466.4,170.1,466.4,170.5,464.5z"/>
	<path d="M190.4,401.5c0-0.7,0.1-1.4,0.1-2.5C191.1,400.2,191,400.8,190.4,401.5L190.4,401.5z"/>
	<path d="M193.3,394.7c0-0.4,0-0.7,0.1-0.9c0.1,0.2,0.2,0.4,0.2,0.6C193.6,394.4,193.5,394.5,193.3,394.7z"/>
	<path d="M190.3,401.4c0,0.1-0.1,0.2-0.1,0.2C190.3,401.6,190.3,401.5,190.3,401.4L190.3,401.4z"/>
	<path d="M203.7,326.3c-0.5-0.4-1.3-0.7-1.6-1.2c-0.9-1.6-2-3-4.2-4c1,0,1.4,0,2.1,0c0-0.7,0.2-1.6,0-2.2c-0.7-1.7,0-3.1,0.3-4.6
		c0-0.2,0.5-0.3,0.9-0.4c0.2,0.4,0.4,0.7,0.4,1c0.2,3.7,0.8,7.4,2,10.9C203.7,325.9,203.6,326.2,203.7,326.3L203.7,326.3z"/>
	<path d="M220,233.9c-1,0.3-1.4,0.6-1.8,0.5c-1.7-0.5-3.6-0.7-5.2-2.1c0.4-0.3,0.7-0.6,1-0.5C215.9,231.8,217.5,232.4,220,233.9z"/>
	<path d="M252.4,439.7c1,1.2,0.4,2.1-0.3,2.9c-0.7,0.8-1.4,1.5-2.8,0.8C250.3,442.1,251.2,440.8,252.4,439.7z"/>
	<path d="M216.8,265.2c1.7,0.7,2.4,1.5,2.6,2.7c0,0.2-0.3,0.5-0.6,0.9C217.8,268,217.3,267,216.8,265.2z"/>
	<path d="M215.9,316.7c1.1,1,0.9,1.9,0.8,2.7C215.7,318.9,215.7,318.9,215.9,316.7z"/>
	<path d="M212.2,349.5c-0.6-0.9-1.1-1.5-1.5-2c0.4-0.7,0.8-0.7,1.1-0.2C212.2,347.8,212.8,348.3,212.2,349.5z"/>
	<path d="M218.4,329.3c-1.1-0.9-1.3-1.7-1-2.6C218.3,327.2,218.3,327.2,218.4,329.3z"/>
	<path d="M247.6,443.1c-1,0.9-1.5,1.4-2.1,2C245.1,443.4,245.3,443.2,247.6,443.1z"/>
	<path d="M214.8,262.3c-0.4,0.2-0.7,0.3-0.7,0.3c-0.2-0.2-0.4-0.4-0.5-0.7c0-0.1,0.2-0.3,0.3-0.4C214.2,261.8,214.5,262,214.8,262.3
		z"/>
	<path d="M214.8,353.7c-0.1,0.1-0.2,0.2-0.3,0.4c-0.1-0.2-0.2-0.4-0.2-0.6c0-0.1,0.1-0.1,0.2-0.2
		C214.6,353.4,214.7,353.6,214.8,353.7z"/>
	<path d="M203.7,327.2c0-0.3-0.1-0.6-0.1-0.9l-0.1,0.1c0.1,0.2,0.1,0.3,0.2,0.5C203.8,326.9,203.7,327,203.7,327.2L203.7,327.2z"/>
	<path d="M311.2,434.8c1-0.7,1.7-0.2,2.2,0.4c2.2,2.4,3.9,5.2,4.5,8.4c0,0.2-0.1,0.4-0.2,0.9c-0.4-0.3-0.8-0.5-1-0.8
		C314.9,440.8,313.1,437.9,311.2,434.8z"/>
	<path d="M319.8,407.3c0.3,0.5,0.7,0.8,0.8,1.2c0.2,1.8-0.3,3.5-1.2,5c-0.3,0.5-0.9,0.9-1.4,0.5c-0.3-0.2-0.6-0.8-0.5-1.1
		C317.8,410.9,318.4,409.1,319.8,407.3z"/>
	<path d="M320.5,420c1.6,1.3,2.8,4,3,7.1c-1.3-0.4-1.6-1.6-2-2.6C321,423.1,319.8,421.8,320.5,420z"/>
	<path d="M317.6,450.1c1.7,1,1.1,2.3,0.9,3.8C317.2,452.7,317.2,451.6,317.6,450.1z"/>
	<path d="M318.1,501.2c1.3,0.6,1.2,1.3,0.3,2.5C318.2,502.5,318.1,501.8,318.1,501.2z"/>
	<path d="M319,514.8c1.1,0.8,0.8,1.5,0.5,2.2C318.7,516.6,318.7,516.6,319,514.8z"/>
	<path d="M320.4,396.5c0.4,0.5,0.7,0.8,0.8,1.1c0.1,0.4,0,0.9-0.6,0.9c-0.2,0-0.4-0.4-0.4-0.7C320.1,397.5,320.3,397.2,320.4,396.5z
		"/>
	<path d="M319.2,508.7c-0.2-0.1-0.4-0.1-0.5-0.3c-0.3-0.5-0.4-1,0.1-1.5c0.1-0.1,0.2-0.1,0.3,0c0.6,0.4,0.4,0.9,0.3,1.4
		C319.3,508.5,319.2,508.6,319.2,508.7z"/>
	<path d="M320.9,463.6c0,1.5,0,2.2,0,3.1C319.8,465.4,319.8,465.4,320.9,463.6z"/>
	<path d="M321,402.8c-0.4,0.3-0.5,0.6-0.7,0.7c-0.1,0-0.4-0.2-0.4-0.4c0-0.2,0.1-0.5,0.2-0.5C320.3,402.5,320.5,402.7,321,402.8z"/>
	<path d="M319.8,458.5c0.2,0.3,0.5,0.4,0.5,0.6c0,0.3-0.2,0.6-0.2,0.9c-0.2-0.2-0.5-0.4-0.6-0.6
		C319.4,459.1,319.6,458.8,319.8,458.5z"/>
	<path d="M247.5,174c-0.5,0.5-0.9,0.8-1.4,1.2c0.1,0.5,0.2,0.9,0.4,1.5c-0.8,0-1.6,0-2.4,0c-0.4-0.7,0.4-0.7,0.4-1.2
		c-0.8-0.7-1.7-1.5-2.8-2.4c-0.7,0.4-1.5,0.9-2.4,1.4c-0.5-0.3-0.9-0.6-1.6-1c1.3-0.9,2.4-1.6,3.9-2.6c-1.6-0.1-2.6,0.6-4,1
		c0.2-0.5,0.3-0.9,0.4-1c3.6-1.8,7.1-1.8,10.4,0.8c0.4,0.4,0.8,0.8,1.2,1.3c0.3,0.4,0.4,0.8,0,1.3c-0.4,0.4-0.8,0.3-1.2,0.1
		C248.2,174.3,248,174.3,247.5,174z"/>
	<path d="M247.5,198.4c0.3-0.3,0.4-0.6,0.5-0.6c1.7-0.1,3.4-0.6,5.1-1.1c2-0.6,4.1-0.4,6.2,0.2c1.1,0.3,2.2,0.6,3.4,0.8
		c1,0.2,2,0.1,3,0.2c0.5,0.6,0,1-0.4,1.1c-0.9,0.2-1.8,0.3-2.8,0.3c-3.6,0-7.2-0.1-10.8-0.1C250.3,199.2,248.8,199.2,247.5,198.4z"
		/>
	<path d="M271,170.5c-0.6,0.1-1.1,0.2-1.9,0.3c1.2,1.6,3.5,1.4,4.6,3c-1.4,0.8-2.5-0.5-3.7-0.5c-2.5,2.1-3.7,1.9-5.7,0.2
		c-1,0.1-1.6,1.9-3.1,0.7c1.1-1.3,2.2-2.6,3.3-3.9c0.2-0.2,0.6-0.5,0.9-0.5c1.8-0.2,3.7-0.5,5.4,0.5
		C270.9,170.3,270.9,170.5,271,170.5L271,170.5z"/>
	<path d="M275.2,166.1c-0.8,0.2-1.1,0.3-1.3,0.3c-3.8-0.8-7.6-0.1-11.4,0.5c-1.1,0.2-2.2,0.8-3.5,0.2c0.1-0.3,0.3-0.6,0.4-0.9
		c0-0.1,0.2-0.1,0.3-0.2c2.9-1.3,5.9-1,8.9-1.1C270.8,164.8,272.8,164.9,275.2,166.1z"/>
	<path d="M249.5,202.1c2.6,0.7,4.9,0.6,7.2,0.7c2.2,0.1,4.3-0.2,6.3-1.3c-0.6,1.8-1.8,2.5-3.4,2.8c-2.5,0.5-4.8,0.7-7.1-0.6
		c-0.8-0.4-1.8-0.6-2.6-0.9C249.7,202.7,249.7,202.3,249.5,202.1z"/>
	<path d="M237.5,165.8c1.8-1.3,4.1-1.8,6.6-1.3c2.5,0.5,5.3,0.5,7.3,3.2c-1.9,0.1-3.1-1.1-4.6-1.3c-1.6-0.2-3.2-0.6-4.8-0.7
		C240.5,165.6,239.1,165.7,237.5,165.8z"/>
	<path d="M262.4,186.3c1,1,1,2,0.5,3c-0.1,0.3-0.4,0.6-0.7,0.7c-0.8,0.1-1.6,0.3-2.4,0.2c-0.6-0.1-1.2-0.6-2-1
		c0.8-0.4,1.3-0.7,1.8-1c0.7,0.4,1.4,0.8,2,1.2C263,188.6,261.5,187.2,262.4,186.3z"/>
	<path d="M273.1,141c0.2-0.2,0.5-0.5,0.7-0.7c0.2,0.1,0.5,0.3,0.5,0.4c-0.1,1.3,0,2.6,0.1,3.9c0,0.4-0.4,0.8-0.7,1.3
		c-0.7-0.3-1.3-0.5-1.9-0.8c0.2-1,0.4-1.9,0.6-2.7C273.1,142.2,273,141.6,273.1,141z"/>
	<path d="M255.3,189.9c-0.5,0.1-1.1,0.2-1.6,0.2c-0.2,0-0.6-0.5-0.5-0.7c0-0.2,0.4-0.6,0.6-0.7C254.6,188.6,255.1,188.9,255.3,189.9
		z"/>
	<path d="M266.8,143.8c0.4-0.3,0.7-0.5,1.1-0.8c0.4-0.2,0.7-0.5,1.1-0.7c-0.1,0.5-0.1,0.9-0.2,1.4c-0.5,0.3-1.1,0.6-1.7,1
		C267,144.4,266.9,144.1,266.8,143.8z"/>
	<path d="M271,170.6c1.2-0.2,2.2-0.1,3.4,1C272.9,171.7,271.8,171.5,271,170.6L271,170.6z"/>
	<path d="M260.5,169.7c-0.3,0.6-0.7,1.2-1,1.7c-0.1-0.1-0.2-0.1-0.4-0.2c0.3-0.6,0.5-1.3,0.8-1.9
		C260.1,169.5,260.3,169.6,260.5,169.7z"/>
	<path d="M276.3,164.4c-0.6-0.6-0.7-1.2,0-1.8C276.7,163.2,276.9,163.7,276.3,164.4z"/>
	<path d="M251.2,172.9c0.3,0.4,0.5,0.6,0.7,1c0.1,0.1-0.2,0.4-0.2,0.5c-0.1-0.1-0.2-0.1-0.3-0.2C251,173.9,250.7,173.6,251.2,172.9z
		"/>
	<path d="M236.1,153.3c0,0.2,0,0.4,0.1,0.5c-0.1,0-0.3,0-0.3,0c0-0.2-0.1-0.3-0.1-0.5C235.9,153.3,236,153.3,236.1,153.3z"/>
	<path d="M251.9,189.7c-0.2,0.1-0.4,0.3-0.6,0.3c-0.2-0.1-0.3-0.2-0.4-0.4c0-0.1,0.1-0.3,0.2-0.4
		C251.4,189.3,251.7,189.5,251.9,189.7z"/>
	<path d="M257.6,187.4c-0.1-0.3-0.2-0.4-0.3-0.6c0.2-0.1,0.5-0.3,0.7-0.4c0,0.1,0.2,0.2,0.1,0.3C258,186.9,257.8,187.1,257.6,187.4z
		"/>
	<path d="M236.7,148.8c0.1,0.2,0.2,0.5,0.1,0.3C236.8,149.2,236.8,149,236.7,148.8L236.7,148.8z"/>
	<path d="M251.3,186.7c0,0.2,0,0.4,0,0.6c0,0.1-0.1,0.2-0.2,0.3c-0.1-0.2-0.3-0.4-0.2-0.5C251,186.9,251.2,186.8,251.3,186.7
		L251.3,186.7z"/>
	<path d="M251.4,186.7c0-0.2,0-0.4,0.1-0.6c0-0.1,0.1-0.2,0.2-0.3c0.1,0.2,0.2,0.4,0.2,0.5C251.8,186.5,251.5,186.6,251.4,186.7
		L251.4,186.7z"/>
	<path d="M268.5,175.8c-0.2,0.1-0.4,0.1-0.5,0.2c-0.1,0-0.1-0.1-0.2-0.2c0.1-0.1,0.2-0.2,0.2-0.2
		C268.2,175.7,268.4,175.8,268.5,175.8z"/>
	<path d="M258,175.2c0.1,0,0.1,0.1,0.2,0.1c-0.1,0.1-0.2,0.1-0.2,0.2C258,175.4,258,175.3,258,175.2z"/>
	<path d="M238.1,147.3c-0.1,0-0.2,0-0.3-0.1C237.9,147.3,238,147.3,238.1,147.3L238.1,147.3z"/>
	<path d="M238,147.4c0.1,0.1,0.2,0.2,0.3,0.4c-0.1,0-0.2-0.1-0.2-0.1C238.1,147.5,238.1,147.4,238,147.4L238,147.4z"/>
	<path d="M236.8,148.7c-0.1,0-0.2,0-0.3,0C236.6,148.7,236.6,148.7,236.8,148.7L236.8,148.7z"/>
	<path d="M234.5,154.4c0.2,0.1,0.3,0.2,0.5,0.2C234.5,155,234.6,154.6,234.5,154.4L234.5,154.4z"/>
	<path d="M252.8,351.7c-1.8,2.3-3.8,4.3-6.6,5.4c-0.5,0.2-1.1,0.3-1.5-0.6c1.2-0.7,2.5-1.4,3.8-2.1c1.2-0.7,2.2-1.6,3.4-2.4
		C252.1,351.8,252.5,351.8,252.8,351.7L252.8,351.7z"/>
	<path d="M280.1,336.1c-1.1,0.6-2.2,1.1-3.3,1.7c-1,0.5-1.9,1-3,1.4C275.3,337,277.5,336.2,280.1,336.1L280.1,336.1z"/>
	<path d="M261.2,345.3c-0.1,0.2-0.2,0.4-0.4,0.5c0,0-0.2-0.1-0.3-0.1C260.8,345.6,261,345.5,261.2,345.3L261.2,345.3z"/>
	<path d="M239.9,359.8c-0.2,0.1-0.3,0.3-0.5,0.3c-0.2,0-0.3-0.2-0.5-0.3c0.2-0.1,0.3-0.3,0.5-0.3
		C239.6,359.5,239.7,359.6,239.9,359.8z"/>
	<path d="M280.1,336.2c0.2-0.1,0.4-0.3,0.2-0.2C280.6,336,280.3,336.1,280.1,336.2L280.1,336.2z"/>
	<path d="M252.8,351.7c0.2-0.2,0.4-0.5,0.6-0.7l0-0.1C253.2,351.2,253,351.4,252.8,351.7L252.8,351.7z"/>
	<polygon points="253.5,351 253.6,350.8 253.5,351 	"/>
	<path d="M261.2,345.4c0.1-0.1,0.2-0.3,0.3-0.4c0,0.1,0,0.2-0.1,0.2C261.4,345.3,261.3,345.3,261.2,345.4L261.2,345.4z"/>
	<path d="M342.1,554.4c-0.3-0.9-0.5-1.4-0.7-2c-1,0-1.9,0.1-2.8,0c-0.5-0.1-1.1-0.5-1.3-0.9c-0.1-0.4,0.2-1.1,0.5-1.5
		c0.6-0.7,1.5-1.2,2.5-1.2c1.1,0,2.1-0.1,3.1,0.1c0.6,0.1,1.2,0.6,1.7,1c0.4,0.3,0.2,0.9-0.6,2.2c0.2,0.2,0.3,0.3,0.5,0.5
		c0.6,1,0.4,1.7-0.5,1.8C343.8,554.5,343,554.4,342.1,554.4z"/>
	<path d="M340.6,544.9c0.7,0.2,1.5,0.3,2.2,0.6c0.3,0.1,0.6,0.7,0.7,1.1c0.1,0.3-0.2,0.7-0.4,0.9c-1,0.8-6.5,1.7-7.7,1.3
		c-0.9-0.3-1.2-1.7-0.4-2.3c0.5-0.4,1.1-0.8,1.8-1C337.9,545.2,339.2,545.1,340.6,544.9z"/>
	<path d="M153.1,564.3c-1.1-0.1-2.5,0.2-3-1.3c-0.4-1.3,0.8-1.8,1.4-2.6c-1-2.7-1-2.7,1.1-4.8c-0.2-0.1-0.4-0.3-0.5-0.4
		c-1.3-1.2-1.5-2.2-0.3-3.2c1.1-1,2.4-1.9,3.8-2.4c3.2-1.2,6.5-0.7,9.4,1c0.8,0.4,1.4,1.2,1.9,2c0.4,0.7,0.5,1.6-0.7,2.2
		c-1.1-0.7-2-2.1-3.6-2.2c-1.4,0-2.8-0.1-4.2-0.1c-0.7,0-1.4,0.3-2,0.6c-0.7,0.4-1.3,1-2,1.6c9.2,0.4,10,0.6,12.3,2.8
		c-0.1,0.7-0.6,0.8-1.3,0.8c-2.7,0.1-5.4,0.2-8,0.4c-0.5,0-1,0.4-2,0.8c1.3,0.5,2.1,0.3,3,0.4c0.9,0.1,1.9,0.1,2.8,0.2
		c1.2,0.1,2.3,0.3,2.7,1.6c-0.3,1.6-2,0.9-2.9,1.9c0.8,0.4,1.6,0.7,2.2,1.1c0.6,0.4,0.5,1.4-0.1,1.7c-0.5,0.2-1.1,0.4-1.6,0.6
		c-0.9,0.2-1.8,0.4-2.7,0.6c-0.2,0.8,0.5,0.7,0.8,1c0.7,0.9,0.5,1.9-0.4,2.3c-1.6,0.6-3.2,0.7-4.8,0.4c-0.7-0.1-1.2-0.7-1.2-1.5
		c0-0.6,0.5-1.2,0-1.6c-1.4-1.2-0.8-2.5-0.2-3.7C153.1,564.5,153,564.3,153.1,564.3c0.4-0.1,1-0.1,1.5-0.1
		C154,563.7,153.5,563.9,153.1,564.3z"/>
	<path d="M248.7,320.4c3.7-2.3,7-3.4,10.9-1.6c-0.4,0.4-0.5,0.8-0.8,0.8C255.7,320.3,252.6,321.4,248.7,320.4z"/>
	<path d="M241.1,318.1c0.4-0.1,0.7-0.2,1-0.2c0.2,0,0.4,0.2,0.6,0.4c-0.4,0.1-0.7,0.2-1,0.2C241.5,318.5,241.3,318.3,241.1,318.1z"
		/>
	<path d="M264.1,319.1c-0.3,0-0.6-0.1-0.9-0.1c0,0,0-0.1,0-0.1c0.3,0,0.6,0.1,0.9,0.1C264.1,319,264.1,319,264.1,319.1z"/>
	<polygon points="265.4,130 265.5,129.7 265.4,129.9 	"/>
	<path d="M268.9,142.5c-0.1-0.7,0.2-1.2,0.8-1.6C269.7,141.6,269.7,142.3,268.9,142.5z"/>
	<path d="M635.5,247.7c0.9,2.3,2.8,2.9,4.9,4c-1.2,0.8-1.9,1.3-2.5,1.7c-1.6-0.1-2.3-1.1-2.8-2.2
		C634.6,250.2,633.9,249.1,635.5,247.7z"/>
	<path d="M602.3,186c-1.1-0.9-2.2-1.7-3.3-2.6c-0.4-0.4-0.8-0.8-1.1-1.3c-0.1-0.2,0-0.7,0.2-0.9c0.2-0.2,0.8-0.2,0.9,0
		C600.2,182.7,601.9,183.9,602.3,186L602.3,186z"/>
	<path d="M603,186.8c1,0.2,1.9,0.7,2.5,1.8c-0.3,0.2-0.6,0.5-0.8,0.5C603.4,188.8,603,187.9,603,186.8L603,186.8z"/>
	<path d="M591.4,121.5c1.3,0.7,1.3,1.7,1,2.9C590.9,123.7,590.9,123.7,591.4,121.5z"/>
	<path d="M611.3,266c-1.4-0.8-1.4-2-2.1-3.3C610.9,263.7,610.9,263.6,611.3,266z"/>
	<path d="M614.9,269.6c1.4,0.1,1.7,1.3,2.7,2.5C615.6,271.8,615.2,270.7,614.9,269.6L614.9,269.6z"/>
	<path d="M613,193.3c-0.4,0.4-0.6,0.8-0.8,0.8c-0.4,0-0.9-0.2-1.2-0.4c-0.3-0.3,0.1-0.9,0.7-0.8C612,192.9,612.4,193.1,613,193.3z"
		/>
	<path d="M606.2,259.5c-0.7-0.9-1.3-1.7-0.8-3C606.2,257.5,606.8,258.3,606.2,259.5z"/>
	<path d="M671.3,247.8c1,1.1,0.5,1.9,0.2,3.1C670.6,249.8,671,248.9,671.3,247.8z"/>
	<path d="M638,237.9c0,0.8,0,1.7,0,3C637,239.6,637.4,238.7,638,237.9z"/>
	<path d="M638.1,224.8c-0.4,1-0.6,1.5-0.8,1.9c0,0.1-0.2,0.1-0.3,0.1c-0.1-0.1-0.1-0.2-0.2-0.3C636.8,226,636.8,225.5,638.1,224.8z"
		/>
	<path d="M669.1,275.1c-0.8,0.9-1.9,0.6-2.9,0.8C666.9,274.9,668.1,275.4,669.1,275.1z"/>
	<path d="M636.5,246.4c-0.1,0.2-0.1,0.4-0.2,0.6c-0.2-0.1-0.4-0.2-0.6-0.2c0.1-0.2,0.1-0.4,0.3-0.5
		C636.1,246.1,636.3,246.3,636.5,246.4z"/>
	<path d="M666.4,262.3c-0.1,0.2-0.1,0.4-0.3,0.5c0,0-0.4-0.1-0.4-0.2c0-0.2,0.1-0.4,0.2-0.6C666,262.2,666.2,262.3,666.4,262.3z"/>
	<path d="M662.7,266.1c0.2,0.2,0.3,0.3,0.5,0.4c-0.2,0.2-0.5,0.4-0.7,0.6c-0.1-0.1-0.2-0.2-0.2-0.3
		C662.4,266.6,662.6,266.3,662.7,266.1z"/>
	<path d="M590.5,118.9c-0.2,0.2-0.3,0.4-0.5,0.6c-0.1-0.2-0.3-0.4-0.3-0.5c0.1-0.2,0.3-0.5,0.4-0.7
		C590.2,118.4,590.3,118.6,590.5,118.9z"/>
	<path d="M589.5,114.2c0,0.4,0,0.8,0,1.2c-0.1,0-0.2,0-0.3,0c0-0.4,0-0.8-0.1-1.2C589.2,114.2,589.3,114.2,589.5,114.2z"/>
	<polygon points="670.7,252.7 670.8,252.5 670.8,252.7 	"/>
	<path d="M615,269.5c-0.1-0.1-0.2-0.2-0.3-0.3c0.1,0,0.2,0,0.2,0.1C614.9,269.3,614.9,269.5,615,269.5L615,269.5z"/>
	<path d="M602.2,186.1c0.3,0.2,0.5,0.5,0.8,0.7l0.1-0.1C602.8,186.5,602.5,186.2,602.2,186.1L602.2,186.1z"/>
	<path d="M619.2,321.4c1,0.1,2.1,0.1,3.1,0.3c3.3,0.6,6.6,1.3,9.9,1.9c1,0.2,2,0.5,2.9,0.7c0,0.9-0.6,0.8-1,0.8
		c-2.6-0.5-5.3-0.9-7.9-1.4c-2-0.4-4-1-6.1-1.6C619.9,322,619.6,321.6,619.2,321.4L619.2,321.4z"/>
	<path d="M659.8,318.6c-2.8,1.5-5.8,2.1-8.9,2.8c-0.1,0-0.2-0.1-0.5-0.3C653.5,319.6,656.6,318.7,659.8,318.6L659.8,318.6z"/>
	<path d="M633.4,319.6c-1.9,1.6-2.7-0.9-4.2-0.4C630.6,318.2,631.8,319.4,633.4,319.6z"/>
	<path d="M606.1,291.1c-1.7,0.2-3.1,0.2-4.8-0.4C603.1,290.3,603.2,290.3,606.1,291.1z"/>
	<path d="M668.3,283.7c0.6,0,1.3-0.1,1.9-0.1c0,0.1,0,0.2,0,0.3c-0.6,0.1-1.3,0.1-1.9,0.2C668.3,283.9,668.3,283.8,668.3,283.7z"/>
	<path d="M619.3,321.4c-0.7,0-1.4-0.1-2.4-0.1C617.9,320.7,618.6,320.8,619.3,321.4L619.3,321.4z"/>
	<polygon points="626.8,318.2 627.1,318.3 626.8,318.4 	"/>
	<path d="M659.9,318.7c0.2-0.1,0.4-0.2,0.6-0.4C660.2,318.4,660,318.5,659.9,318.7L659.9,318.7z"/>
	<polygon points="591.1,286.1 590.8,286 591.1,286 	"/>
	<path d="M633.2,322.1c-0.1-0.1-0.2-0.2-0.3-0.3c0.1,0,0.1,0.1,0.2,0.1C633.1,322,633.1,322.1,633.2,322.1L633.2,322.1z"/>
	<path d="M633.1,322.2c0.1,0.1,0.2,0.1,0.4,0.2c-0.1,0-0.1,0-0.2-0.1C633.3,322.3,633.3,322.2,633.1,322.2L633.1,322.2z"/>
	<path d="M600.7,431.6c0.2,0.6,0.4,1.4,0.6,2.1c0.7,2.1,0,3.7-1.7,4.9c-0.9,0.7-1.9,1.3-2.9,1.9c-0.6-0.4-0.3-0.9,0-1.2
		c0.5-0.7,0.9-1.3,1.5-2c1.9-2.3,2.1-2.9,1.5-6.1c1.2-2.5,2.3-5.1,3.5-7.6c0.2-0.4,0.6-0.7,0.9-1c0.1-0.1,0.5-0.1,0.6,0
		c0.2,0.1,0.4,0.4,0.4,0.5c-0.1,0.6-0.1,1.2-0.3,1.7C603.5,426.9,602.2,429,600.7,431.6z"/>
	<path d="M585.6,424.8c0.3,2.3-0.1,4-1.2,5.7C583.8,427,584,425.9,585.6,424.8z"/>
	<path d="M585.8,416.3c1.2,3.2,1.2,3.4,0.6,5.8C585.5,420.9,585.5,420.9,585.8,416.3z"/>
	<path d="M596,443.4c0.2,2.2,0.1,2.4-2.3,5.8C593.7,447.3,593.9,446.5,596,443.4z"/>
	<path d="M584.3,434.7c1.3,2.2,1.5,3.9,1.7,5.8C584.6,439.4,584.4,438.7,584.3,434.7z"/>
	<path d="M615.3,369.1c0.6,1.5,1.2,2.9,1.7,4.2c-0.6,0.7-0.9,0.1-1.1-0.2C615.1,371.6,615.1,371.4,615.3,369.1z"/>
	<path d="M591.6,532.5c-0.7-1.4-0.6-2.4-0.3-3.9C592,530.1,592,531.1,591.6,532.5z"/>
	<path d="M589.7,461.6c-0.1-0.1-0.2-0.1-0.2-0.2c-0.1-0.5-0.1-1.1,0.5-1.4c0.1,0,0.2,0,0.2,0.1c-0.1,0.5-0.1,1-0.2,1.5
		C590,461.5,589.8,461.5,589.7,461.6z"/>
	<path d="M591.4,524.9c-0.1,0.1-0.3,0.3-0.4,0.4c-0.1-0.2-0.2-0.3-0.3-0.5c0-0.1,0.2-0.3,0.2-0.3
		C591.1,524.7,591.3,524.8,591.4,524.9z"/>
	<path d="M588.6,471.7c0-0.2-0.1-0.4-0.1-0.6c0,0,0.1-0.1,0.2-0.1c0,0.2,0.1,0.4,0.1,0.7C588.8,471.6,588.7,471.6,588.6,471.7z"/>
	<path d="M585.1,405.4c0.1,0,0.2,0.1,0.2,0.1c0,0.1,0,0.2-0.1,0.2c-0.1,0-0.2-0.1-0.2-0.1C585,405.6,585,405.5,585.1,405.4z"/>
	<path d="M585.8,409c-0.1-0.1-0.2-0.1-0.1-0.2c0-0.1,0.1-0.1,0.2-0.2c0.1,0.1,0.2,0.1,0.1,0.2C586,408.9,585.9,409,585.8,409z"/>
	<path d="M693.1,415c0.9-0.2,1.3,0.2,1.5,0.8c0.7,2.3,0.7,4.6,0.1,6.9c-0.2,0.8-0.5,1.5-0.8,2.3c1.4,1.9,2.3,4,2.9,6.2
		c0.8,2.8-0.2,5.1-2.2,7.2c-0.1-0.3-0.2-0.4-0.2-0.5c0.8-3.7-0.1-7.1-1-10.6c-0.3-1.3-0.6-2.5-0.4-3.8c0.4-2.3,0.4-4.6-0.1-6.9
		C692.8,416,693,415.5,693.1,415z"/>
	<path d="M681.7,427.5c-0.1,3,1.4,5.7,1.2,9c-2.3-2.5-3.1-5.1-3-7.9C679.9,427.9,680.3,427.3,681.7,427.5z"/>
	<path d="M688.6,449.2c-1.4-2-2.7-4-4.1-6c-0.2-0.3-0.4-0.7-0.3-1c0.6-1.5-0.4-2.9-0.4-4.4c1.2,0,1.4,0.8,1.4,1.5
		c-0.2,2.3,0.9,4,1.9,5.8C687.8,446.4,689,447.6,688.6,449.2L688.6,449.2z"/>
	<path d="M661,380c-1.4-1.4-1.1-2.6-0.9-3.8C660.6,377.2,660.9,378.3,661,380z"/>
	<path d="M695.2,531.9c1,1.4,0.9,2.1,0.3,2.9c-0.7-0.2-0.4-0.7-0.5-1.1C695.1,533.3,695.1,532.8,695.2,531.9z"/>
	<path d="M691.5,457.2c0.3,0.7,0.7,1.3,1.1,2.3C691.5,458.7,691.5,458.7,691.5,457.2z"/>
	<polygon points="659.6,364.1 659.6,364.3 659.5,364.3 	"/>
	<path d="M688.5,449.3c0.1,0,0.3,0.1,0.4,0.1c-0.1,0-0.1,0-0.2,0C688.7,449.4,688.7,449.3,688.5,449.3L688.5,449.3z"/>
	<path d="M720.1,567.9c-1.6,0.8-3.1,0.9-4.5,1.1c-1.8,0.2-3.7,0.2-5.6,0.2c-0.6,0-1.2-0.1-1.7-0.3c-0.4-0.2-0.8-0.6-0.8-1
		c-0.1-0.4,0.2-0.8,0.5-1.2c0.2-0.2,0.6-0.4,0.9-0.5c2.6-0.7,5.2-1,7.9-0.6C718.2,565.8,719.3,566.3,720.1,567.9z"/>
	<path d="M719.4,570.5c-1.8,1-2.8,1.6-3.9,2.1c-0.6,0.3-1.4,0.3-2,0.3c-0.3,0-0.8-0.5-0.9-0.8c-0.1-0.4,0.2-0.8,0.4-1.2
		c0.1-0.2,0.4-0.3,0.6-0.4C715.2,569.7,716.9,569.9,719.4,570.5z"/>
	<path d="M746.3,72.9c-0.9,1.7-2.6,2.5-4.1,3.5c-1.4,0.9-2.8,2-4.9,2.2c0.3-0.6,0.4-1,0.7-1.1c2.6-1.7,5.2-3.4,7.8-5.1
		C745.9,72.5,746.1,72.7,746.3,72.9z"/>
	<path d="M655.9,125.7c-0.8,0.8-1.5,1.4-2.1,1.9c-0.3-0.1-0.6-0.1-0.7-0.2c-0.6-0.9-0.1-1.5,0.5-2C654.3,125,655,124.6,655.9,125.7z
		"/>
	<path d="M652,127.8c0,1.8-0.7,2.8-1.2,4.1C649.4,129.7,649.6,129,652,127.8z"/>
	<path d="M692.9,124.9c-0.5,1.7-0.9,2.8-1.8,3.5C689.9,127.2,690.2,126.7,692.9,124.9z"/>
	<path d="M697.9,121.1c-1,0.9-1.7,2.1-3.4,1.5C695.8,120.2,696.2,120.1,697.9,121.1z"/>
	<path d="M660.2,122.9c-0.9,0.8-1.5,1.5-2.1,2c-1.2-0.8-0.7-1.5-0.2-2.1C658.4,122.1,658.7,122.1,660.2,122.9z"/>
	<path d="M711,104.4c-1.1,0-2.1,0-3.5,0c0.6-0.6,0.9-1.1,1.2-1.1C709.7,103,709.8,103.1,711,104.4z"/>
	<path d="M705.3,105.4c-1,1-1.8,1.5-3,1.2C702.9,105.3,702.9,105.3,705.3,105.4z"/>
	<path d="M696.5,108.6c1.3-0.9,1.3-0.9,2.4,0C698.1,108.6,697.5,108.6,696.5,108.6z"/>
	<path d="M732.9,81.7c0.1-0.4,0.2-0.8,0.4-1.1c0.1-0.2,0.5-0.2,0.8-0.3c0,0.3,0.1,0.6,0,0.9c-0.1,0.3-0.3,0.6-0.5,0.9
		C733.3,81.9,733.1,81.8,732.9,81.7z"/>
	<path d="M662.6,121c-0.3,0.2-0.4,0.4-0.7,0.6c0,0-0.4-0.2-0.4-0.3c0-0.2,0.2-0.4,0.3-0.4C662.1,120.8,662.3,121,662.6,121z"/>
	<path d="M749,97.9c0.1-0.1,0.2-0.3,0.3-0.4c0,0.1,0.1,0.2,0.1,0.2c0,0.1-0.1,0.2-0.2,0.2C749.2,97.9,749.1,97.9,749,97.9z"/>
	<path d="M712.2,102.2c0,0.1,0.1,0.2,0.1,0.3c0,0.1-0.1,0.2-0.1,0.3c0-0.1-0.1-0.2-0.1-0.3C712.1,102.4,712.1,102.3,712.2,102.2z"/>
	<path d="M729.4,84.2c0.1-0.2,0.2-0.4,0.2-0.5C730.2,84.3,729.6,84.1,729.4,84.2L729.4,84.2z"/>
	<path d="M729.4,84.2c-0.1,0.2-0.2,0.4-0.3,0.6C728.7,84.2,729,84.2,729.4,84.2L729.4,84.2z"/>
	<path d="M627.6,61c-0.8,0-1.6,0-2.6,0c0.3-0.5,0.6-0.9,0.8-1.3c-0.9-0.8-1.9-1.5-2.9-2.4c-0.7,0.4-1.4,0.9-2.2,1.4
		c-0.4-0.2-0.9-0.4-1.4-0.6c0.1-0.4,0-0.7,0.2-0.8c0.9-0.6,1.9-1.2,3-1.9c-1.4-0.9-2.3,0.6-3.5,0.4c0-0.2,0-0.5,0.1-0.5
		c3.7-2.1,7.3-2,10.7,0.7c0.5,0.4,0.9,1,1.3,1.6c0.3,0.5-0.3,1.2-0.9,1.1c-0.4-0.1-0.9-0.3-1.3-0.5C627.5,58.7,627.1,59.6,627.6,61z
		"/>
	<path d="M628.6,82.6c0.2-0.3,0.4-0.6,0.5-0.6c1.7-0.2,3.4-0.6,5.1-1.1c1.3-0.4,2.8-0.4,4.1-0.2c2.9,0.4,5.7,1.6,9.1,1.4
		c-0.5,0.6-0.7,0.9-0.9,1c-0.7,0.2-1.4,0.3-2,0.3c-4.2,0-8.4,0-12.6-0.1C630.7,83.4,629.6,83.2,628.6,82.6z"/>
	<path d="M652.2,54.7c-0.6,0.1-1.1,0.2-1.9,0.3c1.2,1.6,3.5,1.3,4.6,3c-1.4,0.8-2.5-0.5-3.7-0.5c-2.5,2.1-3.7,1.9-5.7,0.2
		c-1,0.1-1.6,1.9-3.1,0.7c1.1-1.3,2.2-2.6,3.3-3.9c0.2-0.2,0.6-0.5,0.9-0.5c1.8-0.2,3.7-0.5,5.4,0.5C652,54.5,652.1,54.7,652.2,54.7
		L652.2,54.7z"/>
	<path d="M644.3,85.9c-0.8,1.6-1.9,2.3-3.5,2.6c-2.5,0.5-4.8,0.6-7.1-0.6c-0.9-0.5-2-0.7-2.8-0.9c-0.3-0.8,0-1.2,0.6-0.9
		c2.3,1,4.8,0.9,7.2,0.9c1.6,0,3.3-0.1,4.7-1.1C643.5,85.7,643.9,85.9,644.3,85.9z"/>
	<path d="M639.9,51.2c1.2-1.6,2.7-1.8,4-1.9c4-0.3,8.1-0.9,12.7,0.9c-1.1,0.2-1.5,0.4-1.9,0.3c-3.4-0.8-6.7-0.1-10,0.4
		c-1.1,0.2-2.3,0.4-3.4,0.6C641,51.6,640.7,51.4,639.9,51.2z"/>
	<path d="M632.1,51.7c-4.4-1.4-8.7-2.6-13.2-1.6c0-0.4,0-0.7,0-0.7c2.7-1.1,5.4-1.1,8.2-0.4C629,49.5,630.9,49.8,632.1,51.7z"/>
	<path d="M639.1,73.3c1.4-1.7,2.4-0.7,3.3,0.1c0.7-0.3,1-0.7,0.9-1.4c-0.1-0.5-0.4-1.1,0.2-1.7c1.1,0.9,1.1,2,0.4,3.1
		c-0.2,0.3-0.5,0.6-0.8,0.6C641.8,74.4,640.4,74.7,639.1,73.3z"/>
	<path d="M654.2,25.2c0.2-0.2,0.5-0.5,0.7-0.7c0.2,0.1,0.5,0.3,0.5,0.4c-0.1,1.3,0,2.6,0.1,3.9c0,0.4-0.4,0.8-0.7,1.3
		c-0.7-0.3-1.3-0.5-1.9-0.8c0.2-1,0.4-1.9,0.6-2.7C654.2,26.4,654.1,25.7,654.2,25.2z"/>
	<path d="M636.5,74.1c-0.5,0.1-1.1,0.2-1.6,0.2c-0.2,0-0.6-0.5-0.5-0.7c0-0.2,0.4-0.6,0.6-0.7C635.7,72.8,636.3,73.1,636.5,74.1z"/>
	<path d="M652.1,54.8c1.2-0.2,2.3-0.1,3.4,1C654,55.9,653,55.7,652.1,54.8L652.1,54.8z"/>
	<path d="M647.9,28c0.4-0.3,0.7-0.5,1.1-0.8c0.4-0.2,0.7-0.5,1.1-0.7c-0.1,0.5-0.1,0.9-0.2,1.4c-0.5,0.3-1.1,0.6-1.7,1
		C648.1,28.6,648,28.3,647.9,28z"/>
	<path d="M640.3,55.4c0.3-0.6,0.6-1.3,0.9-2C641.9,54.5,640.9,54.9,640.3,55.4z"/>
	<path d="M657.2,49.2c-0.1-1.2-0.1-1.7-0.2-2.9C657.9,47.4,657.9,48,657.2,49.2z"/>
	<path d="M632.9,58.5c-0.1,0-0.2,0-0.3-0.1c-0.2-0.4-0.3-0.8-0.5-1.1c0,0,0.2-0.1,0.2-0.1c0.2,0.4,0.5,0.7,0.7,1.1
		C633,58.3,632.9,58.5,632.9,58.5z"/>
	<path d="M616.8,37.7c0.1-0.1,0.2-0.2,0.2-0.2c0.1,0.1,0.3,0.2,0.4,0.4c0,0-0.1,0.2-0.2,0.2C617.1,38,617,37.8,616.8,37.7z"/>
	<path d="M633,73.8c-0.2,0.2-0.3,0.4-0.4,0.4c-0.2,0-0.4-0.2-0.5-0.3c-0.1-0.1,0.1-0.4,0.1-0.6C632.5,73.4,632.7,73.6,633,73.8z"/>
	<path d="M639.4,70.8c-0.2,0.3-0.4,0.5-0.6,0.6c-0.1,0-0.3-0.2-0.4-0.3c0.1-0.2,0.2-0.4,0.4-0.5C638.9,70.6,639.1,70.7,639.4,70.8z"
		/>
	<path d="M648.9,60c0.2-0.1,0.4-0.1,0.5-0.2c0.1,0,0.1,0.1,0.2,0.2c-0.2,0.1-0.4,0.1-0.5,0.2C649.1,60.2,649,60.1,648.9,60z"/>
	<path d="M639.3,59.6c0,0.1-0.1,0.2-0.1,0.2c0-0.1-0.1-0.2-0.1-0.3c0-0.1,0.1-0.2,0.1-0.2C639.3,59.4,639.3,59.5,639.3,59.6z"/>
	<path d="M632.5,70.9c0.1-0.3,0.2-0.6,0.3-1C633.2,70.5,633,70.7,632.5,70.9L632.5,70.9z"/>
	<path d="M632.4,70.8c0,0.2,0,0.4,0,0.6c0,0.1-0.1,0.2-0.2,0.3c-0.1-0.2-0.3-0.4-0.3-0.5C632.1,71.1,632.3,71,632.4,70.8L632.4,70.8
		z"/>
	<path d="M617.8,33c0.1,0.2,0.2,0.5,0.1,0.3C618,33.4,617.9,33.1,617.8,33L617.8,33z"/>
	<path d="M617.9,32.9c-0.1,0-0.2,0-0.3,0C617.7,32.9,617.8,32.9,617.9,32.9L617.9,32.9z"/>
	<path d="M619.2,31.6c0.1,0.1,0.2,0.2,0.3,0.3c-0.1,0-0.2-0.1-0.2-0.1C619.2,31.7,619.3,31.6,619.2,31.6L619.2,31.6z"/>
	<path d="M619.3,31.5c-0.1,0-0.2,0-0.3-0.1C619.1,31.5,619.1,31.5,619.3,31.5L619.3,31.5z"/>
	<path d="M615.6,38.6c0.2,0.1,0.3,0.2,0.5,0.2C615.6,39.2,615.7,38.8,615.6,38.6L615.6,38.6z"/>
	<path d="M659.4,171c-0.4-0.4-1.1-0.8-1.1-1.2c-0.3-2.7-2-4.3-4.1-5.7c-0.3-0.2-0.4-0.5-0.6-0.8c1.1-1.3,2-1.7,3.2-1.1
		c2.3,1,3.8,2.7,4.3,5.1C661.4,168.8,661,170.1,659.4,171z"/>
	<path d="M660.1,177.8c-1.1-0.4-1.1-1.4-1-2.3c0-0.7,0.6-1.4,1-1.2c0.4,0.3,1,0.7,1.1,1.2C661.3,176.4,661,177.2,660.1,177.8z"/>
	<path d="M664.4,161.9c-1.3,0.4-2.2,0.4-2.8-0.7C662.7,159.7,663.1,159.8,664.4,161.9z"/>
	<path d="M665.8,164.5c-0.4,0.5-0.7,0.8-1,1c-0.3-0.3-0.7-0.6-0.8-0.9c-0.1-0.4,0-1,0.6-0.9C665,163.7,665.3,164.1,665.8,164.5z"/>
	<path d="M660.3,182.8c-0.4-0.3-0.6-0.3-0.7-0.5c-0.1-0.2-0.2-0.5-0.1-0.7c0.2-0.4,0.4-1,0.7-1c0.6-0.1,0.6,0.5,0.6,1
		C660.7,182,660.4,182.4,660.3,182.8z"/>
	<path d="M660.1,184.8c-0.4,0.2-0.7,0.5-0.9,0.4c-0.2-0.1-0.5-0.5-0.5-0.6c0.1-0.2,0.4-0.5,0.7-0.5
		C659.6,184.1,659.8,184.5,660.1,184.8z"/>
	<path d="M629.8,166.5c-0.4-0.2-0.6-0.4-0.7-0.5c0.3-0.3,0.5-0.6,0.8-0.9c0,0,0.5,0.3,0.5,0.3C630.2,165.8,630,166.1,629.8,166.5z"
		/>
	<path d="M628.5,168.5c0.3,0.1,0.6,0.2,0.6,0.3c0,0.3-0.2,0.5-0.3,0.8c-0.2-0.1-0.5-0.1-0.5-0.2
		C628.4,169.1,628.5,168.8,628.5,168.5z"/>
	<path d="M646.2,117.6c0-0.2-0.1-0.3-0.1-0.4c0,0,0.1-0.1,0.2-0.1C646.2,117.2,646.2,117.3,646.2,117.6z"/>
	<path d="M628.9,109.6c0,0.1-0.1,0.2-0.1,0.3c-0.1-0.1-0.2-0.3-0.3-0.4c0,0,0.1-0.1,0.2-0.2C628.8,109.4,628.8,109.5,628.9,109.6z"
		/>
	<polygon points="646.6,14.1 646.7,13.9 646.6,14.1 	"/>
	<path d="M650,26.7c-0.1-0.7,0.2-1.2,0.8-1.6C650.8,25.8,650.8,26.5,650,26.7z"/>
</g>
</svg>
