<?xml version="1.0" encoding="utf-8"?>
<!-- Generator: Adobe Illustrator 19.1.0, SVG Export Plug-In . SVG Version: 6.00 Build 0)  -->
<svg version="1.2" baseProfile="tiny" id="Layer_2" xmlns="http://www.w3.org/2000/svg" xmlns:xlink="http://www.w3.org/1999/xlink"
	 x="0px" y="0px" width="900px" height="600px" viewBox="144 97 900 600" xml:space="preserve">
<g>
	<path d="M770.1,514.1c-0.7,1.5-2.1,1.7-3.5,2.1c-4,1.1-8.1,1.4-12.2,1.2c-5.6-0.2-11.2,0-16.9,0.2c-10,0.4-19.4,3-28.1,8
		c-6.1,3.5-12.3,6.9-16.6,12.7c-0.8,1-2,1-3.3,1.6c2.4,2.6,4.6,5.2,7.1,7.4c3.6,3.2,7.1,6.5,10.7,9.6c3.1,2.7,5.5,6.1,6.9,10
		c3.2,8.9,7.7,17,13.4,24.5c5.5,7.3,11.1,14.5,15.9,22.3c2.1,3.5,5.3,6.3,7.7,9.5c2.9,3.9,6.9,6.7,10,10.3c1.2,1.4,2.4,2.7,3.3,4.6
		c-0.6-0.1-0.9-0.1-1-0.2c-3.4-4-7.7-7.1-11.9-10.3c-2.7-2.1-5.4-4-8.6-5.2c-6-2.3-11.7-5.5-18.1-6.7c-3.7-0.7-7.4-1.4-11-2.2
		c-1.9-0.4-3.7,0.1-5.6,0.3c-8.1,0.9-16.3,1.9-24.2,4.2c-1.2,0.4-2.4,0.6-3.5,1.5c-1.3,1.1-3,1.2-4.6,1.4
		c-5.9,0.8-11.8,1.6-17.8,1.8c-2.7,0.1-5.4-0.2-8.1-0.4c-6.9-0.5-13.8-0.9-20.7-1.8c-2-0.3-4-0.2-6-0.3c-1.2,0-2.4,0-3.1-1.3
		c0.4-1.3,1.4-1.4,2.5-1.3c3,0.2,6.1,0.4,9.1,0.7c5.4,0.6,10.7,1.2,16.1,1.8c2.7,0.3,5.4,0.4,8.1,0.2c6.3-0.6,12.6-1,18.9-1.5
		c1.6-0.1,3-0.6,4.3-1.4c6-3.4,12.4-5.3,19.4-5.1c1.6,0,3.3-0.1,4.9-0.5c7-1.7,14-0.8,20.9,0.8c4.6,1.1,9.4,1.6,13.8,3.8
		c2,1,4,1.9,6,3.1c-0.7-1.8-1.6-3.4-3.3-4.4c-0.7-0.4-1.5-0.9-1.7-1.7c-0.8-2.8-3.1-4.6-4.7-6.9c-1.3-1.9-3.6-2.6-5.5-3.6
		c-5.4-2.7-11.1-4.9-17-6.6c-3.4-1-6.7-0.8-10.1-0.3c-8.9,1.4-17.7,3.6-25.9,7.4c-5.2,2.4-10.5,3.6-16.3,3.6
		c-8.1-0.1-16.1-0.3-24.1-2.1c-4-0.9-8-1.8-11.7-2.6c-1.7,0.5-2,2.3-3.9,2.9c-1.7,0.2-3.6-0.9-6-0.8c1.5,2.5,3.4,4.5,4,7.3
		c-0.3,0.6-0.6,1.1-0.9,1.7c0.4,1.4,2,2.1,2.3,3.8c0,1.9-1.4,2.8-3.1,3.5c-3.6,1.4-7.2,2.8-10.8,4.2c-1.4,0.6-2.8,1.2-4.3,1.8
		c0.6,1.7,0,3-0.6,4.4c-1,2.3-1.2,4.5,0.1,6.7c1,1.7,1.1,3.8,2.5,5.5c6.7,0,13.4,1,20.1,1.9c9.5,1.2,18.9,3.5,28.3,5.4
		c7,1.4,14.1,2.6,20.9,4.7c10.2,3.1,20.7,3.5,31,5.6c10.8,2.2,21.9,2.4,32.7,4.5c8.7,1.7,17.4,1.9,26.2,1.8c2.9,0,5.8-0.4,8.8-0.5
		c1.2-0.1,2.6-0.3,3.3,1c0,0.6-0.3,0.9-0.7,0.9c-12.5,1-25,1.2-37.6,0.6c-5.8-0.3-11.4-1.6-16.9-3c-6.1-1.5-12.4-2.4-18.7-3.1
		c-11.3-1.4-22.6-2.5-33.4-6.2c-11.4-4-23.5-5.3-35.3-7.8c-6.2-1.3-12.6-1.3-18.8-2.1c-2.6-0.3-5.3-0.6-8-0.9c0.1,1.6,1.4,3,0.9,4.8
		c-6.8,2.4-14.2,1.8-21.2,3.3c0,0.5,0,0.9,0,1.3c-0.9,0-1.7-0.2-2.4,0c-4.9,1.2-10,1.3-15,1.6c-3,0.2-5.8,1-8.4,2.2
		c-6.1,2.7-12.2,5.3-18.7,7.2c-1,0.3-1.3,0.6-2.3,1.9c-3.5,0.9-6.9,2.1-10.7,2.5c-6-2.2-11.4-6.1-14-10.3c0.2-0.9,0.8-1.1,1.6-0.9
		l-0.1-0.1c2.2,2.7,5.3,4.2,8.1,6c3.6,2.4,7.2,3.3,11,0.4c0.5-0.3,1.1-0.5,1.6-0.7c9.7-3.2,18.9-7.5,28.2-11.8
		c0.1-0.5-0.9-1.4,0.4-1.8c1.2,0,1.3,1.6,2.6,1.8c2.9-0.2,5.9-0.3,8.9-0.5c-0.1-1.4-1.5-2-1.3-3.4c0.2-0.8,0.8-1.4,1.7-1.4
		c2.6,0,4,2.2,5.8,3.6c1.3,0,2.6-0.2,3.7-0.7c0.3-0.7-0.4-1.1-0.6-1.6c-0.2-0.5-0.5-1.1-0.3-1.7c2.3-1.6,2.3-1.6,5.4,2.5
		c4.6,0.2,9.1-2.3,14-0.5c-0.8-1.9-1.6-3.5-2.6-4.9c-2.6-3.9-4.3-8.2-5.1-12.9c-0.3-1.5-1.4-2.9-0.7-4.6c0.7-1.6,2.1-2.5,3.5-3.3
		c3.9-2.2,8-3.9,12.1-5.5c1.5-0.6,3.3,0,4.6-1.3c1.1-3.2,0.4-5.9-1.7-8.5c-3-3.7-6.6-7-9.8-10.5c-1-1-2.2-2-2.4-3.4
		c-0.4-2.4-1.9-4-3.4-5.6c-2-2.2-4.3-4.2-5.6-6.3c-7.6-1.4-13.4,1.6-19,5.5c-1,0.7-2,1.2-3,1.8c-1.6,0.9-3,2.3-4.9,2.6l0.1,0.1
		c-0.1-0.5,0.3-0.9,0.7-1.2c3.8-3.5,7.8-6.7,12.6-8.8c1.4-0.6,2.5-2,4.1-1.9c3.6,0.1,7.2-0.1,9.8-0.3c7.3,6.9,11.8,15,18.6,21.3
		c2.4-1.7,4.9-0.4,7.6-0.2c0.6-1.3,1.7-2.1,3-2.9c-1.1-1.9-1.5-3.9-2.7-5.4c-6-7.4-12.3-14.4-20.3-19.7c-1.2-0.8-2.3-1.7-3.9-1.4
		c-2.1,2-4.3,4.1-6.5,6.2c-0.1-0.1-0.2-0.2-0.4-0.4c1.6-2.3,3.1-4.5,4.7-6.7c-4.8-1.4-9.2-1.1-13.4,1.4c-0.4,0.2-0.9,0.3-1.3,0.5
		c-1.7,0.7-3.2,1.7-4.6,3c-4.8,4.2-8.9,9-12.6,14.1c-2.2,3-4.8,5.4-8.4,6.7c-2.5,0.9-4.8,2.4-7,3.9c-0.7,0.4-1.6,0.8-1.8,1.6
		c-0.4,1.7-1.9,2.7-2.9,3.9c-3.6,4.2-6.6,8.7-9.2,13.6c-1.2,2.2-1.8,4.8-4.1,6.4c-0.6,0.4-0.8,1.4-1,2.2c-0.7,2.8-1.5,5.6-1.7,8.6
		l0.1-0.1c-0.5-0.1-1.2,0.3-2-0.9c1-4.4,0.8-9.5,5-13.2c0.7-0.6,0.9-1.3,1.3-2c2.6-6.1,6-11.6,11-16.2c0.6-0.6,1.2-1.1,1.7-1.8
		c2.6-3.6,6.2-6.1,10.3-7.6c1.8-0.6,3-1.7,3.9-3.3c3-5.2,6.7-9.8,10.9-14.1c4.4-4.4,9.3-7.8,15.3-9.5c1.2-0.3,2.3-0.2,3.5-0.1
		c3.9,0.4,7.8,1.2,11.7,1.9c0.7,0.1,1.3,0.5,1.9,0.9c9,5.4,16.4,12.5,22.7,20.7c1.8,2.4,2.9,5.3,3.7,8.2c13.5,3.2,27,5.5,40.8,3.2
		c3.7-0.6,7.2-2.1,10.6-3.5c8.6-3.6,17.5-6,26.7-6.9c7.4-0.7,14.2,0.8,20.6,4.4c1.7,0.9,3.4,1.8,5.5,2.1c-1.8-2.2-3.7-4.4-5.4-6.7
		c-2.3-3-5-5.6-6.9-9c-1.8-3.3-3.2-6.8-4.9-10.1c-2.9-5.9-6.3-11.5-10.9-16.3c-1.4-1.4-2.8-2.8-4.3-4.2c-8.8-7.8-16.1-17-22.9-26.5
		c-9-12.4-10.8-26.1-6-40.7c0.8-2.5,1.1-5.3,1.6-7.9c1.9-9.3,5.9-17.5,12-24.7c2.3-2.7,4.3-5.6,6.8-8.1c3-3,6.2-5.7,9.8-8
		c5.9-3.8,11.5-8.1,17.9-11.1c5.1-2.3,10.2-4.5,15.1-7.2c6.5-3.6,13.4-5.2,20.7-6.2c6.1-0.8,12.1-2.5,18.3-3.2
		c7.3-0.9,14.7-1.7,22.1-1.2c5.8,0.4,11.7,0.2,17.6,0.6c5.5,0.4,10.5,2.3,15.6,3.9c1.9,0.6,3.8,1.1,5.7,1.5
		c12.2,2.5,23.9,6.5,35.2,11.9c9.3,4.4,18.6,8.9,27.7,13.8c3.7,2,6.6,4.8,9.9,7.1c0.7,0.5,1.1,1.5,1.6,2.3c3.3,4.9,6.7,9.9,9.8,15
		c3.2,5.1,7.2,9.5,10.5,14.4c4.6,7.1,10.4,13.6,12.1,22.4c1,4.8,1.8,9.7,2.4,14.6c0.8,7.3,1.3,14.7,1.9,22
		c0.5,6.1-0.6,11.9-3.7,17.6c4.5,2.7,10.2,2.7,14.3,6.3c3.3-5.2,2.7-10.7,1.4-16.4c-1.3,0.4-1.1,1.7-1.6,2.4c0,2.1,1.7,3.6,1.5,5.9
		c-2.1-1.9-2.1-1.9-3.3-4.6c-1.4,1.8-1.4,1.8,0.7,5.2c-0.3,0.8-1.4-0.1-1.7,0.7c-0.3,0.6-0.6,1.2-1.7,1c-0.4-1.8,0.9-3.8-0.4-5.2
		c0.5-2.6,2.6-3.5,3.8-4.9c0.6-1.6,0.4-3.3,0.3-4.9c-0.2-2.1,0-4.2,1.3-6c0.6-0.8,0.7-1.7,0.7-2.7c0.1-3.1,1.7-5.8,2.4-8.8
		c0.2-0.8,1.1-1.1,1.8-1.9c-0.4-1.4-0.4-2.8,0.3-4.3c0.9-2.1,0.6-4.4,0.4-6.6c-0.3-3.3,0.2-6.6,0.9-9.8c0.6-2.8,1.5-3.5,4.5-4.5
		c0.9-1.3,2-2.6,3.7-3.4c0.3-3.4,0.9-6.7,1.7-10.1c-5.2-3.8-5.7-9.4-5.4-15.1c0.3-4.8,1.2-9.5,1.7-14.3c0.2-2.1,1.2-3.2,3-3.9
		c1.7-0.8,3.4-1.5,5.3-2.4c0.7-4.7,1.4-9.4,2.2-14.2c0.7-3.9,1.4-7.8,2.3-11.7c0.4-1.6,0.4-3.2,0.2-4.8c-0.2-1.9-0.2-3.7-0.4-5.6
		c-0.3-2.6,0.6-4.4,3.4-4.9c0.4-1.6,0.7-3.2,1.1-4.8c0-1-1-1.7-0.7-2.7c0.1-1.5,1.6-2,2.3-3.1c1.5-9.5,3.1-18.9,4.6-28.4
		c4.1-25.2,8.2-50.4,12.3-75.6c3.9-23.7,7.7-47.4,11.6-71.1c4.6-28.3,9.2-56.6,13.9-85c0.5-2.8,0.9-5.6,1.3-8.3
		c0.1-0.8,0.2-1.7,0.6-2.4c0.5-1,1.4-1.6,2.6-1.4c1.3,0.2,2.2,1,2.2,2.4c0,1.3-0.2,2.6-0.4,3.8c-4.4,26.9-8.8,53.9-13.2,80.8
		c-3.9,23.7-7.8,47.4-11.6,71.1c-4.1,25.2-8.2,50.4-12.3,75.6c-2.1,13.2-4.3,26.4-6.4,39.5c-0.4,2.2-1.1,4.1-3.1,4.8
		c-1.1,3.1-1,5.8,0.1,8.5c1.5,3.5,1.2,6.8-1.4,9.8c-1.4,1.6-1.5,3.6-1.8,5.6c-0.9,5.7-1.8,11.3-2.8,17c-0.2,1.3-0.3,2.8-1.4,3.9
		c-1.1-0.6-1.2-1.5-1.1-2.4c1-6.9,2-13.9,3.1-20.8c0.2-1.5,0.6-3.1,1.6-4.2c2.5-2.6,2.7-5.6,1.6-8.8c-0.7-0.6-1,0.3-1.4,0.4
		c-0.9-0.1-0.6-1.2-1.5-1.4c-0.2,0.2-0.5,0.4-0.6,0.7c-0.2,0.8-0.3,1.6-0.3,2.4c0.5,7.7-1.4,15.1-2.4,22.6
		c-0.7,4.9-0.9,9.8-2.3,14.5c-0.4,1.1-0.2,2.3,1,3.3c1.7-1.5,0.3-4.2,2.2-5.6c4.2,0.7,6.3,2.9,6.6,6.8c0.1,0.8,0.1,1.7,0,2.5
		c-1.2,8.6-3,17-7.4,24.7c-0.6,1-1.3,1.9-2.4,2.6c-0.7,3.5-1.3,7.1-3.2,10.2c0.2,1.2,1.5,1.7,1.4,2.9c0,1-0.5,1.8-1.6,1.9
		c-0.9-0.6,0.1-1.7-0.9-2.3c-5.3-0.7-9.7,2.6-10.3,8c-0.1,1.3-0.3,2.6-0.3,3.9c0,1.4,0.3,2.8,0.5,4.9c1.5-3.5,2.6-6.5,4.9-8.7
		c2.3-2.3,4.4-4.9,8.1-5c1.2,2.6-0.4,4.5-1.5,6.6c0.3,1.3,0.6,2.6,0.9,4c0.3,1.2,0.6,2.5,0.1,3.5c-1.3,2.4-0.5,5.1-1.1,7.5
		c-1,4.5-1.7,9.3-3.5,13.5c-1.4,3.2-1.6,6-0.6,9c1.1,3.3,0.6,6.5,0,9.7c-0.4,2.3-0.6,4.7-0.1,7c0.7,3.5-0.1,6.7-1.5,9.9
		c-1,2.3-1.8,4.6-0.9,7.2c2,0.9,3.9,1.7,6.3,1.4c4.1-0.5,7.9,0.9,11.3,3.1c2.4,1.5,3.6,4,4.3,6.7c0.6,2.5,1.4,4.9,2.4,7.3
		c0.9,2.2,1.1,4.5,1.2,6.9c0.1,8.5-2,16.8-3.1,25.2c0.8-9.6,2.7-19.1,1-29.5c-0.8,1.8-0.6,2.9-0.5,4c0,7.1-0.7,14-1.9,21
		c-1.5,8.2-0.1,15.9,5.5,22.4c2.7,3.2,6.1,5.3,9.9,7.2c-4.3-0.6-8.1-2.3-11.1-5.7c-5.2-5.9-7.1-12.9-6.1-20.5
		c1.1-8.5,0.5-17.1,0.8-25.6c0.1-2.2-0.1-4.5,0-6.7c0.1-2.1-0.7-3.6-2.4-4.7c-4.7-3-9.6-5.4-15.5-4.3c-0.3,0.1-0.6-0.1-1.3-0.3
		c1.4-2.2,3.4-2.5,5.4-2.1c3.6,0.7,7.1,1.6,10.3,3.5c0.5,0.3,1,0.6,2.1,1.3c-0.9-2.2-1.9-3.4-3.5-4.2c-2.3-1.2-4.7-2.2-7.2-2.6
		c-2.4-0.3-4.8-0.9-7.4-1.6c-1.1,5.6-3.4,10.9-4.2,16.6c-0.2,1.6-0.4,3.2-0.2,4.9c1.5,9.6,1.8,19.4,2.9,29c0.1,0.8-0.2,1.6,0.3,2.3
		c1.1,0.2,0.8-1.5,2.1-1.2c0.8,2.3-0.5,4.6-0.6,6.9c-0.2,2.6,0.6,4.8,2.2,7.1c0.2-1.5,0.6-3,0.6-4.5c0.2-5.7,1.2-11.4,1.8-17.1
		c0.4-4.6-0.3-9.1-1.4-13.6c-0.7-2.9-2.6-4.9-5-6.5c-0.9-0.6-1.9-0.9-2.2-2.3c1-1.7,2.4-1.5,3.8-0.7c3.3,1.9,5.7,4.5,6.7,8.2
		c1.8,6.4,2.4,12.9,1.2,19.5c-0.5,2.8-0.7,5.6-1.5,8.3c-0.7,2.5-0.3,4.6,0.8,6.8c1.9,3.9,4.7,7.2,7.8,10.3c0.7,0.7,1.5,1.2,2.4,1.3
		c2.2,0.2,4.4,0.9,6.6,0.6c0.4-0.4,0.2-0.7,0-0.9c-6.8-7.2-9.6-16.2-11.1-25.7c-1-6.3-1-12.6-1.4-18.9c-0.2-3.5-0.5-7-1.3-10.4
		c-0.6-2.4-1.6-4.7-3.1-6.6c-1.6-2.1-3.6-3.3-6.4-2.2c-0.3,0.1-0.7,0.1-1-0.1c2.2-2.2,4.3-2.4,6.7-0.7c1.7,1.2,2.8,2.9,3.7,4.6
		c2,3.7,2.5,7.8,2.9,11.9c0.7,7.5,0.8,15,2,22.4c1.5,8.6,3.9,16.9,9.6,23.8c0.8,1,1.7,1.9,2.4,2.7c6.2,1.3,10.9-1.6,15.8-4.9
		c-0.2,1.4-0.9,1.7-1.5,2.2c-0.5,0.4-1.2,0.8-1.7,1.1c0.2,1.1,1.3,0.1,1.7,0.8c-2,1.1-4.6,0.8-7.1,2.3c3.6,0.3,6.5-0.9,9.6-1.2
		c1,0.1,0.9,1.6,2.3,1.4c-0.5,0.6-0.6,1-0.9,1.1c-2.9,1-6,0.9-9,1.6c-0.6,0.2-1.3,0.3-2.5,0.6c2.6,2,5,1.3,7.4,1.2
		c2.3-0.2,4.6-0.3,7-0.2c-2.7,1.4-5.6,1.1-9.1,1.6c2.2,1.6,4.2,1.1,6.1,1.4c-0.7,0.4-1.4,0.8-1.9,1c-6.2-0.3-12-1.7-18-1.7
		c-10.5,0.1-21.1-0.3-31.2-3.9c-2.1-0.8-4.5-1.2-5.6-3.6c4,1.9,8.2,2.9,13.3,3.9c-4.3-3.7-8.9-6-9.3-11.6c-0.4-4.6,0-7.6,1.9-10.4
		c-0.4,2.9-0.4,5.4-0.3,7.9c0.2,4.7,2.8,7.7,6.8,9.8c1-0.8,0.8-1.5,0.3-2.2c-0.7-1-1.4-1.9-2.2-2.8c-2.8-3.2-3.4-7-2.5-10.8
		c0.7-3.1,0.6-6,0.3-9c-0.7-6.9-1.5-13.7-1.4-20.7c0-0.6-0.1-1.1-0.3-2.3c-1.4,2.3-1.3,4.5-2.1,6.4c-0.8,1.8-0.3,4.1-0.4,6
		c2.4,5.8,5,11.4,1.4,17.3c-1.6,0.9-3.3,1.2-4.4,2.6c-0.5,0.9,0.8,1.7,0.4,2.3c-1.1,2.6-3,3.3-5.2,3.7c-0.5,1-1,1.9-1.5,2.8
		c-0.6,1.3-1.6,2-3,2.1c-1.8,0.2-3.3,0.8-4.8,1.9c-3.1,2.3-6.6,1.2-9.7-0.2c-9.2-3.9-18.9-6.3-28.4-9c-1.3-0.4-2.8-0.5-4.2-0.6
		c-7-0.4-14-0.8-21.1-0.9c-14.5-0.2-28.7-2.3-42.5-6.7c-1.8-0.6-3.6-1-5.4-1.5c-7.8-2-14-6.3-19-13.2c1.7-3.5,1.6-7.6,2.6-11.5
		c1.4-5.1,4.2-9.4,7.4-13.4c0.9-1.2,1.9-2.4,2.9-3.7c-8.8-4.6-15.6-11.5-21.7-18.7c4-16.1,7.9-21,16-31.4c-4.7-9.5-9.4-19-5.5-29.6
		c-2-4.2-6-5.2-9.7-7.3c4.8-1.7,7.5,0,11.9,6.8c-2.4,11.4,1.7,21.2,8,30.3c2.7,3.9,7.1,5.2,11.3,6.7c1.8,0.6,3.6,1.1,5.3,1.8
		c4.3,1.6,8.8,2.4,13.4,2.3c2.1,0,4.2,0.2,6.2,1.1c1.5-0.6,2.5-1.6,3.7-2.7c-1.2-1.7-2.3-3.4-3.3-5c-3.9-6.1-5-13-6.1-20
		c-0.2-1.2,0-2.3,0.4-3.5c2.8-8.1,5.3-16.2,8.8-24.1c2.8-6.2,6.5-11.8,11.6-16.1c3.8-3.2,8.4-5.5,13.2-6.9
		c5.6-1.6,11.4-2.6,17.3-2.4c1.8,0,3.4,0.5,5.1,1.2c4.1,1.9,8.3,3.7,12.2,6.6c0-1.3-0.7-1.7-1.2-2.2c-4.4-4.9-7.8-10.5-11.3-16.1
		c-3.3-5.4-7.3-10.3-11.3-15.2c-1.1-1.4-2.6-2.3-4.2-3.2c-8.1-4.7-16.3-9.3-24.8-13.1c-12.1-5.3-24.8-9.2-37.5-12.8
		c-0.5-0.2-1.1-0.1-2-0.2c-0.9,4.8-1.9,9.5-2.6,14.2c-1.2,8-2.7,15.9-5.1,23.7c-2,6.5-3.7,13.1-5.3,19.6c-2.2,8.8-5.7,17.1-9.2,25.4
		c-0.4,1-0.7,2-2.4,2.5c-0.2-0.9-0.3-1.8-0.5-2.8c-2.7-0.2-5.6-0.1-8.3-0.9c-2.7-0.8-5.4-1.7-7.2-4c-0.4-0.5-0.8-0.9-1.4-1.1
		c-2.3-0.7-4.1-2.2-5.8-4.1c-4.6,2.2-8.8-1.6-13.6-0.5c1,2.3-2,4.2-1.2,7c0.7,2.6,0.8,5.3,1.5,7.9c0.7,2.6,1,5.4,3.3,7.3
		c-0.3,3.5,0.4,6.7,1.8,9.8c4.2,9.6,8.7,19.2,12.4,29.1c0.5,1.3,1.1,2.6,1.2,4c0.8,8.1,3.6,15.7,5.7,23.5c3.6,13.1,7,26.3,9,39.7
		c1.3,8.9,1.7,17.7-0.6,26.5c-0.2,0.7-0.6,1.6-0.3,2c1.4,2.2,0.1,4.2-0.8,5.9c-2.6,4.9-5.9,9.3-9.9,13.1c-0.5,0.5-1,1-2,0.8
		c-0.9-1.4,0.3-2.3,1-3.2c2.5-3.4,5.1-6.8,7.8-10c2-2.4,2.6-5.1,2.5-8.2c-0.2-3.7,0.2-7.5,0.2-11.2c0.1-4.4-0.5-8.9-1.3-13.2
		c-4.2-24.3-10.3-48.1-17.9-71.5c-2.1-6.6-5-12.9-7.7-19.2c-1.9-4.6-3.5-9.2-4.4-14C770.7,515,770.8,514.4,770.1,514.1
		c-0.1-0.4,0.1-0.9-0.1-1.3c-1.8-4.5-2.1-9.2-2.6-13.9c-0.4-3.8-0.4-7.5,2.1-10.8c0.1-0.1,0-0.4,0-0.7c1.1-0.2,2.3,0,3.6-0.8
		c-1.4-4.8-2.9-9.5-3.7-14.5c2.2,4.9,3.7,10,5.3,15c2.7,0.5,5.3,1.9,8,0.1c0.1-0.6,0.1-1.2,0.2-1.7c0.1-0.5-0.2-1.2,0.5-1.4
		c0.1,0,0.3,0,0.3,0.1c0.8,0.9,0.2,2.1,0.6,2.7c6.6,6.7,14,11,23.7,11.6c9.6-26.3,16-53.6,20.5-81.7c-4.7-1-9.3-2.1-13.7-3.5
		c-0.5-0.2-1.1-0.2-1.7-0.3c-19.2-1.3-38.4-1.5-57.4,2.7c-5.5,1.2-11.2,1.8-16.4,3.8c-7.1,2.8-13.9,6.3-20.4,10.8
		c1.9,1.9,3.7,3.7,5.9,5.1c6.7,4.5,12.6,10.1,19.2,14.7c2.2,1.6,4.1,3.5,5.6,5.8c3.2,4.7,6.4,9.5,9.7,14.2c3.2,4.5,5.1,9.8,8.9,13.9
		c0.8,0.9,1,2.1,1.1,3.3c-1,0.4-1.8-0.2-2.7-0.6l0.1,0.1c-0.2-0.4-0.4-0.8-0.8-1.1c-4.7-4-9.4-8-14-12c-0.8-0.7-2-1.1-2.2-2.5
		l-0.1,0.1c1.9,0.1,2.8,2.3,4.8,2.5c-1.4-1.7-2.9-3.2-4.5-4.6c-1.6-1.5-3.3-3-5-4.4c-1.7-1.4-3.4-2.8-5.2-4.2
		c-1.8-1.4-3.6-2.6-5.4-4c-1.7-1.3-3.8-1.9-4.8-4.1c6.5,3.1,12,7.6,17.5,12.2c5.5,4.6,10.4,9.7,15.3,15.8c-1-4.2-3.9-6.2-6-8.8
		c0.4-0.6,0.7-1.1,0.2-1.8c-5-7.5-10.4-14.6-17.8-20.1c-7.8-5.8-16.4-10.9-22.7-18.6c-0.5,0.2-0.9,0.3-1.1,0.5
		c-6.4,5.5-13.8,9.5-20,15.2c-9.2,8.4-15.7,18.2-19.3,30c-2.2,7.2-3.7,14.5-4.7,21.9c-0.7,5.4,0,10.9,2.1,15.9
		c3.2,7.6,7.7,14.4,12.8,20.9c0.6,0.7,1,1.6,2.3,1.9c0.9-2.2,2.3-4.2,4.2-5.8c8.7-7.4,18.6-12.6,29.6-15.4c9.9-2.5,20-2.5,30-1.8
		c5.4,0.4,10.8,0.9,16-0.7C768.9,513.6,769.5,513.9,770.1,514.1z M955.8,619.7c-1.7,0.2-2.8,1.5-4.2,2.1c0.3,1,1,1.4,1.9,1.5
		C954.8,622.4,954.9,620.8,955.8,619.7c0.9-0.3,1.3,1,2.4,0.8c0.3-1.2,0.5-2.3,0-4C957.3,617.8,956,618.3,955.8,619.7z M957.8,567.4
		c3.2-3.2,5.8-6.9,9.1-9.7c-0.3-5.6,2.4-11-0.8-16.5c-1.7,2.6-3.1,5.1-4.8,7.3c-3.2,4-3.2,9.1-4.8,13.6c-0.3,0.7-0.4,1.8,0.4,2.8
		c1-6.5,3.6-11.9,8.1-15.9c1.3,0.2,1.6,0.8,2,1.6c-2.7,4-5.3,8.1-7.7,12.4C958.7,564.4,957.8,565.8,957.8,567.4
		c-1.4,0.5-2.1,1.6-2.6,2.9c-0.7,1.7-0.7,1.7-0.2,4.5C955.5,571.7,957.5,570,957.8,567.4z M940.4,611.1c-1,1.1-2.5,1.2-3.8,1.4
		c-4.7,0.9-9.4,1.6-14.2,1.5c-1.6,0-3.2,0.6-4.7-0.9c-0.9,1.2-1.6,2.2-2.3,3.2c1.6-0.3,3.1-0.3,4.5-0.2c5.6,0.2,11.2,0.1,16.7-1.3
		c2.1-0.5,3.6-1.6,5.2-3.4c-0.9-0.1-1.2-0.2-1.5-0.2c1.7-1.1,3.8-0.6,5.3-1.8c0.5-1,1-1.9,1.3-2.9c0.5-1.4,1.6-2.8,0.4-4.4
		c2.3-1.5,2.2-3.7,1.9-6.1c-3.3,1.2-6.5,1.6-9.9,2c1.6,0.9,1.6,0.9,2.4,2.6c-6.8-1.1-13.4-1.8-19.9-4.1c0.7-1.4,2-0.6,2.7-1.5
		c0.5-2,2.2-3.3,3.6-4.8c0.6,0.9-0.2,1.8,0.5,2.4c3.4,3.5,8,0.3,11.3,1.7c1.1,0.7,0.7,2,2.2,2.2c2.6-0.4,5.3-1.2,7.9-2.7
		c0.4-1.1,1.8-1.9,1.3-3.7c-4,0.3-8-1-12.1-0.5c0,0.8,0.9,1.3,0,2.2c-2.7-1.3-5.9-1.3-9.2-3.2c2.7-0.5,4.5,0.7,6.2,0.7
		c5-2.4,10.1-0.8,15.1-1.4c0.2-1.9,0.3-3.6-0.1-5.4c-4.6-1.5-9.4-1.7-13.8-2.2c-0.9,0.7,0.5,1.4-0.4,1.9c-4-2.3-7.8-5-11.6-8.1
		c1.8-0.3,3.1-0.9,4.7-0.4c3.4,1.1,6.9,1.9,10.4,2.7c3.8,0.9,7.7,1.6,12,2.4c-0.9-4.9,0.8-8.9,1.8-12.9c-2.1-1.7-4-3.1-5.9-4.5
		c-1-0.1-2-0.5-3,0c-0.1,1.2,1.8,0.7,1.6,2c-2.6,0.7-13.8,1.2-16.2,0.8c-1.4,1.3-3.2,2.1-4.4,3.8c18.7,1.7,21.7,2.4,24.7,5.8
		c-10,0.3-19.6-0.9-29.8-2.5c-1,0.6-2.7,1.3-4.1,2.9c4,1.9,6.7,4.7,7.5,8.9c0.4,2.2,0.7,4.4,0.6,6.6c0,3.2-2.9,5.7-6.1,5.5
		c-3-0.2-5.4-1.6-6.6-4.5c-0.3-0.6-0.7-1.4,0.4-1.7c1.1,0.1,1.3,1.2,1.9,1.8c1,1.1,2.2,1.7,3.7,1.9c2.6,0.3,4-0.9,4-3.6
		c0-1.1-0.1-2.1-0.1-3.2c-0.1-3.4-1.4-6.2-4.2-8.1c-1.3-0.8-2.2-2.1-3.3-2.9c-3.2,1.2-6.2,2.5-9.3,3.6c-5.2,1.7-9.7,4-13.2,8.5
		c-4.8,6.2-10.4,11.7-15.6,17.5c-1.6,0.8-3.1,1.9-4.6,3.3c2.1,0.6,3.8,1.1,5.6,1.6c0.6-0.9,0.9-1.8,1-3c-1.1-0.2-1.7-1-2.1-2
		c2.5,0.8,5.3,0.2,7.6,1.4c-0.2,1.3-1.4,0.6-1.9,1.3c-0.1,0.8-0.3,1.6,0.3,2.5c1-0.7,1.7-1.6,2.3-2.6c0.6-0.9,1.4-1.6,2.7-1.2
		c-1.8,1.6-2.8,3.5-3.9,5.5c4.5,2,8.9,3.8,13.3,5.8c4.3,2,8.8,3,13.6,3c0.2-1.2,0.8-1.9,1.4-2.7c1.1-1.5,2.7-2.6,3.5-4.4
		c0.7-0.4,1.3-0.9,2-1.3c2.8,0.8,5.6,0.3,8.4,0.2C930.9,611.9,935.6,611.5,940.4,611.1z M859.2,613.5c3.8-2.4,7.6-4.9,11.5-7.3
		c3.8-2.3,6.8-5.2,9.5-8.7c3-4,6.3-7.9,9.6-11.7c3.3-3.8,7.5-6.2,12.2-7.9c1.3-0.5,2.6-0.2,3.9-0.9c8.9-5.2,17.5-10.9,25.6-17.3
		c8-6.3,8.2-6.6,8.9-16.7c0.9-13.5-0.7-26.9-2.5-40.3c-0.1-1.1-0.6-2-1.1-2.9c-2.4-4.2-4.8-8.3-7.5-12.3c-0.9-1.4-2-2.6-3.4-3.5
		c-3.7-2.4-7.5-4.7-11.6-6.5c-2.2-1-4.4-1.3-6.8-1.3c-8.6,0.2-16.9,2.7-25.2,4.5c-1.8,0.4-3.2,1.5-4.2,3c-3.2,4.2-6.5,8.3-8.7,13.1
		c-4,8.6-6.7,17.7-9.8,26.7c-0.4,1.3-0.3,2.6-0.1,3.8c0.4,2.4,0.8,4.9,1.4,7.2c1.3,5.2,3.8,9.7,7.1,14.1c5.1-3.5,10-6.7,14.7-10.1
		c2.2-1.5,4.3-3.2,5.1-6c0.4-1.5,2.4-3.4,4.4-5c-2.1,4.5-3.4,8.6-6.6,11.7c-2.8,2.7-5.9,5-9.1,7.1c-2.7,1.8-5.5,3.5-8.4,5.3
		c0,0.7,0.6,1.3,0,2.1c-0.2,0.2-0.4,0.5-0.7,0.6c-10.7,6.7-19.3,15.9-28.1,24.9c-0.6,0.7-1.2,1.4-1.7,2.2c-1.1,2.1-2.6,3.9-4.1,5.7
		c-2.6,3.1-5.3,6.2-7.8,9.5c-2.2,2.9-4.5,5.7-5.9,9.1c-2,4.5-2.5,9.5-4.4,13.8c4.5,5.5,9.8,9,16.5,10.6c6.3,1.5,12.5,3.2,18.7,4.7
		c7.5,1.8,15.1,3.4,22.9,3.7c9,0.2,18,0.6,27,1c2.3,0.1,4.7,0.4,7,0.9c8.2,1.8,16.3,4.4,24.2,7.3c2.9,1.1,6,2.1,8.3,4.2
		c2-0.3,3.5-1,4-2.5c1.7-1,3.3-0.6,4.9-1.3c0.7-1.2,1.5-2.4,2-3.4c1.6-1,3.3-0.7,4.4-1.9c1-1.2-0.3-2.5-0.1-3.5c0.9-2,3-1.7,4.1-2.8
		c3.8-3.7,1.7-8.1,1.4-12.3c0-0.5-0.2-1.2-1-1.3c-0.4,0.5-0.8,1-1.1,1.4c-0.9,0.4-1.1-1.2-2-0.3c-0.6,0.7,0.7,1.1,0.3,1.8
		c-0.3,0.2-0.7,0.5-1.2,0.9c-1.2-0.9-2.7-0.7-4.2-0.5c0.3-2-1.4-2.3-2.4-3.1c-1.1-1-2.4-1.8-3.7-2.8c0.1-2.4,0.8-4.7,2.4-6.7
		c-1.3-0.4-2.3-0.7-3.4-1.1c-2.7,1.7-5.5,3.2-8,5c-4.7,3.4-10,5.1-15.7,5.6c-5.8,0.5-11.6-0.2-17.3-1.5c-3.4-0.8-7-1.1-10.1-2.7
		c-7.7-3.8-15.9-6-23.7-9.3C866.4,611.3,863.3,613.4,859.2,613.5z M806.5,572c6.3,6.6,12.5,13.6,21.3,17.5
		c7.1-6.9,11.8-15.5,18.3-22.5c-0.6-1.4-2.3-1.7-2.2-3.1c3.4-3.5,8.4-4.2,12.4-7.8c-6.6,0.1-12.4-1.2-17.9-3.5
		c-0.4-0.2-0.9-0.3-1.3-0.4c-5.8-1.7-11.3-4-15.2-9C815.9,552.2,809.5,560.9,806.5,572z M976.1,478.4c0.2-0.8,0.3-1.2,0.4-1.7
		c1.6-6.4,2.2-13.1,4.6-19.4c0.3-0.9,0.3-1.8,0-2.8c-0.1-0.3-0.4-0.6-0.5-0.8c-1-0.2-1.4,0.9-2.4,0.6c-1.4-0.1-2.2-1.4-3.4-2.2
		c-2.9,3.4-3.7,7.2-3.3,11.3c0.4,3.7,0.7,7.4-0.4,11.1c-0.3,1.1-0.1,2,0.6,3C973.1,477.4,974.6,477.3,976.1,478.4z M967.5,561.9
		c-4.9,6-9.1,11.8-13,17.6c0.2,0.8,1.1,1.1,0.8,1.9c-0.5,0.3-1.2-0.1-1.8,0.7c-0.2,1.5-0.4,3.3,0.2,5.9c2.6-6.6,6.4-11.4,11.1-15.5
		C965.2,569.1,967.6,566.1,967.5,561.9z M949.2,611.7c3-4.3,7.4-7.5,9.7-12.3c0.8-0.7,1.7,0.4,2.3-0.2c0.4-2.5,1.1-4.8,1.1-7.9
		c-5.4,6.2-11.2,11.5-14.8,18.2C947.9,610.4,948.2,611.2,949.2,611.7z M951.3,599.7c2.8-5,6.7-9,10.8-12.8c2.5-2.3,3.2-5.5,2.6-9.4
		c-3.2,3.7-6.1,7-8.9,10.4C953.1,591.2,951,594.9,951.3,599.7z M961.1,602.3c-3,5.2-7.6,8.9-12.4,12.3c-0.3,1.6-0.7,3.2-1,4.6
		c0.9,0.8,1.5,1.5,2.6,1.6c2.6-3.1,5.3-6.1,7.8-9.4C960.2,608.8,960.8,605.6,961.1,602.3z M958.2,548c1.6-2.3,2.4-5,4.3-7
		c2.1-2.2,3.6-4.8,5-7.5c0.8-1.7,1.2-3.3,0.8-5.3C962.4,533.8,959.5,540.5,958.2,548z M960.3,533.1c1.5-2.7,3-4.9,4.7-6.9
		c1.8-2.2,4.2-3.7,6.2-5.6c0-2.1-0.6-4-0.1-6.3C964.2,522.2,960.2,529.1,960.3,533.1z M972,647.6c2.3,2.9,4.6,4.3,8.7,5.3
		c-2.8-3.4-5.4-6.6-7.5-11.1C972.8,644.3,972.4,645.9,972,647.6z M914.5,620.7c5.9,0.3,11.6-0.2,17.3-3.2c-4.3-0.2-8.1,2.6-11.8,0
		C917.9,618.2,915.5,617.9,914.5,620.7z M980.5,451.2c2.9,3,3.3,4.2,2.4,8.2c-0.3,1.6-1.1,3.2-0.8,5.4c1.4-3.7,2.4-7,2.5-10.6
		c0.1-2.3-0.7-4.1-2.7-5.3c-0.3-0.2-0.7-0.2-1.1,0.1C980.7,449.7,980.6,450.4,980.5,451.2z M971.9,509.8c-0.3-1.7-0.6-3.1-1-5.1
		c-2.7,3.3-4.4,6.8-5.8,10.4C967.4,513.3,969,510.8,971.9,509.8z M936.7,598.3c-3.7-1.4-6.3-3.3-9.1-4.6c-0.8,0.8-1.4,1.5-1.1,2.5
		C930.5,598.1,932.4,598.5,936.7,598.3z M992.8,660.9c-7.2-0.2-14.4-0.7-21.6-1.7C978.2,661.6,985.5,660.6,992.8,660.9z
		 M972.8,480.6c0.1,4.3-2,8.1-2.1,12.6c1.3-1.8,3.1-8,3.2-10.7C974,481.8,974.1,481.1,972.8,480.6z M969.5,457.3
		c1.2-3.5,3-5.5,5-7.5c-1.8,0.5-3.5,1.2-4.8,2.4C969.3,453.7,969,455,969.5,457.3z M936.2,560.5c2.2,0.4,4.3,0,6.5,0
		c-0.1-0.3-0.2-0.4-0.2-0.4c-1.4-0.7-2.9-1.3-4.3-2C937.2,558.6,936.4,559.2,936.2,560.5z M956,543.7c2.3-2.6,2.4-6.2,0.5-8.8
		C957.5,537.8,956.6,540.5,956,543.7z M968.5,472.1c0.7-2.4,0.6-4.7,0.2-7.1C968.4,467.4,967.6,469.7,968.5,472.1z M934.1,595.4
		c1.6,1.7,3.4,2.2,5.8,1.2C938,595.3,935.9,595.9,934.1,595.4z M996.3,660c1.9,1.4,1.9,1.4,5,0.5C999.6,659.4,998,659.9,996.3,660z
		 M847.6,565.5c0.9-0.9,2.1-1.3,2.4-2.9c-1.4,0.5-2.5,0.9-3.6,1.3C846.4,564.7,846.8,565,847.6,565.5z M971.3,654.2
		c0.5,1.9,0.5,1.9,3.8,2.3C974,655.3,972.7,654.8,971.3,654.2z M598.3,629.3c-0.8,1.8-0.8,2.8,0.6,4.2
		C598.7,632,598.6,630.9,598.3,629.3z M936,577.8c-1.3-0.5-2.1-1.3-3.2-0.7C933.6,578,934.5,578.2,936,577.8z M961.8,520.3
		c0.8-0.4,1.4-0.8,0.7-1.7C961.4,518.8,961.3,519.4,961.8,520.3z"/>
	<path d="M536.1,212.5c3.6-3.2,8-4.1,12.5-4c3.8,0.1,7.6,0.4,11.4,0.5l-0.1-0.1c0.1,1.6-1.5,1-2.7,1.8c3.8,1.7,4.2,5.9,6.8,8.3
		c0.1,1-1,0.8-1.3,1.5c-0.3,0.8,1,1.7,0,2.5l0.1-0.1c-3.3,1-6.6,2.1-8.7,5.2c-0.6,0.8-1.6,1.3-2.5,1.9c-4.9,3.4-9.5,7.2-13.3,11.8
		c-2.2,2.6-4.2,5.3-5.9,8.4c0.7,4.4,0.1,8.6-2.3,12.3c1.2,7.7,3.6,14.8,5.7,23c1.9-4.5,4-7.9,8.2-9.3c0.5,0.9-0.1,1.1-0.5,1.4
		c-4.5,3.5-6.5,8.1-5.8,13.9c0.2,1.5,0.6,3,0.8,4.5c0.1,0.7,0.4,1.4-0.6,2c-1.3-1.4-1.7-3.3-1.8-5c-0.5-5.1-2.1-9.8-4.3-14.4
		c-2.4-5.1-4.1-10.5-5.3-15.9c-0.8-3.6-0.6-7.4-0.9-11.9c-1.7,3.9-0.3,7.4-1,10.6c-1.4,0.6-1.2-0.7-1.9-1.3c0,4.5,1.1,8.7,2.2,12.9
		c1.7,6.3,4,12.5,6.4,18.6c0.8,2.1,2.3,4.1,3.5,6.1c2.8,4.7,4.6,9.7,6.2,14.9c0.9,3,2.4,5.5,4.9,7.5c1.4,1.1,2.6,2.3,3.7,3.3
		c1.7,0.3,2.4-0.6,3.3-1.4c1.3-1.3,2.7-1.9,4.7-1.5c1.9,0.4,3.7,0,4.8-2c0-2.5-3.8-2.4-3.6-5.2c0.6-1.1,1.5-0.9,2.2-0.2
		c0.8,0.8,1.5,1.8,2.2,2.7c0.8,1,1.5,2.1,3.1,2.4c1.8-0.4,2.8-2.2,4.4-3.2c-0.3-1.3-1.6-2.6,0-3.9c2.5,2.9,4.6,6.4,8.3,8.6
		c1.7-4.8,3.9-8.8,6.5-12.7c2.6-3.9,5.9-6.3,10.7-6.2c2-2.1,3.6-4.7,6.2-5.9c2.9-5.5,4-11.4,5.7-17.1c0.8-2.8,0.1-6,0.1-9.1
		c-1.6,0.7-0.6,2.9-2.4,3.5c-0.7-1.4,0.4-2.6,0.5-3.8c0.1-1.3,0.4-2.5,0.7-4.2c0.6,0.8,1,1.4,1.6,2.3c1.6-2.8,1.6-6.2,3.7-8.5
		c-1-3.7-1.8-7.4-4.5-10.2c2,1.1,2,1,3.6,3.7c0.9,1.5,1.7,3,2.5,4.6c1.3-1.3,1.3-1.3,1.7-3.1c-1.4-3.5-3.7-6.3-6.2-8.9
		c-4.2-4.4-8.2-9-12.6-13.1c-4.9-4.6-11-7.4-17.6-9.1c7.9,5.4,15,11.7,21.9,18.3c-0.1,0.2-0.3,0.4-0.4,0.5c-1.3-1.1-2.6-2.1-3.9-3.2
		c-5.4-4.5-10.8-9-16.7-12.8c-3-1.9-6-3.6-9.6-4c-1.3-0.2-2.5-0.4-3.8,0.1c-0.7,0.3-1.3-0.1-1.5-1.2c1.6-1.4,3.9-1.7,5.7-2.5
		c1.2,0.3,1.5,1.3,2.4,1.8c0.3,0,0.7,0.1,1,0c2.7-0.8,5.4-0.3,7.9,0.8c2.1,1,4.3,1.9,6.5,2.5c5,1.4,8.9,4.5,12.7,8
		c4.9,4.6,9,9.8,12.9,15.2c1.3,1.8,3.5,2.8,3.8,5.1c1.2,0.1,1.6-0.6,2.4-1.4c-2.3-3-2.3-6.4-1.5-10.2c1-4.7,0.4-9.5,0-14.2
		c-0.1-1.3-0.3-2.7,0.1-3.8c0.8-2.7,0.6-5.3,0.5-8c-0.1-2.6,0.1-5.2,1.2-7.6c0.8-1.8,0.8-3.7,0.5-5.5c-0.4-2.6,0-5.1,0-7.7
		c0-0.6,0.1-1.2,0.3-1.7c1.2-2.9,1.8-6,1.7-8.9c0.7-0.7,1.1-1,1.9-0.7c0.8,1.9-1,4.1,0.6,6c2.8-1.7,3-6.1,6.7-7
		c-1.8,4.8-4.9,8.7-8.8,12.3c0.4,2.4-0.8,4.9,0.8,7.5c2.9-3.9,5.8-7.7,7.8-12c0.2-0.4-0.3-1-0.4-1.5c0.8-1.5,1.9-1.4,3.2-0.8
		c0.9-1.7-0.4-3.7,0.8-5.5c1.5,0.4,1.3,1.6,1.3,2.5c-0.1,5.3-0.2,10.6-1.6,15.7c-0.6,2.1-0.5,3.9,0,5.8c0.8,2.8,0.8,5.5-0.1,8.3
		c-0.7,2.5-1,5-0.4,7.6c0.5,2.3,0.7,4.7-0.1,6.9c-0.7,1.8,0.1,3.5,0.3,5.2c0.2,1.8-1.8,3.1-0.7,5.2c0.5,0.6,1.7,0.1,2.3,0.9
		c1.7,2.3,2.5,5.2,4.3,7.5c1.3,1.7,0.6,3.5-1.8,5.9c0.9,1.4,2.4,2.5,2.7,4.4c0.1,1.2-0.6,2-1.3,3c3.9,2.3,5.5,5.2,2.3,9.5
		c2.6,2.6,0.9,5.8,1.3,8.7c0.5,3.9,1.1,7.6,3.8,10.6c-0.6,3.8-1.3,7.4-4.8,9.8c-1.9,1.3-3.9,2.2-6.2,1.9c-1.4-0.2-2.8-0.1-4.2,0
		c-1.6,0-3-0.4-3.2-2.4c1.4-0.6,2.1,0.7,3.4,1c4.7-2.1,7.5-6.1,9.9-10.3c-0.5-1-1.1-1-1.8-1c-2.6,3.2-5.3,6.4-8.9,8.7
		c-0.3,0.2-0.7,0.1-1.2-0.3c0.8-2.7,3.4-3.8,5.1-5.7c1.8-2,3.4-4,4.5-6.5c-3.1,1.4-5.2,4.2-8.4,5.4c-0.2-0.7,0.3-1.1,0.6-1.6
		c1.5-2.4,3.6-4.3,5.8-6.1c1.7-1.5,3.5-2.8,4.3-4.9c-0.1-2.4-0.2-4.8-1.5-6.9c1-3,1.3-5.8-1.4-7.7c0-1.9,0-3.6,0-4.9
		c-0.5-1.7-2-2.6-2.2-4.2c2.3-4.7,1.9-7.3-2.1-11.8c-2.6,2.3-5.5,4.2-8.4,6.2c-0.4,0.3-0.6,0.7-0.9,1.1c-2,2.6-4.5,4.8-7.3,6.6
		c-1.4,0.9-2.3,2.2-3.2,3.6c-3.3,5.5-4.8,11.5-5.4,17.7c-0.8,7.4-2.3,14.6-4.6,21.6c-0.9,2.7-1.9,5.3-2.5,8
		c-1.2,6.2-3.8,11.7-7.7,16.7c-3.8,4.9-7.3,9.9-10.3,15.4c-2.5,4.5-5,8.9-8.3,13.2c0.5,0.8,0.9,2.3,1.8,2.7c3,1.4,2.9,4.2,3.9,6.7
		c-1-0.1-1.3-0.7-1.6-1.1c-3.5-5.9-7.9-11-13.4-15.1c-0.3-0.2-0.5-0.5-0.8-0.7c-0.9-1.1-2.1-1.7-3.5-1.6c-1.7-2-3-3.9-4.9-5.3
		c-4.9-3.4-9.4-7.4-13.7-11.5c-1.4-1.3-2.7-2.8-3.3-4.5c-1.6-4.1-4.3-7.5-5.9-11.4c-0.6-0.2-1.3,0.3-1.7-1.1
		c-0.2-2.3-1.1-4.9-2.5-7.4c-3.3-5.8-7.7-10.5-13.7-13.6c-4.6-2.4-9.2-4.7-14.2-6.1c-1.2-0.4-2.6-0.7-3.5-1.5
		c-1.7-1.4-3.5-1.7-5.6-1.8c-1.6-0.1-3.3-0.3-4.9-0.4c-3.4,0-6.9-0.7-10.1,0.4c-6,2.1-11.8,4.5-14.8,10.9c-0.7,1.6-1.9,3-2.9,4.4
		c-4.5,6.2-8.4,12.7-11.8,19.5c-0.7,1.4-1.2,2.8-1.4,4.3c-1.9,10.7,0.8,20.7,3.9,30.6c1.2,0.5,2.2,0.8,3,1.8c2,2.3,4.5,4.1,7.1,5.7
		c8,4.9,16.5,8.8,25.7,11.2c1.8,0.5,3.6,1,5.5,1c5.4-0.1,10.7-0.4,16.1-1.5c3.6-0.8,6-2.9,8.1-5.3c-0.1-0.9-0.6-1.2-1-1.6
		c-4.9-5.1-9.2-10.6-13.8-15.9c-4.2-4.9-7.9-10.5-13.8-13.7c-0.1,0,0-0.4,0-0.8c2.1,0.2,4.4,0,5.6,2.1c0.8,1.3,1.8,2.1,2.8,3
		c5.6,5,10.8,10.4,15.5,16.3c1.6,2,3.3,4,5.1,5.8c3.9,4,8.7,6.9,12.9,10.7c3.8,3.5,8.2,6.3,12.8,8.5c8.2,4.1,16,8.8,23.8,13.6
		c7,4.3,14.3,7.3,22.4,9.2c2.3-1.7,4.4-3.7,5.9-6.3c1.7-2.9,3.6-5.8,5.3-8.7c4.5-7.7,8.7-15.5,11.3-24.1c2-6.5,4.3-13,5.2-19.7
		c1.3-9.7,2.6-19.4,4.3-29.1c0.9-4.8,1.7-9.7,4.1-14.1c0.1-0.2,0.1-0.4,0.1-0.7c-0.3-0.3-0.6-0.6-1.2-1.1c2.2-2.5,1.7-5.6,1.6-8.5
		c0-1,0-1.8,0.7-2.5c0.5-0.5,1-1,1.9-0.3c-0.5,0.9-1,1.8-1.6,2.9c1.5,1.6,1.1,3.6,1,5.6c0,0.1,0.2,0.3,0.3,0.4
		c1.2-0.4,0.7-2,2.1-2.5c0.2,0,0.7,0.1,1.1,0.2c-1.4,3.1-3.1,6.3-3.7,9.5c-1.2,6.3-3.8,12.1-4.6,18.5c-0.7,5.3-1.9,10.6-2.9,15.9
		c-0.1,0.6-0.2,1.2-0.2,1.7c0,13.3-4.1,25.5-10.6,37c-4.1,7.4-8.6,14.5-13,21.6c-1.6,2.6-4.7,5.8-8.6,8.5c-2.8-2.7-6.7-3.2-10.3-4.6
		c-6.2-2.5-11.9-6-17.5-9.6c-4.9-3.1-9.8-5.9-15.1-8.3c-4.5-2-8.8-4.5-12.7-7.5c-0.7-0.5-1.3-1.4-2.5-1.1c0.9,8.2,0.5,16.3-2.7,24.1
		c-2.9,7.2-7.9,12.4-15.1,15.4c-7.2,3-14.6,5-22.5,3.5c-2.7-0.5-5.2-2.2-8.4-1.6c-4,3.7-8.7,7-14.2,9.4c-1.7,3.5-4.8,5.7-8.1,7.9
		c-3.8,2.5-7.4,5.3-11.7,7.1c-0.9,0.4-1.6,1-2.1,1.8c-0.6,0.8-1.2,1.8-2.1,2.4c-10.3,8-17.4,19-26,28.5c-2,2.2-4.6,4-6.1,6.8
		c-0.8,0.1-1.6,0.2-2.5,0.4c-1.1,1.8-2.2,3.7-5,3.5c0.8,3,1.3,5.7,2.2,8.3c2.6,7.3,5.1,14.6,7.7,21.8c3.2,9,6.3,18.1,8.6,27.4
		c0.3,1,0.5,2,0.7,3.1c1.6,12.4,6.5,23.9,10.1,35.7c3.6,11.8,7.1,23.6,8.9,35.8c1,7,1.6,13.9,0.1,20.9c-0.3,1.4-1.2,3.1,0.4,4.5
		c-1.7,7.4-8.8,18-12.9,19c-0.5-1.5,0.6-2.4,1.3-3.4c2.5-3.6,4.9-7.1,7.5-10.6c1.8-2.4,2.2-5.1,1.8-8c-0.2-1.7-0.5-3.5-0.3-5.3
		c0.6-8.7-1.2-17-3.2-25.3c-5.2-21.6-11.6-42.9-19.4-63.8c-2.6-6.9-5.9-13.5-9.1-20.2c-0.3-0.6-0.7-1.2-0.9-1.9
		c-3.5-9.9-7.3-19.8-8.2-30.4c-0.2-2.5,0.2-4.8,1.5-7c0.2-0.3,0.8-0.3,1.3-0.5c-0.1-0.6-1.3-1-0.5-1.9c1.2-1.2,2.7-0.8,4.1-0.8
		c1.1-1,1.5-2.4,2-3.6c-2.4-3.7-5.6-6.4-8.7-9.3c-3.7-3.5-7.5-6.8-11-10.4c-4.1-4.2-9.2-7.2-13.7-11c-0.4-0.4-1-0.5-1.6-0.7
		c-12.5-5.1-18-8.6-27.4-17.3c-0.9,0-1.4,0.7-2.1,1.2c-4,3.1-8,6.2-11.9,9.4c-9.2,7.5-16.6,16.3-21.4,27.3
		c-2.6,6.1-3.9,12.5-5.1,18.9c-0.6,3.5-1.1,6.9-1.5,10.4c-0.9,7.2,0.5,13.9,3.9,20.3c3.9,7.3,8.8,13.8,14.5,20.2
		c3.9-8.1,11.1-12.1,18-16.4c7.1-4.3,14.7-7.2,22.9-8.4c7.3-1.1,14.7-1.6,22.1-1.4c5.7,0.2,11.5,0.5,17-1.4c0.2-0.1,0.4,0.1,0.7,0.3
		c0.2,1.2-0.7,1.5-1.5,1.9c-3.4,1.3-7,2-10.6,2.1c-7.3,0.2-14.5,0.5-21.7,1.3c-7.5,0.9-14.7,2.9-21.4,6.5
		c-7.2,3.9-14.2,8.2-19.6,14.6c-0.5,0.6-0.9,1.4-1.5,1.9c-0.6,0.5-1.4,0.8-2.2,1.2c2.6,2.7,5,5.4,7.9,7.6c3.6,2.8,7.1,5.8,10.5,8.7
		c3.1,2.6,5.7,5.8,7.3,9.7c3.3,8.2,7.7,15.7,13.4,22.5c4.2,5.1,8.6,9.9,12.4,15.3c4.7,6.9,10.2,13.1,15.7,19.2
		c1.2,1.3,2.7,2.3,4,3.4c2.2,1.9,4.4,3.9,6.3,6.2c0.7,0.8,1.2,1.7,1.9,2.9c-1,0-1.5-0.5-1.8-0.9c-4.3-5.3-10.5-8.1-15.7-12.3
		c-0.4-0.3-0.8-0.6-1.2-0.7c-7.8-2.4-15.1-6.4-23.3-7.6c-3.4-0.5-6.7-1.2-10.1-1.5c-3-0.3-6,0.6-9,1.1c-5.8,0.9-11.6,1.9-17.2,3.6
		c-2.5,0.8-5.1,1.3-7.4,3.1c-1.6,1.3-4,1.2-6,1.7c-14.1,3.3-28.4,1.9-42.7,1.3c-2.6-0.1-5.1-0.3-7.7-0.3c-1.1,0-2.4,0.3-3.1-1.1
		c0.3-1.4,1.4-1.3,2.4-1.3c3.9-0.2,7.7,0.1,11.6,0.3c4.9,0.3,9.8,0.7,14.7,1.1c2.7,0.2,5.4-0.1,8-0.5c5.9-0.8,11.9-1.5,17.8-2.1
		c1.2-0.1,2.3-0.3,3.3-1c6.6-4.5,14-6.4,21.8-6.7c0.9,0,1.9,0,2.8-0.3c4.7-1.7,9.5-1.6,14.2-1.1c7.1,0.7,14.1,1.8,20.9,4.1
		c2,0.7,3.9,1.5,5.8,2.6c-0.7-1.6-1.5-3.1-3.1-4c-0.7-0.4-1.6-0.7-1.8-1.6c-1.1-3.3-4.1-5.1-5.5-7.4c-4.6-3.1-9.4-4.6-14.2-6.2
		c-1.8-0.6-3.6-1.1-5.4-1.7c-4.7-1.6-9.4-1.4-14.2-0.4c-10.4,2.2-20.1,6.1-29.7,10.7c-1.3,0.6-2.5,1.2-4,1.3
		c-9.9,0.9-19.8,1.5-29.7-0.3c-4.5-0.8-9-1.6-13-2.3c-1.7,0.7-2,2.2-3.2,2.9c-2,0.7-4.1-0.8-6.4-0.2c1.5,2.4,3.5,4.3,4.2,6.9
		c0.1,0.8-0.9,1-1,1.7c0.2,0.7,0.8,1.2,1.2,1.7c2,2.4,1.7,4.1-1.2,5.5c-2.6,1.3-5.3,2.4-8,3.6c-2.3,1.1-4.8,1.9-7.2,3.4
		c0.4,1.6-0.2,3.3-0.8,4.9c-0.7,2.1-0.8,4.1,0.5,6c1.2,1.8,1.4,4,2.7,5.5c10.7,0.4,21.3,0.9,31.8,2.6c12.5,2,25.1,3.5,37.4,6.5
		c9.9,2.3,19.9,2.5,29.9,4.1c12.3,1.9,24.8,1.8,37.1,3.5c10.8,1.5,21.5,0.7,32.2-0.4c2.3-0.2,2.3-0.3,4.1,1.3
		c-2.3,0.9-4.6,0.8-6.9,1.1c-11.2,1.4-22.4,1.8-33.7,1.5c-5.4-0.1-10.7-1.3-16-2.4c-5.4-1.1-10.9-1.5-16.4-2
		c-10.7-0.9-21.6-1.1-32-4.2c-12.4-3.6-25.3-4.9-38-6.9c-6.4-1-12.8-0.9-19.3-1.3c-2.7-0.2-5.4-0.1-8.4-0.8c0.2,1.9,1.7,3.3,1.1,5.1
		c-5.5,2.2-11.3,2.3-17,3.4c-1.3,0.2-2.5,0.5-3.8,0.7c-0.6,0.1-0.3,0.7-0.3,1.1c-6.1,1.4-12.2,2.3-18.3,2.8c-3,0.3-5.6,1.6-8.2,2.9
		c-5.7,2.8-11.4,5.4-17.4,7.5c-2,0.7-3.5,2.4-5.7,3.1c-4.5,1.5-8.7,2.1-13-0.9c-3-2.1-6.2-3.8-8.5-6.9c2.2-7.1,5.9-13.6,9.2-20.2
		c0.6-1.1,1.4-2.2,1.6-3.5c2.3-3.5,4.5-7.1,6.4-10.8c2.8-5.2,6.2-9.9,11.4-13.1c4.1-2.5,7.5-5.7,10.2-9.9
		c6.8-10.1,15.2-18.6,26.1-24.5c0.6-0.3,1.2-0.8,1.9-0.8c3.5,0.2,7-0.5,10-0.7c7.1,6.6,12.2,14.4,19.1,20.5c2.5-1.7,5.1-0.4,7.8-0.7
		c0.5-1.2,1.7-2,2.6-2.7c-1.2-3.9-3.7-6.5-6.2-9.2c-5.3-5.7-11-10.9-17.6-15c-1.3-0.8-2.5-1.8-4.4-1.2c-1.7,2.2-3.7,4.2-6.1,5.9
		c1.4-2.3,2.8-4.6,4.4-7c-4.6-0.6-8.7-0.9-12.5,1.7c-0.8,0.5-1.7,0.8-2.5,1.2c-1.5,0.7-2.7,1.6-3.9,2.8c-4.8,4.6-8.8,9.7-12.5,15.2
		c-1.9,2.9-4.4,5-7.6,6.6c-4,2-7.6,4.4-10.4,8.3c-4.1,5.8-8.1,11.4-10.8,18c-0.5,1.2-0.8,2.6-1.9,3.3c-1.2,0.8-1.6,2-1.8,3.3
		c-0.6,3-1,6-1.5,9c-0.5-0.3-1-0.6-1.7-1c0.7-5,0.4-10.3,4.7-14.2c0.5-0.4,0.7-1.2,0.9-1.9c2.3-6.1,5.4-11.7,10-16.3
		c0.6-0.6,1.2-1.2,1.6-1.9c2.5-3.7,5.9-6.4,10-8.1c2-0.8,3.3-2.1,4.2-4c2.6-5.2,6.1-9.7,9.9-14c4.2-4.6,8.9-8.3,14.9-10.2
		c0.8-0.3,1.6-0.5,2.4-0.4c4.5,0.5,9,1,13.5,1.6c0.8,0.1,1.5,0.7,2.2,1.1c8.8,4.9,16.2,11.5,22.7,19.2c2,2.3,2.9,5.2,4.3,8.2
		c13.6,2.7,27.3,4.5,41.3,1.3c3.3-0.8,6.4-2.2,9.5-3.7c8.7-4.2,17.8-7,27.4-8.3c7.2-1,13.7,0.4,20.1,3.4c1.8,0.9,3.7,1.7,5.9,2.1
		c-2-2.2-4.1-4.4-6-6.7c-5.7-6.7-7.5-8.1-12.4-18.3c-2.7-5.7-6.4-10.9-11.1-15.3c-4.8-4.5-9.9-8.7-14.5-13.3
		c-5.9-6-11.6-12.2-16.4-19.1c-7.9-11.4-9.7-24.1-6.1-37.5c0.5-1.9,0.8-3.9,1-5.9c1.3-10.4,5.3-19.5,11.4-28
		c5.9-8.4,13.1-15.2,21.7-20.8c4.6-3,9-6.3,13.6-9.5c0.8,0,1.7,0.4,2.8-0.2c2.7-1.7,5.3-3.3,7.5-5.7c5.1-5.8,10.7-11.2,16.6-16.2
		c5.9-5.2,11.3-10.8,16.1-17.1c0.3-0.4,0.5-0.8,0.8-1.2c4.2-7.4,9-14.5,13.8-21.6c2.9-4.3,5.5-8.7,7.9-13.3c0.3-0.5,0.5-1.1,0.8-1.5
		c6.8-10.8,13.3-21.8,20.5-32.3c6.3-9.2,14.7-16.6,23.1-24.1c2.2-1.9,4.5-3.8,6.8-5.6c4.6-3.6,9.8-6.2,15.5-7.8
		c1.3-0.4,2.5-0.5,3.8,0c1.5-1.2,3.2-1.8,5.1-2.2c5.2-1.1,10.2-2.8,15-5.6c0.3-7.6,2.2-15.1,2.3-22.9c0-5,0.9-10,2.1-14.9
		c1.8-7.1,5.6-13.1,11.2-17.9c1.3-1.1,2.6-2.3,4.4-2.6c0.5,1.1-0.2,1.5-0.7,1.8c-8.4,6.7-12.2,15.8-13.5,26.1
		c-0.7,5.4-1.3,10.8-1.2,16.3c1.5-8.1,3.9-15.9,8.2-23c0.7-1.2,1.5-2.4,2.4-3.5c0.3-0.4,0.8-0.9,1.4-0.4c0.3,0.3,0.3,0.6,0.1,1
		c-6.7,11-9.5,23.1-9.5,35.9c0,4,0.7,7.9,1.7,11.8c1.5,5.8,5.4,10,9.1,14.4c1.3,1.5,2.9,2.7,4.4,4c0.6-0.7-0.3-1.3-0.5-2
		c-1.9-5.3-3.8-10.6-4.9-16.1c-0.1-0.7-0.2-1.4-0.7-2c-2.1-2.1-2.5-5-3.2-7.7c-2.6-9.8-2.4-19.5,2.4-28.7c0.9-1.7,1.5-3.6,3.9-5
		c-0.9,3.2-2.8,5.2-3.6,7.7c-0.7,2.6-1.1,5.3-1.4,7.9c-0.3,2.6-0.2,5.3,0.4,8c0.8-5.9,1.1-11.9,3.7-17.4c0.7,3.2-1.3,6.1-0.6,9.6
		c1.8-7.5,4.8-14,9.8-19.5c5-5.5,10.9-9.8,18.4-13c-4.4-0.8-8,0-11.6,1.1C538.5,211.8,537.4,212.6,536.1,212.5L536.1,212.5z
		 M626.3,242.9c-0.1-0.1-0.2-0.3-0.4-0.4c0.4-0.4,0.7-0.9,1.2-1.2c3.2-2.1,4.2-5.4,5.5-8.7c0.4-0.9,0-1.7-0.7-2.5
		c-3.2,5.1-6.9,9.5-11.5,13c-0.2,1.9,0.9,3.3,0.9,5.3c2.1-1.9,3.9-3.4,5.8-5.1C626.7,243,626.5,243,626.3,242.9z M162,652.7
		L162,652.7c-2.9,2.2-5.1,4.9-6.8,8.1c3.3,3.3,7.6,5,11.7,7c1.7,0.9,3.7,0.5,5.3-0.6c2.3-1.5,4.8-2.5,7.3-3.5
		c5.2-2.1,10.4-4.3,15.3-7c2.9-1.6,5.7-3.1,8.8-4.2c-0.3-0.6-0.9-0.9-0.6-1.6c1.7-1.3,2,1.1,3.1,1.4c3-0.3,6-0.6,9.1-1
		c0-1.4-1.8-2.1-1.3-3.6c2.4-1.9,2.8-1.7,7.7,2.3c1.1-0.3,2.3-0.6,3.5-0.9c0.1-1.3-1.5-2-1-3.3c0.4-0.7,0.9-1.3,1.8-1.2
		c1.8,0.5,2.3,2.3,3.6,3.4c4.6,0.2,9-2.5,13.9-1.1c-0.7-2-1.9-3.5-2.9-5.2c-2.3-3.4-4.4-6.9-4.9-11.1c-0.1-0.9-0.5-1.5-1-2.2
		c-1.1-1.7-0.7-3.3,0.5-4.8c0.9-1.1,2-1.9,3.3-2.6c4.7-2.7,9.3-5.4,14.7-6.4c0.4-0.1,0.8-0.5,1.1-0.7c0.6-4.7,0.5-5.3-2.5-8.7
		c-3-3.5-6.5-6.4-9.8-9.6c-1.3-1.2-2.6-2.4-3-4.2c-0.3-1.5-1.2-2.5-2.2-3.5c-2.4-2.5-5.3-4.6-7.2-7.6c-3.1,0.2-6.1,0.8-9.1,0.7
		c-5.8,3.5-11.4,7.1-17,11.1c0.7,1.7-0.4,2.8-1.4,4c-1.5,1.9-3.2,3.7-4.6,5.7c-3.7,5.2-8,9.7-13.2,13.4c-3.5,2.6-6.5,5.8-8.8,9.5
		c-5.5,8.7-10.2,17.9-14.9,27c-0.2,0.5-0.8,0.9-0.2,1.5C160.8,652.6,161.4,652.7,162,652.7z M518.6,363.3
		c-8.9,6.6-19.1,7.3-29.2,5.2c-11.8-2.5-22.6-7.7-31.9-15.5c-0.5-0.4-0.9-1.2-1.7-1.2c-1.9,0-2.6-1.5-3.3-2.8
		c-4.1-7.1-7.1-14.5-7.6-22.8c-0.3-6.1,0.2-12.1,3.1-17.7c4.2-8,9.4-15.4,14.9-22.5c0.5-0.7,1.4-1.2,1.3-2.7
		c-2.3,2.2-4.2,4.3-6.4,6.3c-8.9,8.1-17.3,16.8-24.1,26.9c-1.9,2.9-3.8,5.9-5.8,8.8c-3.7,5.4-7,11.1-9.6,17.1
		c-3,6.9-6.8,13.3-11,19.6c-0.7,1.1-1.4,2.1-2.1,3.2c0.2,0.4,0.3,0.7,0.6,1c6.7,7.8,13.6,15.5,21.9,21.8c4.3,3.3,8.6,6.5,12.8,9.9
		c6.2,5.1,13,9.6,18.6,15.5c2.1,2.3,4.8,4,7.8,5.3c3.8-3.4,8.5-5.5,11.8-9.4c1.4-1.6,3.2-1.9,5.4-1.4c5.9,1.5,11.9,2,18,0.9
		c3.1-0.6,6.1-1.5,9.2-2.3c1.6-0.4,2.9-1.4,4.2-2.5c5.9-4.9,9.7-11.1,11.5-18.4c0.3-1.1,0.9-2.4,0.6-3.4c-0.7-2.7,0.2-5.1,0.6-7.6
		c0.3-2.2,1-4.3,0.7-6.7c-3.1-2.1-5.9-4.7-8.6-7C518.8,361.1,519.4,362.4,518.6,363.3z M463.8,420.8c-4.2-2.2-7.4-5.3-10.4-8.5
		c-0.6-0.7-1.4-1.3-2.1-1.9c-6.1-4.8-12.1-9.6-18.2-14.3c-10.4-7.9-19.8-16.8-27.8-27.1c-0.4-0.5-0.7-1.3-1.8-1.1
		c-3.6,5.6-8.3,10.5-12.5,15.8c-5.3,6.8-11.4,12.7-17.7,18.5c-0.9,0.8-1.8,1.5-2.5,2.5c-4.4,6.8-10.7,11.4-17.7,15.1
		c-1.5,0.8-3,1.6-4.7,2.6c0.6,0.6,1,1,1.5,1.4c6.1,4.8,12.5,9.1,19.7,12.1c4.1,1.7,8,3.6,11.6,6.3c4.1,3.1,8.3,6.1,12,9.7
		c6,5.8,13.1,10.6,17.7,18.1c1-1,1.9-1.7,2.7-2.6c3.7-4.1,7.3-8.2,10.9-12.4c1.3-1.5,3-2.8,3.7-4.6c0.7-1.9,2-3.1,3.2-4.4
		c3.9-4.1,8.8-7.4,12-12.2c0.7-1,1.8-1.5,2.8-2.1c4.6-2.6,9.1-5.2,13.7-7.9C461.1,423,462.6,422.5,463.8,420.8z M575.5,319.8
		c-3.2,5.6-9.4,8.4-11.9,14.6c2.4,1.9,4.8,3.7,7,5.8c2.2,2.1,3.5,5,5.7,7.4c2.2-6.3,5.7-11.4,9.8-16c0.8-0.9,1.7-1.6,2-2.8
		c0.7-2.7,2.2-4.9,3.8-7c4.5-6,7.8-12.5,9.5-19.8c0.2-0.7,0.9-1.4-0.1-2.5c-1.6,2.6-4.3,2.9-6.9,3.5c-2.1,0.4-3.7,1.5-5.2,3.1
		c-3.9,4.3-5.9,9.7-9.4,14.3C578.3,321.9,577.1,320.6,575.5,319.8z M552,325.6c3.8,2.5,6,6,9.6,8.2c3.7-5.8,9-9.9,12.5-15.3
		c-0.4-0.9-0.9-1.6-1.5-1.7c-3-0.3-3.4,3-5.3,3.3c-1.5,0.1-2.3-0.7-3.3-1c-2.6,3.7-3.1,3.9-7.6,3.2C555.3,323.5,554,324.4,552,325.6
		z M559.1,214.4c-1.5-1.9-3.2-2.9-5.4-3.5c-11.6,7.2-22,15.6-26.4,29.5c2.3-3.5,5.3-6.5,7.5-10c4-6.3,9.2-11.5,16-14.8
		C553.4,214.3,556,213.2,559.1,214.4z M622.8,216.3c0.5-0.5,0.8-0.7,0.9-1c2.8-6.3,6.5-12.1,9.5-18.3c1.2-2.4,1.6-5,1.2-7.9
		c-2.3,5.2-5.2,9.8-9.4,13.5c-0.6,0.5-0.8,1.1-1,1.8C622.3,208.1,621.8,212,622.8,216.3z M528.9,253.1c0.6-0.4,0.7-0.4,0.8-0.5
		c0.3-1,0.6-2,1-3c2.4-6.8,5.3-13.3,11.4-17.7c0.3-0.2,0.5-0.5,0.7-0.8c1-1.8,2.6-2.6,4.3-3.3c1.6-0.6,1.6-0.7,2.8-2.7
		c-4.8,2.1-9,4.7-13,7.8C530.2,237.9,528.6,244.9,528.9,253.1z M633.6,209.8c0.3-1.4,0.5-3.1-0.2-5.3c-3.8,5.3-5.4,11.7-11.2,14.8
		c-1.3,3.5-1.5,6.2-0.6,11.4c3.6-6.6,7-12.8,9.6-19.3C631.4,210.3,632.8,211,633.6,209.8z M539.9,227.1c6.4-4.5,14.4-5.5,20.9-9.4
		c0-0.7,0-1.1-0.5-1.5c-0.4,0.2-0.7,0.4-1.1,0.6c-1.7-1.7-1.9-1.8-4.1-1.1C548.6,217.7,543.9,222,539.9,227.1z M505.4,265.2
		c-3.8,3.4-8.1,4.4-12.2,6.1c6,1,11.7,2.8,17.4,5C508.2,273.1,506.3,269.8,505.4,265.2z M418.3,528.5c-2-8.8-5.6-17-8.3-25.2
		c-1.1-0.4-1.9-0.5-2.8,0.3C409,512.6,414.7,520.1,418.3,528.5z M621.1,239.4c2.9-4.5,7.3-7.7,9.3-13c0.6-0.2,1.4-0.6,2.3-0.9
		c0.7-2.4,0.4-4.7-0.6-7.4c-3,6.1-5.2,12.2-10.7,15.9C621.3,236,621.2,237.7,621.1,239.4z M403.1,481.9c-2,3.4,0,13.3,3.3,18.5
		c0.8,0.1,1.6,0.1,2.3-0.7C406.8,494,404.7,488.3,403.1,481.9z M517,279c-6.3-6.1-7-14.3-8.8-22.1c-1,6.5-0.5,12.6,3.2,18.2
		C512.8,277.1,514.4,278.5,517,279z M498.2,274.8c-6.4-0.9-12.8-4-19.5-1.4C485.2,273.5,491.6,274.3,498.2,274.8z M475.9,274.7
		c-4.3,0.6-6.3,2.1-9,6.7C470.3,279.6,472.4,276.3,475.9,274.7z M554.6,224.2c2.4-0.9,4.9-1.5,7.1-4.1
		C558.5,221,556.3,222.1,554.6,224.2z M642.2,284.5c1,0.3,1.5,0.4,2-0.1c-0.2-0.9-0.4-1.8-1-2.7
		C642.9,282.7,642.6,283.5,642.2,284.5z M631.5,239.7c0.8-0.4,1.6-0.7,1.7-1.6c0-0.3-0.1-0.7-0.5-0.7
		C631.8,237.8,631.7,238.8,631.5,239.7z M237,627c-0.7,1.2-0.8,2.4,0.7,3.6C237.4,629.1,237.2,628.1,237,627z"/>
	<path d="M560,209c-1.3-3-3.7-5.6-7.5-7.8c-7,1.6-14.1,3.6-20.6,7.2c-3.5,1.9-6.6,4.4-7.9,8.4c-1.3-0.4-1-1.1-0.8-1.8
		c0.7-2.5,2.2-4.3,4.2-5.9c3-2.5,6.5-4.2,10.1-5.6c3.6-1.4,7.3-2.5,11.3-3.5c-1.3-1.5-3.1-0.4-4.4-1.6c2.5-2.1,5-0.1,7.5,0
		c-2.4-3.1-6.7-4.3-11.1-3.1c-5.9,1.7-11.3,4.4-16.6,7.4c-0.8,0.5-1.6,0.9-2.9,1.7c0.4-1.3,1.1-1.7,1.7-2.1
		c7-5.6,14.8-9.3,23.7-10.7c2.8-0.4,4.9,0.1,7,2.1c2.6,2.5,4.8,5.5,8,7.3c0.3,0.2,0.6,0.5,0.7,0.8c1.2,4.4,4.6,7.4,6.6,11.5
		c-1.6,1-2-1.1-3.2-1.2c-0.3,1.6,0.9,3.3-0.9,4.8c-1.3-0.6-1.7-2-2.3-3.2c-0.8-1.6-1-3.6-2.8-4.7L560,209z M547.7,194
		c1.9,0.9,3.3,1.5,5.3,2.4C550.5,193.9,550.5,193.9,547.7,194z M560.9,207.3c0.4,0.4,0.1,1.4,1.1,1.2
		C561.9,207.9,561.5,207.5,560.9,207.3z"/>
	<path d="M514.9,659.7c-1.5-1.7-0.1-3.1,0.6-4.5c2.6-4.8,5.3-9.6,8-14.4c0.7-1.2,1.3-2.5,2-3.7l-0.1,0.1c2.5-3.4,4.7-6.9,6.9-10.5
		c2.9-5,6.5-9.3,11.7-12.2c4.1-2.4,8-5.1,10.6-9.4c2.3-3.8,5.8-6.7,8.6-10.1c0.8-0.9,1.7-2,3.1-2.1l-0.1-0.1
		c0.1,0.7,0.2,1.4,0.4,2.3c-2.8,3.2-5.9,6.5-8.6,9.9c-2.9,3.7-6.4,6.7-10.3,9.4c-4,2.7-7.7,5.9-10.4,9.8c-6.3,9-11.7,18.6-17.3,28.5
		c4.1-1.6,6.1-5.1,9.1-7.3c3-2.2,6.3-4.1,9.4-6.2c-0.2,0.9-0.7,1.4-1.3,1.8c-4.1,3.3-8.7,5.9-12.2,10c-0.5,0.6-1.2,1-2,1.4
		c-2.4,1.1-4.7,2.5-5.9,5c-0.5,0.9-1.1,1.8-2.2,2.1L514.9,659.7z"/>
	<path d="M562.8,223c0.7,0.2,0.9,0.7,0.7,1.3c-1.3,6.6-1.3,13.2-1,19.9c0,0.9,0.3,1.8-0.5,3.2c-1.1-5.6-1.4-10.8-1-16
		c-2.4,2.9-3.1,9.5-1.9,19c-1.7-2.6-2.4-5.2-3.1-13c-1.5,2.5-1.7,5.1-2.2,7.5c-0.4,2.3-0.4,4.7-0.5,7.2c-0.5-0.3-0.9-0.4-0.9-0.6
		c-0.4-5.1-0.3-10.3,1.2-15.3c1.1-3.7,3.2-6.7,6.1-9.2C561.1,226,562.3,224.7,562.8,223L562.8,223z"/>
	<path d="M549.5,260.3c-0.9,0.3-1,1.3-1.2,2c-0.8,2.2-2,4-4.1,5c-0.4,0.2-0.8,0.5-0.8,1.3c1.1,0.8,2.7-0.6,3.9,0.7
		c0.1,1.5-1.2,1.7-2.3,1.8c-1.9,0.3-3.5-0.2-4.4-2.4c2.2-3.5,6.5-6,6.5-11c-1.3-1-2.3,1.3-3.6,0.8c-0.2-1,0.6-1.2,1.1-1.6
		c0.4-0.4,1-0.7,1.5-1c1.1-2.8,2.7-5.4,4.7-8.4c-0.2,3.5-2.7,5.6-3.2,8.5c2.3,0.3,2.1-2.4,3.9-2.3c3.8,0,7.5,0.6,11.3,2
		c0,1.7,0,3.2,0,4.7l0.1-0.1c-1.4,0.8-1.4,1.9-1,3.2c0.5,1.6,1.4,3.1,2.5,4.7c-1.6,0.5-2.6,0.1-3.7-0.4c-1.5-3.6-0.2-7.1,0.5-10.6
		c-2.7-1.1-5.3-0.9-7.8-1.1c-2.1-0.2-3.4,1.5-4.1,4.4L549.5,260.3z"/>
	<path d="M577.7,261.1c-2-0.2-2.7-1.7-4.1-2.1c0.6,2.3,0.8,2.4,6.4,3.6c0.1,0.8-1.1,0.8-1.1,1.6c1.8,1.1,3.7,1.6,5.9,1.2
		c-0.4,1.4-1.2,1.3-2,1.2c-2.1-0.3-4.1-0.8-5.8-2.2c-0.9-0.7-1.9-1.4-2.8-2.1c-1.3-0.9-2-1.9-2.6-3.5c-1.1-3.1-2.3-6.1-3.5-9.2
		c-1.6-4.1-2.1-8.3-2.1-12.6c1.3,1.8,1.3,3.9,1.7,6c1.1,5.4,3.1,10.3,6.7,14.4C575.4,258.6,576.8,259.3,577.7,261.1z"/>
	<path d="M549.4,260.4c0.8-0.2,0.9-1,1.3-1.5c1.5-1.7,3.3-2.5,5.6-1.9c1.1,0.3,2.3,0.4,3.6,0.6c0.1,2.8-1.2,5.3-2.1,7.7
		c-1.4,0.6-2.7,0.7-3.7-0.4c-0.7,1.1-1.3,2.1-1.8,2.9c-1.8,0.1-2.7-1.3-4.6-0.8c1.7-2.3,2.1-4.4,1.8-6.6L549.4,260.4z M557.3,262.2
		c-0.5-1.1-1.9-1.2-2-2.5c1-0.5,1.9,1.4,3,0c-1.4-1.3-3.1-1.5-4.8-1.4c-2.4,2.5-2.4,2.5-2.3,6.2c1-0.2,0.9-1.7,2.5-1.8
		c0.8,0,1.6,1.1,2.5,1.6C557.1,263.7,557.2,263,557.3,262.2z"/>
	<path d="M578.4,290.3c5.5,1.8,9.6,5.3,13.5,9.1c-2,0.8-3.3-0.5-4.8-1.5c-1.8,0.4-3.6,1.7-5.2,1c-1.1,0.5-0.6,1.6-1.8,1.7
		c-1.1-2.3-0.7-4.7-0.7-7.1c1.4,0.1,0.9,1.4,1.8,1.8c0.7,0.1,1.4-0.3,2.2-0.7C582.2,292.6,579.1,293.2,578.4,290.3z"/>
	<path d="M539,259.5c0.4-1.3,0.5-2.7,1.1-3.9c2.6-5.4,3.7-11.3,5.8-16.8c0.6-1.6,1.2-3.2,2.5-4.4c1,0.6,0.5,1.1,0.2,1.5
		c-1.1,1.9-1.4,4.2-2.4,6.2c-0.5,1.1-0.1,2,0.3,3.1c-2.9,4.5-4.2,9.9-6.7,14.7C539.5,259.8,539.3,259.7,539,259.5z"/>
	<path d="M588.1,263.8c-0.4,0.4-0.9,0.7-1.4,1.1c-2.8-1.6-5.8-2.8-8.6-5.2c2.2,0,3.4,1.1,5.1,1.7c-1.3-4.1-2.2-8.2-2.4-12.4
		c0.9,2.5,1.7,4.9,2.6,7.4c0.9,2.8,2.2,5.3,5.5,5.4C589.2,263,588.2,263.2,588.1,263.8L588.1,263.8z"/>
	<path d="M537.8,254.8c-1.2-1-1.6-2.1-1.3-3.5c1.1-4.3,3.1-8.2,5.4-12.3c0.9,1.4,0,2.1-0.4,2.9c-1.4,2.9-2.6,6-3.6,9.1
		c-0.4,1.4-0.3,2.5,0.9,3.4c-1.2,3.1-2.9,6-3.8,9.1c-0.4,1.5-1.7,2.1-2.9,2.9c-0.5-0.1-0.9-0.3-1-1c0.4-1,1.8-0.9,2.7-2.2
		C534.4,260.6,535.9,257.8,537.8,254.8z"/>
	<path d="M590.2,251.8c1.6,0.6,1,2.4,2.3,3.4c0-2,0-3.7,0-5.4c1.4,3.9,1.2,8.2,3.2,12.1c-1.4-0.5-1.7-2.4-3.2-1.9
		C591,257.2,590.4,254.7,590.2,251.8z"/>
	<path d="M600.1,268.2c-1.2-6.4-2.4-12.8-3.6-19.7C598.9,252.3,601.5,264.8,600.1,268.2z"/>
	<path d="M398.4,475.9c-5.7-4.4-11.3-8.9-17.2-13.5c3.1,0.6,13.2,8.1,17.6,12.9C398.7,475.5,398.5,475.7,398.4,475.9z"/>
	<path d="M253.8,625.7c-6.4,0.5-10.2,0.2-12.1-1c0.8-1.8,2.3-1.7,3.8-1.4C248.3,623.9,251.1,624.5,253.8,625.7z"/>
	<path d="M589.2,286.1c5.2,3.4,8.6,7.8,7.9,11.7C595.8,296.7,589.8,287.7,589.2,286.1z"/>
	<path d="M593.2,239.8c-2.4-2.3-4.9-4.7-7.3-7c-2.4-2.3-5.2-4.1-8.5-6.4C582.2,226.8,589.9,233.5,593.2,239.8z"/>
	<path d="M614.5,629.2c-5.4,0.2-9.6-0.3-11.2-1.4c0.1-1.3,1.2-1.6,2-1.5C608.3,626.6,611.3,627.4,614.5,629.2z"/>
	<path d="M776.4,669c0.1-0.4,0.4-0.6,0.7-0.6c4-0.5,8-1,12.3-1.6C787.1,669.2,780.6,670.2,776.4,669z"/>
	<path d="M416.8,657.9c4.1-0.7,8.2-1.4,12.8-2.2c-2.8,2.6-8.3,3.7-12.8,3C416.9,658.3,416.8,658.1,416.8,657.9z"/>
	<path d="M562.8,260.3c2.2,3,4.3,6.1,8.1,7.4c-0.5,1.5-1.5,1.2-2.4,0.9C565.2,267.6,563,264.4,562.8,260.3L562.8,260.3z"/>
	<path d="M575.3,264.4c-3.7,1.4-7.8-0.9-10.1-5.3C568,261.3,571.2,262.9,575.3,264.4z"/>
	<path d="M398,634c-5,1.3-10.1,1-15.1,1.3C387.8,633.8,392.9,633.5,398,634z"/>
	<path d="M743.7,644.8c2.7-1.5,11.6-1.8,15.2-0.6C753.9,644.4,748.8,644.6,743.7,644.8z"/>
	<path d="M371.1,636.6c-3.4,1-6.8,0.5-10.2,0.2C364.2,635.2,367.7,636.6,371.1,636.6z"/>
	<path d="M721.6,644.7c3.5-0.8,6.9,0.1,10.3,0.6C728.4,645.9,724.9,645.8,721.6,644.7z"/>
	<path d="M603.9,259.6c2,5.1,2.1,6.1,0.3,9c0-1.5,0-3,0-4.5C604.2,262.7,603.6,261.2,603.9,259.6z"/>
	<path d="M398,478.1c-2.8-1.6-5.7-2.8-8.4-4.5C392.9,474.1,395.7,475.5,398,478.1z"/>
	<path d="M361.8,461.9c3.5,0,6.8,0.6,9.8,2.3C368.3,463.4,365,462.6,361.8,461.9z"/>
	<path d="M396.7,470.7c-2.5-2-4.7-4.4-6.7-7c2.8,1.7,5.1,3.9,7,6.7C396.9,470.5,396.8,470.6,396.7,470.7z"/>
	<path d="M593,262.8c-2.3-1-4.2-2.5-5.7-4.7c2.1,1.3,4.2,2.7,6.2,4C593.4,262.3,593.2,262.5,593,262.8z"/>
	<path d="M407.6,622.6c-0.5-3-0.9-6.1-1.4-9.4C407.7,616.1,408.2,619.1,407.6,622.6z"/>
	<path d="M769.1,633c0-3.1-1.2-6.1-0.9-9.6C769.5,626.8,769.5,629.9,769.1,633z"/>
	<path d="M256.4,625.7c1.6-1.7,3-0.3,5.2-0.1C259.4,626.8,257.9,627,256.4,625.7z"/>
	<path d="M579.6,257c-2.3-1.7-2.4-4.2-2.3-6.8C578.1,252.5,578.9,254.8,579.6,257z"/>
	<path d="M575.7,229.1c-1.4-1.7-2.8-3.3-4.2-5C574.1,224.8,575,226.9,575.7,229.1z"/>
	<path d="M622.3,629.9c-1.6,0.4-2.9,0.6-4.3-0.3C619.6,628.3,619.6,628.3,622.3,629.9z"/>
	<path d="M516.8,207.9c0.6-1,1.8-2.2,2.9-2.9C518.8,205.9,517.6,207.1,516.8,207.9z"/>
	<path d="M397,470.4c1.5,0.9,2.2,2.5,3.2,4c-1.5-0.9-2.7-2.1-3.5-3.7C396.8,470.6,396.9,470.5,397,470.4z"/>
	<path d="M421.8,572.3c-1.1,0.9-2.1,1.9-3.1,2.7C419.2,573.4,419.2,573.4,421.8,572.3z"/>
	<path d="M767.7,665.3c0.8-2.1,2-2.8,3.4-3.3C770.5,663.3,769.6,664.3,767.7,665.3z"/>
	<path d="M858.7,498.7c1,1,1.7,1.7,1.4,3.2C858.9,501.2,858.6,500.3,858.7,498.7z"/>
	<path d="M708.6,643.1c1.1-0.5,2-0.4,2.9,0.3C710.4,644.3,709.6,643.3,708.6,643.1z"/>
	<path d="M588.1,263.9c1.3-0.1,2.3,0.5,3.6,2C589.8,265.4,588.8,264.9,588.1,263.9L588.1,263.9z"/>
	<path d="M407.2,633c-1.1-1-1.8-1.8-1.8-3.4C406.8,630.5,407.3,631.4,407.2,633z"/>
	<path d="M276.7,627.9c-1.1,1-1.8,0.8-2.7-0.1C275,627.2,275.8,627.2,276.7,627.9z"/>
	<path d="M765,608.5c1,0.7,1.1,1.4,0.7,2.5C764.9,610.3,764.8,609.6,765,608.5z"/>
	<path d="M635.3,632.3c1.1-1,1.8-0.6,2.7,0.3C637,633.1,636.3,633.2,635.3,632.3z"/>
	<path d="M347.4,635.4c1.1-0.4,1.9-0.4,2.9,0.1C349.3,636.5,348.5,635.6,347.4,635.4z"/>
	<path d="M766.3,639.7c1.4,0.9,1.8,1.6,1.7,3.1C766.9,642,766.5,641.2,766.3,639.7z"/>
	<path d="M402.6,598.7c0.9,0.7,1.2,1.3,1.1,2.1C402.1,600.8,402.6,599.8,402.6,598.7z"/>
	<path d="M851.3,489c0.8,0.6,1.3,1.3,1.7,2.1c-0.2,0.3-0.6,0.4-0.8,0.1C851.7,490.7,850.8,490.1,851.3,489z"/>
	<path d="M536.1,212.4c-0.2,0.7-0.8,1-1.5,1.1C534.9,212.9,535.5,212.6,536.1,212.4L536.1,212.4z"/>
	<path d="M270,626.4c-0.7,0.9-1.1,0.1-1.5,0.1C269,625.6,269.4,626,270,626.4z"/>
	<path d="M631.4,631c-0.8,0.2-1.2,0-1.5-0.4C630.4,629.7,630.8,630.1,631.4,631z"/>
	<path d="M548.5,247.3c-0.4-0.8,0.2-0.9,0.5-1.6C549.2,246.7,548.7,246.9,548.5,247.3z"/>
	<path fill="none" d="M859.2,613.5c4.1-0.1,7.2-2.2,10.7-3.9c7.8,3.3,16.1,5.5,23.7,9.3c3.2,1.6,6.7,1.9,10.1,2.7
		c5.7,1.4,11.5,2.1,17.3,1.5c5.7-0.5,11-2.2,15.7-5.6c2.5-1.8,5.3-3.4,8-5c1.1,0.3,2,0.6,3.4,1.1c-1.6,2-2.3,4.2-2.4,6.7
		c1.3,1,2.5,1.8,3.7,2.8c0.9,0.8,2.7,1.1,2.4,3.1c1.5-0.2,3-0.4,4.2,0.5c0.5-0.4,0.9-0.7,1.2-0.9c0.4-0.8-1-1.2-0.3-1.8
		c0.9-0.9,1.1,0.7,2,0.3c0.3-0.4,0.7-0.9,1.1-1.4c0.8,0.1,1,0.9,1,1.3c0.3,4.2,2.4,8.6-1.4,12.3c-1.2,1.1-3.2,0.9-4.1,2.8
		c-0.2,1,1.1,2.2,0.1,3.5c-1.1,1.2-2.8,0.9-4.4,1.9c-0.6,1-1.4,2.3-2,3.4c-1.6,0.7-3.3,0.2-4.9,1.3c-0.6,1.5-2,2.3-4,2.5
		c-2.3-2.1-5.4-3.1-8.3-4.2c-7.9-2.9-15.9-5.5-24.2-7.3c-2.3-0.5-4.6-0.8-7-0.9c-9-0.5-18-0.8-27-1c-7.7-0.2-15.3-1.9-22.9-3.7
		c-6.3-1.5-12.5-3.2-18.7-4.7c-6.6-1.6-12-5.1-16.5-10.6c1.9-4.4,2.4-9.3,4.4-13.8c1.5-3.4,3.7-6.2,5.9-9.1c2.5-3.2,5.2-6.3,7.8-9.5
		c1.5-1.8,3-3.6,4.1-5.7c0.4-0.8,1-1.6,1.7-2.2c8.8-9,17.3-18.2,28.1-24.9c0.3-0.2,0.5-0.5,0.7-0.6c0.6-0.7-0.1-1.4,0-2.1
		c2.8-1.8,5.6-3.5,8.4-5.3c3.2-2.1,6.3-4.4,9.1-7.1c3.2-3.1,4.5-7.2,6.6-11.7c-2,1.5-4,3.5-4.4,5c-0.8,2.8-3,4.5-5.1,6
		c-4.8,3.4-9.6,6.6-14.7,10.1c-3.3-4.4-5.8-8.9-7.1-14.1c-0.6-2.4-1-4.8-1.4-7.2c-0.2-1.3-0.4-2.6,0.1-3.8c3.1-8.9,5.8-18,9.8-26.7
		c2.2-4.8,5.5-8.9,8.7-13.1c1.1-1.4,2.5-2.6,4.2-3c8.3-1.8,16.6-4.3,25.2-4.5c2.4-0.1,4.6,0.3,6.8,1.3c4.1,1.8,7.9,4.1,11.6,6.5
		c1.4,0.9,2.4,2.2,3.4,3.5c2.7,4,5.1,8.1,7.5,12.3c0.5,0.9,1,1.9,1.1,2.9c1.8,13.4,3.4,26.8,2.5,40.3c-0.7,10.2-0.9,10.5-8.9,16.7
		c-8.1,6.4-16.7,12.1-25.6,17.3c-1.3,0.8-2.7,0.5-3.9,0.9c-4.7,1.7-9,4.1-12.2,7.9c-3.3,3.8-6.5,7.7-9.6,11.7
		c-2.7,3.5-5.8,6.4-9.5,8.7C866.9,608.6,863.1,611.1,859.2,613.5z M831.4,611.1c-1.9,2.6-4.5,4.4-4.9,7.6c1.4,2.3,1.7,2.5,4.3,3.1
		c-0.5-1.1-1.9-1.3-2.3-2.7c0.1-1.5,1.1-2.6,1.9-3.8C831.3,614.1,832.9,613.2,831.4,611.1z M932.9,501.3c-3.1-6.9-5.6-9-9.8-8.5
		c2.1,1.1,4.2,2,5.7,3.6C930.2,498,930.9,500.2,932.9,501.3z M879.8,529.2c-0.1,3.5,0.1,6.2,2.9,8.2
		C883.5,534.7,883.1,533.3,879.8,529.2z M900.9,575.8c-3.2,0.5-6.4,0.3-9.2,2.2C894.8,577.7,898.2,578,900.9,575.8z M871.6,516.4
		c-0.6-2.8-2.1-4.8-5.3-6.7C868.5,511.9,869.3,514.6,871.6,516.4z M954.8,637.6c-2.4-0.8-4.2-0.2-6,0.1
		C950.5,637.6,952.4,639,954.8,637.6z M835.5,627.3c-1.1-2.8-1.1-2.8-2.9-3.4C832.7,625.7,834.1,626.2,835.5,627.3z M854.5,617.6
		c2.1-0.3,2.1-0.3,3-1.9C856.3,616.1,855.4,616.6,854.5,617.6z M915,489.1c1.5,0.9,1.5,0.9,2.9,0.7C917,489.1,916.1,488.7,915,489.1
		z M840.9,627.6c-0.8-0.7-1.3-1.4-2.9-0.4C839.3,627.2,839.6,628.2,840.9,627.6z M887.8,577.7c-0.5-0.9-0.9-0.9-1.4,0
		C886.9,578,887.3,578,887.8,577.7z M892.1,522.6c0.8-0.5,1.5-0.6,0.7-1.4C892.3,521.3,892,521.5,892.1,522.6z M892.2,513.6
		c0.7-0.6,0.8-1.1-0.1-1.6C891.8,512.5,891.7,513.1,892.2,513.6z"/>
	<path fill="none" d="M749.8,471.2c0.1,1.4,1.3,1.8,2.2,2.5c4.7,4,9.4,8,14,12c0.3,0.3,0.5,0.7,0.8,1.1c-5.1-2.3-10.3-4.3-15.7-5.9
		c-5.3-1.6-10.3-4.2-16.1-5.6c0.9,1.6,2.1,1.8,3.2,2.2c7.4,3.1,15,5.9,22.6,8.5c2,0.7,3.9,1.3,5.4,3c0.6-0.8-0.2-1.7,0.5-2.4
		c0.8,0.4,1.6,1,2.7,0.6l0.2,0.2c0,0.2,0.1,0.5,0,0.7c-2.5,3.2-2.5,6.9-2.1,10.8c0.5,4.7,0.8,9.5,2.6,13.9c0.2,0.4,0,0.9,0,1.4
		l0.1-0.1c-0.6-0.3-1.2-0.6-2-0.3c-5.3,1.6-10.7,1.1-16,0.7c-10.1-0.7-20.2-0.7-30,1.8c-11.1,2.8-20.9,8-29.6,15.4
		c-1.9,1.6-3.2,3.6-4.2,5.8c-1.4-0.3-1.8-1.2-2.3-1.9c-5.1-6.4-9.7-13.3-12.8-20.9c-2.1-5-2.8-10.5-2.1-15.9
		c1-7.4,2.5-14.8,4.7-21.9c3.6-11.8,10.2-21.6,19.3-30c6.3-5.7,13.6-9.8,20-15.2c0.2-0.2,0.6-0.3,1.1-0.5
		c6.3,7.7,14.9,12.7,22.7,18.6c7.4,5.6,12.8,12.6,17.8,20.1c0.5,0.7,0.2,1.2-0.2,1.8c2.1,2.6,5,4.6,6,8.8
		c-4.9-6.1-9.8-11.2-15.3-15.8c-5.4-4.6-10.9-9.1-17.5-12.2c0.9,2.2,3.1,2.8,4.8,4.1c1.8,1.4,3.6,2.6,5.4,4c1.8,1.4,3.5,2.8,5.2,4.2
		c1.7,1.4,3.4,2.9,5,4.4c1.6,1.4,3.1,3,4.5,4.6C752.5,473.5,751.7,471.4,749.8,471.2c-0.3-0.6-0.7-0.9-1.5-0.8
		C748.8,470.8,749.1,471.3,749.8,471.2z M732.2,470.5c-0.6-0.7-1.3-0.6-2.1-0.4C730.8,470.5,731.5,470.5,732.2,470.5
		c0.8,1,1.9,0.7,2.9,0.6c1.6,1.3,3.6,1.4,5.5,1.9c-1.7-1.2-3.5-1.9-5.6-1.8C734.2,470.3,733.1,470.6,732.2,470.5z M737,450.9
		c0.6,1.1,1.5,1.9,2.8,2.1c0.8,1.4,2,2.3,3.5,2.8c1,1.5,2.3,2.5,3.9,3.1c-1.2-1.1-2-2.8-3.8-3.2c-0.8-1.4-2-2.3-3.6-2.8
		c-0.5-1.2-1.6-1.8-2.8-2.2c-0.7-1.1-1.6-1.9-2.9-2c-0.3-1.2-1.3-1.6-2.3-1.8c0.6,0.8,1.2,1.7,2.4,1.8
		C734.8,449.9,735.8,450.5,737,450.9z M756.8,490.5c1.4,0.9,2.4,1.2,4,0.8C759.4,490.7,758.4,490.1,756.8,490.5z"/>
	<path fill="none" d="M769.3,487.3c-0.1-1.2-0.3-2.4-1.1-3.3c-3.8-4.1-5.7-9.4-8.9-13.9c-3.3-4.7-6.5-9.5-9.7-14.2
		c-1.5-2.2-3.4-4.2-5.6-5.8c-6.6-4.7-12.5-10.2-19.2-14.7c-2.1-1.4-4-3.3-5.9-5.1c6.5-4.4,13.2-8,20.4-10.8c5.2-2,10.9-2.6,16.4-3.8
		c19-4.2,38.1-4,57.4-2.7c0.6,0,1.2,0.1,1.7,0.3c4.4,1.5,9,2.5,13.7,3.5c-4.4,28-10.9,55.4-20.5,81.7c-9.7-0.6-17.1-4.9-23.7-11.6
		c-0.3-0.6,0.2-1.8-0.6-2.7c-0.1-0.1-0.2-0.1-0.3-0.1c-0.7,0.2-0.5,0.9-0.5,1.4c-0.1,0.6-0.1,1.1-0.2,1.7c-2.7,1.8-5.3,0.4-8-0.1
		c-1.6-5-3.1-10.1-5.3-15c0.7,5,2.3,9.7,3.7,14.5c-1.2,0.8-2.4,0.7-3.6,0.8L769.3,487.3z M727,429c4.4-2.9,8.8-4,13.3-6.1
		C733.8,423.6,729.1,425.6,727,429z M747,421.1c2.3,0.4,4-0.3,5.7-1.3C750.9,419.9,748.8,419.3,747,421.1z M774,418.1
		c-1-0.7-2-0.7-3,0C772,418.8,773,418.5,774,418.1z M761.2,418.8c0.9,0.6,1.5,0.7,1.9-0.2C762.5,418.1,762,418.2,761.2,418.8z"/>
	<path fill="none" d="M514.8,659.7c1.1-0.3,1.7-1.2,2.2-2.1c1.3-2.5,3.5-3.9,5.9-5c0.8-0.4,1.5-0.8,2-1.4c3.5-4.1,8.1-6.7,12.2-10
		c0.5-0.4,1-0.9,1.3-1.8c-3.1,2.1-6.4,4-9.4,6.2c-3,2.2-5,5.7-9.1,7.3c5.7-9.9,11-19.5,17.3-28.5c2.8-4,6.4-7.1,10.4-9.8
		c3.9-2.6,7.3-5.7,10.3-9.4c2.8-3.5,5.8-6.7,8.6-9.9c-0.2-0.9-0.3-1.6-0.4-2.3c1.9-0.3,3.3-1.7,4.9-2.6c1-0.5,2.1-1.1,3-1.8
		c5.6-3.8,11.4-6.9,19-5.5c1.2,2.1,3.5,4.1,5.6,6.3c1.5,1.6,3,3.2,3.4,5.6c0.2,1.4,1.4,2.4,2.4,3.4c3.3,3.5,6.8,6.8,9.8,10.5
		c2.1,2.6,2.8,5.3,1.7,8.5c-1.3,1.3-3.1,0.8-4.6,1.3c-4.2,1.6-8.3,3.3-12.1,5.5c-1.4,0.8-2.8,1.8-3.5,3.3c-0.8,1.7,0.4,3.1,0.7,4.6
		c0.8,4.7,2.5,9,5.1,12.9c1,1.5,1.8,3,2.6,4.9c-4.9-1.8-9.4,0.8-14,0.5c-3.1-4.1-3.1-4.1-5.4-2.5c-0.2,0.6,0,1.1,0.3,1.7
		c0.2,0.5,0.8,0.8,0.6,1.6c-1.1,0.6-2.4,0.7-3.7,0.7c-1.8-1.4-3.1-3.6-5.8-3.6c-0.9,0-1.5,0.5-1.7,1.4c-0.2,1.4,1.2,2,1.3,3.4
		c-3,0.2-6,0.4-8.9,0.5c-1.3-0.2-1.3-1.8-2.6-1.8c-1.4,0.4-0.4,1.3-0.4,1.8c-9.3,4.3-18.5,8.7-28.2,11.8c-0.6,0.2-1.2,0.3-1.6,0.7
		c-3.8,2.9-7.3,2-11-0.4C520.1,663.8,517,662.3,514.8,659.7z M573.8,634.9c0.7,0.4,1.4,0.9,2.2,1.1c2.2,0.7,4.3-0.2,5.3-2.2
		c0.9-1.8,0.3-3.9-1.4-5.3c-0.8-0.7-1.8-1-2.9-1.1c-4.1,1.4-4.7,2.6-3.5,7.2c-1.1-0.3-2.2-0.6-3.1-0.8c-3,0.1-3.8,2.6-5.5,4.1
		c0.8,1.1,1.5,2.3,2.5,3.3c1.3,1.5,3.4,1.8,5.1,1c1.7-0.8,2.6-2.6,2.2-4.7C574.5,636.6,574.1,635.7,573.8,634.9z M593.8,586
		c-1.3-0.4-1.7,0.2-2.2,0.7c-4.7,5.2-10.5,8.9-16.8,11.9c-2.1,1-4.1,2.2-6,3.7c-1,0.8-2.2,1.7-2.4,3c-0.3,2.7-2.2,4.4-3.9,6.1
		c-8,8.4-14,18.5-22.6,27.3c4.9-2.3,26.3-28.4,28-33.8c2.6-1.9,5.5-3.4,8.4-4.9c4.9-2.5,9.6-5.3,13.7-9.2
		C591.5,589.4,593,588.1,593.8,586z M578.4,625.1c1.1,0.4,1.9,0.8,2.9,1.1c0.2,1.8,0.6,3.7,2.7,3.9c2.5,0.2,3.3-2.1,4.9-3.3
		c-3-3.8-4.4-5.1-6.4-5.8c-0.5,1.1,1.2,1.6,0.9,2.5C582.1,625.5,579.9,623,578.4,625.1z"/>
	<path fill="none" d="M915.8,613.3c-0.7,1.8-2.3,2.9-3.5,4.4c-0.6,0.8-1.3,1.6-1.4,2.7c-4.8-0.1-9.3-1-13.6-3
		c-4.3-2-8.8-3.8-13.3-5.8c1.1-2,2.2-3.9,3.9-5.5c-1.3-0.4-2.1,0.3-2.7,1.2c-0.6,1-1.3,1.9-2.3,2.6c-0.6-0.9-0.4-1.7-0.3-2.5
		c0.5-0.7,1.7,0,1.9-1.3c-2.4-1.2-5.2-0.7-7.6-1.4l0.1,0.1c5.2-5.8,10.8-11.4,15.6-17.5c3.5-4.6,8.1-6.8,13.2-8.5
		c3.1-1,6.1-2.3,9.3-3.6c1.2,0.8,2.1,2,3.3,2.9c2.8,1.9,4.1,4.7,4.2,8.1c0,1.1,0.2,2.1,0.1,3.2c0,2.6-1.4,3.8-4,3.6
		c-1.5-0.1-2.7-0.8-3.7-1.9c-0.6-0.6-0.8-1.7-1.9-1.8c-1.1,0.4-0.7,1.1-0.4,1.7c1.2,2.9,3.6,4.3,6.6,4.5c3.1,0.3,6-2.3,6.1-5.5
		c0-2.2-0.2-4.4-0.6-6.6c-0.8-4.2-3.4-7.1-7.5-8.9c1.3-1.6,3-2.3,4.1-2.9c10.2,1.6,19.8,2.8,29.8,2.5c-2.9-3.4-6-4.1-24.7-5.8
		c1.2-1.7,3-2.6,4.4-3.8c2.4,0.4,13.6-0.1,16.2-0.8c0.2-1.2-1.7-0.8-1.6-2c1-0.5,2-0.1,3,0c1.9,1.4,3.7,2.9,5.9,4.5
		c-0.9,4-2.7,8-1.8,12.9c-4.3-0.9-8.2-1.6-12-2.4c-3.5-0.8-7-1.7-10.4-2.7c-1.6-0.5-2.9,0.1-4.7,0.4c3.8,3,7.6,5.7,11.6,8.1
		c0.9-0.5-0.6-1.2,0.4-1.9c4.4,0.5,9.2,0.7,13.8,2.2c0.4,1.9,0.3,3.6,0.1,5.4c-5,0.6-10.1-1-15.1,1.4c-1.7,0-3.5-1.2-6.2-0.7
		c3.3,1.9,6.5,2,9.2,3.2c1-0.9,0.1-1.5,0-2.2c4.1-0.5,8.1,0.8,12.1,0.5c0.4,1.8-0.9,2.5-1.3,3.7c-2.6,1.5-5.3,2.4-7.9,2.7
		c-1.5-0.2-1.1-1.5-2.2-2.2c-3.3-1.4-7.8,1.9-11.3-1.7c-0.7-0.6,0.1-1.5-0.5-2.4c-1.4,1.5-3.1,2.8-3.6,4.8c-0.8,0.9-2,0.1-2.7,1.5
		c6.4,2.3,13.1,3,19.9,4.1c-0.8-1.7-0.8-1.7-2.4-2.6c3.4-0.5,6.7-0.8,9.9-2c0.3,2.4,0.5,4.6-1.9,6.1l0.1,0c-2.2-0.2-4.2,0.6-6.2,1.1
		c-1.5,0.4-3,0.6-4.5,0.5c-2.4-0.2-4.7,0.1-7,0.4c-3.5,0.5-6.9,1-10.4,1.5c-1.1,0.1-1.9,0.8-2.7,1.5c-0.9,0.8-1.7,1.7-2.6,2.4
		c-2,1.4-3,3.6-3.9,5.7c-0.3,0.8-0.3,1.5,1.1,2.4c-0.4-2.7,0.8-4.3,2.1-5.9c0.9,0.5,0.9,1.9,2.1,1.5
		C915.6,613.2,915.7,613.3,915.8,613.3z M917.2,582.4c-1.9-1.6-3.8-3.3-5.9-4.4c-0.6,0.4-1.1,0.8-1,1c0.3,1.8,2,1.8,2.2,2.5
		c0,1.2-1,1.8-0.4,3c1.6-0.9,2.9,1,4.6,0.6c0.9-0.9,0.4-1.9,0.5-2.8c1.1,0.5,1.5,1.3,1.3,2.5c-0.3,1.6,0.1,3.1,0.5,4.7
		c1.9-1.1,1.9-1.1,1.4-5.6c-0.2-2.1-3.3-5.6-5.6-6.3C914.8,579.6,916.7,580.6,917.2,582.4z M951.6,567.6c-7.1-1-14.3-1.7-21.5-1.2
		C937.2,568.1,944.4,567.5,951.6,567.6z M921.5,598.9c-3.9,1-6.5,3.5-8.1,7c-0.3,0.7-0.1,1.4,1.1,1.4
		C916.3,604.2,918.6,601.3,921.5,598.9z M911.2,603.1c2.2-1.9,3.8-4.1,6.8-5.3C913.3,597.2,911.1,599.1,911.2,603.1z M926.5,578.2
		c0.4,3.5,4.4,7.5,9.6,9.5c-2.1-1.9-3.5-3.6-5.4-4.7C928.7,581.8,927.9,579.8,926.5,578.2z M929.3,588c0-0.5,0.9-1.1-0.1-1.5
		c-0.1,0.2-0.2,0.4-0.2,0.6C929,587.5,929.2,587.7,929.3,588z"/>
	<path fill="none" d="M806.5,572c3.1-11.1,9.4-19.8,15.3-29c4,5.1,9.4,7.4,15.2,9c0.4,0.1,0.9,0.3,1.3,0.4
		c5.6,2.3,11.3,3.6,17.9,3.5c-4,3.6-9,4.3-12.4,7.8c-0.1,1.4,1.6,1.8,2.2,3.1c-6.5,7-11.2,15.6-18.3,22.5
		C819,585.6,812.8,578.6,806.5,572z M835.4,562.1c4.2,0.5,6.3,0,8-2.1C840.6,560.1,838.2,560.8,835.4,562.1z M830.6,562
		c-1.5,0.1-1.5,0.1-2.1,0.9C829.1,563,829.8,562.8,830.6,562z M825,563.2c-1.2-0.4-1.7-0.3-2,0.5C823.5,564.3,824,564.1,825,563.2z"
		/>
	<path fill="none" d="M566.2,592.9c-1.4,0.1-2.3,1.1-3.1,2.1c-2.9,3.4-6.4,6.3-8.6,10.1c-2.6,4.3-6.4,7.1-10.6,9.4
		c-5.2,2.9-8.8,7.3-11.7,12.2c-2.1,3.6-4.4,7.1-6.9,10.5c0.2-2.9,1-5.8,1.7-8.6c0.2-0.8,0.4-1.8,1-2.2c2.3-1.6,2.9-4.2,4.1-6.4
		c2.6-4.9,5.6-9.4,9.2-13.6c1.1-1.2,2.5-2.1,2.9-3.9c0.2-0.8,1.1-1.1,1.8-1.6c2.2-1.5,4.5-3,7-3.9c3.6-1.3,6.2-3.7,8.4-6.7
		c3.7-5.1,7.9-9.9,12.6-14.1c1.4-1.3,2.9-2.3,4.6-3c0.4-0.2,0.9-0.3,1.3-0.5c4.2-2.5,8.6-2.8,13.4-1.4c-1.6,2.2-3.1,4.5-4.7,6.7
		c0.1,0.1,0.2,0.2,0.4,0.4c2.2-2.1,4.3-4.1,6.5-6.2c1.6-0.2,2.7,0.7,3.9,1.4c8,5.3,14.4,12.3,20.3,19.7c1.3,1.6,1.7,3.6,2.7,5.4
		c-1.2,0.8-2.4,1.6-3,2.9c-2.7-0.2-5.2-1.5-7.6,0.2c-6.8-6.3-11.3-14.5-18.6-21.3c-2.6,0.2-6.2,0.4-9.8,0.3c-1.6,0-2.7,1.3-4.1,1.9
		c-4.8,2.1-8.8,5.4-12.6,8.8C566.5,592,566.1,592.4,566.2,592.9z"/>
	<path fill="none" d="M976.1,478.4c-1.5-1-3-0.9-4.5-0.8c-0.7-1-0.9-1.9-0.6-3c1.1-3.7,0.9-7.4,0.4-11.1c-0.5-4.1,0.4-7.8,3.3-11.3
		c1.2,0.8,2.1,2,3.4,2.2c0.9,0.3,1.4-0.8,2.4-0.6c0.2,0.2,0.4,0.5,0.5,0.8c0.3,0.9,0.3,1.9,0,2.8c-2.4,6.3-3,12.9-4.6,19.4
		C976.3,477.1,976.2,477.6,976.1,478.4z"/>
	<path fill="none" d="M940.4,611.1c-4.8,0.4-9.5,0.8-14.3,1.1c-2.8,0.2-5.6,0.7-8.4-0.2c-0.6,0.4-1.3,0.9-2,1.3
		c-0.1-0.1-0.2-0.2-0.3-0.3c0.3-4,1.8-5.7,4.7-5.9c-1,1.3-2.9,1.9-3.5,3.6c0.8,0.5,1.2-0.2,1.6-0.4c1-0.6,1.8-1.5,2.9-1.9
		c2.9-1.1,5.4-3.7,8.9-2c2.2-0.8,4.6-1.2,6.9-1.2c3.8-0.1,7-2,10.4-3.3l-0.1,0c1.1,1.6,0,3-0.4,4.4c-0.3,1-0.8,1.9-1.3,2.9
		c-1.5,1.2-3.7,0.8-5.3,1.8L940.4,611.1z"/>
	<path fill="none" d="M957.9,567.5c-0.1-1.7,0.8-3.1,1.6-4.6c2.3-4.3,5-8.4,7.7-12.4c-0.4-0.9-0.8-1.4-2-1.6
		c-4.6,4.1-7.2,9.5-8.1,15.9c-0.8-1-0.7-2.1-0.4-2.8c1.6-4.5,1.6-9.6,4.8-13.6c1.7-2.2,3.1-4.6,4.8-7.3c3.2,5.6,0.5,11,0.8,16.5
		C963.6,560.6,961,564.3,957.9,567.5L957.9,567.5z"/>
	<path fill="none" d="M967.5,561.9c0.1,4.3-2.2,7.2-2.7,10.7c-4.7,4.2-8.5,8.9-11.1,15.5c-0.6-2.6-0.4-4.4-0.2-5.9
		c0.6-0.8,1.3-0.4,1.8-0.7c0.3-0.8-0.6-1.1-0.8-1.9C958.4,573.6,962.6,567.8,967.5,561.9z"/>
	<path fill="none" d="M949.2,611.7c-1.1-0.5-1.4-1.3-1.8-2.3c3.7-6.8,9.4-12,14.8-18.2c0.1,3.1-0.6,5.5-1.1,7.9
		c-0.6,0.7-1.5-0.4-2.3,0.2C956.7,604.1,952.3,607.4,949.2,611.7z"/>
	<path fill="none" d="M951.3,599.7c-0.4-4.8,1.8-8.4,4.5-11.8c2.8-3.4,5.7-6.7,8.9-10.4c0.6,3.9-0.2,7.1-2.6,9.4
		C958.1,590.7,954.2,594.7,951.3,599.7z"/>
	<path fill="none" d="M961.1,602.3c-0.4,3.3-0.9,6.5-2.9,9.2c-2.5,3.2-5.2,6.3-7.8,9.4c-1.1-0.1-1.7-0.8-2.6-1.6
		c0.3-1.5,0.6-3,1-4.6C953.6,611.2,958.1,607.5,961.1,602.3z"/>
	<path fill="none" d="M940.3,611.2c0.3,0.1,0.7,0.1,1.5,0.2c-1.6,1.8-3.1,2.9-5.2,3.4c-5.5,1.4-11.1,1.5-16.7,1.3
		c-1.5-0.1-2.9-0.1-4.5,0.2c0.7-1,1.4-2,2.3-3.2c1.4,1.5,3.1,0.8,4.7,0.9c4.8,0.1,9.5-0.5,14.2-1.5c1.3-0.3,2.8-0.3,3.8-1.4
		L940.3,611.2z"/>
	<path fill="none" d="M958.2,548c1.3-7.5,4.2-14.3,10.1-19.8c0.3,2,0,3.6-0.8,5.3c-1.3,2.7-2.9,5.2-5,7.5
		C960.6,543,959.8,545.7,958.2,548z"/>
	<path fill="none" d="M960.3,533.1c-0.1-4,3.9-10.9,10.7-18.9c-0.5,2.4,0.1,4.3,0.1,6.3c-2,1.9-4.4,3.4-6.2,5.6
		C963.3,528.2,961.7,530.4,960.3,533.1z"/>
	<path fill="none" d="M972,647.6c0.4-1.8,0.7-3.4,1.2-5.7c2.1,4.4,4.7,7.6,7.5,11.1C976.6,652,974.3,650.5,972,647.6z"/>
	<path fill="none" d="M914.5,620.7c0.9-2.8,3.4-2.6,5.5-3.1c3.7,2.6,7.5-0.2,11.8,0C926.1,620.5,920.4,621.1,914.5,620.7z"/>
	<path fill="none" d="M980.5,451.2c0.1-0.7,0.2-1.5,0.3-2.2c0.4-0.3,0.8-0.3,1.1-0.1c2,1.2,2.8,3,2.7,5.3c-0.1,3.6-1.2,6.9-2.5,10.6
		c-0.3-2.2,0.5-3.8,0.8-5.4C983.8,455.4,983.5,454.1,980.5,451.2z"/>
	<path fill="none" d="M971.9,509.8c-2.9,1-4.5,3.5-6.8,5.4c1.4-3.6,3.1-7.1,5.8-10.4C971.3,506.7,971.6,508.1,971.9,509.8z"/>
	<path fill="none" d="M936.7,598.3c-4.3,0.3-6.2-0.2-10.3-2.1c-0.3-1,0.3-1.7,1.1-2.5C930.4,595,933,596.9,936.7,598.3z"/>
	<path fill="none" d="M992.8,660.9c-7.2-0.4-14.5,0.6-21.6-1.7C978.3,660.3,985.5,660.7,992.8,660.9z"/>
	<path fill="none" d="M876.9,604.7c0.4,1,1,1.8,2.1,2c-0.1,1.2-0.4,2-1,3c-1.8-0.5-3.5-1-5.6-1.6
		C873.9,606.7,875.3,605.6,876.9,604.7L876.9,604.7z"/>
	<path fill="none" d="M972.8,480.6c1.3,0.5,1.2,1.2,1.1,1.9c-0.2,2.7-2,8.9-3.2,10.7C970.9,488.7,972.9,484.9,972.8,480.6z"/>
	<path fill="none" d="M969.5,457.3c-0.4-2.3-0.2-3.6,0.2-5.1c1.3-1.2,3-1.9,4.8-2.4C972.5,451.8,970.7,453.8,969.5,457.3z"/>
	<path fill="none" d="M936.2,560.5c0.2-1.3,1-1.9,1.9-2.5c1.4,0.7,2.9,1.3,4.3,2c0.1,0,0.1,0.2,0.2,0.4
		C940.5,560.5,938.4,560.9,936.2,560.5z"/>
	<path fill="none" d="M956,543.7c0.6-3.2,1.4-5.9,0.5-8.8C958.4,537.5,958.3,541.1,956,543.7z"/>
	<path fill="none" d="M968.5,472.1c-0.9-2.4-0.1-4.7,0.2-7.1C969.2,467.4,969.2,469.7,968.5,472.1z"/>
	<path fill="none" d="M957.8,567.4c-0.3,2.5-2.3,4.2-2.8,7.5c-0.5-2.9-0.5-2.9,0.2-4.5C955.7,569,956.4,567.9,957.8,567.4
		L957.8,567.4z"/>
	<path fill="none" d="M955.8,619.6c-0.8,1.2-1,2.8-2.3,3.7c-0.9-0.1-1.5-0.5-1.9-1.5C953.1,621.2,954.2,619.9,955.8,619.6
		L955.8,619.6z"/>
	<path fill="none" d="M934.1,595.4c1.8,0.5,3.9-0.1,5.8,1.2C937.5,597.6,935.6,597.2,934.1,595.4z"/>
	<path fill="none" d="M955.8,619.7c0.2-1.4,1.5-1.8,2.4-3.1c0.5,1.7,0.3,2.8,0,4C957.2,620.7,956.8,619.3,955.8,619.7L955.8,619.7z"
		/>
	<path fill="none" d="M996.3,660c1.7-0.1,3.3-0.5,5,0.5C998.2,661.4,998.2,661.4,996.3,660z"/>
	<path fill="none" d="M847.6,565.5c-0.8-0.5-1.2-0.8-1.2-1.7c1.1-0.4,2.2-0.8,3.6-1.3C849.7,564.1,848.5,564.6,847.6,565.5z"/>
	<path fill="none" d="M971.3,654.2c1.4,0.7,2.7,1.2,3.8,2.3C971.8,656.1,971.8,656.1,971.3,654.2z"/>
	<path fill="none" d="M598.3,629.3c0.2,1.6,0.4,2.7,0.6,4.2C597.6,632.1,597.5,631.1,598.3,629.3z"/>
	<path fill="none" d="M936,577.8c-1.5,0.4-2.4,0.2-3.2-0.7C933.9,576.5,934.7,577.3,936,577.8z"/>
	<path fill="none" d="M961.8,520.3c-0.5-0.8-0.4-1.5,0.7-1.7C963.1,519.5,962.5,519.9,961.8,520.3z"/>
	<path fill="none" d="M632.5,287.7c-0.4-0.1-0.9-0.2-1.1-0.2c-1.4,0.4-0.9,2.1-2.1,2.5c-0.1-0.1-0.3-0.3-0.3-0.4c0.1-2,0.6-4-1-5.6
		c0.6-1.1,1.1-2,1.6-2.9c-0.8-0.8-1.4-0.2-1.9,0.3c-0.7,0.7-0.8,1.5-0.7,2.5c0.1,3,0.6,6.1-1.6,8.5c0.6,0.5,0.9,0.8,1.2,1.1
		c0,0.3,0,0.5-0.1,0.7c-2.3,4.4-3.2,9.3-4.1,14.1c-1.7,9.6-3,19.3-4.3,29.1c-0.9,6.7-3.2,13.2-5.2,19.7c-2.6,8.6-6.8,16.4-11.3,24.1
		c-1.7,2.9-3.6,5.8-5.3,8.7c-1.5,2.6-3.6,4.6-5.9,6.3c-8-1.9-15.4-4.9-22.4-9.2c-7.8-4.8-15.6-9.6-23.8-13.6
		c-4.6-2.3-9-5.1-12.8-8.5c-4.1-3.8-9-6.6-12.9-10.7c-1.8-1.9-3.5-3.8-5.1-5.8c-4.7-5.9-9.9-11.3-15.5-16.3c-1-0.9-2.1-1.8-2.8-3
		c-1.2-2.1-3.5-1.9-5.6-2.1c0,0.4-0.1,0.7,0,0.8c5.9,3.2,9.6,8.8,13.8,13.7c4.6,5.3,8.9,10.9,13.8,15.9c0.4,0.4,0.9,0.8,1,1.6
		c-2.2,2.4-4.6,4.6-8.1,5.3c-5.3,1.2-10.7,1.4-16.1,1.5c-1.9,0-3.7-0.5-5.5-1c-9.1-2.4-17.6-6.3-25.7-11.2c-2.6-1.6-5.1-3.4-7.1-5.7
		c-0.8-1-1.9-1.3-3-1.8c-3.1-10-5.8-20-3.9-30.6c0.3-1.5,0.8-2.9,1.4-4.3c3.4-6.9,7.3-13.3,11.8-19.5c1-1.4,2.2-2.8,2.9-4.4
		c3-6.4,8.8-8.8,14.8-10.9c3.2-1.2,6.7-0.5,10.1-0.4c1.6,0,3.3,0.3,4.9,0.4c2,0.1,3.9,0.3,5.6,1.8c0.9,0.8,2.3,1.1,3.5,1.5
		c5,1.5,9.6,3.8,14.2,6.1c6,3.1,10.4,7.8,13.7,13.6c1.4,2.5,2.4,5.1,2.5,7.4c0.4,1.4,1.1,0.8,1.7,1.1c1.6,3.9,4.3,7.4,5.9,11.4
		c0.7,1.7,1.9,3.1,3.3,4.5c4.3,4.1,8.8,8.1,13.7,11.5c1.9,1.4,3.3,3.3,4.9,5.3c1.3-0.2,2.5,0.4,3.5,1.6c0.2,0.3,0.5,0.5,0.8,0.7
		c5.4,4.2,9.9,9.2,13.4,15.1c0.3,0.5,0.6,1,1.6,1.1c-1-2.5-0.9-5.3-3.9-6.7c-0.9-0.4-1.3-1.9-1.8-2.7c3.2-4.3,5.8-8.7,8.3-13.2
		c3-5.4,6.5-10.5,10.3-15.4c3.9-5,6.5-10.5,7.7-16.7c0.5-2.7,1.6-5.4,2.5-8c2.3-7,3.8-14.2,4.6-21.6c0.6-6.2,2.1-12.2,5.4-17.7
		c0.9-1.4,1.7-2.7,3.2-3.6c2.8-1.8,5.2-4,7.3-6.6c0.3-0.4,0.5-0.8,0.9-1.1c2.9-2,5.8-3.9,8.4-6.2c4,4.5,4.4,7,2.1,11.8
		c0.3,1.6,1.7,2.5,2.2,4.2c0,1.4,0,3,0,4.9c2.7,1.9,2.4,4.8,1.4,7.7c1.3,2.1,1.4,4.4,1.5,6.9c-0.8,2.1-2.6,3.4-4.3,4.9
		c-2.1,1.9-4.2,3.7-5.8,6.1c-0.3,0.5-0.8,0.9-0.6,1.6L632.5,287.7z M578.6,377.9c1.7,2.9,4.2,3.5,6.5,3.3c3.5-0.3,7.1-1.2,9.2-4.7
		c-2.8,0.3-5.2,1.6-7.1,3.1C584.1,379.5,582,377.1,578.6,377.9z M490.6,338.9c4.6,0.3,5.6-0.2,6.4-2.9
		C494.7,336.2,493.1,337.5,490.6,338.9z M636.4,249.8c-1-4.2-1.3-4.5-4.4-3.8C633.8,247.3,635.3,248.3,636.4,249.8z M620.5,297.7
		c2.2-3.1,2.2-3.1,1.3-5.5C621,294,620.8,295.4,620.5,297.7z M635,266.7c1-0.9,2.9-1.2,2.9-3.5C636,263.8,635.5,265.2,635,266.7z
		 M483.1,342.4c0.8,0.1,1.8,0.6,1.4-1C483.9,341.3,483.4,341.6,483.1,342.4z M631.6,270.1c-0.9,0.6-1.5,1-1.3,2
		C630.8,271.6,631.9,271.6,631.6,270.1z M633.4,253.3c-0.5,0.6-1.4,0.9-0.6,1.9c0.3-0.3,0.6-0.4,0.8-0.6
		C633.9,254.3,633.9,254,633.4,253.3z"/>
	<path fill="none" d="M518.6,363.3c0.8-0.9,0.2-2.2,1.6-2.7c2.7,2.3,5.5,5,8.6,7c0.4,2.4-0.3,4.5-0.7,6.7c-0.4,2.5-1.2,4.9-0.6,7.6
		c0.3,1-0.4,2.3-0.6,3.4c-1.8,7.4-5.6,13.6-11.5,18.4c-1.3,1.1-2.6,2-4.2,2.5c-3,0.8-6.1,1.8-9.2,2.3c-6,1.1-12.1,0.6-18-0.9
		c-2.2-0.6-4.1-0.3-5.4,1.4c-3.3,4-8,6.1-11.8,9.4c-3-1.3-5.7-3-7.8-5.3c-5.5-6-12.3-10.4-18.6-15.5c-4.2-3.4-8.5-6.6-12.8-9.9
		c-8.3-6.3-15.1-13.9-21.9-21.8c-0.2-0.2-0.3-0.6-0.6-1c0.7-1.1,1.4-2.1,2.1-3.2c4.2-6.2,8-12.7,11-19.6c2.6-6,5.9-11.7,9.6-17.1
		c2-2.9,3.9-5.8,5.8-8.8c6.7-10.1,15.1-18.7,24.1-26.9c2.1-1.9,4.1-4,6.4-6.3c0.1,1.5-0.7,2-1.3,2.7c-5.6,7.1-10.7,14.4-14.9,22.5
		c-3,5.7-3.5,11.6-3.1,17.7c0.5,8.2,3.5,15.7,7.6,22.8c0.7,1.3,1.4,2.7,3.3,2.8c0.7,0,1.1,0.8,1.7,1.2c9.4,7.8,20.1,13,31.9,15.5
		C499.5,370.6,509.7,369.9,518.6,363.3z M476.7,401.9c0.5,2.6,1.6,3.5,3.9,2.9C479.7,403.3,478,402.9,476.7,401.9z M470.9,396
		c0.2,0.5,0.2,1.4,1.2,1C472.2,396.2,471.8,395.9,470.9,396z"/>
	<path fill="none" d="M463.8,420.8c-1.2,1.6-2.7,2.2-4,2.9c-4.5,2.7-9.1,5.3-13.7,7.9c-1,0.6-2.1,1.1-2.8,2.1
		c-3.3,4.8-8.1,8.1-12,12.2c-1.3,1.3-2.6,2.5-3.2,4.4c-0.7,1.8-2.4,3.2-3.7,4.6c-3.6,4.1-7.3,8.3-10.9,12.4
		c-0.8,0.9-1.6,1.6-2.7,2.6c-4.7-7.5-11.7-12.2-17.7-18.1c-3.7-3.6-7.9-6.6-12-9.7c-3.6-2.7-7.5-4.6-11.6-6.3
		c-7.2-3-13.6-7.3-19.7-12.1c-0.4-0.4-0.8-0.8-1.5-1.4c1.7-0.9,3.2-1.8,4.7-2.6c7-3.7,13.2-8.4,17.7-15.1c0.6-1,1.6-1.7,2.5-2.5
		c6.3-5.8,12.4-11.7,17.7-18.5c4.2-5.3,8.9-10.3,12.5-15.8c1.1-0.2,1.4,0.6,1.8,1.1c8,10.3,17.4,19.2,27.8,27.1
		c6.2,4.7,12.2,9.5,18.2,14.3c0.7,0.6,1.5,1.2,2.1,1.9C456.4,415.5,459.6,418.6,463.8,420.8z M408.4,449.4c-1.8,3.9-2.6,8-2.7,12.3
		C408,457.9,407.9,453.5,408.4,449.4z M409.1,439.4c-1.3,2.7-1.1,4.8-0.8,7.4C409.9,444.4,409.7,442.3,409.1,439.4z M407.7,425.5
		c-0.4,1-1.6,2.1,0.1,3.1C408.1,427.4,408.5,426.5,407.7,425.5z M409,434.7c0,0.8-1.2,1.2-0.5,2.2
		C409.6,436.5,409.5,435.7,409,434.7z"/>
	<path fill="none" d="M162,652.7c-0.6-0.1-1.2-0.1-1.7,0.3c-0.6-0.6,0-1.1,0.2-1.5c4.7-9.2,9.3-18.3,14.9-27
		c2.3-3.7,5.3-6.9,8.8-9.5c5.2-3.8,9.5-8.2,13.2-13.4c1.4-2,3.1-3.8,4.6-5.7c0.9-1.2,2.1-2.3,1.4-4c5.6-4,11.2-7.6,17-11.1
		c3,0.1,6-0.5,9.1-0.7c1.9,3,4.8,5.1,7.2,7.6c1,1,1.9,2,2.2,3.5c0.3,1.8,1.7,3,3,4.2c3.3,3.2,6.8,6.1,9.8,9.6
		c2.9,3.4,3.1,4.1,2.5,8.7c-0.3,0.2-0.7,0.6-1.1,0.7c-5.4,1.1-10,3.8-14.7,6.4c-1.2,0.7-2.4,1.5-3.3,2.6c-1.2,1.5-1.7,3.1-0.5,4.8
		c0.5,0.7,0.9,1.3,1,2.2c0.5,4.2,2.7,7.7,4.9,11.1c1.1,1.6,2.3,3.1,2.9,5.2c-4.9-1.4-9.3,1.3-13.9,1.1c-1.3-1.1-1.8-2.9-3.6-3.4
		c-0.9-0.1-1.5,0.4-1.8,1.2c-0.5,1.4,1.1,2,1,3.3c-1.2,0.3-2.4,0.6-3.5,0.9c-4.9-4-5.3-4.1-7.7-2.3c-0.6,1.5,1.2,2.1,1.3,3.6
		c-3,0.3-6,0.7-9.1,1c-1.2-0.2-1.4-2.7-3.1-1.4c-0.3,0.7,0.4,1.1,0.6,1.6c-3.1,1.1-6,2.6-8.8,4.2c-4.9,2.7-10.1,4.9-15.3,7
		c-2.5,1-5,2-7.3,3.5c-1.6,1.1-3.6,1.5-5.3,0.6c-4.1-2-8.4-3.7-11.7-7C156.9,657.7,159.1,654.9,162,652.7c1.8,0.3,2.7-1.2,3.6-2.3
		c2.3-2.8,5.2-5,8-7.2c1.1-0.9,2.3-1.6,2.9-3.1c-3.2,1.9-6.4,3.9-9,6.4C165.6,648.5,163.1,650.1,162,652.7z M213.9,632.1
		c0.7,0.4,1.4,0.9,2.2,1.1c2.2,0.7,4.3-0.2,5.3-2.2c0.9-1.8,0.3-3.9-1.4-5.3c-0.8-0.7-1.8-1-2.9-1.1c-4.1,1.4-4.7,2.6-3.5,7.2
		c-1.1-0.3-2.2-0.6-3.1-0.8c-3,0.1-3.8,2.6-5.5,4.1c0.8,1.1,1.5,2.3,2.4,3.3c1.3,1.5,3.4,1.8,5.1,1c1.7-0.9,2.6-2.6,2.2-4.7
		C214.6,633.8,214.2,633,213.9,632.1z M179.5,637.9c1.3,0.4,1.9-0.7,2.6-1.4c2.2-2.2,4.4-4.5,6.2-7.1c4.7-6.7,9.5-13.3,14.2-19.9
		c0.5-0.7,1.3-1.4,0.9-2.5c2.3-0.2,1-2.6,2.5-3.9c2.5-2,5.8-3.7,9-5.6c5-3,9.9-6.2,13.6-10.9c0.7-0.9,1.8-1.8,1.7-3.2
		c-0.4-0.1-0.7-0.2-0.8-0.1c-0.5,0.4-1.1,0.9-1.5,1.4c-4.1,4.9-9.3,8.5-14.8,11.6c-1.8,1-3.6,2.2-5.4,3.3c-2.6,1.8-4.5,4-4.3,7.4
		c-1,0-1.2,1-1.8,1.5C193.5,617.7,187.5,628.6,179.5,637.9c-0.7,0.2-1.2,0.6-1.9,1.3C178.7,639.1,179.2,638.7,179.5,637.9z
		 M229.5,623.8c-2.2-2.1-4-3.9-5.9-5.6c-0.2-0.2-0.7-0.2-1.1,0.4c-0.4,0.8,1.5,1.3,1,2.2c-1.4,1.8-3.6-0.7-4.9,1.4
		c0.9,0.4,1.9,0.8,2.9,1.3c0.1,1.7,0.5,3.4,2.4,3.8C226.4,627.8,227.3,625.3,229.5,623.8z"/>
	<path fill="none" d="M164.2,638c0.5-3,0.9-6,1.5-9c0.2-1.2,0.6-2.4,1.8-3.3c1.1-0.7,1.4-2.1,1.9-3.3c2.7-6.6,6.7-12.2,10.8-18
		c2.8-3.9,6.4-6.4,10.4-8.3c3.2-1.5,5.7-3.7,7.6-6.6c3.6-5.5,7.7-10.6,12.5-15.2c1.2-1.2,2.4-2.1,3.9-2.8c0.9-0.4,1.8-0.7,2.5-1.2
		c3.8-2.5,7.9-2.3,12.5-1.7c-1.5,2.4-2.9,4.7-4.4,7c2.4-1.7,4.5-3.7,6.1-5.9c1.9-0.5,3.1,0.5,4.4,1.2c6.7,4,12.3,9.3,17.6,15
		c2.5,2.7,5,5.3,6.2,9.2c-0.9,0.7-2.1,1.4-2.6,2.7c-2.6,0.3-5.3-1-7.8,0.7c-7-6.1-12.1-14-19.1-20.5c-3,0.2-6.5,1-10,0.7
		c-0.7,0-1.3,0.4-1.9,0.8c-10.8,5.9-19.3,14.4-26.1,24.5c-2.8,4.1-6.1,7.4-10.2,9.9c-5.2,3.2-8.6,7.9-11.4,13.1
		C168.6,630.9,166.5,634.5,164.2,638L164.2,638z"/>
	<path fill="none" d="M575.5,319.8c1.6,0.8,2.9,2.1,4.4,0.7c3.4-4.6,5.4-10.1,9.4-14.3c1.5-1.7,3.1-2.7,5.2-3.1
		c2.6-0.5,5.3-0.9,6.9-3.5c1,1,0.3,1.8,0.1,2.5c-1.7,7.3-5,13.8-9.5,19.8c-1.6,2.1-3.2,4.4-3.8,7c-0.3,1.2-1.3,1.9-2,2.8
		c-4.1,4.7-7.7,9.7-9.8,16c-2.2-2.4-3.5-5.3-5.7-7.4c-2.2-2.1-4.6-3.9-7-5.8C566,328.3,572.2,325.5,575.5,319.8z"/>
	<path fill="none" d="M552,325.6c2-1.2,3.4-2.1,4.4-3.3c4.5,0.8,5,0.6,7.6-3.2c1,0.2,1.8,1.1,3.3,1c1.9-0.2,2.4-3.6,5.3-3.3
		c0.6,0.1,1,0.8,1.5,1.7c-3.5,5.4-8.8,9.5-12.5,15.3C558,331.6,555.7,328.1,552,325.6z"/>
	<path fill="none" d="M559.1,214.4c-3.2-1.2-5.8-0.1-8.3,1.1c-6.8,3.3-12,8.5-16,14.8c-2.2,3.6-5.2,6.5-7.5,10
		c4.3-13.9,14.7-22.3,26.4-29.5C556,211.6,557.7,212.5,559.1,214.4z"/>
	<path fill="none" d="M622.8,216.3c-1-4.4-0.5-8.2,1.2-12c0.3-0.6,0.5-1.3,1-1.8c4.2-3.7,7.1-8.3,9.4-13.5c0.5,2.9,0,5.5-1.2,7.9
		c-3,6.2-6.8,12-9.5,18.3C623.6,215.6,623.3,215.8,622.8,216.3z"/>
	<path fill="none" d="M528.9,253.1c-0.2-8.1,1.3-15.1,7.9-20.2c4-3,8.2-5.6,13-7.8c-1.2,2.1-1.2,2.1-2.8,2.7
		c-1.8,0.7-3.4,1.6-4.3,3.3c-0.2,0.3-0.4,0.6-0.7,0.8c-6.1,4.4-9,10.9-11.4,17.7c-0.3,1-0.7,2-1,3
		C529.6,252.7,529.5,252.7,528.9,253.1z"/>
	<path fill="none" d="M633.6,209.8c-0.8,1.2-2.2,0.4-2.4,1.7c-2.6,6.5-6,12.6-9.6,19.3c-0.9-5.2-0.7-7.9,0.6-11.4
		c5.8-3.1,7.3-9.5,11.2-14.8C634.1,206.7,633.9,208.4,633.6,209.8z"/>
	<path fill="none" d="M539.9,227.1c4-5.2,8.7-9.4,15.1-11.4c2.2-0.7,2.5-0.6,4.1,1.1c0.4-0.2,0.8-0.4,1.1-0.6
		c0.5,0.4,0.5,0.8,0.5,1.5C554.3,221.6,546.3,222.6,539.9,227.1z"/>
	<path fill="none" d="M505.4,265.2c0.9,4.6,2.9,7.9,5.2,11.1c-5.7-2.1-11.4-3.9-17.4-5C497.3,269.7,501.5,268.6,505.4,265.2z"/>
	<path fill="none" d="M418.3,528.5c-3.5-8.4-9.2-15.9-11.1-24.9c0.9-0.9,1.6-0.8,2.8-0.3C412.7,511.5,416.3,519.7,418.3,528.5z"/>
	<path fill="none" d="M626.3,242.9c0.2,0.1,0.4,0.1,0.9,0.3c-1.9,1.7-3.7,3.3-5.8,5.1c-0.1-2-1.1-3.4-0.9-5.3
		c4.6-3.4,8.2-7.9,11.5-13c0.8,0.9,1.1,1.6,0.7,2.5c-1.3,3.2-2.4,6.6-5.5,8.7c-0.5,0.3-0.8,0.8-1.2,1.2c-1.1,0.4-2.3,0.7-3,1.9
		c0.5,0.4,0.8,0.3,1.1,0.1C624.9,244,625.8,243.7,626.3,242.9z"/>
	<path fill="none" d="M621.1,239.4c0.1-1.7,0.2-3.5,0.3-5.5c5.5-3.6,7.7-9.8,10.7-15.9c1,2.7,1.3,5,0.6,7.4
		c-0.9,0.4-1.7,0.7-2.3,0.9C628.5,231.7,624,234.9,621.1,239.4z"/>
	<path fill="none" d="M403.1,481.9c1.6,6.4,3.7,12.1,5.6,17.8c-0.7,0.8-1.5,0.8-2.3,0.7C403.1,495.2,401.1,485.3,403.1,481.9z"/>
	<path fill="none" d="M517,279c-2.6-0.5-4.2-1.9-5.6-3.9c-3.7-5.6-4.2-11.7-3.2-18.2C510,264.7,510.7,272.9,517,279z"/>
	<path fill="none" d="M498.2,274.8c-6.5-0.5-13-1.3-19.5-1.4C485.4,270.8,491.8,274,498.2,274.8z"/>
	<path fill="none" d="M475.9,274.7c-3.5,1.5-5.6,4.9-9,6.7C469.6,276.8,471.6,275.3,475.9,274.7z"/>
	<path fill="none" d="M554.6,224.2c1.7-2.1,4-3.2,7.1-4.1C559.5,222.7,556.9,223.3,554.6,224.2z"/>
	<path fill="none" d="M642.2,284.5c0.4-1,0.7-1.8,1-2.8c0.6,0.9,0.8,1.8,1,2.7C643.7,284.9,643.2,284.8,642.2,284.5z"/>
	<path fill="none" d="M631.5,239.7c0.2-0.9,0.3-1.9,1.2-2.4c0.5,0.1,0.6,0.4,0.5,0.7C633,239,632.2,239.4,631.5,239.7z"/>
	<path fill="none" d="M237,627c0.2,1,0.4,2.1,0.7,3.6C236.2,629.4,236.3,628.3,237,627z"/>
	<path fill="none" d="M547.7,194c2.8-0.2,2.8-0.2,5.3,2.4C551,195.5,549.6,194.9,547.7,194z"/>
	<path fill="none" d="M560.9,207.3c0.6,0.1,0.9,0.6,1.1,1.2C561,208.7,561.3,207.7,560.9,207.3z"/>
	<path fill="none" d="M557.3,262.2c-0.1,0.8-0.1,1.5-1,2.1c-0.9-0.5-1.8-1.6-2.5-1.6c-1.7,0.1-1.5,1.6-2.5,1.8
		c-0.1-3.8-0.1-3.8,2.3-6.2c1.7,0,3.4,0.1,4.8,1.4c-1.1,1.4-2-0.5-3,0C555.3,261.1,556.8,261.1,557.3,262.2z"/>
	<path d="M831.4,611.1c1.4,2.1-0.2,3-0.9,4.1c-0.9,1.2-1.9,2.4-1.9,3.8c0.4,1.4,1.8,1.6,2.3,2.7c-2.6-0.6-2.9-0.8-4.3-3.1
		C827,615.5,829.6,613.8,831.4,611.1z"/>
	<path d="M932.9,501.3c-2.1-1-2.7-3.2-4.1-4.8c-1.5-1.7-3.5-2.6-5.7-3.6C927.3,492.3,929.8,494.4,932.9,501.3z"/>
	<path d="M879.8,529.2c3.3,4,3.8,5.4,2.9,8.2C879.9,535.5,879.6,532.8,879.8,529.2z"/>
	<path d="M900.9,575.8c-2.7,2.3-6,1.9-9.2,2.2C894.4,576.1,897.7,576.3,900.9,575.8z"/>
	<path d="M871.6,516.4c-2.4-1.8-3.2-4.4-5.3-6.7C869.5,511.6,871,513.5,871.6,516.4z"/>
	<path d="M954.8,637.6c-2.4,1.5-4.2,0.1-6,0.1C950.5,637.4,952.3,636.7,954.8,637.6z"/>
	<path d="M835.5,627.3c-1.4-1-2.8-1.6-2.9-3.4C834.4,624.4,834.4,624.4,835.5,627.3z"/>
	<path d="M854.5,617.6c0.9-1,1.8-1.5,3-1.9C856.6,617.3,856.6,617.3,854.5,617.6z"/>
	<path d="M915,489.1c1.1-0.4,2,0,2.9,0.7C916.4,490,916.4,490,915,489.1z"/>
	<path d="M840.9,627.6c-1.3,0.6-1.6-0.4-2.9-0.4C839.6,626.1,840.1,626.9,840.9,627.6z"/>
	<path d="M887.8,577.7c-0.5,0.3-0.9,0.3-1.4,0C886.9,576.8,887.3,576.8,887.8,577.7z"/>
	<path d="M892.1,522.6c-0.1-1.1,0.2-1.3,0.7-1.4C893.5,522,892.9,522.1,892.1,522.6z"/>
	<path d="M892.2,513.6c-0.5-0.5-0.3-1-0.1-1.6C892.9,512.4,892.9,513,892.2,513.6z"/>
	<path d="M766.6,486.7c-0.7,0.6,0.1,1.6-0.5,2.4c-1.4-1.7-3.4-2.3-5.4-3c-7.6-2.6-15.2-5.4-22.6-8.5c-1-0.4-2.3-0.6-3.2-2.2
		c5.8,1.4,10.8,4,16.1,5.6c5.4,1.6,10.6,3.6,15.7,5.9L766.6,486.7z"/>
	<path d="M735,471.2c2.1-0.1,3.9,0.7,5.6,1.8C738.7,472.6,736.7,472.4,735,471.2L735,471.2z"/>
	<path d="M743.5,455.7c1.8,0.4,2.6,2.1,3.8,3.2C745.7,458.3,744.4,457.2,743.5,455.7L743.5,455.7z"/>
	<path d="M743.4,455.8c-1.5-0.5-2.7-1.4-3.5-2.8l0,0C741.5,453.3,742.7,454.3,743.4,455.8L743.4,455.8z"/>
	<path d="M756.8,490.5c1.7-0.4,2.6,0.2,4,0.8C759.2,491.7,758.1,491.4,756.8,490.5z"/>
	<path d="M734.3,448.7c-1.2,0-1.7-0.9-2.4-1.8C732.9,447.2,733.9,447.5,734.3,448.7L734.3,448.7z"/>
	<path d="M737,450.9c-1.2-0.3-2.2-0.9-2.7-2.2l-0.1,0.1c1.4,0.1,2.3,0.9,2.9,2L737,450.9z"/>
	<path d="M739.9,452.9c-1.3-0.2-2.2-0.9-2.8-2.1l0.1-0.1C738.3,451.1,739.4,451.7,739.9,452.9L739.9,452.9z"/>
	<path d="M749.8,471.2c-0.7,0.1-1-0.4-1.5-0.8C749.1,470.2,749.5,470.6,749.8,471.2L749.8,471.2z"/>
	<path d="M735,471.1c-1,0-2.1,0.4-2.8-0.7l-0.1,0.1C733.1,470.6,734.2,470.3,735,471.1L735,471.1z"/>
	<path d="M732.2,470.4c-0.7,0.1-1.4,0.1-2.2-0.3C730.9,469.9,731.6,469.8,732.2,470.4L732.2,470.4z"/>
	<path d="M727,429c2.1-3.3,6.8-5.4,13.3-6.1C735.8,425,731.4,426.1,727,429z"/>
	<path d="M747,421.1c1.8-1.8,3.8-1.1,5.7-1.3C751,420.7,749.3,421.5,747,421.1z"/>
	<path d="M774,418.1c-1,0.4-2,0.7-3,0C772,417.4,773,417.4,774,418.1z"/>
	<path d="M761.2,418.8c0.7-0.6,1.3-0.7,1.9-0.2C762.7,419.4,762.1,419.4,761.2,418.8z"/>
	<path d="M593.8,586c-0.8,2.1-2.2,3.4-3.6,4.8c-4,3.8-8.7,6.7-13.7,9.2c-2.9,1.5-5.8,3-8.4,4.9c-1.7,5.4-23.1,31.5-28,33.8
		c8.6-8.8,14.5-18.9,22.6-27.3c1.7-1.7,3.5-3.4,3.9-6.1c0.2-1.3,1.4-2.2,2.4-3c1.8-1.5,3.9-2.6,6-3.7c6.3-3,12.1-6.7,16.8-11.9
		C592,586.2,592.4,585.6,593.8,586z"/>
	<path d="M947.4,602c-3.4,1.3-6.5,3.2-10.4,3.3c-2.3,0-4.7,0.4-6.9,1.2c-3.5-1.7-6,0.9-8.9,2c-1.1,0.4-1.9,1.3-2.9,1.9
		c-0.4,0.3-0.8,1-1.6,0.4c0.6-1.7,2.5-2.3,3.5-3.6c-3,0.1-4.4,1.9-4.7,5.9c-1.3,0.4-1.3-1-2.1-1.5c-1.3,1.6-2.5,3.2-2.1,5.9
		c-1.4-0.9-1.4-1.6-1.1-2.4c0.9-2.2,1.8-4.3,3.9-5.7c0.9-0.7,1.7-1.6,2.6-2.3c0.8-0.7,1.6-1.3,2.7-1.5c3.5-0.5,6.9-1,10.4-1.5
		c2.3-0.4,4.6-0.6,7-0.4c1.5,0.1,3-0.2,4.5-0.5C943.3,602.6,945.3,601.8,947.4,602z"/>
	<path d="M951.6,567.6c-7.2-0.2-14.4,0.4-21.5-1.2C937.3,566,944.4,566.6,951.6,567.6z"/>
	<path d="M917,582.2c-0.1,0.9,0.4,1.9-0.5,2.8c-1.6,0.4-3-1.5-4.6-0.6c-0.6-1.2,0.4-1.7,0.4-3c-0.2-0.7-1.9-0.7-2.2-2.5
		c0-0.2,0.4-0.6,1-1c2.1,1.2,4,2.8,5.9,4.4L917,582.2z"/>
	<path d="M917.2,582.4c-0.5-1.8-2.3-2.8-2.6-4.8c2.3,0.7,5.4,4.2,5.6,6.3c0.5,4.5,0.5,4.5-1.4,5.6c-0.3-1.6-0.8-3.1-0.5-4.7
		c0.2-1.2-0.1-2-1.3-2.5L917.2,582.4z"/>
	<path d="M921.5,598.9c-2.9,2.4-5.2,5.2-6.9,8.4c-1.3,0-1.4-0.7-1.1-1.4C915,602.4,917.6,600,921.5,598.9z"/>
	<path d="M911.2,603.1c-0.1-4,2.1-5.8,6.8-5.3C914.9,599,913.3,601.2,911.2,603.1z"/>
	<path d="M926.5,578.2c1.4,1.6,2.2,3.6,4.2,4.8c1.8,1.1,3.3,2.8,5.4,4.7C930.9,585.7,926.9,581.8,926.5,578.2z"/>
	<path d="M929.3,588c-0.1-0.3-0.3-0.6-0.3-0.9c0-0.2,0.1-0.4,0.2-0.6C930.2,586.9,929.3,587.5,929.3,588z"/>
	<path d="M835.4,562.1c2.8-1.3,5.2-2,8-2.1C841.7,562.1,839.6,562.6,835.4,562.1z"/>
	<path d="M830.6,562c-0.8,0.8-1.4,1-2.1,0.9C829,562.1,829,562.1,830.6,562z"/>
	<path d="M825,563.2c-1,0.8-1.5,1-2,0.5C823.2,562.9,823.8,562.9,825,563.2z"/>
	<path d="M578.6,377.9c3.4-0.9,5.6,1.5,8.5,1.7c2-1.5,4.4-2.8,7.1-3.1c-2.1,3.5-5.6,4.4-9.2,4.7
		C582.7,381.4,580.2,380.8,578.6,377.9z"/>
	<path d="M490.6,338.9c2.5-1.4,4.1-2.7,6.4-2.9C496.2,338.7,495.2,339.2,490.6,338.9z"/>
	<path d="M636.4,249.8c-1.1-1.5-2.6-2.6-4.4-3.8C635.1,245.4,635.4,245.7,636.4,249.8z"/>
	<path d="M620.5,297.7c0.2-2.3,0.5-3.7,1.3-5.5C622.7,294.6,622.7,294.6,620.5,297.7z"/>
	<path d="M635,266.7c0.5-1.4,0.9-2.9,2.9-3.5C637.9,265.4,636,265.7,635,266.7z"/>
	<path d="M483.1,342.4c0.3-0.8,0.7-1,1.4-1C484.9,342.9,484,342.4,483.1,342.4z"/>
	<path d="M631.6,270.1c0.3,1.6-0.8,1.5-1.3,2C630.1,271.1,630.8,270.7,631.6,270.1z"/>
	<path d="M633.4,253.3c0.4,0.6,0.5,1,0.2,1.2c-0.2,0.2-0.5,0.4-0.8,0.6C632,254.2,633,254,633.4,253.3z"/>
	<path d="M476.7,401.9c1.3,1,3,1.3,3.9,2.9C478.3,405.4,477.2,404.6,476.7,401.9z"/>
	<path d="M470.9,396c0.8-0.1,1.3,0.1,1.2,1C471.1,397.4,471.1,396.5,470.9,396z"/>
	<path d="M408.4,449.4c-0.5,4.1-0.4,8.5-2.7,12.3C405.8,457.4,406.6,453.3,408.4,449.4z"/>
	<path d="M409.1,439.4c0.6,2.9,0.8,5-0.8,7.4C408,444.2,407.8,442.1,409.1,439.4z"/>
	<path d="M407.7,425.5c0.8,1,0.4,1.9,0.1,3.1C406.1,427.5,407.3,426.5,407.7,425.5z"/>
	<path d="M409,434.7c0.5,0.9,0.5,1.7-0.5,2.2C407.9,435.9,409,435.5,409,434.7z"/>
	<path d="M203.5,607c-0.2-3.4,1.6-5.7,4.3-7.4c1.7-1.2,3.5-2.3,5.4-3.3c5.5-3.2,10.7-6.7,14.8-11.6c0.4-0.5,1-1,1.5-1.4
		c0.1-0.1,0.4,0.1,0.8,0.1c0.2,1.4-0.9,2.3-1.7,3.2c-3.7,4.6-8.6,7.9-13.6,10.9c-3.2,1.9-6.5,3.6-9,5.6
		C204.5,604.4,205.8,606.7,203.5,607L203.5,607z"/>
	<path d="M179.6,637.9c7.9-9.4,14-20.2,22.2-29.4c0.5-0.6,0.7-1.5,1.8-1.5l-0.1-0.1c0.4,1.1-0.4,1.7-0.9,2.5
		c-4.7,6.7-9.5,13.3-14.2,19.9c-1.8,2.6-4,4.9-6.2,7.1C181.4,637.2,180.8,638.2,179.6,637.9L179.6,637.9z"/>
	<path d="M179.5,637.9c-0.3,0.8-0.8,1.2-1.9,1.3C178.3,638.4,178.8,638.1,179.5,637.9L179.5,637.9z"/>
	<path d="M626.3,242.9c-0.6,0.8-1.5,1.1-2.2,1.6c-0.3,0.2-0.6,0.2-1.1-0.1c0.7-1.2,1.9-1.4,3-1.9
		C626.1,242.7,626.2,242.8,626.3,242.9z"/>
</g>
</svg>
