<?xml version="1.0" encoding="utf-8"?>
<!-- Generator: Adobe Illustrator 21.0.0, SVG Export Plug-In . SVG Version: 6.00 Build 0)  -->
<svg version="1.2" baseProfile="tiny" id="Layer_2" xmlns="http://www.w3.org/2000/svg" xmlns:xlink="http://www.w3.org/1999/xlink"
	 x="0px" y="0px" viewBox="0 0 900 600" xml:space="preserve">
<g>
	<path d="M178.4,210.3c1.2-1,2.4-2,3.5-3c4.9-4.9,9.9-9.7,14.7-14.7c2.7-2.8,5.4-5.8,7.8-8.9c2.2-2.8,3-6.2,3.4-9.6
		c0.1-1-0.2-1.9-0.8-2.7c-1.1-1.4-2.2-2.8-3.4-4.3c0-0.7,0.7-0.6,1.3-0.6c0.9,0,1.6,0.6,2.1,1.2c0.7,0.9,1.4,2,2,2.9
		c0.8,0.2,1.1-0.4,1.4-0.9c1.7-2.7,3.2-5.5,4.2-8.6c1-2.9,2.3-5.8,3-8.8c1-4.2,1.9-8.4,1.5-12.9c-2.1,0.2-4.1,0.2-6,1.2
		c-2.2,1.2-4.7,1.6-7.3,1.5c-4.9-0.2-8.9,1.7-12.6,5c-2.2,1.9-3.5,4.1-4.5,6.7c-1.2,3.2-2.6,6.4-3.1,9.9c-0.4,2.5-1.5,4.8-3.1,6.8
		c-5,6.2-8.9,13-13.1,19.6c-3.2,5-7.2,9.4-12.3,12.8c-0.8,0.5-1.6,1.1-2.4,1.5c-2.8,1.3-4.8,3.4-6.4,6.1c-2.8,4.6-5.4,9.3-7,14.4
		c-1.1,3.3-2.9,6.3-4.8,9.2c-0.3,0.5-0.8,0.9-1,1.5c-2.5,4.7-6.2,8.4-9.1,12.8c-0.3,0.5-0.7,1.1-1.2,1.3c-1.9,1-2.9,2.8-4.1,4.4
		c-0.8,1-1.6,2.1-2.3,3.2c-1.5,2.6-4,3.7-6.7,4.4c-0.7,0.2-1.4,0.2-2.1,0.4c-1,0.8-1.3,2-1.7,3.1c-0.4,1-0.8,2-1.1,2.8
		c1.5,2.8,2.9,5.4,4.3,8c1.5-1,1.5-1,2.5-4.4c-0.4-0.9-0.8-2-1.2-3.2c0.3-0.3,0.6-0.7,0.9-1.1c0.7,0.9,0.7,2.2,1.9,2.5l-0.1-0.1
		c2.1,1.8,4,3.6,6.7,4.5c2.2,0.7,4.3,2.1,6.3,3.3c2.8,1.6,3.7,7.1,0.2,9.1c-1.3,0.7-2.2,2.3-4,1.9c-1.4,0.8-3,1.5-4.3,2.5
		c-2.8,2.3-6,3.9-9.3,5.4c-4.3,2-8.6,4.1-12.9,6.1c-1.4,0.6-2.9,1.1-4.6,1.7c-0.4,0.3,0,1.2-0.3,1.8c-0.5,1.1-1,2.2-1.7,3.1
		c-1.2,1.5-3,1.9-4.8,1.1c-0.7-0.3-1.2-0.7-2.1-1.2c-2,1.2-3.5,3.1-5.4,4.4c-1.9,1.4-3.9,2.7-5.9,4c0.1,1.4,1.2,0,1.6,0.6
		c0,0.2,0.2,0.5,0.1,0.7c-0.6,1.2-1.2,2.3-1.9,3.4c-0.9,1.4-2.2,2.1-3.9,2c-1.1-0.1-2.1-0.2-3.6-0.3c-1,0.7-2.3,1.6-3.5,2.5
		C44,340.5,25.9,354.8,7.8,369c-0.8,0.7-1.7,1.2-2.7,1.9c-0.7-0.4-1.3-0.8-1.8-1.1c0.1-0.2,0.1-0.3,0.1-0.4c0-0.1,0.1-0.2,0.2-0.3
		c0.2-0.2,0.3-0.4,0.5-0.5c19.3-15.2,38.7-30.4,58-45.6c0.5-0.4,0.9-0.7,1.6-1.2c0-0.6,0-1.3,0.1-2c0.3-3.1,2.3-4.9,5.4-4.9
		c1.1,0,2.1,0,3.4,0c2.6-3.5,5.4-6.9,8.9-9.7c-0.5-1.9,0.2-3.4,1.3-4.9c1.3-1.6,3.1-1,4.6-1.4c0.2-0.5,0.5-0.8,0.5-1.1
		c1-8.2,3.6-16,5.8-24c0.5-1.7,0.9-3.4,1.4-5.2c0.7-2.8,2.4-4.6,5.2-5.7c2,1.1,4,2.2,6.3,3.4c0.4-1.1,0.8-2.1,1.2-3.1
		c0.4-0.9,0.9-1.6,1.8-2.1c1.6-0.8,3.2-1.6,4.8-2.4c1.4-0.7,2.6-1.5,3.3-3c1.9-3.6,4.4-6.8,7.4-9.6c1.9-1.8,3.5-3.9,4.9-6.1
		c1.9-3.2,3.8-6.3,5.9-9.4c1.4-2,2.4-4.1,3.2-6.4c1.6-5,3.9-9.8,6.9-14.1c0.9-1.3,1.9-2.5,2.9-3.6c0.4-0.5,0.8-0.9,1.3-1.2
		c6.1-3.7,8.3-5.4,12.9-10c1.3-1.3,2.9-2.4,3.9-4.1c0.7-1.1,1.4-2.2,2-3.4c3-6.1,6.6-11.9,11.2-17c1.8-2,2.7-4.3,3.2-7
		c1-5.5,2.9-10.8,5.8-15.7c2.7-4.6,9.1-8.1,14.4-8.2c1.4,0,2.9,0,4.3,0.1c2.3,0.1,4.6-0.4,6.6-1.5c4.3-2.4,8.8-4.3,13.3-6.2
		c0.3-0.1,0.6-0.3,1.1-0.6c0.2-0.5,0.3-1.3,0.6-1.8c3.4-4.9,2.6-10.4,2.2-15.9c0-0.4-0.3-0.9-0.5-1.3c-1.7-2.6-2.7-5.6-3.7-8.5
		c-0.2-0.5-0.4-1.3-0.8-1.5c-1.9-1.2-2.3-3.3-3-5.1c-0.6-1.5-1-3.1-1.8-4.6c-1.1-2.1-1.3-4.3,0.2-6.4c0.9-1.3,1.1-2.8,1-4.4
		c-0.3-2.9-0.2-5.7,0.5-8.5c0.7-3,0.6-6.1,1.5-9.1c1.4-4.5,3.7-7.6,7.8-9.7c1.2-0.6,2.4-1.2,3.6-1.5c1.1-0.3,2.3-0.3,3.6-0.5
		c0.8-0.9,1.9-2.1,2.9-3.2c0.8-1,1.9-1.4,3.1-1.6c1.4-0.2,2.9-0.4,4.3-0.3c4.1,0.2,6.3,2.5,6.5,6.6c0,0.6,0,1.2-0.1,1.7
		c1.1,0.9,2.1,1.8,3.1,2.6c2.7,2.3,4.2,5.2,4.9,8.5c0.6,2.9,0.7,5.9,0.7,8.9c0,2-0.1,4-0.1,6.1c0,0.5,0.1,0.9,0.2,1.7
		c0.7-0.4,1.3-0.7,2.1-1c0.4,0.4,1.1,0.8,1.4,1.4c1.2,2.9,1.7,5.7-0.6,8.4c-0.4,0.4-0.6,1-0.8,1.6c-0.5,1.7-1.4,3-2.8,4
		c-0.4,0-0.9-0.1-1.3-0.1c-0.2,0.2-0.4,0.4-0.5,0.6c-0.4,1.5-0.8,3-1.2,4.5c-0.3,1.3-0.6,2.5-1.1,3.7c-0.9,2.1-1.4,4.4-1.3,6.6
		c0.1,4.1,0.5,8.1,1.8,12c0.4,1.3,1.1,2.4,2.2,3.2c0.9,0.7,1.8,1.6,2.9,2.1c3.8,2,7.7,3.8,12,4.7c1.5,0.3,3,0.7,4.5,1
		c2,0.4,3.9,0.8,6,0.8c1.9,0,3.8-0.1,5.4,1.3c0.6,0.6,1.8,0.7,2.7,0.7c1.3,0,2.3,0.5,3.2,1.4c3.2,3,5.8,6.3,7.3,10.5
		c1.4,4,3.1,8,3.6,12.3c0.2,2,1.4,3.8,2.7,5.3c3.7,4.1,6.7,8.7,9.4,13.5c0.8,1.3,1.4,2.8,2.1,4.1c1.2,2.3,2.6,4.5,4.8,6.2
		c0.7,0.5,1.2,1.2,1.8,1.7c1.8,1.6,3.5,3.2,5.4,4.7c1.3,1.1,2.7,2,4,3c0.5,0.4,0.9,0.9,1.4,1c2.1,0.4,3.2,2.1,4.3,3.5
		c3.6,4.7,6.2,9.9,8.1,15.5c0.8,2.5,2,4.8,3.4,7c2.2,3.3,4.1,6.7,6.3,10c1,1.6,2.2,3.1,3.5,4.5c3.3,3.3,6.4,6.8,8.5,11
		c0.5,1,1.3,1.6,2.3,2.1c1.7,0.8,3.4,1.8,5.1,2.6c1.3,0.6,2,1.6,2.4,2.9c0.3,1,0.4,2.2,1.4,2.8c0.1,1.5-0.2,2.7-1.2,4
		c-0.7,0.9-1,2.1-1.5,3.2c-0.6,1.4-1.1,2.8-1.6,4.2c0.9,0.4,1.8,0.5,2.7,0.1c2-1,4-2,5.9-3c0.8-1.4,0.3-2.5-0.5-3.7
		c-1.2-1.8-1-3.6,0.4-5.3c0.2-0.3,0.4-0.5,0.7-0.8c0.1,0,0.1-0.1,0.2-0.1c0,0.1-0.1,0.1-0.1,0.2c-1.7,0.5-3.4,1-5.1,1.4
		c1.6-1.9,4-2.5,5.9-3.9c2.7,1,4.4,2.6,5.1,5.2c0.5,1.8,1,3.7,1.5,5.5c1.5,5.6,3.1,11.3,4.5,16.9c0.4,1.7,0.7,3.5,1,5.3
		c0.2,0.9,0.4,1.8,0.5,2.8c1.9,0.5,4,0.1,5.2,2c0.9,1.4,1.4,2.7,1,4.1c3,3.3,5.9,6.5,9.1,10c0.7,0,1.8,0,3,0c3.1,0,5.2,1.7,5.5,4.8
		c0.1,0.6,0,1.2,0,2c22.6,17.8,45.3,35.6,68.2,53.6c-0.4,0.7-0.7,1.3-1,1.8c-0.4,0-0.7,0-0.9-0.1c-0.9-0.6-1.8-1.2-2.6-1.9
		c-20.5-16.1-40.9-32.2-61.4-48.3c-0.5-0.4-1-0.7-1.4-1.1c-1.6-1.4-3.3-2.2-5.6-1.8c-2.6,0.5-4.3-0.8-5.4-3
		c-0.5-0.9-0.9-1.9-1.4-2.9c1.3-0.4,1.5,0.8,2.3,1c0.6-0.5-0.2-1,0.1-1.7c-4.5-2-7.9-5.3-11.5-8.5c-0.9,0.5-1.6,1-2.3,1.3
		c-1.8,0.7-3.6,0.2-4.9-1.2c-1.3-1.4-1.7-3.1-1.8-4.6c-2.7-1.3-5.2-2.4-7.7-3.5c-3.2-1.5-6.5-3-9.7-4.5c-3.4-1.5-6.6-3.3-9.6-5.5
		c-1.6-1.2-3.3-2.8-5.7-2.6c-1.4-1.1-3.1-1.8-4.1-3.3c-1.6-2.5-0.6-6.5,2.3-7.7c2.5-1.1,4.6-2.9,7.4-3.6c1.6-0.4,2.9-1.9,4.6-3.4
		c-1.3-0.1-2.1-0.2-2.9-0.3c1.3-1,2.8-1,4.4-0.6c0.4-0.7,0.6-1.2,1-1.9c0.3,0.3,0.7,0.5,1,0.8c-0.5,1.1-0.9,2.1-1.3,3.1
		c0.6,1.6,0.4,3.5,2.4,4.6c1.5-2.8,2.9-5.4,4.4-8.2c-0.7-1.8-1.5-3.7-2.3-5.7c-1.5-0.4-2.9-0.7-4.2-1.1c-1.8-0.6-3.4-1.5-4.5-3.3
		c-1.1-1.7-2.4-3.3-3.6-4.9c-0.9-1.1-1.7-2.3-3-3.1c-0.8-0.5-1.3-1.3-1.9-2.1c-1.5-2-3-4-4.6-6c-0.2-0.3-0.5-0.5-0.7-0.9
		c-2.7-4.3-5.9-8.4-8.1-13.1c-0.5-1.1-1-2.2-1.4-3.3c-1.9-5.9-4.9-11.1-8.3-16.2c-1-1.5-2.5-2.6-4-3.4c-3.7-2.1-7.1-4.4-9.9-7.6
		c-2.4-2.8-4.9-5.5-6.7-8.7c-3.6-6.3-7.6-12.4-12.1-18.2c-1.8-2.3-2.8-4.9-3.4-7.8c-0.7-3.8-2-7.3-4.5-10.4
		c-0.6-0.7-0.9-1.7-1.5-2.4c-1-1.3-2-2.7-3.1-3.9c-0.9-1-2-1.6-3.4-1.8c-0.9-0.1-1.9-0.4-2.8-0.8c-2.3-1-4.7-1.4-7.3-1.2
		c-2.5,0.2-4.9-1.1-7.2-1.8c-2.1-0.7-4.2-1.4-6.6-2.2c0,0.8-0.1,1.4,0,1.9c0.6,2.4,0.7,4.9,1.9,7.2c0.9,2,1.1,4.4,1.7,6.6
		c0.3,1.1,0.6,2.3,1.2,3.4c3.2,5.8,6.5,11.7,11.7,16.5c0.9-1.8,2.3-3.3,2.5-5.4c1.1,0.7,2.7-0.9,3.6,0.8c-0.6,0.5-1.3,1-1.8,1.7
		c-0.8,1-1.5,2.1-1.5,3.5c-0.1,2.3-0.5,4.5-0.6,6.8c-0.1,0.8,0.3,1.6,0.3,2.4c0.2,2.2,1.4,3.7,2.8,5.2c2.7,2.7,5.3,5.5,8,8.2
		c4.1,4.1,8.2,8,12.2,12.1c0.6,0.6,1.1,1.3,1.5,2c3.2,4.6,6.5,9.2,10.3,13.3c2.1,2.3,4.2,4.6,6.1,7c4.8,5.9,10.2,11.1,16.3,15.5
		c3.2,2.3,6,5.1,8.6,8.1c1.8,2.1,3.5,4.2,5.3,6.3c1.1,1.4,2.5,2.6,2.4,4.6c0,0.5,0.6,1,0.8,1.6c1.1,2.5,2.1,5,2.4,8.5
		c-0.8-0.9-1.1-1.2-1.3-1.6c-0.5-1.2-0.9-2.5-1.3-3.7c-1-3.1-2.6-5.9-4.8-8.3c-2.2-2.5-4.3-5.1-6.4-7.7c-1.7-2.2-3.7-4-6-5.6
		c-2.3-1.6-4.6-3.4-6.8-5.2c-3.5-2.9-6.6-6.2-9.4-9.8c-1.7-2.2-3.4-4.3-5.3-6.3c-4.8-5-8.9-10.6-12.9-16.3c-0.7-1.1-1.5-2.1-2.6-2.9
		c-6.8-4.5-12.5-10.4-17.9-16.4c-0.5-0.5-1-1-1.5-1.5c-0.1-0.1-0.2,0-0.5,0c-0.3,1.1-0.7,2.2,0,3.3c0.6,0.8,0.6,1.5,0.4,2.4
		c-0.4,1.9-0.8,3.7-1.2,5.6c-0.6,2.7-1,5.4-1.2,8.1c-0.1,2-0.4,4-0.9,6c-0.9,3.5-1.5,7-1.9,10.6c-0.1,0.7-0.3,1.4-0.6,2
		c-0.6,1.2-0.8,2.5-0.7,3.8c0.1,3.6,0.2,7.1,0.3,10.7c0,0.6,0.3,1.1,0.5,1.7c0.6,1.7,1.2,3.4,2,5c1.1,2.3,1.6,4.7,2.3,7.1
		c0.9,3.3,2,6.6,3.3,9.8c2,5.2,4.1,10.4,5.8,15.8c1.4,4.3,3.1,8.5,4.7,12.7c0.2,0.4,0.4,0.9,0.5,1.3c0.2,4.8,1.8,9.3,3.3,13.9
		c2.4,7.4,3.8,15,3.2,22.9c-0.1,1.8,0,3.6,0.2,5.4c0.7,6,0.6,11.9,0.3,17.9c-0.1,3.4-1,6.8-1.5,10.3c-0.2,1.5-0.5,3.1-0.7,4.6
		c-0.1,0.4-0.2,0.8-0.1,1c1.5,1.9,0.4,3.9,0.3,5.9c-0.2,4.5-0.5,9.1-0.8,13.6c0,0.5,0.1,1-0.1,1.4c-1,4,0.4,7.8,1.1,11.6
		c0.2,1.1,0.5,2.1,0.9,3.1c2.5,7.1,3.8,14.5,5,22c0.2,1.2,0.3,2.4,0.3,3.6c0,4.7,0,9.3,0,14c0,1.2,0,2.4-0.2,3.6
		c-0.6,4-0.5,8.1-0.4,12.1c0.1,3.3-0.1,6.7-0.4,10c-0.4,5.4-0.7,10.7,0,16.1c0.2,1.3,0,2.6-0.1,3.9c0,0.9-0.2,1.9-0.2,2.6
		c0.3,0.4,0.3,0.7,0.5,0.8c1.6,0.8,2.6,2.1,2.7,3.9c0.2,3.1,1.9,5.3,4.4,7c2.2,1.5,3.7,3.5,4.6,6.2c1.1,3,2.6,5.8,4.8,8.3
		c2.2,2.5,4.1,5.3,6,8c1,1.5,1.5,3.3,1.2,5.1c-0.2,1.4-0.9,2.6-2.4,3.3c-1.4,0.6-2.7,1.6-4,2.4c-1.1,0.7-2.3,1.2-3.7,1.2
		c-1.8,0.1-3.6,0.3-5.4,0.4c-3.6,0.3-7.2-0.4-10.6-1.3c-3.9-1-6-4.6-5.6-8.8c0.1-0.4,0-0.9-0.1-1.3c-0.3-0.2-0.5-0.5-0.7-0.5
		c-4.1,0.2-7-1.7-9.1-5.2c-0.4-0.6-0.8-1.2-1.2-1.7c-1.3-1.4-1.6-3-1-4.6c1.2-2.8,1.5-5.8,2.2-8.6c0.7-2.9,0.9-5.9,1.3-8.8
		c0.1-0.7,0-1.5,1-1.8c0.2,0.2,0.5,0.4,0.5,0.7c0.3,4.4,0.1,8.8-1.5,13.1c-0.5,1.4-1,2.9-1.3,4.4c-0.2,0.9-0.2,1.9,0,2.8
		c0.2,0.8,0.6,1.6,1.1,2.2c1.4,1.4,1.7,3.7,3.9,4.5c0.7,0.2,1.3,0.5,2,0.7c0.6,0.2,1.2,0.2,1.7,0.4c2.2,0.8,3,1.2,2.8,3.8
		c-0.1,1.6,0,3,1.2,4.3c1.3,1.5,2.8,2.7,4.7,2.9c2,0.3,4,0.4,6,0.4c1.7,0,3.3-0.3,5-0.3c3.7,0.1,6.7-1.3,9.4-3.8l-0.1,0.1
		c1.4-0.6,1.9-1.7,1.6-3.1c-0.2-0.8-0.4-1.7-0.8-2.3c-2.2-3-4.5-6-6.8-9c-0.3-0.3-0.8-0.5-1.1-0.8l0.1,0.1c0-1.2-0.9-1.9-1.4-2.8
		c-0.8-1.3-1.7-2.6-2.1-4.1c-0.7-2.3-2-3.9-4.1-5.4c-1.6,0.9-3.3,1.4-5.2,1.5c-1.4,0-2.7,0.4-3.8,1.4l0.1-0.1
		c-0.8,0.2-1.6,0.4-2.4,0.6c-0.8-0.5-0.7-1.2-0.4-1.9c0.4-1.1,1.2-1.8,2.3-2.1c1.3-0.3,2.6-0.6,3.9-0.7c1.1-0.1,2.1,0,3.2,0
		c0.1-0.4,0.2-0.7,0.2-0.7c-1.4-1.6-2.6-3.4-2.9-5.6c-0.2-1.2-1.1-1.8-2.2-2.3c-2.1,0.3-4.2,0.6-6.4,0.9c-0.9,1.5-1.5,3-1.7,4.7
		c-0.2,1.8-1,3.1-2.3,4.2c-1.3-0.1-1.8-1-1.9-1.9c-0.2-1.4-0.4-2.9-0.3-4.3c0.1-1.7-0.2-3.3-0.6-5c-2.1-8.5-3.5-17.1-5.1-25.6
		c-0.7-4-1.9-7.9-2.9-11.8c-0.6-2.3-1.4-4.6-2.2-6.8c-2-5-3.1-10.3-3.7-15.6c-0.5-5-1.5-9.9-1.1-15c0.1-2,0.5-4,0.7-6
		c0.1-0.6,0-1.2,0-2c-2.3-2.4-3.5-5.7-4.6-9c-0.7-2.1-1.5-4.3-2.3-6.4c-1.6-4.2-3.2-8.5-3.4-13.1c-0.3-7.7-2.6-15-4.4-22.4
		c-0.4-1.8-1.3-3.6-2.2-5.3c-2.6-4.8-4.6-9.7-6.1-14.9c-1.2-4.1-2.5-8.2-3.7-12.4c-1.3-4.5-2.6-8.9-3.9-13.7
		c-0.1-0.1-0.6-0.3-0.9-0.4c-0.3,0.2-0.5,0.3-0.6,0.5c-1.5,2.8-1.8,5.9-2.2,9c-1.3,10.2-3.8,20.2-7,29.9c-1.4,4.3-2.9,8.6-4.5,12.9
		c-2.1,5.6-3.2,11.5-4.2,17.4c-0.2,1.4-0.2,2.9-0.3,4.3c-0.1,5.2-0.8,10.2-2.5,15.1c-0.2,0.6-0.5,1.1-0.5,1.7
		c-0.5,4.6-2.4,8.7-3.5,13.1c-0.3,1.1-0.5,2.4-0.4,3.5c0.2,3.7-0.1,7.4-0.4,11.1c-0.1,1.4-0.1,2.9-0.1,4.3c0,6-1.3,11.6-3.8,17
		c-2.2,4.6-3.1,9.5-3.5,14.5c-0.6,8.5-1.5,16.9-2.8,25.3c-0.3,1.8-0.4,3.6-0.5,5.5c2.3,1.6,2.9,4.2,3.2,6.8c0.1,1.3,0.1,2.6,0,3.9
		c-0.1,1.4-0.1,2.7,1,4c1,1.2,1.2,2.8,1.2,4.4c0,1.7-0.2,3.3-0.2,5.1c-1.1,1.5-2.1,3.2-3.4,4.5c-1.2,1.3-2.7,2.3-4,3.5
		c0.1,1.5,0.4,3,0.4,4.5c-0.1,1.7-1.5,2.6-2.5,3.8c0.3,0.3,0.5,0.6,0.8,1c-0.5,1.1-1.6,1.4-2.5,1.6c-4.7,1.2-9.4,2.8-14.4,2.1
		c-3.5-0.5-7.1-0.8-10.4-2.8c0.2-1.1,0.6-2.2,0.3-3.4c-0.4-2.1-0.6-4.2-0.7-6.4c-0.1-1,0.1-1.8,0.9-2.6c0.5-0.4,0.6-1.2,0.8-1.9
		c0.6-2.3,1.6-4.3,3.1-6c1.7-2,3-4.3,3.8-6.8c0.8-2.2,2.3-3.8,3.5-5.8c0.8-1.2,1.6-2.4,1.9-3.8c0-0.1,0.1-0.2,0.1-0.3
		c1-2.7,1.1-2.9,3.8-4.3c0.6-1,0.4-2.1,0.3-3.1c-0.4-3.9-0.8-7.8-1.1-11.8c-0.3-3.4-0.5-6.9-0.6-10.4c-0.2-4.4-0.8-8.8-1.6-13.1
		c-0.8-4.3-1.6-8.7-2.2-13.1c-0.4-3.2-0.5-6.4-0.6-9.6c-0.1-3.5,0.1-6.9,0.1-10.4c0-1.2-0.4-2.4-0.2-3.5c0.7-3.4,1.5-6.7,2.5-10.1
		c0.7-2.4,1.8-4.7,2.6-7c0.4-1,0.6-2.1,0.7-3.1c0.1-2,0.3-4.1,0.1-6.1c-0.3-3.9,0.2-7.6,1-11.4c0.6-3.1,0.7-6.2,0.4-9.3
		c-0.4-3.9-0.9-7.8-1.3-11.7c-0.5-4.5-1.1-9-1.4-13.5c-0.4-5.6-0.7-11.2-1-16.8c-0.1-1.2-0.1-2.3,0.5-3.5c0.4-0.8,0.3-1.9,0.3-2.8
		c0-4.8,0-9.5,0-14.3c0-3.7,0-7.4,0.2-11.1c0.4-6.9,1.3-13.8,3.3-20.5c0.9-2.9,1.2-5.9,1.4-8.8c0.2-4.6,1.4-8.9,3.3-13.1
		c0.8-1.8,1.8-3.6,2.7-5.4c1.8-3.5,3.8-6.9,4.5-10.9c0.1-0.6,0.4-1.1,0.6-1.7c0.7-2,1.1-4,0.8-6.2c-0.5-2.7-0.4-5.5-0.7-8.2
		c-0.2-1.9-0.5-3.8-0.9-5.6c-0.6-3.1-1.3-6.1-1.7-9.1c-0.3-2-1.2-3.8-1.8-5.7c-0.9-3-1.6-6-2.4-9c-0.3-1.2-0.4-2.5-1.7-3.4
		c-0.4-0.3-0.4-1.3-0.6-2c-0.7-3.1-1.4-6.3-2.1-9.4c-0.1-0.4-0.4-0.8-0.7-1.5c-0.6,0.8-1,1.3-1.4,1.9c-1.1,1.5-2.1,3.2-3.4,4.6
		c-5.4,6.2-11.2,12.1-18.1,16.8c-1.1,0.8-2,1.7-2.7,2.8c-4.3,6.3-8.9,12.4-14.3,17.9c-1.1,1.1-2.1,2.3-3,3.6
		c-4.5,6.4-10.2,11.7-16.7,16.1c-2.8,1.9-5.2,4.2-7.3,6.8c-1.9,2.4-3.9,4.8-6,7.1c-2,2.3-3.5,4.8-4.4,7.7c-0.5,1.4-0.9,2.7-1.4,4.1
		c-0.2,0.4-0.5,0.7-0.9,1.3c0-2.7,0.8-5.7,2.1-8.1c0.5-1,1-1.8,1.1-3c0-0.6,0.5-1.3,1-1.8c2.7-3.3,5.5-6.6,8.3-9.9
		c2-2.2,4.2-4.2,6.7-6c6.3-4.6,11.9-9.9,16.8-16c1.6-2,3.4-4,5.2-5.9c3.7-3.9,7-8.2,10-12.6c0.4-0.6,0.5-1.3,0.8-1.9L178.4,210.3z
		 M80.3,309.9c0.2-0.2,0.4-0.5,0.7-0.7c0.5,0,0.8-0.1,0.7-0.7c0.8,0.2,1.3-0.3,1.8-0.8c0.1-0.1,0.1-0.5,0-0.6
		c-0.1-0.1-0.4-0.2-0.6-0.1c-0.6,0.3-1.2,0.7-1.2,1.5c-0.5,0-0.8,0.2-0.6,0.8C80.6,309.2,80.4,309.4,80.3,309.9
		c0,0.1-0.1,0.2-0.2,0.2C80.2,310,80.3,309.9,80.3,309.9z M413.6,307.7c0.1,0.1,0.2,0.1,0.3,0.2
		C413.7,307.8,413.6,307.8,413.6,307.7c-0.3-0.2-0.5-0.4-0.7-0.7c-0.3-1.1-1.1-1.7-2.1-2.1c-0.1-0.1-0.4,0.2-0.6,0.3
		c1.2,1.3,1.2,1.3,2.7,1.8C412.9,307.4,413.2,307.6,413.6,307.7z M266,85.5c0.2-0.2,0.5-0.5,0.7-0.7c0-0.1,0.1-0.2,0.1-0.3
		c0,0.1,0,0.2-0.1,0.3C266.5,85.1,266.3,85.3,266,85.5l-0.1,0.2L266,85.5z M67.5,317.8c0.1-0.1,0.2-0.1,0.3-0.2c0,0,0-0.1,0-0.2
		C67.6,317.5,67.6,317.7,67.5,317.8c-0.5-0.1-0.8,0.1-0.7,0.7c-0.8,0.1-0.9,0.5-0.2,1.4c0.1-0.7,0.1-1.1,0.2-1.4
		C66.9,318.2,67.2,318,67.5,317.8z M263.1,76.9c0.2-0.1,0.4-0.2,0.5-0.4c0-0.1-0.1-0.3-0.2-0.5c-0.1,0.1-0.1,0.2-0.1,0.3
		C263.1,76.5,263.2,76.7,263.1,76.9c-0.2,0.3-0.5,0.6-0.8,0.8c-1.1-0.3-1.6-1-1.2-2.1c0.2-0.6,0.8-1.1,1.2-1.6l0.1,0.2l-0.2-0.1
		c0.3-0.7,0.5-1.3,0.7-2c0.1-0.2-0.1-0.6-0.2-0.9c-0.4,0.6-0.8,1.2-1.6,2.3c0-1.3-0.1-2,0-2.6c0.2-0.8,0.6-1.5,0.9-2.3
		c0.5-1.3,0.7-2.6-0.2-4.2c-0.5,1.7-0.8,3.1-1.3,4.6c-0.2-1.6-1.7-2.7-1.3-4.4c0-0.1-0.3-0.2-0.4-0.3c-0.8-0.1-0.8,1.5-1.8,0.7
		c0.1-0.3,0.1-0.7,0.2-1c0.5-0.6,1-1.2,1.6-1.9c0.6,0.5,1.1,0.9,1.6,1.4c0.8-1.4-0.1-2.3-0.9-3.1c-0.8-0.8-1.4-1.9-2.9-1.5
		c0.1,0.9,0.2,1.7,0.3,2.5c0.1,0.9,0.2,1.9,0.4,2.8c-0.7-0.1-1.4-0.2-2.1-0.4c0.1-0.8,0.2-1.5,0.3-2.2c-0.5,0.1-0.8,0.2-1.2,0.3
		c-0.2-1.4,1.1-2,1.5-3c0.2-0.6,0.3-1.1-0.5-1.6c-0.6,0.8-1.1,1.6-1.7,2.4c-0.2-0.5-0.5-1-0.7-1.5c0-0.8,0-1.6-0.1-2.9
		c-0.6,0.7-1,1-1.1,1.3c-0.3,1.2-0.6,2.4-0.8,3.7c-0.2,0.5-0.5,1-0.7,1.5c-0.8,0.9-1.5,1.8-2.4,2.6c-0.9,0.9-2,1.1-3.3,0.2
		c0-1.5,0-3,0-4.5c0-0.8,0.6-1.3,1.3-1.4c0.2,0,0.4,0.1,0.8,0.2c0.1,0.9,0.1,1.9,0.2,3.4c0.7-1.5,1.1-2.5,1.6-3.5
		c0.2,0.6,0.4,1.2,0.7,1.9c1.1-1.8,1.8-3.4,1.6-5.4c-0.7-0.2-1.3-0.3-2-0.5c-0.4,0.7-0.8,1.3-1.1,1.9c-1.6-2.3-1.6-2.3-3.5-1.6
		c-0.2,3.6-0.3,7.1-0.5,10.5c-1.5-0.2-2.9-0.3-4.1-0.5c-0.3-0.2-0.4-0.3-0.4-0.4c-1.5-2.5-3.3-4.9-2.9-8.1c0-0.3-0.1-0.7-0.4-1
		c-0.2-0.2-0.6-0.2-1-0.4c-0.7,1.5-0.1,2.9,0.4,4.2c0.5,1.2,0.9,2.4,0.6,3.8l0.1-0.1c-1.1-0.1-1.7-0.9-1.9-1.8
		c-0.3-1.1-0.4-2.3-0.6-3.4c-0.1-0.4-0.3-0.8-0.6-1.5c-0.8,0.7-1.4,1.2-2,1.7c-1.5,1.2-1.5,1.9,0,2.9c0,0.2,0,0.4,0,0.6
		c0,0.1,0.1,0.2,0.2,0.3c0.1-0.2,0.3-0.4,0.2-0.5c-0.1-0.1-0.3-0.2-0.5-0.3c0-1-0.1-2-0.1-3c1.3,1.6,1.7,3.5,1.8,5.4
		c0,0.2-0.4,0.5-0.6,0.7c-0.9-0.6-1.8-1.1-2.6-1.6c0-0.2,0-0.5,0-0.7c0-0.1-0.2-0.1-0.4-0.2c0,0.1,0,0.3,0,0.3
		c0.1,0.2,0.3,0.3,0.5,0.5c0.1,0.4,0.3,0.9,0.4,1.3c0.1,0.4,1,0.7,0.2,1.5c-1-0.9-2-1.8-3.2-2.9c-0.1,1-0.1,1.7-0.3,2.4
		c-0.2,0.6-0.7,1.1-1.2,1.9c0.7,0.7,1.3,1.2,1.9,1.7l0-0.1c-0.6,0.2-1.3,0.4-1.8,0.5c0.1,1.1,0.1,2.1,0.2,3.1l0.1-0.1
		c-0.4-0.1-0.6-0.7-1.2-0.2c0.2,0.5,0.4,1.1,0.6,1.6c0.2,0.6,0.4,1.1,0.7,1.7c0.2,0.5-0.2,1.2,0.4,1.5c0.4-0.1,0.6-0.2,1-0.3
		c0.1,1.1,0.2,2,0.3,2.9c-0.3,0.4-0.4,0.7-0.7,0.9c-1.3,0.8-1.6,2-1.5,3.4c0.1,2.4-0.1,4.8,0.1,7.1c0.1,1.9,0.2,3.8,1.1,5.6
		c1.2,2.2,1.7,4.7,2.3,7.1c1.7,7,3.9,10,10.1,13.4c0.2,0.1,0.4,0.3,0.6,0.3c2.6,1.1,5.2,1.7,8,0.7c0.7-0.3,1.4-0.4,2.1-0.6
		c3-1.1,5.6-2.7,7.2-5.6c0.9-1.6,1.7-3.2,2.2-4.8c0.9-2.9,1.7-5.9,2.5-8.9c0.4-1.6,0.7-3.3,1.4-4.8c1.1-2.4,1-4.9,0.5-7.3
		c-0.3-1.4-0.6-2.8-0.6-4.2c0-1.3-0.2-2.6-0.4-3.9C262.5,77.3,262.8,77.1,263.1,76.9z M225.8,79l0.1,0.2L225.8,79
		c-0.2-0.2-0.3-0.6-0.5-0.8c-0.2-0.2-0.5-0.2-0.8-0.2c0,0-0.2,0.2-0.1,0.3c0.1,0.3,0.2,0.7,0.4,0.8C225.1,79.1,225.5,79,225.8,79z
		 M225.8,98.5c-0.1-0.3-0.1-0.5-0.1-0.3C225.5,98,225.7,98.2,225.8,98.5c0.1,0.5,0.2,1,0.3,1.9C226.6,99.4,226.6,98.8,225.8,98.5z
		 M370.7,274.8c-3.9,1.2-4.7,2.3-4.5,6c0,0.7,0.2,1.4,0.3,2.1c0,0.2,0.4,0.3,0.5,0.4c0,0.3,0,0.7,0.1,1c0,0.1,0.3,0.1,0.5,0.2
		c0-0.2,0.1-0.5,0-0.6c-0.2-0.2-0.5-0.4-0.7-0.6c0.2-1.4-0.3-3,0.9-4c1.2-0.9,1.8-2,2-3.5C369.9,275.5,370.3,275.1,370.7,274.8
		c0.2-0.2,0.5-0.3,0.8-0.4c0.1,0,0-0.4,0-0.5c0,0-0.2,0-0.3,0C370.8,274.1,370.4,274.2,370.7,274.8z M126.9,285.5
		c0.2-0.1,0.5-0.3,0.5-0.4c0.1-1.5,0.3-3,0.2-4.5c0-0.6-0.4-1.4-0.9-1.8c-1.3-1-2.4-2.2-4.1-2.5c0-0.1,0-0.2-0.1-0.3
		c0,0-0.1,0-0.2,0c0.1,0.1,0.2,0.1,0.3,0.2c0.5,0.6,1.2,1.2,1.4,1.9c0.3,1.5,0.8,2.6,2,3.5c0.5,0.4,0.6,1.2,0.8,1.9
		C127,284.1,126.9,284.8,126.9,285.5c-0.6-0.1-0.6,0.5-0.8,0.8c0,0.1,0.1,0.3,0.1,0.3c0.2,0,0.5,0,0.5-0.1
		C126.8,286.1,126.8,285.8,126.9,285.5z M248.8,52.7L248.8,52.7c0.6,1.1,1.6,0.8,2.7,0.5l-0.1-0.1c1,0.4,2,0.8,3,1.1
		c0.1,0,0.4-0.2,0.7-0.3c-0.5-0.9-1-1.8-1.6-2.7c-0.3-0.4-0.7-0.7-1.1-0.8c-3.3-0.9-6.6-1.5-9.3,1.5c-0.1,0.1,0,0.4,0,0.7
		c0.8,0.1,1.6,0.1,2.2,0.2c1.4-0.6,1.9-2.5,3.8-2.1c-0.4,0.4-0.7,0.6-0.9,0.8c-0.3,0.3-0.8,0.5-0.6,1.2
		C248,52.6,248.4,52.7,248.8,52.7z M101,265.5C101,265.5,100.8,265.1,101,265.5c0.3,0.2,0.6,0.4,0.8,0.7c1.4,1.5,1.4,3.2,0.5,4.9
		c-0.2,0.4-0.5,0.8-0.7,1.2c-0.6,0.9-0.4,1.8,0.1,2.7c1.9,1,3.8,2,5.7,2.9c1,0.5,2,0.5,3,0c-0.5-1.3-1-2.6-1.5-3.9
		c-0.4-1-0.5-2.2-1.2-2.9c-1.2-1.2-1.4-2.7-1.9-4.2C104.2,266.5,102.6,266,101,265.5z M400,295.5c0,0.1,0,0.2,0,0.3
		c0.1-0.1,0.2-0.2,0.3-0.2C400.2,295.6,400.1,295.5,400,295.5c0.3-1-0.1-1.8-0.5-2.7c-1.9-4.9-3.7-9.8-5.6-14.7
		c-0.1-0.3-0.4-0.6-0.7-1c-0.7,1.2-1.3,2.3-2.1,3.3c-1.6,2.1-3.4,3.9-6.4,3.9c-1.6,0-3.5,0.3-4.6,2.1c-0.3,0.5-1.5,0.6-2.3,0.8
		c-0.9,0.2-1.8,0.1-2.7,1.1c0.5,0.4,0.9,0.8,1.4,1c2.4,1.1,4.7,2.3,7.1,3.3c4.7,2,9.4,4,13.9,6.5c0.9,0.5,1.9,0.9,2.9,1.3
		c0.2,0.1,0.4-0.1,0.8-0.3c0-0.6,0-1.2,0-1.7c-5.5-2.8-10.9-5.4-16.1-8.1c-1.3-0.6-2.3-1.6-3.5-2.5c-0.2-0.1-0.1-0.5-0.2-1
		c2.4,1.3,4.6,2.5,6.8,3.5c3.3,1.6,6.7,3.2,10,4.7C398.8,295.4,399.4,295.4,400,295.5z M214.3,529.9c3.1-0.6,4.5-2.8,5.2-5.7
		c0.5-2.4,0.7-4.7,0.4-7.1c-0.6-1.1-1.5-2-1.8-3.1c-0.4-1.2-0.3-2.6-0.4-4c-1.8,0.1-2.8-1.1-3.6-2.5c-1-1.6-2.1-3.1-3.2-4.7
		c-2.9,0-5.6,0-8.5,0c-1.3,2.3-1.3,5-2.6,7.6c1.3,0.1,2.4,0.1,3.4,0.2c2.3,0.2,4.5,0.4,6.6,1.3c0.8,0.3,1.5,0.8,1.4,2
		c-0.4,0-0.9,0.1-1.3,0c-1.5-0.3-3-0.8-4.5-0.9c-2.3-0.2-4.5-0.1-6.8,0c-1.5,0.1-1.9,0.7-2.3,2.6c1.1-0.1,2.1-0.3,3.2-0.4
		c2.4-0.2,4.8-0.4,7.1-0.3c1.1,0,2.3,0.5,3.4,0.9c0.2,0.1,0.4,0.6,0.4,0.9c-0.1,0.3-0.4,0.6-0.7,0.7c-0.7,0.1-1.4,0.1-2.1,0.1
		c-3.8,0.1-7.6,0.2-11.5,0.3c-0.7,0-1.4,0.4-0.9,1.6c3.4-1.7,6.9-1.1,10.5-0.9c1.1,0.1,2.2,0.3,2.5,1.6c-0.3,1-1.1,1.2-2,1.2
		c-3.3,0-6.7,0-10,0c-0.8,0-1.6,0-2.2,0c-3,2.8-4.5,6.4-6.6,9.6c-0.2,0.4-0.3,0.9-0.4,1.4c-0.2,2,0.4,5.4,1.3,7.6
		c2.3-1.2,4.7-1.5,6.7-1.8c1.5,0.6,2.6,1.2,3.7,1.6c1.2,0.4,2.5,0.3,3.4,1.5c-1,1.1-2,0.5-2.7,0.2c-3.5-1.3-7-1.1-10.7,0.4
		c0.8,0.3,1.4,0.7,2,0.8c1.4,0.3,2.8,0.5,4.2,0.7c4.4,0.7,8.5-0.3,12.7-1.3c0.3-0.1,0.6-0.3,0.9-0.5c1-0.9,2-1.7,2.9-2.6
		c1-0.8,1.4-1.9,1.3-3.2c-0.1-1.3-0.2-2.6-0.3-3.9c0.6-0.7,1.1-1.3,1.6-1.9L214.3,529.9z M272.4,265.4L272.4,265.4
		c0,1.4-1.1,2.3-1.5,3.5c-0.2,0.6-0.9,1.2-0.2,2.1c0.8-0.1,1.8-0.1,2.7-0.3c5.7-1.2,11.4-2.5,17.1-3.7c0.4-0.1,0.8-0.4,1.1-0.6
		c-1.4-4.4-2.7-8.6-4.2-12.8c-0.3-0.8-0.7-1.5-1.3-2.1c-1.6-1.6-2.4-3.5-3.1-5.6c-1.7-5.3-1.4-10.6-0.2-15.9c0.5-2,1.2-4,0.7-6
		c-0.2-0.9,0-1.6,0.1-2.4c0.6-3.5,1.1-7.1,1.5-10.6c0.1-0.8,0.3-1.7-0.9-2.4c-0.9,0.3-2.1,0.5-3.2,0.9c-4.9,1.8-10.1,1.4-15.2,1.8
		c-2.4-0.8-4.7-0.3-7.1-0.1c-3.9,0.4-7.8,1.1-11.8,0.8c-1.9-0.1-3.8-0.3-5.7-0.4c-7.7-0.4-15.5-1-23-3c-0.5-0.1-1.1,0.1-1.6,0.2
		c0.5,2.7,0.9,5.2,1.4,7.6c0.8,3.5,1.6,7,2.4,10.5c1,4.5,1,9,1,13.5c0.1,3.9-0.9,7.6-2.5,11c-1,2.1-2.2,4.2-3.3,6.4
		c-1.3,2.5-2.6,5.1-3.9,7.6c-0.4,0.7-0.5,1.5-0.8,2.3c0.5,0.1,0.9,0.3,1.2,0.3c5.9,0.3,11.6,1.5,17.3,2.5c2.7,0.5,5.4,0.8,8.1,1.2
		c8.4,1.1,16.7,0.1,25-0.4c1.9-0.1,3.8-0.3,5.6-0.5C269.6,269,270.4,266.8,272.4,265.4z M256.6,314.2l-0.1-0.1c0.1,0.3,0,0.8,0.2,1
		c1.2,1.8,1.8,3.9,2.2,6c0.3,1.5,0.9,2.9,1.3,4.4c2.7,0.9,5.4,1.5,8.2,1.5c6.4,0,12.9,0,19.3,0c7.1,0,13.1-2.6,18.5-7.1
		c-0.2-3.4-1.1-6.5-1.8-9.6c-0.7-3.1-1.5-6.2-2.2-9.4c-0.5-2.3-1-4.7-1.2-7c-0.3-2.6-2-4.5-2.7-6.9c-0.6-1.9-1.3-3.8-2-5.8
		c-0.5-1.5-1.1-3-1.5-4.6c-0.5-2.3-1.2-4.6-2.2-6.7c-1.3-0.5-2.5-0.1-3.6,0.1c-2,0.4-3.9,1-5.9,1.4c-7.5,1.6-15,3.1-22.7,2.7
		c-0.8,0-1.7,0.2-2.5,0.3c-5.9,0.6-11.9,1-17.8,0.5c-4.2-0.4-8.3-1.2-12.4-1.9c-4.5-0.7-8.8-2.1-13.4-1.5c-0.6,0.1-1.2-0.2-1.8-0.2
		c-0.7,0-1.4,0-2.2,0c-0.1,1.3-0.3,2.5-0.3,3.6c-0.1,1.3-0.4,2.5-0.2,4c3.8,0.4,7.5-0.2,11,1.3c-3.7,0-7.3,0-11.2,0
		c-0.3,2.3-0.6,4.4-0.9,6.5c-0.5,3.1-0.5,6.4-2.3,9.3c-0.3,0.5-0.3,1.1-0.4,1.7c-0.7,8.3-1.5,16.6-2.2,25c-0.1,0.7,0.1,1.4,0.1,2.1
		c0.7,0.2,1.2,0.5,1.8,0.7c3.4,0.7,6.7,1.6,10.2,1.7c4,0.2,8.1,0.8,12.1,1.2c4,0.5,7.8,0,11.7-1.1c3-0.9,6-1.5,8.9-2.9
		c0.8-3.3,1.5-6.7,2.3-10.1c1.2-0.6,2.2-1.1,3.2-1.5C255,313.4,255.8,313.8,256.6,314.2z M312.1,494.5c0.4-2.7,0.6-5.1,0.2-7.6
		c-0.6-4.2-0.5-8.3-0.3-12.5c0.2-2.9,0.4-5.7,0.5-8.6c0.2-7.9,0.2-15.8,0.3-23.6c0-2-0.2-4.1,0-6.1c0.6-6-0.3-11.9-1.5-17.8
		c-0.6-2.7-1-5.4-2.1-7.9c-1.2-2.6-0.9-5.7-2.5-8.2c-0.4-0.6-0.5-1.6-0.5-2.4c-0.1-2.7-0.3-5.5-0.2-8.2c0.1-2.9,0.4-5.7,0.6-8.6
		c0.2-2.9,0.3-5.7,0.4-8.6c0-3.6-0.1-7.2,0-10.7c0-1.1,0.1-2.2,0.4-3.2c0.5-1.7,0.7-3.5,0.6-5.3c-0.1-1.7-0.1-3.3-0.1-5
		c-0.2-8.4-0.1-16.7-0.9-25c-0.1-0.5,0.2-1.2-0.8-1.5c-0.8,0.6-1.6,1.3-2.5,1.9c-0.9,0.6-1.8,1.3-2.8,1.5c-2.8,0.6-5.6,1.2-8.5,1.4
		c-5.5,0.5-10.9,0.8-16.4,1.1c-1.9,0.1-3.8,0.1-5.7,0c-1.5-0.1-3.1-0.1-4.6-0.4c-1.5-0.2-2.9-0.6-4.7-1c0.8,2.5,1.6,4.8,2.3,7
		c1.1,3.7,2.4,7.2,4,10.7c6.1,12.9,9.8,26.3,10.4,40.6c0.1,2.2,0.4,4.3,1.3,6.3c0.7,1.6,1.4,3.3,2.1,4.9c0.6,1.3,1.3,2.6,1.7,3.9
		c0.4,1.3,0.5,2.8,0.8,4.3c2.2,0.8,3,2.7,3.4,4.9c0.6,3.1,0.4,6.2,0.2,9.3c-0.1,1.5-0.3,3.1-0.2,4.6c0.5,4.7,1,9.5,1.7,14.2
		c0.9,6.2,2.9,12,4.9,17.9c0.6,1.8,1.4,3.6,1.8,5.4c0.9,4,1.7,7.9,2.2,11.9c0.9,6.5,1.8,13,3.5,19.3c0.1,0.5,0.1,1.2,0.4,1.3
		c1.4,0.6,1.1,2,1.4,3.1c0.1,0.4,0.2,0.9,0.5,1.9c0.3-1,0.5-1.4,0.6-1.8c0.4-1.6,1.3-2.5,2.9-2.8c0.8-0.2,1.6-0.4,2.4-0.5
		C310.2,494.6,311.1,494.6,312.1,494.5z M203.9,328.1c-0.1,0.7-0.3,1.3-0.3,1.9c0.1,6.1,0,12.2,0.4,18.3c0.5,8,1.4,15.9,2.1,23.9
		c0.2,1.9,0.1,3.9,0.5,5.7c1.1,4.8,0.9,9.5-0.4,14.2c-1.3,4.4-1,9-1.3,13.5c-0.1,1.5-0.1,3.1-0.5,4.6c-0.6,1.9-1.1,3.9-1.8,5.8
		c-0.7,1.9-1.3,3.8-1.5,5.9c-0.4,3.9-0.9,7.8-1,11.8c-0.2,8.1,0.4,16.2,1.6,24.3c0.8,5.4,1.6,10.9,2.1,16.3c0.3,4.5,0.8,9,1.2,13.5
		c0.3,3.7,0.6,7.4,0.9,11.1c0,0.6,0.1,1.1,0.2,1.8c1.3,0.1,2.5,0.2,3.7,0.1c1.3,0,1.9,1.2,3,1.7c0.2-0.8,0.3-1.5,0.6-2.4
		c0.6,1.2,1,2.1,1.6,3.2c0.7-6,1.4-11.7,2-17.4c0.7-6.8,1.2-13.5,1.9-20.3c0.4-3.9,0.9-7.9,2.5-11.5c2.2-5.2,3.1-10.7,3.3-16.4
		c0.2-4.4,0.6-8.8,1-13.2c0.5-4.8,2.2-9.3,3.3-13.9c1.9-7.5,3.5-15.1,4-22.9c0.2-3.3,0.7-6.6,1.4-9.9c1.5-6.8,3.3-13.4,5.9-19.9
		c0.8-2.1,1.3-4.3,2-6.5c0.4-1.6,0.8-3.2,1.2-4.9c1.4-5.9,2.9-11.8,4.3-17.7c0.1-0.4,0.4-0.9-0.2-1.5c-0.4,0.1-0.9,0.3-1.5,0.5
		c-2.6,0.9-5.2,1.8-7.8,2.6c-3,0.8-6.1,1.5-9.2,1.2c-2.7-0.3-5.4-0.5-8.1-1c-1.7-0.3-3.3-0.3-5-0.4c-2.8,0-5.7,0-8.4-1.4
		C206.5,328.2,205.2,328.3,203.9,328.1z M264.4,132.8c-0.3,1.8,0,3.1,0.8,4.2c0.6,0.8,0.7,1.7,0.8,2.7c0.4,4.2,0.8,8.3,1.2,12.5
		c0.1,1.3,0.3,2.6,0.2,3.9c0,0.8-0.2,1.7-0.6,2.3c-2.8,3.9-6.8,6.3-10.7,8.7c-0.2,0.1-0.5,0.2-0.7,0.2c-3.3,0.4-6.6,0.9-10,0.3
		c-5.3-0.9-10.4-2.4-15.4-5.5c-1-4.3-3.4-8.3-4-13c-0.5-4-0.8-7.8,0.3-11.7c0.1-0.5,0-1.1-0.1-2c-1,0.6-1.7,1.1-2.4,1.5
		c-0.8,0.5-1.7,0.8-2.5,1.3c0,1.4,0,2.6,0,3.7c0,1.6,0.1,3.1-0.2,4.6c-0.8,5.3-2.2,10.5-4.7,15.3c-2.5,4.9-5.1,9.7-7.6,14.6
		c-0.8,1.5-1.2,3.1-0.7,4.8c0.3,0.9,0.5,1.9,0.5,2.8c0.1,2.4,0.9,4.7,1.7,6.9c1.5,4.4,3.1,8.8,4.7,13.2c0.4,1,0.7,2,1.1,3.1
		c1.3,0.3,2.6,0.6,3.9,0.8c8.9,1.5,17.8,1.9,26.8,2.1c6.2,0.1,12.4-0.5,18.6-0.8c2.6-0.1,5.2-0.4,7.9-0.5c4-0.1,7.8-1,11.5-1.7
		c0.6-4.2,1.3-8.1,1.9-12.1c0.2-1.8,0.4-3.6,0.2-5.4c-0.4-3.3-0.1-6.4,0.8-9.6c0.8-2.8,0.1-5.1-1.7-7.3c-1.7-2.1-3.2-4.4-5.4-6.2
		c-1-0.8-1.7-2-2.3-3.1c-3.9-7.4-7.3-15-8.8-23.4c-0.3-1.5-0.7-3-0.9-4.6c-0.2-1.2-0.9-1.9-2-2.3C266,133,265.3,133,264.4,132.8z
		 M228.2,134.7c-1,10.8,0.2,17.5,4.4,26.7c3,1.7,5.9,2.8,10.4,3.7c1.7,0.3,3.4,1.1,5.2,0.7c-0.2-3.8-0.2-4,1.2-6.4
		c0.1,1.8,0.2,3.3,0.2,4.8c0,0.6-0.2,1.2,0.5,1.5c4.7-0.7,7.8-1.9,11-4.7c5.1-4.5,4.9-3.5,4.9-11c0-1.3-0.2-2.6-0.8-3.8
		c-1.7-3.1-2.3-6.5-2.4-10c0-1.5-0.1-3.1-0.1-4.6c-3-3.5-4.7-7.6-5.2-12.1c-0.2-1.5-0.6-3-0.9-4.5c0-0.1-0.1-0.2-0.2-0.3
		c-0.1-0.1-0.2,0-0.5,0c-1.4,1.7-3.4,2.7-5.5,3.5c-0.6,0.2-1.1,0.4-1.6,0.7c-2.5,1.5-5,1.3-7.5,0.1c-2.3-1.1-4.5-2.2-7-3.4
		c0.2,2.2,0.9,4.3-0.3,6c1.8,2.8,2.1,4.1,2,6.7c-0.7-1.7-1.3-3.1-2-4.7C233.1,128.1,231.3,131.7,228.2,134.7z M92.7,302.9
		c1.5-0.7,2.6-1.1,3.6-1.7c4.4-2.4,9-4.5,13.6-6.4c2.4-1,4.8-2.1,7.2-3.3c0.6-0.3,1.1-0.8,1.8-1.2c-1-0.9-2-1-3.1-1.1
		c-1-0.1-2-0.3-2.5-1.2c-0.5-0.8-1.1-1.1-2-1.1c-1.1-0.1-2.1-0.4-3.1-0.6c-1.1-0.1-2.1-0.5-2.9-1.3c-1.1-1.2-2.2-2.5-3.3-3.8
		c-0.5-0.6-0.8-1.3-1.3-2.1c-1.1,2.1-6.4,15.5-7.1,18.2c0,0.2,0.1,0.4,0.3,0.7c0.9-0.4,1.7-0.8,2.6-1.2c1-0.5,1.9-1,2.9-1.4
		c0.9-0.4,1.7-0.8,2.6-1.2c0.9-0.4,1.8-0.8,2.6-1.1c0.9-0.4,1.7-0.8,2.6-1.2c1-0.5,1.9-1,2.8-1.5c0.8-0.4,1.4-1.3,2.6-1.1
		c-0.6,1.4-1.7,2-2.6,2.5c-1.6,1-3.3,1.9-5,2.7c-4.1,2.1-8.3,4.1-12.6,6.1C92.4,301.2,92.5,301.8,92.7,302.9z M90.6,299.9
		c1-2.9,1.8-5.5,2.7-8c1.6-4.1,3.2-8.2,5.1-12.2c1.5-3.1,1.7-6.4,2.5-9.6c0.4-1.7-0.3-2.5-2.2-3.5c-1.2,1.7-2.6,3.4-2.9,5.5
		c-1.1,6.1-3,12-4.7,17.9c-0.8,2.9-1,5.8-1.4,8.8C89.7,299,90.2,299.4,90.6,299.9z M395,264.3c-2,1.8-2.5,2.4-2,3.8
		c1,3.3,1.2,6.7,2.6,9.9c2.8,6.2,5.6,12.4,7.4,19c0,0.2,0.3,0.3,0.6,0.5c0.2-0.2,0.7-0.5,0.7-0.6c-0.4-3.1-0.6-6.2-1.4-9.2
		c-1.6-5.5-3.1-11-4.4-16.6C397.8,268.6,396.5,266.7,395,264.3z M384.2,282.4c1.9,0.5,3,0.2,4.1-0.8c1.9-1.6,3.1-3.7,4.6-6.4
		c-1.4,0.7-2.3,1-3.1,1.5c-1.5,0.9-3.1,1-4.8,1c-1.9-0.1-2.2-0.3-3.5-2.5c-1-0.3-2.1-0.7-3.3-1c0,0.4,0,0.7,0.1,0.8
		C380.3,277.4,382.3,279.9,384.2,282.4z M112.2,277.3c-0.4,1.6-1.4,2.3-2.8,2.4c-1.8,0.1-3.5,0-5.2-0.9c-0.8-0.4-1.7-1.4-2.9-0.9
		c1.4,2.2,2.6,4.5,4.7,6c1.7,1.2,3,1.2,4.4-0.3c1.7-2,3.4-4,5-6.1c0.2-0.3,0.8-0.7,0.1-1.2C114.5,276.6,113.4,276.9,112.2,277.3z
		 M111.2,284.8c1.3,0.9,2.4,0.7,3.3-0.2c1.2-1.1,2.5-2.2,3.5-3.5c0.8-1,1.5-2.1,2.1-3.2c0.7-1.5-0.2-2.4-2.2-2.1
		C116.7,279.3,113.4,281.4,111.2,284.8z M375.8,273.3c-0.7,0.2-1.3,0.2-1.7,0.5c-0.6,0.5-0.7,1.2-0.4,1.9c1.2,3.3,4.1,5.1,6.5,7.3
		c0.6,0.6,1.4,0.2,2.3-0.6C380.5,279.4,377.2,277.4,375.8,273.3z M404.2,306.1c1.4,0.4,2.3,0.3,3-0.8c0.3-0.5,0.8-0.9,1.1-1.4
		c0.9-1.2,0.7-2.5,0-3.7c-0.6-1.1-1.7-1.1-2.8-1.1c-1.2,0.1-1.9,0.7-2.1,2C403.2,302.8,403.3,304.4,404.2,306.1z M89.6,308.1
		c1-1.7,1-3.3,0.8-5c-0.2-1.2-0.9-1.8-2.2-1.9c-0.4,0-0.7,0-1.1,0.1c-1.1,0.1-1.6,0.7-2,1.7c-0.6,1.9,0.4,3.1,1.5,4.4
		C87.5,308.4,88.4,308.6,89.6,308.1z M379.2,284.5c-0.9-1-1.7-1.8-2.5-2.7c-0.9-0.9-1.8-1.9-2.7-2.8c-0.8-0.8-0.8-2.2-2.3-2.9
		c-0.7,1.8-0.5,3.4,0.6,4.7c1.3,1.5,2.8,2.9,4.3,4.2C377.5,285.7,378.3,285.6,379.2,284.5z M114.5,286.8c0.8,0.3,1.2,0.6,1.6,0.6
		c0.4,0,0.9-0.2,1.3-0.5c1.1-1,2.1-2.2,3.3-3.2c1.4-1.2,1.9-2.6,1.8-4.4c0-0.5-0.3-0.9-1.1-0.8C120.1,281.8,117,283.8,114.5,286.8z
		 M240.6,63.8c0.4-4.4-0.1-6.8-2.1-9c-0.8,1.7-0.9,3.3-0.5,4.9C238.4,61.3,239.1,62.8,240.6,63.8z M369.3,280.1
		c-0.3,2.3-0.2,2.8,0.6,3.9c1,1.4,2.4,1.7,4.3,1.7c-0.6-1.3-1.5-2-2.4-2.8C371,282.1,370.3,281.2,369.3,280.1z M119.7,287.5
		c2.1,0.5,3.5-0.3,4.4-1.7c0.9-1.4,0.9-1.8,0.2-3.3C122.8,284,121.3,285.6,119.7,287.5z M267.6,90.8c0.4-1.8,0.5-2.8,0.2-3.9
		c0-0.2-0.3-0.3-0.6-0.5c-0.5,0.6-0.9,1.2-1.5,1.9C266.2,89,266.7,89.6,267.6,90.8z M114.5,273.9c1.5-0.1,2.6,1.3,3.7-0.5
		c-1-0.4-1.9-0.9-2.9-1.4C115,272.7,114.8,273.1,114.5,273.9z M264.1,97.1c1-1.5,2-2.3,1.7-3.6c-1.4,0-2.1,0.8-2.3,1.9
		C263.4,95.8,263.7,96.2,264.1,97.1z M222.9,89.3c-0.7,2.2-0.7,2.2,0.8,3.5C223.7,91.5,224.4,90.3,222.9,89.3z M379,271.7
		c0.1-1-0.2-1.5-0.8-1.4c-0.8,0.2-1.6,0.7-2.5,1.1c0.4,0.4,0.7,0.8,0.9,0.8C377.4,272.1,378.3,271.9,379,271.7z M242.4,55
		c-0.5-0.1-0.9-0.2-1.1-0.1c-0.6,0.6-0.5,1.3,0,2.4C241.8,56.4,242.1,55.7,242.4,55z M410.4,301.1c0.6-0.9,0.2-1.5-0.2-2
		c-0.3-0.5-0.7-0.9-1.3-0.3C409.4,299.6,409.9,300.3,410.4,301.1z M83.2,303.4c1.1-1.7,1.1-1.7,1.3-3C83.6,301,83,301.7,83.2,303.4z
		 M242.5,59.2c0.1,0,0.2,0,0.3,0c0-0.4,0-0.7,0-1.1c-0.1,0-0.2,0-0.3,0C242.5,58.4,242.5,58.8,242.5,59.2z M302.8,503
		c0.1,0,0.2-0.1,0.2-0.1c0-0.1,0-0.2-0.1-0.3c-0.1,0-0.2,0.1-0.2,0.1C302.7,502.8,302.8,502.9,302.8,503z M223.6,87.2l0,0.2l0.3-0.1
		L223.6,87.2z M266.2,91.6c0,0.2,0,0.4,0,0.6c0.1-0.1,0.2-0.2,0.2-0.3c0-0.1,0-0.2,0-0.3C266.4,91.6,266.3,91.7,266.2,91.6z
		 M216,505.9l0.2,0.2l0-0.3L216,505.9z"/>
	<path d="M792.7,534.3c1.4-0.6,1.9-1.7,1.6-3.1c-0.2-0.8-0.4-1.7-0.8-2.3c-2.2-3-4.5-6-6.8-9c-0.3-0.3-0.8-0.5-1.1-0.8l0.1,0.1
		c0-1.2-0.9-1.9-1.4-2.8c-0.8-1.3-1.7-2.6-2.1-4c-0.7-2.3-2-3.9-4-5.4c-1.7,0.9-3.5,1.4-5.5,1.5c-1.3,0.1-2.6,0.2-3.4,1.4l0.1-0.1
		c-0.8,0.2-1.6,0.4-2.4,0.6c-0.8-0.5-0.7-1.2-0.4-1.9c0.4-1.1,1.2-1.8,2.3-2.1c1.4-0.4,2.8-0.6,4.2-0.8c1-0.1,2-0.1,3.4-0.2
		c-0.4-0.7-0.6-1.1-0.9-1.4c-1.2-1.1-1.9-2.4-2.1-4c-0.2-1.4-0.9-2.4-2.4-3c-2,0.3-4.1,0.6-6.3,0.9c-0.9,1.4-1.5,3-1.7,4.6
		c-0.2,1.8-1,3.1-2.3,4.2c-1.3-0.1-1.7-0.9-1.9-1.9c-0.2-1.4-0.4-2.9-0.3-4.3c0.1-1.7-0.1-3.3-0.6-4.9c-2.1-8.5-3.5-17.1-5.1-25.6
		c-0.7-4-1.9-7.9-2.9-11.8c-0.7-2.4-1.5-4.8-2.3-7.1c-2.3-6.2-3.4-12.7-4-19.2c-0.4-4.4-1.1-8.8-0.6-13.2c0.2-1.9,0.5-3.8,0.7-5.8
		c-2.6-2.7-3.8-6.3-5-9.8c-0.7-1.9-1.4-3.8-2.1-5.7c-1.7-4.2-3.2-8.5-3.4-13.1c-0.3-7.6-2.5-14.8-4.3-22c-0.5-1.9-1.3-3.8-2.3-5.6
		c-2.6-4.9-4.7-9.9-6.2-15.2c-1.4-4.9-3-9.8-4.4-14.7c-0.9-3.2-1.7-6.5-2.5-9.7c-0.2-0.9-0.5-1.6-1.8-1.7c-0.9,1.4-1.6,2.9-1.8,4.7
		c-0.6,4.4-1.3,8.7-2.1,13.1c-1.5,8.2-3.8,16.3-6.5,24.2c-2.2,6.2-4.6,12.3-6,18.7c-1.1,4.9-2.1,9.8-2.1,14.9
		c0,3.5-0.5,6.9-1.4,10.3c-1.6,5.7-3.1,11.5-4.8,17.2c-0.5,1.6-0.7,3.2-0.6,4.9c0.1,1.8,0.1,3.6,0,5.4c-0.2,3.9-0.4,7.9-0.6,11.8
		c-0.2,5.1-1.5,9.9-3.7,14.5c-2.2,4.7-3.2,9.8-3.5,14.9c-0.6,8.3-1.5,16.6-2.8,24.9c-0.3,1.8-0.4,3.6-0.6,5.5
		c2.7,2.2,3.2,5.3,3.3,8.6c0,1.2-0.1,2.4-0.1,3.6c0,0.7,0.2,1.5,0.6,2c1.5,1.8,1.6,3.9,1.6,6.1c0,0.4-0.1,0.7-0.1,1.1
		c0.2,3.3-1.6,5.6-3.7,7.7c-1.2,1.2-2.5,2.2-3.8,3.3c0.1,1.4,0.4,2.9,0.4,4.4c-0.1,1.6-1.3,2.8-2.5,3.7c0.3,0.6,0.6,0.9,0.9,1.5
		c-4.1,2.2-8.6,3-13,3.4c-4.9,0.4-9.7-0.6-14.5-2.6c0.2-0.9,0.6-1.5,0.6-2.1c0-0.7-0.3-1.4-0.4-2.1c-0.2-1.7-0.4-3.3-0.5-5
		c-0.1-1.3-0.2-2.6,1.1-3.6c0.4-0.3,0.5-1.1,0.6-1.6c0.5-2.3,1.5-4.3,3-6c1.8-2.1,2.9-4.6,4-7.1c0.8-1.9,2.1-3.7,3.3-5.5
		c0.9-1.3,1.7-2.6,2-4.1c0.1-0.6,0.4-1.1,0.6-1.7c0.5-1.2,1.2-2,2.5-2.3c0.3-0.1,0.6-0.4,0.9-0.7c0.5-2.6,0.1-5.2-0.2-7.8
		c-0.7-6.3-1.4-12.6-1.5-18.9c-0.1-4.9-1.1-9.7-2.1-14.5c-1.6-7.5-2.4-15.1-2.1-22.8c0.1-3.3,0.5-6.7-0.3-10c-0.1-0.3,0.1-0.7,0.2-1
		c1-4.7,2-9.4,4-13.7c1.5-3.2,2.2-6.5,2-10.1c0-0.2,0-0.5,0-0.7c-0.3-4.8,0.2-9.5,1.2-14.2c0.5-2.6,0.5-5.2,0.2-7.8
		c-0.5-3.9-0.9-7.8-1.3-11.7c-0.5-4.6-1.1-9.2-1.5-13.9c-0.4-5.4-0.7-10.7-1-16.1c-0.1-1.4-0.2-2.8,0.5-4.2c0.4-0.8,0.2-1.9,0.2-2.8
		c0-5.1,0-10.3,0-15.4c0-3.6,0-7.2,0.3-10.7c0.4-6.3,1.2-12.6,3-18.7c0.9-3.2,1.4-6.5,1.6-9.9c0.2-4.4,1.3-8.5,3.1-12.4
		c1-2.3,2.2-4.5,3.4-6.7c1.6-3.2,3.4-6.3,4.1-9.9c0.1-0.7,0.5-1.3,0.8-2c0.6-1.9,1.1-3.8,0.7-5.9c-0.5-2.7-0.4-5.5-0.7-8.2
		c-0.2-2-0.6-4-0.9-6c-0.6-3.1-1.3-6.1-1.7-9.1c-0.3-1.9-1.2-3.6-1.7-5.4c-0.8-2.7-1.5-5.5-2.3-8.3c-0.4-1.6-0.4-3.3-2-4.4
		c-0.3-0.2-0.3-0.9-0.4-1.3c-0.5-3.4-1.5-6.8-2.3-10.1c-0.6-2.4-1-4.9-1.5-7.5c-0.6,0.2-1.2,0.4-1.7,0.8c-3.3,2.1-6.8,3.9-10.7,4.9
		c-1.2,0.3-2.3,0.5-3.5,0.1c-0.8-0.3-1.5-0.7-1.5-2c0.5-0.1,1.1-0.3,1.6-0.2c2.2,0.3,4.2-0.1,6.2-1.1c1.7-0.9,3.4-1.6,4.9-2.8
		c1.5-1.1,3.4-1.8,5-2.7c0.8-0.4,1.7-0.9,2.4-1.5c6.1-5.3,10.9-11.6,15.2-18.4c0.6-1,1.1-2.1,1.8-3.4c-5.4,0.3-9.6,3-14.1,4.8
		c-0.7,6.5-3.5,8.2-9.8,6.1c-3.3,6.2-7.7,11.4-14.1,14.2c-0.7,1.5,0.8,2.8-0.4,4.2c-0.4-0.4-0.8-0.8-1.1-1.3c-0.3-0.5-0.5-1-0.8-1.6
		c-1.8,0.1-3.2,1.1-4.9,1.8c-0.1,0.7-0.2,1.3-0.4,2c-0.5,2.7-1.6,3.6-4.5,3.4c-0.5,0-0.9-0.1-1.5-0.2c-0.8,0.7-1.7,1.4-2.4,2.1
		c-38.3,34.4-76.7,68.7-115,103.1c-4.5,4.1-9.1,8.1-13.6,12.2c-0.6,0.6-1.2,1.1-1.9,1.6c-0.6,0.4-1.3,0.6-2,0
		c-0.5-0.4-0.5-1.2,0.1-1.9c0.7-0.7,1.4-1.3,2.1-2c13-11.6,26-23.3,38.9-34.9c19.6-17.5,39.1-35.1,58.7-52.6
		c10.6-9.5,21.2-19,31.8-28.5c1.2-1.1,2.4-2.2,2.7-4c0.3-1.9,2-2.6,3.8-2.6c0.5,0,0.9,0.2,1.6,0.3c0.6-0.6,1.2-1.3,1.8-2
		c-0.2,0.6-0.7,1.3,0.4,1.9c2.2-1.2,4.2-3,6.8-3.5c0.5-0.1,1.1-0.5,1.5-1c1.8-1.9,3.6-3.7,5.4-5.7c0.2-0.2,0.1-0.7,0.1-1
		c0.2-0.3,0.5-0.5,0.7-0.8c0.6,0,1.1,0.2,1.7,0.1c0.7-0.1,0.9-0.7,0.7-1.8c-1.1,0.2-2,0.6-2.3,1.8c-0.3,0.2-0.5,0.5-0.8,0.7
		c-0.3,0.1-0.8,0-1,0.2c-1.8,2.1-4.3,3.3-6.6,4.8c-1.4,0.9-2.7,1.9-4.1,2.8c-0.9,0.6-1.8,1-2.8,1.5c0.7-1.1,1.4-2.2,2.4-3.6
		c0-0.3,0-1-0.1-1.7c-0.6-3.4,0.8-6.6,1.5-9.8c0.6-3,1.4-6,1.4-9.2c0-2.9,0.9-5.6,2.7-8c0.3-0.4,0.6-0.7,0.9-1.1
		c2.6-4.5,6.8-6.5,11.7-7.4c1.3-0.2,2.5-0.5,3.9-0.7c0.4-1.9,0.5-3.7,0.7-5.5c0.1-1.8,0.3-3.6,0.5-5.3c0.2-2,0.8-3.9,2-5.7
		c0.9-1.3,1.3-3.1,1.8-4.6c0.2-0.6,0.2-1.2,0.4-1.7c0.6-1.7,1.3-2.3,3.1-2.4c2.2-0.1,4.3,0.2,6.2,1.2c2.1,1.1,4.2,2.2,6.5,3.4
		c1.6-0.6,3.3-1.4,5-2c-1.1-2.8-2.1-5.6-3.2-8.4c-0.2-0.4-0.3-1-0.6-1.2c-2.1-1.2-2.4-3.5-3.2-5.4c-0.6-1.4-1.1-2.9-1.7-4.3
		c-0.9-2.2-1.4-4.3,0.1-6.5c1-1.4,1.2-3,1-4.8c-0.2-2.7-0.1-5.5,0.5-8.2c0.7-3.1,0.5-6.4,1.6-9.5c1.4-4,3.4-7.6,7.6-9.4
		c1.3-0.6,2.6-1.2,4-1.6c1.1-0.3,2.3-0.2,3.5-0.3c0.1-0.1,0.2-0.1,0.3-0.2c2-4.1,5.5-5.3,9.8-5c4.3,0.3,6.5,2.6,6.5,6.9
		c0,0.5,0,0.9-0.1,1.5c1.1,1,2.2,1.9,3.3,2.8c2.5,2.1,3.9,4.8,4.6,7.9c0.7,3.2,0.9,6.4,0.7,9.6c-0.1,2-0.1,4-0.1,6.1
		c0,0.4,0.2,0.9,0.3,1.4c0.7-0.4,1.4-0.7,2.1-1c0.4,0.4,0.8,0.6,1,1c1.4,2.9,2,5.9-0.3,8.7c-0.4,0.5-0.6,1-0.8,1.5
		c-0.3,0.8-0.5,1.6-1,2.3c-0.5,0.6-1.3,1.1-2.2,1.8c0,0-0.5-0.1-0.9-0.1c-0.2,0.2-0.4,0.3-0.5,0.5c-0.4,1.2-0.9,2.5-1.1,3.8
		c-0.3,1.8-0.8,3.4-1.4,5.1c-1.2,3.3-1.7,6.7-0.7,10.2c1.2,0.1,2.4,0.2,3.8,0.2c0.2-0.4,0.3-1,0.7-1.4c1.1-1.5,2.7-2,4.4-1.5
		c1.4,0.4,2.7,1,4,1.5c2.4-1.2,4.7-2.4,7-3.6c1.7-0.9,3.6-1.2,5.6-1.1c2,0.1,2.7,0.7,3.3,2.6c0.2,0.7,0.3,1.4,0.5,2.1
		c0.5,1.4,0.9,3,1.8,4.3c1.3,1.9,1.7,3.9,1.9,6c0.4,3.3,0.6,6.6,1,10.1c0.7,0.2,1.4,0.3,2,0.5c1.9,0.4,3.7,0.9,5.6,1.3
		c5.4,1.1,12,9.9,11.6,15c-0.1,2.2,0.3,4.3,0.8,6.4c0.6,2.9,1,5.9,2.2,8.6c-0.1,2.1-0.2,4.3-0.4,6.4c-0.2,1.3-0.7,2.5-1.1,3.8
		c-0.2,0.7,0.2,1.4,0.7,1.4c3.9,0.3,4.9,2.8,4.7,6.3c0.6,0.7,1.3,1.4,1.9,2c24.3,23.8,48.6,47.7,72.9,71.5c15,14.7,30,29.4,45,44.1
		c0.8,0.8,1.7,1.7,2.4,2.6c0.2,0.3,0.2,0.9,0,1.3c-0.3,0.6-1,0.8-1.5,0.4c-0.8-0.5-1.5-1.1-2.2-1.8c-5.1-5-10.2-10-15.3-15.1
		c-34.5-33.9-69.1-67.7-103.6-101.6c-0.9-0.9-1.7-2.1-3.1-2.3c-2.3-0.5-3.4-2-3.6-4.3c-0.8,0.2-1.4,0.3-2.1,0.5
		c0.1-0.9,0.3-1.8,0.4-2.8c-5.6-4.5-10.4-9.7-14.5-15.2c-1.4,0.1-2.6,0.3-3.8,0.2c-3.1-0.1-5.1-1.9-5.3-5.1c0-0.6,0-1.2,0-1.8
		c-2.2-1-4.3-1.8-6.3-2.8c-2-0.9-4-1.5-6.1-1.9c-0.5-0.1-1.2-0.4-1.6,0.6c2.3,4.4,5.1,8.7,8.6,12.4c0.8,0.9,1.7,1.7,2.4,2.6
		c2.5,3.6,6,6.1,9.7,8.2c1.7,1,3.4,2.3,5.1,3.2c2,1,4.1,1.9,6.2,2.6c0.7,0.3,1.7,0.2,2.5,0.1c0.9-0.1,1.9-0.4,2.8-0.6
		c-0.2,0.9-0.5,1.8-1.4,2.4c-1,0.6-2.1,0.7-3.1,0.4c-1.9-0.5-3.9-1.1-5.7-1.9c-2.1-0.9-4-2.1-6-3.2c-1.3-0.8-2.6-1.6-3.9-2.4
		c-1,0.6-0.6,1.4-0.7,2c0,0.7-0.1,1.5,0.1,2.1c0.7,3.3,0.3,6.7,1.2,9.9c0.2,0.9,0,1.9-0.2,2.8c-0.4,2.3-1,4.7-1.4,7
		c-0.2,1.1-0.4,2.1-0.4,3.2c-0.1,3-0.6,5.9-1.3,8.8c-0.4,1.6-0.6,3.3-1,4.9c-0.7,2.6-0.4,5.5-1.8,8c-0.4,0.7-0.3,1.6-0.2,2.5
		c0.1,2.6,0.3,5.2,0.4,7.9c0,0.5,0.1,1,0,1.4c-0.3,1.4,0.2,2.5,0.7,3.8c1.2,3,2.7,5.8,3.4,9c1,4.9,2.8,9.6,4.6,14.3
		c1.7,4.4,3.2,9,4.9,13.5c1.5,4.2,3.1,8.5,4.7,12.7c0.2,0.6,0.6,1.1,0.6,1.7c0.2,4.6,1.7,8.9,3.1,13.2c2.5,7.5,4,15.2,3.4,23.2
		c-0.1,1.9,0,3.8,0.2,5.7c0.7,6,0.6,11.9,0.3,17.9c-0.1,3.4-1,6.8-1.6,10.3c-0.2,1.5-0.5,3.1-0.7,4.6c-0.1,0.4-0.2,0.8-0.1,1
		c1.4,1.8,0.5,3.7,0.3,5.5c-0.3,4.5-0.6,9.1-0.8,13.6c0,0.6,0.1,1.2-0.1,1.8c-1,4,0.4,7.8,1.1,11.6c0.2,1.1,0.5,2.1,0.9,3.1
		c2.5,7.1,3.8,14.5,5,22c0.2,1.2,0.3,2.4,0.3,3.6c0,4.5,0,9.1,0,13.6c0,1.7-0.3,3.3-0.3,5c-0.1,3.2-0.3,6.4-0.4,9.7
		c-0.1,3.8-0.1,7.6-0.3,11.4c-0.4,5.4-0.7,10.7,0,16.1c0.2,1.3,0,2.6-0.1,3.9c0,0.9-0.2,1.9-0.3,3c2.4,1.1,3.2,3.1,3.5,5.4
		c0.2,2,1.3,3.6,2.8,4.8c0.6,0.5,1.3,1,2,1.6c1.8,1.4,3.1,3.2,3.9,5.4c1.1,3.1,2.7,6,4.9,8.6c2.2,2.5,4.1,5.3,6,8
		c1,1.5,1.5,3.3,1.2,5.1c-0.2,1.4-0.9,2.6-2.4,3.3c-1.4,0.6-2.7,1.6-4,2.4c-1.1,0.7-2.3,1.2-3.7,1.2c-1.8,0.1-3.6,0.3-5.4,0.4
		c-3.6,0.3-7.2-0.4-10.6-1.3c-3.9-1-6-4.6-5.6-8.8c0.1-0.4,0-0.9-0.1-1.3c-0.3-0.2-0.5-0.5-0.7-0.5c-4.1,0.2-7-1.7-9-5.2
		c-0.4-0.6-0.8-1.2-1.3-1.7c-1.3-1.4-1.6-3-0.9-4.6c1.2-2.8,1.5-5.8,2.2-8.6c0.7-2.9,0.9-5.9,1.3-8.8c0.1-0.7,0-1.5,0.9-1.8
		c0.6,0,0.7,0.6,0.7,1c0.2,4.4,0,8.8-1.7,13c-0.5,1.3-0.9,2.7-1.2,4.1c-0.2,0.9-0.3,2.1,0.1,2.8c1.3,2.3,2.3,4.9,4.7,6.5
		c0.7,0.4,1.5,0.7,2.3,0.9c0.6,0.2,1.2,0.2,1.7,0.4c2.2,0.8,3,1.2,2.8,3.8c-0.1,1.6,0,3,1.2,4.3c1.3,1.5,2.8,2.7,4.7,2.9
		c2,0.3,4,0.4,6,0.4c1.7,0,3.3-0.3,5-0.3C787.1,538,790.2,536.6,792.7,534.3L792.7,534.3z M724,85.5c0.2-0.2,0.5-0.4,0.7-0.7
		c0-0.1,0.1-0.2,0.1-0.3c0,0.1,0,0.2,0,0.3C724.6,85.1,724.3,85.3,724,85.5l-0.1,0.2L724,85.5z M721.1,76.9c0.2-0.1,0.4-0.2,0.5-0.4
		c0-0.1-0.1-0.3-0.2-0.5c-0.1,0.1-0.1,0.2-0.1,0.3C721.2,76.5,721.2,76.7,721.1,76.9c-0.2,0.3-0.5,0.6-0.8,0.8
		c-1.1-0.3-1.6-1-1.2-2.1c0.2-0.6,0.8-1.1,1.2-1.6l0.1,0.2l-0.2-0.1c0.3-0.7,0.5-1.3,0.7-2c0.1-0.2-0.1-0.6-0.2-0.9
		c-0.4,0.6-0.8,1.2-1.6,2.3c0-1.3-0.1-2,0-2.6c0.2-0.8,0.6-1.5,0.9-2.3c0.5-1.3,0.7-2.6-0.2-4.2c-0.5,1.7-0.8,3.1-1.2,4.5
		c0-1.6-2-2.5-1.3-4.3c0,0-0.3-0.2-0.4-0.3c-0.8-0.1-0.8,1.5-1.8,0.7c0.1-0.3,0.1-0.7,0.2-1c0.5-0.6,1-1.2,1.6-1.9
		c0.6,0.5,1.1,0.9,1.6,1.4c0.8-1.4-0.1-2.3-0.9-3.1c-0.8-0.8-1.4-1.9-2.9-1.5c0.2,1.9,0.4,3.6,0.6,5.3c-0.7-0.1-1.4-0.2-2.1-0.4
		c0.1-0.8,0.2-1.5,0.3-2.2c-0.5,0.1-0.8,0.2-1.2,0.3c-0.2-1.4,1.1-2,1.5-3c0.2-0.6,0.3-1.1-0.5-1.6c-0.6,0.8-1.1,1.6-1.7,2.5
		c-0.2-0.5-0.5-1-0.7-1.5c0-0.8,0-1.6-0.1-2.9c-0.6,0.7-1,1-1.1,1.3c-0.3,1.2-0.6,2.4-0.8,3.7c-0.2,0.5-0.5,1-0.7,1.5
		c-0.8,0.9-1.5,1.8-2.4,2.6c-0.9,0.9-2,1.1-3.3,0.2c0-1.5,0-3,0-4.5c0-0.8,0.6-1.3,1.3-1.4c0.2,0,0.4,0.1,0.8,0.2
		c0.1,0.9,0.1,1.9,0.2,3.4c0.7-1.5,1.1-2.5,1.6-3.5c0.2,0.6,0.4,1.2,0.7,1.9c1.1-1.8,1.8-3.4,1.6-5.4c-0.7-0.2-1.3-0.3-2-0.5
		c-0.4,0.7-0.8,1.3-1.1,1.9c-1.6-2.3-1.6-2.3-3.5-1.6c-0.2,3.6-0.3,7.1-0.5,10.5c-1.5-0.2-2.9-0.3-4.1-0.5c-0.3-0.2-0.4-0.3-0.4-0.4
		c-1.5-2.5-3.3-4.9-2.9-8.1c0-0.3-0.1-0.7-0.4-1c-0.2-0.2-0.6-0.2-1-0.4c-0.7,1.5-0.1,2.9,0.4,4.2c0.5,1.2,0.9,2.4,0.6,3.8l0.1-0.1
		c-1.1-0.1-1.7-0.9-1.9-1.8c-0.3-1.1-0.4-2.3-0.6-3.4c-0.1-0.4-0.3-0.8-0.4-1.2c-0.4,0.1-0.7,0.1-0.8,0.2c-0.4,0.4-0.8,0.8-1.3,1.2
		c-1.5,1.2-1.5,1.9,0,2.9c0,0.2,0,0.4,0,0.6c0,0.1,0.1,0.2,0.2,0.3c0.1-0.2,0.3-0.4,0.2-0.5c-0.1-0.1-0.3-0.2-0.5-0.3
		c0-1-0.1-2-0.1-3c1.3,1.6,1.7,3.5,1.8,5.4c0,0.2-0.4,0.5-0.6,0.7c-0.9-0.6-1.8-1.1-2.6-1.6c0-0.2,0-0.5,0-0.7
		c0-0.1-0.2-0.1-0.4-0.2c0,0.1,0,0.2,0,0.3c0.1,0.2,0.3,0.3,0.5,0.5c0.1,0.4,0.3,0.9,0.4,1.3c0.1,0.4,1,0.7,0.2,1.5
		c-1-0.9-2-1.8-3-2.7c-0.5,1.5-1,2.7-1.5,4.2c0.5,0.5,1.1,1,1.7,1.5l0-0.1c-0.6,0.2-1.3,0.4-1.8,0.5c0.1,1.1,0.1,2.1,0.2,3.1
		l0.1-0.1c-0.4-0.1-0.6-0.7-1.2-0.2c0.2,0.5,0.4,1.1,0.6,1.6c0.2,0.6,0.4,1.1,0.7,1.7c0.2,0.5-0.2,1.2,0.4,1.5
		c0.4-0.1,0.6-0.2,1-0.3c0.1,1.1,0.2,2,0.4,3.4c-0.2,0.1-0.7,0.3-1,0.6c-1,0.7-1.2,1.7-1.3,2.8c-0.1,3-0.1,5.9,0.2,8.9
		c0.2,1.6,0.5,3,1.1,4.5c0.8,2,1.5,4,2,6.1c1.1,4.5,2.8,8.6,6.1,11.8c-0.1,0.5-0.2,1-0.3,1.6c1-0.2,1.7-0.4,2.5-0.4
		c0.8,0,1.6,0.2,2.6,0.3c1.6,2.4,4.1,2.7,6.8,2.1c1.3-0.3,2.6-0.6,3.8-1.1c2.6-1.2,5.1-2.6,6.5-5.3c0.8-1.6,1.7-3.2,2.2-4.8
		c1-2.9,1.7-5.9,2.5-8.9c0.4-1.6,0.7-3.3,1.4-4.8c1.1-2.4,1-4.9,0.5-7.3c-0.3-1.4-0.6-2.8-0.6-4.2c0-1.3-0.2-2.6-0.4-3.9
		C720.5,77.3,720.8,77.1,721.1,76.9z M683.8,98.5c-0.1-0.3-0.1-0.5-0.1-0.3C683.5,98,683.7,98.2,683.8,98.5c0.1,0.5,0.2,1,0.3,1.9
		C684.6,99.4,684.6,98.8,683.8,98.5z M683.9,79l0.1,0.2L683.9,79c-0.2-0.2-0.3-0.6-0.5-0.8c-0.2-0.2-0.5-0.2-0.8-0.2
		c0,0-0.2,0.2-0.1,0.3c0.1,0.3,0.2,0.7,0.4,0.8C683.2,79.1,683.5,79,683.9,79z M666.7,157.8c-0.1,0.8-0.9,1.5-0.3,2.6
		C667.3,159.5,667.7,158.7,666.7,157.8c-0.4-1.6-1.4-2.5-3.2-3c-0.4,0.9-0.7,1.7-1.1,2.6C663.9,158.2,665.3,157.8,666.7,157.8z
		 M661.6,160.7c0.8,1.1,1.8,0.3,2.7,0.4C663.4,161,662.4,160.9,661.6,160.7c-0.5-0.9-1.2-1.8-1.3-2.8c-0.2-1.1,0.1-2.2,0.1-3.5
		c-2.7,1-2.3,2.9-2.1,4.7C659.4,159.9,660.3,160.9,661.6,160.7z M765.7,174.2C765.6,174.2,765.8,174.4,765.7,174.2
		c-1.6-1.7-2.7-3.8-4.8-5.1c-0.5-0.3-0.6-0.9-1-1.4c-0.3-0.4-0.6-0.8-0.9-1c-0.5-0.4-0.8-0.1-1.1,0.4c1.5,2.1,5.2,5.9,6.8,7.1
		C764.9,174.3,765.3,174.2,765.7,174.2z M709.5,53.2L709.5,53.2c0.9,0.3,1.9,0.7,2.9,1c0.1,0,0.4-0.2,0.7-0.3
		c-0.5-0.9-1-1.8-1.6-2.7c-0.3-0.4-0.7-0.7-1.1-0.8c-3.3-0.9-6.6-1.5-9.3,1.5c-0.1,0.1,0,0.4,0,0.7c0.8,0.1,1.6,0.1,2.2,0.2
		c1.4-0.6,1.9-2.5,3.7-2.1c-0.4,0.8-1.5,0.9-1.4,2c0.4,0,0.8,0,1.3,0.1l-0.1-0.1C707.5,53.8,708.5,53.5,709.5,53.2z M746.9,126.3
		c0.8,0.7,0.7,1.7,0.8,2.7c0.2,2.1,0.2,4.3,0.7,6.4c0.6,2.5,0.6,5,0.6,7.5c0,1.1,0,2.2,0,3.2c0.2,2.7,0.1,5.5,1.5,8.8
		c-0.1-1.8,0-2.9-0.2-3.9c-0.4-1.6-0.4-3.3-0.3-4.9c0.1-3,0-6-0.2-8.9c-0.1-2-0.8-4-0.8-6c-0.1-4.8-1.2-9.2-3.4-13.4
		c-0.7-1.3-1-2.9-1.9-4.1c-4.3-0.1-8.7,1.7-11.8,4.8c1.9,2.6,3.1,5.8,6.3,7.4c0.2,0.1,0.4,0.2,0.5,0.2c1.5-0.4,2.9-0.7,4.2-1.2
		c0.6-0.2,1.2-0.6,1.8-0.9c-0.6-1.3-1-2.4-1.5-3.5c-0.4-1-0.9-1.9-1.3-2.9c-0.4-1-1.4-1.9-0.9-3.3c1.3,0.4,1.8,1.3,2.3,2.2
		C744.9,119.6,746.2,122.9,746.9,126.3c-0.3,0-0.7-0.3-0.9-0.2c-2,0.7-4.1,1-6.1,2.1c-0.3,2.5-0.2,5,0.2,7.4
		c2.2,0.5,4.4,1.6,6.8,0.3c-0.1-1.2-0.2-2.4-0.3-3.5C746.2,130.3,746.1,128.3,746.9,126.3z M720.4,146.4c0,0.1,0,0.2,0.1,0.3
		c0,0,0.1,0,0.2,0.1C720.5,146.6,720.4,146.6,720.4,146.4c-0.5-1.4-2-1.4-3.1-2.1c-2.5-1.6-4.7-3.6-5.6-6.5c0.3,0.2,0.6,0.3,0.9,0.5
		c2.6,2.5,5.5,4.5,8.9,5.8c1,0.4,1.9,0.9,2.9,1.4c0.3,0.2,0.5,0.5,0.8,0.7c0,0.9,0,1.6,0,2.5c3.4,1.8,7,2.5,10.4,4
		c3.4,1.5,6.7,3,10.1,4.6c0.9-0.8,1.6-1.5,2.4-2.3c-0.2-2.2-0.5-4.3-0.7-6.4c-3.3-2.1-5.6-4.9-7.8-7.9c-1.8-2.5-2.3-5.1-1.9-8.1
		c0.1-0.8,0.2-1.6,0.3-2.5c0.1-1.2-0.3-2.2-1.4-2.7c-1.4-0.7-2.1-1.9-3-3c-1.3-1.8-2.6-3.7-4-5.5c-1.1-1.5-2.6-2.1-4.4-1.9
		c-1.7,0.2-2.6,1.5-2,3.1c0.4,1,0.9,1.9,1.5,2.8c0.9,1.5,1.2,3,1.1,4.9c-1.3-0.8-1.8-1.9-2.2-3c-0.5-1.3-1.1-2.6-1.7-3.9
		c-0.3-0.5-0.6-1.1-1.1-1.3c-0.5-0.3-1.2-0.4-1.6-0.2c-0.4,0.2-0.9,0.8-1,1.3c-0.2,1.9-0.1,3.8,0.8,5.6c1,2,2,4.1,2.9,6.1
		c0.2,0.5,0.6,1-0.1,1.6c-3.2-3-4.2-7.3-6.6-11c-0.6,0.2-1.1,0.3-1.4,0.6c-1.7,1.2-1.9,1.7-1.1,3.6c0.6,1.5,1.4,3,2.2,4.5
		c0.3,0.5,0.6,1.1,0.1,1.8c-1.3-0.6-2.1-1.8-2.8-3c-0.8-1.3-0.5-3-1.8-4.2c-1.1,0.2-1.9,0.8-2.4,2c0.7,0.7,1.4,1.5,2.2,2.4
		c-0.3,0.8-0.5,1.7-0.7,2.3c0.6,1.6,1.1,2.9,1.6,4.2c-0.5-0.3-1-0.7-1.5-0.9c-0.6-0.2-0.7-1.4-1.8-0.9c0.9,1.6,1.7,3.2,2.6,4.9
		c0,0-0.2,0.1-0.5,0.3c-1.2-1.1-2.5-2.3-3.8-3.6c-0.5,0.4-0.9,0.6-1.2,0.9c-0.5,0.4-0.9,0.8-1.5,0.2c0.1-0.2,0.3-0.4,0.4-0.6
		c1-1.9,1.8-3.8,3.4-5.3c0.2-0.2,0.1-0.8,0.2-1.7c-1.8,1.1-2.7,2.4-3.7,3.7c-0.4,0.6-0.6,1.3-1.5,1.4c0.6-1.3,0.9-2.8,1.7-3.9
		c1.2-1.6,1.8-3.3,1.9-5.3c0-0.2-0.1-0.4-0.2-0.8c-0.7-0.5-1.5-1-2.2-1.6c-1.2,1-1.2,2.4-1.7,3.6c-0.7,1.8-1.8,3.1-3.7,3.9
		c1-2.9,3-5.3,3.4-8.4c-0.6-0.6-1.1-1.2-1.8-1.6c-0.4-0.3-1.1-0.2-1.6-0.2c-1,2-1.8,3.8-2.7,5.6c-1.9,3.6-2.2,3.9-4.1,4.8
		c0.3-0.9,0.5-1.5,0.8-2.1c0.8-1.6,1.5-3.2,2.4-4.8c1-1.9,1.1-3.9,1-5.9c0-0.8-0.4-1.4-1.1-1.7c-0.8-0.3-1.4,0.2-1.9,0.7
		c-0.3,0.3-0.6,0.7-0.8,1.2c-0.6,1.3-1.1,2.6-1.6,3.9c-0.6,1.3-1.1,2.7-2.8,3l0.1,0.1c0.5-2.3,0.9-4.6,2.4-6.6
		c0.4-0.5,0.6-1.3,0.8-2c0.2-0.8-0.1-1.4-0.7-1.9c-0.8-0.5-1.7-0.9-2.7-0.6c-1.3,0.4-2.4,0.9-3.2,2.1c-1.3,1.9-2.6,3.7-3.9,5.5
		c-0.8,1.1-1.4,2.2-2.7,2.8c-1.1,0.5-1.5,1.5-1.4,2.7c0.1,1.3,0.2,2.6,0.2,3.9c0.1,1.9,0,3.9-1.1,5.5c-1.9,2.9-3.9,5.7-6.8,7.8
		c-0.7,0.5-1.3,1-2,1.5c-0.2,2.2-0.6,4.3-0.4,6.5c0.7,0.6,1.4,1.3,2.1,1.8c0.4-0.1,0.6-0.1,0.8-0.2c5.5-2.5,11-5.1,16.8-6.9
		c0.3-0.1,0.7-0.2,1-0.4c0.7-0.4,1.4-0.8,2.2-1.3c-0.7-2,0.3-3,1.9-3.7c0.7-0.3,1.3-0.6,2-0.9c2.3-0.8,4.3-2.1,6.1-3.6
		c1.2-0.9,2.4-1.9,3.6-2.9c-1.2,3.1-3.4,5.4-6.3,7c-1,0.6-2.2,0.8-3,2.2c1.2,0,1.9-0.5,2.7-0.9c0.7-0.4,1.5-0.8,2.2-1.2
		c0.8-0.5,1.6-1,2.5-1.5c0.8-0.4,1.4-1.2,2.8-1c-0.8,0.8-1.2,1.5-1.8,2c-2.8,2.3-5.9,4.1-9.1,5.7c-0.8,0.4-1.7,0.9-2.4,1.5
		c-0.5,0.4-0.5,1.4-1,1.7c-0.6,0.4-1.4,0.4-1.6,1.7c0.6,1.9,1.4,4.1,2.2,6.4c0.5,1.6,1.5,2.6,3,3.2c4,1.5,8.2,2.6,12.4,3.3
		c0.4,0.1,0.9-0.1,1.3-0.2c-0.4-2.3-0.4-4.3,1-6.6c0.2,2.5,0.3,4.6,0.5,6.6c0.4,0,0.7,0.1,0.9,0.1c5.7-0.9,10.2-3.9,14-8
		c0.5-0.5,0.9-1.2,1-1.8c0.3-1.6,0.7-3.3,0-4.8c-2.5-1.4-5-2.6-7.3-4.1c-1.9-1.2-3.6-2.7-5.4-4.1c-0.3-0.3-0.7-0.7-0.1-1.2
		c2.4,1.3,4.8,2.7,7.2,4C718.8,146.1,719.5,146.7,720.4,146.4z M672.3,529.9c3.1-0.6,4.5-2.8,5.2-5.7c0.5-2.4,0.7-4.7,0.4-7.1
		c-0.6-1.1-1.5-2-1.8-3.1c-0.4-1.2-0.3-2.6-0.4-4c-1.8,0.1-2.8-1.1-3.6-2.5c-1-1.6-2.1-3.1-3.2-4.7c-2.9,0-5.6,0-8.5,0
		c-1.3,2.3-1.3,5-2.6,7.6c1.3,0.1,2.4,0.1,3.4,0.2c2.3,0.2,4.5,0.4,6.6,1.3c0.8,0.3,1.5,0.8,1.4,2c-0.4,0-0.9,0.1-1.3,0
		c-1.5-0.3-3-0.8-4.5-0.9c-2.3-0.2-4.5-0.1-6.8,0c-1.5,0.1-1.9,0.7-2.3,2.6c1.1-0.1,2.1-0.3,3.2-0.4c2.4-0.2,4.8-0.4,7.1-0.3
		c1.1,0,2.3,0.5,3.4,0.9c0.2,0.1,0.4,0.6,0.4,0.9c-0.1,0.3-0.4,0.6-0.7,0.7c-0.7,0.1-1.4,0.1-2.1,0.1c-3.8,0.1-7.6,0.2-11.5,0.3
		c-0.8,0-1.4,0.4-0.9,1.6c3.4-1.7,6.9-1.1,10.5-0.9c1.1,0.1,2.2,0.3,2.5,1.6c-0.3,1-1.1,1.2-2,1.2c-3.3,0-6.7,0-10,0
		c-0.8,0-1.6,0-2.2,0c-3,2.8-4.5,6.4-6.6,9.6c-0.2,0.4-0.3,0.9-0.4,1.4c-0.2,2,0.4,5.4,1.3,7.6c2.3-1.2,4.7-1.5,6.7-1.8
		c1.5,0.6,2.6,1.2,3.7,1.6c1.2,0.4,2.5,0.3,3.4,1.5c-1,1.1-2,0.5-2.7,0.2c-3.5-1.3-7-1.1-10.7,0.4c0.8,0.3,1.4,0.7,2,0.8
		c1.4,0.3,2.8,0.5,4.2,0.7c4.4,0.7,8.5-0.3,12.7-1.3c0.3-0.1,0.6-0.3,0.9-0.5c1-0.9,2-1.7,2.9-2.6c1-0.8,1.4-1.9,1.3-3.2
		c-0.1-1.3-0.2-2.6-0.3-3.9c0.6-0.7,1.1-1.3,1.6-1.9L672.3,529.9z M730.4,265.4L730.4,265.4c0,1.4-1.1,2.3-1.5,3.5
		c-0.2,0.6-0.9,1.2-0.2,2.1c0.8-0.1,1.8-0.1,2.7-0.3c5.7-1.2,11.4-2.5,17.1-3.7c0.4-0.1,0.8-0.4,1.1-0.6c-1.4-4.4-2.7-8.6-4.2-12.8
		c-0.3-0.8-0.7-1.5-1.3-2.1c-1.6-1.6-2.4-3.5-3.1-5.6c-1.7-5.3-1.4-10.6-0.2-15.9c0.5-2,1.2-4,0.7-6c-0.2-0.9,0-1.6,0.1-2.4
		c0.6-3.5,1.1-7.1,1.5-10.6c0.1-0.8,0.3-1.7-0.9-2.4c-0.9,0.3-2.1,0.5-3.2,0.9c-4.9,1.8-10.1,1.4-15.2,1.8c-2.4-0.8-4.7-0.3-7.1-0.1
		c-3.9,0.4-7.8,1.1-11.8,0.8c-1.9-0.1-3.8-0.3-5.7-0.4c-7.7-0.4-15.5-1-23-3c-0.5-0.1-1.1,0.1-1.6,0.2c0.5,2.7,0.9,5.2,1.4,7.6
		c0.8,3.5,1.6,7,2.4,10.5c1,4.5,1,9,1,13.5c0.1,3.9-0.9,7.6-2.5,11c-1,2.1-2.2,4.2-3.3,6.4c-1.3,2.5-2.6,5.1-3.9,7.6
		c-0.4,0.7-0.5,1.5-0.8,2.3c0.5,0.1,0.9,0.3,1.2,0.3c5.9,0.3,11.6,1.5,17.3,2.5c2.7,0.5,5.4,0.8,8.1,1.2c8.4,1.1,16.7,0.1,25-0.4
		c1.9-0.1,3.8-0.3,5.6-0.5C727.6,269,728.4,266.8,730.4,265.4z M714.7,314.2l-0.1-0.1c0.1,0.3,0,0.8,0.2,1c1.2,1.8,1.8,3.9,2.2,6
		c0.3,1.5,0.9,2.9,1.3,4.4c2.7,0.9,5.4,1.5,8.2,1.5c6.4,0,12.9,0,19.3,0c7.1,0,13.1-2.6,18.5-7.1c-0.1-3.4-1.1-6.5-1.8-9.6
		c-0.7-3.1-1.5-6.2-2.2-9.4c-0.5-2.3-1-4.7-1.2-7c-0.3-2.6-2-4.5-2.7-6.9c-0.6-1.9-1.3-3.8-2-5.8c-0.5-1.5-1.1-3-1.5-4.6
		c-0.5-2.3-1.2-4.6-2.2-6.7c-1.3-0.5-2.5-0.1-3.6,0.1c-2,0.4-3.9,1-5.9,1.4c-7.5,1.6-15,3.1-22.7,2.7c-0.8,0-1.7,0.2-2.5,0.3
		c-5.9,0.6-11.9,1-17.8,0.5c-4.2-0.4-8.3-1.2-12.4-1.9c-4.5-0.7-8.8-2.1-13.4-1.5c-0.6,0.1-1.2-0.2-1.8-0.2c-0.7,0-1.4,0-2.2,0
		c-0.1,1.3-0.3,2.5-0.3,3.6c-0.1,1.3-0.4,2.5-0.2,4c3.8,0.3,7.5-0.3,11,1.3c-3.7,0-7.3,0-11.1,0c-0.5,2.3-0.6,4.4-1,6.5
		c-0.5,3.1-0.5,6.4-2.3,9.3c-0.3,0.5-0.3,1.1-0.4,1.7c-0.7,8.3-1.5,16.6-2.2,25c-0.1,0.7,0.1,1.4,0.1,2.1c0.7,0.2,1.2,0.5,1.8,0.7
		c3.4,0.7,6.7,1.6,10.2,1.7c4,0.2,8.1,0.8,12.1,1.2c4,0.5,7.8,0,11.7-1.1c3-0.9,6-1.5,8.9-2.9c0.8-3.3,1.5-6.7,2.3-10.1
		c1.2-0.6,2.2-1.1,3.2-1.5C713,313.4,713.8,313.8,714.7,314.2z M741.1,405.7c2.9,1.2,3.7,3.7,3.9,6.4c0.2,2.5,0.3,5,0.1,7.5
		c-0.2,2.9-0.3,5.7,0.2,8.6c0.1,0.7,0.1,1.4,0.2,2.1c0.7,7,1.9,13.9,4,20.7c1.8,5.5,4.1,11,4.8,16.8c0.4,3.4,1.4,6.8,1.7,10.2
		c0.5,5.3,1.7,10.4,3,15.4c0.1,0.6,0.2,1.4,0.6,1.6c1,0.5,0.9,1.3,1.1,2.1c0.2,0.7,0.4,1.5,0.6,2.5c0.3-0.5,0.5-0.7,0.5-0.9
		c0.3-2.3,1.8-3.2,3.8-3.6c0.8-0.2,1.6-0.3,2.5-0.4c0.7-0.1,1.4-0.2,2-0.3c0.3-2.8,0.4-5.4,0.1-8c-0.3-2.6-0.4-5.2-0.4-7.9
		c0-2.5,0.4-5,0.5-7.5c0.2-8.6,0.4-17.2,0.6-25.8c0.1-4.3,0.1-8.6,0.1-12.9c0-1.5,0-3.1-0.2-4.6c-0.7-4.4-1.3-8.8-2.4-13
		c-1.1-4.2-2-8.6-3.9-12.6c-0.3-0.7-0.5-1.6-0.5-2.4c-0.1-3.1-0.2-6.2-0.1-9.3c0.4-6.9,1.2-13.8,0.8-20.7c-0.1-1.9,0-3.8,0-5.7
		c0-1.1,0.1-2.2,0.4-3.2c0.7-2,0.7-4,0.6-6c-0.1-5.3-0.2-10.5-0.4-15.8c-0.2-4.6-0.5-9.3-0.7-13.9c0-0.4-0.2-0.9-0.3-1.6
		c-1,0.8-1.8,1.4-2.7,2c-0.9,0.6-1.8,1.3-2.8,1.5c-2.8,0.6-5.6,1.2-8.4,1.5c-5.6,0.5-11.2,0.8-16.8,1.1c-4.7,0.2-9.3,0.1-13.8-1.2
		c-0.3-0.1-0.6,0-1.1,0c2.4,6.7,4.1,13.6,7.4,19.9c1,2,1.8,4.2,2.6,6.3c3.8,9.9,6.1,20.1,6.6,30.7c0.2,3.4,0.8,6.6,2.2,9.7
		c0.6,1.2,1.1,2.4,1.6,3.6C740.4,400.7,741.5,403,741.1,405.7z M661.8,327.8c-0.1,1.4-0.2,2.2-0.2,3c0,4.8,0,9.6,0.2,14.3
		c0.1,3.2,0.4,6.4,0.7,9.6c0.4,5,0.9,10,1.4,15c0.2,2.7,0.2,5.5,0.7,8.2c0.9,4.6,0.9,9.1-0.4,13.5c-1.3,4.6-1,9.2-1.5,13.8
		c0.6,2-0.1,3.8-0.6,5.6c-0.5,1.8-1.2,3.6-1.8,5.4c-0.4,1.2-0.9,2.5-1.1,3.8c-0.5,4.5-1.1,9-1.3,13.5c-0.3,8,0.4,16,1.6,23.9
		c0.8,5.6,1.7,11.1,2.1,16.7c0.4,5,0.9,10,1.3,15c0.3,3.2,0.5,6.4,0.7,9.6c0,0.6,0.2,1.1,0.3,1.8c1,0,1.8,0.1,2.6,0
		c1.5-0.1,2.5,0.5,3.5,1.5c0.1,0.1,0.3,0,0.5,0c0.1-0.4,0.1-0.7,0.2-1.1c0.1-0.3,0.2-0.5,0.4-1.1c0.5,1.3,0.9,2.2,1.4,3.5
		c0.6-5.5,1.2-10.6,1.8-15.7c0.7-7.2,1.4-14.5,2.1-21.7c0.4-4.2,0.9-8.3,2.6-12.2c2.1-5,3-10.3,3.2-15.7c0.2-4.5,0.5-9.1,1-13.6
		c0.5-5,2.3-9.7,3.5-14.6c1.4-6,3-12,3.5-18.3c0.2-2.7,0.4-5.5,0.7-8.2c1-7.4,3-14.5,5.5-21.5c1.8-5.1,3.4-10.2,4.6-15.4
		c1.4-5.9,2.9-11.8,4.3-17.7c0.1-0.5,0.1-1.1,0.1-1.7c-3.3,1.1-6.3,2.1-9.4,3c-3.1,0.9-6.3,1.6-9.5,1.2c-2.6-0.4-5.2-0.4-7.8-0.9
		c-1.8-0.4-3.5-0.4-5.3-0.4c-2.5,0-5-0.1-7.4-1C665,328.7,663.6,328.4,661.8,327.8z M685.3,154.2c-0.5,0.3-0.6,0.4-0.7,0.5
		c-0.4,0.7-0.9,1.4-1.3,2.1c-3.1,5.1-6.6,9.9-10.9,14.1c-2.3,2.2-4.6,4.5-6,8c0.2,1.5,0.4,3.4,0.8,5.2c0.5,2.2,1.2,4.4,1.7,6.6
		c1.3,5.5,3.4,10.7,5.1,16c0.1,0.2,0.3,0.4,0.6,0.7c1.1,0.2,2.4,0.5,3.7,0.7c8.9,1.4,17.8,1.9,26.7,2c6.2,0.1,12.4-0.5,18.6-0.8
		c3-0.1,5.9-0.4,8.9-0.5c3.6-0.1,7-1.1,10.3-1.6c0.5-3.4,0.8-6.6,1.4-9.8c0.6-3.1,0.8-6.1,0.5-9.3c-0.2-2-0.1-4,0.4-6
		c0.4-1.5,0.6-3,1-4.7c-7.2-6.9-13.7-14.3-17.9-23.4c-1-0.2-1.8-0.3-2.8-0.5c0,0.8-0.1,1.4,0,2c0.2,1.6-0.5,2.7-1.4,3.9
		c-2.1,2.5-4.7,4.4-7.4,6.1c-1,0.6-2,1.5-3.1,1.7c-2.9,0.5-5.9,1-8.9,0.6c-5.8-0.9-11.4-2.3-16.5-5.6
		C687.3,159.6,686.3,157.1,685.3,154.2z M643.1,162c1.5-0.7,1.8-1.8,2.3-2.7c1.5-2.8,3.6-5,6.3-6.6c1.9-1.2,3.8-2.4,6-3.1
		c1.2-0.4,2.3-1.2,3.5-1.8c0.3-3.2,0.9-6.2,0.9-9.4c-3.3,0-6.1,1-8.9,1.7c-0.3,0.1-0.7,0.3-0.9,0.5c-2.8,2.6-5.6,5.2-5.7,9.4
		c0,0.5-0.2,0.9-0.3,1.4C645.2,154.8,644.2,158.2,643.1,162z M752,140.1c-0.4,3.4,0.3,6.4,0.9,9.6c1.1,0.6,2.1,1.4,3.2,1.7
		c2.3,0.6,4.3,2,6.3,3.2c2.6,1.6,4.7,3.6,6.1,6.4c0.5,0.9,0.7,2,2,2.5c0-0.4,0.2-0.8,0.1-1c-1.2-1.8-1.2-3.8-1.6-5.8
		c-0.4-2.1-2-3.8-1.3-6.1c0.1-0.2-0.1-0.5-0.2-0.7c-1.4-2.4-2.6-4.8-4.7-6.7c-0.6-0.5-1.3-1-2.1-1.3
		C757.8,141.1,755,140.4,752,140.1z M770.3,175.9c0.3-0.3,0.6-0.4,0.6-0.6c0.2-0.7,0.5-1.4,0.6-2.1c0.3-2.3,0.3-4.6-0.9-6.6
		c-2-3.2-4-6.4-7.1-8.8c-3.2-2.5-6.7-4-10.2-5.6c-0.2,0.4-0.4,0.6-0.4,0.8c0,0.3,0.1,0.7,0.2,1.1c0.5,0.1,0.9,0.2,1.4,0.3
		c2.7,0.7,3.5,1.8,3.4,4.6c0,0.9-0.2,1.9-0.3,2.6c3.5,3.5,6.9,6.9,10.3,10.4C768,173.7,769.1,174.8,770.3,175.9z M660.9,150.2
		c-1,0.5-1.5,0.8-2.1,1c-0.5,0.3-1.1,0.5-1.6,0.8c-5.3,2.3-9.7,5.5-12.6,10.6c-0.2,0.3-0.3,0.7-0.5,0.9c-2,2.1-2,4.7-1.7,7.6
		c5-3.7,9.8-7.2,14.6-10.7c-0.3-0.6-0.6-1.1-0.7-1.7c-0.2-0.6-0.3-1.2-0.3-1.7c-0.1-2.4,0.9-3.7,3.4-4.2c0.5-0.1,0.9-0.2,1.5-0.2
		C660.8,151.9,660.8,151.4,660.9,150.2z M667.5,134.3c2.2,1.2,4.2-0.1,6.4-0.4c0.2-2,0.4-3.8,0.5-5.7c0-1.6-0.3-2-1.9-2.6
		c-1.7-0.6-3.3-1.1-5-1.7c0-0.6-0.1-0.9,0-1.3c1-3.7,2.6-7.3,4.7-10.6c-1.9-0.2-2-0.2-2.5,0.9c-1,2.4-2,4.9-3.1,7.2
		c-0.8,1.7-1.2,3.3-1.3,5.2c-0.1,1.9-0.3,3.8-0.5,5.7c-0.7,4.5-1.1,9-0.9,13.5c0,0.4,0,1,0.9,0.9c0.5-1.6,0.2-3.2,0.3-4.8
		c0.1-1.8,0.1-3.6,0.2-5.3c0.1-1.6,0.6-3.3,0.7-4.9c0.2-3.5,0.2-3.5,1.2-5.3C668,128.3,666.9,131.3,667.5,134.3z M675.4,124.3
		c1.1-1.5,3.1-1.6,3.9-3.5c0.7-1.6,2-2.8,2.8-4.6c-2.8-2-5.4-3.6-8.6-4.2c-1.3,2.9-2.5,5.6-3.6,8.3c-0.3,0.6-0.4,1.3-0.6,2.1
		C671.4,123.1,673.2,123.6,675.4,124.3z M714.5,114.3c-0.9,0.8-1.5,1.4-2.2,1.9c-0.7,0.5-1.4,0.9-2.2,1.2c-0.6,0.3-1.3,0.6-2,0.9
		c-0.7,0.4-1.4,0.8-2.2,1.1c-0.8,0.3-1.6,0.4-2.4,0.5c-0.7,0.1-1.6-0.2-2.4,0.3c1.8,2.8,4.7,3.7,7.3,5.5c1.2-0.9,2.3-1.8,3.4-2.6
		c1.1-0.8,2.3-1.5,3.6-2.3C715.9,118.7,714.5,116.8,714.5,114.3z M672.8,137.3c-1.9-1.5-3.8,0-5.5-0.2c-0.7,3.4-0.7,3.6,0,5.5
		C669.7,141.7,671.5,140,672.8,137.3z M746.8,138.9c-1.9-0.1-3.8-1.2-5.6,0.3c1.4,3.1,3.1,4.4,6,5.2
		C747.1,142.7,747,140.9,746.8,138.9z M698.7,64.1c0.4-3.6-0.2-6.4-1.4-9.1c-1.2,0-1.2,0.8-1.3,1.5
		C695.6,59.3,696.3,61.7,698.7,64.1z M752.1,162.9c1.4-0.5,2.3-0.8,3-1c0.8-1.5,0.6-2.8,0.3-4c-0.2-0.8-0.7-1.5-1.8-1.2
		C753.8,159.8,753.8,160.2,752.1,162.9z M750.2,156.4c-2.2,1.2-3.6,2.5-3.3,5c0,0.1,0.3,0.2,0.4,0.3c0.2-0.7,0.3-1.3,0.4-1.9
		c1.1-0.1,2-0.2,2.9-0.3c0.2,0,0.3-0.3,0.7-0.6C751.1,158.1,750.7,157.3,750.2,156.4z M725.4,86c-0.8,1.1-1.2,1.7-1.6,2.3
		c0.4,0.9,0.7,1.7,1.9,2C726,88.9,726.2,87.8,725.4,86z M723.7,93.5c-1.5,0-2,0.9-2.2,2.1c0,0.3,0.4,0.6,0.7,1
		C723.5,95,723.5,95,723.7,93.5z M663.2,153c1.3-2.2,1.6-3.9,0.8-5.7C663.8,148.9,663.5,150.5,663.2,153z M681,89.5
		c-0.6,1.9-0.6,1.9,0.6,3.2C681.9,90.5,681.9,90.5,681,89.5z M700.4,55c-0.5-0.1-0.9-0.2-1.1-0.1c-0.6,0.6-0.5,1.3,0,2.4
		C699.8,56.4,700.1,55.7,700.4,55z M755.9,163.5c-0.4,1.2-0.2,1.8,0.5,2c0.2,0,0.5-0.1,0.6-0.2c0.1-0.1,0.3-0.5,0.2-0.6
		C756.8,164.3,756.4,164,755.9,163.5z M700.8,58.1c-0.1,0-0.2,0-0.3,0c0,0.4,0,0.7,0,1.1c0.1,0,0.2,0,0.3,0
		C700.8,58.8,700.8,58.4,700.8,58.1z M698.8,119.1c-0.1,0-0.2,0-0.3,0c0.1,0.2,0.1,0.4,0.2,0.4c0.1,0.1,0.3-0.1,0.5-0.1
		C699.1,119.4,699,119.3,698.8,119.1z M760.8,502.6c0,0.1-0.1,0.2-0.1,0.3c0,0,0.1,0.1,0.2,0.1c0-0.1,0.1-0.2,0.1-0.3
		C761,502.6,760.9,502.6,760.8,502.6z M681.8,87.2l-0.3,0.1l0.3,0.1L681.8,87.2z M724.2,91.6c0,0.2,0,0.4,0,0.6
		c0.1-0.1,0.2-0.2,0.2-0.3c0-0.1,0-0.2,0-0.3C724.4,91.6,724.3,91.7,724.2,91.6z M674.1,506.1l0.1-0.2l-0.2,0L674.1,506.1z"/>
	<path d="M313.8,512.8c1.3-0.2,2.6-0.3,3.9-0.5c1.2-0.1,2.4-0.3,3.6-0.3c0.7,0,1.4,0.2,1.8,0.9c0.2,0.5-0.2,1.1-1.1,1.5
		c-0.6,0.3-1.3,0.5-2.7,0.9c1.7,0,2.6,0,3.6,0c0.6,0,1.2,0.1,1.7,0.3c0.6,0.2,0.8,1.5,0.2,1.8c-0.7,0.4-1.5,0.8-2.3,0.9
		c-2.7,0.2-5.5,0.2-8.2,0.3c-0.7-1.4,0.9-1.6,1.1-2.4c0.2-0.1,0.5-0.2,0.3-0.1c0.1-0.2,0,0-0.2,0.2c-1.5-0.1-3-0.1-4.8-0.2
		c0.4-0.8,0.6-1.5,1.1-1.9c0.7-0.6,1.5-1.1,2.2-1.6L313.8,512.8z"/>
	<path d="M771.8,512.8c1.3-0.2,2.6-0.3,3.9-0.5c1.3-0.1,2.6-0.3,3.9-0.3c0.5,0,1.1,0.5,1.4,0.9c0.3,0.6-0.2,1.1-0.8,1.3
		c-0.7,0.3-1.5,0.6-3,1.1c1.6,0,2.5,0,3.5,0c0.6,0,1.2,0.1,1.7,0.3c0.6,0.2,0.8,1.5,0.2,1.8c-0.7,0.4-1.5,0.8-2.3,0.8
		c-2.7,0.2-5.5,0.2-8.2,0.3c-0.7-1.4,0.9-1.6,1.1-2.4c0.2-0.1,0.5-0.2,1.5-0.5c-0.9,0.3-1.1,0.3-1.2,0.4c-0.1,0-0.1,0.2-0.1,0.3
		c-1.5-0.1-3-0.1-4.9-0.2c0.5-0.8,0.7-1.5,1.1-1.9c0.7-0.6,1.5-1.1,2.3-1.6L771.8,512.8z"/>
	<path d="M311.1,509.9c2.5-0.6,5.1-1,7.7-1c0.7,0,1.4,0.2,2,0.3c0.3,1.1-0.3,1.5-1,1.7c-1.5,0.4-3,0.7-4.5,1.1
		c-0.6,0.1-1.2,0.2-1.5,0.8l0.1-0.1c-1.8-0.3-3.2,0.9-4.8,1.4c-0.5-1-0.2-1.8,0.4-2.6c0.5-0.6,1.1-1.2,1.7-1.8L311.1,509.9z"/>
	<path d="M772,512.7c-1.8-0.2-3.3,0.9-4.9,1.5c-0.5-1-0.2-1.9,0.4-2.6c0.5-0.6,1.1-1.2,1.7-1.8l-0.1,0.1c2.5-0.6,5.1-1,7.7-0.9
		c0.7,0,1.4,0.2,2,0.3c0.3,1.1-0.3,1.5-1,1.7c-1.5,0.4-3,0.7-4.5,1.1c-0.6,0.1-1.2,0.2-1.5,0.8L772,512.7z"/>
	<path d="M792.8,534.2c-0.9-0.1-1.9-0.1-2.8-0.3c-2.4-0.6-4.4,0-6.3,1.4c-0.8,0.5-1.6,1-2.4,1.5c-0.3,0.1-0.6,0.1-1,0.1
		c0.5-2,1.2-3.2,2.3-3.7c3-1.3,6.1-1.7,9.3-0.9C793,532.6,793,533.4,792.8,534.2L792.8,534.2z"/>
	<path d="M334.8,534.2c-0.9-0.1-1.9-0.1-2.8-0.3c-2.4-0.6-4.4,0-6.3,1.4c-0.8,0.5-1.6,1-2.4,1.5c-0.3,0.1-0.6,0.1-1,0.1
		c0.5-2,1.2-3.2,2.3-3.7c3-1.3,6.1-1.7,9.3-0.9C334.9,532.6,335,533.4,334.8,534.2L334.8,534.2z"/>
	<path d="M785.5,519.1c0.1,0.6,0.1,1.2,0.2,1.8c-2.1,1.1-4.4,1.1-6.6,1c-1.1,0-2.4,0.2-3.4-0.9c1.6-1.4,3.5-1.6,5.3-1.8
		c1.5-0.1,3.1,0,4.6-0.1L785.5,519.1z"/>
	<path d="M327.5,519.1c0.1,0.6,0.1,1.2,0.2,1.8c-2.1,1.1-4.4,1.1-6.6,1c-1.1,0-2.4,0.2-3.4-0.9c1.6-1.4,3.5-1.6,5.3-1.8
		c1.5-0.1,3.1,0,4.6-0.1L327.5,519.1z"/>
	<path d="M201.2,179.9c-0.4,2.6-1.6,4.7-3.7,6.7C197.7,184.5,198.4,183.2,201.2,179.9z"/>
	<path d="M292.9,177.8c1.5,2,2.8,4,4.2,6.6c-1.5-0.2-1.9-1-2.3-1.6C293.9,181.2,292.7,179.8,292.9,177.8z"/>
	<path d="M785.6,523.1c-1.9,1.9-1.9,1.9-5.1,0.6C782.1,522.6,783.6,522.5,785.6,523.1z"/>
	<path d="M322.8,524.1c1.3-1.2,2.6-1.5,4-1.2c0.2,0,0.5,0.3,0.4,0.4c-0.1,0.3-0.2,0.7-0.4,0.9c-0.5,0.2-1.1,0.5-1.7,0.4
		C324.4,524.5,323.6,524.3,322.8,524.1z"/>
	<path d="M130.1,259.7c-0.9,1.9-0.9,1.9-2.9,2C127.9,260,127.9,260,130.1,259.7z"/>
	<path d="M326.5,200.7c-0.7-1.8-0.6-3.4-0.8-5.3c0.6,0.4,1,0.5,1,0.7C327.1,197.6,327.3,199,326.5,200.7z"/>
	<path d="M168,197.7c0.1,1.7-0.1,3.2-0.8,4.8c-0.1-0.6-0.4-1.2-0.4-1.7c0-0.9,0.2-1.8,0.4-2.7C167.3,197.9,167.6,197.8,168,197.7z"
		/>
	<path d="M363.6,257.8c1.7-0.7,2.3,0.6,3.2,1.2c-0.1,1-0.6,0.9-1.1,0.8C364.8,259.5,364.2,258.8,363.6,257.8z"/>
	<path d="M115.4,269.7c0.2-0.2,0.5-0.6,0.7-0.6c0.9,0,1.9,0.1,2.8,0.5C117.8,269.7,116.6,269.7,115.4,269.7L115.4,269.7z"/>
	<path d="M291.3,163.1c0-0.6-0.1-0.9,0-1.3c0-0.2,0.3-0.3,0.5-0.5c0.1,0.3,0.2,0.6,0.2,0.8C291.9,162.5,291.7,162.7,291.3,163.1z"/>
	<path d="M178.5,210.2c-0.3-0.1-0.6-0.1-1.1-0.2c0.2-0.2,0.4-0.6,0.6-0.6c0.7,0,0.4,0.6,0.4,0.9L178.5,210.2z"/>
	<path d="M214.4,145c-0.5,0-1.1-0.1-1.8-0.1C213.5,144.1,213.9,144.3,214.4,145L214.4,145z"/>
	<path d="M300.1,186c-0.4,0.3-0.5,0.4-0.5,0.5c-0.2-0.2-0.3-0.4-0.5-0.6c0,0,0.1-0.3,0.1-0.3C299.5,185.7,299.8,185.8,300.1,186z"/>
	<path d="M194.9,187.1c-0.1,0.8-0.2,1-0.2,1.3c-0.2-0.1-0.4-0.1-0.5-0.2C194.2,188,194.4,187.8,194.9,187.1z"/>
	<path d="M122.6,269c0.2-0.1,0.4-0.2,0.6-0.4C123,268.7,122.7,268.8,122.6,269L122.6,269z"/>
	<path d="M370.6,267c0.3,0,0.6,0.1,0.3,0C371.1,267.1,370.9,267,370.6,267L370.6,267z"/>
	<path d="M303.5,189.8c0.1,0,0.2,0,0.2,0c0,0.1,0,0.2,0.1,0.3c-0.1,0-0.2,0-0.4-0.1C303.5,190,303.5,189.9,303.5,189.8z"/>
	<path d="M214.3,145c0.2,0,0.4,0,0.6,0.1c0.1,0,0.1,0.3,0.2,0.4c-0.1,0-0.2,0.1-0.3,0.1C214.7,145.4,214.5,145.2,214.3,145
		L214.3,145z"/>
	<path d="M315.8,207.4c0.2,0.1,0.4,0.2,0.6,0.3c-0.1,0.1-0.2,0.2-0.2,0.2c-0.2-0.1-0.4-0.2-0.6-0.3
		C315.6,207.6,315.7,207.5,315.8,207.4z"/>
	<polygon points="370.6,266.9 370.5,266.8 370.6,267 	"/>
	<path d="M122.5,268.9c0,0.1,0,0.2,0,0.3C122.5,269.1,122.6,269,122.5,268.9L122.5,268.9z"/>
	<polygon points="190.4,192 190.2,192.1 190.2,191.9 	"/>
	<path d="M362,254.6c-0.1,0-0.2-0.1-0.3-0.1C361.8,254.5,361.8,254.6,362,254.6L362,254.6z"/>
	<polygon points="361.9,254.7 362.1,254.8 362,254.6 	"/>
	<path d="M131.9,256.8c0.1-0.1,0.2-0.2,0.3-0.3c0,0.1,0,0.2-0.1,0.2C132.1,256.7,132,256.7,131.9,256.8L131.9,256.8z"/>
	<polygon points="131.9,256.8 131.8,256.9 131.9,256.8 	"/>
	<path d="M256.6,314.2c0.4-0.4,0.7-1,1.2-1.1c3.9-0.9,7.8-1.7,11.6-2.5l-0.1-0.1c0,0.1,0,0.3-0.1,0.3c-4.1,1.8-8.3,2.9-12.8,3.3
		L256.6,314.2z"/>
	<path d="M238,309.9c1.9-0.2,3.7,0.1,5.8,1.4C241.4,311,239.7,310.8,238,309.9L238,309.9z"/>
	<path d="M258.1,309.5c0.9-0.4,1.8-0.7,2.7-1.1c0,0.3,0.1,0.5,0,0.6C260.1,309.6,259.3,310,258.1,309.5z"/>
	<path d="M280.9,283.6c0.5,0,1-0.1,1.5-0.1c0,0.1,0,0.2,0,0.3c-0.5,0.1-1,0.1-1.5,0.2C280.9,283.8,280.9,283.7,280.9,283.6z"/>
	<path d="M238.1,309.8c-0.6,0-1.1-0.1-1.8-0.1C237,309.1,237.6,309.2,238.1,309.8L238.1,309.8z"/>
	<path d="M269.5,310.6c0.5-0.2,0.9-0.4,1.8-0.8C270.6,310.8,270,310.5,269.5,310.6L269.5,310.6z"/>
	<path d="M284.5,282.9c0,0.1,0.1,0.1,0.1,0.2c-0.1,0-0.2,0.1-0.3,0.1c0,0-0.1-0.1-0.1-0.2C284.4,283,284.4,282.9,284.5,282.9z"/>
	<polygon points="263.2,308.1 263,308.1 263,308 	"/>
	<polygon points="258.9,311.3 258.9,311.1 258.8,311.2 	"/>
	<path d="M258.8,311.2C258.8,311.3,258.8,311.3,258.8,311.2L258.8,311.2z"/>
	<path d="M290.4,402.2c0.7,0.4,1,0.9,0.8,1.7c-0.4,1.9,0.3,3.5,1.7,4.7c0.7,0.6,1.2,1.3,1.6,2.7c-1.1-0.6-1.8-1-2.5-1.4
		c-1.8-1.1-2.7-2.5-1.9-4.8c0.3-0.8,0-1.8,0.1-2.8L290.4,402.2z"/>
	<path d="M290.2,402.4c-2-1.1-2.9-3-3.6-5c-0.1-0.4,0-0.8,0.1-1.3c0.4,0.1,0.7,0,0.8,0.1c1.3,1.8,2.3,3.8,3,5.9L290.2,402.4z"/>
	<path d="M304.4,402.6c-0.4-0.6-0.6-0.7-0.7-0.9c-0.2-0.8-0.4-1.6-0.6-2.3c-0.1-0.5-0.2-1.1-0.4-2c0.6,0.3,1,0.4,1.1,0.5
		C304.6,399.6,304.6,399.6,304.4,402.6z"/>
	<path d="M302,394.8c0-1.3,0-2.6,0-4.5c1.1,1.9,1.1,3.2,0.8,4.5C302.5,394.8,302.2,394.8,302,394.8z"/>
	<path d="M294.6,413.8c1.9,1.4,2.1,3,2.6,4.4C295.9,417.2,295.1,415.9,294.6,413.8z"/>
	<path d="M304.4,406.6c0.2,2.3,0.2,2.3-0.7,4.2C303.4,409.1,303.4,409.1,304.4,406.6z"/>
	<path d="M275.5,350.9c0.6,1.8,0.2,2.8-0.8,3.8C274.3,353.3,275.3,352.5,275.5,350.9z"/>
	<path d="M302.2,486.4c0,1.1,0,1.8,0,2.5C301.8,488.1,301.8,488.1,302.2,486.4z"/>
	<path d="M302,483.6c0-0.3,0-0.6,0-1c0.1,0,0.1,0,0.2,0c0,0.3,0,0.6,0,1C302.1,483.6,302.1,483.6,302,483.6z"/>
	<path d="M300.7,427.1c0.2,0.8,0.3,1.2,0.3,1.5c0,0.1-0.1,0.2-0.2,0.3c-0.1-0.1-0.4-0.2-0.4-0.3
		C300.4,428.2,300.5,427.9,300.7,427.1z"/>
	<path d="M302.1,437.3c0,0,0.1,0.1,0.1,0.1c0,0.1,0,0.2-0.1,0.3c0,0-0.1-0.1-0.1-0.1C302,437.5,302.1,437.4,302.1,437.3z"/>
	<path d="M210.5,401.2c-1-2.4-1.7-5.3-0.4-8.3c1.1,0.2,1.2,0.7,1.1,1.2c-0.4,1.9-0.1,3.8,0.1,5.7c0.1,1.4,0.1,2.9-0.2,4.2
		c-0.5,2.8-1.2,5.6-0.3,8.6c-2.2-1.7-2.9-3-2.3-5.4C208.9,405.3,209.8,403.5,210.5,401.2z"/>
	<path d="M221.3,403.2c0.9-0.2,1.3,0.2,1.4,0.9c0.3,2.5-0.4,4.6-2.2,6.8c-0.5-1.6,0.2-2.8,0.3-4C221,405.7,221.2,404.4,221.3,403.2z
		"/>
	<path d="M216.5,421c-0.2-1.1,0.5-2.1,1-2.9c0.8-1.4,1.3-2.7,1.1-4.3c0-0.5,0.3-1,0.7-1.9C220,415.9,219.2,418.3,216.5,421
		L216.5,421z"/>
	<path d="M213.4,493.3c0,0.7,0,1.5,0,2.2c-0.1,0-0.2,0-0.3,0c0-0.7,0-1.5,0-2.2C213.2,493.3,213.3,493.3,213.4,493.3z"/>
	<path d="M237.3,360.9c0.1-0.7,0.1-1.5,0.2-2.2c0.1,0,0.2,0,0.3,0c0,0.8,0,1.6,0,2.3C237.6,360.9,237.5,360.9,237.3,360.9z"/>
	<path d="M216.4,420.9c0,0.2,0,0.4,0,0.7c0,0.1-0.1,0.2-0.2,0.3c-0.1-0.2-0.3-0.4-0.2-0.5C216.1,421.2,216.3,421.1,216.4,420.9
		L216.4,420.9z"/>
	<path d="M213.7,430.3c0-0.2-0.1-0.5,0-0.7c0-0.1,0.2-0.2,0.4-0.4c0,0.2,0.2,0.4,0.1,0.6C214,430,213.8,430.1,213.7,430.3
		L213.7,430.3z"/>
	<path d="M213.6,430.2c0,0.2,0,0.4-0.1,0.6c0,0.1-0.1,0.2-0.2,0.2c-0.1-0.2-0.2-0.4-0.2-0.5C213.2,430.5,213.5,430.4,213.6,430.2
		L213.6,430.2z"/>
	<path d="M254.5,248.1c0.3,0.6,0.5,0.9,0.5,1.2c-0.2,0.7-0.4,1.4-0.7,2c-0.9,1.6-1.7,1.7-3.9,0.3
		C251.7,250.4,252.9,249.3,254.5,248.1z"/>
	<path d="M279,256.6c0.3-0.7,0.5-1.4,0.8-2.4C280.4,255.4,280,256.1,279,256.6z"/>
	<path d="M276.2,259.8c0.8,1.2-0.2,1.8-0.5,2.6C274.9,261.2,275.8,260.6,276.2,259.8z"/>
	<path d="M223.4,251.7c-0.2-0.7-0.4-1-0.4-1.3c0-0.3,0.1-0.7,0.2-1.2C224,250,223.7,250.7,223.4,251.7z"/>
	<path d="M231.2,264.9c0.1,0,0.2-0.1,0.3-0.1c0,0.1,0.1,0.3,0.1,0.4c-0.1,0-0.2,0-0.3-0.1C231.2,265.1,231.2,265,231.2,264.9z"/>
	<path d="M251.8,240.7c0.1,0.1,0.3,0.3,0.3,0.4c0,0.2-0.2,0.3-0.3,0.4c-0.1-0.1-0.2-0.2-0.2-0.2
		C251.7,241.1,251.7,240.9,251.8,240.7z"/>
	<polygon points="272.4,265.4 272.5,265.3 272.3,265.4 	"/>
	<polygon points="233.9,267.9 234.1,267.8 234.1,268 	"/>
	<polygon points="228.2,261.5 228.4,261.4 228.4,261.7 	"/>
	<path d="M214.4,192.2c1.2,1,1.9,1.5,2.5,2c4,3.9,8.7,4.6,13.9,3.4c4.2-1,8.2-2.6,12.1-4.3c0.4-0.2,0.9-0.5,1.3-0.6
		c0.3-0.1,0.7,0.1,0.9,0.3c0.4,0.4,0.1,0.9-0.3,1.2c-0.2,0.2-0.4,0.3-0.6,0.4c-2.5,1.3-5,2.7-7.6,3.9c-2.6,1.2-5.4,2-8.3,2.1
		c-4.5,0.2-8.8-0.8-12.1-4.2C215.3,195.5,214.7,194.5,214.4,192.2z"/>
	<path d="M281.6,194.2c-0.8,1.9-2.2,3.1-4.1,3.7c-4.6,1.7-9.3,2.9-14.4,2c-1.2-0.2-2.4-0.2-3.6-0.4c-2.6-0.3-4.8-1.3-6.8-3
		c-0.6-0.5-0.8-1.2,0.1-2c0.7,0.3,1.5,0.5,2.1,0.9c5,2.9,10.4,3.2,16,2.3c3-0.4,5.6-1.8,8.2-3.3C280,194.1,280.7,193.7,281.6,194.2z
		"/>
	<path d="M284.2,192.5c-0.3-0.3-0.6-0.6-0.6-0.6c0.2-0.3,0.5-0.6,0.8-0.9c0.1,0.1,0.4,0.4,0.4,0.4
		C284.7,191.8,284.5,192.1,284.2,192.5z"/>
	<path d="M249.5,190.1c-0.7-0.1-0.5-0.5-0.3-0.9C249.3,189.5,249.4,189.8,249.5,190.1L249.5,190.1z"/>
	<path d="M249.4,190.1c0.4,0.2,0.5,0.5,0.2,1C249.6,190.8,249.6,190.4,249.4,190.1L249.4,190.1z"/>
	<polygon points="211.1,186.8 211.2,187.1 211,187 	"/>
	<path d="M212.9,190.8c-0.1-0.1-0.3-0.2-0.4-0.3c0.1,0,0.2,0,0.2,0C212.8,190.6,212.8,190.8,212.9,190.8L212.9,190.8z"/>
	<polygon points="212.9,190.9 213,191 212.9,190.8 	"/>
	<path d="M229.4,84.8c2.9-1.6,5.7-1.3,8.3,0.8c0.6,0.5,1.4,0.8,2.3,1.2c-0.5,0.1-0.9,0.1-1.2,0.2c-0.4,0.1-0.9,0.5-1.3,0.4
		c-1.5-0.6-1.9,0.2-2,1.5c0,0.2-0.5,0.5-0.8,0.5c-0.3,0-0.8-0.4-0.7-0.5c0.2-1.5-1.6-1.2-1.6-2.2c-1.2-0.1-2,2-3.3,0.1
		c0.7-0.5,1.4-1,2.4-1.7c-0.9-0.1-1.5-0.2-2.1-0.3L229.4,84.8z"/>
	<path d="M255.9,84c-0.7,0-1.4,0.1-2.2,0.1c1,1.3,2.8,1,3.6,2.6c-1.1-0.2-2-0.4-3.3-0.6c-0.3,0.5-0.8,1.2-1.2,1.9
		c-1.2-0.6-2.1-1-3.1-1.5c-0.7,0.1-1.2,1.4-2.1,0.5c0-0.2-0.1-0.3,0-0.4c0.9-1.1,1.9-2.1,2.9-3.2c1.8-0.1,3.7-0.6,5.4,0.7L255.9,84z
		"/>
	<path d="M252.1,106.2c-0.7,0.3-1,0.6-1.4,0.6c-0.6,0.1-1.2,0.2-1.8,0.2c-3.1,0-6.2,0.1-9.2,0.1c-0.9,0-1.8,0.1-2.7-0.5
		c2.7-1.4,5.7-2,8.1-1.7C247.3,105.3,249.3,105.7,252.1,106.2z"/>
	<path d="M238,109.2c4.2,0.7,7.7,1.3,11.5-0.6c-1.1,2.2-2.6,2.4-4.1,2.7C242.9,111.7,240.7,111,238,109.2z"/>
	<path d="M245.3,80.7c4.2-1.5,8.1-1.7,12.3-0.8c-0.2,0.3-0.3,0.5-0.4,0.4c-3.2-0.2-6.4,0.2-9.5,0.9C247,81.4,246.3,81.9,245.3,80.7z
		"/>
	<path d="M228.7,80.5c3.5-1.6,7.3-1.2,10.2,0.9c0,0,0,0.2,0.1,0.4c-1.3,0.2-2.2-0.7-3.3-0.9c-1.2-0.1-2.3-0.4-3.5-0.5
		C231,80.4,229.8,80.4,228.7,80.5L228.7,80.5z"/>
	<path d="M248.7,97.8c0.7,0.4,0.5,1,0,1.4c-1,0.9-1.8,0.8-3.3-0.3c0.9-1.4,1.8,0.3,2.7-0.1C248.3,98.5,248.5,98.1,248.7,97.8
		L248.7,97.8z"/>
	<path d="M242.1,100c-0.3-0.2-0.6-0.4-0.8-0.6c0.2-0.2,0.4-0.6,0.7-0.6c0.2,0,0.5,0.4,0.8,0.6C242.5,99.5,242.3,99.7,242.1,100z"/>
	<path d="M253,61.1c0,0.5,0.1,1,0.1,1.5c-0.1,0-0.2-0.1-0.3,0c-1,0.2-1,0.2-1.1-0.8l-0.1,0.1c0.5-0.2,1-0.5,1.5-0.7L253,61.1z"/>
	<path d="M253,62.6c0.5-0.2,1-0.5,1.5-0.7c0,0.3,0.1,0.7-0.1,1c-0.2,0.3-0.6,0.4-1,0.7C253.3,63.1,253.1,62.8,253,62.6z"/>
	<path d="M259.1,77.1c0.1,0.7,0.2,1,0.2,1.3c0,0.1-0.1,0.2-0.2,0.3c-0.1-0.1-0.3-0.2-0.3-0.3C258.9,78,259,77.8,259.1,77.1z"/>
	<path d="M236.6,64c0.2,0.1,0.4,0.2,0.5,0.4c0.1,0.1,0,0.2,0,0.3c-0.2-0.1-0.4-0.1-0.5-0.2C236.6,64.4,236.6,64.1,236.6,64L236.6,64
		z"/>
	<path d="M226.7,72.1c0-0.3,0-0.6,0-0.3C226.8,71.5,226.7,71.7,226.7,72.1L226.7,72.1z"/>
	<path d="M255.8,84.1c0.4,0,0.7,0.1,1.4,0.1c-0.8,0.5-1.1,0.2-1.3-0.2L255.8,84.1z"/>
	<path d="M250.8,61.9c0-0.5,0-1,0-1.5c0.3,0,0.5,0.1,0.8,0.1l-0.1-0.1c0,0.5,0,1,0,1.5l0.1-0.1C251.4,61.8,251.1,61.9,250.8,61.9z"
		/>
	<path d="M250.1,61.8c0.3,0,0.5,0,0.8,0c-0.1,0.4-0.1,0.8-0.3,1.9C250.3,62.6,250.2,62.2,250.1,61.8z"/>
	<path d="M248.8,97.7c-0.2-0.1-0.4-0.2-0.5-0.4c0-0.1,0.2-0.3,0.2-0.4c0.1,0.1,0.1,0.2,0.1,0.3C248.7,97.4,248.7,97.6,248.8,97.7
		L248.8,97.7z"/>
	<path d="M239.8,97.2c-0.1,0-0.1-0.1-0.2-0.1c0.1-0.1,0.2-0.1,0.3-0.2C239.9,97.1,239.8,97.2,239.8,97.2z"/>
	<path d="M229.3,84.7c0,0.2-0.1,0.4-0.1,0.6c-0.1,0-0.2-0.1-0.3-0.1c0.2-0.1,0.3-0.2,0.5-0.4L229.3,84.7z"/>
	<polygon points="244.6,97.3 244.9,97.2 244.8,97.4 	"/>
	<polygon points="239.8,99.7 239.7,99.4 239.9,99.4 	"/>
	<path d="M235.8,63.4c0.5-0.1,0.7,0.2,0.8,0.7l0.1-0.1C236.1,64.1,235.9,63.7,235.8,63.4L235.8,63.4z"/>
	<path d="M227.3,68.4c0.1-0.1,0.1-0.1,0.2-0.2C227.4,68.3,227.3,68.3,227.3,68.4L227.3,68.4z"/>
	<path d="M226.6,72c-0.3,0-0.6,0-0.9,0l-0.1,0.1C226,72.1,226.3,72.1,226.6,72L226.6,72z"/>
	<polygon points="228.6,80.4 228.5,80.7 228.7,80.5 	"/>
	<polygon points="246.2,83.9 246.1,83.7 246.3,83.7 	"/>
	<path d="M253.6,139.6c2.2-0.1,4.3-1.5,7.1-0.7C258,139.2,255.9,140.2,253.6,139.6z"/>
	<path d="M245.8,141.6c0.3-0.8,0.6-1.7,0.9-2.7C247.2,140.4,247.2,140.4,245.8,141.6z"/>
	<path d="M240.1,140.7c-1.2-0.1-2.3-0.1-3.5-0.2C237.8,140.1,239,139.6,240.1,140.7L240.1,140.7z"/>
	<path d="M255.7,122.4c0,0.6,0,1.3,0,1.9c-0.1,0-0.2,0-0.3,0c0-0.6,0-1.3,0-1.9C255.5,122.4,255.6,122.4,255.7,122.4z"/>
	<path d="M250.7,156.6c-0.1,0.2-0.2,0.5-0.4,0.8c-0.1,0.1-0.3,0.1-0.5,0.1c0,0-0.1-0.2-0.1-0.3c0.1-0.3,0.2-0.6,0.4-0.8
		c0.1-0.1,0.3-0.1,0.5-0.1C250.6,156.2,250.6,156.4,250.7,156.6z"/>
	<polygon points="252.6,154.4 252.7,154.2 252.7,154.4 	"/>
	<path d="M240,140.8c0.3,0,0.5,0,0.3,0C240.5,140.9,240.3,140.8,240,140.8L240,140.8z"/>
	<path d="M251.5,140.4c-0.1-0.1-0.2-0.1-0.2-0.2c0.1,0,0.2-0.1,0.3-0.1c0.1,0,0.2,0.1,0.2,0.1C251.7,140.4,251.6,140.4,251.5,140.4z
		"/>
	<path d="M253.6,135.9c-0.1,0-0.3,0.1-0.4,0.1c0-0.2,0-0.4,0-0.5c0-0.1,0.1-0.1,0.2-0.2C253.5,135.6,253.6,135.8,253.6,135.9z"/>
	<path d="M193.4,524.8c0.8-0.8,1.2-1.5,1.7-1.7c2.9-1.1,5.8-0.8,8.7,0.1c0.2,0.1,0.3,0.3,0.5,0.5c0.1,0.1,0.1,0.2,0.2,0.6
		c-0.2,0.2-0.5,0.7-0.8,0.8C200.3,525.9,197,525.8,193.4,524.8z"/>
	<path d="M195.2,526.7c1.3-0.4,2.6-0.6,4-0.1c0.6,0.2,1,0.6,0.9,1.3c-0.1,0.5-0.8,1-1.4,0.9c-1.2-0.4-2.4-0.9-3.6-1.4
		C195.2,527.2,195.2,527,195.2,526.7z"/>
	<path d="M214.4,529.8c-0.5,0.2-0.9,0.1-1-0.5c0-0.2,0-0.5,0.1-0.7c0.3-0.6,0.7-1.2,1.4-1.7c-0.2,1-0.4,2-0.6,3L214.4,529.8z"/>
	<path d="M251.5,53.2c0.2-0.1,0.4-0.2,0.6-0.3c0.1,0,0.2,0,0.3,0c-0.1,0.1-0.2,0.3-0.3,0.3C251.8,53.2,251.6,53.1,251.5,53.2
		L251.5,53.2z"/>
	<path d="M248.8,52.7c0-0.1,0-0.2,0-0.3C248.8,52.4,248.8,52.5,248.8,52.7L248.8,52.7z"/>
	<path d="M253,59.8c0.3,0,0.6-0.1,0.8-0.1c-0.1,0.6-0.1,1.2-0.8,1.5l0.1,0.1c0-0.5,0-1,0-1.5L253,59.8z"/>
	<path d="M253.1,58.2c0,0.5-0.1,1-0.1,1.6l0.1-0.1c-0.3,0-0.5,0-0.8,0l0.1,0.1C252.2,59.1,252.3,58.5,253.1,58.2z"/>
	<path d="M251.6,60.5c0-0.5,0.2-0.8,0.7-0.7l-0.1-0.1C252.2,60.1,252.1,60.5,251.6,60.5L251.6,60.5z"/>
	<path d="M714.7,314.2c0.4-0.4,0.7-1,1.2-1.1c3.9-0.9,7.8-1.7,11.6-2.5l-0.1-0.1c0,0.1,0,0.3-0.1,0.3c-4.1,1.8-8.3,2.9-12.8,3.3
		L714.7,314.2z"/>
	<path d="M696,309.9c1.9-0.2,3.6,0.1,5.3,1.1C699.5,311,697.7,310.8,696,309.9L696,309.9z"/>
	<path d="M719.1,309c-0.9,0.3-1.7,0.6-2.3,0.8c-0.4-0.2-0.5-0.2-0.6-0.3c0.9-0.4,1.7-0.7,2.6-1.1C718.9,308.6,719,308.8,719.1,309z"
		/>
	<path d="M739.1,283.4c0.5,0,1,0,1.5,0.1c0,0.1,0,0.2,0,0.3c-0.5,0-1.1,0-1.6,0C739.1,283.7,739.1,283.6,739.1,283.4z"/>
	<path d="M727.5,310.6c0.5-0.2,0.9-0.4,1.8-0.8C728.6,310.8,728,310.5,727.5,310.6L727.5,310.6z"/>
	<path d="M696.1,309.8c-0.6,0-1.1-0.1-1.8-0.1C695.1,309.1,695.6,309.2,696.1,309.8L696.1,309.8z"/>
	<path d="M742.6,282.9c0,0.1,0.1,0.1,0.1,0.2c-0.1,0-0.2,0.1-0.3,0.1c0,0-0.1-0.1-0.1-0.2C742.4,283,742.5,282.9,742.6,282.9z"/>
	<polygon points="720.9,308 721.2,308 721.1,308.1 	"/>
	<path d="M716.8,311.4C716.8,311.4,716.8,311.4,716.8,311.4L716.8,311.4z"/>
	<polygon points="716.8,311.4 716.9,311.2 716.8,311.4 	"/>
	<path d="M748.5,402.2c0.7,0.4,1,0.9,0.8,1.7c-0.4,1.9,0.3,3.4,1.7,4.7c0.6,0.5,1,1.3,1.4,2c0,0-0.1,0.2-0.2,0.5
		c-0.7-0.4-1.4-0.7-2.1-1.2c-1.8-1.1-2.7-2.5-1.9-4.8c0.3-0.8,0-1.8,0.1-2.8L748.5,402.2z"/>
	<path d="M748.2,402.4c-2-1.1-2.9-3-3.6-5c-0.1-0.4,0-0.8,0.1-1.3c0.4,0.1,0.7,0,0.8,0.1c1.3,1.8,2.3,3.8,3,5.9L748.2,402.4z"/>
	<path d="M762.3,402.3c-1.1-2-1.1-2-1.2-4.8C762.6,398.7,762.7,399.1,762.3,402.3z"/>
	<path d="M760,394.9c0-1.4,0-2.6,0-4.1C761.3,393.3,761.3,394,760,394.9z"/>
	<path d="M755.1,418.2c-1.2-1.1-2.1-2.3-2.6-4.5C754.5,415.2,754.7,416.7,755.1,418.2z"/>
	<path d="M762.5,406.3c0.2,1.8,0.2,3.3-0.7,4.7C761.5,409.2,761.5,409.2,762.5,406.3z"/>
	<path d="M732.7,354.8c-0.2-1.5,0.5-2.4,1-3.7C734.2,352.7,733.8,353.7,732.7,354.8z"/>
	<path d="M759.9,489.1c0-0.7,0-1.3,0-2c0.1,0,0.2,0,0.3,0c0.1,0.7,0.1,1.3,0.2,2C760.2,489,760,489,759.9,489.1z"/>
	<path d="M760.3,483.1c-0.1,0.1-0.2,0.3-0.3,0.4c0-0.1-0.1-0.2-0.1-0.3c0-0.2,0.1-0.4,0.2-0.6C760.2,482.8,760.3,482.9,760.3,483.1z
		"/>
	<path d="M758.9,429.4c-0.3-0.7-0.4-1-0.5-1.3c0-0.1,0.2-0.3,0.3-0.4c0.1,0.1,0.2,0.2,0.2,0.3C759,428.3,758.9,428.6,758.9,429.4z"
		/>
	<path d="M760.2,437.2c0,0.1,0.1,0.2,0,0.3c0,0.1-0.1,0.2-0.1,0.2c0-0.1-0.1-0.2,0-0.3C760.1,437.3,760.1,437.3,760.2,437.2z"/>
	<path d="M668.9,413.2c-2.3-1.9-2.8-3.8-2.4-6.1c0.4-1.9,1-3.7,2.2-5.4c-1.1-2.8-2-5.7-0.4-9.2c0.5,0.8,0.9,1.2,0.9,1.5
		c-0.4,2.2-0.1,4.3,0.2,6.4c0.1,0.9,0.1,1.9-0.1,2.8C668.7,406.3,667.9,409.4,668.9,413.2z"/>
	<path d="M679.6,403.2c0.7-0.1,1.1,0.4,1.2,1c0.2,2.4-0.4,4.6-2.1,6.5c-0.2-0.2-0.3-0.2-0.3-0.3c-0.1-0.1-0.1-0.2-0.1-0.3
		c0.3-2.2,0.7-4.4,1.1-6.6C679.4,403.3,679.5,403.3,679.6,403.2z"/>
	<path d="M674.5,421c-0.2-1.1,0.5-2.1,1-2.9c0.8-1.4,1.3-2.7,1.1-4.3c0-0.5,0.3-1,0.7-1.9C678,415.9,677.2,418.3,674.5,421
		L674.5,421z"/>
	<path d="M671.5,493.4c0,0.7,0,1.3,0,2c-0.1,0-0.2,0-0.3,0c-0.1-0.7-0.1-1.3-0.2-2C671.1,493.5,671.3,493.4,671.5,493.4z"/>
	<path d="M695.3,360.9c0.1-0.8,0.1-1.5,0.2-2.3c0.1,0,0.2,0,0.3,0c0,0.8,0,1.6,0,2.3C695.6,360.9,695.5,360.9,695.3,360.9z"/>
	<path d="M674.4,420.9c0,0.2,0,0.4,0,0.7c0,0.1-0.1,0.2-0.2,0.3c-0.1-0.2-0.3-0.4-0.2-0.5C674.1,421.2,674.3,421.1,674.4,420.9
		L674.4,420.9z"/>
	<path d="M671.7,430.3c0-0.2-0.1-0.5,0-0.7c0-0.1,0.2-0.2,0.4-0.4c0,0.2,0.2,0.4,0.1,0.6C672,430,671.8,430.1,671.7,430.3
		L671.7,430.3z"/>
	<path d="M671.6,430.2c0,0.2,0,0.4-0.1,0.6c0,0.1-0.1,0.2-0.2,0.2c-0.1-0.2-0.2-0.4-0.2-0.5C671.3,430.5,671.5,430.4,671.6,430.2
		L671.6,430.2z"/>
	<path d="M708.5,251.4c1.2-1,2.5-2,3.8-3.1c0.6,0.1,0.9,0.5,0.7,1.2c-0.2,0.7-0.5,1.3-0.8,1.9C711.1,252.9,710.3,252.9,708.5,251.4z
		"/>
	<path d="M737,256.6c0.3-0.7,0.5-1.4,0.9-2.3C738.4,255.4,738,256.2,737,256.6z"/>
	<path d="M734.7,260.2c-0.3,0.7-0.5,1.4-0.9,2.4C733.1,261.3,733.6,260.6,734.7,260.2z"/>
	<path d="M681.3,251.3c-0.5-0.6-0.6-1.3,0-2.1C681.7,250,682.1,250.6,681.3,251.3z"/>
	<path d="M689.2,264.9c0.1,0,0.2-0.1,0.3-0.1c0,0.1,0.1,0.3,0.1,0.4c-0.1,0-0.2,0-0.3-0.1C689.3,265.1,689.3,265,689.2,264.9z"/>
	<path d="M709.8,240.7c0.1,0.1,0.3,0.3,0.3,0.4c0,0.2-0.2,0.3-0.3,0.4c-0.1-0.1-0.2-0.2-0.2-0.2
		C709.7,241.1,709.8,240.9,709.8,240.7z"/>
	<polygon points="730.4,265.4 730.5,265.3 730.3,265.4 	"/>
	<polygon points="692,268.1 692,267.8 692.2,267.9 	"/>
	<polygon points="686.4,261.3 686.5,261.6 686.2,261.6 	"/>
	<path d="M703.8,193.4c-0.7,0.6-1.1,1.1-1.6,1.3c-2.3,1.2-4.6,2.5-7,3.6c-2.8,1.4-5.9,2.2-9,2.3c-4.5,0.1-8.8-0.9-12.1-4.3
		c-0.9-1-1.6-2-1.6-3.6c0.5,0.1,0.9,0.1,1.1,0.3c0.5,0.4,0.9,0.8,1.3,1.2c3.9,3.8,8.6,4.5,13.6,3.4c4.3-1,8.4-2.7,12.5-4.4
		c0.4-0.2,0.9-0.5,1.3-0.5C702.8,192.8,703.2,193.1,703.8,193.4z"/>
	<path d="M711.1,194.6c0.9,0.4,1.9,0.9,2.8,1.4c6.6,3.2,13.3,3.1,20.1,0.2c1.3-0.6,2.5-1.3,3.8-1.9c0.5-0.2,1.1-0.3,1.8-0.4
		c-1.2,2.4-1.6,3-3.3,3.7c-4.6,1.9-9.3,3.2-14.3,2.5c-1.4-0.2-2.8-0.3-4.3-0.5c-2.6-0.3-4.8-1.3-6.8-2.9
		C710.2,196.1,710.2,195.7,711.1,194.6z"/>
	<path d="M742.2,190.9c0.3,0.2,0.5,0.3,0.7,0.4c-0.2,0.4-0.4,0.7-0.7,1.1c0,0-0.5-0.3-0.5-0.3C741.8,191.6,742,191.3,742.2,190.9z"
		/>
	<path d="M707.6,190.1c-0.7-0.1-0.5-0.5-0.3-0.9C707.3,189.5,707.4,189.8,707.6,190.1L707.6,190.1z"/>
	<path d="M707.5,190.1c0.4,0.2,0.7,0.5,0.2,1.2C707.6,190.8,707.6,190.4,707.5,190.1L707.5,190.1z"/>
	<polygon points="669,187 669.2,186.9 669.2,187.1 	"/>
	<path d="M671,190.8c-0.1-0.1-0.3-0.2-0.4-0.3c0.1,0,0.2,0,0.2,0C670.8,190.6,670.8,190.8,671,190.8L671,190.8z"/>
	<polygon points="670.9,190.9 671,191 671,190.8 	"/>
	<path d="M687.4,84.8c2.9-1.6,5.7-1.3,8.3,0.8c0.6,0.5,1.4,0.8,2.3,1.2c-0.5,0.1-0.9,0.1-1.2,0.2c-0.4,0.1-0.9,0.5-1.3,0.4
		c-1.5-0.6-1.9,0.2-2,1.5c0,0.2-0.5,0.5-0.8,0.5c-0.3,0-0.8-0.4-0.7-0.5c0.2-1.4-1.4-1.4-1.8-2.3c-1-0.1-1.8,2-3.1,0.1
		c0.8-0.5,1.5-1,2.4-1.7c-0.9-0.1-1.5-0.2-2.1-0.3L687.4,84.8z"/>
	<path d="M713.9,84c-0.7,0-1.4,0.1-2.2,0.1c1,1.3,2.8,1,3.6,2.6c-1.1-0.2-2-0.4-3.3-0.6c-0.3,0.5-0.8,1.2-1.2,1.9
		c-1.2-0.6-2.1-1-3.1-1.5c-0.7,0.1-1.2,1.4-2.1,0.5c0-0.2-0.1-0.3,0-0.4c0.9-1.1,1.9-2.1,2.9-3.2c1.8-0.1,3.7-0.6,5.4,0.7L713.9,84z
		"/>
	<path d="M695.3,106.2c1.5-0.4,2.9-1,4.4-1.2c1.4-0.2,2.8-0.1,4.2,0c1.9,0.2,3.7,0.6,5.6,1c-0.2,0.2-0.3,0.6-0.6,0.7
		c-0.4,0.2-0.9,0.2-1.4,0.3c-3.4,0.1-6.9,0.1-10.3,0.1c-0.7,0-1.3-0.2-2-0.3C695.2,106.6,695.2,106.4,695.3,106.2z"/>
	<path d="M707.3,108.9c-0.6,1.8-1.9,2.1-3.1,2.3c-2.8,0.6-5.2,0-7.7-1.9C700.2,109.9,703.6,110.4,707.3,108.9z"/>
	<path d="M703.2,80.8c4.3-1.5,8.3-1.8,12.4-0.8c-0.2,0.2-0.3,0.4-0.4,0.4c-3.2-0.2-6.4,0.1-9.5,0.9C705,81.4,704.3,81.8,703.2,80.8z
		"/>
	<path d="M686.7,80.5c3.5-1.6,7.3-1.2,10.2,0.9c0,0,0,0.2,0.1,0.4c-1.3,0.2-2.2-0.7-3.3-0.9c-1.2-0.1-2.3-0.4-3.5-0.5
		C689,80.4,687.8,80.4,686.7,80.5L686.7,80.5z"/>
	<path d="M706.7,97.8c0.7,0.4,0.5,1,0,1.4c-1,0.9-1.8,0.8-3.3-0.3c0.9-1.4,1.8,0.3,2.7-0.1C706.3,98.5,706.6,98.1,706.7,97.8
		L706.7,97.8z"/>
	<path d="M700,98.6c0.3,0.3,0.5,0.6,0.7,0.8c-0.2,0.2-0.5,0.5-0.7,0.4c-0.2,0-0.5-0.3-0.7-0.5C699.5,99.1,699.7,98.9,700,98.6z"/>
	<path d="M711,61.1c0,0.5,0.1,1,0.1,1.5c-0.1,0-0.2-0.1-0.3,0c-1,0.2-1,0.2-1.1-0.8l-0.1,0.1c0.5-0.2,1-0.5,1.5-0.7
		C711.1,61.2,711,61.1,711,61.1z"/>
	<path d="M711,62.6c0.5-0.2,1-0.5,1.5-0.7c0,0.3,0.1,0.7-0.1,1c-0.2,0.3-0.6,0.4-1,0.7C711.3,63.1,711.2,62.8,711,62.6z"/>
	<path d="M717.1,79.2c-0.1-0.8-0.2-1.1-0.2-1.4c0-0.1,0.1-0.2,0.1-0.3c0.1,0.1,0.3,0.2,0.3,0.3C717.3,78.2,717.3,78.5,717.1,79.2z"
		/>
	<path d="M708.1,61.8c0.3,0,0.5,0,0.8,0c-0.1,0.4-0.1,0.8-0.3,1.9C708.3,62.6,708.2,62.2,708.1,61.8z"/>
	<path d="M694.6,64c0.2,0.1,0.4,0.2,0.5,0.4c0.1,0.1,0,0.2,0,0.3c-0.2-0.1-0.4-0.1-0.5-0.2C694.6,64.4,694.6,64.1,694.6,64L694.6,64
		z"/>
	<path d="M684.7,72.1c0-0.3,0-0.6,0-0.3C684.8,71.5,684.7,71.7,684.7,72.1L684.7,72.1z"/>
	<path d="M713.8,84.1c0.4,0,0.7,0.1,1.4,0.1c-0.8,0.5-1.1,0.2-1.3-0.2L713.8,84.1z"/>
	<path d="M708.9,61.9c0-0.5,0-1,0-1.5c0.3,0,0.5,0.1,0.8,0.1l-0.1-0.1c0,0.5,0,1,0,1.5l0.1-0.1C709.4,61.8,709.1,61.9,708.9,61.9z"
		/>
	<path d="M706.8,97.7c-0.2-0.1-0.4-0.2-0.5-0.4c0-0.1,0.2-0.3,0.2-0.4c0.1,0.1,0.1,0.2,0.1,0.3C706.7,97.4,706.7,97.6,706.8,97.7
		L706.8,97.7z"/>
	<path d="M697.9,97.2c-0.1,0-0.1,0.1-0.2,0.1c0-0.1,0.1-0.3,0.1-0.4C697.9,97,697.9,97.1,697.9,97.2z"/>
	<path d="M687.3,84.7c0,0.2-0.1,0.4-0.1,0.6c-0.1,0-0.2-0.1-0.3-0.1c0.2-0.1,0.3-0.2,0.5-0.4L687.3,84.7z"/>
	<polygon points="702.6,97.3 702.9,97.2 702.8,97.4 	"/>
	<polygon points="697.6,99.5 697.9,99.4 697.9,99.6 	"/>
	<path d="M693.8,63.4c0.5-0.1,0.7,0.2,0.8,0.7l0.1-0.1C694.1,64.1,693.9,63.7,693.8,63.4L693.8,63.4z"/>
	<path d="M685.3,68.4c0.1-0.1,0.1-0.1,0.2-0.2C685.4,68.3,685.3,68.3,685.3,68.4L685.3,68.4z"/>
	<path d="M684.6,72c-0.3,0-0.6,0-0.9,0l-0.1,0.1C684,72.1,684.4,72.1,684.6,72L684.6,72z"/>
	<polygon points="686.6,80.4 686.6,80.7 686.7,80.5 	"/>
	<polygon points="704.1,83.7 704.3,83.6 704.3,83.9 	"/>
	<path d="M690,140.3c1.6-1,3.1-2,5.4-1.5c-0.8,1.8-2.3,2.1-3.6,2.4C691.1,141.5,690.4,141.3,690,140.3z"/>
	<path d="M677.6,131.5c0.7,0.8,1.3,1.4,2,2.1c-0.5,0.1-0.9,0.3-1.1,0.2c-0.5-0.4-1-0.9-1.4-1.4C677,132.4,677.3,132.1,677.6,131.5z"
		/>
	<path d="M687.3,126.2c0,0.4,0,0.9,0,1.5c-0.9-0.8-0.3-1.1,0.1-1.4L687.3,126.2z"/>
	<path d="M718.8,140.8c0.4-0.1,0.9-0.3,1.3-0.2c1.3,0.1,2.5,0.7,3.5,1.4c0.2,0.8-0.3,0.9-0.7,1c-1.5,0.2-2.8-0.3-3.9-1.4
		C718.8,141.5,718.9,141.2,718.8,140.8z"/>
	<path d="M734.7,135.4c0.3-1,0.8-1.6,1.9-1.8C736.3,135.2,736.3,135.2,734.7,135.4z"/>
	<path d="M726.9,128.7c0.1,0.1,0.3,0.3,0.4,0.4c-0.2,0.1-0.4,0.3-0.5,0.2c-0.1-0.1-0.2-0.3-0.3-0.5
		C726.7,128.7,726.8,128.7,726.9,128.7z"/>
	<path d="M711.8,137.9c-0.6,0-0.9-0.3-0.8-0.8C711.6,137.1,711.8,137.4,711.8,137.9z"/>
	<path d="M651.7,524.8c0.5-1.4,1.3-1.8,2.3-2c2.5-0.6,5-0.3,7.4,0.2c0.2,0,0.4,0.2,0.6,0.4c0.4,0.3,0.5,1.3,0,1.5
		c-0.3,0.2-0.6,0.4-0.9,0.5C658,525.6,654.9,525.9,651.7,524.8z"/>
	<path d="M652.5,526.9c2-0.7,3.4-0.8,4.7-0.3c0.6,0.2,1,0.6,0.9,1.4c-0.1,0.5-0.8,1-1.4,0.9C655.3,528.6,654.2,527.9,652.5,526.9z"
		/>
	<path d="M672.4,529.8c-0.5,0.2-1.1,0-1-0.5c0.2-0.9,0.7-1.7,1.5-2.4c-0.2,1-0.4,2-0.6,3L672.4,529.8z"/>
	<path d="M707.8,157.5c-0.4-0.8,0-1.2,0.7-1.4C708.9,156.9,708.6,157.4,707.8,157.5z"/>
	<polygon points="710.6,154.4 710.7,154.2 710.8,154.4 	"/>
	<path d="M709.5,53.2c0.2-0.1,0.4-0.2,0.6-0.3c0.1,0,0.2,0,0.3,0c-0.1,0.1-0.2,0.3-0.3,0.3C709.9,53.2,709.6,53.1,709.5,53.2
		L709.5,53.2z"/>
	<path d="M706.9,52.7c0-0.1,0-0.2,0-0.3C706.8,52.4,706.8,52.5,706.9,52.7L706.9,52.7z"/>
	<path d="M711,59.8c0.3,0,0.6-0.1,0.8-0.1c-0.1,0.6-0.1,1.2-0.8,1.5l0.1,0.1c0-0.5,0-1,0-1.5L711,59.8z"/>
	<path d="M711.1,58.2c0,0.5-0.1,1-0.1,1.6l0.1-0.1c-0.3,0-0.5,0-0.8,0l0.1,0.1C710.2,59.1,710.4,58.5,711.1,58.2z"/>
	<path d="M709.7,60.5c0-0.5,0.2-0.8,0.7-0.7l-0.1-0.1C710.3,60.1,710.1,60.5,709.7,60.5L709.7,60.5z"/>
</g>
</svg>
