<?xml version="1.0" encoding="utf-8"?>
<!-- Generator: Adobe Illustrator 19.1.0, SVG Export Plug-In . SVG Version: 6.00 Build 0)  -->
<svg version="1.2" baseProfile="tiny" id="Layer_2" xmlns="http://www.w3.org/2000/svg" xmlns:xlink="http://www.w3.org/1999/xlink"
	 x="0px" y="0px" width="900px" height="600px" viewBox="144 97 900 600" xml:space="preserve">
<g>
	<path d="M641.8,150.1c-0.5,0.9-1.3,0.8-2.2,0.8c-13,0.7-26.1,1.6-39.2,1.5c-1.7,1.8-3.6,3.1-5.6,4.3c-2.6,1.7-5.2,3.4-6.2,6.6
		c-0.2,0.7-0.8,1.1-1.4,1.6c-6,4.4-11.3,9.6-16.3,14.9c-5.6,5.9-12.1,10.2-18.5,15c-5.2,3.9-11.3,5.8-17.8,6.6
		c-1.9,0.2-3.7,0.7-5.5,1.3c-14.4,4.5-29,5.7-44,4c-1.2-0.1-2.4-0.3-3.6-0.3c-2.7,0-5,0.8-6.8,3.2c-2,2.7-3.8,5.4-5.7,8.7
		c-0.2,0.5,0.5,1.2,0.5,2.2c-2.9,5-4.4,10.5-5,16.4c-0.3,3.2-1.1,6.3-2.6,9.4c-1.4,2.9-1.3,6.5-2,9.7c-1.3,6.3-0.5,12.4,0.2,18.7
		c0.8,7.1,3,13.9,4.3,20.9c1.2,6,3.3,11.8,4.4,17.8c2.2,12.4,3.9,24.9,2.7,37.5c-1,10.5-2.1,21-4.5,31.3c-1.5,6.5-2.9,13-4.6,19.4
		c-1.2,4.7-0.3,9,1.9,13c1.7,3.1,2.7,6.3,2.7,9.8c0,3.8-0.1,7.6-0.2,11.4c-0.2,4.4-1.5,8.5-3.2,12.7c-2.7,6.6-4.7,13.4-7,20.2
		c-0.6,1.8-1,3.6-2.2,5.2c-0.8,1-1,2.4-1.1,4c2.4,2,2.8,4.9,2.8,7.9c0,3.5,0.5,7.1,0.2,10.6c0,0.7,0.2,1.4,0.4,2.1
		c0.9,2.5,1.5,5-0.2,7.5c-0.2,0.4-0.3,0.9-0.2,1.4c0.5,2.8-1.2,4.4-3,6.1c-0.7,0.6-9,4.3-9.9,4.6c-4.1,1.3-6.9-0.9-8.3-4.3
		c-1.9-4.6-2.1-9.5,0.7-14c0.1-0.1,0.4-0.2,0.8-0.3c1,2.1-0.9,3.8-0.7,5.7c0.1,1.9,0.5,3.8,1,5.6c0.5,2,2.1,3.4,3.4,4.9
		c2,0.2,3.8,0.1,5.4-1.3c0.8-0.7,2.1-0.9,3.3-1.3c2-0.6,3.7-1.6,5-3.5c0.3-1.9,0.1-3.9,1.2-5.7c0.5-0.8,0.4-1.9,0-2.8
		c-2-5.9-1.9-11.9-1.5-18c0-0.4,0-0.7,0-1c-0.3-0.7-0.9-0.2-1.6-0.4c-0.6-1.2,0.1-2.9-1.7-4.4c-1-0.2-2.6-0.6-4.3-1
		c-1,1.3-1.2,2.7-1.5,4c-0.9,4.5-0.8,4.5-4.7,6.2c-1.2,5.9-1.2,5.9-3.6,6.9c1.8-3.8,1.2-8.4,3.8-11.8c1.5,0,0.6,1.4,1.3,1.8
		c0.4,0,0.8-0.3,0.7-0.6c-0.3-3.3,1.2-6.5,0-9.8c-0.1-0.4,0-1,0.3-1.4c1.8-2.2,1.4-4.7,1.1-7.2c-0.4-3-0.4-5.9-0.4-8.9
		c0-3.3-0.7-6.6-1.2-9.8c-0.8-5-2-10-1.7-15.2c0.2-2.7,1.2-5.1,1.5-8.1c-1.7-4.9-3.8-10.2-5.4-15.5c-0.9-2.9-1.4-6-1.6-9.1
		c-0.2-3.6-0.9-7-2.1-10.4c-1-2.8-1.2-5.8-1.4-8.8c-0.3-7.7-0.6-15.4-1-23.1c-0.1-2.1-0.4-4.3-0.7-6.4c-0.1-0.6-0.2-1.1-1-1.7
		c-1.2,6.6-0.9,13.2-2.4,19.7c2.4,6.4,1.4,13.2,1,19.9c-0.2,3.1-0.8,6.1-1.5,9.1c-0.8,3.3-0.5,6.8-0.6,10.3
		c-0.1,3.7-0.4,7.4-2.3,10.7c-1.8,3.1-1.9,6.3-1.3,9.7c0.7,3.5,1.3,7,2,10.5c1.5,8.1,0.2,16.1-1.2,24.1c-1.8,9.9-2.1,19.8-0.6,29.8
		c0.4,2.3,0.3,4.7,0.8,7.1c0.2,0.9,0.3,1.9-0.4,2.4c3,3,4.8,6.5,5.6,10.4c0.6,3.1,1.4,6,3.1,8.6c3,4.6,2.9,9.6,1.9,14.7
		c-0.3,1.6-1.5,2.4-3.1,2.5c-6.3,0.3-12.6,0.7-18.8-0.3c-3.7-0.6-5.3-3.6-6.7-5.9c-0.8-5.5,2.3-9.9,1.7-14.8
		c-0.1-0.6,0.1-1.2,0.3-1.7c1.3-3,1.7-6.2,1.6-9.4c0-0.4-0.1-0.8,0.1-1.1c1.9-3.8,0.4-7.3-0.6-11c-2.8-9.8-6.4-19.4-8.6-29.4
		c-2.8-12.8-3.5-25.6,0-38.4c1.3-4.9,1.5-10.1,1-15.2c-0.5-4.7-0.9-9.3-0.3-14.1c0.4-3.6-0.7-7.3-2-10.8
		c-4.3-12.3-8.2-24.8-10.4-37.7c-1.8-10.2-4.3-20.4-3.5-31c0.5-6.7,1.8-13,4.8-18.8c4.2-8.3,6.7-17.1,9.8-25.8
		c1.7-4.8,1.7-10-0.2-15c-1.5-3.9-3.2-7.9-4.4-11.9c-1.1-3.6-1.7-7.3-2.5-10.9c-1-0.5-1.1,0.9-2.3,0.6c-2.4-5.7-2.7-12-2.9-18.5
		c-0.9-1.6-1.7-3.5-3.2-5.2c-1.8-0.3-3.6-0.2-5.4,0.7c-1,0.5-2.2,1-3.4,1.1c-8,0.9-15.9,2.6-24.1,1.4c-3-0.4-6.1-0.2-9.2-0.3
		c-4.6-0.1-9.2-1-13.7-1.9c-0.8-0.2-1.7-0.4-2.5-0.3c-3.2,0.7-5.7-0.6-8.4-2c-5.8-3-11.1-6.8-16.6-10.4c-2.3-1.5-3.9-3.8-5.9-5.7
		c-6.7-6.1-13.5-12-20.9-17.1c-1.5-1-2-2.6-2.3-4.2c1.8,0.8,2.4,2.7,4,3.8c7.3,4.7,14.3,9.7,20.6,15.8c2,1.9,3.8,4,5.9,5.6
		c5.7,4.1,11.4,8.1,17.5,11.6c1,0.6,2.2,1.2,3.4,1c3.1-0.5,6.2,0.2,9.2,0.9c5.3,1.3,10.8,1,16.2,1.3c5,0.3,9.9,0.9,14.9-0.1
		c2.2-0.4,4.5-0.6,6.7-0.8c3.3-0.3,6.6-0.3,9.7-1.9c1.5-0.8,3.2-0.9,4.8-0.2c1.5,1.1,1.9,2.9,3.4,4.3c0.5-4.6,2-8.5,4.4-11.9
		l-0.1,0.1c4.8-5.8,8.8-12.1,10.4-19.5c-9.8-2.8-19.3-1.2-28.7,1.9c-2.5,0.8-4.7,2.2-6.9,3.6c-2.4,1.6-5,2.2-7.8,1.2
		c-1.1-0.4-2.3-0.2-3.5-0.3c-4.5-0.1-8.5,1.7-12.8,2.8c-4.1,1-8.4,1.5-10.8,5c-2.2-0.3-4-0.5-5.3-1.9c-2.7-3-6.4-4.4-10.1-5.8
		c-6.1-2.4-12.9-3.6-18.2-7.8c-4.2-3.3-8.8-6.1-13.2-9.1c-0.9-0.6-1.7-1.7-3-1.6l0.1,0.1c0.1-1.3-1.4-1.9-1.6-3.1
		c1.5-5.6,3-11.2-0.4-16.9c-1,0.1-2-0.9-3.3-0.4c-0.4,1-0.1,1.8,0.4,2.6c0.8,0.4,1.6,0.7,2.4,1.1c-3.4,0.7-6,3.1-9.4,3
		c-2.2-3.5-5.1-3.1-8.8,1.3c0.1,0.6,0.2,1.2,0.8,1.6c0.4-0.2,0.8-0.4,1.2-0.6l-0.1-0.1c0.3,0.7,0.5,1.3,0.3,2
		c-0.4,1.8,0.2,3.4,1,4.7c1.6,0.7,3,0.4,4.3-0.1c0.8-0.3,1-0.8,1-1.6l-0.1,0.1c1.7-1.6,3.4-3.2,5.2-4.7c0.7-0.6,1.5-1.2,2.6-0.2
		c-1,1.5-2.9,2-3.7,3.6c0.1,0.8,1.4,0.1,1.2,1.3c-1,0.1-2,0.2-3,0.2c-1.6,1.4-3.1,2.8-5.1,3.5c1.1,1.6,2.4,2.4,3.7,3.3
		c0.8,0,1.3-1.2,2.2-0.5c0,1.1-1.7,0.8-1.6,2c-3.2-0.5-4.9-3.1-6.6-5.5c-4.5-0.5-8.8-1.2-13.2-1.5c-8.5-0.4-16.7-2.4-24.9-4.2
		c-4.7-1-9.3-1.7-14.1-2.2c-1.1-0.1-1.7,0.3-2.4,0.8c-1.2-0.4-1.3-1.8-2.4-2.3c-5.7,0.1-11.5-0.1-17.1-1.4c-3.7,1.8-5.9,2.8-9.4-1.5
		c-8.1,0-16.3,0-24.5,0c-2.2,0-2.2,0-3.1-1.9c0.3-0.8,0.9-1.1,1.6-1.1c8.4-0.3,16.8-0.3,25.2,1c0.2,0,0.4,0.2,0.9,0.3
		c1.1-0.8,2.1-2,3.9-1.9c1.5,0.2,2.6,0.9,3.5,2c5.6-0.5,11-0.8,16.6-0.2c0.7-0.5,1.4-1,2.2-1.5c1.5-1,3.1-1.2,4.7-0.5
		c1.2,0.5,2.4,0.9,3.8,0.7c7.7-1.4,15.6-1.3,23.4-1.3c8.2-0.1,16.4-0.5,24.6-1.2c2.3-3.7,5.6-2.2,8.6-1.5c1.4-0.3,2.5-1.2,3.8-1.1
		c2.1,0.3,2.1,3.9,4.6,2.7c4.2,6.3,2.3,12.6,0.9,18.6c1.5,2,3.5,2.7,5.2,3.7c3.3,2,6.7,4,9.9,6.3c5.9,4.4,12.7,6.8,19.6,9.1
		c4.2,1.4,8.2,3,11.5,6.2c5.4-1.4,10.8-2.8,16.1-4.4c5.9-1.9,12.1-2,19.1-1.7c-0.3,0.1,0.2,0,0.5-0.2c4.6-3,9.9-4.4,15-6.3
		c5.7-2,11.4-2.1,17.2-1.1c2.3,0.4,4.6,1,7.2,1.5c3.2-1.1,6.6-2.2,10-3c4-4.7,4.7-11.9,1.9-17.3c-0.3-0.6-0.6-1.3-0.9-1.9
		c-1.2-2.5-1.9-5.1-3.7-7.5c-1.8-2.5-2.6-5.8-3.6-8.8c-0.7-2.3,0.8-4.1,1.8-6c-0.8-4.1,0.1-8.2,0.7-12.3c0.4-3.2,0.9-6.2,2.6-9.1
		c2.1-3.6,5.1-5.5,9-6.2c0.9-0.2,1.9-0.4,2.8-0.5c3.3-4.2,7-5.7,11-4.4c2.9,0.9,4.1,3,4.3,7.6c6.9,4.1,7.8,10.9,7.3,18.2
		c-0.1,2.1,0,4.2,0,6.3c1,0.2,1.3-0.8,2-0.8c2.5,2.6,3.1,5.4,1.2,8.2c-1.3,1.8-1.4,4.4-3.8,5.7c-0.3,0.1-0.8-0.8-1.5,0.2
		c1.3,7.6,3.2,15.6-0.7,23.3c2.6,3.7,6.6,4.5,10.3,5.6c9.3-2.2,18.6-3.3,28-1.2c2.5,0.5,4.8,1.4,7.1,2.3c3.1,1.2,6.2,1.3,9.4,1.6
		c4.1,0.4,8.2,1.1,12.4,1c3.9-0.1,7.5,0.9,11.2,1.7c3.5,0.7,6.9,0.4,10.1-1c6-2.6,12.1-5,18.4-6.6c0.7-0.2,1.4-0.5,2-0.8
		c5.4-3.4,11.1-6.5,16.8-9.4c3.5-1.8,5.9-4.7,8.9-7c0.8-0.6,1.3-1.5,1.2-2.5c-0.2-2.1,0.5-4.3-0.4-6.3c-1.2-2.8-1.2-5.7-0.9-8.7
		c0.6-0.7,2-0.9,1.3-2.5c-0.6,0.4-1.1,0.7-2.1,1.4c0.7-3.3,3.6-4.1,5.6-4.5c2.3-0.5,5-0.8,7.6,0c2.5,0.7,4.2,2.5,6.2,4.2
		c9.8,0.1,19.5,1.7,29.3,2.3c5.2,0.3,10.4,1,15.6,0.7c2.3-0.1,4.2,0.4,5.3,2.4c4.5-0.7,8.9-0.4,13.3-0.3c4.7,0.1,9.5,0.3,14.2,1.4
		c1.4,0.3,2.5-0.4,4-0.7c2.9,2.1,6.4,1.4,9.8,1.6c1.5,0.1,3.2-0.2,4.1,2.1c-3.5,2.1-7.1,0-10.9,0.4c-1.7,1.9-3.9,3.3-7,1.8
		c-0.7-0.3-1.6,0-2.5,0c-7.1,0-14.2-0.5-21.3-1.4c-1.1-0.1-2.4-0.2-3.7-1.6c5-0.2,9.4,0.6,13.9,0.6c4.5,0,9,0.5,13.5,0.1
		c0.1-1.3-0.8-1.2-1.4-1.2c-3.3-0.2-6.5-0.4-9.8-0.2c-5.1,0.4-10.2-0.1-15.2-0.8c-1.6,0.9-2,2.6-2.7,3.8
		C643,150.7,642.4,149.9,641.8,150.1c0.8-1.7,2-3.4,1.3-5.5c-15.1,0-30.1,0-45.7,0c1.7,2.1,0.5,3.7,0.2,5.5c3,0.6,5.7,0,8.4,0.1
		c9.7,0.2,19.4,0.2,29.1-0.5C637.4,149.5,639.6,149.3,641.8,150.1z M433.9,115.9c-0.3,0-0.5-0.1-0.8-0.1c-0.6,0.1-1.3,0.2-1.7,0.8
		c-0.9,1-1.5,2.3-3,2.7c-0.8,0.2-1.4-0.7-2.2-0.4c1.3-1.5,0.4-3.5,0.9-5.1c0.4-1.2,2.1-1.7,1.6-3.3c-0.6-0.7-1.3-0.9-2.5-0.4
		c0.5,2.2,0,4.5-0.4,6.8c-0.1,0.7-0.2,1.4,0.5,2c0,0.5-0.2,1.1-0.7,0.9c-1.1-0.5-2.4-0.1-3.5-0.6c-1.1-1.2-1.5-2.9-2.5-4.2
		c-1-1.4,0.6-3.5-1.7-4.7c-0.5,3.5,1.4,6.1,2.5,9c-3.2-1.7-3.5-4.8-4.2-7.5c-1.1,0.2-1.4,0.9-2,1.3c-0.7,1.5-0.7,1.5,0.6,2.8
		c0.2-1.1-0.5-2-0.7-2.9c2.1,1.1,1.5,3.2,2,4.6c-0.6,1.2-2.1,0.6-2.5,2.6c-1.1-1.3-1.9-2.2-2.6-3.1c-0.9,1.7-0.5,3.8-1.3,6
		c0.1,0.4,0.4,1.1,0.7,1.9c-0.4,0.2-1,0.2-1.2,1.2c0.8,0.9,0.1,2.9,2.1,3.4c0.1,0.8,0.4,1.6,0,2.5c-0.5,0.7-1.5,1.1-1.8,2.1
		c-0.1,1-0.1,2-0.2,3.1c-0.1,3-0.1,6,0.9,8.8c1,2.7,1.9,5.3,2.6,8.1c1.3,5.6,4.7,9.5,10.1,11.6c2,0.8,4,0.9,6.2,0.4
		c5.7-1.3,9.1-4.8,10.6-10.3c1.1-3.9,1.9-7.9,3.2-11.6c0.9-2.4,0.9-4.7,0.4-6.9c-0.3-1.3-0.6-2.6-0.5-3.8c0.1-1.8-0.4-3.2-1.7-4.5
		c1.7-1.5-0.2-2.9,0.2-4.4c0.5-1.6,1.7-2.9,1.4-4.7c-0.1-0.4-0.2-0.8-0.6-2c-0.4,2-0.3,3.5-1.3,4.5c-0.2-1.4-1.2-2.5-1.1-4.1
		c-0.7,0.4-1.1,0.8-1.6,1.1c-0.5-0.4-0.3-0.9-0.3-1.4c0.2-0.1,0.4-0.2,0.5-0.4c0.4-0.3,0.9-0.7,1.2-0.9c0.9-0.5,0.9,1.2,1.9,0.5
		c-0.2-2.1-1.6-3.1-3.4-4.1c-0.2,0.6-0.3,1.1-0.5,1.5c-0.4,0.7-0.8,1.3-1.2,2c-0.5,0-0.7,0.9-1.4,0.6c-0.4-0.6,0.3-1.7-0.7-2.1
		c-0.2-0.4-0.5-0.5-0.8-0.3c-0.3-1.3,1.7-2.4,0.2-4.3c-0.2,1.9-1.6,3.2-0.1,4.8C433.7,115.4,433.8,115.6,433.9,115.9z M430,115.2
		l0.3,0l0.3,0c1.6-1.2,1.5-3,1.7-4.6c-0.6-0.6-1.2-0.6-1.8-0.5c-1.4,1.7-1.8,3.7-1.8,6C429.4,115.8,429.5,115.1,430,115.2z
		 M595.2,145.3c-1.2-1-2.7-1.3-4.3-1.3c-1,2.6,1.3,3.6,2,5.3C596.5,148.4,596.8,147.8,595.2,145.3L595.2,145.3z M433.5,108
		c0.7,0.7,1.6,1.1,2.9,1.4C435.7,107.3,434.4,108.1,433.5,108c0.2-0.6,1.3-0.3,1.3-1.3c-3.6-2.5-6.5-2.3-9.5,0.9
		c2.2,1.4,3.2-1.1,4.6-1.6c1.5,0.5,0.3,2.2,1.6,2.6C432.3,108.7,432.9,108.4,433.5,108z M259.5,155.8c-3.9,1.4-8,0.5-12,1.1
		c3.9,1.2,7.9,1.9,12.1,2.3C259,157.4,259,157.2,259.5,155.8c1.7-0.1,2.3-1.8,4-2.8c2.2-1.1,4.5,0,6.9,1.2c0.4,0.2,0.7,0.7,1.3,0.4
		c0.4-0.1,0.9-0.1,0.8-0.9c-3-0.6-5.7-2.9-9.3-2C262,153,260.8,154.4,259.5,155.8z M584.7,140.9c-0.2-2.5,2.6-3,3.6-4.9
		c-2.8,0.5-3.5,1-5.9,4.5C583.1,140.9,583.9,141,584.7,140.9c0,1.7-2.1,1-2.8,2.1c0.5,2.9,0.5,2.9,6.7,6.2c-0.6-2.8-0.6-2.8,0.9-6.3
		c0.2-0.4,0.1-0.9,0.1-1.4c0.8-0.2,1.8,0.1,2.2-1.2c-1.3-0.4-1.5,0.8-2.1,1.3C587.9,142,586.2,141.9,584.7,140.9z M460.7,244.9
		c-0.7-1.1-1.4-1.2-2.1-1.5c-6.3-2.6-13.1-3.6-19.8-3.9c-4.2-0.2-8.5,0.5-12.8,0.6c-8.8,0.3-17.5,1.8-25.7,5.1
		c-1.3,0.5-2.7,1-3.8,2.1c1.2,3.1,2.4,6.1,3.6,9.2c1.1,2.8,1.7,5.7,1.2,8.7c-0.9,5.1-1.1,10.1-4,14.8c-2.6,4.2-3.9,9.3-4.5,14.5
		c2.2,1.8,4.8,2.9,7.5,3.9c9.3,3.4,18.7,6.1,28.5,7.6c5.2,0.8,10.4,1.3,15.6,0.7c6.6-0.8,12.9-3,18.8-5.9c0.6-1.2,0.2-2.2-0.1-3.2
		c-2.5-8.7-4.8-17.3-5.9-26.3c-0.6-4.9-0.8-9.7,0.5-14.5C458.8,252.9,459.4,248.7,460.7,244.9z M418.2,490.3
		c1.8-1.2,0.9-2.9,0.8-4.4c-0.9-8.2-0.7-16.3,1.1-24.4c1.2-5.6,2.2-11.2,2-16.9c-0.2-6.4-1-12.8-2.7-18.9c-0.9-3.3-0.6-6.3,1.3-9.1
		c1.3-2,1.9-4.3,2.3-6.7c0.8-4.3,0.3-8.7,1.3-13c1.2-5.7,0.8-11.6,1.4-17.4c0.2-2-0.1-4-0.4-6c-0.3-2.5-1.1-5.1-0.4-7.7
		c1.3-5.1,0.8-10.3,1.7-15.3c-7.9-6-31.1-8.2-36.9-2.9c-0.1,3.9,1.2,7.6,2,11.3c1.8,8.6,4.6,16.9,7.7,25.1c1.5,4.1,2.5,8.4,2.5,12.8
		c0,2.3-0.1,4.5,0.1,6.7c0.8,8.5,1.2,17-1.6,25.3c-0.6,1.9-0.7,3.9-1,6c-1.1,10.9,1,21.5,2.7,32.2c1,6.6,3.9,12.7,5.4,19.2
		c0.8,3.3,1.1,6.8,3.1,9.9c2.7-0.3,5.5-0.5,8.4-0.8C418.7,493.3,418.4,491.8,418.2,490.3z M461.8,242.8c0.5-9.1,2.2-17.5,6.8-24.7
		c-0.6-1.2-1.1-1.9-1.3-2.7c-1.6-6-5-10.9-9.3-15.4c-1.6-1.6-2.9-3.6-3.5-5.7c-1.5-5.4-4.3-10.2-5.2-15.5c-1.7-1.3-3.3-1.4-5.1-1.6
		c0.1,1,0,2,0.2,2.9c0.9,3.5,0.5,7,0.5,10.6c0,4.2-2,7.3-6,8.8c-2.4,0.9-4.9,1.7-7.4,2.4c-8.2,2.2-15.9,0.6-22.9-2.1
		c-2.6-3.2-1.9-6.1-1.7-9.1c0.2-3,1-6,1-9.3c-1.8,0.1-3.3,0-4.7,0.5c-0.7,2.1-1.5,4.1-2.1,6.2c-1.4,5.3-4.2,9.8-7.6,13.9
		c-3.8,4.5-5.3,9.7-6.1,15.3c-0.7,5.2,0.4,10.2,4.1,14.2c0.5,0.5,0.9,1.1,1.3,1.6c0.2,1.9,0.1,4,1.4,5.5c1.5,1.6,0,4.1,1.5,5.4
		c0.7,0.2,1.1-0.1,1.5-0.3c5.8-2.4,11.7-4.6,18-5.4c5.8-0.8,11.6-0.8,17.4-1.1C442.6,236.6,452,238.5,461.8,242.8z M431.2,347.1
		c1.5,1.2,2.8,1.1,4.1,1c2.5-0.2,5-0.4,7.4-0.8c5-0.8,10-2.1,15.1-2.8c3.6-0.5,6.9-2.3,9.9-4c0.3-3.7-2.8-35.9-3.6-38.1
		c-7.2,4.5-14.8,7.5-23.4,6.6c-0.6-0.1-1.2,0.1-1.8,0.2c-3.6,0.6-7.1,0.2-10.6-0.4c-12.6-2.4-25-5.4-36.4-12.4
		c-0.7,3.5-1.5,6.9-3.9,9.5c-0.4,0.4-0.4,1.1-0.5,1.7c-1.4,7.6-2.4,15.2-1,23c0.7,4,1.3,7.9,2,11.8c2.3,1,4.2,0.4,6.2,0
		c2.4-0.5,4.8-1.2,7.4-1c3,0.2,5.9,0.3,8.9,0.6c5.5,0.6,10.9,1.6,16.1,3.9c0.6-1.6,0.5-3.4,2-4.2c0.3-1.6-0.9-3.2,0.6-4.6
		C431.3,340.3,430.4,343.9,431.2,347.1z M459.9,411.9c-0.9-3.8-0.3-7.3,0.2-10.7c0.9-5.6,2.5-11.1,3.8-16.7
		c1.2-5.1,2.6-10.1,3.2-15.3c0.9-7.7,1-15.4,0.9-23.1c0-0.8,0.3-1.7-0.4-2.2c-11.5,4.7-23.5,5.9-35.9,6.2c2.3,7,1.9,14.1,2.5,21
		c0.6,7.7,1,15.4,2.4,23c1.1,5.8,2.9,11.4,3.3,17.3c0.1,1.1,0.8,2,1.4,2.8c1.5,2.1,2.9,4.4,3.6,6.9c-2,1.4-1.3,3.7-1.7,5.6
		c-0.9,4.4-1,8.8,0.2,13.3c1.4,5,1.9,10.3,2.7,15.4c0.5,3.5,0.4,7.3-0.1,11c-0.3,2.2-0.3,4.5-0.1,6.9c0.5-2.3,1-4.4,1.5-6.8
		c0.7,2.9,0.1,5.3-0.3,7.9c1.6,0.3,3,1.2,4.8,0.8c1-5.1,2.8-10,5.1-14.7c0.1-0.2,0.2-0.5,0.2-0.7c0.8-4.3,2.7-8.3,4.2-12.5
		c1.1-3.2,2.6-6.4,2.8-9.9c0.2-4.5,0.2-9-0.1-13.5C463.9,419.6,463,415.4,459.9,411.9z M578.1,141.2c0.6,2.1-0.8,4,0.2,5.8
		c2.3,4.1,1.2,8.2,0.4,11.6c-4.1,5.3-9.1,8.2-14.4,10.8c-2.8,1.3-5.6,2.6-8,4.6c-2.4,2.1-5.2,3.2-8.2,4c-5.9,1.5-11.6,3.5-17.1,6.1
		c-3.9,1.9-7.6,2-11.7,1.1c-2.7-0.6-5.3-1.5-8-1.7c-10.4-0.6-20.7-2-30.8-4.6c-6.6-1.7-13.4-2.1-20.1-0.8c-3.1,0.6-6.2,1.3-9.5,1.5
		c1,2.7,1.8,5.1,2.7,7.6c0.6,1.7,1.8,3.3,1.9,4.9c0.2,2.5,1.5,4.2,3,5.8c1.1,1.2,2.3,2.4,3.5,3.6c2.1,2.1,3.9,4.4,4.7,7.4
		c0.4,1.7,1.4,3.2,2.3,5.1c0.9-1.4,1.7-2.4,2.3-3.5c2.6-4.4,6.6-5.9,11.5-5.6c2.3,0.1,4.5,0.3,6.7,0.5c13.3,1,26.3-0.2,39-4.2
		c2.9-0.9,5.9-1.9,8.9-2.4c10.3-1.8,18.6-7.2,25.7-14.4c6-6.1,12.3-11.9,19-17.2c2.3-1.8,4.5-3.8,5.9-6.5c1.4-2.5,3.5-4.4,6.2-5.7
		c1.1-0.5,2.4-1,3.4-2.9c-4.5,1.8-8-1.4-11.8-0.5c-1.1,0.8-2,1.4-2.8,2c1-2.2,1-2.2,4-3.1c-1.6-1.8-4.2-1.9-5.6-3.6
		c-1.4-1.6-0.8-3.6-0.8-5.2C579.9,140.9,579.3,141.1,578.1,141.2z M417.4,164.2c-0.4,6.7,0.2,13.3-7.6,16.3
		c-0.5,5.3-0.9,10.6-1.4,16c4.4,4.6,10.1,4.1,15.2,4.9c1.1-1.4-0.1-3.1,1.6-3.7c1,0.9,0,2.4,1.2,3.3c4-0.1,7.8-1.4,11.6-2.8
		c1.6-0.6,3.1-1.4,3.8-3c1.5-3.5,2.1-7.2,0.7-10.9c-2.3,0-4.1,0.9-6.1,1.4c-1.9,0.5-3.6,1.6-6.4,1.2c4.6-1.8,8.6-2.9,12.8-4.1
		c-0.1-2.4-0.2-4.7-0.3-7c-4-3-4.4-7.6-5.4-12.2c-2.1,1.7-4.4,2.4-6.4,3.5c-2.7,1.4-5.2,1.3-7.8-0.1
		C421.3,166,419.5,165.2,417.4,164.2z M429.4,535c2.7-7.6,2.7-8-0.6-14.8c-0.6-1.2-1.1-2.4-1.7-3.5c-0.6-1.3-1.4-2.5-1.5-4
		c-0.3-2.8-1-5.6-2.7-7.6c-1.9-2.3-2.4-5-3.5-7.5c-0.1-0.2-0.4-0.3-0.7-0.6c-2.2,0.6-4.8,0.1-7.2,1.2c0,1.2,0,2.2,0,3.3
		c0,1-0.4,2.1,0.5,3c8.7-0.2,8.8-0.2,10.4,2.7c-4.3-0.9-8.3-0.7-12.2-0.2c-0.3,0.7-0.2,1.2,0.2,1.5c8.8-0.9,10.2-0.8,12.2,2
		c-4.4,0.2-8.5,0.1-12.3,0.4c-0.3,0.4-0.4,0.6-0.5,0.8c-1.9,4.6-2.6,9.6-4.1,14.3c-1.6,5,2.3,9.1,7.5,8.7c0.5,0,0.9,0,1.4,0.1
		C419.6,535.7,424.4,535,429.4,535z M213.4,156.7c16.2,2.7,31.8,7,48.3,8.1c-0.4-1.3-0.7-2.5-1.1-3.9c-15.4-2.1-30.7-5.1-46.2-7.8
		C214,154.4,213.7,155.5,213.4,156.7z M223,152.5c6,0.5,11.6,3.3,17.7,2.9c6-0.4,12.1,0.3,18-0.5c1.1-1.4,2.4-2.5,3.1-4.6
		C248.7,151.7,235.9,151.8,223,152.5z M599,140.7c0.3,1.7,1,2.1,2.1,2.1c3.5,0,7.1,0,10.6-0.1c1.3,0,2.5-0.2,4.4-0.9
		C610,141.4,604.7,141.1,599,140.7z M442.7,152.1c-2.6,4.4,0.4,8.8-0.9,13c-0.8-0.1-1-1.7-2.2-0.7c1.5,1.7,0.4,4.4,2.2,6.2
		C444.2,164.5,442.5,158.4,442.7,152.1z M421.6,110.1c-1.3,3-0.7,5.5,1.9,8.1C423.5,115,423.3,112.4,421.6,110.1z M264.4,149.5
		c1.6,0.4,3.1,0.8,4.6,1.5c1.5,0.7,3,1.1,4.7,0.8C270.8,150.1,267.6,149.5,264.4,149.5z M586.6,139.8c3.6,0.1,4.1-0.3,4.1-3.1
		C588.8,137,588,138.8,586.6,139.8z M196.1,155c2.8,0.2,5.5,0.5,8.7,0.8C202.5,154.1,201,154,196.1,155z M208.7,154.5
		c-0.2,1.3-1.4-0.5-1.6,0.9c0.7,0.3,1.5,0.5,2.3,0.8c0.2-1.4,0.6-2.6,0-3.8c-0.9-0.2-1.7-0.4-2.1,0.7
		C207.7,153.8,208.7,153.5,208.7,154.5z M598.4,142.9c-1-1.4-2.2-1.7-3.2-2.3c-0.9-0.5-1.6-1.4-3.4-1.6
		C593.9,141.1,595.4,142.5,598.4,142.9z M583.8,136.2c-2.3,0.3-3.2,1.9-4.4,4.1C581.2,138.6,582.5,137.4,583.8,136.2z M444.1,147.7
		c1.3-1.5,2.1-2.6,2.1-4.4C445.3,144.6,443.4,144.9,444.1,147.7z M447,141.5c0.2-0.1,0.5-0.2,0.7-0.3c-0.1-1,0.3-2.1-0.2-3.2
		c-1.1,0.3-1.4,1-1.7,1.7C446.2,140.4,446.6,140.9,447,141.5z M182.7,153.1c-0.4,2.3,1,2.4,3.3,2.6
		C184.5,154.7,183.5,154.1,182.7,153.1z M408.1,144c-0.1-1.1,0.9-2.4-0.8-3.4C407,141.8,406.8,142.9,408.1,144z M436.9,112
		c-0.8,0.7-1.4,1.3-0.9,2.6C436.6,113.8,437.5,113.4,436.9,112z M424.5,109.7c-0.5-0.1-0.9,0.2-0.9,0.7c0,0.4-0.2,0.9,0.5,0.9
		C424.8,110.9,425.1,110.4,424.5,109.7z M410,131.4c-0.3-0.7-0.4-1.2-1.1-1C408.6,131.1,408.7,131.6,410,131.4z"/>
	<path d="M811.4,381.7c1.9,3.3,3.5,6.7,4.8,10.4c0.7,1.9,0.2,4,1.5,6c2.4-1.4,5.1-2.1,7.6-3.2c5.6-2.4,11.5-3.1,17.4-3.6
		c5.7-0.5,11.4-0.9,17.1-0.6c7.1,0.4,14.2,1.5,20.8,4.5c0.7,0.3,1.5,0.6,2.7,1.1c1.5-5.6,1.2-11.4,3.2-16.6l-0.1,0.1
		c1.3-2.5,2.9-4.9,3.5-7.6c1.3-0.1,1,1,1.4,1.1c0,1.2-0.6,2-1,2.8c-2.2,4.3-3.5,8.9-3.8,13.6c-0.2,2.8-0.5,5.7-1.7,8
		c-2.5,4.9-2.3,10.3-3.6,15.4c-1.1,4.2-0.4,8.3,0.3,12.4c0.5,2.8,1,5.6,1.1,8.5c0.2,3.9,1.8,7.6,2.7,11.4c0.6,2.6,1.6,5.2,1.5,8
		c0,0.4,0,0.7,0.2,1c2.8,5.5,3.4,11.6,4.4,17.5c2.4,14.5,3.2,29,0.7,43.6c-1,5.8-1.4,11.8-2.7,17.6c-1.7,7.4-3.4,14.8-5.2,22.2
		c-1.2,4.7-0.3,9,1.9,13c1.9,3.6,2.8,7.2,2.9,11.2c0.1,4.8-0.4,9.5-0.8,14.2c-0.2,2-0.9,3.9-1.7,5.8c-3.4,7.9-5.8,16.1-8.5,24.2
		c-0.3,1-0.6,2.1-1.2,2.9c-1.2,1.5-1.4,3.2-1.9,5c2.2,1.6,2.8,4,2.8,6.6c0,4.1,0.7,8.2,0.4,12.3c0,0.8,0.3,1.6,0.5,2.4
		c0.7,2.1,1.2,4.1-0.1,6.2c-0.3,0.5-0.4,1.1-0.4,1.7c0.3,4.2-2.4,6.2-5.6,7.8c-1.7,0.8-3.4,1.5-5.1,2.4c-4.6,2.6-9.6,0.4-10.9-4.7
		c-1-4-1.4-8.2,0.6-12.1c0.3-0.5,0.4-1.1,1.3-1.2c1.1,0.9,0.2,1.9-0.1,2.8c-1.6,5.2-0.1,10,4.4,13.7c1.8-0.1,3.5-0.3,5.1-1.6
		c1-0.8,2.7-0.9,4-1.5c2.5-1.1,4.6-2.5,4.2-5.8c-0.2-1.5,1-2.6,1.3-4.3c-0.8-3.2-2-6.6-1.9-10.2c0-3.4,0-6.9,0-10.1
		c-0.3-0.9-0.9-0.4-1.4-0.6c-0.5-1.3-0.2-3-1.7-4.3c-1.2-0.3-2.7-0.7-4.3-1.1c-1.4,1-1.5,2.8-1.6,4.1c-0.2,3.3-1.4,5.5-4.7,6
		c-1,2.6-0.2,5.8-3.6,7.5c1.6-4.3,1.3-8.6,3.7-12.1c1.7,0,0.8,1.4,1.2,2.3c1-2.1,1.7-7.6,1.2-9.5c-0.3-1.1-0.6-2.2,0.1-3.1
		c1.4-1.7,1.2-3.6,1.1-5.4c-0.3-4.6-0.3-9.3-0.7-13.9c-0.4-4.9-1.3-9.9-2.3-14.7c-0.8-3.8-0.7-7.6,0.4-11.2c0.9-3.3,0.3-6.2-1.2-9.1
		c-0.2-0.4-0.5-0.8-0.6-1.3c-1.8-6.7-4.5-13.2-4.6-20.3c0-1.6-0.3-3.4-0.9-4.9c-2.5-6-2.3-12.3-2.7-18.6c-0.4-6.4-0.1-12.8-0.9-19.2
		c-0.2-1.9-0.6-3.7-1-5.6c-1.2,4.8-1.3,9.7-1.9,14.5c-0.2,1.3-0.1,2.6-0.5,3.9c-0.4,1-0.4,2.1,0,3.1c1.4,3.9,1.4,8,1,12
		c-0.5,5.4-0.4,10.9-2.1,16.2c-0.9,2.7-0.5,5.9-0.4,8.8c0.1,4.4-0.7,8.5-2.8,12.4c-1.3,2.4-1.4,5-1,7.6c0.6,4.7,1.9,9.3,2.4,14
		c0.8,6.5-0.1,12.8-1.1,19.1c-1.3,8.5-2.6,16.9-1.7,25.5c0.5,5.2,0.8,10.4,1.9,15.6c-0.3,0.2-0.7,0.4-1.1,0.6
		c3.5,2.8,5.2,6.7,6,10.9c0.5,2.9,1.5,5.5,2.9,8c1.3,2.3,2.1,4.7,2.7,7.3c0.6,2.8-0.9,5.3-0.9,8c0,1.4-1.5,2-2.9,2.1
		c-6,0.2-12.1,0.3-18.1-0.1c-2.9-0.2-4.3-2.2-6-4c-0.7-0.8-1.1-1.8-1.4-2.3c-0.4-1.4,0.7-2,0.2-2.9c-0.8-1.4-0.2-2.8,0.4-4.1
		c0.9-1.9,1.3-3.8,1.1-5.9c0-0.3,0-0.7,0.1-1.1c1.3-4.8,1.6-9.8,2.6-14.6c0.4-1.8,0.5-3.5,0-5.2c-1.3-4.1-2.3-8.2-3.7-12.3
		c-3.2-9.5-6.2-19-7.5-28.9c-1.4-10.4-1.8-20.8,1.6-31c0.5-1.5,0.5-3,0.6-4.6c0.4-5.6,0.3-11.1-0.6-16.7c-0.3-1.7-0.2-3.6,0.1-5.3
		c0.9-4.9-0.4-9.4-1.9-13.9c-4.2-12.1-7.8-24.4-10.2-37c-1.1-6.1-2.5-12.1-3.1-18.2c-1.2-11.4-0.7-22.6,5-32.9
		c2.1-3.8,3.2-8,4.7-12.1c1.5-4.1,3.5-8.1,4.6-12.3c1.4-5.1,1.6-10.3-0.4-15.4c-1.5-3.8-3.1-7.6-4.3-11.5c-1.1-3.6-1.7-7.3-2.5-10.8
		c-1.1-0.9-1,0.8-2.4,0.2c-2.3-5.4-2.7-11.7-2.8-18.3c-1.5-3.5-3.6-6.9-5.9-10.2c-1.8-2.5-4-3.9-7.2-4.6
		c-15.9-3.5-31.1-8.7-44.5-18.3c-3.5-2.5-6-5.7-6.9-10c-0.4-1.9-1.3-3.8-1.1-6.3c6.9-3.1,13.6-6.8,20.4-11c-1.5-0.7-2.7-0.4-4,0.2
		c-1.5,0.7-3,0.6-4.1-0.9c-0.8-1.1-2.2-1.3-3.2-2c-4.9,0.6-9.8,0.6-14.6,0c-0.9-0.1-1.9-0.3-2.8,0c-1.8,0.4-3.5,0.5-5.1-0.5
		c-1-0.6-2.3-0.3-3.5-0.3c-28.3,0-56.6,0.1-84.9,0.1c-1.7,0-3.3-0.1-5-0.1c-0.7,0-1.4-0.3-1.8-1c0.1-1.4,1.1-1.4,2-1.4
		c3.9-0.1,7.8-0.3,11.8-0.3c25.9,0.1,51.8,0.1,77.7,0.2c1.8,0,3.6-0.1,4.6-1.2c1.8-0.3,2.7,0.6,4.3,0.7c4.6-0.9,9.7-1.5,14.8-1.5
		c1.4,0,2.5-0.4,3.7-1c3.1-1.6,4.3-1.4,6.6,0.5c6.9-0.3,13.8-1.2,20.7-0.7c4.4,0.3,8.8,0.1,13.1,0.5c2.1,0.2,4,0,6-0.7
		c6.8-2.2,13.9-3.1,20.8-5c2.2-0.6,4.5-0.2,6.8,0.6c1.5-2.5,2.7-4.8,2.3-7.9c-0.5-4.3,0.5-8.5,1.3-12.7c0.9-4.8,3.3-8.9,8.2-10.9
		c1.9-0.8,4-0.7,5.9-1.4c2.9-4.1,6.9-5.7,10.9-4.3c2.9,0.9,4.1,3.2,3.9,7.3c5.4,3.2,7.7,8.2,7.6,14.5c0,2.5,0,5,0,7.5
		c0,0.8,0,1.6,0,2.4c1,0.4,1.3-0.6,2.1-0.6c0.5,0.3,1,0.8,1.5,1.1c4.6-0.4,8.9-1.8,13.4-0.7c2.5,0.6,5.2,0.3,7.8,0.1
		c3.8-0.2,7.6-0.3,11.4-0.2c8.4,0.2,21.5,2,29.6,4.2c10.9-3.5,21.4-3.7,31.8,0.9c0.9-0.4,1.9-0.8,3-1.2c2.2,1,4.6,0.7,6.9,0.7
		c19.1-0.5,38.3-0.6,57.4-0.2c2.7,0.1,2.7,0,4.2,1.8c-0.5,2-2.1,1.9-3.6,1.9c-6.9,0.1-13.8,0.2-20.7,0.2
		c-12.2,0.1-24.5-0.1-36.7-0.4c-1.5,0-3.1,0-4.4,0c-1.4,0.4-1.6,2-3.6,2.4c-1.5,0.2-2.5-1.9-4.2-2.7c-2.7,1.2-5.6,1.7-8.5,2.2
		c-2.9,0.5-5.9,0.6-9,0.8c3.1,2.1,6.6,3.5,9.5,6.3c-0.4,3.5-1.5,6.8-3.3,9.9c-3.1,5.5-7.6,9.7-12.6,13.4
		c-6.7,5.1-13.8,9.6-21.5,13.2c-6,2.9-11.9,6.2-16.9,10.5c-4.3,3.8-7.3,8.7-9.4,14.3c0.2,0.9,0.4,2,0.7,3c-0.7,0.8-2.2,0.2-2.5,1.6
		c0.4-5.9-2.2-10.5-5.7-14.8c-1.3-1.6-2.7-3-3.9-4.6c-1.4-1.9-2.8-3.8-3-6.3c-0.1-1.2-1-2.4-1.5-3.6c-1.5-3.4-2.5-6.9-3.5-10.5
		c-1.3-1.5-3.2-1.1-5.1-1.9c0,3.3,1.1,6.3,0.8,9.5c0,0.5,0,0.9,0,1.4c0.1,7.7-1.8,10.3-9.2,12.8c-3.9,1.3-7.8,1.9-11.8,2.4
		c-1.5,0.2-2.8-0.2-4.2-0.4c-4-0.6-8-1.3-11.5-3c-2.9-3.7-1.5-7.7-1.3-11.5c0.1-2.2,0.6-4.4,1-6.9c-1.7,0.2-3.2,0.4-4.9,0.7
		c-0.7,2-1.5,4-2.1,6c-1.5,5.6-4.6,10.4-8.2,14.8c-5.1,6.5-6.3,13.9-5.2,21.8C809.8,379.5,810,381.1,811.4,381.7L811.4,381.7z
		 M858.6,267.8c-0.1-0.7-0.4-1.1-1.2-1c-0.4,1.1-1.1,2.1-1,3.3c-0.2,0.2-0.4,0.3-0.7,0.5c-1.1,0.9-2.1,1.3-3.5,1.2
		c-1.3,0.9-2,3.3-4.3,1.5c0-1.6,0-3.3,0-5.1c0.7-0.4,1.4-0.8,2.1-1.2c0,1-0.3,2.1,0.1,3.1c0.8,0,0.4-1,1-1.2
		c0.2,0.4,0.5,0.7,0.7,1.1c1-1.5,1.7-3,1.6-4.9c-0.7-0.3-1.2-0.6-1.7-0.3c-0.6,0.8-1.2,1.5-1.8,2.2c-0.1-0.8,0.3-1.7-0.4-2.3
		c-0.7-0.3-1.3-0.6-2.2,0c0.5,3.1-0.6,6.3-0.1,10.1c-1.5-1.3-2.9-0.5-4.3-1.2c-1.1-2.3-3.1-4.5-2.7-7.6c0.1-0.6-0.3-1.4-1.4-0.9
		c-0.7,2.3,1.8,4.3,0.9,6.8c-2.6-1.2-1.4-4-2.5-5.8c-0.9,0.5-1.4,0.9-1.5,1.6c-0.5-0.1-0.9,0.1-1.2,0.6c-0.1,0.8,0.2,1.5,1.1,1.9
		c0-1,0-1.8,0-2.6c1.2,1.4,1.4,3,1.4,4.5c-0.4,0.9-1,1-1.5,1.3c0.3-1.1-0.2-1.6-1.4-1.9c0.4,0.8,0.7,1.5,1.5,1.8
		c-0.2,0.5-0.7,0.8-1.1,0.4c-0.8-0.8-1.6-1.6-2.3-2.5c0.7,1.7-1,2.3-1.5,3.4c0.3,0.6,0.7,1.2,1,1.8c-1.7,0.6-0.6,2.6-1.9,3.3
		c0.7,1.4,1.1,2.7,1.1,3.9c0.7,0,1,0.1,1.3,0.1c0.4,1.1,0.4,2.1,0.3,3.2l0.1-0.1c-0.5,0-0.9,0.1-1.4,0.1c-0.2-0.8-0.1-1.8-1.4-2.1
		c-0.1,1.3,0.9,1.5,1.5,2c-0.3,0.6-0.8,1.3-0.8,1.9c0,4.7-0.8,9.5,1.5,13.9c0.6,1.1,0.9,2.4,1.2,3.7c0.4,2.4,1.4,4.5,2.3,6.7
		c2.1,4.7,6.3,6.5,10.8,7.8c0.9,0.3,1.9,0.1,2.8,0c5.8-1.2,9.7-4.4,11.5-10.3c1.2-4,1.7-8.1,3.3-12c0.9-2.1,1.1-4.2,0.5-6.2
		c-0.6-2.3-0.6-4.7-0.7-6.9c-0.3-0.8-1.4-1-1.3-2.3c-0.2-1.3,1.6-2,1.8-3.2c-0.9-1.2-1,1-1.7,0.1c-0.3-0.8,0.1-1.6,0-2.4
		c1.2-1.4,2-2.8,0.2-5c-0.1,2-0.5,3.5-0.1,5c-0.8-1.6-2-2.9-1.9-4.8c-0.8-0.2-0.9,1.2-1.8,0.7c0-0.4,0.1-0.7,0.1-1l-0.1,0.1
		c0.5-0.6,1.1-1.2,1.5-1.7c0.8,0,0.9,1.3,2,0.5C862,269.6,860.8,268.2,858.6,267.8L858.6,267.8z M872.7,305.7
		c2.1,1.6,4.1,2.8,6.5,0.6c0.4,0.4,1.1,0.3,1.5,1.3c-2.2,0.2-1.4,3.4-4.1,3.6c-0.3-0.1-0.8-0.3-1.4-0.4c-0.6-0.1-1.1-0.1-1.7-0.1
		c-2.1-1.3-4.7-1.8-6.2-4.1c0.9,3.3,0.9,3.3,2.7,5.1c1.6-0.9,1.6-0.9,3.6-1c-0.3,0.5-0.9,0.9-0.5,1.5c3.1,1.2,4.1,1.1,6.6-0.4
		c1-0.6,2-1.3,3.1-1.7c1.7-0.6,2.9-1.6,3.6-3.2c0.8-1.6,1.8-3,3.3-4.1c0.9-0.2,1.7-0.3,2.5-0.2c4.3,0.4,8.5,0.7,12.8,1.1
		c4.9,0.4,9.5,1.5,13.3,5c2.3,2.1,5.2,3.3,7.2,5.4c3.2,0.6,6.3-0.2,10,1.3c-3.9,0.5-7.2,0.4-10.4,0.3c-8.2-0.2-15.4,1.8-21.3,8
		c-1.8,1.9-3.5,3.9-5.5,5.6c0.2-1.9,1.6-3.1,2.3-5c-6.3,0.6-11.7,2.8-16.9,5.7c-3.3,1.8-6.6,3.5-10.9,2.8c0.8,2.9,1.6,5.5,2.7,8
		c0.7,1.7,1.9,3.5,2,5.3c0.2,2,1.1,3.3,2.2,4.7c0.9,1.1,1.9,2.1,2.9,3.1c2.9,2.7,5.5,5.6,6.3,9.7c0.1,0.4,0.5,0.8,0.9,1.4
		c1-2.9,2.6-5.1,4.1-7.3c6.4-9.5,5.7-8.4,14.5-12.7c9.1-4.4,17.5-9.9,26.2-15.1c6.3-3.8,11.7-8.4,15.1-15.2c1.3-2.6,2.2-5.1,2.4-8.1
		c-6.9-4.5-14-8.2-22.1-9.7c-3.5-0.6-7-1.4-10.3-2.8c-1.1-0.5-2.2-0.6-3.5-0.6c-7,0.2-14,0.6-20.9,1.8c-1.5,0.3-3.2,0-5.1,1
		c2,1,4,0.8,5.8,1.9c-4.8,0.7-5.7,0.5-8-2c-3.3,1.4-4.5,4.8-6.9,6.9c0.3,1,0.5,1.6,0.6,2.1c-0.8,1-1.6-0.5-2.4,0.2
		c0,0.3-0.1,0.6-0.1,0.9c-0.5-0.4-1.1-1-1.8-0.7c-1.6,0.9-3.1,0.2-4.5-0.3c-2.2-1.6-3.5-3.7-3.9-6.7c-1.8,2.5,0.5,3.9,0.6,5.6
		C870.7,305,871.6,305.6,872.7,305.7z M866.4,302.1c-0.6-1.1,1.4-2,0.4-3.2c-1,0.7-2.2,1.1-1.6,2.8c0.4,0.1,0.9,0.2,1.3,0.3
		c2.2,5.1,3.1,5.9,6.9,6c-2.5-1.4-5-2.6-5.8-5.5C867.5,301.9,866.8,302.3,866.4,302.1z M852.2,262c-0.2,1,0.2,1.5,1.3,1.3
		c0.5-0.1,1-0.4,1.6-0.5c0.4,0.9,1.2,1.1,2.2,1.1c-0.4-1.8-1.5-1.1-2.3-1c0.4-0.4,0.8-0.7,1.2-1.1c-3.2-2.8-6.7-2.6-9.6,0.6
		c1.6,1,2.8-0.2,4.1-0.7c-0.2,0.3-0.3,0.6-0.1,0.9C851.3,262.8,851.6,262.1,852.2,262z M814.2,305c-1.1-0.1-1.7-1.3-2.9-1.1
		c-1.1,0.1-1.5,1.1-2.3,1.6c-0.2-0.4-0.3-0.8-0.5-1.4c-16.6-3-33.4-2.5-50.3-1.2c0.2,1.4,0.2,2.7,1.4,3.9c2,0,4.1-0.1,6.2,0
		c1.9,0.2,3.6-0.2,5.1-1.2c1.7-1.1,3.4-1.4,5.3-1.5c10.7-1,20.6,2.3,30.6,5.4c0.5,0.2,1.2,0.3,0.9,1.3c-1.7,0.2-3.3-0.9-5.2-1
		c-3,1.9-6.5,3-9.9,4.4c-6,2.5-12.1,4.9-16.7,9.7c-0.8,0.7-1.6,1.4-2.4,2c-2.2,1.7-4.6,3.1-7.6,3l0.1,0.1c0.7-1.5,2.3-1.5,3.5-2.1
		c1.4-0.7,2.7-1.4,3.8-2.6c6.2-6.6,13.7-10.9,22.4-13.1c1.5-0.4,3.2-0.6,4.3-1.9c-1.8-1.2-3.3,0.4-4.9,0.1c-0.6-0.5,0.2-1.2-0.4-1.7
		c-0.8-0.2-1.7-0.5-2.6-0.7c-8.5-2-16.8-1.8-25,2.1c-5.1,2.5-9.9,5.6-15,8.1c-2.8,1.4-5.6,2.9-8.8,3.8c1.1,3.2,1.9,6.1,3.1,8.9
		c0.8,1.9,2.1,3.7,4,4.8c6.7,4.1,13.6,7.7,20.9,10.6c7,2.8,14.1,4.9,21.4,6.4c5.8,1.2,10.2,4.2,13,9.5c0.7,1.4,1.3,3.1,2.8,4.5
		c0.5-4.6,2.3-8.2,4.9-11.6c1.9-2.4,3.1-5.3,5.4-7.4c0.2-0.2,0.4-0.6,0.5-0.9c1.2-3.8,2.6-7.5,4.6-11.1c-0.6-0.4-1-0.6-1.4-0.8
		c-5.7-2.7-11.7-3.8-17.9-4.2c-5.3-0.3-10.6-0.7-15.6-2.9c-3.2-1.4-6.6-1.8-10.1-1.5c-1.4,0.1-2.6,0-3.2-1.6
		c1.9,0.3,3.7-0.4,5.7-0.3c5.1,0.3,9.6,2.4,14.1,4.4c8.3-0.8,20.3,0.7,29.6,6c2.9-1.5,6.3-1.8,9.4-3.1c0.6-2.1,1.3-4.1,1.8-6.1
		c0.6-2.7,1.1-5.5-0.2-8c-2.5-4.6-3.7-9.8-7.4-13.9c-1.9,1.7,1,3.4,0.4,4.6c-1.3,3.5-3.9,5.2-6.3,7c-3-0.2-6.1,1.3-9.3,0
		c-0.7-1.5-2.5-1.9-4.3-2.6c2.4-2.4,5.1-1.7,7.4-1.3c1.3-0.7,2-1.5,2.1-3c-0.6-1-1.2-2.1-1.8-3.2c-0.7-0.3-1.4-0.6-2.1-0.3
		c-0.1,0.2-0.1,0.5-0.2,0.7C814.4,304.8,814.3,304.9,814.2,305z M882.5,397.9c-7.7-3.2-15.6-4.8-23.9-4.6c-3.8,0.1-7.6,0.5-11.4,0.6
		c-8.5,0.2-16.7,1.8-24.6,4.9c-1.4,0.6-2.9,1-4.1,2.3c1.1,2.9,2.3,5.7,3.4,8.6c1,2.6,2,5.2,1.5,8c-0.9,5.4-1,10.9-4.1,16
		c-2.7,4.4-3.9,9.5-4.7,14.7c1.4,1.3,3,2,4.6,2.8c4.3,2.1,8.9,3.1,13.4,4.6c7.9,2.6,16,4.1,24.4,4.9c10.1,0.9,19.4-1.7,28.2-6.1
		c0.3-0.9,0.2-1.5,0-2c-2.7-9.1-5.2-18.2-6.3-27.7c-0.6-4.9-0.7-9.7,0.6-14.5C880.6,406.2,881.5,402.1,882.5,397.9z M840.4,575.8
		c0.5-1.7,0.7-3.7,1.9-5.5c2.5-3.7,3-7.9,2.9-12.3c0-1.2-0.2-2.4,0.1-3.5c1.3-4.4,1.3-8.9,1.7-13.4c0.5-5.8,0.9-11.6-0.4-17.4
		c-0.3-1.4-0.3-2.8,0-4.2c1.3-5.2,0.9-10.6,1.9-16c-12.2-5.4-24.2-7.6-37-3.1c-0.1,4.3,1.2,8.1,1.9,11.8c1.7,8.2,4.4,16.2,7.3,24.2
		c1.9,5.2,3.2,10.4,2.8,16c-0.2,2.4,0.1,4.7,0.3,7.1c0.7,7.1,0.7,14.2-1.3,21.2c-1.6,5.4-2.2,11-1.7,16.6c0.4,4.5,0.5,9,1.4,13.4
		c1.2,6.3,1.8,12.6,4,18.7c1.7,4.7,3.2,9.4,3.9,14.4c0.3,1.9,0.9,3.9,2.2,5.7c2.8-0.3,5.6,0.2,8.2-0.8c0.3-1.6-0.9-3-0.4-4.1
		c1.3-2.7,0.6-5.3,0.3-7.9c-0.8-6.6-0.4-13,1-19.5c1.6-8,3-16.1,2.1-24.3C843,587.2,841.9,581.8,840.4,575.8z M886.6,455.7
		c-6.2,4-12.1,6.4-18.6,7.2c-2.3,0.3-4.5-0.4-6.7,0c-3.2,0.6-6.4,0.4-9.6-0.1c-7.4-1.1-14.6-2.9-21.7-5.3c-4.3-1.5-8.5-2.9-12.5-5
		c-1.2-0.6-2.1-1.9-3.7-2.1c-1,3.3-1.4,6.7-4,9.1c-0.2,0.2-0.3,0.7-0.3,1c-1.6,7.6-2.5,15.2-1.4,23c0.4,3.1,0.9,6.1,1.5,9.1
		c0.2,1.2,0,2.6,1,3.7c1.4,0.5,2.7,0.3,4.2,0c2.9-0.5,5.8-1.4,8.8-1.3c8.6,0.4,17.2,1,25.8,4.7c-0.7-2.3,0.7-3.5,1.4-4.9
		c0.3-1.2-0.8-2.7,0.8-4c1.3,3.4,0.8,7,1.5,10c1,1,1.9,1,2.9,1c2.3,0,4.5-0.1,6.7-0.4c5.8-0.8,11.4-2.4,17.2-3.2
		c3.6-0.5,6.9-2.2,10.1-4.2C889.8,481.2,886.8,468.9,886.6,455.7z M873.2,629.2c0.8-0.9,0.9-1.7,1.1-2.5c0.7-3.6,1.9-7.1,3.6-10.4
		c0.5-0.9,1-1.9,1.2-3c0.5-3.2,1.7-6.2,3-9.1c3.3-7.7,4.9-15.6,4.1-23.9c0-0.2,0-0.5,0-0.7c-0.5-5.1-1-10.2-4.6-14.2
		c-0.6-3.5-0.2-6.9,0.3-10.3c0.7-5,1.8-10.1,3.2-15c3.7-12,4.7-24.2,4.8-36.6c0-2,0-4,0-6.2c-11.8,4.7-23.9,6.1-36.3,6.4
		c0.6,2.6,1.3,5.1,1.5,7.7c0.3,4.4,0.6,8.8,0.9,13.1c0.6,7.4,0.7,14.9,2.4,22.3c0.8,3.2,1,6.6,1.8,9.8c0.7,2.9,1.3,5.7,1.5,8.6
		c0.1,1.1,0.9,1.9,1.5,2.8c1.4,2.1,2.9,4.1,3.4,6.6c-0.6,1-1.1,1.9-1.2,3.1c-0.5,4-1.9,8-0.9,12c1.5,6,1.5,12.3,3.4,18.2
		c0.3,0.9,0.1,1.9,0.1,2.8c0,4.7,0,9.5,0,14.4c1-1.3,0.2-2.9,1.7-4.5c0.3,2.7-0.4,4.8-0.5,7C870.2,628.7,871.7,628.7,873.2,629.2z
		 M848.3,354.8c4.2-0.4,8.2-1.6,12-3.1c2.2-0.9,3.6-2.6,4.2-5c0.7-2.9,0.6-5.8,0.2-8.8c-4.2,0.1-7.8,2.7-12,2.5
		c3.9-1.7,7.9-2.8,11.9-4c0.4-2.4-0.5-4.6-0.3-6.8c-3-3.2-6.2-6.1-5.8-11.3c-2.3,1.6-4.6,2.4-6.6,3.5c-2.7,1.4-5.2,1.3-7.8-0.1
		c-1.8-0.9-3.6-1.7-5.6-2.7c0,4.8-0.2,9.3-2.4,13.4c-1.5,0.7-3,1.4-4.6,2.1c-0.4,5-0.9,9.9-1.3,14.8c1.2,2.1,2.1,3.2,3.7,3.6
		c3.9,1,7.7,2.1,11.7,1.9c0.7-1.1-0.1-2.7,1.3-3.5C848,352.3,847.4,353.6,848.3,354.8z M864.1,325.4c3.7,5.1,11.7,7.7,17.7,3.4
		c3.5-2.5,7.5-4.1,11.7-5.1c2.8-0.7,5.7-1.7,8.5-0.2c9.5-9.6,11.6-8.8,20.4-9.8c-3.2-2.5-6.2-4.9-9-7.2c-7.8-1-15.4-2.3-23.5-2.6
		c-1.8,3.8-4.4,6.8-8.5,8.9c-4.5,2.3-8.5,0.6-12.6,0.2c-2-1.3-2-3.8-3.7-5.8C865.4,313.6,866.9,319.7,864.1,325.4z M833.5,651.8
		c-0.1,2.2-0.2,4.3,0.2,6.4c3.8-0.1,7.5-1.2,11,2c-0.8,0.3-1.1,0.6-1.4,0.5c-3.4-1.1-6.8-0.3-10.2-0.2c-1.1,0-1,0.7-0.6,1.7
		c1.6-0.1,3.4-0.2,5.2-0.5c1.9-0.2,3.8-0.1,5.6,0.5c0.8,0.2,1.2,0.8,0.6,2c-3.8,0-7.7,0-11.6,0c-0.5,1.1-0.8,1.9-1.1,2.7
		c-1.3,4.2-1.6,8.6-3.6,12.6c-0.2,0.4-0.1,0.9-0.1,1.4c-0.4,3.4,1.8,5.4,4.2,7.4c6.6,0.2,13.2,1.1,19.7-0.1
		c1.9-3.7,2.7-7.4,0.8-11.3c-2.3-5-4.6-10.1-6-15.5c-1-3.8-4.4-6.6-4.8-10.9C838.5,651,836,651.1,833.5,651.8z M823,296.4
		c-1.2,0.3-2.3-0.4-3.4-0.4c-2.1,1-4.2,1.8-6.4,2.4c-2.3,0.6-4.6,1.1-7,1.5c-4.3,0.7-4.3,0.6-6,2c3.2,0,6.3,0.5,9.4,1.5
		c2.3-1.1,4.9-1,7.7-0.5c0.9,1.6,1.9,3.2,2.7,4.5c-0.5,3.8-3.3,4.5-6.5,5.1c2.2,0.9,4.7,0.5,7.6-0.9c0.2-1.9,1.7-3.6,1.3-5.9
		c-0.3-2-1.2-4.1-0.7-6.8c2.5,5.3,2.4,9.9-0.4,14.4c2.4-1.7,3.1-3,3.2-5.6c0.1-1.9,0-3.8,0-5.7c0-0.8-0.2-1.7,1.1-1.9
		c0.8,2.2-1.2,4.7,0.9,7.4c-0.7-3.7,2.2-6.7-0.3-9.9c-0.5,0.3-0.6,1.1-1.4,0.9C824,298.1,823.9,297.1,823,296.4z M874.2,296.8
		c1,1.6,0.5,3.4,1.2,4.9c1,0.5,1.8,1.2,3.2,1.3c2.3-2.5,4.6-5.1,7-7.7c6.1-1.7,12.4-2,19.2-3.6c-7.7-0.7-14.5,0.3-21.3,0.7
		c-1-0.3-2-0.6-3-0.9C878.5,293.1,876.5,294.8,874.2,296.8z M873.9,302.1c-0.4-2-0.2-3.9-1-5.5c1-2.3,3.2-3.3,4.6-5.6
		c-2.5,0.8-4.9-0.4-6.7,1.6c-0.2,3.4-0.4,6.8,0.8,10.1c1.6,1,3,2.6,5.1,1.1C875.7,303.3,874.9,302.8,873.9,302.1z M937.6,296.6
		c8.2,2.4,15.5,1.4,22.7-0.6c0-0.7-0.4-1-0.7-0.9C952.5,296.3,945.2,294.5,937.6,296.6z M863.4,323.8c1.5-5.2,0.8-10.4,0-15.5
		c-1.7,3.8,0.7,7.8-0.4,11.5c-0.9,0.3-1.1-0.9-1.7-0.3C861.2,321.3,862.1,322.6,863.4,323.8z M844.1,266.1c-0.5-0.5-0.9-0.9-1.5-1.5
		c-0.9,4.6-0.6,5.7,2.1,8c-0.2-1.7-0.3-3.3-0.4-4.9c0.3-0.9,1.5-1.2,1.5-2.3c0-0.4,0-0.7-0.4-0.8
		C844.4,264.6,844.8,265.7,844.1,266.1z M868.6,292.9c-1,0.2-1.3,0.9-1.5,1.7c0.4,0.7,0.6,1.4,1.6,1.9
		C868.7,295.1,869.1,294,868.6,292.9z M828.4,295.2c-0.6,1.5-0.3,2.6,0.9,3.9C829.2,297.5,829.9,296.2,828.4,295.2z M755.7,304
		c0.9-0.9,1-1.9,0.5-3.7C755.3,301.9,755.6,303,755.7,304z M937.7,294.4c-1.8,0-3.1-0.5-4,0.8C935.2,296,936,294.7,937.7,294.4z
		 M855.5,265.3c-1.2,1.4-1.2,1.4-0.8,3.5C855,267.6,855.8,266.7,855.5,265.3z M874.7,308.8c0.8,0.6,1.5,1.3,3.3,0.3
		C876.4,309.2,875.8,308.1,874.7,308.8z M741.3,304.4c-0.1-0.2-0.3-0.4-0.4-0.5c-0.6-0.1-1.1,0-1.4,0.6
		C740.1,304.6,740.7,305,741.3,304.4z M831.1,302.9c0,1.5,0,1.5,1,2.3C831.7,304.4,831.5,303.7,831.1,302.9z M949.5,293.8
		c1,0.2,1.7,0.3,2.8-0.2C951.3,293.6,950.6,293.1,949.5,293.8z"/>
	<path d="M874.1,649.7c-3.1,2.5-8.5,2.1-11.8-0.5c0.5-1.1,1.5-1.2,2.4-0.9C867.6,649,870.8,648,874.1,649.7z"/>
	<path d="M452,496.3c-3,2.3-8.3,1.8-11.3-0.8C442.8,494.2,449.2,494.6,452,496.3z"/>
	<path d="M874.6,646.4c-2.7,1.7-8,1-11.3-1.2C865.3,643.8,871.3,644.4,874.6,646.4z"/>
	<path d="M441.6,491.2c3.8-1,7.5-0.1,11.5,1.1C450.4,494.4,445.3,493.9,441.6,491.2z"/>
	<path d="M874.7,643.4c-4,0.4-7.8-0.1-11.4-1.4c3-2.3,6.3-0.5,9.4-0.7C873.7,641.3,874.6,641.7,874.7,643.4z"/>
	<path d="M452.5,489.8c-3.6-0.3-7.4,0.2-10.9-1.1c0.1-1.6,1.3-1.6,2.1-1.6c2.6,0.1,5.2,0.2,7.8,0.6
		C452.3,487.8,453.3,488.3,452.5,489.8z"/>
	<path d="M811.4,381.8c0.5-0.3,0.9-1,1.5-0.7c3.7,1.8,8,1.9,12,3.4C822,385.6,815.1,384.2,811.4,381.8L811.4,381.8z"/>
	<path d="M441.5,500.1c2.4-2.1,5.3-1.9,7.7,0.5C447.1,502.2,444.3,502,441.5,500.1z"/>
	<path d="M863.2,653.7c2.8-1.9,4.9-1.8,7.7,0.4c0.1,0.9-0.5,1.3-1.3,1.4C867.8,655.7,864.4,654.7,863.2,653.7z"/>
	<path d="M886.5,379.7c-2.5,1-4.8,2.5-7.4,3.2c-1.5,0.4-2.9,0.7-4.4,0.3c3.4-1.4,6.8-2.5,10.1-4.1c0.8-0.4,1.4-0.1,1.7,0.7
		L886.5,379.7z"/>
	<path d="M440.5,503.2c2.8,0,5.1-0.8,7.3,0.6C446.2,506.4,444.1,506.3,440.5,503.2z"/>
	<path d="M862.6,657.2c4.4-0.7,4.4-0.7,7,0.5C868.1,660,865.9,659.9,862.6,657.2z"/>
	<path d="M868.8,383.6c-2.6,0.5-2.6,0.5-5-0.8C865.7,382.3,867.2,383,868.8,383.6z"/>
	<path d="M830.3,384.3c-1,0.5-2,0.6-3.1,0.3C828.2,383.9,829.2,384,830.3,384.3z"/>
	<path fill="none" d="M460.7,244.9c-1.4,3.9-2,8-3,12c-1.3,4.8-1,9.6-0.5,14.5c1.1,9,3.4,17.7,5.9,26.3c0.3,1,0.7,2,0.1,3.2
		c-5.9,2.9-12.2,5.1-18.8,5.9c-5.2,0.7-10.4,0.1-15.6-0.7c-9.7-1.5-19.2-4.2-28.5-7.6c-2.7-1-5.3-2.1-7.5-3.9
		c0.6-5.2,1.9-10.2,4.5-14.5c2.9-4.7,3.1-9.8,4-14.8c0.5-3-0.1-5.9-1.2-8.7c-1.2-3.1-2.4-6.1-3.6-9.2c1.1-1.2,2.5-1.6,3.8-2.1
		c8.2-3.3,16.9-4.8,25.7-5.1c4.3-0.1,8.6-0.8,12.8-0.6c6.7,0.3,13.5,1.3,19.8,3.9C459.3,243.7,460.1,243.8,460.7,244.9z
		 M424.7,282.7c1,0.4,1.9,1.1,2.8,2.3c0.9-1.3,1.9-2.1,3.1-2.6c-0.7-1.4-2.3-1.3-2.7-2.4c-0.4-2.4,0.2-4.8-1.2-7c0,2.6,0,5.1,0,7.6
		C426,281.3,425,281.4,424.7,282.7z M403.4,292.8c-0.8-3.7-1.3-4.6-3.8-6.7C400.9,288.8,401.6,290.9,403.4,292.8z M452.3,298.3
		c-3.2,1.9-3.4,2.2-3.6,4.6C449.9,301.4,450.9,300.1,452.3,298.3z M454.7,248.8c-1.1,1-2.1,2.1-2.6,4.1
		C453.8,251.6,454.6,250.4,454.7,248.8z M405.6,295.7c0.3,1.4,0.8,2.1,2.1,2.2C407.4,296.8,406.9,296.2,405.6,295.7z M437.2,304
		c0.4-0.5,1.6-0.5,1-1.6C437.7,302.8,437,303.1,437.2,304z M426.9,262.6c-0.4,0.7-0.4,1.3,0,2C427.1,263.9,427.2,263.4,426.9,262.6z
		 M403,249.8c0.3,0.9,0.5,1.5,1.4,1.4C404.3,250.4,404,249.9,403,249.8z M422.3,248.7c0.7-0.7,1.6-1.1,0.9-2.1
		C422.7,247.1,422.1,247.4,422.3,248.7z"/>
	<path fill="none" d="M418.2,490.3c0.3,1.5,0.5,3,0.8,4.8c-2.9,0.3-5.7,0.5-8.4,0.8c-2-3.1-2.3-6.6-3.1-9.9
		c-1.5-6.5-4.4-12.6-5.4-19.2c-1.7-10.6-3.8-21.3-2.7-32.2c0.2-2,0.3-4.1,1-6c2.7-8.3,2.4-16.8,1.6-25.3c-0.2-2.3-0.1-4.5-0.1-6.7
		c0.1-4.4-0.9-8.7-2.5-12.8c-3.1-8.2-5.9-16.6-7.7-25.1c-0.8-3.7-2.1-7.3-2-11.3c5.7-5.3,29-3,36.9,2.9c-1,4.9-0.4,10.2-1.7,15.3
		c-0.7,2.7,0.1,5.2,0.4,7.7c0.3,2,0.6,4,0.4,6c-0.6,5.8-0.2,11.7-1.4,17.4c-0.9,4.3-0.5,8.7-1.3,13c-0.4,2.4-1,4.6-2.3,6.7
		c-1.9,2.9-2.2,5.8-1.3,9.1c1.7,6.2,2.5,12.5,2.7,18.9c0.2,5.7-0.8,11.4-2,16.9c-1.8,8.1-2,16.2-1.1,24.4
		C419.1,487.3,420,489.1,418.2,490.3z M410.6,418c-2.3-2.6-2-6-2.8-9c1.4-3.4,1.4-3.4,0.6-5.3c-1.2,3.4-1.5,6.6-1.9,9.8
		C406.2,415.9,407.7,417.4,410.6,418z M418.5,425.7c-1.9,2.1-3.6,8.4-3.2,11.2C417.3,433.3,417,429.3,418.5,425.7z M411.8,398.7
		c1.3,2.5,2.8,4.7,6.6,5C416.2,401.3,414.2,399.7,411.8,398.7z M413.9,405.9c-0.8,2.7,0.3,4.7,0.7,7.1
		C416.3,410.2,416.2,408.9,413.9,405.9z M414.4,446.2c0.6-1.1,1-1.7,0.3-2.7C413.9,444.1,413.6,444.9,414.4,446.2z"/>
	<path fill="none" d="M461.8,242.8c-9.9-4.3-19.3-6.2-29.2-5.6c-5.8,0.3-11.6,0.4-17.4,1.1c-6.3,0.8-12.2,3.1-18,5.4
		c-0.4,0.2-0.8,0.6-1.5,0.3c-1.5-1.4,0-3.8-1.5-5.4c-1.3-1.5-1.2-3.5-1.4-5.5c-0.4-0.5-0.8-1.1-1.3-1.6c-3.8-4-4.8-8.9-4.1-14.2
		c0.7-5.6,2.2-10.8,6.1-15.3c3.5-4.1,6.2-8.6,7.6-13.9c0.5-2.1,1.4-4,2.1-6.2c1.4-0.5,2.9-0.4,4.7-0.5c0,3.3-0.8,6.3-1,9.3
		c-0.1,3-0.9,5.9,1.7,9.1c7,2.7,14.7,4.3,22.9,2.1c2.5-0.7,5-1.5,7.4-2.4c4-1.5,6-4.6,6-8.8c0-3.5,0.4-7.1-0.5-10.6
		c-0.2-0.9-0.2-1.8-0.2-2.9c1.8,0.2,3.5,0.3,5.1,1.6c0.9,5.3,3.7,10.2,5.2,15.5c0.6,2.2,1.9,4.1,3.5,5.7c4.2,4.4,7.7,9.3,9.3,15.4
		c0.2,0.8,0.7,1.5,1.3,2.7C464.1,225.3,462.4,233.7,461.8,242.8z M402.9,231.3c-1.6-1.1-11.7-3.6-13.2-3.4
		C393.8,231.1,398.4,230.9,402.9,231.3z M464.1,225.4c-3.9,1.2-7.6,2.7-11.4,4.2C457.1,229.8,460.8,228.1,464.1,225.4z M446.9,230
		c-1.6-0.7-3.2-1.3-5.5-1.1C443.4,230.2,445,230.7,446.9,230z M405.4,231c1.5,0.6,2.7-0.1,4.1-0.7C407.8,230,406.7,230.5,405.4,231z
		"/>
	<path fill="none" d="M431.2,347.1c-0.9-3.2,0.1-6.8-1.6-10.2c-1.4,1.5-0.2,3-0.6,4.6c-1.5,0.8-1.4,2.6-2,4.2
		c-5.2-2.3-10.6-3.3-16.1-3.9c-2.9-0.3-5.9-0.4-8.9-0.6c-2.5-0.2-4.9,0.6-7.4,1c-2,0.4-3.9,1-6.2,0c-0.6-3.8-1.3-7.8-2-11.8
		c-1.4-7.7-0.5-15.4,1-23c0.1-0.6,0.1-1.3,0.5-1.7c2.5-2.6,3.2-5.9,3.9-9.5c11.4,7.1,23.8,10,36.4,12.4c3.5,0.7,7.1,1,10.6,0.4
		c0.6-0.1,1.2-0.2,1.8-0.2c8.7,0.9,16.3-2.2,23.4-6.6c0.8,2.3,4,34.4,3.6,38.1c-3,1.7-6.3,3.5-9.9,4c-5.1,0.6-10,2-15.1,2.8
		c-2.5,0.4-5,0.6-7.4,0.8C434.1,348.2,432.7,348.3,431.2,347.1z M435.7,322c0.9-0.5,1.8-1.1,2.1-2.2c0.9,0.1,1.4-0.4,1.9-1.1
		c-1-0.1-1.5,0.4-1.8,1.2C436.6,320,435.8,320.6,435.7,322c-1,0.2-1.3,0.8-1.2,2C435.3,323.4,435.8,322.9,435.7,322z M411.5,337.7
		c0.2-4.7-0.7-6.3-3.5-6.1c-2.1,0.1-3.5,1.8-3.3,3.9C405.1,337.9,407,338.6,411.5,337.7z M403.4,337.5c0.5-3.3,0.1-4.2-1.6-4.9
		c-1.7-0.7-3.8,0-4.6,1.5c-0.7,1.3-0.4,3.2,0.7,4.2C399.4,339.5,400.7,339.3,403.4,337.5z M396.1,338.6c-2.3-1.8,1-3.9-0.8-5.7
		c-2.2-0.8-2.2-0.8-4.7,0.1c-0.2,2-0.2,3.9,0.2,5.9c1.5-0.2,0.7-2,1.9-2C394.1,337.1,394.3,338.9,396.1,338.6z M418.5,326.2
		c1,1.8,2.2,3.3,4.2,3.8C421.4,328.7,419.9,327.5,418.5,326.2z M418.2,317.4c0.4,1,1,2,2.9,2.4C419.7,318.7,419,318,418.2,317.4z
		 M429.4,333.3c0.4-1.9,0.4-1.9-0.7-3.7C429,331.1,429.2,332.2,429.4,333.3z M461.9,312.5c0.8,0.2,1.5,0.1,1.7-0.9
		C462.9,311.8,462.3,311.8,461.9,312.5z M425.4,325.1c0.4-0.8-0.3-1.1-0.8-1.5C424.2,324.5,424.9,324.8,425.4,325.1z M415.7,324.7
		c-0.1-0.5-0.3-1.3-1-0.8C415.1,324.1,415.4,324.4,415.7,324.7z"/>
	<path fill="none" d="M459.9,411.9c3.1,3.5,3.9,7.7,4.2,12c0.3,4.5,0.2,9,0.1,13.5c-0.1,3.5-1.7,6.7-2.8,9.9
		c-1.4,4.1-3.4,8.1-4.2,12.5c0,0.2-0.1,0.5-0.2,0.7c-2.3,4.7-4.1,9.6-5.1,14.7c-1.8,0.4-3.2-0.5-4.8-0.8c0.4-2.6,1.1-5,0.3-7.9
		c-0.5,2.5-1,4.6-1.5,6.8c-0.3-2.4-0.2-4.6,0.1-6.9c0.5-3.7,0.6-7.5,0.1-11c-0.8-5.1-1.3-10.4-2.7-15.4c-1.3-4.5-1.1-8.9-0.2-13.3
		c0.4-1.9-0.3-4.1,1.7-5.6c-0.8-2.6-2.1-4.8-3.6-6.9c-0.6-0.9-1.3-1.7-1.4-2.8c-0.4-5.9-2.2-11.6-3.3-17.3c-1.4-7.6-1.8-15.3-2.4-23
		c-0.6-7-0.2-14-2.5-21c12.4-0.3,24.4-1.6,35.9-6.2c0.7,0.5,0.4,1.4,0.4,2.2c0,7.7-0.1,15.5-0.9,23.1c-0.6,5.2-2,10.2-3.2,15.3
		c-1.3,5.5-2.9,11-3.8,16.7C459.6,404.6,459.1,408.2,459.9,411.9z M445.6,406.5c-1.5,2.2-1.6,4.7-0.6,6.8c0.6,1.2,1.3,2.6,3.4,1.9
		C446.8,412.6,445.2,410.1,445.6,406.5z M452.7,408.5c1,2.5,0.2,4.6,0.8,6.9C455.4,411.8,455.4,410.9,452.7,408.5z M452.5,402.3
		c-2.5-3.3-3.1-3.7-5.1-3.5C448.8,400.5,450.3,401.8,452.5,402.3z M446.3,423.4c0,1.1-0.2,2.3,0.8,3.1
		C447.4,425.3,447.5,424.2,446.3,423.4z"/>
	<path fill="none" d="M578.1,141.2c1.1-0.1,1.7-0.3,2.4,0.4c0,1.6-0.6,3.6,0.8,5.2c1.4,1.7,4,1.8,5.6,3.6c-2.9,0.9-2.9,0.9-4,3.1
		c0.9-0.6,1.8-1.3,2.8-2c3.7-0.9,7.3,2.3,11.8,0.5c-1,1.9-2.3,2.3-3.4,2.9c-2.7,1.3-4.8,3.2-6.2,5.7c-1.5,2.7-3.7,4.7-5.9,6.5
		c-6.7,5.3-13,11.1-19,17.2c-7.1,7.2-15.4,12.6-25.7,14.4c-3,0.5-6,1.5-8.9,2.4c-12.7,4.1-25.8,5.2-39,4.2c-2.2-0.2-4.5-0.4-6.7-0.5
		c-4.9-0.3-8.9,1.2-11.5,5.6c-0.6,1.1-1.4,2.1-2.3,3.5c-0.9-1.9-1.9-3.4-2.3-5.1c-0.8-3-2.6-5.3-4.7-7.4c-1.2-1.2-2.4-2.3-3.5-3.6
		c-1.5-1.7-2.8-3.3-3-5.8c-0.1-1.7-1.3-3.3-1.9-4.9c-0.9-2.4-1.8-4.9-2.7-7.6c3.3-0.2,6.4-0.9,9.5-1.5c6.8-1.3,13.6-0.9,20.1,0.8
		c10.1,2.6,20.4,4.1,30.8,4.6c2.7,0.1,5.3,1.1,8,1.7c4,0.9,7.7,0.8,11.7-1.1c5.4-2.6,11.2-4.6,17.1-6.1c3-0.8,5.8-1.9,8.2-4
		c2.4-2,5.2-3.3,8-4.6c5.3-2.5,10.3-5.5,14.4-10.8c0.7-3.4,1.8-7.5-0.4-11.6C577.3,145.2,578.7,143.3,578.1,141.2z M457.8,181.5
		c-1.3,0-2.8-0.2-3.6,1.3C455.4,182.6,456.7,182.5,457.8,181.5c1.1,0,2.2,0,3.7-0.5C460,181,458.8,180.6,457.8,181.5z M482.5,185.9
		c-6,2.9-11.3,7-17.4,9.5c-1,0.4-2.1,0.9-2.1,2.9C470,194.4,476.9,191.1,482.5,185.9z M499.5,190.3c-2,0-3.9-0.1-5.9,0
		c-2,0.2-4.1-0.9-6.2,0.6C491.5,192.2,495.2,192.2,499.5,190.3z M478.3,200.4c1.9-0.9,3.6-1.9,4.7-3.8
		C481,197.3,479.4,198.6,478.3,200.4z M502.2,190.9c1.1,0.5,1.6,0.1,2.1-0.5C503.3,190.4,503.3,190.4,502.2,190.9z"/>
	<path fill="none" d="M270.3,172.2c-0.1-1.2,1.6-0.9,1.6-2c-0.9-0.7-1.4,0.5-2.2,0.5c-1.3-0.8-2.6-1.6-3.7-3.3
		c2-0.7,3.5-2.1,5.1-3.5c1-0.1,2-0.2,3-0.2c0.2-1.2-1.2-0.5-1.2-1.3c0.7-1.6,2.7-2.1,3.7-3.6c-1.1-1-1.9-0.4-2.6,0.2
		c-1.8,1.5-3.5,3.1-5.2,4.7c-0.1-1.2,0.5-2.3-0.2-3.5c-2.5-1.9-2.5-1.9-5-0.3c2.5,0.2,4.2,1.1,4.6,3.5c0,0.1,0.4,0.1,0.7,0.2
		c0.1,0.8-0.2,1.3-1,1.6c-1.3,0.5-2.7,0.8-4.3,0.1c-0.8-1.3-1.5-2.9-1-4.7c0.2-0.7,0-1.4-0.3-2c2.2-0.1,3.4-2.4,6.1-2.1
		c-1.8-1.6-3.1-1.5-4.2-0.4c-0.7,0.7-1.2,1.7-1.9,2.6c-0.4,0.2-0.8,0.4-1.2,0.6c-0.7-0.4-0.7-1-0.8-1.6c3.7-4.4,6.7-4.8,8.8-1.3
		c3.4,0.1,6.1-2.4,9.4-3c-0.8-0.4-1.6-0.7-2.4-1.1c-0.5-0.8-0.8-1.6-0.4-2.6c1.3-0.4,2.3,0.5,3.3,0.4c3.4,5.7,1.9,11.3,0.4,16.9
		c0.2,1.2,1.7,1.8,1.6,3.1c-1,0-1.5-1.4-2.9-1.2c0.6,1.4,1.4,2,2.6,2c0.1-0.4,0.1-0.7,0.2-0.9c1.3-0.1,2.1,1,3,1.6
		c4.4,3,9,5.7,13.2,9.1c5.3,4.2,12,5.4,18.2,7.8c3.6,1.4,7.3,2.8,10.1,5.8c1.3,1.4,3.1,1.6,5.3,1.9c2.5-3.5,6.8-4,10.8-5
		c4.2-1,8.3-2.9,12.8-2.8c1.2,0,2.4-0.1,3.5,0.3c2.8,1,5.3,0.4,7.8-1.2c2.2-1.4,4.4-2.8,6.9-3.6c9.4-3.1,18.8-4.7,28.7-1.9
		c-1.6,7.4-5.6,13.7-10.4,19.5c-1.1-2.4-3-3.7-5.7-3.6c-2.9-3.9-8.7-7.1-12.4-6.3c2.4,1.1,4.3,2,6.3,2.9c2.2,1,3.8,2.8,6.2,3.4
		c1.1,2.4,3.5,2.9,5.7,3.6c-2.4,3.4-3.9,7.3-4.4,11.9c-1.6-1.4-2-3.3-3.4-4.3c-1.6-0.6-3.3-0.5-4.8,0.2c-3.1,1.6-6.4,1.6-9.7,1.9
		c-2.2,0.2-4.5,0.3-6.7,0.8c-5,1-9.9,0.4-14.9,0.1c-5.4-0.3-10.8-0.1-16.2-1.3c-3-0.7-6-1.4-9.2-0.9c-1.2,0.2-2.3-0.4-3.4-1
		c-6.1-3.4-11.8-7.5-17.5-11.6c-2.2-1.6-4-3.7-5.9-5.6c-6.2-6.1-13.3-11.1-20.6-15.8c-1.7-1.1-2.2-3-4-3.8L270.3,172.2z
		 M358.8,198.1c3.4,0.5,9.9-0.9,11.8-2.4C366.3,195.5,362.6,197,358.8,198.1z M382.8,205.4c-0.8-3.4-0.8-3.4-3.1-2.8
		C380.7,203.6,381.7,204.5,382.8,205.4z M266.5,163c-0.7-1.4-1.4-1.8-2.6-1.1C264.3,163.1,265,163.3,266.5,163z M318.8,208.1
		c1.1,0.5,2,0.9,3.3,0.9C321.1,207.8,320.2,207.7,318.8,208.1z M324.3,195.1c-0.5-1.1-1.4-0.8-2.4-1.5
		C322.7,194.9,323.3,195.1,324.3,195.1z"/>
	<path fill="none" d="M414.3,113c0.5-0.4,0.9-1.1,2-1.3c0.7,2.7,1,5.7,4.2,7.5c-1.1-3-2.9-5.6-2.5-9c2.3,1.2,0.7,3.4,1.7,4.7
		c1,1.3,1.4,3,2.5,4.2c1.1,0.5,2.4,0.1,3.5,0.6c0.5,0.2,0.7-0.3,0.7-0.9l-0.1,0.1c0.8-0.3,1.4,0.6,2.2,0.4c1.4-0.4,2-1.7,3-2.7
		c0.4,0.7,1.1,0.9,1.8,0.5c0.5-0.3,0.2-0.8-0.1-1.2c0.3,0,0.5,0.1,0.8,0.1c0.1-0.3,0.3-0.6,0.4-0.9c1,0.4,0.3,1.4,0.7,2.1
		c0.7,0.3,0.8-0.6,1.4-0.6c-0.1,1.1,0.3,1.8,1.5,1.5c0,0.5-0.1,1,0.3,1.4c0.4-0.3,0.9-0.6,1.6-1.1c-0.1,1.6,0.9,2.7,1.1,4.1
		c1-1.1,0.9-2.5,1.3-4.5c0.3,1.1,0.5,1.6,0.6,2c0.4,1.8-0.9,3.1-1.4,4.7c-0.4,1.5,1.5,2.9-0.2,4.4c1.3,1.3,1.8,2.7,1.7,4.5
		c-0.1,1.3,0.2,2.5,0.5,3.8c0.6,2.3,0.5,4.6-0.4,6.9c-1.4,3.8-2.1,7.8-3.2,11.6c-1.5,5.5-5,9-10.6,10.3c-2.2,0.5-4.2,0.4-6.2-0.4
		c-5.4-2.1-8.7-6-10.1-11.6c-0.7-2.8-1.6-5.4-2.6-8.1c-1-2.8-1-5.8-0.9-8.8c0-1.1,0.1-2.1,0.2-3.1c0.2-1.1,1.2-1.5,1.8-2.1
		c0.4-0.9,0.1-1.7,0-2.5c-2-0.6-1.2-2.6-2.1-3.4c0.2-0.9,0.7-0.9,1.2-1.2c-0.3-0.7-0.6-1.5-0.7-1.9c0.9-2.1,0.4-4.3,1.3-6
		c0.7,0.8,1.5,1.8,2.6,3.1c0.4-2,1.9-1.4,2.5-2.6c-0.5-1.4,0.1-3.5-2-4.6L414.3,113z M413.7,136.3c0.7,1-1.2,1.5-0.5,2.6
		c1.2,0.8,1.6-1,2.6-0.6c0.8,0.7,1.5,1.4,1.6,2.4c2,0.6,1-1.6,2-1.8c0.6-0.4,1.7,1,2-0.6C419.5,135.7,416.9,135.1,413.7,136.3z
		 M438.4,136.2c-2.1-1.1-4.1-1.1-6.2-1c-1,1.1-1.9,2.2-3.4,3.8c1.9-0.3,3.2-1.5,4.4-0.3c0.2,0.2,1.1,0.1,1.3-0.2
		c1.1-1.3,2.2-0.3,3.2-0.1c0.1,0,0.3-0.2,0.4-0.3c-0.1-0.9-1.1-0.7-1.5-1.4C437.2,136.6,437.6,136.5,438.4,136.2z M433.8,155.4
		c-5-0.4-9.4-2-13.7,0.5C422.8,156.8,431,156.7,433.8,155.4z M438.8,132.8c-3.4-1.8-8.6-1.4-11.3,1
		C431.4,133.3,435,132.2,438.8,132.8z M421,158.3c3.4,2.1,4.4,2.4,7,1.9c1.3-0.2,2.7-0.4,3.3-2.4C427.9,159.5,424.8,159.1,421,158.3
		z M412.6,132.8c3.1-0.2,6.3,0.4,10.1,1.7C419.1,131.5,416.3,131.1,412.6,132.8z M429.8,149c-0.8,0.1-1.7-1.1-2.3,0.2
		c2.4,1.2,3.1,1,3.6-0.9c0.1-0.4-0.3-0.9-0.8-1C430.1,147.9,430,148.5,429.8,149z M439.4,129.8c0.1,0.6-0.4,1.4,1,1.5
		C440.3,130.6,440.3,130.1,439.4,129.8z M425.2,149.8c-0.8-0.9-0.8-0.9-1.3,0.1C424.4,150.2,424.8,150.2,425.2,149.8z"/>
	<path fill="none" d="M417.4,164.2c2.1,1,3.9,1.8,5.7,2.7c2.6,1.4,5.1,1.5,7.8,0.1c2.1-1.1,4.3-1.8,6.4-3.5c1,4.6,1.4,9.2,5.4,12.2
		c0.1,2.3,0.2,4.5,0.3,7c-4.2,1.2-8.2,2.3-12.8,4.1c2.8,0.5,4.5-0.7,6.4-1.2c1.9-0.5,3.8-1.4,6.1-1.4c1.4,3.8,0.8,7.4-0.7,10.9
		c-0.7,1.6-2.3,2.4-3.8,3c-3.8,1.4-7.6,2.7-11.6,2.8c-1.2-0.9-0.2-2.4-1.2-3.3c-1.7,0.6-0.5,2.4-1.6,3.7c-5.1-0.8-10.8-0.4-15.2-4.9
		c0.5-5.4,0.9-10.6,1.4-16C417.6,177.6,417.1,170.9,417.4,164.2z M420.3,178.5c-0.6-2.2-0.3-4.7-2-7.3
		C417.8,174.4,418.8,176.5,420.3,178.5z M416.5,186.3c1.9,0.6,3.7,1.9,6.2,1.2C420.6,186.1,418.4,186.6,416.5,186.3z M422.2,182.1
		c0.1,2.4,0.8,3.9,2,5.8C424.5,185.4,423.6,184,422.2,182.1z M427,184.5c-0.4,1.3-1,2.6-0.2,4.2C428.2,187.2,427.9,185.9,427,184.5z
		 M434.6,169.7c1-1,1.1-1.9,0-3C434.2,167.8,434,168.7,434.6,169.7z"/>
	<path fill="none" d="M429.4,535c-5,0-9.9,0.7-14.7-0.1c-0.5-0.1-0.9-0.1-1.4-0.1c-5.1,0.3-9-3.7-7.5-8.7c1.5-4.8,2.2-9.7,4.1-14.3
		c0.1-0.2,0.2-0.4,0.5-0.8c3.9-0.3,7.9-0.2,12.3-0.4c-2-2.7-3.4-2.9-12.2-2c-0.4-0.4-0.5-0.8-0.2-1.5c3.9-0.5,7.9-0.8,12.2,0.2
		c-1.6-2.9-1.7-2.9-10.4-2.7c-0.9-0.9-0.5-2-0.5-3c0-1.1,0-2.1,0-3.3c2.4-1.1,4.9-0.6,7.2-1.2c0.3,0.3,0.6,0.4,0.7,0.6
		c1.2,2.5,1.7,5.2,3.5,7.5c1.6,2,2.4,4.9,2.7,7.6c0.1,1.5,0.9,2.7,1.5,4c0.6,1.2,1.1,2.4,1.7,3.5C432.1,527,432.1,527.4,429.4,535z
		 M410.5,513.8c2.8,1.1,8.5,1.5,11,1c0.8-0.2,1.6-0.4,1.7-1.5C420.4,511.6,414.5,511.7,410.5,513.8z M411.6,533.5
		c3.4,0.1,5.5-2.4,8.2-1.9c2.7,0.4,5.4,1.5,8.5,1.4C423.4,529.4,415.7,529.1,411.6,533.5z M412.5,519.8c-0.1,0.3-0.1,0.6-0.2,0.9
		c2.1,1,4.1,1.9,7,3.2c-1.1-2.8,2.5-1.6,2.2-4.2C418.4,518.7,415.4,519.5,412.5,519.8z M422.1,517.1c-2.2-1.8-4.9-1-7.3-1.1
		c-1.1-0.1-2.3,0.1-3.1,1.9C415.4,518.1,418.8,518.6,422.1,517.1z"/>
	<path fill="none" d="M641.8,150.1c-2.2-0.8-4.4-0.6-6.7-0.4c-9.7,0.8-19.4,0.7-29.1,0.5c-2.7-0.1-5.4,0.5-8.4-0.1
		c0.3-1.8,1.5-3.4-0.2-5.5c15.6,0,30.6,0,45.7,0C643.8,146.7,642.6,148.4,641.8,150.1L641.8,150.1z"/>
	<path fill="none" d="M213.4,156.7c0.3-1.2,0.6-2.3,0.9-3.5c15.5,2.6,30.8,5.7,46.2,7.8c0.4,1.4,0.7,2.6,1.1,3.9
		C245.2,163.7,229.5,159.4,213.4,156.7z"/>
	<path fill="none" d="M223,152.5c12.8-0.7,25.7-0.8,38.9-2.2c-0.8,2.1-2,3.2-3.1,4.6c-5.9,0.8-12,0.1-18,0.5
		C234.6,155.8,229,153,223,152.5z"/>
	<path fill="none" d="M584.7,140.9c1.6,1,3.2,1.2,5,0.7l-0.1-0.1c0,0.5,0.1,1-0.1,1.4c-1.5,3.5-1.5,3.5-0.9,6.3
		c-6.3-3.3-6.3-3.3-6.7-6.1C582.6,141.9,584.6,142.6,584.7,140.9L584.7,140.9z"/>
	<path fill="none" d="M599,140.7c5.6,0.4,11,0.7,17.1,1.1c-1.8,0.8-3.1,0.9-4.4,0.9c-3.5,0.1-7.1,0-10.6,0.1
		C600,142.8,599.4,142.4,599,140.7z"/>
	<path fill="none" d="M442.7,152.1c-0.2,6.3,1.5,12.5-0.9,18.5c-1.8-1.8-0.7-4.5-2.2-6.2c1.3-1,1.5,0.6,2.2,0.7
		C443.1,160.9,440.1,156.5,442.7,152.1z"/>
	<path fill="none" d="M259.4,155.7c-0.4,1.5-0.4,1.7,0.1,3.6c-4.2-0.4-8.2-1.2-12.1-2.3C251.5,156.3,255.6,157.2,259.4,155.7
		L259.4,155.7z"/>
	<path fill="none" d="M433.5,108c-0.6,0.4-1.2,0.7-2,0.5c-1.3-0.4-0.1-2.1-1.6-2.6c-1.4,0.6-2.4,3.1-4.6,1.6c3-3.1,6-3.4,9.5-0.9
		C434.9,107.7,433.7,107.4,433.5,108L433.5,108z"/>
	<path fill="none" d="M595.2,145.2c1.6,2.6,1.3,3.2-2.2,4.1c-0.7-1.7-3-2.7-2-5.3C592.6,144,594,144.3,595.2,145.2
		c-0.9,0.2-2-0.2-2.5,1.1c0.4,0.8,1,1.1,1.7,0.8C595.1,146.6,595.1,145.9,595.2,145.2z"/>
	<path fill="none" d="M259.5,155.8c1.2-1.4,2.5-2.8,3.7-4.1c3.6-0.9,6.3,1.4,9.3,2c0.2,0.8-0.4,0.8-0.8,0.9
		c-0.5,0.2-0.9-0.2-1.3-0.4c-2.3-1.2-4.7-2.3-6.9-1.2C261.8,153.9,261.2,155.7,259.5,155.8L259.5,155.8z"/>
	<path fill="none" d="M421.6,110.1c1.7,2.3,1.9,5,1.9,8.1C420.9,115.6,420.4,113.1,421.6,110.1z"/>
	<path fill="none" d="M426.3,118.8c-0.7-0.5-0.6-1.3-0.5-2c0.5-2.3,0.9-4.6,0.4-6.8c1.2-0.5,1.9-0.3,2.5,0.4
		c0.5,1.6-1.2,2.2-1.6,3.3c-0.6,1.7,0.4,3.6-0.9,5.1L426.3,118.8z"/>
	<path fill="none" d="M430,115.2c-0.6,0-0.7,0.6-1.3,0.9c0-2.3,0.4-4.3,1.8-6c0.6-0.2,1.2-0.1,1.8,0.5c-0.2,1.6-0.1,3.4-1.7,4.6
		c-0.1-0.7,0.3-1.5-0.3-2.4C430,113.7,429.9,114.4,430,115.2z"/>
	<path fill="none" d="M437.6,114.5c0.1-0.4,0.3-0.9,0.5-1.5c1.8,1,3.2,2,3.4,4.1c-1,0.8-0.9-0.9-1.9-0.5c-0.3,0.2-0.7,0.6-1.2,0.9
		C438.2,116.5,437.9,115.5,437.6,114.5z"/>
	<path fill="none" d="M584.8,140.8c-0.8,0.2-1.6,0.1-2.4-0.3c2.4-3.5,3.1-4.1,5.9-4.5C587.3,137.9,584.5,138.4,584.8,140.8
		L584.8,140.8z"/>
	<path fill="none" d="M264.4,149.5c3.3,0,6.4,0.5,9.3,2.3c-1.7,0.4-3.2-0.1-4.7-0.8C267.5,150.4,265.9,149.9,264.4,149.5z"/>
	<path fill="none" d="M586.6,139.8c1.4-1,2.2-2.8,4.1-3.1C590.7,139.5,590.2,139.9,586.6,139.8z"/>
	<path fill="none" d="M196.1,155c4.9-1,6.4-0.8,8.7,0.8C201.6,155.4,198.9,155.2,196.1,155z"/>
	<path fill="none" d="M208.7,154.5c0-0.9-1.1-0.7-1.4-1.3c0.4-1,1.2-0.9,2.1-0.7c0.6,1.2,0.2,2.4,0,3.8c-0.8-0.3-1.6-0.6-2.3-0.8
		C207.3,153.9,208.5,155.8,208.7,154.5z"/>
	<path fill="none" d="M598.4,142.9c-3-0.3-4.6-1.8-6.6-3.9c1.8,0.2,2.6,1,3.4,1.6C596.2,141.2,597.4,141.5,598.4,142.9z"/>
	<path fill="none" d="M583.8,136.2c-1.3,1.2-2.6,2.4-4.4,4.1C580.6,138,581.5,136.5,583.8,136.2z"/>
	<path fill="none" d="M444.1,147.7c-0.8-2.7,1.2-3,2.1-4.4C446.2,145.1,445.4,146.1,444.1,147.7z"/>
	<path d="M437.6,114.5c0.3,1,0.6,2,0.8,3c-0.1,0.2-0.3,0.3-0.5,0.4c-1.3,0.3-1.6-0.4-1.5-1.5C436.8,115.8,437.2,115.1,437.6,114.5z"
		/>
	<path fill="none" d="M447,141.5c-0.4-0.6-0.8-1.1-1.2-1.7c0.2-0.7,0.6-1.4,1.7-1.7c0.5,1.1,0.1,2.1,0.2,3.2
		C447.5,141.3,447.2,141.4,447,141.5z"/>
	<path fill="none" d="M182.7,153.1c0.7,1,1.8,1.6,3.3,2.6C183.8,155.6,182.3,155.4,182.7,153.1z"/>
	<path d="M595.2,145.2c-0.1,0.7-0.1,1.4-0.8,1.8c-0.8,0.3-1.3,0-1.7-0.8C593.2,145,594.3,145.4,595.2,145.2L595.2,145.2z"/>
	<path fill="none" d="M408.1,144c-1.3-1-1.1-2.1-0.8-3.4C409,141.5,408,142.9,408.1,144z"/>
	<path fill="none" d="M433.6,115.1c-1.5-1.6-0.1-2.9,0.1-4.8c1.5,1.9-0.4,3-0.2,4.3C433.5,114.8,433.5,115,433.6,115.1z"/>
	<path fill="none" d="M414.2,112.9c0.2,1,0.8,1.8,0.7,2.9c-1.2-1.3-1.2-1.3-0.6-2.8L414.2,112.9z"/>
	<path d="M433.1,115.8c0.3,0.4,0.6,0.9,0.1,1.2c-0.7,0.5-1.3,0.2-1.8-0.5C431.8,115.9,432.5,115.9,433.1,115.8z"/>
	<path fill="none" d="M433.5,108.1c1,0,2.2-0.8,2.9,1.4C435.1,109.1,434.2,108.7,433.5,108.1L433.5,108.1z"/>
	<path fill="none" d="M436.9,112c0.6,1.5-0.2,1.9-0.9,2.6C435.4,113.2,436.1,112.6,436.9,112z"/>
	<path fill="none" d="M424.5,109.7c0.6,0.7,0.2,1.2-0.4,1.6c-0.7,0-0.5-0.6-0.5-0.9C423.6,109.9,424,109.6,424.5,109.7z"/>
	<path fill="none" d="M589.7,141.6c0.6-0.5,0.7-1.7,2.1-1.3C591.4,141.6,590.4,141.3,589.7,141.6L589.7,141.6z"/>
	<path d="M430,115.2c-0.2-0.8,0-1.5,0.3-2.4c0.6,0.8,0.3,1.6,0.3,2.4l-0.3,0L430,115.2z"/>
	<path fill="none" d="M410,131.4c-1.3,0.2-1.5-0.2-1.1-1C409.6,130.2,409.7,130.7,410,131.4z"/>
	<path fill="none" d="M433.6,115.1c0-0.2,0-0.3-0.1-0.5c0.4-0.2,0.7-0.1,0.8,0.3c-0.1,0.3-0.3,0.6-0.4,0.9
		C433.8,115.6,433.7,115.4,433.6,115.1z"/>
	<path fill="none" d="M882.5,397.9c-1,4.2-1.9,8.3-2.9,12.3c-1.2,4.8-1.2,9.6-0.6,14.5c1.1,9.5,3.6,18.6,6.3,27.7
		c0.2,0.6,0.3,1.1,0,2c-8.8,4.3-18,7-28.2,6.1c-8.3-0.8-16.4-2.3-24.4-4.9c-4.5-1.5-9.2-2.5-13.4-4.6c-1.6-0.8-3.3-1.4-4.6-2.8
		c0.8-5.1,2-10.3,4.7-14.7c3.1-5,3.2-10.6,4.1-16c0.5-2.7-0.5-5.4-1.5-8c-1.1-2.9-2.3-5.7-3.4-8.6c1.2-1.2,2.7-1.7,4.1-2.3
		c7.9-3.1,16.2-4.7,24.6-4.9c3.8-0.1,7.6-0.5,11.4-0.6C866.9,393.1,874.8,394.7,882.5,397.9z M849.2,426.8c-0.9,2.6-0.6,5-0.7,7.5
		c-0.8,0.6-1.9,0.9-2,2.2c1.1,0.2,1.7,1.4,2.9,2.1c0.4-1.4,1.8-1.7,2.7-2.5c-0.6-1.3-2.1-1.4-2.7-2.7
		C849.4,431.2,849.3,429,849.2,426.8z M826.2,447.4c-1.3-2.5-2-5.3-4.1-7.8C822.5,442.9,823.4,444.6,826.2,447.4z M873.3,452.6
		c-1.7,0.6-2.6,1.9-3,3.6C871.7,455.4,872.6,454.1,873.3,452.6z M876.6,402.4c-1.1,0.9-2,2-2.4,3.9
		C875.8,405.1,876.4,403.9,876.6,402.4z M825.4,403.5c0.2,1.5,0.6,2.8,2.9,3.4C827,405.4,826.2,404.5,825.4,403.5z M829.3,451.7
		c0-1.4-0.7-1.9-2-2.3C827.7,450.7,828.3,451.3,829.3,451.7z M860.6,455.5c-1,0.9-1.9,1.3-1.9,2.5
		C859.8,457.5,860.3,456.9,860.6,455.5z M844.4,401.7c-1.2,0.5-1.7,1.1-2,2.1C843.6,403.5,844.1,403,844.4,401.7z"/>
	<path fill="none" d="M840.4,575.8c1.5,5.9,2.6,11.4,3.2,16.9c0.9,8.3-0.5,16.3-2.1,24.3c-1.3,6.4-1.7,12.9-1,19.5
		c0.3,2.6,1.1,5.2-0.3,7.9c-0.5,1.1,0.7,2.5,0.4,4.1c-2.6,1-5.4,0.5-8.2,0.8c-1.2-1.8-1.9-3.7-2.2-5.7c-0.7-5-2.2-9.7-3.9-14.4
		c-2.2-6.1-2.7-12.5-4-18.7c-0.9-4.4-1-9-1.4-13.4c-0.5-5.6,0.1-11.2,1.7-16.6c2-7,2-14.1,1.3-21.2c-0.2-2.4-0.5-4.7-0.3-7.1
		c0.4-5.6-1-10.8-2.8-16c-2.9-7.9-5.6-15.9-7.3-24.2c-0.8-3.7-2.1-7.4-1.9-11.8c12.7-4.5,24.8-2.3,37,3.1c-1,5.5-0.6,10.8-1.9,16
		c-0.3,1.4-0.3,2.8,0,4.2c1.3,5.8,0.8,11.6,0.4,17.4c-0.4,4.5-0.3,9-1.7,13.4c-0.3,1.1-0.1,2.4-0.1,3.5c0,4.3-0.5,8.5-2.9,12.3
		C841.1,572.1,840.9,574.1,840.4,575.8z M838.7,584.5c-2.5,1.3-1.5,3.8-1.8,5.8C838.3,588.6,838.9,586.6,838.7,584.5
		c0.7-1.7,1.6-3.2,1.4-5.7C838.4,580.9,838.7,582.7,838.7,584.5z M833.1,572.3c-2.3-3-2.9-5.7-3.3-8.9
		C827.2,567.5,828.2,570.7,833.1,572.3z M836.8,566.8c1.6-2.8,0.9-4.9-0.9-6.8C835.3,562.3,835.8,564.4,836.8,566.8z M833.7,552.6
		c1.3,2.3,2.7,4.6,6.3,4.7C838.1,555,836.1,553.5,833.7,552.6z M829.5,562.5c0.9-1.8,1.9-3,0.9-5.2
		C829.4,559,829.2,560.4,829.5,562.5z M836.1,599.7c0.6-0.8,1.4-1.4,0.3-2.7C835.6,597.9,835.5,598.6,836.1,599.7z"/>
	<path fill="none" d="M886.6,455.7c0.1,13.2,3.2,25.5,3.4,38.3c-3.2,2-6.5,3.7-10.1,4.2c-5.8,0.8-11.4,2.3-17.2,3.2
		c-2.2,0.3-4.5,0.4-6.7,0.4c-1,0-1.9,0-2.9-1c-0.7-3-0.1-6.5-1.5-10c-1.6,1.3-0.5,2.8-0.8,4c-0.7,1.4-2.1,2.6-1.4,4.9
		c-8.6-3.7-17.2-4.3-25.8-4.7c-3-0.1-5.9,0.7-8.8,1.3c-1.4,0.3-2.8,0.5-4.2,0c-1-1.1-0.8-2.5-1-3.7c-0.6-3-1.1-6.1-1.5-9.1
		c-1.1-7.7-0.3-15.4,1.4-23c0.1-0.3,0.1-0.8,0.3-1c2.6-2.4,3-5.8,4-9.1c1.6,0.2,2.5,1.4,3.7,2.1c4,2.1,8.3,3.6,12.5,5
		c7.1,2.5,14.3,4.2,21.7,5.3c3.2,0.5,6.4,0.7,9.6,0.1c2.3-0.4,4.5,0.3,6.7,0C874.5,462.1,880.4,459.7,886.6,455.7z M833,490.2
		c-0.2-2,1-4.5-1.9-5.7c-1.5-0.6-3.3-0.2-4.2,1c-1,1.3-1.1,2.7-0.2,4C828.4,491.9,830.7,490.8,833,490.2z M824.8,490.3
		c0.7-3.3,0.3-4.4-1.5-5.1c-1.6-0.6-3.5-0.1-4.4,1.3c-0.8,1.3-0.7,3.2,0.4,4.2C820.6,492,822,492,824.8,490.3z M812.2,485.5
		c0,2,0,3.7,0,5.5c0,0.3,0.3,0.6,0.7,0.5c0.9-0.3,0.2-1.7,1.3-1.9c1.3-0.1,1.5,2.1,3.5,1.6c-2.1-1.8,0.7-3.7-0.7-5.6
		C815.5,484.4,814,484.7,812.2,485.5z M843.7,483.9c-0.9-1.8-2.2-3.2-4.2-3.8C840.9,481.4,842.3,482.6,843.7,483.9z M859.3,473.8
		c-2.2,1.5-2.2,1.5-2.5,3.4C857.6,476.2,858.3,475.2,859.3,473.8z M851.7,487c-0.1-1.2-0.3-2.4-0.4-3.7
		C850.7,484.6,850.8,485.7,851.7,487z M842.3,472.9c-1.1-0.6-1.3-1.7-2.5-1.2C840.6,472,840.8,473,842.3,472.9z M847.7,479.5
		c-0.3-1.4-0.8-2-2-2.9C846.1,478,846.7,478.6,847.7,479.5z M826,463.3c-0.3-0.7-0.3-0.7-0.9-1C825.1,462.9,825.6,463.1,826,463.3z
		 M860.3,472.8c0.6,0,1.3,0.1,1.3-0.8c-0.2,0.1-0.5,0.1-0.6,0.2C860.8,472.4,860.6,472.6,860.3,472.8z M884.2,466.4
		c-0.8-0.2-1-0.3-1.2-0.3c-0.3,0-0.7,0.1-1.1,0.2c0.2,0.1,0.4,0.3,0.6,0.3C882.9,466.7,883.3,466.6,884.2,466.4z"/>
	<path fill="none" d="M873.2,629.2c-1.5-0.6-3-0.5-4.1-1.5c0.1-2.2,0.8-4.3,0.5-7c-1.4,1.5-0.6,3.2-1.7,4.5c0-4.9,0-9.7,0-14.4
		c0-0.9,0.2-1.9-0.1-2.8c-1.9-5.9-1.9-12.2-3.4-18.2c-1-4,0.4-8,0.9-12c0.1-1.2,0.7-2.1,1.2-3.1c-0.6-2.6-2-4.6-3.4-6.6
		c-0.6-0.9-1.4-1.7-1.5-2.8c-0.2-2.9-0.9-5.7-1.5-8.6c-0.8-3.2-1-6.6-1.8-9.8c-1.7-7.3-1.8-14.8-2.4-22.3c-0.3-4.4-0.6-8.8-0.9-13.1
		c-0.2-2.6-0.8-5.1-1.5-7.7c12.4-0.3,24.5-1.7,36.3-6.4c0,2.2,0,4.2,0,6.2c-0.1,12.4-1.1,24.6-4.8,36.6c-1.5,4.9-2.5,9.9-3.2,15
		c-0.5,3.3-0.9,6.8-0.3,10.3c3.6,4,4.1,9.1,4.6,14.2c0,0.2,0,0.5,0,0.7c0.7,8.3-0.8,16.3-4.1,23.9c-1.3,2.9-2.4,5.9-3,9.1
		c-0.2,1-0.7,2-1.2,3c-1.7,3.3-2.9,6.8-3.6,10.4C874.2,627.5,874,628.4,873.2,629.2z M867.2,560.4c-1.7,5.4-0.5,8.5,3.2,8.6
		C868.6,566.4,866.9,563.8,867.2,560.4z M875.1,569.2c2-3.3,1.9-5-0.7-6.6C875.7,564.6,874.6,566.7,875.1,569.2z M874.3,555.8
		c-1.4-1.4-2.5-3.5-4.9-3.5C870.6,554,872,555.4,874.3,555.8z M869,580.5c0.2-2.3,0.2-2.3-1.1-3.8
		C867.8,578.2,867.9,579.4,869,580.5z"/>
	<path fill="none" d="M879.3,306.4c0-0.3,0.1-0.7,0.1-0.9c0.8-0.7,1.6,0.8,2.4-0.2c-0.2-0.5-0.3-1.1-0.6-2.1
		c2.4-2.1,3.6-5.5,6.9-6.9c2.2,2.5,3.2,2.8,8,2c-1.7-1.1-3.7-0.8-5.8-1.9c1.8-1.1,3.5-0.8,5.1-1c6.9-1.2,13.9-1.6,20.9-1.8
		c1.2,0,2.4,0.1,3.5,0.6c3.3,1.5,6.8,2.2,10.3,2.8c8.1,1.5,15.2,5.2,22.1,9.7c-0.2,2.9-1.1,5.5-2.4,8.1c-3.4,6.8-8.8,11.4-15.1,15.2
		c-8.7,5.2-17.1,10.7-26.2,15.1c-8.8,4.3-8.1,3.2-14.5,12.7c-1.5,2.2-3.1,4.5-4.1,7.3c-0.4-0.7-0.8-1-0.9-1.4
		c-0.8-4.1-3.4-7-6.3-9.7c-1-1-2-2-2.9-3.1c-1.1-1.4-2-2.7-2.2-4.7c-0.2-1.8-1.3-3.5-2-5.3c-1-2.5-1.9-5-2.7-8
		c4.3,0.7,7.6-1,10.9-2.8c5.2-2.9,10.6-5.1,16.9-5.7c-0.7,1.9-2.1,3.1-2.3,5c2-1.7,3.8-3.7,5.5-5.6c5.8-6.2,13.1-8.2,21.3-8
		c3.2,0.1,6.5,0.2,10.4-0.3c-3.6-1.6-6.8-0.7-10-1.3c-2.1-2.1-5-3.4-7.2-5.4c-3.8-3.5-8.4-4.6-13.3-5c-4.3-0.3-8.5-0.7-12.8-1.1
		c-0.9-0.1-1.7,0-2.5,0.2c-1.4,1-2.5,2.4-3.3,4.1c-0.7,1.6-1.9,2.6-3.6,3.2c-1.1,0.4-2.1,1-3.1,1.7c-2.5,1.5-3.5,1.6-6.6,0.4
		c-0.4-0.7,0.1-1.1,0.5-1.5l0,0.1c0.6,0,1.1,0,1.7,0.1c0.6,0.1,1.1,0.3,1.4,0.4c2.7-0.2,1.9-3.4,4.1-3.6
		C880.4,306.6,879.7,306.6,879.3,306.4L879.3,306.4z M902.2,341.5c-2.3,0.9-4.9,0.8-7.6,2.4C898.1,344.5,900.2,343.1,902.2,341.5z
		 M881.2,335.1c-3.7-0.2-3.7-0.2-5.6,1.7C877.8,336.3,879.4,335.1,881.2,335.1z M888,348.9c-1.9,0.5-2.9,0.9-3.1,2.7
		C886.3,351.3,887.3,350.9,888,348.9z M893.3,337c1.5-0.7,1.9-1.4,2.2-2.7C894.2,334.7,893.9,335.5,893.3,337z M890,341.6
		c0.3-0.3,1.4-0.2,0.8-0.9C890.5,340.4,890,341,890,341.6z"/>
	<path fill="none" d="M775.7,324c0.5,1.6,1.7,1.7,3.2,1.6c3.5-0.4,6.9,0,10.1,1.5c5,2.3,10.3,2.6,15.6,2.9
		c6.2,0.4,12.2,1.5,17.9,4.2c0.4,0.2,0.8,0.5,1.4,0.8c-2,3.5-3.4,7.2-4.6,11.1c-0.1,0.3-0.2,0.7-0.5,0.9c-2.4,2.1-3.6,5-5.4,7.4
		c-2.7,3.4-4.4,7-4.9,11.6c-1.5-1.4-2-3.1-2.8-4.5c-2.8-5.4-7.2-8.4-13-9.5c-7.3-1.5-14.5-3.6-21.4-6.4c-7.3-2.9-14.3-6.4-20.9-10.6
		c-1.9-1.2-3.2-2.9-4-4.8c-1.2-2.8-2-5.8-3.1-8.9c3.2-0.9,6-2.5,8.8-3.8c5.1-2.5,9.9-5.6,15-8.1c8.1-4,16.4-4.1,25-2.1
		c0.9,0.2,1.8,0.5,2.6,0.7c0.7,0.5-0.1,1.2,0.4,1.7c1.6,0.3,3.1-1.3,4.9-0.1c-1.1,1.3-2.8,1.5-4.3,1.9c-8.7,2.2-16.2,6.5-22.4,13.1
		c-1.1,1.2-2.4,1.8-3.8,2.6c-1.2,0.6-2.8,0.6-3.5,2.1c-1.7-0.1-3.3,0.5-4.7,1.4c1.8,0.3,3.4-0.2,4.6-1.5c2.9,0.1,5.3-1.2,7.6-3
		c0.8-0.6,1.6-1.3,2.4-2L775.7,324z M785.4,339.7c0.4,0,0.5-0.3,0.1-0.3c-1.7-0.1-3.2-1.4-5.7-0.9
		C782,339.5,783.6,339.9,785.4,339.7z M797.6,334.3c-1.1-3-1.1-3-2.8-3.9C795.8,332.8,795.8,332.8,797.6,334.3z M809.3,352.7
		c0.4,1.4,1.2,2.3,2.9,1.9C811.6,353.3,810.7,352.7,809.3,352.7z M800.2,351c-1.7-0.7-2.7-1.4-4.5-1.1
		C797.1,351.4,798.3,351.5,800.2,351z M804,340.1c-1-1.4-1.4-2.3-2.9-2.3C801.6,338.8,802.3,339.4,804,340.1z"/>
	<path fill="none" d="M835.7,273.5c0.5-0.3,1.1-0.4,1.5-1.3c0-1.4-0.2-3.1-1.4-4.5l0.1,0.1c0.1-0.8,0.6-1.2,1.5-1.6
		c1.1,1.8-0.1,4.7,2.5,5.8c0.9-2.5-1.6-4.5-0.9-6.8c1.1-0.5,1.5,0.3,1.4,0.9c-0.4,3.1,1.5,5.3,2.7,7.6c1.4,0.6,2.8-0.1,4.3,1.2
		c-0.6-3.8,0.5-7,0.1-10.1c0.9-0.6,1.6-0.3,2.2,0c0.7,0.7,0.3,1.5,0.4,2.3l0.1-0.1c-0.7,0.4-1.4,0.8-2.1,1.2c0,1.8,0,3.4,0,5.1
		c2.3,1.7,3-0.7,4.3-1.5c1.3,0.1,2.3-0.2,3.5-1.2c0,0.6-0.2,1.1,0.2,1.7c1.2-0.5,2.2,0.9,3.4,0.4c0,0.3-0.1,0.7-0.1,1
		c0.9,0.5,1-0.9,1.8-0.7c-0.1,1.8,1.1,3.2,1.9,4.8l-0.1-0.1c0.1,0.8-0.4,1.6,0,2.4c0.8,1,0.9-1.3,1.7-0.1c-0.2,1.3-2,1.9-1.8,3.2
		c-0.2,1.3,0.9,1.5,1.3,2.3c0.2,2.3,0.1,4.6,0.7,6.9c0.6,2,0.3,4.1-0.5,6.2c-1.6,3.8-2.1,8-3.3,12c-1.8,5.9-5.7,9.1-11.5,10.3
		c-0.9,0.2-2,0.3-2.8,0c-4.5-1.4-8.7-3.1-10.8-7.8c-1-2.2-1.9-4.3-2.3-6.7c-0.2-1.3-0.6-2.6-1.2-3.7c-2.3-4.5-1.5-9.2-1.5-13.9
		c0-0.6,0.5-1.3,0.8-1.9l-0.1,0.1c0.5,0,0.9-0.1,1.4-0.1c0.3,0.2,0.6,0.6,0.9,0.6c3.2-0.2,6.4,0.2,9.8,1.5c-0.8-1.7-2-1.8-3.1-2.2
		c-2.6-0.9-5.1-0.4-7.6,0.2c0-1.1,0-2.1-0.3-3.2c-0.3,0-0.6,0-1.3-0.1c0-1.2-0.4-2.4-1.1-3.9c1.2-0.7,0.2-2.7,1.9-3.3
		c-0.3-0.6-0.7-1.2-1-1.8c0.5-1.1,2.2-1.7,1.5-3.4c0.8,0.8,1.5,1.7,2.3,2.5C835,274.2,835.5,274,835.7,273.5L835.7,273.5z
		 M851.5,304.2c-1,0.2-1.7-1.5-3-0.1C849.5,304.7,850.4,305.4,851.5,304.2c1.1-0.6,0.6-1.3,0.3-2.3
		C850.9,302.8,851.6,303.5,851.5,304.2z M833.8,291.5c1.6,0.4-0.4,1.8,0.6,2.3c1.1,0.4,1.4-0.8,2.3-0.9c0.8,0.7,1.5,1.6,1.8,2.5
		c1.8,0.2,1-1.5,1.9-1.8c0.5-0.5,1.3,0.8,1.8-0.3C840.2,290.1,838.2,289.7,833.8,291.5z M840.8,310.9c4.4,0.8,11.7,0.5,13.4-0.6
		C849.8,309.6,845.5,308.3,840.8,310.9z M850.5,293.2c0.1,0.2,0.1,0.5,0.2,0.7c1.8-1.4,3.3-0.7,4.8,0.4c0.2-0.9,0.6-1.4,1.2-1.7
		c1-0.2,1.8,1,2.8,0.2c-0.7-1.3-2.3-1-3-1.8c-0.2-0.7,0.9-0.3,0.6-1.1c-1.3,0-2.6-0.4-3.9,0.1C852.3,291.1,851.4,292.2,850.5,293.2z
		 M860.2,287.6c-3.6-1.8-8.9-1.5-11.6,0.9C852.7,288,856.4,287,860.2,287.6z M852.2,312.9c-3.2,1.5-6.4,0.7-10.3,0.3
		C847.2,316,849.5,315.9,852.2,312.9z M843.3,304.4c0.1,0.1,0.2,0.2,0.3,0.2c0.1,0,0.2-0.2,0.2-0.2c-0.6-0.8-0.2-1.5,0.2-2.2
		c0-0.1-0.2-0.2-0.3-0.4C842.7,302.6,843.2,303.5,843.3,304.4z M846.3,304.5c-0.1-0.6-0.4-0.8-0.9-0.7c-0.3,0.1-0.5,0.5-0.2,0.8
		C845.6,305.1,846,304.8,846.3,304.5z"/>
	<path fill="none" d="M775.8,324.1c4.7-4.8,10.7-7.3,16.7-9.7c3.4-1.4,6.9-2.5,9.9-4.4c1.8,0.1,3.4,1.2,5.2,1c0.3-1-0.4-1.2-0.9-1.3
		c-10-3.1-19.9-6.4-30.6-5.4c-1.9,0.2-3.7,0.4-5.3,1.5c-1.5,1-3.2,1.4-5.1,1.2c-2.1-0.2-4.2,0-6.2,0c-1.3-1.2-1.2-2.5-1.4-3.9
		c16.9-1.3,33.7-1.8,50.3,1.2c0.2,0.5,0.4,0.9,0.5,1.4c0.8-0.5,1.2-1.6,2.3-1.6c1.2-0.3,1.8,1,2.9,1.1c1.1,1.1,1,2.5,0.6,4.4
		c2-2.7,2-2.7-0.2-4.7c0-0.2,0.1-0.5,0.2-0.7c0.7-0.3,1.4,0.1,2.1,0.3c0.6,1.1,1.2,2.2,1.8,3.2c-0.1,1.5-0.8,2.3-2.1,3
		c-2.4-0.4-5-1.1-7.4,1.3c1.8,0.7,3.6,1.1,4.3,2.6c3.3,1.3,6.3-0.2,9.3,0c2.4-1.8,5-3.5,6.3-7c0.6-1.2-2.3-2.9-0.4-4.6
		c3.7,4.1,5,9.3,7.4,13.9c1.3,2.5,0.9,5.3,0.2,8c-0.5,2.1-1.2,4.1-1.8,6.1c-3.1,1.4-6.5,1.6-9.4,3.1c-9.2-5.3-21.3-6.8-29.6-6
		c-4.5-2-9-4.1-14.1-4.4c-1.9-0.1-3.7,0.7-5.7,0.3L775.8,324.1z M808.1,307c-0.8,1-0.6,1.4,0.4,1.5C808.6,308,808.7,307.5,808.1,307
		z"/>
	<path fill="none" d="M848.3,354.8c-0.9-1.2-0.4-2.5-1.3-3.3c-1.4,0.8-0.5,2.3-1.3,3.5c-4,0.2-7.9-0.9-11.7-1.9
		c-1.6-0.4-2.4-1.5-3.7-3.6c0.4-4.9,0.9-9.9,1.3-14.8c1.6-0.8,3.1-1.4,4.6-2.1c2.2-4.1,2.4-8.6,2.4-13.4c2.1,1,3.9,1.8,5.6,2.7
		c2.6,1.4,5.1,1.5,7.8,0.1c2.1-1.1,4.3-1.9,6.6-3.5c-0.4,5.1,2.8,8.1,5.8,11.3c-0.3,2.2,0.7,4.4,0.3,6.8c-4,1.1-8.1,2.2-11.9,4
		c4.2,0.2,7.7-2.4,12-2.5c0.4,3,0.5,5.9-0.2,8.8c-0.6,2.4-1.9,4.1-4.2,5C856.5,353.2,852.6,354.4,848.3,354.8z M840.1,324.9
		c-0.3,3.2,0.5,5.2,1.9,7.1C841.7,329.8,841.9,327.5,840.1,324.9z M846.2,341.9c0-2.5-0.6-4.1-2.2-5.4
		C844.5,338.2,844.8,340,846.2,341.9z M844,340.9c-1.8-0.2-3.4-1.5-5.7-0.7C840.4,341.1,842.1,341.6,844,340.9z M855.8,321
		c-0.2,1.5-1,2.6,0,3.9C856.7,323.2,856.7,323.2,855.8,321z M848.5,342.3c1.4-1.6,1-2.9,0.3-5C848.5,339.3,848,340.5,848.5,342.3z"
		/>
	<path fill="none" d="M864.1,325.4c2.8-5.7,1.4-11.8,1-18.3c1.8,2,1.7,4.5,3.7,5.8c4.2,0.4,8.1,2.1,12.6-0.2
		c4.1-2.1,6.7-5.1,8.5-8.9c8.1,0.3,15.7,1.6,23.5,2.6c2.9,2.3,5.9,4.7,9,7.2c-8.8,1.1-10.9,0.2-20.4,9.8c-2.8-1.5-5.7-0.4-8.5,0.2
		c-4.2,1-8.2,2.6-11.7,5.1C875.7,333.1,867.8,330.5,864.1,325.4z"/>
	<path fill="none" d="M833.5,651.8c2.5-0.7,4.9-0.8,7.8-1.2c0.4,4.3,3.8,7.1,4.8,10.9c1.4,5.4,3.7,10.5,6,15.5
		c1.8,3.9,1,7.6-0.8,11.3c-6.5,1.2-13.1,0.3-19.7,0.1c-2.4-2-4.5-4-4.2-7.4c0-0.5-0.1-1,0.1-1.4c2-4,2.3-8.4,3.6-12.6
		c0.2-0.8,0.6-1.5,1.1-2.7c3.9,0,7.9,0,11.6,0c0.6-1.3,0.2-1.8-0.6-2c-1.8-0.6-3.7-0.7-5.6-0.5c-1.7,0.2-3.5,0.3-5.2,0.5
		c-0.5-1-0.5-1.6,0.6-1.7c3.4-0.1,6.8-0.9,10.2,0.2c0.2,0.1,0.6-0.2,1.4-0.5c-3.4-3.1-7.2-2.1-11-2
		C833.4,656.1,833.4,654,833.5,651.8z M845,667c-2.9-2-9.4-1.7-12.4,0.6c1.9,0.9,8,1.5,10.7,0.9C844.1,668.3,844.9,668,845,667z
		 M844.3,673.8c-3.9-1.4-7-1-10.1,0.6c2,0.9,3.9,1.9,6.1,3C841,675.8,842.4,675.3,844.3,673.8z M833.7,686.7c1,0.8,1.9,0.5,2.6,0.1
		c3.1-1.9,6.3-1.7,9.6-0.7c0.9,0.3,1.8,0.5,2.8,0.7c0.6,0.1,1.2,0.3,1.3-0.6C842.9,683,839,682.8,833.7,686.7z M833.8,670.9
		c3.4,1.4,7.5,1.3,10.1-0.2C841.3,668.9,836.3,669,833.8,670.9z"/>
	<path fill="none" d="M823,296.4c0.9,0.8,1,1.7,1.9,2.1c0.8,0.2,0.9-0.6,1.4-0.9c2.4,3.2-0.4,6.3,0.3,9.9c-2.1-2.7-0.1-5.1-0.9-7.4
		c-1.2,0.2-1.1,1.1-1.1,1.9c0,1.9,0,3.8,0,5.7c-0.1,2.5-0.8,3.8-3.2,5.6c2.8-4.6,2.9-9.2,0.4-14.4c-0.5,2.8,0.4,4.8,0.7,6.8
		c0.4,2.3-1.2,4-1.3,5.9c-3,1.4-5.4,1.8-7.6,0.9c3.2-0.7,6-1.3,6.5-5.1c-0.8-1.3-1.7-2.9-2.7-4.5c-2.8-0.5-5.3-0.6-7.7,0.5
		c-3.1-1-6.2-1.5-9.4-1.5c1.7-1.4,1.7-1.3,6-2c2.3-0.4,4.7-0.9,7-1.5c2.2-0.5,4.3-1.3,6.4-2.4C820.6,296,821.7,296.7,823,296.4z"/>
	<path fill="none" d="M874.2,296.8c2.3-2,4.3-3.6,6.3-5.3c1,0.3,2,0.6,3,0.9c6.8-0.5,13.6-1.5,21.3-0.7c-6.9,1.6-13.2,1.8-19.2,3.6
		c-2.3,2.6-4.7,5.2-7,7.7c-1.4-0.1-2.2-0.8-3.2-1.3C874.7,300.2,875.2,298.4,874.2,296.8z M878.2,294.9c-1.1,1.6-1.2,2-0.4,2.9
		c1,1.1,2.2,1.7,3.8-0.1C879.2,298,878.9,296.2,878.2,294.9z"/>
	<path fill="none" d="M873.9,302.1c1.1,0.6,1.9,1.1,2.7,1.6c-2.1,1.5-3.5,0-5.1-1.1c-1.2-3.3-1-6.7-0.8-10.1c1.9-2,4.3-0.8,6.7-1.6
		c-1.4,2.3-3.5,3.4-4.6,5.6C873.6,298.2,873.4,300.1,873.9,302.1z"/>
	<path fill="none" d="M937.6,296.6c7.7-2.1,15-0.3,22.1-1.5c0.3,0,0.7,0.2,0.7,0.9C953.1,298,945.8,299,937.6,296.6z"/>
	<path fill="none" d="M863.4,323.8c-1.3-1.2-2.2-2.5-2.1-4.3c0.7-0.6,0.8,0.6,1.7,0.3c1.1-3.7-1.4-7.7,0.4-11.5
		C864.2,313.4,864.9,318.6,863.4,323.8z"/>
	<path fill="none" d="M855,262.8c-0.5,0.2-1,0.4-1.6,0.5c-1,0.2-1.5-0.3-1.3-1.3c-0.4-0.4-0.6-1.6-1.5-0.4c-1.3,0.5-2.5,1.8-4.1,0.7
		c2.9-3.2,6.4-3.4,9.6-0.6c-0.4,0.4-0.8,0.7-1.2,1.1L855,262.8z"/>
	<path fill="none" d="M844.1,266.1c0.7-0.3,0.3-1.5,1.2-1.6c0.4,0.1,0.5,0.4,0.4,0.8c0,1.1-1.2,1.4-1.5,2.3c0.1,1.6,0.3,3.2,0.4,4.9
		c-2.7-2.2-3-3.3-2.1-8C843.2,265.2,843.7,265.6,844.1,266.1z"/>
	<path fill="none" d="M850,267.1c0.6-0.7,1.2-1.4,1.8-2.2c0.6-0.3,1.1-0.1,1.7,0.3c0.1,1.8-0.6,3.4-1.6,4.9
		c-0.2-0.4-0.5-0.7-0.7-1.1c-0.6,0.1-0.2,1.2-1,1.2C849.8,269.1,850,268.1,850,267.1L850,267.1z"/>
	<path d="M859.3,272.7c-1.2,0.4-2.2-1-3.4-0.4c-0.4-0.5-0.3-1.1-0.2-1.7c0.2-0.2,0.4-0.3,0.7-0.5c1.1-0.5,1.3-1.8,2.2-2.3l-0.1-0.1
		C859.3,269.3,859.5,271,859.3,272.7L859.3,272.7z"/>
	<path fill="none" d="M873.6,310.5c-2,0.1-2,0.1-3.6,1c-1.8-1.7-1.8-1.7-2.7-5.1C868.8,308.8,871.5,309.3,873.6,310.5L873.6,310.5z"
		/>
	<path fill="none" d="M866.4,302.1c0.4,0.2,1.1-0.2,1.3,0.3c0.7,3,3.2,4.1,5.8,5.5c-3.8-0.1-4.7-0.9-6.9-6L866.4,302.1z"/>
	<path fill="none" d="M872.7,305.7c-1.1-0.1-2-0.7-3-1.4c-0.1-1.6-2.4-3.1-0.6-5.6c0.4,3,1.7,5.1,3.9,6.7
		C872.9,305.5,872.8,305.6,872.7,305.7z"/>
	<path fill="none" d="M859.3,272.8c0.3-1.8,0-3.5-0.7-5.1c2.3,0.4,3.5,1.9,4.3,3.9c-1.1,0.8-1.2-0.5-2-0.5
		C860.3,271.6,859.8,272.2,859.3,272.8z"/>
	<path fill="none" d="M873,305.4c1.5,0.5,2.9,1.2,4.5,0.3c0.7-0.4,1.3,0.2,1.8,0.7l0-0.1c-2.4,2.2-4.5,1.1-6.5-0.6
		C872.8,305.6,872.9,305.5,873,305.4z"/>
	<path fill="none" d="M862.9,277.8c-0.4-1.5,0-3,0.1-5C864.8,274.9,864.1,276.4,862.9,277.8L862.9,277.8z"/>
	<path fill="none" d="M866.5,302c-0.4-0.1-0.9-0.2-1.3-0.3c-0.7-1.7,0.6-2.1,1.6-2.8c1,1.2-1,2.1-0.4,3.2L866.5,302z"/>
	<path fill="none" d="M868.6,292.9c0.6,1.2,0.2,2.3,0.1,3.6c-1-0.5-1.3-1.2-1.6-1.9C867.3,293.8,867.5,293,868.6,292.9z"/>
	<path fill="none" d="M828.4,295.2c1.5,1,0.8,2.3,0.9,3.9C828,297.7,827.8,296.6,828.4,295.2z"/>
	<path fill="none" d="M755.7,304c-0.1-1-0.4-2.1,0.5-3.7C756.7,302.1,756.6,303.1,755.7,304z"/>
	<path fill="none" d="M937.7,294.4c-1.7,0.3-2.5,1.6-4,0.8C934.7,293.9,935.9,294.4,937.7,294.4z"/>
	<path fill="none" d="M855.5,265.3c0.3,1.4-0.5,2.3-0.8,3.5C854.3,266.7,854.3,266.7,855.5,265.3z"/>
	<path fill="none" d="M858.6,267.8c-1,0.6-1.1,1.9-2.2,2.3c-0.1-1.3,0.6-2.2,1-3.3C858.2,266.7,858.5,267.1,858.6,267.8z"/>
	<path fill="none" d="M835.7,267.7c0,0.8,0,1.6,0,2.6c-1-0.5-1.2-1.1-1.1-1.9C834.9,267.9,835.3,267.7,835.7,267.7L835.7,267.7z"/>
	<path fill="none" d="M874.7,308.8c1.1-0.7,1.8,0.4,3.3,0.3C876.2,310.1,875.5,309.4,874.7,308.8z"/>
	<path fill="none" d="M741.3,304.4c-0.6,0.6-1.2,0.3-1.8,0.1c0.3-0.6,0.8-0.7,1.4-0.6C741,303.9,741.1,304.2,741.3,304.4z"/>
	<path fill="none" d="M831.1,302.9c0.4,0.9,0.6,1.5,1,2.3C831.1,304.4,831.1,304.4,831.1,302.9z"/>
	<path fill="none" d="M850.7,261.6c0.9-1.1,1.1,0,1.5,0.4c-0.5,0.1-0.9,0.8-1.6,0.5C850.4,262.2,850.5,261.9,850.7,261.6z"/>
	<path fill="none" d="M949.5,293.8c1-0.7,1.7-0.2,2.8-0.2C951.3,294.1,950.5,294,949.5,293.8z"/>
	<path fill="none" d="M854.9,262.9c0.8-0.1,1.8-0.7,2.3,1c-1,0-1.8-0.3-2.2-1.1L854.9,262.9z"/>
	<path fill="none" d="M831.5,287c-0.6-0.5-1.7-0.7-1.5-2C831.3,285.4,831.2,286.4,831.5,287L831.5,287z"/>
	<path fill="none" d="M835.8,273.5c-0.8-0.3-1.1-1-1.5-1.8C835.5,271.9,836,272.4,835.8,273.5L835.8,273.5z"/>
	<path d="M424.7,282.7c0.4-1.3,1.4-1.4,2-2.1c0-2.5,0-5,0-7.6c1.4,2.1,0.9,4.6,1.2,7c0.4,1.1,2,1.1,2.7,2.4
		c-1.3,0.5-2.3,1.4-3.1,2.6C426.5,283.8,425.6,283,424.7,282.7z"/>
	<path d="M403.4,292.8c-1.9-1.9-2.5-4-3.8-6.7C402.1,288.2,402.6,289.1,403.4,292.8z"/>
	<path d="M452.3,298.3c-1.4,1.8-2.5,3.1-3.6,4.6C448.9,300.5,449.2,300.2,452.3,298.3z"/>
	<path d="M454.7,248.8c-0.1,1.6-0.9,2.8-2.6,4.1C452.6,250.9,453.6,249.8,454.7,248.8z"/>
	<path d="M405.6,295.7c1.3,0.4,1.8,1.1,2.1,2.2C406.5,297.8,406,297.1,405.6,295.7z"/>
	<path d="M437.2,304c-0.2-0.9,0.5-1.2,1-1.6C438.8,303.6,437.6,303.5,437.2,304z"/>
	<path d="M426.9,262.6c0.3,0.9,0.2,1.3,0,2C426.5,263.8,426.5,263.3,426.9,262.6z"/>
	<path d="M403,249.8c1,0.1,1.3,0.6,1.4,1.4C403.5,251.4,403.3,250.7,403,249.8z"/>
	<path d="M422.3,248.7c-0.2-1.2,0.4-1.6,0.9-2.1C423.9,247.6,423,248,422.3,248.7z"/>
	<path d="M410.6,418c-2.9-0.6-4.4-2.1-4.1-4.5c0.4-3.2,0.7-6.4,1.9-9.8c0.8,1.9,0.8,1.9-0.6,5.3C408.7,412,408.3,415.4,410.6,418z"
		/>
	<path d="M418.5,425.7c-1.5,3.6-1.3,7.6-3.2,11.2C414.9,434.1,416.6,427.8,418.5,425.7z"/>
	<path d="M411.8,398.7c2.4,1.1,4.4,2.6,6.6,5C414.5,403.4,413,401.2,411.8,398.7z"/>
	<path d="M413.9,405.9c2.3,3,2.4,4.3,0.7,7.1C414.2,410.6,413.2,408.6,413.9,405.9z"/>
	<path d="M414.4,446.2c-0.8-1.3-0.5-2,0.3-2.7C415.4,444.4,415,445.1,414.4,446.2z"/>
	<path d="M402.9,231.3c-4.5-0.4-9-0.2-13.2-3.4C391.2,227.7,401.2,230.2,402.9,231.3z"/>
	<path d="M464.1,225.4c-3.3,2.7-7,4.4-11.4,4.2C456.4,228.2,460.2,226.7,464.1,225.4z"/>
	<path d="M446.9,230c-1.9,0.7-3.5,0.2-5.5-1.1C443.6,228.6,445.2,229.3,446.9,230z"/>
	<path d="M405.4,231c1.3-0.5,2.5-1,4.1-0.7C408,230.9,406.9,231.6,405.4,231z"/>
	<path d="M411.5,337.7c-4.5,0.9-6.4,0.3-6.8-2.2c-0.3-2,1.2-3.7,3.3-3.9C410.8,331.4,411.7,333,411.5,337.7z M410.2,334.4
		c-0.5-1.1-1.2-1.9-2.7-1.4c-0.8,0.3-1.4,1-1.4,1.9c0.1,1.3,0.8,2.2,2.3,1.9c0.6-0.4-0.2-0.9,0.3-1.3
		C408.9,334.8,409.9,335.7,410.2,334.4z"/>
	<path d="M403.4,337.5c-2.7,1.9-4,2-5.5,0.7c-1.1-1-1.4-2.8-0.7-4.2c0.8-1.5,2.9-2.1,4.6-1.5C403.6,333.3,403.9,334.2,403.4,337.5z
		 M400.6,337.6c1.1-0.1,1.8-0.8,1.7-2c0-1.2-0.8-2-2-2c-1.2,0.1-2,0.9-2,2.1C398.3,336.9,399.1,337.6,400.6,337.6z"/>
	<path d="M396.1,338.6c-1.9,0.3-2.1-1.5-3.3-1.7c-1.3,0-0.4,1.8-2,2c-0.3-2-0.4-4-0.2-5.9c2.5-0.9,2.5-0.9,4.7-0.1
		C397.1,334.8,393.8,336.9,396.1,338.6z M394.8,334.5c-2.1-1.1-2.1-1.1-3,0.6C392.8,335.4,393.8,335.8,394.8,334.5z"/>
	<path d="M418.5,326.2c1.4,1.3,2.8,2.5,4.2,3.8C420.7,329.5,419.5,328,418.5,326.2z"/>
	<path d="M418.2,317.4c0.8,0.7,1.6,1.3,2.9,2.4C419.2,319.4,418.6,318.4,418.2,317.4z"/>
	<path d="M429.4,333.3c-0.2-1.1-0.4-2.2-0.7-3.7C429.8,331.4,429.8,331.4,429.4,333.3z"/>
	<path d="M435.7,321.9c0.1-1.3,0.9-1.9,2.2-2.1l-0.1-0.1C437.5,320.9,436.6,321.5,435.7,321.9L435.7,321.9z"/>
	<path d="M461.9,312.5c0.4-0.6,1.1-0.6,1.7-0.9C463.4,312.6,462.7,312.7,461.9,312.5z"/>
	<path d="M437.8,319.9c0.3-0.8,0.8-1.2,1.8-1.2C439.1,319.4,438.6,319.9,437.8,319.9L437.8,319.9z"/>
	<path d="M435.7,322c0.1,0.9-0.4,1.4-1.2,2C434.4,322.8,434.7,322.2,435.7,322L435.7,322z"/>
	<path d="M425.4,325.1c-0.5-0.4-1.2-0.6-0.8-1.5C425.1,324,425.7,324.3,425.4,325.1z"/>
	<path d="M415.7,324.7c-0.3-0.3-0.7-0.5-1-0.8C415.5,323.3,415.6,324.2,415.7,324.7z"/>
	<path d="M445.6,406.5c-0.4,3.5,1.2,6.1,2.8,8.7c-2.1,0.6-2.7-0.7-3.4-1.9C444,411.3,444.2,408.8,445.6,406.5z"/>
	<path d="M452.7,408.5c2.7,2.4,2.8,3.3,0.8,6.9C452.8,413.1,453.7,411,452.7,408.5z"/>
	<path d="M452.5,402.3c-2.2-0.5-3.6-1.8-5.1-3.5C449.4,398.6,450,399,452.5,402.3z"/>
	<path d="M446.3,423.4c1.2,0.8,1,1.9,0.8,3.1C446.1,425.6,446.3,424.5,446.3,423.4z"/>
	<path d="M482.5,185.9c-5.6,5.2-12.5,8.4-19.5,12.4c0.1-1.9,1.1-2.5,2.1-2.9C471.2,192.9,476.5,188.8,482.5,185.9z"/>
	<path d="M499.5,190.3c-4.3,1.9-8,1.9-12.1,0.6c2.1-1.5,4.2-0.4,6.2-0.6C495.6,190.2,497.6,190.3,499.5,190.3z"/>
	<path d="M478.3,200.4c1.1-1.8,2.7-3.1,4.7-3.8C481.9,198.5,480.2,199.6,478.3,200.4z"/>
	<path d="M457.7,181.4c-1,1.1-2.3,1.2-3.5,1.4C455,181.2,456.4,181.5,457.7,181.4L457.7,181.4z"/>
	<path d="M457.8,181.5c1-0.9,2.2-0.4,3.7-0.5C460,181.4,458.9,181.5,457.8,181.5L457.8,181.5z"/>
	<path d="M502.2,190.9c1.1-0.5,1.1-0.5,2.1-0.5C503.8,191.1,503.3,191.5,502.2,190.9z"/>
	<path d="M385.1,197.9c-2.3-0.6-4-2.4-6.2-3.4c-2-0.9-4-1.8-6.3-2.9C376.3,190.9,382.1,194,385.1,197.9L385.1,197.9z"/>
	<path d="M358.8,198.1c3.9-1,7.6-2.6,11.8-2.4C368.6,197.2,362.2,198.6,358.8,198.1z"/>
	<path d="M268.9,163.6c-0.2-0.1-0.6-0.1-0.7-0.2c-0.4-2.4-2.1-3.4-4.6-3.5c2.5-1.6,2.5-1.6,5,0.3c0.6,1.1,0.1,2.3,0.2,3.5
		L268.9,163.6z"/>
	<path d="M385,197.9c2.7-0.1,4.6,1.2,5.7,3.6l0.1-0.1C388.6,200.7,386.2,200.3,385,197.9L385,197.9z"/>
	<path d="M262.4,158.7c0.6-0.9,1.1-1.8,1.9-2.6c1.1-1.1,2.4-1.3,4.2,0.4C265.6,156.2,264.4,158.5,262.4,158.7L262.4,158.7z"/>
	<path d="M382.8,205.4c-1.1-1-2.1-1.8-3.1-2.8C382,202,382,202,382.8,205.4z"/>
	<path d="M280.9,170c0,0.2-0.1,0.5-0.2,0.9c-1.3,0-2-0.6-2.6-2c1.4-0.2,1.9,1.2,2.9,1.2L280.9,170z"/>
	<path d="M266.5,163c-1.5,0.4-2.2,0.1-2.6-1.1C265.1,161.2,265.8,161.6,266.5,163z"/>
	<path d="M318.8,208.1c1.3-0.3,2.3-0.3,3.3,0.9C320.8,209,319.9,208.6,318.8,208.1z"/>
	<path d="M324.3,195.1c-1.1,0-1.7-0.2-2.4-1.5C323,194.3,323.8,194,324.3,195.1z"/>
	<path d="M413.7,136.3c3.3-1.1,5.8-0.5,7.7,2.1c-0.4,1.6-1.4,0.2-2,0.6c-1,0.2,0,2.4-2,1.8c-0.1-1-0.7-1.7-1.6-2.4
		c-1-0.4-1.4,1.4-2.6,0.6C412.5,137.8,414.4,137.2,413.7,136.3z"/>
	<path d="M438.4,136.2c-0.8,0.2-1.2,0.4-1.7,0.5c0.3,0.7,1.4,0.5,1.5,1.4c-0.1,0.1-0.3,0.3-0.4,0.3c-1.1-0.2-2.2-1.2-3.2,0.1
		c-0.2,0.3-1.1,0.4-1.3,0.2c-1.3-1.2-2.5,0-4.4,0.3c1.5-1.6,2.4-2.7,3.4-3.8C434.3,135.1,436.3,135.1,438.4,136.2z"/>
	<path d="M433.8,155.4c-2.9,1.2-11.1,1.4-13.7,0.5C424.5,153.4,428.8,155.1,433.8,155.4z"/>
	<path d="M438.8,132.8c-3.8-0.5-7.3,0.6-11.3,1C430.2,131.4,435.4,131,438.8,132.8z"/>
	<path d="M421,158.3c3.8,0.8,6.9,1.1,10.2-0.4c-0.6,2-2,2.2-3.3,2.4C425.4,160.7,424.4,160.5,421,158.3z"/>
	<path d="M412.6,132.8c3.7-1.6,6.5-1.2,10.1,1.7C418.9,133.2,415.8,132.6,412.6,132.8z"/>
	<path d="M429.8,149c0.1-0.5,0.3-1.1,0.4-1.6c0.6,0.1,0.9,0.5,0.8,1c-0.4,1.9-1.1,2-3.6,0.9C428.2,148,429,149.1,429.8,149z"/>
	<path d="M439.4,129.8c0.9,0.3,0.9,0.8,1,1.5C439,131.1,439.5,130.4,439.4,129.8z"/>
	<path d="M425.2,149.8c-0.4,0.4-0.8,0.3-1.3,0.1C424.5,148.9,424.5,148.9,425.2,149.8z"/>
	<path d="M420.3,178.5c-1.5-2-2.5-4.1-2-7.3C420.1,173.8,419.8,176.3,420.3,178.5z"/>
	<path d="M416.5,186.3c1.9,0.2,4.1-0.3,6.2,1.2C420.2,188.2,418.4,186.9,416.5,186.3z"/>
	<path d="M422.2,182.1c1.4,1.9,2.3,3.3,2,5.8C423,185.9,422.3,184.4,422.2,182.1z"/>
	<path d="M427,184.5c0.9,1.3,1.2,2.6-0.2,4.2C426.1,187.1,426.6,185.8,427,184.5z"/>
	<path d="M434.6,169.7c-0.6-1-0.3-1.9,0-3C435.6,167.8,435.6,168.7,434.6,169.7z"/>
	<path d="M410.5,513.8c3.9-2.1,9.9-2.2,12.7-0.5c-0.1,1-0.9,1.3-1.7,1.5C419,515.3,413.3,514.9,410.5,513.8z"/>
	<path d="M411.6,533.5c4.1-4.4,11.8-4.1,16.8-0.5c-3.1,0.1-5.8-1-8.5-1.4C417.1,531.1,415,533.6,411.6,533.5z"/>
	<path d="M412.5,519.8c3-0.3,6-1.1,9,0c0.3,2.5-3.2,1.3-2.2,4.2c-2.9-1.3-4.9-2.3-7-3.2C412.3,520.4,412.4,520.1,412.5,519.8z"/>
	<path d="M422.1,517.1c-3.3,1.5-6.7,1-10.5,0.7c0.8-1.8,2-1.9,3.1-1.9C417.3,516.1,419.9,515.3,422.1,517.1z"/>
	<path d="M849.2,426.8c0.1,2.2,0.2,4.5,0.3,6.5c0.6,1.3,2.1,1.4,2.7,2.7c-0.9,0.8-2.3,1.1-2.7,2.5c-1.2-0.7-1.8-1.8-2.9-2.1
		c0.1-1.3,1.1-1.5,2-2.2C848.6,431.8,848.3,429.3,849.2,426.8z"/>
	<path d="M826.2,447.4c-2.8-2.8-3.7-4.5-4.1-7.8C824.2,442.1,824.8,444.9,826.2,447.4z"/>
	<path d="M873.3,452.6c-0.7,1.4-1.5,2.8-3,3.6C870.7,454.6,871.6,453.2,873.3,452.6z"/>
	<path d="M876.6,402.4c-0.2,1.5-0.8,2.8-2.4,3.9C874.6,404.4,875.6,403.3,876.6,402.4z"/>
	<path d="M825.4,403.5c0.8,0.9,1.6,1.9,2.9,3.4C826,406.3,825.6,405,825.4,403.5z"/>
	<path d="M829.3,451.7c-1.1-0.3-1.6-1-2-2.3C828.6,449.8,829.4,450.3,829.3,451.7z"/>
	<path d="M860.6,455.5c-0.4,1.4-0.9,2-1.9,2.5C858.7,456.8,859.6,456.4,860.6,455.5z"/>
	<path d="M844.4,401.7c-0.4,1.3-0.9,1.8-2,2.1C842.8,402.8,843.3,402.2,844.4,401.7z"/>
	<path d="M833.1,572.3c-4.9-1.6-5.9-4.8-3.3-8.9C830.2,566.5,830.8,569.3,833.1,572.3z"/>
	<path d="M836.8,566.8c-1-2.4-1.5-4.5-0.9-6.8C837.7,561.9,838.4,564,836.8,566.8z"/>
	<path d="M833.7,552.6c2.4,1,4.3,2.4,6.3,4.7C836.4,557.2,835,554.9,833.7,552.6z"/>
	<path d="M838.6,584.4c0.3,2.2-0.3,4.1-1.7,5.9C837.2,588.3,836.2,585.9,838.6,584.4L838.6,584.4z"/>
	<path d="M829.5,562.5c-0.3-2.1-0.1-3.4,0.9-5.2C831.4,559.4,830.4,560.6,829.5,562.5z"/>
	<path d="M838.7,584.5c0-1.8-0.3-3.7,1.4-5.7C840.3,581.3,839.4,582.9,838.7,584.5L838.7,584.5z"/>
	<path d="M836.1,599.7c-0.6-1-0.5-1.8,0.3-2.7C837.5,598.3,836.7,598.9,836.1,599.7z"/>
	<path d="M833,490.2c-2.4,0.6-4.6,1.7-6.3-0.8c-0.9-1.3-0.8-2.7,0.2-4c0.9-1.2,2.7-1.6,4.2-1C834.1,485.7,832.8,488.2,833,490.2z
		 M831.7,487.2c-0.4-1.2-1.1-2-2.6-1.6c-0.9,0.3-1.5,0.9-1.5,1.8c0,1.4,0.7,2.2,2.3,2.1C829.6,488.1,831.1,488.1,831.7,487.2z"/>
	<path d="M824.8,490.3c-2.8,1.7-4.2,1.8-5.5,0.4c-1-1.1-1.2-3-0.4-4.2c0.9-1.3,2.8-1.9,4.4-1.3C825.1,485.9,825.5,487,824.8,490.3z
		 M821.9,486.1c-1.1,0.1-2,0.7-2.1,1.9c-0.1,1.2,0.5,2,1.8,2.2c1.3,0.1,2.1-0.5,2.2-1.8C823.9,487.2,823.2,486.4,821.9,486.1z"/>
	<path d="M812.2,485.5c1.8-0.8,3.4-1,4.8,0.2c1.4,1.8-1.4,3.8,0.7,5.6c-1.9,0.5-2.1-1.7-3.5-1.6c-1,0.2-0.4,1.5-1.3,1.9
		c-0.4,0.1-0.7-0.2-0.7-0.5C812.2,489.2,812.2,487.4,812.2,485.5z M812.9,487.5c1.5,0.7,2.5,0.8,3.3-0.5
		C815,485.9,814,485.6,812.9,487.5z"/>
	<path d="M843.7,483.9c-1.4-1.3-2.8-2.5-4.2-3.8C841.5,480.7,842.8,482.1,843.7,483.9z"/>
	<path d="M859.3,473.8c-1,1.3-1.7,2.3-2.5,3.4C857.1,475.3,857.1,475.3,859.3,473.8z"/>
	<path d="M851.7,487c-0.8-1.3-0.9-2.4-0.4-3.7C851.4,484.6,851.5,485.8,851.7,487z"/>
	<path d="M842.3,472.9c-1.5,0.1-1.7-0.9-2.5-1.2C841,471.2,841.2,472.3,842.3,472.9z"/>
	<path d="M847.7,479.5c-1.1-0.9-1.6-1.5-2-2.9C846.9,477.5,847.4,478.2,847.7,479.5z"/>
	<path d="M826,463.3c-0.4-0.3-0.8-0.5-0.9-1C825.7,462.6,825.7,462.6,826,463.3z"/>
	<path d="M860.3,472.8c0.2-0.2,0.4-0.4,0.7-0.6c0.2-0.1,0.4-0.1,0.6-0.2C861.7,472.9,861,472.8,860.3,472.8z"/>
	<path d="M884.2,466.4c-1,0.1-1.3,0.2-1.6,0.2c-0.2,0-0.3-0.2-0.6-0.3c0.4-0.1,0.7-0.2,1.1-0.2C883.3,466.1,883.5,466.2,884.2,466.4
		z"/>
	<path d="M867.2,560.4c-0.3,3.3,1.4,5.9,3.2,8.6C866.7,568.9,865.5,565.8,867.2,560.4z"/>
	<path d="M875.1,569.2c-0.5-2.5,0.6-4.6-0.7-6.6C877,564.1,877.2,565.8,875.1,569.2z"/>
	<path d="M874.3,555.8c-2.3-0.3-3.7-1.7-4.9-3.5C871.8,552.3,872.9,554.3,874.3,555.8z"/>
	<path d="M869,580.5c-1.1-1.1-1.1-2.3-1.1-3.8C869.2,578.2,869.2,578.2,869,580.5z"/>
	<path d="M902.2,341.5c-2,1.7-4.1,3.1-7.6,2.4C897.3,342.3,899.9,342.3,902.2,341.5z"/>
	<path d="M881.2,335.1c-1.8,0-3.4,1.2-5.6,1.7C877.6,335,877.6,335,881.2,335.1z"/>
	<path d="M888,348.9c-0.7,2-1.7,2.4-3.1,2.7C885.1,349.7,886.1,349.4,888,348.9z"/>
	<path d="M893.3,337c0.5-1.5,0.9-2.3,2.2-2.7C895.3,335.6,894.8,336.3,893.3,337z"/>
	<path d="M890,341.6c0-0.6,0.5-1.2,0.8-0.9C891.4,341.4,890.3,341.3,890,341.6z"/>
	<path d="M785.4,339.7c-1.8,0.2-3.4-0.2-5.6-1.2c2.5-0.5,4,0.8,5.7,0.9C785.8,339.4,785.8,339.6,785.4,339.7z"/>
	<path d="M797.6,334.3c-1.7-1.5-1.7-1.5-2.8-3.9C796.4,331.3,796.4,331.3,797.6,334.3z"/>
	<path d="M809.3,352.7c1.4,0,2.3,0.6,2.9,1.9C810.5,355,809.7,354.1,809.3,352.7z"/>
	<path d="M765.9,329.1c-1.3,1.3-2.8,1.8-4.6,1.5C762.7,329.6,764.2,329.1,765.9,329.1L765.9,329.1z"/>
	<path d="M800.2,351c-1.9,0.4-3.1,0.4-4.5-1.1C797.4,349.7,798.5,350.3,800.2,351z"/>
	<path d="M804,340.1c-1.6-0.7-2.3-1.3-2.9-2.3C802.6,337.7,803,338.6,804,340.1z"/>
	<path d="M833.8,291.5c4.4-1.8,6.3-1.3,8.4,1.9c-0.4,1.1-1.2-0.2-1.8,0.3c-0.9,0.3-0.1,2-1.9,1.8c-0.3-0.9-0.9-1.9-1.8-2.5
		c-0.9,0-1.3,1.3-2.3,0.9C833.4,293.2,835.4,291.9,833.8,291.5z"/>
	<path d="M840.8,310.9c4.7-2.6,9-1.2,13.4-0.6C852.5,311.3,845.2,311.7,840.8,310.9z"/>
	<path d="M850.5,293.2c0.9-1,1.8-2.1,2.6-3.1c1.4-0.5,2.7-0.1,3.9-0.1c0.3,0.8-0.7,0.4-0.6,1.1c0.7,0.8,2.3,0.6,3,1.8
		c-1.1,0.7-1.8-0.4-2.8-0.2c-0.6,0.2-1,0.8-1.2,1.7c-1.4-1.1-3-1.8-4.8-0.4C850.6,293.7,850.6,293.5,850.5,293.2z"/>
	<path d="M860.2,287.6c-3.8-0.5-7.5,0.5-11.6,0.9C851.4,286.1,856.6,285.7,860.2,287.6z"/>
	<path d="M852.2,312.9c-2.7,3-5,3.1-10.3,0.3C845.8,313.6,849,314.4,852.2,312.9z"/>
	<path d="M832.8,287.1c2.5-0.6,5-1.1,7.6-0.2c1.1,0.4,2.3,0.6,3.1,2.2c-3.4-1.4-6.5-1.7-9.8-1.5
		C833.4,287.7,833.1,287.3,832.8,287.1L832.8,287.1z"/>
	<path d="M843.3,304.4c-0.1-0.9-0.6-1.8,0.4-2.6c0.1,0.1,0.4,0.3,0.3,0.4c-0.4,0.7-0.8,1.4-0.2,2.2c0,0-0.1,0.2-0.2,0.2
		C843.5,304.6,843.4,304.5,843.3,304.4z"/>
	<path d="M851.4,304.1c-1,1.3-1.9,0.6-3,0C849.7,302.7,850.5,304.4,851.4,304.1L851.4,304.1z"/>
	<path d="M851.5,304.2c0.1-0.7-0.6-1.4,0.3-2.3C852.1,302.9,852.6,303.6,851.5,304.2L851.5,304.2z"/>
	<path d="M846.3,304.5c-0.3,0.4-0.8,0.6-1.1,0.1c-0.2-0.3-0.1-0.7,0.2-0.8C845.9,303.6,846.3,303.9,846.3,304.5z"/>
	<path d="M814.5,304.7c2.3,1.9,2.3,1.9,0.2,4.7c0.4-1.9,0.5-3.2-0.6-4.4C814.3,304.9,814.4,304.8,814.5,304.7z"/>
	<path d="M808.1,307c0.6,0.6,0.5,1,0.4,1.5C807.5,308.3,807.3,307.9,808.1,307z"/>
	<path d="M840.1,324.9c1.8,2.6,1.6,4.9,1.9,7.1C840.6,330.1,839.7,328,840.1,324.9z"/>
	<path d="M846.2,341.9c-1.5-1.9-1.7-3.7-2.2-5.4C845.6,337.8,846.3,339.4,846.2,341.9z"/>
	<path d="M844,340.9c-1.9,0.7-3.6,0.2-5.7-0.7C840.6,339.4,842.2,340.7,844,340.9z"/>
	<path d="M855.8,321c0.9,2.2,0.9,2.2,0,3.9C854.8,323.6,855.6,322.5,855.8,321z"/>
	<path d="M848.5,342.3c-0.5-1.8-0.1-3,0.3-5C849.5,339.4,850,340.7,848.5,342.3z"/>
	<path d="M845,667c-0.1,1-0.8,1.3-1.7,1.5c-2.7,0.5-8.8,0-10.7-0.9C835.6,665.3,842.1,665,845,667z"/>
	<path d="M844.3,673.8c-1.9,1.5-3.3,2.1-4,3.6c-2.2-1.1-4.1-2-6.1-3C837.3,672.8,840.3,672.4,844.3,673.8z"/>
	<path d="M833.7,686.7c5.4-3.9,9.2-3.7,16.2-0.4c-0.2,0.9-0.7,0.7-1.3,0.6c-0.9-0.2-1.8-0.4-2.8-0.7c-3.3-1-6.5-1.3-9.6,0.7
		C835.6,687.2,834.7,687.5,833.7,686.7z"/>
	<path d="M833.8,670.9c2.5-1.9,7.5-2,10.1-0.2C841.3,672.2,837.2,672.3,833.8,670.9z"/>
	<path d="M878.2,294.9c0.7,1.3,1,3,3.4,2.8c-1.6,1.8-2.7,1.1-3.8,0.1C877,297,877.1,296.6,878.2,294.9z"/>
	<path fill="none" d="M410.2,334.4c-0.3,1.3-1.3,0.4-1.5,1.1c-0.5,0.4,0.4,0.9-0.3,1.3c-1.5,0.3-2.2-0.6-2.3-1.9
		c-0.1-0.9,0.5-1.6,1.4-1.9C409,332.5,409.7,333.3,410.2,334.4z"/>
	<path fill="none" d="M400.6,337.6c-1.5,0-2.2-0.7-2.2-1.9c0-1.2,0.8-2,2-2.1c1.2-0.1,2,0.7,2,2
		C402.3,336.8,401.7,337.5,400.6,337.6z"/>
	<path fill="none" d="M394.8,334.5c-1,1.3-2,0.9-3,0.6C392.7,333.3,392.7,333.3,394.8,334.5z"/>
	<path fill="none" d="M831.7,487.2c-0.5,0.9-2,0.9-1.8,2.3c-1.6,0.1-2.3-0.7-2.3-2.1c0-0.9,0.6-1.6,1.5-1.8
		C830.5,485.1,831.2,486,831.7,487.2z"/>
	<path fill="none" d="M821.9,486.1c1.3,0.3,2,1.1,1.8,2.3c-0.1,1.2-0.9,1.9-2.2,1.8c-1.3-0.1-1.9-1-1.8-2.2
		C819.9,486.8,820.8,486.2,821.9,486.1z"/>
	<path fill="none" d="M812.9,487.5c1.1-1.9,2.1-1.6,3.3-0.5C815.4,488.3,814.4,488.2,812.9,487.5z"/>
</g>
</svg>
