<?xml version="1.0" encoding="utf-8"?>
<!-- Generator: Adobe Illustrator 20.0.0, SVG Export Plug-In . SVG Version: 6.00 Build 0)  -->
<svg version="1.2" baseProfile="tiny" id="Layer_2" xmlns="http://www.w3.org/2000/svg" xmlns:xlink="http://www.w3.org/1999/xlink"
	 x="0px" y="0px" viewBox="0 0 900 600" xml:space="preserve">
<g>
	<path d="M195.2,168c-0.3,0.3-0.6,0.7-0.9,1c-1.2-0.2-1.2-1.1-1.4-1.9c-0.4-1.2,0.9-1.1,1.5-1.9c-0.1-4.8-0.3-9.8-0.4-14.9
		c0-0.7-0.1-1.4-0.2-2.2c-0.2-5.8,0.4-3.8-2.8-9.5c-1.7-2.9-3.3-5.9-5.4-8.6c-0.3,0.1-0.6,0.3-1,0.4c-0.1-0.1-0.3-0.1-0.4-0.3
		c-1.2-1.7-2.3-3.4-3.5-5.1c-3-4.1-6.9-7-11.7-8.6c-0.2-0.1-0.4,0-0.8,0c0.3,0.4,0.6,0.8,0.9,1.1c2.5,2.8,5,5.5,7.5,8.3
		c1.1,1.2,2.3,2.4,2.5,4.1c-0.6,0.7-1,0.3-1.4,0.1c-0.6-0.4-1.2-0.9-1.6-1.4c-3.4-4.1-6.8-8.1-10.1-12.3c-0.9-1.1-1.7-2.3-2.9-3.1
		c-1.9-1.3-3.3-3.1-4.7-5c-2.4-3.4-5.1-6.7-7.6-10c-0.7,0-1.3,0-1.9,0c-0.5-4.9,1.1-9.7,1.1-14.8c-1.3-0.3-2.4-0.4-3.6-0.7
		c-1.3-0.3-2.1-1.6-3.6-1.6c-1.2,0-2.4-0.3-3.2-1.6c1.6-0.8,2.6,0.4,3.8,0.7c1.2,0.3,2.3,0.6,3.5,0.9c1.3,0.2,2.6,0.4,3.9,0.5
		c1.2,0.1,2.4,0.1,3.5,0.2c1.3-0.8,1.8-2.1,2.3-3.3c1-2.8,2.1-5.6,3.2-8.4c0.8-1.9,1.1-3.9,1.3-6c0.2-3.5,0.4-7,2-10.2
		c0.3-0.6,0.2-1.4,0.2-2.1c0.1-1.6,0.1-3.1,0.1-4.7c0-0.3,0.1-0.6,0.2-0.9c0.8,0.2,0.9,0.8,1,1.4c0.2,1.7,0.5,3.3,0.6,5
		c0.2,1.5-0.1,2.9-0.8,4.2c-1,1.6-1.3,3.3-1.5,5.2c-0.2,1.7-0.3,3.4-0.6,5c-0.4,1.8-0.7,3.6-1.6,5.1c-1.1,1.9-2,3.9-2.5,5.9
		c-0.6,2.4-2,4-4.1,5.3c-0.7-0.1-1.4-0.2-2.3-0.3c-0.8,4.3-0.8,8.6-1.4,13c0.4,0.5,0.8,1.1,1.4,1.5c3.6,3.3,6.8,6.8,8.9,11.2
		c0.3,0.6,0.8,1.3,1.3,1.7c2.4,1.8,4.7,3.7,7.8,4.4c3.4,0.8,6.1,2.7,8.8,4.7c2.2,1.6,4.4,3.4,6.5,5.2c4.7,3.8,8.2,8.5,9.9,14.3
		c0.6,1.9,1,4,0.9,6c-0.2,2.9,0.3,5.8,0.4,8.6c0.1,3.2,0.2,6.5,0.4,9.7c0.2,4.1,2,7.6,4.5,10.8c0.4,0.6,0.9,1.1,1.3,1.7
		c1,1.8,2,3.6,2.9,5.4c0.9,1.7,1.6,3.5,1.7,5.4c0.1,1.2,0.5,2.3,0.9,3.5c1.3,3.7,2,7.4,1.9,11.3c0,5.1,0.8,10,2.4,14.9
		c0.3,0.8,0.4,1.6,0.6,2.4c2.6,0.8,4.9,0.8,12.3,0.3c0.7-0.9,1.1-2.2,2.8-2.1c1.8,0.1,3.5-0.3,5.2,0.9c0.6,0.4,1.6,0.4,2.4,0.4
		c8.7,0,17.3,0,26-0.1c7.3-0.1,14.7-0.3,22-0.3c25.6-0.1,51.3-0.1,76.9-0.2c5.2,0,10.4,0.1,15.5,0.2c1.1,0,2.2,0.2,3.2,0.5
		c0.9,0.3,1.3,1.1,1.3,2c0,0.9-0.4,1.7-1.3,2c-0.9,0.3-1.9,0.4-2.8,0.4c-4.7,0.1-9.4,0.1-14.1,0.1c-28.3,0-56.6,0-84.9-0.1
		c-7.7,0-15.4-0.1-23.1-0.2c-2.3,0-4.6-0.3-6.8-0.3c-4.2,0-8.4,0.1-12.4,0.2c-3.8,3.3-4.8,2.8-8.1,0.7c-0.6-0.4-1.3-0.7-2-0.7
		c-4.1-0.3-8.1-0.5-12.2-0.7c-0.9,1.2-0.4,2.4-0.3,3.5c0.1,1.4-0.1,2.6-0.9,3.8c-0.6,0.8-1,1.7-1.5,2.5c-2,3.4-4.9,5.6-8.9,6.2
		c-2.9,0.4-5.7,1.1-8.5,1.5c-3.9,0.5-7.7,0.4-11.1-2.1c-0.9,0.4-1.8,0.8-2.7,1.3c0,1.6,0.7,3.2-0.5,4.6c0.1,1.1,0.2,2.1,0.4,3.4
		c0.5,0.1,1.1,0.1,1.6,0.3c0.8,0.2,1.1,0.8,1.3,1.6c0.7,2.6,0.8,5.2,0.9,7.9c0,1.3,0.3,2.3,1,3.4c1.3,2.2,2.5,4.4,3.8,6.6
		c1.1,1.9,2,3.8,1.2,6.2c-0.2,0.8-0.1,1.7-0.1,2.5c-0.2,4.4,1,8.8,0.5,13.3c1,5.3,1.3,10.7,2.1,16.1c0.5,3.1,1.1,6.2,1.8,9.2
		c1,4.1,1.2,8.3,1.1,12.5c-0.1,3-0.2,6,0.1,9c1,8.6,1.3,17.3,2.1,25.9c0.6,6.9,1.4,13.9,1.8,20.8c0.3,3.8,0.1,7.7,0.1,11.6
		c0,0.3-0.2,0.7-0.3,1.1c-1.2,0.1-2.4,0.2-3.5,0.5c-1,0.3-2,0.9-3,1.2c-0.9,0.3-1.8,0.7-2.8,0.8c-4.5,0.5-9.1,0.9-13.6,1.3
		c-1.1,0.1-2.1,0.2-3.2,0.3c-0.3,5.3-1.5,10.1-2.7,15c-0.5,2.2-0.3,4.3-0.2,6.5c0,0.5,0.2,0.9,0.3,1.4c0.9,3.9,1.3,7.8,1.6,11.8
		c0.3,4,0.3,7.9-0.4,11.9c-0.7,3.8-1.1,7.6-1.7,11.4c-0.1,0.8-0.2,1.8-0.7,2.4c-1.2,1.3-1.2,2.8-1.2,4.4
		c-0.1,10.9-1.5,21.6-3.2,32.3c0,0.2,0,0.5-0.1,0.7c-1.5,4.8-1.4,9.7-1.3,14.7c0.1,3.1,0,6.3,0,9.4c0,0.6,0,1.2,0.1,1.8
		c0.3,2.6,0.6,5.2,0.9,8c1.4,0.4,2.9,0.8,4.6,1.2c0.9,2.7,1.9,5.4,2.7,8.1c0.5,1.7,1.2,3.1,2.7,4.1c1.6,1.1,3.1,2.2,4.7,3.3
		c1.5,1,3.1,2,4.4,3.2c2.6,2.5,5.7,4.4,8.7,6.4c1.1,0.8,2.7,1.3,4,1.3c2.8,0.1,5.1,1,7.4,2.5c0.5,2.2,1.1,4.4,1.6,6.6
		c0.5,2.5,0.2,5-0.3,7.5c-0.1,0.7-0.5,1.4-1,1.9c-3.2,3.4-7.1,5.4-11.7,5.6c-1.2,0.1-2.4,0-3.4-0.8c-0.5-0.4-1.3-0.4-2-0.5
		c-3.4-0.1-6.7-0.1-10.1-0.1c-1.3,0-2.5,0-3.9,0.5c-2.1,0.8-4.4,0.2-6.2-1c-2.6-1.7-5.5-2.4-8.6-2.7c-0.6,0.9,0.3,1.8,0.2,2.7
		c0,0.7-0.3,1.1-1.3,1.1c-0.2-0.3-0.5-0.6-0.7-1c-0.7-2.1-1.3-4.1-2-6.2c-0.5-1.5-1-1.9-2.6-2c-1-0.1-1.9,0-2.9-0.1
		c-4-0.5-7.8-1.6-10.9-4.3c-0.7-0.6-1.5-1.2-2.3-1.7c-2,1.6-3.8,3.1-5.7,4.6c-0.4,0.3-0.7,0.6-1.1,0.9c-0.6,0.3-1.1,0.3-1.7-0.1
		c-0.5-0.5-0.6-1.2-0.2-1.6c0.7-0.8,1.4-1.6,2.3-2.2c1.1-0.8,2.4-1.5,3.7-2.4c-0.8-1.3-1.5-2.4-2.3-3.7c-2.6,1.5-5.7,2.2-7.3,5
		c-0.4,0.7-1.6,0.7-2.3,0.2c-0.6-0.4-0.8-1.3-0.4-1.9c0.4-0.7,0.8-1.5,1.5-2c1.3-0.9,2.7-1.6,4-2.3c0.8-0.4,1.7-0.8,2.7-1.2
		c-0.7-1.6-1.4-3-2-4.3c-4.1-0.4-7,1.4-8.7,5.1c-0.5,1.2-1,1.6-1.7,1.4c-1-0.3-1.5-1.5-0.8-2.7c1.8-3.2,4.4-5.3,8-6.2
		c0.7-0.2,1.4-0.3,2.3-0.4c-0.1-0.8-0.2-1.4-0.4-2.3c-2.9,0.7-5.6,1.4-8.2,2.1c-0.7,0.2-1.4,0.5-2,0.9c-1.1,0.8-2.1,1.6-1.8,3.2
		c0.1,0.7-0.3,1.1-1,1.3c-0.8,0.1-1.7-0.6-1.8-1.4c-0.2-1,0.2-1.9,0.7-2.7c1.2-1.8,2.8-3,4.9-3.5c2.3-0.6,4.7-1,7.1-1.5
		c0.6-0.1,1.1-0.2,1.7-0.3c-0.1-5.2-7-9-11.2-6c-1.2,0.8-2.3,1.7-3.5,2.6c-0.8,0.7-1.6,1.5-2.4,2.2c-2.4,1.9-2.7,2.9-1.6,5.8
		c-1,2.6-3.5,3.9-5.2,5.8c-4.1,0.9-5.9-1.8-7.5-5.1c-0.4,0.7-0.7,1-0.8,1.4c-0.5,2.6-1,5.2-1.3,7.8c-0.1,1.2,0.2,2.4,0.2,3.6
		c0.1,2.8,0.2,5.5,0.2,8.3c0,0.7,0,1.6-0.4,2.1c-1.4,1.8-1.2,4.1-2.4,6.2c1.3,0.4,2.3,0.9,3.3,0.9c1.4,0,2.6,0.4,3.8,0.8
		c1.4,0.4,2.8,0.6,4.2,0.9c1,0.2,2.1,0.5,3.1,0.7c0.4,0.1,0.9,0.1,1.3,0c2.1-0.6,3.9-0.1,5.8,1c2.7,1.6,5.5,2.9,8.4,4.2
		c3.5,1.7,7.2,1.8,10.9,0.8c1.4-0.4,2.8-0.5,4.2-0.7c4.5-0.6,9-1.3,13.6-1.8c3.8-0.4,6.9-1.9,9.4-4.7c0.3-0.3,0.6-0.7,0.9-1
		c1,0.3,1,1,0.7,1.4c-1.1,1.3-2.2,2.6-3.5,3.6c-3,2.3-6.3,3.3-10.1,2.8c-3.1-0.4-6.9,0.4-9.7,1.7c-0.6,0.3-1.4,0.4-2.1,0.5
		c-1.4,0.2-2.9,0.3-4.3,0.6c-4.4,0.7-8.6,0.3-12.5-2.1c-1.8-1.1-3.7-2.2-5.6-3.3c-1-0.6-2.1-1.1-3.4-1c-3.4,0.1-6.7-0.7-10-1.3
		c-2.1-0.4-4.2-1-6.3-1.5c-1.5-0.4-3-0.9-3.9-2.6c0.5-1.5,1-3.1,1.7-4.6c0.8-1.8,1.3-3.6,1.2-5.6c-0.1-3.8,0-7.7-0.6-11.5
		c-0.2-1.2-0.1-2.4,0.2-3.6c0.7-3.5,1.4-7.1,2.2-10.8c0.6-0.2,1.4-0.5,2.2-0.8c0.1-0.2,0.4-0.4,0.4-0.6c0.2-1.7,0.5-3.3,0.4-5
		c-0.2-4.3-0.5-8.6-0.8-13c-0.3-3.9-1.3-7.6-2.4-11.3c-1.3-4.4-2.6-8.8-3.1-13.3c-0.1-1.2-0.5-2.4-0.8-3.5c-1.5-5-2.5-10-2.9-15.2
		c-0.5-5-1.7-10-2.8-14.9c-1.6-7.6-1.7-15.3-0.4-23c0.2-1.1,0.3-2.2,0.8-3.1c1.3-2.6,1.8-5.5,2.4-8.3c0.9-3.9,2-7.7,3.5-11.3
		c0.7-1.6,0.8-3.2,1-4.9c0.4-3.2,1.2-6.4,1.8-9.5c0.5-2.4,1.2-4.9,1.2-7.5c-2-0.5-3.9-0.4-5.8-0.2c-1.2,0.1-2.4,0.1-3.3-1
		c-0.3-0.4-1.1-0.5-1.6-0.5c-1.1-0.1-2.2-0.1-3.2-0.2c-0.4-0.1-0.9-0.4-1.1-0.7c-0.4-0.7,0.3-1,0.8-1.4c0.1-0.1,0.1-0.2,0.2-0.3
		c-0.3-2.4-0.7-4.7-0.8-7.1c-0.1-2.4,0.1-4.8,0.1-7.2c0-2.2-0.1-4.3-0.7-6.4c-0.4-1.4-0.4-2.8-0.5-4.3c0-6.1,0-12.3,0-18.4
		c0-1.2,0.1-2.4-0.1-3.6c-1.1-6-0.6-12,0.2-18c0.8-5.8,1.4-11.7,2.2-17.5c0.4-3.2,1-6.4,1.5-9.6c0.2-1.5,0.4-3.1,0.7-4.6
		c0.1-0.7,0.1-1.7,0.5-2.1c1.5-1.4,1.2-3.3,1.5-5c0.7-5,0.7-10.1,2.1-15c0.2-0.9,0.2-1.9,0.2-2.9c-0.1-3.1,0.9-6.2,0.1-9.3
		c0.5-2.7,1-5.4,3.5-7.2c2.7-1.9,4.2-4.9,6-7.6c0.2-0.3,0.4-0.7,0.4-1c-0.3-3,2.3-5.3,1.7-8.4c-0.1-0.3-0.2-0.7-0.3-1
		c-0.4-0.2-0.7-0.4-1-0.4c-6.2-1-12.3-2-18.5-3.1c-3.1-0.5-6.1-1.3-9.2-1.6c-2.1-0.2-4.2-1.1-6.3-1.7c-1.9-0.6-3.8-1.3-5.9-0.5
		c-1.1,0.4-1.9-0.2-2.3-1.3c-0.6-1.8-1.1-3.7-1.7-5.5c-0.4-1.1-0.8-2.2-1.2-3.4c-2.6-8.2-4.8-16.4-6.3-24.8c-0.9-4.6-1.2-9.3-0.5-14
		c0-0.1,0-0.2,0-0.4c0.2-6.6,2.2-12.7,5.3-18.6c1.2-2.2,1.9-4.7,2.8-7c0.3-0.8,0.3-1.7,0.3-2.5c-0.2-4.6,0.3-9.1,1.3-13.6
		c0.4-1.6,0.5-3.3,0.7-5c0.6-4,2.1-7.7,5-10.6c3.9-3.8,8-7.3,12-11c0.4-0.4,1-0.7,1.6-0.8c1.1-0.1,1.8-0.7,2.5-1.2
		c1.9-1.3,3.5-2.8,4.8-4.7c2.3-3.5,5.4-6.1,9-8.2c5.3-3.2,10.6-6.1,15.7-9.6c3.6-2.4,7-5,9.8-8.4c1.3-1.6,2.2-3.4,2.4-5.5
		c0.3-2.6,0.8-5.2,1.2-7.9c-0.9-0.5-1.8-1-2.7-1.5c0.8-2.3,0.8-2.3,0.2-4.6c-0.2-0.8-0.3-1.7-0.3-2.5c-0.2-3.3-0.8-6.4-2.2-9.4
		c-0.5-1.1-0.8-2.2-0.2-3.5c0.6-1.2,0.3-2.5-0.4-3.8c-2.5-4.8-2.6-9.6-0.1-14.5c0.6-1.2,0.8-2.7,1.2-4.1c0.2-0.7,0.2-1.6,0.6-2
		c1.2-1,1.1-2.6,2-3.6c0.6-0.8-0.2-1.3,0-2.1c1-0.2,1.8,0.1,2.6,0.9c-0.6,0.7-1.2,1.4-1.8,2.1c0.2,0.2,0.4,0.4,0.5,0.4
		c1.4-0.6,2.9-1.2,4.3-1.8c0.6,0.5,1.2,1,1.9,1.6c0.5-0.8,1.5-1.1,0.9-2.2c-1.1-0.5-2,0.3-2.9,0.7c-0.4-0.8-0.8-1.7-1.2-2.6
		c-1,0.1-1.8,0.2-2.6,0.3c-0.5-0.4-0.7-0.8-0.4-1.3c0.3-0.4,0.8-0.8,0.8-1.1c-0.3-1.5,0.5-2.2,1.7-2.7c-0.3-1.5-2.1-2-1.8-3.7
		c0.4,0,0.8-0.1,1.2-0.1c0.5,0,0.9,0.1,1.5,0.2c0.9,0.8,1.9,1.6,2.8,2.4c4,0.1,6.9-1.9,9.4-4.5c0.6,0.6,1,1.6,1.2,2.5
		c0.3,0,0.7,0,0.9-0.1c0.8-0.7,1.5-1.5,2.4-2.4c3.7,0,7.5,0,11.4,0c0.6,0,1.3,0.5,1.9,0.8c3.1-0.8,6.2-2.1,9.7-1.6c0,0.7,0,1.3,0,2
		c1.8-0.8,2.9-2.2,4.1-3.4c1.1-0.1,1.4,0.5,1.3,1.3c0,0.6-0.1,1.2-0.1,1.8c0,0.5,0,0.9,0,1.4c0,0.6-0.1,1.1-0.1,1.7
		c1.4-0.5,2.6-1,3.8-1.4c0.8-0.2,1.7,0.2,1.8,0.8c0.1,0.7-0.3,1.1-0.8,1.4c-0.9,0.5-1.9,1-3.2,1.6c2,0.8,3.8-0.6,5.3,0.7
		c-0.1,1.1-0.1,2.3-0.2,3.6c-2.1,2.3-5.8,2.7-7.7,5.9c0.3,3,0.5,6.2,0.8,9.5c0.1,0.6,0,1.3,0.3,1.8c1.2,1.9,0.7,3.7,0.1,5.5
		c-0.5,1.6-1,3.2-1.5,5c-2.1,0.4-4,1.5-6.4,0.5c-0.4,1.1-0.8,2.2-1.2,3.4c-0.2-0.3-0.3-0.4-0.3-0.6c-0.5-4.7,0.5-6.2,4.8-8
		c1.1-0.5,2.2-0.9,3.5-1.5c0.2-0.7,0.4-1.5,0.6-2.3c-2.5-3.7-1.7-8.1-2.5-12.1c-0.4-0.1-0.6-0.3-0.8-0.3c-2.4,1.1-4.9,1-7.4,0.2
		c-0.9-0.3-1.9-0.2-2.8-0.3c-0.4,0-0.8,0.1-1.1,0c-2.3-0.9-4.7-0.4-7.2,0c0,0.5-0.1,1-0.2,1.6c0,0.2-0.3,0.4-0.5,0.4
		c-0.2,0-0.6-0.2-0.6-0.3c0.1-0.9-0.4-1.7-1.1-2.1c-1.3-0.8-2.6-1.6-4.2-2.5c-0.7,0.9-1.2,1.6-1.9,2.5c0.3,0,0.6,0,0.9,0
		c1,0,2.1,0,3.2,0c0.6,1.3,1.1,2.5,1.8,3.8c-0.6,0.4-1.2,0.7-1.7,1.1c-1,0.7-1.7,1.9-3.3,1.4c-0.3-0.1-0.9,0.4-1.1,0.8
		c-0.5,0.7-0.8,1.5-1.1,2.2c-0.7,1.8-1.7,3.5-3,4.9c-1.2,1.1-1.7,2.5-2.2,4c-0.9,2.7-2.1,5.4-3.2,8c-0.3,0.6-0.6,1.3-1.5,1.2
		c-0.7-2.8-1.3-5.5-2-8.2c-0.1-0.5-0.6-1-1-1.4c-0.5-0.4-1.1-0.3-1.6,0.2c-0.2,2,1.4,2.9,2.7,4.3c-0.2,1.7-0.5,3.6-0.8,5.6
		c-0.9,0.1-1.7,0.3-2.8,0.4c0.4,0.8,0.7,1.6,1.2,2.1c0.4,0.4,1.3,0.4,2.1,0.6c-0.2,1.1-0.5,2.3-0.5,3.4c-0.1,1.2,0.3,2.4,0.2,3.6
		c-0.2,2.3-0.5,4.5-1.1,6.8c-1,4-1.3,8.1-1.9,12.1c-0.2,1.1-0.4,2.1-1.6,2.6c-0.4,0.2-0.8,0.5-1.1,0.9c-2.4,2.2-4.7,4.5-7.1,6.7
		c4,9.1,10.1,17.1,16.1,25c3.7,4.8,7.6,9.3,12,13.5c3.7,3.5,7.7,6.6,12.5,8.4c0.5,0.2,1.1,0.2,1.8,0.4c0.6-3.8-0.8-7.2-1.6-11.4
		c1.9,1.4,2.1,2.7,2.3,3.9c0.3,1.2,0.5,2.3,0.7,3.5c0.1,1.3,0,2.6,0,4c1.7,0.9,3.3,0.7,4.8-0.3c3.6-2.4,5.2-5.9,5.9-9.9
		c0.7-3.6,0.3-7.2-0.4-10.7c-0.2-0.9-0.2-1.8-0.5-3.4c0.8,0.7,1.2,0.9,1.4,1.3c1.7,4.6,2.4,9.4,1.5,14.2c-0.3,2-1.4,3.8-2.2,5.7
		c-0.4,0.9-1.2,1.6-1.4,2.5c-0.4,1.7-1.7,2.3-3.1,2.7c-3.4,1-6.7,0.6-9.9-0.5c-3.6-1.2-6.8-3.2-9.6-5.6c-2.9-2.5-5.7-5.2-8.3-8
		c-6.1-6.6-11.7-13.8-16.3-21.6c-2.4-4.1-4.8-8.3-7.4-12.6c-1.7,0.5-3.1,1.7-4.9,2.7c0.6,1,1,1.7,1.4,2.4c5,8.1,8,16.9,8.5,26.5
		c0.4,7,0.7,13.9,0.6,20.9c0,3.3-0.4,6.5-1.3,9.6c-0.8,2.8-1.9,5.4-4,7.6c-0.3,0.3-0.6,0.8-0.9,1.2c2.1,1.8,5.3,0.5,7.5,2.7
		c-0.7,0.3-1,0.6-1.4,0.7c-1.9,0.5-3.8,0.2-5.7-0.1c-2.3-0.4-4.2,0-5.9,1.8c-1.2,1.3-2.7,2.2-4.7,2.4c-1.4,0.1-2.8,0.7-4.2,1
		c-0.8,0.8-0.4,1.8-0.4,2.7c0.3,4.7-0.4,9.4-1.7,13.9c-0.6,2.1-1.6,4-2.5,6.4c0.2,0.4,0.3,1.3,0.7,2c2.2,3.5,4.4,6.9,5.8,10.8
		c0.3,0.9,1,1.3,1.9,1.5c1.5,0.3,3.1,0.6,4.6,0.9c3.6,0.9,7.2,1.8,10.6,3.5c2.1,1.1,4.4,1.3,6.7,1.3c4,0,7.9,0.5,11.9,0.9
		c0.2,0,0.5,0,0.7,0c1.3-2.6,0.5-5.8,1.9-8.4c0.8,0.1,0.7,0.7,0.6,1.1c-0.8,2.4-0.8,4.8-0.2,7.4c0.8,0,1.6,0.1,2.5,0
		c2.2-0.2,4.3-0.3,6.5,0.2c2.1,0.5,3.7-0.3,4.9-2c1.1-1.7,2.3-3.4,3.5-5.1c1-1.4,1.9-2.7,3-4c0.7-0.8,1.3-1.5,1.7-2.6
		c0.3-1.1,1.6-2,2.7-3.3c0-1.6,0-3.7,0-5.6c0.4-0.3,0.7-0.7,1-0.7c2.7-0.5,5.4-1,8.3-1c1.5,1.7,2.9,3.5,5.5,4.2
		c0.3-0.6,0.6-1.2,0.8-1.8c0.6-2.6,1.1-5.2,1.7-7.8c0.1-0.7,0.1-1.4,0.1-2.1c0-4.5,0-8.9,0.1-13.4c0-0.7,0-1.5,1.2-1.6
		c0.1,0.6,0.4,1.3,0.4,2c0,3.7,0,7.5-0.1,11.2c0,0.6,0,1.2-0.2,1.8c-1.2,2.9-1.2,6.1-1.6,9.2c-0.3,2.3,0.5,4.3,2.5,5.5
		c1,0.6,2.1,1.2,3.1,1.9c0.4-0.3,0.8-0.5,1.2-0.8c1,0.1,1.5,0.9,1.7,1.6c0.3,1.2,1.1,1.8,2,2.4c1.7,1.1,3.4,2.3,5.2,3.5
		c0.8-0.2,1.6-0.4,2.4-0.5c2.5-0.4,5-0.3,7.5,0.7c0.7,0.3,1.2,0.8,1.1,1.8c-1.9,0.2-3.8,0.3-6,0.6c0.5,0.6,0.8,1,1.1,1.2
		c2.8,1.8,5.7,3.6,8.5,5.5c1.5,1,2.8,2.2,4.5,3.6c0.4,0,1.2,0,1.9,0c0.2-0.3,0.4-0.6,0.3-0.8c-0.2-2-0.5-4-0.8-6.1
		c-0.1-0.4-0.1-0.7-0.3-1c-2.3-4-2.3-8.5-3.2-12.8c-0.5-2.5-0.9-5-1.3-7.5c-0.5-3.4-1.6-6.5-3-9.6c-1-2.2-2.2-4.2-3.6-6.2
		c-1.1-1.6-1.7-3.4-2.6-5.1C195.8,169.3,195.5,168.7,195.2,168c-0.1,0-0.2-0.1-0.3-0.2c-0.1-0.1-0.1-0.2-0.2-0.3
		C194.9,167.6,195.1,167.8,195.2,168z M141.7,13.3l0.2-0.1L141.7,13.3l-0.1,0.2L141.7,13.3z M121.4,32.8c0.2-0.2,0.4-0.3,0.2-0.1
		C121.7,32.4,121.6,32.7,121.4,32.8l0,0.2L121.4,32.8z M125.1,44.5c0.9,0,1-0.7,1-1.4C125.2,43.2,125,43.8,125.1,44.5
		c0,0.2,0,0.2-0.1,0.3C125,44.7,125,44.6,125.1,44.5z M178.6,202c-0.3,0-0.5,0-0.8,0c-0.4-0.4-0.7-0.9-1.2-1.3
		c-2.3-1.7-4.6-3.4-6.9-5.1c-0.6-0.4-1.5-0.5-2.6-0.8c-1.8-2.3-1.8-2.3-5.2-1.9c-1,0.1-2.1,0.3-3,0.4c-0.5,1.2-0.5,2.2,0,3.5
		c0.5-0.5,0.9-0.8,1.1-1.2c0.9-1.4,2.1-1.4,3.5-1c0.6,0.2,1.1,0.5,1.6,0.8c2.2,1.5,4.4,2.9,6.5,4.4c6.4,4.5,13.1,8.5,20.1,12
		c3.2,1.6,6.4,3.4,9.5,5.1c0.7,0.4,1.2,1,1.9,1.6c-0.4,0.2-0.7,0.4-0.8,0.4c-2-0.8-4.1-1.4-6-2.4c-2.9-1.5-5.7-3.2-8.5-4.7
		c-0.8-0.5-1.7-0.8-2.3-1.1c-1.8,0.3-3,1.6-4.9,1.5c0.6-0.9,0.9-1.6,1.3-2.3c-1.1-1.2-2.2-2.4-3.3-3.5c-1.3-1.3-2.6-2.5-4.6-2.5
		c-0.4-0.3-0.7-0.7-1.1-0.8c-1.1-0.1-2.1-0.1-3.2-0.1c-2.6-0.1-5.3-0.3-7.9-0.5c-1.6-0.1-2.7,0.5-3.7,1.8c-0.9,1.3-1.9,2.5-2.9,3.7
		c-0.3,0.3-0.4,0.9-1.2,0.4c0.4-2.9,2.6-4.6,4.7-6.3c0.4-0.3,1.1-0.4,1.7-0.5c1.2-0.2,2.4-0.3,3.6-0.3c2.1,0,4.2,0.1,6.4,0.1
		c-3-2.5-6.8-4.8-8.7-5.3c-1.4,1.4-2.8,2.9-4.2,4.3c-0.1,0-0.1-0.1-0.2-0.1c0.1,0,0.2,0,0.2,0.1c-0.2,0.4-0.3,1-0.6,1.2
		c-3.2,2.2-4.7,5.7-7.1,8.6c-1.1,3.4-3.7,5.5-6.6,7.6c-0.6,0-1.3,0-2,0c-3.2-0.2-6.5-0.5-9.7-0.6c-3.2-0.1-6.4-0.9-9.7-0.4
		c-0.6,0.1-1.2-0.2-1.8-0.3c-2-0.4-4-1-6-1.1c-1.8,0-3.6-0.3-5.3-0.8c-8-2.2-16-4.5-23.6-7.9c-3.4-1.5-6.6-3.5-9.9-5.2
		c-0.6-0.3-1.1-0.9-1.7-1.5c1.6-0.5,2.5,0.5,3.5,0.9c1.1,0.5,2.1,1,3.3,1.5c2.3-4.2,4.3-8.3,5-12.9c0.2-1.4,0.6-2.8,1-4.2
		c0.9-3,1.2-6.1,1.2-9.3c0-1.4-0.1-2.9,0-4.3c0.5-5,1.1-10,0.7-15.1c-0.2-1.9,0.3-3.8,1.4-5.5c0.3-0.5,0.7-1,1.7-0.8
		c0.3,2-0.9,3.9-0.9,5.9c0,2-0.1,4.1-0.1,6.1c0,2-0.3,4.1,0.4,6c3,1.1,5.2-1,7.7-1.5c0.8-0.1,1.7-0.9,2-2.1
		c-0.6-0.4-1.2-0.7-1.8-1.2c-1.9-1.7-3.8-3.3-5.6-5.1c-0.6-0.6-1-1.4,0.1-2.2c1.7,1,3.4,2.2,5.2,3c1.8,0.9,3.7,1.5,5.8,2.3
		c2.2-1.6,3.3-4,4-6.5c1-3.6,1.5-7.3,1.6-11c0.2-7.5-0.4-14.9-0.8-22.4c-0.1-1.9-0.3-3.8-0.7-5.7c-0.3-1.6-0.4-3.4-1.4-4.9
		c-1.3,0-2.6,0-3.9,0c-2.5,0.1-2.5,0.1-4-0.7c2.4-1.3,5.1-0.1,7.6-1.2c-1.5-4.9-3.6-9.4-6.4-13.8c-0.7,0.4-1.4,0.6-2,1
		c-2.2,1.4-4.4,2.9-6.7,4.3c-4.7,2.9-8.7,6.4-11.5,11.3c-0.2,0.3-0.5,0.6-0.8,1c-1.4-0.1-2.5,0.9-3.6,1.7c-3.2,2.2-6,4.8-8.6,7.6
		c-1.2,1.3-2.5,2.6-3.8,3.8c-1.5,1.3-2.7,2.8-3.5,4.5c-1.2,2.6-2.3,5.3-3.3,8c-0.4,1-0.5,2.1-0.6,3.2c-0.2,2,0.1,4.1-1.1,5.9
		c-0.3,0.5-0.2,1.2-0.2,1.8c-0.1,1.4,0,2.9-0.1,4.3c-0.1,1.9,0.5,3.9-1.3,5.3c-0.1,0.1-0.2,0.4-0.2,0.7c-0.1,2.5-1.3,4.6-2.3,6.8
		c-1.5,3.2-2.7,6.4-3.5,9.8c-1.7,7.3-1.5,14.6-1,21.9c0.2,2.8,0.7,5.5,1.6,8.1c1.2,3.4,2.3,6.8,3.5,10.2c0.9,2.5,1.9,4.9,1.8,7.7
		c0,1.6,0.6,3,1.3,4.5c0.8,1.7,2,2.6,3.8,2.8c3.6,0.4,7.2,0.8,10.7,1.2c1.3,0.1,2.7,0.2,3.9,0.4c4.8,1,9.7,1.7,14.6,2.1
		c2.9,0.2,5.7,0.6,8.6,0.8c4.4,0.4,8.9,1,13.3,1c4.9,0.1,9.9-0.1,14.8-0.7c3-0.4,6.3-0.3,8.6-3c0.1-0.1,0.2-0.1,0.3-0.2
		c2.8-0.7,5.6-1.3,8.5-1.5c0.3,0.7,0.6,1.3,1,2c1,0,2.1,0,3.2,0c2,0,4.1-0.1,6.1-0.1c0.8,0,1.7,0.1,2.4,0.5c2.5,1.4,5.1,1.3,7.7,0.6
		c1-0.3,1.8-0.2,2.8,0c1.3,0.3,2.6,0.5,3.9,0.6c0.6,0,1.3,0.2,1.9-0.8c-1.4-0.3-2.5-0.5-3.6-0.9c-1.1-0.4-2.3-0.7-3.3-1.3
		c-2.4-1.4-2.7-2.5-1.6-5.1c0.4-1,1.1-1.6,2.2-1.6c0.5,0,1-0.1,2.4-0.3c-2.4-0.8-4-1.3-5.5-1.8c-1.8-0.6-2.3-1.4-2-3.2
		c0.2-0.8,0.5-1.5,0.8-2.4c-1.4-0.1-2.6-0.1-3.7-0.3c-0.9-0.1-1.2-1.1-0.8-2.1c2.5,1.1,2.5,1.1,4.7,0.3c1-0.4,2-0.9,2.9-1.4
		c0.6-0.3,1.2-0.9,1.9-1c3.4-0.7,6.8-1.4,10.2-2.1c0.2,0,0.4,0.2,0.5,0.4c0.2,0.8-0.7,0.9-1,1.3c0,0.6,0.9,1.2,0,1.9
		c-0.5-0.7-1-1.3-1.5-2.1c-2.5,0.5-5,1.1-7.4,1.6c-0.3,0.1-0.7,0.2-1,0.4c-0.8,0.5-1.5,1.1-2.3,1.7c-0.1,1.7-1.9,2.4-2.3,4
		c-0.2,0.8,0.3,1.8,1.1,2c2.2,0.4,4.5,0.8,6.7,1.2c0.2,0,0.5,0,0.7,0c1.9-0.1,3.8-0.3,5.8-0.5c1.1-0.1,2.2-0.2,3-1.3
		c-0.1-1.3-0.3-2.7-0.4-4.1c-1.6-0.4-3-0.3-4.5-0.3c-2.4,0-4.8,0-7.2,0c-0.5,0-1-0.1-0.7-0.9c0.8,0,1.6-0.1,2.4-0.1
		c2.4-0.1,4.8-0.2,7.2-0.2c1.8,0,2.9-0.8,3.7-2.4c-0.7-1.2-2.3-2-1.5-3.8c0.1-0.3-0.2-0.9-0.4-1.3c-0.6-1.2-1.2-2.3-1.8-3.4
		c2.3,0.6,2.8,1.1,3,2.9c0.1,0.8,0,1.6,0,2.4c1,0.9,2.4,1.2,2.7,3c-0.4,0.9-1,2-1.5,3.2c0.1,1,0.2,1.9,0.3,2.9
		c0.3,1.7,0.3,3.5,1.5,5c0.9,1.1,0.7,2.5-0.5,3.6c-0.2,0.2-0.4,0.5-0.7,0.8c0.5,0.1,0.9,0.3,1.2,0.2c7.7-2.2,15.4-4.6,22.4-8.5
		c0.6,0.5,0.5,1.1,0.1,1.3c-1.2,0.8-2.4,1.5-3.7,2.2c-4,2-8.1,3.6-12.4,4.9c-4.7,1.4-9.2,3.3-13.6,5.7c-2,1.1-4.2,1.8-6,2.7
		c-1.3-0.3-2-1.4-3.4-0.9c-0.2,1.2-0.4,2.5,0.2,3.7c4.2,0.4,5,0.2,7-1.7c2,0.3,2,0.3,3.7-0.5c9.3-4.4,18.7-8.9,28-13.3
		c1.1-0.5,2.1-1.2,2.9-2.5c-0.1-1.3-0.1-2.9-0.2-4.5c-1.2-0.7-2.3-1.3-3.5-2c-2-1.1-4-2.3-5.9-3.4c-0.7-0.4-1.4-0.9-2.2-1.3
		c-4.3-2.2-8.3-4.8-12.2-7.7C180.5,202.9,179.5,202.5,178.6,202z M136.7,540c-1,0.8-1,2.2-1.6,3.1c-1,1.5-1,3.1-1.1,4.8
		c-0.1,4.7,0.5,9.3-0.5,14c4.5,4.1,9.3,7.4,15.5,7.8c2,0.1,4,0.6,5.7,1.9c0.4,1.1,0.8,2.3,1.2,3.4c1.1,0.3,2.1,0.6,3.2,0.8
		c3.7,0.6,7.3,1.3,11,1.8c3.8,0.4,7.7,0.7,11.5,0.9c3.8,0.2,7.7,0.2,11.5,0.3c4,0.1,7.1-1.6,9.6-4.6c0.1-4.4-0.3-8.7-1.5-13
		c-2-0.6-4-0.8-6-0.9c-2-0.1-3.8-0.6-5.4-1.7c-3.3-2.2-6.4-4.5-9.6-6.8c-1.7,0.4-3.4,0.8-5,1c-1.9,0.2-2.9,2.1-4.8,2.6
		c-0.2-0.5-0.6-0.9-0.6-1.3c0-0.6,0.2-1.2,0.6-1.6c1-1.3,2.4-1.9,4-2.3c1-0.2,2-0.5,3.4-0.8c-1.2-1.3-2.2-2.3-3.4-2.9
		c-3.5,1.2-6.9,2.4-10,4.3c-0.1,0.1-0.2,0.1-0.3,0.1c-0.4-0.1-1-0.1-1.2-0.4c-0.2-0.3-0.3-1-0.1-1.3c0.5-0.7,1.1-1.4,1.8-1.7
		c2.1-0.9,4.2-1.7,6.3-2.5c0.4-0.2,0.8-0.4,1.5-0.7c-0.7-0.6-1.1-1.1-1.6-1.2c-1.4-0.3-2.9-0.3-4.2,0.5c-1.3,0.9-2.6,1.7-3.9,2.6
		c-1,0.7-1.8,1.6-3.1,1.6c-1-1-1.2-1.5-0.7-2c0.3-0.4,0.6-0.7,1-1c2.5-2.1,5.1-4,8.6-4.4c0-3-1.2-5.2-3-7.1c-2.6-0.9-4.9-0.3-7,1
		c-2.7,1.7-4.8,4-6.2,6.9c-0.5,1-1,1.9-1.8,2.6c-1.5,1.4-3,2.7-4.6,4c-3,2.4-6.4,2.2-9-0.6c-0.7-0.7-1.2-1.6-0.8-2.6
		c0.7-1.5,0.4-3.1,0.6-4.6c0.6,0,1.2,0,1.5,0.7c0.2,0.5,0.2,1.2,1.2,1.4c0.2-0.8,0.4-1.6,0.6-2.6C138.6,539.1,137.4,538.5,136.7,540
		z M166.2,414.3c-0.9,1.2-1.7,2.4-2.6,3.4c-0.3,0.4-1,0.7-1.7-0.1c0.6-2.3,2.2-4,3.4-5.7c0.9-0.3,1.3,0.8,1.9,0
		c2.3-8.2,2.7-10.4,2.5-13.5c-2-0.4-4-0.1-6-0.2c-2.1-0.2-4.3-0.3-6.5-0.5c-0.8,0.8-1.6,1.5-2.4,2.2c-0.4,0.4-0.8,0.4-1.3-0.1
		c0.2-0.6,0.4-1.3,0.8-2.3c-3,0.2-5.7-1-8.7-0.3c-0.2,1.3-0.3,2.5-0.5,3.5c-0.7,0.7-1.3,1-2.3,0.8c-2.9-0.7-5.9-0.3-8.9,0.4
		c-0.2,1.2-0.8,2.3-0.6,3.3c0.7,3.3,1.2,6.7,3.2,9.5c2.2,3.1,3.2,6.7,5,10c0.2,0.4,0,1.1,0,2.1c-0.8-0.5-1.4-0.7-1.8-1.1
		c-0.6-0.9-1.1-1.8-1.7-2.8c-0.3-0.5-0.4-1.1-1.3-1c-1.6,5.8-3,11.6-3.2,17.7c-0.1,3.8-0.8,7.7-1,11.5c-0.1,2.1-0.2,4.4,0.1,6.5
		c0.7,4.4,1.6,8.7,3,13c1.1,3.3,2,6.7,2.9,10.1c0.8,2.9,1.5,5.8,2.2,8.7c0.3,1.5,0.7,3.1,0.4,4.6c-0.5,3.8,0,7.4,0.2,11.1
		c0.3,6.5,0.5,13,0.4,19.5c-0.1,3.2,0.4,6.3,0.9,10c0.2-0.9,0.3-1.2,0.4-1.6c0.3-2.5,0.5-5,0.8-7.5c0.1-0.8,0.1-1.7,1.1-2
		c0.2,0.2,0.5,0.4,0.5,0.5c0.2,4.1-0.3,8.1-1.5,12.1c-0.2,0.5-1,0.8-1.5,1.2c-0.2,1.8-0.4,3.5-0.6,5.5c1,0,1.8-0.1,2.6,0
		c0.8,0.1,1.6,0.3,2.6,0.6c0.8-0.9,1.7-1.9,2.5-2.9c0.8-1,1.6-2.1,2.4-3.2c2.1-2.9,4.6-5.2,8.1-6.3c0.2-0.1,0.3-0.3,0.7-0.6
		c0-0.4,0.1-1,0.1-1.6c0-0.8-0.1-1.7-0.1-2.5c-0.1-1.1-0.3-2.2-0.3-3.2c-0.4-10.5,0.6-20.9,1.7-31.3c0.6-6.1,1.7-12.1,2.1-18.3
		c0.4-8,1.6-16,3.1-23.9c1.5-7.5,1.6-15.1,0.7-22.6c-0.3-2.7-0.6-5.5-1.2-8.2C166.6,417.3,166.1,415.8,166.2,414.3l0.1-0.1
		L166.2,414.3z M179.8,254.1c0.2-0.5,0.4-1.1,0.7-1.8C179.7,253,179.7,253,179.8,254.1c0.3,0.8,0.1,1.6-0.9,1.9
		c-1.4,0.4-2.9,0.6-4.4,0.8c-3,0.5-6,0.9-9.1,1.3l0.1,0.1c-0.6-1.3-1.4-2.5-1.4-4c0-0.5,0.1-1,1-1c0.6,1.1,1.2,2.4,1.9,3.7
		c1.5-0.3,3,0.2,4.1-0.8c0.2-1.1,0.3-2.1,0.6-3c0.1-0.4,0.3-1,1-0.6c0.6,1-0.5,2.2,0.2,3.3c0.7-0.4,0.3-1.1,0.5-1.6
		c0.2-0.7,0.5-1.3,0.6-2c0.1-0.5,0.8-1,0.2-1.5c-6.1,0.8-12.2,1.7-18.3,2.5c-1.7,0.2-3.4-0.1-5,0.3c-3.1,0.7-6.2,0.6-9.3-0.1
		c-1.7-0.3-3.5-0.6-5.4-0.9c0,2,0,3.8,0,5.6c0.3,0.5,1.4,0.5,1.1,1.6c-1.5-0.3-3-0.5-4.5-0.8c-2.1-0.5-4.2-1-6.3-1.5
		c-0.3-0.1-0.4-0.5-0.7-0.7l-0.1,0.1c3,0.4,5.9,0.8,8.9,1.3c0.4-4.7,0.4-5.2-0.7-6.2c-0.5,1.4-0.9,2.7-1.3,4c-0.1,0-0.3,0-0.4-0.1
		c0-1.4-0.1-2.7-0.1-4c-3-0.8-3-0.8-3.7-0.2c0.1,0.3,0.1,0.7,0.2,1.2c0.4-0.2,0.6-0.4,0.8-0.5c0.3-0.1,0.6-0.2,1.2-0.3
		c-0.3,1.5-0.7,2.7-1.4,3.9c-0.9-0.2-1.6-0.4-2.5-0.6c0-1.6,0-3.1,0-4.7c-4.7-1.2-9.1-3.3-13.9-2.1c-0.4,1.7-0.7,3.2-1.2,5.4
		c-1.4-2.4-0.2-3.9,0.1-5.6c-1.5-0.8-3-0.8-4.6-0.7c-0.4,1.2-0.7,2.3-1.1,3.5c-1-0.3-1.9-0.5-2.9-0.8c0-1.1,0.1-2.2,0-3.2
		c0-0.5-0.4-0.8-1-0.5c-0.9,1.2,0.6,3.1-1.5,4.3c-0.1-1.4-0.1-2.6-0.2-3.8c0-0.5-0.2-0.9-0.9-0.7c-0.6,1.7,0.3,3.8-0.8,5.9
		c-0.2-0.8-0.4-1.2-0.5-1.7c-0.1-1,0-1.9-0.2-2.9c-0.1-0.9-0.7-1.2-1.7-0.6c-0.1,1.2-0.2,2.5-0.3,4c-0.2,0.4-0.7,0.8-0.9,1.3
		c-1,2.7-2.9,4.6-4.9,6.6c-1.4,1.4-3.4,6.1-3.5,8.1c-0.2,4-0.3,7.9-0.5,11.9c-0.1,1.2-0.1,2.5-0.6,3.5c-0.8,1.4-0.9,2.7-0.9,4.2
		c-0.1,2.5,0,5.1-0.1,7.6c0,2,0,4.1,0,6.1c0,0.8,0,1.8-0.8,2.3c-1,0.6-1.1,1.5-1.2,2.5c-0.2,3.6-0.5,7.2-0.7,10.8
		c-0.3,8.3-1.7,16.5-3.2,24.7c-0.3,1.9-0.6,3.8-0.6,5.7c0,7.7,0,15.4,0,23.1c0,0.6,0,1.2,0.1,1.8c0.8,5.8,1.1,11.7,1.1,17.6
		c0,2.7,0.4,5.2,1.3,8c2.1-0.1,4,1.1,6.3,0.9c1.9-0.2,3.8,0,5.7,0.7c1.4,0.5,3.1,0.6,4.6,0.7c4.4,0.4,8.9,0.5,13.3,1.1
		c5.6,0.7,11.3,0.8,16.9,0.4c4.8-0.3,9.6-0.5,14.4-0.8c0.3,0,0.6-0.3,0.9-0.4c0.1-0.3,0.3-0.5,0.3-0.8c0.3-4.3,0.7-8.6,0.8-12.9
		c0.1-3.8,0.4-7.7,1-11.5c1.1-7,1.9-14.1,4.1-20.9c1.3-3.9,1.4-8,1.8-12.1c0.5-5.3,1.2-10.5,1.2-15.8c-0.1-5.9-0.1-11.8,0.7-17.7
		c0.1-0.6,0.2-1.1,0.3-1.7c0.4,0.9,0.4,1.7,0.4,2.5c-0.1,4.2-0.4,8.4-0.2,12.6c0.4,8.7-0.7,17.3-1.4,25.9c-0.2,1.9-0.6,3.8-1.1,5.7
		c-0.7,2.9-1.7,5.8-2.2,8.7c-1.1,6.5-1.9,13.1-2.8,19.6c-0.2,1.4-0.2,2.9-0.2,4.3c0,1.6,0.1,3.1,0.1,4.7c0,1.4,0,2.8,0.1,4.3
		c17,2,33.7,2.1,50.4-0.4c0.1-0.5,0.3-0.8,0.3-1.1c0-3.4,0.1-6.7,0-10.1c-0.3-6.6-0.8-13.2-1.3-19.8c-0.1-1.6-0.2-3.1-0.6-4.6
		c-1-4.1-1.6-8.3-1.8-12.5c-0.3-4.7-0.6-9.3-0.4-14.1c0.2-4.4,0.3-8.9-0.4-13.3c-1-5.8-1.9-11.6-2.7-17.5
		c-0.8-5.6-1.7-11.2-1.9-16.8c-0.1-2.8-0.4-5.5-0.6-8.3c-0.1-1.4-0.2-2.9,0.1-4.3c0.3-1.4,0.2-2.6-0.5-3.8c-1.1-2-2.2-4-3.4-6
		c-0.9-1.7-1.9-3.3-1.7-5.4C181,255.7,180.9,254.6,179.8,254.1z M97.2,529.8c1.6,4,1.7,7.5,1.3,11c-0.6,0.2-1.1,0.3-1.7,0.5
		c-0.1,2.4-1,4.8-0.2,7.3c1.8,1.1,3.5,2.4,5.9,1c1.2-2.4,2.8-4.8,4.9-6.8c2.1-2.2,4.9-3.4,7.6-5.1c-0.2-1.3-0.1-2.9-0.7-3.8
		c-1.3-1.9-1.2-3.8-1.3-5.9c-0.2-4.4-0.4-8.9-0.7-13.3c-0.4-5.8-0.7-11.5,0.7-17.2c0.3-1.3,0.3-2.6,0.5-3.9c0.1-1.2,0.2-2.4,0.4-3.6
		c1.3-7.2,2.5-14.4,4.1-21.6c1.3-6.1,1.2-12.2,0.1-18.3c-0.9-5.1-1.1-10.3-0.5-15.4c0.1-0.8,0-1.7-0.3-2.4c-0.6-1.5-0.1-2.6,0.9-3.6
		c2.2-1.9,3.4-4.3,4.6-6.8c1.9-4.2,3.1-8.5,3.9-13.1c0.1-0.5,0.3-1.1,0.6-1.8c0.5,0.6,0.9,0.9,1.2,1.2c2-2.2,2.5-3.4,2.6-5.9
		c-0.8,0-1.7-0.1-2.5,0c-4.1,0.6-8.1,0.8-12.2,0.5c-2-0.2-3.5,0.5-4.7,2c-0.7,0.9-1.6,1.8-2.4,2.7c-0.4,0.4-0.9,0.3-1.3-0.3
		c0.4-1.9,2.5-2.8,3.2-4.8c-5.2-0.5-10.3-1-15.4-1.5c-0.4,0-0.7,0-1.1,0c-0.1,0-0.2,0.1-0.3,0.1c-0.1,0.1-0.2,0.1-0.3,0.2
		c-0.6,3.3-1.3,6.6-1.9,9.9c0.5,2,0.1,4-0.6,5.9c0.5,1.2,0.1,2.4-0.3,3.5c-1.7,4.1-2.7,8.5-3.5,12.8c-0.2,1.2-0.5,2.4-0.7,3.5
		c-0.4,1.8-1,3.4-2,4.9c-1,1.5-1.9,3-2.1,4.9c-0.6,5-0.8,10.1,0,15.1c0.8,5.1,2.1,10.1,3.1,15.2c0.4,2.2,1.6,4.3,0.6,6.7
		c-0.2,0.5,0.1,1.2,0.2,1.8c0.6,5.9,2.3,11.5,3.9,17.2c0.6,2.2,1,4.4,1.1,6.7c0.1,1.1,0.2,2.1,0.5,3.1c1.6,5.1,3.3,10.3,5,15.6
		c-1,1.2-1.1,2.7-0.9,4.3c0.2,1.3,0.2,2.6,0.3,3.9c0.1,0,0.1,0,0.2,0C96.8,534.3,97,532.4,97.2,529.8z M136.7,419.1
		c-3.1-2.7-3.6-6.6-5.1-10.4c-1.4,1.8-2.6,3.4-3.9,5c-1.8,6.2-3.3,12.5-8.5,17.1c0,6.8-0.2,13.4,1.2,20.1c0.5,2.5,0.7,5,0.9,7.5
		c0.1,1.3,0,2.6-0.3,3.9c-1.3,7.2-2.6,14.4-3.9,21.6c-0.2,1.3-0.5,2.6-1.3,3.7c-0.5,0.6-0.7,1.5-0.8,2.3c-0.3,2-0.4,4.1-0.5,6.1
		c-0.1,2.6,0.2,5.4-0.4,7.9c-0.6,2.5-0.4,4.7-0.1,7.1c0.6,4.9,1.1,9.8,1.2,14.7c0.1,4,0.7,7.9,1.6,11.5c2.3,1.6,4.4,3,6.5,4.4
		c1.5,1,2.3,2.4,2.8,4.1c0.3,0.9,0.4,1.9,0.6,2.8c0.7,3.6,1.9,7,4.1,9.9c0.2,0.3,0.7,0.5,1.3,0.9c0.1-4.2,0.4-8,0.3-11.9
		c-0.1-3.3,1.2-6.1,2.4-8.9c0.2-0.6,0.9-1.1,1.4-1.6c1.2,0,2.4,0,3.7,0c0.1-1.2,0.2-2.3,0.1-3.4c-0.1-3.2-0.2-6.5-0.3-9.7
		c-0.2-5.8-0.1-11.5-0.6-17.3c-0.4-5.1-0.5-10.1-0.3-15.1c0.1-1.8-0.1-3.6-0.8-5.3c-2.4-6-3.8-12.4-5.6-18.6
		c-1.9-6.5-2.4-13.2-1.6-20c0.3-2,0.5-4.1,0.6-6.1c0.3-6.3,1.4-12.4,3.3-18.4c0.2-0.7,0.3-1.4,0.6-2.1
		C135.8,420.3,136.2,419.7,136.7,419.1z M125.5,239.1c2.1,3.2,5.7,5.4,6.2,9.7c4,0.9,8.1,2,12.3,2.4c1.1,0.1,2.2,0.3,3.2,0.1
		c4.9-0.6,9.9-0.2,14.7-1.1c2.5-0.5,5-0.6,7.5-0.9c1.8-0.2,3.6-0.4,5.4-0.6c1.1-0.1,2.1-0.4,2.8-1.3c-0.5-2.5-1-5-1.5-7.5
		c-1.8,0.6-3.4,1.1-4.6,2.3c-1.1,1.2-2.5,1.3-4,1.1c-1.3-0.2-2.6-0.4-3.9-0.6c-0.5-0.1-1.1-0.4-1.8-0.7c0-1.7,0-3.4,0-5.1
		c-1.9-0.5-3.7-0.5-5.5-0.4c-0.5,2.3,0,4.7-1.2,7.2c-0.5-2.3-0.2-4.1-0.3-5.8c-0.1-0.7-0.3-1.3-0.4-2c-1-0.1-1.8-0.1-2.7-0.2
		c-2.8-0.1-5.5,0-8.3-0.3c-2.6-0.3-5,0-7.5,0.7C132.5,237.2,129.1,238.1,125.5,239.1z M98.9,240.4c-0.1,0.5-0.2,0.8-0.2,1
		c0,2.5,0.1,2.5,2.8,2.8c0.8,0.1,1.6,0.3,2.5,0.5c2.4,0.4,4.7,1,7.1,1.3c5.8,0.8,11.6,1.5,17.4,2.1c0.5,0.1,1.2,0.3,1.6-0.6
		c-2.1-3.1-4.5-6-7.5-8.6c-3.2-0.2-6.2-0.3-9.2,0.9c-3.2,1.2-6.6,1.2-10,0.8C101.9,240.5,100.5,240.2,98.9,240.4z M184.1,236.4
		c0,0.2,0.1,0.5,0.1,0.7c7.1,0.8,13.9-1,20.7-2c2.2-2,3.8-4.1,5.2-6.3c1.4-2.3,1.1-4.7,0.7-7.5c-2,0.9-3.5,2.1-5,3.2
		c-3.8,2.7-7.7,5.3-12,7.2c-2.6,1.1-5.2,2.4-7.8,3.6C185.3,235.7,184.7,236.1,184.1,236.4z M174.1,227.8c-3.5,0.5-6.9-1.5-10.5-0.5
		c-0.2,0.8-0.4,1.7-0.7,2.6c0.6,0.4,1.1,0.9,1.6,1.1c2.4,0.8,4.8,1.4,7.4,1.4c2,0,3.6-0.8,5.1-1.9c-0.1-1.3-2-0.6-1.9-2
		c0.1-0.1,0.1-0.2,0.2-0.3c0.6-0.1,1.2-0.2,1.7-0.3c2.1-0.4,2.5-1.3,1.3-3.4c-2.7,0.3-5.5,0.6-8.2,0.8c-0.1,0-0.3,0.1-0.3,0.2
		c0,0.1,0,0.2,0.1,0.4C171,226.9,173,226,174.1,227.8z M85,197.3c-0.9,2.1-1.7,4-2.4,5.8c4.1,2.2,5.6,2.6,7.9,2.2
		C88.7,202.7,86.9,200.1,85,197.3z M102.8,552c-1.9-0.1-3.4,1.2-4.9,0.1c-1.2-0.9-2.6-1.6-3.8-2.4c0.3-2.2,0.3-2.2-1.1-2.5
		c-0.1,1.1-0.1,2.1-0.2,3c2,0.9,2,0.9,2.5,2c0.4,0.7,0.7,1.5,1.1,2.2c0.9,1.4,2.4,1.6,3.7,0.6C101.2,554.4,102,553.6,102.8,552z
		 M145.3,545c-1.7-0.1-2.7-0.2-3.8-0.2c-1.1-0.1-2.1-1-3.5-0.6c0.7,1.8,2.1,2.5,3.6,2.8C143,547.3,144.1,546.7,145.3,545z
		 M116.6,49.2c0.5-1.2,0.9-2.2,1.3-3.2c-0.3-1-0.8-1.7-2.2-1.9c-0.3,0.5-0.9,1.1-0.9,1.7C114.7,47.2,115.6,48.2,116.6,49.2z
		 M180,250c-2-1.2-2.4-1.1-4.3,0.8c0.1,0.6,0.1,1.2,0.2,2C176.7,250.7,179.4,252,180,250z M128.6,22.6c2-1,3-2.3,4.1-3.5
		c0.4-0.4,0.2-0.8-0.6-1.1C131.2,19.5,129,19.9,128.6,22.6z M145.2,13.6c1.1-0.6,2.3-1.1,3.1-2.3C145.8,10.9,145.8,10.9,145.2,13.6z
		 M170.3,14.5c-1.7,0.3-2.5,0.4-3.6,0.6c0.5,0.9-0.2,1.8,1.1,2.4C168.5,16.7,169.1,16,170.3,14.5z M118.9,35.3
		c1.1-2.6,1.1-2.6,0.8-3.8C118.1,32.5,118.9,34,118.9,35.3z M149.9,20.1c1.1,0.7,2,1.8,3.6,1.5C152.4,20.6,151.2,20,149.9,20.1z
		 M132.5,27.7c-0.1,0.4-0.3,0.8-0.4,1.3c-0.1,0.4-0.2,0.8-0.5,1.9c1-1,1.6-1.4,1.9-1.9C134.1,28.2,133.5,27.8,132.5,27.7z M132,11.5
		c-1.4,0.4-2.2,0.8-2.8,1.7C130.8,13.8,131.3,12.9,132,11.5z M160.4,42.6c0,0.1,0,0.2,0,0.3c0.7,0.1,1.4,0.2,2,0.2
		c0.7,0,1.1-0.4,0.4-1.2C162.1,42.1,161.2,42.3,160.4,42.6z M161.1,11.2c1.4-0.6,2.1-1,2-2c0-0.3-0.4-0.5-0.8-0.9
		C162,9.2,161.7,9.9,161.1,11.2z M126.1,35.7c0.5-0.5,1-0.9,1.4-1.4c0.1-0.1,0-0.5-0.2-0.6c-0.1-0.1-0.5-0.2-0.6-0.2
		C125.9,33.9,125.3,34.5,126.1,35.7z M125,33.3c-2-0.6-2-0.6-2.3,1.5C123.5,34.3,124.2,33.8,125,33.3z M152.8,15.3
		c-0.5-0.6-0.9-0.3-1.2,0c-0.1,0.1-0.1,0.3-0.1,0.3c0.1,0.1,0.4,0.3,0.5,0.3C152.2,15.7,152.5,15.5,152.8,15.3z M159.3,22.6
		c0.3-0.1,0.4-0.2,0.6-0.3c-0.2-0.2-0.4-0.5-0.6-0.7c-0.1-0.1-0.4,0.1-0.6,0.2C158.9,22.1,159.1,22.4,159.3,22.6z M113.6,41.2
		c-0.1,0.1-0.2,0.2-0.3,0.4c0,0,0.1,0.2,0.2,0.2c0.2,0,0.3-0.1,0.5-0.2C113.8,41.4,113.7,41.3,113.6,41.2z M123.5,12.2
		c-0.3-0.2-0.5-0.3-0.8-0.5c-0.1,0.2-0.2,0.4-0.2,0.6c0.1,0.2,0.3,0.3,0.5,0.3C123.2,12.6,123.3,12.4,123.5,12.2z M147.4,19.1
		c-0.3-0.2-0.5-0.4-0.8-0.5c-0.1,0-0.2,0.3-0.4,0.4c0.2,0.2,0.5,0.4,0.7,0.6C147,19.6,147.2,19.3,147.4,19.1z M124.5,46.8
		c-0.2,0.1-0.5,0.1-0.5,0.3c-0.1,0.2,0.1,0.4,0.1,0.6c0.2-0.1,0.4-0.2,0.5-0.4C124.6,47.2,124.5,47,124.5,46.8z M119.1,49.8
		c0.2-0.1,0.4-0.2,0.5-0.3c0.1-0.1-0.1-0.5-0.2-0.5c-0.2,0-0.5,0.1-0.5,0.2C118.8,49.4,119,49.6,119.1,49.8z M149,17.8
		c0-0.2-0.1-0.4-0.1-0.6c-0.2,0.1-0.5,0.2-0.6,0.3c-0.1,0.2,0.1,0.4,0.1,0.7C148.7,18.1,148.9,18,149,17.8z M152.9,12.2
		c0-0.2-0.1-0.4-0.1-0.5c-0.1,0.1-0.2,0.1-0.3,0.2c-0.1,0.1-0.1,0.3-0.2,0.5C152.6,12.3,152.7,12.3,152.9,12.2z M113.1,31.8
		c0.1-0.2,0.1-0.4,0.1-0.5c-0.1,0-0.2,0.1-0.2,0.1C113,31.5,113.1,31.6,113.1,31.8z M140.5,9.4c-0.2-0.1-0.4-0.2-0.6-0.3
		c0,0-0.2,0.2-0.2,0.3c0,0.1,0.2,0.3,0.2,0.2C140.1,9.6,140.3,9.5,140.5,9.4z M177.4,254.5c0,0.1-0.1,0.2-0.1,0.3
		c0.1,0.4,0.2,0.4,0.3,0c0-0.1,0-0.2-0.1-0.3C177.6,254.5,177.5,254.5,177.4,254.5z M105.1,247.4l0.1,0.3l0.1-0.3L105.1,247.4z
		 M127.5,31.2c0.1-0.1,0.2-0.1,0.2-0.2c0-0.1,0-0.2,0-0.3c-0.1,0.1-0.3,0.1-0.4,0.3C127.4,30.9,127.5,31.1,127.5,31.2z M155,20.4
		c0-0.1,0-0.2-0.1-0.2c-0.1,0-0.2,0-0.3,0c0,0.1,0.1,0.2,0.1,0.3C154.9,20.5,154.9,20.4,155,20.4z M128.6,18.2
		c-0.1-0.1-0.1-0.1-0.2-0.2c-0.1,0.1-0.2,0.1-0.2,0.2c0,0.1,0.1,0.1,0.1,0.2C128.4,18.3,128.5,18.2,128.6,18.2z"/>
	<path d="M523.7,17.1c0.4-1.4,1.7-2.5,1.7-4.2c0-0.4,0.8-0.8,1.3-1.3c-0.7-1-1.4-1.9-2-2.8c0.2-0.3,0.4-0.7,0.5-0.7
		c1,0,2.1-0.1,3,0.6c0.7,0.6,1.4,1.3,2.1,1.9c4.1,0.3,7-1.8,9.6-4.4c1.6,0.4,0.9,1.5,0.8,2.5c0.5,0,0.9,0.2,1.1,0
		c0.9-0.7,1.7-1.6,2.7-2.5c3.5,0,7.2,0,10.9,0c0.6,0,1.1,0.3,1.7,0.5c0.3,0.1,0.8,0.4,1,0.2c1.3-1.1,3.1-0.4,4.5-1.1
		c1.5-0.7,3-0.6,4.7-0.4c0.2,0.5,0.5,1,0.7,1.5c-0.2,0-0.4-0.1-0.6,0c-0.1,0-0.1,0.3-0.2,0.4c0.1,0,0.3,0,0.3,0
		c0.2-0.1,0.3-0.3,0.4-0.5c1.3-1,2.7-1.9,4.2-3c1.5,1.9,0.4,4.2,0.4,6.6c1-0.5,1.6-1,2.3-1.3c0.7-0.3,1.4-0.4,2.1-0.4
		c0.8,0,1.3,0.5,1.3,1.4c-0.7,1.4-2.5,1.3-3.5,2.6c1.6,0.8,3.3-0.6,4.7,0.4c0.7,0.8-0.1,1.4-0.1,2c0,0.6,0.1,1.1,0.2,1.7
		c-2.3,2.3-5.7,2.8-7.8,5.9c0.3,3.2,0.5,6.8,0.9,10.4c0.1,1,0.7,2,1.2,3.2c-0.7,2.6-1.5,5.3-2.3,8.1c-2.2,0.9-4.4,1.3-6.7,0.8
		c-0.2,1.2-0.4,2.2-0.7,3.3c-1.5-4.1-0.5-6.6,3.1-8.3c1.4-0.6,2.9-1.2,4.4-1.7c0.9-1.3,0.9-2.5,0.1-4c-1.2-2.2-1.2-4.8-1.4-7.4
		c-0.1-1.1-0.2-2.1-0.3-3.2c0-0.1-0.1-0.2-0.2-0.3c-0.1,0-0.3-0.1-0.4-0.1c-2.7,1.1-5.3,1-8.1,0.1c-0.7-0.2-1.4-0.1-2.1-0.2
		c-0.5,0-1,0.2-1.4,0c-2.4-0.9-4.7-0.2-7.1,0c-0.1,0.6-0.2,1.2-0.3,1.8c-0.4-0.1-0.8-0.1-0.8-0.2c-0.3-1.4-1.1-2.3-2.4-2.9
		c-0.9-0.4-1.6-1-2.4-1.5c-1.2,0.1-1.7,0.8-2,1.8c-0.3,0-0.9-0.1-0.3,0.5c0.1-0.2,0.2-0.4,0.3-0.6c1.1,0.2,2.3,0.5,3.7,0.8
		c0.4,1,0.9,2.2,1.4,3.2c-0.3,1.2-1.2,1.2-2,1.4c-0.2,0-0.4,0.2-0.5,0.4c-0.1,0.2-0.1,0.5-0.1,0.7c-0.4,0.5-0.8,0.2-1.3,0.1
		c-0.8-0.2-1.4,0.1-1.9,0.7c-0.4,0.6-0.8,1.2-1.1,1.9c-0.8,2.2-2,4.1-3.6,5.8c-1,1-1.4,2.2-1.8,3.4c-0.9,2.6-1.9,5.2-2.9,7.7
		c-0.3,0.7-0.7,1.6-1.8,1.7c-0.5-1.9-0.5-3.9-1.8-5.5c0.4-1.2,0.1-2.3-0.5-3.4c-0.4-0.8-1.1-1-2.4-0.5c0.1,1.9,1.1,3.2,2.9,3.8
		c-0.3,1.4-0.6,2.8-0.9,4.2c-0.4,2.2-0.3,2.2-2.9,2c0,1,0.6,1.7,1.1,2.6c0.6,0.1,1.2,0.3,2.1,0.4c-0.8,2-0.7,4-0.3,6
		c0.1,0.6,0,1.2-0.1,1.8c-1.4,6.2-2.3,12.5-3.2,18.8c0,0.2-0.2,0.5-0.2,0.7c-3.1,2.8-6.2,5.6-9.4,8.6c1.6,3,2.9,6.2,4.8,9.1
		c6,9.2,12.4,18,20,26c3.3,3.5,6.8,6.8,10.9,9.4c2,1.3,4.1,1.9,6.7,1.2c1-3.1-1.2-5.9-1.1-9.4c1.9,1.3,1.9,3.1,2.2,4.6
		c0.4,1.6,0.5,3.3,0.8,5.3c1,0.4,2.2,0.9,3.3,1.3c2.1-0.8,3.4-2.2,4.5-3.8c1.7-2.7,2.7-5.6,2.9-8.8c0.2-3.3-0.3-6.5-1-9.7
		c-0.1-0.5-0.1-1.1-0.2-1.9c0.6,0.3,1.1,0.4,1.2,0.7c2.1,5.6,3.2,11.4,0.9,17.2c-0.9,2.3-2.1,4.5-3.4,6.7c-0.4,0.7-1.3,1.1-1.9,1.6
		c0.2,0.9,1.1,0.9,1.7,1c3.4,1.1,6.9,2.1,10.3,3.2c0.9,0.3,1.8,0.6,2.7,0.9c1.8,0.7,3.6,1,6,0.8c-1.6-5.8-2.9-11.6-5.2-17.2
		c-1-2.6-2.3-4.9-4.1-7.1c-1.6-1.9-3-4-4.6-6c-0.6-0.7-1.3-1.4-2-2c-1.8-1.4-3.4-3-4.7-4.9c-2.5-3.5-5.2-6.9-7.9-10.4
		c-0.5,0.1-0.9,0.3-1.3,0.4c-0.7-0.3-0.7-0.9-0.7-1.5c0.3-3,0.7-6,1-9c0.2-1.5,0.6-3.1,0-4.7c-1.8-0.2-3.6-0.4-5.1-1.5
		c-0.6-0.5-1.6-0.4-2.4-0.7c-0.8-0.3-1.5-0.6-2.1-0.9c-0.1-0.9,0.5-1.1,0.9-1c1.1,0.3,2.3,0.8,3.4,1.2c3.2,1.2,6.6,1.2,10,1.3
		c1.2-0.5,1.7-1.6,2.1-2.7c1.2-3.3,2.5-6.5,3.7-9.8c0.4-1.1,0.6-2.3,0.8-3.5c0.3-1.9,0.4-3.8,0.6-5.7c0.1-0.6,0.1-1.2,0.3-1.8
		c0.6-1.9,1.5-3.9,1.6-5.8c0.1-2,0.1-4.1,0.3-6.1c0.9,0,0.9,0.7,1,1.2c0.3,2.1,0.5,4.3,0.6,6.5c0,1-0.4,2.1-0.9,3.1
		c-0.8,1.7-1.2,3.4-1.4,5.2c-0.2,1.7-0.3,3.4-0.6,5c-0.3,2-0.9,3.9-2,5.7c-0.9,1.5-1.6,3.3-2,5c-0.6,2.4-1.9,4.1-4,5.3
		c-0.7-0.1-1.5-0.1-2.4-0.2c-0.1,0.5-0.3,0.8-0.3,1.2c-0.3,3.9-0.6,7.9-1,12c0.8,0.8,1.5,1.5,2.3,2.3c3.1,2.9,5.8,6.1,7.7,9.9
		c0.6,1.1,1.4,1.9,2.3,2.7c2.5,1.9,5.2,3.4,8.3,4.2c0.6,0.1,1.2,0.1,1.7,0.1c2.3-0.1,4.6-0.2,6.8-0.3c1,0,1.8,0.1,2.6,0.8
		c0.8,0.7,1.9,0.9,2.9,1.3c1.9,0.6,3.9,1.1,5.9,1.8c3,1.1,5.4,3,7.1,5.8c0.8,1.3,1.7,2.6,2.7,3.9c1.4,1.9,2.7,3.7,3.2,6
		c0.3,1.3,1.1,2.1,2.4,2.5c1.5,0.5,2.9,1,4.4,1.5c1.5-1.6,2.9-3.1,4.3-4.6c0.2-0.2,0.4-0.4,0.4-0.6c-0.1-2,1.6-2.8,2.8-4
		c0.1-2.1-0.3-4.3,0.4-6.3c2.2-0.9,6-1.4,8.9-1.3c5.9,5.7,11.8,11.6,18.1,17c2.2,2,4.2,4.3,6.1,6.6c1.2,1.4,2.1,2.9,2.2,4.9
		c0,0.9,0.5,1.6,1.1,2.2c1.3,1.2,2.6,2.5,4,3.7c1,0.9,1.3,1.9,1,3.2c0.9,1.2,2.3,1.4,3.5,1.8c8.2,2.5,16.4,4.9,24.5,7.3
		c51.4,15.4,102.7,30.8,154.1,46.2c0.9,0.3,1.8,0.5,2.7,0.9c0.4,0.2,0.8,0.5,1.1,0.9c0.7,0.9,0.1,2.5-0.9,2.5
		c-1.2,0-2.4-0.1-3.5-0.5c-7.8-2.3-15.7-4.6-23.5-7c-52.4-15.7-104.8-31.4-157.1-47.2c-2.2-0.7-4.1-0.9-6.2,0.2
		c-1.4,0.7-2.9,1.1-4.4,1.5c-4.3,1.2-8.5,2.7-12.5,4.5c-4.3,2-9,2.5-13.6,3.5c-0.9,0.2-1.7-0.1-2.2-0.9c-0.3-0.5-0.6-1-1-1.5
		c-1.1,0.2-2.3,0.2-3.2,0.7c-2.9,1.6-5.8,1.2-8.8,0.7c-3.9-0.7-7.7-1.8-11.3-3.6c-1.8-0.9-3.6-1.1-5.6-0.8c-5,0.9-9.9,1.8-14.9,2.6
		c-0.3,0.1-0.6,0.3-1.1,0.5c-0.1,0.8-0.2,1.6-0.3,2.4c0,2.2,0,4.3,0,6.5c0,1.4-0.2,2.6-1.3,3.6c-1-3.8-0.1-7.8-0.6-11.7
		c-0.5-0.1-0.7-0.2-0.9-0.1c-5.2,1.7-10.7,1.2-15.9,2.9c-0.2,0.1-0.5,0.1-0.7,0.1c-7.7,0.6-15.2,0.2-22.2-3.4
		c-3.6-1.8-7.1-2.6-11-2.3c-0.2,0-0.5,0-0.7,0c-3-0.1-6,0.1-8.9,1.2c-1.4,0.5-3,0.8-4.6,1c-1.7,0.2-2.8,1-3.8,2.4
		c-3.4,4.7-7.5,8.8-11.7,12.8c-1.2,1.1-2.6,2.1-4.1,2.9c-1.8,1-3.7,1-5.5-0.1c-0.4-0.2-0.6-0.7-1.1-1.3c0.8,0,1.3-0.1,1.8,0
		c2.3,0.4,4.2-0.4,6-1.8c0.6-0.5,1.1-0.9,1.6-1.4c3.6-3.7,7.3-7.4,10.9-11.1c0.4-0.4,0.7-0.9,1-1.4c-2.4-0.8-2.4-0.9-4.3-0.3
		c-3.4,0.9-6.9,1-10.4,0.8c-6.2-0.4-11.3-3.1-15.4-7.6c-0.4-0.4-0.8-0.9-0.2-1.6c0.3,0.1,0.7,0.1,0.9,0.2c1,0.6,2,1.4,3,2
		c4.4,2.7,9.1,4.3,14.3,4.2c3.5,0,6.9-0.6,10.4-1.1c1.9-0.3,3.9-0.8,5.7-0.5c2.1,0.3,3.8-0.2,5.6-0.8c1.6-0.5,3.2-1.1,4.9-1.2
		c3.5-0.2,7-0.1,10.5-0.1c1.3,0,2.3,0.2,2.9,1.6c0.3,0.6,1,1,1.6,1.3c1.3,0.6,2.7,1.1,4.1,1.4c3.7,0.9,7.5,1.5,11.4,1.6
		c8.2,0.2,16.3-0.1,24.2-2.7c2.6-0.9,5.4-1.2,8.1-1.7c2.1-0.4,4.3-0.7,6.4-1.1c7.7-1.7,15.4-2.7,23.2-2.7c2.7,0,5.3,0.2,7.3,1.9
		c1.8-0.2,3.4-0.2,4.8-0.6c1.4-0.4,2.5-0.5,3.8,0c1,0.4,2,0.1,2.7-0.8c-1.4-0.6-2.9-1-4.1-1.7c-3-1.7-2.7-2.7-1.7-5.3
		c0.3-0.8,1-1.3,1.9-1.5c0.6-0.1,1.3,0.3,1.8-0.6c-1.8-0.5-3.5-1-5.2-1.6c-1.2-0.4-1.8-1.3-1.6-2.5c0.1-1,0.5-2,0.8-3.2
		c-1.3,0-2.4,0.1-3.5,0c-0.4,0-0.8-0.4-1.1-0.8c-0.3-0.3-0.6-0.8-0.1-1.2c3.2,0.9,4.3,0.8,7-0.7c0.1-0.1,0.2-0.1,0.3-0.2
		c1.5-1.3,3.4-1.6,5.3-2c2.6-0.5,5.1-1.1,8-1.8c-1.6-2-3.1-3.8-4.5-5.6c-3.2,0.7-6.3,1.1-9.1,2.3c-0.2,0.6-0.4,1.1-0.4,1.5
		c-0.1,1,0,2.1,0,3.1c-1.4,0.3-1.4-1.1-2.3-1.6c-1.4,1.1-2.8,2.2-4.6,3.6c0.1-0.8,0.1-1.2,0.2-1.3c0.8-0.8,1.7-1.6,2.6-2.4
		c1.1-0.9,2.3-1.6,3-3.1c0.3-0.6,1.3-1.1,2-1.3c2-0.6,4-1,6-1.4c0.4-0.1,0.8-0.3,1.2-0.4c-0.1-1-0.6-1.3-1.2-1.3
		c-2.5-0.1-5-0.3-7.6-0.3c-1,0-1.8,0.6-2.4,1.4c-1,1.3-2.1,2.7-3.1,4c-0.3,0.3-0.4,0.9-1.2,0.4c0.2-0.6,0.2-1.4,0.5-2
		c2-3,4.4-5.5,8.4-5.3c0.8,0,1.7,0,2.5,0c0.5,0,1.1-0.2,1.9-0.3c-1.5-2.4-3-4.3-5.6-5c-1.5,1.6-2.9,3-4.4,4.4
		c-0.1,0-0.1-0.1-0.2-0.1c0.1,0,0.2,0,0.2,0.1c-0.2,0.4-0.3,1-0.7,1.2c-1.3,0.9-2.2,2.2-3.2,3.3c-1.8,2-2.8,4.4-4.2,6.6
		c-1.6,2.6-3.7,4.7-6,6.1c-2.3-0.2-4.4-0.4-6.4-0.5c-0.5,0-1,0-1.4-0.2c-3.1-0.8-6.2-0.6-9.3-0.3c-8.9,0.8-17.5-0.4-25.6-4.2
		c-0.9-0.4-1.8-0.7-2.6-1.2c-3.5-2.1-7.4-2.6-11.4-2.7c-6-0.1-12-0.3-17.6,1c-1.9-1-3.4-1.9-5-2.7c-3.4-1.5-6.9-2.9-10.3-4.3
		c-0.9-0.4-1.8-0.5-2.8-0.8c-3.2-0.9-6.5-1.8-9.7-2.8c-0.3-0.1-0.5-0.4-0.8-0.6c1.2-1.4,2.6,0.6,3.7-0.6c0.4-2.4-1.8-4-2.5-6.2
		c0.4-0.2,0.8-0.5,1-0.4c1.9,0.3,3,1.6,3.5,3.3c0.4,1.1,0.3,2.3,0.4,3.5c0,0.6,0.1,0.9,1,0.6c-0.5-6.3-0.4-12.6-2.3-18.9
		c-1.5,0-2.8,0-4.1,0c-2.4,0.1-2.4,0.1-4-0.7c1.1-0.8,2.3-0.6,3.5-0.8c1.3-0.1,2.6,0.3,4-0.5c-0.7-3.2-2.1-6.1-3.6-9
		c-0.9-1.7-1.6-3.4-3-5c-3.7,2.5-7.3,4.8-11,7.2c-2.5,1.7-4.8,3.6-6.6,6.1c-0.5,0.6-1.2,1.3-1.9,1.5c-2,0.5-3.4,1.7-4.7,3.2
		c-1.8,2-4,3.5-6.2,4.8c-1.4,0.9-2.9,1.8-4.2,2.8c-3.6,2.7-5.7,6.4-6.8,10.7c-0.3,1.3-0.6,2.6,0.6,3.7c0.4,0.3,0.5,1.1,0.5,1.7
		c0,1.7,0.6,3.3,1.2,4.9c0.2,0.5,0.2,1.1,0.3,1.7l0,0c-1.4-0.1-1.5-1.8-2.6-2.3c-0.3,2.4,0,5.9,1.2,8.3c2.1,4,4,8.2,7.2,11.6
		c0.4,0.4,0.9,0.8,1.1,1.4c0.9,2.2,1.8,4.4,2.4,6.7c0.6,2.3,1.1,4.7,2.3,6.8c0.3,0.5,0.7,1.1,0.6,1.7c-0.2,1.4,0.6,2.3,1.2,3.3
		c1.8,3.2,4.4,5.7,6.9,8.3c1.3,1.3,2.4,2.7,3.5,4.1c0.4,0.5,0.7,1.1,0.7,1.6c0,0.6-0.3,1.3-0.5,2.1c1.1,1.2,2.2,2.6,3.5,3.6
		c1.3,1.1,0.8,3.3,2.8,3.9c0.8,1.8,1.8,3.5,2.2,5.3c1.8,7.2,1.9,14.5,0.5,21.8c-0.3,1.5-0.4,2.8,0,4.3c0.8,3,1.7,6,2.5,8.9
		c1.7,0.6,3.2,0.4,4.8,0.4c1.6,0,3.1-0.1,4.7,0.1c1.7,0.1,3.3,0.5,5,0.7c1.5,0.2,3,0.3,5.1,0.5c-1.3-1-2-1.6-2.8-2.1
		c-0.9-0.6-1.8-1.3-2.6-1.9c-0.7-0.6-1.5-1-1.8-2c0.4-0.1,0.7-0.2,0.9-0.1c2.4,1.7,5,3.3,7.3,5.3c0.9,0.8,1.7,1.2,2.8,1.5
		c0.8,0.2,1.7,0.1,2.5,0.2c1.2,0.1,2.4,0.2,3.6,0.3c1.3,0.1,2.7,0.6,3.9,0.4c1.5-0.4,2,1,3.2,1.1c3.6,0.5,7.1,1.4,10.6,2
		c1.6,0.3,3.4,0.1,5,0.1c1.7,0,3.4-0.1,5-0.3c2-0.2,4.1-0.4,6.1-0.5c2.3-0.2,4.5-0.4,7.1-0.6c0.3-0.5,0.8-1.3,1.3-2.2
		c0.4-0.7,0.8-1.5,1.2-2.2c0.4-0.8,0.6-1.7,1.7-2.2c0.2,2.8-1.5,4.6-2.4,6.8c1.9,0.3,3-0.8,4.2-1.2c1.5-2.4,2.1-4.9,1.4-7.7
		c-0.3-1-0.2-2.1-0.2-3.2c-0.2-7.9,0.6-15.9,1-23.8c0.1-1.4,0.1-2.9-0.2-4.3c-1-5.4-1.9-10.9-1.5-16.5c0-0.6-0.2-1.2-0.2-1.8
		c0.1-2.5,0.4-5,1.6-7.2c-0.2,2.3-0.8,4.6-0.4,6.8c0.4,2.3,0.4,4.5,0.5,6.8c0.3,5.1,1.3,10,2.5,14.9c0.4,1.5,0.7,3,1.1,4.6
		c0.3,1.2-0.1,2.1-1.3,2.8c0.9,7.3,1.6,14.6,0.7,22c1.3,1,1.2,2.7,1.3,4.1c0.9,0.2,1.6,0.3,2.4,0.5c0.9,1.3,1,2.9,1.2,4.4
		c0.2,1.3,0.5,2.6,0.4,3.9c-0.1,2.2,0.7,4,1.8,5.7c1,1.6,1.9,3.4,2.9,5c1.1,1.8,1.5,3.7,1.4,5.8c-0.2,3.6-0.5,7.2,0.4,10.8
		c0.1,0.6,0.2,1.2,0.1,1.8c-0.9,2.7-0.1,5.3,0.4,7.9c0.4,2.1,0.7,4.3,0.9,6.4c0.4,5.7,1.9,11.1,2.9,16.7c0.6,3,1,6,0.7,9
		c-0.6,5.7,0.2,11.3,0.7,16.9c0.4,4.3,0.7,8.6,1,12.9c0.4,4.4,0.7,8.9,1.3,13.3c1.1,8.5,1.2,17,1.1,25.6c0,0.3-0.1,0.7-0.2,1.3
		c-2.5-0.1-4.7,1.2-7.1,1.8c-2.5,0.7-5.2,1-7.8,1.3c-2.9,0.3-5.8,0.4-8.6,0.6c-0.8,0.1-1.7,0.1-2.7,0.2c0.1,4.8-1.2,9.3-2.3,13.8
		c-0.6,2.5-0.8,5-0.4,7.5c0.1,0.7,0.1,1.5,0.3,2.1c1.3,4.8,1.3,9.8,1.7,14.7c0.1,1,0.1,1.9,0,2.9c-0.7,5.7-1.5,11.4-2.3,17.2
		c-0.1,1.1-0.3,2.1-1.1,3c-0.4,0.5-0.5,1.3-0.6,2c-0.3,4.3-0.3,8.7-0.7,13c-0.4,5-1,10.1-1.7,15.1c-0.5,3.6-1.2,7.1-1.9,10.7
		c-0.5,2.6-0.6,5.2-0.5,7.9c0.1,4,0,7.9,0.1,11.9c0.2,3.3,0.6,6.7,1,10c1.7,0.5,3.1,0.9,4.7,1.3c1,3.1,1.9,6,2.8,9
		c0.3,0.9,0.7,1.8,1.5,2.4c1.7,1.3,3.5,2.6,5.2,3.9c1.9,1.4,4.1,2.6,5.8,4.3c2.4,2.4,5.5,3.9,8.2,5.9c1,0.7,2.5,1.1,3.8,1.1
		c2.7,0,4.9,1.1,7.3,2.5c0.6,2.6,1.5,5.4,1.7,8.2c0.2,2.1-0.3,4.3-0.6,6.4c-0.1,0.4-0.4,0.9-0.7,1.2c-2.9,3.1-6.4,5.1-10.6,5.6
		c-1.6,0.2-3.3,0.4-4.8-0.8c-0.5-0.4-1.4-0.3-2.1-0.4c-3.1-0.1-6.3-0.1-9.4-0.1c-1.5,0-3,0-4.6,0.6c-2.1,0.8-4.4,0-6.2-1.2
		c-2.6-1.7-5.5-2.3-8.5-2.6c-0.6,1.3,1,2.6-0.3,3.7c-0.7,0.1-1.2-0.2-1.4-0.8c-0.6-1.6-1.1-3.2-1.6-4.8c-1-3.3-1-3.2-4.3-3.5
		c-2.3-0.2-4.5-0.7-6.7-1.2c-1.7-0.5-3.4-1.3-4.8-2.5c-1-0.8-2.1-1.6-3.2-2.4c-2.5,1.9-4.9,3.8-7.5,5.9c-0.5-0.5-1.2-0.7-1.3-1.2
		c-0.1-0.5,0-1.3,0.4-1.6c0.7-0.8,1.6-1.4,2.5-2c1-0.7,2-1.3,3.1-1.9c-0.6-1.5-1.4-2.7-2.4-3.9c-2.7,1.9-6,2.5-7.3,5.5
		c-1.1,0.3-1.9,0.2-2.4-0.7c-0.4-0.9-0.1-1.7,0.4-2.3c1.1-1.4,2.5-2.3,4-3c1.1-0.5,2.2-0.9,3.4-1.4c0.1-1.8-1.1-2.9-1.6-4.5
		c-3.1-0.8-5.3,0.9-7.3,2.8c-0.8,0.7-1.3,1.7-1.5,2.8c-0.1,0.7-1,1.1-1.7,0.9c-0.7-0.2-1.1-0.9-1-1.7c0.1-0.6,0.3-1.2,0.6-1.7
		c2-3,4.7-5.1,8.4-5.6c0.5-0.1,0.9-0.2,1.6-0.3c-0.2-0.7-0.3-1.4-0.5-2.1c-3,0.3-5.8,1.1-8.5,2c-1,0.3-1.9,1-2.7,1.7
		c-0.7,0.5-1.1,1.3-0.8,2.2c0.2,0.7-0.1,1.2-0.8,1.4c-0.7,0.2-1.5-0.2-1.8-0.9c-0.2-0.4-0.3-0.9-0.2-1.4c0.1-1.1,0.7-2,1.5-2.8
		c1.2-1.2,2.6-2.2,4.3-2.5c2.8-0.6,5.6-1.2,8.7-1.8c0.3-0.8-0.2-1.7-0.7-2.4c-0.7-1.1-1.5-2.2-2.5-3c-2.7-1.9-5.5-2.2-8.4-0.3
		c-1.1,0.7-2.2,1.5-3.2,2.4c-0.7,0.6-1.3,1.5-2.1,1.9c-1.7,0.9-2.3,2.3-2.7,4.2c0.3,0.5,0.6,1.1,1,1.8c-0.8,1-1.4,2.2-2.3,3.2
		c-0.9,0.9-2,1.6-3.4,2.8c-3.7,0.8-5.6-1.9-7.2-5.7c-0.4,0.9-0.6,1.3-0.7,1.7c-1,4.6-1.8,9.2-0.9,13.9c0.3,1.7,0.2,3.6,0.2,5.4
		c0,0.8-0.2,1.7-0.5,2.5c-0.7,2-1.5,4-2.3,6c1,1,2.2,1.3,3.4,1.3c1.3-0.1,2.3,0.3,3.5,0.7c1.5,0.4,3,0.7,4.6,1
		c0.9,0.2,1.9,0.3,2.8,0.7c0.6,0.3,1.1,0.2,1.7,0c1.9-0.5,3.7-0.1,5.5,0.9c2.8,1.6,5.8,3,8.7,4.4c3.5,1.7,7.2,1.9,10.9,0.6
		c1.4-0.5,2.8-0.3,4.2-0.5c4.3-0.7,8.6-1.4,12.9-1.7c4.3-0.4,7.9-2,10.5-5.4c0.1-0.2,0.4-0.2,0.6-0.3c0.9,0.5,0.7,1.3,0.2,1.8
		c-1.8,2.3-4,4.2-6.8,5.2c-2,0.8-4.2,1.1-6.4,0.9c-3.6-0.4-6.5,0.2-10,1.8c-0.5,0.2-1.1,0.3-1.7,0.4c-1.7,0.2-3.3,0.4-5,0.6
		c-4.2,0.5-8.2,0.2-11.8-2.1c-1.9-1.2-3.9-2.3-5.9-3.5c-1.1-0.6-2.2-1-3.4-1c-3.3,0.1-6.5-0.6-9.6-1.3c-2.2-0.5-4.5-1-6.7-1.6
		c-1.5-0.4-3.1-0.8-3.7-2.7c0.4-1.2,0.7-2.7,1.4-3.9c1.5-3,1.7-6.2,1.5-9.5c-0.2-3.1-0.4-6.2-0.5-9.4c0-0.8,0-1.7,0.2-2.5
		c0.7-3.5,1.4-7.1,2.2-10.7c0.8-0.3,1.7-0.7,2.7-1.1c0.1-1.3,0.2-2.6,0.2-3.9c0.1-5.4-0.2-10.8-1-16.2c-0.5-3.3-1.4-6.6-2.3-9.8
		c-1.1-4.1-2.3-8.1-2.9-12.3c-0.3-2.1-1-4.2-1.5-6.3c-1.2-4.4-2-8.9-2.4-13.5c-0.4-4.6-1.6-9-2.5-13.5c-1.7-8-2-16-0.6-24
		c0.1-0.8,0.2-1.7,0.5-2.5c1.8-4.1,2.5-8.5,3.6-12.8c0.6-2.6,1.9-4.9,2.6-7.5c0.4-1.4,1-2.7,0.8-4.2c-0.1-0.6,0.1-1.2,0.2-1.8
		c1-5.1,2.1-10.1,3.1-15.2c0-0.1,0-0.2,0-0.6c-0.6-0.1-1.2-0.4-1.9-0.4c-1.6,0-3.1,0.1-4.7,0.1c-0.6,0-1.4,0.1-1.7-0.3
		c-1.5-1.8-3.5-1.2-5.3-1.5c-0.5-0.1-1.1-0.3-1.8-0.4c0.5-1,1.1-1.8,1.2-2.6c0.1-0.8-0.3-1.6-0.4-2.5c-0.1-1.2-0.3-2.4-0.3-3.6
		c0-2.4,0-4.8,0-7.2c0-2.4,0.1-4.8-0.7-7.1c-0.4-1.2-0.3-2.6-0.3-3.9c0-5.9,0-11.8,0-17.7c0-1.1,0.1-2.2-0.1-3.2
		c-1.1-6.7-0.8-13.4,0.3-20.1c0.9-5.5,1.3-11,2.1-16.5c0.4-3.2,1-6.4,1.5-9.6c0.3-1.7,0.5-3.3,0.7-5c0.1-0.5,0-1.1,0.2-1.4
		c2.2-2.6,1.4-5.9,2-8.9c0.7-3.5,1-7.1,1.5-10.7c0.6-3.8,0.8-7.7,0.6-11.5c-0.2-2.5,0.6-4.7,1.6-6.9c0.2-0.5,0.8-0.9,1.2-1.3
		c2.8-2,4.6-4.9,6.3-7.8c0.9-1.5,0.8-3.2,0.4-4.9c-0.6-2.3-1.1-4.7-1.5-7c-1-6.2-0.5-12.5-0.6-18.7c0-1.9,0-3.8-0.9-5.6
		c-0.4-0.8-0.4-1.9-0.7-2.8c-1-3.9-2.4-7.4-5.1-10.6c-3.8-4.5-6.9-9.5-10.4-14.2c-2.8-3.8-4.5-8.2-5.9-12.7
		c-0.4-1.3-0.7-2.6-0.8-3.9c-0.3-3.1-1.2-5.8-3.1-8.3c-1.2-1.6-2.3-3.3-3.8-4.7c-1.7-1.6-2.8-3.7-3.6-5.8
		c-3.4-9.1-3.1-18.1,0.5-27.1c0.5-1.3,1-2.8,2.7-3c2-2,4.3-3.5,6.7-4.9c3.6-2.1,7.1-4.5,10.4-7.1c0.8-0.7,1.7-1.4,2.4-2.2
		c2.2-2.6,4.8-4.7,7.7-6.5c5.4-3.2,10.8-6.3,16-9.8c3.6-2.4,7-5,9.8-8.4c0.9-1.1,1.8-2.2,2.1-3.7c0.5-3.2,1-6.4,1.6-9.7
		c-1-0.5-1.9-1-2.9-1.6c0.4-0.9,0.7-1.6,1.2-2.5c-0.9-2-1.1-4.2-1.3-6.5c-0.2-2.4-0.6-4.8-1.7-6.9c-0.7-1.3-1-2.7-0.3-4.1
		c0.6-1.3,0.1-2.5-0.6-3.8c-2-3.5-2.2-7.3-1.2-11.2c0.2-0.9,0.7-1.8,1-2.7c0.4-1.1,1-2.2,1.2-3.4c0.3-1.7,0.5-3.2,1.9-4.5
		c0.7-0.7,0.9-2.1,1.2-3.2c0.1-0.3-0.3-0.8-0.6-1.2C523.1,17.3,523.4,17.2,523.7,17.1c0.6,0.4,1.1,0.8,1.5,1.1
		c0,1.2-1.5,1.4-1.2,2.6c3.5-1.5,3.5-1.5,6.5-0.3c0.7-0.5,1.3-1,0.8-2.1c-0.9,0.1-1.8,0.2-2.6,0.3c-0.7-0.8-1.2-1.4-1.7-2
		C525.8,16.9,524.7,17,523.7,17.1z M534.6,30.7l0.2-0.2L534.6,30.7c-0.2,0.1-0.7,0-0.2,0.6C534.4,31.1,534.5,30.9,534.6,30.7z
		 M528.8,32.3c-0.1,0.2-0.3,0.5-0.2,0.3C528.6,32.8,528.7,32.5,528.8,32.3C528.8,32.2,529.1,31.9,528.8,32.3z M559.9,21.3
		c0.1,0.1,0.1,0.2,0.2,0.2C560,21.5,559.9,21.4,559.9,21.3c-1.6-1.2-1.6-1.2-3.3-1.3C558.2,21.1,558.2,21.1,559.9,21.3z M643,159.4
		c-1.4-0.2-2.8-0.3-4.3-0.5c-2.1-0.2-4.2-0.8-6.5-0.1c-0.1,0.8-0.5,1.7-0.4,2.4c0.2,1.1,1.3,1.3,2.2,1.6c1.2,0.4,2.6,0.4,3.6,1.4
		c0.2,0.2,0.7,0.3,1,0.3c2.5,0,5,0,7.5-0.1c0.6,0,1.2,0,1.5-0.7c-0.5-1.5-1.6-2.3-3-2.8c-0.9-0.3-1.4-0.9-1.9-1.6
		c1.3-0.1,2.6,0.2,3.8,0.7c0.4,0.1,0.9,0,1.5-0.1c-0.3-0.9-0.6-1.5-0.8-2.2c-0.2-0.6-0.3-1.3-0.4-2c-1.6,0.2-3,0.5-4.4,0.6
		c-1.4,0.1-2.7,0-4.1,0.4c0.1,0.3,0.2,0.5,0.2,0.5c0.8,0.2,1.6,0.4,2.4,0.7C641.9,158.2,642.7,158.3,643,159.4z M575.7,116.8
		c0-0.1,0-0.2-0.1-0.3c0,0-0.1-0.1-0.2-0.1C575.6,116.5,575.7,116.6,575.7,116.8c0.3,0.3,0.4,0.8,0.7,1.1c2.1,2.3,4.2,4.6,6.3,6.9
		c1.4,1.6,3,3.1,3.6,5.2c-0.4,0.5-0.6,0.8-0.9,1.2c0.7,2.5,1.6,4.9,2.2,7.3c0.6,2.4,1,4.9,1.5,7.4c0.9,0.2,1.9,0.5,3,0.8
		c1,0.3,1.9,0.3,2.8-0.2c2.7-1.4,5.6-0.9,8.5-0.8c2.1,0.1,4.3,0.3,6.4,0.6c2.3,0.4,4-0.4,5.2-2.3c0.6-0.9,1.2-1.7,2-2.9
		c-3.4-1.2-6.1-2.9-8-5.7c-1.9-2.6-4-5.1-4.5-8.4c-4.4-3.9-9.3-6.6-14.6-8.6c-1.8-0.7-3.6-1.1-5.6-0.9c-2.6,0.2-5.3,0.3-7.8-0.8
		C576.2,116.6,576,116.8,575.7,116.8z M558.4,350.7c-1.2,3.1-2.2,6.3-2.8,9.6c-1.1,6.2-2,12.3-2.8,18.5c-0.7,5.1-0.2,10.3-0.2,15.6
		c5.8,0.4,11.4,1.1,17,1.3c5.5,0.2,11.1,0.1,16.6-0.1c5.6-0.2,11.2-0.7,16.9-1.7c0.1-1.1,0.1-2,0.1-3c0.2-8.6-0.4-17.1-1.2-25.6
		c-0.2-2.4-0.3-4.8-0.8-7.2c-1-4.7-1.7-9.5-1.9-14.3c-0.1-3.4-0.6-6.7-0.4-10.1c0.2-3.7,0-7.4,0-11.2c0-1.6-0.1-3.1-0.3-4.7
		c-1-6.7-2.2-13.3-3.2-19.9c-0.9-5.8-1.7-11.7-1.7-17.6c0-1.5-0.3-3.1-0.5-4.7c-0.2-1.4-0.5-2.9,0.1-4.3c0.6-1.4,0.2-2.6-0.5-3.8
		c-1.4-2.4-2.7-4.8-4.1-7.2c-0.6-1.1-1-2.1-0.9-3.4c0.1-0.7,0.2-1.7-0.8-2.3c-0.5,0.6-1,1.3-2,1.2c-0.5,0-1.1,0.3-1.6,0.6
		c-0.6,0.3-1.5-0.4-1.7,0.5c2.9,6.6,5.9,13,10.5,18.5c-0.7,1.1-1.1,1.4-1.6,0.9c-0.7-0.7-1.4-1.4-1.9-2.2c-1-1.5-1.8-3.1-2.7-4.7
		c-2.3-4.1-4-8.4-5.8-12.9c-2.5,0.5-5,1-7.4,1.4l0.1,0.1c-1.2-1.5-2.3-3-1.3-5.2c1.7,0.7,1.1,2.7,2.6,3.6c1.2,0,2.6,0.2,4.1-0.7
		c0-1.3-0.5-3.1,1.6-4.1c-0.1,1.4-0.2,2.6-0.3,4.4c1.1-1.4,0.8-2.4,1.1-3.3c0.3-0.9,0.6-1.8,1.7-2.5c0.3,0.8,0.4,1.3,0.6,1.8
		c-0.1,0.2-0.3,0.4-0.2,0.3c0,0.1,0-0.2,0.1-0.4c0.8-0.5,1.3-1.3,2.5-1.1c0.5,0.1,1.7-0.2,1.7-1.3c-1.8-0.9-1.9-1-2.9-0.4
		c-1.6,0.9-3.4,1.2-5.1,1.5c-2,0.3-4,0.5-6.1,0.8c-3.5,0.5-7.1,1.1-10.6,1.6c0.5,3.6,0.5,3.9-0.3,5.4c-0.2-0.1-0.5-0.2-0.6-0.3
		c-1-1.5-0.1-3.3-0.5-5.1c-3-0.4-5.7,0.9-8.6,0.5c-2.9-0.4-5.9-0.8-9-1.3c-0.5,1.8-0.1,3.6-0.2,5.1c0.3,0.8,1.2,1,1.2,2
		c-2.2-0.3-4.2-0.6-6.2-0.9c-0.8-0.1-1.7-0.3-2.4-0.6c-1.1-0.4-2.2-0.9-3.3-1.3l-0.1,0.1c1.3,0.1,2.6,0.2,3.9,0.4
		c1,0.1,1.9,0.3,2.8,0.4c0.9,0.1,1.8,0.2,2.8,0.3c0-2.1,0-4,0-5.9c-0.4,0-0.8-0.1-1.2-0.1c-0.2,1.1-0.3,2.2-0.5,3.2
		c0,0.2-0.4,0.4-0.7,0.6c-1.2-1.3,0.3-2.6-0.2-4c-1.1-0.8-2.3-0.7-3.8-0.7c0,0.8,0,1.5,0,2.2c0.6-0.5,1.1-0.9,1.8-1.5
		c0.3,1.7-0.5,2.8-0.9,4.1c-1-0.2-1.7-0.4-2.7-0.6c0-1.7,0-3.2,0-4.6c-7.3-2.5-11-3-14.1-1.9c-0.2,1.2-0.3,2.4-0.6,3.5
		c-0.1,0.3-0.5,0.6-0.9,1c-0.6-1.9,0-3.4,0.6-4.9c-1.6-0.8-3.1-1-4.7-0.8c-0.4,1.2-0.7,2.3-1.1,3.5c-1.1-0.3-2-0.6-2.9-0.8
		c-0.1-1.1-0.1-2.2-0.2-3.3c-0.1-0.5-0.4-0.8-1.1-0.5c-0.1,1.3-0.3,2.7-0.4,4.3c-2.2-1.2-0.3-3.4-1.7-4.6c-0.7,1.5-0.2,3.1-0.5,4.6
		c-0.1,0.5-0.3,0.9-1,0.7c-0.1-1.5-0.3-3-0.4-4.4c-0.8-0.5-1.4-0.2-1.6,0.4c-0.2,0.7-0.2,1.4-0.3,2.1c-0.1,0.7-0.1,1.5-0.4,2.1
		c-1.3,2.5-2.7,5.1-5,6.9c-1.1,0.9-1.9,2.1-2.2,3.6c-0.1,0.5-0.2,1-0.5,1.3c-1.1,1.4-1.2,3.1-1.2,4.8c-0.1,3.1-0.1,6.3-0.2,9.4
		c-0.1,1.5-0.1,3.2-0.7,4.6c-0.6,1.4-0.9,2.7-1,4.2c-0.1,2.6-0.1,5.3-0.2,7.9c0,2,0,4.1-0.1,6.1c0,0.7-0.2,1.6-0.6,2
		c-0.9,0.7-1,1.5-1.1,2.5c-0.2,2.3-0.4,4.6-0.5,6.8c-0.2,8.8-1.3,17.5-3,26.1c-0.9,4.4-1.2,8.8-1.1,13.3c0.1,5.4,0.1,10.8,0.2,16.2
		c0,1.9,0,3.9,0.3,5.8c0.6,4.7,0.8,9.4,0.7,14c-0.1,3.2,0.5,6.2,1.1,9.3c1.8,0.4,3.5,1,5.3,1c2.6,0.1,5.3-0.1,7.8,0.9
		c0.8,0.3,1.6,0.4,2.5,0.4c4.2,0.4,8.4,0.7,12.6,1c1,0.1,1.9,0.2,2.9,0.3c3.7,0.5,7.4,0.7,11.2,0.5c6.5-0.4,13-0.7,19.4-1.1
		c0.2,0,0.4-0.2,0.8-0.4c0.2-2.8,0.5-5.8,0.7-8.8c0.2-3.7,0.3-7.5,0.7-11.2c0.5-4.4,1.2-8.8,1.9-13.2c0.4-2.8,0.8-5.7,1.6-8.5
		c1.2-4.2,2.1-8.4,2.6-12.7c1-9.1,1.9-18.2,1.7-27.3c0-2.5,0.1-5.1,0.2-7.6c0-1.5,0.2-2.9,1.2-4.7c0,1.2,0,1.8,0,2.4
		c-0.2,2.9-0.5,5.7-0.5,8.6c-0.1,4.1,0.1,8.2,0,12.3c0,3-0.3,6-0.5,9c-0.3,4.4-0.7,8.9-1.1,13.3L558.4,350.7z M501,400.7
		c-0.7,3.6-1.3,6.8-1.9,10c-0.1,0.6-0.2,1.2,0,1.8c0.3,1,0.1,1.9-0.2,2.8c-0.2,0.7-0.4,1.4-0.3,2.1c0.2,1.3-0.2,2.4-0.7,3.5
		c-1.4,3.7-2.5,7.5-3.1,11.5c-0.2,1.5-0.7,3.1-1,4.6c-0.4,1.8-0.9,3.4-2.1,4.9c-0.8,1.1-1.6,2.5-1.8,3.9c-0.4,3-0.6,6-0.7,9
		c-0.2,4.8,0.7,9.6,1.8,14.3c0.8,3.6,1.7,7.2,2.5,10.9c0.2,0.9,0.5,2,0.2,2.8c-0.4,1.4-0.2,2.6,0,3.9c0.8,5.4,2.1,10.6,3.7,15.8
		c0.6,2.1,1.2,4.2,1.1,6.4c-0.1,1.8,0.4,3.3,0.9,4.9c1.5,4.8,3,9.6,4.6,14.5c-1.2,1.4-1.3,3-0.8,4.7c0.3,1,0.4,2.1,0.4,3.2
		c0,3-0.2,6-0.3,9c0,1.2,0,2.4,0,3.5c2,1.3,3.7,2.7,6.1,1.1c2.4-5.5,6.7-9.1,12.3-11.7c-0.2-1.4-0.3-2.7-0.5-4
		c-1.7-1.6-1.2-3.8-1.4-5.8c-0.3-5.2-0.6-10.3-0.9-15.5c-0.1-2.5-0.4-5.1-0.2-7.6c0.4-4.5,1-9.1,1.7-13.6c1.3-7.8,2.7-15.6,4.3-23.4
		c1-4.9,1.3-9.7,0.5-14.7c-0.4-2.6-0.9-5.2-1.1-7.9c-0.2-3.4,0-6.7,0-10.1c0-1,0.3-2.1-0.1-2.8c-0.9-1.9-0.2-3.2,1.2-4.4
		c1.5-1.3,2.4-3,3.4-4.7c1.6-3,2.7-6.2,3.6-9.4c0.6-2.3,1.1-4.6,1.8-7.2c0.6,0.5,1.1,0.8,1.6,1.3c0.7-1.4,1.5-2.8,2.1-4.2
		c0.2-0.5,0.1-1.1,0.2-1.8c-1.1,0-1.9-0.1-2.7,0c-3.9,0.5-7.9,0.8-11.9,0.5c-2.3-0.2-3.9,0.6-5.3,2.3c-0.8,1-1.5,2.2-3.1,2.8
		c0-0.6-0.2-1.1-0.1-1.4c0.6-0.9,1.3-1.7,2-2.6c0.3-0.4,0.5-0.9,0.8-1.5C512.1,401.7,506.7,401.2,501,400.7z M561,400.4
		c-0.8-1,0.2-1.7,0-2.7c-2.8-0.1-5.5-1.2-8.5-0.3c-0.2,1.1-0.2,2-0.4,3c-0.2,1-1.1,1.6-2.1,1.3c-3-0.9-5.9-0.2-8.7,0.2
		c-0.9,1.2-1.1,2.4-0.9,3.6c0.6,3.1,1.1,6.3,2.9,8.9c2.2,3.1,3.2,6.7,5,9.9c0.3,0.6,0.7,1.3,0.1,2c-0.4,0.5-1.3,0.1-2-1
		c-0.7-1.1-1.4-2.3-2.1-3.6c-0.3,0.4-0.5,0.6-0.6,0.8c-1.6,5.4-2.8,10.9-3.1,16.6c-0.2,3.6-0.5,7.2-0.9,10.8
		c-0.3,2.9-0.4,5.8,0.1,8.6c0.6,3.2,1.3,6.4,2.1,9.5c1.9,7.1,3.8,14.1,5.7,21.2c0.6,2.1,0.9,4.2,0.3,6.4c-0.3,1.2-0.2,2.6-0.1,3.9
		c0.3,4.4,0.8,8.9,1,13.3c0.2,4.2,0.1,8.4,0.1,12.6c0,0.7-0.2,1.4-0.1,2.1c0.2,2,0.4,3.9,0.7,6c1.2-0.6,0.9-1.6,1-2.3
		c0.3-2.1,0.4-4.3,0.7-6.5c0.1-0.6,0.3-1.2,1.3-1.1c0.1,0.5,0.3,1.1,0.3,1.6c0,3.3-0.6,6.4-1.2,9.6c-0.2,1.4-1.3,1.9-2,2.8
		c-0.1,1.7-0.6,3.3-0.4,5.2c1,0,1.8-0.1,2.6,0c0.8,0.1,1.6,0.4,2.5,0.6c1-1.1,1.9-2.2,2.8-3.3c1.1-1.4,2.2-2.8,3.3-4.3
		c1.4-1.8,3.2-3.3,5.4-4.1c0.7-0.2,1.3-0.6,2-0.9c0-1.2,0.2-2.2,0.1-3.3c-0.5-6.7-0.5-13.5,0-20.2c0.5-6.1,1-12.2,1.7-18.3
		c0.7-6,1.6-11.9,1.9-17.9c0.2-3.4,0.4-6.7,0.9-10.1c0.6-4.4,1.5-8.8,2.2-13.2c0.8-4.7,1.4-9.5,1-14.3c-0.3-3.2-0.5-6.5-0.9-9.7
		c-0.2-1.9-0.5-3.8-0.9-5.7c-0.1-0.6-0.6-1.1-0.7-1.6c-0.1-0.6,0-1.2,0-2c-1,1.2-1.8,2.3-2.7,3.2c-0.4,0.5-0.9,0.3-1.7-0.6
		c1.1-1.6,2.2-3.3,3.4-5c0.1-0.2,0.4-0.2,0.6-0.3c0.4,0.2,0.9,0.3,1.3,0.5c1.8-5.8,2.8-10.8,2.7-13.8c-2.1-0.3-4.3,0-6.4-0.2
		c-2.1-0.1-4.3-0.3-6.8-0.5c-0.3,0.4-0.6,1-1,1.4C562.1,399.7,561.5,400,561,400.4z M546.8,537.1c0.3-2.5,0.1-4.8,0.1-7.1
		c-0.1-5.6-0.1-11.3-0.4-16.9c-0.4-7.1-0.9-14.2-0.5-21.3c0.1-2.1-0.3-4.1-1-6c-2.5-6.4-4.1-13.1-5.8-19.7
		c-1.2-4.6-2.1-9.4-1.6-14.3c0.5-5.4,0.9-10.8,1.4-16.2c0.5-4.9,1.8-9.7,3.3-14.4c0.2-0.7,0.8-1.4,1.2-2.1c-0.7-1.1-1.6-2.1-2.2-3.2
		c-0.6-1.2-1.1-2.4-1.5-3.7c-0.4-1.2-0.6-2.4-1.3-3.8c-0.9,1.4-1.5,2.6-2.4,3.5c-1,1-1.5,2-1.9,3.3c-1.6,5.7-3.3,11.3-7.9,15.3
		c-0.1,0.5-0.2,0.9-0.2,1.2c-0.1,6.4,0,12.7,1.3,19c0.2,0.8,0.3,1.7,0.4,2.5c0.4,3.1,0.8,6.3,0.1,9.3c-1.4,6.7-2.6,13.4-3.7,20.2
		c-0.3,1.7-0.5,3.5-1.7,5.1c-0.6,0.8-0.7,2-0.8,3.1c-0.2,1.5-0.2,3.1-0.2,4.7c-0.1,2.8,0,5.6-0.6,8.3c-0.4,1.8-0.4,3.5-0.2,5.3
		c0.7,6.2,1.5,12.4,1.6,18.7c0.1,3.2,0.6,6.5,1.6,9.6c1,0.5,1.9,1.1,2.9,1.6c4,2.2,6.6,5.3,7.1,10.2c0.3,3.3,1.8,6.2,3.7,8.9
		c0.3,0.4,0.7,0.6,1,0.9c0.2-0.4,0.4-0.6,0.4-0.8c0.2-3.6,0.6-7.2,0.4-10.8c-0.1-3.2,1-5.9,2.1-8.7c0.3-0.7,1-1.3,1.5-1.9
		C544.3,537.1,545.3,537.1,546.8,537.1z M579.3,544.2c-0.7-0.5-1.2-1.1-1.8-1.3c-1.3-0.3-2.6-0.3-3.8,0.5c-1.3,0.8-2.6,1.7-3.9,2.6
		c-0.9,0.6-1.8,1.2-2.8,1.6c-0.2,0.1-0.8,0-0.9-0.3c-0.2-0.4-0.4-0.9-0.3-1.3c0.1-0.4,0.4-0.9,0.8-1.1c2.5-2.1,5-4.2,8.4-4.5
		c0.2,0,0.3-0.3,0.5-0.5c-0.4-2.6-1.2-5-3.2-6.7c-2.6-0.8-4.8-0.3-6.8,0.9c-2.7,1.6-4.8,4-6.2,6.8c-0.5,1-1,1.9-1.8,2.6
		c-1.6,1.5-3.2,2.9-4.9,4.3c-2.9,2.3-6.6,2-9-0.8c-0.6-0.7-1.1-1.6-0.6-2.6c0.5-1,0.5-2.1,0-3.4c-0.2,0.6-0.3,1.1-0.6,1.5
		c-1.2,1.8-1.3,3.7-1.4,5.8c-0.1,4.5,0.6,9.1-0.6,13.6c4.6,4.2,9.5,7.5,15.9,7.9c1.9,0.1,3.8,0.6,5.4,1.9c0.4,1.1,0.8,2.2,1.2,3.3
		c2.1,1,4.3,1,6.4,1.4c5.5,1.1,11.1,2.1,16.8,2.1c1,0,1.9,0.1,2.9,0.2c3.7,0.1,7.5,0.1,11.2,0.2c3.9,0.1,7-1.5,9.4-4.4
		c0.4-4.5,0.1-8.9-1.4-13.4c-2.2-0.3-4.3-0.6-6.4-0.8c-1.8-0.2-3.6-0.7-5.1-1.7c-3.2-2.2-6.4-4.5-9.5-6.7c-3.6,0.5-7,0.9-9.4,3.5
		c-1.3-1-1.5-1.5-0.9-2.4c1-1.6,2.6-2.4,4.4-2.8c1-0.2,2.2-0.1,3.1-1.2c-1-0.9-1.9-1.8-2.9-2.6c-3.5,1.1-6.7,2.3-9.7,4.1
		c-0.3,0.2-0.6,0.5-1,0.4c-0.4,0-1-0.2-1.2-0.5c-0.2-0.3-0.2-1,0-1.3c0.6-0.7,1.3-1.4,2.2-1.8C574,546.2,576.4,545.4,579.3,544.2z
		 M538.1,139.2c0.8-0.2,1.4-0.5,2.1-0.6c0.7-0.2,1.4-0.4,2.1-0.6c0.8-0.2,1.6-0.3,2.5-0.5c0.7-0.1,1.4-0.2,2.1-0.4
		c0.6-0.2,1.4,0.2,1.8-0.7c-0.4-0.3-0.7-0.6-1.1-0.9c-2.5-2.2-5.2-4.2-7.6-6.6c-10.3-10.5-18.8-22.4-25.4-35.6
		c-0.3-0.6-0.7-1.1-1.1-1.8c-1.7,1-3.4,1.7-4.8,3.1c0.6,1,1.2,1.9,1.7,2.8c4.2,7.1,7.2,14.6,7.8,23c0.2,3,0.4,6,0.6,9
		c0.1,0.8,0.3,1.6,0.4,2.4c0.9,0.2,1.6,0.3,2.3,0.4c2.2,0.3,4.6,0.2,6.2,2.3c0.3,0.4,1.1,0.4,1.7,0.6
		C532.6,135.7,535.6,136.8,538.1,139.2z M641.8,144.3c-2.5,0.5-4.9,1-7.2,1.6c-0.9,0.2-1.7,0.9-2.5,1.4c-1.5,0.8-1.2,2.8-2.6,3.7
		c-0.3,0.2-0.5,0.8-0.6,1.3c-0.3,0.8,0.3,1.8,1.2,1.9c2.1,0.4,4.2,0.8,6.3,1.2c0.2,0,0.5,0.1,0.7,0c2.2-0.2,4.3-0.3,6.5-0.6
		c0.8-0.1,1.6-0.4,2.4-0.7c0.2-1.7,0.1-3.2-0.3-4.8c-1.6-0.4-3.2-0.2-4.7-0.2c-2.3,0-4.6,0-6.8,0c-0.5,0-1-0.1-0.7-0.9
		c0.9,0,1.8-0.1,2.8-0.1c2.4-0.1,4.8-0.2,7.2-0.3c1.6,0,2.6-1,3.4-2.4c-0.7-0.6-1.3-1.2-1.9-1.7c-0.6,0.3-1.1,0.6-1.5,0.8
		c0.2,0.7,0.3,1.3,0.4,1.8c-0.1,0-0.2,0.1-0.3,0.1C642.9,145.8,642.4,145.2,641.8,144.3z M663.7,160.2c-2.7-5.4-6.2-9.2-9.3-13.4
		c-5.2-7.2-11.5-13.5-17.4-20.2c-0.5-0.5-1-1.1-1.6-1.5c-0.9-0.7-1.9-1.1-3-0.9c-1.6,0.2-3.3,0.5-4.9,0.7c-0.5,1.2-0.5,2.2,0,3.5
		c0.6-0.7,1-1,1.3-1.5c0.8-1.1,1.8-1.2,2.9-0.8c2.5,0.9,4.9,2.2,5.9,4.9c0.4,1.2,1.1,2.1,2,3c3.6,3.8,7.3,7.6,11,11.4
		c1.6,1.7,3.2,3.6,4.8,5.4c0.6,0.7,1.1,1.6,1.5,2.5C658.2,156.2,660.5,158.1,663.7,160.2z M648.1,154.8c2,2.6,1.6,5.7,1.7,8.7
		c4.4-0.4,7.3-1.3,9.7-2.8c-2.5-2.9-5-5.8-7.4-8.7c-0.1-0.1-0.2-0.2-0.3-0.2c-0.1,0-0.2,0-0.2,0
		C650.4,152.8,649.3,153.7,648.1,154.8z M627.6,169.8c-0.1-0.3-0.2-0.4-0.2-0.4c-3.2-0.1-6.4-0.7-9.6-1.3c-4.1-0.8-8.1-0.3-12,0.9
		C613,171.7,620.2,172.5,627.6,169.8z M648.1,166.8c-5.4,0-10.7,1-16,2.1c-0.7,0.8-1.7,1.5-1,3.2c0.8,0,1.8,0.3,2.7,0.1
		C638.7,171,643.5,169.3,648.1,166.8z M509.6,551.7c-4,2.1-6.1-0.4-8.6-2c0.1-0.4,0.2-0.6,0.3-0.9c0.2-0.6,0.1-1.2-0.4-1.6
		c-0.3-0.2-0.8,0.4-0.9,1.2c0,0.6,0,1.2,0,2.1c1.6,0,2.2,1.2,2.7,2.4c0.3,0.6,0.6,1.3,1,1.9c0.6,0.8,1.7,1.2,2.5,0.9
		C507.7,555,508.8,554.1,509.6,551.7z M545.5,544c0,0.5-0.1,0.9,0,1.1c0.5,1,1.5,1.5,2.5,1.8c0.8,0.2,1.6,0.1,2.4-0.2
		c0.6-0.2,1.4-0.5,1.3-1.7c-1-0.1-2.1-0.1-3.1-0.3C547.6,544.6,546.6,544.3,545.5,544z M523.4,49.1c0.6-1.1,1.1-2.1,1.7-3.2
		c-0.4-0.5-0.7-1-1.1-1.3c-0.7-0.6-1.7-0.4-2,0.4c-0.2,0.5-0.3,1.2-0.1,1.7C522.2,47.5,522.8,48.3,523.4,49.1z M648,153.4
		c0.7-1.2,1.3-1.9,1.2-2.3c-0.4-1-0.3-2-0.4-3.1c0-0.2-0.5-0.7-0.7-0.6c-0.4,0.1-1,0.5-1,0.8C647.3,149.6,647.2,151.1,648,153.4z
		 M535.3,22.7c2.2-0.9,3.2-2.2,4.3-3.4c0.2-0.2,0-0.7,0-1.4C537.9,19.3,536.1,20.1,535.3,22.7z M545.7,542c0.2-0.1,0.4-0.1,0.6-0.2
		c0.2-0.7,0.3-1.5,0.5-2.5c-1.1-0.1-2-0.1-3.2-0.2c0.6,0.7,1,1,1.3,1.4C545.3,540.9,545.5,541.5,545.7,542z M554.9,11.7
		c-0.6-1.3-1.4-0.6-1.9-0.4c-1,0.4-1,1.4-0.9,2.7C553.3,13,554.1,12.3,554.9,11.7z M538.9,30.1c0.2,0.1,0.4,0.1,0.6,0.2
		c0.5-0.6,1-1.2,1.5-1.8c-1.1-0.7-1.5-0.7-1.7-0.1C539.1,29,539,29.5,538.9,30.1z M576.9,14.6c-1.6,0.2-2.3,0.3-3.2,0.5
		c0.3,0.9,0.5,1.7,0.8,2.8C575.3,16.8,575.9,16.1,576.9,14.6z M584.6,247.8c-0.1-0.4-0.2-0.8-0.4-1.6c-0.9,0.8-1.6,1.5-2.5,2.2
		C583,249,583.7,248.3,584.6,247.8z M532.8,35.8c1.8-1.3,1.8-1.3,1.2-2.3C532.8,34.3,532.8,34.3,532.8,35.8z M526.3,35.2
		c0.1-0.6,0.3-1.1,0.4-1.7c0.1-0.6,0.9-1.3-0.2-2.1C525.3,32.6,525.8,34,526.3,35.2z M567.7,42.5c0,0.1,0.1,0.3,0.1,0.4
		c0.8,0,1.6,0,2.3,0c0.1,0,0.3-0.4,0.3-0.5c0-0.2-0.3-0.4-0.4-0.4C569.2,42.1,568.4,42.3,567.7,42.5z M532.1,33.3
		c-2.1-0.6-2.2-0.5-2.3,1.4C530.6,34.2,531.2,33.8,532.1,33.3z M536,13.2c2.2,0.1,2.2,0.1,2.4-1.8C537.6,12,537,12.5,536,13.2z
		 M568.8,11.2c1.5-1.7,1.5-1.7,0.6-2.6C568.7,9.2,568.5,9.9,568.8,11.2z M532.7,43.3c-0.2,0.1-0.4,0.2-0.6,0.4
		c-0.2,0.3-0.2,0.6-0.3,1C532.7,44.1,532.7,44.1,532.7,43.3z M552.9,19.1c0.5,0.2,0.9,0.4,1.3,0.6c0.1,0,0.2-0.1,0.3-0.2
		c-0.3-0.3-0.6-0.6-0.9-0.9C553.4,18.5,553.2,18.8,552.9,19.1z M556.1,18c-0.1-0.3-0.1-0.5-0.2-0.7c-0.2,0.1-0.4,0.1-0.5,0.3
		c-0.1,0.1-0.1,0.4-0.1,0.5C555.5,18,555.8,18,556.1,18z M566.7,22.3c-0.1-0.2-0.2-0.5-0.4-0.6c-0.1-0.1-0.4,0.1-0.6,0.1
		c0.1,0.2,0.2,0.5,0.3,0.5C566.3,22.5,566.5,22.4,566.7,22.3z M530.5,12.4c-0.1-0.2-0.2-0.4-0.3-0.5c-0.1-0.1-0.4,0.1-0.5,0.2
		c0.1,0.2,0.1,0.5,0.3,0.5C530,12.7,530.3,12.5,530.5,12.4z M587.1,252.4c-0.1,0-0.2,0-0.2,0.1c0,0.2-0.1,0.4-0.1,0.7
		c0.1,0,0.3,0,0.4-0.1C587.2,252.9,587.1,252.7,587.1,252.4z M559,14.9c-0.2,0.3-0.3,0.5-0.4,0.8c0,0.1,0.1,0.2,0.2,0.3
		c0.3-0.2,0.5-0.4,0.8-0.6C559.4,15.2,559.3,15.1,559,14.9z M519.9,31.8c0-0.1,0.1-0.2,0.1-0.3c0,0-0.1-0.1-0.2-0.1
		c0,0.1-0.1,0.2-0.1,0.3C519.7,31.8,519.8,31.8,519.9,31.8z M547.4,9.5c-0.2-0.1-0.4-0.2-0.6-0.3c-0.1,0-0.2,0.1-0.3,0.2
		c0.2,0.1,0.4,0.2,0.6,0.3C547.2,9.7,547.3,9.5,547.4,9.5z M526.6,49.4c-0.1-0.2-0.2-0.3-0.3-0.4c0,0-0.2,0.1-0.2,0.2
		c0,0.2,0.1,0.4,0.2,0.6C526.3,49.7,526.4,49.5,526.6,49.4z M512,247.6c0-0.1-0.1-0.2-0.1-0.3c-0.1,0.1-0.2,0.2-0.2,0.3
		c0,0.1,0.1,0.2,0.1,0.3C511.9,247.8,512,247.7,512,247.6z M520.7,41.4c-0.1-0.1-0.1-0.1-0.2-0.2c-0.1,0.2-0.2,0.3-0.2,0.5
		c0,0.1,0.1,0.2,0.2,0.2C520.6,41.7,520.7,41.5,520.7,41.4z M531.6,47c-0.1-0.1-0.2-0.1-0.3-0.2c-0.1,0.2-0.2,0.4-0.2,0.6
		c0,0.1,0.1,0.2,0.2,0.2C531.4,47.5,531.5,47.2,531.6,47z M559.8,12.1c-0.1-0.1-0.1-0.2-0.2-0.3c-0.1,0.1-0.2,0.1-0.2,0.2
		c0.1,0.1,0.2,0.3,0.3,0.4C559.7,12.3,559.7,12.2,559.8,12.1z M548.8,13.5c0-0.1,0-0.2-0.1-0.3c0,0.1-0.1,0.1-0.1,0.2
		c0,0.1,0,0.2,0.1,0.3C548.7,13.7,548.7,13.6,548.8,13.5z M535.5,17.6c0,0.1-0.1,0.2-0.1,0.3c0.1,0.4,0.2,0.4,0.4,0
		c0-0.1,0-0.2-0.1-0.3C535.7,17.6,535.6,17.6,535.5,17.6z M561.7,20.5l0.1-0.2l-0.2,0L561.7,20.5z"/>
	<path d="M175.2,166.1c0.6-0.5,1.1-1.1,1.8-1.6c2.4-1.9,4.2-4.2,5-7.3c1.2-4.4,2.5-8.7,2.4-13.4c0-2.3-0.3-4.5-1.2-6.7
		c-0.8-1.9-1.6-3.7-2.4-5.6c-0.2-0.4-0.2-0.8-0.2-1.2c0.8-0.5,1.1,0,1.3,0.3c0.4,0.5,0.7,1,0.9,1.5c1.6,3.7,3.3,7.4,3.9,11.5
		c0.1,1.1,0.3,2.2,0.1,3.2c-0.9,3.7-1.8,7.4-2.9,11.1c-1,3.3-3.1,5.9-5.8,8.1c-0.5,0.4-1,0.7-1.5,0.9
		C175.9,167.3,175.5,166.9,175.2,166.1z"/>
	<path d="M136.5,40.6c1.1-0.7,1.7-1.3,2.5-1.6c0.9-0.4,1.9-1,2.7-0.8c2.4,0.3,4.9-0.1,7.3,0.6c1.7,0.5,2.7,1.4,2.6,3.3
		c-2.7,0.7-2.7,0.7-4.1,2.3c-3,0.5-5.9,0-8.9-0.2c-0.5-0.8,0-1.3,0.5-1.4c2-0.4,3.9-0.7,5.9-1.1c0.7-0.1,1.3,0.7,2.1-0.1
		c-1.8-1.6-4.5-0.6-6-2.1C139.4,39.6,138.5,41.4,136.5,40.6z"/>
	<path d="M554,42.2c-1.6-2.2-4.4-0.8-5.7-2.6c-1.9,0-3,1.9-4.9,1c1-0.6,1.7-1.3,2.6-1.6c0.9-0.4,1.9-0.9,2.7-0.8
		c2.3,0.4,4.7-0.1,7,0.6c1.7,0.5,2.8,1.3,2.9,3.1c-0.1,0.2-0.3,0.5-0.4,0.5c-2.4,0.4-2.4,0.4-3.8,2.1c-3,0.6-5.9-0.1-8.8-0.1
		c-0.6-0.8,0-1.3,0.5-1.4c2.1-0.4,4.2-0.8,6.3-1C552.8,41.8,553.4,42.1,554,42.2z"/>
	<path d="M531.9,68.5c3.6,2.4,7.2,4.6,10.1,7.8c-0.6,0.8-1.1,0.6-1.5,0.3c-3.5-2.7-7.1-5.3-10.5-7.9c-0.4-1.4-0.9-2.7-1-4
		c-0.2-1.3,0-2.6,0-3.9c0.5,0.1,0.8,0.1,0.8,0.2C530.5,63.4,531.1,65.8,531.9,68.5z"/>
	<path d="M122.5,59.7c0.8,2.9,1.5,5.8,2.3,8.7c3.4,2.4,7,4.5,9.9,7.6c0.1,0.1,0.1,0.4,0.1,0.6c-0.2,0.1-0.5,0.3-0.6,0.2
		c-3.8-2.7-7.5-5.5-11.2-8.1C122.2,65.6,121.5,62.8,122.5,59.7z"/>
	<path d="M548.6,588.5c-0.4-0.8-0.9-1.3-0.8-1.8c0.6-3.6,3.7-6.8,7.3-7.6c1.7-0.4,3.3,0,4.7,1c0.2,0.2,0.3,0.6,0.5,1
		c-0.4,0.1-0.7,0.4-1,0.3c-0.7-0.1-1.4-0.4-2.1-0.5c-2.6-0.3-4.7,0.8-6.1,2.9c-0.6,0.9-0.9,1.9-1.4,2.9
		C549.5,587.3,549.2,587.7,548.6,588.5z"/>
	<path d="M153.6,581.8c-1.1-0.3-1.4-0.4-1.8-0.5c-4.2-0.8-6.9,0.5-8.6,4.5c-0.2,0.5-0.4,1.1-0.7,1.7c-0.2,0.3-0.5,0.4-0.7,0.6
		c-0.8-0.2-1-0.8-0.9-1.4c0.6-3.7,4-7.1,7.7-7.6c1.5-0.2,2.9,0.2,4.1,1C153,580.3,153.1,580.8,153.6,581.8z"/>
	<path d="M139.7,186.2c-1.6,3.2-3.1,5.7-4.1,8.3c-1,2.5-1.5,5.3-2.3,8c-0.3-0.2-0.7-0.3-0.8-0.6c-0.1-0.3-0.1-0.7-0.1-1.1
		c0.7-5.2,2.4-10,6-14C138.6,186.7,138.9,186.6,139.7,186.2z"/>
	<path d="M139.6,164.6c1.3-0.8,1.9-1.1,2.5-1.4c1.2-0.6,2.4-1.1,3.6-1.7c3.7-2,4.9-3.3,6.6-6.9c0.7,1.1,0.5,2.1,0,3
		c-0.7,1-1.4,2-2.3,2.8c-2.4,2.3-5.3,3.6-8.5,4.6C141.2,165,140.8,164.8,139.6,164.6z"/>
	<path d="M149.1,72.6c0.1-1.3,0.7-2.1,1.6-2.5c0.7-0.3,1.6-0.4,2.4-0.3c1,0.2,2,0.6,3,1.1c0.7,0.3,0.5,1.6-0.2,1.8
		C153.6,73.3,151.3,73.8,149.1,72.6z"/>
	<path d="M556,72.4c1.5-2.7,2.1-3.1,4.4-2.5c0.9,0.2,1.8,0.7,2.6,1.1c0.5,0.3,0.6,1.3,0.1,1.5C560.7,73.4,558.3,73.9,556,72.4z"/>
	<path d="M158.6,66.7c-0.2,0.3-0.3,0.8-0.5,0.8c-3.6,0.3-7.1,0.5-10.7,0.7c-1.2,0.1-2-0.5-1.8-1.1c0.3-0.8,1.1-0.9,1.8-0.8
		c3,0.7,5.9-0.3,8.9-0.3C157.1,66,158,65.7,158.6,66.7z"/>
	<path d="M556,68.2c-1.3,0-1.8,0-2.3,0c-0.7,0-1.4-0.6-1.1-1c0.2-0.4,0.7-0.8,1-0.8c3.4,0.5,6.7-0.2,10-0.3c0.2,0,0.5-0.1,0.7,0
		c0.4,0.2,0.7,0.5,1.1,0.7c-0.3,0.3-0.6,0.8-0.9,0.8c-1.8,0.1-3.6,0.1-5.4,0.3C557.8,67.9,556.5,68.1,556,68.2z"/>
	<path d="M117.1,185.7c-0.5,0.1-1,0.4-1.2,0.2c-2.6-1.9-5.6-3.3-7.4-6.1c-0.2-0.4-0.5-0.9-0.5-1.3c0-0.2,0.4-0.5,0.8-0.9
		c1.7,3.2,4.9,4.6,7.3,7C116.4,184.9,116.6,185.2,117.1,185.7z"/>
	<path d="M154.5,110.6c-1.8,1.6-3.5,1-5.1,0.6c-1.4,0.1-2.3,1.9-4.1,0.8c1-1.4,2.4-2,3.9-2.3C150.9,109.4,152.7,109.5,154.5,110.6z"
		/>
	<path d="M533.1,108.5c0.7-0.4,1.1-0.8,1.5-0.8c2.8-0.2,5.5,0.3,8.1,0.7c0.2,0,0.4,0.5,0.6,0.9c-2.7,0.7-5.4,0.1-8,0
		C534.7,109.2,534,108.8,533.1,108.5z"/>
	<path d="M126,108.6c1.8-1.4,3.3-1.1,4.7-0.9c4.5,0.5,4.5,0.5,5.6,1.4c-0.2,0.1-0.3,0.4-0.5,0.4c-2.5,0-5-0.1-7.5-0.2
		C127.8,109.2,127.2,109,126,108.6z"/>
	<path d="M552.2,112.1c3.3-2.9,5.2-3.2,9.1-1.4c-0.6,0.4-1,0.9-1.4,0.9c-1.3,0-2.6-0.1-4.3-0.2C554.9,111.6,554,112.9,552.2,112.1z"
		/>
	<path d="M170.4,182.9c1.2,2.7,1.5,5.5,1.4,8.4c0,0.2-0.4,0.5-0.9,0.9c-0.5-3.2-1.3-6-1.2-9C169.7,183.1,170.1,183,170.4,182.9z"/>
	<path d="M152.7,60.4c-0.8-0.6-0.8-1.2-0.2-1.6c1.6-1.1,3.3-1.1,5.1-0.7c0.2,0,0.4,0.6,0.4,0.9c0,0.2-0.2,0.4-0.4,0.5
		c-0.3,0.2-0.7,0.4-1,0.3C155.2,59.6,153.8,59.8,152.7,60.4z"/>
	<path d="M544.6,109.7c0.2-0.1,0.5-0.3,0.6-0.2c1.6,0.8,3.1,1.7,4.6,2.6c0.6,0.4,0.5,1-0.1,1.4C547.5,112.6,546.3,111.7,544.6,109.7
		z"/>
	<path d="M137.5,109.8c0.4-0.1,0.7-0.3,0.8-0.3c1.6,0.8,3.2,1.6,4.6,2.6c0.6,0.4,0.3,1-0.4,1.6C140.7,112.7,139,111.4,137.5,109.8z"
		/>
	<path d="M564.8,59.3c-0.8,0.8-1.7,0.4-2.7,0.5c-0.9,0-1.8,0.3-2.6,0.5c-0.8-0.8-0.5-1.4,0.2-1.8c1.4-0.8,2.9-0.7,4.5-0.6
		C564.5,58,564.6,58.2,564.8,59.3z"/>
	<path d="M167.2,163.2c0.7-0.7,1.5-0.3,2.3-0.1c1.9,0.5,2.4,0.8,3.8,2.2C171,165.6,168.4,164.6,167.2,163.2z"/>
	<path d="M121.5,166.2c-2.1,0.6-3.8,0.4-5.6-0.3c0.3-1.2,1.1-1.2,1.7-1C118.9,165.3,120.5,164.6,121.5,166.2z"/>
	<path d="M144.3,180.4c-0.2,1.7-1.3,2.4-2.3,3.1c-1-0.2-1-0.8-0.7-1.4C141.9,181.3,142.6,180.4,144.3,180.4z"/>
	<path d="M556.1,105.4c-0.6-1.6-0.8-3.2,0.2-5.1C557.1,103,557.1,103,556.1,105.4z"/>
	<path d="M105.3,192.2c-1.1-0.6-1.9-1.3-1.8-2.7C105.3,190.4,105.3,190.4,105.3,192.2z"/>
	<path d="M130.6,79.7c-1.1-1-1.4-2.2-1.8-3.5C130.3,76.9,130.3,76.9,130.6,79.7z"/>
	<path d="M149.6,106.3c-1.3-2.4-0.7-4-0.6-6.5C150.3,102.3,149.7,103.9,149.6,106.3z"/>
	<path d="M133.8,91.4c-0.5-0.9-1.1-1.8-1.6-2.7c-0.2-0.3,0-0.8,0.1-1.5C133.3,88.8,133.3,88.8,133.8,91.4L133.8,91.4z"/>
	<path d="M540.3,90.7c-0.7-1-1.8-1.9-1.1-3.5C540.7,88.2,540.2,89.5,540.3,90.7L540.3,90.7z"/>
	<path d="M536,75.7c1.3,1.2,1.6,2.2,1.3,3.9C536.5,78.4,536,77.5,536,75.7z"/>
	<path d="M160.4,161.1c-0.2,0.1-0.5,0.3-0.8,0.2c-0.7-0.2-1.1-0.8-0.7-1.2c0.1-0.2,0.4-0.3,0.6-0.3
		C160.1,159.8,160.6,160.4,160.4,161.1z"/>
	<path d="M176.2,187.9c0.3,0.8,0.5,1.5,0.8,2.3c0.1,0.2-0.1,0.4-0.2,0.8C175.7,190.1,175.6,189.1,176.2,187.9z"/>
	<path d="M155.8,189.2c0,0.6,0,1.1,0,1.8C154.9,190,154.9,190,155.8,189.2z"/>
	<path d="M132.1,86.2c-0.6-1.4-0.9-2.1-1.3-3.1C132.2,83.8,132.2,83.8,132.1,86.2z"/>
	<path d="M538.6,83c0.3,0.7,0.5,1.3,0.9,2.4C538.2,84.8,538,84.1,538.6,83z"/>
	<path d="M134.5,92.2c0.9,0.8,0.7,1.9,0.5,3.1C134.3,94.2,134.7,93.1,134.5,92.2L134.5,92.2z"/>
	<path d="M148.9,122.6c-0.4,0.2-0.7,0.3-0.7,0.3c-0.2-0.2-0.4-0.5-0.5-0.8c0-0.1,0.2-0.3,0.3-0.5C148.3,122,148.5,122.3,148.9,122.6
		z"/>
	<path d="M106.9,193.2c0.3,0.5,0.6,0.9,0.8,1.4c0,0-0.2,0.2-0.2,0.2c-0.3-0.1-0.7-0.1-0.9-0.3c-0.2-0.2-0.2-0.6-0.2-0.9
		C106.5,193.5,106.7,193.4,106.9,193.2z"/>
	<path d="M541.8,92.9c0.7,0.7,0.4,1.4,0.1,2.2C541.9,94.3,541.9,93.6,541.8,92.9L541.8,92.9z"/>
	<path d="M169.4,179.1c-0.9-0.2-1-0.7-0.7-1.5C169.5,177.8,169.8,178.3,169.4,179.1z"/>
	<path d="M155.2,195.8c0,0.6,0,1.3,0,1.9c-0.1,0-0.2,0-0.3,0c0-0.6,0-1.3,0-1.9C155,195.8,155.1,195.8,155.2,195.8z"/>
	<path d="M124.7,166.3c-0.4,0-0.8,0-1.2,0c0-0.1,0-0.2,0-0.3c0.4,0,0.8,0,1.2,0C124.7,166.1,124.7,166.2,124.7,166.3z"/>
	<path d="M179.2,194.1c-0.1,0.2-0.2,0.3-0.3,0.4c-0.2-0.2-0.5-0.4-0.7-0.6c0,0,0.2-0.3,0.3-0.5C178.7,193.7,178.9,193.9,179.2,194.1
		z"/>
	<path d="M553.8,119.7c-0.2,0-0.4,0-0.5-0.1c-0.1-0.1,0-0.3,0-0.5c0,0,0.3-0.1,0.3,0C553.7,119.3,553.7,119.5,553.8,119.7z"/>
	<path d="M202.7,208.1c-0.2,0.1-0.4,0.2-0.6,0.2c-0.1,0-0.2-0.1-0.2-0.2c0.1-0.1,0.2-0.2,0.2-0.2C202.3,207.9,202.5,208,202.7,208.1
		z"/>
	<path d="M146.5,119c0.1,0.2,0.1,0.4,0.2,0.5c0,0-0.2,0.1-0.2,0.2c-0.1-0.2-0.2-0.4-0.2-0.6C146.2,119.2,146.4,119.1,146.5,119z"/>
	<path d="M555.2,122c0.1,0.2,0.2,0.4,0.2,0.6c0,0.1-0.2,0.2-0.4,0.3c-0.1-0.2-0.2-0.4-0.2-0.6C554.9,122.2,555.1,122.1,555.2,122z"
		/>
	<polygon points="540.3,90.7 540.5,90.8 540.3,90.7 	"/>
	<path d="M133.7,91.5c0.3,0.2,0.6,0.5,0.8,0.7c0,0,0.1-0.1,0.1-0.1C134.3,91.9,134,91.6,133.7,91.5
		C133.8,91.4,133.7,91.5,133.7,91.5z"/>
	<path d="M541.9,92.8c-0.1-0.1-0.3-0.1-0.4-0.2c0.1,0,0.1,0,0.2,0C541.8,92.7,541.8,92.8,541.9,92.8L541.9,92.8z"/>
	<path d="M164.1,162.2c-0.1,0-0.2-0.1-0.2-0.1C163.9,162.1,164,162.2,164.1,162.2L164.1,162.2z"/>
	<polygon points="164,162.2 164.2,162.3 164.1,162.2 	"/>
	<path d="M190.8,163.6c-0.1-0.1-0.2-0.2-0.3-0.3c0.1,0,0.2,0.1,0.2,0.1C190.8,163.5,190.7,163.6,190.8,163.6L190.8,163.6z"/>
	<path d="M190.8,163.7c0.1,0.1,0.3,0.2,0.4,0.3c-0.1,0-0.2,0-0.2-0.1C190.9,163.8,190.9,163.7,190.8,163.7L190.8,163.7z"/>
	<path d="M175.2,307.6c-0.8-0.1-0.9-0.7-1-1.3c-0.7-4.8-1.4-9.5-2.1-14.3c-1.1-7.7-2.3-15.5-3.4-23.2c-0.3-2.5-0.5-5-0.8-7.8
		c0.9,0.9,1,1.7,1.1,2.6c0.2,4.8,1.4,9.5,2.2,14.2c1.2,6.5,2,13.1,3,19.6c0.4,2.4,0.8,4.7,1.2,7.1c0.1,0.8,0.1,1.7,0.1,2.5
		C175.6,307.2,175.4,307.4,175.2,307.6z"/>
	<path d="M174.1,257.4c0.5,0.3,0.9,0.4,1,0.6c0.6,1,1.2,2.1,1.7,3.2c2,4.8,4.6,9.2,7.7,13.3c0.7,0.9,0.8,2,0.2,2.1
		c-0.8,0.2-1.3-0.3-1.8-0.9c-0.4-0.4-0.7-0.9-1.1-1.4c-3.1-5-5.7-10.2-7.8-15.7C174,258.3,174.1,258,174.1,257.4z"/>
	<path d="M111.8,257.5c-0.1,0.3-0.1,0.7-0.2,1c-3.1,6.1-6.2,12.1-9.3,18.2c-1,0-1-0.6-0.8-1.2c0.6-1.5,1.3-3.1,2-4.6
		c2.2-4.2,4.6-8.4,6.9-12.6c0.2-0.4,0.6-0.7,0.9-1.1C111.5,257.4,111.7,257.5,111.8,257.5z"/>
	<path d="M85.4,388.9c-1.5-7.1-1.4-14.1-1.3-21.3c0.6,0.2,0.7,0.2,0.8,0.2c0.1,0.1,0.2,0.2,0.2,0.3c0,0.7,0.1,1.4,0.1,2.1
		C85.2,376.5,85.3,382.7,85.4,388.9z"/>
	<path d="M142.9,327.2c0.3,0.9,0.7,1.6,0.9,2.4c2.2,11.8,2.7,17.1,2.1,21.3c-0.1,0-0.2,0.1-0.2,0c-0.1-0.1-0.2-0.2-0.2-0.3
		c-0.1-0.2-0.1-0.5-0.1-0.7c-0.1-1.3,0-2.7-0.2-4c-0.8-6.1-1.7-12.1-2.5-18.2C142.6,327.7,142.7,327.6,142.9,327.2z"/>
	<path d="M162.7,365.1c-0.4-0.2-0.9-0.3-1.2-0.7c-3.2-4.3-6.4-8.7-9.6-13.1c-0.1-0.2,0.1-0.6,0.1-1.2c0.6,0.5,1.2,0.8,1.5,1.3
		c3,4.3,6,8.7,9,13.1C162.7,364.6,162.6,364.9,162.7,365.1L162.7,365.1z"/>
	<path d="M96.9,255.6c0.1,2.3-1.4,3.9-1.9,5.8c-0.5,1.9-1.3,3.8-2,6.1C92.7,263.3,94.6,257.8,96.9,255.6z"/>
	<path d="M119.1,268.2c-0.7-3,0.2-5.8,0.6-8.8c0.1-0.5,0.5-0.9,0.9-1.7C120.9,260.5,120.3,265.8,119.1,268.2z"/>
	<path d="M165.5,258.2c0,0.9-0.6,1.3-1.4,1.3c-1.9,0.1-3.8,0-5.7,0c-0.1-0.9,0.6-1,1.1-1c2-0.1,4.1-0.2,6.1-0.2L165.5,258.2z"/>
	<path d="M136.3,268.3c-0.2-2.2-0.9-4.4-0.3-7.1c0.5,0.6,0.9,0.9,0.9,1.2C137.3,264.6,137.2,265.3,136.3,268.3z"/>
	<path d="M156.6,271.9c-0.9-3-0.9-7.7-0.1-10.8C157.3,263.6,157.4,268.1,156.6,271.9z"/>
	<path d="M152.1,253.6c0.8,3.3,0.8,3.3,0.1,5.8c-0.3-0.2-0.8-0.3-0.8-0.6C151.1,257.2,150.8,255.7,152.1,253.6z"/>
	<path d="M155.4,258.8c-1.6-0.8-1.7-1.5-0.8-4.7c0.6-0.2,0.9,0.1,1,0.6C155.8,256.3,155.7,257,155.4,258.8z"/>
	<path d="M122.3,256.1c-3-0.4-5.5-0.7-8.4-1.1C117,254.5,119.4,254.5,122.3,256.1z"/>
	<path d="M138.8,258.6c-1.3-1.7-0.9-3-0.6-4.3C139.7,254.9,139.8,255.6,138.8,258.6z"/>
	<path d="M158.7,253.9c1.3,0.9,1.1,2.2,1.5,3.5C158.4,256.7,158.3,256.6,158.7,253.9z"/>
	<path d="M91.2,371.6c-1.6-1.6-1.7-3.7-2.3-5.7l-0.1,0.1c0.2,0.1,0.5,0.1,0.6,0.3C90.2,368,91.1,369.7,91.2,371.6L91.2,371.6z"/>
	<path d="M118,253.5c0.1-0.9,0.1-1.8,0.2-3.1c0.5,0.4,0.9,0.6,0.9,0.7c-0.1,0.8-0.3,1.6-0.4,2.4C118.4,253.5,118.2,253.5,118,253.5z
		"/>
	<path d="M96.2,363.7c-1.4-0.9-2.4-2-2.9-3.6l-0.1,0.1C94.9,360.9,95.9,362.1,96.2,363.7L96.2,363.7z"/>
	<path d="M185.2,357.1c-1.2-1.3-0.4-2.9-0.6-4.3C185.2,354.2,185,355.7,185.2,357.1L185.2,357.1z"/>
	<path d="M185.1,357.2c1,1.3,0.4,2.7,0.3,4.1c-0.1-0.7-0.2-1.4-0.2-2.1C185.1,358.5,185.1,357.8,185.1,357.2L185.1,357.2z"/>
	<path d="M143.4,318c0-1,0-2.1,0-3.1c0.1,0,0.1,0,0.2,0c0.1,1,0.1,2,0.2,3C143.7,317.9,143.5,318,143.4,318z"/>
	<path d="M112,254.5c-1.1,0-2.1,0-3.2,0c0-0.1,0-0.2,0-0.3c1,0,2,0,3.1,0C111.9,254.3,112,254.4,112,254.5z"/>
	<path d="M142.2,303.9c0,1.1,0,2.1,0,3.2c-0.1,0-0.1,0-0.2,0c-0.1-1-0.1-2-0.2-3.1C142,304,142.1,304,142.2,303.9z"/>
	<path d="M94,379c1,1,1.6,2.1,1.5,3.6l0.1-0.1C94.7,381.4,94,380.3,94,379L94,379z"/>
	<path d="M94.1,378.9c-1-1-1.5-2.2-1.5-3.6l-0.1,0.1C93.6,376.3,94.1,377.5,94.1,378.9L94.1,378.9z"/>
	<path d="M91.4,277.8c0-0.9,0-1.7,0-2.6c0.1,0,0.1,0,0.2,0c0,0.9,0,1.7,0,2.6C91.5,277.8,91.5,277.8,91.4,277.8z"/>
	<path d="M98.4,389c-0.7-1.1-1.4-2.2-1.4-3.6l-0.1,0.1c1,1,1.6,2.2,1.4,3.6L98.4,389z"/>
	<path d="M154.7,380.4c1.5,0.4,1.9,1.6,2.2,2.8l0.1-0.1C155.5,382.8,155.1,381.6,154.7,380.4L154.7,380.4z"/>
	<path d="M91.1,371.7c0.9,1.1,1.5,2.2,1.4,3.7l0.1-0.1C91.8,374.2,91,373.1,91.1,371.7L91.1,371.7z"/>
	<path d="M103,258.6c-0.6-1.2-0.6-2.1,0.1-2.9C103.9,256.5,103.6,257.4,103,258.6z"/>
	<path d="M142.9,310.3c0,0.7,0,1.3,0,2c-0.1,0-0.1,0-0.2,0c0-0.7-0.1-1.3-0.1-2C142.7,310.3,142.8,310.3,142.9,310.3z"/>
	<path d="M156.9,383.2c0.6,0.5,1.2,1,2.1,1.6C157.5,384.9,157.5,384.9,156.9,383.2C156.9,383.2,156.9,383.2,156.9,383.2z"/>
	<path d="M153.3,378.2c0.9,0.5,1.5,1.1,1.4,2.2l0.1-0.1C153.8,379.9,153.4,379.1,153.3,378.2L153.3,378.2z"/>
	<path d="M126,256.7c-0.7,0-1.5-0.1-2.4-0.1C124.5,256.2,125.3,256.1,126,256.7C125.9,256.8,126,256.7,126,256.7z"/>
	<path d="M162.6,365.2c0.9,0.5,1.3,1.3,1.4,2.2l0.1-0.1C163.4,366.7,162.7,366.1,162.6,365.2L162.6,365.2z"/>
	<path d="M104.8,253.5c0.5,0,1.1,0,1.6,0c0,0.1,0,0.2,0,0.2c-0.5,0-1.1,0-1.6-0.1C104.8,253.6,104.8,253.6,104.8,253.5z"/>
	<path d="M92.1,270.2c0.1-0.6,0.1-0.8,0.1-1.1c0,0.1,0.1,0.3,0.1,0.4C92.4,269.7,92.3,269.8,92.1,270.2z"/>
	<path d="M142.2,295.6c0,0.2,0.1,0.4,0,0.7c0,0-0.2,0.1-0.4,0.1c0-0.2,0-0.5,0.1-0.7C142,295.6,142.1,295.6,142.2,295.6z"/>
	<path d="M151.1,375.2c-0.2-0.5-0.4-1-0.6-1.5l-0.1,0.1C150.6,374.3,150.8,374.8,151.1,375.2L151.1,375.2z"/>
	<path d="M164.8,368.1c0.2,0.5,0.4,1,0.6,1.5l0.1-0.1c-0.2-0.5-0.4-1-0.6-1.5L164.8,368.1z"/>
	<path d="M166.3,370.3c0.2,0.5,0.4,1,0.6,1.5l0.1-0.1C166.8,371.2,166.6,370.7,166.3,370.3L166.3,370.3z"/>
	<path d="M151.9,376c0.2,0.5,0.4,1,0.6,1.5l0.1-0.1C152.3,376.9,152.1,376.4,151.9,376L151.9,376z"/>
	<path d="M96.3,383.9c-0.8-0.2-0.7-0.8-0.7-1.4l-0.1,0.1C96.3,382.7,96.2,383.4,96.3,383.9L96.3,383.9z"/>
	<path d="M96.2,383.9c0.8,0.3,0.7,0.9,0.7,1.5l0.1-0.1C96.2,385.1,96.3,384.5,96.2,383.9L96.2,383.9z"/>
	<path d="M89,365.9c-0.1-0.2-0.3-0.3-0.4-0.5c0,0,0.1-0.2,0.1-0.3C88.8,365.4,88.8,365.7,89,365.9L89,365.9z"/>
	<polygon points="143.6,324.4 143.6,324.7 143.4,324.7 	"/>
	<polygon points="88.7,306.9 88.6,306.6 88.8,306.6 	"/>
	<path d="M93.4,360.1c-0.1-0.1-0.2-0.2-0.3-0.3c0.1,0,0.2,0,0.2,0.1C93.3,360,93.3,360.1,93.4,360.1L93.4,360.1z"/>
	<path d="M152,375.9c-0.3-0.2-0.6-0.5-0.8-0.7l-0.1,0.1C151.3,375.5,151.6,375.8,152,375.9L152,375.9z"/>
	<path d="M96.1,363.8c0.6-0.1,0.8,0.1,0.7,0.7l0.1-0.1C96.7,364.2,96.5,363.9,96.1,363.8L96.1,363.8z"/>
	<path d="M97.7,365.2c-0.2-0.2-0.5-0.5-0.7-0.7l-0.1,0.1C97.4,364.4,97.7,364.7,97.7,365.2L97.7,365.2z"/>
	<path d="M150.5,373.8c-0.3-0.2-0.5-0.4-0.8-0.6c0,0,0,0.1,0,0.1C149.9,373.4,150.2,373.6,150.5,373.8
		C150.4,373.9,150.5,373.8,150.5,373.8z"/>
	<polygon points="149.7,373.1 149.6,373 149.7,373.2 	"/>
	<path d="M166.9,371.7c0.1,0.1,0.3,0.1,0.4,0.2c0,0-0.1,0-0.1,0C167.1,371.8,167,371.7,166.9,371.7L166.9,371.7z"/>
	<path d="M97.6,365.2c0.6-0.1,0.8,0.2,0.7,0.7l0.1-0.1C98.2,365.6,97.9,365.4,97.6,365.2C97.7,365.2,97.6,365.2,97.6,365.2z"/>
	<path d="M99.1,366.5c-0.2-0.2-0.5-0.5-0.7-0.7l-0.1,0.1C98.8,365.9,99,366.2,99.1,366.5L99.1,366.5z"/>
	<path d="M165.4,369.6c0.3,0.2,0.6,0.5,0.8,0.7l0.1-0.1C166.1,369.9,165.8,369.7,165.4,369.6L165.4,369.6z"/>
	<path d="M99.8,367.3c-0.2-0.2-0.5-0.5-0.7-0.7l-0.1,0.1C99.3,366.9,99.5,367.1,99.8,367.3L99.8,367.3z"/>
	<path d="M99.7,367.4c0.1,0,0.2,0.1,0.2,0.1C99.9,367.4,99.9,367.3,99.7,367.4L99.7,367.4z"/>
	<path d="M164,367.4c0.3,0.2,0.6,0.5,0.8,0.7l0.1-0.1C164.7,367.8,164.4,367.5,164,367.4L164,367.4z"/>
	<path d="M98.3,389.1c0.2,0.1,0.3,0.1,0.5,0.2c-0.1,0-0.2,0-0.2,0c-0.1-0.1-0.1-0.2-0.2-0.3C98.4,389,98.3,389.1,98.3,389.1z"/>
	<path d="M152.4,377.5c0.3,0.2,0.6,0.4,0.8,0.7l0.1-0.1C153.1,377.9,152.8,377.7,152.4,377.5L152.4,377.5z"/>
	<path d="M174.3,204c0,0.5,0,1.1,0,1.6c-2-0.3-4-0.1-6,0.5c-1.9,0.6-3.9,1-5.6,1.3c-1.6,1.7-1,3.4-0.8,4.9c-1.6,0.5-1.6-1-2.4-1.5
		c-1.7,0.6-2.8,2.3-4.3,3.3c-0.6-0.5-0.4-1,0-1.3c0.9-0.8,1.8-1.6,2.7-2.3c1-0.8,2.1-1.5,2.7-2.8c0.3-0.6,1.2-1.2,1.9-1.4
		c2.7-0.9,5.5-1.8,8.4-1.4C172.1,205,173.3,204.9,174.3,204z"/>
	<path d="M75.8,224.5c-1.9,1.6-3.7,0.8-5.5,0.5c-3.1-0.7-4.9-2-7-4.7c0.1-0.7,0.5-1.1,1.2-0.7c0.5,0.3,1,0.7,1.4,1.1
		c2.4,2.1,5.2,3.3,8.5,3.6C74.8,224.3,75.3,224.4,75.8,224.5z"/>
	<path d="M59.3,152.8c-1.7-1.1-2.2-2.8-2.3-4.6c0-3.3,0.2-6.7,0.4-10c0-0.2,0.4-0.5,0.8-0.9c0.2,0.6,0.4,1,0.4,1.4
		c0,1.8,0.1,3.6,0,5.4c0,2.5-0.2,5,0.6,7.5C59.5,151.9,59.3,152.5,59.3,152.8L59.3,152.8z"/>
	<path d="M62.6,213.9c-1.2,0.8-2.2,0.4-3.2,0c-1.4-0.5-2.5-1.5-3.3-2.7c-1.2-1.8-1.1-3.3,0.5-5.5c0.7,0.1,0.6,0.7,0.6,1
		c-0.2,2.4,1.1,4.1,3,5.4C60.9,212.8,61.7,213.3,62.6,213.9z"/>
	<path d="M93,110.8c-2.9,0.2-6-0.7-8.4,1.2c-1.1-0.4-1.3-1.1-0.7-1.7c2.2-2.3,6.7-2.3,9,0C93,110.4,92.9,110.5,93,110.8z"/>
	<path d="M101.3,139.8c-0.5-2.1-0.3-4.1,0-6.1c1.5,0.5,1.2,1.7,1.2,2.7C102.6,137.6,102.9,138.9,101.3,139.8z"/>
	<path d="M61.9,157.6c-1.9-1.7-1.9-1.7-1.2-3.2C61.8,155.5,61.8,155.5,61.9,157.6z"/>
	<path d="M77.9,225c2.1-0.1,3.4-0.2,4.6,0.8C80.8,226.7,80.8,226.7,77.9,225z"/>
	<path d="M83.7,156.8c-0.5,1.6-0.5,1.6-2.7,2.3C81.8,157.6,81.8,157.6,83.7,156.8z"/>
	<path d="M156.6,225.3c1-0.5,1.9-0.7,2.9,0C158.1,226.5,158.1,226.5,156.6,225.3z"/>
	<path d="M84.3,225.4c1.2-0.4,2.1-0.4,3,0.8C86.2,226.3,85.1,226.6,84.3,225.4z"/>
	<path d="M94.2,227.7c-1.1,0.3-1.8-0.1-2.5-0.8C93.1,226.3,93.1,226.3,94.2,227.7z"/>
	<path d="M90.9,145c0.4,1,0.7,2-0.6,2.7C89.5,146.5,89.7,145.6,90.9,145z"/>
	<path d="M73.8,125.7c0.1-0.7,0.2-1.5,0.3-2.4C75.2,124.3,75.2,124.3,73.8,125.7z"/>
	<path d="M92.2,138.3c-0.7,1.3-1,2-1.5,3C90.4,139.2,90.4,139.2,92.2,138.3z"/>
	<path d="M101.8,130.3c0,0.1-0.3,0.5-0.4,0.5c-0.3-0.1-0.7-0.3-0.7-0.5c0-0.4,0.2-0.8,0.4-1.2c0,0,0.3,0,0.3,0
		C101.6,129.5,101.8,129.9,101.8,130.3z"/>
	<path d="M68.8,197.7c-0.6-0.1-1.2-0.3-1.9-0.5C67.7,195.9,68.3,196.9,68.8,197.7z"/>
	<path d="M70.7,215.4c0.1,0.2,0.3,0.3,0.4,0.5c-0.3,0.1-0.5,0.2-0.8,0.3c-0.1-0.2-0.2-0.4-0.2-0.5C70.2,215.5,70.5,215.5,70.7,215.4
		z"/>
	<path d="M128.4,233.2c0.3-0.1,0.6-0.3,0.9-0.4c0.1,0,0.3,0.2,0.5,0.3c-0.1,0.2-0.2,0.4-0.4,0.4c-0.3,0.1-0.6,0-0.9,0
		C128.4,233.4,128.4,233.3,128.4,233.2z"/>
	<path d="M167.5,220.9c0.3,0.1,0.6,0.2,0.6,0.3c0,0.3-0.2,0.5-0.3,0.8c-0.2-0.1-0.5-0.2-0.5-0.3
		C167.3,221.5,167.5,221.2,167.5,220.9z"/>
	<path d="M116.7,233.1c0.1,0.1,0.3,0.3,0.4,0.4c-0.2,0.2-0.4,0.3-0.6,0.5c-0.1-0.2-0.3-0.4-0.3-0.6
		C116.2,233.3,116.6,233.2,116.7,233.1z"/>
	<path d="M149.6,227.1c-0.2-0.2-0.4-0.5-0.4-0.5c0.2-0.3,0.5-0.5,0.7-0.7c0.1,0.2,0.3,0.4,0.3,0.5
		C150.1,226.6,149.9,226.8,149.6,227.1z"/>
	<path d="M66.3,214.6c-0.2,0.1-0.4,0.2-0.6,0.2c-0.1,0-0.2-0.1-0.2-0.2c0.2-0.1,0.4-0.2,0.6-0.2C66.2,214.4,66.2,214.5,66.3,214.6z"
		/>
	<path d="M123.3,233.4c-0.1,0.1-0.3,0.3-0.4,0.3c-0.1,0-0.3-0.2-0.4-0.3c0.1-0.1,0.2-0.2,0.2-0.2
		C122.9,233.2,123.1,233.3,123.3,233.4z"/>
	<polygon points="59.3,152.9 59.5,153 59.3,152.8 	"/>
	<path d="M98.2,228.2c0,0.1-0.1,0.2-0.1,0.2c-0.1-0.1-0.2-0.1-0.3-0.2c0.1-0.1,0.1-0.2,0.2-0.2C98.1,228,98.2,228.1,98.2,228.2z"/>
	<path d="M91.7,441.4c-1.5-3.7-0.4-6.8,0.3-9.8c0.3-1.4,0.2-3.1,1.6-4.2c0.3,0.3,0.5,0.5,0.5,0.6C93.4,432.3,92.6,436.6,91.7,441.4z
		"/>
	<path d="M111,432.2c-0.5-1.5-0.8-2.8-1.4-4.1c-0.5-1.2-1.3-2.3-2-3.4c-0.7-1.2-1.7-2.2-2.5-3.8c1.7,0.4,2.2,1.4,2.8,2.2
		c1.5,1.9,2.8,3.9,3.3,6.3C111.5,430.2,111.8,431.1,111,432.2z"/>
	<path d="M114.6,466.2c0.5,3.4,0.4,6.8,0,10.2C114.2,473,114.1,469.6,114.6,466.2z"/>
	<path d="M114.5,456.2c-0.1-0.7-0.2-1.2-0.2-1.7c0-0.2,0.4-0.5,0.6-0.7c0.2,0.2,0.5,0.4,0.6,0.6
		C115.6,455.1,115.5,455.7,114.5,456.2z"/>
	<path d="M90.2,483.1c0.8,1,0.8,1,0.2,2.4C89.7,484.4,89.7,484.4,90.2,483.1z"/>
	<path d="M123.2,407.5c-0.3-1-0.6-1.9-0.8-2.8c0.4-0.1,0.8-0.2,0.8-0.1c0.3,0.7,0.6,1.4,0.8,2.2C124,406.9,123.5,407.2,123.2,407.5z
		"/>
	<path d="M114.7,462.3c-0.9-1.3-0.8-2.3-0.2-3.7C115.4,459.9,115.2,461,114.7,462.3z"/>
	<path d="M89.9,458.4c-0.1-1-0.1-1.9-0.2-2.9c0.1,0,0.2,0,0.4,0c0.1,1,0.1,1.9,0.2,2.9C90.2,458.4,90.1,458.4,89.9,458.4z"/>
	<path d="M90.5,464.4c0-0.3-0.1-0.7-0.1-1c0-0.1,0.2-0.3,0.2-0.3c0.2,0.1,0.4,0.2,0.4,0.3c0,0.3,0,0.7-0.1,1
		C90.8,464.4,90.7,464.4,90.5,464.4z"/>
	<path d="M103.7,417.6c0-0.2-0.1-0.3-0.1-0.4c0,0,0.1-0.1,0.2-0.1C103.8,417.2,103.8,417.3,103.7,417.6z"/>
	<path d="M155.7,402.9c0.5,2.5,0.3,4.4-0.9,7.6c-0.6,0.1-0.8-0.3-0.9-0.8c-0.2-2.2,0.4-4.2,0.9-6.3
		C154.9,403.1,155.4,403,155.7,402.9z"/>
	<path d="M143.5,426.7c1.9,0.7,2.5,2.1,2.3,4.5C144.4,429.9,144.4,429.9,143.5,426.7z"/>
	<path d="M151.6,453.8c-1.8-1.5-1.1-3.3-1.2-4.9c0.4,0,0.8-0.1,0.8-0.1C152.2,450.3,152.1,451.9,151.6,453.8z"/>
	<path d="M145.6,514.7c-0.2-1.8-0.5-3.7,1-5.6C147.1,511.4,146.9,513.1,145.6,514.7z"/>
	<path d="M146.4,505.4c-0.3-1.9-0.2-3,0.7-4.4C147.6,502.6,147.6,503.7,146.4,505.4z"/>
	<path d="M148.5,434.9c-1.1-0.7-1.7-1.6-1.6-3.1c0.5,0.2,0.8,0.3,1,0.5C148.3,433.1,149,433.9,148.5,434.9z"/>
	<path d="M152.3,458.8c-0.9-0.1-1-0.6-0.9-1.1c0.1-0.3,0.4-0.5,0.6-0.7c0.2,0.2,0.6,0.4,0.6,0.7C152.6,458,152.4,458.4,152.3,458.8z
		"/>
	<path d="M150.9,443c-0.1-0.3-0.3-0.5-0.3-0.8c0-0.1,0.4-0.3,0.5-0.3c0.2,0.2,0.3,0.5,0.5,0.7C151.3,442.8,151.2,442.9,150.9,443z"
		/>
	<path d="M150.6,437.9c-0.3,0.2-0.5,0.4-0.7,0.5c-0.1-0.3-0.3-0.6-0.3-0.9c0-0.2,0.3-0.4,0.5-0.6
		C150.2,437.3,150.4,437.6,150.6,437.9z"/>
	<path d="M202.4,572.9c-0.5,0.3-1,0.8-1.5,0.8c-2.9-0.4-5.1,0.7-7.1,2.6c-0.3,0.3-0.8,0.5-1.2,0.7c-0.4,0.2-1-0.5-0.9-0.9
		c0.1-0.4,0.2-1,0.5-1.3c1.6-1.9,3.6-3.1,6-3.6C199.9,570.9,200.6,571.2,202.4,572.9z"/>
	<path d="M176.9,559.3c-1.1-0.8-1.3-1.2-0.9-1.8c1.6-1.9,3.7-2.9,6.2-2.9c0.5,0,0.9,0.6,1.4,0.9c-0.3,0.5-0.4,0.9-0.7,1
		C181,557.4,179,558.3,176.9,559.3z"/>
	<path d="M177.7,201.9c0.3,0,0.6,0,0.9,0C178.3,202.2,178,202.3,177.7,201.9z"/>
	<path d="M581.6,307.8c-0.2-1-0.5-1.8-0.6-2.6c-2-13.9-3.9-27.8-5.9-41.6c-0.1-0.6,0-1.2,0.2-1.8c0.6,1.7,0.9,3.5,1.1,5.3
		c0.3,2.3,0.5,4.5,1,6.7c1.8,8.3,2.9,16.8,4.2,25.2c0.3,2.4,0.7,4.7,1.1,7.1C582.7,306.7,582.7,307.3,581.6,307.8z"/>
	<path d="M518.6,256.8c0,1,0,1.5-0.1,1.9c-0.3,0.8-0.8,1.5-1.1,2.2c-2.5,4.9-4.9,9.8-7.4,14.7c-0.2,0.4-0.5,0.7-0.8,1.1
		c-1-0.3-0.7-1-0.5-1.5c0.7-1.7,1.4-3.3,2.2-4.9c2.1-3.9,4.2-7.8,6.4-11.6C517.5,258.2,517.9,257.7,518.6,256.8z"/>
	<path d="M550.2,327c1.5,8.2,2.9,16,3.1,24.7c-0.7-1-1-1.3-1.1-1.6c-0.2-6.5-1.4-12.8-2.4-19.2C549.7,329.8,549.5,328.7,550.2,327z"
		/>
	<path d="M558.3,350.9c0.3-0.2,0.6-0.3,1-0.5c0.3,0.2,0.6,0.3,0.8,0.6c3.2,4.6,6.3,9.1,9.5,13.7c0.2,0.3,0.2,0.9,0.2,1.3l0.1-0.1
		c-2.7-2.3-4.5-5.3-6.6-8.1c-1.7-2.3-3.3-4.7-5-7.1L558.3,350.9z"/>
	<path d="M492.5,390.7c-1.3-4.1-1.3-7.7-1.3-11.3c0-3.9,0-7.8,0.5-11.8c0.1,0.5,0.3,1,0.3,1.5c0,2.6-0.1,5.3,0,7.9
		c0.1,2.6,0.3,5.2,0.4,7.9C492.5,386.7,492.5,388.5,492.5,390.7z"/>
	<path d="M563.1,271.5c-0.1-0.5-0.3-1.1-0.3-1.6c0-2.8-0.3-5.7,0.3-8.6c0.4,0.3,0.7,0.3,0.7,0.5c0.4,3.2,0.5,6.4,0,9.6
		C563.7,271.5,563.4,271.5,563.1,271.5z"/>
	<path d="M528,258c-0.3,3.3-0.7,6.5-1.2,9.6c0,0.3-0.4,0.5-0.6,0.9c-0.6-2.7-0.1-8,0.9-10.3C527.2,258.1,527.5,258.1,528,258z"/>
	<path d="M499.9,266.2c-0.2-2.5,0.7-4.7,1.5-6.9c0.4-1.2,1.1-2.4,1.6-3.5c0.8,0,0.9,0.5,0.7,1c-1.1,3-2.2,6-3.4,9
		C500.4,266,500.1,266,499.9,266.2C499.9,266.1,499.9,266.2,499.9,266.2z"/>
	<path d="M572.9,258.3c-0.4,0.8-1.1,1.2-2,1.3c-1.8,0-3.5,0-5.3,0c-0.2-1,0.5-1,1-1c2.1-0.1,4.3-0.1,6.4-0.1L572.9,258.3z"/>
	<path d="M543.6,269c-0.5-2.5-1.3-4.9-0.8-8c0.6,0.6,1,0.8,1,1C544.2,264.4,544,266.7,543.6,269z"/>
	<path d="M558.8,253.5c1.3,2.1,1.1,3.7,0.8,5.3c0,0.2-0.5,0.4-0.9,0.6C557.9,257.6,558.1,256,558.8,253.5z"/>
	<path d="M502.1,362.3c0.9,0.8,1.9,1.7,2.8,2.5c0.7,0.7,1.4,1.4,1.6,2.6c-1.4-1.4-2.8-2.8-4.1-4.2
		C502.2,363,502.2,362.6,502.1,362.3L502.1,362.3z"/>
	<path d="M545.8,253.8c0.6,2.4,0.6,2.4,0.1,4.3C544.5,257,544.4,256.2,545.8,253.8z"/>
	<path d="M549,295.8c-0.1,2.6-0.1,5.2-0.2,7.8c-0.1,0-0.2,0-0.3,0c0-2.2,0-4.4,0-6.6C548.5,296.7,548.9,296.3,549,295.8L549,295.8z"
		/>
	<path d="M550.5,324.7c0.1-2.4,0.1-4.7,0.2-7.1c0.1,0,0.2,0,0.3,0c0,1.9,0,3.8,0,5.7C551,323.8,550.7,324.2,550.5,324.7
		C550.5,324.6,550.5,324.7,550.5,324.7z"/>
	<path d="M591.6,353.7c0.2,0.3,0.5,0.6,0.5,0.9c0.1,1.8,0.2,3.5,0.3,5.2c-0.2,0.1-0.3,0.2-0.3,0.2c-0.1-0.1-0.1-0.2-0.1-0.3
		C591.8,357.7,591.7,355.6,591.6,353.7L591.6,353.7z"/>
	<path d="M566.9,257.6c-1.7-1.5-1.8-1.9-0.9-3.8C566.7,255.1,567.1,256.1,566.9,257.6z"/>
	<path d="M526.6,255.4c-1.7-0.1-3.3-0.2-5-0.2c0-0.1,0-0.2,0-0.4c1.4,0,2.8,0,4.2,0C526.1,254.8,526.3,255.3,526.6,255.4
		L526.6,255.4z"/>
	<path d="M509.4,258.7c0.1-1.2,0.1-2.1,0.2-3.3c0.5,0.3,0.9,0.4,1,0.6C510.7,257.1,510.7,257.1,509.4,258.7z"/>
	<path d="M549.3,310.2c0-1,0-2.1,0-3.1c0.1,0,0.1,0,0.2,0c0,0.3,0.1,0.6,0.1,0.8c0,0.8,0,1.6,0,2.3
		C549.5,310.2,549.4,310.2,549.3,310.2z"/>
	<path d="M501.3,379.7c0.9,1,1.6,2.1,1.4,3.6l0.1-0.1C501.9,382.2,501.3,381,501.3,379.7L501.3,379.7z"/>
	<path d="M515.9,254.2c0.9,0,1.8,0,2.8,0C517.7,254.9,516.8,254.4,515.9,254.2z"/>
	<path d="M502.1,362.2c-1.1-0.3-1.7-1.2-2.2-2.5C501.3,360.4,501.9,361.1,502.1,362.2L502.1,362.2z"/>
	<path d="M504.2,386.2c0.9,1.1,1.5,2.2,1.3,3.7l0.1-0.1C504.9,388.6,504.2,387.5,504.2,386.2L504.2,386.2z"/>
	<path d="M497.6,371.1c1.2,0.9,1.6,2.1,1.5,3.5l0.1-0.1C498.2,373.6,497.9,372.3,497.6,371.1L497.6,371.1z"/>
	<path d="M565,384.6c-1.4-0.5-2-1.5-2.2-2.9l-0.1,0.1C564.1,382.6,564.5,383.1,565,384.6L565,384.6z"/>
	<path d="M550,315c0-0.8,0-1.6,0-2.4c0.1,0,0.1,0,0.2,0c0.1,0.8,0.1,1.7,0.2,2.5C550.2,315.1,550.1,315.1,550,315z"/>
	<path d="M495.8,307.3c0-0.8,0-1.6,0-2.4c0.1,0,0.2,0,0.3,0c0,0.8,0.1,1.6,0.1,2.4C496,307.3,495.9,307.3,495.8,307.3z"/>
	<path d="M511.6,253.5c0.7,0,1.4,0,2.1,0c0,0.1,0,0.2,0,0.3c-0.7,0-1.4-0.1-2.1-0.1C511.6,253.6,511.6,253.6,511.6,253.5z"/>
	<path d="M498.8,274.1c0-0.7,0-1.4,0-2.1c0,0,0.1,0,0.1,0C498.9,272.7,498.9,273.4,498.8,274.1C498.9,274.1,498.8,274.1,498.8,274.1
		z"/>
	<path d="M525.8,250.7c0,0.9,0,1.8,0,3.2C524.8,252.6,525,251.7,525.8,250.7z"/>
	<path d="M526.6,255.5c1-0.1,2.1-0.5,2.8,0.7l0.1-0.1C528.5,255.9,527.4,256.3,526.6,255.5L526.6,255.5z"/>
	<path d="M529.4,256.2c0.7,0,1.3,0,2,0.1c0.4,0.1,0.7,0.4,1.1,0.6l0.1-0.1C531.5,256.6,530.5,256.4,529.4,256.2L529.4,256.2z"/>
	<path d="M499.9,266.1c0,0.7-0.1,1.5-0.1,2.6C499.2,267.6,499.1,266.8,499.9,266.1L499.9,266.1z"/>
	<path d="M561.3,379.6c0.9,0.5,1.4,1.1,1.4,2.2l0.1-0.1C561.7,381.4,561.2,380.7,561.3,379.6L561.3,379.6z"/>
	<path d="M496.4,366.5c-0.8-0.1-0.8-0.7-0.5-1.8C496.2,365.6,496.2,366.1,496.4,366.5L496.4,366.5z"/>
	<path d="M500.7,378.1c-1-0.4-0.7-1.3-0.7-2.1l-0.1,0.1C500.8,376.5,500.6,377.4,500.7,378.1L500.7,378.1z"/>
	<path d="M591.7,353.6c-0.5-0.4-0.7-0.9-0.1-1.9C591.6,352.7,591.6,353.2,591.7,353.6L591.7,353.6z"/>
	<path d="M497.1,368.7c-1-0.5-0.8-1.4-0.7-2.2l-0.1,0.1C497.2,367.1,497,368,497.1,368.7L497.1,368.7z"/>
	<path d="M497,368.8c0.9,0.6,0.8,1.4,0.6,2.3l0.1-0.1C497,370.4,497.1,369.5,497,368.8L497,368.8z"/>
	<path d="M499.2,374.6c0.8,0.2,0.7,0.9,0.7,1.5l0.1-0.1C499.1,375.8,499.3,375.1,499.2,374.6L499.2,374.6z"/>
	<path d="M560.6,378.9c-0.7-0.3-0.7-0.9-0.6-1.5c0,0-0.1,0.1-0.1,0.1C560.1,378,560.3,378.4,560.6,378.9
		C560.5,378.9,560.6,378.9,560.6,378.9z"/>
	<path d="M501.4,379.6c-0.8-0.2-0.7-0.9-0.7-1.5l-0.1,0.1C501.4,378.4,501.3,379.1,501.4,379.6L501.4,379.6z"/>
	<path d="M502.8,383.2c0.8,0.2,0.7,0.8,0.8,1.4l0.1-0.1C502.8,384.4,502.9,383.7,502.8,383.2L502.8,383.2z"/>
	<path d="M504.3,386.1c-0.9-0.2-0.7-0.9-0.7-1.5l-0.1,0.1C504.2,384.9,504.2,385.6,504.3,386.1L504.3,386.1z"/>
	<path d="M570.7,366.7c0.2,0.5,0.4,1,0.6,1.5c0,0,0.1-0.1,0.1-0.1C571.2,367.5,571,367,570.7,366.7
		C570.8,366.6,570.7,366.7,570.7,366.7z"/>
	<path d="M559.1,376.8c0.3,0.2,0.5,0.4,0.8,0.7l0.1-0.1C559.5,377.4,559.3,377.2,559.1,376.8L559.1,376.8z"/>
	<path d="M559.2,376.7c-0.1-0.1-0.2-0.1-0.3-0.2C559,376.6,559.1,376.7,559.2,376.7L559.2,376.7z"/>
	<polygon points="550.5,324.6 550.4,324.8 550.5,324.7 	"/>
	<path d="M557.7,374.6c0.1,0.1,0.2,0.1,0.3,0.2C557.9,374.7,557.9,374.6,557.7,374.6L557.7,374.6z"/>
	<path d="M557.8,374.5c-0.1,0-0.2-0.1-0.3-0.1C557.6,374.5,557.6,374.5,557.8,374.5L557.8,374.5z"/>
	<path d="M573.6,371c0.1,0,0.2,0.1,0.3,0.1C573.8,371.1,573.7,371,573.6,371L573.6,371z"/>
	<path d="M573.7,370.9c-0.1-0.1-0.2-0.1-0.3-0.2C573.4,370.9,573.5,370.9,573.7,370.9L573.7,370.9z"/>
	<path d="M569.9,366c0.3,0.2,0.5,0.5,0.8,0.7l0.1-0.1C570.5,366.3,570.2,366.1,569.9,366L569.9,366z"/>
	<path d="M572.1,368.8C572.4,369.1,572.3,368.9,572.1,368.8L572.1,368.8z"/>
	<path d="M572.2,368.7c-0.3-0.2-0.6-0.5-0.8-0.7l-0.1,0.1C571.6,368.4,571.9,368.6,572.2,368.7L572.2,368.7z"/>
	<path d="M505.6,389.8c0.2,0,0.3,0.1,0.5,0.1c-0.1,0-0.1,0-0.2,0C505.8,389.9,505.7,389.8,505.6,389.8L505.6,389.8z"/>
	<path d="M564.9,384.7c0.2,0.1,0.3,0.1,0.5,0.2c-0.1,0.1-0.2,0.2-0.3,0.3C565.1,385,565,384.8,564.9,384.7L564.9,384.7z"/>
	<path d="M561.4,379.5c-0.6,0.1-0.7-0.2-0.8-0.7l-0.1,0.1C561,378.9,561.2,379.2,561.4,379.5L561.4,379.5z"/>
	<path d="M549.1,295.9c0.1-0.1,0.1-0.3,0.2-0.4c0,0.1,0,0.1,0,0.2C549.2,295.8,549.1,295.8,549.1,295.9
		C549,295.8,549.1,295.9,549.1,295.9z"/>
	<path d="M546.9,152.1c-2.7,2.5-5.6,2.9-8.8,2.1c-0.9-0.2-1.9-0.5-1.9-2c0.8,0,1.6-0.2,2.4-0.1c2.5,0.3,4.9,0,7.3-1
		c2.5-1,5.1-0.8,7.7-0.2c0.3,0.1,0.5,0.4,0.9,0.7C552.1,153,549.7,153,546.9,152.1z"/>
	<path d="M503.6,164.4c-1.3,2.3-3.5,3.2-6,3.3c-2.1,0.2-4.3,0.1-6.2-1.7c0.5-0.3,0.8-0.6,1.2-0.8c0.1-0.1,0.2-0.1,0.3-0.1
		c3.6-0.2,7.1-0.4,10.7-0.6L503.6,164.4z"/>
	<path d="M546.6,186.3c-1.2,3-2.8,5.3-4,7.9c-1.1,2.6-1.5,5.4-2.1,8.8c-0.6-0.9-0.9-1.1-0.9-1.4c-0.1-3.6,1.1-6.9,2.6-10
		C543.3,189.2,544.4,187.8,546.6,186.3z"/>
	<path d="M562.2,220.1c-0.5-6-0.4-11.8-0.5-17.7c0-0.1,0.1-0.2,0.3-0.4c0.2,0.2,0.7,0.3,0.7,0.5c0.3,1.2,0.6,2.3,0.6,3.5
		c0.1,4.4,0,8.9-0.7,13.3C562.6,219.5,562.4,219.7,562.2,220.1z"/>
	<path d="M515.7,177.8c0.4,0.4,0.7,0.9,1.1,1.3c0.9,1.3,2,2.4,3.4,3.1c1.5,0.8,2.4,2.2,3.9,3.3c-0.6,0.2-1,0.5-1.2,0.4
		c-0.5-0.2-1.1-0.5-1.5-0.9c-1.1-0.8-2.1-1.6-3.1-2.3c-1.3-0.9-2.3-2-3-3.5c-0.2-0.4-0.1-0.9-0.1-1.3
		C515.3,177.9,515.5,177.8,515.7,177.8z"/>
	<path d="M499.9,110.8c-2.5,0.1-4.9,0.3-7.3,0.3c-0.4,0-0.8-0.4-1.2-0.6c1.3-1.6,2.6-2,5.1-1.8C497.9,108.8,499.3,109,499.9,110.8z"
		/>
	<path d="M578.5,189.5c-0.4-0.1-0.7-0.1-0.8-0.2c-0.4-1.1-0.7-2.2-1-3.3c-0.2-1-0.6-2,0.2-3.2C578.5,184.8,578.7,187.1,578.5,189.5z
		"/>
	<path d="M608.8,163.3c-0.8,0.1-1.3,0.3-1.9,0.3c-1.5,0-3.1,0-5.1,0c2.2-1.8,4.3-1.6,6.4-1.3C608.4,162.4,608.5,162.9,608.8,163.3z"
		/>
	<path d="M513.4,193.5c3,0.6,3,0.6,4.7,3.8C515.8,197.1,514.9,196.4,513.4,193.5z"/>
	<path d="M548.6,163.4c-2.9,0.8-5-0.2-7.9-1.7c1.2-0.1,1.7-0.2,2.2-0.1C544.8,162.2,546.5,162.8,548.6,163.4z"/>
	<path d="M479.4,151.6c-3-0.3-4.2-0.8-6-2.6C474.7,148.8,475.6,149.2,479.4,151.6z"/>
	<path d="M561.5,226.6c0,2.5,1.3,5.1,0.2,7.8c-1.1-1.3-0.6-2.6-0.5-3.9C561.3,229.2,561.4,227.9,561.5,226.6z"/>
	<path d="M558.7,164c-1.2,0-2.2,0-3.4,0C556.6,163,557.1,163,558.7,164z"/>
	<path d="M551.2,180.9c-0.4,1.3-1.3,2.1-2.4,2.7c-1-0.8-0.5-1.5,0.1-2.1C549.4,180.9,550,179.9,551.2,180.9z"/>
	<path d="M555.8,151.4c1.7-1,2.7-1,4-0.4C558.8,152.3,557.7,152.1,555.8,151.4z"/>
	<path d="M539.6,206.5c-0.3,1.2-0.6,2.4-1.1,4.4C537.9,208.7,537.9,207.3,539.6,206.5z"/>
	<path d="M546.9,144.3c-1.3,0.9-1.3,0.9-2.8,0.7c0.3-0.3,0.5-0.7,0.7-0.7C545.5,144.2,546.2,144.3,546.9,144.3z"/>
	<path d="M566.4,150c-0.9,1.6-1.7,1.3-2.7,0.8c0-0.2,0.1-0.6,0.1-0.6C564.6,150.1,565.3,150.1,566.4,150z"/>
	<path d="M625.1,156.6c1.1-0.1,1.8-0.2,2.6-0.2c0.1,0,0.4,0.3,0.4,0.4c0,0.2-0.2,0.5-0.3,0.6C626.9,157.9,626,157.8,625.1,156.6z"/>
	<path d="M535.6,146.6c0.6-0.1,1-0.2,1.5-0.3c0.4,0,0.9,0.1,1.4,0.1c-0.6,0.9-1.3,1.2-2.1,1C536.1,147.4,536,147,535.6,146.6z"/>
	<path d="M512.7,192.2c-1.5-0.3-1.9-1.2-2.3-2.1c0.3-0.5,0.7-0.6,1.1-0.2C512.1,190.4,512.6,191.1,512.7,192.2z"/>
	<path d="M505.7,120.3c-1.3-0.1-2.2-0.7-2.9-1.9C504.5,118.6,504.5,118.6,505.7,120.3L505.7,120.3z"/>
	<path d="M511,161.7c-0.1,0.3-0.2,0.4-0.3,0.5c-0.7,0.5-1.5,0.5-1.9,0c-0.1-0.1-0.1-0.2,0-0.3c0.1-0.5,0.8-0.7,1.7-0.4
		C510.7,161.5,510.8,161.6,511,161.7z"/>
	<path d="M593.4,163.4c-0.6,0.4-0.9,0.7-1.3,0.8c-0.2,0-0.5-0.3-0.7-0.4c0.2-0.2,0.4-0.6,0.7-0.6
		C592.4,163.1,592.7,163.2,593.4,163.4z"/>
	<path d="M481.5,151.3c0.3,0.3,0.6,0.6,0.7,0.8c0,0.2-0.4,0.6-0.6,0.6c-0.3-0.1-0.6-0.4-0.7-0.7
		C480.8,151.9,481.2,151.6,481.5,151.3z"/>
	<path d="M507.2,121c0.6,0.2,1.2,0.4,2.5,0.9C508.1,121.9,508.1,121.9,507.2,121L507.2,121z"/>
	<path d="M522.2,198.3c-0.2,0.2-0.3,0.4-0.5,0.5c-0.2-0.2-0.4-0.5-0.6-0.7c0,0,0.2-0.2,0.2-0.2C521.6,198,521.9,198.2,522.2,198.3z"
		/>
	<path d="M562.2,191.3c0-0.6,0-1.3,0-1.9c0.1,0,0.2,0,0.4,0c0,0.6,0,1.3,0,1.9C562.5,191.3,562.3,191.3,562.2,191.3z"/>
	<path d="M576.5,180c-0.6-1.2-0.8-1.6-1-2c0-0.1,0.2-0.3,0.3-0.5c0.2,0.1,0.5,0.2,0.5,0.4C576.4,178.3,576.4,178.8,576.5,180z"/>
	<path d="M598.6,163.6c-0.6,0-1.3,0-2,0c0-0.8,0.6-0.7,0.9-0.8c0.3,0,0.7,0.1,1,0.2C598.5,163.2,598.6,163.4,598.6,163.6z"/>
	<path d="M564.4,163c0.4,0,0.9,0.1,1.3,0.1c0.1,0,0.1,0.1,0.2,0.3c-0.4,0.1-0.7,0.2-1,0.2c-0.2,0-0.4-0.1-0.6-0.2
		C564.3,163.3,564.3,163.1,564.4,163z"/>
	<path d="M618.8,157.2c0.1,0.3,0.2,0.6,0.1,0.7c-0.2,0.2-0.5,0.3-0.8,0.5c0-0.2-0.2-0.4-0.1-0.5
		C618.2,157.6,618.5,157.4,618.8,157.2z"/>
	<path d="M570.9,162.8c-0.3,0-0.6,0.1-0.9,0.1c-0.1,0-0.2-0.1-0.2-0.2c0.4-0.1,0.7-0.1,1.1-0.2C570.8,162.5,570.8,162.7,570.9,162.8
		z"/>
	<path d="M503.7,164.5c-0.4-0.5-0.1-0.9,0.4-1c0.2-0.1,0.4,0.1,0.6,0.2c-0.1,0.2-0.2,0.5-0.4,0.7c-0.2,0.1-0.5,0-0.7,0L503.7,164.5z
		"/>
	<path d="M507.3,120.9c-0.5-0.2-1.1-0.4-1.6-0.6c0,0-0.1,0.1-0.1,0.1C506.1,120.6,506.7,120.8,507.3,120.9L507.3,120.9z"/>
	<polygon points="561.7,196.3 561.6,196 561.8,196.1 	"/>
	<path d="M500,126.9c0.6,0,1.2,0,1.4,0.7l0.1-0.1C500.8,127.6,500.2,127.7,500,126.9L500,126.9z"/>
	<path d="M571,151c0.2-0.1,0.4-0.2,0.6-0.2c0.1,0,0.2,0.1,0.2,0.2c-0.2,0.1-0.4,0.2-0.6,0.2C571.1,151.3,571,151.1,571,151z"/>
	<path d="M468.2,143.4c0.2,0.1,0.3,0.2,0.5,0.3C468.2,144.2,468.2,143.9,468.2,143.4L468.2,143.4z"/>
	<path d="M501.4,127.6c0.1,0.1,0.2,0.2,0.3,0.3c-0.1,0-0.2-0.1-0.2-0.1C501.4,127.7,501.5,127.6,501.4,127.6L501.4,127.6z"/>
	<polygon points="500,126.8 499.8,126.7 500,126.9 	"/>
	<path d="M500.3,427.4c0.8,0,1.1,0.4,1,0.9c-0.2,1.4-0.6,2.8-0.9,4.2c-0.5,2.8-1,5.6-1.6,8.4c-0.8-0.9-1.1-2.1-1-3.2
		C498.3,434.2,498.9,430.7,500.3,427.4z"/>
	<path d="M513,420.9c2.1,1.8,3.6,4.1,4.7,6.6c0.6,1.4,1.3,2.9,0.6,4.5c-0.3-0.1-0.6-0.2-0.7-0.3c-0.4-3.2-2-5.9-3.9-8.4
		c-0.5-0.6-0.9-1.3-1.4-2C512.6,421.2,512.8,421.1,513,420.9z"/>
	<path d="M504.8,541.1c-0.2-0.2-0.5-0.4-0.5-0.6c-0.1-0.9-0.3-1.9-0.3-2.8c0.1-2.4-0.1-4.7,0.5-7.9c1,4,1.6,7.3,1,10.7
		C505.5,540.7,505,540.9,504.8,541.1z"/>
	<path d="M521.1,466.5c0.6,0.6,0.8,0.8,0.8,1c0,2.6,0,5.2,0,7.9c0,0.1-0.3,0.3-0.5,0.5c-0.1-0.2-0.3-0.3-0.3-0.5
		C521.1,472.5,521.1,469.8,521.1,466.5z"/>
	<path d="M529.7,404.4c1.2,0.7,1.4,1.7,1,3.1C529.7,406.6,529.3,405.7,529.7,404.4z"/>
	<path d="M521,458.7c1.6,1.3,1.1,2.1,0.9,3c-0.3-0.1-0.7-0.1-0.7-0.2C521.1,460.7,521.1,460,521,458.7z"/>
	<path d="M497.1,457.5c-1.2-1.2-0.6-2.7-0.3-4.1C496.9,454.8,497,456.2,497.1,457.5L497.1,457.5z"/>
	<path d="M497.5,482.9c0.5,1,0.6,1.7,0,2.6C496.6,484.4,496.6,484.4,497.5,482.9z"/>
	<path d="M522.1,453.8c0.1,0.2,0.3,0.4,0.3,0.6c-0.1,0.5-0.3,1-0.4,1.5c0,0-0.3,0-0.3,0c-0.5-0.4-0.5-1.2-0.1-1.9
		C521.6,453.8,521.9,453.8,522.1,453.8z"/>
	<path d="M497.4,462.4c0.3,0.5,0.5,0.7,0.5,1c0,0.3-0.1,0.6-0.2,1.3c-0.3-0.5-0.5-0.8-0.5-1C497.1,463.3,497.2,463,497.4,462.4z"/>
	<path d="M497,457.6c0.1,0.2,0.3,0.3,0.4,0.5c0,0.1,0,0.2,0,0.3c-0.1-0.1-0.3-0.1-0.3-0.2C497.1,457.9,497.1,457.7,497,457.6
		L497,457.6z"/>
	<path d="M562,410.6c-1.3-0.4-1.3-1.2-1.2-1.8c0.2-1.7,0.5-3.5,0.8-5.2c0-0.3,0.5-0.4,0.7-0.7c0.3,0.3,0.7,0.6,0.8,1
		c0.1,0.4,0,0.9-0.1,1.4C562.7,407,562.4,408.7,562,410.6z"/>
	<path d="M558,448.2c1.4,3.7,1.4,4.3-0.1,5.4C557.6,451.9,556.7,450.3,558,448.2z"/>
	<path d="M553.4,431.5c-0.3-0.1-0.8-0.1-1-0.4c-1.1-1.2-1.8-2.7-1.8-4.5c1.7,0.9,2.1,1.7,2.7,5L553.4,431.5z"/>
	<path d="M552.5,514.7c-0.4-1.8,0.1-3.4,0.3-5.2c0.6,0.3,0.9,0.3,0.9,0.4C554,511.7,553.7,513.3,552.5,514.7z"/>
	<path d="M553.3,431.6c1.7,0.3,2.3,1.4,2.2,3.2c-1.6-0.8-1.6-2.2-2.1-3.3L553.3,431.6z"/>
	<path d="M553.5,501.4c1.2,1.1,0.7,2.2,0.3,3.9c-0.3-0.8-0.5-1.1-0.5-1.4C553.3,503.1,553.4,502.2,553.5,501.4z"/>
	<path d="M557.7,437.8c-0.3,0.4-0.4,0.6-0.5,0.7c-0.4,0.2-0.9-0.6-0.7-1.3c0-0.1,0.4-0.3,0.5-0.3
		C557.2,437.2,557.4,437.5,557.7,437.8z"/>
	<path d="M558.8,456.6c0.4,0.5,0.8,0.8,0.9,1.2c0.1,0.5-0.5,1.1-0.8,0.9c-0.2-0.2-0.5-0.5-0.5-0.8
		C558.3,457.6,558.5,457.3,558.8,456.6z"/>
	<path d="M552.5,518.9c0,0.5-0.1,1.1-0.1,1.6c-0.1,0-0.2,0-0.3,0c0-0.6,0-1.1,0-1.7C552.3,518.9,552.4,518.9,552.5,518.9z"/>
	<path d="M558.1,442.9c-0.1-0.1-0.4-0.2-0.4-0.4c0-0.2,0.1-0.4,0.2-0.6c0.1,0.1,0.4,0.2,0.4,0.3
		C558.4,442.5,558.2,442.7,558.1,442.9z"/>
	<path d="M599.2,577.2c-0.3-0.4-0.7-0.7-0.7-1c0.1-0.6,0.3-1.2,0.6-1.6c1.5-1.8,3.4-3,5.7-3.4c0.8-0.1,1.7,0,2.5,0.1
		c1.1,0.2,1.8,1,1.6,1.6c-0.4,0.8-1.1,0.8-1.8,0.7c-2.3-0.3-4.2,0.7-5.9,2.1C600.6,576.3,600,576.7,599.2,577.2z"/>
	<path d="M590.8,555.4c-0.4,0.6-0.4,0.7-0.5,0.8c-2,1-4,2-6,3c-0.2,0.1-0.8,0-0.9-0.2c-0.2-0.3-0.3-0.8-0.4-1.3
		c0-0.2,0.2-0.5,0.3-0.6c1.6-1.5,3.4-2.6,5.6-2.6C589.5,554.5,590.1,555.1,590.8,555.4z"/>
	<path d="M635.7,152.9c0.4-0.3,0.6-0.4,0.9-0.6c0.1,0.2,0.3,0.3,0.3,0.5c0,0.2-0.2,0.4-0.3,0.6C636.4,153.3,636.2,153.2,635.7,152.9
		z"/>
</g>
</svg>
