<?xml version="1.0" encoding="utf-8"?>
<!-- Generator: Adobe Illustrator 19.1.0, SVG Export Plug-In . SVG Version: 6.00 Build 0)  -->
<svg version="1.2" baseProfile="tiny" id="Layer_2" xmlns="http://www.w3.org/2000/svg" xmlns:xlink="http://www.w3.org/1999/xlink"
	 x="0px" y="0px" width="900px" height="600px" viewBox="144 97 900 600" xml:space="preserve">
<g>
	<path d="M373.5,593c0.3-0.1,0.6-0.3,1.3-0.6c2.2,6.6,6.2,12.4,9.1,19.2c0.1,0.6-0.3,1.5-0.5,2.4c-0.3,0.2-0.5,0.5-0.7,0.5
		c-3,0.8-6,1.9-8.8,3.3c-4.8,2.4-10.3,2.7-15.7,2.5c-1.4-0.1-2.7-1-4-1.6c-7.4-3.7-15.4-5.5-23.6-6.4c-11.7-1.3-23.2-3.3-34.4-6.7
		c-2.9-0.9-5.9-1.5-9-1.8c-6.7-0.7-13.1-2.9-19.4-5c-4.7-1.6-9.5-3-14.5-3.7c-1.1-0.2-1.6,0.4-2.7,0.7c0.2-6.5,1-12.9,1.6-19.4
		c0.9-1.2,2.4-1.5,3.8-1.7c6.9-1,13.8-1.6,20.7-3.5c0.9,1.4,2.3,1.7,3.8,1.8c6,0.3,11.6,2.2,17.4,3.3c1,0.2,2.1,0.8,3.9-0.5
		c-6.3-0.4-11.3-2.7-16.3-5c-2-4-1.3-8.1-0.3-12.2c0.4-1.8,1.9-2.7,3.8-3c4-0.6,8-1.8,11.9-2.8c0.8-0.2,1.5-0.4,2.3-1.1
		c-1.2-3.6-2.1-7.3-0.8-11.2c0.2,1.6,0.4,3.2,0.6,4.8c0.5-5.3,1.2-10.6,0.8-16c-0.5-6.6-0.1-13.1,0.3-19.7
		c0.5-8.7,0.8-17.5,1.7-26.2c0.9-8.6,0-17.2,0.8-26c-2.7-0.2-5.1-0.3-7.6-0.5c-5.1-0.3-10.1-1.7-15.2-1.8c-3.1-0.1-4.3-1.8-4.5-4.9
		c-0.1-1.8-0.7-4,0-5.4c1.5-3,0.6-6.2,1.7-9.2c0.9-0.7,1.9-1.5,2.9-2.2c-0.2,1.1-0.8,2.2-0.6,3.3c0.6,5.3,0.3,10.6-0.7,16.1
		c2.8-0.2,5.4-0.4,8.1-0.6c0.1-6.3-0.1-12.4,0.6-18.3c-1.8-0.7-3.5,0.3-5.1-1.2c7.7-0.6,14.9-1.2,22.2-0.3
		c-5.3,0.5-10.6,0.3-16.1,1.2c0,6.5,0,12.8,0,19.3c1.6,0.3,3.1,0.6,4.7,0.9c2.4,0.4,4.9,0.7,7.3-0.3c10.2,1.3,20.5,0.7,30.7,1.2
		c2.3,0.1,4.7,0.7,7,0.1c5.3-1.4,10.7-1.9,16.2-2.4c3.1-0.3,6.3-0.4,9.4-1.6c0-1,0-2,0-3.1c0.5,1.1-0.2,2.4,1.1,3.1
		c6.3-0.9,12.6-2.2,19.1-2.8c7.1-0.6,14.1-2.1,21.2-3.4c3.4-0.6,6.9-0.8,10.4-2.2c-1.2-3.4-2.9-6.5-3.6-10
		c-0.8-3.9-1.7-7.8-2.7-11.6c-0.5-1.9-0.4-4-1.3-5.9c-4.8,0.2-9.3,0-14-1.5c-0.3,1.7-1.7,1.5-2.9,1.5c-1.2,0-2.2,0.2-3.4,0.5
		c-2.8,0.8-5.7,1-8.5,2.1c-3.2,1.2-6.7,1-10.1,0.8c-2.9-0.2-5.7,0-8.5,0.4c-4.4,0.7-8.8,1.5-13.2,1c-4.7-0.5-9.3-0.5-13.8,0.6
		c-1.4,0.3-2.9,0.6-4.3,0.9c-3.5,0.9-7.1,1.5-10.7,1.9c-9.4,1.1-18.8,1.6-27.9,4.4c-3.8,1.2-7.2,2.7-9.9,5.6
		c0.8-3.8,3.4-5.9,6.9-6.6c2.2-0.5,4.3-1.2,6.5-2c5.9-2.2,12-3.3,18.3-3.6c1.3-0.1,2.7-0.2,3.9-0.4c0.1-0.5,0.2-0.7,0.1-0.9
		c-3.5-7.1-4-14.9-5.3-22.5c-0.2-1.1-0.2-2.3-0.7-3.3c-1.2-3-0.8-6-0.1-9c1.1-4.4,3.6-7.7,6.7-10.8c3.2-3.1,6.8-5.8,10.8-7.8
		c3.6-1.8,7.7-2.8,11.8-3.4c8-1.1,16-2.2,24.1-1.9c4.4,0.1,8.8-0.6,13.3-1c4-0.3,7.9-0.4,11.9,0c2.8,0.3,5.6,0.3,8.5-0.4
		c4.5-1.1,9.1-0.6,13.6,0c6.9,1,13.8,1.2,20.8,1.5c3.4,0.1,6.8,0.4,10.2-0.1c1.6-0.3,3.1-0.4,5-1.3c0.5-4.8,2.1-9.5,2.1-14.6
		c0-4.9,0.1-9.8,0.6-14.7c0.1-0.9,0.1-1.8,0-2.7c-0.7-5.8-0.3-11.6,0.7-17.3c1-5.6,0.4-11.3,0.6-17c0.1-2.4,0.2-4.9,0.3-7.9
		c2.5,1.8,1.5,4.1,2.2,5.9c1,0.9,2.3,0.7,3.5,0.7c15,0.2,30,0.4,45.1,0.3c7.4,0,14.7-1.5,22-2.8c1.1-0.2,2.2-0.6,3.4-0.1
		c1-3.2,1.8-6.3,2.8-9.3c0.8-2.2,1.2-4.6,3.1-6.3c0.6-0.6,0.9-1.8,0.9-2.9c-10.3,0.6-18.6-3.6-26.1-10.3c-4.2,2.5-8.5,4.8-13.1,6.4
		c-7.7,2.8-15.4,5.4-23.1,8.2c-6.7,2.4-13.5,4.8-20.2,7.2c0,0.9,1.3,0.9,1.3,2.1c-1.9,1.2-3.9,1-5.8,0c-13.9,4.8-27.6,9.6-41.3,14.4
		c-4,1.4-8,2.6-12.2,3.2c-0.9,0.1-1.8,0.4-2.6,0.7c-4.8,1.7-9.8,2.9-14.9,3.6c-4.7,0.6-9.5,1.2-14.1,2.6c-3.3,1-4.2,0.8-7,0
		c-4.4,1.4-8.9,1.5-13.8,1.7c-0.3,5.5,0.7,10.8,0.9,16.8c-0.1,0.3-1,0.1-1.8,0.2c-2.4,0.3-4.7,0.6-7.1,0.9c-3.3,0.3-4.9-0.6-6.6-3.7
		c-5.6,0.1-11.3,0-16.9-0.4c-4.1,2.5-5.1,2.4-7.6-1c-3.8-0.4-8-0.5-11.5-3.9c-0.1-18.1-3.2-36.7-1.9-55.9c13.2,0.1,26.1-1.1,39-0.1
		c0.7,1.7-0.2,3.5,1.1,5.1c2.2-0.4,4.4-1.3,6.8-1.2c0.2,0,0.3,0.3,0.6,0.7c-2.4,1.3-5,0.9-7.5,1.3c-0.3,2.7,0.5,5.1,0.4,7.8
		c2.7-0.1,5.2-0.8,7.9,0.1c0.8-7.1-0.6-13.9-1.1-20.9c-3,0.3-5.9,0.6-8.6,0.8c-1.2,0.8,0.3,1.9-0.3,2.3c-12.8,2.6-25.4,1.9-38,2.1
		c-1.4,1.2-2.8,2.4-4.9,2.9c-1,6.7-1.7,13.6-4.2,20.6c-0.2-7.9-0.9-15.3,2.5-22.3c1.2-0.3,2.6-0.4,3.6-1.6c1.2-1.4,3-1.8,4.6-1.8
		c3.3,0,6.6-0.6,9.8-0.2c3-3,6.2-2.3,9.8,0c4.7-0.1,9.5-0.1,14.2-0.8c0.8-0.5,0.1-1.6,1.3-2.6c3.2-1.6,7.3-1.4,11.3-1.6
		c2.1,5.2,2.8,10.5,3.4,15.8c0.2,1.9,0.5,3.8-1.1,5.4c-1,0.9-0.3,2.1-0.1,3.2c-0.2,0.1-0.5,0.3-0.6,0.3c-4-0.6-7.6,0.3-11.1,2.2
		c-1.5,0.8-3,1.3-4.9,0.8c-1.6-0.4-2.9,1-4.6,1.2c-0.5,1.6-1.8,3-0.4,4.8c-6.8,4.1-13.3,2.7-20.1-0.1c1-1.8-0.6-3.5,0.7-5
		c1.1-1.3,2-2.7,3.1-4.2c-1.9-1.6-1.7-3.8-1.7-5.9c0-2,0-4.1,0-6.3c-1.3-0.8-2.9-0.2-4.5-0.4c-1.6-0.2-3.2-0.4-5.1,0.1
		c0.2,17.4,2.7,34.8,2.6,52.4c2.8-0.2,5.2-0.3,7.7-0.5c0-2.9,0-5.6,0-8.1c-1.7-1.6-3.2-3-4.8-4.5c0.2-2.1-0.4-4-1.7-5.3
		c-0.4-1.3,0.2-2,0.6-2.9c-2.6-3.3-2.9-6.8-0.8-10.3c0.2-1.4-1.1-2.1-1.1-3.3c1.6-5.9,2.9-6.8,7.5-4.9c-1.2,1-2.7,0.3-4,1.1
		c-0.4,1-0.9,2.2-1.3,3.3c0.1,1.1,1.5,1.5,1.1,3.4c-0.8,1.3-1.5,3.5-2.1,5.6c0.5,1.5,2.2,2.2,2.2,3.6c0.3,1.3-0.8,2-0.7,2.7
		c0.3,1.5,1.3,2,2,3.3c0,0.7,0,1.9,0,3.1c1.3,0.8,2.8,1.2,3.1,2.7c6.5,0.4,12.6,0.3,16.6-6.1c0-0.3,0.1-0.9,0.2-1.4
		c0-0.4,0-0.9,0-1.4c0.7-0.4,1.4-0.7,2-1c1,3.8,1.9,4.4,5.7,4.3c2.2-0.1,4.3-0.1,6.5-0.1c1,0,2.1-0.1,2.7,1.3
		c-1.6,1.5-3.6,0.6-5.5,0.8c-1.9,0.2-3.8,0.3-5.8,0.5c0,1.6,0.9,2.1,2,2.3c4.4,1.1,8.8,2.6,13.4,1.3c0.6-0.2,1.5-0.4,2-0.2
		c4.7,2.1,9.3,0.4,13.9-0.5c0.9-0.2,1.8-0.4,2.7-0.1c1.3,0.4,2.6,0.2,3.7-0.1c7-2,14.3-2.4,21.5-3.9c3.1-0.7,6.1-1.6,9.2-2.6
		c16.2-4.9,31.9-11.3,48.2-16.1c5.1-1.5,9.9-3.9,14.9-5.8c4.9-1.9,9.7-4.1,14.9-5.5c3.8-1,7.6-2.2,11.4-3.4
		c13.9-4.4,26.7-10.8,38-20.1c0.4-0.4,0.8-0.8,1.5-0.8c0,2.3-0.4,2.8-9,10.2c3.6,4.2,16.6,10.1,23.5,10.6c1.7-3.3,2.7-6.9,3.3-10.6
		c1.9-11.6,2.8-23.2,1.2-35c-0.2-1.3-0.5-2.7-0.8-4c-0.3-2-1.3-3.6-2.9-4.9c-2.7-2.1-5.2-4.4-7.4-7.1c-1.3-1.6-3.3-2.4-5.1-3.3
		c-0.7-0.4-1.6-0.4-2.3-0.1c-4.5,1.9-9,3.9-12.8,7c-1.8,1.5-3.5,3.2-5.3,4.7c-1.7,1.4-3.3,2.7-4.9,4.2c-1,0.9-1.8,2-2.6,3.2
		c2.1-0.6,3.6-2.3,5.9-3c-0.1,1-0.9,1.3-1.4,1.7c-2,1.7-3.9,3.4-5.6,5.4c-2.1,2.4-5.1,3.7-7.8,5.4c-7.8,4.8-16,9.2-23.5,14.5
		c-5.3,3.8-10.7,5.7-17.1,5.6c-3.4-0.1-6.5,0.7-9.4,2.5c-5.8,3.5-12.1,6.3-17.9,10c-5.5,3.5-11.4,6.2-17.4,8.6
		c-2.3,0.9-4.6,2-6.7,3.4c-7.7,4.8-15.8,8.5-24.7,10.5c-2.9,0.6-5.6,1.8-8.6,1.9c-1.4,0-2.5-0.3-3.9-0.8
		c-6.2-2.2-10.5-7.1-15.6-10.9c-0.6-0.5-0.6-0.5-0.8-2.5c1.9,0.4,3.1,1.8,4.6,2.8c7.1-3.6,13.8-8.2,20.8-12.1
		c1.3-0.7,2.4-1.8,3.5-2.7c2.5-2.2,5.3-4.1,8.4-5.1c1.9-0.6,3.2-2,5.1-2.5c4.3-1.2,8.6-0.3,12.9-0.2c0.8,0,1.6,0.1,2.2,0.2
		c5-4.1,10.3-7.4,16-10c4.1-1.9,7.5-4.7,10.8-7.7c1.3-1.2,2.3-2.5,2.4-4.3c0.1-1.4,0.9-2.6,1.7-3.7c1.7-2.5,3.8-4.6,6.2-6.3
		c1-0.7,2.3-1.2,3.1-2.1c3.6-4.3,8.7-4.4,13.6-5.4c2.5-0.5,5-0.6,7.4-0.9c2.5-0.3,4.8-1.3,6.9-2.6c3.4-2.2,6.9-4.3,10.4-6.4
		c0.8,1.3-0.2,1.6-0.7,1.9c-2.1,1.1-3.3,2.9-4.6,4.8c-4.2,5.8-8.6,11.5-12.9,17.2c-2,2.6-3.8,5.2-2.1,8.7c0.9,1,2,1.4,3.5,1.3
		c1-2.2,2.8-3.9,5.6-5.6c-1.3,2.3-2.3,4-3.5,6c2.6,0.7,4.6,0.8,6.8-0.9c3.3-2.5,6.8-4.5,10.6-6.2c1.8-0.8,3.2-2,4.4-3.6
		c1.3-1.8,2.7-3.4,4.1-5c1.1-1.3,2-2.7,2.7-4.3c0.8-1.9,2-3.6,3.4-5.1c5.9-6.8,12.7-12.3,20.8-16.3c0.2-0.1,0.3-0.3,0.5-0.5
		c-0.2-0.9-1-1.2-1.7-1.4c-2.3-0.6-3.6-2.3-4.5-4.3c-3.1-6.9-3.1-13.9-0.9-21c0.5-1.7,1.7-3.2,2.6-4.9c0-1.5,0-3.1,0-4.8
		c-1-0.6-2.7,1.2-3.4-0.7c2.8,0.1,4-2.2,5.6-3.7c0.6-0.6,0.7-1.7-0.6-2.3c-0.6,2-2,3.2-3.5,4.4c-0.6,0.5-1.4,0.8-1.5,1.7
		c-1.2,0.5-1.6,1.9-2.6,2.6c-2.8,0.1-3-0.1-3.1-2.7c1.1-0.5,1.2,0.8,2.2,1.1c1.6-2.5,4.3-4.2,6-6.8c-2.7,0.1-2.8,4.1-5.8,3.5
		c-2-0.4-1.8-2.2-2.1-3.7c0.3-1,1.4-1.1,1.9-2.1c-0.6-1-1.1-2.1-0.6-3.4c1.7-1.5,3.1-3.1,4.7-5.7c-3.4,1.4-4.3,4.7-7.5,4.7
		c0.9,1.3,2-0.4,2.6,0.7c-2.7,1.1-2.7,1.1-5.5-0.8c0-0.6,0.7-0.4,1-1c-2.4-0.8-2.5-3.4-3.1-5.2c-0.6-1.8-1.4-2.9-3-3.8
		c-0.4-0.2-0.8-0.4-1-1.2c4.2,1.1,8.4,1.8,12.6,2.2c-2.6,1.5-5.4,0.1-8.3,0.3c2,2,4.7,2.2,6.9,3.7c-2,0.5-3.5-0.9-5.6-1.2
		c1.8,2.2,4,2,6,2.8c1.2-0.9,2.5-1.9,3.6-2.7c1.3-0.5,2.1,0.6,3.4,0.6c5.1-2.5,9.2-6.1,11-12.1c-2.4-2-2.7-5.4-5.1-7.5
		c-2.9,0.7-5.7,1.4-9.2,1.8c2.9-1.7,5.8-1.9,8.3-3c-0.1-0.3,0-0.5-0.2-0.7c-3.5-6-4.2-6.4-11.2-5.8c-5.1,0.5-10.1,1.7-15,3
		c-0.6,0.2-1.3,0.5-2.8,0.2c6.2-2.7,12.1-3.7,18.6-4.1c-4-1.6-7.6-1.2-11.4-0.6c1.6-1.6,1.6-1.6,7.1-2.3c-5.2-1.2-9.8-1.9-14.6,0.1
		c-3.3,1.4-6.7,2.8-9.8,4.7c3.7-0.3,6.9-2.6,10.6-3c0.3,1.5-1.4,1.4-1.5,2.3c1.7,0.1,3.1-1.5,5.3-1c-4.4,2.2-8.6,3.7-12.4,6.9
		c2.4,0.9,4.4-0.9,6.4,0.1c-2.7,1.7-5.7,1.6-8.4,2c-0.9-0.8,0-1.5-0.3-2.1c-1.6,0.4-1.6,2.4-3.6,2.9c0.9-2,0.6-4,2.2-5.5
		c-2.2,0.6-3.9,1.9-5.3,3.4c-0.9-0.1-1-0.7-1.4-1.1c0.4-1.2,1.7-1.4,2.2-2.4c-1-0.6-1.5,0.2-2,0.7c-1.6,1.2-3.2,2.5-4.7,3.9
		c-0.9,0.8-1.9,1.7-1.3,3.2c0.2,0.4-0.2,1.1-0.4,1.6c-0.8,2.9-1.4,5.7-1.4,8.7c0,2.2-0.4,4.5-1.2,6.7c0.6,0.9,1.9,0.8,2.6,2
		c1.1,4.7-3,8.1-4,12.3c0.6,1.3,1.8,0.8,2.4,1.2c1.2-0.2,1.2-1.4,2-1.6c1.3-0.3,2,0.9,3,1.1c0.8-0.2,1-1.2,1.8-0.9
		c0.4,0.4,0.4,0.9,0,1.2c-1.3,1-2.9,0.9-4.6,0.9c-0.5,1.9-0.9,3.7-1.5,5.8c3.5,0,6.8-0.9,10.2-0.4c0,1.4-0.9,1.6-1.9,1.7
		c-1.2,0.1-2.5,0.1-3.7,0.2c-1.6,0.2-3.2,0.4-3.9,2.1c0.1,0.7,0.3,1.2,1.4,1.5c1.5,0.1,3.9-1.6,5.3,1.1c-1,1.5-2.7,0.9-4,1.5
		c-0.6,5.9-0.6,5.9,0.7,8.6c8.4-0.2,16.7-1.1,24.3-5.2c-1.3,1.9-3.2,2.7-5,3.6c-1.9,0.9-4,1.6-6.3,2.6c1.3,2.6,0.9,5.7,2,8.1
		c1.6,3.8,0.7,7.6,1,11.3c0.1,1.6-0.2,3.1-1.7,4.6c-1.4-8-1.1-15.8-2.6-23.2c-1.1-0.8-1.8-0.4-2.6-0.2c-1.4,0.3-2.9,0.8-4.3,1
		c-5.8,0.8-8.2-2-8.3-7.6c0-1.1,0.4-2.2,0.6-3.6c-0.3-1.1-1.9-0.9-2.4-2c-0.8-1.3,0.3-2.4,0.7-3.7c-1.8-2-0.6-4.6-1.1-7.3
		c-1.1-0.4-2.6-0.7-3.1-2.4c0.9-2.1,1.8-4.4,2.7-6.6c-0.3-1.2-1.4-2.2-0.9-3.4c0.7-1.3,2.1-0.1,2.7-1.2c-0.6-1.7-2.7-0.2-3.6-2.1
		c1.7-4.2,1-9.1,1.8-13.9c1.2-7.4,5.6-12.2,12.1-15c6.1-2.7,12.3-5.4,18.7-7.4c2.1-0.7,4.2-1,6.4-0.5c3.2,0.7,6.5,1.2,9.7,1.7
		c4.8,0.7,8.6,2.8,10.9,7.2c0.3,0.6,0.7,1.1,1.2,1.7c0.1,0.2,0.4,0.3,0.7,0.5c2.1-1.1,4.4-1.4,6.5-0.7c0.8,0.7-0.1,0.9-0.1,1.3
		c5.2,3.7,7.3,7.8,6.8,12.8c-0.6-1.8-1.1-3.6-1.8-5.2c-1.1-2.8-3-5.1-5.7-6.5c-1.6-0.8-1.9-0.8-4.2-0.2c0,1,0.4,1.4,1.4,1.5
		c-0.4,1.1,0.3,1.6,1.1,2.1c1.1,3.8,2.8,7.4,3.1,11.4c0.3,3.8,1.3,7.6,0.6,11.5c-0.5,2.7-1.2,5.3-2.6,7.7c-0.5,0.9-1,1.8-1,2.9
		c0.2,4.4,0.5,8.9,0.8,13.3c0,0.5,0.3,1.1,0.7,2.4c0.3-5.3-0.2-9.9,1.2-14.4c0,8.1,0.2,16.1,5.7,22.9c-3-5.8-3.7-12.1-3.7-18.4
		c0-0.7-0.3-1.6,1.2-2.2c0.9,10.7,2.4,21.1,9.8,29.5c-4.9-8.2-7.8-17-7.7-26.7c0-0.9-0.2-2.1,1.2-2.8c0.6,2.7,0.3,5.4,1.2,7.9
		c0.7-0.5,0.3-1.3,0.3-1.9c-0.3-5.9,0.8-11.6,2.3-17.2c0.5-1.8,0.9-3.5,1.4-5.3c1.2-4.1,0.6-8.2-0.9-12c-2.6-6.3-6.6-11.6-11.1-16.4
		c-2.4-0.6-4.6,0.1-7.3-0.1c1.5-1.8,3-1.6,4.4-1.7c1.7-0.1,3.3-0.1,4.9,0.9c5.1,3.4,8.2,8.1,9.8,13.9c0.6,2.3,1.1,4.6,2.1,6.8
		c1.2,2.9,0.9,6,0.4,9.1c-0.8,4.9-2.1,9.8-2.6,14.8c-0.5,4.7-0.3,9.3,0.4,13.9c0.2,1.6,0.7,3.2,0.5,4.7c-0.7,5.8,2.3,10,5.5,14.2
		c0.3,0.4,0.6,0.7,1.1,1.2c-3.1-0.2-5.3-1.4-7.3-3.3c-4.3-4-8-8.4-9.9-14.1c-0.1-0.3-0.4-0.6-0.7-1.1c0.1,2.8,0.7,5.1,1.6,6.9
		c-1,6.3,3,10.5,5.2,15.7c-1.6-0.5-2.2-1.5-2.9-2.5c-1.9-2.7-3.3-5.7-4-9c-1.4-7-3.3-13.9-4.4-21c-0.3-2.3-0.3-4.5-0.4-6.8
		c-1.1,0-1.1,0.7-1.1,1.3c-0.1,4.3-0.2,8.6-0.3,13c0,2.3,0.8,4.5,1.6,6.6c1.6,4.5,4,8.7,6,13c0.7,1.4,1.3,2.8,2,4.3
		c-1,0.5-1.3-0.3-1.7-0.7c-4.6-5.3-7.8-11.4-9.4-18.3c-0.5-2.2-0.4-4.4-0.1-6.7c0.5-3.2,0.5-6.5,0.8-10.2c-1.9,1-2.8,2.4-4,3.9
		c2.9,3.5,1.2,6.5-1.2,9.3c-0.9,1-1.7,2.1-2.5,3.2c-0.7,1-1.2,2.2-1.1,3.5c0.1,1.9,0.7,3.7,0.5,5.7c-0.1,0.6,0.4,1.3,0.8,1.8
		c2.6,3.4,5.4,6.8,9.3,8.9c4.2,2.2,8.2,4.8,11.3,8.6c1.2,1.4,2.7,2.5,4.2,3.4c4.3,2.7,6.2,6.8,7.4,11.4c0.5,2,0.7,4,1.1,6.3
		c-1.3,0.8-0.9,2.2-1,3.6c-0.5,8.1-0.9,16.1-1.7,24.1c-0.7,6.8-3.2,13-6.7,18.8c-0.9,1.6-1.6,3.2-2,5c-1.7,7.2-3.1,14.4-5.1,21.6
		c-1.8,6.4-1.9,13.1-1.2,19.7c0.5,4.4,0.7,8.8,1,13.2c0.6,9.6,3.5,18.5,9.3,26.3c4.8,6.4,7.8,13.5,9.1,21.4
		c0.7,4.3,1.2,8.5,1.2,13.2c4-0.6,7.9-0.4,11.7-0.6c2.8-0.2,5.7-0.1,8.5,0.1c14,0.8,27.9,1.7,41.9,1.8c1.6,0,3.2,0,4.8-0.3
		c3.2-0.7,6.3-0.4,9.5,0.2c4.2,0.7,8.3,1.4,12.5,1.8c2.8,0.3,5.3,1.2,7.4,3.5c0.8,5.1-0.4,10.3-1.1,15.6c-0.1,1.1-0.4,2.2-0.5,3.4
		c-0.2,1.2-0.1,1.2-1.4,2.5c-7.6,0.3-14.9,1.1-22.5,1.8c0.9,4.7,1.5,9,2.1,13.3c1.4,10.5,2.1,21,2.7,31.6c0.1,2.3,0.5,4.5,1.2,6.7
		c1.5,5.1,2.5,10.4,3.7,15.6c1.6,7.3,2.4,14.8,3.5,22.2c0.6,4.2,2,8.4,2,12.8c0,1.5,0.9,3,1.4,4.6c-2.6,1-5.1,1.4-8.1,1.1
		c1.9-1.4,3.9-1,5.9-1.7c-1.1-4.2-0.1-8.6-1.6-12.7c-0.6-1.6-0.7-3.3-1-5c-0.2-1.4-0.3-2.8-1.4-4.1c-1-1.1-0.9-2.8-0.7-4.3
		c0.2-1.6-0.1-3.1-0.5-4.7c-1.7-5.7-1.8-11.7-3.6-17.3c-2.7-8.7-3.1-17.6-3.7-26.6c-0.5-8.6-1.7-17.2-2.6-25.8
		c-0.2-1.7-0.5-3.4-0.1-5.4c-3.4,0.4-6.6,0.9-9.8,1.3c-12.7,1.7-25.6,2.6-38.4,3.5c-16.9,1.2-33.8,2.2-50.6,4.9
		c-1.7,0.3-3.1,0-4.3-0.7c-18,3-35.6,6.2-53.2,8.8c2.8,14.8,4.2,29.5,3.4,44.6c10.5-0.9,20.6-1.1,30.6-2.7
		c8.4-1.3,16.7-3.2,25.1-4.7c11.3-2.1,22.6-3.9,34.2-4.1c2.7-0.1,5.4-0.5,8.1-1c5.4-0.9,10.8-1.5,16.3-1.4c3.8,0,7.5-0.1,11.2-0.7
		c1-0.2,2-0.2,3.1-0.2c4.4-0.2,7.4,1.8,9.3,5.6c0.8,1.5,1.4,3.1,3.2,3.6c0.8,1.8,1,3.6,1.2,5.4c0.6,7.3,0.8,14.5,0.5,21.8
		c-0.1,3.3,0.1,6.7,1,10c0.6,2,0.4,4,0.3,6.1c-0.3,3.5-0.4,7-0.6,10.9c9.2-0.7,18-1.4,26.8-2.1c0.8-0.3,0.4-1.4,1.6-1.7
		c3.4,0.6,7.2,1.1,11.1,0.7c3.7-0.4,7.5-0.6,11.2-0.9c12.7-1.1,25.4-2.1,38.1-3.2c8.4-0.7,16.8-1.4,25.2-2.1c0.4-0.3,0.9-0.7,1.3-1
		c1.5-1.3,3.1-1.4,4.6-0.1c1.5,1.3,2.8,0.9,4.4,0.2c4.2-2.1,8.4-4.1,12.6-6.1c0.5-0.2,1.1-0.4,1.5-0.7c1.4-1.1,2.6-2.4,4.8-2.1
		c2.4,0.4,4.6,1.1,6.4,2.9c0.1,0.1,0.2,0.1,0.4,0.2c5.2-0.8,10.4-1.7,15.4-2.5c1.2-0.9,1.4-2.9,3.3-2.1c2.7,1.2,2.3,4.1,3.1,6.1
		c2.5,0.3,3.6-0.5,3.8-2.6c0.2-2.1-0.9-3.6-3-3.7c-1.3-0.1-2.7,0.2-4,0.3c1.7-3.6,6.1-3.9,8.6-0.6c1.6,2.1,1.7,6.2,0.3,8.4
		c-1.5,2.3-3.7,2.7-6.4,2.3c1,7.6,2.7,14.9,4.2,22.2c2.9,0.4,5.7,0.7,8.4,1.1l-0.1-0.1c-0.5,2.2-1,2.8-3,2.6c-2.2-0.2-4.5-0.4-7-1.9
		c-2.7-7.8-4-16.1-4.5-25.3c-0.2-0.4-0.8-1.3-1.7-2.2c-5.5,1-10.9,3.1-16.6,3.9c-3.4,3.3-7.8,4.2-12.4,4.5
		c-5.4,0.3-10.9,0.9-16.2,0.5c-3.3,3.6-3.6,3.6-7.7,1.3c-18.3,1.5-36.8,3-55.2,4.5c6.6,1.7,13.3,2.8,20,3.3c0.7,0.5,0.2,1,0,1.5
		c2.2,3.4,3.9,8.9,3.8,12.3c-0.7,0.5-1.5,0.2-1.7-0.5c-1-3.8-2.2-7.6-3.6-11.6c-8.8-0.5-17.6-2.4-26.6-3.9
		c-3.7-0.6-7.3,0.1-10.9,0.4c-15.6,1.2-31.3,2.6-46.9,3.9c-9.2,0.8-18.4,1.5-27.6,2.2c-0.3,0-0.7,0-0.8,0.6c3.2,1,6.5,1.5,9.9,1.9
		c12,1.3,23.9,2.9,36,3.5c5.6,0.3,11.2,1.7,16.8,2.7c9,1.5,18,2.8,26.9,4.8c0.8,0.2,1.5,0.4,2.5,0.7c-0.6,1.1-1.4,1.5-2.1,1.8
		c-14.2-2.4-28.2-4.7-42.2-7c-1.2-0.2-2.5-0.3-3.7-0.3c-9.6,0.2-19-1.3-28.5-2.2c-7.7-0.7-15.2-2.8-22.9-3.3c-1.6-0.1-3-0.9-4.2-2
		c-2.8,0.2-5.5,0.5-8.2,0.7c-1.9,0.2-3.4-0.3-3.9-2.4c0.4-2.3,2.1-2.7,4-2.8c2.8-0.2,5.7-0.1,8.5-1c1.2-3.5,1.2-7.2,2.2-10.9
		c3.6-0.8,7.3-1.4,11-1.8c0.6-0.1,1.2,0,1.7-0.2c8.3-2.2,16.5-0.1,24.6,1.1c1.5,0.2,2.9,0.6,4.3,0.9c0.2,0,0.3,0.3,0.5,0.6
		c-0.7,1.5-2.1,1-3.1,0.8c-4-0.8-8.1-1.3-12.2-1.7c-2.5-0.2-5-0.4-7.5-0.7c-1.1-0.1-2,0.2-3,0.5c-4.7,1.1-9.4,1.2-14.5,2.1
		c-0.3,2.8-0.6,5.8-1,9.2c14-1.1,27.7-2.3,41.4-3.4c0.9-2.6,0.5-5.1,0.7-7.6c0.1-0.8-0.3-1.8,0.1-2.3c1.5-2.4,0.8-4.8,0.5-7.3
		c-0.7-5.6-1.4-11.2-1.3-16.9c0.2-5.9-0.1-11.8-0.9-17.7c-0.5-1-1.5-1.4-2.1-2.2c-3.3-4.8-7.7-7.1-13.7-6.2
		c-4.4,0.7-8.8,0.8-13.3,0.7c-6,0-12,0.3-17.9,1.9c-2.3,0.6-4.7,0.6-7.1,0.7c-13.3,0.8-26.4,3.1-39.5,5.7
		c-14.4,2.9-28.9,5.1-43.6,5.6c-1.2,0-2.5-0.1-4,0.7c-0.3,5.4-1.9,10.7-2.9,16.1c-1,5.3-1.4,10.8-1.9,16.2c-0.5,5.5-1,11.1-1.4,16.7
		c-0.4,5.4-0.5,10.9-0.6,16.4c-0.1,5.4-0.4,10.8-0.3,16.5c-2-0.7-1.4-2.5-2.2-3.6c-1.2,0.6-1.3,2.7-3.5,2.2c1.4,2.3,3.5,3.2,4.2,5.4
		c1.7-0.6,1-2.9,2.9-3.4c0.1,2.7,0.6,5.3-2.3,6.9c-2.6-0.8-3-3.6-4.8-5.2c-1.8-1.6-4.1-2.4-6-3.8c-1-2.1,0.7-3.8,0.9-6
		c-2.9-1.7-6.3-1.8-9.4-2.4c-1.1,0.5-0.7,1.5-1.2,2.1c-0.5,0.4-1,0.4-1.6,0.1c-0.5-0.4,0.3-1.1-0.4-1.6c-0.2,0.1-0.5,0.2-0.8,0.4
		c-0.6,0.5-0.5,1.2-0.2,1.9c0.8,1.8,0.6,3.5,0,5.5c4.3,1.6,9.6,0.6,12.8,4.6c-0.2,1.5-1.1,1.5-1.8,1.9c-0.1-0.6-0.7-0.9-1.2-1.1
		c-3.4-1.1-7-1.8-10.5-2.4c-0.4-0.1-0.9,0.1-1,1c4.2,0.8,8.5,1.6,12.7,2.5c0,0.9,1.3,1.4,0.5,2.5c-0.6,0.8-1.4,0.6-2.2,0.5
		c-4-0.7-8.1-1.4-12.1-2.1c-1-0.2-2.1-0.6-2.5,0.9c3.7,1.2,7.9,0.5,11.6,2.8c-2,3.3-5,0.9-7.3,1.9c-0.5,0.4,0.1,1.5-0.7,2
		c-3.5,1.8-6.8,0.6-10.2-1.2c-4.1,1.3-6.4,5.6-10.3,6.7c-1.1,3.8-2.2,7.3-3.2,10.8c2.9,0.3,4.3-1.9,6.6-2.5c2.8,0.5,5.2,1.8,7.3,4.2
		c-3.2,0.9-4.9-2-7.7-2.2c-1.1,0.7-2.5,1.4-3.9,2.2c4.7,1.8,14,3.3,19.9,3.3c0.3-0.5-0.2-1.2,0.9-1.8c2.9,1.2,6.4,1.2,9.9,1.3
		c6.2,0.2,10.5-2.7,13.9-7.6c0.6-1,1-2.3,2.5-2.2c0.8,1.2-0.4,1.8-0.5,2.7c0.4,0.8,1.4,1.3,1.1,2.4c6.4-0.7,6.4-0.7,10-7.3
		c-2.4-3.3-2.4-8-6-11.5c-0.4-1-0.1-2.6,0-4.2c0.1-2.4,0-4.7-1.7-6.7c-1.6-2-1.2-4.5-1.2-6.8c0.9-0.1,1.2,0.3,1.3,0.7
		c0.2,2.5,1.6,4.4,2.9,6.4c1,1.6,1.4,3.4,1.4,5.2c0.1,2.9,1,5.6,2.3,8.1c1.5,2.9,2.1,6.2,3.9,8.8c-0.6,2-1.7,3.5-2.3,5.2
		c-0.9,2.3-3,3.7-5.5,4.2c-1.8,0.4-3.5,0.9-5.3,1.8c-2.2-1.3-4.3-1-6.4,0.7c-2.9,2.3-6.2,3.1-9.9,2.9c-2.1-0.1-4.3,0.2-6.4,0.4
		c-4.4,0.4-8.9,0-13.2-0.7c-4.8-0.7-9.5-2.1-14.3-3.2c-0.9-0.2-1.7-0.6-2.3-1.3c1.3-4.7,2.5-9.4,3.8-14.2c3.1-1.6,5.8-4,8.7-6.3
		c4.9-3.8,7.5-9.3,11.1-14c0.9-1.2,1.5-2.8,1-4.2c-1-2.7,0.2-4.1,2.3-5.2c0.3-0.2,0.6-0.4,0.9-0.6c0-5.2,0.1-10.4,0-15.6
		c0-2.5-1.1-5.1,0.6-7.5c0.1-0.2,0-0.4,0-0.7c-0.3-6.1-0.4-12.3-0.8-18.4c-0.4-6.1-2.4-11.8-4-17.6c-0.6-2.2-1.2-4.4-1.9-6.6
		c-2.4-0.6-4.6-0.4-7,0.1c-8.2,1.7-16.5,3.2-24.8,4.4c-5.3,0.7-10.7,0-15.9,1.4c-5,1.4-10.2,2.1-15.4,2.8c-0.4,0.1-0.9,0.3-1.4,0.4
		c-0.4,4.9-0.9,9.7-1.3,14.6c-0.3,3.2-0.6,6.2-1.6,9.3c-1.2,4-1,8.3-1.2,12.5c0.9,0.3,1.4-0.9,2.6-0.4c1.8,3.9,3.9,7.9,2.9,12.8
		c3,4.4,4.2,9.9,7.2,14.8c0.1,1.1-1.9,1.9-0.6,3.4c-7.3,5.7-15.2,7.6-24,6.5c-4.7-0.6-9.4-1.2-14.2-1.3c-1.3,0-2.5,0.2-3.6,0.9
		c-1.4,0.8-2.9,1.3-4.4,1.8c-0.3,1-0.5,2-0.7,3l0.1-0.1c-1-0.1-1.5-0.6-1.5-1.5c0.1-3.7-0.5-7.5,0.1-11.2c0.2-1.3,1.1-2.2,1.3-3.5
		c0.9-8.9,1.8-17.9,2.8-26.8c0.9-8.6,1.7-17.2,4.5-25.5c0.3-1-0.8-1.6-0.1-2.6c2.1-0.6,3.3-3,5.5-3.7c5.4-2,10.9-3.8,16.7-4.4
		c5.3-0.5,10.7-1.1,15.9-2.2c9.9-2.2,19.9-3.8,29.9-5c1.4-0.2,2.8-0.2,4.1-0.5c5.6-1.6,11.3-2.3,17-3.1c2.1-0.3,4.2-0.2,6.3-1.1
		c-0.1-0.9-0.2-1.7-0.4-2.5c-1.2-5.5-2.2-11.1-3.6-16.7c-1.4-5.9-1.3-12-1.3-18c0-2.8,0.2-5.7-2-8.1c-0.6,0-1.2,0-1.7,0.1
		c-2.9,1.1-6,1.3-9.1,1.4c-1.1,0.1-2.3,0.1-3.4,0.5c-6.9,2-14.1,2.5-21.2,3.5c-2.7,0.4-5.4-0.4-8.1,0.3c-9.6,2.4-19.4,3.6-29.3,4.7
		c-3.5,0.4-7,0.6-10.5,0.7c-7.5,0.2-15-0.2-22.5-0.3c-1.7,0-3.4,0-5,0.6c-0.5,0.7-0.6,1.4-0.4,2c1.3,3.1,0.5,6.3,0.3,9.4
		c-0.6,11.2-1.4,22.5-2,33.7c-0.5,8.8-1.7,17.6-1,26.5c0.5,6.6-0.3,13.2-0.5,19.8c0,1.4,0.1,2.7,1,3.8c-1.6,1.6-1.2,3.5-1.3,5.3
		c-0.3,5.1,0.6,10.3-1.4,14.4c-0.3,1.9,1.4,1.7,1.2,2.8c-0.4,0.5-1.1-0.2-1.5,0.3c0.1,6.2-0.4,8.1-2.4,9.2c-0.6-1.8,0.2-3.8-0.6-5.8
		c-6.6-0.9-12.8-3-19.4-3.6c-2.1-0.2-4.3-0.3-6.1-2c-6.7,2.2-13.8,2.2-21,3.7c0,5-0.4,9.8-1.1,14.9c3.3-0.2,6.2,0.7,9.2,1.3
		c3,0.6,5.9,1.8,8.8,2.7c5.4,1.8,10.7,3.8,16.4,4.6c3.3,0.4,6.5,1.1,9.7,2c10.1,2.9,20.3,5,30.6,6.6c10.1,1.5,20.2,3.5,28.6,8.8
		c3-0.3,5.4-0.6,7.9-0.9c2.7-0.3,5.8,0,8-1.2c2.6-1.5,5.4-2.1,8.1-3.4c-0.1-2.4-0.5-4.7-1.7-6.7C376.2,601.6,374.6,597.4,373.5,593
		L373.5,593z M501.9,364.9c0.5,0,0.9,0.1,1.4,0c9.5-1.6,18.6-4.3,27.5-7.8c0.6-0.3,1.2-0.7,1.8,0c0.4,0.9-0.2,1.5-0.8,2
		c-1.1,1-2.4,1.7-3.8,2.3c-7.6,3.2-15.3,5.9-23.6,6.4c-0.5,0-1.2-0.1-1.4,0.8c1.3,0.7,2.8,0.7,4.2,1c3.3,0.5,6.5,1,9.8,1.6
		c2.1,0.4,4.2,1.1,6,2.3c0.6,0.5,1.2,1.1,0.5,1.8c-7.4-4-15.7-3.2-23.6-4.8c0.5,0.5,1.1,0.8,1.7,1c12.5,4.2,20,13.4,24.7,25.2
		c0.9,2.3,1.8,4.6,2.8,6.9c2.3,4.8,2.9,9.8,1,14.9c-0.2,0.4-0.6,1,0.2,1.6c3.4-2.6,6.8-5.2,10.3-7.8c1.7-1.3,2.7-3.1,3.3-5.1
		c2.6-9,3.2-18.1,0.7-27.2c-2.3-8.2-6.9-15.3-10.6-22.8c-0.2-0.5-0.6-1-1.1-1.3c-1.6-1.1-2.3-2.8-2.9-4.5c-1-2.8-1.7-5.6-2.2-8.6
		c-1.2-7-0.7-14.1-1.3-21.1c-0.8-9.3,1-18.4,3-27.4c0.2-0.7,0.6-1.5,0.2-2.2c-24.3,3.6-48.6,4.7-73.2,2.3c-0.3,5.7-0.8,11.5-1,17.2
		c-0.3,9.9,0,19.8-0.7,29.7c-0.2,2.9-0.5,5.9-1.1,8.8c-0.6,3.2-0.9,6.5-0.9,9.9c11.4,3.5,23,4.8,34.7,5.4c-12.7,1.7-25-0.2-37.5-3.7
		c-3.5,1.4-7.6,1.6-12,2c2.3,2.4,3.4,5.3,4.6,8.1c6.2-1.1,12.1-2.8,18.3-3.2c4.2-0.3,8.4-1.5,12.5-1.4c7.5,0.2,15,0,22.5,0.5
		c1.1,0.1,2.3,0.3,3.4-0.1c0.6,0.8,1.4,0.8,2.3,0.4c-0.8-0.6-1.6-0.2-2.4-0.3c0-0.7,0.3-1.1,1-1.5
		C500.9,365.9,501.4,365.3,501.9,364.9L501.9,364.9z M490.6,370.3c-6.3,0-12.3,0-18.3,0c-2.6,0-5.2,0-7.8,0.5
		c-9.1,1.9-18.3,3.8-27.4,5.5c-5.1,0.9-9.8,2.8-14.5,4.8c-5.2,2.3-8.1,6.5-10.1,11.4c-0.7,1.6-1.2,3.4-1,5.3
		c0.4,4.7,1.1,9.3,2.3,13.8c2,7.3,4,14.7,5.9,22c1.2,4.7,1.6,9.5,3,14.2c1.2,4.2,2.1,8.6,2,13.1c-0.1,4.4,1.4,8.7,2.1,13.1
		c1.6,11.1,4.8,21.7,8,32.4c2.1,7,3.4,14.2,3,21.5c-0.1,2.4-0.1,4.8,0.1,7.2c0.4,8.1,1.1,16.1,0.6,24.2c0,0.6-0.1,1.1,0.2,1.4
		c4.4,1.6,9.9,0,11.9,5.2c-0.1,2.2-1.2,3.4-1.7,5.1c0.9,0.3,1.4,1.2,2.5,0.8c1.3-1.8,3.1-3.2,4.7-4.4c1.5-4.1,1.6-8.3,1.5-12.3
		c-0.2-7.9,0.2-15.7,0.1-23.5c-0.1-5.6,0.6-11.1,1.1-16.7c1-11.1,4.9-21.9,3.9-33.3c1.1-4.9,0.5-9.9,0.5-14.9
		c-0.1-7.3-1.1-14.5-3.3-21.5c-0.6-2.1-1.7-4-2-6.1c-0.4-2.9-1.4-5.4-2.7-8c-1.6-3.1-2.4-6.4-2.1-9.9c0.1-1.3,0.2-2.7,1.4-3.5
		c1.2,0.7,0.2,1.9,1,2.6c1.9,1,4.2,1.4,6.4,2c12.2,3.3,24.6,5.6,37.3,4.8c3-0.2,5.9-0.4,8.8-1.2c4.8-1.3,9.6-2.7,14.5-3.9
		c2.1-0.5,4.1-1.1,5.9-2.9c0.3-4.9,0.2-9.8-1.6-14.6c-2-5.4-4.5-10.4-7.4-15.3c-2.4-4-5.3-7.2-9.6-9.3c-5.1-2.7-9.9-6.1-15.7-7.3
		C492.6,372,491.7,371.1,490.6,370.3z M343.2,401.2c2.4,1,3.6,3,5.5,4.5c2.3,0.2,4.5,1.8,7,2.1c3.6,0.4,7.3,0.5,10.9,0.5
		c8.3-0.2,16.6,0,24.8,1.8c2.9,0.6,5.7,1.4,8.7,1.6c3.6,0.3,7.2,1,10.8,0.9c0.5-1.2,0.3-2.2,0-3.2c-0.7-3-1-6.1-1.4-9.1
		c-1.1-7.3,1.3-10.8,4.6-16.8c0.9-1.6,2.4-2.7,4-3.6c4.7-2.4,9.6-4.2,14.7-5.5c2.7-0.7,5.4-1.5,8.1-2.3c-0.2-4.5-4.8-5.4-6.2-8.7
		c-7.1-0.2-14-0.5-20.9-1.2c-0.8-0.1-1.6,0-2.4,0.1c-6.1,1-12.3,0.8-18.4,0.4c-4.4-0.3-8.9-0.3-13.3,0.3c-6.1,0.8-12.2,1.3-18.4,1.2
		c-5.2-0.1-10.4,0.4-15.7,1c-5.1,0.6-9.7,2.2-14,5c-4.9,3.2-9.9,6.5-14.9,9.8c0.1,3.2-1.8,6-2,9.4c1,1.6,1.2,3.7,1.5,5.7
		c0.9,4.9,1.3,9.9,2.5,14.7c0.9,3.6,3.2,6.4,3.6,10.1c0.8,0,1.3,0.1,1.9,0c5.9-1.2,11.8-1.7,17.7-2c3.4-0.2,6.8-0.4,10.2-0.6
		c0.7-0.1,1.6,0.2,2.1-0.8c-0.8-2.3-2.4-4-3.4-6.2c-1.1-2.4-2.7-4.1-5-5.3C344.4,404.4,343.5,403.1,343.2,401.2z M527.6,423.9
		c-2.6,0.2-4.8,0.7-7,1.5c-11.9,4.4-24.2,6.1-36.9,4.3c-9.8-1.4-19.5-3-28.9-7.3c0.3,2.9,0.9,5.5,2.4,7.8c1.9,3.1,3.8,6.2,4.7,9.7
		c4,0.3,7.7-0.6,11.4-1.1c16.4-2.3,32.8-4.8,49.2-7.1c15.7-2.2,31.5-3,47.2-4c11.9-0.7,23.8-1.3,35.7-2.8c9.1-1.1,18.2-2.6,27.5-3
		c2.4-0.1,4.7-0.5,7.3-0.7c0.6-6.4,2.7-12.3,2.3-18.5c-3.7-1.7-3.7-1.7-7.1-1.8c-0.6,0-1.2,0-1.7-0.2c-5.3-1.8-10.8-2.5-16.4-1.7
		c-2.9,0.4-5.9,0.6-8.8,0.6c-9.1,0-18.2-0.5-27.3-1.2c-4.8-0.4-9.5-1.3-14.3-1c-5.9,0.3-11.8,0-17.8,1.3c-0.6,4.7-2.8,8.5-5.4,12.4
		c-3.1,4.6-7.2,7.8-12.3,9.7C529.7,421.5,528.2,422.4,527.6,423.9z M460.9,218.1c-10.2,0.1-18.5,3.8-25.1,11.3
		c-1.5,1.7-2.9,3.5-3.9,5.6c-2.3,5.1-6,9.1-11,11.7c-5.1,2.6-10,5.4-14.6,8.7c-2.7,1.9-5.6,2.4-8.6,2.4c-2.6,0-5.1,0.1-7.7,0.7
		c-4.1,1-8.1,2.4-11.6,4.7c-3.4,2.2-6.9,4.4-10.2,6.8c-5.5,4-11.3,7.6-18,10.1c2.7,2.9,5.8,4.8,8.9,6.6c1.6,0.9,3.1,1.1,4.9,0.9
		c4.6-0.7,9-2.4,13.5-3.6c4.4-1.2,8.3-3.6,12.4-5.4c16.3-7.1,31.6-16,47.1-24.7c-0.7-1.9-0.2-3.6,0.7-5.2c1.5-2.8,3-5.6,5.2-7.9
		c4.9-5.2,9-11.1,13.6-16.6C458.1,222.2,459.4,220.3,460.9,218.1z M369.9,568.1c-3.2-4.7-4.8-10.2-7.3-15.3c1.1-3.5-0.4-6.6-1.7-10
		c-1.6,1.9-3.2,3.4-4.1,5.6c-1.5,3.4-4.5,4.9-8.3,5c-4.6-4.2-9.2-8.5-14.2-11.2c-0.7-1.4,0.5-2-0.2-2.9c-1.6,2.1-4.7,2.4-5.6,5
		c1.2,3,3.9,4.9,5.1,7.9c-2.7,2.3-3.9-0.4-5.6-1.2c-0.6,1.3-0.2,2.5,0.1,3.3c-2.2,5.6-1.9,11.4-3.5,16.8c-0.5,1.5-0.2,3.4,0.5,5.1
		c0.6-0.2,1-0.3,1.4-0.5c2.5-1.8,5.4-2.3,8.4-2c1.7,0.2,3.4,0.3,5.1,0.6c5.9,1.1,11.7,1.4,17.6,0.2
		C362.3,573.5,366.6,572.1,369.9,568.1z M339.5,509.2c0.9,6,0.7,11.8,0.8,17.6c0.1,3.8-0.2,7.7-2.7,11c2.4,6,7.4,9.4,11.8,13.3
		c1.9-0.3,3.2-1.1,4.7-2.2c0-1.8,1.8-2.8,2.5-4.6c0.1-4.7-0.5-9.4,0.3-14.2c1.5-8.4,1.9-16.9,2.5-25.5
		C352.6,505,346,506.3,339.5,509.2z M466.7,244.3c-4.2-1-8.5-1.4-11.2-5.6c-0.4-2,0.6-3.9,1.9-5.7c3.5-5,6.3-10.6,10.3-15.3
		c0.3-0.4,1.3-0.8,0.5-1.7c-2.3,1-3.8,2.9-5.2,4.7c-3.3,4.2-6.8,8.3-10.3,12.3c-3.2,3.6-6.5,7.1-9.3,10.9c-1.8,2.4-3.2,5.1-2.5,8.4
		c0.7,0,1.1,0.1,1.6,0.1c4.1,0.1,8-1.2,12-1.4c1.9-0.1,4.1-0.4,5.5-1.6C461.8,247.3,464.1,245.7,466.7,244.3z M288.3,558.8
		c-1.6,3.7-1.8,6.5-0.8,10c4.3,1.5,8.5,3.9,13.5,4.2c0.1-0.5,0.4-0.9,0.4-1.3c0.1-3.4,0.5-6.7,1.3-10.1c0.3-1.3-0.1-2.4-0.7-3.2
		c-0.1-1.3,1.4-1.9,0.4-3.3C297.7,556.5,292.9,557.8,288.3,558.8z M306,320.9c8.7,1,17.4,2.5,26.3,1.6c0.7,0.7,0.4,2,1.9,3
		c2.4-0.1,5.5-0.3,8.7-0.5c-1.6-5.1-1.5-10-0.8-15c-2.1-0.3-3.7,0.7-5.4,0.4c-1.7-0.3-3.4-1.1-5.2-0.9c-0.5,3.5,1.9,7-0.8,10.3
		C322.5,321.7,314.2,320.1,306,320.9z M322,300.8c-1.5,3.4-3.4,6.2-7.5,7c1,3.4,1.3,6.8,0.7,10.4c4.9,0,9.7,0,14.8,0
		c-0.7-3.3,0.1-6.4-0.4-9.5c-1.3-0.6-2.4-1.2-3.5-1.6c-1-0.4-2-1.1-2-2.1C324.1,303.3,322.8,302.3,322,300.8z M314.2,273.5
		c1-0.2,1.6-0.2,2.1-0.4c2.6-0.9,4.6,0,6.3,2.1c1.2,1.5,2.4,2.9,3.6,4.4c1.6,0.1,2.8-0.6,4.2-1.3c-0.7-4.4-0.6-8.8-0.8-13.1
		c-5.1,0-10,0-14.8,0c-0.3,0-0.6,0.2-1.1,0.3C314.3,268,314.1,270.6,314.2,273.5z M337,510.2c-3.2,4.5-5.4,8.9-6,14.2
		c-0.6,5.1-1.5,10.1-1.6,15.3c2.3-2.5,4.8-4.7,7.5-6.3C338.1,530.1,338.2,515.7,337,510.2z M390,414.1c0-0.4,0.1-0.7,0.1-1.1
		c-12.1-1.5-24.2-2.3-36.7-3.6c1.8,2.4,2.8,4.8,3.5,7.3c0.4,0.1,0.7,0.2,0.9,0.1c5.5-0.3,11-1.7,16.6-1c0.7,0.1,1.8,0,2.3-0.4
		c1.9-1.5,4.1-1.2,6.2-1.3C385.2,414.1,387.6,414.1,390,414.1z M518,155.8c2.7-2.9,5.3-5.7,7.9-8.5c0.5-4.5-0.1-8.8-1.7-13.6
		c-1.9,5.8-6,8.9-10.5,11.5c1,3.3,3.1,6,2.5,9.5C516.9,155.2,517.4,155.5,518,155.8z M307.5,278.1c-1.2,2.4-4.1,3.6-4.8,6.8
		c3.1,0.1,5.3-1.1,7.6-2.2c3.3-1.6,6.7-2.5,10.2-0.8c1-0.4,1.7-1.1,2.2-1.9c-0.1-2.5-1.3-4.1-3.2-5.2
		C315.2,274.2,311.9,277,307.5,278.1z M520.4,200.5c-12.7,6.4-21.7,16.2-29,28.9c1.9-1.1,3.1-1.9,4.3-2.6c-0.1-1.8,0.5-3.2,1.3-4.6
		c1.9-3.3,4.3-6.1,7.6-8.1c1-0.6,2.4-1,2.6-2c0.4-2,2-2.7,3.4-3.6c3.7-2.4,7.6-4.5,11.7-6.2c0.1-0.1,0.1-0.3,0.2-0.5
		C521.9,201.4,521.3,201,520.4,200.5z M747.7,522.5c-3.3,2.2-6.8,3.5-10.8,5.6c6,0,11.2,0.1,16.2-0.8c1.7-1.9,1.7-1.9,1.2-4.2
		C752.3,520.4,749.9,524.3,747.7,522.5z M306.2,317.9c2.4,0,4.4,0,6.7,0c-0.4-3,0-5.9,0.2-9.2c-2.8,1.1-5.3,0-7.8,0.7
		C305.9,312.2,306.2,314.9,306.2,317.9z M305.6,277.3c1.6-2,4.6-0.9,6.2-3.1c-1-2.8-0.3-5.7-0.4-8.8c-2.2,0-4.1-0.2-6,0.5
		C306,269.7,306.3,273.4,305.6,277.3z M305.5,287.1c2.3,0.6,4.4,1.6,6.6,1.7c2.2,0.1,4.4-0.7,7.1-1.3c-1.8-1.7-0.3-2.8,0.2-4.2
		c-2.5-0.9-4.6-0.1-6.8,0.4c-0.2,1,0.6,2.2-0.7,2.9c-0.8-0.4-0.1-1.6-1-2C309.4,285.9,307.3,286.1,305.5,287.1z M512.5,151.6
		c-1.7,1.3-2.9-0.8-4.5-0.6c0.2,1.4,2,1.2,2,2.5c-3,3.5-2.8,2.6-2.8,5c1.7,0,2-1.2,2.8-2.4c0.7-1.1,2.1-1.8,3-2.9
		c0.5,0.5,0.7,0.9,1,1.2c0.7-0.9,0.8-1.9,0.4-3.3c-1.6-0.4-2-2.5-3.5-3.4c-0.6,0.4-0.9,0.6-1,1.2
		C510.4,150.1,512.3,149.9,512.5,151.6z M512.6,178.2c1.2-1.6,2.5-3.2,3.7-4.8c0.3-0.4,0.5-0.8,0.6-1.2c0.9-2,0.8-2.4-1.1-3.8
		c-0.3,1.8-0.8,3.4-2.1,4.9C512.7,174.5,512.3,176.3,512.6,178.2z M517.9,161.3c3.6-2.9,6-6.8,6.2-9.7c-1.3,1.2-2.8,2.4-4.3,3.7
		c0.6,0.4,0.9,0.6,1.3,0.9C520.2,158,517.3,158.3,517.9,161.3z M500.8,146.5c2.4,2.2,2.4,2.2,4.2,0.7
		C503.6,147.5,502.4,146.5,500.8,146.5z M425.2,584.4c1,0,1.8,0,2.6,0C427,584.2,426.2,583.1,425.2,584.4z"/>
	<path d="M854.9,442.6c3.2-3.1,7.2-5,11.2-7c2.1-1.1,3.8-2.3,5.2-4.2c2.7-3.6,5.4-7.2,7.8-11.1c3.3-5.5,8.1-9.8,13.4-13.5
		c3.2-2.3,6.5-4.6,10.1-6.1c-0.2-1.2-1-1.4-1.8-1.6c-2.5-0.6-3.7-2.5-4.6-4.6c-2.9-6.7-2.9-13.5-0.9-20.3c0.6-1.9,2-3.3,2.7-5.2
		c0-1.5,0-3.1,0-4.8c-1-0.6-2.7,1.2-3.4-0.7c2.8,0.1,4-2.2,5.6-3.7c0.6-0.6,0.7-1.7-0.4-2.3c-0.5,0.8-0.8,1.6-1.4,2.3
		c-0.6,0.8-1.5,1.4-2.2,2.1c-0.6,0.5-1.4,0.8-1.5,1.7c-1.2,0.5-1.6,1.9-2.6,2.6c-2.8,0.1-3-0.1-3.1-2.7c0.5-0.4,0.8,0,1.1,0.3
		c0.2,0.2,0.4,0.5,0.9,1.1c1.8-2.8,4.5-4.5,6.2-7.1c-2.7,0.1-2.8,4.1-6,3.4c-1.4-1-1.4-1-1.9-3.7c0.3-0.9,1.4-1.1,1.9-2.1
		c-0.7-1-1.1-2.1-0.6-3.4c1.7-1.5,3.1-3.1,4.7-5.7c-3.4,1.4-4.3,4.7-7.6,4.8c0.9,1.2,2-0.4,2.6,0.7c-2.7,1.1-2.7,1.1-5.5-0.8
		c0-0.6,0.7-0.4,1-1c-2.4-0.8-2.5-3.4-3.1-5.2c-0.6-1.8-1.4-2.9-3-3.8c-0.4-0.2-0.9-0.3-1-1.2c4.2,1.1,8.3,1.7,12.6,2.2
		c-2.6,1.5-5.4,0.1-8.4,0.3c2,2,4.7,2.2,6.9,3.7c-2,0.6-3.4-1-5.5-1c1.7,2,3.9,1.9,5.9,2.7c1.2-0.9,2.5-1.9,3.6-2.7
		c1.3-0.4,2.1,0.6,3.2,0.6c6-2.7,9.4-6.4,11.2-12.2c-2.4-1.9-2.5-5.4-5.1-7.4c-2.8,0.7-5.6,1.4-9.2,1.8c3-1.7,5.8-2,8.3-2.9
		c0-0.3,0-0.4,0-0.5c-3.5-6.2-4.2-6.7-11.3-6.1c-5.1,0.5-10.1,1.7-15,3c-0.6,0.2-1.2,0.6-2.5,0.1c5.9-2.6,11.8-3.5,18.3-4
		c-4-1.5-7.6-1.2-11.5-0.6c1.6-1.6,1.6-1.6,6.7-2.2c-9-3.4-16.5,0.8-24,4.7c1.9,0.3,3.4-0.8,5.1-1.3c1.8-0.5,3.5-1.6,5.5-1.5
		c0.2,1.4-1.3,1.3-1.6,2.3c1.7,0.1,3.1-1.5,5.3-1c-4.3,2.2-8.7,3.6-12.3,6.9c2.4,0.8,4.3-1,6.4,0.1c-2.7,1.6-5.7,1.7-8.5,1.9
		c-0.8-0.7,0-1.4-0.3-2.1c-1.6,0.5-1.8,2.4-3.6,3.2c0.9-2.2,0.7-4.2,2.3-5.7c-2.2,0.7-4,2-5.4,3.4c-0.9,0-1-0.7-1.4-1.2
		c0.4-1.1,1.7-1.3,2.2-2.3c-0.9-0.7-1.5,0.2-2,0.6c-1.4,1-2.6,2.2-3.9,3.3c-1.3,1.1-2.4,2.1-2.1,4.2c0.2,1.3-0.7,2.8-1.1,4.2
		c-0.8,2.8-0.4,5.7-1,8.4c-0.3,1.3-0.2,2.7-1,3.8c0.7,1,2,1,2.7,2.1c1.1,4.7-2.9,8.1-4,12.4c0.6,1.1,1.7,1,2.6,1.1
		c1-0.2,1-1.4,1.9-1.5c1.3-0.3,2,1,3.1,1c0.7-0.1,0.9-1.1,1.7-0.9c0.4,0.4,0.4,0.9,0,1.2c-1.3,1-2.9,0.9-4.6,0.9
		c-0.5,1.9-0.9,3.7-1.5,5.8c3.5,0,6.8-0.9,10.2-0.4c-0.1,1.4-1,1.6-1.9,1.7c-1.2,0.1-2.5,0.1-3.7,0.2c-1.6,0.2-3.2,0.4-3.8,2.2
		c0.1,0.7,0.4,1.1,1.2,1.5c1.8,0.1,4.1-1.5,5.5,1.1c-1,1.4-2.5,1-3.7,1.4c-0.9,2.9-1.4,5.9,0.3,8.7c8.6-0.1,16.8-1.2,24.5-5.1
		c-3.1,3.2-7.2,4.4-11.3,6c1.3,2.7,0.9,5.7,1.9,8.2c1.6,3.8,0.7,7.6,1,11.3c0.1,1.6-0.2,3.1-1.7,4.6c-1.4-8-1.1-15.8-2.6-23.2
		c-1.1-0.8-1.9-0.4-2.6-0.2c-1.4,0.3-2.9,0.8-4.3,1c-5.7,0.8-8.2-2-8.2-7.6c0-1.1,0.4-2.2,0.6-3.5c-0.3-1.1-1.9-0.9-2.4-2.1
		c-0.8-1.3,0.3-2.3,0.7-3.7c-1.8-2-0.6-4.7-1.1-7.3c-1.1-0.4-2.6-0.6-3.1-2.5c0.9-2.1,1.8-4.4,2.7-6.6c-0.4-1.2-1.3-2.2-1-3.2
		c0.8-1.5,2.2-0.3,2.8-1.4c-0.6-1.7-2.7-0.2-3.6-2.1c1.7-4.2,1-9.1,1.8-13.9c1.2-7.4,5.6-12.2,12.1-15c6.1-2.7,12.3-5.4,18.7-7.4
		c2.1-0.7,4.2-0.9,6.4-0.5c3.3,0.7,6.7,1.2,10.1,1.7c4.5,0.7,8.1,2.7,10.4,6.8c0.5,0.9,0.9,1.9,2,2.4c2.1-1.1,4.3-1.4,6.5-0.7
		c0.8,0.7-0.1,0.9-0.1,1.3c4.5,3,7.1,7,6.7,12.6c-0.6-1.7-1.1-3.4-1.7-5.1c-1.1-2.8-3-5.1-5.7-6.5c-1.6-0.8-1.9-0.8-4.2-0.2
		c0,1,0.4,1.4,1.4,1.5c-0.5,1.1,0.3,1.6,1.1,2.1c1.1,3.8,2.8,7.4,3.1,11.4c0.3,3.8,1.3,7.6,0.6,11.5c-0.5,2.7-1.2,5.3-2.6,7.7
		c-0.5,0.9-1,1.8-1,2.9c0.2,4.4,0.5,8.9,0.8,13.3c0,0.5,0.3,1.1,0.7,2.4c0.3-5.3-0.3-9.9,1.3-14.4c-0.1,8.1,0.1,16.1,5.6,22.8
		c-3-5.8-3.8-12-3.7-18.4c0-0.7-0.3-1.6,0.9-2.1c0.7,1.8,0.7,3.8,0.8,5.6c0.4,6.9,2.8,13.3,5.6,19.5c0.8,1.7,2.1,3.1,3.8,4.2
		c-5-8.2-8-17-7.9-26.6c0-0.9-0.2-2.1,1.2-2.8c0.6,2.7,0.3,5.4,1.2,8c0.7-0.4,0.3-1.1,0.3-1.6c-0.3-6,0.7-11.8,2.3-17.5
		c0.5-1.8,0.9-3.5,1.4-5.3c1.2-4.1,0.5-8.1-0.9-12c-1.7-4.5-6.8-12.2-11.4-16.4c-2.1-0.8-4.4,0.3-6.9-0.3c1.3-1.6,2.8-1.4,4.2-1.4
		c1.7-0.1,3.3-0.1,4.9,0.9c5.1,3.4,8.2,8.1,9.8,13.9c0.6,2.3,1.1,4.6,2.1,6.8c1.2,2.9,0.9,6,0.4,9.1c-0.8,4.9-2.1,9.8-2.6,14.8
		c-0.5,4.7-0.3,9.3,0.5,13.9c0.2,1.6,0.7,3.2,0.5,4.7c-0.7,5.5,2.1,9.6,5,13.7c0.2,0.3,0.5,0.5,0.7,0.8c0.2,0.3,0.4,0.5,0.7,1
		c-3-0.2-5.2-1.4-7.2-3.3c-4.3-4-8-8.4-9.9-14.1c-0.1-0.3-0.4-0.6-0.7-1.1c0.1,2.8,0.7,5.2,1.8,7.4c-0.9,2.2-0.9,2.2,4.8,15.1
		c-1.5-0.4-2.1-1.5-2.8-2.4c-1.9-2.7-3.3-5.7-4-9c-1.4-7-3.3-13.9-4.4-21c-0.3-2.3-0.3-4.5-0.4-6.8c-1.1,0-1.1,0.7-1.1,1.3
		c-0.1,4.3-0.3,8.6-0.3,13c0,2.3,0.8,4.5,1.6,6.6c1.6,4.5,4,8.7,6,13c0.7,1.4,1.3,2.8,2,4.3c-1,0.5-1.3-0.3-1.7-0.7
		c-4.6-5.4-7.8-11.4-9.4-18.3c-0.5-2.2-0.4-4.4-0.1-6.7c0.5-3.2,0.5-6.5,0.7-10.2c-1.9,1-2.8,2.4-4,3.9c2.9,3.5,1.2,6.5-1.2,9.3
		c-0.9,1-1.7,2.1-2.5,3.2c-0.7,1-1.2,2.2-1.1,3.5c0.1,1.9,0.7,3.7,0.5,5.7c-0.1,0.6,0.4,1.3,0.8,1.8c2.8,3.6,5.7,7.1,9.9,9.2
		c1.9,1,3.8,2,4.9,3.6c6.1,1.1,11.5,3.1,16.5,6.1c5.5,3.3,8.3,8.9,10.6,14.6c1.4,3.4,2,7,2.2,10.6c0.4,5.6,2.4,10.8,5,15.8
		c5.9,11.3,11.6,22.7,13.6,35.5c0.5,3.6,1.1,7.2,1,10.8c-0.1,1.7,0.5,3.4,1,5c1.6,5.3,1.5,10.5,0.3,15.8c-0.5,2.2-0.7,4.5-1.1,6.7
		c-0.2,1.2-0.3,2.5-1.5,3.7c-3.9,0.1-8.1,0.2-12.3,0.6c-4,0.4-7.9,1-11.8,2c-5.2,1.4-10.5,2-15.9,1.7c-1.9-0.1-3.8-0.3-5.8,0.2
		c-0.5,5.7,1,10.9,2.7,16.1c1.6,5.1,4.2,9.7,7.4,14.1c4.2,5.6,6.8,12,8,19c0.8,4.6,1.7,9.2,1.3,13.7c0.8,1,1.6,0.5,2.4,0.5
		c7.7-0.2,15.4-1,23.1,0.3c3.3,0.5,6.8,0,10.2,0.2c8.2,0.5,16.4,1,24.5,1.1c3.1,0,6.1-0.1,9.2-0.7c1.1-0.2,2.2-0.2,3.4-0.1
		c5.3,0.8,10.6,1.7,15.9,2.3c3,0.3,5.5,1.3,7.7,3.5c0.8,6.8-1.1,13.4-1.7,20.2c-0.4,0.7-1,1.2-1.2,1.3c-7.8,0.1-15.1,1.1-22.6,1.8
		c1.9,9.1,2.7,17.9,3.6,26.7c0.6,5.5,0.8,11.1,1.1,16.7c0.2,3.2,0.5,6.3,1.6,9.4c0.3,0.7,0.7,1.5,0.2,2.3c-0.8,0.5-1.6,0.5-1.9-0.5
		c-0.7-2.3-1.6-4.5-1.9-6.9c-0.9-7.4-0.7-14.8-1.5-22.1c-0.7-6.4-1.3-12.9-2-19.3c-0.2-1.9-0.5-3.8-0.2-6c-5.3,0.7-10.5,1.4-15.6,2
		c-10.5,1.3-21.1,1.9-31.6,2.7c-17.2,1.2-34.5,2.2-51.6,5c-1.7,0.3-3.1-0.2-4.2-0.7c-18,2.9-35.5,6.2-53.3,8.8
		c2.8,12.1,3.1,24.3,4,35.8c-0.8,1.2-1.4,1.1-2,1.1c-0.5,0-0.9,0-1.4-0.1c-0.1-0.3-0.4-0.6-0.4-0.9c-0.1-2.4-0.2-4.8-0.1-7.2
		c0.3-7-0.6-13.8-1.7-20.7c-0.4-2.7-1.2-5.3-2.1-7.9c-0.8-2.5-1.8-4.9-2-7.5c-0.1-1.6-1.1-3-1.8-4.4c-1.8-3.4-2.8-6.9-2.6-10.8
		c0.1-1.3,0.2-2.7,1.4-3.5c0.6,0.3,0.7,0.8,0.7,1.2c0,0.5-0.1,0.9,0.5,1.6c7.1,2.3,14.7,4.3,22.5,5.3c3.2,0.4,6.3,1,9.5,1.2
		c7.4,0.6,14.7,0.4,22-1.5c4.8-1.3,9.6-2.7,14.5-3.9c1.6-0.4,2.7-1.5,4-2.1c1.2-7.9-0.9-14.9-4.1-21.7c-2.1-4.5-4.7-8.8-7.5-13
		c-0.8-1.2-1.7-2.1-3-2.8c-3.5-2-6.9-4-10.3-6c-2.5-1.4-5.1-2.6-7.8-3.3c-1.7-0.4-3.3-0.9-4.3-2.4c-7,0-13.8,0-20.6,0
		c-2.8,0-5.4,0.4-8.1,1c-9.6,1.9-19.1,3.9-28.7,5.9c-5.3,1.1-10.2,3.4-14.6,6.3c-3.6,2.4-5.6,6.4-6.8,10.7
		c-1.1,3.8-0.3,7.5,0.4,11.1c1.1,5.5,2.6,11,4.2,16.5c1.7,6,3.5,12,4.3,18.2c0.6,4.6,2.4,8.9,3,13.5c0.3,2.4,0.5,4.7,0.7,7
		c0.4,5.8,1.9,11.4,2.7,17.1c0.1,1,0.6,2,0.2,2.9c-0.8,0.6-1.5,0.3-2.1,0c-3-8.9-3.8-17.9-3.6-27c0-2.7,0.1-5.5-2-7.9
		c-0.4,0-0.8-0.1-1.3,0c-8.4,1.5-16.7,3.1-25.1,4.3c-4.9,0.7-9.8,1.8-14.9,1.2c-1.5-0.2-3.2,0.4-4.7,0.8c-9,2.4-18.4,3.2-27.6,4.3
		c-8.1,0.9-16.3,0.5-24.5,0.4c-4.2-0.1-8.4-0.4-13,0.5c1.4,8.6-0.5,17-0.5,25.3c-0.9,0.8-1.5,0.7-2.4,0.2c0.8-8.2,0-16.6,0.7-25
		c-0.7-1-1.7-0.6-2.5-0.7c-4.4-0.1-8.8-0.5-13.2-1.4c-2.1-0.4-4.3-0.4-6.4-0.6c-3.7-0.4-4.9-1.7-5.2-5.4c-0.1-1.6-0.1-3.2-0.1-4.8
		c-0.1-1.7,1.7-2.7,1.3-4.6c-0.4-1.5,0-3.2,0.5-4.7c1-0.7,2-1.5,3-2.3c-0.3,1.1-0.8,2.1-0.7,3.3c0.6,5.3,0.3,10.6-0.8,16.2
		c2.8-0.2,5.3-0.4,8.1-0.5c0.1-6.3-0.1-12.3,0.6-18.5c-1.8-0.4-3.5,0.4-5.2-1c7.7-0.6,15-1.2,22.3-0.3c-5.3,0.6-10.6,0.3-16.1,1.2
		c-0.5,6.4-0.1,12.7-0.4,19c3.1,1.2,6.3,2,9,1.4c3.5-0.7,6.7,0,10,0c7,0.1,14.1,0.3,21.1,0.6c5.2,0.2,10.3,0.4,15.4-1.1
		c1-0.3,2-0.4,3-0.5c3.2-0.3,6.4-0.5,9.5-0.9c9.3-1.3,18.5-3.4,28-4.3c7-0.6,13.9-2.1,20.8-3.3c3.4-0.6,6.9-0.8,10.4-2.2
		c-4.2-8.7-5.5-18.1-7.6-27.4c-4.7,0.2-9.3,0-14.1-1.5c-0.4,1.3-1.4,1.5-2.6,1.5c-1.3,0-2.5,0.2-3.7,0.5c-2.8,0.8-5.7,1.1-8.5,2.1
		c-3.2,1.2-6.7,1-10.1,0.8c-2.9-0.2-5.7,0-8.5,0.5c-4.4,0.7-8.8,1.4-13.2,1c-4.6-0.5-9-0.6-13.5,0.6c-1.5,0.4-3.1,0.6-4.7,1
		c-3.5,0.9-7.1,1.5-10.7,1.9c-9.2,1.1-18.5,1.5-27.6,4.3c-3.9,1.2-7.4,2.7-10.2,5.7c0.8-3.6,3.2-5.8,6.6-6.5
		c2.7-0.6,5.2-1.5,7.7-2.4c5.6-2.1,11.4-2.9,17.3-3.3c1.3-0.1,2.7,0,4-0.5c0.1-0.3,0.2-0.5,0.1-0.7c-3.6-7.3-4.1-15.3-5.4-23.1
		c-0.2-1-0.3-2-0.7-3c-1.1-2.8-0.7-5.5-0.1-8.4c1-4.6,3.7-8.2,7-11.4c3.1-3,6.7-5.6,10.5-7.6c3.5-1.8,7.5-2.7,11.4-3.3
		c8.1-1.2,16.2-2.3,24.4-2c4.3,0.1,8.6-0.6,12.9-1c4.2-0.4,8.4-0.4,12.6,0c2.7,0.3,5.4,0.3,8.1-0.4c4.5-1.2,9-0.7,13.6-0.1
		c7,1,14,1.2,21.1,1.5c3.5,0.1,7,0.3,10.5-0.2c1.5-0.2,2.9-0.5,4.5-1.2c0.3-1.7,0.6-3.5,1-5.5c-3.5-0.2-7.3,0.6-8.6-3.6
		c-5.7,0-11.3,0.2-16.7-0.6c-4.4,2.8-5.1,2.7-7.9-0.7c-2.8-0.5-5.7-0.9-8.6-1.4l0.1,0.1c-0.1-1.8-1.9-1.3-2.8-2.3
		c-0.3-16.9-2.7-33.9-2.2-50.9c0-1.7-0.2-3.4,0.6-5.4c12.8,0.2,25.7-1,38.7,0c0.2,4.5,1.4,8.9,1.2,13.9c2.7-0.7,5.2-0.6,8-0.4
		c0.9-6.9-0.5-13.6-0.8-20.4c-3.1-0.3-5.9,0.5-8.7,0.6c-1,0.7,0,1.9-0.5,2.3c-12.7,2.7-25.2,1.7-37.7,2c-1.6,1.1-3,2.5-5.2,2.9
		c-0.8,6.7-1.6,13.4-3.9,19.8c-0.5-7.3-0.9-14.7,2.5-21.7c1.3,0,2.4-0.3,3.3-1.3c1.4-1.6,3.3-1.9,5.3-2c3.2,0,6.4,0,9.4,0
		c3.1-2.9,6-2.9,9.5-0.1c4.8,0.3,9.7-0.5,14.4-0.7c0.7-0.8,0.2-1.8,1-2.3c3-1.6,7.4-2.3,12-1.7c0.8,2.2,1.2,4.6,2.7,6.7
		c0.8,1.1,0.6,3,0.9,4.7c1.3,0.5,2.6,0.5,4,0.5c14.6,0.1,29.1,0.3,43.7,0.3c7.5,0,14.9-1.4,22.3-2.8c1.3-0.2,2.6-0.7,4-0.3
		c1.2-3.8,1.9-7.5,3.4-11c-1-2.7-1.7-5.4-3.5-7.9c-6.6-0.5-11.8-4.1-17.2-7.9c0.8-1.5,0.4-2.7-0.9-3.8c-2.2-1.9-3.6-4.4-4.4-7.2
		c-1.6-5.7-3.8-11.2-4.3-17.1c-0.9-10.1,2.2-18.4,10.6-24.4c1.8-1.3,3.2-2.9,4.6-4.6c1.1-1.3,2.2-2.6,3.9-3.2
		c-0.7-0.9-1.5-1.2-2.4-1.6c-5.2,2.6-10.2,5.5-14.2,9.8c-2,2.1-3.9,4.4-5.7,6.8c-2.6,3.4-5.8,6.3-8.1,10.1c-1.3,2.2-3.7,4.1-6,5.5
		c-5,3.2-10.2,6.3-15.8,8.6L854.9,442.6z M883.7,569c0.6,0.8,1.4,0.8,2.3,0.4C885.1,568.8,884.4,569.2,883.7,569
		c-0.1-0.6,0.3-1.1,1-1.4c0.7-0.3,1.2-0.9,1.8-1.3l-0.1,0.1c0.5,0,0.9,0.1,1.4,0c9.5-1.6,18.6-4.3,27.5-7.8c0.6-0.3,1.2-0.7,1.8,0
		c0.4,0.9-0.2,1.5-0.8,2c-1.1,1-2.4,1.7-3.8,2.3c-7.5,3.2-15.1,5.8-23.2,6.4c-0.6,0-1.4-0.2-1.9,1c1.5,0.3,2.9,0.5,4.3,0.8
		c3.3,0.5,6.5,1,9.8,1.6c2.1,0.4,4.2,1.1,6,2.3c0.7,0.5,1.2,1.1,0.5,1.8c-7.4-4-15.7-3.2-23.5-4.8c0.5,0.5,1.1,0.8,1.7,1
		c13.3,4.5,20.9,14.3,25.3,27.1c0.5,1.5,1.2,2.9,1.9,4.3c2.4,4.8,3.1,9.7,1.6,14.9c-0.2,0.7-0.9,1.3-0.2,2.3
		c3.2-2.4,6.4-4.8,9.6-7.1c2-1.5,3.4-3.3,4.1-5.7c2.6-9,3.5-18.2,0.7-27.2c-2.9-9.2-7-17.9-13-25.6c-0.5-0.6-0.8-1.4-1.1-2.1
		c-0.9-2-1.5-4-2-6.1c-1.1-4.4-1.4-8.9-1.5-13.7c-15.5,1-30.8-0.1-46.1,0.1c-3.2,3.1-6.9,2.7-10.6,2c-4.4,1.5-9,1.3-13.6,1.9
		c-0.1,5.6,0.5,10.9,1.1,16.2c-1.2,1.2-3.1,0.1-4.5,1.3c-0.4,1.9-0.6,3.9-0.5,6c11.4,3.5,23,4.7,35.4,5.1c-6.9,2.3-25.2,0.5-38-3.5
		c-3.8,1.4-7.8,1.7-12.2,2.1c2.4,2.4,3.4,5.3,4.6,8.1c6.2-1.1,12.1-2.8,18.3-3.2c4.2-0.3,8.3-1.4,12.5-1.4c7.5-0.1,15,0.3,22.5,0.5
		C881.4,569.2,882.6,569.4,883.7,569z M801.8,504.9c-0.5,0-0.9,0-1.4,0c-1.2-3.8-0.4-7.6-0.4-11.7c-3.3,0.1-6.4-0.9-9.9-0.3
		c0.6,17.6,2.6,35,2.8,52.2c2.8,0,5.3,0,8.1,0c-0.7-3.1-0.4-5.9-0.7-8.7c-1.9-1.1-3.2-2.8-4.7-4.3c0.6-2.2-0.7-3.9-1.6-5.2
		c-0.5-1.4,0.7-2,0.4-3c-0.7-1.6-1.8-2.9-2.1-4.6c0.2-1,0.3-2,0.6-3c0.3-1,0.7-1.9,0.9-2.8c0-1.3-1.2-2.1-1-3.4
		c1.4-5.4,1.4-5.4,7.1-5.2c0.2,0,0.5,0,0.7-0.1c-0.7,2.4-3,0.8-4.5,1.9c-0.3,1-0.8,2.1-1.2,3.2c0.3,1.1,1.3,1.7,1.3,3.1
		c-1.2,1.6-1.7,3.8-2.5,5.8c0.8,1.5,2.4,2.4,2.5,4.2c-0.1,0.8-0.9,1.5-0.7,2.5c0.1,1.2,1.5,1.7,1.7,2.8c0.2,1-0.2,2,0.4,3.3
		c1.2,0.2,2.3,1.2,3,2.5c1.1,0,2-0.1,2.9,0c3.1,0.4,6.1-0.3,8.9-1.6c2.6-1.2,4.4-3.3,5-6.8c-5.6,4.1-11.3,5.7-17.8,2.9
		c0.9-1.2,1.6-0.4,2.3-0.4c3.2,0.1,6.5,0.9,9.4-0.7c2.6-1.4,5.3-2.4,8-3.5c0.6,0.8,0,1.9,0.8,2.7c1.2,1.5,2.8,1.9,4.8,1.7
		c1.2-0.1,2.5-0.3,3.7-0.3c1.9,0,3.8-0.1,5.7,1c-1.8,2-3.8,1.1-5.6,1.3c-2,0.2-4,0.2-6,0.3c0.3,1.8,1.5,2.3,2.7,2.6
		c2.5,0.7,5.1,1.1,7.7,1.6c1.3,0.2,2.5,0.4,3.6-0.4c1.3-0.9,3-0.7,3.9-0.1c2.4,1.4,4.8,0.7,7.3,0.6c3.6,0,6.9-2.1,10.7-1.2
		c0.8,0.2,1.8-0.3,2.6-0.7c2.6-1.5,5.3-1.8,8.2-1.9c5.9-0.2,11.8,0.4,17.7-0.4c0.8-0.1,1.6,0,2.4,0.1c3.2,0.4,6.3,0.4,9.5,0.5
		c8.1,0.2,16.1-1,24.2-0.4c2.8,0.2,5.7-0.1,8.5-0.8c7.4-1.9,15-2.5,22.6-2.6c1.7,0,3.4-0.2,5-0.8c0.6-3.5,1-6.9,1.7-10.2
		c1-4.7,0.7-9.2-0.5-13.8c-1.2-4.4-2-8.9-1.6-13.5c0.1-0.9-0.2-1.8-0.4-2.7c-3.6-11.6-8.1-22.9-13.2-33.9c-1.7-3.7-3.3-7.5-4.2-11.5
		c-1-4.7-2.2-9.3-3.4-13.9c-1.9-7.6-6.3-13.1-13.8-16.1c-4.7-1.9-9.2-4.5-14.4-6c-2.6,0.2-4.4,2.1-5.9,4.3c-1.6,2.2-3.1,4.5-4.9,6.5
		c-2.2,2.4-3.7,5.1-5.4,7.8c-3,4.8-3.4,9.8-2,15.1c1.9,7.1,3.8,14.2,8.2,20.4c1.2,1.7,2.5,3.2,4.3,4.2c2.4,1.4,4.8,2.7,7.3,3.7
		c0.7,0.3,1.2,1,2.2,0.3c-2.2-4.9-3.6-10-4.4-15.4c-1.3,0.3-2.2,1.5-3.6,1.1c0.9-1.5,2.1-2.4,3.5-2.9c0.3-2.1-2.7-2.6-2.1-4.7
		c1.7,0.2,2.5,1.6,3.8,2.1c0.8,2.2,1,4.4,1.4,6.5c0.5,2.5,0.6,5.2,1.9,7.2c1.8,2.5,2.2,5.4,3.3,8.1c1.1,2.8,1.7,5.9,4.3,7.9
		c-0.6,1.6,0.3,2.8,0.9,4c2.8,6,7.3,11,9,17.3c1.9,1,4-0.1,5.8,1.4c-1.4,0.7-2.5,1.7-3.8,1.9c-5.4,1-10,3.7-14.9,5.8
		c-3.2,1.3-6.2,2.7-9.8,2.7c-1.3,0-2.7,0.2-4,0.6c-8.4,2.6-17.3,2.5-25.8,4.1c-6,1.1-12.3,0.2-18.3,1.8c-0.6,0.2-1.3,0-2,0
		c-7.6-2.6-12.7-8.5-18.7-13.3c-1,0.6,0.8,1.7-0.5,2.4c-3.6-1-7-0.1-10.3,1.6c-1.4,0.8-2.9,1.6-4.5,1.4c-2.3-0.4-4.2,0.5-5.9,1.2
		c-1.2,1.7-1.3,3.3-0.7,4.9c-6.9,3.8-13.3,2.4-20.2-0.5c1.7-1.5-0.3-3,0.8-4.5c1-1.4,2-2.7,3.1-4
		C801.6,505.7,801.8,505.3,801.8,504.9c1.7-2.1,4.7-1.7,6.8-3.4c-1-2.9-0.7-5.8-0.3-8.8c-2.1-0.2-4-0.5-5.9,0.4
		C802.5,497.1,803.3,501.1,801.8,504.9z M819.1,564.9c-7-0.2-13.6-0.4-20.2-1.2c-1.1-0.1-2.3-0.1-3.4,0.1c-5.9,1-11.8,0.8-17.7,0.4
		c-4.7-0.3-9.3-0.3-14,0.3c-5.9,0.8-11.8,1.3-17.7,1.2c-5.5-0.1-10.9,0.4-16.3,1c-4.7,0.5-9.1,2-13.1,4.6
		c-5.3,3.4-10.4,6.8-15.6,10.2c0.1,3.3-1.9,6.1-1.9,8c2.7,11.4,2.6,22.2,8.4,32c0.1,0.1,0.9-0.1,1.7-0.3c5.7-1.2,11.6-1.3,17.4-2
		c0.7-0.1,1.4,0.1,2,0.1c3.3-0.2,6.7-0.3,10.2-1c-0.9-2.3-2.3-4-3.2-5.9c-1.3-2.7-3-4.9-5.9-6.3c-1.3-0.6-2.1-1.9-2.1-3.7
		c2.3,1.4,3.7,3.2,5.5,4.8c2.5,0,4.6,1.8,7.1,2c3.6,0.3,7.3,0.5,10.9,0.4c8-0.1,15.9-0.1,23.8,1.6c3.1,0.7,6.2,1.5,9.4,1.8
		c3.7,0.3,7.4,1,11.3,0.9c-0.2-1.4-0.3-2.4-0.4-3.4c-0.5-3-1-6.1-1.4-9.1c-1.1-7.4,1.2-10.3,4.5-16.5c0.9-1.8,2.5-2.9,4.3-3.8
		c4.7-2.4,9.6-4.3,14.7-5.4c2.8-0.6,5.4-1.5,7.9-2.5C825,569.1,820.5,568.3,819.1,564.9z M846.4,641.4c2.1,0.2,3.8,0,5.4-0.3
		c18.4-2.7,36.9-5.4,55.3-8c15.4-2.2,31-3,46.6-3.9c11.2-0.7,22.5-1.2,33.7-2.5c10.4-1.2,20.7-2.8,31.2-3.5c2-0.1,4.1,0,6.1-0.8
		c0.5-6.2,2.6-12.1,2.2-18.2c-3.8-2.6-8.2-1.9-12.2-2.9c-5.3-1.3-10.8-1.6-16.2-0.3c-1,0.2-2,0.2-3.1,0.2
		c-9.8,0.1-19.6-0.1-29.3-1.2c-8.5-1-17-1.1-25.5-0.7c-2.3,0.1-4.7,0.4-6.9,1c-0.1,0.3-0.2,0.4-0.2,0.5
		c-2.5,10.4-8.2,18.1-18.5,21.9c-1.5,0.5-2.5,1.5-3.1,2.9c-2.1-0.6-3.9,0.3-5.5,0.9c-7.5,2.7-15.2,4.7-23.2,5.1
		c-4.2,0.2-8.4,0.5-12.6-0.1c-10.6-1.5-21.2-3.2-31.3-7.5c0.3,3,1,5.8,2.6,8.2C843.9,635,845.4,638,846.4,641.4z M911.8,507.3
		c0.6-4.7,1.8-9.3,2.6-13.7c-24.6,3.6-48.9,4.7-73.5,2.3c0,2.4,0,4.6,0,6.8c2.1,1.3,3.9,2.8,5.7,4.4c2.5,2.3,5.3,4.2,8.2,6.1
		c2.3,1.4,4.6,2,7.1,1.8c3.8-0.3,7.7-0.5,11.4-1.9c1.3-0.5,2.6-0.5,4-0.6c3.3-0.1,6.6,0.1,9.9-0.4
		C895.4,510.6,903.5,508.9,911.8,507.3z M826.3,535.8c-1.3-0.6-2.4-1.1-3.6-1.6c-1-0.4-1.9-1.2-1.8-2.2c0.1-1.8-1.4-2.5-2.1-4.3
		c-1.5,3.9-3.7,6.4-7.5,7.3c1.2,3.4,0.9,6.8,0.9,10.3c5-0.1,9.8,0.8,14.9,0.3C825.8,542.1,826.9,539,826.3,535.8z M827.1,505.3
		c-0.2-2.1-0.3-4.3-0.6-6.6c-0.3-2.2,0.4-4.5-0.3-6.5c-5.3,0-10.4,0-15.3,0c0,2.9,0,5.6,0,8.3c1-0.2,1.6-0.3,2.3-0.5
		c2.8-0.8,4.9,0.2,6.5,2.4c1,1.4,2.2,2.8,3.3,4.2C824.4,506.5,825.7,506.2,827.1,505.3z M919.5,482.8c-1.4,8.2-3.5,15.7-5.6,23.7
		c5.5-2.1,10.5-4,15.4-5.8C927,494.3,923.6,488.8,919.5,482.8z M828.4,536.3c0,1.3,0.1,2.2,0,3.1c-0.1,1,0.5,1.9,0.4,3
		c-0.1,3.1,0.5,4.4-4.3,5c-5.6,0.8-11.1,0.3-16.7,0.4c-1.3,0-2.6-0.3-4.6,0.6c9,0.5,17.2,2.3,25.9,1.2c0.9,0.5,0.3,2.1,1.9,3
		c1.3,0.2,3.1,0,5-0.5c0.9-2.8,0.7-5.5,0.4-8.3c-1.9-0.8-4-0.3-5.7-1.8c2-0.7,4.1,0.2,5.9-0.7c0.1-1.3,0.4-2.5,0.1-3.9
		C833.7,538,831.2,536.7,828.4,536.3z M774.5,615.5c0-0.4,0-0.7,0-1.1c-12.1-1.5-24.2-2.2-36.7-3.6c1.9,2.4,2.8,4.9,3.6,7.3
		c0.3,0.1,0.5,0.1,0.6,0.1c5.6-0.2,11.2-1.8,16.9-1c0.6,0.1,1.5,0,2-0.4c2.3-1.6,5-1.3,7.5-1.4C770.4,615.5,772.4,615.5,774.5,615.5
		z M902.5,357.3c2.8-3,5.4-5.8,7.9-8.4c0.5-4.5,0-9.3-1.8-13.2c-0.9,2.6-2.3,4.8-4.2,6.6c-1.8,1.8-4.1,3.1-6.1,4.5
		c1.1,3.3,3,6,2.5,9.4C901.4,356.6,901.8,356.9,902.5,357.3z M799.6,512.2c3-0.4,5.2-1.4,7.5-2.4c3-1.5,6.3-2.7,9.7-0.9
		c0.2,0.1,0.4,0,0.8,0.1c0.7-0.4,1.4-0.9,1.9-1.7c-0.4-4.4-2.2-5.7-6.3-5.2c-3.2,0.5-5.7,2.8-8.9,3.1
		C803,507.6,800.1,508.8,799.6,512.2z M803.3,545.1c2.3,0,4.4,0.3,6.7-0.2c-1.2-2.9,0.2-5.7-0.2-8.4c-2.6,0-4.9,0-7.5,0
		C802.6,539.3,802.9,542,803.3,545.1z M801.7,514c4.8,1.7,9.1,2.5,13.8,0.5c-1.1-1.3,0.2-2.6,0.5-4.1c-2.4-1.1-4.4,0-6.2,0.2
		c-1.1,1,0.1,2.4-1,3.1c-0.7-0.5-0.1-1.4-0.9-2C806.2,512.7,804.2,513.2,801.7,514z M898.9,352.7c-1.2-0.6-1.9-1.8-2.8-2.8
		c-1.1-1.2-1.3-0.1-1.8,0.5c0.9,1.2,2.6,1.1,2.7,2.7c-1.6,1.5-3-0.9-4.6-0.5c0.4,1.2,1.9,1.1,2.1,2.4c-1.1,1.4-2.9,2.5-3.2,4.8
		c1.1,0.3,2.1,0,2.2-0.6c0.6-2.1,2.7-2.8,3.7-4.3c0.8,0,0.6,1,1.3,0.9C899.1,354.9,899.2,354,898.9,352.7z M900.5,369.8
		c0.2,3.8-4.3,5.8-3.6,9.9C902.2,373.8,902.7,372.6,900.5,369.8z M902.4,362.8c3.6-2.9,6-6.8,6.2-9.7c-1.3,1.2-2.8,2.4-4.3,3.7
		c0.6,0.4,0.9,0.6,1.3,0.9C904.7,359.5,901.7,359.8,902.4,362.8z M890.1,348.9c-2-0.4-3.3-0.6-4.6-0.9
		C886.6,349.1,887.7,350.4,890.1,348.9z M838,551.5c0.5,0.5,1,0.6,1.5,0.2c0-0.7-0.1-1.4-0.8-2C838.5,550.4,838.3,551,838,551.5z"/>
	<path fill="none" d="M283.8,433.1c2.7-2.9,6-4.4,9.9-5.6c9.1-2.8,18.5-3.3,27.9-4.4c3.6-0.4,7.2-1.1,10.7-1.9
		c1.4-0.4,2.9-0.6,4.3-0.9c4.6-1.1,9.2-1.1,13.8-0.6c4.4,0.5,8.9-0.2,13.2-1c2.8-0.5,5.6-0.6,8.5-0.4c3.4,0.2,7,0.4,10.1-0.8
		c2.8-1.1,5.7-1.3,8.5-2.1c1.1-0.3,2.2-0.5,3.4-0.5c1.2,0,2.6,0.2,2.9-1.5c4.7,1.5,9.3,1.7,14,1.5c0.9,1.8,0.8,3.9,1.3,5.9
		c1,3.8,1.9,7.7,2.7,11.6c0.7,3.5,2.4,6.6,3.6,10c-3.5,1.4-7,1.6-10.4,2.2c-7,1.3-14.1,2.7-21.2,3.4c-6.5,0.6-12.8,1.9-19.1,2.8
		c-1.3-0.8-0.5-2-1.1-3.1c0,1.2,0,2.1,0,3.1c-3.1,1.2-6.3,1.3-9.4,1.6c-5.4,0.5-10.9,1-16.2,2.4c-2.3,0.6-4.7,0-7-0.1
		c-10.2-0.5-20.5,0.1-30.7-1.2c-2.4,1.1-4.8,0.7-7.3,0.3c-1.6-0.2-3.1-0.6-4.7-0.9c0-6.5,0-12.8,0-19.3c5.5-0.8,10.8-0.7,16.1-1.2
		c-7.3-0.9-14.5-0.3-22.2,0.3c1.6,1.5,3.3,0.5,5.1,1.2c-0.6,5.9-0.5,12-0.6,18.3c-2.7,0.2-5.3,0.4-8.1,0.6c1-5.5,1.3-10.8,0.7-16.1
		c-0.1-1.2,0.4-2.2,0.6-3.3L283.8,433.1z M377,432.4c0,3.2,0,6.5,0,9.7C378.4,439.7,378.1,435.7,377,432.4c0.1-0.3-0.1-0.8,0.6-1.3
		c5.7,0.4,11.7,0,17.6-1.2c-6.5,0-13,0-19.6,0C376.1,431,376.2,431.9,377,432.4z M407.9,440.2c0.2,0,0.5,0,0.7,0
		c0.6-1.8-0.2-3.7-0.2-5.6c0.1-1.9-0.1-3.8-0.4-5.7c0.6-0.4,1-0.8,1.5-1.1c-1.3,0.2-1.8-1.1-3-1.5c-0.2,2-2.2,1.4-3.1,2.4
		c1,0.8,2.3-0.2,3.4,0.7C407.2,433,407.5,436.6,407.9,440.2z M329.4,433.8c-2.5-0.7-8.9-0.9-11.4-0.4
		C321.6,434.7,326.4,434.8,329.4,433.8z M412.3,425.4c0-0.3,0-0.6-0.1-1c-3.4-0.4-6.7,0.1-9.9,1.7C405.7,426,409,425.7,412.3,425.4z
		 M337.2,434.8c4.5,0.5,8.8-0.3,13.1-1.5C346,433.8,341.6,434.3,337.2,434.8z M371,430.1c-3.4-0.6-6.6,0.4-9.7,1.5
		C364.7,431.9,367.9,431.2,371,430.1z M297,436c-1,3.4-2.2,6.9-1.6,10.7C295.9,443.2,296.5,439.6,297,436z M335.8,445.1
		c-0.1,0-0.1,0-0.2,0c0,1.4,0,2.9,0,4.3c0.1,0,0.1,0,0.2,0C335.8,447.9,335.8,446.5,335.8,445.1z M310.3,438.5c0.1,0,0.2,0,0.3,0
		c0.1-1,0.1-2,0.2-3c-0.1,0-0.3,0-0.4,0C310.3,436.5,310.3,437.5,310.3,438.5z M395.6,427.6c-0.3-0.4-0.6-0.3-0.8-0.1
		c-0.2,0.2-0.8,0.1-0.7,0.6C394.7,428.2,395.4,428.5,395.6,427.6z"/>
	<path fill="none" d="M668.2,634.5c2.8-3,6.3-4.5,10.2-5.7c9-2.8,18.3-3.2,27.6-4.3c3.6-0.4,7.2-1.1,10.7-1.9c1.5-0.4,3.1-0.6,4.7-1
		c4.5-1.1,8.9-1,13.5-0.6c4.4,0.5,8.9-0.2,13.2-1c2.8-0.5,5.6-0.6,8.5-0.5c3.4,0.2,7,0.4,10.1-0.8c2.8-1,5.7-1.3,8.5-2.1
		c1.2-0.3,2.4-0.6,3.7-0.5c1.2,0,2.3-0.1,2.6-1.5c4.8,1.5,9.4,1.7,14.1,1.5c2.1,9.4,3.4,18.7,7.6,27.4c-3.5,1.5-7,1.6-10.4,2.2
		c-6.9,1.2-13.8,2.7-20.8,3.3c-9.4,0.8-18.6,3-28,4.3c-3.1,0.4-6.3,0.6-9.5,0.9c-1,0.1-2.1,0.2-3,0.5c-5.1,1.5-10.2,1.3-15.4,1.1
		c-7-0.3-14.1-0.5-21.1-0.6c-3.3,0-6.6-0.7-10,0c-2.7,0.6-5.8-0.2-9-1.4c0.3-6.3-0.2-12.6,0.4-19c5.5-0.9,10.8-0.6,16.1-1.2
		c-7.3-0.9-14.5-0.3-22.3,0.3c1.7,1.4,3.4,0.6,5.2,1c-0.7,6.1-0.5,12.2-0.6,18.5c-2.7,0.2-5.3,0.4-8.1,0.5c1-5.5,1.3-10.8,0.8-16.2
		c-0.1-1.2,0.4-2.2,0.7-3.3L668.2,634.5z M761.5,633.9c0,3.2,0,6.5,0,9.7C762.9,641,762.7,637.3,761.5,633.9c0-0.4,0.1-0.8,0.2-1.4
		c6.1,0.4,12.1,0,18-1.2c-6.5,0-13,0-19.6,0C760.5,632.5,760.6,633.4,761.5,633.9z M791,627.8c0.1,2.1-2.1,1.6-3.1,2.6
		c1.2,0.6,2.3-0.2,3.4,0.6c0.1,1.7,0.2,3.7,0.5,5.5c0.3,1.7-0.2,3.7,1.5,5.1c-0.2-3.8-0.4-7.6-0.7-11.1c0.4-0.7,1.3-0.5,1.1-1.5
		C792.7,629.4,792.2,628.5,791,627.8z M713.8,635.8c0-0.4,0-0.7,0-1c-3.8,0-7.6,0-11.4,0C706.2,636.3,710,635.8,713.8,635.8z
		 M796.7,626.9c-3-1.5-7.3-1-9.9,0.8C790.3,627.4,793.5,627.1,796.7,626.9z M721.7,636.2c0,0.2,0,0.5,0,0.7c4.4-0.3,8.7-0.9,13-2.2
		C730.4,635.2,726.1,635.7,721.7,636.2z M755.5,631.6c-3.4-0.6-6.6,0.4-9.7,1.5C749.2,633.3,752.4,632.6,755.5,631.6z M679.9,648.1
		c0.5-3.6,1-7.2,1.6-10.9C680.2,640.7,679.4,644.3,679.9,648.1z M720.3,646.4c-0.3,1.5-0.3,3,0,5.3
		C720.3,649.4,720.3,647.9,720.3,646.4z M695.2,637c-0.5,0.8-0.7,1.9-0.3,3.6C695,639,695.1,638,695.2,637z M778.4,629.5
		c0.7,0.2,1.3,0.4,1.7-0.4C779.4,628.5,779,629.2,778.4,629.5z M751.6,648.9c-0.3,0.6-0.3,1,0,1.4
		C751.6,649.9,751.6,649.5,751.6,648.9z"/>
	<path d="M281.9,289.2c0.2-0.7-0.1-1.6,0.6-2.3c2.8-1.4,5.3-1.1,7.2,0.7c1.9,1.8,2.5,5.3,1.5,8c-1.1,2.7-2.9,3.7-6.9,3.5
		c0.9,7.5,2.6,14.7,4.2,22c2.8,0.7,5.8,0.1,8.3,1.7c0,0.3,0.1,0.6-0.1,0.7c-2.7,2.2-9,1.1-10.4-1.8c-1.6-3.5-4.2-19.4-3.7-23.6
		c-0.6-0.8-1.2-1.7-1.9-2.6c-1.6-0.2-3,0.5-4.4,0.8c-3.6,0.9-7.2,2-10.9,2.7c-1,0.2-1.9,0.5-2.7,1.2c-2.4,1.9-5.3,3-8.4,3.3
		c-6.3,0.7-12.7,1-19.2,0.7c-1.4,2.7-3.5,3.8-6.4,2c-0.6-0.4-1.3-0.1-2,0c-16.3,1.8-32.6,3.5-48.9,5.3c-5,0.5-10,1-14.9,1.6
		c-0.8,0.1-1.6,0.2-2.4,0.2c-1.4,0-2.4-0.6-2.7-2.1c-0.3-1.4,0.5-2.6,2.2-2.9c3.1-0.5,6.3-0.8,9.5-1.1c17.9-1.9,35.7-3.8,53.6-5.6
		c1.3-0.1,2.7-0.4,3.9-0.6c1.1-1,1.8-2.3,3.3-2.4c1.4-0.2,2.3,0.7,3.4,1.4c1,0.6,2.1,0.5,3.2-0.2c4.4-2.5,9-4.4,13.5-6.5
		c1.3-0.6,2.2-1.6,3.3-2.4c3.6-0.6,6.7,0.4,9.1,2.9c5.4-0.9,10.6-1.7,15.4-2.5c1.2-0.6,1.2-2,2.5-2.4
		C281.1,288.4,281.6,288.8,281.9,289.2c0.9,0.4,1.6,0.9,2.1,1.7c-1,1.6,1.4,2.5,0.5,3.8c1.6,0.9,2.7,0.7,3.4-0.6
		c0.7-1.2,0.9-2.6,0.2-3.9c-0.7-1.4-2-1.9-3.4-1.7C283.8,288.6,282.9,289,281.9,289.2z M240.9,300.9c4.7,0.3,9.3,0.2,13.9-0.2
		c1.4-0.1,2.3-0.8,2.8-2c0.5-1.3,0.4-2.4-0.8-3.2c-1.9-1.2-3.8,1.7-5.7,0C247.8,297.4,244.3,298.9,240.9,300.9z"/>
	<path d="M855.1,442.8c-2.3,2-4.8,2.5-7.8,2c-2.9-0.6-5.2-2.1-7.3-4.3c-0.7-2.5,0.7-4.7,2.1-6.7c3.6-5.1,6.4-10.7,10.5-15.5
		c0.1-0.1,0.1-0.4,0.1-0.6c-0.9-0.4-1.5,0.3-2,0.8c-1.2,1.1-2.4,2.2-3.3,3.4c-4.9,6.3-10.3,12.1-15.5,18.1c-2.4,2.7-4.1,6-6.1,9
		c-0.7,1.1-0.9,2.3-1,3.2c-4.6,4.3-7.9,8.9-7.2,15.2c0.6,5.8,2.3,11.1,7.6,14.1c-0.3,1.6-1.1,1.6-1.9,1.4c-1.7-0.5-3.2-1.4-4.1-2.9
		c-3-4.7-4.8-9.8-5.1-15.3c-0.1-2.5,0.2-5.1,1.3-7.3c2-3.8,3.8-7.7,6.5-11.2c1-1.4,2.1-2.7,3.6-3.6c3.2-1.7,5.2-4.7,7.7-7.1
		c-1.7-6.6,0.2-11.9,5.7-15.9c3.5-2.5,7.3-4.1,11.6-4.4c2.1-0.2,3.8-1.4,5.6-2.4c2.7-1.6,5.4-3.2,8.4-5c0,1.9-1.3,2.2-2.1,2.7
		c-1.2,0.9-2.2,1.8-3,3.1c-1.2,2.1-2.8,3.9-4.2,5.8c-3.4,4.5-6.9,9-10.2,13.6c-1.6,2.3-2.8,4.8-1.1,7.7c0.7,0.8,1.6,1.1,2.9,1.1
		c1.8-1.7,3.1-4.2,6.3-5.8c-1.5,2.5-2.5,4.2-3.6,6.1c2,1,3.8,0.5,5.5,0.4L855.1,442.8z M845.5,419.6c-7.6,1.9-11.9,7.4-10.5,13.6
		C838.2,428.3,842.2,424.5,845.5,419.6z"/>
	<path d="M989.5,682.3c-2.1-0.1-3.2-1.4-4.4-2.3c-2.1-1.6-4.6-2.3-7-2c-7.8,1.1-15.6,0.6-23.5,1.1c-3.1,0.2-6.1,0.5-9.1,1.4
		c-2.6,0.9-5.4,0.7-8.1,0.9c-7.5,0.6-14.9,1.1-22.4,0.6c-1.6-0.1-3.1,0.6-4.8,0.1c0.2-1.1,1.1-0.9,1.8-1c9.5-1.4,19.1-2.8,28.8-3.1
		c4.4-0.1,8.8-1.1,13.2-1.7c3.8-0.5,7.7-0.6,11.6-0.6c3.5,0,7-0.2,10.5-0.7c1-0.2,2-0.2,3.1-0.2
		C984.5,674.7,987.2,676.6,989.5,682.3z"/>
	<path d="M324.4,582.1c1.6-1.1,3.3-0.3,4.9,0c9.3,2.1,18.6,4.4,27.9,6.4c4.4,1,9,1.5,13.4,2.3c1.2,0.2,2.8,0.2,2.9,2.2l0.1-0.1
		c-1.2,0.1-2.4-0.1-3.6,0.6c-1.3,0.8-2.9,1-4.5,0.5c1.2-0.5,2.3-0.9,4.1-1.6c-4.8-0.7-8.8-1.3-12.9-1.9c-7.2-1-14-3.8-21.2-4.9
		c-2.7-0.4-5.3-1.1-8-1.8c-1.2-0.3-2.5-0.4-3-1.9L324.4,582.1z"/>
	<path d="M321.7,294.5c-0.3-0.2-0.6-0.4-1.1-0.7c-1.2,0.8-2.6,1.5-3.9,2.4c-2.5,1.6-5.2,2.2-8.1,1.5c-1.8-0.4-3.5-0.9-5,0
		c-1.5-0.4-2-1.3-2.4-2.2c0.4-1.1,1.3-1.5,2.5-1.7c1.5,1.2,3.5,1.8,5.5,2.1c2.6,0.4,5,0.3,7.1-1.5c1-0.8,2.2-1.1,3.4-1.4
		c1.4-1.5,1.2-4.1,3.7-4.7c-0.5-0.8-1.7-0.6-1.7-1.9c1.5-1.8,2.9,0,4.3,0.5c3.8-0.8,7.1-3.1,11.3-3.8c-1.3,2.6-4.2,3.9-13.9,7
		c-0.4,0.4-0.5,1-0.4,1.6c0.1,0.4,0.1,0.9,0.2,1.2c-0.3,0.9-1.7,0.5-1.5,1.7L321.7,294.5z"/>
	<path d="M846.8,478.3c0.2-0.9,0.8-1.2,1.8-1.5c6.1,3.4,12.8,1.6,19.4,1.1c4-0.3,8-0.7,12.1-0.9c-3.6,1.7-7.3,2.9-11.1,3.8
		c-5.6,1.3-11.3,1.2-16.9,0C850.2,480.5,848.1,480,846.8,478.3z"/>
	<path d="M488.3,132.7c0.9,0.1,1.7,0.1,2.7,0.2c-0.3,0.5-1,0.2-1.1,0.9c1,1.2,2.4,0.8,3.7,0.7c5.1-0.4,10.2-0.9,15.2-1.4
		c1.1-0.1,2.2-0.1,3.5-0.2c-6,2-11.9,2.5-17.9,3.1c4.3,1.6,8.7,1.3,13.1,1.1c-7.1,2.5-13.7,0.5-20.2-2c-0.2-1.6,1-0.5,1.3-1
		C489.1,133.5,488.2,133.2,488.3,132.7L488.3,132.7z"/>
	<path d="M872.8,334.2c0.9,0.1,1.7,0.1,2.8,0.2c-0.5,0.3-0.9,0.5-1.4,0.8c1.1,1.3,2.5,0.9,3.8,0.8c5.1-0.4,10.2-0.9,15.2-1.4
		c1.1-0.1,2.2-0.1,3.6-0.2c-6,2-12,2.6-18,3c4.3,1.6,8.7,1.3,13.2,1.2c-7.1,2.5-13.7,0.5-20.2-2c-0.2-1.6,1-0.5,1.3-1
		C873.6,335,872.6,334.7,872.8,334.2L872.8,334.2z"/>
	<path d="M645.6,541.4c8.5,0.3,17,0,25.3,2.7c-0.1,4.4,2.2,8.2,2.2,12.5c-0.7-1.8-1.3-3.7-1.9-5.5c-0.6-1.9-1.2-3.9-1.4-6.1
		C661.9,542.7,653.6,543.1,645.6,541.4z"/>
	<path d="M978.4,668.8c-1.2,0.3-2.1,0.6-3.1,0.7c-2.5,0.2-4.3-1.3-4.4-3.6c-0.1-2.5,1.4-4,3.9-4c2.4,0,4,1.6,3.9,4.1
		C978.7,666.8,978.5,667.7,978.4,668.8z M977.1,666.3c0.2-1.8-0.3-2.7-1.9-2.9c-1.1-0.2-2.1,0.1-2.5,1.2c-0.5,1.3-0.3,2.5,1,3.2
		c0.5,0.3,1,0.4,1.6,0c0.2-0.6-0.6-1.3,0.3-1.8C976,666.1,976.4,666.1,977.1,666.3z"/>
	<path d="M595.3,467.3c-1.1,0.3-2.2,0.6-3.3,0.7c-2.4,0.2-4.2-1.5-4.2-3.8c0-2.3,1.4-3.7,3.8-3.8c2.5-0.1,4.1,1.5,4,3.9
		C595.6,465.3,595.4,466.3,595.3,467.3z M594.1,464.6c-0.7-2.4-1.2-2.9-2.7-2.7c-1.2,0.2-1.8,0.8-1.9,2c-0.2,1.6,0.3,2,2.6,2.6
		c0.7-0.5-0.5-1.3,0.4-1.8C592.8,464.2,593.3,464.9,594.1,464.6z"/>
	<path d="M473,149.8c-1-0.3-1.7-0.8-2.1-1.9c0.1-1.6,1.2-2.7,2.6-3.6c2.4,0.5,4.8,0.9,7.4,1.9c-1.7,1.3-3.2-0.5-4.4,0.5
		c-0.5,0.7,0.4,0.9,0.6,1.5C475.9,149.2,474.4,149.3,473,149.8z"/>
	<path d="M858,345.7c2.4,0.8,4.9,0.7,7.3,2.1c-1.6,1.1-3.1-0.7-4.3,0.3c-0.4,0.8,0.5,0.9,0.7,1.5c-1.3,0.9-2.9,1.1-4.2,1.5
		c-1-0.4-1.7-0.9-2-1.8C855.3,348.3,855.6,347.9,858,345.7z"/>
	<path d="M970.6,665.7c-1.6,3.2-3.1,4.3-5.3,3.7c-1.8-0.5-3.1-2.2-3-4c0.1-1.7,1.4-3.2,3.1-3.5C967.8,661.4,969.1,662.3,970.6,665.7
		z M968.8,665.5c-0.6-1.9-1.8-2.6-3.4-2.1c-1.1,0.3-1.6,1.2-1.5,2.4c0.1,1.1,0.8,1.9,1.9,2.1C967.5,668.3,968.4,667.2,968.8,665.5z"
		/>
	<path d="M587.4,464.1c-1.3,3.1-2.8,4.3-5,3.9c-1.8-0.3-3.3-2-3.3-3.7c0-1.8,1.4-3.5,3.2-3.8C584.8,460,586,460.9,587.4,464.1z
		 M585.7,464c-0.7-2-1.9-2.5-3.5-2c-1,0.4-1.5,1.3-1.3,2.4c0.2,1.1,0.8,1.9,2,2C584.6,466.8,585.4,465.7,585.7,464z"/>
	<path d="M960.3,666.7c0.2,1,1.1,1.5,0.7,2.4c-1.7,0.2-1.8-2-3.3-2.1c-1.3,0.2-0.3,2-1.7,2.4c-1.3-2.3-0.3-4.8-0.7-7
		c1-0.8,1.8-0.5,2.6-0.6c1.4-0.1,2.8,0.1,3.5,1.5C962.1,664.8,961.1,665.7,960.3,666.7z M960,664.3c-1-1.1-2-1-3-0.6
		c-0.2,0.7-0.2,1.2,0.3,1.6C958.3,665.6,959.2,665.6,960,664.3z"/>
	<path d="M572.2,461c1.1-0.7,1.9-0.5,2.6-0.5c1.4-0.1,2.8,0.1,3.5,1.5c0.7,1.4-0.4,2.3-1,3.2c-0.2,1,0.9,1.4,0.6,2.4
		c-0.1,0.2-0.5,0.1-0.8,0c-1.1-0.4-1.3-1.9-2.6-2c-1.3,0.2-0.2,2-1.7,2.4C571.6,465.8,572.5,463.3,572.2,461z M574.2,463.9
		c1.1,0.3,2.1,0.3,2.6-1c-0.8-1.2-1.8-0.9-2.9-0.7c0,0.5-0.1,0.8,0,1.1C573.9,463.5,574.1,463.6,574.2,463.9z"/>
	<path d="M321.6,294.6c3.6-0.4,7.1-1.2,10.7-2c1.2-0.2,2.5-1.2,3.8-0.3c0.1,1.1-0.7,1.2-1.2,1.4c-3.4,1.2-7,1.7-10.6,2.5
		c-1.3,0.3-2.6,0.1-2.6-1.7L321.6,294.6z"/>
	<path d="M302.7,301.5c3.2,0,6-0.1,8.8,0c3,0.1,5-2.5,8-3C317.2,303.1,308.2,304.6,302.7,301.5z"/>
	<path d="M865,341.3c-2.2,0.2-4.6,0.2-6.9,0.8c-2.3,0.5-3.7,2.8-6.1,3.7C853.8,340.7,859.9,338.8,865,341.3z"/>
	<path d="M480.7,140c-4.9-0.4-9.2,0.9-12.8,4.8C468.2,139.7,475,137.4,480.7,140z"/>
	<path d="M459.7,262.3c-1.8,3.8-6.4,4-11.9,1C451.8,262.5,455.7,264,459.7,262.3z"/>
	<path d="M534.8,245.7c-2.9,1.9-5.5,2.9-8.3,3.4c-0.8,0.1-1.5-0.3-1.7-1.2C526.5,246.6,530.6,245.7,534.8,245.7z"/>
	<path d="M813.6,602.9c1.1,2.2,0.3,3.8-0.5,5.4c-1,1.8-2.5,3.5-1.7,6.5c-1.6-1.9-1.7-2.4-0.3-6.2
		C811.8,606.8,811.9,604.7,813.6,602.9z"/>
	<path d="M527.9,130c2.5,2.9,2.8,6.6,3.2,10.1c0.5,3.6,0.2,7.2-0.4,10.9c0-1.6,0-3.1,0-4.7c0.1-5.1-0.6-9.9-2.5-14.6
		C528,131.1,528,130.5,527.9,130L527.9,130z"/>
	<path d="M521.3,131c-1.1,4.1-6.3,9.3-10.5,10.3C514.6,138.1,518.4,135,521.3,131z"/>
	<path d="M912.4,331.4c2.5,2.9,2.8,6.6,3.2,10.1c0.5,3.6,0.2,7.2-0.4,10.9c0-1.6,0-3.1,0-4.7c0.1-5.1-0.6-9.9-2.5-14.6
		C912.4,332.6,912.5,332,912.4,331.4L912.4,331.4z"/>
	<path d="M905.8,332.3c-0.9,4-6,9.2-10.5,10.3c1.9-1.6,3.8-3.2,5.7-4.9C902.7,336.1,904.3,334.3,905.8,332.3z"/>
	<path d="M505.7,118.6c3.9-0.1,7.2-0.1,10,2.9c-1.8,0.3-3.2,0.5-5.5,0.9c1.5-0.7,2.3-1.1,3.3-1.6
		C511.1,119.6,508.7,119.2,505.7,118.6z"/>
	<path d="M506.2,251.8c-2.3,1.4-4.8,1.6-7.5,1.7C501.8,251.6,503,251.3,506.2,251.8z"/>
	<path d="M897.1,323.2c0.3-0.6,0.6-0.8,0.4-1.2c-2.2-0.9-4.5-1.4-7.2-1.9c3.8-0.2,7-0.1,9.9,2.9C899,323.1,898.2,323.1,897.1,323.2z
		"/>
	<path d="M496.7,186.3c0.4-2.4,1.1-4.7,2.2-6.8c0.6-0.1,0.9,0.2,0.9,0.5C499.5,182.5,498.4,184.5,496.7,186.3z"/>
	<path d="M881.1,387.7c0.6-2.4,1.1-4.7,2.5-7C884.4,382.9,883.7,384.8,881.1,387.7z"/>
	<path d="M492.4,196.2c0,1.1-0.1,2.3-0.6,3.3c-0.9,1.6-1.5,3.3-1.6,5.1c0,0.5-0.4,0.8-0.9,0.9C488.9,202,490.6,199.1,492.4,196.2
		L492.4,196.2z"/>
	<path d="M876.8,397.7c0,0.3,0,0.7,0,1c-0.1,0.5-0.1,1.2-0.3,1.6c-1.3,2.1-1.5,4.6-2.6,6.7C873.4,403.4,875.1,400.5,876.8,397.7
		L876.8,397.7z"/>
	<path d="M806.5,631.3c-0.2-2.5,1.2-4,3.3-5.6C809,628.1,808.8,630.3,806.5,631.3z"/>
	<path d="M813.1,596.2c1.8,1.9,1.5,4.3,2,6.5C813.5,600.8,812.3,598.8,813.1,596.2z"/>
	<path d="M504.2,165c0,2.3-1.5,3.5-3.1,4.6C501.4,167.6,502.2,165.9,504.2,165z"/>
	<path d="M836.8,495c-2.6,1.6-5.1,0.9-7.4,1.2C831.6,495.2,833.8,494.1,836.8,495z"/>
	<path d="M885.4,371c0.7-1.8,1.3-3.5,2.6-4.8c0.9,0.1,1.2,0.4,1,1.1C888.2,369,887,370.2,885.4,371z"/>
	<path d="M845.4,615c-2.2,0.9-3.1,3-5.4,2.3C840.9,615,842.6,614.7,845.4,615z"/>
	<path d="M529.7,237.1c2.7-1.9,4.7-3.3,7.1-5C535.1,234.9,534,235.7,529.7,237.1z"/>
	<path d="M679.3,543.4c-1.8,1.3-3.5,1.8-5.4,1.2C675.7,543.5,676.4,543.4,679.3,543.4z"/>
	<path d="M364.7,293.5c-1,0.7-1.9,1.5-3.2,0.7C362.7,292.3,362.7,292.3,364.7,293.5z"/>
	<path d="M597.5,535.3c2.6-0.6,4.3,0.6,6.2,0.6C601.7,536.5,599.9,535.6,597.5,535.3z"/>
	<path d="M337.8,296.7c1.3,0.6,1.4,1.7,1.4,3.1C337.7,298.7,337.7,298.7,337.8,296.7z"/>
	<path d="M850.6,614c1.3-0.9,2.3-1.2,3.5-1C853.1,614.6,853.1,614.6,850.6,614z"/>
	<path d="M511.8,216.4c-1.2,1.2-2.3,1.9-3.8,2.6C509.1,217,509.1,217,511.8,216.4z"/>
	<path d="M487,127.3c1.1-1.5,2.8-1.9,4.3-2.5C490,125.9,488.8,127.1,487,127.3L487,127.3z"/>
	<path d="M884.5,475.9c0.7-1.4,1.6-1.7,3.2-1.6C886.7,475.3,886.1,476.4,884.5,475.9z"/>
	<path d="M871.4,328.7c1.1-1.5,2.8-1.9,4.3-2.5C874.5,327.4,873.2,328.5,871.4,328.7L871.4,328.7z"/>
	<path d="M876.9,397.7c-0.2-1.8,0.5-3.3,1.8-5C879.1,395.1,877.9,396.4,876.9,397.7L876.9,397.7z"/>
	<path d="M492.5,196.3c-0.2-1.8,0.7-3.2,1.6-4.6C494.7,193.6,493.5,194.9,492.5,196.3L492.5,196.3z"/>
	<path d="M581.2,532.2c-2,0-4.1,0-6.1,0C577.1,531.8,579.2,530.9,581.2,532.2L581.2,532.2z"/>
	<path d="M870.8,414.1c-0.4,1.7-1.3,2.1-2.9,2.2C868.7,415.1,869.3,414.4,870.8,414.1z"/>
	<path d="M442.4,264.3c1.6-0.9,2.6-1.3,4.3-0.5C445.2,264.8,444.1,264.5,442.4,264.3z"/>
	<path d="M483.7,214.7c0.6-1.1,1.2-1.7,2.2-1.9c0.1,0.3,0.4,0.7,0.3,0.8C485.7,214.4,485,214.8,483.7,214.7z"/>
	<path d="M622.6,533.5c-1.5,0.9-2.3,1.3-3.7,0.9C619.9,533.4,620.9,533.3,622.6,533.5z"/>
	<path d="M488.4,132.6c-1.3,0.3-2.7,0.6-3.8-1.1C486,132.1,487.3,131.9,488.4,132.6L488.4,132.6z"/>
	<path d="M872.8,334.1c-2,0.2-2,0.2-3.6-0.9C870.4,333.5,871.7,333.3,872.8,334.1L872.8,334.1z"/>
	<path d="M581.1,532.3c1.6,0,3.1,0,4.7,0C584.2,532.6,582.6,533.3,581.1,532.3L581.1,532.3z"/>
	<path d="M527.9,130c-1.2-0.8-1.8-2-2-3.4l-0.1,0.1C527.3,127.3,527.8,128.5,527.9,130L527.9,130z"/>
	<path d="M591.9,533.3c-1,0-2,0-3,0c0,0,0,0,0-0.1C589.9,533.2,590.9,533.2,591.9,533.3C591.9,533.2,591.9,533.3,591.9,533.3z"/>
	<path d="M912.4,331.4c-1.2-0.8-1.8-2-2-3.4l-0.1,0.1C911.7,328.7,912.3,329.9,912.4,331.4L912.4,331.4z"/>
	<path d="M471.4,232.1c0.4-0.8,0.9-1.2,1.9-1c0.3,0.7-0.4,0.9-0.7,1.2C472.2,232.6,471.8,232.5,471.4,232.1z"/>
	<path d="M858,432.7c-0.5,0.8-1,1.4-2.2,1C856.3,432.8,856.8,432.3,858,432.7z"/>
	<path d="M813.3,621.5c0,1.3-0.4,1.9-1.6,2.4C811.6,622.7,812,622,813.3,621.5z"/>
	<path d="M440.1,264.8c-0.6,0.5-1.2,0.3-1.8,0.1c0.5-0.7,1-0.9,1.7-0.9C440,264.4,440.1,264.6,440.1,264.8z"/>
	<path d="M871.4,328.7c-0.6,1-1.4,1.5-3,1.1C869.6,329.3,870.3,328.6,871.4,328.7L871.4,328.7z"/>
	<path d="M890.5,472.6c0.1-1.5,0.8-1.9,2.1-2.1C892.3,471.8,891.6,472.1,890.5,472.6z"/>
	<path d="M486.9,127.2c-0.6,1-1.4,1.5-3,1.1C485.1,127.8,485.9,127.1,486.9,127.2L486.9,127.2z"/>
	<path d="M814.4,620.9c0.3-0.8,0.6-1.2,1.3-1.2C816.2,621.1,815.4,621,814.4,620.9z"/>
	<path fill="none" d="M909,327.3c-0.8-0.5-1.5-1-1.1-2.1c0.3,0.2,0.7,0.3,1,0.5C908.9,326.2,908.9,326.8,909,327.3L909,327.3z"/>
	<path fill="none" d="M524.5,125.9c-0.8-0.5-1.5-1-1.1-2.1c0.3,0.2,0.7,0.3,1,0.5C524.5,124.8,524.5,125.3,524.5,125.9L524.5,125.9z
		"/>
	<path d="M572.2,532c-0.5,0-1.1,0-1.7,0C571,531.4,571.6,531.7,572.2,532z"/>
	<path d="M908.9,327.3c0-0.6,0-1.1,0-1.7c0.7,0.6,1.5,1.2,1.4,2.4l0.1-0.1C909.7,328.1,909.6,327.2,908.9,327.3z"/>
	<path d="M371.2,291.4c-0.2,0.7-0.5,1.2-1.3,0.4C370.2,291,370.7,291.1,371.2,291.4z"/>
	<path d="M541.5,242.2c-0.5,1.1-1,1.2-1.7,0.9C540,242.2,540.5,242,541.5,242.2z"/>
	<path d="M524.5,125.9c0-0.6,0-1.1,0-1.7c0.7,0.6,1.5,1.2,1.4,2.4l0.1-0.1C525.3,126.6,525.1,125.7,524.5,125.9z"/>
	<path d="M311.1,294.8c-0.6-0.5-0.7-1.1-0.1-1.7C311.8,293.6,311.5,294.2,311.1,294.8z"/>
	<path d="M336.7,288.3c0.9,0,0.9,0.6,1.2,1.2C336.6,289.8,336.7,289.2,336.7,288.3z"/>
	<path d="M805.1,600.9c-0.1,0.6-0.3,1-0.9,0.8c-0.6-0.6-0.2-0.9,0.1-1.2C804.6,600.4,804.9,600.5,805.1,600.9z"/>
	<path d="M376.7,289.5c0.1,0.6-0.2,0.7-0.7,0.7c-0.1,0-0.2-0.1-0.2-0.2C375.9,289.5,376.2,289.2,376.7,289.5z"/>
	<path fill="none" d="M324.5,582c0.5,1.4,1.9,1.6,3,1.9c2.6,0.7,5.3,1.4,8,1.8c7.2,1.1,14,3.9,21.2,4.9c4,0.6,8.1,1.2,12.9,1.9
		c-1.8,0.7-2.9,1.1-4.1,1.6c1.6,0.5,3.2,0.2,4.5-0.5c1.2-0.7,2.4-0.5,3.6-0.6c1,4.5,2.6,8.7,4.9,12.6c1.2,2,1.6,4.3,1.7,6.7
		c-2.7,1.2-5.5,1.9-8.1,3.4c-2.2,1.2-5.3,0.9-8,1.2c-2.5,0.3-4.9,0.6-7.9,0.9c-8.4-5.3-18.5-7.3-28.6-8.8
		c-10.4-1.6-20.6-3.6-30.6-6.6c-3.2-0.9-6.4-1.6-9.7-2c-5.7-0.8-11-2.8-16.4-4.6c-2.9-1-5.7-2.2-8.8-2.7c-3-0.6-5.9-1.4-9.2-1.3
		c0.7-5.1,1.1-9.9,1.1-14.9c7.1-1.5,14.3-1.5,21-3.7c1.8,1.6,4,1.8,6.1,2c6.6,0.6,12.9,2.7,19.4,3.6c0.8,1.9,0,3.9,0.6,5.8
		c2-1.1,2.4-3,2.4-9.2c0.4-0.5,1.1,0.3,1.5-0.3c0.2-1.2-1.6-1-1.2-2.8c2-4.1,1.1-9.3,1.4-14.4c0.1-1.8-0.3-3.7,1.3-5.3
		c-1-1.1-1.1-2.4-1-3.8c0.2-6.6,1-13.2,0.5-19.8c-0.7-8.9,0.5-17.7,1-26.5c0.6-11.2,1.4-22.5,2-33.7c0.2-3.1,1-6.3-0.3-9.4
		c-0.2-0.6-0.1-1.4,0.4-2c1.6-0.6,3.3-0.6,5-0.6c7.5,0.1,15,0.4,22.5,0.3c3.5-0.1,7-0.3,10.5-0.7c9.8-1.1,19.6-2.3,29.3-4.7
		c2.7-0.7,5.4,0.1,8.1-0.3c7.1-1,14.2-1.5,21.2-3.5c1.1-0.3,2.2-0.4,3.4-0.5c3.1-0.1,6.1-0.3,9.1-1.4c0.5-0.2,1.1-0.1,1.7-0.1
		c2.2,2.4,2,5.2,2,8.1c0.1,6-0.1,12.1,1.3,18c1.4,5.5,2.3,11.1,3.6,16.7c0.2,0.8,0.2,1.6,0.4,2.5c-2.1,0.8-4.2,0.8-6.3,1.1
		c-5.7,0.9-11.5,1.5-17,3.1c-1.3,0.4-2.7,0.4-4.1,0.5c-10,1.2-20,2.8-29.9,5c-5.2,1.1-10.5,1.7-15.9,2.2c-5.8,0.6-11.3,2.4-16.7,4.4
		c-2.1,0.8-3.3,3.1-5.5,3.7c-0.7,1,0.4,1.6,0.1,2.6c-2.8,8.2-3.6,16.9-4.5,25.5c-1,8.9-1.9,17.9-2.8,26.8c-0.1,1.3-1.1,2.2-1.3,3.5
		c-0.6,3.7,0,7.5-0.1,11.2C322.9,581.4,323.5,582,324.5,582z M294.6,587.1c9.6,3.2,19.3,3.9,29.1,4.5c-0.3-0.8-0.7-0.9-1.2-1
		c-8.8-1-17.6-1.6-26.1-3.9C295.9,586.6,295.3,586.5,294.6,587.1z M303.3,584.9c7.4,0,11.9-0.7,13.9-2.4c-4.2,0.2-8.2,0.5-12.2,1.3
		C304.5,583.9,303.7,583.8,303.3,584.9z M287.8,583.1c0.1-0.3,0.1-0.6,0.2-0.8c-5.7-1.3-11.5-1.9-17.3-2.7c2.8,1.1,5.6,1.7,8.5,2.2
		C282,582.2,284.9,582.6,287.8,583.1z M350.7,598.8c1.5,4,1.8,8.2,3.6,12C353.8,606.6,353.6,602.3,350.7,598.8z M336.9,594
		c1.7,1,3.7,1.3,5.7,1.8c1.9,0.4,3.5,1.7,5.5,1.4C344.7,595,341,594.2,336.9,594z M261.6,578.1c2.5,0.6,2.5,0.6,4.8,0
		C264.7,578.1,263.2,578.1,261.6,578.1z M358.2,595.2c-1.1-0.3-1.7-0.2-2.1,0.7C357,596.1,357.5,595.9,358.2,595.2z"/>
	<path fill="none" d="M490.6,370.3c1.1,0.9,2,1.7,3.3,2c5.8,1.3,10.5,4.7,15.7,7.3c4.2,2.2,7.2,5.3,9.6,9.3c2.9,4.9,5.4,10,7.4,15.3
		c1.8,4.8,1.9,9.8,1.6,14.6c-1.7,1.8-3.8,2.3-5.9,2.9c-4.8,1.2-9.7,2.6-14.5,3.9c-2.9,0.8-5.8,1-8.8,1.2
		c-12.8,0.8-25.1-1.6-37.3-4.8c-2.2-0.6-4.4-1-6.4-2c-0.8-0.7,0.2-1.9-1-2.6c-1.2,0.8-1.3,2.2-1.4,3.5c-0.2,3.5,0.5,6.8,2.1,9.9
		c1.3,2.5,2.3,5.1,2.7,8c0.3,2.1,1.3,4.1,2,6.1c2.2,7,3.2,14.2,3.3,21.5c0.1,5,0.7,10-0.5,14.9c1,11.4-2.9,22.2-3.9,33.3
		c-0.5,5.6-1.2,11.1-1.1,16.7c0.2,7.8-0.3,15.7-0.1,23.5c0.1,4,0,8.2-1.5,12.3c-1.6,1.2-3.3,2.6-4.7,4.4c-1.2,0.4-1.7-0.6-2.5-0.8
		c0.5-1.7,1.6-3,1.7-5.1c-2.1-5.2-7.6-3.6-11.9-5.2c-0.2-0.2-0.2-0.8-0.2-1.4c0.5-8.1-0.1-16.1-0.6-24.2c-0.1-2.4-0.2-4.8-0.1-7.2
		c0.3-7.4-0.9-14.5-3-21.5c-3.3-10.7-6.4-21.4-8-32.4c-0.6-4.4-2.2-8.6-2.1-13.1c0.1-4.5-0.8-8.9-2-13.1c-1.4-4.7-1.8-9.5-3-14.2
		c-1.9-7.4-3.9-14.7-5.9-22c-1.3-4.5-2-9.1-2.3-13.8c-0.1-1.8,0.3-3.6,1-5.3c2.1-4.9,4.9-9.1,10.1-11.4c4.7-2.1,9.4-3.9,14.5-4.8
		c9.2-1.7,18.3-3.6,27.4-5.5c2.6-0.5,5.2-0.5,7.8-0.5C478.3,370.3,484.3,370.3,490.6,370.3z M428.9,401.8c-1.6,3.5-3.3,7-3.4,11.1
		c0.5-0.3,0.9-0.4,0.9-0.5c0-2.2,1.2-4,2.3-5.9C429.6,405.2,430.2,403.6,428.9,401.8z M453.1,543.7c0.5,1.9,0.3,3.9,0.5,5.9
		c0.2,1.9-0.2,3.8,0.9,6C454.9,551.1,454.3,545.8,453.1,543.7z M425.6,424c-2.2,1.5-3.2,2.9-3.8,4.6c-0.3,0.8-0.1,1.3,0.9,1.5
		C424.2,428.6,424.6,426.6,425.6,424z M428.6,394.1c-0.6,3.3,0.1,5.3,2.4,7.3C430.2,399,430.4,396.6,428.6,394.1z M454.2,565.8
		c1.7-2.6,0.6-4.5,0.3-6.9C453.4,561.3,453.2,563.2,454.2,565.8z M455.8,415.8c2,0.2,3.1-1.3,4.7-2.2
		C458.2,413.2,456.6,413.6,455.8,415.8z M466.2,412.4c1.6,1.4,2.6,0.5,4-0.5C468.6,411.2,467.5,411.8,466.2,412.4z M455.7,515.7
		c0.1,0,0.2-0.1,0.3-0.1c0-1.5,0-3,0-4.5c-0.1,0-0.2,0-0.3,0C455.7,512.7,455.7,514.2,455.7,515.7z M428.8,420.2
		c-1.4,0.2-1.5,1-1.9,2.1C428.4,422.1,428.8,421.5,428.8,420.2z M431.5,418c-0.9,0.3-1.5,0.5-1.3,1.5
		C431,419.6,431.5,419.3,431.5,418z M420.5,399c-1,0.2-1.4,0.5-0.7,1.4C420.5,400.3,420.9,400,420.5,399z"/>
	<path fill="none" d="M499.2,367.6c-1.1,0.4-2.3,0.2-3.4,0.1c-7.5-0.5-15-0.3-22.5-0.5c-4.2-0.1-8.3,1.1-12.5,1.4
		c-6.2,0.4-12.1,2.1-18.3,3.2c-1.1-2.9-2.2-5.7-4.6-8.1c4.4-0.4,8.5-0.6,12-2c12.5,3.5,24.9,5.4,37.5,3.7
		c-11.7-0.6-23.3-1.9-34.7-5.4c0-3.4,0.2-6.7,0.9-9.9c0.6-2.9,0.9-5.8,1.1-8.8c0.8-9.9,0.4-19.8,0.7-29.7c0.2-5.8,0.6-11.5,1-17.2
		c24.7,2.4,49,1.3,73.2-2.3c0.4,0.7-0.1,1.5-0.2,2.2c-2,9-3.7,18.1-3,27.4c0.6,7,0.1,14.1,1.3,21.1c0.5,2.9,1.2,5.8,2.2,8.6
		c0.6,1.7,1.3,3.4,2.9,4.5c0.4,0.3,0.8,0.8,1.1,1.3c3.7,7.5,8.3,14.6,10.6,22.8c2.5,9.2,1.9,18.2-0.7,27.2c-0.6,2-1.6,3.8-3.3,5.1
		c-3.4,2.6-6.9,5.2-10.3,7.8c-0.8-0.6-0.3-1.1-0.2-1.6c1.9-5.1,1.3-10.1-1-14.9c-1.1-2.3-1.9-4.6-2.8-6.9
		c-4.7-11.8-12.1-21-24.7-25.2c-0.6-0.2-1.2-0.6-1.7-1c7.8,1.6,16.1,0.8,23.6,4.8c0.7-0.7,0.1-1.3-0.5-1.8c-1.8-1.3-3.9-1.9-6-2.3
		c-3.2-0.6-6.5-1.1-9.8-1.6c-1.4-0.2-2.9-0.3-4.2-1c0.3-0.9,0.9-0.7,1.4-0.8c8.3-0.5,16-3.2,23.6-6.4c1.4-0.6,2.6-1.3,3.8-2.3
		c0.6-0.5,1.2-1.1,0.8-2c-0.6-0.7-1.2-0.2-1.8,0c-8.9,3.6-18,6.3-27.5,7.8c-0.4,0.1-0.9,0-1.4,0c0.3-0.4,0.5-0.7,0.2-1.2
		c-0.9-0.7-2.1,0.1-2.7-0.6c-0.6-1.2,0.9-2.2,0.2-3.4c-1.3,0.9-1.4,2.4-2.3,3.6c-2.2,0.3-4.5,0.6-6.9,0.9c3.8,0.8,7.6,1.2,11.5,0.5
		c-0.6,0.5-1.1,1-1.8,1.3C499.5,366.5,499.2,366.9,499.2,367.6L499.2,367.6z M529.9,377.3c0.5,0.7,1,1.3,2.1,1.1
		c-0.5-0.8-1.1-1.2-1.9-1.3c-1.1-1.3-2.6-1.8-4.2-2.1C527,376,528.3,376.9,529.9,377.3z M530,382.6c0.2,0.7,0.7,0.9,1.5,1
		C531,383,530.6,382.6,530,382.6c-1.4-1.3-2.8-2.4-4.8-2.7c-2.9-2.5-10.3-5.9-13.5-5.9c5,2,9,4.6,13.5,5.9
		C526.5,381.4,528.1,382.2,530,382.6z M463.2,341.8c2.9,1.7,3.7,1.7,5.8,0.1c-0.3-1.2-1.7-1-2.1-1.5c-0.9-1.2-0.7-2.5-1.5-3.3
		c-0.1,0.1-0.3,0.1-0.4,0.1C464,338.6,464.4,340.5,463.2,341.8z M502.5,355.2c1-0.5,1.3-1,1-1.9C502.6,353.5,502.2,354,502.5,355.2z
		"/>
	<path fill="none" d="M343.2,401.2c0.3,1.9,1.2,3.2,2.6,3.9c2.4,1.1,4,2.9,5,5.3c1,2.2,2.7,3.9,3.4,6.2c-0.4,1-1.4,0.8-2.1,0.8
		c-3.4,0.2-6.8,0.4-10.2,0.6c-5.9,0.3-11.9,0.8-17.7,2c-0.5,0.1-1.1,0-1.9,0c-0.4-3.7-2.7-6.6-3.6-10.1c-1.2-4.9-1.7-9.8-2.5-14.7
		c-0.4-2-0.5-4-1.5-5.7c0.1-3.4,2-6.2,2-9.4c5-3.3,9.9-6.5,14.9-9.8c4.3-2.8,8.9-4.5,14-5c5.2-0.6,10.4-1.1,15.7-1
		c6.2,0.1,12.3-0.4,18.4-1.2c4.4-0.6,8.8-0.6,13.3-0.3c6.1,0.4,12.3,0.6,18.4-0.4c0.8-0.1,1.6-0.2,2.4-0.1c6.9,0.8,13.8,1,20.9,1.2
		c1.4,3.3,6,4.2,6.2,8.7c-2.7,0.8-5.4,1.6-8.1,2.3c-5.1,1.3-10,3-14.7,5.5c-1.6,0.9-3.1,1.9-4,3.6c-3.3,6-5.6,9.5-4.6,16.8
		c0.4,3,0.7,6.1,1.4,9.1c0.2,1,0.5,2,0,3.2c-3.6,0.1-7.2-0.6-10.8-0.9c-2.9-0.3-5.8-1-8.7-1.6c-8.2-1.8-16.5-2-24.8-1.8
		c-3.6,0.1-7.3-0.1-10.9-0.5c-2.4-0.3-4.6-1.9-7-2.1C346.8,404.2,345.6,402.2,343.2,401.2z M322.1,387.4c3.5-1.9,4.1-3.6,2.1-5.1
		C322.7,383.5,323.1,385.7,322.1,387.4z M326.4,379.7c1.3,3.6,2.5,4.9,5.2,5.9C329.8,383.8,328.9,381.6,326.4,379.7z M336.3,387.7
		c0.5,0.6,0.8,1,1.4,0.6C337.7,387.5,337.2,387.6,336.3,387.7z"/>
	<path fill="none" d="M527.6,423.9c0.6-1.6,2.1-2.4,3.9-3.1c5.1-1.9,9.2-5.1,12.3-9.7c2.6-3.8,4.7-7.7,5.4-12.4
		c6-1.3,11.9-1,17.8-1.3c4.8-0.3,9.5,0.7,14.3,1c9.1,0.8,18.2,1.2,27.3,1.2c3,0,5.9-0.2,8.8-0.6c5.6-0.8,11-0.1,16.4,1.7
		c0.5,0.2,1.1,0.2,1.7,0.2c3.4,0.1,3.4,0.1,7.1,1.8c0.4,6.2-1.7,12.1-2.3,18.5c-2.6,0.3-4.9,0.6-7.3,0.7c-9.2,0.4-18.3,1.9-27.5,3
		c-11.9,1.5-23.8,2.1-35.7,2.8c-15.8,0.9-31.6,1.8-47.2,4c-16.4,2.3-32.8,4.8-49.2,7.1c-3.7,0.5-7.4,1.4-11.4,1.1
		c-0.9-3.6-2.8-6.7-4.7-9.7c-1.4-2.3-2-5-2.4-7.8c9.4,4.3,19.1,5.8,28.9,7.3c12.6,1.9,24.9,0.1,36.9-4.3
		C522.8,424.6,525,424.2,527.6,423.9z M588,408.6c-6.6,0.5-13.1,1-19.7,1.5c-5.4,0.4-10.8,0.6-16.2,0.9c10.4,0.5,20.6-0.4,30.9-1.4
		C584.6,409.4,586.5,409.7,588,408.6c0.8-0.1,1.7-0.2,2.5-0.3C589.6,408.1,588.7,408,588,408.6z M601.1,404.9
		c9.8,0.8,19.5-1.4,29.3-1.4C620.6,402.5,610.9,405,601.1,404.9z M582.9,417.4c0.2-0.5,0.3-1-0.1-1.7
		C582.6,416.4,582.6,416.9,582.9,417.4z"/>
	<path fill="none" d="M460.9,218.1c-1.5,2.2-2.8,4.1-4.3,5.9c-4.6,5.4-8.7,11.3-13.6,16.6c-2.2,2.3-3.7,5.1-5.2,7.9
		c-0.9,1.6-1.4,3.4-0.7,5.2c-15.5,8.7-30.8,17.6-47.1,24.7c-4.1,1.8-8,4.2-12.4,5.4c-4.5,1.3-8.8,2.9-13.5,3.6
		c-1.8,0.3-3.3,0-4.9-0.9c-3.1-1.8-6.2-3.7-8.9-6.6c6.7-2.5,12.5-6.1,18-10.1c3.3-2.4,6.8-4.6,10.2-6.8c3.6-2.3,7.5-3.6,11.6-4.7
		c2.6-0.6,5.1-0.8,7.7-0.7c3.1,0.1,5.9-0.5,8.6-2.4c4.6-3.3,9.6-6.1,14.6-8.7c5-2.5,8.6-6.5,11-11.7c1-2.1,2.4-3.9,3.9-5.6
		C442.4,221.9,450.7,218.2,460.9,218.1z M396.8,267.4c6.1-3.8,6.1-3.8,6.7-5.8C400.1,262,398.4,264.1,396.8,267.4z M447.1,229.4
		c0.1-0.9-0.3-1.2-1.1-1.4C446,228.8,445.8,229.5,447.1,229.4z M394.9,270.3c1.2,0.3,1.5,0,1.6-0.8c-0.3-0.3-0.6-0.3-0.9-0.1
		C395.4,269.6,395.3,269.9,394.9,270.3z"/>
	<path fill="none" d="M369.9,568.1c-3.3,3.9-7.7,5.4-12.3,6.3c-5.9,1.2-11.7,1-17.6-0.2c-1.7-0.3-3.4-0.4-5.1-0.6
		c-3-0.4-5.9,0.1-8.4,2c-0.3,0.2-0.8,0.3-1.4,0.5c-0.7-1.7-1-3.6-0.5-5.1c1.6-5.4,1.3-11.2,3.5-16.8c-0.3-0.8-0.7-2-0.1-3.3
		c1.6,0.8,2.9,3.6,5.6,1.2c-1.2-3-3.9-4.8-5.1-7.8c0.9-2.6,4-3,5.6-5c0.6,0.9-0.5,1.6,0.2,2.9c5,2.7,9.5,6.9,14.2,11.2
		c3.8-0.1,6.8-1.6,8.3-5c0.9-2.2,2.5-3.7,4.1-5.6c1.3,3.4,2.8,6.5,1.7,10C365.2,557.9,366.8,563.4,369.9,568.1z"/>
	<path fill="none" d="M339.5,509.2c6.5-2.9,13.1-4.2,20-4.7c-0.6,8.7-1.1,17.1-2.6,25.5c-0.8,4.8-0.2,9.5-0.3,14.2
		c-0.8,1.8-2.6,2.8-2.5,4.6c-1.6,1.1-2.9,2-4.7,2.2c-4.3-3.9-9.4-7.3-11.8-13.3c2.4-3.3,2.7-7.2,2.7-11
		C340.2,521,340.4,515.2,339.5,509.2z"/>
	<path fill="none" d="M466.7,244.3c-2.6,1.5-4.8,3.1-6.9,5c-1.4,1.3-3.6,1.5-5.5,1.6c-4.1,0.2-8,1.5-12,1.4c-0.4,0-0.9,0-1.6-0.1
		c-0.7-3.3,0.7-6.1,2.5-8.4c2.9-3.8,6.2-7.3,9.3-10.9c3.6-4,7-8.1,10.3-12.3c1.5-1.8,3-3.7,5.2-4.7c0.8,0.9-0.1,1.3-0.5,1.7
		c-4,4.7-6.7,10.3-10.3,15.3c-1.2,1.7-2.3,3.7-1.9,5.7C458.2,242.9,462.4,243.3,466.7,244.3z"/>
	<path fill="none" d="M288.3,558.8c4.6-0.9,9.4-2.3,14-3.7c1,1.4-0.5,2-0.4,3.3c0.7,0.8,1,1.9,0.7,3.2c-0.8,3.3-1.2,6.7-1.3,10.1
		c0,0.4-0.2,0.8-0.4,1.3c-5-0.3-9.2-2.6-13.5-4.2C286.5,565.3,286.7,562.4,288.3,558.8z"/>
	<path fill="none" d="M306,320.9c8.2-0.8,16.5,0.8,24.7-1.2c2.7-3.3,0.2-6.8,0.8-10.3c1.8-0.2,3.4,0.6,5.2,0.9
		c1.7,0.3,3.3-0.7,5.4-0.4c-0.7,5.1-0.7,10,0.8,15c-3.3,0.2-6.3,0.4-8.7,0.5c-1.5-1-1.2-2.3-1.9-3
		C323.4,323.4,314.7,321.9,306,320.9z M340.8,316.2c-1.2-1.9-2.6-2.2-7.4-1.3C336,316.2,338.3,316.6,340.8,316.2z"/>
	<path fill="none" d="M322,300.8c0.8,1.5,2.1,2.5,2.1,4.2c0,1,0.9,1.7,2,2.1c1.2,0.4,2.3,1,3.5,1.6c0.5,3.1-0.3,6.2,0.4,9.5
		c-5.1,0-9.9,0-14.8,0c0.6-3.7,0.3-7-0.7-10.4C318.6,307,320.5,304.2,322,300.8z"/>
	<path fill="none" d="M314.2,273.5c-0.1-2.9,0.1-5.4-0.6-8c0.5-0.1,0.8-0.3,1.1-0.3c4.9,0,9.7,0,14.8,0c0.1,4.3,0,8.6,0.8,13.1
		c-1.3,0.8-2.6,1.4-4.2,1.3c-1.2-1.5-2.4-2.9-3.6-4.4c-1.6-2.1-3.7-2.9-6.3-2.1C315.8,273.2,315.2,273.3,314.2,273.5z"/>
	<path fill="none" d="M337,510.2c1.2,5.5,1,19.8-0.1,23.2c-2.7,1.6-5.2,3.8-7.5,6.3c0.1-5.2,1-10.3,1.6-15.3
		C331.6,519.2,333.9,514.8,337,510.2z"/>
	<path fill="none" d="M390,414.1c-2.4,0-4.8-0.1-7.1,0c-2.1,0.1-4.3-0.2-6.2,1.3c-0.6,0.4-1.6,0.5-2.3,0.4c-5.6-0.8-11.1,0.6-16.6,1
		c-0.2,0-0.4-0.1-0.9-0.1c-0.6-2.5-1.7-4.9-3.5-7.3c12.5,1.4,24.6,2.1,36.7,3.6C390,413.4,390,413.7,390,414.1z"/>
	<path fill="none" d="M518,155.8c-0.6-0.4-1.2-0.7-1.8-1.1c0.6-3.5-1.5-6.3-2.5-9.5c4.5-2.6,8.6-5.7,10.5-11.5
		c1.6,4.9,2.2,9.1,1.7,13.6C523.3,150.2,520.7,153,518,155.8z M518.8,152.2c3-1.8,4.6-4.6,5.3-8C522.5,147,521.1,149.9,518.8,152.2z
		"/>
	<path fill="none" d="M307.5,278.1c4.3-1.1,7.7-3.9,12.1-3.3c1.9,1.1,3.1,2.7,3.2,5.2c-0.5,0.8-1.2,1.5-2.2,1.9
		c-3.6-1.7-7-0.8-10.2,0.8c-2.3,1.2-4.6,2.4-7.6,2.2C303.4,281.7,306.3,280.5,307.5,278.1z"/>
	<path fill="none" d="M520.4,200.5c0.8,0.5,1.5,0.9,2.2,1.3c-0.1,0.2-0.1,0.5-0.2,0.5c-4.1,1.8-8,3.8-11.7,6.2
		c-1.4,0.9-3,1.5-3.4,3.6c-0.2,1.1-1.6,1.5-2.6,2c-3.3,2-5.7,4.8-7.6,8.1c-0.8,1.4-1.5,2.8-1.3,4.6c-1.2,0.7-2.4,1.5-4.3,2.6
		C498.7,216.8,507.7,207,520.4,200.5z"/>
	<path fill="none" d="M747.7,522.5c2.2,1.8,4.6-2.1,6.6,0.7c0.5,2.2,0.5,2.2-1.2,4.2c-5,0.9-10.2,0.8-16.2,0.8
		C740.9,526,744.4,524.7,747.7,522.5z"/>
	<path fill="none" d="M306.2,317.9c0-3.1-0.3-5.8-0.9-8.6c2.6-0.7,5,0.5,7.8-0.7c-0.2,3.3-0.7,6.2-0.2,9.2
		C310.7,317.9,308.7,317.9,306.2,317.9z"/>
	<path fill="none" d="M305.6,277.3c0.7-3.8,0.5-7.5-0.2-11.4c2-0.7,3.8-0.6,6-0.5c0.1,3.1-0.7,6,0.4,8.8
		C310.2,276.4,307.2,275.3,305.6,277.3z"/>
	<path fill="none" d="M305.5,287.1c1.8-1,3.9-1.2,5.5-2.4c0.9,0.4,0.2,1.6,1,2c1.2-0.8,0.4-1.9,0.7-2.9c2.2-0.6,4.3-1.3,6.8-0.4
		c-0.5,1.4-2.1,2.5-0.2,4.2c-2.7,0.5-5,1.4-7.1,1.3C309.9,288.7,307.7,287.7,305.5,287.1z"/>
	<path fill="none" d="M512.5,151.6c-0.2-1.7-2.1-1.5-2.6-2.6c0.1-0.5,0.4-0.8,1-1.2c1.4,0.9,1.9,3,3.5,3.4c0.4,1.4,0.3,2.4-0.4,3.3
		c-0.3-0.3-0.6-0.7-1-1.2c-0.9,1.1-2.3,1.8-3,2.9c-0.8,1.2-1.1,2.4-2.8,2.4c0-2.4-0.1-1.5,2.8-5c0-1.3-1.8-1.1-2-2.5
		C509.6,150.8,510.8,152.9,512.5,151.6z"/>
	<path fill="none" d="M778.4,515.9c1.3-0.1,2.7-0.4,4-0.3c2.1,0.1,3.2,1.6,3,3.7c-0.2,2.1-1.2,2.9-3.8,2.6
		C780.7,519.9,781.2,517,778.4,515.9L778.4,515.9z"/>
	<path fill="none" d="M512.6,178.2c-0.3-2,0.1-3.8,1.2-5c1.3-1.4,1.8-3.1,2.1-4.9c1.9,1.4,2,1.8,1.1,3.8c-0.2,0.4-0.4,0.8-0.6,1.2
		C515.1,175,513.9,176.6,512.6,178.2z"/>
	<path fill="none" d="M517.9,161.3c-0.6-3,2.3-3.3,3.2-5.1c-0.3-0.2-0.7-0.5-1.3-0.9c1.5-1.3,2.9-2.6,4.3-3.7
		C523.9,154.5,521.5,158.4,517.9,161.3z"/>
	<path fill="none" d="M445.3,578.6c-4.2-0.8-8.5-1.7-12.7-2.5c0-0.9,0.6-1,1-1c3.5,0.6,7.1,1.3,10.5,2.4
		C444.6,577.7,445.2,578,445.3,578.6L445.3,578.6z"/>
	<path fill="none" d="M506,150.4c-0.6-1.1-1.7,0.6-2.6-0.7c3.3,0,4.2-3.4,7.5-4.7c-1.6,2.5-3.1,4.2-4.7,5.7L506,150.4z"/>
	<path fill="none" d="M510.2,162.1c0.1-0.9,0.9-1.2,1.5-1.7c1.5-1.2,2.9-2.5,3.5-4.4c1.2,0.7,1.2,1.8,0.6,2.3
		C514.1,159.8,512.9,162.1,510.2,162.1L510.2,162.1z"/>
	<path fill="none" d="M500.8,146.5c1.6,0,2.8,1,4.2,0.7C503.3,148.6,503.3,148.6,500.8,146.5z"/>
	<path fill="none" d="M425.2,584.4c1-1.3,1.8-0.2,2.6,0C427,584.4,426.2,584.4,425.2,584.4z"/>
	<path fill="none" d="M499.2,367.7c0.7,0.1,1.5-0.3,2.4,0.3C500.6,368.3,499.9,368.4,499.2,367.7L499.2,367.7z"/>
	<path fill="none" d="M800.4,504.9c0.5,0,0.9,0,1.4,0l-0.1-0.1c0.1,0.5-0.1,0.9-0.4,1.2c-1.1,1.3-2.1,2.6-3.1,4
		c-1.1,1.5,0.9,3-0.8,4.5c6.9,2.9,13.4,4.3,20.2,0.5c-0.7-1.6-0.5-3.2,0.7-4.9c1.8-0.7,3.6-1.6,5.9-1.2c1.6,0.3,3.1-0.6,4.5-1.4
		c3.3-1.8,6.7-2.7,10.3-1.6c1.3-0.7-0.5-1.8,0.5-2.4c5.9,4.8,11.1,10.7,18.7,13.3c0.7,0,1.4,0.1,2,0c6-1.6,12.3-0.7,18.3-1.8
		c8.6-1.5,17.4-1.4,25.8-4.1c1.3-0.4,2.7-0.6,4-0.6c3.5,0.1,6.6-1.4,9.8-2.7c4.9-2,9.6-4.8,14.9-5.8c1.3-0.2,2.4-1.2,3.8-1.9
		c-1.8-1.5-3.9-0.3-5.8-1.4c-1.7-6.3-6.3-11.3-9-17.3c-0.6-1.2-1.5-2.3-0.9-4c-2.6-2-3.2-5.1-4.3-7.9c-1.1-2.7-1.5-5.5-3.3-8.1
		c-1.4-2-1.5-4.7-1.9-7.2c-0.4-2.1-0.6-4.3-1.4-6.5c-1.2-0.5-2.1-1.9-3.8-2.1c-0.6,2.2,2.4,2.6,2.1,4.7c-1.4,0.6-2.6,1.4-3.5,2.9
		c1.4,0.4,2.3-0.8,3.6-1.1c0.8,5.4,2.2,10.5,4.4,15.4c-1,0.8-1.6,0-2.2-0.3c-2.6-1-4.9-2.3-7.3-3.7c-1.8-1-3-2.5-4.3-4.2
		c-4.4-6.2-6.3-13.3-8.2-20.4c-1.4-5.2-0.9-10.3,2-15.1c1.7-2.7,3.3-5.5,5.4-7.8c1.8-2,3.4-4.3,4.9-6.5c1.5-2.2,3.3-4.1,5.9-4.3
		c5.2,1.5,9.6,4.1,14.4,6c7.5,3,11.8,8.5,13.8,16.1c1.2,4.6,2.4,9.2,3.4,13.9c0.9,4,2.5,7.8,4.2,11.5c5.1,11,9.6,22.3,13.2,33.9
		c0.3,0.9,0.5,1.8,0.4,2.7c-0.4,4.6,0.4,9.1,1.6,13.5c1.2,4.6,1.4,9.2,0.5,13.8c-0.7,3.3-1.1,6.7-1.7,10.2c-1.7,0.7-3.3,0.8-5,0.9
		c-7.6,0.1-15.2,0.6-22.6,2.6c-2.7,0.7-5.6,1-8.5,0.8c-8.1-0.6-16.1,0.6-24.2,0.4c-3.2-0.1-6.4-0.1-9.5-0.5
		c-0.8-0.1-1.6-0.2-2.4-0.1c-5.9,0.8-11.8,0.2-17.7,0.4c-2.9,0.1-5.7,0.4-8.2,1.9c-0.8,0.4-1.8,0.9-2.6,0.7
		c-3.7-0.9-7.1,1.2-10.7,1.2c-2.4,0-4.8,0.8-7.3-0.6c-0.9-0.6-2.6-0.8-3.9,0.1c-1.1,0.8-2.3,0.6-3.6,0.4c-2.6-0.4-5.2-0.8-7.7-1.6
		c-1.3-0.4-2.4-0.8-2.7-2.6c2-0.1,4-0.1,6-0.3c1.8-0.2,3.8,0.7,5.6-1.3c-2-1.1-3.9-1-5.7-1c-1.2,0-2.5,0.2-3.7,0.3
		c-1.9,0.2-3.6-0.2-4.8-1.7c-0.8-0.9-0.2-1.9-0.8-2.7c-2.7,1.2-5.4,2.1-8,3.5c-2.9,1.6-6.2,0.7-9.4,0.7c-0.7,0-1.5-0.8-2.3,0.4
		c6.5,2.8,12.1,1.2,17.8-2.9c-0.5,3.5-2.3,5.6-5,6.8c-2.8,1.3-5.7,2-8.9,1.6c-0.9-0.1-1.8,0-2.9,0c-0.7-1.3-1.8-2.3-3-2.5
		c-0.7-1.3-0.3-2.3-0.4-3.3c-0.2-1.2-1.6-1.7-1.7-2.8c-0.2-1,0.6-1.7,0.7-2.5c-0.1-1.8-1.7-2.7-2.5-4.2c0.8-2,1.3-4.2,2.5-5.8
		c0-1.4-1-2-1.3-3.1c0.4-1.1,0.8-2.2,1.2-3.2C797.4,505.6,799.8,507.2,800.4,504.9L800.4,504.9z M819,521.1
		c-0.1,0.4-0.3,0.8-0.4,1.2c0.6,0.9,1.5,1.2,2.4,0.9c3.5-0.9,7.2-1.2,10.6-2.5c0.6-0.2,1.4-0.2,1.4-1.2c-0.8-0.8-1.7-0.4-2.5-0.2
		c-1.3,0.3-2.6,0.8-4,0.9c-2.6,0.2-5,1.7-7.6,0.9c0-0.7,1-0.5,1.1-1.2c0-0.8-0.8-1.6,0.1-2.7c2.3-0.8,4.9-1.6,7.4-2.6
		c5.3-2.1,5.5-2.3,6.7-4.5c-4.2,0.7-7.6,3-11.3,3.8c-3.1-1.6-3.1-1.6-4.3-0.1c0.1,1.2,1.3,0.4,1.8,1.3c-2.2,0.9-2.7,3.2-3.9,4.9
		c-1.4,0.4-2.8,1-4,1.9c-1,0.8-2.2,1.4-3.5,1.3c-2.7-0.2-5.5-0.2-7.8-2c-0.2-0.2-0.6-0.2-0.9-0.3c-1,0.2-1.8,0.6-2.2,1.5
		c0.2,1.1,0.7,1.9,1.9,2.4c1.9-0.8,4-0.3,6.1,0.2c2.5,0.5,4.7-0.1,6.9-1.3c1.5-0.8,2.8-1.8,4.1-2.6
		C817.8,521.1,818.4,521.1,819,521.1z M864.8,529.2c-1.8,0-3.7-1.2-5.8,0C861.3,530.5,861.8,530.5,864.8,529.2z M917.5,447.9
		c-1.9-1.1-3.2-3.1-5.6-3.5C913.2,446.4,915,447.6,917.5,447.9z M857.9,521.1c1.8,0.7,2.8,0.2,3.8-1.4
		C860.2,520,858.9,519.3,857.9,521.1z M939,500.9c1.1,1.5,2.1,1.6,3.6,1.8C941.7,501.3,940.8,501,939,500.9z M835.5,526.8
		c0.3-1.6,0.3-1.6-0.9-2.9C834.4,525.1,834.1,526.1,835.5,526.8z M871.7,529.2c-0.1-0.5-0.3-0.8-0.8-0.9c-0.5-0.1-1.1-0.1-1.2,0.7
		C870.3,529.7,871,529.5,871.7,529.2z M902.1,441.5c-0.7-1.1-1.2-1.7-2.4-1.2C900,441.3,900.6,441.7,902.1,441.5z M928.7,451.3
		c-0.8-0.9-1.7-1.2-3.3-0.5C926.8,450.9,927.4,451.9,928.7,451.3z M807.9,521.7c0.6-0.6,0.7-1.1-0.2-1.9
		C807.3,520.7,807,521.2,807.9,521.7z M875.7,528.7c0.2,0.6,0.6,0.6,1.1,0.4c0.4-0.2,1-0.2,1-0.9C876.9,528,876.1,527.9,875.7,528.7
		z M883.4,528.6c1.1,0.4,1.9,0.4,2.7-0.4C885.1,527.9,884.3,527.7,883.4,528.6z M833.6,515.3c-0.3,1,0.1,1.3,0.9,1.5
		C834.5,516,834.5,515.5,833.6,515.3z M922.5,449.1c-0.1,0.6,0,0.9,0.3,1c0.4,0.1,0.9,0.3,0.9-0.4
		C923.5,449.4,923.2,449,922.5,449.1z"/>
	<path fill="none" d="M819.1,564.9c1.4,3.4,5.8,4.2,6.1,8.5c-2.6,0.9-5.2,1.9-7.9,2.5c-5.1,1.1-10,3-14.7,5.4
		c-1.8,0.9-3.3,2-4.3,3.8c-3.2,6.2-5.5,9.1-4.5,16.5c0.4,3,0.9,6.1,1.4,9.1c0.1,1,0.2,2,0.4,3.4c-4,0.1-7.6-0.6-11.3-0.9
		c-3.2-0.2-6.3-1.1-9.4-1.8c-7.8-1.7-15.8-1.7-23.8-1.6c-3.6,0.1-7.3-0.1-10.9-0.4c-2.5-0.2-4.6-2-7.1-2c-1.8-1.6-3.2-3.4-5.5-4.8
		c0.1,1.9,0.8,3.1,2.1,3.7c2.8,1.3,4.6,3.5,5.9,6.3c0.9,1.9,2.3,3.6,3.2,5.9c-3.5,0.8-6.9,0.8-10.2,1c-0.6,0-1.3-0.2-2-0.1
		c-5.8,0.7-11.7,0.8-17.4,2c-0.8,0.2-1.6,0.3-1.7,0.3c-5.8-9.8-5.6-20.6-8.4-32c0-1.9,2-4.7,1.9-8c5.2-3.4,10.4-6.9,15.6-10.2
		c4-2.6,8.3-4,13.1-4.6c5.4-0.6,10.9-1.1,16.3-1c5.9,0.1,11.8-0.4,17.7-1.2c4.6-0.6,9.3-0.6,14-0.3c5.9,0.4,11.8,0.6,17.7-0.4
		c1.1-0.2,2.3-0.2,3.4-0.1C805.5,564.5,812.1,564.7,819.1,564.9z M708.7,583.6c-1.4,1.5-1.6,3.4-1.8,5.4c1.5-1.1,2.8-2.2,3.1-4
		C710.2,584.4,709.7,583.8,708.7,583.6z M715.8,586.9c-0.8-1-1.5-2-2.3-2.9c-0.7-0.8-1-2.1-2.8-2.4
		C711.7,584.5,713.6,585.9,715.8,586.9z M720.8,589.2c0.5,0.6,0.8,1,1.4,0.6C722.1,588.9,721.6,589,720.8,589.2z"/>
	<path fill="none" d="M886.4,566.3c-0.6,0.5-1.1,1-1.8,1.3c-0.7,0.3-1,0.7-1,1.5l0.1-0.1c-1.1,0.4-2.2,0.2-3.4,0.1
		c-7.5-0.2-15-0.6-22.5-0.5c-4.2,0.1-8.3,1.2-12.5,1.4c-6.2,0.4-12.1,2.1-18.3,3.2c-1.1-2.8-2.2-5.7-4.6-8.1
		c4.4-0.4,8.5-0.6,12.2-2.1c12.8,4,31.1,5.8,38,3.5c-12.4-0.3-24-1.5-35.4-5.1c-0.1-2.1,0.1-4.1,0.5-6c1.4-1.2,3.3-0.1,4.5-1.3
		c-0.6-5.4-1.2-10.7-1.1-16.2c4.6-0.6,9.2-0.4,13.6-1.9c3.7,0.7,7.5,1.2,10.6-2c15.3-0.1,30.6,0.9,46.1-0.1
		c0.1,4.8,0.4,9.3,1.5,13.7c0.5,2.1,1.1,4.2,2,6.1c0.3,0.7,0.6,1.5,1.1,2.1c6,7.7,10.1,16.4,13,25.6c2.8,9.1,2,18.2-0.7,27.2
		c-0.7,2.4-2.1,4.2-4.1,5.7c-3.2,2.3-6.4,4.7-9.6,7.1c-0.7-1,0-1.6,0.2-2.3c1.5-5.2,0.8-10.1-1.6-14.9c-0.7-1.4-1.4-2.8-1.9-4.3
		c-4.4-12.8-12-22.6-25.3-27.1c-0.6-0.2-1.2-0.5-1.7-1c7.8,1.6,16.1,0.8,23.5,4.8c0.7-0.8,0.1-1.4-0.5-1.8c-1.8-1.3-3.9-1.9-6-2.3
		c-3.2-0.6-6.5-1.1-9.8-1.6c-1.4-0.2-2.8-0.5-4.3-0.8c0.5-1.1,1.3-0.9,1.9-1c8.2-0.6,15.8-3.2,23.2-6.4c1.4-0.6,2.6-1.3,3.8-2.3
		c0.6-0.5,1.2-1.1,0.8-2c-0.6-0.7-1.2-0.2-1.8,0c-8.9,3.6-18,6.3-27.5,7.8C887.3,566.4,886.8,566.4,886.4,566.3
		c0.3-0.3,0.4-0.7,0.2-1.1c-0.8-0.7-2.1,0.2-2.8-0.7c-0.4-1.1,0.9-2.1,0.3-3.3c-1.3,0.9-1.4,2.4-2.3,3.6c-2.2,0.3-4.5,0.6-6.8,0.9
		C878.8,566.5,882.6,566.9,886.4,566.3z M914.3,578.7c0.5,0.7,1,1.3,2.1,1.1c-0.5-0.8-1.1-1.2-1.9-1.3c-0.9-1-1.9-1.7-3.7-1.8
		C912.1,577.8,913.1,578.5,914.3,578.7z M909.6,581.4c1.1,1.4,2.8,1.9,4.4,2.5C912.6,582.8,911.5,581.4,909.6,581.4
		c-3.7-3-8.1-4.7-12.7-6C901.1,577.5,905.1,580,909.6,581.4z M850,538.5c-0.3,0-0.5,0-0.8,0c-0.5,1.6-0.4,3.3-1.6,4.7
		c2.1,1.5,4,1.9,5.9,0.4c-0.3-1.6-2-1.2-2.5-2.2C850.7,540.4,850.3,539.5,850,538.5z M888.1,554.6c-1.1,1-1.1,1-0.8,1.9
		C887.9,556.1,888.2,555.7,888.1,554.6z"/>
	<path fill="none" d="M846.4,641.4c-1-3.4-2.6-6.4-4.5-9.3c-1.6-2.4-2.3-5.1-2.6-8.2c10.1,4.3,20.7,6,31.3,7.5
		c4.2,0.6,8.4,0.3,12.6,0.1c8.1-0.5,15.7-2.5,23.2-5.1c1.6-0.6,3.5-1.4,5.5-0.9c0.6-1.4,1.6-2.4,3.1-2.9c10.3-3.8,16-11.5,18.5-21.9
		c0-0.1,0.1-0.2,0.2-0.5c2.1-0.7,4.5-0.9,6.9-1c8.5-0.4,17-0.3,25.5,0.7c9.7,1.1,19.5,1.4,29.3,1.2c1,0,2.1,0.1,3.1-0.2
		c5.4-1.3,10.9-1,16.2,0.3c4,1,8.4,0.3,12.2,2.9c0.4,6.1-1.7,12-2.2,18.2c-2.1,0.8-4.1,0.7-6.1,0.8c-10.4,0.7-20.8,2.3-31.2,3.5
		c-11.2,1.3-22.4,1.8-33.7,2.5c-15.5,0.9-31.1,1.7-46.6,3.9c-18.4,2.6-36.9,5.3-55.3,8C850.2,641.4,848.5,641.7,846.4,641.4z
		 M972.4,610c-6.6,0.5-13.1,1-19.7,1.5c-5.4,0.4-10.8,0.6-16.2,0.9c10.4,0.5,20.6-0.4,30.9-1.4C969.1,610.8,970.9,611.1,972.4,610
		c0.6-0.1,1.3-0.2,2.2-0.2C973.7,609.4,973.1,609.6,972.4,610z M985.7,606.3c3.9,0.4,26-1,29.3-1.7
		C1004.9,604,995.4,606.4,985.7,606.3z M967.3,617.3c-0.2,0.5-0.4,1,0.2,1.5C967.5,618.2,967.8,617.7,967.3,617.3z"/>
	<path fill="none" d="M911.8,507.3c-8.3,1.6-16.4,3.3-24.6,4.7c-3.2,0.5-6.6,0.4-9.9,0.4c-1.4,0-2.7,0.1-4,0.6
		c-3.7,1.4-7.6,1.5-11.4,1.9c-2.6,0.2-4.9-0.4-7.1-1.8c-2.9-1.8-5.7-3.8-8.2-6.1c-1.8-1.6-3.6-3.1-5.7-4.4c0-2.2,0-4.4,0-6.8
		c24.6,2.4,48.9,1.3,73.5-2.3C913.6,498,912.4,502.5,911.8,507.3z"/>
	<path fill="none" d="M800.5,504.8c-0.2,0-0.5,0.1-0.7,0.1c-5.7-0.2-5.7-0.2-7.1,5.2c-0.1,1.3,1,2.1,1,3.4c-0.3,0.8-0.7,1.8-0.9,2.8
		c-0.3,1-0.4,2-0.6,3c0.4,1.7,1.5,3,2.1,4.6c0.3,1-0.9,1.6-0.4,3c0.9,1.3,2.3,3,1.6,5.2c1.6,1.5,2.9,3.2,4.7,4.3
		c0.2,2.8,0,5.6,0.7,8.7c-2.8,0-5.2,0-8.1,0c-0.2-17.2-2.3-34.6-2.8-52.2c3.6-0.6,6.6,0.4,9.9,0.3
		C799.9,497.2,799.2,501.1,800.5,504.8L800.5,504.8z"/>
	<path fill="none" d="M826.3,535.8c0.6,3.3-0.5,6.4,0.8,9.8c-5.1,0.5-9.9-0.4-14.9-0.3c0-3.6,0.3-6.9-0.9-10.3
		c3.8-0.9,6-3.4,7.5-7.3c0.7,1.8,2.2,2.5,2.1,4.3c-0.1,1.1,0.8,1.8,1.8,2.2C823.8,534.7,825,535.2,826.3,535.8z"/>
	<path fill="none" d="M827.1,505.3c-1.4,0.9-2.7,1.3-4.1,1.4c-1.1-1.4-2.3-2.8-3.3-4.2c-1.7-2.2-3.8-3.2-6.5-2.4
		c-0.6,0.2-1.3,0.3-2.3,0.5c0-2.8,0-5.4,0-8.3c5,0,10,0,15.3,0c0.6,2-0.1,4.3,0.3,6.5C826.8,500.9,826.9,503.2,827.1,505.3z"/>
	<path fill="none" d="M919.5,482.8c4.1,6,7.5,11.4,9.8,17.8c-4.9,1.9-9.9,3.7-15.4,5.8C916,498.6,918.1,491.1,919.5,482.8z"/>
	<path fill="none" d="M828.4,536.3c2.8,0.4,5.3,1.7,8.2,1c0.3,1.4,0.1,2.6-0.1,3.9c-1.8,0.9-3.8,0-5.9,0.7c1.7,1.5,3.8,1,5.7,1.8
		c0.2,2.8,0.4,5.5-0.4,8.3c-1.9,0.6-3.6,0.8-5,0.5c-1.6-0.9-1-2.5-1.9-3c-8.6,1.1-16.9-0.7-25.9-1.2c1.9-0.9,3.3-0.6,4.6-0.6
		c5.6,0,11.1,0.4,16.7-0.4c4.8-0.7,4.2-1.9,4.3-5c0-1.1-0.5-2-0.4-3C828.4,538.5,828.4,537.6,828.4,536.3z"/>
	<path fill="none" d="M774.5,615.5c-2,0-4.1-0.1-6.1,0c-2.6,0.1-5.2-0.2-7.5,1.4c-0.5,0.4-1.3,0.4-2,0.4c-5.7-0.8-11.3,0.7-16.9,1
		c-0.1,0-0.2,0-0.6-0.1c-0.7-2.4-1.6-4.9-3.6-7.3c12.5,1.4,24.6,2.1,36.7,3.6C774.5,614.8,774.5,615.2,774.5,615.5z"/>
	<path fill="none" d="M902.5,357.3c-0.6-0.4-1.1-0.7-1.8-1.1c0.5-3.4-1.4-6.2-2.5-9.4c2-1.4,4.3-2.7,6.1-4.5c1.9-1.9,3.3-4,4.2-6.6
		c1.8,3.9,2.3,8.7,1.8,13.2C907.9,351.5,905.3,354.3,902.5,357.3z M908.1,346.8c-1.5,2.3-2.9,4.7-4.8,6.8
		C905.9,352.1,907.5,349.8,908.1,346.8z"/>
	<path fill="none" d="M799.6,512.2c0.5-3.4,3.4-4.6,4.7-7c3.2-0.4,5.6-2.7,8.9-3.1c4.1-0.6,5.9,0.8,6.3,5.2
		c-0.5,0.8-1.2,1.3-1.9,1.7c-0.3,0-0.6,0-0.8-0.1c-3.4-1.7-6.6-0.5-9.7,0.9C804.8,510.9,802.6,511.8,799.6,512.2z"/>
	<path fill="none" d="M803.3,545.1c-0.3-3.1-0.6-5.8-0.9-8.6c2.6,0,4.9,0,7.5,0c0.5,2.8-1,5.6,0.2,8.4
		C807.7,545.4,805.6,545,803.3,545.1z"/>
	<path fill="none" d="M801.8,504.9c1.5-3.8,0.8-7.8,0.6-11.8c1.9-0.9,3.8-0.6,5.9-0.4c-0.4,3.1-0.7,6,0.3,8.8
		C806.5,503.2,803.5,502.8,801.8,504.9L801.8,504.9z"/>
	<path fill="none" d="M801.7,514c2.4-0.7,4.5-1.3,6.3-2.2c0.7,0.6,0.2,1.5,0.9,2c1.1-0.8-0.1-2.1,1-3.1c1.8-0.1,3.8-1.3,6.2-0.2
		c-0.3,1.4-1.7,2.7-0.5,4.1C810.8,516.5,806.6,515.7,801.7,514z"/>
	<path fill="none" d="M898.9,352.7c0.3,1.4,0.2,2.2-0.3,3.1c-0.8,0.2-0.5-0.9-1.3-0.9c-1,1.5-3.1,2.2-3.7,4.3
		c-0.2,0.6-1.2,0.9-2.2,0.6c0.2-2.3,2.1-3.4,3.2-4.8c-0.2-1.3-1.7-1.2-2.1-2.4c1.6-0.5,3,2,4.6,0.5c-0.1-1.6-1.8-1.5-2.7-2.7
		c0.5-0.6,0.8-1.7,1.8-0.5C897,350.9,897.7,352,898.9,352.7z"/>
	<path fill="none" d="M900.5,369.8c2.2,2.8,1.7,4-3.6,9.9C896.1,375.7,900.6,373.6,900.5,369.8z"/>
	<path fill="none" d="M902.4,362.8c-0.6-3,2.3-3.3,3.2-5.1c-0.3-0.2-0.7-0.5-1.3-0.9c1.5-1.3,3-2.6,4.3-3.7
		C908.4,355.9,906,359.9,902.4,362.8z"/>
	<path fill="none" d="M890.4,351.8c-0.6-1.1-1.7,0.6-2.6-0.7c3.3-0.1,4.2-3.4,7.6-4.8c-1.6,2.6-3.1,4.2-4.7,5.7L890.4,351.8z"/>
	<path fill="none" d="M894.6,363.5c0.1-0.9,0.9-1.2,1.5-1.7c0.8-0.7,1.6-1.3,2.2-2.1c0.6-0.7,0.9-1.5,1.4-2.3c1.1,0.6,1,1.7,0.4,2.3
		C898.5,361.3,897.3,363.6,894.6,363.5L894.6,363.5z"/>
	<path fill="none" d="M890.1,348.9c-2.4,1.5-3.5,0.2-4.6-0.9C886.8,348.2,888.1,348.5,890.1,348.9z"/>
	<path fill="none" d="M838,551.5c0.2-0.6,0.5-1.1,0.7-1.8c0.7,0.7,0.8,1.3,0.8,2C839,552.1,838.6,552,838,551.5z"/>
	<path fill="none" d="M883.6,569.1c0.7,0.1,1.5-0.3,2.4,0.3C885,569.8,884.3,569.8,883.6,569.1L883.6,569.1z"/>
	<path d="M377,432.4c-0.9-0.5-1-1.4-1.4-2.5c6.6,0,13.1,0,19.6,0c-5.9,1.2-11.8,1.6-17.6,1.2C376.9,431.6,377.1,432.1,377,432.4
		L377,432.4z"/>
	<path d="M407.9,440.2c-0.4-3.6-0.7-7.2-1.1-10.7c-1.1-0.9-2.4,0.1-3.4-0.7c0.9-0.9,2.9-0.3,3.1-2.4c1.1,0.4,1.7,1.7,3,1.5
		c-0.4,0.3-0.9,0.6-1.5,1.1c0.4,1.8,0.5,3.7,0.4,5.7c-0.1,1.9,0.8,3.7,0.2,5.6C408.4,440.2,408.1,440.2,407.9,440.2z"/>
	<path d="M329.4,433.8c-3,1-7.8,0.8-11.4-0.4C320.6,432.9,326.9,433.1,329.4,433.8z"/>
	<path d="M412.3,425.4c-3.3,0.3-6.6,0.5-9.9,0.8c3.2-1.6,6.5-2.1,9.9-1.7C412.2,424.8,412.3,425.1,412.3,425.4z"/>
	<path d="M337.2,434.8c4.4-0.5,8.7-1,13.1-1.5C346.1,434.5,341.7,435.3,337.2,434.8z"/>
	<path d="M371,430.1c-3.1,1.1-6.3,1.8-9.7,1.5C364.5,430.5,367.6,429.5,371,430.1z"/>
	<path d="M377,432.5c1.2,3.2,1.4,7.2,0.1,9.6C377,438.9,377,435.7,377,432.5L377,432.5z"/>
	<path d="M297,436c-0.5,3.6-1.1,7.1-1.6,10.7C294.8,443,296,439.4,297,436z"/>
	<path d="M335.8,445.1c0,1.4,0,2.8,0,4.3c-0.1,0-0.1,0-0.2,0c0-1.4,0-2.9,0-4.3C335.7,445,335.8,445.1,335.8,445.1z"/>
	<path d="M310.3,438.5c0-1,0-2,0-3c0.1,0,0.3,0,0.4,0c-0.1,1-0.1,2-0.2,3C310.4,438.5,310.4,438.5,310.3,438.5z"/>
	<path d="M395.6,427.6c-0.2,0.9-0.9,0.6-1.5,0.6c-0.1-0.6,0.4-0.5,0.7-0.6C395.1,427.3,395.4,427.2,395.6,427.6z"/>
	<path d="M761.5,633.9c-0.9-0.5-1-1.4-1.4-2.5c6.6,0,13.1,0,19.6,0c-5.9,1.2-11.8,1.6-18,1.2C761.6,633.1,761.5,633.5,761.5,633.9
		L761.5,633.9z"/>
	<path d="M791,627.8c1.2,0.8,1.7,1.6,2.8,1.3c0.2,1-0.8,0.7-1.1,1.5c0.2,3.5,0.4,7.3,0.7,11.1c-1.6-1.5-1.1-3.4-1.5-5.1
		c-0.4-1.9-0.4-3.8-0.5-5.5c-1.2-0.8-2.2,0-3.4-0.6C788.9,629.3,791,629.9,791,627.8z"/>
	<path d="M713.8,635.8c-3.8,0-7.6,0.5-11.4-1c3.8,0,7.6,0,11.4,0C713.8,635.1,713.8,635.5,713.8,635.8z"/>
	<path d="M796.7,626.9c-3.2,0.3-6.5,0.5-9.9,0.8C789.5,625.9,793.8,625.4,796.7,626.9z"/>
	<path d="M721.7,636.2c4.3-0.5,8.7-1,13-1.5c-4.2,1.3-8.6,1.9-13,2.2C721.8,636.7,721.7,636.5,721.7,636.2z"/>
	<path d="M755.5,631.6c-3.1,1.1-6.3,1.8-9.7,1.5C748.9,631.9,752.1,631,755.5,631.6z"/>
	<path d="M761.4,633.9c1.2,3.3,1.4,7,0.1,9.6C761.5,640.3,761.5,637.1,761.4,633.9L761.4,633.9z"/>
	<path d="M679.9,648.1c-0.5-3.8,0.3-7.4,1.6-10.9C680.9,640.9,680.4,644.5,679.9,648.1z"/>
	<path d="M720.3,646.4c0,1.5,0,3,0,5.3C719.9,649.4,720,647.9,720.3,646.4z"/>
	<path d="M695.2,637c-0.1,1-0.1,2-0.3,3.6C694.5,638.9,694.7,637.8,695.2,637z"/>
	<path d="M778.4,629.5c0.6-0.3,1-1,1.7-0.4C779.7,629.9,779.1,629.7,778.4,629.5z"/>
	<path d="M751.6,648.9c0,0.6,0,1,0,1.4C751.3,649.9,751.3,649.5,751.6,648.9z"/>
	<path fill="none" d="M240.9,300.9c3.4-1.9,6.9-3.4,10.2-5.5c2,1.7,3.8-1.2,5.7,0c1.2,0.8,1.4,1.9,0.8,3.2c-0.5,1.3-1.4,1.9-2.8,2.1
		C250.2,301,245.6,301.2,240.9,300.9z"/>
	<path fill="none" d="M281.9,289.2c1-0.3,1.9-0.7,2.9-0.8c1.4-0.1,2.7,0.4,3.4,1.7c0.7,1.3,0.5,2.7-0.2,3.9
		c-0.8,1.3-1.9,1.5-3.4,0.6c0.9-1.4-1.5-2.2-0.5-3.8C283.5,290.2,282.8,289.6,281.9,289.2L281.9,289.2z"/>
	<path fill="none" d="M845.5,419.6c-3.2,5-7.3,8.8-10.5,13.6C833.6,427,837.8,421.5,845.5,419.6z"/>
	<path fill="none" d="M977.1,666.3c-0.7-0.1-1.1-0.2-1.5-0.3c-0.9,0.5-0.1,1.2-0.3,1.8c-0.5,0.4-1.1,0.3-1.6,0
		c-1.3-0.7-1.5-1.9-1-3.2c0.4-1.1,1.4-1.4,2.5-1.2C976.7,663.6,977.3,664.5,977.1,666.3z"/>
	<path fill="none" d="M594.1,464.6c-0.7,0.4-1.3-0.3-1.7,0.1c-0.9,0.5,0.3,1.3-0.4,1.8c-2.3-0.6-2.8-1-2.6-2.6
		c0.1-1.2,0.7-1.8,1.9-2C592.9,461.7,593.4,462.2,594.1,464.6z"/>
	<path fill="none" d="M968.8,665.5c-0.4,1.7-1.2,2.7-3,2.4c-1.1-0.2-1.8-1-1.9-2.1c-0.1-1.1,0.4-2,1.5-2.4
		C967,663,968.2,663.6,968.8,665.5z"/>
	<path fill="none" d="M585.7,464c-0.3,1.7-1.1,2.7-2.9,2.5c-1.1-0.2-1.8-0.9-2-2c-0.2-1.1,0.3-2.1,1.3-2.4
		C583.7,461.5,585,462,585.7,464z"/>
	<path fill="none" d="M960,664.3c-0.8,1.3-1.7,1.4-2.7,1.1c-0.5-0.4-0.5-1-0.3-1.6C958,663.2,959,663.2,960,664.3z"/>
	<path fill="none" d="M574.2,463.9c-0.1-0.2-0.3-0.4-0.3-0.6c0-0.3,0-0.6,0-1.1c1.1-0.3,2.1-0.6,2.9,0.7
		C576.3,464.2,575.3,464.2,574.2,463.9z"/>
	<path d="M294.6,587.1c0.7-0.6,1.3-0.5,1.8-0.4c8.6,2.3,17.4,3,26.1,3.9c0.4,0,0.9,0.1,1.2,1C313.9,591.1,304.2,590.3,294.6,587.1z"
		/>
	<path d="M303.3,584.9c0.4-1.1,1.2-1,1.8-1.1c4-0.7,8-1.1,12.2-1.3C315.2,584.2,310.7,584.9,303.3,584.9z"/>
	<path d="M287.8,583.1c-2.9-0.4-5.8-0.8-8.6-1.3c-2.9-0.5-5.8-1.1-8.5-2.2c5.8,0.8,11.6,1.4,17.3,2.7
		C287.9,582.5,287.8,582.8,287.8,583.1z"/>
	<path d="M350.7,598.8c2.9,3.5,3.1,7.8,3.6,12C352.5,607.1,352.2,602.8,350.7,598.8z"/>
	<path d="M336.9,594c4,0.3,7.8,1,11.2,3.2c-2,0.3-3.6-1-5.5-1.4C340.6,595.3,338.6,595,336.9,594z"/>
	<path d="M261.6,578.1c1.5,0,3,0,4.8,0C264.1,578.7,264.1,578.7,261.6,578.1z"/>
	<path d="M358.2,595.2c-0.6,0.7-1.2,1-2.1,0.7C356.4,594.9,357.1,594.9,358.2,595.2z"/>
	<path d="M428.9,401.8c1.3,1.8,0.7,3.4-0.2,4.8c-1.1,1.8-2.2,3.6-2.3,5.9c0,0.1-0.4,0.2-0.9,0.5
		C425.6,408.8,427.3,405.4,428.9,401.8z"/>
	<path d="M453.1,543.7c1.1,2.1,1.7,7.4,1.4,11.9c-1.1-2.2-0.7-4.2-0.9-6C453.4,547.6,453.6,545.6,453.1,543.7z"/>
	<path d="M425.6,424c-1.1,2.5-1.4,4.6-3,6.1c-1-0.2-1.2-0.7-0.9-1.5C422.4,426.9,423.5,425.5,425.6,424z"/>
	<path d="M428.6,394.1c1.8,2.5,1.6,4.9,2.4,7.3C428.7,399.4,428,397.4,428.6,394.1z"/>
	<path d="M454.2,565.8c-1-2.6-0.8-4.5,0.3-6.9C454.8,561.4,456,563.2,454.2,565.8z"/>
	<path d="M455.8,415.8c0.8-2.2,2.4-2.7,4.7-2.2C458.9,414.6,457.8,416.1,455.8,415.8z"/>
	<path d="M466.2,412.4c1.3-0.6,2.3-1.2,4-0.5C468.8,412.9,467.8,413.8,466.2,412.4z"/>
	<path d="M455.7,515.7c0-1.5,0-3.1,0-4.6c0.1,0,0.2,0,0.3,0c0,1.5,0,3,0,4.5C455.9,515.7,455.8,515.7,455.7,515.7z"/>
	<path d="M428.8,420.2c0,1.3-0.4,1.9-1.9,2.1C427.4,421.2,427.5,420.4,428.8,420.2z"/>
	<path d="M431.5,418c0,1.3-0.5,1.6-1.3,1.5C430,418.5,430.6,418.4,431.5,418z"/>
	<path d="M420.5,399c0.4,1,0,1.3-0.7,1.4C419.1,399.5,419.5,399.2,420.5,399z"/>
	<path d="M502,364.8c-3.8,0.6-7.6,0.3-11.5-0.5c2.3-0.3,4.6-0.6,6.9-0.9c0.9-1.2,0.9-2.7,2.3-3.6c0.7,1.2-0.7,2.1-0.2,3.4
		c0.6,0.7,1.9-0.1,2.7,0.6C502.4,364.2,502.2,364.6,502,364.8L502,364.8z"/>
	<path d="M463.2,341.8c1.2-1.3,0.8-3.2,1.8-4.5c0.1-0.1,0.2-0.1,0.4-0.1c0.8,0.8,0.6,2.1,1.5,3.3c0.4,0.5,1.8,0.3,2.1,1.5
		C467,343.5,466.2,343.5,463.2,341.8z"/>
	<path d="M525.2,379.9c-4.5-1.3-8.5-3.9-13.5-5.9C514.9,374,522.3,377.4,525.2,379.9L525.2,379.9z"/>
	<path d="M525.2,379.9c2,0.3,3.5,1.3,4.7,2.8l0.1-0.1C528.1,382.2,526.5,381.4,525.2,379.9L525.2,379.9z"/>
	<path d="M529.9,377.3c-1.6-0.4-2.9-1.3-4-2.4c1.6,0.3,3.1,0.8,4.2,2.1L529.9,377.3z"/>
	<path d="M502.5,355.2c-0.4-1.2,0.1-1.6,1-1.9C503.9,354.1,503.5,354.6,502.5,355.2z"/>
	<path d="M530.1,377c0.8,0.1,1.4,0.5,1.9,1.3c-1.1,0.2-1.6-0.4-2.1-1.1L530.1,377z"/>
	<path d="M529.9,382.7c0.6,0,1,0.3,1.5,0.9C530.7,383.5,530.2,383.3,529.9,382.7L529.9,382.7z"/>
	<path d="M322.1,387.4c1-1.6,0.5-3.8,2.1-5.1C326.3,383.8,325.7,385.5,322.1,387.4z"/>
	<path d="M326.4,379.7c2.5,1.9,3.4,4.1,5.2,5.9C328.8,384.6,327.6,383.3,326.4,379.7z"/>
	<path d="M336.3,387.7c0.8-0.1,1.4-0.2,1.4,0.6C337.1,388.7,336.8,388.3,336.3,387.7z"/>
	<path d="M587.9,408.5c-1.4,1.2-3.3,0.9-4.9,1.1c-10.3,1-20.6,2-30.9,1.4c5.4-0.3,10.8-0.6,16.2-0.9
		C574.9,409.6,581.4,409.1,587.9,408.5L587.9,408.5z"/>
	<path d="M601.1,404.9c9.8,0.1,19.5-2.3,29.3-1.4C620.6,403.4,610.9,405.6,601.1,404.9z"/>
	<path d="M588,408.6c0.8-0.6,1.6-0.5,2.5-0.3C589.6,408.4,588.8,408.4,588,408.6L588,408.6z"/>
	<path d="M582.9,417.4c-0.4-0.5-0.4-1-0.1-1.7C583.3,416.3,583.2,416.8,582.9,417.4z"/>
	<path d="M396.8,267.4c1.6-3.3,3.2-5.5,6.7-5.8C403,263.6,403,263.6,396.8,267.4z"/>
	<path d="M447.1,229.4c-1.2,0.1-1.1-0.5-1.1-1.4C446.8,228.1,447.2,228.4,447.1,229.4z"/>
	<path d="M394.9,270.3c0.3-0.4,0.5-0.7,0.7-0.9c0.3-0.2,0.6-0.2,0.9,0.1C396.5,270.3,396.1,270.7,394.9,270.3z"/>
	<path d="M340.8,316.2c-2.5,0.4-4.8,0-7.4-1.3C338.2,314,339.7,314.3,340.8,316.2z"/>
	<path d="M518.8,152.2c2.3-2.3,3.7-5.2,5.3-8C523.4,147.6,521.9,150.4,518.8,152.2z"/>
	<path d="M819,521.1c-0.6,0-1.1-0.1-1.8-0.1c-1.3,0.8-2.6,1.8-4.1,2.6c-2.1,1.1-4.4,1.8-6.9,1.3c-2.1-0.4-4.2-1-6.1-0.2
		c-1.3-0.5-1.8-1.3-1.9-2.4c0.5-0.9,1.2-1.3,2.2-1.5c0.3,0.1,0.6,0.1,0.9,0.3c2.3,1.9,5.1,1.8,7.8,2c1.2,0.1,2.5-0.5,3.5-1.3
		c1.2-0.9,2.5-1.5,4-1.9c1.2-1.7,1.7-4,3.9-4.9c-0.4-0.9-1.7,0-1.8-1.3c1.2-1.5,1.2-1.5,4.3,0.1c3.8-0.7,7.1-3,11.3-3.8
		c-1.2,2.3-1.4,2.4-6.7,4.5c-2.5,1-5.1,1.8-7.4,2.6c-0.9,1.1-0.1,2-0.1,2.7c-0.1,0.7-1.1,0.5-1.1,1.2L819,521.1z"/>
	<path d="M818.9,521.2c2.7,0.8,5.1-0.7,7.6-0.9c1.3-0.1,2.6-0.7,4-0.9c0.8-0.2,1.8-0.6,2.5,0.2c0,1-0.8,0.9-1.4,1.2
		c-3.4,1.3-7.1,1.7-10.6,2.5c-0.9,0.2-1.8,0-2.4-0.9c0.1-0.4,0.3-0.8,0.4-1.2L818.9,521.2z"/>
	<path d="M864.8,529.2c-2.9,1.3-3.5,1.3-5.8,0C861,527.9,863,529.1,864.8,529.2z"/>
	<path d="M917.5,447.9c-2.5-0.3-4.3-1.5-5.6-3.5C914.3,444.8,915.6,446.8,917.5,447.9z"/>
	<path d="M857.9,521.1c1-1.9,2.3-1.2,3.8-1.4C860.7,521.4,859.7,521.9,857.9,521.1z"/>
	<path d="M939,500.9c1.8,0.2,2.7,0.4,3.6,1.8C941.1,502.4,940.1,502.3,939,500.9z"/>
	<path d="M835.5,526.8c-1.4-0.7-1-1.8-0.9-2.9C835.7,525.2,835.7,525.2,835.5,526.8z"/>
	<path d="M871.7,529.2c-0.7,0.4-1.4,0.6-2-0.2c0.1-0.8,0.6-0.8,1.2-0.7C871.4,528.3,871.6,528.7,871.7,529.2z"/>
	<path d="M902.1,441.5c-1.5,0.2-2.1-0.2-2.4-1.2C900.9,439.8,901.4,440.3,902.1,441.5z"/>
	<path d="M928.7,451.3c-1.3,0.5-1.9-0.4-3.3-0.5C927,450.1,927.8,450.4,928.7,451.3z"/>
	<path d="M807.9,521.7c-0.9-0.5-0.6-1.1-0.2-1.9C808.6,520.6,808.5,521.1,807.9,521.7z"/>
	<path d="M875.7,528.7c0.5-0.8,1.2-0.7,2-0.5c0.1,0.7-0.6,0.8-1,0.9C876.3,529.4,875.9,529.3,875.7,528.7z"/>
	<path d="M883.4,528.6c0.9-0.8,1.7-0.6,2.7-0.4C885.3,529,884.5,529,883.4,528.6z"/>
	<path d="M833.6,515.3c0.9,0.2,1,0.7,0.9,1.5C833.6,516.6,833.3,516.3,833.6,515.3z"/>
	<path d="M922.5,449.1c0.7-0.2,1,0.2,1.3,0.6c0,0.7-0.5,0.5-0.9,0.4C922.5,450,922.3,449.7,922.5,449.1z"/>
	<path d="M708.7,583.6c1,0.1,1.5,0.7,1.3,1.4c-0.3,1.8-1.7,3-3.1,4C707.1,587.1,707.3,585.1,708.7,583.6z"/>
	<path d="M715.8,586.9c-2.3-1-4.1-2.5-5.1-5.3c1.8,0.3,2.1,1.6,2.8,2.4C714.4,585,715.1,586,715.8,586.9z"/>
	<path d="M720.8,589.2c0.8-0.1,1.3-0.2,1.4,0.6C721.6,590.2,721.3,589.8,720.8,589.2z"/>
	<path d="M886.4,566.3c-3.8,0.6-7.6,0.2-11.5-0.5c2.3-0.3,4.6-0.6,6.8-0.9c0.9-1.2,0.9-2.7,2.3-3.6c0.7,1.2-0.7,2.1-0.3,3.3
		c0.7,0.9,1.9,0,2.8,0.7C886.9,565.6,886.7,566,886.4,566.3L886.4,566.3z"/>
	<path d="M850,538.5c0.3,1,0.7,1.9,1,2.9c0.5,1,2.2,0.6,2.5,2.2c-2,1.5-3.8,1.1-5.9-0.4c1.2-1.4,1.1-3.1,1.6-4.7
		C849.5,538.5,849.7,538.5,850,538.5z"/>
	<path d="M909.6,581.4c-4.5-1.3-8.5-3.8-12.7-6C901.6,576.6,905.9,578.4,909.6,581.4L909.6,581.4z"/>
	<path d="M909.6,581.3c1.9,0.1,3,1.5,4.3,2.5C912.4,583.2,910.7,582.8,909.6,581.3L909.6,581.3z"/>
	<path d="M914.3,578.7c-1.3-0.2-2.3-0.9-3.5-2c1.7,0.1,2.8,0.8,3.7,1.8L914.3,578.7z"/>
	<path d="M888.1,554.6c0.1,1.1-0.2,1.6-0.8,1.9C887,555.6,887,555.6,888.1,554.6z"/>
	<path d="M914.5,578.5c0.8,0.1,1.4,0.5,1.9,1.3c-1.1,0.2-1.6-0.4-2.1-1.1L914.5,578.5z"/>
	<path d="M972.4,610c-1.4,1.1-3.3,0.9-4.9,1.1c-10.3,1-20.6,1.9-30.9,1.4c5.4-0.3,10.8-0.6,16.2-0.9
		C959.3,611.1,965.9,610.5,972.4,610L972.4,610z"/>
	<path d="M985.7,606.3c9.7,0.1,19.3-2.2,29.3-1.7C1011.6,605.3,989.6,606.6,985.7,606.3z"/>
	<path d="M967.3,617.3c0.5,0.4,0.3,1,0.2,1.5C966.9,618.3,967.1,617.8,967.3,617.3z"/>
	<path d="M972.4,610c0.6-0.5,1.3-0.6,2.2-0.2C973.8,609.9,973.1,609.9,972.4,610L972.4,610z"/>
	<path d="M908.1,346.8c-0.6,3-2.2,5.3-4.8,6.8C905.2,351.6,906.6,349.1,908.1,346.8z"/>
</g>
</svg>
