<?xml version="1.0" encoding="utf-8"?>
<!-- Generator: Adobe Illustrator 19.2.0, SVG Export Plug-In . SVG Version: 6.00 Build 0)  -->
<svg version="1.1" id="Layer_2" xmlns="http://www.w3.org/2000/svg" xmlns:xlink="http://www.w3.org/1999/xlink" x="0px" y="0px"
	 viewBox="0 0 900 600" style="enable-background:new 0 0 900 600;" xml:space="preserve">
<g>
	<path d="M227.1,233.1c-0.1,0.4-0.1,1-0.3,1.3c-3.1,4.2-7.1,7-12.4,7.6c-3.2,0.4-6.4,0.2-9.6-0.3c-4.2-0.6-8.3-1.7-12.9-3.3
		c1.9-0.7,3.1-0.3,4.4,0c2.8,0.5,5.6,1.2,8.4,1.6c2.7,0.4,5.5,0.9,8.1-0.5l-0.1-0.1c0.3,0.6,0.8,0.9,1.4,0.9c1.7,0,3.3-0.1,4.8-1
		c-0.1-0.2-0.2-0.4-0.3-0.7c5-7.3,7.1-15.4,7.1-24.2c0-2.7,0-5.5,0-8.3c-1.2-0.4-2.2-0.7-3.2-1c-1.3-0.4-2.5-0.8-3.8-1.2
		c-1.9-0.7-3.2-1.7-3.4-4c-0.2-1.9-1.3-3.8-2.2-5.6c-1.2,9.4,0.1,18.7,1.9,28c-0.3,0-0.4,0-0.5,0c-0.1-0.1-0.1-0.2-0.2-0.3
		c-0.2-0.1-0.4-0.2-0.7-0.4c0,3.2,0,6.3,0,9.4c-0.5,0.4-0.7,0.8-0.2,1.7c0.1-0.8,0.1-1.3,0.1-1.8c1.3-1.1,1.4-2.6,1.8-4.1
		c1.3-5,2-10,1.9-15.2c0-1.7,0.1-3.3,0.5-5c0.1,0.8,0.3,1.7,0.3,2.5c0.6,7.7-0.1,15.3-3,22.5c-0.7,1.7-1.5,3.2-2.4,4.8
		c-0.5,1-1.4,1.6-2.5,1.8l0.1,0.1c0.1-0.3,0.3-0.8,0.2-1c-0.6-1.2-0.2-2.3,0.2-3.4c0.4-1.2,1.1-2.4,0.7-4.1c-2.7,3-5.9,4.8-9.6,5.6
		c-3.6,0.8-7.3,1.2-11.8,0.5c2.3-0.7,3.9-0.5,5.4-0.6c1.5-0.2,3.1-0.3,4.6-0.7c1.6-0.4,3.3-0.5,4.7-1.6c-0.6-0.8-1.3-0.5-1.9-0.5
		c-5.6,0-11.2,0.1-16.9,0.1c-1.1,0-2.3,0.2-3.8-0.5c4.7-0.9,9-0.7,13.2-0.8c4.3-0.1,8.6-0.2,12.8-0.3c1.2-0.9,2.4-1.7,3.8-2.8
		c0.3-2.3,0.2-5,0-7.6c-0.4-5.9-2-11.6-4.4-16.9c-1.6-3.7-2.4-7.5-2.5-11.5c-0.2-9.9,1.8-19.5,5.1-28.8c0.2-0.7,0.5-1.3,0.8-2
		c0-0.1,0-0.2,0.1-0.5c-1.3-0.4-2.7-0.8-4.1-1.2c-1.9-0.4-3.6-1.3-5-2.6c-2-1.7-3.9-3.5-5.9-5.2c-2.1-1.8-3.8-4-5.1-6.4
		c-2.3-4.5-4.4-9-5.7-13.9c-0.6-2.1-1.2-4.1-2.1-6.1c-0.5-1.3-0.7-2.5-0.5-3.8c0.5-3.8,1-7.6,1.5-11.4c0-0.4,0.1-0.7,0.3-1
		c1.7-3.2,3.3-6.4,5.1-9.5c0.5-0.8,1.3-1.4,2.1-2c2.4-1.6,4.7-3.2,7.2-4.6c2.1-1.2,4.3-2.1,6.4-3.1c1.5-0.7,3.1-1.2,4.6-1.9
		c1.4-0.6,2.7-0.9,4.2-0.5c0.7,0.2,1.4,0.2,2.1,0.3c1.5,0.2,2.8-0.1,4.1-0.9c2.3-1.5,4.6-2.9,6.7-4.8c1.2-1.1,2.3-2.4,4.1-2.8
		c-0.1,0.6-0.1,1.3-0.5,1.7c-2.6,2.8-5.3,5.5-8.6,7.5c-2.1,1.2-4.4,1.9-6.9,1.2c-0.7-0.2-1.4-0.3-2.2-0.5c-1.6,1.7-3.7,2.2-5.7,2.9
		c-4.1,1.4-7.9,3.4-11.1,5.5c-0.6,1.5-1,2.5-1.4,3.6c0.3,0.4,0.5,0.7,0.9,1.3c-2.6,2.1-3.8,5.1-4.9,8.2c-1.3,3.9-1.9,7.9-2,12
		c0,0.5,0.2,1.1-0.6,1.3c-0.9-2.2-0.7-4.5-0.6-6.7c0.1-2.1,1-4.2,0.8-7c-0.9,1.7-1.6,2.9-2.5,4.5c0-0.9-0.1-1.3,0-1.6
		c0.9-2.1,1.8-4.2,2.7-6.2c0.3-0.8,0.9-1.4,0.6-2.4l0.2,0l-0.1,0.1c-2.2,2.2-3.6,4.8-4,7.8c-0.6,5.2-0.7,10.5,1.3,15.5
		c0.7,1.7,1.4,3.3,2.1,4.9c0.8,1.9,1.7,3.7,2.5,5.6c0.9,2.1,1.7,4.2,2.8,6.2c2.1,3.8,5,7,8.3,9.8c0.6,0.5,1.2,1.3,2.1,1.2
		c0.1,0.2-0.1,0.7,0.4,0.3c-0.2-0.1-0.3-0.1-0.5-0.2c-0.1-0.3-0.1-0.7-0.3-1c-3.2-4-5.6-8.5-8-13c-0.4-0.8-0.6-1.7-1-2.6l-0.1,0.1
		c1.1,0.2,1.3,1.3,1.8,2c2.2,3.4,4.3,6.9,6.5,10.3c2.3,3.4,4.8,6.5,8.7,8.4c0.3,0.1,0.5,0.4,0.7,0.6c0,0.4,0,0.7,0,0.9
		c-0.3,1-0.6,2.1-0.8,3.1c-2.7,9.6-4.4,19.3-4,29.4c0.2,6,1.9,11.5,4.2,17c0.2-0.5,0.2-1,0.2-1.4c-0.6-4.3-0.4-8.6-0.4-12.9
		c0-1.2-0.2-2.4-0.3-3.6c-1-6.8-1.4-13.6-0.5-20.4c0.5-3.7,1.4-7.3,4.1-10.1c0.7-0.7,0.9-1.6,1.2-2.6c0.4-1.6,1.1-3.2,2.4-4.3
		c1.4-1.1,2.1-2.6,2.6-4.2c0.9-2.6,1.8-5.2,2.8-7.8c0.2-0.5,0.2-1.3,1.2-1.5c-0.4,1.5-0.7,2.9-1,4.3c-0.3,1.5-1.3,2.8-1,4.7
		c0.6-0.4,1.1-0.5,1.3-0.9c2-3.1,3-6.7,3.9-10c0.7,3-0.2,6.1-1.1,9.7c3.2-2.9,4.3-6.5,6.2-9.6c-0.5,3.5-1.9,6.6-3.4,9.8
		c0.8,0.5,1.5,0.9,2.2,1.3c1.9-1.6,4.4-2.2,5.1-4.9c0.1-0.4,0.6-0.7,1-1c1.3-1.4,2.6-2.8,3.9-4.2c1.1-1.2,2.2-2.4,3.3-3.5
		c-0.4,2.8-2.5,4.4-4.1,6.4c0.2,0.1,0.3,0.3,0.4,0.3c0.9-0.2,1.9-0.4,2.8-0.6c0.1,0,0.3,0,0.3-0.1c0.3-0.3,0.6-0.7,1-1l-0.1,0.1
		c1.9,1.2,1.9,1.2,4.7,1.1c1.7-2.5,4.5-4,7.2-5.3c0.6-1.1,1.2-2.2,1.8-3.2c1.7-3,4.1-5.3,7-7c1.4-0.8,2.7-1.5,4.1-2.1
		c7.6-3.4,14.4-8,21.1-12.8c1-0.7,1.8-1.5,2.7-2.3c0.2-0.2,0.1-0.6,0.1-1c0.3,0,0.6,0,0.4,0c0.2-0.1,0,0-0.3,0.1
		c-2.1,1-4.3,1.6-6.6,1.6c-3.6,0.1-7.2,0.1-10.7-0.8c-2-0.5-4-0.7-6-0.9c-3.3-0.2-6.3-1.4-8.3-4.2c-1-1.4-1.9-3-2.8-4.6
		c-0.8-1.4-1-2.9-0.7-4.5c0.3-1.3,0.4-2.6,0.3-3.9c-0.2-2.2-0.7-4.5-1.2-6.7c-0.2-0.8-0.8-1.4-1.1-2.1c-1.7-0.2-3.3-0.3-4.7,0.4
		c-1.2,0.6-2.5,0.6-3.8,0c-0.7-0.4-1.6-0.6-2.4-0.7c-0.8-0.1-2,0.5-2.1,1.1c-0.1,0.5,0,1.2,0.3,1.7c0.5,0.8,1.2,1.5,1,2.6
		c-0.1,0.3-0.3,0.7-0.6,0.7c-0.3,0.1-0.8-0.1-0.9-0.3c-0.5-1.1-0.9-2.2-1.3-3.3c-0.3-1.1-0.8-2-1.8-2.5c-2.5,0.6-3.4,1-3.9,1.6
		c-0.3,0.8,0,2-1.2,2.4c-0.9-2.2-1.8-4.4-2.7-6.5c-0.5-1.2-1.3-2-2.7-1.9c0.1-0.6,0.4-1.2,1-1.3c0.5,0,1.4,0,1.6,0.4
		c0.9,1.1,1.6,2.4,2.3,3.6c0.7,1.2,1.4,1.5,2.7,1.1c0.1,0,0.2-0.1,0.3-0.1c0.9-0.4,1.6-1.2,2.6-0.9c0.9,0.3,1.7,0.9,2.5,1.3
		c2.8-1.6,2.5-2.2,6.4-0.3c1.7-0.4,3.3-0.8,5-1.2c1.4-0.3,2.5,0.2,3.5,1.3c0.9,1.1,1.6,2.4,2,3.8c1.1,3.4,1.6,7,1.6,10.6
		c0,1.5,0.7,2.7,1.2,4.1c1.2,3.1,3.4,4.7,6.6,5.5c5.1,1.2,10.2,2.8,15.5,2.6c0.8,0,1.7-0.1,2.5-0.1c2.1-0.1,3.7-1,4.9-2.6
		c3.8-5.1,8.5-9.4,12.7-14.1c5.6-6.3,12.3-11,19.8-14.5c2.1-1,4.2-1.7,6.4-2.1c2.1-0.3,4-0.3,6,0.3c1.1,0.3,2.3,0.5,3.5,0.5
		c2.7,0.1,5.2,0.7,7.7,1.6c3.1,1.1,5.8,2.9,7.1,6.2c0.6,1.5,2.3,1.7,2.9,3c6,0,11.8,0,18.1,0c0.4,0.7,0.9,1.5,1.3,2.1
		c4.8,0.1,9.1,0.2,13.4,0.1c2,0,3.8,0.3,5.6,0.8c5.6,1.7,11.2,3.5,16.7,5.4c5.7,2,11.6,2.9,17.6,3.1c1.9,0.1,3.8,0.1,5.7,0
		c4-0.2,7.9,0.3,11.8,0.9c3,0.5,5.7-0.1,8.3-1.3c2.3-1,4.6-2.1,6.9-3c3.9-1.5,8.1-2.2,12.3-2.4c2.9-0.1,5.7-0.5,8.6-0.9
		c1.1-0.1,2.1-0.4,3.2-0.4c1,0,1.8-0.4,2.7-0.9c3.7-2.1,7-4.6,9.8-7.8c4.4-4.9,9.3-9.3,14.3-13.6c13.4-11.4,28.1-20.8,43.8-28.5
		c8.8-4.3,17.5-8.8,26.3-13.3c5.9-3,12-5.4,18.1-7.8c4.5-1.8,8.7-3.9,12.7-6.6c1.3-0.9,2.5-1.7,4.3-1.6c1,0,2.1-0.5,3.1-0.8
		c3.4-0.8,6.9-0.9,10.3-0.1c2.3,0.5,4.7,1,7,1.5c1.6,0.3,2.9,1.1,4,2.2c2.6,2.4,5.1,4.7,6.7,7.9c0.6,1.2,1.9,1.7,3.2,2.1
		c1.3,0.4,2,1.2,2.5,2.3c1.1,2.2,2.4,4.4,3,6.9c0.3,1.1,1,2.2,1.6,3.2c1.7,3.3,3.1,6.7,3.7,10.5c0.1,0.8,0.3,1.7,0.1,2.5
		c-0.7,2.4-0.4,4.8-0.4,7.1c0,2.2,0,4.3,0,6.5c0,0.7,0.2,1.6-0.2,2.1c-1.2,1.5-0.7,3.2-0.6,4.8c0.3,4.4,0.6,8.8-0.4,13.2
		c-0.2,1-0.1,2.1-0.1,3.2c0.1,5.3-0.5,10.5-1.2,15.7c-0.8,5.9-1.7,11.8-2.6,17.8c-0.3,2.1-0.7,4.2-1.8,6.1c-0.8,1.5-0.8,3.4-1.1,5.2
		c-0.7,5.2-1.4,10.4-2.1,15.6c-0.1,0.8-0.2,1.7-0.5,2.5c-1.6,4.7-1.3,9.4-1.1,14.2c0.1,3.6,0.2,7.2,0.4,10.8c0,0.3,0.1,0.7,0.1,1.1
		c1.8-0.1,2.2-2.2,3.9-2.5c1,0.1,1.4,1.1,2,1.8c1.7,2.4,3.4,4.9,5.1,7.3c1.1,1.7,2.5,3.3,3.3,5.1c2.1,4.4,5.8,6.6,10.3,7.5
		c1.8,0.4,3.4,0.9,4.9,1.9c3.4,2.2,7.1,4.1,10,7c0.6,0.6,1.6,1,2.5,1.3c4.5,1.8,9,3.2,13.9,3.3c0.4,0,0.7,0.1,1.2,0.2
		c1.7,2.7,2.4,5.9,2.9,9.1c0.1,0.8,0,1.8,0.4,2.4c0.4,0.8,0.9,1.4,0.4,2.3c-0.4,0.8-0.9,1.7-1.6,2.3c-1.1,0.9-2.4,1.5-3.7,2.2
		c-4.8,2.4-9.9,4.3-15,5.9c-1.8,0.6-3.7,1-5.6,0.9c-0.4,0-0.7-0.1-1.1,0c-3,1-6.2,0.6-9.3,0.7c-2.9,0.1-5.7,0.3-8.6,0.5
		c-2.4,0.2-4.5-0.3-6.5-1.7c-2.7-1.9-5.6-2.5-8.9-2.1c-2.8,0.3-5.7,0.3-8.5,1c-4.5,1-9,1-13.6,1c-4.4,0-8.9-0.1-13.3-0.2
		c-1.3,0-2.5-0.2-3.6-1.2c-0.7-0.7-1.9-0.9-2.9-1.4c-2.9-1.4-4.8-2.2-2.9-6.7c0.9-2.2,1.8-4.5,1.4-7c0-0.2-0.2-0.4-0.3-0.9
		c-2.1-0.1-4.4-0.2-6.6-0.1c-0.6,0-1.2,0.2-1.7,0.5c-1.4,1-3,0.9-4.5,0.6c-5-0.9-9.6-2.8-13.8-5.8c-0.2-0.1-0.4-0.3-0.6-0.4
		c-2.8-2.3-3.1-3.4-2-6.9c0.9-2.7,1.6-5.5,1.6-8.4c0-1.8,0.6-3.5,1.4-5.1c0.3-0.6,0.7-1.2,1.1-1.9c4-6.5,2.9-4.3,3.8-12.1
		c0.2-1.9,0.5-3.8,1.4-5.5c0.8-1.6,1.7-2.1,3.5-1.8c0.9,0.2,1.8,0.6,2.9,1c0.5-1.5,0.9-3.1,1.4-4.7c1.7-5.9,2.9-11.9,3.6-17.9
		c0.2-2,0.3-4-0.2-6c-0.5-2.3-0.2-4.8-0.2-7.2c0-7.1-0.1-14.1-0.1-21.2c0-2.8-0.2-5.5-1-8.1c-0.8-0.3-1.1,0.3-1.4,0.7
		c-5.2,6.6-10.4,13.1-15.5,19.8c-7.9,10.4-17.5,19-29,25.3c-2.4,1.3-4.4,2.8-6.2,4.8c-2.6,3-5.8,5.4-9.1,7.5
		c-3.6,2.3-7.2,4.6-10.7,7.3c-5,3.9-11,5.8-17.2,6.6c-5.5,0.7-11,0.9-16.5,0.1c-1.8-0.2-3.5-0.6-5.3-1c-4-1.1-8.1-2.1-12.1-3.4
		c-2.8-0.9-5.6-2.1-8.4-3.2c-3.5-1.4-7.1-3-10.6-4.4c-2.9-1.2-6.1-0.9-9.2-1.6c-1.3-0.3-2.6-0.5-3.8-0.8c-3.3-0.7-6.5-1.6-9.8-2.3
		c-4.8-1-9.5-0.4-14.3,0.2c-10.8,1.4-21.4,4.1-32,6.6c-4,0.9-7.9,1.7-12.1,1.7c-2.4,0-4.7,0.7-7,1.2c-3.9,0.9-7.7,2-11.5,2.7
		c-7.6,1.4-15.2,1.5-22.8-0.3c-2.1-0.5-4.2-0.7-6.4-0.7c-1.8,0.1-3.6,0-5.2,0c-0.7,0.6-0.4,1.2-0.3,1.7c0.5,1.4,1,2.7,1.5,4
		c2.1,5.7,4.3,11.4,6.4,17.1c0.3,0.9,0.7,1.8,0.8,2.7c0.5,3.6,1.9,6.9,2.8,10.4c1.1,3.8,1.9,7.7,1.9,11.7c0,1.8,0,3.6,0.1,5.4
		c0.2,8.9-3.6,15.9-10.3,21.6c-1.6,1.3-3.3,2.4-5.2,3c-6.4,2.1-13,3-19.7,3.3c-2.4,0.1-4.8-0.3-7.1-1.1c-1.1-0.4-2.2-0.9-3.5-0.7
		c-0.1,0-0.2,0-0.4,0c-5.9-2.1-11.6-4.5-14.6-10.7c-1.2-2.6-2.7-5.1-4.1-7.6c-2.3-4-3.5-8.3-3.6-13c-0.3-7.9-0.8-15.8-1.1-23.7
		c-0.1-2.7,0-5.5-0.1-8.3c0-0.7-0.1-1.4-0.2-2.3c-0.8,0.3-1.5,0.5-2.1,0.8c-2.9,1.7-5.7,3.5-8.6,5.3c-1.6,1-3.2,2.1-4.9,3
		c-1.6,0.8-2.7,2.1-3.2,3.7c-1.1,3.7-3.9,5.7-7.1,7.1c-1.7,0.8-3.6,1.2-5.5,1.6c-1.1,0.2-2.4,0-3.6-0.1c-0.9-0.1-1.9-0.3-3-0.4
		c-0.1,0.7-0.2,1.3-0.2,1.8c0,0.5,0,1,0,1.4c0.5,5.7-0.4,11.2-2.3,16.6c-0.6,1.8-1.6,3.4-2.4,5.2c-0.3,0.7-0.6,1.5-0.9,2.3
		c-0.3,0.2-0.5,0.4-0.8,0.6c-0.2,0.2-0.5,0.5-0.7,0.7c-0.2,0.3-0.5,0.6-0.7,0.8c-1.4-0.4-1.4-0.4-2.2,1.4c-0.2,0.1-0.8-0.1-0.3,0.5
		c0.1-0.2,0.1-0.4,0.2-0.5c1.2,0.3,1.8-0.4,2.2-1.4c0.2-0.3,0.4-0.6,0.7-0.8c0.2-0.2,0.5-0.5,0.7-0.7c0.5,0.1,0.7-0.1,0.8-0.6
		c0.4-0.2,0.8-0.4,1.1-0.6C226.5,233.7,226.8,233.4,227.1,233.1L227.1,233.1z M249.4,155.6c-1.2,0.3-2.4,0.7-2.8,2.1
		c-1,0.1-2.1,0.2-2.9,0.3c-0.7,0.8-1.2,1.4-1,2.6c1.5-0.9,3.1-1.3,3.8-2.9C247.8,157.4,248.8,156.8,249.4,155.6l0.1-0.2L249.4,155.6
		z M312.1,91.7c-0.9-0.3-1.3,0.4-1.8,0.8c-3.9,3.5-7.7,7.1-11.5,10.7c-1.4,1.3-2.5,2.9-3.8,4.4c0.7,0.4,1.2,0.7,1.7,1.1
		c1.9-1.6,4-3.1,5.7-4.8c3.3-3.1,6.2-6.6,8.7-10.4C311.5,92.9,311.7,92.2,312.1,91.7c0-0.1,0.1-0.2,0.2-0.2c0,0,0-0.1,0-0.2
		C312.2,91.4,312.1,91.5,312.1,91.7z M498,100.1L498,100.1c0.6-1.2,1.8-1.6,2.9-1.9c1.1-0.4,2.3-0.6,3.5-0.9
		c1.7-0.5,3.3-1.2,4.5-2.9c-1.4-2-2.8-4.1-4.2-6.1c-0.6-1-1.1-2.1-1.7-3.1c1.1-0.1,1.8,0.5,2.4,1.3c1.9,2.4,3.6,5,4.9,7.9
		c6-2.4,11.4-5.3,15.8-9.9c1.2-1.2,2.4-2.4,3.6-3.5c8.3-7.1,16.9-13.8,26.3-19.3c15.3-8.9,30.8-17.5,46.6-25.4
		c7.5-3.7,15.1-7.2,22.6-10.9c5.4-2.6,11.1-3.5,17.1-2.9c1.1,0.1,2.1,0.1,3.2,0.2c1,0.1,2.1,0.2,3.6,0.3c-0.6-0.9-0.8-1.4-1.2-1.8
		c-1.1-1.2-2.3-2.4-3.4-3.7c-0.7-0.9-1.6-1.3-2.7-1.6c-3.7-0.8-7.4-1.9-11.2-2.4c-5.5-0.8-10.7,0.3-15.3,3.6
		c-4.7,3.3-9.7,6.1-15.1,8.3c-3,1.2-5.9,2.6-8.8,4.1c-12,6-24,11.9-35.9,18.1c-10.9,5.6-21.2,12-30.9,19.5c-6.4,5-12.8,10-19.3,15
		c-1.1,0.8-1.9,1.8-2.3,3.1c-0.4,0.3-0.8,0.5-1.1,0.8c-3.7,4.2-8.3,7.2-13.3,9.7c-1.5,0.7-3,1.6-4.7,0.4c-0.3-0.2-0.9-0.1-1.4-0.1
		c-2.9,0.2-5.7,0.4-8.6,0.5c-5.2,0.3-10,2.3-14.8,4.1c-1.3,1.4-3.1,1.6-4.9,1.9c-1.3,4.2-2.5,8.4-3,12.6c-1.2,9.9-1.6,19.8,0.6,29.6
		c0.1,0.5,0.1,0.9,0.2,1.4c0.9,5.3,2.3,10.5,3.9,15.7c1.4,0.5,2.8,1.1,4.1,1.5c3.3,1.2,6.5,2.3,9.5,4.2c2.7,1.7,5.5,2.9,8.5,3.8
		c2.9,0.9,5.8,1.6,8.6,2.4c5.9,1.5,12,2.1,18.1,1.7c5.1-0.4,10.3-0.9,15.2-2.5c1.2-0.4,2.4-1,3.5-1.7c5.8-3.8,11.5-7.7,17.3-11.6
		c0.6-0.4,1.1-0.9,1.7-1.3c-0.2-0.7-0.1-1.5-0.5-1.8c-2-1.9-2.1-4.4-2.5-6.9c-1.8-11-5.7-21.2-11.5-30.7c-2.6-4.2-5.4-8.2-8.1-12.3
		c-1-1.5-1.8-3.2-3.1-4.4c-1.9-1.9-3.2-4.1-3.9-6.9c-1.7,0.9-3.1,1.7-4.7,2.4C505,99.1,501.8,100.7,498,100.1z M544.1,157.2
		c0.8-0.5,1.4-0.8,1.8-1.2c4.6-4.1,9.6-7.5,14.5-11.1c4.4-3.3,8.7-6.8,12.6-10.6c4.8-4.7,9.3-9.6,13.1-15.2c1.9-2.8,3.9-5.4,6-8.1
		c9.2-12.1,18.8-23.9,28.6-35.5c1.3-1.6,2.5-3.2,4.5-4.1c0.6-0.3,1.1-0.9,1.5-1.5c3.8-4.6,8.8-7.7,13.6-11c0.2-0.1,0.4-0.2,0.7-0.3
		c0.7-0.1,1.2,0,1.2,1c-2.4,2.1-4.8,4.2-7.2,6.3c-4.8,4.2-8.7,9.2-11.7,14.9c-0.4,0.8-0.8,1.7-1,2.7c-0.6,2.7-1,5.4-1.6,8.1
		c-1.3,5.8-1.4,11.7-0.8,17.5c0.6,5.7,1.9,11.3,3,17c1.1,5.6,2.4,11.2,2.8,17c0.1,1.1,0.3,2.2,0,3.2c-0.4,1.6-0.3,3.1-0.2,4.6
		c0.1,5.9,0.3,11.7,0.3,17.6c0,4.3-0.2,8.6-0.4,12.9c-0.1,1.7-0.2,3.3-0.3,5.2c0.5,0.8,1.1,1.8,1.7,2.8c0.7,1.1,1,2.4,2.3,3.3
		c0.6-1.2,0.4-2.3,0.5-3.3c0.1-1,0.1-1.9,0.3-2.9c0.2-1.2,0.4-1.5,1.4-2.6c1,2.9-0.4,5.9,0.1,8.6c0.9,1.7,2.7,2.4,3.2,4
		c-0.2,0.2-0.2,0.4-0.3,0.4c-0.8,0-1.5,0-2.3,0c-0.1,1.2,0.8,1.1,1.4,1.2c4.6,0.4,8.7-0.9,12.2-4.1c1.2-1.1,1.9-2.3,2-4
		c0.1-2.7,0.8-5.3,2.5-7.4c2.1-2.6,3.4-5.2,2-8.5c0-6.7-0.8-13.4,0.6-20c0.9-4.2,0.9-8.6,1.5-12.8c1.1-7.5,2.2-14.9,3.4-22.4
		c0.2-1.3,0.5-2.7,1.2-3.7c1-1.4,1.2-2.8,1.5-4.3c0.2-1.3,0.4-2.6,0.5-3.9c0.9-6.3,2-12.5,2.1-18.9c0.1-5.3,0.5-10.5-0.3-15.8
		c-0.7-4.9-0.8-9.8-0.6-14.7c0-0.1,0.2-0.2,0.3-0.4c0.2,0.8,0.3,1.4,0.5,2.1c0.4-1.2,0.5-2.3,0.6-3.5c0.1-1.9,0-3.8,0.2-5.7
		c0.2-1.2,0-2.4-0.3-3.5c-0.6-2.6-1.4-5.1-2.8-7.3c-0.5-0.8-0.9-1.7-1.2-2.6c-0.9-3.8-2.9-7-4.7-10.1c-1-0.1-1.8-0.1-2.6-0.3
		c-5.5-1.7-11.3-2.2-17-2.2c-1.3,0-2.7,0.2-3.8,0.6c-3.2,1.3-6.4,2.7-9.5,4.3c-16.2,8.7-32.4,17.6-48.6,26.4
		c-11.5,6.2-22.5,13.3-33,21c-8.6,6.3-17,12.8-26,18.8c0.4,0.6,0.6,1.6,1.3,2c1.2,0.7,1.9,1.8,2.6,2.9c3.6,5.2,7.3,10.4,10.7,15.7
		c6.1,9.5,10.5,19.6,12.6,30.7C542,149.9,543.1,153.3,544.1,157.2z M323,170c4.3-4.4,7.5-9.4,7.8-15.7c0.2-3.5-0.1-6.9-0.2-10.4
		c0-0.6-0.2-1.2-0.4-1.7c-1.9-6.9-6.1-11.8-12.7-14.7c-4.6-2-9.5-3.2-14.5-4c-1.1-0.2-2.1-0.2-3.2-0.1c-0.9,0-2,0.5-2.8,0.2
		c-1.4-0.5-1.8,0.6-2.6,1.1c-0.6,0.3-1.5,0.4-2,0.1c-1-0.4-1.8-0.4-2.7-0.1c-2.2,0.6-4.4,1.1-6.6,1.5c-0.9,0.2-1.9,0.4-2.8,0.1
		c-1.2-0.3-2.1,0.1-3.1,0.5c-4.1,1.7-8,3.7-11.8,6c-1.7,1-3,2.2-3.9,4c-0.9,1.9-1.3,4.1-3.3,5.4c-0.3,0.2-0.4,0.6-0.5,0.9
		c-1,2.8-2,5.6-3,8.4c0.3,2.1-1.1,3.3-2.3,4.6c-4.2,4.1-9.2,7.3-14.2,10.4c-0.4,0.2-0.9,0.4-1.3,0.5c-0.3,0.1-0.7-0.1-1-0.2
		c0-0.3-0.1-0.6,0-0.8c0.8-1.8,2.9-2,3.5-2.7c0.9-2.2,1.4-3.7,2.1-5c0.3-0.6,0.9-1.4,1.5-1.4c1.7-0.2,2.7-1.5,3.9-2.3
		c1.4-0.9,2.7-1.8,3.9-2.7c1.2,0.3,0.2,1.6,1.3,2c1-3.4,2-6.7,3-9.9c0-0.1-0.1-0.2-0.2-0.3c-1.7,0-1.6,1.9-2.8,2.5
		c-2.2,0-4.5,0-6.7,0c-1.2,0-2.4,0.2-3.4,1c-2,1.7-4.5,2.7-6.5,4.4c-1.6,1.4-3.4,1.8-5.3,1.2c-1.6-0.5-3.1-0.2-4.6,0.1
		c-1,0.2-2,0.6-3,0.9c-0.5,0.7-0.8,1.4-1.3,1.9c-3,3.5-4,8.1-6.5,11.9c-0.4,0.6-0.5,1.3-0.6,2c-0.4,2.8-0.7,5.7-1.1,8.5
		c0,0.1,0.2,0.3,0.2,0.4c0.4-0.7,0.9-1.4,1.7-2.9c-1.1,4.9-1.8,9-2.1,13.8c0.6-1,1-1.5,1.1-2c0.6-2.7,1.2-5.4,1.8-8
		c0.3-1.3,0.6-2.5,0-3.8c-0.3-0.7-0.2-1.7,0-2.5c0.7-3.5,1.9-6.9,3.6-10.1c1.2-2.2,3.1-3.7,5.5-4.3c0.6-0.2,1.5-0.3,1.6,0.8
		c-4.3,2.1-5.8,3.8-7.4,8.3c-0.3,1-0.6,2.1-0.9,3.1c-0.3,1-0.4,2.1-0.1,3.2c0.4,1.4,0.2,2.8,0,4.3c-0.7,4.9-2.1,9.6-3.5,14.4
		c0.9,2.3,1.8,4.6,2.7,7c0.4,1.2,1.2,2.1,2.4,2.5c3.7,1.2,7.3,2.3,11.2,1.2c0.5-0.1,1.1,0,1.7,0.1c-0.2,0.8-0.4,1.3-0.6,1.9
		c3.8,1.6,7-0.1,10.3-1.1c2.7-3.2,5.3-6.3,8-9.4c0.6-0.7,1.4-1.3,2.2-1.8c3.8-2.7,7.9-5,12-7.1c0.8-0.4,1.9-0.7,2.5-1.4
		c1.8-2.1,4.2-3.1,6.5-4.3c4.1-2.2,7.9-4.9,11.3-8.1c0.7-0.7,1.4-1.2,2.1-1.9c1.1,0.7,2.1,0.7,3.2,0.3c1.6-0.7,3.3-1.4,5-2
		c1-0.3,2.1-0.6,3.1-0.6c6-0.1,11.9,0.4,17.9,1.3C318.3,169.3,320.6,169.7,323,170z M280.4,123.5c0.7,1.1,1.6,1.1,2.6,0.7
		c2.7-1,5.6-1.4,8.3-2c4.5-1,9-1.3,13.5-0.5c4.5,0.8,8.9,1.9,13.1,3.6c3.4,1.3,6.4,3.3,8.8,6c3.3,3.7,5.4,7.9,5.2,13
		c-0.1,2.3,0.1,4.5,0.4,6.8c1.7,0.5,3.4,0.8,5,0.8c2.4,0.1,4.8,0.2,7.2,0.3c0.8,0.1,1.8-0.1,2.3,1c-2.5,0-4.9,0-7.2,0
		c-2.4,0-4.7-0.9-7.1-0.5c-0.1,0.4-0.3,0.8-0.3,1.1c0,5.3-1.9,10.1-4.6,14.5c-0.2,0.4-0.3,0.8-0.5,1.2c3.1,0.4,6.1,0.7,9,1.3
		c6.3,1.3,12.6,1.5,18.9,0.7c7-0.9,13.9-2.1,21-3.1c0.6-2,0.4-3.9,0.2-5.7c-0.9-6.5-1.4-13.1-1.5-19.7c-0.2-13.3-0.5-26.6,1-39.8
		c0.4-3.3,0.8-6.6,1.3-10c0.1-0.9,0.4-1.9-0.5-2.9c-2.9-0.4-6-0.3-9.1-0.3c-3.1-0.1-6.2,0-9.1,0c-2-2.1-3.8-4.2-5.8-6
		c-1.1-1-2.5-1.9-3.9-2.4c-1.8-0.7-3.6-1.2-5.5-1.5c-3.1-0.5-6.2-0.7-9.2-1.2c-1.7-0.3-3.3-0.2-4.9,0.5c-3.5,1.3-6.8,3-9.9,5
		c-0.9,0.6-1.6,1.3-2.2,2.3c-1.8,3.2-3.7,6.5-5.8,9.5c-2,3-4.1,6-6.6,8.5c-4,4-8.2,7.7-12.6,11.2c-3.1,2.5-6.5,4.4-9.8,6.6
		C281.5,122.7,281,123.1,280.4,123.5z M453.6,160.5c-1.4-4.4-2.7-8.9-4.1-13.3c-1.4-4.2-2.4-8.5-2.7-13c-0.2-4,0-7.9,0.1-11.8
		c0.2-4.5,0.9-8.8,2.2-13.1c0.1-0.5,0.6-1.1,0-1.7c-2.8,0.7-5.3,2.4-9,2.6c3.5-2.7,6.7-4.4,10.4-5.2c0.1-0.5,0.3-1,0.5-1.7
		c-4.6-0.9-9-1.5-13.4-1.4c-6.1,0.1-12.2-0.4-18.1-2.1c-0.6-0.2-1.2-0.3-1.8-0.3c-2.9-0.2-5.6-1-8.4-1.9c-4.2-1.4-8.4-2.9-12.6-4.1
		c-2.2-0.6-4.4-1-6.7-1.2c-2.9-0.3-5.7-0.4-8.6-0.5c-0.8,0-1.6,0.1-2.6,0.1c-0.2,1.7-0.5,3.2-0.6,4.7c-0.4,6.2-0.8,12.4-1.2,18.6
		c-0.2,3-0.1,6-0.1,9c0,0.2,0.3,0.3,0.4,0.5c1,0,1.5-1.6,2.8-0.9c-0.6,1.4-2.2,1.6-3.2,2.9c0,6.5-0.4,13.3,0.2,20.1
		c0.6,6.9,1,13.8,1.4,20.9c0.6,0,1.1,0.2,1.7,0.1c2.4-0.3,4.7-0.6,7.1-1.1c5.8-1.3,11.6-2.7,17.4-4.2c6.4-1.6,12.9-2.5,19.4-3.5
		c5.6-0.9,11.2-0.8,16.7,0.6c2.9,0.7,5.9,1,8.7,2C450.9,162.1,452.3,162.3,453.6,160.5z M271.4,184.5c0.1,1.7,0.2,3.4,0.2,5.1
		c0.1,4,0.1,7.9,0.3,11.9c0.1,4.3,0.5,8.6,0.4,12.9c-0.1,2.1,0.4,4,0.5,6c0.1,2.1,0.8,4,1.5,5.9c1.5,3.8,3,7.6,4.5,11.3
		c1,2.6,2.4,5,4.3,7c1.1,1.2,2.2,2.6,4.2,1.9c0.6-0.2,1.3,0.4,2,0.6c2.1,0.8,4.3,1.5,6.4,2.3c3.1,1.2,6.3,1.4,9.5,1.2
		c5.7-0.3,11.1-1.4,16.5-3.1c2-0.6,3.8-1.5,5.4-2.8c6-4.6,9.9-10.4,9.5-18.3c-0.1-3.2,0-6.5-0.2-9.7c-0.2-2.6-0.5-5.3-1.1-7.8
		c-1-3.8-2.3-7.5-3.7-11.2c-3-8.4-6.2-16.8-9.4-25.5c-1-0.2-2.1-0.6-3.3-0.7c-6.8-0.7-13.6-1.2-20.4-1c-1.6,0-3.1,0.4-4.5,1
		c-1.5,0.7-3.1,1.3-4.7,1.8c-3.3,1.3-6.8,2.2-9.4,4.9c-1.3,1.2-2.9,2.1-4.5,3C274,182.2,272.6,183.3,271.4,184.5z M658.3,177
		c-2.3,2.3-4.3,4.5-5.8,7.1c-1,1.8-2.1,3.6-2.5,5.5c-0.6,2.9-2.3,4.8-4.3,6.7c-3.5,3.2-7.7,4.2-12.3,3.9c-1.9-0.1-3.3-1-3.8-2.7
		c-0.8-2.7-2.7-4.8-4-7.2c-0.6-1.1-1.4-2-2.6-2.2c-1.3,0.3-1.5,1.4-1.8,2.4c-0.8,2.9-1.7,5.7-3.4,8.2c-0.5,0.7-0.7,1.7-1,2.7
		c-0.6,2.2-0.6,4.5-0.5,6.8c0.1,2.6-0.2,5-1.6,7.2c-0.2,0.4-0.5,0.9-0.6,1.3c-0.2,1.8-0.3,3.6-0.6,5.3c-0.3,1.9-0.7,3.7-1.1,5.6
		c2.9,2.1,6.2,2.9,9.5,3.2c5.5,0.4,11,0.5,16.5,0.2c6-0.3,11.9-1.1,17.8-1.8c2.3-0.3,4.5-0.1,6.6,1.1c0.6,0.3,1.3,0.7,1.9,1.1
		c1.9,1.3,3.9,1.7,6.1,1.6c3.3-0.2,6.7-0.3,10-0.3c4.1,0.1,8.1-0.9,12.1-1.2c0.5,0,0.9-0.2,1.4-0.3c4.5-1.6,9-3.1,13.5-4.7
		c1.2-0.4,2.4-1.1,3.5-1.7c0.7-0.4,1.2-1.1,1.8-1.5c-0.9-4-0.9-8.1-2.7-11.7c-0.6-0.1-1.2-0.2-1.8-0.2c-2.4,0-4.7-0.7-7-1.5
		c-2.9-1-5.8-2.3-8.6-3.5c-0.8-0.3-1.5-0.6-2.4-0.1c-0.4,0.2-0.9,0.1-1.6,0.2c-0.2-1-0.3-1.9-0.5-2.8c-1.4-0.8-2.6-2-4.4-2.4
		c-0.3,0.4-0.6,0.8-1,1.1c-0.7,0.7-1.3,1.4-2,2c-0.2,0.2-0.8,0.2-1,0c-0.3-0.3-0.7-0.7-0.7-1.1c-0.1-0.4,0.1-1,0.4-1.3
		c0.5-0.8,1.2-1.5,1.8-2.3c-2.2-1.9-4.9-2.4-7.4-3.2c-0.8,1.4-1.3,2.5-2.1,3.6c-0.5,0.8-1.2,1.5-1.8,2.2c-0.6,0.6-1.4,0.5-1.9,0
		c-0.5-0.5-0.6-1.1-0.2-1.6c0.5-0.8,1.1-1.6,1.6-2.4c0.7-1.1,1.7-2.1,1.8-3.6c-0.6-0.7-1.3-1.3-1.9-2.1c-0.6-0.8-1.1-1.7-1.9-2.8
		c-0.5,0.8-0.9,1.2-1.1,1.7c-0.8,1.5-1.6,3-2.5,4.4c-0.4,0.7-1,1.3-1.7,1.8c-0.7,0.5-1.6,0.6-2.4,0.1c-0.7-0.5-1-1.7-0.4-2.6
		c0.5-0.8,1.2-1.5,1.9-2.1c1.7-1.7,3.3-3.4,4.2-5.8C663.3,183.9,660.9,180.6,658.3,177z M603.3,102.2c0.7,3.2,1.5,5.8,1.8,8.4
		c0.4,3.8,0.6,7.6,0.6,11.5c-0.1,6.8-0.3,13.6-0.7,20.4c-0.3,6-0.7,12-1.9,17.8c-0.8,4-1.8,7.9-2.7,12c1.2,0.8,2.4,1.5,3.5,2.3
		c1.8,1.3,3.6,2.7,5.4,4.1c1,0.8,1.9,0.8,3,0.3c1.4-0.7,2.8-1.4,4.1-2.2c2.2-1.4,4.3-2.9,6.3-4.3c0-5.4-0.1-10.7-0.1-15.9
		c0-4.7-0.1-9.3,0-14c0.2-5.7-0.9-11.2-2.4-16.6c-0.6-2.2-1-4.5-1.1-6.7c-0.3-7.5-0.4-15.1-0.5-22.6c-0.1-4.7,0.3-9.3,2.1-13.7
		c0.2-0.4,0-1,0-2c-1.3,1.3-2.5,2.2-3.3,3.3c-3.6,4.5-7.2,9-10.7,13.5C605.5,99.2,604.3,100.9,603.3,102.2z M593.9,171.9
		c-1.6,2.9-1.7,2.9-1.7,5.7c0,1.8,0.1,3.6-0.9,5.2c-0.2,0.3-0.2,0.7-0.2,1c-0.2,1.8-1,3.4-1.8,5c-0.6,1.2-1.3,2.3-1.8,3.5
		c-0.5,1.2-0.9,2.5-1,3.8c-0.2,3.4-0.7,6.6-1.8,9.8c-0.3,0.7-0.2,1.6-0.2,2.5c5.4,4.7,11.5,6.9,18.4,7c0.8,0,1.7-0.1,2.4-0.5
		c1-0.5,2.1-0.5,3.1-0.5c1.2,0,2.3,0.1,3.5,0.2c1.5-1.9,1.7-4,1.8-6.2c0-2.6,0-5.3,0.8-7.8c0.3-0.9,0.5-1.9,1.1-2.6
		c1.1-1.2,1.6-2.6,2.1-4.1c0.8-2.4,1.6-4.7,2.5-7.3c0.4-0.2,1-0.3,1.5-0.6c0.9-0.4,1.4-1.2,1-2c-0.8-1.3-0.5-2.5-0.2-3.8
		c0.3-1.5,0.5-3.1,0.6-4.6c0-0.4,0.2-1-0.6-1.2c-1.9,2.1-4.3,3.6-6.7,5.2c-1.2,0.8-2.6,1.3-3.9,1.7c-0.7,0.2-1.8,0.2-2.4-0.2
		c-1.5-0.9-3.3-1.3-4.2-3.1c-0.8-1.7-2.6-2.6-4.3-3c-1.8-0.5-3.3-1.3-4.9-2.2C595.4,172.5,594.7,172.3,593.9,171.9z M227.3,206.8
		c-0.2,4.6-0.3,9.3-0.6,13.9c-0.3,4.7-2,9-3.4,13.4c0.7-0.8,1.3-1.6,1.8-2.5c3.9-7.2,5.3-15,4.8-23.2
		C229.9,207.2,229.4,206.9,227.3,206.8z M326.9,171c0.1,0,0.2,0,0.3,0.1c-0.1-0.1-0.1-0.2-0.2-0.2
		C326.9,170.9,326.9,170.9,326.9,171z"/>
	<path d="M590.8,344.6c0.2-0.4,0.4-0.9,0.7-1.2c0.6-0.5,1.4-0.9,2.1-1.4c3.4-2.7,7.1-2.3,10.9-1.2c1.3,0.4,2.5,0.9,3.7,1.4
		c0.6,0.2,1.2,0.6,1.7,0.6c2.4-0.3,4,1.1,6,2.2c-0.2,1.6,0.5,2.9,1.6,4.1c1.5,1.7,2.4,3.8,2.6,6.3c3.6,2.7,6.3,6,8.3,10.1
		c1.8,3.6,4.2,6.9,6.1,10.5c0.8,1.5,1.2,3.4,1.5,5.1c0.6,3.9,1.4,7.8,2.7,11.5c1.5,4.5,2,9.1,2.4,13.8c0.6,7.3,1,14.6,1.5,21.8
		c0.3,4.1,0.7,8.1,1.1,12.2c0.3,3.3,0.4,6.7-0.1,10c-0.6,3.5-0.1,6.9,0.1,10.4c0.1,1.7,0.3,3.3,0.3,5c0.2,10,1.4,19.8,3.1,29.7
		c0.5,0,1.2-0.2,1.5,0c0.8,0.6,1.6,1.5,2.3,2.3c2.7,2.9,5.7,5.5,9.1,7.6c3.3,2,6.6,3.9,9.5,6.4c3.5,3,7.6,4.9,11.3,7.4
		c1.2,0.8,2.5,1.4,3.6,2.4c1.8,1.7,3.9,2.3,6.2,2.6c3.2,0.4,6.4,0.6,9.8,1c1.8,1.3,1.8,3.4,2,5.4c0.2,2.1-0.1,4-1.4,6
		c0.6,0.4,1.1,0.8,1.6,0.9c0.9,0.2,1.9,0.4,2.8,0.3c2.5-0.1,4.9,0.1,7.5,1.4c0.7,1.8,1.6,3.9,2.4,6c0.6,1.6,0.6,3.3,0.7,4.9
		c0,1.3-0.4,2.4-1.3,3.2c-1.5,1.4-3,2.8-4.6,4c-5,3.5-10.5,6.2-16.2,8.4c-1.4,0.6-2.8,1.2-4.3,1.8c-0.8,0.3-1.6,0.5-2.4,0.6
		c-7.6,0.8-15.2,1.6-22.9,0.8c-0.8-0.1-1.7-0.1-2.5-0.1c-4.7,0-9.3-0.2-13.9-1.4c-0.6-0.1-1.2-0.1-1.8-0.2c-1.9-0.2-3.8,1.1-5.7,0.3
		c-1.9-0.8-3.8-0.3-5.7-0.3c-1.9,0-3.8,0.2-5.7,0.2c-2.4,0.1-4.8,0.2-7.2,0.1c-1.3,0-2.6-0.3-3.9-0.4c-0.4,0-0.8-0.1-1-0.3
		c-1.3-0.8-2.3-1.8-3.9-2.2c-1.4-0.3-2.6-1.2-3.8-1.9c-1.3-0.8-2.6-1.7-3.9-2.6c-0.2-0.1-0.4-0.3-0.6-0.5c-0.8-0.7-1.1-1.6-0.8-2.6
		c0.4-1.1,0.8-2.2,1.3-3.4c0.8-2.1,1.7-4.2,1.7-6.7c-0.6-0.1-1.1-0.3-1.7-0.4c-1.6-0.1-3.1-0.3-3.9-2c-0.2-0.5-0.9-0.7-1.4-1
		c-0.6-0.4-1.3-0.7-1.9-1.1c-2.1-1.4-2.4-2.4-1.3-4.8c0-0.1,0.1-0.2,0.2-0.3c1.2-4.7,3.1-9.3,3.7-14.2c0.4-3.2,0.8-6.4,2.1-9.4
		c0.6-1.4,0.7-3,1-4.5c0.4-1.6,0.6-3.3,1.1-4.9c0.7-1.9,1.5-2,3.6-1.1c0.2,0.1,0.4,0,0.8,0c0-2,0.2-4,0-6
		c-0.9-7.4-1.8-14.7-2.8-22.1c-0.5-3.4-1.7-6.7-2.7-10c-1.1-3.7-2.8-7.1-3.9-10.8c-0.3-0.9-0.7-1.8-1.2-2.6c-1.4-2-2.3-4.2-3.1-6.4
		c-1.8-5-3.2-10-4.2-15.2c-0.1-0.4-0.2-0.8-0.4-1.7c-0.7,0.7-1.1,1.1-1.4,1.6c-4.9,6.7-8.9,13.9-12.6,21.3
		c-2.2,4.4-4.7,8.6-7.2,12.9c-2.2,3.7-4.4,7.4-6.6,11.1c-2.2,3.6-4.4,7.1-7.2,10.3c-1,1.2-1.8,2.5-2.1,4.1
		c-0.9,4.2-2.7,8.2-4.8,11.9c-4.4,7.6-9.7,14.6-16.1,20.6c-3.9,3.6-8.2,6.6-12.9,9c-2.1,1.1-4.2,2.3-6.2,3.5l0.1,0.1
		c-0.3-0.4-0.6-0.5-0.9,0l0-0.1c-1.1,0.3-2.3,0.6-3.4,1c-4.4,1.7-8.9,3.1-13.5,3.6c-4.1,0.5-8.4,0.3-12.5,0.5c-0.4,0-0.8,0-1.1-0.1
		c-2.2-1.3-4.7-0.9-7-1.1c-3.5-0.3-6.7-1.6-9.9-3.1c-5-2.4-9.5-5.6-13.8-9c-2-1.6-3.9-3.1-5.9-4.7c-0.3-0.3-0.8-0.4-1.4-0.7
		c0.2,3.6,1,6.7,1.4,9.9c0.6,4.5,1.4,9,1.2,13.6c-0.1,1.6,0.4,3.3,0.8,4.9c0.4,2.1,0.7,4.2,0.2,6.4c-0.3,1.6-0.2,3.3-0.1,5
		c0.1,2.7-0.6,5.2-2,7.5c-1.2,2-2.5,4.2-4.1,5.9c-3,3.1-6.2,6-9.4,8.9c-1.8,1.6-4.1,2.5-6.4,3.2c-3,0.9-6,1.5-9.2,1.6
		c-1.7,0-3.3,0.3-5,0.4c-2.7,0.2-5.3,0-7.8-0.8c-1.9-0.6-3.9-1.1-5.8-1.7c-1.8-0.5-3.2-1.6-4.4-2.9c-1.1-1.1-2.2-2.2-3.2-3.4
		c-0.4-0.4-0.8-0.9-1-1.5c-1.5-4.4-3.5-8.7-4.4-13.3c-0.2-1.2-0.3-2.4-0.4-3.6c-0.1-1.2-0.2-2.4-1.1-3.3c-0.8-0.9-1-1.9-1-3
		c0.1-2.7-0.2-5.5,1-8.1c0.6-1.3,0.6-2.8,0.6-4.2c-0.1-3.6,0.6-7.1,1.1-10.7c0.7-5.6,1.9-11.1,2.8-16.6c0.6-3.7,1.3-7.3,1.8-11
		c0.3-2.4,0.7-4.7,2.4-6.6c0.3-0.3,0.4-0.8,0.6-1.4c-0.4-0.3-0.8-0.8-1.1-0.8c-1.8,0-3.2-0.9-4.6-1.8c-4.6-2.9-9.3-5.4-14.2-7.7
		c-3.3-1.6-6.5-3.6-9.2-6.2c-1.3-1.2-2.9-2.1-4.5-2.9c-3.4-1.7-6.4-3.8-9.1-6.4c-7-6.6-14-13.1-20.7-19.9
		c-7.1-7.2-12.8-15.5-18.9-23.5c-0.3-0.4-0.6-0.8-0.8-1.2c-1.4-4-4-7.3-4.9-11.5c-1-4.4-1.5-8.7-1.3-13.2c0.1-1.6,0-3.1,0.1-4.7
		c0.1-1.1,0.6-2.2,1-3.8c-0.1-0.2-0.5-0.7-1-1.3c-1.9-2.6-3-5.5-3-8.7c0-3.7,0.1-7.4,0.1-11.1c0-1.7,0-3.5-0.4-5.9
		c-0.8,1.5-1.1,2.5-1.7,3.3c-0.5,0.7-1.2,1.3-2.2,2.4c0.7-3.2,1.2-5.9,1.8-8.5c1-5.2,0.9-10.5,0.7-15.7c-0.3-5.3-1.7-10.4-2-15.6
		c0-0.5-0.3-1.1-0.6-1.7c-0.3,0.4-0.5,0.5-0.5,0.6c0,2-0.1,4.1,0.1,6.1c0.3,2.5,0.8,5,1.2,7.4c0.9,4.8,1.4,9.7,0.9,14.6
		c-0.3,2.3,0,4.8-1.3,6.9c-0.6,0-0.7-0.5-0.7-1c0-0.1,0-0.2,0-0.4c0.7-4-0.9-7.5-2.6-10.9c-1.9-3.7-3.9-7.4-5.2-11.4
		c-1.2-3.8-2-7.7-1.8-11.7c0.4-7.2,0.3-14.3,0.1-21.5c-0.1-4.7-0.1-9.3,0.7-14c0.3-1.8,0.7-3.5,1.4-5.2c1.7-4.2,4.9-6.4,9.4-6.5
		c3.4,0,6.7,0.6,9.7,2.3c1,0.6,1.8,0.3,2.8-0.1c0.9-3,2.9-5.2,5.7-6.9c1.4-0.9,2.6-2.2,3.8-3.2c2.4-2.1,5.1-3.5,8.1-4.4
		c4.7-1.4,9.5-2.6,14.4-3c1.9-0.2,3.8-0.4,5.7-0.9c1.4-0.4,2.6-0.3,3.9,0.1c3.4,1.1,6.9,2.1,10.3,3.2c0.7,0.2,1.4,0.5,2,0.9
		c2.4,1.8,4.8,3.6,7.1,5.5c0.8,0.7,1.6,1.5,2,2.5c2.2,5,4.8,9.9,5.7,15.4c0.3,1.5,0.6,3.1,1,4.6c0.3,1.3,0.4,2.6-0.1,3.9
		c-0.3,0.8-0.6,1.6-0.7,2.4c-0.1,1.2-0.3,2.4,0.1,3.5c0.6,2,1.6,4,2.5,6c0.7,0.1,1.3,0.2,1.9,0.2c6-0.5,11.9,0.7,17.8,1.8
		c4,0.8,7.9,1.8,12.1,2.8c0.6,1.4,1.1,2.9,1.8,4.4c0.7,1.4,1.5,2.7,2.3,4.1c0.8,1.5,0.8,4.8-0.1,6.6c-3.8,7.8-7.4,15.6-12.3,22.7
		c-1.9,2.7-3.9,5.1-6.6,7c-1.2,0.8-2.1,2-3.2,2.9c-1.8,1.4-3.6,2.8-5.4,4.2c-0.4,0.3-0.9,0.1-1.1-0.4c-0.1-0.6,0.4-0.8,0.8-1.1
		c1.5-1,3-2,4.4-3.1c0.8-0.7,1.7-1.4,2.3-2.3c4.2-6,8.3-12,12.4-18c2.6-3.9,4.9-8,6.9-12.2c0.6-1.3,0.9-2.7,1.2-3.7
		c-1.6-3.4-3-6.4-4.4-9.5c-4.7-1.2-9.4-2.7-14.3-3.1c-4.7-0.4-9.5-1.5-14.4-0.9c0.3,1.4,1,2.5,1.6,3.6c0.9,1.5,0.6,2.4-1,3.1
		c-1.3,0.6-2.7,1-4,1.5c-0.8,0.9-0.8,2-0.3,3c0.7,1.5,0.2,2.5-0.9,3.4c-0.3,0.2-0.5,0.5-0.5,0.6c0.4,1.7,0.7,3.1,1.1,4.8
		c2.2,0.1,4.6,0.2,7,0.3c2.9,0.1,5.3-0.7,7.8-1.9c2.4-1.1,4.9-1.9,7.4-2.8c0.2-0.1,0.4,0.1,0.8,0.2c-0.4,1.1-1.4,1.6-2.3,1.9
		c-1.8,0.6-3.5,1.3-5,2.5c-1.2,1-3.1,1.3-4.6,1.8c-1.5,0.5-3,1-4.4,1.6c-1.4,0.6-2.5,1.6-3.7,2.7c-2.6,2.5-5.4,4.7-8.3,6.8
		c-1.4,1-3.3,1.4-5,1.8c-3,0.8-6.1,1.4-9.1,2.1c-0.6,0.2-1.2,0.6-1.9,1c0.6,2,1,3.9,2.2,5.4c5.3,0.8,9.8,3.6,14.5,6.1
		c0.9,0.5,1.7,1.4,3,1.2c0.7-1.3-1.2-2.6,0-4.2c0.3,0.2,0.9,0.3,1,0.6c0.7,1.5,1.3,3,2.1,5c3,1.4,6.7,2.6,10.3,3.7
		c1.6,0.5,3.2,1,4.8,1.5c0.8,0.3,1.5,0.6,2.4,1.4c-2.5,0.6-4.4-1-6.5-0.8c-0.2-0.1-0.5-0.2-0.4-0.2c-0.1,0,0.2,0,0.5,0.1
		c0.6,0.7,1.1,1.5,1.7,2.3c-1.2,1.7-3,2.3-4.8,2.7c-1.4,0.3-2.8,0.5-4.3,0.5c-5.7-0.1-11.5-0.1-17.1-1.6c-1.9-0.5-4-0.5-6-0.8
		c-1.8-0.3-3.5-0.7-5.2-1.1c-2.1-0.5-4.2-1.1-6.2-1.6c-1.2-0.3-2.3-0.6-3.5-0.1c0.1,0-0.2-0.3,0.1-0.1c0.8,1.2,2.2,1.8,3.4,2.5
		c1.7,1.1,3.5,1.9,4.6,3.8l-0.1,0.1c-0.5-0.3-1-0.5-1.5-0.8c-1.3-0.9-2.5-1.9-3.8-2.6c-1.9-1-3.9-1.7-5.9-2.4
		c-0.4-0.2-0.9-0.2-1.3-0.2c-0.1,0.5-0.3,0.7-0.2,0.9c0.9,2.2,2.1,4.3,2.1,6.8c0,0.4,0.3,0.9,0.6,1.3c2,3.2,2.5,6.6,1.7,10.3
		c-0.2,0.9,0,1.9,0,2.9c1.2,0.6,2.9-0.2,4,1.3c-1.5,1.1-2.9-0.2-4.3,0c-1.1,1-1.4,2.8-3.4,3.2c0.1-0.6,0.1-1,0.3-1.4
		c0.6-1.1,1.4-2.2,2-3.4c0.5-1,0.7-2,0.5-3.1c-0.3-2.4-0.6-4.7-1-7.1c-0.1-0.4-0.4-0.8-0.6-1.2c-0.5,0.1-0.8,0.2-1.2,0.3
		c-0.1-0.4-0.2-0.7-0.2-1c0.5-2.4-0.3-4.5-1.3-6.5c-0.9-1.8-1.8-3.7-2.6-5.5c-0.1-0.2,0.1-0.6,0.1-1.1c0.7,0.3,1.2,0.5,1.7,0.7
		c0.3,1.4,0.3,1.4,1.7,1.2c-0.7-0.4-1.2-0.8-1.8-1.1c0.1-0.4,0.3-0.8,0.5-1.3c4.5,0.9,8.9,1.7,13.2,2.7c3.5,0.8,6.9,1.9,10.5,2
		c0.9,0,1.9,0.2,2.8,0.5c4.1,1.1,8.3,1.3,12.4,1.7c0.8,0.1,1.8-0.1,2.5,0.3c2.4,1.2,4.7,0.2,7-0.2c0.8-0.1,1.1-0.8,0.9-1.8
		c-1.3-0.3-2.7-0.6-4.1-1c-6.7-1.8-13.4-3.7-20-5.6c-0.7-0.2-1.3-0.6-2-0.7c-0.8-0.1-1.5,0.1-2.4,0.1c-0.4-1.1-0.6-2.2-1.1-3.1
		c-1-2.3-1.8-4.7-3.3-6.7c-3.3-4.8-3.6-9.1-0.2-13.8c1.3-0.5,2.6-0.3,3.9-0.1c4.1,0.7,8.3,0.8,12.5,0.5c0.8-0.1,1.6-0.5,2.2-0.7
		c0.6-1.4,0.9-2.7,0.6-4c-0.6-1.9-0.2-3.5,1-5c0.6-0.8,0.8-1.7,0.6-2.7c-0.2-0.7-0.9-1.3-1.6-1.1c-0.6,0.2-1.1,0.5-1.7,0.6
		c-0.8,0.2-1.6,0.4-2.3-0.3c-0.1-0.7,0.2-1.2,0.9-1.3c1.2-0.2,2.4-0.4,3.5-0.6c1-0.2,1.8-0.5,2.4-1.8c-0.2-1.1-0.5-2.3-0.7-3.4
		c-0.9-0.8-2.4-0.4-2.5-1.9c2.5-0.5,4.9-1,7.3-1.6c0.6-0.2,1.1-0.7,1.7-1.1c-2.7-3.4-5.1-6.6-6.7-10.4c-1.2-2.8-1.6-5.5,0-8.3
		c0.2-0.4,0.3-0.9,0.3-1c-0.5-2-1.1-3.5-1.4-5.2c-0.7-4.6-2-9.1-3.8-13.1c-0.9-0.5-1.8-0.8-2.3-1.4c-0.8-1-1.5,0.3-2.1,0
		c-6-7.1-14-9.4-22.3-10.2c1-0.2,2.4-0.6,3.8-0.6c1.3,0,2.6,0.2,3.9,0.4c1.4,0.3,2.8,0.8,4.1,1.2c1.3,0.4,2.4,1.2,4,1.3
		c-0.7-1.3-2.2-1.4-2.6-2.7l-0.1,0.1c1.7-0.2,2.8,1.1,4.1,1.9c1.1,0.7,2.1,1.5,3.3,2.4c-0.1-0.6-0.1-0.8-0.2-0.9
		c-1.9-2.3-4.3-3.8-7.1-4.6c-2.1-0.6-4.2-0.8-6.3-1.2c-2.4-0.5-4.8-0.5-7.1,0c-4.8,1.1-9.5,2.2-14.3,3.4c-1.6,0.4-3.3,0.7-4.8,1.3
		c-4.2,1.6-7.9,4-11.2,7c-0.4,0.3-1,0.5-0.9,1.3c0.3,0,0.5,0,0.7-0.1c4.9-2.8,10.3-4.5,15.6-6.3c1-0.3,2.1-0.3,3.1-0.5l-0.1-0.1
		c-0.4,0.2-0.7,0.6-1.2,0.7c-2.5,1-5.1,2-7.7,3c-3.8,1.5-7.5,3-11,5.2c-2.2,1.4-3.8,3.2-5.3,5.3c-0.4,0.6-0.7,1.2-0.9,1.6
		c-1.6,0.4-2.8-0.3-4.1-0.4c-1.3-0.1-2.5,0.1-3.9,0.2c0.8-1.7,2.7-1.2,3.7-2.2c0-0.4-0.1-0.7-0.1-1c0.8-0.6,1.6-0.1,2.4,0.1
		c0.2,0,0.4-0.2,1-0.6c-2.3-0.3-4.1-0.6-6-0.9c-0.4-0.1-0.7-0.1-1.1-0.1c-0.6,0-1.2,0-1.8,0.1c-3.6,0.4-6,2.3-6.8,5.9
		c-0.5,2-0.8,4-1,6c-0.6,5-0.9,10-1.6,15c-0.3,2.5-0.3,4.9,0.5,7.5c0.7-5.1,1.3-10,2.1-15.6c0.5,2.2,0.2,3.6,0.1,5
		c-0.1,1.2-0.3,2.4-0.3,3.6c-0.1,3.3-0.3,6.7-0.4,10c0,1.4,0.1,2.9-0.1,4.3c-0.1,1.2,1,1.5,1.4,2.2c0,2.4,0,4.8,0,7.1
		c0.1,2.5,0,5.1,1,7.4c0.9,2.2,0.5,4.7,2,7.3c0.3-2.8,0.2-5.1-0.4-7.2c-1.2-3.9-1-7.8-0.8-11.7c0.4-8.5,2.2-16.8,3.7-25.2
		c0.7-3.8,2.3-7.5,3.5-11.3c0.3-1.1,1.1-1.5,2.2-1.2l-0.1-0.1c-0.5,1.2-0.8,2.5-1.4,3.7c-0.8,1.6-1.2,3.4-1.3,5.1
		c0.4,0.2,0.7,0.4,1,0.7c-1.8,3.6-2.2,7.5-2.3,11.5c-0.1,3,0,6-0.3,9c-0.6,5,0.8,9.8,1.8,14.7c0.9-1.2,0.9-2.3,0.8-3.6
		c-0.3-2.5-0.6-5-0.8-7.5c-0.3-2.6-0.6-5.3,0.5-7.8c0.9-2,1.3-4.1,2-6.1c0.7-2.3,1.4-4.6,2.2-6.8c0.6-1.7,1-3.4,1.1-5.2
		c0.1-2.4,0.3-4.8,0.4-7.2c0.1-0.8,0.1-1.7,1.3-2.3c0.7,0.3,1.6,0.6,2.3,1.2c2.3,1.9,4.8,3.5,7.4,5c2,1.1,4,2.2,5.9,3.4
		c0.4,0.3,1.1,0.4,1,1.3c-0.8-0.3-1.6-0.7-2.4-1c-0.8-0.3-1.5-0.7-2.3-1c-0.6-0.3-1.3-0.7-1.9-1c-0.7-0.4-1.5-0.8-2.2-1.2
		c-0.7-0.4-1.2-1-2.4-0.9c2.3,2.7,4.8,4.5,7.5,6.1c1.2,0.7,2.4,1.5,3.6,2.3l0.1-0.1c-1.8,0.2-3.5-0.5-5.2-1.1
		c-0.9-0.4-1.8-0.7-2.6-1l-0.1-0.1l0.2,0.1c0.2,0.4,0.3,0.9,0.6,1.2c1.4,1.3,2.9,2.6,4.4,3.9c0.5,0.4,1.3,0.6,1.3,1.4l0.1-0.1
		c-2.8-0.4-4.8-2.1-6.8-3.7c-3-2.5-5.3-5.5-6.1-9.5c-0.2-0.9-0.5-1.9-0.8-2.7c-0.1-0.4-0.7-0.6-1.2-1c-0.4,2.3-0.9,4.4-0.2,6.3
		c1,2.4,0.8,4.9,1.2,7.4c0.1,0.7-0.2,1.1-0.8,1.5c-0.1,0,0,0.4,0.1,0.7c0.6,0.3,1.3,0.7,2,1.1c0.2,0.5,0.3,0.8,0.4,1.2
		c0.5,2.2,1,4.3,2.8,6c0.6,0.5,0.7,1.7,0.8,2.6c0.1,1.4,0,2.8,0,3.9c0.8,0.5,1.5,0.7,2,1.2c0.8,0.9,1.5,1.9,2.2,2.8
		c2,2.5,3.4,5.1,3.6,8.4c0.1,2.7,0.6,5.5,0.9,8.2c0.3,3,0.6,6,0.8,8.9c0.1,1.8,0.7,3.2,2,4.5c2.2,2.2,4.4,4.4,6.5,6.7
		c1.2,1.3,2.4,2.6,3.6,4c0.3,0.3,0.6,0.8-0.1,1.3c-1.5-0.3-2.6-1.4-3.8-2.3c-6.1-5-11-11-15.2-17.6c-1.2-1.8-2-3.8-3.7-5.3
		c-0.4-0.3-0.4-0.8,0.3-1.4c1.1,1.1,2.2,2.2,3.5,3.4c1.4-2.4,0.6-4.9,1-7.2c0.4-2.1-0.1-4.4-0.2-6.7c-1,0.4-1.1,1.2-1.1,1.9
		c-0.1,1.2,0,2.4-0.2,3.6c-0.2,1.5-0.5,3-2,4c-0.1-0.2-0.2-0.3-0.2-0.4c0-0.3-0.1-0.7,0-1c1.1-3.7,1.3-7.3-1.7-10.4
		c-0.5-0.5-0.8-1.2-0.3-2c1,0.1,1.2,1,1.6,1.6c0.3,0.4,0.8,0.8,1.2,1.1c1.7-2.1,1.7-2.1,0.2-3.4c-0.3,0.4-0.6,0.8-1,1.4
		c-0.1-1.1-0.2-1.9-0.3-2.6c-0.5,0.1-0.8,0.1-1.1,0.2c1.2-8.7-0.3-7.9-3.1-11.9c-0.1,1.3-0.2,2.3-0.1,3.4c0.1,1,0.3,2.1,0.6,3.4
		c-1.3-1-1.7-2.1-1.7-3.3c0-1.2,0-2.4,0-3.6c-0.1-2.2-0.7-3.5-2.8-5.6c-0.1,0.7-0.2,1.2-0.2,1.8c0,2.3,0.2,4.5,0.1,6.8
		c0,2.9-0.2,5.7-0.1,8.6c0,1.6,0,3.1-0.9,4.5c-0.8,1.2-1.1,2.6-1.2,4.1c-0.1,1.2-0.4,2.4-1,3.4c-1.8,2.9-2,3.2-2,5
		c0,2.3-0.1,4.5-0.1,6.8c0.1,3,0,6,0.3,9c0.6,4.6,1.1,9.3,1.1,13.9c0,3.2,0.2,6.5,0.9,9.6c1,5,2.6,9.7,6.8,13.1
		c0.3,0.2,0.8,0.6,0.3,1.2c-0.7-0.2-1.3-0.5-2.4-0.9c0.7,3,2.2,5.2,3.6,7.4c0.3,0.5,1.2,1,1.8,1c1.3,0,2.3,0.7,3.2,1.3
		c1,0.7,2,1.2,3.2,1.6c1.3,0.4,2.6,1.1,3.2,2.4c-0.6,0.5-1,0.2-1.4,0c-0.7-0.3-1.5-0.8-2.3-0.8c-1.5,0-2.5-0.7-3.5-1.5
		c-0.9-0.8-1.8-1.6-3-1.9c-2.9-0.8-4.7-2.8-5.9-5.3c-0.3-0.6-0.4-1.4-1.4-1.6c-0.3,2.8,0,5.5,0.5,8.1c0.9,5.2,2.5,10.2,5.9,14.5
		c2.4,3,4.9,5.9,7.3,8.9c0.9,1,1.8,1.9,3.2,2.3c6.3,2.1,12.8,2.9,19.5,1.9c3.3-0.5,6.3-1.4,8.9-3.5c0.5-0.4,1.3-0.7,1.9-1
		c3.9-2.4,7.6-5,10.5-8.6c2.2-2.7,3.4-5.7,3.4-9.2c-0.1-10-2.8-19.1-8.8-27.2c-0.6-0.8-1-1.6-1.5-2.4l0.2-0.2
		c0.8,0.8,1.8,1.5,2.5,2.5c6,8,9.1,17,9.4,26.9c0.1,4.8-1.8,8.8-5.2,12.2c-2.2,2.2-4.8,3.9-7.5,5.4c-2.1,1.2-4.1,2.4-6.2,3.6
		c-2.2,1.3-4.5,2.2-7,2.7c-7.1,1.4-14,1-20.8-1.6c-1.5-0.6-2.7-1.8-4.1-2.8c-0.2-0.2-0.5-0.4-0.7-0.7c-0.2-0.3-0.5-0.5-0.7-0.8
		l-0.1-0.1l0.2,0.1c0.2,0.2,0.5,0.5,0.7,0.7c0.3,0.2,0.5,0.4,0.8,0.7c-0.3,0.8,0.3,1.4,0.7,1.9c5.8,7.2,11.7,14.3,18.4,20.6
		c5.3,4.9,10.4,9.9,15.7,14.8c3.3,3.1,7.1,5.7,11.2,7.8c2.3-3.2,6.5-3.6,9-6.5c0.1-0.8-0.7-1.1-1.1-1.6c-2.4-3-4.8-6-7.2-9
		c-0.3-0.4-0.5-0.9-0.6-1.6c1.3,0.5,1.9,1.6,2.7,2.5c0.9,1,1.7,2,2.5,3.1c0.8,0.9,1.5,1.9,2.3,2.7c0.9,1,1.7,2,2.9,2.7
		c4.1-2.2,7.7-4.8,10.7-8.3c1.9-2.3,4.2-4.2,6.4-6.3c0.7-0.6,1.6-1,1.3-2.3c-0.1-0.4,0.6-1,1-1.4c1.5-1.2,2.9-2.4,4.5-3.6
		c1.9-1.4,3.9-2.7,5.9-4.1c3.9-2.6,7.5-5.6,10.5-9.2c2.4-2.8,4.8-5.7,7.1-8.5c-0.7-2.4-2.1-4.1-3.7-5.7c-1.1-1.1-2.2-2.2-3.3-3.3
		c-1.1-1.1-1.2-2.3-0.6-3.6c0.5-1.1,1-2.2,1.5-3.3c0.8-1.8,1.2-3.6,1.4-5.5c0.2-2.1,0.2-4-0.7-6c-0.4-1-0.5-2.1-0.8-3.1
		c-0.4-1.1-0.8-2.3-1.3-3.3c-0.5-1.1-1.2-2-1.3-3.3c-0.1-0.8-0.7-1.5-1.1-2.2c-2.7-4.4-6.2-7.9-10.8-10.2c-0.7-0.4-1.4-0.7-2.1-1.1
		c0.1-1,0.6-0.9,1-0.8c0.8,0.2,1.6,0.5,2.4,0.8c3.3,1.5,6.1,3.8,8.5,6.5c5.7,6.7,8.3,14.5,7.6,23.2c-0.2,2-0.8,4-1.3,5.9
		c-0.3,1.2-0.8,2.2-1.3,3.5c1.2,1.4,2.6,2.7,3.7,4.2c1.2,1.5,2.4,3,3.5,4.6c1.4,2,2.8,3.8,5.3,4.4c0.7,0.2,1.4,0.5,2,0.8
		c6.1,3.6,12.4,6.7,18.5,10.3c4.9,2.9,10,5.6,14.5,9.3c0.4,0.3,0.8,0.5,1.2,0.7c1.1,0.7,2.4,1.3,2.3,2.8c2.7,1.3,5.5,0.2,8,1.5
		c4.4-3,8.8-5.9,13.2-8.9c1.3-0.9,2.4-1.9,3.6-3c0.5-0.5,0.9-1.1,1.3-1.7c1.2-1.9,2.1-4,3.4-5.9c6.7-9.5,13.5-18.9,21.7-27.2
		c4.6-4.6,9.3-9,13.9-13.6c11.8-11.8,24.6-22.4,37.6-32.8c6.1-4.8,12.4-9.4,18.7-14c1-0.7,1.8-1.5,2.5-2.4c-0.2,1.6-0.9,2.9-2.2,3.9
		c-3.3,2.7-6.5,5.6-10,8.2c-11.7,8.8-22.6,18.4-33.6,28.1c-6.8,6-13.1,12.6-19.8,18.8c-11.3,10.4-20,22.9-29.3,34.9
		c-0.3,0.4-0.4,0.9,0.3,1.3c0.6-0.6,1.4-1.2,2-1.9c7.6-8.1,15.4-16.1,23.7-23.6c10.3-9.3,20.5-18.8,31.5-27.2
		c7.1-5.4,14.3-10.9,21.9-15.7c5.4-3.4,10.7-6.8,16.1-10.2c0.8-0.5,1.7-1,2.2-1.7c1.3-1.6,2.9-2.5,4.7-3.3c2.1-0.9,4.3-1.5,6.4-2.3
		c4-1.5,8-1.3,11.9,0.3c0.4,0.2,0.8,0.5,1.3-0.2c-0.2-0.6-0.3-1.2-0.7-1.9c-0.5-1.1-1.2-2.1-1.8-3.1c-0.7-1.1-1.7-2-2.3-3.2
		c-0.7-1.3-1.7-1.7-2.9-1.5c-1.6,0.3-3.1-0.2-4.6-0.7c-0.8-0.3-1.6-0.7-2.4-0.8c-3.8-0.8-7.6-1.3-11,1.1
		C592,344.2,591.4,344.3,590.8,344.6z M386.7,374c0.5,0.7,1,0.9,1.7,0.3c-0.3-0.1-0.5-0.1-0.7-0.2C387.3,374.1,387,374.1,386.7,374
		c-0.3-0.2-0.5-0.5-0.8-0.6c-1.6-0.7-3.4-1.3-5-2c-1.1-0.5-2.2-0.5-3.2-0.1c-1.9-1.2-3.5-2.4-5.3-3.4c-1.8-1-3.6-1.9-5.4-2.8
		c-3.6-1.8-3.6-1.8-5.7-1.7c0.6,1.6,1.1,3.2,1.7,4.7c1.7,0.6,3.3,1.3,4.9,1.7c5.3,1.4,10.6,2.8,16,4.1
		C384.8,374,385.8,373.9,386.7,374z M628.9,529.2l-0.1-0.1c0.1,1.1,0.9,1.7,1.9,1.9c1.6,0.5,3.3,0.6,4.9-0.3
		c1.4-0.7,2.8-1.3,4.1-2.1c3.1-1.9,5.6-4.4,6.4-8.2c0.5-2.2,1.4-4.3,2.6-6.3c0.5-0.8,1-1.6,1.5-2.5c-2.7-3.7-4.2-7.9-5-12.3
		c-1.7-9.9-2.8-19.9-3.4-29.9c-0.4-7-0.9-14.1-1.3-21.2c-0.1-1.8,0.1-3.6,0.1-5.4c0-0.8,0-1.7-0.1-2.5c-0.9-9.1-1.8-18.1-1.7-27.2
		c0-7.6-0.6-15-2.4-22.4c-1.3-5-2.3-10-4.5-14.7c-2.4-5.1-4.9-10.1-8.3-14.6c-1.7-2.3-3.6-4.1-6.6-4.6c-1-0.2-2-0.7-3.1-1
		c-1.3-0.3-2.6-0.5-3.9-0.6c-2.1-0.2-4.1,0.2-6,0.8c-3.2,1.1-6.4,1.9-9.1,4.1c-5.3,4.4-11,8.1-16.7,11.8
		c-13.6,8.8-26.5,18.5-38.6,29.2c-7.5,6.5-14.9,13.2-22.1,20c-5.8,5.5-11.3,11.4-16.9,17.1c-0.2,0.2-0.3,0.6-0.5,1.1
		c0.9,0.4,1.7,0.7,2.6,1.1c-0.2,3.6,1.5,6.5,2.8,9.5c0.2,0.4,0.4,0.9,0.5,1.3c1.1,3.8,3.4,6.8,6,9.7c1.3,1.4,2.5,2.9,3.8,4.3
		c7,7.1,13.9,14.2,21,21.2c3.1,3.1,6.6,5.9,10.9,7.3c0.1,0,0.2,0.4,0.4,0.8c-0.4,0.1-0.9,0.4-1.2,0.3c-1.2-0.4-2.6-0.7-3.6-1.4
		c-2.5-1.6-5-3.3-7.2-5.3c-5.1-4.6-10-9.3-14.9-14.1c-5-4.8-9.8-9.8-13.8-15.6c-3.4-5-6.3-10.2-7.5-16.2c-0.2-0.7-0.5-1.4-0.8-2.2
		c-1.6,0.6-1.4,1.9-1.6,3.1c-2.2,0.8-2.1,0.8-3.2,2.7c-0.7,1.2-1.5,2.5-2.4,3.6c-2.8,3.5-6.1,6.5-9.5,9.3c-0.2,0.1-0.6,0-1-0.1
		c1.7-2.7,4-4.7,6.1-6.8c1.6-1.6,3.3-3.1,3.6-5.6c0.1-0.8,0.8-1.5,1.2-2.2c0.5-0.8,1.1-1.5,1.7-2.3c0.3-0.4,0.3-0.8-0.4-1.1
		c-2.7,3.5-6,6.5-9.9,8.6c-1,0.5-1.1,1.5-1.5,2.2c-2,1.4-4.7,1.3-6.6,2.9c-0.4,0.3-1.2,0.2-1.7,0.2c-0.8-0.1-1.6-0.3-2.4-0.4
		c-1.3,2.1-1.9,4.3-2.4,6.5c-0.8,4.1-1.5,8.2-2.2,12.4c-0.5,3-0.6,6-1.9,8.8c0.8-9.4,1.4-18.8,5.2-27.6c-1.1-0.5-2-0.9-3-0.6
		c-2.4,5.7-4.5,11.3-7,16.7c-5.3,11.4-8.7,23.3-11.6,35.4c-0.3,1.3-0.4,2.6-0.4,3.9c0.1,3.7,0.7,7.4,1.4,11c0.3,1.5,1,2.6,2.3,3.5
		c2.4,1.6,4.7,3.3,7.1,4.9c7.6,5.1,15.9,7.6,25,7.6c2.9,0,5.7,0.1,8.6,0.2c1.9,0.1,3.8-0.1,5.7-0.7c6.4-2,12.7-4.4,18.7-7.3
		c3.9-1.9,7.5-4.2,10.9-7c6.4-5.4,11.9-11.4,16.5-18.4c3.2-4.8,6-9.8,7.5-15.4c0.2-0.9,0.6-1.8,1.1-2.6c2.5-4.2,5-8.4,7.6-12.6
		c3.6-5.7,6.9-11.5,9.6-17.6c0.6-1.3,1.3-2.6,2-3.8c1-1.8,2.2-3.4,3.1-5.2c2.8-5.3,5.9-10.4,9.5-15.2c5.2-6.8,9.9-13.8,13.7-21.5
		c0.7-1.5,1.6-3,2.8-4.1c1.3-1.3,2.3-2.7,3.3-4.2c0.3-0.5,0.6-1.3,1.8-1.2c-0.2,0.5-0.4,0.9-0.6,1.3c-1.2,1.9-2.4,3.9-3.6,5.8
		c-2.4,3.5-3.8,7.5-4.2,11.7c-0.9,8.4-0.8,16.6,0.9,25c1.5,7.4,4,14.2,7.7,20.8c2.2,4,4.2,8.1,6.2,12.2c0.8,1.7,1.6,3.6,1.8,5.4
		c0.3,3,1.2,5.9,1.7,8.8c0.9,4.9,1.9,9.9,2.6,14.8c0.8,5.7,1.3,11.4,2,17.5c0.7,0.7,1.5,1.7,2.5,2.5
		C625.1,527.5,626.7,529,628.9,529.2z M364.9,478.9c1.1,0.9,1.8,1.6,2.6,2c2.2,1.3,4.3,2.6,6.6,3.6c4.6,2,9,4.4,13.3,7
		c2.1,1.3,4.2,2.7,6.9,2.8c0.3,0,0.7,0.2,1,0.3c1.9,0.9,3.8,1.9,5.8,2.7c1.2,0.5,2.4,1.2,3.8,0.8c3.2-0.8,6.4-0.2,9.6,0.3
		c4.5,0.7,8.9,2,12.8,4.5c2.1,1.4,4,3,5.5,5.1c0.6,0.9,1.3,1.7,2.1,2.4c1.6,1.5,3.2,2.8,4.8,4.3c1.5,1.5,3.4,2.4,4.7,4.2
		c0.8,1,2,1.9,3.7,2.3c-0.2-1.8-0.4-3.3-0.7-4.8c-0.1-0.3-0.1-0.7-0.4-1c-1.1-1.3-0.9-2.9-1-4.5c-0.1-5.4,0.9-10.7,2.1-16
		c2.1-9.3,5.6-18,10.1-26.4c0.6-1,1-2.1,1.7-3.4c-3.9-0.7-7.4-2.1-11.1-2.3c-0.6,0-1.5,0.1-1.6-1.1c4.6-0.3,8.9,1.3,13.4,2.2
		c2.1-3.1,3.5-6.4,4.8-9.7c0.2-0.6,0.1-1.4,0.1-1.8c-3.1-2.2-6-4.4-9-6.4c-2.5-1.6-5.1-3.2-7.8-4.3c-2.9-1.2-5.7-2.6-8.4-4.1
		c-1.9-1.1-3.7-2.2-5.6-3.2c-1.8-0.9-3.6-1.8-5.1-3.3c-0.5-0.5-1.2-0.8-1.8-1.1c-0.7-0.4-1.5-0.7-2.3-1.1c-0.8-0.4-1.6-0.9-2.5-1.5
		c-1.2,1-1.9,2.3-2.6,3.5c-3.6,5.9-8.3,10.8-14,14.7c-2.7,1.8-5.4,3.6-8,5.4c-1.3,0.9-3.2,1.2-3.2,3.4c0,0.2-0.3,0.4-0.5,0.5
		c-3.9,2.8-6.9,6.6-9.9,10.3c-1.4,1.7-3,3.1-4.8,4.3c-2.1,1.4-4.2,2.7-6.3,4.2C371.4,475.7,368.4,477.3,364.9,478.9z M395.6,497.7
		c-0.4,0.5-0.7,0.9-1.1,1.2c-1.9,1.7-2.5,4-2.6,6.5c-0.1,1.7-0.1,3.4-0.4,5c-1.2,7.6-2.3,15.1-3.7,22.7c-0.4,2.3-1.3,4.6-1.9,6.9
		c-0.2,0.8-0.4,1.6-0.5,2.4c-0.3,2.5-0.3,5-1.4,7.3c-0.1,0.3-0.1,0.7-0.1,1.1c0.1,2.4,0,4.7,1,7c0.6,1.3,0.7,2.8,1,4.2
		c0.1,0.6,0,1.3,0.3,1.8c1.4,2.7,1.8,5.6,2.6,8.5c1.1,3.7,3.1,6.9,5.7,9.8c0.5,0.5,1,1.1,1.6,1.4c0.7,0.5,1.4,0.8,2.2,1.1
		c1.7,0.6,3.4,1,5.1,1.6c3.5,1.3,7,1.5,10.6,0.9c2.9-0.5,5.8-1.2,8.8-1.9c4.3-1,8.1-2.8,11.2-6.1c0.7-0.7,1.4-1.3,2.1-1.9
		c3.5-3.1,6.5-6.7,8.6-10.9c1.1-2.3,1.7-4.6,1.2-7.3c-0.4-1.8-0.4-3.8,0-5.7c0.2-1.3,0.2-2.3-0.1-3.5c-0.9-3.2-1.7-6.5-1.7-9.8
		c0-0.4-0.1-0.7-0.1-1.1c-0.8-6.3-1.5-12.6-2.3-18.9c-0.1-1-0.4-1.8-1.1-2.5c-1.2-1.1-2.4-2.3-3.7-3.4c-2.1-2-4.4-3.8-6.2-6
		c-2-2.4-4.5-3.9-7.2-5.1c-4.3-1.9-8.8-3.2-13.5-3.2c-3.4,0-6.7-0.4-9.8-1.6C398.7,497.7,397.3,497.4,395.6,497.7z M655.2,510.9
		c-0.1,0-0.2,0.1-0.3,0.1c-2.2,3-4.4,5.9-6.5,9c-0.6,0.8-0.7,2-1.1,3c-0.2,0.4-0.4,0.9-0.6,1.3c-2.5,4.9-7,7.3-12,9.1
		c-0.4,0.2-0.9,0.1-1.4,0.2c-2.4,0.2-4.4-1-6.2-2.4c-2.2-1.6-4.4-3.2-6.4-4.7c-0.7,0.1-1.1,0.2-1.5,0.3c-0.6-1-0.3-2.8-2.4-2.3
		c-1,3.2-1.8,6.6-2.1,10c-0.2,2.1-0.6,4-1.7,5.7c-0.9,1.4-1.7,2.9-2.4,4.4c-0.7,1.4-1.4,2.8-1.7,4.3c-0.4,2.4-1.2,4.6-2.1,6.8
		c-0.3,0.7-0.4,1.5-0.6,2.4c3.2,2.1,6.3,4.2,9.4,6.2c0.3,0.2,0.7,0.3,1,0.3c2.1,0.3,4.3,0.7,6.4,0.7c5.6,0.1,11.3,0.1,16.9,0
		c1.2,0,2.4-0.2,3.5-0.6c1.2-0.4,2.3-0.3,3.5-0.1c4,0.8,8,1.5,12.1,1.4c0.4,0,0.7,0,1.1,0.1c6.6,0.8,13.1,0.7,19.7,0.7
		c1.4,0,2.9-0.1,4.2-0.5c6.2-1.8,12.3-4.1,18.1-6.9c3.1-1.5,6.2-3.1,8.9-5.3c1.2-1,2.5-1.9,3.1-3.2c-0.6-4.1-1.5-7.9-3.4-11.3
		c-2.5-0.1-4.8-0.1-7.2-0.3c-2.3-0.2-4.8-0.4-6.1-3c0-0.1-0.2-0.2-0.3-0.2c-2.5-1.2-5-2-7.9-1.6c0,0.7,0.1,1.2,0,1.6
		c-0.1,0.6-0.2,1.2-0.4,1.7c-0.4,0.8-1.4,1.2-2.1,0.9c-0.6-0.3-0.7-1-0.4-1.9c0.4-1,1.1-1.8,0.9-2.9c-0.9-0.3-1.6-0.6-2.4-0.8
		c-0.9-0.2-1.7-1-2.6-0.7c-0.5,1.2-0.9,2.3-1.5,3.3c-0.4,0.7-1,1.3-1.6,1.9c-0.3,0.2-1,0.2-1.3,0c-0.3-0.2-0.6-0.9-0.5-1.2
		c0.3-0.9,0.8-1.7,1.2-2.6c0.3-0.7,0.7-1.5,1.1-2.3c-2-1-3.8-1.9-5.8-2.4c-0.6,1.1-1,2-1.6,2.9c-0.6,0.9-1.2,1.8-1.9,2.6
		c-0.5,0.5-1.2,0.7-1.9,0.9c-0.8,0.2-1.7-0.9-1.4-1.6c0.3-0.8,0.8-1.4,1.3-2.1c1.1-1.5,2.4-3,2.8-5c-1-1.1-1.6-2.4-3-2.9
		c-2.1,2.4-4.2,4.7-6.2,7c-0.5,0.5-1,1.1-1.6,1.5c-0.6,0.5-1.3,0.4-2-0.1c-0.6-0.5-0.9-1.2-0.5-1.9c0.4-0.7,0.9-1.5,1.5-2
		c1.3-1.1,2.6-2.1,3.9-3.1c1.2-1,2.6-1.7,3.3-3.1C664.3,519.1,658.8,513.6,655.2,510.9z M615.8,522.9c0.9-0.1,1.7-0.2,2.7-0.4
		c-0.4-4-0.5-7.9-1.3-11.7c-2.5-0.1-4.7-0.5-6.3-2.4c-0.5-0.6-1.3-1-2-1.5c-0.8-0.5-1.3-1.4-2.5-1.5c-0.2,0.8-0.5,1.5-0.5,2.1
		c-0.1,3.2-0.8,6.1-2.1,9c-0.5,1.2-0.7,2.5-0.9,3.8c-0.4,2.7-0.6,5.5-1.2,8.1c-0.8,3.8-2,7.6-3,11.4c2.5,2.4,6.3,2.3,8.9,4.9
		c1-1.8,1.9-3.5,2.9-5.1c1-1.8,1.7-3.7,1.7-5.8c0-1.5,2.3-9.1,3.1-10.6C615.4,523.3,615.5,523.2,615.8,522.9z M675,518
		c-0.6-0.4-1.2-0.8-1.8-1.1c-0.7-0.4-1.4-0.6-2-0.9c-1.3,1.4-2.4,2.6-3.6,3.8c0.3,0.4,0.6,0.7,0.9,1.1c1.7,1.7,3.7,3.1,5,5
		c1.3,1.9,3,2.8,4.9,3.4c3.9,1.2,7.7,2.5,11.8,3.2c2.7,0.4,5.4,0.9,8,1.9c0.2,0.1,0.4-0.1,0.8-0.2c0.7-2.1,0.7-4.3,0.2-6.6
		c-2.9-0.3-5.6-0.5-8.3-1c-2-0.3-4-0.8-5.9-1.5c-1.8-0.6-3.5-1.5-4.6-3.3c-0.4-0.7-1.3-1-2-1.5c-0.2-0.1-0.5-0.1-0.6-0.1
		c-0.8,0.4-1.7,0.8-2.4,1.1C674.3,520.1,675.4,519.2,675,518z M607.7,472.4c-0.1,0.7-0.2,1-0.2,1.3c1.1,7.7,2.2,15.4,3.3,23
		c0.1,0.9,0.2,1.9,0.2,2.9c-0.1,2.5,0.2,4.9,1.2,7.3c1.4,0.5,2.8,1.1,4.4,1.7c0.1-0.8,0.2-1.3,0.2-1.9c-0.3-2.6-0.5-5.2-1.1-7.8
		c-1.3-6.2-2.6-12.4-4.1-18.5C610.9,477.6,609.4,475.1,607.7,472.4z M374.3,348.5c-3.2,0.1-6,0-8.8,0.2c-2,0.1-3.8-0.2-5.5-1
		c-0.6-0.3-1.3-0.2-1.9-0.3c-1,2.5-1,3.4-0.1,5.3c3.9-0.6,7.8-1.1,11.6-1.8C371.2,350.5,373,350.2,374.3,348.5z M649,499.2
		c-0.3,0.7-0.8,1.4-0.7,1.9c0.7,3.1,1.7,6.1,2.7,9.2c1.7-1.1,3.1-2,4.6-3c0.6-0.4,0.7-1.4,0.3-1.9c-0.4-0.4-0.9-0.8-1.3-1.2
		C652.9,502.8,651.1,501.2,649,499.2z M595.8,420.3c-1.5,1.3-2,2.8-2.9,4c-0.7,0.9-0.8,2-0.6,3.1c0.8,4.1,1.7,8.1,3.4,12
		C595.1,433.2,595.1,426.9,595.8,420.3z M384.7,340.1c-2.8,0.2-4.8-1-7-0.4c0.1,1,0,2,0.2,2.8c0.2,1-0.3,2.1,0.4,2.9
		c0.3-0.1,0.4-0.1,0.5-0.1c0.1,0,0.2-0.1,0.3-0.2C380.8,343.6,382.4,342.1,384.7,340.1z M320.2,337c-0.6,2.3,1.4,4.7-0.1,7.1
		c-0.1,2.5,0.1,5-1.3,7.2c0.4,0.9,0.7,1.8,1.7,2.2C321.2,347.8,321.6,342.4,320.2,337z M665.2,512c-0.8,1.2-1.5,2.1-2.2,3.1
		c1,1,1.7,2.1,3.1,2.6c0.8-1.4,2.2-2.2,2.4-4.1C667.4,513.2,666.4,512.6,665.2,512z M660.2,512.5c1.4-1.1,1.4-1.1,1.9-3.2
		c-1-0.6-2-1.5-3.3-1.6c-0.7,0.7-1.4,1.2-1.4,2.3C658.3,510.8,659.2,511.6,660.2,512.5z M304.4,330.3c0.3-2.4,0.3-4.8,0-7.2
		C303.8,325.5,304,327.9,304.4,330.3z M288.7,333.2c0.6-3,0.2-5.1,0-7.2C288.4,328.2,288.1,330.3,288.7,333.2z"/>
	<path d="M400,421c0.7-0.4,1.3-0.8,1.9-1.2c4.4-2.6,6.5-6.6,6.9-11.5c0.2-2.6,0.2-5.2-0.4-8c0.3,0.2,0.5,0.3,0.5,0.4
		c1.9,5.1,2.2,10.2-0.5,15.2c-1.5,2.8-3.8,4.9-6.9,6C401,422.1,400.4,422.2,400,421z"/>
	<path d="M220,231.7c0.1-0.6,0-1.2,0.2-1.7c1.8-4.3,2.2-8.8,2.2-13.3c0-2.6,0-5.2,0.2-7.9c0.2,1.1,0.5,2.2,0.6,3.3
		c0.5,6,0,11.9-2,17.6C221,230.4,221,231.4,220,231.7L220,231.7z"/>
	<path d="M358,450.1c-0.3-0.2-0.7-0.3-0.9-0.5c-2.3-3.6-4.7-7.1-7-10.7c-0.2-0.4-0.5-0.8-0.1-1.3c0.2,0,0.5,0,0.6,0.1
		c2.1,3.3,4.2,6.6,6.3,9.9C357.4,448.4,358.1,449.2,358,450.1L358,450.1z"/>
	<path d="M394.3,422.9c0.1,2.1-0.9,2.7-3.4,2.5C391.8,424.1,391.8,424.1,394.3,422.9z"/>
	<path d="M219.2,233.1c-0.2,0.6-0.3,1.4-0.6,1.9c-1.1,1.6-2.3,3.3-4.3,3.9l0.1,0.1c0-0.1,0-0.3,0-0.3
		C216.2,236.9,217.4,234.8,219.2,233.1L219.2,233.1z"/>
	<path d="M210,238.2c-1.9,1.1-3.9,0.6-5.8,0.3C206.1,238,208.1,238.3,210,238.2L210,238.2z"/>
	<path d="M401.1,391c-0.3,0.3-0.4,0.4-0.6,0.5c-0.3-0.3-0.5-0.6-0.8-1c0,0,0.4-0.3,0.4-0.3C400.5,390.5,400.8,390.7,401.1,391z"/>
	<path d="M403.2,392.7c0.7-0.1,1,0.3,1.3,0.9c0.1,0.2,0,0.5-0.1,0.6c-0.1,0.1-0.4,0-0.6-0.1C403.3,393.8,403.1,393.3,403.2,392.7
		L403.2,392.7z"/>
	<path d="M385.8,426.1c0.1-0.5,0.4-0.8,0.9-0.6c0.2,0.1,0.4,0.4,0.4,0.5C386.8,426.7,386.3,426.4,385.8,426.1z"/>
	<path d="M377.1,360.7c0.1,0.4,0.3,0.7,0.3,1c0,0.2-0.3,0.3-0.5,0.6c-0.1-0.4-0.3-0.7-0.3-1C376.6,361.1,376.9,360.9,377.1,360.7z"
		/>
	<path d="M407.6,397.7c0.1,0.2,0.2,0.5,0.1,0.2C407.8,398.2,407.7,398,407.6,397.7L407.6,397.7z"/>
	<path d="M214.3,238.9c-0.4,0.7-1,0.6-1.6,0.6l0.1,0.1C213.2,239.4,213.8,239.2,214.3,238.9L214.3,238.9z"/>
	<path d="M227.2,233.2c0-0.6,0.1-1.1,0.7-1.4l-0.1-0.1C227.7,232.3,227.9,233,227.2,233.2L227.2,233.2z"/>
	<path d="M219.9,231.7c0.1,0.7,0.1,1.3-0.7,1.5l0.1,0.1C219.2,232.5,219.1,231.9,219.9,231.7L219.9,231.7z"/>
	<path d="M227.9,231.8c0.1-0.3,0.1-0.6,0.1-0.3C228.1,231.3,228,231.5,227.9,231.8L227.9,231.8z"/>
	<path d="M513.2,534.9c-0.3,0-0.5,0-0.8,0l0,0.1C512.7,535,513,535,513.2,534.9L513.2,534.9z"/>
	<path d="M357.9,450.2c0.2,0.1,0.3,0.2,0.5,0.3C357.9,450.9,358.1,450.3,357.9,450.2L357.9,450.2z"/>
	<path d="M354.4,381.8c0.3,0.2,0.5,0.5,0.8,0.7l-0.2,0.2c-0.2-0.2-0.5-0.5-0.7-0.7L354.4,381.8z"/>
	<path d="M355.2,382.5c0.2,0.2,0.5,0.5,0.7,0.7l-0.2,0.2c-0.2-0.2-0.5-0.5-0.7-0.7L355.2,382.5z"/>
	<path d="M355.9,383.2c0.2,0.2,0.5,0.5,0.7,0.7l-0.2,0.2c-0.2-0.2-0.5-0.5-0.7-0.7L355.9,383.2z"/>
	<path d="M403.3,392.7c-0.1-0.1-0.2-0.2-0.3-0.2c0.1,0,0.2,0,0.2,0C403.2,392.5,403.2,392.6,403.3,392.7L403.3,392.7z"/>
	<polygon points="407.7,397.7 407.5,397.6 407.6,397.7 	"/>
	<path d="M652.9,78.4c-0.3-0.2-0.7-0.4-0.8-0.7c-1.2-3.1-2.3-6.3-3.4-9.5c-0.2-0.4-0.3-0.9-0.4-1.4c-0.1-0.6-0.1-1.2,0.5-1.6
		c0.4-0.3,1.2,0.2,1.5,1.1c0.9,2.6,1.8,5.2,2.6,7.8C653.5,76,653.4,76,652.9,78.4z"/>
	<path d="M658.1,48.7c1.7,1,2.2,2.5,2.6,4.1c0.2,0.6,0.3,1.4-0.5,1.8C658.9,53,658.6,52.2,658.1,48.7z"/>
	<path d="M655.6,46.4c0.3,0.3,0.8,0.7,1.1,1.1c0.1,0.1,0,0.5-0.2,0.6c-0.1,0.1-0.5,0.2-0.6,0.1c-0.4-0.3-0.7-0.6-1-0.9
		c-0.1-0.1,0.1-0.4,0.2-0.6C655.2,46.6,655.3,46.6,655.6,46.4z"/>
	<path d="M632,180.1c0-1.3,0-2,0-2.8C633.2,178,633.2,178,632,180.1z"/>
	<path d="M646.1,55.8c0.9-0.1,1.6-0.1,2.3-0.2c-0.1,1.1-0.8,1.3-1.5,1.1C646.6,56.7,646.5,56.3,646.1,55.8z"/>
	<path d="M652.9,99.2c0-0.7-0.1-1.3-0.1-2.1C653.6,97.9,653.6,98.4,652.9,99.2z"/>
	<path d="M651.3,91.7c0-1.4,0-2.1,0-3.1C652.1,89.6,652.2,90.3,651.3,91.7z"/>
	<path d="M633,169.1c0.1,0.8,0.2,1.1,0.2,1.4c0,0.1-0.1,0.2-0.2,0.3c-0.1-0.1-0.3-0.2-0.3-0.3C632.7,170.1,632.8,169.8,633,169.1z"
		/>
	<path d="M633.6,162c0,0.3,0,0.5,0,0.8c0,0-0.1,0-0.1,0c0-0.3,0-0.5,0-0.8C633.5,162,633.6,162,633.6,162z"/>
	<path d="M652.9,106.3c0.1-0.6,0.1-0.9,0.1-1.2c0,0.2,0.1,0.3,0.1,0.5C653.1,105.7,653,105.8,652.9,106.3z"/>
	<path d="M482.8,145.9c-4.1,0.6-7.7,0.1-11.3-0.7c-3.4-0.7-6.6-2-9.8-3.5c-1.8-0.8-3.7-1.6-5.6-2.4c1.2-0.6,2.3-0.1,3.3,0.3
		c2.7,1,5.4,1.8,8,3c3.2,1.4,6.6,1.8,10,2.3c1.3,0.2,2.6,0.3,3.9,0.5C481.8,145.4,482.1,145.6,482.8,145.9z"/>
	<path d="M465.4,108.1c1.8-2.6,4-3.4,6.2-4.2c0.3-0.1,0.7,0.1,0.9,0.3c0.4,0.4,0.1,0.9-0.3,1.2C470.3,106.5,468.4,107.6,465.4,108.1
		z"/>
	<path d="M480,102c1.3-1.3,1.5-1.3,3.4-0.3C482,102.4,482,102.5,480,102z"/>
	<path d="M489,100.4c0.6-0.3,1.2-0.6,1.9-0.8c0.9-0.3,1.8,0.1,1.7,0.7c-0.2,0.8-0.9,0.6-1.4,0.7c-0.7,0.1-1.4,0-2.1,0
		C489.1,100.7,489.1,100.6,489,100.4z"/>
	<path d="M513,143.7c-1,0-2.1,0-3.1,0c0,0,0-0.1,0-0.1c1,0,2.1-0.1,3.1-0.1C513,143.5,513,143.6,513,143.7z"/>
	<path d="M472.7,139c0,0.9,0,1.8,0,2.7c-0.1,0-0.1,0-0.2,0c0-0.9,0-1.8,0-2.7C472.6,139.1,472.7,139.1,472.7,139z"/>
	<path d="M504,144.3c0.9,0,1.8,0,2.7,0c0,0,0,0.1,0,0.1c-0.9,0-1.8,0-2.7,0C504,144.4,504,144.4,504,144.3z"/>
	<path d="M500,145.1c-0.8,0-1.6,0-2.4,0c0,0,0-0.1,0-0.1C498.4,145,499.2,145,500,145.1C500,145.1,500,145.1,500,145.1z"/>
	<path d="M467.5,150.3c0-0.6,0-1.2,0-1.8c0,0,0.1,0,0.1,0C467.6,149,467.6,149.7,467.5,150.3C467.6,150.3,467.5,150.3,467.5,150.3z"
		/>
	<path d="M504.5,106c0.2,0.2,0.3,0.4,0.2,0.2C504.8,106.5,504.7,106.2,504.5,106L504.5,106z"/>
	<path d="M503,103.2c0.3,0.4,0.5,0.8,0.8,1.3l0.1-0.1C503.7,104,503.4,103.5,503,103.2L503,103.2z"/>
	<path d="M503.1,103.1c-0.2-0.5-0.4-1-0.6-1.5l-0.1,0.1C502.6,102.2,502.8,102.7,503.1,103.1L503.1,103.1z"/>
	<path d="M498,100.1c0,0.2-0.1,0.4-0.1,0.6c0,0.1,0,0.2-0.1,0.3c-0.1-0.1-0.2-0.3-0.2-0.4C497.8,100.4,498,100.3,498,100.1
		L498,100.1z"/>
	<path d="M504.6,106c-0.2-0.5-0.4-1.1-0.7-1.6l-0.1,0.1C504.1,105,504.3,105.5,504.6,106L504.6,106z"/>
	<polygon points="529.7,137.9 529.9,137.9 529.7,138 	"/>
	<polygon points="505.6,108.8 505.7,108.8 505.6,109 	"/>
	<polygon points="533,136.4 533.1,136.5 532.9,136.5 	"/>
	<path d="M510.3,108c-0.1,0-0.1-0.1-0.2-0.1C510.2,108,510.2,108,510.3,108L510.3,108z"/>
	<polygon points="502.5,101.6 502.3,101.5 502.4,101.7 	"/>
	<polygon points="510.3,108.1 510.4,108.2 510.3,108 	"/>
	<path d="M289,144.6c0.6-2.2,0.6-2.2,4-3.9c0.4-0.7,0.8-1.5,1.3-2.3c1.1-1.8,2.5-3.5,4.2-4.8c1.1-0.8,2.2-1.3,3.6-0.7
		c0.6,0.3,1.4,0.1,2.1,0.2c0.6,0,1.1,0.1,1.6,0.1c0.2,1-0.6,1.3-1,1.3c-2.9,0.3-4.7,2.1-6.3,4.3c-0.5,0.7-1,1.3-1.6,1.9
		c-0.4,0.4-0.8,1-1.3,1.2C293.6,142.8,291.6,143.6,289,144.6z"/>
	<path d="M292.2,164.9c3,0.2,5.3,0.2,7.5,1c0,1.2-0.8,1.2-1.5,1.2C296.2,167.2,294.2,167.3,292.2,164.9z"/>
	<path d="M235.6,157.3c-1.6,0.6-3.1,0.5-5,0.3c0.5-0.5,0.7-1,1-1c1-0.1,2.1-0.2,3.1-0.1C235,156.5,235.2,156.9,235.6,157.3z"/>
	<path d="M234.3,200.9c2.2-1.4,2.2-1.4,3.3-0.3C236.7,201.2,235.8,201.6,234.3,200.9z"/>
	<path d="M219.2,188.3c0.6-2,0.8-2.1,2.8-1.8C221.1,187.6,221.1,187.6,219.2,188.3z"/>
	<path d="M227.7,172.8c1.5-2.2,1.5-2.2,2.8-1.7C230.1,172.1,229.4,172.6,227.7,172.8z"/>
	<path d="M322.9,137.5c1-1.4,1.6-1,2.8-0.2C324.5,137.4,323.9,137.4,322.9,137.5z"/>
	<path d="M288.1,145.1c-0.4,0.5-0.6,0.9-0.9,0.9c-0.4,0-0.7-0.2-1.1-0.3c0.2-0.3,0.3-0.7,0.6-0.7C287.1,144.9,287.5,145,288.1,145.1
		z"/>
	<path d="M233.2,169.3c-0.1-1.3,0.4-1.8,1.7-1.2C234.1,168.6,233.7,169,233.2,169.3z"/>
	<path d="M286.5,162.3c-0.2-0.4-0.5-0.7-0.5-1.1c0-0.1,0.6-0.5,0.8-0.4c0.3,0.2,0.5,0.6,0.8,0.9C287.3,161.8,287,162,286.5,162.3z"
		/>
	<path d="M239,197.7c0.4-0.1,0.8-0.3,1.1-0.4c0.1,0,0.3,0.4,0.3,0.4c-0.3,0.3-0.7,0.5-1,0.7C239.3,198.3,239.2,198.1,239,197.7z"/>
	<path d="M235.7,182c0.2,0.1,0.4,0.1,0.5,0.2c-0.1,0.2-0.2,0.4-0.3,0.5c-0.2,0-0.4-0.1-0.6-0.2C235.5,182.3,235.6,182.1,235.7,182z"
		/>
	<path d="M227.5,183.9c0.3-0.1,0.6-0.3,1-0.3c0.1,0,0.3,0.2,0.6,0.4c-0.3,0.1-0.6,0.3-0.9,0.3C227.9,184.3,227.7,184.1,227.5,183.9z
		"/>
	<path d="M314.5,132.7c-0.1,0.1-0.2,0.4-0.3,0.4c-0.2,0-0.4-0.2-0.6-0.3c0.1-0.1,0.2-0.2,0.3-0.2C314,132.6,314.2,132.7,314.5,132.7
		z"/>
	<path d="M291.4,163.8c-0.1,0.1-0.3,0.3-0.4,0.3c-0.2,0-0.3-0.2-0.4-0.3c0.1-0.1,0.2-0.2,0.2-0.2C291,163.6,291.2,163.7,291.4,163.8
		z"/>
	<path d="M275.7,150.7c0.1,0.1,0.2,0.2,0.2,0.2c-0.1,0.2-0.2,0.4-0.3,0.5c-0.1-0.2-0.1-0.4-0.2-0.6
		C275.5,150.9,275.6,150.8,275.7,150.7z"/>
	<path d="M279.7,148.4c0.1-0.2,0.2-0.4,0.4-0.5c0.1-0.1,0.4,0.1,0.6,0.1c-0.1,0.1-0.2,0.3-0.4,0.3
		C280,148.3,279.8,148.3,279.7,148.4L279.7,148.4z"/>
	<path d="M245,195.4c0,0.1-0.1,0.2-0.1,0.2c-0.1-0.1-0.2-0.2-0.3-0.3c0.1-0.1,0.2-0.2,0.2-0.2C244.9,195.2,245,195.3,245,195.4z"/>
	<path d="M279.6,148.3c-0.1,0.1-0.1,0.2-0.2,0.4c0-0.1,0-0.1,0-0.2C279.5,148.4,279.6,148.4,279.6,148.3L279.6,148.3z"/>
	<path d="M335,84.4c0.4-1.2,1-1.5,1.8-1.4c4.3,1.1,8.5,2.3,12.1,5c1.7,1.3,3.2,2.9,3.9,5c0.1,0.4,0,0.8-0.1,1.6
		c-0.6-0.5-1-0.7-1.3-1c-3-3.4-6.7-5.6-11-7c-1.4-0.4-2.7-0.9-4-1.4C335.8,85.1,335.5,84.8,335,84.4z"/>
	<path d="M349.1,108.7c0.6-1.9,1.2-3.1,2-4.1c0.8,0,1,0.5,0.8,0.9C351.4,106.6,351,108,349.1,108.7z"/>
	<path d="M352.5,99.5c-1.5-1.3-0.8-2.8-1.2-4.4C353.2,96,353.3,96.5,352.5,99.5z"/>
	<path d="M359.6,153.2c-1.8,0-2.8,0-3.9,0C357.1,152.7,357.1,152.7,359.6,153.2z"/>
	<path d="M367.2,153.7c0-0.1,0.1-0.1,0.1-0.1c0.1,0,0.2,0,0.3,0.1c0,0.1-0.1,0.2-0.1,0.2C367.4,153.8,367.3,153.8,367.2,153.7z"/>
	<path d="M400.4,104.5c-0.3-0.1-0.7,0-1-0.2c-2.8-2-4.7-4.7-6.2-7.7c-0.2-0.3,0.1-0.8,0.1-1.4c0.5,0.3,0.9,0.4,1.1,0.7
		c1.9,2.6,3.8,5.1,5.7,7.7C400.3,103.8,400.3,104.2,400.4,104.5L400.4,104.5z"/>
	<path d="M385.9,116.6c0.5,2.2-0.1,3.2-2.4,4.9c0-0.2-0.2-0.5-0.1-0.6C384.1,119.5,384.5,118,385.9,116.6z"/>
	<path d="M434.8,112.6c1-1.4,2.2-2.3,4.1-2.1C437.4,112.6,437.1,112.8,434.8,112.6z"/>
	<path d="M396.9,125.7c0.4-1.5,1-2.7,1.7-3.7c0.8,0.1,1,0.6,0.9,1C399.2,124.3,399,124.5,396.9,125.7z"/>
	<path d="M408.3,110.9c1.8-0.5,2-0.5,3.5,1.3C410.3,112.4,409.3,111.9,408.3,110.9z"/>
	<path d="M393.7,130.6c0.4-0.6,0.8-1.1,1.3-1.7C395.5,130.6,395.3,130.8,393.7,130.6z"/>
	<path d="M391.1,134.8c0.8-1.1,1.2-1.6,1.7-2.2C393.4,133.9,393,134.3,391.1,134.8z"/>
	<path d="M431,113.3c0.1,1.2,0.1,1.2-1.6,1C430,113.9,430.5,113.6,431,113.3z"/>
	<path d="M417.2,113.7c-0.1-0.1-0.2-0.1-0.3-0.2c0.2-0.1,0.3-0.2,0.5-0.2c0.1,0,0.2,0.1,0.3,0.1
		C417.5,113.6,417.3,113.7,417.2,113.7z"/>
	<path d="M419.6,115.5c0.1,0,0.2-0.1,0.3-0.1c0,0.1,0.1,0.2,0.1,0.3c-0.1,0-0.2,0-0.3-0.1C419.7,115.7,419.7,115.6,419.6,115.5z"/>
	<path d="M400.3,104.6c0.1,0.1,0.2,0.1,0.3,0.2c-0.1,0-0.2,0-0.2,0C400.4,104.7,400.4,104.6,400.3,104.6L400.3,104.6z"/>
	<path d="M235.8,141.9c0.9-1.2,1.8-2.4,2.7-3.7c-0.4-0.2-0.9-0.5-1-0.4c-1.7,1.3-3.2,0.9-5,0c-2-1-3.8-2.3-5.6-3.9
		c0.5-1.1,0.7-2.2,1.3-3c1.5-1.7,1.7-3.6,1.2-5.7c-0.1-0.3,0-0.7,0-1c1.3,0.1,1.3,0.1,2.4,1.1c-0.4,1.7-0.8,3.4-1.1,5.1l0.1-0.1
		c-1.1,0.4-1.5,1.2-1.5,2.3l0.1-0.1c-0.9,1.1-0.9,1.1,0.8,1.6l-0.1-0.1c0.3,0.7,1,0.7,1.6,0.8l-0.1-0.1c0.5,0.3,1,0.5,1.6,0.8
		l-0.1-0.1c0.7,1,1.6,1.3,2.8,1.1c1.1-0.2,2-0.7,2.4-1.9l-0.1,0.1c0.3-0.3,0.6-0.6,0.9-0.8l-0.1,0.1c0.5-0.4,1.1-0.9,1.6-1.4
		c1.2-1.2,2.5-2.2,4.2-2.5c0.4-0.1,0.8-0.4,1.3-0.8c-1.1-0.6-2-1-3.2-1.7c0.6-0.4,0.9-0.8,1.3-0.9c1.9-0.2,3.2,0.7,3.9,2.4
		c-0.3,1.6-1.7,2.2-2.8,2.6c-2.6,0.7-3.7,2.7-5.5,4.8c1.2,0.2,2,0.4,3,0.6c-0.2,0.3-0.3,0.7-0.6,0.8c-1.5,0.3-2.6,1-3.5,2.2
		C237.7,141,237,141.9,235.8,141.9C235.8,141.8,235.8,141.9,235.8,141.9z"/>
	<path d="M230.7,130.4c0.9-0.8,1.9-1.7,3-2.7c0.9,0.3,1.8,0.7,2.8,1.1c0.6-0.4,1.3-0.9,2-1.4c0.9,0.7,1.7,1.4,2.7,2.1
		c-1,1.4-2.4,2.6-2.5,4.5l0.1-0.1c-0.3,0.3-0.6,0.6-0.9,0.8l0.1-0.1c-1.7,0.6-3.3,1.1-5.1,0.7l0.1,0.1c-0.5-0.3-1-0.5-1.6-0.8
		l0.1,0.1c-0.5-0.3-1-0.5-1.6-0.8l0.1,0.1c-0.3-0.5-0.5-1-0.8-1.6l-0.1,0.1c0.8-0.6,1.5-1.2,1.5-2.3L230.7,130.4z M233.6,132.5
		c-0.6-0.2-1.2-0.3-2.3-0.6c1.1,1.7,2.4,2.1,3.5,2.6c2.2-1.1,2.2-1.1,3.2-3.2c0.1-0.2,0-0.4,0-0.7c-0.5,0.1-1.1,0.2-1.8,0.4
		c-0.7-0.6-1.5-1.3-2.2-2c-0.9,0.6-1.4,1.2-0.8,2.2C233.4,131.7,233.4,132.1,233.6,132.5L233.6,132.5z"/>
	<path d="M223.6,99.4c0.2,0.7,0.4,1.3,0.6,2c0,0.1-0.1,0.2-0.2,0.4c-3.4-2.6-5.9-5.8-7.1-10c1.4-0.3,1.8,1.2,3,1.9
		c1.7-0.3,3.5,1.2,5.7,0.3c0.4,1.9-0.5,3.5-1.1,5.1C224.4,99.3,223.9,99.4,223.6,99.4c-0.1-0.6-0.1-1.2-0.1-2
		c-0.7,0.1-1.2,0.1-1.8,0.1C222.1,98.6,222.5,99.5,223.6,99.4z"/>
	<path d="M217.1,125.4c-0.4-0.5-0.7-1.1-1.3-1.8c0.1-0.2,0.4-0.5,0.8-0.8c-0.3-0.5-0.5-1.1-0.8-1.7l-0.1,0.1c0.4,0.2,1,0.2,1.2,0.5
		c1.2,1.6,2.4,3.2,3.5,4.9c0.3,0.4,0.4,0.9,0.4,1.4c0.1,4.5,0.4,9-0.1,13.6c-0.2,1.4-0.5,2.8-1.3,4.1c0-0.6-0.1-1.2-0.1-1.8
		c0.2-1.9,0.5-3.8,0.5-5.7c0.1-4-0.7-7.8-2.9-11.2C216.5,126.3,216.7,125.8,217.1,125.4c1.6,2.2,1.6,2.2,2.9,2.8
		C219.5,126.6,218.7,125.5,217.1,125.4z"/>
	<path d="M257.5,107.8c0.3,0.2,0.4,0.2,0.4,0.3c0.5,3.2-0.1,6.2-1.6,9c-1.9,3.6-4.9,5.6-9.1,5.9c-0.1-0.8,0.4-0.9,0.8-1
		c4.7-1.7,7.5-5,8.3-9.8c0.2-1.1,0.3-2.1,0.5-3.2C257,108.6,257.3,108.2,257.5,107.8z"/>
	<path d="M209.9,121c0-0.8,0.5-1.2,1-0.7c1.4,1.2,2.9,2.4,3.4,4.3l-0.2,0.2c-0.4-0.2-0.9-0.3-1.4-0.5c-0.5,2.3-0.4,4.8-1.3,7.3
		c-0.3-0.4-0.5-0.6-0.5-0.8c0-0.8-0.1-1.7,0-2.5c0.2-2.6,0-5-2.7-6.8C209.1,121.1,209.5,121,209.9,121l0.2,0.2L209.9,121z"/>
	<path d="M195.5,110.2c0.6-0.4,1.3-0.9,2-1.3c0,1.3-0.7,2.6-3,5.3c-0.5-3.6-1-7,0.9-10.7c1.1,1.7,1.4,2.8,1,4.1
		C196,108.4,195.8,109.3,195.5,110.2l-0.1,0.3L195.5,110.2z"/>
	<path d="M212.1,91.4c0.3,3.7,2.6,6.8,2.8,11.2c-2.1-2.3-2.7-4.5-3.4-6.5C210.9,94.7,211.3,93.1,212.1,91.4z"/>
	<path d="M198.8,138.8c1.7,2,2.4,4.5,3.7,6.7c1.3,2.2,2.7,4.4,4.1,6.7c-0.5,0.6-0.9,0.2-1.2-0.2c-1.2-1.6-2.5-3.2-3.5-5
		C200.5,144.5,199.3,141.8,198.8,138.8z"/>
	<path d="M201.2,113.8c-0.8,4.5-1.6,9.1-2.5,14.4c-0.6-3.2,0-5.5,0.2-7.9C199.2,118,199.3,115.7,201.2,113.8z"/>
	<path d="M202.7,126.7c0.1-2.1,0.2-4.2,0.3-6.4c2.3,2.5,2.3,2.5,1.6,7.2C204,127.3,203.6,126.2,202.7,126.7L202.7,126.7z"/>
	<path d="M224.2,122.2c1.1-0.8,1.7,0,2.3,0.5c1.7,1.7,2.2,3.3,1.8,6.4c-1.2-1.1-1-2.7-1.9-3.8C225.7,124.4,225,123.3,224.2,122.2z"
		/>
	<path d="M253,122.9c0.6-1.5,1.9-1.9,3-2.4c1.5-0.7,3-1.6,5-0.7c-2.3,1.5-4.7,2.2-6.9,3.2C253.9,123.2,253.5,123,253,122.9z"/>
	<path d="M220,124c0.9-1,1.4-0.5,1.9-0.1c2.4,1.8,3.3,3.1,4,6c-1,0.2-0.9-0.8-1.4-1.2c-0.5-0.5-0.8-1.1-1.3-1.7
		c-0.5-0.5-1-1-1.5-1.5C221.2,125,220.7,124.6,220,124z"/>
	<path d="M245.8,142.6c-0.1-0.3-0.5-0.8-0.4-0.9c2-2.3,4-4.6,6.1-6.8c0.2-0.2,0.6,0,1.1,0c-2,2.4-3.8,4.8-6.3,6.6
		C246,141.7,245.9,142.3,245.8,142.6L245.8,142.6z"/>
	<path d="M207.7,123.9c-0.9-1.2-2.1-2.1-2.8-3.8C207.2,121.6,207.2,121.6,207.7,123.9L207.7,123.9z"/>
	<path d="M197.7,112.4c-0.1,1.6-0.5,3-1.4,4.3l0.1,0.1c0.1-1.1,0.1-2.1,0.3-3.2C196.7,113,197,112.4,197.7,112.4L197.7,112.4z"/>
	<path d="M214.3,131.6c0.1-1.1,0.1-2.1,0.2-3.2c0.1,0,0.2,0,0.3,0c0,1.1,0,2.2,0,3.4C214.6,131.7,214.4,131.6,214.3,131.6z"/>
	<path d="M210.7,155.5c-0.9-0.7-1.2-1.7-1.2-2.9C210.5,153.4,210.6,154.5,210.7,155.5L210.7,155.5z"/>
	<path d="M215.7,121c-0.8-0.3-1.7-0.6-2.7-1C214.3,119.7,214.3,119.7,215.7,121L215.7,121z"/>
	<path d="M208.9,119.4c-0.1,0.1-0.2,0.2-0.2,0.2c-0.2-0.2-0.4-0.5-0.6-0.7c0,0,0.1-0.1,0.2-0.2C208.5,119,208.7,119.2,208.9,119.4z"
		/>
	<path d="M266.9,116.9c0.3-0.2,0.5-0.4,0.8-0.5c0.1-0.1,0.4,0.1,0.6,0.2c0,0.1-0.1,0.3-0.2,0.3c-0.3,0.2-0.7,0.3-1.1,0.5
		C267,117.2,267,117,266.9,116.9z"/>
	<path d="M202.6,126.7c0,0.5,0,1,0,1.9C202,127.6,202.4,127.2,202.6,126.7L202.6,126.7z"/>
	<path d="M194.2,137.5c-0.8-0.2-0.6-0.8-0.7-1.4l-0.1,0.1C193.7,136.6,193.9,137.1,194.2,137.5L194.2,137.5z"/>
	<path d="M194.1,137.5c0.6,0.4,0.8,0.9,0.6,1.5l0.1-0.1C194.1,138.7,194.1,138.1,194.1,137.5L194.1,137.5z"/>
	<polygon points="188.6,126 188.8,126 188.7,126.3 	"/>
	<path d="M210.6,155.6c0.1,0,0.2,0.1,0.3,0.1C210.8,155.6,210.7,155.5,210.6,155.6L210.6,155.6z"/>
	<polygon points="196.2,116.6 196.1,116.8 196.3,116.7 	"/>
	<path d="M277.1,114.7c0.1,0.1,0.2,0.2,0.2,0.2c-0.1,0.1-0.2,0.2-0.3,0.2c-0.1,0-0.2-0.1-0.2-0.2C277,114.8,277.1,114.7,277.1,114.7
		z"/>
	<polygon points="207.6,124 207.8,124 207.7,123.9 	"/>
	<path d="M214.3,124.5c0.5,0.1,0.7,0.3,0.6,0.8l0.1-0.1c-0.5,0.1-0.8-0.1-0.8-0.6L214.3,124.5z"/>
	<path d="M214.9,125.4c0.1,0.1,0.3,0.2,0.4,0.3c-0.1,0-0.2,0-0.2,0C215,125.5,215,125.4,214.9,125.4L214.9,125.4z"/>
	<polygon points="193.5,136.1 193.3,136 193.4,136.1 	"/>
	<path d="M235.1,142.6c0-0.5,0.2-0.7,0.7-0.7c0,0-0.1-0.1-0.1-0.1C235.8,142.3,235.5,142.5,235.1,142.6L235.1,142.6z"/>
	<path d="M235.1,142.5c-0.1,0.1-0.1,0.2-0.2,0.3C235,142.8,235.1,142.7,235.1,142.5L235.1,142.5z"/>
	<path d="M197.7,112.4c0.1-0.1,0.2-0.2,0.2-0.3c0,0.1,0,0.2,0,0.2C197.9,112.4,197.8,112.4,197.7,112.4L197.7,112.4z"/>
	<path d="M301,190.5c-0.5,0.3-0.9,0.8-1.4,0.9c-1.7,0.4-3.5,0.7-5.3,1c-1.4,0.3-2.7,0.6-3.7,1.9c-0.6,0.8-1.8,1.1-2.6,1.5
		c-0.7-0.5-0.6-1-0.3-1.3c1.7-1.8,3.4-3.6,6.1-4c1.6-0.2,3.2-0.7,4.9-1.1C299.6,189.3,299.7,189.3,301,190.5z"/>
	<path d="M306.3,191.1c0.7-1.2,1.6-1,2.4-1c3.9,0.2,7.4,1.6,10.8,3.5c0.4,0.2,0.8,0.6,1,0.9c0.1,0.2,0,0.6,0,1.2
		c-2.6-0.7-4.8-2-7.1-2.7C311.2,192.4,308.9,191.8,306.3,191.1z"/>
	<path d="M333.3,209.7c-1.4-2.4-2.2-4.1-3.3-5.6c-1-1.5-2.2-2.8-3.4-4.1c-1.3-1.4-2.8-2.6-4.2-3.8c0.7-0.7,1.2-0.3,1.7,0
		c3.3,1.9,5.7,4.7,7.6,7.9C333.2,206.4,333.4,206.9,333.3,209.7z"/>
	<path d="M303.1,244.3c-1.2,0.7-2.3,0.7-3.6-0.2c0.3-1.4,1.2-2.3,1.8-3.3C302.5,241.4,302.5,241.4,303.1,244.3z"/>
	<path d="M325.9,209.2c0.3,0.2,0.6,0.4,0.9,0.6c0.3,0.2,0.5,0.5,0.7,0.8c0.4-0.2,0.7-0.3,1-0.4c0.5-0.2,0.9,0,1.2,0.4
		c0.3,0.5,0.1,1.3-0.3,1.5c-0.9,0.5-1.8,0.4-2.6-0.2C325.8,211.3,325.3,210.5,325.9,209.2z"/>
	<path d="M281.7,199.5c-1.1,2.4-1.1,2.4-4.2,4.5c0.1-0.7,0.1-1.1,0.3-1.5C278.9,200.8,279.3,200.6,281.7,199.5z"/>
	<path d="M325.6,228.5c1,0.6,1.6,0.8,2.1,1.3c0.4,0.4,0.6,1.1,0.1,1.5c-0.4,0.3-1,0.3-1.7,0.4C325.9,230.7,325.8,229.8,325.6,228.5z
		"/>
	<path d="M321.5,217.2c0.5,1.9,0.5,1.9-0.5,3.3C320.7,219.3,320.5,218.3,321.5,217.2z"/>
	<path d="M274.1,212.2c0.8,1.7-0.5,2.7-0.6,3.9C272.8,214.6,273.2,213.5,274.1,212.2z"/>
	<path d="M276,208.3c0.4,0.9-0.3,1.2-1,1.5C274.6,208.8,275.2,208.5,276,208.3z"/>
	<path d="M285.1,228.8c-0.2,0.1-0.4,0.2-0.5,0.2c-0.1-0.1-0.2-0.3-0.3-0.5c0.2-0.1,0.4-0.2,0.6-0.2C285,228.3,285,228.6,285.1,228.8
		z"/>
	<path d="M289.7,216.7c0.1,0.2,0.3,0.5,0.3,0.5c-0.2,0.2-0.5,0.4-0.7,0.6c0-0.3-0.1-0.6-0.1-0.9
		C289.1,216.9,289.5,216.8,289.7,216.7z"/>
	<path d="M302.9,224.4c-0.5,0.2-0.8,0.5-1,0.4c-0.2-0.1-0.3-0.5-0.5-0.8c0.2-0.1,0.4-0.3,0.6-0.3
		C302.3,223.9,302.5,224.1,302.9,224.4z"/>
	<path d="M316.6,199c0.1,0.2,0.2,0.4,0.2,0.6c0,0.1-0.2,0.2-0.2,0.2c-0.1,0-0.2-0.2-0.2-0.2C316.4,199.4,316.5,199.2,316.6,199z"/>
	<path d="M634.3,17.3c-1.4,0.9-2.2,0.3-3.1-0.2C632.2,16.2,632.2,16.2,634.3,17.3z"/>
	<path d="M639.9,19.4c0.1-0.1,0.3-0.4,0.4-0.3c0.2,0,0.3,0.2,0.5,0.3c-0.1,0.1-0.2,0.2-0.3,0.2C640.3,19.6,640.1,19.5,639.9,19.4z"
		/>
	<path d="M611.5,164c0.2,3.4-0.4,6.1-1.6,8.6c-1-0.2-1.1-0.8-1-1.4C609,168.6,609.9,165.9,611.5,164z"/>
	<path d="M612.7,148.9c1.4,1.1,0.8,1.8,0.8,2.6c-0.4-0.1-0.7-0.2-0.8-0.2C612.7,150.6,612.7,150,612.7,148.9z"/>
	<path d="M612.7,155.8c0.5,0.8,0.6,1.5-0.2,2.2C611.5,156.8,611.5,156.8,612.7,155.8z"/>
	<path d="M613.5,145.3c-1.3-0.7-1.2-1.3-0.8-2c0.1-0.2,0.4-0.3,0.6-0.2c0.2,0,0.4,0.3,0.4,0.4C613.7,144,613.6,144.5,613.5,145.3z"
		/>
	<path d="M523.1,489.6c-0.3,0.6-0.4,1.4-0.9,1.9c-4,4.7-8.4,8.8-13.6,12.2c-4.2,2.8-9.1,4.2-13.9,5.4c-1.3,0.3-2.5,0.5-3.9,0.4
		c0.8-0.3,1.7-0.7,2.5-1c2.6-0.9,5.2-1.6,7.8-2.5c3.9-1.3,7.5-3.3,10.6-5.9C515.7,496.7,519.4,493.2,523.1,489.6L523.1,489.6z"/>
	<path d="M622.7,399.8c0.4,0.3,0.9,0.4,1,0.6c0.8,4.2,1.8,8.4,1.5,12.7c0,0.6,0,1.2-1,1.5c-0.7-4.3-1.4-8.6-1.8-12.9
		C622.3,401.1,622.6,400.5,622.7,399.8z"/>
	<path d="M472.9,468.8c0-1.2,0-2.4,0-3.7c-0.4,0-0.8,0-1.2-0.1c-0.3-2.3,0.5-4.4,1.4-6.5c0.3-0.7,0.8-1.5,1.8-1.8
		c0.1,0.5,0.4,1,0.3,1.3c-0.7,3.5-1.4,6.9-2.1,10.4C473.1,468.6,472.9,468.7,472.9,468.8L472.9,468.8z"/>
	<path d="M628.9,529.2c-0.7-2.4-1.8-4.8-1-7.7c2.1,1.6,1.3,4.2,2.6,5.9c0.9,1,3,0.9,3.2,2.9c-2,1-3.4-0.7-5-1.2L628.9,529.2z"/>
	<path d="M478.3,472.7c-0.6-0.7-0.9-0.8-0.9-1c-0.3-2.2-0.6-4.5-0.7-6.7c-0.1-1.5-0.1-3.1,0.8-4.5c0.5-0.8,0.5-1.7,0.9-3
		c0.1,1.1,0.2,1.8,0.3,2.6c0.6,0.2,1.2,0.3,2.3,0.6c-1.1,0.6-1.8,1-2.6,1.4C477.3,465.3,478.7,468.8,478.3,472.7z"/>
	<path d="M488,473.4c-2.1-3-2.9-6.3-4-9.4c0.8-0.6,1,0,1.2,0.3c1,2.6,1.9,5.1,2.8,7.7C488,472.4,488,472.9,488,473.4z"/>
	<path d="M619.2,363c1.1,0.1,1.6,0,1.9,0.2c1.4,1,2.8,2,3.4,4c-0.5,0-0.9,0.2-1.1,0.1C622.1,366.3,620.8,365.1,619.2,363z"/>
	<path d="M465.8,509.9c0.2,0.4,0.7,1,0.6,1.2c-1,1.9-0.5,3.9-1,6.7c-0.1-2.9-0.2-5-0.1-7.1C465.2,510.5,465.6,510.2,465.8,509.9
		L465.8,509.9z"/>
	<path d="M470.1,512c2.1,0,4.3,0.2,6.4-0.3c0.1,0,0.4,0.5,0.7,1c-2.4,0-4.5,0.2-6.6-0.3C470.5,512.4,470.3,512.1,470.1,512
		L470.1,512z"/>
	<path d="M627.9,517.5c-0.4-2.1-0.3-4.2-0.1-6.3C628.3,513.3,628.1,515.3,627.9,517.5z"/>
	<path d="M596.2,364.3c1.3-1,2.3-0.7,3.6,0.3C598.4,364.4,597.3,364.3,596.2,364.3z"/>
	<path d="M478.2,511.7c0.9,1.6,0.9,1.6,0.1,4.8C478.1,514.7,478,513.4,478.2,511.7z"/>
	<path d="M465.9,510c0-1.5,0.1-3,0.1-4.4C466.2,507,466.6,508.5,465.9,510L465.9,510z"/>
	<path d="M627.4,372.1c0.2,0.9,0.5,1.7,0.7,2.5c-0.2,0.2-0.4,0.3-0.4,0.3C627.1,374.2,626.8,373.3,627.4,372.1z"/>
	<path d="M624.1,424.4c0-0.9,0-1.8,0-2.7C624.9,421.9,625,422.3,624.1,424.4z"/>
	<path d="M609.2,397.8c0.3-0.6,0.6-1.2,1-1.7c0.1-0.1,0.4-0.2,0.6-0.2c0.1,0.2,0.3,0.5,0.2,0.6c-0.3,0.6-0.7,1.1-1.1,1.7
		C609.6,398.1,609.4,398,609.2,397.8z"/>
	<path d="M624.1,442c-0.5,0.4-0.8,0.7-1.1,0.9c-0.2-0.4-0.4-0.7-0.5-1.1c0-0.2,0.3-0.5,0.5-0.7C623.3,441.3,623.6,441.6,624.1,442z"
		/>
	<path d="M472.8,468.7c0,0.9,0,1.9,0,2.8C472.3,470.6,472.3,469.7,472.8,468.7L472.8,468.7z"/>
	<path d="M452.8,508.4c-0.8,0-1.5-0.2-1.9-1.1C451.9,507.3,452.5,507.6,452.8,508.4L452.8,508.4z"/>
	<path d="M470.2,511.9c-0.8,0-1.6,0-3.2,0C468.6,511.2,469.4,511.4,470.2,511.9L470.2,511.9z"/>
	<path d="M616.7,391.4c-0.2,0.1-0.5,0.2-0.8,0.3c0-0.2-0.2-0.4-0.1-0.5c0.2-0.2,0.5-0.3,0.7-0.5
		C616.5,390.9,616.6,391.1,616.7,391.4z"/>
	<path d="M623.4,434.9c0.1,0,0.2,0,0.2,0c0,0.1,0.1,0.2,0,0.3c0,0.1-0.1,0.2-0.2,0.2C623.5,435.3,623.4,435.1,623.4,434.9z"/>
	<path d="M466.9,503.5c-0.1,0-0.1,0.1-0.2,0.1c0-0.1,0.1-0.3,0.1-0.4C466.9,503.3,466.9,503.4,466.9,503.5z"/>
	<path d="M452.7,508.5c0.3,0.1,0.6,0.1,0.3,0.1C453.3,508.7,453,508.5,452.7,508.5L452.7,508.5z"/>
	<path d="M523.2,489.7c0.2-0.2,0.5-0.5,0.7-0.7l-0.1-0.1C523.6,489.2,523.4,489.4,523.2,489.7L523.2,489.7z"/>
	<path d="M524.6,488.2c-0.2,0.2-0.5,0.5-0.8,0.7l0.1,0.1C524.2,488.8,524.4,488.5,524.6,488.2L524.6,488.2z"/>
	<path d="M525.3,487.5c-0.2,0.2-0.5,0.5-0.7,0.7l0.1,0.1C524.9,488.1,525.2,487.9,525.3,487.5L525.3,487.5z"/>
	<path d="M526.2,486.9c-0.3,0.2-0.6,0.4-0.9,0.6l0.1,0.1C525.7,487.4,526,487.2,526.2,486.9L526.2,486.9z"/>
	<polygon points="526.2,487 526.3,486.8 526.2,486.9 	"/>
	<path d="M329.1,317.9c0.3,0.5,0.5,1.1,0.8,1.6c1.6,2.1,3.4,4.1,2.9,7c1.8,0.1,1.5-1.8,2.7-2c0.7,0.1,0.8,0.7,0.7,1.3
		c-0.2,1.1-0.8,2-1.7,2.6c-0.9,0.6-2,0.4-2.5-0.5c-0.4-0.9-0.9-1.8-1-2.7c-0.2-2.6-2.1-3.8-3.7-5.6c-0.4,1-0.7,1.7-1.2,3
		c-0.4-1.5-0.6-2.5-1-3.4c-0.5-1-1.3-1.7-1.8-2.7c-0.5-0.9-0.8-2-1.2-2.9l-0.1,0c1.3,1.6,2.5,3.1,3.8,4.7c0.7-0.1,0.9-0.6,0.7-1
		c-0.8-1.7-0.2-2.9,0.8-4.3c1.3-1.9,3-3.3,4.5-5c1.4,0.2,2.4,1,3.2,1.9c1.4,1.6,3.2,2,5.1,2c0.3,0,0.7,0,1,0.1
		c0.4,1.3-0.7,1.6-1.2,2.3c-1.8-0.7-3.4-1.4-5-2.1l0.1,0.1c0-0.5-0.3-0.8-0.8-0.8l0.1,0.1c0-0.6-0.3-0.8-0.8-0.8l0.1,0.1
		c-1.1-1.3-1.4-1.3-2.1,0.1c-0.1,0.2-0.1,0.4-0.2,0.7l0.1-0.1c-0.3,0.3-0.6,0.5-0.8,0.8l0.1-0.1c-0.3,0.3-0.5,0.5-0.8,0.8l0.1-0.1
		c-0.3,0.5-0.5,1.1-0.8,1.6l0.1-0.2c-1.3,1.4-1.3,2.1,0,3.7L329.1,317.9z"/>
	<path d="M342.1,299.9c0.6-0.3,1.2-0.6,1.8-1c0.5,0.3,1.2,0.7,1.8,1.1l-0.1-0.1c-0.1,0.2-0.1,0.5-0.3,0.6c-0.1,0.2-0.4,0.3-0.6,0.4
		c-4.6,2.3-4.6,2.4-9.9,1.6c-2.9-0.5-5.9-1.1-8.8-1.8c-1.8-0.4-3.6-1.1-5-2.6c1.2,0.4,2.4,0.7,3.7,1.1c2.9,0.9,5.8,1.6,8.8,1.5
		c2.3,0,4.6-0.1,6.7-1.1C341.1,299.2,341.7,299.3,342.1,299.9c-0.2,0.3-0.4,0.6-0.7,0.8c-1-0.2-1.8,0.2-2.6,1.1
		c1.3,0.4,2.1-0.1,2.5-1.2C341.6,300.4,341.9,300.2,342.1,299.9z"/>
	<path d="M334.9,312.1c0.7,1.1,1.4,2.2,2.2,3.4c-0.5,0.8-1.1,1.7-1.6,2.6c1.4,2.1,1.4,2.1-1.4,4.1c-0.8-0.8-1.6-1.6-2.5-2.3
		c-0.8-0.7-1.6-1.4-2.4-2.1l0.1,0.1c0-1.2,0-2.5,0-3.7l-0.1,0.2c0.3-0.5,0.5-1.1,0.8-1.6l-0.1,0.1c0.3-0.3,0.5-0.5,0.8-0.8l-0.1,0.1
		c0.3-0.3,0.6-0.5,0.8-0.8l-0.1,0.1c0.6-0.6,1.4-0.9,2.3-0.7l-0.1-0.1c0,0.5,0.3,0.8,0.8,0.8l-0.1-0.1c0,0.5,0.3,0.8,0.8,0.8
		L334.9,312.1z M333.1,319.3c0.5-2,0.5-2,2.4-3.8c-0.6-2.1-2.2-0.4-3.2-0.8c0.3-0.6,0.6-1.1,1-1.7c-1.3-0.3-1.6,0.7-2.1,1.3
		c-1.1,1.2-1.1,2.3,0,3.5C331.7,318.4,332.4,318.8,333.1,319.3z"/>
	<path d="M374.5,305.7c0.1,1.4-1.5,1.3-2.1,2.5c0.3,1.7-2,3.1-0.8,5.6c-2.4-0.7-4.4-1.3-5.7-3.1c0.7,0.1,1.4,0.1,2.2,0.2
		c0.2-0.5,0.4-1,0.5-1.4c0-0.1-0.1-0.2-0.3-0.4c-1,0.3-2,0.5-2.3,1.7c-0.6,0-1.1,0-2.1,0C367.1,307.8,370.3,305.6,374.5,305.7
		L374.5,305.7z"/>
	<path d="M352.5,342c-0.3,0.2-0.4,0.4-0.5,0.4c-4.9-0.4-9-2.1-11.5-6.6c-1-1.8-1.6-3.7-1-6.2c0.5,1.3,0.8,2.2,1.1,3.2
		c1.2,3.4,3.5,5.9,6.9,7.3c1.1,0.4,2.3,0.8,3.4,1.2C351.5,341.3,352,341.7,352.5,342z"/>
	<path d="M326,326c-2-0.8-2.8-1.7-3.5-2.6c-2.5-3.3-5.4-6.3-8.3-9.3c-1-1-1.8-2.2-2.7-3.4c-0.2-0.2-0.1-0.6-0.2-1.2
		c0.5,0.3,0.8,0.4,0.9,0.6c1.8,2,3.3,4.4,5.8,5.7c0.3,0.2,0.5,0.5,0.7,0.8C321,319.5,323.3,322.4,326,326z"/>
	<path d="M348.6,293.5c-0.1,0.6-0.1,1.2-0.7,1.5c-1.8,1.1-3.6,2.2-5.5,3.4c-0.4-1.5,1.3-1.5,1.5-2.4c-0.1-0.1-0.2-0.4-0.4-0.4
		c-2.2-0.7-4.5-1.3-6.5-2.7c1.3,0.2,2.5,0.4,3.8,0.6c2.4,0.4,4.8,1,6.4-1.4C347.9,292.8,348.3,293.2,348.6,293.5L348.6,293.5z"/>
	<path d="M360.2,281.3c0.5,0.8,0.9,1.5,1.4,2.4c-0.4,0.1-0.7,0.2-0.8,0.1c-1.3-1.2-2.6-2.3-4.1-3.7c3-0.5,5.5,0.2,8,0.9
		c0.8,0.2,1.6,0.6,1.8,1.8c-1.2,0.5-2.3,0.6-3.6,0C362.1,282.2,361.1,281.8,360.2,281.3l-0.2-0.1L360.2,281.3z"/>
	<path d="M332.1,280.2c-2,0.6-3.6,1.1-5.1,1.6c-1.5,0.5-3,0.9-4.4,1.5c-1.5,0.6-3,1.3-4.9,2.1c0.7-1.8,1.9-2.1,2.8-2.5
		C324.2,281,328.9,279.9,332.1,280.2z"/>
	<path d="M342.2,281.3c1.4,0.2,2.8,0.4,4.2,0.7c3,0.8,6,1.4,8.7,2.9c0.4,0.2,0.7,0.6,1.1,0.9c0,0,0,0.2,0,0.3c-0.3,0-0.7,0.1-1,0
		c-4.1-1.5-8.3-2.9-12.4-4.4C342.6,281.6,342.4,281.4,342.2,281.3L342.2,281.3z"/>
	<path d="M376.3,300.3c-0.3,0.4-0.5,0.7-0.6,0.7c-2.3-0.3-4.5,0.3-6.7,0.6c-1.1,0.1-2.3,0.5-3.6-0.5
		C368.9,299.6,372.3,298.6,376.3,300.3z"/>
	<path d="M342.2,287.1c0.5-0.1,1-0.2,1.5-0.3c-0.3-0.5-0.5-0.8-0.8-1.2l-0.1,0.1c2.2,0.5,4.4,1,6.7,1.5c-2.4,1.9-4.7,1.4-7,0.3
		C342.4,287.5,342.3,287.2,342.2,287.1L342.2,287.1z"/>
	<path d="M344.5,306.8c-0.6,2.6-2.1,3.2-3.5,3.6c-1.4,0.4-2.9,0.8-4.6-0.8C339.4,309.6,341.8,308.6,344.5,306.8z"/>
	<path d="M304.6,342.2c0.6,0.6,1.1,0.9,1.2,1.2c0.5,1.9,0.3,3.7-0.7,5.5c-0.4-0.3-0.8-0.5-0.8-0.7
		C303.9,346.4,303.5,344.6,304.6,342.2z"/>
	<path d="M343,303.1c0.2,0.3,0.5,0.6,0.4,0.7c-1.1,2.3-4.3,4-7.5,3.8c1.4-0.8,2.7-1.4,3.9-2.1C340.9,304.7,342,303.8,343,303.1z"/>
	<path d="M311.9,391.5c-2.4-0.5-3.1-2.4-4.1-4.1c-0.4-0.7-0.7-1.5,0.1-2.5C309.3,387.1,310.6,389.3,311.9,391.5z"/>
	<path d="M322.7,326.6c1.6,1.4,3.8,3.9,4.3,5c0.1,0.3-0.1,0.7-0.2,0.9c-0.8-0.9-1.6-1.7-2.4-2.6C323.7,328.9,322.6,328,322.7,326.6
		L322.7,326.6z"/>
	<path d="M339.4,391.9c-0.3-0.3-0.6-0.5-0.6-0.6c0.3-1.4,1.2-2.4,2.5-3.3C341.2,389.5,341.2,389.5,339.4,391.9z"/>
	<path d="M320.8,325.3c-2.6-0.4-3.5-1.7-4.3-3c0.2-0.2,0.2-0.4,0.3-0.4c0.1,0,0.2,0,0.3,0.1C318.1,322.9,319.1,323.8,320.8,325.3z"
		/>
	<path d="M354.4,281.4c1.8-0.3,3.1,0.6,4.3,1.9c-0.4,0.1-0.7,0.3-0.8,0.3C356.7,282.7,355.6,282,354.4,281.4L354.4,281.4z"/>
	<path d="M303.4,295.8c-0.2-1.3,0.3-2.2,1.6-2.8C304.9,294.4,304.9,294.4,303.4,295.8L303.4,295.8z"/>
	<path d="M325,378.3c-1.9,0-2.9,0-4.2,0C322.8,377.2,322.8,377.2,325,378.3z"/>
	<path d="M313.8,393.9c0.8,0.3,1.4,0.7,1.4,1.7C313.6,395.4,313.5,395.4,313.8,393.9z"/>
	<path d="M326.9,414.3c-1.4-0.3-1.8-1-2.1-2C325.9,412.2,326.3,412.9,326.9,414.3z"/>
	<path d="M337.1,408.9c0.6-0.6,1.1-1.1,1.7-1.7C339.3,409.2,339,409.5,337.1,408.9z"/>
	<path d="M314.2,288.5c0.8-1,1.8-0.7,2.8-0.3C316,288.3,315.1,288.4,314.2,288.5L314.2,288.5z"/>
	<path d="M299.7,289.2c-0.8,0.8-1.7,1.5-3,1.3l0.1,0.1C297.7,289.8,298.5,289,299.7,289.2L299.7,289.2z"/>
	<path d="M316.5,397.2c0.1,0,0.2,0,0.3,0.1c0.6,0.3,0.8,0.8,0.6,1.4c0,0.2-0.5,0.2-0.8,0.3c-0.1-0.5-0.3-1-0.4-1.5
		C316.3,397.3,316.5,397.2,316.5,397.2z"/>
	<path d="M334.4,394.4c-0.2,0.3-0.4,0.7-0.7,1c-0.1,0.1-0.4,0.1-0.6,0c-0.1-0.1-0.2-0.4-0.2-0.5c0.2-0.3,0.6-0.6,0.9-0.9
		C333.8,393.9,334.1,394.2,334.4,394.4z"/>
	<path d="M337.1,296.4c0.9,0.1,1.9,0.1,2.8,0.2C339,297.1,338,297.3,337.1,296.4L337.1,296.4z"/>
	<path d="M323.4,312.2c0.9-0.2,1.4,0.2,2,1C324.4,313.3,323.7,313.1,323.4,312.2L323.4,312.2z"/>
	<path d="M344.3,351.7c-0.9-0.6-1-1.4-0.2-2.9C344.2,350.2,344.2,351,344.3,351.7L344.3,351.7z"/>
	<path d="M322.8,326.6c-0.4-0.4-0.9-0.9-1.5-1.5C322.6,325.1,322.7,325.8,322.8,326.6L322.8,326.6z"/>
	<path d="M309.4,339.6c0.4,0.6,0.7,0.9,0.8,1.2c0.1,0.1-0.1,0.4-0.3,0.5c0,0-0.2,0-0.3-0.1c-0.2-0.2-0.3-0.3-0.4-0.6
		C309.2,340.4,309.3,340.2,309.4,339.6z"/>
	<path d="M304.6,354.5c-0.2-0.1-0.5-0.1-0.6-0.2c-0.1-0.4-0.1-0.8-0.1-1.2c0-0.1,0.4-0.3,0.5-0.3c0.5,0.1,0.6,0.8,0.3,1.4
		C304.8,354.3,304.7,354.4,304.6,354.5z"/>
	<path d="M341,404.5c-0.1,0.2-0.2,0.4-0.4,0.5c-0.1,0.1-0.4-0.1-0.4-0.2c0-0.2,0.1-0.5,0.2-0.5C340.5,404.3,340.8,404.4,341,404.5z"
		/>
	<path d="M310.9,326.4c0.2-0.2,0.4-0.3,0.6-0.4c0.1,0.3,0.3,0.5,0.4,0.8c0,0.1-0.1,0.2-0.2,0.3C311.4,326.8,311.2,326.6,310.9,326.4
		z"/>
	<path d="M347.9,290c-0.1-0.7,0.3-0.8,0.8-0.9c0.1,0,0.3,0.1,0.3,0.1c0,0.2,0,0.5-0.1,0.5C348.6,289.8,348.2,289.8,347.9,290
		L347.9,290z"/>
	<path d="M337.2,296.3c-0.5,0-1-0.1-1.8-0.2C336.3,295.8,336.8,295.8,337.2,296.3L337.2,296.3z"/>
	<path d="M324.8,308c0.5,0.1,1,0.1,1.6,0.2C325.7,308.6,325.3,308.1,324.8,308L324.8,308z"/>
	<path d="M313,343.3c-0.2,0.2-0.3,0.5-0.4,0.5c-0.3-0.1-0.5-0.2-0.8-0.4c0.1-0.1,0.1-0.2,0.2-0.2C312.3,343.1,312.6,343.2,313,343.3
		z"/>
	<path d="M304.6,350.9c-0.1,0.1-0.1,0.2-0.2,0.3c0-0.2,0-0.4,0-0.6C304.5,350.7,304.5,350.8,304.6,350.9z"/>
	<path d="M340,341.7c-0.1-0.2-0.2-0.4-0.3-0.6C339.7,341.3,339.8,341.5,340,341.7L340,341.7z"/>
	<path d="M352.5,398.9c-0.1,0-0.2,0.1-0.3,0.1c0-0.1-0.1-0.2-0.1-0.4c0.1,0,0.2,0,0.3,0.1C352.4,398.7,352.4,398.9,352.5,398.9z"/>
	<path d="M348,297.9c0-0.2,0-0.5,0-0.7c0-0.1,0.3-0.2,0.4-0.3c0,0.1,0.2,0.2,0.1,0.3C348.3,297.4,348.1,297.6,348,297.9L348,297.9z"
		/>
	<path d="M346.4,290.5c0,0.6-0.3,0.7-0.9,0.4C345.8,290.8,346.1,290.7,346.4,290.5L346.4,290.5z"/>
	<path d="M347.9,289.9c-0.2,0.9-0.8,0.8-1.5,0.7l0.1,0.1C346.7,289.9,347.3,289.8,347.9,289.9L347.9,289.9z"/>
	<path d="M342.2,287c-0.3-0.1-0.6-0.1-0.8-0.2c0.1,0,0.2-0.1,0.3-0.1C341.8,286.8,342,286.9,342.2,287L342.2,287z"/>
	<path d="M341.5,284.9c0.5,0.3,0.9,0.5,1.4,0.8l0.1-0.1C342.5,285.3,342,285.1,341.5,284.9L341.5,284.9z"/>
	<path d="M354.4,281.3c-0.3-0.1-0.6-0.1-0.3-0.1C353.9,281,354.1,281.2,354.4,281.3L354.4,281.3z"/>
	<path d="M342.3,281.2c-0.2,0-0.5-0.1-0.7-0.1C341.8,281.2,342,281.2,342.3,281.2L342.3,281.2z"/>
	<path d="M334.3,275.6c0.2-0.5,0.4-0.8,1-0.3C334.9,275.4,334.5,275.5,334.3,275.6L334.3,275.6z"/>
	<path d="M359.4,271.9c-0.2,0-0.5,0-0.7-0.1c-0.1,0-0.2-0.3-0.2-0.4c0.1,0,0.3-0.1,0.3-0.1C359,271.5,359.2,271.8,359.4,271.9
		L359.4,271.9z"/>
	<polygon points="341.5,284.9 341.3,284.8 341.5,284.9 	"/>
	<path d="M299.8,289.3c0-0.1,0-0.2,0-0.3C299.8,289.1,299.8,289.1,299.8,289.3L299.8,289.3z"/>
	<polygon points="339.9,341.7 340.1,341.8 340,341.7 	"/>
	<polygon points="344.2,351.8 344.5,351.9 344.3,351.7 	"/>
	<path d="M314.1,288.4C313.9,288.7,314.2,288.5,314.1,288.4L314.1,288.4z"/>
	<polygon points="296.8,290.5 296.8,290.7 296.8,290.6 	"/>
	<path d="M349.4,292.8c0.1-0.1,0.2-0.2,0.3-0.3c0,0.1,0,0.2-0.1,0.2C349.5,292.7,349.4,292.7,349.4,292.8L349.4,292.8z"/>
	<path d="M349.3,292.7c-0.3,0.3-0.5,0.5-0.8,0.8l0.1,0.1C348.9,293.4,349.2,293.1,349.3,292.7L349.3,292.7z"/>
	<path d="M347.2,298.5c0.2-0.2,0.5-0.5,0.7-0.7l-0.1-0.1C347.8,298.3,347.6,298.5,347.2,298.5L347.2,298.5z"/>
	<path d="M346.5,299.3c0.2-0.2,0.5-0.5,0.7-0.7l-0.1-0.1C347.2,299,346.9,299.2,346.5,299.3L346.5,299.3z"/>
	<path d="M346.4,299.2c0.2,0.6-0.1,0.8-0.7,0.8l0.1,0.1C346,299.8,346.2,299.5,346.4,299.2L346.4,299.2z"/>
	<path d="M374.5,305.8c0.1-0.2,0.1-0.4,0.2-0.6C375.3,305.7,374.7,305.6,374.5,305.8L374.5,305.8z"/>
	<polygon points="322.1,313.6 321.9,313.5 322.1,313.7 	"/>
	<path d="M445.3,446.4c-1.4-0.3-1.4-0.4-3.7-2.4c-1.2-1-2.3-2.1-3.5-3c-1.2-1-2.5-1.9-3.8-2.7c-1.3-0.8-2.6-1.4-3.9-2.4
		c0.7,0.1,1.4,0,2,0.3c1.3,0.6,2.6,1.2,3.7,2.1c3,2.4,5.8,4.9,8.7,7.3C445,445.7,445.1,446,445.3,446.4z"/>
	<path d="M401.3,460.3c-0.8,0.8-1,1.1-1.3,1.2c-2.7,0.7-5.4,0.7-8.1,0.1c-0.3-0.1-0.6-0.4-0.7-0.7c0-0.2,0.3-0.7,0.5-0.7
		C394.7,460.1,397.6,460.2,401.3,460.3z"/>
	<path d="M393.2,471.8c3,0.3,5.6,1,8.5,1.5c-0.3,0.5-0.5,0.9-0.6,0.9c-2.6-0.1-5.2-0.4-7.6-1.6C393.4,472.6,393.4,472.4,393.2,471.8
		z"/>
	<path d="M451.8,451.8c-0.9-2-0.9-2.3-0.1-3.1c1.1-1,1.5-1,3.1,0C454.3,450.2,453.7,451.4,451.8,451.8z"/>
	<path d="M440.5,462.9c1.8-1.1,3.3-1.4,4.9,0C443.7,464.2,442.3,463.3,440.5,462.9z"/>
	<path d="M407.6,487.5c-2,0.3-3.3,0.1-4.6-0.2c-0.1-0.9,0.4-0.9,0.9-0.8C404.8,486.8,406.1,486.6,407.6,487.5z"/>
	<path d="M413,486.1c0.9-0.9,1.6-0.8,2.4-0.3c0.1,0.9-0.5,0.9-1.1,0.8C413.8,486.5,413.5,486.3,413,486.1z"/>
	<path d="M404.9,459.8c0.5,0,1.1,0,1.6,0c0.1,0.7-0.2,0.9-0.7,0.9C405.3,460.7,404.9,460.5,404.9,459.8z"/>
	<path d="M410.9,459.8c0.6-1,1.3-1.2,2.3-0.6C412.6,460.2,411.8,460.3,410.9,459.8z"/>
	<path d="M407.6,473.7c-0.5-0.1-1-0.1-1.5-0.2c0-0.1,0-0.2,0-0.3c0.5,0,1.1,0,1.6,0C407.7,473.5,407.7,473.6,407.6,473.7z"/>
	<path d="M434.3,463c0.3,0.2,0.5,0.4,0.8,0.6c-0.2,0.2-0.5,0.5-0.7,0.5c-0.3,0-0.5-0.3-0.8-0.5C433.9,463.4,434.1,463.2,434.3,463z"
		/>
	<path d="M428,463.6c0.6,0.1,0.9,0,1.2,0.1c0.2,0.1,0.3,0.5,0.5,0.7c-0.3,0-0.7,0.2-0.9,0.1C428.5,464.4,428.3,464,428,463.6z"/>
	<path d="M405.7,533.3c-1,0.3-2,0.7-3,1c-4.2,1.4-8,3.8-11.6,6.4c-1.9,1.3-3,3.3-3.9,5.5c-0.2,0.6-0.1,1.5-1,1.7
		c-0.5-0.9-0.3-1.9,0.1-2.8c0.8-2.2,2.1-4.1,3.9-5.5c3.1-2.4,6.4-4.7,10.1-6.1c1.3-0.5,2.7-0.8,4.1-1.2
		C405,532.2,405.6,532.5,405.7,533.3z"/>
	<path d="M393.1,548.9c0,2.3-1.6,4.3-0.1,6.2c-0.7,0.8-1.4,0.7-2,0.3c-0.5-0.4-1.1-1-1.3-1.6c-0.5-1.9,0.5-3.9,2.3-5
		C392.2,548.8,392.5,548.9,393.1,548.9z"/>
	<path d="M415.6,573.4c0.9-0.3,1.6-0.6,2.2-0.9c1.2,0.3,1.4,1.2,1.5,2c0.1,0.4-0.3,1.1-0.5,1.2c-0.8,0.2-1.7,0.2-2.4,0
		C415.5,575.4,415.3,574.6,415.6,573.4z M418.1,574.2c-0.2-0.1-0.4-0.2-0.7-0.2c-0.1,0-0.2,0.1-0.3,0.2c0.2,0.1,0.3,0.3,0.5,0.3
		C417.8,574.5,417.9,574.3,418.1,574.2z"/>
	<path d="M393,535.1c-1.4-1-1.1-2-1-2.9c0.3-1.3,0.5-2.8,2-3.8c0.4,1.4-0.4,2.3-0.6,3.2C393.2,532.7,393.1,533.7,393,535.1z"/>
	<path d="M410.9,532.1c2.7-0.8,5.3-1.2,7.8,0.5C416,532.4,413.4,532.2,410.9,532.1z"/>
	<path d="M435.5,563.5c0.5,0.4,1,0.6,1.1,0.9c0.4,1.3-0.8,2.7-2.3,2.7c-0.1,0-0.3-0.3-0.5-0.6C434.2,565.6,434.8,564.7,435.5,563.5z
		"/>
	<path d="M432,536.4c-1.9-0.6-3.6-1.6-4.9-3.3c0.5-0.1,0.9-0.3,1.2-0.2c1.4,0.6,2.7,1.4,3.7,2.6C432,535.8,431.9,536.2,432,536.4
		L432,536.4z"/>
	<path d="M434.7,556.2c-0.5-0.9-1-1.7-1.4-2.4c-0.2-0.3-0.4-0.6,0.1-0.7c0.2-0.1,0.5,0,0.6,0.1c0.7,0.7,1.3,1.6,1.2,2.7
		C435.2,555.9,435,556,434.7,556.2z"/>
	<path d="M437.1,542.7c-1.6,0.2-2.2-0.8-2.6-2.2c0.4,0,0.7-0.1,0.8,0C435.9,541.3,436.5,542.1,437.1,542.7L437.1,542.7z"/>
	<path d="M394.4,519.6c0.7,1,0.5,2-0.1,2.9C393.6,521.5,393.7,520.6,394.4,519.6z"/>
	<path d="M439.8,546.7c-0.2,0.3-0.3,0.4-0.5,0.6c-0.2-0.2-0.5-0.5-0.7-0.7c-0.1-0.1,0.1-0.4,0.2-0.6
		C439.1,546.2,439.5,546.4,439.8,546.7z"/>
	<path d="M395.8,513.6c0.1,0.9,0.1,0.9-0.4,1.6C395.3,514.4,395.3,514.4,395.8,513.6z"/>
	<path d="M393,559.1c0.2-0.1,0.3-0.2,0.5-0.4c0.1,0.2,0.2,0.5,0.3,0.7c-0.2,0.1-0.4,0.2-0.5,0.2C393.1,559.5,393.1,559.3,393,559.1z
		"/>
	<path d="M402.5,565.2c-0.2,0.1-0.4,0.2-0.5,0.2c-0.2-0.1-0.2-0.4-0.3-0.6c0.2-0.1,0.5-0.2,0.6-0.2
		C402.4,564.7,402.4,565,402.5,565.2z"/>
	<path d="M397.1,510.2c-0.1-0.1-0.2-0.2-0.2-0.2c0-0.4,0.1-0.8,0.2-1.2c0.1,0,0.2,0,0.2,0c0,0.4,0,0.8,0,1.2
		C397.3,510,397.2,510.1,397.1,510.2z"/>
	<path d="M403.6,572.1c-0.2,0.1-0.4,0.3-0.6,0.3c-0.1,0-0.2-0.3-0.3-0.4c0.2-0.1,0.4-0.2,0.5-0.2C403.3,571.7,403.5,572,403.6,572.1
		z"/>
	<path d="M437.1,542.8C437.2,543,437.1,542.8,437.1,542.8L437.1,542.8z"/>
	<path d="M431.9,536.5c0.1,0,0.2,0,0.3,0C432.1,536.5,432.1,536.5,431.9,536.5L431.9,536.5z"/>
	<polygon points="233.6,132.6 233.8,132.7 233.6,132.5 	"/>
</g>
</svg>
