<?xml version="1.0" encoding="utf-8"?>
<!-- Generator: Adobe Illustrator 19.2.0, SVG Export Plug-In . SVG Version: 6.00 Build 0)  -->
<svg version="1.1" id="Layer_2" xmlns="http://www.w3.org/2000/svg" xmlns:xlink="http://www.w3.org/1999/xlink" x="0px" y="0px"
	 viewBox="0 0 900 600" style="enable-background:new 0 0 900 600;" xml:space="preserve">
<g>
	<path d="M223.5,291.1c-0.3-0.2-0.5-0.5-0.8-0.6c-4.5-1.3-9-1.8-13.5-0.7c-4.7,1.1-9.4,2.1-13.9,3.5c-4.6,1.4-8.6,4.1-12.2,7.5
		c0.7,0.6,1.1,0,1.6-0.2c4.3-2.3,8.9-3.7,13.4-5.2c0.6-0.2,1.3-0.1,2-0.2l-0.1-0.1c-1,0.5-2,1-3,1.5c-3.2,1.3-6.4,2.6-9.5,3.9
		c-1.3,0.5-2.5,1.2-3.7,1.9c-2.9,1.6-5.1,3.8-6.4,6.8c-1.4,0.7-2.5-0.2-3.8-0.3c-1.1,0-2.3,0-3.5,0c0.8-1.4,2.4-1.1,3.4-1.7
		c0-0.3,0-0.7,0.1-1.1c0.8,0,1.6,0,2.4,0c-0.1-0.3-0.2-0.5-0.3-0.5c-1-0.2-2-0.4-3-0.5c-1.7-0.1-3.4-0.3-5.1-0.1
		c-2.6,0.3-4.4,1.9-5.2,4.4c-0.4,1.3-0.6,2.7-0.8,4c-0.2,1.4-0.4,2.7-0.5,4.1c-0.2,4.4-0.7,8.7-1.4,13c-0.2,1.1-0.2,2.3,0.3,3.4
		c0.7,0.2,0.7-0.3,0.8-0.8c0.4-3.2,0.7-6.4,1.1-9.6c0-0.4,0.3-0.8,0.6-1.7c-0.1,7.7-0.9,14.8-0.8,22c0.5,0.1,0.8,0.1,1.1,0.2
		c0.2,3.8,0.2,7.5,0.6,11.3c0.3,2.7,1.2,5.3,1.9,8.2c0.5-1.8,0.6-4.2,0.1-6c-1.2-4-1-8.2-0.7-12.3c0.4-5,1.5-10,2.2-15
		c0.6-4.7,1.7-9.2,3.3-13.7c0.6-1.6,0.8-3.4,2.6-4.2c0.3-0.2,0.4-0.8,0.7-1.1c0.2-0.2,0.5-0.4,0.8-0.6c0.6,0.4,0.3,0.9,0,1.2
		c-1.9,2.1-2.8,4.7-3.6,7.3c-0.2,0.7-0.4,1.6,0.5,2.1l-0.1-0.1c-0.2,0.7-0.3,1.4-0.5,2c-0.9,2.5-1.3,5.1-1.4,7.8
		c-0.2,3.9-0.3,7.8-0.4,11.7c0,2.1-0.1,4.1,0.8,6.1c0.1,0.2,0.2,0.4,0.2,0.7c0.5,4.7,1.1,9.3,1.5,14c0.4,5.1-1,10-2.3,14.9
		c-0.3,1.1-1,1.7-2.1,2.1l0.1,0.1c0.1-0.9,0.1-1.8,0.3-2.7c0.1-0.8,0.3-1.6,0.4-2.4c0-0.2-0.1-0.4-0.2-0.7c-0.3,0.5-0.6,1-0.9,1.5
		c-0.2-0.3-0.5-0.5-0.5-0.8c0-0.9,0-1.8,0.1-2.7c0-1.5-0.3-2.9-1-4.3c-1.7-3.3-3.3-6.5-4.8-9.9c-1.7-3.7-2.8-7.5-2.9-11.6
		c-0.1-2.3-0.2-4.6,0-6.9c0.5-5.2-0.1-10.3-0.1-15.5c0-4.2-0.1-8.5,0.8-12.7c0.4-1.7,0.8-3.4,1.5-4.9c1.5-3.3,4.2-5,7.9-5.1
		c3.2-0.1,6.2,0.6,9,2c0.8,0.4,1.5,0.4,2.5-0.1c0.9-2.8,2.9-4.9,5.5-6.5c1.2-0.7,2.1-1.8,3.1-2.7c2-1.8,4.3-3,6.9-3.8
		c4.1-1.2,8.1-2.4,12.4-2.8c2-0.2,4.1-0.5,6.1-1c1.3-0.3,2.5-0.2,3.7,0.2c1.2,0.4,2.4,0.8,3.6,1.1c7.2,2.2,7.2,2.2,12.9,6.9
		c1.4,1.1,2.4,2.4,3.1,4.1c0.6,1.4,1.1,2.7,1.7,4.1c1.2,2.7,2.1,5.6,2.7,8.5c0.1,0.6,0.1,1.2,0.3,1.7c1,2.7,1,5.3-0.1,8
		c-0.5,1.2-0.4,2.4,0.2,3.7c0.9,2.1,1.7,4.3,3,6.2c1,1.5,1.9,3.2,2.7,4.8c0.4,0.7,0.1,1.7-0.6,2.1c-1.3,0.6-2.7,1.1-4.2,1.7
		c-0.6,0.6-0.8,1.5-0.4,2.2c0.9,1.8,0.4,3.1-1.3,3.9c0.1,1.3,1.3,2.2,0.8,3.4c-0.4,0.9-1,1.8-1.5,2.8c0.3,1.8,0.8,3.9,0.1,5.9
		c-1.4,1.5-3.2,2.3-5.2,2.3c-2.6,0.1-5.3,0.1-7.9,0.1c-0.7,0-1.3-0.3-2-0.5c-0.7-0.2-1.5-0.5-2.4-0.8c-0.3,0.6-0.6,1.1-0.7,1.6
		c-0.2,2.3-0.1,4.6,0.7,6.8c0.3,0.8,0.5,1.7,0.8,2.8c5.4,2.9,11,5.6,17,7.7c5.1,1.8,10.2,3.5,15.1,5.8c1.8,0.8,3.9,1.1,5.8,2
		c2.5,1.2,5,2.2,7.5,3.4c2,0.9,3.8,2.1,5.4,3.6c2.6,2.4,4.4,5.3,5.1,8.8c0.3,1.3,0.4,2.6,1.5,3.7c0.9,0.9,0.9,2.3,0.9,3.6
		c0,3.1-0.4,6.2-1.5,9.2c1.3,1.5,2.6,2.9,3.8,4.4c1.6,2,3.1,3.9,4.6,6c0.8,1.1,1.5,2.3,0.8,3.8c-0.2,0.4,0.1,1.1,0.4,1.6
		c0.6,1,1.3,1.9,2,2.8c3.4,4.5,7.5,8.4,11.9,11.9c0.4,0.3,0.7,0.6,1.1,0.8c4.9,2.9,9.9,5.7,14.8,8.6c1.2-0.5,2.2-0.7,3.4-0.2
		c0.9,0.5,1.9,0.7,2.9,1c1.5,0.5,2.7,1.2,3.1,2.8c1.9,0.7,3.8,0.8,5.6,0.4c1.9-0.4,3.9-0.4,5.8-0.5c1.3-0.1,2.5-0.3,3.8-0.4
		c0.9-0.1,1.8,0,2.7-0.1c0.8-0.1,1.6-0.1,2.3-0.3c9.2-2.2,18.5-3.6,27.8-4.7c2.6-0.3,5.3-0.3,7.9-0.3c6.5,0,13.1-0.1,19.6,0.2
		c6.8,0.3,13.5,1.2,20.2,2.2c5.8,0.9,11.6,1.6,17.4,2.4c0.8,0.1,1.6,0.1,2.4,0c5.3-0.5,10.5-1.1,15.7-1.6c1.8-0.2,3.7-0.3,5.5-0.4
		c4.2-0.2,8.1,1,11.7,3.2c6.9,4.2,14.1,7.6,21.9,9.8c5.1,1.4,10,3.2,15.1,4.8c3.6,1.1,7.2,2.3,10.8,3.3c4.6,1.4,9.1,3.1,13.4,5.3
		c2.7,1.3,5.4,2.5,8.1,3.8c0.6,0.3,1.3,0.5,1.9,0.9c5.2,3.4,11.2,4.7,17.1,6c4.3,0.9,8.6,1.3,12.8,2.6c1.4,0.4,3,0.3,4.4,0.5
		c3.2,0.6,6.3,1.3,9.4,2c0.5,0.1,1.1,0.2,1.6,0.4c0.6-1.2-0.7-2.1-0.1-3.4c0.7-0.8,2-1,3.2-1.1c1.8-0.1,3.6-0.2,5.5-0.2
		c0.8,0,1.6,0.2,2.4,0.3c2.6,0.3,5.2,0.7,7.9,0.9c3.1,0.2,6.2,0.2,9.2,0.8c1.9,0.4,3.9,0.6,5.8-0.3c0.6-0.3,1.3-0.3,2-0.3
		c4.7,0.1,8.4-2,11.4-5.3c2.2-2.4,4.9-3.7,7.9-4.9c0.7,0.4,1.5,0.6,2.1,1.1c1.4,1.2,3,1.7,4.8,1.5c1.9,2.1,3.8,4.1,5.6,6.1
		c0.3,0.3,0.6,0.7,0.9,1.1c1.1,1.6,0.9,2.4-1,3.3c-0.1,0-0.2,0.1-0.4,0.3c-0.8,3.2-2.2,6.1-3.9,9c-0.3,0.6-0.6,1.2-0.7,1.9
		c-0.6,3.6-2.4,6.5-4.9,8.9c-2.1,2-3.9,4.2-5.8,6.3c-1.4,1.6-2.9,3.3-4.5,4.8c-1.7,1.7-3.6,3.2-5.9,4.1c-1.1,0.4-2,1.1-2.7,2
		c-1.5,1.8-2.8,3.6-3.9,5.7c-2.3,4.7-5.5,8.7-9.4,12.2c-3.7,3.2-7.8,5.7-12.5,7c-0.4,0.6-0.7,1.2-1,1.7c-1.7,0.3-2.7-0.8-3.8-1.5
		c-1.2-0.7-2.3-1.4-3.7-2.3c-1.3-2.6-2.2-5.9-5-8.2c-0.6,0-1.3,0-2,0.1c-2.8,0.6-5.2-0.6-7.5-1.6c-2-0.8-3.2-2.5-3.1-4.9
		c0-0.9-0.1-1.8-0.3-2.7c-0.3-1.1-0.7-2.2-1-3.4c-5-0.1-9.9-0.2-14.8-0.3c-0.6,0-1.1,0.1-1.7,0.1c-4.7-0.2-9.4,0.5-14,1.5
		c-2.3,0.5-4.8,0.7-7.2,0.8c-4.7,0.1-9.4-0.1-14.1-0.1c-0.3,0-0.7,0.1-1,0c-3.7-1.1-7.5-0.8-11.2-1.1c-7.6-0.7-15-1.8-22.4-3.6
		c-3.3-0.8-6.6-2.1-9.8-3.2c-2.8-1-5.6-2.1-8.7-1.9c-2.9,6.3-6.6,12.2-10.3,18.1c-5.5,8.6-10.3,17.7-14.8,26.8
		c-0.4,0.7-0.7,1.4-1,2.2c-1.1,3.9-3.6,6.9-6.7,9.3c-2.6,2.1-5.4,3.9-8.7,4.7c-1.1,0.3-2,0.3-2.7-0.7c-3.7,0.9-7.2,1.1-10.7,0.5
		c-1.1-0.2-2.3-0.5-3.3-1c-2.3-1.1-4.1-2.8-6.6-3.7c-1.6-0.6-2.6-2.2-3.5-3.7c-1-1.7-2.2-3.2-3.7-4.5c-2.8-2.7-4-5.9-4.1-9.9
		c-0.1-10.6,3.7-19.4,11.7-26.5c0.6-0.5,1.2-1.1,1.5-1.8c1.9-3.7,4.3-7,6.9-10.2c0.4-0.4,0.6-0.9,0.9-1.4c0-0.1-0.1-0.2-0.2-0.5
		c-1.4,0.2-2.9,0.4-4.3,0.8c-4.8,1.3-9.7,1.8-14.6,1.8c-5.5,0-11,0-16.5-0.1c-3.2,0-6.4,0.1-9.6,0.8c-2.1,0.5-4.2,1.3-6.4,0.5
		c-0.4-0.2-1.1,0.2-1.6,0.4c-4.1,1.5-8.3,2.4-12.8,2.4c-1.6,0-3.2,0.4-4.7,1c-2.1,0.8-4.2,1.1-6.4,1c-7.2-0.4-14.1-1.8-20.7-4.7
		c-3.5-1.5-6.8-3.3-9.8-5.7c-2.6-2.1-5.1-4.2-7.8-6.2c-3.2-2.4-5.9-5.4-8.8-8.2c-5.7-5.4-11.4-10.7-17.7-15.3
		c-1.5-1.1-2.9-2.2-3.9-3.8c-0.4-0.7-1.1-1.1-1.8-1.6c-3.4-2.5-6.8-5-10.3-7.5c-0.5-0.3-0.9-0.8-1.5-0.9c-2.5-0.3-4-2-5.9-3.4
		c-9-6.4-17.6-13.2-26.2-20.1c-1.8-1.4-3.6-2.8-5.8-4c-0.8,2.7-1.3,5.3-1.4,7.9c0,1.4,0,2.8,0.1,4.1c0.4,3.9-0.1,7.8-0.3,11.7
		c-0.1,1.1-0.5,2.2-0.8,3.3c-2.1,6.3-4.1,12.6-5.6,19.2c-0.7,3.2-1.8,6.4-2.2,9.7c-0.5,5.5-1.6,10.9-1.2,16.4c0.1,2.3-0.1,4.5-0.1,7
		c0.7,0.2,1.4,0.5,2.1,0.7c3.2,0.6,6.3,1.2,9.5,1.7c0.4,0.1,0.9,0,1.4,0c3.4,0,6.9,0,10.3,0c2,0,3.9,0.5,5.6,1.4
		c2.3,1.2,4.6,2,7.2,2.2c1.1,0.1,2.2,0.5,3.3,0.8c0.9,0.3,1.3,1,1.2,1.9c0,0.7-0.2,1.4-0.4,2c-0.2,0.7-0.8,1.1-1.5,1.2
		c-0.9,0.1-1.8,0.1-2.7,0.1c-2.4,0-4.8-0.1-7.2,0.4c-1,0.2-2.1,0.1-3.1,0.1c-1.3,0-2.5,0-4,0c-0.4,0.6-1,1.3-1.6,2.1
		c-1.1-1.2,0-2.7-1.1-4c-0.3-0.1-1-0.6-1.8-0.6c-1.7-0.1-3.3-0.5-4.9-1.3c-1.9-0.9-4.2-1.2-6.3-1.7c-0.4-0.1-0.8-0.2-1.2-0.3
		c-0.1-0.8,0.5-1,0.9-0.9c2.5,0.5,5,0.9,7.3,1.8c1.4,0.6,2.7,1,4.2,1.1c1.4,0.1,2.7,0.4,3.7,1.5c0.3,0.4,1,0.6,1.5,0.7
		c2.4,0.2,4.8,0.4,7.2-0.1c1.9-0.4,3.9-0.2,5.8-0.3c0.8,0,1.6,0,2.4-0.1c0.3,0,0.6-0.4,1.1-0.7c-0.8-0.4-1.2-0.8-1.7-0.9
		c-2.3-0.3-4.5-0.7-6.7-1.5c-1.1-0.4-2.5-0.2-3.7-0.3c-2.6-0.2-5.3-0.3-7.9-0.6c-0.6-0.1-1.1-0.5-1.5-1.2c1.8,0.2,3.6,0.5,5.4,0.6
		c1.7,0.1,3.4,0,5.6,0c-1.4-1.3-2.7-1.5-4.1-1.5c-2.2,0-4.4,0-6.5-0.1c-1.3,0-2.6,0-3.1,1.3c-4.1-0.9-7.9-1.7-11.7-2.6
		c-1.1-0.3-2.1-0.7-3.3-0.2c-0.7,0.3-1.7-0.7-1.4-1.5c0.6-1.8-0.1-3.6,0.1-5.4c0.2-1.7-0.1-3.4,0-5.1c0.2-3.1,0.4-6.2,0.8-9.2
		c0.7-4.8,1.5-9.5,2.3-14.3c0.7-4.3,2.3-8.4,3.5-12.5c0.5-1.8,1.1-3.5,1.8-5.2c1.5-3.7,1.8-7.6,1.9-11.5c0-2.1,0.1-4.1,0-6.2
		c-0.1-2.6,0-5.2,0.8-7.8c0.4-1.4,0.4-2.9,0.6-4.3c-1-1.1-1.8-1.9-3.2-2.4c-1.3,10.3-4.2,20.1-8,29.6c-0.2,0.6-0.7,1.1-1.1,1.5
		c-0.9-0.1-0.8-0.7-0.8-1.1c0.1-1.1,0.3-2.3,0.6-3.4c1.3-4.7,2.6-9.3,3.8-13.9c1.9-6.9,3-13.9,3.5-21c0.4-5.4,1-10.7,1.7-16.1
		c0.2-1.4,0.9-2.8,1.5-4.2c0.2-0.5,0.9-0.9,1.4-1.3c1,1.3-0.1,2.1-0.3,3c-0.3,1-0.7,1.9-1.2,2.9c0.4,0,0.7,0,0.8-0.1
		c3.7-4.3,6.8-8.9,9.2-14.1c0.8-1.7,1.2-3.4,1-5.3c-0.2-2.6-0.3-5.3-0.3-7.9c0-0.8,0.2-1.6,0.4-2.5c-1.8-3.5-4.3-6.5-7.5-9
		c-0.8,0.9,0.7,2.5-1,3c-0.9-1.6-1.8-3.2-2.6-4.8c-0.7-1.3-1.8-2.1-3.1-2.5c-1-0.3-1.9-0.8-2.9-1.1c-4.8-1.3-9.5-2.4-14.5-3
		c-1.7-0.2-3.2,0-4.6,0.9c-0.4,0.2-0.8,0.3-1.4,0.6c-1.1,3-1.8,6.2-1.6,9.7c1.6-0.4,1.5-2.6,3.4-2.8c-0.1,0.5,0.1,1-0.2,1.3
		c-1.5,2.1-2.1,4.5-2.9,6.9c-0.6,1.6-0.8,3.4-0.9,5.1c-0.1,3,0,6.1,0,9.3c0.6-0.5,0.4-1.6,1.6-1.5c0.7,2.7,0.1,5.5,0.8,8.5
		c-0.7-0.1-1.1-0.1-1.6-0.2c-0.1,0.3-0.4,0.6-0.4,0.8c0.1,2.4,0.1,4.8,0.5,7.2c0.3,1.7,0.3,3.4,0.3,5.1c-0.3,6.3-0.7,12.6-1.1,18.9
		c0,0.8-0.1,1.6,0,2.4c0.4,6.6,0.9,13.3,1.4,19.9c0.1,1,0.2,2,1.2,2.7c0.4,0.2,0.6,1,0.6,1.5c0,0.7-0.2,1.4-0.3,2
		c-0.4,1.7-0.7,3.4-1.2,5c-0.1,0.5-0.5,1.3-0.8,1.3c-1.4,0.2-1.5,1.2-1.6,2.2c-0.4,3.7-0.7,7.3-1,11c-0.2,2.5-0.1,5-1.1,7.5
		c-0.2,0.4-0.1,0.9-0.1,1.4c0.1,4.4-0.1,8.7,0.3,13.1c0.3,4.1,0.4,8.2,0.5,12.4c0,1.7,0.3,3.4,0.4,5.1c0,0.1,0,0.2,0,0.3
		c0.2,5.7,0.4,11.5,0.6,17.2c0,1.3,0,2.6-0.3,3.8c-0.3,1.1-0.9,2.1-1.5,3.3c0.6,1,1.2,2.1,1.9,3.1c1.5,2.1,3.5,3.1,6.2,3.2
		c2.4,0,4.8,0.4,7.2-0.3c0.7-0.2,6.2,0.8,7,1.2c1,0.5,2.1,1,3.2,1.4c0.8,0.3,1.8,0.3,2.9,0.5c-1.5-1.6-2.7-3-4.1-4.5
		c-2.3-0.8-4.7-1.6-7.1-2.4c0.1-0.9,0.7-0.8,1-0.8c2.1,0.4,4.3,0.9,6.4,1.4c0.6,0.2,1.3,0.6,1.7,1.1c1.1,1.5,2.7,2,4.4,2.4
		c2.1,0.5,4.2,1,6.3,1.7c2,0.7,4.3,0.6,6.4,0c0.7-0.2,1.2-0.3,1.9,0c1.6,0.7,3.1,0,4.6-0.8c0.2-0.1,0.5-0.5,0.5-0.8
		c0-0.3-0.3-0.6-0.5-0.9c-0.1-0.2-0.4-0.3-0.6-0.3c-5.3-1-10.4-2.8-15.5-4.5c-0.2-0.1-0.5-0.1-0.7-0.1l0.1,0.1
		c-0.3-0.2-1.1-1.4-1.3-1.9c1.2,0.2,2.3,0.3,3.3,0.5c0.6,0.8,1.4,0.5,2.2,0.6c2.1,1.3,4.3,2,6.8,2.1l0.1,0.1l-0.2-0.1
		c-2-1.7-4.3-2.1-6.8-2c-0.6-0.7-1.4-0.8-2.2-0.6c-1.7-2.1-2.8-2.7-4.9-2.8c-3.4-0.2-6.9-0.4-10.3-0.8c-1.8-0.2-3.6-0.8-5.4-1.3
		c-0.4,0.4-0.9,0.7-1.3,1.1c-1.3-0.3-1.9-1.3-1.7-2.6c0.9-5.4,0.4-11,1.2-16.4c0-0.2,0.1-0.5,0.1-0.7c-1.3-5.2,0.2-10.2,0.9-15.3
		c0.9-6.8,2.5-13.5,4.1-20.2c0.2-0.8,0.3-1.6,0.3-2.4c0.2-3.5,0.6-7.1,0.6-10.6c0.1-2.5-0.2-5-0.4-7.5c-0.1-1.3-0.2-2.5-0.3-3.8
		c0-0.4,0.2-0.8,0.3-1.2c0.8,0,0.9,0.4,1,0.8c0.7,3,0.8,6.1,0.9,9.2c0.1,2.2,0.1,4.4,0.3,6.5c0.5,5.6-0.4,11-1.3,16.4
		c-0.1,0.7-0.3,1.5-0.7,1.9c-1.4,1.1-1.5,2.8-1.8,4.3c-1.4,6.8-1.6,13.7-2,20.5c-0.1,1.3,0.2,2.8,0.6,4.1c1,3.3,3.6,4.9,6.9,5.4
		c1.1,0.2,2.3,0.1,3.4,0c3.2-0.1,6.4-0.4,9.6,0.5c1.1,0.3,2.3,0,3.4,0.2c1.1,0.1,2.2,0.4,3.3,0.7c0.3,0.1,0.6,0.6,0.9,0.9
		c-0.3,0.2-0.4,0.3-0.5,0.3c-3.3-0.2-6.6,0.3-9.8-0.8c-1.4-0.5-2.9-0.5-4.4-0.1c-5,1.3-9.5,0.6-13.2-3.4c-0.1-0.2-0.4-0.2-0.8-0.4
		c-0.4,3.4-1.2,6.7-0.3,10.2c1.7,1.2,3.6,1.4,5.6,1.5c1.5,0.1,3,0.1,4.5,0.1c1.4,0,2.7-0.1,3.8,1c0.3,0.3,1.1,0.3,1.6,0.4
		c1,0.1,2.1,0,3.1,0c2.3,0.1,2.3,0.1,3.8,2.4c0.8,0.2,1.7,0.8,2.5,0.8c2.4,0,4.4,1.1,6.4,2.3c1.4,0.8,2.9,1.4,4.4,1.7
		c0.9,0.2,1.8,0.3,2.7,0.6c0.9,0.3,1.6,0.8,1.7,1.9c0.1,1.1-0.1,2.1-1.1,2.7c-1,0.6-1.9,1.1-3.1,1.3c-2.2,0.3-4.5,0.4-6.7,1
		c-2.4,0.6-5,0.5-7.4-0.6c-1.1-0.5-2.3-1.2-3.7-0.9c-0.1,1-0.3,1.9-1.6,2c-2.4,0.2-4.8,0.4-7-1c-1.9-1.2-4.2-1.5-6.3-1.6
		c-2.7-0.1-5.5-0.9-8.1,0.5c-5.3,1.2-11.2-4.3-10.2-8.8c0.4-1.9,0-3.9,1.3-5.6c0-2.1,0.1-4.1,0-6.2c-0.1-1.4-0.4-2.7-0.5-4.1
		c-0.6-9.3-0.4-18.6-0.6-27.9c-0.2-8.5,0.1-17,1-25.4c0.6-5.6,1.8-11.1,2.6-16.6c0.1-0.6,0.2-1.1,0.2-1.7
		c-0.3-5.4-0.6-10.8-0.9-16.1c-0.3-4.5-0.5-8.9-0.2-13.4c0.4-4.9,0.7-9.8,1-14.8c0-0.7,0.1-1.4,0-2.1c-0.4-3.6-0.8-7.3-1.1-10.9
		c-0.5-6.9-0.9-13.7,0.7-20.5c0.2-0.7,0.2-1.6,0-2.3c-0.9-3.2-0.3-6.4,0.3-9.5c0.3-1.4,1-2.7,0.7-4.3c-0.2-1.3,0.3-2.7,0.4-4.1
		c0-1.5-0.1-3-0.3-4.5c-0.3-3.8-0.7-7.5-1-11.3c-0.3-3.5-0.6-7.1-0.7-10.6c-0.1-2.9-1.1-5.4-2.9-7.6c-1.1-1.3-2.2-2.6-3.3-4
		c-2.7-3.2-4.8-6.7-5.5-10.9c0-0.2-0.1-0.4-0.2-0.6c0-0.1-0.1-0.1-0.4-0.2c-0.2,0.7-0.5,1.3-0.7,1.9c-1.6,5.9-1.8,12-1.1,18.1
		c0.5,4.7,1,9.4,1.4,14c0.4,4.6,0.2,9.2-1.3,13.6c-0.4,1.3-0.6,2.7-2,3.4l0.1,0.1c0.2-1.7,0.4-3.4,0.6-5.1
		c0.6-5.7,0.3-11.5-0.1-17.2c-0.1-1,0-2-0.1-3.1c0-0.6-0.1-1.1-0.2-1.7c-1.3-4.6-1.7-9.2-1.6-13.9c0-1.1,0.1-2.3,0.8-3.3
		c0.4-0.5,0.5-1.3,0.7-1.9c1-3.2,2-6.3,3-9.5c0.4-1.5,0.7-3.1,0.8-4.7c0.2-1.6,0.1-3.2,0.2-4.8c0.1-0.9,0.3-1.8,0.5-2.9
		c0.8,0.1,1.7-0.1,2.1,0.3c4,3.5,8.8,5.7,13.3,8.5c0.1,0.1,0.1,0.2,0.3,0.4c-1.3,0.1-2.2-0.6-3.2-1.1c-1.1-0.4-2.1-1-3.1-1.6
		c-1-0.5-2-1.1-3.1-1.7c1.2,2.1,1.2,2.1,8.9,7.3c-0.8,0-1.3,0.2-1.7,0c-1.5-0.5-3-1.1-4.5-1.7c1.3,2.3,1.3,2.3,6.8,6.3
		c-0.6,0.5-1,0-1.5-0.2c-3-1.5-5.8-3.2-8-5.8c-1.5-1.8-2.7-3.7-3.2-6c-0.2-1-0.5-2-0.9-3c-0.1-0.3-0.5-0.4-0.7-0.7
		c-0.8,2.1-0.9,4.2-0.4,5.9c0.2,0.6,0.5,1.3,0.5,2c0.3,3.1,0.8,6.1,1.4,9.2c0.5,2.8,1.6,5.3,2.7,7.8c0.4,0.8,1,1.5,1.6,2.2
		c1.3,1.6,2.7,3.1,4,4.8c1.3,1.7,1.9,3.7,2.2,5.7c0.6,5,1.3,10,1.8,15c0.4,3.5,0.5,7.1,0.8,10.8c0.6,0.1,1.3,0.3,1.9,0.3
		c4.5,0.3,8.9,0.5,13.4,0.9c2.9,0.3,5.6,1.2,8.2,2.3c2.1,0.9,4.2,1.8,6.2,3c2.4,1.4,5,2.2,7.7,2.7c2.9,0.5,5.8,1.2,8.7,1.9
		c0.7,0.1,1.4,0.3,2,0.2c0.7-0.1,1.4-0.7,2.2-0.8c0.6-0.1,1.2,0,2.1,0.1c-2.6-2.4-10.8-6.6-17.8-9.3c-0.7,0.5,0,1,0,1.6
		c-0.3,0.1-0.6,0.3-0.8,0.2c-0.8-0.4-1.8-0.6-2.2-1.6c-0.8-2.4-2.6-4.3-3.8-6.5c-0.3-0.6-0.6-1.2-0.9-1.8c-1.5-3.5-1.3-6.9,1-10.2
		c1.1-0.6,2.4-0.4,3.6-0.3c3.5,0.5,7.1,0.9,10.6,0.6c0.9-0.1,1.8-0.3,2.6-0.4c0.7-1.6,0.9-3,0.5-4.5c-0.3-1.2,0-2.2,0.6-3.3
		c0.5-0.7,0.8-1.6,1-2.5c0.2-1-0.8-1.7-1.8-1.5c-0.9,0.2-1.7,0.4-2.6,0.6c-0.2,0-0.4-0.2-0.6-0.3c-0.2-0.7,0-1.2,0.7-1.3
		c1-0.2,2-0.3,3-0.5c0.7-0.2,1.4-0.6,2-0.8c0.5-1.5-0.2-2.5-0.4-3.6c-0.8-0.5-1.6-1.1-2.6-1.7c2.9-0.9,5.8-0.7,8.4-2.4
		c-0.4-0.5-0.7-1-1-1.4c-1.5-2.3-3-4.6-4.4-7c-1.8-3.1-2.2-6.2-0.4-9.1c-0.6-2.7-1-5-1.5-7.3c-0.7-3.3-1.7-6.4-3-9.4
		c-0.9-0.6-1.6-1.1-2.4-1.5c-0.4-0.2-1,0-1.9,0c-2.1-3-5.5-5-9.1-6.5c-3.5-1.5-7.2-2.4-10.9-2.5c5-1.6,9.7,0.3,14.4,2.2
		c-0.4-1.4-2.1-1.4-2.2-2.7l-0.1,0.1c1.1-0.2,1.9,0.7,2.8,1.1c0.7,0.3,1.2,1.1,2.1,0.9c-0.1,0.5,0.2,0.7,0.7,0.7
		c0.2,0.2,0.4,0.5,0.7,0.7c0,0.1,0.1,0.2,0.1,0.2c0,0,0.1,0,0.2,0c-0.1-0.1-0.3-0.1-0.4-0.2c0.1-0.5-0.1-0.8-0.6-0.8
		c0.1-0.5-0.2-0.7-0.7-0.7c-1-2-2.8-2.6-4.9-2.8L223.5,291.1z M229,375.7l0.1,0.2L229,375.7c-0.5-0.2-0.9-0.4-1.4-0.6
		c-1.5-1.3-1.5-1.3-3-1c0.7,1.4,1.8,1.4,3,1C227.7,375.9,228.5,375.6,229,375.7z M642.3,495c-0.3,0-0.5,0.1-0.3,0
		c-0.2,0.1,0,0,0.2-0.1c0.4-0.1,0.8-0.2,0.7-0.7c2.7-0.1,4.7-2.2,7.2-2.9c0.1,0,0.2-0.3,0.3-0.5c-0.4-0.8-1.1-0.8-1.7-0.5
		c-1.8,1-3.6,2-5.3,3.1c-0.2,0.1-0.3,0.6-0.4,0.9C642.4,494.3,642.1,494.5,642.3,495z M247.6,390.3c-0.2-0.1-0.4-0.2-0.3-0.2
		C247.2,390.1,247.4,390.1,247.6,390.3c0.5,0.2,0.9,0.4,1.3,0.7c0.2,0.1,0.4,0.3,0.2,0.1c0.2,0,0,0-0.3,0
		C248.7,390.3,248.1,390.5,247.6,390.3z M640.2,530.2c-0.9-0.4-1.5,0.2-2.3,0.5c-2.2,0.9-4.4,1.9-6.7,2.6c-2.3,0.7-4.7,0.8-6.7,2.2
		c-0.6,0.4-1.5,0.5-2.3,0.7c-1.1,0.3-2.2,0.5-3.3,0.8c-0.9,0.3-1.7,0.6-2.5,1.1c-1.8,1.3-3.4,2.7-5.2,4c-3.3,2.4-6.7,4.9-10,7.2
		c-0.9,0.6-2.1,1-3.1,1.3c-1.1,0.3-2.2,0.6-2.8,1.5c1.4,2.7,2.6,5.2,4,7.7c0.4,0.7,0.9,1.3,1.6,1.7c0.8,0.6,1.8,0.9,2.5,1.3
		c1.2-0.7,2.2-1.3,3.2-1.7c8.5-3.5,14.8-9.5,19.3-17.4c1.5-2.7,3.3-5.2,5.5-7.5c1.2-1.2,2.4-2.4,4.3-2.6c0.6-0.1,1.3-0.5,1.8-0.9
		C638.4,531.9,639.3,531,640.2,530.2l0-0.2L640.2,530.2z M220,440.5c-1-0.3-1-1.8-2.2-1.8c-0.6,3.5-0.7,8-0.3,11
		c2,1.7,3.9,3.5,5.9,5.2c2.1,1.8,3.9,3.8,6.6,5c5.5-2.8,11.1-5.5,16.5-8.6c5.6-3.3,11-7,16.5-10.6c4.2-2.8,8.1-6,11.6-9.7
		c2.4-2.6,4.5-5.5,5.7-8.9c-0.3-0.4-0.5-0.9-0.8-1.2c-1.5-1.3-1.5-2.9-1.1-4.7c0.4-1.8,0.6-3.6,0.9-5.4c0.2-1,0-2-0.4-3
		c-1.1-2.4-2-4.9-3.1-7.3c-1.1-2.6-2.8-4.8-5.1-6.4c-2.7-1.9-5.5-3.7-8.3-5.4c-0.6-0.4-1.3-0.4-1.9-0.6c-1.4-0.4-2.9-0.8-4.3-1.3
		c-2.9-1.1-5.8-2.2-8.7-3.3c-0.7-0.3-1.4-0.9-2.4-0.4c1.5,1,2.6,2.2,4.2,2.9c1.7,0.8,3.3,2.1,4.8,3.2c0.5,0.4,0.7,1.1,1,1.6
		c-0.4,0.4-0.6,0.7-0.8,0.9c-2.4,1.6-4.9,1.7-7.5,0.6c-4.6-2-9.5-3.3-14.4-4.6c-0.9-0.2-1.8-0.6-2.7-0.6c-2.6,0.1-4.9-1.1-7.2-2
		c-2.8-1.1-5.5-2.4-8.2-3.6c-2.4-1.1-5-1.8-7.6-2.2c-3.9-0.5-7.7-1-11.6-1.5c-1.2-0.1-2.5-0.2-3.7,0.5c-0.1,0.6-0.3,1.2-0.3,1.7
		c0,0.6-0.8,1.2,0,1.8c0.2-0.1,0.5-0.1,0.7-0.2c1.5-1.3,3.1-1.8,5.1-1c0.6,0.2,1.4,0.2,2,0.3c3.9,0.5,7.7,1,11.6,1.6
		c5.9,1,10.8,3.8,14.8,8.2c2.9,3.2,5.3,6.6,5.2,11.3c0,0.6,0.1,1.2,0.3,1.7c1.5,3,1.1,6,0.6,9.1c-0.2,1.2-0.5,2.4-0.8,3.6
		c0.5,0.4,1,0.6,1.5,1c-0.8,0.1-1.4,0.2-2.3,0.3c-2.9,6.3-7.1,11.6-11.6,16.5c0,0.4,0,0.5,0,0.6c0.4,1.1,0.9,2.1,1.3,3.2
		C219.6,439,219.7,439.8,220,440.5L220,440.5z M304.3,519c1.6,1.6,3.1,3.2,4.8,4.6c1.7,1.5,3.5,2.9,5.5,4.2c2,1.3,4.2,2.4,6.4,3.3
		c4.4,1.9,8.9,3.5,13.9,3.1c2.7-0.2,5.5,0,8.2-0.1c2.4,0,4.8-0.1,7.2,0c1.2,0.1,2.3-0.1,3.4-0.3c3.9-1,7.8-1.9,11.7-2.9
		c0.8-0.2,1.9,0.1,2.6-1c-0.3-1.7-0.6-3.5-1-5.3c-1.1-5.5-1.8-11.1-1.8-16.7c0-5.7,0.1-11.5,0.5-17.2c0.4-4.8,1.4-9.5,2.5-14.2
		c0-0.2,0.2-0.5,0.3-0.6c0.1-0.1,0.4-0.2,0.6-0.2c0.2,0,0.5,0.2,0.5,0.4c0,0.7,0.1,1.3,0,2c-0.5,3.2-1.3,6.3-1.5,9.5
		c-0.6,8.8-0.2,17.7,0,26.5c0,1.4,0.3,2.7,0.5,4.1c0.3,3.5,0.6,7.1,0.9,10.6c0,0.5-0.1,1.2,0.8,1.5c1.1-0.3,2.3-0.6,3.7-1
		c0.1,1.1,0.8,1.2,1.7,1.3c2.8,0.2,5.5-0.4,8.2-0.6c7.7-0.4,15.4-0.7,23-0.8c7.7-0.1,15.1-1.2,22.2-4.2c0.2-0.1,0.3-0.2,0.5-0.4
		c-0.9-0.4-1.7-0.7-2.4-1c-0.1-1,0.4-1.2,1-1.3c2.6-0.1,4.9-0.9,7.3-1.8c1.2-0.5,2.4-0.7,3.6-1c0.3-0.1,0.9-0.1,1.1,0.7
		c-1.8,1.4-4.3,1.9-6.2,3.2c0.9,0.7,1.9,0.7,3,0.6c3.1-0.1,6.2-0.2,9.3-0.1c2.4,0.1,4.8,0.3,7.2,0.6c1,0.1,2,0.6,3,0.9
		c1.1,1.8,3,1.9,4.7,2.4c2.4,0.7,4.9,1.1,7.4,1.5c3.7,0.7,7.5,1.3,11.2,2c1.2,0.2,2.6,0.4,3.6,1.1c1.8,1.3,3.8,1.7,5.8,2.1
		c10.9,2.5,21.8,4.3,33,4.6c6.1,0.2,12.2,0.2,18.2,0.7c3.3,0.3,6.4-0.1,9.5-0.8c2.3-0.5,4.7-0.8,7.1-1c5.8-0.4,11.7-0.5,17.5-0.2
		c0.6,0,1.4,0.2,1.7-0.6c-4.8-4.1-4.8-4.1-5.9-6.3c0-2.6,0-4.7,0-6.8c-1.3-0.7-2.5-1.3-3.7-1.9c-2.7-1.5-5.7-2.4-8.8-2.9
		c-7.8-1.4-15.6-2.6-23.4-4c-2.2-0.4-4.4-1.3-6.7-1.6c-6.6-0.9-13.1-2.3-19.6-3.8c-6.1-1.4-12.3-3-18.2-5.2
		c-4.3-1.6-8.5-3.4-12.2-6.3c-0.8-0.6-1.8-1-2.8-1.3c-2.8-1-5.7-1.7-8.5-2.8c-3.9-1.5-7.9-2.4-11.9-3.3c-0.6-0.1-1.3,0-1.8,0
		c-0.2,0.5-0.3,0.8-0.4,1.2c-1.3-0.4-2.5-0.7-3.7-1c-14.3-4.2-28.6-8.3-43.1-11.7c-9.2-2.2-18.3-4.2-27.7-5
		c-8.8-0.7-17.6-1.1-26.4-1.6c-1.7-0.1-3.4-0.3-5.1-0.5c-0.6-0.1-1.3-0.2-1.6-0.5c-0.9-1.1-2-0.9-3.2-0.9c-4,0.1-8,0.3-12,1.2
		c-0.6,0.1-1.2,0-2.4,0c3.4-3.1,7.5-2.2,11.2-3.6c-2.4-1.4-4.6-2.3-6.9-2.9c-2.4-0.7-4.6-2-7.1-2.4c-0.5,0.8-0.8,1.6-1.3,2.2
		c-2.9,3.6-4.9,7.8-7.3,11.7c-0.3,0.5-0.5,1-0.7,1.6c-2.5,7.4-4.5,14.9-6,22.6c-0.2,1-0.2,2-0.3,3.1c2.9,0.9,5.6,1.8,8.4,2.7
		c-1.7,0.5-3.1-0.3-4.5-0.4c-1.4-0.2-2.8-1-4.2-0.6C307.1,510.4,305.8,514.6,304.3,519z M472.3,494.5c0.8,0.4,1.5,0.6,2.1,0.9
		c1.9,0.8,3.9,1.4,5.7,2.4c2.9,1.6,6,2.9,9.2,3.9c11.5,3.9,23.4,6.5,35.3,9.1c3.6,0.8,7.2,1.4,10.7,2.5c2.3,0.7,4.6,1.2,7,1.5
		c1.5,0.2,3,0.4,4.4,0.6c3.1,0.5,6.1,1.1,9.2,1.5c4.5,0.6,8.8,1.6,12.9,3.6c1,0.5,1.9,0.6,3,0.5c2.5-0.3,5-0.4,7.5-0.6
		c4-0.3,8-3.4,9.1-7.2c0.7-2.3,1.8-4.5,3-6.5c0.5-0.8,1-1.5,1.5-2.4c-0.4-0.2-0.7-0.5-1-0.6c-3.2-0.9-6.4-1.9-9.6-2.5
		c-4.6-0.9-9.3-1.5-13.9-2.3c-6-1.1-11.9-2.3-17.4-5.1c-0.4-0.2-0.9-0.3-1.3-0.5c-4.3-1.3-8.3-3.2-12.3-5.2
		c-3.4-1.7-6.8-3.3-10.4-4.4c-6-1.9-12-3.9-17.8-6.5c-0.6-0.3-1.3-0.5-1.9-0.7c-5.2-2-10.8-3-15.9-5.6c-0.2-0.1-0.4-0.1-0.7-0.2
		c-4.5-0.7-8.4-2.8-12.4-4.9c-1.2-0.6-2.5-1.3-3.4-2.3c-1.6-1.9-3.5-2.3-5.7-2.6c-1.9-0.3-3.9-0.5-5.8-0.1c-1,0.2-2.1,0.1-3.1,0.2
		c-4.3,0.3-8.7,0.6-13,0.9c-0.3,0-0.7,0.1-1,0.1c-1.8,0.2-3.6,0.5-5.4,0.6c-5.1,0.2-10.1-0.3-15.1-1.2c-7.2-1.4-14.5-2.2-21.9-2.5
		c-11.2-0.5-22.5-0.8-33.7,0.8c-2.2,0.3-4.5,0.4-6.7,1.2c-0.5,3.5,0.9,6.6,1,10c2.3,0.1,4.5,0.3,6.7,0.4c7.1,0.3,14.2,1.1,21.2,2.5
		c11.8,2.2,23.5,5.3,35.1,8.4c6.3,1.7,12.6,3.3,18.7,5.8c2.4,1,4.7,1.8,7.3,1.5c0.7-0.1,1.4,0.1,2,0.2c3.2,0.7,6.5,1.4,9.7,2.1
		c0.5,0.1,1.1,0.2,1.7,0.1c3.5-0.7,7.1-0.3,10.6-0.3c0.3,0,0.5,0.4,0.8,0.6C476.6,494.4,474.1,493.3,472.3,494.5z M233.2,460.2
		c0.4,0.6,0.5,0.8,0.7,1c6.3,5.7,12.8,11.2,19.5,16.3c1.3,1,2.6,1.8,4,2.7c6.7,4,13.1,8.5,19,13.7c5.8,5,11.2,10.5,16.8,15.8
		c1.3,1.3,2.5,2.7,4.4,3.3c0.5,0.1,0.9,0.7,1.2,1.1c0.9,1.4,2.2,2.3,3.6,3.1c1.2-2.1,3.4-8.2,3.8-10.6c1.4-9.1,3.4-18,6.6-26.7
		c0.5-1.4,0.9-2.8,2.2-3.8c0.2-0.1,0.1-0.6,0.1-1.1c-0.6-0.1-1.2-0.2-1.7-0.4c-0.5-0.2-0.9-0.5-1.4-0.7c0-0.1,0.1-0.3,0.1-0.4
		c1.2,0.1,2.4,0.2,3.7,0.3c0.7-1.4,1.4-2.8,2.1-4.1c0.7-1.2,1.4-2.4,2-3.6c0.7-1.3,1.9-2.3,2.2-3.9c-6.2-3.6-12.3-7.1-18.4-10.7
		c-0.6,0.1-1.2,0.3-1.8,0.4c-2.4-1.4-4.3-3.3-6-5.6c-2.3-3-4.6-6-6.9-9c-1.1-1.4-1.9-2.8-2.3-4.5c-0.6-2.9-2.8-6.1-5.3-8.4
		c-2.5,5.7-3.9,7.2-7.7,10.8c-2.5,2.4-5.1,4.7-7.9,6.6c-7.1,4.8-14.6,9.2-22.3,12.9C240,456.6,236.7,458.4,233.2,460.2z
		 M408.1,548.2c-0.5,0.5-1,0.8-1.3,1.2c-5.5,6.6-8,14.3-7.6,22.9c0.1,1.7,0.7,3.4,1.6,4.9c0.6,1,1.1,2,2.5,2c0.4,0,0.9,0.6,1.2,1.1
		c0.9,1.3,1.7,2.7,2.6,4.1c1.1,1.5,2.4,2.8,4.2,3.4c0.7,0.2,1.4,0.7,2,1.2c2.2,1.8,4.8,2.8,7.6,2.7c3,0,5.9,0.7,8.9,0
		c0.7-0.2,1.6,0.1,2.3,0.2c2.8-1.3,5.3-2.9,7.7-4.7c2.1-1.7,3.7-3.6,4.9-6.1c4.9-10.4,10.2-20.5,16.3-30.2c3.1-4.9,6.1-10,9.2-14.9
		c0.6-1.1,1.2-2.2,1.9-3.5c-0.9-0.2-1.5-0.4-2.2-0.5c-2.9-0.6-5.8-1.1-8.7-1.9c-2.5-0.6-5.1-1.4-7.2-3.1c-1-0.8-2-1.1-3.1-1.1
		c-4.9-0.1-9.8-0.3-14.8-0.4c-1.4,0-2.8,0.1-4.1,0.6c-3.2,1.1-6.4,2.5-9.2,3.6c-3.9,5.5-7.6,10.6-11.5,16.1c1.1-0.5,2-0.9,2.7-1.3
		c2.8-1.5,5.7-2.2,8.9-1.3c1.4,0.4,2.9,0.5,4.4,0.8c0.6,0.1,1.2,0.5,2.1,0.9c-0.6,0.4-1,0.7-1.3,0.8c-1.1,0.1-2.3,0.1-3.4-0.1
		c-1.9-0.2-3.9-0.5-5.8-0.8c-1.1-0.2-2-0.2-3,0.4c-2.1,1.1-4.2,2.2-6.6,3.5C409.3,548.6,408.8,548.5,408.1,548.2z M623.1,501.8
		c-0.5,0.6-0.8,1.2-1.2,1.3c-0.5,0.1-1.2,0-1.6-0.3c-0.7-0.4-1.2-1-1.9-1.7c-1.2,0-2.4,0-3.6,0c-1,0.6-0.4,2.2-1.7,2.4
		c-1.6-0.2-1.1-2-2.4-2.8c-0.9-0.1-2.1-0.2-3.4-0.3c-0.3,1.1-0.4,1.9-0.8,2.8c-0.1,0.3-0.7,0.5-1.1,0.6c-0.2,0-0.6-0.4-0.7-0.6
		c-0.3-1.1-0.5-2.2-0.7-3.3c-2.9-0.5-5.6-1.3-8.6-0.5c0,0.7,0,1.4,0,2c0.6,0.2,1.5-0.3,1.7,0.7c0,0.1,0,0.2-0.1,0.3
		c-0.1,0.2-0.2,0.4-0.4,0.6c-3.4,3.4-6,7.2-6.8,12.1c-0.1,0.6-0.5,1.3-0.9,1.8c-1.3,1.3-2.7,2.5-4.1,3.7c-1.4,1.1-3,1.8-4.7,1.9
		c-2.6,0.1-5.2,0.7-7.8-0.5c-0.6,3.1,0.2,6.2-0.9,9.1c0.7,0.7,1.4,1.4,2.2,2.1c0.7,0.6,1.5,1,2.3,1.5c0.6,0.4,1.3,0.6,1.7,1.2
		c2.3,2.8,4.3,5.7,4.8,9.4c0.2,1.4,0.5,2.7,0.7,4.2c0.9,0.4,1.9,0.8,2.7,1.3c2.7,1.6,5.5,1.3,8.2,0.2c1-0.4,1.9-0.8,2.8-1.2
		c4.2-1.6,7.8-4.4,11.2-7.2c2.2-1.8,4.3-3.7,6.6-5.5c0.9-0.7,2-1.2,3.1-1.4c3.5-0.8,6.8-1.9,10.2-3.1c6.8-2.4,12.9-5.9,18.5-10.4
		c3.7-2.9,6.5-6.4,8.1-10.9c1.5-4.2,3.7-8.2,3.8-12.7c-1.4-2-2.8-3.9-4.2-5.9c-1.6-0.1-3-0.2-4.2,1.1c-0.4,0.5-1.1,0.8-1.7,1.1
		c-4.2,2.2-8.4,4.1-13,5.2C631.3,501,627.3,502.4,623.1,501.8z M361.9,471c0.2-3.5-0.8-6.5-1-9.7c-0.9,0.1-1.5,0-2.2,0.1
		c-4.7,0.9-9.4,1.8-14.2,2.7c-0.7,0.1-1.4,0.3-2,0.2c-2.4-0.2-2.5-0.2-4.9,0.7c1.8,1.2,3.6,2.4,5.6,3.7c2.1,0,4.3,0,6.5,0
		c0.5,0.8,1,1.4,1.4,2C354.7,470.9,358.1,470.9,361.9,471z M167.8,373.1c0.8-2.1,0.9-4.3,1-6.4c0.4-7.3-1.2-14.5-2.2-21.7
		c0-0.2-0.4-0.3-0.7-0.5c-0.5,3.6,0,7.1,0.7,10.4c1.2,5.4,1.5,10.8,1.1,16.3C167.6,371.9,167.8,372.5,167.8,373.1z M159.9,346.7
		c0-2.4,0-4.8,0-7.2C159.6,341.9,159.1,344.3,159.9,346.7z M238,568.4c-0.1,0.9-0.2,1.4-0.1,1.8c0,0.3,0.2,0.6,0.4,0.9
		C239.5,569.9,239.5,569.9,238,568.4z"/>
	<path d="M253.1,39c-1.4,0.2-2.4-0.6-3.5-1.1c-1.7-0.8-3.4-1.7-5.2-2.7c1.2,2,1.4,2.3,3.8,3.9c1.5,1,3,1.9,4.6,2.9
		c-0.4,0.8-1,0.5-1.4,0.4c-1.5-0.5-2.9-1.1-4.6-1.8c0.1,1,0.8,1.4,1.3,1.9c0.5,0.5,1,0.9,1.5,1.4c0.7,0.7,1.8,1,2.1,2.1l0.1-0.1
		c-0.3,0-0.7,0.1-1,0c-3.1-1.6-5.7-3.7-7.7-6.7c-1.1-1.7-1.6-3.5-2.2-5.4c-0.3-0.8-0.1-1.9-1.4-2.3c-0.8,1.8-0.9,3.7-0.4,5.6
		c0.2,0.8,0.7,1.5,0.7,2.3c0.2,3.2,0.8,6.3,1.5,9.5c0.6,2.5,1.4,4.8,2.4,7.1c0.4,0.8,1,1.5,1.5,2.2c1.1,1.3,2.1,2.7,3.3,3.9
		c1.8,1.9,2.6,4.3,3.1,6.8c0.4,2,0.7,4.1,0.9,6.1c0.8,7,1.6,13.9,1.4,20.9c0,0.4,0.1,0.9,0.2,1.2c4.4-0.2,8.6-0.3,12.8-0.6
		c4.1-0.3,8,0.2,11.9,1.4c2.6,0.8,5.2,1.8,7.8,2.8c1.6,0.6,3.3,0.9,5,1c3.3,0.2,6.6,0.6,9.9,1c0.7,0.1,1.4,0.2,2,0.2
		c1.7-1.3,1.7-1.3,4.4-1.5c-0.7-0.5-1.1-0.9-1.6-1.2c-1.8-0.8-3.6-1.5-5.4-2.2c-3.5-1.3-7.1-2.6-10.7-3.8c-0.3-0.1-0.7-0.1-1-0.2
		c-0.9,0.7,0.5,1.2-0.1,2c-1,0.1-2.1-0.3-2.8-1.2c-1.6-2-3.3-3.8-4.5-6.1c-1.8-3.6-2.1-8.3,0.4-11.5c1.2-0.7,2.6-0.5,3.9-0.3
		c3.5,0.5,7.1,0.7,10.6,0.5c0.8-0.1,1.5-0.3,2.3-0.5c0.6-1.4,1.1-2.7,0.6-4.1c-0.5-1.5-0.1-2.7,0.7-3.9c0.4-0.5,0.6-1.2,0.8-1.9
		c0.3-1.3-0.7-2.2-2-1.9c-0.5,0.2-1.1,0.5-1.6,0.6c-0.5,0-1.1-0.2-1.9-0.4c0.5-0.5,0.8-1,1.1-1.1c1.1-0.3,2.2-0.4,3.4-0.6
		c1.7-0.4,2-1,1.8-2.7c-0.1-0.6-0.3-1.1-0.3-1.4c-0.6-1.2-2.2-0.8-2.3-2.1c2.1-0.5,4.2-0.9,6.3-1.4c1.1-0.3,1.9-0.8,1.9-2.1
		l-0.1,0.1c0.7,0.1,1.1,0.5,1.1,1.1c0,0.5-0.3,1.1-0.7,1.5c-0.5,0.4-1.2,0.6-1.8,0.9c-0.4,0.2-0.9,0.3-1.3,0.4
		c-0.4,0.1-0.8,0.3-1.4,0.5c-0.1,0.7-0.4,1.5-0.2,2c0.7,1.8,0.3,3.1-1.1,4.1c0.2,1.2,0.7,2.4,0.5,3.4c-0.1,0.9-0.9,1.8-1.3,2.7
		c0.1,1.9,0.5,3.9,0,5.8c-2,2.5-5,2.5-7.8,2.7c-1.5,0.1-3,0.1-4.5-0.1c-1-0.1-2-0.5-3-0.7c-0.7-0.2-1.5-0.4-2.4-0.6
		c-0.2,0.7-0.5,1.2-0.5,1.8c-0.2,2.1,0.1,4.1,0.7,6.1c0.5,1.7,1.4,2.8,3.1,3.4c4.5,1.4,8.9,2.9,13.5,4.2c3.5,1,7.2,1.6,10.7,2.6
		c4.3,1.3,8.6,2.1,12.9,3.4c2.4,0.7,4.8,1.5,7.2,2.3c2.5,0.8,4.9,2,6.9,3.7c2.5,2,4.3,4.5,5.2,7.5c0.4,1.2,0.8,2.3,1.7,3.3
		c1.4,1.3,1.6,3.3,1.7,5.1c0.1,2.6,0.2,5.3-0.8,7.9c1.6,1.5,3.2,2.9,4.6,4.3c1.7,1.7,3.4,3.4,5,5.2c0.9,1,1.8,2.1,1.1,3.7
		c-0.1,0.3,0.1,0.9,0.3,1.3c1.6,3,3.2,6.1,4.9,9.1c0.4,0.8,1,1.5,1.7,2.1c4.2,3.5,8.7,6.8,13.9,8.8c0.2,0.1,0.4,0.2,0.6,0.3
		c3.5,0.8,6.6,2.6,9.9,3.9c3.2,1.2,6.5,2.2,9.8,3.2c1.6,0.5,3,1.1,3.6,2.8c2.4,0.3,4.7,0.4,6.9-0.3c1.2-0.4,2.5-0.3,3.8-0.4
		c1.7-0.1,3.3-0.4,4.9-1.3c1.6-0.9,3.3-1.6,5.1-2c7.8-1.8,15.6-3.7,23.6-4.5c11.7-1.1,23.4-1.7,35.1-0.7c6.1,0.5,12.1,1.1,18.1,1.8
		c6.6,0.7,13.2,0.7,19.9-0.5c4.2-0.8,8.4-1.3,12.6-1.7c4.6-0.5,8.8,0.4,12.9,2.8c5.7,3.3,11.7,5.8,17.9,7.7
		c4.4,1.3,8.9,2.4,13.3,3.5c2.3,0.6,4.6,1.3,7,1.9c4.1,1.1,8.2,2.1,12.3,3.2c3,0.9,5.9,1.8,8.8,3c5.5,2.3,10.9,4.8,16.4,7.1
		c3.3,1.4,6.8,2.2,10.3,2.8c3.6,0.6,7.3,1,10.9,1.6c0.7,0.1,1.4,0.2,2,0.3c2.7,0.7,5.4,0.9,8.2,1.1c3.1,0.3,6.1,1,9.2,1.5
		c0.5,0.1,1.1,0.2,1.5,0.3c0.9-1.2-0.6-2,0-3.5c0.7-0.8,2-1.1,3.4-1.1c1.6-0.1,3.2,0.1,4.8-0.5c0.6-0.2,1.3,0.1,2,0.1
		c2.6,0.2,5.2,0.5,7.9,0.6c3.2,0.1,6.4,0,9.6,0.5c2.1,0.3,4.3,0.5,6.4-0.5c0.6-0.3,1.3-0.2,2-0.3c4.4-0.1,7.9-2.4,10.6-5.6
		c1.7-2,3.7-3.3,5.9-4.6c1.4-0.9,2.8-1.1,4.1,0.1c1.4,1.2,3,1.5,4.9,1.3c1.8,1.8,3.6,3.5,5.4,5.3c0.5,0.5,1,1,1.4,1.5
		c1.3,1.6,1,2.4-1.3,3.7c-0.6,3.1-1.9,6.2-3.5,9.1c-0.3,0.6-0.6,1.3-0.7,1.9c-0.4,3.3-1.8,6.2-4,8.6c-2.7,2.8-5,6-7.5,9
		c-1.2,1.4-2.4,2.8-3.7,4.1c-1.4,1.2-2.8,2.4-4.4,3.2c-1.3,0.7-2.3,1.5-3.1,2.6c-1.3,1.8-2.5,3.5-3.4,5.6c-2.1,4.7-5.1,9-8.9,12.6
		c-3.4,3.3-7.3,5.9-12,7.5c-0.4,0.6-0.8,1.2-1.2,1.9c-3.1,0.2-4.8-2.8-7.5-3.1c-1.6-3-2.7-6.2-5.6-8.4c-0.6,0.1-1.3,0.1-2,0.3
		c-2.7,0.6-5.2-0.3-7.6-1.2c-2-0.8-3.4-2.4-3.3-4.8c0-2.1-0.8-4-1.7-6c-0.7,0-1.4,0.1-2.1,0.1c-1.1,0.1-2.3,0.3-3.4,0.1
		c-3-0.4-6-0.1-8.9,0.1c-1.1,0.1-2.3,0.2-3.4,0.2c-3.8,0.1-7.5,0.7-11.2,1.7c-3.8,1.1-7.6,1.6-11.5,1.6c-3.6,0-7.1,0.1-10.7,0.2
		c-0.7,0-1.4,0.2-2.1-0.1c-2.1-0.8-4.3-0.5-6.5-0.5c-9.4,0-18.8-0.9-28-2.9c-4-0.9-7.9-2.3-11.9-3.3c-4-1-8-1.9-12.1-2.8
		c-0.7-0.1-1.4-0.1-2.1-0.1c-2.8,0-5.5,0-8.3,0c-3.9,0-7.8,0.5-11.6,1.3c-5.9,1.2-11.8,1.6-17.8,1.2c-1.8-0.1-3.6-0.2-5.4-0.4
		c-0.2,0.3-0.5,0.4-0.5,0.6c-2,8.5-5.4,16.6-8.6,24.7c-2.2,5.4-4.4,10.8-5.9,16.5c-1,3.8-2.6,7.4-5.4,10.2c-1.1,1.1-2.4,2.1-3.7,3.1
		c-1.3,1-2.6,1.8-3.8,2.8c-2.9,2.1-6.1,2.7-9.4,3c-3.5,0.3-7.1,0.2-10.5-1.2c-0.6-0.3-1.3-0.4-2-0.5c-4.6-0.6-8.2-2.9-10.5-6.9
		c-0.5-0.8-0.9-1.5-1.8-2c-0.6-0.3-1.1-0.9-1.4-1.4c-2.2-3.6-3.9-7.3-3.8-11.6c0.1-2.9,0.5-5.7,0.9-8.5c0.7-6.6,4-12.1,7.7-17.4
		c0.9-1.3,2-2.5,2.9-3.9c0.4-0.5,0.5-1.2,0.8-1.8c0,0,0.2-0.1,0.2-0.1l-0.1,0.1c-3,2.4-6.7,3.4-10.2,4.8c-5.9,2.4-5.9,2.2-12.3,2.1
		c-7.6-0.2-14.7-2.2-21.6-5.3c-2.2-1-4.2-2.4-6.2-3.7c-3.1-2.1-6.2-4.4-9.2-6.7c-1.5-1.2-3.1-2.4-4.4-3.8c-5-5.2-10.2-10.3-15.6-15
		c-1.7-1.4-3.3-2.8-5.4-3.6c-0.7-0.3-1.4-0.7-2.1-1.2c-7.9-5.2-15.9-10.5-23.8-15.7c-1.1-0.8-2.3-1.5-3.5-2.2
		c-6.4-3.4-12.5-7.3-18.6-11.2c-6.7-4.3-13.5-8.3-20.2-12.5c-7.6-4.8-14.4-10.6-20.8-16.9c-0.2-0.2-0.4-0.2-0.5-0.3
		c-2.1,1.1-3.5,2.8-5.2,4.3c-1.9,1.8-4.1,3.3-6.3,4.8c-2.9,2-5.5,4.4-7.8,7.2c-2.8,3.4-6.2,6.4-9.3,9.6c-1,1.1-2.1,2.1-3.3,3.4
		c0,3.9-1.5,7.6-3.1,11.3c-2.7,5.8-5.4,11.7-8.1,17.5c-1.1,2.3-2.3,4.5-4.1,6.4c-0.2,0.2-0.4,0.5-0.6,0.8c-2.2,4.9-4.3,9.9-4.6,15.4
		c-0.1,1.2,0.1,2.5,0.2,3.7c2.3,1,4.6,1.2,6.8,1.7c3,0.6,6.1,1,9.2,0.9c2.5-0.1,5,0.1,7.6,0c1.9,0,3.7,0.4,5.3,1.2
		c2.6,1.3,5.2,2.3,8.2,2.5c1.1,0.1,2.2,0.6,3,0.8c0.9,1,0.8,1.9,0.7,2.9c-0.3,1.5-1,2.2-2.5,2.3c-0.6,0.1-1.1,0-1.7,0
		c-4.8,0.1-9.6,0.2-14.6,0.3c-0.4,0.5-0.8,1.1-1.3,1.8c-4.1-0.1-8.2,0.3-12.2-0.9c-1.3-0.4-2.7-0.3-4.1,0c-4.5,1.2-8.6,0.8-12.2-2.5
		c-0.2-0.2-0.4-0.2-0.8-0.5c-0.3,0.7-0.7,1.4-0.8,2.1c-0.1,2.5-0.9,4.9-0.5,7.4c2,1.1,4,1.3,6.1,1.4c1.5,0.1,3,0,4.5,0.1
		c0.8,0,1.8,0,2.3,0.4c1.4,1.2,3,1,4.6,1c0.9,0,1.8,0,2.7,0.2c0.5,0.1,1.3,0.4,1.4,0.8c0.5,1.5,1.7,1.9,2.9,2
		c2.9,0.1,5.3,1.5,7.6,2.9c1.3,0.8,2.8,0.9,4.2,1.3c1,0.3,2,0.5,2.9,0.9c1.2,0.6,1.5,2.7,0.5,3.6c-0.9,0.7-1.9,1.4-2.9,1.7
		c-1.4,0.4-2.9,0.4-4.4,0.6c-0.7,0.1-1.3,0.2-2,0.4c-3,0.8-5.9,0.7-8.7-0.4c-0.9-0.3-1.7-0.7-2.6-0.9c-0.4-0.1-0.9-0.1-1.5-0.2
		c0.1,0.5,0.4,1,0.3,1.4c-0.1,0.3-0.6,0.7-1,0.7c-2.3,0.5-4.5,0.6-6.7-0.6c-2.8-1.5-5.8-2.1-8.9-1.9c-0.9,0-1.8-0.2-2.7-0.2
		c-0.9-0.1-1.8,0-2.7,0.4c-4.4,1.5-9.9-1.7-10.9-6.3c-0.1-0.7-0.1-1.4,0-2c0.1-1.6,0.3-3.2,0.4-4.8c0-0.6,0.2-1.2,0-1.7
		c-1.5-4.6-0.2-9.1,0.2-13.6c0.5-5.2,1.6-10.4,2.8-15.6c0.1-0.6,0.3-1.1,0.4-1.7c1.2-12,4-23.7,8.1-35.1c0.4-1.1,0.8-2.2,1.1-3.3
		c0.2-0.5,0.4-1.1,0.4-1.7c0-2.2,0.9-4.2,1.6-6.3c0.5-1.4,1.1-2.7,2-4c1.5-2.1,2.4-4.4,4.2-6.3c0.5-0.5,0.8-1.4,1.1-2.1
		c1.5-3.1,3.2-6.1,5.4-8.8c4.1-5.4,8.4-10.6,13.6-15c4-3.4,7.1-7.5,10.1-11.7c0.9-1.3,1.6-2.8,2-4.4c0.9-3.9,2.5-7.6,4.4-11.2
		c0.9-1.7,1.8-3.4,2.7-5.1c0.9-1.7,2.3-3.2,3.8-4.4c2.4-1.8,2.9-4.3,2.5-7c-0.8-6-1.6-12.1-1.9-18.1c-0.2-4.1-0.7-8.2-1-12.3
		c-0.2-2.3-1.1-4.2-2.4-6c-1-1.3-2-2.5-3.1-3.7c-2.9-3.4-5.3-6.9-6-11.4c-0.1-0.3-0.3-0.6-0.6-1.1c-0.2,0.4-0.4,0.6-0.5,0.9
		c-2.2,7.2-1.9,14.5-1.2,21.8c0.5,5,1.3,10,1.3,15.1c0,3.3-0.2,6.7-1.4,9.8c-0.5,1.3-1.1,2.5-2,3.7c0.2-1.7,0.4-3.5,0.7-5.2
		c0.7-4.6,0.5-9.2,0.2-13.7c0-0.1,0-0.2,0-0.3c-0.7-2.9,0-5.9-0.8-8.9c-0.7-2.7-0.9-5.7-1.2-8.5c-0.4-2.9-0.3-5.7,1.1-8.4
		c0.4-0.8,0.5-1.8,0.7-2.6c0.7-2.3,1.3-4.6,2.2-6.9c0.8-2.1,1.2-4.2,1.2-6.4c0-1.9,0.2-3.9,0.4-5.8c0-0.4,0.3-0.8,0.5-1.5
		c0.7,0.2,1.5,0.1,1.9,0.5c3.8,3.2,8.2,5.5,12.5,7.9C252.8,38.6,252.9,38.9,253.1,39L253.1,39z M311.6,105.1
		c0.2,0.1,0.3,0.3,0.5,0.4c0.1,0,0.3-0.1,0.4-0.2c-0.1,0-0.2,0-0.3-0.1C311.9,105.3,311.7,105.2,311.6,105.1
		c-0.3-0.1-0.5-0.2-0.4-0.1C311,104.9,311.3,105,311.6,105.1z M230.4,265.5c0.1,0.1,0.1,0.2,0.2,0.2
		C230.5,265.7,230.4,265.7,230.4,265.5c-2.1-1.7-4.6-1.7-7-1.9c-1.1-0.7-2.3-1.4-3.4-2.3c-1-0.8-2-1-3.2-1.1
		c-5.2-0.1-10.3-0.5-15.3-1.8c-0.2-0.1-0.4,0-0.7,0.1c-0.3,0.3-0.7,0.6-1,0.9c-1.4-0.6-1.9-1.6-1.7-3.1c0.2-0.9,0.5-1.8,0.3-2.7
		c-0.3-1.6,0-3.2,0.4-4.8c1.1-4.1,2.3-8.2,3.7-12.2c0.7-1.9,1.8-3.7,2.6-5.6c2.8-6.4,5.5-12.9,8.2-19.3c0.5-1.2,0.8-2.4,1.2-3.6
		c1.6-4.9,3.1-9.9,4.7-14.7c0.8-2.4,2-4.6,2.8-7c0.7-2.3,2.1-4,3.9-5.5c2.7-2.2,5.2-4.5,7.8-6.8c0.8-0.7,1.5-1.5,1.9-2.4
		c1.7-3.1,3.9-5.7,6.6-7.9c2.8-2.2,5.7-4.3,8.5-6.4c2.6-2,5.2-4.1,7.8-6.3c1.5-1.3,2.6-3.2,4.9-3.5c0.4-0.1,0.8-0.5,1.1-0.7
		c2.6-1.7,5.2-3.4,7.8-5c0.7-0.4,1.4-0.7,2.4-1.3c0,0.7,0.2,1.2,0.1,1.4c-0.9,1-1.8,2.1-2.9,2.9c-1.9,1.4-3.8,2.5-5.7,3.8
		c-0.5,0.4-1,0.8-1.5,1.3c0.3,0.4,0.5,0.7,0.8,0.9c2.7,1.9,5.5,3.8,8.2,5.7c0.9,0.6,1.9,0.6,3,0.4c2.8-0.6,5.1-2.1,6.7-4.5
		c2.1-3.2,4.1-6.4,6-9.7c1.9-3.3,3.6-6.7,4.7-10.3c0.4-1.4,0.8-2.9,0.7-4.4c-0.2-2.8-0.8-5.7-1.2-8.5c-0.1-1-0.1-2-0.2-3.2
		c-4.5-6.4-10.8-10.6-18.5-12.3c-5.3-1.1-10.7-1.4-16.1-1.4c-0.7,0-1.4,0.2-1.9,0.6c-1.9,1.5-3.8,3-5.4,4.8
		c-1.5,1.6-2.6,3.5-3.8,5.3c-2.2,3.2-4.1,6.6-5.2,10.4c1,3.3,1,5.6-0.2,7.9c-1.1-0.8-0.1-2.3-1-3.3c-1,2.1-1.6,4.5-2.9,6.2
		c-2.5,3.4-4.8,7-8.2,9.6c-3.5,2.8-6.6,6-9.3,9.6c-0.7,0.9-1.5,1.8-2.2,2.6c-0.8,0.9-1.8,1.7-2.6,2.7c-5.4,6.9-9.6,14.5-14,22
		c-0.4,0.7-0.8,1.5-0.8,2.2c0,3.1-1.1,5.8-2.1,8.7c-2.1,6.2-4,12.5-5.2,18.9c-1.5,7.5-3.1,15.1-4.5,22.6c-1.2,6-1.8,12-1.6,18.1
		c0.1,4.1,0.5,8.2-0.7,12.1c0.8,1.8,1.8,3.2,3.1,4.3c0.6,0.5,1.3,1.2,2,1.2c2.8,0.3,5.6,1.4,8.5,0.5c0.8-0.2,1.6-0.5,2.4-0.3
		c2.6,0.5,5.2,0.4,7.6,1.8c1.3,0.7,2.7,1.4,4.5,0.7c-1.4-1-2.6-1.9-3.4-3.4c-0.3-0.5-1.1-0.8-1.7-1.1c-1.7-0.6-3.5-1.1-5.2-1.7
		c-0.4-0.1-0.6-0.5-1.1-0.9c0.6-0.1,1-0.3,1.3-0.3c2.1,0.4,4.3,0.9,6.4,1.4c0.5,0.1,1.1,0.5,1.4,0.9c1.5,2.1,3.7,2.5,6,3.1
		c1.3,0.3,2.7,0.6,4,1.1c2.3,0.9,4.8,0.8,7.1,0.4c0.9-0.2,1.6-0.4,2.5-0.1c1.8,0.5,3.6,0,5.1-1.5c-0.4-0.5-0.7-0.9-1-1.1
		c-0.6-0.3-1.3-0.5-2-0.6c-4.8-1-9.5-2.6-14.1-4.3c-0.7-0.3-1.5-0.4-1.9-1.5c0.5-0.1,0.9-0.2,1.3-0.2c1.3,0.3,2.7,0.6,4,0.9
		c1.5,0.6,3,1.3,4.6,1.9C228.8,265.6,229.6,265.5,230.4,265.5z M709.5,192.4c0.7,0.3,1.3,0,1.9-0.4c2.2-1.2,4.4-2.3,6.7-3.5
		c0.1-0.1,0.1-0.3,0.2-0.5c-0.5-0.7-1.1-0.9-1.8-0.5C714.1,189,711.6,190.4,709.5,192.4c0,0.2,0,0.3,0,0.3
		C709.5,192.7,709.5,192.5,709.5,192.4z M216.5,211.1c0.2-0.2,0.5-0.5,0.6-0.7c3.1-6.9,6.2-13.7,9.3-20.6c0.8-1.8,1.4-3.6,2-5.5
		c0.2-0.5,0.5-1-0.2-1.6c-1.3,0.9-2.6,1.8-3.7,2.6c-0.6,1.8-1.2,3.4-1.7,5.1c-2,6-3.9,11.9-5.8,17.9
		C216.8,209.2,216.8,210.2,216.5,211.1c-0.1,0.2-0.3,0.3-0.4,0.5c0,0.1,0.1,0.3,0.2,0.5c0-0.1,0.1-0.2,0.1-0.3
		C216.5,211.5,216.5,211.3,216.5,211.1z M709.7,227.9c-0.7,0.2-1.5,0.4-2.2,0.7c-2.1,0.9-4.2,1.9-6.3,2.7c-1.2,0.5-2.4,0.8-3.6,0.9
		c-1.4,0.1-2,1.5-3.3,1.8c-0.7,0.2-1.3,0.4-2,0.6c-1,0.3-2,0.6-3,0.8c-1.3,0.4-2.5,1-3.6,2c-2,1.9-4.1,3.7-6.2,5.4
		c-2.5,2-5.1,3.9-7.7,5.8c-0.8,0.6-1.8,1-2.7,1.3c-1.2,0.4-2.3,0.8-3.4,2c2,2.3,3.5,4.9,4.7,7.5c0.3,0.6,0.9,1.1,1.4,1.4
		c0.9,0.5,1.8,0.9,2.6,1.2c1.3-0.8,2.5-1.5,3.7-2.1c4.5-2.3,8.7-5.2,12-9.1c2.4-2.8,4.5-5.8,6.2-9.1c1.4-2.9,3.2-5.6,5.4-7.9
		c0.8-0.8,1.7-1.8,2.7-2C707,231.4,708.3,229.6,709.7,227.9c0-0.1,0-0.2,0-0.2C709.8,227.7,709.7,227.8,709.7,227.9z M288.2,156.8
		c-1.6-0.2-1.6-2.2-3-2.7c-1.2,1-2.4,2.1-3.7,2.9c-1.3,0.9-2.7,1.6-4,2.3c3.1,3.3,18.8,14.6,23.2,16.6c0.3-0.1,0.6-0.2,0.9-0.4
		c4.9-3.2,9.8-6.5,14.6-9.7c0.2-0.1,0.4-0.3,0.5-0.4c4.5-3.7,9.1-7.4,13.6-11c3.7-3,7-6.3,10-9.9c2.8-3.4,5.2-7,6.3-11.4
		c-0.2-0.3-0.3-0.6-0.5-0.8c-2.1-1.5-2.3-3.5-1.8-5.8c0.3-1.8,0.2-3.7,0.2-5.5c0-0.4,0-1-0.2-1.3c-1.9-3.3-3.8-6.6-5.9-9.7
		c-0.9-1.3-2.2-2.3-3.5-3.3c-3-2.2-6.4-3.5-9.8-5.1c-0.5-0.2-1.1-0.4-1.7-0.4c-2.6,0-5-0.8-7.4-1.5c-2.2-0.6-4.4-1.1-6.7-1.7
		c-0.7-0.2-1.3-0.2-2.7-0.5c2.3,1.4,3.9,2.5,5.8,3.1c1.5,0.5,2.9,1.4,4.2,2.2c0.7,0.4,1.3,1,1.2,2.1c-1.5,1.8-3.5,2.7-5.9,2.4
		c-1.7-0.2-3.4-0.6-5-1.1c-4.5-1.3-9.2-1.7-13.9-2.5c-3.5,0.4-6.8-0.7-10-1.8c-5.8-2-11.6-3.5-17.8-3.3c-2.2,0.1-4.4-0.1-6.5-0.2
		c-1.7,0-3.4,0.2-5.1,0.8c-0.3,1.2-0.5,2.4-0.3,4c0.8-0.6,1.3-1,1.8-1.4c0.7-0.7,1.6-0.9,2.5-0.9c5.3,0.2,10.5,0.4,15.8,0.7
		c2.4,0.1,4.8,0.5,7,1.6c2.3,1.1,4.5,2.3,6.5,3.7c1.7,1.2,3,2.9,4.4,4.3c3.1,3,2.9,7.3,4.7,10.9c0.4,0.8,0.5,1.8,0.6,2.7
		c0.1,0.8,0.1,1.6,0.1,2.4c-0.1,1.9-0.2,3.9-0.3,5.9c0.6,0.2,1.2,0.5,2,0.8c-1,0.2-1.9,0.3-2.8,0.5c-2.1,6.7-5.9,12.4-9.9,18.1
		c0.7,1.2,1.2,2.2,1.7,3.2C288.1,155.9,288.1,156.4,288.2,156.8L288.2,156.8z M428.1,260.6c-0.5,2.9-1.4,5.8-1.8,8.9
		c-0.5,3.7,0.2,7,1.4,10.4c1.5,4.1,4.2,7.3,6.9,10.6c1.4,1.7,3.3,2.8,5.4,3.4c1,0.3,2,0.5,2.9,0.9c3.6,1.6,7.3,2,11.1,1.6
		c2.9-0.3,6-0.6,8.3-2.8c0.3-0.2,0.6-0.4,0.9-0.5c4.3-2,7.3-5.4,9.2-9.4c2.5-5.3,4.3-10.8,6.4-16.3c0.5-1.4,0.8-2.9,1.1-4.3
		c0.1-0.6,0.3-1.1,0.5-1.6c2.1-5.4,4.3-10.9,6.3-16.4c0.8-2.3,1.4-4.6,2.1-6.9c0.2-0.9,0.4-1.8-0.3-2.8c-1.8-0.3-3.7-0.5-5.6-0.8
		c-4-0.7-7.8-1.8-11.4-3.6c-0.6-0.3-1.3-0.5-1.3-1.5c0.3-0.1,0.6-0.4,0.8-0.3c0.8,0.2,1.5,0.4,2.3,0.7c4.1,1.5,8.3,2.7,12.6,3.3
		c0.5,0.1,0.9,0.1,1.3,0.3c2.7,1.2,5.5,1.5,8.3,2c5.2,0.9,10.3,0.5,15.4-0.2c0.4-0.1,1-0.2,1.2-0.5c0.8-0.9,1.8-0.9,2.8-0.9
		c1-0.1,2.1-0.1,3.1-0.3c5.7-1,11.4-1.2,17.1-1.1c0.7,0,1.4,0,2.1,0.1c4.4,0.9,8.7,1.9,13.1,2.9c1.2,0.3,2.4,0.8,3.4,1.6
		c1.4,1,2.8,1.5,4.4,1.7c3.6,0.6,7.2,1.3,10.9,1.8c6.4,0.8,12.8,1.6,19.2,1.6c5.6,0,11.2-0.3,16.9-0.1c6,0.2,11.8-0.2,17.7-1.9
		c4.5-1.3,9.3-1.2,14-1.4c2.8-0.1,5.5-0.1,8.3-0.2c0.4,0,0.8-0.3,1.4-0.5c-2.7-2.2-5.6-3.8-6.9-6.8c0.8-2.3,0.1-4.4-0.1-6.4
		c-0.9-0.4-1.6-0.7-2.3-1.1c-3.5-1.8-7.3-2.7-11.1-3.2c-7-0.9-14.1-1.8-21.1-2.8c-2.8-0.4-5.6-1.2-8.5-1.5
		c-6.9-0.6-13.6-1.8-20.4-3.1c-5.6-1.1-11.3-2.2-16.7-4c-4.7-1.5-9.4-3.1-13.4-6.2c-0.6-0.5-1.4-0.6-2.2-0.8
		c-2.8-0.8-5.6-1.3-8.3-2.3c-3.7-1.4-7.5-1.9-11.3-2.8c-1.1-0.2-2.2-0.5-3.3-0.1c-0.1,0.4-0.2,0.7-0.3,1.1c-2.4-0.6-4.7-1.1-7.1-1.7
		c-18.7-4.7-37.5-8.9-56.5-11.7c-5.7-0.8-11.4-1.2-17.1-1.1c-0.4,0-0.9,0.2-1.2,0.3c-2.1,6-2.7,12-2.4,18.1c0,1.3,0,2.5,0.1,3.8
		c0.4,6.6,0.5,13.3,1.4,19.9c0.5,3.9,1.1,7.7,1.7,11.6c0,0.3,0.3,0.6,0.5,0.9c2.4-0.8,4.4-2.2,6.2-3.7c3.7-3.1,8.1-4.8,12.7-5.8
		c2.9-0.7,5.9-1.2,8.9-0.8c0.6,0.1,1.2,0.1,1.4,1c-3.4,0.5-6.8,0.9-10.1,1.7c-3.4,0.8-6.7,2.1-9.9,3.2c-2.4,1.8-4.6,3.6-7.1,5.5
		c-1.9,5.2-6.5,9-9.3,14.4c1.8-0.1,3-1.7,4.9-0.7c-0.9,0.6-1.6,1-2.2,1.4c-2,1.3-4,2.7-5.3,4.8C429.7,259.7,428.9,260,428.1,260.6z
		 M661.5,203.9c-1.2-0.3-2.1-0.6-2.9-0.8c-6.1-1.6-12.4-2.1-18.7-2.9c-7.2-1-14.3-1.8-21-4.8c-0.4-0.2-0.9-0.3-1.3-0.4
		c-4.2-1.1-8.2-2.8-12.2-4.5c-2.8-1.2-5.7-2.5-8.6-3.4c-7.1-2.2-14.3-4-21.3-6.8c-0.3-0.1-0.7-0.1-1-0.3c-5.2-1.8-10.7-2.5-15.8-4.8
		c-0.4-0.2-0.9-0.1-1.3-0.2c-6.5-1.5-12.7-3.9-18-8.5c-1.6-0.2-3.5-0.4-5.3-0.6c-0.6-0.1-1.2,0-1.7,0c-5.9,0.7-11.8,1.4-17.8,2.1
		c-1.7,0.2-3.4,0.8-5.1,0.9c-5,0.4-10.1,0.4-15.1-0.2c-8.1-1.1-16.2-1.8-24.3-1.8c-10.9,0.1-21.8,0.2-32.6,2.2
		c-2.4,0.4-5,0.6-7.5,1.8c0.1,1.2,0.2,2.3,0.4,3.4c0.2,1,0.5,2,0.7,3c0.2,1.1,0.4,2.2,0.7,3.4c2.2,0,4.2,0.1,6.3,0.1
		c8.9-0.1,17.7,0.8,26.4,2.3c9.3,1.6,18.5,3.5,27.7,5.4c8.3,1.8,16.6,3.6,24.6,6.5c0.8,0.3,1.8,0.4,2.7,0.4
		c4.5-0.3,8.9,0.8,13.3,1.6c1,0.2,2,0.3,3,0c2.3-0.6,8.1-0.6,10.7-0.3c-1.5,2.3-4,1.6-6.5,2.1c0.8,0.4,1.1,0.7,1.5,0.8
		c3.3,1.1,6.5,2.1,9.6,3.7c1.3,0.7,2.8,1.1,4.2,1.5c4.1,1.2,8.1,2.4,12.3,3.3c8.6,2,17.3,3.6,26,5c3.6,0.6,7.4,0.9,10.8,2.1
		c3.7,1.3,7.5,0.9,11.2,1.5c3.6,0.6,7.3,1.1,10.9,1.4c4.1,0.4,8.1,1.2,12,2.9c0.8,0.4,1.6,0.5,2.6,0.3c2.8-0.5,5.7-0.7,8.5-1
		c1.3-0.2,2.4-0.7,3.4-1.5c0.8-0.7,1.5-1.4,2.3-2.1c1.2-1.1,2-2.4,2.3-4.1c0.4-1.7,1.1-3.3,1.8-4.8
		C659.7,206.8,660.6,205.6,661.5,203.9z M377.9,230.1c2.1-5.3,2.9-8.5,3.3-12.5c0.9-8.7,2.5-17.2,5.2-25.6c0.4-1.2,0.7-2.4,1.8-3.2
		c0.3-0.2,0.3-0.8,0.4-1.2c-7-1.5-9.6-2.3-11.8-3.8c4.3,0.3,7.9,2.9,12.2,2.5c1-2.1,2-4.2,3-6.3c1.1-2.1,2.3-4.2,3.5-6.4
		c-1.1-0.4-1.9-0.7-2.8-1.1c-2.1-0.9-4.3-1.7-6.3-2.6c-2-0.9-3.7-2.2-6-2.2c-0.5,0-1.1-0.4-1.6-0.6c-5.1-2-9.7-4.7-13.7-8.4
		c-0.6-0.5-1.1-1.3-1.8-1.5c-2.3-0.7-3.4-2.6-4.5-4.5c-1.8-2.8-3-5.9-4.1-9.1c-0.4-1.2-0.8-2.4-1.6-3.4c-1.4-1.8-3-3.4-4.6-5.2
		c-0.3,0.5-0.5,0.8-0.6,1.1c-0.6,2.8-1.9,5.1-3.5,7.4c-2.3,3.4-5,6.6-8.1,9.4c-6.8,6-14.1,11.3-21.7,16.3c-3.2,2.1-6.3,4.2-9.5,6.3
		c-0.3,0.2-0.4,0.5-0.7,0.9c1.1,0.9,2.2,1.7,3.3,2.5c9.2,6.2,18.4,12.5,27.7,18.7c0.6,0.4,1.1,0.9,1.8,1c1.6,0.3,2.9,1.3,4.3,2.1
		c3.3,2.1,6.6,4.2,9.9,6.3c8.7,5.5,16,12.6,22.8,20.3C375,228.5,376.2,229.5,377.9,230.1z M379.8,232c2.1,1.8,4.1,3.6,6.2,5.4
		c0.5,0.4,1.1,0.9,1.7,1.2c4.8,2.8,9.7,5.2,15.1,6.4c2,0.5,4,0.7,5.9,1.8c0.7,0.4,1.8,0.4,2.7,0.5c2.3,0.1,4.6-0.1,6.8-0.9
		c1.8-0.6,3.8-1,5.7-1.4c3.1-0.6,5.9-1.7,8.7-3c1.1-0.5,2.2-1.1,3.3-1.7c0.6-0.3,1.2-0.6,1.9-1.1c-0.9-4.7-1.9-9.3-2.7-13.9
		c-0.8-4.5-0.9-9.1-0.9-13.7c0-4.7-0.2-9.4,0.2-14.1c0.3-4.6,1.2-9.2,1.9-13.8c-0.4-0.2-0.7-0.4-1.1-0.4c-2.1-0.1-4.1,0-6.2-0.2
		c-2-0.2-4-0.6-6-0.9c-0.6-0.1-1.2,0-1.7-0.2c-1.1-0.5-2.2-0.3-3.4-0.2c-1.1,0.1-2.3,0.2-3.4,0.3c-4.2,0.2-8.5,0.6-12.5,1.9
		c-0.4,0.1-0.8,0-1.7-0.1c0.6-0.6,0.8-1,1.2-1.2c2-1.2,4.2-1.7,6.5-2c1.1-0.2,2.2-0.2,3.2-0.9c-4.4-2.5-9.4-2.8-13.8-5
		c-0.5,0.9-1,1.8-1.5,2.7c-2.2,4-4.5,8-6.7,12c-0.3,0.6-0.5,1.3-0.7,1.9c-2.2,7.7-3.8,15.6-4.9,23.5c-0.1,0.6,0,1.3,0,2.1
		c2.6,0.7,5,1.3,8,2.1c-3.2,0.7-5.6-0.9-8.1-0.6C382.1,223.1,381,227.5,379.8,232z M719.5,189.8c-3.9,3-7.8,5.3-12.2,6.9
		c-2.1,0.7-4.2,1.2-6.2,2c-2.5,1-5,1.6-7.7,1.5c-0.7,0-1.4,0.1-1.9,0.1c-0.5,0.5-0.7,1.2-1.2,1.3c-0.5,0.2-1.1-0.1-1.6-0.3
		c-0.1,0-0.2-0.1-0.3-0.2c-1.5-1.9-3.4-1.6-5.4-1.2c-0.2,0.6-0.3,1.1-0.5,1.6c-0.4,0.9-1.4,1-1.9,0.2c-0.4-0.6-0.7-1.4-1.1-2.1
		c-1.3,0-2.6,0-3.8,0c-0.2,1-0.3,1.9-0.6,2.7c-0.1,0.3-0.5,0.6-0.8,0.6c-0.4-0.1-0.9-0.3-1-0.6c-0.3-1.1-0.5-2.2-0.8-3.4
		c-2.9-0.2-5.7-0.9-8.7,0c0,0.7-0.1,1.3-0.1,1.9c0.7,0.4,1.8-0.5,1.9,1c-0.6,0.8-1.4,1.7-2.1,2.6c-2,2.6-3.7,5.3-4.2,8.6
		c-0.3,2.1-1.1,3.7-2.6,5c-0.8,0.7-1.4,1.5-2.2,2.2c-0.8,0.7-1.6,1.4-2.6,1.7c-3.3,1-6.6,1.5-10.2,0.6c-0.6,3,0.5,6.1-0.6,9
		c1.5,1.5,3,2.7,4.8,3.6c0.6,0.3,1.3,0.6,1.7,1.1c2.7,3,4.9,6.4,5.4,10.5c0.1,0.5,0.1,0.9,0.2,1.4c0.1,0.9,0.6,1.5,1.5,1.8
		c0.6,0.2,1.4,0.3,1.9,0.7c1.9,1.5,3.9,1.1,5.9,0.6c1.5-0.4,2.9-1.3,4.4-1.9c4.2-1.7,7.7-4.5,11-7.5c2.1-1.9,4.2-3.9,6.3-5.8
		c1.1-0.9,2.2-1.6,3.6-2c3.3-0.8,6.5-2.1,9.7-3.4c6.7-2.7,12.6-6.4,18.1-11.1c3.7-3.2,6.5-6.8,7.8-11.5c1.2-4.2,3.1-8.1,3.2-12.7
		c-1.4-1.8-2.9-3.7-4.3-5.5C721.3,189.8,720.2,189.8,719.5,189.8z M209.9,238.6c-1.3-0.7-1.8-1.8-1.7-3.2c0.1-1.6,0.3-3.2,0.5-4.8
		c0.1-0.8,0.1-1.5,0.3-3.1c-1.6,3.1-2.4,5.8-3.4,8.3c-1,2.5-2.2,5-3.3,7.5c1.3,2.7,3.5,4,6.2,4.4c1,0.2,2.1,0.2,3.1,0.1
		c5.1-0.7,10,0.6,15,0.8c0.7,0,1.3,0.3,2,0.5c0.4,0.1,0.8,0.2,1.2,0.3c0.4-2.6,0.1-3.1-1.8-3.4c-1.2-0.2-2.7-0.1-3.7-0.7
		c-1.5-0.9-3.2-1.2-4.8-1.7c-1.4-0.4-2.8-0.7-4.5-1.2c0.7-0.6,1.2-0.9,1.8-0.7c2.7,0.8,5.7,0.9,8.2,2.4c0.6,0.4,1.5,0.4,2.3,0.4
		c2.8,0.3,2.8,0.2,5,2.2c2.3,0,4.9,0.1,7.4,0c1.6,0,3.2-0.3,4.8-0.4c1.1-0.1,2.3,0,3.4-0.1c0.4,0,0.9-0.2,1-0.7
		c-0.1-0.8-0.7-0.7-1.2-0.9c-1.8-0.4-3.6-0.6-5.3-1.2c-1.4-0.5-2.9-0.7-4.4-0.7c-1.6,0-3.2,0.1-4.8-0.1c-1.6-0.1-3.2-0.5-4.7-0.8
		c-0.2,0-0.3-0.5-0.6-1.1c3.7,0.7,7,1,10.7,0.5c-2.2-1.3-2.2-1.4-3.7-1.4c-1.9,0-3.9,0-5.9,0c-0.8,0-1.7-0.1-2.4,0.1
		c-0.7,0.2-1.3,0.8-1.7,1.1c-4.2-0.9-8.1-1.7-12-2.8C211.8,238.3,210.9,238.5,209.9,238.6z M429.6,180.8c-0.4-1.8-0.7-3.3-1-4.8
		c-0.3-1.5-0.6-3.1-0.9-4.7c-2.3,0.1-4.2,0.5-6.1,1.4c-1.7,0.7-3.4,1.6-5.1,1.9c-2.2,0.3-4.1,1.3-6.4,1.7c1.8,1.1,3.4,2.1,4.9,3
		c0.4,0.2,0.8,0.4,1.3,0.5c2.3,0.2,4.5,0.3,6.8,0.5c1.2,0.1,2.5,0,3.7,0.6C427.5,181.1,428.5,180.8,429.6,180.8z M286.4,90.8
		c-0.3,0.9,0.2,1.1,0.7,1.4c0.2,0.1,0.4,0.2,0.6,0.2c0.9,0,1.7,0,2.8,0C289.1,91.6,287.9,90.7,286.4,90.8z M238.5,270.3
		c1.4-0.9,1.5-1,0.7-2.2c-0.1-0.2-0.5-0.1-1-0.2C238.3,268.8,238.4,269.5,238.5,270.3z"/>
	<path d="M231.7,27.3c0.7-1.3,2.2-1,3.2-1.6c0-0.2,0-0.5,0-0.7c0.6-1.2,1.9,0.3,2.6-0.8c-1.5-0.3-2.9-0.6-4.4-0.7
		c-1.1-0.1-2.3-0.2-3.4,0c-3,0.3-5.1,2-5.9,5c-0.5,1.8-0.7,3.6-0.9,5.4c-0.5,4.7-0.9,9.4-1.5,14c-0.2,2.1-0.2,4.1,0.4,6.8
		c0.7-4.9,1.3-9.2,1.9-13.6c0.7,0.7,0.3,1.6,0.3,2.3c-0.1,2.5-0.3,5-0.4,7.5c-0.1,2.6-0.3,5.3-0.4,7.9c-0.1,1.4-0.2,2.7,0.7,4
		c0.4,0.6,0.4,1.5,0.5,2.3c0.1,1.8,0,3.7,0.2,5.5c0.2,2,0.6,4.1,1,6.1c0.2,1.2,0.5,2.5,0.8,3.7c0.2,0.7,0.5,1.5,1.1,2.9
		c0.1-3.1-0.1-5.4-0.6-7.6c-0.8-3.3-0.8-6.6-0.7-9.9c0.3-7.5,1.9-14.8,3.2-22.1c0.6-3.7,2.1-7.2,3.3-10.8c0.3-1,1-1.5,2.1-1.3
		l-0.1-0.1c-0.4,1.1-0.8,2.2-1.2,3.2c-0.7,1.8-1.7,3.4-0.7,5.5c0.2,0.4-0.1,1.1-0.3,1.6c-1,2.5-1.3,5.1-1.3,7.7
		c-0.1,3.8-0.4,7.6-0.5,11.3c-0.1,2.2,0,4.4,0.8,6.4c0.3,0.6,0.3,1.3,0.4,2c0.4,3,0.7,5.9,1.1,8.9c0.6,5,0.3,9.8-1,14.6
		c-0.3,1-0.6,2-0.8,3c-0.3,1.5-1,2.5-2.2,3.3c-0.7-0.4-0.4-0.9-0.2-1.4c1.7-5.8,2.1-11.7,1.8-17.7c-0.1-3.1-0.2-6.2-1-9.2
		c-0.5-2.1-0.6-4.3-0.9-6.5c-0.1-0.5-0.3-1-0.6-2.3c-0.6,4-0.3,7.2,0.2,10.3c0.4,2.3,0.7,4.5,1.2,6.8c0.9,4.3,0.3,8.7-0.1,13
		c-0.1,1-0.7,1.9-1.4,2.7c0-1.4,0-2.7,0-4.1c0-1.4-0.3-2.7-0.9-4c-1.7-3.3-3.3-6.5-4.8-9.9c-2.2-4.9-3.3-10-3-15.4
		c0.2-4.9,0.5-9.8,0.1-14.7c-0.4-4.7-0.3-9.4,0.3-14.1c0.3-2.1,0.7-4.3,1.4-6.4c1.5-4.1,4.6-6.2,9-6.1c2.9,0,5.7,0.7,8.3,2
		c0.8,0.4,1.5,0.4,2.2,0.1c0.8-1.3,1.4-2.7,2.4-3.8c1-1.1,2.3-1.9,3.4-2.8c1.1-0.9,2-1.8,3.1-2.7c1.7-1.5,3.7-2.7,5.9-3.4
		c4.4-1.4,8.8-2.7,13.4-3.1c2-0.2,4.1-0.5,6.1-0.9c1.2-0.3,2.2-0.3,3.4,0c3.1,1,6.2,1.7,9.2,3c3.7,1.5,6.8,4.2,9.6,7.1
		c0.4,0.4,0.7,0.9,0.9,1.5c1.3,3.1,2.7,6.1,3.7,9.2c0.9,2.8,1.4,5.8,2,8.7c0.2,0.9,0,1.8-0.1,2.7c-0.2,0.9-0.5,1.8-0.8,2.6
		c-0.4,1.1-0.3,2.2,0.2,3.3c1,2.2,1.8,4.4,3.2,6.5c0.8,1.2,1.9,2.4,1.7,4l0.1-0.1c-0.4-0.1-1-0.2-1.2-0.4c-1.6-2.2-3.2-4.4-4.4-6.9
		c-1.6-3.2-2-6.3-0.2-9.1c-0.5-2.3-1.1-4.3-1.4-6.3c-0.6-3.6-1.7-7.1-3.2-10.4c-1-0.6-2-1.1-2.9-1.7c-0.3,0.1-0.6,0.3-1.2,0.5
		c-2.2-3.3-5.6-5.2-9.2-6.7c-3.6-1.5-7.3-2.5-11.3-2.7c1.7-0.1,3.4-0.4,5.1-0.3c1.6,0.1,3.2,0.5,4.7,0.9c1.6,0.5,3.2,1.1,5.2,1.8
		c-1.2-1.2-2-1.9-2.8-2.7l-0.1,0.1c0.7-0.2,1.3,0.2,1.9,0.5c0.7,0.4,1.4,0.6,2.2,0.9c1.5,1.5,1.5,1.5,3.1,2.2
		c-0.9-1-1.6-2.1-2.9-2.4c-1.1-1.5-2.8-1.9-4.4-2.4C279,7.4,273.4,7.4,267.7,9c-3.3,1-6.6,1.6-9.9,2.5c-1.3,0.3-2.7,0.8-3.8,1.4
		c-2.5,1.4-4.9,3-7.2,4.6c-0.5,0.3-0.8,1-1.2,1.6c-0.5,0-0.7,0.2-0.6,0.7l-0.3,0l0.2-0.1c0.2-0.2,0.4-0.5,0.6-0.7
		c0.6-0.2,1.3-0.3,1.9-0.6c4.9-2.2,10-4,15.3-5.5c-0.3,0.8-1,0.9-1.6,1.2c-3.6,1.5-7.2,2.9-10.8,4.3c-1.2,0.5-2.3,1-3.4,1.6
		c-3.4,1.8-6.4,4-7.9,7.8C236.4,27.7,234,27.4,231.7,27.3L231.7,27.3z M221.4,65.1c0.1,0.2,0.1,0.5,0.1,0.3
		C221.6,65.6,221.5,65.4,221.4,65.1c0.1-1.5,0.1-3-0.4-4.5C221,62.1,220.4,63.7,221.4,65.1z"/>
	<path d="M251.6,48.8c0.9-0.1,1.1,0.6,1.5,1.1c0.6,0.7,1.1,1.3,1.7,2.1c0.2-0.4,0.4-0.7,0.4-0.8c-0.6-1.9,0.2-3.3,1.3-4.7
		c1.1-1.4,2.4-2.7,3.9-3.9c0.9,0.6,1.9,1,2.5,1.8c1.1,1.4,2.6,1.7,4.2,1.7c0.4,0,0.9,0.1,1.3,0.1c0.4,1-0.2,1.4-0.8,1.7
		c-0.5,0.2-1.1,0.1-1.6,0c-1.7-0.7-3.1-1.9-4.5-3c-0.6-0.5-1.3-0.3-1.6,0.4l0.1-0.1c-0.3,0.3-0.5,0.5-0.8,0.8l0.1-0.1
		c-0.2,0.5-0.5,1-0.7,1.5l0.1-0.1c-0.3,0.3-0.5,0.5-0.8,0.8l0.1-0.1c-1.5,1.8-1.5,2,0,4.3l-0.1-0.1c0.3,0.3,0.5,0.5,0.8,0.8
		l-0.1-0.1c0.3,0.3,0.5,0.5,0.8,0.8l-0.1-0.1c0.9,1.9,2,3.8,2,6.2c1.2-0.4,1.2-1.7,2-2c0.8,0,1,0.6,0.7,1.1c-0.3,0.7-0.7,1.5-1.2,2
		c-1,1-2.1,0.8-2.7-0.5c-0.3-0.6-0.6-1.3-0.7-1.9c-0.1-2.3-1.8-3.5-3.2-5.1c-0.5,0.9-0.9,1.4-1.2,2c-0.2-0.2-0.4-0.3-0.4-0.4
		c-0.1-1-0.4-1.9-1-2.8C252.8,51,252.3,49.8,251.6,48.8L251.6,48.8z"/>
	<path d="M191.1,331.8c0.8,0.6,1.5,1.2,2.5,1.9c0-0.6,0.2-1,0-1.3c-0.5-1.2-0.3-2.2,0.5-3.2c1.4-1.6,2.8-3.3,4.2-4.8
		c1.7,0.1,2.5,1.5,3.8,1.9l-0.1-0.1c0.2,0.9,0.9,1.3,1.7,1.4c1.1,0.1,2.2,0.2,3.7,0.3c-0.6,0.8-1.1,1.4-1.6,2
		c-1.7-0.4-3.1-1.3-4.4-2.2c-0.4-0.3-1-0.5-1.5-0.8l0.1,0.1c-0.3-0.4-0.6-0.8-1.1-1.4c-0.4,0.8-0.7,1.5-1,2.1l0.1-0.1
		c-0.3,0.3-0.5,0.5-0.8,0.8l0.1-0.1c-0.3,0.3-0.5,0.5-0.8,0.8l0.1-0.1c-0.3,0.5-0.5,1-0.8,1.5l0.1-0.2c-0.2,0.2-0.6,0.5-0.6,0.7
		c-0.3,1.2,0.2,2.2,1.3,2.8l-0.1-0.1c0.1,0.2,0.1,0.5,0.2,0.6c1.5,2,2.8,4.1,2.8,6.7c1.4-0.2,1-2,2.3-2c0.7,1,0.7,1.7,0,2.6
		c-0.6,0.8-1.3,1.4-2.3,1.2c-0.3-0.1-0.7-0.3-0.8-0.6c-0.4-0.7-0.8-1.5-0.9-2.2c-0.2-2.3-1.7-3.6-3.1-4.9c-1.2,0.2-0.7,1.2-1.2,1.6
		c-0.1-0.1-0.4-0.1-0.4-0.2c-0.2-1.4-0.8-2.6-1.7-3.6C191.2,332.7,191.2,332.1,191.1,331.8L191.1,331.8z"/>
	<path d="M219.2,565.1c2.3,2,4.9,3.2,7.9,3.7c1.1,0.2,2.5,0.3,3.5,1.6c-0.4,0.3-0.7,0.8-0.9,0.8c-2.8-0.7-5.7-0.8-8.1-2.4
		c-2.5-1.6-5.1-2.4-7.9-3.1c-0.7-0.2-1.5-0.4-2.2-0.6c-0.2-0.9,0.5-0.9,0.8-0.9c1.5,0.1,2.9,0.3,4.4,0.5c0.9,0.1,1.8,0.3,2.7,0.4
		L219.2,565.1z"/>
	<path d="M189.7,315.9c0.8,0.1,1.5,0.2,2.3,0.4c2.1,0.4,4.2,1,6.3,1.4c2.6,0.4,5.2,0.1,7.7-0.9c0.7-0.3,1.3-0.2,1.7,0.6
		c-1-0.1-1.7,0.5-2.8,1.2c1.6,0.3,2.3-0.4,2.7-1.3c0.5-0.4,1.1-0.7,1.7-1.1c0.6,0.7,1.6,0.6,2.5,0.6l-0.1-0.1
		c-1.5,1.9-3.9,2.1-5.9,3.2c-0.3,0.1-0.7,0.1-1,0.1c-3.6-0.6-7.1-1.1-10.7-1.9C192.7,317.6,190.9,317.3,189.7,315.9L189.7,315.9z"/>
	<path d="M200,326.9c1.1,1.3,2.1,2.6,3.3,4.1c-0.5,0.9-1,1.7-1.6,2.6c0.3,0.4,0.7,0.9,0.9,1.3c-0.2,1.5-1.4,1.8-2.1,2.3
		c-1.4-1.2-2.7-2.3-4-3.3l0.1,0.1c-0.2-1.2-0.5-2.4-0.7-3.6l-0.1,0.2c0.7-0.3,0.6-1,0.8-1.5l-0.1,0.1c0.3-0.3,0.5-0.5,0.8-0.8
		l-0.1,0.1c0.3-0.3,0.5-0.5,0.8-0.8l-0.1,0.1c0.6-0.7,1.3-1,2.2-0.7L200,326.9z M198.7,329.7c-1,0.2-1.6,0.9-1.5,1.9
		c0.1,1.5,1.1,2.3,2.5,2.7c0.1-0.6,0.1-1.1,0.3-1.4c0.5-0.7,1.2-1.2,1.8-1.7c-0.2-1.1-1.1-1.2-1.8-1.4c0-0.1-0.1-0.2-0.1-0.3
		c-0.1-0.4-0.1-1-0.7-0.7C198.9,328.8,198.9,329.3,198.7,329.7z"/>
	<path d="M272.3,35.5c-0.6,1.4-2.3,1.3-3.3,2.1c-1.2,0.9-2.5,0.6-3.9,0.3c-2.2-0.5-4.5-0.6-6.8-1c-2.5-0.5-5.2-0.8-7.2-2.7l-0.1,0.1
		c0.8,0.1,1.6,0.2,2.3,0.4c1.3,0.3,2.6,0.8,4,1c4.6,0.9,6.1,0.8,11.1-0.6c-0.1,0.1-1.3,1.7-1.4,1.7c0.3,0.6,0.8,0.4,1.1,0.1
		c1.1-0.8,2.1-1.7,3-2.6C271.6,34.8,272,35.2,272.3,35.5L272.3,35.5z"/>
	<path d="M259.9,45.3c0.6-0.1,1.1-0.2,1.6,0.3c1.1,1.2,2.2,2.3,3.4,3.6c-0.6,1-1.1,1.8-1.6,2.7c1.2,1.8,1.2,1.8-1.2,3.6
		c-1-0.5-1.3-2.2-2.8-2l0.1,0.1c-0.3-0.3-0.5-0.5-0.8-0.8l0.1,0.1c-0.3-0.3-0.5-0.5-0.8-0.8l0.1,0.1c0-1.4,0-2.8,0-4.3l-0.1,0.1
		c0.3-0.3,0.5-0.5,0.8-0.8l-0.1,0.1c0.2-0.5,0.5-1,0.7-1.5l-0.1,0.1C259.5,45.7,259.7,45.4,259.9,45.3L259.9,45.3z M258.6,49.4
		c0.4,2.1,1.5,3,3,3.6c0-0.7-0.1-1.2-0.1-1.8c0.4-0.3,0.7-0.6,1-0.9c0.3-0.3,0.9-0.4,0.8-0.9c-0.4-1.6-1.7-0.7-2.5-1.1
		c-0.1-0.5,0.9-0.9-0.1-1.5C260.1,47.7,259.3,48.6,258.6,49.4z"/>
	<path d="M234.1,329.6c-1.3-0.6-2.2-0.9-3-1.4c-0.5-0.2-0.9-0.6-1.5-0.9c0.8-0.6,1.9-0.5,1.8-1.8c-0.2-0.1-0.4-0.3-0.5-0.2
		c-0.8,0.4-1.5,1-2.3,1.4c-0.3,0.2-0.8,0-1.5,0c3.9-2.6,3.3-3.6,10.5-5c-0.3,0.5-0.5,1-0.8,1.1c-2.3,1.1-2.3,3.4-2.9,5.4
		C233.7,328.5,233.9,328.8,234.1,329.6z"/>
	<path d="M298.4,40.3c0,0.3,0.1,0.8-0.1,0.9c-0.5,0.5-1,0.8-1.7,1.4c0.1,1.7-1.6,3-1.1,4.9c-2.7-0.5-2.7-0.6-4.5-2.3
		c0.3,0,0.7,0.1,1,0c1-0.1,1-0.2,0.7-1.5c-0.9,0.2-1.7,0.4-1.6,1.6c-0.6-0.1-1.1-0.2-1.7-0.2c1.4-1.8,3.8-3.5,5.8-4
		C296.3,40.9,297.4,40.7,298.4,40.3L298.4,40.3z"/>
	<path d="M216.9,354.9c-6.7,0.6-12.3-4.9-11.5-11.1c0.7,0,0.5,0.6,0.6,1c0.9,4.1,3.2,6.9,7.2,8.4
		C214.5,353.7,215.9,353.8,216.9,354.9z"/>
	<path d="M253.9,58.8c-0.8-0.8-1.7-1.5-2.4-2.4c-2.1-2.8-4.6-5.4-7.1-7.9c-1.2-1.2-2.4-2.4-2.9-4c0.2-0.2,0.3-0.3,0.4-0.3
		c0.1,0,0.2,0.1,0.3,0.1c1.3,1.4,2.5,2.9,3.9,4.3c0.5,0.6,1.5,0.8,1.9,1.4c2.1,2.7,4.2,5.4,6.3,8.1c0,0.1,0,0.2,0,0.3
		C254.2,58.5,254.1,58.6,253.9,58.8z"/>
	<path d="M267.3,62.4c0.1,0.5,0.3,1.1,0.4,1.6c1.2,3.9,3.6,6.6,7.6,7.8c1.1,0.3,2.1,0.8,3.5,1.3c-0.5,0.3-0.8,0.6-1,0.6
		c-2.3-0.3-4.5-1-6.4-2.3C268.2,69.2,266.5,66.3,267.3,62.4z"/>
	<path d="M193,339.9c-1.6-0.2-2.5-1.3-3.3-2.3c-1.9-2.5-4-4.7-6.1-6.9c-1.1-1.1-2.1-2.4-3.1-3.7c-0.2-0.3-0.2-0.8-0.5-1.8
		c0.8,0.8,1.1,1.1,1.3,1.4c0.8,0.9,1.5,2.1,2.5,2.8c2,1.4,3.5,3.2,4.8,5.2C190,336.5,191.5,338.2,193,339.9z"/>
	<path d="M275,29.4c-0.1,0.4,0,1.1-0.2,1.3c-1.5,1.3-3.2,2.6-5.3,2.8l0.1,0.1c0.5-0.6,0.9-1.2,1.4-1.8c-2.1-0.8-4.3-1.3-7-2.6
		c1.4,0.2,2,0.2,2.6,0.3c0.7,0.1,1.4,0.2,2,0.3c2,0.5,3.8,0.4,5.4-1.5c0.2,0.5,0.2,0.8,0.3,1.1c0,0.1-0.1,0.1-0.1,0.2
		c0-0.1,0-0.2,0-0.3C274.6,29.3,274.9,29.4,275,29.4L275,29.4z"/>
	<path d="M286.2,19.1c0.2,0.5,0.4,1,0.6,1.5c-0.2,0.1-0.5,0.2-0.6,0.2c-1.2-1-2.4-2.1-3.7-3.2c0.6-0.6,1.3-0.3,1.8-0.3
		c0.7,0,1.3,0.2,2,0.3c0.6,0.1,1.1,0.1,1.7,0.3c0.7,0.2,1.3,0.3,1.9,0.6c0.5,0.3,1,0.8,1.8,1.4c-1.5,0.5-2.5,0.7-3.6,0.1
		C287.6,19.6,287,18.9,286.2,19.1c-0.1,0-0.1-0.1-0.1-0.2c0-0.1-0.1-0.1-0.2-0.1C285.9,18.9,286,19,286.2,19.1z"/>
	<path d="M209,314.5c0.1-0.4,0.2-0.8,0.3-1.2c-2.1-0.9-4.4-1.3-7-2.8c1.9,0.3,3.1,0.3,4.3,0.7c2.2,0.6,4.3,0.6,6-1.3
		c0.3,0.9,0.6,1.6,0.8,2.3C212,313,210.9,314.5,209,314.5L209,314.5z"/>
	<path d="M185.7,303.7c2.2-2.6,7.6-4.5,13-4.9c-1.2,1.2-2.8,1.1-4.1,1.6c-1.4,0.5-2.8,0.9-4.2,1.4
		C188.8,302.3,187.5,303.3,185.7,303.7z"/>
	<path d="M223.4,300.8c-0.5,0-0.9-0.1-1.4-0.1l0.1,0.1c-0.3-0.6-0.6-1.1-1.1-1.9c3.1,0.2,6.1,0.1,8.9,2.4c-1.1,0.8-2,0.9-3,0.5
		c-0.7-0.3-1.4-0.7-2.1-1l0.1,0.1c-0.4-0.8-0.9-0.5-1.4-0.1L223.4,300.8z"/>
	<path d="M247.7,21.3c3.9-2.6,8.4-3.6,13.1-3.8c-2.2,0.6-4.3,1.2-6.5,2c-2.1,0.7-4.2,1.6-6.3,2.4C247.9,21.7,247.8,21.5,247.7,21.3z
		"/>
	<path d="M238.5,318c-3.4-0.5-6.5,1-10.2,0.5c2.3-1.5,4.5-1.9,6.7-1.9C236.9,316.5,237.1,316.6,238.5,318z"/>
	<path d="M299.6,36.1c-3.2-0.3-6.2,1.5-9.5,0.7C293.8,34.6,296.7,34.3,299.6,36.1z"/>
	<path d="M271,19.1c4,0.3,7.7,1.5,11.1,3.8c-0.3,0-0.7,0.1-1,0c-3.1-1.1-6.2-2.2-9.3-3.3C271.5,19.5,271.3,19.2,271,19.1L271,19.1z"
		/>
	<path d="M209.7,300.8c3.7,0.3,7.2,1.4,10.4,3.1c0.2,0.1,0.3,0.4,0.5,0.7c-0.4,0-0.7,0.1-1,0c-3.1-1.1-6.2-2.2-9.4-3.4
		C210,301.1,209.9,300.8,209.7,300.8L209.7,300.8z"/>
	<path d="M263.9,43.9c3.1,0.2,5.1-0.8,7-1.9c0.7,0.5,0.4,0.9,0.1,1.3c-1.5,1.6-3.4,2.2-5.6,1.8C265.1,44.9,264.9,44.6,263.9,43.9z"
		/>
	<path d="M202.1,326.2c0.4-0.2,0.8-0.5,1.2-0.5c2.2,0,4.1-0.9,6-2c0.6,0.5,0.4,1.1,0,1.4c-1.7,1.4-3.6,2.2-5.9,1.3
		C202.9,326.2,202.4,326.2,202.1,326.2L202.1,326.2z"/>
	<path d="M269.6,23.9c1-0.1,0.9-0.8,0.8-1.5l-0.1,0.1c1.8,0.5,3.7,1,5.7,1.6C272.9,25.6,272.2,25.5,269.6,23.9L269.6,23.9z"/>
	<path d="M208.3,305.6c0.9-0.2,0.8-0.9,0.9-1.5l-0.1,0.1c1.6,0.5,3.2,0.9,4.8,1.4c-0.3,0.5-0.5,1-0.7,1.4l0.1-0.1
		c-1.5,0.1-2.9-0.1-4.3-0.6C208.7,306.1,208.6,305.7,208.3,305.6L208.3,305.6z"/>
	<path d="M263.4,42.4c1.7-0.9,2.7-1.4,3.8-2c1-0.6,2-1.4,3-2.1c0.2,0.3,0.5,0.6,0.4,0.6C269,41.2,266.8,42.4,263.4,42.4z"/>
	<path d="M208.5,319.9c-0.8,2.7-2.5,3.7-6,4c0.9-1.1,2.2-1.2,3-1.9C206.4,321.3,207.5,320.6,208.5,319.9z"/>
	<path d="M191.3,440.9c1.1,1.5,1.2,1.9,1.1,6c-0.3-0.1-0.7-0.2-0.8-0.4C190.8,444.7,190.7,442.9,191.3,440.9z"/>
	<path d="M189.7,340c1.7,1.9,3.5,3.7,4.9,6.5C191.4,343.9,190.4,342.5,189.7,340L189.7,340z"/>
	<path d="M182.8,334.5c0.3,0.1,0.7,0.2,0.9,0.4c1.5,1.5,2.9,3.1,4.4,4.7c-0.4,0.4-0.9,0.1-1.2-0.1
		C185.2,338.1,183.6,336.6,182.8,334.5L182.8,334.5z"/>
	<path d="M245.5,54.2c1.2,0.1,1.5,1.2,2.2,1.9c0.8,0.7,1.5,1.7,2.8,1.5c0.1,0,0.2,0.6,0.3,0.8l0.1-0.1
		C248.1,58.4,246.4,56.8,245.5,54.2L245.5,54.2z"/>
	<path d="M251.7,59c1.7,1.6,3.3,3.2,4.3,5.6c-1,0-0.9-0.7-1.2-1c-0.5-0.5-1-0.9-1.4-1.4c-0.4-0.4-0.7-0.9-1-1.4
		C252.1,60.2,251.9,59.6,251.7,59L251.7,59z"/>
	<path d="M279.9,18.4c1.6,0,3,0.5,4.2,1.8c-0.4,0.1-0.6,0.3-0.7,0.2C282.2,19.8,281.1,19.1,279.9,18.4L279.9,18.4z"/>
	<path d="M218.7,300c1.2,0.3,2.3,0.5,3.5,0.8l-0.1-0.1c0.1,0.4,0.1,0.8,0.2,1.2C220.4,301.4,220.4,301.4,218.7,300L218.7,300z"/>
	<path d="M272.4,27.3c1-0.6,1.9-1.2,2.9-1.8c0.6,0.7,0,0.9-0.3,1.1C274.1,27.2,273.2,27.4,272.4,27.3L272.4,27.3z"/>
	<path d="M213.1,306.9c0.3,0.1,0.6,0.2,1,0.4c-0.5,1-1.5,1.2-2.5,1.6c-0.2-0.7,0.5-0.8,0.8-1.1c0.3-0.3,0.6-0.6,0.9-0.9L213.1,306.9
		z"/>
	<path d="M194.8,449.3c-0.3,0-0.5,0-0.5,0c-0.6-0.5-1.1-1.1-0.7-2c0-0.1,0.2-0.2,0.3-0.1C194.8,447.6,194.9,448.4,194.8,449.3z"/>
	<path d="M292.3,100.3c-1.3-1-1.3-1-1.9-2.7C291.5,98.5,292.4,99.1,292.3,100.3L292.3,100.3z"/>
	<path d="M271.2,82.1c-0.2-0.4-0.5-0.8-0.7-1.2c-0.1-0.2,0.2-0.5,0.3-0.8c0.2,0.1,0.4,0.2,0.5,0.4c0.1,0.5,0.2,1,0.3,1.5
		C271.4,82,271.3,82,271.2,82.1z"/>
	<path d="M201.8,472.1c-0.3-0.7-0.6-1-0.7-1.4c0-0.2,0.4-0.5,0.6-0.7c0.2,0.2,0.5,0.5,0.5,0.7C202.2,471.1,202,471.4,201.8,472.1z"
		/>
	<path d="M221.8,417.6c-0.5,0.1-0.9,0.3-1.3,0.3c-0.3,0-0.6-0.2-0.9-0.3C220.1,416.4,220.1,416.4,221.8,417.6z"/>
	<path d="M245.5,54.2c-1.3-0.4-1.7-1.5-2.1-2.7l-0.1,0.1C244.7,51.9,245.2,53,245.5,54.2L245.5,54.2z"/>
	<path d="M251.7,46c0.4,0.1,0.9,0.1,1.3,0.3c0.4,0.3,1.1,0.3,1.2,1.3C253.1,47.2,252.2,46.9,251.7,46L251.7,46z"/>
	<path d="M274.3,33.5c-0.2,1.2-0.8,2-2.1,2.1l0.1,0.1C273.1,34.9,273.7,34.2,274.3,33.5L274.3,33.5z"/>
	<path d="M234.6,31.5c-0.1-1.1,0.2-1.9,1.7-2.3C235.9,30.5,235.3,31.1,234.6,31.5L234.6,31.5z"/>
	<path d="M224.8,300.7c0.2,0.6,0.3,1.2,0.5,1.9c-1.1-0.4-1.7-0.9-1.9-1.8l0.1-0.1c0.5,0,0.9,0.1,1.4,0.1L224.8,300.7z"/>
	<path d="M167.7,308.3c0.3-1,1.1-1.2,2.1-0.9C169.1,307.7,168.4,308,167.7,308.3L167.7,308.3z"/>
	<path d="M184.8,306.2c-0.3,0.2-0.5,0.4-0.8,0.5c-0.5,0.1-1.1,0.1-1.6-0.2C183.2,306.4,184,306.3,184.8,306.2L184.8,306.2z"/>
	<path d="M246.3,25c-0.8,0-1.4,0.1-2.1,0.1C244.8,24.7,245.5,24.4,246.3,25z"/>
	<path d="M229.7,383.3c-1.1-0.2-1.5-1-1.4-2l-0.1,0.1C229.3,381.6,229.6,382.4,229.7,383.3L229.7,383.3z"/>
	<path d="M209,314.5c-0.1,0.8-0.7,1-1.3,1C207.8,314.7,208.3,314.4,209,314.5L209,314.5z"/>
	<path d="M212.6,316c0.2-0.6,0.3-1.2,0.6-2.2C213.4,315,213.4,315,212.6,316L212.6,316z"/>
	<path d="M203.5,313.8c0.7,0,1.3,0.1,2.1,0.2C204.6,314.3,204.6,314.3,203.5,313.8L203.5,313.8z"/>
	<path d="M264.8,32.1c0.7,0.1,1.3,0.1,2.2,0.2C265.9,32.7,265.9,32.7,264.8,32.1L264.8,32.1z"/>
	<path d="M190.5,559.4c0-0.7,0-1.4,0-2c0.1,0,0.2,0,0.3,0c0,0.7,0,1.4,0,2C190.8,559.4,190.7,559.4,190.5,559.4z"/>
	<path d="M191,491c0.4,0.7,0.4,1.2-0.4,1.6C190.3,492,190.2,491.4,191,491z"/>
	<path d="M230.2,25.8c0.1,0.9-0.6,1-1.4,1C229.3,26.5,229.8,26.2,230.2,25.8L230.2,25.8z"/>
	<path d="M182.8,334.5c-0.9-0.4-1.3-1.1-1.4-2.1l-0.1,0.1C182.4,332.8,182.9,333.5,182.8,334.5L182.8,334.5z"/>
	<path d="M275.1,29.5c0.4-0.4,0.9-0.8,1.3-1.2c0.1,0.1,0.1,0.2,0.2,0.3C276.1,28.9,275.6,29.1,275.1,29.5L275.1,29.5z"/>
	<path d="M191.1,331.7c-0.4-0.4-0.8-0.8-1.4-1.4C191,330.3,191.1,331,191.1,331.7L191.1,331.7z"/>
	<path d="M223.2,416.6c0.4,0,0.9,0,1.3,0c0,0.1,0,0.3,0,0.4c-0.4,0-0.9,0-1.3-0.1C223.1,416.9,223.1,416.8,223.2,416.6z"/>
	<path d="M220.6,422.2c0.1,0.1,0.2,0.3,0.3,0.4c-0.2,0.1-0.4,0.2-0.5,0.3c-0.1-0.1-0.2-0.2-0.2-0.3
		C220.4,422.5,220.5,422.3,220.6,422.2z"/>
	<path d="M195.9,425.8c-0.1,0.1-0.3,0.3-0.4,0.4c-0.1-0.2-0.3-0.4-0.4-0.7c0.2-0.1,0.4-0.2,0.6-0.2
		C195.8,425.4,195.8,425.7,195.9,425.8z"/>
	<path d="M264.9,32.1c-0.5,0-1-0.1-1.6-0.1C264,31.5,264.4,31.8,264.9,32.1L264.9,32.1z"/>
	<path d="M271.1,19c-0.5-0.1-0.9-0.1-1.7-0.2C270.2,18.5,270.7,18.5,271.1,19L271.1,19z"/>
	<path d="M209.7,363.3c-0.9-0.3-0.9-0.8-0.3-1.9C209.5,362.3,209.6,362.8,209.7,363.3L209.7,363.3z"/>
	<path d="M190.3,495c0.1,0.1,0.3,0.2,0.4,0.3c-0.2,0.2-0.4,0.3-0.7,0.5c-0.1-0.2-0.2-0.4-0.2-0.5C189.9,495.1,190.2,495.1,190.3,495
		z"/>
	<path d="M202.8,476.2c-0.2,0.1-0.3,0.2-0.5,0.3c-0.1-0.3-0.2-0.6-0.2-0.9c0-0.1,0.3-0.2,0.4-0.3
		C202.6,475.6,202.7,475.9,202.8,476.2z"/>
	<path d="M209.8,300.7c-0.5,0-1-0.1-1.8-0.2C208.9,300.1,209.4,300.1,209.8,300.7L209.8,300.7z"/>
	<path d="M255.1,42.8C254.6,42.8,254.8,42.8,255.1,42.8C254.8,42.8,254.6,42.8,255.1,42.8z"/>
	<path d="M203.6,313.7c-0.5,0-1-0.1-1.7-0.1C202.7,313.2,203.1,313.4,203.6,313.7L203.6,313.7z"/>
	<path d="M284.8,10.1c-0.1,0-0.2,0-0.3,0c-0.2-0.1-0.4-0.2-0.5-0.3c0,0,0-0.1,0.1-0.2c0.2,0.1,0.5,0.2,0.7,0.3
		C284.8,9.9,284.7,10.1,284.8,10.1L284.8,10.1z"/>
	<path d="M197.9,453.3c-0.1,0.1-0.2,0.2-0.4,0.3c-0.1-0.1-0.2-0.2-0.3-0.4c0,0,0.2-0.2,0.2-0.2C197.6,453.1,197.7,453.2,197.9,453.3
		z"/>
	<path d="M253,39.1c0.2,0.1,0.5,0.2,0.7,0.3c-0.1,0-0.3,0.1-0.3,0.1C253.3,39.3,253.2,39.2,253,39.1L253,39.1z"/>
	<path d="M189.8,315.8c-0.3-0.1-0.6-0.1-0.3-0.1C189.3,315.6,189.5,315.8,189.8,315.8L189.8,315.8z"/>
	<path d="M251.7,48.7c-0.1-0.2-0.2-0.4-0.1-0.2C251.5,48.3,251.6,48.6,251.7,48.7L251.7,48.7z"/>
	<path d="M184.9,306.3c0.2-0.1,0.4-0.2,0.6-0.3C185.2,306,185,306.1,184.9,306.3L184.9,306.3z"/>
	<path d="M208.4,305.5c-0.3,0-0.7-0.1-1.2-0.1C207.9,304.9,208.1,305.1,208.4,305.5L208.4,305.5z"/>
	<path d="M242.8,50c0.5,0.4,0.8,0.8,0.6,1.5l0.1-0.1C242.7,51.1,242.7,50.6,242.8,50L242.8,50z"/>
	<path d="M209.2,304c-0.2,0-0.4,0-0.6,0c-0.1,0-0.2,0-0.3,0c0.1-0.1,0.2-0.2,0.3-0.2C208.7,303.9,208.9,304,209.2,304L209.2,304z"/>
	<path d="M218.8,299.9c-0.3,0-0.5-0.1-0.3-0.1C218.3,299.8,218.5,299.9,218.8,299.9L218.8,299.9z"/>
	<path d="M200.1,295.3c0.2-0.5,0.4-0.7,1-0.3C200.6,295.1,200.3,295.1,200.1,295.3L200.1,295.3z"/>
	<path d="M223.5,291.7c-0.2,0-0.5,0-0.7,0c-0.1,0-0.2-0.3-0.3-0.4c0.1-0.1,0.2-0.2,0.3-0.2c0.2,0,0.4,0,0.7,0l-0.1-0.1
		C223.4,291.3,223.4,291.6,223.5,291.7L223.5,291.7z"/>
	<path d="M270.4,22.4c-0.2,0-0.4,0-0.6,0c-0.1,0-0.2,0-0.3-0.1c0.1-0.1,0.3-0.2,0.3-0.2C270,22.2,270.2,22.4,270.4,22.4L270.4,22.4z
		"/>
	<path d="M171.7,379.8c-0.1,0.3-0.1,0.5-0.1,0.3C171.6,380.3,171.7,380.1,171.7,379.8L171.7,379.8z"/>
	<path d="M269.7,23.8c-0.2,0-0.4,0-0.6,0c-0.1,0-0.2-0.1-0.3-0.1c0.2-0.1,0.4-0.2,0.5-0.2C269.4,23.5,269.5,23.8,269.7,23.8
		L269.7,23.8z"/>
	<polygon points="205.9,354.3 206,354.5 205.8,354.5 	"/>
	<path d="M230.3,25.9c0.2-0.1,0.3-0.3,0.5-0.4c0.1,0,0.2,0,0.3,0c-0.1,0.1-0.2,0.3-0.3,0.3C230.7,25.9,230.4,25.9,230.3,25.9
		L230.3,25.9z"/>
	<path d="M166.9,380.5c-0.1,0.3-0.1,0.5-0.1,0.3C166.7,381,166.9,380.8,166.9,380.5L166.9,380.5z"/>
	<path d="M197,385.9c-0.2,0.1-0.4,0.2-0.5,0.2c-0.1,0-0.2-0.2-0.3-0.4c0.2-0.1,0.3-0.2,0.5-0.2C196.8,385.6,196.8,385.8,197,385.9z"
		/>
	<path d="M181.5,332.4c-0.7-0.3-0.6-0.9-0.6-1.5l-0.1,0.1C181,331.5,181.2,332,181.5,332.4L181.5,332.4z"/>
	<polygon points="193.4,324.5 193.1,324.6 193.1,324.4 	"/>
	<path d="M251.1,34.2c-0.2-0.1-0.5-0.1-0.3-0.1C250.6,34,250.8,34.1,251.1,34.2L251.1,34.2z"/>
	<path d="M274.4,33.6c0-0.2,0-0.4,0.1-0.6c0-0.1,0.2-0.1,0.4-0.2c0,0.1,0.1,0.2,0.1,0.3C274.8,33.2,274.6,33.3,274.4,33.6
		L274.4,33.6z"/>
	<polygon points="280,18.4 279.9,18.3 279.9,18.4 	"/>
	<path d="M269.5,33.4c0,0.1,0,0.2-0.1,0.3C269.5,33.7,269.6,33.6,269.5,33.4L269.5,33.4z"/>
	<path d="M298.5,40.4c0.1-0.1,0.2-0.2,0.4-0.3c0,0.1-0.1,0.2-0.1,0.2C298.7,40.4,298.6,40.3,298.5,40.4L298.5,40.4z"/>
	<path d="M242.9,50c-0.1,0-0.3-0.1-0.4-0.1c0,0,0.1,0,0.1,0C242.7,49.9,242.7,50,242.9,50L242.9,50z"/>
	<polygon points="272.3,27.2 272.3,27.4 272.4,27.3 	"/>
	<path d="M250.9,58.4c0.5-0.1,0.7,0.2,0.8,0.6l0.1-0.1C251.5,58.7,251.2,58.5,250.9,58.4L250.9,58.4z"/>
	<path d="M231.6,27.2c0,0.1,0,0.2,0,0.3C231.7,27.5,231.7,27.4,231.6,27.2L231.6,27.2z"/>
	<path d="M292.3,100.4c0.1,0,0.2,0,0.3,0.1C292.5,100.4,292.4,100.3,292.3,100.4L292.3,100.4z"/>
	<path d="M167.7,308.2c-0.1,0.1-0.2,0.2-0.2,0.3c0-0.1,0-0.1,0.1-0.2C167.6,308.4,167.7,308.4,167.7,308.2L167.7,308.2z"/>
	<path d="M214.6,310.4c0-0.1,0.1-0.2,0.1-0.3C214.6,310.2,214.6,310.2,214.6,310.4L214.6,310.4z"/>
	<path d="M214.5,310.3C214.5,310.3,214.6,310.4,214.5,310.3L214.5,310.3z"/>
	<path d="M211.8,316.7c-0.1-0.5,0.2-0.7,0.7-0.7l-0.1-0.1C212.2,316.1,212,316.4,211.8,316.7L211.8,316.7z"/>
	<polygon points="171.1,321.5 171.2,321.3 171.1,321.4 	"/>
	<polygon points="180.9,331 180.6,330.9 180.8,331 	"/>
	<path d="M189.8,339.9c-0.1-0.1-0.3-0.1-0.4-0.2c0.1,0,0.1,0,0.2,0C189.6,339.8,189.7,339.9,189.8,339.9L189.8,339.9z"/>
	<path d="M209.7,363.4C209.7,363.4,209.7,363.4,209.7,363.4L209.7,363.4z"/>
	<polygon points="193.5,422.9 193.6,423.1 193.4,423 	"/>
	<path d="M228.3,381.3c-0.2-0.1-0.3-0.1-0.5-0.2C228.3,380.7,228.2,381.1,228.3,381.3L228.3,381.3z"/>
	<path d="M229.6,383.4c0.1,0.1,0.2,0.2,0.3,0.4c-0.1,0-0.2-0.1-0.2-0.1C229.7,383.5,229.7,383.4,229.6,383.4L229.6,383.4z"/>
	<polygon points="194.2,388.4 194.2,388.7 194,388.6 	"/>
	<path d="M420.6,506.9c0.2-1.2,1-1.3,1.6-1.4c3.3-0.5,6.5-1,9.8-1.4c0.4-0.1,0.9,0.4,1.5,0.7C429.9,506.9,424.8,507.7,420.6,506.9z"
		/>
	<path d="M462.8,499.9c-1.4-0.2-2.1-0.1-2.7-0.4c-1.4-0.7-2.8-1.5-4.2-2.3c-1.6-1-3.1-2.3-5-2.9c-0.2-0.1-0.6-0.6-0.5-0.7
		c0.2-0.3,0.6-0.8,0.9-0.8c0.6,0,1.4,0,1.9,0.3c1.1,0.7,2.2,1.6,3.2,2.5c1.3,1.2,2.5,2.2,4.2,2.7C461.3,498.4,461.8,499,462.8,499.9
		z"/>
	<path d="M494.6,517.8c-2.6,1.3-5.5,1.5-8.3,1.7c-0.9,0-1.8,0-2.2-1.2c0.3-0.2,0.5-0.6,0.8-0.6C488,517.6,491.3,517,494.6,517.8z"/>
	<path d="M348.5,508.7c1.2-3.4,0.6-6.7,1.2-10.6c0.7,2.3,0.3,3.8,0.3,5.4c0,1.5,0.1,3-0.1,4.4c-0.2,1.6-0.5,3.1-0.9,4.9
		c-0.1-1.2-0.2-2.2-0.3-3.3c-1.2-0.1-2.3-0.3-3.9-0.4C346.4,508.9,347.4,508.8,348.5,508.7z"/>
	<path d="M321.3,478.4c0.6-2.1,2.3-3.3,3.7-4.9c0.1,0.4,0.3,0.6,0.3,0.7C324.1,475.9,323.1,477.6,321.3,478.4L321.3,478.4z"/>
	<path d="M467.5,501.2c-1.9,0.7-3,0.2-4.1-1C465,499.2,466,499.9,467.5,501.2z"/>
	<path d="M503.2,517.9c-1.1,0.6-2,0.7-2.8,0.4c-0.2-0.1-0.6-0.4-0.6-0.6c0-0.2,0.3-0.6,0.5-0.7C501.3,516.8,502.2,516.9,503.2,517.9
		z"/>
	<path d="M518.7,519.6c-1.3,0.4-2.4,0.3-3.7-0.1C516.5,518.3,516.5,518.3,518.7,519.6z"/>
	<path d="M509.1,518.5c-0.1,0.2-0.3,0.4-0.4,0.4c-0.4,0.1-0.9,0-1.3,0c-0.2,0-0.4-0.3-0.4-0.5c0-0.2,0.2-0.5,0.3-0.5
		c0.5,0,1.1,0,1.6,0.1C508.9,518,509,518.3,509.1,518.5z"/>
	<path d="M439.9,503.5c-1,0.4-1.8,0.7-2.4,1c-0.5-0.4-0.7-0.8-0.2-1.1C437.9,503,438.7,502.5,439.9,503.5z"/>
	<path d="M355.5,508.4c-1.2,0-2.5,0-3.7,0c0,0,0-0.1,0-0.1c1.2,0,2.5,0,3.7,0C355.5,508.3,355.5,508.4,355.5,508.4z"/>
	<path d="M414.6,507.8c1.2-1,1.2-1,2.1,0C415.9,507.8,415.3,507.8,414.6,507.8z"/>
	<path d="M340.3,509.7c0.8-0.2,1.4-0.3,2-0.4c0,0.1,0,0.2,0,0.4C341.7,509.7,341.1,509.7,340.3,509.7z"/>
	<path d="M446.9,520.1c0,0.1-0.1,0.2-0.1,0.3c-0.4,0.6-1.1,0.7-1.3,0.3c-0.1-0.1-0.1-0.2-0.1-0.3c0.1-0.5,0.6-0.7,1.3-0.5
		C446.7,519.9,446.8,520,446.9,520.1z"/>
	<path d="M476.7,502.2c-0.2,0.1-0.4,0.3-0.6,0.2c-0.4-0.1-0.8-0.3-1.1-0.4c0.1-0.2,0.1-0.5,0.3-0.5c0.6-0.3,1.1-0.2,1.4,0.4
		C476.7,502,476.6,502.1,476.7,502.2z"/>
	<path d="M342.2,506.6c0-0.4,0-0.8,0-1.2c0,0,0.1,0,0.1,0c0,0.4,0,0.8,0,1.2C342.3,506.6,342.3,506.6,342.2,506.6z"/>
	<path d="M463.6,522.4c-0.1-0.3-0.3-0.5-0.3-0.8c0-0.1,0.5-0.3,0.5-0.3c0.2,0.2,0.4,0.5,0.5,0.7C464.2,522.2,464,522.3,463.6,522.4z
		"/>
	<path d="M453.7,520.9c-0.1-0.1-0.3-0.2-0.4-0.3c0.2-0.1,0.5-0.3,0.8-0.3c0,0,0.2,0.3,0.3,0.5C454.1,520.8,453.9,520.9,453.7,520.9z
		"/>
	<path d="M411.2,508.6c-0.5,0-0.9,0-1.4,0c0-0.1,0-0.2,0-0.3c0.5,0,0.9,0,1.4,0C411.2,508.4,411.2,508.5,411.2,508.6z"/>
	<path d="M523.7,520.4c-0.5-0.1-0.9-0.2-1.2-0.3c0.1-0.2,0.1-0.5,0.3-0.5C523.3,519.4,523.6,519.7,523.7,520.4z"/>
	<path d="M407.5,508.3c0,0.1,0,0.1,0.1,0.2c-0.1,0-0.2-0.1-0.3-0.1C407.3,508.3,407.4,508.3,407.5,508.3z"/>
	<path d="M459.9,520.6c0,0.1,0,0.1,0,0.2c-0.3,0-0.5-0.1-0.8-0.1c0.1-0.1,0.2-0.2,0.2-0.2C459.5,520.5,459.7,520.6,459.9,520.6z"/>
	<path d="M324.8,481.9c0.2-0.5,0.4-0.9,0.6-1.4l-0.1-0.1C325.1,480.9,324.9,481.4,324.8,481.9L324.8,481.9z"/>
	<path d="M323.4,484c0.2-0.4,0.4-0.9,0.6-1.4l-0.1-0.1C323.7,483,323.5,483.4,323.4,484L323.4,484z"/>
	<path d="M326.1,476.4c-0.2,0.2-0.5,0.3-0.7,0.5l0,0.1C325.6,476.8,325.9,476.6,326.1,476.4L326.1,476.4z"/>
	<polygon points="326.1,476.5 326.2,476.3 326.1,476.4 	"/>
	<path d="M321.9,486c0,0.1-0.1,0.1-0.1,0.2C321.8,486.2,321.9,486.1,321.9,486L321.9,486z"/>
	<polygon points="322,486.1 322,485.9 321.9,486 	"/>
	<path d="M323.3,483.9C323,484.3,323.5,483.8,323.3,483.9L323.3,483.9z"/>
	<path d="M324,482.6c0.3-0.2,0.5-0.5,0.8-0.7l-0.1-0.1C324.5,482.1,324.2,482.3,324,482.6L324,482.6z"/>
	<polygon points="325.4,480.6 325.5,480.4 325.3,480.5 	"/>
	<path d="M320.5,479c-0.1,0.1-0.1,0.3-0.2,0.4c0-0.1,0-0.1,0-0.2C320.4,479.2,320.5,479.2,320.5,479L320.5,479z"/>
	<path d="M320.6,479.1c0.2-0.2,0.5-0.5,0.7-0.7l-0.1-0.1C321.2,478.9,321,479.1,320.6,479.1L320.6,479.1z"/>
	<polygon points="325.4,476.9 325.3,477.1 325.4,477 	"/>
	<path d="M583.9,513.2c-0.2,0.2-0.3,0.5-0.5,0.6c-1.1,0.3-2-0.4-2.8-1c-1.6-1.2-2.1-1.9-2.7-3.9c1.4,0.3,2,1.6,3,2.2
		C581.9,511.8,582.9,512.5,583.9,513.2z"/>
	<path d="M454.7,463.9c-2.3,0.8-4.5,0.2-6.8-0.3C450.2,463.3,452.4,462.8,454.7,463.9z"/>
	<path d="M506.2,488.2c-0.6,1.3-1.5,1.3-2.4,1c-0.1,0-0.3-0.4-0.3-0.5c0-0.2,0.2-0.5,0.3-0.5C504.6,488.1,505.3,488.2,506.2,488.2z"
		/>
	<path d="M482.7,491.3c-1.1,0.1-1.9,0.2-2.8,0.3C480.9,490.2,480.9,490.2,482.7,491.3z"/>
	<path d="M574.6,506.3c0.1-0.1,0.1-0.2,0.2-0.2c0.2,0,0.4,0.1,0.6,0.1c-0.1,0.1-0.1,0.2-0.2,0.2C575,506.4,574.8,506.3,574.6,506.3z
		"/>
	<path d="M490.2,490.5c0.1-0.1,0.2-0.2,0.3-0.2c0.4,0,0.8,0.1,1.2,0.1c0,0,0,0.2,0,0.2c-0.4,0-0.8,0.1-1.2,0.1
		C490.4,490.7,490.3,490.6,490.2,490.5z"/>
	<path d="M486.7,490.4c-0.2,0.1-0.4,0.3-0.5,0.3c-0.2,0-0.3-0.2-0.5-0.4c0.2-0.1,0.4-0.3,0.5-0.3C486.4,490,486.6,490.3,486.7,490.4
		z"/>
	<path d="M463.9,466.2c0.3,0,0.7,0,1,0c0,0.1,0,0.2,0,0.3c-0.3,0-0.7,0-1,0C463.9,466.4,463.9,466.3,463.9,466.2z"/>
	<path d="M460.3,465.7c-0.1,0.1-0.2,0.2-0.2,0.2c-0.1,0-0.1-0.1-0.2-0.2c0.1-0.1,0.2-0.2,0.2-0.2
		C460.1,465.5,460.2,465.6,460.3,465.7z"/>
	<path d="M282.2,444.1c-0.2-0.1-0.5-0.2-0.5-0.3c-0.7-3.9-0.2-7.9-0.4-11.8c1-0.3,1.2,0.3,1.3,0.8c0.2,3.7,0.4,7.5-0.1,11.2
		C282.4,444,282.3,444,282.2,444.1z"/>
	<path d="M270.8,446.4c-1.7,1.6-3.3,2.1-4.8,2.8c-0.7,0.3-1.5,0.3-2.2,0.5c-0.2-1.2,0.6-1.2,1.2-1.5
		C267.8,446.6,268.3,446.4,270.8,446.4z"/>
	<path d="M286.6,455.7c-2.4-2.4-3-3.5-3-5.8C285.1,451.2,285.9,452.8,286.6,455.7z"/>
	<path d="M311.4,457.3c-0.3,1.3-1.3,1.4-2.4,1.4c-0.2,0-0.5-0.3-0.5-0.4c0-0.3,0.1-0.7,0.3-0.9C309.6,456.7,310.5,456.8,311.4,457.3
		z"/>
	<path d="M305.4,468.5c1.4,0,2.5,0.6,4,1.4C307.5,470.3,306.4,469.5,305.4,468.5z"/>
	<path d="M291.2,462.9c0.4-0.1,0.8-0.4,1-0.3c0.5,0.4,0.9,0.9,1.3,1.4c-0.3,0.2-0.5,0.5-0.7,0.5
		C291.8,464.4,291.4,463.8,291.2,462.9z"/>
	<path d="M289.7,459.4c-2.3-1.3-2.3-1.3-1.8-2.6C289,457.1,289.5,457.8,289.7,459.4z"/>
	<path d="M260.2,449.5c-0.5,1.2-1.3,1.4-2.9,0.9C258.6,450,259.4,449.7,260.2,449.5z"/>
	<path d="M270.4,455.6c0.4-1,1.2-1.4,2.5-1C271.8,455,271.1,455.3,270.4,455.6z"/>
	<path d="M261.1,460.2c-0.2,0.1-0.4,0.1-0.5,0.1c-0.1,0-0.1-0.1-0.2-0.2c0.2-0.1,0.4-0.1,0.5-0.1C261,460,261,460.1,261.1,460.2z"/>
	<path d="M318.5,464c0.1,0.1,0.2,0.1,0.2,0.2C318.7,464,318.6,463.9,318.5,464L318.5,464z"/>
	<path d="M318.6,463.9c-0.2,0-0.4,0-0.5,0c0.1-0.1,0.1-0.2,0.2-0.3C318.3,463.6,318.4,463.8,318.6,463.9L318.6,463.9z"/>
	<path d="M264.6,426c0.8-1,1.3-1.6,1.8-2.2c2-2.2,3.2-4.8,3.6-7.7c0.5-3.4,1-6.8-0.2-10.2c-0.1-0.3-0.2-0.7-0.1-1
		c0.2-0.4,0.5-0.8,0.8-1c0.2-0.1,0.7,0.1,0.9,0.2c0.3,0.2,0.5,0.5,0.6,0.8c0.3,0.7,0.7,1.5,0.8,2.2c0.9,4.3,0.4,8.5-1.2,12.5
		c-1,2.6-2.9,4.6-5.5,5.9C266,425.9,265.6,425.8,264.6,426z"/>
	<path d="M262.2,426.4c-0.4,1.7-1.8,2.2-3.1,2.8c-0.9,0.4-1.8,0.9-3,0.1C257.9,427.8,260.2,427.4,262.2,426.4z"/>
	<path d="M267.4,398.3c-1.7,0.4-2.5-0.2-3.1-1.6C266,396.1,266.6,397.2,267.4,398.3z"/>
	<path d="M270.3,403.3c-0.9-1.4-1.3-2.1-1.8-2.9c0.4-0.1,0.7-0.3,0.8-0.3C270,400.8,271,401.3,270.3,403.3z"/>
	<path d="M225.5,446.1c0-0.2,0-0.3,0-0.4c0.1-0.1,0.2-0.1,0.3-0.1c0.2,0.2,0.5,0.4,0.7,0.7c0,0-0.2,0.2-0.2,0.2
		C226,446.4,225.7,446.2,225.5,446.1z"/>
	<path d="M248.3,428.2c-0.1,0.2-0.2,0.3-0.3,0.5c-0.1-0.1-0.3-0.2-0.3-0.2c0.1-0.2,0.2-0.4,0.3-0.5
		C248.1,428,248.2,428.1,248.3,428.2z"/>
	<polygon points="219.9,440.6 220.2,440.7 220,440.5 	"/>
	<polygon points="252,428.7 251.9,428.5 252.1,428.5 	"/>
	<path d="M412.8,555.5c0,0.6,0,1.1-0.1,1.7c1.5,0.7,1.5,0.7,3.2-0.6c0.6,0.1,0.7,0.6,0.6,1c-0.1,0.5-0.4,1.1-0.7,1.5
		c-1.1,1-3.1,0.6-3.9-0.7C411.3,557.5,411.6,556.7,412.8,555.5L412.8,555.5z"/>
	<path d="M431,546.6c0.8,0,1.5-0.2,2.1,0c2.1,0.7,4.3,1.4,6.1,2.9c-1.6,0.1-5.7-0.9-7.7-1.9C431.3,547.6,431.3,547.2,431,546.6z"/>
	<path d="M441.4,554.4c0.5,0,1-0.2,1.3,0c1.2,0.7,1.9,1.9,2.6,3.3C443.4,557.2,443.2,557,441.4,554.4z"/>
	<path d="M448.9,555.8c-0.7-1.5,0.2-2.4,0.6-3.5c0.7-0.2,1.1,0.1,1,0.6C450.4,554,450.3,555.2,448.9,555.8z"/>
	<path d="M435.3,572.3c0,0.8,0,1.5,0,2.3C434.3,573.4,434.3,573.4,435.3,572.3z"/>
	<path d="M425.1,582.2c-0.2,0.3-0.3,0.6-0.5,0.6c-0.6,0.1-1.4-0.5-1.3-1.1c0-0.2,0.5-0.6,0.6-0.5
		C424.4,581.5,424.8,581.9,425.1,582.2z"/>
	<path d="M445.5,559.3c1,0.7,1.4,1.5,0.8,2.7C445.5,561.2,444.8,560.5,445.5,559.3z"/>
	<path d="M415.9,571c-0.6,1.5-0.9,2.2-1.3,3.2C414,572.8,413.9,571.9,415.9,571z"/>
	<path d="M451.8,550.3c-0.5-1.1-0.5-1.1,0.9-2.2C453.1,549.2,452.7,549.9,451.8,550.3z"/>
	<path d="M406.4,563.4c0.1,0.3,0.3,0.6,0.3,0.9c0,0.3-0.3,0.5-0.5,0.7c-0.2-0.2-0.6-0.3-0.7-0.6c-0.2-0.5,0-0.8,0.5-1
		C406.1,563.4,406.3,563.4,406.4,563.4z"/>
	<path d="M454.6,545.3c-0.2-1.1-0.2-1.1,0.7-1.9c0,0.4,0,0.7-0.1,1C455,544.8,454.8,545,454.6,545.3z"/>
	<path d="M446.3,566.4c-0.2-0.9-0.3-1.2-0.3-1.5c0-0.2,0.2-0.5,0.4-0.7c0.1,0.2,0.3,0.4,0.2,0.6
		C446.6,565.2,446.5,565.5,446.3,566.4z"/>
	<path d="M405.7,566.6c0.4,0,0.8,0,1.2,0c0.1,0,0.2,0.3,0.2,0.4c0,0.1-0.1,0.2-0.2,0.2c-0.4,0-0.8,0-1.2,0
		C405.7,567,405.7,566.8,405.7,566.6z"/>
	<path d="M410.1,574.5c-0.2,0.1-0.5,0.2-0.7,0.2c-0.1,0-0.3-0.4-0.3-0.4c0.2-0.2,0.4-0.4,0.7-0.5C409.9,573.9,410,574.1,410.1,574.5
		z"/>
	<path d="M458.2,539.9c0,0.4,0.1,0.8,0,1.2c0,0.1-0.3,0.2-0.5,0.2c0,0-0.2-0.2-0.2-0.2c0-0.4,0.1-0.8,0.2-1.2
		C457.9,539.9,458.1,539.9,458.2,539.9z"/>
	<path d="M412.9,555.6c0.4-0.8,0.9-0.7,1.5-0.3C413.8,555.4,413.3,555.4,412.9,555.6L412.9,555.6z"/>
	<path d="M428.5,583.7c-0.1-0.1-0.1-0.3-0.2-0.4c0.2,0,0.4,0,0.6,0c0.1,0,0.1,0.1,0.2,0.2C428.9,583.5,428.7,583.6,428.5,583.7z"/>
	<polygon points="446.2,568.6 446.4,568.6 446.3,568.8 	"/>
	<path d="M616.7,524.8c0.1-0.5,0.2-1.1,0.4-1.6c1.2-2.6,3.3-4.5,5.8-5.7c1.8-0.8,2.9-2.1,3.9-3.7c2.4-3.9,5.5-7,9.1-9.8
		c1.6-1.2,3.1-2.4,4.6-3.6c2.6-2.2,5.7-3.4,8.9-4.3c1.1-0.3,2,0.1,2,0.7c0,0.8-0.6,1.2-1.3,1.4c-0.6,0.2-1.3,0.4-2,0.7
		c-2.6,0.9-5.1,2.1-7.2,4c-0.9,0.8-1.8,1.5-2.7,2.1c-5,3.1-8.8,7.3-11.6,12.5c-0.3,0.5-0.6,0.9-0.9,1.4c-1,0.1-1.6-0.9-2.7-0.1
		c-1.7,1.2-3.3,2.5-4.5,4.2c-0.5,0.6-0.9,1.3-1.4,1.9C617.1,524.9,616.9,524.9,616.7,524.8z"/>
	<path d="M652.6,508.4c0.4,0.2,0.9,0.4,1.3,0.6c0.4,1.3-0.2,2-0.8,2.7c-1.5,1.9-3,3.8-4.7,5.4c-2.1,2.1-4.4,4-6.6,5.9
		c-1.6,1.4-3.5,1.9-5.6,1.8c-0.1-1,0.5-1.3,1.1-1.7c2-1.1,3.6-2.8,5.1-4.5c3-3.3,6.1-6.5,9.2-9.7
		C651.9,508.8,652.2,508.6,652.6,508.4z"/>
	<path d="M646.3,507.3c0.8-1.2,1.7-2.4,2.5-3.6c0.7,0.9,0.4,1.8-0.1,2.5c-0.9,1.3-1.9,2.6-3,3.7c-1.7,1.6-3.5,3-5.4,4.3
		c-3.2,2.1-6.6,4-9.9,6.1c-0.6-0.9-0.1-1.3,0.3-1.6c1.7-1.2,3-2.8,4.2-4.5c2.1-2.8,7.1-6.3,10.9-7.9c0.2,0.3,0.4,0.7,0.6,1.1
		c-0.4,0-1-0.1-1.3,0.1c-3.2,1.8-6.2,3.9-8.8,6.4c-0.2,0.2-0.2,0.6-0.3,0.9c-0.2,0-0.3,0.1-0.5,0.1c0.1,0.1,0.2,0.2,0.3,0.3
		c0.1-0.2,0.2-0.3,0.3-0.5c0.1,0,0.2,0.1,0.3,0C640.2,513.1,643.6,510.7,646.3,507.3z"/>
	<path d="M585.6,546.9c0.1-1.4,0-1.9,0.2-2.4c1.3-3.4,3.4-6.3,6.6-8.1c1.9-1.1,3.9-2,5.9-2.7c2.8-1,5.8-1.3,8.8-1.6
		c0.5,0,1,0.1,1.6,0.5c-1.1,0.3-2.2,0.6-3.2,0.9c-2.3,0.6-4.7,1.1-7,1.8c-5,1.4-8.8,4.3-11.2,9C587,545,586.5,545.6,585.6,546.9z"/>
	<path d="M591.4,548.5c-0.1-0.5-0.4-0.9-0.3-1.1c1-2.1,2.2-4,4.4-5c1.9-0.9,3.6-2,5.5-2.9c0.9-0.4,1.9-0.5,2.9-0.7
		c0.2,0.4,0.4,0.7,0.3,0.7c-0.5,0.5-0.9,1-1.5,1.3c-3.7,2.1-7.3,4.4-10.3,7.4C592.3,548.3,592,548.3,591.4,548.5z"/>
	<path d="M612.5,528.7c-0.2,0.1-0.4,0.3-0.2,0.1C612.1,528.9,612.3,528.8,612.5,528.7L612.5,528.7z"/>
	<polygon points="612.6,528.8 612.7,528.6 612.5,528.7 	"/>
	<path d="M465.4,254.5c-2.3-1-4.1-2.3-5.8-4.1c-1.2,0-2.6,0-3.9-0.1c-0.5,0-1.1-0.3-1.6-0.5c-0.4-0.2-0.3-1,0.1-1.2
		c0.3-0.1,0.6-0.3,0.9-0.4c1.1-0.1,2.3-0.1,3.4-0.1c1.3,0,2.4,0.3,3.2,1.5c0.7,0.9,1.7,1.4,2.6,2.2
		C465,252.5,465.5,253.2,465.4,254.5z"/>
	<path d="M438,251.9c3.5-1.9,6.6-2.7,9.8-3.5c0.7-0.2,1.6-0.4,2.2,0.4c-1.2,1.5-2.4,2-7.5,3.4C440.4,252.8,440.4,252.8,438,251.9z"
		/>
	<path d="M530.8,204.8c-1,0.8-1.6,0.5-2,0.3c-1.6-0.7-3.3-1.6-4.9-2.4c-1.6-0.8-3.2-1.7-4.8-2.6c-0.2-0.1-0.3-0.4-0.3-0.6
		c0.1-0.3,0.3-0.7,0.5-0.8c0.8-0.4,1.6-0.3,2.3,0.2c1.1,0.7,2.3,1.5,3.3,2.4c1.3,1.1,2.6,2.2,4.4,2.5
		C529.8,203.9,530.2,204.4,530.8,204.8z"/>
	<path d="M553.1,223.4c0.5-0.6,0.7-1.1,1-1.2c0.6-0.2,1.3-0.3,2-0.4c2.6-0.2,5.2-0.4,8-0.3c-1.5,1.2-2.3,1.6-5,2
		C557.2,223.7,555.3,224,553.1,223.4z"/>
	<path d="M473.6,262.2c-2.1-2.3-3.7-4-5.3-5.7c0.5-0.8,1.1-0.8,1.5-0.4C471.6,257.5,473.4,258.9,473.6,262.2z"/>
	<path d="M528.9,227.1c0.7-0.2,1.4-0.6,2.2-0.6c2.4-0.1,4.7-0.3,7.1,0.9c-0.9,0.6-1.9,0.1-2.7,0.1c-1.1,0-2.3-0.1-3.4-0.1
		c-1,0-2,0.2-3,0.3C529,227.5,528.9,227.3,528.9,227.1z"/>
	<path d="M477.4,251.6c0.2,0.4,0.5,0.7,0.5,0.9c-0.2,1.1-0.5,2.1-0.9,3.1c-0.1,0.2-0.6,0.3-0.9,0.2c-0.2-0.1-0.5-0.5-0.5-0.8
		C475.7,253.8,476.1,252.7,477.4,251.6z"/>
	<path d="M452.4,261c0,0.8-0.1,1.4-0.1,2c0.4,0.5,0.8,1,1.4,1.6c-1.3,0.3-2.2,0-2.6-1.1C450.7,262.4,451.1,261.6,452.4,261z"/>
	<path d="M531.8,205.6c1.6-1,2.6-0.4,3.6,0.4c0,0.6-0.3,0.9-0.8,0.9C533.6,206.9,532.8,206.5,531.8,205.6z"/>
	<path d="M572.7,221.5c-2.7,1.2-2.9,1.1-3.8-0.3C570,220.4,571.1,220.6,572.7,221.5z"/>
	<path d="M583.8,222.5c1.9-1.1,3-1.1,4.5,0.1C586.8,223,585.7,223,583.8,222.5z"/>
	<path d="M433.2,269.9c-0.5-0.5-0.9-0.8-1-1.2c-0.3-0.8,0.4-1.7,1.2-1.6c0.3,0,0.8,0.6,0.8,0.9C434,268.6,433.6,269.1,433.2,269.9z"
		/>
	<path d="M465.8,269.5c1-0.4,1.4,0.1,1.8,0.6c0.4,0.5-0.1,1.6-0.7,1.6c-0.3,0-0.8-0.3-1-0.6C465.8,270.6,465.9,270,465.8,269.5z"/>
	<path d="M457.8,272.6c0.1-0.6,0.2-1.3,0.5-1.9c0.1-0.2,0.7-0.3,1.1-0.4c0.1,0.4,0.3,0.8,0.2,1.2
		C459.3,272.6,458.4,272.4,457.8,272.6L457.8,272.6z"/>
	<path d="M475.7,268.9c-1.3-0.8-1.6-2.2-2.2-3.7c2.2,0.7,1.8,2.5,2.1,3.8L475.7,268.9z"/>
	<path d="M478.1,249.8c0.1-1.4,0.5-2,1.7-2.1C479.8,249.1,479.8,249.1,478.1,249.8z"/>
	<path d="M483.6,239.1c0,0.2,0,0.5-0.1,0.6c-0.2,0.5-0.6,1-1.3,0.7c-0.2-0.1-0.4-0.6-0.4-0.8c0.1-0.6,0.5-1,1.2-0.8
		C483.2,238.8,483.4,239,483.6,239.1z"/>
	<path d="M453.1,261.4c1.2,0.1,1.8,0,2.3,0.2c0.8,0.4,0.9,1.2,0.6,2.2C455.1,263.1,454.4,262.5,453.1,261.4z"/>
	<path d="M576.3,222c0.9-1.1,0.9-1.1,2.2-0.2C577.4,222.4,577.4,222.4,576.3,222z"/>
	<path d="M593.2,222.5c-0.2,0.4-0.3,0.7-0.4,0.7c-0.4-0.1-0.7-0.3-1.1-0.4c0.1-0.2,0.2-0.4,0.3-0.4
		C592.4,222.3,592.8,222.4,593.2,222.5z"/>
	<path d="M457.7,272.5c-0.7,0.4-1.5,0.8-2.3,1.3c-0.3-1,0.3-1.2,0.8-1.3C456.6,272.5,457.2,272.6,457.7,272.5L457.7,272.5z"/>
	<path d="M463.3,277.4c0.6-1.2,1.4-0.5,2.1-0.2c-0.4,0.1-0.7,0.2-1.1,0.2C464,277.4,463.7,277.4,463.3,277.4z"/>
	<path d="M542.9,206.5c1.1,0,1.8,0,2.8,0C544.7,207.4,544.1,207.4,542.9,206.5z"/>
	<path d="M480.5,244.7c-0.1-0.3-0.2-0.4-0.2-0.5c0.1-0.4,0.3-0.7,0.5-1.1c0,0,0.3,0.1,0.3,0.1c0,0.4-0.1,0.8-0.2,1.2
		C480.9,244.5,480.8,244.6,480.5,244.7z"/>
	<path d="M438.7,281c-0.2,0.1-0.4,0.2-0.5,0.1c-0.1-0.1-0.2-0.3-0.2-0.5c0.2-0.1,0.4-0.2,0.5-0.1C438.6,280.5,438.6,280.8,438.7,281
		z"/>
	<path d="M446,274.5c0.7-0.3,1-0.4,1.3-0.5c0.2,0,0.5,0.2,0.5,0.3c0,0.3-0.2,0.5-0.3,0.8C447.2,275,447,274.9,446,274.5z"/>
	<path d="M475.5,269c0.8,0.7,0.9,1.5,0.4,2.5c-0.9-0.9-0.4-1.8-0.3-2.6L475.5,269z"/>
	<path d="M646.3,209.1c1.9,0.5,2.6,1.7,3.6,2.3c1,0.7,2.1,1.3,3.6,2.3c-1.1,0.1-1.7,0.3-2.1,0.2C649.3,213,647.6,211.7,646.3,209.1z
		"/>
	<path d="M514.7,169.5c2.4-0.2,4.7-0.7,7.1-0.2c0.1,0.7-0.2,1-0.7,1C518.8,170.3,516.7,170.3,514.7,169.5z"/>
	<path d="M574.5,192.3c-1.3,0.4-2.2,1.1-3.3,0C572.3,191.4,573.2,191.4,574.5,192.3z"/>
	<path d="M558.4,194.9c0-0.1,0-0.3,0.1-0.3c0.4-0.1,0.8-0.3,1.2-0.3c0,0,0.3,0.5,0.2,0.5c-0.3,0.2-0.6,0.3-0.9,0.4
		C558.8,195.2,558.6,195,558.4,194.9z"/>
	<path d="M548.1,195.7c1.2-0.5,1.2-0.5,2.3,0C549.1,196.2,549.1,196.2,548.1,195.7z"/>
	<path d="M643.8,206.8c-0.2,0-0.4,0.1-0.6,0.1c-0.1,0-0.2-0.1-0.3-0.1c0.1-0.1,0.2-0.2,0.3-0.2C643.4,206.6,643.6,206.7,643.8,206.8
		z"/>
	<path d="M554.6,194.6c-0.1,0.2-0.1,0.5-0.2,0.5c-0.2,0.1-0.4-0.1-0.6-0.2c0.1-0.2,0.2-0.4,0.3-0.6
		C554.2,194.3,554.4,194.5,554.6,194.6z"/>
	<path d="M530.8,171.4c0.4,0,0.7-0.1,0.9-0.1c0.1,0,0.2,0.2,0.3,0.4c-0.3,0.1-0.6,0.2-0.9,0.2C531.1,171.9,531,171.7,530.8,171.4z"
		/>
	<path d="M230.9,270.2c-0.5,0.1-1.1,0.3-1.6,0.2c-3.2-0.9-6.6-1.2-9.2-3.5c-2.4-0.7-4.8-1.4-7.2-2.1c-0.5-0.2-1.2-0.1-1.3-0.9
		c0.1-0.1,0.1-0.2,0.2-0.2c3.4-0.5,6.6,0.3,9.5,1.9c1.7,1,3.4,1.8,5.3,2.2c1.1,0.2,2.2,0.6,3.3,1c0.4,0.1,0.7,0.5,1.1,0.7
		C231,269.7,230.9,270,230.9,270.2z"/>
	<path d="M275.8,137.3c-0.7,0.5-0.9,1.8-2,2.1c-0.1-1.6,0.2-2.6,1.2-3.1c1.3-0.7,2.4-1.7,4-1.7c2,0,4.1-0.4,6.1-0.5
		c0.9,0,1.7,0.2,2.6,0.3c-0.2,0.4-0.2,0.7-0.3,0.8C283.8,136,280.1,137.3,275.8,137.3z"/>
	<path d="M224.8,154.2c0.1-2.3,0.3-4.3,2.4-5.8C227.4,150.8,226.5,153,224.8,154.2z"/>
	<path d="M279.2,139.2c-0.6,1.1-1.5,1.1-2.6,0.7C277.3,138.3,277.7,138.2,279.2,139.2z"/>
	<path d="M191.4,256.3c0.1,0.7,0.1,1.3,0.2,2.2C190.7,257.9,190.7,257.9,191.4,256.3z"/>
	<path d="M242.7,134.5c-0.2,0.1-0.5,0.3-0.7,0.4c-0.1,0-0.4-0.4-0.3-0.5c0.2-0.2,0.4-0.4,0.7-0.6C242.4,134,242.5,134.2,242.7,134.5
		z"/>
	<path d="M284.3,139c-0.5,0-0.8,0-1.2,0c0,0-0.1-0.5-0.1-0.5c0.3-0.1,0.6-0.2,0.9-0.2C284.1,138.3,284.2,138.6,284.3,139z"/>
	<path d="M224.2,158.5c-0.1-0.3-0.3-0.6-0.2-0.9c0-0.2,0.4-0.3,0.6-0.4c0,0.3,0.1,0.6,0.1,0.9C224.7,158.2,224.4,158.3,224.2,158.5z
		"/>
	<path d="M223.8,162.6c-0.1-0.1-0.4-0.3-0.3-0.4c0.1-0.4,0.3-0.7,0.5-1.1c0,0,0.3,0.1,0.3,0.1c0,0.4,0,0.8-0.1,1.2
		C224,162.5,223.9,162.6,223.8,162.6z"/>
	<path d="M243.9,138.9c-0.4,0.2-0.7,0.4-0.9,0.5c-0.1-0.3-0.2-0.6-0.2-0.9c0-0.1,0.4-0.3,0.4-0.3
		C243.4,138.4,243.6,138.7,243.9,138.9z"/>
	<path d="M290.8,133.7c-0.3,0.2-0.4,0.5-0.5,0.4c-0.2-0.1-0.5-0.2-0.7-0.4c0.1-0.1,0.1-0.2,0.2-0.2
		C290,133.5,290.3,133.6,290.8,133.7z"/>
	<path d="M243.8,141.9c0.1,0.1,0.2,0.2,0.2,0.2c0,0.2-0.2,0.4-0.2,0.5c-0.1-0.2-0.1-0.4-0.2-0.6C243.6,142.1,243.7,142,243.8,141.9z
		"/>
	<path d="M191,242.6c-0.1,0-0.2,0.1-0.3,0c-0.1,0-0.1-0.2-0.1-0.3c0.1,0,0.3-0.1,0.4-0.1C191,242.4,191,242.5,191,242.6z"/>
	<path d="M349.8,144c1,0.2,1.4,1.1,1.7,1.9c1.1,3.4,1.1,7,0.7,10.5c-0.1,0.6-0.6,1.1-1,1.9c-0.8-2-1-3.6-1-5.3c0-2.5-0.3-5-1.2-7.4
		C348.7,144.9,348.9,144.3,349.8,144z"/>
	<path d="M333.1,161.9c0.1-0.3,0.2-0.7,0.4-0.9c1.8-1.2,3.5-2.6,5.6-3.2c0.1,0,0.4,0.2,0.5,0.3C337.7,160.4,335.8,161.5,333.1,161.9
		z"/>
	<path d="M350.5,163c1.4,1.5,1,3.3,1.5,4.8c-0.7,0.4-1,0-1.1-0.4c-0.3-1.1-0.6-2.2-0.8-3.3C350.1,163.8,350.3,163.5,350.5,163z"/>
	<path d="M354.6,172.9c-1.9-1.8-1.9-1.8-1.7-3.8c0.5,0.9,0.9,1.4,1.1,2C354.2,171.6,354.9,172.1,354.6,172.9z"/>
	<path d="M380.3,169.1c-1.3,1.4-1.3,1.4-3.3,1.2C378,169.3,378,169.3,380.3,169.1z"/>
	<path d="M390.1,175.4c-1.8-0.7-2.4-1.2-3.4-2.8l-0.1,0.1C388.3,172.9,389.5,173.9,390.1,175.4L390.1,175.4z"/>
	<path d="M327.5,163.3c0.9-0.4,1.7-0.7,2.6-1c0,0.4,0.1,0.6,0,0.7C329.4,163.6,328.6,164,327.5,163.3z"/>
	<path d="M340.4,166.6c0.7-0.3,1.4-0.6,2.1-0.9c0.4,0.8-0.3,0.8-0.6,1c-0.3,0.2-0.8,0.2-1.2,0.4
		C340.6,166.9,340.5,166.8,340.4,166.6z"/>
	<path d="M357.8,177.4c-0.9-0.5-1.4-1.3-1.8-2.6C357.3,175.5,357.6,176.4,357.8,177.4L357.8,177.4z"/>
	<path d="M386.7,172.6c-0.2,0-0.4,0-0.6,0c-0.1,0-0.2-0.1-0.2-0.2c0.2-0.1,0.4-0.3,0.5-0.2C386.5,172.2,386.6,172.5,386.7,172.6
		L386.7,172.6z"/>
	<path d="M332,173c-0.2,0.1-0.4,0.1-0.6,0.2c-0.1,0-0.1-0.1-0.2-0.2c0.2-0.1,0.4-0.1,0.5-0.1C331.8,172.8,331.9,172.9,332,173z"/>
	<path d="M390.1,175.4c0.5,0,0.8,0.2,0.7,0.7l0.1-0.1C390.3,176.1,390.1,175.9,390.1,175.4C390.1,175.4,390.1,175.4,390.1,175.4z"/>
	<path d="M390.7,176.1c0.2,0,0.3,0.1,0.5,0.1C390.8,176.8,390.9,176.2,390.7,176.1L390.7,176.1z"/>
	<path d="M357.7,177.5c0.1,0.1,0.2,0.2,0.3,0.3c-0.1,0-0.1,0-0.2-0.1C357.8,177.6,357.8,177.5,357.7,177.5L357.7,177.5z"/>
	<path d="M423.6,219.3c0.7-3.2,0-6.5,0.6-9.7c0.8,3-0.1,6.1,0.7,9.2c1,0.1,2,0.2,3,0.3c-0.2,0.1-0.3,0.1-0.4,0.2
		c-2.9,0.4-2.9,0.4-3.2,3.3c0,0.3-0.1,0.7-0.2,1.4c-0.1-1.3-0.2-2.3-0.3-3.5c-0.6-0.2-1.3-0.3-2-0.5
		C422.5,219.6,423,219.5,423.6,219.3z"/>
	<path d="M396.3,188.4c0.3-1.3,1-2.3,2.4-3.1C397.9,187.4,397.9,187.4,396.3,188.4L396.3,188.4z"/>
	<path d="M419.5,220.6c-1.3,0-2.2,0-3.3,0C417.2,220,418.1,220.2,419.5,220.6z"/>
	<path d="M394.3,191.3c0.2-1.3,0.7-2.3,2-2.8l0.1,0.1C396.1,189.8,395.4,190.6,394.3,191.3L394.3,191.3z"/>
	<path d="M430.9,218.4c0.4,0,0.8,0,1.2,0c0,0,0,0.1,0,0.1c-0.4,0-0.8,0.1-1.2,0.1C430.9,218.5,430.9,218.5,430.9,218.4z"/>
	<path d="M417.2,217.4c0-0.3,0-0.6,0-0.9c0.1,0,0.1,0,0.2,0c0,0.3,0,0.6,0,0.9C417.3,217.4,417.3,217.4,417.2,217.4z"/>
	<path d="M395.5,198.1c0,0.2-0.1,0.4-0.1,0.6C395.5,198.5,395.6,198.4,395.5,198.1L395.5,198.1z"/>
	<path d="M398.3,193.3c-0.2,0.4-0.4,0.9-0.6,1.3l0.1,0.1C398,194.2,398.2,193.8,398.3,193.3L398.3,193.3z"/>
	<path d="M394.2,191.2c-0.1,0.1-0.2,0.2-0.3,0.3c0-0.1,0-0.2,0.1-0.2C394.1,191.3,394.2,191.3,394.2,191.2L394.2,191.2z"/>
	<polygon points="399,188.5 398.9,188.6 399.1,188.5 	"/>
	<path d="M399.1,188.5c0.3-0.2,0.5-0.4,0.8-0.6l-0.1-0.1C399.5,188.1,399.2,188.3,399.1,188.5L399.1,188.5z"/>
	<polygon points="399.8,187.9 399.9,187.7 399.8,187.9 	"/>
	<polygon points="398.4,193.4 398.5,193.2 398.3,193.3 	"/>
	<polygon points="397.7,194.6 397.6,194.8 397.8,194.7 	"/>
	<polygon points="395.6,198.2 395.7,198 395.5,198.1 	"/>
	<path d="M332.1,138.2c0-0.3,0-0.4,0-0.5c4.3-4.9,4.4-10.6,3.6-16.6c-0.1-1.1-0.7-2.2-1-3.3c-0.1-0.4-0.1-0.9-0.1-1.3
		c0-0.5,0.9-0.9,1.3-0.6c0.2,0.1,0.4,0.2,0.6,0.4c0.2,0.2,0.5,0.5,0.6,0.8c3,4.8,2.4,14.2-1.2,18.6c-0.7,0.9-1.6,1.6-2.5,2.3
		C333,138.2,332.5,138.1,332.1,138.2z"/>
	<path d="M329.6,138.5c-0.4,2.2-1.6,2.8-2.6,3.4c-1,0.6-2,1.5-3.6,0.9C325.2,141.1,327.3,140.3,329.6,138.5z"/>
	<path d="M331.5,111.1c-1.7,0-2.7-0.3-3.3-1.5C329.8,109.1,329.8,109.1,331.5,111.1z"/>
	<path d="M334.7,114.7c-1.1-0.4-1.8-1.1-2-2.3C334.9,113.1,334.9,113.1,334.7,114.7z"/>
	<path d="M288.2,156.8c0.4,0.3,0.8,0.7,1.1,1C288.6,157.8,288.1,157.5,288.2,156.8L288.2,156.8z"/>
	<path d="M319.1,142.6c0.1,0,0.2-0.1,0.3-0.1c0,0.1,0,0.2,0.1,0.4c-0.1,0-0.2,0-0.3-0.1C319.2,142.7,319.2,142.6,319.1,142.6z"/>
	<path d="M295.8,162.9c-0.2,0-0.4,0-0.6,0c-0.1,0-0.1-0.1-0.2-0.2c0.2-0.1,0.4-0.2,0.5-0.2C295.6,162.6,295.6,162.8,295.8,162.9
		L295.8,162.9z"/>
	<path d="M295.7,163c0.1,0.1,0.2,0.2,0.3,0.3c-0.1,0-0.1,0-0.2-0.1C295.8,163.1,295.8,163,295.7,163L295.7,163z"/>
	<path d="M315.6,142.5c0,0.1,0,0.1,0,0.2c-0.1,0-0.3-0.1-0.4-0.1c0.1-0.1,0.1-0.2,0.2-0.2C315.4,142.4,315.5,142.5,315.6,142.5z"/>
	<path d="M694.9,217.5c-0.6-0.3-1-0.5-1.6-0.8c-2.8,1.6-5.1,4-7,6.9c0.1-0.6,0-1.3,0.2-1.8c1.1-2.5,2.9-4.5,5.3-5.7
		c2-1,3.1-2.5,4.2-4.3c2.2-3.8,5.1-7,8.5-9.8c1.5-1.2,3-2.5,4.4-3.8c2.6-2.4,5.8-3.7,9-4.8c0.2-0.1,0.5-0.1,0.7-0.1
		c0.4,0.2,0.8,0.4,1,0.8c0.1,0.2-0.1,0.7-0.3,0.9c-0.4,0.4-0.9,0.7-1.5,0.9c-3.7,1.2-6.8,3.1-9.6,5.9c-0.6,0.6-1.4,1.1-2.2,1.7
		c-4.2,3-7.3,6.9-9.8,11.4C695.9,215.6,695.5,216.4,694.9,217.5z"/>
	<path d="M705,222.7c0.8-0.9,1.2-1.4,1.6-1.6c2-1.2,3.5-2.9,5-4.7c3-3.6,6.1-7.1,9.3-10.8c0.7,0.2,1.3,0.4,2.1,0.6
		c-0.2,0.8-0.3,1.5-0.6,2.1c-0.6,1.1-1.4,2.1-2.1,3.1c-2.6,3.4-5.6,6.4-8.8,9.2C709.3,222.2,709.3,222.2,705,222.7z"/>
	<path d="M678.7,231.7c-1.6,0.5-3.3,0.9-4.9,1.4c-1.9,0.6-3.8,1-5.6,1.7c-4.7,1.7-8.4,4.6-10.5,9.3c-0.3,0.6-0.7,1.2-1,1.8
		c0,0.1-0.2,0.1-0.3,0.1c-0.7-0.4-0.4-1-0.3-1.4c1.2-3.6,3.2-6.6,6.5-8.6c1.5-1,3.2-1.9,4.9-2.5C671,232.1,674.7,231.4,678.7,231.7z
		"/>
	<path d="M715.2,204.4c1.3-0.6,1.4-2,1.6-3.1c1-0.2,1.1,0.4,1,0.9c-0.2,1.4-0.9,2.6-1.8,3.6c-1.5,1.6-3,3.1-4.6,4.6
		c-1.1,1-2.3,1.9-3.5,2.7c-2.7,1.8-5.5,3.6-8.2,5.4c-0.6-0.7-0.2-1.2,0.2-1.6c1.2-1.2,2.4-2.4,3.6-3.5l-0.1-0.1
		c0.3,0.4,0.6,0.6,0.8,0l-0.1,0.1c0.3-0.1,0.7,0,1-0.2c3.4-2,6.4-4.4,9.1-7.3c0.2-0.2,0.2-0.6,0.3-0.9l-0.1,0.1
		C714.7,204.8,715,204.5,715.2,204.4L715.2,204.4z"/>
	<path d="M674.7,238.2c-0.7,0.8-1,1.3-1.5,1.7c-1.3,0.9-2.7,1.8-4,2.6c-2.4,1.6-4.5,3.4-6.5,5.5c-0.2,0.2-0.7,0.2-0.9,0
		c-0.2-0.1-0.4-0.6-0.3-0.9c1-2.2,2.2-4.2,4.5-5.3c1.7-0.9,3.3-1.9,5-2.9C672.1,238.3,673.2,238.1,674.7,238.2z"/>
	<path d="M703.5,213.3c0.5-0.8,0.8-1.6,1.4-2.3c2.5-2.7,5.4-4.9,8.6-6.8c0.6-0.4,1.2-0.7,1.7,0.2l0.1-0.1c-0.3,0.3-0.5,0.5-0.8,0.8
		l0.1-0.1c-3.2,1.3-7.9,5.1-10.4,8.4l0.1-0.1C704,213.2,703.7,213.2,703.5,213.3L703.5,213.3z"/>
	<path d="M682.1,227.8c-0.4,0.2-0.8,0.3-1.2,0.5c0-0.1-0.1-0.2-0.1-0.3C681.3,228,681.7,227.9,682.1,227.8L682.1,227.8z"/>
	<polygon points="682.2,227.9 682.2,227.7 682.1,227.8 	"/>
	<path d="M198.6,329.6c0.5,0,1,0,1.5,0C199.6,330.6,199.4,330.6,198.6,329.6z"/>
</g>
</svg>
