<?xml version="1.0" encoding="utf-8"?>
<!-- Generator: Adobe Illustrator 19.2.0, SVG Export Plug-In . SVG Version: 6.00 Build 0)  -->
<svg version="1.1" id="Layer_2" xmlns="http://www.w3.org/2000/svg" xmlns:xlink="http://www.w3.org/1999/xlink" x="0px" y="0px"
	 viewBox="0 0 900 600" style="enable-background:new 0 0 900 600;" xml:space="preserve">
<g>
	<path d="M358.8,331.7c1.6,0.5,3.1,1.4,5,1.4c0.3,0.7,0.6,1.3,1,2.1c5.2,1.8,10.2,4.2,15.6,5.8c4.8,1.4,9.5,3.3,14.3,4.9
		c3,1,6,1.8,9.1,2.6c1,0.2,1.8,0.6,2.4,1.3c2.5,2.5,4.7,5.2,6.2,8.5c0.6,1.3,1.1,2.6,0.7,4c0.7,3,0.2,6.3,1.9,9.2
		c1.2,2.1,1.6,4.4,1.5,6.8c-0.1,3.1,0.4,6,0.9,9c0.8,4.4,0.7,8.8,0.9,13.3c0,0.7-0.1,1.4-0.2,2.1c-0.4,2.9-0.9,3.4-4.2,3.9
		c0.5,0.7,1,1.3,1.5,2c0.7-0.4,1.4-0.7,2-1c11-6.1,22.4-11.1,34.1-15.5c6.8-2.5,13.5-5.2,20.6-6.9c9-2.3,17.9-4.4,27.2-4.9
		c0.9-0.1,1.8-0.2,2.6-0.9c0.6-0.5,1.5-0.7,2.3-0.8c3.2-0.4,6.5-0.8,9.7-1.2c1.4-0.1,2.8-0.1,4.1,0.6c1.2,0.6,2.3,0.4,3.3-0.2
		c4.6-2.8,9.7-3.3,14.8-3.6c5.7-0.2,11.4-0.8,17.1-1.9c3.8-0.7,7.7-0.4,11.5-0.3c1.1,0,2,0.6,2.8,1.3c1.1,1.1,2,2.3,3.1,3.4
		c1.2,1.3,1.9,3,3.4,3.9c0.4,0.2,0.5,0.7,0.7,1.1c2.3,4.6,4.8,9.1,6.8,13.9c1.4,3.4,3.4,6.6,5.2,9.9c0.4,0.8,1.1,1.5,1.7,2.3
		c1.1,1.4,2.2,2.7,3.4,4c1.7,1.9,3,4.2,5.4,5.4c2.2,2.7,4.6,5.3,6.6,8.2c3.6,5.2,6.2,11,8.5,16.9c1.1,3,2.2,5.9,3.3,8.9
		c0.8,2.1,1.7,4.1,3.4,5.6c0.3,0.3,0.6,0.7,0.9,1.1c1.9,2.7,3.7,5.4,5.6,8c1.6,2.2,3.3,4.2,4.9,6.4c2.8,3.8,5.6,7.5,8.3,11.3
		c2.6,3.8,5.4,7.4,8.3,10.9c2,2.4,3.8,3.8,6.4,5c0.2-0.9,0.4-1.8,0.6-2.7c0.2-0.8,0.3-1.6,0.5-2.5c2.2-0.2,4.2,0.2,6.2,1.1
		c2.6,1.1,5.2,2.1,7.6,3.6c2.8,1.8,5.9,2.3,8.9,2.8c3.5,0.5,7,0.6,10.5,0.1c3.2-0.4,6.5-0.6,9.9-0.8c1.1-2.1,3.1-3.1,5.1-3.9
		c0.9-0.3,1.8-0.7,2.6-0.9c3.5-1.1,6.8-2.4,9.9-4.3c0.6-0.4,1.3-0.6,1.8-1c0.5-0.4,0.8-1.1,1.3-1.8c2.4,2.3,4.9,4.5,6.8,7.1
		c1.4,1.9,2.8,3.7,3.7,5.9c1.2,3,1.1,5.9-0.1,8.9c-1.2,2.8-3.1,5.2-5.4,7.3c-1.8,1.7-3.7,3.3-5.3,5.1c-3.7,4-8.2,7-12.7,9.8
		c-3.6,2.2-7.1,4.6-11.2,5.7c-5.4,1.5-10.4,4.2-15.6,6.1c-2.1,0.8-4.1,1.7-6.1,2.6c-0.8,0.3-1.7,0.5-2.6,1.1
		c1.9,0.1,3.8,0.3,5.7,0.3c4.7,0,9.4,0.1,14-0.1c1.9-0.1,3.1,0.6,4.1,2.1c2.7,3.9,4.8,8,6.8,12.2c0.5,1.1,0.3,2.1-0.5,2.9
		c-1,0.9-2.1,1.9-3.3,2.6c-2.7,1.6-5.5,3.1-8.2,4.7c-2.8,1.7-5.6,3.4-8.4,5.1c-2.6,1.6-5.5,2.6-8.4,3.4c-5.8,1.6-11.6,2.6-17.6,3.1
		c-0.7,0.1-1.5,0-2.1,0.3c-2.3,1.1-4.6,0.7-6.9,0.3c-3.5-0.5-7,0.2-10.5,0.2c-5.1,2-10.7,2.5-15.7,4.7c-3.4,1.5-6.9,2.2-10.5,2.5
		c-4.9,0.4-9.8,0.7-14.7,0.6c-1.5,0-3-0.1-4.2-1.3c-0.5-0.5-1.5-0.6-2.2-0.7c-2.1-0.2-4.1-0.7-6-1.7c-2.2-1.2-2.9-2.5-2.3-4.9
		c0.7-3.2,1.5-6.4,2.1-9.6c0.6-3.4,0.4-6.8,0.2-10.1c-0.2-2.4-0.3-4.9-0.5-7.3c-0.1-2.1-0.2-4.2-0.3-6.3c0-0.6-0.1-1.2,0-1.8
		c0.2-2.7,1.1-3.8,3.9-4.6c0.2-0.1,0.4-0.2,0.8-0.4c-0.2-0.6-0.4-1.3-0.7-1.8c-2.3-4.2-4.6-8.4-7-12.5c-0.9-1.6-2.1-3-3.5-4.3
		c-1.5-1.3-2.8-2.9-3.9-4.5c-3.6-5.3-7.2-10.7-10.5-16.2c-3-4.9-6.2-9.6-9.6-14.3c-1-1.3-2.1-2.5-3.2-3.7c-3.3-3.6-6.7-7.2-10-10.8
		c-4.1-4.5-7.4-9.6-9.5-15.4c-0.9-0.3-1.1,0.3-1.5,0.8c-1,1.3-1.9,2.7-2.9,3.9c-1,1.3-2.1,2.5-3.4,4c0.4,4.6,0.6,9.7,0.2,14.9
		c-0.2,1.9-0.5,3.7-0.9,5.5c-0.1,0.4-0.4,0.8-0.6,1.1c-1.4,0.7-2.6,0.2-3.9,0.2c-1.3,0-2.6-0.2-3.8-0.3c-1.1,0.9-0.6,2-0.6,3
		c0,3.7-0.3,4.1-3.8,5.3c-1.4,0.5-2.9,0.9-4.4,1.3c-3.2,0.8-6.2,2-9.1,3.7c-2.8,1.5-5.5,3.1-8.5,4.1c-0.7,0.3-1.4,0.8-2,1.4
		c-1.3,1.3-2.8,2-4.6,2.3c-0.9,0.2-1.8,0.3-2.8,0.4c-3.8,0.4-7.7,0.8-11.6,1.2c-0.7,0.8-1.5,1.6-2.3,2.5c-2.2,2.3-4.8,3.7-7.9,4.2
		c-7.7,1.3-15.2,3.4-22.6,6.1c-6.3,2.3-12.8,2.6-19.3,0.5c-6.2-2-12.3-4.5-18.1-7.9c-1.5,0.8-3,1.7-4.6,2.4
		c-9.5,4.4-19.1,8.9-28.9,12.5c-5.6,2.1-11,4.6-16.4,7.1c-8.4,4-17,7.7-25.7,11.3c-1.3,0.5-2.6,1-3.9,1.5c-2.4,0.8-4.8,1.5-6.9,3.2
		c-1.7,1.4-4,1.9-6.1,2.4c-3.1,0.7-6,1.8-8.7,3.5c-0.9,0.6-1.7,0.6-2.7,0.4c-1-0.1-2.1-0.3-3.1-0.2c-4.2,0.4-8.1-0.3-11.6-2.9
		c-1.3-1-2.6-2-3.8-3.1c-1.4-1.3-1.9-3.1-1.9-4.8c0-1.6-0.7-2.6-1.4-3.8c-2.1-3.2-3.9-6.7-4.6-10.5c-0.5-2.6-0.6-5.3-0.8-8
		c0-0.5,0-1,0.1-1.4c0.3-0.8,0.9-1.6,1.1-2.5c0.2-0.9-0.1-1.9,0-2.8c0.4-3,1.6-5.6,3.5-7.9c2.4-2.8,5.2-5.1,8.4-6.8
		c1.3-0.7,2.7-1.2,3.9-2.2c0.7-0.6,2-0.7,3-0.8c3.2-0.4,6.1-1.5,8.8-3.2c3.1-1.9,6.4-3.4,9.9-4.5c5.1-1.6,10.3-3,15.5-4.5
		c5.1-1.4,10.1-2.8,15.2-4.3c0.3-0.1,0.5-0.4,1-0.7c-0.4-0.2-0.6-0.4-0.9-0.5c-1.3-0.4-2.7-0.8-4-1.3c-10.4-4.4-20-10.1-28.8-17.2
		c-4.8-3.8-8.9-8.3-11.9-13.6c-1.8-3.1-3.6-6.2-5.9-9.1c-2.7-3.4-4.5-7.4-6.4-11.3c-1.6-3.4-3.1-6.8-4.6-10.2
		c-0.5-1.1-1.2-1.9-2.4-2.6c-0.3-4-0.7-8.1-0.9-12.2c-0.1-1.8-0.4-3.5-1.2-5.1c-0.7-1.4-1.4-2.7-2-4.1c-0.9-1.9-1.8-3.8-2-5.9
		c-0.6-6.4-0.6-12.8,0.8-19.2c1-4.7,3.3-8.7,5.8-12.7c0.6-1,1.6-1.2,2.8-1.8c1.5-5.5,4.5-10.3,7.7-15.1c1.4-2,2.9-3.9,4.5-5.8
		c2.5-3,5.6-5.3,8.8-6.8c1.5-2.4,2.7-4.5,4.1-6.7c-0.2-0.1-0.6-0.2-1-0.4c-0.4-0.2-0.8-0.5-1.1-0.7c0.5-1.5,0.9-2.9,1.4-4.4
		c1.5-0.2,3-0.5,4.6-0.7c0.8,0.4,1.7,0.9,2.5,1.3c0.8-0.3,0.6-0.7,0.6-1.2c-0.1-1.2-0.2-2.3-0.1-3.5c0-0.2,0.4-0.6,0.7-0.6
		c0.3,0,0.8,0.2,0.9,0.4c0.3,0.7,0.5,1.5,0.7,2.3c0.5-0.4,1-0.8,1.4-1.2c1.3,0.1,2.6,0.1,3.8,0.3c0.9,0.1,1.9,0.1,2.7,0.5
		c3.8,1.5,7.9,1.8,12,2.2c1.6,0.2,3.2,0.2,4.7,1.2c0.6,0.4,1.6,0.6,2.3,0.5c1.9-0.4,3.5,0.4,4.9,1.4c1.7,1.2,3.3,2.1,5.5,1.8
		c1-0.1,2.1,0.1,3.1,0.3c0.9,0.2,2,0.3,2.6,0.9c1.8,1.5,3.8,1.6,5.9,1.7c1.7,0,3.5-0.1,5.2,0.6C358.6,330.7,358.8,331.2,358.8,331.7
		l-0.2,0.1L358.8,331.7z M356.7,335.2c0.1-0.1,0.1-0.1,0.2-0.2C356.9,335.1,356.8,335.1,356.7,335.2l-0.1,0.1L356.7,335.2z
		 M295.7,331.1c-1,0.2-1.3,0.8-1.2,1.8C295.6,332.6,295.6,331.8,295.7,331.1c0-0.1,0-0.2,0.1-0.3C295.8,330.9,295.7,331,295.7,331.1
		z M371.4,432.7c1.1-0.3,1.4-1.1,1.3-2.2l0.3,0l-0.2,0.1C372.3,431.3,371.4,431.8,371.4,432.7c-0.1,0.3-0.3,0.4-0.5,0.6
		c0.1,0.1,0.2,0.1,0.2,0.2c0.1-0.2,0.3-0.3,0.3-0.5C371.5,433,371.5,432.9,371.4,432.7z M335.7,337.4c0.9-0.1,1.8-0.2,3.4-0.4
		C337.5,336.6,336.5,336.5,335.7,337.4c-0.3,0.1-0.7,0.1-1.2,0C335.1,338.1,335.4,337.5,335.7,337.4z M342.7,330.3c0.7,0,1.3,0,2,0
		c0.2,0.7,0.3,1.2,0.4,1.8c1.1-0.2,2.2-0.3,2.9-1.4c-1.3-1.2-2.7-1.9-4.4-1.8C342.6,329,342.5,329.6,342.7,330.3
		c-0.7,0.3-1.4,0.5-2.1,0.9c-0.4,0.2-0.7,0.6,0,1.2C341.2,331.7,342,331,342.7,330.3z M404.4,414.6c2.8-0.8,6.7-3.1,9-5.4
		c-1.8-2.4-3.6-4.9-5.9-6.8c-2.3-1.8-3.9-4-4.2-6.7c-0.4-0.3-0.5-0.5-0.7-0.6c-1.8-0.6-2.9-1.8-3.2-3.8c-0.2-1.4-1-2.6-1.8-3.7
		c-0.9-1.3-2-2.6-2.8-4c-1-1.7-2.3-2.9-3.9-3.9c-1.4-0.8-2.8-1.6-4-2.7c-0.8-0.7-1.8-1.2-2.9-0.8c-1.5,0.6-3,0.2-4.4-0.2
		c-0.7,0.4-1.3,0.7-1.9,1c-1.2,0.7-2.6,1.2-4,0.9c-2.5-0.5-4.8-0.1-6.9,1.3c-0.2,0.1-0.4,0.3-0.6,0.4c-0.6,2-1.7,3.8-3.2,5.3
		c-1.3,1.2-1.5,2.6-1.3,4.1c0.2,0.9,0.5,1.8,0.9,2.6c0.7,1.2,1.5,2.3,2.2,3.3c1.5,0.4,2.7,0.7,4,1c0.6,0.1,1.3,0,1.7,0
		c0.2-3-1.6-4.9-2.6-7.1c-1-0.5-2-0.9-3.6-1.7c1.8-0.2,2.8-0.2,3.8-0.3c1.1-1.3,2-2.6,3.1-3.9c0.6-0.7,1.3-1.3,2.1-1.8
		c0.6-0.4,1.1,0,1.2,0.9c-1.6,2-3.2,4.1-4.5,6.6c1,1.8,2,3.5,2.9,5.2c1.6,0.5,1.8,2,2,3.3c1.3,0.3,2.4,0.5,3.3,0
		c0.1-1.1,0-2.1,0.3-2.9c0.4-1.2-0.3-2-0.5-3c-0.2-0.9-0.4-1.7-0.6-2.6c-2,0.6-3.9,1-5.8-0.9c1.8,0,3.2,0,4.6,0
		c1.4-2.2,2.5-4.7,5.3-6.1c0.1,2.4-1.8,3.5-2.2,5.7c0.2,1.1,0.5,2.6,0.9,4.1c0.2,0.8,0.6,1.6,0.5,2.4c0,0.7-0.6,1.3-0.9,2
		c2.9,1.8,4,2.2,4.9,1.9c0.5-0.4,1-0.9,1.5-1.3c1.2,0.8,1.1,1.7,0.7,2.6c-0.4,0.9-1.2,1.1-2.1,1c-1.5-0.3-2.9-0.8-4.4-1.2
		c-0.5,0.4-1.4,0.4-1.5,1.4c1.1,0.8,2.5,1,3.8,1.4c1.9,0.4,3.7,1.2,5.2,2.7c0.7,0.7,1.7,1.2,2.4,1.7c1.6-0.5,2.9-0.9,4.2-1.3
		c1.4-0.5,2.1-2.1,3.7-2.5c0,1.4,0,1.4-2.6,3.8c0,0.7,1.3,1.1,0.6,2.3c-0.7-0.6-1.4-1-2-1.5c-0.7-0.6-0.7-0.6-2.5,0.1
		c0.6,0.5,1.1,0.9,1.6,1.4c1.4,1.3,3,2.3,4.1,3.8c1.4,1.9,3.5,2.6,5.5,3.3C403.4,415.5,404.1,415.4,404.4,414.6L404.4,414.6z
		 M626.2,522.7c-0.6-1.3-1.1-2.6-1.7-3.8c-0.5-0.9,0.6-1.1,0.5-1.9c-0.3-0.5-0.7-1.1-1.1-1.6c-5.7-8.1-12.3-15.4-19.5-22.3
		c-2.2-2.1-4.3-4.2-6.5-6.3c-0.3-0.3-0.8-0.4-1.1-0.6c0.2-0.4,0.3-0.8,0.6-1.3c0.4,0.2,0.8,0.3,1,0.5c7.5,6.1,14.6,12.7,20.7,20.2
		c4.3,5.2,8.5,10.5,10.8,17c1.2,0.6,2,1.7,3.5,1.5c0.8,1.8,2.7,2.1,4.1,3c1.2,0.8,2.4,0.8,3.6,0.1c3.7-1.8,7.1-4.1,9.9-7
		c0.8-0.9,1.4-1.8,1.7-3c0.9-3.9,2-7.7,2.9-11.5c0.2-0.6,0.1-1.3,0.1-2c-1,0-1.2,0.5-1.3,1.1c-1.3,4.3-3.6,8.1-6.7,11.4
		c-2.5,2.7-5.4,4.8-8.5,6.7c-1.9,1.1-3.8,1.7-6,1.3c0-0.8,0-1.7,1-1.9c0.9-0.2,1.8-0.5,2.2-1.6c-0.9-1.7-1.8-3.4-2.6-5.2
		c-0.9-1.9-2.8-3.1-3.6-5.3c1.5-0.5,2.5,0.2,3.3,1c1.9,1.9,3.4,4.2,4.1,6.8c0.2,0.6,0.5,1.2,0.8,1.9c7-4.2,12.4-9.4,14.7-17.1
		c-0.8-1.3-1.8-1.7-2.9-2.2c-0.9-0.5-1.9-0.9-2.7-1.6c-2.5-2.4-5.1-4.8-7-7.8c-4.9-7.7-10.5-14.9-16.2-22c-1.3-1.5-2.5-3.1-3.5-4.8
		c-5-8-9-16.4-12.1-25.2c-0.4-1.2-1-2.4-1.6-3.5c-0.8-1.6-1.7-3.1-2.6-4.6c-1.4-2.3-2.7-4.7-4.1-6.9c-0.8-1.2-1.7-2.2-2.7-3.2
		c-6.6-6.5-12.6-13.5-16.6-21.9c-0.4-0.7-0.7-1.5-1.2-2.2c-0.2-0.4-0.5-0.9-0.9-1c-2-0.7-2.9-2.6-4.3-3.9c-0.1-0.1,0.1-0.4,0.2-0.7
		c1.4,0.2,2,1.8,3.3,2.3c0.1-0.3,0.2-0.6,0.2-0.7c-1-2.3-1.9-4.5-2.9-6.7c-0.3-0.7-0.9-1.3-1.5-1.9c-1.4-1.6-2.8-3.1-4.2-4.7
		c-1.1-1.2-2-2.6-3.2-3.7c-0.6-0.6-1.5-1.3-2.3-1.3c-3.3-0.2-6.6-0.5-9.8,0c-7.1,1.1-14.2,1.6-21.3,1.8c-1.2,0-2.4,0-3.5,0.2
		c-2,0.3-4.2,0.4-6.2,1.8c0.7,0.1,1.2,0.3,1.6,0.3c7.6,0.3,15.2,0.6,22.8,0c2.7-0.2,5.4-0.2,8.1-0.2c0.9,0,1.9,0.2,2.7,0.6
		c2.5,1.3,4.7,3,6,5.7c3.6,7.4,6.5,15,8,23.1c0.3,1.5,0.1,3.3,1.7,4.4c0.4,0.3,0.3,1.1,0.4,1.7c0.1,0.8,0.2,1.6,0.4,2.4
		c2.1,1,3.7,2.6,5,4.4c0.3,0.5,0.7,0.9,1.1,1.3c3.5,3.2,5.7,7.4,7.9,11.5c0.4,0.7,0.5,1.5,0.7,2.3c0.1,0.2-0.2,0.6-0.4,1
		c-1.3-0.7-1.8-1.9-2.4-3c-2.2-4.7-5.6-8.6-8.4-12.9c-0.3-0.5-0.7-0.9-1.1-1.3c-0.4-0.3-0.6-1-1.5-0.5c0.8,2.1,1.5,4.2,2.3,6.2
		c1.1,2.8,2.3,5.6,3.4,8.4c2.8,7.3,4.9,14.9,6.7,22.5c1.2,5.2,2.6,10.4,2.9,15.8c0,0.6,0.2,1.1,0.4,1.7c1.3,3.8,2.6,7.5,3.9,11.2
		c0.2,0.6,0.3,1.4,1.2,1.6c-0.3,1.4,0.6,2.4,1.1,3.6c1.5,3.4,3.1,6.8,4.5,10.2c1,2.4,2.1,4.6,3.4,6.9c3.1,5.2,6.5,10.2,8.8,15.8
		c0.5,1.2,1.3,2.2,2,3.5c1.6-1.2,3.2-2.2,5.1-2.3c1.2-0.1,2.4,0,3.3-1.1C625.1,522.4,625.8,522.6,626.2,522.7
		c-0.9,1.9-0.7,3.7,0.9,5.4c0.7,0.8,1.3,1.6,1.9,2.5c3.1,4.2,7.1,7.4,11.4,10.3c0.9,0.6,1.8,1,2.8,1.4c4.8,1.5,9.6,3,14,5.6
		c1.3-1,2.7-0.5,4.1-0.3c1,0.2,2,0.3,3.1-0.1c6.5-2.4,12.9-4.7,19.4-7c2.3-0.8,4.7-1.5,7-2.3c0.7-0.2,1.3-0.4,1.9-0.8
		c4-2.4,8-4.8,12-7.3c4.1-2.5,8-5.3,11.3-8.9c1.9-2.1,3.8-4.1,6.1-5.8c1-0.7,1.9-1.8,2.7-2.7c2.3-2.7,3.4-5.8,3.2-9.2
		c-3.2-3.8-5.2-8.3-9.3-11.1c-3.8,1.8-7.3,4.1-11.2,5.1c-0.6,0.2-1.1,1-1.9,1.9c-2.9,1.1-6.5,1.9-9.2,3.4c-0.8,1.4-1.2,2.5-1.9,3.4
		c-0.2,0.3-0.9,0.4-1.2,0.3c-0.3-0.1-0.6-0.6-0.7-1c-0.1-0.5,0-1.1,0.1-1.8c-2.3,0.1-4.4-0.3-6.5,0.5c0,1.1,0,2.1-0.2,3.2
		c-0.1,0.8-0.4,1.6-0.7,2.3c-0.3,0.5-0.8,0.9-1.4,0.6c-0.3-0.2-0.6-0.7-0.7-1.1c-0.1-0.6,0-1.2,0-1.7c0.1-1,0.1-2,0.2-3.4
		c-2.1,0-4-0.3-6.1,0c-0.1,1.4-0.2,2.7-0.3,4c-0.1,0.8-0.2,1.6-0.4,2.4c-0.2,0.7-1.1,1.3-1.6,1c-0.4-0.3-0.9-0.8-1-1.2
		c-0.2-0.7,0-1.4,0-2.1c0.1-1.6,0.3-3.2,0-4.9c-1.6-0.7-3.1-1.1-4.6-1.3c-0.9,1.4-0.6,2.7-0.7,4c-0.2,1.4-0.4,2.8-1.1,4
		c-0.5,0.7-1.4,1.1-2.1,0.8c-0.8-0.3-1.2-1.2-0.9-2c0.2-0.6,0.5-1.1,0.6-1.6c0.6-2.1,1.1-4.3,1-6.5c-2.5-1.8-5.2-2.8-8-3.8
		c-0.4-0.1-0.9,0-1.5,0c-0.3,1.5-0.7,2.8-0.9,4.2c0,0.1,0.3,0.3,0.4,0.4c0.5-0.5,0.9-1,1.5-1.6c0.3,0.4,0.8,0.7,0.8,1.1
		c0.1,0.7,0.1,1.4-0.1,2.1c-0.8,3.5-1.5,7.1-2.4,10.6c-1.7,6.5-1.7,6.7-7.4,11.4c-0.4,0.4-0.9,0.7-1.4,1.1c-2.9,1.8-5.7,3.7-9.1,4.2
		c-0.9-0.7-1.7-1.4-2.6-1.9c-2.3-1.3-4.7-2.6-7-3.9C627.6,523.8,626.9,523.2,626.2,522.7z M311.1,552.7c1.3,0.2,2.2-0.6,3.3-1.1
		c6.9-3.2,13.8-6.4,20.5-9.8c9-4.5,18.2-8.3,27.6-11.9c4-1.6,8-3.3,12-4.9c4.4-1.8,8.9-3.6,13.3-5.4c1.1-0.4,2.1-1,3.4-1.6
		c-0.9-0.8-1.5-1.4-2.2-2c-2.2-1.9-4.6-3.6-6.7-5.6c-1.9-1.7-3.7-3.6-5.3-5.5c-0.7-0.8-1.1-2-1.5-3.1c-0.2-0.5,0.3-1.1,1-1
		c0.1,0.1,0.3,0.1,0.3,0.2c2.7,5.2,7.2,8.7,12.1,11.8c0.1,0.1,0.2,0,0.3,0l-0.1-0.1c2.5,2.6,5.4,4.8,8.6,6.5
		c4.5,2.3,9.2,4.1,13.9,5.7c6.1,2,12.2,1.6,18.2-0.5c1.8-0.6,3.5-1.5,5.3-1.9c5.9-1.2,11.6-3.8,17.7-4.2c0.5,0,0.9-0.2,1.4-0.3
		c2-0.7,3.9-1.5,4.7-3.8c0.3-0.8,0.9-1.9,1.7-2.1c2-0.7,3.2-2.3,4.6-3.6c3.8-3.5,8.1-5.8,13.4-6.3c1.3-0.1,2.6-0.3,3.8-0.5
		c0.8-0.1,1.6-0.3,2.3-0.6c3-1.6,5.9-3.2,8.9-5c1.3-0.8,2.5-1.7,3.6-2.7c0.5-0.4,0.6-1.1,1-1.8c-0.7-0.5-1.3-0.9-1.9-1.2
		c-4-2.2-8.3-3.8-12.8-4.8c-1.5-0.3-3-0.6-4.5-0.9c-0.4-0.1-0.6-0.5-1-0.7c0.7-1,1.6-0.7,2.4-0.6c5.7,0.9,11.2,2.6,16.2,5.4
		c1.5,0.9,2.9,1.2,4.6,1.1c3.5-0.1,7,0.1,10.5,0.2c0.4,0,0.8-0.1,1.8-0.1c-0.9-0.7-1.5-1.1-2-1.6c-3.2-2.4-6-5.3-8.6-8.2
		c-6.9-7.8-12-16.6-16.4-26c-1-2.2-1.9-4.5-2.7-6.8c-2.8-8.4-3.9-17.1-4-25.9c-0.1-11.5,0.5-22.9,2.8-34.2c0.1-0.6,0.4-1.1-0.3-1.6
		c-5.5,1-10.9,2.3-16.2,4.1c-10.5,3.6-20.9,7.4-31,12.1c-7.4,3.4-14.9,6.8-21.8,11.1c-1.4,0.9-2.8,1.6-4.3,2.4
		c-3.6,2-7.4,3.5-11.3,4.7c-1.8,0.5-3.5,1.1-5.4-0.1c-0.6-0.4-1.8-0.2-2.7-0.1c-0.7,0.1-1.2,0.8-1,1.6c0.1,0.4,0.3,0.8,0.4,0.8
		c-0.9,1.2-1.7,2-2.3,3c-0.8,1.3-1.8,2.5-3.2,3.2c-0.4,0.2-0.8,0.5-1.4-0.2c0.6-1.3,1.3-2.6,2-4c-0.5-0.4-1-0.7-1.4-0.9
		c-2.5,1-3.1,3.6-4.9,5c-1.8,1.5-3.2,3.4-4.6,5.2c-1.4,1.8-2.7,3.7-4.1,5.7c-0.9-1.5-1.5-1.7-2.1-0.8c-0.7,1-1.3,2-1.8,3
		c-0.1,0.3,0.1,0.8,0.1,1.1c0.6-0.2,1.1-0.3,1.5-0.4c0.3,0.8,0.2,1.6,1.2,2c3.4,1.6,6.7,3.3,10,5c0.6,0.3,1.2,0.5,1.8,0.7
		c1.1-0.9,0.2-2.8,2.1-3.3c0,1.6,0,3.1,0,4.4c2,1.4,2,1.4,3.6,1.4c0.1-0.8,0.3-1.6,0.4-2.3c0.3-3.3,0.5-6.5,0.9-9.8
		c0.5-4.3,1.3-8.6,2.8-12.6c0.4-1.2,1-2.4,1.6-3.5c0.2-0.3,0.6-0.7,1.1,0.1c-1.5,3-2.5,6.2-3.2,9.5c-1.3,6-1.7,12-2.2,18.1
		c0,0.5,0.3,1.1,0.5,1.6c0,0.2,0.1,0.5,0,0.6c-0.9,0.8-0.7,1.9-0.8,3c-0.3,1.8-0.5,3.7-0.8,5.5c-0.1,0-0.2,0-0.3,0
		c0-2.7,0-5.3,0-8.1c-1.2-0.5-2.3-1-3.3-1.5c-0.8,1.1-0.5,2.2-0.6,3.2c-0.1,1.2-0.1,2.3-0.2,3.5c-0.1,0.9-0.2,1.8-0.4,2.7
		c-0.1,0-0.2,0-0.4,0c-0.2-3.5-0.4-7-0.5-10.5c-4.6-2.4-8.8-5-13.7-6.7c-2.2,3.6-2.8,7.5-3.5,11.4c-0.7,0-1.2-0.1-1.7-0.1
		c-1.3,1.1-1.5,2.3-0.4,3.7c0.2,0.3,0.5,0.5,0.6,0.8c0.1,0.2,0,0.4,0,0.7c-0.5,0.1-1,0.2-1.6,0.3c0.1,0.8,0.1,1.5,0.4,2.1
		c0.7,1.4,0.8,2.8,0.7,4.4c-0.2,2,0,4,0.6,5.9c1.5,5.2,3.1,10.2,5.7,15c0.1,0.2,0.1,0.5,0.1,0.7l0.1-0.1c-0.7,0.2-1.1-0.4-1.4-0.8
		c-4.5-6.2-7.2-13-7.2-20.8c0-2.1,0.4-4.2-0.8-6.1c-0.2-0.2-0.1-0.7-0.1-1c0-1.6,0.1-3.3,0.1-4.9c0-3.7,0.6-7.2,2-10.6
		c3.8-8.8,9.7-15.9,17.5-21.4c1.5-1.1,3.1-2.2,5.1-1.6c0.4,0.1,0.9-0.2,1.4-0.3c1.2-0.3,1.8-1,1.5-2.4c-1.6-2.2-4-3.5-6.2-5
		c-0.5-0.3-1-0.5-0.8-1.3c3.1-0.3,3.1-0.3,8.7,4.3c3.3-0.5,6.6-1.1,10,0.6c1.1-0.5,2.2-0.9,3.8-1.6c-1-0.7-1.7-1.6-2.5-1.7
		c-1.7-0.3-2.6-1.5-3.7-2.5c-4.7-4.2-9.6-8.2-15.8-10c-0.6-0.2-1.1-0.4-1.6-0.7c-1.5-0.9-3.2-1.3-4.9-1.7c-1.5-0.4-3-0.7-4.4-1
		c-1.4-1.6-1.4-1.5-3.3-2.4c-0.9-0.4-1.9-1-2.6-1.7c-1.6-1.8-2.7-3.8-2.6-6.3c0.1-1.2,0.1-2.3,0.1-3.5c1.6-1.2,2.9-2.6,3.8-4.3
		c-0.3-0.4-0.5-0.7-0.7-1c0.8-1.2,2.1-0.8,3.3-1.3c0.2-0.3,0.5-0.6,0.8-1c1.1-1.6,2.6-1.8,4.3-1.4c0.7,0.2,1.3,0.4,2,0.5
		c0.3,0,0.6-0.2,0.9-0.3c-0.1-0.5-0.1-1-0.2-1.6c0.4-0.2,0.8-0.6,1.2-0.5c1.1,0.2,2.2,0.4,3.4-0.1c0.3-0.2,0.9,0,1.4,0.2
		c1.4,0.5,2.7,0.6,4.1,0.2c1.2-0.4,2.3,0,3.3,0.7c1.6,1.1,3.4,2.1,5,3.2c1.1,0.8,2.3,1.7,3,2.8c1.9,2.8,3.5,5.8,5.2,8.7
		c0.7,1.2,1.5,2.4,2.6,3.2c1.3,1,2.3,2.4,2.8,3.9c0.4,1.3,1.3,2.2,2.2,3.1c0.9,0.8,1.7,1.6,2.5,2.4c0.9,0.9,1.7,1.9,2.6,2.8
		c1.5-1.8,1.8-3.7,1.8-5.7c0.1-7,0.2-14-1.1-21c-0.1-0.5-0.2-1,0-1.4c1.2-2.1,0.3-4.2-0.5-6.1c-0.8-1.8-1.1-3.5-1.3-5.4
		c-0.2-2-0.2-4-1.3-5.8c-1.4-2.3-3-4.5-4.5-6.7c-1.2-1.8-3-2.8-5.1-3.4c-3.7-1-7.4-2.1-10.9-3.9c-1.7-0.8-3.5-1.3-5.3-1.9
		c-0.4-0.1-1-0.3-1.3-0.1c-1.1,0.6-2,0-3-0.4c-1.8-0.8-3.6-1.7-5.4-2.4c-2.4-0.9-4.9-1.6-7.2-2.6c-3.6-1.5-7.2-1.6-11-1.1
		c-0.9,0.1-1.8,0.3-2.8,0.4c-5,0.3-10,0.5-15,0.8c-1.6,0.1-3.2,0.4-5.2,0.6c-0.8-0.4-2-0.8-3.1-1.4c-3.8-2.2-7.9-3.5-12-4.7
		c-1.4-0.4-2.6-0.6-4.1-0.2c-2.5,0.5-5.1,0.6-7.7,0.9c-2.7,0.3-5.4,0.4-8,0.9c-6.4,1.2-11.9,4-16.2,9c-1.1,1.3-2.2,2.7-3.3,4.1
		c-0.8,1.1-1.7,2.2-1.5,3.8c0.1,0.7-0.6,1.4-1,2.2c-0.9,1.7-1.9,3.2-2.6,5c-1.4,3.5-2.6,7-3.9,10.5c-0.8,2.2-0.4,4.1,1.4,5.7
		c3.1,2.8,6.7,4.7,10.9,5.2c4.5,0.5,9.1,0.4,13.6-0.2c5.7-0.8,11.1-2.8,16.8-3.5c2.3-0.3,4.6-0.5,7-0.5c1.2,0,2.3,0,3.5,0.1
		c0.2,0.9,1.9,0.7,1.5,2c-0.1,0.1-0.2,0.2-0.3,0.1c-0.5,0-0.9-0.1-1.4-0.2c-3.5-0.8-6.9-0.9-10.4,0.1c-3,0.8-6,1.8-9.1,2.6
		c-6.7,1.8-13.5,2.6-20.5,1.9c-4.8-0.5-9-2.4-12.5-5.7c-1.7-1.6-2.9-3.4-2.7-5.8c0.1-0.7,0-1.5-0.7-2.2c-0.4,0.4-0.7,0.6-0.8,0.9
		c-1.4,2.5-2.3,5.1-2.9,7.9c-1,4.6-1.4,9.2-1.6,13.9c-0.1,3.4,0.7,6.4,2.2,9.4c0.6,1.2,1.5,2,2.4,2.3c0.4,2.1,0.8,4,1.1,5.8
		c0.2,0.9,0.2,1.8,0.2,2.8c0,3,0.4,5.8,1.6,8.5c1.1,2.3,2,4.7,3.1,7.1c4.2,8.9,8.5,17.7,14.2,25.7c4.6,6.4,9.7,12.2,16.2,16.8
		c2,1.4,4,2.9,5.9,4.4c5.4,4.5,11.4,8,17.9,10.8c1.5,0.7,3,1.1,4.7,1c4.7-0.4,9.3,0.7,13.9,0.8c0.3,0,0.6,0.3,1,0.4
		c0.4,0.2,0.9,0.6,1.2,0.5c1.9-0.4,3.4,0.5,4.9,1.5c0.6,0.4,1.3,0.5,2,0.7c2.3,0.8,4.6,1.6,7,2.4c0.5,0.2,1.1,0.2,1.7,0.2
		c0.1,0.2,0.2,0.4,0.3,0.5c0.1,0.1,0.4,0,0.6-0.1c-0.1-0.1-0.2-0.3-0.3-0.3c-0.2-0.1-0.4,0-0.6,0c-0.1-0.3-0.2-0.7-0.4-0.8
		c-2.9-2.1-6-4.1-9.3-5.5c-1.1-0.5-2.1-0.9-3.2-1.5c-0.3-0.2-0.6-0.6-0.9-1c1.3-0.6,2.5-0.4,3.6,0.1c2,0.9,4.1,1.7,6,2.9
		c2.7,1.7,5.2,3.6,7.7,5.4c0.8,0.6,0.9,1.3,0.4,2.1c2,0.9,2,0.9,3.7,2.8c2.3,2.5,2.4,2.8,2.2,4.5c-0.5-0.4-1.1-0.6-1.5-1
		c-4.1-3.8-8.9-5.9-14.3-7c-1-0.2-2-0.5-3.1-0.8c-0.6-0.2-1.2-0.2-1.6-0.6c-1.4-1.3-3.1-1.4-4.8-1.8c-2.8-0.6-5.7-1.3-8.8-2
		c-2,0.8-4.1,1.6-6.3,2.4c-2.2,0.8-4.3,1.8-6.6,2.4c-7.4,2.2-14.8,4.2-22.2,6.4c-4.1,1.2-8.2,2.7-12.3,4c-1.3,0.4-2.6,1.1-3.4,2.3
		l0.1-0.1c-2.3,0.7-4.7,1.4-7,2.2c-0.9,0.3-1.7,0.7-2.5,1.2c-3.3,1.8-6.3,4.1-8.9,6.8c-1.2,1.1-2.3,2.4-3.1,3.8
		c-1.5,2.6-2.9,5.3-3.6,8.3c0.9,0.5,1.5,1.1,1.2,2.2c-0.3,1.1-0.5,2.3-0.6,3.5c-0.2,3,0.4,5.8,1.7,8.5c1.7,3.6,3.5,7.1,5.3,10.7
		c-0.2,0.3-0.5,0.7-0.8,1.1c2,3.5,5,5.8,8.9,6.9c3.8,1,7.6,0.8,11.4-0.3c3.9-1.1,7.8-2.5,11.9-3c1.1-0.2,2.2-0.8,3.3-1.2
		c0.4-0.2,0.7-0.5,1-0.9c0.9-0.9,1.5-2.1,2.5-2.8c2.4-1.8,3.6-4.2,4.3-7c0.4-1.6,0.6-3.2,0.8-4.8c0.1-0.4,0.2-0.8,0.3-1.2
		c0.3,0,0.5,0,0.5,0.1c0.2,0.3,0.4,0.6,0.4,0.9c0.3,2.5-0.7,4.8-1.4,7.2c-0.6,1.8-1.1,3.6-3,4.5
		C311.2,552.3,311.2,552.6,311.1,552.7c0,0.1-0.1,0.1-0.2,0.1c0,0-0.1,0.1-0.1,0.2C310.9,553,311,552.9,311.1,552.7z M596.6,542.6
		c5.5-1.4,10.4-3.9,14.5-7.1c0.6-1.9,0.9-3.4,1.6-4.8c0.7-1.3,1.7-2.5,2.6-3.8c-3.1-3.2-4.4-7.4-6.6-11.1c-2.3-3.9-4.6-7.9-6.9-11.8
		c-1.2-2-2.5-4-2.7-6.4c-0.1-0.7-0.5-1.3-0.8-1.9c-0.8-1.8-1.7-3.6-2.5-5.4c-2.7-5.8-5.1-11.8-6.6-18.1c-1-4.2-1.9-8.4-3-12.6
		c-2.9-11.8-5.9-23.6-10.5-34.9c-0.6-1.5-1-3.1-1.6-4.7c-0.2-0.7-0.3-1.5-0.7-2c-1.6-1.4-1.7-3.3-2.1-5c-1.6-7.3-3.4-14.6-6.2-21.5
		c-0.5-1.3-1.1-2.6-1.4-4c-0.6-2.4-2.2-4.1-4-5.6c-1.5-1.2-3.1-2-5.1-1.8c-2.1,0.2-4.2,0-6.3,0.2c-5,0.6-10,0.4-15.1,0.3
		c-2.9,0-5.8-0.3-8.8-0.4c-4.2-0.2-8.4-0.5-12.6-0.5c-1.7,0-3.5,0.2-5.2,0.5c-1.7,0.3-3.4,0.9-5.1,1.2c-4.7,1-9.4,1.9-14.1,2.8
		c-0.9,0.2-1.8,0.4-2.7,0.7c-1.1,3.9-1.3,7.8-1.7,11.6c-0.8,8.3-0.8,16.6-0.6,24.9c0.3,11.1,2.1,21.9,6,32.3
		c0.4,1.2,0.9,2.5,1.6,3.5c0.6,0.9,1,1.8,1.4,2.8c1.4,3.6,3.4,6.9,5.9,9.9c2.7-1.4,4.5-2.9,6.3-5c5.1-6,10.4-11.7,16.2-17
		c1.6-1.5,3.3-2.9,4.6-4.8c0-3.7-0.1-7.3,0-10.9c0.2-3.7,0.7-7.4,1.1-11.1c-6.7,2.9-11.7,4.5-14.4,4.6c0.2-0.5,0.2-0.9,0.4-1.2
		c1.3-1.5,2.9-2.2,4.7-2.8c3.8-1.3,7.6-2.8,11.4-4.2c1,0.6,0.8,1.6,0.7,2.5c-0.8,6.9-0.5,13.8-0.6,20.7c-0.1,7.2,0.9,14.2,2.2,21.2
		c0.3,1.5,0.8,3,1.7,4.2c2.3,3.1,4.5,6.3,7.1,9.2c4.1,4.7,8.1,9.4,11.7,14.5c0.4,0.6,0.8,1.2,1.3,1.7c3.8,4.5,6.9,9.4,10,14.4
		c2.1,3.5,3.7,7.3,7.2,9.8c0.2,0.1,0.3,0.4,0.4,0.5c7,8.5,12.6,18,17.9,27.7c0.4,0.7,0.8,1.4,1,2.2c0.2,0.9,0.2,1.8,0.2,2.7
		c0.8,0.6,1.6,1.1,2.3,1.8c0.7,0.6,1.3,1.4,1.9,2.1c0.6,0.7,1.3,1,2.1,1.1c2.9,0.1,5.8,0.4,8.8-0.6c2.4-4.1,5.8-7.4,9.3-10.6
		c-0.2-0.8-0.4-1.5-0.6-2.2c-0.2-0.6,0.1-1.4-0.8-1.8c-0.3,0.1-0.6,0.2-0.9,0.4c-3.7,3.1-8,5.2-12.6,6.8c-1.4,0.5-2.8,1.1-4.2,1.7
		c-1.6,0.7-3.1,0.6-4.9-0.1c0.4-0.4,0.6-0.8,1-1.1c0.8-0.5,1.6-0.9,2.4-1.5c0.7-0.5,1.8-0.5,2.3-1.6c-1.7-2.7-3.5-5.4-5.2-8.2
		c-0.3-0.4-0.3-0.9,0.2-1.3c0.3,0.1,0.7,0.1,0.9,0.3C592.4,536.5,594.3,539.4,596.6,542.6z M634.2,538.6c-0.7,1.1-1.1,1.9-1.6,2.7
		c-1.7,2.5-3.4,5-5.2,7.5c-0.5,0.7-1.3,1.3-2.1,1.8c-0.7,0.5-1.7,0.2-2.2-0.5c-0.5-0.6-0.5-1.4-0.1-2c0.8-1,1.6-2,2.4-3
		c2.1-2.2,3.9-4.6,5.7-7.3c-0.3-1-0.5-2-1-3c-2.1-4.2-5.5-7.1-9.1-9.9c-1.6,1.3-3.1,2.4-4.5,3.6c-1.8,1.7-3.3,3.6-3.1,6.4
		c0,0.7-0.2,1.4-0.2,1.8c1,1.7,1.9,3.2,2.8,4.9c-2,1.9-4,3.6-5.8,5.5c-1.9,2.1-3.5,4.4-5.3,6.8c-0.9,0.1-2.1,0.1-3.3,0.2
		c-2,0.1-4,0.3-5.9,0.4c-2.4,0.1-4.3-0.6-5.8-2.6c-0.3-0.5-0.8-0.9-1.2-1.2c-0.9-0.6-1.8-1.1-2.7-1.7c-0.9-0.6-1.8-1.4-2.9-2.2
		c-0.4,0.8-0.9,1.3-1,1.9c-0.2,1-0.1,2.1,0,3.1c0.1,2,0.3,4,0.4,5.9c0.1,1.4,0,2.8,0.3,4.2c0.6,3.2,0.4,6.5,0.5,9.8
		c0,1.8-0.2,3.5-0.6,5.2c-0.7,3.1-1.3,6.2-1.9,9.4c0.5,0.4,1,0.9,1.6,1.2c1.8,1,3.8,1.3,5.7,1.4c1.9,0.2,3.7,0.2,5.6,0.3
		c0.6,0,1.3,0.1,1.6,0.4c0.9,1.1,2.1,0.9,3.2,0.9c2.3,0,4.7-0.1,7-0.2c4.2-0.2,8.4-0.7,12.3-2.3c0.6-0.3,1.3-0.4,2-0.6
		c3.7-0.9,7.5-1.9,11.2-2.8c0.4-0.1,0.9-0.2,1.3-0.5c1.5-1.1,3.3-1.2,5-1c1.3,0.1,2.6,0,3.9,0.1c3.9,0.3,7.7,0.2,11.5-0.6
		c5.8-1.2,11.8-1.8,17.5-3.5c2.8-0.8,5.6-1.6,8.1-3.3c4.2-2.9,8.8-5.4,13.4-7.6c0.9-0.5,1.9-0.9,2.8-1.5c2.2-1.4,3-3.9,2-6.3
		c-1.4-3.3-3.3-6.4-5.3-9.1c-1.9,0.1-3.5,0.3-5.1,0.3c-2.9-0.1-5.8-0.4-8.7-0.4c-4.1-0.1-8.1-1.1-12.2-0.9c-0.6,0-1.1-0.3-1.7-0.3
		c-0.8-0.1-1.6-0.2-2.2-0.3c-1.2,1.8-2.3,3.4-3.4,5c-0.3,0.5-0.8,0.9-1.3,1.1c-0.5,0.2-1.2,0.1-1.6-0.2c-0.5-0.3-0.8-1-0.5-1.5
		c0.4-0.8,1-1.6,1.5-2.3c0.4-0.6,1.3-1,1.3-2.1c-2-1.4-4.1-2.4-6.6-3.3c-0.5,1-0.9,1.8-1.3,2.6c-0.6,1.1-1.1,2.3-1.8,3.4
		c-0.6,1-1.5,1.9-2.7,2c-0.5,0.1-1.2-0.2-1.5-0.6c-0.3-0.4-0.3-1.1-0.1-1.6c0.2-0.5,0.7-0.9,1.2-1.3c1.8-1.8,2.8-3.4,3.4-5.8
		c-2.2-0.5-4.3-1.7-6.7-1.8c-1.2,1.3-1.8,2.8-2.6,4.2c-1.3,2.1-2.9,4-5.1,5.1c-0.6,0.3-1.1,0.3-1.6-0.1c-0.6-0.4-0.9-1.3-0.5-1.9
		c0.6-1,1.3-2,2.1-2.8c1.9-1.9,3.3-4.1,4.9-6.5C636.9,540.7,635.7,539.8,634.2,538.6z M518.5,465c0.4-0.1,0.7-0.1,0.8-0.2
		c2.1-2.2,4.1-4.5,6.1-6.7c0.7-0.8,0.6-1.7,0.5-2.6c-0.4-2.4-0.8-4.8-1.2-7.3c-0.1-0.5-0.3-1-0.6-1.8c-3.5,3.7-6.8,7.2-10.1,10.6
		c-3.6,3.7-6.6,7.9-10.4,11.3c-1.5,1.3-2.9,2.7-4.5,4.2c4.7,6.3,9.6,12.2,16.5,16.4c1.3-1.4,1.6-3.1,1.7-4.7
		c0.5-6.5,0.8-13.1-0.7-19.5c-0.4-1.9-1-3.8-1.4-5.8c-0.1-0.4-0.3-0.9,0.5-1.2C517.2,459.9,517.4,462.6,518.5,465z M483,504.3
		c-1.2-0.4-1.8-0.9-2.4-0.8c-5.7,0.4-10.8,2.1-14.6,6.6c-0.3,0.3-0.4,0.7-0.8,1.3c0.9,0,1.5,0.1,2,0c2.2-0.3,4.4-0.6,6.6-0.9
		c1-0.1,2.1-0.2,3.1-0.5c1-0.3,2.1-0.6,2.8-1.3c1.5-1.5,3.3-2.2,5.1-2.9c1.3-0.5,2.6-1.2,3.8-1.9c4.6-2.6,9.4-4.7,14.6-5.9
		c1.4-0.3,2.8-1,4.3-1.5c0.2-1.9,0.6-3.6-0.4-5.2c-1.9,0-3.6,0-5.4,0c-0.2,0-0.3,0.3-0.5,0.4c0,0.4,0,0.9,0,1.3
		c-0.8,0.1-1.5,0.1-2.2,0.9c-0.9,1.1-1.9,2.1-3.1,2.8C491.6,499.4,487.2,501.9,483,504.3z M362.3,448c-1.5,3.4-1.8,4.6-1.5,6.2
		c0,0.1,0.4,0.2,0.6,0.3C362.2,452.5,362.5,451,362.3,448z M334.2,326.5c-0.9-0.9-1.9-1.3-2.9-0.6c-0.6,0.4-1.1,1.2-0.5,2.1
		C332.2,328,333.3,327.5,334.2,326.5z M351.4,331.3c-0.8,0.7-1.5,1.3-2.2,2c0.1,0.1,0.1,0.3,0.2,0.4c0.9-0.3,1.8-0.5,2.8-0.8
		C351.9,332.3,351.7,331.9,351.4,331.3z M343.2,336.4c-2.2-1.4-2.2-1.4-3.2,0.1C341.1,337.1,342.1,336.9,343.2,336.4z M369.9,434.4
		c-0.3,0.2-0.4,0.3-0.4,0.4c-0.2,0.4-0.3,0.8-0.4,1.2c0,0,0.5,0.3,0.6,0.2c0.3-0.3,0.6-0.6,0.8-1
		C370.4,435.1,370.1,434.8,369.9,434.4z M328.9,333.6c-0.5-0.5-0.6-0.8-0.8-0.9c-0.3,0-0.6,0.2-0.9,0.3c0.1,0.2,0.2,0.6,0.3,0.7
		C327.9,333.8,328.2,333.7,328.9,333.6z M365,443.7c-0.3-0.1-0.5-0.3-0.7-0.3c-0.2,0-0.4,0.2-0.5,0.3c-0.3,0.5-0.5,1,0.4,1.3
		C364.5,444.6,364.8,444.1,365,443.7z M354.7,335.7c0-0.1,0-0.2,0-0.3c-0.4,0-0.8,0-1.2-0.1c0,0.1,0,0.2,0,0.3
		C353.9,335.7,354.3,335.7,354.7,335.7z M363.6,446.5c-0.2-0.1-0.3-0.2-0.5-0.3c0,0-0.2,0.1-0.2,0.2c0,0.1,0.1,0.3,0.2,0.3
		C363.3,446.6,363.4,446.6,363.6,446.5z M313.6,323.6c0,0.1,0,0.2,0.1,0.2c0.1,0,0.2,0,0.3,0c0-0.1-0.1-0.2-0.1-0.3
		C313.8,323.6,313.7,323.6,313.6,323.6z M355,332.9c0-0.1,0-0.2-0.1-0.2c-0.1,0-0.2,0-0.3,0c0,0.1,0,0.3,0.1,0.3
		C354.7,333,354.9,332.9,355,332.9z"/>
	<path d="M461.3,170.3c-0.3-1.8,0.5-3.4,1.1-5.1c1.8-4.9,4.7-9.1,8.5-12.7c1.1-1,2.3-1.9,3.9-2.6c0.8,1.7,1,3.4,1.2,5.1
		c0.1,1,0,2.1,0,3.2c-0.2,3,0.7,5.8,2.1,8.4c1.3,2.3,2.7,4.7,4.3,6.8c3.5,4.4,7.1,8.7,10.7,13c3,3.5,6.9,5.9,11,7.9
		c0.1,0,0.2-0.1,0.4-0.2c-0.8-1.5-2.4-2.4-3.1-4c0.8-0.6,1.3-0.1,1.7,0.2c1.8,1.3,3.3,3,4.5,4.9c0.9,1.4,2.1,2.4,3.7,3.1
		c2.4,1.1,4.9,2.3,7.3,3.4c1.9,0.9,3.6,2.1,5.1,3.6c2.6,2.5,5.3,4.9,8.5,6.7c0.4,0.2,0.8,0.5,1.1,0.8c3.9,3.7,8.4,6.7,12.7,9.9
		c2.2,1.6,4.4,3.1,6.5,4.8c5.4,4.1,10.7,8.3,16,12.5c0.8,0.6,1.7,1.2,2,2.3c-1.1,0.3-1.7-0.3-2.3-0.7c-4.9-2.9-9.2-6.5-13.6-9.9
		c-2.3-1.8-4.6-3.6-6.9-5.4c-0.8-0.6-1.6-1.3-2.8-1c-0.5,0.1-1.1-0.3-1.6-0.6c-1-0.6-1.9-1.4-2.8-2.1c-5.5-4.6-11-9.1-16.3-13.8
		c-3.5-3-7.2-5.5-11.4-7.3c-6.2-2.7-12-6.2-17.7-9.9c-3.1-2-5.6-4.5-8.1-7.2c-0.9-1-1.9-2-3.1-3.4c-0.1,0.9-0.2,1.3-0.2,1.7
		c0.1,1.5,0.3,3,0.4,4.5c0.3,4.1-0.2,8.1-1.7,12c-1.9,5-5.1,8.6-10,10.6c-1.8,0.7-3.3,1.7-4.6,3.1c-2.7,2.9-6.2,4.6-10,5.4
		c-2.4,0.5-4.8,1.1-7.2,1.3c-2.5,0.2-4.5,1.2-6.1,3c-0.2,0.3-0.5,0.5-0.8,0.7l0.1-0.1c-1.2,0.8-2.3,1.5-3.5,2.3
		c-0.3,0.2-0.7,0.4-0.8,0.7c-1.1,3.3-4.6,3.6-6.9,5.3c-6.4,2.3-12.4,5.4-18.4,8.5c-4.3,2.2-8.8,3.8-13.4,5.2
		c-3.6,1.1-7.3,1.6-11.1,1.3c-1.8,2.6-4.5,2.7-7.2,2.4c-3.1-0.3-5.9-1.4-8.5-3.1c-1.7-1.1-3.2-2.3-5.2-2.7c-0.9-0.2-1.8-1.1-2.5-1.8
		c-2.2-2.1-4.4-4.2-6.5-6.4c-0.9-0.9-1.5-2-2.3-3.1c-0.5-0.8-0.9-1.6-1.3-2.3c-1.1-0.3-1.7,0.3-2.4,0.8c-2.7,1.7-5.5,3-8.5,4.2
		c-7.9,3.2-15.8,6.3-23.7,9.6c-5.6,2.3-11.1,5-16.7,7.3c-4.1,1.7-8.3,3.2-12.5,4.7c-1.4,0.5-3,0.7-4.4,1c-0.3,0.1-0.6-0.1-1.4-0.1
		c1.7-1.3,3-2.5,4.9-3c1.1-0.3,2.2-0.6,3.4-1c1.7-0.5,3.4-0.8,4.3-2.7c0.2-0.5,0.9-0.7,1.4-1.1c0.6-0.4,1.2-0.7,1.8-1.1
		c0.6-0.4,1.3-0.7,1.6-1.3c1.6-2.7,5-3.9,6.1-7c0.5-1.5,1.1-3,1.7-4.5c0.7-0.2,0.8,0.3,0.9,0.8c0.2,1.2,0,2.3-0.4,3.4
		c-1,2.4-2.3,4.6-4.4,6.2c-0.8,0.6-1.7,1.2-1.7,2.3c0.3,0,0.6,0.1,0.8,0c7.2-3.9,14.9-6.8,22.5-9.8c6.2-2.4,12.4-4.9,18.5-7.5
		c2-0.8,4-1.9,6-2.9c0.4-0.2,0.7-0.6,1-0.8c-0.5-1.4-1.2-2.7-1.4-4c-0.2-2.6-0.1-5.1-0.2-7.7c0-1.3,0-2.6,0-3.7
		c-0.8-0.9-1.6-1.4-2.6-1c-1.2,0.4-2.3,0.1-3.4-0.3c-5.5-1.7-10.9-3.6-15.8-6.6c-1-0.6-2.5-1-2.2-2.7c0-0.2-0.4-0.6-0.6-0.7
		c-4.8-3.6-9.8-6.8-15.5-8.7c-1.6-0.6-3.4-0.9-5.1-1.2c-0.4-0.1-0.9,0-1.4,0.1c-2.5,0.4-5.1,0.8-7.6,1.2c-2.1,0.3-4.1,1-6,1.8
		c-2.5,1-5,2-7.4,3.1c-0.5,0.2-0.9,0.6-1.9,1.3c4.5-0.2,8.1,0.1,11.4,2.3c1.7,1.1,3.5,2.2,4.7,4.4c-0.6-0.1-0.9,0-1.2-0.1
		c-1.1-0.7-2.2-1.4-3.3-2c-3.4-2.1-7-3.1-11-2.8c-1,0.1-1.9,0.2-2.9-0.7c-0.7-0.6-1.9-0.2-2.5,0.6c-2.1,2.6-4.8,4.4-7.6,6.1
		c-0.8,0.5-1.5,1.1-2.1,1.8c-3.1,4.1-5.7,8.6-6.6,13.8c-0.6,3.1-0.5,6.3-0.5,9.4c0,2.8,0.8,5.3,2.2,7.6c2,3.6,4.2,7.1,6.8,10.2
		c2.3,2.6,4.9,4.6,8.6,4.9c1.1,0.1,2.3,0.6,3.3,1c0.3,0.1,0.4,0.5,0.6,0.8c-0.3,0.1-0.5,0.4-0.6,0.3c-4.8-0.3-9.3-1.4-12.2-5.7
		c-0.5-0.7-1.1-1.2-1.8-1.6c-1.9-1.1-3.5-2.7-4.7-4.6c-1.1-1.8-2.2-3.6-3.2-5.5c-1.6-3-2.1-6.2-1.6-9.5c0.2-1.1,0.3-2.3,0.3-3.5
		c-0.1-5.9,2-11,5.2-15.7c1.1-1.6,2.4-3.1,3.8-4.6c0.9-0.9,2-1.6,3.1-2.2c1.5-0.8,3-1.8,4.3-3.3c-4-1.3-8.1,0.1-12-1.3
		c0.2-0.4,0.3-0.9,0.5-0.9c0.7-0.2,1.4-0.2,2.1-0.2c3.9-0.1,7.7-0.2,11.6-0.3c1.4,0,2.8-0.3,4-1.1c0.8-0.5,1.6-1,2.5-1.2
		c3.4-1,6.5-2.7,9.4-4.5c0.4-0.2,0.9-0.3,1.3-0.4l-0.1-0.1c0.3,0.6,0.9,0.7,1.5,0.6c2.2-0.3,4.4-0.6,6.6-1c4.3-0.7,8.3-0.2,12.3,1.5
		c4.6,1.9,8.7,4.5,12.5,7.7c0.6,0.5,1.3,1.1,1.7,1.7c1,1.8,2.6,2.7,4.3,3.4c4,1.6,8,3.2,12,4.8c1.2,0.5,2.5,0.6,3.6,0.1
		c0.6-1.5,1.2-2.9,1.6-4.3c0.4-1.2,0.8-2.5,0.7-3.7c-0.2-2.3-0.8-4.6-1.3-7c-1.2,0.2-1.6,1-2.3,1.6c-1,0.8-1.9,1.7-2.9,2.6
		c0,0-0.2-0.1-0.4-0.2c1.4-2.3,3.6-3.9,5.3-6.1c-0.3-1.3-0.6-2.5-0.8-3.8c-0.3-1.5-0.6-3-0.8-4.5c-0.2-2,0.4-3.7,1.8-5.1
		c0.8-0.8,1.7-1.6,2.6-2.3c1.3-1.1,2.7-2.2,4.1-3.3c1.7-1.4,3.2-3,4.1-5.2c0.6-1.6,1.8-3,2.9-4.4c1.9-2.4,3.5-5,4.9-7.6
		c1.3-2.6,2.6-5.2,3.9-7.8c3.3-6.9,7.1-13.4,11.7-19.5c0.9-1.2,2-2.3,1.9-4c2.2-1.8,4.4-3.5,6.8-5.4c-4.5-1.6-9-1.9-13.3-3.6
		c-1.3,1.4-2.7,2.8-4.1,4.2c-1.3,1.3-3,2.2-4.4,3.8c1,0.2,1.6,0.3,2.3,0.4c0.6,0.2,1.3,0.3,1.6,0.7c1.1,1.7,2.9,1.8,4.5,2.2
		c0.8,0.2,1.5,0.6,2.2,1.1c0.4,0.3,0.4,0.8-0.2,1.3c-1.6-0.4-3.2-1.1-4.7-1.9c-0.9-0.4-1.7-0.6-2.7-0.6c-2,0-4-0.1-5.9-0.3
		c-1.2-0.1-2.3,0.1-3.3,0.8c-2.3,1.4-4.6,2.8-6.9,4.2c-0.5,0.3-1.1,0.6-1.4,1c-1.6,2.1-4,3.2-6.2,4.5c-1,0.6-2,1.2-3,1.9
		c-2.7,1.8-4.6,4.2-5.3,7.5c-0.5,2.3-1.4,4.5-2.1,6.7c-0.2,0.6-0.6,1.2-1.5,1.2c-0.1-2.6,0.8-6.1,3.2-13.5l-0.1,0.1
		c2.5-2.1,5-4.2,8-5.6c0.6-0.3,1.1-0.8,1.6-1.3c2.2-2.3,4.7-4.3,7.3-5.9c2.7-1.7,5.3-3.4,8-5c6.3-3.7,11.6-8.7,16.1-14.5
		c0.5-0.6,0.9-1.4,1.2-2.1c0.8-1.8,1.4-3.7,2.2-5.5c1.6-3.9,3.3-7.7,4.9-11.6c1.3-3,1.8-6.3,2-9.5c0.1,0,0.2,0,0.3-0.1
		c0,0,0-0.1,0-0.2c-0.1,0.1-0.2,0.2-0.3,0.4c-0.8,0.3-1.7,0.7-2.6,1c-0.2,0.1-0.6-0.2-1.1-0.4c1-1.1,1.8-2,2.6-2.9
		c0.8-1,1.5-2,2.2-3c1.1-0.2,0.9,0.7,1.3,1.1c0.2-0.1,0.3-0.2,0.5-0.3c0.8-0.9,0.5-2,0.6-3c0.1-1.1-0.2-2.3,0.6-3.5
		c0.3,0.2,0.6,0.4,0.7,0.6c0.6,1.8,0.6,3.7,0.4,5.5c-0.1,0.9-0.4,1.8-1.2,2.4c-1.9,1.6-2.8,3.8-3.2,6.1c-1.8,10.7-6.2,20.3-12,29.3
		c-0.1,0.1-0.1,0.2-0.2,0.5c0.5,0.2,0.9,0.6,1.4,0.8c4.1,1,8.2,2,12.2,2.9c0.8-0.5,1.6-0.9,2.4-1.4c0.7,1.3-0.7,1.7-0.7,2.5
		c0.2,0,0.5,0.2,0.6,0.1c1.9-0.9,3.7-1.9,5.6-2.8c1.9-0.9,3.6-1.9,5-3.6c2.1-2.4,5-3.8,8-5c1.3-0.5,2.7-0.5,4.1,0.1
		c0.7,0.3,1.5,0.6,2.5,1c1.8-1.6,4.2-2.3,6.4-3.2c1.4-0.5,2.9-0.9,4.4-1c2.4-0.2,4.7-0.9,6.9-2.1c11.7-6.8,24.1-11.9,36.9-16
		c7.1-2.3,14.3-3.3,21.7-3.6c4.1-0.2,8.2-0.2,12.3-0.2c5.2,0,10.2,0.9,15.3,2c2.8,0.6,5.5,0.8,8.3,0.5c4.8-0.4,9.6-0.4,14.4,0.2
		c1.5,0.2,2.9,0.6,4.4,1c0.3,0.1,0.7,0.2,1,0.3c3.3,0.6,6.7,1.1,10,1.7c0.8,0.1,1.6,0.2,2.4,0.5c5.9,2.4,11.4,5.4,15.5,10.4
		c1,1.2,2,2.3,2.9,3.5c1.2,1.6,2.5,3.1,3.5,4.8c1.1,1.7,1.9,3.5,2.8,5.1c1.3,1,2.5,1.9,3.6,2.9c3,2.7,5.9,5.4,8.8,8.1
		c3.4,3.2,6.4,6.8,8.8,10.9c1.6,2.6,2.9,5.3,3.7,8.3c0.4,1.3,1,2.6,1.6,3.9c4.1,7.6,8.1,15.3,11.5,23.3c0.5,1.2,1.2,2.3,2.1,3.2
		c5,5.7,9.8,11.6,13.6,18.2c0.3,0.5,0.7,1,1,1.4c0.2,0.3,0.5,0.5,0.9,0.8c2.7,0.3,5.5,0.6,8.2,0.9c0.6,0.1,1.1,0.2,1.7,0.4
		c0.2,0.1,0.5,0.2,0.6,0.4c0.8,2,3.3,2.1,4.2,3.9c1.4,2.8,2.9,5.6,4.5,8.8c0,0,0.4,0.3,0.8,0.3c1,0.1,1.8,0.5,2.3,1.3
		c0.3,0.5,0.4,0.9,0.1,2.8c0.7,0.2,1.5,0.4,2.4,0.7c0.5,0.9,1.2,1.8,1.8,2.8c-0.2,0.5-0.3,0.9-0.6,1.5c0.8,1.4,1.8,2.7,3.7,3.1
		c1.1,0.2,1.9,1.1,2.1,2.1c0.3,1.5,1.2,2.5,2.1,3.5c1,1.1,2,2.2,3,3.3c0.6-0.1,1.2-0.1,2-0.2c3.4,4.1,8.1,6.5,12.7,9
		c3.7,1.9,5.1,4.9,5.6,8.7c0.3,1.7,0.2,3.5,0.9,5.2c0.4,0.9-0.2,1.8-0.8,2.5c-1,1.2-2.4,1.8-3.9,2.2c-2,0.5-4.1,1-6.1,1.5
		c-0.8,0.2-1.6,0.3-2.4,0.6c-4.6,1.9-9.5,2.4-14.4,2.3c-4.3-0.1-8.6-0.3-13-0.7c-5.2-0.5-10-2.1-14.3-5.3c-0.7-0.6-1.5-1.2-2.1-1.8
		c-0.3-0.3-0.6-0.8-0.6-1.2c0-0.4,0.2-0.8,0.4-1.4c-0.6-0.4-1.3-1-2-1.2c-2.7-0.8-5.4-1.5-8.2-1.6c-1-0.1-2.1-0.4-3.1-0.5
		c-0.7-0.1-1.4-0.1-2.2-0.1c1.8,2.5,5.4,6.4,7.2,7.8c1.3,1,2.6,2,3.9,3c1.1,0.8,2.3,1.6,3.3,2.5c1.1,1,2.5,0.5,3.6,1
		c2.7,1.1,5.5,2,8.3,2.8c3.9,1.2,7.8,2.5,11.9,3.1c1.2,0.2,1.9,0.8,1.9,2.1c-0.7,0.1-1.4,0.3-2.1,0.3c-3.1-0.3-6.2-1.3-9.3-1.1
		c-0.2,0-0.4-0.1-0.7-0.2c-2.8-0.8-5.6-1.6-8.4-2.4c-1.9-0.5-3.4-1.4-4.9-2.6c-1.8-1.5-3.6-3-5.4-4.4c-0.5-0.4-1.2-1.2-1.7-1.1
		c-1.5,0.2-2.1-0.8-2.9-1.6c-0.4-0.4-0.9-0.8-1.5-1.4c-0.5,1.5-1.5,2.2-2.8,2.5c-3.3,0.7-6.1,2.4-8.7,4.3c-1.2,0.9-2.4,1.8-3.7,2.7
		c-0.6,0.4-1.2,0.8-1.8,1c-0.4,0.1-0.9-0.1-1.2-0.4c-0.2-0.2-0.3-0.7-0.2-0.9c0.2-0.5,0.4-1.1,0.7-1.5c3.8-4.5,8.2-7.9,14.1-9.2
		c0.4-0.1,0.8-0.2,1.4-0.3c-0.2-0.5-0.3-0.8-0.5-1.1c-3.3-3.5-6.9-6.6-10.8-9.4c-0.3-0.2-0.9-0.2-1.3-0.3c-0.2-0.2-0.5-0.5-0.7-0.7
		c-0.7-1.1-1.6-1.6-2.9-1.5c-0.8,0.1-1.6-0.1-2.2-0.9c0.5-0.6,1.2-1.1,0.8-2.1c-1.2-2.6-2.8-4.9-4.6-7c-1-1.1-3-1.1-4,0.2
		c-0.7,0.8-1.4,1.2-2.3,1.4c-2,0.4-3.7,1.3-5.4,2.3c-3.6,2.2-6.4,5-7.8,9c1.8,1.4,1.4,3.5,1.7,5.2c0.3,1.6-0.3,3.1-1.2,4.3
		c-1.3,1.7-2.8,3.2-4.2,4.7c-1.2,1.3-2.6,1.5-4.2,0.8c-2.1-0.9-4.2-2-6.3-3.1c-0.6-0.3-1-0.8-1.2-1.6c-0.4-2.2-2-3.5-3.7-4.8
		c-0.6,1.5-0.6,2.7-0.1,4.1c2.2,1.6,3.9,3.5,4.3,6.4c0.1,0.6,0.7,1.2,1,1.8c1.2,2.4,1.6,4.8,1.3,7.5c-0.4,3-0.7,6-1,9
		c-0.2,2.2,0.9,3.5,3.1,4c1.8,0.4,3.6,1,5.4,1.5c2.7,0.8,5.3,1.9,8.1,2.3c3.5,0.6,6.7,1.9,9.7,3.8c3.5,2.2,7.2,3.9,11,5.5
		c1.8,0.8,3.6,1.8,5.4,2.5c1.5,0.6,3,1.3,4.6,1.5c5.2,0.9,10.5,0.7,15.7,0.3c1.8-0.1,3.6-0.8,5.5,0.1c0.5,0.2,1.2,0,1.7-0.1
		c2.8-0.4,5.4-1.6,7.6-3.3c1.3-1,2.7-1.9,4.1-2.7c1.6-1,3.3-1.8,4.9-2.7c4.5-2.4,8.2-5.7,10.8-10.4c-0.4-3.5-1.2-7-3.1-10.2
		c0.7-0.2,1.4-0.4,1.9,0.2c0.5,0.5,0.9,1.1,1.2,1.7c1.7,2.8,2.5,5.8,2.7,9c0.1,2.1-0.2,2.4-2.8,2.8c-3.1,4.6-7.8,7.7-12.7,10.5
		c-2.1,1.2-4.1,2.7-6.1,4c-2.6,1.7-5.3,3.1-8.4,3.3c-3,0.2-6.1,0-9.1,0c-1.5,0-3-0.2-4.5-0.1c-3.5,0.1-7,0.6-10.5-0.3
		c-1.4-0.3-2.7-0.7-4-1.3c-4.5-2-9-4-13.4-6c-1.7-0.8-3.4-1.6-4.7-3c-1.5-1.5-3.4-2.1-5.4-2.3c-3.9-0.3-7.5-1.7-11.1-2.9
		c-1-0.3-1.9-0.8-3-0.1c-0.3,0.2-1,0.2-1.3,0c-2.1-0.9-3.9-2.2-5.2-4c-0.3-0.5-0.6-1.1-0.6-1.6c-0.2-2.7-0.6-5.3,0.9-7.9
		c0.6-1,0.8-2.1,0.4-3.4c-0.3-1,0-2.1-0.1-3.1c0-1.7-0.2-3.2-1.4-4.6c-0.5-0.5-0.7-1.2-0.9-1.9c-0.6-1.5-1.4-2.7-2.7-3.5
		c-1.7-1.1-2.2-2.6-2-4.5c0.1-0.7,0-1.4,0.2-2.1c0.4-1.3,0.5-2.5-0.4-3.4c0.6-1.1,1.3-0.9,1.9-0.5c0.8,0.5,1.5,1.1,2.2,1.6
		c1.8-0.2,3.5-0.4,5.2-0.4c3.8-0.2,7.4-1.1,10.5-2.4c1.2-2.3,2.1-4.4,3.4-6.1c1.2-1.7,2.9-3,4.3-4.6c-0.5-1.4-1.6-2.1-2.6-2.9
		c-4.8-3.8-9.4-7.6-14.7-10.7c-1.8-1.1-3.5-2.3-5.5-3.5c-0.4,0.2-0.9,0.4-1.6,0.7c-0.4-0.2-0.9-0.4-1.4-0.7
		c-1.8-1.2-3.7-2.5-5.6-3.8c1.3-0.8,2.2,0.4,3.2,0.2c0.1,0.1,0.1,0.2,0.2,0.2c0,0,0.1,0,0.2,0c-0.1-0.1-0.3-0.1-0.4-0.2
		c0.2-0.7-0.4-1-0.7-1.4c-3.4-4-6.8-8-10.3-11.9c-6.4-7.2-11.2-15.4-15.8-23.8c-3.4-6.1-7.1-12-10.6-18c-0.6-0.1-1.1-0.1-1.6-0.1
		c-0.9-1,0-1.9,0.2-2.7c-3.6-4-7.1-7.9-10.6-11.8c-0.5-0.6-1.1-1.2-1.6-1.8c-1.1-1.6-2.6-2.6-4.3-3.3l-0.1-0.2l0.1,0.1
		c0.3,1,0.6,2,1,2.9c1,2.2,2.1,4.4,2.9,6.7c0.9,2.4,1.5,4.8,2.3,7.3l0.1-0.1c-1.2-0.8-1.8-2.1-2.4-3.4c-2.4-5.3-4.8-10.6-7.2-16
		c-0.4-0.9-1-1.9-0.7-3c0.1-0.3-0.1-0.7-0.2-1c-1.3-2.2-2.5-4.5-4-6.5c-2.7-3.8-5.6-7.5-8.5-11.1c-0.9-1.2-2.2-2.1-3.3-3.1
		c-1.6-1.3-3.3-2.6-5-3.9c-0.7-0.6-1.4-1.2-1.9-2c-0.7-1.2-1.7-1.6-2.9-1.7c-1.6-0.1-3.2-0.2-4.7-0.3c-0.5-1.2,0.6-1.4,1.1-2.1
		c-0.7-0.3-1-0.6-1.5-0.6c-2-0.3-3.9-0.6-5.9-0.7c-6-0.3-6.6-0.2-11.8,3c-10.5,6.4-21.2,12.4-32.2,17.8c-0.8,0.4-1.6,0.9-2.6,1.4
		c0.1,0.7,0.3,1.4,0.2,2c-0.1,0.7-0.4,1.3-0.7,2c-3.6,7-4.5,14.5-3.8,22.2c0.7,7.9,2.4,15.7,5.2,23.2c0.7,1.7,1,3.6,3,4.5
		c0.2,0.1,0.3,0.3,0.4,0.5c2.3,4.1,5.9,6.9,9.4,9.8c1.7,1.5,3.4,2.8,5.1,4.3c1.7,1.5,2.9,3.3,3.3,5.6c0.6,2.8,2.2,5.1,4,7.3
		c1.7-1.2,3.3-2.2,4.7-3.3c2.3-1.8,4.5-3.8,6.2-6.1c2.9-3.8,5.7-7.7,8.7-11.5c1.4-1.8,3-3.5,4.7-5.4c-0.9-1.8-1.9-3.7-2.9-5.7
		c-1.4-2.8-2.1-5.7-1.9-8.8c0.1-1.4,0-2.8,0-4.1c-1.3-0.2-1.7,0.6-2.2,1.2c-3.4,3.9-6.2,8.2-8.8,12.6
		C462.3,169.1,462.2,170,461.3,170.3L461.3,170.3z M373.5,152.1c-0.1,0.2-0.3,0.4-0.1,0.2c0,0.2,0-0.1,0-0.3
		c0.5,0.1,0.7-0.2,0.8-0.6c0.2-0.2,0.5-0.4,0.7-0.6c0.1-0.1,0-0.3,0-0.5c-0.2,0.1-0.4,0.1-0.5,0.3c-0.1,0.3-0.1,0.6-0.1,0.9
		C374.1,151.6,373.8,151.9,373.5,152.1z M366.6,163.3c-0.2,0.5-0.4,0.9-0.7,1.4c-0.5-0.1-0.7,0.3-0.7,0.7c-0.3,0.3-0.9,0.5-1,0.9
		c-0.7,1.8-2,3.2-3.3,4.5c-2.2,2.2-4.4,4.5-6.8,6.6c-2.3,2-2.8,4.5-2.1,7.3c0.5,1.9,0.9,3.9,1.4,5.8c0.1,0.2,0.4,0.4,0.8,0.7
		c0.2-0.8,0.3-1.4,0.4-1.9c0.9-4,2.4-7.8,4.6-11.3c0.7-1.1,1.3-1.4,1.9-1.2c0.7,0.3,0.8,1.3,0,2.5c-2.1,3.5-3.7,7.3-5.1,11.1
		c-0.4,1.2-1.2,2.2-1.9,3.6c0,0.8,0.1,2,0,3.2c-0.1,1.1-0.6,2.3-0.6,3.4c0,2.1-0.5,4.2-0.9,6.2c-0.1,0.5,0,1.1,0.1,1.6
		c0.8,0.5,1.5,1,2.2,1.4c-0.4,4.2,0,8.3,1,12.6c0-2.3,0-4.3,0-6.3c0.1-6,0.6-11.9,2.5-17.6c0.6-1.8,1.4-3.5,2.1-5.2
		c0.1-0.2,0.5-0.2,1.1-0.4c-0.2,0.8-0.3,1.2-0.5,1.6c-3.5,8-4.3,16.4-3.8,25c0.1,1.4,0.3,2.8,0.4,4.2c0.1,0.6,0.5,1,1.1,1.3
		c0.3,0.1,0.6,0.3,0.8,0.4c-0.3,1.1-0.6,2.1-0.8,3c1.1,2.5,2.4,4.5,4,6.4c1.8,2,3.6,3.9,6.2,5.1c1,0.5,1.9,1.3,2.9,1.9
		c1.9,1.1,3.8,2.3,5.8,3.3c2.1,1.1,4.4,1.4,6.7,1.5c-0.2-0.6-0.4-1-0.5-1.4c0.6-1,1.6-1,2.5-1c2,0,4,0,6,0c1.2,0,2.3,0,3.5-0.2
		c5.5-0.9,10.7-2.6,15.6-5c6.4-3.1,12.8-6.2,19.4-8.9c1.5-0.6,2.8-1.5,4-2.7c1.4-1.4,2.9-2.7,4.4-4c0.5-0.4,1-0.9,1.6-1.4
		c-0.5-0.4-0.9-0.7-1.2-1c-4-2.7-8-5.2-11.9-8.1c-3.1-2.3-6-4.8-9-7.3c-1-0.9-1.8-2.1-2.6-3.2c-0.3-0.4-0.5-1,0.3-1.4
		c1.2,2.6,3.2,4.3,5.3,6c5.8,4.9,12.1,9.1,18.5,13.3c0.6,0.4,1.2,0.6,1.9,1c0.9-0.7,1.7-1.3,2.6-1.9c0.8-0.6,1.7-1.1,2.7-1.8
		c-2.7-2.4-5.5-4.2-8.3-6.2c-2.8-2-5.8-3.7-8.2-6.2c0.5,0,0.9,0.1,1.3,0.3c2.6,1.6,5.2,3.1,7.7,4.8c2.8,1.9,5.5,4,8.2,6
		c0.9,0.6,1.7,1.3,2.9,1.1c3-0.6,6-1,8.9-1.8c2.2-0.6,4.2-1.8,6.2-3.7c-1.2-0.1-2-0.1-2.3-0.1c-1.1-1-1.9-1.8-2.7-2.5
		c-2.4-1.9-4.9-3.6-7.2-5.5c-1.2-0.9-2.1-2.1-2.3-3.8c-0.1-0.9-0.9-1.6-1.2-2.5c-0.7-1.6-1.8-3.1-2-4.8c-0.4-2.3-1.5-3.9-3.1-5.3
		c-0.8-0.7-1.6-1.4-2.4-2c-4.6-3.5-8.5-7.6-12.3-12c-1.6-1.9-2.9-3.9-3.9-6.2c-3-7-5-14.4-5.6-22c-0.7-8.4,0.1-16.6,4.5-24.1
		c0.2-0.3,0.1-0.9,0.2-1.3c0.1,0,0.2,0,0.3,0c0,0,0.1-0.1,0.1-0.2c-0.1,0.1-0.2,0.2-0.3,0.2c-0.8,0.2-1.6,0.3-2.3,0.7
		c-2.6,1.6-5.2,3.1-7.7,4.9c-6.8,4.8-13.2,10.1-18.9,16.2c-5.4,5.9-10.7,11.8-16,17.7c-0.6,0.6-1,1.4-1.9,1.7
		c-0.1-0.3-0.2-0.4-0.2-0.5c0.2-0.5,0.3-1.1,0.6-1.6c2.1-3.7,4.5-7.1,7.3-10.3c0.5-0.5,1.2-1,1.3-2.2c-0.6,0.6-1,0.9-1.3,1.2
		c-5.2,5-9.3,10.8-12.8,17c-2,3.5-3.7,7.1-4.6,11c-0.1,0.5,0,1.1,0,2.3c1.2-2.2,2.2-4,3.2-5.7c1-1.7,1.6-3.5,3.1-5
		c0.6,1.1-0.2,1.7-0.5,2.4c-1.5,2.9-3.1,5.8-4.6,8.7c-0.8,1.6-1.6,3.1-1,5c0.1,0.2-0.4,0.6-0.7,1c-1.4-2.3-1.7-4.6-1.3-7
		c0.3-2.3,0.9-4.6,1.8-6.7c3.7-8.7,9-16.4,15.7-23c0.7-0.7,1.6-1.4,2.5-1.9c0.5-0.3,1.3,0,2.1,0c2.9-3,5.9-6.2,8.9-9.2
		c5.2-5.1,10.6-9.9,17-13.4c1.1-0.6,2-1.6,3-2.4c1.3-1,1.4-2.3,0.9-3.8c-0.5-1.4-1.1-2.8-1.6-4.2c-0.2-0.6-0.2-1.3-0.3-2.4
		c1.8,1.3,1.4,3.5,3.1,4.6c1-2.3,1.9-4.4,2.8-6.5c-2.6-2.3-5.3-2.1-8-0.3c-1.4,0.9-2.7,1.8-4.1,2.7c-0.3,0.2-0.6,0.6-0.7,0.8
		c0.1,0.7,0.2,1.1,0.3,1.5c-5.2,1.9-9.8,4.6-14.5,7.3c-2.6,1.4-4.4,3.4-5.3,6.2c-0.4,1.2-0.9,2.4-2,3.4c-0.2-0.8-0.4-1.5-0.6-2.3
		c-2.9,3.3-13,18.4-12.9,19.6c0.3,0.3,0.7,0.6,1,1c1.6-1,0.9-3,2.3-4.3c0,1,0.2,1.9,0,2.6c-1.2,4.5-3.3,8.6-7.1,11.4
		c-1.8,1.3-3,2.8-3.9,4.7C367.1,162.8,366.8,163.1,366.6,163.3z M535.7,154.8c-0.1,0-0.2,0-0.2-0.1
		C535.6,154.8,535.7,154.8,535.7,154.8c-0.4,0.9,0.4,1.5,0.8,2.1c3.3,4.5,6.2,9.4,8.9,14.3c2.5,4.5,5,9,7.5,13.5
		c0.8,1.4,1.3,3,3.2,3.4c0.5,0.1,0.8,0.8,1.2,1.3c3.2,4,6.4,8.1,9.6,12c2.3,2.8,4.5,5.8,7.2,8.1c2.7,2.3,6,4,9.1,5.9
		c0.5,0.3,1,0.6,1.5,0.9c4.3,2.8,8.6,5.7,12.4,9.2c1.1,1,2.3,1.9,3.4,2.8c0.8-0.6,1.4-1.2,2.1-1.7c1.5-0.9,3.2-1.3,4.4-2.7
		c0.3-0.4,1.1-0.4,1.6-0.5c3.4-0.2,5.8,1.4,7.7,4c0.8,1.1,1.4,2.3,2.7,3.1c1.3-1.9,1.6-4.1,2-6.1c0.6-2.8,1.4-5.4,3.1-7.6
		c-0.9-4.1-0.4-7.9,1.8-11.2c-3.9-3.9-7.6-7.6-11.4-11.2c-1.3-1.3-2.7-2.6-4.1-3.8c-2.9-2.4-6-4.5-8.7-7c-2.2-2.1-4.8-2.6-7.2-3
		c-0.7,0.5-1.1,0.7-1.5,0.9c-3.4-1.9-6.8-3.8-10.1-5.7c-0.3-0.2-0.6-0.4-0.9-0.6c-1.1-0.9-2.2-1.7-3.3-2.6c-0.6-0.4-1.2-1.1-1.7-1.1
		c-1.8,0.2-2.4-1.1-3.2-2.2c-0.5-0.8-1-1.6-1.5-2.4c-4.5-8.3-9.6-16.3-15-24.1c-0.4-0.5-0.6-1.3-1.6-1.4c-3,2.2-6.5,3.7-10.1,5.2
		c-2.8,1.2-5.4,2.7-8.1,4.1c-0.7,0.4-1.3,0.9-1.9,1.4c0.4,1,0.8,1.8,1.2,2.6c-0.1,0-0.2,0.1-0.3,0.1
		C536.2,154.9,536,154.9,535.7,154.8z M533.3,150c2.8-1.3,5.3-2.4,7.8-3.5c1.6-0.7,3.4-0.9,4.5-2.4c0.3-0.4,1-0.6,1.5-0.8
		c4.1-1.5,7.7-4,10.8-7c0.4-0.4,0.9-0.7,1.2-0.9c1,0.4,1,1,0.6,1.5c-0.7,1.1-1.4,2.1-2.2,3.1c0.2,0.4,0.3,0.8,0.5,1
		c5.6,7.6,10.8,15.5,15.3,23.9c0.5,0.9,1.2,1.7,2,2.4c3.4,3,6.8,5.9,11.1,7.8c3.4,1.5,6.8,3,10.5,3.9c0.8,0.2,1.6,0.3,2.4,0.6
		c1.4,0.5,2.9,0.8,3.3,2.7c0.1,0.6,0.9,1,1.5,1.4c1.8,1.4,3.6,3,5.6,4.2c2.4,1.5,4.3,3.5,6.4,5.4c1.4,1.3,2.5,2.7,3.8,4.1
		c3.3,3.7,7.4,6.4,11.1,9.7c1.5,1.3,4.1,2,6.2,1.9c-1.6-1.9-3.1-3.6-4.7-5.5c0.6-0.1,1-0.2,1.3-0.1c2.3,1.1,3.6,3.2,5,5.5
		c1.2-0.9,2.3-1.7,3.4-2.5c-1-5.5-0.6-10.4,4.3-14.2c-1.1-1.4-1.9-2.9-3-4c-1.3-1.3-1.3-3.2-2.5-4.6c-1.6-2-3.1-4.1-4.7-6.1
		c-0.4-0.5-0.9-1.2-1.5-1.5c-1.4-0.6-2.1-1.8-2.9-3c-1.2-2-2.5-4-3.5-6.1c-5.6-10.9-11.1-21.9-16.6-32.9c-0.4-0.7-1-1.5-1-2.2
		c-0.2-1.9-1.3-3.2-2.5-4.5c-1.1-1.3-2.3-2.7-3.5-3.9c-3.4-3.3-6.8-6.4-10.2-9.7c-0.3-0.3-0.6-0.5-1.5-1.1c0.9,2.4,2.4,3.9,2.2,6.3
		c-2.1-1.8-3.1-3.9-4.1-5.9c-0.2-0.4-0.3-1-0.1-1.3c0.4-1-0.1-1.8-0.6-2.6c-2.8-4.6-6.2-8.7-9.8-12.8c-1.1,0.1-2-0.2-2.8-1.1
		c-1.5-1.8-3.4-3.2-5.3-4.5c-4.8-3.1-10.2-4-15.6-4.7c-3-0.4-6-0.7-9-1.2c-2.9-0.5-6-1.3-8.9,0.2c-0.4,0.2-0.9,0.1-1.4,0.1
		c-3.6-0.1-7.2-0.2-10.6-0.3c-5.1,4.2-8.2,9.4-9.6,15.7c-1.4,6.5-2.7,13.1-3.1,19.7c-0.1,2-0.3,3.9-0.5,5.9c-0.1,1.2,0.3,2.3,1,3.2
		c1,1.3,2.1,2.5,3.2,3.7c4.3,4.7,8.5,9.6,12.8,14.5C531.7,148.5,532.6,149.3,533.3,150z M628.1,207.1c-1.1,0.5-1.4,1.4-1.7,2.2
		c-0.7,2-1,4.1-0.4,6.2c0.5,1.8,0.4,3.6-1.2,4.8c-1.6,1.3-1.7,3-2,4.7c-0.3,2.4-0.8,4.8-2,7c-0.9,1.5-0.5,2.6,0.9,3.6
		c2.9,2,5.7,4.1,8.6,6.1c0.6,0.4,1.2,0.8,1.8,0.9c2.5,0.3,5.1,0.5,7.7,0.8c1.7,0.2,3.5,0.4,5.2,0.7c3.4,0.5,6.2,2.2,7.9,5.2
		c1.3,2.3,3.3,3.6,5.7,4.4c2.3,0.8,4.7,1.5,7.1,2c5.9,1.2,11.9,1.2,17.8,0.8c2.5-0.2,5.2-0.5,7.5-1.4c2.2-0.8,4.4-1.4,6.7-1.9
		c1.8-0.4,3.7-0.5,5.2-1.5c0.3-1,0.6-1.8,0.8-2.7c-0.8,0-1.6,0-2.2,0.2c-0.9,0.2-1.7,0.6-2.6,1c-3.3,1.4-6.6,2.9-10,4.2
		c-1.3,0.5-2.7,0.7-4.1,1c-0.5,0.1-1.2,0.1-1.4-0.8c0.2-0.2,0.5-0.4,0.7-0.5c4.8-1.4,9.5-3.3,14-5.6c0.9-0.5,1.9-0.9,2.9-1.2
		c0.9-0.2,2-0.2,3.1-0.4c-0.2-2.7-0.3-5.2-1.6-7.4c-1.2-0.5-2.3-1-3.2-1.6c-2.9-1.7-5.8-3.6-8.7-5.3c-0.6-0.4-1.2-0.9-1.8-0.9
		c-1.4,0-2.4-0.6-3.4-1.6c-1.6-1.6-3.6-2.1-5.8-1.5c-1.7,0.5-3.3,1-5,1.5c-0.6,0.2-1.1,0.2-1.6-0.3c-0.4-0.4-0.3-1.2,0.2-1.9
		c1-1.2,2.3-1.9,3.8-2.5c1-0.4,2-0.6,3.1-1c-1.2-1-2.2-1.9-3.2-2.8c-2.1-0.3-4,0.3-5.9,0.9c-1.8,0.6-3.6,1.1-5.4,1.7
		c-0.7,0.2-1.4,0-1.7-0.9c0.1-0.3,0.2-0.7,0.5-0.9c2.6-2.2,5.9-3.2,9.2-4.4c-0.9-1.5-1.8-2.8-2.7-4.2c-5.3-0.1-9.7,2.3-14.7,4.2
		c0.1-0.8,0-1.3,0.2-1.6c0.6-0.7,1.3-1.3,2.1-1.8c2.6-1.7,5.4-2.7,8.4-3.5c0.6-0.2,1.2-0.5,1.9-0.8c-0.7-1.4-1.7-1.8-3-1.6
		c-4.6,0.8-9.1,2.1-12.8,5.3c-0.3,0.3-0.8,0.4-1.1,0.5c-0.6-0.7-0.6-1.3-0.2-1.7c0.8-0.8,1.6-1.8,2.5-2.4c1.8-1.1,3.7-2,5.6-2.8
		c1.7-0.7,3.5-1.2,5.3-1.7c-0.3-2.6-1.5-4.7-2.7-6.6c-0.8-0.2-1.3-0.3-1.7-0.4c-0.5-1.1-0.9-1.9-1.3-2.8c-0.6-1.3-1.6-1.9-3.1-1.9
		c-1.8,0-3.5,0.1-5.3-0.1c-2.9-0.3-6.1,2.7-6.1,5.5c0,1.2,0,2.3-0.2,3.5c-0.1,1.4-0.3,2.7-0.5,4.1c-2.6,1.2-4.1,3.8-6.7,4.6
		C634.3,210.5,630.7,209.9,628.1,207.1z M421.9,117.6c0.5-0.2,0.8-0.2,1.1-0.4c5.6-3.4,11.4-6.5,17.4-9.1c8.6-3.9,16.7-9,25.4-12.7
		c1.7-0.7,3.3-1.2,5-1.3c2.4-0.2,4.9-0.4,7.3-0.3c3.8,0.2,7.4,1.1,10.1,4.1c0.6,0.7,1.5,1.1,2.3,1.5c1.5,0.7,3,1.3,3.5,3.1
		c0.2,0.6,1,0.9,1.5,1.4c1.4,1.3,2.7,2.6,4.1,3.8c2.2,1.9,3.3,4.5,5.1,6.7c2.2,2.6,4.2,5.3,5.9,8.3c0.2,0.4,0.7,0.7,1.3,1.4
		c0.2-2.4,0.2-4.4,0.4-6.3c0.4-3.7,0.9-7.4,1.5-11.1c0.4-2.8,0.9-5.5,1.6-8.2c1.2-5,3.5-9.4,7.7-12.7c0.4-0.3,0.6-0.8,1-1.3
		c-7.6-1.6-21.9-2.3-28.8-1.5c-0.1,0-0.2,0-0.3,0c-1.3,0.1-2.4,0.6-3.4,1.5c-2.3,2.1-4.7,4.2-7.1,6.3c-0.4,0.3-0.7,1-1.5,0.6
		c2.1-3,5.3-4.9,7.6-7.6c-1.1-0.5-2,0-2.8,0.3c-2.1,0.8-4.1,1.6-6.2,2.3c-2.4,0.9-4.8,1.8-7.2,2.7c-2.4,0.9-4.8,1.8-7.2,2.8
		c-2.5,1-5,2-7.5,3.1c-2.4,1-4.7,2.1-7,3.1c-1.7,2.3-4.8,1.6-6.9,2.9c-0.2,0.1-0.4,0.2-0.6,0.3c-3.1,1.4-6.2,2.8-9.2,4.2
		c-0.5,0.2-1,0.5-1.5-0.2c0.3-0.3,0.6-0.6,0.9-1c0.2-0.3,0.8-0.5,0.2-1.2c-1.2,0.6-2.4,1.5-3.7,1.6c-1.6,0.2-2.9,0.8-4.3,1.3
		c0.1,0.5,0.1,0.9,0.2,1.5c-2.3,0.7-3.4,2.6-4.2,4.7c-0.5,1.4-1.1,2.8-1.6,4.3C421.8,116.8,421.9,117.2,421.9,117.6z M465.7,209.4
		c1.5-0.5,3-0.9,4.4-1.4c3.7-1.4,6.8-3.6,8.8-7.1c2.2-3.7,3.3-7.7,3.5-12c0.1-3.6-0.7-7.2-0.9-10.8c0-1.1-0.6-2-1.8-2.7
		c-0.9,1.2-1.9,2.3-2.8,3.5c-3.4,4.5-6.6,9-10.1,13.4c-1.9,2.4-4.1,4.4-6.2,6.6c-0.7,0.8-1.6,1.3-2.7,1.6c-1.1,0.3-2.1,0.8-3.1,1.2
		C457,204.4,461.9,207.8,465.7,209.4z M577.8,245.7c1.3,1.9,2.3,3.5,3.4,5.1c0.1,0.2,0.3,0.3,0.5,0.4c1.9,0.9,3.6,2.1,5.7,2.6
		c1.8-1.5,3.6-2.7,4.6-4.4c-0.4-1.9-0.8-3.6-1.2-5.4C586.6,245.2,582.4,246,577.8,245.7z M593.6,246.6c0,0.1,0,0.2-0.1,0.3
		c0.1-0.1,0.2-0.1,0.2-0.2C593.7,246.6,593.6,246.6,593.6,246.6z"/>
	<path d="M337.8,42.5c0.3,0.6,0.7,1.2,0.3,2c-0.5,0.9-0.9,1.9-1.4,2.8c-1.1,1.8-2.1,3.7-2.4,5.8c0,0.2-0.3,0.3-0.5,0.5
		c-1-1.8,0.2-3.4,0.6-5.2c-0.7-1.2-1.5-2.5-2.3-3.9c-1,0.1-1.9,0.1-2.8,0.2c-0.1,0.4-0.3,0.6-0.3,0.8c0.2,1.6,0.5,3.2,0.6,4.9
		c0.1,1,0.1,2.1-0.1,3.1c-0.3,1.7-0.2,3.2,0.4,4.8c0.3,0.9,0.6,1.8,0.7,2.7c0.2,1.2,0.7,2.2,1.5,3.1c0.7,0.9,1.4,1.9,1.8,3
		c0.4,1.2,0.5,2.5,0.6,3.7c0,0.5-0.2,1.1-0.5,1.6c-1.4,3-2.9,5.9-4.1,8.9c-1.8,4.5-4.3,8.5-6.5,12.8c-2,3.8-4.8,6.9-8.2,9.5
		c-0.3,0.2-0.6,0.4-0.9,0.6c-5.4,3.2-9.8,7.5-14.3,11.8c-2,1.8-4.1,3.5-6.1,5.3c-1.6,1.4-3.1,2.8-4.3,4.6c-1.1,1.8-3.1,2.9-5.1,3.4
		c-0.9,0.2-1.9,0.1-2.8-0.1c-1.5-0.4-2.9-0.9-4.3-1.4c-4.1-1.6-8.2-1.7-12.3,0.2c-3.6,1.6-7.3,3.2-11.2,4.9c-0.6-0.6-1.3-1.3-2-2
		c-1.2-1.2-2.4-2.6-3.7-3.7c-1.5-1.3-3.1-2.2-5.2-2.8c-2.6-0.7-5-2-7.4-3.1c-1.2-0.6-2.4-0.9-3.7-0.4c-0.4-0.6-0.6-1.5-1.1-1.7
		c-8.5-4.1-17.3-5.5-26.5-2.5c-0.2,0.1-0.4,0.2-0.6,0.3c-1,1.8-2,3.7-3.1,5.5c-0.8,1.2-1.3,2.5-1.3,3.9c-0.1,1.6-0.2,3.3-0.2,4.9
		c0,2,0,4,0,6c0,1.1-0.1,2.1-0.9,2.9c-0.4,0.4-0.6,1-0.9,1.5c-1.4,1.9-1.4,3.9-0.3,5.9c0.6,1.1,1.1,2.3,1.6,3.5
		c0.6,1.5,0.7,3,0.3,4.7c-0.7,3.5,0.3,6.7,2.3,9.6c1.1,1.5,2.4,2.9,3.7,4.2c5,4.7,10.5,8.5,16.8,11.2c4.1,1.7,7.9,4,11.9,6
		c1.1,0.6,2.2,1.3,3.2,2.1c4.2,3.3,9.1,4.7,14.3,5.2c3.5,0.3,7,0.5,10.5,0.8c1.3,0.1,2.6,0.1,3.6,0.8c0,0.8-0.6,0.7-1,0.7
		c-4.1,0.5-8.2,0.7-12.2,0.5c-6.1-0.4-11.6-2.2-16.5-6c-2.4-1.9-5-3.4-7.6-5c-0.5-0.3-1-0.6-1.6-0.7c-4-0.8-7.4-2.9-11-4.6
		c-1.7-0.8-3.3-1.8-4.7-3.1c-2-2-4.3-3.6-6.4-5.4c-1.7-1.5-3.2-3.1-4.6-4.8c-1.8-2.1-2.7-4.7-2.7-7.4c0-0.9-0.2-1.9,0-2.8
		c0.5-2.7-0.4-5.1-1.5-7.4c-0.3-0.6-0.6-1.3-0.9-1.9c-1-2.2-1.1-4.3,0.5-6.2c1.1-1.3,1.4-2.9,1.4-4.6c0.1-3.1,0.4-6.3,0.6-9.4
		c0-0.7,0-1.4,0.1-2.1c0-0.6,0-1.2,0.3-1.6c0.8-1.1,1-2.3,1-3.6c0-1,0.2-2.1,0.6-3.1c0.7-1.7,1.5-3.4,2.4-5.1
		c1.8-3.3,3.8-6.4,5.7-9.7c0.6-1.1,1.2-2.2,1.8-3.4c-0.9-2.4-1.9-4.7-3.2-6.7c-0.6-0.8-1.4-1.4-2.4-1c-1.8,0.8-3.4,0.2-5-0.8
		c-0.9-0.5-1.9-0.9-2.8-1.3c-2.1-1-4.3-1.8-5.5-4.1c-0.2-0.4-0.6-0.7-1-0.9c-1.9-1.1-3.1-2.7-4.1-4.7c-0.5-1-1.2-2-1.7-3
		c-0.4-0.8-0.8-1.7-1.8-2c-1-0.4-1.2-1.4-1.6-2.2c-0.8-1.5-1.5-3.1-3.4-3.8c-0.6-0.2-1.2-1.1-1.5-1.8c-0.6-1.4-1.1-2.8-1.4-4.3
		c-0.5-2.2-1.2-4.2-2.3-6.2c-0.9-1.6-1.4-3.4-2-5.2c-0.5-1.6-0.8-3.2-1.2-4.8c-0.9-3.8-1.2-7.6,0.1-11.4c0.6-1.7,1.2-3.5,0.7-5.6
		c-0.6-0.4-1.2-0.8-2.1-1.3c0.4-0.5,0.6-1,0.9-1.1c1.7-0.3,2.7-1.3,3.2-2.9c-0.4-0.6-0.7-1.1-1.1-1.7c0.4-1.7,1.6-1.8,3.5-1.3
		c-1-1.3-1.6-2-2.3-3c0.4-0.3,0.7-0.6,1-0.7c0.9-0.2,1.6,0.3,2.2,0.9c0.7,0.8,1.4,1.6,2.3,2.6c0.3-0.7,0.7-1.3,0.6-1.7
		c-0.2-0.9-0.8-1.7-1.2-2.5c-0.4-0.7-0.8-1.4-1.2-2.1c-0.3-0.6-0.1-1.4,0.3-1.6c0.6-0.3,1.2,0,1.5,0.5c0.5,0.6,0.9,1.3,1.4,2
		c0.4,0.6,0.7,1.2,1.1,2c1.2-0.8,2.2-1.5,3.3-2.2c1.1-0.7,2.2-1.3,3.3-2c-0.3-0.6-0.6-1.1-0.9-1.7c0.6-0.4,1.1-0.9,1.8-1
		c4.1-0.9,8.2-1.8,12.3-2.7c2.4,0.6,4.4-0.3,6.6-1.4c1.8-1,4.1-0.9,6.1,0.2c1.3,0.7,2.7,1.5,4,2.1c1.7,0.8,1.8,0.8,4.1,0.6
		c1.2,0.7,2.1,2.3,4.1,1.8c-0.1-0.6-0.3-1.2-0.4-1.8c0.3-0.6,0.8-0.8,1.4-0.6c0.7,0.3,1.4,0.8,2.1,1.2c3.4,2.3,6.7,4.7,10,7.1
		c0.8,0.6,1.8,0.9,2.8,1.4c0.4,0.6,0.8,1.3,1.3,2.2c0.9-0.9,1.6-1.6,2.5-2.4c0.4,0.3,0.9,0.6,1.4,1c1.2-0.3,2.6-0.7,4.1-1.1
		c0.6,0.8,1.1,1.5,1.7,2.3c-0.4,0.5-0.7,1-1.1,1.5c1.7,1,0.2,2.2,0,3.3c2.2,0.9,4.5-0.5,6.8,0.8c-0.2,0.6-0.2,1.4-0.6,1.8
		c-0.8,0.8-1.8,1.5-2.8,2.1c-0.9,0.6-1.8,1-3.2,1.8c2.3,0.3,4.1,0.4,5.7,0.6c0.9,0.8,0.6,1.5,0.1,2c-0.9,0.8-1.9,1.4-2.8,2.1
		c-0.1,0.7,0.6,0.5,0.9,0.6c0.4,0.2,0.8,0.4,1.3,0.7c-1.5,2.4-4.4,2.3-6.3,3.8c-0.2,1.7,0.8,3.1,1.9,3.9c1.3,0.9,1.7,2.1,1.9,3.7
		c0.7-0.3,1.2-0.5,1.7-0.7c2.2-1,4.4-2.1,6.7-3.1c1.2-0.5,2.2-1.1,3.1-2.1c6.5-7.7,15.1-11.6,24.9-12.8c3-0.4,6.1-0.5,9.1-0.4
		c2,0,4,0.3,5.9,0.9c3.6,1,7.1,2.4,10.3,4.4c2.8,1.8,5.8,2.4,9,2.7c1.4,0.1,2.8,0.1,4.2,0c4.7-0.4,9.3-0.4,14.2-0.2
		c0.9-1.2,1.9-2.5,2.9-3.7c1.5-1.8,5-2.4,7.1-1.3c0.2,0.1,0.2,0.6,0.2,0.9c-1.1,0.7-2.1,0.3-3.2,0.2c-1-0.1-2,0.1-2.5,0.9
		c-2.2,3.2-5.7,5.2-8.4,7.9c0.2-0.7,0.3-1.3,0.5-2.1c-0.6-0.1-1-0.3-1.5-0.3c-3.5-0.1-7-0.3-10.5-0.3c-5.5,0.1-10.7-0.9-15.6-3.3
		c-5.9-2.9-12.1-4-18.6-3.9c-5.7,0.1-11.1,1.4-16.3,3.7c-3.3,1.5-6.2,3.7-8.8,6.3c-0.2,0.2-0.3,0.6-0.5,0.9c0.5,0.5,1.5,0.2,1.6,1.3
		c-1.2,1.3-3.1,1.1-4.6,1.9c-1.5,0.8-3.4,0.6-4.6,2.1c0.3,0.2,0.4,0.4,0.6,0.5c9.3,1.5,18.7,2.9,28,4.4c2.8,0.5,5.5,0.7,8.4,0.6
		c2.4-0.1,4.6,0.2,6.9,1c1.6,0.6,3.3,0.9,5.1,1.3c1-0.7,1.9-1.4,2.9-2c0.9-0.6,1.7-1.6,3.3-1c-0.9,2-2.8,2.6-4.1,4.1
		c0.9,1,1.9,1.4,2.9,2c3.4,1.9,6.4,4.3,9.2,7c2.9,2.8,5.2,6,6.2,10c0.1,0.4,0.3,0.8,0.6,1.5c1.1-1.4,1.5-2.9,2.2-4.1
		c0.8-1.3,1.6-2.6,2.4-4c-1.2-2.3-2.4-4.7-3.6-7.1c-1.4-3-2.4-6-1.9-9.4c0.3-2.1,0.2-4.2-0.4-6.3c-0.2-0.7-0.3-1.4-0.2-2.1
		c0-1.3,0.9-2.2,2.2-2.2c2-0.1,3.6,0.6,4.9,2.2c0.4,0.5,0.4,1.4,1.6,1.2C336.6,45.2,337.2,43.9,337.8,42.5z M234,23.7
		c-0.2-0.1-0.4-0.2-0.6-0.2c-0.2,0-0.4,0.1-0.6,0.3c0,0,0.1,0.4,0.2,0.4c0.2,0.1,0.4,0,0.6-0.1C233.8,24.1,233.8,23.8,234,23.7
		c0-0.1,0.1-0.2,0.1-0.2c0,0,0-0.1,0-0.2C234.1,23.5,234,23.6,234,23.7z M228.9,29.2c0.2-0.1,0.5-0.1,0.7-0.2
		c-0.1,0-0.2-0.1-0.2-0.1C229.3,29,229.2,29.1,228.9,29.2c0,0.1-0.1,0.1-0.2,0.2c0,0,0,0.1-0.1,0.2
		C228.8,29.4,228.9,29.3,228.9,29.2z M189,74.8c0.3-0.1,0.5-0.2,0.8-0.3c-0.1,0-0.3-0.1-0.3-0.1C189.3,74.6,189.2,74.7,189,74.8
		c-0.2,0.1-0.7,0-0.3,0.6C188.8,75.2,188.9,75,189,74.8z M231.8,16.6c0.1,0.2,0.2,0.4,0.4,0.5c0.1,0,0.3-0.1,0.5-0.2
		c-0.1-0.1-0.2-0.2-0.3-0.2C232.2,16.6,232,16.7,231.8,16.6c-0.1-0.1-0.1-0.4-0.2-0.5c-0.5-0.4-0.9-1.1-1.6-0.5
		c-0.1,0.1-0.1,0.2-0.1,0.3c0.1,0.7,0.7,0.7,1.3,0.8C231.4,16.7,231.6,16.6,231.8,16.6z M179.2,32.1c1.3-1,2.6-2,4-3
		c-1.7,0.1-3.2,0.5-3.9,2.1C179.2,31.5,179.3,31.8,179.2,32.1c-2.4,0.9-2.4,0.9-3.4,3.2C177.3,34.2,178.2,33.1,179.2,32.1z
		 M195.2,36.8c1.8,0.6,3-0.1,4.3-1.7C197.5,34.9,196.2,35.4,195.2,36.8l0,0.2L195.2,36.8z M195.4,74.8c-0.5-0.2-0.9-0.7-1.6-0.1
		C194.5,74.7,195,74.7,195.4,74.8c0.1,0.1,0,0.5,0.1,0.5c1.4,1,2.8,2,4.4,2.8c1,0.5,1.7,1.1,1.5,2c-0.2,1.2,0.2,2.2,0.6,3.3
		c0.1,0.5,0,0.9-0.8,1c-0.6-1.4-1.2-2.8-2-4.6c-1.6-1-3.2-2.7-5.5-3.4c-0.4,0.5-0.6,0.9-0.9,1.3c-0.7-0.5-1.4-0.9-2-1.4
		c-1.6,1.5-1.8,1.6-3.1,1.8c-0.3,1.9,0.9,3,2.1,4.1c1.1,1,2.3,1.8,2.9,3.3c0.2,0.6,1.3,0.8,2,1.2l-0.1-0.1c0.1,0.2,0.3,0.4,0.4,0.5
		c2.5,1,5,2,7.5,2.9c1.3,0.5,2.5,0.3,3.7-0.5c0.5-0.3,0.9-0.7,1.5-1.1c0.9,0.9,1.7,1.8,2.5,2.6c1,1,2,2,3.1,2.8
		c1.8,1.4,4.2,2,5.7,3.9c0.2,0.2,0.6,0.4,0.9,0.5c1.5,0.4,2.9,0.6,4.5,0.4c1.6-0.3,3.2-0.4,4.8-0.7c1.5-0.2,3-0.4,4.5-0.6
		c1-0.1,2.1-0.2,3.1-0.2c4.7,0.1,9.4,0,14,0.4c2.7,0.2,5.1,0,7.2-1.7c0.3-0.2,0.6-0.3,0.9-0.5c1.9-1,3.4-2.5,4.4-4.4
		c0.8-1.5,1.5-3.1,2.2-4.6c-0.5-0.9-0.9-1.7-1.2-2.4c-0.4-0.7-0.2-1.7-1.4-1.9c-0.6,1.1-1.2,2.2-1.9,3.3c-0.6,0.9-1.3,1.7-2.1,2.4
		c-0.8,0.6-1.7,0.8-2.6-0.2c0.5-1.1,0.8-2.3,2-3.1c1.1-0.7,1.8-1.8,2.3-3c0.4-1,1.2-1.6,2.3-1.5c0-0.9-0.1-1.5-0.7-1.7
		c-1.4,1.3-2.5,2.7-3.9,3.6c-2.3,1.4-4.3,3.2-6.2,5.1c-0.2,0.2-0.6,0.5-0.9,0.5c-0.4,0-1-0.1-1.2-0.3c-0.3-0.4-0.1-1,0.3-1.1
		c1.7-0.5,2.6-1.8,3.7-3c0.6-0.6,1.1-1.3,1.8-1.7c2.5-1.3,4-3.5,5.9-5.6c-0.7-1.8-0.1-4.2-1.9-5.8c-0.2-0.2-0.2-0.7-0.3-1
		c-0.9-3.9-1.9-7.7-2.8-11.6c-0.1-0.6-0.3-1.2-0.7-1.6c-1.1-1.5-2.3-3-3.5-4.4c-0.1-0.1-0.4,0-0.7,0c0.1,0.5,0,1,0.2,1.3
		c0.9,1.9,0.2,3.4-1,4.8c-0.7,0.8-1.4,1.5-2.2,2.4c0.4,0.6,0.7,1.1,1,1.5c1.8,2.1,3.7,4.2,5.5,6.3c0.5,0.6,1,0.8,1.8,0.7
		c0.7-0.1,1.5,0.5,1.5,1.2c0.1,1.5,0.5,3-0.5,4.4c-0.3,0.5-0.7,0.9-1.5,0.4c-0.5-1.1,0.9-2.1,0.4-3.3c-1.2-0.2-2-0.8-2.7-1.9
		c-2.2-3.1-4.4-6.2-7.4-8.3c-0.4-1.6-0.4-2.8,0.5-3.9c0.2,0,0.7,0.2,0.4-0.4c-0.1,0.2-0.2,0.3-0.3,0.5c-0.8-0.2-1.2-0.6-1.2-1.7
		c2-1.7,2.7-4,2.8-6.7c0.1-2.8-1-4.9-2.9-6.9c-1.1,0.6-2.4,0.3-3,1.7c-0.2,0.4-0.9,0.8-1.4,0.9c-1.3,0.3-2.5,0.5-3.8,0.5
		c-1.6,0.1-3.2,0.3-4.8,1.4c3,0.7,5.9,0.1,9.1,0.4c-0.7,0.8-1,1.6-1.5,1.8c-2.1,0.9-4.3,1.8-6.7,1.7c-2-0.1-4,0-6,0
		c-1.8,0-3.5,0.5-4.8,1.8c-0.6,0.6-1.3,0.9-2.1,1c-1.3,0.1-2.6,0.1-3.9,0c-2.3-0.1-4.6-0.3-7-0.5c-1.2,1.1-2.4,2.2-3.4,3.2
		c0.1,1,0.5,1.7,0.3,2.3c-0.7,1.8,0.1,3.4,0.9,5c-2.9,3.1-3.2,7-3.4,10.8c2.4,4,2.4,4.1,1.7,6.1c-1.5-0.7-1.5-0.7-2.2-1.5
		c-1.3-1.4-2.5-2.8-3.9-4c-1.3-1.1-2.8-2.1-4.7-1.9c-0.5-0.5-1-0.9-1.8-0.1c0.8,0,1.3,0,1.9,0c0,1,1.1,1,1.5,1.6
		c0.3,0.4,0.5,0.7-0.1,1.2C196.9,75.2,196.1,75,195.4,74.8z M259.2,59c0.5,1,0.8,1.9,1.2,2.7c0.3,0.6,0.7,1.3,0.8,1.9
		c1.1,4.4,2.1,8.9,3.2,13.3c0.5,2,1,4.1,1.7,6c1.1,3.3,0.9,6.5-0.9,9.4c-2.9,4.5-6.8,7.7-12.7,7.3c-0.6,0-1.2,0-1.8-0.1
		c-4.6,0-9.1-0.1-13.7-0.1c-1.2,0-2.3,0.2-3.5,0.4c-3.9,0.7-7.9,0.7-11.9,0.4c-4.1-0.3-7.5-2.3-10.5-5.1c0.4,3-0.6,6.7-2.9,10.8
		c0.2,0.1,0.4,0.3,0.6,0.3c2.8-0.3,5.6-0.5,8.3-1c1.9-0.3,3.6-0.6,5.5-0.3c5.4,0.9,10.8,1.8,16.3,2.6c1.4,0.2,2.7,0.6,4.1,0.3
		c0.9-1.2,1.5-2.6,3.1-2.8c0.6-0.1,1.2,0.1,1,1.1c-0.4,0.2-0.9,0.6-1.4,0.9c-0.4,0.3-1.2,0.2-1,1.3c1.7,0.3,3.4,0,5.1,0.2
		c1.6,0.2,3.5-0.5,5.1,1.1c-0.9,0.3-1.6,0.6-2.3,0.6c-2.3,0.1-4.7,0.2-7,0c-7-0.5-13.9-1.5-20.8-2.7c-2-0.4-4-0.7-5.9-0.2
		c-3.3,0.8-6.7,1-10.1,1.3c-0.8,0.1-1.6,0.2-2.4,0.3c-0.9,1.8-1.7,3.4-2.5,5.1c-0.1,0.2,0.1,0.4,0.1,0.6c0.6,0.4,1.1,0,1.6-0.2
		c5.7-1.7,13.7-1.8,19.4,0.1c3.5,1.2,6.9,2.8,10.4,4.2c0.9,0.3,1.7,0.8,2.6,0.9c1.4,0.1,2.8,0.2,3.8,1.4c0.2,0.2,0.6,0.2,0.9,0.3
		c0.9,0.2,1.9,0.2,2.7,0.6c3.1,1.5,5.9,3.4,8,6.1c0.6,0.7,1.1,1.5,1.8,2.3c0.8-0.4,1.5-0.8,2.2-1.1c2.4-1.2,4.8-2.4,7.2-3.6
		c4.7-2.3,9.4-2.4,14.2-0.4c1.4,0.6,2.8,1.2,4.2,1.7c1.5,0.7,2.4,0.5,3.3-0.8c1.8-2.8,4.3-4.9,6.7-7.1c1.9-1.7,4-3.3,5.9-5
		c0.6-0.5,1.4-1.1,1.6-1.8c0.5-1.3,1.6-2,2.7-2.7c3.3-2.3,6.6-4.5,9.8-6.8c1.8-1.3,3.5-2.7,5.2-4.1c0.9-0.7,1.6-1.7,2.1-2.7
		c1.4-2.7,2.7-5.5,4.3-8c1.7-2.6,2.5-5.5,3.5-8.3c-1.7-2.3-3.4-4.6-5.1-6.8c-2.5-3.3-5.4-6.1-8.8-8.5c-1.9-1.3-3.6-2.9-6.1-3.2
		c-0.6-0.1-1.2-0.7-1.8-1.1c-1.7-0.9-3.5-1.9-5.3-2.7c-0.7-0.3-1.5-0.8-2.2-0.3c0,0.4-0.1,0.7-0.1,1.3c-1.1-0.2-2.1-0.4-3.1-0.6
		c-2.1-0.4-4.1-0.9-6.2-1.2c-7.1-1.2-14.3-2.3-21.4-3.5c-2.8-0.5-5.5-1-8.3-1.4c-1.3-0.2-2.5-0.2-3.5-1.3c-0.4-0.4-1.1-0.3-1.5,0.4
		c1.3,2.3,2.6,4.5,3.8,6.6c2.2,0,4.1-0.2,5.9-0.1c1,0.1,2.3,0.2,3,0.9c1.7,1.5,3.8,2.2,5.8,3.3c2.5,1.5,5.2,2.8,7.6,4.4
		c5.4,3.7,9,8.8,11.2,14.9c2,5.4,2.4,10.9,0.6,16.4c-0.3,0.8,1.5,0.6,0.6,1.8c-1.5-0.2-3.1-0.4-4.7-0.6c-2-0.3-3.9-0.8-5.9-0.9
		c-7.3-0.3-14.5,0.4-21.4,2.7c-0.4,0.1-0.8,0.6-1.3,0c-0.1-1.1,0.8-1.3,1.5-1.6c4-1.8,8.2-2.8,12.5-3.2c5-0.5,10-0.6,15,0.7
		c0.5,0.1,1.1,0.2,1.5,0.2c0.3-0.4,0.4-0.6,0.5-0.8c0.1-0.3,0.2-0.7,0.2-1c0.7-12.2-3.5-22-13.9-28.8c-3.5-2.3-7.3-4.1-11-6.1
		C264.2,58.5,261.8,58.6,259.2,59z M235.2,40.7c-1.9-0.6-3.5-0.4-5-0.1c-0.3,0.1-0.6,0.5-1.1,0.9C231.3,42.4,233.2,42.4,235.2,40.7z
		 M220.6,18c2,0.6,4,1,6,0.5c0-1-0.7-1.3-1.4-1.2C223.7,17.4,222.2,17.8,220.6,18z M199.9,9.8c-1.2,0.2-2.3,0.4-3.4,0.7
		c-1.1,0.3-2.2,0.6-3.3,0.9c2.3,0.5,4.4-0.2,6.5-0.7C199.7,10.6,199.7,10.3,199.9,9.8z M187.7,46.1c-0.9,0.4-1.1,0.9-0.8,1.5
		c0.2,0.3,0.7,0.6,1.1,0.6c1.2,0,2.3-0.2,3.5-0.3C189.8,48.1,188.8,46.8,187.7,46.1z M184.2,18.6c1.8-0.6,2.8-1.3,2.5-3.5
		C185.6,16.2,184,16.4,184.2,18.6z M187,35.4c-1.5,0.4-2.3,0.5-3,0.8c-0.3,0.1-0.5,0.6-0.8,0.9C184.8,37.9,184.8,37.9,187,35.4z
		 M193,41.7c0.1,0.2,0.2,0.4,0.3,0.6c0.7-0.2,1.5-0.3,2.2-0.5c0.2-0.1,0.3-0.6,0.2-0.8c-0.1-0.2-0.6-0.6-0.8-0.5
		C194.2,40.8,193.6,41.3,193,41.7z M202.7,68.1c-1.2,0.1-1.1,0.9-0.8,1.7c0.1,0.3,0.4,0.5,0.7,0.7C203.1,69.7,203.5,68.9,202.7,68.1
		z M225.4,33.3c0.8,0,1.3,0.2,1.7,0.1c0.2-0.1,0.3-0.5,0.5-0.8c-0.3-0.1-0.7-0.4-0.9-0.4C226.3,32.4,226,32.7,225.4,33.3z
		 M204.8,55.1c-0.5,0.3-1.3,0.5-1.2,1.4C204.5,56.1,204.5,56.1,204.8,55.1z M184.7,52.3c0.1-0.5-0.1-0.9-0.6-1
		c-0.1,0-0.4,0.2-0.5,0.3c-0.2,0.5,0.2,0.8,0.6,1C184.3,52.6,184.5,52.4,184.7,52.3z M218.9,37.9c0,0.1,0,0.2,0,0.3
		c0.8,0,1.7,0,2.5,0c0-0.1,0-0.2,0-0.3C220.6,37.9,219.7,37.9,218.9,37.9z M221.4,42.8c0,0.1,0,0.1,0,0.2c0.7,0,1.4,0,2.1,0
		c0-0.1,0-0.2,0-0.4C222.8,42.7,222.1,42.7,221.4,42.8z M249.7,39.1c-1-0.6-1.4,0-1.8,0.7C248.5,39.5,249,39.3,249.7,39.1z
		 M237.4,39.3c0,0.2,0.1,0.4,0.1,0.5c0.6-0.1,1.2-0.2,1.8-0.3c0-0.1,0-0.1,0-0.2C238.7,39.3,238.1,39.3,237.4,39.3z M215.8,25.6
		c0-0.1,0.1-0.2,0.1-0.4c-0.4,0-0.9-0.1-1.3-0.1c-0.3,0-0.6,0.1-0.8,0.1c0,0.1,0,0.2,0.1,0.3C214.5,25.6,215.1,25.6,215.8,25.6z
		 M185,75.9c0.2,0.2,0.5,0.3,0.7,0.5c0.1-0.2,0.3-0.4,0.3-0.5c-0.2-0.2-0.4-0.4-0.7-0.6C185.2,75.5,185.1,75.7,185,75.9z
		 M193.7,66.7c-0.6,0.2-1.1,0.2-1.2,0.9C193.3,67.8,194,67.9,193.7,66.7z M188.5,64.4c-0.1,0.6-0.8,0.8-0.4,1.5
		C188.5,65.5,189.1,65.2,188.5,64.4z M201.5,35.5c1,0,1.4,0.1,1.7,0c0.2,0,0.3-0.3,0.4-0.5c-0.1-0.1-0.3-0.4-0.4-0.3
		C202.8,34.8,202.5,35,201.5,35.5z M212.1,35.8c0,0.1,0,0.2,0,0.3c0.4,0,0.9-0.1,1.3-0.1c0-0.1,0-0.1,0-0.2
		C213,35.8,212.6,35.8,212.1,35.8z M229.5,19.1c-0.3-0.1-0.5-0.2-0.8-0.3c-0.1,0-0.2,0.3-0.3,0.4c0.2,0.1,0.5,0.3,0.7,0.4
		C229.1,19.6,229.3,19.3,229.5,19.1z M182.6,38.8c-0.7-0.2-0.9-0.4-1.2-0.4c-0.1,0-0.3,0.2-0.4,0.4c0.1,0.1,0.2,0.2,0.2,0.2
		C181.5,38.9,181.8,38.9,182.6,38.8z M192.8,71.8c-0.2,0-0.4-0.1-0.5-0.1c0,0.1,0.1,0.2,0.1,0.2C192.5,71.9,192.6,71.8,192.8,71.8z
		 M194.3,18.4c-0.1,0-0.2,0-0.2,0.1c0,0.1,0,0.2,0,0.3c0.1,0,0.2-0.1,0.3-0.1C194.4,18.5,194.4,18.5,194.3,18.4z M208.3,9.9
		c-0.1,0-0.2-0.1-0.3-0.1c0,0-0.1,0.1-0.1,0.2c0.1,0,0.2,0.1,0.3,0.1C208.2,10,208.2,9.9,208.3,9.9z M206.7,28.2l-0.2-0.1l0,0.2
		L206.7,28.2z M193.9,27.5l-0.2,0L193.9,27.5L193.9,27.5z M232.3,33.7c0,0.1,0,0.1,0.1,0.2c0.1,0,0.2,0,0.3,0c0-0.1,0-0.2-0.1-0.2
		C232.5,33.6,232.4,33.7,232.3,33.7z M187.8,51.8l0.2,0l-0.1-0.3L187.8,51.8z M189.1,70.8c-0.1,0-0.2,0.1-0.3,0.1
		c0.1,0,0.2,0.1,0.4,0.1C189.2,70.9,189.1,70.9,189.1,70.8z M249.2,35.3c0.1,0,0.2,0.1,0.3,0.1c0,0,0.1-0.1,0.1-0.1
		c-0.1,0-0.2-0.1-0.3-0.1C249.3,35.1,249.3,35.2,249.2,35.3z M253.2,27.6l0.1-0.2l-0.2,0L253.2,27.6z M205.5,60.3
		c-0.1,0.1-0.1,0.1-0.2,0.2c0.1,0.1,0.1,0.2,0.2,0.2c0.1,0,0.1-0.1,0.2-0.1C205.6,60.4,205.5,60.3,205.5,60.3z M207.5,91.5l0.1-0.2
		l-0.2,0L207.5,91.5z M178.3,40.8c-0.1-0.1-0.2-0.2-0.2-0.2c-0.1,0-0.2,0.1-0.2,0.2c0.1,0.1,0.1,0.2,0.2,0.2
		C178.2,41,178.3,40.9,178.3,40.8z M194,52l0.2,0.1l0-0.2L194,52z"/>
	<path d="M355.9,76.8c0.8,0,1-0.6,0.9-1.1c-0.2-1.4,0.5-2.3,1.6-2.9c4.2-2.3,6.3-6.1,7.3-10.5c0.1-0.3,0.3-0.6,0.6-1
		c0.8,2,0,3.8-0.2,5.7c1.8,0.3,3-1.7,4.9-1c-0.8,0.9-1.8,1.2-2.6,1.6c-2,1-3.8,2.2-5,4.2c-0.7,1.1-1.7,1.9-2.5,2.9
		c-1.4,1.6-2.8,3.1-4.1,4.8c-0.5,0.6-0.6,1.5-0.7,2.3c-0.5,3.6-0.9,7.2-1.3,10.8c-1.1,8.9-2.6,17.8-4.6,26.6c-0.1,0.7-0.4,1.4-0.4,2
		c-0.2,4.9-2.3,9.2-4.5,13.5c-0.9,1.6-1.8,3.3-2.6,4.9l0.1-0.1c-0.2,0.1-0.4,0.2-0.6,0.4c-4.5,6.9-10.5,12.5-15.8,18.7
		c-0.8,1-1.8,2-2.9,2.4c-2.2,0.8-3.7,2.4-5.2,4.2c0,1.7,0,3.6,0,5.7c1,0.3,2,0.9,3.2,0.6c1.4-0.4,3.1-0.3,4.1-1.9
		c-0.1-1-0.3-2.1-0.2-3.2c0.1-1,0.4-2.1,0.7-3.3c1.2-0.5,2.4-1.3,3.7-1.6c4.6-1.2,8.3-3.6,11-7.5c1,0.1,0.9,0.7,0.7,1.3
		c-1.3,3-3.3,5.5-6.3,6.8c-2.5,1.1-4.2,2.8-5.8,4.9c-0.2,0.3-0.5,0.4-0.8,0.6c-0.9-0.1-0.9-0.7-0.8-1.3c0.1-0.5,0.3-1,0.2-1.7
		c-0.2,0.3-0.4,0.6-0.5,1c-0.1,0.9-0.2,1.8-0.3,2.8c-0.2,2.9-1.6,4.6-4.3,5c-2.4,0.4-2.4,0.4-5.2-0.7c-2.3,2.4-4.9,2.5-8,1.3
		c-2.1-0.8-4.5-1.2-6.7,0.1c-6,3.5-12.6,5.6-19.2,7.6c-1.8,0.5-3.5,1.2-5.4,1.8c0.6,1,1.1,1.8,1.8,3c-2,0.1-3-1.4-4.2-1.7
		c-2.9,0.6-5.5,1.1-8.2,1.6c-1.3,0.2-2.6,0.3-3.8,0.1c-6.5-0.7-13-1.5-19.5-2.3c-3.9-0.5-7.9-1.1-11.8-1.7c-1.9-0.3-3.8-0.8-5.7-1.8
		c1.1-0.7,2.1-0.6,3.2-0.5c3.1,0.4,6.3,0.8,9.4,1.1c5.7,0.6,11.4,1.2,17.1,1.9c1.5,0.2,3,0.3,4.5,0.5c4.2,0.5,8.4,0,12.5-1.3
		c6.2-2,12.4-4.1,18.6-6.2c3.2-1.1,6.4-2.3,9.6-3.3c1.1-0.4,2.1-1,3-1.8c2.6-2.5,5.6-4.3,8.8-5.6c1.5-0.6,2.3-2,3.7-2.5
		c1.5-0.6,1.7-2.1,2.5-3.3c0.9-0.3,1.8-0.5,2.7-0.9c0.5-0.2,1.1-0.5,1.4-0.9c2-2.9,4.8-5.1,7.2-7.6c0.4-0.4,0.8-0.8,1.2-1.3
		c3.3-4.5,6.6-9.1,9.8-13.7c1.4-2,2.7-4.1,3.8-6.3c0.7-1.3,1.1-2.8,1.4-4.3c1.4-8.1,2.8-16.1,4-24.2c0.9-5.5,1.6-11.1,2.4-16.7
		c0.1-1,0.3-2,0.6-3.4c-0.9,0.4-1.5,0.8-2.2,1c-0.8,0.3-1.6,0.4-2.4-0.5c0.5-1.6,2.4-2.1,3.1-3.5c0.7-1.4,1.4-2.9,2.3-4.6
		c0.3,0.5,0.7,0.9,0.7,1.2C356.1,74.8,356,75.9,355.9,76.8c0,0.3-0.1,0.5,0,0.3C355.9,77.4,355.9,77.1,355.9,76.8z M317.1,170.8
		c-0.2-1.1-0.3-2.1-0.5-3.1c-0.1-0.5-0.5-0.9-0.8-1.5c-1.4,0.7-2.7,1.2-4,1.8c-0.5,0.2-0.9,0.6-1.4,0.9c0,0.4-0.1,0.8,0,1.1
		c0.3,1.7,0.7,2,2.2,2.1C314.1,172.4,315.6,172.3,317.1,170.8z M308.1,170.9c-0.1-0.1-0.4-0.2-0.4-0.1c-0.1,0.1-0.2,0.3-0.3,0.5
		c0.2,0.1,0.4,0.2,0.5,0.2C308.1,171.3,308.1,171.1,308.1,170.9z"/>
	<path d="M372.1,42.6c-0.5-1.3-1.7-1.8-2.7-2.5c-1.1-0.8-2.8-0.5-3.9,0.5c-1.4,1.4-2.8,2.8-4.2,4.1c-0.4,0.4-0.8,0.7-1.5,1.3
		c0.7-2.1,1.1-2.7,3-4.4c1.3-1.1,2.7-2.2,4.2-3.4c0.1-0.5-0.4-0.8-0.9-1c-0.7-0.3-1.5-0.6-2.3-0.8c-0.8-0.2-1.6-0.2-2.3,0.3
		c-0.9,0.7-1.9,1.3-2.8,2c-1.2,1-2.2,2.1-3.4,3c-0.4,0.3-1,0.5-1.5,0.7l0.1,0.1c-0.2-0.8,0.4-1.3,0.9-1.8c1.7-1.6,3.3-3.3,5-4.9
		c-2.1-2.2-3.5-2.5-5.8-1.1c-2.7,1.7-5.2,3.5-8,5.4c0.1-0.4,0.1-0.8,0.2-0.9c2.3-2.5,5.2-4.3,8.1-6.1c1-0.7,2.2-0.6,3.4-0.4
		c0.8,0.1,1.6,0.3,2.3,0.7c1.8,1.1,3.7,1.8,5.8,2.1c0.5,0.1,1.2,0.4,1.5,0.8c0.8,1.2,2,1.9,3.2,2.6c2.6,1.6,4.4,3.7,4.9,6.8
		c-0.3,0.1-0.6,0.1-1.1,0.3c1.1,0.7,2,1.3,3,1.9c2.7,1.7,5.4,3.3,8,5c2.6,1.7,5,3.8,7.1,6.2c1,1.1,2.3,2,3.5,2.9
		c1,0.8,2.1,1.5,2.5,2.8c0.3,0.7,0.1,1.4-1.1,1.5c-1.3-1.9-3.2-3.1-5.2-4.4c-0.6-0.4-1.1-0.8-1.6-1.3c-5.7-5.8-12.7-9.8-19.9-13.4
		c-0.1,0-0.2,0-0.5,0c-1.1,0.9-1.5,2.2-1.6,3.6c-0.1,1.6-0.1,3.3-0.2,4.9c0,1.3,0,2.5-0.7,3.8c-0.8-0.3-0.6-1-0.6-1.4
		c0-2.8,0-5.6,0-8.4c0-1.5,0.7-2.8,1.5-3.8C369.7,44.7,371,43.7,372.1,42.6c0,0.8-0.2,1.6-0.3,2.4c0.7,0.5,1,0.1,1.1-0.3
		C373,43.9,373,43,372.1,42.6z"/>
	<path d="M495.9,165.4c-0.8-0.7-1.5-1.2-2-1.8c-2.2-2.8-4.5-5.7-6.6-8.5c-0.4-0.5-0.7-1.2-0.8-1.9c-0.1-0.4,0.2-1,0.5-1.2
		c0.3-0.2,1.1-0.2,1.2,0.1c2.8,4.1,6.5,7.7,8,12.6C496.2,164.8,496.1,164.9,495.9,165.4z"/>
	<path d="M268.9,166.8c0.4,1.3,0.1,2.5-0.7,3.6c-1.4,2-3.2,3.3-5.3,4.4c-2.3,1.1-4.6,2.1-7.2,1.8c-0.5-0.9,0-1.3,0.5-1.5
		c1.1-0.4,2.2-0.8,3.3-1.2c3.2-1.2,6.1-2.9,7.9-6C267.7,167.3,268.2,166.8,268.9,166.8L268.9,166.8z"/>
	<path d="M485.3,119.9c-1.1-0.3-1.6-0.4-1.9-0.6c-2.7-1.6-5.4-3.2-8.1-4.9c-0.4-0.2-0.7-0.6-1-1c-0.3-0.4,0-1.3,0.6-1.4
		c0.3-0.1,0.7-0.2,1-0.1C479.6,113.4,483,115.4,485.3,119.9z"/>
	<path d="M308.5,223.6c0-2.4,0-3.9,0-5.4c0.1-3.9-1.5-7-3.9-9.8c-0.7-0.8-1.8-1.4-2.1-2.7C307.7,206.1,311.7,217.1,308.5,223.6z"/>
	<path d="M220.3,131.6c-3.5,0-7,0-10.4,0c-0.4-0.5,0.1-0.9,0.4-1.1c2.9-1.2,5.9-1.1,8.9-0.4c0.3,0.1,0.6,0.3,0.8,0.6
		C220.1,130.9,220.1,131.2,220.3,131.6z"/>
	<path d="M306.3,162.7c0.1-0.2,0.1-0.5,0.2-0.6c0.6-0.3,1.3-0.6,1.9-0.8c3.3-0.8,6.5-1.7,9.5-3.3c0.5-0.3,1.1-0.5,1.4,0.2
		C316.4,160.9,311.1,162.6,306.3,162.7L306.3,162.7z"/>
	<path d="M454,123.3c2.4-1.6,4.8-3.2,7.2-4.7c0.3-0.2,0.9,0,1.2,0.2c0.4,0.3,0.3,1.2-0.2,1.5C459.8,122.2,457.1,123.2,454,123.3z"/>
	<path d="M328.4,149c1.1-3.1,2.2-6.1,3.3-9.2c0.3,0.2,0.4,0.2,0.4,0.3c0.6,3-0.3,5.7-1.9,8.3C329.8,149.1,329.1,149.6,328.4,149z"/>
	<path d="M352.5,217.6c-0.4,1.9-1.7,3-3,4.1c-1,0.9-2.1,1.8-4,1.8c1.8-2.5,3.5-4.5,5.7-6.2c0.1-0.1,0.2-0.1,0.3-0.1
		C351.9,217.3,352.2,217.5,352.5,217.6z"/>
	<path d="M380.8,89.4c2.7-2.5,3.7-5.4,5.5-7.8c0-0.1,0.2,0,0.4,0c1,2.2-0.5,3.7-1.5,5.3C384,88.8,383.5,89.1,380.8,89.4z"/>
	<path d="M304.1,136.1c0,0.8,0.2,1.3,0.1,1.7c-0.9,2.6-2.8,4.3-5.4,4.9c-0.6,0.2-1.1-0.1-1.4-0.9C300.3,140.9,301.5,138,304.1,136.1
		z"/>
	<path d="M340.8,53.3c0-0.8,0-1.6,0-2.4c0-1.5,0.3-3-0.1-4.5c-0.2-0.7,0.1-1.6,0.3-2.4c0.1-0.3,0.6-0.5,1.3-1
		c-0.1,1.3-0.3,2-0.3,2.8c0,0.9,0.1,1.8,0.1,2.8c0,0.8,0.1,1.6,0,2.4C342,51.9,342.1,53,340.8,53.3z"/>
	<path d="M269.2,227.6c0.8-0.5,1.5-0.8,2.1-1.3c0.7-0.6,0.9-1.3,0.1-2.3c-0.4,0-1-0.1-1.5-0.1c-0.4,0-0.9-0.1-1.7-0.2
		c0.6-0.5,0.8-0.9,1.1-1c1-0.3,2-0.4,3,0.1c0.9,0.5,1.4,1.8,0.9,3.1c-0.2,0.5-0.5,1-0.9,1.4C271.5,227.8,270.5,228.1,269.2,227.6z"
		/>
	<path d="M570.8,236.7c0.2-0.1,0.4-0.3,0.6-0.3c2.4,0.6,4.1,2.2,5.4,4.1c0.2,0.2-0.1,0.8-0.2,1.2C573.4,239.9,572,238.6,570.8,236.7
		z"/>
	<path d="M521.6,151.4c0.3,0.1,0.8,0,0.9,0.2c1.4,1.9,2.4,3.9,2.9,6.2c0,0.2-0.2,0.6-0.5,1.2C523.6,156.3,521.9,154.2,521.6,151.4
		L521.6,151.4z"/>
	<path d="M304.9,185.8c0-0.1,0-0.3,0.1-0.3c3.5-1.6,9.6-2.6,13.2-2.2c-3.4,0.7-7.3,1.5-11.3,2.3
		C306.2,185.7,305.5,185.7,304.9,185.8L304.9,185.8z"/>
	<path d="M512.2,183.7c-1.3-1.7-2.5-3.2-3.7-4.8c0.1-0.7,0.6-0.7,1-0.5c1.9,0.8,3,2.2,3.3,4.2c0,0.2-0.1,0.4-0.2,0.6
		C512.7,183.3,512.6,183.4,512.2,183.7z"/>
	<path d="M354,161.6c1.3-0.3,2.4,0.4,3.4,1.1c0.8,0.6,1.8,1.1,1.9,2.4c-0.3,0.1-0.6,0.5-0.8,0.4c-1.8-0.8-3.4-1.8-4.5-3.4
		C353.9,162,354,161.9,354,161.6z"/>
	<path d="M230.8,170.6c0.1,0.1,0.3,0.4,0.2,0.5c-0.3,1.2-1.4,1.8-2.4,2.4c-1.2,0.8-2.5,1.5-4.1,1.4c0-0.4,0-0.7,0.1-0.7
		C226.6,173,228.7,171.8,230.8,170.6z"/>
	<path d="M346.7,158.1c0.4-0.4,0.5-0.7,0.7-0.8c1.7-0.4,3.1,0.1,4.5,1.2c0.4,0.4,0.4,0.9-0.3,1.8C350,159.7,348.3,159.3,346.7,158.1
		z"/>
	<path d="M349.9,82.8c0.1,0.4,0.2,0.6,0.1,0.8c-0.6,1.7-1.2,3.4-1.9,5.1c-1.2-0.4-1.3-1.2-1.1-2C347.4,85,348.2,83.7,349.9,82.8z"/>
	<path d="M350.7,46.3c0.6,1,0.4,1.9,0.1,2.7c-0.5,1.7-1.2,3.2-1.3,5c0,0.4-0.5,0.7-0.8,1.1c-0.2-0.2-0.3-0.3-0.3-0.4
		c-0.1-0.3-0.2-0.7-0.1-1c0.6-2.1,1.2-4.3,1.8-6.4C350.2,46.9,350.5,46.7,350.7,46.3z"/>
	<path d="M312.8,231.4c-0.6-3.7-0.6-9.5-0.1-11.9C313.6,222,313.6,228,312.8,231.4z"/>
	<path d="M531.2,169.1c1.3,0.3,1.9,1.1,2.4,2c0.5,1.1,1,2.3,0.3,3.9C532.9,173,532.1,171.2,531.2,169.1z"/>
	<path d="M505.3,176.4c-1.5-0.9-2.1-2-2.3-3.2c0-0.2,0.2-0.4,0.4-0.5c0.2-0.1,0.5-0.1,0.6,0C505.1,173.5,505.6,174.5,505.3,176.4z"
		/>
	<path d="M528.8,165.4c-1.1-1.3-1.6-2.9-2.2-4.4c0.6-0.7,1-0.2,1.2,0.1C528.7,162.4,528.7,162.5,528.8,165.4z"/>
	<path d="M377.1,93.9c0.1-2.1,1.4-3.5,3-4.8c0.1,0.5,0.3,0.9,0.2,1.1C379.6,91.6,379,93.3,377.1,93.9L377.1,93.9z"/>
	<path d="M500.1,188.1c-2-0.8-2.7-1.9-3.6-2.9c0.3-0.3,0.5-0.6,0.6-0.6C498.5,185,499.4,185.9,500.1,188.1z"/>
	<path d="M458.3,175.9c-0.9,1-1.7,1.9-2.5,2.7c-0.8-0.3-0.7-0.8-0.5-1.2c0.5-0.8,0.9-1.6,1.5-2.3
		C457.2,174.6,457.8,174.8,458.3,175.9z"/>
	<path d="M491.7,124.1c-0.7,0-0.9,0.1-1.1,0c-0.9-0.5-1.7-1.1-2.5-1.7c0-0.9,0.5-1.1,1.1-0.8C490.3,122,491.3,122.6,491.7,124.1z"/>
	<path d="M499.9,170.2c-2.2-1-2.5-1.5-3.1-3.8C498.3,167.3,498.3,167.3,499.9,170.2z"/>
	<path d="M339.5,53.9c0.9,2,0,3.2-0.8,4.7c-0.5-1.7-0.5-2.6-0.2-3.8C338.7,54.6,339.1,54.4,339.5,53.9z"/>
	<path d="M554.2,218.8c1.1,1,1.7,2.3,2.4,4c-0.6-0.3-1-0.3-1.1-0.5c-0.7-1-1.3-2.1-2-3.1C553.7,219,553.9,218.9,554.2,218.8z"/>
	<path d="M310.2,233.6c0,2.2,0,2.2-1.6,4C308.6,235.9,309.3,234.8,310.2,233.6z"/>
	<path d="M306.2,162.6c-0.9,1.6-2.4,1.8-4.4,2C303.1,162.8,304.5,162.4,306.2,162.6L306.2,162.6z"/>
	<path d="M314.5,124.1c-0.2,0.6-0.2,1.1-0.4,1.5c-0.1,0.2-0.5,0.4-0.8,0.4c-0.1,0-0.5-0.2-0.5-0.4c-0.1-0.6-0.1-1.1,0-1.7
		c0-0.3,0.5-0.6,0.8-0.6C313.8,123.5,314.1,123.8,314.5,124.1z"/>
	<path d="M335.8,74.7c0.7-1.9,0.7-1.9,2.9-3.8c0.5,0.3,0.5,0.7,0.1,1C338,73,337.3,74.1,335.8,74.7z"/>
	<path d="M345.6,95.7c-0.1-0.8-0.2-1.5-0.1-2c0.2-0.7,0.7-1.3,1.9-1.4C347,93.5,347.2,94.8,345.6,95.7z"/>
	<path d="M343.7,101.9c-0.4-1.2-0.1-2.1,0.6-2.9c0.1-0.1,0.4-0.2,0.6-0.1c0.2,0.1,0.3,0.4,0.3,0.5
		C345.1,100.5,344.7,101.3,343.7,101.9z"/>
	<path d="M308.3,130.3c0.1-1.3,0-2.6,1.6-3.1c0.9,0.5,0.3,1.2,0.1,1.7c-0.3,0.9-0.9,1.3-1.8,1.3L308.3,130.3z"/>
	<path d="M283.9,186.7c1.2-1.2,1.4-1.2,2.5,0.7C285.3,187.7,285.3,187.7,283.9,186.7z"/>
	<path d="M226.4,132.8c-0.5-0.1-1.1-0.1-1.6-0.3c-0.4-0.1-1.3-0.1-0.9-0.9c0.2-0.3,1-0.4,1.5-0.3c0.5,0.1,0.9,0.5,1.3,0.8
		C226.6,132.4,226.5,132.6,226.4,132.8z"/>
	<path d="M475,100.4c1.3-1.2,1.6-1.2,2.6-0.6c0.2,0.1,0.3,0.4,0.3,0.6c0,0.2-0.2,0.5-0.3,0.5C476.7,101.1,475.8,101,475,100.4z"/>
	<path d="M492.7,179.2c1,0.5,1.6,1.1,1.5,2.4C492.5,180.5,492.5,180.5,492.7,179.2z"/>
	<path d="M230.7,131.4c1.5-0.5,1.5-0.5,2.3,0.6C231.4,132.5,231.4,132.5,230.7,131.4z"/>
	<path d="M304.1,233.8c0,1.4-1.1,1.1-1.8,1.7C301.7,233.6,302,233.3,304.1,233.8z"/>
	<path d="M365.9,106.2c0.3-1.6,0.7-2.5,1.7-3.1C368.2,104.6,367.2,105.2,365.9,106.2z"/>
	<path d="M468.6,101.9c-0.2,0.9-0.9,1-1.6,0.8c-0.2,0-0.4-0.3-0.4-0.5c0-0.2,0.1-0.5,0.3-0.6C467.5,101.3,468.1,101.2,468.6,101.9z"
		/>
	<path d="M304.8,185.7c-1.2,1-2.6,1.5-4.2,1.4l0.1,0.1C301.8,186,303.2,185.6,304.8,185.7L304.8,185.7z"/>
	<path d="M317.9,118.7c0.9,0.9,0.9,0.9,0,1.9C317,119.7,317,119.7,317.9,118.7z"/>
	<path d="M336.8,126.5c0.1,0.2,0.3,0.4,0.3,0.6c0.1,0.6,0.3,1.3-0.5,1.7c-0.1,0.1-0.5-0.1-0.5-0.3
		C335.6,127.7,335.7,127.4,336.8,126.5z"/>
	<path d="M567.2,233.3c-0.6-0.3-1.2-0.6-1.8-0.9c0-0.9,0.6-0.9,1.1-0.6C567,232.1,567.6,232.4,567.2,233.3z"/>
	<path d="M327.6,229.6c0.4-1.2,1.2-1.4,2.4-1.1C329,229.9,329,229.9,327.6,229.6z"/>
	<path d="M337.3,226.2c-0.7,1.2-1.2,1.9-2.5,1.4C335,226.5,335.7,226.2,337.3,226.2z"/>
	<path d="M284.5,244.7c-0.2-0.4-0.5-0.6-0.4-0.7c0.2-0.6,0.5-1,1.2-1c0.1,0,0.4,0.4,0.3,0.5C285.2,243.9,284.9,244.3,284.5,244.7z"
		/>
	<path d="M234.2,165.3c-0.6,0.6-1.1,1.2-1.7,1.8C231.9,166.5,231.9,166.4,234.2,165.3z"/>
	<path d="M274.9,209.3c0.3-0.7,0.7-0.9,1.3-0.5c0.2,0.1,0.2,0.6,0.3,0.8c-0.3,0.1-0.6,0.3-0.8,0.3
		C275.4,209.8,275.2,209.5,274.9,209.3z"/>
	<path d="M334.9,132.4c-0.2,0.8-0.5,1.6-0.8,2.8C333.3,133.7,333.9,133,334.9,132.4z"/>
	<path d="M296.9,166.9c0.6-0.2,1.2-0.4,1.9-0.7C298.3,167.3,298.3,167.3,296.9,166.9z"/>
	<path d="M297.1,188.6c1-0.9,2.1-1.5,3.5-1.4l-0.1-0.1C299.6,188.1,298.4,188.6,297.1,188.6L297.1,188.6z"/>
	<path d="M334.3,57.7c-0.4,0.3-0.6,0.5-0.8,0.6c-0.2-0.2-0.5-0.5-0.5-0.7c0-0.2,0.3-0.5,0.4-0.8C333.7,57.1,334,57.4,334.3,57.7z"/>
	<path d="M268.9,231.6c-0.3,0.3-0.5,0.6-0.8,0.7c-0.4,0.1-1.1-0.4-0.9-0.7c0.1-0.3,0.5-0.6,0.8-0.6
		C268.2,231,268.5,231.4,268.9,231.6z"/>
	<path d="M344.4,154.4c-0.4,0.3-0.7,0.7-0.8,0.7c-0.3-0.2-0.6-0.5-0.9-0.7c0.2-0.2,0.5-0.6,0.6-0.6
		C343.6,153.8,343.9,154.1,344.4,154.4z"/>
	<path d="M283.7,211c-0.6,0.2-1,0.5-1.3,0.5c-0.2,0-0.6-0.4-0.6-0.7c0-0.6,0.5-0.7,0.9-0.6C283,210.3,283.2,210.6,283.7,211z"/>
	<path d="M559.1,201.9c-1.4-0.4-1.9-1.1-2.5-2.2C558,200,558.4,200.7,559.1,201.9z"/>
	<path d="M377,65.5c-0.5,0.3-0.9,0.6-1.3,0.8c-0.1,0.1-0.4-0.1-0.5-0.3c-0.1-0.1,0-0.4,0.2-0.6C375.8,65,376.3,64.9,377,65.5z"/>
	<path d="M454.7,181.3c-0.6,0.5-1,1-1.7,1.7C453.3,180.9,453.3,180.9,454.7,181.3z"/>
	<path d="M372.9,97.2c-0.1-0.2-0.2-0.4-0.2-0.5c0.2-0.6,0.7-0.8,1-0.6c0.1,0.1,0.1,0.2,0.1,0.3C373.9,96.8,373.3,97.3,372.9,97.2z"
		/>
	<path d="M363.2,109.1c-0.3,0.3-0.5,0.6-0.6,0.8c-0.2-0.2-0.6-0.4-0.6-0.6c0-0.2,0.3-0.6,0.5-0.7
		C362.5,108.6,362.8,108.9,363.2,109.1z"/>
	<path d="M308.2,130.2c0.1,0.8-0.1,1.5-0.8,2.1c-0.6-1.1-0.6-1.1,0.9-2L308.2,130.2z"/>
	<path d="M447.2,128.5c-0.2,0.1-0.5,0.3-0.8,0.4c-0.1-0.3-0.2-0.5-0.3-0.8c0.3-0.1,0.5-0.2,0.8-0.3C447,128,447.1,128.2,447.2,128.5
		z"/>
	<path d="M339.1,224.9c1-0.6,1.2-0.8,1.5-0.9c0.3-0.1,0.6,0.1,0.9,0.1c-0.1,0.3-0.2,0.7-0.4,0.8C340.8,225,340.4,224.9,339.1,224.9z
		"/>
	<path d="M280.8,232c-0.3,0.3-0.7,0.5-1,0.8c-0.2-0.2-0.5-0.5-0.5-0.7c0.1-0.5,0.4-0.8,1-0.7C280.4,231.5,280.5,231.8,280.8,232z"/>
	<path d="M292.6,212.4c-0.6-0.3-1-0.6-1.6-0.9c0.7-0.7,1.2-0.5,1.7,0C292.9,211.6,292.7,212,292.6,212.4z"/>
	<path d="M564.5,206c-0.4,0-0.9,0-1.3-0.1c-0.3-0.1-0.6-0.4-1.1-0.8C563.5,204.7,564.1,205.1,564.5,206L564.5,206z"/>
	<path d="M269,239.9c0.3-0.3,0.5-0.6,0.8-0.7c0.1-0.1,0.5,0.2,0.5,0.3c0,0.3-0.2,0.6-0.3,0.9C269.8,240.3,269.5,240.1,269,239.9z"/>
	<path d="M339.3,121.9c-0.1,0.2-0.2,0.4-0.2,0.5c-0.2-0.1-0.5-0.2-0.5-0.3c0-0.2,0.1-0.4,0.2-0.6
		C338.9,121.7,339.1,121.8,339.3,121.9z"/>
	<path d="M561.6,228.6c-0.2,0.2-0.3,0.3-0.5,0.4c-0.2-0.2-0.4-0.5-0.5-0.7c0.1-0.1,0.2-0.2,0.3-0.2
		C561.1,228.2,561.3,228.4,561.6,228.6z"/>
	<path d="M240.2,158.2c-0.2-0.2-0.4-0.5-0.4-0.5c0.2-0.3,0.4-0.5,0.7-0.7c0.1,0.2,0.3,0.4,0.3,0.5
		C240.7,157.8,240.5,158,240.2,158.2z"/>
	<path d="M269.7,166.1c0.2-0.3,0.4-0.7,0.7-1c0-0.1,0.2,0,0.3-0.1c0,0.2,0.1,0.5,0.1,0.5C270.4,165.8,270,165.9,269.7,166.1
		L269.7,166.1z"/>
	<path d="M288.9,244.5c-0.2,0.1-0.3,0.2-0.5,0.2c0,0-0.1-0.1-0.2-0.2c0.2-0.1,0.3-0.1,0.5-0.2C288.8,244.2,288.8,244.4,288.9,244.5z
		"/>
	<path d="M310.8,229.5c0.1,0.2,0.2,0.4,0.2,0.6c0,0.1-0.2,0.2-0.4,0.3c-0.1-0.2-0.2-0.4-0.2-0.6
		C310.4,229.7,310.7,229.6,310.8,229.5z"/>
	<path d="M461.2,170.2c0,0.3-0.1,0.6,0,0.3C461,170.7,461.2,170.5,461.2,170.2L461.2,170.2z"/>
	<path d="M292.8,169.2c-0.2,0.1-0.4,0.2-0.6,0.2c-0.1,0-0.1-0.2-0.2-0.3c0.2-0.1,0.4-0.2,0.6-0.2C292.6,169,292.7,169.1,292.8,169.2
		z"/>
	<path d="M493.9,125c0.1,0.2,0.1,0.4,0.2,0.5c0,0.1-0.1,0.1-0.2,0.2c-0.1-0.2-0.1-0.4-0.2-0.5C493.7,125.2,493.9,125.1,493.9,125z"
		/>
	<path d="M297.1,188.5c-0.3,0.8-0.9,0.7-1.5,0.7l0.1,0.1C296.1,189,296.6,188.8,297.1,188.5L297.1,188.5z"/>
	<path d="M334.2,77.7c-0.2,0.5-0.4,0.9-0.6,1.4l0.1,0C333.7,78.6,333.6,78,334.2,77.7L334.2,77.7z"/>
	<path d="M450.4,185.3c-0.1,0.1-0.3,0.3-0.4,0.3c-0.1,0-0.2-0.2-0.3-0.3c0.1-0.1,0.2-0.2,0.2-0.2C450,185.1,450.2,185.2,450.4,185.3
		z"/>
	<path d="M238,160.7c-0.1,0.1-0.3,0.2-0.4,0.2c0-0.2-0.1-0.4,0-0.6c0-0.1,0.1-0.2,0.2-0.2C237.9,160.3,237.9,160.5,238,160.7z"/>
	<path d="M324,230.2c0.1,0,0.2-0.1,0.3-0.1c0,0.1,0.1,0.3,0.1,0.4c-0.1,0-0.2,0-0.3,0C324,230.4,324,230.3,324,230.2z"/>
	<path d="M564.4,206.1c0.1,0.1,0.2,0.2,0.3,0.3c-0.1,0-0.2,0-0.2-0.1C564.5,206.2,564.5,206.1,564.4,206.1L564.4,206.1z"/>
	<path d="M443.7,223c0.1,0,0.2,0,0.3,0C443.9,223,443.8,223,443.7,223L443.7,223z"/>
	<path d="M269,166.8c0.3-0.3,0.5-0.5,0.8-0.8l-0.1-0.1C269.4,166.3,269.2,166.5,269,166.8L269,166.8z"/>
	<polygon points="452.4,125 452.6,124.9 452.6,125.1 	"/>
	<polygon points="377.1,93.8 376.9,94 377.1,93.9 	"/>
	<polygon points="333.6,79.1 333.5,79.2 333.7,79.1 	"/>
	<path d="M334.3,77.7c0-0.1,0.1-0.2,0.1-0.3C334.3,77.5,334.3,77.6,334.3,77.7L334.3,77.7z"/>
	<path d="M353.9,42.5c-0.1,0.1-0.2,0.2-0.3,0.3c0-0.1,0-0.2,0-0.2C353.7,42.6,353.8,42.6,353.9,42.5L353.9,42.5z"/>
	<polygon points="278,159 278,159.2 278.1,159.1 	"/>
	<polygon points="278.1,159.1 278.2,159 278,159 	"/>
	<path d="M326.5,375.9c3,0.6,5.9,1.2,8.9,1.8c2.7,0.6,5.5,1.1,8.2,1.7c4,0.9,8.1,0.8,12.1,0.5c0.9-0.1,1.7-0.6,2.5-1
		c0.8-0.3,1.5-0.7,2.3,0c0,1.2-1.1,1.3-1.8,1.9c-0.7,0.6-1.5,1.1-2.4,1.8c1.1,1,2.8,0.9,3.3,2.4c-1.3-0.1-2.5-0.2-3.9-0.4
		c-0.9,2.6-0.7,5.2-0.1,7.8c0.2,0.9,0.9,1.3,1.8,1.5c0.8,0.2,1.6,0.2,2.4,0.4c0.4,0.1,0.7,0.5,1,0.7c-0.1,0.3-0.1,0.4-0.2,0.5
		c-2,1-4.7,0.8-6.2-0.5c-0.3-0.3-0.7-0.7-0.8-1.1c-0.4-1.3-0.8-2.6-1.4-3.9c-0.6-1.2,0.1-2.6,1-3.5c1.1-1.2,1.1-2.5,0.6-4
		c-6,0.9-11.6-0.6-17.1-2.4c-1.2-0.4-2.5-0.6-3.7-0.9l0.1,0.1c-1.7-0.8-3.3-1.5-5-2.3C327.3,376.9,326.6,376.7,326.5,375.9z"/>
	<path d="M400.8,425.9c-0.8,4.9-0.5,9.6-0.4,14.3c0.1,4.2,0.9,8.3,1.8,12.4c0.6,2.6,1.2,5.2,1.8,7.8c0.1,0.3,0.2,0.7,0.2,1
		c0.1,0.7-0.3,1.5-0.8,1.4c-0.4-0.1-0.9-0.3-1.1-0.7c-0.4-0.6-0.6-1.3-0.8-1.9c-0.5-2-1.1-4.1-1.5-6.1c-1.6-8.2-2-16.4-1.5-24.7
		c0.1-1.2,0.3-2.3,0.5-3.4c0.1-0.3,0.7-0.7,1-0.7C400.4,425.2,400.7,425.7,400.8,425.9z"/>
	<path d="M453.4,487.7c0.5,1.7,1.6,2.1,2.5,2.6c3.4,1.9,7,3.1,10.7,4.2c2.7,0.8,5.4,1.5,8.1,2.3c1.3,0.4,2.7,0.6,3.8,1.6
		c0,0.7-0.5,0.8-0.9,0.7c-5-1.5-10.1-2.9-15.1-4.6c-2.6-0.9-5.1-2.2-7.7-3.4c-0.7-0.3-1.4-0.9-2-1.4c-0.6-0.5-0.8-1.1-0.7-1.9
		c0.2-0.8,0.9-1.1,1.6-1c1.6,0.1,3.3,0.2,4.8,0.6c6.4,1.6,12.4,4.1,18.3,7c2.3,1.1,4.5,2.5,6.7,3.8c0.4,0.2,0.7,0.6,1.1,0.9
		c-0.4,0.6-0.8,0.2-1.2,0c-7-4.1-14.4-7.2-22.1-9.8c-1.9-0.6-3.8-1-5.8-1.4C455.1,487.6,454.4,487.7,453.4,487.7z"/>
	<path d="M434.4,486.3c0.3,0.3,0.7,0.6,0.9,1c1.9,3.5,4.9,5.9,7.9,8.2c5.8,4.4,12,8,19,10.2c0.2,0.1,0.4,0.2,0.6,0.4
		c0.1,0.8-0.4,1.1-1,0.9c-1.2-0.3-2.5-0.6-3.7-1c-7.7-3-14.6-7.2-20.6-12.9c-1.4-1.3-2.6-2.7-3.3-4.4
		C433.9,487.9,433.6,487.1,434.4,486.3z"/>
	<path d="M412.9,440.6c0.2,0.5,0.6,0.9,0.5,1.3c-1.1,8.4-0.4,16.8-0.7,25.2c-0.1,1.9,0,3.9-0.8,6.2c-0.4-0.6-0.6-0.9-0.6-1.1
		c-0.6-7.4-0.6-14.7-0.3-22.1c0.1-2.3,0.3-4.7,0.5-7C411.7,442.2,411.7,442.2,412.9,440.6z"/>
	<path d="M389.1,512.9c-0.1-0.2,0-0.5-0.2-0.6c-4.9-5.2-8.9-11.1-12.8-17c-1.3-1.9-2.6-3.9-3-6.3c-0.1-0.7,0.1-1.1,0.8-1.5
		c1.8,4.5,4.5,8.2,7.3,11.9c3,3.9,5.8,7.9,9.3,11.4c0.2,0.2,0.3,0.6,0.5,0.8c-0.3,1.2-1.3,0.9-2,1.1L389.1,512.9z"/>
	<path d="M441.9,468.8c-0.1-0.5-0.2-1.1-0.2-1.6c0.1-6.3,0.2-12.6,0.4-18.9c0.1-2.3,0.1-4.7,0.3-7c0.4-4.6,1-9.3,1.5-13.9
		c0.1-0.7,0.4-1.3,0.8-2.4c0.2,0.8,0.3,1.1,0.3,1.3c-1.2,7.3-1.8,14.6-2,22c-0.1,6.2-0.3,12.4-0.5,18.6c0,0.7-0.2,1.3-0.2,2
		C442.2,468.8,442,468.8,441.9,468.8z"/>
	<path d="M372.5,453.7c0.6,5.2,0.7,10.4,2.3,15.4c1.6,5,3.3,9.9,6,14.4c-0.7,0.8-1.2,0.3-1.4-0.2c-1.5-3-3.1-6-4.3-9.1
		c-1.8-4.6-3-9.3-3.3-14.3C371.7,457.8,371.8,455.7,372.5,453.7z"/>
	<path d="M272.3,401.4c0.9,0.7,1.8,1.4,2.8,2c2.5,1.5,5,2.9,8.1,2.7c1-0.1,2,0.4,2.5,1.4c-0.9,1.1-1.8,0.1-2.6,0.2
		c-0.9,0.2-1.8,0.6-2.7,0.5c-3.4-0.6-6.4-2.1-8.6-4.8C271.3,402.8,271.4,402.4,272.3,401.4z"/>
	<path d="M408.6,513.5c1,0.3,2,0.7,2.9,1c3.2,1.3,6.5,2.7,9.7,3.9c3.4,1.2,7,1.7,10.7,1.6c1.3,0,2.6,0,3.9,0c-0.1,1.1-1,1-1.7,1.1
		c-3.4,0.3-6.8,0.1-10.1-0.8c-5.1-1.3-10-3.3-14.5-5.9C409.2,514.2,409,513.8,408.6,513.5L408.6,513.5z"/>
	<path d="M332.8,379.4c0,1.1,0.9,1.6,1.4,2.3c1.6,2.3,2.7,4.9,3.2,7.7c0.2,1.2,0.2,2.3-0.7,3.3c-0.3-0.2-0.7-0.3-0.8-0.6
		c-0.3-0.5-0.5-1.1-0.5-1.6c-0.4-3.2-1.8-6-3.6-8.6c-0.4-0.6-0.6-1.4-0.9-2c0.8-0.9,1.5-0.3,2.1-0.3L332.8,379.4z"/>
	<path d="M315.7,534.2c-0.4-1.2-0.7-2-0.9-2.9c-1-4.2-3.2-7.7-6.2-10.8c-0.8-0.8-1.6-1.7-2.3-2.6c-0.2-0.3,0-0.8,0-1.3
		C312.1,519.7,316.3,527.4,315.7,534.2z"/>
	<path d="M492.7,478.6c-1.9,0.3-2.6-1-3.7-1.8c-1.1-0.8-2.1-1.8-3.2-2.7c-1.1-0.9-2.2-1.7-3.4-2.5c-1.1-0.8-2.3-1.5-3.5-2.3
		c-1.1-0.8-2.5-1.2-3.3-2.6c0.4-0.1,0.8-0.3,1-0.2c0.7,0.2,1.3,0.5,1.9,0.9c4.5,2.7,8.7,5.8,12.6,9.4
		C491.7,477.4,492.2,478,492.7,478.6z"/>
	<path d="M323.7,376c-3-1.7-6-3.5-9-5.1c-0.7-0.4-1.5-0.4-2.3-0.5c-1.1-0.1-2.2-0.1-3.7-0.2c1.4-1.3,3-0.8,3.9-2
		c1.3,0.5,2.4,0.8,3.4,1.4c3,1.6,5.9,3.2,8.8,4.9c0.7,0.4,1.2,1,1.8,1.6C325.6,376,324.7,376,323.7,376z"/>
	<path d="M288.6,505.8c5.5-0.6,11,1.7,13.3,5.8c-0.4,0-0.7,0-1-0.1c-1.1-0.6-2.3-1.2-3.4-1.8c-2.4-1.4-5-2.5-7.9-2.5
		c-0.3,0-0.6-0.2-1-0.3C288.7,506.4,288.7,506.1,288.6,505.8L288.6,505.8z"/>
	<path d="M270.7,414.8c0.2,0,0.3,0,0.5,0.1c0.1,0,0.2,0.1,0.3,0.2c1.7,3.8,3.4,7.6,5.1,11.4c-0.1,0-0.4,0.2-0.4,0.1
		c-2.4-2.4-4.1-5.4-5.4-8.5C270.3,417,269.9,415.9,270.7,414.8z"/>
	<path d="M369.4,521.3c0.2-0.3,0.3-0.6,0.6-0.8c3.2-1.7,6.3-3.5,9.5-5.2c0.7-0.4,1.4-0.8,2.2-1c0.4-0.1,0.9,0,1.6,0.1
		c-0.4,0.6-0.5,1.1-0.9,1.3c-3.8,2.3-7.8,4.2-12,5.5C370.1,521.3,369.7,521.2,369.4,521.3L369.4,521.3z"/>
	<path d="M349.4,482.1c-3-1.1-6.1-1.7-8.9-3.7c1.9-0.5,2.3-0.4,5,0.7C347.1,479.7,348.8,480.2,349.4,482.1z"/>
	<path d="M441.7,404.7c0-1.5,1-2.2,2.2-2.7c0.5-0.2,0.9,0.2,1,0.6c0.1,0.4,0.1,0.9,0,1.3c-0.6,1.8-1.8,3-3.7,3.9
		c-0.1-0.5-0.2-0.8-0.2-1.1l-0.1,0.1c0.3-0.3,0.6-0.5,0.8-0.8l-0.1,0.1c1-0.4,1.6-1.2,1.8-2.3C442.7,404.2,442.2,404.4,441.7,404.7
		L441.7,404.7z"/>
	<path d="M380.9,428.9c-1.1,1-2,1.8-2.9,2.8c-0.7,0.8-1.3,1.8-2.3,3.2c-0.1-2.6,0.9-4,2.2-5.3C378.7,428.8,379.5,428.2,380.9,428.9z
		"/>
	<path d="M465.6,435c0.1-0.2,0.2-0.5,0.4-0.5c2.9-0.8,5.8-1.5,8.7-2.3c0.3-0.1,0.7,0.1,1.5,0.2c-0.6,0.4-0.8,0.6-1.1,0.7
		C471.9,433.8,468.8,434.7,465.6,435L465.6,435z"/>
	<path d="M293.5,519.8c0.9-0.1,1.3,0.4,1.4,1.1c0.1,0.6,0,1.3-0.1,2c0,0.2-0.3,0.3-0.5,0.4c-0.9,0.3-1.9,0.2-2.5-0.5
		c-0.3-0.4-0.6-1.1-0.5-1.5c0.2-0.8,0.8-0.5,1.4-0.2c0.2,0.1,0.4,0,0.7,0C293.5,520.6,293.5,520.2,293.5,519.8L293.5,519.8z"/>
	<path d="M460.1,480.5c-0.1,0-0.3,0-0.3-0.1c-1.3-1.5-2.6-3-3.8-4.4c0.2-0.8,0.7-1.1,1.3-0.7C458.9,476.6,459.7,478,460.1,480.5z"/>
	<path d="M366.2,446.5c0.8,2.3,0.6,3.8-0.9,7.8C364.8,451.6,365.2,449.4,366.2,446.5z"/>
	<path d="M271.5,526.7c0.6-1.4,0.9-2,1.1-2.6c0.2-0.6,0.2-1.3,0.3-1.9c1.6,0.5,1.9,0.7,1.7,1.7c-0.1,0.6-0.3,1.4-0.8,1.8
		C273.5,526.1,272.8,526.2,271.5,526.7z"/>
	<path d="M336.5,401.6c-1-2.1-1.6-3.5-1.2-5.2C337.1,397.6,337.3,398.1,336.5,401.6z"/>
	<path d="M290.3,551.8c0.3-0.1,0.7-0.5,0.9-0.4c1.1,0.4,2,1.2,2.5,2.3c0.1,0.3-0.2,0.7-0.4,1.1C291.2,553.6,291.2,553.6,290.3,551.8
		z"/>
	<path d="M424.4,451.3c0-2.8,0-5.7,0-8.5c0.1,0,0.1,0,0.2,0c0,2.9,0,5.8,0,8.7C424.5,451.4,424.5,451.4,424.4,451.3z"/>
	<path d="M301.3,436.6c3-0.4,5.3-0.8,8-1.2C306.6,437.4,305.3,437.6,301.3,436.6z"/>
	<path d="M338.8,477.5c-1.3-0.6-2.6-1.2-4-1.8C336.6,474.8,337.5,475.2,338.8,477.5z"/>
	<path d="M358.6,524.7c-0.7,2.1-2.2,1.8-3.6,2.1C355.9,525.3,355.9,525.3,358.6,524.7z"/>
	<path d="M465.5,402.7c-0.3,1.7-0.9,3.3-2,5.4c0.3-2.2,0.8-3.7,1.5-5.1C465.1,402.9,465.4,402.8,465.5,402.7L465.5,402.7z"/>
	<path d="M286.7,537c-0.5-0.5-1-0.8-1.2-1.3c-0.2-0.4,0.6-1,1.1-1c0.6,0,1.2,0.6,1,1.1C287.5,536.2,287.1,536.5,286.7,537z"/>
	<path d="M373.2,412.6c1.1-0.5,2.1-0.3,3.1,0.4C375.4,414.4,374.5,414.2,373.2,412.6z"/>
	<path d="M282.7,435c-1.6-1.5-1.6-1.5-1.5-2.9C282.6,433.5,282.6,433.5,282.7,435z"/>
	<path d="M286.1,440.4c-0.5-0.7-1-1.5-1.6-2.3c0.4-0.1,0.8-0.2,1-0.1C286.2,438.5,286.8,439.2,286.1,440.4z"/>
	<path d="M333.9,408.3c1.2,0.6,1.4,1.8,0.5,2.5c-0.1,0.1-0.7-0.1-0.8-0.3C333.3,409.8,333.3,409,333.9,408.3z"/>
	<path d="M360.2,408.3c1.7,0.1,3.4-0.3,5,0.3C363.5,409.1,361.8,409.2,360.2,408.3L360.2,408.3z"/>
	<path d="M276,544.8c-0.4-0.5-0.9-0.7-0.9-1c0-0.5,0.4-0.7,0.9-0.8c0.5,0,1,0.2,0.9,0.7C276.9,544,276.5,544.3,276,544.8z"/>
	<path d="M350.5,529.1c-0.5,0.4-0.8,0.8-1.1,0.9c-0.2,0.1-0.6-0.1-0.8-0.3c-0.1,0,0-0.5,0.2-0.6c0.2-0.2,0.5-0.5,0.8-0.5
		C349.8,528.5,350,528.8,350.5,529.1z"/>
	<path d="M371.6,410.7c-1.4,0.3-2.3,0.3-2.8-0.8C369.9,409.5,370.8,409.2,371.6,410.7z"/>
	<path d="M407.8,454.3c-1.1,0-2.2,0-3.3,0c0,0,0-0.1,0-0.1c1.1,0,2.2,0,3.3,0C407.8,454.2,407.8,454.2,407.8,454.3z"/>
	<path d="M433.3,418.1c-0.4,0.9-0.8,1.8-1.3,2.6c-0.2,0.3-0.6,0.5-1,0.7l0.1,0.1c0.4-0.9,0.8-1.8,1.3-2.6
		C432.6,418.6,433,418.4,433.3,418.1L433.3,418.1z"/>
	<path d="M335.3,405.2c-0.8-0.8-0.5-1.5-0.2-2.5C336.2,403.8,336.2,403.8,335.3,405.2z"/>
	<path d="M439.6,407.5c0.3-1.2,0.7-2.4,2.1-2.8l-0.1-0.1c0,0.5,0,1,0,1.5l0.1-0.1c-0.5,0-0.7,0.3-0.8,0.8l0.1-0.1
		C440.5,407,440,407.2,439.6,407.5L439.6,407.5z"/>
	<path d="M434.6,415.2c0.2-0.9,0.4-1.7,1.5-1.9l-0.1-0.1C435.7,414,435.6,414.9,434.6,415.2L434.6,415.2z"/>
	<path d="M436.7,411.7c0.2-0.9,0.5-1.7,1.4-2l-0.1-0.1C438,410.6,437.7,411.4,436.7,411.7L436.7,411.7z"/>
	<path d="M439.5,407.5c0,1-0.5,1.7-1.4,2.1l0.1,0.1C438.2,408.7,438.6,407.9,439.5,407.5L439.5,407.5z"/>
	<path d="M300.3,408.1c-0.5,0.1-0.9,0.3-1.3,0.4c-0.1,0-0.2-0.3-0.3-0.5c0.4-0.2,0.7-0.4,1.1-0.5
		C299.9,407.4,300.1,407.7,300.3,408.1z"/>
	<path d="M425.1,440.5c0-0.5,0-1,0-1.5c0.1,0,0.2,0,0.2,0c0,0.5-0.1,1-0.1,1.5C425.2,440.5,425.1,440.5,425.1,440.5z"/>
	<path d="M426.2,435c-0.1,0.7-0.2,1.3-0.4,2.5C425.6,436.2,425.6,435.5,426.2,435L426.2,435z"/>
	<path d="M407.2,512.8c-0.9-0.2-1.8-0.4-2-1.5l-0.1,0.1C406,511.6,406.9,511.8,407.2,512.8L407.2,512.8z"/>
	<path d="M403.1,509.9c-1,0.1-1.6-0.6-2.2-1.3l-0.1,0.1C401.8,508.8,402.5,509.2,403.1,509.9L403.1,509.9z"/>
	<path d="M338.1,534.4c-0.3,0.2-0.6,0.5-0.8,0.4c-0.2,0-0.7-0.5-0.6-0.6c0.1-0.5,0.6-0.6,1.1-0.4
		C337.9,533.9,337.9,534.2,338.1,534.4z"/>
	<path d="M430.5,423.7c0.2-0.7,0.4-1.5,0.6-2.2l-0.1-0.1C431.1,422.2,431.1,423,430.5,423.7L430.5,423.7z"/>
	<path d="M276.3,521.8c0.3,0.1,0.5,0.2,0.7,0.3c-0.2,0.2-0.4,0.4-0.6,0.5c-0.2,0-0.4-0.2-0.6-0.2
		C275.9,522.1,276.1,521.9,276.3,521.8z"/>
	<path d="M428.4,428.6c0.1-0.7-0.1-1.6,0.7-2l-0.1-0.1C428.9,427.2,428.9,428,428.4,428.6L428.4,428.6z"/>
	<path d="M465.5,434.9c-0.5,0.2-0.9,0.4-1.8,0.8C464.4,434.6,465.1,435,465.5,434.9L465.5,434.9z"/>
	<path d="M360.3,408.2c-0.3-0.1-0.7-0.1-1-0.2c-0.1-0.1-0.3-0.4-0.3-0.5c0.2-0.5,0.6-0.2,0.8,0C360,407.7,360,408,360.3,408.2
		L360.3,408.2z"/>
	<path d="M342.9,531.9c-0.2,0.3-0.3,0.6-0.4,0.6c-0.3-0.1-0.5-0.2-0.8-0.3c0.1-0.1,0.1-0.2,0.2-0.2
		C342.2,531.8,342.5,531.9,342.9,531.9z"/>
	<path d="M426.3,435c0-0.5,0-1.1,0-1.6c0.1,0,0.2,0,0.3,0C426.5,434,426.4,434.5,426.3,435L426.3,435z"/>
	<path d="M272.2,534.5c-0.3,0-0.6,0.1-0.8,0.1c0,0-0.2-0.4-0.1-0.5c0.1-0.1,0.4-0.2,0.6-0.1C272,534,272.1,534.2,272.2,534.5z"/>
	<path d="M425.2,455.1C425.2,454.7,425.2,454.9,425.2,455.1C425.2,454.9,425.2,454.7,425.2,455.1z"/>
	<path d="M331.5,474.1c-0.6,0-1.3,0-2.2-0.1C330.3,473.2,331,473.1,331.5,474.1L331.5,474.1z"/>
	<path d="M313.8,467.1c-0.2,0.1-0.4,0.3-0.5,0.2c-0.2-0.2-0.3-0.4-0.4-0.7c0.2,0,0.5-0.1,0.6-0.1
		C313.6,466.7,313.7,466.9,313.8,467.1z"/>
	<path d="M428.3,428.5c-0.1,0.3-0.1,0.6-0.1,0.3C428,429,428.2,428.8,428.3,428.5L428.3,428.5z"/>
	<path d="M367.3,489.6c0.2,0.1,0.3,0.2,0.5,0.4c0.1,0.1,0,0.2,0,0.3c-0.1-0.1-0.4-0.1-0.4-0.2C367.3,489.9,367.3,489.7,367.3,489.6
		L367.3,489.6z"/>
	<path d="M305.6,542.2c-0.1-0.1-0.2-0.3-0.2-0.4c0.2,0,0.4-0.1,0.5-0.1c0.1,0,0.1,0.2,0.2,0.2C305.9,542,305.8,542.1,305.6,542.2z"
		/>
	<path d="M318.1,469.9c-0.2,0-0.4,0-0.6,0c-0.1,0-0.2-0.1-0.3-0.1c0.1-0.1,0.3-0.3,0.4-0.2C317.9,469.7,317.9,469.9,318.1,469.9
		L318.1,469.9z"/>
	<path d="M429.7,425.1c-0.3,0.4-0.5,0.9-0.8,1.3l0.1,0.1C429.1,426,429.1,425.4,429.7,425.1L429.7,425.1z"/>
	<path d="M318.1,470c0.3,0.1,0.5,0.2,0.8,0.3c-0.1,0-0.2,0.1-0.3,0.1C318.4,470.3,318.3,470.1,318.1,470L318.1,470z"/>
	<path d="M429.8,425.2c0.1-0.6-0.2-1.3,0.7-1.5l-0.1-0.1C430.2,424.1,430,424.6,429.8,425.2L429.8,425.2z"/>
	<path d="M433.4,418.2c-0.1-0.6-0.3-1.3,0.6-1.5l-0.1-0.1C433.7,417.2,433.5,417.6,433.4,418.2L433.4,418.2z"/>
	<path d="M434,416.8c0-0.6,0-1.2,0.6-1.5l-0.1-0.1C434.6,415.8,434.5,416.3,434,416.8L434,416.8z"/>
	<path d="M369.3,521.2c-0.1,0.2-0.2,0.4-0.3,0.5c-0.1,0.1-0.4,0-0.6-0.1c0.1-0.1,0.2-0.3,0.3-0.3C369,521.2,369.2,521.3,369.3,521.2
		L369.3,521.2z"/>
	<path d="M408.7,513.4c-0.6,0.1-1.2,0-1.5-0.6l-0.1,0.1C407.8,512.7,408.4,512.7,408.7,513.4L408.7,513.4z"/>
	<path d="M403.6,510.8c0.7-0.2,1.2,0,1.5,0.6l0.1-0.1C404.6,511.4,404.1,511.3,403.6,510.8L403.6,510.8z"/>
	<polygon points="462.1,436 461.8,435.9 462.1,435.9 	"/>
	<path d="M429.1,449.6c0.2-0.1,0.4-0.3,0.3-0.2c0.2,0-0.1,0-0.4,0.1C429,449.5,429.1,449.6,429.1,449.6z"/>
	<path d="M429,449.5c-0.1,0.6-0.3,0.8-0.9,0.4c0.4-0.1,0.7-0.2,1-0.3L429,449.5z"/>
	<path d="M427.2,431.2c0.1,0,0.1,0.1,0.2,0.1c-0.1,0.1-0.2,0.1-0.3,0.2C427.2,431.4,427.2,431.3,427.2,431.2z"/>
	<path d="M350,403c-0.2,0.1-0.3,0.3-0.5,0.3c-0.1,0-0.2-0.2-0.4-0.4c0.1-0.1,0.2-0.2,0.2-0.2C349.6,402.8,349.8,402.9,350,403z"/>
	<path d="M465.6,402.8c0-0.2,0-0.4,0-0.7c0-0.1,0-0.2,0.1-0.3c0.1,0.1,0.3,0.3,0.2,0.3C465.8,402.3,465.7,402.5,465.6,402.8
		L465.6,402.8z"/>
	<path d="M266.7,398.3c0,0.1-0.1,0.2-0.1,0.3c-0.1-0.1-0.2-0.2-0.2-0.4c0,0,0.1-0.1,0.2-0.2C266.6,398.1,266.7,398.2,266.7,398.3z"
		/>
	<path d="M436.1,413.3c-0.1-0.6-0.1-1.2,0.6-1.6l-0.1-0.1C436.8,412.3,436.6,412.8,436.1,413.3L436.1,413.3z"/>
	<path d="M292.6,407.8c0,0.1,0,0.2,0,0.2c-0.2,0-0.4,0.1-0.6,0.1c-0.4-0.1-0.3-0.3,0-0.4C292.2,407.6,292.4,407.8,292.6,407.8z"/>
	<path d="M400.2,508c0.2,0.2,0.4,0.5,0.7,0.7l0.1-0.1C400.7,508.4,400.5,508.1,400.2,508L400.2,508z"/>
	<path d="M399.6,507.1c0.2,0.3,0.4,0.6,0.6,0.8l0.1-0.1C400.1,507.6,399.9,507.4,399.6,507.1L399.6,507.1z"/>
	<polygon points="399.7,507.1 399.4,507.1 399.6,507.1 	"/>
	<polygon points="302.2,545.4 302.4,545.3 302.4,545.6 	"/>
	<path d="M293.6,519.8c-0.2-0.1-0.3-0.1-0.5-0.2C293.5,519.2,293.5,519.5,293.6,519.8L293.6,519.8z"/>
	<path d="M403.7,510.7c-0.2-0.3-0.4-0.6-0.6-0.8L403,510C403.4,510.1,403.8,510.3,403.7,510.7L403.7,510.7z"/>
	<path d="M331.4,474.2c0.1,0.1,0.2,0.2,0.3,0.3c-0.1,0-0.2,0-0.2-0.1C331.5,474.4,331.5,474.2,331.4,474.2L331.4,474.2z"/>
	<path d="M556.6,442.5c-1.2-0.1-1.4-0.7-1.6-1.3c-1.8-5.3-4.1-10.4-6.8-15.3c-0.4-0.7-0.3-0.8,0.2-1.8c1.8,1.2,2.9,2.8,5,7.3
		C555.1,434.8,556.7,438.3,556.6,442.5z"/>
	<path d="M550.6,385.8c0.5,0,1-0.1,1.3,0c2,1,5.3,4.5,6.7,6.9c-0.2,0.1-0.3,0.4-0.5,0.4c-0.3,0-0.7-0.1-0.9-0.4c-2.1-2-4.2-4-6.3-6
		C550.7,386.6,550.7,386.3,550.6,385.8z"/>
	<path d="M520.2,409.6c2.7-0.8,5.3-1.3,7.9,0.4c-0.3,0.4-0.5,0.8-0.7,0.8C525,410.4,522.6,410,520.2,409.6z"/>
	<path d="M558.3,453.2c-1.6-2.6-1.6-2.6-1.1-4.6C558.8,449.5,558.9,450.2,558.3,453.2z"/>
	<path d="M584.2,527.3c2.1,0.5,2.3,0.8,3.7,4.2c-0.4-0.1-0.8-0.1-0.9-0.3C586,530,585.1,528.7,584.2,527.3z"/>
	<path d="M563.7,399.7c0.5,1,0.9,2,1.4,2.9c-0.4,0.6-0.8,0.9-1.1,0.4c-0.5-0.7-0.8-1.6-1.2-2.4c-0.1-0.1,0.1-0.4,0.2-0.6
		C563,399.9,563.3,399.9,563.7,399.7z"/>
	<path d="M560.5,471.2c-0.4-1.1-0.7-2.1,0.1-3.2C561.9,469.6,561.9,470.2,560.5,471.2z"/>
	<path d="M499.3,431.1c1-1.8,1-1.8,2.9-1.5c-0.5,0.6-0.9,1.1-1.3,1.5C500.4,431.4,499.9,431.6,499.3,431.1z"/>
	<path d="M577,520.9c-0.8-0.6-1.4-1.1-1.9-1.6c-0.1-0.1-0.1-0.4-0.1-0.6c0.3,0,0.7-0.2,0.9-0.1C576.7,519,577.4,519.5,577,520.9z"/>
	<path d="M544.9,416c0.8,0.8,1.3,1.4,1.9,2c-0.4,0.7-0.8,0.7-1.2,0.3C545.1,417.8,545.1,417.7,544.9,416z"/>
	<path d="M559.1,458c1.4,1.3,1.3,2.3,0.8,3.5C558.7,460.7,558.8,459.6,559.1,458z"/>
	<path d="M492.2,434.8c0.2-1.2,0.9-1.7,1.8-1.9c0.2,0,0.4,0.2,0.6,0.3c0.1,0,0.1,0.2,0,0.3C494.1,434.5,493.4,434.9,492.2,434.8z"/>
	<path d="M506.8,428c0.6-0.3,1.2-0.7,1.8-0.9c0.2-0.1,0.7,0.1,0.9,0.3c0.3,0.2,0,0.9-0.5,1c-0.6,0.2-1.3,0.2-1.9,0.3
		C506.9,428.5,506.8,428.2,506.8,428z"/>
	<path d="M582.4,524.8c-1,0.1-1.8-0.1-1.9-1.5C581.3,524,581.9,524.4,582.4,524.8z"/>
	<path d="M507.8,411.3c0.8-0.8,1.6-0.7,2.4-0.1C509.3,412.5,509.2,412.5,507.8,411.3z"/>
	<path d="M514.6,410.5c0.4-0.2,0.8-0.5,1.3-0.7c0.2-0.1,0.6,0.3,0.7,0.5c0.1,0.2-0.1,0.7-0.3,0.8c-0.5,0.1-1,0-1.5,0
		C514.8,410.9,514.7,410.7,514.6,410.5z"/>
	<path d="M502.9,412.2c-0.2,0.1-0.4,0.3-0.5,0.3c-0.1,0-0.2-0.3-0.3-0.4c0.2-0.1,0.3-0.2,0.5-0.2C502.7,411.8,502.8,412,502.9,412.2
		z"/>
	<polygon points="561.1,475.9 561.3,475.8 561.3,476 	"/>
	<path d="M301.2,364.4c2.6-1.7,4.9-1,7.2-0.2c0.9,0.3,1.9,0.7,1.9,2c-0.3,0.2-0.6,0.4-0.7,0.3C306.8,365.8,304.2,365.2,301.2,364.4z
		"/>
	<path d="M391.4,369.4c0.2-0.4,0.3-0.6,0.5-0.7c2-0.8,4-1,6-0.4c0.3,0.1,0.6,0.5,0.6,0.7c-0.1,0.4-0.4,0.7-0.7,1
		c-0.1,0.1-0.4,0.2-0.7,0.2C395.2,370.1,393.4,369.8,391.4,369.4z"/>
	<path d="M327.6,342.5c0.8-1.9,2.4-2.5,4.2-2.6c0.3,0,0.7,0.4,1.3,0.8C331.2,341.9,329.4,342.1,327.6,342.5z"/>
	<path d="M409.8,366.4c-0.7-2.1-1.2-3.7-1.7-5.2c0.4-0.7,0.9-0.5,1.2-0.1c0.9,1.1,1.5,2.4,1.4,3.8
		C410.6,365.2,410.2,365.6,409.8,366.4z"/>
	<path d="M385.3,372c1-1.1,1.9-1.4,3-1.3c0.1,0,0.2,0.3,0.5,0.7C387.8,372,386.8,372.1,385.3,372z"/>
	<path d="M316.9,348.4c0.6-0.4,1.3-0.7,2-1.1C319.1,348.8,318,348.6,316.9,348.4z"/>
	<path d="M321.3,346.3c0.3-0.4,0.5-0.7,0.7-0.8c0.2-0.1,0.5,0,0.8,0c-0.1,0.3-0.2,0.6-0.4,0.7C322.2,346.4,321.8,346.3,321.3,346.3z
		"/>
	<path d="M401.9,368.1c-0.4,0-0.9,0.1-1.3,0.1c-0.2,0-0.3-0.2-0.5-0.4c0.2-0.1,0.4-0.3,0.6-0.2c0.4,0,0.8,0.1,1.2,0.2
		C401.9,367.8,401.9,367.9,401.9,368.1z"/>
	<path d="M302.7,371.8c0.1-1.1,0.7-1.2,1.8-1.1C304.1,371.7,303.5,371.9,302.7,371.8L302.7,371.8z"/>
	<path d="M380.9,372.6c0.3-0.1,0.6-0.2,0.9-0.2c0.1,0,0.3,0.2,0.4,0.4c-0.1,0.1-0.2,0.2-0.3,0.2c-0.4,0-0.7-0.1-1.1-0.1
		C380.8,372.8,380.8,372.7,380.9,372.6z"/>
	<path d="M324.8,344.7c0.1-0.1,0.3-0.4,0.4-0.4c0.2,0,0.5,0.2,0.7,0.3c-0.2,0.1-0.4,0.3-0.5,0.3C325.2,345,325,344.8,324.8,344.7z"
		/>
	<path d="M302.6,371.7c-0.1,0.1-0.2,0.2-0.3,0.3c0-0.1,0-0.2,0-0.2C302.5,371.7,302.6,371.8,302.6,371.7L302.6,371.7z"/>
	<path d="M589.3,438.5c1.1,0,1.4,0.7,1.5,1.3c0.3,1.3,0.9,2.6,0,4.2C589.5,442.2,589.3,440.4,589.3,438.5z"/>
	<path d="M614.1,492.8c0.7-0.1,1.2-0.3,1.5-0.2c1.3,0.4,1.9,1.5,2.2,2.7c-0.2,0.2-0.3,0.4-0.3,0.4c-0.1,0-0.2-0.1-0.3-0.2
		C616.2,494.6,615.3,493.8,614.1,492.8z"/>
	<path d="M629.3,507.8c-1.2-1.1-2-2.2-2.4-3.8C629.1,505.3,629.4,505.7,629.3,507.8z"/>
	<path d="M621.3,499.1c1.6-0.1,2,0.9,2.5,1.7C622.8,500.6,622.2,499.9,621.3,499.1z"/>
	<path d="M593.6,449.8c-1-0.5-1.2-1.1-0.8-2.2C593.6,448.2,594,448.8,593.6,449.8z"/>
	<path d="M594.7,456.5c0.8,0.5,1,1.1,0.3,2C594.8,457.7,594.8,457.1,594.7,456.5z"/>
	<path d="M386,392.2c2.8,1.3,6,1.2,9,3c-2.6,0.7-4.7-0.1-6.9-0.6c-0.3,0.4-0.5,0.8-0.8,1.2c-0.1-0.1-0.4-0.2-0.4-0.3
		c-0.2-1.1,0-2.4-0.8-3.3L386,392.2z"/>
	<path d="M386.1,392.2c-0.7-0.6-1-1.2-0.4-2.1c0.5-0.7,1.1-1.5,1.7-2.2c0.4-0.4,0.8-0.8,1.1-1.1c0.9,0.3,0.9,0.8,0.5,1.3
		c-1,1.4-2,2.8-3,4.1L386.1,392.2z"/>
	<path d="M398.8,409.5c2,0.4,2.5,1.3,3.1,3C400.2,411.8,399.6,411,398.8,409.5z"/>
	<path d="M381,390.2c1.7-0.3,1.7-0.3,3.4,0.2C383.2,391.3,382.4,390.8,381,390.2z"/>
	<path d="M389.5,397.8c-0.1,0.2-0.2,0.3-0.3,0.5c-0.1-0.1-0.2-0.2-0.2-0.2c0.1-0.2,0.2-0.3,0.3-0.5
		C389.4,397.6,389.5,397.7,389.5,397.8z"/>
	<polygon points="404.5,414.6 404.3,414.5 404.4,414.6 	"/>
	<path d="M393.3,207.5c0.3,0.1,0.6,0.1,1.3,0.3c-4.7,3.5-10,4.2-15.3,5.7c0.1,0.6,0.1,1.2,0.3,1.7c1.1,3,2.2,5.9,3.4,8.8
		c0.6,1.6,1.3,3.3,1.8,4.9c0.2,0.5,0,1.1,0,2c-0.6-0.4-1.1-0.6-1.3-0.9c-0.6-1-1.1-2.1-1.5-3.2c-1.7-4.4-3.3-8.7-5-13.3
		c-1.7-0.3-3.4-0.7-5.5-1c-0.1,0.6-0.4,1.2-0.3,1.7c0.3,4.6,0.7,9.1,2.3,13.4c0.2,0.7,0.9,1.4,0.1,2.2c-1.6-2-2.4-3.6-3.3-8.2
		c-0.6-3-0.8-6-1.2-9.1c-0.9-0.9-1.8-0.3-2.9,0.1c-0.1,3.9,0.4,7.5,0.8,11.7c-0.5-0.7-0.9-1.1-1-1.5c-0.8-2.4-1.4-5-1.4-7.5
		c0-1,0-2.1,0-3.2c-1-0.6-1.9-1.1-2.8-1.7c0.8-1.3,1.8,0.1,2.5-0.6c0.3-3,0.4-6,0.8-9c0.4-2.7,0.9-5.3,1.5-7.9
		c0.2-0.9,0.4-1.8,1.3-2.3l-0.1-0.1c-0.1,0.9-0.2,1.8-0.4,2.7c-1.3,5.6-1.6,11.3-1.5,16.9c0.9,1.1,1.8,0.9,2.8,0.7
		c0.1-0.3,0.4-0.5,0.4-0.9c0.3-1.1,0.4-2.3,0.7-3.4c0.2-0.8,0.7-1.5,1.7-1.7c0.6,1.1-0.4,1.9-0.4,2.9c0,1-0.2,2.1-0.3,3
		c2.4,1.2,2.7,1.2,5.3,1.2c0-0.5,0.1-1.1,0.1-1.6c0-1,0-2.1,0.1-3.1c0-0.3,0-0.3,1.3-1.1c1,1.8-0.1,4,1.2,5.9
		c1.5,0.2,3.1-0.3,4.6-0.7C387,210.4,390.4,209.6,393.3,207.5L393.3,207.5z"/>
	<path d="M398.7,203.5c0.3-0.4,0.6-0.9,1-1.2c3.7-4.1,8-7.5,12.8-10.3c2.6-1.5,5.3-3,8-4.3c4.1-2,8.2-4,11.8-6.8
		c0.2-0.1,0.4-0.1,0.6-0.2c0.5,0.4,0.3,0.9-0.1,1.2c-1.6,1.2-3.1,2.5-4.8,3.4c-3.1,1.7-6.2,3.3-9.3,4.8c-5.5,2.7-10.5,6-15.1,10.1
		c-1.4,1.3-3,2.5-4.5,3.7C399,203.7,398.9,203.6,398.7,203.5z"/>
	<path d="M411.8,130.4c-1.8,6.2-1.2,12.2-1,18.1c0.1,4,0.7,7.9,1.1,11.8c0.1,0.6,0,1.1,0,2.4c-0.5-1.4-0.8-2.2-1-2.9
		c-1.7-7.7-2-15.5-1.5-23.3c0.1-1.8,0.9-3.6,1.4-5.4C410.9,130.8,411.5,130.6,411.8,130.4z"/>
	<path d="M389.6,211.8c1.5,1,3.1,2,4.6,3c1.5,1,3.1,2.1,4.6,3.2c1.7,1.1,3.3,2.2,5,3.2c1.6,1,3.2,1.9,4.8,2.9c1.5,0.9,3.2,1.6,4.4,3
		c-1,0.8-1.5,0.3-2,0C401.4,221.7,392,215.3,389.6,211.8z"/>
	<path d="M399.9,152.9c0.4,1.8,0.8,3,0.9,4.3c0.6,7.3,1.9,14.6,3.4,21.8c0.1,0.4,0.1,0.9-0.2,1.4c-0.3-0.7-0.6-1.4-0.8-2.1
		C401.4,171.4,399.7,158.2,399.9,152.9z"/>
	<path d="M383.4,165.4c-1.1,6.6-0.9,13.3-0.8,19.9c0,0.8-0.1,1.6-0.4,2.4c-0.1-1-0.2-2.1-0.2-3.1c0-4.2-0.1-8.4,0-12.6
		c0.1-2.1,0.6-4.1,0.9-6.2C383,165.7,383.3,165.6,383.4,165.4L383.4,165.4z"/>
	<path d="M407.8,117.3c1-0.9,1.6-0.6,2.2-0.2c1.6,1.1,3.2,2.3,3.4,4.4c-0.7,0.7-1.4,0.6-1.9,0C410.2,120.2,409.1,118.8,407.8,117.3z
		"/>
	<path d="M392.5,206.8c-0.2-0.1-0.5-0.1-0.6-0.2c-1.6-2.6-3.2-5.1-3.6-8.2l-0.1,0.1c0.1,0,0.3,0,0.3,0.1
		C389.9,201.3,391.2,204.1,392.5,206.8L392.5,206.8z"/>
	<path d="M378.6,180c-0.2-0.4-0.5-0.8-0.6-1.2c-0.3-3-0.2-6,0.2-9.1C378.3,173.2,378.4,176.6,378.6,180L378.6,180z"/>
	<path d="M383.5,165.5c-0.3-2.5,0.7-4.5,2-6.5l-0.1-0.1C385.3,161.3,384.3,163.4,383.5,165.5L383.5,165.5z"/>
	<path d="M401.6,121.2c1.8,0,3.4,0.7,4.9,1.7c-1.4-0.1-2.7-0.2-3.9-0.9C402.2,121.9,402,121.5,401.6,121.2L401.6,121.2z"/>
	<path d="M392.5,131c-1.3,1.2-2.2,1.7-4.2,2.1l0.1,0.1C389.4,131.7,390.7,131,392.5,131L392.5,131z"/>
	<path d="M379.3,185.6c-0.2-0.5-0.6-1-0.6-1.5c-0.1-1.4-0.1-2.7-0.1-4.1l-0.1,0.1C379.5,181.9,378.9,183.8,379.3,185.6L379.3,185.6z
		"/>
	<path d="M379.2,185.7c0.1,0.3,0.4,0.6,0.4,0.9c0,1.2,0,2.5-0.2,3.7C379.4,188.8,379.3,187.2,379.2,185.7L379.2,185.7z"/>
	<path d="M386.8,195c1.1,0.9,1.6,2,1.4,3.4l0.1-0.1C387.3,197.5,387,196.2,386.8,195L386.8,195z"/>
	<path d="M388.3,133.1c-0.1,0.8-0.6,1-2,1.2C387.3,133.7,387.8,133.4,388.3,133.1L388.3,133.1z"/>
	<path d="M368.6,166.8c-0.4,0.9-1,1.6-2.1,1.3l0.1,0.1C367,167.4,367.7,166.8,368.6,166.8L368.6,166.8z"/>
	<path d="M392.5,131c0.3-0.9,1-0.6,1.6-0.2C393.6,130.8,393,130.9,392.5,131L392.5,131z"/>
	<path d="M365.8,168.9c-0.4,0.4-0.8,0.8-1.6,0.2C364.9,169,365.4,169,365.8,168.9L365.8,168.9z"/>
	<path d="M366.5,163.2c0.3,0,0.5,0,0.8,0c-0.3,0.5-0.5,1-0.8,1.5C366.5,164.2,366.5,163.7,366.5,163.2z"/>
	<path d="M365.1,166.8c-0.1,0.3-0.2,0.5-0.1,0.3C364.9,167.3,365,167.1,365.1,166.8L365.1,166.8z"/>
	<path d="M365.1,165.4c0.3,0,0.5,0,0.8,0c-0.3,0.5-0.5,1-0.8,1.5l0.1,0.1C365.2,166.4,365.1,165.9,365.1,165.4z"/>
	<path d="M368.6,189.3c-0.2,0.5-0.1,1.1-0.7,1.3l0.1,0.1C368,190.2,368.1,189.6,368.6,189.3L368.6,189.3z"/>
	<path d="M386.9,194.9c-0.1-0.2-0.2-0.5-0.1-0.3C386.7,194.5,386.8,194.7,386.9,194.9L386.9,194.9z"/>
	<path d="M368.7,189.4c0.1-0.3,0.1-0.5,0.1-0.3C368.9,188.9,368.8,189.1,368.7,189.4L368.7,189.4z"/>
	<path d="M365.8,165.4c0-0.3,0-0.5,0-0.8c0.3,0,0.5,0,0.8,0C366.3,164.9,366.1,165.2,365.8,165.4z"/>
	<path d="M367.2,163.3c0-0.3,0-0.5,0-0.8c0.1,0.2,0.2,0.4,0.2,0.6C367.4,163.2,367.3,163.3,367.2,163.3z"/>
	<path d="M393.3,207.4c-0.3-0.2-0.5-0.4-0.8-0.7l-0.1,0.1C392.7,207,393,207.3,393.3,207.4L393.3,207.4z"/>
	<path d="M365.9,169c0.2-0.3,0.5-0.5,0.7-0.8l-0.1-0.1C366.2,168.4,366,168.6,365.9,169L365.9,169z"/>
	<path d="M368.7,166.9c0-0.1,0.1-0.2,0.1-0.3C368.7,166.6,368.7,166.7,368.7,166.9L368.7,166.9z"/>
	<path d="M401.7,121.2c-0.1-0.1-0.2-0.2-0.3-0.3c0.1,0,0.2,0,0.2,0.1C401.6,121,401.6,121.1,401.7,121.2L401.7,121.2z"/>
	<path d="M386.2,158.4c-0.1,0.4-0.3,0.7-0.8,0.6l0.1,0.1C385.7,158.9,386,158.7,386.2,158.4L386.2,158.4z"/>
	<polygon points="386.2,158.5 386.3,158.3 386.2,158.4 	"/>
	<path d="M540.8,130.2c0.3-0.4,0.4-0.7,0.5-0.7c2.3-0.7,4.5-1.9,6.9-2.1c1.8-0.2,3.6-0.9,5.3-1.6c1.8-0.8,3.8-1.2,5.7-1.6
		c0.2,0,0.4,0.1,0.8,0.3c-3.7,3-7.6,5.1-12.4,5.3c-1.6,0.1-3.2,0-4.8,0.5C542.3,130.3,541.6,130.2,540.8,130.2z"/>
	<path d="M586.7,138.5c-0.6-0.2-1-0.4-1.3-0.6c-3-1.8-6-3.5-8.9-5.3c-0.2-0.1-0.2-0.4-0.4-0.7c1.6-0.7,2.6,0.5,3.7,1.1
		C585.9,136.4,586,136.5,586.7,138.5z"/>
	<path d="M561.1,91.4c1.8,0.9,2.7,1.7,3.7,3.4c0.4,0.7,1,1.3,0.4,2.2C562,94,561.2,93,561.1,91.4z"/>
	<path d="M595.4,148.1c-1.7-2-2.9-3.5-4.3-5.1c1.3-0.5,1.9,0.3,2.6,0.8C595.2,145.3,595.5,145.8,595.4,148.1z"/>
	<path d="M625.9,195.1c-1.1-0.7-2-1.4-2.8-1.9c0.2-1,0.7-1,1.2-0.7c0.6,0.4,1.2,1,1.7,1.5C626.2,194.1,626,194.5,625.9,195.1z"/>
	<path d="M528.7,131.7c-1.6,0.8-2.9,1.4-4.5,2.1C526,131.5,526.5,131.3,528.7,131.7z"/>
	<path d="M599.2,150.9c1.3,0.8,2.3,1.9,2.4,3.7C599.8,153.1,599.8,153.1,599.2,150.9z"/>
	<path d="M567.7,101.5c0.9,0.9,1.1,1.9,0.3,3.1C566.6,102.5,566.6,102.5,567.7,101.5z"/>
	<path d="M561.2,133.4c-0.6-1.6,0.3-2.3,1.3-3.2C562.7,131.4,562.8,131.5,561.2,133.4z"/>
	<path d="M629.1,199.2c1.4-0.2,1.9,0.3,2.1,1.6c-0.5-0.2-0.8-0.3-1-0.5C629.8,200,629.4,199.6,629.1,199.2z"/>
	<path d="M536.2,130.9c-0.9,0-1.7,0-2.5,0C534.9,129.8,534.9,129.8,536.2,130.9z"/>
	<path d="M604.1,158.2c0.1-0.1,0.1-0.3,0.2-0.3c0.2,0,0.5-0.1,0.6,0c0.2,0.2,0.4,0.6,0.5,0.9c0,0.2-0.1,0.5-0.3,0.6
		c-0.1,0.1-0.4-0.1-0.5-0.3C604.4,158.9,604.3,158.6,604.1,158.2z"/>
	<path d="M598.8,126.4c0.9,0.7,1.2,0.9,1.4,1.1c0.2,0.3,0.3,0.6,0.5,0.9C599.7,128.5,599.7,128.5,598.8,126.4z"/>
	<path d="M598.1,123.4c-0.2,0.2-0.4,0.2-0.5,0.3c-0.1-0.3-0.2-0.5-0.3-0.8c0,0,0.2-0.2,0.2-0.1C597.7,123,597.9,123.2,598.1,123.4z"
		/>
	<path d="M622,239c0.2,0.2,0.5,0.5,0.7,0.7c0.1,0.5,0.2,0.9,0.1,1.4c0,1.1-0.6,2-1.6,2c-2.1,0.1-3.4,1.3-4.9,2.5
		c-3.3,2.6-6.6,5.2-9.9,7.7c-0.9,0.7-1.7,1.6-3.2,1.6c0-0.5-0.1-1,0-1.3c0.3-0.6,0.8-1.2,1.3-1.6c3.9-3.5,7.8-7,11.8-10.4
		C618,240.2,619.8,239.1,622,239z"/>
	<path d="M612.2,259.4c-0.2-0.4-0.5-0.9-0.4-1.2c0.2-0.7,0.5-1.3,1-1.8c3.3-4.4,7.4-7.7,12.3-10.1c1-0.5,2.2-0.8,3.3-1
		c0.7-0.1,1.3,0.3,1.7,1c0.3,0.7,0,1.6-0.8,2.1c-0.3,0.2-0.6,0.4-0.9,0.5c-5,1.8-9.2,5-13.1,8.5C614.3,258,613.6,259,612.2,259.4z"
		/>
	<path d="M632.7,266.7c-1.2-0.1-1.8-1.2-1.3-1.8c0.6-0.7,1.2-1.5,1.9-1.9c2.2-1.3,4.5-2.4,6.8-3.5c0.3-0.1,0.7-0.2,1-0.2
		c0.8,0,1.3,0.3,1.7,1c0.4,0.7,0.1,1.3-0.4,1.9c-0.2,0.3-0.5,0.5-0.8,0.6c-2.6,1.2-5.2,2.4-7.9,3.6
		C633.3,266.7,632.8,266.7,632.7,266.7z"/>
	<path d="M430.2,108.2c0.1,0,0.2-0.1,0.3-0.1c0,0.1,0.1,0.3,0.1,0.4c-0.1,0-0.2,0-0.3-0.1C430.2,108.4,430.2,108.3,430.2,108.2z"/>
	<path d="M504,90.2c0.1-0.3,0.3-0.6,0.4-0.9C504.8,90,504.6,90.2,504,90.2L504,90.2z"/>
	<path d="M504,90.1c0,0.2,0,0.4,0,0.6c0,0.1,0,0.2-0.1,0.3c-0.1-0.1-0.2-0.2-0.2-0.3C503.8,90.6,503.9,90.4,504,90.1L504,90.1z"/>
	<path d="M257,110c3.5-0.2,7-0.3,10.4-0.6c2.4-0.2,4.9-0.4,7.3-0.7c4.7-0.7,8.8-2.8,12.6-5.7c0.6-0.5,1.2-1,1.7-1.4
		c0.9,0.4,0.6,0.8,0.3,1.2c-2,2.5-4.5,4.4-7.3,5.9c-3.1,1.6-6.5,2.6-10,2.8c-3.7,0.2-7.4,0.1-11.2,0
		C259.5,111.3,258.2,111.1,257,110z"/>
	<path d="M274.3,89c-1.1-2.4-1.6-4.6-0.4-7.5c1.5,2.5,1.8,4.6,1.5,6.9C275.3,88.6,274.7,88.8,274.3,89z"/>
	<path d="M250.9,104.4c1.4-1.5,3.8-3.2,5.3-3.5c0.3-0.1,0.7,0.2,0.8,0.4c0.1,0.2,0.1,0.8,0,0.9c-1,0.6-2,1.2-3,1.7
		C252.6,104.6,252.6,104.5,250.9,104.4z"/>
	<path d="M296.1,100.3c2-0.9,3-0.1,4.3,2.8c-0.4,0.5-0.8,0.3-1.1,0C298.2,102.3,297.3,101.4,296.1,100.3z"/>
	<path d="M276.8,75.7c0.1,0.2,0.2,0.4,0.2,0.5c-0.1,0.1-0.4,0.2-0.6,0.3c-0.1-0.2-0.1-0.4-0.2-0.6C276.4,75.8,276.6,75.8,276.8,75.7
		z"/>
	<path d="M278.1,71.7c-0.1,0-0.3,0.1-0.4,0.1c0-0.2,0-0.4,0-0.5c0-0.1,0.1-0.1,0.2-0.1C277.9,71.3,278,71.5,278.1,71.7z"/>
	<path d="M231.8,71.4c-1.9,0.1-3.9,0.3-6,0.4c0.3-1.3,1.3-1.7,2.2-1.7c1.7-0.1,3.1-0.9,4.5-1.7c2.3-1.3,4.6-2.8,6.8-4.2
		c0.8-0.5,1.5-1.1,1.9-1.5c0-1.9-1.2-3.2-0.1-4.5c0.8-0.3,1,0.3,1.4,0.8c0.5-0.2,1-0.3,1.7-0.6c0.4,3.8-2.1,6-4.6,8.2
		c0.1,0.8,0.1,1.6,0.2,2.4c-0.5,1.4-1.8,2.2-3,2.7c-1.7,0.7-3.6,1-5.4,1.4c-0.2,0-0.5-0.3-0.8-0.5C231.1,72.2,231.4,71.7,231.8,71.4
		c0.6,0,1.2,0.1,1.4-0.8c1.6,0,2.7-0.7,3.5-2.1c0.1,0,0.2-0.1,0.3-0.1c0,0,0-0.1,0-0.2c-0.1,0.1-0.2,0.3-0.2,0.4
		c-1.5,0.1-2.7,0.8-3.6,2C232.6,70.6,232,70.5,231.8,71.4z"/>
	<path d="M194.7,86.9c-1.3-2.1-1.8-4.4-1.7-7.1c0.5,0.2,1,0.2,1,0.4c0.3,0.8,0.4,1.6,0.6,2.3c0.2,0.8,0.3,1.6,0.5,2.2
		c1.5,0.8,3.4-0.8,4.7,1c-1.9,0.4-3.5,0.7-5.2,1L194.7,86.9z"/>
	<path d="M256,75.4c-1.3,1.3-3.1,1.4-4,2.9c-0.2,0.3-0.9,0.3-1.3,0.2c-1.7-0.2-2.3-1.5-1.5-3.7c0.5,0.6,0.9,1.1,1.4,1.7
		c0.9-0.3,1.8-0.8,2.8-1C254.2,75.4,255.1,75.5,256,75.4z"/>
	<path d="M203.7,86.8c0.2,0.1,0.3,0.1,0.5,0.2C203.7,87.5,203.7,87.1,203.7,86.8L203.7,86.8z"/>
	<path d="M203.8,86.8c-0.1-0.1-0.2-0.2-0.3-0.2c0.1,0,0.2,0,0.2,0C203.7,86.6,203.7,86.7,203.8,86.8L203.8,86.8z"/>
	<path d="M315.2,53.1c0.7-1.5,0.7-1.5,1.5-1.9c0.6,0.4,0.1,0.8-0.1,1.1C316.4,52.5,316.1,52.6,315.2,53.1z"/>
	<polygon points="320.7,48.6 320.5,48.6 320.5,48.4 	"/>
</g>
</svg>
