<?xml version="1.0" encoding="utf-8"?>
<!-- Generator: Adobe Illustrator 19.2.0, SVG Export Plug-In . SVG Version: 6.00 Build 0)  -->
<svg version="1.1" id="Layer_2" xmlns="http://www.w3.org/2000/svg" xmlns:xlink="http://www.w3.org/1999/xlink" x="0px" y="0px"
	 viewBox="0 0 900 600" style="enable-background:new 0 0 900 600;" xml:space="preserve">
<g>
	<path d="M579.1,522.9c0.2-0.4,0.4-0.8,0.6-1.2c2.5,0.3,4.1,1,5.8,2.6c1.2,1.1,2.3,2.2,3.5,3.3c0.2,0.2,0.5,0.5,0.6,0.8
		c0.8,2.3,2.7,3.3,4.6,4.4c5.8,3.4,11.8,6.1,18.2,8c1.4,0.4,2.9,0.6,4.4,0.9c2.2,0.3,3.9,1.3,4.6,3.6c0.4,1.2,0.9,2.3,1.3,3.5
		c0.2,0.5,0.3,1.2,0.1,1.7c-0.7,1.3,0.3,2.2,0.6,3.3c-0.3,1.4-1.1,2.3-2.3,3.2c-1.7,1.2-3.4,2.3-4.8,3.9c-1.2,1.4-3.2,1.9-5,1.9
		c-3.6,0-7.1-0.1-10.7-0.3c-5.6-0.3-11.2-0.7-16.8-1.1c-0.8,0-1.6,0.1-2.4,0.2c-2.5,0.2-5,0.5-7.5,0.7c-1.4,0.1-2.7,0.1-3.9,0.9
		c-0.6,0.4-1.5,0.4-2.3,0.4c-2.6-0.1-5.3-0.2-7.9-0.6c-4.9-0.7-9.6-2.3-14.1-4.4c-2.5-1.2-3-2.3-2.2-5c0.6-2.1,0.7-4.3,2.2-6.1
		c0.5-0.5,0.4-1.5,0.5-2.3c0.4-3.5,0.9-7.1,1.2-10.6c0.3-3.2,1.6-5.9,3.8-8.5c1.1,0.5,2.3,1,3.4,1.4c0.6-1.6,0.7-2.7,0.3-4.5
		c-0.7-3.2-1-6.4-1-9.6c0.1-3.4-0.7-6.6-2.1-9.7c-0.5-1.3-1.1-2.5-1.7-3.8c-0.4-1.1-1.1-2.2-1.1-3.2c0-2.3-1-4.2-1.9-6.2
		c-2.6-5.4-4.7-11-5.9-16.9c-0.2-1-0.7-1.9-1-2.9c-0.5-1.9-1.1-3.7-1.5-5.7c-0.2-1.3-0.1-2.7,0-4.1c0.1-0.9,0.5-1.8,0.5-2.7
		c0-1.4-0.2-2.9-0.4-4.5c-0.4,0.4-0.8,0.5-0.9,0.8c-2,4.9-5.4,8.8-8.2,13.1c-0.2,0.3-0.4,0.6-0.6,0.8c-3.6,2.4-6.1,5.8-8.7,9.1
		c-3.5,4.3-7.3,8.3-11.9,11.4c-0.5,0.3-1,0.6-1.4,1.1c-3.3,3.4-6.6,6.7-9.8,10.2c-1.7,1.8-2.8,3.9-3.8,6.1c-0.5,1-1,2.1-1.7,3
		c-2,2.5-4,5-6.2,7.4c-1.5,1.6-3.1,3-4.8,4.4c-1.8,1.6-3.7,3.1-5.5,4.7c-0.4,0.4-0.7,0.9-0.9,1.4c-1.1,2.4-2.1,4.8-3.3,7.2
		c-3.6,7.4-7.2,14.9-10.7,22.1c0.3,1.1,0.7,1.8,0.7,2.6c0,0.6-0.4,1.3-0.7,1.9c-0.3,0.6-0.8,1.2-1.1,1.7c-1.1,1.9-2.2,3.8-2.5,6
		c-0.6,4.7-3.2,8.3-6.1,11.7c-0.8,1-1.8,1.8-2.7,2.6c-0.8,0.7-1.4,1.4-1.9,2.3c-0.4,0.9-1.2,1.7-2.1,2.2c-1.8,1.2-3.8,2.2-5.7,3.1
		c-1.3,0.7-2.7,1.2-4.1,1.7c-0.5,0.2-1.1,0.4-1.7,0.4c-3.3,0-6.6-0.2-9.8-1.3c-5.2-1.7-9.3-5-12.9-8.9c-1.9-2-3.3-4.4-4.7-6.7
		c-0.7-1.1-1-2.6-1.1-3.9c-0.2-2.3-0.1-4.6-0.1-6.9c0-0.5,0.1-0.9,0.2-1.4c1.5-4.2,2.9-8.4,4.6-12.6c1.2-3.1,2.9-6,5.3-8.4
		c0.4-0.4,0.8-0.9,1-1.4c0.9-2.8,2.8-5,4.5-7.3c2.7-3.8,5.4-7.7,8.2-11.5c-0.3-0.4-0.5-0.8-0.7-0.9c-4.6-2.9-8.7-6.4-12.6-10.2
		c-5.2-5-10.5-9.9-16.4-14.3c-1.5-1.1-3-2.2-3.9-3.8c-0.2-0.3-0.5-0.5-0.7-0.7c-3.5-2.6-7-5.2-10.6-7.7c-0.4-0.3-0.8-0.5-1.2-0.5
		c-1.3,0-2.1-0.9-3-1.5c-9.2-6.6-18.1-13.7-27.1-20.7c-0.3-0.2-0.6-0.4-0.8-0.7c-4-4.9-9-8.4-14.3-11.8c-2.1-1.4-4.2-2.9-6.4-4.4
		c-0.5,0.5-1.2,1-1.6,1.6c-1.2,1.7-2.4,3.3-3.5,5.1c-1.2,1.8-1.9,3.9-3.7,5.4c-0.6,0.5-0.8,1.4-1.2,2.1c-1.7,2.9-3.3,5.8-5,8.6
		c-1.3,2.1-2.9,4.2-5.2,5.4c-0.8,0.4-1.4,1.2-1.8,2c-1.7,2.8-3.1,5.8-4,9.1c-0.5,1.8-1.2,3.5-1.9,5.2c-1.3,3.3-2.6,6.6-4,9.9
		c-1.6,3.9-3.7,7.6-6.1,11.2c-2,3.1-4.2,6-6.4,9c-3.1,4.4-5.5,9.2-7.7,13.9c0.3,1,0.9,1,1.5,1.1c3.8,0.7,7.6,1.6,11.6,1.2
		c0.9-0.1,1.8,0,2.8,0c3.5-0.1,6.8,0.3,10,2c1.2,0.6,2.6,0.7,4,1.1c1.5,0.4,3.2,0.3,4.7,1.5c0,0.6,0.2,1.3,0.1,1.9
		c-0.2,1.5-0.8,2-2.2,2.2c-0.3,0-0.7,0.1-1,0.1c-4.5,0.1-8.9,0.2-13.7,0.4c-0.3,0.4-0.9,1-1.4,1.6c-2.5,0.2-8.3-0.3-10.6-0.7
		c-1.2-0.2-2.6-0.5-3.7-0.1c-3.8,1.2-7.2,0.6-10.7-1.4c-1.3,2.3-2.3,4.7-2.2,7.4c1.8,1.1,3.8,1.2,5.7,1.3c1.3,0.1,2.5,0,3.8,0.1
		c0.9,0,1.8,0.1,2.5,0.8c0.4,0.4,1.3,0.4,1.9,0.5c1.5,0.1,3,0,4.3,0c2.1,2.5,2.1,2.6,5,2.9c1.7,0.2,3.1,1.1,4.4,1.8
		c1.6,0.9,3.3,1.5,5.1,1.8c0.8,0.1,1.9,0.1,2.3,1.2l0.1,0c-1.7,1-1.7,1.7,0,2.8l0,0c-0.4,1.1-1.3,1.5-2.3,1.7c-1,0.2-2,0.3-3,0.4
		c-1,0.1-2,0.3-3,0.5c-2.6,0.5-5.2,0.7-7.7-0.5c-1-0.5-2.1-0.9-3.3-0.7l-0.1-0.1l0.2,0c0,1-0.4,1.8-1.5,1.9c-2,0.2-3.9,0.3-5.7-0.7
		c-3.6-2-7.5-1.7-11.4-1.8c-0.4,0-0.9,0.1-1.3,0.3c-2.2,0.9-4.3,0.4-6.2-0.8c-0.9-0.5-1.7-1.2-2.6-1.6c-1.2-0.5-1.7-1.4-1.8-2.6
		c0-0.2,0-0.5,0-0.7c0.2-3.1,0.4-6.2,0.6-9.2c0-0.2,0.2-0.5,0.2-0.6c-1.1-2.5,0-4.8,0.6-7c2-8.5,4.3-16.9,6.5-25.3
		c2.1-8.1,5.1-16,8.4-23.6c0.1-0.2,0.1-0.5,0.3-0.6c2.6-2.9,3.4-6.7,5.3-10c0.8-1.2,1.2-2.7,1.6-4.2c1-3.2,1.8-6.4,2.7-9.6
		c1.1-4.1,2.5-8.1,4.5-11.9c0.3-0.5,0.7-1.1,0.6-1.6c-0.4-2.3,1-3.9,1.9-5.7c3.7-7.1,8.1-13.9,12.8-20.4c1.1-1.5,1.9-3.1,2.1-5
		c0.3-2.5,1-4.9,1.1-7.5c0-1.3,0.8-2.6,1.4-3.8c1.7-3,4-5.6,6.5-8c3-2.8,6-5.7,8.8-8.5c0.3-2.5,0.6-4.8,0.8-7.2
		c0.1-1.4,0.3-2.7,0.1-4.1c-0.6-7.3-1.6-14.6-1.8-21.9c-0.1-2.9-1.1-5.4-2.9-7.5c-0.7-0.8-1.3-1.6-2-2.4c-2.8-3.3-5.1-6.8-5.8-11.6
		c-0.5,0.7-0.8,1-0.9,1.3c-1.5,5.5-1.8,11.1-1.2,16.7c0.5,4.6,0.9,9.1,1.3,13.7c0.3,3.8,0,7.6-1.1,11.2c-0.4,1.2-0.6,2.4-1.9,3.4
		c0.3-2,0.5-3.8,0.7-5.6c0.4-3.2,0.4-6.4,0.1-9.6c-0.2-2.5-0.3-5-0.4-7.6c0-0.6,0-1.2-0.2-1.7c-1.3-3.3-1-6.8-1.5-10.2
		c-0.3-1.9,0.2-3.8,0.9-5.7c1.4-3.6,2.4-7.4,3.6-11.1c0.3-1,0.3-2,0.3-3.1c0.2-2.3,0.2-4.6,0.7-7c0.8,0.1,1.6,0,2.1,0.3
		c2.8,2.4,6.1,4.1,9.2,6c0.1,0.1,0.2,0.4,0.2,0.6l0.1-0.1c-1,0.3-1.7-0.5-2.5-0.8c-1-0.4-1.8-1.4-3.1-1.2c0-0.1,0-0.2,0-0.3
		c0-0.1-0.1-0.1-0.2-0.1c0.1,0.1,0.2,0.2,0.3,0.3c1.1,2,3,3,4.8,4.2c0.8,0.6,1.7,1,2.5,1.9c-0.6-0.1-1.2-0.1-1.8-0.2
		c-1.2-0.2-2.2-1.3-3.5-0.9c0.1,0-0.1-0.2,0.1-0.1c1.3,1.2,2.6,2.4,3.8,3.7c0.4,0.4,0.6,0.8,1,1.2l0.1-0.1c-4.9-1.7-8.4-5-10-10.1
		c-0.4-1.2-0.2-2.6-1.5-3.5c-1,1.6-1.1,3.4-0.5,4.9c0.7,1.8,0.7,3.6,1,5.4c0.2,1.5,0.5,2.9,0.9,4.4c0.2,0.6,0.8,1.1,1.2,1.6l0.1-0.1
		c-0.6,0.3-0.9,0.8-0.7,1.4c0.8,2.6,1.6,5.2,3.7,7.3c1.2,1.2,2.2,2.6,3.3,4c1.1,1.4,1.6,3,1.9,4.8c0.5,2.8,0.9,5.7,1.2,8.5
		c0.4,4.5,0.7,8.9,1,13.4c0,0.6,0.1,1.1,0.1,1.9c0.7,0.1,1.3,0.2,2,0.3c4.2,0.3,8.5,0.5,12.7,0.9c2.7,0.3,5.3,1.4,7.9,2.5
		c0.6,0.3,1.3,0.5,1.9,0.9c4,2.5,8.3,3.7,12.9,4.4c2,0.3,4,0.9,5.6,1.2c1.5-0.5,2.7-0.8,4-1.2c-0.4-0.4-0.8-0.8-1.3-1.1
		c-1.8-1-3.7-1.9-5.5-2.8c-2.4-1.2-4.7-2.3-7.1-3.5c-0.5-0.2-1-0.4-1.7-0.7c0,0.7-0.1,1.2-0.1,1.8c-1.4-0.2-2.2-0.9-2.8-2.2
		c-0.7-1.3-1.5-2.6-2.2-3.9c-0.5-0.9-1-1.8-1.5-2.7c-1.5-3.3-1.4-6.4,0.6-9.4c1.1-0.8,2.2-0.6,3.4-0.4c3.3,0.5,6.6,0.7,9.9,0.5
		c0.8,0,1.5-0.4,2.2-0.6c0.2-0.9,0.5-1.5,0.4-2.2c-0.3-2.1-0.2-4.1,1.1-5.9c0.2-0.2,0.2-0.7,0.2-1c0.1-0.9-0.7-1.6-1.5-1.4
		c-0.7,0.2-1.3,0.5-2,0.6c-0.4,0-0.8-0.2-1.5-0.5c0.6-0.5,0.9-0.9,1.3-0.9c1-0.3,2-0.3,3-0.6c1.1-0.3,1.5-0.8,1.4-2
		c-0.1-0.7-0.3-1.3-0.3-1.6c-0.5-1.1-1.8-0.8-1.8-1.9l-0.1,0.1c1.9-0.5,3.8-0.9,5.6-1.4c1-0.3,1.5-1,1.3-2.1l-0.1,0.1
		c1.4,1.1,1.5,2.1,0.2,2.7c-1.1,0.5-2.3,0.9-3.7,1.5c-0.1,0.6-0.4,1.3-0.2,1.9c0.8,1.7,0.1,2.9-1.3,4c1.5,2,0.7,3.7-0.5,5.1
		c0.1,2,0.7,3.9-0.1,5.6c-1.4,1.5-3.1,2.1-5,2.1c-2.2,0-4.4,0.2-6.5,0c-1.3-0.1-2.6-0.6-4.1-1c-0.3,0.5-0.6,1-0.7,1.5
		c-0.2,1.8,0,3.7,0.6,5.4c0.3,1,0.6,2,0.9,3.1c5.3,2.9,11,5.5,16.8,7.5c4,1.4,8,2.7,11.9,4.6c1.2,0.6,2.6,0.7,3.9,1.2
		c2.9,1.2,5.7,2.5,8.5,3.8c2.4,1.1,4.6,2.6,6.3,4.7c1.2,1.4,2.2,3,2.7,4.8c0.6,1.9,0.9,4,2.1,5.7c0.8,1.1,0.7,2.7,0.5,4
		c-0.3,2.3-0.7,4.5-1.2,7.1c0.7,1.2,2,2.3,3,3.7c1.5,1.9,3,3.8,4.4,5.8c0.5,0.7,0.9,1.8,0.7,2.5c-0.3,1.3,0.2,2.3,0.9,3.2
		c2.2,2.6,4.3,5.4,6.7,7.8c3.1,3.1,6.5,5.8,10.5,7.8c2.7,1.3,5.2,3,7.7,4.4c0.5,0.3,1.1,0.7,1.6,0.5c1.4-0.5,2.4,0.3,3.6,0.6
		c2.4,0.8,4.8,1.4,7.3,2c0.3,0.1,0.7,0,1.2-0.1c0.2-0.6,0.5-1.2,0.7-1.8c1.7-6.2,3.2-12.5,5.1-18.6c5.3-16.4,12.2-32.2,21.2-47
		c2.1-3.4,4.4-6.7,6.6-10.1c0.2-0.4,0.6-0.8,0.6-1.2c0.2-1.9,1.6-3,2.9-4.1c2.2-1.7,4.5-3.2,7.4-3.6c0.7-0.1,1.4-0.3,2-0.5
		c3.6-1.4,7.2-1,10.9-0.5c2.9,0.4,5.4,1.3,7.7,3.3c1.8,1.6,3.7,3.1,5.2,5c2,2.6,4,5.1,5.9,7.6c0.9,1.2,1.6,2.5,0.9,4.1
		c1.5,2.7,3.5,4.9,5.5,7.1c0.9,1,1.9,1.2,3.1,0.8c0.2-0.1,0.4-0.2,0.5-0.4c0.6-2.3,2.3-3.3,4.6-3.5c1.6-0.1,3.2-0.2,4.8-0.1
		c3.1,0.4,6.2,0.2,9.2-0.8c3.6-1.2,7.2-2.3,10.8-3.5c1.9-0.6,3.8-0.9,5.7-0.6c3.5,0.7,5.7,3,6.6,6.4c0.7,2.6,0.7,5.2-0.3,7.8
		c-0.5,1.3-1,2.6-1.5,3.9c-0.7,1.7-1.3,3.5-3.1,4.4c1,1.7,1.6,3.5,1.8,5.3c0.2,3.9,0.4,7.8,0.6,11.7c0,0.8,0,1.7-0.4,2.3
		c-0.6,1-0.6,1.9-0.5,2.9c0.2,1.6,0.4,3.2,0.6,4.8c0.2,1.5,0.5,2.9,0.1,4.4c-0.2,0.6,0,1.4,0,2c0.5,7.3,0.7,14.7,0.4,22
		c-0.1,1.9-0.3,3.9-0.5,5.8c-0.6,5.6-0.4,11.2,0.1,16.9c0.8,8.8,2.9,17.4,4.5,26.1C578,521.9,578.1,522.8,579.1,522.9
		c0.5,0.8-0.7,1.6-0.1,2.5c1.2,1.9,0.4,3.5-0.9,4.9c-1.5,1.4-3.2,2.6-4.7,4c-2.7,2.7-6.1,3-9.3,2c-4.8-1.4-9.5-3.5-12.4-8.1
		c0-0.1-0.2-0.1-0.5-0.2c-1,1.3-1.4,2.8-1.6,4.3c-0.5,3.9-1.5,7.7-1.1,11.6c0,0.5,0,0.9,0,1.4c-0.1,1.5-0.3,3-1.5,4.1
		c-0.7,0.6-0.8,1.4-0.9,2.2c-0.3,2.1-0.3,2-1.4,3.9c0.7,0.4,1.3,0.8,2,1.2c3.5,1.7,7.3,2.8,11.1,3.7c3.3,0.8,6.6,1.3,10.1,0.4
		c3.4-0.9,7-0.9,10.6-1.4c1.8-0.2,3.6-0.8,5.4-0.7c4.8,0.1,9.7,0.3,14.4,0.9c4.1,0.5,8.2,0.4,12.4,0.5c1.2,0,2.3-0.2,3.2-0.9
		c2-1.4,4-2.7,5.8-4.3c0-2,0.6-3.8,0.3-5.9c-0.5-3.1-2.2-4.8-5.1-5.2c-3.2-0.4-6.2-1.8-9.2-2.6c-0.7-0.2-1.5-0.5-2.1-0.8
		c-0.4,0.7-0.7,1.4-1.2,1.8c-0.2,0.2-0.9,0.3-1.2,0.2c-0.3-0.2-0.6-0.8-0.6-1.1c0.1-0.6,0.4-1.2,0.7-1.9c-0.6-0.2-1.1-0.4-1.7-0.6
		c-0.5,0.9-0.9,1.7-1.4,2.5c-0.4,0.6-1.3,0.9-1.8,0.5c-0.4-0.3-0.7-0.9-0.9-1.4c-0.1-0.3,0-0.7,0.1-1c0.2-0.8,0.5-1.5,0.8-2.3
		c-0.7-0.4-1.2-0.8-1.9-1.2c-0.5,1.1-0.8,2.1-1.3,2.9c-0.5,0.7-1.1,1.4-1.9,1.9c-0.9,0.6-2.2-0.3-2.1-1.4c0.1-0.6,0.3-1.1,0.4-1.7
		c0.4-1.4,0.9-2.8,1.3-4.1c-0.7-0.9-1.3-1.5-2.3-1.7c-0.9,1.1-1.7,2.2-2.6,3.2c-0.7,0.9-1.6,1.6-2.8,1.9c-1.2,0.3-2.5-0.9-2-2
		c0.4-1.1,1.1-2,1.6-3c0.8-1.4,2-2.5,2.4-4.2C583.9,525.6,581.8,523.9,579.1,522.9z M371.8,398.7c-0.2-0.1-0.5-0.1-0.7-0.2
		C371.3,398.6,371.6,398.6,371.8,398.7c0.2,0.1,0.4,0.3,0.2,0.1C372.3,399,372,398.8,371.8,398.7z M353,385c0.2,0.1,0.3,0.3,0.5,0.4
		c0.1,0,0.3-0.2,0.4-0.2c-0.1,0-0.2-0.1-0.3-0.1C353.4,385,353.2,385.1,353,385c-0.3-1.2-1.2-1.3-2.5-1.3
		C351.1,385.1,352,385.3,353,385z M428.8,458.6l0.1,0.1c-1.8-2-4.4-2.7-6.6-4.2c-0.2-0.2-0.7-0.2-1-0.1c-0.9,0.3-1.6-0.1-2.2-0.6
		c-1.3-1.3-2.7-2.5-3.9-3.9c-2.3-2.8-4.5-5.8-6.7-8.7c-0.9-1.1-1.5-2.2-1.8-3.7c-0.5-3.2-2.7-5.4-4.7-7.9c-0.9,1.7-1.6,3.3-2.6,4.6
		c-1,1.4-2,2.8-3.3,4c-2.2,2.1-4.4,4.4-7,6.1c-4.1,2.9-8.4,5.6-12.8,8c-5.2,2.9-10.5,5.6-15.8,8.3c-0.7,0.4-1.3,0.8-2.2,1.3
		c0.5,0.6,0.9,1,1.3,1.4c5.7,5.1,11.6,10.1,17.7,14.7c0.9,0.7,1.9,1.3,2.9,1.9c6.1,3.7,11.9,7.8,17.3,12.5
		c5.3,4.6,10.2,9.6,15.3,14.4c0.9,0.9,1.9,1.7,2.9,2.3c0.8,0.5,1.5,0.9,2,1.8c0.5,0.9,1.2,1.6,2.6,1.9c-0.4-2.2,0.6-4.3-0.5-6.2
		c-0.2-0.5-0.2-1.1-0.1-1.7c0.2-2.7,0.2-5.5,0.6-8.2c0.8-5.9,2.6-11.6,4.7-17.2c2.2-5.7,5.1-11,9.1-15.7c0.4-0.5,1.1-0.9,0.9-2.1
		C432.9,461,431.1,459.4,428.8,458.6z M334.4,438c1.1,0,2.3,0,3.4-0.1c3.4-0.4,6.5-1.4,9-3.9c0.4-0.4,0.5-1.1,0.7-1.8
		c-0.8-0.2-1.3-0.3-1.8-0.5c-0.1-0.1-0.3-0.4-0.2-0.6c0-0.2,0.2-0.5,0.3-0.5c0.9-0.1,1.7-0.2,2.7-0.3c2-2.6,3.6-5.4,5-8.5
		c0.7-1.5,1-3,0.9-4.7c-0.2-2.7-0.3-5.5-0.1-8.3c0.1-1.3-0.2-2.2-0.8-3.2c-4-5.8-9.2-9.9-16-11.7c-4.4-1.1-8.9-2.2-13.7-2.5
		c-0.9,0.5-1.9,1-2.8,1.5c-0.4,3.2-1.5,5.9-4,7.8c-0.4,0.3-0.8,0.8-1.1,1.3c-0.6,1.3-1.7,2.2-2.7,3.1c-1.3,1.1-2.7,2.2-3.9,3.4
		c-4,4-6.9,8.6-7.4,14.4c-0.2,2.3-0.5,4.5-0.8,6.7c-0.8,0.7-1.7,1.3-2.3,2.1c-1.9,2.7-3.7,5.5-5.5,8.3c-0.3,0.5-0.7,1.1-0.6,1.6
		c0.4,2.3-0.6,4.5-0.6,6.8c0,0.3-0.4,0.7-1,1.5c-0.2-2-0.3-3.4-0.4-4.9c-1.1,0.6-1.2,1.5-1.6,2.4c-1.4,3.4-2.8,6.8-4.5,10.1
		c-1.1,2.2-2.2,4.3-2.9,6.6c-1.2,4-2.3,7.9-3.4,11.9c-0.5,1.8-0.9,3.6-1.3,5.3c-0.6,0.3-0.7,0.8-0.2,1.7c0.1-0.8,0.1-1.3,0.1-1.8
		c0.8-0.1,0.7-1.6,1.8-1.2c0.1,0.2,0.3,0.4,0.2,0.6c-0.4,1.4-0.9,2.8-1.4,4.2c-0.1,0.1-0.4,0.2-0.6,0.3c-0.3-0.3-0.7-0.5-1.2-0.9
		c-0.7,1.2-1.3,2.4-1.9,3.6c-1.3,2.7-2.5,5.4-3.8,8.1c-1.8,3.8-3.2,7.8-4.6,11.8c-1,2.9-2,5.8-3.1,8.8c-2.2,6.4-3.6,13-5.2,19.6
		c-0.6,2.3-1.1,4.7-1.6,7c-0.6,3.4-0.8,6.8-1.3,10.2c-0.2,1.2,0.7,1.9,0.8,2.4c-0.3,1.3-0.9,2.2-0.8,3c0.4,2.4,3.6,5.1,6.1,5.3
		c2.4,0.2,4.8,0.6,7.2-0.1c0.5-0.1,1.1-0.1,1.7,0c2.3,0.3,4.5,0.6,6.6,1.8c0.6,0.3,1.3,0.5,2,0.6c0.4,0.1,0.9,0.2,1-0.4
		c-0.5-0.5-1.1-0.9-1.4-1.5c-0.9-1.7-2.3-2.4-4.1-2.7c-1.2-0.2-2.4-0.8-3.6-1.3c-0.1,0-0.2-0.3-0.2-0.5c0.1-0.1,0.2-0.2,0.3-0.2
		c2.1,0.4,4.2,0.7,6.3,1.2c0.5,0.1,1,0.6,1.4,1c1.1,1.4,2.6,1.9,4.1,2.2c1.3,0.3,2.7,0.5,4,1c2.5,1,5.1,1.3,7.7,0.5
		c0.5-0.1,1.1,0,1.6,0.2c1.8,0.4,3.3-0.1,4.6-1.4c-0.4-1.2-1.5-1.3-2.3-1.4c-3.6-0.8-7.1-1.8-10.5-3.1c-1-0.4-2-0.5-3-0.7l0.1,0.1
		c-0.4-0.5-0.8-0.9-1.6-1.8c1.6,0.1,2.6,0.2,3.7,0.3c0.2,0.5,0.4,0.7,0.9,0.2c-0.4,0-0.7-0.1-1-0.1c-1.1-1.1-2.2-2.3-4-2.4
		c-2.5-0.2-5-0.3-7.5-0.6c-1.5-0.1-2.9-0.4-4.4-0.7c-0.8-0.1-1.6-0.5-2.4-0.5c-0.7,0-1.4,0.3-2.4,0.6c0-0.6,0.1-1.1-0.1-1.5
		c-1-2.2-0.5-4.3,0.4-6.3c1.3-3.3,2.8-6.5,4.2-9.8c0.5-1.2,1.2-2.2,1.6-3.4c2-5.9,5.1-11.3,7.9-16.8c2.3-4.5,4.4-9.1,6.5-13.6
		c0.2-0.4,0.3-0.9,0.4-1.3c1-3.4,2-6.8,3-10.2c0.4-1.4,0.8-2.8,1.2-4.3c1,1,1,1,1,1.4c-0.1,1-0.3,2-0.4,3.2c0.5-0.5,0.8-0.6,1-0.9
		c2.3-3.9,5.4-7.4,7.4-11.6c2.1-4.2,4.5-8.2,6.9-12.3c1.3-2.3,2.9-4.4,4.4-6.6c1.8-2.5,4.3-4.5,5.4-7.5c0.1-0.3,0.4-0.6,0.6-0.8
		c3-3.9,6.3-7.6,10.1-10.8c2-1.7,4.2-3.2,6.4-4.6c1.6-1.1,3.5-1.8,4.9-3.1c0.5-0.4,1.2-0.7,1.8-0.9c0.3-0.1,0.7,0.1,1.4,0.3
		c-1.3,1.5-2.6,2.3-4,3.1C336.3,436.5,335,436.7,334.4,438c-2.3,0.5-3.8,2.2-5.5,3.9c2.8,2.1,5.6,3.9,8.5,5.6
		c1.5,0.9,3.2,1.6,4.3,2.8c1.5,1.8,3.5,2.9,5.2,4.4c1.4,1.2,2.7,2.5,4.1,3.7c1.4,1.2,2.7,2.5,4.2,3.2c0.4-0.1,0.7,0,0.9-0.1
		c4.8-2.5,9.6-4.9,14.4-7.4c0.4-0.2,0.8-0.5,1.1-0.8c3.1-2,6.2-3.9,9.3-6c3-2,6-3.8,8.8-6c4.7-3.7,9-7.8,11.3-13.5
		c-0.1-0.3-0.2-0.6-0.3-0.7c-1.7-1.6-1.8-3.6-1.2-5.7c0.1-0.3,0.2-0.7,0.2-1c0.6-2.6,0.6-5.2-0.8-7.7c-0.6-1.1-1-2.3-1.4-3.5
		c-1.2-3.2-3.3-5.8-6.1-7.7c-2.2-1.5-4.4-2.8-6.7-4.2c-0.4-0.2-0.8-0.4-1.3-0.5c-2.2-0.2-4.2-1.2-6.2-2c-2.5-1-5.1-1.9-7.7-2.8
		c0.9,1.3,2,2.1,3.3,2.8c1.7,0.9,3.3,2.1,4.8,3.3c0.7,0.5,0.5,1.6-0.3,2c-1.7,1.1-3.5,1.6-5.6,0.8c-1.2-0.5-2.3-0.9-3.5-1.3
		c-4.2-1.3-8.3-2.7-12.6-3.6c-2.7-0.5-5.3-1.2-7.8-2.4c-2.7-1.2-5.5-2.4-8.3-3.4c-1.3-0.5-2.6-0.9-4-1.1c-3.2-0.5-6.4-0.9-9.5-1.3
		c-1.7-0.2-3.4-0.4-5.2,0.1c-0.3,1-1,2-0.2,3.4c1.7-1.6,3.5-1.9,5.5-1.1c0.4,0.2,0.9,0.1,1.4,0.1c3.5,0.5,7.1,0.9,10.6,1.5
		c5.4,1,9.9,3.6,13.5,7.7c2.4,2.8,4.4,5.9,4.4,9.8c0,0.6,0.1,1.2,0.4,1.7c1.9,4.1,0.8,8.3-0.7,12c-1.6,4-4,7.8-6.8,11.1
		c-3.3,3.9-7.7,5.6-12.9,5C335,439.3,334.7,438.7,334.4,438z M451.6,460.7c0.4,0.2,0.9,0.3,1.2,0.6c0.4,0.5,0.6,1.2,0.9,1.8
		c3.1,6.8,7.2,12.8,12.5,18c4.8,4.7,9.7,9.4,15.6,13c2.2,2.3,5.3,3,8.1,4.4c0.2-0.5,0.3-0.8,0.4-1.1c0.5-4.6,1.6-9.1,3.1-13.4
		c2.6-7.3,3.8-14.9,4.4-22.6c0.6-7.6,0.9-15.1,1.4-22.7c0.7-9.2,2.7-18.1,6-26.8c0.1-0.3,0.4-0.6,1.1-1.5c-0.1,4.3-1.7,7.6-1.9,11.2
		c0.7,0.3,1.3,0.8,1.9,0.9c2.9,0.5,5.9,1.2,8.8,1.2c3.8,0,7.5-0.8,10.7-3.2c0.7-0.5,1.5-1.1,2.3-1.5c0.9-0.4,1.5-1,1.8-1.9
		c0.6-1.6,1.9-2.2,3.4-2.6c0.5-0.1,1.1-0.3,1.4,0.6c-0.7,0.4-1.4,0.7-2,1.2c-0.6,0.5-1.3,1-1.8,1.6c-2,2.8-4.7,4.7-7.8,6.1
		c-1.2,0.6-2.6,1.1-3.9,1.1c-2.4-0.1-4.5,0.8-6.5,2c-1.3,0.7-2.7,1.3-4,2c-2,1-4.1,2.1-6.1,3.1c-0.2,1.6-0.5,3.1-0.6,4.6
		c-0.3,4.7-0.6,9.4-0.6,14.1c0,6.8-0.5,13.5-1.9,20.2c-0.3,1.7-0.6,3.4-1,5.1c-0.7,3.1-1.5,6.2-2.3,9.3c-0.4,1.4-0.7,2.8-1.3,4.2
		c-0.8,2-1.3,4.1-1.3,6.3c0.6,1,1.1,1.8,2.5,1.9c2.2-2.3,4.4-4.5,6.6-6.9c1.3-1.5,2.8-2.7,4.4-3.8c2-1.4,3.9-2.9,5.6-4.5
		c5-4.8,9.5-9.9,13.8-15.4c1-1.3,1.9-2.6,3.1-3.7c2.8-2.8,4.8-6.1,6.4-9.7c1.8-4.1,4.1-7.9,6.8-11.7c2.2,0.2,3.7-1.1,5-2.5
		c0.6-0.7,1.2-1.4,1.8-2.1c1.5-1.7,3-3.4,4.6-5.1c0.2-0.2,0.5-0.2,1.2-0.5c-0.4,0.8-0.5,1.2-0.8,1.5c-3.1,3.7-6.1,7.4-9.3,11.1
		c-1.1,1.3-2.1,2.6-2.9,4.2c-1.5,3-2.4,5.9-1.7,9.2c0.2,0.8,0,1.6,0.1,2.4c0,1.3,0.1,2.5,0.2,3.8c0.6,5.6,2.4,11,4.1,16.3
		c0.4,1.3,1.1,2.5,1.7,3.8c1.8,4,3.7,7.9,5.5,11.9c0.8,1.9,1.8,3.8,1.5,5.9c-0.1,0.4,0.2,0.9,0.3,1.3c1.4,3.6,1.9,7.3,2.4,11.1
		c0.6,4.3,0.9,8.7,1.2,13c0.1,0.9-0.2,1.8-0.4,2.7c0.6,2.3,2.6,2.9,4.5,3.8c2.5,1.2,5.2,0.8,7.8,0.6c0.4,0,0.9-0.3,1.2-0.6
		c1.6-1.1,3.1-2.3,4.4-3.8c-0.5-0.7-0.9-1.4-1.4-2c0.3-0.8,0.4-1.7,0.8-2.3c0.6-1.1,0.7-2.1,0.5-3.3c-0.6-4.3-1-8.7-1.9-13
		c-1.9-9.3-2.7-18.6-2.5-28.1c0.2-8.2,0.1-16.3,0.2-24.5c0-3.2-0.2-6.4,0.4-9.6c0.1-0.7,0-1.4-0.1-2.1c-0.3-3-0.6-5.9-0.9-8.9
		c-0.1-0.8-0.1-1.6,0-2.4c0.7-4.2,0.3-8.5,0.4-12.2c-1.1-1.9-2.1-3.1-2.6-4.6c-0.6-1.7-1.7-3.1-2.9-4.2c-1.7-1.6-3.6-2.7-6.2-2.5
		c-3.9,0.3-7.8,0.2-11.6-1.1c-2.8,1.7-5.9,2.7-9,3.5c-0.7,0.2-1.3,0.8-2,1.2c-0.2,0.1-0.4,0.1-0.6,0.2c-0.2-0.5-0.4-1-0.7-1.5
		c1.7-1.5,4.1-1.1,5.8-2.5c-0.2-0.6-0.4-1.1-0.6-1.6c-1.1-2.7-3.1-3.9-6-3.6c-0.2,0-0.3,0.2-0.5,0.4c0,0.7,0.7,1.3,0,2
		c-0.3-0.1-0.6-0.1-0.9-0.3c-3.8-2.4-6.4-5.8-8.3-9.9c-0.4-0.9-0.7-1.9-1.3-2.8c-2.4-3.5-4.9-7-7.4-10.4c-0.6-0.8-1.3-1.6-2.1-2.3
		c-4.4-3.5-4.4-3.5-10.1-4.7c-0.3-0.1-0.7-0.2-1-0.2c-1.4-0.3-2.7-0.3-4,0.3c-2.4,0.9-4.8,1.6-7.2,2.2c-3.5,0.9-6.4,2.5-7.9,6
		c-0.2,0.4-0.5,0.8-0.7,1.2c-7.7,12.4-14.9,25-20.3,38.7c-1.6,4.2-3.6,8.2-5,12.5c-2.2,6.8-4,13.7-5.9,20.5
		c-0.2,0.9-0.1,1.8-0.1,2.7c-1,0.6-1,1.8-1.4,2.7c-0.7,1.7-1.1,3.5-3.1,4.3c-0.4,0.1-0.6,0.7-0.9,1c-1,1.3-2,2.5-3.2,4
		c-0.4,5.2-0.9,10.7-1.4,16.2c0,0.3,0,0.7-0.1,1c-0.1,0.3-0.4,0.6-0.8,1.2c-0.9-1.5-0.7-2.9-0.7-4.3c0.1-1.7,0.4-3.4,0.4-5.2
		c0-2,1.1-4,0.4-6.1c0.4-1.5,0.9-3,1.4-4.6c2-1.6,3.3-3.5,4-6c-3.3-0.1-6.3-2.1-9.5-2c-2.1,3.7-4.9,6.6-6.3,10.4
		c0.2,0.5,0.5,1,0.7,1.5c-0.6,0.2-1.1,0.4-1.8,0.6c-0.9,2.5-1.9,4.9-2.7,7.4c-0.9,2.6-1.7,5.2-2.3,7.9c-0.6,2.5-1.7,5-1.6,7.6
		c0.8,0.7,1.5,1.2,2.2,1.8c0.1,0.1,0,0.3,0,0.7c-0.9-0.4-1.7-0.8-2.7-1.2c-0.3,2.4-1.8,4.6-0.1,7c0.2,0.3,0.1,0.9,0.1,1.3
		c-0.2,2,0,4-0.7,6c2.9,1.9,5.7,3.7,8.7,5.1c2.7,1.2,5.6,2.4,8.6,2c4-0.5,7.8,0.1,11.6,1.1c1.6,0.4,3.1,0.6,4.8,0.5
		c1.1-0.1,2.3,0.1,3.4,0.3c2.8,0.6,5.7,0.9,8.6,0.6c1.6-0.1,3.3,0.1,4.8-0.4c1.5-0.5,2.7-1.7,4.1-2.5c1.7-1,3.2-2.2,4.6-3.6
		c1.7-1.8,3.5-3.6,5.4-5.3c1.3-1.2,2.5-2.3,3.3-3.9c-0.2-0.3-0.3-0.6-0.5-1c1-1.1,2-2.1,3-3.3c1-1.2,1.9-2.6,2.9-4
		c-0.6-0.4-1-0.8-1.5-1.2c-0.8,1.2-1.1,2.4-2.2,3.2c-1,0.7-1.4,2-2.2,3.1c-0.7,1-1.2,2.1-2.7,2.8c0.3-2.8,2.3-4.5,2.9-6.9
		c-3.1-1.1-5.9-2.7-8.5-4.5c-1.3-0.9-2.5-2-3.8-2.9c-3.1-2.2-6-4.6-8.7-7.2C460.2,479,454.8,470.5,451.6,460.7z M429.8,523.7
		c-0.6,0.9-1.4,2-2.2,3.1c-4.2,5.8-8.3,11.5-12.5,17.2c-1.6,2.1-3.1,4.3-4.1,6.7c-2.3,5.7-4.1,11.4-5.2,17.4
		c-0.4,2.3-0.1,4.5,1.2,6.3c1.8,2.5,3.4,5.2,5.8,7.2c2.4,2.1,4.9,4.1,7.3,6.2c1.3,1.2,2.9,1.8,4.6,2.3c2.5,0.7,5,0.8,7.5,0.8
		c0.4,0,0.9-0.1,1.3-0.3c1.5-0.6,3-1.1,4.4-1.8c3.1-1.5,6.3-2.7,8.1-6c0.2-0.4,0.7-0.6,1-0.9c1.9-1.6,3.4-3.4,4.7-5.5
		c1.3-2.1,2.9-4.2,3.2-6.8c0.3-2.1,1-4,1.9-5.9c0.3-0.7,0.7-1.6,0.5-2.3c-0.3-1.2,0.1-2.3,0.5-3.3c1.2-3,2.4-6,3.7-8.9
		c3-6.3,6.2-12.6,9.2-18.8c0.5-1,0.9-2.1,1.5-3.4c-1.4,0-2.5-0.1-3.7-0.1c-7.2,0.1-14.2-1-21.1-2.7c-3.7-0.9-7.5-1.1-11.3-0.9
		C434.2,523.5,432.2,523.6,429.8,523.7z M327.2,443c-2.1,2.3-4.2,4.4-6.2,6.6c-0.3,0.3-0.7,0.7-0.8,1.1c-0.4,2.4-2.2,4-3.7,5.7
		c-4.5,5-8.2,10.5-11.1,16.6c-3.4,7.5-8.6,13.9-13.1,20.6c-0.1,0.1-0.2,0.1-0.3,0.2c-0.5,0-1.1,0-1.6,0c-0.2,0.7-0.7,1.5-0.6,2
		c0.5,1.8-0.2,3.4-0.9,4.9c-2.7,5.7-5,11.6-8.1,17.1c-1.4,2.5-2.7,5.1-4,7.6c-1.4,2.6-2.8,5.3-4.2,7.9c-0.5,1-1.1,2.1-0.8,3.3
		c0.3,1.2,0,2.3-0.5,3.3c-0.4,0.8-0.7,1.7-1,2.5c2.2,1.7,3,2,5.4,2c3.7-0.1,7.3-0.5,11,0.5c1,0.3,2.1,0,3.1,0.1
		c1.1,0.1,2.2,0.4,3.5,0.7c0-0.8,0.1-1.5-0.1-2c-0.2-0.4-0.9-0.7-1.4-0.8c-1.1-0.2-2.4,0-3.3-0.6c-2.4-1.3-4.9-1.8-7.5-2.4
		c-0.3-0.1-0.5-0.3-0.9-0.6c0.9-0.7,1.6-0.4,2.4-0.3c3.5,0.5,6.6,2.6,10.2,2.7c0.7,0,1.3,0.8,2.1,1.1c0.5,0.3,1,0.6,1.5,0.6
		c1.7,0.1,3.5,0.4,5.2,0.1c2.4-0.4,4.8-0.4,7.2-0.5c0.6,0,1.3-0.2,2.4-0.4c-0.6-0.5-0.9-0.9-1.3-1c-1.5-0.3-3-0.3-4.4-0.8
		c-1.9-0.7-3.8-0.9-5.7-0.9c-2.3-0.1-4.6-0.3-6.9-0.5c-0.5,0-1.1-0.2-1.1-1.2c3,0.7,6.1,0.8,9.3,0.6c-1-1.1-2-1.3-3.2-1.3
		c-1.8,0-3.7,0-5.5,0c-1.4-0.1-2.7,0.1-3.6,1.2c-4.6-1.1-9-2.2-13.6-3c2.3-5.3,4.7-10.5,7.9-15.2c4-6,8.4-11.8,11.5-18.4
		c0.6-1.2,1.2-2.5,1.7-3.7c1.1-2.8,2.2-5.6,3.3-8.3c1.6-3.8,3.2-7.6,4.8-11.4c1.1-2.6,2.5-5.2,4.6-7.2c2.8-2.5,4.8-5.5,6.6-8.7
		c1.8-3.2,3.5-6.4,5.6-9.5c2-3,4-6.2,6.6-8.7c0.1-0.1,0-0.4,0.1-0.6C327.9,443.6,327.7,443.4,327.2,443z M550.6,407.9
		c1.2,0.1,2.3,0.2,3.4,0.3c1.4,0.1,2.8,0.2,4.1,0c2.3-0.2,4.3,0.4,6.2,1.5c1.3,0.7,2.5,1.6,3.4,2.8c0.8,1,1.4,2.3,2.9,2.9
		c1-2.7,2-5.3,3-7.9c0.7-1.9,0.5-3.9,0.6-5.8c0-0.4-0.2-0.9-0.5-1.3c-0.9-1.2-1.9-2.3-2.9-3.3c-1.3-1.2-2.8-1.3-4.5-0.8
		c-3.9,1.3-7.9,2.5-11.8,3.8c-0.5,0.2-1.2,0.1-1.3,0.8c0.6,0.7,1.2,1.4,1.6,2.2c0.3,0.6,0.5,1.3,0.6,1.9c0.1,0.6-0.2,1.1-1.1,1.2
		c-1.5-1.4-2.5-3.4-4.3-4.6c-0.9,0.1-1.8-0.2-2.1,0.8c0.5,0.8,1.1,1.5,1.5,2.3C550,405.7,550.2,406.6,550.6,407.9z M544.8,401.7
		c-2.2-0.3-4.4-1.3-6.8,0c3.9,2.9,3.9,2.9,5.7,7.7c1.4-0.8,2.8-1.5,4.3-2.4c-0.6-0.9-1.2-1.6-1.6-2.4
		C545.9,403.7,545.5,402.8,544.8,401.7z M510.3,425.4c-2.2-0.3-4.4-0.6-6.6-1c-0.4,1.5-0.6,2.9-0.6,4.5
		C505.6,428.4,508.8,426.9,510.3,425.4z M288.7,559c1.9,0.7,3.4,1.5,5.3,1.6C292.3,559.4,290.9,558.4,288.7,559z"/>
	<path d="M555.7,215.4c0.2-0.4,0.4-0.8,0.7-1.3c2.5,0.5,4.6,1.4,6.4,3.2c0.8,0.8,1.7,1.5,2.6,2.3c0.5,0.5,1.1,0.9,1.3,1.5
		c0.5,1.3,1.5,2,2.6,2.7c3.1,1.8,6.2,3.5,9.6,4.7c0.8,0.3,1.5,0.6,2.2,0.9c3.7,1.6,7.6,2.6,11.5,3.2c5.5,0.8,4.7,0.7,7.1,5.3
		c0.5,1,0.8,2.2,0.9,3.3c0.1,2,0,2,0.7,3.6c-0.3,1.2-0.9,2.2-2,3c-1.7,1.3-3.4,2.6-4.9,4.3c-1.1,1.3-2.9,1.9-4.6,1.9
		c-4,0.1-8,0.1-12.1,0.1c-5.3-0.1-10.6-0.2-15.8-0.3c-0.6,0-1.1,0.1-1.7,0.1c-2.6,0.3-5.2,0.6-7.8,1.1c-1.3,0.2-2.7,0.3-4,1
		c-0.8,0.5-2,0.6-3,0.7c-8.3,0.3-16.2-1.5-23.6-5.2c-1-0.5-2.1-0.9-2.5-2.3c0.6-0.4,1.1-0.7,1.9-1.2c0.2-1.1,0.5-2.3,0.8-3.5
		c0.2-0.7,0.3-1.4,0.7-1.9c1.1-1.4,1.1-2.9,1.2-4.5c0.2-3.4,0.5-6.9,0.7-10.3c0.1-2.1,0.8-4,1.9-5.8c0.4-0.6,0.7-1.2,1.1-1.9
		c-0.5-2.4-1.5-4.5-3-6.5c-2.7-3.7-5.4-7.5-8.8-10.6c-1.3-1.2-2.6-2.6-3.3-4.4c-0.3-0.7-0.9-1.3-1.4-1.9c-1-1.1-2.1-2.2-3.2-3.2
		c-3.7-3.5-7-7.3-9.7-11.6c-0.7-1.2-1.6-2.2-2.6-3.2c-2.5-2.9-4.4-6.1-5.5-9.8c-1.1-3.5-1.8-7.1-2.1-10.8c-0.2-1.7-0.4-3.4-0.6-5.4
		c-4.1,1.6-7.9,3.1-11.1,5.6c-4.3,3.3-8.2,7-11.8,11c-3.9,4.4-7.5,8.9-11.4,13.3c-4.3,4.8-9.3,8.5-15.3,10.8
		c-1.8,0.7-3.2,1.7-4.5,3.1c-1.1,1.3-2.3,2.5-3.6,4c0.5,0.5,0.9,1,1.3,1.5c1.2,1.3,2,2.8,2.2,4.6c0.3,2.8,0.5,5.7,0.6,8.5
		c0.1,2.5-0.5,4.7-2.2,6.7c-0.7,0.8-1.2,1.9-1.7,3c-2.3,4.8-5.1,9.2-8,13.7c-4.2,6.7-8.4,13.4-12.5,20.2c-0.5,0.8-0.7,1.7-1,2.5
		c-0.6,1.7-1,3.5-1.7,5.2c-0.5,1.3-1.2,2.4-1.4,3.9c-0.2,1.3-1.1,2.3-2,3.1c-3.1,3-6.7,5.2-10.5,7.1c-0.6,0.3-1.3,0.4-2,0.4
		c-1.7,0-3.4-0.1-5.2-0.2c-0.8-0.1-1.5-0.3-2.2,0.4c-0.3,0.3-1.1,0.3-1.6,0.2c-1.2-0.3-2.4-0.7-3.6-1.2c-2.7-1.2-5.4-2.5-8.1-3.8
		c-1.7-0.9-3.4-1.9-5-3c-1.4-0.9-2.3-2.3-2.9-3.8c-2.8-6.8-3.2-13.6,0.3-20.3c1.2-2.2,2.2-4.5,3.4-6.7c2.2-3.8,4.8-7.3,7.6-10.6
		c1.5-1.8,3.2-3.6,4.7-5.4c-0.5-0.8-1.1-0.4-1.5-0.4c-0.7-0.1-1.4-0.1-2.1-0.1c-0.6,0-1.1-0.1-1.7-0.2c-0.6-0.1-1.1-0.3-1.7-0.3
		c-4.1-0.5-7.7-2.2-11-4.7c-3.3-2.5-6.4-5.3-9.5-8c-4.1-3.7-8.2-7.4-12.3-11.1c-1.3-1.1-2.8-2.1-4.1-3.2c-1.3-1.1-2.5-2.3-3.8-3.5
		c-0.6-0.5-1.1-1.2-1.7-1.7c-3.1-2.3-6.3-4.6-9.4-6.9c-0.5-0.3-1-0.8-1.5-0.8c-1.7-0.2-2.9-1.3-4.2-2.3c-3.2-2.3-6.3-4.6-9.4-7
		c-3.5-2.7-6.9-5.4-10.3-8.1c-3.2-2.6-6.5-5-10-7.6c-0.9,1.2-0.6,2.6-0.9,3.8c-0.2,1.1-0.4,2.3-0.5,3.4c-0.1,1.3,0.1,2.5,0.1,3.8
		c0,3.4-0.1,6.9-0.2,10.3c0,0.8-0.2,1.6-0.5,2.3c-2.1,6.3-4,12.7-5.6,19.2c-0.8,3.1-1.5,6.2-1.9,9.4c-0.5,4.8-1.3,9.5-1,14.4
		c0.1,1.7,0,3.4,0,5.3c0.7,0.2,1.4,0.6,2.2,0.7c3.9,0.7,7.8,1.7,11.9,1.5c2.3-0.1,4.6,0.1,6.9,0c1.8,0,3.4,0.4,5,1.2
		c2.1,1,4.2,1.9,6.5,2c0.9,0,1.8,0.3,2.7,0.6c1,0.3,1.4,1,1.4,2.1c0,1.5-0.6,2.5-1.7,2.7c-1.1,0.2-2.3,0.1-3.4,0.2
		c-1.7,0.1-3.4,0.2-5.1,0.3c-2.2,0-4.4,0-6.6,0c-0.5,0.6-1,1.2-1.6,1.9c-3.5-0.6-7.2,0.1-10.8-1c-1.1-0.3-2.5-0.2-3.7,0.1
		c-4.3,1.1-8.2,0.5-11.5-2.7c-0.2-0.2-0.5-0.4-1-0.7c-0.7,3.1-1,6.1-0.5,9.1c2,1.2,4.1,1.3,6.1,1.5c1.1,0.1,2.3,0,3.4,0
		c0.6,0,1.3-0.2,1.7,0.1c2,1.6,4.3,1,6.6,1.2c0.3,0,0.7,0.1,1,0.2c1.9,2.3,1.9,2.4,4.8,2.7c1.7,0.2,3.1,1.1,4.4,1.8
		c1.6,0.9,3.3,1.5,5.1,1.8c0.8,0.1,1.9,0.1,2.3,1.2l0.1,0c-1.7,0.9-1.7,1.7,0,2.8l0,0c-0.3,1-1.2,1.5-2,1.6c-3.4,0.3-6.6,1.3-10,1.3
		c-1.4,0-2.7-0.2-4-0.8c-1-0.5-2.1-0.9-3.3-0.7l-0.1-0.1l0.2,0.1c-0.1,0.8-0.2,1.6-1.2,1.8c-1.8,0.3-3.7,0.5-5.4-0.4
		c-3.6-1.9-7.5-2-11.4-2c-0.8,0-1.6,0.2-2.3,0.5c-4.1,1.5-10.6-3.2-9.6-7.9c0.4-1.7,0.4-3.3,1-5c0.6-1.6,0.2-3.6,0.2-5.4
		c0-1-0.4-2-0.4-3c-0.6-12.2-0.6-24.3-0.5-36.5c0.1-7.8,0.9-15.6,2.4-23.2c0.7-3.5,0.9-7,0.5-10.6c-0.4-3.4-0.2-6.9-0.4-10.3
		c0-1.3-0.3-2.5-0.3-3.8c-0.1-1.6-0.2-3.2-0.1-4.8c0.3-5.6,0.9-11.2,1.1-16.8c0.1-3.2-0.4-6.4-0.7-9.6c-0.8-7-1.2-13.9,0.5-20.9
		c0.2-0.6,0-1.3-0.1-2c-0.5-2.4-0.6-4.8,0.1-7.2c1.5-5.1,1.3-10.2,0.8-15.3c-0.5-5.1-1.2-10.3-1.2-15.4c0-4.2-1.5-7.8-4.4-10.9
		c-1.1-1.2-2.1-2.5-3-3.7c-1.4-2-2.5-4.1-3.1-6.5c-0.1-0.6-0.4-1.3-0.8-2.4c-1.2,3.9-1.8,7.4-1.9,10.9c-0.1,5.5,0.7,11,1.2,16.5
		c0.3,3.4,0.3,6.9,0.3,10.3c0,2.4-0.7,4.8-1.6,7c-0.2,0.6-0.4,1.4-1.2,1.5l0.1,0.1c0-0.6,0-1.2,0.1-1.7c1.1-5.9,0.8-11.9,0.2-17.8
		c-0.1-0.9-0.1-1.8-0.2-2.7c-0.1-0.8-0.1-1.6-0.3-2.4c-0.9-3.6-1.2-7.2-1.3-10.9c0-1.6,0-3.2,1-4.6c0.4-0.5,0.4-1.3,0.6-2
		c0.7-2.3,1.4-4.6,2.2-6.9c0.7-2,1.2-3.9,1.1-6c0-1.3,0-2.5,0.2-3.8c0.1-0.8,0.4-1.5,0.5-2.1c0.9-0.4,1.6-0.3,2.1,0.1
		c2.8,2.5,6,4.2,9.2,6c0.5,0.3,1.1,0.4,1.1,1.2l0.1-0.1c-1.2,0.1-2.1-0.6-3.1-1.2c-1.2-0.6-2.4-1.3-3.6-2c-0.4,0.7,0.3,1,0.6,1.3
		c1.6,1.3,3.2,2.5,4.9,3.6c0.8,0.6,1.7,1.1,2.5,1.7l0.1-0.1c-1.2,0.3-2.3,0-3.3-0.5c-0.8-0.3-1.6-0.7-2.8-1.1
		c1.3,2.1,2.9,3.1,4.4,4.3c0.6,0.5,1.5,0.6,1.7,1.5l0.1-0.1c-4.1-1.3-7.3-3.8-9.6-7.3c-1.1-1.7-1.4-3.6-2-5.5
		c-0.2-0.6-0.3-1.1-1.2-1.1c-0.4,1.5-0.7,3.2-0.2,4.6c0.6,1.7,0.6,3.4,0.9,5c0.6,4,1.2,7.9,2.9,11.6c0.5,1.2,1.2,2.2,2.1,3.1
		c0.9,0.9,1.6,2,2.4,2.9c2,2.1,2.9,4.6,3.2,7.4c0.7,6.4,1.3,12.8,1.9,19.2c0.1,1,0.1,2,0.2,2.9c0.3,0.2,0.5,0.4,0.7,0.4
		c4.1,0.3,8.2,0.5,12.4,0.8c3,0.2,5.8,1.2,8.6,2.3c0.7,0.3,1.5,0.6,2.2,1c4.4,2.9,9.5,4,14.5,4.9c1.7,0.3,3.4,0.7,5,1.1
		c1.5-1,1.5-1,3.4-1.2c0.1,0,0.1,0.1,0.2,0.1c-0.1,0-0.2,0-0.2,0c-0.1-0.3-0.2-0.7-0.4-0.8c-1.1-0.7-2.1-1.3-3.3-1.9
		c-3.6-1.8-7.2-3.5-10.8-5.3c-0.3-0.1-0.6-0.2-1.1-0.3c0,0.6,0,1.1,0,1.6c-1.5,0-2.3-0.8-2.9-2c-0.7-1.3-1.5-2.6-2.2-3.9
		c-0.4-0.7-0.8-1.4-1.2-2.1c-1.8-3.4-2-6.8,0.3-10.1c0.9-0.6,1.8-0.7,2.9-0.5c3.4,0.6,6.8,0.8,10.3,0.5c0.7,0,1.3-0.2,2-0.3
		c0.8-1.2,1.1-2.4,0.7-3.7c-0.4-1.3-0.2-2.5,0.6-3.6c0.3-0.5,0.6-1,0.7-1.6c0-0.6-0.2-1.2-0.4-1.7c-1.5-0.7-2.8,1.3-4.2-0.2
		c0.3-0.3,0.5-0.7,0.9-0.8c1.1-0.3,2.3-0.4,3.4-0.7c1-0.3,1.4-1,1.2-2.1c-0.3-1.4-0.4-1.6-2.4-3c0.1-0.9,0.9-0.3,1.3-0.5
		c0.5-0.2,1.1-0.3,1.6-0.5c1-0.2,2.1-0.4,3-0.8c0.6-0.2,1-0.9,1.4-1.4l-0.1,0.1c0.7,0.5,1,1.2,0.7,1.5c-0.3,0.3-0.7,0.7-1.1,0.8
		c-1,0.5-2.1,0.9-3.1,1.2c-1.3,1.3,0.2,2.7-0.1,4.1c-0.4,0.5-1,1.1-1.6,1.8c1.4,1.9,1,3.6-0.6,5c0.2,2,0.6,3.8,0.1,5.6
		c-2.1,2.3-4.9,2.3-7.7,2.4c-1.4,0-2.8,0.1-4.1-0.1c-1.3-0.2-2.6-0.7-4.1-1.2c-0.2,0.7-0.5,1.2-0.5,1.7c-0.1,2.1,0,4.1,0.7,6.1
		c0.3,0.7,0.4,1.5,0.6,2.6c4.6,2,9.4,4.3,14.3,6.2c4.9,1.9,10,3.4,14.7,5.7c3.9,0.7,7.2,2.9,10.8,4.3c2.3,0.9,4.3,2.1,6.1,3.8
		c2.4,2.1,4,4.7,4.6,7.9c0.2,1.1,0.4,2.2,1.3,3.1c0.9,1,0.9,2.3,0.9,3.6c0,2.8-0.2,5.5-1.3,8.1c0.7,1.6,2,2.5,3,3.8
		c1.6,2.1,3.2,4.2,4.8,6.3c0.8,1.1,0.9,2.3,0.2,3.5c2.4,4.1,5.5,7.5,8.8,10.7c2.9,2.7,6.1,5.2,9.8,7c2.5,1.2,4.8,2.7,7.1,4.1
		c0.9,0.5,1.8,1,2.9,0.6c0.4-0.1,0.9,0,1.3,0.2c1.9,0.6,3.7,1.3,5.6,1.7c1.8,0.4,2.9,1.3,3.2,3.1c-1.6,0-3.2-0.2-4.7-0.7
		c-1.4-0.5-2.9-0.8-4.3-1.2c-1-0.2-1.8,0.1-2.2,1.1c-0.4,0.9-1,1.7-1.6,2.4c-1.4,1.8-2.4,3.9-3.6,5.8c-0.5,0.8-0.2,1.5,0.3,2.3
		c-0.5,0.2-1,0.5-1.5,0.7c-2.8,5.8-6.2,16.9-7,22.9c0.9,0.8,1.7,1.6,2.6,2.4c-0.1,0.1-0.1,0.2-0.2,0.4c-0.9-0.4-1.7-0.8-2.7-1.2
		c-0.9,1.9-0.8,3.7-1.2,5.5c0,0.2,0.3,0.5,0.5,0.8c0.2,0.3,0.5,0.6,0.5,0.8c-0.1,1.9-0.2,3.9-0.5,5.8c0,0.4-0.5,0.7-0.8,1
		c-0.2-0.3-0.5-0.5-0.7-0.8c0-1.6,0.4-3.3,0-4.8c-0.8-2.6-0.6-5.2-0.3-7.8c0.6-6.7,2.4-13.1,4.6-19.4c2.3-6.4,5.4-12.4,10-17.6
		c0.3-0.3,0.5-0.7,0.9-1.2c-0.5-0.4-0.9-0.7-1.4-1c-3.1-1.8-6.1-3.6-9.2-5.4c-1.3-0.7-2.4-1.8-4.1-1.4c-0.4,0.1-1.1-0.4-1.5-0.7
		c-1.3-1.1-2.6-2.3-3.7-3.6c-2.5-3.1-4.9-6.3-7.3-9.6c-0.5-0.7-1-1.6-1.2-2.4c-0.6-3.4-2.7-6-5.1-8.7c-1,3.2-2.8,5.7-4.9,8
		c-3.2,3.5-6.7,6.6-10.7,9.1c-4.8,2.9-9.6,5.8-14.5,8.6c-3.8,2.1-7.8,4-11.6,5.9c-0.6,0.3-1,0.7-1.6,1.1c0.3,0.3,0.4,0.6,0.5,0.7
		c5.7,4.8,11.4,9.6,17.1,14.4c1.1,0.9,2.4,1.7,3.7,2.5c8.9,5.5,17.3,11.7,24.7,19.2c3,3,6.1,5.9,9.2,8.8c0.3,0.3,0.6,0.7,1,0.9
		c1.5,0.7,2.7,1.6,3.6,3c0.4,0.6,1.3,0.8,2,1.2c0.2,0.3,0.5,0.5,0.7,0.8c6.3,4.8,13.4,7.8,21.2,8.5c2-1,3.8-2.1,5.7-2.7
		c3.4-1.1,6.9-1.9,10.5-1.9c2.1,0,4.1-0.2,6.2-0.3c3.4-0.1,6.5-1.2,9.6-2.5c1.1-0.5,2.3-1.2,3.1-2.1c2-2,4.2-3.8,5.5-6.5
		c0.2-0.5,0.6-0.9,0.8-1.2c0.8-0.1,1.5,0.1,1.8-0.2c2.7-2.3,5.1-4.9,7.4-7.7c-0.3-0.7-0.6-1.2-0.8-1.7c-0.2-0.4-0.5-0.8-0.8-1.2
		c-2.3,2.1-2.8,5.1-5.2,6.9c-0.7-1.9,1-3.1,0.8-4.8c-1.4-1.3-2.5,0.2-4,0.5c-0.8-0.4-1.9-0.8-2.8-1.3c-6.4-3.7-11.9-8.6-16.7-14.2
		c-4.8-5.5-8.3-11.8-10.9-18.6c-0.2-0.4-0.1-1.2-1.1-1.1c-0.2,0.4-0.4,0.8-0.5,1.2c-0.8,2-1.3,4.2-3.6,5.2c-0.4,0.2-0.6,0.7-0.9,1.1
		c-0.9,1.2-1.9,2.3-2.8,3.5c-0.2,1.9-0.5,4-0.7,6c-0.2,2.1-0.4,4.1-0.7,6.2c-0.3,2,0.1,4.1-0.6,6.1c-1.1-0.1-1.1-0.9-1.1-1.5
		c0-1.6,0-3.2,0.1-4.8c0.1-1.5,0.4-3,0.5-4.4c0-1.5,1.1-3.1,0-4.6c1.4-1,0.8-2.8,1.2-3.7c1.2-1.5,2.2-2.6,3-3.8
		c0.8-1,1.4-2.1,2.1-3.1c0.9-0.3,1.1-1,1.3-1.8c1.1-4.3,2.2-8.7,3.4-13c5.8-21.3,14.7-41.2,26.6-59.8c0.9-1.4,2-2.8,2.9-4.3
		c0.4-0.7,0.9-1.3,1.1-2.1c0.4-1.4,1.2-2.4,2.3-3.3c2.2-1.8,4.6-3.4,7.5-3.9c0.9-0.2,1.8-0.4,2.7-0.7c3-1.1,6.1-1,9.2-0.6
		c3.5,0.4,7,1.1,9.6,3.9c1.1,1.2,2.5,2,3.5,3.3c2.4,2.8,4.6,5.7,6.8,8.6c0.9,1.2,1.8,2.4,1.4,4.1c-0.1,0.5,0.2,1.1,0.5,1.6
		c1.5,2,3.2,3.9,4.8,5.9c0.9,1.1,2.1,1.2,3.6,0.6c0.5-2.8,2.7-3.6,5.3-3.8c1.6-0.1,3.2-0.1,4.8,0.1c2.7,0.2,5.3,0.1,7.8-0.7
		c3.8-1.3,7.7-2.3,11.5-3.7c1.9-0.7,3.8-0.8,5.8-0.6c2.7,0.3,5.9,3.3,6.5,6c0.6,2.8,0.8,5.7-0.4,8.4c-0.7,1.6-1.2,3.2-1.9,4.8
		c-0.7,1.6-1.5,3.1-2.2,4.5c2,4.6,4,9.1,5.9,13.6c0.2,0.5,0.6,1.2,0.4,1.6c-0.6,1.5,0.2,2.6,0.9,3.8c0.6,1.2,1.3,2.4,2,3.6
		c0.7,1.3,1.3,2.6,1.7,4.1c0.5,1.9,1.4,3.6,2.2,5.4c2.6,5.8,5,11.6,6.9,17.6c0.2,0.8,0.5,1.5,0.7,2.3c2.7,11.3,7.9,21.5,14.1,31.2
		c2.5,3.9,4.9,7.8,7.3,11.7c0.6,1.1,1,2.3,1.5,3.5C552.8,216.9,554.3,216.1,555.7,215.4c0.6,1.1-0.5,1.8-0.5,2.8
		c-1,0-1.7,0.3-2.3,1.3c0.3,0.5,0.7,1.1,1.2,1.9c0.4-1.3,0.7-2.3,1-3.2c0.6,0.1,1.2,0.2,1.3,0.9c0.2,1.5-0.1,3-1.3,4.1
		c-2,1.8-3.9,3.5-5.9,5.3c-0.9,0.8-2,1.1-3.1,1.3c-3.9,0.7-7.2-0.6-10.4-2.5c-1.5-0.9-2.7-2.1-4.4-2.6c-0.6-0.2-1-0.8-1.5-1.3
		c-0.5-0.4-0.5-1.3-1.5-1.3c-0.8,1.1-1.2,2.4-1.3,3.8c-0.4,3.9-1.3,7.7-0.8,11.6c0,0.3,0,0.7,0,1c0.3,2.3-0.2,4.3-1.9,5.8
		c-0.2,3.3-0.2,3.3-1.4,5.4c0.4,0.2,0.7,0.5,1.2,0.7c5.3,2.3,10.9,3.6,16.6,4.3c1.5,0.2,2.9,0.2,4.4-0.5c1-0.5,2.2-0.6,3.3-0.8
		c4.2-0.7,8.4-0.9,12.5-2.1c0.3-0.1,0.7-0.1,1-0.1c4.6,0,9.2,0.1,13.8,0.2c3.2,0.1,6.4,0.4,9.6,0.3c5.7,0,5.7-0.1,10-3.6
		c0.9-0.7,1.7-1.5,2.6-2.3c0-1.9,0.2-3.7,0-5.5c-0.6-3.9-1.6-4.6-5-5.1c-2.8-0.5-5.6-1.4-8.3-2c-1.2-0.3-2.3-0.7-3.5-1.1
		c-0.3,0.7-0.5,1.3-0.8,1.7c-0.3,0.4-0.9,0.8-1.5,0.4c-0.5-0.3-0.7-0.9-0.5-1.5c0.1-0.3,0.3-0.6,0.4-0.9c0.1-0.2,0-0.4-0.1-0.8
		c-0.5-0.1-1-0.2-1.6-0.3c-0.2,0.6-0.4,1-0.6,1.4c-0.2,0.4-0.4,0.9-0.7,1.1c-0.4,0.3-1,0.5-1.5,0.5c-0.6,0-1.2-0.9-1.1-1.5
		c0.2-1.1,0.5-2.2,0.8-3.3c-0.7-0.4-1.3-0.6-1.9-1c-0.4,1.1-0.6,2-1,2.8c-0.4,0.7-0.9,1.4-1.4,1.9c-0.5,0.5-1.2,0.7-1.9,0.3
		c-0.7-0.4-0.8-1.1-0.7-1.8c0.1-0.6,0.3-1.1,0.5-1.6c0.3-1.3,0.6-2.6,0.9-3.9c-0.8-0.8-1.3-1.6-2.4-1.4c-0.8,1.1-1.6,2.3-2.5,3.3
		c-0.7,0.7-1.6,1.3-2.4,1.8c-0.6,0.4-1.4,0.2-1.9-0.4c-0.3-0.4-0.5-1.1-0.4-1.6c0.3-1,0.8-1.9,1.4-2.8c0.8-1.4,1.7-2.7,2.5-4.1
		C560.8,218,558.3,216.7,555.7,215.4z M308.9,100.2l0.1,0.1L308.9,100.2c-0.3-0.1-0.5-0.3-0.2-0.1
		C308.4,100.1,308.7,100.1,308.9,100.2z M491.7,103.8l-0.1-0.1c0.1,0.8,0.4,1.6,0.4,2.3c0,0.5-0.4,0.9-0.8,1.6
		c-1.5-1.7-2.9-3.3-4.3-4.9c-0.9,0.1-1.6,0.3-2.4,0.4c0,0,0,0.2,0,0c0.9,2,1.8,3.8,2.7,5.8c0.9,0.1,1.8,0.2,2.7,0.2
		c1.9,0,3.9,0.1,5.8,0c1.2,0,2.2,0.2,3.3,0.7c2.4,1.1,4.6,2.5,6.1,4.8c0.5,0.7,0.8,1.6,1.8,1.9c1.8-4.7,4.2-9.1,3.7-14.3
		c-0.8-1.5-1.8-3-3.4-4.2c-1.4-1-2.8-1.3-4.5-0.7c-3.9,1.3-7.8,2.5-11.8,3.7c-0.5,0.2-1,0.5-1.7,0.9
		C490.3,102.7,491,103.2,491.7,103.8z M293.8,124.3c-0.8,0.1-1.5,0.3-2.3,0.4c-2.6,5.8-6.5,10.6-10.6,15.1c0.6,1.9,1.2,3.6,1.7,5.3
		l0.1-0.1c-0.6-0.5-1.2-1.1-2.2-1.9c-0.2,3.7-0.3,6.8-0.5,10.1c4,3,7.2,6.9,11.4,9.4c0.5-0.2,1-0.3,1.4-0.5c4.5-2.3,9-4.6,13.4-6.9
		c0.4-0.2,0.8-0.5,1.2-0.8c2-1.3,4-2.6,6-4c4-2.7,8.2-5.1,12-8c4.9-3.7,9.3-7.9,11.6-13.7c0-0.1,0-0.2-0.1-0.3
		c-1.8-1.9-2.2-4.1-1.2-6.6c0.1-0.3,0.1-0.7,0.2-1c0.7-2.5,0.5-5-0.8-7.3c-0.5-0.9-0.8-1.9-1.2-2.9c-1.4-3.8-3.9-6.7-7.2-8.9
		c-1.7-1.1-3.5-2.2-5.3-3.2c-0.7-0.4-1.5-0.6-2.2-0.8c-1.5-0.5-3.1-0.9-4.6-1.4c-2.8-1-5.6-2-8.4-2.9c-0.2-0.1-0.5-0.2-0.2-0.1
		c-0.3,0,0,0,0.3,0c0.9,1.5,0.9,1.5,2.5,2.4c1.6,0.9,3.1,1.9,4.6,3c0.5,0.4,0.7,1.1,1,1.6c-2.1,2-4.3,2.5-6.8,1.6
		c-1.1-0.4-2.1-0.8-3.2-1.2c-4-1.7-8.3-2.8-12.5-3.6c-3-0.5-5.7-1.4-8.4-2.6c-2.3-1.1-4.6-2-7-2.9c-1.6-0.6-3.3-1.1-4.9-1.4
		c-3.5-0.6-7-1-10.5-1.4c-1.4-0.2-2.7-0.1-3.9,0.2c-0.7,1.1-0.7,2.1-0.6,3.1c0,0.1-0.1,0.1-0.1,0.2c0-0.1,0-0.2,0-0.2
		c0.3,0,0.7,0.1,1-0.1c1.4-1.1,2.8-1.5,4.5-0.7c0.3,0.1,0.7,0.1,1,0.1c3.5,0.5,7,0.9,10.5,1.5c5.4,0.8,10,3.3,13.7,7.2
		c2.8,3,5,6.3,5,10.6c0,0.7,0.2,1.4,0.5,2c0.6,1.4,0.7,2.9,0.6,4.4c-0.1,1-0.1,2.1-0.3,3.1c-0.2,1.1-0.5,2.2-0.7,3.3
		C292.9,123.7,293.3,124,293.8,124.3L293.8,124.3z M284.1,256.7c0.2,0.4,0.4,0.6,1.2,0.2C284.7,256.9,284.4,256.9,284.1,256.7
		c-1.3-1.1-2.5-2.3-4.3-2.4c-2.4-0.1-4.8-0.3-7.2-0.5c-1.5-0.1-3-0.4-4.4-0.7c-2.3-0.5-2.3-0.6-4.6,0c-1-0.5-1.1-1.4-1-2.4
		c0.1-1,0.4-2,0.4-3.1c0.2-3.7,0.4-7.3,0.5-11c0-0.6,0.2-1.2,0-1.7c-0.6-1.6-0.4-3.2-0.2-4.8c0.8-5.6,1.6-11.1,2.5-16.7
		c0.9-5.3,2.6-10.5,2.8-15.9c0.2-4.8,0.6-9.6-0.2-14.4c-0.1-0.7-0.1-1.4-0.1-2.1c0-0.5,0.3-0.8,1-0.7c0.4,1.8,1,3.6,0.9,5.6
		c0,2.8-0.1,5.5,0.3,8.3c0.6,4.9-0.1,9.6-0.8,14.4c-0.2,1.5-0.4,2.9-1.6,4c-0.4,0.4-0.5,1.2-0.7,1.9c-1.3,5.6-1.6,11.4-1.9,17.1
		c-0.1,1.3-0.1,2.5-0.1,3.8c0.1,5.2,4,7.5,7.8,7.4c3.9-0.1,7.8-0.5,11.6,0.5c1,0.2,2.1,0,3.1,0.1c1,0.1,2,0.4,3.2,0.7
		c0-0.7,0.2-1.4-0.1-2c-0.2-0.4-0.8-0.8-1.3-0.9c-1.3-0.2-2.8,0.1-4-0.8c-1.1-0.8-2.3-0.9-3.5-1.3c-1.4-0.5-2.9-0.4-4.7-1.4
		c0.9-0.2,1.4-0.5,1.7-0.4c2.4,0.7,5,0.8,7.2,2.1c0.6,0.3,1.3,0.5,2,0.5c2-0.1,3.6,0.5,4.9,2.1c2,0,4,0.3,5.9-0.1
		c2.4-0.4,4.8-0.4,7.2-0.5c0.5,0,0.9,0,1.4-0.1c0.5-0.1,0.8-0.4,0.4-1.2c-0.6-0.1-1.4-0.2-2.2-0.3c-1-0.2-2.1-0.3-3-0.7
		c-1.6-0.7-3.3-0.8-5-0.9c-2.3-0.1-4.6-0.2-6.9-0.5c-0.6-0.1-1.1-0.5-2-0.9c1.4-0.7,2.3,0.1,3.3,0.1c1.1,0,2.3,0.1,3.4,0.1
		c0.9,0,1.9,0.2,3-0.3c-1.1-1-2.2-1.2-3.4-1.2c-2,0-3.9,0.1-5.9,0c-1.3-0.1-2.2,0.5-3.1,1.2c-3.6-0.8-7.2-1.7-10.8-2.5
		c-0.8-0.2-1.5-0.4-2.3-0.1c-0.9,0.3-1.4-0.4-1.4-1.3c0.1-2.7,0.1-5.5,0.2-8.2c0.1-2.6,0.1-5.3,0.4-7.9c0.5-4.2,1.3-8.4,1.9-12.6
		c0.2-1.6,0.4-3.2,0.8-4.7c1.5-4.9,3.2-9.8,4.7-14.7c0.5-1.7,1-3.6,1.1-5.4c0.2-3.7,0.2-7.3,0.2-11c0-1.4,0.1-2.7,0.5-4.1
		c0.5-1.7,1-3.5,0.4-5.6c-0.6-0.4-1.3-0.9-2.1-1.4c0,0-0.2,0.1-0.5,0.3c-0.1,0.5-0.2,1.1-0.3,1.8c-0.2,1.4-0.4,2.7-0.6,4.1
		c-1.3,6.4-3.3,12.7-5.6,18.8c-0.3,0.8-0.6,1.5-1,2.2c-0.2,0.3-0.6,0.5-1.1,0.9c-0.4-1.6-0.1-2.8,0.2-4c0.6-2.4,1.3-4.9,2-7.3
		c2.3-7.3,3.8-14.7,4.6-22.2c0.5-5.4,1-10.7,1.5-16.1c0.2-1.7,0.7-3.4,1.7-4.8c0.3-0.4,0.7-1,1.5-0.4c-0.2,1.7-1.5,3.2-1.8,5
		c0.3-0.1,0.5-0.1,0.5-0.2c3.6-3.9,6.4-8.4,8.6-13.2c0.6-1.4,0.9-2.8,0.7-4.3c-0.3-2.4-0.3-4.8-0.3-7.2c0-0.8,0.2-1.6,0.3-2.4
		c-1.7-3.1-3.9-5.8-6.8-7.9c-0.8,0.8,0.6,2-0.8,2.4c-0.1,0-0.2,0-0.3-0.1c-0.2-0.3-0.4-0.6-0.5-0.9c-1.2-3.3-3.4-5.6-7-6.4
		c-3.7-0.8-7.4-1.7-11.1-2.5c-2.6-0.5-5.3-0.8-7.6,1.4c-1.4,4.3-1.6,5.7-1,8.4c0.8-0.9,1.5-1.8,2.2-2.6c0.9,0.6,0.6,1.1,0.3,1.6
		c-1.5,2.2-2.3,4.8-2.8,7.3c-0.7,3.3-0.5,6.6-0.3,9.9c0.6,0.3,1,0.4,1.5,0.7c0.1,2.4,0.2,4.9,0.3,7.3c-0.6,0-1.1,0.1-1.6,0.1
		c0,1-0.1,1.9,0,2.8c0.5,4,0.8,8,0.5,12c-0.3,4.2-0.4,8.5-0.6,12.7c-0.4,7.1,0.4,14.2,1.1,21.3c0.1,1,0.1,2.1,1.1,2.7
		c0.7,0.4,0.7,1.2,0.5,1.9c-0.5,2.3-1.1,4.7-1.7,7c-0.5,0.1-1,0.2-1.4,0.2c-0.1,0.3-0.2,0.6-0.3,1c-0.4,4.2-0.8,8.4-1.3,12.7
		c-0.2,1.5-0.4,2.9-0.6,4.4c-0.1,0.6-0.2,1.1-0.2,1.7c0.1,4.6,0,9.2,0.3,13.8c0.2,2.9,0.3,5.7,0.4,8.6c0,2.1,0.1,4.1,0.3,6.2
		c0.6,5.5,0.5,11,0.5,16.5c0,1.3,0,2.5-1,3.6c-0.3,0.4-0.4,1.1-0.3,1.6c0.5,2.2,3.6,5,5.9,5.2c2.4,0.2,4.8,0.6,7.2,0
		c0.6-0.2,1.4-0.1,2,0c2.3,0.2,4.5,0.7,6.6,1.8c0.9,0.5,1.9,0.9,2.9,0.4c0.1-0.7-0.5-0.7-0.8-1c-0.4-0.4-0.8-0.8-1.1-1.3
		c-0.6-1.1-1.5-1.5-2.7-1.8c-1.6-0.4-3.2-1.1-4.8-1.6c0.2-0.3,0.4-0.7,0.5-0.7c2.1,0.4,4.2,0.8,6.4,1.3c0.4,0.1,0.9,0.4,1.1,0.8
		c1.3,1.8,3.2,2.1,5.1,2.6c1.3,0.3,2.7,0.6,4,1.1c2.1,0.8,4.3,0.8,6.4,0.3c0.8-0.2,1.4-0.2,2.3,0c1.7,0.4,3.3,0,4.4-1.5
		c-0.1-0.3-0.1-0.5-0.2-0.5c-4.1-1.8-8.6-2.2-12.7-4c-0.5-0.2-1-0.3-2.1-0.7c1.5,1.8,3,2.4,4.7,2.9c1.6,0.4,3.4,0.5,5,1.8
		c-0.5,0.3-0.8,0.8-1.1,0.7c-2.3-0.6-4.8-0.9-6.9-2c-2.9-1.6-5.9-2.5-9-3.2c-0.2-0.1-0.5-0.3-1.1-0.7c1-0.1,1.6-0.3,2.1-0.2
		c1.6,0.2,3.2,0.6,4.7,0.8c0.1,0,0.3-0.1,0.4-0.2c-0.1-0.5-1.2-0.6-0.4-1.4C282.1,256.5,283.1,256.6,284.1,256.7z M471.6,115.5
		c0.1-0.7,0.3-1.5,0.4-2.3c1.1-0.4,2.3-0.7,3.5-1.1c0.6-0.2,1.2-0.6,1.7-0.9c-0.9-2.8-2.2-5-5.4-5.2c-0.5,0-1,0.1-1.6,0.1
		c0.1,0.9,0.1,1.5,0.2,2.5c-0.8-0.4-1.3-0.5-1.7-0.8c-3.5-2.4-6-5.7-7.7-9.5c-0.5-1-0.9-2.1-1.5-3.1c-2.3-3.3-4.7-6.6-7-9.8
		c-0.9-1.3-2.1-2.3-3.4-3.4c-2.7-2.2-5.6-3.6-9-3.8c-0.6,0-1.1-0.2-1.7-0.4c-1-0.3-2-0.1-3,0.2c-2.6,0.9-5.3,1.6-7.9,2.4
		c-3.3,1-6.1,2.5-7.6,5.8c-0.3,0.7-0.9,1.4-1.3,2.1c-3.6,6.3-7.3,12.5-10.8,18.8c-3.7,6.5-6.5,13.4-9.6,20.2
		c-5,10.8-7.8,22.3-10.7,33.3c0.8,1.2,1.5,2.1,1.9,3.1c1.8,4.1,4.2,7.9,6.8,11.5c5.4,7.3,12.4,12.9,19.3,18.6
		c0.6,0.5,1.4,0.8,2.2,0.9c1.9,0.3,3.8,0.4,5.8,0.5c0.1-0.1,0.3-0.2,0.4-0.4c1.9-4.3,4-8.5,5.8-12.9c1.1-2.6,1.9-5.4,2.5-8.2
		c1.7-7.4,1.9-15,2.4-22.6c0.3-4.4,0.5-8.7,0.8-13.1c0.6-8.7,2.8-17,5.7-25.1c0.1-0.4,0.5-0.7,1.1-1.7c0.2,2.6-0.7,4.2-0.9,5.9
		c-0.3,1.8-1.1,3.5-0.9,5.5c0.6,0.3,1.2,0.7,1.8,0.9c2.3,0.7,8,1,10.8,0.9c3.1,0,5.8-1.2,8.4-2.8c1.3-0.8,2.5-1.6,3.9-2.4
		c0.9-2.5,2.5-3.9,5.4-3.8C471.2,115.5,471.4,115.4,471.6,115.5c-0.8,0.5-1.6,1.1-2.4,1.7c-0.7,0.6-1.5,1-2.1,1.8
		c-2,2.8-4.8,4.6-7.8,6.1c-1.2,0.6-2.6,1.2-3.9,1.2c-2.6-0.1-4.7,0.9-6.8,2c-2.4,1.3-4.9,2.5-7.4,3.7c-0.8,0.4-1.6,0.8-2.4,1.2
		c-0.1,0.8-0.2,1.5-0.3,2.2c-0.7,5.9-0.9,11.9-0.9,17.9c0,7.2-1,14.2-2.3,21.2c-0.9,4.9-2.7,9.5-4.9,13.9c-0.5,1.1-1.1,2.3-1.5,3.3
		c0.6,1.5,1.2,2.9,1.9,4.5c1.1-0.9,2.1-1.7,3-2.6c1.2-1.3,2.7-2.2,4.3-2.8c4.2-1.5,7.7-4.1,10.8-7.2c4.8-4.6,9.2-9.7,13.3-14.8
		c1.7-2.1,3.4-4.4,5.4-6.3c4.9-4.7,9.7-9.4,16.4-11.6c2.2-0.7,4.2-1.7,5.6-3.7c0.2-0.3,0.7-0.6,1.2,0.2c-0.7,1.2-1.4,2.4-2,3.4
		c0.5,2.8,1,5.2,1.3,7.7c0.6,4.1,1.3,8.2,3,12c2.9,6.6,7.4,12.1,12.2,17.4c0.5,0.5,1.1,0.9,1.6,1.4c3.4,3.4,6.9,6.8,10.2,10.2
		c0.7,0.7,1.6,1.6,1.8,2.5c0.3,1.6,1.5,2.5,2.5,3.6c3.7,3.9,7.3,8,8.8,13.4c0.3,1.2,1,2.4,1.9,3.2c1.8,1.6,3.9,2.8,5.9,4.2
		c0.1,0.1,0.4,0,0.7-0.1c-0.4-1.2-0.9-2.3-1-3.5c-0.2-1.2,0-2.5,0-3.8l-0.1,0.1c0.6-0.1,1.2,0.1,1.4,0.7c0.5,1.4,1,2.8,1.5,4.2
		c0.6,1.7,0.7,1.7,0.4,3.6c1.9,0.7,3.8,0.5,5.7,0.1c0.4-0.1,0.9-0.4,1.2-0.7c1.5-1.2,3-2.4,4.4-4.1c-2.4-1.9-3.6-4.5-5-7
		c-3.1-5.6-6.1-11.3-9.5-16.7c-4.1-6.4-7-13.4-9.6-20.5c-2.7-7.7-5.2-15.4-8.4-22.9c-1.1-2.6-2.1-5.3-2.9-8.1
		c-0.6-2-1.4-3.8-2.3-5.7c-1.3-2.6-2.6-5.1-3.6-7.8c-1.3-3.5-2.5-7.1-3.5-10.8c-0.7-2.6-2.1-4.8-3.8-6.8c-0.4-0.5-0.9-1.1-1.3-1.6
		c-2-2.3-4.3-3.6-7.5-3.4c-3.2,0.2-6.4,0.3-9.6-0.7c-1.2-0.4-2.2-0.1-3.3,0.5c-1.1,0.6-2.3,1.1-3.5,1.5c-1.2,0.4-2.5,0.5-3.6,1
		C473.9,114.1,472.7,114.8,471.6,115.5z M419.5,209c-0.9,1.3-1.7,2.5-2.5,3.8c-2.7,4-6.5,5.9-11.3,6.2c-0.6,0-1.2-0.1-1.7,0.1
		c-2.8,0.9-5.6,0.9-8.5,1.3c-2.8,0.4-5.7,0.9-8.5,1.5c-2.3,0.5-4.3,1.5-5.6,3.7c-0.6,1.1-1.6,1.9-2.5,2.9c-2.3,2.6-4.6,5.1-6.9,7.7
		c-1.8,2.1-3.7,4.1-4.9,6.6c-1.4,3-2.9,6-4,9.1c-0.7,1.8-1,3.8-1.3,5.7c-0.1,0.5-0.2,1.2,0,1.7c0.7,1.6,0.6,3.4,0.8,5.1
		c0.3,2.3,1.1,4.6,3,6c2,1.5,4.1,2.8,6.3,4.1c1.9,1.1,3.9,1.9,5.9,2.8c0.6,0.3,1.2,0.7,1.9,0.8c3.6,0.6,7.3,1.1,10.9,0.9
		c0.6,0,1.2-0.2,1.6-0.4c3.1-1.9,6.4-3.6,9.1-6.2c0.5-0.5,1-0.9,1.4-1.5c1.5-2.7,2.9-5.4,3.5-8.5c0.2-0.8,0.4-1.6,0.8-2.3
		c1.4-2.8,2.8-5.5,4.4-8.2c6.2-10.3,12.5-20.6,18.9-30.8c1.6-2.6,2.2-5.3,1.8-8.2c-0.3-2.1-0.8-4.3-1.4-6.4c-0.4-1.5-1.1-3-2.6-4
		C425.2,204.6,423.2,207.9,419.5,209z M473.6,102.5c3.7,1.9,6,4,5.8,7.8c2.7-0.9,3.1-1.2,4.7-2.7c-0.5-0.7-1.1-1.4-1.6-2.2
		c-0.5-0.8-0.9-1.7-1.4-2.7C478.9,102.1,476.7,101.9,473.6,102.5z M440.1,125.2c-0.4,1.5-1.1,3-0.6,4.6c2.7-0.7,5.5-2.1,6.7-3.3
		C444.2,126.1,442.2,125.7,440.1,125.2z M286.9,257.9c1.4,0.5,2.8,0.9,4.2,1.4c0.2,0.1,0.4,0,0.7-0.1
		C289.3,257.6,289.3,257.6,286.9,257.9z M290.2,86.3c-1-1-1.8-1.6-3.1-1.6C287.5,86,287.5,86,290.2,86.3z"/>
	<path d="M348.9,309.2c-0.8-0.7-1.5-1.2-2.6-1.4c-4.1-0.8-8.2-0.4-12.2,0.7c-2.9,0.8-5.8,1.4-8.6,2.2c-4.9,1.3-9,3.7-12.4,7.4
		l-0.1,0.1l0.1-0.2c0.6-0.2,1.3-0.4,1.9-0.7c3.8-1.9,7.8-3.3,11.9-4.6c0.4-0.1,0.9-0.1,1.4-0.2l-0.1-0.1c-0.5,1.1-1.6,1.1-2.5,1.5
		c-3.1,1.4-6.3,2.6-9.5,4c-2.9,1.3-5.4,2.9-7.2,5.6c-0.4,0.6-0.8,1.3-1.2,2c-2.2,0.1-4.2-1.3-6.7,0.2c0.8-1.9,2.2-1.6,3.2-2.3
		c0-0.3-0.1-0.7-0.1-1.2c0.4,0,0.9,0,1.3,0c0.3,0.3,0.6,0.7,1.3,0c-0.6,0-1,0.1-1.3,0.1c-0.2-0.2-0.3-0.4-0.5-0.5
		c-1.8-0.1-3.7-0.4-5.5-0.3c-2.5,0.1-4.4,1.5-5,4c-0.6,2.3-1,4.7-1.2,7.1c-0.3,3.9-0.6,7.8-1.3,11.6c-0.2,1.2-0.3,2.4,0.3,3.9
		c1-1.2,0.7-2.4,0.9-3.5c0.2-1.2,0.5-2.5,0.7-3.7c0.1-1.1,0.1-2.3,0.2-4c0.6,1.7,0.3,2.8,0.3,3.9c-0.2,4-0.4,8-0.6,12
		c-0.1,1.6-0.2,3.2,0.7,4.7c0.3,0.5,0.3,1.1,0.3,1.7c0,4.4,0.4,8.7,1.7,12.9c0.2,0.5,0.2,1.1,0.3,1.7c0,0.1,0.2,0.2,0.4,0.4
		c0.3-1.9,0.2-3.7-0.2-5.5c-0.8-3.1-0.8-6.3-0.6-9.5c0.3-5.9,1.7-11.6,2.4-17.4c0.5-4,2-7.8,3.2-11.6c0.4-1.1,1.1-1.6,2.3-1.8
		l-0.1-0.1c-0.6,1.4-1.3,2.7-1.7,4.1c-0.4,1.4-1.3,2.8-0.3,4.2l-0.1-0.1c0,0.1,0,0.2,0,0.3c-1.4,4.1-1.5,8.3-1.5,12.6
		c0,1.1-0.1,2.3-0.2,3.4c-0.3,2.9-0.1,5.6,0.6,8.5c0.8,3,0.8,6.1,1.3,9.2c0.5,3.6,0.5,7.1-0.2,10.6c-0.4,2.2-1,4.5-1.6,6.7
		c-0.2,0.9-0.8,1.6-1.9,1.7l0.1,0.1c0.1-0.9,0.2-1.8,0.3-2.7c0.1-0.8,0.2-1.6,0.4-2.8c-0.5,0.8-0.8,1.1-1.1,1.5
		c-0.8-0.4-0.6-1.2-0.5-1.7c0.2-2.3-0.4-4.3-1.4-6.3c-1.3-2.5-2.6-5.1-3.8-7.7c-1.5-3.4-2.5-6.9-2.7-10.6c-0.1-2.5-0.1-5.1,0.1-7.6
		c0.2-2.2,0.2-4.3,0-6.5c-0.3-5.2-0.5-10.3,0.2-15.5c0.2-1.7,0.5-3.4,1-5.1c1.3-4.2,4.4-6.3,8.8-6.1c2.4,0.1,4.8,0.7,7,1.7
		c0.6,0.3,1.3,0.3,2,0.4c0.4-0.7,0.6-1.4,1-1.9c0.6-0.9,1.1-1.8,1.8-2.5c2.5-2.1,5-4,7.5-6c0.8-0.6,1.8-1,2.8-1.4
		c3.8-1.3,7.7-2.4,11.7-2.9c2.2-0.2,4.3-0.6,6.4-1c0.9-0.2,1.8-0.2,2.7,0.1c2.8,0.9,5.7,1.8,8.5,2.7c0.7,0.3,1.5,0.6,2.1,1.1
		c1.7,1.2,3.4,2.4,4.9,3.8c0.9,0.8,1.8,1.8,2.3,2.9c2.5,5.1,4.2,10.4,5.2,16c0.2,1.2,0.1,2.3-0.4,3.4c-1,2.2-0.8,4.2,0.4,6.3
		c0.8,1.5,1.6,3,2.4,4.6c0.5,1,1.5,1.8,1.2,3.1l0.1-0.1c-0.3-0.1-0.8-0.1-0.9-0.3c-1.4-2.1-2.8-4.2-4-6.4c-1.5-2.7-1.8-5.4-0.2-7.9
		c-0.5-2.2-0.8-4.2-1.3-6.2c-0.8-3-1.7-6-2.5-9c-1.5-0.4-2.3-1.9-4.1-1.3c-3.3-4.2-7.9-6.1-12.8-7.4c-1.4-0.4-2.9-0.7-4.4-1.1
		c4.3-0.9,8,0.7,12.1,2.3C350.8,310.3,349.2,310.3,348.9,309.2c0.4-0.1,0.9-0.1,1.5-0.1c0.1,0.8,0.7,0.8,1.3,0.7
		c0.4,1,1,1.5,2.1,1.4c-0.1,0.5,0.2,0.7,0.7,0.7c0.2,0.2,0.4,0.5,0.6,0.7c0,0.1,0.1,0.2,0.1,0.2c0,0,0.1,0,0.1,0
		c-0.1-0.1-0.3-0.1-0.4-0.2c0.1-0.5-0.1-0.7-0.6-0.7c0-0.5-0.2-0.7-0.7-0.7c-0.3-1-1-1.5-2.1-1.4c-0.1-0.8-0.8-0.7-1.4-0.7
		C349.8,308.3,349.4,308.5,348.9,309.2z M297.6,357c-0.5,3.5-0.1,6.7,0.6,9.8c1.1,4.9,1.4,9.7,1,14.7c0,0.5,0.1,1,0.2,1.4
		c1.4-8.4,0.2-16.6-1.1-24.9C298.3,357.8,298,357.5,297.6,357z M292.1,360.1c0.4-2.7,0-4.7,0-6.7
		C291.9,355.4,291.5,357.4,292.1,360.1z"/>
	<path d="M306.2,50.6c-0.1,0-0.2,0-0.3-0.1c-2.9-2.7-4.8-6-5.9-9.8c-0.6-2,0-3.8,0.8-5.3c-0.5-2.4-1-4.5-1.4-6.6
		c-0.6-2.9-1.5-5.7-2.7-8.6c-0.4-0.2-1-0.3-1.4-0.7c-0.6-0.6-1.2-0.8-2.1-0.6c-0.4,0.1-1-0.4-1.5-0.7l0.1,0.1c0-1-0.7-1.4-1.3-1.9
		c-3.4-2.7-7.3-4.2-11.5-5.1c-0.6-0.1-1.4,0.1-1.8-0.7c0.3-0.6,1-0.5,1.5-0.4c2,0.4,4,0.9,6,1.4c0.8,0.2,1.5,0.4,2.3,0.5l-0.1-0.1
		c0.4,1.1,0.9,0.5,1.4,0.1l0.1-0.1c1.1,0.6,2.2,1.1,3.9,2c-2-2.2-3.6-3.8-6.1-4l0.1,0.1c-0.5-0.8-1-0.6-1.5,0l0.1-0.1
		c-0.6-0.4-1.1-1-1.7-1.1c-3.4-0.5-6.8-0.9-10.2,0c-4.2,1.1-8.5,2-12.6,3.2c-3.9,1.1-7.2,3.4-10.2,6.1c-0.2,0.2-0.3,0.6-0.4,0.9
		c-0.1,0.1-0.2,0.1-0.2,0.2c0.1-0.1,0.1-0.2,0.2-0.3c3.8-1.5,7.6-3.1,11.5-4.5c1.2-0.4,2.4-0.7,3.6-1l-0.1-0.1
		c-0.3,1-1.4,1.1-2.2,1.4c-2.8,1.2-5.7,2.3-8.6,3.5c-1.2,0.5-2.3,1.1-3.4,1.6c-2.8,1.5-5.1,3.5-6.3,6.4c-1.3,0.7-2.3-0.1-3.4-0.2
		c-1-0.1-2,0.1-3.1,0.1c0.4-1.5,2-0.8,2.7-1.7c-0.1-0.5-0.1-1-0.2-1.5c-0.2-0.1-0.4-0.3-0.6-0.3c-0.9-0.1-1.8-0.2-2.7-0.2
		c-3.6,0-5.6,1.5-6.5,4.9c-0.3,1.2-0.5,2.5-0.7,3.7c-0.5,4.5-1,9.1-1.4,13.7c-0.1,1.7,0,3.4,0.4,5.1c0.3-2.5,0.7-5,1-7.6
		c0.1-0.7,0-1.4,0.7-1.9l-0.1-0.1c-0.2,4.6-0.4,9.1-0.5,13.7c0,1.5-0.5,3.2,1,4.4c0.2,0.2,0.1,0.9,0.1,1.3c0,1.1,0,2.3,0,3.4
		c0,2.6,0.3,5.2,1.1,7.8c0.3,1,0.4,2,0.6,3c0.1,0.5,0.4,1,0.8,2.2c0.3-2.6,0.2-4.4-0.3-6.1c-1.1-3.8-1-7.7-0.5-11.6
		c0.7-5.9,1.6-11.8,2.7-17.6c0.6-3.3,1.9-6.6,2.9-9.9c0.3-0.8,0.8-1.4,1.8-1L240,30c-0.2,0.8-0.4,1.6-0.7,2.3
		c-0.8,1.8-1.7,3.5-0.9,5.6c0.1,0.4-0.1,0.9-0.2,1.3c-1.1,2.8-1.1,5.8-1.3,8.8c-0.1,2.3-0.2,4.6-0.2,6.9c-0.1,2.6-0.3,5.3,0.8,7.8
		c0.5,4.9,1.5,9.7,1.5,14.7c0,4-1.1,7.7-2.1,11.5c-0.3,1-0.9,1.7-2,2.2c0.2-1.6,0.3-3.1,0.5-4.5c0.9-2,1.1-4.1,1.3-6.3
		c0.5-7.3-0.7-14.4-1.9-21.5c0-0.2-0.3-0.4-0.5-0.8c-0.5,3.8,0,7.2,0.6,10.5c0.4,2.3,0.9,4.5,1.1,6.8c0.2,1.8,0.1,3.7,0,5.5
		c-0.1,1.9-0.3,3.9-0.5,5.8c-0.4,0.2-0.8,0.4-1.3,0.6c0-0.5-0.2-0.9-0.1-1.3c0.5-3.1-0.6-5.8-2-8.5c-1.2-2.2-2.3-4.5-3.3-6.8
		c-1.4-3.2-2.3-6.5-2.4-10c0-1.9,0-3.9,0-5.8c0-5,0-10.1,0-15.1c0-3.8,0-7.6,0.8-11.3c0.2-1,0.5-2,0.8-3c1.4-3.8,4.5-5.8,8.6-5.6
		c2.4,0.1,4.8,0.7,7,1.7c0.8,0.4,1.5,0.5,2.4,0c0.8-2.5,2.5-4.4,4.9-5.7c0.1-0.1,0.2-0.1,0.3-0.2c5.2-5.7,12.1-7,19.2-8.2
		c2.1-0.3,4.3-0.5,6.4-1c1-0.2,1.8-0.2,2.7,0.1c2.8,0.9,5.7,1.8,8.5,2.7c0.8,0.2,1.5,0.6,2.1,1.1c1.6,1.1,3.1,2.3,4.7,3.5
		c1.2,0.9,2.2,2.1,2.8,3.5c0.7,1.7,1.4,3.4,2.2,5.1c1.6,3.6,2.1,7.5,2.9,11.3c0.2,0.9-0.1,2.1-0.5,3c-0.8,2-0.7,3.8,0.3,5.6
		c0.8,1.5,1.6,3,2.3,4.6C305.1,48,306.3,49,306.2,50.6L306.2,50.6z M227.9,58.9c0.4-0.7,0.6-1.3,0-2.3
		C227.9,57.6,227.9,58.3,227.9,58.9z M241.9,23.2c0,0.1,0,0.2,0,0.2c0.3,0.1,0.6,0.2,0.9,0.1c0.3-0.1,0.4-0.3,0-0.4
		C242.5,23.1,242.2,23.2,241.9,23.2z"/>
	<path d="M326.1,348.4c0,0.1,0,0.2,0,0.3c0.8,1.7,2.1,3.2,2.3,5.4c0.5-0.6,1-1.3,1.7-2.3c0.2,0.8,0.5,1.2,0.4,1.5
		c-0.2,1.3-1,2.3-2.4,2.5c-1.4-0.5-1.6-1.8-1.7-2.8c-0.3-2-1.6-3.1-3-4.6c-0.4,0.7-0.8,1.3-1.2,1.9c-0.3-1.2-0.6-2.3-0.9-3.4
		l-0.1,0.1c0.3,0,0.7,0.1,1.1,0.2c0.8-0.8-0.4-1.7,0.1-3c0.3-0.4,0.8-1.3,1.5-2.1c1-1.1,2-2.2,3.2-3.4c0.8,0.5,1.7,0.9,2.3,1.5
		c1.2,1.2,2.5,1.9,4.2,1.8c0.3,0,0.7,0.1,1.2,0.2c-0.4,0.6-0.7,1-1,1.5c-1.3-0.4-2.4-0.7-3.6-1.1l0.1,0.1c-0.3-0.3-0.5-0.5-0.8-0.8
		l0.1,0.1c-0.3-0.3-0.5-0.5-0.8-0.8l0.1,0.1c-0.3-0.3-0.5-0.5-0.8-0.8l0.1,0.1c-1-0.6-1-0.6-1.5,0.7l0.1-0.1
		c-0.3,0.3-0.5,0.5-0.8,0.8l0.1-0.1c-0.3,0.3-0.5,0.5-0.8,0.8l0.1-0.1c-0.3,0.5-0.5,1-0.8,1.5l0.1-0.1c-1,1.2-1,1.4,0,2.9l-0.1-0.1
		c0.3,0.3,0.5,0.5,0.8,0.8l-0.1-0.1c0.3,0.3,0.5,0.5,0.8,0.8L326.1,348.4z"/>
	<path d="M262.7,49.9c0.4,0.8,0.8,1.6,1.1,2.5c0.3,0.8,0.4,1.8,0.6,2.9c0.7-0.7,1.3-1.3,1.9-2c0.3,0.3,0.5,0.5,0.5,0.6
		c0.1,1.3-0.6,2.2-1.7,2.7c-0.6,0.3-1.2,0.1-1.5-0.4c-0.4-0.6-0.8-1.2-0.8-1.9c-0.2-2.1-1.5-3.5-3.1-4.9c-0.4,0.6-0.7,1.1-1,1.6
		c-0.8-0.8-0.5-1.8-0.8-2.6l-0.1,0.1c0.4-0.2,0.8-0.4,1.2-0.7c-0.4-2.6-0.4-2.6,0.9-4.4c1-1.4,2.3-2.5,3.7-3.7
		c0.7,0.5,1.5,0.8,2,1.3c1.2,1.4,2.8,1.9,4.6,1.9c0.2,0,0.4,0.1,0.8,0.3c-0.4,0.6-0.8,1.1-1.2,1.7c-1.6-0.7-3-1.4-4.4-2l0.1,0.1
		c0-0.5-0.3-0.8-0.8-0.8l0.1,0.1c-0.3-0.4-0.7-0.7-1.2-1.3c-0.4,0.8-0.7,1.4-1,2l0.1-0.1c-0.3,0.3-0.5,0.5-0.8,0.8l0.1-0.1
		c-0.3,0.3-0.5,0.5-0.8,0.8l0.1-0.1c-1.4,1.4-1.2,2.8,0,4.2l-0.1-0.1c0.3,0.3,0.5,0.5,0.8,0.8l-0.1-0.1c0.3,0.3,0.5,0.5,0.8,0.8
		L262.7,49.9z"/>
	<path d="M330.3,342.9c0.3,0.7,0.5,1.5,0.8,2.4c-0.3,0.6-0.7,1.3-1.1,1.9c0.2,0.5,0.5,1,0.8,1.7c-0.6,0.6-1.3,1.1-1.9,1.7
		c-1-0.8-1.9-1.5-2.8-2.1l0.1,0.1c-0.3-0.3-0.5-0.5-0.8-0.8l0.1,0.1c-0.3-0.3-0.5-0.5-0.8-0.8l0.1,0.1c0-1,0-1.9,0-2.9l-0.1,0.1
		c0.3-0.5,0.5-1,0.8-1.5l-0.1,0.1c0.3-0.3,0.5-0.5,0.8-0.8l-0.1,0.1c0.3-0.3,0.5-0.5,0.8-0.8l-0.1,0.1c0.5-0.2,1-0.5,1.5-0.7
		l-0.1-0.1c0,0.5,0.3,0.8,0.8,0.8l-0.1-0.1c0,0.5,0.3,0.8,0.8,0.8l-0.1-0.1c0,0.5,0.3,0.8,0.8,0.8L330.3,342.9z M325.7,345
		c0.4,1.8,1.2,2.7,2.4,3.1c0.2-0.6,0.2-1.3,0.5-1.8c0.3-0.5,0.9-0.8,1.4-1.2c-0.4-0.3-1.9-1-2.2-1c0-0.4,0-0.7,0-1.6
		C327,343.6,326.3,344.3,325.7,345z"/>
	<path d="M271.7,33.4c0.5-0.4,1.1-0.7,1.6-1.1c0.4,0.4,0.8,0.7,1.2,1.1l-0.1-0.1c-0.3,0.3-0.5,0.7-0.9,0.9c-1.2,0.6-2.5,1.2-3.9,1.8
		c-3.3-0.6-6.7-1.2-10.2-1.9c-1.8-0.4-3.5-1-4.9-2.1l0,0.1c0.9,0.2,1.8,0.3,2.6,0.5c1.4,0.3,2.8,0.7,4.3,1c3.3,0.8,6.5,0.4,9.6-0.8
		C271.3,33.1,271.6,33.3,271.7,33.4c-0.4,0.1-0.7,0.3-0.6,0.8c-0.5,0-1.1,0.1-1.9,0.1c1,0.9,1.4,0.3,1.8-0.2
		C271.3,33.9,271.5,33.6,271.7,33.4z"/>
	<path d="M318.6,331.3c1,0.2,2,0.3,2.9,0.6c4.2,1.2,8.4,1.8,12.6,0.2c0.5-0.2,0.9,0.1,1.1,0.5c-0.4,0-0.8,0.2-0.7,0.7
		c-0.5,0-1.1,0-1.8,0c0.9,0.9,1.4,0.7,1.8-0.1c0.2-0.3,0.4-0.5,0.7-0.8c0.6-0.3,1.2-0.6,1.9-1c0.3,0.3,0.6,0.7,1,1.1l-0.1-0.1
		c-2.4,2-3.7,2.5-6.3,2.1c-2.7-0.4-5.4-0.8-8-1.4C321.8,332.9,320.1,332.4,318.6,331.3L318.6,331.3z"/>
	<path d="M265.4,43c0.7,0.9,1.3,1.8,2.1,2.9c-0.4,0.7-0.8,1.5-1.2,2.3c0.2,0.5,0.4,1,0.7,1.6c-0.7,0.6-1.3,1.2-1.9,1.8
		c-1-0.5-1.2-1.9-2.5-1.7l0.1,0.1c0-0.5-0.3-0.7-0.8-0.8l0.1,0.1c-0.3-0.3-0.5-0.5-0.8-0.8l0.1,0.1c0-1.4,0-2.8,0-4.2l-0.1,0.1
		c0.3-0.3,0.5-0.5,0.8-0.8l-0.1,0.1c0.3-0.3,0.5-0.5,0.8-0.8l-0.1,0.1c0.6-0.7,1.2-1.1,2.2-0.7l-0.1-0.1c0.3,0.3,0.5,0.5,0.8,0.8
		L265.4,43z M264.1,45L264.1,45c-0.2-0.3,0.9-0.9-0.3-1.2c-0.3,0.3-0.7,0.7-1,1.1c-1.3,1.6-0.8,2.8,1.4,3.6c0,0.3,0,0.7,0.5,0.3
		c-0.2-0.1-0.3-0.2-0.5-0.2c0.7-0.9,1.4-1.8,2.1-2.7C265.7,44.8,264.8,45.3,264.1,45z"/>
	<path d="M291,42.4c-0.5-0.1-1.1-0.2-1.6-0.4c2.5-2.4,5.3-4,9.1-4.2c-2.4,1.7-3.2,3.8-3.4,6.5C293.5,44.1,292.2,43.3,291,42.4
		c0.6-0.2,1.2-0.3,1.8-0.4c0.1-0.6,0.1-1.1-0.6-1C291.5,41.1,291.2,41.7,291,42.4z"/>
	<path d="M355.1,340.8c-0.5,0.2-1,0.3-1.8,0.6c1.4-1.9,3.4-3.4,5.4-3.9c1.1-0.3,2.2-0.5,3.3-0.7l-0.1-0.1c-0.1,0.3-0.2,0.8-0.4,0.9
		c-2.2,1.3-2.3,3.6-2.8,5.8c-1.2-0.1-2.3-0.8-3.3-1.5C355.2,341.8,355.2,341.2,355.1,340.8c0.3,0.1,0.7,0.3,1.1,0.5
		c0.1-0.4,0.2-0.8,0.3-1.2c0-0.1,0.1-0.2,0.1-0.2c0,0.1,0,0.2-0.1,0.3C355.9,340,355.4,340.1,355.1,340.8z"/>
	<path d="M343.5,366.7c-3.2-0.1-6.1-1-8.2-3.5c-1.6-1.9-2.6-4-1.9-7c0.7,2.8,1.6,5.2,3.5,6.9C338.8,364.9,341.4,365.4,343.5,366.7z"
		/>
	<path d="M310.4,340.8c2.1,1.3,3.7,3.3,5.7,4.9c1.5,1.2,2.4,3,3.6,4.6c0.7,0.9,1.4,1.8,2.1,2.7c-0.5,0.5-0.8,0.2-1.1-0.2
		c-3.2-3.6-6.4-7.2-9.6-10.8C310.7,341.6,310.6,341.2,310.4,340.8z"/>
	<path d="M269.7,57.4c0.9,3,1.7,5.2,3.6,6.8c1.8,1.6,4.3,2,6.4,3.1c-0.1,0.8-0.7,0.6-1,0.6c-2.2-0.4-4.2-1.1-5.9-2.5
		C270.5,63.5,269.2,61.2,269.7,57.4z"/>
	<path d="M256.5,52.8c-0.4-0.2-0.8-0.4-1.1-0.7c-2.2-2.4-4.3-4.8-6.4-7.2c-0.9-1-1.9-1.9-2.3-3.3c0.7-0.5,0.8,0.1,1.1,0.4
		c1.3,1.4,2.4,3.1,4.2,4c0.4,0.2,0.7,0.6,0.9,1c1.1,1.5,2.2,2.9,3.3,4.4c0.3,0.3,0.3,0.8,0.5,1.2L256.5,52.8z"/>
	<path d="M272.4,31.4c0.1-0.4,0.3-0.8,0.5-1.4c-1.4-0.6-2.9-1.1-4.9-2c1.4,0,2.1-0.1,2.7,0c2.9,0.4,2.9,0.4,5.5-0.9
		c0.2,0.6,0.4,1.2,0.6,1.9C275.4,30,274.1,31.1,272.4,31.4L272.4,31.4z"/>
	<path d="M332.4,327.1c0.9,0.1,1.8,0,2.7,0.2c1.7,0.3,3.2,0.2,4.5-1.3c0.2,0.5,0.3,0.8,0.4,1.1l-0.1,0.1l0.1-0.2
		c0.3,0.1,0.5,0.1,0.8,0.2l-0.1-0.1c-0.1,0.3,0,0.8-0.3,0.9c-1.4,1.1-2.7,2.3-4.6,2.4l0.1,0.1c0.3-0.5,0.7-1.1,1-1.6
		c-1.4-0.4-2.6-0.8-3.8-1.2C332.8,327.6,332.7,327.2,332.4,327.1L332.4,327.1z"/>
	<path d="M349,318.2c-0.4-0.6-0.7-1.1-1.1-1.7c2.6-0.7,4.7-0.3,7.1,1.4c-0.4,1-1.3,0.9-2,0.7c-1-0.2-1.9-0.7-2.8-1.1
		c0,0,0.1-0.1,0.1-0.1c0.3,0.5,0.6,1.1,1.1,2c-1.1-0.6-1.8-1-2.5-1.4L349,318.2z"/>
	<path d="M353.6,333.5c3.5-1.2,6.3-2.4,9.3-0.9c0,0.3,0,0.4-0.1,0.5c-0.1,0.1-0.2,0.1-0.3,0.1c-2.5,0.2-4.9,0.4-7.4,0.6
		C354.9,333.9,354.6,333.8,353.6,333.5z"/>
	<path d="M284.2,18.3c-0.1-0.3-0.1-0.7-0.2-1.2c0.8-0.4,1.7-0.3,2.5-0.1c1.8,0.4,3.5,0.9,5.3,1.3l-0.1-0.1c-0.1,0.3-0.1,0.6-0.2,1
		c-1.7,1.1-3.1-0.1-4.4-0.9c-0.4,0.3-0.7,0.5-0.9,0.6l0.1-0.1c-0.7-0.2-1.4-0.5-2.1-0.7L284.2,18.3z"/>
	<path d="M264.1,17.1c-2.6,0.8-4.5,1.3-6.5,1.9c-1.9,0.6-3.6,1.6-5.5,2.1c1.9-1.8,2.5-2.2,5.5-3.1C259.4,17.5,261.3,16.7,264.1,17.1
		z"/>
	<path d="M283.5,21.9c-0.7,0.1-0.9,0.2-1.1,0.1c-3.1-1.1-6.2-2.2-9.9-3.6c2.5-0.3,4.2,0.8,5.9,1.1C280.2,20,281.8,20.7,283.5,21.9z"
		/>
	<path d="M326.5,316.3c-3.6,1.3-7.1,2.5-10.5,3.8c0.8-1.3,0.8-1.3,2.9-2.1c1.2-0.5,2.3-0.9,3.5-1.2
		C323.7,316.5,324.9,315.7,326.5,316.3z"/>
	<path d="M336.6,317.4c4.2,0.5,7.7,1.7,10.1,3.4c-0.2,0.1-0.4,0.2-0.6,0.2c-3.1-1.1-6.2-2.2-9.3-3.4
		C336.7,317.6,336.7,317.4,336.6,317.4L336.6,317.4z"/>
	<path d="M298.9,33.9c-2.7-0.2-5.4,1.4-8.4,0.7C294.1,32.5,295.8,32.4,298.9,33.9z"/>
	<path d="M273.8,39.1c-0.8,2.1-2.2,2.5-3.5,2.9c-1.1,0.3-1.1,0.3-3-0.6c1.2-0.3,2.2-0.4,3.2-0.8C271.4,40.3,272.3,39.8,273.8,39.1z"
		/>
	<path d="M275.9,24.4c-1.5-0.5-3-0.9-4.6-1.4c0.5-0.6,0.8-1,1.2-1.4l-0.1,0.1c1.4,0.3,2.9,0.6,4.5,1c-0.4,0.7-0.8,1.2-1.1,1.8
		L275.9,24.4z"/>
	<path d="M336.5,320.9c1.5,0.3,3.1,0.6,4.7,1c-2,2-4.1,1.1-6.1,0.1C335.6,321.6,336.1,321.2,336.5,320.9L336.5,320.9z"/>
	<path d="M331.1,340.7c2.2-0.8,4-1.5,5.8-2.2c0.5,0.5,0.1,0.9-0.3,1.3C335.1,341.1,333.3,341.3,331.1,340.7z"/>
	<path d="M330.1,338.8c2.5-1.5,4.3-2.7,6.3-3.9c-0.1,0.5,0,0.9-0.1,1.1C334.8,337.6,333.1,338.6,330.1,338.8z"/>
	<path d="M267.1,39.3c1.8-1.1,3.5-2.1,5.2-3.1c0,0,0.2,0.1,0.5,0.3c-0.5,1.2-1.6,1.8-2.6,2.4C269.3,39.3,268.4,39.9,267.1,39.3z"/>
	<path d="M313.8,349.1c0.5,0.4,1,0.9,1.5,1.3c0.9,0.7,1.7,1.4,2.6,2.1l-0.1-0.1c-0.1,0.2-0.3,0.5-0.3,0.5
		C315.5,352.3,314.2,351.2,313.8,349.1L313.8,349.1z"/>
	<path d="M256.5,56.2c1.6,0.6,2.4,1.8,2.5,3.5c-0.1-0.2-0.3-0.4-0.4-0.6c-0.2-0.3-0.4-0.5-0.7-0.8c-0.2-0.2-0.3-0.3-0.5-0.5
		c-0.2-0.3-0.5-0.5-0.6-0.8C256.7,56.8,256.6,56.4,256.5,56.2L256.5,56.2z"/>
	<path d="M322.8,358c-1.4-0.7-2.7-1.6-2.8-3.4l-0.1,0.1C321.3,355.4,322.3,356.6,322.8,358L322.8,358z"/>
	<path d="M289.8,91.4c1.2,0.4,1.7,1.1,1.5,2.2C290.7,92.9,290.3,92.2,289.8,91.4z"/>
	<path d="M337.9,332.6c0.8-0.8,1.6-1.6,2.3-2.4C339.8,331.4,339.2,332.4,337.9,332.6L337.9,332.6z"/>
	<path d="M253.1,53.4c-1.6-0.2-2.3-1.3-2.7-2.7l-0.1,0.1C251.6,51.2,252.4,52.2,253.1,53.4L253.1,53.4z"/>
	<path d="M250.4,50.6c-1.3-0.5-1.7-1.6-2.1-2.7l-0.1,0.1C249.5,48.7,249.8,49.1,250.4,50.6L250.4,50.6z"/>
	<path d="M282.1,18.3c0.7,0,1.4,0,2.1,0l-0.1-0.1c0.2,0.5,0.4,1,0.7,1.8C283.6,19.4,282.7,19,282.1,18.3L282.1,18.3z"/>
	<path d="M240.1,30.1c0.3-1.7,0.3-1.7,1.5-2C241.4,29.1,240.7,29.5,240.1,30.1L240.1,30.1z"/>
	<path d="M272.9,73.8c0.8,0.4,0.7,1,0.5,2C273.1,75,272.3,74.7,272.9,73.8z"/>
	<path d="M319.9,345.1c0.9,0.4,1.3,1.1,1.4,2.1l0.1-0.1C320.2,346.8,320,346,319.9,345.1L319.9,345.1z"/>
	<path d="M313.1,348.4c-0.9-0.4-1.3-1.1-1.4-2l-0.1,0.1C312.6,346.8,313,347.5,313.1,348.4L313.1,348.4z"/>
	<path d="M315.2,322.7c-0.5,0-1,0-1.5,0c0-0.1,0-0.1,0-0.2c0.5,0,1,0,1.5,0C315.2,322.6,315.2,322.6,315.2,322.7z"/>
	<path d="M230.5,40.4c0-0.7,0-1.4,0-2.5C231.1,39,230.7,39.7,230.5,40.4L230.5,40.4z"/>
	<path d="M286.9,12.1c-0.2-0.5-0.5-1-0.7-1.5l-0.1,0.1c1,0,1.7,0.3,2.1,1.3l-0.1,0.1c-0.5,0-0.9-0.1-1.4-0.1L286.9,12.1z"/>
	<path d="M275.8,24.5c0.4,0.1,0.8,0.1,1.3,0.2c-0.4,0.9-1.1,1.1-1.9,1.2l0.1,0.1c0.2-0.5,0.4-1,0.6-1.5L275.8,24.5z"/>
	<path d="M318.6,352.6c0.7,0.5,1.4,1.1,1.3,2.1l0.1-0.1C319.1,354.2,318.8,353.4,318.6,352.6L318.6,352.6z"/>
	<path d="M304.2,328.5c0-0.4,0-0.9,0.2-1.2c0.1-0.2,0.5-0.3,0.8-0.4c0,0.3,0.1,0.7,0,0.8C304.9,328,304.5,328.2,304.2,328.5
		L304.2,328.5z"/>
	<path d="M256.6,56.1c-0.9-0.4-1.2-1.2-1.3-2.1l-0.1,0.1C256.1,54.5,256.6,55.1,256.6,56.1L256.6,56.1z"/>
	<path d="M302,562.2c1.1,1,1.1,1.8,0,2.7l0,0C302.1,564,302.1,563.1,302,562.2L302,562.2z"/>
	<path d="M332.4,329.7c-0.5,0-1-0.1-1.4-0.1c0-0.1,0-0.2,0-0.3c0.5,0,1,0.1,1.4,0.1C332.5,329.5,332.4,329.6,332.4,329.7z"/>
	<path d="M256.5,46.5c1,0.4,1.5,1,1.3,2.1l0.1-0.1C257,48.2,256.5,47.5,256.5,46.5L256.5,46.5z"/>
	<path d="M249.8,23.8c0.6-0.2,1.1-0.4,1.7-0.6c0,0.1,0.1,0.2,0.1,0.3C250.9,23.6,250.3,23.7,249.8,23.8L249.8,23.8z"/>
	<path d="M353.7,390.6c1.1,0.3,1.3,0.6,1.4,2l0.1-0.1C354.3,392.1,353.9,391.4,353.7,390.6L353.7,390.6z"/>
	<path d="M300,260.9c1.1,0.9,1.1,1.8,0,2.7l0,0C300,262.7,300,261.8,300,260.9L300,260.9z"/>
	<path d="M328.2,312.6c0.4-0.3,0.8-0.7,1.6-0.2C329.1,312.4,328.6,312.5,328.2,312.6L328.2,312.6z"/>
	<path d="M336.6,317.3c-0.4,0-0.9-0.1-1.3-0.1c0-0.1,0-0.2,0.1-0.2C335.8,317.1,336.2,317.3,336.6,317.3L336.6,317.3z"/>
	<path d="M337,372.8c0,0.5,0.1,0.9,0.1,1.6C336.4,373.8,336.4,373.3,337,372.8z"/>
	<path d="M267.3,30.5c-0.1-0.1-0.2-0.2-0.3-0.3c0.1,0,0.2-0.1,0.3-0.1c0.2,0,0.4,0.1,0.6,0.2C267.6,30.4,267.4,30.4,267.3,30.5z"/>
	<path d="M332.5,327c-0.4,0-0.9,0-1.6,0C331.6,326.4,332,326.8,332.5,327L332.5,327z"/>
	<path d="M253.1,53.4c0.8,0,1.6-0.1,2.1,0.7l0.1-0.1c-0.5,0-1,0-1.5-0.1C253.5,53.8,253.3,53.5,253.1,53.4L253.1,53.4z"/>
	<path d="M264.7,13.4c0.4-0.2,0.9-0.3,1.3-0.5c0,0.1,0.1,0.2,0.1,0.3C265.6,13.2,265.1,13.3,264.7,13.4L264.7,13.4z"/>
	<path d="M348.9,318.1c-0.2,0.3-0.3,0.8-0.5,0.8c-0.4,0-0.9-0.1-0.8-0.8l-0.1,0.1c0.5,0,1,0,1.5,0L348.9,318.1z"/>
	<path d="M311,344.9c0.2,0.5,0.4,1,0.6,1.5l0.1-0.1C310.9,346.1,311.2,345.4,311,344.9L311,344.9z"/>
	<path d="M282.1,18.2c-0.3-0.1-0.6-0.1-0.3-0.1C281.6,17.9,281.8,18.1,282.1,18.2L282.1,18.2z"/>
	<path d="M320,345c-0.8-0.2-0.5-0.9-0.6-1.4l-0.1,0C319.6,344,319.7,344.5,320,345L320,345z"/>
	<path d="M235.9,25.1c0.1-0.2,0.2-0.4,0.4-0.5c0.1,0,0.3,0.1,0.5,0.2c-0.1,0-0.2,0.1-0.3,0.1C236.3,25,236,25,235.9,25.1L235.9,25.1
		z"/>
	<path d="M249.7,23.7c-0.2,0.1-0.5,0.3-0.3,0.1C249.2,23.9,249.5,23.9,249.7,23.7L249.7,23.7z"/>
	<path d="M322.7,358.1c0.2,0.1,0.4,0.2,0.5,0.3c0,0.1-0.1,0.3-0.2,0.5c-0.1-0.1-0.2-0.2-0.2-0.3
		C322.7,358.5,322.8,358.2,322.7,358.1L322.7,358.1z"/>
	<path d="M286.2,10.6c-0.6,0.1-1.2,0-1.4-0.7c0,0-0.1,0.1-0.1,0.1c0.5,0,1,0,1.5,0l-0.1-0.1C286.1,10.2,286.1,10.4,286.2,10.6
		L286.2,10.6z"/>
	<path d="M272.5,21.6c-0.3-0.1-0.5-0.1-0.3-0.1C272,21.4,272.2,21.6,272.5,21.6L272.5,21.6z"/>
	<path d="M298.5,389.7c-0.1,0.2-0.1,0.5-0.1,0.3C298.3,390.2,298.5,390,298.5,389.7L298.5,389.7z"/>
	<path d="M239.2,89.8c-0.1,0.3-0.1,0.5-0.1,0.3C239.1,90.3,239.2,90.1,239.2,89.8L239.2,89.8z"/>
	<path d="M338.5,324.9c-0.1,0.1-0.3,0.3-0.4,0.4C338.2,325.2,338.4,325.1,338.5,324.9L338.5,324.9z"/>
	<path d="M339.9,324.3c-0.3,0.7-0.9,0.6-1.5,0.6l0.1,0.1C338.8,324.3,339.4,324.3,339.9,324.3L339.9,324.3z"/>
	<path d="M257.2,36.8c-0.5-0.1-1.1,0-1.3-0.7l-0.1,0.1C256.4,36.1,257,36.1,257.2,36.8L257.2,36.8z"/>
	<path d="M340,324.4c0.1-0.2,0.3-0.5,0.4-0.7c0,0,0.2,0,0.3,0.1c0,0.1-0.1,0.4-0.2,0.4C340.4,324.3,340.1,324.3,340,324.4L340,324.4
		z"/>
	<path d="M300.6,323.6c-0.3,0.7-0.8,0.7-1.4,0.6l0.1,0.1C299.6,323.7,300.1,323.7,300.6,323.6L300.6,323.6z"/>
	<path d="M336.6,320.8c-0.2,0-0.4,0-0.6,0c-0.1,0-0.1-0.2-0.2-0.3c0.1,0,0.2,0,0.3,0C336.3,320.6,336.4,320.7,336.6,320.8
		L336.6,320.8z"/>
	<path d="M347.6,318.1c-0.6,0-1.2,0.1-1.3-0.7l-0.1,0.1C346.7,317.5,347.4,317.3,347.6,318.1L347.6,318.1z"/>
	<path d="M346.3,317.4c-0.2,0-0.4,0-0.6,0c-0.1,0-0.2-0.1-0.3-0.1c0.1-0.1,0.3-0.3,0.4-0.2C345.9,317.1,346,317.3,346.3,317.4
		L346.3,317.4z"/>
	<path d="M256.6,46.5c-0.8-0.3-0.6-0.9-0.6-1.5l-0.1,0.1C256.1,45.6,256.3,46.1,256.6,46.5L256.6,46.5z"/>
	<path d="M248.3,47.9c-0.7-0.3-0.6-0.9-0.5-1.5l-0.1,0.1C248.1,46.9,248.3,47.3,248.3,47.9L248.3,47.9z"/>
	<path d="M319.9,342.3c0.6-0.2,1.2-0.1,1.4,0.6l0.1-0.1C320.8,343,320.2,342.9,319.9,342.3L319.9,342.3z"/>
	<path d="M275.2,25.8c-0.2,0.1-0.4,0.2-0.2,0.1C274.7,26,275,25.9,275.2,25.8L275.2,25.8z"/>
	<path d="M257.2,43.8c0.2,0,0.4,0,0.6,0c0.1,0,0.2,0.1,0.3,0.2c-0.2,0.1-0.4,0.3-0.5,0.2C257.4,44.1,257.3,43.9,257.2,43.8
		L257.2,43.8z"/>
	<path d="M320,335.3c-0.6,0-1.2,0.1-1.4-0.7l-0.1,0.1C319.2,334.6,319.8,334.6,320,335.3L320,335.3z"/>
	<path d="M319.9,335.4c0.2,0,0.4,0,0.6,0c0.1,0,0.2,0.2,0.3,0.3c-0.2,0-0.4,0.1-0.5,0.1C320.1,335.7,320.1,335.5,319.9,335.4
		L319.9,335.4z"/>
	<path d="M257.1,39.6c0.2,0.1,0.5,0.2,0.4,0.1C257.6,39.8,257.4,39.7,257.1,39.6L257.1,39.6z"/>
	<path d="M275,32.6c0.1,0.5-0.1,0.7-0.6,0.7l0.1,0.1C274.7,33.2,274.9,32.9,275,32.6L275,32.6z"/>
	<path d="M256,45c-0.1,0-0.2,0-0.3,0C255.8,45,255.9,45.1,256,45L256,45z"/>
	<path d="M275.7,31.9c0,0.5-0.2,0.7-0.7,0.7l0.1,0.1C275.3,32.5,275.6,32.2,275.7,31.9L275.7,31.9z"/>
	<path d="M272.4,31.3c-0.1,0.2-0.2,0.3-0.3,0.5C271.8,31.2,272.2,31.4,272.4,31.3L272.4,31.3z"/>
	<path d="M276.5,31.3c-0.3,0.2-0.5,0.4-0.8,0.6l0.1,0.1C276.1,31.8,276.3,31.6,276.5,31.3L276.5,31.3z"/>
	<path d="M257.9,54.1c0.1,0,0.2,0.1,0.3,0.1C258.1,54.1,258,54.1,257.9,54.1L257.9,54.1z"/>
	<polygon points="257.1,36.9 257.3,36.9 257.2,36.8 	"/>
	<path d="M257.2,53.4c0.5,0,0.7,0.2,0.7,0.7c0,0,0.1-0.1,0.1-0.1C257.4,54.1,257.2,53.9,257.2,53.4L257.2,53.4z"/>
	<path d="M257.2,53.4c-0.5,0.1-0.7-0.1-0.8-0.6l0.1-0.1C257.1,52.7,257.3,52.9,257.2,53.4L257.2,53.4z"/>
	<path d="M247.7,46.4c-0.1,0-0.2,0-0.3,0C247.5,46.4,247.6,46.4,247.7,46.4L247.7,46.4z"/>
	<polygon points="318.6,331.2 318.5,331.1 318.6,331.3 	"/>
	<path d="M355.1,392.6c0.1,0.1,0.2,0.1,0.4,0.2c-0.1,0-0.2,0-0.2,0C355.2,392.7,355.2,392.6,355.1,392.6L355.1,392.6z"/>
	<path d="M335.8,330.4c-0.1,0.1-0.1,0.3-0.2,0.4c0-0.1,0-0.2,0-0.2C335.7,330.6,335.8,330.6,335.8,330.4L335.8,330.4z"/>
	<path d="M278,27.2C278,27.2,277.9,27.1,278,27.2L278,27.2z"/>
	<polygon points="353.8,390.5 353.6,390.3 353.7,390.6 	"/>
	<path d="M302.1,336.8c0-0.1,0-0.2,0-0.2C302.1,336.6,302.1,336.7,302.1,336.8L302.1,336.8z"/>
	<polygon points="362,336.8 362.1,336.7 362,336.7 	"/>
	<path d="M235.8,25c-0.1,0.1-0.2,0.3-0.3,0.4c0-0.1,0-0.2,0.1-0.2C235.7,25.2,235.8,25.2,235.8,25L235.8,25z"/>
	<path d="M362.7,352.6c-0.1-0.1-0.2-0.2-0.3-0.3c0.1,0,0.2,0,0.2,0C362.7,352.4,362.7,352.5,362.7,352.6L362.7,352.6z"/>
	<path d="M317.9,352.6c0.3,0,0.5,0,0.8,0l0.1-0.1C318.4,352.5,318.1,352.5,317.9,352.6L317.9,352.6z"/>
	<path d="M313.8,349.1c-0.6,0.2-0.7-0.2-0.7-0.6l-0.1,0.1C313.5,348.4,313.7,348.7,313.8,349.1L313.8,349.1z"/>
	<path d="M319.5,343.5c-0.1,0-0.1-0.1-0.2-0.1C319.3,343.5,319.3,343.5,319.5,343.5L319.5,343.5z"/>
	<path d="M321.3,342.9c0.1,0.1,0.2,0.2,0.3,0.3c-0.1,0-0.2-0.1-0.2-0.1C321.4,343,321.4,342.9,321.3,342.9L321.3,342.9z"/>
	<polygon points="254.5,32 254.4,31.9 254.5,32.1 	"/>
	<path d="M276.6,31.4c0.1-0.1,0.1-0.3,0.2-0.4c0,0.1,0,0.2,0,0.2C276.7,31.3,276.6,31.3,276.6,31.4L276.6,31.4z"/>
	<path d="M277.9,27.1C277.9,27.1,278,27.2,277.9,27.1L277.9,27.1z"/>
	<path d="M286.2,18.9c0.5-0.1,0.8,0.1,0.7,0.7l0-0.1C286.4,19.6,286.2,19.4,286.2,18.9L286.2,18.9z"/>
	<path d="M286.8,19.6c0.2,0,0.3,0.1,0.5,0.1c-0.1,0.1-0.2,0.2-0.3,0.3C287,19.9,287,19.7,286.8,19.6L286.8,19.6z"/>
	<path d="M300.7,323.7C300.7,323.7,300.6,323.6,300.7,323.7L300.7,323.7z"/>
	<path d="M299.2,324.2c-0.1,0.1-0.1,0.3-0.2,0.4c0-0.1,0-0.1,0-0.2C299.1,324.4,299.2,324.3,299.2,324.2L299.2,324.2z"/>
	<path d="M341.4,326.4c0-0.1,0.1-0.2,0.1-0.2C341.5,326.2,341.4,326.2,341.4,326.4L341.4,326.4z"/>
	<path d="M341.3,326.3c-0.2,0.3-0.5,0.5-0.7,0.8l0.1,0.1C340.9,326.9,341.2,326.6,341.3,326.3L341.3,326.3z"/>
	<path d="M563.8,445.5c-0.6-0.7-0.9-1-1-1.3c-0.6-2.2-1.1-4.4-1.6-6.6c-0.1-0.4,0-0.9,0.1-1.3c0.1-0.3,0.4-0.6,0.7-0.6
		c0.3-0.1,0.7,0.1,0.9,0.3c0.3,0.3,0.4,0.8,0.5,1.2C564,439.8,564.1,442.4,563.8,445.5z"/>
	<path d="M565.6,523.1c1.1,2.8,0.2,5.1,0.5,7.4c0.1,0.3-0.4,0.7-0.5,1.1c-1.2,0-1.5-0.8-1.6-1.6
		C563.7,527.7,563.7,525.5,565.6,523.1z"/>
	<path d="M500.4,406.2c0.1,0.7,0.4,1.1,0.3,1.5c-0.4,1.9-1.5,3.6-3.4,5.3c0.1-0.8-0.1-1.5,0.2-2
		C498.2,409.4,498.6,407.5,500.4,406.2z"/>
	<path d="M516.3,407.1c0.9-1,1.6-0.7,2.1-0.2c1.1,1.3,2.4,2.7,1.8,5C518.3,410.5,517.9,408.3,516.3,407.1z"/>
	<path d="M498.8,387.9c1.7-0.9,3.2-1.2,4.9-1.4c-0.5,1.6-0.8,1.8-2.5,2.3C500.3,389,500.3,389,498.8,387.9z"/>
	<path d="M563.3,464.4c0.9,2.1,0.8,3.5,0,5.2C562.5,467,562.5,467,563.3,464.4z"/>
	<path d="M520.7,413.2c1.7,0.8,1.8,0.9,2.8,3.8c-0.5,0.5-0.8,0-1-0.3C521.9,415.7,521.4,414.7,520.7,413.2z"/>
	<path d="M556.7,425c0.4,1.5-0.4,2.3-1.1,3.4C554.9,426.8,554.9,426.8,556.7,425z"/>
	<path d="M560.4,420.8c0.4,1.3-0.4,1.8-1,2.6c-0.3-0.3-0.7-0.6-0.7-0.8C558.7,421.7,559.1,420.9,560.4,420.8z"/>
	<path d="M565.6,516.9c-0.5,0.5-0.8,0.8-1.1,1c-0.3,0.2-0.9-0.5-0.7-0.9c0.2-0.4,0.5-0.8,0.8-0.9C564.8,516,565.2,516.5,565.6,516.9
		z"/>
	<path d="M495.8,420.6c0-0.8,0-1.5,0-2.2c0.7-0.2,1.1,0,1,0.5C496.8,419.5,496.7,420.2,495.8,420.6z"/>
	<path d="M495.3,427.1c-0.4-1.1-0.6-2,0.1-3C495.8,425.2,495.8,426.1,495.3,427.1z"/>
	<path d="M563.7,510.3c0.1-0.1,0.3-0.2,0.4-0.4c0.1,0.2,0.2,0.4,0.4,0.7c-0.2,0.1-0.4,0.2-0.5,0.2
		C563.8,510.8,563.8,510.5,563.7,510.3z"/>
	<path d="M565.1,519.7c0.3,1.1,0.4,1.5,0.5,1.8c0,0.3-0.2,0.6-0.3,0.9C564.2,521.8,564.8,521.1,565.1,519.7z"/>
	<path d="M506.1,409.8c-0.2-0.4-0.4-0.5-0.4-0.6c0.2-0.4,0.5-0.8,1-0.6c0.1,0,0.2,0.2,0.2,0.2C506.7,409.2,506.4,409.5,506.1,409.8z
		"/>
	<path d="M510.8,404.1c-0.3,0.1-0.6,0.4-0.8,0.4c-0.2,0-0.3-0.4-0.5-0.7c0.3-0.1,0.6-0.2,0.9-0.2
		C510.5,403.6,510.6,403.9,510.8,404.1z"/>
	<path d="M565.1,454.1c-0.4-0.9-0.7-1.1-0.7-1.4c0-0.3,0.3-0.5,0.4-0.8c0.2,0.2,0.5,0.4,0.6,0.6
		C565.6,452.9,565.4,453.2,565.1,454.1z"/>
	<path d="M565.5,459.1c-0.3,0.3-0.5,0.6-0.7,0.8c-0.2-0.2-0.4-0.4-0.6-0.6c0-0.1,0.2-0.4,0.3-0.4
		C564.9,458.8,565.1,458.9,565.5,459.1z"/>
	<path d="M523.5,420c0-0.4,0-0.7,0-1.1c0.1,0,0.2,0,0.3,0c0,0.4,0,0.7,0,1.1C523.7,420,523.6,420,523.5,420z"/>
	<path d="M504.3,383.4c-0.2-0.1-0.3-0.1-0.5-0.2c0.1-0.1,0.2-0.2,0.2-0.2c0.2,0,0.3,0.1,0.5,0.2
		C504.4,383.3,504.3,383.4,504.3,383.4z"/>
	<path d="M284,559.3c2.3,1.8,4.9,3,7.8,3.5c0.9,0.1,1.7,0.6,2.4,0.9c0,0.7-0.2,1.2-0.7,1.1c-2.4-0.6-5.1-0.8-7.2-2.1
		c-2.2-1.4-4.6-2.1-7-2.7c-0.8-0.2-1.5-0.4-2.3-0.7c0.2-0.9,0.9-0.8,1.4-0.7c1.9,0.3,3.8,0.6,5.8,0.9L284,559.3z"/>
	<path d="M303.2,423c0.3,0.5,0.7,0.8,0.7,1.2c0.1,0.8,0,1.6-0.1,2.4c-0.1,1-0.2,1.9,0.6,2.9c0.6,0.8,0.5,1.9,0,2.9
		C302.4,429,301,428.2,303.2,423z"/>
	<path d="M328.2,402c-5.3-0.6-5.3-0.6-8.8,0.3c-0.4-0.7,0.1-1.1,0.6-1.3c2.7-1.2,5.4-1.2,8.1,0.4C328.1,401.4,328.1,401.6,328.2,402
		z"/>
	<path d="M334,401.7c-0.2,0.5-0.9,0.7-1.5,0.4c-0.2-0.1-0.4-0.7-0.3-0.8c0.4-0.6,1-0.5,1.5-0.2C333.9,401.2,333.9,401.5,334,401.7z"
		/>
	<path d="M317.4,404.8c1.1-1,1.1-1,1.8-0.1C318.6,404.8,318.1,404.8,317.4,404.8z"/>
	<path d="M275.8,491.8c0,0.8,0.1,1.7-0.9,2.9C275.2,493.3,274.9,492.4,275.8,491.8L275.8,491.8z"/>
	<path d="M291.8,454.9c0.3,0.1,0.5,0.2,0.6,0.3c0.2,0.5,0.1,0.9-0.4,1c-0.2,0-0.6-0.4-0.6-0.6C291.3,455.5,291.6,455.2,291.8,454.9z
		"/>
	<path d="M342.9,432c0.3-0.1,0.6-0.4,0.8-0.4c0.2,0,0.3,0.4,0.4,0.7c-0.3,0.1-0.6,0.2-0.9,0.2C343.2,432.5,343.1,432.2,342.9,432z"
		/>
	<path d="M292,451.6c0.1,0.1,0.3,0.2,0.3,0.3c0,0.2-0.2,0.3-0.2,0.5c-0.1-0.1-0.2-0.1-0.2-0.2C291.9,452,292,451.8,292,451.6z"/>
	<path d="M277,488.5c0,0.1-0.1,0.2-0.1,0.3c-0.1-0.1-0.2-0.2-0.2-0.3c0,0,0.1-0.1,0.2-0.2C276.9,488.3,277,488.4,277,488.5z"/>
	<path d="M275.9,491.9c0.1-0.1,0.1-0.2,0.2-0.3c0,0.1,0,0.1,0,0.2C276,491.8,275.9,491.8,275.9,491.9L275.9,491.9z"/>
	<path d="M432.1,542.3c-0.9,0.6-1.2,0.8-1.5,0.9c-0.7,0.1-1.4,0.3-2,0.3c-5-0.2-9,2.2-12.7,5.2c-0.9,0.7-1.5,1.7-2.6,1.9
		c-1-0.5-0.5-1.1-0.2-1.4c3-3.2,6.6-5.7,10.9-6.7c1.9-0.5,3.8-0.6,5.8-0.7C430.3,541.6,431,541.9,432.1,542.3z"/>
	<path d="M441.3,575.8c1,1,0.7,1.7,0.4,2.5c-0.3,0.6-0.3,1.3-0.5,2c-1.7,0.9-2.9,0.1-4.2-1C437.9,577.2,440.3,577.4,441.3,575.8z"/>
	<path d="M444.4,547.2c-3-0.7-5.3-0.9-7.4-2.6c0.6-0.4,0.9-0.8,1.3-0.8C439.9,543.8,442.2,545,444.4,547.2z"/>
	<path d="M453.2,547.9c0.5-1.6,1-3.2,1.5-4.8c0.7,0,0.9,0.4,0.9,0.9c0,1.5-0.3,2.9-1.3,4.1C453.9,548.5,453.5,548.3,453.2,547.9z"/>
	<path d="M446,548.4c1,0.7,2,1.5,2.9,2.2c0.2,0.2,0.4,0.5,0.6,0.8c-0.6,0.5-1.1,0.2-1.6,0C446.6,550.6,446.6,550.6,446,548.4z"/>
	<path d="M444.8,566.7c0.5-0.5,0.9-1,1.3-1.5c0.3-0.4,0.4-0.9,0.7-1.8c0.5,0.7,0.8,1,0.9,1.4c0.1,0.4-0.1,0.9-0.2,1.3
		C446.9,567,446.5,567.1,444.8,566.7z"/>
	<path d="M444.7,562.7c-0.5-0.9-0.1-1.7,0.4-2.4C446.3,561.2,446.2,561.7,444.7,562.7z"/>
	<path d="M439.3,552.5c0.9-0.1,2-0.4,2.7,0.7c-0.4,1-1.1,1-1.9,0.8C439.3,553.8,439.2,553.1,439.3,552.5L439.3,552.5z"/>
	<path d="M450.5,553.7c1.8,0.5,1.9,0.5,1.4,2C451.1,555.4,450.6,554.8,450.5,553.7z"/>
	<path d="M456.2,541.9c-0.6-0.9,0.1-1.5,0.6-2.1C457,540.8,457,540.8,456.2,541.9z"/>
	<path d="M452.5,557.7c0.2-0.1,0.5-0.3,0.5-0.3c0.3,0.2,0.6,0.5,0.8,0.9c0.1,0.1-0.1,0.5-0.2,0.6c-0.5,0.3-0.8-0.2-1-0.5
		C452.5,558.2,452.5,557.9,452.5,557.7z"/>
	<path d="M418.9,576c0.1,0,0.3,0,0.3,0c0.2,0.3,0.5,0.6,0.6,1c0,0.1-0.4,0.3-0.6,0.4c-0.2-0.3-0.4-0.7-0.6-1
		C418.5,576.4,418.7,576.2,418.9,576z"/>
	<path d="M439.3,552.4c-0.8-0.1-1.6-0.1-2.5-0.2C437.8,551.8,438.6,551.7,439.3,552.4L439.3,552.4z"/>
	<path d="M434.6,567.5c-0.4,0.1-0.7,0.2-1.1,0.2c0,0-0.2-0.5-0.2-0.5c0.3-0.2,0.7-0.3,1-0.5C434.3,566.9,434.4,567.1,434.6,567.5z"
		/>
	<path d="M417.3,564.2c0.3,0.3,0.5,0.5,0.6,0.7c0,0.1-0.2,0.5-0.2,0.5c-0.3,0-0.5-0.2-0.8-0.3C417,564.9,417.1,564.7,417.3,564.2z"
		/>
	<path d="M455,562.5c-0.1,0.2-0.2,0.4-0.2,0.6c-0.2-0.1-0.4-0.1-0.5-0.3c-0.1-0.1,0.1-0.4,0.2-0.5
		C454.6,562.3,454.8,562.4,455,562.5z"/>
	<path d="M458.3,536.3c0.1,0,0.3,0.1,0.2,0.1c0,0.2-0.1,0.4-0.1,0.6c-0.1,0-0.3-0.1-0.4-0.1C458.2,536.6,458.3,536.5,458.3,536.3z"
		/>
	<path d="M402.2,436c1,1.2,1.1,2.2,1,3.2c-0.1,2.6,0.4,5.2-0.4,7.8c0,0.1-0.4,0.2-0.6,0.3C401.8,444.7,401.8,439.9,402.2,436z"/>
	<path d="M391.9,449.6c-1.7,1.6-3.7,2.5-6.1,2.9C387.1,450.7,388.9,449.8,391.9,449.6z"/>
	<path d="M404,452.8c0.2,0.1,0.5,0.1,0.6,0.3c0.8,1.4,1.5,2.8,2.2,4.1c-0.5,0.7-1,0.3-1.1,0c-0.7-1.3-1.3-2.6-1.9-3.9
		C403.6,453.2,403.9,452.9,404,452.8z"/>
	<path d="M428.8,458.6c0,1.9-0.4,2.2-2.5,1.7c0.3-0.4,0.4-0.9,0.7-1.1c0.6-0.3,1.3-0.4,1.9-0.5L428.8,458.6z"/>
	<path d="M427.2,471c-1.5,0.2-2.5-0.5-3.6-1.3C425.1,469.6,425.1,469.6,427.2,471z"/>
	<path d="M409.1,461.2c-0.9-0.4-1.8-0.8-1.5-2.1C409.4,459.9,409.4,459.9,409.1,461.2z"/>
	<path d="M412.6,465.3c-0.3,0.2-0.5,0.4-0.7,0.4c-0.3-0.1-0.7-0.2-0.8-0.5c-0.1-0.2,0-0.6,0.1-0.9c0-0.1,0.5-0.1,0.6,0
		C412.1,464.6,412.4,465,412.6,465.3z"/>
	<path d="M380.3,452.9c1.2-0.2,1.8-0.3,2.5-0.4c0,0.9-0.6,0.7-0.9,0.8C381.6,453.3,381.3,453.1,380.3,452.9z"/>
	<path d="M392.4,457.4c0.4-0.7,0.8-0.9,1.7-0.1C393.3,457.3,392.8,457.3,392.4,457.4L392.4,457.4z"/>
	<path d="M383.3,462c-0.1-0.1-0.1-0.1-0.2-0.2c0.2,0,0.3,0.1,0.5,0.1C383.4,462,383.4,462,383.3,462z"/>
	<path d="M392.3,457.3c-0.1,0.1-0.2,0.2-0.3,0.3c0-0.1,0-0.2,0.1-0.2C392.2,457.4,392.3,457.4,392.3,457.3L392.3,457.3z"/>
	<path d="M463.8,485.8c0.1,0.7,0.2,1,0.1,1.1c-1.1,1.4-8.7,7.4-11.3,9c0.1-0.4,0-0.8,0.2-0.9c0.3-0.4,0.7-0.9,1.2-1.2
		C457.2,491.1,460.4,488.6,463.8,485.8z"/>
	<path d="M434.7,484.7c-0.6-1.4,0-2.7,0.5-4c0.9-2.8,2.2-5.4,4.2-8c0,1.6,0,1.6-0.9,3.3c-0.5,0.9-0.9,1.8-1.3,2.8
		c-0.4,1-0.8,2.1-1.2,3.2C435.6,482.9,435.8,484,434.7,484.7z"/>
	<path d="M433.9,502.8c0.4-0.5,0.6-0.9,0.7-0.9c3.4-0.2,6.8-0.3,10.3-0.3C441.5,503.2,437.9,503.1,433.9,502.8z"/>
	<path d="M447.2,489.3c0.4,1.2,0.7,2.1,1.1,3.5C447.1,491.2,447.1,491.2,447.2,489.3z"/>
	<path d="M437.1,487.8c-0.1,1.1-0.1,2.1-0.2,3.2c-0.1,0-0.1,0-0.2,0c0-1.1,0-2.2,0-3.3C436.8,487.8,436.9,487.8,437.1,487.8z"/>
	<path d="M387.1,431c0.2-0.5,0.2-0.6,0.3-0.7c3.7-3.5,4.7-8,4.9-12.8c0-0.9-0.1-1.8-0.2-2.7c-0.1-0.7-0.3-1.3-0.4-2
		c-0.1-0.6,0-1.2,0.5-1.5c0.4-0.3,1.3,0.2,1.6,0.9c0.4,1,0.7,1.9,0.9,2.9c0.5,3.2,0.1,6.4-0.9,9.5c-0.9,2.7-2.7,4.8-5.3,6.1
		C388.1,430.9,387.7,430.9,387.1,431z"/>
	<path d="M385,431c-1.7,2.6-3.5,3.5-5.6,3.1c0.1-0.2,0.1-0.5,0.3-0.6C381.2,432.8,382.7,432,385,431z"/>
	<path d="M387,404.4c1.1,0.1,1.7,0.7,2.1,1.6c-1.1,0.5-1.8,0-2.3-0.8C386.7,405.1,387,404.6,387,404.4z"/>
	<path d="M391.9,410c-0.5-0.4-0.8-0.7-1.1-1c-0.2-0.2-0.3-0.6-0.5-1c0.4,0,0.7-0.2,0.9,0C391.7,408.4,392.4,408.7,391.9,410z"/>
	<path d="M371.6,432.9c0.1,0,0.2-0.1,0.3-0.1c0,0.1,0.1,0.3,0.1,0.4c-0.1,0-0.2,0-0.3-0.1C371.6,433.1,371.6,433,371.6,432.9z"/>
	<polygon points="352.3,449.9 352.5,449.9 352.4,449.8 	"/>
	<path d="M351.7,449.1c0.2,0.2,0.4,0.5,0.6,0.7l0.1-0.1C352.2,449.5,352,449.3,351.7,449.1L351.7,449.1z"/>
	<path d="M351.8,449.1c-0.1,0-0.2,0-0.3-0.1C351.6,449,351.6,449.1,351.8,449.1L351.8,449.1z"/>
	<polygon points="375.3,433.5 375.5,433.5 375.5,433.7 	"/>
	<path d="M559.1,402.2c-0.1,0.8,1.1,1.6-0.2,2.6c-1.5-0.3-2.5-1.4-3.5-2.6c0.2-1.1,0.9-1.4,1.8-1c0.7,0.3,1.4,0.7,2.1,1.1
		L559.1,402.2z"/>
	<path d="M559.2,402.3c0.1-0.6,0.1-1.3,0.2-1.9c2.8,0.4,3.1,0.7,3,2.7c-1.4,0.5-2.2-1-3.4-0.9L559.2,402.3z"/>
	<path d="M506.6,154.8c-0.8-0.7-1.5-1.2-2-1.8c-0.8-0.9-1.6-1.9-2.4-2.9c-0.5-0.6-1.2-1.1-0.8-2c0.3-0.6,1.5-0.4,2.3,0.6
		c1.1,1.4,2.1,3,3,4.5C506.8,153.5,506.7,154,506.6,154.8z"/>
	<path d="M534.9,212.3c0.9,1.1,1,1.4,0.4,1.8c-0.2,0.1-0.7,0.1-0.8,0C533.9,213.6,534,213.2,534.9,212.3z"/>
	<path d="M537.8,218.8c-1.1-1.1-1.1-1.1-1.1-2.6C537.9,216.9,537.7,218,537.8,218.8L537.8,218.8z"/>
	<path d="M493.2,142c-0.1-0.5-0.2-0.8-0.1-0.9c0.2-0.3,0.4-0.5,0.7-0.6c0.1-0.1,0.5,0.2,0.5,0.2c-0.1,0.3-0.2,0.6-0.3,0.9
		C493.8,141.7,493.6,141.8,493.2,142z"/>
	<path d="M510.8,165.8c-0.5-0.8-0.8-1-0.8-1.3c0-0.2,0.2-0.5,0.2-0.7c0.2,0.2,0.5,0.3,0.6,0.6C511,164.6,510.9,164.9,510.8,165.8z"
		/>
	<path d="M532.6,207.4c-0.2,0.1-0.3,0.2-0.5,0.3c-0.1-0.2-0.2-0.4-0.3-0.7c0.2-0.1,0.4-0.2,0.5-0.1
		C532.5,207,532.5,207.2,532.6,207.4z"/>
	<path d="M507.2,156.7c0.1,0.2,0.3,0.3,0.4,0.5c-0.2,0.1-0.3,0.2-0.5,0.2c0,0-0.2-0.2-0.2-0.2C507,157,507.1,156.8,507.2,156.7z"/>
	<path d="M491.2,145.6c-0.1-0.1-0.2-0.1-0.2-0.2c0-0.1,0.1-0.1,0.2-0.2c0.1,0.1,0.2,0.1,0.2,0.2
		C491.4,145.5,491.3,145.5,491.2,145.6z"/>
	<path d="M509.5,160.6c-0.1,0.1-0.2,0.1-0.2,0.2c-0.1-0.1-0.2-0.2-0.2-0.2c0-0.1,0.1-0.1,0.2-0.2
		C509.3,160.4,509.4,160.5,509.5,160.6z"/>
	<path d="M436.6,107.5c0.6,2.8-1.2,4.5-2.7,6.8c-0.3-0.8-0.5-1.1-0.4-1.3C434,110.9,434.8,108.9,436.6,107.5z"/>
	<path d="M456.4,113.3c-1.4-2.1-2.4-3.6-3.5-5c0.1-0.7,0.4-1.1,1.1-0.8c1,0.4,1.5,1.3,2,2.2C456.5,110.6,456.5,110.7,456.4,113.3z"
		/>
	<path d="M435,88.9c1.7-1.1,3.2-1.2,4.9-1.5c0,1.4-0.8,1.6-1.6,2C437.3,89.9,436.2,90.2,435,88.9z"/>
	<path d="M459.7,117.8c-1.8-0.5-1.8-2.1-2.5-3.3c0.4-0.1,0.7-0.3,0.8-0.2C458.9,115.2,459.2,116.6,459.7,117.8z"/>
	<path d="M432.8,119c0.5,1.1,0.4,2-0.5,2.8C431.8,120.1,431.8,120.1,432.8,119z"/>
	<path d="M460.2,121.8c-0.4-0.6-0.6-0.9-0.6-1.2c0-0.3,0.1-0.5,0.2-0.8c0.2,0.2,0.6,0.3,0.6,0.5
		C460.5,120.6,460.3,120.9,460.2,121.8z"/>
	<path d="M445.2,104.8c0.7-0.2,1.1-0.3,1.4-0.4c0.1,0,0.3,0.4,0.3,0.4c-0.2,0.2-0.4,0.6-0.7,0.6
		C446.1,105.5,445.8,105.2,445.2,104.8z"/>
	<path d="M431.2,125.3c0.5,1.4,0.5,1.4,0,3C431.2,127.1,431.2,126.4,431.2,125.3z"/>
	<path d="M442.5,110.6c-0.2-0.2-0.4-0.5-0.4-0.5c0.2-0.2,0.5-0.4,0.7-0.6c0.1,0.1,0.3,0.4,0.3,0.4
		C442.9,110.1,442.7,110.3,442.5,110.6z"/>
	<path d="M440.8,84.1c-0.2,0.1-0.3,0.2-0.5,0.2c0,0-0.2-0.1-0.2-0.2c0-0.1,0.1-0.2,0.2-0.2C440.5,83.9,440.6,84,440.8,84.1z"/>
	<path d="M258,151.3c-2.1-1.9-1.4-3.7-1.4-5.5c0.8-0.2,1,0.2,1,0.6C257.7,147.9,257.8,149.3,258,151.3z"/>
	<path d="M259.7,153c-0.1,0-0.2,0-0.3-0.1c-0.4-0.4-0.9-0.7-0.5-1.4c0-0.1,0.2-0.1,0.3-0.1c0.5,0,0.9,0.7,0.7,1.3
		C259.9,152.8,259.8,152.9,259.7,153z"/>
	<path d="M255.5,194.9c0.1-0.2,0.1-0.4,0.3-0.5c0.1-0.1,0.4,0.1,0.5,0.2c0,0.2-0.1,0.3-0.2,0.5C255.9,195.1,255.7,195,255.5,194.9z"
		/>
	<path d="M256,192.3c0-0.3-0.1-0.7,0-1c0-0.2,0.3-0.3,0.5-0.4c0.1,0.2,0.3,0.4,0.3,0.5c-0.1,0.3-0.2,0.6-0.3,0.9
		C256.3,192.3,256.1,192.3,256,192.3z"/>
	<path d="M266.7,172.5c-0.2,0.3-0.3,0.5-0.4,0.7c-0.2-0.2-0.5-0.3-0.7-0.5c-0.1-0.1,0.2-0.4,0.3-0.5
		C266.2,172.2,266.5,172.3,266.7,172.5z"/>
	<path d="M256.1,252.8c0-0.6,0-1.2,0-1.8c0.1,0,0.2,0,0.3,0c0,0.6,0,1.2,0,1.8C256.3,252.8,256.2,252.8,256.1,252.8z"/>
	<path d="M283,124.9c-0.3-0.4-0.5-0.6-0.7-0.8c0.2-0.2,0.5-0.4,0.7-0.4c0.3,0,0.5,0.2,0.8,0.4C283.6,124.3,283.4,124.5,283,124.9z"
		/>
	<path d="M286.6,123.9c-0.2,0.1-0.4,0.2-0.5,0.1c-0.1-0.1-0.2-0.3-0.2-0.5c0.2-0.1,0.4-0.2,0.5-0.2
		C286.5,123.4,286.5,123.7,286.6,123.9z"/>
	<path d="M267,177.4c-0.2,0.1-0.4,0.1-0.5,0.1c0-0.2-0.1-0.4-0.1-0.6c0-0.1,0.2-0.3,0.3-0.4C266.8,176.8,266.9,177.1,267,177.4z"/>
	<path d="M261.1,95.7c0.2-0.1,0.4-0.2,0.6-0.3c0,0,0.1,0.2,0.2,0.3c-0.2,0.1-0.4,0.2-0.6,0.2C261.3,96,261.2,95.8,261.1,95.7z"/>
	<path d="M283,128.8c0.1,0,0.2-0.1,0.3-0.1c0,0.1,0.1,0.3,0.1,0.4c-0.1,0-0.2,0-0.3,0C283,129,283,128.9,283,128.8z"/>
	<path d="M260.9,131.7c-0.1,0.1-0.2,0.3-0.4,0.3c-0.1,0-0.3-0.2-0.4-0.3c0,0,0.1-0.2,0.2-0.2C260.6,131.5,260.7,131.6,260.9,131.7z"
		/>
	<path d="M262.6,156.6c-0.1,0.2-0.1,0.4-0.2,0.5c-0.1-0.1-0.2-0.2-0.2-0.2c0-0.2,0.1-0.4,0.2-0.5
		C262.5,156.4,262.6,156.5,262.6,156.6z"/>
	<path d="M367.6,245.7c0.6-1.7,0.9-3.1,2.8-3.4c0.8-0.1,1.5-1,2.1-1.6c3.4-3.5,7.7-4.2,12.3-3.9c0.3,0,0.6,0.2,1.2,0.5
		c-0.5,0.4-0.8,0.7-1.2,0.8c-2.4,0.4-4.8,0.8-7.2,0.9c-1.1,0.1-2,0.4-2.8,1.1c-1.4,1.2-2.7,2.5-4,3.8
		C370.1,244.7,369.4,245.5,367.6,245.7z"/>
	<path d="M397.9,242.5c-2.7-0.6-4.5-1.6-6.1-2.6c-0.1-1.3,0.8-1.2,1.4-1.1C394.9,239.4,396.5,240.2,397.9,242.5z"/>
	<path d="M404.8,251.9c-1.6-2-2.9-4.1-4.4-6.7c0.7,0.1,1,0,1.2,0.1c0.4,0.3,0.9,0.7,1.2,1.2C404,248.2,404.4,250.1,404.8,251.9
		L404.8,251.9z"/>
	<path d="M404.3,234.5c1,0.7,1.1,1.6,0.9,2.5c-0.2,0.8-0.6,1.7-1.1,2.4c-0.3,0.5-1,0.4-1.5-0.3C403.2,237.6,403.8,236.1,404.3,234.5
		z"/>
	<path d="M375.7,268.4c0,1-1.1,1.6-1.9,1.1c-0.8-0.4-1.2-1.1-1-1.9c0.1-0.3,0.3-0.6,0.5-0.8C374.3,266.3,375.8,267.3,375.7,268.4z"
		/>
	<path d="M404.7,251.9c0.9,0.3,1.2,1,1.4,1.8c0.4,1.5,0.3,2.9-0.1,4.5C405,256.7,404.8,255.7,404.7,251.9L404.7,251.9z"/>
	<path d="M413.9,221.7c-0.4,2.2-1.7,2.9-2.5,4c-1.1-0.3-0.7-1-0.4-1.3C411.7,223.6,412.6,222.9,413.9,221.7z"/>
	<path d="M398.5,254.7c-1,0.9-1.6,1.4-2.3,2.1C395.9,254.9,396.4,254.3,398.5,254.7z"/>
	<path d="M382.6,254.3c0.8-0.3,1.2-0.5,1.6-0.5c0.2,0,0.6,0.5,0.6,0.7c0,0.2-0.4,0.6-0.7,0.6C383.7,254.9,383.3,254.7,382.6,254.3z"
		/>
	<path d="M393,245.6c-0.5,0.4-0.7,0.7-0.9,0.7c-0.5,0.1-0.9-0.2-0.8-0.7c0-0.2,0.4-0.6,0.6-0.5C392.1,245,392.5,245.3,393,245.6z"/>
	<path d="M406.5,233.2c-0.4-0.2-0.7-0.4-0.7-0.5c0.2-0.4,0.4-0.7,0.6-1.1c0.1,0.1,0.4,0.2,0.4,0.3
		C406.7,232.4,406.6,232.7,406.5,233.2z"/>
	<path d="M368.5,258.4c0,0.1,0,0.2,0,0.3c-0.1,0.5-0.5,0.8-1,0.6c-0.2-0.1-0.6-0.4-0.6-0.6c0-0.6,0.5-0.6,1-0.6
		C368.1,258.1,368.3,258.3,368.5,258.4z"/>
	<path d="M369.4,262.1c-0.5,0-0.9,0-1.3-0.1c0-0.2,0-0.5,0.1-0.5c0.3-0.1,0.6-0.2,0.9-0.2C369.2,261.3,369.3,261.7,369.4,262.1z"/>
	<path d="M395.1,262.2c-0.3,0.1-0.6,0.4-0.8,0.4c-0.2-0.1-0.3-0.5-0.5-0.7c0.3-0.1,0.6-0.2,0.9-0.2C394.9,261.6,395,262,395.1,262.2
		z"/>
	<path d="M383.9,258.2c-0.1,0.2-0.2,0.5-0.2,0.5c-0.3,0-0.5-0.2-0.7-0.2c0.1-0.2,0.3-0.4,0.4-0.4C383.5,258,383.7,258.1,383.9,258.2
		z"/>
	<path d="M408.8,229.2c-0.1,0.1-0.1,0.2-0.2,0.2c-0.1-0.2-0.2-0.4-0.2-0.5c0-0.1,0.1-0.1,0.2-0.2C408.6,228.8,408.7,229,408.8,229.2
		z"/>
	<path d="M338.5,137.2c0.2,0.1,0.5,0.2,0.5,0.3c0.5,1.8,0.5,7.6,0,10.9c-0.4-0.5-0.8-0.8-0.8-1.1c0-3.3,0-6.6,0-9.9
		C338.3,137.3,338.4,137.3,338.5,137.2z"/>
	<path d="M327.8,150.1c0.4,0.9,0,1.1-0.3,1.3c-2.4,1.4-3.6,1.8-5.5,1.7C323.7,151.5,325.7,150.9,327.8,150.1z"/>
	<path d="M340.3,153.5c1.2,1.5,2,3,2.6,4.9c-1.5-0.8-1.6-0.8-2.1-2C340.5,155.5,339.6,154.7,340.3,153.5z"/>
	<path d="M343.5,160.5c1.3-0.6,1.3-0.6,2.2,1.3C344.7,161.8,344.7,161.8,343.5,160.5z"/>
	<path d="M363.1,171.8c-0.4,0-0.8,0.2-1.1,0c-0.7-0.3-1.6-0.3-1.9-1.2C361.6,170.9,361.6,170.9,363.1,171.8z"/>
	<path d="M365.2,160.9c-0.6,0.2-1.1,0.5-1.7,0.7c-0.2,0-0.6-0.3-0.7-0.5c0-0.2,0.2-0.7,0.4-0.8c0.6-0.1,1.2,0,1.9,0
		C365.1,160.4,365.2,160.7,365.2,160.9z"/>
	<path d="M348.5,166.8c-0.2-0.1-0.4-0.1-0.6-0.2c-0.5-0.3-1-0.6-0.7-1.2c0.1-0.1,0.4-0.3,0.6-0.2c0.6,0.1,1,0.5,1,1.1
		C348.8,166.4,348.6,166.6,348.5,166.8z"/>
	<path d="M330,157.8c-0.5,0.7-1.1,1.1-2,0.7C328.6,158,329.1,157.5,330,157.8z"/>
	<path d="M317.4,153.6c0.5-0.1,1-0.2,1.6-0.3c-0.3,1.1-1,0.7-1.5,1C317.5,154.1,317.5,153.9,317.4,153.6z"/>
	<polygon points="319.5,163 319.6,162.8 319.7,163.1 	"/>
	<path d="M322.7,132.1c5.7-5.4,6.3-11.4,5.2-17.8c-0.1-0.3-0.3-0.7-0.2-1c0.1-0.4,0.3-0.9,0.6-1.1c0.3-0.3,1,0,1.4,0.6
		c0.8,1.3,1.2,2.7,1.3,4.2c0.2,2.7-0.1,5.3-0.8,7.8c-0.9,3-2.6,5.4-5.4,6.8C324.4,131.8,323.9,131.8,322.7,132.1z"/>
	<path d="M320.8,132.4c-0.5,1.6-1.9,2-3.2,2.6c-0.7,0.3-1.4,0.7-2.3-0.1C316.9,133.6,318.9,133.2,320.8,132.4z"/>
	<path d="M325.2,107c-1.1,0.4-1.7-0.1-2.3-0.9c-0.1-0.1,0-0.5,0.2-0.6c0.1-0.1,0.5-0.3,0.6-0.2C324.4,105.6,325.2,105.9,325.2,107z"
		/>
	<path d="M328.1,111.4c-0.7-1.2-1.1-1.8-1.5-2.4c0.3-0.1,0.6-0.4,0.7-0.3C328,109.2,328.7,109.7,328.1,111.4z"/>
	<path d="M288.6,150.6c-0.2,0-0.4,0-0.5-0.1c-0.1-0.1,0-0.3-0.1-0.4c0.1,0,0.2,0,0.3,0C288.4,150.3,288.5,150.4,288.6,150.6z"/>
	<path d="M308,133.8c0,0.1,0.1,0.2,0.1,0.3c-0.1,0-0.3,0.1-0.4,0.1c0-0.1,0-0.2,0.1-0.3C307.8,133.8,308,133.8,308,133.8z"/>
	<polygon points="311.4,134.3 311.5,134.5 311.3,134.4 	"/>
	<polygon points="282.7,145.1 282.8,145.2 282.7,145 	"/>
	<path d="M293.7,124.4C294.1,124.7,293.8,124.3,293.7,124.4L293.7,124.4z"/>
	<path d="M401,187c-0.8,0.9-1,1.3-1.4,1.6c-3.4,2.7-6.7,5.4-10.1,8.1c-0.7-0.3-0.6-0.7-0.3-1.1c0.5-0.5,0.9-1,1.5-1.4
		c2.8-2.3,5.7-4.6,8.6-6.8C399.5,187.2,399.9,187.2,401,187z"/>
	<path d="M371.4,185.3c-0.7-4.4,1.9-7.6,3.9-11.8c0.2,0.9,0.5,1.2,0.4,1.4c-0.8,1.7-1.8,3.4-2.5,5.2
		C372.5,181.9,372,183.6,371.4,185.3z"/>
	<path d="M370.6,203.2c0.2-0.1,0.4-0.3,0.6-0.3c3.4-0.2,6.8-0.3,11-0.5C378,204.2,374.3,203.9,370.6,203.2z"/>
	<path d="M373.1,189.9c-0.1,1.1-0.2,2.3-0.2,3.4c0,1.1,0,2.2-0.3,3.3c0-1.7,0-3.4,0-5.1C372.6,191,373,190.5,373.1,189.9
		L373.1,189.9z"/>
	<path d="M384.1,193.3c-0.9-0.6-0.6-1.4-0.6-3C384.1,191.8,384.2,192.6,384.1,193.3L384.1,193.3z"/>
	<path d="M373.2,190c0-0.8,0-1.5,0-2.6C373.8,188.5,373.5,189.2,373.2,190L373.2,190z"/>
	<path d="M384,193.4c0.1,0,0.2,0,0.2,0.1C384.2,193.4,384.1,193.3,384,193.4L384,193.4z"/>
	<path d="M491.7,103.8c0.2-1.3,0.8-1.8,1.6-1.6c1.3,0.4,2.2,1.2,2.5,2.5c0.1,0.3-0.2,0.6-0.3,0.9c-1.8,0.2-2.5-1.6-3.9-2
		L491.7,103.8z"/>
	<path d="M498.5,104.3c-1.4-0.5-2.5-0.9-3.1-2.1c0.1-0.2,0.1-0.5,0.3-0.6c0.6-0.6,1.3-0.3,1.8,0.1c0.7,0.4,1.6,0.9,1.5,2
		C499,103.8,498.8,104,498.5,104.3z"/>
	<path d="M264.1,45c-0.1,0.1-0.2,0.3-0.2,0.4c0-0.1,0-0.2,0-0.2C263.9,45.2,264.1,45.2,264.1,45L264.1,45z"/>
</g>
</svg>
