<?xml version="1.0" encoding="utf-8"?>
<!-- Generator: Adobe Illustrator 19.2.0, SVG Export Plug-In . SVG Version: 6.00 Build 0)  -->
<svg version="1.1" id="Layer_2" xmlns="http://www.w3.org/2000/svg" xmlns:xlink="http://www.w3.org/1999/xlink" x="0px" y="0px"
	 viewBox="0 0 900 600" style="enable-background:new 0 0 900 600;" xml:space="preserve">
<g>
	<path d="M346.3,354.2c-0.1-0.5,0-0.9,0.8-1c0.5,0.9,1,1.9,1.7,3.1c3.3,0.6,6.7,0.5,10.1,0.6c1.2,0,2.3-0.4,3.2-1.3
		c0.1-0.1,0.2-0.2,0.3-0.2c4.4-5.1,10.4-6.2,16.5-6.9c10-1.2,19.2,1.5,28,5.8c2.2,1.1,4.4,2.3,5.7,4.3c3.8,0.8,7.4,1.4,11,2.2
		c2.4,0.5,4.7,1.4,6.7,3.1c0.9,0.8,2,1.2,3,1.8c2.5,1.5,5.1,3,7.7,4.4c1.8,1,3.7,2.1,5.6,3.1c4.4,2.1,7.8,5.1,10.3,9.3
		c0.9,1.6,2.2,3.1,3.6,4.3c4.9,4.5,9.4,9.4,13.3,14.6c3.5,4.7,6.5,9.8,8.9,15.2c0.7,1.6,1.5,3.1,2.8,4.5c0.9,1,1.7,2.3,2.5,3.4
		c1.2-0.4,2.2-0.9,3.3-1c1,0,2,0.5,3,0.7c1.7,0.5,3.2,1.6,5.1,0.9c0.4-0.1,0.9,0.1,1.3,0.3c1.3,0.7,2.5,1.4,3.7,2.1
		c0.6,0.4,1.1,1.1,0.8,1.8c-0.4,1,0,1.8,0.4,2.6c0.5,1.1,0.9,2.2,1.2,3.3c0.3,1,0.4,2,0.6,3.2c0.3,0,0.7,0.1,0.9,0
		c0.4-0.4,0.9-0.8,1-1.3c0.3-0.9,0-1.9-0.5-2.7c-0.9-1.5-1.9-3-2.8-4.5c0.3-0.7,0.8-0.5,1.1-0.1c1.1,1.5,2.1,3.1,3.1,4.7
		c0.7,1.1,0.6,2.2,0.3,3.4c-0.4,1.2-1,2.1-2.4,2.3c-0.3,0-0.6,0.2-1,0.4c0.3,0.4,0.5,0.7,0.7,0.8c5.8,2.7,11.7,5,18.1,5.7
		c2.2,0.2,4.5,0.4,6.7,0.5c0.6,0,1.2-0.1,1.7-0.3c0.6-0.1,1.1-0.5,1.7-0.5c4.1,0,7.8-1.8,11.6-2.9c3.8-1.1,7.6-2.6,11.2-4.2
		c4.6-2.1,9-4.6,14.1-5.7c2.5-0.5,4.8-1.9,6.9-3.5c0.9-0.7,1.8-1.6,2.3-2.6c1.1-2,2.8-3.1,4.7-4.1c0.6-0.3,1.4-0.3,2-0.3
		c1.7,0,3.2,0.6,4.8,1.2c1.3,0.5,2.6,1.2,3.8,1.8c1.1,0.5,2.3,1.1,3.5,1.6c1.1,3,2.2,6.1,3.3,9.3c1.4,4.3,1.4,8.6,0,12.9
		c-1,3.1-2.7,5.8-5,8c-3.2,3.1-6.8,5.4-10.9,7.1c-1,0.4-2,0.7-3.1,0.8c-3.9,0.3-7.2,2-10.8,3.2c-0.7,0.3-1.3,0.9-2,1.4
		c-2.3,1.6-4.6,3.3-6.9,4.9c-1.6,1.1-3.2,2-5.2,1.8c-0.3,0-0.7,0.2-1,0.3c-0.4,0.7,0.1,1.1,0.5,1.5c3.2,3.3,6.9,5.8,11.2,7.3
		c0.3,0.1,0.7,0.3,1,0.4c7.2,2.1,13.7,5.7,19.6,10.4c1.1,0.9,2.2,1.7,3.3,2.7c4.6,4.3,9.1,8.6,13.6,12.9c3.3,3.2,6.9,6.1,10.5,8.9
		c2.7,2.1,5.5,4.1,8.2,6.1c2.7,1.9,5.3,3.9,8.2,5.5c3.2,1.8,6.1,4.1,8.4,7c0.4,0.5,1,1,1.5,1.5c1.4-0.4,2.8-0.9,4.1-1.2
		c4.5-0.9,5.7-0.8,8.6,3.5c0.5,0.7,0.7,1.5,1.2,2.2c1,1.6,2,3.2,3.2,4.6c1.2,1.5,2.7,2.7,3.7,4.2c1.3,2,2.2,4.2,3.1,6.3
		c0.8,2,1.9,3.8,3.8,5c1.1,0.7,1.8,1.7,2.2,3.1c0.3,1.1,0.9,2.2,1.5,3.1c1.9,2.8,3.9,5.6,5.9,8.4c0.5,0.7,0.8,1.4,1,2.2
		c0.9,3.5,1,7-1,10.6c-2.4,2-5.6,2.7-8.9,3.1c-5.7,0.7-11.5,1.1-17.3,0.5c-2.1-0.2-4.2-0.2-6.4-0.2c-2.3,0-4.2-0.9-6.1-2.3
		c-2.7-1.8-3-4-2.5-6.7c0.2-0.9,0-1.9,1.2-2.5c1.2,1.9,0.3,4,0.8,5.5c2.4,3.7,5.7,4.4,9.5,4.2c5.1-0.2,10.2,0,15.2,0
		c3.2,0,6.4-0.5,9.4-1.3c1.1-0.3,2.2-0.7,3.1-1c2.2-3.3,1.6-6.6,1.2-9.8c-0.1-0.5-0.4-1.1-0.8-1.5c-2.4-2.6-4.3-5.6-5.7-8.9
		c-1-2.4-2.6-4.2-4.7-5.6c-0.5-0.3-0.9-0.7-1.6-1.2c-0.4,0.8-0.8,1.6-1.2,2.5c-0.6-0.2-1-0.4-1.3-0.6c-0.3-0.2-0.5-0.4-0.9-0.7
		c-3.9,0.2-7.6,1.9-12.3,1.4c2.5-2.4,4.9-2.7,7.2-3.3c2.4-0.6,4.8-1.3,7.5-0.5c-0.2-0.7-0.3-1.1-0.4-1.8c-1.4,0-3,0.3-4.2-0.9
		c-0.3-0.3-1.1-0.2-1.7-0.1c-3,0.1-5.8,1-8.6,2c-0.9,0.3-1.7,0.7-2.5,1c-0.9-0.5-0.7-1.2-0.2-1.5c1-0.8,2.1-1.5,3.3-2
		c2.9-1.3,6.1-2,9.3-2.1c0.8,0,1.6,0,2.5,0c0.2-1.2-0.2-1.7-1-2.1c-0.2-0.1-0.5-0.2-0.7-0.2c-3.4-0.2-6.9-0.4-10.2,0.3
		c-1.9,0.4-3.6,1.1-5.2,2.2c-0.7,0.4-1.4,0.8-2,1.2c-0.7-0.5-0.5-0.9-0.3-1.3c1.3-1.8,3.1-2.9,5.1-3.6c2.3-0.9,4.7-1.5,7.2-1.5
		c1.3,0,2.6-0.1,4.2-0.1c-0.9-1.4-1.6-2.6-2.4-3.7c-0.6,0.1-1.2,0.1-2,0.2c-0.6-1.4-1.2-2.9-1.9-4.4c-0.7-1.4-1.3-2.8-2.4-3.5
		c-3.8-0.3-7,1.1-10.2,2.2c-1.8,0.6-2.2,1.3-2,3.2c0,0.1,0,0.2,0.1,0.3c0.8,3.8,1,3.5-2.2,7.2c-0.3,0.4-0.6,0.7-1,1.1
		c-1.7,2.1-3.2,4.4-6.3,4.7c-0.1,1.2,0,2.3-0.2,3.3c-0.1,0.8-0.2,1.8-0.7,2.3c-3.1,2.8-3.8,6.6-4.3,10.5c-0.1,0.5-0.1,0.9-0.2,1.4
		c0,0.1,0,0.2,0.1,0.5c1.2,1,2.8,1.5,4.3,2c0.7,0.2,1.6,0.4,1.9,0.8c0.9,1.7,2.6,1.9,4,2.8c0.9,0.5,1.8,1.2,2.6,1.8
		c0.3,0.3,0.5,0.8,0.1,1.2c-0.2,0.1-0.5,0.2-0.6,0.2c-4.3-2-8.5-4.1-12.8-6.1c-0.5-0.9-1-1.8-1.4-2.6c0.3-2.3,0.6-4.3,0.8-6.4
		c0.1-1.4,0.8-2.5,1.6-3.5c1.5-1.8,2.5-3.7,2.2-6.1c-0.2-1.4,0.7-2.4,1.5-3.4c-1.5-2.7-3.5-4.7-6.1-5.9c-3.3-1.5-6.7-3-10-4.5
		c-0.2-0.1-0.4-0.2-0.7-0.2c-3.1,0-5.6-1.7-8.2-3c-5.3-2.6-10.8-4.8-16.3-6.9c-1.7-0.6-3.4-0.9-5.2-0.7c-3.9,0.5-7.6-0.3-10.9-2.3
		c-3.6-2.2-7.2-4.5-10.7-6.9c-2-1.3-3.6-3-4.6-5.3c-0.3-0.7-0.9-1.4-1.5-2c-5.2-5.3-10.8-10.2-16.6-15c-0.7-0.6-1.6-1.1-2.3-1.7
		c-1.1-0.9-2.5-1.4-3.9-1.6c-2.7-0.3-5.4-0.5-8,0.8c-1,0.5-2,0.8-3,1.2c-0.8,2-1.6,3.9-2.5,5.8c-0.4,1-1,1.9-1.6,2.8
		c-0.3,0.5-0.7,1.1-1.2,1.2c-3.2,1.3-5.7,3.7-9.3,4.3c-1,0.2-2,0.8-3.2,1.3c-4.6-1.3-9.3-2.6-14.1-3.9c-0.8-0.2-1.6-0.5-2.4-0.6
		c-2.2-0.2-4.1-0.9-5.8-2.3c-0.4-0.3-0.8-0.5-1.2-0.7c-1.9-0.9-3.8-1.2-5.8-0.1c-1.9,1.1-3.8,1.2-5.7,0.1c-1-0.6-2-0.7-3.1-0.7
		c-1.2,0-2.3,0-3.5,0c-2.5,2.5-3,6-5,8.6c0.4,1.3,0.7,2.5,1,3.8c1.7,5.4,0.1,9.9-3.5,14.1c-2.8,3.2-6.1,5.9-9.8,8
		c-6.9,3.9-13.8,7.8-20.9,11.2c-4.7,2.2-9.3,4.6-14.1,6.7c-5.9,2.7-11.9,5.2-17.8,7.9c-1.4,0.6-2.7,1.4-4,2.2
		c-3.8,2.4-7.9,4.2-12.2,5.7c-1.4,0.5-3,0.5-4.5,0.6c-2.1,0.2-4.2,0.3-6.3,0.3c-1,0-2.2-0.2-3.1-0.6c-2.2-1.1-4.3-2.4-6.4-3.7
		c-0.4-0.2-0.6-0.7-0.9-1.1c-2.2-3.1-3.9-6.5-5.3-10c-0.9-2.2-1.2-4.6-1.2-6.9c0-4.5,0.6-8.9,2.2-13.2c0.5-1.3,1.1-2.3,2.1-3.2
		c2-1.7,4-3.3,6.7-3.7c0.7-0.1,1.3-0.5,2-0.8c3.1-1.4,6.2-2.8,9.3-4.2c9.1-4.2,18.5-7.6,28.1-10.7c0.1,0,0.1-0.1,0.3-0.3
		c-0.9-0.5-1.7-0.9-2.5-1.4c-1.2-0.8-2.1-1.7-2.3-3.3c-0.3-2.1-2-3.4-3.6-4.8c0.1-0.9,0.2-2,0.3-3.1c-0.9-1.2-1.8-2.4-2.7-3.5
		c-1-0.5-2.2-0.1-2.9-1.2c-0.5-0.8-1.5-1.5-2.4-2c-2.1-1.3-4.3-2.4-6.5-3.6c-3-1.7-6-3.3-9-5c-5.8-3.3-11.7-6.7-17.5-10.1
		c-2.8-1.6-5.4-3.3-7.9-5.4c-0.8-0.7-1.7-1.3-2.6-1.8c-4.6-2.7-9.2-5.4-13.7-8.1c-2.9-1.8-5.8-3.6-8.6-5.5c-6-4.1-11-9.3-15-15.4
		c-0.5-0.8-0.8-1.8-2-1.9c-1.4,1.3-2.1,3-2.5,4.8c-0.8,3.1-1.4,6.2-2.2,9.3c-1.7,6.9-4,13.6-8.4,19.4c-0.8,1-1.3,2.2-1.9,3.4
		c-1,1.7-1.9,3.5-3.1,5.6c0,0.3,0.1,1.1,0.1,1.9c0.4,5.8-0.4,11.5-2.1,17.1c-0.7,2.1-1.3,4.3-2.8,6.1c-0.4,0.5-0.7,1.2-1,1.9
		c-2.8,6.1-5.3,12.4-7.2,18.8c-1.5,5-3.2,9.9-4.9,14.8c-0.1,0.3-0.3,0.6-0.4,1c-1.9,3.8-2.5,4.2-6.8,4.5c-1.4,0.1-2.8,0-4.2-0.2
		c-1.4-0.1-2.8-0.4-4.2-0.6c-1.3-0.2-2.6-0.2-3.8,0.5c-2.5,1.2-5.3,1-8,1.4c-0.5,0.1-1.2-0.1-1.7-0.3c-1.3-0.4-1.8-1.4-1.6-2.8
		c0.1-0.7,0.4-1.3,0.6-2.1c-5.1-0.4-10-0.2-14.9,1.1c-3,0.8-5.6-0.4-8-1.9c-0.6-0.3-1-1-1.3-1.6c-0.5-1-0.4-2.4,1.1-2.8
		c1-0.3,2-0.6,3.1-0.9c2.5-0.8,4.9-1.6,7.4-2.4c1.2-0.4,2.5-0.7,3.7-1c0.7-0.2,1.4-0.3,2-0.7c3.8-2.2,7.8-1.4,11.7-0.3
		c0.9,0.3,1.7,0.5,2.7,0.2c3-1.2,6.1-1.6,9.3-1.6c0.9,0,1.9-0.1,3-0.2c0.5-2,1.2-3.8,1.5-5.8c0.2-1.2,0.1-2.6,0.1-3.9
		c-0.2-2.2-0.6-4.5-0.6-6.7c0-7.1,0.2-14.2,0.4-21.2c0.2-4.4,0.8-8.7,2.5-12.8c0.4-0.9,0.4-1.8,0.3-2.7c-0.5-4-0.6-8,0.1-12
		c0.1-0.5,0.3-1,0.2-1.4c-0.9-2.4,0.3-4.4,1.2-6.4c0.2-0.5,0.5-1.1,0.9-1.5c0.7-1,1-2.1,0.9-3.3c-0.1-1.4-0.1-2.8-0.1-4.3
		c0.1-2.5-0.2-4.9-1.1-7.3c-1.1-2.8-1-5.7-0.6-8.7c0.5-3.2,1.5-6.2,2.9-9c0.6-1.3,1.2-2.6,0.5-4.1c0.2-5.2,0-10.4,0.6-15.5
		c0.5-4.5,2.4-8.6,5-12.4c1.8-2.6,4-4.5,7.1-5.6c1.9-0.6,3.5-2,5.3-2.8c2-0.9,3.5-2.3,4.8-4c2.6-3.3,6-5.7,9.4-8
		c0.8-0.5,1.6-1,2.5-1.6c-0.1-1-0.8-1.6-1.2-2.4c-0.4-0.7-0.8-1.5-1.3-2.1c-0.5-0.8-1.2-1.5-1.8-2.3c-0.4-1.8,0.6-3.4,1.2-5.1
		c-1.3-2.4-2.2-5-2.9-7.8c-0.3-1.2-0.8-2.5-1.4-3.6c-1.6-2.7-2.5-5.6-3.5-8.5c-0.7-2.2-0.7-4.4,0-6.6c0.3-0.9,0.4-1,2.2-1.5
		c0.6-1.6,1-3.3,1-5c0-1.2,0.3-2,0.9-2.9c1.3-1.7,2.5-3.4,3.8-5.1c0.7-0.9,1.2-0.8,1.9,0.5c3.3-2,3.3-2,5.9-2.1
		c0.3-1.5-1.6-1.6-1.7-2.8c0.4-1.6,2.1-0.7,2.9-1.5c-0.5-0.5-0.9-1-1.4-1.5c0.1-0.9,0.6-1,1.3-0.9c0.7,0.2,1.3,0.6,2,0.7
		c1.5,0,2.4,0.8,3.1,2c0.4,0.6,0.4,0.5,2,0.6c0.1-0.8,0.2-1.6,0.4-2.4c0.2-0.8,0.4-1.5,0.6-2.7c0.6,0.4,1.1,0.6,1.2,0.9
		c0.2,1,0.2,2.1,0.2,3.4c0.5,0.2,1.1,0.5,1.8,0.6c2.4,0.4,4.9,0.8,7.6,1.2c1.1-0.9,2.5-0.7,4.1-0.4c3.4,0.7,5.7,2.7,7.5,5.4
		c0.5,0.8,1,1.6,1.5,2.4c0.4,0.6,0.6,1.2,1.5,1.3c0.3,0,0.8,0.5,0.9,0.9c0.7,2.9,3.4,4.9,3.5,8c0.7,0.1,1.1,0.1,1.7,0.2
		c1,1.5,0.8,3.3,1.1,5c0.2,1.7,0,3.5,0,5.2c0,0.1-0.3,0.2-0.6,0.4c-1.3-0.7-0.1-2.2-1.1-3.1c-0.2,0.2-0.7,0.5-0.6,0.6
		C345,350.4,345,352.5,346.3,354.2c0.1,0.4,0.2,0.9,0.3,1.5C347,355,346.4,354.7,346.3,354.2z M301.5,369.9c0.1-0.6-0.2-0.7-0.6-0.8
		c-0.3-0.8-1.1-0.9-1.8-0.8c-0.4,0.1-0.8,0.5-1.1,0.8c-0.7,1-0.9,2.1-0.8,3.5c0.9,0.9,1.3,2.4,2.6,3.1c0.6-1.4,0.6-1.4,1.6-2
		c0.1,0.7,0,1.4,0.2,2c0.2,0.7,1.5,1.4,2,1.2c0.2-0.3,0.4-0.7,0.6-1.2c-1.3-1.6-2-3.8-4.6-3.8c-0.4-1.4-0.4-1.4-0.1-2.7
		c0.4-0.1,0.9-0.2,1.4-0.3C300.8,369.6,301.2,369.8,301.5,369.9c0.3,0.2,0.6,0.4,0.8,0.6l0.2,0.2l-0.3-0.1
		C302.2,370.2,302.1,369.9,301.5,369.9z M302.9,338.1c0-0.1,0-0.2,0-0.3c0-0.1-0.1-0.1-0.2-0.1c0.1,0.1,0.2,0.3,0.3,0.4
		c0.1,0,0.1,0.1,0.2,0.1C303.1,338.1,303,338.1,302.9,338.1z M636,556.8c0.5,0.1,0.8-0.1,0.8-0.6c0.9,0,1.3-0.6,1.4-1.4
		c0.1-0.1,0.1-0.2,0.2-0.2c0,0.1-0.1,0.2-0.1,0.3c-1.3,0.1-1.3,0.1-1.4,1.4C636.6,556.5,636.3,556.7,636,556.8c0,0.2,0,0.3-0.1,0.3
		c0,0,0,0.1,0,0.1C636,557.1,636,556.9,636,556.8z M629,554.8c0.3,0.3,0.5,0.5,0.8,0.8c0.7,0.3,0.8,1.5,2.3,1.2
		c-1-0.5-1.7-0.8-2.3-1.1C629.5,555.4,629.2,555.1,629,554.8c-0.3-0.2-0.5-0.4-0.7-0.7c0.1-0.8-1.1-1.2-0.6-2.2
		c1.3,0.3,2.3,1,3.2,1.6c0.9,0.7,1.9,1.4,2.7,2c2.5-1.3,4.8-2.4,7.1-3.6c-0.2-2.2-0.4-4.5-0.6-6.8c-1-1-2-2-2.9-3.1
		c-0.3-0.3-0.5-0.8,0.2-1.3c0.7,0.4,1.5,0.8,2.3,1.4c0.8,0.6,1.6,1.3,2.6,2.2c0.4-0.4,0.8-0.7,1.1-1.1c-2.4-3.4-5.1-6.2-8.5-7.9
		c-2.3-1.2-4.5-2.6-6.6-4c-4.9-3.3-9.2-7.4-14.4-10.3c-0.5-0.3-0.9-0.7-1.3-1.1c-5.9-5.6-11.9-11.1-17.7-16.8
		c-3.8-3.7-8.1-6.9-12.6-9.7c-2.4-1.5-5.1-2.4-7.7-3.6c-0.6-0.3-1.4-0.6-2-0.5c-2.2,0.3-3.9-0.8-5.6-1.7c-3.4-1.8-6.2-4.3-9-6.8
		c-2.4-2.1-4-4.9-6.2-7.2c-0.2-0.2-0.4-0.6-0.4-1c-0.1-1.5-1-2.3-2.1-3c-0.9-0.6-1.7-1.3-2.5-2c-0.5,0-0.9-0.1-1.4-0.1
		c-2.6,0.5-5.2,0.3-7.8,0.1c-4.5-0.3-8.9,0.4-13.2,1.8c-5.4,1.8-10.9,3.1-16.7,2.5c-0.8-0.1-1.6,0-2.4,0c-0.7,2.5-2.5,4.2-3.9,6.1
		c-2.2,2.8-4.3,5.6-5.2,9.2c-0.1,0.6-0.4,1.1-0.7,1.6c-1,1.7-1.3,3.6-1.4,5.4c-0.3,4.9,0,9.6,1.7,14.1c1.3,1.1,2.7,1.1,4.1,0.8
		c6.1-1.2,12.3-2.5,18.4-3.7c2.7-0.5,5.4-0.9,7.8-2.1c3.2-1.4,6.4-1.3,9.7-0.7c1.7,0.3,3.4,0.7,4.4,2.5c0.4,0.7,1.3,1,1.9,1.5
		c7.1,5.5,13.9,11.3,20,18c0.7,0.8,1.5,1.6,1.9,2.6c0.5,1.2,1.3,1.9,2.3,2.6c2.5,1.6,4.9,3.2,7.5,4.7c1.4,0.8,2.9,1.5,4.5,2.2
		c0.9,0.4,1.9,0.8,2.7,0.6c2.5-0.5,4.9,0.3,7.4,0.4c0.8,0,1.6,0.2,2.4,0.5c5.8,2.1,11.5,4.3,17,7.1c1.9,1,3.9,1.8,5.8,2.5
		c4.6,1.8,9.3,3.5,13.6,6c0.4,0.2,0.9,0.2,1.3,0.2C628.6,554.3,628.8,554.5,629,554.8z M324.3,339.9l0,0.2L324.3,339.9
		c-0.3,0-0.4-0.2-0.6-0.3c-0.1,0-0.2,0.2-0.4,0.2c0.1,0,0.2,0.1,0.3,0.1C323.9,340,324.1,339.9,324.3,339.9z M485.1,514.6
		c-0.2-0.3-0.5-0.5-0.7-0.8c-0.3-0.5-0.6-1-1-1.4c-3.2-3.1-6-6.6-7.8-10.7c-0.1-0.1-0.4-0.1-0.8-0.2c-0.4,1-0.6,2.3-1.3,3.1
		c-1.1,1.3-2.5,2.4-3.9,3.3c-2,1.4-2.4,1.7-3.6,4.4c0.4,0,0.8,0.2,1,0.1c1.4-1.1,2.8-1,4.2,0.1c1.5,1.3,3.2,1.2,5,0.5
		c2.2-1,4.3-0.7,6.5,0.1c0.6,0.3,1.3,0.4,2,0.7C484.7,513.9,485,514.2,485.1,514.6c0.6,0.1,1.1,0.3,1.6,0.5c0.1,0.2,0.2,0.5,0.3,0.5
		c4.2,1.2,8.4,2.4,12.6,3.6c0.4,0.1,0.9,0.1,1.8,0.1c-2.5-2.8-5.7-4.4-7.8-7c-0.1-0.8-0.1-1.7-0.3-2.4c-1.2-5.1-1.2-10.3-1.2-15.5
		c0-1.8,0.2-3.5,1-5.2c2.1-4.5,4.1-9,7.6-12.7c0.6-0.6,1.1-1.3,1.5-1.9c0.4-0.5,1.1-0.9,0.6-1.9c-1.2,0.2-2.5,0.3-3.8,0.6
		c-2.5,0.6-5.3,0.8-7.5,1.9c-2.8,1.5-5.5,1.7-8.5,1.6c-0.7,0-1.4,0-2.5,0c0.1,4.1,0.3,7.9-0.7,11.7c-1,3.9-1.9,7.8-4,11.2
		c1.3,3,2.8,5.8,5,8.2c2.2,2.3,4.4,4.5,6.7,6.9c-0.5,0.2-0.8,0.3-1.1,0.4C486.1,514.9,485.6,514.8,485.1,514.6z M333.5,328
		c0,0.2-0.1,0.7,0.4,0.3C333.8,328.2,333.6,328.1,333.5,328c-0.3-0.4-0.6-0.8-1-1.4c-0.8,1.2-0.1,1.3,0.6,1.4
		C333.3,328.1,333.4,328,333.5,328z M325,335.2l-0.1-0.2L325,335.2c0.5,0.5,1,0.9,1.8,0.1C326.1,335.2,325.5,335.2,325,335.2z
		 M342.8,356.2c0.2,0.3,0.4,0.6,0.7,0.8c-0.1,1.1-0.6,1.7-1.8,1.6c-0.7,0-1.3,0-1.9,0c-0.1,0.5-0.1,0.8-0.2,1.2
		c-0.9,0.1-1.8,0.2-3.2,0.3c1.4,0.7,2.3,1.2,3.2,1.7c0.4,0.3,1,0.6,0.6,1.4c-1,0-2,0.1-3,0.1c-1-0.6-1.9-0.7-3-0.1c1,0,2,0,3.1,0
		c0.1,0.4,0.2,0.9,0.2,1.4c-1.2,0.1-2.2,0.2-3.2,0.3c0.1,0.5,0.2,1.1,0.3,1.7c-0.5,0-0.8,0.2-1.1,0.1c-0.5-0.2-1.1-0.5-1.5-0.9
		c-1.6-1.6-3.5-2.1-5.8-2.2c-1.7,0-3.5-0.5-5.2-0.9c-3.8-1-7-2.7-8.9-6.3c-0.2-0.4-0.9-0.6-1.5-1c-0.4,1.1-0.5,2.1-1,2.8
		c-1.2,1.4-1.5,3.1-1.7,4.9c-0.1,1.5-0.4,3-0.8,4.5c-0.3,1.2-0.2,2.3,0.2,3.5c0.2,0.7,0.4,1.4,0.6,2c0.1,0.5,0.1,0.9-0.7,1.2
		c-0.7-1-1.5-2-2.6-3.4c-0.2,0.8-0.5,1.2-0.5,1.5c0.2,0.8,0.5,1.6,0.8,2.3c0.4,0.8,0.4,1.6,0.2,2.4c-0.2,0.8,1.2,1.2,0.6,2.1
		c-0.7,0.4-1.4,0.4-2-0.1c-0.6-0.5-1.1-1.2-1.7-1.8c-0.3-0.3-0.7-0.7-1.2-0.1c0.9,1.7,1.8,3.5,2.8,5.2c0.4,0.7,0.9,1.4,1.8,1.3
		c1.5-0.8,0.8-2.4,1.5-3.8c0.4,0.4,0.9,0.6,1,0.9c0.3,0.9,0.2,1.9,0.6,2.7c1.5,3,3.1,5.8,4.6,8.8c1.1,2,2.8,3.2,5,3.5
		c1.8,0.3,3.4,1,5,1.8c3.2,1.6,6.4,2.8,9.9,3.6c4.1,0.9,7.6-0.3,10.9-2c1-2.3,1.8-4.2,2.7-6.2c0.6-1.5,1.3-3,1.2-4.8
		c-0.1-1.5,0-3.1,0-4.6c0-1.3-0.2-2.5-0.3-4c1-1.6,1.1-1.9,1-3c-0.3-2.5-0.5-4.9-0.9-7.3c-0.2-1.3-0.5-2.5,0.1-3.8
		c0.5-1.2,0.1-2.4-1.2-3.4c-0.3,0.7-0.6,1.2-0.8,1.7c-0.9,1.9-1.9,3.8-2.8,5.7c-0.6,1.3-1.7,1.8-3,2.1c-0.5-0.4-1-0.8-1.5-1.1
		c-0.8-0.1-1.4,1-2.5,0c1.5-1.2,2.4-3.1,4.5-3.5c2.5-0.5,3.9-2,4.5-4.4c0.2-0.6,0.4-1.1,0.7-1.6c0.5-1.3,0.2-2.6-0.6-3.7
		c-0.4-0.5-1-0.6-1.6-0.4C343.1,356.9,342.9,356.6,342.8,356.2c-1-0.5-1.9-1-2.8-1.5c-0.1-0.1-0.4,0.1-0.7,0.3c0.3,0.4,0.5,1,0.8,1
		C340.9,356.2,341.8,356.2,342.8,356.2z M541.8,452.1c0-0.1,0-0.2-0.1-0.3c0,0-0.1,0-0.2,0C541.7,451.8,541.8,451.9,541.8,452.1
		c0.2,0.5,0.2,1.1,0.4,1.6c1.1,4.2,1.1,8.2-2.8,11.1c-0.1,0.1,0,0.2-0.1,0.5c0.9,0.1,1.8,0.1,2.7,0.2c0.4-0.5,0.8-1,1.1-1.4
		c2.6-3.5,2.8-7.1,0.6-10.8C543.3,452.6,542.9,451.9,541.8,452.1z M473.2,486.9L473.2,486.9c-0.4,1.4-0.8,2.8-2.3,3.5
		c0.1-0.7,0.5-1.7,0.2-2c-0.9-0.9-0.7-2-0.7-3c0-3,0-5.9,0-8.9c0-1,0-2.1,0-2.9c-1.5-1.3-2.8-2.3-3.9-3.5c-1.1-1.3-1.9-2.8-3-4.5
		c-0.8,2.5-1,4.9-2,7.1c-0.3-0.3-0.5-0.4-0.5-0.6c-0.3-4.3,0.2-8.5,2.2-12.4c0.6-1.3,1.2-2.5,1.5-3.9c0.2-0.9,0.4-1.8,0.7-2.7
		c0.2-0.8,0.7-1.2,1.6-0.7c-0.3,0.5-0.7,0.9-0.8,1.4c-0.4,1.8-0.6,3.7-1.1,5.5c-0.4,1.4-0.3,2.8,0.2,4.2c1,3,2.8,5.5,5.5,7.1
		c1.2,0.7,2.5,1.3,3.9,1.7c5.1,1.5,10.3,2.4,15.7,1c1.8-0.5,3.7-0.8,5.5-1.3c0.6-0.2,1.4,0,1.7-0.9c-0.4-0.2-0.8-0.5-1.2-0.7
		c-0.5-0.3-0.9-0.6-1.4-0.9c1.7,0,3.3,0.4,4.9,0.6c1.6,0.2,3.3,0.1,5,0.1c3.9,0,7.8,0.4,11.5-1.2c1.2-0.5,2.5-0.6,3.8-0.9
		c1-0.2,2.1-0.4,3.1-0.9c2.8-1.4,5.9-1.6,9-1.8c1.5-0.1,3.1-0.2,4.7-0.3c0.3-0.7,0.6-1.3,0.8-2l-0.1,0.1c3.5-1.3,3.8-4.2,3.6-7.3
		c-0.3-3.5-2-5.5-6.3-5.7c-2.7-0.1-5.3-0.5-7.9-1.3c-1.9-0.6-3.9-1-5.8-1.5c-0.9-0.2-1.9-0.4-2.8-0.6c-2-0.6-4-1.4-6-2.1
		c-3.1-1.1-6.2-2.1-9.3-3.3c-1.3-0.5-2.6-1.1-3.4-2.5c-0.2-0.3-0.5-0.5-0.8-0.7c-2.7-1.8-5.5-3.7-8.3-5.5c-1.3-0.8-2.7-1.2-4.3-0.7
		c0.8,1.2,2.2,1.4,2.5,2.8c-0.4,0-0.8,0.1-1.1,0c-1.2-0.6-2.4-1.1-3.4-1.9c-1.2-0.9-2.4-1.4-3.8-1.7c-2.5-0.7-4.8-1.9-6.9-3.5
		c-0.8-0.6-1.7-1.2-2.7-1.7c-2.3-1-4.6-1.9-6.6-3.5c-0.4-0.3-0.8-0.5-1.3-0.6c-5.2-1.2-10.2-2.8-15.7-2.4c-2.5,0.2-4.7,0.8-6.5,2.3
		c-2,1.6-3.9,3.4-5.9,5c-1,0.8-1.5,1.7-2.1,2.8c-1.2,2.5-2.5,5.1-3.8,7.6c-0.9,1.7-1.9,3.3-3.5,4.4c-0.6,0.4-1,1-1.4,1.6
		c-2.7,4.5-5.2,9-7.9,13.4c-1.3,2.1-1.5,4.1-0.7,6.4c1.8,5,3.4,10.1,5.2,15.1c3.1,8.7,8.4,15.8,15,22c3.3,3.1,7.3,5.2,11.9,5.6
		c0.8,0.1,1.6,0.3,2.5,0.3c4.8,0.3,4.4,1.1,8.3-3c0.2-0.2,0.4-0.3,0.6-0.4c-0.2,0.6-0.3,1.3-0.6,2.1c2.9-0.4,5.5-1.1,7.9-2.3
		c2.3-1.2,4.5-2.5,6.7-3.9c0.8-0.5,1.5-1.2,1.9-2c1.9-3.7,3.4-7.5,3.8-11.7c0.2-1.8,0.5-3.5,0.5-5.3c0.1-1.1-0.1-2.3-0.2-3.6
		c-1.2-0.2-2.2-0.4-3.3-0.7c-1.1-0.3-2.2-0.7-3.6-1.1c-0.5,4.3,0.2,8.4-0.4,12.5C472.3,487,472.8,486.9,473.2,486.9z M551.1,445.7
		c-1.1,0.2-2.3,0.4-3.4,0.7c-1.7,0.4-3.3,1.4-5.1,1.1c-0.3,0-0.7,0.5-1.3,0.9c2.7,1.1,3.8,3.3,5.1,5.7c-0.2,3.7-0.4,7.5-0.6,11.6
		c2.9,0.5,4.4,3,6.3,5.1c1.1,1.2,2.2,2.5,3.3,3.7c0.5,0.5,1,1,1.4,1.4c2-0.4,3.9-0.8,5.7-1.2c2.1-0.5,4-1.3,5.7-2.6
		c1-0.8,2.2-1.5,3.1-2.4c1.3-1.3,2.9-2,4.6-2.5c2.6-0.8,5.2-1.5,7.8-2.3c5.7-1.8,10.7-4.9,15-9c3.2-3,4.8-6.7,4.3-11.1
		c-0.1-0.8-0.2-1.6-0.3-2.5c-0.4-4.2-2.2-8.1-3.1-12.3c-2.9-1.5-5.7-3-8.4-4.4c-3.1,1.1-6,2.6-8.3,4.8c-2.3,2.2-4.9,3.7-7.7,4.8
		c-1.1,0.4-2.2,0.8-3.2,1.4c-3.9,2.4-8.1,4.3-12.4,5.9c-2.9,1.1-5.7,2.3-8.5,3.5L551.1,445.7z M363.3,364.9L363.3,364.9
		c0.4,1.1,1.3,1.9,2.2,2.6c3.2,2.4,6.4,4.9,9.7,7.1c3.7,2.5,7.6,4.7,11.5,7c4,2.3,7.9,4.7,11.4,7.7c0.3,0.3,0.8,0.4,1.1,0.6
		c1-0.6,1.4-1.3,0.7-2.1c-1-1.2-0.7-2.1,0.1-3.1c0.5-0.6,1.1-1.3,1.6-1.9c2.6-2.5,5.1-4.9,7.7-7.3c0.1-0.1,0.4,0.1,0.5,0.1
		c0,0.2,0.1,0.5,0,0.7c-2.6,3.3-5.2,6.7-8,10.2c0.6,1.6,0.1,3.5,1,5.5c1.8,0.4,3.6,0.9,5.4,1.2c1.5,0.2,2.7,0.7,3.9,1.5
		c2.1,1.4,4.3,2.4,6.9,2.3c0.8,0,1.6,0.3,2.4,0.4c4.9,0.6,9.9,1.3,14.6-1.3c0.3-0.2,0.8,0.1,1.2,0.2c-0.1,0.8-0.2,1.3-0.2,1.8
		c3.5,3.8,6.8,7.8,10.4,11.3c5.5,5.3,9.8,8.2,12.4,9.1c0-1.2-1.3-2-0.7-3.3c1.2,0.2,1.3,1.3,1.8,2.1c0.9,1.5,1.9,3,3.4,4
		c1.4,0.9,2.8,1.7,4.3,2.4c2.1,0.9,4,2,5.7,3.5c1.3,1.1,2.8,2.2,4.3,2.4c2.8-1.2,5.2-2.2,7.9-3.3c-0.4-0.6-0.7-1.4-1.2-1.9
		c-2.6-2.5-4.5-5.5-5.9-8.7c-2.4-5.4-6.3-10-8.9-15.3c-2.9-2.9-4.8-6.7-8.6-8.8c-0.5-0.3-0.8-0.9-1.2-1.3c-2.1-2.7-4.2-5.4-6.4-8.1
		c-2.6-3.1-5.4-5.8-9.3-7.4c-2.1-0.8-3.9-2.2-5.8-3.4c-7.2-4.9-15-8.5-23.7-9.6c-2-0.3-3.6-1-5.1-2.1c-1.2-0.9-2.4-1.9-3.8-2.5
		c-4.4-1.9-8.9-3.9-13.6-5c-1.8-0.4-3.7-1-5.5-1.2c-5.3-0.3-10.6-0.1-15.8,1.3c-1.8,0.5-3.3,1.2-4.6,2.5c-1.1,1.1-2.2,2.1-3.3,3.2
		c-1.2,1.1-2.5,1.8-4.2,1.5c-0.8-0.1-1.6,0-2.8,0c1.8,2.5,3.6,4.4,6,5.7C363,364.9,363.2,364.9,363.3,364.9z M261.2,493.1
		c-1.2,1.5-1.2,3.3-1.5,5c-0.8,6.4-1.4,12.9-1.3,19.4c0,3.3-0.1,6.6,0.2,9.9c0.4,4.5,0.6,8.9-0.4,13.2c0.1,0.9,1.4,1,1.2,2.1
		c-0.9-0.2-1.8-0.6-2.7-0.5c-2.9,0.2-5.9,0.4-8.8,0.9c-3.6,0.6-7.2,1.2-10.8,1.3c-3.5,0.1-7.1,0.4-10.6,0.7c-0.3,0-0.6,0.3-0.9,0.5
		l0.1-0.1c-4,1.2-8.1,2.5-12.1,3.7c-0.1,0-0.2,0.1-0.4,0.4c0.3,0.3,0.7,0.9,0.9,0.8c0.8-0.2,1.3-0.3,1.8,0.5c1,1.7,2.7,1.8,4.3,1.4
		c4.8-1.3,9.6-1.3,14.4-0.9c2.9,0.2,5.4-0.4,7.7-2c0.6-0.4,1.1-0.8,1.7-1.3c0.8-0.7,1.6-1,2.6-0.9c1.4,0.1,2.8,0.1,4.2,0.2
		c0.3,0,0.5,0.4,1.3,1.1c-1.9,0-3.2,0-4.5,0c-1.2,0-2.2,0.4-3.2,1.2c-1.7,1.5-3.5,2.8-5.7,3.4c-0.6,0.2-1.2,0.7-1.6,1.3
		c-0.2,0.3-0.3,0.9-0.1,1.3c0.2,0.4,0.7,0.8,1,0.8c2.3-0.3,4.7-0.1,7-1.1c2.2-0.9,4.3-1.1,6.6-0.4c2.4,0.7,4.9,0.6,7.4,0.4
		c2.1-0.1,4-0.7,4.8-2.9c0.2-1.4,0.3-2.8,0.9-4c1.5-2.9,2.4-5.9,3-9c0.2-0.8,0.4-1.6,0.8-2.3c1.6-2.3,2.4-4.9,3-7.5
		c0.7-2.9,1.7-5.6,3-8.3c0.8-1.6,1.6-3.1,2.4-4.7c3.6-7.3,6.1-14.9,5.6-23.1c-0.1-2.3,0.4-4.4,1.5-6.4c2-3.7,3.7-7.6,6.1-11.2
		c1.7-2.5,2.8-5.4,4.1-8.2c0.6-1.3,0.8-2.7,1-4.1c0.7-4.8,1.9-9.5,3.9-13.9c1-2.2,1.2-4.2,0.9-6.5c-1.3-0.5-2.6-1-4.1-1.5
		c1-1,2-0.6,2.8-0.7c0.9-0.1,1.8-0.5,2.7-0.7c1.2,0.4,2.4,0.9,3.7,1.3c1.3,0.5,2.6,1.1,4,1c0.5-1.7,0.3-3.2,0-4.7
		c-2.2-11.2-5.3-22.3-9-33.1c-1.9-5.7-5.2-10.7-8.9-15.4c-0.3,0.2-0.6,0.3-0.7,0.4c-0.9,2.1-2.6,3.2-4.6,4.2
		c-2.1,1.1-4.1,2.3-6.2,3.5c-0.7,0.4-1.4,1-2.2,1.2c-1.9,0.4-3.1,1.7-4.1,3.1c-0.9,1.3-1.7,2.6-2.4,3.9c-3.4,6.3-4.1,13.2-4.2,20.3
		c0.6,0.2,1.1,0.4,1.5,0.5c0.4,2.3,0.7,4.5,1.2,7.1c-1-1-1.7-1.7-2.5-2.5c-0.5,1.6-1,3-1.6,4.4c-2.1,5.7-2,11.3-0.1,17
		c0.6,1.7,0.9,3.4,1.3,5c-0.9,0.9-1.5,1.7-1.3,2.9c0.4,2.6-0.4,4.8-1.7,7c-1.8,3.1-2.8,6.5-2.1,10.2c0.1,0.6,0.1,1.2,0.1,1.8
		C261.6,484.1,262.4,488.7,261.2,493.1L261.2,493.1z M295.2,386.1c-1.3,0.3-2.2,1.3-2.9,2.4c0.7,1.1,1.3,2.1,2,3.1
		c4.2,5.6,7.3,11.9,9.3,18.6c2.2,7.2,4.2,14.5,6.2,21.8c0.8,3.1,1.4,6.2,1.3,9.4c0,0.7,0,1.4,0,2.1c5.6,1.8,11.3,2.7,17.1,2.9
		c3.1,0.1,6.1-0.2,9.2-0.3c0.8,0,1.7-0.3,2.3,0.7c-0.3,0.3-0.6,0.6-1,0.7c-1.2,0.4-2.5,0.8-3.7,1c-5.2,1.1-10.3,0.5-15.5-0.4
		c-2.8-0.5-5.5-1.2-8.4-1.8c-0.4,2.4-0.8,4.7-1.3,7.3c0.8,0.9,1.8,2,3,3c2.9,2.4,5.8,4.9,8.8,7.1c4.1,3,8.5,5.6,12.5,8.6
		c3.5,2.6,7.3,4.7,11,7.1c1.1,0.7,2.2,1.4,3.2,2.3c1.2,1.2,2.6,2.1,4,2.8c10.4,5.5,20.3,12,30.7,17.5c2.6,1.4,5.3,2.4,8.4,2.8
		c1.1-1.8,2.2-3.6,3.3-5.4c1-1.6,1.1-1.6,3.2-2.4c0.9-1.5,1.7-3.1,2.6-4.6c1.4-2.1,2-4.5,2.5-6.9c0.2-1.1,0.5-2,1-2.9
		c0.8-1.3,1.5-2.7,2.2-4c0.2-0.4,0.6-0.6,0.9-0.9l-0.1-0.1c-0.2,2.5-1.3,4.7-2.2,7c-1.5,4-2.4,8.1-2.1,12.4c0,0.7,0,1.3,0,2.1
		c-1.6-0.5-1.1-2-2-3c-2,3.3-2.2,6.6-0.8,9.9c0.7,1.6,1.6,3.1,2.4,4.8c0.3,0.6,0.3,1.3,0.6,2.7c-1.9-1.8-2.7-3.3-3.6-4.8
		c-0.9-1.5-1.7-3-2.8-5c-0.7,3.1-1.2,5.6-1.8,8.1c-0.3,1.1-0.1,2.1,0.3,3.1c0.7,1.3,1.4,2.6,2.9,3.3c0-0.4,0.1-0.7,0.1-0.9
		c0-0.4-0.1-0.7-0.1-1.1c0.1-1.1,0.6-1.8,1.3-1.8c0.9,0,1.2,0.6,1.5,1.3c1,2.6,2.5,4.8,4.6,6.6c7.5,1,11.2,2.2,13.3,4.5
		c-1.4-0.5-2.6-0.9-3.9-1.2c-1.9-0.5-3.9-1-5.8-1.3c-1.5-0.3-3-0.3-4.3,0.9c-0.4,0.4-1.1,0.5-1.6,0.7c-5.3,1.9-10.7,3.8-16,5.7
		c-5.3,2-10.4,4.3-16.2,6.9c1.7,0.2,2.7,0.1,3.7,0.4c1.1,0.3,2.4,0.4,2.6,1.9l0.1-0.1c-0.3,0-0.7,0.1-1,0c-2.2-1-4.4-0.8-6.6-0.4
		c-0.5,0.1-1,0.4-1.4,0.3c-1.8-0.7-3.2,0.3-4.7,0.9c-1,0.4-2,0.8-3,1.1c-4.3,1.5-6.8,4.5-7.5,9c-0.4,2.8-0.7,5.6-1.1,8.4
		c0,0.2,0,0.5,0.1,0.7c1,5.4,1.8,10.9,5.6,15.4c0.2,0.2,0.2,0.4,0.4,0.6c0.3,0.3,0.6,0.7,1,0.9c1.5,0.9,3,1.8,4.6,2.7
		c1.4,0.8,2.8,1.1,4.4,1.1c3.1-0.1,6.1-0.2,9.1-1.2c4.9-1.6,6.6-2.7,9.4-7.2c0.7-1.2,1.5-2.4,2.2-3.6c0.9,0.6,0.5,1.3,0.3,1.9
		c-0.1,0.4-0.5,0.8-0.6,1.3c-0.2,0.4-0.7,0.8,0.1,1.3c1.4-0.4,2.8-0.9,4.2-1.4c7.5-3,15.2-5.8,22.2-10c2.4-1.4,5.1-2.5,7.6-3.8
		c7.4-3.7,14.8-7.3,22.2-11c3.9-1.9,7.1-4.7,10.1-7.7c3.6-3.6,4.5-8.2,3.4-13.1c-0.1-0.6-0.7-1.1-1-1.7c-3,2-6.1,3.1-9.1,4.4
		c-0.3,0.1-0.8,0.4-1,0.3c-1.8-0.8-3.1,0.4-4.7,0.8c-2.7,0.7-5.5,1.5-8.2,2c-2.6,0.5-5.1,0.2-7.4-1.3c-1.8-1.2-3.8-2-5.6-3
		c-0.5-0.3-1.2-0.4-1.1-1.1c1.4-0.7,1.4-0.8,1.8-0.6c1.7,0.8,3.6,1.4,5.1,2.4c2.2,1.6,4.5,1.9,7,1.6c1.7-0.2,3.5-0.1,5-1.4l-0.1,0.1
		c2,0.3,3.7-0.5,5.4-1.2c1.2-0.5,2.2-0.5,3.1,0.4c2.2-1.1,4.3-2.2,6.3-3.3c0.6-0.3,1.3-0.7,1.7-1.2c1.2-1.6,2.5-3.1,3.4-4.9
		c1.2-2.4,2.6-4.7,4.3-6.8c0.4-0.4,0.8-0.9,0.5-1.5c0.3,0,0.6,0.2,0.4-0.3c-0.1,0.1-0.2,0.3-0.3,0.4c-0.4-0.1-0.8-0.1-1.8-0.3
		c1.5-1.2,2.6-2.1,3.8-2.9c0.8-0.5,1.7-0.8,2.5-1.3c1.9-1,2.9-2.3,3.5-4.6c-3.2,1.9-6.2,3.6-9.7,4.6c-0.4,0.1-0.8,0.5-1.2,0.8
		c-1.5,1.3-3.3,1.8-5.3,1.6c-2.6-0.2-5.2-0.5-7.8-0.7c-5.4-0.4-10.1-2.6-14-6.2c-7-6.4-12.4-13.9-15.5-23c-1.6-4.6-3-9.2-4.5-13.8
		c-0.2-0.5-0.5-0.9-0.9-1.5c-1.1,2.5-2.1,4.6-3.1,6.7c-0.2,0.4-0.5,0.8-1.2,0.5c0-0.4,0-0.8,0.1-1.2c0.9-4.1,2.6-7.8,4.4-11.5
		c0.4-0.8,1.1-1.7,1.1-2.6c0-1.2,0.6-2,1.2-2.8c0.9-1.2,1.9-2.4,2.7-3.7c1.8-2.5,3.3-5.2,5.6-7.2c0.3-0.3,0.5-0.8,0.7-1.1
		c-1.5-2.9-2.8-4.3-4.9-5.5c-0.4-0.2-0.9-0.5-1-0.8c-1.7-3.3-4.3-5.8-7-8.1c-0.6,0-1,0-1.5-0.1c-0.1,0-0.2-0.2-0.6-0.5
		c-1.5-5.9-3.5-12-7.4-17.7c-0.4,1.5-0.7,2.7-1,3.8c-0.5,1.5-1.1,2.9-2.4,3.9c-0.7,0.5-1.4,0.8-2.3,0c0.2-0.4,0.3-0.9,0.6-1.2
		c1.7-2.4,2.4-5.1,2.6-8c0.3-2.9,0.4-5.9,0.5-8.8c0.1-1.3,0.1-2.5-1.1-3.5c-0.7-0.6,0.2-1.3,0.8-1.7c-0.9-0.5-1.8-0.9-2.7-1.4
		c-2.3-1.5-4.5-3-6.8-4.4c-4.5-2.8-9.2-5.4-13.7-8.1c-8.5-5.2-16.3-11.3-22.5-19.5c-1.3,0-2.7-0.5-4.3,0c0.9,1.7,2.1,2.9,3.1,4.1
		c2.9,3.4,5.8,6.9,8,10.8c5.1,9.1,7.7,18.8,7,29.2c-0.4,6.7-3.4,12-9.7,14.9c-2.3,1.1-4.8,1.9-7.3,2.6c-3.5,1-7.1,1.5-11.6,1.6
		c1.2-0.6,1.7-0.9,2.2-1.1c1.3-0.3,2.6-0.5,3.8-0.8c3.3-0.9,6.6-1.9,9.8-2.9c1.2-0.4,2.4-0.9,3.4-2.1c-3.3-2.8-7.2-4.5-10.5-7.4
		c1.1-0.6,1.8-0.3,2.6,0c3.1,1.1,5.6,3,8.3,4.7c0.7,0.4,1.3,0.8,2,1.2c3.1-3,4.7-6.2,5-10.1c0.7-10.3-1.4-19.9-6.4-29
		c-0.3-0.5-0.7-0.8-1.2-1.3c-1.6,2.6-2.6,5.3-4.9,7.3c-0.8-1.6,0.4-2.3,0.9-3.2c0.5-0.9,1.1-1.8,1.6-2.7c0.6-1,1-2.1,1.5-3
		c-1.6-3.4-5.5-8.4-8.6-11c-1.3,1.5-0.9,3-0.4,4.6c0.2,0.8,0.7,1.6,0.6,2.3c-0.3,1.6,0.3,3,0.6,4.5c0.3,1.6,1,3.2-0.5,4.6
		c-0.3,0.3-0.3,1.1-0.3,1.7c0,1.1,0,2.1,0,3.2c0.2,6.1-0.7,12-3.2,17.6c-0.3,0.7-0.9,1.4-1.6,1.8c-2.7,1.7-5.7,2.6-8.8,2.2
		c-3.1-0.4-6.3-0.7-9.3-1.9c-1.1-0.4-2.3-0.6-3.4-0.6c-3.9,0-7.8,0-11.7,0c-0.3,0-0.5-0.2-1.3-0.6c2-0.8,3.5-0.9,5.2-1
		c1.6-0.1,3.2,0.3,4.8-0.2c-0.4-0.9-1.1-1.1-1.7-1.4c-6.8-3.8-5.5-2.5-8.6-8.7c-0.1-0.1-0.1-0.2-0.2-0.3c-0.3-0.3-0.6-0.5-1.2-1.1
		c-0.4,1.4-0.8,2.5-1.1,3.8c-2.1-1.5-0.5-3.7-1.5-5.2c-2.2,1.2-2.2,1.2-3.2-0.2c0.6-0.2,1.2-0.4,1.9-0.7c-1.1-1.5-2.1-2.7-3.5-3.8
		c-1.8,1.9-4.3,2.8-5.6,5L295.2,386.1z M402.8,403.4c3.4,5.8,6.7,11.7,8.5,18.2c0.2,0.7,0.7,1.5,1.3,2.1c1.5,1.5,3,3,4.5,4.5
		c0.8,0.7,1.5,1.4,1.6,2.6c0,1,0.8,1.8,1.7,2.1c2,0.9,3.4,2.5,4.8,4.1c0.3,0.3,0.7,0.6,1.1,0.9c1.4-1,2.3-2.2,3-3.6c1-2,2-4,3-6
		c2-4.3,5.3-7.1,9.3-9.3c1.4-0.8,2.9-1.1,4.4-1c2.5,0.2,4.9,0.4,7.4,0.6c0.6,0,1.1,0,1.9,0c-0.3-0.5-0.3-0.9-0.6-1.1
		c-1.8-1.5-3.5-3.2-5.5-4.4c-3.3-2-5.7-4.9-8.3-7.7c-1.5-1.6-2.6-3.3-3.5-5.3c-0.3-0.6-0.8-1.1-1.2-1.7c-3.2,1.4-6.5,1.5-9.8,1.3
		c-2.1-0.1-4.2-0.6-6.3-0.8c-2.5-0.2-4.9-0.8-7-2.2c-3-2-6.4-2-9.6-2.6c-0.2,0.4-0.4,0.6-0.4,0.8
		C402.8,397.7,402.8,400.5,402.8,403.4z M503.1,518.6c2.7,0.3,5.2,0.8,7.7-0.2c2.5-0.9,4.7-2.1,6.5-4.1c1.7-1.9,3-4.1,3.6-7
		c-0.9,0-1.6,0-2.2,0.1c-3.7,0.7-7.4,1.6-11,2.3c-3.8,0.8-7.6,1.5-11.5,1c-0.2,0-0.4,0.2-0.6,0.3c-0.6,1,0,1.5,0.7,2.1
		C498.5,515,500.8,516.8,503.1,518.6z M482.8,428.9c3,0.6,5.2,1,7.6,1.5c0.3-0.1,0.2-1.3,1.5-0.9c0.5,1.1,1.1,2.4,1.8,3.8
		c2.1,1.4,4.3,2.8,7,4.6c-0.1-1.1,0-1.8-0.2-2.4c-0.6-2-1.4-4-2-6c-0.1-0.4-0.1-1,0.6-1c1.7,3.3,3.4,6.7,3.4,10.4
		c0.8,0.9,1.5,1.5,2.7,1.5c0.5-0.6,0.9-1.2,1.5-1.9c-1.1-2.9-2.1-5.8-3.2-8.8c0.1-0.2,0.2-0.6,0.3-0.9c-1.1-0.5-2-1-3-1.5
		c-0.5-0.2-1.1-0.6-1.6-0.6c-1.8,0.3-3.4-0.4-5-1.1c-1.6-0.7-3.5-0.8-4.8,1c-1,1.3-2.2,2-3.9,1.8
		C484.8,428.4,484.2,428.7,482.8,428.9z M302.3,443.6c2.2,2.8,3.3,5.9,6.2,8.1c0.6-2.1,0.9-4,0.4-6.1
		C306.8,444.9,304.9,443.8,302.3,443.6z M330.5,338.9c1.9,1.3,3.4,2.4,5.3,0.7c0.4-0.3,1.1-0.3,1.7-0.3c0.7-0.1,1.3-0.1,2-0.1
		C336.7,338.8,333.9,337.7,330.5,338.9z M338,345.4c0.8,1,1.5,1.8,2.2,2.7c0.6,0.8,1.1,1.9,2.4,2.2C341.6,346,340.9,345.1,338,345.4
		z M310.4,327.8c2.2,0.6,4.1,1.3,6.1-0.1C314.6,327.2,312.8,326.5,310.4,327.8z M313.6,343.6c0.9,1,1.5,2.7,3.7,1.6
		C316.4,343.8,315.2,343.3,313.6,343.6z M301.5,330.4c-0.9-0.2-1.5-0.3-1.8,0.3c-0.4,0.6-0.7,1.2-1,1.8c-0.2,0.4-0.8,0.9,0,1.5
		C299.6,332.9,300.5,331.7,301.5,330.4z M340.6,350.4c-0.2,0.1-0.4,0.2-0.5,0.4c0.2,0.6,0.2,1.5,0.6,1.8c0.6,0.5,1.4,1.2,2.6,0.5
		C342.4,352.2,341.5,351.3,340.6,350.4z M302.8,351.7c0.7-1.5,0.7-1.5-1.4-2.8C300.6,350.4,301.8,350.9,302.8,351.7z M322.2,361
		c-1.7-1.1-3.4-1.8-5.8-2.4C318.3,360.3,320.2,360.8,322.2,361z M336.6,347.5c-0.5-1.3-1.5-2.3-2.5-3.1c-0.3-0.3-0.9-0.3-1,0.6
		C334.1,345.9,335,347.1,336.6,347.5z M233.4,542.5c1.8,0.9,1.8,0.9,5,0.6C236.3,542.8,234.8,542.6,233.4,542.5z M317.6,336.6
		c1,1,2.1,1.8,3.9,1.9C320.3,337.1,319.2,336.3,317.6,336.6z M397,499.8c-1.2,0.5-1.4,1.5-1.7,2.5c0,0.1,0.2,0.3,0.4,0.5
		c0.4-0.2,0.8-0.4,1.4-0.7C397,501.4,397,500.6,397,499.8z M315,334.9c-1-1.3-1-1.4-2.1-1.3c-0.1,0-0.2,0.3-0.4,0.6
		C313.4,334.5,314.2,334.7,315,334.9z M304.9,333.5c0.8-0.1,1.4-0.2,2.2-0.3C305.9,332.2,305.9,332.2,304.9,333.5z M330,352
		c-0.6-0.5-0.8-0.8-1.1-0.9c-0.2-0.1-0.5,0.1-0.8,0.2c0.1,0.2,0.2,0.5,0.4,0.5C328.8,351.9,329.2,351.9,330,352z M311.2,341.2
		c-0.2,0.1-0.3-1.4-1.1-0.7C310.8,341.3,310.8,341.3,311.2,341.2z M319.9,349.2c0.5,0.6,0.7,0.9,1,1c0.2,0.1,0.6,0,0.9,0
		c-0.1-0.3-0.1-0.7-0.3-0.8C321.1,349.2,320.7,349.3,319.9,349.2z M394.8,505.3c-0.1-0.2-0.1-0.5-0.3-0.6c-0.1-0.1-0.4,0-0.6,0.1
		c0.1,0.3,0.2,0.5,0.3,0.8C394.5,505.5,394.6,505.4,394.8,505.3z M298.1,346.9c-0.1,0.2-0.2,0.3-0.3,0.5c0,0,0.2,0.2,0.2,0.2
		c0.2-0.1,0.3-0.2,0.5-0.3C298.4,347.2,298.3,347.1,298.1,346.9z M634.1,559.3c-0.5-0.5-0.9-0.4-1.3,0.2
		C633.3,559.9,633.7,559.9,634.1,559.3z M341.2,342.9c-0.1-0.1-0.1-0.2-0.2-0.3c-0.1,0.2-0.2,0.3-0.2,0.5c0,0.1,0.1,0.2,0.2,0.2
		C341,343.2,341.1,343,341.2,342.9z M331,329.7c0,0.1,0,0.2,0.1,0.2c0.1,0,0.2,0,0.3,0.1c0-0.1-0.1-0.2-0.1-0.3
		C331.2,329.6,331.1,329.7,331,329.7z M308.5,355.1c0-0.1-0.1-0.2-0.1-0.2c-0.1,0-0.2,0.1-0.2,0.1c0.1,0.1,0.1,0.2,0.2,0.4
		C308.4,355.2,308.5,355.2,308.5,355.1z M337.3,352.5c-0.2-0.1-0.3-0.2-0.5-0.3c0,0-0.1,0.1-0.2,0.2c0.2,0.1,0.3,0.2,0.5,0.2
		C337.1,352.7,337.2,352.5,337.3,352.5z M332.5,343.3c-0.2-0.1-0.4-0.2-0.6-0.2c-0.1,0-0.2,0.1-0.3,0.2c0.1,0.1,0.2,0.2,0.2,0.2
		C332.1,343.5,332.3,343.4,332.5,343.3z M330.5,346.1l-0.2-0.1l0,0.2L330.5,346.1z M299.1,339.6l-0.1,0.1l0.2,0L299.1,339.6z
		 M312.5,325.5l0.2,0.1l0-0.2L312.5,325.5z M300.6,361.7l-0.2-0.1l0,0.2L300.6,361.7z"/>
	<path d="M307.4,61c-0.6-0.2-1.2-0.4-2-0.7c1.9,4.4,2.6,5.5,4.4,6.8c1-0.2,1.2-1,1.2-1.9c0.1-0.7-0.1-1.5,1-1.8
		c0.2,0.3,0.7,0.7,0.6,1.1c-0.2,1.6,0.7,2.9,1.4,4.3c1.2,2.3,2.5,4.6,3.7,6.8c1.1,2,2.8,3.3,5,3.6c1.9,0.3,3.7,1,5.3,2
		c3.5,2.1,7.4,2.9,11.4,3.8c2.1,0.4,4-0.4,5.9-0.8c1.1-0.3,2.2-0.9,3.2-1.3c1-2.4,2.1-4.6,3-6.9c0.7-1.6,1.3-3.3,0.8-5.1
		c-0.2-0.9,0.1-1.9,0.1-2.8c0-1.3-0.2-2.6-0.2-3.9c0-0.4-0.1-1,0.1-1.3c1.1-1.7,0.9-3.6,1.1-5.5c0-0.5,0.1-0.9,0.2-1.6
		c1.6-0.1,3.1,0.1,4.6,0.3c2.7,0.3,5.4,0.8,8.1-0.1c3.2,0.3,6-0.7,8.8-2.2c1.9-1,4-1.2,6.2-1.4c6.8-0.5,13.1,0.9,19.3,3.6
		c3.1,1.3,5.7,3.2,8.2,5.4c3.4,3.1,7,6,10.5,9c1.3,1.1,2.7,1.8,4.4,2.2c4.1,1,8.3,2,12,4.1c4.2,2.3,8,5,10.7,9.1
		c1.6,2.4,3.8,3.7,6.7,4.1c3.6,0.5,7.2,1.1,10.8,1.6c0.7,0.1,1.4,0.2,2.1,0.5c3.5,1.3,7.1,2.6,10.6,4c1.3,0.5,2.5,1.4,3.5,2.4
		c3.4,3.4,7.2,6.1,11.2,8.5c5.4,3.2,10.6,6.7,15.9,10c0.8,0.5,1.6,1,2.3,1.7c1.2,1.2,2.6,2,4.2,2.5c0.8,0.3,1.8,0.6,2.1,1.2
		c0.9,1.8,2.6,2.6,4.1,3.7c1,0.8,2,1.7,2.9,2.6c2.1,2.1,4.1,4.2,6.2,6.3c1.8,1.9,3.7,3.7,6.1,4.7c1.4,0.6,2.2,1.7,2.8,3
		c0.3,0.6,0.6,1.2,0.9,1.8c3-1,5.8-1.8,8.5-2.9c4.4-1.8,8.7-3.7,13-5.7c2.4-1.1,4.7-2,7.3-2.7c2.8-0.7,5.3-2.1,7.5-3.8
		c0.8-0.6,1.5-1.5,2-2.4c1-2,2.8-3.1,4.7-4.1c0.6-0.3,1.4-0.3,2-0.3c1.8,0,3.5,0.6,5.1,1.4c1.5,0.7,2.9,1.5,4.4,2.2
		c0.7,0.3,1.5,0.6,2.5,1c1.1,3.1,2.5,6.5,3.5,10c2.3,8.2,0.1,15.1-6,20.9c-2.8,2.7-6.2,4.7-9.8,6.3c-1,0.4-2,0.8-3,0.8
		c-2.4,0-4.6,0.9-6.9,1.6c-2.9,0.9-5.7,2.2-8,4.3c-1.4,1.2-3.1,2.2-4.6,3.3c-1.8,1.3-3.7,2.5-6.1,2.3c-0.2,0-0.4,0.2-0.6,0.4
		c-0.3,0.7,0.2,1.1,0.6,1.5c3.1,3.2,6.7,5.6,10.9,7.1c1.7,0.6,3.3,1.2,5,1.8c4.5,1.6,8.5,3.9,12.5,6.6c5.4,3.7,10.1,8.2,14.7,12.8
		c7.4,7.2,15.2,13.8,23.6,19.8c3,2.1,5.8,4.4,9.1,6.1c3.2,1.8,6.1,4.1,8.4,7c0.4,0.4,0.8,0.9,1.3,1.4c0.8-0.2,1.6-0.5,2.3-0.6
		c1.5-0.3,3-0.6,4.5-0.9c1.8-0.4,3.2,0.4,4.4,1.7c0.8,0.9,1.6,1.8,2.1,2.9c1.6,3.6,4.3,6.4,6.9,9.3c0.6,0.7,1.2,1.4,1.5,2.3
		c1,2.3,2,4.5,3.2,6.7c0.5,1,1.4,1.9,2.3,2.6c1.5,1.2,2.8,2.4,3.2,4.5c0.1,0.9,0.9,1.7,1.4,2.4c2,2.8,4,5.6,5.9,8.4
		c0.5,0.8,0.9,1.7,1.1,2.6c0.3,1.3,0.3,2.6,0.5,3.9c0.3,2.1-0.7,3.9-1.4,5.7c-0.2,0.6-1,1-1.6,1.4c-2.3,1.3-4.8,1.9-7.4,2.2
		c-5.6,0.7-11.3,1.2-16.9,0.6c-2.3-0.2-4.7-0.3-7.1-0.2c-3.5,0.2-5.6-2.1-8-4c-0.2-0.2-0.4-0.6-0.5-0.9c-0.2-2.2-0.5-4.5,0.9-6.7
		c1.7,1.8,0.7,4,1.3,6.1c0.2,0.2,0.6,0.6,1,1c1.7,2.1,4,2.7,6.6,2.7c4.6,0,9.2,0,13.8,0c3.2,0,6.4-0.1,9.5-0.7
		c2.1-0.4,4.1-1,5.8-1.5c2.1-2.8,2.2-5.5,1.7-8.4c-0.2-1.5-0.4-3.1-1.9-4c-1.6-2.6-3.5-5.1-4.8-7.9c-1.3-3-3.4-5-6.1-6.7
		c-0.6,0.8-1.1,1.5-1.7,2.3c-0.5-0.3-0.9-0.6-1.3-0.8c-0.3-0.2-0.6-0.4-0.8-0.5c-3.8,0.2-7.5,1.9-11.4,1.5c0.2-1.7,1.3-1.7,2.1-2
		c1-0.4,2-0.7,3-1c0.9-0.3,1.8-0.5,2.7-0.7c1-0.2,2.1-0.4,3.2-0.5c0.9-0.1,1.8,0,2.8,0c0-1-0.2-1.7-1.3-1.4
		c-0.9,0.2-1.7,0.2-2.3-0.4c-0.8-0.8-1.7-0.7-2.7-0.6c-3.1,0.1-6,1-8.9,2.2c-0.7,0.3-1.3,0.6-2,0.7c-0.2,0.1-0.6-0.3-0.9-0.4
		c0.5-1.5,1.7-2,2.9-2.6c3.2-1.6,6.7-2.4,10.2-2.6c0.9-0.1,1.8-0.1,2.8-0.1c0-1.1-0.4-1.9-1.3-2c-5.1-0.5-10.2-0.9-14.9,1.6
		c-0.8,0.4-1.5,1.1-2.4,1.6c-0.3,0.2-0.8,0.2-1.5,0.3c0.3-1.5,1.2-2.3,2.2-3c3-2.3,6.6-3.1,10.3-3.4c1.4-0.1,2.8-0.1,4.2-0.1
		c0-0.3,0.1-0.5,0.1-0.5c-0.7-1.1-1.3-2.2-2-3.3c-0.7,0.1-1.2,0.2-1.9,0.3c-1.5-2.6-2-5.8-4.4-7.9c-3.9-0.4-7.4,1.2-10.9,2.5
		c-0.8,0.3-1.3,1-1.2,2c0.1,1.5,0.3,3,0.5,4.9c-0.3,0.5-0.8,1.3-1.4,2c-0.7,0.9-1.6,1.8-2.3,2.7c-0.9,1.1-1.7,2.3-2.8,3.2
		c-1,0.8-2.3,1.1-3.6,1.7c-0.1,1.2-0.1,2.3-0.2,3.5c-0.1,0.7-0.2,1.6-0.6,2c-3.4,3.1-4,7.3-4.4,11.5c0,0.2,0.1,0.5,0.1,0.9
		c1.1,0.9,2.5,1.4,4,1.9c1.1,0.4,2.2,0.6,2.9,1.8c0.3,0.5,1.1,0.8,1.8,1.1c1,0.6,2.1,1,3.1,1.7c0.6,0.4,1.1,1.1,1.9,2
		c-0.8,0.1-1.3,0.3-1.6,0.2c-4.1-2-8.3-4-12.5-6c-0.5-0.9-1.1-1.9-1.5-2.7c0.3-2,0.5-3.8,0.7-5.5c0.1-1.3,0.5-2.5,1.2-3.6
		c0.5-0.8,1.1-1.5,1.7-2.3c0.8-1.1,1.1-2.3,1.2-3.6c0-2.4,0.1-2.4,1.4-4.5c-1.8-3-4.5-5.1-7.7-6.5c-2.7-1.2-5.4-2.3-8.1-3.5
		c-0.3-0.1-0.7-0.4-1-0.4c-2.9,0-5.2-1.5-7.6-2.7c-5.4-2.7-11-5-16.6-7.1c-1.8-0.7-3.6-1.1-5.5-0.8c-3.9,0.5-7.5-0.4-10.9-2.4
		c-3.5-2.1-7-4.4-10.4-6.7c-2.1-1.4-3.8-3.2-4.9-5.5c-0.3-0.6-0.7-1.2-1.2-1.7c-5.8-5.9-11.9-11.4-18.5-16.4
		c-3.4-2.6-7.2-2.7-11.1-1.6c-1.5,0.4-2.9,1-4.2,1.5c-1.1,2.4-2,4.7-3.1,6.9c-0.8,1.7-1.9,3.3-4,3.8c-0.6,0.1-1.2,0.8-1.8,1.1
		c-1.3,0.6-2.5,1.3-3.8,1.8c-1.6,0.6-3.3,1.1-5.4,1.8c-4.6-1.3-9.6-2.6-14.6-4c-0.9-0.2-1.8-0.6-2.8-0.6c-1.5-0.1-2.7-0.7-3.9-1.6
		c-0.7-0.5-1.4-0.9-2.1-1.3c-1.9-0.9-3.8-1.2-5.8-0.1c-1.9,1.1-3.7,1.1-5.7,0.1c-0.9-0.5-2-0.6-3.1-0.7c-1.2-0.1-2.3,0-3.4,0
		c-2.6,2.5-3,6.1-5.1,8.6c0.4,1.5,0.9,2.8,1.2,4.2c1,4.5,0.5,8.7-2.6,12.3c-2.5,3-5.1,5.8-8.5,7.9c-7.8,4.7-15.8,9-24,13
		c-3.4,1.6-6.8,3.3-10.2,4.9c-7,3.2-14,6.3-21,9.4c-1.4,0.6-2.7,1.4-4,2.2c-3.7,2.3-7.7,4.2-11.9,5.5c-2,0.6-4.2,0.6-6.3,0.8
		c-1.4,0.1-2.8,0.3-4.2,0.2c-1.2,0-2.4,0-3.4-0.5c-2.3-1.1-4.5-2.5-6.8-3.8c-0.4-0.2-0.6-0.7-0.9-1.1c-2.2-3.1-3.9-6.4-5.3-10
		c-0.9-2.4-1.4-5-1.3-7.6c0.2-4.1,0.8-8.2,2.2-12.2c0.5-1.5,1.3-2.7,2.6-3.7c1.9-1.6,3.9-3.1,6.5-3.5c0.7-0.1,1.3-0.5,2-0.8
		c2.3-1,4.5-2.1,6.8-3.1c10-4.6,20.2-8.5,31-11.9c-1-0.6-1.7-1-2.4-1.5c-1-0.6-2.1-1.4-2.3-2.6c-0.3-2.4-1.9-3.9-3.6-5.5
		c0-0.9,0-2,0-3.2c-0.1-0.2-0.2-0.5-0.4-0.8c-2.2-3.3-5.2-5.8-8.7-7.6c-5.4-2.9-10.6-6.3-15.6-9.8c-1.9-1.4-4-2.6-5.9-3.8
		c-1-0.6-2-1.2-3.3-1.1c-0.7,0-1.6-0.5-2.2-0.9c-2.1-1.5-4.2-3-6.3-4.6c-4.2-3.2-8.4-6.5-12.6-9.8c-1.2-0.9-2.4-2-3.5-2.9
		c-0.5-0.4-1.1-1.2-1.7-1.3c-1.9-0.3-3.1-1.6-4.4-2.8c-5.1-4.7-10.2-9.4-15.2-14.3c-1.6-1.5-2.8-3.5-4.3-5.3c-1,0.2-1.3,1.1-1.6,1.9
		c-0.8,2.9-1.8,5.9-2.3,8.9c-1,5.4-2.8,10.5-5.1,15.4c-0.7,1.6-1.6,3.2-2.7,4.6c-1.5,1.9-2.5,4-3.6,6.1c-0.7,1.3-1.5,2.6-2.5,4.2
		c1,6.8-0.2,13.7-2.4,20.5c-0.5,1.6-1.1,3.1-2.1,4.5c-0.5,0.6-0.8,1.4-1.2,2.2c-3,6.3-5.4,12.8-7.4,19.5c-1.4,4.7-3.1,9.4-4.7,14.1
		c0,0.1-0.1,0.2-0.1,0.3c-1.8,4.2-2.8,5-7.4,5.2c-1.3,0.1-2.6,0-3.9-0.2c-1.5-0.2-3-0.4-4.6-0.7c-1.2-0.2-2.3-0.1-3.4,0.4
		c-2.5,1.3-5.3,1-8,1.4c-0.5,0.1-1.2-0.1-1.7-0.3c-1.3-0.4-1.9-1.3-1.7-2.7c0.1-0.7,0.3-1.4,0.6-2.1c-3-0.4-6-0.4-8.9,0
		c-2,0.2-4,0.7-5.9,1.1c-3,0.7-5.6-0.4-8-1.9c-0.6-0.3-1-1-1.3-1.6c-0.7-1.2-0.3-2.3,1-2.8c1-0.4,2-0.6,3-0.9
		c2.5-0.8,4.9-1.6,7.4-2.4c0.9-0.3,1.8-0.6,2.7-0.8c0.9-0.3,1.9-0.3,2.7-0.8c4.1-2.2,8.2-1.7,12.3-0.3c0.8,0.3,1.6,0.4,2.4,0.1
		c3-1.2,6.1-1.6,9.3-1.6c0.9,0,1.9-0.1,2.8-0.2c1.9-3.8,2.5-7.7,1.5-11.8c-0.1-0.6-0.2-1.2-0.2-1.7c0-5.7,0.1-11.3,0.2-17
		c0-1.9,0.3-3.8,0.3-5.7c0-4.8,0.7-9.4,2.4-13.9c0.5-1.2,0.6-2.3,0.4-3.5c-0.7-3.5-0.5-7,0-10.6c0.1-0.7,0.4-1.5,0.2-2.1
		c-0.7-3.3,0.8-6,2.4-8.6c0.2-0.4,0.5-0.8,0.5-0.9c0-3.2,0.1-6,0-8.8c0-1.3-0.3-2.6-0.7-3.8c-1.2-3.4-1.2-6.9-0.7-10.5
		c0.4-2.7,1.3-5.3,2.5-7.7c0.8-1.5,1-3,0.9-4.8c-0.2-4.2-0.2-8.5,0.1-12.7c0.4-5.6,2.4-10.8,5.7-15.4c1.7-2.4,3.9-4.4,6.9-5.2
		c0.8-0.2,1.5-0.7,2.2-1.1c2-1,4-1.9,6.1-2.9c1.2-0.6,2.3-1.2,3.4-1.8c0.9-0.5,1.5-1.4,2-2.4c1.6-3.7,4.1-6.9,6.7-10
		c1.5-1.7,3.2-3.1,5.2-4.2c1.4-0.8,2.8-1.3,4.4-1.2c0,1-0.8,1.3-1.5,1.7c-4.2,2.4-7.1,6-9.6,10c0.7,1,1.3,2,1.9,2.8
		c8.5,11.6,13.1,25,16.5,38.8c0.9,3.5,0.7,7,0.4,10.6c-0.1,1.1-0.3,2-1.5,2.8c-0.1-0.5-0.2-0.8-0.2-1.2c0.4-5.4-0.1-10.6-1.7-15.7
		c-1.8-6-3.8-11.9-5.9-17.8c-2.3-6.6-6-12.6-10-18.3c-0.1-0.2-0.4-0.2-0.8-0.5c-0.7,0.9-1.3,1.8-2,2.8c-0.8,1.1-1.7,2.1-3.1,2.8
		c-3.2,1.6-6.1,3.5-9.2,5.2c-1.5,0.9-2.9,2-4.7,2.4c-0.7,0.2-1.5,0.8-1.9,1.4c-1,1.3-2,2.6-2.8,4.1c-2.5,4.4-3.9,9.1-4.4,14.1
		c-0.2,2.5-0.4,5.1-0.4,7.6c0.7,0.1,1.1,0.2,1.5,0.2c0.3,2.3,0.6,4.4,1,7.1c-1-0.9-1.7-1.5-2.5-2.2c-0.6,1.8-1.2,3.3-1.8,4.9
		c-1.7,4.9-1.9,9.9-0.3,14.9c0.3,1,0.7,2,1,3c0.4,1.6,1.3,3.3-0.4,4.8c-0.4,0.4-0.2,1.6-0.2,2.4c0.1,1.9-0.1,3.8-1.3,5.4
		c-0.4,0.5-0.5,1-0.8,1.6c-1.2,2.6-1.9,5.2-1.7,8.2c0.2,5.3,0.6,10.5,0.1,15.8l0.1-0.1c-1.1,0.9-1.2,2.2-1.5,3.4
		c-0.4,2.4-0.7,4.9-0.9,7.3c-1,8.8-0.8,17.6-0.4,26.5c0.2,3.7,0.4,7.5-0.6,11.2c0.6,0.6,1.1,1.1,1.8,1.9c-1.7-0.2-3-0.5-4.4-0.4
		c-2.9,0.2-5.9,0.2-8.7,1.1c-1.4,0.4-3,0.6-4.5,0.7c-3,0.2-6.1,0.3-9.2,0.5c-2.7,0.2-5.4,0.2-8,1c-3.4,1-6.7,2.1-10.1,3.1
		c-0.6,0.2-1.4,0.3-1.6,1.1c0.5,1.4,2.1-0.4,2.7,0.8l-0.1-0.1c0.1,0.6,0.1,1.3,0.8,1.5c1.1,0.3,2.2,0.8,3.4,0.4
		c4.7-1.4,9.6-1.4,14.4-0.9c3.2,0.3,5.9-0.5,8.2-2.5c1.7-1.4,3.4-2,5.5-1.7c0.8,0.1,1.7,0,2.5,0.2c0.4,0.1,0.7,0.4,1.5,1
		c-2.1,0.1-3.7,0.1-5.2,0.1c-1,0-1.8,0.3-2.6,1c-1.8,1.6-3.7,2.9-6,3.7c-0.6,0.2-1.2,0.7-1.6,1.3c-0.2,0.3-0.3,0.9-0.1,1.3
		c0.2,0.4,0.7,0.8,1,0.8c2.2-0.3,4.5,0,6.6-1c2.5-1.1,5-1,7.6-0.5c2.2,0.4,4.5,0.4,6.7,0.3c2.2,0,4.2-0.8,5.1-3.2
		c-0.5-1.3-0.1-2.5,0.6-3.7c1.8-3,2.5-6.3,3.3-9.7c0.1-0.6,0.2-1.3,0.6-1.6c1-1,1.3-2.2,1.7-3.5c0.7-2,1.2-4,1.8-6.1
		c1-3.3,2.5-6.4,4.1-9.4c4.4-8.4,7.2-17.2,6.5-26.8c-0.1-1,0.1-1.8,0.6-2.7c2.2-4.2,4-8.5,6.6-12.5c1.4-2.1,2.4-4.6,3.6-6.9
		c0.9-1.9,1.5-3.9,1.8-6.1c0.6-4.7,1.8-9.3,3.8-13.6c1-2.2,1-4.4,1-6.7c-1.4-0.4-2.5-0.7-3.6-1.1c-0.1,0-0.2-0.3-0.3-0.5
		c0.5-0.8,1.2-0.6,1.9-0.6c1.1,0.1,2.1,0.5,3.1,0.4c2.2-0.2,4.2,0.5,6.2,1.3c1.4,0.6,2.8,1.3,4.5,1.2c0.3-0.7,0.6-1.4,1-2.2
		c0.2-0.3,0.5-0.6,1-1.2c0,1.5,0,2.5,0,3.6c1.5,0.4,3,0.8,4.4,1.1c2.9,0.6,5.9,0.7,8.8,0.1c1.3-0.3,2.5-0.3,3.8,0
		c2.5,0.5,4.9,0.4,7.4-0.2c0.7-0.2,1.5-0.7,2.4-0.2c-0.2,0.3-0.4,0.6-0.6,0.8c-1.8,1.4-3.9,1.6-6.1,1.5c-1.9-0.1-3.7,0-5.6,0.5
		c-2.6,0.8-5.4,0.8-8.1,0.4c-2.5-0.4-5.1-1-7.7-1.6c-1.7,2-3.4,4-5.4,6.3c1,0.8,1.9,1.6,2.8,2.4c1.5,1.3,3,2.6,4.6,3.9
		c3.1,2.5,6.1,5.2,8.6,8.3c0.8,1,1.7,2,2.7,2.8c3.2,2.8,6.3,5.7,9.7,8.3c4,3.1,8.2,6,12.5,8.7c9.8,5.9,19.7,11.7,29.6,17.5
		c0.6,0.4,1.2,0.7,1.8,1.2c1.4,1.2,2.9,1.8,4.9,1.7c1.1-1.7,2.1-3.6,3.3-5.4c0.4-0.6,0.8-1.2,1.4-1.6c0.5-0.4,1.3-0.5,1.8-0.7
		c0.7-1.4,1.3-2.7,2.1-3.8c1.7-2.6,2.6-5.5,3.2-8.5c0.1-0.6,0.3-1.1,0.6-1.6c0.9-1.8,1.9-3.5,2.9-5.3c0.2-0.4,0.6-0.6,0.9-0.9
		l-0.1-0.1c-0.1,0.5,0,1-0.2,1.4c-0.9,2.4-1.8,4.8-2.7,7.3c-1.5,4.1-2.4,8.4-1.5,12.8c0.1,0.3-0.1,0.6-0.2,0.9
		c-1.5-0.4-0.9-2.3-2.2-2.9c-2,3.8-2,7.5,0.1,11.2c0.6,1.1,1.2,2.3,1.8,3.5c0.2,0.5,0.7,1,0.2,1.6c-0.1,0-0.3,0.1-0.3,0.1
		c-2.5-2.3-3.7-5.5-5.3-8.4c-0.2,0.1-0.4,0.2-0.4,0.2c-0.6,2.5-1.4,5-1.8,7.5c-0.4,2.6,1,4.4,3.1,6c0.2-1.2,0.3-2.1,0.4-3
		c0.1-0.7,1.3-0.9,1.7-0.4c0.4,0.4,0.7,0.9,0.9,1.5c0.9,2.5,2.6,4.4,4.4,6.1c1.6,0.2,3.2,0.3,4.7,0.7c3.1,0.7,6.2,1.3,8.6,3.6
		l0.1-0.1c-1-0.2-2-0.4-3.1-0.6c-2.1-0.5-4.1-1.1-6.2-1.5c-1.7-0.3-3.5-0.4-5,0.9c-0.5,0.4-1.3,0.5-2,0.7c-1.5,0.5-2.9,0.9-4.4,1.4
		c-8.4,3.2-16.8,6.2-24.9,10c-0.5,0.2-1,0.5-2.2,1.1c1.3,0.1,2,0.2,2.6,0.3c1.3,0.1,2.5,0.5,3.5,1.4c0.3,0.3,0.8,0.6,0.2,1.1
		c-1.4-0.6-2.7-1.2-4.3-1.3c-2.2-0.1-4.3,1-6.6,0.4c-0.2-0.1-0.4,0.1-0.7,0.2c-2.1,0.8-4.2,1.5-6.3,2.4c-2.9,1.3-5.1,3.5-5.9,6.6
		c-0.5,1.7-0.6,3.5-0.8,5.2c-0.1,1.2,0.1,2.4-0.3,3.5c-0.4,1.4-0.4,2.8,0,4.2c0.4,1.7,0.7,3.5,1.2,5.2c1.5,4.9,1.5,4.9,4.3,8.7
		c0.3,0.4,0.6,0.8,1,1c1.5,0.9,3.1,1.8,4.6,2.6c1.5,0.9,3,1.1,4.7,1.2c3.8,0.2,7.5-0.7,11.1-1.8c1.3-0.4,2.6-1.2,3.6-2.1
		c1.1-1,2.4-1.8,3-3.3c0.7-1.6,1.8-3,2.7-4.5c0-0.1,0.2-0.1,0.6-0.1c0.6,1.7-1,2.9-1.3,4.5c2.1-0.3,3.8-1.1,5.5-1.7
		c7.6-2.9,15.1-6,22.2-10.1c2.5-1.4,5.1-2.5,7.6-3.7c6.9-3.4,13.7-6.9,20.6-10.2c3.9-1.8,7.1-4.6,10.3-7.4c4.3-3.9,5-8.8,4-14.3
		c-0.1-0.4-0.5-0.8-0.7-1.2c-0.4,0.2-0.7,0.3-1,0.4c-2.9,1.3-5.8,2.7-8.6,4c-0.6,0.3-1.1,0.3-1.5-0.3c0.3-0.3,0.5-0.5,0.8-0.8
		c2.5-1.2,5-2.5,7.6-3.7c0.3-0.2,0.6-0.4,0.8-0.7c1.2-1.7,2.6-3.4,3.5-5.3c1.1-2.1,2.3-4.1,3.7-6c0.5-0.7,1.1-1.4,1.6-2.1
		c-0.7-0.6-1.4,0.8-1.9-0.4c1.4-1.8,3.4-2.8,5.4-3.8c2.2-1.1,2.9-2,4-4.8c-3.2,1.9-6.3,3.7-9.7,4.6c-0.4,0.1-0.8,0.4-1.2,0.7
		c-1.6,1.4-3.5,1.8-5.6,1.7c-2.5-0.2-4.9-0.5-7.4-0.7c-5.7-0.4-10.5-2.8-14.5-6.6c-6.6-6.2-11.9-13.4-14.9-22.1
		c-1.5-4.2-2.8-8.5-4.2-12.8c-0.3-1-0.6-1.9-1.1-3.2c-1.1,1.4-1.5,2.8-2.1,4c-0.6,1.2-0.9,2.7-2.1,3.6c-0.7-1-0.3-1.9-0.1-2.8
		c0.9-3.4,2.4-6.6,4-9.8c0.6-1.3,1.5-2.4,1.5-3.9c0-0.5,0.5-1,0.8-1.5c2.3-3.3,4.6-6.6,6.9-9.9c0.4-0.6,0.6-1.2,1-1.9
		c-3.3-3-7.2-5.1-10.2-7.9c-3.1,0.3-5.8-0.2-9.1-1.8c0.4-0.2,0.7-0.5,0.9-0.4c1.6,0.3,3.2,0.7,4.8,1c0.6,0.1,1.4,0.4,1.9-0.5
		c-1-3.5-1.9-7.2-4-10.7c-1,1.8-1.9,3.3-3.9,3.7c-0.5,0.1-0.8,0.9-1.3,1.2c-1.4,1-3,1.8-5.1,1.2c1.7-2,4-2.8,6.2-4.1
		c0.6-1.6,1.5-3.3,2-5c1.4-4.7,1.6-9.5,0.3-14.3c-0.7-2.5-1.2-5-1.8-7.5c-0.2-1.2-1.7-1.5-1.7-2.9c0.7,0.3,1.5,0.5,2.3,0.8
		c0.5-1,0.8-1.8,1.3-2.6c0.3-0.5,0.7-0.9,1.2-1.3c0.6-0.5,1.1-0.4,1.8,0.4c-1,2.4-1.9,4.8-3,7.3c0.7,0.3,1.4,0.4,2,0.8
		c0.6,0.3,1.1,0.9,1.7,1.3c3.3,2.2,6.6,4.5,10,6.7c1.9,1.2,4,2.1,6.2,2.4c2.5,0.3,4.9,0.4,7.4,0.7c1.8,0.2,3.5,0.3,5.2,0.7
		c3,0.8,6,0.9,8.6,1.3c2-1.1,3.7-1.9,5.5-2.9c0,0.7,0.1,1.2,0,1.5c-0.5,1-1.4,1.6-2.5,1.7c-0.7,0.1-1.5-0.1-1.8,0.8
		c-0.1,0.9,0.7,1.1,1.3,1.5c2.8,1.5,5.6,3,8.3,4.6c1.4,0.9,2.9,1.6,4.5,2c1.3,0.4,2.6,1,3.9,1.5c0.9,0.4,1.6,0.9,2.5,1.3
		c2,0.8,3.8,1.9,5.4,3.3c0.9,0.8,1.9,1.4,3,1.9c0.6,0.3,1.3,0.5,2,0.5c6.3-0.2,12.5,0.4,18.7,1.2c0.6,0.1,1.2,0.2,1.7,0
		c1.2-0.5,2.3-0.6,3.4,0c1.1,0.6,2-0.4,3.1-0.4c0.9,0.6,1.9,1.3,2.9,1.8c1.1,0.6,2.5,0.7,3.1,2.1c-1.1,1.7-2.4,5.5-2.6,7.9
		c0.8,1,1.7,2.2,2.6,3.2c3.1,3.3,6.9,6.1,9.1,10.2c0.7,1.3,1.9,2,3.6,1.4c0.8-0.9,1.1-1.9,0.9-3.2c-0.2-1.5-0.8-2.9-0.4-4.8
		c1.4,2.4,1.6,4.9,1.9,7.3c0.1,0.6-0.3,1.5-0.8,1.8c-1.3,0.8-1.2,1.9-1.1,3.1c0.1,0.8,0.2,1.6,0.4,2.4c0.3,1.5,0,2.8-0.7,4.1
		c-0.8,1.3-1.4,2.6-2.2,4c0.6,0.6,1,1.1,1.5,1.6c1.9-1.1,3.7-2,5.4-3c0.6-0.3,1.2-0.8,1.5-1.4c0.8-1.7,1.8-3.4,1.6-5.3l-0.1,0.1
		c1,0.7,1,1.7,0.7,2.7c-0.2,0.7-0.4,1.5-0.7,2.5c1.4-0.4,1.7-1.4,2.4-2.2c0.4-0.4,0.5-1.1,1.3-0.9l-0.1-0.1c0.1,1.1-1,2.1-0.6,3.3
		c1.5-0.1,2.5-0.8,3.2-2c0.4-0.7,0.8-1.5,1.4-2c1.2-1.2,1.4-2.7,1.2-4.2c-0.2-1.9-0.5-3.7-0.7-5.6c-0.1-1.2-0.3-2.4,0.2-4.3
		c0.7,4.1,1.3,7.6,1.8,11.1c0.2,1.5,0.1,3-0.8,4.4c-0.2,0.3-0.6,0.7-0.2,1.2c0.9,0.3,1.8,0.9,2.2-0.5c1.9-0.4,2.8-1.5,2.7-3.5
		c-0.1-1.6,0-3.3,0-4.9c-0.8,1.1-0.9,2.5-1.1,3.8c-0.2,1.6-0.5,3.2-1.5,4.6c-0.7-0.6-0.8-1.4-0.6-2.3c0.3-1.1,0.7-2.2,0.9-3.4
		c0.2-1.1,0.3-2.4,0.1-3.5c-0.3-2.7-0.7-5.4-1.3-8c-0.5-2-1.4-4-2.2-5.9c-0.3-0.6-1-1-1.5-1.4c-1.3-0.9-2.7-1.5-3.8-2.5
		c-2.5-2.1-4.9-4.4-7.3-6.7c-2.4-2.4-4.6-5.1-7.6-6.8c-0.2-0.1-0.4-0.3-0.5-0.5c-0.7-1.7-2.2-2.3-3.8-2.9c-1.1-0.4-1.9-1.3-2.9-1.9
		c-3.2-2.1-6.2-4.4-9.5-6.1c-4.6-2.2-8.8-5-12.9-7.9c-0.7-0.5-1.3-1.2-2-1.4c-1.7-0.5-2.8-1.8-3.9-3c-1.4-1.5-2.8-3-4.7-3.7
		c-4.5-1.8-8.9-3.8-13.6-4.9c-4-0.9-8.1-1.5-12.2-2.2c-1.7-0.3-3.1-1.1-4.1-2.5c-2.9-4.3-6.9-7.4-11.4-9.8c-3.5-2-7.4-3-11.2-4.4
		c-0.2-0.1-0.5-0.2-0.7-0.1c-1.6,0.7-2.7-0.3-3.8-1.2c-3-2.5-6.1-4.9-8.8-7.7c-1.7-1.7-3.6-3.1-5.5-4.3c-6.9-4.3-14.3-6.4-22.5-6.3
		c-3.4,0.1-6.6,0.7-9.5,2.4c-1.7,1-3.4,1.5-5.4,1.3c-1-0.1-2.2-0.2-3,0.7c-1-0.1-2-0.2-3.1-0.3c-0.9,0-1.9-0.5-3.2,0.1
		c1.1,1,2,1.7,2.8,2.5c0.5,0.6,0.9,1.3,1.4,1.9l0.1-0.1c-1,0.1-1.8-0.6-2.5-1.2c-1.2-1.1-2.5-2.2-3.7-3.3c-0.4-0.3-0.9-0.6-1.7-1
		c-0.1,2.7-0.2,5.1-0.1,7.4c0.1,3.6-0.5,7-1,10.5c-0.2,1.3-0.7,2.5-1.1,3.7c-0.3,0.9-0.9,1.7-1.1,2.6c-0.2,1.3-1,2.1-2.1,2.7
		c-3.1,1.6-6.3,2.5-9.9,1.8c-0.9-0.2-1.8-0.4-2.8-0.5c-2.7-0.4-5.3-1.1-7.7-2.5c-0.6-0.4-1.2-0.7-1.9-0.9c-2.4-0.7-4.5-2-6.7-3.1
		c-2.2-1.1-3.7-2.8-4.7-5c-0.6-1.1-0.8-2.4-1.8-3.3c-1.2,0.3-0.9,1.3-1.1,2.1c-0.1,0.6-0.2,1.2-1.1,1.1c-1-0.9-0.7-2.1-0.8-3.3
		c0-0.8,0.1-1.7-0.8-2.2c-2.8-2.8-5-5.9-7-9.3c-0.6-1.1-1.4-2.1-2.3-3.5c-0.4-1.5,0.3-3.2,1.3-4.9c-1.3-2.4-2.4-4.9-2.9-7.7
		c-0.2-1.2-0.8-2.5-1.4-3.6c-1.7-2.8-2.6-5.8-3.6-8.8c-0.8-2.3-0.6-4.6,0.3-6.9c0.3-0.8,1-0.8,1.9-0.8c0.6-1.6,1.1-3.3,1-5.1
		c-0.1-1.3,0.4-2.3,1.1-3.2c1.1-1.5,2.2-3.1,3.4-4.6c0.3-0.4,0.8-0.7,1.3-1.2c0.4,0.5,0.7,0.9,1,1.3c1-0.6,1.9-1.3,3-1.7
		c0.9-0.4,1.9-0.4,3.2-0.5c-0.8-1-1.5-1.9-2.3-2.9c0.6-0.3,1.1-0.6,1.6-0.8c0.4-0.1,0.9-0.1,1.6-0.3c-0.5-0.6-0.8-1-1.1-1.4
		c-0.1-0.3-0.1-0.7,0-1c0-0.1,0.4-0.3,0.6-0.2c1.2,0.3,2.5,0.5,3.7,1c0.7,0.3,1.2,1,1.7,1.7c0.5,0.6,1,0.9,2,0.5
		c0.1-0.9,0.2-1.9,0.3-3c0.1-0.5,0.2-0.9,0.4-1.3c0.1-0.2,0.4-0.4,0.6-0.3c0.3,0.1,0.8,0.3,0.8,0.5c0.2,1.1,0.2,2.3,0.4,3.7
		c2.9,0.5,5.7,1,8.9,1.6c1.4-1,3.2-0.7,5.1-0.2c2.7,0.7,4.6,2.3,6.2,4.4c0.8,1.1,1.4,2.6,2.4,3.5c1.5,1.2,2.8,2.4,3.1,4.4
		c1.7,1.5,2,3.7,2.8,5.6c0.5,0.1,1,0.1,1.6,0.2c0.6,1.6,0.9,3.3,1,5.1c0,1.1,0.1,2.1,0.1,3.2c0,1.7,0.1,1.7-1.4,3.3
		c0.2,0.4,0.4,0.8,0.5,1.2c0.1,0.3,0.2,0.6,0.4,0.9c0.2-0.4,0.5-0.7,0.8-1.2c1.8,2.6,2.2,5.4,1.6,8.2c-0.3,1.4-0.3,2.7,0.2,3.8
		c0.9,1.8,0.7,3.6,0.4,5.4c-0.6-1.7-1.5-3.4-1.4-5.4c0.1-1.1-0.4-2.1-1.5-2.6c-1.1,2.3-2.3,4.6-3.4,7c-0.6,1.3-1.5,2.1-3.1,2.5
		c-0.4-0.3-1-0.7-1.6-1.2c-0.6-0.1-1.3,1.1-2.2,0.1c1.4-1.5,2.6-3.2,4.9-3.7c2-0.4,3.2-1.8,3.8-3.8c0.3-0.9,0.7-1.8,1-2.6
		c0.4-1,0-1.9-0.5-2.7c-0.3-0.5-1-0.9-1.6-1.4c-0.3,0.7-0.5,1.2-0.7,1.9c-0.4,0.1-0.8,0.2-1.3,0.2c-0.5,0-0.9,0-1.5-0.1
		c-0.1,2.1-2,1-3.3,1.6c1.1,1.3,3.1,1.1,3.8,2.9c-1,0.1-1.9,0.2-2.8,0.3c-0.1,0.4-0.2,0.7-0.4,1.2c-1,0.2-2.1,0.4-3.2,0.5
		c0.1,0.5,0.2,0.9,0.3,1.5c-0.4,0.1-0.7,0.2-1.1,0.2c-0.2,0-0.5-0.1-0.6-0.3c-2.2-2.2-5-2.8-8.1-3c-1.3-0.1-2.6-0.4-3.8-0.7
		c-3.8-1-7-2.7-9-6.3c-0.2-0.4-0.8-0.6-1.5-1.1c-0.4,1.1-0.6,2-1,2.8c-0.4,0.7-0.9,1.3-1.4,2.1c-0.2,0.3-0.2,0.7-0.3,1
		c-0.3,2.2-0.7,4.4-0.9,6.7c-0.1,1.1,0.1,2.3,0.3,3.5c0.2,0.9,0.7,1.8,0.1,2.9c-1.8-0.4-1.5-2.5-2.9-3.2c-0.6,0.3-0.8,0.8-0.6,1.4
		c0.3,0.9,0.7,1.7,1,2.6c0.1,0.3,0.4,0.8,0.3,1c-0.9,1.3,0.4,2.1,0.8,3.4c-0.8,0-1.5,0.2-2.1,0c-0.7-0.3-1.5-0.8-1.4-1.8
		c0.5-0.5,1.1-1.1,1.7-1.8c-0.9-0.9-1.7-1.7-2.5-2.5c-0.2-0.8-0.6-1.2-1.5-1.2c-0.3,0-0.6-0.2-1.1-0.3c0.2-0.9-0.8-1.8,0.4-2.5
		c1-0.3,1.5,1.1,2.8,0.7c-0.9-0.6-1.5-1.2-2.2-1.6c-0.9-0.5-1.9-0.1-2.4,0.8c-0.4,0.9-0.7,2-1,3c0.9,1.2,1.7,2.3,2.6,3.5
		c0.8-1,1.1-2.4,2.5-2.5c-0.2,0.8-0.5,1.5-0.8,2.3C306.5,59.5,307.5,59.9,307.4,61z M624.8,254.4c-0.3-0.3-0.5-0.5-0.8-0.8
		c-0.7-0.8-1.3-1.6-2.2-2.7c3.1,0.1,4.5,2.6,6.7,3.5c2.4-1.1,4.4-2.8,7-3.5c-0.2-1.2-0.4-2.4-0.5-3.6c-0.1-1.2,0-2.3,0-3.3
		c-1.2-1.5-2.9-2.4-3.5-4.2c0.3-0.1,0.6-0.3,0.7-0.3c1.6,1,3.1,2,4.7,3.1c0.3-0.2,0.7-0.4,1.1-0.7c-1.8-3.1-5.7-6.8-8.6-8.2
		c-1.4-0.7-2.8-1.3-4-2.2c-2-1.3-3.8-2.8-5.7-4.1c-3.5-2.6-6.8-5.5-10.7-7.5c-0.7-0.4-1.3-1-1.9-1.6c-5.9-5.6-11.8-11.2-17.7-16.8
		c-5.4-5.1-11.4-9.6-18.4-12.3c-1.5-0.6-3-1.3-4.8-1.1c-0.8,0.1-1.6-0.3-2.4-0.6c-5.1-2.4-9.3-5.9-13.2-10c-2.1-2.2-3.9-4.7-5.9-7.1
		c-0.8-1-1.7-1.5-3-1.6c-2.2-0.2-4.4-0.5-6.7-0.7c-1.3,0.8-2.7,1.7-4.3,2.7c-0.8-1.3-2.6-0.1-3.3-1.7c-0.6,0.9-1.1,1.7-1.6,2.5
		c-1.9,0-1.9,0-3.4,0.7c-0.6,0.3-1.3,0.5-2,0.7c-2.1,0.4-2.4,0.2-3.3-2c-0.1-0.2-0.3-0.3-0.7-0.6c-2.7,0.1-5.5,0.2-8.3,0.3
		c-2.8,0.1-5.6,0.1-8.1,0.1c-0.7,1.2-1.1,2.2-1.7,3c-1,1.4-2.1,2.9-3.2,4.2c-3.1,3.4-4.1,7.9-5.9,12c-0.3,0.7-0.3,1.6-0.4,2.4
		c-0.2,5-0.3,9.9,1.8,14.8c0.9,0.6,2.1,1,3.5,0.7c1.8-0.4,3.7-0.6,5.6-1c5.2-1,10.4-2.1,15.6-3.2c1.8-0.4,3.7-0.8,5.4-1.6
		c3.1-1.4,6.2-1.4,9.4-0.9c2,0.3,4,0.7,5.1,2.8c0.2,0.5,0.9,0.7,1.4,1.1c7.3,5.4,14.1,11.5,20.3,18.2c0.7,0.8,1.6,1.6,1.9,2.5
		c0.5,1.5,1.6,2.3,2.8,3c2.3,1.4,4.5,3,6.9,4.3c1.5,0.9,3.1,1.6,4.8,2.3c0.9,0.4,1.9,0.8,2.7,0.6c2.6-0.6,5.2,0.5,7.7,0.4
		c0.6,0,1.2,0.1,1.7,0.3c5.3,2,10.6,4,15.7,6.5c2.5,1.3,5.1,2.4,7.8,3.4c4.6,1.8,9.2,3.5,13.6,6c0.6,0.3,1.3,0.5,2,0.7
		C624.4,253.8,624.6,254,624.8,254.4c0.3,0.2,0.5,0.4,0.8,0.6c0.2,0.2,0.4,0.5,0.7,0.7c0,0.1,0,0.2,0.1,0.3c0,0,0.1,0,0.2,0
		c-0.1-0.1-0.3-0.2-0.4-0.2c0-0.5-0.2-0.7-0.7-0.7C625.3,254.9,625,254.6,624.8,254.4z M387.3,206.9
		C387.4,207,387,206.5,387.3,206.9l0.2,0.1L387.3,206.9z M480.2,213.2c-0.2-0.3-0.5-0.6-0.7-0.8c-4-3.5-7.3-7.5-9.5-12.4
		c-1.3,0.8-1.3,2.3-2,3.3l0.1-0.1c-1.8,1.3-3,3.2-5.1,4.1c-1,0.4-1.7,2.1-2.3,3.7c0.4,0,0.8,0.1,1,0c1.5-1.1,2.8-0.9,4.2,0.2
		c1.4,1.2,3,1.2,4.6,0.5c2.4-1.1,4.8-0.8,7.1,0.2c0.6,0.3,1.3,0.3,2,0.4C479.9,212.6,480.1,212.9,480.2,213.2
		c0.3,0.2,0.5,0.4,0.7,0.7c2.5,0.7,4.9,1.5,7.4,2.1c2.4,0.6,4.6,2,7.6,1.9c-2.6-2.8-5.8-4.4-7.6-6.8c-0.3-1.9-0.6-3.4-0.8-4.9
		c-0.6-4.4-1-8.9-0.7-13.4c0.1-2.1,0.5-4.2,1.7-6.1c0.5-0.8,0.9-1.7,1.2-2.6c0.7-2,1.8-3.8,3.2-5.5c1.3-1.7,2.6-3.3,3.9-5
		c0.4-0.5,0.8-1.1,1.3-2c-1,0-1.7-0.1-2.4,0c-3,0.7-6,1.3-8.9,2.1c-0.6,0.2-1.2,0.7-1.8,1c-0.4,0.2-0.9,0.3-1.4,0.3
		c-1.8,0.2-3.5,0.3-5.3,0.4c-0.9,0.1-1.8,0-2.9,0c-0.3,4.1,0.2,8-0.9,11.8c-1.1,3.9-2,7.8-4.1,11.5c1.4,2.2,2.7,4.7,4.3,6.8
		c1.7,2.2,3.9,4.1,5.8,6.2c0.5,0.6,1,1.1,1.8,1.9c-0.8,0.2-1.2,0.3-1.6,0.4C480.6,213.8,480.4,213.5,480.2,213.2z M345.6,26
		c0,0.3-0.2,0.7,0.4,0.4C345.8,26.3,345.7,26.2,345.6,26c-0.1,0-0.2,0-0.2,0C345.4,26,345.5,26,345.6,26z M313,38.1
		c0,0.1,0,0.2,0.1,0.3c0,0,0.1,0.1,0.2,0.1C313.1,38.4,313,38.3,313,38.1l-0.2-0.1L313,38.1z M335,28.9l-0.1,0L335,28.9
		c0.1,0.2-0.2,0.6,0.4,0.4C335.2,29.1,335.1,29,335,28.9z M315,24.1c0-0.1,0.1-0.2,0-0.3c0-0.1-0.1-0.1-0.2-0.2
		C314.9,23.7,315,23.9,315,24.1c0.3,0.1,0.5,0.3,0.8,0.5c0.1,0,0.3-0.2,0.4-0.3c-0.1-0.1-0.2-0.1-0.3-0.1
		C315.6,24,315.3,24.1,315,24.1z M320.8,41.7l-0.1-0.1L320.8,41.7c0.5,0.2,1,0.4,1.5,0.6c0.9,1.2,2,1.6,3.5,1.4
		c0.2,0.5,0.5,0.7,1.3,0.2c-0.6-0.1-1-0.1-1.3-0.1c-0.9-1.1-2.1-1.5-3.5-1.4C321.9,41.7,321.3,41.9,320.8,41.7z M308.1,21l0,0.2
		L308.1,21c-0.2,0-0.4-0.2-0.5-0.3c0,0-0.2,0.1-0.2,0.1C307.5,20.9,307.8,20.9,308.1,21z M328.5,23.2l0.2,0.2L328.5,23.2
		c-0.1-0.5-0.4-0.7-0.9-0.2C327.9,23.1,328.2,23.1,328.5,23.2z M310.1,16.1c0.2,0.1,0.4,0.3,0.6,0.3c0.3,0,0.5-0.2,0.8-0.3
		c-0.2-0.2-0.4-0.5-0.6-0.5C310.5,15.7,310.3,16,310.1,16.1c0,0.1-0.2,0.1-0.2,0.1c0,0,0,0.2,0,0.2C309.9,16.4,310,16.3,310.1,16.1z
		 M390.2,201.1c1.7-0.1,1.8-0.3,1-2.5C390.7,199.5,389.9,200.1,390.2,201.1c-0.2,0.1-0.6,0.1-0.2,0.5
		C390.1,201.4,390.1,201.3,390.2,201.1z M631.2,255.7c0.6-0.6,1.2-1.1,1.7-1.7c0.1-0.1-0.1-0.4-0.1-0.6
		C631.5,253.8,631.1,254.6,631.2,255.7c0,0.1-0.1,0.1-0.2,0.1c-0.1,0-0.1,0.1-0.1,0.2C630.9,255.9,631.1,255.8,631.2,255.7z
		 M303,16.8c1.6-0.5,2.2-1.8,2.8-3c-0.6-0.6-1.1-0.4-1.4,0C303.7,14.7,303,15.6,303,16.8c0,0.2,0,0.2-0.1,0.3
		C302.9,17,302.9,16.9,303,16.8z M347,33.1c0,0.2-0.1,0.7,0.4,0.3C347.2,33.4,347.1,33.3,347,33.1c0.1-2.1-0.7-3.7-2.7-4.7
		c-0.4-0.2-1.1-0.4-1.4,0.4c1,1.3,1.9,2.6,3,3.8C346.1,32.9,346.6,33,347,33.1z M469.5,180.6c0.2-2.1,0.4-4.2,0-6.4
		c-0.7-0.2-1.3-0.5-1.9-0.7c-0.2,0-0.4,0.2-0.8,0.4c0,2.2,0,4.5,0,6.9c0.1,2.1-0.1,4.2-0.7,6.3c-0.8-0.3-0.9-1-0.9-1.7
		c0-3.2,0-6.4,0-9.6c0-1.2,0-2.3,0-3.3c-0.9-0.6-1.6-1.1-2.2-1.6c-0.6-0.5-1.3-1.1-1.8-1.7c-0.6-0.7-1-1.6-1.6-2.3
		c-0.4-0.6-0.4-1.6-1.4-2c-1.1,2.3-0.7,5-2.6,7.4c-0.4-5.1,0.5-9.4,2.2-13.6c1.2-1,1.2-2.5,1.6-3.8c0.4-1.1,0.5-2.2,0.8-3.5
		c0.6,0,1.1-0.1,1.9-0.1c-0.6,0.7-1.2,1.1-1.3,1.5c-0.4,1.8-0.7,3.7-1.1,5.5c-0.4,1.9-0.2,3.7,0.6,5.5c1.1,2.6,2.9,4.6,5.3,6
		c1.3,0.7,2.8,1.3,4.2,1.8c7.6,2.5,15.1,1.6,22.7-1.2c-0.7-0.4-1.2-0.7-1.7-1c-0.5-0.2-1.1-0.3-0.9-1.1c8.7,1.9,17.4,0.9,26,0.4
		c1.3-1.5,3-2.4,3.6-4.1c-0.2-2.3-0.4-4.3-0.6-6.3c0-0.3-0.2-0.6-0.3-0.9c-0.9-0.2-1.6-0.4-2.5-0.6c-0.3-0.5-0.6-1-0.9-1.5
		c-1.6-2.6-3.3-5.2-5.7-7.1c-0.3-0.2-0.5-0.5-0.7-0.8c-2.4-2.7-5.1-4.8-8.7-5.8c-2.5-0.7-5-1.5-6.5-3.9c-0.1-0.2-0.4-0.3-0.6-0.4
		c-2.6-1.7-5.1-3.4-7.7-5.1c-1.4-0.9-2.9-1.4-4.8-0.9c1,0.9,1.9,1.8,2.8,2.6c-0.6,0.3-1.1,0.3-1.5,0.1c-1.2-0.7-2.5-1.4-3.6-2.2
		c-0.8-0.5-1.6-1-2.5-1.2c-3.1-0.7-5.8-2.1-8.2-4.1c-0.5-0.4-1.1-0.9-1.8-1.1c-2.5-1-5-2.1-7.2-3.7c-0.3-0.2-0.6-0.4-1-0.4
		c-5.4-1.3-10.7-2.9-16.4-2.4c-1.8,0.2-3.5,0.5-5,1.6c-1.9,1.4-3.7,3-5.5,4.4c-1.9,1.5-3.1,3.4-4.1,5.6c-1.8,3.9-3.5,8-7.1,10.8
		c-0.3,0.2-0.5,0.5-0.6,0.8c-2.8,4.8-5.6,9.6-8.4,14.3c-1,1.6-1.2,3.3-0.6,5.1c0.3,0.9,0.5,1.8,0.8,2.7c1.6,4.6,3.2,9.1,4.8,13.7
		c3.1,8.5,8.5,15.5,15,21.6c3.1,3,6.9,4.9,11.3,5.3c0.9,0.1,1.9,0.3,2.8,0.4c4.3,0.5,4.3,0.5,7.8-2c0.3,0.6,0.9,0.7,1.5,0.6
		c3.1-0.7,6.1-1.5,8.9-3.3c1.3-0.8,2.6-1.6,3.9-2.3c1.7-0.9,2.7-2.2,3.4-3.8c1.6-3.7,3-7.4,3.1-11.5c0.1-2.3,0.8-4.6,0.3-7
		c-0.1-0.3-0.3-0.6-0.4-1c-0.9-0.2-1.8-0.4-2.6-0.6c-0.2,0.3-0.4,0.5-0.4,0.7c-0.1,0.9-0.1,1.9-0.1,2.8
		C470.1,178.9,470.2,179.9,469.5,180.6z M447.6,116.8c0.2,0.1,0.4,0.3,0.2,0.2C448,117,447.8,116.9,447.6,116.8
		c-0.8-1.1-2.2-1.3-3.3-1.9c-2.7-1.6-5.4-3.3-8.8-3c-0.2,0-0.5-0.1-0.7-0.1c-3.1-1-6.2-1.3-9.4-1.3c-5.3-0.1-10.2-1.6-14.6-4.8
		c-2.6-1.9-5-3.9-7.6-5.8c-0.5-0.4-0.9-1.1-1.9-1.1c0.5,3,0.8,6,1.6,9c0.6,2.2,0.9,4.4,0.7,6.7c-0.2,1.7,0.2,3.3,0.9,4.8
		c1.4,3.1,2.6,6.3,3.5,9.6c0.3,1.4,1.1,2.3,2.3,3c3,1.7,5.8,3.7,8.3,6c0.3,0.2,0.6,0.3,1,0.6c0.3-0.3,0.7-0.6,1-0.9
		c2.7-2.6,4.4-5.9,5.8-9.3c1.6-4,4.4-6.9,7.9-9.3c2.1-1.5,4.4-2.3,7-2.1C443.4,116.8,445.5,116.8,447.6,116.8z M546.2,144.4
		c-2.5,0.2-4.9,0.4-6.8,2.4c0.2,1,0.2,2,0.6,2.8c0.4,0.9,1.1,2.1,1.9,2.4c1.9,0.7,2,2.1,1.9,3.7c-0.1,1.4-0.4,2.8-0.5,4.2
		c-0.1,1.5-0.1,3-0.2,4.9c-0.3,0.4-0.9,1.2-1.4,2c3.3,0.7,3.3,0.7,5.8,3.5c1.3,1.5,2.4,3.2,4,4.3c1.9-0.4,3.6-0.8,5.3-1.2
		c2.3-0.5,4.5-1.4,6.4-2.9c1-0.8,2.1-1.5,3.1-2.4c1.1-1,2.3-1.6,3.7-2c3.3-1,6.5-2,9.8-3.1c5.6-1.9,10.3-5.1,14.4-9.3
		c2.8-2.9,4.1-6.3,3.7-10.3c-0.2-2.1-0.5-4.2-1-6.2c-0.7-2.8-1.7-5.6-2.6-8.5c-2.7-1.7-5.7-3.1-8.5-4.4c-3.1,1-5.7,2.5-7.8,4.5
		c-2.6,2.4-5.4,4.1-8.6,5.3c-0.9,0.3-1.8,0.6-2.6,1.1c-4,2.6-8.3,4.4-12.7,6C551.2,142.2,548.7,143.4,546.2,144.4L546.2,144.4z
		 M497.7,217.4c2.7,0.3,5.2,0.8,7.7-0.1c2.5-0.9,4.7-2.1,6.5-4.1c1.7-1.9,3-4.1,3.6-6.9c-0.9,0-1.6-0.1-2.3,0
		c-3.7,0.7-7.4,1.6-11.1,2.3c-3.6,0.7-7.1,1.6-10.8,1c-0.4-0.1-0.8,0-1.1,0c-0.6,1.1-0.2,1.8,0.5,2.4
		C493.2,213.8,495.5,215.6,497.7,217.4z M487.5,130.9c0.3,0.6,0.4,0.8,0.6,1c3.5,2.4,7,4.8,10.5,7c1.1,0.7,2.4,1.4,3.9,1.2
		c0.6-1.9,1.2-3.8,1.8-5.7c-1.6-1.7-3.6-2.4-5.6-3.4c-1.2,1.1-2.6,0.7-4,0.4C492.5,130.9,490.1,130.8,487.5,130.9z M303.8,142.7
		c1.5,1.2,2.1,3.1,3.9,4c2.8-1.7,3.6-2.7,4.4-5.2c-2.8-0.8-5.5-1.6-8.6-2.4C303.6,140.4,303.7,141.5,303.8,142.7z M344.2,22.5
		c0-0.2,0-0.5,0-0.7c-1,0-2.1,0.3-3-0.1c-2-0.8-3.9,0.1-6.4,0c2,1.6,3.4,2.6,5.4,1.3c0.5-0.4,1.3-0.4,2-0.5
		C342.9,22.4,343.5,22.5,344.2,22.5z M315.2,11c2,0.5,3.8,1.3,6-0.2C319,10.5,317.2,9.4,315.2,11z M321.7,28.4
		c-1.5-1.8-1.5-1.8-3.5-1.7C319.7,28.9,319.7,28.9,321.7,28.4z M337.5,28c0.9,0.8,1.9,1.7,2.8,2.5c0.3,0.3,0.8,0.6,1.3,0
		C340.4,29.4,339.8,27.7,337.5,28z M325.3,21.8c0.3-0.2,0.4-0.2,0.5-0.3c0-0.1,0-0.2,0-0.3c-0.8-0.6-1.6-1.2-2.5-1.7
		c-0.4-0.2-0.9-0.2-1,0.7C323.2,20.8,324.3,21.3,325.3,21.8z M347.5,36.4c-0.3-1-1.1-1.7-1.9-2.3c-0.1-0.1-0.4,0.1-0.7,0.1
		c0.1,0.6,0.1,1.1,0.2,1.8C346,36,346.5,37,347.5,36.4z M239.2,239.3c0-0.1,0-0.2-0.1-0.4c-1-0.2-2-0.4-3.1-0.5
		c-0.2,0-0.4,0.2-1.4,0.7C236.7,239.2,238,239.2,239.2,239.3z M306.1,32c-0.8,1.8,0.5,2.3,1.6,3C308.5,33.2,307.2,32.7,306.1,32z
		 M317,17.1c1.6,1,1.6,1,2.8,0.3C318.9,16.8,318,16.5,317,17.1z M346.5,39.2c-0.6-0.7-1.3-1.2-2.3-1.4
		C344.4,39.4,344.4,39.4,346.5,39.2z M337.1,9.8c-0.3,1.5,0.6,1.5,2.2,2.1C338.1,10.9,337.6,10.3,337.1,9.8z M326.3,33.8
		c-0.1-1.7-0.2-1.7-1.9-1.1C325.1,33.1,325.7,33.4,326.3,33.8z M334.5,35c-0.6-0.5-1-1.3-1.9-0.7C332.9,35.3,333.6,35.3,334.5,35z
		 M338.5,46.1c0,0.1,0,0.2,0,0.2c0.4,0.1,0.8,0.2,1.2,0.2c0.3,0,0.6-0.1,0.9-0.1c0-0.1,0-0.2,0-0.3
		C339.8,46.1,339.1,46.1,338.5,46.1z M349.4,33.6c0.6-2.2,0.6-2.2-0.7-2.2C348.9,32.1,349.1,32.7,349.4,33.6z M627.4,258.1
		c0.4,0.6,0.9,0.4,1.4,0C628.4,257.6,627.9,257.7,627.4,258.1z M337.2,26.6c0-0.1,0-0.1,0-0.2c-0.3,0-0.6-0.2-0.9-0.1
		c-0.4,0-0.4,0.3,0,0.4C336.6,26.7,336.9,26.6,337.2,26.6z M388.9,204.4c0.3-0.2,0.5-0.2,0.5-0.4c0-0.2,0-0.5-0.1-0.6
		c-0.1-0.1-0.5,0-0.5,0.1C388.7,203.8,388.8,204.1,388.9,204.4z M317.2,8.7l-0.3,0.1l0.3,0.1L317.2,8.7z M336,13
		c0-0.1,0-0.2-0.1-0.2c-0.1,0-0.2,0-0.3-0.1c0,0.1,0.1,0.2,0.1,0.3C335.8,13.1,335.9,13.1,336,13z M331.1,18.7
		c-0.2-0.1-0.4-0.2-0.6-0.2c-0.1,0-0.2,0.1-0.3,0.2c0.2,0.1,0.4,0.2,0.6,0.2C330.9,18.9,331,18.7,331.1,18.7z M341.8,35.6
		c-0.1-0.1-0.2-0.3-0.2-0.3c-0.2,0.1-0.4,0.2-0.6,0.3c0.1,0.1,0.2,0.2,0.2,0.2C341.5,35.8,341.6,35.7,341.8,35.6z M302.9,30.3
		c-0.1-0.1-0.1-0.2-0.2-0.3c-0.1,0.2-0.2,0.4-0.3,0.6c0,0.1,0.1,0.2,0.2,0.3C302.7,30.6,302.8,30.4,302.9,30.3z M351.6,39.3
		c-0.1,0-0.2,0-0.2,0.1c0,0.1,0,0.2,0,0.3c0.1,0,0.2,0,0.3-0.1C351.7,39.5,351.7,39.4,351.6,39.3z M305,44.9l-0.2-0.1l0,0.2
		L305,44.9z M303.6,22.9l-0.2-0.1l0,0.2L303.6,22.9z"/>
	<path d="M317.4,58.1c1.8-0.2,3.5-0.4,5.2-0.1c3.8,0.7,7.4,0,10.8-1.9c0.6,0.2,0.9,0.7,0.5,1.1c-1.9,1.7-3.4,3.9-6,5
		c-0.8-0.3-1.7-0.7-2.5-1.1c-2-0.9-3.9-2-6.2-2C318.6,59.1,317.8,59.1,317.4,58.1z"/>
	<path d="M661.6,288.3c-3.2,1.4-5.2,4.1-8.4,5c-0.1,0-0.2-0.1-0.3-0.2c2.4-2.7,5.9-5.2,9.1-6.5c1.2,0.2,2.4,0.3,3.5,0.6
		c2.2,0.5,4.3,1.2,5.8,3c0.3,0.4,0.5,1,0.6,1.6c0.1,0.4-0.7,0.9-1,0.7c-0.2-0.1-0.5-0.2-0.6-0.3C668.1,289.4,665,288.5,661.6,288.3z
		"/>
	<path d="M667.4,587.9c1.4,0.2,2.5,0.3,3.5,0.6c2.2,0.5,4.3,1.2,5.8,3c0.3,0.4,0.5,1,0.6,1.6c0.1,0.4-0.6,0.9-1,0.7
		c-0.2-0.1-0.5-0.2-0.6-0.3c-2.2-2.8-5.4-3.6-8.9-3.8c-0.9,0.6-1.9,1.2-2.8,1.8c-0.9,0.6-1.7,1.2-2.6,1.8c-0.9,0.6-1.8,1.4-3.2,1.5
		C660.3,592.1,664.1,589.3,667.4,587.9z"/>
	<path d="M667.5,571c1.6,0,2.6-0.2,3.1,1c0.3,0.8-0.5,1.5-2.1,1.7c-1.7,0.3-3.5,0.5-5.2,0.7c-0.5,0.1-1.1-0.2-1.7-0.3
		c-0.2-0.1-0.4-0.3-0.4-0.5c0-0.3,0.1-0.7,0.3-0.9c0.5-0.3,1-0.6,1.6-0.7C664.7,571.5,666.5,571.2,667.5,571z"/>
	<path d="M349.4,68.5c0.1,0.7,0.1,0.9,0.1,0.9c-1.8,1.5-3.4,3.2-5.4,4.4c-1.3,0.8-3.1,0.9-4.7,1.1c-1,0.1-1.8,0.3-2.5,1.1
		c-0.6,0.7-1.4,0.8-2.2,0.1c0.1-1.3,1.2-1.7,2.1-2.1c0.3-0.1,0.7-0.1,1-0.2c3.2-0.5,6.2-1.1,8.7-3.4
		C347.3,69.7,348.3,69.2,349.4,68.5z"/>
	<path d="M655.8,272.1c0.1-0.3,0.2-0.5,0.2-0.5c2.6-1.6,5.5-1.9,8.4-1.6c0.3,0,0.7,0.6,0.7,1c0,0.4-0.4,0.8-0.7,1.1
		c-0.4,0.3-0.9,0.4-1.3,0.4c-1.7,0.3-3.5,0.5-5.3,0.7C657.1,273.3,656.3,273.2,655.8,272.1z"/>
	<path d="M344.5,64.6c1.7,1.5,2,2.7,0.9,4.1c-0.2,0.3-0.4,0.6-0.7,0.8c-0.6,0.4-1.2,0.7-1.7,1.1c-1.7-0.2-3.3-0.3-5.1-0.5
		c-0.4-0.7-0.9-1.4-1.4-2.1c0.6-0.8,1.1-0.7,1.5-0.2c0.9,1.2,2.4,0.9,3.6,1.2c0.7,0.2,1.5-0.2,2.4-0.4
		C344.2,67.1,344.3,65.9,344.5,64.6z"/>
	<path d="M349,74.1c-0.9,2.1-2.7,3-4.5,3.8c-0.7,0.3-1.6,0.4-2.4,0.4c-0.2,0-0.5-0.4-0.6-0.7c-0.1-0.1,0.1-0.4,0.2-0.6
		c0-0.1,0.2-0.2,0.3-0.2c2.2-0.6,4-1.8,6-2.9C348.1,73.8,348.5,74,349,74.1z"/>
	<path d="M638,278.4c-0.6-0.2-0.9-1.2-0.5-1.7c0.1-0.1,0.4-0.2,0.6-0.1c0.5,0.3,0.8,0.8,0.5,1.4C638.5,278.3,638.2,278.3,638,278.4z
		"/>
	<path d="M346.5,64.8c-0.1-0.8-0.3-1.4-0.3-2c0-0.1,0.6-0.3,0.8-0.2C347.8,63.1,347.7,63.8,346.5,64.8z"/>
	<path d="M642.9,577.8c0.1,0,0.2,0,0.3,0.1c0.6,0.2,0.8,0.8,0.6,1.3c0,0.2-0.6,0.4-0.8,0.3c-0.5-0.3-0.6-0.9-0.4-1.4
		C642.8,578,642.8,577.9,642.9,577.8z"/>
	<path d="M643.2,582.6c-0.1,0.2-0.3,0.4-0.4,0.6c-0.1-0.2-0.3-0.4-0.3-0.5c0-0.2,0.2-0.4,0.3-0.5C642.9,582.3,643,582.4,643.2,582.6
		z"/>
	<path d="M637.1,281.8c0-0.2-0.2-0.5-0.1-0.7c0-0.1,0.3-0.1,0.5-0.2c0.1,0.2,0.3,0.4,0.2,0.6C637.7,281.7,637.3,281.7,637.1,281.8z"
		/>
	<path d="M295.1,386.2c0.4,0,0.7,0,1.1,0c0.1,0.1,0.4,0.2,0.5,0.4c0.9,2.3,2.3,4.4,3.9,6.3c5,6.4,10.4,12.5,17.2,17.2
		c2.3,1.6,4.8,2.9,7.2,4.4c2.4,1.5,5.1,2.5,7.1,4.6c0.5,0.6,1.4,0.8,2.2,1c1.6,0.4,3.2,0.7,4.7,1c-0.1,0.9-0.7,1-1.3,0.9
		c-2.1-0.2-4.2-0.6-6.1-1.6c-4.9-2.3-9.8-4.7-14.3-7.7c-6.8-4.5-12.2-10.4-17-16.9c-1.3-1.8-2.5-3.7-3.7-5.6
		c-0.8-1.3-1.4-2.7-1.3-4.3L295.1,386.2z"/>
	<path d="M410.9,499c0.7-0.1,1-0.3,1.1-0.2c5.2,3.8,9,8.9,13.7,13c0,1.2-0.8,1.4-1.5,1.3c-0.7-0.1-1.4-0.4-1.9-0.8
		c-1-0.8-2-1.7-2.8-2.7c-2.4-2.8-4.7-5.6-7.1-8.4C411.9,500.7,411.5,500,410.9,499z"/>
	<path d="M405.7,500.3c0.4,0.4,0.9,0.7,1.3,1.1c1.5,2.1,3,4.3,4.5,6.3c1.1,1.5,2.3,3,3.6,4.4c2.4,2.7,3.4,3.3,7.2,4.9
		c0.2,0.6-0.2,0.8-0.7,0.9c-1.1,0.2-2.2-0.2-3-0.8c-1.4-1-2.9-2.1-4-3.4c-3.5-3.7-6.1-8.1-8.6-12.5
		C405.8,501,405.8,500.6,405.7,500.3L405.7,500.3z"/>
	<path d="M380.9,467.3c-0.6-1-1.3-1.9-1.8-3c-1.8-4-3.6-8-5.2-12c-0.8-1.8-0.7-1.9-0.4-4.2c0.3,0.2,0.7,0.4,0.8,0.6
		c0.7,3.6,2.3,6.9,3.8,10.3c1.2,2.7,2.3,5.4,3.5,8C381.3,467.1,381.1,467.2,380.9,467.3z"/>
	<path d="M398.6,445.2c3.6-0.2,7.5,1.1,11.6,3.6c2.2,1.4,2.8,2,3.6,3.8c-1.6-0.4-2.4-1.6-3.6-2.2c-1.2-0.7-2.4-1.4-3.7-2
		c-1.2-0.5-2.4-0.9-3.6-1.4C401.7,446.4,400.1,446.7,398.6,445.2z"/>
	<path d="M412.3,484.5c-0.2-0.1-0.5-0.3-0.7-0.4c-0.3-0.2-0.6-0.5-0.9-0.8c0-0.5,0-1-0.1-1.5c-0.3,0.5-0.3,1,0.2,1.4
		c0,1.6,0,3.2,0,5.5c-0.6-0.8-0.9-1.1-1-1.5c-0.3-2.1-0.6-4.1-0.9-6.2c-0.1-0.4-0.1-1.1,0.2-1.3c1.1-0.8,0.1-2,0.8-3.1
		C410.9,479.3,411.6,481.9,412.3,484.5L412.3,484.5z"/>
	<path d="M369.8,433.4c-0.7-1.8-1.4-3.5-2-5.1c-0.6-1.6-2-2.9-2.4-5.1c0.8,0.3,1.3,0.4,1.5,0.7c1.9,2.1,3.2,4.6,3.7,7.5
		C370.8,432.1,370.8,432.8,369.8,433.4z"/>
	<path d="M388.6,551.1c0.3,0.2,0.7,0.3,0.8,0.5c0.5,1.2,1.2,2.4,1.3,3.6c0.3,2.2,0.2,4.4,0.2,6.6c0,0.6-0.3,1.1-1,1.4
		c-0.5-1.6-0.4-3.1-0.3-4.6c0.2-2.4-0.1-4.7-1.2-6.8C388.4,551.6,388.6,551.4,388.6,551.1z"/>
	<path d="M352.1,402.3c-0.2-0.3-0.7-0.7-0.7-1c-0.2-2.3-0.5-4.6,0.7-6.8c0.5-1.1,0.6-2.4,0.8-3.6c0.7-0.3,1,0.1,1,0.5
		c0.1,1.3,0.4,2.5-0.9,3.5c-0.4,0.3-0.4,1.3-0.4,2c-0.1,1.7,0,3.5,0,5.2C352.4,402.1,352.2,402.2,352.1,402.3z"/>
	<path d="M362.8,468.4c-2.7,1.8-5.6,2.3-8.7,2.2c-1.5-0.1-1.5,0-2.8-1c0.3-0.2,0.5-0.5,0.8-0.5c1.3-0.1,2.6-0.2,3.8-0.2
		c1.8,0,3.5,0.1,5.2-0.5C361.6,468.3,362.2,468.4,362.8,468.4z"/>
	<path d="M412.1,430.7c-0.6,0-1,0-1.4-0.1c-1-0.5-2-1.2-3.1-1.7c-1.3-0.6-2.5-1.1-4-0.9c-0.9,0.2-1.8-0.2-2.7-0.4
		c-0.2-0.1-0.6-0.7-0.5-0.8c0.2-0.3,0.8-0.9,1-0.8c1.8,0.8,3.9,0.5,5.7,1.3c1.6,0.7,3.1,1.7,4.6,2.5
		C411.8,430,411.8,430.3,412.1,430.7z"/>
	<path d="M347.8,460.6c-0.7,0.2-1.1,0.5-1.3,0.4c-2.5-0.6-6.2-2.3-8-3.8c0.6-0.1,1-0.2,1.4-0.2C342.1,457.4,345.6,459,347.8,460.6z"
		/>
	<path d="M348.9,446.1c0.1,1-0.7,1.1-1.3,1.3c-2,0.6-3.9,0.4-5.6-0.5c0.1-0.2,0.1-0.5,0.2-0.6C344,445.7,346.5,445.6,348.9,446.1z"
		/>
	<path d="M388.4,424.8c0.5-1,1.2-2.1,2.2-2.5c2-0.6,3-2.1,4.2-3.6c0.3-0.4,0.8-0.7,1.6-1.3c-0.1,1,0,1.5-0.3,1.8
		c-0.7,0.9-1.4,1.9-2.3,2.6c-1.6,1.2-3.3,2.1-5,3.2C388.9,425,388.7,424.9,388.4,424.8z"/>
	<path d="M448.9,534.4c-1.8,3-4.6,4.8-8.5,6.3c1.2-1.5,2.2-1.9,3.1-2.4c0.9-0.6,1.8-1.1,2.6-1.7C447.1,535.9,448,535.1,448.9,534.4z
		"/>
	<path d="M379.7,542.7c3.2,0.1,4.7,2.1,6,4.5c-0.4,0.6-0.8,0.4-1.2,0C382.9,545.7,381.3,544.2,379.7,542.7z"/>
	<path d="M426.4,525c2.5,0.8,4.9,1.6,7.4,2.4c0.1,0,0.2,0.4,0.3,0.6l0.1-0.1c-2.5-0.8-5-1.6-7.4-2.4c-0.1,0-0.1-0.4-0.2-0.6
		L426.4,525z"/>
	<path d="M369.5,569.3c-2.1,2.3-2.1,2.3-4,1.4c0.4-0.5,0.6-1.1,1-1.3C367.5,568.8,368.5,568.6,369.5,569.3z"/>
	<path d="M444.2,520.4c2.7,0,5.4,0,8.1,0c0,0,0,0.1,0,0.1C449.6,520.5,446.9,520.5,444.2,520.4C444.2,520.5,444.2,520.4,444.2,520.4
		z"/>
	<path d="M355.7,460.9c-3,0.4-3,0.4-5.2-0.9C352.5,459.5,354.2,459.3,355.7,460.9z"/>
	<path d="M338.6,407.9c-2,0.5-3.5,0.3-5.4,0.2c1-0.8,1.8-1,2.6-1.1C336.7,406.8,337.7,406.6,338.6,407.9z"/>
	<path d="M390.5,440.7c2.4,0.3,3.9,0.5,4.9,2.2C393.5,443,393.3,442.9,390.5,440.7z"/>
	<path d="M342.5,407.7c1.5-0.7,2.9-0.5,4.3-0.3c0.4,0.9-0.2,1.1-0.7,1.2C344.8,408.7,343.7,408.3,342.5,407.7z"/>
	<path d="M361,461c-0.9,0.5-1.8,0.4-2.8,0c0.3-1,1.1-1,1.9-1C360.6,460,361,460.2,361,461z"/>
	<path d="M439.2,529.3c-1.9,0.2-3.5-0.4-5-1.4L434,528C436.4,528,437.6,528.4,439.2,529.3L439.2,529.3z"/>
	<path d="M433.8,542.2c-0.9,1.3-0.9,1.3-2.4,1.2c0-0.7,0.6-0.6,1-0.8C432.8,542.5,433.2,542.4,433.8,542.2z"/>
	<path d="M384.8,559.6c-0.4-0.4-0.7-0.6-0.8-0.9c-0.1-0.5,0.3-1,0.7-0.9c0.4,0,0.7,0.5,1,0.8C385.4,558.9,385.1,559.2,384.8,559.6z"
		/>
	<path d="M371.1,576.9c0.1-0.7,0.1-1.3,0.2-2.1c0.7-0.3,1.2,0.2,1.6,0.8C372.7,576.7,371.8,576.6,371.1,576.9L371.1,576.9z"/>
	<path d="M365.2,548.9c-0.7,0.3-1.4,0.6-2.1,0.9c-0.4-0.4-0.5-0.8,0.1-1c0.6-0.2,1.3-0.3,1.9-0.4
		C365.1,548.5,365.1,548.7,365.2,548.9z"/>
	<path d="M359.7,554.3c-0.4,0.9-0.6,1.4-1,2.2C358.2,555.3,358.1,554.7,359.7,554.3z"/>
	<path d="M407.3,477.6c-0.2-1,0.2-1.8,1.1-2.7C408.4,476.2,408.1,477,407.3,477.6L407.3,477.6z"/>
	<path d="M413.6,517.3c0.7,0.7,1.4,1.4,2.1,2.1l0.1-0.1C414.5,519.2,413.7,518.6,413.6,517.3L413.6,517.3z"/>
	<path d="M371.1,576.8c-1,1.2-2.1,0.9-3.8,0.6C368.9,576.3,370,576.9,371.1,576.8L371.1,576.8z"/>
	<path d="M309,394.8c-1-0.5-1.1-1.2-0.7-2C308.9,393.4,309.4,393.9,309,394.8z"/>
	<path d="M392.8,479c0.6,0,1,0.6,0.8,1.2c0,0.2-0.3,0.4-0.4,0.4c-0.5,0-1-0.7-0.9-1.2C392.4,479.2,392.7,479.1,392.8,479z"/>
	<path d="M351,444.7c0.7-0.2,1-0.4,1.3-0.4c0.2,0,0.5,0.3,0.7,0.5c-0.2,0.2-0.5,0.6-0.7,0.6C351.9,445.4,351.6,445,351,444.7z"/>
	<path d="M359.9,565.3c0.2,0.4,0.4,0.7,0.4,0.9c0,0.1-0.3,0.4-0.4,0.4c-0.3-0.1-0.5-0.3-0.7-0.5
		C359.4,565.9,359.6,565.7,359.9,565.3z"/>
	<path d="M387.8,439.7c0.6-0.6,1-0.4,1.3-0.1c0.1,0.1-0.1,0.4-0.1,0.5C388.6,440.1,388.2,439.9,387.8,439.7z"/>
	<path d="M454.8,514c0.4,0,0.8,0.1,1.2,0.1c-0.2,0-0.4,0.1-0.5,0.1c-0.2,0-0.4-0.1-0.7-0.1C454.8,514,454.8,514,454.8,514z"/>
	<path d="M416.3,520.2c1.1-0.1,1.8,0.3,2.1,1.4l0.1-0.1C417.8,521.1,417.1,520.6,416.3,520.2L416.3,520.2z"/>
	<path d="M358.7,442.9c-0.3,0.8-0.5,1.1-1.1,0.8c-0.1-0.1-0.2-0.4-0.3-0.6C357.7,443.1,358.1,443,358.7,442.9z"/>
	<path d="M350.7,378c0.4,0.8,0.6,1,0.7,1.3c-0.2,0.1-0.4,0.1-0.6,0.2C350.8,379.2,350.8,378.9,350.7,378z"/>
	<path d="M424.2,524.4c0.8-0.1,1.6,0,2.2,0.6l0.1-0.1C425.6,525.1,424.8,525.3,424.2,524.4L424.2,524.4z"/>
	<path d="M442,524.7C442.4,524.8,442.2,524.8,442,524.7C442.2,524.8,442.4,524.8,442,524.7z"/>
	<path d="M428.6,544.5c-0.1,0.2-0.2,0.4-0.3,0.5c-0.1,0.1-0.3-0.1-0.5-0.2c0.1-0.2,0.1-0.5,0.3-0.5
		C428.2,544.3,428.4,544.5,428.6,544.5z"/>
	<path d="M413,486.7c-1-0.5-0.8-1.3-0.7-2.1l-0.1,0.1C412.4,485.3,412.6,486,413,486.7L413,486.7z"/>
	<path d="M412.9,486.8c0.7,0.6,0.5,1.4,0.6,2.2l0.1,0C413.3,488.2,413.1,487.4,412.9,486.8L412.9,486.8z"/>
	<path d="M311.2,398.7c-0.2-0.1-0.5-0.3-0.5-0.4c0-0.2,0.2-0.5,0.3-0.7c0.1,0.2,0.3,0.3,0.4,0.5
		C311.4,398.2,311.3,398.5,311.2,398.7z"/>
	<polygon points="378.8,571.4 379.1,571.5 378.8,571.6 	"/>
	<path d="M424.3,524.3c-0.6,0-1.3,0.1-1.4-0.7l-0.1,0.1C423.4,523.7,424,523.6,424.3,524.3L424.3,524.3z"/>
	<path d="M421.4,522.9c0.6,0.1,1.1,0.1,1.4,0.7l0.1-0.1C422.3,523.6,421.6,523.8,421.4,522.9L421.4,522.9z"/>
	<path d="M421.5,522.8c-0.6,0.1-1.3,0.2-1.4-0.7l-0.1,0.1C420.5,522.3,421.1,522.3,421.5,522.8L421.5,522.8z"/>
	<path d="M418.4,521.6c0.7-0.1,1.2-0.1,1.5,0.6l0.1-0.1C419.4,522.2,418.9,522.2,418.4,521.6L418.4,521.6z"/>
	<polygon points="441.1,519.8 441.1,519.7 441.4,519.8 	"/>
	<polygon points="458.4,513.3 458.4,513.5 458.1,513.4 	"/>
	<path d="M405.8,500.2c-0.2-0.1-0.4-0.1-0.5-0.3c-0.1-0.1,0.1-0.3,0.2-0.5c0.1,0.1,0.2,0.1,0.2,0.2
		C405.7,499.9,405.7,500.1,405.8,500.2L405.8,500.2z"/>
	<path d="M351.4,382.4c-0.1,0-0.2,0.1-0.3,0.1c0-0.1-0.1-0.2-0.1-0.4c0.1,0,0.2,0,0.3,0.1C351.4,382.2,351.4,382.3,351.4,382.4z"/>
	<polygon points="360.7,570.3 360.6,570.1 360.8,570.1 	"/>
	<path d="M415.7,519.4c0.4,0.1,0.7,0.3,0.6,0.8l0.1-0.1C416.2,519.9,416,519.6,415.7,519.4L415.7,519.4z"/>
	<path d="M413.7,517.2c-0.1,0-0.3-0.1-0.4-0.1c0.1,0,0.1,0,0.2,0C413.5,517.1,413.6,517.2,413.7,517.2L413.7,517.2z"/>
	<path d="M367.9,544.4c0.1,0.1,0.1,0.1,0.2,0.2c-0.1,0.1-0.2,0.2-0.2,0.2c-0.1,0-0.1-0.1-0.2-0.2
		C367.7,544.5,367.8,544.4,367.9,544.4z"/>
	<path d="M377.4,540.7c0.2,0.1,0.3,0.2,0.5,0.2C377.4,541.3,377.5,540.9,377.4,540.7L377.4,540.7z"/>
	<polygon points="413.4,489 413.7,489 413.5,488.9 	"/>
	<path d="M537.6,463.4c-2-0.3-3.9-0.5-6.5-0.9c0.9-0.6,1.3-1.1,1.7-1.1c1.8-0.2,3.7-0.5,5.3,0.1c0.6,1.2-0.4,1.4-0.7,2L537.6,463.4z
		"/>
	<path d="M471,490.3c-0.1,0.4-0.1,0.9-0.4,1.3c-1.5,2.2-3.2,4.3-5.3,6c-0.4,0.3-1,0.4-1.5,0.6c0.1-0.2,0-0.5,0.2-0.6
		C466.7,495.5,468.4,492.4,471,490.3z"/>
	<path d="M470.1,457.9c2.7-0.6,4.3-0.3,7.1,1.2C475.9,459.7,475.9,459.7,470.1,457.9z"/>
	<path d="M473.1,451.7c1.4-1.4,2.3-2.9,4.6-2.6C476.6,450.8,475.9,451.2,473.1,451.7z"/>
	<path d="M474.6,432.7c-2.9-1.3-3-1.4-3.3-3C473,430.5,473,430.5,474.6,432.7z"/>
	<path d="M472.5,445c-1.6,2.7-1.6,2.7-3.8,3.4C469.6,446.9,469.6,446.9,472.5,445z"/>
	<path d="M461,490.3c-1.1-0.3-1.3-0.8-1.2-1.4c0-0.4,0.2-0.9,0.5-1.1c0.3-0.3,0.9,0.3,1,1.1C461.2,489.3,461.1,489.7,461,490.3z"/>
	<path d="M483.9,460.3c-0.9-0.2-1.7-0.4-2.6-0.7c0.1-0.9,0.7-0.9,1.2-0.7c0.6,0.2,1,0.7,1.5,1C484,460.1,484,460.2,483.9,460.3z"/>
	<path d="M460.7,476.2c0.1,0.5,0.3,0.9,0.3,1.3c0,0.3-0.1,0.7-0.2,1C459.6,477.5,459.6,477.5,460.7,476.2z"/>
	<path d="M464,498.1c0,0.7-0.6,0.9-1.1,1.2c-0.6,0.4-1.2,0.7-1.8,1c0.1-0.6,0-1.2,0.7-1.5C462.4,498.5,463.2,498.3,464,498.1z"/>
	<path d="M454,447.1c-0.2-1.1,0-2,0.9-2.7C455.7,446.1,455.6,446.2,454,447.1L454,447.1z"/>
	<path d="M493.4,468.8c-0.1,0.1-0.2,0.2-0.3,0.2c-0.6,0.1-1.3-0.3-1.3-0.7c0-0.1,0.1-0.2,0.1-0.2c0.6-0.3,1,0.1,1.4,0.5
		C493.4,468.6,493.4,468.7,493.4,468.8z"/>
	<path d="M459.8,424.3c-0.4,0.3-0.7,0.6-1,0.8c-0.1,0-0.3-0.2-0.5-0.3c0.3-0.3,0.6-0.6,0.9-0.9C459.2,423.8,459.5,424.1,459.8,424.3
		z"/>
	<path d="M529.5,462.7c-0.1,0.1-0.3,0.3-0.4,0.4c-0.1-0.2-0.2-0.4-0.3-0.5c0,0,0.2-0.2,0.3-0.2C529.2,462.4,529.3,462.6,529.5,462.7
		z"/>
	<path d="M487.9,461c0.2,0.1,0.4,0.2,0.5,0.3c0.1,0.1-0.1,0.3-0.2,0.5c-0.2-0.1-0.4-0.1-0.5-0.3C487.7,461.4,487.8,461.1,487.9,461z
		"/>
	<path d="M460.7,482.2c-0.2,0.4-0.3,0.6-0.5,0.9c-0.2-0.2-0.6-0.3-0.6-0.5c0-0.3,0.2-0.6,0.3-0.9C460.2,481.8,460.4,482,460.7,482.2
		z"/>
	<path d="M451.9,450c0-0.5,0-1,0-1.8C452.9,449.1,452.6,449.5,451.9,450L451.9,450z"/>
	<path d="M447.8,454.6c0.1,0,0.2,0,0.2,0.1c0,0.3,0.1,0.7,0,1c0,0.1-0.2,0.1-0.2,0.2c-0.1-0.2-0.3-0.4-0.3-0.6
		C447.6,455,447.7,454.8,447.8,454.6z"/>
	<path d="M488.7,466.7c0.2,0.2,0.4,0.4,0.6,0.7c-0.2,0.1-0.4,0.3-0.5,0.3c-0.3,0-0.7,0-0.6-0.5C488.2,466.9,488.4,466.9,488.7,466.7
		z"/>
	<path d="M453,427.3c-0.3,0-0.6,0-0.8,0.1c0-0.2,0-0.4,0-0.5c0.1-0.1,0.4-0.2,0.6-0.1C452.9,426.7,452.9,427,453,427.3z"/>
	<path d="M460.4,500.9c-0.3,0.5-0.5,1-0.8,1.6C459.9,501.9,460.1,501.4,460.4,500.9z"/>
	<path d="M495,439.4c-0.4-0.3-0.8-0.5-1.2-0.8l-0.1,0C494.1,438.8,494.8,438.6,495,439.4L495,439.4z"/>
	<path d="M454,447.1c-0.1,0.1-0.2,0.2-0.3,0.3c0-0.1,0-0.2,0-0.2C453.8,447.1,453.9,447.1,454,447.1L454,447.1z"/>
	<polygon points="451.9,449.9 451.7,450 451.9,450 	"/>
	<polygon points="455.9,425.5 455.7,425.6 455.7,425.4 	"/>
	<polygon points="491.9,437.7 491.8,437.4 492,437.5 	"/>
	<polygon points="493.8,438.6 493.6,438.5 493.7,438.6 	"/>
	<polygon points="494.9,439.4 495.1,439.4 495,439.4 	"/>
	<path d="M461.1,500.2c-0.3,0.3-0.5,0.5-0.8,0.8C460.6,500.7,460.9,500.5,461.1,500.2z"/>
	<path d="M459.7,502.3c-0.3,0.3-0.6,0.5-0.8,0.8C459.2,502.9,459.4,502.6,459.7,502.3z"/>
	<path d="M508.2,501.6c2.5-0.2,5.1-0.4,7.6-0.6c0.3,0,0.7,0.1,1,0.3c0.2,0.1,0.3,0.4,0.3,0.6c0,0.2-0.2,0.5-0.3,0.6
		c-1.5,0.2-3,0.4-4.5,0.4C510.9,502.9,509.5,502.8,508.2,501.6z"/>
	<path d="M554.9,508.2c-3,0.9-5.6-0.2-8.2-0.9c-1.9-0.6-2.1-0.8-3.9-2.4c0.4-0.1,0.7-0.3,0.9-0.2c2.7,1.5,5.6,2.2,8.6,2.8
		C553.2,507.6,554.1,507.9,554.9,508.2z"/>
	<path d="M537.5,473.3c1.4,2.3,2.3,4.5,2.5,7.4c-2.6-1.1-2.7-3.1-3.3-4.7C536.3,475.1,536,474.2,537.5,473.3z"/>
	<path d="M568.6,491.8c-1.2-0.9-2.4-1.8-3.5-2.7c-0.4-0.3-0.8-0.8-1.3-1.2c0.4-0.1,0.6-0.4,0.7-0.3c1.8,0.9,3.3,2,4.5,3.7
		C568.9,491.4,568.7,491.6,568.6,491.8z"/>
	<path d="M542.1,481.5c1.3,0.8,2,1.2,2.8,1.6c-0.2,0.3-0.4,0.5-0.5,0.5C543.5,483.6,542.7,483.3,542.1,481.5z"/>
	<path d="M559.8,510.5c1.6-0.5,2.6-0.4,3.8,0.7C562.2,511.4,561.3,510.9,559.8,510.5z"/>
	<path d="M633.5,538.5c0.5,0.4,1,0.7,1.5,1.1c0.1,0.1,0,0.4-0.1,0.6c-0.1,0.1-0.5,0.2-0.6,0.2c-0.5-0.4-0.9-0.9-1.4-1.3
		C633.1,538.9,633.3,538.7,633.5,538.5z"/>
	<path d="M628.1,536c0.9-0.5,1.5-0.2,2,0.6C628.8,537.2,628.8,537.2,628.1,536z"/>
	<path d="M623.6,548.9c0.6-0.5,1-0.2,1.3,0.1c0.1,0.1,0.2,0.4,0.3,0.5c-0.2,0.1-0.5,0.2-0.6,0.2
		C624.2,549.5,623.9,549.2,623.6,548.9z"/>
	<path d="M577.6,518.6c-0.2-0.2-0.5-0.4-0.6-0.6c0,0,0.2-0.4,0.4-0.4c0.2,0,0.4,0.2,0.5,0.3C577.8,518.1,577.7,518.3,577.6,518.6z"
		/>
	<path d="M573.6,494.3c-0.3,0.4-0.4,0.6-0.4,0.6c-0.3-0.1-0.6-0.3-0.9-0.5c-0.1-0.1,0-0.4,0.1-0.5c0,0,0.2-0.1,0.3,0
		C573.1,494,573.4,494.2,573.6,494.3z"/>
	<path d="M609.6,540.9c0.8-0.1,1.1-0.3,1.4-0.2c0.2,0.1,0.3,0.4,0.5,0.6c-0.2,0.1-0.4,0.3-0.5,0.3
		C610.6,541.5,610.3,541.3,609.6,540.9z"/>
	<path d="M616,544.1c0.1,0,0.3,0,0.3,0.1c0,0.1,0,0.3-0.1,0.4c-0.1-0.1-0.2-0.1-0.3-0.2C615.9,544.3,616,544.2,616,544.1z"/>
	<path d="M573.6,515.6c0.2-0.1,0.5-0.2,0.5-0.1c0.1,0.1,0.1,0.4,0.2,0.6c-0.2,0-0.4,0.2-0.5,0.1C573.8,516,573.7,515.8,573.6,515.6z
		"/>
	<path d="M568.1,512.3c0.3,0.1,0.6,0.2,0.9,0.2c0,0.1,0,0.2-0.1,0.2C568.3,513,568.1,512.9,568.1,512.3L568.1,512.3z"/>
	<path d="M505.1,501.3c0,0.1-0.1,0.2-0.1,0.2c-0.1,0-0.2-0.1-0.3-0.1c0-0.1,0.1-0.2,0.1-0.2C504.9,501.2,505,501.2,505.1,501.3z"/>
	<polygon points="620.2,545.8 620.3,546 620,546 	"/>
	<path d="M568.1,512.3c-0.1,0-0.2,0-0.2-0.1C568,512.3,568,512.3,568.1,512.3L568.1,512.3z"/>
	<path d="M225.8,545.6c3.3,0.1,6.6,0.1,9.9,0.2c0.9,0,1.9,0.1,2.8,0.2c0.2,0,0.4,0.5,0.6,0.7c-1,0.8-2.1,0.5-3.1,0.5
		c-2.8,0.1-5.6,0.2-8.5,0.3c-0.7,0-1.4,0.1-2.1,0.4c-2.6,1-5.2,2.2-7.6,3.2c-1-0.3-1.5-0.7-1.1-1.9c1-0.3,2.1-0.5,3.2-0.8
		c2.1-0.6,4.3-1.2,5.9-2.9L225.8,545.6z"/>
	<path d="M282.9,404c-1.8,1.6-2.6,3.5-4.2,4.7c-0.8-0.8-0.3-1.4,0-2c0.8-1.3,1.5-2.8,3-3.4c1.6-0.6,3.4-0.8,5.2-0.4
		c0.7,0.2,0.9,0.3,1.9,1.3c-1.1,0.7-2-0.4-3-0.3C284.8,404,283.9,404,282.9,404z"/>
	<path d="M278.2,483.9c0.2-0.7,0.8-1.3,1.5-1.3c1.6,0.2,2.6-0.6,3.6-1.6c0.4-0.4,0.9-0.7,1.3-0.9c0.7,0.4,0.6,0.9,0.2,1.2
		c-1.2,1.3-2.4,2.5-4.4,2.1C279.8,483.3,279,484.2,278.2,483.9L278.2,483.9z"/>
	<path d="M294.8,441.7c-0.3,0.3-0.5,0.6-0.8,0.7c-0.6,0-1.3-0.1-2.2-0.2C293.2,441.3,293.2,441.3,294.8,441.7z"/>
	<path d="M287.9,442.3c0.4-0.8,1.1-0.7,1.8-0.5C289.2,442,288.7,442.8,287.9,442.3z"/>
	<path d="M261.1,493.2c0.4,0.1,1,0.1,1.2,0.4c0.2,0.3,0.1,0.8,0.2,1.3C261.3,494.7,261.4,493.8,261.1,493.2L261.1,493.2z"/>
	<path d="M273.3,442.8c-0.3,0.1-0.4,0.1-0.6,0.2c0-0.2-0.2-0.4-0.1-0.6c0-0.2,0.3-0.3,0.4-0.4C273.1,442.2,273.2,442.4,273.3,442.8z
		"/>
	<path d="M275.2,417.9c-0.2,0.2-0.5,0.4-0.7,0.6c0,0-0.2-0.2-0.4-0.3c0.2-0.2,0.4-0.4,0.6-0.6C274.7,417.5,275,417.7,275.2,417.9z"
		/>
	<path d="M268.5,531.9c0.2,0.2,0.5,0.4,0.4,0.5c-0.1,0.3-0.2,0.5-0.3,0.8c-0.1-0.1-0.2-0.2-0.2-0.3
		C268.4,532.7,268.5,532.4,268.5,531.9z"/>
	<path d="M277.1,414.6c-0.1,0.1-0.1,0.2-0.2,0.2c-0.1-0.1-0.1-0.2-0.1-0.4c0-0.1,0.2-0.1,0.2-0.2
		C277.1,414.4,277.1,414.5,277.1,414.6z"/>
	<path d="M284.8,442.4c0.1,0.1,0.3,0.2,0.4,0.3c-0.1,0.2-0.2,0.3-0.3,0.5c-0.1-0.1-0.2-0.2-0.2-0.2
		C284.7,442.8,284.7,442.6,284.8,442.4z"/>
	<polygon points="271.3,475 271.5,475 271.5,475.1 	"/>
	<polygon points="278.2,483.9 278.1,484.1 278.2,483.9 	"/>
	<path d="M438.1,391.4c0.2-1.2,0.5-2.2,0.6-3.2c0.1-1-0.1-2.1,0.5-3.1c0.9,1.4,1.1,2.8,0.7,4.6C439.8,390.5,439.3,391.1,438.1,391.4
		z"/>
	<path d="M441.6,379.9c0.4,1.1,0.4,2.2-0.2,3.3C440.4,381.7,440.4,381,441.6,379.9z"/>
	<path d="M418.6,365.7c-1.8-0.6-1.8-0.6-2.8-2.1C417.4,363.3,417.9,364.1,418.6,365.7z"/>
	<path d="M433.7,394.3c0.9-0.6,1.8-1.1,2.7-1.7c-0.3,1-0.4,1.1-0.8,1.4C435,394.5,434.4,394.9,433.7,394.3z"/>
	<path d="M363.3,364.9c0.2-1.8,0.2-1.8,1.3-2.9c0.8,0.7,0,1.3-0.2,1.8C364.3,364.4,364,365,363.3,364.9L363.3,364.9z"/>
	<path d="M368.4,358.6c0.4-1.9,0.4-1.9,2.1-2.4C370,357.3,370,357.3,368.4,358.6z"/>
	<path d="M419.6,366.3c1.6,0.6,1.6,0.6,1.3,1.9C420,368.1,419.9,367.4,419.6,366.3z"/>
	<path d="M456,406.3c-0.4,0.2-0.7,0.4-0.7,0.3c-0.3-0.3-0.5-0.6-0.7-1c0.2-0.1,0.5-0.3,0.6-0.3C455.4,405.6,455.7,406,456,406.3z"/>
	<path d="M411.5,372.7c-0.1-1,0.1-1.6,1.1-1C412.2,372,411.9,372.4,411.5,372.7z"/>
	<path d="M458.6,412.9c-0.3-0.4-0.8-0.8-0.1-1.3c0,0,0.2,0,0.2,0C459.2,412,459.1,412.4,458.6,412.9z"/>
	<path d="M456.9,409.2c-0.1,0-0.2,0.1-0.3,0.1c0-0.1-0.1-0.2-0.1-0.4c0.1,0,0.2,0,0.3,0.1C456.9,409.1,456.9,409.2,456.9,409.2z"/>
	<path d="M551,445.8c1-0.4,1.9-0.4,2.6,0.4c2.9,3.9,5.4,8,5.6,13.1c0,0.6,0,1.2-0.1,1.8c-0.2,1.1-1.1,1.9-2.1,2.1
		c-1.1,0.2-2.3-0.6-2.7-1.8c-0.2-0.6-0.2-1.2-0.2-1.7c-0.1-1.1-0.1-2.1-0.1-3.2c0-2.6-0.6-5.1-2-7.4c-0.6-1-1-2.1-0.8-3.3L551,445.8
		z"/>
	<path d="M559.7,444.7c0.5,0.2,1,0.2,1.2,0.4c2.5,3.3,4.6,6.8,4.6,11.2c0,0.7-0.1,1.4-0.3,2.1c-0.2,0.6-0.7,0.9-1.4,0.8
		c-0.6,0-1.1-0.4-1.3-1c-0.1-0.2-0.1-0.5-0.1-0.7c0.3-3.2-0.8-6-2.1-8.8c-0.3-0.7-0.7-1.5-0.9-2.3
		C559.4,445.9,559.6,445.3,559.7,444.7z"/>
	<path d="M571.7,452.8c0,0.2,0,0.5-0.1,0.7c-0.1,0.6-0.3,1.1-1,1.3c-0.6,0.2-1.3-0.2-1.5-1.1c-0.8-2.9-1.8-5.8-3.1-8.6
		c-0.1-0.2-0.1-0.5-0.1-0.7c0.1-0.3,0.2-0.7,0.5-0.9c0.2-0.2,0.7-0.2,1-0.1c0.3,0.1,0.6,0.3,0.8,0.6
		C570,446,571.7,450.3,571.7,452.8z"/>
	<path d="M576.9,449.1c-0.1,0.4-0.1,0.8-0.3,1.1c-0.2,0.3-0.5,0.5-0.8,0.5c-0.3,0-0.6-0.2-0.9-0.4c-0.2-0.1-0.3-0.4-0.4-0.6
		c-0.6-2-1.3-4-1.9-6c0-0.1,0-0.2,0-0.3c-0.1-0.5,0.4-1.4,0.9-1.3c0.4,0,1,0.2,1.2,0.5C575.9,444.6,576.6,446.8,576.9,449.1z"/>
	<path d="M578.5,441c0.4,0.1,0.7,0,0.8,0.2c1.5,1.4,2.2,3.2,2.1,5.3c0,0.3-0.3,0.6-0.5,0.9c-0.4,0.3-0.8,0.4-1.2,0
		c-0.2-0.2-0.4-0.3-0.4-0.5c-0.4-1.6-0.9-3.1-1.2-4.7C578,441.8,578.4,441.3,578.5,441z"/>
	<path d="M312.3,374.8c2.3,0,4-0.1,5.7,0c4.6,0.4,7,0.1,10.8-1.9c0.6,0.2,0.8,0.7,0.4,1.1c-1.7,1.6-3.4,3.1-5.2,4.6
		c-0.2,0.2-0.7,0.2-1,0.3c-1.7-0.7-3.6-1.2-5.1-2.2C316.4,375.6,314.3,376.6,312.3,374.8z"/>
	<path d="M330.1,393.1c0-1.4,0.9-1.8,1.8-2.2c0.4-0.2,0.9-0.2,1.4-0.3c3.2-0.5,6.2-1.1,8.7-3.4c0.7-0.7,1.6-1.3,2.9-1.6
		c-0.2,0.6-0.2,0.9-0.4,1.1c-0.6,0.5-1.4,0.9-1.9,1.5c-1.9,2.5-4.6,3.2-7.4,3.5c-1.2,0.1-2.2,0.3-3.1,1.2
		C331.7,393.3,330.8,393.1,330.1,393.1z"/>
	<path d="M332.2,383.5c1.5,1.4,2.7,2,4.1,2c0.6,0,1.2,0.2,1.7,0.1c0.5-0.1,1-0.5,1.5-0.7c0.1-1.2,0.2-2.3,0.4-3.6
		c1.2,0.8,1.5,1.7,1.3,2.8c-0.3,1.7-1.6,2.5-3,3.1c-1.6-0.2-3.2-0.3-4.9-0.5C332.7,386.2,332,385.4,332.2,383.5z"/>
	<path d="M344,390.5c0,0.6,0.1,1,0,1.3c-1.5,2-3.6,3-6,3.4c-0.3,0.1-0.9-0.4-1-0.7c-0.1-0.3,0.2-0.9,0.6-1.1
		C339.6,392.5,341.6,391.6,344,390.5z"/>
	<path d="M341.9,379.2c0.2,0.1,0.5,0.1,0.6,0.2c0.5,0.4,0.6,1,0.3,1.6c-0.1,0.2-0.7,0.4-0.8,0.3c-0.5-0.5-0.8-1.1-0.4-1.8
		C341.7,379.4,341.8,379.3,341.9,379.2z"/>
	<path d="M485.1,503.1c-1.1-1.4-1.8-2.9-2-5.3C484.6,499.8,485.2,501.3,485.1,503.1L485.1,503.1z"/>
	<polygon points="485.1,503.1 485.3,503.2 485.1,503.1 	"/>
	<path d="M474.6,483.3c0.1-1.1,0.1-2.3,0.2-3.4c0.3,1.2,0.6,2.3-0.3,3.3L474.6,483.3z"/>
	<path d="M473.2,486.9c-0.2-1.5,0.5-2.6,1.4-3.6l-0.1-0.1C474.5,484.6,474.1,485.8,473.2,486.9L473.2,486.9z"/>
	<polygon points="474.1,506.5 474.2,506.5 474.2,506.8 	"/>
	<path d="M302.7,76.7c4.2,6.6,10,11.6,15.6,16.8c4.2,3.9,8.9,7.3,13.4,11c0.7,0.6,1.5,1.2,2.3,1.7c1.1,0.7,2.2,1.4,3.3,2.1
		c3.7,2.3,7.6,2.9,11.9,2.5c1-0.1,2.1-0.1,3.3-0.2c-0.7,1-1.7,1.1-2.6,1.2c-6.1,0.9-11.7-0.3-16.6-4.2c-1.9-1.5-3.9-3.1-5.8-4.7
		c-1.5-1.2-2.8-2.6-4.3-3.7c-5.1-4-9.7-8.6-14.2-13.3c-2.1-2.2-4-4.6-5.9-7C302.4,78.4,301.9,77.6,302.7,76.7z"/>
	<path d="M363.9,58.7c1.3-0.1,2.1,0.9,3.1,1.6c4.9,3.6,9.5,7.5,13.5,11.9c4.6,5.1,9.1,10.2,13.6,15.4c1,1.1,1.7,2.5,2.6,3.8
		c-1.4-0.2-2.3-1.2-3.2-2.1c-2.4-2.4-4.8-4.9-7-7.4c-2.2-2.4-4.3-5-6.5-7.5c-4.1-4.6-8.7-8.6-13.4-12.5c-0.6-0.5-1.3-1-1.9-1.6
		C364.2,59.8,364.1,59.2,363.9,58.7z"/>
	<path d="M366.1,68.7c1,0.2,1.2,1.1,1.5,1.8c2.4,4.8,3.7,9.9,4.1,15.3c0.2,2.8,0.2,5.7,0.2,8.5c0,5.9-2.4,10.5-7.5,13.5
		c-0.3,0.2-0.5,0.4-0.8,0.7c-0.1,1.3,1.8,2.4,0.7,3.9c-1.3-0.6-1.1-2.3-2.4-3.2c-1.5,0.3-3.2,0.6-4.9,0.9c0-0.1-0.1-0.2-0.1-0.3
		c0.4-0.2,0.9-0.5,1.3-0.7c2.6-0.8,5.1-2,7.2-3.7c2.9-2.3,4.7-5.3,5-9c0.4-5.9,0.4-11.8-0.9-17.6c-0.1-0.3-0.3-0.6-0.5-0.9
		c-1.5-0.3-2.6,0.3-3.6,1.1c-1.3,0.9-2.5,1.8-3.7,2.7c-0.5,0.4-1,0.6-1.7,0c2.2-2.8,4.8-5,8.7-5.4c-0.2-1.9-1-3.4-1.7-5
		C366.6,70.4,366.4,69.5,366.1,68.7L366.1,68.7z"/>
	<path d="M442,227.4c-0.3,0.2-0.5,0.5-0.8,0.7c-0.8,0.2-1.6,0.4-2.3,0.6c-3.3,0.9-6.5,1.9-9.8,2.6c-2.6,0.6-5.1,0.2-7.4-1.3
		c-1.6-1.1-3.5-1.9-5.3-2.8c-0.5-0.3-1-0.6-1.4-0.9c0.1-0.9,0.6-1.1,1.2-1.1c0.6,0,1.2,0.2,1.7,0.4c1.3,0.6,2.6,1.2,3.8,1.9
		c1.5,0.9,2.9,2,4.8,1.9c2.7-0.1,5.4,0,7.8-1.6l-0.1,0.1c2.1,0.4,3.8-0.8,5.7-1.4C440.8,226.4,441.5,226.5,442,227.4z"/>
	<path d="M406.2,197.6c0.3,0.1,0.7,0.2,0.9,0.4c2.1,1.9,4.3,3.7,6.2,5.7c2.2,2.2,4.2,4.7,6.7,6.7c0.2,0.1,0.2,0.4,0.4,0.6
		c-0.1,1-0.8,1.1-1.5,1c-0.7-0.1-1.4-0.3-1.9-0.7c-0.9-0.6-1.7-1.3-2.3-2.1c-2.8-3.2-5.5-6.4-8.1-9.7
		C406.1,199,405.5,198.4,406.2,197.6z"/>
	<path d="M218,246.5c0.1-0.9,0.7-1.4,1.6-1.6c1.6-0.4,3.4-0.5,4.7-1.4c3-1.9,6.2-1.9,9.5-1.8c1.9,0.1,3.8,0,5.7,0.1
		c0.6,0,1.2,0.1,1.4,0.9c-0.7,0.8-1.7,0.5-2.6,0.6c-2.9,0.1-5.9,0.2-8.8,0.3c-0.8,0-1.6,0.2-2.4,0.5c-2.5,1-5,2.1-7.4,3.1
		c-0.7-0.3-1.2-0.5-1.8-0.7L218,246.5z"/>
	<path d="M400.2,198.3c0.9,1.2,1.9,2.4,2.8,3.6c1.5,2.1,3,4.2,4.6,6.3c2.6,3.2,5.2,6.4,9.4,7.4c0.1,0.9-0.3,1.2-0.8,1.1
		c-0.9-0.1-1.9-0.2-2.7-0.7c-1.4-0.9-2.7-1.9-3.9-3.1c-3.7-4-6.6-8.6-9.2-13.3C400.2,199.2,400.3,198.7,400.2,198.3L400.2,198.3z"/>
	<path d="M366.2,118.9c0.3-0.5,0.4-1,0.6-1.3c-0.1-1.3-1.4-2-1.1-3.5c1.4,0.7,2.5,1.8,2.3,3.2c-0.2,1.2,0.2,2,0.7,2.9
		c1.1,2.1,1.1,4.3,0.9,6.5c-0.1,1.1-0.6,2-1.6,2.6c-0.6,0.4-1.3,0.5-2-0.4C368.1,125.7,368.2,122.2,366.2,118.9z"/>
	<path d="M349.5,94.1c0.7,0.3,1.5,0.5,2.1,0.9c3.3,2,6,4.8,8.5,7.8c0.5,0.7,0.8,1.4,0.1,2.2c-0.2,0-0.5,0-0.7-0.1
		c-3.5-3.4-7-6.8-10.5-10.3C349.2,94.5,349.3,94.3,349.5,94.1z"/>
	<path d="M396.4,181.2c-1.1,0.3-1.4,0.5-1.7,0.4c-3.1-1.4-6.3-2.7-9.4-4.2c-1-0.5-1.9-1.4-2.7-2.3c-0.9-0.9-1.5-2-2.5-3.2
		c0.4,0,0.7-0.1,0.8,0c0.6,0.4,1.2,0.8,1.6,1.3c1.2,1.9,3.1,2.9,5,3.8c1.5,0.7,3,1.3,4.5,2C393.3,179.7,394.4,180.3,396.4,181.2z"/>
	<path d="M396.9,143.2c3.4,0,5.6,1.2,7.9,2.3c1.8,0.8,3.5,1.9,4.4,3.8c-0.3,0.2-0.6,0.4-0.7,0.3c-2.7-2.2-5.8-3.5-8.9-4.9
		C398.9,144.4,398.2,143.9,396.9,143.2z"/>
	<path d="M284.8,99.9c-1.9,1.5-2.6,3.5-4.5,4.8c-0.1-0.5-0.3-0.8-0.2-1c0.3-0.7,0.5-1.3,1-1.9c0.8-1.1,1.5-2.5,3-2.8
		c2.1-0.4,4.2-0.7,6.2,0.4c0.3,0.1,0.4,0.5,0.7,1c-1.2,0.5-2.1-0.5-3-0.5C286.8,99.9,285.8,99.9,284.8,99.9z"/>
	<path d="M379.5,139c-1,1.8-1.8,3.5-2.6,5.1c-0.8,1.6-1.1,3.5-2.5,5c-0.2-0.3-0.4-0.5-0.4-0.6c0.5-2.9,1.5-5.6,2.9-8.2
		c0.3-0.6,0.8-1.1,1.4-1.5C378.4,138.6,379,138.9,379.5,139z"/>
	<path d="M405.8,180.5c-0.7,0.6-0.7,1.4-0.6,2.3c0.1,1,0.3,2.1,0.4,3.1c0,0.5-0.3,0.8-1,0.8c-0.3-2.1-0.6-4.2-0.9-6.2
		c-0.3-1.6,0.8-2.9,0.9-5C405.3,177.6,406,179,405.8,180.5L405.8,180.5z"/>
	<path d="M384.5,262.1c0-1.8-0.2-3.2-0.1-4.6c0.2-2.3,0-4.5-1.1-6.5c-0.1-0.2-0.1-0.5-0.1-0.7c0-0.1,0.1-0.2,0.1-0.3
		c0.6-0.2,0.8,0.3,1,0.6c0.4,1.1,0.9,2.2,1.1,3.3c0.3,1.9,0.4,3.8,0.4,5.6c0,0.6-0.2,1.1-0.4,1.7
		C385.4,261.4,385.1,261.6,384.5,262.1z"/>
	<path d="M338.8,159.7c1,1.6,1.9,3.1,2.8,4.5c1,1.4,2.1,2.8,3.2,4.2c-0.3,0.1-0.6,0.3-0.7,0.3c-2.4-1.4-3.6-3.9-4.9-6.3
		C338.7,161.7,338,160.9,338.8,159.7z"/>
	<path d="M353.6,160.5c-2.9,0.6-5.2-0.4-7.7-0.8c0.6-1.4,1.6-1.2,2.4-1.1C350.1,158.8,351.9,158.9,353.6,160.5z"/>
	<path d="M379.8,246.4c-1.8-1.6-3.6-3.3-5.4-4.9c0.1-0.2,0.3-0.5,0.4-0.5C377.6,241.6,379.2,243.5,379.8,246.4z"/>
	<path d="M436.3,238.8c0.1-0.2,0-0.5,0.2-0.6c2.4-1.6,4.7-3.2,7.1-4.8c-0.6,1.3-0.5,1.3-1.1,1.8
		C440.6,236.7,438.8,238.4,436.3,238.8L436.3,238.8z"/>
	<path d="M412.1,219.7c0.4,0.1,0.9,0.1,1.3,0.3c2.1,1,4.2,2,6.2,3.1c0.4,0.2,0.6,0.6,0.9,0.8l0.1-0.1
		C417.5,223.1,414.6,221.8,412.1,219.7L412.1,219.7z"/>
	<path d="M341.1,93.7c2-0.3,3.8-0.3,5.7,0.2c0.3,0.1,0.5,0.4,0.8,0.7C344.5,95,343.2,94.9,341.1,93.7z"/>
	<path d="M447.3,219.3c-2.7,0-5.3,0-8,0c0,0,0-0.1,0-0.1c2.7,0,5.4,0,8.1,0C447.4,219.2,447.3,219.3,447.3,219.3z"/>
	<path d="M364.4,268.1c-0.7,0.6-1.2,1.2-1.8,1.7c-0.2,0.1-0.4,0.2-0.6,0.3c-0.5,0.2-1.5-0.2-1.4-0.5c0-0.4,0.2-0.9,0.5-1.2
		C361.9,267.5,363,267.4,364.4,268.1z"/>
	<path d="M286.8,176.5c-1,2.3-1.7,2.8-3.5,2.5C285.4,176.6,285.4,176.6,286.8,176.5z"/>
	<path d="M392.2,140.2c1.5-0.5,2.7-0.1,3.8,1.2c-0.7,0.1-1.2,0.3-1.5,0.1C393.7,141.1,392.9,140.6,392.2,140.2z"/>
	<path d="M359.5,168.5c0.1-1.5,0.8-2,1.7-2.6C361.2,167.3,361.2,167.3,359.5,168.5z"/>
	<path d="M352.5,88.4c0,0.3,0.1,0.7,0,1c-0.4,1.2-0.9,2.3-1.7,4.2C350.6,91.1,351.3,89.7,352.5,88.4L352.5,88.4z"/>
	<path d="M366.2,275.7c-0.2-0.7-0.3-1.3-0.5-2.1c0.9-0.2,1.5,0,1.8,1.2C367.1,275.1,366.6,275.4,366.2,275.7L366.2,275.7z"/>
	<path d="M379.4,256.2c0.5,0.6,0.8,0.9,0.9,1.2c0,0.2-0.3,0.6-0.6,0.7c-0.5,0.2-1-0.1-1-0.6C378.6,257.2,379,256.9,379.4,256.2z"/>
	<path d="M428.6,240.9c-1,1.3-1,1.3-2.5,1.4C426.8,241.5,426.8,241.5,428.6,240.9z"/>
	<path d="M409.2,217.6c1.3,0.2,2.3,0.8,2.9,2.1l0.1-0.1C411,219.3,410,218.5,409.2,217.6L409.2,217.6z"/>
	<path d="M357.2,248.3c0.8-1.3,1.8-1.1,2.8-0.8C359.1,247.7,358.4,248.8,357.2,248.3z"/>
	<path d="M366.2,275.6c-2.5,1-2.5,1-3.8-0.1C363.8,275.4,365,275.6,366.2,275.6L366.2,275.6z"/>
	<path d="M353.5,255.3c-0.8-1.2-0.5-1.7,0.4-2.1C354.7,253.8,353.9,254.3,353.5,255.3z"/>
	<path d="M296.7,137.6c-1.1,1.1-1.9,0.9-2.8,0.3C295.1,137.3,295.1,137.3,296.7,137.6z"/>
	<path d="M388.4,138c1.2-0.7,2.2-0.8,3.1,0.5c-0.6,0-0.9,0.1-1.2,0C389.6,138.3,389,138.1,388.4,138z"/>
	<path d="M363.6,158.1c-0.4,0.8-0.9,1-1.5,0.9c-0.2,0-0.4-0.3-0.4-0.4c0-0.1,0.2-0.5,0.3-0.5C362.5,158,363,158.1,363.6,158.1z"/>
	<path d="M364.7,66.5c-1.2-0.6-1.8-1.6-2.1-2.8l-0.1,0.1C363.8,64.2,364.5,65.2,364.7,66.5L364.7,66.5z"/>
	<path d="M357,169c-1,0-2,0-3,0c0-0.1,0-0.2,0-0.4c1,0,1.9,0,2.9,0C356.9,168.8,356.9,168.9,357,169z"/>
	<path d="M279.7,180c0.8-1,1.4-1.6,2.6-1.2C281.8,179.6,281.1,180,279.7,180z"/>
	<path d="M289.8,138c0.3-0.1,0.5-0.3,0.8-0.4c0.3-0.1,0.7,0,1,0C291.1,138.2,290.5,138.2,289.8,138z"/>
	<path d="M313.4,78.4c-0.4-1-0.6-1.6-0.9-2.3C313.5,76.6,313.5,76.6,313.4,78.4z"/>
	<path d="M354.4,264.1c0.4,0.3,0.6,0.5,0.8,0.7c0.1,0.1-0.2,0.5-0.3,0.5c-0.3,0-0.6-0.2-0.8-0.3
		C354.1,264.8,354.2,264.6,354.4,264.1z"/>
	<path d="M326.7,95.3c0-0.6,0.4-0.9,0.9-0.8c0.2,0,0.5,0.4,0.7,0.6c-0.2,0.2-0.5,0.4-0.7,0.5C327.3,95.6,327,95.4,326.7,95.3z"/>
	<path d="M334.3,94c-1.1,0.1-1.6,0.2-2.3,0.3C332.7,93.6,332.7,93.6,334.3,94z"/>
	<path d="M364.6,66.5c1.1,0.3,1.5,1,1.4,2.1l0.1-0.1C365.1,68.2,364.8,67.4,364.6,66.5L364.6,66.5z"/>
	<path d="M263.4,188.3c0.7,1.2,0.7,1.2,0.4,2.5C262.9,190,263.5,189.1,263.4,188.3L263.4,188.3z"/>
	<path d="M372.9,158.4c-0.2-0.8-0.3-1-0.3-1.3c0-0.2,0.1-0.4,0.2-0.6c0.1,0.2,0.2,0.4,0.2,0.6C373,157.3,373,157.5,372.9,158.4z"/>
	<path d="M436.5,223.4c0.4,0,0.7,0,1.1,0c0,0,0,0.1,0,0.1C437.2,223.5,436.8,223.5,436.5,223.4C436.5,223.5,436.5,223.5,436.5,223.4
		z"/>
	<path d="M337.6,157.7c-0.9-0.3-1.1-0.9-1-1.6C337.4,156.4,337.6,156.9,337.6,157.7z"/>
	<path d="M431.3,227.4c1,0,2.1-0.3,2.9,0.7l0.1-0.1C433.2,228.1,432.1,228.5,431.3,227.4L431.3,227.4z"/>
	<path d="M287.1,138.8c-0.1,0.1-0.3,0.3-0.4,0.4c-0.2-0.2-0.3-0.4-0.5-0.6c0.2-0.1,0.4-0.3,0.6-0.2
		C286.9,138.3,287,138.6,287.1,138.8z"/>
	<path d="M387.9,126.6c-0.8,0-1.4,0.1-2.8,0.1C386.5,125.9,387.1,125.7,387.9,126.6z"/>
	<path d="M407.2,184.8c-0.8-0.5-0.7-1.3-0.7-2.1l-0.1,0.1C407.5,183.2,407.1,184.1,407.2,184.8L407.2,184.8z"/>
	<path d="M406.5,182.8c-0.9-0.5-0.8-1.4-0.6-2.2l-0.1,0.1C406.7,181.1,406.5,182,406.5,182.8L406.5,182.8z"/>
	<path d="M402.3,175.7c0-0.5,0-1.1,0-1.9C403.2,174.8,402.9,175.2,402.3,175.7L402.3,175.7z"/>
	<path d="M375.3,163.6c-0.6-0.4-0.9-0.9-0.1-1.8C375.2,162.6,375.2,163.1,375.3,163.6L375.3,163.6z"/>
	<path d="M348.3,140.1c-0.4,0.1-0.8,0.2-1.1,0.2c-0.1,0-0.3-0.3-0.4-0.4c0.1-0.1,0.2-0.2,0.3-0.2
		C347.5,139.5,347.9,139.5,348.3,140.1z"/>
	<path d="M275.1,138.5c-0.2,0.1-0.3,0.2-0.5,0.3c-0.1-0.2-0.2-0.5-0.3-0.7c0.2,0,0.4-0.2,0.5-0.1C274.9,138,275,138.3,275.1,138.5z"
		/>
	<path d="M276.4,113.3c0.2,0.3,0.4,0.5,0.4,0.5c-0.2,0.2-0.4,0.4-0.7,0.5c0,0-0.2-0.2-0.2-0.2C276,113.9,276.2,113.6,276.4,113.3z"
		/>
	<path d="M315.9,81.4c-0.2,0.1-0.4,0.2-0.5,0.3c-0.1-0.3-0.2-0.6-0.2-0.9c0-0.1,0.3-0.2,0.4-0.2C315.7,80.8,315.8,81.1,315.9,81.4z"
		/>
	<path d="M423.3,243.6c-0.3,0.1-0.6,0.2-0.9,0.3c0-0.2-0.2-0.5-0.1-0.5c0.1-0.1,0.4-0.2,0.6-0.2
		C423.1,243.1,423.2,243.4,423.3,243.6z"/>
	<path d="M271,228.5c-0.1,0.2-0.3,0.4-0.4,0.6c-0.1-0.2-0.3-0.4-0.3-0.5c0-0.2,0.2-0.4,0.3-0.5C270.7,228.2,270.9,228.3,271,228.5z"
		/>
	<path d="M429.2,226.7c0.8,0.1,1.6-0.1,2.1,0.7l0.1-0.1C430.6,227.3,429.7,227.7,429.2,226.7L429.2,226.7z"/>
	<path d="M427.1,226c0.8,0.1,1.6,0,2.1,0.7l0.1-0.1C428.5,226.6,427.6,227,427.1,226L427.1,226z"/>
	<path d="M427.2,225.9c-0.8,0-1.7,0.4-2.1-0.7l-0.1,0.1C425.7,225.3,426.5,225.2,427.2,225.9L427.2,225.9z"/>
	<path d="M425,225.2c-0.8,0.1-1.7,0.3-2.1-0.7l-0.1,0.1C423.6,224.6,424.4,224.4,425,225.2L425,225.2z"/>
	<path d="M422.9,224.5c-0.8,0.1-1.7,0.1-2.3-0.6l-0.1,0.1C421.4,223.8,422.2,223.7,422.9,224.5L422.9,224.5z"/>
	<path d="M450.5,213c-0.3,0-0.6-0.1-0.9-0.1c0,0,0-0.1,0-0.1c0.3,0,0.6,0.1,0.9,0.1C450.5,212.9,450.5,212.9,450.5,213z"/>
	<path d="M356.7,137c-0.2,0.1-0.4,0.2-0.6,0.2c-0.1,0-0.1-0.2-0.2-0.3c0.2-0.1,0.4-0.2,0.6-0.3C356.6,136.7,356.6,136.9,356.7,137z"
		/>
	<path d="M352.5,138.2c0,0.1-0.1,0.2-0.1,0.3c-0.1-0.1-0.2-0.2-0.3-0.3c0.1-0.1,0.2-0.1,0.2-0.2C352.4,138,352.5,138.1,352.5,138.2z
		"/>
	<path d="M355.2,268.9c0,0.1,0.1,0.2,0.1,0.3c-0.1,0-0.3,0.1-0.4,0.1c0-0.1,0-0.2,0.1-0.3C355,268.9,355.2,268.9,355.2,268.9z"/>
	<path d="M330.3,149.9c0.1,0,0.2,0,0.2,0c0,0.1,0.1,0.2,0,0.3c0,0.1-0.1,0.2-0.2,0.2C330.3,150.3,330.3,150.1,330.3,149.9z"/>
	<path d="M359.2,158.3c-0.2,0.1-0.4,0.2-0.6,0.3c-0.1,0-0.2-0.2-0.2-0.2c0-0.1,0.2-0.3,0.2-0.2C358.8,158.1,359,158.2,359.2,158.3z"
		/>
	<path d="M273,170.9c-0.1,0-0.1-0.1-0.2-0.1c0.1-0.1,0.2-0.1,0.3-0.2C273,170.7,273,170.8,273,170.9z"/>
	<path d="M407.1,184.9c0.6,0.2,0.8,0.4,0.3,1C407.4,185.5,407.3,185.1,407.1,184.9L407.1,184.9z"/>
	<path d="M362.4,243.3c0.1,0,0.2-0.1,0.3-0.1c0,0.1,0.1,0.2,0.1,0.3c-0.1,0-0.2,0-0.3-0.1C362.4,243.4,362.4,243.3,362.4,243.3z"/>
	<path d="M436.3,238.7c-0.1,0.2-0.3,0.4-0.4,0.4c-0.1,0-0.3-0.1-0.4-0.2c0.1,0,0.2-0.1,0.3-0.1C435.9,238.8,436.1,238.8,436.3,238.7
		L436.3,238.7z"/>
	<path d="M408.3,187.3c0,0.1,0.1,0.2,0.1,0.3c0,0.1-0.1,0.1-0.1,0.2C408.3,187.6,408.3,187.5,408.3,187.3z"/>
	<polygon points="435.5,218.5 435.8,218.5 435.5,218.6 	"/>
	<polygon points="433.3,217.8 433.5,217.8 433.5,217.9 	"/>
	<path d="M408.6,216.7c-0.2-0.1-0.3-0.2-0.5-0.4c-0.1-0.1,0-0.2,0-0.3c0.1,0,0.4,0.1,0.4,0.1C408.6,216.4,408.5,216.6,408.6,216.7
		L408.6,216.7z"/>
	<path d="M453.4,212.1c0,0-0.1,0.1-0.1,0.1c-0.1-0.1-0.1-0.1-0.2-0.2C453.3,212.1,453.4,212.1,453.4,212.1z"/>
	<path d="M278.6,110.2c0,0.1,0.1,0.2,0.1,0.3c0,0.1-0.1,0.2-0.2,0.3c0-0.1-0.1-0.2-0.1-0.3C278.4,110.4,278.5,110.3,278.6,110.2z"/>
	<path d="M361.8,63c0.5,0,0.7,0.3,0.7,0.7l0.1-0.1C362.1,63.6,361.9,63.4,361.8,63C361.9,62.9,361.8,63,361.8,63z"/>
	<path d="M375.2,163.7c0.2,0.1,0.4,0.1,0.5,0.2C375.3,164.4,375.4,163.8,375.2,163.7L375.2,163.7z"/>
	<path d="M396.5,91.2c0.3,0.3,0.6,0.6,0.8,0.8C396.8,92.1,396.6,91.8,396.5,91.2z"/>
	<path d="M352.6,88.5C352.9,88.2,352.5,88.5,352.6,88.5L352.6,88.5z"/>
	<path d="M400.2,198.2c-0.1,0-0.2,0-0.3,0C400,198.2,400.1,198.3,400.2,198.2L400.2,198.2z"/>
	<path d="M408.5,216.8c0.5,0,0.8,0.2,0.7,0.7l0.1-0.1C409.1,217.2,408.8,217,408.5,216.8L408.5,216.8z"/>
	<polygon points="373.7,270.3 373.5,270.3 373.5,270.2 	"/>
	<polygon points="413.5,225.3 413.7,225.4 413.6,225.2 	"/>
	<path d="M466,186.9c0.5-0.2,1-0.5,1.5-0.7c-0.2,1.6-1.2,2.7-2.1,4c-1.6,2.5-3.6,4.6-5.8,6.5c-0.6,0.5-1.2,1.1-2.2,1
		c0.6-0.7,1.2-1.4,1.9-2c2.2-1.9,4.1-4.2,5.8-6.5C465.6,188.5,466.1,187.9,466,186.9z"/>
	<path d="M465.5,156.7c0.1-0.2,0.2-0.5,0.4-0.5c1.8-0.1,3.9,0.5,6.1,1.7C470.6,158.5,469.5,158.3,465.5,156.7z"/>
	<path d="M467.4,150.8c1-0.9,2-1.8,3.1-2.7c0.4-0.3,1.1-0.5,1.6,0c0,0.2,0.1,0.5,0,0.6C470.7,149.7,469.2,150.7,467.4,150.8
		L467.4,150.8z"/>
	<path d="M465.5,128.9c0.3-0.3,0.5-0.5,0.6-0.5c1.3,0.4,2.3,1.3,2.8,2.6c-0.3,0.1-0.5,0.3-0.7,0.3
		C467.1,130.7,466.2,129.9,465.5,128.9z"/>
	<path d="M448.5,146.4c-0.1-1.5,0.3-2.4,1.1-3.2C450.5,144.4,450.5,144.4,448.5,146.4z"/>
	<path d="M466.8,144.5c-0.2,0.4-0.3,0.8-0.6,1.1c-1.1,1.1-1.1,1.1-2.9,1.6c-0.1-0.1-0.2-0.2-0.2-0.2c1-0.9,2.1-1.9,3.1-2.8
		C466.4,144.2,466.6,144.4,466.8,144.5z"/>
	<path d="M454.9,189.2c-0.2-0.7-0.4-1.4-0.5-2c0-0.2,0.4-0.5,0.6-0.7c0.1-0.1,0.4,0.1,0.6,0.3C456.3,187.7,456.1,188.1,454.9,189.2z
		"/>
	<path d="M475.7,158.3c1.5-0.9,1.5-0.8,3.2,0.7C477.6,158.9,476.7,158.6,475.7,158.3z"/>
	<path d="M488.2,167.6c-0.8,0.4-1.4,0.2-1.9-0.8C487.1,166.5,487.7,166.6,488.2,167.6z"/>
	<path d="M452.6,123.7c0.3-0.4,0.7-0.8,1-1.1c0.1-0.1,0.4,0,0.6,0.2c0.1,0.1,0.2,0.5,0.1,0.5c-0.4,0.3-0.8,0.6-1.2,0.9
		C453,124.1,452.8,123.9,452.6,123.7z"/>
	<path d="M454.9,174.7c1.1,1.2,0.8,1.9,0.1,3c-0.2-0.8-0.3-1.2-0.4-1.6C454.6,175.8,454.8,175.5,454.9,174.7z"/>
	<path d="M455.5,181.2c-0.4,0.3-0.6,0.5-0.8,0.6c-0.2-0.2-0.4-0.5-0.5-0.7c0-0.1,0.3-0.4,0.4-0.4C454.9,180.8,455.1,181,455.5,181.2
		z"/>
	<path d="M484.3,166.1c-0.4,0.2-0.7,0.4-0.9,0.3c-0.2,0-0.5-0.3-0.7-0.4c0.2-0.2,0.5-0.5,0.7-0.5
		C483.6,165.5,483.9,165.8,484.3,166.1z"/>
	<path d="M446.5,148.9c0-0.4-0.1-0.7-0.1-0.9c0-0.2,0.2-0.4,0.4-0.5c0.1,0,0.5,0.1,0.5,0.2c0,0.2-0.1,0.4-0.2,0.6
		C447,148.5,446.8,148.6,446.5,148.9z"/>
	<path d="M483.2,160.5c-0.2-0.1-0.4-0.1-0.6-0.2c0.1-0.2,0.1-0.3,0.2-0.5c0.2,0.1,0.4,0.2,0.5,0.3
		C483.3,160.2,483.2,160.4,483.2,160.5z"/>
	<path d="M442.4,152.8c0.1,0.8,0.2,1.1,0.2,1.4c0,0.1-0.1,0.2-0.2,0.3c-0.1-0.1-0.4-0.2-0.4-0.3
		C442.1,153.9,442.2,153.6,442.4,152.8z"/>
	<path d="M447.8,125.6c-0.1,0.2-0.2,0.4-0.3,0.5c-0.1,0.1-0.3-0.1-0.5-0.2c0.1-0.2,0.1-0.5,0.3-0.5
		C447.3,125.4,447.6,125.6,447.8,125.6z"/>
	<path d="M486.8,136.3c-0.1,0-0.2,0.1-0.3,0c0,0-0.1-0.1-0.1-0.2c0.1,0,0.2-0.1,0.3,0C486.7,136.2,486.7,136.3,486.8,136.3z"/>
	<path d="M490.1,138c-0.3-0.1-0.6-0.1-0.3-0.1C489.6,137.8,489.8,137.9,490.1,138L490.1,138z"/>
	<path d="M457.6,197.6c-0.2,0.8-0.9,0.8-1.6,0.8C456.2,197.4,456.9,197.5,457.6,197.6z"/>
	<path d="M456.2,198.2c-0.3,0.5-0.5,1-0.8,1.6C455.5,199.2,455.4,198.5,456.2,198.2z"/>
	<path d="M454.7,200.4c-0.3,0.5-0.5,1-0.8,1.6C454.2,201.4,454.5,200.9,454.7,200.4z"/>
	<path d="M455.5,199.7c-0.3,0.3-0.5,0.5-0.8,0.8C454.9,200.2,455.2,200,455.5,199.7z"/>
	<path d="M454,201.8c-0.3,0.3-0.5,0.5-0.8,0.8C453.5,202.4,453.8,202.1,454,201.8z"/>
	<path d="M453.3,202.5c-0.3,0.3-0.6,0.5-0.8,0.8C452.8,203.1,453.1,202.8,453.3,202.5z"/>
	<polygon points="490.1,138.1 490.3,138.2 490.1,138 	"/>
	<polygon points="467.4,150.7 467.3,150.9 467.4,150.8 	"/>
	<path d="M550.3,207.5c-3.1,0.4-5.5-0.4-7.8-1.1c-1.8-0.5-3.6-1-5.1-2.7c0.5-0.1,0.9-0.3,1-0.2c2.6,1.4,5.5,2.1,8.4,2.7
		C547.9,206.4,548.9,206.7,550.3,207.5z"/>
	<path d="M501.8,200.5c3.3-0.3,5.9-0.5,8.5-0.7c0.7,0,1.5,0,1.6,0.9C509.4,202,506,202,501.8,200.5z"/>
	<path d="M534.6,179.2c-0.6-0.1-1,0-1.2-0.2c-1.2-0.9-1.5-2.4-1.9-3.7c-0.3-1-0.7-2,0.1-3c0.2,0,0.5,0,0.7,0.1
		c1.5,1.3,1.5,3.4,2.3,5C534.7,177.9,534.6,178.5,534.6,179.2z"/>
	<path d="M564.1,190.5c-2.5-1.1-3.8-2.1-5.5-4C560.5,186.8,561.3,187.3,564.1,190.5z"/>
	<path d="M627.6,237.2c0.9,0.4,1.3,0.6,1.6,0.9c0.2,0.2,0.3,0.6,0.3,0.9c0,0.4-0.7,0.4-1.1,0c-0.2-0.1-0.3-0.3-0.5-0.5
		C627.9,238.2,627.9,238,627.6,237.2z"/>
	<path d="M539.7,182.4c-1.5,0.1-2.3-0.2-2.7-1.2C538.2,181.1,538.2,181.1,539.7,182.4z"/>
	<path d="M555.2,209.5c1.1-0.6,2-0.7,3,0.8C556.9,209.9,556,209.7,555.2,209.5z"/>
	<path d="M624.7,235.6c-0.2,0.1-0.3,0.2-0.4,0.3c-0.6,0-1.2,0.1-1.4-0.7c0-0.1,0-0.2,0.1-0.3c0.3-0.4,1-0.3,1.5,0.2
		C624.6,235.1,624.6,235.3,624.7,235.6z"/>
	<path d="M618.2,247.6c0.9-0.4,1.3-0.1,1.5,0.4c0,0.1-0.2,0.3-0.3,0.4C619,248.3,618.7,248,618.2,247.6z"/>
	<path d="M568,193c-0.1,0.3-0.2,0.5-0.3,0.7c-0.3-0.2-0.6-0.4-0.8-0.6c0,0,0.3-0.5,0.3-0.5C567.5,192.7,567.8,192.8,568,193z"/>
	<path d="M606.3,239.6c-0.2,0.4-0.3,0.7-0.3,0.7c-0.4-0.1-0.8-0.3-1.1-0.4c0.1-0.2,0.2-0.5,0.2-0.5
		C605.5,239.5,605.8,239.5,606.3,239.6z"/>
	<path d="M569.2,214.7c-0.2,0.1-0.3,0.3-0.3,0.3c-0.2-0.2-0.4-0.4-0.6-0.6c0,0,0.1-0.2,0.2-0.2C568.8,214.3,569,214.5,569.2,214.7z"
		/>
	<path d="M563.1,210.9c0.1,0.2,0.3,0.5,0.4,0.7c-0.2,0-0.4,0.1-0.6,0.1c-0.1-0.1-0.2-0.3-0.3-0.5C562.8,211.1,562.9,211,563.1,210.9
		z"/>
	<path d="M615,244.7c0,0.1-0.1,0.2-0.1,0.2c-0.1,0-0.2,0-0.3-0.1c0-0.1,0.1-0.2,0.1-0.2C614.8,244.6,614.9,244.7,615,244.7z"/>
	<path d="M572.3,216.9c-0.1,0.1-0.2,0.3-0.3,0.4c-0.1-0.2-0.3-0.3-0.3-0.5c0-0.2,0.2-0.3,0.3-0.5
		C572.2,216.5,572.3,216.7,572.3,216.9z"/>
	<path d="M499.7,200c0,0.1,0,0.2,0,0.2c-0.1,0-0.2,0-0.3,0c0-0.1,0-0.2,0.1-0.3C499.6,200,499.6,200,499.7,200z"/>
	<path d="M531.3,164.4c0.3-2.1,0.7-4.1,0.6-6.3c-0.1-2,0.1-4,0.1-6.3c1.2,2.4,1.4,6.1,0.8,11.3C532.4,163.5,531.8,163.9,531.3,164.4
		L531.3,164.4z"/>
	<path d="M518.4,145.2c-2.5-1-4.7-2.5-6.1-5.1c0.3-0.6,0.7-1.2,1-1.7c0.3,0.2,0.6,0.3,0.6,0.4c-0.1,0.8,0,1.6,0.7,2.2
		c1.1,0.9,2.1,1.8,3.1,2.8C518.1,144.1,518.1,144.7,518.4,145.2L518.4,145.2z"/>
	<path d="M407.5,96.4c2.1,1,3.8,2.4,5.3,4.2c-0.6,0.8-1.1,0.4-1.6,0.1c-1.5-1-3.3-1.8-4.1-3.6C407.1,97,407.3,96.7,407.5,96.4z"/>
	<path d="M527.7,162.2c-0.9-2.3-0.5-4.6-0.4-7c0-1,0.3-2.1,0.5-3.1c0.2-0.7,0.6-1.2,1.7-1.2c-0.4,1.1-0.9,2-1.1,2.9
		c-0.3,0.9-0.4,1.8-0.5,2.8c-0.1,1.1,0,2.1-0.1,3.2C527.7,160.7,527.6,161.5,527.7,162.2L527.7,162.2z"/>
	<path d="M373.9,62.7c-1.2-2.6-0.2-3.6,1.1-5C375.4,59.7,374.4,60.7,373.9,62.7z"/>
	<path d="M477.6,123.5c1.3-0.3,2.4-0.2,3.7,0.5C479.3,124.9,479.3,124.9,477.6,123.5z"/>
	<path d="M526.2,146.7c0.7,0.4,1,0.5,1.3,0.7c0.5,0.3,0.9,0.8,0.8,1.4c0,0.1-0.1,0.2-0.2,0.2c-0.9,0.3-1.2-0.4-1.6-0.9
		C526.3,147.9,526.4,147.5,526.2,146.7z"/>
	<path d="M521.7,141.3c-0.6-0.6-1.1-1.1-1.9-2c0.9-0.1,1.3-0.3,1.6-0.1C522.1,139.6,522.4,140.3,521.7,141.3z"/>
	<path d="M525,145.2c-0.7-0.7-1.2-1.2-1.8-1.7C524.8,143,525.1,143.3,525,145.2z"/>
	<path d="M452.2,101.2c-0.1-0.3-0.3-0.6-0.3-1c0-0.2,0.4-0.5,0.6-0.7c0.3,0.3,0.7,0.5,0.8,0.9C453.3,100.8,453,101.2,452.2,101.2z"
		/>
	<path d="M407.7,85.5c-0.3,0.3-0.5,0.7-0.8,1c-0.1,0.1-0.4,0.1-0.6,0c-0.1-0.1-0.2-0.5-0.2-0.6c0.2-0.4,0.5-0.7,0.9-1
		c0.1-0.1,0.3-0.1,0.3,0C407.4,85.1,407.5,85.3,407.7,85.5z"/>
	<path d="M499.2,128.5c-0.9-0.5-1.6-0.9-2.4-1.4C498.4,126.8,498.4,126.8,499.2,128.5z"/>
	<path d="M470.5,120.2c1.1-1,2-1,3.2-0.5c-0.3,0.3-0.5,0.7-0.7,0.7C472.3,120.4,471.5,120.3,470.5,120.2z"/>
	<path d="M414.8,101.8c0.6,0.6,1,1,1.7,1.7C414.9,103.1,414.9,103.1,414.8,101.8z"/>
	<path d="M527.1,139.2c0.3,0.4,0.7,0.8,1,1.2c0,0-0.2,0.4-0.3,0.4c-0.6,0.1-1.4-0.6-1.3-1.2C526.5,139.5,526.8,139.4,527.1,139.2z"
		/>
	<path d="M518,150.3c0.1,0.4,0.3,0.7,0.3,0.7c-0.3,0.3-0.6,0.5-0.9,0.8c-0.1-0.2-0.3-0.5-0.2-0.6C517.4,151,517.7,150.7,518,150.3z"
		/>
	<path d="M529.9,144.4c-0.2-0.3-0.4-0.5-0.5-0.7c0.2-0.2,0.4-0.3,0.7-0.5c0.1,0.3,0.3,0.5,0.4,0.8
		C530.5,144,530.2,144.2,529.9,144.4z"/>
	<path d="M468.7,118.1c-0.2,0.1-0.4,0.3-0.4,0.3c-0.2-0.2-0.3-0.4-0.5-0.6c0.2,0,0.4-0.2,0.6-0.1C468.5,117.7,468.6,118,468.7,118.1
		z"/>
	<path d="M462.9,116.4c0.1-0.1,0.2-0.2,0.3-0.2c0.4,0,0.8,0.1,1.2,0.2c0,0,0,0.2,0,0.2c-0.4,0-0.8,0.1-1.2,0.1
		C463.1,116.6,463,116.5,462.9,116.4z"/>
	<path d="M419.9,104.1c0.2,0.1,0.3,0.3,0.5,0.4c-0.2,0.1-0.4,0.3-0.7,0.4c-0.1,0-0.2-0.3-0.3-0.5
		C419.5,104.3,419.7,104.2,419.9,104.1z"/>
	<path d="M410.2,84.1c-0.1,0.2-0.3,0.3-0.4,0.5c-0.1-0.2-0.2-0.3-0.2-0.5c0-0.1,0.2-0.3,0.2-0.2C409.9,83.9,410.1,84,410.2,84.1z"/>
	<path d="M450.1,103.1c-0.1-0.1-0.2-0.1-0.2-0.2c0-0.2,0.1-0.3,0.2-0.5c0.1,0.2,0.2,0.3,0.2,0.5C450.3,103,450.2,103.1,450.1,103.1z
		"/>
	<path d="M424.3,105.6c0.1,0.1,0.3,0.2,0.4,0.4c-0.2,0.1-0.4,0.1-0.6,0.2c-0.1,0-0.2-0.1-0.3-0.2C424,105.8,424.2,105.7,424.3,105.6
		z"/>
	<polygon points="448.7,105.6 448.8,105.9 448.6,105.8 	"/>
	<path d="M518.3,145.3c0.1,0,0.2,0,0.3,0C518.6,145.3,518.5,145.2,518.3,145.3L518.3,145.3z"/>
	<path d="M546.1,144.5c0.7-0.3,1.5-0.2,2,0.3c3.1,4.1,5.6,8.4,5.9,13.7c0,0.5,0,1-0.1,1.4c-0.3,1.2-1.5,2.1-2.6,2
		c-1-0.1-2-0.9-2.2-2c-0.2-0.8-0.1-1.6-0.2-2.5c-0.2-2.1-0.3-4.3-0.8-6.3c-0.4-1.6-1.2-3-2-4.5C545.6,145.9,545.7,145.2,546.1,144.5
		L546.1,144.5z"/>
	<path d="M560.3,155.4c-0.1,0.4-0.1,1-0.3,1.5c-0.2,0.6-1,1.1-1.7,1c-0.7-0.1-1.1-0.6-1.1-1.2c0.2-3.8-1.2-7.2-2.7-10.5
		c-0.2-0.4-0.5-0.9-0.5-1.3c0-0.4,0.2-1,0.4-1.2c0.2-0.2,1,0,1.2,0.2C558.1,147.3,560.2,150.9,560.3,155.4z"/>
	<path d="M566.5,151.7c-0.1,0.4-0.1,0.8-0.3,1.1c-0.2,0.4-0.6,0.8-1,0.8c-0.4,0-0.9-0.3-1.1-0.6c-0.3-0.3-0.4-0.8-0.5-1.3
		c-0.9-2.4-1.8-4.8-2.6-7.3c-0.1-0.3-0.3-0.7-0.3-1c0.1-0.4,0.3-0.8,0.6-1.1c0.2-0.2,0.7-0.1,1,0c0.2,0,0.4,0.2,0.6,0.4
		C565.1,145.3,566,148.5,566.5,151.7z"/>
	<path d="M571.6,147.8c-0.1,0.4,0,0.7-0.2,0.9c-0.3,0.3-0.6,0.7-1,0.8c-0.2,0.1-0.6-0.2-0.9-0.3c-0.2-0.1-0.3-0.4-0.4-0.6
		c-0.6-2-1.2-4-1.8-6c-0.1-0.3,0-0.7,0.1-1c0.1-0.5,1-0.8,1.4-0.5c0.2,0.1,0.4,0.3,0.5,0.4C570.6,143.5,571.3,145.7,571.6,147.8z"/>
	<path d="M576.1,144.7c-0.1,0.3-0.1,0.7-0.3,1c-0.2,0.3-0.5,0.6-0.8,0.6c-0.3,0-0.8-0.1-0.9-0.4c-1-1.6-1.3-3.5-1.5-5.4
		c0-0.2,0.4-0.6,0.6-0.7c0.3-0.1,0.7,0.1,0.9,0.3C575.5,141.4,576,142.9,576.1,144.7z"/>
	<path d="M478.1,197.3c1.3,1.3,1.6,2.9,2.1,5.1C478.8,200.6,478.1,199.1,478.1,197.3z"/>
	<path d="M468.1,184.9c0-0.8,0-1.7,0.8-2.3C468.9,183.5,468.9,184.4,468.1,184.9z"/>
	<path d="M468.8,182.8c0.3-0.8,0.5-1.5,0.8-2.3C469.4,181.3,469.8,182.3,468.8,182.8z"/>
	<path d="M467.4,186.4c0-0.7,0-1.3,0.8-1.6C468.1,185.4,468.1,186.1,467.4,186.4z"/>
	<polygon points="469.3,206.2 469.2,206.2 469.2,205.9 	"/>
	<path d="M468.1,203.3c0.2,0.2,0.3,0.4,0.2,0.2C468.3,203.7,468.3,203.5,468.1,203.3L468.1,203.3z"/>
</g>
</svg>
