<?xml version="1.0" encoding="utf-8"?>
<!-- Generator: Adobe Illustrator 19.2.0, SVG Export Plug-In . SVG Version: 6.00 Build 0)  -->
<svg version="1.1" id="Layer_2" xmlns="http://www.w3.org/2000/svg" xmlns:xlink="http://www.w3.org/1999/xlink" x="0px" y="0px"
	 viewBox="0 0 900 600" style="enable-background:new 0 0 900 600;" xml:space="preserve">
<g>
	<path d="M266.3,359.5c-0.5-0.1-1-0.1-1.4-0.3c-0.7-0.4-1.2-1.2-1.9-1.6c-1.4-0.7-2.8-1.3-4.3-2.1c-0.7,1.9-0.7,3.7-0.9,5.4
		c-0.3,3.4-0.5,6.7-0.8,10.1c-0.1,1.1-0.1,2.2,0,3.2c0.9,7.8,1.9,15.5,2.9,23.2c0.1,0.6,0.2,1.2,0.3,1.8c1.7,6,2.5,12.2,3.7,18.4
		c0.2,0.8,0.3,1.7,0.3,2.5c0,6.2,1.3,12.1,3,18.1c0.2,0.6,0.3,1.2,0.3,1.6c0.5,0.8,1.2,0.4,1.8,0.5c0.5,0.1,0.9,0.1,1.5,0.2
		c-0.7,1.8-2.2,1.1-3.4,1.3c-0.3,2.7-0.7,5.5-0.9,8.2c-0.4,6.1-1.3,12.2-1.1,18.3c0.2,5.3-0.5,10.6-0.5,15.9
		c0,5.3-0.4,10.6-1.3,15.8c-1,6-2.7,11.7-5.9,17.1c0.1,1.4,1,2.5,1.6,3.8c2.1,0.9,4.1,1.7,6,2.7c2.4,1.1,4.8,0.8,6.9-0.4
		c1.8-1,3.5-2.7,3.1-5.2c-0.3-2,0.1-3.9,0.6-5.7c2.4-7.9,4.8-15.9,7.2-23.8c0.4-1.1,0.8-2.3,1.2-3.4c0.3-0.8,0.4-1.7,1-2.3
		c2-2.2,2.7-5,4.1-7.5c2.6-4.9,4.3-10.2,4.4-15.8c0-1.2,0.1-2.4,0.2-3.6c0-0.3,0.3-0.5,0.5-0.8c0.8,0.1,0.8,0.7,0.8,1.1
		c0.2,4.3,0.1,8.6-1.4,12.8c-2.1,6-4.1,12-7,17.7c-1.3,2.5-2.2,5.3-3.2,8c-1.5,4.2-2.9,8.4-4.5,12.9c0.3,0.7,0.4,1.8-0.1,3
		c-0.5,1.3-0.7,2.8-1.1,4.1c0.8,0.6,1.6,1.1,2.3,1.6c0.7,0.5,1.3,1.1,1.9,1.6c0.1,0.7,0.2,1.3,0.1,1.8c-0.2,4.9,0.9,9.5,2.2,14.2
		c0.2,0.7,0.5,1.4,0.6,2.1c0.1,1.2,0.2,2.4-0.8,3.4c-0.5,0.5-0.8,1.2-1.1,1.7c-4.2,2.1-8.6,3.2-13.2,3.6c-3.5,0.3-7,0.1-10.3-1.3
		c-2.1-0.9-4-0.6-5.9,0.3c-0.8,0.4-1.5,0.8-2.2,1.3c-3.3,2.3-6.9,3.9-11,3.6c-0.4,0-0.7,0-1.1,0.1c-4.1,0.8-8.1,0.1-12.2-0.2
		c-2.3-0.2-4.5-0.6-6.1-2.7c-0.3-0.5-1-0.7-1.5-1c-1.7-1.1-2.2-2.9-2-4.7c0.2-2.2,1.4-3.1,3-3.6c2.9-0.8,5.8-1.6,8.6-2.7
		c2.4-0.9,4.9-1.9,6.5-4.3c0.4-0.6,1.4-0.9,2-1.4c1.3-0.9,2.5-1.8,3.7-2.8c0.6-0.5,1.3-1.2,1.5-2c1-3.2,3.4-5.5,5.3-8.1
		c0.9-1.3,2.2-2.2,3.8-2.5c1.2-0.2,2.2,0,2.6,1.3c0.1,0.3,0.3,0.6,0.5,1c2.1-1.3,2.8-3.1,3.4-4.9c2.9-8.5,4-17.3,3.9-26.2
		c0-4.2,0-8.4,0.2-12.6c0.1-1.8,0.1-3.6-0.2-5.4c-0.7-4.2,0-8.4,0.8-12.5c0.7-3.3,1.4-6.6,1.5-10c0-1.5,0.5-3.1,0.8-5.1
		c-0.1-0.4-0.3-1.2-0.7-1.9c-2.5-5.1-3.4-10.5-3.4-16.1c0-1.3-0.2-2.6-0.4-3.9c-0.5-3.3-1.1-6.6-1.6-10c-0.3-1.9-0.8-3.7-1.5-5.5
		c-0.7-1.9-1-4-1.2-6c-0.7-6.2-1.4-12.4-2.1-18.6c-0.2-1.8-0.3-3.6-0.3-5.4c0-3.1,0.1-6.3,0.1-9.4c-0.1-2.8,0.3-5.5,1-8.2
		c0.9-3.6,1.9-7.2,2.7-10.8c0.8-3.3,1.3-6.6,1.1-10c-0.1-1.6,0.1-3.1,0.1-4.7c0.1-3.1,0.1-6.2-0.5-9.3c-0.3-1.7-0.3-3.6-0.2-5.4
		c0.1-1.5,0.1-2.9-0.2-4.3c-0.2-0.9-0.6-1.9-0.4-2.8c0.5-3.5-1-6.6-1.5-9.9c-0.5-3.3-1-6.7-1.3-10c-0.2-2.3-1.2-4.2-2.5-5.9
		c-3.3-4-5-8.7-5.6-13.8c-0.3-2.5-0.5-5-1-7.5c-0.4-1.7-1.3-3.4-2.2-4.9c-1.6-2.5-3.2-5.1-5.3-7.2c-0.9-0.9-1.7-2-2.5-3.1
		c-1.3-1.7-1.9-3.6-1.9-5.7c0-1.9-0.1-3.8-0.2-5.8c-0.1-3.8,1.2-7.1,3.6-9.9c3.6-4.2,7-8.5,11.3-12.1c2.1-1.7,4-3.8,5.8-5.9
		c0.9-1.1,1.4-2.5,2-3.8c0.2-0.3,0.2-0.7,0.3-1c0.6-2.7,1.2-5.4,1.8-8.1c-0.6-3.5-1.2-7.1-1.9-10.6c-0.7-3.3-1.7-6.5-2.5-9.8
		c-0.4-1.5-0.5-3.1-0.7-4.6c-0.1-1.2-0.1-2.4-0.2-3.6c0-0.5-0.2-1.1-0.5-1.3c-2.6-1.7-2.6-4.6-2.8-7.1c-0.1-1.5-0.4-2.8-0.8-4.2
		c-0.9-2.7-1.8-5.5-2.7-8.2c-0.4-1.1-0.7-2.3-0.8-3.5c-0.2-4.9-1.8-9.4-2.8-14.1c-0.8-3.9-1.4-7.8-1.3-11.8c0-1.4,0-2.9,0.7-4.2
		c0.3-0.6,0.3-1.4,0.3-2.1c-0.2-6.9,0.5-13.7,1.2-20.5c0-0.2-0.1-0.5-0.2-0.9c-1.1-0.3-2.2-0.5-3.3-0.9c-1-0.4-1.9-1-2.9-1.4
		c-1.5-0.6-2.3-1.7-2.7-3.2c-0.4-1.5-0.8-3-0.9-4.6c-0.4-3.9,0.1-7.7,1.3-11.4c0.9-2.8,1.7-5.7,3.2-8.3c1-1.7,1.9-3.9,1.1-6.3
		c-2.2-0.5-4.3-0.8-6.4-1c-3.1-0.3-6.2-0.8-9.3-1.3c-0.5-0.1-1-0.1-1.4-0.3c-2.1-0.9-4.2-1.6-6.6-1.2c-2.2,0.4-4.5,0.2-6.8,0.4
		c-5,0.4-10,1-15.1,1.2c-8.6,0.3-17.3,0.5-26,0.6c-2.8,0-5.5-0.2-8.3-0.3c-1.1,0-2.1,0.3-3.2,0.2c-3.9-0.2-7.6,1.2-11.4,0.9
		c-1.4-0.1-2.8,0.5-4.3,0.5c-7.3,0.4-14.7,0.7-22,1c-2.4,0.1-4.8-0.1-7.2-0.3c-0.8-0.1-1.6-0.4-2.3-0.9c4.4-0.3,8.9-0.7,13.3-1
		c4.4-0.3,8.8-0.5,13.4-0.7c-0.4-1-1.7-1.2-1.5-2.4l-0.1,0.1c2.6,0.9,2.7,0.9,5.4-0.1c-1-0.8-2-1.4-2.8-2.2
		c-0.9-0.9-1.8-1.9-2.6-2.8c-0.8,0.1-1.6,0.1-2.3,0.2c-0.7,0.1-1.6-0.2-2.5,0.5c1,0.9,1.7,1.6,2.5,2.4c0.4,0.4,0.7,0.9,1,1.4l0-0.1
		c-1.6-0.1-2.6-1.1-3.7-2.1c-1.7-1.6-3.6-2.2-5.9-2.1c-3.5,0.1-7,0-10.4-0.2c-0.9,0-1.9,0.1-2.6-1c0.4-0.1,0.7-0.3,1-0.4
		c0.8-0.1,1.7-0.2,2.5-0.2c6.1-0.5,12.2-0.4,18.3-1.3c4.6-0.7,9.3-0.6,14-0.6c9.7-0.1,19.4-0.5,29.2,0.1c7.5,0.4,15.1,0.9,22.6,1.3
		c3.6,0.2,7.2,0.3,10.8,0.6c2.7,0.2,5.4,0.7,8.1,1.1c0.1,0,0.1,0.2,0.2,0.3c0,0.9-0.8,1.1-1.4,1.2c-0.9,0.1-1.9,0.1-2.9,0.1
		c-1.1-0.1-2.1,0.4-2.9,1.1c-0.6-0.7-1.3-1.1-2.2-1.1c-1.4,0-2.9,0.1-4.3,0c-2.4-0.1-4.8-0.2-7.2-0.3c-0.8,0-1.6,0-2.7,0
		c0.3,1.1,0.6,1.9,0.8,2.6c-0.6-0.7-1.4-1.3-1.9-2c-0.9-1.1-1.9-1.2-3.3-0.5c0.5,1.2,0.9,2.4,1.3,3.5c1.4,0.4,2.6,0.5,3.7,0
		c0-0.4,0.1-0.7,0.1-1.1c0.8,0.8,1.6,1.4,2.8,1.3c5.5-0.3,11-0.6,16.5-0.9c0.6,0,1.2-0.2,1.9-0.3c0.4-1.8,2-2.4,3.7-3.5
		c4.6-0.1,9.5-0.1,14.4-0.2c3.2,0,6.4,0,9.5-1.3c2.3-1,2.8-0.7,5,1c0.6-0.3,1.1-0.8,1.7-1.1c2-1,2.4-0.9,4.3,1.2
		c2.1-1.4,4.2-1.8,6.5-0.4l0.1-0.1c-0.9-0.2-1.6-0.1-2.3,0.5c-0.7,0.5-1.4,1-1.5,1.9c-0.2,1.1-0.3,2.1-0.4,3.2
		c-0.1,0.9-0.1,1.8-0.2,3.4c-0.7-0.9-1.2-1.3-1.4-1.7c-0.4-0.9-0.5-1.8-0.9-2.7c-0.3-0.8-1.1-0.8-1.9-0.7c-0.7,0.1-1,0.7-1,1.3
		c0,1.3-0.1,2.6,0.4,3.8c2.4,0.6,4.7,1.2,7,1.8c0.1,0,0.1,0.2,0.3,0.5c-0.3,0.2-0.6,0.7-0.9,0.7c-1.3,0.1-2.6,0.1-3.9,0
		c-2.7-0.2-5.5-0.6-8.5-0.9c-0.4,1.3,0.5,2.7-0.6,4c-0.9,1-1,2.7-1.4,4.1c0.5,1,1.1,2.1,1.6,3.1c0.7,1.4,0.9,2.9,0.8,4.5
		c-0.2,2.1-0.1,4.3,0.1,6.5c0.2,2.7,0.5,5.5,0.7,8.3c0.6,0.5,1-0.1,1.4-0.5c1.2-1.2,1.2-2.8,1.2-4.4c-0.1-3.6,0.3-7.1,1.1-10.6
		c0.8-3.6,1.2-7.3,1.8-11c0.1-0.6,0.2-1.2,1.2-1.4c0.1,0.4,0.2,0.9,0.1,1.3c-1.4,7.3-1.8,14.7-2.6,22.1c-0.4,3.9-0.4,3.9-3,6.4
		c-0.2,0-0.4,0-0.6,0c-0.1,0-0.1,0.2-0.2,0.3c0.1,0,0.2,0,0.3,0c0.2-0.1,0.3-0.3,0.4-0.4c2.4-0.1,4.4-1.3,6.2-2.8
		c0.8-0.6,1.5-1.1,2.5-0.7l-0.1-0.1c1.3,4.6,2.5,9.3,3.8,13.9c0.3,1,0.8,2,1.3,3c2,4.3,2.8,8.9,3.4,13.6c0.1,0.9,0,1.9,0,3
		c1-0.4,1.9-0.6,2.8-1c5.9-2.3,12-3.3,18.4-2.8c3,0.2,6,0.7,8.3,3.1c0.6,0.6,1.4,0.8,2.4,1.4c0.3-0.8,0.7-1.4,0.8-2
		c0.4-3.5,1.2-6.8,2.7-10c0.5-1.1,0.7-2.3,0.9-3.5c1-5.9,2.5-11.8,4.5-17.4c1.5-4.2,1.9-8.6,2.9-12.8c-0.4-0.4-0.5-0.6-0.7-0.7
		c-3.4-1.1-5.6-3.7-7.5-6.4c-0.3-0.4-0.5-0.8-0.6-1.3c-0.7-2.7-1.6-5.2-2.1-8c-0.9-5.9-2.2-11.8-3.4-17.7c-0.1-0.6-0.1-1.1-0.2-1.6
		c-3.4-1.3-6.6-2.7-9.8-3.9c-0.9-0.3-1.4-0.8-1.4-1.8c-2.5-1.6-5.3-1.5-8-1.3c-5.3,0.3-10.6-0.3-15.9-0.5c-7.9-0.3-15.9-0.6-23.8-1
		c-5.4-0.2-10.8-0.1-16.2-0.7c-7.4-0.8-14.9-1-22.2-2.5c-1.9-0.4-3.8-0.4-5.7-0.5c-9.3-0.2-18.5-0.3-27.8-0.4
		c-6.9-0.1-13.7-0.3-20.6-0.3c-3.6,0-7.2,0.2-10.8,0.2c-3.3,0-6.6-0.7-9.8-1.3c0.6-0.1,1.2-0.2,1.7-0.1c7.5,0.2,14.9-0.6,22.3-0.9
		c4.4-0.2,8.9-0.1,13.3-0.1c3.8,0,7.7,0.2,11.5,0.3c0.5,0,1.1-0.1,1.6-0.1c-0.4-0.3-0.6-0.5-1.4-1c4.1-0.5,7.5,0.6,10.9,0.7
		c3.6,0.2,7.2,0.4,10.8,0.7c3.5,0.2,7,0.5,10.4,0.7c3.4,0.2,6.8,0.9,10.3,0.6c0-1.3-0.8-1.3-1.5-1.3c-3.6-0.3-7.2-0.5-10.8-0.8
		c-11.5-0.9-23-2-34.3-4.3c-2.8-0.6-5.6-1.4-8.4-2.1c-1.8-0.4-3.6-1.2-5.8-0.6c-0.1,1.1-0.2,2.3-0.3,3.8c-1.1-1.5-0.5-3-1-4.4
		c-0.7-0.6-1.6-0.7-2.6-0.1c0,1.4,0,2.8,0,4.2c-0.1,0-0.2,0-0.3,0.1c-0.4-1.4-0.9-2.9-1.3-4.3c-1.2-0.8-2.6-0.7-3.8-0.4
		c-1.5,0.4-2.8,0.1-4.3,0c-3.1-0.1-6.3-0.1-9.4,0.1c-5.5,0.3-11.1,0.1-16.6-0.6c-1-0.1-2-0.6-3-1.1c2.8-0.1,5.7-0.1,8.5-0.2
		c9.4-0.2,18.8-0.4,28.1-0.1c1.4,0.1,2.9,0.2,4.3,0.4c0.6,0.1,1.3,0.1,1.7,0.4c1.9,1.6,4.3,1.5,6.5,1.8c9.1,1.2,18.1,2.3,27.2,3.3
		c12.1,1.3,24.2,2.2,36.3,3c7.1,0.4,14.2,0.8,21.2,1.3c7.9,0.6,15.8,1.3,23.7,1.8c4.7,0.3,9.3,0.7,14,0.2c2.5-0.2,5,0.2,7.5,0.3
		c7.2,0.4,14.4,1.2,21.6,1.1c5-0.1,10.1,0.1,15.1,0.3c1.6,0.1,3.1,0.4,4.6,0.6c0.4,0.1,0.7,0.2,1.5,0.5c-1.2,0.5-1.4,0.7-1.7,0.7
		c-3.7,0-7.4,0.1-11.2-0.4c-4.8-0.6-9.6-0.8-14.4,0c-1,0.2-2.2,0.2-3.2,0.1c-4-0.2-7.9-0.5-11.9-0.7c-0.3,0-0.7,0.1-1.3,0.2
		c-0.1,1-0.2,2.1-0.4,3.1c0.4,0.3,0.6,0.5,0.9,0.7c2.1,1.1,4.3,1.5,6.5,1.7c2.1,0.3,4.2,0.8,6.4,1.1c4.4,0.5,8.8,1.1,13.3,1.4
		c5.4,0.4,10.7,1.4,16.1,2.5c0,0.6,0,1.1-0.1,1.6c0.7,0.2,1.5,0.3,2.4,0.5c0.6-0.3,1.1-0.6,1.6-0.8c2-0.6,2.5-2.1,2.4-3.9
		c-0.2-2.2-0.5-4.3-2-6c-0.3-0.3-0.5-0.8-0.7-1.1c0.4-1,1-0.9,1.5-0.6c0.5,0.3,0.9,0.8,1.3,1.2c0.9,1.2,1.3,2.8,2.8,3.6
		c0.4,0.2,0.6,1,0.7,1.6c1.7,7,3.6,14,5.1,21c0.8,3.9,0.9,7.9,1.2,11.8c0.2,1.7-0.7,3-2,4c-2.7,2.2-5.7,3.5-9.1,4.2
		c-1.6,0.4-3.3,0.8-4.9,1.1c-0.8,0.2-1.7,0.3-2.5,0.3c-1.2,0-2.4,0-3.7,0c-1,2-0.9,4-1.1,6c-0.7,6.4-1.7,12.9-1.7,19.4
		c0,0.4,0,0.7-0.1,1.1c-0.4,2.9-1.3,5.7-1.1,8.6c0.1,2.7,0.3,5.5,0.4,8.3c0.1,4,0.2,7.9-0.5,11.9c-0.2,1.1-0.3,2.1,0.2,3.2
		c1.3,2.8,1.1,5.7,0.4,8.5c-0.6,2.2-0.4,4.3,0.2,6.4c1.3,4.8,2.4,9.5,3.8,14.3c0.9,3.4,1.7,6.8,1.8,10.3c0,0.8,0.2,1.7,0.4,2.5
		c0.3,1.3,0.5,2.6,0.3,3.9c-0.1,0.9,0.1,1.9,0.3,2.8c0.3,1.6,1.6,2.8,1.4,4.7c-0.2,1.6,0.5,3.3,0.8,5c0.3,1.7,0.6,3.3,0.9,5
		c0.1,0.9,0.3,1.9,0.2,2.9c-0.5,4.3-1,8.6-1.5,12.9c-0.2,1.5-0.8,3-1.7,4.3c-0.9,1.3-1.6,2.7-2.2,4.1c-0.3,0.6-0.7,1.4-0.6,2
		c0.2,1.7-0.5,3.1-1,4.5c-1.7,4.7-3.7,9.4-5,14.3c-0.9,3.1-2,6.1-3.2,9.1c-2.2,5.7-3.9,11.7-5,17.7c-1.1,5.8-1.7,11.7-0.8,17.6
		c0.3,2.2,1,4.5,1.8,6.6c1.5,4.1,3.5,7.9,6.1,11.4c0.2,0.3,0.6,0.5,0.6,0.9c0.5,2.3,2.3,3.6,3.7,5.2c5.8,6.7,10.6,14,12.9,22.7
		c1.9,7.2,1.5,14.3-2.1,21c-1.7,3.1-2.8,6.4-3.9,9.7c-1.1,3.3-0.9,6.7-0.3,10c1.4,7.6,2,15.2,2.6,22.9c0.1,1.3,0.4,2.6,0.8,3.9
		c0.5,1.6,0.8,3.3,0.9,4.9c0.2,4.2,0.2,8.4,0.2,12.6c0,2-0.4,4.1-0.4,6.1c0,2.5,0.2,5,0.3,7.6c0,1,0.3,1.9,0.3,2.9
		c-0.1,2.7,0.8,5.2,1.8,7.7c1.3,3.5,3,6.8,5.1,9.9c2.4,3.6,4.1,7.6,5.6,11.7c0.8,2.3,1.8,4.4,2.9,6.6c2.8,5.2,4,10.8,3.9,16.7
		c0,3.6-0.2,7.2-0.9,10.8c-0.4,2.1-0.6,4.3-0.9,6.4c-0.5,4.1-1.1,8.1-1.6,12.2c-0.6,5.1-1.3,10.3-1.9,15.4c-0.1,1.1-0.3,2.1-0.5,3.2
		c-0.7,4.7-1.7,9.5-1.7,14.3c0,1.8,0.1,3.6,0.9,5.4c0.3,0,0.6,0.1,0.9,0.1c2.4-0.1,3.4,0.6,3.9,2.7c0.2,0.8,0.2,1.7,0.2,2.5
		c0,2.2,0.5,4.3,1.4,6.3c1.2,2.9,2.4,5.8,3.6,8.6c1,2.3,1.4,4.9,3.9,6.3c-0.5,0.9-0.8,1.6-1.3,2.1c-1.1,1.2-2.4,1.9-3.9,2.4
		c-4,1.3-7.9,2.9-12.1,3.1c-1.5,0.1-3.1,0.2-4.6,0.2c-1.7,1.6-3.3,3.1-4.9,4.7c-0.6,0.6-1.1,1.3-1.5,2c-1.1,1.6-2.5,2.5-4.3,3
		c-1.9,0.5-3.6,1.3-5.5,1.7c-1.6,0.4-3.3,0.8-4.9,0.9c-2.3,0.2-4.6,0.2-6.8,0.2c-6.3,0-12.4-1.4-18.1-4.1c-1.2-1.9-0.9-4-0.9-6
		c0-0.6,0.7-1.2,1.2-1.7c3.5-3.2,7-6.3,10.4-9.4c1-1,2-2,2.7-3.3c0.9-1.5,2.4-2.7,3.8-3.7c1.9-1.4,3.7-3,5.4-4.7
		c1.1-1,1.9-2.2,2.3-3.6c0.6-2,1.3-3.9,1.9-5.8c0.8-2.9,2.1-5.4,5.2-6.5c0.1-0.9,0.2-1.7,0.3-2.6c0.6-7.3,0.4-14.7-0.2-22
		c-0.2-3.1-0.6-6.3-1.4-9.3c-1.6-5.9-1.8-11.9-2.6-17.8c-0.6-4.9-0.6-9.9-2.1-14.6c-0.1-0.2-0.1-0.5-0.1-0.7
		c-0.2-4.6-1.8-8.9-2.7-13.4c-0.6-2.8-1.2-5.6-3-7.9c-1-1.3-1.6-3-2.2-4.5c-1-2.4-2.1-4.8-3.7-7c-2.2-3-3.1-6.5-4.2-9.9
		c-0.6-1.8-0.7-3.8-1.2-5.6c-0.2-0.8-0.5-1.6-0.8-2.4c-0.6-1.2-1.2-2.4-1.9-3.5c-1-1.7-1.6-3.4-2.2-5.3c-1-3.4-2.3-6.8-3.7-10.8
		c-0.4,1.1-0.8,1.7-0.9,2.3c-0.4,3.1-0.7,6.2-1.1,9.5c2.2,4.2,2.1,10.7-0.4,15.4c0.4,0.3,0.9,0.6,1.5,1.1c0.7,4.6,1.4,9.4,2,14.1
		c0.1,0.4-0.1,0.9-0.3,2c-1.6-5.2-2.6-9.7-3.5-14.5c-0.5,0.4-0.9,0.7-1.2,1c-0.3,0.3-0.7,0.5-1.1,0.8c-0.1-0.3-0.2-0.4-0.2-0.5
		c1.5-3.2,2-6.6,1.7-10.2c-0.1-1,0.2-1.9,0.2-2.9c0-1.3,0-2.7-0.4-3.9c-0.4-1.6-0.5-3.1-0.3-4.6c0.4-3,0.8-6,1.3-8.9
		c0.2-1.5,0.7-3,1-4.7c-1.2-5.4-2.5-11.1-3.5-16.7c-1-5.9-2.3-11.8-2-17.9c0-0.6-0.1-1.2-0.3-1.8c-0.4-1.5-0.8-3-1.3-4.7
		c-2.8,1.1-5.4,0.3-7.8-0.6c-3.1-1.2-6.4-2-9.2-3.9l-0.1,0.1c1,0,2,0,3,0l-0.1-0.1c3.6,1.7,7.4,2.7,11.3,3.3
		c0.4,0.1,0.9-0.2,1.4-0.4c-0.9-2.5-1.7-4.9-2.5-7.2l-0.1,0.1c0.3,0.2,0.7,0.3,0.9,0.5c1.2,1.6,2.8,2.8,4.5,3.8
		c3.6-1.7,7.4-2.4,11.1-3.2c3.6-0.8,7.3-1.2,11.1-1c4,0.2,7.9,0.9,11.4,2.9c0.6,0.3,1.4,0.6,1.3,1.5l0.1-0.1
		c-3.8-1.6-7.8-2.2-12-2.3c-6.9-0.2-13.6,1.2-20.2,3c-0.9,0.2-1.7,0.8-2.7,1.2c0.1,0.7,0.2,1.3,0.4,1.8c1.9,6.8,3.2,13.8,3.8,20.9
		c0.1,1.6,0.3,3.1,0.7,4.6c1.6,6.7,3.1,13.4,4.9,19.9c1.8,6.6,3.5,13.2,7,19.2c1.6,2.7,3.1,5.7,2.7,9.2c-0.1,0.4,0.3,0.9,0.4,1.4
		c0.6,2,1.5,3.8,2.7,5.5c1.7,2.5,3.1,5.1,4.2,7.9c0.8,2.1,0.9,4.5,2.8,6.1c0.3,0.3,0.4,0.9,0.5,1.3c0.3,0.8,0.6,1.6,0.8,2.4
		c1.9,6,3.7,11.9,3.5,18.3c0,1.8,0.4,3.6,0.7,5.3c0.6,3.8,1.3,7.6,2,11.4c1.4,8.7,2.8,17.3,4.1,26c0.4,2.7,0.7,5.5,0.7,8.3
		c0,5.3,0.1,10.6-1.6,15.7c0.5,0.4,0.9,0.7,1.3,0.9c1.2,0.5,2.4,1.1,2.9,2.5c0.1,0.3,0.4,0.6,0.7,0.8c2.7,2.1,5,4.5,7,7.2
		c0.3,0.5,0.9,0.9,1.4,1c1.8,0.3,3.5,0.7,5.5,0.2c0.4-0.7,0.8-1.4,1.2-2.1l-0.1,0.1c0.5-0.1,0.6-1,1.4-0.7c0.2,1.8-0.6,3.2-1.9,4.7
		c-2.1,0.2-4.3,0.3-6.6,0.5c-1.7-0.9-3.6-1.8-4.1-4c0-0.2-0.3-0.4-0.5-0.5c-1.9-2.2-4-4.2-6.4-5.7c-0.9-0.6-1.9-1-2.4-2.1
		c-0.4-0.9-1.3-1-2.3-0.8c-0.8,1.1-1.5,2.3-1.7,4c3.1,0.1,5.3,2,7.6,3.7c1.4,1,2.1,2.5,2,4.7c-0.8-0.7-1.1-1.1-1.6-1.4
		c-0.6-0.4-1.3-0.6-1.9-1c-2.1-1.2-4.2-2.4-6.2-3.5c-0.2-0.1-0.4-0.1-0.7-0.1c-0.1,0.6-0.2,1.1-0.3,1.8c1.3,0.6,2.5,1.1,3.7,1.7
		c1.7,0.8,3.1,1.9,4,3.4c0.3,0.5,0.3,1.1,0.4,1.7l0.1-0.1c-3.1-1.2-6.2-2.4-9.3-3.6c-0.3,0.5-0.4,0.8-0.6,1.3c0.7,0.3,1.3,0.7,2,0.8
		c1.6,0.4,2.8,1.4,3.8,2.6c0.3,0.4,0.7,0.8,0,1.3c-2.2-0.7-4.4-1.4-6.8-2.1c-0.3,0.5-0.5,0.9-0.7,1.3c1.4,1,2.6,1.9,3.8,2.9
		c0.6,0.5,0.8,1.2,0.2,1.9c-2.5-1.1-5.1-2.1-7.8-3.3c-2.4,1.6-4.8,3.3-6.6,5.8c-3.1,4.2-6.9,7.7-10.9,11c-0.7,0.6-1.7,1.1-1.5,2.2
		c0.2,1,1.3,0.9,2,1.2c1.8,0.6,3.6,1.4,4.1,3.6c-2.1-1.1-4.1-2.1-6.6-1.7c2.1,1.1,4.1,2.4,6.6,2.3c1.3,1,2.8,1.4,4.3,1.4
		c4.2,0.1,8.4,0,12.6,0c0.5,0,1-0.1,1.4-0.2c2.9-0.8,5.8-1.7,8.6-2.5c1.6-0.4,2.8-1.3,3.7-2.6c0.7-0.9,1.6-1.7,2.5-2.6
		c1-1,2-2.1,3-3.1c0.5-0.5,1-1,1.4-1.4c3.7,0.1,7.1,0.2,10.5-1.1c3.2-1.2,6.8-1.5,9.7-4c-0.5-0.9-1.1-1.7-1.4-2.6
		c-1.3-4.3-3.4-8.2-5.2-12.2c-0.8-1.8-1.4-3.5-1.4-5.5c0-1.5-0.6-3.1-0.9-4.6c-0.1-0.3-0.4-0.7-0.7-0.7c-0.4-0.1-0.9,0.1-1.5,0.2
		c0.3,1.3,0.6,2.5,0.8,3.6c0.1,0.6,0,1.2-0.9,1.4c-1-1.1-1.5-2.4-1.8-3.8c-1.1-5-1.7-9.9-0.9-15c0.6-3.7,1.3-7.3,1.7-11
		c0.6-5.9,1.1-11.7,1.6-17.6c0.1-0.8,0.1-1.7,0.4-2.5c1-2.5,1-5.2,1.2-7.8c0.6-6.7,1-13.4,1.2-20.1c0.1-4.2-0.7-8.1-2.5-11.9
		c-2.8-6.2-5.1-12.7-9-18.4c-0.6-0.9-1.1-1.9-1.6-2.8c-1.7-3.2-2.9-6.6-3.9-10c-0.7-2.5-1.1-5.2-1.8-7.7c-0.5-2-0.8-4-0.8-6
		c0-4.1-0.1-8.2,0.7-12.2c0.4-1.9,0.1-3.8-0.3-5.7c-0.6-2.7-1.1-5.4-1.3-8.2c-0.5-5.4-0.8-10.8-1.2-16.2c-0.1-0.8-0.2-1.7-0.3-2.5
		c-0.2-1.3-0.5-2.6-0.6-3.9c-0.1-2-0.1-4.1-0.1-6.1c0-1.1,0.1-2.2-1-3c0,0,0-0.2,0,0c0.4-0.8,0.9-1.4,0.8-1.9
		c-0.4-2.4,0.5-4.5,1.3-6.6c0.6-1.6,1.3-3.1,1.9-4.7c1.5-3.7,2.6-7.5,2.9-11.5c0-0.6,0.1-1.4,0.5-1.7c1.4-1.2,1-2.6,0.9-4
		c-0.1-1.3-0.4-2.6-0.7-3.9c-1.6-6.3-4.3-11.9-8.9-16.6c-2.4-2.4-4.7-4.8-6.5-7.7c-0.7-1.1-1.4-2.2-2.2-3c-1.6,0.8-3,1.6-4.4,2.3
		c-1.6,0.7-3.3,1.3-5,2c-3.9,1.7-7.7,3.4-11.6,5c-1.9,0.8-3.9,1.3-5.9,1.7c-5.1,1-10.2,1.8-15.3,2.6c-0.8,0.1-1.7,0.2-2.5,0.1
		c-2.7-0.4-7.2-0.1-10.3,0.8c0.9,4.9,0.9,9.8,0.5,14.7c-0.2,2,0.4,4.1-1.1,5.8c-0.3,0.3-0.2,0.9-0.2,1.4c-0.3,4.1-1,8.1-2,12.1
		c-0.3,1.3-0.7,2.6-0.3,4.1c2.2,1.1,4.5,2.1,6.7,3.3c0.7,0.4,1.7,0.5,1.9,1.4C267.2,359.1,266.7,359.4,266.3,359.5L266.3,359.5z
		 M264,118.4c0.6,0.1,1.1,0,1.5-0.6c0.2-0.3,0.5-0.6,0.7-0.8c0.5-0.2,1-0.4,1.5-0.6c0.1-0.1,0.2-0.1,0.2-0.2c0,0,0-0.1,0-0.2
		c0,0.2-0.1,0.3-0.1,0.5c-0.5,0.2-1,0.4-1.5,0.6c-0.4,0.1-0.8,0.3-0.7,0.8C265,117.7,264.5,117.9,264,118.4
		c-0.2,0.3-0.4,0.6-0.7,0.8c-0.6,0.5-1.3,1-1.3,1.9c0.7,0.4,1,0,1.1-0.5c0.1-0.5,0.1-1,0.1-1.4C263.8,119.2,264.1,118.9,264,118.4z
		 M275,117.9c-0.2,0.1-0.4,0.2-0.7,0.3c0.2-0.1,0.4-0.3,0.6-0.4c0.2,0,0.4-0.1,0.6-0.2c0.1,0,0.2-0.2,0.3-0.3
		c-0.1,0-0.2-0.1-0.3-0.1c-0.2-0.1-0.4-0.1-0.6-0.1c0.4-0.2,0.7-0.6,1.1-0.7c2.3-0.3,4.6-0.1,6.9-0.1c-0.6,1-1.6,0.8-2.5,0.8
		c-1.3,0-2.6,0.1-3.3,1.4l0.1-0.1c-0.5,0.2-1.3,0-1,1c0.2,0.5-1.1,0.5-0.4,1.2c1.8-0.4,3.5-0.8,5.2-1.1c0.1,0.4,0.2,0.6,0.3,0.9
		c1-0.3,2-0.6,3.1-0.9c1.1-0.4,2.3-0.7,3.4-1.1c1-0.3,2-0.7,3.1-1c1.1-0.3,2.3-0.6,3.5-0.9c1-0.2,2-0.2,3-0.3
		c-0.6-1.3-1.4-1.6-2.5-1.5c-1.1,0.1-2.1,0.3-3.2,0.4c-3,0.4-5.9,0.8-8.9,1.2c0.4-0.3,0.7-0.6,1.1-0.7c3-0.9,6.1-1.8,9.3-2.7
		c-0.3-0.4-0.5-0.7-0.7-0.9c-0.9-0.5-1.9-1-2.8-1.5c-0.7,0.6-1.3,1.2-1.9,1.7c0.4,0.3,0.7,0.5,1.1,0.8c-3,0.3-5.9,0.6-8.7,0.9
		c-0.9,0.1-2,0.2-2.7,0.6c-0.7,0.5-1.5,0.6-2.3,0.9c-2.4,0.9-5,1.5-6.7,3.7c-0.9-0.2-1.8,0.2-2.3,0.8c-1.2,1.3-2.7,1.9-4,2.8
		c-1.2-0.5-2.3-0.7-3.6-0.6c-2,0.2-2.6,0.3-3.2,1.9c-0.3,0.8-0.5,1.6-0.7,2.4c-0.7,2.7-1.3,5.3-2.1,8c-0.3,1.2-0.3,2.2,0.9,2.8
		c2.2,1.1,2.2,3,1.8,4.9c-0.4,2.1-1.1,4.2-2.1,6.1c-0.4,0.7-0.9,1.4-1.2,2.2c-0.5,1,0.2,2,1.3,2c0.7,0,1.4-0.3,2-0.4
		c0.8,0,1.6,0.2,1.8,1.3c-0.5,0.2-0.9,0.3-1.4,0.5c-0.3,1.3-0.6,2.7-0.9,4c1.9,1.3,1.9,1.4,2.9,1.3c0.8-0.1,1.7-0.3,2.5-0.4
		c0.6-0.1,0.9,0.3,0.8,0.9c-1,0.8-2.2,0.7-3.5,0.6c-1.1,0-1.7,0.6-2.2,1.8c0.5,0.7,1.1,1.4,1.7,2.2c-0.1,0.4-0.2,0.9-0.4,1.3
		c-0.1,0.5-0.3,0.9-0.4,1.4c-0.1,1.2,0.6,2.7,1.7,2.9c2.2,0.3,4.4,1.1,6.7,0.3c1.5-0.5,3.1-0.6,4.6-0.6c1.7,0,2.7,0.8,3.1,2.5
		c0.2,0.9,0.3,1.9,0.4,2.8c0.2,4-0.8,7.9-1.8,11.7c-0.1,0.3-0.5,0.5-1,0.9c0-1,0-1.7,0-2.4c0.2-3.6,0.5-7.2,0.7-10.8
		c0.1-1.2,0.2-2.4-0.7-3.5c-1.4,0.3-2.8,0.4-4.1,0.8c-1.5,0.5-3,0.7-4.6,0.5c-1.4-0.1-2.7-0.8-4.4-0.5c-0.2,2.2,0.5,4.1,1.2,6
		c1,3.2,2,6.4,3,9.6c0.3,0.9,0.3,1.9,0.3,2.9c0,1.1,0,2.1-1,3c-0.8,0.7-0.9,1.6-0.4,2.6c0.6,0.2,1.3,0.4,1.9,0.7
		c-0.1,0.4-0.1,0.7-0.2,0.8c-0.6,0.7-1.2,1.5-1.9,2.2c-0.8,0.8,0,1.9-0.6,2.7c-0.5,0.7-0.8,1.5-1.2,2.2c-1,1.9-1.8,3.9-2.2,6
		c0.5,0.3,0.8,0.6,1.1,0.6c3.5-0.1,7,0.2,10.3-1.1c2.5-0.9,4.9-1.9,7.4-2.7c3.7-1.3,6.3-3.8,8.1-7.3c0.5-1,1-1.9,1.7-2.7
		c2.8-3.2,5.8-6.4,8.7-9.6l-0.1,0.1c2.7-2.2,5.2-4.6,8.1-6.3c0.5-1.3,0.3-2.4-0.3-3.6c-2.5-4.3-3.4-8.9-3.5-13.8
		c0-1.3-0.1-2.6-0.1-3.7c-0.9-1.3-3.2-1-2.7-3.2c0.7-0.1,1.4-0.2,2.1-0.4c0.7-0.2,1.3-0.5,2-0.7c-0.1,0.9-0.1,1.5,1,1
		c0.1-1.3,0.5-2.8-0.9-3.8c0-1.4,0-1.4-1.4-1.5c0.2-0.3,0.3-0.6,0.5-0.8c0.5-0.6,0.9-1.1-0.4-1.4c-0.3,0.8-0.5,1.5-0.8,2.2
		c-0.7,0.4-1.3,0.9-1.2,1.9c1.1-0.2,2.2-0.4,3.3-0.5c0,0.7-0.4,1.1-1,1.3c-1.1,0.4-2.3,0.8-3.3,1.1c-0.7,1.1-1.4,2-2.1,3
		c-1.1-0.2-2.1-0.3-3-0.5c-0.9-0.2-1-1-0.6-2.3c0.6,0.3,1.2,0.7,1.9,1.1c0.7-0.6,1.5-1,1.9-1.7c1.6-2.8,3.6-5.3,4.8-8.4
		c0.1-0.1-0.2-0.4-0.4-0.7c-0.5,0.2-1,0.4-1.6,0.6c0,1.7-0.3,3.2-1.7,4.3c-0.7,0.5-1.1,0.4-1.9-0.6c0.7-1.6,2.1-3,1.6-5.2
		c-0.6-0.6-1.3-1.3-2-2c-1.7,1.5,0.2,2.2,0.3,3.4c-0.4,1.3-0.9,2.7-1.3,4.2c-1.4-0.3-2-1-2.3-2.3c0.7-0.6,1.4-1.3,2.1-1.9
		c-0.2-0.6-0.6-1.2-0.6-1.7c0-0.8,0-1.8,0.5-2.4c1-1.3,2.1-2.6,3.7-3.1c1.9,0.8,2,2.9,3.4,4.2c-0.2-2.1-0.8-3.7-2.3-4.9
		c-1.5-1.2-2.8-1.2-4,0.3c-0.4,0.5-0.6,1.1-1,1.5c-0.8,0.8-1.5,1.6-2.5,2.1c-0.7,0.3-1.6,0.3-2.4,0.2c-0.6-0.1-1.3-0.4-1.4-1.4
		c0.6,0,1.2,0.1,1.8,0.1c0.5,0,0.9-0.2,1.7-0.3c-1.3-0.4-2.3-0.6-3-1c-2.7-1.7-5.4-3.5-8-5.3c0.3-1.3-0.2-2.5-0.9-3
		c-1.4-0.9-1.4-2.1-1.4-3.4c1.7,0.3,3.4,1.3,5.5,0.5c-1.5-0.6-2.7-1.2-3.9-1.6c-0.7-0.3-1.1,0.1-1.6,1.3c-1.5-2.1-1.5-2.1-1-4.9
		c1.9-0.1,3.7-0.5,6.2-1.5c-2,0-3.3,0.3-4.3-0.1c-2.4-1-4.6-0.6-6.9,0.5c-0.5-0.4-0.9-0.7-1.4-1.1c0.8-0.9,1.5-1.7,2.2-2.5
		c0.8-0.2,1.6-0.4,2.3-0.7c1.4-0.6,2.7-1.4,4.3-1.5C275,117.3,275,117.6,275,117.9z M269.1,111.9c0.2,0,0.5,0,0.7,0
		c0.1,0,0.1-0.3,0.2-0.4c-0.1,0-0.3,0-0.3,0C269.5,111.7,269.4,111.9,269.1,111.9c-0.5,0.1-1.2,0-1.4,0.8c-0.9,0-1.8-0.2-1.7,1.2
		c0.8-0.1,1.6-0.2,1.6-1.3C268.3,112.8,269,112.9,269.1,111.9z M272.8,111.3c-0.2-0.1-0.4-0.1-0.6-0.2
		C272.4,111.1,272.7,111.2,272.8,111.3c0.4,0.7,0.9,0.8,1.7,0.2C273.9,111.4,273.4,111.3,272.8,111.3z M294.3,143.9
		c0.1,0.4,0.2,0.8,0.6,0.2c0,0-0.3-0.3-0.4-0.4c-0.1-1-0.3-1.9-1.6-1.9c-0.1,0-0.2,0.1-0.2,0.2C292.6,143.2,293.4,143.6,294.3,143.9
		z M295.9,125c-2.1-0.2-3.6,1.1-5.1,2.2c-1.2,0.4-2.4,0.9-3.6,1.2c-1.4,0.3-2.7,0.6-4.1,1.4c1.2,1,2.6,1,3.8,1c1.1,0.1,2.1,0,3.2,0
		l-0.1-0.1c-0.2,0.2-0.4,0.6-0.7,0.7c-1.4,0.6-2.8,1.2-4.6,2c-0.7-0.1-1.7-0.3-2.8-0.3c-0.9,0-1.9-0.6-3.1,0.4
		c1.7,0.4,3.2,0.7,4.7,1c0.9,0.2,2,0.1,2.8,0.5c1.4,0.8,2.8,0.5,4.2,0.1c1.3-0.4,2.5-0.7,3.8-1.2c1.9-0.7,2-0.9,2-3.7
		c-1.1,0.4-2.2,0.9-3.3,1.3l0.1,0.1c0.1-0.7,0.2-1.3,0.3-2.1c1.1-0.3,2.3-0.7,3.5-1c0.5-0.7,0.6-1.3,0-2c-1.3,0.2-2.7,0.5-4,0.7
		c0.1-0.7,0.8-0.8,1.3-1.1C294.7,125.8,295.3,125.4,295.9,125c0.3-0.1,0.7-0.2,1.2-0.3C296.3,124.1,296,124.3,295.9,125z
		 M279.3,110.6c2.4-0.1,4.7-0.1,7.1-0.2c-2.1-0.5-4.2-0.6-6.2-0.4C279.9,110.1,279.6,110.5,279.3,110.6c-0.9,0.1-1.9,0.2-2.9,0.2
		C277.4,111.2,278.4,111.4,279.3,110.6z M227.3,43.4c0-0.1,0-0.2-0.1-0.3c-0.3-1.1-0.7-1.5-1.2-1.2c-0.7,0.4-0.5,1-0.1,1.5
		c0.1,0.2,0.4,0.2,0.6,0.3c0.3-0.1,0.7-0.3,1-0.4c1,1.1,2.4,1.2,3.8,1.4c5.1,0.7,10.2,1.4,15.2,2.1c0.7,0.1,1.4,0,2-0.1
		c-0.2-1.6-0.3-3-0.5-4.4c-0.5-0.1-0.9-0.2-1.2-0.2c-5.1-0.1-10.3-0.1-15.4-0.2c-1.4,0-2.5,0.2-3.4,1.4
		C227.9,43.5,227.5,43.4,227.3,43.4z M296.6,122.7l0.1,0.3L296.6,122.7c0.8-1.1,0.6-2.4,0.4-3.7c-0.9-0.8-2-0.7-3.1-0.4
		c-2.9,0.7-5.8,1.4-8.7,2.3c-1.7,0.5-3.4,1.3-5,1.9c-0.1,0-0.2,0.3-0.2,0.4c0.9,0.6,0.9,0.6,1.1,1.7c-1,0.1-1.9,0.2-2.8,0.2
		c-0.8,0-1.7-0.1-2.5-0.2c-0.9-0.1-1.7-0.4-2.6-0.6c-0.2,1.3,0.3,2.1,1.3,1.9c2.1-0.6,4,0.1,6,0.5c3.2,0.6,6.4,0.7,9.5-0.9
		C292,124.8,294.3,123.8,296.6,122.7z M290.9,26.8c-0.5-0.2-0.9-0.7-1.8-0.1C289.9,26.7,290.4,26.7,290.9,26.8
		c0.2,0.2,0.3,0.6,0.6,0.7c1.1,0.5,2.2,1,3.2,1.4c0.8-0.3,1.4-1,2.1-0.3c0.3,0.4,0.5,1.2,0.3,1.6c-0.5,1.5-0.5,3.1-0.3,4.6
		c0.8,5.7,1.9,11.3,3.1,17c1,0.5,1.9,1,2.9,1.5c0.1-0.4,0.3-0.6,0.3-0.8c-1.4-5.4-0.6-11-1.2-16.4c0.5-2.5-0.1-5-0.1-7.7
		C297.9,27.9,294.5,27,290.9,26.8z M278.4,517.8c0-0.3,0-0.7,0-1c0-0.1-0.3-0.2-0.5-0.3c-0.1,0.3-0.3,0.6-0.2,0.8
		C277.9,517.4,278.2,517.5,278.4,517.8c-0.1,1.8-1.6,3-2.5,4.6c-1,1.7-2.5,2.5-4.3,3c-4.9,1.4-9.2-0.2-13.3-2.7
		c-0.4-0.2-0.7-0.7-0.9-1.1c-0.4-0.6-0.6-1.3-1-1.9c-1.2-1.9-2.2-3.9-3.8-5.6c-2,1.2-3.3,2.7-4.1,4.7c0.5,0.7,1,1.4,1.5,2
		c0.6,0.8,1.2,1.5,1.6,2.4c0.3,0.7,1.1,1.3,0.7,2.4c-1-0.7-2-1.3-2.9-1.9c-1-0.6-1.8-1.6-2.8-1.9c-0.7,0.5-0.8,0.9-0.4,1.3
		c0.9,1,1.9,1.9,2.7,2.9c0.3,0.4,1,0.9,0.2,1.6c-0.8-0.3-1.7-0.6-2.6-1c-0.8-0.4-1.6-0.9-2.5-1.5c-0.6,1.9,1.9,2.7,0.9,4.5
		c-1-0.5-2.1-0.9-3.1-1.4c-1.3,0.5-1.6,1.4-1.1,2.6c0,0.1-0.2,0.4-0.3,0.7c-0.6-0.3-1.3-0.6-2-0.9c-0.7,0.3-1.4,0.7-2.1,0.9
		c-0.3,1-0.6,1.9-0.8,2.6c-1.2,0.2-2.1,0.3-3,0.6c-1.6,0.5-3.1,1.2-4.7,1.8c-2.3,0.9-4.7,1.7-6.9,2.5c-0.6,1.3-1.1,2.4-0.7,3.8
		c0.6,0.4,1.3,0.8,2,1.2c0.8,0.5,1.9,0.8,2.4,1.5c0.8,1.1,2,1.3,3.1,1.5c4.2,0.6,8.4,0.7,12.6,0.2c2.9-0.4,6-0.9,8.5-2.8
		c2.6-2.1,5.7-3,9-2.8c1.3,0.1,2.6,0,4,0.1c0.7,0.1,1.5,0.1,2.1,0.5c1.4,1,2.9,0.9,4.5,0.9c4.6,0.1,8.7-1.7,12.7-3.5
		c1-0.4,1.7-1.2,2.6-1.8c-2.4-5.2-3.5-10.4-2.8-15.9c0.1-0.8,0-1.7-0.2-2.5C280.3,518.1,279.6,517.5,278.4,517.8z M316.5,238.1
		c0.8-1.8,1.4-3.8,1.9-5.7c1.8-7.9,5.1-15.3,9.3-22.2c0.7-1.2,1.2-2.3,1.4-3.7c0.3-2.4,0.5-4.8,1.1-7.1c0.5-2.1,0.4-4,0.2-6.1
		c-0.5-3.7-1-7.4-1.5-11.1c-0.3-1.8-0.8-3.5-1-5.3c-0.3-2-0.6-4-0.7-6.1c-0.1-1.3-0.1-2.6-0.7-3.8c-2.1-4.5-3.4-9.2-4.5-14
		c-0.4-1.9-0.7-3.8-0.8-5.7c0-2.2-0.3-4.3-0.7-6.4c-0.7-3.7-1.5-7.3-1.5-11c0-0.4-0.3-0.8-0.5-1.6c-1.3,1.3-1,3.3-2.8,4.1
		c0.6-2.7,1.4-5.2,2.3-7.7c0.3-0.8,1.1-1.5,1.9-2.4c0.2-6.6,0.5-13.5,0.6-20.3c0-7.7,0.5-15.4,1.8-23c0.2-0.9,0.5-1.8,0.9-2.7
		c1.1-2.2,1.3-4.4,0.6-7.4c-3.7-0.3-7.4-1.4-11.4-1.8c-0.3,0.9-0.6,1.7-0.9,2.5c-1.2,3.5-2.3,7.1-3.5,10.6c-0.9,2.7-1.8,5.5-2.5,8.3
		c-0.8,2.9-1.5,5.8-2.3,8.7c0.8,3.1-1.5,5.5-1.8,8.3c-0.1,0.8-0.2,1.7-0.3,2.5c-0.1,1.1-0.3,2.1-0.4,3.2c-0.1,1-0.1,1.9-0.2,2.9
		c-0.1,1.1-0.5,2.2-0.3,3.2c0.4,1.4-0.7,1.9-1.1,2.8c-0.1,0.3-0.1,0.7-0.1,1.1c0.1,1.6,0.2,3.1,0.3,4.7c0.3,3.5,0.8,6.9,0,10.4
		c-0.1,0.6,0,1.2,0.1,1.8c0.4,2.5,0.7,5,1.1,7.5c0.1,0.6,0.2,1.3,0.6,1.6c0.8,0.8,0.8,1.7,0.8,2.7c0.7,7,0.5,14.2,1.9,21.1
		c0,4.3,0,8.7-0.1,13c0,0.8-0.2,1.6,0,2.5c0.5,1.7,0.1,3.3-0.6,4.9c-0.1,0.1-0.4,0.2-0.7,0.4c-0.4-0.8-0.7-1.6-1.2-2.7
		c-0.8,0.9-1.4,1.4-1.8,2c-0.5,0.8-0.8,1.8-1.5,2.4c-2.5,2.7-4,6-5.2,9.4c-1.7,5.2-1.3,10.2,1.3,14.8c0.6,0,1.1-0.1,1.4-0.1
		c0.9,1.9,1.6,3.7,2.7,5.3c1.5,2.4,3.2,4.7,4.9,7.1C306.1,234.6,310.5,237.5,316.5,238.1z M248,258.9c0.4,2.3,0.7,4.2,1.1,6
		c0.7,4,1.7,8,4.5,11.2c0.8,0.9,1.3,2,2,3c2,3,3.1,6.2,3.4,9.8c0.5,5.9,0.9,11.7,1.5,17.6c0.2,2.2,0.5,4.5,1.7,6.5
		c1.6,0,3,0.1,4.5,0c4.6-0.4,9.1-0.8,13.6-1.2c5.4-0.5,10.7-1.3,15.7-3.6c5.9-2.7,11.9-5,17.9-7.6c0.9-0.4,1.8-0.7,2.2-2
		c-1.3-2.8-2.7-5.7-4.1-8.7c-3-6.4-3.7-13.1-3.2-20.1c0-0.6,0.3-1.1,0.5-1.7c0.9-3.4,0.9-6.8,0.5-10.2c-1.8-0.3-3.5-0.6-5.1-0.8
		c-4.2-0.6-8.3-1.4-12.5-1.6c-7.8-0.4-15.6-0.6-23.4-0.8c-1.4,0-2.9-0.3-4.3-0.3c-2.4,0.1-4.8,0.3-7.2,0.5c-0.2,0-0.5,0.1-0.6,0.3
		c-1,1.5-2.6,1.5-4.1,2C251.2,257.7,249.8,258.3,248,258.9z M247.5,256.3c4.5-2.4,8.8-3.6,13.4-3.7c3.1-0.1,6.2,0,9.3,0
		c6,0.1,12,0.2,18,0.3c1.1,0,2.2,0,3.2,0.2c5.5,0.8,10.9,1.6,16.4,2.4c0.8,0.1,1.6,0,2.6,0c1.2-4.5,2.9-8.7,5-12.7
		c0.4-0.8,0.7-1.7,0.4-2.6c-0.2-0.2-0.3-0.3-0.4-0.3c-7.2-1-13.1-4.9-16.6-11.3c-1.2-2.2-2.3-4.5-4.2-6.1c-0.5-0.4-0.9-1.1-1.3-1.7
		c-5.3-8-4.6-16.2-0.1-24.2c1.6-2.9,3.6-5.7,6-8.1c0.8-0.8,1.4-1.6,2-2.5c0.4-0.6,0.2-1.2-0.6-1.4c-2.6,1.6-4.5,3.9-6.6,6.1
		c-3.6,4-7.5,7.7-10.3,12.4c-1.1,1.8-2.6,3.1-4.3,4.3c-4.6,3-9.8,4.5-15.1,5.6c-1.8,0.4-3.8,0.1-5.7,0c-0.7,0-1.4-0.3-2.1-0.5
		c-0.9-0.2-1.6-0.7-2-1.5c-0.3-0.6-0.5-1.1-0.8-1.7c-2,2.1-3.9,4.1-5.9,6c-1.9,1.9-3.8,3.6-5.8,5.4c-5.2,4.8-8,13.7-4.4,21.1
		c1.1,2.2,2.6,4,4.4,5.6c0.5,0.5,1.2,0.9,1.4,1.5C244.3,251.7,246.4,253.5,247.5,256.3z M246.7,84.4c-0.2,2.4-0.5,4.8-0.6,7.2
		c-0.3,4.9-0.8,9.8-1.6,14.7c-1.1,6.4-1,12.6,1.3,18.8c1.2,3.2,2.1,6.4,1.7,9.8c-0.2,1.8,0.1,3.6,0.8,5.3c0.7,1.8,1.4,3.6,2.1,5.3
		c0.3,0.8,0.6,1.5,1,2.5c1.5-1.9,2.1-4,2.4-6c-0.6-0.5-1.1-0.9-1.5-1.3c0.5-0.3,0.8-0.6,1.3-0.9c-2.6-2.7-3-5.9-1.8-9.3
		c1.1-3.2,2.4-6.3,3.4-9.5c1-3.5,3.5-5.7,6.2-7.6c0.8-0.5,1.6-1,2.5-1.5c-0.5-1.6-1-3-1.4-4.5c-0.4-1.6-0.7-3.3-0.9-4.9
		c-0.5-3.9-1.6-7.5-3-11.1c-0.7-1.8-1.1-3.7-1.7-5.5c-0.5-1.6-1-3.2-1.6-4.9C252.4,82,249.8,83.1,246.7,84.4z M325.2,56.3
		c0.1-1.1,0.5-2.2,0.1-3c-0.8-1.5-0.4-2.8,0.2-4.1c1.1-2.4,2-4.9,3.3-7.2c1.3-2.4,2.4-4.9,3.2-7.8c-3.2-1.1-6.2-1.8-9,0.9
		c-0.3,0.3-0.9,0.2-1.5,0.3c-0.1-1.5-1.8-1.8-1.9-3.3c0-0.4-1.1-0.8-1.8-1c-0.6-0.2-1.3-0.3-1.8,0.4c1,1.3,2.8,1.5,3.3,3.2
		c-0.2,0.9-0.2,1.9-1.4,2.3c0-0.6-0.1-1.2-0.1-1.9c-1.4-1.3-3.3-2.2-5.1-3.2c-0.8-0.4-1.7-0.5-2.3-1.1c-1.9-2-4.1-2.1-6.8-1.9
		c-0.6,2.8,0.1,5.5-0.4,7.9c2.6,2.1,4.8,4,7.2,5.9c2.2,1.8,3.2,4.2,3,7c-0.2,2,0.4,3.7,0.6,5.8C317.8,55.8,321.2,56.7,325.2,56.3z
		 M343.3,41.9c-0.8,3.4-1.1,6.9-2.7,10c-1.7,3.3-4.5,5.6-7.4,7.2c-2.6-0.4-5-0.8-7.3-1.2c-0.7-0.1-1.4,0.2-2.1,0.3
		c-1.1,0.1-2.1,0.3-3.2,0.3c-2.5-0.1-5-0.1-7.6-0.4c-4.3-0.4-8.5-1.4-12.2-4c-0.1-0.1-0.3,0.1-0.6,0.3c0.5,1.2,0.9,2.4,1.4,3.7
		c0.1,0.3,0.3,0.7,0.5,0.9c2,2.2,4,4.5,7.1,5.1c1.3,0.3,2.5,0.7,3.8,0.9c3.5,0.6,7.1,1,10.6,1.8c6.9,1.4,13-0.5,19.1-3.5
		c0.5-0.3,1-0.6,1.5-1c1.1-0.7,1.5-1.7,1.4-3.1c-0.4-3.5-0.6-6.9-1-10.4C344.4,46.5,343.8,44.2,343.3,41.9z M327.6,55.9
		c2.6,0.5,4.1,0.4,6.5,0c1.2-0.2,2-0.8,2.6-1.7c2-2.8,3.5-5.8,3.7-9.2c0.2-3.2,0-6.5-0.1-9.7c0-0.9-0.5-1.7-0.8-2.8
		c-2,1.4-3.9,2.5-6.3,2.5c-0.4,1.3-0.9,2.5-1.2,3.8c-0.4,1.9-1.1,3.7-2.4,5.1c-0.9,1-1.2,2-1.3,3.2c-0.1,0.9-0.3,1.9-0.6,2.8
		C327.3,52,327.5,54,327.6,55.9z M152.4,44.7c1.9,0,3.6,0,5.3,0c9.1-0.1,18.2-0.3,27.4-0.5c0.5,0,1.2,0.2,1.6-0.6
		c-0.4-0.6-0.9-1.3-1.4-2c-0.5-0.7-1-1.3-1.5-2.1c-11.4-0.6-22.7-0.7-34.4-0.1c0.4,0.9,0.6,1.6,0.9,2.2c2.2-0.1,2.3-0.1,2.2,1.7
		C152.5,43.6,152.4,44,152.4,44.7z M242.3,51.4c-0.2,0.2-0.3,0.3-0.3,0.4c0,0.2,0,0.5,0,0.7c0.1,2.4-0.3,4.5-2.6,5.9
		c-0.5,0.3-0.9,1.1-1.2,1.7c-0.5,1.2-0.9,2.5-1.3,3.7c-1.1,3.6-1.5,7.3-1.1,11c0.2,1.9,0.6,3.8,1.6,5.5c0.4,0.7,1.1,1.2,1.8,1.6
		c0.8,0.5,1.7,0.8,2.8,0.1c-0.3-1.3-0.6-2.5-0.9-3.8c-1.4-6.2-1.8-12.4,2.2-17.8c-1.7-3.4-1.7-4.2,0-7.5c0.2-0.3,0.4-0.6,0.5-1
		c0.1-0.2-0.1-0.4-0.2-0.7C243.3,51.4,242.8,51.4,242.3,51.4z M311.2,54.8c0.1-2,0.3-3.8,0.3-5.6c0-1.4-0.4-2.6-1.4-3.5
		c-1.6-1.5-3-3-4.6-4.5c-0.4-0.4-0.8-0.9-1.6-0.4c0.1,4.5,0.7,8.9,1.5,13.3C307.3,54.5,308.9,55.2,311.2,54.8z M258.1,20.6
		c0.2-1.1,0-1.7-0.7-1.8c-1.7-0.2-3.3-0.4-5-0.5c-3.9-0.2-7.9-0.4-11.9-0.6c-6.5-0.3-12.9-0.7-19.4-1c-0.7,0-1.3,0.1-2,0.2
		c0,1,0.5,1.2,1.2,1.3c2.3,0.2,4.5,0.4,6.8,0.6c6.3,0.5,12.7,0.9,19,1.3C250,20.4,254,20.5,258.1,20.6z M265.6,21.3
		c5,0.4,9.7,0.8,14.4,1.2c0.6-1,0.7-1.7,0.2-2.7c-3.6-0.2-7.3-0.4-11-0.5c-1.1-0.1-2.2-0.1-3.2-0.1c-0.2,0-0.4,0.2-0.6,0.4
		C265.3,20,265.4,20.4,265.6,21.3z M244.5,62.3c-2.3,3.4-3,6.4-2.4,10c0.4,2.6,1.1,5.1,1.6,7.7c0.1,0.6,0.4,1.2,0.7,2.4
		c0.2-1.1,0.4-1.5,0.4-2C244.7,74.5,244.6,68.7,244.5,62.3z M138.1,39.4c0,0.2-0.1,0.3-0.1,0.4c0.8,1.8,2.4,2.8,3.6,4.3
		c0.3,0.3,0.8,0.5,1.3,0.6c1.3,0.2,2.5,0.4,3.9-0.1c-0.9-1.8-1.4-3.6-2.7-5.1C142,39.4,140,39.4,138.1,39.4z M299.9,158.7
		c-0.9,6.8-0.3,11.5,1.6,15.3c0.6-3.4-0.7-6.5-0.8-9.7C300.7,162.7,300.2,161.1,299.9,158.7z M283,19.7c-0.6,1.1-1.3,2-1.1,3.6
		c1.4-0.2,2.6,0.8,4.2,0.3c0.1-1.4,0-2.6-0.4-3.9C284.7,19.7,283.9,19.7,283,19.7z M289.7,136.8c1.3,1,2.1-0.4,3.2-0.2
		c1,0.1,2.1,0.4,3.3,0.7c0-0.8-0.1-1.4-0.1-2.2C293.8,135.4,291.7,135.7,289.7,136.8z M219.6,41.4c0.3,0.7,0.5,1.2,0.7,1.8
		c1.3,0,2.4,0,3.8,0c-0.2-0.7-0.3-1.3-0.5-1.7C222.3,40.9,221.2,40.8,219.6,41.4z M185.8,40c0.7,1.4,1.2,2.5,1.8,3.4
		c0.5,0.8,1.3,0.9,2.1,0.3C187.9,40,187.9,40,185.8,40z M320.9,31.4c1.9,1.4,2.2,1.4,4.7,0C324,31.2,322.5,30.9,320.9,31.4z
		 M252.3,154.2c0,1.2,0.2,2.3,0.6,3.5C254.1,155.1,254.1,155.1,252.3,154.2z M285.1,139c0,0.1,0,0.1,0,0.2c0.4,0,0.9,0,1.3,0
		c0-0.1,0-0.1,0-0.2C286,139,285.6,139,285.1,139z M253.9,160.4c0.1,0.1,0.3,0.3,0.4,0.4c0.1-0.1,0.2-0.2,0.2-0.3
		c-0.1-0.2-0.2-0.3-0.3-0.5C254.1,160.2,254,160.3,253.9,160.4z M260.1,20.4c0.1,0,0.2,0,0.3,0c0-0.4,0-0.7,0-1.1
		c-0.1,0-0.2,0-0.3,0C260.1,19.6,260.1,20,260.1,20.4z M243.2,49.6l0-0.1l-0.3,0L243.2,49.6z M274.6,110.3c-0.2,0-0.4-0.1-0.6-0.1
		c0.1,0.1,0.2,0.1,0.3,0.2C274.4,110.4,274.5,110.3,274.6,110.3z M282.4,112.4l-0.2-0.1l0,0.1L282.4,112.4z M277.7,113l0.2,0.1
		l0-0.1L277.7,113z M281,128.3c-0.1-0.1-0.1-0.2-0.2-0.2c-0.1,0-0.2,0-0.3,0c0.1,0.1,0.1,0.2,0.2,0.3
		C280.8,128.5,281,128.4,281,128.3z M216.1,17.3l0.1-0.2l-0.2,0L216.1,17.3z M149,44.3l-0.1,0.2l0.2,0L149,44.3z M250,46.8l0.1-0.2
		l-0.2,0L250,46.8z M254.8,165l0.2,0.1l0-0.3L254.8,165z"/>
	<path d="M492.1,44.2c0.2-0.4,0.3-1,0.7-1.2c3.4-1.6,5.9-4.4,8.8-6.7c0.5-0.4,1.1-0.9,1.7-1.4c-0.6-0.8-1.1-1.6-1.6-2.4
		c-1.6-2.2-3.2-4.4-4.7-6.6c-1.4,0.1-1.9,1.2-2.7,1.8c-0.6,0.5-1.2,1.2-2.1,1.1l0.1,0.1c1.2-1.3,2.5-2.6,3.7-4
		c-0.1-1.7-1.2-2.9-2.1-4.1c-0.9-1.4-1.9-2.8-2.2-4.5c-0.1-0.3,0.1-0.7,0.1-1.1c0.4,0.3,0.8,0.4,0.9,0.6c3.9,5.5,7.8,11,11.7,16.5
		c1.7,2.4,3.6,4.8,5.4,7.2c13.2,16.7,25.7,33.9,37.6,51.6c2.3,3.4,4.3,6.9,6.6,10.3c4.9,7.1,10,14.1,14.9,21.3
		c4.2,6.1,8.3,12.3,12.5,18.5c0.5,0.7,1,1.5,1.8,2.7c-0.9-0.2-1.4-0.1-1.7-0.3c-0.6-0.4-1.1-0.9-1.5-1.5c-2.9-4-5.8-7.9-8.7-11.9
		c-3.5-4.9-6.9-9.9-10.4-14.7c-4.7-6.4-9-13.1-13.3-19.7c-3.3-5.2-6.9-10.2-10.3-15.2c-0.3-0.4-0.6-0.7-1-1.1
		c-2.4,1.4-4.6,2.7-6.9,4c-2.2,1.3-4.4,2.4-7,2.7c0.2-0.6,1.2-0.8,0.8-1.7c0.3-0.1,0.5-0.1,0.8-0.2c-0.1,0-0.2-0.1-0.2-0.1
		c-0.2,0.1-0.3,0.3-0.5,0.4c-1.6,0.3-1.6,0.3-0.8,1.5c0.3,0.7,0.4,1.4,0.8,2c3.6,5.4,7.1,10.9,10.9,16.1
		c5.1,7.1,10.2,14.3,16.2,20.7c2,2.2,4.2,4.3,6.2,6.5c0.9,1,1.9,1.9,2.4,3.1c1.7,3.3,4.2,5.8,6.9,8.2c0.5,0.5,1,1,1.4,1.6
		c0.6,0.7,1.2,1.4,2,2.3c3.1-1.4,6.1-2.8,9.4-4.3c0.4,0.7,0.9,1.3,1.5,2.3c0.7,0.4,1.9,0.7,3.1,0.5c1.4-0.2,2.4,0.4,3.1,1.4
		c1.7,2.5,4.2,3.9,6.6,5.5c6.7,4.7,12.6,10.4,18,16.6c2.2,2.5,3.7,5,3.1,8.3c0.8,6.6,1.6,13.1,2.5,19.7c0.5,3.4,2.5,6.2,4.6,8.8
		c2.3,2.8,4.9,5.3,7.3,7.9c1.5,1.7,3,3.5,4.5,5.2c0.3,0.4,0.7,0.7,0.8,1.2c0.9,2.8,3,4.9,4.6,7.3c1.9,2.7,3.1,5.7,4.6,8.6
		c1,2,2,4.1,3.7,5.7c0.6,0.5,1,1.4,1.3,2.1c0.1,0.2-0.1,0.6-0.2,1.1c-0.5-0.3-1-0.4-1.3-0.8c-1.1-1.4-2.3-2.8-3.2-4.4
		c-1.2-2.2-2.4-4.4-3.7-6.5c-5.4-8.4-10.9-16.7-17.7-24.1c-0.6-0.6-1.1-1.3-1.6-1.9c-2,0.5-2.7,2.4-4.2,3.4c-1.5,1-3,1.9-4.4,2.9
		c1.2,7,3.7,13.3,6.5,19.6c0.4,0.9,0.9,1.7,1.2,2.6c1.2,4.1,3.7,7.5,6.1,10.9c0.6,0.9,1.4,1.6,2.2,2.4c2.8,3,5.7,5.8,8.4,8.9
		c2.1,2.3,3.9,4.9,6,7.2c1.8,2.1,3.7,4.1,5.6,6.1c0.4,0.4,0.9,0.7,1.4,1.1c1.2-1.8,1.3-3.7,1.3-5.5c-0.7-0.5-1.2-0.8-1.7-1.1
		c0.4-0.3,0.8-0.5,1.2-0.8c-0.2-0.3-0.3-0.6-0.6-0.8c-2.8-2.3-3-5.4-2.5-8.5c0.6-3.6,1.3-7.1,2.2-10.6c1.1-4.6,3.9-7.9,8.2-9.9
		c0.5-0.2,1.1-0.5,1.6-0.8c3.8-2.4,7.9-4,12.2-5.2c0.7-0.2,1.3-0.5,2.1-0.7c0.8-2.8-0.2-5.5-0.4-8.2c-0.2-2.8-0.4-5.5-0.7-8.3
		c-0.3-2.7-0.8-5.5-1.2-8.3c-0.8-0.3-1.4-0.5-2.1-0.7c-3.1-1-6.2-1.9-9.2-3c-3.1-1.1-5.6-3.3-8.3-5c-1-0.7-1.4-1.7-1.4-2.8
		c-0.5-6.6-1.1-13.2,1-19.7c0.6-2,1.1-3.9,2.7-5.4c-0.3-0.9-0.4-1.7-0.8-2.4c-1.3-2.4-1.9-4.9-2.6-7.5c-1-4.2-2.2-8.4-3.2-12.6
		c-0.4-1.6-1.1-2.9-2.2-4.1c-1.6-1.7-3-3.7-5.4-4.6c-0.6-0.2-1.2-0.8-1.6-1.4c-2.4-2.9-5-5.5-7.9-7.8c-2.3-1.8-4.4-3.7-6.5-5.6
		c-0.7-0.6-1.3-1.4-1.9-2.1c-4.6-5.5-8.9-11.4-12.7-17.5c-2.1-3.3-4.4-6.3-6.9-9.2c-2.8-3.3-5.7-6.5-8-10.2
		c-0.4-0.6-0.9-1.1-1.4-1.6c-1.2-1.3-2.6-2.5-3.7-3.9c-3.3-4-6.5-8-9.7-12.1c-0.7-0.9-1.5-1.9-2.1-2.9c-4.6-7.7-10-14.7-15.1-22
		c-6.4-9.2-13.1-18.1-20.5-26.6c-0.9-1-1.6-2.1-2.5-3.3c1.1-0.6,1.9-0.5,3-0.1c4.1,4.5,8.4,9.1,12.4,13.8c2.5,2.9,4.6,6.1,6.9,9.2
		c4.2,5.9,8.4,11.7,12.5,17.6c1.7,2.5,3.4,5,5,7.5c2.9,4.9,6.6,9.1,10.2,13.3c1,0.2,1.4-0.6,1.9-1c1.9-1.4,3.8-2.9,5.8-4.3
		c0.3-0.2,0.9-0.1,1.3-0.2l-0.1-0.1c-0.7,1.6-2.1,2.6-3.4,3.7c-1.5,1.2-3.1,2.2-4.4,3.7c1.1,2,2.4,3.7,4,5.2c0.8,0.7,2,0.6,2.6,1.8
		c0.5,1,1.2,1.8,1.8,2.7c1.1,1.5,2.3,3.1,3.5,4.6c2.1,2.8,4.1,5.6,6.1,8.4c1,1.3,1.8,2.8,3.3,4c2.3-3,4.5-6,6.8-9.1
		c-0.3-0.6-0.5-1.2-0.9-1.8c-5.3-7.8-9.9-15.9-14.5-24c-1-1.7-1.7-3.7-3.5-5l0.1,0.1c-0.6-1.3-1.1-2.7-1.9-3.9
		c-4.1-6.8-8.8-13.2-13.5-19.6c-3.6-4.8-7.3-9.5-11-14.3c-0.4-0.5-0.8-0.9-1.2-1.4c-1.8,1.2-3.6,2.2-5.3,3.3
		c-1.7,1.1-3.3,2.2-5.3,3.6c0.8-1.8,0.8-1.8,2.9-3.2c1.1-0.8,2.1-1.6,3.2-2.4c1.1-0.8,2.3-1.7,3.5-2.6c-0.9-2.1-2.4-3.5-3.6-5.1
		c-1.1-1.5-2.5-2.9-3.4-4.9c1,0,1.8,0,2.6,0c1.5,1.8,2.9,3.6,4.4,5.3c0.9,1.1,2.3,1.9,2.9,3.1c0.7,1.3,1.5,2.5,2.4,3.6
		c2.3,2.9,4.6,5.9,6.9,8.8c9.5,12.1,18,25,25.5,38.4c5.4,9.8,11.5,19.2,18.2,28.2c2.2,2.9,4.3,5.8,6.3,8.8c2.9,4,5.9,7.9,9.1,11.6
		c3.3,3.8,6.2,8,9.3,12c1.4,1.8,3.2,3.3,3.4,5.4c0.4,0.3,0.5,0.4,0.6,0.5c6.4,2.8,11.6,7.3,16.8,11.7c1.5,1.3,3.1,2.6,4.8,3.8
		c1.5,1.1,3.2,2,5,2.8c2.2,1,4.1,2.5,6,3.9c1.2,0.9,1.6,2.4,1.6,3.9c0,1.1-0.3,2.1-0.4,3.2c-0.1,0.7-0.5,1.5-0.2,2.1
		c0.6,1.7,0,3.3-0.1,5c-0.3,4.7-1.4,9.3-2.9,13.7c-1,2.9-0.9,5.7-0.3,8.5c1.2,6.3,2.9,12.4,5.7,18.2c1.4,3,2.7,6.1,3.5,9.4
		c1,3.8,2.6,7.5,4,11.4c1.1-0.2,2.3-0.4,3.4-0.8c3.8-1.2,6.8-0.1,9.1,3.2c1.4,2.1,2.9,4.1,4.7,5.9c2.2,2.2,3.2,5.1,3.2,8.2
		c0,3-0.3,6-1,8.9c-0.7,3-0.3,6-0.2,9c0,0.5,0.3,0.9,0.4,1.4c0.4,1.5,0.8,3,1.4,4.9c1.7,1.6,3.1,4.2,4.8,6.5
		c1.3,1.8,2.7,3.7,4.2,5.4c2.4,2.9,4.5,5.9,5.7,9.5c1.3,4,2.4,8.1,3.2,12.2c0.2,1.1,0.3,2.2,0.2,3.2c-0.4,7.6,0.1,15.1,1.2,22.6
		c0.5,3.4,0.7,6.9,1,10.4c0.3,3.7,1.1,7.3,2.1,10.9c1,3.8,2.7,7.2,4.4,10.6c1.3,2.7,2.4,5.5,3.6,8.3c0.9,2.1,1.9,4.1,3.5,5.8
		c2.1,2.3,4.2,4.6,6.2,7c2.5,3.1,5.6,5.1,9.4,6.4c5.7,1.9,11.2,4.5,16.1,8c7.5,5.2,12.5,12.2,14.9,21.1c0.9,3.4,1.7,6.8,1.4,10.3
		c-0.1,1.8-0.5,3.6-0.8,5.3c-0.1,0.8-0.5,1.6-0.6,2.4c-0.6,5.8-3.9,10-8.1,13.6c-2,1.7-4.2,3.3-6.4,4.7c-5.1,3.4-10.8,5.2-16.8,6.1
		c-4.2,0.6-8.4,0.9-12.6,1.3c-0.5,0-1.1,0.1-1.4-0.1c-1.5-1.5-3.3-1.1-5.1-1.2c-4.2-0.3-8.4-0.4-12.6-0.7c-2.9-0.2-5.7-0.7-8.6-1.1
		c-0.5-0.1-0.9-0.1-1.8-0.2c0.6,0.7,0.9,1.2,1.3,1.6c6.9,7.3,10,16.1,9.4,26c-0.3,5.9,0,11.8,0.6,17.6c1,11.2,3.3,22.1,5.7,33
		c0.8,3.9,1.9,7.7,2.4,11.6c0.4,2.6,0.4,5.3-0.7,7.8c-0.5,1.1-1.3,1.7-2.5,1.8c-1,0.1-1.9,0-2.9,0.1c-0.7,0.1-1.4,0.3-2.3,0.4
		c-1-0.5-2.1-1.1-3.2-1.7c-0.7-1.1-1.1-2.3-1.9-3.1c-1.9-1.8-3.9-3.6-5.9-5.2c-1.1-0.9-2.6-1.3-3.2-2.7c-0.1-0.3-0.6-0.4-0.9-0.5
		c-0.3-0.1-0.7,0-1.3,0c-0.5,1.2-1.1,2.5-1.8,4.1c3.2,0.2,5.5,1.9,7.8,3.5c1.6,1.1,2.5,2.5,2.4,4.8c-3.4-2.5-7.2-3.5-10.5-6.1
		c-0.2,0.8-0.3,1.3-0.5,1.8c1,1.2,2.4,1.4,3.6,1.9c2.1,0.9,3.7,2.2,4.8,4.2c0.2,0.3,0.2,0.6,0.3,1.1c-3.3-1.3-6.5-2.5-9.7-3.7
		c-0.2,0.5-0.3,0.9-0.4,1.2c1.6,0.8,3.2,1.5,4.7,2.4c0.7,0.4,1.1,1.2,1.6,1.8c-0.4,0.7-0.8,0.5-1.2,0.3c-1.9-0.6-3.9-1.2-6-1.8
		c-0.3,0.3-0.6,0.6-0.9,1c0.5,1.4,2,1.3,2.9,2.1c0.9,0.8,1.9,1.5,1.8,2.9c-0.9,0.4-1.3-0.4-1.9-0.6c-0.8-0.3-1.5-0.7-2.3-1
		c-0.7-0.3-1.4-0.4-2-0.7c-0.7-0.3-1.3-0.6-2.1-0.9c-2.5,1.6-4.8,3.4-6.6,5.9c-3.2,4.4-7,8.2-11.2,11.7c-0.4,0.3-0.7,0.7-1,1.1
		c-0.4,0.6-0.1,1.5,0.6,1.8c0.6,0.2,1.2,0.3,1.7,0.5c1.6,0.5,2.9,1.4,4.1,3.1c-2.5-0.5-4.5-1.9-7.3-1.5c1,0.6,1.5,1,2.1,1.2
		c6.4,2.5,13,3.4,19.8,2.7c2.4-0.3,4.7-0.7,7-1.5c1.6-0.6,3.2-1,4.8-1.4c1.9-0.5,3.6-1.4,4.6-3.2c0.3-0.5,0.7-1,1.1-1.4
		c1.8-1.9,3.7-3.8,5.8-5.9c0.9,0,2.1,0,3.3,0c5.3,0.1,10-2.2,14.8-4c0.4-0.2,0.8-0.5,1.2-0.8c0.2-0.1,0.3-0.4,0.6-0.8
		c-0.5-1-1.1-2.2-1.6-3.4c-0.5-1.1-0.8-2.3-1.3-3.4c-0.7-1.6-1.5-3.3-2.3-4.9c-1.8-3.3-3.1-6.7-3.5-10.5c-0.2-2.6-0.4-2.6-2.1-4.6
		c0.5-0.2,0.9-0.6,1.3-0.5c0.5,0.1,1.1,0.4,1.5,0.8c0.9,1,1.3,2.3,1.3,3.7c-0.2,3.2,1,6.1,2.3,9c1.4,2.8,2.5,5.7,3.7,8.6
		c0.6,1.5,1.3,2.8,2.5,3.9c0.3,0.2,0.4,0.6,0.6,0.9c-0.2,1.6-1.4,2.6-2.6,3.3c-1.1,0.7-2.3,1.3-3.6,1.7c-2.5,0.9-5,1.9-7.5,2.5
		c-2,0.5-4,0.5-6.1,0.6c-0.7,0.1-1.4,0-2,0c-1.8,1.7-3.4,3.3-5,4.9c-0.6,0.6-1.1,1.3-1.5,2c-1.1,1.7-2.6,2.8-4.5,3.4
		c-1.7,0.5-3.4,1.2-5.1,1.8c-3.1,1.1-6.4,1.3-9.6,1.5c-3.4,0.2-6.7-0.2-10-0.7c-3.8-0.6-7.5-1.6-10.9-3.1c-1.2-2.4-1.2-2.4-1.2-6.3
		c0.4-1.2,1.6-1.7,2.5-2.5c3.4-3.2,6.8-6.5,10.1-9.7c0.4-0.4,0.9-0.8,1.1-1.4c0.7-2.1,2.4-3.3,3.9-4.6c0.7-0.6,1.6-1.1,2.3-1.8
		c3.1-2.6,5.8-5.4,6.6-9.6c0.3-1.4,0.9-2.7,1.2-4.1c0.6-2.3,1.5-4.3,3.6-5.5c0.3-0.2,0.5-0.5,0.8-0.9c-0.3-3.7-1.2-7.2-2.6-10.7
		c-0.7-1.6-1.7-3.2-1.6-5.1c0-0.6-0.4-1.3-0.8-2c-0.7-1.4-1.4-2.8-2.2-4.2c-3.5-6-5.6-12.5-8.1-18.8c-1.7-4.2-3.2-8.6-4.8-12.8
		c-2.2-5.5-3.3-11.3-5-16.9c-0.1-0.2-0.1-0.5-0.2-0.7c-0.4-1.9-0.5-3.8-1.2-5.6c-0.7-1.8-2-3.3-3-4.9c-0.6-0.9-0.9-1.9-1-3
		c0-0.9-0.2-1.9-0.7-2.7c-1.6-3.1-2.9-6.3-3.6-10c-1-0.1-1.9-0.3-2.8-0.3c-3.1-0.3-6.2-0.7-9.2-1.6c-0.7-0.2-1.4-0.5-2.1-0.4
		c-2.6,0.4-5.2,0.9-7.7,1.4c-0.4,1.2,0.3,1.8,0.7,2.4c4.1,5.2,5.2,11.3,5.2,17.6c0,1.3-0.2,2.6-0.6,3.9c-0.8,2.6-1.7,5.3-2.5,7.9
		c-0.1,0.5-0.3,0.9-0.4,1.4c-1.1,6.4-2.1,12.8-1.4,19.3c0.3,2.4,0.3,4.8,0.5,7.2c0.2,2.2-0.1,4.6,2.1,6.2c0.4,1.4,0.7,2.8,1.2,4.4
		c0.6,0.8,1.5,1.5,2.7,1.9c-1.1,1.7-2.1,3.5-3.2,5.2c-0.7,1.1-1.6,1.8-2.8,2.2c-3.7,1.3-7.5,1.8-11.1-0.4c-0.7-0.4-1.5-0.7-2.3-1
		c-1.1-0.3-1.8-1.1-2.4-2c-1.2-2.1-2.5-4.1-3.8-6.1c-0.3-0.4-0.9-0.7-1.3-1c-1.9,1.3-3.2,2.7-3.9,4.5c1.4,2.1,2.7,4,3.9,5.9
		c0.2,0.3,0.6,0.8-0.1,1.1c-2-1.3-3.8-2.8-5.8-3.9c-0.6,0.5-0.7,1-0.3,1.4c0.8,0.9,1.7,1.7,2.5,2.6c0.4,0.4,0.9,0.8,0.5,1.7
		c-2,0.3-3.3-1.4-5.1-2.1c-0.8,1.8,1.8,2.7,0.9,4.3c-1.3,0.4-2.1-0.9-3.1-1.2c-1.3,1.1-1.3,1.1-1.3,3.4c-0.8-0.3-1.5-0.6-2.3-0.8
		c-0.7,0.4-1.5,0.7-2,1c-0.1,0.4-0.2,0.5-0.2,0.6c-0.3,1.8-0.3,1.8-2.4,2.3c-0.3,0.1-0.7,0.2-1,0.4c-1.7,0.7-3.3,1.4-5,2.1
		c-2.2,0.9-4.5,1.7-6.7,2.5c-0.8,1.2-1.2,2.4-0.9,4c1.9,1.2,3.9,2.4,6.4,4c4.2,0.6,8.9,1.1,13.7,0.2c3.6-0.6,7.2-1.1,9.9-3.9
		c2.3-1.1,4.4-2.3,7.1-2.2c1.7,0.1,3.4,0,5,0.1c0.8,0,1.8,0.1,2.4,0.5c1.3,0.8,2.7,0.7,4.2,0.7c4.4-0.1,8.4-1.7,12.4-3.5
		c1.2-0.5,2.4-1.2,3-2.4c-0.1-0.3-0.1-0.5-0.2-0.7c-2.4-4.7-3.2-9.7-2.8-15c0.1-0.9-0.1-1.9-0.3-2.9c-0.2-0.9-0.8-1.4-1.9-1.2
		c0.2-0.3,0.4-0.8,0.6-0.8c1,0,1.9,0.1,2.8,1c0.1,0.6,0.3,1.5,0.3,2.3c-0.1,4.6,1,9,2.3,13.4c0.2,0.8,0.6,1.6,0.8,2.4
		c0.6,2.4-0.9,5.1-3.2,6.1c-4.8,2.2-9.8,3.2-15,3.4c-2.4,0.1-4.9-0.2-7.1-1.2c-2.9-1.3-5.4-0.5-7.7,1.3c-1.7,1.4-3.7,2.3-5.6,3.1
		c-2,0.8-4,1.3-6.3,1.4c-4,0.1-7.9,0.4-11.9,0c-1.3-0.1-2.6-0.3-3.9-0.5c-1.2-0.2-2.3-0.7-3.2-1.6c-0.7-0.6-1.5-1.2-2.3-1.8
		c-1.8-1.4-2.5-4.1-1.6-6.1c0.5-1,1.2-1.9,2.3-2.1c3.1-0.5,5.9-2,8.8-3c2.5-0.9,4.9-1.9,6.5-4.3c0.4-0.7,1.3-1,2-1.5
		c1.4-1.1,2.9-2.2,4.2-3.4c0.6-0.5,1.1-1.3,1.4-2.1c1.1-3.4,3.6-5.9,5.6-8.7c1-1.3,1.3-1.3,4.2-2.4c0.1-0.6,0.3-1.3,0.3-1.9
		c0.2-7.4-0.7-14.6-2.6-21.8c-1-4-2.3-7.8-3.3-11.8c-1.3-5.1-2.4-10.3-3.6-15.4c-0.4-1.8-0.7-3.5-1.1-5.3c-0.2-1.1-0.5-2.1-0.5-3.2
		c0-3.7-0.8-7.2-1.6-10.7c-0.8-3.5-1.6-7-1.4-10.7c0.1-1.4,0.4-2.6,1.2-3.7c2.3-2.9,4.8-5.6,8.1-7.6c5-2.9,10.2-5.4,15.6-7.5
		c0.9-0.3,2-0.6,2.6-1.2c1.4-1.5,3.3-2,5.1-2.5c5.2-1.6,10.3-3.4,15.5-4.9c4.5-1.3,9.2-2,13.8-2.3c3.8-0.3,7.6-0.5,11.4-0.8
		c0.2-1-0.5-1.3-0.9-1.6c-1.6-1.1-3.2-2.1-4.8-3.2c-2.5-1.6-5-3.3-7.5-5c-0.8-0.5-1.6-1.1-2.1-1.9c-1.6-2.5-3.2-5.1-4.7-7.7
		c-0.5-0.8-0.5-1.8-0.8-2.7c-0.3-0.9-0.4-1.9-0.8-2.7c-0.4-0.9-0.7-1.7-0.7-2.8c0-1.5-0.8-2.8-1.8-3.8c-0.5-0.5-1.1-0.9-1.8-1.1
		c-0.9-0.4-1.8-0.6-2.7-0.9c-2.7-0.9-5-2.3-7-4.2c-0.9-0.9-2.2-1.4-3.3-2.1c-1.6-1.1-3.1-2.3-3.6-4.3c-0.3-1.2-1.3-2.2-1.2-3.4
		c0.1-3-1-5.8-0.4-8.8c1.2-5.8,3.1-11.4,4.6-17.1c0.5-2.1,1-4.2,1.1-6.4c0.2-3.4,0.6-6.7,1.1-10c0.3-1.9,0.2-3.8,0.3-5.7
		c0.1-2.4-0.4-4.5-1.2-6.7c-0.6-1.7-1.3-3.4-1.9-5.1c-1.3,0.2-2.4,0.4-3.6,0.5c-0.8,0.1-1.7,0-2.5,0c-4.5-0.2-5.9-1.9-5.3-6.7
		c-0.9-1-2.1-2.2-1.3-3.9c0.1-0.2,0-0.6-0.1-0.7c-2-1.2-1.1-3.3-1.5-4.9c0-0.1-0.1-0.2-0.2-0.5c-0.4-0.2-0.9-0.5-1.4-0.7
		c-1.3-0.5-2.3-1.4-2.4-2.9c-0.1-1.2-0.8-1.9-1.6-2.7c-2.8-2.5-5.2-5.3-7.1-8.6c-3-5-6.9-9.2-11.4-12.9c-2.2-1.9-4-4.1-5.6-6.5
		c-2.3-3.4-4.1-7-5.5-10.9c-2.3-6.1-4.6-12.1-6.5-18.3c-0.2-0.7-0.6-1.3-0.9-1.9c-1.7,0.3-3.2,0.7-4.7,0.9
		c-3.5,0.6-6.9,0.5-10.4-0.3c-1.1-0.3-1.8-0.8-2.1-2.1c-0.5-1.7-1.4-3.2-2.3-5.2c0-0.3,1.1-0.6,0.8-1.7c-0.5-1.7-0.7-3.5-1-5.3
		c-0.7-3.4-0.8-6.9-0.7-10.4c0.1-3,0.2-6,0.2-9c0-0.9-0.7-1.9-0.5-2.8c0.6-2.6-0.9-4.6-1.9-6.7c-0.9-2.1-1.9-4.2-2.9-6.2
		c-0.5-1-0.9-2-1.6-2.8c-2-2.4-4.2-4.7-6.3-7.1c-1.6,0.2-3-0.1-4.1-1.4c-1.5-1.8-3.3-3.5-4.8-5.3c-1.3-1.4-2.4-3-3.7-4.4
		c-3.1-3.3-5.9-6.9-8.4-10.8c-0.7-1.1-1.6-2.1-2.8-2.7c-0.8-0.4-1.5-1.2-2.1-1.9c-5.7-6.2-10.9-12.8-15.6-19.8
		c-2.4-3.6-5-7.1-7.6-10.5c-1.7-2.2-3.2-4.5-4.3-7.1c-0.6-1.5-1.5-2.7-2.5-3.9c-3-3.3-5.5-6.9-8-10.6c-2.8-4.2-5.7-8.4-8.7-12.4
		c-5.7-7.5-10.6-15.5-15.7-23.3c-3-4.5-6-9-9.1-13.5c-0.7-1.1-1.6-2.1-2.4-3.1c-0.1-0.2-0.1-0.7,0.1-1c0.3-0.5,0.9-0.3,1.2,0
		c1.2,1.5,2.4,3,3.5,4.6c3.6,5.1,7.2,10.2,10.8,15.3C491.6,43.8,491.9,43.9,492.1,44.2c0.4,0.5,0.6,1.2,1,1.8
		c1.5,2.2,2.9,4.4,4.5,6.5c4.2,5.8,8.6,11.6,12.8,17.4c1.8,2.5,3.5,5.2,5.3,7.7c0.6,0.9,1,1.9,2.3,2.3c0.9-0.6,1.8-1.2,2.7-1.8
		c2.5-1.6,5-3.3,7.5-4.9c0.8-0.5,1-0.4,2,0.7c-0.2,0.3-0.3,0.7-0.5,0.9c-0.6,0.6-1.3,1.2-2,1.5c-2.1,1.1-4.3,2.1-6.5,3.2
		c-0.9,0.5-2.2,0.5-2.7,1.7c0.5,1.1,1.1,2.1,2.3,2.7c2.4-1.5,4.9-3,7.4-4.5c0.8-0.5,1.6-1.1,2.4-1.6c1.1-0.7,2.1-1.6,3.6-1.3
		c-0.1,0.2-0.3,0.4-0.3,0.6c0,0.2,0.2,0.5,0.3,0.7c0.2-0.1,0.5-0.2,0.5-0.3c0.2-0.5,0.1-0.8-0.5-0.9c0.1-1.2-0.8-2-1.4-2.8
		c-9-12.6-18.3-24.9-27.8-37.1c-0.2-0.3-0.5-0.4-0.8-0.6C500.5,39.6,496.5,42.3,492.1,44.2z M661.1,238.3c0.1-0.1,0.2-0.1,0.2-0.2
		C661.2,238.2,661.2,238.3,661.1,238.3c-0.2,0.4-0.4,0.6-0.7,0.9c-0.2,0.2-0.4,0.5-0.7,0.7c-0.4,0-0.8,0.2-0.7,0.7
		c-0.5-0.1-0.8,0.2-0.7,0.7c-0.5-0.1-0.8,0.2-0.7,0.7c-0.5-0.1-0.8,0.2-0.8,0.7c-0.4,0.5-0.8,1.1-1.4,1.7c1.4-0.2,1.4-0.2,1.4-1.1
		c0-0.2-0.1-0.5-0.1-0.7c0.3-0.2,0.6-0.4,0.8-0.7c0.2-0.2,0.5-0.5,0.7-0.7c0.2-0.2,0.5-0.5,0.7-0.7c0.2-0.2,0.5-0.5,0.7-0.7
		c0.2-0.2,0.4-0.5,0.6-0.7C660.6,238.8,660.8,238.5,661.1,238.3z M662.5,239.1l-0.1,0.1L662.5,239.1l0.1-0.2L662.5,239.1z
		 M664.7,233.3l-0.1-0.1L664.7,233.3c0.5,0.7,1,0.7,1.4-0.1c0.7-0.1,1.6,0,2.1-0.7c0.8-0.2,1.6-0.4,2.4-0.6c0.7-0.2,1.6,0.1,2-0.8
		c0.2-0.1,0.8,0.1,0.3-0.4c-0.1,0.2-0.1,0.3-0.2,0.5c-0.5,0-1.1,0-1.6,0.1c-0.2,0-0.3,0.5-0.4,0.7c-0.8,0-1.7-0.3-2.3,0.6
		c-0.7,0-1.4,0-2.1,0l-0.1-0.2l0.2,0.1c0,0.3,0,0.5,0,0.8C665.7,233.3,665.2,233.3,664.7,233.3z M778,418.7c0.1,0.1,0.1,0.1,0.2,0.2
		C778.2,418.9,778.1,418.8,778,418.7c-0.2-0.7-0.6-0.7-1.4-0.1C777.3,418.7,777.6,418.7,778,418.7z M661.1,234.7
		c-1.3-0.1-2,0.7-2.8,1.9C660.1,236,660.1,236,661.1,234.7c0.8,0,1.4-0.3,1.6-1.6C662,233.8,661.6,234.3,661.1,234.7z M744.7,553.9
		c0-0.2,0-0.5-0.1-0.7c0-0.1-0.2-0.2-0.3-0.2c0,0.1,0,0.3,0,0.3C744.5,553.5,744.7,553.6,744.7,553.9c-0.1,0.9-0.4,1.8-0.6,2.8
		c-0.5-0.5-1.2-0.8-1.5-1.4c-0.9-1.7-1.1-3.5-0.6-5.4c0.6,0.1,1,0.1,1.5,0.2c0,0.3,0.1,0.6,0,0.3c0.1,0.2,0,0-0.1-0.2
		c-0.1-1.1,0-2.2-0.2-3.2c-1.2-6.8-3-13.6-4.1-20.4c-0.7-4.5-1.8-9-2.5-13.5c-0.5-3.1-0.5-6.2-1.1-9.3c-0.4-2.2-0.3-4.2-0.2-6.4
		c0.2-4.7,1.3-9.3,0.1-14c-0.1-0.3-0.1-0.7,0-1.1c0.3-1.1-0.1-2.1-0.5-3.2c-0.4-1.2-0.9-2.5-1.3-3.7c-2-5.5-5.1-10.1-9.9-13.4
		c-1.3-0.9-2.3-1.9-3.1-3.2c0.8-1.1,1.5-0.5,2-0.1c1.3,1,2.5,1.8,4.2,1.9c2.4,0,4.8,0.2,7.2,0.1c4.2-0.3,8.4,0,12.6,0.4
		c5.5,0.6,11,1.3,16.5,1.1c1.2,0,2.4,0,3.6-0.2c3.2-0.7,6.3-1.6,9.4-2.5c0.8-0.2,1.8-0.5,2.2-1c1-1.2,2.3-1.6,3.7-2.2
		c3.1-1.3,5.8-3.4,8.3-5.6c0.5-0.4,1.1-1.1,1.2-1.7c0.6-3,0.6-6-1.7-8.5c-0.7-0.8-1.7-1.5-2.2-2.4c-1.2-2.6-3.3-4.4-5.1-6.5
		c-0.9-1-1.8-1.9-1.8-3.4c0.4,0.2,0.9,0.4,1.2,0.7c0.7,0.8,1.3,1.7,2.1,2.5c1.5,1.6,2.9,3.1,3.9,5.2c0.3,0.6,0.9,1.1,1.4,1.5
		c2.2,1.7,3.7,3.8,4.3,6.5c0.1,0.4,0.3,0.8,0.5,1.5c1.4-1.9,2.7-3.5,3.2-5.5c0.6-2.9,1.3-5.9,1.3-8.9c0-6.8-1.5-13.3-4.9-19.3
		c-4.3-7.6-10.8-12.6-19-15.8c-4.8,2.9-9.5,5.7-14.2,8.6c-0.7,0.4-1.4,0.9-2.2,1.2c-1.5,0.8-3.1,1.4-4.5,2.3
		c-5.9,3.7-12.3,6.4-19,8.4c-4.2,1.3-8.3,2.3-12.7,2c-0.2,0-0.3,0.2-0.7,0.5c0.8,0.7,1.6,1.4,2.3,1.9c5.7-1.6,11.1-2.9,16.5-4.6
		c6-1.8,12-1.9,18.2-1.3c1.4,0.1,2.9,0.3,4.3,0.5c3.5,0.4,6.9,0.9,10.4,1.2c1.6,0.1,3.3,0.5,4.9-0.3c0.1-1.2,0.1-2.4,0.2-3.5
		c0.9,2.1,1.6,4.2,1.4,6.3c1.1,1.3,2.9,1.3,3.5,2.8l0.1-0.1c-3.1-1.2-6.1-2.4-9.2-3.5c-1-0.4-2-0.5-3.1-0.7c-0.2-0.3-0.5-0.4-0.7,0
		c-1.9-0.2-3.8-0.4-5.7-0.5c-9.6-0.8-19.2-0.5-28.5,2.4c-7.7,2.4-15.4,4.5-23.1,6.8c-1.8,0.6-3.6,1.4-5.3,2.3
		c-3.1,1.5-6.2,3.1-9.3,4.7c-3.5,1.8-6.2,4.1-7.5,8.1c-1.3,3.9-1.1,7.5,0.3,11.2c0.6,1.7,1.4,3.4,1.8,5.1c0.5,2.1,1.4,3.8,2.5,5.6
		c1,1.6,1.9,3.3,2.9,4.9c0.2,0.4,0.6,1,0.9,1c1,0.1,1,0.8,1.2,1.5c0.1,0.6,0.3,1.1,0.6,1.7c0.1,0.2,0.3,0.3,0.5,0.4
		c0.2-0.8,0.5-1.6,0.7-2.4c0.5,2.1,0.9,4.1,0.8,6.1c-0.1,2,0.2,3.8,0.8,5.6c1.7,5.1,2.9,10.4,4,15.7c0.5,2.6,1.2,5.1,2.7,7.4
		c0.9,1.4,1.4,3,2.1,4.6c2.3,5.5,4.6,11.1,6.9,16.6c1.6,4,3.4,8,4.2,12.2c0.2,1.1,0.6,2.1,0.6,3.2c0,1.1-0.3,2.3-0.4,3.7
		c2.5,1,4.4,2.9,6.4,4.8c2.2,2.1,4.5,4,6.3,6.4c0.8,1.1,1.7,1.6,3,1.6c1,0,1.9,0.2,2.9,0.1c0.5,0,1.2-0.3,1.6-0.7
		c0.3-0.4,0.3-1.1,0.4-1.6c0.4-0.2,0.8-0.3,1.1-0.6C745.9,555.2,745.8,554.9,744.7,553.9z M708,235.4c0.1,0.1,0.1,0.2,0.2,0.3
		c0,0,0.1,0,0.2,0C708.2,235.7,708.1,235.6,708,235.4c-0.1-0.1-0.1-0.4-0.3-0.5c-2.1-2.2-4.7-1.9-7.3-1.2c-0.5,0.1-1.5,0-1.5,1
		c0.5,0.4,0.9,0,1.3-0.1c2.3-0.8,4.6-1.1,6.7,0.7C707.2,235.4,707.7,235.4,708,235.4z M674,240.5L674,240.5c0.3,0.1,0.6,0.6,1.1,0.2
		c0.2-1,0.1-1.8-0.8-2.5c-0.7,0.1-1.4,0-2.1,0.2c-0.8,0.2-1.6,0.5-1.8,1.5c-0.3,0.1-0.6,0.2-1.2,0.3c0.6,0.1,0.9,0.2,1.2,0.3
		c0,0.3,0,0.5,0,0.8c-0.2,0-0.5-0.1-0.7,0c-0.1,0-0.2,0.2-0.3,0.4c0.2,0,0.5,0.2,0.6,0.1c0.2-0.1,0.2-0.3,0.4-0.5
		C671.7,241,672.8,240.7,674,240.5z M601.2,197.2L601,197L601.2,197.2c-0.1,3,0.1,3.7,1.3,6.6c1.8-1.1,2-1.5,1.4-3
		C603.3,199.5,602.2,198.4,601.2,197.2z M663.2,240.4c0.8,0.3,1.4-0.2,2-0.6c2.8-1.8,5.8-3,9.2-3.2c-0.1-0.5-0.1-0.8-0.3-1.1
		c-0.1-0.3-0.3-0.6-0.5-0.8c-2,0.4-5.7,2.1-8,3.7C664.8,239,664.1,239.8,663.2,240.4c-0.4,0.1-0.8,0.2-0.6,0.8
		c-0.7,0.2-1.4,0.4-2.2,0.7l-0.1-0.1l0.2,0.1c-1,1.8-2.7,2.9-4.3,4.2c-1.2-0.4-2.3-0.4-3.5-0.2c-1.6,0.3-2.6,0.7-2.9,1.9
		c-0.2,0.8-0.2,1.7-0.4,2.5c-0.4,3.1-0.3,6.2-1.1,9.3c-0.3,1.2,0.3,2.2,1.5,2.5c2.1,0.6,2.2,2.3,2.4,4c0,0.3-0.1,0.7-0.1,1.1
		c-0.2,2.7-0.8,5.2-1.9,7.6c-0.3,0.6-0.3,1.3-0.4,1.9c1,0.8,1.9,1,2.8,0.3c1-0.7,1.8-0.4,2.6,0.3c0.1,0.1,0.1,0.4,0.2,0.6
		c-0.5,0.3-1,0.5-1.4,0.8c-0.1,1.4-0.2,2.7-0.4,4c0.7,1,1.8,1.2,2.9,1c0.8-0.2,1.6-0.5,2.4-0.6c0.4-0.1,0.8,0.1,1.3,0.3
		c-0.7,1-1.4,1.3-2.3,1.4c-0.7,0.1-1.5,0.1-2.1,0.5c-0.5,0.3-0.9,1-1.4,1.6c0.5,0.5,0.9,0.8,1.2,1.1c0.4,0.3,0.8,0.6,1.1,0.8
		c-0.2,1-0.4,1.6-0.5,2.3c-0.2,2.2,0.9,3.5,3,3.5c2.1,0,4.3,0.1,6.3-1c1.2-0.6,2.8-0.8,4.2-0.9c0.8-0.1,1.8,0.1,2.3,0.6
		c1.7,1.7,3.4,3.4,4.6,5.4c1.6,2.5,2.8,5.3,3.9,8.1c0.9,2.1,1.3,4.4,1.1,6.7c0,0,0.1-0.1,0.1-0.1c-0.5-0.8-1-1.6-1.5-2.4
		c-0.5-0.8-0.9-1.8-1.6-2.4c-1-0.8,0.1-1.9-0.5-2.7c-0.2-0.3-0.4-0.5-0.8-1c-0.3,0.6-0.5,1-0.6,1.4c-0.9,5.4-1.7,10.9-2.5,16.4
		c-0.1,0.7-0.2,1.4-0.1,2.1c0.2,3.8,1.1,7.3,2.7,10.8c0.2,0.4,0.3,1.2,1.2,1.1c1.1-1.5,1.8-3.2,1.5-5.3c0.6,0.3,1,0.5,1.3,0.7
		c1.3-1.1,2.5-2,3.7-3c0.4-0.3,0.8-0.5,1.3,0.1c-0.5,0.6-1.1,1.2-1.6,1.9c-1.1,1.4-2.1,2.9-3.1,4.4c-0.3,0.5-0.5,1.1,0.1,1.6
		c1.2-0.1,1.9-0.9,2.6-1.8c3.7-4.6,6.2-10,8.1-15.6c0.3-1,0.5-2.2,0.2-3.1c-0.5-1.4-0.3-2.6,0.3-3.8c0.8-1.5,0.9-2.9,0.7-4.5
		c-0.2-1.6,0.1-3.1,0.8-4.5c0.8-1.9,1.6-3.7,2.5-5.6c0.5-1,0.6-2,0.6-3.1c0-6.2-2.1-11.7-5.4-16.9c-1.7-0.2-3.5,0.1-5-0.8l0.1,0.1
		c0-0.6,0-1.2,0-1.8c2.5,0.9,2.5,0.9,3.6-0.8c-0.6-1.2-1.2-2.5-1.7-3.6c-1.4-0.5-2.7-0.9-3.2-2.4c0.4-0.6,0.8-1.3,1.2-2.1
		c-0.6-1.3-1.1-2.7-2.1-3.7c-3.1,0.6-3.1,0.6-5.4-1.3c1.8,0.6,2.9,0.5,4-0.6c-0.9-0.1-1.6,0-2.2-0.2c-0.7-0.1-1.4-0.4-2-0.7
		c-1.2-0.5-2.4-1.1-3.6-1.6c-1.3-0.6-2.6-1.2-3.8-2c-0.5-0.4-0.7-1.4-1-2.1c-0.1-0.2-0.2-0.6-0.3-0.6c-2.1-0.7-2.3-2.9-3.3-4.4
		c-0.7-1.2-1.1-2.6-0.8-4.2c0.5,0.9,1,1.7,1.5,2.7c2.4-1,4.9-0.6,7.4-0.4c0.2,0,0.5,0,0.7-0.1c0.2-0.1,0.3-0.3,0.6-0.7
		c-0.3-0.4-0.6-0.8-0.9-1.2c-2.4,0.7-4.7,0.9-6.9,0.6c-0.4,0-0.7-0.4-1.2-0.6c1-0.6,1.8-1.1,2.5-1.5c1.2-0.1,1.2-0.1,1.8-0.9
		c-0.8,0-1.7-0.2-1.7,1c-0.5-0.1-0.9-0.2-1.4-0.3c-2.5-0.6-4.8-0.6-7,1c-0.6,0.5-1.6,0.1-1.8-0.9c0.8-0.9,1.5-1.8,2.2-2.7
		C663,241.2,663.3,241,663.2,240.4z M703.7,237.6c-1.2-0.1-2.3-1.5-3.8-0.3c0.3,0.2,0.5,0.4,0.8,0.5c1.5,0.4,2.3,1.3,1.9,2.9
		c-0.2,0.8,0.2,1.4,0.7,1.9c1.8,2.2,2.9,4.7,3.5,7.4c0.5,2.4,1.8,4.5,3.3,6.3c1.6,1.9,3.1,3.9,4.4,6.1c0.2,0.4,0.5,0.8,1.4,0.5
		c0.3-2.7,0.7-5.6,0.9-8.4c0.2-2.1,0.3-4.4-0.1-6.5c-0.8-5.2-2.9-9.7-8.5-11.3c-0.2-0.1-0.4-0.2-0.7-0.3c-1.4-0.4-2.8-0.6-4.2-0.2
		C703.4,236.8,703.5,237.2,703.7,237.6L703.7,237.6z M671.9,153L671.9,153c0.2-0.5,0.4-1,0.5-1.7c-0.3-0.3-0.6-0.7-0.9-1
		c-0.4-0.4-0.9-0.7-1.5-1c-1.3,1-2.6,2-3.9,3l0.1,0.1c-0.1-0.8,0.3-1.4,0.8-1.9c0.6-0.7,1.2-1.4,1.9-2.2c-1.8-1.5-3.4-2.9-5.1-4.3
		c-3.1-2.5-6.2-4.9-9.3-7.3c-0.1-0.1-0.2-0.1-0.3-0.1s-0.2,0.1-0.5,0.2c-0.8,1.8-1.7,3.8-2.6,5.7c4.1,4.4,8.7,8.2,13.1,12
		c1.3,1.2,2.6,2.4,3.9,3.6c2.2,2,4.4,4.1,6.6,6.1c0.7,0.7,1.3,1.4,2,2c1.5,1.3,6.7,1.3,8.2,0.1c1.4-1.1,1.7-2.7,1.3-4.2
		c-0.6-2-0.7-4.2-2.5-5.9c-2,0.5-4.1-1.4-6.6-0.2c-0.1,1-0.2,1.9-0.2,2.8c-0.1,2.1,1.5,3.7,2,5.5c-1,0.6-1.6,0.1-2.1-0.4
		c-1.2-1.2-2.1-2.7-2-4.5c0.1-1.9,0.3-3.8,0.6-6c-0.5-0.3-1.2-0.9-1.8-1.4C672.9,152.4,672.4,152.7,671.9,153z M663.3,157.4
		c0.2,1.2-0.5,2-1.1,2.9c-0.8,1.3-0.7,2.5,0.3,3.6c0.4,0.5,1,0.9,1.7,1.6c-0.8-2.8-0.8-2.8-0.6-3.7c0.3-1.1,0.7-2.2,1.1-3.4
		C664.2,158.1,663.7,157.8,663.3,157.4c-0.2-0.1-0.3-0.5-0.4-0.5c-1.4,0.3-2.8,0.5-4.2,0.8c-3.1,0.8-4,2.2-3.7,5.5
		c0.1,1.3,0.4,2.6,0.3,3.9c-0.1,2.1,0.6,4,1.6,5.7c5.1,1.1,8.3,4.1,10.3,8.7c0.4,1,0.7,2.1,1,3.1c0.5,1.2,1,2.4,1.5,3.6
		c0.4,1.2,0.8,2.4,1.2,3.7c1.8-2,1.9-2.4,1.7-4.9c-0.1-0.7,0.1-1.1,0.6-1.5c0.4-0.4,0.8-0.9,0.9-1.4c1.2-4.8,2.3-9.5,3.2-14.5
		c-1.9-1.9-3.8-3.8-5.7-5.6c-0.1-0.1-0.4,0-0.6,0c0.8,2.8,0.6,3-2.2,2.5c-0.7,0.4-1.4,0.8-2.1,1.2c-1.5-0.7-2-0.8-3.6-0.8
		c-0.7-1-1.7-2.2-2.3-3.4c-0.7-1.2-0.8-2.5,0.2-3.7C661.7,159.2,662.5,158.3,663.3,157.4z M622.1,101.1L622.1,101.1
		c0.7-0.9,1.2-1.9,1.9-2.9c-0.5-0.6-0.9-1.2-1.4-1.7c0,0-0.2,0,0.3-0.1c-1.9,1.7-3.4,3.1-4.9,4.4c-0.7,0.6-1.3,1.4-2.4,1.2
		c-0.2-0.9,0.5-1.3,1-1.8c1.4-1.6,2.9-3.2,4.3-4.8c0.2-0.2,0.2-0.6,0.4-1.1c-0.7-0.8-1.3-1.6-2.1-2.5c-2.6,3-4.9,5.7-7.4,8.6
		c0.7,0.8,1.3,1.5,1.8,2.1c0.9-0.3,1.6-0.5,2.2-0.7c-0.4,0.7-0.9,1.3-1.4,2.2c1.6,2.2,3.1,4.5,4.8,6.6c2.1,2.8,4.3,5.5,6.5,8.2
		c1.9,2.4,3.9,4.6,6.3,6.3c1,0.7,1.7,1.7,2.6,2.4c0.9,0.7,2,1.2,3,1.9c0.3,0.2,0.5,0.5,0.8,0.8c2.1,2.7,5,4.5,7.3,6.9
		c0.2,0.2,0.6,0.3,1.1,0.5c0.5-0.7,0.9-1.4,1.3-2.1c0.3-0.8,0.5-1.6,0.8-2.4c0.3-0.8,0.8-1.5,1.1-2.2c-0.2-0.4-0.3-0.8-0.5-1
		c-3.4-4-6.7-8.1-10.3-12.1c-2.7-3-5.3-6.2-7.7-9.5c-1.7-2.3-3.4-4.7-5.1-7c-0.4-0.6-0.9-1.1-1.3-1.5
		C623.7,99.8,623.3,101.4,622.1,101.1z M668.2,522.8c0.1-0.1,0.3-0.1,0.3-0.2c0.8-2.1,0.8-4.1-0.6-6c-0.7-1-1.3-2-1.6-3.2
		c-0.5-2.3-0.9-4.7-1.1-7.1c-0.3-2.7-0.2-5.5-0.4-8.3c-0.4-5.1,0.7-10,1-15c0.1-1.2,0.6-2.3,1-3.5c0.6-2.1,1.2-4.1,1.8-6.2
		c0.2-0.6,0.3-1.2,0.6-1.7c1.1-1.6,1.2-3.4,1.1-5.2c-0.1-3.4-0.7-6.7-1.8-9.9c-0.3-1-0.9-2-1.6-2.8c-1.8-2.1-3.9-3.9-4.7-6.7
		c-0.1-0.4-0.6-0.7-1-1c-0.4-0.4-0.9-0.7-1.6-1.2c0.7-0.1,1.1-0.2,1.4-0.1c2.7,0.7,5.3,0.2,7.8-0.4c2.6-0.7,5.2-0.6,7.8-0.1
		c1.8,0.3,3.5,0.7,5.3,0.9c2,0.2,4,0.6,5.9,0c0.7-2.5,1.4-4.8,2.1-7.1c0.2-0.7,0.6-1.4,1.1-1.8c1.1-0.9,2.3-1.7,3.5-2.5
		c3.2-2.1,6.7-3.8,10.2-5.4c1.6-0.8,3.2-1.7,5-1.9c1-0.1,2-0.8,3-1.3c1.1-0.5,2.3-0.8,3.1-1.9c-0.2-3.6-1.7-6.7-3.4-9.7
		c-0.8-1.4-2-2.7-2.3-4.4l-0.1,0.1c0.9,0.1,1.2,1.5,2.6,1.1c-0.8-2.2-1.8-4.1-3.9-5.3c-0.2,0.5-0.4,0.8-0.5,1
		c-2.7-1.1-2.7-1.1-5.8-0.8c-0.8,0.1-1.7,0.1-2.5,0.2c-2.3,0.2-4.5,0.4-6.8,0.6c-1.7,0.2-3.3,0.4-5,0.7c-1.5,0.3-3,0.4-4.5,1.2
		c-1.4,0.8-3.3,0.6-4.9,1.1c-5.5,1.7-11,3.4-16.5,5.2c-0.5,0.1-0.9,0.4-1.3,0.6c-2.6,1.1-5.2,2.5-7.9,3.4c-6.1,2-11,5.8-15.4,10.2
		c-2.2,2.3-3.1,4.8-2.6,7.8c0.1,0.4,0,0.7,0.1,1.1c0.2,1.7,0.5,3.2,1.5,4.7c1.1,1.5,1.6,3.5,1,5.5c-0.2,0.7-0.1,1.4,0,2.1
		c0.4,3.4,1.7,6.7,1.1,10.3c0,0.2,0.1,0.5,0.2,0.7c1.7,4,2.8,8.2,3.9,12.3c1.8,6.7,3.4,13.5,5,20.3c1.6,6.8,2.2,13.8,1.5,20.8
		c-0.1,0.6-0.1,1.2-0.2,1.9c0.9,0.7,1.7,1.3,2.3,1.8c0.6,1.4,1,2.6,1.6,3.6c0.3,0.6,0.9,1.2,1.5,1.5c2.1,0.9,4.2,1.8,6.4,2.5
		c2.5,0.8,4.7,0,6.8-1.4c0.4-0.3,0.5-1,0.7-1.5L668.2,522.8z M736.6,331c-0.1-2.6-0.2-5.1-0.3-7.6c-0.2-3-0.4-6-0.6-9
		c-0.1-1.3-0.2-2.7,0-3.9c0.2-1.3,0.1-2.4-0.3-3.5c-0.4-1.5-0.9-3-1.3-4.5c-1-3.2-2-6.4-3-9.6c-0.3-0.8-0.6-1.8-1.2-2.2
		c-2.6-1.8-3.8-4.6-5.8-6.8c-1.2-1.4-2.1-3.2-3-4.9c-2.3-4.6-4.6-9.3-7.4-13.6c-1.2-1.9-2.5-3.8-4.2-5.4c-1.6-1.5-2.7-3.4-3.5-5.4
		c-1.3-3-2.7-5.9-4.1-8.8c-0.3-0.7-0.6-1.4-1.1-1.9c-1.5-1.5-2.2-3.4-2.9-5.3c-1.5-3.8-3-7.6-3.9-11.6c-0.3-1.5-0.9-3-1.5-4.4
		c-1.6-3.8-3.3-7.5-4.8-11.3c-1.7-4.4-2.9-8.9-3.6-13.6c-0.2-1.2-0.4-2.4-1.1-3.9c-0.4,1-0.6,1.5-0.8,2.1c-0.4,1.6-0.7,3.3-1.1,4.9
		c-0.6,2.2-2.5,4.6-5.6,3.7c-0.6-0.2-1.2-0.8-2.1-0.1c0.2,1.9,0.5,3.9,0.6,5.9c0.5,6.8,1,13.7,2.2,20.4c0.3,1.8,0.8,3.5,0.3,5.4
		c-0.1,0.5,0.1,1.2,0.3,1.7c2,6.5,3.8,13.2,7.4,19.1c2.3,3.7,3.9,7.7,5.7,11.6c2.6,5.5,5.3,11,7.9,16.6c0.7,1.4,1.5,2.9,1.6,4.3
		c0.2,1.9,0.7,3.8,1,5.6c0.3,1.9,0.6,3.8,0.9,5.7c0,0.2-0.1,0.3-0.2,0.5c-0.4-0.8-0.8-1.7-1.3-2.5c-2.2,2-2.6,2.5-2.7,5.3
		c-0.1,3.5,0.1,7,0,10.5c-0.2,4.3,2.2,7.3,4.9,10c2,2,4.5,3.6,7,5c5.3,2.9,11.1,4.6,17.1,5.5c3.3,0.5,6.2-0.5,8.7-2.6
		C735.5,331.9,736.1,331.4,736.6,331z M677.2,339.9c-4.2-5.4-5.7-13.4-3.9-19.7c0.5-2,1-4,1.3-6c0.5-2.6,0.8-5.2,1.3-7.8
		c0.2-1.3,0.6-2.5,1-3.9c-1.4-3.3-3.5-6.3-6.5-8.8c-0.6,0.4-1.2,0.8-1.8,1.2c2.6,4.1,3.2,8.6,3.4,13.2c0.2,4.3-0.5,8.6-1.2,12.9
		c-0.7,3.9-1.3,7.8-2.9,11.5c-1.2,2.7-1.6,5.8-2.5,8.6c-1,3.4-1.2,6.9-1.2,10.3c0,2,0.6,4,1.2,6c0.3,1,1,1.9,1.7,2.7
		c4,3.9,8.5,7,14,8.4c0.9,0.2,1.9,0.6,2.5,1.3c1,1.2,1.8,2.5,2.6,3.9c0.5,0.9,0.8,2,1.3,3c1,0.3,1.9,0.7,2.8,0.8
		c5,0.7,10,1.6,15,0.9c3.6-0.5,7.1-0.9,10.4-2.6c5.7-2.8,11.5-5.5,17.2-8.3c1.5-0.7,2.9-1.7,4.2-2.8c0.7-0.6,1.6-1.3,1.8-2.2
		c0.4-1.4,1.7-2,2.5-3.5c-3.5-8.2-4.3-17.1-4.7-26.5c-0.6,0.5-1,0.8-1.3,1.1c-3.3,3-7,4.6-11.5,2.6c-0.6-0.3-1.4-0.2-2.1-0.3
		c-6.1-1-11.9-2.7-16.8-6.8c-0.5-0.4-0.9-0.8-1.5-1c-3.7-1.6-5.6-4.7-7.5-8c-0.2-0.4-0.1-1.2-1.1-1.2c-0.4,1.1-0.8,2.2-1.2,3.3
		c-2,5.7-4.7,11-8.9,15.5c-1.6,1.7-3.3,2.8-5.7,2.3C678.5,340,677.9,339.9,677.2,339.9z M688,379.3c-0.9,0.8-0.8,1.7-0.4,2.7
		c1.5,3.5,3.4,6.6,6.6,8.8c2.2,1.5,4.2,3.2,6.5,4.5c3,1.6,5.5,3.9,8.3,5.8c1,0.7,1.8,1.4,2.1,2.8c0.2,0.9,0.9,1.7,1.5,2.4
		c1.2,1.6,2.5,3.2,3.7,4.9c0.8,1.2,1.6,2.4,2.4,3.6c0.6,0.9,1.4,1.7,2.5,1.9c2.4,0.3,4.7,0.9,7.1,0.7c5.4-0.4,10.2-2.4,15.1-4.5
		c0.1,0,0.2-0.1,0.3-0.2c5.4-3.3,10.9-6.6,16.3-9.9c1.3-0.8,2.8-1.4,4.1-2.1c2.6-1.4,5.2-2.8,7.7-4.4c-0.3-1.1-1.1-1-1.8-1.2
		c-2.6-0.8-5.3-1.7-7.4-3.5c-3.2-2.7-6.4-5.4-8.7-9c-0.4-0.7-1.2-1.2-1.7-1.9c-0.6-0.9-1.4-1.7-1.8-2.7c-1.4-4.1-3.9-7.7-5.6-11.7
		c-0.5-1.1-1.1-2.2-1.7-3.2c-0.3-0.5-0.8-0.8-1.2-1.1c-0.5,0.2-0.7,0.2-0.9,0.3c-0.7,0.7-1.4,1.4-1.9,2.1c-2,2.6-4.7,4.4-7.7,5.8
		c-3,1.4-6,3-8.7,4.3c-0.8,1.2-0.3,2.7-1.6,3.3c-0.4-0.7-0.7-1.3-1.1-2c-1.8,0.8-3.5,1.4-5.1,2.1c-3,1.3-6.2,1.9-9.5,2
		c-3.5,0.1-7,0.1-10.5,0C692.8,379.8,690.4,379.5,688,379.3z M575.9,152.8c0.4,0.7,0.5,1,0.7,1.3c3.2,2.9,6.2,6,9.5,8.7
		c4.3,3.6,8.7,7.1,13.2,10.5c1.1,0.8,1.7,1.6,1.7,2.9c0,0.5,0.2,0.9,0.3,1.3c1.1,0.5,2,1,3,1.4c1.6,0.6,3.2,0.8,4.8-0.4
		c0.6-0.5,1.4-0.8,2.1-1.2c0.2-1,0.5-1.9,0.7-2.8c0.3-1.4-0.1-2.5-1.2-3.5c-1.3-1.1-2.5-2.3-3.7-3.4c-3.6-3.3-7.1-6.8-10.8-10
		c-3.2-2.9-6.6-5.5-10-8.3c-0.7-0.6-1.4-1.2-2-1.8c-1,0.8-1.2,2-2.5,2.2C579.5,149.9,577.9,151.5,575.9,152.8z M595.3,212.6
		c5.6,1.1,10.8,0.4,15.8-1.7c2.5-1,5.1-2.3,5.9-5.2c-1-4.4-2-8.7-3-13c-1-4.3-0.5-8.8-1.6-13.1c-2.4,0.8-4.6,1.6-7,2.4
		c-0.3,2.3,0.2,4.6,0.5,7c0.3,2.9,0.7,5.7,1.1,8.6c0.3,2,0.1,4.1-0.4,6.1c-1,0.8-2,1.7-3.1,2.4c-1,0.7-2.1,1.1-3.2,1.7
		c-2,1.1-4.2,1.8-6.4,2.4c-0.1,0-0.2,0.3-0.3,0.4C594.2,211.2,594.7,211.9,595.3,212.6z M679.6,170.9c-0.2,0.9-0.3,1.6-0.4,2.3
		c-1.1,6-2.4,12-4.3,17.9c-1.2,3.8-3.8,5.9-7.7,6.5c-0.9,0.1-1.8,0.2-3.3,0.4c4.5,2.6,9.2,2.6,13.3,4c1.1-0.9,1.3-1.9,1.6-3
		c1.1-3.9,2.3-7.8,3.5-11.8c1.1-3.7,2.2-7.4,3.1-11.1c0.5-2.2,0.7-4.5,1-6.8c0-0.2-0.1-0.4-0.2-0.8
		C683.9,168.9,681.9,169.9,679.6,170.9z M589.9,177.9c0.4,1.1,0.5,2.8,0.5,4c0,1.1,0,2.2,0,3.2c0.1,1.4,0.4,2.9,0.4,4.3
		c0,3.7,0.5,7.4,1.1,11.1c0.2,1.4,0.4,2.8,0.5,4.3c0.1,1.3,0.5,2.3,1.6,3.1c2.3-0.4,4.4-1.4,6.2-2.7c-0.5-3-0.9-5.7-1.3-8.4
		c-0.2-1.3-0.3-2.6-0.4-3.9c-0.1-1.2-0.6-2.2-1.5-3.2c-1.6-1.6-3-3.4-4.3-5c-0.1-2.8,0.4-5.2,1.3-7.2c-1.1-2.5-2.1-4.6-3.2-7.2
		c-0.7-0.5-1.8-1.4-3.6-2.8c0.9,1.9,1.4,3.1,2,4.2c0.6,1.2,1.2,2.4,1.7,3.6c0.5,1.1,1.5,2.1,1.2,3.6
		C591.3,178.6,590.8,178.4,589.9,177.9z M660.4,194.8c2.3,0.3,4.7,0.3,7.1,0.1c0.5,0,1-0.4,1.6-0.7c-0.1-0.9,0-1.6-0.2-2.3
		c-0.6-2.4-1.4-4.8-2.1-7.2c-0.1-0.2-0.2-0.6-0.3-0.6c-1.6-0.6-1.5-2.3-2.1-3.5c-0.8-1.5-1.5-3-3.6-3.1
		C659.4,181.6,659.2,189.8,660.4,194.8z M596.3,176c-1.8,2.7-0.6,5.8-1.5,8.7c1.4,1.5,2.5,3.1,3.9,4.4c1.3,1.3,2.2,2.8,3,4.4
		c0.3,0.7,0.5,1.3,0.8,2c0.4,0.9,1.2,1.3,2.1,1.8c-0.4-5.5-0.8-10.6-1.2-15.7c0-0.3-0.1-0.7-0.3-1c-0.4-0.6-0.8-1.2-1.7-1.2
		c-0.3,0-0.6,0-0.9,0c-0.4-0.8-0.8-1.6-1.2-2.2C598.4,176.8,597.4,176.4,596.3,176z M653.4,170.5c-1.3,2.6-1.7,5.5-1.8,8.3
		c-0.3,4.5-0.3,9.1,0.7,13.4c1.4,1.2,2.7,1.9,4.3,1.8c0.8-1.2,0.4-2.4,0.3-3.6c-0.3-4.8,0-9.6,1.9-14.1c0.1-0.2,0-0.4-0.1-0.9
		c-1.3-0.7-2.6-1.4-3.8-2C654.2,172.5,654.8,171.1,653.4,170.5z M659.5,155.3c0.5-1.2-0.1-1.8-0.8-2.4c-1.7-1.5-3.4-3-5.1-4.5
		c-0.3-0.3-0.6-0.8-1.3-0.2c0.4,1.8,0.9,3.6,1.2,5.4c0.3,1.8,0.3,3.7,0.4,5.6C655.4,157.1,657.4,155.9,659.5,155.3z M666.4,160.2
		c-0.6,1.8-0.7,3.2,0.3,4.6c0.5,0.7,1.2,1,2.1,0.7C668.9,161.8,668.9,161.8,666.4,160.2z M651.5,134.3c-1.3,0.9-1.6,2.2-2.3,3.3
		c-0.8,1.4-0.4,2.5,0.8,3.6c1.2-1.9,1.1-4.4,3.1-6C652.4,134.8,651.9,134.5,651.5,134.3z M721.6,422c-1.6-1.5-3.1-2.9-4.6-4.3
		c-0.1,0.5-0.3,0.7-0.3,0.9c0.5,1.5,1,2.9,1.4,4.4c0.5,0,0.9,0,1.2-0.1C720.1,422.6,720.7,422.4,721.6,422z M574.8,152.4
		c1.6-1.4,3.1-2.8,4.7-4.2c-0.5-0.2-0.8-0.5-1-0.4c-1.9,0.8-4.8,2.8-4.9,3.5C574,151.6,574.4,152,574.8,152.4z M681.1,254.9
		c-0.7-0.7-0.9-1.2-1.2-1.2c-0.9-0.1-1.9,0-2.8,0c-0.9,0-1.7,0-2.6,0.1C676.4,255.3,678.5,254.8,681.1,254.9z M668.4,249.6
		c1.8,1.2,3.5,1.1,6,0.6c-1.7-0.6-2.7-1-3.7-1.2c-0.5-0.1-0.9-0.1-1.4,0C669,249.1,668.9,249.3,668.4,249.6z M574.9,147.8
		c-1.6,0-1.6,0-3.3,0.8c0.2,0.8,0.6,1.3,1.4,0.8C573.7,149.1,574.2,148.4,574.9,147.8z M674.3,243.6c0.7,0.6,1.2,1.2,2.3,0.8
		c-0.2-0.6-0.3-1.1-0.5-1.9C675.3,243,674.8,243.3,674.3,243.6z M699.1,471.9c-0.1,0.1-0.2,0.2-0.2,0.3c0.2,1,0.5,2,0.7,2.9
		C699.8,474,700,472.8,699.1,471.9z M695.3,311.5c0.1-0.2,0.2-0.2,0.2-0.3c-0.1-0.2-0.2-0.5-0.2-0.7
		C695.3,310.8,695.3,311.1,695.3,311.5z M675.9,249.3c0.2-0.1,0.3-0.2,0.5-0.3c0,0,0-0.1-0.1-0.2c-0.2,0.1-0.3,0.1-0.5,0.2
		C675.8,249,675.8,249.2,675.9,249.3z M671.7,233.6l0.3,0.1l0-0.2L671.7,233.6z M648.5,144.1c-0.1,0.1-0.2,0.2-0.2,0.2
		c0,0.2,0.1,0.4,0.1,0.6c0.1-0.1,0.2-0.1,0.2-0.2C648.6,144.5,648.5,144.3,648.5,144.1z M595,174.4c0.1-0.1,0.2-0.1,0.2-0.2
		c0-0.1,0-0.2,0-0.3c-0.1,0.1-0.2,0.1-0.3,0.2C594.8,174.2,595,174.3,595,174.4z M669.2,238.6l0.2,0.1l0-0.2L669.2,238.6z"/>
	<path d="M257.6,76.6c-0.1-0.7-0.3-1.5-0.1-2.1c1.2-5.2,1-10.5,1.5-15.8c0.2-1.7,0.2-3.4,0.3-5c0.1-0.8,0.4-1.5,0.7-2.6
		c0.4,0.5,0.8,0.8,0.8,1c-0.3,5.8-0.7,11.5-1,17.3c-0.1,2.2-0.5,4.3-1.4,6.3C258.3,76,257.8,76.2,257.6,76.6L257.6,76.6z"/>
	<path d="M261.1,38.5c0.7-0.2,1.5-0.2,2,0.4c0.8,0.9,1.7,1.8,2.3,2.8c1.8,2.9,1.4,6.5-3.1,8.4c-0.2,0.1-0.5,0.1-0.7,0
		c-0.2-0.1-0.4-0.2-0.6-0.4c0.8-0.9,1.6-1.8,2.2-2.8c0.8-1.3,1-2.6,0.2-4.1c-0.8-1.5-1.5-3-2.2-4.5L261.1,38.5z"/>
	<path d="M102.4,49.2c-1.7-2.7-3.4-5.3-5-8.1c2.4,1.1,2.5,1.2,5.1,6.4c1.2,0.8,2.7,0.3,4.7,0.7c-1.6,0-2.6-0.1-3.5,0
		C103.2,48.4,102.8,48.9,102.4,49.2L102.4,49.2z"/>
	<path d="M333.3,28.8c0,0.6-0.3,0.9-0.9,0.9c-2.6-0.1-4-1.9-3.3-4.3c0.6-2,1.8-3.4,3.7-4c0.3-0.1,0.7,0.1,1.2,0.1
		c-0.4,0.5-0.7,0.9-1.1,1.2c-0.5,0.4-1,0.6-1.4,1.1c-0.9,0.9-1.4,2.1-1.1,3.3c0.4,1.4,1.5,2.1,3,2L333.3,28.8z"/>
	<path d="M333.4,29c-0.3-1-0.6-2-0.8-3.1c-0.2-0.9-0.3-1.9,0.5-2.6c0.2,0,0.4,0,0.4,0c1,2.3,2,4.5,2.9,6.8c-0.5,0.7-1.1,0.4-1.5,0.1
		c-0.6-0.4-1.1-0.9-1.6-1.4L333.4,29z"/>
	<path d="M557.7,20.1c1-2.7,3.8-3.9,4.5-6.7c1.2-0.2,1.4,0.5,1.2,1.3c-0.1,0.6-0.5,1.1-0.8,1.5C561.3,17.9,559.5,19,557.7,20.1z"/>
	<path d="M598.3,60c0,0.1,0.1,0.3,0.1,0.3c-1.2,2.4-3.1,4.1-5.4,5.4c-0.2-0.3-0.4-0.6-0.4-0.7C594.1,63,595.8,61,598.3,60L598.3,60z
		"/>
	<path d="M715.3,571.8c-1.7,0.1-3.3-0.1-4.8-0.8c-0.3-0.1-0.5-0.7-0.6-1.1c0-0.2,0.5-0.6,0.8-0.6c1.7,0.1,3.3,0.3,4.5,1.6
		C715.3,571.1,715.3,571.4,715.3,571.8z"/>
	<path d="M634.8,245c2.3-0.7,3.4-0.5,5.9,1c-0.1,1-0.9,1.1-1.5,0.9c-0.7-0.2-1.3-0.6-1.9-0.9C636.6,245.7,635.9,245.5,634.8,245z"/>
	<path d="M265.9,425.8c0.4-0.6,1-0.8,1.4-0.2c0.7,1.1,1.2,2.2,1.8,3.3c-0.5,0.8-0.9,0.1-1.1-0.1C267,428,265.9,427.3,265.9,425.8z"
		/>
	<path d="M146,8.6c0.4,2.2,0.4,3.8,0.2,5.7C144.9,10.8,144.9,10.8,146,8.6z"/>
	<path d="M273.2,517.1c0.2,1.2,0.5,2.1,0.6,3c0,0.2-0.3,0.7-0.6,0.8c-0.2,0.1-0.7-0.2-0.8-0.4C272,519.3,271.8,518.2,273.2,517.1z"
		/>
	<path d="M710.2,573.4c-0.9,0.7-1.7,0.6-2.4,0.1c-0.3-0.2-0.5-0.8-0.5-1.2c0-0.4,1-0.7,1.5-0.3C709.2,572.4,709.7,572.9,710.2,573.4
		z"/>
	<path d="M284,448c0.2,1.7-0.8,2.7-2.5,3.9C282,450,282.9,448.9,284,448z"/>
	<path d="M280.5,453.1c0.5,1.5-0.4,2.2-1.5,2.9C279.1,454.3,279.1,454.3,280.5,453.1z"/>
	<path d="M105.4,39.7c-0.5-0.5-0.9-1-1.4-1.5c0.3-0.8,0.6-1.4,1-2.4C105.2,37.4,105.3,38.6,105.4,39.7L105.4,39.7z"/>
	<path d="M274.5,505.9c0.5,1,0.3,1.8-0.7,2.6C273.7,507.4,273.6,506.6,274.5,505.9z"/>
	<path d="M480.7,19.6c0.7-0.8,1.5-1.6,2.7-2.9C482.4,19,482.4,19,480.7,19.6L480.7,19.6z"/>
	<path d="M277.3,459.6c-0.1-0.3-0.2-0.4-0.2-0.5c0-0.5,0-0.9,0.6-1c0.1,0,0.2,0,0.3,0.1c0.4,0.5,0,0.8-0.3,1.1
		C277.7,459.4,277.6,459.4,277.3,459.6z"/>
	<path d="M127.7,13.1c-1.2-0.6-0.8-1.6-0.9-3.3C127.8,11.3,127.9,12.2,127.7,13.1L127.7,13.1z"/>
	<path d="M272.7,430.2c-0.1,0.3-0.2,0.5-0.3,0.7c-0.3-0.3-0.6-0.5-0.9-0.8c0.2-0.1,0.4-0.4,0.4-0.3
		C272.3,429.8,272.5,430,272.7,430.2z"/>
	<path d="M276.1,432.1c-0.2,0-0.4,0.1-0.6,0c-0.1,0-0.1-0.3-0.1-0.5c0.1,0,0.2,0,0.3,0C275.9,431.8,276,432,276.1,432.1z"/>
	<path d="M106.1,41.9c-1-0.5-0.7-1.4-0.7-2.2l-0.1,0.1C105.6,40.5,105.8,41.2,106.1,41.9L106.1,41.9z"/>
	<path d="M267.7,360.3c-0.6-0.1-1.2,0-1.5-0.7l-0.1,0.1c0.5,0,1-0.1,1.6-0.1c0,0.3-0.1,0.5-0.1,0.8L267.7,360.3z"/>
	<path d="M275.9,463.1c0.1,0,0.2,0,0.2,0c0,0.1,0.1,0.2,0,0.3c-0.2,0.3-0.3,0.3-0.4-0.1C275.8,463.3,275.9,463.2,275.9,463.1z"/>
	<path d="M276,468c-0.2-0.8-0.2-1.1-0.3-1.4c0.2,0,0.3,0,0.5,0C276.2,466.9,276.2,467.2,276,468z"/>
	<path d="M274.1,512.5c-0.1,0.1-0.2,0.2-0.3,0.2c-0.1-0.2-0.2-0.4-0.3-0.6c0,0,0.2-0.1,0.3-0.2C273.9,512.1,274,512.3,274.1,512.5z"
		/>
	<path d="M257.5,76.5c0.1,0.6,0,1.2-0.6,1.6l0.1,0.1C256.8,77.5,257,77,257.5,76.5L257.5,76.5z"/>
	<path d="M479.9,20.4c-0.2,0.1-0.4,0.3-0.2,0.1c-0.2,0,0.1,0,0.3,0L479.9,20.4z"/>
	<path d="M487.2,24c0.3-0.7,0.9-0.6,1.4-0.6l0-0.1C488.1,23.5,487.6,23.7,487.2,24L487.2,24z"/>
	<path d="M135,44.1c-0.6-0.1-1.3,0.2-1.5-0.7l0,0.1c0.5,0.2,1,0.5,1.5,0.7L135,44.1z"/>
	<path d="M106,42c0.1,0.2,0.3,0.5,0.2,0.3C106.2,42.4,106.2,42.1,106,42L106,42z"/>
	<path d="M489.9,30.4c-0.2,0.2-0.3,0.3-0.5,0.5c0.1-0.1,0.2-0.1,0.3-0.2C489.7,30.5,489.8,30.5,489.9,30.4L489.9,30.4z"/>
	<path d="M491.4,29.7c-0.5,0.2-1,0.4-1.5,0.7l0.1,0.1C490.5,30.2,491,30,491.4,29.7L491.4,29.7z"/>
	<path d="M127.6,13.2c0.1,0,0.2,0.1,0.3,0.1C127.8,13.2,127.8,13.1,127.6,13.2L127.6,13.2z"/>
	<path d="M480.6,19.5c-0.2,0.3-0.5,0.6-0.7,0.8l0.1,0.1C480.2,20.2,480.5,19.9,480.6,19.5L480.6,19.5z"/>
	<polygon points="488.7,23.4 488.7,23.2 488.6,23.3 	"/>
	<polygon points="487.1,23.9 487,24 487.2,24 	"/>
	<path d="M492.1,28.9c-0.2,0.3-0.5,0.5-0.7,0.8l0.1,0.1C491.7,29.5,492,29.2,492.1,28.9L492.1,28.9z"/>
	<polygon points="102.3,49.3 102.5,49.3 102.4,49.2 	"/>
	<path d="M599,59.3c-0.2,0.2-0.5,0.5-0.7,0.7l0,0C598.3,59.5,598.5,59.3,599,59.3L599,59.3z"/>
	<path d="M597.7,65.2c0-0.2,0.1-0.3,0.1-0.5c0,0.1,0,0.1,0,0.2C597.7,65,597.7,65.1,597.7,65.2L597.7,65.2z"/>
	<path d="M325.6,334.7c-1.6,0.6-3.1-0.9-4.9,0.1c-0.5,3.3-0.1,6.9-0.9,10.3c0-3.4,0-6.9,0-10.3c-0.4-0.3-0.7-0.5-1-0.8
		c-0.3-0.2-0.5-0.4-0.8-0.7c0.2-0.2,0.3-0.4,0.5-0.4c0.5-0.1,1-0.2,1.4-0.1c1.6,0.4,3.2,0.8,4.8,1.2
		C325,334.2,325.3,334.4,325.6,334.7z"/>
	<path d="M315.5,439.3c0.7,0.2,0.9,0.7,0.9,1.4c-0.1,2.2-0.9,4.1-3,5.5c-0.1-0.7-0.4-1.4-0.2-1.7c1.1-1.4,1.4-2.9,1.6-4.5
		C314.9,439.7,315.3,439.5,315.5,439.3z"/>
	<path d="M274,330.5c0.2,3.9,1,7.5,0.8,11.9c-0.6-1-1-1.4-1-1.9c-0.2-3.1-0.3-6.2-0.4-9.3C273.4,331.1,273.7,330.9,274,330.5z"/>
	<path d="M319.6,350.2c0.7,2.3,1.4,4.6,0.3,6.8c-0.7,0.2-1.1-0.2-1.1-0.7c0-1.9,0.2-3.8,0.3-5.7
		C319.2,350.5,319.5,350.4,319.6,350.2L319.6,350.2z"/>
	<path d="M336.9,458.1c1.5,2.2,2,4.5,2,7c-1.1-2-2.4-4-2.6-6.3C336.3,458.6,336.5,458.4,336.9,458.1z"/>
	<path d="M317.9,572.7c-2.6-0.2-4.5-0.2-6.2-1.4c0.3-0.4,0.5-0.9,0.7-0.9C314.4,570,316.1,570.6,317.9,572.7z"/>
	<path d="M346.4,558.1c-0.9,0-1.7-0.2-2-1.1c-0.4-1.3-1.1-2.6-0.7-4.4C345.5,554.2,346,556.2,346.4,558.1L346.4,558.1z"/>
	<path d="M320.6,452.5c0.6,0.4,1,0.5,1.1,0.7c0.3,1.7-0.2,3.2-1.1,5.1C319.8,456.2,320.2,454.5,320.6,452.5z"/>
	<path d="M312.7,574.5c-1.3,0-1.9,0.1-2.4,0c-0.5-0.2-0.9-0.6-1.3-0.9c0.2-1.1,0.9-1.2,1.6-0.8C311.2,573,311.6,573.5,312.7,574.5z"
		/>
	<path d="M343.2,547.3c0.6,1.3,1.3,2.4,0.8,3.9c-1.2-1-1.5-2.1-1.6-3.3C342.4,547.8,342.9,547.6,343.2,547.3z"/>
	<path d="M315.3,312c-2.3-2.5-2.4-2.7-2-4.2C314.8,309.9,314.8,309.9,315.3,312L315.3,312z"/>
	<path d="M342.2,487.6c1.5,1.1,1.9,1.9,1.5,3.1c-0.3-0.1-0.6-0.2-0.7-0.3C342.8,489.7,342.6,488.9,342.2,487.6z"/>
	<path d="M320,466.6c-0.3-1.3-0.8-2.6,0.1-4.2C320.8,464,320.8,465.3,320,466.6z"/>
	<path d="M319.3,323.3c0.6,1,1.3,1.9,0.9,3.2C319.3,325.1,319.3,325.1,319.3,323.3z"/>
	<path d="M342.4,537.4c-1.2-0.8-0.7-1.4,0-2.2C342.4,536.1,342.4,536.7,342.4,537.4z"/>
	<path d="M280.7,356c-0.9-0.5-1-1.3-1.5-2.4C280.8,354.2,280.5,355.2,280.7,356L280.7,356z"/>
	<path d="M339.9,470.3c0.2,0.5,0.4,0.9,0.6,1.4c0,0.1-0.2,0.4-0.3,0.5c-0.1-0.1-0.2-0.1-0.3-0.2c-0.2-0.5-0.5-0.9-0.7-1.4
		C339.5,470.6,339.7,470.5,339.9,470.3z"/>
	<path d="M281.5,348.1c0.6-0.7,1.4-0.9,2.5-0.3C282.9,347.9,282.2,347.9,281.5,348.1L281.5,348.1z"/>
	<path d="M281.4,348c-1,0.6-1,0.6-2.3,0.1C279.9,348.1,280.7,348.1,281.4,348L281.4,348z"/>
	<path d="M342.8,539.1c0,0.8-0.1,1.4-0.1,2.3C342.2,540.4,342,539.9,342.8,539.1z"/>
	<path d="M343.3,545.7c-0.4-0.3-0.8-0.4-0.9-0.6c-0.1-0.3,0-0.6,0-0.9c0.3,0.1,0.6,0.2,0.8,0.4C343.3,544.8,343.3,545.1,343.3,545.7
		z"/>
	<path d="M281.9,344c0.4,0,0.7,0,1,0c-0.2,0.1-0.4,0.2-0.7,0.2C282.2,344.3,282.1,344.1,281.9,344z"/>
	<path d="M342.5,483.8c-0.1-0.2-0.2-0.4-0.2-0.6c0-0.1,0.2-0.1,0.4-0.2c0,0.2,0.1,0.4,0.1,0.6C342.7,483.7,342.5,483.7,342.5,483.8z
		"/>
	<path d="M341.7,478c-0.1-0.8-0.2-1.1-0.3-1.4c0-0.1,0.1-0.2,0.2-0.3c0.1,0.1,0.4,0.2,0.4,0.3C342,476.9,341.9,477.2,341.7,478z"/>
	<path d="M320.2,468.2c0,0.4,0,0.8,0,1.2c-0.1,0-0.1,0-0.2,0c0-0.4,0-0.8,0-1.2C320,468.2,320.1,468.2,320.2,468.2z"/>
	<path d="M267.7,359.6c0-0.3,0-0.6,0-0.8c0.6,0.1,1.1,0.2,2.5,0.5C268.8,359.5,268.2,359.6,267.7,359.6z"/>
	<path d="M270.6,360.3c0.1-0.2,0.2-0.4,0.3-0.5c0.1-0.1,0.4,0,0.5,0.1c-0.1,0.1-0.2,0.3-0.3,0.3C271,360.3,270.7,360.3,270.6,360.3
		L270.6,360.3z"/>
	<path d="M320.9,360.5c0.6,0,1.3-0.3,1.5,0.7l0.1-0.1C322,360.8,321.5,360.6,320.9,360.5L320.9,360.5z"/>
	<path d="M322.4,361.2c0.6,0,1.3-0.2,1.5,0.6l0.1-0.1C323.5,361.5,323,361.3,322.4,361.2L322.4,361.2z"/>
	<polygon points="317.4,338.4 317.4,338.3 317.7,338.3 	"/>
	<path d="M342.4,533.2c-0.1-0.2-0.1-0.3-0.1-0.5c0,0,0.1-0.1,0.2-0.1C342.4,532.8,342.4,532.9,342.4,533.2z"/>
	<path d="M300.9,592.1c0-0.3,0-0.6,0-0.8C301.5,591.5,301.5,591.8,300.9,592.1z"/>
	<path d="M329,564.6c0.1,0,0.2,0.1,0.3,0.1C329.2,564.6,329.2,564.6,329,564.6L329,564.6z"/>
	<path d="M323.9,361.8c0.1,0,0.2,0.1,0.3,0.1C324.2,361.8,324.1,361.8,323.9,361.8L323.9,361.8z"/>
	<path d="M319.7,350.3c0-0.1,0-0.2,0-0.3C319.7,350.1,319.7,350.1,319.7,350.3L319.7,350.3z"/>
	<polygon points="315.2,312 315.4,312.1 315.3,312 	"/>
	<path d="M312,193.8c-1.6-1.4-1.6-1.4-1.4-6.3c1,0.1,0.9,0.9,1.1,1.6C312.1,190.5,312.9,192,312,193.8z"/>
	<path d="M302.9,198.4c-0.5-1.1-0.8-1.6-0.9-2.2c-0.1-0.3,0.2-0.6,0.4-0.9c0.3,0.2,0.7,0.3,0.7,0.5
		C303.1,196.5,303,197.2,302.9,198.4z"/>
	<path d="M302.2,201.3c0.1,0.8,0.2,1.1,0.2,1.4c0,0.2-0.2,0.3-0.4,0.5c-0.1-0.2-0.3-0.4-0.3-0.6C301.7,202.2,301.9,202,302.2,201.3z
		"/>
	<path d="M268,297.7c2.1,0.5,2.7,1.8,2.7,3.4c0,1.3,0.4,2.7-1.3,4.1c-0.2-1.2-0.4-2-0.5-2.8c-0.1-0.8,0.1-1.7,0-2.5
		C268.8,299.2,268.4,298.6,268,297.7z"/>
	<path d="M300.2,260.6c0.8-1.1,1.8-2.1,3.1-2.7c0.7,0.6,0.1,1-0.2,1.2C302.1,259.7,301.5,261,300.2,260.6L300.2,260.6z"/>
	<path d="M261.9,271.6c1.4,0.7,0.8,1.9,0.7,3.7C261.8,273.6,262.1,272.6,261.9,271.6L261.9,271.6z"/>
	<path d="M262.7,277.3c0.3,0.5,0.5,0.9,0.1,1.5C262.8,278.2,262.8,277.7,262.7,277.3L262.7,277.3z"/>
	<path d="M266,291.3c-0.1-0.2-0.2-0.4-0.2-0.5c0-0.1,0.2-0.3,0.2-0.5c0,0.1,0.1,0.2,0.1,0.3C266.1,290.8,266,291.1,266,291.3z"/>
	<path d="M300.1,260.5C300.1,260.5,300,260.8,300.1,260.5L300.1,260.5z"/>
	<polygon points="291.2,266.7 291.3,266.9 291.1,266.9 	"/>
	<polygon points="262,271.5 261.8,271.4 261.9,271.6 	"/>
	<polygon points="262.8,277.2 262.6,277.2 262.7,277.3 	"/>
	<path d="M290.7,242.6c-0.1,0.2-0.1,0.5-0.3,0.6c-7.8,4.6-16.2,6.5-25.2,4.1c-0.9-0.2-1.8-0.6-2.7-1c-0.3-0.2-0.5-0.7-1-1.3
		c1,0,1.7-0.1,2.4,0c2.2,0.3,4.5,0.9,6.7,1.1c4.2,0.5,8.3-0.5,12.4-1.7C285.7,243.8,288.1,242.8,290.7,242.6L290.7,242.6z"/>
	<path d="M256.2,240.5c-1.2,0-1.5-0.6-1.3-1.7C256,239,256.3,239.6,256.2,240.5L256.2,240.5z"/>
	<path d="M293.7,241.3c-0.7,1-1.6,1.6-3,1.3l0.1,0.1C291.6,241.8,292.4,241,293.7,241.3L293.7,241.3z"/>
	<path d="M256.1,240.5c0.7,0.2,1.1,0.7,1.1,2C256.7,241.6,256.5,241,256.1,240.5L256.1,240.5z"/>
	<path d="M297.9,238.5c0.3,0,0.6,0,0.9,0.1C298.6,239.3,298.2,238.8,297.9,238.5z"/>
	<path d="M258.5,243.4c0.1,0.2,0.3,0.5,0.4,0.7c0,0-0.2,0.2-0.3,0.2c-0.3-0.2-0.5-0.4-0.8-0.6C258,243.6,258.2,243.5,258.5,243.4z"
		/>
	<polygon points="293.8,241.3 293.8,241 293.7,241.3 	"/>
	<path d="M293.1,187.7c-2.2,0.3-4.5,0.7-6.7,1c-2.6,0.3-5.2,0.7-7.8,1c-2.1,0.2-3.7,1-4.6,2.9c-0.2,0.4-0.6,0.7-1.2,1.3
		c0-0.7-0.1-1,0-1.2c0.4-0.7,1-1.4,1.4-2.1c0.5-0.9,1.3-1.4,2.3-1.6c5-1.1,10.1-2.1,15.3-1.6C292.1,187.3,292.6,187.6,293.1,187.7
		L293.1,187.7z"/>
	<path d="M266.6,188.9c0.9-0.1,1.8-0.1,3-0.2c-2,2.7-5.1,3.8-6.3,6.6c-0.9-0.2-0.8-0.8-0.6-1.2c0.6-1.1,1.2-2.1,1.9-3.2
		c0.1-2.2,0.1-2.2,1.5-4.9C266.3,187.2,266.4,188,266.6,188.9z"/>
	<path d="M266.2,141.7c-0.9,1.3-2.2,0.3-2.7,1.4c-0.5,0.9-1.3,1.3-2.5,1.2c-0.2-0.7-0.2-1.6-0.6-2.3c-0.3-0.7-0.9-1.3-1.4-2.1
		C261.9,138.8,263.8,140.8,266.2,141.7z"/>
	<path d="M277.9,166.2c0.4-0.4,0.8-0.9,1.2-1.1c1-0.6,2.1-1,3.2-1.5c2.3-1,4.2-2.2,4.2-5.1c0-0.3,0.3-0.5,0.5-0.8
		c0.3,0.1,0.6,0.2,0.6,0.4c0.4,1.6-0.3,3-0.9,4.4c-0.1,0.3-0.4,0.6-0.7,0.8C283.4,164.3,281,166.4,277.9,166.2L277.9,166.2z"/>
	<path d="M263.3,136.9c-2.1,0.3-3.7,1.8-5.8,1.8c-0.1,0-0.2-0.1-0.4-0.3c1.3-2,3.4-2.4,5.5-2.6c1.9-0.2,3.6,0.2,5.3,2.3
		C265.8,137.6,264.5,137.2,263.3,136.9z"/>
	<path d="M266.8,178.8c0.1,0.5,0.3,0.8,0.2,0.9c-0.1,0.3-0.4,0.6-0.7,0.7c-0.1,0.1-0.6-0.1-0.5-0.2c0-0.3,0.1-0.7,0.3-1
		C266.1,179.1,266.4,179,266.8,178.8z"/>
	<path d="M282.9,167.6c-0.2-0.9,0.3-1.5,1-1.9C284,166.8,284,166.8,282.9,167.6L282.9,167.6z"/>
	<path d="M282.8,167.6c-0.2,0.6-0.5,1.2-0.7,1.8C281.8,168.5,281.8,167.8,282.8,167.6L282.8,167.6z"/>
	<path d="M279,176.1c0,0.1,0.1,0.2,0.1,0.3c-0.1,0-0.2,0.1-0.4,0.1c0-0.1,0-0.2,0.1-0.3C278.8,176.1,278.9,176.1,279,176.1z"/>
	<path d="M277.8,166.1c-0.2,0.4-0.4,0.7-1.2,0.3C277.2,166.3,277.6,166.2,277.8,166.1L277.8,166.1z"/>
	<polygon points="266.6,183.7 266.6,183.9 266.5,183.9 	"/>
	<path d="M250.4,115.5c1.9,1.9,0.9,3.3,0.1,4.4c0.3,1.7,0.6,3.2,0.9,4.7c0.1,0.3,0.1,0.7,0.1,1.1c0,0.5-0.6,1.3-1.1,1.2
		c-0.4-0.1-0.9-0.4-1.1-0.7c-0.3-0.6-0.5-1.4-0.5-2C248.4,121.3,249.8,118.7,250.4,115.5z"/>
	<path d="M250.2,111.5c0.1,0.4,0.1,0.8,0.1,1.2c0,0.1-0.3,0.2-0.5,0.3c0,0-0.2-0.2-0.2-0.2c0-0.4,0.1-0.9,0.1-1.3
		C249.9,111.5,250.1,111.5,250.2,111.5z"/>
	<path d="M316.8,53.1c0-3.2-0.1-5.8,0.1-8.3c0-0.2,0.3-0.3,0.6-0.6c0.2,0.2,0.6,0.5,0.6,0.7c0,0.9,0,1.9-0.3,2.8
		c-0.2,0.7-0.4,1.3,0,2.1C318.4,50.9,317.8,51.8,316.8,53.1z"/>
	<path d="M318.6,38.8c0,0.1,0.1,0.2,0.1,0.3c0,0.1-0.1,0.2-0.1,0.2c0-0.1-0.1-0.2-0.1-0.3C318.5,39,318.6,38.9,318.6,38.8z"/>
	<polygon points="293.5,121.7 293.8,121.7 293.8,121.8 	"/>
	<path d="M290.1,130.8c0.4-0.7,1-0.8,1.8-0.1C291.1,130.7,290.6,130.7,290.1,130.8L290.1,130.8z"/>
	<path d="M290.7,127.1c0.8,0,1.5,0,2.3,0C292,128.1,291.7,128.1,290.7,127.1z"/>
	<path d="M291.4,132.2c-0.2,0.2-0.5,0.3-0.3,0.2c-0.2,0,0.1,0,0.4-0.1L291.4,132.2z"/>
	<path d="M293,131.5c-0.5,0.2-1.1,0.4-1.6,0.6l0.1,0.1C291.8,131.4,292.5,131.6,293,131.5L293,131.5z"/>
	<path d="M277,118.5c0.3,0.1,0.7,0.1,1,0.2c-0.5,0.5-0.7,0.1-0.9-0.3L277,118.5z"/>
	<path d="M296.5,151.7c0.3,0,0.6,0,0.9,0C297.1,151.7,296.8,151.7,296.5,151.7z"/>
	<path d="M770,418c0.3,0,0.5,0,0.8,0c1.7,1.6,3.3,3.3,5,4.9c1.5,1.4,3,2.7,4.4,4.1c0.3,0.3,0.4,0.8,0.6,1.2c-0.4-0.1-1-0.2-1.3-0.4
		c-2.9-2.5-5.7-5.1-8.5-7.6C770.6,419.5,770.1,418.9,770,418z"/>
	<path d="M718.3,449.5c-1.6,1.1-1.6,1.1-4.9-0.1c-0.1-0.6,0.3-0.9,0.8-0.8C715.6,448.9,716.9,449.2,718.3,449.5z"/>
	<path d="M721,469.3c-1.4-0.9-1.6-2.4-2.1-3.7C720.5,466.5,720.6,466.8,721,469.3L721,469.3z"/>
	<path d="M740,545.6c-1.3-1.1-1.3-1.1-1.2-2.6c0.4,0.6,0.8,1.1,1.1,1.6C739.9,544.8,739.9,545.1,740,545.6z"/>
	<path d="M698,447c0.6,1.3,0.6,1.3-0.8,2.7C697.5,448.6,697.8,447.8,698,447z"/>
	<path d="M724.4,477.1c-0.3-0.5-0.5-0.8-0.6-1.1c0-0.2,0.1-0.4,0.2-0.6c0.2,0.1,0.4,0.2,0.5,0.4
		C724.5,476.1,724.4,476.4,724.4,477.1z"/>
	<path d="M704,463c0-0.2-0.1-0.3-0.1-0.4c0,0,0.1-0.1,0.2-0.1C704.1,462.6,704.1,462.8,704,463z"/>
	<path d="M705.7,457.8c0,0.1-0.1,0.2-0.1,0.3c-0.1-0.1-0.2-0.3-0.2-0.4c0,0,0.1-0.1,0.2-0.2C705.6,457.6,705.6,457.7,705.7,457.8z"
		/>
	<path d="M736.5,536.9c0.1,0.2,0.2,0.4,0.2,0.6c0,0-0.2,0.1-0.3,0.2c-0.1-0.2-0.2-0.4-0.2-0.6C736.2,537,736.4,536.9,736.5,536.9z"
		/>
	<path d="M725.8,481.3c0,0.1,0.1,0.2,0.1,0.3c-0.1,0-0.2,0.1-0.4,0.1c0-0.1,0-0.2,0-0.3C725.6,481.4,725.7,481.4,725.8,481.3z"/>
	<path d="M720.9,469.4c0.1,0.1,0.3,0.2,0.4,0.2c-0.1,0-0.2,0-0.2-0.1C721.1,469.5,721,469.4,720.9,469.4L720.9,469.4z"/>
	<path d="M648.2,460.3c0-3-0.1-5.3,0-7.5c0.1-1.1,0.5-2.3,1-3.4c0.1-0.3,0.7-0.4,1.1-0.6c0.2,0.4,0.6,0.8,0.5,1.1
		c-0.3,1.6-0.8,3.2-1.2,4.8C649.3,456.3,648.8,457.9,648.2,460.3z"/>
	<path d="M654.1,519.1c-0.6-2.1,0.6-3.2,1.5-4.8c0.5,1.4,0.2,2.4-0.2,3.3C655.2,518.1,654.7,518.4,654.1,519.1z"/>
	<path d="M668.4,522.7c-0.5-0.2-1.2-0.1-1.4-0.8c-0.1-0.3,0.1-0.6,0.2-0.9c0.1-0.1,0.5-0.3,0.6-0.2c0.2,0.2,0.5,0.4,0.6,0.7
		c0.1,0.4-0.1,0.9-0.1,1.4L668.4,522.7z"/>
	<path d="M652.3,442c0.5,0,0.9,0,1.4,0c0.2,0,0.3,0.3,0.5,0.4c-0.2,0.1-0.5,0.4-0.7,0.3c-0.4-0.1-0.8-0.3-1.2-0.4
		C652.3,442.2,652.3,442.1,652.3,442z"/>
	<path d="M653.8,477.5c-0.6-0.7-0.8-1-1-1.3c0.2,0,0.6-0.2,0.6-0.1C653.5,476.4,653.5,476.7,653.8,477.5z"/>
	<path d="M710.2,409.3c-0.5,0-0.7-0.2-0.8-0.7l-0.1,0.1C709.9,408.7,710.1,409,710.2,409.3L710.2,409.3z"/>
	<path d="M709.5,408.7c-0.1-0.1-0.2-0.1-0.3-0.2C709.3,408.6,709.3,408.7,709.5,408.7L709.5,408.7z"/>
	<path d="M697.7,250.8c0.1,0.7,0.2,1.4,0.1,2c-0.1,0.7-0.7,1.3-1.4,1.3c-0.4,0-0.9-0.2-1.2-0.5c-0.2-0.2-0.2-0.7,0-1
		c0.5-0.8,1.1-1.4,1.7-2.2C697.1,250.6,697.4,250.7,697.7,250.8z"/>
	<path d="M704.4,293.9c-1.7-1.1-2.6-2.7-3.5-4.3c0.4-0.7,0.8-0.8,1.2-0.3C703.2,290.6,704.4,292,704.4,293.9L704.4,293.9z"/>
	<path d="M704.4,306.3c-0.5-0.4-0.6-0.4-0.6-0.5c-0.7-0.9-1.3-1.7-0.6-2.9c0.1-0.1,0.5-0.2,0.6-0.1
		C704.8,303.8,705,304.8,704.4,306.3z"/>
	<path d="M685.9,252.9c0.9,0.6,2.2,0.9,2.6,2.3c-0.4,0-0.8,0.1-1,0c-0.6-0.5-1.2-1.1-1.8-1.7c-0.1-0.1-0.2-0.2-0.1-0.3
		C685.5,253.1,685.7,253,685.9,252.9z"/>
	<path d="M707.7,316.9c-0.6-0.8-0.9-1-1-1.3c-0.1-0.3,0.2-0.6,0.3-0.9c0.3,0.2,0.6,0.4,0.7,0.6C707.9,315.6,707.8,316,707.7,316.9z"
		/>
	<path d="M708.9,320.1c1.1,0.7,0.8,1.5,1.1,2.5C708.8,321.7,708.8,321.7,708.9,320.1z"/>
	<path d="M696.8,248.8c-0.1-0.2-0.2-0.4-0.3-0.6c-0.1-0.5,0-0.9,0.6-1c0.2,0,0.6,0.4,0.6,0.5c-0.1,0.4-0.4,0.7-0.6,1
		C697,248.8,696.9,248.8,696.8,248.8z"/>
	<path d="M715.5,303.1c-0.6,0.5-0.9,0.7-0.9,0.7c-0.2-0.2-0.4-0.5-0.7-0.8c0.2-0.1,0.3-0.3,0.5-0.3
		C714.7,302.7,715,302.9,715.5,303.1z"/>
	<path d="M707.2,295.9c-0.2,0.2-0.3,0.4-0.4,0.5c-0.2-0.3-0.4-0.5-0.5-0.8c0,0,0.2-0.2,0.2-0.2C706.8,295.6,707,295.8,707.2,295.9z"
		/>
	<path d="M705.1,308.8c-0.1,0.2-0.2,0.4-0.3,0.6c-0.1-0.1-0.2-0.2-0.2-0.3c0-0.2,0.2-0.4,0.2-0.6C704.9,308.7,705,308.7,705.1,308.8
		z"/>
	<path d="M710.5,299.6c-0.2-0.1-0.4-0.2-0.5-0.3c0.1-0.1,0.2-0.2,0.2-0.2c0.2,0.1,0.3,0.2,0.5,0.2
		C710.6,299.4,710.5,299.5,710.5,299.6z"/>
	<path d="M697,244.4c-0.1,0.1-0.2,0.2-0.3,0.2c-0.1-0.2-0.2-0.4-0.2-0.6c0-0.1,0.1-0.2,0.2-0.2C696.9,244,697,244.2,697,244.4z"/>
	<polygon points="704.3,293.9 704.6,294.1 704.4,293.9 	"/>
	<path d="M706.6,363.2c-2.5,2.7-5.4,4.4-9.3,4.3c-2.7-0.1-5.5,0.4-8.2,0.5c-2.2,0.1-4.3-0.4-6.2-1.6c-0.5-0.3-0.9-0.8-1.2-1.3
		c-0.1-0.2,0.1-0.6,0.2-0.9c4.8,2.1,4.8,2.1,10.8,2c0.6,0,1.2-0.1,1.8,0c3.8,0.2,7.4-0.4,10.6-2.6
		C705.4,363.3,706.1,363.4,706.6,363.2L706.6,363.2z"/>
	<path d="M728.6,338.2c0.5,1.5,1,2.7,0.7,4.3C727.8,340.4,727.7,339.8,728.6,338.2z"/>
	<path d="M680.9,362.4c-1.9-0.3-2.3-0.8-2.2-2.1C679.4,361,679.9,361.5,680.9,362.4z"/>
	<path d="M709.5,359.6c0.4-0.4,0.8-0.8,1.3-1.3C710.7,359.4,710.7,359.4,709.5,359.6z"/>
	<path d="M731.6,354.4c-0.5-1.1-1-1.6-1-2.6C731.6,352.5,731.5,353.2,731.6,354.4z"/>
	<path d="M733.2,357.5c0.9,0.4,0.6,1.4,0.8,2.1l0.1-0.1C732.9,359.1,733.4,358.2,733.2,357.5L733.2,357.5z"/>
	<path d="M734,359.6c0.2,0.2,0.3,0.3,0.4,0.5c0.1,0.1,0,0.2,0,0.3c-0.1-0.1-0.3-0.1-0.4-0.2C734,359.9,734.1,359.7,734,359.6
		L734,359.6z"/>
	<path d="M733.3,357.4c-0.2-0.1-0.4-0.2-0.5-0.3c0-0.1,0.1-0.3,0.2-0.5c0.1,0.1,0.2,0.2,0.2,0.3
		C733.2,357.1,733.2,357.3,733.3,357.4L733.3,357.4z"/>
	<path d="M706.6,363.3c0.1-0.1,0.1-0.3,0.2-0.4c0,0.1,0,0.2,0,0.2C706.7,363.1,706.6,363.2,706.6,363.3L706.6,363.3z"/>
	<path d="M714.5,396.4c2.6-0.3,5,0.5,7.5,0.8c0.4,0.1,1.1,0.4,1.2,0.7c0.4,1.3,1.6,1.3,2.6,1.7c1.5,0.5,2.9,1.1,4.2,2.1
		c-0.5,0.7-1.1,0.5-1.6,0.2c-2.7-1.2-5.5-2.4-8.2-3.6c-1-0.4-2.1-0.4-3.1-0.8C716.1,397.2,715,397.5,714.5,396.4L714.5,396.4z"/>
	<path d="M720.2,408.1c1.9,0.6,2.4,2.4,3.3,3.9c0.4,0.7,0,1.4-0.5,2c-0.5,0.6-1.2,0.7-2.1,0.1c0.1-0.9,0.2-1.9,0.1-2.9
		C720.9,410,720.5,409,720.2,408.1L720.2,408.1z"/>
	<path d="M728.5,380.9c-1-1.8-1-1.8,0-3.1C729.3,378.7,729.1,379.7,728.5,380.9z"/>
	<path d="M728.2,382.9c0.1,0.1,0.4,0.3,0.4,0.4c-0.1,0.8-0.5,1.3-1.2,1.6c-0.1,0.1-0.5-0.1-0.5-0.2
		C726.8,383.8,727.4,383,728.2,382.9z"/>
	<path d="M714.5,396.4c-1.4,0.1-2.5-0.6-3.6-1.4l-0.1,0.1C712.3,395,713.5,395.4,714.5,396.4L714.5,396.4z"/>
	<path d="M704.3,390.9c-0.3,0.1-0.6,0.3-0.6,0.3c-0.2-0.2-0.4-0.5-0.5-0.7c0.2-0.1,0.4-0.3,0.5-0.2
		C703.9,390.4,704,390.6,704.3,390.9z"/>
	<path d="M716,402.1c-1.1,0.1-1.6-0.7-2.2-1.3l-0.1,0.1C714.8,400.7,715.6,401.1,716,402.1L716,402.1z"/>
	<path d="M720.9,380.8c-0.9-0.5-0.6-1-0.2-1.5C720.8,379.7,720.9,380.2,720.9,380.8z"/>
	<path d="M709.4,394.4c0.5,0.1,1.3-0.2,1.4,0.7l0.1-0.1C710.5,394.7,710,394.5,709.4,394.4L709.4,394.4z"/>
	<path d="M720.3,408c-0.1-0.2-0.3-0.4-0.4-0.6C720,407.6,720.1,407.8,720.3,408L720.3,408z"/>
	<path d="M716.6,403c0.2,0,0.4,0.1,0.5,0.1C716.7,403.7,716.8,403.1,716.6,403L716.6,403z"/>
	<path d="M716.7,402.9c-0.5,0-0.8-0.2-0.7-0.8l-0.1,0.1C716.5,402.2,716.7,402.4,716.7,402.9L716.7,402.9z"/>
	<path d="M713.1,400.1c0.2,0.3,0.4,0.5,0.6,0.8l0.1-0.1C713.5,400.6,713.3,400.3,713.1,400.1L713.1,400.1z"/>
	<polygon points="713.1,400 713,399.9 713.1,400.1 	"/>
	<path d="M708.7,393.6c0.2,0.2,0.5,0.5,0.7,0.7l0.1-0.1C709.2,394,709,393.8,708.7,393.6L708.7,393.6z"/>
	<polygon points="708.8,393.5 708.6,393.4 708.7,393.6 	"/>
	<path d="M657.9,267.8c-0.5-1.4-0.7-3.1-2.8-3.7c1.1-0.9,2-1.3,3.1-1c1.6,0.4,3.1,0.8,4.8,1.7c-1.1,0.7-2.1,1-2.8,1.7
		C659.6,267.2,659,267.9,657.9,267.8z"/>
	<path d="M687,277.2c0,0.7,0,1.4,0,2.1c0,2.4-0.8,4.2-3.2,5.4c-2.3,1.2-4.3,2.8-7,3.3l0.1,0.1c1.3-1,2.5-2.1,3.8-3.1
		c0.8-0.6,1.6-0.9,2.4-1.5c1.5-1.1,2.7-2.4,2.4-4.4c-0.1-0.5,0.1-0.9,0.1-1.6c0.5-0.1,0.9-0.1,1.3-0.2L687,277.2z"/>
	<path d="M663.4,260.6c-0.7-0.1-1.4-0.1-2-0.3c-1.5-0.4-2.8-0.2-4.1,0.6c-1,0.7-2,1.2-3.1,1.8c-0.2,0.1-0.6-0.1-1.2-0.2
		c1.1-2.3,3.1-2.9,5.1-3.6C660.1,258.3,661.9,258.9,663.4,260.6z"/>
	<path d="M682,313.4c1.5,0.6,3.3-0.4,4.7,0.7c0.3,0.9-0.3,1.3-0.9,2c-1.2-0.5-2.5-1-3.7-1.6c0-0.5,0-0.9,0-1.2L682,313.4z"/>
	<path d="M691.8,306.1c0.5,2,0.6,3.5,0.2,5.3c-0.5-0.5-0.9-0.7-1-1C690.7,309.1,691,307.9,691.8,306.1z"/>
	<path d="M685,310.8c-0.2-1-0.4-2.1-0.5-3.2C685.6,308.4,685.6,308.4,685,310.8z"/>
	<path d="M689.2,315.5c0.6-0.8,1.2-0.7,2.3,0.1C690.4,315.5,689.8,315.5,689.2,315.5L689.2,315.5z"/>
	<path d="M689.1,315.5c0,0.2,0.1,0.4,0.1,0.6c0,0.2-0.2,0.4-0.3,0.6C688.3,316.1,688.7,315.8,689.1,315.5L689.1,315.5z"/>
	<path d="M676.9,288.1c-0.1,0.1-0.2,0.3-0.3,0.4c0-0.1,0-0.2,0.1-0.2C676.8,288.2,676.9,288.2,676.9,288.1L676.9,288.1z"/>
	<path d="M791.8,411.2c-2.9,0.8-5.4,1.1-7.8,0.8C786.4,411.4,788.7,410.6,791.8,411.2z"/>
	<path d="M791.4,418.4c-1.7,0.5-2.9-0.1-4.2-0.3c-1.3-0.1-2.6-0.2-4.1-0.4C786.4,417.2,786.6,417.2,791.4,418.4z"/>
	<path d="M773.7,407.9c-1.9-0.1-3.2-1.2-4-3c0.4,0.2,0.8,0.4,1.1,0.6C771.8,406.3,772.7,407.1,773.7,407.9L773.7,407.9z"/>
	<path d="M774.3,408.8c0.5,0.2,1,0.4,1.5,0.5l0-0.1c-0.5-0.2-1-0.4-1.5-0.6L774.3,408.8z"/>
	<path d="M784.6,423c-0.6,0-1.2,0-1.5-0.6l-0.1,0.1C783.5,422.7,784,422.9,784.6,423L784.6,423z"/>
	<path d="M784.5,423.1C784.5,423,784.5,423,784.5,423.1L784.5,423.1z"/>
	<polygon points="775.9,409.3 776,409.5 775.9,409.2 	"/>
	<path d="M774.4,408.7c-0.2-0.3-0.5-0.6-0.7-0.8l-0.1,0.1c0.2,0.3,0.4,0.6,0.7,0.9L774.4,408.7z"/>
	<path d="M506.7,55c2.2-2.6,2.7-3,5.1-4c0.1,0.2,0.2,0.5,0.2,0.6C510.4,53.1,508.8,54.5,506.7,55L506.7,55z"/>
	<path d="M506.6,55c-0.4,1-1.1,1.5-2.2,1.4l0.1,0.1C504.9,55.5,505.6,55,506.6,55L506.6,55z"/>
	<path d="M504.4,56.4c-0.1,0.1-0.1,0.2-0.2,0.3c0-0.1,0-0.1,0-0.2C504.3,56.5,504.4,56.5,504.4,56.4L504.4,56.4z"/>
	<path d="M622.1,101.1c-0.1,0.1-0.2,0.3-0.2,0.4c0-0.1,0-0.2,0-0.2C621.9,101.2,622,101.2,622.1,101.1L622.1,101.1z"/>
	<path d="M605.9,174.6c-0.5-0.2-1-0.4-1.4-0.6c-0.5-1.1,0.6-1.3,0.8-2.1c-0.1-0.5-0.2-1.2-0.3-2.1c0.5,0,1.1-0.1,1.3,0.1
		C607.5,171.4,607.4,172.6,605.9,174.6z"/>
	<path d="M673.3,176.2c-0.6,0.5-1.2,1.1-1.9,1.7c0.4,2.1,0.7,4.2,1.1,6.4c-0.3,0-0.4,0.1-0.5,0c-0.1,0-0.3-0.1-0.3-0.1
		c-0.4-0.9-0.9-1.7-1-2.6c-0.2-1.6-1.4-3.1-0.7-4.9C671,176.1,672.2,176.3,673.3,176.2L673.3,176.2z"/>
	<path d="M673.4,176.3c0.1-0.1,0.2-0.2,0.3-0.3c0,0.1,0,0.2-0.1,0.2C673.5,176.2,673.4,176.2,673.4,176.3L673.4,176.3z"/>
	<path d="M666.1,152.3c-0.1,0.2-0.1,0.5-0.2,0.7C666,152.8,666.1,152.6,666.1,152.3L666.1,152.3z"/>
	<path d="M671.2,153.8c0.2-0.2,0.5-0.5,0.7-0.7l-0.1-0.1C671.6,153.3,671.4,153.5,671.2,153.8L671.2,153.8z"/>
	<path d="M670.4,154.5c0.3-0.2,0.6-0.4,0.8-0.7l-0.1-0.1C670.9,154,670.7,154.2,670.4,154.5L670.4,154.5z"/>
	<path d="M670.4,154.4C670.4,154.4,670.4,154.5,670.4,154.4L670.4,154.4z"/>
	<path d="M703.6,237.7c2,0.1,3,1.8,4.2,3c2.2,2.3,3.1,5.2,2.7,8.5c-0.3-0.9-0.6-1.7-0.8-2.6c-0.8-3.1-2.5-5.6-4.9-7.7
		C704.4,238.5,704,238,703.6,237.7L703.6,237.7z"/>
	<path d="M670.4,240.5c0-0.3,0-0.6,0-0.8c0.5,0.1,1,0.1,1.5,0.2l-0.1-0.1C671.4,240,670.9,240.3,670.4,240.5z"/>
	<path d="M672,239.9c0.1-0.1,0.1-0.3,0.2-0.4c0,0,0,0.1-0.1,0.1C672,239.7,672,239.7,672,239.9L672,239.9z"/>
	<path d="M674,240.5c0.1-0.1,0.2-0.2,0.3-0.3C674.2,240.3,674.1,240.3,674,240.5L674,240.5z"/>
</g>
</svg>
