<?xml version="1.0" encoding="utf-8"?>
<!-- Generator: Adobe Illustrator 21.0.0, SVG Export Plug-In . SVG Version: 6.00 Build 0)  -->
<svg version="1.2" baseProfile="tiny" id="Layer_2" xmlns="http://www.w3.org/2000/svg" xmlns:xlink="http://www.w3.org/1999/xlink"
	 x="0px" y="0px" viewBox="0 0 900 600" xml:space="preserve">
<g>
	<path d="M210.2,260.3c0.6-2.5,0.8-5.1,1.8-7.4c1.8-4.3,4.5-8,8.9-10.3c5-2.6,10.3-4.3,15.8-5.1c3.5-0.5,7-0.5,10.5-0.2
		c4.8,0.3,9.5,1.2,14.1,2.4c0.6,0.1,1.3,0.1,1.7,0.5c1.8,1.6,3.9,1.1,6,1.1c2.6,0,5.1,0,7.7,0.3c8.5,1.1,17.1,2.2,25.6,3.4
		c2.9,0.4,5.8,0.8,8.6,1.5c2,0.5,4,1.3,5.9,2.1c14.6,6.1,29,12.7,42.7,20.6c3.3,1.9,6.5,4.1,9.4,6.6c1.9,1.5,3.8,3.1,5.7,4.6
		c2,1.6,4.3,2.3,6.9,1.8c0.9-0.2,1.9-0.1,2.8-0.4c2.2-0.5,4.2-1.3,4.8-3.9c2.3-3.4,4.5-6.8,7.9-9.2c2.5-1.7,5.4-2.1,8.2-3
		c1.1-0.3,2.3-0.5,3.4-0.8c0.1-0.4,0.3-0.7,0.3-1c-0.1-3,1.3-5.3,3.5-7.3c1-0.9,2.2-1.6,3-2.9c0.3-0.5,1.1-0.8,1.8-1
		c2.4-0.6,4.6-0.3,6.6,1.4c0.3,0.2,0.5,0.5,0.8,0.7c3.5,4.2,5.7,9,5.7,14.6c0,0.8-0.2,1.6-0.9,2.2c0.1-1.5,0.2-3-0.3-4.5
		c-1.1-3.3-2.6-6.4-4.4-9.3c-3.9-0.6-6.5,0.3-8.9,3c-0.3,0.4-0.4,0.8,0.1,1.2c1.6-0.8,3.3-1.7,4.9-2.5c1.6,0.6,3,1.5,4.1,2.7
		c1,1,1.9,2.1,1.8,3.6l0.1-0.1c-0.5-0.6-1-1.2-1.6-1.7c-0.4-0.4-0.9-0.6-1.3-0.9c0-0.5-0.3-0.7-0.8-0.7c0,0-0.2-0.4,0.1-0.1
		c0.2,0.2,0.5,0.5,0.7,0.7c0,1.4,0,2.7,0,4.2c1.9,1.5,3.7,2.9,5.5,4.3c2.8,3.9,4.9,8.2,6.5,12.7c1,2.9,2,5.7,1.3,8.8
		c0.4,3.8-1.5,7-3,10.3c-0.4,0.9-1.3,1.6-2.1,2.3c-0.7,0.6-1.5,1.1-2.3,1.7c-0.4,7.4-3.5,13.9-6.7,20.1c0.3,1.1,0.5,2,0.8,2.9
		l0.1-0.1c-0.4-0.1-1-0.2-1.2-0.5c-1.2-1.9-2.2-3.8-2.5-6.1c-0.2-2.4-0.6-4.8-0.9-7.8c-0.3,1.3-0.5,2.2-0.7,3.1
		c-0.2,0.9-0.3,1.8-0.4,2.8c-0.1,1-0.1,2.1-0.2,3c-0.7,0.4-1,0.1-1.2-0.4c-1-1.9-1.2-4-1.2-6.1c0-1.6,0-3.2,0-4.8
		c-0.6-0.6-1.2-0.3-1.6,0c-1.4,1-2.8,2-4.2,3.1c-1.2,0.9-2.2,2-3.4,3c-0.5,0.5-1.5,0.4-1.9-0.2c-0.7-0.8-1.2-1.7-2-2.6
		c-0.6,0.1-1.3,0.3-1.9,0.4c-0.5,0.1-1.2,0.3-1.6,0.1c-0.8-0.4-1.5-0.5-2.3,0.1c-0.3,0.2-1,0.4-1.3,0.3c-1.9-0.9-3.6,0.1-5.4,0.5
		c-0.2,0-0.5,0-0.8,0c-1.9-0.9-2.8-2.6-3.3-4.6c-0.5-1.9-0.8-3.9-1.3-5.9c-2.3,0-4.4,0-6.6,0c-2.1-0.1-4.1-0.2-6.3-0.3
		c-1.3,2-2.4,3.8-3.2,5.9c-2,5.5-4.4,10.8-6.2,16.3c-1,3.3-1.4,6.6-1.6,9.9c-0.1,2.2-0.1,4.4-0.2,6.6c-0.1,3.1-0.8,6-2,8.8
		c-0.5,1.1-0.7,2.2-0.6,3.4c0.2,1.6,0.1,3.3,0.2,4.9c0.3,3.2-0.2,6.3-1,9.3c-0.6,2.1-1.1,4.3-1.5,6.5c-0.5,2.8-1,5.5-2.1,8.1
		c-1.5,3.7-2.3,7.5-3,11.4c-0.5,3-1.4,5.9-2,8.8c-0.1,0.5-0.2,1.1-0.3,1.8c1,0.1,1.7,0.3,2.5,0.2c3.2-0.1,6.2,0.3,9.3,1.1
		c4.2,1,8.4,1.9,12.7,2.2c0.6,0,1.1,0.2,1.7,0.4c0.3,1.8-0.8,2.7-1.7,3.7c-0.9,1-2.2,1.3-3.5,1.3c-1,0-2.1-0.2-3.1-0.2
		c-2.4-0.1-4.9-0.1-7.3-0.2c-0.8,0-1.6-0.2-2.6-0.3c-0.2,0.4-0.5,0.9-0.8,1.4c-0.8,1.4-2,1.9-3.5,1.6c-1.4-0.2-2.7-0.4-4.2-0.6
		c-0.6,1.3-0.7,2.3,0.4,3.2c0.8,0.7,1.6,1.4,2.8,2.5c1.8,0,4.2,0,6.7,0c1.3,0,2.5,0.3,3.7,0.6c4.2,1.1,8.3,2.9,12.9,2.9
		c2.4,0,4.8,0.6,7.2,1.1c1.1,0.2,2.2,0.8,3.2,1.4c1,0.6,1,2,0.1,2.7c-1.1,0.9-2.2,1.7-3.5,2.7c-3-0.2-6.1-0.5-9.3-0.8
		c-0.5,0.6-0.8,1.6-1.4,1.8c-1.2,0.5-2.5,0.7-3.7,0.7c-2.1-0.2-4.2-0.4-6.2-1.1c-3.2-1.1-6.4-1.1-9.6-0.5c-3,0.6-6,0.6-9-0.1
		c-2.1-0.5-3.6-1.5-4.6-3.7c-1.2-2.5-1.8-5-1.8-7.7c0-3.3,0-6.5,0-10c-2.2-1.9-2.7-4.7-3-7.7c-0.5-5.6,0.2-11.2,0.6-16.7
		c0.2-2.8,0.1-5.6,1-8.3c1-3,1-6.2,1.4-9.3c0.6-5,0.7-10,2.4-14.8c0.2-0.6,0.3-1.4,0.3-2.1c0-1.3-0.2-2.6-0.2-3.8
		c0-2.1,0.1-4.2,0.1-6.3c0-3.6,0.4-7.2-0.3-10.8c-0.1-0.3-0.1-0.7,0-1c0.2-1.7,0.5-3.5,0.6-5.2c0.1-1.3,0.2-2.5,1.1-3.6
		c0.4-0.4,0.2-1.3,0.3-1.9c-0.8-0.6-1.5-0.1-2.1,0c-0.8,0.1-1.6,0.2-2.4,0.4c-0.7,0.1-1.4,0.2-2.1,0.2c-3.5,0.4-7,0.2-10.3-1.4
		c-1.3-0.6-2.6-1.2-3.5-2.2c-3.3-3.2-6.2-6.7-7.7-11.1c-0.4-1.3-1.1-2.2-2.1-3.1c-4-3.9-8.6-6.7-13.7-8.9c-5.5-2.3-10.9-4.7-16.3-7
		c-0.9,0.4-1.7,0.8-2.5,1.2c1.4,3.4,2.9,6.7,4.2,10c1.7,4.2,3,8.6,3.5,13.1c0.3,2.7,0.3,5.3,0.4,8c0.1,1.4,0.1,2.8,0.6,4.1
		c0.4,1.2,0.6,2.5,0.7,3.8c0.3,5.9,0.4,11.9-0.1,17.8c-0.3,3-0.9,6-1.5,9c-0.2,0.9-0.6,1.8-1.2,2.5c-1.3,1.8-2.8,3.4-4.3,5.1
		c-2.3,2.7-5.2,4.2-8.5,5.2c-3,0.9-5.8,0.3-8-2c-0.7-0.7-1.2-1.3-2.2-1.5c-1.1-0.1-1.8-1-2.5-1.8c-0.8-0.9-1.6-1.6-2.5-2.4
		c-2.2-1.8-4.3-3.5-6.5-5.3c-0.9-0.7-1.8-1.5-2.8-2c-2.8-1.4-5-3.4-7-5.7c-5.1-6-9.8-12.5-13.9-19.3c-0.4-0.7-0.9-1.4-1.4-2
		c-5.1-6.2-10.1-12.5-16.2-17.9c-0.7-0.6-1.4-1.3-2.1-1.9c-0.3-0.2-0.6-0.4-0.9-0.6c-1.1,0.6-2.1,1.4-3.3,1.8
		c-1.2,0.4-2.5,0.4-3.8,0.4c-3.6,0.1-7.2,0.5-10.6,1.7c-1.2,0.4-2.5,0.7-3.7,1.1c-2.2,0.8-4.5,1.3-7,0.6c-1.2,3-4,4.5-6,6.8
		c-1.6,0.4-3.2,0.2-4.8-0.2c-1.4-0.4-3-0.7-4.4-0.7c-1.8,0-2.9-0.7-3.3-2.2c0.9-1.9,1.7-3.7,2.6-5.4c-1.8-0.5-4.3-0.6-6.3,0.1
		c-1.8,0.6-3.6,0.6-5.5,0.6c-2.8,0.1-5.5,0-8.3,0c-1.3,0-2.8,0.4-4,1c-5.2,2.6-10.8,3.6-16.4,4.9c-2.1,0.5-4.3,0.9-6.5,1.4
		c-2.7,0.6-5.5,1-8.3,1c-2.7,0-5.3,0.4-8,0.5c-2.7,0.1-5.4,0-8,0c-1.4,0-2.8-0.1-4.2,0.2c-3.7,0.7-7.3,1.5-10.9,2.2
		c-4.1,0.8-7.9,2.7-12.2,3.5c0.8,1.5,1.5,2.7,2.1,4c-0.8,4.1-2.4,7.6-5.2,10.6c-1.2,1.2-2.1,2.8-3,4.3c-0.3,0.6-0.4,1.3-0.6,2
		c-0.3,0.9-0.4,1.8-0.8,2.7c-1,2-2.4,3.4-5,3c-0.2,0-0.5,0-0.7,0c-0.1,0-0.2,0.1-0.5,0.1c-0.7,3,0,6.2-0.3,9.1
		c-0.9,1.2-2.2,0.9-3.3,1.3c-1.1,0.3-2.2,0.7-3.4,1.1c-5.6-4.1-9.1-9.5-10.6-16.2c-1.4-6.6-1.3-13,2.4-18.7c-0.5-1.8-1.3-2.9-2.6-4
		c-2.2-1.8-3.6-4.3-4.2-7.1c-0.2-1.2-0.5-2.3-1-3.3c-0.8-1.4-0.6-2.7,0.1-3.9c0.6,0,1.2,0.2,1.7,0c0.9-0.3,1.7-0.9,2.5-1.1
		c0.8-0.2,1.7,0,2.4,0c0-2.5,0.1-4.8,0-7.2c-0.1-1.8-0.1-3.7-1.2-5.2c-1.6,0.2-3,0.8-4.6-0.1c0.7-2.1,2.9-1.8,4.3-2.9
		c-1.3-7.1-2.6-14.2-4-21.4c-1.7,0.4-3.4,0.7-5.3,1.1c0.9,5.8,1.8,11.4,2.6,17c4.4,0.4,4.4,0.4,5.2,1.3c-1.5,0.9-3.2,0.1-4.9,0.7
		c-0.2,1.9,0.1,3.7,0.3,5.5c0.4,3.1,0.9,6.2,1.3,9.3c0.1,1,0.4,2.1-0.3,3.1c-1-0.5-1.1-1.5-1.2-2.3c-0.6-3.3-1.1-6.7-1.5-10
		c-0.7-5.9-1.2-11.8-2.1-17.7c-0.9-6.1-2.1-12.2-3.1-18.3c-0.1-0.5-0.2-0.9-0.4-1.4c-1.5-3.2-1.5-6.8-1.9-10.2
		c-1.2-8.2-2.3-16.4-3.4-24.6c-0.7-4.6-1.6-9.2-2.1-13.8c-0.9-7.9-1.7-15.7-2.5-23.6c-0.9-9.3-1-18.6-0.9-27.9c0-0.9,0-1.9,0.2-2.8
		c0-0.3,0.4-0.5,0.9-1c0.6,9.2,0.9,18,1.7,26.9c1.4-0.2,2.6-0.4,4.1-0.7c0-3.6-0.7-7.1-1.1-10.8c-0.5-0.1-1-0.2-1.4-0.3
		c-0.4-0.1-0.8-0.3-1.2-0.4c0.3-1.2,1.4-0.9,2-1.7c0-0.7,0-1.6,0-2.5c-0.8-0.4-1.6-0.7-2.5-1.2c0.8-0.3,1.4-0.5,2.2-0.8
		c0.1-3.2-0.8-6.3-1.2-9.4c-0.6-0.3-1.1-0.6-1.7-0.8c0.8-1.3,1.9-1.2,3.2-0.8c-0.4,1.1-0.2,2.2,0.2,3.2c0.7,2.1,1.3,4.2,1.7,6.4
		c1.3,6.4,2.5,12.8,3.8,19.2c1.9,9.4,3.3,18.8,4.8,28.2c1.1,7.1,2.2,14.3,3.1,21.4c0.4,3.2,0.6,6.5,1.1,9.7
		c1.2,8.7,1.4,17.4,2.2,26.1c0.5,5.7,1.5,11.3,2.6,16.9c1.3,6.3,2.5,12.6,3.8,19.2c0.9-1.9,1.4-3.7,2.9-4.9c2.2-0.7,4.2-0.3,6.1,1.2
		c1.3,1,2.8,1.7,4.5,1.4c0.6-0.1,1.2-0.1,1.7,0.1c3,1,6,2,8.9,3.1c1.7,0.7,1.7,0.8,2.7,2.8c0.9,0.1,1.4-0.7,2.1-1.1
		c2.3-1.6,4.7-2.5,7.5-2.4c0.7,0,1.4-0.1,2-0.5c3.4-2,6.9-3.8,10.3-5.9c2.7-1.7,5.6-2.9,8.5-4.1c1.3-0.5,2.6-0.9,4-1.4
		c0.4-0.2,0.9-0.5,1.3-0.4c2.2,0.4,4.1-0.7,6-1.5c3-1.2,6.2-1.8,9.4-2.5c4.9-1,9.8-1.9,14.8-2.3c3.1-0.3,6.3-0.5,9.4-0.8
		c0.6-0.1,1.1-0.3,1.6-0.5c2.8-1.3,5.8-1.8,8.7-2.3c4.3-0.9,8.5-2.2,12.5-4.4c-0.3-1.3-1-2.2-1.6-3.1c-1.3-1.8-2.6-3.6-3.7-5.5
		c-4.4-7.5-9.2-14.8-14.2-22c-5.2-7.5-10.9-14.5-16.2-21.9c-8.6-11.9-17.4-23.7-25.6-35.8c-4.1-6-8.3-11.8-12.6-17.6
		c-3.2-4.3-5.9-8.9-8.5-13.6c-0.1-0.2,0-0.4-0.1-0.8c0.3,0,0.7-0.2,0.9-0.1c0.6,0.7,1.3,1.3,1.8,2.1c3.9,7,9,13,14.2,19
		c1.7,1.9,3.3,3.9,5,6c1.7-0.8,2.8-2.2,4.2-3.2c-0.2-0.6-0.3-1.1-0.5-1.4c-2.7-3.8-5.5-7.5-8.3-11.3c-0.1-0.2-0.4-0.3-0.6-0.4
		l0.1,0.1c-0.6-1.4-1.4-2.6-2.5-3.5c-2-0.1-2.7,2.3-4.8,2c0.6-2,2.4-2.6,3.7-3.8c-0.5-0.9-1-1.8-1.6-2.8c-0.8,0.2-1.5,0.5-2.2,0.7
		c-0.5-1.2,0.8-1.4,1.1-2.3c-0.7-1.1-1.4-2.4-2.1-3.6c0.4-0.6,0.8-0.5,1.1-0.1c0.3,0.3,0.6,0.7,0.9,1.1c4,5.3,8,10.6,11.9,16
		c1.4,1.9,2.8,3.8,4.2,5.6c0.6,0.7,1,1.6,1.8,2.1c0.9,0.6,1.3,1.1,1.5,2.1c0.3,1,1,1.8,1.6,2.7c3.1,4.1,6.2,8.2,9.2,12.3
		c8.9,12.1,17.8,24.2,26.7,36.3c0.6,0.7,1.3,1.4,1.8,2.1c1.3,1.9,2.7,3.8,3.8,5.8c3.4,6.2,7.2,12.3,11.2,18.1
		c2.2,3.2,4.1,6.5,6.2,9.8c0.9,1.5,2,2.9,2.9,4.2c0.5,0,0.8,0.1,0.9,0c2.9-1.8,5.9-3.2,9.2-4.1c0.6-0.2,1.1-0.4,1.6-0.7
		c3.6-2.3,7.5-3.7,11.5-5c1.3-0.5,2.6-1.1,3.9-1.6c3.4-1.3,6.7-2.6,10.1-4c0.9-0.4,1.8-0.5,2.6,0.2c0.2,1.7,0.3,3.5,0.5,5.2
		c1.1,9.4,3.7,18.2,8.7,26.3c0.4,0.6,0.9,1.3,0.8,1.9c-0.3,1.5,0.6,2.2,1.5,2.9c1.1,0.8,2.3,1.6,3.5,2.4c0.3,0.2,0.7,0.7,1.2,0.2
		c-0.1-0.3-0.2-0.6-0.4-0.9c-3.4-5.6-6.1-11.5-7.8-17.9c-0.2-0.7-0.4-1.3-0.7-2c-1.2-2.5-2.1-5.2-2.6-7.9c-0.2-0.9-0.4-1.7-1.3-2.4
		c-1.3-0.9-1.6-2.5-2.1-4.2c2.4,0.1,0.1-2.1,1.7-2.5c0.3,0.4,0.6,0.8,1,1.4c0.3-1.6,0.5-3.1,0.9-4.5c0.4-1.6,0.8-3.2,1.5-4.6
		c0.7-1.4,1.8-2.7,2.8-3.9c0.5-0.5,1.2-0.8,1.9-0.1c-1.1,2.3-2.3,4.5-3.2,6.8c-0.9,2.3-1.1,4.8-1.1,7.2c0,2.5-0.3,5.1,0.5,7.7
		c0.4-0.1,0.7-0.1,1-0.1c0.3-0.1,0.7-0.3,1-0.3c4.1-0.2,8.1-0.1,11.9,1.7c2.7,1.3,5.5,2.6,7.9,4.4c2.3,1.7,4.7,3,7.4,3.8
		c6.9,2.2,13.7,4.4,20.6,6.5c0.9,0.3,2,0.7,3,0.3c0.3-1.8-0.4-3.2-1.4-4.5c-3.2-4.1-6.5-8.2-9.7-12.4c-0.4-0.5-0.6-1-1-1.6
		c-0.8,0.8-1.3,1.3-1.8,1.8c-0.3-3.1,0.8-5.6,3.4-7.8c3.3,3.4,6,7.3,8.6,11.3c0.7-0.8,0.4-1.4,0-2c-1.7-2.8-3.5-5.5-5.2-8.3
		c-0.5-0.9-1.5-1.5-1.4-2.7l0,0c0.5,0.4,1.2,0.8,1.5,1.3c1.4,1.9,2.7,3.8,4,5.7c0.6,0.8,1.1,1.6,1.6,2.5c-0.2-1.6-0.7-2.9-1.2-4.3
		c-0.2-0.6,0.2-0.8,1-0.8c0.6,1.3,1.2,2.6,1.8,4c1.4,2.8,1.4,5.7,0.7,8.7c-0.4,1.8,0.1,3.7,1.5,6.3c0.4-1.6,0.7-3.2,1.1-4.8
		c-1-1.6,0-3.1,0.1-4.7c0.4-4.3,0.2-8.6-0.4-12.9c-1-6.1-3.2-11.7-7.5-16.2c-1.4-1.5-2.9-3-3.5-5c-3.5-0.5-6.8-1.1-10.2-1.4
		c-4-0.4-8.1-1-12.2-0.7c-5.6,0.5-11,1.9-16.3,3.5c-1.4,0.4-2.5,1.2-3.4,2.3c-1.4,1.7-2.8,3.4-4.1,5.2c-2,2.7-3.7,5.6-4.4,9
		C211.4,259.7,210.8,260,210.2,260.3z M422.1,268.6c0.2,0.3,0.5,0.5,0.7,0.8c1.8,2.7,3.7,5.5,5.5,8.2c0.4,0.6,0.6,1.4,0.9,2.2
		l0.1-0.1c-1.3-0.3-1.5-1.6-2.2-2.4c-1.2-1.4-1.8-3.4-3.5-4.5c-0.3-1.2-0.9-2.3-2.1-2.8c-1.4-2.8-3.8-4.3-6.7-5
		c-0.7-1-1.3-1.9-1.1-3.2c0.2-1.2,0.9-2.1,1.7-2.9c1.4-1.3,3-2.2,4.8-2.6c0.9-0.2,1.8-0.2,2.7-0.3c0,0.1,0,0.2,0,0.3
		c0,0.1,0.1,0.1,0.1,0.1c-0.1-0.1-0.1-0.2-0.2-0.3c-0.7-0.6-1.4-1.2-2.1-1.6c-1.2-0.7-2.5-0.6-3.6,0.2c-2.1,1.4-4.1,3-5.7,5.1
		c-1,1.3-1.6,2.8-1.4,4.6c1,0.3,2,0.5,3.1,0.8c-0.1,0.7-0.1,1.3-0.3,1.8c-1.5,3-2.5,6.2-3.5,9.5c-0.2,0.5-0.5,1.1-1,2.1
		c-0.2-2.8,1-4.8,1.1-7.5c-1.8,2.9-2.5,5.5-3.4,8.2c-0.1-1.7-0.1-3.3-0.2-5.5c-1.5,2.2-2.4,4.1-2.6,6.4c1.4,1,2.7,1.9,4,2.8
		c-0.2,1-0.4,1.7-0.4,2.5c0,0.2,0.4,0.5,0.6,0.7l-0.1-0.1c0.1,0.6,0,1.2,0.2,1.7c0.2,0.6,0.7,1.2,1,1.8c0.2,0.4,1,0.7,0.5,1.4
		c-1.5,0.1-1.9-1.4-2.7-2c-0.5,0.3-0.8,0.7-1.2,0.7c-0.6,0-1.1-0.5-1.1-1.1c0-0.6,0.1-1.3,0.3-2.1c-0.6,0.4-1.1,0.8-1.6,0.8
		c-1,0-2-0.6-2.9,0.2c-0.1,0.1-0.7-0.1-0.9-0.3c-0.5-0.6-1-1.2-1.4-1.9c0.7,0.1,1.3,0.1,1.1-1c-0.4,0.4-0.7,0.8-1,1.1
		c-0.7,0.3-1.5,0.6-2.2,0.9c0.4,0.7,1.5,0.4,1.4,1.4c-0.5,0.8-1.2,0.6-1.8,0.4c-0.8-0.3-1.4-0.8-1.4-1.9c1.1-1.8,4.3-1.9,4.7-4.7
		c-0.7-0.1-1.4-0.2-2-0.3c1.9-1.1,3.8-2.2,4.9-4.2c0.5,0,0.8-0.2,0.7-0.7c0.3,0,0.7,0,0.9,0c1.2-2.1,2.1-4.3,3.6-6
		c1.5-1.7,3.5-2.8,5.4-4.2c-1-0.5-2-0.2-2.7,0.3c-2.1,1.2-4.6,1.3-6.4,3c-1.3-0.3-2,0.7-2.8,1.5c-1.2,1.2-2,2.7-3.6,3.4
		c0.2-0.7,0.5-1.5,0.7-2.2c0.5,0,0.7-0.2,0.7-0.8c0.1-0.1,0.2-0.1,0.3-0.2c-0.1,0.1-0.1,0.2-0.2,0.3c-0.2,0.2-0.5,0.5-0.7,0.7
		c-2,0.3-3,2-4.4,2.9c-0.1,0.4-0.3,0.6-0.3,0.8c-0.9,4.4-3.8,6.8-8,7.8c-2.2,0.5-4.5,0.7-6.8,1c-0.2,3.1-1.2,6-2.9,8.5
		c-0.6,0.9-0.9,1.9-0.8,3c0.3,2.5-0.3,4.8-1,7.2c-0.2,0.6-0.2,1.3-0.3,2.2c1,0,1.8,0,2.6,0c0.9,0,1.8-0.1,2.8-0.1
		c1.7,0.1,3.5,0.2,5.2,0.3c1.9,0.1,3,1,3.4,2.8c0.1,0.6,0.1,1.2,0.2,1.7c0.4,2,0.6,4.1,1.7,6c0.7,0,1.3,0.3,1.8,0.1
		c1.7-0.6,3.3-0.8,5-0.1c0.7,0.3,1.4-0.1,1.7-1c-0.3-0.5-0.7-1.1-1-1.7c-0.3-0.7,0.1-1.1,0.8-1.2c1.4,0.9,0.9,3.2,2.9,3.9
		c0.7-0.5,1.7-0.5,2.1-1.5c0.2-0.5,0.1-1.2,1-1c0.6,1.3,1.1,2.5,1.8,3.8c0.2,0.4,0.7,0.7,1,1c1.9-1.8,3.5-3.5,5.2-4.9
		c1.8-1.5,3.8-2.6,6.4-1.8c0.7,0.2,1.3-0.2,1.5-1l-0.1,0.1c3.8-1,7.1-2.8,10.4-5.1c0.1-0.9,0.2-1.8,0.3-2.6c0.1-0.5,0.4-1,0.6-1.5
		l-0.1,0.1c2-2.3,2.5-5.2,2.9-8.1c0.3-2.4,0.2-4.8-0.3-7.6c2.2,2.9,1.5,6,1.8,9c0.9-0.9,1.2-1.7,1.2-2.7c0.1-2.8-0.6-5.3-1.8-7.7
		c-1.5-2.9-2.9-5.8-4.4-8.7c-1.3-2.4-3.1-4.4-5.2-6c-0.3-0.2-0.8-0.2-1.3-0.2C422.8,268.9,422.5,268.7,422.1,268.6l-0.2-0.1
		L422.1,268.6z M434,299.3c0.2-0.5,0.4-1,0.6-1.4c0.1-0.2,0.2-0.3,0.3-0.5c-0.1,0.2-0.1,0.4-0.2,0.6
		C434.5,298.4,434.3,298.9,434,299.3l-0.1,0.2L434,299.3z M400.4,279.7c2.1-0.1,2.1-0.1,1.7-2C401.5,278.4,400.5,278.7,400.4,279.7
		c-0.2,0.1-0.8,0-0.2,0.6C400.3,280.1,400.4,279.9,400.4,279.7z M400.4,284.6c0.8,0.4,1.6,0.9,2.4,1.3c0.1-1.5,0.1-1.5-0.9-2.7
		C401,283.2,400.5,283.6,400.4,284.6l-0.1,0.2L400.4,284.6z M213.1,283.9c0,0.9,0,1.8-0.1,2.7c-0.1,0.9-0.3,1.7-0.4,2.7
		c1.2,1,2.5,2,3.7,2.9c0.3,0.2,0.7,0.7,1,0.2c-1.2-2.7-2.5-5.3-3.7-7.8C213.5,284.4,213.2,284.2,213.1,283.9c-0.2-0.6-0.2-1.3-0.5-2
		c-2.1-6.4-3.5-13-4-19.8c0-0.4,0-1-0.8-1.1c-3.5,1.5-7.3,3-10.9,4.7c0.2,0.4,0.3,0.6,0.4,0.8c2.5,2.6,5,5.1,7.5,7.7
		c0.5,0.5,1,1,1.3,1.6c1.7,2.8,4,5.1,6.1,7.6C212.4,283.7,212.8,283.7,213.1,283.9z M141,233.6c-0.9-1.2-1.9-2.3-2.8-3.5
		c-1.1-1.6-2.2-3.2-3.4-4.8c-8.1-10.9-16.3-21.8-24.4-32.7c-0.5-0.7-1.2-1.4-1.7-2c-1.5,1.1-2.7,2-4,2.9c0.6,1,1.4,1.8,1.7,2.8
		c0.4,1.6,1.4,2.9,2.3,4.2c2.4,3.5,4.9,7.1,7.4,10.6c4.5,6.5,9,13,13.5,19.5c0.7,1,1.5,2,2.3,3.1c1.2-0.8,2.3-1.5,3.3-2.3
		c1-0.7,1.9-1.4,3.1-1.4c0.2,1.1-0.5,1.7-1.3,2.3c-1.3,1-2.5,1.9-3.9,3c0.5,0.7,0.9,1.2,1.3,1.8c2.6-0.7,4.5-2.6,6.8-3.6
		c-0.1,1.5-1,2.6-2.2,3.3c-1.1,0.7-2.2,1.3-3.3,2c7.7,11.5,15.2,22.9,22.9,34.4c0.8-0.2,1.6-0.9,2.3,0c-1.1,2-1.1,2,0.1,2.9
		c0.8-0.4,1.6-0.8,2.5-1.3c0.8-0.4,1.6-0.8,2.5-1.2c-1.9-3.2-3.6-6.2-5.5-9.1c-1.8-2.9-3.4-6-5.6-8.7c-1.1,0.6-2,1.2-2.9,1.7
		c-0.5,0.2-1.1,0.4-1.2-0.5c1.1-0.9,2.1-1.8,3.2-2.8c-0.5-1-0.6-2.2-1.8-2.5c-1.1,0.5-1.7,1.9-3.4,1.8c0.4-1.7,2-2.3,2.8-3.5
		C149.9,245.5,144.6,237.5,141,233.6z M363.4,431.6c1.3,1,2.7,1.5,4.3,1.8c3.4,0.8,6.9,0.9,10.3,1.5c0.8,0.1,1.6,0.2,2.4,0.1
		c0.4,0,0.7-0.5,1.1-0.7c-0.3-0.3-0.5-0.5-0.7-0.5C375.1,432.4,369.2,431.9,363.4,431.6c0-0.4,0.1-0.9,0.1-1.5c1.1,0.1,2,0.2,3,0.2
		c0.8,0,1.6-0.2,2.5-0.2c-5.9-2.8-12-3.3-18.2-3.3c-0.1,0-0.2,0-0.3,0c-1.3,0-2.5-0.3-3.6-1c-0.9-1.6-1.5-3.2-0.9-5
		c-0.5-3.1,0.2-6.2,0.3-9.3c0-0.8-0.2-1.7,0.1-2.4c0.9-2.8,1.4-5.6,1.8-8.5c0.8-4.7,1.8-9.4,3.5-13.8c0.7-1.7,1.3-3.5,1.5-5.4
		c0.3-2.9,1-5.7,1.9-8.5c1.3-4.3,1.6-8.6,1.1-13.1c-0.2-1.7,0-3.5,0.5-5.2c0.8-2.6,1.2-5.2,1.3-7.9c0.2-3,0.2-6.1,0.7-9
		c0.8-5.1,2.3-10,4.1-14.8c1.2-3.3,2.4-6.5,3.7-9.8c0.2-0.7,0.5-1.2,1.1-1.7c0.4-0.3,0.7-0.9,0.9-1.4c0.9-3.2,1.8-6.5,2.6-9.8
		c0.5-1.8,0.7-3.6,0.2-5.5c-0.3-0.9-0.4-1.9-0.3-2.8c0.3-4-1-7.6-3.1-10.9c-1.3-2.1-2.6-4.1-4-6.1c-0.3-0.5-0.8-0.9-1.3-1.2
		c-3.8-2.4-7.8-4.6-11.9-6.6c-0.4,0.4-0.7,0.8-1.1,1.2c-1.3-1.2-2.9-1.3-4.5-0.9c-1.5,0.3-3,0.6-4.4,1.2c-5.1,1.9-8.1,5.6-8.9,11.1
		c-1.4,9.2,1.3,17.3,6.3,24.7c1,1.5,2.3,2.6,4.1,3.4c0.3-0.7,0.8-1.3,0.8-1.9c0.1-1.3-0.1-2.5-0.2-3.8c-0.1-1.4-0.3-2.8,0.6-4.1
		c1.2,0.9,1.1,2.2,0.9,3.2c-0.6,2.7-0.3,5.3-0.4,8c0,0.9,0,1.9-0.2,2.8c-1.1,5.1-2.3,10.2-3.5,15.3c-0.4,1.7-0.7,3.4-0.6,5.2
		c0,3.3,0.1,6.5,0.1,9.8c0,3.3,0.1,6.5,0,9.8c0,1.4-0.5,2.8-0.5,4.1c0,1.5,0.3,3,0.4,4.4c0,0.1,0,0.2,0,0.3c-0.2,1.3,0,2.5,0.6,3.7
		c0.6,1.4,0.9,2.8,0.6,4.4c-1.1,4.8-1.2,9.7-1.5,14.6c-0.3,4.6-0.2,9.3-0.3,14c0,0.7,0.1,1.5-0.2,2c-0.6,1.2-0.4,2.5-0.5,3.8
		c0,2.8,0,5.6-0.1,8.4c0,1,0.1,2.1-0.2,3.1c-0.5,1.7-0.5,3.4-0.5,5.2c0,1.2,0.1,2.4-0.1,3.5c-0.4,1.8,0,3.3,0.8,5
		c0.7,1.5,1.2,3.2,2.4,4.5c0.3,0.3,0.4,0.8,0.6,1c3.5,0.9,6.9,1.2,10.3,0.7c3.7-0.6,7.2-0.1,10.6,1.2c1.9,0.7,3.2,0.7,5.5,0.2
		c-1.4-0.8-2.8-1.6-4.2-2.3c-1.5-0.7-3-1.2-4.5-1.8c-0.3-0.1-0.7-0.3-0.9-0.5c-0.2-0.2-0.3-0.5-0.6-1.1c1.4,0.3,2.5,0.5,3.7,0.8
		C361.8,431.4,362.6,431.5,363.4,431.6z M178.2,289.2c1,1.6,1.8,2.8,2.6,4.1c1.8,2.9,3.7,5.7,4.5,9c0.5,2.1,1.9,3.7,2.9,5.5
		c0.2,0.4,0.7,0.7,1.3,0.1c-0.3-0.8-0.6-1.6-0.9-2.5c-0.2-0.7-0.1-1.4,0.6-1.8c0.5-0.3,1.4-0.1,1.8,0.5c0.6,0.9,1.1,1.8,1.6,2.7
		c0.3,0.5,0.6,0.9,1.1,1.7c0.1-0.7,0.3-1,0.3-1.3c-0.3-0.9-0.7-1.7-0.9-2.6c-0.3-1.1,0.2-2.1,1-2.3c0.8-0.1,1.3,0.5,1.6,1.1
		c0.8,1.6,1.5,3.1,2.3,4.7c1.7,0.3,3.1,0.3,4.5-0.7c-0.7-2.3-1.2-4.5-3-6.2c-0.6-0.5-1-1.4-1-2.2c-0.1-2-0.4-4,0.1-5.9
		c1.1-3.9,2.8-6.1,7.4-5.9c1.2,0,2.3,0,3.5,0.1c0.3,0,0.5,0.3,0.9,0.5c-0.7,0.9-1.5,0.9-2.3,0.8c-2.3-0.2-4.3,0.6-6.1,1.5
		c-1.3,2.1-1.4,4.3-1.7,6.6c-0.2,1.4-0.1,2.7,1,3.5c1.4,1.1,2,2.5,2.4,4.1c0.1,0.5,0.5,1,0.8,1.4c4.7,2.6,8.8,5.9,12.4,9.7
		c4.4,4.6,7.8,9.9,10.8,15.4c0.7,1.3,1.5,2.7,2.3,3.9c5.1,7.6,10.8,14.6,18.2,20.1c3,2.2,5.8,4.7,9.2,6.3c1,0.5,1.8,1,2,2.2
		c0.2,1.1,1.3,1.2,2.2,1.4c2-1.5,2-1.5,4.4,0.1c-1,0.2-1.8,0.3-2.8,0.4c0.6,0.5,1,0.8,1.2,1.1c1.2,1.8,3,2.1,4.9,2.2
		c1.7,0,3.2-0.6,4.5-1.5c3.2-2.2,5.8-5,8.3-8c0.6-0.7,1-1.6,1.1-2.5c0.6-3,1.1-6,1.6-8.9c0.1-0.7,0-1.4,0-2.1
		c-0.1-2.8-0.3-5.6-0.3-8.4c0.1-4.9-1-9.7-1.1-14.6c0-1.2-0.3-2.3-0.6-3.4c-2.1-10.1-5.9-19.6-9.6-29.2c-0.1-0.2-0.3-0.4-0.4-0.5
		c-1.2,0.2-2.5,0.6-3.7,0.5c-1.5-0.1-3-0.3-4.5-0.7c-5.3-1.7-10.6-3.4-15.9-5.2c-3.3-1.1-6.4-2.7-8.9-5.3c-0.5-0.5-1.1-0.9-1.7-1.2
		c-2-1-4-2-5.9-3c-3.6-1.9-7.5-2.4-11.5-2.3c-1,0-1.8,0.2-2.6,1c0.1,0.5,0.3,1,0.5,1.5c0.2,0.6,0.6,1.3,0.7,1.9
		c0.5,3.1,1.6,6.1,2.8,9c2,4.7,4.5,9.2,7.4,13.5c0.9,1.3,2.1,2.6,2.6,4.1c0.9,2.5,2.8,3.9,4.6,5.5c1.7,1.5,3.4,2.8,5.1,4.2
		c3.4,3,6.8,6,9.3,9.9c0.3,0.5,0.7,1,1.1,1.4c2.3,2.2,3.8,5,4.9,7.9c0.2,0.5,0.6,1,0,1.7c-1.2-1.8-2.4-3.5-3.6-5.2
		c-1.3-1.8-2.4-3.8-3.9-5.3c-3.3-3.4-6.8-6.7-10.3-10c-2.2-2.1-4.3-4.3-6.8-6c-4.5-3.1-8.8-6.4-13.2-9.8c-3.2-2.5-6.2-5.2-8.8-8.5
		c1-0.9,1-1.9,0.6-3c-0.4-1.4-1.3-2.4-2.3-3.4c-1.4-1.5-2.9-3-4.2-4.7c-2.1-2.8-4.6-5.2-6.8-7.9c-0.6-0.7-1.5-1.1-2.2-1.6
		c-1.7,0.3-2.9,1-3.9,2.3c-1.2,1.4-2.7,2.6-4,3.9c-1.9,1.7-3.8,3.5-5.7,5.2c-1.2,1.1-1.9,2.3-2,3.9
		C180,285.7,179.9,287.7,178.2,289.2z M168.2,294.6c-2.7-6.2-5.5-11-7.5-12.8c-3.2,1.2-6.5,2.4-9.8,3.6c-0.9,0.3-1.7,0.7-2.6,0.9
		c-3,0.6-6,1-8.8,2.3c-0.4,0.2-0.9,0.2-1.4,0.2c-1.8,0.2-3.7,0.5-5.5,0.7c-2.8,0.3-5.5,0.6-8.3,1c-2.5,0.3-5.1,0.6-7.6,1.1
		c-5.6,1-11.1,2.4-16.6,4.1c-1.7,0.5-3.3,1.1-4.8,1.9c-2.8,1.5-5.6,2.8-8.4,4.2c-2.3,1.1-4.7,2.1-6.9,3.4c-4.7,2.9-9.8,4.8-15.2,6.1
		c-1,0.2-2,0.6-2.9,0.8c-0.6,1.7-1.2,3.2-1.8,4.7c-0.7,0.6-1.5,1.1-2.2,1.7c-0.5,0.4-0.3,1.3,0.4,1.7c0.3,0.2,0.7,0.2,1,0.3
		c0.1,0.1,0.2,0.3,0.3,0.7c-0.9,0.4-1.8,0.7-2.7,1.1c0.6,2.7,0.6,2.7,2.1,4.5c2.2,0,4.1-1.2,6.2-1.9c1.3-0.4,2.6-1,4-1.3
		c4.3-1,8.6-2.1,12.9-3c2-0.4,4.2-0.7,6.2-0.6c2.9,0.2,5.8-0.1,8.7-0.1c5.7,0.1,11.4-0.4,17-1.6c3.5-0.7,7.1-1.4,10.6-2.2
		c2.8-0.7,5.6-1.7,8.4-2.5c2.8-0.8,5.5-1.8,7.9-3.6c0.7-0.5,3.3-1.2,4.6-1.2c-1.3,0.8-2.4,1.5-3.8,2.3c2.9,0.9,5.3,1.4,7.8,0.2
		c-0.2-0.5-0.3-0.9-0.4-1.3c1.5-1.3,1.5,0.9,1.9,0.9c3.4-0.5,6.4-1,9.5-1.5c0.2-0.5,0.4-1.2,0.5-1.7c-0.6-0.4-1-0.8-1.4-1.1
		c0.7-0.3,1.3-0.5,1.6-0.6C163.7,302,165.9,298.4,168.2,294.6z M274.5,287.3c0.3,0.3,0.5,0.5,0.7,0.6c0.2,0.1,0.4,0.3,0.6,0.2
		c3-0.2,5.7,0.9,8.4,2c6,2.5,12,5.1,18,7.7c0.7,0.3,1.3,1.1,2.3,0.4c0.2-3.1,0.9-6.2,2.5-8.9c1.6-2.6,2.4-5.5,3.3-8.4
		c1.4-4.4,2.8-8.9,4.4-13.2c1.3-3.6,3.2-7,5.6-10c0.9-1.2,2-2.2,3.1-3.4c-1.6-0.7-3.1-1.4-4.6-2c-1.9-0.8-3.8-2-5.8-2.4
		c-6.4-1.4-12.8-2.6-19.2-3.6c-5.2-0.8-10.4-1.3-15.6-2c-3.3-0.4-6.7-0.9-10-1.4c-0.6-0.1-1.3-0.4-1.9,0.5c0.5,0.6,1.1,1.2,1.6,1.7
		c3,3.1,5.1,6.6,6.5,10.7c1.6,4.6,2.2,9.3,2.1,14.1c0,1.3-0.1,2.5,0.5,3.7c0.3,0.6,0.2,1.6,0,2.4
		C276.2,279.6,275.4,283.4,274.5,287.3z M325.1,255.3c-4.2,5.5-7.1,11.7-9.2,18.2c-2,5.9-4.4,11.5-7.2,17c-1.5,3-2.3,6.3-1.8,9.8
		c1.9,1.5,3.7,3,5.6,4.5c0.4,1.2,0.8,2.5,1.3,3.8c1.1,3.3,3.1,6,6.1,7.8c0.9,0.5,1.8,1.1,2.6,1.8c1.1,1.1,2.5,1.7,4,2.1
		c1.6,0.4,3.2,0.7,4.8,1.1c1.6,0.4,3.2,0.4,4.9,0.1c1.4-0.2,2.7-0.5,4.2-0.8c1.2-2,0.9-4.3,1.6-6.4c0.4-1.2,0.4-2.5,0.6-3.7
		c-3.1-1.4-3.5-1.7-4.9-3.9c-2.3-3.5-4.2-7.3-5.4-11.3c-0.7-2.3-1.5-4.7-1.9-7.1c-0.4-2.5-0.6-5.1-0.7-7.6c0-2.5,0.6-4.8,1.8-7
		c2.8-5.2,7.3-7.6,12.9-8.5c0.7-0.1,1.3-0.1,2.2-0.2C340.8,261.6,328.9,256.2,325.1,255.3z M62.4,331.8c-0.6-0.6-0.8-1-1.2-1.2
		c-0.9-0.5-1.8-1.1-2.8-1.4c-1.5-0.5-2.3-1.6-2.8-2.9c-0.5-1.1-0.9-2.2-1.2-3.3c-0.2-1-0.3-2.2,0.1-3.1c0.5-1.4,1.2-2.9,2.3-3.9
		c1.8-1.7,2.4-3.8,3.2-6.1c-1.8-1-3.7-1.6-5.6-2c-1-0.2-2-0.5-3-0.9c-1.2-0.5-2.4-0.8-3.7-0.6c-1.6,0.2-3-0.2-4.2-1.3
		c-0.8-0.7-1.7-1.2-2.7-1.6c-1.1-0.5-2.2,0-2.5,1.2c-0.2,1.1-0.3,2.3-0.3,3.4c0,4.2,0.5,8.4-0.6,12.5c4.4,5.7,8.8,11.3,12.9,16.6
		c1.3,0.5,2.3,0.6,3.2,1.2c0.8,0.5,1.5,1.4,2.3,2.2c0.4-0.5,0.6-0.8,0.9-1.2c-0.6-0.7-1.1-1.3-1.6-2c-0.3-0.5-0.7-1-0.9-1.5
		c-0.3-0.5-0.5-1.1,0.1-1.6c0.5-0.5,1.1-0.2,1.5,0.2c0.7,0.7,1.2,1.4,1.9,2.1c0.4,0.4,0.8,0.7,1.2,1.1
		C61,336.3,60.8,333.7,62.4,331.8z M12.9,219.9c0,1,0,1.9,0.1,2.8c1,8.1,2.1,16.1,3.2,24.2c0.3,2,0.3,4,0.6,5.9
		c0.6,3.4,1.2,6.9,2,10.3c0.5,2.2,0.4,4.6,1.5,6.6c2,0,3.8,0,5.5,0c0.2-0.3,0.3-0.4,0.3-0.5c-0.5-7.3-1-14.6-1.6-21.9
		c0-0.1-0.1-0.2-0.1-0.3c-1.8-9.1-3.6-18.3-5.3-27.4c-0.1-0.4-0.4-0.8-0.5-1.1C16.7,218.9,15,219.4,12.9,219.9z M46.6,351.6
		c-3.8-5.9-7.5-11.7-11.3-17.4c-0.1-0.2-0.5-0.3-0.9-0.6c-0.8,1.8-1.3,3.6-2,5.3c-0.7,1.9-0.8,3.9-0.5,5.8c0.8,5.1,2.4,9.9,5.4,14.2
		c1.2,1.8,2.6,3.2,4.7,4.1c0.6-0.2,1.3-0.3,2-0.6c0.6-0.2,1.3-0.4,1.9-0.7C46.4,358.3,45.5,354.8,46.6,351.6z M186.5,309.5
		c-5-9.2-10.4-17.9-15.4-26.6c-1-0.1-1.8-0.2-2.8-0.4c1.3-1.8,0.3-3-0.6-4.2c-0.6-0.8-1.3-1.3-2.4-1.1c-0.8,0.2-1.3,1.4-1,2.7
		c0.2,1,1.1,2.1,0.9,2.9c-0.4,1.7,0.7,2.6,1.3,3.8c2,3.5,4.2,7,6.1,10.5c2.1,3.9,3.8,8,5.7,11.9c0.4,0.8,0.6,1.8,1.7,2.2
		C181.9,310.7,183.9,310.2,186.5,309.5z M52.7,345.4c-3.5-3-5.7-7-8.2-10.8c-2.5-3.8-4.9-7.7-7.5-11.3c-1.8-2.5-3.5-4.9-4.7-7.7
		c-0.3-0.6-0.4-1.4-1.4-1.4c-1,0.8-2.1,1.7-3.1,2.6c0.2,0.7,0.5,1.3,0.4,1.8c-0.5,2.4,0.9,4.2,2.4,5.5c1.3,1.1,2.2,2.3,3.1,3.7
		c1.8,2.8,3.5,5.8,5.5,8.5c3.7,5,7.7,9.9,11.6,14.9c0.1,0.2,0.4,0.2,0.6,0.4C53.8,350,52.2,347.5,52.7,345.4z M160.9,317.3
		c1.4,0.2,2.6,0.5,3.9,0.7c1.4,0.2,2.6,1.1,3.7,0.8c3.9-2,5.3-6,8.6-8c-2.6-4.7-5.1-9.3-7.6-13.8c-0.7,1.4-1.2,2.6-1.9,3.8
		c-0.6,1-1.3,1.9-1.9,2.9c-1.4,2.3-2.7,4.6-3.4,7.3C161.8,312.9,161.4,315,160.9,317.3z M176.9,286.8c1-0.3,1.1-0.9,1.1-1.6
		c0-2.4,1-4.5,2.3-6.4c1.2-1.9,2.6-3.6,4.3-5c1.8-1.5,3.6-2.9,5.4-4.4c0.4-0.3,1-0.5,0.8-1.4c-1.9,1-3.8,1.9-5.6,2.8
		c-4.4,1.9-8.7,3.8-13.1,5.7c-0.6,0.3-1.1,0.7-1.8,1c0.4,1,0.7,2,1.2,2.7c1.4,2,2.9,3.9,4.4,5.8
		C176.2,286.3,176.6,286.6,176.9,286.8z M16.7,207.1c-0.3-4.3-2.6-17.7-3.4-20.2c-1.4-0.1-2.6,0.4-3.9,0.9
		c-0.2,3.9,0.5,7.5,0.8,11.2c0.3,2.9,0.7,5.7,1,8.6c0,0.1,0.1,0.2,0.2,0.3c0.1,0.1,0.2,0.1,0.1,0C13.3,207.6,14.8,207.4,16.7,207.1z
		 M338,366.2c-0.9,2.1-1.1,4.4-1.3,6.7c-0.1,1.9-0.2,3.7-0.6,5.5c-0.5,2.4-0.8,4.8-0.8,7.3c-0.1,2-0.3,3.9-0.4,5.9
		c-0.1,2.8-0.3,5.6-0.3,8.4c0.1,3.5,0.3,6.9,0.6,10.4c0,0.2,0.4,0.3,0.9,0.6c0.1-2,0.1-3.7,0.2-5.5c0.2-4.9,0.6-9.8,0.5-14.6
		c-0.1-6.6,0.5-13.2,1.1-19.8C338.2,369.5,338,367.8,338,366.2z M371,415.3c-0.4-0.2-0.7-0.4-1.1-0.5c-2.4-0.3-4.9-0.5-7.3-0.9
		c-2.4-0.3-4.8-0.6-6.3-2.8c-2.8,0-5.5,0-8.1,0c-0.6,1-0.7,1.8,0,2.6c1.4,0.4,2.8,0.7,4.1,1.1c2.2,0.8,4.5,0.9,6.8,0.9
		c1.7,0,3.5,0,5.2,0.2C366.5,416.1,368.7,416.6,371,415.3z M268.7,279c0.3-1.5-0.4-2.6-1-3.6c-2-3.5-4.4-6.8-7.1-9.9
		c-0.1-0.1-0.4-0.2-0.6-0.2c-0.9,1.1-0.9,1.1-1.3,2.4C262,271.5,265.3,275.2,268.7,279z M18.4,216.4c-0.2-1.5-0.4-3-0.7-4.5
		c0-0.2-0.1-0.5-0.2-0.7c-0.7-2-3.3-2.6-4.8-1c-0.7,0.8-1.1,1.7-0.7,2.9c1.1,0.2,2.1,0.2,3.1,0.5c0.3,0.1,0.6,0.6,0.7,1
		c0.1,0.2-0.3,0.7-0.5,0.8c-1,0.4-1.9,0.6-3.1,1c0.1,0.5,0.3,0.9,0.4,1.5C14.7,217.4,16.5,216.9,18.4,216.4z M370,279.6
		c1,2.5,1.9,4.4,2.4,6.4c0.5,1.9,0.7,3.9,1,6.1c1.8-3.5,1.3-6.7,0.4-10.1C372.8,281.4,371.7,280.7,370,279.6z M354.4,417.9
		c-1.5-2.6-3.9-2.6-6.5-2.8c-0.2,0.7-0.3,1.3-0.6,2.4C349.8,417.4,351.8,419.7,354.4,417.9z M103.5,191.7c0.7-0.6,1.3-1.1,1.8-1.6
		c0.6-0.6,1.7-0.6,1.8-1.8c-0.5-0.3-1.1-0.5-1.5-0.9c-0.4-0.4-0.6-0.9-0.9-1.3c-2.9,1.6-3.1,2.1-2.1,4.4
		C102.8,191,103.2,191.3,103.5,191.7z M425.3,318.6c1.2-2,1.3-4.3,2-6.3c0.3-0.9,0.4-1.8,0.5-2.7c0-0.3-0.1-0.6-0.2-1
		c-1.2,0-1.7,0.6-1.8,1.7c-0.2,2.5-0.4,5.1-0.7,7.6C425.1,318.1,425.2,318.3,425.3,318.6z M423.6,323.8c0-1.5-0.1-3,0-4.5
		c0.1-2.4,0.4-4.8,0.5-7.2c0-0.5,0.2-1.2-0.9-1.3C422.8,315.2,421.9,319.4,423.6,323.8z M421.9,311.6c-0.4,0.4-0.8,0.7-0.9,0.9
		c-0.5,3.1-0.7,6.1,0.1,9.2c0.2-1.6,0.3-3.2,0.2-4.8C421.3,315.1,422.4,313.5,421.9,311.6z M26.3,273.1c-0.2-0.4-0.2-0.9-0.4-0.9
		c-1.5-0.6-3.1-0.4-4.7-0.1c-0.2,0-0.3,0.5-0.4,0.8c0,0.1,0.2,0.5,0.4,0.5C22.8,273.5,24.5,273.5,26.3,273.1z M35,312.1l0.1-0.2
		l-0.2,0L35,312.1z M192.6,267.6c0.1,0,0.2,0.1,0.3,0.1c0,0,0.1-0.1,0.1-0.1c-0.1,0-0.2-0.1-0.3-0.1
		C192.7,267.4,192.6,267.5,192.6,267.6z M419.1,264.4c-0.1,0.1-0.2,0.2-0.2,0.2c0.2,0.1,0.4,0.2,0.6,0.3c0.1,0,0.2-0.1,0.3-0.2
		C419.5,264.6,419.3,264.5,419.1,264.4z M371.2,429.9l-0.2-0.1l0,0.1L371.2,429.9z M382,431.8c-0.2,0-0.4,0-0.6,0
		c0.1,0.1,0.1,0.2,0.2,0.2c0.1,0,0.2,0,0.3,0C382,432,382,431.9,382,431.8z M161.7,279.3c0-0.1,0.1-0.2,0.1-0.3c0,0-0.1-0.1-0.2-0.1
		c0,0.1-0.1,0.2-0.1,0.2C161.5,279.2,161.6,279.3,161.7,279.3z"/>
	<path d="M886.7,323.8c-0.3,1.1-0.7,2.2-1.1,3.5c0.2,0.8,0.6,1.9,0.9,2.9l0.1-0.1c-0.8,0-1.3-0.5-1.6-1.1c-0.9-1.6-1.9-3.2-2.1-5.1
		c-0.3-3-0.6-6-0.9-8.9c-1.2,2.9-1.1,6.2-1.6,9.3c-0.9,0.2-1.1-0.3-1.2-0.7c-0.9-1.8-1-3.8-1-5.8c0-1.7,0.1-3.4,0-5.3
		c-0.9,0.2-1.5,0.2-2,0.5c-1.4,1-2.8,2.1-4.1,3.1c-1,0.7-1.6,2-3,2.1c0-0.3,0-0.8,0.1-1c1.6-2.2,3.5-4,5.9-5.4
		c0.9-0.5,1.9-0.7,2.9-0.9c0.8-0.1,1.6,0.1,2.4,0.1c3.7-2.1,7.8-3.2,11.3-6.1c0.2-1.1,0.4-2.4,0.6-3.7l-0.1,0.1
		c1.8-1.4,2.2-3.5,2.8-5.4c0.9-3,0.7-6.2,0.8-9.3l-0.1,0.1c1.2,1,1.3,2.5,1.4,3.9c0.1,1.2,0.1,2.5,0.1,3.7c-0.2,0.2-0.3,0.4-0.1,0.2
		c-0.1,0.3,0,0,0.1-0.3c1.2-0.7,1.3-1.8,1.2-3c0-2.6-0.7-5-1.8-7.3c-1.5-2.9-2.8-5.8-4.4-8.7c-1.6-2.9-3.9-5.3-7.2-7.5
		c0.5,0.8,0.6,1.1,0.8,1.4c1.6,2.3,3.2,4.6,4.7,6.9c0.3,0.4,0.3,1.1,0.4,1.6l0.1-0.1c-1.2-0.3-1.4-1.6-2.1-2.4
		c-0.7-0.8-0.9-2-2.1-2.4c0-1-0.6-1.6-1.4-2.1c0-0.4-0.2-0.7-0.7-0.7c0-0.5-0.2-0.8-0.7-0.7c-0.6-2.1-2.4-3-4.1-3.9
		c-2.3-1.1-2.3-1.1-3.5-2.5c-0.1-0.1-0.2-0.3-0.3-0.4c1.4-4.8,4.8-6.8,9.7-6.8c-2.1-2.2-3.8-2.8-5.5-1.7c-2.4,1.6-4.8,3.3-6.3,5.9
		c-0.7,1.2-1.3,2.5-0.9,4.1c0.4,0.1,0.9,0.1,1.3,0.2c0.5,0.1,1.1,0.2,1.6,0.3c0.1,0.4,0.2,0.7,0.1,0.9c-1.5,3.9-2.9,7.8-4.4,11.6
		c-0.2-0.9-0.1-1.8,0-2.7c0.1-1,0.2-2,0.4-3.1c0.1,0,0.2,0,0.3,0c0.1,0,0.1-0.2,0.1-0.2c-0.1,0.1-0.2,0.2-0.3,0.3
		c-1.3,1.3-1.6,3-2.1,4.7c-0.3,0.8-0.6,1.7-0.8,2.5c-0.1,0-0.3-0.1-0.4-0.1c0.1-1.7,0.2-3.4,0.3-5.5c-1.6,2.2-2.5,4.3-2.9,6.4
		c1.3,1.4,3.1,1.6,3.9,3.1c-0.1,1-0.2,1.9-0.1,2.8c0.1,0.9,0.5,1.8,0.9,2.6c0.4,0.8,0.9,1.4,1.5,2.3c-1.9,0.4-2.1-1.4-3.1-2
		c-0.1-0.7-0.1-1.4-0.2-2.2c-0.2,0.9-0.6,1.6,0.3,2.1c-0.2,0.4-0.4,0.8-0.5,1.1c-0.9-0.1-1.5-0.4-1.6-1.2c-0.1-0.7-0.1-1.4-0.1-2
		c0.1-0.1,0.1-0.1,0.2-0.2c0,0.1-0.1,0.2-0.1,0.3c-0.6,0.2-1.5,0.8-1.8,0.6c-1.1-0.7-1.9,0.4-3,0.4c-0.4-0.4-1-0.8-1.4-1.1
		c0.2-0.8,0.3-1.4,0.4-2.1c0.1,0,0.2-0.1,0.3-0.1c-0.1,0.1-0.2,0.2-0.2,0.2c-0.9,0.6-1.9,1.2-2.8,1.9c0.4,0.4,0.8,0.9,1.3,1.3
		c-0.7,1-1.4,0.8-2.2,0.4c-1.4-0.7-1.6-1.8-0.4-2.6c0.6-0.4,1.2-0.7,1.8-1c1-0.6,1.6-1.4,2.2-2.5c-0.7-0.3-1.2-0.5-1.9-0.8
		c1.8-1,3.5-1.9,4.2-3.7c0.4,0,0.7-0.2,0.7-0.7c0.6,0.2,1.2,0,1.5-0.5c0.3-0.5,0.6-1,0.8-1.5c1.3-3.4,3.5-6,6.8-7.5
		c0.3-0.2,0.6-0.5,1.4-1.1c-1.8,0.1-2.9,0.1-4,0.6c-1.1,0.6-2.3,1.1-3.5,1.5c-2.2,0.7-4,1.7-5.4,3.5c-0.7,0.9-1.3,1.9-2.5,2.2l0,0
		c0-0.5,0-0.9,0-1.4c0.5-0.1,0.7-0.3,0.5-0.8c0.1,0,0.2,0,0.3,0c0.1,0,0.1-0.1,0.1-0.2c-0.1,0.1-0.2,0.2-0.4,0.3
		c-0.3,0.2-0.5,0.4-0.8,0.6c-1.7,0.3-2.6,1.8-3.9,2.6c-1.1,5.3-4.4,8.1-9.6,8.8c-1.7,0.3-3.4,0.5-5.2,0.8c-0.4,1.5-0.7,3.1-1.3,4.6
		c-0.6,1.6-1.7,3.1-2.3,4.7c-0.3,0.8-0.4,1.8-0.4,2.7c0,2.1-0.2,4.2-0.8,6.2c-0.2,0.8-0.4,1.5-0.6,2.3c0.5,0.1,0.8,0.3,1.1,0.3
		c3.1,0.1,6.3,0.2,9.4,0.1c1.8-0.1,3.1,1.1,3.6,2.7c0.2,0.7,0.2,1.4,0.3,2.1c0.3,1.5,0.5,3,0.9,4.4c0.4,1.4,1.3,2.1,2.6,1.5
		c1.7-0.7,3.3-0.7,5.1-0.2c0.4,0.1,1-0.3,1.6-0.5c-0.4-1-0.7-1.9-1.1-2.8c0.4-0.2,0.7-0.3,1.1-0.5c0.7,1.2,1.3,2.4,1.9,3.5
		c2.4,0.6,2.7-1.5,3.7-2.6c0.7,1.5,1.4,2.9,2,4.3c0.4,0.9,1.1,1.1,1.9,1.3c-0.6,1.2-1.3,1.6-1.9,0.9c-0.8-0.9-1.4-1.8-2.2-2.8
		c-1.5-0.5-3,1.7-4.5-0.1c-1.3,0.7-2.5,1.5-4,0.7c-0.9-0.5-1.8,0.2-2.7,0.4c-2.3,0.6-3.2,0.3-4.3-1.8c-0.6-1.2-1-2.6-1.4-3.9
		c-0.4-1.3-0.6-2.7-0.9-4.1c0-0.1-0.2-0.2-0.4-0.4c-3.9-0.1-7.9-0.2-12-0.3c-0.3,0-0.6,0.2-0.9,0.3c-1.9,2.9-3.1,6-4.3,9.2
		c-1.5,4-2.9,8.1-4.5,12.1c-1.4,3.4-1.6,7-1.8,10.6c-0.2,3.1-0.2,6.3-0.5,9.4c-0.2,1.8-0.7,3.7-1.5,5.4c-0.7,1.6-0.9,3.1-0.7,4.7
		c0.1,0.8,0,1.6,0.1,2.4c0.4,4.2-0.2,8.3-1.5,12.4c-0.6,1.8-0.9,3.6-1.1,5.5c-0.3,2.9-1.1,5.7-2.2,8.4c-1.3,3.3-2.1,6.7-2.7,10.1
		c-0.5,3.1-1,6.2-2.1,9.2c-0.2,0.6-0.1,1.3-0.2,2.2c1.1,0.1,2,0.2,2.9,0.2c3.2-0.1,6.3,0.4,9.3,1c4,0.9,7.9,2.1,12,2
		c0.5,0,0.9,0.1,1.4,0.3c0.2,0.1,0.3,0.3,0.5,0.4c-0.8,3.4-2.3,4.8-5.4,4.8c-1,0-2.1,0-3.1-0.2c-3.2-0.8-6.5-0.3-9.7-0.4
		c-2.2,3.1-2.5,3.2-6.1,2.6c-0.9-0.1-1.8-0.3-2.9-0.5c-0.3,1.5-0.4,2.6,0.9,3.5c0.8,0.5,1.5,1.2,2.7,2.2c1.6,0.3,4.1,0.4,6.5,0.2
		c1.2-0.1,2.3,0.2,3.4,0.4c4.2,1,8.1,3.1,12.5,2.8c0.5,0,0.9,0.1,1.4,0.2c2,0.5,4.1,1,6.2,1c1.2,0,2.3,0.6,3.2,1.2
		c1.4,0.9,1.5,2.1,0.3,3.2c-1,0.8-2,1.6-3.2,2.6c-2.9-0.2-6-0.5-9.1-0.8c-0.7,0.7-1.2,1.6-1.9,2c-0.8,0.4-1.8,0.4-2.7,0.4
		c-2.3,0.1-4.7-0.2-6.9-1c-3-1.1-5.9-1.2-8.9-0.6c-3.1,0.6-6.2,0.7-9.4,0.1c-1.6-0.3-3.2-0.9-4.2-2.3c-0.8-1.2-1.5-2.7-1.8-4.1
		c-0.5-1.8-0.9-3.6-0.6-5.5c0.1-0.6,0.1-1.2,0-1.7c-0.4-2.6-0.5-5.1,0.1-7.4c-0.9-1.4-1.8-2.4-2.4-3.6c-0.5-1.1-0.6-2.5-0.8-3.7
		c-0.4-3-0.4-6-0.2-9.1c0.3-3.4,0.5-6.7,0.7-10.1c0.2-2.9,0.6-5.8,1.6-8.6c0.2-0.6,0.2-1.4,0.3-2c0.5-5.1,1.1-10.2,1.6-15.3
		c0.1-0.9,0.2-1.9,0.5-2.7c1.1-2.5,0.8-5,0.7-7.6c0-4.5,0-9.1,0-13.6c0-1.3-0.2-2.5-0.3-3.8c0-0.3,0-0.7,0-1
		c0.2-1.7,0.5-3.4,0.7-5.2c0.1-1.4,0.3-2.7,1.2-3.9c0.3-0.4,0.2-1.1,0.3-1.7c-0.5-0.1-0.8-0.2-1.1-0.2c-2.5,0.3-5.1,1-7.6,1
		c-5.6,0.1-10.6-1.5-14.2-6.2c-2.4-3.1-5.1-6.1-5.7-10.1c-4.5-4.8-9.8-8.3-15.9-10.8c-5.4-2.2-10.7-4.6-16-6.8
		c-0.8,0.4-1.4,0.7-2.2,1.1c0,0.1-0.1,0.3-0.1,0.5c1.7,4.2,3.5,8.4,5.1,12.6c2,5.3,3,10.8,3,16.4c0,2.3,0.2,4.6,0.8,6.9
		c0.5,2,0.6,4.1,0.7,6.2c0.2,5.2,0.2,10.5-0.5,15.7c-0.3,2.3-0.7,4.6-1.1,6.9c-0.3,1.5-0.8,2.9-1.9,4c-1.2,1.3-2.2,2.7-3.4,4
		c-2.5,2.9-5.7,4.7-9.4,5.7c-2.8,0.8-5.3-0.1-7.4-2.1c-0.8-0.8-1.5-1.3-2.5-1.7c-0.8-0.3-1.5-1-2.2-1.6c-1.1-0.9-2-1.9-3.1-2.8
		c-1.9-1.6-3.8-3.1-5.7-4.6c-1-0.8-2-1.7-3.1-2.3c-3-1.5-5.4-3.7-7.5-6.2c-4.9-5.8-9.3-12-13.3-18.4c-0.5-0.8-0.9-1.6-1.5-2.3
		c-5.2-6.4-10.4-12.9-16.6-18.4c-0.8-0.7-1.4-1.6-2.8-1.7c-2.1,1.8-4.9,2.1-7.7,2.1c-3.4,0-6.7,0.5-9.9,1.6c-1.8,0.6-3.6,1-5.4,1.6
		c-1.6,0.5-3.2,0.7-4.8-0.1c-1,1.3-1.8,2.5-2.8,3.6c-1,1.1-2.2,2-3.6,3.2c-1.4,0.2-3.1,0.2-4.9-0.2c-1.6-0.4-3.2-0.6-4.8-0.8
		c-1.5-0.1-2.3-0.9-2.8-2.2c0.8-1.6,1.5-3.2,2.2-4.7c-2.5-1.2-4.8-1.2-7.2-0.3c-0.8,0.3-1.9,0.6-2.7,0.4c-3.3-0.6-6.7,0.7-10-0.3
		c-0.3-0.1-0.7,0.1-1,0.2c-0.8,0.2-1.6,0.5-2.3,0.8c-6.4,3.1-13.3,4.1-20.1,5.8c-5.9,1.5-12,1.9-18,2.1c-3.4,0.1-6.7,0.3-10.1,0.1
		c-2.3-0.2-4.6,0.5-6.9,0.9c-1.6,0.3-3.2,0.5-4.8,0.9c-2.8,0.7-5.7,0.9-8.4,2.2c-1.3,0.7-2.9,0.9-4.3,1.3c-1,0.3-2,0.6-3.3,1
		c2.1,0.7,2.3,2.5,3.1,3.8c-0.3,1-0.7,1.8-0.9,2.7c-0.5,2.5-1.9,4.5-3.4,6.4c-1.4,1.7-2.7,3.5-3.9,5.3c-0.4,0.5-0.5,1.3-0.6,1.9
		c-0.2,0.8-0.3,1.6-0.6,2.4c-1.2,2.9-2.7,3.7-6.2,3.3c-0.1,0.8-0.2,1.5-0.3,2.3c0,2.4,0,4.9,0,7.1c-0.4,0.3-0.5,0.6-0.7,0.6
		c-2.1,0.6-4.2,1.2-6.3,1.7c-5-3.9-8.3-8.6-10-14.5c-1.1-3.9-1.3-7.8-1.1-11.8c0.1-1.7,0.9-3.4,1.4-5c0.4-1.3,1-2.6,1.5-3.8
		c-0.5-1.7-1.3-2.7-2.5-3.8c-2.2-2-3.7-4.4-4.2-7.4c-0.2-1-0.6-2-1-2.9c-0.4-1.2-0.5-1.3-0.1-3.1c2.3-0.4,4.1-2.6,6.8-1.7
		c0.5-5.7,0.3-8.4-0.9-12.3c-1.5-0.7-3.4,1.3-4.8-0.5c0.8-1.8,2.7-1.6,4.2-2.6c-0.1-0.6-0.1-1.2-0.2-1.9c-1.1-6-2.1-11.9-3.2-17.9
		c-0.1-0.5-0.3-1.1-0.5-1.6c-1.9,0.3-3.5,0.6-5.4,0.9c0.9,5.9,1.8,11.6,2.7,17.3c1.8,0.4,3.7-0.7,5.4,1c-1.7,0.9-3.4,0.2-4.8,0.6
		c-0.7,0.6-0.5,1.2-0.4,1.7c0.5,4,1.1,8.1,1.6,12.1c0.2,1.3,0.4,2.5,0,3.8c-0.8,0.2-1.1-0.4-1.1-1c-0.7-4.5-1.6-9-2.1-13.5
		c-0.9-9.3-2.2-18.5-3.9-27.7c-0.4-1.8-0.6-3.7-1-5.5c-0.1-0.6-0.1-1.2-0.3-1.7c-1.6-3.2-1.5-6.8-1.9-10.2
		c-0.7-5.3-1.4-10.6-2.2-15.9c-0.9-6.1-1.7-12.2-2.7-18.3c-1.4-9.1-2.5-18.2-3.3-27.4c-0.9-10-1.1-20-0.9-30c0-0.6,0.1-1.1,0.5-1.4
		c0.3,0,0.4,0,0.5,0.1c0.1,0.2,0.3,0.4,0.3,0.6c0.2,8.4,0.8,16.7,1.5,25.1c0,0.1,0.1,0.2,0.4,0.5c1,0.1,2.2-0.2,3.4-0.5
		c0.3-2.2-0.2-7.4-1.1-10.9c-0.8-0.2-1.6-0.4-2.9-0.7c1.1-0.6,1.8-1.1,2.7-1.6c0-0.7,0-1.5,0-2.4c-0.8-0.4-1.5-0.7-2.6-1.2
		c0.8-0.5,1.4-0.8,2.1-1.2c0.2-3-0.8-5.9-1-8.9c-0.6-0.3-1.2-0.6-1.8-0.9c1-1.2,1-1.2,3.1-0.9c-0.1,0.5-0.3,1.1-0.2,1.5
		c0.1,0.7,0.4,1.3,0.6,2c0.5,2.1,1.1,4.3,1.5,6.4c1.5,7.2,3,14.4,4.3,21.6c1.4,7.8,2.7,15.6,3.9,23.4c1.1,6.7,2.1,13.3,3.1,20
		c0.5,3.1,0.7,6.2,1.1,9.4c0.2,1.7,0.4,3.5,0.6,5.2c0.6,6.6,1.1,13.2,1.6,19.8c0.7,8.3,1.9,16.4,3.6,24.5c0.9,4.1,1.7,8.2,2.5,12.3
		c0.3,1.4,0.6,2.7,1,4.2c0.5-1.3,0.9-2.4,1.4-3.5c1.1-2.4,3.7-2.2,5.4-1.6c0.4,0.2,0.8,0.4,1.2,0.7c1.8,1.3,3.7,2.4,6.1,2
		c0.4-0.1,0.9,0,1.4,0.2c3,1,5.9,2,8.9,3.1c1.3,0.5,2.1,1.4,2.2,3c1-0.7,1.7-1.2,2.5-1.7c2.1-1.3,4.3-2.3,6.9-2.2
		c0.8,0,1.6-0.2,2.3-0.5c2.8-1.5,5.6-2.8,8.2-4.6c4.6-3.1,9.7-5,14.8-6.9c0.3-0.1,0.7-0.3,1-0.2c2,0.5,3.6-0.5,5.3-1.2
		c2.1-0.8,4.2-1.5,6.3-2c4.7-1,9.4-2.1,14.1-2.6c4.6-0.5,9.2-1.3,13.9-1.2c0.5,0,1.1-0.3,1.6-0.5c2.5-1,5-1.7,7.7-2.2
		c3.3-0.6,6.5-1.7,9.7-2.7c1.3-0.4,2.5-1.2,3.3-2.7c-0.1-0.3-0.1-0.8-0.3-1.2c-3.6-4.5-6.1-9.7-9.2-14.4c-2.7-4.1-5.4-8.2-8.1-12.2
		c-7.1-10.4-15.1-20.1-22.3-30.5c-3.4-4.9-7.2-9.5-10.6-14.3c-7-9.9-13.8-19.9-20.9-29.8c-3.7-5.1-7.2-10.3-10.2-15.8
		c-0.2-0.4-0.4-0.8-0.5-1.1c0.5-0.7,1-0.6,1.3-0.2c1,1.3,1.9,2.7,2.8,4c2,3,4.1,6,6.2,8.9c0.5,0.7,1.3,1.2,2,1.8l-0.1-0.1
		c0.1,0.3,0.1,0.7,0.3,0.9c3,3.7,6,7.3,9.1,11c0.1,0.2,0.4,0.2,0.8,0.4c1.3-1.2,2.9-2,4-3.8c-2.1-2.9-4.2-5.8-6.3-8.7
		c-0.9-1.2-1.9-2.3-2.9-3.4l0.1,0.1c-0.9-1.4-1.7-2.7-2.5-4.1c-2.1,0.1-3,2.1-4.7,2.3c-0.5-0.5-0.3-0.9,0-1.2c1-0.9,2.1-1.8,3.3-2.9
		c-0.6-0.9-1.2-1.8-1.8-2.7c-0.8,0.3-1.4,0.5-2.1,0.8c-0.4-1.3,1.1-1.4,1.2-2.5c-0.6-1.1-1.4-2.2-2.1-3.4c0.5-0.7,1-0.4,1.4,0.1
		c0.4,0.4,0.7,0.9,1,1.4c2.7,3.7,5.4,7.3,8.1,11c2.5,3.4,5.1,6.7,7.6,10c0.7,0.9,1.2,2,2.3,2.5c0.4,0.2,0.8,0.7,0.8,1
		c0,1.3,0.9,2.1,1.6,3c6.3,8.5,12.7,17,19,25.5c5.8,7.9,11.4,15.9,17.4,23.6c3.3,4.2,5.8,8.7,8.4,13.2c2.1,3.5,4.3,6.9,6.5,10.3
		c2.5,3.9,5,7.9,7.5,11.8c1.1,1.7,2.2,3.2,3.4,5c3.4-2.2,6.9-3.7,10.6-4.8c0.4-0.1,0.9-0.4,1.2-0.6c2.9-1.8,6-3,9.2-4.2
		c4.6-1.7,9.1-3.6,13.6-5.4c1.4-0.5,2.8-1.3,4.4-1c-0.1,0.3-0.2,0.8-0.4,0.9c-1.8,0.1-3.3,1.1-4.9,1.7c-4.6,1.9-9.1,4.1-14.1,5.1
		c-1.5,0.3-2.8,1.1-3.9,2.2c-0.6,0.6-1.3,1-2,1.3c-3.6,1.6-7.3,3.2-10.9,4.8c-1.3,0.6-2.6,0.9-3.6,2c-0.3,0.4-1,0.7-1.6,0.6
		c-1.5-0.1-2.7,0.7-4,1.2c-4.6,2-9.2,4-13.8,5.9c-1.1,0.4-2.2,0.8-3.3,1c-2.3,0.4-4.6,0.8-6.7,1.7c-0.6,0.3-1.3,0.3-2,0.4
		c-2,0.3-3.9,0.5-5.9,0.8c-3.2,0.4-6.5,0.8-9.7,1.2c-1.5,0.2-3,0.3-4.5,0.6c-6.6,1.3-13.2,2.9-19.7,4.8c-1,0.3-1.9,0.8-2.9,1.2
		c-2.9,1.5-5.8,2.9-8.7,4.4c-2.6,1.3-5.3,2.4-7.8,3.9c-4.4,2.6-9,4.4-13.9,5.5c-1.2,0.3-2.4,0.7-3.6,1c-0.6,1.7-1.2,3.2-1.6,4.4
		c-0.8,1.3-2.6,1.3-2.6,3.2c0.7,0.4,1.4,0.8,2.6,1.4c-1.6,0.5-2.6,0.8-3.7,1.1c0.8,1.7,0.9,3.7,2.9,4.7c0.8-0.2,1.6-0.4,2.3-0.7
		c4.9-2.4,10.2-3.2,15.4-4.5c1.1-0.3,2.3-0.4,3.4-0.8c2.5-0.8,5-1,7.6-1c3.7,0,7.5,0.1,11.2,0c3.3-0.1,6.5-0.2,9.7-0.8
		c6.8-1.2,13.6-2,20.1-4.5c0.8-0.3,1.6-0.5,2.3-0.7c3.5-0.8,6.9-2,9.8-4.3c0.6-0.5,1.3-0.5,2-0.1l-0.1-0.1c-0.3,0.6-0.6,1.2-1,1.9
		c1.4,0.2,2.5,0.6,3.6,0.5c1.8-0.1,3.7,0.1,5.3-1.1l-0.1,0.1c2.2-0.3,4.3-0.7,6.5-1.1c0.3-0.1,0.8-0.2,0.9-0.5
		c0.7-1.6,2-1.4,3.3-1.1c3.6,0.7,7.2,0.5,10.8,0.3c1.4-0.1,2.7-0.7,4.1-0.8c1.4-0.1,2.8,0.1,4.1,0.1c2.2-0.1,4.4-0.2,6.6-0.3
		c1.6-0.1,3.3-0.1,4.9-0.2c4-0.4,8.1-0.8,12.1-1.2c3.1-0.3,6.2-1.1,9.1-2.2c2.4-0.9,4.8-1.8,7.2-2.6c2.7-1,5.5-1.8,8-3.1
		c0.2-1.6,0.2-2.9-0.3-4.3c-0.3-0.9-0.6-1.8-0.8-2.7c-2.9-11.1-8.7-20.7-15.1-30.1c-0.7-1-1.6-1.3-2.7-1.1c0.8-1.4,1.5-2.8,1.7-4.5
		c0.2-2.1,1.1-4,2.2-5.8c2.2-3.5,5.2-6,9-7.9c5-2.5,10.2-3.9,15.7-4.4c8.1-0.7,16,0.4,23.9,2.5c1.1,0.3,2.1,1,3.3,1.6
		c4.5-1,9.1-0.1,13.7,0.4c5.2,0.6,10.4,1.2,15.6,2c5.4,0.8,10.8,1.7,16.2,2.7c1.8,0.3,3.5,1.1,5.3,1.8c14.5,6,28.8,12.5,42.5,20.4
		c3.8,2.2,7.3,4.6,10.6,7.4c1.8,1.5,3.7,2.9,5.5,4.4c1.2,1,2.7,1.5,4.2,1.7c2.5,0.3,4.9-0.2,7.2-1c1.3-0.5,2.2-1.6,2.9-2.9
		c1.9-3.6,4.3-6.9,7.7-9.3c1.2-0.9,2.6-1.5,4.1-1.9c2.5-0.8,5.1-1.4,7.9-2.1c0-0.6,0.1-1.3,0.1-1.9c0.3-2.7,1.7-4.8,3.7-6.5
		c0.9-0.8,1.9-1.6,2.7-2.6c1.3-1.5,3.2-1.7,5.1-1.3c1.5,0.3,2.9,1,3.9,2.2c3.5,4.2,5.7,9,5.9,14.6c0,1.1-0.5,1.7-1.5,2
		c0.9-1.4,0.7-2.9,0.2-4.4c-1.1-3.3-2.6-6.4-4.4-9.3c-4.6-0.4-7.2,0.8-9.1,4.2c1.2,0.2,1.8-0.9,2.8-1.1c1-0.1,1.8-0.5,2.3-1.4
		c1.4,0.7,2.9,1.1,3.6,2.6l-0.2,0.2c-0.2,0.1-0.4,0.1-0.6,0.2c0.3,1.6,0.6,3.3,1,5.3c1.3,1.1,2.9,2.4,4.5,3.6
		c3,3.2,4.7,7.1,6.3,11.1c0.3,0.8,0.4,1.6,0.8,2.3c2.3,4.4,1.3,8.9,0.5,13.3c-0.4,2-1.6,3.9-2.5,5.7c-0.4,0.7-1.1,1.2-1.7,1.7
		c-0.7,0.6-1.5,1.1-2.3,1.7c-0.4,4.5-1.7,8.8-3.4,13C888.5,321.2,887.8,322.7,886.7,323.8c-0.7-1-0.7-2.1-0.6-3.3c0.3-3,0.5-6,0.7-9
		c0-0.3-0.2-0.7-0.5-1.5c-1.4,8.7-1.3,8.9-0.6,13.5C886,323.6,886.4,323.7,886.7,323.8z M844.6,431.5c0.1,0.1,0.1,0.2,0.2,0.3
		c0,0,0.1,0,0.2,0c-0.2-0.1-0.3-0.1-0.5-0.2c-0.2-0.1-0.3-0.2-0.5-0.3C844.3,431.4,844.5,431.5,844.6,431.5z M897.1,298.6
		c0.1-0.2,0.3-0.4,0.1-0.2C897.3,298.1,897.3,298.4,897.1,298.6l-0.2,0.2L897.1,298.6z M862.8,279.7c0.6-0.1,1.4-0.1,1.9-0.5
		c0.6-0.4,0.9-1.1,0.4-2.3C864.2,278,863.5,278.9,862.8,279.7l-0.1,0.3L862.8,279.7z M601.2,230.2c-0.2-0.3-0.5-0.5-0.7-0.8
		c0.3-0.8-0.4-1.3-0.8-1.8c-2.1-2.8-4.3-5.5-6.3-8.3c-6.8-9.1-13.6-18.3-20.5-27.4c-0.4-0.6-0.9-1.1-1.3-1.6
		c-1.4,0.9-2.8,1.8-4.2,2.7c0.6,1,1.2,2.1,1.8,3.2c0.5,0.9,0.8,1.9,1.4,2.7c7.3,10.6,14.7,21.2,22.1,31.8c0.6,0.8,1.3,1.6,1.9,2.5
		c2-1.3,4-2.6,5.9-3.9C600.8,229.6,601,229.9,601.2,230.2c-0.5,0.6-1.1,1.3-1.7,1.9c-1,0.8-2,1.5-3,2.3c-0.2,0.1-0.2,0.4-0.4,0.7
		c0.4,0.5,0.8,1,1.2,1.5c1.6-0.4,2.9-1.2,4.1-2.1c0.9-0.6,1.8-1.1,2.8-1c-0.6,1.2-1.3,2.2-2.4,2.9c-1.1,0.6-2.1,1.3-3.3,2
		c3.7,6,8,11.4,11.5,17.3c3.5,5.9,7.6,11.3,11.4,16.9c0.9,0.1,1.5-0.8,2.2,0c0.5,1.1-0.8,1.3-1,2.2c0.3,0.3,0.7,0.7,1.1,1.1
		c1.7-0.9,3.4-1.8,5-2.6c-3.3-6.3-7.2-11.9-10.7-17.7c-1.8,0.2-2.6,2.4-4.6,1.5c0.7-1.6,2.8-1.9,3.3-3.8c-0.5-0.7-1-1.4-1.5-2.2
		c-0.8,0.7-1.5,1.3-2.3,1.8c-0.4,0.3-1,0.6-1.5-0.2c1-1.1,2-2.2,3-3.2c-1-2-1.9-3.9-3-5.6c-2.2-3.6-4.4-7.1-7.3-10.1
		C603.3,232.3,602.6,230.9,601.2,230.2z M725.8,269.2c-0.7-0.2-0.7-0.8-0.9-1.3c-0.3-1-0.2-2.1-1.2-2.9c-2.2,0.4-4.9-0.6-6.7,1.7
		c-1.3-0.9-1.3-1-2.3-0.9c-2.4,0.1-4.9,0.3-7.3,0.5c0.1-0.2,0.1-0.4,0.1-0.4c2.5-1.7,5.6-1.3,8.4-2.6c0-0.6-0.1-1.3-0.1-2
		c0-0.5-0.1-1,0.7-0.9c0.3,0.9,0.7,1.9,1,2.9c1.2-0.1,2.2-0.2,3.2-0.3c1-0.2,2.1,0.2,2.8-0.6c0.3-1.6-1.2-2.8-0.4-4.8
		c0.9,1.9,1.5,3.3,2.3,4.8c1.2,0,2.4,0.1,3.5,0c1.2-0.1,2.4,0.7,3.7,0.2c-0.7-7-2.5-13.6-5.3-20.1c-1.1-0.3-1.8-1.5-3.2-1.6
		c-3.9-0.4-7.8-1.1-11.8-1.5c-8.7-0.9-17.2,0.4-25.4,3.2c-1.5,0.5-2.7,1.3-3.7,2.5c-1.5,1.9-3.1,3.8-4.5,5.8c-1.1,1.6-2,3.4-2.9,5.2
		c-0.6,1.1-0.6,2.2,0.4,3.2c0.3,0.3,0.6,0.7,0.9,1.1c4.8,6,9.1,12.4,12.2,19.5c1.9,4.3,3.2,8.7,3.3,13.5c0,1.1,0.2,2.3,0.4,3.4
		c1,0.4,1.8-0.7,2.8,0c-0.3,1.6-2,1.9-2.7,3.2c0.8,1.2,1.8,2.4,2.3,3.8c0.5,1.3,1.2,2.2,2.2,3c2.6,2.2,5.1,4.4,7.7,6.6
		c2.9,2.5,5.7,5.2,8,8.3c0.8,1.1,1.7,2.2,2.6,3.3c2.2,2.6,3.8,5.5,4.8,9.1c-0.5-0.4-0.8-0.5-1-0.7c-2-2.8-3.9-5.5-5.8-8.3
		c-0.4-0.6-0.7-1.2-1.2-1.7c-5.1-4.9-10.3-9.8-15.5-14.6c-2.6-2.5-5.8-4.2-8.7-6.2c-5.2,2.4-10.5,3.8-15.9,4.8
		c-0.4,0.1-0.7,0.4-1.3,0.6c2,1.7,3.8,3.1,5.6,4.7c5.6,5.1,9.9,11.1,13.4,17.8c2.4,4.6,5.4,8.7,8.7,12.7c4.1,5,8.7,9.4,13.9,13.2
		c2.3,1.6,4.4,3.4,7,4.6c1.2,0.6,2.1,1.2,2.6,2.6c0.4,1.2,1.2,1.2,3,0.5c0.9-0.4,1.8-0.3,2.7,0.2c0.2,0.1,0.3,0.5,0.5,0.9
		c-0.8,0.2-1.5,0.3-2.3,0.5c1.2,0.9,1.8,2.2,3.2,2.7c2.5,1,4.8,0.5,7-0.9c2.4-1.6,4.5-3.6,6.5-5.8c3-3.3,3.1-3.3,3.7-7.6
		c0.4-2.8,1.2-5.5,1.1-8.3c-0.1-3.3-0.1-6.5-0.2-9.8c0-1.2,0-2.3-0.1-3.5c-0.3-3.2-0.7-6.5-1.1-9.7c-0.1-0.9-0.2-1.9-0.4-2.8
		c-1.6-6.1-2.9-12.2-5.3-18.1c-1.3-3.1-2.4-6.3-3.6-9.5c-0.2-0.6-0.6-1.2-0.9-1.8c-1.7-0.2-3.2-0.2-4.7-0.5
		c-4.5-0.7-9.1-0.5-13.5,0.3c-1.6,0.3-3.2,1.1-4.7,1c-1.9-0.2-3.4,0.5-5,1.1c-2.8,0.9-5.5,1.9-8.3,2.8c-0.9,0.3-1.8,0.6-2.7-0.1
		c-0.2-0.9,0.4-1.3,1.1-1.5c4.1-1.3,8.2-2.7,12.3-4c0.9-0.3,1.8-0.4,2.7-0.5c1.4-0.2,2.8-0.2,4.1-0.5c4.5-0.8,9-1.5,13.5-0.9
		c0.3,0,0.7-0.1,0.8-0.2c1.7-2.8,2-5.8,1.9-8.9c-0.1-3.1-0.2-6.3-0.4-9.4c-0.1-1.7-0.4-3.4-0.6-5.1c-1.8,0.1-3.4,0.2-5,0.4
		c-0.6,0.1-1.3,0.4-1.9,0.5C725.7,266.5,725.7,267.9,725.8,269.2L725.8,269.2z M809.9,425.6c-1-1.7-1.6-3.2-1.2-5.1
		c0.2-0.9-0.5-2.1-0.3-3.1c0.4-1.8,0.5-3.7,0.4-5.5c0-1.1,0.1-2.3,0.3-3.5c0.6-3,1.3-5.9,1.9-8.9c0.7-3.5,1.2-7.1,2.4-10.5
		c0.7-1.9,1.3-3.7,1.8-5.6c0.6-2.1,0.9-4.3,1.4-6.5c0.6-2.4,1.2-4.7,1.8-7.1c0.9-3.4,1-6.9,0.5-10.4c-0.3-1.6-0.1-3.2,0.4-4.8
		c1-3.1,1.5-6.3,1.6-9.6c0.2-3.5,0.5-7,1.1-10.4c0.9-4.8,2.3-9.5,4.3-14c0.9-2,1.5-4.2,2.3-6.2c0.5-1.3,0.4-3,2.1-3.8
		c0.3-0.1,0.4-0.8,0.5-1.2c0.8-3,1.6-6.1,2.4-9.1c0.6-2.1,0.6-4.1,0.3-6.2c-0.2-0.9-0.4-1.8-0.4-2.7c0.3-4.4-1.3-8.2-3.7-11.8
		c-0.8-1.3-2-2.4-2.6-3.7c-0.7-1.6-2-2.6-3.4-3.4c-3.4-1.9-6.9-3.8-10.4-5.8c-0.4,0.4-0.7,0.7-1,0.9c-1.2-0.2-2.3-0.7-3.4-0.6
		c-6.6,0.3-14.4,3.9-15,14.4c-0.4,7.6,1.6,14.5,5.5,21c1,1.6,2.1,3.1,3.7,4.2c0.5,0.4,1,1,1.8,0.7c0.9-2.5,0.8-2.5,0.5-5.1
		c-0.2-1.1-0.1-2.3-0.1-3.5c0-0.4,0.4-0.7,0.7-1.2c0.9,1.1,0.7,2.1,0.7,3.1c0,2.8-0.1,5.6-0.2,8.4c0,0.6,0,1.2-0.1,1.7
		c-1.2,5.3-2.4,10.7-3.6,16c-0.4,1.7-0.7,3.4-0.8,5.2c0,5.7,0.1,11.4,0.2,17.1c0,2,0.2,3.9-0.4,5.9c-0.2,0.7-0.3,1.5-0.1,2.1
		c0.7,1.8,0.3,3.7,0.1,5.6c1.6,2.2,1.7,4.7,1.2,7.3c-0.9,4.4-1,8.8-1.3,13.2c-0.2,4.7-0.2,9.3-0.3,14c0,0.7,0.1,1.5-0.1,2.1
		c-0.6,1.4-0.5,2.7-0.5,4.1c0.2,7-0.8,13.9-1.1,20.9c-0.1,1.2,0,2.2,0.6,3.3c0.5,0.9,0.6,2,1,2.9c0.5,0.9,1.2,1.7,1.8,2.5
		c0.2,0.3,0.3,0.5,0.5,0.8c3.3,1,6.5,1,9.8,0.7c3.9-0.3,7.7-0.2,11.3,1.3c1.8,0.8,3.4,0.7,5.6,0.3c-1.8-1-3.5-1.9-5.2-2.9
		c-1.7-0.9-3.9-0.8-5.5-2.9c1.2,0.2,1.9,0.2,2.7,0.4c3.2,0.6,6,2.4,9.3,2.8c3.7,0.4,7.4,0.9,11.1,1.3c0.5,0.1,1.2-0.2,1-1.2
		c-1.9-0.4-3.8-0.7-5.7-1.1c-2.4-0.6-4.8-0.9-7.3-0.7c-1.5,0.1-3-0.1-4.4-0.8c-0.3-0.1-0.4-0.5-1.2-1.3c3.3,0.5,5.9,0.8,8.3,0.4
		c-1.4-0.4-2.8-0.7-4.2-1.1c-3.7-1.2-7.3-2.3-11.2-2.1C815.6,426.7,812.7,426.6,809.9,425.6z M786.1,254.2c-0.1-0.1-0.2-0.3-0.2-0.3
		c-4.3-2-8.5-4.3-13.3-5.2c-6.6-1.3-13.2-2.7-20-3.3c-3-0.3-6-0.7-9-1.1c-4.2-0.5-8.3-1.1-12.5-1.6c-0.5-0.1-1,0.1-1.7,0.2
		c0.6,1.3,1,2.4,1.5,3.4c2.1,4.5,3.4,9.1,4.2,14c1.1,6.6,0.3,13.3,0.9,19.9c0,0.2,0,0.5-0.1,0.7c-0.2,1.1-0.3,2.3-0.6,3.4
		c-0.3,1.1-0.9,2-1.5,3.3c1.2,0,2.1-0.1,3,0c2.1,0.1,4.2,0.1,6.2,0.8c2.8,1.1,5.7,2.2,8.5,3.3c2,0.8,4.1,1.8,6.1,2.7
		c2.6,1.1,5.1,2.2,7.7,3.3c0.5,0.2,1,0.4,1.7,0.7c0.2-1,0.4-1.8,0.5-2.6c0.3-2.2,0.9-4.4,2-6.3c1.8-3.2,2.8-6.6,3.9-10.1
		c1.2-4.1,2.6-8.2,4.1-12.2C779.5,262.3,782,257.7,786.1,254.2z M769.4,299.8c2,1.6,3.8,3.1,5.8,4.7c0.4,1.1,0.8,2.6,1.3,4
		c1.1,3.2,3,5.8,5.9,7.5c0.9,0.5,1.9,1,2.6,1.8c1.2,1.3,2.7,1.8,4.3,2.2c1.6,0.4,3.2,0.7,4.8,1.1c3.2,0.8,6.1-0.2,9.3-1
		c0.2-3.5,1.9-6.6,1.4-9.9c-2.5-1.2-3-1.5-4-2.9c-2.7-4-4.9-8.2-6.3-12.8c-0.6-1.9-1-3.8-1.5-5.7c-0.8-3.2-1-6.5-0.7-9.7
		c0.6-7.2,6.7-13.2,13.9-14c0.9-0.1,1.9-0.1,3.6-0.3c-7.6-4-14.6-7.3-21.9-10.1c-0.7,1.1-1.3,2.1-1.9,3.1c-2.2,3.3-4,6.8-5.5,10.5
		c-1,2.5-1.9,5-2.8,7.5c-1.7,4.8-3.7,9.5-6.1,14.1C770,292.9,769.4,296.1,769.4,299.8z M500.3,320.3c4.5,5.7,8.8,11.3,13.1,16.8
		c1.1,0.2,2.2,0,3,0.9c0.7,0.7,1.2,1.7,2.5,2.1c0.1-0.5,0.4-1,0.3-1.3c-0.2-0.5-0.7-0.9-1-1.4c-0.5-0.7-0.9-1.3-1.3-2
		c-0.3-0.6-0.3-1.2,0.3-1.5c0.3-0.2,0.9,0,1.2,0.2c0.4,0.2,0.7,0.6,1,1c0.7,0.7,1.4,1.5,2.2,2.4c2.2-1.7,2.4-4.3,3.6-6.5
		c-1.5-0.8-2.7-1.6-4.1-2.2c-0.9-0.4-1.6-1-2.1-1.8c-2.6-4-2.5-8,0.8-11.4c1.7-1.8,2.5-3.8,3-6.3c-3.4-1-6.7-2.1-10-3
		c-0.5-0.2-1.2-0.2-1.7-0.1c-1.8,0.3-3.4-0.3-4.8-1.5c-0.6-0.5-1.3-1-2.1-1.3c-0.6-0.3-1.3-0.3-1.8-0.4c-1.4,1.3-1.7,2.7-1.5,4.3
		C501.3,311.5,501.3,315.8,500.3,320.3z M488.9,269.3c0-0.7-0.1-1.1-0.1-1.5c-0.4-5.5-0.7-10.9-1.1-16.4c-0.2-2.2-0.4-4.4-0.8-6.6
		c-1.5-8.1-3.2-16.2-4.8-24.3c-0.2-0.9-0.5-1.7-0.7-2.5c-2.1,0.5-3.9,1-5.8,1.4c0.2,2,0.4,3.8,0.6,5.7c0.9,6.9,1.8,13.8,2.7,20.7
		c0.3,2.2,0.3,4.4,0.7,6.6c0.9,5.3,2,10.5,3,15.7c0.1,0.4,0.3,0.8,0.4,1.1C485.1,269.3,486.9,269.3,488.9,269.3z M497.3,332.9
		c-0.7,1.9-1.2,3.5-1.9,5.1c-0.8,1.9-0.9,3.8-0.6,5.8c0.7,5.3,2.3,10.1,5.3,14.6c1.2,1.9,2.7,3.5,4.9,4.3c1.1-0.6,2.6-0.5,3.8-1.5
		c0.4-3.4-0.4-7,0.7-10.3c-1.4-2.1-2.9-4-4.2-6.1c-1.3-1.9-2.4-4-3.7-5.9C500.2,337.1,499.1,334.9,497.3,332.9z M490.7,316.3
		c0.1,0.7,0.3,1.4,0.2,2c-0.3,2.2,0.9,4,2.3,5.2c1.6,1.3,2.6,2.9,3.6,4.6c2.3,3.8,4.7,7.5,7.4,11c2.9,3.6,5.7,7.3,8.6,11
		c0.3,0.4,0.8,0.7,1.1,1c2.6-1.8,1-4.1,1.4-5.9c-1.7-2.2-3.4-4.1-4.9-6.2c-1.3-1.8-2.4-3.7-3.6-5.5c-2.8-4.4-5.6-8.9-8.9-13
		c-0.8-1-1.3-2.2-1.9-3.3c-0.7-1.2-1.1-2.6-2.2-3.7C492.8,314.5,491.8,315.4,490.7,316.3z M471.9,187.3c0.7,7,1.2,13.6,2.3,20.3
		c1.8-0.3,3.4-0.6,5.3-0.9c-0.1-3.4-0.9-6.6-1.4-9.9c-0.6-3.4-0.6-6.9-1.9-10.3c-0.8,0.1-1.5,0.1-2.2,0.2
		C473.4,186.9,472.9,187,471.9,187.3z M623.7,316.9c3,0.3,5.5,1.5,8.4,1.4c1.4-1.4,3.1-2.5,4-4c0.9-1.6,2.7-2.4,3.8-4.2
		c-2,0.2-3.6,0.3-5.2,0.4c-1.5,0.1-3,0-4.5,0.1c-1.6,0.1-3.2-0.5-4.7,0.1C624.8,312.7,624.3,314.5,623.7,316.9z M801.2,365.7
		c-0.1,0-0.3-0.1-0.4-0.1c-0.2,0.6-0.6,1.2-0.7,1.8c-0.7,6.5-1.4,13-2.1,19.4c-0.2,2.1-0.1,4.2-0.4,6.3c-0.5,3.4-0.3,6.7,0,10.1
		c0.2,2.2,0.3,4.4,0.4,6.6c0,0.2,0.2,0.3,0.4,0.5c0.2-0.3,0.6-0.5,0.7-0.8c0.1-0.8,0.1-1.6,0.2-2.4c0.1-3.3,0.2-6.5,0.3-9.8
		c0.1-2.4,0.3-4.9,0.3-7.3c-0.1-4.8,0.1-9.5,0.6-14.3C800.6,372.4,800.9,369,801.2,365.7z M810.5,413.1c1.7,0.5,3,0.7,4.3,1.2
		c2.5,0.9,5.1,1,7.8,1.1c1.4,0.1,2.8,0,4.2,0.1c1.7,0.1,3.5,0.3,5.2,0.4c0.8,0,1.6,0.1,2-1.2c-0.8-0.2-1.6-0.4-2.3-0.5
		c-2.3-0.3-4.6-0.5-6.9-0.9c-1-0.1-2-0.6-3.1-0.7c-1.4-0.1-1.6-1.7-2.8-2.1c-2.5,0.1-5.2-0.2-8,0.1
		C810.7,411.5,810.6,412.2,810.5,413.1z M475.6,217.5c1.9-0.5,3.7-1,5.7-1.5c-0.3-1.8-0.5-3.5-1-5.2c-0.2-0.6-0.7-1.2-1.3-1.5
		c-1-0.5-2.1-0.5-3,0.2c-1,0.8-1.6,1.9-1.1,3.3c1.3,0.2,2.6,0.5,3.8,0.7c0,2.7-2.3,1.5-3.5,2.4C475.3,216.4,475.4,216.9,475.6,217.5
		z M836,291.8c2.2-3.2,1.6-6.7,0.7-10.2c-0.8-0.5-1.5-1-2.3-1.4c-0.4-0.2-0.8-0.5-1.2,0.1C835,283.8,836.4,287.6,836,291.8z
		 M810.4,417c5.2,1.5,5.2,1.5,6.8,0.4c-1.5-2.3-3.8-2.6-6.5-2.6C810.6,415.6,810.5,416.2,810.4,417z M566.4,191.4
		c0.7-0.7,1.3-1.2,1.9-1.8c0.5-0.5,1.5-0.5,1.8-1.5c-1-0.7-2-1.4-2.9-2.1c-1.1,0.3-1.9,0.7-2.1,1.7
		C564.7,189.1,565.3,190.2,566.4,191.4z M888,317.6c2.2-4.9,2.7-7.1,2.5-9.6c-0.8,0.2-1.6,0.5-1.8,1.4
		C888.4,312.1,888.2,314.8,888,317.6z M884.4,322.3c-0.1-1.7-0.2-2.9-0.2-4c0-1.2,0.3-2.3,0.3-3.5c0-1.1,0.8-2.2,0.2-3.4
		C883.1,313.9,883,317.5,884.4,322.3z M483.9,273.1c1.9-0.1,3.5-0.2,5.4-0.2c-0.1-0.5-0.2-0.9-0.3-1.4c-1.9,0.1-3.7-0.2-5.5,0.2
		c0,0.3-0.1,0.5,0,0.7C483.5,272.5,483.7,272.7,483.9,273.1z M642.1,310c1,1.2,1.9,1,4.1-0.8C644.7,309.3,643.3,309.3,642.1,310z
		 M865.1,282.5c-1.1,0.4-1.9,0.8-1.9,1.9c2.2,1,2.4,1,2.7,0.7C865.7,284.3,865.5,283.6,865.1,282.5z M882.8,264.5
		c-0.3-0.2-0.5-0.4-0.8-0.6c0,0-0.2,0.2-0.4,0.3c0.3,0.2,0.5,0.4,0.8,0.6C882.4,264.8,882.6,264.7,882.8,264.5z M498.1,311.2l-0.1,0
		l0,0.3L498.1,311.2z M864.4,281.6l-0.3-0.2l-0.1,0.2L864.4,281.6z M624.7,277.5l0.1-0.2l-0.2,0L624.7,277.5z"/>
	<path d="M94,170.6c-0.1,0.5-0.1,1.2-0.4,1.6c-1,0.9-2.1,1.7-3.5,1.9c-0.2,0-0.4-0.2-0.8-0.4c0.9-2.1,2.7-2.9,4.8-3L94,170.6z"/>
	<path d="M552.3,174.2c0-0.8-0.2-1.6,0.6-2.2c1.1-0.9,2.1-1.8,3.7-1.4c0.2,0.1,0.5,0.1,0.7,0.1l-0.1-0.1c-0.3,0.9-0.9,1.6-1.8,2
		c-1,0.5-2.1,1-3.1,1.5L552.3,174.2z"/>
	<path d="M546.1,155.9c-1.5,1.9-1.5,1.9-3.1,2C544.2,155.6,544.5,155.5,546.1,155.9z"/>
	<path d="M83,156.3c-0.2,1.4-1.2,1.9-2.4,2.1C80.2,156.9,81.4,155.9,83,156.3z"/>
	<path d="M11.1,178.9c0.2,0.4,0.4,0.6,0.4,0.8c0,0.1-0.3,0.4-0.4,0.4c-0.3-0.1-0.5-0.4-0.7-0.5C10.6,179.4,10.8,179.3,11.1,178.9z"
		/>
	<path d="M473.7,179.8c-0.1-0.2-0.2-0.5-0.4-0.7c0.2-0.1,0.4-0.3,0.5-0.2c0.2,0.2,0.4,0.4,0.6,0.7
		C474.2,179.6,474.1,179.6,473.7,179.8z"/>
	<path d="M424.3,330.7c-0.5,0.1-0.7-0.1-0.7-0.6l-0.1,0.1C423.8,330.4,424,330.6,424.3,330.7L424.3,330.7z"/>
	<path d="M886.6,330.2c0.1,0.1,0.3,0.2,0.4,0.3c-0.1,0-0.2,0-0.2,0C886.7,330.3,886.7,330.2,886.6,330.2L886.6,330.2z"/>
	<path d="M424.2,330.8C424.6,331.1,424.2,330.7,424.2,330.8L424.2,330.8z"/>
	<path d="M251.9,345.5c1.9,0.7,2.9,2.4,4.4,3.5c0.2,0.1,0.1,0.6,0,1c0,0.2-0.3,0.4-0.5,0.4c-0.4,0-1,0.1-1.3-0.1
		c-1.5-0.8-2.5-2-2.9-3.7C251.5,346.2,251.7,345.9,251.9,345.5z"/>
	<path d="M233.3,294.2c-1.6-2.6-2.5-4.7-2-7.8C232.8,289,233.3,291.1,233.3,294.2z"/>
	<path d="M260.3,340.2c-1.6-0.7-1.6-2.3-2.9-3.6c1-0.1,1.6-0.3,1.8-0.1C260.4,337.4,260.9,338.6,260.3,340.2z"/>
	<path d="M241.2,341.1c-1.9-0.6-2.5-1.7-3-2.7c0.3-0.7,0.7-0.6,1.1-0.3C240.1,338.7,240.7,339.5,241.2,341.1z"/>
	<path d="M235.3,297.1c-0.2,0.3-0.3,0.4-0.4,0.6c-0.2-0.2-0.5-0.3-0.7-0.6c-0.1-0.1,0.3-0.4,0.4-0.6
		C234.8,296.8,235,296.9,235.3,297.1z"/>
	<path d="M262.1,344.6c-0.1,0.2-0.3,0.3-0.4,0.5c-0.1-0.2-0.3-0.4-0.3-0.6c0-0.2,0.2-0.3,0.4-0.5C261.8,344.2,262,344.4,262.1,344.6
		z"/>
	<path d="M247.7,339.3c0.2,0.3,0.4,0.6,0.5,0.9c0,0.1-0.3,0.2-0.4,0.3c-0.2-0.2-0.4-0.4-0.5-0.7
		C247.3,339.8,247.5,339.6,247.7,339.3z"/>
	<path d="M234.5,333.8c-0.2,0.2-0.4,0.3-0.5,0.4c-0.2-0.2-0.3-0.4-0.5-0.7c0,0,0.2-0.2,0.2-0.2C234,333.4,234.2,333.6,234.5,333.8z"
		/>
	<path d="M262.4,360.9c0-0.2-0.1-0.3-0.1-0.5c0.2,0,0.4,0,0.6,0c0.1,0,0.1,0.1,0.1,0.2C262.8,360.8,262.6,360.9,262.4,360.9z"/>
	<path d="M268,364.9c-0.3,0-0.7,0-1,0c0-0.1,0-0.2,0-0.4c0.3,0,0.7,0,1,0.1C268,364.7,268,364.8,268,364.9z"/>
	<path d="M235.8,301c0.1,0,0.2-0.1,0.3-0.1c0,0.1,0.1,0.3,0.1,0.4c-0.1,0-0.2,0-0.3-0.1C235.8,301.2,235.8,301.1,235.8,301z"/>
	<path d="M246.2,336.7c0.1,0.2,0.1,0.3,0.2,0.5c0,0.1-0.1,0.1-0.2,0.2c-0.1-0.2-0.1-0.3-0.2-0.5C246,336.9,246.1,336.8,246.2,336.7z
		"/>
	<path d="M244.9,334.4c0.1,0.1,0.1,0.2,0.2,0.2c-0.1,0-0.3,0-0.4,0C244.7,334.6,244.8,334.5,244.9,334.4z"/>
	<polygon points="236.1,335.7 235.9,335.6 236.1,335.8 	"/>
	<path d="M236.1,335.8c0.2,0.1,0.4,0.3,0.6,0.4C236,336.6,236.1,336.1,236.1,335.8L236.1,335.8z"/>
	<path d="M249.2,342.4c-0.1,0.1-0.2,0.2-0.2,0.2c-0.1,0-0.1-0.1-0.2-0.2c0.1-0.1,0.2-0.2,0.2-0.2
		C249.1,342.2,249.1,342.3,249.2,342.4z"/>
	<path d="M350.6,361.7c0.4,1.9,0.2,3.4,1.3,4.6c0.4,0.4,0.2,1.5,0.4,3.1c-0.7-1-1.1-1.4-1.3-1.8c-0.6-1.2-1.1-2.5-1.5-3.7
		C349.3,363.4,349.5,363.2,350.6,361.7z"/>
	<path d="M344.3,327.7c-2-2-2-2.6-0.6-3.7c0.1,0.5,0.2,0.9,0.3,1.3C344.2,326.2,344.2,326.9,344.3,327.7z"/>
	<path d="M355.1,428.4c0.9-0.3,1.3-0.4,1.7-0.4c0.4,0,0.9,0.2,1.3,0.2c0.1,0.7-0.1,1.1-0.6,1C356.9,429.2,356.3,428.8,355.1,428.4z"
		/>
	<path d="M342.3,363.9c-0.2,0.1-0.3,0.3-0.5,0.3c-0.8,0-1.4-0.5-1.3-1.1c0-0.1,0.1-0.2,0.2-0.3c0.5-0.3,1.1-0.1,1.6,0.7
		C342.3,363.7,342.3,363.8,342.3,363.9z"/>
	<path d="M366.5,284.7c0.3,0.4,0.6,0.6,0.7,0.9c0,0.2-0.2,0.5-0.3,0.8c-0.2-0.2-0.5-0.4-0.6-0.6
		C366.3,285.5,366.4,285.2,366.5,284.7z"/>
	<path d="M368.9,291.5c-0.4-0.3-0.7-0.4-0.8-0.7c-0.1-0.2,0.1-0.6,0.1-0.8c0.3,0.1,0.6,0.2,0.7,0.4C369,290.6,368.9,291,368.9,291.5
		z"/>
	<path d="M345.7,329.4c-0.2,0-0.4,0.2-0.5,0.1c-0.2-0.1-0.3-0.3-0.4-0.5c0.2-0.1,0.5-0.2,0.6-0.1C345.6,329,345.6,329.2,345.7,329.4
		z"/>
	<polygon points="351.3,428.3 351.6,428.3 351.6,428.5 	"/>
	<polygon points="340.3,292.5 340.5,292.7 340.2,292.7 	"/>
	<polygon points="342.6,294.9 342.3,294.9 342.3,294.8 	"/>
	<polygon points="353.2,428.4 353.4,428.4 353.3,428.5 	"/>
	<path d="M122.2,301.5c0.3-0.3,0.6-0.7,1-0.9c1.5-0.8,3-1.7,4.8-2.3C126.6,300.3,125,301,122.2,301.5L122.2,301.5z"/>
	<path d="M116.1,303.2c0.6-1,1.5-1.1,2.6-1.4C118.1,303,118.1,303,116.1,303.2z"/>
	<path d="M64.7,314.6c-1.2,1-1.8,1.6-2.7,0.8C62.5,314.3,63.3,314.7,64.7,314.6z"/>
	<path d="M66.5,314.4c0-0.1,0.1-0.2,0.1-0.3c0.5-0.6,1.3-0.7,1.7-0.2c0.1,0.1,0.1,0.2,0.1,0.3c-0.1,0.6-0.9,0.8-1.6,0.5
		C66.6,314.5,66.6,314.4,66.5,314.4z"/>
	<path d="M70,313c0-0.1,0.1-0.2,0.2-0.3c0.3-0.4,0.6-0.7,1.1-0.3c0.1,0.1,0.1,0.2,0.1,0.3c-0.2,0.5-0.6,0.6-1.1,0.5
		C70.2,313.2,70.1,313.1,70,313z"/>
	<path d="M148.8,302.7c-0.6,0.1-1.2,0.3-2.1,0.4C147.4,302.2,147.4,302.2,148.8,302.7z"/>
	<path d="M147.5,308.2c-0.1,0-0.2,0.1-0.3,0.1c-0.1,0-0.2-0.1-0.2-0.1c0.1,0,0.2-0.1,0.3-0.1C147.3,308,147.4,308.1,147.5,308.2z"/>
	<path d="M108.1,305.4c-0.1,0-0.2,0.1-0.3,0.1c0-0.1-0.1-0.2-0.1-0.4c0.1,0,0.2,0,0.3,0.1C108.1,305.2,108.1,305.3,108.1,305.4z"/>
	<polygon points="122.1,301.4 122,301.6 122.2,301.5 	"/>
	<path d="M259.9,259.5c0.9-0.2,1.8-0.2,2.7-0.5c1.3-0.4,2.6-1.1,3.9-1.5c0.6-0.2,1.3,0,2.4,0c-0.5,0.6-0.7,1.1-1,1.2
		c-1.2,0.5-2.4,0.9-3.5,1.5c-0.8,0.4-1.6,0.9-2.4,1.4l0,0c-0.8-0.1-1.6-0.1-2.3-0.2C259.8,260.6,259.8,260.1,259.9,259.5
		L259.9,259.5z"/>
	<path d="M255.3,280.9c-0.2-0.5-0.6-1-0.6-1.5c0-0.9,0.3-1.8,1.5-2.4c-0.1,0.8-0.2,1.4-0.2,2c0,0.6,0,1.1,0,1.7
		C255.7,280.8,255.5,280.9,255.3,280.9z"/>
	<path d="M224.9,246.3c0.8-0.8,1.6-1.8,3.2-1.3c-0.6,0.4-1.1,0.9-1.7,1.3c-0.3,0.2-0.7,0.4-1.1,0.6
		C225.2,246.7,225,246.5,224.9,246.3z"/>
	<path d="M223,248.4c-0.2,0.1-0.5,0.2-0.7,0.3c0-0.2-0.2-0.4-0.1-0.6c0.1-0.1,0.3-0.3,0.4-0.3C222.8,247.9,222.9,248.1,223,248.4z"
		/>
	<polygon points="259.9,259.5 259.8,259.4 259.9,259.5 	"/>
	<path d="M416.5,288.2c1-2.7,0.9-5.5,1.2-8.6c0.2,2.7,0.3,5,0.4,7.3c0.1,1.5,0.5,2.7,2,3.4l-0.1-0.1c0.1,0.7,0.2,1.5,0.3,2.2
		c-1-0.5-2-1-3-1.5c-0.7-0.7-1.4-1.3-2.1-2c-0.1-0.1-0.2-0.3-0.2-0.3c0.1,0,0.2,0.1,0.3,0.2c-0.3,1.8-0.1,2.1,1.5,2.2
		c0.2,0,0.4-0.1,0.7-0.2c-0.2,0.4-0.3,0.8-0.5,1.3c-2.1-0.3-3.2-1.9-4.5-3.3l0.1,0.1c-0.3-0.3-0.5-0.5-0.8-0.8l0.1,0.1
		c-0.9-3.2-0.7-6.4-0.8-9.7c0-0.3,0-0.7,0.1-1c0.2-1.1,0.5-2.2,1.2-3.4c0.1,0.5,0.2,0.9,0.2,1.4c0,0.6-0.1,1.2-0.2,1.7
		c-0.4,2.2,0,4.4,0.5,6.6C413.1,286,414.2,287.7,416.5,288.2c0.1,0,0.2,0,0.3,0.1C416.7,288.3,416.6,288.2,416.5,288.2z"/>
	<path d="M409.8,303.7c2.9,1.5,4.3,3.9,5.7,6.8c-1.3-0.6-2.3-1.2-3.3-1.4c-1-0.3-2-0.2-3.1-0.3C408.8,307,410.1,305.6,409.8,303.7z
		 M410.9,305.8c-0.1,0-0.2,0.1-0.3,0.1c0.1,0.1,0.1,0.2,0.2,0.2c0.1-0.1,0.3-0.2,0.4-0.2C411.1,305.9,411,305.9,410.9,305.8z"/>
	<path d="M387.4,301.6c-0.5-3.5-0.1-6,1.7-8.3c1.4-1.8,2.4-2.3,4.9-2.5c0.1,0.7-0.5,0.6-0.8,0.8c-2.7,1.3-4.2,3.5-4.6,6.5
		c-0.1,0.7-0.2,1.4-0.4,2C388.1,300.6,387.8,300.8,387.4,301.6z"/>
	<path d="M427.8,296.7c-0.2-0.2-0.5-0.5-0.8-0.7c0.3-1.2,0.7-2.4,1.1-3.8c0.8,0.9-0.1,2.5,1.5,2.9c0.2,0,0.3,0.8,0.3,1.3
		c0,1.7,0,3.4,0,5.2l0.1-0.1c-0.3,0-0.7,0.1-1,0.1c-1.1-0.8-0.9-1.9-0.6-3.1c-0.5,0-0.7,0-0.9,0c0-0.2-0.2-0.5-0.1-0.6
		C427.4,297.4,427.6,297,427.8,296.7l0.1-0.2L427.8,296.7z"/>
	<path d="M395.6,278.4c1-1.2,2.1-2.4,3.1-3.6c1.4-1.8,2.6-3.7,3.9-5.6c0.5,0.2,0.8,0.5,0.5,1c-0.6,1.1-1.3,2.2-2,3.2l0.1-0.1
		c-0.7,0.9-1.3,1.8-2,2.7c-1.2,1.5-2.5,2.9-3.8,4.5c0.5,0.2,0.7,0.4,1,0.5c-0.4,0.2-0.8,0.6-1.2,0.5c-0.3,0-0.8-0.5-0.8-0.8
		c0-0.6,0.3-1.3,0.5-1.9l-0.1,0.1C395.1,278.9,395.4,278.6,395.6,278.4L395.6,278.4z"/>
	<path d="M396.3,274.1c-0.3,0.6-0.5,1.3-0.9,1.8c-0.7,0.9-0.5,1.7,0.1,2.5l0.1-0.1c-0.3,0.3-0.5,0.5-0.8,0.8l0.1-0.1
		c-1.1,1.2-2.2,2.3-3.3,3.5c-0.4,0.4-0.8,0.8-1.7,0.6c0.8-1,1.3-1.8,2-2.5c0.6-0.7,1.4-1.2,1.9-1.7
		C393.9,276.7,394.3,274.9,396.3,274.1z"/>
	<path d="M425.1,295.6c-0.4-3.6,0.7-6.9,0.8-10.9C426.9,288.7,426.5,292.8,425.1,295.6z"/>
	<path d="M421.4,271.3c0.4,0.2,0.7,0.4,1.1,0.7c0.4,0.2,0.7,0.5,1.1,0.8c0.3,0.8,0.5,1.5,0.8,2.3c0.6,1.4,1.3,2.7,1.9,4
		c-0.5,0.8-0.7,0.1-0.8,0c-1.4-2.3-2.7-4.6-4-6.9C421.3,271.8,421.4,271.6,421.4,271.3z"/>
	<path d="M422.2,290.3c-0.5-1.5-0.3-3,0.1-4.5c0.5-0.2,1.1-0.4,1.8-0.6c-0.1,1-0.3,2-0.4,2.9c-0.1,0.9-0.1,1.8-0.2,3
		C422.9,290.8,422.5,290.5,422.2,290.3L422.2,290.3z"/>
	<path d="M418.6,310.6c-0.1-0.1-0.3-0.1-0.3-0.2c-0.8-2.2-1.5-4.3-2.2-6.5c-0.1-0.2,0.1-0.4,0.2-0.8c1.9,2.3,3.2,4.6,2.2,7.6
		L418.6,310.6z"/>
	<path d="M412.4,288.8c-0.4,0.8-1,1.1-1.7,0.6c-0.7-0.5-1.3-1.3-2-1.9c-0.5-0.5-0.9-1-1.3-1.5l0.1,0.1c0.1-0.3,0.2-0.6,0.4-1.2
		c0.7,0.8,1.2,1.5,1.8,2.1c0.5,0.6,1,1.3,2,1.2l-0.1-0.1C411.9,288.4,412.2,288.6,412.4,288.8L412.4,288.8z"/>
	<path d="M382.3,285.6c1.3-0.4,2.2-0.7,3-0.9c0.7-0.1,1.5-0.7,2.4-0.3C385.9,285.9,385.4,286.1,382.3,285.6z"/>
	<path d="M415.5,282.1c0.6,1.8,0.5,2.9,0.2,4.6C414.9,285,415.3,283.8,415.5,282.1z"/>
	<path d="M422.1,290.3c0,0.3-0.1,0.6-0.1,1c-0.8-0.4-1.4-0.7-2-1l0.1,0.1c0-0.5,0-0.9,0-1.4L420,289
		C421,289,421.5,289.9,422.1,290.3L422.1,290.3z"/>
	<path d="M421.5,269.9c0,0.5,0,1,0,1.5c-0.8,0.1-1-0.5-1.4-1.2C420.7,270.1,421.1,270,421.5,269.9z"/>
	<path d="M418.7,271.3c-0.7-0.5-0.9-1.2-0.7-2l-0.1,0.1C419,269.7,418.5,270.6,418.7,271.3L418.7,271.3z"/>
	<path d="M418.6,271.4c0.2,0.4,0.4,0.8,0.6,1.1c-0.1,0-0.2,0.1-0.3,0.1C418.9,272.2,418.8,271.7,418.6,271.4L418.6,271.4z"/>
	<path d="M418,269.3c-0.7-0.2-0.8-0.5-0.2-1.3C417.8,268.5,417.9,268.9,418,269.3L418,269.3z"/>
	<path d="M429.1,279.8c0.7,0.3,0.6,0.9,0.6,1.5l0.1-0.1C429.6,280.7,429.4,280.2,429.1,279.8L429.1,279.8z"/>
	<polygon points="412.9,263.3 412.7,263.4 412.7,263.2 	"/>
	<path d="M420.1,288.9c-0.1-0.1-0.2-0.2-0.3-0.3c0.1,0,0.1,0.1,0.2,0.1C420,288.8,420,288.9,420.1,288.9L420.1,288.9z"/>
	<polygon points="429.7,281.2 429.9,281.3 429.8,281.2 	"/>
	<path d="M308.8,281.4c-0.5,0.6-0.9,1-1.3,1.4c-0.8,0.7-1.7,1.2-1.7,2.4c-1.5,1.4-3.1,2.8-4.6,4.2c-0.2,0.2-0.8,0.1-1,0
		c-0.3-0.3-0.6-0.8-0.6-1.2c-0.1-0.9,0.5-1.6,1.2-2c1.2-0.7,2.5-1.3,3.8-1.9c0-1.8,1.8-2.2,3-3.1C307.8,281,308.3,281.3,308.8,281.4
		z"/>
	<path d="M288.7,286.1c-1.8,1-2.5,0-3.3-0.8c-0.5-0.5-1.4-1-0.4-2.1C286.3,283.8,287.2,284.9,288.7,286.1z"/>
	<path d="M283.2,268.6c-0.9,0.9-1.8,0.9-2.7,0.6c-0.2-0.1-0.5-0.6-0.5-0.8c0-0.3,0.3-0.7,0.6-0.8
		C281.6,267.1,282.3,267.6,283.2,268.6z"/>
	<path d="M294.3,281.3c0.5,0.4,0.7,0.5,0.7,0.6c0.4,0.8,0.2,1.5-0.6,2c-0.1,0.1-0.5,0-0.6-0.1c-0.2-0.1-0.4-0.4-0.3-0.6
		C293.7,282.6,294,282,294.3,281.3z"/>
	<path d="M283.4,281.8c0.1,0.3,0.1,0.5,0.2,0.8c-0.2,0-0.4,0.1-0.6,0.1c-0.2-0.1-0.2-0.3-0.3-0.5C282.9,282,283,281.9,283.4,281.8z"
		/>
	<path d="M300.9,276.7c-0.1-0.2-0.3-0.3-0.3-0.5c0-0.1,0.2-0.2,0.3-0.4c0.1,0.1,0.2,0.2,0.2,0.3C301.1,276.3,301,276.5,300.9,276.7z
		"/>
	<polygon points="289.7,269 289.5,269.1 289.5,268.8 	"/>
	<path d="M426.4,265.7c0.5,0.6,0.7,1.3,0.2,2.7C426.5,267.1,426.5,266.4,426.4,265.7L426.4,265.7z"/>
	<polygon points="402.1,273.6 402.1,273.4 402,273.6 	"/>
	<path d="M401.1,273.5c0.3,0,0.6,0.1,0.9,0.1l-0.1-0.1C401.7,273.5,401.5,273.5,401.1,273.5L401.1,273.5z"/>
	<path d="M401.9,276.3c-0.3,0-0.5,0-0.8,0C401.4,276.3,401.7,276.3,401.9,276.3z"/>
	<path d="M401.2,276.2c0,0.3,0,0.5,0,0.8C400.9,276.8,400.7,276.5,401.2,276.2z"/>
	<path d="M703.5,343.3c2.8,1.3,4.1,4,6.5,5.6c-1,1-1.8,1.3-2.7,0.6c-1.2-1-2.3-2.3-3.3-3.5c-0.4-0.4-0.6-1-0.7-1.5
		C703.3,344.2,703.4,343.8,703.5,343.3z"/>
	<path d="M695.4,267.8c-1.4,1.8-3.9,2.6-7.4,2.5C690.2,268.6,692.7,268.4,695.4,267.8z"/>
	<path d="M680.3,258c0.4,0.7,0.7,1.4,1.2,2c0.7,1,1.6,1.9,2.4,2.9c-0.3,0.2-0.6,0.4-0.7,0.3c-1-0.9-2-1.8-3-2.8
		c-0.8-0.8-1.7-1.5-2-2.7c0.3-0.8,1-0.4,1.5-0.4l-0.1-0.1C679.8,257.6,680.1,257.9,680.3,258L680.3,258z"/>
	<path d="M722.9,340.4c-0.9-1.6-1.5-2.5-2-3.5c-0.1-0.2,0.1-0.7,0.3-0.8c0.2-0.1,0.7-0.1,0.9,0.1
		C723.2,337.1,723.7,338.2,722.9,340.4z"/>
	<path d="M731.9,351.6c-1.1-0.5-1.9-1.1-2-2.3c1.4,0.1,1.4,0.1,2.2,1C732.4,350.8,732.6,351.2,731.9,351.6z"/>
	<path d="M679.6,257.4c-0.3-0.4-0.9-0.7-0.7-1.4c1.2,0,1.3,0,2.3,1.6c-0.2,0.6-0.6,0.5-1,0.4l0.1,0.1
		C680.1,257.9,679.8,257.6,679.6,257.4L679.6,257.4z"/>
	<path d="M702.3,341.8c-1-0.4-1.3-1.1-1.2-2.1c0.2-0.1,0.3-0.2,0.3-0.2C702.3,339.6,702.7,340.6,702.3,341.8z"/>
	<path d="M726,346.7c-0.8-1.1-1.3-1.8-1.8-2.5c0.3-0.2,0.5-0.5,0.6-0.4c0.5,0.4,1.1,0.8,1.5,1.3C726.4,345.3,726.2,345.8,726,346.7z
		"/>
	<path d="M695.3,326c0.3,0.3,0.7,0.5,0.8,0.7c0.1,0.3,0,0.6-0.1,0.9c0,0.1-0.5,0.2-0.5,0.2c-0.2-0.2-0.5-0.5-0.5-0.8
		C695,326.7,695.2,326.4,695.3,326z"/>
	<path d="M700.2,337.3c-0.9-0.3-1.3-0.8-0.8-1.8C700.3,335.8,700.8,336.3,700.2,337.3z"/>
	<path d="M730.1,365c-0.1-0.2-0.3-0.4-0.3-0.7c0-0.1,0.4-0.3,0.5-0.3c0.2,0.2,0.4,0.5,0.6,0.7C730.7,364.8,730.5,364.9,730.1,365z"
		/>
	<path d="M698,296.7c-0.2,0.2-0.3,0.4-0.4,0.5c-0.2-0.2-0.6-0.3-0.6-0.5c-0.1-0.2,0.3-0.4,0.4-0.6
		C697.6,296.3,697.8,296.5,698,296.7z"/>
	<path d="M725.3,360.1c0.1,0.1,0.3,0.2,0.4,0.3c-0.1,0.1-0.2,0.3-0.4,0.3c-0.1,0-0.3-0.1-0.3-0.1
		C725.1,360.4,725.2,360.2,725.3,360.1z"/>
	<path d="M698.8,300.3c0.1,0.2,0.2,0.4,0.2,0.6c0,0.1-0.1,0.1-0.2,0.2c-0.1-0.2-0.2-0.4-0.2-0.6
		C698.6,300.5,698.8,300.4,698.8,300.3z"/>
	<path d="M697.4,332.4c0.1,0.2,0.1,0.3,0.2,0.5c0,0-0.1,0.1-0.2,0.2c-0.1-0.2-0.2-0.3-0.2-0.5C697.2,332.5,697.4,332.5,697.4,332.4z
		"/>
	<path d="M725.7,269.3c0.1,0.2,0.2,0.4,0.3,0.6C726,269.6,725.9,269.4,725.7,269.3L725.7,269.3z"/>
	<polygon points="706.5,279.5 706.4,279.4 706.6,279.4 	"/>
	<path d="M672.7,287.2c-2.6,1.2-4.3,1.5-6.8,1.3c0.2-0.3,0.3-0.7,0.6-0.8C668.4,287,670.3,286.8,672.7,287.2z"/>
	<path d="M584.3,301c2-1,3.9-1.9,5.9-2.9c0.1,0,0.2,0.1,0.5,0.3C588.9,300.2,586.8,301,584.3,301z"/>
	<path d="M611.9,301.8c-0.8,1.1-1.5,1.2-2.5,0.8C610.1,301.6,610.9,301.7,611.9,301.8z"/>
	<path d="M524.7,315.1c0.7-1.2,1.5-1.2,2.6-0.8C526.6,315.1,526,315.7,524.7,315.1z"/>
	<path d="M613.9,310.4c-0.3,0.1-0.7,0.2-1,0.2c-0.4-0.1-0.7-0.4-1-0.7c0,0,0.2-0.5,0.3-0.5c0.4,0,0.9,0.1,1.2,0.3
		c0.2,0.1,0.3,0.6,0.4,0.9L613.9,310.4z"/>
	<path d="M578.9,302.9c0.5-0.9,1.3-1.3,2.5-1.3C580.9,303,579.9,302.9,578.9,302.9L578.9,302.9z"/>
	<path d="M606.1,309.2c0.4-0.4,0.8-0.7,1.2-1.1c0.1-0.1,0.4,0,0.6,0c-0.1,0.3-0.1,0.7-0.3,0.7C607.1,309,606.6,309,606.1,309.2
		L606.1,309.2z"/>
	<path d="M659.2,289.2c0.6-0.5,1.2-0.7,2,0.1C660.5,289.8,659.9,289.9,659.2,289.2z"/>
	<path d="M534.4,312.2c-0.2,0.2-0.2,0.4-0.3,0.4c-0.3,0.1-0.6,0.2-1,0.2c0,0-0.2-0.5-0.2-0.5c0.3-0.1,0.6-0.2,0.9-0.3
		C534,312,534.1,312,534.4,312.2z"/>
	<path d="M651.1,290.4c-0.2,0.3-0.4,0.5-0.5,0.5c-0.3-0.1-0.5-0.2-0.7-0.3c0.1-0.1,0.2-0.2,0.2-0.2
		C650.4,290.3,650.7,290.4,651.1,290.4z"/>
	<path d="M530.3,314.3c-0.4-0.2-0.5-0.3-0.7-0.4c0.2-0.2,0.4-0.5,0.6-0.5c0.3,0,0.6,0.2,0.9,0.3
		C530.7,313.9,530.5,314.1,530.3,314.3z"/>
	<path d="M570.5,305.3c-0.1,0-0.2,0-0.3-0.1c0.1-0.2,0.2-0.3,0.3-0.5c0,0,0.2,0,0.2,0C570.7,305,570.6,305.1,570.5,305.3z"/>
	<polygon points="578.9,302.8 578.7,303 578.9,302.9 	"/>
	<polygon points="610,308.2 609.9,308 610.1,308 	"/>
	<path d="M814.8,368.3c-2.4-3-2.7-3.8-2-6.7c0.4,0.4,0.8,0.7,0.8,1c0.2,1.1,0.2,2.2,1,3.2C815.2,366.4,815.4,367.4,814.8,368.3z"/>
	<path d="M807.7,327.9c-1.7,0-2-1.3-2.1-2.5c-0.1-0.6-0.2-1.4,1-1.5c0.3,1.4,0.7,2.7,1,4.1L807.7,327.9z"/>
	<path d="M819,427.6c0.6,0,1.2,0.1,1.8,0.1c0.1,0,0.3,0.4,0.3,0.5c0,0.2-0.3,0.4-0.4,0.4c-0.6-0.1-1.2-0.2-1.7-0.3
		C818.9,428.1,818.9,427.9,819,427.6z"/>
	<path d="M805.2,363.9c-0.3,0.1-0.4,0.1-0.5,0.1c-0.8-0.1-1.4-0.6-1.3-1.2c0-0.1,0.1-0.2,0.2-0.2c0.4-0.3,1.1,0,1.6,0.8
		C805.2,363.4,805.2,363.6,805.2,363.9z"/>
	<path d="M831,289.3c0.3,0.2,0.4,0.2,0.5,0.3c0.2,0.3,0.3,0.6,0.4,0.9c0,0-0.3,0.3-0.5,0.3c-0.6-0.1-0.7-0.5-0.6-1
		C830.8,289.7,830.9,289.6,831,289.3z"/>
	<path d="M829.8,284.4c0,0.5,0,0.9,0,1.4c-0.1,0-0.3,0-0.4,0c0-0.5,0-0.9,0-1.4C829.5,284.4,829.7,284.4,829.8,284.4z"/>
	<path d="M807.6,328c0.3,0.3,0.6,0.5,0.9,0.8c0,0-0.2,0.3-0.3,0.4c-0.1,0-0.3,0-0.3-0.1c-0.1-0.4-0.1-0.8-0.2-1.2L807.6,328z"/>
	<polygon points="816.2,428 816.4,428 816.3,428.2 	"/>
	<polygon points="809.2,331.8 809.4,331.7 809.4,332 	"/>
	<path d="M803.3,292c-0.1,0.1-0.2,0.1-0.2,0.2c0-0.1,0-0.3,0-0.4C803.1,291.9,803.2,292,803.3,292z"/>
	<polygon points="805.2,294.6 805.2,294.8 805.1,294.8 	"/>
	<path d="M771,280.4c0.6,0.8,0.2,1.2-0.1,1.5c-0.9,1-2.3,1.6-2.4,3.2c-1.5,1.3-2.9,2.6-4.4,3.9c-0.5,0.4-1.1,0.2-1.5-0.3
		c-0.4-0.5-0.5-1.1,0-1.6c0.5-0.6,1.1-1.3,1.7-1.7c0.9-0.5,1.9-0.9,2.9-1.3c0.5-0.7,0.9-1.5,1.5-2.1
		C769.3,281.4,770.1,281,771,280.4z"/>
	<path d="M751.4,285.7c-1.6,0.9-2.4,0-3.1-0.6c-0.5-0.5-1.3-1.1-0.6-2.1C749.2,283.4,750.1,284.6,751.4,285.7z"/>
	<path d="M745.9,268.2c-0.5,0.8-1.3,0.9-2.1,0.8c-0.6,0-1.2-0.8-1-1.2c0.2-0.3,0.6-0.7,1-0.8C744.7,267,745.6,267.2,745.9,268.2z"/>
	<path d="M756.8,283.6c-0.6-1.5-0.6-1.5,0.7-2.3C758.1,282.8,758.1,282.8,756.8,283.6z"/>
	<path d="M746.1,281.3c0.2,0.2,0.3,0.5,0.5,0.7c-0.2,0.1-0.4,0.3-0.5,0.3c-0.2-0.2-0.4-0.4-0.6-0.7
		C745.7,281.6,745.8,281.5,746.1,281.3z"/>
	<path d="M764.1,275.9c-0.1,0.2-0.1,0.4-0.2,0.6c-0.2-0.1-0.4-0.2-0.5-0.3c-0.1-0.1,0.1-0.4,0.2-0.5
		C763.8,275.7,763.9,275.8,764.1,275.9z"/>
	<polygon points="752.1,268.8 752.1,269 752,268.9 	"/>
	<path d="M880.4,290.9c-0.4,0.6-1,1-1.7,0.6c-0.9-0.5-1.6-1.1-2.4-1.8c-0.6-0.5-1.1-1.1-1.6-1.6l0.1,0.1c-0.1-0.5-0.3-0.8-0.8-0.8
		l0.1,0.1c-0.1-2.4-0.2-4.9-0.3-7.3c-0.1-3.1,0.2-4.9,1.6-8c-0.2,1.8-0.4,2.9-0.5,4c-0.3,2.9-0.1,5.8,1,8.6c0.4,1.1,1,2.1,2.5,2.1
		l-0.1-0.1c0.2,0.3,0.5,0.7,0.7,1c0.9-0.5,0.5-1.3,0.7-1.9c0.2-0.6,0.3-1.3,0.4-2c0.1-0.7,0.3-1.4,0.3-2c0.1-0.7,0-1.4,0.3-2.1
		c0.1,2.3,0.2,4.6,0.3,6.9c0,0.9,0.3,1.7,0.9,2.5c0.6,0.7,0.9,1.7,1.5,2.8C882.2,291.6,881.3,291.3,880.4,290.9
		c-0.6-0.6-1.2-1.3-1.9-2.2c-0.3,0.6-0.5,0.9-0.7,1.2C878.6,290.7,879.4,291.1,880.4,290.9z"/>
	<path d="M878.1,309.9c-3.4-1.4-3.4-1.4-6-1.2c0-0.6-0.2-1.3,0-1.9c0.2-1.1,0.6-2.2,0.9-3.4C875.5,304.9,877,307.2,878.1,309.9z
		 M873.7,306c0.1-0.1,0.2-0.1,0.2-0.2c0-0.1,0-0.2,0-0.3c-0.1,0.1-0.2,0.1-0.3,0.2C873.5,305.8,873.6,305.9,873.7,306z"/>
	<path d="M892.3,301.4c-0.6-0.1-1.1-0.3-1.2-1c-0.1-0.7-0.1-1.3,0-2c0.1-0.8-0.7-0.3-0.9-0.8c-0.2-0.7,0.4-1.1,0.7-1.7
		c0.1-0.3,0.2-0.5,0.2-0.7c0,0.2-0.1,0.5-0.1,0.8c-0.3-0.1-0.6-0.2-1.1-0.4c0.3-1.3,0.6-2.6,1.3-3.8
		C892.6,294.9,893.6,298.1,892.3,301.4L892.3,301.4z"/>
	<path d="M857.9,278.4c1.8-1.2,2.9-3,4-4.7c1.1-1.6,2-3.3,3.6-4.5c0.2,0.2,0.4,0.3,0.4,0.3c-0.6,1.1-1.2,2.1-1.8,3.2l0.1-0.1
		c-0.5,0.3-0.7,0.6,0,0.9l-0.1-0.1c-1.6,1.8-3.3,3.6-4.8,5.4c-0.6,0.7-1,1.7-1.5,2.6c-0.6,0-0.7-0.6-0.6-0.9
		c0.2-0.8,0.5-1.5,0.7-2.3L857.9,278.4z"/>
	<path d="M850.6,300.5c-0.9-2.9-0.4-5.6,1.5-7.8c1.2-1.4,2.7-2.5,5.3-2.3c-2.2,1.3-4.3,2.2-5.1,4.2
		C851.6,296.5,851.2,298.5,850.6,300.5z"/>
	<path d="M859.3,273.5c-0.1,0.3,0,0.7-0.2,0.9c-1.1,1.1-1.3,2.5-1.2,4l0.1-0.1c-1.2,1.3-2.5,2.7-3.7,4c-0.4,0.4-0.9,0.7-1.6,0.1
		c0.5-0.5,1-1,1.4-1.4c0.5-0.5,0.9-1.1,1.4-1.6c0.7-0.8,1.2-1.4,1.4-2.6C856.9,275.4,857.8,274,859.3,273.5L859.3,273.5z"/>
	<path d="M884.6,269.9c0,0.5,0.2,0.8,0.7,0.7c-0.1,1.1,0.4,1.7,1.4,2.1c0.3,0.8,0.5,1.5,0.8,2.3c0.6,1.4,1.4,2.6,1.4,4.3
		c-1.8-3-3.7-6-5.6-9.2c0.1-0.2,0.4-0.5,0.7-0.8C883.8,269.8,884.1,270,884.6,269.9z"/>
	<path d="M888.2,295.5c-0.6-2.5-0.2-6.6,0.9-11C889.6,288.2,889.4,291.2,888.2,295.5z"/>
	<path d="M884.6,289.6c0.1-1.2,0.2-2.5,0.4-3.7c0-0.2,0.5-0.5,0.8-0.5c0.3,0,0.5,0.3,0.8,0.5c0.1,0.1,0.1,0.2,0.1,0.3
		c0,1.4,0,2.7,0,4.4c-0.6-0.2-1-0.3-1.3-0.4l0.1,0.1C885,290.1,884.7,289.8,884.6,289.6L884.6,289.6z"/>
	<path d="M881.3,309.7c-0.1,0-0.3,0-0.3-0.1c-0.7-1.9-1.3-3.9-2-5.8c-0.1-0.2,0.1-0.4,0.2-0.6C881.6,305.8,882,307,881.3,309.7z"/>
	<path d="M874.7,288.1c0,0.2,0.1,0.5,0,0.7c0,0.2-0.2,0.4-0.3,0.5c-2.7-1.5-3-1.9-3.6-4.4c1.4,0.5,1.7,2.5,3.3,2.6l-0.1-0.1
		c0.3,0.3,0.5,0.5,0.8,0.8L874.7,288.1z"/>
	<path d="M846,284.9c1.4-0.3,2.8-0.7,4.6-1.1C848.8,285.5,848.8,285.5,846,284.9z"/>
	<path d="M879.9,267.3c1.3,1,1.4,2.2,1.9,4C880.6,269.8,880.1,268.8,879.9,267.3z"/>
	<path d="M878.4,286.9c-0.1-1.7-0.4-3.4,0.4-5.4C878.8,283.6,879.3,285.3,878.4,286.9L878.4,286.9z"/>
	<path d="M892.3,279.7c-1-0.3-1.4-1-1.4-2l-0.1,0.1C891.9,278,892.1,278.8,892.3,279.7L892.3,279.7z"/>
	<path d="M883.8,289.6c0.2,0,0.5,0,0.7,0l-0.1-0.1c0.3,0.3,0.5,0.5,0.8,0.8l-0.1-0.1c-0.2,0.2-0.5,0.5-0.6,0.5
		C884,290.6,883.7,290.2,883.8,289.6L883.8,289.6z"/>
	<path d="M882.1,273.1c0-0.2-0.1-0.3-0.1-0.4c0,0,0.1-0.1,0.1-0.1C882.1,272.7,882.1,272.8,882.1,273.1z"/>
	<path d="M895.7,286.8c-0.2-0.2-0.4-0.3-0.4-0.5c0-0.1,0.2-0.3,0.2-0.4c0,0.1,0.1,0.2,0.1,0.3C895.7,286.4,895.6,286.6,895.7,286.8
		L895.7,286.8z"/>
	<path d="M883.1,288.9c-0.2-0.1-0.3-0.2-0.5-0.3c-0.1-0.1,0-0.2,0-0.3c0.1,0,0.4,0.1,0.4,0.2C883.1,288.5,883.1,288.7,883.1,288.9
		L883.1,288.9z"/>
	<path d="M892.2,279.8c0.2,0.5,0.4,1,0.6,1.4l0.1,0C892.7,280.7,892.5,280.2,892.2,279.8L892.2,279.8z"/>
	<path d="M864.2,272.8c0.1,0.2,0.2,0.3,0.2,0.5c0,0.1-0.1,0.2-0.2,0.3l0.1,0.1C864.3,273.3,864.3,273,864.2,272.8L864.2,272.8z"/>
	<polygon points="864.3,275.6 864.4,275.4 864.2,275.5 	"/>
	<path d="M864.3,276.3c-0.3,0-0.5,0-0.8,0c0.3-0.2,0.6-0.5,0.8-0.7l-0.1-0.1C864.2,275.8,864.3,276,864.3,276.3z"/>
	<path d="M863.6,276.2c0,0.3,0,0.5,0,0.8c-0.1-0.2-0.2-0.4-0.2-0.5C863.4,276.4,863.5,276.3,863.6,276.2z"/>
	<path d="M883.9,289.5c-0.5,0.1-0.7-0.2-0.7-0.7l-0.1,0.1C883.6,288.8,883.8,289.1,883.9,289.5L883.9,289.5z"/>
	<polygon points="892.8,281.2 893,281.3 892.9,281.2 	"/>
	<path d="M888.7,264.4c1,0.6,0.7,1.8,1.3,3.2C888.7,266.5,888.9,265.4,888.7,264.4L888.7,264.4z"/>
	<path d="M888.8,264.4c-1-0.3-1.3-1.1-1.5-2l0.1-0.1C888.4,262.6,888.9,263.3,888.8,264.4L888.8,264.4z"/>
	<path d="M886.7,261.5c0.2,0.2,0.5,0.5,0.7,0.7l-0.1,0.1c-0.2-0.2-0.5-0.4-0.7-0.7L886.7,261.5z"/>
</g>
</svg>
