<?xml version="1.0" encoding="utf-8"?>
<!-- Generator: Adobe Illustrator 20.0.0, SVG Export Plug-In . SVG Version: 6.00 Build 0)  -->
<svg version="1.2" baseProfile="tiny" id="Layer_2" xmlns="http://www.w3.org/2000/svg" xmlns:xlink="http://www.w3.org/1999/xlink"
	 x="0px" y="0px" viewBox="0 0 900 600" xml:space="preserve">
<g>
	<path d="M845,473.2c-0.4-0.4-0.7-0.9-1.2-1.4c0.2-0.8,0.3-1.7,0.6-2.5c0.3-0.9,1.1-1,2.1-0.7c-0.3,0.6-0.6,1.2-1,1.9
		c0.3,0.4,0.4,1,0.8,1.4c2.6,2,5.3,3.8,8,5.5c0.2-0.2,0.4-0.3,0.4-0.4c0-0.4-0.1-0.9-0.1-1.4c-0.9-0.3-1.8-0.5-2.6-0.9
		c-0.6-0.3-1.1-0.8-1.5-1.3c-0.4-0.5-0.4-1.1,0.4-1.6c0.5,0.2,1.1,0.5,1.7,0.8c2.4,1.2,2.7,1.1,4.9-1.1c-1.1-1.7-1.9,0.2-3,0.2
		c-1.1-0.4-2.4-0.9-3.7-1.4c0.2-1.1,0.9-1.5,2-1.9c0.5,0.6,1.1,1.2,1.8,1.9c0.4-0.1,0.8-0.3,1.2-0.4c1.2-0.3,2.3,0,3.1,1
		c0.7,0.9,1.4,1.8,2.2,2.8c-0.6,0.6-0.9,1.2-1.4,1.5c-0.7,0.5-1.5,0.8-2.5,1.2c1.5,0.6,2.5,0,3.4-0.7c0.7-0.5,1.3-1.3,1.7-2.1
		c0.4-0.9-0.1-1.8-0.8-2.4c-0.8-0.8-1.8-1.4-2.5-2.3c-1.1-1.4-1.3-2.9,0.2-4.5c0.3,0.1,0.7,0.3,1.1,0.5c-1.1,0.6-0.6,1.4-0.2,2.6
		c0.1-1.1,0.1-1.9,0.2-2.6c1.3-0.4,1.9-1.5,2.6-2.5c1-1.4,1.9-2.8,2.6-3.8c1.4-0.6,2.7-0.7,3.4-1.5c1-1.1,2.2-1,3.3-1.3
		c-0.6,1.6-1.4,3.2-1.1,5.8c0.8-1.8,1.3-2.9,1.8-4c0.3-0.7-0.2-1.3-0.8-1.7c1.7-0.8,1.7-0.8,4.9-0.5c-1.2,0.3-1.9,0.5-2.6,0.7
		c-0.1,0.2-0.3,0.5-0.3,0.6c0.1,1.7-0.1,3.3-0.6,5c-1,3.2-1.1,6.5,0.4,9.7c0.9,1.9,1.5,3.8,2.3,5.7c0,0,0.1-0.1,0.1-0.1
		c-0.5,0.3-1.1,0.6-1.6,0.9c0-0.6,0.2-1.4,0-1.9c-0.5-1.3-1.2-2.6-1.8-3.8c-0.6-1.9-1.4-3.7-1.6-5.8c-0.1-0.7-0.5-1.3-0.8-2.1
		c-1,2.4-1.2,4.6-0.7,6.9c0.2,0.8,0.4,1.8-0.4,2.5c0.5-1.9-0.8-3.5-1-5.3c-1.5-1.9-1.1-4.1-0.7-6.2c0.1-0.4,0-0.9,0-1.5
		c-0.3,0.4-0.5,0.6-0.6,0.8c-1.7,4.9-2.7,9.9-0.3,14.9c0.1,0.3,0.3,0.6,0.3,1c0.2,1.2,1.4,2.2,0.4,3.6c-0.1,0.2,0.1,0.7,0.3,0.9
		c0.5,0.8,1,1.5,1.6,2.2c1.4,0,2.8,0.2,4.1-0.6c-0.3-0.8-0.5-1.6-0.8-2.3c0.8,0.6,1.5,1.3,2.4,2c0.4-0.3,0.7-0.6,0.9-0.8
		c-1-1.7-1.9-3.3-2.7-4.9c-0.8-1.6-1.4-3.4-1.1-5.2l-0.1,0.1c0.3-0.1,0.5-0.1,0.8-0.2c0,0.6-0.1,1.3,0.1,1.9
		c0.5,1.3,1.1,2.6,1.7,3.8c0.6,1.5,1.3,3,2.6,4c0.5-0.3,0.7-0.5,1-0.7c0,0-0.1,0.1-0.1,0.1c0.5-0.1,1.1-0.2,1.6-0.4
		c0.3-0.1,0.5-0.5,0.7-0.7c2.3-2.1,3.5-4.4,2.7-7.8c-0.6-2.7-0.6-5.6-0.8-8.5l-0.1,0c1.2,2.3,1.6,4.9,2.2,7.4
		c0.2,0.9,0.4,1.7,0.7,2.7c2.2-2.2,2.4-3,1.2-4.9c-0.3,0.5-0.6,1-1,1.6c-0.2-2.1-0.4-3.9-0.4-5.7c-0.1-1.8,0.1-3.6-0.7-5.4
		c-0.8-1.7-1.3-3.6-1.9-5.4c-0.1-0.3-0.4-0.5-0.6-0.7c0,0,0.1,0.1,0.1,0.1c-0.1-0.6-0.1-1.2-0.8-1.5l0.1,0.1c0-0.6-0.1-1.3-0.8-1.5
		l0.1,0.1c-0.1-0.4-0.1-0.9-0.3-1.3c-0.7-1.2-1.5-2.3-2.3-3.4c0-1.2,0.8-2.1,0.7-3.3c-0.1-1.9-0.1-2.5-1.6-3.2
		c-0.3-0.1-0.6-0.3-1-0.4c-1.7-0.5-3.3-0.9-5-1.4c-1.6-0.5-3.3-1-5-1.6c-0.4,0.4-1,0.7-1.2,1.1c-1,1.7-2.5,1.8-4.2,1.4
		c-2.2-0.5-4.3-1.4-6.3-2.7c-0.7-0.4-1.3-0.8-2-1.2c-1,0.6-1.6,1.3-1.2,2.3c0.4,1,0.2,1.8-0.6,2.4c-1,0.1-0.6-0.8-1.1-1.2
		c-1-0.3-2.2-0.7-3.3-1c-2.4,1.3-0.6,3.8-1.5,5.7c-0.9-1.3-1-1.3-0.9-2.8c0.1-1.2-0.3-2-1.5-2.6c-0.6,0.4-1.2,0.9-2.1,1.4
		c-0.6-0.2-1.3-0.5-2.1-0.6c-1.8-0.4-2.9,0.3-3.3,2c-0.5,2-0.7,4-0.2,6.1c0.4,2,0.3,4.1,0.4,6.4c-0.9-0.3-1.6-0.8-2.5-0.6
		c-2.7,0.5-5.4,0.9-8.1,1.2c-0.8,0.1-1.6,0-2.4-0.1c-0.3-0.1-0.5-0.6-0.9-0.9c4-1.1,8-1.2,12.1-2c-0.1-1.6-0.1-3.1-0.3-4.5
		c-0.3-2.1,0-4.1,0.6-6.1c0.8-2.4,2.3-3.4,4.7-2.9c1.1,0.2,2.1,0.5,3.2-0.2c0.4-0.2,1.1,0,1.6,0c0.4,0,1.1,0.3,1.3,0.1
		c1.5-1.4,3.1-0.3,4.8-0.4c0.3-0.4,0.7-1,1.2-1.5c1.4-1.7,2.6-1.9,4.4-0.6c1.8,1.2,3.6,2.4,5.9,2.6c0.5-0.3,1-0.7,1.4-1
		c0.3,0.2,0.5,0.4,0.8,0.7c0.2,0,0.5,0,0.6-0.1c2.5-1.8,5.2-1.7,7.9-0.7c3.1,1.2,6.2,2.4,9.2,3.8c3.5,1.6,5.8,4.4,6.9,8.1
		c0.3,0.9,0.4,1.8,0.8,2.6c1.5,3.9,2.3,8,2.4,12.1c0.1,2.8-0.4,5.7-0.8,8.5c-0.2,1.6-1.1,3-2.2,4.2c-1.2,1.3-2.3,2.8-3.1,4.3
		c0.3,1.3,1.3,1.5,2.1,1.9c1.2,0.5,2.4,0.9,3.5,1.4c1.3,0.6,2.3,1.5,2.9,2.8c0.5,1.1,0.6,2.2,0.4,3.3c-0.1,0.4-2.5,4.7-2.8,5
		c-2.6,2.2-5.5,3.7-9,3.8c-3,0-6-0.2-8.8-1.1c-2.7-0.8-5.4-0.8-8.1-0.5c-4.7,0.6-9.2,1.9-13.4,4.1c-2.9,1.5-4.3,2.7-6.2,5.3
		c-0.9-0.2-1.1-0.9-0.8-1.5c0.6-1,1.2-2,2.1-2.6c1.4-1.1,3-2,4.6-3c0.8-0.6,1.7-1.1,2.5-1.7c0.4,0,0.9,0.1,1.3,0
		c0.3-0.1,0.5-0.4,0.7-0.6c0,0-0.1-0.2-0.1-0.3c-0.3,0-0.7-0.1-0.9,0c-0.3,0.2-0.6,0.6-0.9,0.9c-1.3-0.2-2.5,0.2-3.6,0.7
		c-3.9,1.8-7.4,4-10.9,6.4c-1,0.7-2,1.4-3,2c-0.6-0.6-0.3-1,0.1-1.3c2.1-2.1,4.6-3.7,7.2-5.2c1.1-0.6,2.2-1.2,3.1-2.3
		c-1-0.5-1.9-0.4-2.7-0.1c-0.9,0.3-1.7,0.7-2.5,1l0.1,0.1c-0.4-0.2-0.8-0.6-1.1-0.5c-4.2,1-8.4,1.9-12,4.5c-0.1,0-0.2,0-0.3-0.1
		c-0.5-0.4-0.2-0.9,0.1-1.1c1.1-0.8,2.3-1.5,3.5-2.1c1.4-0.7,2.9-1.2,4.6-1.8c0.3-1.1,0.6-2.4,1-3.7c0-0.1,0.1-0.1,0.1-0.2
		c0,0.1-0.1,0.2-0.1,0.2c-3.5-0.3-6.8,0.4-10,1.6c-0.9,0.3-1.7,1.1-3.1,0.6c0.6-0.7,1-1.3,1.7-2.1c-1.9-0.1-3.5-0.1-5.2-0.2
		c-0.6,0-1.1-0.1-1.4-0.8c2.6-0.4,5.2-0.4,7.7-1.6c0.4-0.6,0.7-1.2,1.1-1.8c1.2-2,3-3.5,5.2-4.4c1.2-0.5,2.4-0.9,3.6-1.2
		c3.7-0.9,7.5-0.9,11.3-0.8c1.2,0,2.4,0,4.2,0c-2.6-1.4-4.7-2.7-7-3.2c-1.8-0.4-3.5-0.5-4.9-1.8c-0.5-0.4-1.3-0.4-2-0.5
		c-2.3-0.2-4.6-0.3-6.9-0.4c-1.7,0-3.4,0.3-5.1-0.1c-0.7-0.2-1.6,0-2.1,1c0.1,0.9,0.3,1.9,0.5,2.9c0.1,0.6,0,1.1-1,1.3
		c-0.4-0.7-0.9-1.4-1.4-2.2c-2.8-4.6-5.7-9.1-10.2-12.3c-0.3-0.2-0.5-0.5-0.7-0.7c-2.4-3.4-5.9-5.4-9.3-7.4c-0.8-0.5-1.6-1-2.4-1.2
		c-3.7-0.9-7.6-0.8-11.2,0.2c-2.6,0.7-5.1,2.1-7.5,3.3c-0.6,0.3-1.1,0.7-1.6,1.1c0.3,1.1,0.6,1.9,0.8,2.8l-0.2,0.2
		c-1.4,0.2-2-1.4-3.5-1.5c-2.2,1.8-3.7,4.3-5.5,6.5c-0.2,0.2-0.1,0.6-0.2,0.9c7.4-1.2,14.6-2.3,21.8-3.4c0.6-0.1,1.2-0.3,1.3,0.5
		c-1.6,1.9-3.7,2.5-6,2.7c-6.7,0.7-13.4,1.4-19.9,3.7c-0.5,0.2-1.1,0.2-1.7,0.3c-2.8,0.5-5.7,0.9-8.5,1.5c-2.8,0.5-5.7,0.9-8.5,0.7
		c-0.9-0.1-1.8,0.2-2.7,0.3c-4.8,0.7-9.6,1.2-14.4,1c-2.9-0.2-5.7,0.2-8.4,1.1c-4.1,1.4-8.2,2.8-12.4,4.1c-2.9,0.9-6,1.6-8.9,2.4
		c-0.9,0.2-1.9,0.3-2.6,0.7c-1.6,0.9-3.3,1-5,1.1c-5.1,0.3-10.3,0.6-15.4,0.8c-1.3,0-2.5,0.1-3.7,0.7c-2.5,1.3-5.2,1.5-7.9,2
		c-0.9,0.2-1.8,0.3-2.7,0.5c-4.7,0.9-9.4,1.9-14.1,2.8c-1.6,0.3-3.1,0.8-4.7,0.3c-0.3-0.1-0.7-0.1-1,0c-2.1,1-4.3,0.5-6.4,0.7
		c-1.5,0.1-2.9,0.1-4.6,0.1c-2.2,0.6-4.6,1.3-7,1.9c-1.1,0.3-2.2,0.4-3.3-0.3c-0.9-0.6-1.9-0.4-3.2-0.1c1.3,0.1,1.5,1.4,2.6,1.7
		c4.1,1,8.1,0.8,12.1-0.2c2.5-0.7,4.9-1,7.5-0.9c2.8,0.1,5.7,0.4,8.5-0.1c0.1,0,0.2,0.3,0.5,0.5c-1.1,0.9-2.3,1.5-3.7,1.4
		c-1.7-0.1-3.4-0.1-5.1-0.3c-1.9-0.2-3.6-0.2-5.4,0.4c-1.2,0.4-2.4,0.7-3.6,1.1c-0.3,0.1-0.6,0.4-1.6,0.9c2.4-0.1,3.9-0.1,5.5-0.4
		c1-0.2,2-0.3,3.1-0.2c5.5,0.2,11,0.5,16.5,0.6c4.2,0.1,8.5,0.2,12.5-1.7c1.7-0.8,3.7-1.3,5.5-1.9c2.1,0.9,4.2,0.8,6.4,0.7
		c3.4-0.1,6.9-0.4,10.3-0.5c8.5-0.1,16.9-0.2,25.4-0.7c6.4-0.4,12.8-0.6,19.1-1.8c1.6-0.3,3.2-0.4,4.8-0.6c3.1-0.3,6.2-0.1,9.1-1.3
		c0.3-0.1,0.7-0.1,1-0.1c3,0.2,6,0.2,8.9,0.5c7.1,0.9,14.1,1.3,21.3,1.1c4.5-0.2,8.9,0,13.4-0.1c0.8,0,1.6,0,2.4-0.1
		c5.6-1.1,11.2-2.3,16.8-3.3c1.7-0.3,3-1.1,3.9-2.5c0.9-1.3,1.8-2.6,2.8-3.9c0.2-0.3,0.7-0.7,1.2-0.1c-0.4,2.4-2.2,4.1-3.1,6.3
		c-1,1.3-2.4,1.7-3.9,2c-5,0.9-9.9,1.8-14.9,2.7c-8,1.5-16.2,1.6-24.3,1.9c-5.4,0.2-10.8-0.2-16-1.5c-1.2-0.3-2.4-0.7-3.7-0.1
		c-0.1,0-0.2,0-0.3,0c-5.1,0.1-10.3,0.2-15.4,0.3c-1.5,0-2.9,0.2-4.4,0.7c-2,0.7-4.2,1.3-6.3,1.5c-6,0.7-12.1,1.4-18.2,0.5
		c-0.3,0-0.7-0.1-1-0.1c-4,0.9-8,0.5-12,0.7c-3.7,0.2-7.3,0.3-11,0.3c-4,0-8-0.1-12-0.2c-1.8-0.1-3.5,0.3-4.9,1.3
		c-1.5,1.2-3.3,1.5-5.1,1.7c-4.6,0.5-9.1,1.1-13.6-0.4c-0.2-0.1-0.5-0.1-0.7-0.1c-3.7,0-7.3-0.1-11-0.1c-0.8,0-1.6,0.1-2.4,0.2
		c-0.6,0.1-1.1,0.2-1.7,0.3c-2.9,0.3-5.8,0.2-7.7-2.3c-2.2-0.2-4.3-0.2-6.3-0.5c-0.9-0.1-1.7-0.6-2.5-1.1c-0.6-0.3-0.7-0.8-1.1-2.5
		c1.1-1.2,2.4-1.8,4.1-1.8c2.2,0,4.3-0.5,6.5-0.1c0.3,0.1,0.7-0.1,1-0.1c3.7-0.9,7.4-1.1,11.2-1.3c0.5,0,0.9,0,1.4-0.2
		c1.5-0.5,3.1-0.5,4.7-0.4c1.9,0.1,3.9-0.4,5.7-0.9c2.6-0.7,5.3-0.9,7.9-1.8c2.1-0.8,4.5-0.9,6.7-1.3c2.2-0.3,4.3-0.7,6.2-1.7
		c1.4-0.8,3-0.9,4.7-0.9c4.2-0.1,8.5-0.1,12.7-0.8c6.7-1,13.3-2.1,19.7-4.4c4.2-1.5,8.5-2.7,13.5-4.3c-1.5-0.1-2.2-0.2-3-0.2
		c-7.1-0.3-14.1-1.5-20.8-4.2c-1.3-0.5-2.5-1-3.9-0.1c-0.5,0.3-1.3,0.2-2,0.2c-2.2-0.1-4.4-0.2-6.5-0.2c-3.5,0-7.1,0-10.6,0.2
		c-1,0-1.9,0.6-2.9,1c-1.5,0.6-2.9,1.4-4.4,2c-2.6,0.9-5.4,1.5-8.1,0.6c-3-0.9-5.9-0.4-8.8,0.2c-1.1,0.2-2.3,0.4-3.4,0.4
		c-0.9,0-1.7-0.5-2.7-0.7c0.4-1.4,0.8-2.5,1.2-3.9c1.1-0.5,2.4-1.2,3.8-1.6c1.3-0.3,2.7-0.2,4.6-0.3c-2,1.6-4,1.8-5.8,2.8
		c-0.2,0.6-0.4,1.4-0.6,2.2c0.4,0.1,0.7,0.3,1,0.2c2.7-0.7,5.3-1.3,8.1-1.4c1.5,0,2.9-0.1,4.4,0.4c2.1,0.8,4.3-0.1,6.3-0.8
		c1.1-0.4,2.1-0.9,3-1.6c1.7-1.3,3.6-1.8,5.8-1.8c2,0,4.1-0.2,6.3-0.3c-0.1-0.5-0.2-0.9-0.3-1.3c1.5-0.8,2,0.3,2.6,1.5
		c2,0.4,4.2,0.4,6.4,0.3c0.9,0,1.8,0,2.7,0.1c5.9,1,11.7,2.1,17.6,3.1c2.6,0.4,5.2,0.7,7.9,0.9c1.7,0.1,3.4,0.3,5.1-0.4
		c0.7-0.3,1.6-0.1,2.4-0.1c2.5,0.1,5,0.2,7.5-0.3c1.9-0.4,3.6,0.1,5.5,0.3c0.5,0,1,0.5,1.4,0.8c0.6,0.4,0.6,0.4,2.3,0.3
		c0-0.3-0.1-0.6-0.1-1.1c1.9-0.3,3.5,0.1,5.1,1.1c3.8-0.5,7.5-1.1,11.5-2c-2-2.3-4.6-3.5-6.4-5.5c-1.8-1.9-3.5-3.9-5.3-6
		c-2.3-0.9-4.7-0.3-6.9,0.7c-1.4,0.6-2.8,1.1-4.3,1c-0.5,0-1-0.3-1.9-0.7c1.7-0.8,3.1-1.4,4.4-2c-0.3-0.8-0.9-0.6-1.4-0.7
		c-1.6-0.2-3.2-0.3-4.8-0.5c-5.5-0.7-11-0.1-16.4,0.9c-0.9,0.2-1.8,0.3-2.7,0.3c-4.1,0.4-8.2,0.7-12.3,1.2
		c-7.5,0.8-15.1,1.2-22.6,0.9c-1.1,0-2.3-0.1-3.4-0.4c-2-0.5-3.9-0.1-5.7,0.7c-4.3,1.9-9,2.7-13.6,3.1c-1.2,0.1-2.2,0.3-3.3,0.8
		c-1.6,0.7-3.3,1-4.9,1.4c-1.5,0.3-2.9,0.5-4.4,0.6c-1.7,0.2-3.4,0.5-4.9,1.4c-1,0.7-2.4,0.5-3.4,1.4c1.9,0.8,1.9,0.8,4.3,0.7
		c1.4,0,2.9-0.5,4.3,0.1c-0.2,0.3-0.3,0.6-0.4,0.7c-2.1,0.3-4.3,0.9-6.4,0.8c-1.8,0-3.6-0.5-5.3-1.2c-1.2-0.5-2.2-1.5-3.5-2.4
		c1.7-1.3,3-2.7,5.2-2.3c0.2,0,0.5,0,0.7,0c3.4-1.6,7.2-1.2,10.7-2.4c0.2-0.1,0.4-0.2,0.7-0.2c5.3,0.2,10.3-1.9,15.5-2.7
		c4.2-0.7,8.3-1.6,12.5-2.4c1.6-0.3,3.2-0.3,4.8-0.3c3.8,0,7.6,0.5,11.3,0.3c5.7-0.3,11.4-0.4,17.1-1.2c5.8-0.8,11.6-1,17.4-2
		c3.3-0.5,6.6-0.2,9.9,0.3c1.3,0.2,2.4,0.3,3.7-0.1c0.8-0.3,1.8-0.1,2.7,0.1c1.6,0.4,3.2,1,5.4,1.7c-0.7-0.9-1-1.4-1.4-1.8
		c-2.9-3.4-5.8-6.8-8.8-10.1c-0.8-0.9-1.8-1.8-2.8-2.5c-4-2.7-8-5.3-12.1-7.9c-1-0.7-2.3-1.1-3.5-1.4c-4.7-1-9.5-1.7-14.2-2.2
		c-4.3-0.5-8.7-0.7-13-0.9c-5.8-0.3-11.1-2.5-16.2-5.2c-1.3-0.7-2.6-1.5-3.9-2.2c-2.8-1.5-5-3.6-6.4-6.5c-1.3-2.7-2.2-5.5-2.7-8.5
		c-1.1-6.6-1.8-13.2-0.9-19.8c0.2-1.5,0.3-3-0.5-4.4c-0.2-0.3-0.2-0.7-0.3-1c-1-6.2-2.6-12.3-2.5-18.7c0.3-12.4,0.5-24.8,0.7-37.1
		c0-0.9,0-1.8,0-3.1c-1,0.7-1.8,1.1-2.4,1.7c-2.9,2.4-6,4.1-9.8,4.7c-3.4,0.6-6.7,1.5-10,2.3c-1.2,0.3-2.4,0.7-3.5,1.4
		c-3.1,1.7-6.3,3.3-9.4,4.9c-2.1,1.1-4.3,2.1-6.5,3.2c-2.7,1.5-5.3,3.2-7.6,5.3c-2.3,2.2-4.8,4.3-7.6,5.9c-2,1.1-3.2,2.7-3.7,5
		c-0.1,0.4-0.4,0.8-0.7,1.1c-1.4,1.6-3.2,3-3.9,5.1c-0.1,0.4-0.7,0.5-1,0.8c-0.6,0.5-1.3,1-1.7,1.7c-1.1,1.8-2.9,2.9-4.6,4
		c-1.5,0.9-3,1.6-4.4,2.6c-2.9,2.1-6.4,2.9-9.7,4.3c-2.6,1.1-5.3,2.1-8.2,3.1c-0.3-0.5-0.7-0.9-0.9-1.4c-0.9-3.2-2.1-6.3-3.5-9.3
		c-2-4.2-4.1-8.5-6-12.7c-0.4-0.8-0.5-1.7-0.8-2.6c-1.6-5.3-3.5-10.4-6.5-15.1c-0.6-0.9-1-1.8-1.4-2.8c-2.3-6.6-5.6-12.8-8.1-19.3
		c-2.6-6.5-5.1-13-7.6-19.5c-0.5-1.3-0.7-2.6-1.2-3.9c-0.4-1.3-0.4-2.7-1.6-3.7c-0.3-0.2-0.3-0.8-0.4-1.3c-0.9-3.6-1.7-7.1-2.6-10.7
		c-0.1-0.3-0.3-0.8-0.2-1c1.1-2-0.2-3.8-0.7-5.5c-4.3-15.3-8.7-30.6-11.7-46.3c-0.4-2.2-1-4.5-1.6-6.7c-0.2-0.6-0.6-1.2-0.8-1.8
		c-2.1-0.3-4.2,1.3-6.1-0.3c0.3-0.6,0.7-1.2,1.2-1.5c-0.1-0.1-0.2-0.4-0.3-0.4c-2.1-1-4-2.3-5.6-3.9c-1.2-1.2-2.3-2.6-2.9-4.2
		c-0.2-0.6-0.5-1.4-0.2-1.9c0.5-1,0.1-1.8-0.2-2.6c-1.6-5.4-1.6-10.8-0.4-16.3c0.2-0.9,0.4-1.8,0.7-2.7c1.2-3.2,1.3-6.5,0.9-9.8
		c-0.8-6.5-1.8-12.9-3.8-19.2c-0.6-2-2-3.2-3.1-4.7c-0.2-0.3-0.8-0.7-1.2-0.6c-1.9,0.4-3.3-0.5-4.8-1.3c-0.4-0.2-1-0.2-1.5-0.4
		c0.4-3.7,2.3-5.8,5.9-6.6c-0.4-1.9-1.4-3.5-2-5.2c-0.5-1.6-1.2-3.2-1.7-4.9c-0.6-1.7-1.1-3.5-1.6-5.3c-0.5-1.6-0.9-3.3-1.4-5
		c-0.5-1.8-0.9-3.5-1.4-5.3c-0.4-1.7-0.9-3.3-1.3-5c-0.4-1.8-0.8-3.6-1.2-5.4c-0.4-1.7-0.9-3.3-1.1-5c-0.3-1.8-1.3-3.4-0.8-5.7
		c0.5,0.6,0.9,0.8,1,1.2c2.4,6.8,4.8,13.6,7,20.5c1.1,3.3,1.8,6.6,2.8,9.9c1.4,4.8,3,9.6,4.5,14.5c2.3,0.6,4.5,1.4,7,0.7
		c1-0.3,2-0.3,3.1-0.5c1-0.1,2.1-0.1,3.2,0.7c0.5,2.4,1.1,5.1,1.7,7.8c0.9,0.4,1.7,0.8,2,1.9c0.8,3.4,1.8,6.9,2.7,10.3
		c0.4,1.6,1,3,1.8,4.4c4.6,9.3,9.4,18.6,12.4,28.7c0.6,2.1,1.1,4.2,1.6,6.3c0.9,3.8,0.5,7.5-0.3,11.2c-0.2,0.9-0.2,1.8,0,2.7
		c1.1,3.9,2.2,7.7,3.1,11.6c3.3,14.2,8.3,27.9,11.4,42.1c0.2,1.1,0.6,2.2,0.8,3.3c0.3,1.7,0.9,3.2,2,4.7c1.6,2.4,2.6,5.1,3.2,7.9
		c0.3,1.3,0.1,1.5-1.6,1.9c-0.2-0.5-0.2-1.2-0.6-1.5c-1.3-1.2-2.2-2.6-2.9-4.2c-0.1-0.2-0.3-0.3-0.5-0.5c-0.9-0.2-1.9-0.7-3.1-0.4
		c0.4,3.3,2,6.6,0.7,10.1c-1.2-1-2.4-0.4-3.3,0.1c-1.6,0.8-3.1,1.2-5,1.2c0.2,1.8,0.8,3.3,1.4,4.7c2.5,6.5,5,13,7.6,19.5
		c1.2,3,2.4,5.9,3.7,8.9c0.3,0.7,0.7,1.5,1.1,2.1c1.1,1.6,1.9,3.4,2.5,5.3c0.6,2,1.3,3.9,1.9,5.9c0.2,0.6,0.5,1.2,0.8,1.9
		c0.5,1,1,2,1.4,3.1c0.7,1.7,1.2,3.5,2,5.1c2.9,6.1,5.7,12.2,8.4,18.4c1.2,2.8,2.7,5.5,3.5,8.5c0.4,1.5,0.9,3.1,2.4,4
		c0.4-0.1,0.8-0.1,1.1-0.2c2.7-1,5.4-2,8-3.1c1.5-0.6,2.8-1.5,4.2-2.3c0.8-0.5,0.9-1.4,0.5-2.1c-0.2-0.4-0.5-0.8-0.8-1.1
		c-3.1-3.6-5.3-7.8-7.3-12c-0.7-1.5-1.5-3.1-2.2-4.7c-0.4-1-1.2-1.3-2.1-1.5l0,0.1c0.4-0.5,0.9-1,0.6-1.8c-0.9-2-1.5-4.1-2.7-5.9
		c-2.6-4-4.8-8.3-7-12.5c-0.3-0.6-0.7-1.1-1-1.6c-1.2,0.3-2.2,0.6-3.8,1c1.4-1,2.4-1.6,3.3-2.3c-0.4-1.4-0.9-2.7-1.8-3.7
		c-1.2,0.2-2.3,0.4-3.4,0.6l0.1,0.1c0.4-1.3,2-0.9,2.6-1.9c0-0.2,0.1-0.5,0.1-0.7c-1.9-7-4.6-13.6-8.1-19.9c-2.5-4.5-5.1-9-6.8-13.8
		c-0.1-0.2,0-0.4-0.1-0.7c0.5-0.7,1.1-1.4,1.7-2.1c1-0.1,2-0.2,3.1-0.3c-0.7,0.9-1.4,1.8-2.1,2.7c0.6,2.6,5.5,12.7,7.4,15.2
		c1.9-0.6,3.7-1.3,5.6-1.7c2.9-0.6,5.7,0.8,7.2,3.4c0.3,0.5,0.5,1,0.7,1.6c1.3,4.4,2.6,8.8,4,13.1c0.5,1.7,1.4,3.2,3.3,3.6
		c0.3,0.1,0.7,0.1,1,0.3c3.2,1.8,6.4,2.2,9.9,0.8c0.7-0.3,1.6-0.3,2.4-0.3c1.4,0,2.8,0.2,4.1,0.1c1.3-0.1,2.7-0.5,4.2-0.9
		c0.4,1,0.8,1.8,1.2,2.9c0.9-0.2,1.7-0.2,2.4-0.5c3.1-1.2,5.9-3,8.5-5.1c6.1-4.7,12.1-9.5,18.1-14.1c3.5-2.7,6.8-5.5,9.7-8.7
		c0.8-0.8,1.4-1.8,2.6-2.1c0.4-0.1,0.7-0.5,1-0.9c1.5-1.8,3.3-3.2,5.3-4.3c5.9-3.2,10.6-7.9,15.6-12.4c1.1-1,2.3-1.9,3.7-2.5
		c1.9-0.8,3.7-1.7,5.7-2.4c3.7-1.4,7.4-1.3,11.1-0.1c2.1,0.7,4.2,1.3,6.2,2.1c1.5,0.6,2.8,1.5,4.1,2.4c0.7,0.5,1.3,1.3,1.7,2.1
		c2.8,5.4,5.7,10.7,8.4,16.1c4.5,8.8,8.1,18,11.3,27.3c2.2,6.5,3.5,13.3,4.4,20.1c0.9,6.4,1.7,12.7,2.2,19.1
		c0.3,4.9,1.8,9.4,4.4,13.6c0.6,0.9,0.9,2,1.6,3.4c2.5,1.9,5.6,3.6,8.9,5c2,0.8,4.1,1.6,6,2.5c4.9,2.4,10,4.6,15.2,6.3
		c1.4,0.5,2.8,0.9,3.8,2.1c0.3,0.4,1,0.6,1.5,0.8c3.9,1.5,7.2,3.9,10,7.1c2.1,2.3,4.6,4.1,7.2,5.8c0.3,0.2,0.6,0.3,1.1,0.4
		c2.5-3,6-4.4,9.3-6.3c1.5-0.9,3.2-1.3,4.9-1.2c5.2,0.3,9.8,2.1,13.6,5.8c0.6,0.6,1.3,1.3,1.7,2.1c1.5,2.7,3,5.4,4.4,8.1
		c1,1.9,1.5,4.1,2.9,5.8c0.9,3.1,2.2,6,2.3,9.3c0.1,3.7,0.7,7.3,2.3,10.6c1.5,3.1,2.5,6.4,3.2,9.8c0.9,4.2,1.7,8.3,2.5,12.5
		c0.2,0.9,0.4,1.8,0,2.6c-0.8,0-1-0.6-1.2-1.1c-1.1-3-2.3-6-3.3-9c-1.7-5.3-3.7-10.6-6.6-15.5c-3.3-5.8-4.5-12-3-18.5
		c0.3-1.3,0.1-2.5-0.4-3.6c-1.3-2.9-2.6-5.9-4-8.8c-0.4-0.9-1.1-1.8-1.8-2.4c-2.9-2.3-6-4.2-9.7-4.9c-2.9-0.5-5.8-0.7-8.2,1.4
		c-0.9,0.7-2.3,0.4-2.8,1.7c-1.4,0.1-1.6,0.3-2,1.5c-0.5,0.2-1.1,0.4-1.6,0.6c0.7,0.1,1.2-0.1,1.5-0.7c0.8-0.2,1.7-0.5,2-1.4
		c1,0,2,0.1,3,0.1c0,0,0.1,0.2,0.2,0.4c-1.2,0.8-2.4,1.6-3.5,2.5c-1.3,1-2.4,2.1-3.6,3.2c-1.1,1-1.7,2.4-3.1,3.1
		c-0.8-0.4-0.6-1-0.4-1.5c0.5-1.1,1.1-2.2,1.6-3.3c-2.1-1.2-4.2-2.4-6.3-3.7c-0.1,0.1-0.4,0.2-0.5,0.3c-2.2,6.2-5.8,11.7-9,17.3
		c-0.5,0.8-1,1.5-1.5,2.3c-0.7,1.3-1.4,2.6-2,3.9c-2.7,6-6.2,11.5-10.9,16.3c0.6,0.7,1.2,1.4,1.7,2.1c2,2.5,4.1,4.9,6.1,7.4
		c0.2,0.3,0.4,0.6,0.6,0.8c3.7,2.2,5.6,6,8.1,9.2c0.3,0.4,0.7,0.9,1,1.2c1.4,0.4,2.4-0.3,3.4-0.6c0.6-1,1-2.1,1.7-3
		c1.6-2,3.3-3.8,4.9-5.7c3.8-4.2,8.7-6.7,14.2-7.9c3.1-0.7,6.2-0.3,9.2,0.2c0.2,0,0.5,0.1,0.7,0.2c3.4,1.6,6.9,3.1,10.1,4.9
		c3.9,2.1,7,5.1,9,9.2c0.8,1.6,1.8,3,3.8,3c1,0,1.1,1,1.8,1.4c2.4-1.4,5.1-1.1,7.6-0.6c3.7,0.7,7.5,0.6,11.2,1.3
		C842.7,474.8,843.6,473.6,845,473.2c-0.2,1.1-0.2,2.3,0.4,3.5c0.3,0.6-0.2,1-0.5,1.4c0-0.2,0.2-0.6-0.3-0.4
		c0.1,0.1,0.3,0.2,0.4,0.3c0.8,0.9,1.8,1.2,3,1.3c-0.5-1.8-1-3.4-1.5-5C846.3,473.5,845.7,473.2,845,473.2z M622.7,313.5l0.1-0.1
		L622.7,313.5c-0.4,0.1-0.7,0.2-0.6,0.8c-0.6-0.3-1.1,0-1.5,0.4c-1.9,1.5-3.9,2.8-5.7,4.4c-3.5,3.1-7.4,5.8-11.2,8.5
		c-2.2,1.6-4.6,3-7.2,3.8c-0.6,0.2-1.2,0.5-1.9,0.8c-0.1,0.8-0.2,1.6-0.4,2.6c2.2-0.2,4.1-0.7,5.6-1.9c6.3-5,12.5-9.9,18.7-14.9
		c1.3-1.1,2.3-2.4,3.5-3.7C622.3,314,622.5,313.8,622.7,313.5z M650.3,290.9c0.4-0.1,0.8-0.2,0.6-0.7c0.4-0.1,0.9,0,1.3-0.2
		c1.3-0.7,2.6-1.4,3.8-2.3c2.8-2.1,6.1-3.6,8.8-5.9c1.7-1.4,3.8-2.1,5.9-2.6c0.9-0.2,1.8-0.2,2.4-1.1c-0.2-0.1-0.4-0.3-0.5-0.4
		c-0.6,0-1.2-0.1-1.7,0c-4.6,1.1-9,2.4-12.5,5.9c-1.3,1.4-2.9,2.6-4.3,3.9c-1,0.9-2,1.8-3.1,2.6
		C650.5,290.2,650.2,290.4,650.3,290.9c0,0.1-0.1,0.1-0.2,0.1c-0.1,0-0.1,0.1-0.1,0.1C650.1,291,650.2,290.9,650.3,290.9z
		 M880.7,447.7c0.3,0.2,0.5,0.5,0.8,0.7c0.2,0.5,0.4,0.9,0.6,1.4l0.1,0.1l-0.2-0.1c0-0.6,0-1.1-0.6-1.4
		C881.2,448.2,880.9,448,880.7,447.7c-0.3-0.1-0.5-0.4-0.8-0.6c-0.1-0.2-0.1-0.5-0.3-0.6c-0.2-0.2-0.5-0.2-0.8-0.3
		c0,0-0.2,0.2-0.1,0.3c0.2,0.2,0.4,0.5,0.6,0.6c0.2,0.1,0.4,0,0.7,0C880.3,447.2,880.5,447.4,880.7,447.7z M492.6,152
		c0-0.1,0-0.2-0.1-0.2c0,0-0.1-0.1-0.1-0.1C492.5,151.7,492.6,151.8,492.6,152c0.8,0.6,0.9,0.6,1.4-0.2c1.2,0.3,2.4,0.2,3.7-0.6
		c-0.3-0.7-0.6-1.3-0.8-1.9c-0.5-0.1-0.9-0.1-1.4-0.1c-0.6,0-1.1,0.1-1.7,0.1c0.1,0.9,0.2,1.8,0.3,2.6
		C493.6,151.9,493.1,151.9,492.6,152z M634.3,471.7c1,0.3,1.9,0.5,2.9-0.3C636.2,471.1,635.2,470.8,634.3,471.7
		c-0.1,0.2-0.2,0.3-0.4,0.4c0.1,0,0.2,0.1,0.2,0.1C634.2,472.1,634.3,471.9,634.3,471.7z M498.8,148.5l0.1,0.1L498.8,148.5
		c0-1.5,0-1.5-1.1-1.6C497.9,147.6,498.3,148.1,498.8,148.5z M856.6,474.5c1.4-0.2,1.4-0.2,2.3-1.2C858,472.7,858,472.7,856.6,474.5
		c0,0.1-0.1,0.2-0.2,0.2c0,0,0,0.1,0,0.2C856.5,474.7,856.5,474.6,856.6,474.5z M887,453.1c0,0.3,0.1,0.6,0.1,0.4
		C887.2,453.7,887,453.4,887,453.1c-0.6-2.4-0.6-2.4-1.9-3.1C885.7,451.3,885.9,452.4,887,453.1z M884.2,482.7l0,0.2L884.2,482.7
		c-0.6-0.4-1.2-0.8-1.9-1.4c-0.4,0.6-0.6,1-1.1,1.9C882.6,482.9,883.4,482.8,884.2,482.7z M533.2,281.2c-1.6,0.1-3.2,0.2-4.8,0.4
		c-0.3,0-1,0.2-0.6,0.8c1.7-0.3,3.3-0.5,4.9-0.8C532.9,281.6,533,281.3,533.2,281.2c1.4,0.1,1.4,0.1,2.1-0.4
		C534.5,280.3,533.9,280.7,533.2,281.2z M849.7,475.9c-0.2-0.2-0.4-0.5-0.7-0.7c-0.3-0.2-0.6-0.7-1.1-0.2c0.1,1.2,0.5,2.4,1.2,3.3
		c0.3,0.4,0.9,0.6,1.3,0.9c0,0.3,0,0.6,0.1,0.9c0.4,0.9,0.8,1,1.9,0.5c0.4-0.3,0.8-0.6,1.2-0.9c4.2,4.2,4.2,4.2,6.9,4.1
		c0-0.3,0.1-0.7,0.1-1l-0.1,0.1c1.1,0,1.4,1.2,2.4,1.5c0.4,0.1,0.7,0.2,1.2,0.4c0-0.6-0.1-0.9-0.1-1.2l0.2-0.2
		c0.9,0.1,1.4,1.5,2.5,1c-1-4.6-2-9.1-3-13.5c-0.8,0.1-0.9,0.5-0.7,1c0.7,1.6,0.2,2.8-0.8,4.1c-0.9,1.2-2.1,1.7-3.5,1.9
		c-1.3,0.2-2.7,0.5-4.4,0.8c-0.7-0.4-1.6-1-2.6-1.6c-0.5-0.2-1-0.3-1.5-0.4C850.2,476.4,850,476.2,849.7,475.9z M510.7,171.7
		c0,0.7,0.1,1.4,0.1,2.4C511.4,173.1,511.2,172.4,510.7,171.7c-0.1-0.3-0.1-0.6-0.1-0.9c-1-4.7-2-9.4-3-14c-0.1-0.5-0.5-1-0.7-1.4
		c-0.9,0.1-1.1,0.6-0.9,1.2c1.4,4.9,2.8,9.9,4.2,14.8C510.2,171.5,510.5,171.6,510.7,171.7z M563.5,326c0.7,1.3,0.8,1.7,0,2.3
		c-0.8,0.6-1.7,1-2.7,1.7c0.7,1.3,1.4,2.5,2,3.7c1.3,2.6,2.5,5.1,3.8,7.7c0.3,0.6,0.7,1.2,1,1.8c2.9,6.3,5.8,12.7,8.8,19
		c1.6,3.5,3.8,6.5,5.9,9.6c0.4,0.5,0.9,0.9,1.4,1.4c0.5-0.3,0.8-0.8,1.2-0.8c1.2,0,2.2-0.7,3-1.4c1.4-1.2,2.7-2.4,4.2-3.6
		c1.1-0.8,1.6-1.9,1.6-3.3c-1.5-0.9-3.1-1.8-4.5-2.9c-2.9-2.3-4.7-5.3-4.8-9.1c0-1.3,0.2-2.6,0.9-3.6c0.9-1.2,0.5-2.7,0.8-4
		c0.3-1.2,0.8-2.4,1.3-3.5c0.3-0.6,0.7-1.2,1-1.8c0.1-0.3,0.2-0.6,0.6-1.6c-1.4,1.5-2.4,2.6-3.2,3.5c-1.1-0.1-1.5-0.8-1.3-1.4
		c0.2-0.9,0.7-1.7,1.2-2.4c0.5-0.9,1.2-1.6,2-2.6c-1.1-0.4-2-0.7-2.7-0.9c-0.9,0.9-1.6,1.6-2.4,2.2c-0.8,0.6-1.7,1.2-2.6,1.7
		c-0.9,0.5-1.8,1.1-2.8,1.4c-1,0.2-1.3,1.6-2.5,1.6c0-0.5-0.1-0.8-0.1-1.2c0.4-2.2,1.8-3.7,3.5-4.9c0.7-0.5,1.7-0.7,1.9-1.9
		c-0.7-0.2-1.2-0.3-1.8-0.4c-0.6-0.1-1.1,0-1.7,0c-3.3,2.4-5.3,3.4-8.1,4.3c0.1-0.7,0.1-1.4,0.2-2.1c0.4-1.9,1.9-3,3-4.6
		c-0.8-0.4-1.4-0.7-2.2-1.1c-0.3,2.6-1.9,3.6-4,4.2c-0.9,0.3-1.7,0.5-2.6,0.8c0.6-2.7,1.9-4.8,4.7-6c-1.2-1.2-2.4-2.1-4-1.6
		c-0.1-0.7-0.2-1.3-0.2-2c-0.7-0.1-1.4-0.2-2-0.3c0-0.7,0-1.2,0-1.7c-0.9-0.8-1.7-1.6-2.5-2.4c-1.4-1.4-2.7-2.7-2.8-4.9
		c-0.1-1.2-0.7-2.5-1.8-3.2c-0.4-0.3-1-1.1-1.7-0.4c1.3,2.8,2.6,5.6,4,8.3c1.4,2.7,2.1,5.7,4,8.3C561.4,327.2,562,325.9,563.5,326z
		 M856,495.2c0,0.3,0,0.7,0.1,1.1c0.3,0.1,0.7,0.3,1,0.2c4.3-1.3,8.8-1.1,13.3-1.8c0.9-0.1,1.8,0,2.7,0.2c1.5,0.2,2.9,0.6,4.4,0.8
		c1.8,0.2,3.7,0.4,5.5,0.2c2.2-0.1,4.3-0.7,5.5-2.8c-0.1-0.1,0.3,0.4-0.1,0.1c0.7-0.9,1.4-1.8,2.1-2.7c0.8-1.1,1-2.3,0.4-3.5
		c-0.6-1.3-1.8-2-3.7-2.3c0.6,0.7,1.3,1.3,1.9,2c0.9,1.2,1.1,2.5,0.2,3.8c-0.5,0.7-1.1,1.5-1.8,2c-1.5,1.1-3.3,1.6-5.1,1.4l0.1,0.1
		c0.6-1.2,2-0.8,2.8-1.5c0.7-0.7,1.6-1.3,2.2-2.1c0.6-0.8,0.5-1.8,0-2.8c-0.1,1.3-0.3,2.6-1.8,3c0.2-0.9,0.7-1.8-0.1-2.6
		c-0.6-0.6-1.4-1.1-2.2-1.4c-0.8-0.3-1.8-0.2-2.7-0.4c-0.2,0-0.3-0.3-0.4-0.4c0.1-0.4,0.1-0.8,0.3-1.6c-0.7,0.4-1.1,0.6-1.5,0.8
		c0.4,1,0.8,1.8,1,2.7c0.1,0.8-0.1,1.7-0.2,2.7c2.2,0,4.1,0,6,0c-0.1,0.8-0.7,1.2-1.4,1c-1.8-0.5-3.6-0.1-5.4,0.3
		c-2,0.5-3.9,1-5.9,1.5c-3.7,1-7.5,1.5-11.4,1.3c-1.4-0.1-2.7,0-4.1,0c-0.7-1.1-1.8-0.7-2.8-0.6c-1.2,0-2.6,0.5-3.7,0.2
		c-3-0.7-5.9,0.1-8.8,0.6c-1,0.2-2.2,0.4-3,1.8c3.6-0.3,6.9-1,9.7-1.9c0.9,0.4,1.3,0.8,1.8,0.8C852.4,495.5,854.2,495.3,856,495.2z
		 M863.5,486.3c-2.3-0.1-4.6-0.1-6.7-1c-0.7-0.3-1.5,0-2.3,0c-0.4,0-0.9,0-1.3,0c-1.9,0-3.9-0.2-5.8,0c-4.4,0.5-8.8,1.2-13.3,1.8
		c-3.2,0.4-5,2.2-6,5.2c1.2,0.8,2.3,0.6,3.4,0.2c1.8-0.7,3.7-1.3,5.5-1.8c1.5-0.4,3.1-0.8,4.7-0.8c1.6,0,3.2-0.1,4.7-0.4
		c1.3-0.2,2.7-0.3,4.1-0.4c4.8-0.2,9.6,0.3,14.3,1.6c1.8,0.5,3.6,0.6,5.4,0.5c1.5-0.1,3-0.1,4.5-0.3c1.2-0.1,2.4-0.3,3.7-0.5
		c0.3-2,0.4-3.6-1.6-4.6c-1,0.3-1.9,0.6-2.8,0.8c-0.2,0.5-0.4,0.9-0.5,1.3c-0.3-0.4-0.6-0.7-0.9-1.1c-1.2,0.2-2.5,0.5-3.7,0.7
		c-1.1,0.2-2.3,0.3-3.4,0.3C864.5,487.7,863.8,487.2,863.5,486.3c1.4-0.2,2.8-0.2,4.2-0.3c-1.2-0.3-2.5-0.2-3.7-0.1
		C863.9,485.9,863.7,486.2,863.5,486.3z M508.6,194.6c-0.2-0.6-0.6-1.2-0.7-1.8c-1.1-9-2.6-17.9-4.3-26.8c-0.8-4.1-2-8.2-3.3-12.3
		c-1.5,0.2-2.8,0.3-4.2,0.5c-0.5,0.1-1,0.4-1.5,0.6c0.8,2.6,1.6,5,2.1,7.4c0.7,3.6,1.2,7.2,1.8,10.8c0.6,3.6-0.5,7.3,0.2,10.9
		c0.1,0.5-0.1,1.1-0.3,1.7c-0.2,0.9-0.4,1.8-0.7,2.7c-1.6,6.1-1.5,12.2-0.5,18.4c0.5,3.2,2.1,5.8,4.6,7.8c2.2,1.7,4.6,3,7.1,4.1
		c1.2-0.5,2.4-0.9,3.6-1.5c0.3-0.1,0.4-0.5,0.8-0.9c-0.4-0.7-0.8-1.3-1.2-2c-2.8-4-4.2-8.4-4-13.2c0.1-2.2,0.1-4.3,0.2-6.5
		c0.7-0.1,1.4-0.2,1.8,0.5c-0.7,9.9-0.1,12.9,2.9,16.5c0.3-2.4-0.1-4.7-0.3-6.9c-0.1-2.3-0.3-4.6-0.3-6.9c0.1-2.3-1-4.4-0.6-7.2
		c1,1.5,1.1,2.7,1.2,3.9c0.2,2.2,0.6,4.3,1.6,6.3c0.3,0.5,0.3,1.1,0.5,1.6c1.8,5.9,3.6,11.8,5.4,17.7c0.1,0.4,0.2,0.9,0.4,1.3
		c1.9,2.6,2.4,5.7,3.1,8.7c3.4,13,7,25.8,11.8,38.4c0.9,2.2,1.4,4.6,2.2,6.9c0.2,0.5,0.4,1,1,2.2c0-1.3,0.1-1.9,0-2.4
		c-1.2-4.5-2.4-9.1-3.6-13.6c-1.5-5.5-3-11-4.6-16.5c-2-7.2-3.7-14.4-6.2-21.4c-3.3-9.2-6.2-18.5-9.2-27.7c-2.7-8.3-5.5-16.5-7.6-25
		c-1.4-5.7-2.7-11.4-4.1-17c-0.1-0.3-0.3-0.6-0.6-1c-0.6,0.2-1.3,0.3-2,0.5c1.7,4.4,3,8.8,3.9,13.3c0.9,4.6,1.7,9.2,2.4,13.9
		C508.5,185.2,508.9,189.9,508.6,194.6z M726,400.2c-0.5-0.2-1.1-0.3-1.5-0.6c-0.7-0.5-1.3-1.2-1.9-1.8c-0.3,0.3-0.5,0.4-0.6,0.6
		c-1.8,5.7-4.4,11-7.1,16.3c-0.8,1.6-1.5,3.3-2,5.1c-1,3.8-2.7,7.3-5.2,10.3c-0.3,0.4-0.5,0.9-0.9,1.5c0.6,0.1,0.9,0.2,1.2,0.2
		c5.3,0.3,10.3,1.8,15.1,4.2c3.2,1.7,6.4,3.6,9.8,5c2,0.8,3.6,2,5.1,3.4c2,1.9,3.9,3.9,5.8,5.8c0.5,0.5,1.2,1,1.8,1.7
		c1.8-1.8,3.3-3.7,4.6-5.7c1.6-2.4,3.4-4.7,4.4-7.3c2-4.8,4.3-9.3,6.9-13.8c2-3.5,4-7,5.9-10.4c0.6-1.1,1.4-2.1,1-3.7
		c-1.8-1.7-3.8-3.4-5.6-5.4c-1.8-1.9-3.8-3.2-6.2-4.3c-1.5-0.6-2.9-1.3-4.5-1.8c-5.3-1.6-10.2-3.9-15.2-6.4c-1.5-0.8-3.1-1.5-4.7-2
		c-2.5-0.7-4.6-2-6.6-3.5c-0.6-0.5-1.3-0.8-2.1-1.4c0,1.4,0,2.4,0,3.4c-0.1,1.1-0.2,2.3-0.4,3.4c-0.3,1.6,0.1,2.9,1,4.2
		C724.8,398.3,725.3,399.3,726,400.2L726,400.2z M718.4,383L718.4,383c0.5-0.7,0.7-1.5,0.3-2.5c-1-2.4-2.1-4.8-2.8-7.4
		c-0.8-3-1.3-6.1-1.7-9.1c-0.5-4-0.9-8-1.3-12c-0.4-4.6-0.9-9.1-2.3-13.5c-1.2-3.8-2.4-7.7-3.6-11.5c-3.8-11.4-8.8-22.4-13.7-33.4
		c-0.9-2.1-1.9-4.1-2.9-6.2c-1.9-4.1-5.6-6.3-9.6-7.8c-1.9-0.7-3.9-0.9-5.8,0.6c-0.8,0.6-2.1,0.7-3.3,0.9c-2.5,0.3-4.9,1.2-7,2.6
		c-2,1.3-4.1,2.5-6,4c-4.6,3.8-9.8,6.7-15,9.7c-3.6,2.1-6.9,4.5-9.8,7.5c-1.6,1.7-3.3,3.2-4.9,4.8c-1.2,1.2-2.5,2.4-3.5,3.7
		c-2.8,3.7-6.2,6.8-9.7,9.7c-2.1,1.8-4.3,3.5-6.4,5.2c-2.2,1.6-4.8,2.6-6.5,4.9c-0.1,0.2-0.4,0.3-0.6,0.4c-2,0.9-3.9,2-6,2.5
		c-2,0.5-3.6,1.4-4.7,3.1c-0.5,0.8-1.1,1.4-1.6,2.2c-1,1.4-1.8,2.9-1.4,4.8c0.1,0.4,0.1,0.9-0.1,1.4c-0.6,1.6-0.9,3.3-0.7,5
		c-1,1.8-0.2,3.3,0.7,4.8c3,0.7,5.4,3.1,9,2.7c0.8-0.7,1.9-1.4,2.6-2.4c0.7-1.1,1.7-1.8,2.8-2.5c1.4-1,3-1.8,4.2-3
		c4.9-4.8,10.5-8.5,16.7-11.2c2.1-0.9,4.2-1.8,6.3-2.9c1.7-0.9,3.3-2,5.1-2.7c2.6-1,5.2-1.7,7.8-2.5c2.6-0.8,5.3-1.5,7.9-2.3
		c1.1-0.3,2.1-0.9,3-1.6c3.2-2.7,6.3-5.7,9.6-8.3c3.2-2.5,4.6-5.9,5.4-9.7c0.4-1.8,0.5-3.6,0.8-5.4c0.1-0.7,0.2-1.5,0.3-2.9
		c0.8,2.1,0.8,3.6,0.7,5c-0.2,2.5-0.7,5-1.5,7.4c-0.3,1-0.6,2-0.8,3c-0.3,1.6-0.5,3.1-0.8,4.7c-0.3,1.6-0.6,3.2-0.7,4.7
		c-0.5,6.1-0.9,12.1-1.3,18.2c-0.4,5.5-0.8,11-1.1,16.5c-0.2,3.1-0.8,6.1,0.6,9.1c0.3,0.7,0.3,1.6,0.3,2.4c0,1.6,0,3.2,0,4.8
		c0,3,0,5.9,0,9c1.1,0.3,2.1,0.5,3.7,0.8c-1.8,0.3-2.9,0.5-3.8,0.7c-0.2,0.3-0.3,0.4-0.3,0.5c-0.4,5.3-0.5,10.5,0.8,15.7
		c0.8,3.3,1.9,6.6,3,9.9c0.4,1.3,1,2.5,1.6,3.8c1.7,3.4,4.2,5.9,7.7,7.5c4.7,2.1,9.5,4,14.5,5.1c1.7,0.4,3.4,0.5,5.1,0.5
		c2.3-0.1,4.5-0.2,7-0.3c1.4-1.5,2.6-3.2,3-5.4c0.1-0.7,0.5-1.3,0.7-1.9c1.7-4.7,4-9,6.2-13.4c2.6-5.2,5-10.5,6.7-16.1
		c0.9-3.1,1.3-6.2,1.2-9.5c-1-0.7-1.8-1.4-2.8-2C719.3,382.9,718.8,383,718.4,383z M512.5,219.9c0.1,0.7,0.2,1.4,0.3,2.1
		c0.6,2.6,1.3,5.1,1.7,7.7c2,10.7,4.9,21.2,7.9,31.6c1.6,5.7,3.3,11.4,4.2,17.3c0.1,0.7,0.4,1.3,0.6,2c1.9-0.6,3.6-1.1,5.3-1.6
		c0.9-2.2,3.4-1.2,4.7-2.3c-2.6-7.1-5.2-14.1-7.8-21.1c0-0.1-0.1-0.2-0.2-0.3c-0.1-0.1-0.2-0.1-0.5-0.3c-1.5,0.2-3.1,1-5.3,0.3
		c2.1-0.6,3.7-1.1,5.4-1.7c-0.7-2.5-1.4-4.7-2.1-7.1c-1.7,0-3.1,0-4.7,0c0.3-0.3,0.4-0.6,0.5-0.6c1.2-0.3,2.4-0.6,3.7-1
		c-0.5-2.4-0.9-4.7-1.6-7c-1-3.7-1.2-7.7-3.6-11c-0.1-0.2-0.2-0.4-0.2-0.6c-0.9-2.5-1.8-4.9-2.7-7.4c-0.3-0.7-0.7-1.4-1-2.2
		C515.6,217.9,514.1,218.9,512.5,219.9z M666.3,321c-0.7,0.8-1.3,1.6-2.1,2.3c-1.7,1.4-2.4,3.3-2.4,5.4c0,4.6-0.2,9.2-0.3,13.7
		c-0.1,8.2-0.2,16.5-0.3,24.7c0,0.9,0,1.8,0.1,2.7c0.1,1,0.2,2,0.4,3.1c0.1,0.8,0.3,1.5,0.4,2.2c0.3-1.2,0.3-2.3,0.3-3.5
		c0.1-9,0-18.1,0.8-27.1C664,336.8,664,328.9,666.3,321z M514.4,175c2.8,13,7,25.6,10.9,38.2c0.1,0.3,0.4,0.5,0.6,0.8
		c0.2-0.2,0.4-0.4,0.4-0.5c0-0.7,0-1.4,0-2.1c-0.4-4.9-1.3-9.7-2.9-14.4c-2.3-7-5.1-13.7-8.1-20.4C515.1,176,514.7,175.5,514.4,175z
		 M566.1,325.6c0.2-2.2-0.3-3.6-0.7-5c-0.9-2.9-1.8-5.9-2.6-8.8c-0.3-1.2-0.7-2.1-1.9-2.7c-0.4-0.2-0.8-0.5-1.1-0.8
		c-1-0.9-2.2-1.1-3.5-0.8c-0.8,0.2-1.6,0.3-2.3,0.6c-0.3,0.1-0.6,0.5-1.1,0.9c0.7,0.4,1.2,0.8,1.7,0.9c1.5,0.4,2.2,1.5,2.8,2.8
		c0.3,0.8,0.4,1.8,0.7,2.6c0.2,0.7,0.5,1.5,1,2.1c1.7,1.8,3.4,3.7,5.6,4.6C565.3,323.1,564.9,324.4,566.1,325.6z M536.6,285.2
		c-3.9,1.3-4.6,1.4-6.5,1.1c1.7-1.3,4-1.2,6.2-3.1c-3.3,0.4-5.9-0.1-8.6,0.4c0.4,2.4,0.8,4.6,1.3,6.9c0.8,0.4,1.6,0.9,2.2,1.2
		c2.4-0.2,4.5-0.4,6.8-0.6C538.3,288.9,537.1,287.3,536.6,285.2z M810.8,429.8c-0.3,0.6-0.6,1-0.6,1.4c0,1.7-0.1,3.4,0.1,5.1
		c0.1,1.4,0.4,2.8,0.9,4c1.1,2.6,2.4,5.2,3.6,7.8c0.2,0.4,0.5,0.8,1.1,1.7c-0.9-4.8-1.7-9.1-2.4-13.4C813,434,812.1,432,810.8,429.8
		z M861.9,491.4c-5.8-1.3-11.4-1.5-16.9-0.3c-0.7,0.1-1.4,0.2-1.6,1.2c5.9,0.2,11.8,0,17.7-0.2C861.3,492.1,861.5,491.8,861.9,491.4
		z M515.7,215.8c0.8-0.1,1.4-0.1,2.3-0.2c-0.8-2.1-1.5-4-2.3-6.2C515.7,211.7,515.7,213.7,515.7,215.8z M535,278.7
		c0.4,0.3,0.6,0.6,0.7,0.6c1.1-0.3,1.7,0.2,2,1.2c0.1,0.4,0.5,0.7,0.8,1.1c0.9-0.2,1.7-0.4,2.7-0.7c-0.4-0.9-0.7-1.6-1.1-2.6
		c-0.8,0.8-1.4,1.1-2.3,0.4C537.1,278.2,536,278.6,535,278.7z M590.2,331.1c-1.6-0.2-3.2-0.1-4.7-1c-0.5-0.3-1.4,0-2.1,0.1
		c1.2,0.7,2.4,1,3.6,1.3c1.3,0.3,2.3,1.5,4.1,1.3C590.8,332.1,590.5,331.6,590.2,331.1z M887.7,462.2c0,1,0,2,0,3c0,1-0.1,2,0.3,2.9
		C888.1,466.2,888.3,464.2,887.7,462.2z M732,476.9c2.6,0.6,4.5,0.4,7.1,0C736.5,476.5,734.7,476.6,732,476.9z M840.4,490.9
		c-1.8,0.5-2.9,0.8-4.5,1.2C837.7,492.7,838.8,492.5,840.4,490.9z M839.2,493.9c0.1,0.1,0.3,0.3,0.4,0.4c0.5-0.3,1-0.5,1.5-0.8
		c-0.1-0.1-0.1-0.3-0.2-0.4C840.3,493.4,839.8,493.6,839.2,493.9z M866.2,492.6c0,0.1,0,0.2,0,0.3c0.7,0,1.4,0,2.2,0
		c0-0.1,0-0.2,0-0.3C867.6,492.6,866.9,492.6,866.2,492.6z M641.5,470.2c-0.8-0.4-1.5-0.2-2.1,0.5
		C640.3,471.3,640.8,470.4,641.5,470.2z M887.2,459.4c0.1,0,0.1,0,0.2,0c0-0.4,0-0.8,0-1.3c-0.1,0-0.1,0-0.2,0
		C887.2,458.6,887.2,459,887.2,459.4z M488.5,146.6c0,0.1,0,0.3,0,0.4c0.5-0.1,1-0.1,1.5-0.2c0-0.1,0-0.2,0-0.3
		C489.5,146.5,489,146.5,488.5,146.6z M486.9,150.2c0.5,0.3,0.6,0.9,1.3,0.6c0.1,0,0.1-0.5,0-0.6C488,149.7,487.5,149.7,486.9,150.2
		z M886.5,455.9l0.1,0.2l0.1-0.2L886.5,455.9z M871.9,492.2l-0.2-0.1l0,0.1L871.9,492.2z M871.6,462.6c-0.2,0.1-0.3,0.2-0.3,0.2
		c0,0.1,0.1,0.2,0.2,0.3C871.5,463,871.5,462.9,871.6,462.6z M861.8,466.8l-0.1,0.2l0.1,0L861.8,466.8z M837.1,497l0.1-0.2l-0.2,0
		L837.1,497z M503.3,150.2l0.1-0.2l-0.2,0L503.3,150.2z"/>
	<path d="M416.3,473.9c-0.2-0.7-0.2-1.3-0.5-2c-1.9-4.7-4.1-9.2-5.5-14.1c-0.5-1.5-1.1-3-1.8-4.4c-2-3.7-3.3-7.8-5-11.7
		c-1.1-2.4-2.5-4.6-3.9-6.8c-0.5-0.8-1.4-1.6-2.2-2.1c-3.9-2.5-8-4.4-12.6-5.3c-3-0.6-5.9,0.2-8.7,1.1c-0.7,0.2-1.3,0.9-2,1.4
		c-0.7,0.6-1.4,1.2-2,1.8c-4.9-0.6-8.8-2.2-11.9-4.9c0.5-0.8,1.2-0.3,1.8-0.1c2.7,0.9,5.4,2,8.1,2.9c0.4,0.2,0.9,0.2,1.5,0.4
		c0.4-0.3,1-0.6,1.3-1c2.8-3.2,6.6-4,10.5-4.4c3.1-0.4,6.1,0.8,8.8,2.5c1.1,0.7,2.1,1.4,3.2,2c3.6,1.7,6.1,4.5,7.6,8.1
		c1.6,3.9,3.9,7.2,6.7,10.3c1.5,1.7,2.6,3.7,3.9,5.6c0.3,0.5,0.6,1,1.1,1.6c2.8,0.6,5.6,1.2,8.6,0.2c0.7-0.3,1.6-0.2,2.4-0.3
		c1.7-0.1,3.4-0.3,5.2-0.8c0-1.4,0.3-2.8-0.2-4.1c-0.8-2.4,0-4.6,0.6-6.7c0.6-2.2,2.3-3.1,4.6-2.6c1.2,0.3,2.2,0.5,3.2-0.3
		c0.3-0.2,0.9-0.2,1.3,0c0.9,0.5,1.7,0.4,2.5-0.3c0.3-0.3,1.1-0.2,1.6-0.2c0.8,0,1.6,0.2,2.4,0.3c0.5-0.6,0.8-1.2,1.3-1.7
		c1.3-1.4,2.5-1.5,4.2-0.5c1.5,0.9,3,1.7,4.5,2.4c0.9,0.4,2,0.5,2.5-0.7c0.4,0.3,0.7,0.5,1,0.7c0.2-0.1,0.5,0,0.6-0.2
		c2.5-1.8,5.2-1.8,7.8-0.8c3,1.1,5.9,2.5,8.9,3.7c3.4,1.4,5.7,3.9,6.9,7.2c1.4,3.9,2.8,7.8,3.2,11.9c0.4,4,0.5,8-0.4,12
		c-0.4,1.7-1.1,3.2-2.3,4.5c-1.2,1.3-2.2,2.9-3.4,4.5c0.6,0.5,1.1,1.1,1.6,1.3c1.1,0.5,2.4,0.8,3.5,1.4c1,0.5,2,1.1,2.8,1.9
		c1.2,1.2,1.7,2.7,1.3,4.4c-0.2,1-2.4,4.8-3.2,5.5c-2.6,2.2-5.6,3.5-9.1,3.4c-2.8,0-5.5-0.2-8.2-1c-2.8-0.9-5.6-0.9-8.5-0.5
		c-4,0.6-7.8,1.6-11.5,3.3c-3.1,1.4-6,3.3-7.9,6.1c-1-0.5-0.9-1.2-0.6-1.8c0.4-0.8,1-1.6,1.7-2.1c1.4-1.1,3-2.1,4.5-3.1
		c1.1-0.7,2.2-1.2,3.3-1.8c2.2-0.5,4.4-1.1,6.7-1.4c2.8-0.4,5.7-0.5,8.5-1c1.7-0.3,3.4-0.2,5.1,0.1c2.7,0.5,5.4,1.1,8.2,0.9
		c2.2-0.1,4.3-0.4,5.9-2.1c0.3-0.1,0.5-0.2,0.8-0.4c-0.3-0.1-0.6-0.2-0.8-0.3c0-0.3,0-0.5,0-0.8c0.5,0.1,0.8-0.1,0.7-0.7
		c0.5,0.2,0.7-0.1,0.7-0.6c1.3-0.3,1.6-1.5,1.8-2.6c0.1-1.1-0.4-2-1.2-2.7c-1-0.8-2-1.5-3.3-1.5l-0.1-0.1l0.2,0.1
		c0.3,0.3,0.5,0.8,0.8,1c1.8,1.3,2.5,3.1,1.8,5.3c-0.1,0.2,0,0.4,0,0.7c-0.5-0.1-0.7,0.3-0.7,0.7c-0.2,0.2-0.5,0.5-0.7,0.7
		c-2,0.6-3.9,1.9-6.2,1.3l0.1,0.1c1-0.5,2-0.9,2.9-1.4c1.6-0.8,2.6-2,3-3.8c0.1-0.4,0-0.9-0.6-1c0-0.3-0.1-0.5,0-0.4
		c-0.1-0.2,0,0.1,0.1,0.3c0,1.9-1.2,2.8-2.6,3.8c-2.2-0.6-4.3-0.3-6.4,0.4c-6.7,2-13.5,3.2-20.5,2.6c-1.4-0.9-2.9-0.6-4.3-0.4
		c-1.1,0.2-2.2,0.2-3.4,0c-3.4-0.4-6.8,0.2-10,1.5c-0.3,0.1-0.5,0.4-1.3,0.9c3.9,0,7-0.8,10.3-1.9c1.4,1.2,3,1.1,4.7,0.6
		c1.3-0.3,2.7-0.6,4-0.9c-1.1,0.9-2.2,1.8-3.7,2c-0.2,0-0.4,0.7-0.6,1c-1.4-0.2-2.7,0-4,0.6c-3.9,1.8-7.5,4-10.9,6.4
		c-1,0.7-2,1.4-3,2.1c-0.8-0.6-0.3-0.9,0-1.2c2.2-2.2,4.8-3.9,7.5-5.5c1.1-0.6,2.2-1.2,3.1-2.3c-2-0.6-3.5,0.2-5,1.1l0.1,0.1
		c-0.5-0.7-1.1-0.7-1.8-0.6c-4.1,1.1-8.2,1.9-11.7,4.5c-0.5-0.4-0.5-0.9-0.1-1.2c0.9-0.7,1.8-1.4,2.9-1.9c1.5-0.7,3.2-1.3,4.9-2
		c0.5-1.1,1-2.4,1.5-3.8c-1.6-0.3-3,0-4.4,0.2c-1.6,0.2-3.1,0.7-4.7,1.1c-1.4,0.4-2.6,1.3-4.6,1.3c0.9-1,1.5-1.6,2.1-2.4
		c-2.1-0.1-4.1-0.2-6-0.2c-0.4,0-0.9,0-1.3,0.2c-4.6,2-9.5,2.3-14.3,3.3c-2.5,0.5-5,0.6-7.4,1.2c-1.7,0.5-3.6,0.4-5.5,0.5
		c-5,0.3-10.1,0.8-15.1,0.8c-5.3,0-10.5-0.3-15.7-1.5c-1.3-0.3-2.7-0.7-4-0.2c-4.6-0.4-9.1,0.3-13.7,0.4c-0.8,0-1.6-0.1-2.4-0.1
		c-1.3,0-2.5,0.2-3.7,0.6c-2.2,0.7-4.4,1.4-6.7,1.6c-6,0.7-12.1,1.3-18.2,0.5c-0.3,0-0.7-0.1-1-0.1c-4.1,0.9-8.2,0.5-12.3,0.7
		c-3.3,0.1-6.6,0.3-10,0.3c-4,0-8,0-12-0.2c-2.1-0.1-4.1,0.2-5.8,1.5c-1.4,1.1-3.2,1.3-4.9,1.5c-4.6,0.5-9.1,1.1-13.6-0.4
		c-0.2-0.1-0.5-0.1-0.7-0.1c-3.5-0.1-7.1-0.1-10.7-0.1c-0.9,0-1.8,0.1-2.7,0.2c-0.5,0-0.9,0.2-1.4,0.2c-3.1,0.4-6,0.2-8-2.3
		c-2.2-0.2-4.3-0.2-6.3-0.5c-2-0.2-3.3-1.4-3.7-3.6c1.3-1,2.5-1.9,4.3-1.9c2.2,0,4.3-0.5,6.5-0.1c0.3,0.1,0.7,0,1-0.1
		c3.7-0.9,7.4-1,11.2-1.3c0.9-0.1,1.8-0.3,2.7-0.5c0.7-0.1,1.4-0.3,2-0.2c1.3,0.3,2.5,0.1,3.7-0.2c3.9-0.8,7.8-1.3,11.6-2.5
		c2-0.7,4.3-0.8,6.4-1.2c2.2-0.3,4.3-0.7,6.2-1.7c1.4-0.7,3-0.9,4.7-0.9c4.2-0.1,8.5-0.1,12.7-0.7c6.6-1,13.1-2.1,19.4-4.3
		c3.4-1.2,7-2.2,10.5-3.4c0.8-0.3,1.7-0.6,3-1c-3.2-0.3-5.8-0.5-8.4-0.8c-5.3-0.6-10.4-1.8-15.3-3.8c-1.1-0.4-2-0.8-3.2-0.1
		c-0.6,0.4-1.5,0.3-2.3,0.3c-2.3,0-4.6-0.2-6.9-0.2c-3.4,0-6.9,0-10.3,0.2c-1,0-1.9,0.6-2.9,1c-1.5,0.6-2.9,1.4-4.4,2
		c-2.6,0.9-5.4,1.4-8.1,0.6c-3-0.9-5.9-0.4-8.8,0.2c-0.6,0.1-1.3,0.2-2.2,0.3c0.3-0.6,0.4-1,0.6-1.1c3.3-1.4,6.9-1.5,10.5-1.6
		c0.1,0,0.2,0,0.3,0.1c3.8,1.6,7.2,0.2,10.4-1.7c2-1.2,4-2.1,6.4-2c2,0.1,4.1-0.2,6.2-0.3c-0.2-0.6-0.3-1-0.5-1.3
		c1.6-0.7,2.1,0.7,3,1.8c1.9,0,3.8,0.1,5.7,0.1c0.9,0,1.8-0.1,2.7,0.1c6,1,11.9,2.2,17.9,3.1c2.9,0.5,5.9,0.7,8.9,0.9
		c1.2,0.1,2.5,0.1,3.7-0.4c0.7-0.3,1.6-0.2,2.4-0.2c2.6,0.1,5.3,0,7.9-0.3c1.8-0.2,3.6,0.1,5.4,0.3c0.5,0.1,0.9,0.6,1.4,0.9
		c0.5,0.3,0.5,0.3,2.3-0.1c-2-1.5-3.8-2.8-5.8-3.8c-0.3-0.2-0.6-0.3-0.9-0.5c-5.2-2.7-10.6-4.7-16.4-5.9c-3.6-0.7-7.1-1.8-10.6-2.9
		c-2.1-0.6-4.2-0.8-6.4-0.5c-4.9,0.7-9.8,1.2-14.6,2.3c-1.8,0.4-3.6,0.7-5.3,1.3c-3.5,1.1-7.1,1.7-10.8,1.6
		c-2.3-0.1-4.6-0.1-6.9-0.2c-0.3,0-0.8,0.1-1-0.1c-1.9-1.3-3.9-0.5-5.9-0.4c-2.1,0.1-4,0.6-5.9,1.5c-1.3,0.6-2.8,0.9-4.3,1.1
		c-1.7,0.3-3.4,0.5-5.1,0.7c-1.5,0.2-2.9,0.5-4.2,1.3c-0.9,0.5-1.9,0.7-2.9,1c-0.3,0.1-0.5,0.4-1,0.8c1.6,0.8,3,0.6,4.5,0.5
		c1.5-0.1,2.9-0.2,5-0.1c-0.7,0.6-1,1-1.3,1c-3.6,0.6-7.2,0.9-10.8-0.2c-1.5-0.5-2.3-1.7-3.8-2.2c1.1-1.7,2.3-2.7,3.7-2.7
		c1.3,0,2.5-0.3,3.6-0.8c0.6-0.3,1.3-0.2,2-0.3c1.7-0.3,3.4-0.6,5.1-0.8c1.5-0.2,3-1.2,4.6-0.1c0.4,0.3,1.1,0,1.7-0.1
		c2.5-0.6,5.1-1.3,7.6-1.9c0.2-0.8-0.5-0.6-0.8-0.8c-3.2-1.4-6.3-2.7-9.5-4.1c-4.3-1.9-7.7-4.8-10.2-8.9c-0.8-1.3-1.5-2.6-2.4-3.8
		c-0.6-0.8-1.2-1.7-1.9-2.4c-0.8-0.9-1.8-1.3-3.1-1.3c-7.7,0.1-15.2-1.6-22.7-3.4c-3.2-0.8-6.4-1.8-9.3-3.4
		c-0.8-0.4-1.6-0.8-2.6-0.7c-1.9,0.1-3.6-0.6-5.3-1.1c-4.7-1.6-9.3-3.2-14-4.8c-2.1-0.7-4.2-1.2-6.2-1.9c-2.5-0.8-5-1.7-7.5-2.5
		c-0.5-0.2-1.1-0.5-1.6-0.3c-4.7,1.2-9.4,0.7-14,0.2c-5.9-0.7-11.8-1.6-17.7-2.6c-4.5-0.8-8.8-2.4-12.9-4.6c-1.4-0.8-2.9-1.4-4.3-2
		c-0.4-0.2-1-0.4-1.3-0.2c-1.2,0.7-2.1,0-3.2-0.5c-3.1-1.5-6.2-3-9.3-4.4c-6.5-2.8-13.1-5.4-19.6-8.3c-2.5-1.1-4.9-0.7-7.4-0.6
		c-0.5,0-0.9,0.6-1.4,1.1c-3.3-2.2-5.9-4.9-6.8-9c-0.7-2.8-0.2-5.5,1.6-7.8c1.8-2.4,3.5-4.8,6.1-6.5c0.8-0.5,1.7-1,2.6-0.4
		c1.3,0.8,2.1,0.1,3.1-0.7c-0.1-1.4-0.6-2.5-2-3.2c-2.5-1.2-4.9-2.5-7.4-3.8c-0.8,0.6-1.6,1.3-2.5,1.8c-0.9,0.5-1.9,0.8-2.9,1.2
		c-1,0.3-2,0.6-2.9,0.9c-0.9,0.3-1.8,0.7-3,1.1c0.2-1.9,1.1-3.2,2.4-4.1c0.9-0.7,2-1.1,3-1.6c0.5-0.3,1-0.5,1.8-1
		c-1.4-0.6-2.4-1-3.5-1.4c-2.8,1.5-5.7,2.4-8.8,3c0.2-2.9,0.4-3.2,3.9-5.9c-0.4-0.5-0.8-1-1.2-1.4c-0.3,0.1-0.7,0.1-0.7,0.2
		c-0.5,1.6-1.8,2.3-3.3,2.6c-1.1,0.2-2.2,0.3-3.6,0.5c0.6-3.1,2.8-4.2,5.2-5.1c-0.8-1.5-2-2.3-3.5-2.6l0.1,0.1c0-0.3,0.1-0.7,0.1-1
		c0-0.2-0.2-0.4-0.3-0.7c-0.5-0.2-1-0.4-1.8-0.6c0.2-0.5,0.3-1,0.5-1.6c-0.9-1.3-1.8-2.6-2.7-3.9c-0.8-1.2-1.4-2.4-1.2-3.8
		c0.2-2.4-0.7-4.2-2.7-5.5c-0.7-0.4-1.3-0.9-1.9-1.2c-0.9,0.1-1.1,0.6-1.1,1.2c0,0.6,0.1,1.1,0.2,1.7c1.8,7.1,3.5,14.2,5.3,21.3
		c0.9,3.7,2,7.3,3.3,10.8c1.3,3.7,2,7.5,3,11.3c0.9,3.7,1.7,7.4,2.8,11c1,3.3,2.5,6.4,3.8,9.6c0.3,0.6,0.8,1.1,1.2,1.7
		c4.9-0.7,8.7-3.3,12.4-6.2c1.1,0.6,1.3,1,0.9,1.7c-1.1,1.7-2.4,3.1-4.1,4.1c-1.7,0.9-3.4,1.8-5.2,2.6c-7.4,3.1-15.4,4.4-23.3,5.7
		c-0.1,0-0.2-0.1-0.5-0.2c-0.1-0.3-0.3-0.7-0.4-1.1c-0.4-3.3-0.9-6.6-1.8-9.8c-1.3-4.5-2.5-9-3.6-13.6c-0.7-3-0.9-6.1-1.4-9.2
		c-0.5-3.2-1.3-6.3-2.5-9.3c-0.4-1.2-0.8-2.4-0.9-3.6c-0.1-2.7-0.6-5.2-1.2-7.8c-0.8-3.7-1.4-7.4-1.6-11.2
		c-0.2-3.8-0.8-7.5-1.6-11.2c-1.2-5.5-1.4-11.1-1.3-16.7c0-1.8,0.2-3.6-0.8-5.3c-0.3-0.5-0.3-1.3-0.3-2c-0.1-2.5-0.1-5-0.2-7.6
		c0-0.1,0-0.3,0-0.3c1.5-2.8,0.5-5.8,0.3-8.7c-0.3-5.1-0.8-10.3-1.2-15.4c-0.8-9.7-1-19.5-1.1-29.2c0-2.3-0.1-4.6-0.2-6.9
		c0-0.8-0.3-1.5-0.4-2.3c-2-0.8-4.5,0.3-6-1.8c0.2-0.2,0.2-0.4,0.3-0.4c0.4-0.2,0.9-0.3,1.3-0.4c-0.1-0.2-0.1-0.4-0.2-0.5
		c-1.3-1.3-2.7-2.5-3.9-3.8c-1.6-1.7-2.5-3.8-3-6.1c-0.2-0.7-0.3-1.4,0.3-2c0.5-0.6,0.5-1.2,0.4-1.9c-0.7-6.2,0.4-12.2,3.4-17.6
		c2.8-5,3.6-10.3,3.8-15.8c0.2-4.7,0.2-9.4-0.2-14.1c-0.3-2.5-1.5-4.4-2.7-6.6c-1.8,0.1-3.3-0.6-4.5-1.9c-0.3-0.3-0.8-0.3-1.2-0.5
		c-0.3-0.1-0.5-0.3-0.9-0.6c0.7-1.1,1.2-2.3,2-3.2c0.6-0.6,1.4-1.1,2.3-1.4c0.9-0.4,1.9-0.6,3-0.8c-3.1-15.5-3-31.1-3.7-46.6
		c0-0.3,0.2-0.6,0.3-0.9c0.9-0.1,1,0.5,1,1c0.9,6.9,1.9,13.8,2.8,20.8c0,0.1,0.1,0.2,0.3,0.5c3.3,0.5,6.8-0.3,10.2,0
		c0.6-2.3,0.6-7,0-10.6c-0.9,0-1.9-0.1-2.9-0.1c-1,0-2,0-3.2,0c0.8-1.3,1.9-0.8,2.8-0.9c1-0.1,2-0.1,3.1-0.2
		c0.7-1.2,0.4-2.5,0.4-3.7c-0.3-3.5-0.6-7.1-0.9-10.6c-0.1-0.6,0.1-1.1,0.8-1.3c0.2,0.4,0.4,0.7,0.4,1c0.9,6.5,1.8,12.9,2.6,19.4
		c0.4,3.6,0.5,7.3,0.6,11c0.2,6,0.2,11.9,0.2,17.9c0,1-0.1,2.1-0.3,3.1c-0.1,0.5-0.5,0.9-0.7,1.4c-0.9-0.2-1-0.8-1-1.3
		c-0.2-3.8-0.5-7.5-0.7-11.3c-0.1-0.9-0.1-1.8-0.1-2.9c-1.6-0.4-3.2-0.7-4.7-1.1c-1.4-0.4-2.8-0.7-4.3-1.1c0.1-0.9,0.9-0.7,1.3-0.6
		c2.5,0.5,5,0.4,7.6,0.7c0.1-0.7,0.2-1.1,0.2-1.5c0-1.7-0.1-3.4-0.2-5.2c-0.6-0.1-1-0.3-1.4-0.3c-2.4,0-4.8,0.1-7.1-0.8
		c-0.7-0.3-1.6,0-2.3,0c-0.5,2.3-0.3,6.5,0.5,12.7c0.5,4.1,1,8.2,1.4,12.3c0.9,0.4,1.7,0.6,2.3,1c1.2,0.8,2.5,0.9,3.9,0.9
		c1.1,0,2.3,0,3.4,0.1c1,0.1,2,0.3,2.9,1.3c0,2.5,0,5.1,0,8c0.4,0.3,1.1,0.6,1.5,1.2c0.3,0.5,0.4,1.3,0.4,2
		c0.2,3.5,0.4,7.1,0.7,10.6c0.1,0.9,0.1,1.8,0.4,2.7c2.6,8.7,4.8,17.4,6.2,26.4c0.5,3.2,0.8,6.4,1,9.6c0.4,4.7-0.6,9.1-2.6,13.3
		c-0.2,0.4-0.4,0.8-0.5,1.1c0.1,2.3,0.3,4.5,0.4,6.7c0.2,4.7,0.4,9.4,0.7,14.1c0.2,3,0.4,5.9,0.8,8.9c1.1,10.7,1.8,21.5,2,32.2
		c0,1.1,0.3,2,0.8,2.9c1.4,3.2,1.9,6.6,1.9,9.7c-0.7,1.2-1.4,0.6-2,0.6c0-0.4,0.1-1-0.1-1.3c-1.2-1.6-1.8-3.4-2.2-5.4
		c-1-0.3-1.9-0.7-2.8-1c-0.8,1.3-0.3,2.4-0.4,3.5c-0.1,1.2,0,2.6-0.4,3.7c-0.6,1.7-0.4,3.4,0.1,5c0.6,2.3,1.2,4.6,1.9,6.9
		c0.7,2.4,1.4,4.8,2.2,7.2c0.2,0.6,0.6,1,1.5,0.8c0-0.5,0.2-1.1,0-1.5c-1.4-4.6-1.6-9.4-1.9-14.2c-0.1-1.2-0.3-2.5,0.7-3.7
		c0.5,0,1-0.1,1.6-0.1c0.4,5,0.8,10,1.2,15.1c0.1,1.3,0,2.7,0,4.4c2.2-1.3,4.3-1.5,6.5-1.4c3.2,0.1,5,2,6.2,4.7
		c0.3,0.7,0.4,1.5,0.5,2.3c0.4,3.3,0.8,6.6,1.2,9.9c0.1,1,0.1,2.1,0.1,3.1c0.1,1.9,0.8,3.4,2.6,4.5c3.1,1.9,6.4,3.6,9.7,5
		c4.1,1.7,8.1,3.8,11.7,6.4c0.4,1.3,0.8,2.4,1.1,3.5c-0.3,1.5-0.6,2.8-0.9,4.2c1.9,1.1,3.8,1.9,5.8,2.3c7.1,1.4,14.2,2.7,21.2,4.1
		c2.2,0.4,4.5,0.7,6.6,1.7c0.5,0.2,1.1,0.2,1.7,0.2c7.6-0.2,15.1,0.4,22.6,1.5c2.2,0.3,4.3,0.6,6.5,0.8c1.2,0.2,2.5,0.2,3.6,1
		c0.5,0.4,1.3,0.4,2,0.4c1.8,0.1,3.7,0.1,5.5,0.1c3.3,0,6.6,0.6,9.8,1.7c1,0.4,2,0.5,3,0.4c0.6-0.1,1.2,0,1.7-0.1
		c5.5-0.9,10.7,0.1,15.9,1.6c0.7,0.2,1.3,0.5,2,0.5c6.6,0.3,13.2,1.1,19.9,0.4c9.2-0.9,18.5-2,27.8-1.8c7.5,0.2,14.9,0.7,22.2,2.1
		c5.5,1,11,2.2,16.4,3.6c5.3,1.4,10.6,3,15.7,5c3.9,1.5,7.8,2.5,11.9,3.2c0.9,0.2,1.9,0.3,2.6,0.9c1.3,1.1,2.8,1.4,4.3,2
		c4.4,1.7,8.9,3,13.5,3.9c4.1,0.8,8.2,1.1,12.3,0.1c2-0.5,4-0.7,6.1-0.3c1.9,0.3,3.9,0.5,5.8,0.6c3.5,0.2,6.6,1.8,10,2.4
		c1.3,0.3,2.7,0.5,4,0.9c0.4,0.1,0.8,0.3,1.4,0.5c-0.8,2.1-1.7,4.1-2.4,6.1c-1.1,3-2.4,5.9-3,9.1c-0.3,1.8-1.2,3.4-1.9,5.2
		c-2.4,6.3-4.9,12.6-6.4,19.2c-0.4,1.9-0.7,3.8-1.2,5.7c-0.3,1.3-0.7,2.6-1.1,4.2c0.3,0.2,0.8,0.6,1.4,0.9c1.7,1,3.4,1.9,5.1,2.8
		c10-1.5,11.7-1.7,15.7-3.3c0.8-1.3,1.3-2.4,2.1-3.4c1.2-1.5,2.5-3,3.8-4.4c6.2-6.8,13.7-10.1,23.1-8.8c1.5,0.2,2.9,0.7,4,1.7
		c0.1,0.1,0.1,0.4,0.1,0.6l0.1-0.1c-0.8,0-1.6,0-2.4-0.1c-2.9-0.7-5.7-0.2-8.6,0c-0.5,0-0.9,0.1-1.3,0.2c-3.2,1.3-6.4,2.4-9.5,4.5
		c0.5,1.1,1,2.2,1.5,3.3c-1.7,0.2-2.5-1.3-3.9-1.9c-0.5,0.4-1.1,0.6-1.4,1c-1.5,1.9-3,3.8-4.4,5.7c-0.1,0.1,0,0.4,0.1,0.7
		c3.8-0.6,7.6-1.3,11.4-1.8c3.8-0.5,7.6-1.1,12.1-1.9c-1.9,2.3-3.5,3.2-5.7,3.4c-4.8,0.5-9.5,1.3-14.3,2c-1.6,0.2-3.1,0.9-4.6,1.2
		c-3.6,0.8-7.2,1.5-10.8,2.2c-3.4,0.6-6.8,1-10.2,0.9c-1.9-0.1-3.9,0.4-5.8,0.7c-4,0.6-8,0.7-12,0.5c-1.9-0.1-3.7,0-5.4,0.6
		c-4.7,1.5-9.4,3.1-14.1,4.5c-3.1,0.9-6.2,1.7-9.3,2.5c-0.8,0.2-1.6,0.2-2.3,0.6c-2.1,1.2-4.4,1.2-6.7,1.3
		c-4.9,0.3-9.8,0.4-14.8,0.7c-1,0.1-2.1,0.2-3,0.7c-2.2,1.1-4.6,1.5-6.9,1.8c-3.1,0.5-6.1,1.1-9.1,1.8c-3.7,0.9-7.4,1.4-11.1,2
		c-0.5,0.1-1.1,0-1.7-0.1c-0.5,0-1-0.2-1.4-0.1c-2.1,0.8-4.3,0.6-6.5,0.7c-1.6,0.1-3.2,0.1-4.9,0.1c-2.4,0.6-4.9,1.3-7.5,2
		c-0.9,0.2-1.8,0.3-2.6-0.3c-0.9-0.7-1.9-0.4-3.3-0.3c1.4,0.2,1.2,2,2.6,1.6c1-0.3,1.7,0.6,2.6,0.7c1.5,0.1,3,0.3,4.4,0.1
		c2.1-0.3,4.2-0.8,6.4-1.2c1.3-0.2,2.7-0.5,4.1-0.6c1.8-0.1,3.7,0,5.5,0.1c1.4,0.1,2.7,0.1,4.1-0.2c0.5-0.1,1,0,2,0.1
		c-1.4,1.3-2.6,1.9-4,1.8c-1.8-0.1-3.7-0.1-5.5-0.3c-1.7-0.2-3.4-0.1-5.1,0.4c-1.6,0.5-3.2,1-5.4,1.6c1.7,0.7,3,0.5,4.1,0.3
		c3-0.6,5.9-0.2,8.9-0.1c6.3,0.2,12.6,0.6,18.9,0.2c1-0.1,2-0.2,3-0.6c2.7-0.9,5.4-1.9,8.2-2.9c1.7,0.9,3.5,0.9,5.3,0.8
		c10-0.2,19.9-0.5,29.9-0.8c4.8-0.2,9.6-0.4,14.4-0.7c2.6-0.2,5.3-0.3,7.9-0.8c4.6-1,9.3-1.2,14-1.7c1-0.1,2-0.1,3-0.6
		c0.7-0.3,1.6-0.3,2.3-0.3c4.1,0.3,8.2,0.4,12.3,0.9c5,0.6,10.1,0.7,15.1,0.7c5.3,0,10.5-0.1,15.8-0.1c0.7,0,1.4,0,2.1-0.1
		c5.7-1.1,11.5-2.3,17.2-3.3c1.5-0.3,2.5-0.9,3.3-2.1c0.8-1.2,1.7-2.5,2.6-3.7c0.3-0.4,0.8-0.6,1.5-1.2c0.3,1.6-0.6,2.5-1,3.5
		c-0.5,1-1,2-1.6,3.2c2.7-0.2,5.1-0.3,7.3-1.4c0.2-0.3,0.4-0.5,0.6-0.8c1.8-3.7,5.1-5.4,8.9-6.4c3.4-0.9,6.8-1,10.2-0.9
		c1.6,0,3.2,0,5.2,0c-2.4-1.7-4.8-2.9-7.4-3.3c-1.2-0.2-2.2-0.4-3.2-1.1c-0.8-0.5-1.9-0.8-2.9-0.9c-2.2-0.2-4.3-0.3-6.5-0.4
		c-1.8-0.1-3.6,0.3-5.5-0.1c-0.6-0.1-1.3,0.3-1.9,0.4c-0.4,1.7,0.8,3.2-0.2,4.8c-1.1-0.3-1.4-1.2-1.8-2c-2.3-4.2-5.2-7.8-8.5-11.2
		c-0.7-0.7-1.6-1.2-2.8-2.1c0.9-0.1,1.3-0.3,1.6-0.2c1.9,0.5,3.6,1.4,5,2.9C415.4,473.2,415.9,473.5,416.3,473.9l0.2,0.1
		L416.3,473.9z M449.4,483.4c-0.1,0.3-0.1,0.6,0.3,0.4C449.6,483.7,449.5,483.6,449.4,483.4c-0.2-0.1-0.3-0.3-0.4-0.4
		c-0.1,0.1-0.1,0.2-0.2,0.4C449.1,483.4,449.2,483.4,449.4,483.4z M437.6,496.5c0.5,0,1,0,1.5,0C438.6,496.1,438,495.6,437.6,496.5
		c0,0.1-0.1,0.1-0.2,0.2c0,0,0,0.1-0.1,0.2C437.4,496.8,437.5,496.6,437.6,496.5z M232.6,474.6c0.4,0,0.9,0.2,1.3,0.1
		c0.3,0,0.6-0.2,1.1-0.4c-0.3-0.2-0.4-0.3-0.5-0.3C233.8,474,232.9,473.4,232.6,474.6c-0.2,0.1-0.4,0-0.6,0.1
		c-0.1,0-0.2,0.2-0.2,0.4c0.1,0,0.2,0,0.3,0C232.3,474.9,232.5,474.7,232.6,474.6z M481.7,485.5l0.1,0.2L481.7,485.5
		c-0.2-0.1-0.2-0.4-0.4-0.5c-0.3-0.3-0.7-0.6-1.1-0.6c-0.6,0.1-0.9,0.6-0.7,1.2c-0.1,0-0.2,0-0.3,0c0,0-0.1,0.1-0.1,0.2
		c0.1-0.1,0.2-0.2,0.3-0.3C480.3,485.5,481,485.5,481.7,485.5z M478.3,454.5c-0.1,0.6-0.1,1.2,0.6,1.4c0.1,0.6,0.2,1.3,0.3,1.9
		c0.1,0.7,0.2,1.5,0.4,2.2c-0.1,0.2-0.3,0.5-0.1,0.3c0,0.2,0,0,0.1-0.3c0.5,0.8,1.1,1.5,1.6,2.3c-0.2,0.2-0.6,0.4-0.6,0.7
		c-0.1,1.8-0.1,3.6-0.1,5.4c-0.7-0.7-0.8-1.6-0.8-2.5c0-1,0.1-2.2-0.7-2.9c-0.5-0.5-1.3-0.9-2-1.6c0.1,1.1,0.1,2,0.2,2.9
		c0,0.6,0.3,1.2,0.1,1.7c-0.6,1.3-0.1,2.4,0.2,3.7c0.7,2.5,1.4,5.1,1.9,7.6c0.2,1,0.2,2,0,3c-0.1,0.7-0.8,1.1-1.4,0.6
		c-0.4-2.4-0.7-4.7-1.1-6.9c-0.6-2.7-1.3-5.3-2-8c0-0.2-0.2-0.3-0.3-0.4c-0.6,0.2-1.2,0.4-2,0.6c-0.1-1.5-0.2-2.7-0.4-3.9
		c0.1-0.2,0.3-0.3,0.4-0.5c0.3-0.9,0.5-1.8,0.8-2.8c-0.4,0-0.8-0.1-1.1,0c-0.2,0-0.4,0.2-0.5,0.4c-0.1,0.3-0.3,0.7-0.2,0.9
		c0.2,0.7,0.5,1.5,0.7,2.2c-1.1,1-1.3,2.4-1.4,3.7c-0.2,1.8-0.9,3.6-0.2,5.4c1,2.7,2,5.4,3,8c-0.5,0-1-0.1-1.3-0.6
		c-0.2-0.3-0.6-0.5-0.9-0.7c0.3-1.5-0.6-2.5-1.4-3.5c-0.3-1.1-0.5-2.2-0.8-3.3c-0.3-1.2-0.3-2.4-1.2-3.6c-1.6,2.3-0.6,4.7-1,7.3
		c-0.6-1.8-0.8-3.2-1.5-4.3c-0.7-1.1-0.7-2.1-0.6-3.2c0.1-1.4,0.1-2.7,0.2-4.1c0,0.1,0.2-0.1,0.1,0.1c-0.9,1.2-1.1,2.7-1.4,4.1
		c-0.2,0.9-0.1,1.9-0.5,2.7c-0.8,1.4-0.7,2.8-0.2,4.3c0.7,2,1.3,4.1,1.8,6.2c0.2,1,1.3,2,0.3,3.1c0.3,1.3,1,2.2,2.1,3.2
		c1-0.1,2.2-0.1,3.3-0.3c0.7-0.1,0.8-0.7,1-1.3l-0.1,0.1c0.7-0.1,1.8,1,2.1-0.5c-0.8-1.5-1.7-2.9-2.5-4.4c-0.7-1.3-1.2-2.6-1.1-4.2
		c0.3,0.3,0.5,0.6,0.8,0.8c0.2,0.2,0.4,0.4,0.6,0.6c0.6,3.1,1.9,5.3,4,6.8c0-0.5,0.1-0.9,0.1-1.3c0.4,0.3,0.9,0.6,1.5,1
		c0.9-1,1.7-2,2.6-2.8c1.3-1.3,1.7-2.8,1.5-4.6c-0.4-2.9-0.5-5.8-0.7-8.8c0.2,0.5,0.6,1,0.7,1.5c0.6,2.4,1.2,4.8,1.8,7.2
		c2-1.6,2.1-1.7,2-4.5c-0.3,0.1-0.7,0.2-1,0.2c-0.3-0.1-0.6-0.3-1-0.5c-0.1-0.5-0.2-1.1-0.2-1.6c-0.1-1.9-0.2-3.9-0.2-5.8
		c0-1.2-0.5-1.9-1.4-2.5c0.1-0.2,0.3-0.4,0.3-0.6c-0.4-2.1-0.9-4.1-2.4-5.6C478.9,455.4,479,454.8,478.3,454.5
		c-0.1-0.4-0.1-0.8,0-1.2l0.1-0.1l0,0.2c-0.5-0.5-0.9-1.1-1.4-1.6c-0.3-0.7-0.6-1.4-0.9-2.1c0.5,0,1,0,1.5,0.1c0.7,0.7,1.4,1.4,2,2
		c0,0.1,0.1,0.2,0.1,0.3c0,0,0.1,0,0.2,0.1c-0.1-0.1-0.2-0.2-0.4-0.2c-0.1-1.3-0.7-2-2-2.1c0.2-0.6-0.1-1-0.6-0.9
		c-0.3,0-0.5,0.6-0.8,0.9c-0.7-0.2-0.9-0.7-0.8-1.3c0.1-0.8,0.5-1.5,0.5-2.3c0-0.7,0.7-1.4,0-2.3c-0.5-0.7-1.1-1.2-1.9-1.4
		c-3.5-1-7-2.1-10.5-3.1c-0.3,0.2-0.7,0.4-0.9,0.6c-1.3,2.2-3.1,2.3-5.4,1.6c-2.1-0.7-4.1-1.5-5.9-2.7c-0.6-0.4-1.2-0.6-1.9-1
		c-0.3,0.6-0.7,1.1-0.8,1.6c-0.1,0.5,0.1,1.1,0.1,1.7c0,0.7-0.2,1.4-1,1.5c-1-1.3-1-1.3-4.3-2c-1.9,1.4-0.4,3.6-1.3,5.6
		c-0.4-0.6-0.8-0.9-0.8-1.3c-0.1-0.8-0.1-1.6-0.1-2.4c0-0.9-0.5-1.5-1.5-1.8c-0.7,0.4-1.4,0.9-2.1,1.4c-0.7-0.3-1.3-0.6-2-0.7
		c-1.7-0.4-3,0.4-3.3,2.1c-0.3,1.9-0.7,3.7-0.3,5.8c0.4,2.1,0.1,4.3,0.1,6.5l0.1-0.1c-0.7-0.1-1.4-0.6-2.3-0.3
		c-1.1,0.3-2.2,0.5-3.3,0.7c-3.4,0.6-6.8,0.7-10.2,0.6c-1.7-0.1-2.9-0.7-3.7-2.4c-1.3-2.8-3-5.3-5.3-7.4c-0.1-0.1-0.1-0.2-0.2-0.2
		c0,0-0.1,0-0.2,0c0.2,0,0.3,0.1,0.5,0.1c0.2,0.6,0.2,1.3,0.5,1.9c1.1,2.4,2.3,4.7,3.3,7.1c1.7,4.1,3.2,8.3,4.9,12.4
		c1.4,3.4,2.9,6.7,4.3,10c1-0.4,1.8-1,2.6-1c1.8-0.1,3.6,0.1,5.5,0.2c0.9,0.1,1.8,0.3,2.7,0.4c1.9,0.2,3.9,0.4,5.8,0.5
		c0.9,0.1,1.8,0.1,2.7,0.1c0.5-0.6,0.9-1.2,1.3-1.7c0.4-0.5,0.9-0.7,1.5-0.2c0.2,1.1,0.4,2.2,0.6,3.3c-0.2,0.1-0.4,0.3-0.5,0.4
		c0.2,0.1,0.4,0.2,0.5,0.3c1.4,1.3,1.4,1.3,2.6,0.9c-0.5-1.7-1.1-3.5-1.6-5.1c-0.9-0.7-1.7-1.3-2.4-1.8c0.3-3.5,0.4-3.6,2.5-3.3
		c-0.3,0.6-0.7,1.2-1.1,1.9c0.5,0.6,1,1.3,1.6,1.8c1.2,0.9,2.4,1.7,3.7,2.5c0.5,0.3,1.1,0.3,1.6,0.5c0.4,1.2,1.3,1.7,2.7,2
		c-0.1-0.7-0.2-1.2-0.2-1.7c-0.5-0.1-0.8-0.3-1.1-0.3c-0.4,0-0.9,0-1.3,0.1c-0.4-0.4-0.8-0.8-1.1-1.2c-0.9-0.9-1.1-1.7-0.6-2
		c0.7-0.5,1.3,0.1,1.8,0.4c2.7,1.4,3,1.4,5.1-0.9c-0.1-0.2-0.3-0.4-0.4-0.5c-1.1-0.5-1.5,0.8-2.6,0.7c-1.1-0.5-2.4-1-3.6-1.5
		c0.3-1.2,0.9-1.7,2.1-1.8c0.5,0.6,1.1,1.2,1.7,1.9c1.4-0.5,2.8-1,3.9,0.2c1.2,1.3,2.8,2.5,2,4.7c-1.2-0.1-2,0.7-2.9,1.3
		c1.2,0.2,2.3,0.1,3-1.2c1.1-0.3,1.7-1.1,1.9-2.2c0.1-1-0.6-1.7-1.4-2.2c-0.4-0.3-1-0.6-1.3-1c-0.6-0.7-1.1-1.4-1.5-2.3
		c-0.6-1.3,0-2.3,1.1-3.1c0.9,0.6-0.5,1.5,0.4,1.9c2-2.8,4-5.6,5.8-8c1.2-0.4,2.4-0.4,2.9-1c1.1-1.3,2.6-1.3,4-1.5
		c-0.8,1-1.3,2.1-1.5,3.3c-0.1,0.5,0.1,1.1,0.1,2c0.7-1.3,1.1-2.2,1.6-3.1c0.4-0.8,0.3-1.5-0.3-2.2c0.4-0.2,0.7-0.6,1.1-0.6
		c1,0,2,0.1,3,0.1c0,0-0.1-0.1-0.1-0.1c0,0.8-0.1,1.7,0,2.5c0,0.3,0.5,0.5,0.8,0.8c-0.3,0.7-0.7,1.4,0.7,2.3
		c-0.4-1.1-0.6-1.7-0.8-2.2c0.4-1,0.8-2.1,1.1-3.1c0.2-0.8,0.1-1.6,0-2.4c-0.1-0.7-0.5-1.4-0.7-2.2c0.7-0.7,1.3-1.4,1.9-2
		C476.6,453,477,454,478.3,454.5z M484.5,455.2c0.1,0.3,0.1,0.6,0.2,0.9C484.8,455.8,485,455.4,484.5,455.2
		c-0.2-0.6-0.2-1.2-0.4-1.9c-0.1-0.3-0.3-0.9-1.1-0.2C483.5,453.9,484,454.5,484.5,455.2z M12.5,179.4c-0.1-0.1-0.1-0.2-0.2-0.2
		c0,0-0.1,0-0.2,0C12.3,179.2,12.4,179.3,12.5,179.4c0.2,0.1,0.3,0.4,0.4,0.4c1.4,0.2,2.9,0.4,4.3-0.1c-0.2-2.1-0.3-2.3-1.7-2.4
		c-0.5-0.1-1.1,0.1-1.7,0.1c0-0.1-0.1-0.1-0.1-0.2c0.1,0,0.1,0.1,0.2,0.1c0,0.2,0,0.4,0,0.6C13.8,179.2,13.8,179.2,12.5,179.4z
		 M477.5,489.1c0.3-0.6,0.6-1.3,0.9-2.1c-0.8,0.1-1.6,0-1.7,1.2C476.9,488.4,477.3,488.7,477.5,489.1c0.1,0.6,0.1,1.2,0.1,1.9
		c0,0.7-0.1,1.3-0.9,1.6c-0.2-1.5,0-3.3-2-4.2c-1.1,0.4-2.6,0.2-3.3,1.7c-0.1,0.1-0.4,0.2-0.5,0.1c-1.4-1.4-2.8-0.2-4.1-0.1
		c-1,0.1-2,0.3-3.1,0.3c-0.6,0-1.5-0.1-1.9-0.6c-0.7-0.8-1.6-0.9-2.5-0.9c-1.4,0-2.7-0.3-4-0.8c-1.1-0.4-2.2-0.7-3.3-0.2
		c-0.3,0.1-0.6,0-1,0c-1.8-0.1-3.7-0.3-5.5-0.1c-4.7,0.5-9.3,1.3-13.9,1.9c-3.1,0.4-4.8,2.3-5.7,5.1c2.1,0.7,2.1,0.7,3.4,0.2
		c1.7-0.6,3.4-1.3,5.2-1.7c1.6-0.4,3.4-0.9,5-0.9c1.7,0,3.4-0.2,5.1-0.5c1.2-0.2,2.5-0.3,3.8-0.3c5-0.2,9.8,0.4,14.6,1.6
		c1,0.2,2,0.6,3,0.5c3-0.1,5.9-0.3,8.9-0.5c0.6-0.1,1.2-0.5,1.9-0.8c1.9,1,4,0.7,6,0.4c0.7-0.1,1.2-1.3,0.8-2
		c-0.2-0.4-0.5-0.7-0.9-1C481.1,488.8,479.3,488.7,477.5,489.1z M450.7,482.8c0.1,0.2,0,0.7,0.4,0.2
		C451,483,450.8,482.9,450.7,482.8c0.3-0.1,0.7-0.5,1.2,0c0.9,0.9,1.7,1.8,2.7,2.7c1.1,1,2.4,1.6,4,1.4c0-0.5-0.1-1-0.1-1.4
		c0.7-0.2,0.7,0.4,1,0.7c0.5,0.3,0.9,0.7,1.3,1.1c0.4,0.3,0.9,0.8,1.3,0.2c-0.7-1.2-1.4-2.4-1.9-3.6c-0.2-0.5-0.2-1.1-0.4-2.3
		c2.8,5.1,2.8,5.1,5.1,5.9c-1.4-4.6-1.7-9.3-3.4-13.8c-0.7,0.5-0.4,1.1-0.3,1.6c0.1,0.7,0.2,1.4,0,2c-0.7,1.8-1.9,3.1-3.9,3.4
		c-1.5,0.3-3.1,0.6-4.6,0.8c-1.7-0.3-2.8-1.9-4.5-2.4c0,0.5-0.1,0.9-0.1,1.2c-0.7-0.3-0.5-0.9-0.7-1.4c-0.2-0.5-0.7-0.8-1.2-1.5
		c-0.4,2.1,0.5,3.3,1.7,4.7c0.1-0.8,0.1-1.4,0.2-1.9c0.5,0.6,0.9,1.2,1.5,1.8C449.8,482.2,450.3,482.5,450.7,482.8z M163.4,403
		c-1.6-0.4-3.3-1-4.9-1.3c-3-0.6-6.1-1-9.2-1.5c-2.7-0.4-5.4-0.9-8.2-1.2c-6-0.7-12.1-1.4-18.1-1.9c-5.6-0.5-11.1-1.8-16.7-1.8
		c-0.7,0-1.3-0.2-2-0.4c-6.6-1.2-13.3-2.6-19.9-3.7c-3-0.5-5.7-1.6-8.4-2.9c-0.6-0.3-1.1-0.8-1.4-1.1c-1.3,0-2.3,0-3.4,0
		c-0.8,0.8-1.6,1.7-2.5,2.4c-0.8,0.8-1.7,1.4-2.7,2.2c-1.8,5.4-1,8.8,3,11.9c0.9-0.1,1.9-0.2,2.9-0.3c0.2-0.7,0.4-1.2,0.6-1.6
		c1.4-0.4,2.4,0.3,3.5,0.7c8.8,3.6,17.6,7.2,26.4,10.9c2.5,1.1,5,2.3,7.2,4.1c0.6,0.5,1.3,0.9,2.1,1.2c2.6,1,5.1,2.1,7.8,2.8
		c3.8,1,7.6,1.7,11.4,2.4c5.5,0.9,11.1,1.7,16.7,2.5c5.5,0.8,11-0.1,16.5,0c0.7,0,1.5-0.4,2.4-0.7c0.9,0.5,1.9,1.1,2.9,1.6
		c-0.1,0.9-0.2,1.5-0.2,2.4c1.1,0.5,2.2,1.1,3.4,1.5c6.9,2.2,13.7,4.4,20.9,5.7c2.4,0.4,4.7,1.1,6.9,2c2.5,0.9,4.9,1.9,7.5,2.5
		c4.9,1.2,9.8,2.1,14.8,3.1c2.9,0.5,5.9,0.8,8.8,1.3c1.2,0.2,2.4,0.7,3.4,1.3c0.7,0.5,1.2,1.3,1.7,2.1c1.6,2.6,3.6,4.7,5.8,6.7
		c3,2.7,6.1,5.1,9.9,6.6c0.8,0.3,1.6,0.9,2.4,1.2c2.9,1.2,5.7,2.4,8.6,3.5c2.3,0.8,4.7,1,7.1,0.9c3.5-0.2,7.1-0.3,10.6-0.5
		c2-0.1,4.1-0.4,6.1-0.9c2-0.4,4-1.1,6-1.6c0.9-0.2,1.8-0.4,2.6-1.5c-0.2-2.7-0.3-5.6-0.5-8.6c-0.1-1.4-0.3-2.7-0.2-4.1
		c0.4-5.9,0.7-11.9,1.2-17.8c0.4-4.7,1.1-9.3,3.1-13.7c0.2-0.4,0.2-0.9,0.3-1.5c-1.1-0.3-2-0.6-3-0.8c-3.6-0.6-7.1-1.6-10.5-3.1
		c-1.9-0.8-3.8-1.6-5.7-2.3c-5.5-1.9-11.1-3.7-16.6-5.5c-0.6-0.2-1.5-0.3-2,0c-1.2,0.7-2.4,0.4-3.7,0.2c-5.9-1-11.8-1.4-17.8-1.6
		c-0.7,0-1.3,0-2.1,0.1c0,0.5-0.1,0.8,0,1.1c1.2,4.3,0.9,8.7-0.1,12.9c-1,4-1.6,8.1-2.7,12c-0.9,3.3-1.8,6.6-2.8,9.9
		c-0.4,1.2-1,2.3-1.7,3.4c-0.3,0.5-0.9,0.7-1.5,0.1c0.5-1.7,1-3.5,1.4-5.2c2-8.6,4-17.2,6.2-25.7c0.8-3.1,0.1-5.8-1.1-8.7
		c-1.7,0-3.3-0.1-4.9-0.1c-4.9,0.1-9.9,0.2-14.8,0.3c-5.6,0.2-11.2,0-16.8-0.6c-1-0.1-2.1-0.2-3.1,0c-5.3,0.9-10.5,0.8-15.6-0.6
		C174.8,401.8,169.2,401.9,163.4,403z M339.5,467.1c1.5,0.2,2.1,0.3,2.9,0.4c0.3-1.3,0.7-2.6,1-3.9c-0.6-0.9-1.2-1.8-1.8-2.6
		c-0.1-0.1,0.1-0.4,0.2-0.6c0.7,0.3,1,1.3,2.1,0.8c0.3-0.9,0.5-1.9,0.8-2.9c1.6-5.1,3.3-10.2,5.7-15.1c0.8-1.7,1.4-3.4,1.8-5.2
		c0.7-3.4,1.9-6.6,3.4-9.7c0.2-0.5,0.4-1,0.5-1.5c-3-0.8-5.8-1.9-8.8-2.3c-4.3-0.7-8.6-1-13-1.4c-1.5-0.1-3,0-4.4,0.2
		c-4.8,0.8-9.6,0.5-14.3-0.5c-3-0.7-5.9-1.7-8.9-2.6c-1.8-0.6-3.7-1-5.6-1.1c-1.5,3.5-2.9,6.9-3.2,10.6c-0.4,4.4-0.7,8.9-1.2,13.3
		c-0.7,6,0.4,11.9,0.4,17.8c0,0.5,0,1,0.2,1.4c0.3,0.7,0.8,1.3,1.1,2c0.7-0.1,1.1-0.1,1.6-0.1c2.6-0.3,5.2-0.6,7.8-0.9
		c1.5-0.2,2.9,0.2,4.4,0.7c2.5,0.8,4.9,1.9,7.5,2.4c6.6,1.3,12.8,3.5,18.6,6.9c0.7,0.4,1.4,0.6,2.2,1c1.2-1.6,1.6-3.2,1.4-5.1
		C341.3,468.5,340.7,468,339.5,467.1z M38.6,419.8c4-0.8,7.8-1.2,11.6-2.3c0.8-0.2,1.5-0.5,2.3-0.8c1.4-0.6,1.6-1.3,1-2.7
		c-0.8-1.7-1.7-3.2-2.4-4.9c-2.5-6.3-4.1-12.8-5.6-19.4c-0.4-1.7-0.9-3.3-1.5-4.9c-3.4-8.7-6.1-17.5-7.3-26.7
		c-0.7-5.2-1.8-10.4-3.5-15.4c-1.7-5.1-3.5-10.2-4.5-15.5c-0.1-0.3-0.4-0.5-0.5-0.8c-2,0.2-3.9,0.3-6,0.5c-0.2,0.6-0.6,1.2-0.7,1.8
		c-0.3,3.4-0.1,6.9,0.8,10.2c0.5,1.6,0.9,3.3,1.2,5c1.5,10.9,3,21.8,4.4,32.6c0.1,0.4,0.1,1,0.4,1.3c0.8,1,0.8,2.1,1,3.2
		c0.3,1.6,0.5,3.2,0.9,4.7c1.6,6.4,3.1,12.9,4.8,19.3c0.5,2,1.2,3.9,1.7,5.9c0.1,0.5,0.1,1.1,0.1,1.6
		C36.9,414.9,37.1,417.3,38.6,419.8z M13.6,182.3c0.2,1.8,0.4,3.4,0.5,5c0.7,6.9,0.3,13.7-1.4,20.5c-0.2,0.9-0.6,1.8-0.5,2.7
		c0.1,1.2-0.3,2.3-0.8,3.3c-0.4,1.1-1,2.1-1.5,3.1c-2.6,5.6-3.7,11.5-3.8,17.7c-0.1,3,0.9,5.6,2.8,7.9c1.8,2.2,4,4,6.4,5.6
		c1.2-0.2,2.2-0.2,3.2-0.5c0.6-0.2,1-0.7,1.5-1c-0.1-0.5-0.1-0.7-0.2-0.9c-2.7-5.2-3.2-10.7-1.6-16.3c0.7-2.7,1.2-5.4,1.1-8.1
		c0-1.5,0.1-3,0.2-4.5c0.7-8.9,0.8-17.9,0.6-26.8c-0.1-2.4-0.3-4.8-0.8-7.3c-1.3-0.1-2.6-0.2-3.8-0.2
		C14.9,182.3,14.3,182.3,13.6,182.3z M27.1,277.6c-0.1-4.2-0.2-8.2-0.4-12.2c-0.1-2,0.2-4.1-1.1-6c-0.2-0.2-0.1-0.7-0.2-1
		c-0.5-2.9-0.9-5.9-1.4-8.8c-0.1-0.6-0.2-1.2-1-1.4c-1.6,0.6-3.2,1.2-4.9,1.9c0.1,4.9,0.2,9.6,0.2,14.2c0,8.3,0.5,16.5,1.3,24.7
		c0.6,7.4,1.4,14.8,1,22.3c0,0.4,0.2,0.8,0.2,1.2c2.1-0.2,4-0.5,5.5-0.6c0.7-0.5,1.1-0.9,1.6-1c1.1-0.3,2.5,0.4,3.6-0.5
		c-0.7-3.8-1.4-7.5-2.1-11.2c-0.7-3.8-0.9-7.7-1.8-11.5c-2,0.1-3.7,0.1-5.8-0.6c2.1-0.7,4,0,5.7-0.8c-0.1-1.9-0.2-3.7-0.4-5.5
		c-0.1-0.6-0.4-1.3-0.6-1.9c-1.3-0.3-2.5-0.5-4-0.8C24.6,277.4,24.6,277.4,27.1,277.6z M23.8,221.4c0.2,0.7,0.4,1,0.4,1.3
		c-0.2,3.8-0.2,7.5,0.6,11.3c0,0.1,0,0.2,0,0.3c0.7,7.2,0.7,14.4,2.7,21.4c0.1,0.2,0.1,0.5,0.1,0.7c0.2,2.3,0.4,4.6,0.6,6.9
		c0.3,5.1,0.6,10.3,1,15.4c0.2,3,0.5,5.9,0.9,8.9c0.8,6,1.7,12,2.5,18c0.2,1.8,0.5,3.6,0.7,5.4c0.4-0.9,0.5-1.7,0.5-2.6
		c-0.2-4.3-0.5-8.7-0.7-13c-0.1-1.3-0.1-2.5-0.2-3.8c-0.8-8.8-1.5-17.6-1.8-26.4c0-0.8-0.1-1.6-0.2-2.4c-0.8-6.5-1.7-13-2.5-19.4
		c-0.9-6.9-1.7-13.9-2.5-20.8c-0.6-5.5-1.3-10.9-1.6-16.4c-0.4-6.7-0.6-13.5-0.9-20.3c0-1-0.1-2-0.2-3c-1.2-0.3-1.2-0.3-2.3,0.2
		c0.8,5.4,1.3,10.9,1.1,16.4c-0.2,4.7-0.4,9.4-0.6,14.1c0,0.9-0.2,1.8-0.3,2.7c-0.3,2.5-0.7,5-1,7.3c0.5,0.6,0.8,1,1.3,1.5
		c-2,5.4-3.2,10.9-0.6,17.2c1-2.7,0.8-5.1,1.2-7.2c0.5-2.2,0.6-4.5,1-6.8C23.3,226.2,23,223.9,23.8,221.4z M29.4,206.9
		c-0.8,4.8,1.9,33.7,3.3,40.3c0.3-0.9,0.7-1.5,0.8-2.1c0.2-3.2,0.5-6.4,0.5-9.6c0-6.4-1.3-12.7-2.5-19
		C30.9,213.3,30.1,210.1,29.4,206.9z M40.9,344.7c-0.2,0.8,0.1,1.2,0.6,1.5c2.2,1.1,2.9,3,2.7,5.1c-0.2,2,0.5,3.5,1.6,5
		c1.1,1.5,2,3.1,3.7,4c0.1,0.9,0.1,1.6,0.2,2.4c0,0.5,0.1,0.9,0.9,0.7c0.7-2.6-0.3-5.2-0.4-7.7c-0.2-2.6-0.4-5.2-0.7-8.2
		c-0.3-0.2-0.8-0.5-1.2-0.9c-1.5-2-3.4-2.5-5.7-2.2C42,344.6,41.4,344.6,40.9,344.7z M28.5,317.4c0-0.3,0-0.5-0.1-0.5
		c-2.3-0.9-4.8-1-7.3-1.9c-0.6,3-0.2,5.8-0.5,8.7c3,0.4,5.7,0.9,8.4,0.7c0.7-2,0.6-3.8,0.2-5.8c-2.3,0.5-4.4,0.6-7,0.2
		c1.3-0.8,2.3-0.8,3.3-1C26.5,317.7,27.5,317.5,28.5,317.4z M459.7,494.3c-5.2-1.5-12.2-1.7-17.1-0.4c-0.5,0.1-1,0.6-2.1,1.2
		c2.8,0,4.9,0,6.9,0c2.2,0,4.3-0.1,6.5-0.1C458.2,495.1,458.2,495.1,459.7,494.3z M25.8,205c0.2-0.4,0.2-0.5,0.2-0.6
		c0-5.9-0.1-11.9-0.1-17.8c0-0.1,0-0.3-0.1-0.3c-0.2-0.2-0.5-0.6-0.7-0.6c-0.2,0-0.7,0.3-0.7,0.5c-0.1,0.4-0.1,0.9-0.1,1.4
		c0.1,1.9,0.3,3.9,0.4,5.8C25.1,197.1,25.5,200.9,25.8,205z M29.2,312.3c0.8,0.5,1.4,0.8,1.7,1.3c0.3,0.5,0.4,1.2,0.5,1.8
		c1,0.2,1.9,0.5,3,0c-0.1-0.7-0.2-1.5-0.4-2.5c-0.9,0.5-1.7,0.7-2.4-0.2C31.2,312.2,30.2,312.4,29.2,312.3z M23.9,241
		c-1.3,1.8-1,3.6-1.4,5.3c0,0.1,0.1,0.2,0.2,0.2c0.6,0.3,1.3,0.4,1.8-0.3C24.3,244.6,24.1,243,23.9,241z M28.7,313.8
		c-1.2,0-2.5,0-3.7,0c-1.3,0-2.6-0.6-4.3,0.3c1.8,0,3.2,0.1,4.5,0C26.4,313.9,27.5,315.2,28.7,313.8z M330.5,479.9c2,0,4,0,6,0
		C334.5,479.2,332.5,479.4,330.5,479.9z M457.5,476c-2-0.8-2.3,0.4-3,1c-0.1,0.1,0.1,0.3,0.2,0.7C455.5,477.2,456.2,476.8,457.5,476
		z M437.9,494c-1.5-0.2-2.5,0.5-3.7,1C435.5,495.3,436.8,495.4,437.9,494z M485.6,463c-0.1,0-0.2,0-0.3,0c0,1,0,2,0,3
		c0,0.1,0.1,0.2,0.4,0.5C485.7,465.1,485.6,464,485.6,463z M237.1,473.5c1,0.6,1.7-0.3,2.5-0.7C238.6,472.6,237.7,472.7,237.1,473.5
		z M465.6,488.8c0-0.1,0.1-0.2,0.1-0.3c-0.9,0-1.7,0-2.6,0c-0.2,0-0.3,0-0.5,0.1c0,0.1,0,0.2,0,0.2
		C463.7,488.8,464.7,488.8,465.6,488.8z M466.5,495.6c-0.8-0.3-1.7-0.9-2.6,0C464.8,495.6,465.6,495.6,466.5,495.6z M7.8,177.8
		c0.6-0.7,0.5-1.1-0.1-1.4c-0.1-0.1-0.5,0.2-0.5,0.3C7.4,177,7.6,177.3,7.8,177.8z M10.4,173.8c0-0.1,0-0.3,0.1-0.4
		c-0.5,0-1.1,0-1.6,0c0,0.1,0,0.2,0,0.3C9.4,173.7,9.9,173.8,10.4,173.8z M17.7,175.3c0.7,0.9,1,1.3,1.3,1.8
		C19.5,176.1,19.4,175.6,17.7,175.3z M484.7,460.3c0.1-0.2,0.3-0.3,0.3-0.3c0-0.2-0.1-0.4-0.2-0.6
		C484.7,459.7,484.7,460,484.7,460.3z M435.2,499.2c-0.1,0.1-0.2,0.2-0.2,0.3c0,0.1,0.1,0.2,0.1,0.3c0.1-0.1,0.2-0.2,0.2-0.2
		C435.3,499.4,435.3,499.3,435.2,499.2z M23,179.7c0.1,0,0.2-0.1,0.2-0.2c0-0.1,0-0.2,0-0.3c-0.1,0.1-0.2,0.1-0.3,0.2
		C22.9,179.5,23,179.6,23,179.7z M19.6,179.8l0.1-0.2l-0.1,0L19.6,179.8z"/>
	<path d="M502.3,142.9c-1.7-3-2-5.6-2.7-8.1c-0.7-2.4-1.2-4.9-1.9-7.5c-3.2-0.1-6.3-0.3-9.4-0.4c2.7-1.5,5.8-1,8.8-1.6
		c-0.1-2.4-1-4.5-1.4-6.8c-3.5,0.5-6.6,1.4-10,0.8c3.2-0.8,6.2-1.6,9.2-2.4c-0.4-4.1-1.3-7.6-2.5-10.1c-1,0.2-2,0.3-2.9,0.5
		c-0.9,0.2-1.7,0.4-2.8,0.2c0.4-0.3,0.7-0.7,1.2-0.8c1.4-0.4,2.9-0.6,4.2-1.3c0.3-1.4-0.1-2.6-0.5-3.8c-0.9-3.2-1.8-6.4-2.7-9.6
		c-0.2-0.6-0.1-1.2-0.2-1.9c0.9,0.1,1.1,0.7,1.3,1.2c4.4,12.1,8.2,24.3,10.8,36.9c0.6,3.1,1.3,6.3,1.9,9.4c0.2,1.1,0.3,2.3,0.3,3.4
		C503,141.4,502.7,141.8,502.3,142.9z"/>
	<path d="M880.8,460.1c-0.2-0.3-0.4-1-0.6-1c-0.8,0-0.7-0.8-1.4-1.2c0,0.6,0.1,1.1,0.1,1.6c0.1,0.9,0.6,1.9,0.3,2.7
		c-0.6,1.6-0.1,2.9,0.3,4.4c0.5,2,1.1,4,1.6,6c0.3,1.3,0.4,2.7,0.5,4.1c0,0.4-0.2,0.9-0.4,1.2c-0.2,0.2-0.6,0.3-0.9,0.3
		c-0.1,0-0.5-0.3-0.4-0.4c0.2-3.9-1.3-7.6-1.9-11.4c-0.2-1.3-0.6-2.7-1.5-3.7c-0.4,0.3-0.8,0.5-1.2,0.8c-1.1-2.1-1-3.6,0.4-6.6
		c0.9,1.1,0.8,2.6,1.5,3.6c0.3-1.5,0.8-3,0.9-4.5c0.1-1.3,0.3-2.7-0.3-4c-0.3-0.5-0.2-0.6,0.6-1.8c0.6,0.4,1.2,0.8,1.9,1.3l-0.1-0.1
		c0,0.7,0,1.3,0.8,1.5l-0.1-0.1c0,0.6,0,1.3,0.8,1.5l-0.1-0.1c0.2,1.4,0.5,2.8,0.7,4.1c-0.1,0.2-0.3,0.3-0.3,0.5
		c0,0.1,0.1,0.2,0.2,0.3c0-0.1,0-0.2,0-0.3c0-0.2,0-0.4,0-0.6c0.6,0.5,0.8,1.1,0.7,1.8c-0.2,1.5-0.4,3.1-0.6,4.6l0.1,0
		c-0.8-0.5-0.8-1.3-0.7-2.1C881.5,461.3,881.6,460.5,880.8,460.1L880.8,460.1z"/>
	<path d="M245.4,479.8c0.5-1.5,0.8-2.6,1.2-3.7c2.3-1.5,4.8-2.2,7.9-1.9c-1.7,1.5-3.6,1.6-5.3,2.7c-0.3,1.1-0.7,2.4-1.1,3.9
		C247.2,480.5,246.4,480.1,245.4,479.8z"/>
	<path d="M837.3,458.1c1.1,0.9,1.4,2.3,2,3.5c0.4,0.9,0.8,1.9,1.2,2.8c0.5,1,1.3,1.8,2.6,1.9c0.6,0.1,1.4,0.1,1.7,1.1
		c-1.3,0.7-2.4,0.1-3.5-0.4c-0.7-0.3-1.3-0.9-1.7-1.5C838.2,463.2,837.3,460.8,837.3,458.1L837.3,458.1z"/>
	<path d="M859.8,448.8c-0.4-1-0.6-1.9-1.1-2.6c-0.5-0.7-0.9-1.3-0.5-2.2c1.4,0,2.6-0.4,3.6-1.6c0.6,1,0.6,1.9,0.3,2.7
		C861.5,446.4,861.1,447.9,859.8,448.8z"/>
	<path d="M378,497.5c-3.9,0.9-7.3,0.4-10.5-1.4C370.2,495.9,375.4,496.5,378,497.5z"/>
	<path d="M327,491.3c2.5-0.9,5.1-0.8,8-0.8c-0.3,0.6-0.4,1.2-0.6,1.3c-2.4,0.9-4.8,1.1-7.2-0.1C327.2,491.7,327.1,491.5,327,491.3z"
		/>
	<path d="M863.6,449.9c0.3-1.2,0.7-2.3,1.1-3.7c-0.5-1.5-1.1-3.2-1.6-4.8c0.5-0.7,0.9-0.6,1.2-0.2c1.6,2.5,2.1,5.2,0.6,8
		c-0.2,0.3-0.5,0.5-0.7,0.7C864.1,450,863.9,449.9,863.6,449.9z"/>
	<path d="M47.4,363.7c0.2,0.5,0.7,1,0.6,1.5c-0.1,0.4-0.6,1-1,1.2c-1,0.5-2.1,0.5-3.3,0.8c1-2.5,1.1-2.5,3.9-3.4L47.4,363.7z"/>
	<path d="M372.3,434.8c-0.7,2.6-2.2,4.5-4,7.1C368.7,438.5,370.2,436.4,372.3,434.8z"/>
	<path d="M398.3,461.6c2.7-0.3,4.7,1.2,6.8,2.8c-1.3,0.7-2.3,0.3-3.2-0.3C400.7,463.3,399.6,462.4,398.3,461.6L398.3,461.6z"/>
	<path d="M762.4,452.6c-3.2-1.7-4.8-3.5-5.3-5.6c0.2,0,0.5,0,0.6,0.1c1.6,1.7,3.1,3.3,4.6,5C762.4,452.2,762.3,452.4,762.4,452.6
		L762.4,452.6z"/>
	<path d="M400.9,470.9c3.8-0.8,5-0.6,6.9,0.6c-1.3,0.5-2.5,0-3.6-0.2C403.1,471.2,402,471,400.9,470.9z"/>
	<path d="M20.9,141.1c-2.5,1.4-4.8,0.6-7,0.8C16.1,141.9,18.1,140.1,20.9,141.1z"/>
	<path d="M774.2,426c-0.8-1.4-0.7-1.9,0.9-2.9C775.4,424.5,775.4,424.5,774.2,426z"/>
	<path d="M489.4,114.1c1-1.3,2.3-1.7,4.1-1.7C492.2,113.9,492.2,113.9,489.4,114.1L489.4,114.1z"/>
	<path d="M392.6,473.1c0.8-1.6,1.9-1.1,3.1-1.1C394.8,473.7,393.8,473.1,392.6,473.1z"/>
	<path d="M733,464.9c0.4-1.5,1.2-1.5,2-1.5c0.2,0,0.5,0.2,0.5,0.3c0,0.3-0.1,0.7-0.3,0.8C734.5,464.6,733.9,464.7,733,464.9z"/>
	<path d="M833.9,463.6c1.5-0.1,2.7,0.4,3.8,1.7C835.7,464.8,835.7,464.8,833.9,463.6L833.9,463.6z"/>
	<path d="M361.7,494.3c-0.9,0-1.7,0.1-3.2,0.2c1.3-0.9,2.2-1.1,3.1-0.9C361.7,493.9,361.7,494.1,361.7,494.3z"/>
	<path d="M365.8,494.9c0,0.2-0.1,0.4-0.1,0.4c-0.3,0-0.6-0.1-0.9-0.1c0-0.1,0-0.3,0.1-0.4C365.2,494.8,365.5,494.8,365.8,494.9z"/>
	<path d="M277,473.6c-0.7,0.5-1.2,0.7-1.8-0.1C275.7,472.9,276.3,473.1,277,473.6z"/>
	<path d="M679.3,471c-0.4,0.1-0.7,0.2-1.1,0.2c-0.2,0-0.4-0.3-0.6-0.5c0.2-0.1,0.4-0.3,0.5-0.3c0.4,0,0.8,0.1,1.2,0.2
		C679.2,470.8,679.3,470.9,679.3,471z"/>
	<path d="M316.7,492.3c-1.2,0-1.8,0-2.6,0C314.9,491.5,315.5,491.7,316.7,492.3z"/>
	<path d="M659.1,470.4c0.5-0.4,1-0.6,2-0.1C660.2,470.3,659.6,470.3,659.1,470.4L659.1,470.4z"/>
	<path d="M828.6,469.4c-0.3,0-0.6,0-0.9,0c0.3-0.1,0.6-0.2,0.9-0.2C828.6,469.3,828.6,469.3,828.6,469.4z"/>
	<path d="M774.1,431.2c0.1-0.4,0.1-0.9,0.2-1.3c0.1,0,0.1,0,0.2,0.1C774.3,430.4,774.2,430.8,774.1,431.2L774.1,431.2z"/>
	<path d="M321,492.7c-0.4,0.5-0.8,0.5-1.3,0.1C320,492.3,320.5,492.3,321,492.7z"/>
	<path d="M489.3,114c-0.6,0.6-1.4,0.5-2.1,0.6l0.1,0.1C487.8,114,488.6,114.2,489.3,114L489.3,114z"/>
	<path d="M367.2,445.3c0.1,0.9,0.2,1.2,0.2,1.5c0,0.1-0.1,0.2-0.1,0.3c-0.1-0.1-0.3-0.2-0.3-0.3C366.9,446.5,367,446.2,367.2,445.3z
		"/>
	<path d="M353.2,491.3c0.8-0.1,1.1-0.2,1.4-0.2c0.1,0,0.2,0.1,0.2,0.2c-0.1,0.1-0.3,0.4-0.4,0.3
		C354.2,491.6,353.9,491.5,353.2,491.3z"/>
	<path d="M875.9,477.3c0.2,0.5,0.4,0.9,0.7,1.4l0.1-0.1C876.4,478.2,876.2,477.7,875.9,477.3L875.9,477.3z"/>
	<path d="M877.2,480.2c0.2,0.5,0.5,0.9,0.7,1.4l0.1-0.1c-0.2-0.5-0.5-0.9-0.7-1.4L877.2,480.2z"/>
	<path d="M876.5,478.7c0.2,0.5,0.5,1,0.7,1.5l0.1-0.1c-0.2-0.5-0.5-0.9-0.7-1.4L876.5,478.7z"/>
	<path d="M257.5,473.2c0.1-0.6,0.4-0.6,1.2-0.3C258.1,473,257.7,473.1,257.5,473.2L257.5,473.2z"/>
	<path d="M837.4,458c-0.2-0.2-0.3-0.4-0.2-0.2C837.2,457.6,837.3,457.9,837.4,458L837.4,458z"/>
	<path d="M762.3,452.7c0.3,0.1,0.5,0.1,0.8,0.2c-0.1,0.1-0.2,0.2-0.2,0.1C762.7,452.9,762.5,452.7,762.3,452.7L762.3,452.7z"/>
	<polygon points="324.2,492.2 323.9,492.1 324.2,492 	"/>
	<path d="M774,431.1c0,0.2,0.1,0.4,0.1,0.6c0,0.1-0.1,0.2-0.1,0.3c-0.1-0.1-0.3-0.3-0.3-0.4C773.7,431.4,774,431.3,774,431.1
		C774.1,431.2,774,431.1,774,431.1z"/>
	<path d="M834,463.5c-0.2-0.1-0.5-0.1-0.3-0.1C833.6,463.3,833.8,463.4,834,463.5L834,463.5z"/>
	<path d="M880.7,460c-0.1,0.3-0.1,0.5-0.1,0.3C880.5,460.5,880.6,460.3,880.7,460L880.7,460z"/>
	<polygon points="395.8,467.2 395.8,467.4 395.5,467.3 	"/>
	<path d="M730.4,464.5c0.1,0,0.2-0.1,0.3-0.1c0,0.1,0,0.2,0.1,0.4c-0.1,0-0.2,0-0.3,0C730.4,464.7,730.4,464.6,730.4,464.5z"/>
	<path d="M437.6,502.8c0,0.1-0.1,0.2-0.1,0.2C437.5,503,437.6,502.9,437.6,502.8C437.7,502.8,437.6,502.8,437.6,502.8z"/>
	<path d="M438.3,502.1c-0.3,0.2-0.5,0.4-0.8,0.6l0.1,0.1C437.9,502.6,438.2,502.4,438.3,502.1L438.3,502.1z"/>
	<path d="M438.4,502.2c0.2-0.3,0.5-0.5,0.7-0.8l-0.1-0.1C438.8,501.6,438.6,501.9,438.4,502.2C438.3,502.1,438.4,502.2,438.4,502.2z
		"/>
	<path d="M840,499.3c0,0.1,0,0.1-0.1,0.2C840,499.4,840.1,499.4,840,499.3L840,499.3z"/>
	<path d="M840.1,499.4c0.3-0.2,0.5-0.5,0.8-0.7l-0.1-0.1C840.5,498.8,840.3,499,840.1,499.4L840.1,499.4z"/>
	<path d="M487.1,114.6c0,0.1-0.1,0.2-0.1,0.3C487.1,114.9,487.2,114.8,487.1,114.6C487.2,114.7,487.1,114.6,487.1,114.6z"/>
	<polygon points="659.1,470.3 659.1,470.5 659.1,470.4 	"/>
	<polygon points="257.4,473.1 257.3,473.3 257.5,473.2 	"/>
	<polygon points="367.6,449.4 367.9,449.3 367.8,449.6 	"/>
	<polygon points="830,461.1 830.2,461 830.2,461.2 	"/>
	<path d="M714.5,373.3c0,1.8-1,2.3-1.7,2.9c-4.2,3.1-8.7,5.4-13.7,6.9c-5.3,1.6-10.7,2.5-16.1,3.4c-3,0.5-6.1,0.9-9.2,1.3
		c-1.2,0.2-2.5,0.1-4.2,0.2c1-1,1.8-1.2,2.7-1.4c4.8-1,9.6-1.9,14.5-2.8c5.6-1,11.2-2.2,16.6-4.3c3.3-1.3,6.5-2.7,9.3-5
		C713.1,374.1,713.6,373.8,714.5,373.3z"/>
	<path d="M716.8,380.6c0,0.6,0.1,1.1,0,1.5c-0.2,0.6-0.6,1.3-1,1.8c-3.2,3.6-7,6.5-11.4,8.8c-0.3-0.9,0.3-1.2,0.6-1.4
		c2-1.5,4.1-3,6.1-4.5c1.1-0.8,2.2-1.7,3.1-2.7C715.1,383,715.8,381.9,716.8,380.6z"/>
	<path d="M672.3,306c1.4,2.8,1.4,2.8,1.3,8.6c0,1.3,0.2,2.7-0.6,3.8c-0.3-0.1-0.4-0.1-0.4-0.1c-0.1-0.6-0.3-1.1-0.3-1.7
		C672.3,313.3,672.3,310,672.3,306z"/>
	<path d="M606,349c-1.3,1.5-3.1,1.8-4.8,2.4c-2.4,0.8-4.6,0.1-7-0.2c0.4-1,1.2-1.1,1.8-1c2.9,0.5,5.7-0.3,8.3-1.4
		c0.4-0.2,0.9-0.1,1.3-0.1C605.7,348.8,605.8,348.9,606,349z"/>
	<path d="M653.6,305.2c2.4-2.7,5.4-4.5,8.5-5c0,0.2,0,0.5-0.1,0.6c-2.4,1.5-4.9,2.9-7.3,4.4c-0.3,0.2-0.6,0.2-1,0.2L653.6,305.2z"/>
	<path d="M712.1,389.9c0,0.2,0,0.5-0.1,0.6c-1.8,2.7-3.7,5.3-5.6,8c-0.1,0.1-0.4,0.2-0.6,0.3l0.1,0.1c1.1-3.4,3.4-6,5.6-8.7
		C711.7,390,712,390,712.1,389.9L712.1,389.9z"/>
	<path d="M695.6,396.5c-1.7-3.9-1.2-7.4-1-10.8c0.9,1.7,0.5,3.5,0.6,5.3C695.3,392.6,695.4,394.3,695.6,396.5z"/>
	<path d="M714.2,396.1c1.2-2.3,2.3-4.5,3.5-6.8l-0.1-0.1c-0.2,2.7-1.6,4.8-3.1,6.8C714.4,396,714.2,396,714.2,396.1L714.2,396.1z"/>
	<path d="M715.5,385.8c-0.8,1.9-1.5,2.8-3.4,4.2l0.1,0.1C712.9,388,713.5,387.4,715.5,385.8L715.5,385.8z"/>
	<path d="M644.7,312.1c0.9-0.7,1.8-1.3,3.1-2.4C646.6,311.7,646.6,311.7,644.7,312.1L644.7,312.1z"/>
	<path d="M674.1,283.7c-1.2,0.5-2-0.1-2.8-0.8C672.5,282.4,673.2,283.1,674.1,283.7z"/>
	<path d="M671.8,324c0.2-0.6,0.3-1.1,0.5-1.7c0.1,0,0.2,0.1,0.3,0.1c0,0.3,0,0.6-0.1,0.9c-0.1,0.3-0.3,0.6-0.5,0.8
		C672,324.1,671.9,324,671.8,324z"/>
	<path d="M608.6,345.9c0.1-0.1,0.3-0.3,0.4-0.4c0.1,0.1,0.2,0.3,0.3,0.5c0,0-0.2,0.2-0.2,0.2C608.9,346.1,608.8,346,608.6,345.9z"/>
	<path d="M653.8,305.4c-0.4,1-1.2,1.3-2.2,1.2l0.1,0.1c0.6-0.6,1.1-1.3,2-1.4L653.8,305.4z"/>
	<path d="M700.9,405.2c0.6,0.4,0.9,0.6,1.3,0.8C701.6,406.4,701.4,405.9,700.9,405.2z"/>
	<path d="M660.4,289c-0.1,0-0.1-0.1-0.2-0.1c0.1-0.2,0.1-0.3,0.2-0.4c0,0,0.2,0.1,0.2,0.1C660.6,288.7,660.5,288.8,660.4,289z"/>
	<path d="M708,410c0.3,0.1,0.6,0.1,0.9,0.2c0.1,0,0.1,0.2,0.1,0.3c-0.2,0.1-0.4,0.2-0.5,0.2C708.4,410.4,708.3,410.1,708,410
		L708,410z"/>
	<path d="M714.1,396c0.1,0.6,0.3,1.3-0.7,1.4l0.1,0.1C713.7,397,714,396.5,714.1,396L714.1,396z"/>
	<path d="M713.4,397.4c0,0.6,0.1,1.2-0.7,1.4l0.1,0.1C713.1,398.4,713.3,397.9,713.4,397.4L713.4,397.4z"/>
	<path d="M705.9,398.8c-0.2,0.5-0.4,0.9-0.6,1.4l0.1,0.1C705.6,399.8,705.8,399.3,705.9,398.8L705.9,398.8z"/>
	<path d="M712.7,398.7c0,0.3-0.1,0.6,0,0.3C712.6,399.3,712.7,399.1,712.7,398.7L712.7,398.7z"/>
	<path d="M706.7,408.4c-0.2-0.1-0.4-0.1-0.6-0.2C706.2,408.4,706.4,408.4,706.7,408.4C706.6,408.5,706.7,408.4,706.7,408.4z"/>
	<path d="M617.9,341.1c0-0.5,0.2-0.6,0.6-0.5c0.1,0,0.1,0.2,0.2,0.2c-0.2,0.1-0.4,0.2-0.6,0.3C618.1,341.2,618,341.1,617.9,341.1
		C617.9,341,617.9,341.1,617.9,341.1z"/>
	<path d="M612.9,343.3c0.1,0,0.2-0.1,0.3-0.1c0,0.1,0.1,0.3,0.1,0.4c-0.1,0-0.2,0-0.3-0.1C612.9,343.5,612.9,343.4,612.9,343.3z"/>
	<path d="M669.2,298.2c0.1,0,0.1,0.1,0.2,0.1c-0.1,0.1-0.2,0.1-0.3,0.2C669.1,298.4,669.1,298.3,669.2,298.2z"/>
	<path d="M717.7,383.8c0.2-0.2,0.5-0.4,0.7-0.7l-0.1-0.1C718.1,383.2,717.9,383.5,717.7,383.8L717.7,383.8z"/>
	<path d="M717.6,383.7c0,0.5-0.2,0.7-0.7,0.7l0.1,0.1C717,384,717.3,383.8,717.6,383.7C717.7,383.8,717.6,383.7,717.6,383.7z"/>
	<path d="M716.9,384.4c0,0.5-0.2,0.7-0.7,0.7l0.1,0.1C716.3,384.7,716.6,384.5,716.9,384.4C717,384.5,716.9,384.4,716.9,384.4z"/>
	<path d="M715.6,385.8c0-0.5,0.3-0.7,0.7-0.7l-0.1-0.1C716.3,385.6,716.1,385.8,715.6,385.8L715.6,385.8z"/>
	<path d="M717.6,389.3c0.1-0.1,0.2-0.2,0.3-0.3c0,0.1-0.1,0.1-0.1,0.2C717.7,389.2,717.6,389.2,717.6,389.3L717.6,389.3z"/>
	<polygon points="705.3,400.2 705.2,400.3 705.4,400.3 	"/>
	<path d="M706.6,408.5c0.2,0.2,0.4,0.5,0.6,0.7l0.1-0.1C707.1,408.9,706.9,408.7,706.6,408.5L706.6,408.5z"/>
	<path d="M708.1,409.9c-0.3-0.2-0.5-0.5-0.8-0.7l-0.1,0.1C707.5,409.5,707.8,409.7,708.1,409.9L708.1,409.9z"/>
	<polygon points="663.7,288.6 663.6,288.4 663.8,288.5 	"/>
	<path d="M667.1,289.4c-0.1-0.1-0.1-0.2-0.2-0.2c0.1-0.1,0.2-0.2,0.2-0.2c0.1,0,0.1,0.1,0.2,0.2
		C667.2,289.3,667.1,289.3,667.1,289.4z"/>
	<polygon points="651.5,306.5 651.5,306.7 651.6,306.6 	"/>
	<polygon points="644.7,312.1 644.6,312.3 644.7,312.1 	"/>
	<path d="M617.9,341c-0.1,0.2-0.1,0.3-0.2,0.5C617.3,341,617.7,341.1,617.9,341C617.9,341.1,617.9,341,617.9,341z"/>
	<path d="M737.5,487.8c-0.8,0.9-1,1.4-1.3,1.5c-2.2,0.7-4.5,0.7-6.7-0.1c-0.2-0.1-0.3-0.3-0.5-0.6
		C731.6,487.7,734.2,487.8,737.5,487.8z"/>
	<path d="M779.4,494.9c-3.5,0.6-6.8,0.2-10.3-1.5C772.3,493.1,777.4,493.7,779.4,494.9z"/>
	<path d="M810.8,468.8c-3.3,0.4-5.5-0.9-7.9-1c0.4-0.1,0.9-0.3,1.3-0.3c1.7,0.1,3.4,0.3,5,0.5C809.6,468.1,809.9,468.3,810.8,468.8z
		"/>
	<path d="M794.8,470.2c0.9-1.4,1.9-1,3.1-0.8C797,470.8,796,470.5,794.8,470.2z"/>
	<path d="M763.8,491.7c-0.8,0-1.5,0-2.3,0C762.7,490.7,762.7,490.7,763.8,491.7z"/>
	<path d="M723.2,490.2c-0.5,0-1,0-1.4,0c0-0.1,0-0.2,0-0.3c0.5-0.1,1-0.2,1.5-0.2C723.2,489.9,723.2,490,723.2,490.2z"/>
	<path d="M716,489.1c0.8,0,1.4,0,2.3,0C717.5,489.9,716.9,489.8,716,489.1z"/>
	<path d="M757.6,488.7c-0.7,0.1-1,0.2-1.3,0.2c-0.1,0-0.2-0.1-0.3-0.2c0.1-0.1,0.2-0.4,0.3-0.4C756.6,488.4,756.9,488.5,757.6,488.7
		z"/>
	<path d="M726.6,489.3C726.1,489.3,726.4,489.3,726.6,489.3C726.4,489.3,726.1,489.3,726.6,489.3z"/>
	<path d="M767.6,492.2c-0.1,0.1-0.1,0.2-0.2,0.2c-0.2,0-0.3-0.1-0.5-0.2c0.1-0.1,0.2-0.2,0.2-0.2C767.3,492,767.5,492.1,767.6,492.2
		z"/>
	<path d="M779.7,466.2c0.1,0.2,0.3,0.4,0.4,0.6c-0.2-0.1-0.4-0.2-0.6-0.4L779.7,466.2z"/>
	<path d="M761.2,409c-1.9,0.4-3.8,0.7-5.6,1.3c-1.7,0.5-3.4,1.4-5,2.1c-0.6-0.5-0.3-0.8,0.1-1.1c2.4-1.9,5.2-2.9,8.2-3
		c0.8,0,1.5,0.2,2.3,0.4C761.2,408.7,761.2,408.9,761.2,409z"/>
	<path d="M752.8,434.4c-1.7-2-1.6-3.6-1.3-5.5c0.4,0.2,0.7,0.3,0.8,0.5C752.9,430.8,753.1,432.2,752.8,434.4z"/>
	<path d="M743.2,431.1c-0.4-0.1-1,0-1.2-0.2c-0.6-0.6-1.1-1.4-0.7-2.4c0.6-0.3,0.8,0.1,1,0.5C742.6,429.7,742.9,430.4,743.2,431.1
		L743.2,431.1z"/>
	<path d="M743.1,431.2c0.6,0.7,1.3,1.5,1.9,2.2c-0.6,0.6-1,0.3-1.2-0.1C743.6,432.5,743.4,431.8,743.1,431.2L743.1,431.2z"/>
	<path d="M745.7,413c0.8-0.8,1.6-1.1,2.7-0.7C747.6,412.9,746.8,413.4,745.7,413z"/>
	<path d="M751,423.2c-0.5-0.7-0.8-1.4,0-2C751.6,421.9,751.6,422.6,751,423.2z"/>
	<path d="M727,402.6c0.3,0.3,0.5,0.6,0.8,0.9c0,0.1,0,0.3,0,0.3c-0.2,0-0.4,0.1-0.5,0C726.9,403.6,726.6,403.3,727,402.6z"/>
	<path d="M740.2,412.9c0.1,0.1,0.2,0.2,0.4,0.3c-0.2,0.1-0.3,0.3-0.5,0.4c0,0-0.2-0.2-0.2-0.2C739.9,413.2,740.1,413.1,740.2,412.9z
		"/>
	<path d="M735.8,413.8c-0.3,0-0.6,0.1-0.9,0.1c0-0.2,0-0.3,0-0.5c0.3,0.1,0.6,0.1,0.9,0.2C735.8,413.7,735.8,413.7,735.8,413.8z"/>
	<path d="M751.8,425.1c0,0.6,0,1.1,0,1.8C751.2,426.2,751.1,425.7,751.8,425.1z"/>
	<path d="M725.9,400.3c0.1,0.1,0.2,0.2,0.3,0.3c-0.1,0-0.1,0-0.2-0.1C726,400.4,726,400.3,725.9,400.3
		C726,400.2,725.9,400.3,725.9,400.3z"/>
	<path d="M553.2,328.7c-0.5,0.8-1.4,0.9-2.3,1.1C551.3,328.5,552.3,328.7,553.2,328.7L553.2,328.7z"/>
	<polygon points="569,354.7 569,354.9 569,354.8 	"/>
	<path d="M499.5,194.3c1.8-0.9,3.6-2,6.2-1.7c-0.6,0.5-0.8,0.8-1.1,1C502.9,194,501.2,194.4,499.5,194.3z"/>
	<path d="M507,197.9c-0.7,0.2-1.3,0.5-2,0.7c-0.1-0.1-0.1-0.2-0.2-0.4c0.3-0.2,0.6-0.4,0.9-0.5c0.4-0.1,0.8-0.2,1.2-0.2
		C506.9,197.6,507,197.8,507,197.9z"/>
	<path d="M519.4,241.3c1.6-0.9,2.4-1,3.3-0.1c0.2,0.2,0.1,0.8,0.2,1.5c-0.9-0.4-1.5-0.6-2.1-0.8
		C520.4,241.7,519.7,242.1,519.4,241.3z"/>
	<path d="M859.2,487.4c-2,0.4-3.5,0.2-5,0c-3.3-0.5-6.6,0-9.9,0.4c-1.2,0.1-2.3,0.7-3.6,1.1c-0.1-0.8,0.4-1,0.9-1.2
		c2.1-1,4.4-1.1,6.7-1.3C851.9,486.1,855.4,486.3,859.2,487.4z"/>
	<polygon points="861,488 860.7,488 860.7,487.9 	"/>
	<path d="M882.1,493.8c-0.4,0.4-0.9,0.4-1.4,0.1C881.2,493.9,881.7,493.9,882.1,493.8L882.1,493.8z"/>
	<path d="M855.9,495.3c0.3-0.7,1-0.6,1.5-0.8C856.9,494.7,856.4,495,855.9,495.3z"/>
	<path d="M864.1,483.6c-1.3-1.1-2.1-2.4-1.9-4.2l-0.1,0.1c1,1.2,1.8,2.5,2.2,4L864.1,483.6z"/>
	<path d="M851.9,480.1c-0.5-0.2-1-0.5-1.5-0.7c0-0.5,0-1,0-1.5C851.2,478.5,851.8,479.1,851.9,480.1z"/>
	<path d="M849.7,476.6c0.3,0,0.5,0,0.8,0c0,0.5,0,1,0,1.5C849.7,477.9,849.8,477.1,849.7,476.6z"/>
	<path d="M860.8,482.8c-0.1-0.2-0.3-0.3-0.4-0.5c0,0,0.1-0.2,0.1-0.3C860.6,482.4,860.6,482.6,860.8,482.8
		C860.7,482.9,860.8,482.8,860.8,482.8z"/>
	<path d="M862.2,479.4c-0.2-0.2-0.3-0.4-0.2-0.2C862,478.9,862,479.2,862.2,479.4L862.2,479.4z"/>
	<path d="M852.6,480.8c-0.6,0-0.8-0.3-0.8-0.8C852.3,480,852.5,480.3,852.6,480.8z"/>
	<path d="M869.1,473.8c1.5,1.1,1.3,2.7,1.4,4.3c-1.3-1.1-1.6-2.7-2.1-4.2l-0.1,0.1C868.5,473.9,868.8,473.9,869.1,473.8z"/>
	<path d="M870.4,477.9c1.2,0.9,1.8,2.2,2.2,3.6C871.2,480.7,870.6,479.4,870.4,477.9z"/>
	<path d="M868.3,473.9c-0.1-0.2-0.3-0.3-0.4-0.5c0-0.1,0-0.2,0-0.3c0.1,0.1,0.3,0.2,0.3,0.3C868.3,473.6,868.2,473.8,868.3,473.9
		L868.3,473.9z"/>
	<path d="M871.9,472.4c-0.1-0.1-0.3-0.1-0.4-0.2c0.1,0,0.1,0,0.2,0C871.7,472.3,871.7,472.4,871.9,472.4L871.9,472.4z"/>
	<path d="M849.8,475.9c0,0.3,0,0.6,0,0.8c-0.1-0.2-0.2-0.4-0.2-0.6C849.6,476,849.7,475.9,849.8,475.9z"/>
	<path d="M178,406.8c3.4-1.3,6.8-1.1,10.2-1.2c0.4,0,0.8,0.3,1.3,0.6c-0.3,0.4-0.5,0.8-0.7,0.9c-3.3,0.6-6.5,0.9-9.8,0.4
		C178.6,407.4,178.4,407.1,178,406.8z"/>
	<path d="M151.4,415c-4,0.7-6.8,0.5-13-0.7c2.8-0.5,10.5-0.5,12.5,0C151,414.3,151.1,414.6,151.4,415z"/>
	<path d="M292.8,437.1c-3.5,0.4-5.3,0.1-8.7-1.7C287.4,436,290.2,436.1,292.8,437.1z"/>
	<path d="M75,400.8c-1.5-0.2-2.7-0.4-3.9-0.6c-0.6-0.1-1-0.5-0.8-1.2c0.1-0.5,0.8-0.9,1.3-0.6C72.8,398.7,74,399.4,75,400.8z"/>
	<path d="M237.1,441.4c-0.2,1.8-0.7,3.4-2.6,4.2c-0.1-0.4-0.3-0.9-0.2-1C235.2,443.5,236.1,442.5,237.1,441.4z"/>
	<path d="M280.1,431.9c0.3-2.7,0.8-4.3,2.1-6.4C281.7,428.5,281.3,429.9,280.1,431.9L280.1,431.9z"/>
	<path d="M280,431.8c0.3,1.8-0.2,3.4-1.4,4.8l0.1,0.1C278.9,435,278.9,433.3,280,431.8L280,431.8z"/>
	<path d="M167,407c2.3-0.6,2.3-0.6,2.7,0.4c-0.2,0.1-0.4,0.3-0.5,0.3C168.4,407.4,167.7,407.2,167,407z"/>
	<path d="M261.8,430.9c0.8,0,1.6-0.2,2.3,0.5C263,432,262.5,430.9,261.8,430.9z"/>
	<path d="M174.7,426.4c0.6,0.3,1.2,0.6,1.8,0.8c0,0.1-0.1,0.2-0.1,0.4c-0.6-0.2-1.3-0.4-1.9-0.5
		C174.5,426.9,174.6,426.7,174.7,426.4z"/>
	<path d="M80.7,401c0.6,0.2,1.1,0.5,2.1,0.9C81.5,402.3,80.9,402.1,80.7,401z"/>
	<path d="M123.3,411.6c-0.2,0-0.4,0.1-0.6,0.1c0,0-0.1-0.2-0.1-0.3c0.2,0,0.4,0,0.6,0C123.2,411.4,123.3,411.5,123.3,411.6z"/>
	<path d="M174.6,407.6c-0.5,0.5-1,0.5-1.4,0C173.7,407.1,174.2,407,174.6,407.6z"/>
	<path d="M271.6,429.7c0,0.3,0,0.5,0,0.8c0,0-0.1,0.1-0.2,0.1c0-0.3,0-0.6-0.1-0.9C271.5,429.7,271.5,429.7,271.6,429.7z"/>
	<path d="M77.6,400.9c-0.3-0.1-0.7-0.2-1-0.3c0.1-0.2,0.1-0.4,0.2-0.5c0.3,0.1,0.6,0.3,0.9,0.4C77.7,400.6,77.7,400.8,77.6,400.9z"
		/>
	<path d="M278.6,436.6c0,0.2-0.1,0.4-0.1,0.6c0-0.1,0-0.2,0.1-0.3C278.6,436.9,278.7,436.8,278.6,436.6
		C278.7,436.7,278.6,436.6,278.6,436.6z"/>
	<path d="M241.7,434.1c0-0.3,0-0.6,0-0.3C241.8,433.5,241.7,433.8,241.7,434.1C241.6,434,241.7,434.1,241.7,434.1z"/>
	<path d="M240.9,434.6c0.1-0.4,0.3-0.7,0.8-0.5l-0.1-0.1C241.3,434.2,241.1,434.4,240.9,434.6L240.9,434.6z"/>
	<path d="M240.8,434.5c0,0.1-0.1,0.3-0.1,0.4c0-0.1,0-0.1,0-0.2C240.7,434.7,240.8,434.7,240.8,434.5L240.8,434.5z"/>
	<path d="M329.7,425.8c1.6-1.2,2.4-1.4,5.6-1.1C332.9,425.1,331.3,425.4,329.7,425.8L329.7,425.8z"/>
	<path d="M319.3,426.5c1.1,0,2.2,0.1,3.3,0.1c0,0.1,0,0.2,0,0.3c-1.1,0-2.3,0-3.4,0C319.2,426.7,319.3,426.6,319.3,426.5z"/>
	<path d="M314.6,426.2c-0.5,0-1,0-1.5,0c0-0.1,0-0.1,0-0.2c0.5,0,1,0,1.5,0C314.6,426,314.6,426.1,314.6,426.2z"/>
	<path d="M327.6,426.5c0.4-1.1,1.3-0.8,2.1-0.7l-0.1-0.1C329.1,426.5,328.3,426.4,327.6,426.5L327.6,426.5z"/>
	<path d="M327.6,426.4c-0.2,0.2-0.5,0.5-0.7,0.6c-0.1,0.1-0.4-0.1-1.1-0.3C326.7,426.6,327.2,426.5,327.6,426.4L327.6,426.4z"/>
	<path d="M305.3,439.9c-0.1,0-0.2,0.1-0.3,0.1c0-0.1,0-0.2-0.1-0.4c0.1,0,0.2,0,0.3,0C305.3,439.7,305.3,439.8,305.3,439.9z"/>
	<path d="M310.7,425.5c-0.1,0-0.3,0.1-0.3,0.1c-0.1-0.1-0.1-0.2-0.1-0.3c0.1,0,0.2,0,0.3,0.1C310.6,425.3,310.7,425.4,310.7,425.5z"
		/>
	<polygon points="333,461.5 332.9,461.4 333,461.6 	"/>
	<path d="M333,461.6c0.2,0,0.4,0,0.6,0.1c0,0.1-0.1,0.2-0.1,0.3c-0.1-0.1-0.2-0.3-0.4-0.4L333,461.6z"/>
	<path d="M336.5,464.9c-0.1-0.1-0.2-0.2-0.3-0.3c0.1,0,0.2,0,0.2,0.1C336.4,464.8,336.4,464.9,336.5,464.9L336.5,464.9z"/>
	<path d="M336.4,465c0.1,0,0.2,0.1,0.2,0.1C336.6,465,336.6,464.9,336.4,465L336.4,465z"/>
	<path d="M434.9,460.1c1.1,1.4,1.8,2.9,2.3,4.5c0.5,1.4,1.1,2.8,2.2,4c1,0.4,2.2,0.8,3.3,1.1c-0.1,0.9-0.7,0.7-1,0.7
		c-2.4-0.2-4-1.3-5-3.5C435.7,464.8,435.2,462.5,434.9,460.1L434.9,460.1z"/>
	<path d="M455.9,446.9c0.7-0.1,1.5-0.2,2.2-0.5c0.7-0.3,1.2-0.7,1.9-1.2c0.2,2.7,0.2,2.7-2,6.2c-1.3-0.3-0.1-1.7-0.9-2.2
		C456.2,448.7,455.8,448,455.9,446.9z"/>
	<path d="M461.8,452.5c0.2-1.3,0.7-2.7,0.5-4c-0.1-1.3-0.8-2.6-1.2-3.9c-0.1-0.3,0.1-0.6,0.1-0.9c0.2,0,0.3-0.1,0.4,0
		c2.5,2.4,2.7,5.8,0.7,8.6C462.2,452.5,461.9,452.4,461.8,452.5L461.8,452.5z"/>
	<path d="M433.5,467c-0.9,0.2-1.6-0.1-2.3-1.1C432.2,466.3,433.1,466,433.5,467L433.5,467z"/>
	<path d="M427.4,472c-1,0.2-1.2,0.3-1.4,0.2c-0.2,0-0.4-0.1-0.6-0.2c0.2-0.1,0.4-0.2,0.6-0.2C426.1,471.9,426.3,471.9,427.4,472z"/>
	<path d="M428.2,463.8c0,0.1,0,0.1,0,0.2c-0.1,0-0.2,0.1-0.3,0c-0.1,0-0.1-0.1-0.2-0.2C427.9,463.8,428.1,463.8,428.2,463.8z"/>
	<path d="M434.9,467.6c-0.7,0.2-1.2,0.1-1.4-0.7l-0.1,0.1C434.1,466.9,434.7,466.9,434.9,467.6L434.9,467.6z"/>
	<path d="M434.9,467.7c0.2,0.1,0.3,0.1,0.5,0.2c-0.1,0.1-0.2,0.2-0.3,0.2C435,468,435,467.8,434.9,467.7L434.9,467.7z"/>
	<path d="M443.1,480.8c0-0.3,0-0.5,0-0.8C443.8,480.2,443.3,480.5,443.1,480.8z"/>
	<polygon points="461.7,452.5 461.6,452.7 461.8,452.5 	"/>
	<path d="M432.1,456c0.1,0.1,0.2,0.2,0.3,0.3c-0.1,0-0.2,0-0.2-0.1C432.2,456.1,432.2,456,432.1,456L432.1,456z"/>
	<path d="M474.2,458.2c0-0.1,0-0.2,0-0.3C474.2,458,474.1,458,474.2,458.2L474.2,458.2z"/>
	<polygon points="435,460.1 434.8,460 434.9,460.1 	"/>
	<path d="M33.1,385.6c2.5-1,5-1.7,7.7-1.7C38.3,384.9,35.8,385.6,33.1,385.6z"/>
	<path d="M35.7,369.9c-0.7,1.4-1.9,0.4-2.9,0.3C33.8,370.1,34.8,370,35.7,369.9L35.7,369.9z"/>
	<path d="M34.3,373.3c-0.5,0.2-1.1,0.5-1.6,0.7c0-0.1-0.1-0.2-0.1-0.3C33.2,373.6,33.8,373.5,34.3,373.3L34.3,373.3z"/>
	<path d="M37.1,372.6c-0.3,0.2-0.6,0.6-0.9,0.6c-0.6,0.1-1.2,0-1.9,0l0.1,0.1C35.3,373.2,36.2,372.9,37.1,372.6
		C37.2,372.7,37.1,372.6,37.1,372.6z"/>
	<path d="M35.8,370c0.4-0.4,0.8-0.7,1.6-0.1C36.7,369.9,36.2,369.9,35.8,370L35.8,370z"/>
	<path d="M37.2,372.7c0.2-0.1,0.5-0.2,0.3-0.1C37.6,372.6,37.4,372.6,37.2,372.7C37.1,372.6,37.2,372.7,37.2,372.7z"/>
	<path d="M16.5,221.7c-1.1,1.2-1.6,1.3-6.4,0.8C12.3,221.7,14.3,221.1,16.5,221.7z"/>
	<path d="M15.1,227c0.8,0,1.6,0,2.4,0c0,0.1,0,0.2,0,0.3c-0.8,0-1.6,0-2.4,0C15.1,227.3,15.1,227.2,15.1,227z"/>
	<path d="M23.8,274.3c-0.5-0.4-0.9-0.9-1.5-1.2c-0.4-0.2-0.9-0.3-1.5-0.5c0.3-0.4,0.4-0.7,0.5-0.7c0.8,0.1,1.6,0.2,2.3,0.4
		C24.4,272.5,24.4,273.1,23.8,274.3z"/>
	<path d="M457.5,490.4c-1.5,0-3,0-4.5-0.2c-3-0.4-5.9-0.3-8.9,0c-1.9,0.2-3.8,0.5-5.8,1.6c0.6-1.7,1.7-1.9,2.6-2.1
		c5.3-1.1,10.7-1.1,16,0.2C457.2,490.1,457.3,490.3,457.5,490.4L457.5,490.4z"/>
	<path d="M457.5,490.5c0.4,0.1,0.9,0.1,0.6,0.1C458.3,490.6,457.9,490.5,457.5,490.5C457.5,490.4,457.5,490.5,457.5,490.5z"/>
	<polygon points="461.1,491.4 461.1,491.5 460.9,491.4 	"/>
	<path d="M474.2,480.8c-1.1-0.4-1.1-0.4-0.7-1.5C473.7,479.8,473.9,480.3,474.2,480.8z"/>
	<path d="M475.5,483.6c-0.3-0.5-0.5-1-0.8-1.5C475,482.6,475.3,483.1,475.5,483.6z"/>
	<path d="M474.8,482.2c-0.2-0.5-0.5-1-0.7-1.5C474.3,481.2,474.6,481.7,474.8,482.2z"/>
	<path d="M468,480c-1.2-0.5-1.2-1.6-1.4-2.7l-0.1,0.1c0.3-0.3,0.7-0.6,1-0.9C467.9,477.7,468.6,478.8,468,480L468,480z"/>
	<path d="M470.7,484.9c-1.1-0.9-1.8-2-2.1-3.4l-0.1,0.1C469.9,482.4,470.4,483.2,470.7,484.9L470.7,484.9z"/>
	<path d="M470,474.5c0,0.7,0,1.5,0,2.2C469.2,475.6,469.2,475.6,470,474.5z"/>
	<path d="M467.9,480.1c0.8,0.2,0.8,0.8,0.6,1.5l0.1-0.1C467.9,481.2,467.9,480.6,467.9,480.1L467.9,480.1z"/>
	<path d="M466.5,477.3c-0.3-0.3-0.7-0.5-0.1-1.2C466.4,476.7,466.4,477.1,466.5,477.3L466.5,477.3z"/>
	<polygon points="464.7,473.1 464.9,473.1 464.8,473.4 	"/>
	<path d="M470.6,485c0.6-0.2,0.7,0.2,0.7,0.7l0.1-0.1C471.2,485.3,470.9,485.1,470.6,485L470.6,485z"/>
	<path d="M479.6,496.5c-0.4,0.2-0.7,0.4-1.1,0.6c0-0.1-0.1-0.2-0.1-0.4C478.9,496.7,479.3,496.7,479.6,496.5L479.6,496.5z"/>
	<path d="M485.8,495.8c0,0.3,0,0.6,0,0.8C485.3,496.4,485.4,496.1,485.8,495.8z"/>
</g>
</svg>
